0, 0, Header, 1, 13, 960
1, 0, Start_track
1, 0, Control_c, 0, 101, 0
1, 0, Control_c, 0, 100, 0
1, 0, Control_c, 0, 6, 12
1, 0, Control_c, 0, 38, 0
1, 0, Control_c, 1, 101, 0
1, 0, Control_c, 1, 100, 0
1, 0, Control_c, 1, 6, 12
1, 0, Control_c, 1, 38, 0
1, 0, Control_c, 2, 101, 0
1, 0, Control_c, 2, 100, 0
1, 0, Control_c, 2, 6, 12
1, 0, Control_c, 2, 38, 0
1, 0, Control_c, 3, 101, 0
1, 0, Control_c, 3, 100, 0
1, 0, Control_c, 3, 6, 12
1, 0, Control_c, 3, 38, 0
1, 0, Control_c, 4, 101, 0
1, 0, Control_c, 4, 100, 0
1, 0, Control_c, 4, 6, 12
1, 0, Control_c, 4, 38, 0
1, 0, Control_c, 5, 101, 0
1, 0, Control_c, 5, 100, 0
1, 0, Control_c, 5, 6, 12
1, 0, Control_c, 5, 38, 0
1, 0, Control_c, 6, 101, 0
1, 0, Control_c, 6, 100, 0
1, 0, Control_c, 6, 6, 12
1, 0, Control_c, 6, 38, 0
1, 0, Control_c, 7, 101, 0
1, 0, Control_c, 7, 100, 0
1, 0, Control_c, 7, 6, 12
1, 0, Control_c, 7, 38, 0
1, 0, Control_c, 8, 101, 0
1, 0, Control_c, 8, 100, 0
1, 0, Control_c, 8, 6, 12
1, 0, Control_c, 8, 38, 0
1, 0, Control_c, 9, 101, 0
1, 0, Control_c, 9, 100, 0
1, 0, Control_c, 9, 6, 12
1, 0, Control_c, 9, 38, 0
1, 0, Control_c, 10, 101, 0
1, 0, Control_c, 10, 100, 0
1, 0, Control_c, 10, 6, 12
1, 0, Control_c, 10, 38, 0
1, 0, Control_c, 11, 101, 0
1, 0, Control_c, 11, 100, 0
1, 0, Control_c, 11, 6, 12
1, 0, Control_c, 11, 38, 0
1, 0, Control_c, 12, 101, 0
1, 0, Control_c, 12, 100, 0
1, 0, Control_c, 12, 6, 12
1, 0, Control_c, 12, 38, 0
1, 0, Control_c, 13, 101, 0
1, 0, Control_c, 13, 100, 0
1, 0, Control_c, 13, 6, 12
1, 0, Control_c, 13, 38, 0
1, 0, Control_c, 14, 101, 0
1, 0, Control_c, 14, 100, 0
1, 0, Control_c, 14, 6, 12
1, 0, Control_c, 14, 38, 0
1, 0, Control_c, 15, 101, 0
1, 0, Control_c, 15, 100, 0
1, 0, Control_c, 15, 6, 12
1, 0, Control_c, 15, 38, 0
1, 0, Time_signature, 3, 2, 24, 8
1, 0, Tempo, 750000
1, 184320, Time_signature, 4, 2, 24, 8
1, 184320, Tempo, 689655
1, 445440, Time_signature, 3, 2, 24, 8
1, 693120, Time_signature, 4, 2, 24, 8
1, 693120, End_track
2, 0, Start_track
2, 0, Pitch_bend_c, 0, 8192
2, 0, Control_c, 0, 7, 103
2, 0, Control_c, 0, 10, 63
2, 0, Control_c, 0, 93, 0
2, 0, Control_c, 0, 91, 0
2, 0, Control_c, 0, 95, 0
2, 0, Control_c, 0, 92, 0
2, 0, Control_c, 0, 11, 127
2, 0, Program_c, 0, 30
2, 0, Control_c, 13, 7, 103
2, 0, Control_c, 13, 10, 63
2, 0, Control_c, 13, 93, 0
2, 0, Control_c, 13, 91, 0
2, 0, Control_c, 13, 95, 0
2, 0, Control_c, 13, 92, 0
2, 0, Control_c, 13, 11, 127
2, 0, Program_c, 13, 30
2, 480, Note_on_c, 0, 61, 127
2, 960, Note_off_c, 0, 61, 127
2, 960, Note_on_c, 0, 64, 127
2, 1440, Note_off_c, 0, 64, 127
2, 1440, Note_on_c, 0, 67, 127
2, 1920, Note_off_c, 0, 67, 127
2, 1920, Note_on_c, 0, 75, 127
2, 2400, Note_off_c, 0, 75, 127
2, 2400, Note_on_c, 0, 70, 127
2, 2880, Note_off_c, 0, 70, 127
2, 2880, Pitch_bend_c, 13, 8192
2, 2880, Note_on_c, 13, 72, 127
2, 3360, Pitch_bend_c, 13, 8192
2, 3381, Pitch_bend_c, 13, 8064
2, 3402, Pitch_bend_c, 13, 7936
2, 3423, Pitch_bend_c, 13, 7808
2, 3444, Pitch_bend_c, 13, 7680
2, 3465, Pitch_bend_c, 13, 7552
2, 3486, Pitch_bend_c, 13, 7424
2, 3507, Pitch_bend_c, 13, 7296
2, 3528, Pitch_bend_c, 13, 7168
2, 3549, Pitch_bend_c, 13, 7040
2, 3570, Pitch_bend_c, 13, 6912
2, 3591, Pitch_bend_c, 13, 6784
2, 3600, Pitch_bend_c, 13, 6784
2, 3621, Pitch_bend_c, 13, 6912
2, 3642, Pitch_bend_c, 13, 7040
2, 3663, Pitch_bend_c, 13, 7168
2, 3684, Pitch_bend_c, 13, 7296
2, 3705, Pitch_bend_c, 13, 7424
2, 3726, Pitch_bend_c, 13, 7552
2, 3747, Pitch_bend_c, 13, 7680
2, 3768, Pitch_bend_c, 13, 7808
2, 3789, Pitch_bend_c, 13, 7936
2, 3810, Pitch_bend_c, 13, 8064
2, 3831, Pitch_bend_c, 13, 8192
2, 3840, Pitch_bend_c, 13, 8192
2, 4800, Pitch_bend_c, 13, 8192
2, 5760, Pitch_bend_c, 13, 8192
2, 5760, Pitch_bend_c, 13, 8192
2, 5760, Note_off_c, 13, 72, 127
2, 6240, Note_on_c, 0, 61, 127
2, 6720, Note_off_c, 0, 61, 127
2, 6720, Note_on_c, 0, 64, 127
2, 7200, Note_off_c, 0, 64, 127
2, 7200, Note_on_c, 0, 67, 127
2, 7680, Note_off_c, 0, 67, 127
2, 7680, Note_on_c, 0, 75, 127
2, 8160, Note_off_c, 0, 75, 127
2, 8160, Note_on_c, 0, 70, 127
2, 8640, Note_off_c, 0, 70, 127
2, 8640, Pitch_bend_c, 13, 8192
2, 8640, Note_on_c, 13, 72, 127
2, 9120, Pitch_bend_c, 13, 8192
2, 9141, Pitch_bend_c, 13, 8064
2, 9162, Pitch_bend_c, 13, 7936
2, 9183, Pitch_bend_c, 13, 7808
2, 9204, Pitch_bend_c, 13, 7680
2, 9225, Pitch_bend_c, 13, 7552
2, 9246, Pitch_bend_c, 13, 7424
2, 9267, Pitch_bend_c, 13, 7296
2, 9288, Pitch_bend_c, 13, 7168
2, 9309, Pitch_bend_c, 13, 7040
2, 9330, Pitch_bend_c, 13, 6912
2, 9351, Pitch_bend_c, 13, 6784
2, 9360, Pitch_bend_c, 13, 6784
2, 9381, Pitch_bend_c, 13, 6912
2, 9402, Pitch_bend_c, 13, 7040
2, 9423, Pitch_bend_c, 13, 7168
2, 9444, Pitch_bend_c, 13, 7296
2, 9465, Pitch_bend_c, 13, 7424
2, 9486, Pitch_bend_c, 13, 7552
2, 9507, Pitch_bend_c, 13, 7680
2, 9528, Pitch_bend_c, 13, 7808
2, 9549, Pitch_bend_c, 13, 7936
2, 9570, Pitch_bend_c, 13, 8064
2, 9591, Pitch_bend_c, 13, 8192
2, 9600, Pitch_bend_c, 13, 8192
2, 10560, Pitch_bend_c, 13, 8192
2, 11520, Pitch_bend_c, 13, 8192
2, 11520, Pitch_bend_c, 13, 8192
2, 11520, Note_off_c, 13, 72, 127
2, 12000, Note_on_c, 0, 60, 127
2, 12480, Note_off_c, 0, 60, 127
2, 12480, Note_on_c, 0, 63, 127
2, 12960, Note_off_c, 0, 63, 127
2, 12960, Note_on_c, 0, 70, 127
2, 13440, Note_off_c, 0, 70, 127
2, 13440, Note_on_c, 0, 77, 127
2, 13920, Note_off_c, 0, 77, 127
2, 13920, Note_on_c, 0, 66, 127
2, 14400, Note_off_c, 0, 66, 127
2, 14400, Pitch_bend_c, 13, 8192
2, 14400, Note_on_c, 13, 74, 127
2, 14880, Pitch_bend_c, 13, 8192
2, 14901, Pitch_bend_c, 13, 8064
2, 14922, Pitch_bend_c, 13, 7936
2, 14943, Pitch_bend_c, 13, 7808
2, 14964, Pitch_bend_c, 13, 7680
2, 14985, Pitch_bend_c, 13, 7552
2, 15006, Pitch_bend_c, 13, 7424
2, 15027, Pitch_bend_c, 13, 7296
2, 15048, Pitch_bend_c, 13, 7168
2, 15069, Pitch_bend_c, 13, 7040
2, 15090, Pitch_bend_c, 13, 6912
2, 15111, Pitch_bend_c, 13, 6784
2, 15120, Pitch_bend_c, 13, 6784
2, 15141, Pitch_bend_c, 13, 6912
2, 15162, Pitch_bend_c, 13, 7040
2, 15183, Pitch_bend_c, 13, 7168
2, 15204, Pitch_bend_c, 13, 7296
2, 15225, Pitch_bend_c, 13, 7424
2, 15246, Pitch_bend_c, 13, 7552
2, 15267, Pitch_bend_c, 13, 7680
2, 15288, Pitch_bend_c, 13, 7808
2, 15309, Pitch_bend_c, 13, 7936
2, 15330, Pitch_bend_c, 13, 8064
2, 15351, Pitch_bend_c, 13, 8192
2, 15360, Pitch_bend_c, 13, 8192
2, 16320, Pitch_bend_c, 13, 8192
2, 17280, Pitch_bend_c, 13, 8192
2, 17280, Pitch_bend_c, 13, 8192
2, 17280, Note_off_c, 13, 74, 127
2, 17760, Note_on_c, 0, 60, 127
2, 18240, Note_off_c, 0, 60, 127
2, 18240, Note_on_c, 0, 63, 127
2, 18720, Note_off_c, 0, 63, 127
2, 18720, Note_on_c, 0, 70, 127
2, 19200, Note_off_c, 0, 70, 127
2, 19200, Note_on_c, 0, 77, 127
2, 19680, Note_off_c, 0, 77, 127
2, 19680, Note_on_c, 0, 66, 127
2, 20160, Note_off_c, 0, 66, 127
2, 20160, Pitch_bend_c, 13, 8192
2, 20160, Note_on_c, 13, 74, 127
2, 20640, Pitch_bend_c, 13, 8192
2, 20661, Pitch_bend_c, 13, 8064
2, 20682, Pitch_bend_c, 13, 7936
2, 20703, Pitch_bend_c, 13, 7808
2, 20724, Pitch_bend_c, 13, 7680
2, 20745, Pitch_bend_c, 13, 7552
2, 20766, Pitch_bend_c, 13, 7424
2, 20787, Pitch_bend_c, 13, 7296
2, 20808, Pitch_bend_c, 13, 7168
2, 20829, Pitch_bend_c, 13, 7040
2, 20850, Pitch_bend_c, 13, 6912
2, 20871, Pitch_bend_c, 13, 6784
2, 20880, Pitch_bend_c, 13, 6784
2, 20901, Pitch_bend_c, 13, 6912
2, 20922, Pitch_bend_c, 13, 7040
2, 20943, Pitch_bend_c, 13, 7168
2, 20964, Pitch_bend_c, 13, 7296
2, 20985, Pitch_bend_c, 13, 7424
2, 21006, Pitch_bend_c, 13, 7552
2, 21027, Pitch_bend_c, 13, 7680
2, 21048, Pitch_bend_c, 13, 7808
2, 21069, Pitch_bend_c, 13, 7936
2, 21090, Pitch_bend_c, 13, 8064
2, 21111, Pitch_bend_c, 13, 8192
2, 21120, Pitch_bend_c, 13, 8192
2, 22080, Pitch_bend_c, 13, 8192
2, 23040, Pitch_bend_c, 13, 8192
2, 23040, Pitch_bend_c, 13, 8192
2, 23040, Note_off_c, 13, 74, 127
2, 23520, Note_on_c, 0, 59, 127
2, 24000, Note_off_c, 0, 59, 127
2, 24000, Note_on_c, 0, 62, 127
2, 24480, Note_off_c, 0, 62, 127
2, 24480, Note_on_c, 0, 78, 127
2, 24960, Note_off_c, 0, 78, 127
2, 24960, Note_on_c, 0, 67, 127
2, 25440, Note_off_c, 0, 67, 127
2, 25440, Note_on_c, 0, 74, 127
2, 25920, Note_off_c, 0, 74, 127
2, 25920, Pitch_bend_c, 13, 8192
2, 25920, Note_on_c, 13, 73, 127
2, 26400, Pitch_bend_c, 13, 8192
2, 26421, Pitch_bend_c, 13, 8064
2, 26442, Pitch_bend_c, 13, 7936
2, 26463, Pitch_bend_c, 13, 7808
2, 26484, Pitch_bend_c, 13, 7680
2, 26505, Pitch_bend_c, 13, 7552
2, 26526, Pitch_bend_c, 13, 7424
2, 26547, Pitch_bend_c, 13, 7296
2, 26568, Pitch_bend_c, 13, 7168
2, 26589, Pitch_bend_c, 13, 7040
2, 26610, Pitch_bend_c, 13, 6912
2, 26631, Pitch_bend_c, 13, 6784
2, 26640, Pitch_bend_c, 13, 6784
2, 26661, Pitch_bend_c, 13, 6912
2, 26682, Pitch_bend_c, 13, 7040
2, 26703, Pitch_bend_c, 13, 7168
2, 26724, Pitch_bend_c, 13, 7296
2, 26745, Pitch_bend_c, 13, 7424
2, 26766, Pitch_bend_c, 13, 7552
2, 26787, Pitch_bend_c, 13, 7680
2, 26808, Pitch_bend_c, 13, 7808
2, 26829, Pitch_bend_c, 13, 7936
2, 26850, Pitch_bend_c, 13, 8064
2, 26871, Pitch_bend_c, 13, 8192
2, 26880, Pitch_bend_c, 13, 8192
2, 28800, Pitch_bend_c, 13, 8192
2, 28800, Pitch_bend_c, 13, 8192
2, 28800, Note_off_c, 13, 73, 127
2, 29280, Note_on_c, 0, 59, 127
2, 29760, Note_off_c, 0, 59, 127
2, 29760, Note_on_c, 0, 62, 127
2, 30240, Note_off_c, 0, 62, 127
2, 30240, Note_on_c, 0, 78, 127
2, 30720, Note_off_c, 0, 78, 127
2, 30720, Note_on_c, 0, 67, 127
2, 31200, Note_off_c, 0, 67, 127
2, 31200, Note_on_c, 0, 74, 127
2, 31680, Note_off_c, 0, 74, 127
2, 31680, Pitch_bend_c, 13, 8192
2, 31680, Note_on_c, 13, 73, 127
2, 32160, Pitch_bend_c, 13, 8192
2, 32181, Pitch_bend_c, 13, 8064
2, 32202, Pitch_bend_c, 13, 7936
2, 32223, Pitch_bend_c, 13, 7808
2, 32244, Pitch_bend_c, 13, 7680
2, 32265, Pitch_bend_c, 13, 7552
2, 32286, Pitch_bend_c, 13, 7424
2, 32307, Pitch_bend_c, 13, 7296
2, 32328, Pitch_bend_c, 13, 7168
2, 32349, Pitch_bend_c, 13, 7040
2, 32370, Pitch_bend_c, 13, 6912
2, 32391, Pitch_bend_c, 13, 6784
2, 32400, Pitch_bend_c, 13, 6784
2, 32421, Pitch_bend_c, 13, 6912
2, 32442, Pitch_bend_c, 13, 7040
2, 32463, Pitch_bend_c, 13, 7168
2, 32484, Pitch_bend_c, 13, 7296
2, 32505, Pitch_bend_c, 13, 7424
2, 32526, Pitch_bend_c, 13, 7552
2, 32547, Pitch_bend_c, 13, 7680
2, 32568, Pitch_bend_c, 13, 7808
2, 32589, Pitch_bend_c, 13, 7936
2, 32610, Pitch_bend_c, 13, 8064
2, 32631, Pitch_bend_c, 13, 8192
2, 32640, Pitch_bend_c, 13, 8192
2, 34560, Pitch_bend_c, 13, 8192
2, 34560, Pitch_bend_c, 13, 8192
2, 34560, Note_off_c, 13, 73, 127
2, 35040, Note_on_c, 0, 58, 127
2, 35520, Note_off_c, 0, 58, 127
2, 35520, Note_on_c, 0, 61, 127
2, 36000, Note_off_c, 0, 61, 127
2, 36000, Note_on_c, 0, 69, 127
2, 36480, Note_off_c, 0, 69, 127
2, 36480, Note_on_c, 0, 80, 127
2, 36960, Note_off_c, 0, 80, 127
2, 36960, Note_on_c, 0, 77, 127
2, 37440, Note_off_c, 0, 77, 127
2, 37440, Pitch_bend_c, 13, 8192
2, 37440, Note_on_c, 13, 75, 127
2, 37920, Pitch_bend_c, 13, 8192
2, 37941, Pitch_bend_c, 13, 8064
2, 37962, Pitch_bend_c, 13, 7936
2, 37983, Pitch_bend_c, 13, 7808
2, 38004, Pitch_bend_c, 13, 7680
2, 38025, Pitch_bend_c, 13, 7552
2, 38046, Pitch_bend_c, 13, 7424
2, 38067, Pitch_bend_c, 13, 7296
2, 38088, Pitch_bend_c, 13, 7168
2, 38109, Pitch_bend_c, 13, 7040
2, 38130, Pitch_bend_c, 13, 6912
2, 38151, Pitch_bend_c, 13, 6784
2, 38160, Pitch_bend_c, 13, 6784
2, 38181, Pitch_bend_c, 13, 6912
2, 38202, Pitch_bend_c, 13, 7040
2, 38223, Pitch_bend_c, 13, 7168
2, 38244, Pitch_bend_c, 13, 7296
2, 38265, Pitch_bend_c, 13, 7424
2, 38286, Pitch_bend_c, 13, 7552
2, 38307, Pitch_bend_c, 13, 7680
2, 38328, Pitch_bend_c, 13, 7808
2, 38349, Pitch_bend_c, 13, 7936
2, 38370, Pitch_bend_c, 13, 8064
2, 38391, Pitch_bend_c, 13, 8192
2, 38400, Pitch_bend_c, 13, 8192
2, 40320, Pitch_bend_c, 13, 8192
2, 40320, Pitch_bend_c, 13, 8192
2, 40320, Note_off_c, 13, 75, 127
2, 40800, Note_on_c, 0, 58, 127
2, 41280, Note_off_c, 0, 58, 127
2, 41280, Note_on_c, 0, 61, 127
2, 41760, Note_off_c, 0, 61, 127
2, 41760, Note_on_c, 0, 69, 127
2, 42240, Note_off_c, 0, 69, 127
2, 42240, Note_on_c, 0, 80, 127
2, 42720, Note_off_c, 0, 80, 127
2, 42720, Note_on_c, 0, 77, 127
2, 43200, Note_off_c, 0, 77, 127
2, 43200, Pitch_bend_c, 13, 8192
2, 43200, Note_on_c, 13, 75, 127
2, 43680, Pitch_bend_c, 13, 8192
2, 43701, Pitch_bend_c, 13, 8064
2, 43722, Pitch_bend_c, 13, 7936
2, 43743, Pitch_bend_c, 13, 7808
2, 43764, Pitch_bend_c, 13, 7680
2, 43785, Pitch_bend_c, 13, 7552
2, 43806, Pitch_bend_c, 13, 7424
2, 43827, Pitch_bend_c, 13, 7296
2, 43848, Pitch_bend_c, 13, 7168
2, 43869, Pitch_bend_c, 13, 7040
2, 43890, Pitch_bend_c, 13, 6912
2, 43911, Pitch_bend_c, 13, 6784
2, 43920, Pitch_bend_c, 13, 6784
2, 43941, Pitch_bend_c, 13, 6912
2, 43962, Pitch_bend_c, 13, 7040
2, 43983, Pitch_bend_c, 13, 7168
2, 44004, Pitch_bend_c, 13, 7296
2, 44025, Pitch_bend_c, 13, 7424
2, 44046, Pitch_bend_c, 13, 7552
2, 44067, Pitch_bend_c, 13, 7680
2, 44088, Pitch_bend_c, 13, 7808
2, 44109, Pitch_bend_c, 13, 7936
2, 44130, Pitch_bend_c, 13, 8064
2, 44151, Pitch_bend_c, 13, 8192
2, 44160, Pitch_bend_c, 13, 8192
2, 46080, Pitch_bend_c, 13, 8192
2, 46080, Pitch_bend_c, 13, 8192
2, 46080, Note_off_c, 13, 75, 127
2, 46080, Note_on_c, 0, 46, 127
2, 47040, Note_off_c, 0, 46, 127
2, 47040, Note_on_c, 0, 73, 127
2, 47520, Note_off_c, 0, 73, 127
2, 48000, Note_on_c, 0, 73, 127
2, 48160, Note_off_c, 0, 73, 127
2, 48320, Note_on_c, 0, 73, 127
2, 48480, Note_off_c, 0, 73, 127
2, 48640, Note_on_c, 0, 71, 127
2, 48800, Note_off_c, 0, 71, 127
2, 48960, Note_on_c, 0, 73, 127
2, 50400, Note_off_c, 0, 73, 127
2, 50400, Note_on_c, 0, 69, 127
2, 51360, Note_off_c, 0, 69, 127
2, 51360, Note_on_c, 0, 67, 127
2, 51840, Note_off_c, 0, 67, 127
2, 51840, Note_on_c, 0, 46, 127
2, 54720, Note_off_c, 0, 46, 127
2, 54720, Note_on_c, 0, 73, 127
2, 54880, Note_off_c, 0, 73, 127
2, 55040, Note_on_c, 0, 71, 127
2, 55200, Note_off_c, 0, 71, 127
2, 55360, Note_on_c, 0, 73, 127
2, 57600, Note_off_c, 0, 73, 127
2, 57600, Note_on_c, 0, 45, 127
2, 58560, Note_off_c, 0, 45, 127
2, 58560, Note_on_c, 0, 67, 127
2, 59040, Note_off_c, 0, 67, 127
2, 59520, Note_on_c, 0, 67, 127
2, 60000, Note_off_c, 0, 67, 127
2, 60480, Note_on_c, 0, 67, 127
2, 63360, Note_off_c, 0, 67, 127
2, 63360, Note_on_c, 0, 67, 127
2, 63840, Note_off_c, 0, 67, 127
2, 64320, Note_on_c, 0, 67, 127
2, 65760, Note_off_c, 0, 67, 127
2, 65760, Note_on_c, 0, 67, 127
2, 66000, Note_off_c, 0, 67, 127
2, 66000, Note_on_c, 0, 67, 127
2, 66240, Note_off_c, 0, 67, 127
2, 66240, Note_on_c, 0, 67, 127
2, 66400, Note_off_c, 0, 67, 127
2, 66560, Note_on_c, 0, 67, 127
2, 66720, Note_off_c, 0, 67, 127
2, 66880, Note_on_c, 0, 62, 127
2, 67040, Note_off_c, 0, 62, 127
2, 67200, Note_on_c, 0, 67, 127
2, 69120, Note_off_c, 0, 67, 127
2, 69120, Note_on_c, 0, 44, 127
2, 70080, Note_off_c, 0, 44, 127
2, 70080, Note_on_c, 0, 70, 127
2, 70560, Note_off_c, 0, 70, 127
2, 71040, Note_on_c, 0, 70, 127
2, 71520, Note_off_c, 0, 70, 127
2, 72000, Note_on_c, 0, 70, 127
2, 72240, Note_off_c, 0, 70, 127
2, 72480, Note_on_c, 0, 70, 127
2, 72960, Note_off_c, 0, 70, 127
2, 72960, Note_on_c, 0, 66, 127
2, 73440, Note_off_c, 0, 66, 127
2, 73440, Note_on_c, 0, 68, 127
2, 73920, Note_off_c, 0, 68, 127
2, 73920, Note_on_c, 0, 63, 127
2, 74400, Note_off_c, 0, 63, 127
2, 74400, Note_on_c, 0, 56, 127
2, 74880, Note_off_c, 0, 56, 127
2, 74880, Note_on_c, 0, 44, 127
2, 75840, Note_off_c, 0, 44, 127
2, 75840, Note_on_c, 0, 71, 127
2, 77280, Note_off_c, 0, 71, 127
2, 77280, Note_on_c, 0, 66, 127
2, 77760, Note_off_c, 0, 66, 127
2, 77760, Note_on_c, 0, 68, 127
2, 80640, Note_off_c, 0, 68, 127
2, 80640, Note_on_c, 0, 43, 127
2, 81600, Note_off_c, 0, 43, 127
2, 81600, Note_on_c, 0, 67, 127
2, 82080, Note_off_c, 0, 67, 127
2, 82560, Note_on_c, 0, 67, 127
2, 83040, Note_off_c, 0, 67, 127
2, 83520, Note_on_c, 0, 67, 127
2, 86400, Note_off_c, 0, 67, 127
2, 86400, Note_on_c, 0, 67, 127
2, 86880, Note_off_c, 0, 67, 127
2, 87360, Note_on_c, 0, 67, 127
2, 89280, Note_off_c, 0, 67, 127
2, 89280, Note_on_c, 0, 67, 127
2, 89440, Note_off_c, 0, 67, 127
2, 89600, Note_on_c, 0, 67, 127
2, 89760, Note_off_c, 0, 67, 127
2, 89920, Note_on_c, 0, 62, 127
2, 90080, Note_off_c, 0, 62, 127
2, 90240, Note_on_c, 0, 67, 127
2, 92160, Note_off_c, 0, 67, 127
2, 92160, Note_on_c, 0, 54, 127
2, 94080, Note_off_c, 0, 54, 127
2, 94320, Note_on_c, 0, 60, 127
2, 94560, Note_off_c, 0, 60, 127
2, 94560, Note_on_c, 0, 57, 127
2, 94800, Note_off_c, 0, 57, 127
2, 94800, Note_on_c, 0, 59, 127
2, 95040, Note_off_c, 0, 59, 127
2, 95040, Note_on_c, 0, 56, 127
2, 95232, Note_off_c, 0, 56, 127
2, 95232, Note_on_c, 0, 60, 127
2, 95424, Note_off_c, 0, 60, 127
2, 95424, Note_on_c, 0, 64, 127
2, 95616, Note_off_c, 0, 64, 127
2, 95616, Note_on_c, 0, 64, 127
2, 95808, Note_off_c, 0, 64, 127
2, 95808, Note_on_c, 0, 68, 127
2, 96000, Note_off_c, 0, 68, 127
2, 96000, Note_on_c, 0, 66, 127
2, 96192, Note_off_c, 0, 66, 127
2, 96192, Note_on_c, 0, 71, 127
2, 96384, Note_off_c, 0, 71, 127
2, 96384, Note_on_c, 0, 60, 127
2, 96576, Note_off_c, 0, 60, 127
2, 96576, Note_on_c, 0, 56, 127
2, 96768, Note_off_c, 0, 56, 127
2, 96768, Note_on_c, 0, 60, 127
2, 96960, Note_off_c, 0, 60, 127
2, 96960, Note_on_c, 0, 68, 127
2, 97200, Note_off_c, 0, 68, 127
2, 97200, Note_on_c, 0, 71, 127
2, 97440, Note_off_c, 0, 71, 127
2, 97440, Note_on_c, 0, 66, 127
2, 97680, Note_off_c, 0, 66, 127
2, 97680, Note_on_c, 0, 71, 127
2, 97920, Note_off_c, 0, 71, 127
2, 97920, Note_on_c, 0, 71, 127
2, 98112, Note_off_c, 0, 71, 127
2, 98112, Note_on_c, 0, 61, 127
2, 98304, Note_off_c, 0, 61, 127
2, 98304, Note_on_c, 0, 61, 127
2, 98496, Note_off_c, 0, 61, 127
2, 98496, Note_on_c, 0, 66, 127
2, 98688, Note_off_c, 0, 66, 127
2, 98688, Note_on_c, 0, 66, 127
2, 98880, Note_off_c, 0, 66, 127
2, 98880, Note_on_c, 0, 66, 127
2, 100320, Note_off_c, 0, 66, 127
2, 100320, Note_on_c, 0, 44, 127
2, 100800, Note_off_c, 0, 44, 127
2, 100800, Note_on_c, 0, 44, 127
2, 101280, Note_off_c, 0, 44, 127
2, 101280, Note_on_c, 0, 45, 127
2, 101760, Note_off_c, 0, 45, 127
2, 101760, Note_on_c, 0, 45, 127
2, 102240, Note_off_c, 0, 45, 127
2, 102240, Note_on_c, 0, 47, 127
2, 102720, Note_off_c, 0, 47, 127
2, 102720, Note_on_c, 0, 49, 127
2, 103200, Note_off_c, 0, 49, 127
2, 103200, Note_on_c, 0, 54, 127
2, 103680, Note_off_c, 0, 54, 127
2, 103680, Note_on_c, 0, 53, 127
2, 104640, Note_off_c, 0, 53, 127
2, 104640, Note_on_c, 0, 59, 127
2, 105920, Note_off_c, 0, 59, 127
2, 105920, Note_on_c, 0, 57, 127
2, 106240, Note_off_c, 0, 57, 127
2, 106240, Note_on_c, 0, 60, 127
2, 106560, Note_off_c, 0, 60, 127
2, 106560, Note_on_c, 0, 56, 127
2, 106752, Note_off_c, 0, 56, 127
2, 106752, Note_on_c, 0, 54, 127
2, 106944, Note_off_c, 0, 54, 127
2, 106944, Note_on_c, 0, 65, 127
2, 107136, Note_off_c, 0, 65, 127
2, 107136, Note_on_c, 0, 64, 127
2, 107328, Note_off_c, 0, 64, 127
2, 107328, Note_on_c, 0, 64, 127
2, 107520, Note_off_c, 0, 64, 127
2, 107520, Note_on_c, 0, 75, 127
2, 107694, Note_off_c, 0, 75, 127
2, 107694, Note_on_c, 0, 73, 127
2, 107868, Note_off_c, 0, 73, 127
2, 107868, Note_on_c, 0, 70, 127
2, 108042, Note_off_c, 0, 70, 127
2, 108042, Note_on_c, 0, 70, 127
2, 108216, Note_off_c, 0, 70, 127
2, 108216, Note_on_c, 0, 75, 127
2, 108390, Note_off_c, 0, 75, 127
2, 108390, Note_on_c, 0, 68, 127
2, 108564, Note_off_c, 0, 68, 127
2, 108564, Note_on_c, 0, 73, 127
2, 108738, Note_off_c, 0, 73, 127
2, 108738, Note_on_c, 0, 70, 127
2, 108912, Note_off_c, 0, 70, 127
2, 108912, Note_on_c, 0, 70, 127
2, 109086, Note_off_c, 0, 70, 127
2, 109086, Note_on_c, 0, 75, 127
2, 109260, Note_off_c, 0, 75, 127
2, 109260, Note_on_c, 0, 68, 127
2, 109434, Note_off_c, 0, 68, 127
2, 109440, Note_on_c, 0, 76, 127
2, 109632, Note_off_c, 0, 76, 127
2, 109632, Note_on_c, 0, 75, 127
2, 109824, Note_off_c, 0, 75, 127
2, 109824, Note_on_c, 0, 75, 127
2, 110016, Note_off_c, 0, 75, 127
2, 110016, Note_on_c, 0, 79, 127
2, 110208, Note_off_c, 0, 79, 127
2, 110208, Note_on_c, 0, 68, 127
2, 110400, Note_off_c, 0, 68, 127
2, 110400, Note_on_c, 0, 78, 127
2, 111840, Note_off_c, 0, 78, 127
2, 111840, Note_on_c, 0, 44, 127
2, 112320, Note_off_c, 0, 44, 127
2, 112320, Note_on_c, 0, 44, 127
2, 112800, Note_off_c, 0, 44, 127
2, 112800, Note_on_c, 0, 45, 127
2, 113280, Note_off_c, 0, 45, 127
2, 113280, Note_on_c, 0, 47, 127
2, 113760, Note_off_c, 0, 47, 127
2, 113760, Note_on_c, 0, 49, 127
2, 114240, Note_off_c, 0, 49, 127
2, 114240, Note_on_c, 0, 51, 127
2, 114720, Note_off_c, 0, 51, 127
2, 114720, Note_on_c, 0, 50, 127
2, 115200, Note_off_c, 0, 50, 127
2, 115200, Note_on_c, 0, 52, 127
2, 118080, Note_off_c, 0, 52, 127
2, 118080, Note_on_c, 0, 59, 127
2, 118341, Note_off_c, 0, 59, 127
2, 118341, Note_on_c, 0, 57, 127
2, 118602, Note_off_c, 0, 57, 127
2, 118602, Note_on_c, 0, 57, 127
2, 118863, Note_off_c, 0, 57, 127
2, 118863, Note_on_c, 0, 62, 127
2, 119124, Note_off_c, 0, 62, 127
2, 119124, Note_on_c, 0, 61, 127
2, 119385, Note_off_c, 0, 61, 127
2, 119385, Note_on_c, 0, 61, 127
2, 119646, Note_off_c, 0, 61, 127
2, 119646, Note_on_c, 0, 59, 127
2, 119907, Note_off_c, 0, 59, 127
2, 119907, Note_on_c, 0, 59, 127
2, 120168, Note_off_c, 0, 59, 127
2, 120168, Note_on_c, 0, 61, 127
2, 120429, Note_off_c, 0, 61, 127
2, 120429, Note_on_c, 0, 54, 127
2, 120690, Note_off_c, 0, 54, 127
2, 120690, Note_on_c, 0, 50, 127
2, 120951, Note_off_c, 0, 50, 127
2, 120960, Note_on_c, 0, 58, 127
2, 121152, Note_off_c, 0, 58, 127
2, 121152, Note_on_c, 0, 61, 127
2, 121344, Note_off_c, 0, 61, 127
2, 121344, Note_on_c, 0, 61, 127
2, 121536, Note_off_c, 0, 61, 127
2, 121536, Note_on_c, 0, 57, 127
2, 121728, Note_off_c, 0, 57, 127
2, 121728, Note_on_c, 0, 69, 127
2, 121920, Note_off_c, 0, 69, 127
2, 121920, Note_on_c, 0, 64, 127
2, 122112, Note_off_c, 0, 64, 127
2, 122112, Note_on_c, 0, 66, 127
2, 122304, Note_off_c, 0, 66, 127
2, 122304, Note_on_c, 0, 66, 127
2, 122496, Note_off_c, 0, 66, 127
2, 122496, Note_on_c, 0, 55, 127
2, 122688, Note_off_c, 0, 55, 127
2, 122688, Note_on_c, 0, 62, 127
2, 122880, Note_off_c, 0, 62, 127
2, 122880, Note_on_c, 0, 61, 127
2, 123072, Note_off_c, 0, 61, 127
2, 123072, Note_on_c, 0, 51, 127
2, 123264, Note_off_c, 0, 51, 127
2, 123264, Note_on_c, 0, 58, 127
2, 123456, Note_off_c, 0, 58, 127
2, 123456, Note_on_c, 0, 59, 127
2, 123648, Note_off_c, 0, 59, 127
2, 123648, Note_on_c, 0, 57, 127
2, 123840, Note_off_c, 0, 57, 127
2, 123840, Note_on_c, 0, 69, 127
2, 123840, Note_on_c, 0, 52, 127
2, 124320, Note_off_c, 0, 69, 127
2, 124320, Note_off_c, 0, 52, 127
2, 124320, Note_on_c, 0, 50, 127
2, 124800, Note_off_c, 0, 50, 127
2, 124800, Note_on_c, 0, 50, 127
2, 125280, Note_off_c, 0, 50, 127
2, 125280, Note_on_c, 0, 49, 127
2, 125760, Note_off_c, 0, 49, 127
2, 125760, Note_on_c, 0, 49, 127
2, 126240, Note_off_c, 0, 49, 127
2, 126240, Note_on_c, 0, 42, 127
2, 126720, Note_off_c, 0, 42, 127
2, 126720, Note_on_c, 0, 43, 127
2, 128640, Note_off_c, 0, 43, 127
2, 128640, Note_on_c, 0, 71, 127
2, 128777, Note_off_c, 0, 71, 127
2, 128777, Note_on_c, 0, 70, 127
2, 128914, Note_off_c, 0, 70, 127
2, 128914, Note_on_c, 0, 67, 127
2, 129051, Note_off_c, 0, 67, 127
2, 129051, Note_on_c, 0, 66, 127
2, 129188, Note_off_c, 0, 66, 127
2, 129188, Note_on_c, 0, 67, 127
2, 129325, Note_off_c, 0, 67, 127
2, 129325, Note_on_c, 0, 70, 127
2, 129462, Note_off_c, 0, 70, 127
2, 129462, Note_on_c, 0, 71, 127
2, 129599, Note_off_c, 0, 71, 127
2, 129600, Note_on_c, 0, 73, 127
2, 129888, Note_off_c, 0, 73, 127
2, 129888, Note_on_c, 0, 76, 127
2, 130176, Note_off_c, 0, 76, 127
2, 130176, Note_on_c, 0, 72, 127
2, 130464, Note_off_c, 0, 72, 127
2, 130464, Note_on_c, 0, 71, 127
2, 130752, Note_off_c, 0, 71, 127
2, 130752, Note_on_c, 0, 67, 127
2, 131040, Note_off_c, 0, 67, 127
2, 131040, Note_on_c, 0, 78, 127
2, 131328, Note_off_c, 0, 78, 127
2, 131328, Note_on_c, 0, 73, 127
2, 131616, Note_off_c, 0, 73, 127
2, 131616, Note_on_c, 0, 72, 127
2, 131904, Note_off_c, 0, 72, 127
2, 131904, Note_on_c, 0, 76, 127
2, 132192, Note_off_c, 0, 76, 127
2, 132192, Note_on_c, 0, 72, 127
2, 132480, Note_off_c, 0, 72, 127
2, 132480, Note_on_c, 0, 71, 127
2, 132720, Note_off_c, 0, 71, 127
2, 132720, Note_on_c, 0, 70, 127
2, 132960, Note_off_c, 0, 70, 127
2, 132960, Note_on_c, 0, 70, 127
2, 133200, Note_off_c, 0, 70, 127
2, 133200, Note_on_c, 0, 78, 127
2, 133440, Note_off_c, 0, 78, 127
2, 133440, Note_on_c, 0, 66, 127
2, 133760, Note_off_c, 0, 66, 127
2, 133760, Note_on_c, 0, 64, 127
2, 134080, Note_off_c, 0, 64, 127
2, 134080, Note_on_c, 0, 70, 127
2, 134400, Note_off_c, 0, 70, 127
2, 134400, Note_on_c, 0, 72, 127
2, 134640, Note_off_c, 0, 72, 127
2, 134640, Note_on_c, 0, 76, 127
2, 134760, Note_off_c, 0, 76, 127
2, 134760, Note_on_c, 0, 73, 127
2, 134880, Note_on_c, 0, 49, 127
2, 135360, Note_off_c, 0, 73, 127
2, 135360, Note_off_c, 0, 49, 127
2, 135360, Note_on_c, 0, 47, 127
2, 135840, Note_off_c, 0, 47, 127
2, 135840, Note_on_c, 0, 46, 127
2, 136320, Note_off_c, 0, 46, 127
2, 136320, Note_on_c, 0, 43, 127
2, 136800, Note_off_c, 0, 43, 127
2, 136800, Pitch_bend_c, 13, 7552
2, 136800, Note_on_c, 13, 40, 127
2, 137280, Pitch_bend_c, 13, 7552
2, 137280, Pitch_bend_c, 13, 8192
2, 137280, Note_off_c, 13, 40, 127
2, 137280, Note_on_c, 0, 42, 127
2, 137760, Note_off_c, 0, 42, 127
2, 137760, Note_on_c, 0, 46, 127
2, 138240, Note_off_c, 0, 46, 127
2, 138960, Note_on_c, 0, 71, 127
2, 139080, Note_off_c, 0, 71, 127
2, 139080, Note_on_c, 0, 73, 102
2, 139200, Note_off_c, 0, 73, 102
2, 139200, Note_on_c, 0, 74, 102
2, 139680, Note_off_c, 0, 74, 102
2, 139920, Note_on_c, 0, 73, 127
2, 140160, Note_off_c, 0, 73, 127
2, 140160, Note_on_c, 0, 74, 102
2, 141120, Note_off_c, 0, 74, 102
2, 141840, Note_on_c, 0, 71, 127
2, 141960, Note_off_c, 0, 71, 127
2, 141960, Note_on_c, 0, 73, 102
2, 142080, Note_off_c, 0, 73, 102
2, 142080, Note_on_c, 0, 74, 102
2, 142560, Note_off_c, 0, 74, 102
2, 142800, Note_on_c, 0, 73, 127
2, 143040, Note_off_c, 0, 73, 127
2, 143040, Note_on_c, 0, 74, 102
2, 144000, Note_off_c, 0, 74, 102
2, 144720, Note_on_c, 0, 71, 127
2, 144840, Note_off_c, 0, 71, 127
2, 144840, Note_on_c, 0, 73, 102
2, 144960, Note_off_c, 0, 73, 102
2, 144960, Note_on_c, 0, 74, 102
2, 145440, Note_off_c, 0, 74, 102
2, 145680, Note_on_c, 0, 71, 127
2, 145920, Note_off_c, 0, 71, 127
2, 145920, Note_on_c, 0, 73, 102
2, 146880, Note_off_c, 0, 73, 102
2, 147120, Note_on_c, 0, 69, 127
2, 147360, Note_off_c, 0, 69, 127
2, 147360, Note_on_c, 0, 66, 127
2, 147600, Note_off_c, 0, 66, 127
2, 147600, Note_on_c, 0, 69, 127
2, 147840, Note_off_c, 0, 69, 127
2, 147840, Note_on_c, 0, 76, 127
2, 148560, Note_off_c, 0, 76, 127
2, 148560, Note_on_c, 0, 70, 127
2, 148680, Note_off_c, 0, 70, 127
2, 148680, Note_on_c, 0, 76, 127
2, 148800, Note_off_c, 0, 76, 127
2, 148800, Note_on_c, 0, 73, 127
2, 149760, Note_off_c, 0, 73, 127
2, 150480, Note_on_c, 0, 71, 127
2, 150600, Note_off_c, 0, 71, 127
2, 150600, Note_on_c, 0, 73, 102
2, 150720, Note_off_c, 0, 73, 102
2, 150720, Note_on_c, 0, 74, 102
2, 151200, Note_off_c, 0, 74, 102
2, 151440, Note_on_c, 0, 73, 127
2, 151680, Note_off_c, 0, 73, 127
2, 151680, Note_on_c, 0, 74, 102
2, 152640, Note_off_c, 0, 74, 102
2, 153360, Note_on_c, 0, 71, 127
2, 153480, Note_off_c, 0, 71, 127
2, 153480, Note_on_c, 0, 73, 102
2, 153600, Note_off_c, 0, 73, 102
2, 153600, Note_on_c, 0, 74, 102
2, 154080, Note_off_c, 0, 74, 102
2, 154320, Note_on_c, 0, 73, 127
2, 154560, Note_off_c, 0, 73, 127
2, 154560, Note_on_c, 0, 74, 102
2, 155520, Note_off_c, 0, 74, 102
2, 156240, Note_on_c, 0, 71, 127
2, 156360, Note_off_c, 0, 71, 127
2, 156360, Note_on_c, 0, 73, 102
2, 156480, Note_off_c, 0, 73, 102
2, 156480, Note_on_c, 0, 74, 102
2, 156960, Note_off_c, 0, 74, 102
2, 157200, Note_on_c, 0, 71, 127
2, 157440, Note_off_c, 0, 71, 127
2, 157440, Note_on_c, 0, 73, 102
2, 158400, Note_off_c, 0, 73, 102
2, 158640, Note_on_c, 0, 69, 127
2, 158880, Note_off_c, 0, 69, 127
2, 158880, Note_on_c, 0, 66, 127
2, 159120, Note_off_c, 0, 66, 127
2, 159120, Note_on_c, 0, 69, 127
2, 159360, Note_off_c, 0, 69, 127
2, 159360, Note_on_c, 0, 76, 127
2, 160080, Note_off_c, 0, 76, 127
2, 160080, Note_on_c, 0, 70, 127
2, 160200, Note_off_c, 0, 70, 127
2, 160200, Note_on_c, 0, 76, 127
2, 160320, Note_off_c, 0, 76, 127
2, 160320, Note_on_c, 0, 73, 127
2, 161280, Note_off_c, 0, 73, 127
2, 162000, Note_on_c, 0, 71, 127
2, 162120, Note_off_c, 0, 71, 127
2, 162120, Note_on_c, 0, 73, 102
2, 162240, Note_off_c, 0, 73, 102
2, 162240, Note_on_c, 0, 74, 102
2, 162720, Note_off_c, 0, 74, 102
2, 162960, Note_on_c, 0, 73, 127
2, 163200, Note_off_c, 0, 73, 127
2, 163200, Note_on_c, 0, 74, 102
2, 164160, Note_off_c, 0, 74, 102
2, 164880, Note_on_c, 0, 71, 127
2, 165000, Note_off_c, 0, 71, 127
2, 165000, Note_on_c, 0, 73, 102
2, 165120, Note_off_c, 0, 73, 102
2, 165120, Note_on_c, 0, 74, 102
2, 165600, Note_off_c, 0, 74, 102
2, 165840, Note_on_c, 0, 73, 127
2, 166080, Note_off_c, 0, 73, 127
2, 166080, Note_on_c, 0, 74, 102
2, 167040, Note_off_c, 0, 74, 102
2, 167760, Note_on_c, 0, 71, 127
2, 167880, Note_off_c, 0, 71, 127
2, 167880, Note_on_c, 0, 73, 102
2, 168000, Note_off_c, 0, 73, 102
2, 168000, Note_on_c, 0, 74, 102
2, 168480, Note_off_c, 0, 74, 102
2, 168720, Note_on_c, 0, 71, 127
2, 168960, Note_off_c, 0, 71, 127
2, 168960, Note_on_c, 0, 73, 102
2, 169920, Note_off_c, 0, 73, 102
2, 170160, Note_on_c, 0, 69, 127
2, 170400, Note_off_c, 0, 69, 127
2, 170400, Note_on_c, 0, 66, 127
2, 170640, Note_off_c, 0, 66, 127
2, 170640, Note_on_c, 0, 69, 127
2, 170880, Note_off_c, 0, 69, 127
2, 170880, Note_on_c, 0, 76, 127
2, 171600, Note_off_c, 0, 76, 127
2, 171600, Note_on_c, 0, 70, 127
2, 171720, Note_off_c, 0, 70, 127
2, 171720, Note_on_c, 0, 76, 127
2, 171840, Note_off_c, 0, 76, 127
2, 171840, Note_on_c, 0, 73, 127
2, 172800, Note_off_c, 0, 73, 127
2, 173520, Note_on_c, 0, 71, 127
2, 173640, Note_off_c, 0, 71, 127
2, 173640, Note_on_c, 0, 73, 102
2, 173760, Note_off_c, 0, 73, 102
2, 173760, Note_on_c, 0, 74, 102
2, 174240, Note_off_c, 0, 74, 102
2, 174480, Note_on_c, 0, 73, 127
2, 174720, Note_off_c, 0, 73, 127
2, 174720, Note_on_c, 0, 74, 102
2, 175680, Note_off_c, 0, 74, 102
2, 176400, Note_on_c, 0, 71, 127
2, 176520, Note_off_c, 0, 71, 127
2, 176520, Note_on_c, 0, 73, 102
2, 176640, Note_off_c, 0, 73, 102
2, 176640, Note_on_c, 0, 74, 102
2, 177120, Note_off_c, 0, 74, 102
2, 177360, Note_on_c, 0, 73, 127
2, 177600, Note_off_c, 0, 73, 127
2, 177600, Note_on_c, 0, 74, 102
2, 178560, Note_off_c, 0, 74, 102
2, 179280, Note_on_c, 0, 71, 127
2, 179400, Note_off_c, 0, 71, 127
2, 179400, Note_on_c, 0, 73, 102
2, 179520, Note_off_c, 0, 73, 102
2, 179520, Note_on_c, 0, 74, 102
2, 180000, Note_off_c, 0, 74, 102
2, 180240, Note_on_c, 0, 71, 127
2, 180480, Note_off_c, 0, 71, 127
2, 180480, Note_on_c, 0, 73, 102
2, 181440, Note_off_c, 0, 73, 102
2, 181680, Note_on_c, 0, 69, 127
2, 181920, Note_off_c, 0, 69, 127
2, 181920, Note_on_c, 0, 66, 127
2, 182160, Note_off_c, 0, 66, 127
2, 182160, Note_on_c, 0, 69, 127
2, 182400, Note_off_c, 0, 69, 127
2, 182400, Note_on_c, 0, 76, 127
2, 183120, Note_off_c, 0, 76, 127
2, 183120, Note_on_c, 0, 70, 127
2, 183240, Note_off_c, 0, 70, 127
2, 183240, Note_on_c, 0, 76, 127
2, 183360, Note_off_c, 0, 76, 127
2, 183360, Note_on_c, 0, 73, 127
2, 184320, Note_off_c, 0, 73, 127
2, 184320, Note_on_c, 0, 56, 127
2, 184560, Note_off_c, 0, 56, 127
2, 184560, Note_on_c, 0, 62, 127
2, 184800, Note_off_c, 0, 62, 127
2, 184800, Note_on_c, 0, 67, 127
2, 185040, Note_off_c, 0, 67, 127
2, 185040, Note_on_c, 0, 56, 127
2, 185280, Note_off_c, 0, 56, 127
2, 185280, Note_on_c, 0, 72, 127
2, 185520, Note_off_c, 0, 72, 127
2, 185520, Note_on_c, 0, 74, 127
2, 185760, Note_off_c, 0, 74, 127
2, 185760, Note_on_c, 0, 79, 127
2, 186000, Note_off_c, 0, 79, 127
2, 186000, Note_on_c, 0, 68, 127
2, 186240, Note_off_c, 0, 68, 127
2, 186240, Note_on_c, 0, 84, 127
2, 186480, Note_off_c, 0, 84, 127
2, 186480, Note_on_c, 0, 68, 127
2, 186720, Note_off_c, 0, 68, 127
2, 186720, Note_on_c, 0, 79, 127
2, 186960, Note_off_c, 0, 79, 127
2, 186960, Note_on_c, 0, 74, 127
2, 187200, Note_off_c, 0, 74, 127
2, 187200, Note_on_c, 0, 72, 127
2, 187440, Note_off_c, 0, 72, 127
2, 187440, Note_on_c, 0, 56, 127
2, 187680, Note_off_c, 0, 56, 127
2, 187680, Note_on_c, 0, 67, 127
2, 187920, Note_off_c, 0, 67, 127
2, 187920, Note_on_c, 0, 62, 127
2, 188160, Note_off_c, 0, 62, 127
2, 188160, Note_on_c, 0, 56, 127
2, 188400, Note_off_c, 0, 56, 127
2, 188400, Note_on_c, 0, 62, 127
2, 188640, Note_off_c, 0, 62, 127
2, 188640, Note_on_c, 0, 67, 127
2, 188880, Note_off_c, 0, 67, 127
2, 188880, Note_on_c, 0, 56, 127
2, 189120, Note_off_c, 0, 56, 127
2, 189120, Note_on_c, 0, 72, 127
2, 189360, Note_off_c, 0, 72, 127
2, 189360, Note_on_c, 0, 74, 127
2, 189600, Note_off_c, 0, 74, 127
2, 189600, Note_on_c, 0, 79, 127
2, 189840, Note_off_c, 0, 79, 127
2, 189840, Note_on_c, 0, 68, 127
2, 190080, Note_off_c, 0, 68, 127
2, 190080, Note_on_c, 0, 84, 127
2, 190320, Note_off_c, 0, 84, 127
2, 190320, Note_on_c, 0, 68, 127
2, 190560, Note_off_c, 0, 68, 127
2, 190560, Note_on_c, 0, 79, 127
2, 190800, Note_off_c, 0, 79, 127
2, 190800, Note_on_c, 0, 74, 127
2, 191040, Note_off_c, 0, 74, 127
2, 191040, Note_on_c, 0, 72, 127
2, 191280, Note_off_c, 0, 72, 127
2, 191280, Note_on_c, 0, 56, 127
2, 191520, Note_off_c, 0, 56, 127
2, 191520, Note_on_c, 0, 67, 127
2, 191760, Note_off_c, 0, 67, 127
2, 191760, Note_on_c, 0, 62, 127
2, 192000, Note_off_c, 0, 62, 127
2, 192000, Note_on_c, 0, 53, 127
2, 192240, Note_off_c, 0, 53, 127
2, 192240, Note_on_c, 0, 60, 127
2, 192480, Note_off_c, 0, 60, 127
2, 192480, Note_on_c, 0, 62, 127
2, 192720, Note_off_c, 0, 62, 127
2, 192720, Note_on_c, 0, 63, 127
2, 192960, Note_off_c, 0, 63, 127
2, 192960, Note_on_c, 0, 53, 127
2, 193200, Note_off_c, 0, 53, 127
2, 193200, Note_on_c, 0, 72, 127
2, 193440, Note_off_c, 0, 72, 127
2, 193440, Note_on_c, 0, 74, 127
2, 193680, Note_off_c, 0, 74, 127
2, 193680, Note_on_c, 0, 75, 127
2, 193920, Note_off_c, 0, 75, 127
2, 193920, Note_on_c, 0, 65, 127
2, 194160, Note_off_c, 0, 65, 127
2, 194160, Note_on_c, 0, 84, 127
2, 194400, Note_off_c, 0, 84, 127
2, 194400, Note_on_c, 0, 65, 127
2, 194640, Note_off_c, 0, 65, 127
2, 194640, Note_on_c, 0, 75, 127
2, 194880, Note_off_c, 0, 75, 127
2, 194880, Note_on_c, 0, 74, 127
2, 195120, Note_off_c, 0, 74, 127
2, 195120, Note_on_c, 0, 72, 127
2, 195360, Note_off_c, 0, 72, 127
2, 195360, Note_on_c, 0, 53, 127
2, 195600, Note_off_c, 0, 53, 127
2, 195600, Note_on_c, 0, 63, 127
2, 195840, Note_off_c, 0, 63, 127
2, 195840, Note_on_c, 0, 62, 127
2, 196080, Note_off_c, 0, 62, 127
2, 196080, Note_on_c, 0, 60, 127
2, 196320, Note_off_c, 0, 60, 127
2, 196320, Note_on_c, 0, 53, 127
2, 196560, Note_off_c, 0, 53, 127
2, 196560, Note_on_c, 0, 60, 127
2, 196800, Note_off_c, 0, 60, 127
2, 196800, Note_on_c, 0, 62, 127
2, 197040, Note_off_c, 0, 62, 127
2, 197040, Note_on_c, 0, 63, 127
2, 197280, Note_off_c, 0, 63, 127
2, 197280, Note_on_c, 0, 53, 127
2, 197520, Note_off_c, 0, 53, 127
2, 197520, Note_on_c, 0, 72, 127
2, 197760, Note_off_c, 0, 72, 127
2, 197760, Note_on_c, 0, 74, 127
2, 198000, Note_off_c, 0, 74, 127
2, 198000, Note_on_c, 0, 75, 127
2, 198240, Note_off_c, 0, 75, 127
2, 198240, Note_on_c, 0, 65, 127
2, 198480, Note_off_c, 0, 65, 127
2, 198480, Note_on_c, 0, 84, 127
2, 198720, Note_off_c, 0, 84, 127
2, 198720, Note_on_c, 0, 65, 127
2, 198960, Note_off_c, 0, 65, 127
2, 198960, Note_on_c, 0, 75, 127
2, 199200, Note_off_c, 0, 75, 127
2, 199200, Note_on_c, 0, 74, 127
2, 199440, Note_off_c, 0, 74, 127
2, 199440, Note_on_c, 0, 72, 127
2, 199680, Note_off_c, 0, 72, 127
2, 199680, Note_on_c, 0, 56, 127
2, 199920, Note_off_c, 0, 56, 127
2, 199920, Note_on_c, 0, 62, 127
2, 200160, Note_off_c, 0, 62, 127
2, 200160, Note_on_c, 0, 67, 127
2, 200400, Note_off_c, 0, 67, 127
2, 200400, Note_on_c, 0, 56, 127
2, 200640, Note_off_c, 0, 56, 127
2, 200640, Note_on_c, 0, 72, 127
2, 200880, Note_off_c, 0, 72, 127
2, 200880, Note_on_c, 0, 74, 127
2, 201120, Note_off_c, 0, 74, 127
2, 201120, Note_on_c, 0, 79, 127
2, 201360, Note_off_c, 0, 79, 127
2, 201360, Note_on_c, 0, 68, 127
2, 201600, Note_off_c, 0, 68, 127
2, 201600, Note_on_c, 0, 84, 127
2, 201840, Note_off_c, 0, 84, 127
2, 201840, Note_on_c, 0, 68, 127
2, 202080, Note_off_c, 0, 68, 127
2, 202080, Note_on_c, 0, 79, 127
2, 202320, Note_off_c, 0, 79, 127
2, 202320, Note_on_c, 0, 74, 127
2, 202560, Note_off_c, 0, 74, 127
2, 202560, Note_on_c, 0, 72, 127
2, 202800, Note_off_c, 0, 72, 127
2, 202800, Note_on_c, 0, 56, 127
2, 203040, Note_off_c, 0, 56, 127
2, 203040, Note_on_c, 0, 67, 127
2, 203280, Note_off_c, 0, 67, 127
2, 203280, Note_on_c, 0, 62, 127
2, 203520, Note_off_c, 0, 62, 127
2, 203520, Note_on_c, 0, 56, 127
2, 203760, Note_off_c, 0, 56, 127
2, 203760, Note_on_c, 0, 62, 127
2, 204000, Note_off_c, 0, 62, 127
2, 204000, Note_on_c, 0, 67, 127
2, 204240, Note_off_c, 0, 67, 127
2, 204240, Note_on_c, 0, 56, 127
2, 204480, Note_off_c, 0, 56, 127
2, 204480, Note_on_c, 0, 72, 127
2, 204720, Note_off_c, 0, 72, 127
2, 204720, Note_on_c, 0, 74, 127
2, 204960, Note_off_c, 0, 74, 127
2, 204960, Note_on_c, 0, 79, 127
2, 205200, Note_off_c, 0, 79, 127
2, 205200, Note_on_c, 0, 68, 127
2, 205440, Note_off_c, 0, 68, 127
2, 205440, Note_on_c, 0, 84, 127
2, 205680, Note_off_c, 0, 84, 127
2, 205680, Note_on_c, 0, 68, 127
2, 205920, Note_off_c, 0, 68, 127
2, 205920, Note_on_c, 0, 79, 127
2, 206160, Note_off_c, 0, 79, 127
2, 206160, Note_on_c, 0, 74, 127
2, 206400, Note_off_c, 0, 74, 127
2, 206400, Note_on_c, 0, 72, 127
2, 206640, Note_off_c, 0, 72, 127
2, 206640, Note_on_c, 0, 56, 127
2, 206880, Note_off_c, 0, 56, 127
2, 206880, Note_on_c, 0, 67, 127
2, 207120, Note_off_c, 0, 67, 127
2, 207120, Note_on_c, 0, 62, 127
2, 207360, Note_off_c, 0, 62, 127
2, 207360, Note_on_c, 0, 53, 127
2, 207600, Note_off_c, 0, 53, 127
2, 207600, Note_on_c, 0, 60, 127
2, 207840, Note_off_c, 0, 60, 127
2, 207840, Note_on_c, 0, 62, 127
2, 208080, Note_off_c, 0, 62, 127
2, 208080, Note_on_c, 0, 63, 127
2, 208320, Note_off_c, 0, 63, 127
2, 208320, Note_on_c, 0, 53, 127
2, 208560, Note_off_c, 0, 53, 127
2, 208560, Note_on_c, 0, 72, 127
2, 208800, Note_off_c, 0, 72, 127
2, 208800, Note_on_c, 0, 74, 127
2, 209040, Note_off_c, 0, 74, 127
2, 209040, Note_on_c, 0, 75, 127
2, 209280, Note_off_c, 0, 75, 127
2, 209280, Note_on_c, 0, 65, 127
2, 209520, Note_off_c, 0, 65, 127
2, 209520, Note_on_c, 0, 84, 127
2, 209760, Note_off_c, 0, 84, 127
2, 209760, Note_on_c, 0, 65, 127
2, 210000, Note_off_c, 0, 65, 127
2, 210000, Note_on_c, 0, 75, 127
2, 210240, Note_off_c, 0, 75, 127
2, 210240, Note_on_c, 0, 74, 127
2, 210480, Note_off_c, 0, 74, 127
2, 210480, Note_on_c, 0, 72, 127
2, 210720, Note_off_c, 0, 72, 127
2, 210720, Note_on_c, 0, 53, 127
2, 210960, Note_off_c, 0, 53, 127
2, 210960, Note_on_c, 0, 63, 127
2, 211200, Note_off_c, 0, 63, 127
2, 211200, Note_on_c, 0, 62, 127
2, 211440, Note_off_c, 0, 62, 127
2, 211440, Note_on_c, 0, 60, 127
2, 211680, Note_off_c, 0, 60, 127
2, 211680, Note_on_c, 0, 53, 127
2, 211920, Note_off_c, 0, 53, 127
2, 211920, Note_on_c, 0, 60, 127
2, 212160, Note_off_c, 0, 60, 127
2, 212160, Note_on_c, 0, 62, 127
2, 212400, Note_off_c, 0, 62, 127
2, 212400, Note_on_c, 0, 63, 127
2, 212640, Note_off_c, 0, 63, 127
2, 212640, Note_on_c, 0, 53, 127
2, 212880, Note_off_c, 0, 53, 127
2, 212880, Note_on_c, 0, 72, 127
2, 213120, Note_off_c, 0, 72, 127
2, 213120, Note_on_c, 0, 74, 127
2, 213360, Note_off_c, 0, 74, 127
2, 213360, Note_on_c, 0, 75, 127
2, 213600, Note_off_c, 0, 75, 127
2, 213600, Note_on_c, 0, 65, 127
2, 213840, Note_off_c, 0, 65, 127
2, 213840, Note_on_c, 0, 84, 127
2, 214080, Note_off_c, 0, 84, 127
2, 214080, Note_on_c, 0, 65, 127
2, 214320, Note_off_c, 0, 65, 127
2, 214320, Note_on_c, 0, 75, 127
2, 214560, Note_off_c, 0, 75, 127
2, 214560, Note_on_c, 0, 74, 127
2, 214800, Note_off_c, 0, 74, 127
2, 214800, Note_on_c, 0, 72, 127
2, 215040, Note_off_c, 0, 72, 127
2, 215040, Note_on_c, 0, 56, 127
2, 215280, Note_off_c, 0, 56, 127
2, 215280, Note_on_c, 0, 62, 127
2, 215520, Note_off_c, 0, 62, 127
2, 215520, Note_on_c, 0, 67, 127
2, 215760, Note_off_c, 0, 67, 127
2, 215760, Note_on_c, 0, 56, 127
2, 216000, Note_off_c, 0, 56, 127
2, 216000, Note_on_c, 0, 72, 127
2, 216240, Note_off_c, 0, 72, 127
2, 216240, Note_on_c, 0, 74, 127
2, 216480, Note_off_c, 0, 74, 127
2, 216480, Note_on_c, 0, 79, 127
2, 216720, Note_off_c, 0, 79, 127
2, 216720, Note_on_c, 0, 68, 127
2, 216960, Note_off_c, 0, 68, 127
2, 216960, Note_on_c, 0, 84, 127
2, 217200, Note_off_c, 0, 84, 127
2, 217200, Note_on_c, 0, 68, 127
2, 217440, Note_off_c, 0, 68, 127
2, 217440, Note_on_c, 0, 79, 127
2, 217680, Note_off_c, 0, 79, 127
2, 217680, Note_on_c, 0, 74, 127
2, 217920, Note_off_c, 0, 74, 127
2, 217920, Note_on_c, 0, 72, 127
2, 218160, Note_off_c, 0, 72, 127
2, 218160, Note_on_c, 0, 56, 127
2, 218400, Note_off_c, 0, 56, 127
2, 218400, Note_on_c, 0, 67, 127
2, 218640, Note_off_c, 0, 67, 127
2, 218640, Note_on_c, 0, 62, 127
2, 218880, Note_off_c, 0, 62, 127
2, 218880, Note_on_c, 0, 56, 127
2, 219120, Note_off_c, 0, 56, 127
2, 219120, Note_on_c, 0, 62, 127
2, 219360, Note_off_c, 0, 62, 127
2, 219360, Note_on_c, 0, 67, 127
2, 219600, Note_off_c, 0, 67, 127
2, 219600, Note_on_c, 0, 56, 127
2, 219840, Note_off_c, 0, 56, 127
2, 219840, Note_on_c, 0, 72, 127
2, 220080, Note_off_c, 0, 72, 127
2, 220080, Note_on_c, 0, 74, 127
2, 220320, Note_off_c, 0, 74, 127
2, 220320, Note_on_c, 0, 79, 127
2, 220560, Note_off_c, 0, 79, 127
2, 220560, Note_on_c, 0, 68, 127
2, 220800, Note_off_c, 0, 68, 127
2, 220800, Note_on_c, 0, 84, 127
2, 221040, Note_off_c, 0, 84, 127
2, 221040, Note_on_c, 0, 68, 127
2, 221280, Note_off_c, 0, 68, 127
2, 221280, Note_on_c, 0, 79, 127
2, 221520, Note_off_c, 0, 79, 127
2, 221520, Note_on_c, 0, 74, 127
2, 221760, Note_off_c, 0, 74, 127
2, 221760, Note_on_c, 0, 72, 127
2, 222000, Note_off_c, 0, 72, 127
2, 222000, Note_on_c, 0, 56, 127
2, 222240, Note_off_c, 0, 56, 127
2, 222240, Note_on_c, 0, 67, 127
2, 222480, Note_off_c, 0, 67, 127
2, 222480, Note_on_c, 0, 62, 127
2, 222720, Note_off_c, 0, 62, 127
2, 222720, Note_on_c, 0, 53, 127
2, 222960, Note_off_c, 0, 53, 127
2, 222960, Note_on_c, 0, 60, 127
2, 223200, Note_off_c, 0, 60, 127
2, 223200, Note_on_c, 0, 62, 127
2, 223440, Note_off_c, 0, 62, 127
2, 223440, Note_on_c, 0, 63, 127
2, 223680, Note_off_c, 0, 63, 127
2, 223680, Note_on_c, 0, 53, 127
2, 223920, Note_off_c, 0, 53, 127
2, 223920, Note_on_c, 0, 72, 127
2, 224160, Note_off_c, 0, 72, 127
2, 224160, Note_on_c, 0, 74, 127
2, 224400, Note_off_c, 0, 74, 127
2, 224400, Note_on_c, 0, 75, 127
2, 224640, Note_off_c, 0, 75, 127
2, 224640, Note_on_c, 0, 65, 127
2, 224880, Note_off_c, 0, 65, 127
2, 224880, Note_on_c, 0, 84, 127
2, 225120, Note_off_c, 0, 84, 127
2, 225120, Note_on_c, 0, 65, 127
2, 225360, Note_off_c, 0, 65, 127
2, 225360, Note_on_c, 0, 75, 127
2, 225600, Note_off_c, 0, 75, 127
2, 225600, Note_on_c, 0, 74, 127
2, 225840, Note_off_c, 0, 74, 127
2, 225840, Note_on_c, 0, 72, 127
2, 226080, Note_off_c, 0, 72, 127
2, 226080, Note_on_c, 0, 53, 127
2, 226320, Note_off_c, 0, 53, 127
2, 226320, Note_on_c, 0, 63, 127
2, 226560, Note_off_c, 0, 63, 127
2, 226560, Note_on_c, 0, 62, 127
2, 226800, Note_off_c, 0, 62, 127
2, 226800, Note_on_c, 0, 60, 127
2, 227040, Note_off_c, 0, 60, 127
2, 227040, Note_on_c, 0, 53, 127
2, 227280, Note_off_c, 0, 53, 127
2, 227280, Note_on_c, 0, 60, 127
2, 227520, Note_off_c, 0, 60, 127
2, 227520, Note_on_c, 0, 62, 127
2, 227760, Note_off_c, 0, 62, 127
2, 227760, Note_on_c, 0, 63, 127
2, 228000, Note_off_c, 0, 63, 127
2, 228000, Note_on_c, 0, 53, 127
2, 228240, Note_off_c, 0, 53, 127
2, 228240, Note_on_c, 0, 72, 127
2, 228480, Note_off_c, 0, 72, 127
2, 228480, Note_on_c, 0, 74, 127
2, 228720, Note_off_c, 0, 74, 127
2, 228720, Note_on_c, 0, 75, 127
2, 228960, Note_off_c, 0, 75, 127
2, 228960, Note_on_c, 0, 65, 127
2, 229200, Note_off_c, 0, 65, 127
2, 229200, Note_on_c, 0, 84, 127
2, 229440, Note_off_c, 0, 84, 127
2, 229440, Note_on_c, 0, 65, 127
2, 229680, Note_off_c, 0, 65, 127
2, 229680, Note_on_c, 0, 75, 127
2, 229920, Note_off_c, 0, 75, 127
2, 229920, Note_on_c, 0, 74, 127
2, 230160, Note_off_c, 0, 74, 127
2, 230160, Note_on_c, 0, 72, 127
2, 230400, Note_off_c, 0, 72, 127
2, 230400, Note_on_c, 0, 56, 127
2, 230640, Note_off_c, 0, 56, 127
2, 230640, Note_on_c, 0, 62, 127
2, 230880, Note_off_c, 0, 62, 127
2, 230880, Note_on_c, 0, 67, 127
2, 231120, Note_off_c, 0, 67, 127
2, 231120, Note_on_c, 0, 56, 127
2, 231360, Note_off_c, 0, 56, 127
2, 231360, Note_on_c, 0, 72, 127
2, 231600, Note_off_c, 0, 72, 127
2, 231600, Note_on_c, 0, 74, 127
2, 231840, Note_off_c, 0, 74, 127
2, 231840, Note_on_c, 0, 79, 127
2, 232080, Note_off_c, 0, 79, 127
2, 232080, Note_on_c, 0, 68, 127
2, 232320, Note_off_c, 0, 68, 127
2, 232320, Note_on_c, 0, 84, 127
2, 232560, Note_off_c, 0, 84, 127
2, 232560, Note_on_c, 0, 68, 127
2, 232800, Note_off_c, 0, 68, 127
2, 232800, Note_on_c, 0, 79, 127
2, 233040, Note_off_c, 0, 79, 127
2, 233040, Note_on_c, 0, 74, 127
2, 233280, Note_off_c, 0, 74, 127
2, 233280, Note_on_c, 0, 72, 127
2, 233520, Note_off_c, 0, 72, 127
2, 233520, Note_on_c, 0, 56, 127
2, 233760, Note_off_c, 0, 56, 127
2, 233760, Note_on_c, 0, 67, 127
2, 234000, Note_off_c, 0, 67, 127
2, 234000, Note_on_c, 0, 62, 127
2, 234240, Note_off_c, 0, 62, 127
2, 234240, Note_on_c, 0, 56, 127
2, 234480, Note_off_c, 0, 56, 127
2, 234480, Note_on_c, 0, 62, 127
2, 234720, Note_off_c, 0, 62, 127
2, 234720, Note_on_c, 0, 67, 127
2, 234960, Note_off_c, 0, 67, 127
2, 234960, Note_on_c, 0, 56, 127
2, 235200, Note_off_c, 0, 56, 127
2, 235200, Note_on_c, 0, 72, 127
2, 235440, Note_off_c, 0, 72, 127
2, 235440, Note_on_c, 0, 74, 127
2, 235680, Note_off_c, 0, 74, 127
2, 235680, Note_on_c, 0, 79, 127
2, 235920, Note_off_c, 0, 79, 127
2, 235920, Note_on_c, 0, 68, 127
2, 236160, Note_off_c, 0, 68, 127
2, 236160, Note_on_c, 0, 84, 127
2, 236400, Note_off_c, 0, 84, 127
2, 236400, Note_on_c, 0, 68, 127
2, 236640, Note_off_c, 0, 68, 127
2, 236640, Note_on_c, 0, 79, 127
2, 236880, Note_off_c, 0, 79, 127
2, 236880, Note_on_c, 0, 74, 127
2, 237120, Note_off_c, 0, 74, 127
2, 237120, Note_on_c, 0, 72, 127
2, 237360, Note_off_c, 0, 72, 127
2, 237360, Note_on_c, 0, 56, 127
2, 237600, Note_off_c, 0, 56, 127
2, 237600, Note_on_c, 0, 67, 127
2, 237840, Note_off_c, 0, 67, 127
2, 237840, Note_on_c, 0, 62, 127
2, 238080, Note_off_c, 0, 62, 127
2, 238080, Note_on_c, 0, 53, 127
2, 238320, Note_off_c, 0, 53, 127
2, 238320, Note_on_c, 0, 60, 127
2, 238560, Note_off_c, 0, 60, 127
2, 238560, Note_on_c, 0, 62, 127
2, 238800, Note_off_c, 0, 62, 127
2, 238800, Note_on_c, 0, 63, 127
2, 239040, Note_off_c, 0, 63, 127
2, 239040, Note_on_c, 0, 53, 127
2, 239280, Note_off_c, 0, 53, 127
2, 239280, Note_on_c, 0, 72, 127
2, 239520, Note_off_c, 0, 72, 127
2, 239520, Note_on_c, 0, 74, 127
2, 239760, Note_off_c, 0, 74, 127
2, 239760, Note_on_c, 0, 75, 127
2, 240000, Note_off_c, 0, 75, 127
2, 240000, Note_on_c, 0, 65, 127
2, 240240, Note_off_c, 0, 65, 127
2, 240240, Note_on_c, 0, 84, 127
2, 240480, Note_off_c, 0, 84, 127
2, 240480, Note_on_c, 0, 65, 127
2, 240720, Note_off_c, 0, 65, 127
2, 240720, Note_on_c, 0, 75, 127
2, 240960, Note_off_c, 0, 75, 127
2, 240960, Note_on_c, 0, 74, 127
2, 241200, Note_off_c, 0, 74, 127
2, 241200, Note_on_c, 0, 72, 127
2, 241440, Note_off_c, 0, 72, 127
2, 241440, Note_on_c, 0, 53, 127
2, 241680, Note_off_c, 0, 53, 127
2, 241680, Note_on_c, 0, 63, 127
2, 241920, Note_off_c, 0, 63, 127
2, 241920, Note_on_c, 0, 62, 127
2, 242160, Note_off_c, 0, 62, 127
2, 242160, Note_on_c, 0, 60, 127
2, 242400, Note_off_c, 0, 60, 127
2, 242400, Note_on_c, 0, 53, 127
2, 242640, Note_off_c, 0, 53, 127
2, 242640, Note_on_c, 0, 60, 127
2, 242880, Note_off_c, 0, 60, 127
2, 242880, Note_on_c, 0, 62, 127
2, 243120, Note_off_c, 0, 62, 127
2, 243120, Note_on_c, 0, 63, 127
2, 243360, Note_off_c, 0, 63, 127
2, 243360, Note_on_c, 0, 53, 127
2, 243600, Note_off_c, 0, 53, 127
2, 243600, Note_on_c, 0, 72, 127
2, 243840, Note_off_c, 0, 72, 127
2, 243840, Note_on_c, 0, 74, 127
2, 244080, Note_off_c, 0, 74, 127
2, 244080, Note_on_c, 0, 75, 127
2, 244320, Note_off_c, 0, 75, 127
2, 244320, Note_on_c, 0, 65, 127
2, 244560, Note_off_c, 0, 65, 127
2, 244560, Note_on_c, 0, 84, 127
2, 244800, Note_off_c, 0, 84, 127
2, 244800, Note_on_c, 0, 65, 127
2, 245040, Note_off_c, 0, 65, 127
2, 245040, Note_on_c, 0, 75, 127
2, 245280, Note_off_c, 0, 75, 127
2, 245280, Note_on_c, 0, 74, 127
2, 245520, Note_off_c, 0, 74, 127
2, 245520, Note_on_c, 0, 72, 127
2, 245760, Note_off_c, 0, 72, 127
2, 245760, Note_on_c, 0, 55, 127
2, 245760, Note_on_c, 0, 50, 127
2, 245760, Note_on_c, 0, 43, 127
2, 246000, Note_off_c, 0, 55, 127
2, 246000, Note_off_c, 0, 50, 127
2, 246000, Note_off_c, 0, 43, 127
2, 246000, Note_on_c, 0, 56, 127
2, 246000, Note_on_c, 0, 51, 127
2, 246000, Note_on_c, 0, 44, 127
2, 246240, Note_off_c, 0, 56, 127
2, 246240, Note_off_c, 0, 51, 127
2, 246240, Note_off_c, 0, 44, 127
2, 249600, Note_on_c, 0, 56, 127
2, 249600, Note_on_c, 0, 51, 127
2, 249600, Note_on_c, 0, 44, 127
2, 249840, Note_off_c, 0, 56, 127
2, 249840, Note_off_c, 0, 51, 127
2, 249840, Note_off_c, 0, 44, 127
2, 249840, Note_on_c, 0, 55, 127
2, 249840, Note_on_c, 0, 50, 127
2, 249840, Note_on_c, 0, 43, 127
2, 250080, Note_off_c, 0, 55, 127
2, 250080, Note_off_c, 0, 50, 127
2, 250080, Note_off_c, 0, 43, 127
2, 251520, Note_on_c, 0, 55, 127
2, 251520, Note_on_c, 0, 50, 127
2, 251520, Note_on_c, 0, 43, 127
2, 251760, Note_off_c, 0, 55, 127
2, 251760, Note_off_c, 0, 50, 127
2, 251760, Note_off_c, 0, 43, 127
2, 252480, Note_on_c, 0, 56, 127
2, 252480, Note_on_c, 0, 51, 127
2, 252480, Note_on_c, 0, 44, 127
2, 252720, Note_off_c, 0, 56, 127
2, 252720, Note_off_c, 0, 51, 127
2, 252720, Note_off_c, 0, 44, 127
2, 253440, Note_on_c, 0, 50, 127
2, 253440, Note_on_c, 0, 45, 127
2, 257280, Note_off_c, 0, 50, 127
2, 257280, Note_off_c, 0, 45, 127
2, 257280, Note_on_c, 0, 50, 127
2, 257280, Note_on_c, 0, 45, 127
2, 257520, Note_off_c, 0, 50, 127
2, 257520, Note_off_c, 0, 45, 127
2, 257520, Note_on_c, 0, 51, 127
2, 257520, Note_on_c, 0, 46, 127
2, 257760, Note_off_c, 0, 51, 127
2, 257760, Note_off_c, 0, 46, 127
2, 259200, Note_on_c, 0, 51, 127
2, 259200, Note_on_c, 0, 46, 127
2, 259440, Note_off_c, 0, 51, 127
2, 259440, Note_off_c, 0, 46, 127
2, 259440, Note_on_c, 0, 50, 127
2, 259440, Note_on_c, 0, 45, 127
2, 259680, Note_off_c, 0, 50, 127
2, 259680, Note_off_c, 0, 45, 127
2, 260160, Note_on_c, 0, 50, 127
2, 260160, Note_on_c, 0, 45, 127
2, 260400, Note_off_c, 0, 50, 127
2, 260400, Note_off_c, 0, 45, 127
2, 260400, Note_on_c, 0, 51, 127
2, 260400, Note_on_c, 0, 46, 127
2, 260640, Note_off_c, 0, 51, 127
2, 260640, Note_off_c, 0, 46, 127
2, 261120, Note_on_c, 0, 55, 127
2, 261120, Note_on_c, 0, 50, 127
2, 261120, Note_on_c, 0, 43, 127
2, 261360, Note_off_c, 0, 55, 127
2, 261360, Note_off_c, 0, 50, 127
2, 261360, Note_off_c, 0, 43, 127
2, 261360, Note_on_c, 0, 56, 127
2, 261360, Note_on_c, 0, 51, 127
2, 261360, Note_on_c, 0, 44, 127
2, 261600, Note_off_c, 0, 56, 127
2, 261600, Note_off_c, 0, 51, 127
2, 261600, Note_off_c, 0, 44, 127
2, 264960, Note_on_c, 0, 56, 127
2, 264960, Note_on_c, 0, 51, 127
2, 264960, Note_on_c, 0, 44, 127
2, 265200, Note_off_c, 0, 56, 127
2, 265200, Note_off_c, 0, 51, 127
2, 265200, Note_off_c, 0, 44, 127
2, 265200, Note_on_c, 0, 55, 127
2, 265200, Note_on_c, 0, 50, 127
2, 265200, Note_on_c, 0, 43, 127
2, 265440, Note_off_c, 0, 55, 127
2, 265440, Note_off_c, 0, 50, 127
2, 265440, Note_off_c, 0, 43, 127
2, 266880, Note_on_c, 0, 55, 127
2, 266880, Note_on_c, 0, 50, 127
2, 266880, Note_on_c, 0, 43, 127
2, 267120, Note_off_c, 0, 55, 127
2, 267120, Note_off_c, 0, 50, 127
2, 267120, Note_off_c, 0, 43, 127
2, 267840, Note_on_c, 0, 56, 127
2, 267840, Note_on_c, 0, 51, 127
2, 267840, Note_on_c, 0, 44, 127
2, 268080, Note_off_c, 0, 56, 127
2, 268080, Note_off_c, 0, 51, 127
2, 268080, Note_off_c, 0, 44, 127
2, 268800, Note_on_c, 0, 50, 127
2, 268800, Note_on_c, 0, 45, 127
2, 272640, Note_off_c, 0, 50, 127
2, 272640, Note_off_c, 0, 45, 127
2, 272640, Note_on_c, 0, 50, 127
2, 272640, Note_on_c, 0, 45, 127
2, 272880, Note_off_c, 0, 50, 127
2, 272880, Note_off_c, 0, 45, 127
2, 272880, Note_on_c, 0, 51, 127
2, 272880, Note_on_c, 0, 46, 127
2, 273120, Note_off_c, 0, 51, 127
2, 273120, Note_off_c, 0, 46, 127
2, 274560, Note_on_c, 0, 51, 127
2, 274560, Note_on_c, 0, 46, 127
2, 274800, Note_off_c, 0, 51, 127
2, 274800, Note_off_c, 0, 46, 127
2, 274800, Note_on_c, 0, 50, 127
2, 274800, Note_on_c, 0, 45, 127
2, 275040, Note_off_c, 0, 50, 127
2, 275040, Note_off_c, 0, 45, 127
2, 275520, Note_on_c, 0, 50, 127
2, 275520, Note_on_c, 0, 45, 127
2, 275760, Note_off_c, 0, 50, 127
2, 275760, Note_off_c, 0, 45, 127
2, 275760, Note_on_c, 0, 51, 127
2, 275760, Note_on_c, 0, 46, 127
2, 276000, Note_off_c, 0, 51, 127
2, 276000, Note_off_c, 0, 46, 127
2, 276480, Note_on_c, 0, 55, 127
2, 276480, Note_on_c, 0, 50, 127
2, 276480, Note_on_c, 0, 43, 127
2, 276720, Note_off_c, 0, 55, 127
2, 276720, Note_off_c, 0, 50, 127
2, 276720, Note_off_c, 0, 43, 127
2, 276720, Note_on_c, 0, 56, 127
2, 276720, Note_on_c, 0, 51, 127
2, 276720, Note_on_c, 0, 44, 127
2, 276960, Note_off_c, 0, 56, 127
2, 276960, Note_off_c, 0, 51, 127
2, 276960, Note_off_c, 0, 44, 127
2, 280320, Note_on_c, 0, 56, 127
2, 280320, Note_on_c, 0, 51, 127
2, 280320, Note_on_c, 0, 44, 127
2, 280560, Note_off_c, 0, 56, 127
2, 280560, Note_off_c, 0, 51, 127
2, 280560, Note_off_c, 0, 44, 127
2, 280560, Note_on_c, 0, 55, 127
2, 280560, Note_on_c, 0, 50, 127
2, 280560, Note_on_c, 0, 43, 127
2, 280800, Note_off_c, 0, 55, 127
2, 280800, Note_off_c, 0, 50, 127
2, 280800, Note_off_c, 0, 43, 127
2, 282240, Note_on_c, 0, 55, 127
2, 282240, Note_on_c, 0, 50, 127
2, 282240, Note_on_c, 0, 43, 127
2, 282480, Note_off_c, 0, 55, 127
2, 282480, Note_off_c, 0, 50, 127
2, 282480, Note_off_c, 0, 43, 127
2, 283200, Note_on_c, 0, 56, 127
2, 283200, Note_on_c, 0, 51, 127
2, 283200, Note_on_c, 0, 44, 127
2, 283440, Note_off_c, 0, 56, 127
2, 283440, Note_off_c, 0, 51, 127
2, 283440, Note_off_c, 0, 44, 127
2, 284160, Note_on_c, 0, 50, 127
2, 284160, Note_on_c, 0, 45, 127
2, 288000, Note_off_c, 0, 50, 127
2, 288000, Note_off_c, 0, 45, 127
2, 288000, Note_on_c, 0, 50, 127
2, 288000, Note_on_c, 0, 45, 127
2, 288240, Note_off_c, 0, 50, 127
2, 288240, Note_off_c, 0, 45, 127
2, 288240, Note_on_c, 0, 51, 127
2, 288240, Note_on_c, 0, 46, 127
2, 288480, Note_off_c, 0, 51, 127
2, 288480, Note_off_c, 0, 46, 127
2, 289920, Note_on_c, 0, 51, 127
2, 289920, Note_on_c, 0, 46, 127
2, 290160, Note_off_c, 0, 51, 127
2, 290160, Note_off_c, 0, 46, 127
2, 290160, Note_on_c, 0, 50, 127
2, 290160, Note_on_c, 0, 45, 127
2, 290400, Note_off_c, 0, 50, 127
2, 290400, Note_off_c, 0, 45, 127
2, 290880, Note_on_c, 0, 50, 127
2, 290880, Note_on_c, 0, 45, 127
2, 291120, Note_off_c, 0, 50, 127
2, 291120, Note_off_c, 0, 45, 127
2, 291120, Note_on_c, 0, 51, 127
2, 291120, Note_on_c, 0, 46, 127
2, 291360, Note_off_c, 0, 51, 127
2, 291360, Note_off_c, 0, 46, 127
2, 291840, Note_on_c, 0, 55, 127
2, 291840, Note_on_c, 0, 50, 127
2, 291840, Note_on_c, 0, 43, 127
2, 292080, Note_off_c, 0, 55, 127
2, 292080, Note_off_c, 0, 50, 127
2, 292080, Note_off_c, 0, 43, 127
2, 292080, Note_on_c, 0, 56, 127
2, 292080, Note_on_c, 0, 51, 127
2, 292080, Note_on_c, 0, 44, 127
2, 292320, Note_off_c, 0, 56, 127
2, 292320, Note_off_c, 0, 51, 127
2, 292320, Note_off_c, 0, 44, 127
2, 295680, Note_on_c, 0, 56, 127
2, 295680, Note_on_c, 0, 51, 127
2, 295680, Note_on_c, 0, 44, 127
2, 295920, Note_off_c, 0, 56, 127
2, 295920, Note_off_c, 0, 51, 127
2, 295920, Note_off_c, 0, 44, 127
2, 295920, Note_on_c, 0, 55, 127
2, 295920, Note_on_c, 0, 50, 127
2, 295920, Note_on_c, 0, 43, 127
2, 296160, Note_off_c, 0, 55, 127
2, 296160, Note_off_c, 0, 50, 127
2, 296160, Note_off_c, 0, 43, 127
2, 297600, Note_on_c, 0, 55, 127
2, 297600, Note_on_c, 0, 50, 127
2, 297600, Note_on_c, 0, 43, 127
2, 297840, Note_off_c, 0, 55, 127
2, 297840, Note_off_c, 0, 50, 127
2, 297840, Note_off_c, 0, 43, 127
2, 298560, Note_on_c, 0, 56, 127
2, 298560, Note_on_c, 0, 51, 127
2, 298560, Note_on_c, 0, 44, 127
2, 298800, Note_off_c, 0, 56, 127
2, 298800, Note_off_c, 0, 51, 127
2, 298800, Note_off_c, 0, 44, 127
2, 299520, Note_on_c, 0, 50, 127
2, 299520, Note_on_c, 0, 45, 127
2, 303360, Note_off_c, 0, 50, 127
2, 303360, Note_off_c, 0, 45, 127
2, 303360, Note_on_c, 0, 50, 127
2, 303360, Note_on_c, 0, 45, 127
2, 303600, Note_off_c, 0, 50, 127
2, 303600, Note_off_c, 0, 45, 127
2, 303600, Note_on_c, 0, 51, 127
2, 303600, Note_on_c, 0, 46, 127
2, 303840, Note_off_c, 0, 51, 127
2, 303840, Note_off_c, 0, 46, 127
2, 305280, Note_on_c, 0, 51, 127
2, 305280, Note_on_c, 0, 46, 127
2, 305520, Note_off_c, 0, 51, 127
2, 305520, Note_off_c, 0, 46, 127
2, 305520, Note_on_c, 0, 50, 127
2, 305520, Note_on_c, 0, 45, 127
2, 305760, Note_off_c, 0, 50, 127
2, 305760, Note_off_c, 0, 45, 127
2, 306240, Note_on_c, 0, 50, 127
2, 306240, Note_on_c, 0, 45, 127
2, 306480, Note_off_c, 0, 50, 127
2, 306480, Note_off_c, 0, 45, 127
2, 306480, Note_on_c, 0, 51, 127
2, 306480, Note_on_c, 0, 46, 127
2, 306720, Note_off_c, 0, 51, 127
2, 306720, Note_off_c, 0, 46, 127
2, 307200, Note_on_c, 0, 55, 127
2, 307200, Note_on_c, 0, 50, 127
2, 307200, Note_on_c, 0, 43, 127
2, 307440, Note_off_c, 0, 55, 127
2, 307440, Note_off_c, 0, 50, 127
2, 307440, Note_off_c, 0, 43, 127
2, 307440, Note_on_c, 0, 56, 127
2, 307440, Note_on_c, 0, 51, 127
2, 307440, Note_on_c, 0, 44, 127
2, 307680, Note_off_c, 0, 56, 127
2, 307680, Note_off_c, 0, 51, 127
2, 307680, Note_off_c, 0, 44, 127
2, 311040, Note_on_c, 0, 56, 127
2, 311040, Note_on_c, 0, 51, 127
2, 311040, Note_on_c, 0, 44, 127
2, 311280, Note_off_c, 0, 56, 127
2, 311280, Note_off_c, 0, 51, 127
2, 311280, Note_off_c, 0, 44, 127
2, 311280, Note_on_c, 0, 55, 127
2, 311280, Note_on_c, 0, 50, 127
2, 311280, Note_on_c, 0, 43, 127
2, 311520, Note_off_c, 0, 55, 127
2, 311520, Note_off_c, 0, 50, 127
2, 311520, Note_off_c, 0, 43, 127
2, 312960, Note_on_c, 0, 55, 127
2, 312960, Note_on_c, 0, 50, 127
2, 312960, Note_on_c, 0, 43, 127
2, 313200, Note_off_c, 0, 55, 127
2, 313200, Note_off_c, 0, 50, 127
2, 313200, Note_off_c, 0, 43, 127
2, 313920, Note_on_c, 0, 56, 127
2, 313920, Note_on_c, 0, 51, 127
2, 313920, Note_on_c, 0, 44, 127
2, 314160, Note_off_c, 0, 56, 127
2, 314160, Note_off_c, 0, 51, 127
2, 314160, Note_off_c, 0, 44, 127
2, 314880, Note_on_c, 0, 50, 127
2, 314880, Note_on_c, 0, 45, 127
2, 318720, Note_off_c, 0, 50, 127
2, 318720, Note_off_c, 0, 45, 127
2, 318720, Note_on_c, 0, 50, 127
2, 318720, Note_on_c, 0, 45, 127
2, 318960, Note_off_c, 0, 50, 127
2, 318960, Note_off_c, 0, 45, 127
2, 318960, Note_on_c, 0, 51, 127
2, 318960, Note_on_c, 0, 46, 127
2, 319200, Note_off_c, 0, 51, 127
2, 319200, Note_off_c, 0, 46, 127
2, 320640, Note_on_c, 0, 51, 127
2, 320640, Note_on_c, 0, 46, 127
2, 320880, Note_off_c, 0, 51, 127
2, 320880, Note_off_c, 0, 46, 127
2, 320880, Note_on_c, 0, 50, 127
2, 320880, Note_on_c, 0, 45, 127
2, 321120, Note_off_c, 0, 50, 127
2, 321120, Note_off_c, 0, 45, 127
2, 321600, Note_on_c, 0, 50, 127
2, 321600, Note_on_c, 0, 45, 127
2, 321840, Note_off_c, 0, 50, 127
2, 321840, Note_off_c, 0, 45, 127
2, 321840, Note_on_c, 0, 51, 127
2, 321840, Note_on_c, 0, 46, 127
2, 322080, Note_off_c, 0, 51, 127
2, 322080, Note_off_c, 0, 46, 127
2, 322560, Note_on_c, 0, 55, 127
2, 322560, Note_on_c, 0, 50, 127
2, 322560, Note_on_c, 0, 43, 127
2, 322800, Note_off_c, 0, 55, 127
2, 322800, Note_off_c, 0, 50, 127
2, 322800, Note_off_c, 0, 43, 127
2, 322800, Note_on_c, 0, 56, 127
2, 322800, Note_on_c, 0, 51, 127
2, 322800, Note_on_c, 0, 44, 127
2, 323040, Note_off_c, 0, 56, 127
2, 323040, Note_off_c, 0, 51, 127
2, 323040, Note_off_c, 0, 44, 127
2, 326400, Note_on_c, 0, 56, 127
2, 326400, Note_on_c, 0, 51, 127
2, 326400, Note_on_c, 0, 44, 127
2, 326640, Note_off_c, 0, 56, 127
2, 326640, Note_off_c, 0, 51, 127
2, 326640, Note_off_c, 0, 44, 127
2, 326640, Note_on_c, 0, 55, 127
2, 326640, Note_on_c, 0, 50, 127
2, 326640, Note_on_c, 0, 43, 127
2, 326880, Note_off_c, 0, 55, 127
2, 326880, Note_off_c, 0, 50, 127
2, 326880, Note_off_c, 0, 43, 127
2, 328320, Note_on_c, 0, 55, 127
2, 328320, Note_on_c, 0, 50, 127
2, 328320, Note_on_c, 0, 43, 127
2, 328560, Note_off_c, 0, 55, 127
2, 328560, Note_off_c, 0, 50, 127
2, 328560, Note_off_c, 0, 43, 127
2, 329280, Note_on_c, 0, 56, 127
2, 329280, Note_on_c, 0, 51, 127
2, 329280, Note_on_c, 0, 44, 127
2, 329520, Note_off_c, 0, 56, 127
2, 329520, Note_off_c, 0, 51, 127
2, 329520, Note_off_c, 0, 44, 127
2, 330240, Note_on_c, 0, 50, 127
2, 330240, Note_on_c, 0, 45, 127
2, 334080, Note_off_c, 0, 50, 127
2, 334080, Note_off_c, 0, 45, 127
2, 334080, Note_on_c, 0, 50, 127
2, 334080, Note_on_c, 0, 45, 127
2, 334320, Note_off_c, 0, 50, 127
2, 334320, Note_off_c, 0, 45, 127
2, 334320, Note_on_c, 0, 51, 127
2, 334320, Note_on_c, 0, 46, 127
2, 334560, Note_off_c, 0, 51, 127
2, 334560, Note_off_c, 0, 46, 127
2, 336000, Note_on_c, 0, 51, 127
2, 336000, Note_on_c, 0, 46, 127
2, 336240, Note_off_c, 0, 51, 127
2, 336240, Note_off_c, 0, 46, 127
2, 336240, Note_on_c, 0, 50, 127
2, 336240, Note_on_c, 0, 45, 127
2, 336480, Note_off_c, 0, 50, 127
2, 336480, Note_off_c, 0, 45, 127
2, 336960, Note_on_c, 0, 50, 127
2, 336960, Note_on_c, 0, 45, 127
2, 337200, Note_off_c, 0, 50, 127
2, 337200, Note_off_c, 0, 45, 127
2, 337200, Note_on_c, 0, 51, 127
2, 337200, Note_on_c, 0, 46, 127
2, 337440, Note_off_c, 0, 51, 127
2, 337440, Note_off_c, 0, 46, 127
2, 337920, Note_on_c, 0, 55, 127
2, 337920, Note_on_c, 0, 50, 127
2, 337920, Note_on_c, 0, 43, 127
2, 338160, Note_off_c, 0, 55, 127
2, 338160, Note_off_c, 0, 50, 127
2, 338160, Note_off_c, 0, 43, 127
2, 338160, Note_on_c, 0, 56, 127
2, 338160, Note_on_c, 0, 51, 127
2, 338160, Note_on_c, 0, 44, 127
2, 338400, Note_off_c, 0, 56, 127
2, 338400, Note_off_c, 0, 51, 127
2, 338400, Note_off_c, 0, 44, 127
2, 341760, Note_on_c, 0, 56, 127
2, 341760, Note_on_c, 0, 51, 127
2, 341760, Note_on_c, 0, 44, 127
2, 342000, Note_off_c, 0, 56, 127
2, 342000, Note_off_c, 0, 51, 127
2, 342000, Note_off_c, 0, 44, 127
2, 342000, Note_on_c, 0, 55, 127
2, 342000, Note_on_c, 0, 50, 127
2, 342000, Note_on_c, 0, 43, 127
2, 342240, Note_off_c, 0, 55, 127
2, 342240, Note_off_c, 0, 50, 127
2, 342240, Note_off_c, 0, 43, 127
2, 343680, Note_on_c, 0, 55, 127
2, 343680, Note_on_c, 0, 50, 127
2, 343680, Note_on_c, 0, 43, 127
2, 343920, Note_off_c, 0, 55, 127
2, 343920, Note_off_c, 0, 50, 127
2, 343920, Note_off_c, 0, 43, 127
2, 344640, Note_on_c, 0, 56, 127
2, 344640, Note_on_c, 0, 51, 127
2, 344640, Note_on_c, 0, 44, 127
2, 344880, Note_off_c, 0, 56, 127
2, 344880, Note_off_c, 0, 51, 127
2, 344880, Note_off_c, 0, 44, 127
2, 345600, Note_on_c, 0, 50, 127
2, 345600, Note_on_c, 0, 45, 127
2, 349440, Note_off_c, 0, 50, 127
2, 349440, Note_off_c, 0, 45, 127
2, 349440, Note_on_c, 0, 50, 127
2, 349440, Note_on_c, 0, 45, 127
2, 349680, Note_off_c, 0, 50, 127
2, 349680, Note_off_c, 0, 45, 127
2, 349680, Note_on_c, 0, 51, 127
2, 349680, Note_on_c, 0, 46, 127
2, 349920, Note_off_c, 0, 51, 127
2, 349920, Note_off_c, 0, 46, 127
2, 351360, Note_on_c, 0, 51, 127
2, 351360, Note_on_c, 0, 46, 127
2, 351600, Note_off_c, 0, 51, 127
2, 351600, Note_off_c, 0, 46, 127
2, 351600, Note_on_c, 0, 50, 127
2, 351600, Note_on_c, 0, 45, 127
2, 351840, Note_off_c, 0, 50, 127
2, 351840, Note_off_c, 0, 45, 127
2, 352320, Note_on_c, 0, 50, 127
2, 352320, Note_on_c, 0, 45, 127
2, 352560, Note_off_c, 0, 50, 127
2, 352560, Note_off_c, 0, 45, 127
2, 352560, Note_on_c, 0, 51, 127
2, 352560, Note_on_c, 0, 46, 127
2, 352800, Note_off_c, 0, 51, 127
2, 352800, Note_off_c, 0, 46, 127
2, 353280, Note_on_c, 0, 55, 127
2, 353280, Note_on_c, 0, 50, 127
2, 353280, Note_on_c, 0, 43, 127
2, 353520, Note_off_c, 0, 55, 127
2, 353520, Note_off_c, 0, 50, 127
2, 353520, Note_off_c, 0, 43, 127
2, 353520, Note_on_c, 0, 56, 127
2, 353520, Note_on_c, 0, 51, 127
2, 353520, Note_on_c, 0, 44, 127
2, 353760, Note_off_c, 0, 56, 127
2, 353760, Note_off_c, 0, 51, 127
2, 353760, Note_off_c, 0, 44, 127
2, 357120, Note_on_c, 0, 56, 127
2, 357120, Note_on_c, 0, 51, 127
2, 357120, Note_on_c, 0, 44, 127
2, 357360, Note_off_c, 0, 56, 127
2, 357360, Note_off_c, 0, 51, 127
2, 357360, Note_off_c, 0, 44, 127
2, 357360, Note_on_c, 0, 55, 127
2, 357360, Note_on_c, 0, 50, 127
2, 357360, Note_on_c, 0, 43, 127
2, 357600, Note_off_c, 0, 55, 127
2, 357600, Note_off_c, 0, 50, 127
2, 357600, Note_off_c, 0, 43, 127
2, 359040, Note_on_c, 0, 55, 127
2, 359040, Note_on_c, 0, 50, 127
2, 359040, Note_on_c, 0, 43, 127
2, 359280, Note_off_c, 0, 55, 127
2, 359280, Note_off_c, 0, 50, 127
2, 359280, Note_off_c, 0, 43, 127
2, 360000, Note_on_c, 0, 56, 127
2, 360000, Note_on_c, 0, 51, 127
2, 360000, Note_on_c, 0, 44, 127
2, 360240, Note_off_c, 0, 56, 127
2, 360240, Note_off_c, 0, 51, 127
2, 360240, Note_off_c, 0, 44, 127
2, 360960, Note_on_c, 0, 50, 127
2, 360960, Note_on_c, 0, 45, 127
2, 364800, Note_off_c, 0, 50, 127
2, 364800, Note_off_c, 0, 45, 127
2, 364800, Note_on_c, 0, 50, 127
2, 364800, Note_on_c, 0, 45, 127
2, 365040, Note_off_c, 0, 50, 127
2, 365040, Note_off_c, 0, 45, 127
2, 365040, Note_on_c, 0, 51, 127
2, 365040, Note_on_c, 0, 46, 127
2, 365280, Note_off_c, 0, 51, 127
2, 365280, Note_off_c, 0, 46, 127
2, 366720, Note_on_c, 0, 51, 127
2, 366720, Note_on_c, 0, 46, 127
2, 366960, Note_off_c, 0, 51, 127
2, 366960, Note_off_c, 0, 46, 127
2, 366960, Note_on_c, 0, 50, 127
2, 366960, Note_on_c, 0, 45, 127
2, 367200, Note_off_c, 0, 50, 127
2, 367200, Note_off_c, 0, 45, 127
2, 367680, Note_on_c, 0, 50, 127
2, 367680, Note_on_c, 0, 45, 127
2, 367920, Note_off_c, 0, 50, 127
2, 367920, Note_off_c, 0, 45, 127
2, 367920, Note_on_c, 0, 51, 127
2, 367920, Note_on_c, 0, 46, 127
2, 368160, Note_off_c, 0, 51, 127
2, 368160, Note_off_c, 0, 46, 127
2, 368640, Note_on_c, 0, 55, 127
2, 368640, Note_on_c, 0, 50, 127
2, 368640, Note_on_c, 0, 43, 127
2, 368880, Note_off_c, 0, 55, 127
2, 368880, Note_off_c, 0, 50, 127
2, 368880, Note_off_c, 0, 43, 127
2, 368880, Note_on_c, 0, 56, 127
2, 368880, Note_on_c, 0, 51, 127
2, 368880, Note_on_c, 0, 44, 127
2, 369120, Note_off_c, 0, 56, 127
2, 369120, Note_off_c, 0, 51, 127
2, 369120, Note_off_c, 0, 44, 127
2, 372480, Note_on_c, 0, 56, 127
2, 372480, Note_on_c, 0, 51, 127
2, 372480, Note_on_c, 0, 44, 127
2, 372720, Note_off_c, 0, 56, 127
2, 372720, Note_off_c, 0, 51, 127
2, 372720, Note_off_c, 0, 44, 127
2, 372720, Note_on_c, 0, 55, 127
2, 372720, Note_on_c, 0, 50, 127
2, 372720, Note_on_c, 0, 43, 127
2, 372960, Note_off_c, 0, 55, 127
2, 372960, Note_off_c, 0, 50, 127
2, 372960, Note_off_c, 0, 43, 127
2, 374400, Note_on_c, 0, 55, 127
2, 374400, Note_on_c, 0, 50, 127
2, 374400, Note_on_c, 0, 43, 127
2, 374640, Note_off_c, 0, 55, 127
2, 374640, Note_off_c, 0, 50, 127
2, 374640, Note_off_c, 0, 43, 127
2, 375360, Note_on_c, 0, 56, 127
2, 375360, Note_on_c, 0, 51, 127
2, 375360, Note_on_c, 0, 44, 127
2, 375600, Note_off_c, 0, 56, 127
2, 375600, Note_off_c, 0, 51, 127
2, 375600, Note_off_c, 0, 44, 127
2, 376320, Note_on_c, 0, 50, 127
2, 376320, Note_on_c, 0, 45, 127
2, 380160, Note_off_c, 0, 50, 127
2, 380160, Note_off_c, 0, 45, 127
2, 380160, Note_on_c, 0, 50, 127
2, 380160, Note_on_c, 0, 45, 127
2, 380400, Note_off_c, 0, 50, 127
2, 380400, Note_off_c, 0, 45, 127
2, 380400, Note_on_c, 0, 51, 127
2, 380400, Note_on_c, 0, 46, 127
2, 380640, Note_off_c, 0, 51, 127
2, 380640, Note_off_c, 0, 46, 127
2, 382080, Note_on_c, 0, 51, 127
2, 382080, Note_on_c, 0, 46, 127
2, 382320, Note_off_c, 0, 51, 127
2, 382320, Note_off_c, 0, 46, 127
2, 382320, Note_on_c, 0, 50, 127
2, 382320, Note_on_c, 0, 45, 127
2, 382560, Note_off_c, 0, 50, 127
2, 382560, Note_off_c, 0, 45, 127
2, 383040, Note_on_c, 0, 50, 127
2, 383040, Note_on_c, 0, 45, 127
2, 383280, Note_off_c, 0, 50, 127
2, 383280, Note_off_c, 0, 45, 127
2, 383280, Note_on_c, 0, 51, 127
2, 383280, Note_on_c, 0, 46, 127
2, 383520, Note_off_c, 0, 51, 127
2, 383520, Note_off_c, 0, 46, 127
2, 384000, Note_on_c, 0, 55, 127
2, 384000, Note_on_c, 0, 50, 127
2, 384000, Note_on_c, 0, 43, 127
2, 384240, Note_off_c, 0, 55, 127
2, 384240, Note_off_c, 0, 50, 127
2, 384240, Note_off_c, 0, 43, 127
2, 384240, Note_on_c, 0, 56, 127
2, 384240, Note_on_c, 0, 51, 127
2, 384240, Note_on_c, 0, 44, 127
2, 384480, Note_off_c, 0, 56, 127
2, 384480, Note_off_c, 0, 51, 127
2, 384480, Note_off_c, 0, 44, 127
2, 387840, Note_on_c, 0, 56, 127
2, 387840, Note_on_c, 0, 51, 127
2, 387840, Note_on_c, 0, 44, 127
2, 388080, Note_off_c, 0, 56, 127
2, 388080, Note_off_c, 0, 51, 127
2, 388080, Note_off_c, 0, 44, 127
2, 388080, Note_on_c, 0, 55, 127
2, 388080, Note_on_c, 0, 50, 127
2, 388080, Note_on_c, 0, 43, 127
2, 388320, Note_off_c, 0, 55, 127
2, 388320, Note_off_c, 0, 50, 127
2, 388320, Note_off_c, 0, 43, 127
2, 389760, Note_on_c, 0, 55, 127
2, 389760, Note_on_c, 0, 50, 127
2, 389760, Note_on_c, 0, 43, 127
2, 390000, Note_off_c, 0, 55, 127
2, 390000, Note_off_c, 0, 50, 127
2, 390000, Note_off_c, 0, 43, 127
2, 390720, Note_on_c, 0, 56, 127
2, 390720, Note_on_c, 0, 51, 127
2, 390720, Note_on_c, 0, 44, 127
2, 390960, Note_off_c, 0, 56, 127
2, 390960, Note_off_c, 0, 51, 127
2, 390960, Note_off_c, 0, 44, 127
2, 391680, Note_on_c, 0, 50, 127
2, 391680, Note_on_c, 0, 45, 127
2, 395520, Note_off_c, 0, 50, 127
2, 395520, Note_off_c, 0, 45, 127
2, 395520, Note_on_c, 0, 50, 127
2, 395520, Note_on_c, 0, 45, 127
2, 395760, Note_off_c, 0, 50, 127
2, 395760, Note_off_c, 0, 45, 127
2, 395760, Note_on_c, 0, 51, 127
2, 395760, Note_on_c, 0, 46, 127
2, 396000, Note_off_c, 0, 51, 127
2, 396000, Note_off_c, 0, 46, 127
2, 397440, Note_on_c, 0, 51, 127
2, 397440, Note_on_c, 0, 46, 127
2, 397680, Note_off_c, 0, 51, 127
2, 397680, Note_off_c, 0, 46, 127
2, 397680, Note_on_c, 0, 50, 127
2, 397680, Note_on_c, 0, 45, 127
2, 397920, Note_off_c, 0, 50, 127
2, 397920, Note_off_c, 0, 45, 127
2, 398400, Note_on_c, 0, 50, 127
2, 398400, Note_on_c, 0, 45, 127
2, 398640, Note_off_c, 0, 50, 127
2, 398640, Note_off_c, 0, 45, 127
2, 398640, Note_on_c, 0, 51, 127
2, 398640, Note_on_c, 0, 46, 127
2, 398880, Note_off_c, 0, 51, 127
2, 398880, Note_off_c, 0, 46, 127
2, 399360, Note_on_c, 0, 55, 127
2, 399360, Note_on_c, 0, 50, 127
2, 399360, Note_on_c, 0, 43, 127
2, 399600, Note_off_c, 0, 55, 127
2, 399600, Note_off_c, 0, 50, 127
2, 399600, Note_off_c, 0, 43, 127
2, 399600, Note_on_c, 0, 56, 127
2, 399600, Note_on_c, 0, 51, 127
2, 399600, Note_on_c, 0, 44, 127
2, 399840, Note_off_c, 0, 56, 127
2, 399840, Note_off_c, 0, 51, 127
2, 399840, Note_off_c, 0, 44, 127
2, 403200, Note_on_c, 0, 56, 127
2, 403200, Note_on_c, 0, 51, 127
2, 403200, Note_on_c, 0, 44, 127
2, 403440, Note_off_c, 0, 56, 127
2, 403440, Note_off_c, 0, 51, 127
2, 403440, Note_off_c, 0, 44, 127
2, 403440, Note_on_c, 0, 55, 127
2, 403440, Note_on_c, 0, 50, 127
2, 403440, Note_on_c, 0, 43, 127
2, 403680, Note_off_c, 0, 55, 127
2, 403680, Note_off_c, 0, 50, 127
2, 403680, Note_off_c, 0, 43, 127
2, 405120, Note_on_c, 0, 55, 127
2, 405120, Note_on_c, 0, 50, 127
2, 405120, Note_on_c, 0, 43, 127
2, 405360, Note_off_c, 0, 55, 127
2, 405360, Note_off_c, 0, 50, 127
2, 405360, Note_off_c, 0, 43, 127
2, 406080, Note_on_c, 0, 56, 127
2, 406080, Note_on_c, 0, 51, 127
2, 406080, Note_on_c, 0, 44, 127
2, 406320, Note_off_c, 0, 56, 127
2, 406320, Note_off_c, 0, 51, 127
2, 406320, Note_off_c, 0, 44, 127
2, 407040, Note_on_c, 0, 50, 127
2, 407040, Note_on_c, 0, 45, 127
2, 410880, Note_off_c, 0, 50, 127
2, 410880, Note_off_c, 0, 45, 127
2, 410880, Note_on_c, 0, 50, 127
2, 410880, Note_on_c, 0, 45, 127
2, 411120, Note_off_c, 0, 50, 127
2, 411120, Note_off_c, 0, 45, 127
2, 411120, Note_on_c, 0, 51, 127
2, 411120, Note_on_c, 0, 46, 127
2, 411360, Note_off_c, 0, 51, 127
2, 411360, Note_off_c, 0, 46, 127
2, 412800, Note_on_c, 0, 51, 127
2, 412800, Note_on_c, 0, 46, 127
2, 413040, Note_off_c, 0, 51, 127
2, 413040, Note_off_c, 0, 46, 127
2, 413040, Note_on_c, 0, 50, 127
2, 413040, Note_on_c, 0, 45, 127
2, 413280, Note_off_c, 0, 50, 127
2, 413280, Note_off_c, 0, 45, 127
2, 413760, Note_on_c, 0, 50, 127
2, 413760, Note_on_c, 0, 45, 127
2, 414000, Note_off_c, 0, 50, 127
2, 414000, Note_off_c, 0, 45, 127
2, 414000, Note_on_c, 0, 51, 127
2, 414000, Note_on_c, 0, 46, 127
2, 414240, Note_off_c, 0, 51, 127
2, 414240, Note_off_c, 0, 46, 127
2, 414720, Note_on_c, 0, 55, 127
2, 414720, Note_on_c, 0, 50, 127
2, 414720, Note_on_c, 0, 43, 127
2, 414960, Note_off_c, 0, 55, 127
2, 414960, Note_off_c, 0, 50, 127
2, 414960, Note_off_c, 0, 43, 127
2, 414960, Note_on_c, 0, 56, 127
2, 414960, Note_on_c, 0, 51, 127
2, 414960, Note_on_c, 0, 44, 127
2, 415200, Note_off_c, 0, 56, 127
2, 415200, Note_off_c, 0, 51, 127
2, 415200, Note_off_c, 0, 44, 127
2, 418560, Note_on_c, 0, 56, 127
2, 418560, Note_on_c, 0, 51, 127
2, 418560, Note_on_c, 0, 44, 127
2, 418800, Note_off_c, 0, 56, 127
2, 418800, Note_off_c, 0, 51, 127
2, 418800, Note_off_c, 0, 44, 127
2, 418800, Note_on_c, 0, 55, 127
2, 418800, Note_on_c, 0, 50, 127
2, 418800, Note_on_c, 0, 43, 127
2, 419040, Note_off_c, 0, 55, 127
2, 419040, Note_off_c, 0, 50, 127
2, 419040, Note_off_c, 0, 43, 127
2, 420480, Note_on_c, 0, 55, 127
2, 420480, Note_on_c, 0, 50, 127
2, 420480, Note_on_c, 0, 43, 127
2, 420720, Note_off_c, 0, 55, 127
2, 420720, Note_off_c, 0, 50, 127
2, 420720, Note_off_c, 0, 43, 127
2, 421440, Note_on_c, 0, 56, 127
2, 421440, Note_on_c, 0, 51, 127
2, 421440, Note_on_c, 0, 44, 127
2, 421680, Note_off_c, 0, 56, 127
2, 421680, Note_off_c, 0, 51, 127
2, 421680, Note_off_c, 0, 44, 127
2, 422400, Note_on_c, 0, 50, 127
2, 422400, Note_on_c, 0, 45, 127
2, 426240, Note_off_c, 0, 50, 127
2, 426240, Note_off_c, 0, 45, 127
2, 426240, Note_on_c, 0, 50, 127
2, 426240, Note_on_c, 0, 45, 127
2, 426480, Note_off_c, 0, 50, 127
2, 426480, Note_off_c, 0, 45, 127
2, 426480, Note_on_c, 0, 51, 127
2, 426480, Note_on_c, 0, 46, 127
2, 426720, Note_off_c, 0, 51, 127
2, 426720, Note_off_c, 0, 46, 127
2, 428160, Note_on_c, 0, 51, 127
2, 428160, Note_on_c, 0, 46, 127
2, 428400, Note_off_c, 0, 51, 127
2, 428400, Note_off_c, 0, 46, 127
2, 428400, Note_on_c, 0, 50, 127
2, 428400, Note_on_c, 0, 45, 127
2, 428640, Note_off_c, 0, 50, 127
2, 428640, Note_off_c, 0, 45, 127
2, 429120, Note_on_c, 0, 50, 127
2, 429120, Note_on_c, 0, 45, 127
2, 429360, Note_off_c, 0, 50, 127
2, 429360, Note_off_c, 0, 45, 127
2, 429360, Note_on_c, 0, 51, 127
2, 429360, Note_on_c, 0, 46, 127
2, 429600, Note_off_c, 0, 51, 127
2, 429600, Note_off_c, 0, 46, 127
2, 430080, Note_on_c, 0, 55, 127
2, 430080, Note_on_c, 0, 50, 127
2, 430080, Note_on_c, 0, 43, 127
2, 430320, Note_off_c, 0, 55, 127
2, 430320, Note_off_c, 0, 50, 127
2, 430320, Note_off_c, 0, 43, 127
2, 430320, Note_on_c, 0, 56, 127
2, 430320, Note_on_c, 0, 51, 127
2, 430320, Note_on_c, 0, 44, 127
2, 430560, Note_off_c, 0, 56, 127
2, 430560, Note_off_c, 0, 51, 127
2, 430560, Note_off_c, 0, 44, 127
2, 433920, Note_on_c, 0, 56, 127
2, 433920, Note_on_c, 0, 51, 127
2, 433920, Note_on_c, 0, 44, 127
2, 434160, Note_off_c, 0, 56, 127
2, 434160, Note_off_c, 0, 51, 127
2, 434160, Note_off_c, 0, 44, 127
2, 434160, Note_on_c, 0, 55, 127
2, 434160, Note_on_c, 0, 50, 127
2, 434160, Note_on_c, 0, 43, 127
2, 434400, Note_off_c, 0, 55, 127
2, 434400, Note_off_c, 0, 50, 127
2, 434400, Note_off_c, 0, 43, 127
2, 435840, Note_on_c, 0, 55, 127
2, 435840, Note_on_c, 0, 50, 127
2, 435840, Note_on_c, 0, 43, 127
2, 436080, Note_off_c, 0, 55, 127
2, 436080, Note_off_c, 0, 50, 127
2, 436080, Note_off_c, 0, 43, 127
2, 436800, Note_on_c, 0, 56, 127
2, 436800, Note_on_c, 0, 51, 127
2, 436800, Note_on_c, 0, 44, 127
2, 437040, Note_off_c, 0, 56, 127
2, 437040, Note_off_c, 0, 51, 127
2, 437040, Note_off_c, 0, 44, 127
2, 437760, Note_on_c, 0, 50, 127
2, 437760, Note_on_c, 0, 45, 127
2, 441600, Note_off_c, 0, 50, 127
2, 441600, Note_off_c, 0, 45, 127
2, 441600, Note_on_c, 0, 50, 127
2, 441600, Note_on_c, 0, 45, 127
2, 441840, Note_off_c, 0, 50, 127
2, 441840, Note_off_c, 0, 45, 127
2, 441840, Note_on_c, 0, 51, 127
2, 441840, Note_on_c, 0, 46, 127
2, 442080, Note_off_c, 0, 51, 127
2, 442080, Note_off_c, 0, 46, 127
2, 443520, Note_on_c, 0, 51, 127
2, 443520, Note_on_c, 0, 46, 127
2, 443760, Note_off_c, 0, 51, 127
2, 443760, Note_off_c, 0, 46, 127
2, 443760, Note_on_c, 0, 50, 127
2, 443760, Note_on_c, 0, 45, 127
2, 444000, Note_off_c, 0, 50, 127
2, 444000, Note_off_c, 0, 45, 127
2, 444480, Note_on_c, 0, 50, 127
2, 444480, Note_on_c, 0, 45, 127
2, 444720, Note_off_c, 0, 50, 127
2, 444720, Note_off_c, 0, 45, 127
2, 444720, Note_on_c, 0, 51, 127
2, 444720, Note_on_c, 0, 46, 127
2, 444960, Note_off_c, 0, 51, 127
2, 444960, Note_off_c, 0, 46, 127
2, 446160, Note_on_c, 0, 71, 127
2, 446280, Note_off_c, 0, 71, 127
2, 446280, Note_on_c, 0, 73, 102
2, 446400, Note_off_c, 0, 73, 102
2, 446400, Note_on_c, 0, 74, 102
2, 446880, Note_off_c, 0, 74, 102
2, 447120, Note_on_c, 0, 73, 127
2, 447360, Note_off_c, 0, 73, 127
2, 447360, Note_on_c, 0, 74, 102
2, 448320, Note_off_c, 0, 74, 102
2, 449040, Note_on_c, 0, 71, 127
2, 449160, Note_off_c, 0, 71, 127
2, 449160, Note_on_c, 0, 73, 102
2, 449280, Note_off_c, 0, 73, 102
2, 449280, Note_on_c, 0, 74, 102
2, 449760, Note_off_c, 0, 74, 102
2, 450000, Note_on_c, 0, 73, 127
2, 450240, Note_off_c, 0, 73, 127
2, 450240, Note_on_c, 0, 74, 102
2, 451200, Note_off_c, 0, 74, 102
2, 451920, Note_on_c, 0, 71, 127
2, 452040, Note_off_c, 0, 71, 127
2, 452040, Note_on_c, 0, 73, 102
2, 452160, Note_off_c, 0, 73, 102
2, 452160, Note_on_c, 0, 74, 102
2, 452640, Note_off_c, 0, 74, 102
2, 452880, Note_on_c, 0, 71, 127
2, 453120, Note_off_c, 0, 71, 127
2, 453120, Note_on_c, 0, 73, 102
2, 454080, Note_off_c, 0, 73, 102
2, 454320, Note_on_c, 0, 69, 127
2, 454560, Note_off_c, 0, 69, 127
2, 454560, Note_on_c, 0, 66, 127
2, 454800, Note_off_c, 0, 66, 127
2, 454800, Note_on_c, 0, 69, 127
2, 455040, Note_off_c, 0, 69, 127
2, 455040, Note_on_c, 0, 76, 127
2, 455760, Note_off_c, 0, 76, 127
2, 455760, Note_on_c, 0, 70, 127
2, 455880, Note_off_c, 0, 70, 127
2, 455880, Note_on_c, 0, 76, 127
2, 456000, Note_off_c, 0, 76, 127
2, 456000, Note_on_c, 0, 73, 127
2, 456960, Note_off_c, 0, 73, 127
2, 457680, Note_on_c, 0, 71, 127
2, 457800, Note_off_c, 0, 71, 127
2, 457800, Note_on_c, 0, 73, 102
2, 457920, Note_off_c, 0, 73, 102
2, 457920, Note_on_c, 0, 74, 102
2, 458400, Note_off_c, 0, 74, 102
2, 458640, Note_on_c, 0, 73, 127
2, 458880, Note_off_c, 0, 73, 127
2, 458880, Note_on_c, 0, 74, 102
2, 459840, Note_off_c, 0, 74, 102
2, 460560, Note_on_c, 0, 71, 127
2, 460680, Note_off_c, 0, 71, 127
2, 460680, Note_on_c, 0, 73, 102
2, 460800, Note_off_c, 0, 73, 102
2, 460800, Note_on_c, 0, 74, 102
2, 461280, Note_off_c, 0, 74, 102
2, 461520, Note_on_c, 0, 73, 127
2, 461760, Note_off_c, 0, 73, 127
2, 461760, Note_on_c, 0, 74, 102
2, 462720, Note_off_c, 0, 74, 102
2, 463440, Note_on_c, 0, 71, 127
2, 463560, Note_off_c, 0, 71, 127
2, 463560, Note_on_c, 0, 73, 102
2, 463680, Note_off_c, 0, 73, 102
2, 463680, Note_on_c, 0, 74, 102
2, 464160, Note_off_c, 0, 74, 102
2, 464400, Note_on_c, 0, 71, 127
2, 464640, Note_off_c, 0, 71, 127
2, 464640, Note_on_c, 0, 73, 102
2, 465600, Note_off_c, 0, 73, 102
2, 465840, Note_on_c, 0, 69, 127
2, 466080, Note_off_c, 0, 69, 127
2, 466080, Note_on_c, 0, 66, 127
2, 466320, Note_off_c, 0, 66, 127
2, 466320, Note_on_c, 0, 69, 127
2, 466560, Note_off_c, 0, 69, 127
2, 466560, Note_on_c, 0, 76, 127
2, 467280, Note_off_c, 0, 76, 127
2, 467280, Note_on_c, 0, 70, 127
2, 467400, Note_off_c, 0, 70, 127
2, 467400, Note_on_c, 0, 76, 127
2, 467520, Note_off_c, 0, 76, 127
2, 467520, Note_on_c, 0, 73, 127
2, 468480, Note_off_c, 0, 73, 127
2, 469200, Note_on_c, 0, 71, 127
2, 469320, Note_off_c, 0, 71, 127
2, 469320, Note_on_c, 0, 73, 102
2, 469440, Note_off_c, 0, 73, 102
2, 469440, Note_on_c, 0, 74, 102
2, 469920, Note_off_c, 0, 74, 102
2, 470160, Note_on_c, 0, 73, 127
2, 470400, Note_off_c, 0, 73, 127
2, 470400, Note_on_c, 0, 74, 102
2, 471360, Note_off_c, 0, 74, 102
2, 472080, Note_on_c, 0, 71, 127
2, 472200, Note_off_c, 0, 71, 127
2, 472200, Note_on_c, 0, 73, 102
2, 472320, Note_off_c, 0, 73, 102
2, 472320, Note_on_c, 0, 74, 102
2, 472800, Note_off_c, 0, 74, 102
2, 473040, Note_on_c, 0, 73, 127
2, 473280, Note_off_c, 0, 73, 127
2, 473280, Note_on_c, 0, 74, 102
2, 474240, Note_off_c, 0, 74, 102
2, 474960, Note_on_c, 0, 71, 127
2, 475080, Note_off_c, 0, 71, 127
2, 475080, Note_on_c, 0, 73, 102
2, 475200, Note_off_c, 0, 73, 102
2, 475200, Note_on_c, 0, 74, 102
2, 475680, Note_off_c, 0, 74, 102
2, 475920, Note_on_c, 0, 71, 127
2, 476160, Note_off_c, 0, 71, 127
2, 476160, Note_on_c, 0, 73, 102
2, 477120, Note_off_c, 0, 73, 102
2, 477360, Note_on_c, 0, 69, 127
2, 477600, Note_off_c, 0, 69, 127
2, 477600, Note_on_c, 0, 66, 127
2, 477840, Note_off_c, 0, 66, 127
2, 477840, Note_on_c, 0, 69, 127
2, 478080, Note_off_c, 0, 69, 127
2, 478080, Note_on_c, 0, 76, 127
2, 478800, Note_off_c, 0, 76, 127
2, 478800, Note_on_c, 0, 70, 127
2, 478920, Note_off_c, 0, 70, 127
2, 478920, Note_on_c, 0, 76, 127
2, 479040, Note_off_c, 0, 76, 127
2, 479040, Note_on_c, 0, 73, 127
2, 480000, Note_off_c, 0, 73, 127
2, 480720, Note_on_c, 0, 71, 127
2, 480840, Note_off_c, 0, 71, 127
2, 480840, Note_on_c, 0, 73, 102
2, 480960, Note_off_c, 0, 73, 102
2, 480960, Note_on_c, 0, 74, 102
2, 481440, Note_off_c, 0, 74, 102
2, 481680, Note_on_c, 0, 73, 127
2, 481920, Note_off_c, 0, 73, 127
2, 481920, Note_on_c, 0, 74, 102
2, 482880, Note_off_c, 0, 74, 102
2, 483600, Note_on_c, 0, 71, 127
2, 483720, Note_off_c, 0, 71, 127
2, 483720, Note_on_c, 0, 73, 102
2, 483840, Note_off_c, 0, 73, 102
2, 483840, Note_on_c, 0, 74, 102
2, 484320, Note_off_c, 0, 74, 102
2, 484560, Note_on_c, 0, 73, 127
2, 484800, Note_off_c, 0, 73, 127
2, 484800, Note_on_c, 0, 74, 102
2, 485760, Note_off_c, 0, 74, 102
2, 486480, Note_on_c, 0, 71, 127
2, 486600, Note_off_c, 0, 71, 127
2, 486600, Note_on_c, 0, 73, 102
2, 486720, Note_off_c, 0, 73, 102
2, 486720, Note_on_c, 0, 74, 102
2, 487200, Note_off_c, 0, 74, 102
2, 487440, Note_on_c, 0, 71, 127
2, 487680, Note_off_c, 0, 71, 127
2, 487680, Note_on_c, 0, 73, 102
2, 488640, Note_off_c, 0, 73, 102
2, 488880, Note_on_c, 0, 69, 127
2, 489120, Note_off_c, 0, 69, 127
2, 489120, Note_on_c, 0, 66, 127
2, 489360, Note_off_c, 0, 66, 127
2, 489360, Note_on_c, 0, 69, 127
2, 489600, Note_off_c, 0, 69, 127
2, 489600, Note_on_c, 0, 76, 127
2, 490320, Note_off_c, 0, 76, 127
2, 490320, Note_on_c, 0, 70, 127
2, 490440, Note_off_c, 0, 70, 127
2, 490440, Note_on_c, 0, 76, 127
2, 490560, Note_off_c, 0, 76, 127
2, 490560, Note_on_c, 0, 73, 127
2, 491520, Note_off_c, 0, 73, 127
2, 495360, Note_on_c, 0, 76, 127
2, 496640, Note_off_c, 0, 76, 127
2, 496640, Note_on_c, 0, 73, 127
2, 496960, Note_off_c, 0, 73, 127
2, 496960, Note_on_c, 0, 65, 127
2, 497280, Note_off_c, 0, 65, 127
2, 497280, Note_on_c, 0, 77, 127
2, 497760, Note_off_c, 0, 77, 127
2, 497760, Note_on_c, 0, 74, 127
2, 498480, Note_off_c, 0, 74, 127
2, 498480, Note_on_c, 0, 71, 127
2, 498720, Note_off_c, 0, 71, 127
2, 498720, Note_on_c, 0, 73, 127
2, 498960, Note_off_c, 0, 73, 127
2, 498960, Note_on_c, 0, 74, 127
2, 499200, Note_off_c, 0, 74, 127
2, 499200, Note_on_c, 0, 76, 127
2, 499440, Note_off_c, 0, 76, 127
2, 499440, Note_on_c, 0, 77, 127
2, 499680, Note_off_c, 0, 77, 127
2, 499680, Note_on_c, 0, 79, 127
2, 499920, Note_off_c, 0, 79, 127
2, 499920, Note_on_c, 0, 81, 127
2, 500160, Note_off_c, 0, 81, 127
2, 500160, Note_on_c, 0, 82, 127
2, 500400, Note_off_c, 0, 82, 127
2, 500880, Note_on_c, 0, 80, 127
2, 501000, Note_off_c, 0, 80, 127
2, 501000, Note_on_c, 0, 76, 127
2, 501120, Note_off_c, 0, 76, 127
2, 501120, Note_on_c, 0, 74, 127
2, 505920, Note_off_c, 0, 74, 127
2, 505920, Note_on_c, 0, 71, 127
2, 506331, Note_off_c, 0, 71, 127
2, 506331, Note_on_c, 0, 73, 127
2, 506742, Note_off_c, 0, 73, 127
2, 506742, Note_on_c, 0, 74, 127
2, 507153, Note_off_c, 0, 74, 127
2, 507153, Note_on_c, 0, 76, 127
2, 507564, Note_off_c, 0, 76, 127
2, 507564, Note_on_c, 0, 78, 127
2, 507975, Note_off_c, 0, 78, 127
2, 507975, Note_on_c, 0, 80, 127
2, 508386, Note_off_c, 0, 80, 127
2, 508386, Note_on_c, 0, 81, 127
2, 508797, Note_off_c, 0, 81, 127
2, 508800, Note_on_c, 0, 79, 127
2, 510080, Note_off_c, 0, 79, 127
2, 510080, Note_on_c, 0, 80, 127
2, 510400, Note_off_c, 0, 80, 127
2, 510400, Note_on_c, 0, 77, 127
2, 510720, Note_off_c, 0, 77, 127
2, 510720, Note_on_c, 0, 76, 127
2, 514560, Note_off_c, 0, 76, 127
2, 515040, Note_on_c, 0, 75, 127
2, 515520, Note_off_c, 0, 75, 127
2, 515520, Note_on_c, 0, 73, 127
2, 515840, Note_off_c, 0, 73, 127
2, 515840, Note_on_c, 0, 72, 127
2, 516160, Note_off_c, 0, 72, 127
2, 516160, Note_on_c, 0, 70, 127
2, 516480, Note_off_c, 0, 70, 127
2, 516480, Note_on_c, 0, 68, 127
2, 516960, Note_off_c, 0, 68, 127
2, 516960, Note_on_c, 0, 66, 127
2, 517440, Note_off_c, 0, 66, 127
2, 517440, Note_on_c, 0, 65, 127
2, 517920, Note_off_c, 0, 65, 127
2, 517920, Note_on_c, 0, 67, 127
2, 518400, Note_off_c, 0, 67, 127
2, 518400, Note_on_c, 0, 69, 127
2, 518720, Note_off_c, 0, 69, 127
2, 518720, Note_on_c, 0, 70, 127
2, 519040, Note_off_c, 0, 70, 127
2, 519040, Note_on_c, 0, 72, 127
2, 519360, Note_off_c, 0, 72, 127
2, 519360, Note_on_c, 0, 73, 127
2, 519840, Note_off_c, 0, 73, 127
2, 519840, Note_on_c, 0, 75, 127
2, 520320, Note_off_c, 0, 75, 127
2, 520320, Note_on_c, 0, 76, 127
2, 523200, Note_off_c, 0, 76, 127
2, 523200, Note_on_c, 0, 73, 127
2, 525440, Note_off_c, 0, 73, 127
2, 525440, Note_on_c, 0, 72, 127
2, 525760, Note_off_c, 0, 72, 127
2, 525760, Note_on_c, 0, 70, 127
2, 526080, Note_off_c, 0, 70, 127
2, 526080, Note_on_c, 0, 72, 127
2, 531120, Note_off_c, 0, 72, 127
2, 531120, Note_on_c, 0, 75, 127
2, 531360, Note_off_c, 0, 75, 127
2, 531360, Note_on_c, 0, 73, 127
2, 531600, Note_off_c, 0, 73, 127
2, 531600, Note_on_c, 0, 69, 127
2, 531840, Note_off_c, 0, 69, 127
2, 531840, Note_on_c, 0, 76, 127
2, 533760, Note_off_c, 0, 76, 127
2, 533952, Note_on_c, 0, 78, 127
2, 534144, Note_off_c, 0, 78, 127
2, 534144, Note_on_c, 0, 80, 127
2, 534336, Note_off_c, 0, 80, 127
2, 534336, Note_on_c, 0, 75, 127
2, 534528, Note_off_c, 0, 75, 127
2, 534528, Note_on_c, 0, 73, 127
2, 534720, Note_off_c, 0, 73, 127
2, 534720, Note_on_c, 0, 72, 127
2, 535040, Note_off_c, 0, 72, 127
2, 535360, Note_on_c, 0, 72, 127
2, 535520, Note_off_c, 0, 72, 127
2, 535520, Note_on_c, 0, 73, 102
2, 535680, Note_off_c, 0, 73, 102
2, 535680, Note_on_c, 0, 72, 102
2, 540000, Note_off_c, 0, 72, 102
2, 540000, Note_on_c, 0, 71, 127
2, 540160, Note_off_c, 0, 71, 127
2, 540160, Note_on_c, 0, 71, 127
2, 540320, Note_off_c, 0, 71, 127
2, 540320, Note_on_c, 0, 74, 102
2, 540480, Note_off_c, 0, 74, 102
2, 540480, Note_on_c, 0, 69, 127
2, 541920, Note_off_c, 0, 69, 127
2, 541920, Note_on_c, 0, 71, 127
2, 546240, Note_off_c, 0, 71, 127
2, 546240, Note_on_c, 0, 72, 127
2, 546480, Note_off_c, 0, 72, 127
2, 546480, Note_on_c, 0, 71, 127
2, 546720, Note_off_c, 0, 71, 127
2, 546720, Note_on_c, 0, 71, 127
2, 546960, Note_off_c, 0, 71, 127
2, 546960, Note_on_c, 0, 67, 127
2, 547200, Note_off_c, 0, 67, 127
2, 547200, Note_on_c, 0, 67, 127
2, 547440, Note_off_c, 0, 67, 127
2, 547440, Note_on_c, 0, 69, 127
2, 547680, Note_off_c, 0, 69, 127
2, 547680, Note_on_c, 0, 65, 127
2, 547920, Note_off_c, 0, 65, 127
2, 547920, Note_on_c, 0, 76, 127
2, 548160, Note_off_c, 0, 76, 127
2, 548160, Note_on_c, 0, 74, 127
2, 548400, Note_off_c, 0, 74, 127
2, 548400, Note_on_c, 0, 69, 127
2, 548640, Note_off_c, 0, 69, 127
2, 548640, Note_on_c, 0, 72, 127
2, 548880, Note_off_c, 0, 72, 127
2, 548880, Note_on_c, 0, 71, 127
2, 549120, Note_off_c, 0, 71, 127
2, 549120, Note_on_c, 0, 71, 127
2, 549312, Note_off_c, 0, 71, 127
2, 549312, Note_on_c, 0, 69, 127
2, 549504, Note_off_c, 0, 69, 127
2, 549504, Note_on_c, 0, 69, 127
2, 549696, Note_off_c, 0, 69, 127
2, 549696, Note_on_c, 0, 64, 127
2, 549888, Note_off_c, 0, 64, 127
2, 549888, Note_on_c, 0, 72, 127
2, 550080, Note_off_c, 0, 72, 127
2, 550080, Note_on_c, 0, 71, 127
2, 550400, Note_off_c, 0, 71, 127
2, 550720, Note_on_c, 0, 71, 127
2, 551040, Note_off_c, 0, 71, 127
2, 551360, Note_on_c, 0, 69, 127
2, 551680, Note_off_c, 0, 69, 127
2, 552000, Note_on_c, 0, 72, 127
2, 552320, Note_off_c, 0, 72, 127
2, 552320, Note_on_c, 0, 74, 127
2, 552480, Note_off_c, 0, 74, 127
2, 552480, Note_on_c, 0, 71, 127
2, 556800, Note_off_c, 0, 71, 127
2, 556992, Note_on_c, 0, 72, 127
2, 557184, Note_off_c, 0, 72, 127
2, 557184, Note_on_c, 0, 72, 127
2, 557376, Note_off_c, 0, 72, 127
2, 557376, Note_on_c, 0, 74, 127
2, 557568, Note_off_c, 0, 74, 127
2, 557568, Note_on_c, 0, 69, 127
2, 557760, Note_off_c, 0, 69, 127
2, 557760, Note_on_c, 0, 67, 127
2, 558720, Note_off_c, 0, 67, 127
2, 559104, Note_on_c, 0, 64, 127
2, 559488, Note_off_c, 0, 64, 127
2, 559488, Note_on_c, 0, 65, 127
2, 559840, Note_off_c, 0, 65, 127
2, 559840, Note_on_c, 0, 62, 127
2, 560000, Note_off_c, 0, 62, 127
2, 560000, Note_on_c, 0, 64, 127
2, 560160, Note_off_c, 0, 64, 127
2, 560160, Note_on_c, 0, 65, 127
2, 560320, Note_off_c, 0, 65, 127
2, 560320, Note_on_c, 0, 67, 127
2, 560480, Note_off_c, 0, 67, 127
2, 560480, Note_on_c, 0, 69, 127
2, 560640, Note_off_c, 0, 69, 127
2, 560640, Note_on_c, 0, 70, 127
2, 564000, Note_off_c, 0, 70, 127
2, 564000, Note_on_c, 0, 72, 127
2, 564480, Note_off_c, 0, 72, 127
2, 564480, Note_on_c, 0, 73, 127
2, 564960, Note_off_c, 0, 73, 127
2, 564960, Note_on_c, 0, 75, 127
2, 565440, Note_off_c, 0, 75, 127
2, 565440, Note_on_c, 0, 77, 127
2, 565680, Note_off_c, 0, 77, 127
2, 565680, Note_on_c, 0, 78, 127
2, 565920, Note_off_c, 0, 78, 127
2, 565920, Note_on_c, 0, 80, 127
2, 566160, Note_off_c, 0, 80, 127
2, 566160, Note_on_c, 0, 82, 127
2, 566400, Note_off_c, 0, 82, 127
2, 566400, Note_on_c, 0, 82, 127
2, 566720, Note_off_c, 0, 82, 127
2, 567040, Note_on_c, 0, 80, 127
2, 567360, Note_off_c, 0, 80, 127
2, 567680, Note_on_c, 0, 79, 127
2, 568000, Note_off_c, 0, 79, 127
2, 568320, Note_on_c, 0, 77, 127
2, 568512, Note_off_c, 0, 77, 127
2, 568512, Note_on_c, 0, 75, 127
2, 568704, Note_off_c, 0, 75, 127
2, 568704, Note_on_c, 0, 73, 127
2, 568896, Note_off_c, 0, 73, 127
2, 568896, Note_on_c, 0, 71, 127
2, 569088, Note_off_c, 0, 71, 127
2, 569088, Note_on_c, 0, 70, 127
2, 569280, Note_off_c, 0, 70, 127
2, 569280, Note_on_c, 0, 71, 127
2, 572640, Note_off_c, 0, 71, 127
2, 572640, Note_on_c, 0, 70, 127
2, 573120, Note_off_c, 0, 70, 127
2, 573120, Note_on_c, 0, 68, 127
2, 573440, Note_off_c, 0, 68, 127
2, 573440, Note_on_c, 0, 67, 127
2, 573760, Note_off_c, 0, 67, 127
2, 573760, Note_on_c, 0, 65, 127
2, 574080, Note_off_c, 0, 65, 127
2, 574080, Note_on_c, 0, 63, 127
2, 574560, Note_off_c, 0, 63, 127
2, 574560, Note_on_c, 0, 61, 127
2, 575040, Note_off_c, 0, 61, 127
2, 575040, Note_on_c, 0, 59, 127
2, 575520, Note_off_c, 0, 59, 127
2, 575520, Note_on_c, 0, 61, 127
2, 576000, Note_off_c, 0, 61, 127
2, 576000, Note_on_c, 0, 63, 127
2, 576320, Note_off_c, 0, 63, 127
2, 576320, Note_on_c, 0, 65, 127
2, 576640, Note_off_c, 0, 65, 127
2, 576640, Note_on_c, 0, 67, 127
2, 576960, Note_off_c, 0, 67, 127
2, 576960, Note_on_c, 0, 68, 127
2, 577440, Note_off_c, 0, 68, 127
2, 577440, Note_on_c, 0, 70, 127
2, 577920, Note_off_c, 0, 70, 127
2, 577920, Note_on_c, 0, 72, 127
2, 578080, Note_off_c, 0, 72, 127
2, 578080, Note_on_c, 0, 73, 127
2, 578240, Note_off_c, 0, 73, 127
2, 578240, Note_on_c, 0, 75, 127
2, 578400, Note_off_c, 0, 75, 127
2, 578400, Note_on_c, 0, 77, 127
2, 578560, Note_off_c, 0, 77, 127
2, 578560, Note_on_c, 0, 78, 127
2, 578720, Note_off_c, 0, 78, 127
2, 578720, Note_on_c, 0, 80, 127
2, 578880, Note_off_c, 0, 80, 127
2, 578880, Note_on_c, 0, 82, 127
2, 581040, Note_off_c, 0, 82, 127
2, 581040, Note_on_c, 0, 80, 127
2, 581280, Note_off_c, 0, 80, 127
2, 581280, Note_on_c, 0, 78, 127
2, 581520, Note_off_c, 0, 78, 127
2, 581520, Note_on_c, 0, 77, 127
2, 581760, Note_off_c, 0, 77, 127
2, 581760, Note_on_c, 0, 75, 127
2, 582080, Note_off_c, 0, 75, 127
2, 582080, Note_on_c, 0, 73, 127
2, 582400, Note_off_c, 0, 73, 127
2, 582400, Note_on_c, 0, 71, 127
2, 582720, Note_off_c, 0, 71, 127
2, 582720, Note_on_c, 0, 71, 127
2, 582840, Note_off_c, 0, 71, 127
2, 582840, Note_on_c, 0, 68, 127
2, 582960, Note_off_c, 0, 68, 127
2, 582960, Note_on_c, 0, 71, 127
2, 583080, Note_off_c, 0, 71, 127
2, 583080, Note_on_c, 0, 68, 127
2, 583200, Note_off_c, 0, 68, 127
2, 583200, Note_on_c, 0, 67, 127
2, 586560, Note_off_c, 0, 67, 127
2, 586560, Note_on_c, 0, 71, 127
2, 586800, Note_off_c, 0, 71, 127
2, 586800, Note_on_c, 0, 72, 127
2, 587040, Note_off_c, 0, 72, 127
2, 587040, Note_on_c, 0, 74, 127
2, 587280, Note_off_c, 0, 74, 127
2, 587280, Note_on_c, 0, 75, 127
2, 587520, Note_off_c, 0, 75, 127
2, 587520, Note_on_c, 0, 77, 127
2, 587760, Note_off_c, 0, 77, 127
2, 587760, Note_on_c, 0, 79, 127
2, 588000, Note_off_c, 0, 79, 127
2, 588000, Note_on_c, 0, 80, 127
2, 588240, Note_off_c, 0, 80, 127
2, 588240, Note_on_c, 0, 79, 127
2, 588480, Note_off_c, 0, 79, 127
2, 588480, Note_on_c, 0, 77, 127
2, 588720, Note_off_c, 0, 77, 127
2, 588720, Note_on_c, 0, 75, 127
2, 588960, Note_off_c, 0, 75, 127
2, 588960, Note_on_c, 0, 74, 127
2, 589200, Note_off_c, 0, 74, 127
2, 589200, Note_on_c, 0, 72, 127
2, 589440, Note_off_c, 0, 72, 127
2, 589440, Note_on_c, 0, 71, 127
2, 592320, Note_off_c, 0, 71, 127
2, 592320, Note_on_c, 0, 70, 127
2, 592581, Note_off_c, 0, 70, 127
2, 592581, Note_on_c, 0, 65, 127
2, 592842, Note_off_c, 0, 65, 127
2, 592842, Note_on_c, 0, 65, 127
2, 593103, Note_off_c, 0, 65, 127
2, 593103, Note_on_c, 0, 65, 127
2, 593364, Note_off_c, 0, 65, 127
2, 593364, Note_on_c, 0, 69, 127
2, 593625, Note_off_c, 0, 69, 127
2, 593625, Note_on_c, 0, 67, 127
2, 593886, Note_off_c, 0, 67, 127
2, 593886, Note_on_c, 0, 72, 127
2, 594147, Note_off_c, 0, 72, 127
2, 594147, Note_on_c, 0, 72, 127
2, 594408, Note_off_c, 0, 72, 127
2, 594408, Note_on_c, 0, 72, 127
2, 594669, Note_off_c, 0, 72, 127
2, 594669, Note_on_c, 0, 67, 127
2, 594930, Note_off_c, 0, 67, 127
2, 594930, Note_on_c, 0, 69, 127
2, 595191, Note_off_c, 0, 69, 127
2, 595200, Note_on_c, 0, 69, 127
2, 595488, Note_off_c, 0, 69, 127
2, 595776, Note_on_c, 0, 72, 127
2, 596064, Note_off_c, 0, 72, 127
2, 596352, Note_on_c, 0, 74, 127
2, 596640, Note_off_c, 0, 74, 127
2, 596928, Note_on_c, 0, 67, 127
2, 597216, Note_off_c, 0, 67, 127
2, 597504, Note_on_c, 0, 70, 127
2, 597792, Note_off_c, 0, 70, 127
2, 598080, Note_on_c, 0, 69, 127
2, 600000, Note_off_c, 0, 69, 127
2, 600160, Note_on_c, 0, 70, 127
2, 600320, Note_off_c, 0, 70, 127
2, 600320, Note_on_c, 0, 70, 127
2, 600480, Note_off_c, 0, 70, 127
2, 600480, Note_on_c, 0, 67, 127
2, 600640, Note_off_c, 0, 67, 127
2, 600640, Note_on_c, 0, 67, 127
2, 600800, Note_off_c, 0, 67, 127
2, 600800, Note_on_c, 0, 70, 127
2, 600960, Note_off_c, 0, 70, 127
2, 600960, Note_on_c, 0, 69, 127
2, 602160, Note_off_c, 0, 69, 127
2, 602160, Note_on_c, 0, 62, 127
2, 602400, Note_off_c, 0, 62, 127
2, 602400, Note_on_c, 0, 64, 127
2, 602640, Note_off_c, 0, 64, 127
2, 602640, Note_on_c, 0, 65, 127
2, 602880, Note_off_c, 0, 65, 127
2, 602880, Note_on_c, 0, 67, 127
2, 603120, Note_off_c, 0, 67, 127
2, 603120, Note_on_c, 0, 69, 127
2, 603360, Note_off_c, 0, 69, 127
2, 603360, Note_on_c, 0, 70, 127
2, 603600, Note_off_c, 0, 70, 127
2, 603600, Note_on_c, 0, 72, 127
2, 603840, Note_off_c, 0, 72, 127
2, 603840, Note_on_c, 0, 74, 127
2, 604032, Note_off_c, 0, 74, 127
2, 604032, Note_on_c, 0, 76, 127
2, 604224, Note_off_c, 0, 76, 127
2, 604224, Note_on_c, 0, 77, 127
2, 604416, Note_off_c, 0, 77, 127
2, 604416, Note_on_c, 0, 79, 127
2, 604608, Note_off_c, 0, 79, 127
2, 604608, Note_on_c, 0, 81, 127
2, 604800, Note_off_c, 0, 81, 127
2, 604800, Note_on_c, 0, 83, 127
2, 608640, Note_off_c, 0, 83, 127
2, 609792, Note_on_c, 0, 81, 127
2, 609984, Note_off_c, 0, 81, 127
2, 609984, Note_on_c, 0, 83, 127
2, 610176, Note_off_c, 0, 83, 127
2, 610176, Note_on_c, 0, 78, 127
2, 610368, Note_off_c, 0, 78, 127
2, 610368, Note_on_c, 0, 80, 127
2, 610560, Note_off_c, 0, 80, 127
2, 610560, Note_on_c, 0, 73, 127
2, 612480, Note_off_c, 0, 73, 127
2, 612480, Note_on_c, 0, 85, 127
2, 612720, Note_off_c, 0, 85, 127
2, 612720, Note_on_c, 0, 83, 127
2, 612960, Note_off_c, 0, 83, 127
2, 612960, Note_on_c, 0, 81, 127
2, 613200, Note_off_c, 0, 81, 127
2, 613200, Note_on_c, 0, 80, 127
2, 613440, Note_off_c, 0, 80, 127
2, 613440, Note_on_c, 0, 78, 127
2, 613680, Note_off_c, 0, 78, 127
2, 613680, Note_on_c, 0, 76, 127
2, 613920, Note_off_c, 0, 76, 127
2, 613920, Note_on_c, 0, 75, 127
2, 614160, Note_off_c, 0, 75, 127
2, 614160, Note_on_c, 0, 73, 127
2, 614400, Note_off_c, 0, 73, 127
2, 614400, Note_on_c, 0, 71, 127
2, 614640, Note_off_c, 0, 71, 127
2, 614640, Note_on_c, 0, 69, 127
2, 614880, Note_off_c, 0, 69, 127
2, 614880, Note_on_c, 0, 68, 127
2, 615120, Note_off_c, 0, 68, 127
2, 615120, Note_on_c, 0, 66, 127
2, 615360, Note_off_c, 0, 66, 127
2, 615360, Note_on_c, 0, 65, 127
2, 617280, Note_off_c, 0, 65, 127
2, 617520, Note_on_c, 0, 67, 127
2, 617760, Note_off_c, 0, 67, 127
2, 617760, Note_on_c, 0, 68, 127
2, 618000, Note_off_c, 0, 68, 127
2, 618000, Note_on_c, 0, 70, 127
2, 618240, Note_off_c, 0, 70, 127
2, 618240, Note_on_c, 0, 67, 127
2, 619200, Note_off_c, 0, 67, 127
2, 619680, Note_on_c, 0, 67, 127
2, 621120, Note_off_c, 0, 67, 127
2, 621360, Note_on_c, 0, 63, 127
2, 621600, Note_off_c, 0, 63, 127
2, 621600, Note_on_c, 0, 66, 127
2, 621840, Note_off_c, 0, 66, 127
2, 621840, Note_on_c, 0, 58, 127
2, 622080, Note_off_c, 0, 58, 127
2, 622080, Note_on_c, 0, 60, 127
2, 622320, Note_off_c, 0, 60, 127
2, 622320, Note_on_c, 0, 64, 127
2, 622560, Note_off_c, 0, 64, 127
2, 622560, Note_on_c, 0, 68, 127
2, 622800, Note_off_c, 0, 68, 127
2, 622800, Note_on_c, 0, 60, 127
2, 623040, Note_off_c, 0, 60, 127
2, 623040, Note_on_c, 0, 65, 127
2, 624960, Note_off_c, 0, 65, 127
2, 625440, Note_on_c, 0, 65, 127
2, 625600, Note_off_c, 0, 65, 127
2, 625600, Note_on_c, 0, 65, 127
2, 625760, Note_off_c, 0, 65, 127
2, 625760, Note_on_c, 0, 65, 127
2, 625920, Note_off_c, 0, 65, 127
2, 625920, Note_on_c, 0, 65, 127
2, 626160, Note_off_c, 0, 65, 127
2, 626160, Note_on_c, 0, 65, 127
2, 626400, Note_off_c, 0, 65, 127
2, 626400, Note_on_c, 0, 65, 127
2, 626640, Note_off_c, 0, 65, 127
2, 626640, Note_on_c, 0, 65, 127
2, 626880, Note_off_c, 0, 65, 127
2, 626880, Note_on_c, 0, 65, 127
2, 627840, Note_off_c, 0, 65, 127
2, 628320, Note_on_c, 0, 67, 127
2, 628560, Note_off_c, 0, 67, 127
2, 628560, Note_on_c, 0, 69, 127
2, 628800, Note_off_c, 0, 69, 127
2, 628800, Note_on_c, 0, 71, 127
2, 629040, Note_off_c, 0, 71, 127
2, 629040, Note_on_c, 0, 72, 127
2, 629280, Note_off_c, 0, 72, 127
2, 629280, Note_on_c, 0, 74, 127
2, 629520, Note_off_c, 0, 74, 127
2, 629520, Note_on_c, 0, 76, 127
2, 629760, Note_off_c, 0, 76, 127
2, 629760, Note_on_c, 0, 76, 127
2, 630000, Note_off_c, 0, 76, 127
2, 630000, Note_on_c, 0, 72, 127
2, 630240, Note_off_c, 0, 72, 127
2, 630240, Note_on_c, 0, 71, 127
2, 630480, Note_off_c, 0, 71, 127
2, 630480, Note_on_c, 0, 67, 127
2, 630720, Note_off_c, 0, 67, 127
2, 630720, Note_on_c, 0, 65, 127
2, 630960, Note_off_c, 0, 65, 127
2, 630960, Note_on_c, 0, 72, 127
2, 631200, Note_off_c, 0, 72, 127
2, 631200, Note_on_c, 0, 71, 127
2, 631440, Note_off_c, 0, 71, 127
2, 631440, Note_on_c, 0, 67, 127
2, 631680, Note_off_c, 0, 67, 127
2, 631680, Note_on_c, 0, 64, 127
2, 631872, Note_off_c, 0, 64, 127
2, 631872, Note_on_c, 0, 59, 127
2, 632064, Note_off_c, 0, 59, 127
2, 632064, Note_on_c, 0, 62, 127
2, 632256, Note_off_c, 0, 62, 127
2, 632256, Note_on_c, 0, 67, 127
2, 632448, Note_off_c, 0, 67, 127
2, 632448, Note_on_c, 0, 64, 127
2, 632640, Note_off_c, 0, 64, 127
2, 632640, Note_on_c, 0, 66, 127
2, 632960, Note_off_c, 0, 66, 127
2, 633280, Note_on_c, 0, 66, 127
2, 633600, Note_off_c, 0, 66, 127
2, 633984, Note_on_c, 0, 66, 127
2, 634176, Note_off_c, 0, 66, 127
2, 634176, Note_on_c, 0, 66, 127
2, 634368, Note_off_c, 0, 66, 127
2, 634368, Note_on_c, 0, 66, 127
2, 634560, Note_off_c, 0, 66, 127
2, 634560, Note_on_c, 0, 66, 127
2, 638400, Note_off_c, 0, 66, 127
2, 638720, Note_on_c, 0, 66, 127
2, 638880, Note_off_c, 0, 66, 127
2, 638880, Note_on_c, 0, 66, 127
2, 639040, Note_off_c, 0, 66, 127
2, 639040, Note_on_c, 0, 66, 127
2, 639200, Note_off_c, 0, 66, 127
2, 639200, Note_on_c, 0, 66, 127
2, 639360, Note_off_c, 0, 66, 127
2, 639360, Note_on_c, 0, 66, 127
2, 639634, Note_off_c, 0, 66, 127
2, 639634, Note_on_c, 0, 68, 127
2, 639908, Note_off_c, 0, 68, 127
2, 639908, Note_on_c, 0, 69, 127
2, 640182, Note_off_c, 0, 69, 127
2, 640182, Note_on_c, 0, 71, 127
2, 640456, Note_off_c, 0, 71, 127
2, 640456, Note_on_c, 0, 72, 127
2, 640730, Note_off_c, 0, 72, 127
2, 640730, Note_on_c, 0, 74, 127
2, 641004, Note_off_c, 0, 74, 127
2, 641004, Note_on_c, 0, 75, 127
2, 641278, Note_off_c, 0, 75, 127
2, 641280, Note_on_c, 0, 78, 127
2, 642240, Note_off_c, 0, 78, 127
2, 642480, Note_on_c, 0, 74, 127
2, 642720, Note_off_c, 0, 74, 127
2, 642720, Note_on_c, 0, 69, 127
2, 642960, Note_off_c, 0, 69, 127
2, 642960, Note_on_c, 0, 67, 127
2, 643200, Note_off_c, 0, 67, 127
2, 643200, Note_on_c, 0, 74, 127
2, 643360, Note_off_c, 0, 74, 127
2, 643360, Note_on_c, 0, 75, 127
2, 643520, Note_off_c, 0, 75, 127
2, 643520, Note_on_c, 0, 70, 127
2, 643680, Note_off_c, 0, 70, 127
2, 643680, Note_on_c, 0, 69, 127
2, 645600, Note_off_c, 0, 69, 127
2, 645760, Note_on_c, 0, 67, 127
2, 645920, Note_off_c, 0, 67, 127
2, 645920, Note_on_c, 0, 70, 127
2, 646080, Note_off_c, 0, 70, 127
2, 646080, Note_on_c, 0, 69, 127
2, 648960, Note_off_c, 0, 69, 127
2, 651840, Note_on_c, 0, 65, 127
2, 651977, Note_off_c, 0, 65, 127
2, 651977, Note_on_c, 0, 67, 127
2, 652114, Note_off_c, 0, 67, 127
2, 652114, Note_on_c, 0, 67, 127
2, 652251, Note_off_c, 0, 67, 127
2, 652251, Note_on_c, 0, 72, 127
2, 652388, Note_off_c, 0, 72, 127
2, 652388, Note_on_c, 0, 70, 127
2, 652525, Note_off_c, 0, 70, 127
2, 652525, Note_on_c, 0, 67, 127
2, 652662, Note_off_c, 0, 67, 127
2, 652662, Note_on_c, 0, 62, 127
2, 652799, Note_off_c, 0, 62, 127
2, 652800, Note_on_c, 0, 64, 127
2, 653760, Note_off_c, 0, 64, 127
2, 654336, Note_on_c, 0, 67, 127
2, 654528, Note_off_c, 0, 67, 127
2, 654528, Note_on_c, 0, 74, 127
2, 654720, Note_off_c, 0, 74, 127
2, 654720, Note_on_c, 0, 71, 127
2, 654912, Note_off_c, 0, 71, 127
2, 654912, Note_on_c, 0, 72, 127
2, 655104, Note_off_c, 0, 72, 127
2, 655104, Note_on_c, 0, 76, 127
2, 655296, Note_off_c, 0, 76, 127
2, 655296, Note_on_c, 0, 77, 127
2, 655488, Note_off_c, 0, 77, 127
2, 655488, Note_on_c, 0, 74, 127
2, 655680, Note_off_c, 0, 74, 127
2, 655680, Note_on_c, 0, 72, 127
2, 655800, Note_off_c, 0, 72, 127
2, 655800, Note_on_c, 0, 77, 127
2, 655920, Note_off_c, 0, 77, 127
2, 655920, Note_on_c, 0, 76, 127
2, 656040, Note_off_c, 0, 76, 127
2, 656040, Note_on_c, 0, 72, 127
2, 656160, Note_off_c, 0, 72, 127
2, 656160, Note_on_c, 0, 76, 127
2, 658560, Note_off_c, 0, 76, 127
2, 661760, Note_on_c, 0, 76, 127
2, 662080, Note_off_c, 0, 76, 127
2, 662080, Note_on_c, 0, 76, 127
2, 662400, Note_off_c, 0, 76, 127
2, 662400, Note_on_c, 0, 76, 127
2, 662720, Note_off_c, 0, 76, 127
2, 663040, Note_on_c, 0, 76, 127
2, 663360, Note_off_c, 0, 76, 127
2, 663680, Note_on_c, 0, 76, 127
2, 664000, Note_off_c, 0, 76, 127
2, 664320, Note_on_c, 0, 76, 127
2, 664457, Note_off_c, 0, 76, 127
2, 664457, Note_on_c, 0, 74, 127
2, 664594, Note_off_c, 0, 74, 127
2, 664594, Note_on_c, 0, 71, 127
2, 664731, Note_off_c, 0, 71, 127
2, 664731, Note_on_c, 0, 76, 127
2, 664868, Note_off_c, 0, 76, 127
2, 664868, Note_on_c, 0, 74, 127
2, 665005, Note_off_c, 0, 74, 127
2, 665005, Note_on_c, 0, 76, 127
2, 665142, Note_off_c, 0, 76, 127
2, 665142, Note_on_c, 0, 77, 127
2, 665279, Note_off_c, 0, 77, 127
2, 665279, Note_on_c, 0, 68, 127
2, 666239, Note_off_c, 0, 68, 127
2, 666959, Note_on_c, 0, 68, 127
2, 667079, Note_off_c, 0, 68, 127
2, 667079, Note_on_c, 0, 69, 127
2, 667199, Note_off_c, 0, 69, 127
2, 667200, Note_on_c, 0, 74, 127
2, 667520, Note_off_c, 0, 74, 127
2, 667520, Note_on_c, 0, 71, 127
2, 667840, Note_off_c, 0, 71, 127
2, 667840, Note_on_c, 0, 72, 127
2, 668160, Note_off_c, 0, 72, 127
2, 668160, Note_on_c, 0, 76, 127
2, 668480, Note_off_c, 0, 76, 127
2, 668480, Note_on_c, 0, 77, 127
2, 668800, Note_off_c, 0, 77, 127
2, 668800, Note_on_c, 0, 74, 127
2, 669120, Note_off_c, 0, 74, 127
2, 669120, Note_on_c, 0, 76, 127
2, 672000, Note_off_c, 0, 76, 127
2, 672480, Note_on_c, 0, 76, 127
2, 672640, Note_off_c, 0, 76, 127
2, 672640, Note_on_c, 0, 77, 127
2, 672800, Note_off_c, 0, 77, 127
2, 672800, Note_on_c, 0, 76, 127
2, 672960, Note_off_c, 0, 76, 127
2, 672960, Note_on_c, 0, 74, 127
2, 673120, Note_off_c, 0, 74, 127
2, 673120, Note_on_c, 0, 76, 127
2, 673280, Note_off_c, 0, 76, 127
2, 673280, Note_on_c, 0, 77, 127
2, 673440, Note_off_c, 0, 77, 127
2, 673440, Note_on_c, 0, 79, 127
2, 673600, Note_off_c, 0, 79, 127
2, 673600, Note_on_c, 0, 81, 127
2, 673760, Note_off_c, 0, 81, 127
2, 673760, Note_on_c, 0, 76, 127
2, 673920, Note_off_c, 0, 76, 127
2, 673920, Note_on_c, 0, 76, 127
2, 674080, Note_off_c, 0, 76, 127
2, 674080, Note_on_c, 0, 77, 127
2, 674240, Note_off_c, 0, 77, 127
2, 674240, Note_on_c, 0, 79, 127
2, 674400, Note_off_c, 0, 79, 127
2, 674400, Note_on_c, 0, 74, 127
2, 674560, Note_off_c, 0, 74, 127
2, 674560, Note_on_c, 0, 76, 127
2, 674720, Note_off_c, 0, 76, 127
2, 674720, Note_on_c, 0, 77, 127
2, 674880, Note_off_c, 0, 77, 127
2, 674880, Note_on_c, 0, 79, 127
2, 675040, Note_off_c, 0, 79, 127
2, 675040, Note_on_c, 0, 81, 127
2, 675200, Note_off_c, 0, 81, 127
2, 675200, Note_on_c, 0, 76, 127
2, 675360, Note_off_c, 0, 76, 127
2, 675360, Note_on_c, 0, 76, 127
2, 675520, Note_off_c, 0, 76, 127
2, 675520, Note_on_c, 0, 77, 127
2, 675680, Note_off_c, 0, 77, 127
2, 675680, Note_on_c, 0, 79, 127
2, 675840, Note_off_c, 0, 79, 127
2, 675840, Note_on_c, 0, 82, 127
2, 676320, Note_off_c, 0, 82, 127
2, 677280, Note_on_c, 0, 81, 127
2, 677760, Note_off_c, 0, 81, 127
2, 678720, Note_on_c, 0, 74, 127
2, 679200, Note_off_c, 0, 74, 127
2, 679680, Note_on_c, 0, 69, 127
2, 680160, Note_off_c, 0, 69, 127
2, 680640, Note_on_c, 0, 74, 127
2, 681120, Note_off_c, 0, 74, 127
2, 681600, Note_on_c, 0, 79, 127
2, 682080, Note_off_c, 0, 79, 127
2, 682560, Note_on_c, 0, 76, 127
2, 683040, Note_off_c, 0, 76, 127
2, 683520, Note_on_c, 0, 72, 127
2, 684000, Note_off_c, 0, 72, 127
2, 684480, Note_on_c, 0, 69, 127
2, 685920, Note_off_c, 0, 69, 127
2, 685920, Note_on_c, 0, 76, 127
2, 687360, Note_off_c, 0, 76, 127
2, 687360, Note_on_c, 0, 75, 127
2, 687840, Note_off_c, 0, 75, 127
2, 687840, Note_on_c, 0, 68, 127
2, 688320, Note_off_c, 0, 68, 127
2, 688320, Note_on_c, 0, 61, 127
2, 688800, Note_off_c, 0, 61, 127
2, 688800, Note_on_c, 0, 60, 127
2, 689280, Note_off_c, 0, 60, 127
2, 689280, Note_on_c, 0, 61, 127
2, 689760, Note_off_c, 0, 61, 127
2, 689760, Note_on_c, 0, 68, 127
2, 690240, Note_off_c, 0, 68, 127
2, 690240, Note_on_c, 0, 64, 127
2, 690720, Note_off_c, 0, 64, 127
2, 690720, Note_on_c, 0, 66, 127
2, 691200, Note_off_c, 0, 66, 127
2, 691200, Note_on_c, 0, 67, 127
2, 691680, Note_off_c, 0, 67, 127
2, 691680, Note_on_c, 0, 72, 127
2, 692160, Note_off_c, 0, 72, 127
2, 692160, Note_on_c, 0, 72, 127
2, 692400, Note_off_c, 0, 72, 127
2, 692640, Note_on_c, 0, 72, 127
2, 692880, Note_off_c, 0, 72, 127
2, 693120, Note_on_c, 0, 72, 127
2, 696960, Note_off_c, 0, 72, 127
2, 696960, End_track
3, 0, Start_track
3, 0, Pitch_bend_c, 1, 8192
3, 0, Control_c, 1, 7, 103
3, 0, Control_c, 1, 10, 63
3, 0, Control_c, 1, 93, 0
3, 0, Control_c, 1, 91, 0
3, 0, Control_c, 1, 95, 0
3, 0, Control_c, 1, 92, 0
3, 0, Control_c, 1, 11, 127
3, 0, Program_c, 1, 0
3, 0, Note_on_c, 1, 49, 127
3, 480, Note_off_c, 1, 49, 127
3, 480, Note_on_c, 1, 61, 127
3, 960, Note_off_c, 1, 61, 127
3, 960, Note_on_c, 1, 64, 127
3, 1440, Note_off_c, 1, 64, 127
3, 1440, Note_on_c, 1, 67, 127
3, 1920, Note_off_c, 1, 67, 127
3, 1920, Note_on_c, 1, 75, 127
3, 2400, Note_off_c, 1, 75, 127
3, 2400, Note_on_c, 1, 70, 127
3, 2880, Note_off_c, 1, 70, 127
3, 2880, Note_on_c, 1, 72, 127
3, 5760, Note_off_c, 1, 72, 127
3, 5760, Note_on_c, 1, 49, 127
3, 6240, Note_off_c, 1, 49, 127
3, 6240, Note_on_c, 1, 61, 127
3, 6720, Note_off_c, 1, 61, 127
3, 6720, Note_on_c, 1, 64, 127
3, 7200, Note_off_c, 1, 64, 127
3, 7200, Note_on_c, 1, 67, 127
3, 7680, Note_off_c, 1, 67, 127
3, 7680, Note_on_c, 1, 75, 127
3, 8160, Note_off_c, 1, 75, 127
3, 8160, Note_on_c, 1, 70, 127
3, 8640, Note_off_c, 1, 70, 127
3, 8640, Note_on_c, 1, 72, 127
3, 11520, Note_off_c, 1, 72, 127
3, 11520, Note_on_c, 1, 48, 127
3, 12000, Note_off_c, 1, 48, 127
3, 12000, Note_on_c, 1, 60, 127
3, 12480, Note_off_c, 1, 60, 127
3, 12480, Note_on_c, 1, 63, 127
3, 12960, Note_off_c, 1, 63, 127
3, 12960, Note_on_c, 1, 70, 127
3, 13440, Note_off_c, 1, 70, 127
3, 13440, Note_on_c, 1, 77, 127
3, 13920, Note_off_c, 1, 77, 127
3, 13920, Note_on_c, 1, 66, 127
3, 14400, Note_off_c, 1, 66, 127
3, 14400, Note_on_c, 1, 74, 127
3, 17280, Note_off_c, 1, 74, 127
3, 17280, Note_on_c, 1, 48, 127
3, 17760, Note_off_c, 1, 48, 127
3, 17760, Note_on_c, 1, 60, 127
3, 18240, Note_off_c, 1, 60, 127
3, 18240, Note_on_c, 1, 63, 127
3, 18720, Note_off_c, 1, 63, 127
3, 18720, Note_on_c, 1, 70, 127
3, 19200, Note_off_c, 1, 70, 127
3, 19200, Note_on_c, 1, 77, 127
3, 19680, Note_off_c, 1, 77, 127
3, 19680, Note_on_c, 1, 66, 127
3, 20160, Note_off_c, 1, 66, 127
3, 20160, Note_on_c, 1, 74, 127
3, 23040, Note_off_c, 1, 74, 127
3, 23040, Note_on_c, 1, 47, 127
3, 23520, Note_off_c, 1, 47, 127
3, 23520, Note_on_c, 1, 59, 127
3, 24000, Note_off_c, 1, 59, 127
3, 24000, Note_on_c, 1, 62, 127
3, 24480, Note_off_c, 1, 62, 127
3, 24480, Note_on_c, 1, 78, 127
3, 24960, Note_on_c, 1, 67, 127
3, 25440, Note_off_c, 1, 78, 127
3, 25440, Note_off_c, 1, 67, 127
3, 25440, Note_on_c, 1, 74, 127
3, 25920, Note_off_c, 1, 74, 127
3, 25920, Note_on_c, 1, 73, 127
3, 28800, Note_off_c, 1, 73, 127
3, 28800, Note_on_c, 1, 47, 127
3, 29280, Note_off_c, 1, 47, 127
3, 29280, Note_on_c, 1, 59, 127
3, 29760, Note_off_c, 1, 59, 127
3, 29760, Note_on_c, 1, 62, 127
3, 30240, Note_off_c, 1, 62, 127
3, 30240, Note_on_c, 1, 78, 127
3, 30720, Note_on_c, 1, 67, 127
3, 31200, Note_off_c, 1, 78, 127
3, 31200, Note_off_c, 1, 67, 127
3, 31200, Note_on_c, 1, 74, 127
3, 31680, Note_off_c, 1, 74, 127
3, 31680, Note_on_c, 1, 73, 127
3, 34560, Note_off_c, 1, 73, 127
3, 34560, Note_on_c, 1, 46, 127
3, 35040, Note_off_c, 1, 46, 127
3, 35040, Note_on_c, 1, 58, 127
3, 35520, Note_off_c, 1, 58, 127
3, 35520, Note_on_c, 1, 61, 127
3, 36000, Note_off_c, 1, 61, 127
3, 36000, Note_on_c, 1, 69, 127
3, 36480, Note_on_c, 1, 80, 127
3, 36960, Note_off_c, 1, 69, 127
3, 36960, Note_off_c, 1, 80, 127
3, 36960, Note_on_c, 1, 77, 127
3, 37440, Note_off_c, 1, 77, 127
3, 37440, Note_on_c, 1, 75, 127
3, 40320, Note_off_c, 1, 75, 127
3, 40320, Note_on_c, 1, 46, 127
3, 40800, Note_off_c, 1, 46, 127
3, 40800, Note_on_c, 1, 58, 127
3, 41280, Note_off_c, 1, 58, 127
3, 41280, Note_on_c, 1, 61, 127
3, 41760, Note_off_c, 1, 61, 127
3, 41760, Note_on_c, 1, 69, 127
3, 42240, Note_on_c, 1, 80, 127
3, 42720, Note_off_c, 1, 69, 127
3, 42720, Note_off_c, 1, 80, 127
3, 42720, Note_on_c, 1, 77, 127
3, 43200, Note_off_c, 1, 77, 127
3, 43200, Note_on_c, 1, 75, 127
3, 46080, Note_off_c, 1, 75, 127
3, 46080, Note_on_c, 1, 46, 127
3, 47040, Note_on_c, 1, 73, 127
3, 47040, Note_on_c, 1, 64, 127
3, 47040, Note_on_c, 1, 61, 127
3, 47040, Note_on_c, 1, 58, 127
3, 47520, Note_off_c, 1, 73, 127
3, 47520, Note_off_c, 1, 64, 127
3, 47520, Note_off_c, 1, 61, 127
3, 47520, Note_off_c, 1, 58, 127
3, 48000, Note_on_c, 1, 64, 127
3, 48000, Note_on_c, 1, 61, 127
3, 48000, Note_on_c, 1, 58, 127
3, 48320, Note_off_c, 1, 64, 127
3, 48320, Note_off_c, 1, 61, 127
3, 48320, Note_off_c, 1, 58, 127
3, 48320, Note_on_c, 1, 73, 127
3, 48640, Note_off_c, 1, 73, 127
3, 48640, Note_on_c, 1, 71, 127
3, 48960, Note_off_c, 1, 71, 127
3, 48960, Note_on_c, 1, 73, 127
3, 48960, Note_on_c, 1, 64, 127
3, 48960, Note_on_c, 1, 61, 127
3, 48960, Note_on_c, 1, 58, 127
3, 50400, Note_off_c, 1, 46, 127
3, 50400, Note_off_c, 1, 73, 127
3, 50400, Note_off_c, 1, 64, 127
3, 50400, Note_off_c, 1, 61, 127
3, 50400, Note_off_c, 1, 58, 127
3, 50400, Note_on_c, 1, 69, 127
3, 51360, Note_off_c, 1, 69, 127
3, 51360, Note_on_c, 1, 67, 127
3, 51840, Note_off_c, 1, 67, 127
3, 51840, Note_on_c, 1, 46, 127
3, 52800, Note_on_c, 1, 64, 127
3, 52800, Note_on_c, 1, 61, 127
3, 52800, Note_on_c, 1, 58, 127
3, 54720, Note_on_c, 1, 73, 127
3, 55040, Note_off_c, 1, 46, 127
3, 55040, Note_off_c, 1, 64, 127
3, 55040, Note_off_c, 1, 61, 127
3, 55040, Note_off_c, 1, 58, 127
3, 55040, Note_off_c, 1, 73, 127
3, 55040, Note_on_c, 1, 71, 127
3, 55360, Note_off_c, 1, 71, 127
3, 55360, Note_on_c, 1, 73, 127
3, 56640, Note_off_c, 1, 73, 127
3, 56640, Note_on_c, 1, 64, 127
3, 56640, Note_on_c, 1, 61, 127
3, 56640, Note_on_c, 1, 58, 127
3, 57600, Note_off_c, 1, 64, 127
3, 57600, Note_off_c, 1, 61, 127
3, 57600, Note_off_c, 1, 58, 127
3, 57600, Note_on_c, 1, 45, 127
3, 58560, Note_on_c, 1, 67, 127
3, 58560, Note_on_c, 1, 64, 127
3, 58560, Note_on_c, 1, 60, 127
3, 58560, Note_on_c, 1, 67, 127
3, 59040, Note_off_c, 1, 67, 127
3, 59040, Note_off_c, 1, 64, 127
3, 59040, Note_off_c, 1, 60, 127
3, 59040, Note_off_c, 1, 67, 127
3, 59520, Note_on_c, 1, 67, 127
3, 59520, Note_on_c, 1, 64, 127
3, 59520, Note_on_c, 1, 60, 127
3, 59520, Note_on_c, 1, 67, 127
3, 60000, Note_off_c, 1, 67, 127
3, 60000, Note_off_c, 1, 64, 127
3, 60000, Note_off_c, 1, 60, 127
3, 60000, Note_off_c, 1, 67, 127
3, 60480, Note_on_c, 1, 67, 127
3, 60480, Note_on_c, 1, 64, 127
3, 60480, Note_on_c, 1, 60, 127
3, 60480, Note_on_c, 1, 67, 127
3, 63360, Note_off_c, 1, 45, 127
3, 63360, Note_off_c, 1, 67, 127
3, 63360, Note_off_c, 1, 64, 127
3, 63360, Note_off_c, 1, 60, 127
3, 63360, Note_off_c, 1, 67, 127
3, 63360, Note_on_c, 1, 45, 127
3, 64320, Note_on_c, 1, 67, 127
3, 64320, Note_on_c, 1, 64, 127
3, 64320, Note_on_c, 1, 60, 127
3, 64320, Note_on_c, 1, 67, 127
3, 66240, Note_off_c, 1, 67, 127
3, 66240, Note_off_c, 1, 64, 127
3, 66240, Note_off_c, 1, 60, 127
3, 66240, Note_off_c, 1, 67, 127
3, 66240, Note_on_c, 1, 67, 127
3, 66240, Note_on_c, 1, 64, 127
3, 66240, Note_on_c, 1, 60, 127
3, 66240, Note_on_c, 1, 67, 127
3, 66560, Note_off_c, 1, 45, 127
3, 66560, Note_off_c, 1, 67, 127
3, 66560, Note_off_c, 1, 64, 127
3, 66560, Note_off_c, 1, 60, 127
3, 66560, Note_off_c, 1, 67, 127
3, 66560, Note_on_c, 1, 67, 127
3, 66560, Note_on_c, 1, 64, 127
3, 66560, Note_on_c, 1, 60, 127
3, 66560, Note_on_c, 1, 67, 127
3, 66880, Note_off_c, 1, 67, 127
3, 66880, Note_off_c, 1, 64, 127
3, 66880, Note_off_c, 1, 60, 127
3, 66880, Note_off_c, 1, 67, 127
3, 66880, Note_on_c, 1, 67, 127
3, 66880, Note_on_c, 1, 64, 127
3, 66880, Note_on_c, 1, 60, 127
3, 66880, Note_on_c, 1, 62, 127
3, 67200, Note_off_c, 1, 67, 127
3, 67200, Note_off_c, 1, 64, 127
3, 67200, Note_off_c, 1, 60, 127
3, 67200, Note_off_c, 1, 62, 127
3, 67200, Note_on_c, 1, 67, 127
3, 67200, Note_on_c, 1, 64, 127
3, 67200, Note_on_c, 1, 60, 127
3, 67200, Note_on_c, 1, 67, 127
3, 69120, Note_off_c, 1, 67, 127
3, 69120, Note_off_c, 1, 64, 127
3, 69120, Note_off_c, 1, 60, 127
3, 69120, Note_off_c, 1, 67, 127
3, 69120, Note_on_c, 1, 44, 127
3, 70080, Note_on_c, 1, 70, 127
3, 70080, Note_on_c, 1, 66, 127
3, 70080, Note_on_c, 1, 63, 127
3, 70080, Note_on_c, 1, 69, 127
3, 70560, Note_off_c, 1, 70, 127
3, 70560, Note_off_c, 1, 66, 127
3, 70560, Note_off_c, 1, 63, 127
3, 70560, Note_off_c, 1, 69, 127
3, 71040, Note_on_c, 1, 70, 127
3, 71040, Note_on_c, 1, 66, 127
3, 71040, Note_on_c, 1, 63, 127
3, 71040, Note_on_c, 1, 69, 127
3, 71520, Note_off_c, 1, 70, 127
3, 71520, Note_off_c, 1, 66, 127
3, 71520, Note_off_c, 1, 63, 127
3, 71520, Note_off_c, 1, 69, 127
3, 72000, Note_on_c, 1, 70, 127
3, 72000, Note_on_c, 1, 66, 127
3, 72000, Note_on_c, 1, 63, 127
3, 72000, Note_on_c, 1, 69, 127
3, 72480, Note_off_c, 1, 44, 127
3, 72480, Note_off_c, 1, 70, 127
3, 72480, Note_off_c, 1, 66, 127
3, 72480, Note_off_c, 1, 63, 127
3, 72480, Note_off_c, 1, 69, 127
3, 72480, Note_on_c, 1, 70, 127
3, 72960, Note_off_c, 1, 70, 127
3, 72960, Note_on_c, 1, 66, 127
3, 73440, Note_off_c, 1, 66, 127
3, 73440, Note_on_c, 1, 68, 127
3, 73680, Note_off_c, 1, 68, 127
3, 73920, Note_on_c, 1, 63, 127
3, 74160, Note_off_c, 1, 63, 127
3, 74400, Note_on_c, 1, 56, 127
3, 74640, Note_off_c, 1, 56, 127
3, 74880, Note_on_c, 1, 60, 127
3, 74880, Note_on_c, 1, 44, 127
3, 75840, Note_off_c, 1, 60, 127
3, 75840, Note_on_c, 1, 71, 127
3, 75840, Note_on_c, 1, 66, 127
3, 75840, Note_on_c, 1, 63, 127
3, 75840, Note_on_c, 1, 71, 127
3, 77280, Note_off_c, 1, 71, 127
3, 77280, Note_on_c, 1, 66, 127
3, 77760, Note_off_c, 1, 66, 127
3, 77760, Note_on_c, 1, 68, 127
3, 79680, Note_off_c, 1, 44, 127
3, 79680, Note_off_c, 1, 71, 127
3, 79680, Note_off_c, 1, 66, 127
3, 79680, Note_off_c, 1, 63, 127
3, 79680, Note_off_c, 1, 68, 127
3, 79680, Note_on_c, 1, 71, 127
3, 79680, Note_on_c, 1, 66, 127
3, 79680, Note_on_c, 1, 63, 127
3, 80640, Note_off_c, 1, 71, 127
3, 80640, Note_off_c, 1, 66, 127
3, 80640, Note_off_c, 1, 63, 127
3, 80640, Note_on_c, 1, 43, 127
3, 81600, Note_on_c, 1, 67, 127
3, 81600, Note_on_c, 1, 62, 127
3, 81600, Note_on_c, 1, 58, 127
3, 81600, Note_on_c, 1, 67, 127
3, 82080, Note_off_c, 1, 67, 127
3, 82560, Note_off_c, 1, 67, 127
3, 82560, Note_off_c, 1, 62, 127
3, 82560, Note_off_c, 1, 58, 127
3, 82560, Note_on_c, 1, 67, 127
3, 82560, Note_on_c, 1, 62, 127
3, 82560, Note_on_c, 1, 58, 127
3, 82560, Note_on_c, 1, 67, 127
3, 83040, Note_off_c, 1, 67, 127
3, 83040, Note_off_c, 1, 62, 127
3, 83040, Note_off_c, 1, 58, 127
3, 83040, Note_off_c, 1, 67, 127
3, 83520, Note_on_c, 1, 79, 127
3, 83520, Note_on_c, 1, 67, 127
3, 83520, Note_on_c, 1, 62, 127
3, 83520, Note_on_c, 1, 58, 127
3, 86400, Note_off_c, 1, 43, 127
3, 86400, Note_off_c, 1, 79, 127
3, 86400, Note_off_c, 1, 67, 127
3, 86400, Note_off_c, 1, 62, 127
3, 86400, Note_off_c, 1, 58, 127
3, 86400, Note_on_c, 1, 43, 127
3, 87360, Note_on_c, 1, 67, 127
3, 87360, Note_on_c, 1, 62, 127
3, 87360, Note_on_c, 1, 58, 127
3, 87360, Note_on_c, 1, 67, 127
3, 89280, Note_off_c, 1, 67, 127
3, 89280, Note_off_c, 1, 62, 127
3, 89280, Note_off_c, 1, 58, 127
3, 89280, Note_off_c, 1, 67, 127
3, 89280, Note_on_c, 1, 67, 127
3, 89280, Note_on_c, 1, 62, 127
3, 89280, Note_on_c, 1, 58, 127
3, 89280, Note_on_c, 1, 67, 127
3, 89600, Note_off_c, 1, 43, 127
3, 89600, Note_off_c, 1, 67, 127
3, 89600, Note_off_c, 1, 62, 127
3, 89600, Note_off_c, 1, 58, 127
3, 89600, Note_off_c, 1, 67, 127
3, 89600, Note_on_c, 1, 67, 127
3, 89600, Note_on_c, 1, 62, 127
3, 89600, Note_on_c, 1, 58, 127
3, 89600, Note_on_c, 1, 67, 127
3, 89920, Note_off_c, 1, 67, 127
3, 89920, Note_off_c, 1, 62, 127
3, 89920, Note_off_c, 1, 58, 127
3, 89920, Note_off_c, 1, 67, 127
3, 89920, Note_on_c, 1, 62, 127
3, 90240, Note_off_c, 1, 62, 127
3, 90240, Note_on_c, 1, 67, 127
3, 90240, Note_on_c, 1, 62, 127
3, 90240, Note_on_c, 1, 58, 127
3, 90240, Note_on_c, 1, 67, 127
3, 92160, Note_off_c, 1, 67, 127
3, 92160, Note_off_c, 1, 62, 127
3, 92160, Note_off_c, 1, 58, 127
3, 92160, Note_off_c, 1, 67, 127
3, 92160, Note_on_c, 1, 66, 127
3, 92160, Note_on_c, 1, 54, 127
3, 94080, Note_off_c, 1, 66, 127
3, 94080, Note_off_c, 1, 54, 127
3, 94320, Note_on_c, 1, 72, 127
3, 94560, Note_off_c, 1, 72, 127
3, 94560, Note_on_c, 1, 69, 127
3, 94800, Note_off_c, 1, 69, 127
3, 94800, Note_on_c, 1, 71, 127
3, 95040, Note_off_c, 1, 71, 127
3, 95040, Note_on_c, 1, 68, 127
3, 95232, Note_off_c, 1, 68, 127
3, 95232, Note_on_c, 1, 72, 127
3, 95424, Note_off_c, 1, 72, 127
3, 95424, Note_on_c, 1, 76, 127
3, 95616, Note_off_c, 1, 76, 127
3, 95616, Note_on_c, 1, 76, 127
3, 95808, Note_off_c, 1, 76, 127
3, 95808, Note_on_c, 1, 80, 127
3, 96000, Note_off_c, 1, 80, 127
3, 96000, Note_on_c, 1, 78, 127
3, 96192, Note_off_c, 1, 78, 127
3, 96192, Note_on_c, 1, 83, 127
3, 96384, Note_off_c, 1, 83, 127
3, 96384, Note_on_c, 1, 72, 127
3, 96576, Note_off_c, 1, 72, 127
3, 96576, Note_on_c, 1, 68, 127
3, 96768, Note_off_c, 1, 68, 127
3, 96768, Note_on_c, 1, 72, 127
3, 96960, Note_off_c, 1, 72, 127
3, 96960, Note_on_c, 1, 80, 127
3, 97200, Note_off_c, 1, 80, 127
3, 97200, Note_on_c, 1, 83, 127
3, 97440, Note_off_c, 1, 83, 127
3, 97440, Note_on_c, 1, 78, 127
3, 97680, Note_off_c, 1, 78, 127
3, 97680, Note_on_c, 1, 83, 127
3, 97920, Note_off_c, 1, 83, 127
3, 97920, Note_on_c, 1, 83, 127
3, 98112, Note_off_c, 1, 83, 127
3, 98112, Note_on_c, 1, 73, 127
3, 98304, Note_off_c, 1, 73, 127
3, 98304, Note_on_c, 1, 73, 127
3, 98496, Note_off_c, 1, 73, 127
3, 98496, Note_on_c, 1, 78, 127
3, 98688, Note_off_c, 1, 78, 127
3, 98688, Note_on_c, 1, 78, 127
3, 98880, Note_off_c, 1, 78, 127
3, 98880, Note_on_c, 1, 78, 127
3, 100320, Note_off_c, 1, 78, 127
3, 100320, Note_on_c, 1, 56, 127
3, 100320, Note_on_c, 1, 44, 127
3, 100800, Note_off_c, 1, 56, 127
3, 100800, Note_off_c, 1, 44, 127
3, 100800, Note_on_c, 1, 56, 127
3, 100800, Note_on_c, 1, 44, 127
3, 101280, Note_off_c, 1, 56, 127
3, 101280, Note_off_c, 1, 44, 127
3, 101280, Note_on_c, 1, 57, 127
3, 101280, Note_on_c, 1, 45, 127
3, 101760, Note_off_c, 1, 57, 127
3, 101760, Note_off_c, 1, 45, 127
3, 101760, Note_on_c, 1, 57, 127
3, 101760, Note_on_c, 1, 45, 127
3, 102240, Note_off_c, 1, 57, 127
3, 102240, Note_off_c, 1, 45, 127
3, 102240, Note_on_c, 1, 59, 127
3, 102240, Note_on_c, 1, 47, 127
3, 102720, Note_off_c, 1, 59, 127
3, 102720, Note_off_c, 1, 47, 127
3, 102720, Note_on_c, 1, 61, 127
3, 102720, Note_on_c, 1, 49, 127
3, 103200, Note_off_c, 1, 61, 127
3, 103200, Note_off_c, 1, 49, 127
3, 103200, Note_on_c, 1, 66, 127
3, 103200, Note_on_c, 1, 54, 127
3, 103680, Note_off_c, 1, 66, 127
3, 103680, Note_off_c, 1, 54, 127
3, 103680, Note_on_c, 1, 65, 127
3, 103680, Note_on_c, 1, 53, 127
3, 104640, Note_on_c, 1, 71, 127
3, 105600, Note_off_c, 1, 65, 127
3, 105600, Note_off_c, 1, 53, 127
3, 105920, Note_off_c, 1, 71, 127
3, 105920, Note_on_c, 1, 69, 127
3, 106240, Note_off_c, 1, 69, 127
3, 106240, Note_on_c, 1, 72, 127
3, 106560, Note_off_c, 1, 72, 127
3, 106560, Note_on_c, 1, 68, 127
3, 106752, Note_off_c, 1, 68, 127
3, 106752, Note_on_c, 1, 66, 127
3, 106944, Note_off_c, 1, 66, 127
3, 106944, Note_on_c, 1, 77, 127
3, 107136, Note_off_c, 1, 77, 127
3, 107136, Note_on_c, 1, 76, 127
3, 107328, Note_off_c, 1, 76, 127
3, 107328, Note_on_c, 1, 76, 127
3, 107520, Note_off_c, 1, 76, 127
3, 107520, Note_on_c, 1, 87, 127
3, 107694, Note_off_c, 1, 87, 127
3, 107694, Note_on_c, 1, 85, 127
3, 107868, Note_off_c, 1, 85, 127
3, 107868, Note_on_c, 1, 82, 127
3, 108042, Note_off_c, 1, 82, 127
3, 108042, Note_on_c, 1, 82, 127
3, 108216, Note_off_c, 1, 82, 127
3, 108216, Note_on_c, 1, 87, 127
3, 108390, Note_off_c, 1, 87, 127
3, 108390, Note_on_c, 1, 80, 127
3, 108564, Note_off_c, 1, 80, 127
3, 108564, Note_on_c, 1, 85, 127
3, 108738, Note_off_c, 1, 85, 127
3, 108738, Note_on_c, 1, 82, 127
3, 108912, Note_off_c, 1, 82, 127
3, 108912, Note_on_c, 1, 82, 127
3, 109086, Note_off_c, 1, 82, 127
3, 109086, Note_on_c, 1, 87, 127
3, 109260, Note_off_c, 1, 87, 127
3, 109260, Note_on_c, 1, 80, 127
3, 109434, Note_off_c, 1, 80, 127
3, 109440, Note_on_c, 1, 88, 127
3, 109632, Note_off_c, 1, 88, 127
3, 109632, Note_on_c, 1, 87, 127
3, 109824, Note_off_c, 1, 87, 127
3, 109824, Note_on_c, 1, 87, 127
3, 110016, Note_off_c, 1, 87, 127
3, 110016, Note_on_c, 1, 91, 127
3, 110208, Note_off_c, 1, 91, 127
3, 110208, Note_on_c, 1, 80, 127
3, 110400, Note_off_c, 1, 80, 127
3, 110400, Note_on_c, 1, 90, 127
3, 111840, Note_off_c, 1, 90, 127
3, 111840, Note_on_c, 1, 56, 127
3, 111840, Note_on_c, 1, 44, 127
3, 112320, Note_off_c, 1, 56, 127
3, 112320, Note_off_c, 1, 44, 127
3, 112320, Note_on_c, 1, 56, 127
3, 112320, Note_on_c, 1, 44, 127
3, 112800, Note_off_c, 1, 56, 127
3, 112800, Note_off_c, 1, 44, 127
3, 112800, Note_on_c, 1, 57, 127
3, 112800, Note_on_c, 1, 45, 127
3, 113280, Note_off_c, 1, 57, 127
3, 113280, Note_off_c, 1, 45, 127
3, 113280, Note_on_c, 1, 59, 127
3, 113280, Note_on_c, 1, 47, 127
3, 113760, Note_off_c, 1, 59, 127
3, 113760, Note_off_c, 1, 47, 127
3, 113760, Note_on_c, 1, 61, 127
3, 113760, Note_on_c, 1, 49, 127
3, 114240, Note_off_c, 1, 61, 127
3, 114240, Note_off_c, 1, 49, 127
3, 114240, Note_on_c, 1, 63, 127
3, 114240, Note_on_c, 1, 51, 127
3, 114720, Note_off_c, 1, 63, 127
3, 114720, Note_off_c, 1, 51, 127
3, 114720, Note_on_c, 1, 62, 127
3, 114720, Note_on_c, 1, 50, 127
3, 115200, Note_off_c, 1, 62, 127
3, 115200, Note_off_c, 1, 50, 127
3, 115200, Note_on_c, 1, 64, 127
3, 115200, Note_on_c, 1, 52, 127
3, 118080, Note_off_c, 1, 64, 127
3, 118080, Note_off_c, 1, 52, 127
3, 118080, Note_on_c, 1, 71, 127
3, 118341, Note_off_c, 1, 71, 127
3, 118341, Note_on_c, 1, 69, 127
3, 118602, Note_off_c, 1, 69, 127
3, 118602, Note_on_c, 1, 69, 127
3, 118863, Note_off_c, 1, 69, 127
3, 118863, Note_on_c, 1, 74, 127
3, 119124, Note_off_c, 1, 74, 127
3, 119124, Note_on_c, 1, 73, 127
3, 119385, Note_off_c, 1, 73, 127
3, 119385, Note_on_c, 1, 73, 127
3, 119646, Note_off_c, 1, 73, 127
3, 119646, Note_on_c, 1, 71, 127
3, 119907, Note_off_c, 1, 71, 127
3, 119907, Note_on_c, 1, 71, 127
3, 120168, Note_off_c, 1, 71, 127
3, 120168, Note_on_c, 1, 73, 127
3, 120429, Note_off_c, 1, 73, 127
3, 120429, Note_on_c, 1, 66, 127
3, 120690, Note_off_c, 1, 66, 127
3, 120690, Note_on_c, 1, 62, 127
3, 120951, Note_off_c, 1, 62, 127
3, 120960, Note_on_c, 1, 70, 127
3, 121152, Note_off_c, 1, 70, 127
3, 121152, Note_on_c, 1, 73, 127
3, 121344, Note_off_c, 1, 73, 127
3, 121344, Note_on_c, 1, 73, 127
3, 121536, Note_off_c, 1, 73, 127
3, 121536, Note_on_c, 1, 69, 127
3, 121728, Note_off_c, 1, 69, 127
3, 121728, Note_on_c, 1, 81, 127
3, 121920, Note_off_c, 1, 81, 127
3, 121920, Note_on_c, 1, 76, 127
3, 122112, Note_off_c, 1, 76, 127
3, 122112, Note_on_c, 1, 78, 127
3, 122304, Note_off_c, 1, 78, 127
3, 122304, Note_on_c, 1, 78, 127
3, 122496, Note_off_c, 1, 78, 127
3, 122496, Note_on_c, 1, 67, 127
3, 122688, Note_off_c, 1, 67, 127
3, 122688, Note_on_c, 1, 74, 127
3, 122880, Note_off_c, 1, 74, 127
3, 122880, Note_on_c, 1, 73, 127
3, 123072, Note_off_c, 1, 73, 127
3, 123072, Note_on_c, 1, 63, 127
3, 123264, Note_off_c, 1, 63, 127
3, 123264, Note_on_c, 1, 70, 127
3, 123360, Note_off_c, 1, 70, 127
3, 123360, Note_on_c, 1, 64, 127
3, 123360, Note_on_c, 1, 52, 127
3, 123456, Note_off_c, 1, 64, 127
3, 123456, Note_off_c, 1, 52, 127
3, 123456, Note_on_c, 1, 71, 127
3, 123648, Note_off_c, 1, 71, 127
3, 123648, Note_on_c, 1, 69, 127
3, 123840, Note_off_c, 1, 69, 127
3, 123840, Note_on_c, 1, 81, 127
3, 123840, Note_on_c, 1, 64, 127
3, 123840, Note_on_c, 1, 52, 127
3, 124320, Note_off_c, 1, 81, 127
3, 124320, Note_off_c, 1, 64, 127
3, 124320, Note_off_c, 1, 52, 127
3, 124320, Note_on_c, 1, 62, 127
3, 124320, Note_on_c, 1, 50, 127
3, 124800, Note_off_c, 1, 62, 127
3, 124800, Note_off_c, 1, 50, 127
3, 124800, Note_on_c, 1, 62, 127
3, 124800, Note_on_c, 1, 50, 127
3, 125280, Note_off_c, 1, 62, 127
3, 125280, Note_off_c, 1, 50, 127
3, 125280, Note_on_c, 1, 61, 127
3, 125280, Note_on_c, 1, 49, 127
3, 125760, Note_off_c, 1, 61, 127
3, 125760, Note_off_c, 1, 49, 127
3, 125760, Note_on_c, 1, 61, 127
3, 125760, Note_on_c, 1, 49, 127
3, 126240, Note_off_c, 1, 61, 127
3, 126240, Note_off_c, 1, 49, 127
3, 126240, Note_on_c, 1, 54, 127
3, 126240, Note_on_c, 1, 42, 127
3, 126720, Note_off_c, 1, 54, 127
3, 126720, Note_off_c, 1, 42, 127
3, 126720, Note_on_c, 1, 55, 127
3, 126720, Note_on_c, 1, 43, 127
3, 128640, Note_off_c, 1, 55, 127
3, 128640, Note_off_c, 1, 43, 127
3, 128640, Note_on_c, 1, 71, 127
3, 128777, Note_off_c, 1, 71, 127
3, 128777, Note_on_c, 1, 70, 127
3, 128914, Note_off_c, 1, 70, 127
3, 128914, Note_on_c, 1, 67, 127
3, 129051, Note_off_c, 1, 67, 127
3, 129051, Note_on_c, 1, 66, 127
3, 129188, Note_off_c, 1, 66, 127
3, 129188, Note_on_c, 1, 67, 127
3, 129325, Note_off_c, 1, 67, 127
3, 129325, Note_on_c, 1, 70, 127
3, 129462, Note_off_c, 1, 70, 127
3, 129462, Note_on_c, 1, 71, 127
3, 129599, Note_off_c, 1, 71, 127
3, 129600, Note_on_c, 1, 73, 127
3, 129888, Note_off_c, 1, 73, 127
3, 129888, Note_on_c, 1, 76, 127
3, 130176, Note_off_c, 1, 76, 127
3, 130176, Note_on_c, 1, 72, 127
3, 130464, Note_off_c, 1, 72, 127
3, 130464, Note_on_c, 1, 71, 127
3, 130752, Note_off_c, 1, 71, 127
3, 130752, Note_on_c, 1, 67, 127
3, 131040, Note_off_c, 1, 67, 127
3, 131040, Note_on_c, 1, 78, 127
3, 131328, Note_off_c, 1, 78, 127
3, 131328, Note_on_c, 1, 73, 127
3, 131616, Note_off_c, 1, 73, 127
3, 131616, Note_on_c, 1, 72, 127
3, 131904, Note_off_c, 1, 72, 127
3, 131904, Note_on_c, 1, 76, 127
3, 132192, Note_off_c, 1, 76, 127
3, 132192, Note_on_c, 1, 72, 127
3, 132480, Note_off_c, 1, 72, 127
3, 132480, Note_on_c, 1, 71, 127
3, 132720, Note_off_c, 1, 71, 127
3, 132720, Note_on_c, 1, 70, 127
3, 132960, Note_off_c, 1, 70, 127
3, 132960, Note_on_c, 1, 70, 127
3, 133200, Note_off_c, 1, 70, 127
3, 133200, Note_on_c, 1, 78, 127
3, 133440, Note_off_c, 1, 78, 127
3, 133440, Note_on_c, 1, 66, 127
3, 133760, Note_off_c, 1, 66, 127
3, 133760, Note_on_c, 1, 64, 127
3, 134080, Note_off_c, 1, 64, 127
3, 134080, Note_on_c, 1, 70, 127
3, 134400, Note_off_c, 1, 70, 127
3, 134400, Note_on_c, 1, 72, 127
3, 134640, Note_off_c, 1, 72, 127
3, 134640, Note_on_c, 1, 76, 127
3, 134760, Note_off_c, 1, 76, 127
3, 134760, Note_on_c, 1, 73, 127
3, 134880, Note_on_c, 1, 61, 127
3, 134880, Note_on_c, 1, 49, 127
3, 135360, Note_off_c, 1, 73, 127
3, 135360, Note_off_c, 1, 61, 127
3, 135360, Note_off_c, 1, 49, 127
3, 135360, Note_on_c, 1, 59, 127
3, 135360, Note_on_c, 1, 47, 127
3, 135840, Note_off_c, 1, 59, 127
3, 135840, Note_off_c, 1, 47, 127
3, 135840, Note_on_c, 1, 58, 127
3, 135840, Note_on_c, 1, 46, 127
3, 136320, Note_off_c, 1, 58, 127
3, 136320, Note_off_c, 1, 46, 127
3, 136320, Note_on_c, 1, 55, 127
3, 136320, Note_on_c, 1, 43, 127
3, 136800, Note_off_c, 1, 55, 127
3, 136800, Note_off_c, 1, 43, 127
3, 136800, Pitch_bend_c, 1, 7552
3, 136800, Note_on_c, 1, 52, 127
3, 136800, Pitch_bend_c, 1, 7552
3, 136800, Note_on_c, 1, 40, 127
3, 137280, Pitch_bend_c, 1, 7552
3, 137280, Pitch_bend_c, 1, 8192
3, 137280, Note_off_c, 1, 52, 127
3, 137280, Pitch_bend_c, 1, 7552
3, 137280, Pitch_bend_c, 1, 8192
3, 137280, Note_off_c, 1, 40, 127
3, 137280, Note_on_c, 1, 54, 127
3, 137280, Note_on_c, 1, 42, 127
3, 137760, Note_off_c, 1, 54, 127
3, 137760, Note_off_c, 1, 42, 127
3, 137760, Note_on_c, 1, 58, 127
3, 137760, Note_on_c, 1, 46, 127
3, 138240, Note_off_c, 1, 58, 127
3, 138240, Note_off_c, 1, 46, 127
3, 138240, Note_on_c, 1, 71, 127
3, 138240, Note_on_c, 1, 66, 127
3, 138240, Note_on_c, 1, 62, 127
3, 138240, Note_on_c, 1, 59, 127
3, 138240, Note_on_c, 1, 47, 127
3, 139200, Note_off_c, 1, 71, 127
3, 139200, Note_off_c, 1, 66, 127
3, 139200, Note_off_c, 1, 62, 127
3, 139200, Note_off_c, 1, 59, 127
3, 139200, Note_off_c, 1, 47, 127
3, 139440, Note_on_c, 1, 59, 127
3, 139440, Note_on_c, 1, 47, 127
3, 139680, Note_off_c, 1, 59, 127
3, 139680, Note_on_c, 1, 62, 127
3, 139680, Note_on_c, 1, 59, 127
3, 139920, Note_off_c, 1, 62, 127
3, 139920, Note_off_c, 1, 59, 127
3, 140160, Note_off_c, 1, 47, 127
3, 140160, Note_on_c, 1, 71, 127
3, 140160, Note_on_c, 1, 66, 127
3, 140160, Note_on_c, 1, 62, 127
3, 140160, Note_on_c, 1, 59, 127
3, 140160, Note_on_c, 1, 47, 127
3, 140640, Note_off_c, 1, 47, 127
3, 140640, Note_on_c, 1, 47, 127
3, 140880, Note_off_c, 1, 71, 127
3, 140880, Note_off_c, 1, 66, 127
3, 140880, Note_off_c, 1, 62, 127
3, 140880, Note_off_c, 1, 59, 127
3, 140880, Note_on_c, 1, 59, 127
3, 141120, Note_off_c, 1, 47, 127
3, 141120, Note_off_c, 1, 59, 127
3, 141120, Note_on_c, 1, 71, 127
3, 141120, Note_on_c, 1, 66, 127
3, 141120, Note_on_c, 1, 62, 127
3, 141120, Note_on_c, 1, 59, 127
3, 141120, Note_on_c, 1, 47, 127
3, 142080, Note_off_c, 1, 71, 127
3, 142080, Note_off_c, 1, 66, 127
3, 142080, Note_off_c, 1, 62, 127
3, 142080, Note_off_c, 1, 59, 127
3, 142080, Note_off_c, 1, 47, 127
3, 142080, Note_on_c, 1, 71, 127
3, 142080, Note_on_c, 1, 66, 127
3, 142080, Note_on_c, 1, 61, 127
3, 142080, Note_on_c, 1, 49, 127
3, 143040, Note_off_c, 1, 71, 127
3, 143040, Note_off_c, 1, 66, 127
3, 143040, Note_off_c, 1, 61, 127
3, 143040, Note_off_c, 1, 49, 127
3, 143040, Note_on_c, 1, 72, 63
3, 143040, Note_on_c, 1, 71, 127
3, 143040, Note_on_c, 1, 66, 127
3, 143040, Note_on_c, 1, 62, 127
3, 143040, Note_on_c, 1, 50, 127
3, 144000, Note_off_c, 1, 72, 63
3, 144000, Note_off_c, 1, 71, 127
3, 144000, Note_off_c, 1, 66, 127
3, 144000, Note_off_c, 1, 62, 127
3, 144000, Note_off_c, 1, 50, 127
3, 144000, Note_on_c, 1, 71, 63
3, 144000, Note_on_c, 1, 70, 127
3, 144000, Note_on_c, 1, 66, 127
3, 144000, Note_on_c, 1, 61, 127
3, 144000, Note_on_c, 1, 58, 127
3, 144000, Note_on_c, 1, 46, 127
3, 144720, Note_off_c, 1, 71, 63
3, 144720, Note_off_c, 1, 70, 127
3, 144720, Note_off_c, 1, 61, 127
3, 144720, Note_on_c, 1, 61, 127
3, 144960, Note_on_c, 1, 70, 127
3, 145920, Note_off_c, 1, 66, 127
3, 145920, Note_off_c, 1, 58, 127
3, 145920, Note_off_c, 1, 46, 127
3, 145920, Note_off_c, 1, 61, 127
3, 145920, Note_off_c, 1, 70, 127
3, 145920, Note_on_c, 1, 70, 127
3, 145920, Note_on_c, 1, 66, 127
3, 145920, Note_on_c, 1, 61, 127
3, 145920, Note_on_c, 1, 58, 127
3, 145920, Note_on_c, 1, 46, 127
3, 146640, Note_off_c, 1, 61, 127
3, 146640, Note_off_c, 1, 58, 127
3, 146640, Note_on_c, 1, 61, 127
3, 146640, Note_on_c, 1, 58, 127
3, 146880, Note_off_c, 1, 70, 127
3, 146880, Note_off_c, 1, 66, 127
3, 146880, Note_off_c, 1, 46, 127
3, 146880, Note_off_c, 1, 61, 127
3, 146880, Note_off_c, 1, 58, 127
3, 146880, Note_on_c, 1, 66, 127
3, 146880, Note_on_c, 1, 46, 127
3, 147120, Note_off_c, 1, 66, 127
3, 147120, Note_on_c, 1, 58, 127
3, 147360, Note_off_c, 1, 58, 127
3, 147360, Note_on_c, 1, 61, 127
3, 147600, Note_off_c, 1, 61, 127
3, 147600, Note_on_c, 1, 66, 127
3, 147840, Note_off_c, 1, 66, 127
3, 147840, Note_on_c, 1, 70, 127
3, 147840, Note_on_c, 1, 66, 127
3, 147840, Note_on_c, 1, 61, 127
3, 147840, Note_on_c, 1, 58, 127
3, 148320, Note_off_c, 1, 46, 127
3, 148320, Note_on_c, 1, 46, 127
3, 148560, Note_off_c, 1, 70, 127
3, 148560, Note_off_c, 1, 66, 127
3, 148560, Note_off_c, 1, 61, 127
3, 148560, Note_off_c, 1, 58, 127
3, 148560, Note_on_c, 1, 70, 127
3, 148560, Note_on_c, 1, 66, 127
3, 148560, Note_on_c, 1, 61, 127
3, 148560, Note_on_c, 1, 58, 127
3, 148800, Note_off_c, 1, 46, 127
3, 148800, Note_on_c, 1, 46, 127
3, 149280, Note_off_c, 1, 70, 127
3, 149280, Note_off_c, 1, 66, 127
3, 149280, Note_off_c, 1, 61, 127
3, 149280, Note_off_c, 1, 58, 127
3, 149280, Note_off_c, 1, 46, 127
3, 149280, Note_on_c, 1, 70, 127
3, 149280, Note_on_c, 1, 66, 127
3, 149280, Note_on_c, 1, 61, 127
3, 149280, Note_on_c, 1, 58, 127
3, 149280, Note_on_c, 1, 46, 127
3, 149760, Note_off_c, 1, 70, 127
3, 149760, Note_off_c, 1, 66, 127
3, 149760, Note_off_c, 1, 61, 127
3, 149760, Note_off_c, 1, 58, 127
3, 149760, Note_off_c, 1, 46, 127
3, 149760, Note_on_c, 1, 71, 127
3, 149760, Note_on_c, 1, 66, 127
3, 149760, Note_on_c, 1, 62, 127
3, 149760, Note_on_c, 1, 59, 127
3, 149760, Note_on_c, 1, 47, 127
3, 150720, Note_off_c, 1, 71, 127
3, 150720, Note_off_c, 1, 66, 127
3, 150720, Note_off_c, 1, 62, 127
3, 150720, Note_off_c, 1, 59, 127
3, 150720, Note_off_c, 1, 47, 127
3, 150960, Note_on_c, 1, 59, 127
3, 150960, Note_on_c, 1, 47, 127
3, 151200, Note_off_c, 1, 59, 127
3, 151200, Note_on_c, 1, 62, 127
3, 151200, Note_on_c, 1, 59, 127
3, 151440, Note_off_c, 1, 62, 127
3, 151440, Note_off_c, 1, 59, 127
3, 151680, Note_off_c, 1, 47, 127
3, 151680, Note_on_c, 1, 71, 127
3, 151680, Note_on_c, 1, 66, 127
3, 151680, Note_on_c, 1, 62, 127
3, 151680, Note_on_c, 1, 59, 127
3, 151680, Note_on_c, 1, 47, 127
3, 152160, Note_off_c, 1, 47, 127
3, 152160, Note_on_c, 1, 47, 127
3, 152400, Note_off_c, 1, 71, 127
3, 152400, Note_off_c, 1, 66, 127
3, 152400, Note_off_c, 1, 62, 127
3, 152400, Note_off_c, 1, 59, 127
3, 152400, Note_on_c, 1, 59, 127
3, 152640, Note_off_c, 1, 47, 127
3, 152640, Note_off_c, 1, 59, 127
3, 152640, Note_on_c, 1, 71, 127
3, 152640, Note_on_c, 1, 66, 127
3, 152640, Note_on_c, 1, 62, 127
3, 152640, Note_on_c, 1, 59, 127
3, 152640, Note_on_c, 1, 47, 127
3, 153600, Note_off_c, 1, 71, 127
3, 153600, Note_off_c, 1, 66, 127
3, 153600, Note_off_c, 1, 62, 127
3, 153600, Note_off_c, 1, 59, 127
3, 153600, Note_off_c, 1, 47, 127
3, 153600, Note_on_c, 1, 71, 127
3, 153600, Note_on_c, 1, 66, 127
3, 153600, Note_on_c, 1, 61, 127
3, 153600, Note_on_c, 1, 49, 127
3, 154560, Note_off_c, 1, 71, 127
3, 154560, Note_off_c, 1, 66, 127
3, 154560, Note_off_c, 1, 61, 127
3, 154560, Note_off_c, 1, 49, 127
3, 154560, Note_on_c, 1, 72, 63
3, 154560, Note_on_c, 1, 71, 127
3, 154560, Note_on_c, 1, 66, 127
3, 154560, Note_on_c, 1, 62, 127
3, 154560, Note_on_c, 1, 50, 127
3, 155520, Note_off_c, 1, 72, 63
3, 155520, Note_off_c, 1, 71, 127
3, 155520, Note_off_c, 1, 66, 127
3, 155520, Note_off_c, 1, 62, 127
3, 155520, Note_off_c, 1, 50, 127
3, 155520, Note_on_c, 1, 71, 63
3, 155520, Note_on_c, 1, 70, 127
3, 155520, Note_on_c, 1, 66, 127
3, 155520, Note_on_c, 1, 61, 127
3, 155520, Note_on_c, 1, 58, 127
3, 155520, Note_on_c, 1, 46, 127
3, 156240, Note_off_c, 1, 71, 63
3, 156240, Note_off_c, 1, 70, 127
3, 156240, Note_off_c, 1, 61, 127
3, 156240, Note_on_c, 1, 61, 127
3, 156480, Note_on_c, 1, 70, 127
3, 157440, Note_off_c, 1, 66, 127
3, 157440, Note_off_c, 1, 58, 127
3, 157440, Note_off_c, 1, 46, 127
3, 157440, Note_off_c, 1, 61, 127
3, 157440, Note_off_c, 1, 70, 127
3, 157440, Note_on_c, 1, 70, 127
3, 157440, Note_on_c, 1, 66, 127
3, 157440, Note_on_c, 1, 61, 127
3, 157440, Note_on_c, 1, 58, 127
3, 157440, Note_on_c, 1, 46, 127
3, 158160, Note_off_c, 1, 61, 127
3, 158160, Note_off_c, 1, 58, 127
3, 158160, Note_on_c, 1, 61, 127
3, 158160, Note_on_c, 1, 58, 127
3, 158400, Note_off_c, 1, 70, 127
3, 158400, Note_off_c, 1, 66, 127
3, 158400, Note_off_c, 1, 46, 127
3, 158400, Note_off_c, 1, 61, 127
3, 158400, Note_off_c, 1, 58, 127
3, 158400, Note_on_c, 1, 66, 127
3, 158400, Note_on_c, 1, 46, 127
3, 158640, Note_off_c, 1, 66, 127
3, 158640, Note_on_c, 1, 58, 127
3, 158880, Note_off_c, 1, 58, 127
3, 158880, Note_on_c, 1, 61, 127
3, 159120, Note_off_c, 1, 61, 127
3, 159120, Note_on_c, 1, 66, 127
3, 159360, Note_off_c, 1, 66, 127
3, 159360, Note_on_c, 1, 70, 127
3, 159360, Note_on_c, 1, 66, 127
3, 159360, Note_on_c, 1, 61, 127
3, 159360, Note_on_c, 1, 58, 127
3, 159840, Note_off_c, 1, 46, 127
3, 159840, Note_on_c, 1, 46, 127
3, 160080, Note_off_c, 1, 70, 127
3, 160080, Note_off_c, 1, 66, 127
3, 160080, Note_off_c, 1, 61, 127
3, 160080, Note_off_c, 1, 58, 127
3, 160080, Note_on_c, 1, 70, 127
3, 160080, Note_on_c, 1, 66, 127
3, 160080, Note_on_c, 1, 61, 127
3, 160080, Note_on_c, 1, 58, 127
3, 160320, Note_off_c, 1, 46, 127
3, 160320, Note_on_c, 1, 46, 127
3, 160800, Note_off_c, 1, 70, 127
3, 160800, Note_off_c, 1, 66, 127
3, 160800, Note_off_c, 1, 61, 127
3, 160800, Note_off_c, 1, 58, 127
3, 160800, Note_off_c, 1, 46, 127
3, 160800, Note_on_c, 1, 70, 127
3, 160800, Note_on_c, 1, 66, 127
3, 160800, Note_on_c, 1, 61, 127
3, 160800, Note_on_c, 1, 58, 127
3, 160800, Note_on_c, 1, 46, 127
3, 161280, Note_off_c, 1, 70, 127
3, 161280, Note_off_c, 1, 66, 127
3, 161280, Note_off_c, 1, 61, 127
3, 161280, Note_off_c, 1, 58, 127
3, 161280, Note_off_c, 1, 46, 127
3, 161280, Note_on_c, 1, 71, 127
3, 161280, Note_on_c, 1, 66, 127
3, 161280, Note_on_c, 1, 62, 127
3, 161280, Note_on_c, 1, 59, 127
3, 161280, Note_on_c, 1, 47, 127
3, 162240, Note_off_c, 1, 71, 127
3, 162240, Note_off_c, 1, 66, 127
3, 162240, Note_off_c, 1, 62, 127
3, 162240, Note_off_c, 1, 59, 127
3, 162240, Note_off_c, 1, 47, 127
3, 162480, Note_on_c, 1, 59, 127
3, 162480, Note_on_c, 1, 47, 127
3, 162720, Note_off_c, 1, 59, 127
3, 162720, Note_on_c, 1, 62, 127
3, 162720, Note_on_c, 1, 59, 127
3, 162960, Note_off_c, 1, 62, 127
3, 162960, Note_off_c, 1, 59, 127
3, 163200, Note_off_c, 1, 47, 127
3, 163200, Note_on_c, 1, 71, 127
3, 163200, Note_on_c, 1, 66, 127
3, 163200, Note_on_c, 1, 62, 127
3, 163200, Note_on_c, 1, 59, 127
3, 163200, Note_on_c, 1, 47, 127
3, 163680, Note_off_c, 1, 47, 127
3, 163680, Note_on_c, 1, 47, 127
3, 163920, Note_off_c, 1, 71, 127
3, 163920, Note_off_c, 1, 66, 127
3, 163920, Note_off_c, 1, 62, 127
3, 163920, Note_off_c, 1, 59, 127
3, 163920, Note_on_c, 1, 59, 127
3, 164160, Note_off_c, 1, 47, 127
3, 164160, Note_off_c, 1, 59, 127
3, 164160, Note_on_c, 1, 71, 127
3, 164160, Note_on_c, 1, 66, 127
3, 164160, Note_on_c, 1, 62, 127
3, 164160, Note_on_c, 1, 59, 127
3, 164160, Note_on_c, 1, 47, 127
3, 165120, Note_off_c, 1, 71, 127
3, 165120, Note_off_c, 1, 66, 127
3, 165120, Note_off_c, 1, 62, 127
3, 165120, Note_off_c, 1, 59, 127
3, 165120, Note_off_c, 1, 47, 127
3, 165120, Note_on_c, 1, 71, 127
3, 165120, Note_on_c, 1, 66, 127
3, 165120, Note_on_c, 1, 61, 127
3, 165120, Note_on_c, 1, 49, 127
3, 166080, Note_off_c, 1, 71, 127
3, 166080, Note_off_c, 1, 66, 127
3, 166080, Note_off_c, 1, 61, 127
3, 166080, Note_off_c, 1, 49, 127
3, 166080, Note_on_c, 1, 72, 63
3, 166080, Note_on_c, 1, 71, 127
3, 166080, Note_on_c, 1, 66, 127
3, 166080, Note_on_c, 1, 62, 127
3, 166080, Note_on_c, 1, 50, 127
3, 167040, Note_off_c, 1, 72, 63
3, 167040, Note_off_c, 1, 71, 127
3, 167040, Note_off_c, 1, 66, 127
3, 167040, Note_off_c, 1, 62, 127
3, 167040, Note_off_c, 1, 50, 127
3, 167040, Note_on_c, 1, 71, 63
3, 167040, Note_on_c, 1, 70, 127
3, 167040, Note_on_c, 1, 66, 127
3, 167040, Note_on_c, 1, 61, 127
3, 167040, Note_on_c, 1, 58, 127
3, 167040, Note_on_c, 1, 46, 127
3, 167760, Note_off_c, 1, 71, 63
3, 167760, Note_off_c, 1, 70, 127
3, 167760, Note_off_c, 1, 61, 127
3, 167760, Note_on_c, 1, 61, 127
3, 168000, Note_on_c, 1, 70, 127
3, 168960, Note_off_c, 1, 66, 127
3, 168960, Note_off_c, 1, 58, 127
3, 168960, Note_off_c, 1, 46, 127
3, 168960, Note_off_c, 1, 61, 127
3, 168960, Note_off_c, 1, 70, 127
3, 168960, Note_on_c, 1, 70, 127
3, 168960, Note_on_c, 1, 66, 127
3, 168960, Note_on_c, 1, 61, 127
3, 168960, Note_on_c, 1, 58, 127
3, 168960, Note_on_c, 1, 46, 127
3, 169680, Note_off_c, 1, 61, 127
3, 169680, Note_off_c, 1, 58, 127
3, 169680, Note_on_c, 1, 61, 127
3, 169680, Note_on_c, 1, 58, 127
3, 169920, Note_off_c, 1, 70, 127
3, 169920, Note_off_c, 1, 66, 127
3, 169920, Note_off_c, 1, 46, 127
3, 169920, Note_off_c, 1, 61, 127
3, 169920, Note_off_c, 1, 58, 127
3, 169920, Note_on_c, 1, 66, 127
3, 169920, Note_on_c, 1, 46, 127
3, 170160, Note_off_c, 1, 66, 127
3, 170160, Note_on_c, 1, 58, 127
3, 170400, Note_off_c, 1, 58, 127
3, 170400, Note_on_c, 1, 61, 127
3, 170640, Note_off_c, 1, 61, 127
3, 170640, Note_on_c, 1, 66, 127
3, 170880, Note_off_c, 1, 66, 127
3, 170880, Note_on_c, 1, 70, 127
3, 170880, Note_on_c, 1, 66, 127
3, 170880, Note_on_c, 1, 61, 127
3, 170880, Note_on_c, 1, 58, 127
3, 171360, Note_off_c, 1, 46, 127
3, 171360, Note_on_c, 1, 46, 127
3, 171600, Note_off_c, 1, 70, 127
3, 171600, Note_off_c, 1, 66, 127
3, 171600, Note_off_c, 1, 61, 127
3, 171600, Note_off_c, 1, 58, 127
3, 171600, Note_on_c, 1, 70, 127
3, 171600, Note_on_c, 1, 66, 127
3, 171600, Note_on_c, 1, 61, 127
3, 171600, Note_on_c, 1, 58, 127
3, 171840, Note_off_c, 1, 46, 127
3, 171840, Note_on_c, 1, 46, 127
3, 172320, Note_off_c, 1, 70, 127
3, 172320, Note_off_c, 1, 66, 127
3, 172320, Note_off_c, 1, 61, 127
3, 172320, Note_off_c, 1, 58, 127
3, 172320, Note_off_c, 1, 46, 127
3, 172320, Note_on_c, 1, 70, 127
3, 172320, Note_on_c, 1, 66, 127
3, 172320, Note_on_c, 1, 61, 127
3, 172320, Note_on_c, 1, 58, 127
3, 172320, Note_on_c, 1, 46, 127
3, 172800, Note_off_c, 1, 70, 127
3, 172800, Note_off_c, 1, 66, 127
3, 172800, Note_off_c, 1, 61, 127
3, 172800, Note_off_c, 1, 58, 127
3, 172800, Note_off_c, 1, 46, 127
3, 172800, Note_on_c, 1, 71, 127
3, 172800, Note_on_c, 1, 66, 127
3, 172800, Note_on_c, 1, 62, 127
3, 172800, Note_on_c, 1, 59, 127
3, 172800, Note_on_c, 1, 47, 127
3, 173760, Note_off_c, 1, 71, 127
3, 173760, Note_off_c, 1, 66, 127
3, 173760, Note_off_c, 1, 62, 127
3, 173760, Note_off_c, 1, 59, 127
3, 173760, Note_off_c, 1, 47, 127
3, 174000, Note_on_c, 1, 59, 127
3, 174000, Note_on_c, 1, 47, 127
3, 174240, Note_off_c, 1, 59, 127
3, 174240, Note_on_c, 1, 62, 127
3, 174240, Note_on_c, 1, 59, 127
3, 174480, Note_off_c, 1, 62, 127
3, 174480, Note_off_c, 1, 59, 127
3, 174720, Note_off_c, 1, 47, 127
3, 174720, Note_on_c, 1, 71, 127
3, 174720, Note_on_c, 1, 66, 127
3, 174720, Note_on_c, 1, 62, 127
3, 174720, Note_on_c, 1, 59, 127
3, 174720, Note_on_c, 1, 47, 127
3, 175200, Note_off_c, 1, 47, 127
3, 175200, Note_on_c, 1, 47, 127
3, 175440, Note_off_c, 1, 71, 127
3, 175440, Note_off_c, 1, 66, 127
3, 175440, Note_off_c, 1, 62, 127
3, 175440, Note_off_c, 1, 59, 127
3, 175440, Note_on_c, 1, 59, 127
3, 175680, Note_off_c, 1, 47, 127
3, 175680, Note_off_c, 1, 59, 127
3, 175680, Note_on_c, 1, 71, 127
3, 175680, Note_on_c, 1, 66, 127
3, 175680, Note_on_c, 1, 62, 127
3, 175680, Note_on_c, 1, 59, 127
3, 175680, Note_on_c, 1, 47, 127
3, 176640, Note_off_c, 1, 71, 127
3, 176640, Note_off_c, 1, 66, 127
3, 176640, Note_off_c, 1, 62, 127
3, 176640, Note_off_c, 1, 59, 127
3, 176640, Note_off_c, 1, 47, 127
3, 176640, Note_on_c, 1, 71, 127
3, 176640, Note_on_c, 1, 66, 127
3, 176640, Note_on_c, 1, 61, 127
3, 176640, Note_on_c, 1, 49, 127
3, 177600, Note_off_c, 1, 71, 127
3, 177600, Note_off_c, 1, 66, 127
3, 177600, Note_off_c, 1, 61, 127
3, 177600, Note_off_c, 1, 49, 127
3, 177600, Note_on_c, 1, 72, 63
3, 177600, Note_on_c, 1, 71, 127
3, 177600, Note_on_c, 1, 66, 127
3, 177600, Note_on_c, 1, 62, 127
3, 177600, Note_on_c, 1, 50, 127
3, 178560, Note_off_c, 1, 72, 63
3, 178560, Note_off_c, 1, 71, 127
3, 178560, Note_off_c, 1, 66, 127
3, 178560, Note_off_c, 1, 62, 127
3, 178560, Note_off_c, 1, 50, 127
3, 178560, Note_on_c, 1, 71, 63
3, 178560, Note_on_c, 1, 70, 127
3, 178560, Note_on_c, 1, 66, 127
3, 178560, Note_on_c, 1, 61, 127
3, 178560, Note_on_c, 1, 58, 127
3, 178560, Note_on_c, 1, 46, 127
3, 179280, Note_off_c, 1, 71, 63
3, 179280, Note_off_c, 1, 70, 127
3, 179280, Note_off_c, 1, 61, 127
3, 179280, Note_on_c, 1, 61, 127
3, 179520, Note_on_c, 1, 70, 127
3, 180480, Note_off_c, 1, 66, 127
3, 180480, Note_off_c, 1, 58, 127
3, 180480, Note_off_c, 1, 46, 127
3, 180480, Note_off_c, 1, 61, 127
3, 180480, Note_off_c, 1, 70, 127
3, 180480, Note_on_c, 1, 70, 127
3, 180480, Note_on_c, 1, 66, 127
3, 180480, Note_on_c, 1, 61, 127
3, 180480, Note_on_c, 1, 58, 127
3, 180480, Note_on_c, 1, 46, 127
3, 181200, Note_off_c, 1, 61, 127
3, 181200, Note_off_c, 1, 58, 127
3, 181200, Note_on_c, 1, 61, 127
3, 181200, Note_on_c, 1, 58, 127
3, 181440, Note_off_c, 1, 70, 127
3, 181440, Note_off_c, 1, 66, 127
3, 181440, Note_off_c, 1, 46, 127
3, 181440, Note_off_c, 1, 61, 127
3, 181440, Note_off_c, 1, 58, 127
3, 181440, Note_on_c, 1, 66, 127
3, 181440, Note_on_c, 1, 46, 127
3, 181680, Note_off_c, 1, 66, 127
3, 181680, Note_on_c, 1, 58, 127
3, 181920, Note_off_c, 1, 58, 127
3, 181920, Note_on_c, 1, 61, 127
3, 182160, Note_off_c, 1, 61, 127
3, 182160, Note_on_c, 1, 66, 127
3, 182400, Note_off_c, 1, 66, 127
3, 182400, Note_on_c, 1, 70, 127
3, 182400, Note_on_c, 1, 66, 127
3, 182400, Note_on_c, 1, 61, 127
3, 182400, Note_on_c, 1, 58, 127
3, 182880, Note_off_c, 1, 46, 127
3, 182880, Note_on_c, 1, 46, 127
3, 183120, Note_off_c, 1, 70, 127
3, 183120, Note_off_c, 1, 66, 127
3, 183120, Note_off_c, 1, 61, 127
3, 183120, Note_off_c, 1, 58, 127
3, 183120, Note_on_c, 1, 70, 127
3, 183120, Note_on_c, 1, 66, 127
3, 183120, Note_on_c, 1, 61, 127
3, 183120, Note_on_c, 1, 58, 127
3, 183360, Note_off_c, 1, 46, 127
3, 183360, Note_on_c, 1, 46, 127
3, 183840, Note_off_c, 1, 70, 127
3, 183840, Note_off_c, 1, 66, 127
3, 183840, Note_off_c, 1, 61, 127
3, 183840, Note_off_c, 1, 58, 127
3, 183840, Note_off_c, 1, 46, 127
3, 183840, Note_on_c, 1, 70, 127
3, 183840, Note_on_c, 1, 66, 127
3, 183840, Note_on_c, 1, 61, 127
3, 183840, Note_on_c, 1, 58, 127
3, 183840, Note_on_c, 1, 46, 127
3, 184320, Note_off_c, 1, 70, 127
3, 184320, Note_off_c, 1, 66, 127
3, 184320, Note_off_c, 1, 61, 127
3, 184320, Note_off_c, 1, 58, 127
3, 184320, Note_off_c, 1, 46, 127
3, 184320, Note_on_c, 1, 75, 127
3, 184320, Note_on_c, 1, 68, 127
3, 184320, Note_on_c, 1, 63, 127
3, 188160, Note_off_c, 1, 75, 127
3, 188160, Note_off_c, 1, 68, 127
3, 188160, Note_off_c, 1, 63, 127
3, 215040, Note_on_c, 1, 56, 127
3, 215280, Note_off_c, 1, 56, 127
3, 215280, Note_on_c, 1, 62, 127
3, 215520, Note_off_c, 1, 62, 127
3, 215520, Note_on_c, 1, 67, 127
3, 215760, Note_off_c, 1, 67, 127
3, 215760, Note_on_c, 1, 56, 127
3, 216000, Note_off_c, 1, 56, 127
3, 216000, Note_on_c, 1, 72, 127
3, 216240, Note_off_c, 1, 72, 127
3, 216240, Note_on_c, 1, 74, 127
3, 216480, Note_off_c, 1, 74, 127
3, 216480, Note_on_c, 1, 79, 127
3, 216720, Note_off_c, 1, 79, 127
3, 216720, Note_on_c, 1, 68, 127
3, 216960, Note_off_c, 1, 68, 127
3, 216960, Note_on_c, 1, 84, 127
3, 217200, Note_off_c, 1, 84, 127
3, 217200, Note_on_c, 1, 68, 127
3, 217440, Note_off_c, 1, 68, 127
3, 217440, Note_on_c, 1, 79, 127
3, 217680, Note_off_c, 1, 79, 127
3, 217680, Note_on_c, 1, 74, 127
3, 217920, Note_off_c, 1, 74, 127
3, 217920, Note_on_c, 1, 72, 127
3, 218160, Note_off_c, 1, 72, 127
3, 218160, Note_on_c, 1, 56, 127
3, 218400, Note_off_c, 1, 56, 127
3, 218400, Note_on_c, 1, 67, 127
3, 218640, Note_off_c, 1, 67, 127
3, 218640, Note_on_c, 1, 62, 127
3, 218880, Note_off_c, 1, 62, 127
3, 218880, Note_on_c, 1, 56, 127
3, 219120, Note_off_c, 1, 56, 127
3, 219120, Note_on_c, 1, 62, 127
3, 219360, Note_off_c, 1, 62, 127
3, 219360, Note_on_c, 1, 67, 127
3, 219600, Note_off_c, 1, 67, 127
3, 219600, Note_on_c, 1, 56, 127
3, 219840, Note_off_c, 1, 56, 127
3, 219840, Note_on_c, 1, 72, 127
3, 220080, Note_off_c, 1, 72, 127
3, 220080, Note_on_c, 1, 74, 127
3, 220320, Note_off_c, 1, 74, 127
3, 220320, Note_on_c, 1, 79, 127
3, 220560, Note_off_c, 1, 79, 127
3, 220560, Note_on_c, 1, 68, 127
3, 220800, Note_off_c, 1, 68, 127
3, 220800, Note_on_c, 1, 84, 127
3, 221040, Note_off_c, 1, 84, 127
3, 221040, Note_on_c, 1, 68, 127
3, 221280, Note_off_c, 1, 68, 127
3, 221280, Note_on_c, 1, 79, 127
3, 221520, Note_off_c, 1, 79, 127
3, 221520, Note_on_c, 1, 74, 127
3, 221760, Note_off_c, 1, 74, 127
3, 221760, Note_on_c, 1, 72, 127
3, 222000, Note_off_c, 1, 72, 127
3, 222000, Note_on_c, 1, 56, 127
3, 222240, Note_off_c, 1, 56, 127
3, 222240, Note_on_c, 1, 67, 127
3, 222480, Note_off_c, 1, 67, 127
3, 222480, Note_on_c, 1, 62, 127
3, 222720, Note_off_c, 1, 62, 127
3, 222720, Note_on_c, 1, 53, 127
3, 222960, Note_off_c, 1, 53, 127
3, 222960, Note_on_c, 1, 60, 127
3, 223200, Note_off_c, 1, 60, 127
3, 223200, Note_on_c, 1, 62, 127
3, 223440, Note_off_c, 1, 62, 127
3, 223440, Note_on_c, 1, 63, 127
3, 223680, Note_off_c, 1, 63, 127
3, 223680, Note_on_c, 1, 53, 127
3, 223920, Note_off_c, 1, 53, 127
3, 223920, Note_on_c, 1, 72, 127
3, 224160, Note_off_c, 1, 72, 127
3, 224160, Note_on_c, 1, 74, 127
3, 224400, Note_off_c, 1, 74, 127
3, 224400, Note_on_c, 1, 75, 127
3, 224640, Note_off_c, 1, 75, 127
3, 224640, Note_on_c, 1, 65, 127
3, 224880, Note_off_c, 1, 65, 127
3, 224880, Note_on_c, 1, 84, 127
3, 225120, Note_off_c, 1, 84, 127
3, 225120, Note_on_c, 1, 65, 127
3, 225360, Note_off_c, 1, 65, 127
3, 225360, Note_on_c, 1, 75, 127
3, 225600, Note_off_c, 1, 75, 127
3, 225600, Note_on_c, 1, 74, 127
3, 225840, Note_off_c, 1, 74, 127
3, 225840, Note_on_c, 1, 72, 127
3, 226080, Note_off_c, 1, 72, 127
3, 226080, Note_on_c, 1, 53, 127
3, 226320, Note_off_c, 1, 53, 127
3, 226320, Note_on_c, 1, 63, 127
3, 226560, Note_off_c, 1, 63, 127
3, 226560, Note_on_c, 1, 62, 127
3, 226800, Note_off_c, 1, 62, 127
3, 226800, Note_on_c, 1, 60, 127
3, 227040, Note_off_c, 1, 60, 127
3, 227040, Note_on_c, 1, 53, 127
3, 227280, Note_off_c, 1, 53, 127
3, 227280, Note_on_c, 1, 60, 127
3, 227520, Note_off_c, 1, 60, 127
3, 227520, Note_on_c, 1, 62, 127
3, 227760, Note_off_c, 1, 62, 127
3, 227760, Note_on_c, 1, 63, 127
3, 228000, Note_off_c, 1, 63, 127
3, 228000, Note_on_c, 1, 53, 127
3, 228240, Note_off_c, 1, 53, 127
3, 228240, Note_on_c, 1, 72, 127
3, 228480, Note_off_c, 1, 72, 127
3, 228480, Note_on_c, 1, 74, 127
3, 228720, Note_off_c, 1, 74, 127
3, 228720, Note_on_c, 1, 75, 127
3, 228960, Note_off_c, 1, 75, 127
3, 228960, Note_on_c, 1, 65, 127
3, 229200, Note_off_c, 1, 65, 127
3, 229200, Note_on_c, 1, 84, 127
3, 229440, Note_off_c, 1, 84, 127
3, 229440, Note_on_c, 1, 65, 127
3, 229680, Note_off_c, 1, 65, 127
3, 229680, Note_on_c, 1, 75, 127
3, 229920, Note_off_c, 1, 75, 127
3, 229920, Note_on_c, 1, 74, 127
3, 230160, Note_off_c, 1, 74, 127
3, 230160, Note_on_c, 1, 72, 127
3, 230400, Note_off_c, 1, 72, 127
3, 230400, Note_on_c, 1, 56, 127
3, 230640, Note_off_c, 1, 56, 127
3, 230640, Note_on_c, 1, 62, 127
3, 230880, Note_off_c, 1, 62, 127
3, 230880, Note_on_c, 1, 67, 127
3, 231120, Note_off_c, 1, 67, 127
3, 231120, Note_on_c, 1, 56, 127
3, 231360, Note_off_c, 1, 56, 127
3, 231360, Note_on_c, 1, 72, 127
3, 231600, Note_off_c, 1, 72, 127
3, 231600, Note_on_c, 1, 74, 127
3, 231840, Note_off_c, 1, 74, 127
3, 231840, Note_on_c, 1, 79, 127
3, 232080, Note_off_c, 1, 79, 127
3, 232080, Note_on_c, 1, 68, 127
3, 232320, Note_off_c, 1, 68, 127
3, 232320, Note_on_c, 1, 84, 127
3, 232560, Note_off_c, 1, 84, 127
3, 232560, Note_on_c, 1, 68, 127
3, 232800, Note_off_c, 1, 68, 127
3, 232800, Note_on_c, 1, 79, 127
3, 233040, Note_off_c, 1, 79, 127
3, 233040, Note_on_c, 1, 74, 127
3, 233280, Note_off_c, 1, 74, 127
3, 233280, Note_on_c, 1, 72, 127
3, 233520, Note_off_c, 1, 72, 127
3, 233520, Note_on_c, 1, 56, 127
3, 233760, Note_off_c, 1, 56, 127
3, 233760, Note_on_c, 1, 67, 127
3, 234000, Note_off_c, 1, 67, 127
3, 234000, Note_on_c, 1, 62, 127
3, 234240, Note_off_c, 1, 62, 127
3, 234240, Note_on_c, 1, 56, 127
3, 234480, Note_off_c, 1, 56, 127
3, 234480, Note_on_c, 1, 62, 127
3, 234720, Note_off_c, 1, 62, 127
3, 234720, Note_on_c, 1, 67, 127
3, 234960, Note_off_c, 1, 67, 127
3, 234960, Note_on_c, 1, 56, 127
3, 235200, Note_off_c, 1, 56, 127
3, 235200, Note_on_c, 1, 72, 127
3, 235440, Note_off_c, 1, 72, 127
3, 235440, Note_on_c, 1, 74, 127
3, 235680, Note_off_c, 1, 74, 127
3, 235680, Note_on_c, 1, 79, 127
3, 235920, Note_off_c, 1, 79, 127
3, 235920, Note_on_c, 1, 68, 127
3, 236160, Note_off_c, 1, 68, 127
3, 236160, Note_on_c, 1, 84, 127
3, 236400, Note_off_c, 1, 84, 127
3, 236400, Note_on_c, 1, 68, 127
3, 236640, Note_off_c, 1, 68, 127
3, 236640, Note_on_c, 1, 79, 127
3, 236880, Note_off_c, 1, 79, 127
3, 236880, Note_on_c, 1, 74, 127
3, 237120, Note_off_c, 1, 74, 127
3, 237120, Note_on_c, 1, 72, 127
3, 237360, Note_off_c, 1, 72, 127
3, 237360, Note_on_c, 1, 56, 127
3, 237600, Note_off_c, 1, 56, 127
3, 237600, Note_on_c, 1, 67, 127
3, 237840, Note_off_c, 1, 67, 127
3, 237840, Note_on_c, 1, 62, 127
3, 238080, Note_off_c, 1, 62, 127
3, 238080, Note_on_c, 1, 53, 127
3, 238320, Note_off_c, 1, 53, 127
3, 238320, Note_on_c, 1, 60, 127
3, 238560, Note_off_c, 1, 60, 127
3, 238560, Note_on_c, 1, 62, 127
3, 238800, Note_off_c, 1, 62, 127
3, 238800, Note_on_c, 1, 63, 127
3, 239040, Note_off_c, 1, 63, 127
3, 239040, Note_on_c, 1, 53, 127
3, 239280, Note_off_c, 1, 53, 127
3, 239280, Note_on_c, 1, 72, 127
3, 239520, Note_off_c, 1, 72, 127
3, 239520, Note_on_c, 1, 74, 127
3, 239760, Note_off_c, 1, 74, 127
3, 239760, Note_on_c, 1, 75, 127
3, 240000, Note_off_c, 1, 75, 127
3, 240000, Note_on_c, 1, 65, 127
3, 240240, Note_off_c, 1, 65, 127
3, 240240, Note_on_c, 1, 84, 127
3, 240480, Note_off_c, 1, 84, 127
3, 240480, Note_on_c, 1, 65, 127
3, 240720, Note_off_c, 1, 65, 127
3, 240720, Note_on_c, 1, 75, 127
3, 240960, Note_off_c, 1, 75, 127
3, 240960, Note_on_c, 1, 74, 127
3, 241200, Note_off_c, 1, 74, 127
3, 241200, Note_on_c, 1, 72, 127
3, 241440, Note_off_c, 1, 72, 127
3, 241440, Note_on_c, 1, 53, 127
3, 241680, Note_off_c, 1, 53, 127
3, 241680, Note_on_c, 1, 63, 127
3, 241920, Note_off_c, 1, 63, 127
3, 241920, Note_on_c, 1, 62, 127
3, 242160, Note_off_c, 1, 62, 127
3, 242160, Note_on_c, 1, 60, 127
3, 242400, Note_off_c, 1, 60, 127
3, 242400, Note_on_c, 1, 53, 127
3, 242640, Note_off_c, 1, 53, 127
3, 242640, Note_on_c, 1, 60, 127
3, 242880, Note_off_c, 1, 60, 127
3, 242880, Note_on_c, 1, 62, 127
3, 243120, Note_off_c, 1, 62, 127
3, 243120, Note_on_c, 1, 63, 127
3, 243360, Note_off_c, 1, 63, 127
3, 243360, Note_on_c, 1, 53, 127
3, 243600, Note_off_c, 1, 53, 127
3, 243600, Note_on_c, 1, 72, 127
3, 243840, Note_off_c, 1, 72, 127
3, 243840, Note_on_c, 1, 74, 127
3, 244080, Note_off_c, 1, 74, 127
3, 244080, Note_on_c, 1, 75, 127
3, 244320, Note_off_c, 1, 75, 127
3, 244320, Note_on_c, 1, 65, 127
3, 244560, Note_off_c, 1, 65, 127
3, 244560, Note_on_c, 1, 84, 127
3, 244800, Note_off_c, 1, 84, 127
3, 244800, Note_on_c, 1, 65, 127
3, 245040, Note_off_c, 1, 65, 127
3, 245040, Note_on_c, 1, 75, 127
3, 245280, Note_off_c, 1, 75, 127
3, 245280, Note_on_c, 1, 74, 127
3, 245520, Note_off_c, 1, 74, 127
3, 245520, Note_on_c, 1, 72, 127
3, 245760, Note_off_c, 1, 72, 127
3, 245760, Note_on_c, 1, 56, 127
3, 246000, Note_off_c, 1, 56, 127
3, 246000, Note_on_c, 1, 62, 127
3, 246240, Note_off_c, 1, 62, 127
3, 246240, Note_on_c, 1, 67, 127
3, 246480, Note_off_c, 1, 67, 127
3, 246480, Note_on_c, 1, 56, 127
3, 246720, Note_off_c, 1, 56, 127
3, 246720, Note_on_c, 1, 72, 127
3, 246960, Note_off_c, 1, 72, 127
3, 246960, Note_on_c, 1, 74, 127
3, 247200, Note_off_c, 1, 74, 127
3, 247200, Note_on_c, 1, 79, 127
3, 247440, Note_off_c, 1, 79, 127
3, 247440, Note_on_c, 1, 68, 127
3, 247680, Note_off_c, 1, 68, 127
3, 247680, Note_on_c, 1, 84, 127
3, 247920, Note_off_c, 1, 84, 127
3, 247920, Note_on_c, 1, 68, 127
3, 248160, Note_off_c, 1, 68, 127
3, 248160, Note_on_c, 1, 79, 127
3, 248400, Note_off_c, 1, 79, 127
3, 248400, Note_on_c, 1, 74, 127
3, 248640, Note_off_c, 1, 74, 127
3, 248640, Note_on_c, 1, 72, 127
3, 248880, Note_off_c, 1, 72, 127
3, 248880, Note_on_c, 1, 56, 127
3, 249120, Note_off_c, 1, 56, 127
3, 249120, Note_on_c, 1, 67, 127
3, 249360, Note_off_c, 1, 67, 127
3, 249360, Note_on_c, 1, 62, 127
3, 249600, Note_off_c, 1, 62, 127
3, 249600, Note_on_c, 1, 56, 127
3, 249840, Note_off_c, 1, 56, 127
3, 249840, Note_on_c, 1, 62, 127
3, 250080, Note_off_c, 1, 62, 127
3, 250080, Note_on_c, 1, 67, 127
3, 250320, Note_off_c, 1, 67, 127
3, 250320, Note_on_c, 1, 56, 127
3, 250560, Note_off_c, 1, 56, 127
3, 250560, Note_on_c, 1, 72, 127
3, 250800, Note_off_c, 1, 72, 127
3, 250800, Note_on_c, 1, 74, 127
3, 251040, Note_off_c, 1, 74, 127
3, 251040, Note_on_c, 1, 79, 127
3, 251280, Note_off_c, 1, 79, 127
3, 251280, Note_on_c, 1, 68, 127
3, 251520, Note_off_c, 1, 68, 127
3, 251520, Note_on_c, 1, 84, 127
3, 251760, Note_off_c, 1, 84, 127
3, 251760, Note_on_c, 1, 68, 127
3, 252000, Note_off_c, 1, 68, 127
3, 252000, Note_on_c, 1, 79, 127
3, 252240, Note_off_c, 1, 79, 127
3, 252240, Note_on_c, 1, 74, 127
3, 252480, Note_off_c, 1, 74, 127
3, 252480, Note_on_c, 1, 72, 127
3, 252720, Note_off_c, 1, 72, 127
3, 252720, Note_on_c, 1, 56, 127
3, 252960, Note_off_c, 1, 56, 127
3, 252960, Note_on_c, 1, 67, 127
3, 253200, Note_off_c, 1, 67, 127
3, 253200, Note_on_c, 1, 62, 127
3, 253440, Note_off_c, 1, 62, 127
3, 253440, Note_on_c, 1, 53, 127
3, 253680, Note_off_c, 1, 53, 127
3, 253680, Note_on_c, 1, 60, 127
3, 253920, Note_off_c, 1, 60, 127
3, 253920, Note_on_c, 1, 62, 127
3, 254160, Note_off_c, 1, 62, 127
3, 254160, Note_on_c, 1, 63, 127
3, 254400, Note_off_c, 1, 63, 127
3, 254400, Note_on_c, 1, 53, 127
3, 254640, Note_off_c, 1, 53, 127
3, 254640, Note_on_c, 1, 72, 127
3, 254880, Note_off_c, 1, 72, 127
3, 254880, Note_on_c, 1, 74, 127
3, 255120, Note_off_c, 1, 74, 127
3, 255120, Note_on_c, 1, 75, 127
3, 255360, Note_off_c, 1, 75, 127
3, 255360, Note_on_c, 1, 65, 127
3, 255600, Note_off_c, 1, 65, 127
3, 255600, Note_on_c, 1, 84, 127
3, 255840, Note_off_c, 1, 84, 127
3, 255840, Note_on_c, 1, 65, 127
3, 256080, Note_off_c, 1, 65, 127
3, 256080, Note_on_c, 1, 75, 127
3, 256320, Note_off_c, 1, 75, 127
3, 256320, Note_on_c, 1, 74, 127
3, 256560, Note_off_c, 1, 74, 127
3, 256560, Note_on_c, 1, 72, 127
3, 256800, Note_off_c, 1, 72, 127
3, 256800, Note_on_c, 1, 53, 127
3, 257040, Note_off_c, 1, 53, 127
3, 257040, Note_on_c, 1, 63, 127
3, 257280, Note_off_c, 1, 63, 127
3, 257280, Note_on_c, 1, 62, 127
3, 257520, Note_off_c, 1, 62, 127
3, 257520, Note_on_c, 1, 60, 127
3, 257760, Note_off_c, 1, 60, 127
3, 257760, Note_on_c, 1, 53, 127
3, 258000, Note_off_c, 1, 53, 127
3, 258000, Note_on_c, 1, 60, 127
3, 258240, Note_off_c, 1, 60, 127
3, 258240, Note_on_c, 1, 62, 127
3, 258480, Note_off_c, 1, 62, 127
3, 258480, Note_on_c, 1, 63, 127
3, 258720, Note_off_c, 1, 63, 127
3, 258720, Note_on_c, 1, 53, 127
3, 258960, Note_off_c, 1, 53, 127
3, 258960, Note_on_c, 1, 72, 127
3, 259200, Note_off_c, 1, 72, 127
3, 259200, Note_on_c, 1, 74, 127
3, 259440, Note_off_c, 1, 74, 127
3, 259440, Note_on_c, 1, 75, 127
3, 259680, Note_off_c, 1, 75, 127
3, 259680, Note_on_c, 1, 65, 127
3, 259920, Note_off_c, 1, 65, 127
3, 259920, Note_on_c, 1, 84, 127
3, 260160, Note_off_c, 1, 84, 127
3, 260160, Note_on_c, 1, 65, 127
3, 260400, Note_off_c, 1, 65, 127
3, 260400, Note_on_c, 1, 75, 127
3, 260640, Note_off_c, 1, 75, 127
3, 260640, Note_on_c, 1, 74, 127
3, 260880, Note_off_c, 1, 74, 127
3, 260880, Note_on_c, 1, 72, 127
3, 261120, Note_off_c, 1, 72, 127
3, 261120, Note_on_c, 1, 56, 127
3, 261360, Note_off_c, 1, 56, 127
3, 261360, Note_on_c, 1, 62, 127
3, 261600, Note_off_c, 1, 62, 127
3, 261600, Note_on_c, 1, 67, 127
3, 261840, Note_off_c, 1, 67, 127
3, 261840, Note_on_c, 1, 56, 127
3, 262080, Note_off_c, 1, 56, 127
3, 262080, Note_on_c, 1, 72, 127
3, 262320, Note_off_c, 1, 72, 127
3, 262320, Note_on_c, 1, 74, 127
3, 262560, Note_off_c, 1, 74, 127
3, 262560, Note_on_c, 1, 79, 127
3, 262800, Note_off_c, 1, 79, 127
3, 262800, Note_on_c, 1, 68, 127
3, 263040, Note_off_c, 1, 68, 127
3, 263040, Note_on_c, 1, 84, 127
3, 263280, Note_off_c, 1, 84, 127
3, 263280, Note_on_c, 1, 68, 127
3, 263520, Note_off_c, 1, 68, 127
3, 263520, Note_on_c, 1, 79, 127
3, 263760, Note_off_c, 1, 79, 127
3, 263760, Note_on_c, 1, 74, 127
3, 264000, Note_off_c, 1, 74, 127
3, 264000, Note_on_c, 1, 72, 127
3, 264240, Note_off_c, 1, 72, 127
3, 264240, Note_on_c, 1, 56, 127
3, 264480, Note_off_c, 1, 56, 127
3, 264480, Note_on_c, 1, 67, 127
3, 264720, Note_off_c, 1, 67, 127
3, 264720, Note_on_c, 1, 62, 127
3, 264960, Note_off_c, 1, 62, 127
3, 264960, Note_on_c, 1, 56, 127
3, 265200, Note_off_c, 1, 56, 127
3, 265200, Note_on_c, 1, 62, 127
3, 265440, Note_off_c, 1, 62, 127
3, 265440, Note_on_c, 1, 67, 127
3, 265680, Note_off_c, 1, 67, 127
3, 265680, Note_on_c, 1, 56, 127
3, 265920, Note_off_c, 1, 56, 127
3, 265920, Note_on_c, 1, 72, 127
3, 266160, Note_off_c, 1, 72, 127
3, 266160, Note_on_c, 1, 74, 127
3, 266400, Note_off_c, 1, 74, 127
3, 266400, Note_on_c, 1, 79, 127
3, 266640, Note_off_c, 1, 79, 127
3, 266640, Note_on_c, 1, 68, 127
3, 266880, Note_off_c, 1, 68, 127
3, 266880, Note_on_c, 1, 84, 127
3, 267120, Note_off_c, 1, 84, 127
3, 267120, Note_on_c, 1, 68, 127
3, 267360, Note_off_c, 1, 68, 127
3, 267360, Note_on_c, 1, 79, 127
3, 267600, Note_off_c, 1, 79, 127
3, 267600, Note_on_c, 1, 74, 127
3, 267840, Note_off_c, 1, 74, 127
3, 267840, Note_on_c, 1, 72, 127
3, 268080, Note_off_c, 1, 72, 127
3, 268080, Note_on_c, 1, 56, 127
3, 268320, Note_off_c, 1, 56, 127
3, 268320, Note_on_c, 1, 67, 127
3, 268560, Note_off_c, 1, 67, 127
3, 268560, Note_on_c, 1, 62, 127
3, 268800, Note_off_c, 1, 62, 127
3, 268800, Note_on_c, 1, 53, 127
3, 269040, Note_off_c, 1, 53, 127
3, 269040, Note_on_c, 1, 60, 127
3, 269280, Note_off_c, 1, 60, 127
3, 269280, Note_on_c, 1, 62, 127
3, 269520, Note_off_c, 1, 62, 127
3, 269520, Note_on_c, 1, 63, 127
3, 269760, Note_off_c, 1, 63, 127
3, 269760, Note_on_c, 1, 53, 127
3, 270000, Note_off_c, 1, 53, 127
3, 270000, Note_on_c, 1, 72, 127
3, 270240, Note_off_c, 1, 72, 127
3, 270240, Note_on_c, 1, 74, 127
3, 270480, Note_off_c, 1, 74, 127
3, 270480, Note_on_c, 1, 75, 127
3, 270720, Note_off_c, 1, 75, 127
3, 270720, Note_on_c, 1, 65, 127
3, 270960, Note_off_c, 1, 65, 127
3, 270960, Note_on_c, 1, 84, 127
3, 271200, Note_off_c, 1, 84, 127
3, 271200, Note_on_c, 1, 65, 127
3, 271440, Note_off_c, 1, 65, 127
3, 271440, Note_on_c, 1, 75, 127
3, 271680, Note_off_c, 1, 75, 127
3, 271680, Note_on_c, 1, 74, 127
3, 271920, Note_off_c, 1, 74, 127
3, 271920, Note_on_c, 1, 72, 127
3, 272160, Note_off_c, 1, 72, 127
3, 272160, Note_on_c, 1, 53, 127
3, 272400, Note_off_c, 1, 53, 127
3, 272400, Note_on_c, 1, 63, 127
3, 272640, Note_off_c, 1, 63, 127
3, 272640, Note_on_c, 1, 62, 127
3, 272880, Note_off_c, 1, 62, 127
3, 272880, Note_on_c, 1, 60, 127
3, 273120, Note_off_c, 1, 60, 127
3, 273120, Note_on_c, 1, 53, 127
3, 273360, Note_off_c, 1, 53, 127
3, 273360, Note_on_c, 1, 60, 127
3, 273600, Note_off_c, 1, 60, 127
3, 273600, Note_on_c, 1, 62, 127
3, 273840, Note_off_c, 1, 62, 127
3, 273840, Note_on_c, 1, 63, 127
3, 274080, Note_off_c, 1, 63, 127
3, 274080, Note_on_c, 1, 53, 127
3, 274320, Note_off_c, 1, 53, 127
3, 274320, Note_on_c, 1, 72, 127
3, 274560, Note_off_c, 1, 72, 127
3, 274560, Note_on_c, 1, 74, 127
3, 274800, Note_off_c, 1, 74, 127
3, 274800, Note_on_c, 1, 75, 127
3, 275040, Note_off_c, 1, 75, 127
3, 275040, Note_on_c, 1, 65, 127
3, 275280, Note_off_c, 1, 65, 127
3, 275280, Note_on_c, 1, 84, 127
3, 275520, Note_off_c, 1, 84, 127
3, 275520, Note_on_c, 1, 65, 127
3, 275760, Note_off_c, 1, 65, 127
3, 275760, Note_on_c, 1, 75, 127
3, 276000, Note_off_c, 1, 75, 127
3, 276000, Note_on_c, 1, 74, 127
3, 276240, Note_off_c, 1, 74, 127
3, 276240, Note_on_c, 1, 72, 127
3, 276480, Note_off_c, 1, 72, 127
3, 276480, Note_on_c, 1, 56, 127
3, 276720, Note_off_c, 1, 56, 127
3, 276720, Note_on_c, 1, 62, 127
3, 276960, Note_off_c, 1, 62, 127
3, 276960, Note_on_c, 1, 67, 127
3, 277200, Note_off_c, 1, 67, 127
3, 277200, Note_on_c, 1, 56, 127
3, 277440, Note_off_c, 1, 56, 127
3, 277440, Note_on_c, 1, 72, 127
3, 277680, Note_off_c, 1, 72, 127
3, 277680, Note_on_c, 1, 74, 127
3, 277920, Note_off_c, 1, 74, 127
3, 277920, Note_on_c, 1, 79, 127
3, 278160, Note_off_c, 1, 79, 127
3, 278160, Note_on_c, 1, 68, 127
3, 278400, Note_off_c, 1, 68, 127
3, 278400, Note_on_c, 1, 84, 127
3, 278640, Note_off_c, 1, 84, 127
3, 278640, Note_on_c, 1, 68, 127
3, 278880, Note_off_c, 1, 68, 127
3, 278880, Note_on_c, 1, 79, 127
3, 279120, Note_off_c, 1, 79, 127
3, 279120, Note_on_c, 1, 74, 127
3, 279360, Note_off_c, 1, 74, 127
3, 279360, Note_on_c, 1, 72, 127
3, 279600, Note_off_c, 1, 72, 127
3, 279600, Note_on_c, 1, 56, 127
3, 279840, Note_off_c, 1, 56, 127
3, 279840, Note_on_c, 1, 67, 127
3, 280080, Note_off_c, 1, 67, 127
3, 280080, Note_on_c, 1, 62, 127
3, 280320, Note_off_c, 1, 62, 127
3, 280320, Note_on_c, 1, 56, 127
3, 280560, Note_off_c, 1, 56, 127
3, 280560, Note_on_c, 1, 62, 127
3, 280800, Note_off_c, 1, 62, 127
3, 280800, Note_on_c, 1, 67, 127
3, 281040, Note_off_c, 1, 67, 127
3, 281040, Note_on_c, 1, 56, 127
3, 281280, Note_off_c, 1, 56, 127
3, 281280, Note_on_c, 1, 72, 127
3, 281520, Note_off_c, 1, 72, 127
3, 281520, Note_on_c, 1, 74, 127
3, 281760, Note_off_c, 1, 74, 127
3, 281760, Note_on_c, 1, 79, 127
3, 282000, Note_off_c, 1, 79, 127
3, 282000, Note_on_c, 1, 68, 127
3, 282240, Note_off_c, 1, 68, 127
3, 282240, Note_on_c, 1, 84, 127
3, 282480, Note_off_c, 1, 84, 127
3, 282480, Note_on_c, 1, 68, 127
3, 282720, Note_off_c, 1, 68, 127
3, 282720, Note_on_c, 1, 79, 127
3, 282960, Note_off_c, 1, 79, 127
3, 282960, Note_on_c, 1, 74, 127
3, 283200, Note_off_c, 1, 74, 127
3, 283200, Note_on_c, 1, 72, 127
3, 283440, Note_off_c, 1, 72, 127
3, 283440, Note_on_c, 1, 56, 127
3, 283680, Note_off_c, 1, 56, 127
3, 283680, Note_on_c, 1, 67, 127
3, 283920, Note_off_c, 1, 67, 127
3, 283920, Note_on_c, 1, 62, 127
3, 284160, Note_off_c, 1, 62, 127
3, 284160, Note_on_c, 1, 53, 127
3, 284400, Note_off_c, 1, 53, 127
3, 284400, Note_on_c, 1, 60, 127
3, 284640, Note_off_c, 1, 60, 127
3, 284640, Note_on_c, 1, 62, 127
3, 284880, Note_off_c, 1, 62, 127
3, 284880, Note_on_c, 1, 63, 127
3, 285120, Note_off_c, 1, 63, 127
3, 285120, Note_on_c, 1, 53, 127
3, 285360, Note_off_c, 1, 53, 127
3, 285360, Note_on_c, 1, 72, 127
3, 285600, Note_off_c, 1, 72, 127
3, 285600, Note_on_c, 1, 74, 127
3, 285840, Note_off_c, 1, 74, 127
3, 285840, Note_on_c, 1, 75, 127
3, 286080, Note_off_c, 1, 75, 127
3, 286080, Note_on_c, 1, 65, 127
3, 286320, Note_off_c, 1, 65, 127
3, 286320, Note_on_c, 1, 84, 127
3, 286560, Note_off_c, 1, 84, 127
3, 286560, Note_on_c, 1, 65, 127
3, 286800, Note_off_c, 1, 65, 127
3, 286800, Note_on_c, 1, 75, 127
3, 287040, Note_off_c, 1, 75, 127
3, 287040, Note_on_c, 1, 74, 127
3, 287280, Note_off_c, 1, 74, 127
3, 287280, Note_on_c, 1, 72, 127
3, 287520, Note_off_c, 1, 72, 127
3, 287520, Note_on_c, 1, 53, 127
3, 287760, Note_off_c, 1, 53, 127
3, 287760, Note_on_c, 1, 63, 127
3, 288000, Note_off_c, 1, 63, 127
3, 288000, Note_on_c, 1, 62, 127
3, 288240, Note_off_c, 1, 62, 127
3, 288240, Note_on_c, 1, 60, 127
3, 288480, Note_off_c, 1, 60, 127
3, 288480, Note_on_c, 1, 53, 127
3, 288720, Note_off_c, 1, 53, 127
3, 288720, Note_on_c, 1, 60, 127
3, 288960, Note_off_c, 1, 60, 127
3, 288960, Note_on_c, 1, 62, 127
3, 289200, Note_off_c, 1, 62, 127
3, 289200, Note_on_c, 1, 63, 127
3, 289440, Note_off_c, 1, 63, 127
3, 289440, Note_on_c, 1, 53, 127
3, 289680, Note_off_c, 1, 53, 127
3, 289680, Note_on_c, 1, 72, 127
3, 289920, Note_off_c, 1, 72, 127
3, 289920, Note_on_c, 1, 74, 127
3, 290160, Note_off_c, 1, 74, 127
3, 290160, Note_on_c, 1, 75, 127
3, 290400, Note_off_c, 1, 75, 127
3, 290400, Note_on_c, 1, 65, 127
3, 290640, Note_off_c, 1, 65, 127
3, 290640, Note_on_c, 1, 84, 127
3, 290880, Note_off_c, 1, 84, 127
3, 290880, Note_on_c, 1, 65, 127
3, 291120, Note_off_c, 1, 65, 127
3, 291120, Note_on_c, 1, 75, 127
3, 291360, Note_off_c, 1, 75, 127
3, 291360, Note_on_c, 1, 74, 127
3, 291600, Note_off_c, 1, 74, 127
3, 291600, Note_on_c, 1, 72, 127
3, 291840, Note_off_c, 1, 72, 127
3, 291840, Note_on_c, 1, 56, 127
3, 292080, Note_off_c, 1, 56, 127
3, 292080, Note_on_c, 1, 62, 127
3, 292320, Note_off_c, 1, 62, 127
3, 292320, Note_on_c, 1, 67, 127
3, 292560, Note_off_c, 1, 67, 127
3, 292560, Note_on_c, 1, 56, 127
3, 292800, Note_off_c, 1, 56, 127
3, 292800, Note_on_c, 1, 72, 127
3, 293040, Note_off_c, 1, 72, 127
3, 293040, Note_on_c, 1, 74, 127
3, 293280, Note_off_c, 1, 74, 127
3, 293280, Note_on_c, 1, 79, 127
3, 293520, Note_off_c, 1, 79, 127
3, 293520, Note_on_c, 1, 68, 127
3, 293760, Note_off_c, 1, 68, 127
3, 293760, Note_on_c, 1, 84, 127
3, 294000, Note_off_c, 1, 84, 127
3, 294000, Note_on_c, 1, 68, 127
3, 294240, Note_off_c, 1, 68, 127
3, 294240, Note_on_c, 1, 79, 127
3, 294480, Note_off_c, 1, 79, 127
3, 294480, Note_on_c, 1, 74, 127
3, 294720, Note_off_c, 1, 74, 127
3, 294720, Note_on_c, 1, 72, 127
3, 294960, Note_off_c, 1, 72, 127
3, 294960, Note_on_c, 1, 56, 127
3, 295200, Note_off_c, 1, 56, 127
3, 295200, Note_on_c, 1, 67, 127
3, 295440, Note_off_c, 1, 67, 127
3, 295440, Note_on_c, 1, 62, 127
3, 295680, Note_off_c, 1, 62, 127
3, 295680, Note_on_c, 1, 56, 127
3, 295920, Note_off_c, 1, 56, 127
3, 295920, Note_on_c, 1, 62, 127
3, 296160, Note_off_c, 1, 62, 127
3, 296160, Note_on_c, 1, 67, 127
3, 296400, Note_off_c, 1, 67, 127
3, 296400, Note_on_c, 1, 56, 127
3, 296640, Note_off_c, 1, 56, 127
3, 296640, Note_on_c, 1, 72, 127
3, 296880, Note_off_c, 1, 72, 127
3, 296880, Note_on_c, 1, 74, 127
3, 297120, Note_off_c, 1, 74, 127
3, 297120, Note_on_c, 1, 79, 127
3, 297360, Note_off_c, 1, 79, 127
3, 297360, Note_on_c, 1, 68, 127
3, 297600, Note_off_c, 1, 68, 127
3, 297600, Note_on_c, 1, 84, 127
3, 297840, Note_off_c, 1, 84, 127
3, 297840, Note_on_c, 1, 68, 127
3, 298080, Note_off_c, 1, 68, 127
3, 298080, Note_on_c, 1, 79, 127
3, 298320, Note_off_c, 1, 79, 127
3, 298320, Note_on_c, 1, 74, 127
3, 298560, Note_off_c, 1, 74, 127
3, 298560, Note_on_c, 1, 72, 127
3, 298800, Note_off_c, 1, 72, 127
3, 298800, Note_on_c, 1, 56, 127
3, 299040, Note_off_c, 1, 56, 127
3, 299040, Note_on_c, 1, 67, 127
3, 299280, Note_off_c, 1, 67, 127
3, 299280, Note_on_c, 1, 62, 127
3, 299520, Note_off_c, 1, 62, 127
3, 299520, Note_on_c, 1, 53, 127
3, 299760, Note_off_c, 1, 53, 127
3, 299760, Note_on_c, 1, 60, 127
3, 300000, Note_off_c, 1, 60, 127
3, 300000, Note_on_c, 1, 62, 127
3, 300240, Note_off_c, 1, 62, 127
3, 300240, Note_on_c, 1, 63, 127
3, 300480, Note_off_c, 1, 63, 127
3, 300480, Note_on_c, 1, 53, 127
3, 300720, Note_off_c, 1, 53, 127
3, 300720, Note_on_c, 1, 72, 127
3, 300960, Note_off_c, 1, 72, 127
3, 300960, Note_on_c, 1, 74, 127
3, 301200, Note_off_c, 1, 74, 127
3, 301200, Note_on_c, 1, 75, 127
3, 301440, Note_off_c, 1, 75, 127
3, 301440, Note_on_c, 1, 65, 127
3, 301680, Note_off_c, 1, 65, 127
3, 301680, Note_on_c, 1, 84, 127
3, 301920, Note_off_c, 1, 84, 127
3, 301920, Note_on_c, 1, 65, 127
3, 302160, Note_off_c, 1, 65, 127
3, 302160, Note_on_c, 1, 75, 127
3, 302400, Note_off_c, 1, 75, 127
3, 302400, Note_on_c, 1, 74, 127
3, 302640, Note_off_c, 1, 74, 127
3, 302640, Note_on_c, 1, 72, 127
3, 302880, Note_off_c, 1, 72, 127
3, 302880, Note_on_c, 1, 53, 127
3, 303120, Note_off_c, 1, 53, 127
3, 303120, Note_on_c, 1, 63, 127
3, 303360, Note_off_c, 1, 63, 127
3, 303360, Note_on_c, 1, 62, 127
3, 303600, Note_off_c, 1, 62, 127
3, 303600, Note_on_c, 1, 60, 127
3, 303840, Note_off_c, 1, 60, 127
3, 303840, Note_on_c, 1, 53, 127
3, 304080, Note_off_c, 1, 53, 127
3, 304080, Note_on_c, 1, 60, 127
3, 304320, Note_off_c, 1, 60, 127
3, 304320, Note_on_c, 1, 62, 127
3, 304560, Note_off_c, 1, 62, 127
3, 304560, Note_on_c, 1, 63, 127
3, 304800, Note_off_c, 1, 63, 127
3, 304800, Note_on_c, 1, 53, 127
3, 305040, Note_off_c, 1, 53, 127
3, 305040, Note_on_c, 1, 72, 127
3, 305280, Note_off_c, 1, 72, 127
3, 305280, Note_on_c, 1, 74, 127
3, 305520, Note_off_c, 1, 74, 127
3, 305520, Note_on_c, 1, 75, 127
3, 305760, Note_off_c, 1, 75, 127
3, 305760, Note_on_c, 1, 65, 127
3, 306000, Note_off_c, 1, 65, 127
3, 306000, Note_on_c, 1, 84, 127
3, 306240, Note_off_c, 1, 84, 127
3, 306240, Note_on_c, 1, 65, 127
3, 306480, Note_off_c, 1, 65, 127
3, 306480, Note_on_c, 1, 75, 127
3, 306720, Note_off_c, 1, 75, 127
3, 306720, Note_on_c, 1, 74, 127
3, 306960, Note_off_c, 1, 74, 127
3, 306960, Note_on_c, 1, 72, 127
3, 307200, Note_off_c, 1, 72, 127
3, 307200, Note_on_c, 1, 56, 127
3, 307440, Note_off_c, 1, 56, 127
3, 307440, Note_on_c, 1, 62, 127
3, 307680, Note_off_c, 1, 62, 127
3, 307680, Note_on_c, 1, 67, 127
3, 307920, Note_off_c, 1, 67, 127
3, 307920, Note_on_c, 1, 56, 127
3, 308160, Note_off_c, 1, 56, 127
3, 308160, Note_on_c, 1, 72, 127
3, 308400, Note_off_c, 1, 72, 127
3, 308400, Note_on_c, 1, 74, 127
3, 308640, Note_off_c, 1, 74, 127
3, 308640, Note_on_c, 1, 79, 127
3, 308880, Note_off_c, 1, 79, 127
3, 308880, Note_on_c, 1, 68, 127
3, 309120, Note_off_c, 1, 68, 127
3, 309120, Note_on_c, 1, 84, 127
3, 309360, Note_off_c, 1, 84, 127
3, 309360, Note_on_c, 1, 68, 127
3, 309600, Note_off_c, 1, 68, 127
3, 309600, Note_on_c, 1, 79, 127
3, 309840, Note_off_c, 1, 79, 127
3, 309840, Note_on_c, 1, 74, 127
3, 310080, Note_off_c, 1, 74, 127
3, 310080, Note_on_c, 1, 72, 127
3, 310320, Note_off_c, 1, 72, 127
3, 310320, Note_on_c, 1, 56, 127
3, 310560, Note_off_c, 1, 56, 127
3, 310560, Note_on_c, 1, 67, 127
3, 310800, Note_off_c, 1, 67, 127
3, 310800, Note_on_c, 1, 62, 127
3, 311040, Note_off_c, 1, 62, 127
3, 311040, Note_on_c, 1, 56, 127
3, 311280, Note_off_c, 1, 56, 127
3, 311280, Note_on_c, 1, 62, 127
3, 311520, Note_off_c, 1, 62, 127
3, 311520, Note_on_c, 1, 67, 127
3, 311760, Note_off_c, 1, 67, 127
3, 311760, Note_on_c, 1, 56, 127
3, 312000, Note_off_c, 1, 56, 127
3, 312000, Note_on_c, 1, 72, 127
3, 312240, Note_off_c, 1, 72, 127
3, 312240, Note_on_c, 1, 74, 127
3, 312480, Note_off_c, 1, 74, 127
3, 312480, Note_on_c, 1, 79, 127
3, 312720, Note_off_c, 1, 79, 127
3, 312720, Note_on_c, 1, 68, 127
3, 312960, Note_off_c, 1, 68, 127
3, 312960, Note_on_c, 1, 84, 127
3, 313200, Note_off_c, 1, 84, 127
3, 313200, Note_on_c, 1, 68, 127
3, 313440, Note_off_c, 1, 68, 127
3, 313440, Note_on_c, 1, 79, 127
3, 313680, Note_off_c, 1, 79, 127
3, 313680, Note_on_c, 1, 74, 127
3, 313920, Note_off_c, 1, 74, 127
3, 313920, Note_on_c, 1, 72, 127
3, 314160, Note_off_c, 1, 72, 127
3, 314160, Note_on_c, 1, 56, 127
3, 314400, Note_off_c, 1, 56, 127
3, 314400, Note_on_c, 1, 67, 127
3, 314640, Note_off_c, 1, 67, 127
3, 314640, Note_on_c, 1, 62, 127
3, 314880, Note_off_c, 1, 62, 127
3, 314880, Note_on_c, 1, 53, 127
3, 315120, Note_off_c, 1, 53, 127
3, 315120, Note_on_c, 1, 60, 127
3, 315360, Note_off_c, 1, 60, 127
3, 315360, Note_on_c, 1, 62, 127
3, 315600, Note_off_c, 1, 62, 127
3, 315600, Note_on_c, 1, 63, 127
3, 315840, Note_off_c, 1, 63, 127
3, 315840, Note_on_c, 1, 53, 127
3, 316080, Note_off_c, 1, 53, 127
3, 316080, Note_on_c, 1, 72, 127
3, 316320, Note_off_c, 1, 72, 127
3, 316320, Note_on_c, 1, 74, 127
3, 316560, Note_off_c, 1, 74, 127
3, 316560, Note_on_c, 1, 75, 127
3, 316800, Note_off_c, 1, 75, 127
3, 316800, Note_on_c, 1, 65, 127
3, 317040, Note_off_c, 1, 65, 127
3, 317040, Note_on_c, 1, 84, 127
3, 317280, Note_off_c, 1, 84, 127
3, 317280, Note_on_c, 1, 65, 127
3, 317520, Note_off_c, 1, 65, 127
3, 317520, Note_on_c, 1, 75, 127
3, 317760, Note_off_c, 1, 75, 127
3, 317760, Note_on_c, 1, 74, 127
3, 318000, Note_off_c, 1, 74, 127
3, 318000, Note_on_c, 1, 72, 127
3, 318240, Note_off_c, 1, 72, 127
3, 318240, Note_on_c, 1, 53, 127
3, 318480, Note_off_c, 1, 53, 127
3, 318480, Note_on_c, 1, 63, 127
3, 318720, Note_off_c, 1, 63, 127
3, 318720, Note_on_c, 1, 62, 127
3, 318960, Note_off_c, 1, 62, 127
3, 318960, Note_on_c, 1, 60, 127
3, 319200, Note_off_c, 1, 60, 127
3, 319200, Note_on_c, 1, 53, 127
3, 319440, Note_off_c, 1, 53, 127
3, 319440, Note_on_c, 1, 60, 127
3, 319680, Note_off_c, 1, 60, 127
3, 319680, Note_on_c, 1, 62, 127
3, 319920, Note_off_c, 1, 62, 127
3, 319920, Note_on_c, 1, 63, 127
3, 320160, Note_off_c, 1, 63, 127
3, 320160, Note_on_c, 1, 53, 127
3, 320400, Note_off_c, 1, 53, 127
3, 320400, Note_on_c, 1, 72, 127
3, 320640, Note_off_c, 1, 72, 127
3, 320640, Note_on_c, 1, 74, 127
3, 320880, Note_off_c, 1, 74, 127
3, 320880, Note_on_c, 1, 75, 127
3, 321120, Note_off_c, 1, 75, 127
3, 321120, Note_on_c, 1, 65, 127
3, 321360, Note_off_c, 1, 65, 127
3, 321360, Note_on_c, 1, 84, 127
3, 321600, Note_off_c, 1, 84, 127
3, 321600, Note_on_c, 1, 65, 127
3, 321840, Note_off_c, 1, 65, 127
3, 321840, Note_on_c, 1, 75, 127
3, 322080, Note_off_c, 1, 75, 127
3, 322080, Note_on_c, 1, 74, 127
3, 322320, Note_off_c, 1, 74, 127
3, 322320, Note_on_c, 1, 72, 127
3, 322560, Note_off_c, 1, 72, 127
3, 322560, Note_on_c, 1, 56, 127
3, 322800, Note_off_c, 1, 56, 127
3, 322800, Note_on_c, 1, 62, 127
3, 323040, Note_off_c, 1, 62, 127
3, 323040, Note_on_c, 1, 67, 127
3, 323280, Note_off_c, 1, 67, 127
3, 323280, Note_on_c, 1, 56, 127
3, 323520, Note_off_c, 1, 56, 127
3, 323520, Note_on_c, 1, 72, 127
3, 323760, Note_off_c, 1, 72, 127
3, 323760, Note_on_c, 1, 74, 127
3, 324000, Note_off_c, 1, 74, 127
3, 324000, Note_on_c, 1, 79, 127
3, 324240, Note_off_c, 1, 79, 127
3, 324240, Note_on_c, 1, 68, 127
3, 324480, Note_off_c, 1, 68, 127
3, 324480, Note_on_c, 1, 84, 127
3, 324720, Note_off_c, 1, 84, 127
3, 324720, Note_on_c, 1, 68, 127
3, 324960, Note_off_c, 1, 68, 127
3, 324960, Note_on_c, 1, 79, 127
3, 325200, Note_off_c, 1, 79, 127
3, 325200, Note_on_c, 1, 74, 127
3, 325440, Note_off_c, 1, 74, 127
3, 325440, Note_on_c, 1, 72, 127
3, 325680, Note_off_c, 1, 72, 127
3, 325680, Note_on_c, 1, 56, 127
3, 325920, Note_off_c, 1, 56, 127
3, 325920, Note_on_c, 1, 67, 127
3, 326160, Note_off_c, 1, 67, 127
3, 326160, Note_on_c, 1, 62, 127
3, 326400, Note_off_c, 1, 62, 127
3, 326400, Note_on_c, 1, 56, 127
3, 326640, Note_off_c, 1, 56, 127
3, 326640, Note_on_c, 1, 62, 127
3, 326880, Note_off_c, 1, 62, 127
3, 326880, Note_on_c, 1, 67, 127
3, 327120, Note_off_c, 1, 67, 127
3, 327120, Note_on_c, 1, 56, 127
3, 327360, Note_off_c, 1, 56, 127
3, 327360, Note_on_c, 1, 72, 127
3, 327600, Note_off_c, 1, 72, 127
3, 327600, Note_on_c, 1, 74, 127
3, 327840, Note_off_c, 1, 74, 127
3, 327840, Note_on_c, 1, 79, 127
3, 328080, Note_off_c, 1, 79, 127
3, 328080, Note_on_c, 1, 68, 127
3, 328320, Note_off_c, 1, 68, 127
3, 328320, Note_on_c, 1, 84, 127
3, 328560, Note_off_c, 1, 84, 127
3, 328560, Note_on_c, 1, 68, 127
3, 328800, Note_off_c, 1, 68, 127
3, 328800, Note_on_c, 1, 79, 127
3, 329040, Note_off_c, 1, 79, 127
3, 329040, Note_on_c, 1, 74, 127
3, 329280, Note_off_c, 1, 74, 127
3, 329280, Note_on_c, 1, 72, 127
3, 329520, Note_off_c, 1, 72, 127
3, 329520, Note_on_c, 1, 56, 127
3, 329760, Note_off_c, 1, 56, 127
3, 329760, Note_on_c, 1, 67, 127
3, 330000, Note_off_c, 1, 67, 127
3, 330000, Note_on_c, 1, 62, 127
3, 330240, Note_off_c, 1, 62, 127
3, 330240, Note_on_c, 1, 53, 127
3, 330480, Note_off_c, 1, 53, 127
3, 330480, Note_on_c, 1, 60, 127
3, 330720, Note_off_c, 1, 60, 127
3, 330720, Note_on_c, 1, 62, 127
3, 330960, Note_off_c, 1, 62, 127
3, 330960, Note_on_c, 1, 63, 127
3, 331200, Note_off_c, 1, 63, 127
3, 331200, Note_on_c, 1, 53, 127
3, 331440, Note_off_c, 1, 53, 127
3, 331440, Note_on_c, 1, 72, 127
3, 331680, Note_off_c, 1, 72, 127
3, 331680, Note_on_c, 1, 74, 127
3, 331920, Note_off_c, 1, 74, 127
3, 331920, Note_on_c, 1, 75, 127
3, 332160, Note_off_c, 1, 75, 127
3, 332160, Note_on_c, 1, 65, 127
3, 332400, Note_off_c, 1, 65, 127
3, 332400, Note_on_c, 1, 84, 127
3, 332640, Note_off_c, 1, 84, 127
3, 332640, Note_on_c, 1, 65, 127
3, 332880, Note_off_c, 1, 65, 127
3, 332880, Note_on_c, 1, 75, 127
3, 333120, Note_off_c, 1, 75, 127
3, 333120, Note_on_c, 1, 74, 127
3, 333360, Note_off_c, 1, 74, 127
3, 333360, Note_on_c, 1, 72, 127
3, 333600, Note_off_c, 1, 72, 127
3, 333600, Note_on_c, 1, 53, 127
3, 333840, Note_off_c, 1, 53, 127
3, 333840, Note_on_c, 1, 63, 127
3, 334080, Note_off_c, 1, 63, 127
3, 334080, Note_on_c, 1, 62, 127
3, 334320, Note_off_c, 1, 62, 127
3, 334320, Note_on_c, 1, 60, 127
3, 334560, Note_off_c, 1, 60, 127
3, 334560, Note_on_c, 1, 53, 127
3, 334800, Note_off_c, 1, 53, 127
3, 334800, Note_on_c, 1, 60, 127
3, 335040, Note_off_c, 1, 60, 127
3, 335040, Note_on_c, 1, 62, 127
3, 335280, Note_off_c, 1, 62, 127
3, 335280, Note_on_c, 1, 63, 127
3, 335520, Note_off_c, 1, 63, 127
3, 335520, Note_on_c, 1, 53, 127
3, 335760, Note_off_c, 1, 53, 127
3, 335760, Note_on_c, 1, 72, 127
3, 336000, Note_off_c, 1, 72, 127
3, 336000, Note_on_c, 1, 74, 127
3, 336240, Note_off_c, 1, 74, 127
3, 336240, Note_on_c, 1, 75, 127
3, 336480, Note_off_c, 1, 75, 127
3, 336480, Note_on_c, 1, 65, 127
3, 336720, Note_off_c, 1, 65, 127
3, 336720, Note_on_c, 1, 84, 127
3, 336960, Note_off_c, 1, 84, 127
3, 336960, Note_on_c, 1, 65, 127
3, 337200, Note_off_c, 1, 65, 127
3, 337200, Note_on_c, 1, 75, 127
3, 337440, Note_off_c, 1, 75, 127
3, 337440, Note_on_c, 1, 74, 127
3, 337680, Note_off_c, 1, 74, 127
3, 337680, Note_on_c, 1, 72, 127
3, 337920, Note_off_c, 1, 72, 127
3, 337920, Note_on_c, 1, 56, 127
3, 338160, Note_off_c, 1, 56, 127
3, 338160, Note_on_c, 1, 62, 127
3, 338400, Note_off_c, 1, 62, 127
3, 338400, Note_on_c, 1, 67, 127
3, 338640, Note_off_c, 1, 67, 127
3, 338640, Note_on_c, 1, 56, 127
3, 338880, Note_off_c, 1, 56, 127
3, 338880, Note_on_c, 1, 72, 127
3, 339120, Note_off_c, 1, 72, 127
3, 339120, Note_on_c, 1, 74, 127
3, 339360, Note_off_c, 1, 74, 127
3, 339360, Note_on_c, 1, 79, 127
3, 339600, Note_off_c, 1, 79, 127
3, 339600, Note_on_c, 1, 68, 127
3, 339840, Note_off_c, 1, 68, 127
3, 339840, Note_on_c, 1, 84, 127
3, 340080, Note_off_c, 1, 84, 127
3, 340080, Note_on_c, 1, 68, 127
3, 340320, Note_off_c, 1, 68, 127
3, 340320, Note_on_c, 1, 79, 127
3, 340560, Note_off_c, 1, 79, 127
3, 340560, Note_on_c, 1, 74, 127
3, 340800, Note_off_c, 1, 74, 127
3, 340800, Note_on_c, 1, 72, 127
3, 341040, Note_off_c, 1, 72, 127
3, 341040, Note_on_c, 1, 56, 127
3, 341280, Note_off_c, 1, 56, 127
3, 341280, Note_on_c, 1, 67, 127
3, 341520, Note_off_c, 1, 67, 127
3, 341520, Note_on_c, 1, 62, 127
3, 341760, Note_off_c, 1, 62, 127
3, 341760, Note_on_c, 1, 56, 127
3, 342000, Note_off_c, 1, 56, 127
3, 342000, Note_on_c, 1, 62, 127
3, 342240, Note_off_c, 1, 62, 127
3, 342240, Note_on_c, 1, 67, 127
3, 342480, Note_off_c, 1, 67, 127
3, 342480, Note_on_c, 1, 56, 127
3, 342720, Note_off_c, 1, 56, 127
3, 342720, Note_on_c, 1, 72, 127
3, 342960, Note_off_c, 1, 72, 127
3, 342960, Note_on_c, 1, 74, 127
3, 343200, Note_off_c, 1, 74, 127
3, 343200, Note_on_c, 1, 79, 127
3, 343440, Note_off_c, 1, 79, 127
3, 343440, Note_on_c, 1, 68, 127
3, 343680, Note_off_c, 1, 68, 127
3, 343680, Note_on_c, 1, 84, 127
3, 343920, Note_off_c, 1, 84, 127
3, 343920, Note_on_c, 1, 68, 127
3, 344160, Note_off_c, 1, 68, 127
3, 344160, Note_on_c, 1, 79, 127
3, 344400, Note_off_c, 1, 79, 127
3, 344400, Note_on_c, 1, 74, 127
3, 344640, Note_off_c, 1, 74, 127
3, 344640, Note_on_c, 1, 72, 127
3, 344880, Note_off_c, 1, 72, 127
3, 344880, Note_on_c, 1, 56, 127
3, 345120, Note_off_c, 1, 56, 127
3, 345120, Note_on_c, 1, 67, 127
3, 345360, Note_off_c, 1, 67, 127
3, 345360, Note_on_c, 1, 62, 127
3, 345600, Note_off_c, 1, 62, 127
3, 345600, Note_on_c, 1, 53, 127
3, 345840, Note_off_c, 1, 53, 127
3, 345840, Note_on_c, 1, 60, 127
3, 346080, Note_off_c, 1, 60, 127
3, 346080, Note_on_c, 1, 62, 127
3, 346320, Note_off_c, 1, 62, 127
3, 346320, Note_on_c, 1, 63, 127
3, 346560, Note_off_c, 1, 63, 127
3, 346560, Note_on_c, 1, 53, 127
3, 346800, Note_off_c, 1, 53, 127
3, 346800, Note_on_c, 1, 72, 127
3, 347040, Note_off_c, 1, 72, 127
3, 347040, Note_on_c, 1, 74, 127
3, 347280, Note_off_c, 1, 74, 127
3, 347280, Note_on_c, 1, 75, 127
3, 347520, Note_off_c, 1, 75, 127
3, 347520, Note_on_c, 1, 65, 127
3, 347760, Note_off_c, 1, 65, 127
3, 347760, Note_on_c, 1, 84, 127
3, 348000, Note_off_c, 1, 84, 127
3, 348000, Note_on_c, 1, 65, 127
3, 348240, Note_off_c, 1, 65, 127
3, 348240, Note_on_c, 1, 75, 127
3, 348480, Note_off_c, 1, 75, 127
3, 348480, Note_on_c, 1, 74, 127
3, 348720, Note_off_c, 1, 74, 127
3, 348720, Note_on_c, 1, 72, 127
3, 348960, Note_off_c, 1, 72, 127
3, 348960, Note_on_c, 1, 53, 127
3, 349200, Note_off_c, 1, 53, 127
3, 349200, Note_on_c, 1, 63, 127
3, 349440, Note_off_c, 1, 63, 127
3, 349440, Note_on_c, 1, 62, 127
3, 349680, Note_off_c, 1, 62, 127
3, 349680, Note_on_c, 1, 60, 127
3, 349920, Note_off_c, 1, 60, 127
3, 349920, Note_on_c, 1, 53, 127
3, 350160, Note_off_c, 1, 53, 127
3, 350160, Note_on_c, 1, 60, 127
3, 350400, Note_off_c, 1, 60, 127
3, 350400, Note_on_c, 1, 62, 127
3, 350640, Note_off_c, 1, 62, 127
3, 350640, Note_on_c, 1, 63, 127
3, 350880, Note_off_c, 1, 63, 127
3, 350880, Note_on_c, 1, 53, 127
3, 351120, Note_off_c, 1, 53, 127
3, 351120, Note_on_c, 1, 72, 127
3, 351360, Note_off_c, 1, 72, 127
3, 351360, Note_on_c, 1, 74, 127
3, 351600, Note_off_c, 1, 74, 127
3, 351600, Note_on_c, 1, 75, 127
3, 351840, Note_off_c, 1, 75, 127
3, 351840, Note_on_c, 1, 65, 127
3, 352080, Note_off_c, 1, 65, 127
3, 352080, Note_on_c, 1, 84, 127
3, 352320, Note_off_c, 1, 84, 127
3, 352320, Note_on_c, 1, 65, 127
3, 352560, Note_off_c, 1, 65, 127
3, 352560, Note_on_c, 1, 75, 127
3, 352800, Note_off_c, 1, 75, 127
3, 352800, Note_on_c, 1, 74, 127
3, 353040, Note_off_c, 1, 74, 127
3, 353040, Note_on_c, 1, 72, 127
3, 353280, Note_off_c, 1, 72, 127
3, 353280, Note_on_c, 1, 56, 127
3, 353520, Note_off_c, 1, 56, 127
3, 353520, Note_on_c, 1, 62, 127
3, 353760, Note_off_c, 1, 62, 127
3, 353760, Note_on_c, 1, 67, 127
3, 354000, Note_off_c, 1, 67, 127
3, 354000, Note_on_c, 1, 56, 127
3, 354240, Note_off_c, 1, 56, 127
3, 354240, Note_on_c, 1, 72, 127
3, 354480, Note_off_c, 1, 72, 127
3, 354480, Note_on_c, 1, 74, 127
3, 354720, Note_off_c, 1, 74, 127
3, 354720, Note_on_c, 1, 79, 127
3, 354960, Note_off_c, 1, 79, 127
3, 354960, Note_on_c, 1, 68, 127
3, 355200, Note_off_c, 1, 68, 127
3, 355200, Note_on_c, 1, 84, 127
3, 355440, Note_off_c, 1, 84, 127
3, 355440, Note_on_c, 1, 68, 127
3, 355680, Note_off_c, 1, 68, 127
3, 355680, Note_on_c, 1, 79, 127
3, 355920, Note_off_c, 1, 79, 127
3, 355920, Note_on_c, 1, 74, 127
3, 356160, Note_off_c, 1, 74, 127
3, 356160, Note_on_c, 1, 72, 127
3, 356400, Note_off_c, 1, 72, 127
3, 356400, Note_on_c, 1, 56, 127
3, 356640, Note_off_c, 1, 56, 127
3, 356640, Note_on_c, 1, 67, 127
3, 356880, Note_off_c, 1, 67, 127
3, 356880, Note_on_c, 1, 62, 127
3, 357120, Note_off_c, 1, 62, 127
3, 357120, Note_on_c, 1, 56, 127
3, 357360, Note_off_c, 1, 56, 127
3, 357360, Note_on_c, 1, 62, 127
3, 357600, Note_off_c, 1, 62, 127
3, 357600, Note_on_c, 1, 67, 127
3, 357840, Note_off_c, 1, 67, 127
3, 357840, Note_on_c, 1, 56, 127
3, 358080, Note_off_c, 1, 56, 127
3, 358080, Note_on_c, 1, 72, 127
3, 358320, Note_off_c, 1, 72, 127
3, 358320, Note_on_c, 1, 74, 127
3, 358560, Note_off_c, 1, 74, 127
3, 358560, Note_on_c, 1, 79, 127
3, 358800, Note_off_c, 1, 79, 127
3, 358800, Note_on_c, 1, 68, 127
3, 359040, Note_off_c, 1, 68, 127
3, 359040, Note_on_c, 1, 84, 127
3, 359280, Note_off_c, 1, 84, 127
3, 359280, Note_on_c, 1, 68, 127
3, 359520, Note_off_c, 1, 68, 127
3, 359520, Note_on_c, 1, 79, 127
3, 359760, Note_off_c, 1, 79, 127
3, 359760, Note_on_c, 1, 74, 127
3, 360000, Note_off_c, 1, 74, 127
3, 360000, Note_on_c, 1, 72, 127
3, 360240, Note_off_c, 1, 72, 127
3, 360240, Note_on_c, 1, 56, 127
3, 360480, Note_off_c, 1, 56, 127
3, 360480, Note_on_c, 1, 67, 127
3, 360720, Note_off_c, 1, 67, 127
3, 360720, Note_on_c, 1, 62, 127
3, 360960, Note_off_c, 1, 62, 127
3, 360960, Note_on_c, 1, 53, 127
3, 361200, Note_off_c, 1, 53, 127
3, 361200, Note_on_c, 1, 60, 127
3, 361440, Note_off_c, 1, 60, 127
3, 361440, Note_on_c, 1, 62, 127
3, 361680, Note_off_c, 1, 62, 127
3, 361680, Note_on_c, 1, 63, 127
3, 361920, Note_off_c, 1, 63, 127
3, 361920, Note_on_c, 1, 53, 127
3, 362160, Note_off_c, 1, 53, 127
3, 362160, Note_on_c, 1, 72, 127
3, 362400, Note_off_c, 1, 72, 127
3, 362400, Note_on_c, 1, 74, 127
3, 362640, Note_off_c, 1, 74, 127
3, 362640, Note_on_c, 1, 75, 127
3, 362880, Note_off_c, 1, 75, 127
3, 362880, Note_on_c, 1, 65, 127
3, 363120, Note_off_c, 1, 65, 127
3, 363120, Note_on_c, 1, 84, 127
3, 363360, Note_off_c, 1, 84, 127
3, 363360, Note_on_c, 1, 65, 127
3, 363600, Note_off_c, 1, 65, 127
3, 363600, Note_on_c, 1, 75, 127
3, 363840, Note_off_c, 1, 75, 127
3, 363840, Note_on_c, 1, 74, 127
3, 364080, Note_off_c, 1, 74, 127
3, 364080, Note_on_c, 1, 72, 127
3, 364320, Note_off_c, 1, 72, 127
3, 364320, Note_on_c, 1, 53, 127
3, 364560, Note_off_c, 1, 53, 127
3, 364560, Note_on_c, 1, 63, 127
3, 364800, Note_off_c, 1, 63, 127
3, 364800, Note_on_c, 1, 62, 127
3, 365040, Note_off_c, 1, 62, 127
3, 365040, Note_on_c, 1, 60, 127
3, 365280, Note_off_c, 1, 60, 127
3, 365280, Note_on_c, 1, 53, 127
3, 365520, Note_off_c, 1, 53, 127
3, 365520, Note_on_c, 1, 60, 127
3, 365760, Note_off_c, 1, 60, 127
3, 365760, Note_on_c, 1, 62, 127
3, 366000, Note_off_c, 1, 62, 127
3, 366000, Note_on_c, 1, 63, 127
3, 366240, Note_off_c, 1, 63, 127
3, 366240, Note_on_c, 1, 53, 127
3, 366480, Note_off_c, 1, 53, 127
3, 366480, Note_on_c, 1, 72, 127
3, 366720, Note_off_c, 1, 72, 127
3, 366720, Note_on_c, 1, 74, 127
3, 366960, Note_off_c, 1, 74, 127
3, 366960, Note_on_c, 1, 75, 127
3, 367200, Note_off_c, 1, 75, 127
3, 367200, Note_on_c, 1, 65, 127
3, 367440, Note_off_c, 1, 65, 127
3, 367440, Note_on_c, 1, 84, 127
3, 367680, Note_off_c, 1, 84, 127
3, 367680, Note_on_c, 1, 65, 127
3, 367920, Note_off_c, 1, 65, 127
3, 367920, Note_on_c, 1, 75, 127
3, 368160, Note_off_c, 1, 75, 127
3, 368160, Note_on_c, 1, 74, 127
3, 368400, Note_off_c, 1, 74, 127
3, 368400, Note_on_c, 1, 72, 127
3, 368640, Note_off_c, 1, 72, 127
3, 368640, Note_on_c, 1, 56, 127
3, 368880, Note_off_c, 1, 56, 127
3, 368880, Note_on_c, 1, 62, 127
3, 369120, Note_off_c, 1, 62, 127
3, 369120, Note_on_c, 1, 67, 127
3, 369360, Note_off_c, 1, 67, 127
3, 369360, Note_on_c, 1, 56, 127
3, 369600, Note_off_c, 1, 56, 127
3, 369600, Note_on_c, 1, 72, 127
3, 369840, Note_off_c, 1, 72, 127
3, 369840, Note_on_c, 1, 74, 127
3, 370080, Note_off_c, 1, 74, 127
3, 370080, Note_on_c, 1, 79, 127
3, 370320, Note_off_c, 1, 79, 127
3, 370320, Note_on_c, 1, 68, 127
3, 370560, Note_off_c, 1, 68, 127
3, 370560, Note_on_c, 1, 84, 127
3, 370800, Note_off_c, 1, 84, 127
3, 370800, Note_on_c, 1, 68, 127
3, 371040, Note_off_c, 1, 68, 127
3, 371040, Note_on_c, 1, 79, 127
3, 371280, Note_off_c, 1, 79, 127
3, 371280, Note_on_c, 1, 74, 127
3, 371520, Note_off_c, 1, 74, 127
3, 371520, Note_on_c, 1, 72, 127
3, 371760, Note_off_c, 1, 72, 127
3, 371760, Note_on_c, 1, 56, 127
3, 372000, Note_off_c, 1, 56, 127
3, 372000, Note_on_c, 1, 67, 127
3, 372240, Note_off_c, 1, 67, 127
3, 372240, Note_on_c, 1, 62, 127
3, 372480, Note_off_c, 1, 62, 127
3, 372480, Note_on_c, 1, 56, 127
3, 372720, Note_off_c, 1, 56, 127
3, 372720, Note_on_c, 1, 62, 127
3, 372960, Note_off_c, 1, 62, 127
3, 372960, Note_on_c, 1, 67, 127
3, 373200, Note_off_c, 1, 67, 127
3, 373200, Note_on_c, 1, 56, 127
3, 373440, Note_off_c, 1, 56, 127
3, 373440, Note_on_c, 1, 72, 127
3, 373680, Note_off_c, 1, 72, 127
3, 373680, Note_on_c, 1, 74, 127
3, 373920, Note_off_c, 1, 74, 127
3, 373920, Note_on_c, 1, 79, 127
3, 374160, Note_off_c, 1, 79, 127
3, 374160, Note_on_c, 1, 68, 127
3, 374400, Note_off_c, 1, 68, 127
3, 374400, Note_on_c, 1, 84, 127
3, 374640, Note_off_c, 1, 84, 127
3, 374640, Note_on_c, 1, 68, 127
3, 374880, Note_off_c, 1, 68, 127
3, 374880, Note_on_c, 1, 79, 127
3, 375120, Note_off_c, 1, 79, 127
3, 375120, Note_on_c, 1, 74, 127
3, 375360, Note_off_c, 1, 74, 127
3, 375360, Note_on_c, 1, 72, 127
3, 375600, Note_off_c, 1, 72, 127
3, 375600, Note_on_c, 1, 56, 127
3, 375840, Note_off_c, 1, 56, 127
3, 375840, Note_on_c, 1, 67, 127
3, 376080, Note_off_c, 1, 67, 127
3, 376080, Note_on_c, 1, 62, 127
3, 376320, Note_off_c, 1, 62, 127
3, 376320, Note_on_c, 1, 53, 127
3, 376560, Note_off_c, 1, 53, 127
3, 376560, Note_on_c, 1, 60, 127
3, 376800, Note_off_c, 1, 60, 127
3, 376800, Note_on_c, 1, 62, 127
3, 377040, Note_off_c, 1, 62, 127
3, 377040, Note_on_c, 1, 63, 127
3, 377280, Note_off_c, 1, 63, 127
3, 377280, Note_on_c, 1, 53, 127
3, 377520, Note_off_c, 1, 53, 127
3, 377520, Note_on_c, 1, 72, 127
3, 377760, Note_off_c, 1, 72, 127
3, 377760, Note_on_c, 1, 74, 127
3, 378000, Note_off_c, 1, 74, 127
3, 378000, Note_on_c, 1, 75, 127
3, 378240, Note_off_c, 1, 75, 127
3, 378240, Note_on_c, 1, 65, 127
3, 378480, Note_off_c, 1, 65, 127
3, 378480, Note_on_c, 1, 84, 127
3, 378720, Note_off_c, 1, 84, 127
3, 378720, Note_on_c, 1, 65, 127
3, 378960, Note_off_c, 1, 65, 127
3, 378960, Note_on_c, 1, 75, 127
3, 379200, Note_off_c, 1, 75, 127
3, 379200, Note_on_c, 1, 74, 127
3, 379440, Note_off_c, 1, 74, 127
3, 379440, Note_on_c, 1, 72, 127
3, 379680, Note_off_c, 1, 72, 127
3, 379680, Note_on_c, 1, 53, 127
3, 379920, Note_off_c, 1, 53, 127
3, 379920, Note_on_c, 1, 63, 127
3, 380160, Note_off_c, 1, 63, 127
3, 380160, Note_on_c, 1, 62, 127
3, 380400, Note_off_c, 1, 62, 127
3, 380400, Note_on_c, 1, 60, 127
3, 380640, Note_off_c, 1, 60, 127
3, 380640, Note_on_c, 1, 53, 127
3, 380880, Note_off_c, 1, 53, 127
3, 380880, Note_on_c, 1, 60, 127
3, 381120, Note_off_c, 1, 60, 127
3, 381120, Note_on_c, 1, 62, 127
3, 381360, Note_off_c, 1, 62, 127
3, 381360, Note_on_c, 1, 63, 127
3, 381600, Note_off_c, 1, 63, 127
3, 381600, Note_on_c, 1, 53, 127
3, 381840, Note_off_c, 1, 53, 127
3, 381840, Note_on_c, 1, 72, 127
3, 382080, Note_off_c, 1, 72, 127
3, 382080, Note_on_c, 1, 74, 127
3, 382320, Note_off_c, 1, 74, 127
3, 382320, Note_on_c, 1, 75, 127
3, 382560, Note_off_c, 1, 75, 127
3, 382560, Note_on_c, 1, 65, 127
3, 382800, Note_off_c, 1, 65, 127
3, 382800, Note_on_c, 1, 84, 127
3, 383040, Note_off_c, 1, 84, 127
3, 383040, Note_on_c, 1, 65, 127
3, 383280, Note_off_c, 1, 65, 127
3, 383280, Note_on_c, 1, 75, 127
3, 383520, Note_off_c, 1, 75, 127
3, 383520, Note_on_c, 1, 74, 127
3, 383760, Note_off_c, 1, 74, 127
3, 383760, Note_on_c, 1, 72, 127
3, 384000, Note_off_c, 1, 72, 127
3, 384000, Note_on_c, 1, 56, 127
3, 384240, Note_off_c, 1, 56, 127
3, 384240, Note_on_c, 1, 62, 127
3, 384480, Note_off_c, 1, 62, 127
3, 384480, Note_on_c, 1, 67, 127
3, 384720, Note_off_c, 1, 67, 127
3, 384720, Note_on_c, 1, 56, 127
3, 384960, Note_off_c, 1, 56, 127
3, 384960, Note_on_c, 1, 72, 127
3, 385200, Note_off_c, 1, 72, 127
3, 385200, Note_on_c, 1, 74, 127
3, 385440, Note_off_c, 1, 74, 127
3, 385440, Note_on_c, 1, 79, 127
3, 385680, Note_off_c, 1, 79, 127
3, 385680, Note_on_c, 1, 68, 127
3, 385920, Note_off_c, 1, 68, 127
3, 385920, Note_on_c, 1, 84, 127
3, 386160, Note_off_c, 1, 84, 127
3, 386160, Note_on_c, 1, 68, 127
3, 386400, Note_off_c, 1, 68, 127
3, 386400, Note_on_c, 1, 79, 127
3, 386640, Note_off_c, 1, 79, 127
3, 386640, Note_on_c, 1, 74, 127
3, 386880, Note_off_c, 1, 74, 127
3, 386880, Note_on_c, 1, 72, 127
3, 387120, Note_off_c, 1, 72, 127
3, 387120, Note_on_c, 1, 56, 127
3, 387360, Note_off_c, 1, 56, 127
3, 387360, Note_on_c, 1, 67, 127
3, 387600, Note_off_c, 1, 67, 127
3, 387600, Note_on_c, 1, 62, 127
3, 387840, Note_off_c, 1, 62, 127
3, 387840, Note_on_c, 1, 56, 127
3, 388080, Note_off_c, 1, 56, 127
3, 388080, Note_on_c, 1, 62, 127
3, 388320, Note_off_c, 1, 62, 127
3, 388320, Note_on_c, 1, 67, 127
3, 388560, Note_off_c, 1, 67, 127
3, 388560, Note_on_c, 1, 56, 127
3, 388800, Note_off_c, 1, 56, 127
3, 388800, Note_on_c, 1, 72, 127
3, 389040, Note_off_c, 1, 72, 127
3, 389040, Note_on_c, 1, 74, 127
3, 389280, Note_off_c, 1, 74, 127
3, 389280, Note_on_c, 1, 79, 127
3, 389520, Note_off_c, 1, 79, 127
3, 389520, Note_on_c, 1, 68, 127
3, 389760, Note_off_c, 1, 68, 127
3, 389760, Note_on_c, 1, 84, 127
3, 390000, Note_off_c, 1, 84, 127
3, 390000, Note_on_c, 1, 68, 127
3, 390240, Note_off_c, 1, 68, 127
3, 390240, Note_on_c, 1, 79, 127
3, 390480, Note_off_c, 1, 79, 127
3, 390480, Note_on_c, 1, 74, 127
3, 390720, Note_off_c, 1, 74, 127
3, 390720, Note_on_c, 1, 72, 127
3, 390960, Note_off_c, 1, 72, 127
3, 390960, Note_on_c, 1, 56, 127
3, 391200, Note_off_c, 1, 56, 127
3, 391200, Note_on_c, 1, 67, 127
3, 391440, Note_off_c, 1, 67, 127
3, 391440, Note_on_c, 1, 62, 127
3, 391680, Note_off_c, 1, 62, 127
3, 391680, Note_on_c, 1, 53, 127
3, 391920, Note_off_c, 1, 53, 127
3, 391920, Note_on_c, 1, 60, 127
3, 392160, Note_off_c, 1, 60, 127
3, 392160, Note_on_c, 1, 62, 127
3, 392400, Note_off_c, 1, 62, 127
3, 392400, Note_on_c, 1, 63, 127
3, 392640, Note_off_c, 1, 63, 127
3, 392640, Note_on_c, 1, 53, 127
3, 392880, Note_off_c, 1, 53, 127
3, 392880, Note_on_c, 1, 72, 127
3, 393120, Note_off_c, 1, 72, 127
3, 393120, Note_on_c, 1, 74, 127
3, 393360, Note_off_c, 1, 74, 127
3, 393360, Note_on_c, 1, 75, 127
3, 393600, Note_off_c, 1, 75, 127
3, 393600, Note_on_c, 1, 65, 127
3, 393840, Note_off_c, 1, 65, 127
3, 393840, Note_on_c, 1, 84, 127
3, 394080, Note_off_c, 1, 84, 127
3, 394080, Note_on_c, 1, 65, 127
3, 394320, Note_off_c, 1, 65, 127
3, 394320, Note_on_c, 1, 75, 127
3, 394560, Note_off_c, 1, 75, 127
3, 394560, Note_on_c, 1, 74, 127
3, 394800, Note_off_c, 1, 74, 127
3, 394800, Note_on_c, 1, 72, 127
3, 395040, Note_off_c, 1, 72, 127
3, 395040, Note_on_c, 1, 53, 127
3, 395280, Note_off_c, 1, 53, 127
3, 395280, Note_on_c, 1, 63, 127
3, 395520, Note_off_c, 1, 63, 127
3, 395520, Note_on_c, 1, 62, 127
3, 395760, Note_off_c, 1, 62, 127
3, 395760, Note_on_c, 1, 60, 127
3, 396000, Note_off_c, 1, 60, 127
3, 396000, Note_on_c, 1, 53, 127
3, 396240, Note_off_c, 1, 53, 127
3, 396240, Note_on_c, 1, 60, 127
3, 396480, Note_off_c, 1, 60, 127
3, 396480, Note_on_c, 1, 62, 127
3, 396720, Note_off_c, 1, 62, 127
3, 396720, Note_on_c, 1, 63, 127
3, 396960, Note_off_c, 1, 63, 127
3, 396960, Note_on_c, 1, 53, 127
3, 397200, Note_off_c, 1, 53, 127
3, 397200, Note_on_c, 1, 72, 127
3, 397440, Note_off_c, 1, 72, 127
3, 397440, Note_on_c, 1, 74, 127
3, 397680, Note_off_c, 1, 74, 127
3, 397680, Note_on_c, 1, 75, 127
3, 397920, Note_off_c, 1, 75, 127
3, 397920, Note_on_c, 1, 65, 127
3, 398160, Note_off_c, 1, 65, 127
3, 398160, Note_on_c, 1, 84, 127
3, 398400, Note_off_c, 1, 84, 127
3, 398400, Note_on_c, 1, 65, 127
3, 398640, Note_off_c, 1, 65, 127
3, 398640, Note_on_c, 1, 75, 127
3, 398880, Note_off_c, 1, 75, 127
3, 398880, Note_on_c, 1, 74, 127
3, 399120, Note_off_c, 1, 74, 127
3, 399120, Note_on_c, 1, 72, 127
3, 399360, Note_off_c, 1, 72, 127
3, 399360, Note_on_c, 1, 56, 127
3, 399600, Note_off_c, 1, 56, 127
3, 399600, Note_on_c, 1, 62, 127
3, 399840, Note_off_c, 1, 62, 127
3, 399840, Note_on_c, 1, 67, 127
3, 400080, Note_off_c, 1, 67, 127
3, 400080, Note_on_c, 1, 56, 127
3, 400320, Note_off_c, 1, 56, 127
3, 400320, Note_on_c, 1, 72, 127
3, 400560, Note_off_c, 1, 72, 127
3, 400560, Note_on_c, 1, 74, 127
3, 400800, Note_off_c, 1, 74, 127
3, 400800, Note_on_c, 1, 79, 127
3, 401040, Note_off_c, 1, 79, 127
3, 401040, Note_on_c, 1, 68, 127
3, 401280, Note_off_c, 1, 68, 127
3, 401280, Note_on_c, 1, 84, 127
3, 401520, Note_off_c, 1, 84, 127
3, 401520, Note_on_c, 1, 68, 127
3, 401760, Note_off_c, 1, 68, 127
3, 401760, Note_on_c, 1, 79, 127
3, 402000, Note_off_c, 1, 79, 127
3, 402000, Note_on_c, 1, 74, 127
3, 402240, Note_off_c, 1, 74, 127
3, 402240, Note_on_c, 1, 72, 127
3, 402480, Note_off_c, 1, 72, 127
3, 402480, Note_on_c, 1, 56, 127
3, 402720, Note_off_c, 1, 56, 127
3, 402720, Note_on_c, 1, 67, 127
3, 402960, Note_off_c, 1, 67, 127
3, 402960, Note_on_c, 1, 62, 127
3, 403200, Note_off_c, 1, 62, 127
3, 403200, Note_on_c, 1, 56, 127
3, 403440, Note_off_c, 1, 56, 127
3, 403440, Note_on_c, 1, 62, 127
3, 403680, Note_off_c, 1, 62, 127
3, 403680, Note_on_c, 1, 67, 127
3, 403920, Note_off_c, 1, 67, 127
3, 403920, Note_on_c, 1, 56, 127
3, 404160, Note_off_c, 1, 56, 127
3, 404160, Note_on_c, 1, 72, 127
3, 404400, Note_off_c, 1, 72, 127
3, 404400, Note_on_c, 1, 74, 127
3, 404640, Note_off_c, 1, 74, 127
3, 404640, Note_on_c, 1, 79, 127
3, 404880, Note_off_c, 1, 79, 127
3, 404880, Note_on_c, 1, 68, 127
3, 405120, Note_off_c, 1, 68, 127
3, 405120, Note_on_c, 1, 84, 127
3, 405360, Note_off_c, 1, 84, 127
3, 405360, Note_on_c, 1, 68, 127
3, 405600, Note_off_c, 1, 68, 127
3, 405600, Note_on_c, 1, 79, 127
3, 405840, Note_off_c, 1, 79, 127
3, 405840, Note_on_c, 1, 74, 127
3, 406080, Note_off_c, 1, 74, 127
3, 406080, Note_on_c, 1, 72, 127
3, 406320, Note_off_c, 1, 72, 127
3, 406320, Note_on_c, 1, 56, 127
3, 406560, Note_off_c, 1, 56, 127
3, 406560, Note_on_c, 1, 67, 127
3, 406800, Note_off_c, 1, 67, 127
3, 406800, Note_on_c, 1, 62, 127
3, 407040, Note_off_c, 1, 62, 127
3, 407040, Note_on_c, 1, 53, 127
3, 407280, Note_off_c, 1, 53, 127
3, 407280, Note_on_c, 1, 60, 127
3, 407520, Note_off_c, 1, 60, 127
3, 407520, Note_on_c, 1, 62, 127
3, 407760, Note_off_c, 1, 62, 127
3, 407760, Note_on_c, 1, 63, 127
3, 408000, Note_off_c, 1, 63, 127
3, 408000, Note_on_c, 1, 53, 127
3, 408240, Note_off_c, 1, 53, 127
3, 408240, Note_on_c, 1, 72, 127
3, 408480, Note_off_c, 1, 72, 127
3, 408480, Note_on_c, 1, 74, 127
3, 408720, Note_off_c, 1, 74, 127
3, 408720, Note_on_c, 1, 75, 127
3, 408960, Note_off_c, 1, 75, 127
3, 408960, Note_on_c, 1, 65, 127
3, 409200, Note_off_c, 1, 65, 127
3, 409200, Note_on_c, 1, 84, 127
3, 409440, Note_off_c, 1, 84, 127
3, 409440, Note_on_c, 1, 65, 127
3, 409680, Note_off_c, 1, 65, 127
3, 409680, Note_on_c, 1, 75, 127
3, 409920, Note_off_c, 1, 75, 127
3, 409920, Note_on_c, 1, 74, 127
3, 410160, Note_off_c, 1, 74, 127
3, 410160, Note_on_c, 1, 72, 127
3, 410400, Note_off_c, 1, 72, 127
3, 410400, Note_on_c, 1, 53, 127
3, 410640, Note_off_c, 1, 53, 127
3, 410640, Note_on_c, 1, 63, 127
3, 410880, Note_off_c, 1, 63, 127
3, 410880, Note_on_c, 1, 62, 127
3, 411120, Note_off_c, 1, 62, 127
3, 411120, Note_on_c, 1, 60, 127
3, 411360, Note_off_c, 1, 60, 127
3, 411360, Note_on_c, 1, 53, 127
3, 411600, Note_off_c, 1, 53, 127
3, 411600, Note_on_c, 1, 60, 127
3, 411840, Note_off_c, 1, 60, 127
3, 411840, Note_on_c, 1, 62, 127
3, 412080, Note_off_c, 1, 62, 127
3, 412080, Note_on_c, 1, 63, 127
3, 412320, Note_off_c, 1, 63, 127
3, 412320, Note_on_c, 1, 53, 127
3, 412560, Note_off_c, 1, 53, 127
3, 412560, Note_on_c, 1, 72, 127
3, 412800, Note_off_c, 1, 72, 127
3, 412800, Note_on_c, 1, 74, 127
3, 413040, Note_off_c, 1, 74, 127
3, 413040, Note_on_c, 1, 75, 127
3, 413280, Note_off_c, 1, 75, 127
3, 413280, Note_on_c, 1, 65, 127
3, 413520, Note_off_c, 1, 65, 127
3, 413520, Note_on_c, 1, 84, 127
3, 413760, Note_off_c, 1, 84, 127
3, 413760, Note_on_c, 1, 65, 127
3, 414000, Note_off_c, 1, 65, 127
3, 414000, Note_on_c, 1, 75, 127
3, 414240, Note_off_c, 1, 75, 127
3, 414240, Note_on_c, 1, 74, 127
3, 414480, Note_off_c, 1, 74, 127
3, 414480, Note_on_c, 1, 72, 127
3, 414720, Note_off_c, 1, 72, 127
3, 414720, Note_on_c, 1, 56, 127
3, 414960, Note_off_c, 1, 56, 127
3, 414960, Note_on_c, 1, 62, 127
3, 415200, Note_off_c, 1, 62, 127
3, 415200, Note_on_c, 1, 67, 127
3, 415440, Note_off_c, 1, 67, 127
3, 415440, Note_on_c, 1, 56, 127
3, 415680, Note_off_c, 1, 56, 127
3, 415680, Note_on_c, 1, 72, 127
3, 415920, Note_off_c, 1, 72, 127
3, 415920, Note_on_c, 1, 74, 127
3, 416160, Note_off_c, 1, 74, 127
3, 416160, Note_on_c, 1, 79, 127
3, 416400, Note_off_c, 1, 79, 127
3, 416400, Note_on_c, 1, 68, 127
3, 416640, Note_off_c, 1, 68, 127
3, 416640, Note_on_c, 1, 84, 127
3, 416880, Note_off_c, 1, 84, 127
3, 416880, Note_on_c, 1, 68, 127
3, 417120, Note_off_c, 1, 68, 127
3, 417120, Note_on_c, 1, 79, 127
3, 417360, Note_off_c, 1, 79, 127
3, 417360, Note_on_c, 1, 74, 127
3, 417600, Note_off_c, 1, 74, 127
3, 417600, Note_on_c, 1, 72, 127
3, 417840, Note_off_c, 1, 72, 127
3, 417840, Note_on_c, 1, 56, 127
3, 418080, Note_off_c, 1, 56, 127
3, 418080, Note_on_c, 1, 67, 127
3, 418320, Note_off_c, 1, 67, 127
3, 418320, Note_on_c, 1, 62, 127
3, 418560, Note_off_c, 1, 62, 127
3, 418560, Note_on_c, 1, 56, 127
3, 418800, Note_off_c, 1, 56, 127
3, 418800, Note_on_c, 1, 62, 127
3, 419040, Note_off_c, 1, 62, 127
3, 419040, Note_on_c, 1, 67, 127
3, 419280, Note_off_c, 1, 67, 127
3, 419280, Note_on_c, 1, 56, 127
3, 419520, Note_off_c, 1, 56, 127
3, 419520, Note_on_c, 1, 72, 127
3, 419760, Note_off_c, 1, 72, 127
3, 419760, Note_on_c, 1, 74, 127
3, 420000, Note_off_c, 1, 74, 127
3, 420000, Note_on_c, 1, 79, 127
3, 420240, Note_off_c, 1, 79, 127
3, 420240, Note_on_c, 1, 68, 127
3, 420480, Note_off_c, 1, 68, 127
3, 420480, Note_on_c, 1, 84, 127
3, 420720, Note_off_c, 1, 84, 127
3, 420720, Note_on_c, 1, 68, 127
3, 420960, Note_off_c, 1, 68, 127
3, 420960, Note_on_c, 1, 79, 127
3, 421200, Note_off_c, 1, 79, 127
3, 421200, Note_on_c, 1, 74, 127
3, 421440, Note_off_c, 1, 74, 127
3, 421440, Note_on_c, 1, 72, 127
3, 421680, Note_off_c, 1, 72, 127
3, 421680, Note_on_c, 1, 56, 127
3, 421920, Note_off_c, 1, 56, 127
3, 421920, Note_on_c, 1, 67, 127
3, 422160, Note_off_c, 1, 67, 127
3, 422160, Note_on_c, 1, 62, 127
3, 422400, Note_off_c, 1, 62, 127
3, 422400, Note_on_c, 1, 53, 127
3, 422640, Note_off_c, 1, 53, 127
3, 422640, Note_on_c, 1, 60, 127
3, 422880, Note_off_c, 1, 60, 127
3, 422880, Note_on_c, 1, 62, 127
3, 423120, Note_off_c, 1, 62, 127
3, 423120, Note_on_c, 1, 63, 127
3, 423360, Note_off_c, 1, 63, 127
3, 423360, Note_on_c, 1, 53, 127
3, 423600, Note_off_c, 1, 53, 127
3, 423600, Note_on_c, 1, 72, 127
3, 423840, Note_off_c, 1, 72, 127
3, 423840, Note_on_c, 1, 74, 127
3, 424080, Note_off_c, 1, 74, 127
3, 424080, Note_on_c, 1, 75, 127
3, 424320, Note_off_c, 1, 75, 127
3, 424320, Note_on_c, 1, 65, 127
3, 424560, Note_off_c, 1, 65, 127
3, 424560, Note_on_c, 1, 84, 127
3, 424800, Note_off_c, 1, 84, 127
3, 424800, Note_on_c, 1, 65, 127
3, 425040, Note_off_c, 1, 65, 127
3, 425040, Note_on_c, 1, 75, 127
3, 425280, Note_off_c, 1, 75, 127
3, 425280, Note_on_c, 1, 74, 127
3, 425520, Note_off_c, 1, 74, 127
3, 425520, Note_on_c, 1, 72, 127
3, 425760, Note_off_c, 1, 72, 127
3, 425760, Note_on_c, 1, 53, 127
3, 426000, Note_off_c, 1, 53, 127
3, 426000, Note_on_c, 1, 63, 127
3, 426240, Note_off_c, 1, 63, 127
3, 426240, Note_on_c, 1, 62, 127
3, 426480, Note_off_c, 1, 62, 127
3, 426480, Note_on_c, 1, 60, 127
3, 426720, Note_off_c, 1, 60, 127
3, 426720, Note_on_c, 1, 53, 127
3, 426960, Note_off_c, 1, 53, 127
3, 426960, Note_on_c, 1, 60, 127
3, 427200, Note_off_c, 1, 60, 127
3, 427200, Note_on_c, 1, 62, 127
3, 427440, Note_off_c, 1, 62, 127
3, 427440, Note_on_c, 1, 63, 127
3, 427680, Note_off_c, 1, 63, 127
3, 427680, Note_on_c, 1, 53, 127
3, 427920, Note_off_c, 1, 53, 127
3, 427920, Note_on_c, 1, 72, 127
3, 428160, Note_off_c, 1, 72, 127
3, 428160, Note_on_c, 1, 74, 127
3, 428400, Note_off_c, 1, 74, 127
3, 428400, Note_on_c, 1, 75, 127
3, 428640, Note_off_c, 1, 75, 127
3, 428640, Note_on_c, 1, 65, 127
3, 428880, Note_off_c, 1, 65, 127
3, 428880, Note_on_c, 1, 84, 127
3, 429120, Note_off_c, 1, 84, 127
3, 429120, Note_on_c, 1, 65, 127
3, 429360, Note_off_c, 1, 65, 127
3, 429360, Note_on_c, 1, 75, 127
3, 429600, Note_off_c, 1, 75, 127
3, 429600, Note_on_c, 1, 74, 127
3, 429840, Note_off_c, 1, 74, 127
3, 429840, Note_on_c, 1, 72, 127
3, 430080, Note_off_c, 1, 72, 127
3, 430080, Note_on_c, 1, 56, 127
3, 430320, Note_off_c, 1, 56, 127
3, 430320, Note_on_c, 1, 62, 127
3, 430560, Note_off_c, 1, 62, 127
3, 430560, Note_on_c, 1, 67, 127
3, 430800, Note_off_c, 1, 67, 127
3, 430800, Note_on_c, 1, 56, 127
3, 431040, Note_off_c, 1, 56, 127
3, 431040, Note_on_c, 1, 72, 127
3, 431280, Note_off_c, 1, 72, 127
3, 431280, Note_on_c, 1, 74, 127
3, 431520, Note_off_c, 1, 74, 127
3, 431520, Note_on_c, 1, 79, 127
3, 431760, Note_off_c, 1, 79, 127
3, 431760, Note_on_c, 1, 68, 127
3, 432000, Note_off_c, 1, 68, 127
3, 432000, Note_on_c, 1, 84, 127
3, 432240, Note_off_c, 1, 84, 127
3, 432240, Note_on_c, 1, 68, 127
3, 432480, Note_off_c, 1, 68, 127
3, 432480, Note_on_c, 1, 79, 127
3, 432720, Note_off_c, 1, 79, 127
3, 432720, Note_on_c, 1, 74, 127
3, 432960, Note_off_c, 1, 74, 127
3, 432960, Note_on_c, 1, 72, 127
3, 433200, Note_off_c, 1, 72, 127
3, 433200, Note_on_c, 1, 56, 127
3, 433440, Note_off_c, 1, 56, 127
3, 433440, Note_on_c, 1, 67, 127
3, 433680, Note_off_c, 1, 67, 127
3, 433680, Note_on_c, 1, 62, 127
3, 433920, Note_off_c, 1, 62, 127
3, 433920, Note_on_c, 1, 56, 127
3, 434160, Note_off_c, 1, 56, 127
3, 434160, Note_on_c, 1, 62, 127
3, 434400, Note_off_c, 1, 62, 127
3, 434400, Note_on_c, 1, 67, 127
3, 434640, Note_off_c, 1, 67, 127
3, 434640, Note_on_c, 1, 56, 127
3, 434880, Note_off_c, 1, 56, 127
3, 434880, Note_on_c, 1, 72, 127
3, 435120, Note_off_c, 1, 72, 127
3, 435120, Note_on_c, 1, 74, 127
3, 435360, Note_off_c, 1, 74, 127
3, 435360, Note_on_c, 1, 79, 127
3, 435600, Note_off_c, 1, 79, 127
3, 435600, Note_on_c, 1, 68, 127
3, 435840, Note_off_c, 1, 68, 127
3, 435840, Note_on_c, 1, 84, 127
3, 436080, Note_off_c, 1, 84, 127
3, 436080, Note_on_c, 1, 68, 127
3, 436320, Note_off_c, 1, 68, 127
3, 436320, Note_on_c, 1, 79, 127
3, 436560, Note_off_c, 1, 79, 127
3, 436560, Note_on_c, 1, 74, 127
3, 436800, Note_off_c, 1, 74, 127
3, 436800, Note_on_c, 1, 72, 127
3, 437040, Note_off_c, 1, 72, 127
3, 437040, Note_on_c, 1, 56, 127
3, 437280, Note_off_c, 1, 56, 127
3, 437280, Note_on_c, 1, 67, 127
3, 437520, Note_off_c, 1, 67, 127
3, 437520, Note_on_c, 1, 62, 127
3, 437760, Note_off_c, 1, 62, 127
3, 437760, Note_on_c, 1, 53, 127
3, 438000, Note_off_c, 1, 53, 127
3, 438000, Note_on_c, 1, 60, 127
3, 438240, Note_off_c, 1, 60, 127
3, 438240, Note_on_c, 1, 62, 127
3, 438480, Note_off_c, 1, 62, 127
3, 438480, Note_on_c, 1, 63, 127
3, 438720, Note_off_c, 1, 63, 127
3, 438720, Note_on_c, 1, 53, 127
3, 438960, Note_off_c, 1, 53, 127
3, 438960, Note_on_c, 1, 72, 127
3, 439200, Note_off_c, 1, 72, 127
3, 439200, Note_on_c, 1, 74, 127
3, 439440, Note_off_c, 1, 74, 127
3, 439440, Note_on_c, 1, 75, 127
3, 439680, Note_off_c, 1, 75, 127
3, 439680, Note_on_c, 1, 65, 127
3, 439920, Note_off_c, 1, 65, 127
3, 439920, Note_on_c, 1, 84, 127
3, 440160, Note_off_c, 1, 84, 127
3, 440160, Note_on_c, 1, 65, 127
3, 440400, Note_off_c, 1, 65, 127
3, 440400, Note_on_c, 1, 75, 127
3, 440640, Note_off_c, 1, 75, 127
3, 440640, Note_on_c, 1, 74, 127
3, 440880, Note_off_c, 1, 74, 127
3, 440880, Note_on_c, 1, 72, 127
3, 441120, Note_off_c, 1, 72, 127
3, 441120, Note_on_c, 1, 53, 127
3, 441360, Note_off_c, 1, 53, 127
3, 441360, Note_on_c, 1, 63, 127
3, 441600, Note_off_c, 1, 63, 127
3, 441600, Note_on_c, 1, 62, 127
3, 441840, Note_off_c, 1, 62, 127
3, 441840, Note_on_c, 1, 60, 127
3, 442080, Note_off_c, 1, 60, 127
3, 442080, Note_on_c, 1, 53, 127
3, 442320, Note_off_c, 1, 53, 127
3, 442320, Note_on_c, 1, 60, 127
3, 442560, Note_off_c, 1, 60, 127
3, 442560, Note_on_c, 1, 62, 127
3, 442800, Note_off_c, 1, 62, 127
3, 442800, Note_on_c, 1, 63, 127
3, 443040, Note_off_c, 1, 63, 127
3, 443040, Note_on_c, 1, 53, 127
3, 443280, Note_off_c, 1, 53, 127
3, 443280, Note_on_c, 1, 72, 127
3, 443520, Note_off_c, 1, 72, 127
3, 443520, Note_on_c, 1, 74, 127
3, 443760, Note_off_c, 1, 74, 127
3, 443760, Note_on_c, 1, 75, 127
3, 444000, Note_off_c, 1, 75, 127
3, 444000, Note_on_c, 1, 65, 127
3, 444240, Note_off_c, 1, 65, 127
3, 444240, Note_on_c, 1, 84, 127
3, 444480, Note_off_c, 1, 84, 127
3, 444480, Note_on_c, 1, 65, 127
3, 444720, Note_off_c, 1, 65, 127
3, 444720, Note_on_c, 1, 75, 127
3, 444960, Note_off_c, 1, 75, 127
3, 444960, Note_on_c, 1, 74, 127
3, 445200, Note_off_c, 1, 74, 127
3, 445200, Note_on_c, 1, 72, 127
3, 445440, Note_off_c, 1, 72, 127
3, 445440, Note_on_c, 1, 71, 127
3, 445440, Note_on_c, 1, 66, 127
3, 445440, Note_on_c, 1, 62, 127
3, 445440, Note_on_c, 1, 59, 127
3, 445440, Note_on_c, 1, 47, 127
3, 446400, Note_off_c, 1, 71, 127
3, 446400, Note_off_c, 1, 66, 127
3, 446400, Note_off_c, 1, 62, 127
3, 446400, Note_off_c, 1, 59, 127
3, 446400, Note_off_c, 1, 47, 127
3, 446640, Note_on_c, 1, 59, 127
3, 446640, Note_on_c, 1, 47, 127
3, 446880, Note_off_c, 1, 59, 127
3, 446880, Note_on_c, 1, 62, 127
3, 446880, Note_on_c, 1, 59, 127
3, 447120, Note_off_c, 1, 62, 127
3, 447120, Note_off_c, 1, 59, 127
3, 447360, Note_off_c, 1, 47, 127
3, 447360, Note_on_c, 1, 71, 127
3, 447360, Note_on_c, 1, 66, 127
3, 447360, Note_on_c, 1, 62, 127
3, 447360, Note_on_c, 1, 59, 127
3, 447360, Note_on_c, 1, 47, 127
3, 447840, Note_off_c, 1, 47, 127
3, 447840, Note_on_c, 1, 47, 127
3, 448080, Note_off_c, 1, 71, 127
3, 448080, Note_off_c, 1, 66, 127
3, 448080, Note_off_c, 1, 62, 127
3, 448080, Note_off_c, 1, 59, 127
3, 448080, Note_on_c, 1, 59, 127
3, 448320, Note_off_c, 1, 47, 127
3, 448320, Note_off_c, 1, 59, 127
3, 448320, Note_on_c, 1, 71, 127
3, 448320, Note_on_c, 1, 66, 127
3, 448320, Note_on_c, 1, 62, 127
3, 448320, Note_on_c, 1, 59, 127
3, 448320, Note_on_c, 1, 47, 127
3, 449280, Note_off_c, 1, 71, 127
3, 449280, Note_off_c, 1, 66, 127
3, 449280, Note_off_c, 1, 62, 127
3, 449280, Note_off_c, 1, 59, 127
3, 449280, Note_off_c, 1, 47, 127
3, 449280, Note_on_c, 1, 71, 127
3, 449280, Note_on_c, 1, 66, 127
3, 449280, Note_on_c, 1, 61, 127
3, 449280, Note_on_c, 1, 49, 127
3, 450240, Note_off_c, 1, 71, 127
3, 450240, Note_off_c, 1, 66, 127
3, 450240, Note_off_c, 1, 61, 127
3, 450240, Note_off_c, 1, 49, 127
3, 450240, Note_on_c, 1, 72, 63
3, 450240, Note_on_c, 1, 71, 127
3, 450240, Note_on_c, 1, 66, 127
3, 450240, Note_on_c, 1, 62, 127
3, 450240, Note_on_c, 1, 50, 127
3, 451200, Note_off_c, 1, 72, 63
3, 451200, Note_off_c, 1, 71, 127
3, 451200, Note_off_c, 1, 66, 127
3, 451200, Note_off_c, 1, 62, 127
3, 451200, Note_off_c, 1, 50, 127
3, 451200, Note_on_c, 1, 71, 63
3, 451200, Note_on_c, 1, 70, 127
3, 451200, Note_on_c, 1, 66, 127
3, 451200, Note_on_c, 1, 61, 127
3, 451200, Note_on_c, 1, 58, 127
3, 451200, Note_on_c, 1, 46, 127
3, 451920, Note_off_c, 1, 71, 63
3, 451920, Note_off_c, 1, 70, 127
3, 451920, Note_off_c, 1, 61, 127
3, 451920, Note_on_c, 1, 61, 127
3, 452160, Note_on_c, 1, 70, 127
3, 453120, Note_off_c, 1, 66, 127
3, 453120, Note_off_c, 1, 58, 127
3, 453120, Note_off_c, 1, 46, 127
3, 453120, Note_off_c, 1, 61, 127
3, 453120, Note_off_c, 1, 70, 127
3, 453120, Note_on_c, 1, 70, 127
3, 453120, Note_on_c, 1, 66, 127
3, 453120, Note_on_c, 1, 61, 127
3, 453120, Note_on_c, 1, 58, 127
3, 453120, Note_on_c, 1, 46, 127
3, 453840, Note_off_c, 1, 61, 127
3, 453840, Note_off_c, 1, 58, 127
3, 453840, Note_on_c, 1, 61, 127
3, 453840, Note_on_c, 1, 58, 127
3, 454080, Note_off_c, 1, 70, 127
3, 454080, Note_off_c, 1, 66, 127
3, 454080, Note_off_c, 1, 46, 127
3, 454080, Note_off_c, 1, 61, 127
3, 454080, Note_off_c, 1, 58, 127
3, 454080, Note_on_c, 1, 66, 127
3, 454080, Note_on_c, 1, 46, 127
3, 454320, Note_off_c, 1, 66, 127
3, 454320, Note_on_c, 1, 58, 127
3, 454560, Note_off_c, 1, 58, 127
3, 454560, Note_on_c, 1, 61, 127
3, 454800, Note_off_c, 1, 61, 127
3, 454800, Note_on_c, 1, 66, 127
3, 455040, Note_off_c, 1, 66, 127
3, 455040, Note_on_c, 1, 70, 127
3, 455040, Note_on_c, 1, 66, 127
3, 455040, Note_on_c, 1, 61, 127
3, 455040, Note_on_c, 1, 58, 127
3, 455520, Note_off_c, 1, 46, 127
3, 455520, Note_on_c, 1, 46, 127
3, 455760, Note_off_c, 1, 70, 127
3, 455760, Note_off_c, 1, 66, 127
3, 455760, Note_off_c, 1, 61, 127
3, 455760, Note_off_c, 1, 58, 127
3, 455760, Note_on_c, 1, 70, 127
3, 455760, Note_on_c, 1, 66, 127
3, 455760, Note_on_c, 1, 61, 127
3, 455760, Note_on_c, 1, 58, 127
3, 456000, Note_off_c, 1, 46, 127
3, 456000, Note_on_c, 1, 46, 127
3, 456480, Note_off_c, 1, 70, 127
3, 456480, Note_off_c, 1, 66, 127
3, 456480, Note_off_c, 1, 61, 127
3, 456480, Note_off_c, 1, 58, 127
3, 456480, Note_off_c, 1, 46, 127
3, 456480, Note_on_c, 1, 70, 127
3, 456480, Note_on_c, 1, 66, 127
3, 456480, Note_on_c, 1, 61, 127
3, 456480, Note_on_c, 1, 58, 127
3, 456480, Note_on_c, 1, 46, 127
3, 456960, Note_off_c, 1, 70, 127
3, 456960, Note_off_c, 1, 66, 127
3, 456960, Note_off_c, 1, 61, 127
3, 456960, Note_off_c, 1, 58, 127
3, 456960, Note_off_c, 1, 46, 127
3, 456960, Note_on_c, 1, 71, 127
3, 456960, Note_on_c, 1, 66, 127
3, 456960, Note_on_c, 1, 62, 127
3, 456960, Note_on_c, 1, 59, 127
3, 456960, Note_on_c, 1, 47, 127
3, 457920, Note_off_c, 1, 71, 127
3, 457920, Note_off_c, 1, 66, 127
3, 457920, Note_off_c, 1, 62, 127
3, 457920, Note_off_c, 1, 59, 127
3, 457920, Note_off_c, 1, 47, 127
3, 458160, Note_on_c, 1, 59, 127
3, 458160, Note_on_c, 1, 47, 127
3, 458400, Note_off_c, 1, 59, 127
3, 458400, Note_on_c, 1, 62, 127
3, 458400, Note_on_c, 1, 59, 127
3, 458640, Note_off_c, 1, 62, 127
3, 458640, Note_off_c, 1, 59, 127
3, 458880, Note_off_c, 1, 47, 127
3, 458880, Note_on_c, 1, 71, 127
3, 458880, Note_on_c, 1, 66, 127
3, 458880, Note_on_c, 1, 62, 127
3, 458880, Note_on_c, 1, 59, 127
3, 458880, Note_on_c, 1, 47, 127
3, 459360, Note_off_c, 1, 47, 127
3, 459360, Note_on_c, 1, 47, 127
3, 459600, Note_off_c, 1, 71, 127
3, 459600, Note_off_c, 1, 66, 127
3, 459600, Note_off_c, 1, 62, 127
3, 459600, Note_off_c, 1, 59, 127
3, 459600, Note_on_c, 1, 59, 127
3, 459840, Note_off_c, 1, 47, 127
3, 459840, Note_off_c, 1, 59, 127
3, 459840, Note_on_c, 1, 71, 127
3, 459840, Note_on_c, 1, 66, 127
3, 459840, Note_on_c, 1, 62, 127
3, 459840, Note_on_c, 1, 59, 127
3, 459840, Note_on_c, 1, 47, 127
3, 460800, Note_off_c, 1, 71, 127
3, 460800, Note_off_c, 1, 66, 127
3, 460800, Note_off_c, 1, 62, 127
3, 460800, Note_off_c, 1, 59, 127
3, 460800, Note_off_c, 1, 47, 127
3, 460800, Note_on_c, 1, 71, 127
3, 460800, Note_on_c, 1, 66, 127
3, 460800, Note_on_c, 1, 61, 127
3, 460800, Note_on_c, 1, 49, 127
3, 461760, Note_off_c, 1, 71, 127
3, 461760, Note_off_c, 1, 66, 127
3, 461760, Note_off_c, 1, 61, 127
3, 461760, Note_off_c, 1, 49, 127
3, 461760, Note_on_c, 1, 72, 63
3, 461760, Note_on_c, 1, 71, 127
3, 461760, Note_on_c, 1, 66, 127
3, 461760, Note_on_c, 1, 62, 127
3, 461760, Note_on_c, 1, 50, 127
3, 462720, Note_off_c, 1, 72, 63
3, 462720, Note_off_c, 1, 71, 127
3, 462720, Note_off_c, 1, 66, 127
3, 462720, Note_off_c, 1, 62, 127
3, 462720, Note_off_c, 1, 50, 127
3, 462720, Note_on_c, 1, 71, 63
3, 462720, Note_on_c, 1, 70, 127
3, 462720, Note_on_c, 1, 66, 127
3, 462720, Note_on_c, 1, 61, 127
3, 462720, Note_on_c, 1, 58, 127
3, 462720, Note_on_c, 1, 46, 127
3, 463440, Note_off_c, 1, 71, 63
3, 463440, Note_off_c, 1, 70, 127
3, 463440, Note_off_c, 1, 61, 127
3, 463440, Note_on_c, 1, 61, 127
3, 463680, Note_on_c, 1, 70, 127
3, 464640, Note_off_c, 1, 66, 127
3, 464640, Note_off_c, 1, 58, 127
3, 464640, Note_off_c, 1, 46, 127
3, 464640, Note_off_c, 1, 61, 127
3, 464640, Note_off_c, 1, 70, 127
3, 464640, Note_on_c, 1, 70, 127
3, 464640, Note_on_c, 1, 66, 127
3, 464640, Note_on_c, 1, 61, 127
3, 464640, Note_on_c, 1, 58, 127
3, 464640, Note_on_c, 1, 46, 127
3, 465360, Note_off_c, 1, 61, 127
3, 465360, Note_off_c, 1, 58, 127
3, 465360, Note_on_c, 1, 61, 127
3, 465360, Note_on_c, 1, 58, 127
3, 465600, Note_off_c, 1, 70, 127
3, 465600, Note_off_c, 1, 66, 127
3, 465600, Note_off_c, 1, 46, 127
3, 465600, Note_off_c, 1, 61, 127
3, 465600, Note_off_c, 1, 58, 127
3, 465600, Note_on_c, 1, 66, 127
3, 465600, Note_on_c, 1, 46, 127
3, 465840, Note_off_c, 1, 66, 127
3, 465840, Note_on_c, 1, 58, 127
3, 466080, Note_off_c, 1, 58, 127
3, 466080, Note_on_c, 1, 61, 127
3, 466320, Note_off_c, 1, 61, 127
3, 466320, Note_on_c, 1, 66, 127
3, 466560, Note_off_c, 1, 66, 127
3, 466560, Note_on_c, 1, 70, 127
3, 466560, Note_on_c, 1, 66, 127
3, 466560, Note_on_c, 1, 61, 127
3, 466560, Note_on_c, 1, 58, 127
3, 467040, Note_off_c, 1, 46, 127
3, 467040, Note_on_c, 1, 46, 127
3, 467280, Note_off_c, 1, 70, 127
3, 467280, Note_off_c, 1, 66, 127
3, 467280, Note_off_c, 1, 61, 127
3, 467280, Note_off_c, 1, 58, 127
3, 467280, Note_on_c, 1, 70, 127
3, 467280, Note_on_c, 1, 66, 127
3, 467280, Note_on_c, 1, 61, 127
3, 467280, Note_on_c, 1, 58, 127
3, 467520, Note_off_c, 1, 46, 127
3, 467520, Note_on_c, 1, 46, 127
3, 468000, Note_off_c, 1, 70, 127
3, 468000, Note_off_c, 1, 66, 127
3, 468000, Note_off_c, 1, 61, 127
3, 468000, Note_off_c, 1, 58, 127
3, 468000, Note_off_c, 1, 46, 127
3, 468000, Note_on_c, 1, 70, 127
3, 468000, Note_on_c, 1, 66, 127
3, 468000, Note_on_c, 1, 61, 127
3, 468000, Note_on_c, 1, 58, 127
3, 468000, Note_on_c, 1, 46, 127
3, 468480, Note_off_c, 1, 70, 127
3, 468480, Note_off_c, 1, 66, 127
3, 468480, Note_off_c, 1, 61, 127
3, 468480, Note_off_c, 1, 58, 127
3, 468480, Note_off_c, 1, 46, 127
3, 468480, Note_on_c, 1, 71, 127
3, 468480, Note_on_c, 1, 66, 127
3, 468480, Note_on_c, 1, 62, 127
3, 468480, Note_on_c, 1, 59, 127
3, 468480, Note_on_c, 1, 47, 127
3, 469440, Note_off_c, 1, 71, 127
3, 469440, Note_off_c, 1, 66, 127
3, 469440, Note_off_c, 1, 62, 127
3, 469440, Note_off_c, 1, 59, 127
3, 469440, Note_off_c, 1, 47, 127
3, 469680, Note_on_c, 1, 59, 127
3, 469680, Note_on_c, 1, 47, 127
3, 469920, Note_off_c, 1, 59, 127
3, 469920, Note_on_c, 1, 62, 127
3, 469920, Note_on_c, 1, 59, 127
3, 470160, Note_off_c, 1, 62, 127
3, 470160, Note_off_c, 1, 59, 127
3, 470400, Note_off_c, 1, 47, 127
3, 470400, Note_on_c, 1, 71, 127
3, 470400, Note_on_c, 1, 66, 127
3, 470400, Note_on_c, 1, 62, 127
3, 470400, Note_on_c, 1, 59, 127
3, 470400, Note_on_c, 1, 47, 127
3, 470880, Note_off_c, 1, 47, 127
3, 470880, Note_on_c, 1, 47, 127
3, 471120, Note_off_c, 1, 71, 127
3, 471120, Note_off_c, 1, 66, 127
3, 471120, Note_off_c, 1, 62, 127
3, 471120, Note_off_c, 1, 59, 127
3, 471120, Note_on_c, 1, 59, 127
3, 471360, Note_off_c, 1, 47, 127
3, 471360, Note_off_c, 1, 59, 127
3, 471360, Note_on_c, 1, 71, 127
3, 471360, Note_on_c, 1, 66, 127
3, 471360, Note_on_c, 1, 62, 127
3, 471360, Note_on_c, 1, 59, 127
3, 471360, Note_on_c, 1, 47, 127
3, 472320, Note_off_c, 1, 71, 127
3, 472320, Note_off_c, 1, 66, 127
3, 472320, Note_off_c, 1, 62, 127
3, 472320, Note_off_c, 1, 59, 127
3, 472320, Note_off_c, 1, 47, 127
3, 472320, Note_on_c, 1, 71, 127
3, 472320, Note_on_c, 1, 66, 127
3, 472320, Note_on_c, 1, 61, 127
3, 472320, Note_on_c, 1, 49, 127
3, 473280, Note_off_c, 1, 71, 127
3, 473280, Note_off_c, 1, 66, 127
3, 473280, Note_off_c, 1, 61, 127
3, 473280, Note_off_c, 1, 49, 127
3, 473280, Note_on_c, 1, 72, 63
3, 473280, Note_on_c, 1, 71, 127
3, 473280, Note_on_c, 1, 66, 127
3, 473280, Note_on_c, 1, 62, 127
3, 473280, Note_on_c, 1, 50, 127
3, 474240, Note_off_c, 1, 72, 63
3, 474240, Note_off_c, 1, 71, 127
3, 474240, Note_off_c, 1, 66, 127
3, 474240, Note_off_c, 1, 62, 127
3, 474240, Note_off_c, 1, 50, 127
3, 474240, Note_on_c, 1, 71, 63
3, 474240, Note_on_c, 1, 70, 127
3, 474240, Note_on_c, 1, 66, 127
3, 474240, Note_on_c, 1, 61, 127
3, 474240, Note_on_c, 1, 58, 127
3, 474240, Note_on_c, 1, 46, 127
3, 474960, Note_off_c, 1, 71, 63
3, 474960, Note_off_c, 1, 70, 127
3, 474960, Note_off_c, 1, 61, 127
3, 474960, Note_on_c, 1, 61, 127
3, 475200, Note_on_c, 1, 70, 127
3, 476160, Note_off_c, 1, 66, 127
3, 476160, Note_off_c, 1, 58, 127
3, 476160, Note_off_c, 1, 46, 127
3, 476160, Note_off_c, 1, 61, 127
3, 476160, Note_off_c, 1, 70, 127
3, 476160, Note_on_c, 1, 70, 127
3, 476160, Note_on_c, 1, 66, 127
3, 476160, Note_on_c, 1, 61, 127
3, 476160, Note_on_c, 1, 58, 127
3, 476160, Note_on_c, 1, 46, 127
3, 476880, Note_off_c, 1, 61, 127
3, 476880, Note_off_c, 1, 58, 127
3, 476880, Note_on_c, 1, 61, 127
3, 476880, Note_on_c, 1, 58, 127
3, 477120, Note_off_c, 1, 70, 127
3, 477120, Note_off_c, 1, 66, 127
3, 477120, Note_off_c, 1, 46, 127
3, 477120, Note_off_c, 1, 61, 127
3, 477120, Note_off_c, 1, 58, 127
3, 477120, Note_on_c, 1, 66, 127
3, 477120, Note_on_c, 1, 46, 127
3, 477360, Note_off_c, 1, 66, 127
3, 477360, Note_on_c, 1, 58, 127
3, 477600, Note_off_c, 1, 58, 127
3, 477600, Note_on_c, 1, 61, 127
3, 477840, Note_off_c, 1, 61, 127
3, 477840, Note_on_c, 1, 66, 127
3, 478080, Note_off_c, 1, 66, 127
3, 478080, Note_on_c, 1, 70, 127
3, 478080, Note_on_c, 1, 66, 127
3, 478080, Note_on_c, 1, 61, 127
3, 478080, Note_on_c, 1, 58, 127
3, 478560, Note_off_c, 1, 46, 127
3, 478560, Note_on_c, 1, 46, 127
3, 478800, Note_off_c, 1, 70, 127
3, 478800, Note_off_c, 1, 66, 127
3, 478800, Note_off_c, 1, 61, 127
3, 478800, Note_off_c, 1, 58, 127
3, 478800, Note_on_c, 1, 70, 127
3, 478800, Note_on_c, 1, 66, 127
3, 478800, Note_on_c, 1, 61, 127
3, 478800, Note_on_c, 1, 58, 127
3, 479040, Note_off_c, 1, 46, 127
3, 479040, Note_on_c, 1, 46, 127
3, 479520, Note_off_c, 1, 70, 127
3, 479520, Note_off_c, 1, 66, 127
3, 479520, Note_off_c, 1, 61, 127
3, 479520, Note_off_c, 1, 58, 127
3, 479520, Note_off_c, 1, 46, 127
3, 479520, Note_on_c, 1, 70, 127
3, 479520, Note_on_c, 1, 66, 127
3, 479520, Note_on_c, 1, 61, 127
3, 479520, Note_on_c, 1, 58, 127
3, 479520, Note_on_c, 1, 46, 127
3, 480000, Note_off_c, 1, 70, 127
3, 480000, Note_off_c, 1, 66, 127
3, 480000, Note_off_c, 1, 61, 127
3, 480000, Note_off_c, 1, 58, 127
3, 480000, Note_off_c, 1, 46, 127
3, 480000, Note_on_c, 1, 71, 127
3, 480000, Note_on_c, 1, 66, 127
3, 480000, Note_on_c, 1, 62, 127
3, 480000, Note_on_c, 1, 59, 127
3, 480000, Note_on_c, 1, 47, 127
3, 480960, Note_off_c, 1, 71, 127
3, 480960, Note_off_c, 1, 66, 127
3, 480960, Note_off_c, 1, 62, 127
3, 480960, Note_off_c, 1, 59, 127
3, 480960, Note_off_c, 1, 47, 127
3, 481200, Note_on_c, 1, 59, 127
3, 481200, Note_on_c, 1, 47, 127
3, 481440, Note_off_c, 1, 59, 127
3, 481440, Note_on_c, 1, 62, 127
3, 481440, Note_on_c, 1, 59, 127
3, 481680, Note_off_c, 1, 62, 127
3, 481680, Note_off_c, 1, 59, 127
3, 481920, Note_off_c, 1, 47, 127
3, 481920, Note_on_c, 1, 71, 127
3, 481920, Note_on_c, 1, 66, 127
3, 481920, Note_on_c, 1, 62, 127
3, 481920, Note_on_c, 1, 59, 127
3, 481920, Note_on_c, 1, 47, 127
3, 482400, Note_off_c, 1, 47, 127
3, 482400, Note_on_c, 1, 47, 127
3, 482640, Note_off_c, 1, 71, 127
3, 482640, Note_off_c, 1, 66, 127
3, 482640, Note_off_c, 1, 62, 127
3, 482640, Note_off_c, 1, 59, 127
3, 482640, Note_on_c, 1, 59, 127
3, 482880, Note_off_c, 1, 47, 127
3, 482880, Note_off_c, 1, 59, 127
3, 482880, Note_on_c, 1, 71, 127
3, 482880, Note_on_c, 1, 66, 127
3, 482880, Note_on_c, 1, 62, 127
3, 482880, Note_on_c, 1, 59, 127
3, 482880, Note_on_c, 1, 47, 127
3, 483840, Note_off_c, 1, 71, 127
3, 483840, Note_off_c, 1, 66, 127
3, 483840, Note_off_c, 1, 62, 127
3, 483840, Note_off_c, 1, 59, 127
3, 483840, Note_off_c, 1, 47, 127
3, 483840, Note_on_c, 1, 71, 127
3, 483840, Note_on_c, 1, 66, 127
3, 483840, Note_on_c, 1, 61, 127
3, 483840, Note_on_c, 1, 49, 127
3, 484800, Note_off_c, 1, 71, 127
3, 484800, Note_off_c, 1, 66, 127
3, 484800, Note_off_c, 1, 61, 127
3, 484800, Note_off_c, 1, 49, 127
3, 484800, Note_on_c, 1, 72, 63
3, 484800, Note_on_c, 1, 71, 127
3, 484800, Note_on_c, 1, 66, 127
3, 484800, Note_on_c, 1, 62, 127
3, 484800, Note_on_c, 1, 50, 127
3, 485760, Note_off_c, 1, 72, 63
3, 485760, Note_off_c, 1, 71, 127
3, 485760, Note_off_c, 1, 66, 127
3, 485760, Note_off_c, 1, 62, 127
3, 485760, Note_off_c, 1, 50, 127
3, 485760, Note_on_c, 1, 71, 63
3, 485760, Note_on_c, 1, 70, 127
3, 485760, Note_on_c, 1, 66, 127
3, 485760, Note_on_c, 1, 61, 127
3, 485760, Note_on_c, 1, 58, 127
3, 485760, Note_on_c, 1, 46, 127
3, 486480, Note_off_c, 1, 71, 63
3, 486480, Note_off_c, 1, 70, 127
3, 486480, Note_off_c, 1, 61, 127
3, 486480, Note_on_c, 1, 61, 127
3, 486720, Note_on_c, 1, 70, 127
3, 487680, Note_off_c, 1, 66, 127
3, 487680, Note_off_c, 1, 58, 127
3, 487680, Note_off_c, 1, 46, 127
3, 487680, Note_off_c, 1, 61, 127
3, 487680, Note_off_c, 1, 70, 127
3, 487680, Note_on_c, 1, 70, 127
3, 487680, Note_on_c, 1, 66, 127
3, 487680, Note_on_c, 1, 61, 127
3, 487680, Note_on_c, 1, 58, 127
3, 487680, Note_on_c, 1, 46, 127
3, 488400, Note_off_c, 1, 61, 127
3, 488400, Note_off_c, 1, 58, 127
3, 488400, Note_on_c, 1, 61, 127
3, 488400, Note_on_c, 1, 58, 127
3, 488640, Note_off_c, 1, 70, 127
3, 488640, Note_off_c, 1, 66, 127
3, 488640, Note_off_c, 1, 46, 127
3, 488640, Note_off_c, 1, 61, 127
3, 488640, Note_off_c, 1, 58, 127
3, 488640, Note_on_c, 1, 66, 127
3, 488640, Note_on_c, 1, 46, 127
3, 488880, Note_off_c, 1, 66, 127
3, 488880, Note_on_c, 1, 58, 127
3, 489120, Note_off_c, 1, 58, 127
3, 489120, Note_on_c, 1, 61, 127
3, 489360, Note_off_c, 1, 61, 127
3, 489360, Note_on_c, 1, 66, 127
3, 489600, Note_off_c, 1, 66, 127
3, 489600, Note_on_c, 1, 70, 127
3, 489600, Note_on_c, 1, 66, 127
3, 489600, Note_on_c, 1, 61, 127
3, 489600, Note_on_c, 1, 58, 127
3, 490080, Note_off_c, 1, 46, 127
3, 490080, Note_on_c, 1, 46, 127
3, 490320, Note_off_c, 1, 70, 127
3, 490320, Note_off_c, 1, 66, 127
3, 490320, Note_off_c, 1, 61, 127
3, 490320, Note_off_c, 1, 58, 127
3, 490320, Note_on_c, 1, 70, 127
3, 490320, Note_on_c, 1, 66, 127
3, 490320, Note_on_c, 1, 61, 127
3, 490320, Note_on_c, 1, 58, 127
3, 490560, Note_off_c, 1, 46, 127
3, 490560, Note_on_c, 1, 46, 127
3, 491040, Note_off_c, 1, 70, 127
3, 491040, Note_off_c, 1, 66, 127
3, 491040, Note_off_c, 1, 61, 127
3, 491040, Note_off_c, 1, 58, 127
3, 491040, Note_off_c, 1, 46, 127
3, 491040, Note_on_c, 1, 70, 127
3, 491040, Note_on_c, 1, 66, 127
3, 491040, Note_on_c, 1, 61, 127
3, 491040, Note_on_c, 1, 58, 127
3, 491040, Note_on_c, 1, 46, 127
3, 491520, Note_off_c, 1, 70, 127
3, 491520, Note_off_c, 1, 66, 127
3, 491520, Note_off_c, 1, 61, 127
3, 491520, Note_off_c, 1, 58, 127
3, 491520, Note_off_c, 1, 46, 127
3, 491520, End_track
4, 0, Start_track
4, 0, Pitch_bend_c, 11, 8192
4, 0, Control_c, 11, 7, 103
4, 0, Control_c, 11, 10, 63
4, 0, Control_c, 11, 93, 0
4, 0, Control_c, 11, 91, 0
4, 0, Control_c, 11, 95, 0
4, 0, Control_c, 11, 92, 0
4, 0, Control_c, 11, 11, 127
4, 0, Program_c, 11, 17
4, 0, Control_c, 12, 7, 103
4, 0, Control_c, 12, 10, 63
4, 0, Control_c, 12, 93, 0
4, 0, Control_c, 12, 91, 0
4, 0, Control_c, 12, 95, 0
4, 0, Control_c, 12, 92, 0
4, 0, Control_c, 12, 11, 127
4, 0, Program_c, 12, 17
4, 47040, Note_on_c, 11, 73, 127
4, 47520, Note_off_c, 11, 73, 127
4, 48000, Note_on_c, 11, 73, 127
4, 48160, Note_off_c, 11, 73, 127
4, 48320, Note_on_c, 11, 73, 127
4, 48480, Note_off_c, 11, 73, 127
4, 48640, Note_on_c, 11, 71, 127
4, 48800, Note_off_c, 11, 71, 127
4, 48960, Note_on_c, 11, 73, 127
4, 50400, Note_off_c, 11, 73, 127
4, 50400, Note_on_c, 11, 69, 127
4, 51360, Note_off_c, 11, 69, 127
4, 51360, Note_on_c, 11, 67, 127
4, 51840, Note_off_c, 11, 67, 127
4, 51840, Note_on_c, 11, 58, 127
4, 52800, Note_off_c, 11, 58, 127
4, 52800, Note_on_c, 11, 73, 127
4, 54720, Note_off_c, 11, 73, 127
4, 54720, Note_on_c, 11, 73, 127
4, 55040, Note_off_c, 11, 73, 127
4, 55040, Note_on_c, 11, 71, 127
4, 55360, Note_off_c, 11, 71, 127
4, 55360, Note_on_c, 11, 73, 127
4, 57600, Note_off_c, 11, 73, 127
4, 57600, Note_on_c, 11, 57, 127
4, 58560, Note_off_c, 11, 57, 127
4, 58560, Note_on_c, 11, 67, 127
4, 59040, Note_off_c, 11, 67, 127
4, 59520, Note_on_c, 11, 67, 127
4, 60000, Note_off_c, 11, 67, 127
4, 60480, Note_on_c, 11, 67, 127
4, 63360, Note_off_c, 11, 67, 127
4, 63360, Note_on_c, 11, 57, 127
4, 64320, Note_off_c, 11, 57, 127
4, 64320, Note_on_c, 11, 67, 127
4, 66240, Note_off_c, 11, 67, 127
4, 66240, Note_on_c, 11, 67, 127
4, 66400, Note_off_c, 11, 67, 127
4, 66560, Note_on_c, 11, 67, 127
4, 66720, Note_off_c, 11, 67, 127
4, 66880, Note_on_c, 11, 62, 127
4, 67040, Note_off_c, 11, 62, 127
4, 67200, Note_on_c, 11, 67, 127
4, 69120, Note_off_c, 11, 67, 127
4, 69120, Note_on_c, 11, 56, 127
4, 69360, Note_off_c, 11, 56, 127
4, 69360, Note_on_c, 11, 56, 127
4, 70080, Note_off_c, 11, 56, 127
4, 70080, Note_on_c, 11, 70, 127
4, 70560, Note_off_c, 11, 70, 127
4, 71040, Note_on_c, 11, 70, 127
4, 71520, Note_off_c, 11, 70, 127
4, 72000, Note_on_c, 11, 70, 127
4, 72240, Note_off_c, 11, 70, 127
4, 72480, Note_on_c, 11, 70, 127
4, 72960, Note_off_c, 11, 70, 127
4, 72960, Note_on_c, 11, 66, 127
4, 73440, Note_off_c, 11, 66, 127
4, 73440, Note_on_c, 11, 68, 127
4, 73920, Note_off_c, 11, 68, 127
4, 73920, Note_on_c, 11, 63, 127
4, 74400, Note_off_c, 11, 63, 127
4, 74400, Note_on_c, 11, 56, 127
4, 74880, Note_off_c, 11, 56, 127
4, 74880, Note_on_c, 11, 61, 127
4, 75840, Note_off_c, 11, 61, 127
4, 75840, Note_on_c, 11, 71, 127
4, 77280, Note_off_c, 11, 71, 127
4, 77280, Note_on_c, 11, 66, 127
4, 77760, Note_off_c, 11, 66, 127
4, 77760, Note_on_c, 11, 68, 127
4, 80640, Note_off_c, 11, 68, 127
4, 80640, Note_on_c, 11, 55, 127
4, 81600, Note_off_c, 11, 55, 127
4, 81600, Note_on_c, 11, 67, 127
4, 82080, Note_off_c, 11, 67, 127
4, 82560, Note_on_c, 11, 67, 127
4, 83040, Note_off_c, 11, 67, 127
4, 83520, Note_on_c, 11, 67, 127
4, 86400, Note_off_c, 11, 67, 127
4, 86400, Note_on_c, 11, 67, 127
4, 86880, Note_off_c, 11, 67, 127
4, 87360, Note_on_c, 11, 67, 127
4, 89280, Note_off_c, 11, 67, 127
4, 89280, Note_on_c, 11, 67, 127
4, 89440, Note_off_c, 11, 67, 127
4, 89600, Note_on_c, 11, 67, 127
4, 89760, Note_off_c, 11, 67, 127
4, 89920, Note_on_c, 11, 62, 127
4, 90080, Note_off_c, 11, 62, 127
4, 90240, Note_on_c, 11, 67, 127
4, 92160, Note_off_c, 11, 67, 127
4, 94320, Note_on_c, 11, 60, 127
4, 94560, Note_off_c, 11, 60, 127
4, 94560, Note_on_c, 11, 57, 127
4, 94800, Note_off_c, 11, 57, 127
4, 94800, Note_on_c, 11, 59, 127
4, 95040, Note_off_c, 11, 59, 127
4, 95040, Note_on_c, 11, 56, 127
4, 95232, Note_off_c, 11, 56, 127
4, 95232, Note_on_c, 11, 60, 127
4, 95424, Note_off_c, 11, 60, 127
4, 95424, Note_on_c, 11, 64, 127
4, 95616, Note_off_c, 11, 64, 127
4, 95616, Note_on_c, 11, 64, 127
4, 95808, Note_off_c, 11, 64, 127
4, 95808, Note_on_c, 11, 68, 127
4, 96000, Note_off_c, 11, 68, 127
4, 96000, Note_on_c, 11, 66, 127
4, 96192, Note_off_c, 11, 66, 127
4, 96192, Note_on_c, 11, 71, 127
4, 96384, Note_off_c, 11, 71, 127
4, 96384, Note_on_c, 11, 60, 127
4, 96576, Note_off_c, 11, 60, 127
4, 96576, Note_on_c, 11, 56, 127
4, 96768, Note_off_c, 11, 56, 127
4, 96768, Note_on_c, 11, 60, 127
4, 96960, Note_off_c, 11, 60, 127
4, 96960, Note_on_c, 11, 68, 127
4, 97200, Note_off_c, 11, 68, 127
4, 97200, Note_on_c, 11, 71, 127
4, 97440, Note_off_c, 11, 71, 127
4, 97440, Note_on_c, 11, 66, 127
4, 97680, Note_off_c, 11, 66, 127
4, 97680, Note_on_c, 11, 71, 127
4, 97920, Note_off_c, 11, 71, 127
4, 97920, Note_on_c, 11, 71, 127
4, 98112, Note_off_c, 11, 71, 127
4, 98112, Note_on_c, 11, 61, 127
4, 98304, Note_off_c, 11, 61, 127
4, 98304, Note_on_c, 11, 61, 127
4, 98496, Note_off_c, 11, 61, 127
4, 98496, Note_on_c, 11, 66, 127
4, 98688, Note_off_c, 11, 66, 127
4, 98688, Note_on_c, 11, 66, 127
4, 98880, Note_off_c, 11, 66, 127
4, 98880, Note_on_c, 11, 66, 127
4, 103680, Note_off_c, 11, 66, 127
4, 104640, Note_on_c, 11, 59, 127
4, 105920, Note_off_c, 11, 59, 127
4, 105920, Note_on_c, 11, 57, 127
4, 106240, Note_off_c, 11, 57, 127
4, 106240, Note_on_c, 11, 60, 127
4, 106560, Note_off_c, 11, 60, 127
4, 106560, Note_on_c, 11, 56, 127
4, 106752, Note_off_c, 11, 56, 127
4, 106752, Note_on_c, 11, 54, 127
4, 106944, Note_off_c, 11, 54, 127
4, 106944, Note_on_c, 11, 65, 127
4, 107136, Note_off_c, 11, 65, 127
4, 107136, Note_on_c, 11, 64, 127
4, 107328, Note_off_c, 11, 64, 127
4, 107328, Note_on_c, 11, 64, 127
4, 107520, Note_off_c, 11, 64, 127
4, 107520, Note_on_c, 11, 75, 127
4, 107694, Note_off_c, 11, 75, 127
4, 107694, Note_on_c, 11, 73, 127
4, 107868, Note_off_c, 11, 73, 127
4, 107868, Note_on_c, 11, 70, 127
4, 108042, Note_off_c, 11, 70, 127
4, 108042, Note_on_c, 11, 70, 127
4, 108216, Note_off_c, 11, 70, 127
4, 108216, Note_on_c, 11, 75, 127
4, 108390, Note_off_c, 11, 75, 127
4, 108390, Note_on_c, 11, 68, 127
4, 108564, Note_off_c, 11, 68, 127
4, 108564, Note_on_c, 11, 73, 127
4, 108738, Note_off_c, 11, 73, 127
4, 108738, Note_on_c, 11, 70, 127
4, 108912, Note_off_c, 11, 70, 127
4, 108912, Note_on_c, 11, 70, 127
4, 109086, Note_off_c, 11, 70, 127
4, 109086, Note_on_c, 11, 75, 127
4, 109260, Note_off_c, 11, 75, 127
4, 109260, Note_on_c, 11, 68, 127
4, 109434, Note_off_c, 11, 68, 127
4, 109440, Note_on_c, 11, 76, 127
4, 109632, Note_off_c, 11, 76, 127
4, 109632, Note_on_c, 11, 75, 127
4, 109824, Note_off_c, 11, 75, 127
4, 109824, Note_on_c, 11, 75, 127
4, 110016, Note_off_c, 11, 75, 127
4, 110016, Note_on_c, 11, 79, 127
4, 110208, Note_off_c, 11, 79, 127
4, 110208, Note_on_c, 11, 68, 127
4, 110400, Note_off_c, 11, 68, 127
4, 110400, Note_on_c, 11, 78, 127
4, 115200, Note_off_c, 11, 78, 127
4, 118080, Note_on_c, 11, 59, 127
4, 118341, Note_off_c, 11, 59, 127
4, 118341, Note_on_c, 11, 57, 127
4, 118602, Note_off_c, 11, 57, 127
4, 118602, Note_on_c, 11, 57, 127
4, 118863, Note_off_c, 11, 57, 127
4, 118863, Note_on_c, 11, 62, 127
4, 119124, Note_off_c, 11, 62, 127
4, 119124, Note_on_c, 11, 61, 127
4, 119385, Note_off_c, 11, 61, 127
4, 119385, Note_on_c, 11, 61, 127
4, 119646, Note_off_c, 11, 61, 127
4, 119646, Note_on_c, 11, 59, 127
4, 119907, Note_off_c, 11, 59, 127
4, 119907, Note_on_c, 11, 59, 127
4, 120168, Note_off_c, 11, 59, 127
4, 120168, Note_on_c, 11, 61, 127
4, 120429, Note_off_c, 11, 61, 127
4, 120429, Note_on_c, 11, 54, 127
4, 120690, Note_off_c, 11, 54, 127
4, 120690, Note_on_c, 11, 50, 127
4, 120951, Note_off_c, 11, 50, 127
4, 120960, Note_on_c, 11, 58, 127
4, 121152, Note_off_c, 11, 58, 127
4, 121152, Note_on_c, 11, 61, 127
4, 121344, Note_off_c, 11, 61, 127
4, 121344, Note_on_c, 11, 61, 127
4, 121536, Note_off_c, 11, 61, 127
4, 121536, Note_on_c, 11, 57, 127
4, 121728, Note_off_c, 11, 57, 127
4, 121728, Note_on_c, 11, 69, 127
4, 121920, Note_off_c, 11, 69, 127
4, 121920, Note_on_c, 11, 64, 127
4, 122112, Note_off_c, 11, 64, 127
4, 122112, Note_on_c, 11, 66, 127
4, 122304, Note_off_c, 11, 66, 127
4, 122304, Note_on_c, 11, 66, 127
4, 122496, Note_off_c, 11, 66, 127
4, 122496, Note_on_c, 11, 55, 127
4, 122688, Note_off_c, 11, 55, 127
4, 122688, Note_on_c, 11, 62, 127
4, 122880, Note_off_c, 11, 62, 127
4, 122880, Note_on_c, 11, 61, 127
4, 123072, Note_off_c, 11, 61, 127
4, 123072, Note_on_c, 11, 51, 127
4, 123264, Note_off_c, 11, 51, 127
4, 123264, Note_on_c, 11, 58, 127
4, 123456, Note_off_c, 11, 58, 127
4, 123456, Note_on_c, 11, 59, 127
4, 123648, Note_off_c, 11, 59, 127
4, 123648, Note_on_c, 11, 57, 127
4, 123840, Note_off_c, 11, 57, 127
4, 123840, Note_on_c, 11, 69, 127
4, 126720, Note_off_c, 11, 69, 127
4, 128640, Note_on_c, 11, 71, 127
4, 128777, Note_off_c, 11, 71, 127
4, 128777, Note_on_c, 11, 70, 127
4, 128914, Note_off_c, 11, 70, 127
4, 128914, Note_on_c, 11, 67, 127
4, 129051, Note_off_c, 11, 67, 127
4, 129051, Note_on_c, 11, 66, 127
4, 129188, Note_off_c, 11, 66, 127
4, 129188, Note_on_c, 11, 67, 127
4, 129325, Note_off_c, 11, 67, 127
4, 129325, Note_on_c, 11, 70, 127
4, 129462, Note_off_c, 11, 70, 127
4, 129462, Note_on_c, 11, 71, 127
4, 129599, Note_off_c, 11, 71, 127
4, 129600, Note_on_c, 11, 73, 127
4, 129888, Note_off_c, 11, 73, 127
4, 129888, Note_on_c, 11, 76, 127
4, 130176, Note_off_c, 11, 76, 127
4, 130176, Note_on_c, 11, 72, 127
4, 130464, Note_off_c, 11, 72, 127
4, 130464, Note_on_c, 11, 71, 127
4, 130752, Note_off_c, 11, 71, 127
4, 130752, Note_on_c, 11, 67, 127
4, 131040, Note_off_c, 11, 67, 127
4, 131040, Note_on_c, 11, 78, 127
4, 131328, Note_off_c, 11, 78, 127
4, 131328, Note_on_c, 11, 73, 127
4, 131616, Note_off_c, 11, 73, 127
4, 131616, Note_on_c, 11, 72, 127
4, 131904, Note_off_c, 11, 72, 127
4, 131904, Note_on_c, 11, 76, 127
4, 132192, Note_off_c, 11, 76, 127
4, 132192, Note_on_c, 11, 72, 127
4, 132480, Note_off_c, 11, 72, 127
4, 132480, Note_on_c, 11, 71, 127
4, 132720, Note_off_c, 11, 71, 127
4, 132720, Note_on_c, 11, 70, 127
4, 132960, Note_off_c, 11, 70, 127
4, 132960, Note_on_c, 11, 70, 127
4, 133200, Note_off_c, 11, 70, 127
4, 133200, Note_on_c, 11, 78, 127
4, 133440, Note_off_c, 11, 78, 127
4, 133440, Note_on_c, 11, 66, 127
4, 133760, Note_off_c, 11, 66, 127
4, 133760, Note_on_c, 11, 64, 127
4, 134080, Note_off_c, 11, 64, 127
4, 134080, Note_on_c, 11, 70, 127
4, 134400, Note_off_c, 11, 70, 127
4, 134400, Note_on_c, 11, 72, 127
4, 134640, Note_off_c, 11, 72, 127
4, 134640, Note_on_c, 11, 76, 127
4, 134760, Note_off_c, 11, 76, 127
4, 134760, Note_on_c, 11, 73, 127
4, 138240, Note_off_c, 11, 73, 127
4, 138960, Note_on_c, 11, 71, 127
4, 139080, Note_off_c, 11, 71, 127
4, 139080, Note_on_c, 11, 73, 102
4, 139200, Note_off_c, 11, 73, 102
4, 139200, Note_on_c, 11, 74, 102
4, 139680, Note_off_c, 11, 74, 102
4, 139920, Note_on_c, 11, 73, 127
4, 140160, Note_off_c, 11, 73, 127
4, 140160, Note_on_c, 11, 74, 102
4, 141120, Note_off_c, 11, 74, 102
4, 141840, Note_on_c, 11, 71, 127
4, 141960, Note_off_c, 11, 71, 127
4, 141960, Note_on_c, 11, 73, 102
4, 142080, Note_off_c, 11, 73, 102
4, 142080, Note_on_c, 11, 74, 102
4, 142560, Note_off_c, 11, 74, 102
4, 142800, Note_on_c, 11, 73, 127
4, 143040, Note_off_c, 11, 73, 127
4, 143040, Note_on_c, 11, 74, 102
4, 144000, Note_off_c, 11, 74, 102
4, 144720, Note_on_c, 11, 71, 127
4, 144840, Note_off_c, 11, 71, 127
4, 144840, Note_on_c, 11, 73, 102
4, 144960, Note_off_c, 11, 73, 102
4, 144960, Note_on_c, 11, 74, 102
4, 145440, Note_off_c, 11, 74, 102
4, 145680, Note_on_c, 11, 71, 127
4, 145920, Note_off_c, 11, 71, 127
4, 145920, Note_on_c, 11, 73, 102
4, 146880, Note_off_c, 11, 73, 102
4, 147120, Note_on_c, 11, 69, 127
4, 147360, Note_off_c, 11, 69, 127
4, 147360, Note_on_c, 11, 66, 127
4, 147600, Note_off_c, 11, 66, 127
4, 147600, Note_on_c, 11, 69, 127
4, 147840, Note_off_c, 11, 69, 127
4, 147840, Note_on_c, 11, 76, 127
4, 148560, Note_off_c, 11, 76, 127
4, 148560, Note_on_c, 11, 70, 127
4, 148680, Note_off_c, 11, 70, 127
4, 148680, Note_on_c, 11, 76, 127
4, 148800, Note_off_c, 11, 76, 127
4, 148800, Note_on_c, 11, 73, 127
4, 149760, Note_off_c, 11, 73, 127
4, 150480, Note_on_c, 11, 71, 127
4, 150600, Note_off_c, 11, 71, 127
4, 150600, Note_on_c, 11, 73, 102
4, 150720, Note_off_c, 11, 73, 102
4, 150720, Note_on_c, 11, 74, 102
4, 151200, Note_off_c, 11, 74, 102
4, 151440, Note_on_c, 11, 73, 127
4, 151680, Note_off_c, 11, 73, 127
4, 151680, Note_on_c, 11, 74, 102
4, 152640, Note_off_c, 11, 74, 102
4, 153360, Note_on_c, 11, 71, 127
4, 153480, Note_off_c, 11, 71, 127
4, 153480, Note_on_c, 11, 73, 102
4, 153600, Note_off_c, 11, 73, 102
4, 153600, Note_on_c, 11, 74, 102
4, 154080, Note_off_c, 11, 74, 102
4, 154320, Note_on_c, 11, 73, 127
4, 154560, Note_off_c, 11, 73, 127
4, 154560, Note_on_c, 11, 74, 102
4, 155520, Note_off_c, 11, 74, 102
4, 156240, Note_on_c, 11, 71, 127
4, 156360, Note_off_c, 11, 71, 127
4, 156360, Note_on_c, 11, 73, 102
4, 156480, Note_off_c, 11, 73, 102
4, 156480, Note_on_c, 11, 74, 102
4, 156960, Note_off_c, 11, 74, 102
4, 157200, Note_on_c, 11, 71, 127
4, 157440, Note_off_c, 11, 71, 127
4, 157440, Note_on_c, 11, 73, 102
4, 158400, Note_off_c, 11, 73, 102
4, 158640, Note_on_c, 11, 69, 127
4, 158880, Note_off_c, 11, 69, 127
4, 158880, Note_on_c, 11, 66, 127
4, 159120, Note_off_c, 11, 66, 127
4, 159120, Note_on_c, 11, 69, 127
4, 159360, Note_off_c, 11, 69, 127
4, 159360, Note_on_c, 11, 76, 127
4, 160080, Note_off_c, 11, 76, 127
4, 160080, Note_on_c, 11, 70, 127
4, 160200, Note_off_c, 11, 70, 127
4, 160200, Note_on_c, 11, 76, 127
4, 160320, Note_off_c, 11, 76, 127
4, 160320, Note_on_c, 11, 73, 127
4, 161280, Note_off_c, 11, 73, 127
4, 162000, Note_on_c, 11, 71, 127
4, 162120, Note_off_c, 11, 71, 127
4, 162120, Note_on_c, 11, 73, 102
4, 162240, Note_off_c, 11, 73, 102
4, 162240, Note_on_c, 11, 74, 102
4, 162720, Note_off_c, 11, 74, 102
4, 162960, Note_on_c, 11, 73, 127
4, 163200, Note_off_c, 11, 73, 127
4, 163200, Note_on_c, 11, 74, 102
4, 164160, Note_off_c, 11, 74, 102
4, 164880, Note_on_c, 11, 71, 127
4, 165000, Note_off_c, 11, 71, 127
4, 165000, Note_on_c, 11, 73, 102
4, 165120, Note_off_c, 11, 73, 102
4, 165120, Note_on_c, 11, 74, 102
4, 165600, Note_off_c, 11, 74, 102
4, 165840, Note_on_c, 11, 73, 127
4, 166080, Note_off_c, 11, 73, 127
4, 166080, Note_on_c, 11, 74, 102
4, 167040, Note_off_c, 11, 74, 102
4, 167760, Note_on_c, 11, 71, 127
4, 167880, Note_off_c, 11, 71, 127
4, 167880, Note_on_c, 11, 73, 102
4, 168000, Note_off_c, 11, 73, 102
4, 168000, Note_on_c, 11, 74, 102
4, 168480, Note_off_c, 11, 74, 102
4, 168720, Note_on_c, 11, 71, 127
4, 168960, Note_off_c, 11, 71, 127
4, 168960, Note_on_c, 11, 73, 102
4, 169920, Note_off_c, 11, 73, 102
4, 170160, Note_on_c, 11, 69, 127
4, 170400, Note_off_c, 11, 69, 127
4, 170400, Note_on_c, 11, 66, 127
4, 170640, Note_off_c, 11, 66, 127
4, 170640, Note_on_c, 11, 69, 127
4, 170880, Note_off_c, 11, 69, 127
4, 170880, Note_on_c, 11, 76, 127
4, 171600, Note_off_c, 11, 76, 127
4, 171600, Note_on_c, 11, 70, 127
4, 171720, Note_off_c, 11, 70, 127
4, 171720, Note_on_c, 11, 76, 127
4, 171840, Note_off_c, 11, 76, 127
4, 171840, Note_on_c, 11, 73, 127
4, 172800, Note_off_c, 11, 73, 127
4, 173520, Note_on_c, 11, 71, 127
4, 173640, Note_off_c, 11, 71, 127
4, 173640, Note_on_c, 11, 73, 102
4, 173760, Note_off_c, 11, 73, 102
4, 173760, Note_on_c, 11, 74, 102
4, 174240, Note_off_c, 11, 74, 102
4, 174480, Note_on_c, 11, 73, 127
4, 174720, Note_off_c, 11, 73, 127
4, 174720, Note_on_c, 11, 74, 102
4, 175680, Note_off_c, 11, 74, 102
4, 176400, Note_on_c, 11, 71, 127
4, 176520, Note_off_c, 11, 71, 127
4, 176520, Note_on_c, 11, 73, 102
4, 176640, Note_off_c, 11, 73, 102
4, 176640, Note_on_c, 11, 74, 102
4, 177120, Note_off_c, 11, 74, 102
4, 177360, Note_on_c, 11, 73, 127
4, 177600, Note_off_c, 11, 73, 127
4, 177600, Note_on_c, 11, 74, 102
4, 178560, Note_off_c, 11, 74, 102
4, 179280, Note_on_c, 11, 71, 127
4, 179400, Note_off_c, 11, 71, 127
4, 179400, Note_on_c, 11, 73, 102
4, 179520, Note_off_c, 11, 73, 102
4, 179520, Note_on_c, 11, 74, 102
4, 180000, Note_off_c, 11, 74, 102
4, 180240, Note_on_c, 11, 71, 127
4, 180480, Note_off_c, 11, 71, 127
4, 180480, Note_on_c, 11, 73, 102
4, 181440, Note_off_c, 11, 73, 102
4, 181680, Note_on_c, 11, 69, 127
4, 181920, Note_off_c, 11, 69, 127
4, 181920, Note_on_c, 11, 66, 127
4, 182160, Note_off_c, 11, 66, 127
4, 182160, Note_on_c, 11, 69, 127
4, 182400, Note_off_c, 11, 69, 127
4, 182400, Note_on_c, 11, 76, 127
4, 183120, Note_off_c, 11, 76, 127
4, 183120, Note_on_c, 11, 70, 127
4, 183240, Note_off_c, 11, 70, 127
4, 183240, Note_on_c, 11, 76, 127
4, 183360, Note_off_c, 11, 76, 127
4, 183360, Note_on_c, 11, 73, 127
4, 184320, Note_off_c, 11, 73, 127
4, 276480, Note_on_c, 11, 67, 127
4, 276480, Note_on_c, 11, 62, 127
4, 276480, Note_on_c, 11, 55, 127
4, 276720, Note_off_c, 11, 67, 127
4, 276720, Note_off_c, 11, 62, 127
4, 276720, Note_off_c, 11, 55, 127
4, 276720, Note_on_c, 11, 68, 127
4, 276720, Note_on_c, 11, 63, 127
4, 276720, Note_on_c, 11, 56, 127
4, 276960, Note_off_c, 11, 68, 127
4, 276960, Note_off_c, 11, 63, 127
4, 276960, Note_off_c, 11, 56, 127
4, 280320, Note_on_c, 11, 68, 127
4, 280320, Note_on_c, 11, 63, 127
4, 280320, Note_on_c, 11, 56, 127
4, 280560, Note_off_c, 11, 68, 127
4, 280560, Note_off_c, 11, 63, 127
4, 280560, Note_off_c, 11, 56, 127
4, 280560, Note_on_c, 11, 67, 127
4, 280560, Note_on_c, 11, 62, 127
4, 280560, Note_on_c, 11, 55, 127
4, 280800, Note_off_c, 11, 67, 127
4, 280800, Note_off_c, 11, 62, 127
4, 280800, Note_off_c, 11, 55, 127
4, 282240, Note_on_c, 11, 67, 127
4, 282240, Note_on_c, 11, 62, 127
4, 282240, Note_on_c, 11, 55, 127
4, 282480, Note_off_c, 11, 67, 127
4, 282480, Note_off_c, 11, 62, 127
4, 282480, Note_off_c, 11, 55, 127
4, 283200, Note_on_c, 11, 68, 127
4, 283200, Note_on_c, 11, 63, 127
4, 283200, Note_on_c, 11, 56, 127
4, 283440, Note_off_c, 11, 68, 127
4, 283440, Note_off_c, 11, 63, 127
4, 283440, Note_off_c, 11, 56, 127
4, 284160, Note_on_c, 11, 62, 127
4, 284160, Note_on_c, 11, 57, 127
4, 288000, Note_off_c, 11, 62, 127
4, 288000, Note_off_c, 11, 57, 127
4, 288000, Note_on_c, 11, 62, 127
4, 288000, Note_on_c, 11, 57, 127
4, 288240, Note_off_c, 11, 62, 127
4, 288240, Note_off_c, 11, 57, 127
4, 288240, Note_on_c, 11, 63, 127
4, 288240, Note_on_c, 11, 58, 127
4, 288480, Note_off_c, 11, 63, 127
4, 288480, Note_off_c, 11, 58, 127
4, 289920, Note_on_c, 11, 63, 127
4, 289920, Note_on_c, 11, 58, 127
4, 290160, Note_off_c, 11, 63, 127
4, 290160, Note_off_c, 11, 58, 127
4, 290160, Note_on_c, 11, 62, 127
4, 290160, Note_on_c, 11, 57, 127
4, 290400, Note_off_c, 11, 62, 127
4, 290400, Note_off_c, 11, 57, 127
4, 290880, Note_on_c, 11, 62, 127
4, 290880, Note_on_c, 11, 57, 127
4, 291120, Note_off_c, 11, 62, 127
4, 291120, Note_off_c, 11, 57, 127
4, 291120, Note_on_c, 11, 63, 127
4, 291120, Note_on_c, 11, 58, 127
4, 291360, Note_off_c, 11, 63, 127
4, 291360, Note_off_c, 11, 58, 127
4, 291840, Note_on_c, 11, 67, 127
4, 291840, Note_on_c, 11, 62, 127
4, 291840, Note_on_c, 11, 55, 127
4, 292080, Note_off_c, 11, 67, 127
4, 292080, Note_off_c, 11, 62, 127
4, 292080, Note_off_c, 11, 55, 127
4, 292080, Note_on_c, 11, 68, 127
4, 292080, Note_on_c, 11, 63, 127
4, 292080, Note_on_c, 11, 56, 127
4, 292320, Note_off_c, 11, 68, 127
4, 292320, Note_off_c, 11, 63, 127
4, 292320, Note_off_c, 11, 56, 127
4, 295680, Note_on_c, 11, 68, 127
4, 295680, Note_on_c, 11, 63, 127
4, 295680, Note_on_c, 11, 56, 127
4, 295920, Note_off_c, 11, 68, 127
4, 295920, Note_off_c, 11, 63, 127
4, 295920, Note_off_c, 11, 56, 127
4, 295920, Note_on_c, 11, 67, 127
4, 295920, Note_on_c, 11, 62, 127
4, 295920, Note_on_c, 11, 55, 127
4, 296160, Note_off_c, 11, 67, 127
4, 296160, Note_off_c, 11, 62, 127
4, 296160, Note_off_c, 11, 55, 127
4, 297600, Note_on_c, 11, 67, 127
4, 297600, Note_on_c, 11, 62, 127
4, 297600, Note_on_c, 11, 55, 127
4, 297840, Note_off_c, 11, 67, 127
4, 297840, Note_off_c, 11, 62, 127
4, 297840, Note_off_c, 11, 55, 127
4, 298560, Note_on_c, 11, 68, 127
4, 298560, Note_on_c, 11, 63, 127
4, 298560, Note_on_c, 11, 56, 127
4, 298800, Note_off_c, 11, 68, 127
4, 298800, Note_off_c, 11, 63, 127
4, 298800, Note_off_c, 11, 56, 127
4, 299520, Note_on_c, 11, 62, 127
4, 299520, Note_on_c, 11, 57, 127
4, 303360, Note_off_c, 11, 62, 127
4, 303360, Note_off_c, 11, 57, 127
4, 303360, Note_on_c, 11, 62, 127
4, 303360, Note_on_c, 11, 57, 127
4, 303600, Note_off_c, 11, 62, 127
4, 303600, Note_off_c, 11, 57, 127
4, 303600, Note_on_c, 11, 63, 127
4, 303600, Note_on_c, 11, 58, 127
4, 303840, Note_off_c, 11, 63, 127
4, 303840, Note_off_c, 11, 58, 127
4, 305280, Note_on_c, 11, 63, 127
4, 305280, Note_on_c, 11, 58, 127
4, 305520, Note_off_c, 11, 63, 127
4, 305520, Note_off_c, 11, 58, 127
4, 305520, Note_on_c, 11, 62, 127
4, 305520, Note_on_c, 11, 57, 127
4, 305760, Note_off_c, 11, 62, 127
4, 305760, Note_off_c, 11, 57, 127
4, 306240, Note_on_c, 11, 62, 127
4, 306240, Note_on_c, 11, 57, 127
4, 306480, Note_off_c, 11, 62, 127
4, 306480, Note_off_c, 11, 57, 127
4, 306480, Note_on_c, 11, 63, 127
4, 306480, Note_on_c, 11, 58, 127
4, 306720, Note_off_c, 11, 63, 127
4, 306720, Note_off_c, 11, 58, 127
4, 307200, Note_on_c, 11, 67, 127
4, 307200, Note_on_c, 11, 62, 127
4, 307200, Note_on_c, 11, 55, 127
4, 307440, Note_off_c, 11, 67, 127
4, 307440, Note_off_c, 11, 62, 127
4, 307440, Note_off_c, 11, 55, 127
4, 307440, Note_on_c, 11, 68, 127
4, 307440, Note_on_c, 11, 63, 127
4, 307440, Note_on_c, 11, 56, 127
4, 307680, Note_off_c, 11, 68, 127
4, 307680, Note_off_c, 11, 63, 127
4, 307680, Note_off_c, 11, 56, 127
4, 311040, Note_on_c, 11, 68, 127
4, 311040, Note_on_c, 11, 63, 127
4, 311040, Note_on_c, 11, 56, 127
4, 311280, Note_off_c, 11, 68, 127
4, 311280, Note_off_c, 11, 63, 127
4, 311280, Note_off_c, 11, 56, 127
4, 311280, Note_on_c, 11, 67, 127
4, 311280, Note_on_c, 11, 62, 127
4, 311280, Note_on_c, 11, 55, 127
4, 311520, Note_off_c, 11, 67, 127
4, 311520, Note_off_c, 11, 62, 127
4, 311520, Note_off_c, 11, 55, 127
4, 312960, Note_on_c, 11, 67, 127
4, 312960, Note_on_c, 11, 62, 127
4, 312960, Note_on_c, 11, 55, 127
4, 313200, Note_off_c, 11, 67, 127
4, 313200, Note_off_c, 11, 62, 127
4, 313200, Note_off_c, 11, 55, 127
4, 313920, Note_on_c, 11, 68, 127
4, 313920, Note_on_c, 11, 63, 127
4, 313920, Note_on_c, 11, 56, 127
4, 314160, Note_off_c, 11, 68, 127
4, 314160, Note_off_c, 11, 63, 127
4, 314160, Note_off_c, 11, 56, 127
4, 314880, Note_on_c, 11, 62, 127
4, 314880, Note_on_c, 11, 57, 127
4, 318720, Note_off_c, 11, 62, 127
4, 318720, Note_off_c, 11, 57, 127
4, 318720, Note_on_c, 11, 62, 127
4, 318720, Note_on_c, 11, 57, 127
4, 318960, Note_off_c, 11, 62, 127
4, 318960, Note_off_c, 11, 57, 127
4, 318960, Note_on_c, 11, 63, 127
4, 318960, Note_on_c, 11, 58, 127
4, 319200, Note_off_c, 11, 63, 127
4, 319200, Note_off_c, 11, 58, 127
4, 320640, Note_on_c, 11, 63, 127
4, 320640, Note_on_c, 11, 58, 127
4, 320880, Note_off_c, 11, 63, 127
4, 320880, Note_off_c, 11, 58, 127
4, 320880, Note_on_c, 11, 62, 127
4, 320880, Note_on_c, 11, 57, 127
4, 321120, Note_off_c, 11, 62, 127
4, 321120, Note_off_c, 11, 57, 127
4, 321600, Note_on_c, 11, 62, 127
4, 321600, Note_on_c, 11, 57, 127
4, 321840, Note_off_c, 11, 62, 127
4, 321840, Note_off_c, 11, 57, 127
4, 321840, Note_on_c, 11, 63, 127
4, 321840, Note_on_c, 11, 58, 127
4, 322080, Note_off_c, 11, 63, 127
4, 322080, Note_off_c, 11, 58, 127
4, 322560, Note_on_c, 11, 67, 127
4, 322560, Note_on_c, 11, 62, 127
4, 322560, Note_on_c, 11, 55, 127
4, 322800, Note_off_c, 11, 67, 127
4, 322800, Note_off_c, 11, 62, 127
4, 322800, Note_off_c, 11, 55, 127
4, 322800, Note_on_c, 11, 68, 127
4, 322800, Note_on_c, 11, 63, 127
4, 322800, Note_on_c, 11, 56, 127
4, 323040, Note_off_c, 11, 68, 127
4, 323040, Note_off_c, 11, 63, 127
4, 323040, Note_off_c, 11, 56, 127
4, 326400, Note_on_c, 11, 68, 127
4, 326400, Note_on_c, 11, 63, 127
4, 326400, Note_on_c, 11, 56, 127
4, 326640, Note_off_c, 11, 68, 127
4, 326640, Note_off_c, 11, 63, 127
4, 326640, Note_off_c, 11, 56, 127
4, 326640, Note_on_c, 11, 67, 127
4, 326640, Note_on_c, 11, 62, 127
4, 326640, Note_on_c, 11, 55, 127
4, 326880, Note_off_c, 11, 67, 127
4, 326880, Note_off_c, 11, 62, 127
4, 326880, Note_off_c, 11, 55, 127
4, 328320, Note_on_c, 11, 67, 127
4, 328320, Note_on_c, 11, 62, 127
4, 328320, Note_on_c, 11, 55, 127
4, 328560, Note_off_c, 11, 67, 127
4, 328560, Note_off_c, 11, 62, 127
4, 328560, Note_off_c, 11, 55, 127
4, 329280, Note_on_c, 11, 68, 127
4, 329280, Note_on_c, 11, 63, 127
4, 329280, Note_on_c, 11, 56, 127
4, 329520, Note_off_c, 11, 68, 127
4, 329520, Note_off_c, 11, 63, 127
4, 329520, Note_off_c, 11, 56, 127
4, 330240, Note_on_c, 11, 62, 127
4, 330240, Note_on_c, 11, 57, 127
4, 334080, Note_off_c, 11, 62, 127
4, 334080, Note_off_c, 11, 57, 127
4, 334080, Note_on_c, 11, 62, 127
4, 334080, Note_on_c, 11, 57, 127
4, 334320, Note_off_c, 11, 62, 127
4, 334320, Note_off_c, 11, 57, 127
4, 334320, Note_on_c, 11, 63, 127
4, 334320, Note_on_c, 11, 58, 127
4, 334560, Note_off_c, 11, 63, 127
4, 334560, Note_off_c, 11, 58, 127
4, 336000, Note_on_c, 11, 63, 127
4, 336000, Note_on_c, 11, 58, 127
4, 336240, Note_off_c, 11, 63, 127
4, 336240, Note_off_c, 11, 58, 127
4, 336240, Note_on_c, 11, 62, 127
4, 336240, Note_on_c, 11, 57, 127
4, 336480, Note_off_c, 11, 62, 127
4, 336480, Note_off_c, 11, 57, 127
4, 336960, Note_on_c, 11, 62, 127
4, 336960, Note_on_c, 11, 57, 127
4, 337200, Note_off_c, 11, 62, 127
4, 337200, Note_off_c, 11, 57, 127
4, 337200, Note_on_c, 11, 63, 127
4, 337200, Note_on_c, 11, 58, 127
4, 337440, Note_off_c, 11, 63, 127
4, 337440, Note_off_c, 11, 58, 127
4, 337920, Note_on_c, 11, 67, 127
4, 337920, Note_on_c, 11, 62, 127
4, 337920, Note_on_c, 11, 55, 127
4, 338160, Note_off_c, 11, 67, 127
4, 338160, Note_off_c, 11, 62, 127
4, 338160, Note_off_c, 11, 55, 127
4, 338160, Note_on_c, 11, 68, 127
4, 338160, Note_on_c, 11, 63, 127
4, 338160, Note_on_c, 11, 56, 127
4, 338400, Note_off_c, 11, 68, 127
4, 338400, Note_off_c, 11, 63, 127
4, 338400, Note_off_c, 11, 56, 127
4, 341760, Note_on_c, 11, 68, 127
4, 341760, Note_on_c, 11, 63, 127
4, 341760, Note_on_c, 11, 56, 127
4, 342000, Note_off_c, 11, 68, 127
4, 342000, Note_off_c, 11, 63, 127
4, 342000, Note_off_c, 11, 56, 127
4, 342000, Note_on_c, 11, 67, 127
4, 342000, Note_on_c, 11, 62, 127
4, 342000, Note_on_c, 11, 55, 127
4, 342240, Note_off_c, 11, 67, 127
4, 342240, Note_off_c, 11, 62, 127
4, 342240, Note_off_c, 11, 55, 127
4, 343680, Note_on_c, 11, 67, 127
4, 343680, Note_on_c, 11, 62, 127
4, 343680, Note_on_c, 11, 55, 127
4, 343920, Note_off_c, 11, 67, 127
4, 343920, Note_off_c, 11, 62, 127
4, 343920, Note_off_c, 11, 55, 127
4, 344640, Note_on_c, 11, 68, 127
4, 344640, Note_on_c, 11, 63, 127
4, 344640, Note_on_c, 11, 56, 127
4, 344880, Note_off_c, 11, 68, 127
4, 344880, Note_off_c, 11, 63, 127
4, 344880, Note_off_c, 11, 56, 127
4, 345600, Note_on_c, 11, 62, 127
4, 345600, Note_on_c, 11, 57, 127
4, 349440, Note_off_c, 11, 62, 127
4, 349440, Note_off_c, 11, 57, 127
4, 349440, Note_on_c, 11, 62, 127
4, 349440, Note_on_c, 11, 57, 127
4, 349680, Note_off_c, 11, 62, 127
4, 349680, Note_off_c, 11, 57, 127
4, 349680, Note_on_c, 11, 63, 127
4, 349680, Note_on_c, 11, 58, 127
4, 349920, Note_off_c, 11, 63, 127
4, 349920, Note_off_c, 11, 58, 127
4, 351360, Note_on_c, 11, 63, 127
4, 351360, Note_on_c, 11, 58, 127
4, 351600, Note_off_c, 11, 63, 127
4, 351600, Note_off_c, 11, 58, 127
4, 351600, Note_on_c, 11, 62, 127
4, 351600, Note_on_c, 11, 57, 127
4, 351840, Note_off_c, 11, 62, 127
4, 351840, Note_off_c, 11, 57, 127
4, 352320, Note_on_c, 11, 62, 127
4, 352320, Note_on_c, 11, 57, 127
4, 352560, Note_off_c, 11, 62, 127
4, 352560, Note_off_c, 11, 57, 127
4, 352560, Note_on_c, 11, 63, 127
4, 352560, Note_on_c, 11, 58, 127
4, 352800, Note_off_c, 11, 63, 127
4, 352800, Note_off_c, 11, 58, 127
4, 353280, Note_on_c, 11, 67, 127
4, 353280, Note_on_c, 11, 62, 127
4, 353280, Note_on_c, 11, 55, 127
4, 353520, Note_off_c, 11, 67, 127
4, 353520, Note_off_c, 11, 62, 127
4, 353520, Note_off_c, 11, 55, 127
4, 353520, Note_on_c, 11, 68, 127
4, 353520, Note_on_c, 11, 63, 127
4, 353520, Note_on_c, 11, 56, 127
4, 353760, Note_off_c, 11, 68, 127
4, 353760, Note_off_c, 11, 63, 127
4, 353760, Note_off_c, 11, 56, 127
4, 357120, Note_on_c, 11, 68, 127
4, 357120, Note_on_c, 11, 63, 127
4, 357120, Note_on_c, 11, 56, 127
4, 357360, Note_off_c, 11, 68, 127
4, 357360, Note_off_c, 11, 63, 127
4, 357360, Note_off_c, 11, 56, 127
4, 357360, Note_on_c, 11, 67, 127
4, 357360, Note_on_c, 11, 62, 127
4, 357360, Note_on_c, 11, 55, 127
4, 357600, Note_off_c, 11, 67, 127
4, 357600, Note_off_c, 11, 62, 127
4, 357600, Note_off_c, 11, 55, 127
4, 359040, Note_on_c, 11, 67, 127
4, 359040, Note_on_c, 11, 62, 127
4, 359040, Note_on_c, 11, 55, 127
4, 359280, Note_off_c, 11, 67, 127
4, 359280, Note_off_c, 11, 62, 127
4, 359280, Note_off_c, 11, 55, 127
4, 360000, Note_on_c, 11, 68, 127
4, 360000, Note_on_c, 11, 63, 127
4, 360000, Note_on_c, 11, 56, 127
4, 360240, Note_off_c, 11, 68, 127
4, 360240, Note_off_c, 11, 63, 127
4, 360240, Note_off_c, 11, 56, 127
4, 360960, Note_on_c, 11, 62, 127
4, 360960, Note_on_c, 11, 57, 127
4, 364800, Note_off_c, 11, 62, 127
4, 364800, Note_off_c, 11, 57, 127
4, 364800, Note_on_c, 11, 62, 127
4, 364800, Note_on_c, 11, 57, 127
4, 365040, Note_off_c, 11, 62, 127
4, 365040, Note_off_c, 11, 57, 127
4, 365040, Note_on_c, 11, 63, 127
4, 365040, Note_on_c, 11, 58, 127
4, 365280, Note_off_c, 11, 63, 127
4, 365280, Note_off_c, 11, 58, 127
4, 366720, Note_on_c, 11, 63, 127
4, 366720, Note_on_c, 11, 58, 127
4, 366960, Note_off_c, 11, 63, 127
4, 366960, Note_off_c, 11, 58, 127
4, 366960, Note_on_c, 11, 62, 127
4, 366960, Note_on_c, 11, 57, 127
4, 367200, Note_off_c, 11, 62, 127
4, 367200, Note_off_c, 11, 57, 127
4, 367680, Note_on_c, 11, 62, 127
4, 367680, Note_on_c, 11, 57, 127
4, 367920, Note_off_c, 11, 62, 127
4, 367920, Note_off_c, 11, 57, 127
4, 367920, Note_on_c, 11, 63, 127
4, 367920, Note_on_c, 11, 58, 127
4, 368160, Note_off_c, 11, 63, 127
4, 368160, Note_off_c, 11, 58, 127
4, 368640, Note_on_c, 11, 67, 127
4, 368640, Note_on_c, 11, 62, 127
4, 368640, Note_on_c, 11, 55, 127
4, 368880, Note_off_c, 11, 67, 127
4, 368880, Note_off_c, 11, 62, 127
4, 368880, Note_off_c, 11, 55, 127
4, 368880, Note_on_c, 11, 68, 127
4, 368880, Note_on_c, 11, 63, 127
4, 368880, Note_on_c, 11, 56, 127
4, 369120, Note_off_c, 11, 68, 127
4, 369120, Note_off_c, 11, 63, 127
4, 369120, Note_off_c, 11, 56, 127
4, 372480, Note_on_c, 11, 68, 127
4, 372480, Note_on_c, 11, 63, 127
4, 372480, Note_on_c, 11, 56, 127
4, 372720, Note_off_c, 11, 68, 127
4, 372720, Note_off_c, 11, 63, 127
4, 372720, Note_off_c, 11, 56, 127
4, 372720, Note_on_c, 11, 67, 127
4, 372720, Note_on_c, 11, 62, 127
4, 372720, Note_on_c, 11, 55, 127
4, 372960, Note_off_c, 11, 67, 127
4, 372960, Note_off_c, 11, 62, 127
4, 372960, Note_off_c, 11, 55, 127
4, 374400, Note_on_c, 11, 67, 127
4, 374400, Note_on_c, 11, 62, 127
4, 374400, Note_on_c, 11, 55, 127
4, 374640, Note_off_c, 11, 67, 127
4, 374640, Note_off_c, 11, 62, 127
4, 374640, Note_off_c, 11, 55, 127
4, 375360, Note_on_c, 11, 68, 127
4, 375360, Note_on_c, 11, 63, 127
4, 375360, Note_on_c, 11, 56, 127
4, 375600, Note_off_c, 11, 68, 127
4, 375600, Note_off_c, 11, 63, 127
4, 375600, Note_off_c, 11, 56, 127
4, 376320, Note_on_c, 11, 62, 127
4, 376320, Note_on_c, 11, 57, 127
4, 380160, Note_off_c, 11, 62, 127
4, 380160, Note_off_c, 11, 57, 127
4, 380160, Note_on_c, 11, 62, 127
4, 380160, Note_on_c, 11, 57, 127
4, 380400, Note_off_c, 11, 62, 127
4, 380400, Note_off_c, 11, 57, 127
4, 380400, Note_on_c, 11, 63, 127
4, 380400, Note_on_c, 11, 58, 127
4, 380640, Note_off_c, 11, 63, 127
4, 380640, Note_off_c, 11, 58, 127
4, 382080, Note_on_c, 11, 63, 127
4, 382080, Note_on_c, 11, 58, 127
4, 382320, Note_off_c, 11, 63, 127
4, 382320, Note_off_c, 11, 58, 127
4, 382320, Note_on_c, 11, 62, 127
4, 382320, Note_on_c, 11, 57, 127
4, 382560, Note_off_c, 11, 62, 127
4, 382560, Note_off_c, 11, 57, 127
4, 383040, Note_on_c, 11, 62, 127
4, 383040, Note_on_c, 11, 57, 127
4, 383280, Note_off_c, 11, 62, 127
4, 383280, Note_off_c, 11, 57, 127
4, 383280, Note_on_c, 11, 63, 127
4, 383280, Note_on_c, 11, 58, 127
4, 383520, Note_off_c, 11, 63, 127
4, 383520, Note_off_c, 11, 58, 127
4, 384000, Note_on_c, 11, 67, 127
4, 384000, Note_on_c, 11, 62, 127
4, 384000, Note_on_c, 11, 55, 127
4, 384240, Note_off_c, 11, 67, 127
4, 384240, Note_off_c, 11, 62, 127
4, 384240, Note_off_c, 11, 55, 127
4, 384240, Note_on_c, 11, 68, 127
4, 384240, Note_on_c, 11, 63, 127
4, 384240, Note_on_c, 11, 56, 127
4, 384480, Note_off_c, 11, 68, 127
4, 384480, Note_off_c, 11, 63, 127
4, 384480, Note_off_c, 11, 56, 127
4, 387840, Note_on_c, 11, 68, 127
4, 387840, Note_on_c, 11, 63, 127
4, 387840, Note_on_c, 11, 56, 127
4, 388080, Note_off_c, 11, 68, 127
4, 388080, Note_off_c, 11, 63, 127
4, 388080, Note_off_c, 11, 56, 127
4, 388080, Note_on_c, 11, 67, 127
4, 388080, Note_on_c, 11, 62, 127
4, 388080, Note_on_c, 11, 55, 127
4, 388320, Note_off_c, 11, 67, 127
4, 388320, Note_off_c, 11, 62, 127
4, 388320, Note_off_c, 11, 55, 127
4, 389760, Note_on_c, 11, 67, 127
4, 389760, Note_on_c, 11, 62, 127
4, 389760, Note_on_c, 11, 55, 127
4, 390000, Note_off_c, 11, 67, 127
4, 390000, Note_off_c, 11, 62, 127
4, 390000, Note_off_c, 11, 55, 127
4, 390720, Note_on_c, 11, 68, 127
4, 390720, Note_on_c, 11, 63, 127
4, 390720, Note_on_c, 11, 56, 127
4, 390960, Note_off_c, 11, 68, 127
4, 390960, Note_off_c, 11, 63, 127
4, 390960, Note_off_c, 11, 56, 127
4, 391680, Note_on_c, 11, 62, 127
4, 391680, Note_on_c, 11, 57, 127
4, 395520, Note_off_c, 11, 62, 127
4, 395520, Note_off_c, 11, 57, 127
4, 395520, Note_on_c, 11, 62, 127
4, 395520, Note_on_c, 11, 57, 127
4, 395760, Note_off_c, 11, 62, 127
4, 395760, Note_off_c, 11, 57, 127
4, 395760, Note_on_c, 11, 63, 127
4, 395760, Note_on_c, 11, 58, 127
4, 396000, Note_off_c, 11, 63, 127
4, 396000, Note_off_c, 11, 58, 127
4, 397440, Note_on_c, 11, 63, 127
4, 397440, Note_on_c, 11, 58, 127
4, 397680, Note_off_c, 11, 63, 127
4, 397680, Note_off_c, 11, 58, 127
4, 397680, Note_on_c, 11, 62, 127
4, 397680, Note_on_c, 11, 57, 127
4, 397920, Note_off_c, 11, 62, 127
4, 397920, Note_off_c, 11, 57, 127
4, 398400, Note_on_c, 11, 62, 127
4, 398400, Note_on_c, 11, 57, 127
4, 398640, Note_off_c, 11, 62, 127
4, 398640, Note_off_c, 11, 57, 127
4, 398640, Note_on_c, 11, 63, 127
4, 398640, Note_on_c, 11, 58, 127
4, 398880, Note_off_c, 11, 63, 127
4, 398880, Note_off_c, 11, 58, 127
4, 399360, Note_on_c, 11, 67, 127
4, 399360, Note_on_c, 11, 62, 127
4, 399360, Note_on_c, 11, 55, 127
4, 399600, Note_off_c, 11, 67, 127
4, 399600, Note_off_c, 11, 62, 127
4, 399600, Note_off_c, 11, 55, 127
4, 399600, Note_on_c, 11, 68, 127
4, 399600, Note_on_c, 11, 63, 127
4, 399600, Note_on_c, 11, 56, 127
4, 399840, Note_off_c, 11, 68, 127
4, 399840, Note_off_c, 11, 63, 127
4, 399840, Note_off_c, 11, 56, 127
4, 403200, Note_on_c, 11, 68, 127
4, 403200, Note_on_c, 11, 63, 127
4, 403200, Note_on_c, 11, 56, 127
4, 403440, Note_off_c, 11, 68, 127
4, 403440, Note_off_c, 11, 63, 127
4, 403440, Note_off_c, 11, 56, 127
4, 403440, Note_on_c, 11, 67, 127
4, 403440, Note_on_c, 11, 62, 127
4, 403440, Note_on_c, 11, 55, 127
4, 403680, Note_off_c, 11, 67, 127
4, 403680, Note_off_c, 11, 62, 127
4, 403680, Note_off_c, 11, 55, 127
4, 405120, Note_on_c, 11, 67, 127
4, 405120, Note_on_c, 11, 62, 127
4, 405120, Note_on_c, 11, 55, 127
4, 405360, Note_off_c, 11, 67, 127
4, 405360, Note_off_c, 11, 62, 127
4, 405360, Note_off_c, 11, 55, 127
4, 406080, Note_on_c, 11, 68, 127
4, 406080, Note_on_c, 11, 63, 127
4, 406080, Note_on_c, 11, 56, 127
4, 406320, Note_off_c, 11, 68, 127
4, 406320, Note_off_c, 11, 63, 127
4, 406320, Note_off_c, 11, 56, 127
4, 407040, Note_on_c, 11, 62, 127
4, 407040, Note_on_c, 11, 57, 127
4, 410880, Note_off_c, 11, 62, 127
4, 410880, Note_off_c, 11, 57, 127
4, 410880, Note_on_c, 11, 62, 127
4, 410880, Note_on_c, 11, 57, 127
4, 411120, Note_off_c, 11, 62, 127
4, 411120, Note_off_c, 11, 57, 127
4, 411120, Note_on_c, 11, 63, 127
4, 411120, Note_on_c, 11, 58, 127
4, 411360, Note_off_c, 11, 63, 127
4, 411360, Note_off_c, 11, 58, 127
4, 412800, Note_on_c, 11, 63, 127
4, 412800, Note_on_c, 11, 58, 127
4, 413040, Note_off_c, 11, 63, 127
4, 413040, Note_off_c, 11, 58, 127
4, 413040, Note_on_c, 11, 62, 127
4, 413040, Note_on_c, 11, 57, 127
4, 413280, Note_off_c, 11, 62, 127
4, 413280, Note_off_c, 11, 57, 127
4, 413760, Note_on_c, 11, 62, 127
4, 413760, Note_on_c, 11, 57, 127
4, 414000, Note_off_c, 11, 62, 127
4, 414000, Note_off_c, 11, 57, 127
4, 414000, Note_on_c, 11, 63, 127
4, 414000, Note_on_c, 11, 58, 127
4, 414240, Note_off_c, 11, 63, 127
4, 414240, Note_off_c, 11, 58, 127
4, 414720, Note_on_c, 11, 67, 127
4, 414720, Note_on_c, 11, 62, 127
4, 414720, Note_on_c, 11, 55, 127
4, 414960, Note_off_c, 11, 67, 127
4, 414960, Note_off_c, 11, 62, 127
4, 414960, Note_off_c, 11, 55, 127
4, 414960, Note_on_c, 11, 68, 127
4, 414960, Note_on_c, 11, 63, 127
4, 414960, Note_on_c, 11, 56, 127
4, 415200, Note_off_c, 11, 68, 127
4, 415200, Note_off_c, 11, 63, 127
4, 415200, Note_off_c, 11, 56, 127
4, 418560, Note_on_c, 11, 68, 127
4, 418560, Note_on_c, 11, 63, 127
4, 418560, Note_on_c, 11, 56, 127
4, 418800, Note_off_c, 11, 68, 127
4, 418800, Note_off_c, 11, 63, 127
4, 418800, Note_off_c, 11, 56, 127
4, 418800, Note_on_c, 11, 67, 127
4, 418800, Note_on_c, 11, 62, 127
4, 418800, Note_on_c, 11, 55, 127
4, 419040, Note_off_c, 11, 67, 127
4, 419040, Note_off_c, 11, 62, 127
4, 419040, Note_off_c, 11, 55, 127
4, 420480, Note_on_c, 11, 67, 127
4, 420480, Note_on_c, 11, 62, 127
4, 420480, Note_on_c, 11, 55, 127
4, 420720, Note_off_c, 11, 67, 127
4, 420720, Note_off_c, 11, 62, 127
4, 420720, Note_off_c, 11, 55, 127
4, 421440, Note_on_c, 11, 68, 127
4, 421440, Note_on_c, 11, 63, 127
4, 421440, Note_on_c, 11, 56, 127
4, 421680, Note_off_c, 11, 68, 127
4, 421680, Note_off_c, 11, 63, 127
4, 421680, Note_off_c, 11, 56, 127
4, 422400, Note_on_c, 11, 62, 127
4, 422400, Note_on_c, 11, 57, 127
4, 426240, Note_off_c, 11, 62, 127
4, 426240, Note_off_c, 11, 57, 127
4, 426240, Note_on_c, 11, 62, 127
4, 426240, Note_on_c, 11, 57, 127
4, 426480, Note_off_c, 11, 62, 127
4, 426480, Note_off_c, 11, 57, 127
4, 426480, Note_on_c, 11, 63, 127
4, 426480, Note_on_c, 11, 58, 127
4, 426720, Note_off_c, 11, 63, 127
4, 426720, Note_off_c, 11, 58, 127
4, 428160, Note_on_c, 11, 63, 127
4, 428160, Note_on_c, 11, 58, 127
4, 428400, Note_off_c, 11, 63, 127
4, 428400, Note_off_c, 11, 58, 127
4, 428400, Note_on_c, 11, 62, 127
4, 428400, Note_on_c, 11, 57, 127
4, 428640, Note_off_c, 11, 62, 127
4, 428640, Note_off_c, 11, 57, 127
4, 429120, Note_on_c, 11, 62, 127
4, 429120, Note_on_c, 11, 57, 127
4, 429360, Note_off_c, 11, 62, 127
4, 429360, Note_off_c, 11, 57, 127
4, 429360, Note_on_c, 11, 63, 127
4, 429360, Note_on_c, 11, 58, 127
4, 429600, Note_off_c, 11, 63, 127
4, 429600, Note_off_c, 11, 58, 127
4, 430080, Note_on_c, 11, 67, 127
4, 430080, Note_on_c, 11, 62, 127
4, 430080, Note_on_c, 11, 55, 127
4, 430320, Note_off_c, 11, 67, 127
4, 430320, Note_off_c, 11, 62, 127
4, 430320, Note_off_c, 11, 55, 127
4, 430320, Note_on_c, 11, 68, 127
4, 430320, Note_on_c, 11, 63, 127
4, 430320, Note_on_c, 11, 56, 127
4, 430560, Note_off_c, 11, 68, 127
4, 430560, Note_off_c, 11, 63, 127
4, 430560, Note_off_c, 11, 56, 127
4, 433920, Note_on_c, 11, 68, 127
4, 433920, Note_on_c, 11, 63, 127
4, 433920, Note_on_c, 11, 56, 127
4, 434160, Note_off_c, 11, 68, 127
4, 434160, Note_off_c, 11, 63, 127
4, 434160, Note_off_c, 11, 56, 127
4, 434160, Note_on_c, 11, 67, 127
4, 434160, Note_on_c, 11, 62, 127
4, 434160, Note_on_c, 11, 55, 127
4, 434400, Note_off_c, 11, 67, 127
4, 434400, Note_off_c, 11, 62, 127
4, 434400, Note_off_c, 11, 55, 127
4, 435840, Note_on_c, 11, 67, 127
4, 435840, Note_on_c, 11, 62, 127
4, 435840, Note_on_c, 11, 55, 127
4, 436080, Note_off_c, 11, 67, 127
4, 436080, Note_off_c, 11, 62, 127
4, 436080, Note_off_c, 11, 55, 127
4, 436800, Note_on_c, 11, 68, 127
4, 436800, Note_on_c, 11, 63, 127
4, 436800, Note_on_c, 11, 56, 127
4, 437040, Note_off_c, 11, 68, 127
4, 437040, Note_off_c, 11, 63, 127
4, 437040, Note_off_c, 11, 56, 127
4, 437760, Note_on_c, 11, 62, 127
4, 437760, Note_on_c, 11, 57, 127
4, 441600, Note_off_c, 11, 62, 127
4, 441600, Note_off_c, 11, 57, 127
4, 441600, Note_on_c, 11, 62, 127
4, 441600, Note_on_c, 11, 57, 127
4, 441840, Note_off_c, 11, 62, 127
4, 441840, Note_off_c, 11, 57, 127
4, 441840, Note_on_c, 11, 63, 127
4, 441840, Note_on_c, 11, 58, 127
4, 442080, Note_off_c, 11, 63, 127
4, 442080, Note_off_c, 11, 58, 127
4, 443520, Note_on_c, 11, 63, 127
4, 443520, Note_on_c, 11, 58, 127
4, 443760, Note_off_c, 11, 63, 127
4, 443760, Note_off_c, 11, 58, 127
4, 443760, Note_on_c, 11, 62, 127
4, 443760, Note_on_c, 11, 57, 127
4, 444000, Note_off_c, 11, 62, 127
4, 444000, Note_off_c, 11, 57, 127
4, 444480, Note_on_c, 11, 62, 127
4, 444480, Note_on_c, 11, 57, 127
4, 444720, Note_off_c, 11, 62, 127
4, 444720, Note_off_c, 11, 57, 127
4, 444720, Note_on_c, 11, 63, 127
4, 444720, Note_on_c, 11, 58, 127
4, 444960, Note_off_c, 11, 63, 127
4, 444960, Note_off_c, 11, 58, 127
4, 446160, Note_on_c, 11, 71, 127
4, 446280, Note_off_c, 11, 71, 127
4, 446280, Note_on_c, 11, 73, 102
4, 446400, Note_off_c, 11, 73, 102
4, 446400, Note_on_c, 11, 74, 102
4, 446880, Note_off_c, 11, 74, 102
4, 447120, Note_on_c, 11, 73, 127
4, 447360, Note_off_c, 11, 73, 127
4, 447360, Note_on_c, 11, 74, 102
4, 448320, Note_off_c, 11, 74, 102
4, 449040, Note_on_c, 11, 71, 127
4, 449160, Note_off_c, 11, 71, 127
4, 449160, Note_on_c, 11, 73, 102
4, 449280, Note_off_c, 11, 73, 102
4, 449280, Note_on_c, 11, 74, 102
4, 449760, Note_off_c, 11, 74, 102
4, 450000, Note_on_c, 11, 73, 127
4, 450240, Note_off_c, 11, 73, 127
4, 450240, Note_on_c, 11, 74, 102
4, 451200, Note_off_c, 11, 74, 102
4, 451920, Note_on_c, 11, 71, 127
4, 452040, Note_off_c, 11, 71, 127
4, 452040, Note_on_c, 11, 73, 102
4, 452160, Note_off_c, 11, 73, 102
4, 452160, Note_on_c, 11, 74, 102
4, 452640, Note_off_c, 11, 74, 102
4, 452880, Note_on_c, 11, 71, 127
4, 453120, Note_off_c, 11, 71, 127
4, 453120, Note_on_c, 11, 73, 102
4, 454080, Note_off_c, 11, 73, 102
4, 454320, Note_on_c, 11, 69, 127
4, 454560, Note_off_c, 11, 69, 127
4, 454560, Note_on_c, 11, 66, 127
4, 454800, Note_off_c, 11, 66, 127
4, 454800, Note_on_c, 11, 69, 127
4, 455040, Note_off_c, 11, 69, 127
4, 455040, Note_on_c, 11, 76, 127
4, 455760, Note_off_c, 11, 76, 127
4, 455760, Note_on_c, 11, 70, 127
4, 455880, Note_off_c, 11, 70, 127
4, 455880, Note_on_c, 11, 76, 127
4, 456000, Note_off_c, 11, 76, 127
4, 456000, Note_on_c, 11, 73, 127
4, 456960, Note_off_c, 11, 73, 127
4, 457680, Note_on_c, 11, 71, 127
4, 457800, Note_off_c, 11, 71, 127
4, 457800, Note_on_c, 11, 73, 102
4, 457920, Note_off_c, 11, 73, 102
4, 457920, Note_on_c, 11, 74, 102
4, 458400, Note_off_c, 11, 74, 102
4, 458640, Note_on_c, 11, 73, 127
4, 458880, Note_off_c, 11, 73, 127
4, 458880, Note_on_c, 11, 74, 102
4, 459840, Note_off_c, 11, 74, 102
4, 460560, Note_on_c, 11, 71, 127
4, 460680, Note_off_c, 11, 71, 127
4, 460680, Note_on_c, 11, 73, 102
4, 460800, Note_off_c, 11, 73, 102
4, 460800, Note_on_c, 11, 74, 102
4, 461280, Note_off_c, 11, 74, 102
4, 461520, Note_on_c, 11, 73, 127
4, 461760, Note_off_c, 11, 73, 127
4, 461760, Note_on_c, 11, 74, 102
4, 462720, Note_off_c, 11, 74, 102
4, 463440, Note_on_c, 11, 71, 127
4, 463560, Note_off_c, 11, 71, 127
4, 463560, Note_on_c, 11, 73, 102
4, 463680, Note_off_c, 11, 73, 102
4, 463680, Note_on_c, 11, 74, 102
4, 464160, Note_off_c, 11, 74, 102
4, 464400, Note_on_c, 11, 71, 127
4, 464640, Note_off_c, 11, 71, 127
4, 464640, Note_on_c, 11, 73, 102
4, 465600, Note_off_c, 11, 73, 102
4, 465840, Note_on_c, 11, 69, 127
4, 466080, Note_off_c, 11, 69, 127
4, 466080, Note_on_c, 11, 66, 127
4, 466320, Note_off_c, 11, 66, 127
4, 466320, Note_on_c, 11, 69, 127
4, 466560, Note_off_c, 11, 69, 127
4, 466560, Note_on_c, 11, 76, 127
4, 467280, Note_off_c, 11, 76, 127
4, 467280, Note_on_c, 11, 70, 127
4, 467400, Note_off_c, 11, 70, 127
4, 467400, Note_on_c, 11, 76, 127
4, 467520, Note_off_c, 11, 76, 127
4, 467520, Note_on_c, 11, 73, 127
4, 468480, Note_off_c, 11, 73, 127
4, 469200, Note_on_c, 11, 71, 127
4, 469320, Note_off_c, 11, 71, 127
4, 469320, Note_on_c, 11, 73, 102
4, 469440, Note_off_c, 11, 73, 102
4, 469440, Note_on_c, 11, 74, 102
4, 469920, Note_off_c, 11, 74, 102
4, 470160, Note_on_c, 11, 73, 127
4, 470400, Note_off_c, 11, 73, 127
4, 470400, Note_on_c, 11, 74, 102
4, 471360, Note_off_c, 11, 74, 102
4, 472080, Note_on_c, 11, 71, 127
4, 472200, Note_off_c, 11, 71, 127
4, 472200, Note_on_c, 11, 73, 102
4, 472320, Note_off_c, 11, 73, 102
4, 472320, Note_on_c, 11, 74, 102
4, 472800, Note_off_c, 11, 74, 102
4, 473040, Note_on_c, 11, 73, 127
4, 473280, Note_off_c, 11, 73, 127
4, 473280, Note_on_c, 11, 74, 102
4, 474240, Note_off_c, 11, 74, 102
4, 474960, Note_on_c, 11, 71, 127
4, 475080, Note_off_c, 11, 71, 127
4, 475080, Note_on_c, 11, 73, 102
4, 475200, Note_off_c, 11, 73, 102
4, 475200, Note_on_c, 11, 74, 102
4, 475680, Note_off_c, 11, 74, 102
4, 475920, Note_on_c, 11, 71, 127
4, 476160, Note_off_c, 11, 71, 127
4, 476160, Note_on_c, 11, 73, 102
4, 477120, Note_off_c, 11, 73, 102
4, 477360, Note_on_c, 11, 69, 127
4, 477600, Note_off_c, 11, 69, 127
4, 477600, Note_on_c, 11, 66, 127
4, 477840, Note_off_c, 11, 66, 127
4, 477840, Note_on_c, 11, 69, 127
4, 478080, Note_off_c, 11, 69, 127
4, 478080, Note_on_c, 11, 76, 127
4, 478800, Note_off_c, 11, 76, 127
4, 478800, Note_on_c, 11, 70, 127
4, 478920, Note_off_c, 11, 70, 127
4, 478920, Note_on_c, 11, 76, 127
4, 479040, Note_off_c, 11, 76, 127
4, 479040, Note_on_c, 11, 73, 127
4, 480000, Note_off_c, 11, 73, 127
4, 480720, Note_on_c, 11, 71, 127
4, 480840, Note_off_c, 11, 71, 127
4, 480840, Note_on_c, 11, 73, 102
4, 480960, Note_off_c, 11, 73, 102
4, 480960, Note_on_c, 11, 74, 102
4, 481440, Note_off_c, 11, 74, 102
4, 481680, Note_on_c, 11, 73, 127
4, 481920, Note_off_c, 11, 73, 127
4, 481920, Note_on_c, 11, 74, 102
4, 482880, Note_off_c, 11, 74, 102
4, 483600, Note_on_c, 11, 71, 127
4, 483720, Note_off_c, 11, 71, 127
4, 483720, Note_on_c, 11, 73, 102
4, 483840, Note_off_c, 11, 73, 102
4, 483840, Note_on_c, 11, 74, 102
4, 484320, Note_off_c, 11, 74, 102
4, 484560, Note_on_c, 11, 73, 127
4, 484800, Note_off_c, 11, 73, 127
4, 484800, Note_on_c, 11, 74, 102
4, 485760, Note_off_c, 11, 74, 102
4, 486480, Note_on_c, 11, 71, 127
4, 486600, Note_off_c, 11, 71, 127
4, 486600, Note_on_c, 11, 73, 102
4, 486720, Note_off_c, 11, 73, 102
4, 486720, Note_on_c, 11, 74, 102
4, 487200, Note_off_c, 11, 74, 102
4, 487440, Note_on_c, 11, 71, 127
4, 487680, Note_off_c, 11, 71, 127
4, 487680, Note_on_c, 11, 73, 102
4, 488640, Note_off_c, 11, 73, 102
4, 488880, Note_on_c, 11, 69, 127
4, 489120, Note_off_c, 11, 69, 127
4, 489120, Note_on_c, 11, 66, 127
4, 489360, Note_off_c, 11, 66, 127
4, 489360, Note_on_c, 11, 69, 127
4, 489600, Note_off_c, 11, 69, 127
4, 489600, Note_on_c, 11, 76, 127
4, 490320, Note_off_c, 11, 76, 127
4, 490320, Note_on_c, 11, 70, 127
4, 490440, Note_off_c, 11, 70, 127
4, 490440, Note_on_c, 11, 76, 127
4, 490560, Note_off_c, 11, 76, 127
4, 490560, Note_on_c, 11, 73, 127
4, 491520, Note_off_c, 11, 73, 127
4, 495360, Note_on_c, 11, 76, 127
4, 496640, Note_off_c, 11, 76, 127
4, 496640, Note_on_c, 11, 73, 127
4, 496960, Note_off_c, 11, 73, 127
4, 496960, Note_on_c, 11, 65, 127
4, 497280, Note_off_c, 11, 65, 127
4, 497280, Note_on_c, 11, 77, 127
4, 497760, Note_off_c, 11, 77, 127
4, 497760, Note_on_c, 11, 74, 127
4, 498480, Note_off_c, 11, 74, 127
4, 498480, Note_on_c, 11, 71, 127
4, 498720, Note_off_c, 11, 71, 127
4, 498720, Note_on_c, 11, 73, 127
4, 498960, Note_off_c, 11, 73, 127
4, 498960, Note_on_c, 11, 74, 127
4, 499200, Note_off_c, 11, 74, 127
4, 499200, Note_on_c, 11, 76, 127
4, 499440, Note_off_c, 11, 76, 127
4, 499440, Note_on_c, 11, 77, 127
4, 499680, Note_off_c, 11, 77, 127
4, 499680, Note_on_c, 11, 79, 127
4, 499920, Note_off_c, 11, 79, 127
4, 499920, Note_on_c, 11, 81, 127
4, 500160, Note_off_c, 11, 81, 127
4, 500160, Note_on_c, 11, 82, 127
4, 500400, Note_off_c, 11, 82, 127
4, 500880, Note_on_c, 11, 80, 127
4, 501000, Note_off_c, 11, 80, 127
4, 501000, Note_on_c, 11, 76, 127
4, 501120, Note_off_c, 11, 76, 127
4, 501120, Note_on_c, 11, 74, 127
4, 505920, Note_off_c, 11, 74, 127
4, 505920, Note_on_c, 11, 71, 127
4, 506331, Note_off_c, 11, 71, 127
4, 506331, Note_on_c, 11, 73, 127
4, 506742, Note_off_c, 11, 73, 127
4, 506742, Note_on_c, 11, 74, 127
4, 507153, Note_off_c, 11, 74, 127
4, 507153, Note_on_c, 11, 76, 127
4, 507564, Note_off_c, 11, 76, 127
4, 507564, Note_on_c, 11, 78, 127
4, 507975, Note_off_c, 11, 78, 127
4, 507975, Note_on_c, 11, 80, 127
4, 508386, Note_off_c, 11, 80, 127
4, 508386, Note_on_c, 11, 81, 127
4, 508797, Note_off_c, 11, 81, 127
4, 508800, Note_on_c, 11, 79, 127
4, 510080, Note_off_c, 11, 79, 127
4, 510080, Note_on_c, 11, 80, 127
4, 510400, Note_off_c, 11, 80, 127
4, 510400, Note_on_c, 11, 77, 127
4, 510720, Note_off_c, 11, 77, 127
4, 510720, Note_on_c, 11, 76, 127
4, 514560, Note_off_c, 11, 76, 127
4, 515040, Note_on_c, 11, 75, 127
4, 515520, Note_off_c, 11, 75, 127
4, 515520, Note_on_c, 11, 73, 127
4, 515840, Note_off_c, 11, 73, 127
4, 515840, Note_on_c, 11, 72, 127
4, 516160, Note_off_c, 11, 72, 127
4, 516160, Note_on_c, 11, 70, 127
4, 516480, Note_off_c, 11, 70, 127
4, 516480, Note_on_c, 11, 68, 127
4, 516960, Note_off_c, 11, 68, 127
4, 516960, Note_on_c, 11, 66, 127
4, 517440, Note_off_c, 11, 66, 127
4, 517440, Note_on_c, 11, 65, 127
4, 517920, Note_off_c, 11, 65, 127
4, 517920, Note_on_c, 11, 67, 127
4, 518400, Note_off_c, 11, 67, 127
4, 518400, Note_on_c, 11, 69, 127
4, 518720, Note_off_c, 11, 69, 127
4, 518720, Note_on_c, 11, 70, 127
4, 519040, Note_off_c, 11, 70, 127
4, 519040, Note_on_c, 11, 72, 127
4, 519360, Note_off_c, 11, 72, 127
4, 519360, Note_on_c, 11, 73, 127
4, 519840, Note_off_c, 11, 73, 127
4, 519840, Note_on_c, 11, 75, 127
4, 520320, Note_off_c, 11, 75, 127
4, 520320, Note_on_c, 11, 76, 127
4, 523200, Note_off_c, 11, 76, 127
4, 523200, Note_on_c, 11, 73, 127
4, 525440, Note_off_c, 11, 73, 127
4, 525440, Note_on_c, 11, 72, 127
4, 525760, Note_off_c, 11, 72, 127
4, 525760, Note_on_c, 11, 70, 127
4, 526080, Note_off_c, 11, 70, 127
4, 526080, Note_on_c, 11, 72, 127
4, 531120, Note_off_c, 11, 72, 127
4, 531120, Note_on_c, 11, 75, 127
4, 531360, Note_off_c, 11, 75, 127
4, 531360, Note_on_c, 11, 73, 127
4, 531600, Note_off_c, 11, 73, 127
4, 531600, Note_on_c, 11, 69, 127
4, 531840, Note_off_c, 11, 69, 127
4, 531840, Note_on_c, 11, 76, 127
4, 533760, Note_off_c, 11, 76, 127
4, 533952, Note_on_c, 11, 78, 127
4, 534144, Note_off_c, 11, 78, 127
4, 534144, Note_on_c, 11, 80, 127
4, 534336, Note_off_c, 11, 80, 127
4, 534336, Note_on_c, 11, 75, 127
4, 534528, Note_off_c, 11, 75, 127
4, 534528, Note_on_c, 11, 73, 127
4, 534720, Note_off_c, 11, 73, 127
4, 534720, Note_on_c, 11, 72, 127
4, 535040, Note_off_c, 11, 72, 127
4, 535360, Note_on_c, 11, 72, 127
4, 535520, Note_off_c, 11, 72, 127
4, 535520, Note_on_c, 11, 73, 102
4, 535680, Note_off_c, 11, 73, 102
4, 535680, Note_on_c, 11, 72, 102
4, 540000, Note_off_c, 11, 72, 102
4, 540000, Note_on_c, 11, 71, 127
4, 540160, Note_off_c, 11, 71, 127
4, 540160, Note_on_c, 11, 71, 127
4, 540320, Note_off_c, 11, 71, 127
4, 540320, Note_on_c, 11, 74, 102
4, 540480, Note_off_c, 11, 74, 102
4, 540480, Note_on_c, 11, 69, 127
4, 541920, Note_off_c, 11, 69, 127
4, 541920, Note_on_c, 11, 71, 127
4, 546240, Note_off_c, 11, 71, 127
4, 546240, Note_on_c, 11, 72, 127
4, 546480, Note_off_c, 11, 72, 127
4, 546480, Note_on_c, 11, 71, 127
4, 546720, Note_off_c, 11, 71, 127
4, 546720, Note_on_c, 11, 71, 127
4, 546960, Note_off_c, 11, 71, 127
4, 546960, Note_on_c, 11, 67, 127
4, 547200, Note_off_c, 11, 67, 127
4, 547200, Note_on_c, 11, 67, 127
4, 547440, Note_off_c, 11, 67, 127
4, 547440, Note_on_c, 11, 69, 127
4, 547680, Note_off_c, 11, 69, 127
4, 547680, Note_on_c, 11, 65, 127
4, 547920, Note_off_c, 11, 65, 127
4, 547920, Note_on_c, 11, 76, 127
4, 548160, Note_off_c, 11, 76, 127
4, 548160, Note_on_c, 11, 74, 127
4, 548400, Note_off_c, 11, 74, 127
4, 548400, Note_on_c, 11, 69, 127
4, 548640, Note_off_c, 11, 69, 127
4, 548640, Note_on_c, 11, 72, 127
4, 548880, Note_off_c, 11, 72, 127
4, 548880, Note_on_c, 11, 71, 127
4, 549120, Note_off_c, 11, 71, 127
4, 549120, Note_on_c, 11, 71, 127
4, 549312, Note_off_c, 11, 71, 127
4, 549312, Note_on_c, 11, 69, 127
4, 549504, Note_off_c, 11, 69, 127
4, 549504, Note_on_c, 11, 69, 127
4, 549696, Note_off_c, 11, 69, 127
4, 549696, Note_on_c, 11, 64, 127
4, 549888, Note_off_c, 11, 64, 127
4, 549888, Note_on_c, 11, 72, 127
4, 550080, Note_off_c, 11, 72, 127
4, 550080, Note_on_c, 11, 71, 127
4, 550400, Note_off_c, 11, 71, 127
4, 550720, Note_on_c, 11, 71, 127
4, 551040, Note_off_c, 11, 71, 127
4, 551360, Note_on_c, 11, 69, 127
4, 551680, Note_off_c, 11, 69, 127
4, 552000, Note_on_c, 11, 72, 127
4, 552320, Note_off_c, 11, 72, 127
4, 552320, Note_on_c, 11, 74, 127
4, 552480, Note_off_c, 11, 74, 127
4, 552480, Note_on_c, 11, 71, 127
4, 556800, Note_off_c, 11, 71, 127
4, 556992, Note_on_c, 11, 72, 127
4, 557184, Note_off_c, 11, 72, 127
4, 557184, Note_on_c, 11, 72, 127
4, 557376, Note_off_c, 11, 72, 127
4, 557376, Note_on_c, 11, 74, 127
4, 557568, Note_off_c, 11, 74, 127
4, 557568, Note_on_c, 11, 69, 127
4, 557760, Note_off_c, 11, 69, 127
4, 557760, Note_on_c, 11, 67, 127
4, 558720, Note_off_c, 11, 67, 127
4, 559104, Note_on_c, 11, 64, 127
4, 559488, Note_off_c, 11, 64, 127
4, 559488, Note_on_c, 11, 65, 127
4, 559840, Note_off_c, 11, 65, 127
4, 559840, Note_on_c, 11, 62, 127
4, 560000, Note_off_c, 11, 62, 127
4, 560000, Note_on_c, 11, 64, 127
4, 560160, Note_off_c, 11, 64, 127
4, 560160, Note_on_c, 11, 65, 127
4, 560320, Note_off_c, 11, 65, 127
4, 560320, Note_on_c, 11, 67, 127
4, 560480, Note_off_c, 11, 67, 127
4, 560480, Note_on_c, 11, 69, 127
4, 560640, Note_off_c, 11, 69, 127
4, 560640, Note_on_c, 11, 70, 127
4, 564000, Note_off_c, 11, 70, 127
4, 564000, Note_on_c, 11, 72, 127
4, 564480, Note_off_c, 11, 72, 127
4, 564480, Note_on_c, 11, 73, 127
4, 564960, Note_off_c, 11, 73, 127
4, 564960, Note_on_c, 11, 75, 127
4, 565440, Note_off_c, 11, 75, 127
4, 565440, Note_on_c, 11, 77, 127
4, 565680, Note_off_c, 11, 77, 127
4, 565680, Note_on_c, 11, 78, 127
4, 565920, Note_off_c, 11, 78, 127
4, 565920, Note_on_c, 11, 80, 127
4, 566160, Note_off_c, 11, 80, 127
4, 566160, Note_on_c, 11, 82, 127
4, 566400, Note_off_c, 11, 82, 127
4, 566400, Note_on_c, 11, 82, 127
4, 566720, Note_off_c, 11, 82, 127
4, 567040, Note_on_c, 11, 80, 127
4, 567360, Note_off_c, 11, 80, 127
4, 567680, Note_on_c, 11, 79, 127
4, 568000, Note_off_c, 11, 79, 127
4, 568320, Note_on_c, 11, 77, 127
4, 568512, Note_off_c, 11, 77, 127
4, 568512, Note_on_c, 11, 75, 127
4, 568704, Note_off_c, 11, 75, 127
4, 568704, Note_on_c, 11, 73, 127
4, 568896, Note_off_c, 11, 73, 127
4, 568896, Note_on_c, 11, 71, 127
4, 569088, Note_off_c, 11, 71, 127
4, 569088, Note_on_c, 11, 70, 127
4, 569280, Note_off_c, 11, 70, 127
4, 569280, Note_on_c, 11, 71, 127
4, 572640, Note_off_c, 11, 71, 127
4, 572640, Note_on_c, 11, 70, 127
4, 573120, Note_off_c, 11, 70, 127
4, 573120, Note_on_c, 11, 68, 127
4, 573440, Note_off_c, 11, 68, 127
4, 573440, Note_on_c, 11, 67, 127
4, 573760, Note_off_c, 11, 67, 127
4, 573760, Note_on_c, 11, 65, 127
4, 574080, Note_off_c, 11, 65, 127
4, 574080, Note_on_c, 11, 63, 127
4, 574560, Note_off_c, 11, 63, 127
4, 574560, Note_on_c, 11, 61, 127
4, 575040, Note_off_c, 11, 61, 127
4, 575040, Note_on_c, 11, 59, 127
4, 575520, Note_off_c, 11, 59, 127
4, 575520, Note_on_c, 11, 61, 127
4, 576000, Note_off_c, 11, 61, 127
4, 576000, Note_on_c, 11, 63, 127
4, 576320, Note_off_c, 11, 63, 127
4, 576320, Note_on_c, 11, 65, 127
4, 576640, Note_off_c, 11, 65, 127
4, 576640, Note_on_c, 11, 67, 127
4, 576960, Note_off_c, 11, 67, 127
4, 576960, Note_on_c, 11, 68, 127
4, 577440, Note_off_c, 11, 68, 127
4, 577440, Note_on_c, 11, 70, 127
4, 577920, Note_off_c, 11, 70, 127
4, 577920, Note_on_c, 11, 72, 127
4, 578080, Note_off_c, 11, 72, 127
4, 578080, Note_on_c, 11, 73, 127
4, 578240, Note_off_c, 11, 73, 127
4, 578240, Note_on_c, 11, 75, 127
4, 578400, Note_off_c, 11, 75, 127
4, 578400, Note_on_c, 11, 77, 127
4, 578560, Note_off_c, 11, 77, 127
4, 578560, Note_on_c, 11, 78, 127
4, 578720, Note_off_c, 11, 78, 127
4, 578720, Note_on_c, 11, 80, 127
4, 578880, Note_off_c, 11, 80, 127
4, 578880, Note_on_c, 11, 82, 127
4, 581040, Note_off_c, 11, 82, 127
4, 581040, Note_on_c, 11, 80, 127
4, 581280, Note_off_c, 11, 80, 127
4, 581280, Note_on_c, 11, 78, 127
4, 581520, Note_off_c, 11, 78, 127
4, 581520, Note_on_c, 11, 77, 127
4, 581760, Note_off_c, 11, 77, 127
4, 581760, Note_on_c, 11, 75, 127
4, 582080, Note_off_c, 11, 75, 127
4, 582080, Note_on_c, 11, 73, 127
4, 582400, Note_off_c, 11, 73, 127
4, 582400, Note_on_c, 11, 71, 127
4, 582720, Note_off_c, 11, 71, 127
4, 582720, Note_on_c, 11, 71, 127
4, 582840, Note_off_c, 11, 71, 127
4, 582840, Note_on_c, 11, 68, 127
4, 582960, Note_off_c, 11, 68, 127
4, 582960, Note_on_c, 11, 71, 127
4, 583080, Note_off_c, 11, 71, 127
4, 583080, Note_on_c, 11, 68, 127
4, 583200, Note_off_c, 11, 68, 127
4, 583200, Note_on_c, 11, 67, 127
4, 586560, Note_off_c, 11, 67, 127
4, 586560, Note_on_c, 11, 71, 127
4, 586800, Note_off_c, 11, 71, 127
4, 586800, Note_on_c, 11, 72, 127
4, 587040, Note_off_c, 11, 72, 127
4, 587040, Note_on_c, 11, 74, 127
4, 587280, Note_off_c, 11, 74, 127
4, 587280, Note_on_c, 11, 75, 127
4, 587520, Note_off_c, 11, 75, 127
4, 587520, Note_on_c, 11, 77, 127
4, 587760, Note_off_c, 11, 77, 127
4, 587760, Note_on_c, 11, 79, 127
4, 588000, Note_off_c, 11, 79, 127
4, 588000, Note_on_c, 11, 80, 127
4, 588240, Note_off_c, 11, 80, 127
4, 588240, Note_on_c, 11, 79, 127
4, 588480, Note_off_c, 11, 79, 127
4, 588480, Note_on_c, 11, 77, 127
4, 588720, Note_off_c, 11, 77, 127
4, 588720, Note_on_c, 11, 75, 127
4, 588960, Note_off_c, 11, 75, 127
4, 588960, Note_on_c, 11, 74, 127
4, 589200, Note_off_c, 11, 74, 127
4, 589200, Note_on_c, 11, 72, 127
4, 589440, Note_off_c, 11, 72, 127
4, 589440, Note_on_c, 11, 71, 127
4, 592320, Note_off_c, 11, 71, 127
4, 592320, Note_on_c, 11, 70, 127
4, 592581, Note_off_c, 11, 70, 127
4, 592581, Note_on_c, 11, 65, 127
4, 592842, Note_off_c, 11, 65, 127
4, 592842, Note_on_c, 11, 65, 127
4, 593103, Note_off_c, 11, 65, 127
4, 593103, Note_on_c, 11, 65, 127
4, 593364, Note_off_c, 11, 65, 127
4, 593364, Note_on_c, 11, 69, 127
4, 593625, Note_off_c, 11, 69, 127
4, 593625, Note_on_c, 11, 67, 127
4, 593886, Note_off_c, 11, 67, 127
4, 593886, Note_on_c, 11, 72, 127
4, 594147, Note_off_c, 11, 72, 127
4, 594147, Note_on_c, 11, 72, 127
4, 594408, Note_off_c, 11, 72, 127
4, 594408, Note_on_c, 11, 72, 127
4, 594669, Note_off_c, 11, 72, 127
4, 594669, Note_on_c, 11, 67, 127
4, 594930, Note_off_c, 11, 67, 127
4, 594930, Note_on_c, 11, 69, 127
4, 595191, Note_off_c, 11, 69, 127
4, 595200, Note_on_c, 11, 69, 127
4, 595488, Note_off_c, 11, 69, 127
4, 595776, Note_on_c, 11, 72, 127
4, 596064, Note_off_c, 11, 72, 127
4, 596352, Note_on_c, 11, 74, 127
4, 596640, Note_off_c, 11, 74, 127
4, 596928, Note_on_c, 11, 67, 127
4, 597216, Note_off_c, 11, 67, 127
4, 597504, Note_on_c, 11, 70, 127
4, 597792, Note_off_c, 11, 70, 127
4, 598080, Note_on_c, 11, 69, 127
4, 600000, Note_off_c, 11, 69, 127
4, 600160, Note_on_c, 11, 70, 127
4, 600320, Note_off_c, 11, 70, 127
4, 600320, Note_on_c, 11, 70, 127
4, 600480, Note_off_c, 11, 70, 127
4, 600480, Note_on_c, 11, 67, 127
4, 600640, Note_off_c, 11, 67, 127
4, 600640, Note_on_c, 11, 67, 127
4, 600800, Note_off_c, 11, 67, 127
4, 600800, Note_on_c, 11, 70, 127
4, 600960, Note_off_c, 11, 70, 127
4, 600960, Note_on_c, 11, 69, 127
4, 602160, Note_off_c, 11, 69, 127
4, 602160, Note_on_c, 11, 62, 127
4, 602400, Note_off_c, 11, 62, 127
4, 602400, Note_on_c, 11, 64, 127
4, 602640, Note_off_c, 11, 64, 127
4, 602640, Note_on_c, 11, 65, 127
4, 602880, Note_off_c, 11, 65, 127
4, 602880, Note_on_c, 11, 67, 127
4, 603120, Note_off_c, 11, 67, 127
4, 603120, Note_on_c, 11, 69, 127
4, 603360, Note_off_c, 11, 69, 127
4, 603360, Note_on_c, 11, 70, 127
4, 603600, Note_off_c, 11, 70, 127
4, 603600, Note_on_c, 11, 72, 127
4, 603840, Note_off_c, 11, 72, 127
4, 603840, Note_on_c, 11, 74, 127
4, 604032, Note_off_c, 11, 74, 127
4, 604032, Note_on_c, 11, 76, 127
4, 604224, Note_off_c, 11, 76, 127
4, 604224, Note_on_c, 11, 77, 127
4, 604416, Note_off_c, 11, 77, 127
4, 604416, Note_on_c, 11, 79, 127
4, 604608, Note_off_c, 11, 79, 127
4, 604608, Note_on_c, 11, 81, 127
4, 604800, Note_off_c, 11, 81, 127
4, 604800, Note_on_c, 11, 83, 127
4, 608640, Note_off_c, 11, 83, 127
4, 609792, Note_on_c, 11, 81, 127
4, 609984, Note_off_c, 11, 81, 127
4, 609984, Note_on_c, 11, 83, 127
4, 610176, Note_off_c, 11, 83, 127
4, 610176, Note_on_c, 11, 78, 127
4, 610368, Note_off_c, 11, 78, 127
4, 610368, Note_on_c, 11, 80, 127
4, 610560, Note_off_c, 11, 80, 127
4, 610560, Note_on_c, 11, 73, 127
4, 612480, Note_off_c, 11, 73, 127
4, 612480, Note_on_c, 11, 85, 127
4, 612720, Note_off_c, 11, 85, 127
4, 612720, Note_on_c, 11, 83, 127
4, 612960, Note_off_c, 11, 83, 127
4, 612960, Note_on_c, 11, 81, 127
4, 613200, Note_off_c, 11, 81, 127
4, 613200, Note_on_c, 11, 80, 127
4, 613440, Note_off_c, 11, 80, 127
4, 613440, Note_on_c, 11, 78, 127
4, 613680, Note_off_c, 11, 78, 127
4, 613680, Note_on_c, 11, 76, 127
4, 613920, Note_off_c, 11, 76, 127
4, 613920, Note_on_c, 11, 75, 127
4, 614160, Note_off_c, 11, 75, 127
4, 614160, Note_on_c, 11, 73, 127
4, 614400, Note_off_c, 11, 73, 127
4, 614400, Note_on_c, 11, 71, 127
4, 614640, Note_off_c, 11, 71, 127
4, 614640, Note_on_c, 11, 69, 127
4, 614880, Note_off_c, 11, 69, 127
4, 614880, Note_on_c, 11, 68, 127
4, 615120, Note_off_c, 11, 68, 127
4, 615120, Note_on_c, 11, 66, 127
4, 615360, Note_off_c, 11, 66, 127
4, 615360, Note_on_c, 11, 65, 127
4, 617280, Note_off_c, 11, 65, 127
4, 617520, Note_on_c, 11, 67, 127
4, 617760, Note_off_c, 11, 67, 127
4, 617760, Note_on_c, 11, 68, 127
4, 618000, Note_off_c, 11, 68, 127
4, 618000, Note_on_c, 11, 70, 127
4, 618240, Note_off_c, 11, 70, 127
4, 618240, Note_on_c, 11, 67, 127
4, 619200, Note_off_c, 11, 67, 127
4, 619680, Note_on_c, 11, 67, 127
4, 621120, Note_off_c, 11, 67, 127
4, 621360, Note_on_c, 11, 63, 127
4, 621600, Note_off_c, 11, 63, 127
4, 621600, Note_on_c, 11, 66, 127
4, 621840, Note_off_c, 11, 66, 127
4, 621840, Note_on_c, 11, 58, 127
4, 622080, Note_off_c, 11, 58, 127
4, 622080, Note_on_c, 11, 60, 127
4, 622320, Note_off_c, 11, 60, 127
4, 622320, Note_on_c, 11, 64, 127
4, 622560, Note_off_c, 11, 64, 127
4, 622560, Note_on_c, 11, 68, 127
4, 622800, Note_off_c, 11, 68, 127
4, 622800, Note_on_c, 11, 60, 127
4, 623040, Note_off_c, 11, 60, 127
4, 623040, Note_on_c, 11, 65, 127
4, 624960, Note_off_c, 11, 65, 127
4, 625440, Note_on_c, 11, 65, 127
4, 625600, Note_off_c, 11, 65, 127
4, 625600, Note_on_c, 11, 65, 127
4, 625760, Note_off_c, 11, 65, 127
4, 625760, Note_on_c, 11, 65, 127
4, 625920, Note_off_c, 11, 65, 127
4, 625920, Note_on_c, 11, 65, 127
4, 626160, Note_off_c, 11, 65, 127
4, 626160, Note_on_c, 11, 65, 127
4, 626400, Note_off_c, 11, 65, 127
4, 626400, Note_on_c, 11, 65, 127
4, 626640, Note_off_c, 11, 65, 127
4, 626640, Note_on_c, 11, 65, 127
4, 626880, Note_off_c, 11, 65, 127
4, 626880, Note_on_c, 11, 65, 127
4, 627840, Note_off_c, 11, 65, 127
4, 628320, Note_on_c, 11, 67, 127
4, 628560, Note_off_c, 11, 67, 127
4, 628560, Note_on_c, 11, 69, 127
4, 628800, Note_off_c, 11, 69, 127
4, 628800, Note_on_c, 11, 71, 127
4, 629040, Note_off_c, 11, 71, 127
4, 629040, Note_on_c, 11, 72, 127
4, 629280, Note_off_c, 11, 72, 127
4, 629280, Note_on_c, 11, 74, 127
4, 629520, Note_off_c, 11, 74, 127
4, 629520, Note_on_c, 11, 76, 127
4, 629760, Note_off_c, 11, 76, 127
4, 629760, Note_on_c, 11, 76, 127
4, 630000, Note_off_c, 11, 76, 127
4, 630000, Note_on_c, 11, 72, 127
4, 630240, Note_off_c, 11, 72, 127
4, 630240, Note_on_c, 11, 71, 127
4, 630480, Note_off_c, 11, 71, 127
4, 630480, Note_on_c, 11, 67, 127
4, 630720, Note_off_c, 11, 67, 127
4, 630720, Note_on_c, 11, 65, 127
4, 630960, Note_off_c, 11, 65, 127
4, 630960, Note_on_c, 11, 72, 127
4, 631200, Note_off_c, 11, 72, 127
4, 631200, Note_on_c, 11, 71, 127
4, 631440, Note_off_c, 11, 71, 127
4, 631440, Note_on_c, 11, 67, 127
4, 631680, Note_off_c, 11, 67, 127
4, 631680, Note_on_c, 11, 64, 127
4, 631872, Note_off_c, 11, 64, 127
4, 631872, Note_on_c, 11, 59, 127
4, 632064, Note_off_c, 11, 59, 127
4, 632064, Note_on_c, 11, 62, 127
4, 632256, Note_off_c, 11, 62, 127
4, 632256, Note_on_c, 11, 67, 127
4, 632448, Note_off_c, 11, 67, 127
4, 632448, Note_on_c, 11, 64, 127
4, 632640, Note_off_c, 11, 64, 127
4, 632640, Note_on_c, 11, 66, 127
4, 632960, Note_off_c, 11, 66, 127
4, 633280, Note_on_c, 11, 66, 127
4, 633600, Note_off_c, 11, 66, 127
4, 633984, Note_on_c, 11, 66, 127
4, 634176, Note_off_c, 11, 66, 127
4, 634176, Note_on_c, 11, 66, 127
4, 634368, Note_off_c, 11, 66, 127
4, 634368, Note_on_c, 11, 66, 127
4, 634560, Note_off_c, 11, 66, 127
4, 634560, Note_on_c, 11, 66, 127
4, 638400, Note_off_c, 11, 66, 127
4, 638720, Note_on_c, 11, 66, 127
4, 638880, Note_off_c, 11, 66, 127
4, 638880, Note_on_c, 11, 66, 127
4, 639040, Note_off_c, 11, 66, 127
4, 639040, Note_on_c, 11, 66, 127
4, 639200, Note_off_c, 11, 66, 127
4, 639200, Note_on_c, 11, 66, 127
4, 639360, Note_off_c, 11, 66, 127
4, 639360, Note_on_c, 11, 66, 127
4, 639634, Note_off_c, 11, 66, 127
4, 639634, Note_on_c, 11, 68, 127
4, 639908, Note_off_c, 11, 68, 127
4, 639908, Note_on_c, 11, 69, 127
4, 640182, Note_off_c, 11, 69, 127
4, 640182, Note_on_c, 11, 71, 127
4, 640456, Note_off_c, 11, 71, 127
4, 640456, Note_on_c, 11, 72, 127
4, 640730, Note_off_c, 11, 72, 127
4, 640730, Note_on_c, 11, 74, 127
4, 641004, Note_off_c, 11, 74, 127
4, 641004, Note_on_c, 11, 75, 127
4, 641278, Note_off_c, 11, 75, 127
4, 641280, Note_on_c, 11, 78, 127
4, 642240, Note_off_c, 11, 78, 127
4, 642480, Note_on_c, 11, 74, 127
4, 642720, Note_off_c, 11, 74, 127
4, 642720, Note_on_c, 11, 69, 127
4, 642960, Note_off_c, 11, 69, 127
4, 642960, Note_on_c, 11, 67, 127
4, 643200, Note_off_c, 11, 67, 127
4, 643200, Note_on_c, 11, 74, 127
4, 643360, Note_off_c, 11, 74, 127
4, 643360, Note_on_c, 11, 75, 127
4, 643520, Note_off_c, 11, 75, 127
4, 643520, Note_on_c, 11, 70, 127
4, 643680, Note_off_c, 11, 70, 127
4, 643680, Note_on_c, 11, 69, 127
4, 645600, Note_off_c, 11, 69, 127
4, 645760, Note_on_c, 11, 67, 127
4, 645920, Note_off_c, 11, 67, 127
4, 645920, Note_on_c, 11, 70, 127
4, 646080, Note_off_c, 11, 70, 127
4, 646080, Note_on_c, 11, 69, 127
4, 648960, Note_off_c, 11, 69, 127
4, 651840, Note_on_c, 11, 65, 127
4, 651977, Note_off_c, 11, 65, 127
4, 651977, Note_on_c, 11, 67, 127
4, 652114, Note_off_c, 11, 67, 127
4, 652114, Note_on_c, 11, 67, 127
4, 652251, Note_off_c, 11, 67, 127
4, 652251, Note_on_c, 11, 72, 127
4, 652388, Note_off_c, 11, 72, 127
4, 652388, Note_on_c, 11, 70, 127
4, 652525, Note_off_c, 11, 70, 127
4, 652525, Note_on_c, 11, 67, 127
4, 652662, Note_off_c, 11, 67, 127
4, 652662, Note_on_c, 11, 62, 127
4, 652799, Note_off_c, 11, 62, 127
4, 652800, Note_on_c, 11, 64, 127
4, 653760, Note_off_c, 11, 64, 127
4, 654336, Note_on_c, 11, 67, 127
4, 654528, Note_off_c, 11, 67, 127
4, 654528, Note_on_c, 11, 74, 127
4, 654720, Note_off_c, 11, 74, 127
4, 654720, Note_on_c, 11, 71, 127
4, 654912, Note_off_c, 11, 71, 127
4, 654912, Note_on_c, 11, 72, 127
4, 655104, Note_off_c, 11, 72, 127
4, 655104, Note_on_c, 11, 76, 127
4, 655296, Note_off_c, 11, 76, 127
4, 655296, Note_on_c, 11, 77, 127
4, 655488, Note_off_c, 11, 77, 127
4, 655488, Note_on_c, 11, 74, 127
4, 655680, Note_off_c, 11, 74, 127
4, 655680, Note_on_c, 11, 72, 127
4, 655800, Note_off_c, 11, 72, 127
4, 655800, Note_on_c, 11, 77, 127
4, 655920, Note_off_c, 11, 77, 127
4, 655920, Note_on_c, 11, 76, 127
4, 656040, Note_off_c, 11, 76, 127
4, 656040, Note_on_c, 11, 72, 127
4, 656160, Note_off_c, 11, 72, 127
4, 656160, Note_on_c, 11, 76, 127
4, 658560, Note_off_c, 11, 76, 127
4, 661760, Note_on_c, 11, 76, 127
4, 662080, Note_off_c, 11, 76, 127
4, 662080, Note_on_c, 11, 76, 127
4, 662400, Note_off_c, 11, 76, 127
4, 662400, Note_on_c, 11, 76, 127
4, 662720, Note_off_c, 11, 76, 127
4, 663040, Note_on_c, 11, 76, 127
4, 663360, Note_off_c, 11, 76, 127
4, 663680, Note_on_c, 11, 76, 127
4, 664000, Note_off_c, 11, 76, 127
4, 664320, Note_on_c, 11, 76, 127
4, 664457, Note_off_c, 11, 76, 127
4, 664457, Note_on_c, 11, 74, 127
4, 664594, Note_off_c, 11, 74, 127
4, 664594, Note_on_c, 11, 71, 127
4, 664731, Note_off_c, 11, 71, 127
4, 664731, Note_on_c, 11, 76, 127
4, 664868, Note_off_c, 11, 76, 127
4, 664868, Note_on_c, 11, 74, 127
4, 665005, Note_off_c, 11, 74, 127
4, 665005, Note_on_c, 11, 76, 127
4, 665142, Note_off_c, 11, 76, 127
4, 665142, Note_on_c, 11, 77, 127
4, 665279, Note_off_c, 11, 77, 127
4, 665279, Note_on_c, 11, 68, 127
4, 666239, Note_off_c, 11, 68, 127
4, 666959, Note_on_c, 11, 68, 127
4, 667079, Note_off_c, 11, 68, 127
4, 667079, Note_on_c, 11, 69, 127
4, 667199, Note_off_c, 11, 69, 127
4, 667200, Note_on_c, 11, 74, 127
4, 667520, Note_off_c, 11, 74, 127
4, 667520, Note_on_c, 11, 71, 127
4, 667840, Note_off_c, 11, 71, 127
4, 667840, Note_on_c, 11, 72, 127
4, 668160, Note_off_c, 11, 72, 127
4, 668160, Note_on_c, 11, 76, 127
4, 668480, Note_off_c, 11, 76, 127
4, 668480, Note_on_c, 11, 77, 127
4, 668800, Note_off_c, 11, 77, 127
4, 668800, Note_on_c, 11, 74, 127
4, 669120, Note_off_c, 11, 74, 127
4, 669120, Note_on_c, 11, 76, 127
4, 672000, Note_off_c, 11, 76, 127
4, 672480, Note_on_c, 11, 76, 127
4, 672640, Note_off_c, 11, 76, 127
4, 672640, Note_on_c, 11, 77, 127
4, 672800, Note_off_c, 11, 77, 127
4, 672800, Note_on_c, 11, 76, 127
4, 672960, Note_off_c, 11, 76, 127
4, 672960, Note_on_c, 11, 74, 127
4, 673120, Note_off_c, 11, 74, 127
4, 673120, Note_on_c, 11, 76, 127
4, 673280, Note_off_c, 11, 76, 127
4, 673280, Note_on_c, 11, 77, 127
4, 673440, Note_off_c, 11, 77, 127
4, 673440, Note_on_c, 11, 79, 127
4, 673600, Note_off_c, 11, 79, 127
4, 673600, Note_on_c, 11, 81, 127
4, 673760, Note_off_c, 11, 81, 127
4, 673760, Note_on_c, 11, 76, 127
4, 673920, Note_off_c, 11, 76, 127
4, 673920, Note_on_c, 11, 76, 127
4, 674080, Note_off_c, 11, 76, 127
4, 674080, Note_on_c, 11, 77, 127
4, 674240, Note_off_c, 11, 77, 127
4, 674240, Note_on_c, 11, 79, 127
4, 674400, Note_off_c, 11, 79, 127
4, 674400, Note_on_c, 11, 74, 127
4, 674560, Note_off_c, 11, 74, 127
4, 674560, Note_on_c, 11, 76, 127
4, 674720, Note_off_c, 11, 76, 127
4, 674720, Note_on_c, 11, 77, 127
4, 674880, Note_off_c, 11, 77, 127
4, 674880, Note_on_c, 11, 79, 127
4, 675040, Note_off_c, 11, 79, 127
4, 675040, Note_on_c, 11, 81, 127
4, 675200, Note_off_c, 11, 81, 127
4, 675200, Note_on_c, 11, 76, 127
4, 675360, Note_off_c, 11, 76, 127
4, 675360, Note_on_c, 11, 76, 127
4, 675520, Note_off_c, 11, 76, 127
4, 675520, Note_on_c, 11, 77, 127
4, 675680, Note_off_c, 11, 77, 127
4, 675680, Note_on_c, 11, 79, 127
4, 675840, Note_off_c, 11, 79, 127
4, 675840, Note_on_c, 11, 82, 127
4, 676320, Note_off_c, 11, 82, 127
4, 677280, Note_on_c, 11, 81, 127
4, 677760, Note_off_c, 11, 81, 127
4, 678720, Note_on_c, 11, 74, 127
4, 679200, Note_off_c, 11, 74, 127
4, 679680, Note_on_c, 11, 69, 127
4, 680160, Note_off_c, 11, 69, 127
4, 680640, Note_on_c, 11, 74, 127
4, 681120, Note_off_c, 11, 74, 127
4, 681600, Note_on_c, 11, 79, 127
4, 682080, Note_off_c, 11, 79, 127
4, 682560, Note_on_c, 11, 76, 127
4, 683040, Note_off_c, 11, 76, 127
4, 683520, Note_on_c, 11, 72, 127
4, 684000, Note_off_c, 11, 72, 127
4, 684480, Note_on_c, 11, 69, 127
4, 685920, Note_off_c, 11, 69, 127
4, 685920, Note_on_c, 11, 76, 127
4, 687360, Note_off_c, 11, 76, 127
4, 687360, Note_on_c, 11, 75, 127
4, 687840, Note_off_c, 11, 75, 127
4, 687840, Note_on_c, 11, 68, 127
4, 688320, Note_off_c, 11, 68, 127
4, 688320, Note_on_c, 11, 61, 127
4, 688800, Note_off_c, 11, 61, 127
4, 688800, Note_on_c, 11, 60, 127
4, 689280, Note_off_c, 11, 60, 127
4, 689280, Note_on_c, 11, 61, 127
4, 689760, Note_off_c, 11, 61, 127
4, 689760, Note_on_c, 11, 68, 127
4, 690240, Note_off_c, 11, 68, 127
4, 690240, Note_on_c, 11, 64, 127
4, 690720, Note_off_c, 11, 64, 127
4, 690720, Note_on_c, 11, 66, 127
4, 691200, Note_off_c, 11, 66, 127
4, 691200, Note_on_c, 11, 67, 127
4, 691680, Note_off_c, 11, 67, 127
4, 691680, Note_on_c, 11, 72, 127
4, 692160, Note_off_c, 11, 72, 127
4, 692160, Note_on_c, 11, 72, 127
4, 692400, Note_off_c, 11, 72, 127
4, 692640, Note_on_c, 11, 72, 127
4, 692880, Note_off_c, 11, 72, 127
4, 693120, Note_on_c, 11, 72, 127
4, 696960, Note_off_c, 11, 72, 127
4, 696960, End_track
5, 0, Start_track
5, 0, Pitch_bend_c, 6, 8192
5, 0, Control_c, 6, 7, 103
5, 0, Control_c, 6, 10, 63
5, 0, Control_c, 6, 93, 0
5, 0, Control_c, 6, 91, 0
5, 0, Control_c, 6, 95, 0
5, 0, Control_c, 6, 92, 0
5, 0, Control_c, 6, 11, 127
5, 0, Program_c, 6, 33
5, 0, Note_on_c, 6, 37, 127
5, 2880, Note_off_c, 6, 37, 127
5, 2880, Note_on_c, 6, 48, 127
5, 5760, Note_off_c, 6, 48, 127
5, 5760, Note_on_c, 6, 37, 127
5, 8640, Note_off_c, 6, 37, 127
5, 8640, Note_on_c, 6, 48, 127
5, 11520, Note_off_c, 6, 48, 127
5, 11520, Note_on_c, 6, 36, 127
5, 14400, Note_off_c, 6, 36, 127
5, 14400, Note_on_c, 6, 48, 127
5, 17280, Note_off_c, 6, 48, 127
5, 17280, Note_on_c, 6, 36, 127
5, 20160, Note_off_c, 6, 36, 127
5, 20160, Note_on_c, 6, 48, 127
5, 23040, Note_off_c, 6, 48, 127
5, 23040, Note_on_c, 6, 35, 127
5, 25920, Note_off_c, 6, 35, 127
5, 25920, Note_on_c, 6, 47, 127
5, 28800, Note_off_c, 6, 47, 127
5, 28800, Note_on_c, 6, 35, 127
5, 31680, Note_off_c, 6, 35, 127
5, 31680, Note_on_c, 6, 47, 127
5, 34560, Note_off_c, 6, 47, 127
5, 34560, Note_on_c, 6, 34, 127
5, 37440, Note_off_c, 6, 34, 127
5, 37440, Note_on_c, 6, 46, 127
5, 40320, Note_off_c, 6, 46, 127
5, 40320, Note_on_c, 6, 34, 127
5, 43200, Note_off_c, 6, 34, 127
5, 43200, Note_on_c, 6, 46, 127
5, 46080, Note_off_c, 6, 46, 127
5, 46080, Note_on_c, 6, 34, 127
5, 48320, Note_off_c, 6, 34, 127
5, 48320, Note_on_c, 6, 49, 127
5, 48640, Note_off_c, 6, 49, 127
5, 48640, Note_on_c, 6, 47, 127
5, 48960, Note_off_c, 6, 47, 127
5, 48960, Note_on_c, 6, 49, 127
5, 50400, Note_off_c, 6, 49, 127
5, 50400, Note_on_c, 6, 45, 127
5, 51360, Note_off_c, 6, 45, 127
5, 51360, Note_on_c, 6, 43, 127
5, 51840, Note_off_c, 6, 43, 127
5, 51840, Note_on_c, 6, 34, 127
5, 52800, Note_off_c, 6, 34, 127
5, 52800, Note_on_c, 6, 46, 127
5, 54720, Note_off_c, 6, 46, 127
5, 54720, Note_on_c, 6, 49, 127
5, 55040, Note_off_c, 6, 49, 127
5, 55040, Note_on_c, 6, 47, 127
5, 55360, Note_off_c, 6, 47, 127
5, 55360, Note_on_c, 6, 49, 127
5, 57600, Note_off_c, 6, 49, 127
5, 57600, Note_on_c, 6, 33, 127
5, 58560, Note_off_c, 6, 33, 127
5, 58560, Note_on_c, 6, 45, 127
5, 59040, Note_off_c, 6, 45, 127
5, 59520, Note_on_c, 6, 45, 127
5, 60000, Note_off_c, 6, 45, 127
5, 60480, Note_on_c, 6, 45, 127
5, 62160, Note_off_c, 6, 45, 127
5, 62160, Note_on_c, 6, 38, 127
5, 62400, Note_off_c, 6, 38, 127
5, 62400, Note_on_c, 6, 45, 127
5, 62640, Note_off_c, 6, 45, 127
5, 62640, Note_on_c, 6, 43, 127
5, 62880, Note_off_c, 6, 43, 127
5, 62880, Note_on_c, 6, 40, 127
5, 63120, Note_off_c, 6, 40, 127
5, 63120, Note_on_c, 6, 38, 127
5, 63360, Note_off_c, 6, 38, 127
5, 63360, Note_on_c, 6, 33, 127
5, 64320, Note_off_c, 6, 33, 127
5, 64320, Note_on_c, 6, 45, 127
5, 66240, Note_off_c, 6, 45, 127
5, 66240, Note_on_c, 6, 45, 127
5, 66560, Note_off_c, 6, 45, 127
5, 66560, Note_on_c, 6, 45, 127
5, 66880, Note_off_c, 6, 45, 127
5, 66880, Note_on_c, 6, 38, 127
5, 67200, Note_off_c, 6, 38, 127
5, 67200, Note_on_c, 6, 45, 127
5, 69120, Note_off_c, 6, 45, 127
5, 69120, Note_on_c, 6, 32, 127
5, 70080, Note_off_c, 6, 32, 127
5, 70080, Note_on_c, 6, 44, 127
5, 70560, Note_off_c, 6, 44, 127
5, 71040, Note_on_c, 6, 44, 127
5, 71520, Note_off_c, 6, 44, 127
5, 72000, Note_on_c, 6, 44, 127
5, 72480, Note_off_c, 6, 44, 127
5, 72480, Note_on_c, 6, 46, 127
5, 72960, Note_off_c, 6, 46, 127
5, 72960, Note_on_c, 6, 42, 127
5, 73440, Note_off_c, 6, 42, 127
5, 73440, Note_on_c, 6, 44, 127
5, 73920, Note_off_c, 6, 44, 127
5, 73920, Note_on_c, 6, 39, 127
5, 74400, Note_off_c, 6, 39, 127
5, 74400, Note_on_c, 6, 32, 127
5, 74880, Note_off_c, 6, 32, 127
5, 74880, Note_on_c, 6, 37, 127
5, 75840, Note_off_c, 6, 37, 127
5, 75840, Note_on_c, 6, 47, 127
5, 77280, Note_off_c, 6, 47, 127
5, 77280, Note_on_c, 6, 42, 127
5, 77760, Note_off_c, 6, 42, 127
5, 77760, Note_on_c, 6, 44, 127
5, 79920, Note_off_c, 6, 44, 127
5, 79920, Note_on_c, 6, 37, 127
5, 80160, Note_off_c, 6, 37, 127
5, 80160, Note_on_c, 6, 39, 127
5, 80640, Note_off_c, 6, 39, 127
5, 80640, Note_on_c, 6, 31, 127
5, 81600, Note_off_c, 6, 31, 127
5, 81600, Note_on_c, 6, 43, 127
5, 82080, Note_off_c, 6, 43, 127
5, 82560, Note_on_c, 6, 43, 127
5, 83040, Note_off_c, 6, 43, 127
5, 83520, Note_on_c, 6, 43, 127
5, 84960, Note_off_c, 6, 43, 127
5, 84960, Note_on_c, 6, 38, 127
5, 85200, Note_off_c, 6, 38, 127
5, 85200, Note_on_c, 6, 41, 127
5, 85440, Note_off_c, 6, 41, 127
5, 85440, Note_on_c, 6, 43, 127
5, 85680, Note_off_c, 6, 43, 127
5, 85680, Note_on_c, 6, 41, 127
5, 85920, Note_off_c, 6, 41, 127
5, 85920, Note_on_c, 6, 38, 127
5, 86160, Note_off_c, 6, 38, 127
5, 86160, Note_on_c, 6, 36, 127
5, 86400, Note_off_c, 6, 36, 127
5, 86400, Note_on_c, 6, 31, 127
5, 87360, Note_off_c, 6, 31, 127
5, 87360, Note_on_c, 6, 43, 127
5, 89280, Note_off_c, 6, 43, 127
5, 89280, Note_on_c, 6, 43, 127
5, 89600, Note_off_c, 6, 43, 127
5, 89600, Note_on_c, 6, 43, 127
5, 89920, Note_off_c, 6, 43, 127
5, 89920, Note_on_c, 6, 38, 127
5, 90240, Note_off_c, 6, 38, 127
5, 90240, Note_on_c, 6, 43, 127
5, 92160, Note_off_c, 6, 43, 127
5, 92160, Note_on_c, 6, 42, 127
5, 99840, Note_off_c, 6, 42, 127
5, 100320, Note_on_c, 6, 32, 127
5, 100800, Note_off_c, 6, 32, 127
5, 100800, Note_on_c, 6, 32, 127
5, 101280, Note_off_c, 6, 32, 127
5, 101280, Note_on_c, 6, 33, 127
5, 101760, Note_off_c, 6, 33, 127
5, 101760, Note_on_c, 6, 33, 127
5, 102240, Note_off_c, 6, 33, 127
5, 102240, Note_on_c, 6, 35, 127
5, 102720, Note_off_c, 6, 35, 127
5, 102720, Note_on_c, 6, 37, 127
5, 103200, Note_off_c, 6, 37, 127
5, 103200, Note_on_c, 6, 42, 127
5, 103680, Note_off_c, 6, 42, 127
5, 103680, Note_on_c, 6, 41, 127
5, 111360, Note_off_c, 6, 41, 127
5, 111840, Note_on_c, 6, 32, 127
5, 112320, Note_off_c, 6, 32, 127
5, 112320, Note_on_c, 6, 32, 127
5, 112800, Note_off_c, 6, 32, 127
5, 112800, Note_on_c, 6, 33, 127
5, 113280, Note_off_c, 6, 33, 127
5, 113280, Note_on_c, 6, 35, 127
5, 113760, Note_off_c, 6, 35, 127
5, 113760, Note_on_c, 6, 37, 127
5, 114240, Note_off_c, 6, 37, 127
5, 114240, Note_on_c, 6, 39, 127
5, 114720, Note_off_c, 6, 39, 127
5, 114720, Note_on_c, 6, 38, 127
5, 115200, Note_off_c, 6, 38, 127
5, 115200, Note_on_c, 6, 40, 127
5, 122880, Note_off_c, 6, 40, 127
5, 123360, Note_on_c, 6, 40, 127
5, 123840, Note_off_c, 6, 40, 127
5, 123840, Note_on_c, 6, 40, 127
5, 124320, Note_off_c, 6, 40, 127
5, 124320, Note_on_c, 6, 38, 127
5, 124800, Note_off_c, 6, 38, 127
5, 124800, Note_on_c, 6, 38, 127
5, 125280, Note_off_c, 6, 38, 127
5, 125280, Note_on_c, 6, 37, 127
5, 125760, Note_off_c, 6, 37, 127
5, 125760, Note_on_c, 6, 37, 127
5, 126240, Note_off_c, 6, 37, 127
5, 126240, Note_on_c, 6, 30, 127
5, 126720, Note_off_c, 6, 30, 127
5, 126720, Note_on_c, 6, 31, 127
5, 134400, Note_off_c, 6, 31, 127
5, 134880, Note_on_c, 6, 37, 127
5, 135360, Note_off_c, 6, 37, 127
5, 135360, Note_on_c, 6, 35, 127
5, 135840, Note_off_c, 6, 35, 127
5, 135840, Note_on_c, 6, 34, 127
5, 136320, Note_off_c, 6, 34, 127
5, 136320, Note_on_c, 6, 31, 127
5, 136800, Note_off_c, 6, 31, 127
5, 136800, Note_on_c, 6, 27, 127
5, 137280, Note_off_c, 6, 27, 127
5, 137280, Note_on_c, 6, 30, 127
5, 137760, Note_off_c, 6, 30, 127
5, 137760, Note_on_c, 6, 34, 127
5, 138240, Note_off_c, 6, 34, 127
5, 138240, Note_on_c, 6, 35, 127
5, 140640, Note_off_c, 6, 35, 127
5, 140640, Note_on_c, 6, 30, 127
5, 141120, Note_off_c, 6, 30, 127
5, 141120, Note_on_c, 6, 35, 127
5, 142080, Note_off_c, 6, 35, 127
5, 142080, Note_on_c, 6, 37, 127
5, 143040, Note_off_c, 6, 37, 127
5, 143040, Note_on_c, 6, 38, 127
5, 144000, Note_off_c, 6, 38, 127
5, 144000, Note_on_c, 6, 34, 127
5, 147840, Note_off_c, 6, 34, 127
5, 148320, Note_on_c, 6, 30, 127
5, 148800, Note_off_c, 6, 30, 127
5, 148800, Note_on_c, 6, 28, 127
5, 149280, Note_off_c, 6, 28, 127
5, 149280, Note_on_c, 6, 30, 127
5, 149760, Note_off_c, 6, 30, 127
5, 149760, Note_on_c, 6, 35, 127
5, 152160, Note_off_c, 6, 35, 127
5, 152160, Note_on_c, 6, 30, 127
5, 152640, Note_off_c, 6, 30, 127
5, 152640, Note_on_c, 6, 35, 127
5, 153600, Note_off_c, 6, 35, 127
5, 153600, Note_on_c, 6, 37, 127
5, 154560, Note_off_c, 6, 37, 127
5, 154560, Note_on_c, 6, 38, 127
5, 155520, Note_off_c, 6, 38, 127
5, 155520, Note_on_c, 6, 34, 127
5, 159360, Note_off_c, 6, 34, 127
5, 159840, Note_on_c, 6, 30, 127
5, 160320, Note_off_c, 6, 30, 127
5, 160320, Note_on_c, 6, 28, 127
5, 160800, Note_off_c, 6, 28, 127
5, 160800, Note_on_c, 6, 30, 127
5, 161280, Note_off_c, 6, 30, 127
5, 161280, Note_on_c, 6, 35, 127
5, 163920, Note_off_c, 6, 35, 127
5, 163920, Note_on_c, 6, 30, 127
5, 164160, Note_off_c, 6, 30, 127
5, 164160, Note_on_c, 6, 35, 127
5, 165120, Note_off_c, 6, 35, 127
5, 165120, Note_on_c, 6, 37, 127
5, 166080, Note_off_c, 6, 37, 127
5, 166080, Note_on_c, 6, 38, 127
5, 167040, Note_off_c, 6, 38, 127
5, 167040, Note_on_c, 6, 34, 127
5, 170880, Note_off_c, 6, 34, 127
5, 172320, Note_on_c, 6, 28, 127
5, 172800, Note_off_c, 6, 28, 127
5, 172800, Note_on_c, 6, 35, 127
5, 174240, Note_off_c, 6, 35, 127
5, 174240, Note_on_c, 6, 42, 127
5, 174480, Note_off_c, 6, 42, 127
5, 174480, Note_on_c, 6, 40, 127
5, 174720, Note_off_c, 6, 40, 127
5, 174720, Note_on_c, 6, 38, 127
5, 174960, Note_off_c, 6, 38, 127
5, 174960, Note_on_c, 6, 35, 127
5, 175200, Note_off_c, 6, 35, 127
5, 175200, Note_on_c, 6, 31, 127
5, 175440, Note_off_c, 6, 31, 127
5, 175440, Note_on_c, 6, 34, 127
5, 175680, Note_off_c, 6, 34, 127
5, 175680, Note_on_c, 6, 35, 127
5, 176640, Note_off_c, 6, 35, 127
5, 176640, Note_on_c, 6, 37, 127
5, 177600, Note_off_c, 6, 37, 127
5, 177600, Note_on_c, 6, 38, 127
5, 178560, Note_off_c, 6, 38, 127
5, 178560, Note_on_c, 6, 34, 127
5, 182400, Note_off_c, 6, 34, 127
5, 182880, Note_on_c, 6, 30, 127
5, 183360, Note_off_c, 6, 30, 127
5, 183360, Note_on_c, 6, 28, 127
5, 183840, Note_off_c, 6, 28, 127
5, 183840, Note_on_c, 6, 30, 127
5, 184320, Note_off_c, 6, 30, 127
5, 184320, Note_on_c, 6, 32, 127
5, 192000, Note_off_c, 6, 32, 127
5, 192000, Note_on_c, 6, 29, 127
5, 199680, Note_off_c, 6, 29, 127
5, 199680, Note_on_c, 6, 32, 127
5, 207360, Note_off_c, 6, 32, 127
5, 207360, Note_on_c, 6, 29, 127
5, 210480, Note_off_c, 6, 29, 127
5, 210480, Note_on_c, 6, 41, 127
5, 210720, Note_off_c, 6, 41, 127
5, 210720, Note_on_c, 6, 44, 127
5, 210960, Note_off_c, 6, 44, 127
5, 211200, Note_on_c, 6, 44, 127
5, 212640, Note_off_c, 6, 44, 127
5, 212880, Note_on_c, 6, 46, 127
5, 214560, Note_off_c, 6, 46, 127
5, 214560, Note_on_c, 6, 41, 127
5, 215040, Note_off_c, 6, 41, 127
5, 215040, Note_on_c, 6, 44, 127
5, 220800, Note_off_c, 6, 44, 127
5, 220800, Note_on_c, 6, 44, 127
5, 222720, Note_off_c, 6, 44, 127
5, 222720, Note_on_c, 6, 41, 127
5, 225600, Note_on_c, 6, 53, 127
5, 228480, Note_off_c, 6, 41, 127
5, 228480, Note_off_c, 6, 53, 127
5, 228480, Note_on_c, 6, 39, 127
5, 229440, Note_off_c, 6, 39, 127
5, 229440, Note_on_c, 6, 41, 127
5, 230400, Note_off_c, 6, 41, 127
5, 230400, Note_on_c, 6, 44, 127
5, 234720, Note_off_c, 6, 44, 127
5, 234720, Note_on_c, 6, 56, 127
5, 238080, Note_off_c, 6, 56, 127
5, 238080, Note_on_c, 6, 41, 127
5, 242880, Note_on_c, 6, 53, 127
5, 245760, Note_off_c, 6, 41, 127
5, 245760, Note_off_c, 6, 53, 127
5, 245760, Note_on_c, 6, 31, 127
5, 246000, Note_off_c, 6, 31, 127
5, 246000, Note_on_c, 6, 32, 127
5, 246240, Note_off_c, 6, 32, 127
5, 249600, Note_on_c, 6, 32, 127
5, 249840, Note_off_c, 6, 32, 127
5, 249840, Note_on_c, 6, 31, 127
5, 250080, Note_off_c, 6, 31, 127
5, 251520, Note_on_c, 6, 31, 127
5, 251760, Note_off_c, 6, 31, 127
5, 252480, Note_on_c, 6, 32, 127
5, 252720, Note_off_c, 6, 32, 127
5, 253440, Note_on_c, 6, 38, 127
5, 253440, Note_on_c, 6, 26, 127
5, 257280, Note_off_c, 6, 38, 127
5, 257280, Note_off_c, 6, 26, 127
5, 257280, Note_on_c, 6, 38, 127
5, 257520, Note_off_c, 6, 38, 127
5, 257520, Note_on_c, 6, 39, 127
5, 257760, Note_off_c, 6, 39, 127
5, 259200, Note_on_c, 6, 39, 127
5, 259440, Note_off_c, 6, 39, 127
5, 259440, Note_on_c, 6, 38, 127
5, 259680, Note_off_c, 6, 38, 127
5, 260160, Note_on_c, 6, 38, 127
5, 260400, Note_off_c, 6, 38, 127
5, 260400, Note_on_c, 6, 39, 127
5, 260640, Note_off_c, 6, 39, 127
5, 261120, Note_on_c, 6, 31, 127
5, 261360, Note_off_c, 6, 31, 127
5, 261360, Note_on_c, 6, 32, 127
5, 261600, Note_off_c, 6, 32, 127
5, 264960, Note_on_c, 6, 32, 127
5, 265200, Note_off_c, 6, 32, 127
5, 265200, Note_on_c, 6, 31, 127
5, 265440, Note_off_c, 6, 31, 127
5, 266880, Note_on_c, 6, 31, 127
5, 267120, Note_off_c, 6, 31, 127
5, 267840, Note_on_c, 6, 32, 127
5, 268080, Note_off_c, 6, 32, 127
5, 268800, Note_on_c, 6, 38, 127
5, 268800, Note_on_c, 6, 26, 127
5, 272640, Note_off_c, 6, 38, 127
5, 272640, Note_off_c, 6, 26, 127
5, 272640, Note_on_c, 6, 38, 127
5, 272880, Note_off_c, 6, 38, 127
5, 272880, Note_on_c, 6, 39, 127
5, 273120, Note_off_c, 6, 39, 127
5, 274560, Note_on_c, 6, 39, 127
5, 274800, Note_off_c, 6, 39, 127
5, 274800, Note_on_c, 6, 38, 127
5, 275040, Note_off_c, 6, 38, 127
5, 275520, Note_on_c, 6, 38, 127
5, 275760, Note_off_c, 6, 38, 127
5, 275760, Note_on_c, 6, 39, 127
5, 276000, Note_off_c, 6, 39, 127
5, 276480, Note_on_c, 6, 31, 127
5, 276720, Note_off_c, 6, 31, 127
5, 276720, Note_on_c, 6, 32, 127
5, 276960, Note_off_c, 6, 32, 127
5, 280320, Note_on_c, 6, 32, 127
5, 280560, Note_off_c, 6, 32, 127
5, 280560, Note_on_c, 6, 31, 127
5, 280800, Note_off_c, 6, 31, 127
5, 282240, Note_on_c, 6, 31, 127
5, 282480, Note_off_c, 6, 31, 127
5, 283200, Note_on_c, 6, 32, 127
5, 283440, Note_off_c, 6, 32, 127
5, 284160, Note_on_c, 6, 38, 127
5, 284160, Note_on_c, 6, 26, 127
5, 288000, Note_off_c, 6, 38, 127
5, 288000, Note_off_c, 6, 26, 127
5, 288000, Note_on_c, 6, 38, 127
5, 288240, Note_off_c, 6, 38, 127
5, 288240, Note_on_c, 6, 39, 127
5, 288480, Note_off_c, 6, 39, 127
5, 289920, Note_on_c, 6, 39, 127
5, 290160, Note_off_c, 6, 39, 127
5, 290160, Note_on_c, 6, 38, 127
5, 290400, Note_off_c, 6, 38, 127
5, 290880, Note_on_c, 6, 38, 127
5, 291120, Note_off_c, 6, 38, 127
5, 291120, Note_on_c, 6, 39, 127
5, 291360, Note_off_c, 6, 39, 127
5, 291840, Note_on_c, 6, 31, 127
5, 292080, Note_off_c, 6, 31, 127
5, 292080, Note_on_c, 6, 32, 127
5, 292320, Note_off_c, 6, 32, 127
5, 295680, Note_on_c, 6, 32, 127
5, 295920, Note_off_c, 6, 32, 127
5, 295920, Note_on_c, 6, 31, 127
5, 296160, Note_off_c, 6, 31, 127
5, 297600, Note_on_c, 6, 31, 127
5, 297840, Note_off_c, 6, 31, 127
5, 298560, Note_on_c, 6, 32, 127
5, 298800, Note_off_c, 6, 32, 127
5, 299520, Note_on_c, 6, 38, 127
5, 299520, Note_on_c, 6, 26, 127
5, 303360, Note_off_c, 6, 38, 127
5, 303360, Note_off_c, 6, 26, 127
5, 303360, Note_on_c, 6, 38, 127
5, 303600, Note_off_c, 6, 38, 127
5, 303600, Note_on_c, 6, 39, 127
5, 303840, Note_off_c, 6, 39, 127
5, 305280, Note_on_c, 6, 39, 127
5, 305520, Note_off_c, 6, 39, 127
5, 305520, Note_on_c, 6, 38, 127
5, 305760, Note_off_c, 6, 38, 127
5, 306240, Note_on_c, 6, 38, 127
5, 306480, Note_off_c, 6, 38, 127
5, 306480, Note_on_c, 6, 39, 127
5, 306720, Note_off_c, 6, 39, 127
5, 307200, Note_on_c, 6, 31, 127
5, 307440, Note_off_c, 6, 31, 127
5, 307440, Note_on_c, 6, 32, 127
5, 307680, Note_off_c, 6, 32, 127
5, 311040, Note_on_c, 6, 32, 127
5, 311280, Note_off_c, 6, 32, 127
5, 311280, Note_on_c, 6, 31, 127
5, 311520, Note_off_c, 6, 31, 127
5, 312960, Note_on_c, 6, 31, 127
5, 313200, Note_off_c, 6, 31, 127
5, 313920, Note_on_c, 6, 32, 127
5, 314160, Note_off_c, 6, 32, 127
5, 314880, Note_on_c, 6, 38, 127
5, 314880, Note_on_c, 6, 26, 127
5, 318720, Note_off_c, 6, 38, 127
5, 318720, Note_off_c, 6, 26, 127
5, 318720, Note_on_c, 6, 38, 127
5, 318960, Note_off_c, 6, 38, 127
5, 318960, Note_on_c, 6, 39, 127
5, 319200, Note_off_c, 6, 39, 127
5, 320640, Note_on_c, 6, 39, 127
5, 320880, Note_off_c, 6, 39, 127
5, 320880, Note_on_c, 6, 38, 127
5, 321120, Note_off_c, 6, 38, 127
5, 321600, Note_on_c, 6, 38, 127
5, 321840, Note_off_c, 6, 38, 127
5, 321840, Note_on_c, 6, 39, 127
5, 322080, Note_off_c, 6, 39, 127
5, 322560, Note_on_c, 6, 31, 127
5, 322800, Note_off_c, 6, 31, 127
5, 322800, Note_on_c, 6, 32, 127
5, 323040, Note_off_c, 6, 32, 127
5, 326400, Note_on_c, 6, 32, 127
5, 326640, Note_off_c, 6, 32, 127
5, 326640, Note_on_c, 6, 31, 127
5, 326880, Note_off_c, 6, 31, 127
5, 328320, Note_on_c, 6, 31, 127
5, 328560, Note_off_c, 6, 31, 127
5, 329280, Note_on_c, 6, 32, 127
5, 329520, Note_off_c, 6, 32, 127
5, 330240, Note_on_c, 6, 38, 127
5, 330240, Note_on_c, 6, 26, 127
5, 334080, Note_off_c, 6, 38, 127
5, 334080, Note_off_c, 6, 26, 127
5, 334080, Note_on_c, 6, 38, 127
5, 334320, Note_off_c, 6, 38, 127
5, 334320, Note_on_c, 6, 39, 127
5, 334560, Note_off_c, 6, 39, 127
5, 336000, Note_on_c, 6, 39, 127
5, 336240, Note_off_c, 6, 39, 127
5, 336240, Note_on_c, 6, 38, 127
5, 336480, Note_off_c, 6, 38, 127
5, 336960, Note_on_c, 6, 38, 127
5, 337200, Note_off_c, 6, 38, 127
5, 337200, Note_on_c, 6, 39, 127
5, 337440, Note_off_c, 6, 39, 127
5, 337920, Note_on_c, 6, 31, 127
5, 338160, Note_off_c, 6, 31, 127
5, 338160, Note_on_c, 6, 32, 127
5, 338400, Note_off_c, 6, 32, 127
5, 341760, Note_on_c, 6, 32, 127
5, 342000, Note_off_c, 6, 32, 127
5, 342000, Note_on_c, 6, 31, 127
5, 342240, Note_off_c, 6, 31, 127
5, 343680, Note_on_c, 6, 31, 127
5, 343920, Note_off_c, 6, 31, 127
5, 344640, Note_on_c, 6, 32, 127
5, 344880, Note_off_c, 6, 32, 127
5, 345600, Note_on_c, 6, 38, 127
5, 345600, Note_on_c, 6, 26, 127
5, 349440, Note_off_c, 6, 38, 127
5, 349440, Note_off_c, 6, 26, 127
5, 349440, Note_on_c, 6, 38, 127
5, 349680, Note_off_c, 6, 38, 127
5, 349680, Note_on_c, 6, 39, 127
5, 349920, Note_off_c, 6, 39, 127
5, 351360, Note_on_c, 6, 39, 127
5, 351600, Note_off_c, 6, 39, 127
5, 351600, Note_on_c, 6, 38, 127
5, 351840, Note_off_c, 6, 38, 127
5, 352320, Note_on_c, 6, 38, 127
5, 352560, Note_off_c, 6, 38, 127
5, 352560, Note_on_c, 6, 39, 127
5, 352800, Note_off_c, 6, 39, 127
5, 353280, Note_on_c, 6, 31, 127
5, 353520, Note_off_c, 6, 31, 127
5, 353520, Note_on_c, 6, 32, 127
5, 353760, Note_off_c, 6, 32, 127
5, 357120, Note_on_c, 6, 32, 127
5, 357360, Note_off_c, 6, 32, 127
5, 357360, Note_on_c, 6, 31, 127
5, 357600, Note_off_c, 6, 31, 127
5, 359040, Note_on_c, 6, 31, 127
5, 359280, Note_off_c, 6, 31, 127
5, 360000, Note_on_c, 6, 32, 127
5, 360240, Note_off_c, 6, 32, 127
5, 360960, Note_on_c, 6, 38, 127
5, 360960, Note_on_c, 6, 26, 127
5, 364800, Note_off_c, 6, 38, 127
5, 364800, Note_off_c, 6, 26, 127
5, 364800, Note_on_c, 6, 38, 127
5, 365040, Note_off_c, 6, 38, 127
5, 365040, Note_on_c, 6, 39, 127
5, 365280, Note_off_c, 6, 39, 127
5, 366720, Note_on_c, 6, 39, 127
5, 366960, Note_off_c, 6, 39, 127
5, 366960, Note_on_c, 6, 38, 127
5, 367200, Note_off_c, 6, 38, 127
5, 367680, Note_on_c, 6, 38, 127
5, 367920, Note_off_c, 6, 38, 127
5, 367920, Note_on_c, 6, 39, 127
5, 368160, Note_off_c, 6, 39, 127
5, 368640, Note_on_c, 6, 31, 127
5, 368880, Note_off_c, 6, 31, 127
5, 368880, Note_on_c, 6, 32, 127
5, 369120, Note_off_c, 6, 32, 127
5, 372480, Note_on_c, 6, 32, 127
5, 372720, Note_off_c, 6, 32, 127
5, 372720, Note_on_c, 6, 31, 127
5, 372960, Note_off_c, 6, 31, 127
5, 374400, Note_on_c, 6, 31, 127
5, 374640, Note_off_c, 6, 31, 127
5, 375360, Note_on_c, 6, 32, 127
5, 375600, Note_off_c, 6, 32, 127
5, 376320, Note_on_c, 6, 38, 127
5, 376320, Note_on_c, 6, 26, 127
5, 380160, Note_off_c, 6, 38, 127
5, 380160, Note_off_c, 6, 26, 127
5, 380160, Note_on_c, 6, 38, 127
5, 380400, Note_off_c, 6, 38, 127
5, 380400, Note_on_c, 6, 39, 127
5, 380640, Note_off_c, 6, 39, 127
5, 382080, Note_on_c, 6, 39, 127
5, 382320, Note_off_c, 6, 39, 127
5, 382320, Note_on_c, 6, 38, 127
5, 382560, Note_off_c, 6, 38, 127
5, 383040, Note_on_c, 6, 38, 127
5, 383280, Note_off_c, 6, 38, 127
5, 383280, Note_on_c, 6, 39, 127
5, 383520, Note_off_c, 6, 39, 127
5, 384000, Note_on_c, 6, 31, 127
5, 384240, Note_off_c, 6, 31, 127
5, 384240, Note_on_c, 6, 32, 127
5, 384480, Note_off_c, 6, 32, 127
5, 387840, Note_on_c, 6, 32, 127
5, 388080, Note_off_c, 6, 32, 127
5, 388080, Note_on_c, 6, 31, 127
5, 388320, Note_off_c, 6, 31, 127
5, 389760, Note_on_c, 6, 31, 127
5, 390000, Note_off_c, 6, 31, 127
5, 390720, Note_on_c, 6, 32, 127
5, 390960, Note_off_c, 6, 32, 127
5, 391680, Note_on_c, 6, 38, 127
5, 391680, Note_on_c, 6, 26, 127
5, 395520, Note_off_c, 6, 38, 127
5, 395520, Note_off_c, 6, 26, 127
5, 395520, Note_on_c, 6, 38, 127
5, 395760, Note_off_c, 6, 38, 127
5, 395760, Note_on_c, 6, 39, 127
5, 396000, Note_off_c, 6, 39, 127
5, 397440, Note_on_c, 6, 39, 127
5, 397680, Note_off_c, 6, 39, 127
5, 397680, Note_on_c, 6, 38, 127
5, 397920, Note_off_c, 6, 38, 127
5, 398400, Note_on_c, 6, 38, 127
5, 398640, Note_off_c, 6, 38, 127
5, 398640, Note_on_c, 6, 39, 127
5, 398880, Note_off_c, 6, 39, 127
5, 399360, Note_on_c, 6, 31, 127
5, 399600, Note_off_c, 6, 31, 127
5, 399600, Note_on_c, 6, 32, 127
5, 399840, Note_off_c, 6, 32, 127
5, 403200, Note_on_c, 6, 32, 127
5, 403440, Note_off_c, 6, 32, 127
5, 403440, Note_on_c, 6, 31, 127
5, 403680, Note_off_c, 6, 31, 127
5, 405120, Note_on_c, 6, 31, 127
5, 405360, Note_off_c, 6, 31, 127
5, 406080, Note_on_c, 6, 32, 127
5, 406320, Note_off_c, 6, 32, 127
5, 407040, Note_on_c, 6, 38, 127
5, 407040, Note_on_c, 6, 26, 127
5, 410880, Note_off_c, 6, 38, 127
5, 410880, Note_off_c, 6, 26, 127
5, 410880, Note_on_c, 6, 38, 127
5, 411120, Note_off_c, 6, 38, 127
5, 411120, Note_on_c, 6, 39, 127
5, 411360, Note_off_c, 6, 39, 127
5, 412800, Note_on_c, 6, 39, 127
5, 413040, Note_off_c, 6, 39, 127
5, 413040, Note_on_c, 6, 38, 127
5, 413280, Note_off_c, 6, 38, 127
5, 413760, Note_on_c, 6, 38, 127
5, 414000, Note_off_c, 6, 38, 127
5, 414000, Note_on_c, 6, 39, 127
5, 414240, Note_off_c, 6, 39, 127
5, 414720, Note_on_c, 6, 31, 127
5, 414960, Note_off_c, 6, 31, 127
5, 414960, Note_on_c, 6, 32, 127
5, 415200, Note_off_c, 6, 32, 127
5, 418560, Note_on_c, 6, 32, 127
5, 418800, Note_off_c, 6, 32, 127
5, 418800, Note_on_c, 6, 31, 127
5, 419040, Note_off_c, 6, 31, 127
5, 420480, Note_on_c, 6, 31, 127
5, 420720, Note_off_c, 6, 31, 127
5, 421440, Note_on_c, 6, 32, 127
5, 421680, Note_off_c, 6, 32, 127
5, 422400, Note_on_c, 6, 38, 127
5, 422400, Note_on_c, 6, 26, 127
5, 426240, Note_off_c, 6, 38, 127
5, 426240, Note_off_c, 6, 26, 127
5, 426240, Note_on_c, 6, 38, 127
5, 426480, Note_off_c, 6, 38, 127
5, 426480, Note_on_c, 6, 39, 127
5, 426720, Note_off_c, 6, 39, 127
5, 428160, Note_on_c, 6, 39, 127
5, 428400, Note_off_c, 6, 39, 127
5, 428400, Note_on_c, 6, 38, 127
5, 428640, Note_off_c, 6, 38, 127
5, 429120, Note_on_c, 6, 38, 127
5, 429360, Note_off_c, 6, 38, 127
5, 429360, Note_on_c, 6, 39, 127
5, 429600, Note_off_c, 6, 39, 127
5, 430080, Note_on_c, 6, 31, 127
5, 430320, Note_off_c, 6, 31, 127
5, 430320, Note_on_c, 6, 32, 127
5, 430560, Note_off_c, 6, 32, 127
5, 433920, Note_on_c, 6, 32, 127
5, 434160, Note_off_c, 6, 32, 127
5, 434160, Note_on_c, 6, 31, 127
5, 434400, Note_off_c, 6, 31, 127
5, 435840, Note_on_c, 6, 31, 127
5, 436080, Note_off_c, 6, 31, 127
5, 436800, Note_on_c, 6, 32, 127
5, 437040, Note_off_c, 6, 32, 127
5, 437760, Note_on_c, 6, 38, 127
5, 437760, Note_on_c, 6, 26, 127
5, 441600, Note_off_c, 6, 38, 127
5, 441600, Note_off_c, 6, 26, 127
5, 441600, Note_on_c, 6, 38, 127
5, 441840, Note_off_c, 6, 38, 127
5, 441840, Note_on_c, 6, 39, 127
5, 442080, Note_off_c, 6, 39, 127
5, 443520, Note_on_c, 6, 39, 127
5, 443760, Note_off_c, 6, 39, 127
5, 443760, Note_on_c, 6, 38, 127
5, 444000, Note_off_c, 6, 38, 127
5, 444480, Note_on_c, 6, 38, 127
5, 444720, Note_off_c, 6, 38, 127
5, 444720, Note_on_c, 6, 39, 127
5, 444960, Note_off_c, 6, 39, 127
5, 445440, Note_on_c, 6, 35, 127
5, 447840, Note_off_c, 6, 35, 127
5, 447840, Note_on_c, 6, 30, 127
5, 448320, Note_off_c, 6, 30, 127
5, 448320, Note_on_c, 6, 35, 127
5, 449280, Note_off_c, 6, 35, 127
5, 449280, Note_on_c, 6, 37, 127
5, 450240, Note_off_c, 6, 37, 127
5, 450240, Note_on_c, 6, 38, 127
5, 451200, Note_off_c, 6, 38, 127
5, 451200, Note_on_c, 6, 34, 127
5, 455040, Note_off_c, 6, 34, 127
5, 455520, Note_on_c, 6, 30, 127
5, 456000, Note_off_c, 6, 30, 127
5, 456000, Note_on_c, 6, 28, 127
5, 456480, Note_off_c, 6, 28, 127
5, 456480, Note_on_c, 6, 30, 127
5, 456960, Note_off_c, 6, 30, 127
5, 456960, Note_on_c, 6, 35, 127
5, 459360, Note_off_c, 6, 35, 127
5, 459360, Note_on_c, 6, 30, 127
5, 459840, Note_off_c, 6, 30, 127
5, 459840, Note_on_c, 6, 35, 127
5, 460800, Note_off_c, 6, 35, 127
5, 460800, Note_on_c, 6, 37, 127
5, 461760, Note_off_c, 6, 37, 127
5, 461760, Note_on_c, 6, 38, 127
5, 462720, Note_off_c, 6, 38, 127
5, 462720, Note_on_c, 6, 34, 127
5, 466560, Note_off_c, 6, 34, 127
5, 467040, Note_on_c, 6, 30, 127
5, 467520, Note_off_c, 6, 30, 127
5, 467520, Note_on_c, 6, 28, 127
5, 468000, Note_off_c, 6, 28, 127
5, 468000, Note_on_c, 6, 30, 127
5, 468480, Note_off_c, 6, 30, 127
5, 468480, Note_on_c, 6, 35, 127
5, 471120, Note_off_c, 6, 35, 127
5, 471120, Note_on_c, 6, 30, 127
5, 471360, Note_off_c, 6, 30, 127
5, 471360, Note_on_c, 6, 35, 127
5, 472320, Note_off_c, 6, 35, 127
5, 472320, Note_on_c, 6, 37, 127
5, 473280, Note_off_c, 6, 37, 127
5, 473280, Note_on_c, 6, 38, 127
5, 474240, Note_off_c, 6, 38, 127
5, 474240, Note_on_c, 6, 34, 127
5, 478080, Note_off_c, 6, 34, 127
5, 479520, Note_on_c, 6, 28, 127
5, 480000, Note_off_c, 6, 28, 127
5, 480000, Note_on_c, 6, 35, 127
5, 481440, Note_off_c, 6, 35, 127
5, 481440, Note_on_c, 6, 42, 127
5, 481680, Note_off_c, 6, 42, 127
5, 481680, Note_on_c, 6, 40, 127
5, 481920, Note_off_c, 6, 40, 127
5, 481920, Note_on_c, 6, 38, 127
5, 482160, Note_off_c, 6, 38, 127
5, 482160, Note_on_c, 6, 35, 127
5, 482400, Note_off_c, 6, 35, 127
5, 482400, Note_on_c, 6, 31, 127
5, 482640, Note_off_c, 6, 31, 127
5, 482640, Note_on_c, 6, 34, 127
5, 482880, Note_off_c, 6, 34, 127
5, 482880, Note_on_c, 6, 35, 127
5, 483840, Note_off_c, 6, 35, 127
5, 483840, Note_on_c, 6, 37, 127
5, 484800, Note_off_c, 6, 37, 127
5, 484800, Note_on_c, 6, 38, 127
5, 485760, Note_off_c, 6, 38, 127
5, 485760, Note_on_c, 6, 34, 127
5, 489600, Note_off_c, 6, 34, 127
5, 490080, Note_on_c, 6, 30, 127
5, 490560, Note_off_c, 6, 30, 127
5, 490560, Note_on_c, 6, 28, 127
5, 491040, Note_off_c, 6, 28, 127
5, 491040, Note_on_c, 6, 30, 127
5, 491520, Note_off_c, 6, 30, 127
5, 491520, Note_on_c, 6, 35, 127
5, 497280, Note_off_c, 6, 35, 127
5, 497280, Note_on_c, 6, 35, 127
5, 501600, Note_off_c, 6, 35, 127
5, 501600, Note_on_c, 6, 30, 127
5, 502080, Note_off_c, 6, 30, 127
5, 502080, Note_on_c, 6, 28, 127
5, 502560, Note_off_c, 6, 28, 127
5, 502560, Note_on_c, 6, 30, 127
5, 503040, Note_off_c, 6, 30, 127
5, 503040, Note_on_c, 6, 35, 127
5, 508160, Note_off_c, 6, 35, 127
5, 508160, Note_on_c, 6, 30, 127
5, 508480, Note_off_c, 6, 30, 127
5, 508480, Note_on_c, 6, 33, 127
5, 508800, Note_off_c, 6, 33, 127
5, 508800, Note_on_c, 6, 35, 127
5, 514560, Note_off_c, 6, 35, 127
5, 514560, Note_on_c, 6, 34, 127
5, 519840, Note_off_c, 6, 34, 127
5, 519840, Note_on_c, 6, 32, 127
5, 520320, Note_off_c, 6, 32, 127
5, 520320, Note_on_c, 6, 34, 127
5, 525440, Note_off_c, 6, 34, 127
5, 525440, Note_on_c, 6, 34, 127
5, 525760, Note_off_c, 6, 34, 127
5, 525760, Note_on_c, 6, 29, 127
5, 526080, Note_off_c, 6, 29, 127
5, 526080, Note_on_c, 6, 34, 127
5, 531360, Note_off_c, 6, 34, 127
5, 531360, Note_on_c, 6, 32, 127
5, 531840, Note_off_c, 6, 32, 127
5, 531840, Note_on_c, 6, 34, 127
5, 536640, Note_off_c, 6, 34, 127
5, 536640, Note_on_c, 6, 34, 127
5, 537600, Note_off_c, 6, 34, 127
5, 537600, Note_on_c, 6, 33, 127
5, 541920, Note_off_c, 6, 33, 127
5, 541920, Note_on_c, 6, 35, 127
5, 543360, Note_off_c, 6, 35, 127
5, 543360, Note_on_c, 6, 33, 127
5, 550080, Note_off_c, 6, 33, 127
5, 550080, Note_on_c, 6, 33, 127
5, 552480, Note_off_c, 6, 33, 127
5, 552480, Note_on_c, 6, 35, 127
5, 553920, Note_off_c, 6, 35, 127
5, 554880, Note_on_c, 6, 33, 127
5, 560640, Note_off_c, 6, 33, 127
5, 560640, Note_on_c, 6, 32, 127
5, 566400, Note_off_c, 6, 32, 127
5, 566400, Note_on_c, 6, 32, 127
5, 572160, Note_off_c, 6, 32, 127
5, 572160, Note_on_c, 6, 32, 127
5, 577920, Note_off_c, 6, 32, 127
5, 577920, Note_on_c, 6, 32, 127
5, 582720, Note_off_c, 6, 32, 127
5, 582720, Note_on_c, 6, 35, 127
5, 583200, Note_off_c, 6, 35, 127
5, 583200, Note_on_c, 6, 31, 127
5, 586560, Note_off_c, 6, 31, 127
5, 586560, Note_on_c, 6, 32, 127
5, 589440, Note_off_c, 6, 32, 127
5, 589440, Note_on_c, 6, 35, 127
5, 592320, Note_off_c, 6, 35, 127
5, 592320, Note_on_c, 6, 31, 127
5, 595200, Note_off_c, 6, 31, 127
5, 595200, Note_on_c, 6, 33, 127
5, 595488, Note_off_c, 6, 33, 127
5, 595776, Note_on_c, 6, 36, 127
5, 596064, Note_off_c, 6, 36, 127
5, 596352, Note_on_c, 6, 38, 127
5, 596640, Note_off_c, 6, 38, 127
5, 596928, Note_on_c, 6, 31, 127
5, 597216, Note_off_c, 6, 31, 127
5, 597504, Note_on_c, 6, 34, 127
5, 597792, Note_off_c, 6, 34, 127
5, 598080, Note_on_c, 6, 31, 127
5, 600000, Note_off_c, 6, 31, 127
5, 600960, Note_on_c, 6, 31, 127
5, 604800, Note_off_c, 6, 31, 127
5, 604800, Note_on_c, 6, 30, 127
5, 609600, Note_off_c, 6, 30, 127
5, 609792, Note_on_c, 6, 45, 127
5, 609984, Note_off_c, 6, 45, 127
5, 609984, Note_on_c, 6, 47, 127
5, 610176, Note_off_c, 6, 47, 127
5, 610176, Note_on_c, 6, 42, 127
5, 610368, Note_off_c, 6, 42, 127
5, 610368, Note_on_c, 6, 44, 127
5, 610560, Note_off_c, 6, 44, 127
5, 610560, Note_on_c, 6, 37, 127
5, 612480, Note_off_c, 6, 37, 127
5, 612480, Note_on_c, 6, 49, 127
5, 612720, Note_off_c, 6, 49, 127
5, 612720, Note_on_c, 6, 47, 127
5, 612960, Note_off_c, 6, 47, 127
5, 612960, Note_on_c, 6, 45, 127
5, 613200, Note_off_c, 6, 45, 127
5, 613200, Note_on_c, 6, 44, 127
5, 613440, Note_off_c, 6, 44, 127
5, 613440, Note_on_c, 6, 42, 127
5, 613680, Note_off_c, 6, 42, 127
5, 613680, Note_on_c, 6, 40, 127
5, 613920, Note_off_c, 6, 40, 127
5, 613920, Note_on_c, 6, 39, 127
5, 614160, Note_off_c, 6, 39, 127
5, 614160, Note_on_c, 6, 37, 127
5, 614400, Note_off_c, 6, 37, 127
5, 614400, Note_on_c, 6, 35, 127
5, 614640, Note_off_c, 6, 35, 127
5, 614640, Note_on_c, 6, 33, 127
5, 614880, Note_off_c, 6, 33, 127
5, 614880, Note_on_c, 6, 32, 127
5, 615120, Note_off_c, 6, 32, 127
5, 615120, Note_on_c, 6, 30, 127
5, 615360, Note_off_c, 6, 30, 127
5, 615360, Note_on_c, 6, 29, 127
5, 618240, Note_off_c, 6, 29, 127
5, 618240, Note_on_c, 6, 31, 127
5, 619200, Note_off_c, 6, 31, 127
5, 619680, Note_on_c, 6, 31, 127
5, 621120, Note_off_c, 6, 31, 127
5, 621120, Note_on_c, 6, 29, 127
5, 622560, Note_off_c, 6, 29, 127
5, 622560, Note_on_c, 6, 34, 127
5, 623040, Note_off_c, 6, 34, 127
5, 623040, Note_on_c, 6, 29, 127
5, 624000, Note_off_c, 6, 29, 127
5, 624000, Note_on_c, 6, 41, 127
5, 624320, Note_off_c, 6, 41, 127
5, 624320, Note_on_c, 6, 41, 127
5, 624640, Note_off_c, 6, 41, 127
5, 624640, Note_on_c, 6, 36, 127
5, 624960, Note_off_c, 6, 36, 127
5, 624960, Note_on_c, 6, 41, 127
5, 626880, Note_off_c, 6, 41, 127
5, 626880, Note_on_c, 6, 28, 127
5, 628320, Note_off_c, 6, 28, 127
5, 628320, Note_on_c, 6, 40, 127
5, 632640, Note_off_c, 6, 40, 127
5, 632640, Note_on_c, 6, 30, 127
5, 632960, Note_off_c, 6, 30, 127
5, 633280, Note_on_c, 6, 30, 127
5, 633600, Note_off_c, 6, 30, 127
5, 633984, Note_on_c, 6, 30, 127
5, 634176, Note_off_c, 6, 30, 127
5, 634176, Note_on_c, 6, 30, 127
5, 634368, Note_off_c, 6, 30, 127
5, 634368, Note_on_c, 6, 30, 127
5, 634560, Note_off_c, 6, 30, 127
5, 634560, Note_on_c, 6, 30, 127
5, 635040, Note_off_c, 6, 30, 127
5, 635040, Note_on_c, 6, 30, 127
5, 635520, Note_off_c, 6, 30, 127
5, 635520, Note_on_c, 6, 30, 127
5, 636000, Note_off_c, 6, 30, 127
5, 636000, Note_on_c, 6, 31, 127
5, 636480, Note_off_c, 6, 31, 127
5, 636480, Note_on_c, 6, 31, 127
5, 636960, Note_off_c, 6, 31, 127
5, 636960, Note_on_c, 6, 33, 127
5, 637440, Note_off_c, 6, 33, 127
5, 637440, Note_on_c, 6, 35, 127
5, 637920, Note_off_c, 6, 35, 127
5, 637920, Note_on_c, 6, 40, 127
5, 638400, Note_off_c, 6, 40, 127
5, 638400, Note_on_c, 6, 39, 127
5, 641280, Note_off_c, 6, 39, 127
5, 641280, Note_on_c, 6, 42, 127
5, 642720, Note_off_c, 6, 42, 127
5, 643680, Note_on_c, 6, 33, 127
5, 645600, Note_off_c, 6, 33, 127
5, 645760, Note_on_c, 6, 31, 127
5, 645920, Note_off_c, 6, 31, 127
5, 645920, Note_on_c, 6, 34, 127
5, 646080, Note_off_c, 6, 34, 127
5, 646080, Note_on_c, 6, 33, 127
5, 647520, Note_off_c, 6, 33, 127
5, 647520, Note_on_c, 6, 29, 127
5, 648000, Note_off_c, 6, 29, 127
5, 648000, Note_on_c, 6, 29, 127
5, 648480, Note_off_c, 6, 29, 127
5, 648480, Note_on_c, 6, 31, 127
5, 648960, Note_off_c, 6, 31, 127
5, 648960, Note_on_c, 6, 31, 127
5, 649440, Note_off_c, 6, 31, 127
5, 649440, Note_on_c, 6, 32, 127
5, 649920, Note_off_c, 6, 32, 127
5, 649920, Note_on_c, 6, 34, 127
5, 650400, Note_off_c, 6, 34, 127
5, 650400, Note_on_c, 6, 32, 127
5, 650880, Note_off_c, 6, 32, 127
5, 650880, Note_on_c, 6, 36, 127
5, 653760, Note_off_c, 6, 36, 127
5, 656160, Note_on_c, 6, 40, 127
5, 657120, Note_off_c, 6, 40, 127
5, 657120, Note_on_c, 6, 40, 127
5, 657600, Note_off_c, 6, 40, 127
5, 657600, Note_on_c, 6, 40, 127
5, 658080, Note_off_c, 6, 40, 127
5, 658080, Note_on_c, 6, 38, 127
5, 658560, Note_off_c, 6, 38, 127
5, 658560, Note_on_c, 6, 38, 127
5, 659040, Note_off_c, 6, 38, 127
5, 659040, Note_on_c, 6, 36, 127
5, 659520, Note_off_c, 6, 36, 127
5, 659520, Note_on_c, 6, 33, 127
5, 660000, Note_off_c, 6, 33, 127
5, 660000, Note_on_c, 6, 35, 127
5, 661440, Note_off_c, 6, 35, 127
5, 661760, Note_on_c, 6, 40, 127
5, 662080, Note_off_c, 6, 40, 127
5, 662080, Note_on_c, 6, 40, 127
5, 662400, Note_off_c, 6, 40, 127
5, 662400, Note_on_c, 6, 40, 127
5, 662720, Note_off_c, 6, 40, 127
5, 663040, Note_on_c, 6, 40, 127
5, 663360, Note_off_c, 6, 40, 127
5, 663680, Note_on_c, 6, 40, 127
5, 664000, Note_off_c, 6, 40, 127
5, 664320, Note_on_c, 6, 40, 127
5, 664457, Note_off_c, 6, 40, 127
5, 664457, Note_on_c, 6, 38, 127
5, 664594, Note_off_c, 6, 38, 127
5, 664594, Note_on_c, 6, 36, 127
5, 664731, Note_off_c, 6, 36, 127
5, 664731, Note_on_c, 6, 40, 127
5, 664868, Note_off_c, 6, 40, 127
5, 664868, Note_on_c, 6, 38, 127
5, 665005, Note_off_c, 6, 38, 127
5, 665005, Note_on_c, 6, 40, 127
5, 665142, Note_off_c, 6, 40, 127
5, 665142, Note_on_c, 6, 41, 127
5, 665279, Note_off_c, 6, 41, 127
5, 665279, Note_on_c, 6, 32, 127
5, 666239, Note_off_c, 6, 32, 127
5, 666959, Note_on_c, 6, 32, 127
5, 667079, Note_off_c, 6, 32, 127
5, 667079, Note_on_c, 6, 33, 127
5, 667199, Note_off_c, 6, 33, 127
5, 667200, Note_on_c, 6, 38, 127
5, 667520, Note_off_c, 6, 38, 127
5, 667520, Note_on_c, 6, 36, 127
5, 667840, Note_off_c, 6, 36, 127
5, 667840, Note_on_c, 6, 37, 127
5, 668160, Note_off_c, 6, 37, 127
5, 668160, Note_on_c, 6, 40, 127
5, 668480, Note_off_c, 6, 40, 127
5, 668480, Note_on_c, 6, 41, 127
5, 668800, Note_off_c, 6, 41, 127
5, 668800, Note_on_c, 6, 38, 127
5, 669120, Note_off_c, 6, 38, 127
5, 669120, Note_on_c, 6, 40, 127
5, 669600, Note_off_c, 6, 40, 127
5, 669600, Note_on_c, 6, 41, 127
5, 670080, Note_off_c, 6, 41, 127
5, 670080, Note_on_c, 6, 40, 127
5, 670560, Note_off_c, 6, 40, 127
5, 670560, Note_on_c, 6, 38, 127
5, 671040, Note_off_c, 6, 38, 127
5, 671040, Note_on_c, 6, 36, 127
5, 671520, Note_off_c, 6, 36, 127
5, 671520, Note_on_c, 6, 33, 127
5, 672000, Note_off_c, 6, 33, 127
5, 672000, Note_on_c, 6, 32, 127
5, 672480, Note_off_c, 6, 32, 127
5, 672480, Note_on_c, 6, 40, 127
5, 672640, Note_off_c, 6, 40, 127
5, 672640, Note_on_c, 6, 41, 127
5, 672800, Note_off_c, 6, 41, 127
5, 672800, Note_on_c, 6, 40, 127
5, 672960, Note_off_c, 6, 40, 127
5, 672960, Note_on_c, 6, 38, 127
5, 673120, Note_off_c, 6, 38, 127
5, 673120, Note_on_c, 6, 40, 127
5, 673280, Note_off_c, 6, 40, 127
5, 673280, Note_on_c, 6, 41, 127
5, 673440, Note_off_c, 6, 41, 127
5, 673440, Note_on_c, 6, 43, 127
5, 673600, Note_off_c, 6, 43, 127
5, 673600, Note_on_c, 6, 45, 127
5, 673760, Note_off_c, 6, 45, 127
5, 673760, Note_on_c, 6, 40, 127
5, 673920, Note_off_c, 6, 40, 127
5, 673920, Note_on_c, 6, 40, 127
5, 674080, Note_off_c, 6, 40, 127
5, 674080, Note_on_c, 6, 41, 127
5, 674240, Note_off_c, 6, 41, 127
5, 674240, Note_on_c, 6, 43, 127
5, 674400, Note_off_c, 6, 43, 127
5, 674400, Note_on_c, 6, 38, 127
5, 674560, Note_off_c, 6, 38, 127
5, 674560, Note_on_c, 6, 40, 127
5, 674720, Note_off_c, 6, 40, 127
5, 674720, Note_on_c, 6, 41, 127
5, 674880, Note_off_c, 6, 41, 127
5, 674880, Note_on_c, 6, 43, 127
5, 675040, Note_off_c, 6, 43, 127
5, 675040, Note_on_c, 6, 45, 127
5, 675200, Note_off_c, 6, 45, 127
5, 675200, Note_on_c, 6, 40, 127
5, 675360, Note_off_c, 6, 40, 127
5, 675360, Note_on_c, 6, 40, 127
5, 675520, Note_off_c, 6, 40, 127
5, 675520, Note_on_c, 6, 41, 127
5, 675680, Note_off_c, 6, 41, 127
5, 675680, Note_on_c, 6, 43, 127
5, 675840, Note_off_c, 6, 43, 127
5, 675840, Note_on_c, 6, 36, 127
5, 676320, Note_off_c, 6, 36, 127
5, 677280, Note_on_c, 6, 35, 127
5, 677760, Note_off_c, 6, 35, 127
5, 678720, Note_on_c, 6, 38, 127
5, 679680, Note_off_c, 6, 38, 127
5, 679680, Note_on_c, 6, 33, 127
5, 680640, Note_off_c, 6, 33, 127
5, 680640, Note_on_c, 6, 38, 127
5, 681600, Note_off_c, 6, 38, 127
5, 681600, Note_on_c, 6, 43, 127
5, 682560, Note_off_c, 6, 43, 127
5, 682560, Note_on_c, 6, 40, 127
5, 683520, Note_off_c, 6, 40, 127
5, 683520, Note_on_c, 6, 36, 127
5, 684480, Note_off_c, 6, 36, 127
5, 684480, Note_on_c, 6, 33, 127
5, 685920, Note_off_c, 6, 33, 127
5, 685920, Note_on_c, 6, 40, 127
5, 687360, Note_off_c, 6, 40, 127
5, 687360, Note_on_c, 6, 32, 127
5, 688800, Note_off_c, 6, 32, 127
5, 688800, Note_on_c, 6, 27, 127
5, 689280, Note_off_c, 6, 27, 127
5, 689280, Note_on_c, 6, 32, 127
5, 690240, Note_off_c, 6, 32, 127
5, 690240, Note_on_c, 6, 27, 127
5, 690720, Note_off_c, 6, 27, 127
5, 690720, Note_on_c, 6, 29, 127
5, 691200, Note_off_c, 6, 29, 127
5, 691200, Note_on_c, 6, 36, 127
5, 692160, Note_off_c, 6, 36, 127
5, 692160, Note_on_c, 6, 36, 127
5, 692400, Note_off_c, 6, 36, 127
5, 692640, Note_on_c, 6, 31, 127
5, 692880, Note_off_c, 6, 31, 127
5, 693120, Note_on_c, 6, 37, 127
5, 696960, Note_off_c, 6, 37, 127
5, 696960, End_track
6, 0, Start_track
6, 0, Pitch_bend_c, 9, 8192
6, 0, Control_c, 9, 7, 103
6, 0, Control_c, 9, 10, 63
6, 0, Control_c, 9, 93, 0
6, 0, Control_c, 9, 91, 0
6, 0, Control_c, 9, 95, 0
6, 0, Control_c, 9, 92, 0
6, 0, Control_c, 9, 11, 127
6, 0, Program_c, 9, 0
6, 0, Note_on_c, 9, 42, 127
6, 0, Note_on_c, 9, 35, 127
6, 160, Note_off_c, 9, 42, 127
6, 160, Note_off_c, 9, 35, 127
6, 160, Note_on_c, 9, 42, 127
6, 320, Note_off_c, 9, 42, 127
6, 320, Note_on_c, 9, 42, 127
6, 480, Note_off_c, 9, 42, 127
6, 480, Note_on_c, 9, 42, 127
6, 720, Note_off_c, 9, 42, 127
6, 720, Note_on_c, 9, 42, 127
6, 960, Note_off_c, 9, 42, 127
6, 960, Note_on_c, 9, 46, 127
6, 1440, Note_off_c, 9, 46, 127
6, 1440, Note_on_c, 9, 42, 127
6, 1920, Note_off_c, 9, 42, 127
6, 1920, Note_on_c, 9, 42, 127
6, 2400, Note_off_c, 9, 42, 127
6, 2400, Note_on_c, 9, 42, 127
6, 2880, Note_off_c, 9, 42, 127
6, 2880, Note_on_c, 9, 42, 127
6, 3360, Note_off_c, 9, 42, 127
6, 3360, Note_on_c, 9, 42, 127
6, 3840, Note_off_c, 9, 42, 127
6, 3840, Note_on_c, 9, 42, 127
6, 4320, Note_off_c, 9, 42, 127
6, 4320, Note_on_c, 9, 42, 127
6, 4800, Note_off_c, 9, 42, 127
6, 4800, Note_on_c, 9, 42, 127
6, 4800, Note_on_c, 9, 35, 127
6, 5280, Note_off_c, 9, 42, 127
6, 5280, Note_off_c, 9, 35, 127
6, 5280, Note_on_c, 9, 46, 127
6, 5520, Note_off_c, 9, 46, 127
6, 5520, Note_on_c, 9, 44, 127
6, 5760, Note_off_c, 9, 44, 127
6, 5760, Note_on_c, 9, 42, 127
6, 5760, Note_on_c, 9, 35, 127
6, 6240, Note_off_c, 9, 42, 127
6, 6240, Note_off_c, 9, 35, 127
6, 6240, Note_on_c, 9, 42, 127
6, 6400, Note_off_c, 9, 42, 127
6, 6400, Note_on_c, 9, 42, 127
6, 6560, Note_off_c, 9, 42, 127
6, 6560, Note_on_c, 9, 42, 127
6, 6720, Note_off_c, 9, 42, 127
6, 6720, Note_on_c, 9, 46, 127
6, 7200, Note_off_c, 9, 46, 127
6, 7200, Note_on_c, 9, 42, 127
6, 7680, Note_off_c, 9, 42, 127
6, 7680, Note_on_c, 9, 42, 127
6, 8160, Note_off_c, 9, 42, 127
6, 8160, Note_on_c, 9, 42, 127
6, 8640, Note_off_c, 9, 42, 127
6, 8640, Note_on_c, 9, 42, 127
6, 9120, Note_off_c, 9, 42, 127
6, 9120, Note_on_c, 9, 42, 127
6, 9600, Note_off_c, 9, 42, 127
6, 9600, Note_on_c, 9, 42, 127
6, 10080, Note_off_c, 9, 42, 127
6, 10080, Note_on_c, 9, 46, 127
6, 10560, Note_off_c, 9, 46, 127
6, 10560, Note_on_c, 9, 46, 127
6, 10560, Note_on_c, 9, 35, 127
6, 10800, Note_off_c, 9, 46, 127
6, 10800, Note_off_c, 9, 35, 127
6, 10800, Note_on_c, 9, 44, 127
6, 11040, Note_off_c, 9, 44, 127
6, 11040, Note_on_c, 9, 42, 127
6, 11280, Note_off_c, 9, 42, 127
6, 11280, Note_on_c, 9, 46, 127
6, 11520, Note_off_c, 9, 46, 127
6, 11520, Note_on_c, 9, 44, 127
6, 11520, Note_on_c, 9, 35, 127
6, 12000, Note_off_c, 9, 44, 127
6, 12000, Note_off_c, 9, 35, 127
6, 12000, Note_on_c, 9, 42, 127
6, 12480, Note_off_c, 9, 42, 127
6, 12480, Note_on_c, 9, 42, 127
6, 12960, Note_off_c, 9, 42, 127
6, 12960, Note_on_c, 9, 42, 127
6, 13440, Note_off_c, 9, 42, 127
6, 13440, Note_on_c, 9, 42, 127
6, 13920, Note_off_c, 9, 42, 127
6, 13920, Note_on_c, 9, 42, 127
6, 14080, Note_off_c, 9, 42, 127
6, 14080, Note_on_c, 9, 42, 127
6, 14240, Note_off_c, 9, 42, 127
6, 14240, Note_on_c, 9, 46, 127
6, 14400, Note_off_c, 9, 46, 127
6, 14400, Note_on_c, 9, 44, 127
6, 14880, Note_off_c, 9, 44, 127
6, 14880, Note_on_c, 9, 42, 127
6, 15120, Note_off_c, 9, 42, 127
6, 15120, Note_on_c, 9, 42, 127
6, 15680, Note_off_c, 9, 42, 127
6, 15680, Note_on_c, 9, 42, 127
6, 16000, Note_off_c, 9, 42, 127
6, 16000, Note_on_c, 9, 42, 127
6, 16160, Note_off_c, 9, 42, 127
6, 16160, Note_on_c, 9, 46, 127
6, 16320, Note_off_c, 9, 46, 127
6, 16320, Note_on_c, 9, 44, 127
6, 16320, Note_on_c, 9, 35, 127
6, 16800, Note_off_c, 9, 44, 127
6, 16800, Note_off_c, 9, 35, 127
6, 16800, Note_on_c, 9, 42, 127
6, 17040, Note_off_c, 9, 42, 127
6, 17040, Note_on_c, 9, 42, 127
6, 17280, Note_off_c, 9, 42, 127
6, 17280, Note_on_c, 9, 42, 127
6, 17280, Note_on_c, 9, 35, 127
6, 17760, Note_off_c, 9, 42, 127
6, 17760, Note_off_c, 9, 35, 127
6, 17760, Note_on_c, 9, 42, 127
6, 18240, Note_off_c, 9, 42, 127
6, 18240, Note_on_c, 9, 46, 127
6, 18720, Note_off_c, 9, 46, 127
6, 18720, Note_on_c, 9, 42, 127
6, 19200, Note_off_c, 9, 42, 127
6, 19200, Note_on_c, 9, 42, 127
6, 19680, Note_off_c, 9, 42, 127
6, 19680, Note_on_c, 9, 42, 127
6, 20160, Note_off_c, 9, 42, 127
6, 20160, Note_on_c, 9, 42, 127
6, 20640, Note_off_c, 9, 42, 127
6, 20640, Note_on_c, 9, 42, 127
6, 21120, Note_off_c, 9, 42, 127
6, 21120, Note_on_c, 9, 42, 127
6, 21600, Note_off_c, 9, 42, 127
6, 21600, Note_on_c, 9, 42, 127
6, 21760, Note_off_c, 9, 42, 127
6, 21760, Note_on_c, 9, 46, 127
6, 21920, Note_off_c, 9, 46, 127
6, 21920, Note_on_c, 9, 44, 127
6, 22080, Note_off_c, 9, 44, 127
6, 22080, Note_on_c, 9, 35, 127
6, 22320, Note_off_c, 9, 35, 127
6, 22320, Note_on_c, 9, 42, 127
6, 22560, Note_off_c, 9, 42, 127
6, 22560, Note_on_c, 9, 42, 127
6, 22720, Note_off_c, 9, 42, 127
6, 22720, Note_on_c, 9, 42, 127
6, 22880, Note_off_c, 9, 42, 127
6, 22880, Note_on_c, 9, 46, 127
6, 23040, Note_off_c, 9, 46, 127
6, 23040, Note_on_c, 9, 44, 127
6, 23040, Note_on_c, 9, 35, 127
6, 23520, Note_off_c, 9, 44, 127
6, 23520, Note_off_c, 9, 35, 127
6, 23520, Note_on_c, 9, 42, 127
6, 24000, Note_off_c, 9, 42, 127
6, 24000, Note_on_c, 9, 42, 127
6, 24480, Note_off_c, 9, 42, 127
6, 24480, Note_on_c, 9, 42, 127
6, 24960, Note_off_c, 9, 42, 127
6, 24960, Note_on_c, 9, 42, 127
6, 25440, Note_off_c, 9, 42, 127
6, 25440, Note_on_c, 9, 42, 127
6, 25600, Note_off_c, 9, 42, 127
6, 25600, Note_on_c, 9, 42, 127
6, 25760, Note_off_c, 9, 42, 127
6, 25760, Note_on_c, 9, 42, 127
6, 25920, Note_off_c, 9, 42, 127
6, 25920, Note_on_c, 9, 46, 127
6, 26400, Note_off_c, 9, 46, 127
6, 26400, Note_on_c, 9, 42, 127
6, 26880, Note_off_c, 9, 42, 127
6, 26880, Note_on_c, 9, 42, 127
6, 27360, Note_off_c, 9, 42, 127
6, 27360, Note_on_c, 9, 42, 127
6, 27600, Note_off_c, 9, 42, 127
6, 27600, Note_on_c, 9, 42, 127
6, 27840, Note_off_c, 9, 42, 127
6, 27840, Note_on_c, 9, 42, 127
6, 28000, Note_off_c, 9, 42, 127
6, 28000, Note_on_c, 9, 46, 127
6, 28160, Note_off_c, 9, 46, 127
6, 28160, Note_on_c, 9, 44, 127
6, 28320, Note_off_c, 9, 44, 127
6, 28320, Note_on_c, 9, 42, 127
6, 28480, Note_off_c, 9, 42, 127
6, 28480, Note_on_c, 9, 42, 127
6, 28640, Note_off_c, 9, 42, 127
6, 28640, Note_on_c, 9, 42, 127
6, 28800, Note_off_c, 9, 42, 127
6, 28800, Note_on_c, 9, 35, 127
6, 29280, Note_off_c, 9, 35, 127
6, 29280, Note_on_c, 9, 46, 127
6, 29760, Note_off_c, 9, 46, 127
6, 29760, Note_on_c, 9, 42, 127
6, 30240, Note_off_c, 9, 42, 127
6, 30240, Note_on_c, 9, 42, 127
6, 30720, Note_off_c, 9, 42, 127
6, 30720, Note_on_c, 9, 42, 127
6, 30960, Note_off_c, 9, 42, 127
6, 30960, Note_on_c, 9, 46, 127
6, 31440, Note_off_c, 9, 46, 127
6, 31440, Note_on_c, 9, 42, 127
6, 31680, Note_off_c, 9, 42, 127
6, 31680, Note_on_c, 9, 42, 127
6, 32160, Note_off_c, 9, 42, 127
6, 32160, Note_on_c, 9, 42, 127
6, 32320, Note_off_c, 9, 42, 127
6, 32320, Note_on_c, 9, 42, 127
6, 32480, Note_off_c, 9, 42, 127
6, 32480, Note_on_c, 9, 42, 127
6, 32640, Note_off_c, 9, 42, 127
6, 32640, Note_on_c, 9, 46, 127
6, 33120, Note_off_c, 9, 46, 127
6, 33120, Note_on_c, 9, 42, 127
6, 33600, Note_off_c, 9, 42, 127
6, 33600, Note_on_c, 9, 42, 127
6, 33600, Note_on_c, 9, 35, 127
6, 33760, Note_off_c, 9, 42, 127
6, 33760, Note_off_c, 9, 35, 127
6, 33760, Note_on_c, 9, 42, 127
6, 33920, Note_off_c, 9, 42, 127
6, 33920, Note_on_c, 9, 42, 127
6, 34080, Note_off_c, 9, 42, 127
6, 34080, Note_on_c, 9, 42, 127
6, 34240, Note_off_c, 9, 42, 127
6, 34240, Note_on_c, 9, 42, 127
6, 34400, Note_off_c, 9, 42, 127
6, 34400, Note_on_c, 9, 42, 127
6, 34560, Note_off_c, 9, 42, 127
6, 34560, Note_on_c, 9, 46, 127
6, 34560, Note_on_c, 9, 35, 127
6, 35040, Note_off_c, 9, 46, 127
6, 35040, Note_off_c, 9, 35, 127
6, 35040, Note_on_c, 9, 42, 127
6, 35520, Note_off_c, 9, 42, 127
6, 35520, Note_on_c, 9, 42, 127
6, 36000, Note_off_c, 9, 42, 127
6, 36000, Note_on_c, 9, 42, 127
6, 36240, Note_off_c, 9, 42, 127
6, 36240, Note_on_c, 9, 42, 127
6, 36480, Note_off_c, 9, 42, 127
6, 36480, Note_on_c, 9, 46, 127
6, 36960, Note_off_c, 9, 46, 127
6, 36960, Note_on_c, 9, 42, 127
6, 37200, Note_off_c, 9, 42, 127
6, 37200, Note_on_c, 9, 46, 127
6, 37440, Note_off_c, 9, 46, 127
6, 37440, Note_on_c, 9, 44, 127
6, 37920, Note_off_c, 9, 44, 127
6, 37920, Note_on_c, 9, 42, 127
6, 38400, Note_off_c, 9, 42, 127
6, 38400, Note_on_c, 9, 42, 127
6, 38880, Note_off_c, 9, 42, 127
6, 38880, Note_on_c, 9, 42, 127
6, 39360, Note_off_c, 9, 42, 127
6, 39360, Note_on_c, 9, 42, 127
6, 39360, Note_on_c, 9, 35, 127
6, 39600, Note_off_c, 9, 42, 127
6, 39600, Note_off_c, 9, 35, 127
6, 39600, Note_on_c, 9, 42, 127
6, 39840, Note_off_c, 9, 42, 127
6, 39840, Note_on_c, 9, 42, 127
6, 40000, Note_off_c, 9, 42, 127
6, 40000, Note_on_c, 9, 42, 127
6, 40160, Note_off_c, 9, 42, 127
6, 40160, Note_on_c, 9, 42, 127
6, 40320, Note_off_c, 9, 42, 127
6, 40320, Note_on_c, 9, 46, 127
6, 40320, Note_on_c, 9, 35, 127
6, 40800, Note_off_c, 9, 46, 127
6, 40800, Note_off_c, 9, 35, 127
6, 40800, Note_on_c, 9, 42, 127
6, 41280, Note_off_c, 9, 42, 127
6, 41280, Note_on_c, 9, 42, 127
6, 41760, Note_off_c, 9, 42, 127
6, 41760, Note_on_c, 9, 42, 127
6, 42000, Note_off_c, 9, 42, 127
6, 42000, Note_on_c, 9, 42, 127
6, 42240, Note_off_c, 9, 42, 127
6, 42240, Note_on_c, 9, 46, 127
6, 42720, Note_off_c, 9, 46, 127
6, 42720, Note_on_c, 9, 42, 127
6, 42960, Note_off_c, 9, 42, 127
6, 42960, Note_on_c, 9, 42, 127
6, 43200, Note_off_c, 9, 42, 127
6, 43200, Note_on_c, 9, 42, 127
6, 43200, Note_on_c, 9, 35, 127
6, 43680, Note_off_c, 9, 42, 127
6, 43680, Note_off_c, 9, 35, 127
6, 43680, Note_on_c, 9, 42, 127
6, 44160, Note_off_c, 9, 42, 127
6, 44160, Note_on_c, 9, 46, 127
6, 44160, Note_on_c, 9, 35, 127
6, 44640, Note_off_c, 9, 46, 127
6, 44640, Note_off_c, 9, 35, 127
6, 44640, Note_on_c, 9, 46, 127
6, 44880, Note_off_c, 9, 46, 127
6, 44880, Note_on_c, 9, 38, 127
6, 45000, Note_off_c, 9, 38, 127
6, 45000, Note_on_c, 9, 38, 127
6, 45120, Note_off_c, 9, 38, 127
6, 45120, Note_on_c, 9, 46, 127
6, 45120, Note_on_c, 9, 38, 127
6, 45360, Note_off_c, 9, 46, 127
6, 45360, Note_off_c, 9, 38, 127
6, 45360, Note_on_c, 9, 38, 127
6, 45600, Note_off_c, 9, 38, 127
6, 45600, Note_on_c, 9, 46, 127
6, 45600, Note_on_c, 9, 38, 127
6, 45840, Note_off_c, 9, 46, 127
6, 45840, Note_off_c, 9, 38, 127
6, 45840, Note_on_c, 9, 38, 127
6, 46080, Note_off_c, 9, 38, 127
6, 46080, Note_on_c, 9, 51, 127
6, 46080, Note_on_c, 9, 49, 127
6, 46080, Note_on_c, 9, 35, 127
6, 46560, Note_off_c, 9, 51, 127
6, 46560, Note_off_c, 9, 49, 127
6, 46560, Note_off_c, 9, 35, 127
6, 46560, Note_on_c, 9, 51, 127
6, 46800, Note_off_c, 9, 51, 127
6, 46800, Note_on_c, 9, 35, 127
6, 47040, Note_off_c, 9, 35, 127
6, 47040, Note_on_c, 9, 53, 127
6, 47040, Note_on_c, 9, 38, 127
6, 47520, Note_off_c, 9, 53, 127
6, 47520, Note_off_c, 9, 38, 127
6, 47520, Note_on_c, 9, 51, 127
6, 47760, Note_off_c, 9, 51, 127
6, 47760, Note_on_c, 9, 35, 127
6, 48000, Note_off_c, 9, 35, 127
6, 48000, Note_on_c, 9, 53, 127
6, 48000, Note_on_c, 9, 38, 127
6, 48320, Note_off_c, 9, 53, 127
6, 48320, Note_off_c, 9, 38, 127
6, 48320, Note_on_c, 9, 51, 127
6, 48320, Note_on_c, 9, 50, 127
6, 48320, Note_on_c, 9, 38, 127
6, 48640, Note_off_c, 9, 51, 127
6, 48640, Note_off_c, 9, 50, 127
6, 48640, Note_off_c, 9, 38, 127
6, 48640, Note_on_c, 9, 49, 127
6, 48640, Note_on_c, 9, 35, 127
6, 48960, Note_off_c, 9, 49, 127
6, 48960, Note_off_c, 9, 35, 127
6, 48960, Note_on_c, 9, 51, 127
6, 48960, Note_on_c, 9, 49, 127
6, 48960, Note_on_c, 9, 35, 127
6, 49440, Note_off_c, 9, 51, 127
6, 49440, Note_off_c, 9, 49, 127
6, 49440, Note_off_c, 9, 35, 127
6, 49440, Note_on_c, 9, 51, 127
6, 49920, Note_off_c, 9, 51, 127
6, 49920, Note_on_c, 9, 51, 127
6, 50160, Note_off_c, 9, 51, 127
6, 50160, Note_on_c, 9, 38, 127
6, 50400, Note_off_c, 9, 38, 127
6, 50400, Note_on_c, 9, 51, 127
6, 50640, Note_off_c, 9, 51, 127
6, 50640, Note_on_c, 9, 47, 127
6, 50880, Note_off_c, 9, 47, 127
6, 50880, Note_on_c, 9, 51, 127
6, 50880, Note_on_c, 9, 47, 127
6, 50880, Note_on_c, 9, 45, 127
6, 51120, Note_off_c, 9, 51, 127
6, 51120, Note_off_c, 9, 47, 127
6, 51120, Note_off_c, 9, 45, 127
6, 51120, Note_on_c, 9, 46, 127
6, 51120, Note_on_c, 9, 43, 127
6, 51360, Note_off_c, 9, 46, 127
6, 51360, Note_off_c, 9, 43, 127
6, 51360, Note_on_c, 9, 41, 127
6, 51600, Note_off_c, 9, 41, 127
6, 51600, Note_on_c, 9, 41, 127
6, 51840, Note_off_c, 9, 41, 127
6, 51840, Note_on_c, 9, 59, 127
6, 51840, Note_on_c, 9, 57, 127
6, 51840, Note_on_c, 9, 35, 127
6, 52320, Note_off_c, 9, 59, 127
6, 52320, Note_off_c, 9, 57, 127
6, 52320, Note_off_c, 9, 35, 127
6, 52320, Note_on_c, 9, 59, 127
6, 52560, Note_off_c, 9, 59, 127
6, 52560, Note_on_c, 9, 35, 127
6, 52800, Note_off_c, 9, 35, 127
6, 52800, Note_on_c, 9, 53, 127
6, 52800, Note_on_c, 9, 55, 127
6, 52800, Note_on_c, 9, 38, 127
6, 53280, Note_off_c, 9, 53, 127
6, 53280, Note_off_c, 9, 55, 127
6, 53280, Note_off_c, 9, 38, 127
6, 53280, Note_on_c, 9, 53, 127
6, 53760, Note_off_c, 9, 53, 127
6, 53760, Note_on_c, 9, 53, 127
6, 54240, Note_off_c, 9, 53, 127
6, 54240, Note_on_c, 9, 53, 127
6, 54480, Note_off_c, 9, 53, 127
6, 54480, Note_on_c, 9, 35, 127
6, 54720, Note_off_c, 9, 35, 127
6, 54720, Note_on_c, 9, 41, 127
6, 54720, Note_on_c, 9, 38, 127
6, 55040, Note_off_c, 9, 41, 127
6, 55040, Note_off_c, 9, 38, 127
6, 55040, Note_on_c, 9, 51, 127
6, 55040, Note_on_c, 9, 45, 127
6, 55360, Note_off_c, 9, 51, 127
6, 55360, Note_off_c, 9, 45, 127
6, 55360, Note_on_c, 9, 51, 127
6, 55360, Note_on_c, 9, 49, 127
6, 55360, Note_on_c, 9, 35, 127
6, 55680, Note_off_c, 9, 51, 127
6, 55680, Note_off_c, 9, 49, 127
6, 55680, Note_off_c, 9, 35, 127
6, 55680, Note_on_c, 9, 51, 127
6, 55920, Note_off_c, 9, 51, 127
6, 55920, Note_on_c, 9, 35, 127
6, 56160, Note_off_c, 9, 35, 127
6, 56160, Note_on_c, 9, 51, 127
6, 56400, Note_off_c, 9, 51, 127
6, 56400, Note_on_c, 9, 38, 127
6, 56640, Note_off_c, 9, 38, 127
6, 56640, Note_on_c, 9, 47, 127
6, 56800, Note_off_c, 9, 47, 127
6, 56800, Note_on_c, 9, 45, 127
6, 56800, Note_on_c, 9, 43, 127
6, 56960, Note_off_c, 9, 45, 127
6, 56960, Note_off_c, 9, 43, 127
6, 56960, Note_on_c, 9, 45, 127
6, 57120, Note_off_c, 9, 45, 127
6, 57120, Note_on_c, 9, 41, 127
6, 57120, Note_on_c, 9, 38, 127
6, 57280, Note_off_c, 9, 41, 127
6, 57280, Note_off_c, 9, 38, 127
6, 57280, Note_on_c, 9, 41, 127
6, 57280, Note_on_c, 9, 38, 127
6, 57440, Note_off_c, 9, 41, 127
6, 57440, Note_off_c, 9, 38, 127
6, 57440, Note_on_c, 9, 41, 127
6, 57440, Note_on_c, 9, 38, 127
6, 57440, Note_on_c, 9, 35, 127
6, 57600, Note_off_c, 9, 41, 127
6, 57600, Note_off_c, 9, 38, 127
6, 57600, Note_off_c, 9, 35, 127
6, 57600, Note_on_c, 9, 51, 127
6, 57600, Note_on_c, 9, 49, 127
6, 57600, Note_on_c, 9, 35, 127
6, 58080, Note_off_c, 9, 51, 127
6, 58080, Note_off_c, 9, 49, 127
6, 58080, Note_off_c, 9, 35, 127
6, 58080, Note_on_c, 9, 51, 127
6, 58320, Note_off_c, 9, 51, 127
6, 58320, Note_on_c, 9, 35, 127
6, 58560, Note_off_c, 9, 35, 127
6, 58560, Note_on_c, 9, 53, 127
6, 58560, Note_on_c, 9, 38, 127
6, 59040, Note_off_c, 9, 53, 127
6, 59040, Note_off_c, 9, 38, 127
6, 59040, Note_on_c, 9, 51, 127
6, 59280, Note_off_c, 9, 51, 127
6, 59280, Note_on_c, 9, 35, 127
6, 59520, Note_off_c, 9, 35, 127
6, 59520, Note_on_c, 9, 53, 127
6, 59520, Note_on_c, 9, 38, 127
6, 60000, Note_off_c, 9, 53, 127
6, 60000, Note_off_c, 9, 38, 127
6, 60000, Note_on_c, 9, 51, 127
6, 60240, Note_off_c, 9, 51, 127
6, 60240, Note_on_c, 9, 35, 127
6, 60480, Note_off_c, 9, 35, 127
6, 60480, Note_on_c, 9, 53, 127
6, 60480, Note_on_c, 9, 55, 127
6, 60480, Note_on_c, 9, 35, 127
6, 60960, Note_off_c, 9, 53, 127
6, 60960, Note_off_c, 9, 55, 127
6, 60960, Note_off_c, 9, 35, 127
6, 60960, Note_on_c, 9, 51, 127
6, 61440, Note_off_c, 9, 51, 127
6, 61440, Note_on_c, 9, 51, 127
6, 61680, Note_off_c, 9, 51, 127
6, 61680, Note_on_c, 9, 35, 127
6, 61920, Note_off_c, 9, 35, 127
6, 61920, Note_on_c, 9, 38, 127
6, 62160, Note_off_c, 9, 38, 127
6, 62160, Note_on_c, 9, 51, 127
6, 62400, Note_off_c, 9, 51, 127
6, 62400, Note_on_c, 9, 47, 127
6, 62520, Note_off_c, 9, 47, 127
6, 62520, Note_on_c, 9, 48, 127
6, 62520, Note_on_c, 9, 47, 127
6, 62640, Note_off_c, 9, 48, 127
6, 62640, Note_off_c, 9, 47, 127
6, 62640, Note_on_c, 9, 47, 127
6, 62640, Note_on_c, 9, 45, 127
6, 62880, Note_off_c, 9, 47, 127
6, 62880, Note_off_c, 9, 45, 127
6, 62880, Note_on_c, 9, 45, 127
6, 62880, Note_on_c, 9, 43, 127
6, 63120, Note_off_c, 9, 45, 127
6, 63120, Note_off_c, 9, 43, 127
6, 63120, Note_on_c, 9, 43, 127
6, 63120, Note_on_c, 9, 41, 127
6, 63360, Note_off_c, 9, 43, 127
6, 63360, Note_off_c, 9, 41, 127
6, 63360, Note_on_c, 9, 59, 127
6, 63360, Note_on_c, 9, 57, 127
6, 63360, Note_on_c, 9, 35, 127
6, 63840, Note_off_c, 9, 59, 127
6, 63840, Note_off_c, 9, 57, 127
6, 63840, Note_off_c, 9, 35, 127
6, 63840, Note_on_c, 9, 59, 127
6, 64080, Note_off_c, 9, 59, 127
6, 64080, Note_on_c, 9, 35, 127
6, 64320, Note_off_c, 9, 35, 127
6, 64320, Note_on_c, 9, 59, 127
6, 64320, Note_on_c, 9, 57, 127
6, 64320, Note_on_c, 9, 38, 127
6, 64800, Note_off_c, 9, 59, 127
6, 64800, Note_off_c, 9, 57, 127
6, 64800, Note_off_c, 9, 38, 127
6, 64800, Note_on_c, 9, 59, 127
6, 65280, Note_off_c, 9, 59, 127
6, 65280, Note_on_c, 9, 59, 127
6, 65760, Note_off_c, 9, 59, 127
6, 65760, Note_on_c, 9, 59, 127
6, 66000, Note_off_c, 9, 59, 127
6, 66000, Note_on_c, 9, 38, 127
6, 66120, Note_off_c, 9, 38, 127
6, 66120, Note_on_c, 9, 38, 127
6, 66240, Note_off_c, 9, 38, 127
6, 66240, Note_on_c, 9, 38, 127
6, 66560, Note_off_c, 9, 38, 127
6, 66560, Note_on_c, 9, 51, 127
6, 66560, Note_on_c, 9, 49, 127
6, 66560, Note_on_c, 9, 35, 127
6, 66880, Note_off_c, 9, 51, 127
6, 66880, Note_off_c, 9, 49, 127
6, 66880, Note_off_c, 9, 35, 127
6, 66880, Note_on_c, 9, 49, 127
6, 66880, Note_on_c, 9, 35, 127
6, 67200, Note_off_c, 9, 49, 127
6, 67200, Note_off_c, 9, 35, 127
6, 67200, Note_on_c, 9, 49, 127
6, 67200, Note_on_c, 9, 35, 127
6, 67920, Note_off_c, 9, 49, 127
6, 67920, Note_off_c, 9, 35, 127
6, 67920, Note_on_c, 9, 38, 127
6, 68160, Note_off_c, 9, 38, 127
6, 68160, Note_on_c, 9, 48, 127
6, 68400, Note_off_c, 9, 48, 127
6, 68400, Note_on_c, 9, 47, 127
6, 68400, Note_on_c, 9, 45, 127
6, 68640, Note_off_c, 9, 47, 127
6, 68640, Note_off_c, 9, 45, 127
6, 68640, Note_on_c, 9, 43, 127
6, 68640, Note_on_c, 9, 41, 127
6, 68880, Note_off_c, 9, 43, 127
6, 68880, Note_off_c, 9, 41, 127
6, 68880, Note_on_c, 9, 41, 127
6, 69120, Note_off_c, 9, 41, 127
6, 69120, Note_on_c, 9, 57, 127
6, 69120, Note_on_c, 9, 55, 127
6, 69120, Note_on_c, 9, 35, 127
6, 69600, Note_off_c, 9, 57, 127
6, 69600, Note_off_c, 9, 55, 127
6, 69600, Note_off_c, 9, 35, 127
6, 69600, Note_on_c, 9, 51, 127
6, 69840, Note_off_c, 9, 51, 127
6, 69840, Note_on_c, 9, 35, 127
6, 70080, Note_off_c, 9, 35, 127
6, 70080, Note_on_c, 9, 53, 127
6, 70080, Note_on_c, 9, 38, 127
6, 70560, Note_off_c, 9, 53, 127
6, 70560, Note_off_c, 9, 38, 127
6, 70560, Note_on_c, 9, 51, 127
6, 70800, Note_off_c, 9, 51, 127
6, 70800, Note_on_c, 9, 35, 127
6, 71040, Note_off_c, 9, 35, 127
6, 71040, Note_on_c, 9, 53, 127
6, 71040, Note_on_c, 9, 38, 127
6, 71520, Note_off_c, 9, 53, 127
6, 71520, Note_off_c, 9, 38, 127
6, 71520, Note_on_c, 9, 51, 127
6, 71760, Note_off_c, 9, 51, 127
6, 71760, Note_on_c, 9, 35, 127
6, 72000, Note_off_c, 9, 35, 127
6, 72000, Note_on_c, 9, 51, 127
6, 72000, Note_on_c, 9, 49, 127
6, 72000, Note_on_c, 9, 35, 127
6, 72480, Note_off_c, 9, 51, 127
6, 72480, Note_off_c, 9, 49, 127
6, 72480, Note_off_c, 9, 35, 127
6, 72480, Note_on_c, 9, 51, 127
6, 72480, Note_on_c, 9, 35, 127
6, 72960, Note_off_c, 9, 51, 127
6, 72960, Note_off_c, 9, 35, 127
6, 72960, Note_on_c, 9, 51, 127
6, 72960, Note_on_c, 9, 38, 127
6, 73200, Note_off_c, 9, 51, 127
6, 73200, Note_off_c, 9, 38, 127
6, 73200, Note_on_c, 9, 38, 127
6, 73440, Note_off_c, 9, 38, 127
6, 73440, Note_on_c, 9, 51, 127
6, 73680, Note_off_c, 9, 51, 127
6, 73680, Note_on_c, 9, 35, 127
6, 73920, Note_off_c, 9, 35, 127
6, 73920, Note_on_c, 9, 51, 127
6, 73920, Note_on_c, 9, 41, 127
6, 73920, Note_on_c, 9, 38, 127
6, 74160, Note_off_c, 9, 51, 127
6, 74160, Note_off_c, 9, 41, 127
6, 74160, Note_off_c, 9, 38, 127
6, 74160, Note_on_c, 9, 38, 127
6, 74400, Note_off_c, 9, 38, 127
6, 74400, Note_on_c, 9, 51, 127
6, 74640, Note_off_c, 9, 51, 127
6, 74640, Note_on_c, 9, 35, 127
6, 74880, Note_off_c, 9, 35, 127
6, 74880, Note_on_c, 9, 51, 127
6, 74880, Note_on_c, 9, 49, 127
6, 74880, Note_on_c, 9, 35, 127
6, 75360, Note_off_c, 9, 51, 127
6, 75360, Note_off_c, 9, 49, 127
6, 75360, Note_off_c, 9, 35, 127
6, 75360, Note_on_c, 9, 51, 127
6, 75600, Note_off_c, 9, 51, 127
6, 75600, Note_on_c, 9, 35, 127
6, 75840, Note_off_c, 9, 35, 127
6, 75840, Note_on_c, 9, 51, 127
6, 75840, Note_on_c, 9, 38, 127
6, 76320, Note_off_c, 9, 51, 127
6, 76320, Note_off_c, 9, 38, 127
6, 76320, Note_on_c, 9, 51, 127
6, 76800, Note_off_c, 9, 51, 127
6, 76800, Note_on_c, 9, 51, 127
6, 76960, Note_off_c, 9, 51, 127
6, 76960, Note_on_c, 9, 48, 127
6, 76960, Note_on_c, 9, 47, 127
6, 77120, Note_off_c, 9, 48, 127
6, 77120, Note_off_c, 9, 47, 127
6, 77120, Note_on_c, 9, 48, 127
6, 77120, Note_on_c, 9, 47, 127
6, 77280, Note_off_c, 9, 48, 127
6, 77280, Note_off_c, 9, 47, 127
6, 77280, Note_on_c, 9, 43, 127
6, 77280, Note_on_c, 9, 41, 127
6, 77520, Note_off_c, 9, 43, 127
6, 77520, Note_off_c, 9, 41, 127
6, 77520, Note_on_c, 9, 41, 127
6, 77760, Note_off_c, 9, 41, 127
6, 77760, Note_on_c, 9, 51, 127
6, 77760, Note_on_c, 9, 49, 127
6, 77760, Note_on_c, 9, 35, 127
6, 78240, Note_off_c, 9, 51, 127
6, 78240, Note_off_c, 9, 49, 127
6, 78240, Note_off_c, 9, 35, 127
6, 78240, Note_on_c, 9, 51, 127
6, 78240, Note_on_c, 9, 38, 127
6, 78480, Note_off_c, 9, 51, 127
6, 78480, Note_off_c, 9, 38, 127
6, 78480, Note_on_c, 9, 51, 127
6, 78480, Note_on_c, 9, 50, 127
6, 78720, Note_off_c, 9, 51, 127
6, 78720, Note_off_c, 9, 50, 127
6, 78720, Note_on_c, 9, 38, 127
6, 78840, Note_off_c, 9, 38, 127
6, 78840, Note_on_c, 9, 45, 127
6, 78840, Note_on_c, 9, 43, 127
6, 78960, Note_off_c, 9, 45, 127
6, 78960, Note_off_c, 9, 43, 127
6, 78960, Note_on_c, 9, 45, 127
6, 78960, Note_on_c, 9, 43, 127
6, 79200, Note_off_c, 9, 45, 127
6, 79200, Note_off_c, 9, 43, 127
6, 79200, Note_on_c, 9, 45, 127
6, 79200, Note_on_c, 9, 43, 127
6, 79440, Note_off_c, 9, 45, 127
6, 79440, Note_off_c, 9, 43, 127
6, 79440, Note_on_c, 9, 38, 127
6, 79560, Note_off_c, 9, 38, 127
6, 79560, Note_on_c, 9, 41, 127
6, 79560, Note_on_c, 9, 38, 127
6, 79680, Note_off_c, 9, 41, 127
6, 79680, Note_off_c, 9, 38, 127
6, 79680, Note_on_c, 9, 43, 127
6, 79840, Note_off_c, 9, 43, 127
6, 79840, Note_on_c, 9, 48, 127
6, 80000, Note_off_c, 9, 48, 127
6, 80000, Note_on_c, 9, 41, 127
6, 80160, Note_off_c, 9, 41, 127
6, 80160, Note_on_c, 9, 45, 127
6, 80160, Note_on_c, 9, 43, 127
6, 80400, Note_off_c, 9, 45, 127
6, 80400, Note_off_c, 9, 43, 127
6, 80400, Note_on_c, 9, 41, 127
6, 80640, Note_off_c, 9, 41, 127
6, 80640, Note_on_c, 9, 59, 127
6, 80640, Note_on_c, 9, 57, 127
6, 80640, Note_on_c, 9, 35, 127
6, 81120, Note_off_c, 9, 59, 127
6, 81120, Note_off_c, 9, 57, 127
6, 81120, Note_off_c, 9, 35, 127
6, 81120, Note_on_c, 9, 59, 127
6, 81360, Note_off_c, 9, 59, 127
6, 81360, Note_on_c, 9, 35, 127
6, 81600, Note_off_c, 9, 35, 127
6, 81600, Note_on_c, 9, 53, 127
6, 81600, Note_on_c, 9, 38, 127
6, 82080, Note_off_c, 9, 53, 127
6, 82080, Note_off_c, 9, 38, 127
6, 82080, Note_on_c, 9, 53, 127
6, 82320, Note_off_c, 9, 53, 127
6, 82320, Note_on_c, 9, 35, 127
6, 82560, Note_off_c, 9, 35, 127
6, 82560, Note_on_c, 9, 53, 127
6, 82560, Note_on_c, 9, 38, 127
6, 83040, Note_off_c, 9, 53, 127
6, 83040, Note_off_c, 9, 38, 127
6, 83040, Note_on_c, 9, 53, 127
6, 83280, Note_off_c, 9, 53, 127
6, 83280, Note_on_c, 9, 35, 127
6, 83520, Note_off_c, 9, 35, 127
6, 83520, Note_on_c, 9, 53, 127
6, 83520, Note_on_c, 9, 35, 127
6, 84000, Note_off_c, 9, 53, 127
6, 84000, Note_off_c, 9, 35, 127
6, 84000, Note_on_c, 9, 53, 127
6, 84480, Note_off_c, 9, 53, 127
6, 84480, Note_on_c, 9, 53, 127
6, 84720, Note_off_c, 9, 53, 127
6, 84720, Note_on_c, 9, 35, 127
6, 84960, Note_off_c, 9, 35, 127
6, 84960, Note_on_c, 9, 53, 127
6, 84960, Note_on_c, 9, 38, 127
6, 85320, Note_off_c, 9, 53, 127
6, 85320, Note_off_c, 9, 38, 127
6, 85320, Note_on_c, 9, 47, 127
6, 85440, Note_off_c, 9, 47, 127
6, 85440, Note_on_c, 9, 53, 127
6, 85440, Note_on_c, 9, 48, 127
6, 85600, Note_off_c, 9, 53, 127
6, 85600, Note_off_c, 9, 48, 127
6, 85600, Note_on_c, 9, 45, 127
6, 85600, Note_on_c, 9, 43, 127
6, 85760, Note_off_c, 9, 45, 127
6, 85760, Note_off_c, 9, 43, 127
6, 85760, Note_on_c, 9, 43, 127
6, 85920, Note_off_c, 9, 43, 127
6, 85920, Note_on_c, 9, 41, 127
6, 86040, Note_off_c, 9, 41, 127
6, 86040, Note_on_c, 9, 41, 127
6, 86160, Note_off_c, 9, 41, 127
6, 86160, Note_on_c, 9, 38, 127
6, 86280, Note_off_c, 9, 38, 127
6, 86280, Note_on_c, 9, 38, 127
6, 86400, Note_off_c, 9, 38, 127
6, 86400, Note_on_c, 9, 51, 127
6, 86400, Note_on_c, 9, 49, 127
6, 86400, Note_on_c, 9, 35, 127
6, 86880, Note_off_c, 9, 51, 127
6, 86880, Note_off_c, 9, 49, 127
6, 86880, Note_off_c, 9, 35, 127
6, 86880, Note_on_c, 9, 51, 127
6, 87120, Note_off_c, 9, 51, 127
6, 87120, Note_on_c, 9, 35, 127
6, 87360, Note_off_c, 9, 35, 127
6, 87360, Note_on_c, 9, 51, 127
6, 87360, Note_on_c, 9, 49, 127
6, 87360, Note_on_c, 9, 50, 127
6, 87360, Note_on_c, 9, 38, 127
6, 87840, Note_off_c, 9, 51, 127
6, 87840, Note_off_c, 9, 49, 127
6, 87840, Note_off_c, 9, 50, 127
6, 87840, Note_off_c, 9, 38, 127
6, 87840, Note_on_c, 9, 51, 127
6, 88320, Note_off_c, 9, 51, 127
6, 88320, Note_on_c, 9, 51, 127
6, 88800, Note_off_c, 9, 51, 127
6, 88800, Note_on_c, 9, 51, 127
6, 89040, Note_off_c, 9, 51, 127
6, 89040, Note_on_c, 9, 38, 127
6, 89160, Note_off_c, 9, 38, 127
6, 89160, Note_on_c, 9, 38, 127
6, 89280, Note_off_c, 9, 38, 127
6, 89280, Note_on_c, 9, 38, 127
6, 89600, Note_off_c, 9, 38, 127
6, 89600, Note_on_c, 9, 51, 127
6, 89600, Note_on_c, 9, 49, 127
6, 89600, Note_on_c, 9, 35, 127
6, 89920, Note_off_c, 9, 51, 127
6, 89920, Note_off_c, 9, 49, 127
6, 89920, Note_off_c, 9, 35, 127
6, 89920, Note_on_c, 9, 59, 127
6, 89920, Note_on_c, 9, 57, 127
6, 89920, Note_on_c, 9, 35, 127
6, 90240, Note_off_c, 9, 59, 127
6, 90240, Note_off_c, 9, 57, 127
6, 90240, Note_off_c, 9, 35, 127
6, 90240, Note_on_c, 9, 59, 127
6, 90240, Note_on_c, 9, 49, 127
6, 90240, Note_on_c, 9, 35, 127
6, 90720, Note_off_c, 9, 59, 127
6, 90720, Note_off_c, 9, 49, 127
6, 90720, Note_off_c, 9, 35, 127
6, 90720, Note_on_c, 9, 59, 127
6, 90720, Note_on_c, 9, 55, 127
6, 90960, Note_off_c, 9, 59, 127
6, 90960, Note_off_c, 9, 55, 127
6, 90960, Note_on_c, 9, 38, 127
6, 91080, Note_off_c, 9, 38, 127
6, 91080, Note_on_c, 9, 41, 127
6, 91080, Note_on_c, 9, 38, 127
6, 91200, Note_off_c, 9, 41, 127
6, 91200, Note_off_c, 9, 38, 127
6, 91200, Note_on_c, 9, 38, 127
6, 91440, Note_off_c, 9, 38, 127
6, 91440, Note_on_c, 9, 48, 127
6, 91440, Note_on_c, 9, 47, 127
6, 91680, Note_off_c, 9, 48, 127
6, 91680, Note_off_c, 9, 47, 127
6, 91680, Note_on_c, 9, 43, 127
6, 91920, Note_off_c, 9, 43, 127
6, 91920, Note_on_c, 9, 43, 127
6, 91920, Note_on_c, 9, 41, 127
6, 92160, Note_off_c, 9, 43, 127
6, 92160, Note_off_c, 9, 41, 127
6, 92160, Note_on_c, 9, 44, 127
6, 92160, Note_on_c, 9, 49, 127
6, 92160, Note_on_c, 9, 35, 127
6, 93120, Note_off_c, 9, 44, 127
6, 93120, Note_off_c, 9, 49, 127
6, 93120, Note_off_c, 9, 35, 127
6, 93120, Note_on_c, 9, 44, 127
6, 94080, Note_off_c, 9, 44, 127
6, 94080, Note_on_c, 9, 44, 127
6, 94320, Note_off_c, 9, 44, 127
6, 94320, Note_on_c, 9, 48, 127
6, 94560, Note_off_c, 9, 48, 127
6, 94560, Note_on_c, 9, 45, 127
6, 94800, Note_off_c, 9, 45, 127
6, 94800, Note_on_c, 9, 47, 127
6, 95040, Note_off_c, 9, 47, 127
6, 95040, Note_on_c, 9, 44, 127
6, 95232, Note_off_c, 9, 44, 127
6, 95232, Note_on_c, 9, 46, 127
6, 95424, Note_off_c, 9, 46, 127
6, 95424, Note_on_c, 9, 35, 127
6, 95616, Note_off_c, 9, 35, 127
6, 95616, Note_on_c, 9, 42, 127
6, 95808, Note_off_c, 9, 42, 127
6, 95808, Note_on_c, 9, 48, 127
6, 96000, Note_off_c, 9, 48, 127
6, 96000, Note_on_c, 9, 59, 127
6, 96000, Note_on_c, 9, 41, 127
6, 96192, Note_off_c, 9, 59, 127
6, 96192, Note_off_c, 9, 41, 127
6, 96192, Note_on_c, 9, 43, 127
6, 96384, Note_off_c, 9, 43, 127
6, 96384, Note_on_c, 9, 51, 127
6, 96384, Note_on_c, 9, 48, 127
6, 96576, Note_off_c, 9, 51, 127
6, 96576, Note_off_c, 9, 48, 127
6, 96576, Note_on_c, 9, 44, 127
6, 96768, Note_off_c, 9, 44, 127
6, 96768, Note_on_c, 9, 52, 127
6, 96960, Note_off_c, 9, 52, 127
6, 96960, Note_on_c, 9, 38, 127
6, 97152, Note_off_c, 9, 38, 127
6, 97152, Note_on_c, 9, 51, 127
6, 97152, Note_on_c, 9, 48, 127
6, 97344, Note_off_c, 9, 51, 127
6, 97344, Note_off_c, 9, 48, 127
6, 97344, Note_on_c, 9, 35, 127
6, 97536, Note_off_c, 9, 35, 127
6, 97536, Note_on_c, 9, 43, 127
6, 97728, Note_off_c, 9, 43, 127
6, 97728, Note_on_c, 9, 38, 127
6, 97920, Note_off_c, 9, 38, 127
6, 97920, Note_on_c, 9, 38, 127
6, 98112, Note_off_c, 9, 38, 127
6, 98112, Note_on_c, 9, 35, 127
6, 98304, Note_off_c, 9, 35, 127
6, 98304, Note_on_c, 9, 42, 127
6, 98496, Note_off_c, 9, 42, 127
6, 98496, Note_on_c, 9, 38, 127
6, 98688, Note_off_c, 9, 38, 127
6, 98688, Note_on_c, 9, 46, 127
6, 98880, Note_off_c, 9, 46, 127
6, 98880, Note_on_c, 9, 51, 127
6, 98880, Note_on_c, 9, 35, 127
6, 99840, Note_off_c, 9, 51, 127
6, 99840, Note_off_c, 9, 35, 127
6, 99840, Note_on_c, 9, 51, 127
6, 99840, Note_on_c, 9, 44, 127
6, 100320, Note_off_c, 9, 51, 127
6, 100320, Note_off_c, 9, 44, 127
6, 100320, Note_on_c, 9, 51, 127
6, 100320, Note_on_c, 9, 35, 127
6, 100800, Note_off_c, 9, 51, 127
6, 100800, Note_off_c, 9, 35, 127
6, 100800, Note_on_c, 9, 51, 127
6, 100800, Note_on_c, 9, 35, 127
6, 101280, Note_off_c, 9, 51, 127
6, 101280, Note_off_c, 9, 35, 127
6, 101280, Note_on_c, 9, 51, 127
6, 101520, Note_off_c, 9, 51, 127
6, 101520, Note_on_c, 9, 35, 127
6, 101760, Note_off_c, 9, 35, 127
6, 101760, Note_on_c, 9, 51, 127
6, 101760, Note_on_c, 9, 38, 127
6, 102240, Note_off_c, 9, 51, 127
6, 102240, Note_off_c, 9, 38, 127
6, 102240, Note_on_c, 9, 51, 127
6, 102480, Note_off_c, 9, 51, 127
6, 102480, Note_on_c, 9, 47, 127
6, 102480, Note_on_c, 9, 45, 127
6, 102720, Note_off_c, 9, 47, 127
6, 102720, Note_off_c, 9, 45, 127
6, 102720, Note_on_c, 9, 45, 127
6, 102720, Note_on_c, 9, 41, 127
6, 102960, Note_off_c, 9, 45, 127
6, 102960, Note_off_c, 9, 41, 127
6, 102960, Note_on_c, 9, 43, 127
6, 102960, Note_on_c, 9, 38, 127
6, 103200, Note_off_c, 9, 43, 127
6, 103200, Note_off_c, 9, 38, 127
6, 103200, Note_on_c, 9, 38, 127
6, 103440, Note_off_c, 9, 38, 127
6, 103440, Note_on_c, 9, 38, 127
6, 103680, Note_off_c, 9, 38, 127
6, 103680, Note_on_c, 9, 44, 127
6, 103680, Note_on_c, 9, 49, 127
6, 103680, Note_on_c, 9, 35, 127
6, 104640, Note_off_c, 9, 44, 127
6, 104640, Note_off_c, 9, 49, 127
6, 104640, Note_off_c, 9, 35, 127
6, 104640, Note_on_c, 9, 44, 127
6, 104640, Note_on_c, 9, 38, 127
6, 105600, Note_off_c, 9, 44, 127
6, 105600, Note_off_c, 9, 38, 127
6, 105600, Note_on_c, 9, 44, 127
6, 105920, Note_off_c, 9, 44, 127
6, 105920, Note_on_c, 9, 45, 127
6, 106240, Note_off_c, 9, 45, 127
6, 106240, Note_on_c, 9, 38, 127
6, 106560, Note_off_c, 9, 38, 127
6, 106560, Note_on_c, 9, 42, 127
6, 106752, Note_off_c, 9, 42, 127
6, 106752, Note_on_c, 9, 46, 127
6, 106944, Note_off_c, 9, 46, 127
6, 106944, Note_on_c, 9, 44, 127
6, 107136, Note_off_c, 9, 44, 127
6, 107136, Note_on_c, 9, 38, 127
6, 107328, Note_off_c, 9, 38, 127
6, 107328, Note_on_c, 9, 35, 127
6, 107520, Note_off_c, 9, 35, 127
6, 107520, Note_on_c, 9, 47, 127
6, 107694, Note_off_c, 9, 47, 127
6, 107694, Note_on_c, 9, 43, 127
6, 107868, Note_off_c, 9, 43, 127
6, 107868, Note_on_c, 9, 38, 127
6, 108042, Note_off_c, 9, 38, 127
6, 108042, Note_on_c, 9, 43, 127
6, 108216, Note_off_c, 9, 43, 127
6, 108216, Note_on_c, 9, 47, 127
6, 108390, Note_off_c, 9, 47, 127
6, 108390, Note_on_c, 9, 35, 127
6, 108564, Note_off_c, 9, 35, 127
6, 108564, Note_on_c, 9, 51, 127
6, 108564, Note_on_c, 9, 38, 127
6, 108738, Note_off_c, 9, 51, 127
6, 108738, Note_off_c, 9, 38, 127
6, 108738, Note_on_c, 9, 53, 127
6, 108738, Note_on_c, 9, 38, 127
6, 108912, Note_off_c, 9, 53, 127
6, 108912, Note_off_c, 9, 38, 127
6, 108912, Note_on_c, 9, 51, 127
6, 108912, Note_on_c, 9, 43, 127
6, 109086, Note_off_c, 9, 51, 127
6, 109086, Note_off_c, 9, 43, 127
6, 109086, Note_on_c, 9, 46, 127
6, 109260, Note_off_c, 9, 46, 127
6, 109260, Note_on_c, 9, 44, 127
6, 109434, Note_off_c, 9, 44, 127
6, 109440, Note_on_c, 9, 53, 127
6, 109440, Note_on_c, 9, 48, 127
6, 109632, Note_off_c, 9, 53, 127
6, 109632, Note_off_c, 9, 48, 127
6, 109632, Note_on_c, 9, 35, 127
6, 109824, Note_off_c, 9, 35, 127
6, 109824, Note_on_c, 9, 53, 127
6, 109824, Note_on_c, 9, 41, 127
6, 110016, Note_off_c, 9, 53, 127
6, 110016, Note_off_c, 9, 41, 127
6, 110016, Note_on_c, 9, 38, 127
6, 110208, Note_off_c, 9, 38, 127
6, 110208, Note_on_c, 9, 38, 127
6, 110400, Note_off_c, 9, 38, 127
6, 110400, Note_on_c, 9, 49, 127
6, 110400, Note_on_c, 9, 35, 127
6, 111360, Note_off_c, 9, 49, 127
6, 111360, Note_off_c, 9, 35, 127
6, 111360, Note_on_c, 9, 51, 127
6, 111360, Note_on_c, 9, 44, 127
6, 111840, Note_off_c, 9, 51, 127
6, 111840, Note_off_c, 9, 44, 127
6, 111840, Note_on_c, 9, 38, 127
6, 112320, Note_off_c, 9, 38, 127
6, 112320, Note_on_c, 9, 51, 127
6, 112320, Note_on_c, 9, 44, 127
6, 112320, Note_on_c, 9, 38, 127
6, 112560, Note_off_c, 9, 51, 127
6, 112560, Note_off_c, 9, 44, 127
6, 112560, Note_off_c, 9, 38, 127
6, 112560, Note_on_c, 9, 38, 127
6, 112800, Note_off_c, 9, 38, 127
6, 112800, Note_on_c, 9, 51, 127
6, 113040, Note_off_c, 9, 51, 127
6, 113040, Note_on_c, 9, 35, 127
6, 113280, Note_off_c, 9, 35, 127
6, 113280, Note_on_c, 9, 51, 127
6, 113280, Note_on_c, 9, 44, 127
6, 113520, Note_off_c, 9, 51, 127
6, 113520, Note_off_c, 9, 44, 127
6, 113520, Note_on_c, 9, 38, 127
6, 113760, Note_off_c, 9, 38, 127
6, 113760, Note_on_c, 9, 51, 127
6, 114000, Note_off_c, 9, 51, 127
6, 114000, Note_on_c, 9, 49, 127
6, 114000, Note_on_c, 9, 47, 127
6, 114000, Note_on_c, 9, 45, 127
6, 114240, Note_off_c, 9, 49, 127
6, 114240, Note_off_c, 9, 47, 127
6, 114240, Note_off_c, 9, 45, 127
6, 114240, Note_on_c, 9, 43, 127
6, 114240, Note_on_c, 9, 41, 127
6, 114480, Note_off_c, 9, 43, 127
6, 114480, Note_off_c, 9, 41, 127
6, 114480, Note_on_c, 9, 43, 127
6, 114480, Note_on_c, 9, 41, 127
6, 114720, Note_off_c, 9, 43, 127
6, 114720, Note_off_c, 9, 41, 127
6, 114720, Note_on_c, 9, 38, 127
6, 114960, Note_off_c, 9, 38, 127
6, 114960, Note_on_c, 9, 52, 127
6, 114960, Note_on_c, 9, 38, 127
6, 115200, Note_off_c, 9, 52, 127
6, 115200, Note_off_c, 9, 38, 127
6, 115200, Note_on_c, 9, 59, 127
6, 115200, Note_on_c, 9, 57, 127
6, 115200, Note_on_c, 9, 44, 127
6, 115200, Note_on_c, 9, 35, 127
6, 116160, Note_off_c, 9, 59, 127
6, 116160, Note_off_c, 9, 57, 127
6, 116160, Note_off_c, 9, 44, 127
6, 116160, Note_off_c, 9, 35, 127
6, 116160, Note_on_c, 9, 44, 127
6, 117120, Note_off_c, 9, 44, 127
6, 117120, Note_on_c, 9, 44, 127
6, 118080, Note_off_c, 9, 44, 127
6, 118080, Note_on_c, 9, 44, 127
6, 118080, Note_on_c, 9, 47, 127
6, 118341, Note_off_c, 9, 44, 127
6, 118341, Note_off_c, 9, 47, 127
6, 118341, Note_on_c, 9, 45, 127
6, 118602, Note_off_c, 9, 45, 127
6, 118602, Note_on_c, 9, 45, 127
6, 118863, Note_off_c, 9, 45, 127
6, 118863, Note_on_c, 9, 41, 127
6, 119124, Note_off_c, 9, 41, 127
6, 119124, Note_on_c, 9, 38, 127
6, 119385, Note_off_c, 9, 38, 127
6, 119385, Note_on_c, 9, 45, 127
6, 119646, Note_off_c, 9, 45, 127
6, 119646, Note_on_c, 9, 43, 127
6, 119907, Note_off_c, 9, 43, 127
6, 119907, Note_on_c, 9, 38, 127
6, 120168, Note_off_c, 9, 38, 127
6, 120168, Note_on_c, 9, 35, 127
6, 120429, Note_off_c, 9, 35, 127
6, 120429, Note_on_c, 9, 35, 127
6, 120690, Note_off_c, 9, 35, 127
6, 120690, Note_on_c, 9, 41, 127
6, 120951, Note_off_c, 9, 41, 127
6, 120960, Note_on_c, 9, 47, 127
6, 121152, Note_off_c, 9, 47, 127
6, 121152, Note_on_c, 9, 45, 127
6, 121344, Note_off_c, 9, 45, 127
6, 121344, Note_on_c, 9, 35, 127
6, 121536, Note_off_c, 9, 35, 127
6, 121536, Note_on_c, 9, 38, 127
6, 121728, Note_off_c, 9, 38, 127
6, 121728, Note_on_c, 9, 35, 127
6, 121920, Note_off_c, 9, 35, 127
6, 121920, Note_on_c, 9, 47, 127
6, 122112, Note_off_c, 9, 47, 127
6, 122112, Note_on_c, 9, 43, 127
6, 122304, Note_off_c, 9, 43, 127
6, 122304, Note_on_c, 9, 38, 127
6, 122496, Note_off_c, 9, 38, 127
6, 122496, Note_on_c, 9, 43, 127
6, 122688, Note_off_c, 9, 43, 127
6, 122688, Note_on_c, 9, 44, 127
6, 122880, Note_off_c, 9, 44, 127
6, 122880, Note_on_c, 9, 46, 127
6, 123072, Note_off_c, 9, 46, 127
6, 123072, Note_on_c, 9, 35, 127
6, 123264, Note_off_c, 9, 35, 127
6, 123264, Note_on_c, 9, 41, 127
6, 123456, Note_off_c, 9, 41, 127
6, 123456, Note_on_c, 9, 47, 127
6, 123648, Note_off_c, 9, 47, 127
6, 123648, Note_on_c, 9, 38, 127
6, 123840, Note_off_c, 9, 38, 127
6, 123840, Note_on_c, 9, 49, 127
6, 123840, Note_on_c, 9, 35, 127
6, 124800, Note_off_c, 9, 49, 127
6, 124800, Note_off_c, 9, 35, 127
6, 124800, Note_on_c, 9, 51, 127
6, 125040, Note_off_c, 9, 51, 127
6, 125040, Note_on_c, 9, 35, 127
6, 125280, Note_off_c, 9, 35, 127
6, 125280, Note_on_c, 9, 51, 127
6, 125280, Note_on_c, 9, 38, 127
6, 125760, Note_off_c, 9, 51, 127
6, 125760, Note_off_c, 9, 38, 127
6, 125760, Note_on_c, 9, 51, 127
6, 126000, Note_off_c, 9, 51, 127
6, 126000, Note_on_c, 9, 38, 127
6, 126240, Note_off_c, 9, 38, 127
6, 126240, Note_on_c, 9, 51, 127
6, 126480, Note_off_c, 9, 51, 127
6, 126480, Note_on_c, 9, 38, 127
6, 126720, Note_off_c, 9, 38, 127
6, 126720, Note_on_c, 9, 59, 127
6, 126720, Note_on_c, 9, 57, 127
6, 126720, Note_on_c, 9, 44, 127
6, 126720, Note_on_c, 9, 35, 127
6, 127680, Note_off_c, 9, 59, 127
6, 127680, Note_off_c, 9, 57, 127
6, 127680, Note_off_c, 9, 44, 127
6, 127680, Note_off_c, 9, 35, 127
6, 127680, Note_on_c, 9, 44, 127
6, 128640, Note_off_c, 9, 44, 127
6, 128640, Note_on_c, 9, 47, 127
6, 128777, Note_off_c, 9, 47, 127
6, 128777, Note_on_c, 9, 46, 127
6, 128914, Note_off_c, 9, 46, 127
6, 128914, Note_on_c, 9, 42, 127
6, 129051, Note_off_c, 9, 42, 127
6, 129051, Note_on_c, 9, 35, 127
6, 129188, Note_off_c, 9, 35, 127
6, 129188, Note_on_c, 9, 38, 127
6, 129325, Note_off_c, 9, 38, 127
6, 129325, Note_on_c, 9, 45, 127
6, 129462, Note_off_c, 9, 45, 127
6, 129462, Note_on_c, 9, 48, 127
6, 129599, Note_off_c, 9, 48, 127
6, 129600, Note_on_c, 9, 35, 127
6, 129888, Note_off_c, 9, 35, 127
6, 129888, Note_on_c, 9, 43, 127
6, 130176, Note_off_c, 9, 43, 127
6, 130176, Note_on_c, 9, 35, 127
6, 130464, Note_off_c, 9, 35, 127
6, 130464, Note_on_c, 9, 38, 127
6, 130752, Note_off_c, 9, 38, 127
6, 130752, Note_on_c, 9, 43, 127
6, 131040, Note_off_c, 9, 43, 127
6, 131040, Note_on_c, 9, 38, 127
6, 131328, Note_off_c, 9, 38, 127
6, 131328, Note_on_c, 9, 46, 127
6, 131616, Note_off_c, 9, 46, 127
6, 131616, Note_on_c, 9, 43, 127
6, 131904, Note_off_c, 9, 43, 127
6, 131904, Note_on_c, 9, 38, 127
6, 132192, Note_off_c, 9, 38, 127
6, 132192, Note_on_c, 9, 47, 127
6, 132480, Note_off_c, 9, 47, 127
6, 132480, Note_on_c, 9, 38, 127
6, 132720, Note_off_c, 9, 38, 127
6, 132720, Note_on_c, 9, 35, 127
6, 132960, Note_off_c, 9, 35, 127
6, 132960, Note_on_c, 9, 35, 127
6, 133200, Note_off_c, 9, 35, 127
6, 133200, Note_on_c, 9, 38, 127
6, 133440, Note_off_c, 9, 38, 127
6, 133440, Note_on_c, 9, 43, 127
6, 133760, Note_off_c, 9, 43, 127
6, 133760, Note_on_c, 9, 41, 127
6, 134080, Note_off_c, 9, 41, 127
6, 134080, Note_on_c, 9, 47, 127
6, 134400, Note_off_c, 9, 47, 127
6, 134400, Note_on_c, 9, 35, 127
6, 134640, Note_off_c, 9, 35, 127
6, 134640, Note_on_c, 9, 38, 127
6, 134760, Note_off_c, 9, 38, 127
6, 134760, Note_on_c, 9, 38, 127
6, 134880, Note_off_c, 9, 38, 127
6, 134880, Note_on_c, 9, 51, 127
6, 134880, Note_on_c, 9, 49, 127
6, 134880, Note_on_c, 9, 35, 127
6, 135360, Note_off_c, 9, 51, 127
6, 135360, Note_off_c, 9, 49, 127
6, 135360, Note_off_c, 9, 35, 127
6, 135360, Note_on_c, 9, 51, 127
6, 135360, Note_on_c, 9, 38, 127
6, 135840, Note_off_c, 9, 51, 127
6, 135840, Note_off_c, 9, 38, 127
6, 135840, Note_on_c, 9, 51, 127
6, 136080, Note_off_c, 9, 51, 127
6, 136080, Note_on_c, 9, 38, 127
6, 136320, Note_off_c, 9, 38, 127
6, 136320, Note_on_c, 9, 51, 127
6, 136560, Note_off_c, 9, 51, 127
6, 136560, Note_on_c, 9, 45, 127
6, 136800, Note_off_c, 9, 45, 127
6, 136800, Note_on_c, 9, 45, 127
6, 136800, Note_on_c, 9, 41, 127
6, 137040, Note_off_c, 9, 45, 127
6, 137040, Note_off_c, 9, 41, 127
6, 137040, Note_on_c, 9, 41, 127
6, 137040, Note_on_c, 9, 38, 127
6, 137280, Note_off_c, 9, 41, 127
6, 137280, Note_off_c, 9, 38, 127
6, 137280, Note_on_c, 9, 38, 127
6, 137520, Note_off_c, 9, 38, 127
6, 137520, Note_on_c, 9, 41, 127
6, 137520, Note_on_c, 9, 38, 127
6, 137760, Note_off_c, 9, 41, 127
6, 137760, Note_off_c, 9, 38, 127
6, 137760, Note_on_c, 9, 44, 127
6, 137760, Note_on_c, 9, 35, 127
6, 138000, Note_off_c, 9, 44, 127
6, 138000, Note_off_c, 9, 35, 127
6, 138000, Note_on_c, 9, 46, 127
6, 138240, Note_off_c, 9, 46, 127
6, 138240, Note_on_c, 9, 51, 127
6, 138240, Note_on_c, 9, 49, 127
6, 138240, Note_on_c, 9, 35, 127
6, 138720, Note_off_c, 9, 51, 127
6, 138720, Note_off_c, 9, 49, 127
6, 138720, Note_off_c, 9, 35, 127
6, 138720, Note_on_c, 9, 51, 127
6, 139200, Note_off_c, 9, 51, 127
6, 139200, Note_on_c, 9, 51, 127
6, 139680, Note_off_c, 9, 51, 127
6, 139680, Note_on_c, 9, 51, 127
6, 139920, Note_off_c, 9, 51, 127
6, 139920, Note_on_c, 9, 35, 127
6, 140160, Note_off_c, 9, 35, 127
6, 140160, Note_on_c, 9, 51, 127
6, 140160, Note_on_c, 9, 38, 127
6, 140640, Note_off_c, 9, 51, 127
6, 140640, Note_off_c, 9, 38, 127
6, 140640, Note_on_c, 9, 51, 127
6, 140880, Note_off_c, 9, 51, 127
6, 140880, Note_on_c, 9, 35, 127
6, 141120, Note_off_c, 9, 35, 127
6, 141120, Note_on_c, 9, 51, 127
6, 141120, Note_on_c, 9, 49, 127
6, 141120, Note_on_c, 9, 35, 127
6, 141600, Note_off_c, 9, 51, 127
6, 141600, Note_off_c, 9, 49, 127
6, 141600, Note_off_c, 9, 35, 127
6, 141600, Note_on_c, 9, 51, 127
6, 141840, Note_off_c, 9, 51, 127
6, 141840, Note_on_c, 9, 35, 127
6, 142080, Note_off_c, 9, 35, 127
6, 142080, Note_on_c, 9, 51, 127
6, 142080, Note_on_c, 9, 35, 127
6, 142560, Note_off_c, 9, 51, 127
6, 142560, Note_off_c, 9, 35, 127
6, 142560, Note_on_c, 9, 51, 127
6, 142560, Note_on_c, 9, 38, 127
6, 143040, Note_off_c, 9, 51, 127
6, 143040, Note_off_c, 9, 38, 127
6, 143040, Note_on_c, 9, 51, 127
6, 143160, Note_off_c, 9, 51, 127
6, 143160, Note_on_c, 9, 45, 127
6, 143280, Note_off_c, 9, 45, 127
6, 143280, Note_on_c, 9, 47, 127
6, 143400, Note_off_c, 9, 47, 127
6, 143400, Note_on_c, 9, 45, 127
6, 143520, Note_off_c, 9, 45, 127
6, 143520, Note_on_c, 9, 41, 127
6, 143680, Note_off_c, 9, 41, 127
6, 143680, Note_on_c, 9, 38, 127
6, 143840, Note_off_c, 9, 38, 127
6, 143840, Note_on_c, 9, 41, 127
6, 143840, Note_on_c, 9, 38, 127
6, 144000, Note_off_c, 9, 41, 127
6, 144000, Note_off_c, 9, 38, 127
6, 144000, Note_on_c, 9, 59, 127
6, 144000, Note_on_c, 9, 57, 127
6, 144000, Note_on_c, 9, 35, 127
6, 144480, Note_off_c, 9, 59, 127
6, 144480, Note_off_c, 9, 57, 127
6, 144480, Note_off_c, 9, 35, 127
6, 144480, Note_on_c, 9, 59, 127
6, 144960, Note_off_c, 9, 59, 127
6, 144960, Note_on_c, 9, 59, 127
6, 145440, Note_off_c, 9, 59, 127
6, 145440, Note_on_c, 9, 59, 127
6, 145680, Note_off_c, 9, 59, 127
6, 145680, Note_on_c, 9, 35, 127
6, 145920, Note_off_c, 9, 35, 127
6, 145920, Note_on_c, 9, 59, 127
6, 145920, Note_on_c, 9, 38, 127
6, 146400, Note_off_c, 9, 59, 127
6, 146400, Note_off_c, 9, 38, 127
6, 146400, Note_on_c, 9, 59, 127
6, 146640, Note_off_c, 9, 59, 127
6, 146640, Note_on_c, 9, 35, 127
6, 146880, Note_off_c, 9, 35, 127
6, 146880, Note_on_c, 9, 51, 127
6, 146880, Note_on_c, 9, 38, 127
6, 147360, Note_off_c, 9, 51, 127
6, 147360, Note_off_c, 9, 38, 127
6, 147360, Note_on_c, 9, 51, 127
6, 147360, Note_on_c, 9, 38, 127
6, 147840, Note_off_c, 9, 51, 127
6, 147840, Note_off_c, 9, 38, 127
6, 147840, Note_on_c, 9, 51, 127
6, 148080, Note_off_c, 9, 51, 127
6, 148080, Note_on_c, 9, 48, 127
6, 148080, Note_on_c, 9, 47, 127
6, 148320, Note_off_c, 9, 48, 127
6, 148320, Note_off_c, 9, 47, 127
6, 148320, Note_on_c, 9, 51, 127
6, 148560, Note_off_c, 9, 51, 127
6, 148560, Note_on_c, 9, 45, 127
6, 148680, Note_off_c, 9, 45, 127
6, 148680, Note_on_c, 9, 48, 127
6, 148800, Note_off_c, 9, 48, 127
6, 148800, Note_on_c, 9, 41, 127
6, 148960, Note_off_c, 9, 41, 127
6, 148960, Note_on_c, 9, 38, 127
6, 149120, Note_off_c, 9, 38, 127
6, 149120, Note_on_c, 9, 38, 127
6, 149280, Note_off_c, 9, 38, 127
6, 149280, Note_on_c, 9, 38, 127
6, 149440, Note_off_c, 9, 38, 127
6, 149440, Note_on_c, 9, 38, 127
6, 149600, Note_off_c, 9, 38, 127
6, 149600, Note_on_c, 9, 38, 127
6, 149760, Note_off_c, 9, 38, 127
6, 149760, Note_on_c, 9, 51, 127
6, 149760, Note_on_c, 9, 35, 127
6, 150240, Note_off_c, 9, 51, 127
6, 150240, Note_off_c, 9, 35, 127
6, 150240, Note_on_c, 9, 51, 127
6, 150720, Note_off_c, 9, 51, 127
6, 150720, Note_on_c, 9, 51, 127
6, 150960, Note_off_c, 9, 51, 127
6, 150960, Note_on_c, 9, 35, 127
6, 151200, Note_off_c, 9, 35, 127
6, 151200, Note_on_c, 9, 51, 127
6, 151440, Note_off_c, 9, 51, 127
6, 151440, Note_on_c, 9, 35, 127
6, 151680, Note_off_c, 9, 35, 127
6, 151680, Note_on_c, 9, 53, 127
6, 151680, Note_on_c, 9, 38, 127
6, 151920, Note_off_c, 9, 53, 127
6, 151920, Note_off_c, 9, 38, 127
6, 151920, Note_on_c, 9, 51, 127
6, 152160, Note_off_c, 9, 51, 127
6, 152160, Note_on_c, 9, 51, 127
6, 152400, Note_off_c, 9, 51, 127
6, 152400, Note_on_c, 9, 35, 127
6, 152640, Note_off_c, 9, 35, 127
6, 152640, Note_on_c, 9, 51, 127
6, 152640, Note_on_c, 9, 35, 127
6, 152880, Note_off_c, 9, 51, 127
6, 152880, Note_off_c, 9, 35, 127
6, 152880, Note_on_c, 9, 51, 127
6, 153120, Note_off_c, 9, 51, 127
6, 153120, Note_on_c, 9, 53, 127
6, 153360, Note_off_c, 9, 53, 127
6, 153360, Note_on_c, 9, 35, 127
6, 153600, Note_off_c, 9, 35, 127
6, 153600, Note_on_c, 9, 51, 127
6, 153600, Note_on_c, 9, 38, 127
6, 153840, Note_off_c, 9, 51, 127
6, 153840, Note_off_c, 9, 38, 127
6, 153840, Note_on_c, 9, 51, 127
6, 154080, Note_off_c, 9, 51, 127
6, 154080, Note_on_c, 9, 53, 127
6, 154320, Note_off_c, 9, 53, 127
6, 154320, Note_on_c, 9, 35, 127
6, 154560, Note_off_c, 9, 35, 127
6, 154560, Note_on_c, 9, 51, 127
6, 154800, Note_off_c, 9, 51, 127
6, 154800, Note_on_c, 9, 38, 127
6, 155040, Note_off_c, 9, 38, 127
6, 155040, Note_on_c, 9, 53, 127
6, 155280, Note_off_c, 9, 53, 127
6, 155280, Note_on_c, 9, 38, 127
6, 155520, Note_off_c, 9, 38, 127
6, 155520, Note_on_c, 9, 51, 127
6, 155520, Note_on_c, 9, 49, 127
6, 155520, Note_on_c, 9, 35, 127
6, 156000, Note_off_c, 9, 51, 127
6, 156000, Note_off_c, 9, 49, 127
6, 156000, Note_off_c, 9, 35, 127
6, 156000, Note_on_c, 9, 51, 127
6, 156480, Note_off_c, 9, 51, 127
6, 156480, Note_on_c, 9, 51, 127
6, 156720, Note_off_c, 9, 51, 127
6, 156720, Note_on_c, 9, 35, 127
6, 156960, Note_off_c, 9, 35, 127
6, 156960, Note_on_c, 9, 51, 127
6, 156960, Note_on_c, 9, 38, 127
6, 157440, Note_off_c, 9, 51, 127
6, 157440, Note_off_c, 9, 38, 127
6, 157440, Note_on_c, 9, 51, 127
6, 157920, Note_off_c, 9, 51, 127
6, 157920, Note_on_c, 9, 51, 127
6, 158160, Note_off_c, 9, 51, 127
6, 158160, Note_on_c, 9, 35, 127
6, 158400, Note_off_c, 9, 35, 127
6, 158400, Note_on_c, 9, 38, 127
6, 158720, Note_off_c, 9, 38, 127
6, 158720, Note_on_c, 9, 38, 127
6, 159040, Note_off_c, 9, 38, 127
6, 159040, Note_on_c, 9, 38, 127
6, 159200, Note_off_c, 9, 38, 127
6, 159200, Note_on_c, 9, 38, 127
6, 159360, Note_off_c, 9, 38, 127
6, 159360, Note_on_c, 9, 38, 127
6, 159520, Note_off_c, 9, 38, 127
6, 159520, Note_on_c, 9, 38, 127
6, 159840, Note_off_c, 9, 38, 127
6, 159840, Note_on_c, 9, 49, 127
6, 159840, Note_on_c, 9, 35, 127
6, 160320, Note_off_c, 9, 49, 127
6, 160320, Note_off_c, 9, 35, 127
6, 160320, Note_on_c, 9, 49, 127
6, 160320, Note_on_c, 9, 35, 127
6, 160560, Note_off_c, 9, 49, 127
6, 160560, Note_off_c, 9, 35, 127
6, 160560, Note_on_c, 9, 38, 127
6, 160800, Note_off_c, 9, 38, 127
6, 160800, Note_on_c, 9, 59, 127
6, 161040, Note_off_c, 9, 59, 127
6, 161040, Note_on_c, 9, 38, 127
6, 161280, Note_off_c, 9, 38, 127
6, 161280, Note_on_c, 9, 59, 127
6, 161280, Note_on_c, 9, 57, 127
6, 161280, Note_on_c, 9, 35, 127
6, 161760, Note_off_c, 9, 59, 127
6, 161760, Note_off_c, 9, 57, 127
6, 161760, Note_off_c, 9, 35, 127
6, 161760, Note_on_c, 9, 59, 127
6, 162240, Note_off_c, 9, 59, 127
6, 162240, Note_on_c, 9, 59, 127
6, 162480, Note_off_c, 9, 59, 127
6, 162480, Note_on_c, 9, 35, 127
6, 162720, Note_off_c, 9, 35, 127
6, 162720, Note_on_c, 9, 38, 127
6, 162960, Note_off_c, 9, 38, 127
6, 162960, Note_on_c, 9, 53, 127
6, 163200, Note_off_c, 9, 53, 127
6, 163200, Note_on_c, 9, 59, 127
6, 163200, Note_on_c, 9, 57, 127
6, 163440, Note_off_c, 9, 59, 127
6, 163440, Note_off_c, 9, 57, 127
6, 163440, Note_on_c, 9, 38, 127
6, 163680, Note_off_c, 9, 38, 127
6, 163680, Note_on_c, 9, 53, 127
6, 163920, Note_off_c, 9, 53, 127
6, 163920, Note_on_c, 9, 59, 127
6, 164160, Note_off_c, 9, 59, 127
6, 164160, Note_on_c, 9, 57, 127
6, 164160, Note_on_c, 9, 48, 127
6, 164160, Note_on_c, 9, 47, 127
6, 164400, Note_off_c, 9, 57, 127
6, 164400, Note_off_c, 9, 48, 127
6, 164400, Note_off_c, 9, 47, 127
6, 164400, Note_on_c, 9, 53, 127
6, 164640, Note_off_c, 9, 53, 127
6, 164640, Note_on_c, 9, 53, 127
6, 164880, Note_off_c, 9, 53, 127
6, 164880, Note_on_c, 9, 48, 127
6, 164880, Note_on_c, 9, 47, 127
6, 165120, Note_off_c, 9, 48, 127
6, 165120, Note_off_c, 9, 47, 127
6, 165120, Note_on_c, 9, 50, 127
6, 165240, Note_off_c, 9, 50, 127
6, 165240, Note_on_c, 9, 48, 127
6, 165360, Note_off_c, 9, 48, 127
6, 165360, Note_on_c, 9, 45, 127
6, 165480, Note_off_c, 9, 45, 127
6, 165480, Note_on_c, 9, 43, 127
6, 165600, Note_off_c, 9, 43, 127
6, 165600, Note_on_c, 9, 43, 127
6, 165600, Note_on_c, 9, 38, 127
6, 165760, Note_off_c, 9, 43, 127
6, 165760, Note_off_c, 9, 38, 127
6, 165760, Note_on_c, 9, 35, 127
6, 165920, Note_off_c, 9, 35, 127
6, 165920, Note_on_c, 9, 38, 127
6, 166080, Note_off_c, 9, 38, 127
6, 166080, Note_on_c, 9, 51, 127
6, 166080, Note_on_c, 9, 49, 127
6, 166400, Note_off_c, 9, 51, 127
6, 166400, Note_off_c, 9, 49, 127
6, 166400, Note_on_c, 9, 51, 127
6, 166400, Note_on_c, 9, 49, 127
6, 166720, Note_off_c, 9, 51, 127
6, 166720, Note_off_c, 9, 49, 127
6, 166720, Note_on_c, 9, 51, 127
6, 166720, Note_on_c, 9, 49, 127
6, 166720, Note_on_c, 9, 38, 127
6, 167040, Note_off_c, 9, 51, 127
6, 167040, Note_off_c, 9, 49, 127
6, 167040, Note_off_c, 9, 38, 127
6, 167040, Note_on_c, 9, 53, 127
6, 167040, Note_on_c, 9, 49, 127
6, 167040, Note_on_c, 9, 35, 127
6, 167520, Note_off_c, 9, 53, 127
6, 167520, Note_off_c, 9, 49, 127
6, 167520, Note_off_c, 9, 35, 127
6, 167520, Note_on_c, 9, 53, 127
6, 167760, Note_off_c, 9, 53, 127
6, 167760, Note_on_c, 9, 35, 127
6, 168000, Note_off_c, 9, 35, 127
6, 168000, Note_on_c, 9, 51, 127
6, 168240, Note_off_c, 9, 51, 127
6, 168240, Note_on_c, 9, 35, 127
6, 168480, Note_off_c, 9, 35, 127
6, 168480, Note_on_c, 9, 51, 127
6, 168720, Note_off_c, 9, 51, 127
6, 168720, Note_on_c, 9, 35, 127
6, 168960, Note_off_c, 9, 35, 127
6, 168960, Note_on_c, 9, 53, 127
6, 168960, Note_on_c, 9, 38, 127
6, 169200, Note_off_c, 9, 53, 127
6, 169200, Note_off_c, 9, 38, 127
6, 169200, Note_on_c, 9, 51, 127
6, 169440, Note_off_c, 9, 51, 127
6, 169440, Note_on_c, 9, 53, 127
6, 169680, Note_off_c, 9, 53, 127
6, 169680, Note_on_c, 9, 35, 127
6, 169920, Note_off_c, 9, 35, 127
6, 169920, Note_on_c, 9, 51, 127
6, 169920, Note_on_c, 9, 35, 127
6, 170160, Note_off_c, 9, 51, 127
6, 170160, Note_off_c, 9, 35, 127
6, 170160, Note_on_c, 9, 51, 127
6, 170400, Note_off_c, 9, 51, 127
6, 170400, Note_on_c, 9, 53, 127
6, 170640, Note_off_c, 9, 53, 127
6, 170640, Note_on_c, 9, 35, 127
6, 170880, Note_off_c, 9, 35, 127
6, 170880, Note_on_c, 9, 51, 127
6, 170880, Note_on_c, 9, 38, 127
6, 171120, Note_off_c, 9, 51, 127
6, 171120, Note_off_c, 9, 38, 127
6, 171120, Note_on_c, 9, 51, 127
6, 171360, Note_off_c, 9, 51, 127
6, 171360, Note_on_c, 9, 51, 127
6, 171600, Note_off_c, 9, 51, 127
6, 171600, Note_on_c, 9, 38, 127
6, 171720, Note_off_c, 9, 38, 127
6, 171720, Note_on_c, 9, 38, 127
6, 171840, Note_off_c, 9, 38, 127
6, 171840, Note_on_c, 9, 38, 127
6, 172080, Note_off_c, 9, 38, 127
6, 172080, Note_on_c, 9, 47, 127
6, 172320, Note_off_c, 9, 47, 127
6, 172320, Note_on_c, 9, 43, 127
6, 172320, Note_on_c, 9, 41, 127
6, 172480, Note_off_c, 9, 43, 127
6, 172480, Note_off_c, 9, 41, 127
6, 172480, Note_on_c, 9, 43, 127
6, 172480, Note_on_c, 9, 41, 127
6, 172640, Note_off_c, 9, 43, 127
6, 172640, Note_off_c, 9, 41, 127
6, 172640, Note_on_c, 9, 38, 127
6, 172800, Note_off_c, 9, 38, 127
6, 172800, Note_on_c, 9, 51, 127
6, 172800, Note_on_c, 9, 52, 127
6, 172800, Note_on_c, 9, 35, 127
6, 173280, Note_off_c, 9, 51, 127
6, 173280, Note_off_c, 9, 52, 127
6, 173280, Note_off_c, 9, 35, 127
6, 173280, Note_on_c, 9, 51, 127
6, 173520, Note_off_c, 9, 51, 127
6, 173520, Note_on_c, 9, 35, 127
6, 173760, Note_off_c, 9, 35, 127
6, 173760, Note_on_c, 9, 51, 127
6, 174000, Note_off_c, 9, 51, 127
6, 174000, Note_on_c, 9, 35, 127
6, 174240, Note_off_c, 9, 35, 127
6, 174240, Note_on_c, 9, 51, 127
6, 174480, Note_off_c, 9, 51, 127
6, 174480, Note_on_c, 9, 35, 127
6, 174720, Note_off_c, 9, 35, 127
6, 174720, Note_on_c, 9, 53, 127
6, 174720, Note_on_c, 9, 38, 127
6, 174960, Note_off_c, 9, 53, 127
6, 174960, Note_off_c, 9, 38, 127
6, 174960, Note_on_c, 9, 51, 127
6, 175200, Note_off_c, 9, 51, 127
6, 175200, Note_on_c, 9, 51, 127
6, 175440, Note_off_c, 9, 51, 127
6, 175440, Note_on_c, 9, 35, 127
6, 175680, Note_off_c, 9, 35, 127
6, 175680, Note_on_c, 9, 51, 127
6, 175680, Note_on_c, 9, 35, 127
6, 175920, Note_off_c, 9, 51, 127
6, 175920, Note_off_c, 9, 35, 127
6, 175920, Note_on_c, 9, 51, 127
6, 176160, Note_off_c, 9, 51, 127
6, 176160, Note_on_c, 9, 53, 127
6, 176400, Note_off_c, 9, 53, 127
6, 176400, Note_on_c, 9, 35, 127
6, 176640, Note_off_c, 9, 35, 127
6, 176640, Note_on_c, 9, 51, 127
6, 176640, Note_on_c, 9, 38, 127
6, 176880, Note_off_c, 9, 51, 127
6, 176880, Note_off_c, 9, 38, 127
6, 176880, Note_on_c, 9, 51, 127
6, 177120, Note_off_c, 9, 51, 127
6, 177120, Note_on_c, 9, 59, 127
6, 177360, Note_off_c, 9, 59, 127
6, 177360, Note_on_c, 9, 35, 127
6, 177600, Note_off_c, 9, 35, 127
6, 177600, Note_on_c, 9, 51, 127
6, 177840, Note_off_c, 9, 51, 127
6, 177840, Note_on_c, 9, 51, 127
6, 178080, Note_off_c, 9, 51, 127
6, 178080, Note_on_c, 9, 59, 127
6, 178320, Note_off_c, 9, 59, 127
6, 178320, Note_on_c, 9, 51, 127
6, 178320, Note_on_c, 9, 35, 127
6, 178560, Note_off_c, 9, 51, 127
6, 178560, Note_off_c, 9, 35, 127
6, 178560, Note_on_c, 9, 59, 127
6, 178560, Note_on_c, 9, 57, 127
6, 178560, Note_on_c, 9, 35, 127
6, 179040, Note_off_c, 9, 59, 127
6, 179040, Note_off_c, 9, 57, 127
6, 179040, Note_off_c, 9, 35, 127
6, 179040, Note_on_c, 9, 59, 127
6, 179280, Note_off_c, 9, 59, 127
6, 179280, Note_on_c, 9, 35, 127
6, 179520, Note_off_c, 9, 35, 127
6, 179520, Note_on_c, 9, 59, 127
6, 180000, Note_off_c, 9, 59, 127
6, 180000, Note_on_c, 9, 59, 127
6, 180480, Note_off_c, 9, 59, 127
6, 180480, Note_on_c, 9, 53, 127
6, 180480, Note_on_c, 9, 38, 127
6, 180960, Note_off_c, 9, 53, 127
6, 180960, Note_off_c, 9, 38, 127
6, 180960, Note_on_c, 9, 53, 127
6, 181200, Note_off_c, 9, 53, 127
6, 181200, Note_on_c, 9, 35, 127
6, 181440, Note_off_c, 9, 35, 127
6, 181440, Note_on_c, 9, 59, 127
6, 181440, Note_on_c, 9, 57, 127
6, 181760, Note_off_c, 9, 59, 127
6, 181760, Note_off_c, 9, 57, 127
6, 181760, Note_on_c, 9, 53, 127
6, 181760, Note_on_c, 9, 35, 127
6, 182080, Note_off_c, 9, 53, 127
6, 182080, Note_off_c, 9, 35, 127
6, 182080, Note_on_c, 9, 59, 127
6, 182080, Note_on_c, 9, 57, 127
6, 182080, Note_on_c, 9, 35, 127
6, 182400, Note_off_c, 9, 59, 127
6, 182400, Note_off_c, 9, 57, 127
6, 182400, Note_off_c, 9, 35, 127
6, 182400, Note_on_c, 9, 59, 127
6, 182400, Note_on_c, 9, 57, 127
6, 182400, Note_on_c, 9, 35, 127
6, 182880, Note_off_c, 9, 59, 127
6, 182880, Note_off_c, 9, 57, 127
6, 182880, Note_off_c, 9, 35, 127
6, 182880, Note_on_c, 9, 53, 127
6, 183240, Note_off_c, 9, 53, 127
6, 183240, Note_on_c, 9, 48, 127
6, 183240, Note_on_c, 9, 47, 127
6, 183360, Note_off_c, 9, 48, 127
6, 183360, Note_off_c, 9, 47, 127
6, 183360, Note_on_c, 9, 48, 127
6, 183600, Note_off_c, 9, 48, 127
6, 183600, Note_on_c, 9, 45, 127
6, 183600, Note_on_c, 9, 43, 127
6, 183840, Note_off_c, 9, 45, 127
6, 183840, Note_off_c, 9, 43, 127
6, 183840, Note_on_c, 9, 38, 127
6, 184000, Note_off_c, 9, 38, 127
6, 184000, Note_on_c, 9, 38, 127
6, 184160, Note_off_c, 9, 38, 127
6, 184160, Note_on_c, 9, 38, 127
6, 184320, Note_off_c, 9, 38, 127
6, 184320, Note_on_c, 9, 49, 127
6, 184320, Note_on_c, 9, 35, 127
6, 188160, Note_off_c, 9, 49, 127
6, 188160, Note_off_c, 9, 35, 127
6, 199680, Note_on_c, 9, 57, 127
6, 199680, Note_on_c, 9, 35, 127
6, 203520, Note_off_c, 9, 57, 127
6, 203520, Note_off_c, 9, 35, 127
6, 213120, Note_on_c, 9, 49, 127
6, 213120, Note_on_c, 9, 57, 127
6, 213240, Note_off_c, 9, 49, 127
6, 213240, Note_on_c, 9, 49, 127
6, 213240, Note_off_c, 9, 57, 127
6, 213240, Note_on_c, 9, 57, 127
6, 213360, Note_off_c, 9, 49, 127
6, 213360, Note_on_c, 9, 49, 127
6, 213360, Note_off_c, 9, 57, 127
6, 213360, Note_on_c, 9, 57, 127
6, 213480, Note_off_c, 9, 49, 127
6, 213480, Note_on_c, 9, 49, 127
6, 213480, Note_off_c, 9, 57, 127
6, 213480, Note_on_c, 9, 57, 127
6, 213600, Note_off_c, 9, 49, 127
6, 213600, Note_on_c, 9, 49, 127
6, 213600, Note_off_c, 9, 57, 127
6, 213600, Note_on_c, 9, 57, 127
6, 213720, Note_off_c, 9, 49, 127
6, 213720, Note_on_c, 9, 49, 127
6, 213720, Note_off_c, 9, 57, 127
6, 213720, Note_on_c, 9, 57, 127
6, 213840, Note_off_c, 9, 49, 127
6, 213840, Note_on_c, 9, 49, 127
6, 213840, Note_off_c, 9, 57, 127
6, 213840, Note_on_c, 9, 57, 127
6, 213960, Note_off_c, 9, 49, 127
6, 213960, Note_on_c, 9, 49, 127
6, 213960, Note_off_c, 9, 57, 127
6, 213960, Note_on_c, 9, 57, 127
6, 214080, Note_off_c, 9, 49, 127
6, 214080, Note_on_c, 9, 49, 127
6, 214080, Note_off_c, 9, 57, 127
6, 214080, Note_on_c, 9, 57, 127
6, 214200, Note_off_c, 9, 49, 127
6, 214200, Note_on_c, 9, 49, 127
6, 214200, Note_off_c, 9, 57, 127
6, 214200, Note_on_c, 9, 57, 127
6, 214320, Note_off_c, 9, 49, 127
6, 214320, Note_on_c, 9, 49, 127
6, 214320, Note_off_c, 9, 57, 127
6, 214320, Note_on_c, 9, 57, 127
6, 214440, Note_off_c, 9, 49, 127
6, 214440, Note_on_c, 9, 49, 127
6, 214440, Note_off_c, 9, 57, 127
6, 214440, Note_on_c, 9, 57, 127
6, 214560, Note_off_c, 9, 49, 127
6, 214560, Note_on_c, 9, 49, 127
6, 214560, Note_off_c, 9, 57, 127
6, 214560, Note_on_c, 9, 57, 127
6, 214680, Note_off_c, 9, 49, 127
6, 214680, Note_on_c, 9, 49, 127
6, 214680, Note_off_c, 9, 57, 127
6, 214680, Note_on_c, 9, 57, 127
6, 214800, Note_off_c, 9, 49, 127
6, 214800, Note_on_c, 9, 49, 127
6, 214800, Note_off_c, 9, 57, 127
6, 214800, Note_on_c, 9, 57, 127
6, 214920, Note_off_c, 9, 49, 127
6, 214920, Note_on_c, 9, 49, 127
6, 214920, Note_off_c, 9, 57, 127
6, 214920, Note_on_c, 9, 57, 127
6, 215039, Note_off_c, 9, 49, 127
6, 215039, Note_off_c, 9, 57, 127
6, 215040, Note_on_c, 9, 49, 127
6, 215040, Note_on_c, 9, 57, 127
6, 218880, Note_off_c, 9, 49, 127
6, 218880, Note_off_c, 9, 57, 127
6, 228480, Note_on_c, 9, 49, 127
6, 228480, Note_on_c, 9, 57, 127
6, 228600, Note_off_c, 9, 49, 127
6, 228600, Note_on_c, 9, 49, 127
6, 228600, Note_off_c, 9, 57, 127
6, 228600, Note_on_c, 9, 57, 127
6, 228720, Note_off_c, 9, 49, 127
6, 228720, Note_on_c, 9, 49, 127
6, 228720, Note_off_c, 9, 57, 127
6, 228720, Note_on_c, 9, 57, 127
6, 228840, Note_off_c, 9, 49, 127
6, 228840, Note_on_c, 9, 49, 127
6, 228840, Note_off_c, 9, 57, 127
6, 228840, Note_on_c, 9, 57, 127
6, 228960, Note_off_c, 9, 49, 127
6, 228960, Note_on_c, 9, 49, 127
6, 228960, Note_off_c, 9, 57, 127
6, 228960, Note_on_c, 9, 57, 127
6, 229080, Note_off_c, 9, 49, 127
6, 229080, Note_on_c, 9, 49, 127
6, 229080, Note_off_c, 9, 57, 127
6, 229080, Note_on_c, 9, 57, 127
6, 229200, Note_off_c, 9, 49, 127
6, 229200, Note_on_c, 9, 49, 127
6, 229200, Note_off_c, 9, 57, 127
6, 229200, Note_on_c, 9, 57, 127
6, 229320, Note_off_c, 9, 49, 127
6, 229320, Note_on_c, 9, 49, 127
6, 229320, Note_off_c, 9, 57, 127
6, 229320, Note_on_c, 9, 57, 127
6, 229440, Note_off_c, 9, 49, 127
6, 229440, Note_on_c, 9, 49, 127
6, 229440, Note_off_c, 9, 57, 127
6, 229440, Note_on_c, 9, 57, 127
6, 229560, Note_off_c, 9, 49, 127
6, 229560, Note_on_c, 9, 49, 127
6, 229560, Note_off_c, 9, 57, 127
6, 229560, Note_on_c, 9, 57, 127
6, 229680, Note_off_c, 9, 49, 127
6, 229680, Note_on_c, 9, 49, 127
6, 229680, Note_off_c, 9, 57, 127
6, 229680, Note_on_c, 9, 57, 127
6, 229800, Note_off_c, 9, 49, 127
6, 229800, Note_on_c, 9, 49, 127
6, 229800, Note_off_c, 9, 57, 127
6, 229800, Note_on_c, 9, 57, 127
6, 229920, Note_off_c, 9, 49, 127
6, 229920, Note_on_c, 9, 49, 127
6, 229920, Note_off_c, 9, 57, 127
6, 229920, Note_on_c, 9, 57, 127
6, 230040, Note_off_c, 9, 49, 127
6, 230040, Note_on_c, 9, 49, 127
6, 230040, Note_off_c, 9, 57, 127
6, 230040, Note_on_c, 9, 57, 127
6, 230160, Note_off_c, 9, 49, 127
6, 230160, Note_on_c, 9, 49, 127
6, 230160, Note_off_c, 9, 57, 127
6, 230160, Note_on_c, 9, 57, 127
6, 230280, Note_off_c, 9, 49, 127
6, 230280, Note_on_c, 9, 49, 127
6, 230280, Note_off_c, 9, 57, 127
6, 230280, Note_on_c, 9, 57, 127
6, 230399, Note_off_c, 9, 49, 127
6, 230399, Note_off_c, 9, 57, 127
6, 230400, Note_on_c, 9, 49, 127
6, 230400, Note_on_c, 9, 57, 127
6, 234240, Note_off_c, 9, 49, 127
6, 234240, Note_off_c, 9, 57, 127
6, 241680, Note_on_c, 9, 51, 127
6, 241800, Note_off_c, 9, 51, 127
6, 241800, Note_on_c, 9, 53, 127
6, 241920, Note_off_c, 9, 53, 127
6, 241920, Note_on_c, 9, 51, 127
6, 242160, Note_off_c, 9, 51, 127
6, 242160, Note_on_c, 9, 53, 127
6, 242400, Note_off_c, 9, 53, 127
6, 242400, Note_on_c, 9, 51, 127
6, 242640, Note_off_c, 9, 51, 127
6, 242640, Note_on_c, 9, 53, 127
6, 242880, Note_off_c, 9, 53, 127
6, 242880, Note_on_c, 9, 51, 127
6, 243360, Note_off_c, 9, 51, 127
6, 243360, Note_on_c, 9, 51, 127
6, 243840, Note_off_c, 9, 51, 127
6, 244080, Note_on_c, 9, 53, 127
6, 244080, Note_on_c, 9, 38, 127
6, 244560, Note_off_c, 9, 53, 127
6, 244560, Note_off_c, 9, 38, 127
6, 244560, Note_on_c, 9, 47, 127
6, 244800, Note_off_c, 9, 47, 127
6, 245040, Note_on_c, 9, 51, 127
6, 245040, Note_on_c, 9, 45, 127
6, 245040, Note_on_c, 9, 43, 127
6, 245280, Note_off_c, 9, 51, 127
6, 245280, Note_off_c, 9, 45, 127
6, 245280, Note_off_c, 9, 43, 127
6, 245280, Note_on_c, 9, 49, 127
6, 245280, Note_on_c, 9, 43, 127
6, 245520, Note_off_c, 9, 49, 127
6, 245520, Note_off_c, 9, 43, 127
6, 245520, Note_on_c, 9, 49, 127
6, 245520, Note_on_c, 9, 41, 127
6, 245760, Note_off_c, 9, 49, 127
6, 245760, Note_off_c, 9, 41, 127
6, 245760, Note_on_c, 9, 51, 127
6, 245760, Note_on_c, 9, 49, 127
6, 245760, Note_on_c, 9, 35, 127
6, 246000, Note_off_c, 9, 51, 127
6, 246000, Note_off_c, 9, 49, 127
6, 246000, Note_off_c, 9, 35, 127
6, 246000, Note_on_c, 9, 51, 127
6, 246000, Note_on_c, 9, 49, 127
6, 246000, Note_on_c, 9, 35, 127
6, 246480, Note_off_c, 9, 51, 127
6, 246480, Note_off_c, 9, 49, 127
6, 246480, Note_off_c, 9, 35, 127
6, 246480, Note_on_c, 9, 51, 127
6, 246960, Note_off_c, 9, 51, 127
6, 246960, Note_on_c, 9, 51, 127
6, 247440, Note_off_c, 9, 51, 127
6, 247440, Note_on_c, 9, 51, 127
6, 247680, Note_off_c, 9, 51, 127
6, 247680, Note_on_c, 9, 51, 127
6, 247680, Note_on_c, 9, 38, 127
6, 248160, Note_off_c, 9, 51, 127
6, 248160, Note_off_c, 9, 38, 127
6, 248160, Note_on_c, 9, 51, 127
6, 248640, Note_off_c, 9, 51, 127
6, 248640, Note_on_c, 9, 51, 127
6, 248880, Note_off_c, 9, 51, 127
6, 248880, Note_on_c, 9, 35, 127
6, 249120, Note_off_c, 9, 35, 127
6, 249120, Note_on_c, 9, 51, 127
6, 249360, Note_off_c, 9, 51, 127
6, 249360, Note_on_c, 9, 35, 127
6, 249600, Note_off_c, 9, 35, 127
6, 249600, Note_on_c, 9, 51, 127
6, 249600, Note_on_c, 9, 35, 127
6, 249840, Note_off_c, 9, 51, 127
6, 249840, Note_off_c, 9, 35, 127
6, 249840, Note_on_c, 9, 35, 127
6, 250080, Note_off_c, 9, 35, 127
6, 250080, Note_on_c, 9, 51, 127
6, 250560, Note_off_c, 9, 51, 127
6, 250560, Note_on_c, 9, 51, 127
6, 251040, Note_off_c, 9, 51, 127
6, 251040, Note_on_c, 9, 51, 127
6, 251520, Note_off_c, 9, 51, 127
6, 251520, Note_on_c, 9, 51, 127
6, 251520, Note_on_c, 9, 38, 127
6, 252000, Note_off_c, 9, 51, 127
6, 252000, Note_off_c, 9, 38, 127
6, 252000, Note_on_c, 9, 51, 127
6, 252480, Note_off_c, 9, 51, 127
6, 252480, Note_on_c, 9, 51, 127
6, 252720, Note_off_c, 9, 51, 127
6, 252720, Note_on_c, 9, 38, 127
6, 252960, Note_off_c, 9, 38, 127
6, 252960, Note_on_c, 9, 51, 127
6, 253200, Note_off_c, 9, 51, 127
6, 253200, Note_on_c, 9, 35, 127
6, 253440, Note_off_c, 9, 35, 127
6, 253440, Note_on_c, 9, 53, 127
6, 253440, Note_on_c, 9, 35, 127
6, 253920, Note_off_c, 9, 53, 127
6, 253920, Note_off_c, 9, 35, 127
6, 253920, Note_on_c, 9, 53, 127
6, 254400, Note_off_c, 9, 53, 127
6, 254400, Note_on_c, 9, 53, 127
6, 254880, Note_off_c, 9, 53, 127
6, 254880, Note_on_c, 9, 53, 127
6, 255120, Note_off_c, 9, 53, 127
6, 255120, Note_on_c, 9, 35, 127
6, 255360, Note_off_c, 9, 35, 127
6, 255360, Note_on_c, 9, 53, 127
6, 255360, Note_on_c, 9, 38, 127
6, 255840, Note_off_c, 9, 53, 127
6, 255840, Note_off_c, 9, 38, 127
6, 255840, Note_on_c, 9, 53, 127
6, 256320, Note_off_c, 9, 53, 127
6, 256320, Note_on_c, 9, 53, 127
6, 256560, Note_off_c, 9, 53, 127
6, 256560, Note_on_c, 9, 51, 127
6, 256800, Note_off_c, 9, 51, 127
6, 256800, Note_on_c, 9, 53, 127
6, 257040, Note_off_c, 9, 53, 127
6, 257040, Note_on_c, 9, 51, 127
6, 257280, Note_off_c, 9, 51, 127
6, 257280, Note_on_c, 9, 51, 127
6, 257280, Note_on_c, 9, 35, 127
6, 257520, Note_off_c, 9, 51, 127
6, 257520, Note_off_c, 9, 35, 127
6, 257520, Note_on_c, 9, 51, 127
6, 257760, Note_off_c, 9, 51, 127
6, 257760, Note_on_c, 9, 53, 127
6, 258000, Note_off_c, 9, 53, 127
6, 258000, Note_on_c, 9, 35, 127
6, 258240, Note_off_c, 9, 35, 127
6, 258240, Note_on_c, 9, 51, 127
6, 258480, Note_off_c, 9, 51, 127
6, 258480, Note_on_c, 9, 51, 127
6, 258720, Note_off_c, 9, 51, 127
6, 258720, Note_on_c, 9, 51, 127
6, 258720, Note_on_c, 9, 35, 127
6, 259200, Note_off_c, 9, 51, 127
6, 259200, Note_off_c, 9, 35, 127
6, 259200, Note_on_c, 9, 51, 127
6, 259440, Note_off_c, 9, 51, 127
6, 259440, Note_on_c, 9, 38, 127
6, 259680, Note_off_c, 9, 38, 127
6, 259680, Note_on_c, 9, 51, 127
6, 259920, Note_off_c, 9, 51, 127
6, 259920, Note_on_c, 9, 47, 127
6, 260160, Note_off_c, 9, 47, 127
6, 260160, Note_on_c, 9, 51, 127
6, 260400, Note_off_c, 9, 51, 127
6, 260400, Note_on_c, 9, 45, 127
6, 260400, Note_on_c, 9, 43, 127
6, 260640, Note_off_c, 9, 45, 127
6, 260640, Note_off_c, 9, 43, 127
6, 260640, Note_on_c, 9, 51, 127
6, 260880, Note_off_c, 9, 51, 127
6, 260880, Note_on_c, 9, 41, 127
6, 261120, Note_off_c, 9, 41, 127
6, 261120, Note_on_c, 9, 59, 127
6, 261120, Note_on_c, 9, 57, 127
6, 261120, Note_on_c, 9, 35, 127
6, 261360, Note_off_c, 9, 59, 127
6, 261360, Note_off_c, 9, 57, 127
6, 261360, Note_off_c, 9, 35, 127
6, 261360, Note_on_c, 9, 59, 127
6, 261360, Note_on_c, 9, 57, 127
6, 261360, Note_on_c, 9, 35, 127
6, 261840, Note_off_c, 9, 59, 127
6, 261840, Note_off_c, 9, 57, 127
6, 261840, Note_off_c, 9, 35, 127
6, 261840, Note_on_c, 9, 59, 127
6, 262320, Note_off_c, 9, 59, 127
6, 262320, Note_on_c, 9, 59, 127
6, 262800, Note_off_c, 9, 59, 127
6, 262800, Note_on_c, 9, 59, 127
6, 263040, Note_off_c, 9, 59, 127
6, 263040, Note_on_c, 9, 59, 127
6, 263040, Note_on_c, 9, 38, 127
6, 263520, Note_off_c, 9, 59, 127
6, 263520, Note_off_c, 9, 38, 127
6, 263520, Note_on_c, 9, 59, 127
6, 264000, Note_off_c, 9, 59, 127
6, 264000, Note_on_c, 9, 59, 127
6, 264240, Note_off_c, 9, 59, 127
6, 264240, Note_on_c, 9, 35, 127
6, 264480, Note_off_c, 9, 35, 127
6, 264480, Note_on_c, 9, 59, 127
6, 264720, Note_off_c, 9, 59, 127
6, 264720, Note_on_c, 9, 35, 127
6, 264960, Note_off_c, 9, 35, 127
6, 264960, Note_on_c, 9, 59, 127
6, 264960, Note_on_c, 9, 35, 127
6, 265200, Note_off_c, 9, 59, 127
6, 265200, Note_off_c, 9, 35, 127
6, 265200, Note_on_c, 9, 59, 127
6, 265440, Note_off_c, 9, 59, 127
6, 265440, Note_on_c, 9, 59, 127
6, 265920, Note_off_c, 9, 59, 127
6, 265920, Note_on_c, 9, 59, 127
6, 266400, Note_off_c, 9, 59, 127
6, 266400, Note_on_c, 9, 59, 127
6, 266640, Note_off_c, 9, 59, 127
6, 266640, Note_on_c, 9, 35, 127
6, 266880, Note_off_c, 9, 35, 127
6, 266880, Note_on_c, 9, 59, 127
6, 266880, Note_on_c, 9, 38, 127
6, 267360, Note_off_c, 9, 59, 127
6, 267360, Note_off_c, 9, 38, 127
6, 267360, Note_on_c, 9, 59, 127
6, 267840, Note_off_c, 9, 59, 127
6, 267840, Note_on_c, 9, 59, 127
6, 268080, Note_off_c, 9, 59, 127
6, 268080, Note_on_c, 9, 43, 127
6, 268320, Note_off_c, 9, 43, 127
6, 268320, Note_on_c, 9, 59, 127
6, 268560, Note_off_c, 9, 59, 127
6, 268560, Note_on_c, 9, 41, 127
6, 268800, Note_off_c, 9, 41, 127
6, 268800, Note_on_c, 9, 59, 127
6, 268800, Note_on_c, 9, 57, 127
6, 268800, Note_on_c, 9, 35, 127
6, 269280, Note_off_c, 9, 59, 127
6, 269280, Note_off_c, 9, 57, 127
6, 269280, Note_off_c, 9, 35, 127
6, 269280, Note_on_c, 9, 59, 127
6, 269760, Note_off_c, 9, 59, 127
6, 269760, Note_on_c, 9, 59, 127
6, 270240, Note_off_c, 9, 59, 127
6, 270240, Note_on_c, 9, 59, 127
6, 270480, Note_off_c, 9, 59, 127
6, 270480, Note_on_c, 9, 35, 127
6, 270720, Note_off_c, 9, 35, 127
6, 270720, Note_on_c, 9, 59, 127
6, 270720, Note_on_c, 9, 38, 127
6, 271200, Note_off_c, 9, 59, 127
6, 271200, Note_off_c, 9, 38, 127
6, 271200, Note_on_c, 9, 59, 127
6, 271680, Note_off_c, 9, 59, 127
6, 271680, Note_on_c, 9, 59, 127
6, 272160, Note_off_c, 9, 59, 127
6, 272160, Note_on_c, 9, 59, 127
6, 272400, Note_off_c, 9, 59, 127
6, 272400, Note_on_c, 9, 35, 127
6, 272640, Note_off_c, 9, 35, 127
6, 272640, Note_on_c, 9, 59, 127
6, 272640, Note_on_c, 9, 38, 127
6, 272880, Note_off_c, 9, 59, 127
6, 272880, Note_off_c, 9, 38, 127
6, 272880, Note_on_c, 9, 59, 127
6, 272880, Note_on_c, 9, 57, 127
6, 272880, Note_on_c, 9, 35, 127
6, 273360, Note_off_c, 9, 59, 127
6, 273360, Note_off_c, 9, 57, 127
6, 273360, Note_off_c, 9, 35, 127
6, 273360, Note_on_c, 9, 59, 127
6, 273360, Note_on_c, 9, 57, 127
6, 273360, Note_on_c, 9, 35, 127
6, 273840, Note_off_c, 9, 59, 127
6, 273840, Note_off_c, 9, 57, 127
6, 273840, Note_off_c, 9, 35, 127
6, 273840, Note_on_c, 9, 38, 127
6, 274080, Note_off_c, 9, 38, 127
6, 274080, Note_on_c, 9, 51, 127
6, 274080, Note_on_c, 9, 49, 127
6, 274320, Note_off_c, 9, 51, 127
6, 274320, Note_off_c, 9, 49, 127
6, 274320, Note_on_c, 9, 48, 127
6, 274320, Note_on_c, 9, 47, 127
6, 274560, Note_off_c, 9, 48, 127
6, 274560, Note_off_c, 9, 47, 127
6, 274560, Note_on_c, 9, 51, 127
6, 274800, Note_off_c, 9, 51, 127
6, 274800, Note_on_c, 9, 48, 127
6, 274800, Note_on_c, 9, 47, 127
6, 275040, Note_off_c, 9, 48, 127
6, 275040, Note_off_c, 9, 47, 127
6, 275040, Note_on_c, 9, 50, 127
6, 275040, Note_on_c, 9, 48, 127
6, 275280, Note_off_c, 9, 50, 127
6, 275280, Note_off_c, 9, 48, 127
6, 275280, Note_on_c, 9, 47, 127
6, 275280, Note_on_c, 9, 45, 127
6, 275520, Note_off_c, 9, 47, 127
6, 275520, Note_off_c, 9, 45, 127
6, 275520, Note_on_c, 9, 38, 127
6, 275640, Note_off_c, 9, 38, 127
6, 275640, Note_on_c, 9, 38, 127
6, 275760, Note_off_c, 9, 38, 127
6, 275760, Note_on_c, 9, 41, 127
6, 275760, Note_on_c, 9, 38, 127
6, 276000, Note_off_c, 9, 41, 127
6, 276000, Note_off_c, 9, 38, 127
6, 276000, Note_on_c, 9, 47, 127
6, 276240, Note_off_c, 9, 47, 127
6, 276240, Note_on_c, 9, 38, 127
6, 276480, Note_off_c, 9, 38, 127
6, 276480, Note_on_c, 9, 51, 127
6, 276480, Note_on_c, 9, 49, 127
6, 276480, Note_on_c, 9, 35, 127
6, 276720, Note_off_c, 9, 51, 127
6, 276720, Note_off_c, 9, 49, 127
6, 276720, Note_off_c, 9, 35, 127
6, 276720, Note_on_c, 9, 51, 127
6, 276720, Note_on_c, 9, 49, 127
6, 276720, Note_on_c, 9, 35, 127
6, 277200, Note_off_c, 9, 51, 127
6, 277200, Note_off_c, 9, 49, 127
6, 277200, Note_off_c, 9, 35, 127
6, 277200, Note_on_c, 9, 51, 127
6, 277200, Note_on_c, 9, 35, 127
6, 277440, Note_off_c, 9, 51, 127
6, 277440, Note_off_c, 9, 35, 127
6, 277440, Note_on_c, 9, 51, 127
6, 277440, Note_on_c, 9, 38, 127
6, 277680, Note_off_c, 9, 51, 127
6, 277680, Note_off_c, 9, 38, 127
6, 277680, Note_on_c, 9, 51, 127
6, 277920, Note_off_c, 9, 51, 127
6, 277920, Note_on_c, 9, 51, 127
6, 278160, Note_off_c, 9, 51, 127
6, 278160, Note_on_c, 9, 51, 127
6, 278160, Note_on_c, 9, 35, 127
6, 278640, Note_off_c, 9, 51, 127
6, 278640, Note_off_c, 9, 35, 127
6, 278640, Note_on_c, 9, 51, 127
6, 278880, Note_off_c, 9, 51, 127
6, 278880, Note_on_c, 9, 51, 127
6, 278880, Note_on_c, 9, 35, 127
6, 279360, Note_off_c, 9, 51, 127
6, 279360, Note_off_c, 9, 35, 127
6, 279360, Note_on_c, 9, 51, 127
6, 279360, Note_on_c, 9, 38, 127
6, 279600, Note_off_c, 9, 51, 127
6, 279600, Note_off_c, 9, 38, 127
6, 279600, Note_on_c, 9, 51, 127
6, 279840, Note_off_c, 9, 51, 127
6, 279840, Note_on_c, 9, 51, 127
6, 280080, Note_off_c, 9, 51, 127
6, 280080, Note_on_c, 9, 51, 127
6, 280320, Note_off_c, 9, 51, 127
6, 280320, Note_on_c, 9, 51, 127
6, 280320, Note_on_c, 9, 35, 127
6, 280560, Note_off_c, 9, 51, 127
6, 280560, Note_off_c, 9, 35, 127
6, 280560, Note_on_c, 9, 51, 127
6, 280560, Note_on_c, 9, 35, 127
6, 281040, Note_off_c, 9, 51, 127
6, 281040, Note_off_c, 9, 35, 127
6, 281040, Note_on_c, 9, 51, 127
6, 281040, Note_on_c, 9, 35, 127
6, 281280, Note_off_c, 9, 51, 127
6, 281280, Note_off_c, 9, 35, 127
6, 281280, Note_on_c, 9, 51, 127
6, 281520, Note_off_c, 9, 51, 127
6, 281520, Note_on_c, 9, 51, 127
6, 281760, Note_off_c, 9, 51, 127
6, 281760, Note_on_c, 9, 51, 127
6, 281760, Note_on_c, 9, 38, 127
6, 282000, Note_off_c, 9, 51, 127
6, 282000, Note_off_c, 9, 38, 127
6, 282000, Note_on_c, 9, 51, 127
6, 282240, Note_off_c, 9, 51, 127
6, 282240, Note_on_c, 9, 51, 127
6, 282240, Note_on_c, 9, 35, 127
6, 282480, Note_off_c, 9, 51, 127
6, 282480, Note_off_c, 9, 35, 127
6, 282480, Note_on_c, 9, 51, 127
6, 282720, Note_off_c, 9, 51, 127
6, 282720, Note_on_c, 9, 51, 127
6, 282720, Note_on_c, 9, 38, 127
6, 282960, Note_off_c, 9, 51, 127
6, 282960, Note_off_c, 9, 38, 127
6, 282960, Note_on_c, 9, 48, 127
6, 282960, Note_on_c, 9, 47, 127
6, 283080, Note_off_c, 9, 48, 127
6, 283080, Note_off_c, 9, 47, 127
6, 283080, Note_on_c, 9, 48, 127
6, 283200, Note_off_c, 9, 48, 127
6, 283200, Note_on_c, 9, 47, 127
6, 283200, Note_on_c, 9, 45, 127
6, 283440, Note_off_c, 9, 47, 127
6, 283440, Note_off_c, 9, 45, 127
6, 283440, Note_on_c, 9, 47, 127
6, 283440, Note_on_c, 9, 43, 127
6, 283680, Note_off_c, 9, 47, 127
6, 283680, Note_off_c, 9, 43, 127
6, 283680, Note_on_c, 9, 43, 127
6, 283680, Note_on_c, 9, 41, 127
6, 283920, Note_off_c, 9, 43, 127
6, 283920, Note_off_c, 9, 41, 127
6, 283920, Note_on_c, 9, 41, 127
6, 284160, Note_off_c, 9, 41, 127
6, 284160, Note_on_c, 9, 59, 127
6, 284160, Note_on_c, 9, 57, 127
6, 284160, Note_on_c, 9, 35, 127
6, 284640, Note_off_c, 9, 59, 127
6, 284640, Note_off_c, 9, 57, 127
6, 284640, Note_off_c, 9, 35, 127
6, 284640, Note_on_c, 9, 59, 127
6, 284880, Note_off_c, 9, 59, 127
6, 284880, Note_on_c, 9, 35, 127
6, 285120, Note_off_c, 9, 35, 127
6, 285120, Note_on_c, 9, 53, 127
6, 285120, Note_on_c, 9, 38, 127
6, 285360, Note_off_c, 9, 53, 127
6, 285360, Note_off_c, 9, 38, 127
6, 285360, Note_on_c, 9, 53, 127
6, 285600, Note_off_c, 9, 53, 127
6, 285600, Note_on_c, 9, 59, 127
6, 285840, Note_off_c, 9, 59, 127
6, 285840, Note_on_c, 9, 35, 127
6, 286080, Note_off_c, 9, 35, 127
6, 286080, Note_on_c, 9, 53, 127
6, 286080, Note_on_c, 9, 35, 127
6, 286320, Note_off_c, 9, 53, 127
6, 286320, Note_off_c, 9, 35, 127
6, 286320, Note_on_c, 9, 53, 127
6, 286560, Note_off_c, 9, 53, 127
6, 286560, Note_on_c, 9, 59, 127
6, 286800, Note_off_c, 9, 59, 127
6, 286800, Note_on_c, 9, 35, 127
6, 287040, Note_off_c, 9, 35, 127
6, 287040, Note_on_c, 9, 53, 127
6, 287040, Note_on_c, 9, 38, 127
6, 287280, Note_off_c, 9, 53, 127
6, 287280, Note_off_c, 9, 38, 127
6, 287280, Note_on_c, 9, 53, 127
6, 287520, Note_off_c, 9, 53, 127
6, 287520, Note_on_c, 9, 59, 127
6, 287760, Note_off_c, 9, 59, 127
6, 287760, Note_on_c, 9, 35, 127
6, 288000, Note_off_c, 9, 35, 127
6, 288000, Note_on_c, 9, 53, 127
6, 288000, Note_on_c, 9, 38, 127
6, 288240, Note_off_c, 9, 53, 127
6, 288240, Note_off_c, 9, 38, 127
6, 288240, Note_on_c, 9, 59, 127
6, 288240, Note_on_c, 9, 57, 127
6, 288240, Note_on_c, 9, 35, 127
6, 288720, Note_off_c, 9, 59, 127
6, 288720, Note_off_c, 9, 57, 127
6, 288720, Note_off_c, 9, 35, 127
6, 288720, Note_on_c, 9, 59, 127
6, 288720, Note_on_c, 9, 57, 127
6, 288720, Note_on_c, 9, 35, 127
6, 289200, Note_off_c, 9, 59, 127
6, 289200, Note_off_c, 9, 57, 127
6, 289200, Note_off_c, 9, 35, 127
6, 289200, Note_on_c, 9, 38, 127
6, 289440, Note_off_c, 9, 38, 127
6, 289440, Note_on_c, 9, 53, 127
6, 289680, Note_off_c, 9, 53, 127
6, 289680, Note_on_c, 9, 48, 127
6, 289920, Note_off_c, 9, 48, 127
6, 289920, Note_on_c, 9, 48, 127
6, 290080, Note_off_c, 9, 48, 127
6, 290080, Note_on_c, 9, 41, 127
6, 290080, Note_on_c, 9, 38, 127
6, 290240, Note_off_c, 9, 41, 127
6, 290240, Note_off_c, 9, 38, 127
6, 290240, Note_on_c, 9, 41, 127
6, 290400, Note_off_c, 9, 41, 127
6, 290400, Note_on_c, 9, 38, 127
6, 290640, Note_off_c, 9, 38, 127
6, 290640, Note_on_c, 9, 38, 127
6, 290760, Note_off_c, 9, 38, 127
6, 290760, Note_on_c, 9, 38, 127
6, 290880, Note_off_c, 9, 38, 127
6, 290880, Note_on_c, 9, 51, 127
6, 290880, Note_on_c, 9, 49, 127
6, 290880, Note_on_c, 9, 38, 127
6, 291200, Note_off_c, 9, 51, 127
6, 291200, Note_off_c, 9, 49, 127
6, 291200, Note_off_c, 9, 38, 127
6, 291200, Note_on_c, 9, 51, 127
6, 291200, Note_on_c, 9, 49, 127
6, 291200, Note_on_c, 9, 35, 127
6, 291520, Note_off_c, 9, 51, 127
6, 291520, Note_off_c, 9, 49, 127
6, 291520, Note_off_c, 9, 35, 127
6, 291520, Note_on_c, 9, 51, 127
6, 291520, Note_on_c, 9, 49, 127
6, 291520, Note_on_c, 9, 35, 127
6, 291840, Note_off_c, 9, 51, 127
6, 291840, Note_off_c, 9, 49, 127
6, 291840, Note_off_c, 9, 35, 127
6, 291840, Note_on_c, 9, 51, 127
6, 291840, Note_on_c, 9, 35, 127
6, 292320, Note_off_c, 9, 51, 127
6, 292320, Note_off_c, 9, 35, 127
6, 292320, Note_on_c, 9, 51, 127
6, 292560, Note_off_c, 9, 51, 127
6, 292560, Note_on_c, 9, 35, 127
6, 292800, Note_off_c, 9, 35, 127
6, 292800, Note_on_c, 9, 51, 127
6, 292800, Note_on_c, 9, 38, 127
6, 293280, Note_off_c, 9, 51, 127
6, 293280, Note_off_c, 9, 38, 127
6, 293280, Note_on_c, 9, 51, 127
6, 293520, Note_off_c, 9, 51, 127
6, 293520, Note_on_c, 9, 38, 127
6, 293760, Note_off_c, 9, 38, 127
6, 293760, Note_on_c, 9, 51, 127
6, 293920, Note_off_c, 9, 51, 127
6, 293920, Note_on_c, 9, 48, 127
6, 294080, Note_off_c, 9, 48, 127
6, 294080, Note_on_c, 9, 50, 127
6, 294240, Note_off_c, 9, 50, 127
6, 294240, Note_on_c, 9, 47, 127
6, 294400, Note_off_c, 9, 47, 127
6, 294400, Note_on_c, 9, 48, 127
6, 294400, Note_on_c, 9, 47, 127
6, 294560, Note_off_c, 9, 48, 127
6, 294560, Note_off_c, 9, 47, 127
6, 294560, Note_on_c, 9, 43, 127
6, 294720, Note_off_c, 9, 43, 127
6, 294720, Note_on_c, 9, 43, 127
6, 294720, Note_on_c, 9, 41, 127
6, 295040, Note_off_c, 9, 43, 127
6, 295040, Note_off_c, 9, 41, 127
6, 295040, Note_on_c, 9, 38, 127
6, 295360, Note_off_c, 9, 38, 127
6, 295360, Note_on_c, 9, 38, 127
6, 295680, Note_off_c, 9, 38, 127
6, 295680, Note_on_c, 9, 51, 127
6, 295680, Note_on_c, 9, 49, 127
6, 295680, Note_on_c, 9, 35, 127
6, 295920, Note_off_c, 9, 51, 127
6, 295920, Note_off_c, 9, 49, 127
6, 295920, Note_off_c, 9, 35, 127
6, 295920, Note_on_c, 9, 51, 127
6, 295920, Note_on_c, 9, 49, 127
6, 295920, Note_on_c, 9, 35, 127
6, 296400, Note_off_c, 9, 51, 127
6, 296400, Note_off_c, 9, 49, 127
6, 296400, Note_off_c, 9, 35, 127
6, 296400, Note_on_c, 9, 51, 127
6, 296640, Note_off_c, 9, 51, 127
6, 296640, Note_on_c, 9, 51, 127
6, 296640, Note_on_c, 9, 35, 127
6, 297120, Note_off_c, 9, 51, 127
6, 297120, Note_off_c, 9, 35, 127
6, 297120, Note_on_c, 9, 51, 127
6, 297120, Note_on_c, 9, 38, 127
6, 297360, Note_off_c, 9, 51, 127
6, 297360, Note_off_c, 9, 38, 127
6, 297360, Note_on_c, 9, 51, 127
6, 297600, Note_off_c, 9, 51, 127
6, 297600, Note_on_c, 9, 51, 127
6, 297600, Note_on_c, 9, 49, 127
6, 297600, Note_on_c, 9, 35, 127
6, 297840, Note_off_c, 9, 51, 127
6, 297840, Note_off_c, 9, 49, 127
6, 297840, Note_off_c, 9, 35, 127
6, 297840, Note_on_c, 9, 38, 127
6, 298080, Note_off_c, 9, 38, 127
6, 298080, Note_on_c, 9, 51, 127
6, 298320, Note_off_c, 9, 51, 127
6, 298320, Note_on_c, 9, 48, 127
6, 298320, Note_on_c, 9, 47, 127
6, 298560, Note_off_c, 9, 48, 127
6, 298560, Note_off_c, 9, 47, 127
6, 298560, Note_on_c, 9, 51, 127
6, 298560, Note_on_c, 9, 48, 127
6, 298920, Note_off_c, 9, 51, 127
6, 298920, Note_off_c, 9, 48, 127
6, 298920, Note_on_c, 9, 45, 127
6, 298920, Note_on_c, 9, 43, 127
6, 299040, Note_off_c, 9, 45, 127
6, 299040, Note_off_c, 9, 43, 127
6, 299040, Note_on_c, 9, 51, 127
6, 299040, Note_on_c, 9, 47, 127
6, 299040, Note_on_c, 9, 45, 127
6, 299160, Note_off_c, 9, 51, 127
6, 299160, Note_off_c, 9, 47, 127
6, 299160, Note_off_c, 9, 45, 127
6, 299160, Note_on_c, 9, 43, 127
6, 299160, Note_on_c, 9, 41, 127
6, 299280, Note_off_c, 9, 43, 127
6, 299280, Note_off_c, 9, 41, 127
6, 299280, Note_on_c, 9, 43, 127
6, 299400, Note_off_c, 9, 43, 127
6, 299400, Note_on_c, 9, 41, 127
6, 299400, Note_on_c, 9, 38, 127
6, 299520, Note_off_c, 9, 41, 127
6, 299520, Note_off_c, 9, 38, 127
6, 299520, Note_on_c, 9, 59, 127
6, 299520, Note_on_c, 9, 57, 127
6, 299520, Note_on_c, 9, 35, 127
6, 300000, Note_off_c, 9, 59, 127
6, 300000, Note_off_c, 9, 57, 127
6, 300000, Note_off_c, 9, 35, 127
6, 300000, Note_on_c, 9, 59, 127
6, 300240, Note_off_c, 9, 59, 127
6, 300240, Note_on_c, 9, 35, 127
6, 300480, Note_off_c, 9, 35, 127
6, 300480, Note_on_c, 9, 59, 127
6, 300480, Note_on_c, 9, 38, 127
6, 300720, Note_off_c, 9, 59, 127
6, 300720, Note_off_c, 9, 38, 127
6, 300720, Note_on_c, 9, 59, 127
6, 300960, Note_off_c, 9, 59, 127
6, 300960, Note_on_c, 9, 53, 127
6, 301200, Note_off_c, 9, 53, 127
6, 301200, Note_on_c, 9, 35, 127
6, 301440, Note_off_c, 9, 35, 127
6, 301440, Note_on_c, 9, 53, 127
6, 301440, Note_on_c, 9, 35, 127
6, 301680, Note_off_c, 9, 53, 127
6, 301680, Note_off_c, 9, 35, 127
6, 301680, Note_on_c, 9, 53, 127
6, 301920, Note_off_c, 9, 53, 127
6, 301920, Note_on_c, 9, 59, 127
6, 302160, Note_off_c, 9, 59, 127
6, 302160, Note_on_c, 9, 35, 127
6, 302400, Note_off_c, 9, 35, 127
6, 302400, Note_on_c, 9, 53, 127
6, 302400, Note_on_c, 9, 38, 127
6, 302640, Note_off_c, 9, 53, 127
6, 302640, Note_off_c, 9, 38, 127
6, 302640, Note_on_c, 9, 53, 127
6, 302880, Note_off_c, 9, 53, 127
6, 302880, Note_on_c, 9, 59, 127
6, 303120, Note_off_c, 9, 59, 127
6, 303120, Note_on_c, 9, 35, 127
6, 303360, Note_off_c, 9, 35, 127
6, 303360, Note_on_c, 9, 55, 127
6, 303360, Note_on_c, 9, 35, 127
6, 303680, Note_off_c, 9, 55, 127
6, 303680, Note_off_c, 9, 35, 127
6, 303680, Note_on_c, 9, 55, 127
6, 303680, Note_on_c, 9, 35, 127
6, 304000, Note_off_c, 9, 55, 127
6, 304000, Note_off_c, 9, 35, 127
6, 304000, Note_on_c, 9, 59, 127
6, 304000, Note_on_c, 9, 57, 127
6, 304000, Note_on_c, 9, 35, 127
6, 304560, Note_off_c, 9, 59, 127
6, 304560, Note_off_c, 9, 57, 127
6, 304560, Note_off_c, 9, 35, 127
6, 304560, Note_on_c, 9, 35, 127
6, 304800, Note_off_c, 9, 35, 127
6, 304800, Note_on_c, 9, 59, 127
6, 304800, Note_on_c, 9, 57, 127
6, 305040, Note_off_c, 9, 59, 127
6, 305040, Note_off_c, 9, 57, 127
6, 305040, Note_on_c, 9, 50, 127
6, 305040, Note_on_c, 9, 48, 127
6, 305160, Note_off_c, 9, 50, 127
6, 305160, Note_off_c, 9, 48, 127
6, 305160, Note_on_c, 9, 50, 127
6, 305280, Note_off_c, 9, 50, 127
6, 305280, Note_on_c, 9, 48, 127
6, 305280, Note_on_c, 9, 47, 127
6, 305520, Note_off_c, 9, 48, 127
6, 305520, Note_off_c, 9, 47, 127
6, 305520, Note_on_c, 9, 48, 127
6, 305640, Note_off_c, 9, 48, 127
6, 305640, Note_on_c, 9, 38, 127
6, 305760, Note_off_c, 9, 38, 127
6, 305760, Note_on_c, 9, 49, 127
6, 305760, Note_on_c, 9, 38, 127
6, 306000, Note_off_c, 9, 49, 127
6, 306000, Note_off_c, 9, 38, 127
6, 306000, Note_on_c, 9, 38, 127
6, 306120, Note_off_c, 9, 38, 127
6, 306120, Note_on_c, 9, 47, 127
6, 306240, Note_off_c, 9, 47, 127
6, 306240, Note_on_c, 9, 45, 127
6, 306240, Note_on_c, 9, 43, 127
6, 306480, Note_off_c, 9, 45, 127
6, 306480, Note_off_c, 9, 43, 127
6, 306480, Note_on_c, 9, 47, 127
6, 306600, Note_off_c, 9, 47, 127
6, 306600, Note_on_c, 9, 43, 127
6, 306600, Note_on_c, 9, 41, 127
6, 306720, Note_off_c, 9, 43, 127
6, 306720, Note_off_c, 9, 41, 127
6, 306720, Note_on_c, 9, 49, 127
6, 306720, Note_on_c, 9, 38, 127
6, 307080, Note_off_c, 9, 49, 127
6, 307080, Note_off_c, 9, 38, 127
6, 307080, Note_on_c, 9, 41, 127
6, 307080, Note_on_c, 9, 38, 127
6, 307200, Note_off_c, 9, 41, 127
6, 307200, Note_off_c, 9, 38, 127
6, 307200, Note_on_c, 9, 59, 127
6, 307200, Note_on_c, 9, 57, 127
6, 307200, Note_on_c, 9, 35, 127
6, 307440, Note_off_c, 9, 59, 127
6, 307440, Note_off_c, 9, 57, 127
6, 307440, Note_off_c, 9, 35, 127
6, 307440, Note_on_c, 9, 59, 127
6, 307440, Note_on_c, 9, 57, 127
6, 307440, Note_on_c, 9, 35, 127
6, 307920, Note_off_c, 9, 59, 127
6, 307920, Note_off_c, 9, 57, 127
6, 307920, Note_off_c, 9, 35, 127
6, 307920, Note_on_c, 9, 59, 127
6, 307920, Note_on_c, 9, 35, 127
6, 308400, Note_off_c, 9, 59, 127
6, 308400, Note_off_c, 9, 35, 127
6, 308400, Note_on_c, 9, 38, 127
6, 308640, Note_off_c, 9, 38, 127
6, 308640, Note_on_c, 9, 59, 127
6, 308640, Note_on_c, 9, 57, 127
6, 308760, Note_off_c, 9, 59, 127
6, 308760, Note_off_c, 9, 57, 127
6, 308760, Note_on_c, 9, 48, 127
6, 308880, Note_off_c, 9, 48, 127
6, 308880, Note_on_c, 9, 59, 127
6, 308880, Note_on_c, 9, 57, 127
6, 309120, Note_off_c, 9, 59, 127
6, 309120, Note_off_c, 9, 57, 127
6, 309120, Note_on_c, 9, 50, 127
6, 309120, Note_on_c, 9, 48, 127
6, 309280, Note_off_c, 9, 50, 127
6, 309280, Note_off_c, 9, 48, 127
6, 309280, Note_on_c, 9, 50, 127
6, 309280, Note_on_c, 9, 48, 127
6, 309440, Note_off_c, 9, 50, 127
6, 309440, Note_off_c, 9, 48, 127
6, 309440, Note_on_c, 9, 48, 127
6, 309440, Note_on_c, 9, 47, 127
6, 309600, Note_off_c, 9, 48, 127
6, 309600, Note_off_c, 9, 47, 127
6, 309600, Note_on_c, 9, 48, 127
6, 309600, Note_on_c, 9, 47, 127
6, 309760, Note_off_c, 9, 48, 127
6, 309760, Note_off_c, 9, 47, 127
6, 309760, Note_on_c, 9, 43, 127
6, 309920, Note_off_c, 9, 43, 127
6, 309920, Note_on_c, 9, 45, 127
6, 309920, Note_on_c, 9, 43, 127
6, 310080, Note_off_c, 9, 45, 127
6, 310080, Note_off_c, 9, 43, 127
6, 310080, Note_on_c, 9, 38, 127
6, 310240, Note_off_c, 9, 38, 127
6, 310240, Note_on_c, 9, 38, 127
6, 310400, Note_off_c, 9, 38, 127
6, 310400, Note_on_c, 9, 38, 127
6, 310560, Note_off_c, 9, 38, 127
6, 310560, Note_on_c, 9, 47, 127
6, 310720, Note_off_c, 9, 47, 127
6, 310720, Note_on_c, 9, 43, 127
6, 310720, Note_on_c, 9, 41, 127
6, 310880, Note_off_c, 9, 43, 127
6, 310880, Note_off_c, 9, 41, 127
6, 310880, Note_on_c, 9, 43, 127
6, 311040, Note_off_c, 9, 43, 127
6, 311040, Note_on_c, 9, 49, 127
6, 311040, Note_on_c, 9, 35, 127
6, 311280, Note_off_c, 9, 49, 127
6, 311280, Note_off_c, 9, 35, 127
6, 311280, Note_on_c, 9, 51, 127
6, 311280, Note_on_c, 9, 49, 127
6, 311280, Note_on_c, 9, 38, 127
6, 311280, Note_on_c, 9, 35, 127
6, 311760, Note_off_c, 9, 51, 127
6, 311760, Note_off_c, 9, 49, 127
6, 311760, Note_off_c, 9, 38, 127
6, 311760, Note_off_c, 9, 35, 127
6, 311760, Note_on_c, 9, 51, 127
6, 311760, Note_on_c, 9, 35, 127
6, 312240, Note_off_c, 9, 51, 127
6, 312240, Note_off_c, 9, 35, 127
6, 312240, Note_on_c, 9, 38, 127
6, 312480, Note_off_c, 9, 38, 127
6, 312480, Note_on_c, 9, 51, 127
6, 312720, Note_off_c, 9, 51, 127
6, 312720, Note_on_c, 9, 38, 127
6, 312960, Note_off_c, 9, 38, 127
6, 312960, Note_on_c, 9, 51, 127
6, 312960, Note_on_c, 9, 49, 127
6, 312960, Note_on_c, 9, 35, 127
6, 313200, Note_off_c, 9, 51, 127
6, 313200, Note_off_c, 9, 49, 127
6, 313200, Note_off_c, 9, 35, 127
6, 313200, Note_on_c, 9, 41, 127
6, 313200, Note_on_c, 9, 38, 127
6, 313440, Note_off_c, 9, 41, 127
6, 313440, Note_off_c, 9, 38, 127
6, 313440, Note_on_c, 9, 51, 127
6, 313680, Note_off_c, 9, 51, 127
6, 313680, Note_on_c, 9, 48, 127
6, 313680, Note_on_c, 9, 47, 127
6, 313920, Note_off_c, 9, 48, 127
6, 313920, Note_off_c, 9, 47, 127
6, 313920, Note_on_c, 9, 51, 127
6, 313920, Note_on_c, 9, 49, 127
6, 313920, Note_on_c, 9, 47, 127
6, 314160, Note_off_c, 9, 51, 127
6, 314160, Note_off_c, 9, 49, 127
6, 314160, Note_off_c, 9, 47, 127
6, 314160, Note_on_c, 9, 43, 127
6, 314280, Note_off_c, 9, 43, 127
6, 314280, Note_on_c, 9, 45, 127
6, 314400, Note_off_c, 9, 45, 127
6, 314400, Note_on_c, 9, 43, 127
6, 314400, Note_on_c, 9, 41, 127
6, 314640, Note_off_c, 9, 43, 127
6, 314640, Note_off_c, 9, 41, 127
6, 314640, Note_on_c, 9, 51, 127
6, 314640, Note_on_c, 9, 49, 127
6, 314760, Note_off_c, 9, 51, 127
6, 314760, Note_off_c, 9, 49, 127
6, 314760, Note_on_c, 9, 38, 127
6, 314880, Note_off_c, 9, 38, 127
6, 314880, Note_on_c, 9, 57, 127
6, 314880, Note_on_c, 9, 38, 127
6, 314880, Note_on_c, 9, 35, 127
6, 315360, Note_off_c, 9, 57, 127
6, 315360, Note_off_c, 9, 38, 127
6, 315360, Note_off_c, 9, 35, 127
6, 315360, Note_on_c, 9, 59, 127
6, 315600, Note_off_c, 9, 59, 127
6, 315600, Note_on_c, 9, 35, 127
6, 315840, Note_off_c, 9, 35, 127
6, 315840, Note_on_c, 9, 53, 127
6, 315840, Note_on_c, 9, 38, 127
6, 316080, Note_off_c, 9, 53, 127
6, 316080, Note_off_c, 9, 38, 127
6, 316080, Note_on_c, 9, 53, 127
6, 316320, Note_off_c, 9, 53, 127
6, 316320, Note_on_c, 9, 59, 127
6, 316560, Note_off_c, 9, 59, 127
6, 316560, Note_on_c, 9, 35, 127
6, 316800, Note_off_c, 9, 35, 127
6, 316800, Note_on_c, 9, 53, 127
6, 316800, Note_on_c, 9, 35, 127
6, 317040, Note_off_c, 9, 53, 127
6, 317040, Note_off_c, 9, 35, 127
6, 317040, Note_on_c, 9, 53, 127
6, 317280, Note_off_c, 9, 53, 127
6, 317280, Note_on_c, 9, 59, 127
6, 317520, Note_off_c, 9, 59, 127
6, 317520, Note_on_c, 9, 35, 127
6, 317760, Note_off_c, 9, 35, 127
6, 317760, Note_on_c, 9, 53, 127
6, 317760, Note_on_c, 9, 38, 127
6, 318000, Note_off_c, 9, 53, 127
6, 318000, Note_off_c, 9, 38, 127
6, 318000, Note_on_c, 9, 53, 127
6, 318240, Note_off_c, 9, 53, 127
6, 318240, Note_on_c, 9, 59, 127
6, 318480, Note_off_c, 9, 59, 127
6, 318480, Note_on_c, 9, 35, 127
6, 318720, Note_off_c, 9, 35, 127
6, 318720, Note_on_c, 9, 57, 127
6, 318720, Note_on_c, 9, 38, 127
6, 318960, Note_off_c, 9, 57, 127
6, 318960, Note_off_c, 9, 38, 127
6, 318960, Note_on_c, 9, 38, 127
6, 319120, Note_off_c, 9, 38, 127
6, 319120, Note_on_c, 9, 38, 127
6, 319280, Note_off_c, 9, 38, 127
6, 319280, Note_on_c, 9, 38, 127
6, 319440, Note_off_c, 9, 38, 127
6, 319440, Note_on_c, 9, 48, 127
6, 319440, Note_on_c, 9, 47, 127
6, 319440, Note_on_c, 9, 35, 127
6, 319680, Note_off_c, 9, 48, 127
6, 319680, Note_off_c, 9, 47, 127
6, 319680, Note_off_c, 9, 35, 127
6, 319680, Note_on_c, 9, 51, 127
6, 319680, Note_on_c, 9, 49, 127
6, 319680, Note_on_c, 9, 35, 127
6, 319920, Note_off_c, 9, 51, 127
6, 319920, Note_off_c, 9, 49, 127
6, 319920, Note_off_c, 9, 35, 127
6, 319920, Note_on_c, 9, 51, 127
6, 319920, Note_on_c, 9, 49, 127
6, 319920, Note_on_c, 9, 35, 127
6, 320160, Note_off_c, 9, 51, 127
6, 320160, Note_off_c, 9, 49, 127
6, 320160, Note_off_c, 9, 35, 127
6, 320160, Note_on_c, 9, 51, 127
6, 320160, Note_on_c, 9, 49, 127
6, 320160, Note_on_c, 9, 35, 127
6, 320400, Note_off_c, 9, 51, 127
6, 320400, Note_off_c, 9, 49, 127
6, 320400, Note_off_c, 9, 35, 127
6, 320400, Note_on_c, 9, 51, 127
6, 320400, Note_on_c, 9, 49, 127
6, 320400, Note_on_c, 9, 35, 127
6, 320640, Note_off_c, 9, 51, 127
6, 320640, Note_off_c, 9, 49, 127
6, 320640, Note_off_c, 9, 35, 127
6, 320640, Note_on_c, 9, 51, 127
6, 320640, Note_on_c, 9, 49, 127
6, 320640, Note_on_c, 9, 35, 127
6, 320880, Note_off_c, 9, 51, 127
6, 320880, Note_off_c, 9, 49, 127
6, 320880, Note_off_c, 9, 35, 127
6, 320880, Note_on_c, 9, 38, 127
6, 321120, Note_off_c, 9, 38, 127
6, 321120, Note_on_c, 9, 51, 127
6, 321120, Note_on_c, 9, 49, 127
6, 321360, Note_off_c, 9, 51, 127
6, 321360, Note_off_c, 9, 49, 127
6, 321360, Note_on_c, 9, 48, 127
6, 321360, Note_on_c, 9, 47, 127
6, 321600, Note_off_c, 9, 48, 127
6, 321600, Note_off_c, 9, 47, 127
6, 321600, Note_on_c, 9, 47, 127
6, 321720, Note_off_c, 9, 47, 127
6, 321720, Note_on_c, 9, 47, 127
6, 321840, Note_off_c, 9, 47, 127
6, 321840, Note_on_c, 9, 45, 127
6, 321960, Note_off_c, 9, 45, 127
6, 321960, Note_on_c, 9, 45, 127
6, 322080, Note_off_c, 9, 45, 127
6, 322080, Note_on_c, 9, 43, 127
6, 322200, Note_off_c, 9, 43, 127
6, 322200, Note_on_c, 9, 43, 127
6, 322320, Note_off_c, 9, 43, 127
6, 322320, Note_on_c, 9, 41, 127
6, 322440, Note_off_c, 9, 41, 127
6, 322440, Note_on_c, 9, 41, 127
6, 322560, Note_off_c, 9, 41, 127
6, 322560, Note_on_c, 9, 51, 127
6, 322560, Note_on_c, 9, 49, 127
6, 322560, Note_on_c, 9, 35, 127
6, 322800, Note_off_c, 9, 51, 127
6, 322800, Note_off_c, 9, 49, 127
6, 322800, Note_off_c, 9, 35, 127
6, 322800, Note_on_c, 9, 51, 127
6, 322800, Note_on_c, 9, 49, 127
6, 322800, Note_on_c, 9, 35, 127
6, 323280, Note_off_c, 9, 51, 127
6, 323280, Note_off_c, 9, 49, 127
6, 323280, Note_off_c, 9, 35, 127
6, 323280, Note_on_c, 9, 51, 127
6, 323280, Note_on_c, 9, 35, 127
6, 323760, Note_off_c, 9, 51, 127
6, 323760, Note_off_c, 9, 35, 127
6, 323760, Note_on_c, 9, 38, 127
6, 324000, Note_off_c, 9, 38, 127
6, 324000, Note_on_c, 9, 51, 127
6, 324000, Note_on_c, 9, 38, 127
6, 324240, Note_off_c, 9, 51, 127
6, 324240, Note_off_c, 9, 38, 127
6, 324240, Note_on_c, 9, 51, 127
6, 324480, Note_off_c, 9, 51, 127
6, 324480, Note_on_c, 9, 50, 127
6, 324480, Note_on_c, 9, 48, 127
6, 324640, Note_off_c, 9, 50, 127
6, 324640, Note_off_c, 9, 48, 127
6, 324640, Note_on_c, 9, 50, 127
6, 324800, Note_off_c, 9, 50, 127
6, 324800, Note_on_c, 9, 48, 127
6, 324800, Note_on_c, 9, 47, 127
6, 324960, Note_off_c, 9, 48, 127
6, 324960, Note_off_c, 9, 47, 127
6, 324960, Note_on_c, 9, 50, 127
6, 324960, Note_on_c, 9, 48, 127
6, 325120, Note_off_c, 9, 50, 127
6, 325120, Note_off_c, 9, 48, 127
6, 325120, Note_on_c, 9, 47, 127
6, 325120, Note_on_c, 9, 45, 127
6, 325280, Note_off_c, 9, 47, 127
6, 325280, Note_off_c, 9, 45, 127
6, 325280, Note_on_c, 9, 47, 127
6, 325440, Note_off_c, 9, 47, 127
6, 325440, Note_on_c, 9, 43, 127
6, 325440, Note_on_c, 9, 41, 127
6, 325760, Note_off_c, 9, 43, 127
6, 325760, Note_off_c, 9, 41, 127
6, 325760, Note_on_c, 9, 43, 127
6, 325760, Note_on_c, 9, 41, 127
6, 326080, Note_off_c, 9, 43, 127
6, 326080, Note_off_c, 9, 41, 127
6, 326080, Note_on_c, 9, 41, 127
6, 326400, Note_off_c, 9, 41, 127
6, 326400, Note_on_c, 9, 51, 127
6, 326400, Note_on_c, 9, 49, 127
6, 326400, Note_on_c, 9, 35, 127
6, 326640, Note_off_c, 9, 51, 127
6, 326640, Note_off_c, 9, 49, 127
6, 326640, Note_off_c, 9, 35, 127
6, 326640, Note_on_c, 9, 51, 127
6, 326640, Note_on_c, 9, 49, 127
6, 326640, Note_on_c, 9, 35, 127
6, 327120, Note_off_c, 9, 51, 127
6, 327120, Note_off_c, 9, 49, 127
6, 327120, Note_off_c, 9, 35, 127
6, 327120, Note_on_c, 9, 51, 127
6, 327120, Note_on_c, 9, 35, 127
6, 327600, Note_off_c, 9, 51, 127
6, 327600, Note_off_c, 9, 35, 127
6, 327600, Note_on_c, 9, 38, 127
6, 327840, Note_off_c, 9, 38, 127
6, 327840, Note_on_c, 9, 53, 127
6, 328080, Note_off_c, 9, 53, 127
6, 328080, Note_on_c, 9, 35, 127
6, 328320, Note_off_c, 9, 35, 127
6, 328320, Note_on_c, 9, 53, 127
6, 328320, Note_on_c, 9, 52, 127
6, 328320, Note_on_c, 9, 35, 127
6, 328560, Note_off_c, 9, 53, 127
6, 328560, Note_off_c, 9, 52, 127
6, 328560, Note_off_c, 9, 35, 127
6, 328560, Note_on_c, 9, 38, 127
6, 328800, Note_off_c, 9, 38, 127
6, 328800, Note_on_c, 9, 53, 127
6, 328800, Note_on_c, 9, 52, 127
6, 329040, Note_off_c, 9, 53, 127
6, 329040, Note_off_c, 9, 52, 127
6, 329040, Note_on_c, 9, 51, 127
6, 329280, Note_off_c, 9, 51, 127
6, 329280, Note_on_c, 9, 59, 127
6, 329280, Note_on_c, 9, 57, 127
6, 329520, Note_off_c, 9, 59, 127
6, 329520, Note_off_c, 9, 57, 127
6, 329520, Note_on_c, 9, 43, 127
6, 329760, Note_off_c, 9, 43, 127
6, 329760, Note_on_c, 9, 59, 127
6, 329760, Note_on_c, 9, 57, 127
6, 330000, Note_off_c, 9, 59, 127
6, 330000, Note_off_c, 9, 57, 127
6, 330000, Note_on_c, 9, 41, 127
6, 330000, Note_on_c, 9, 38, 127
6, 330240, Note_off_c, 9, 41, 127
6, 330240, Note_off_c, 9, 38, 127
6, 330240, Note_on_c, 9, 59, 127
6, 330240, Note_on_c, 9, 57, 127
6, 330240, Note_on_c, 9, 35, 127
6, 330720, Note_off_c, 9, 59, 127
6, 330720, Note_off_c, 9, 57, 127
6, 330720, Note_off_c, 9, 35, 127
6, 330720, Note_on_c, 9, 59, 127
6, 330960, Note_off_c, 9, 59, 127
6, 330960, Note_on_c, 9, 35, 127
6, 331200, Note_off_c, 9, 35, 127
6, 331200, Note_on_c, 9, 59, 127
6, 331200, Note_on_c, 9, 38, 127
6, 331680, Note_off_c, 9, 59, 127
6, 331680, Note_off_c, 9, 38, 127
6, 331680, Note_on_c, 9, 59, 127
6, 331920, Note_off_c, 9, 59, 127
6, 331920, Note_on_c, 9, 35, 127
6, 332160, Note_off_c, 9, 35, 127
6, 332160, Note_on_c, 9, 59, 127
6, 332400, Note_off_c, 9, 59, 127
6, 332400, Note_on_c, 9, 35, 127
6, 332640, Note_off_c, 9, 35, 127
6, 332640, Note_on_c, 9, 59, 127
6, 332880, Note_off_c, 9, 59, 127
6, 332880, Note_on_c, 9, 35, 127
6, 333120, Note_off_c, 9, 35, 127
6, 333120, Note_on_c, 9, 59, 127
6, 333120, Note_on_c, 9, 38, 127
6, 333600, Note_off_c, 9, 59, 127
6, 333600, Note_off_c, 9, 38, 127
6, 333600, Note_on_c, 9, 59, 127
6, 333840, Note_off_c, 9, 59, 127
6, 333840, Note_on_c, 9, 35, 127
6, 334080, Note_off_c, 9, 35, 127
6, 334080, Note_on_c, 9, 57, 127
6, 334080, Note_on_c, 9, 38, 127
6, 334320, Note_off_c, 9, 57, 127
6, 334320, Note_off_c, 9, 38, 127
6, 334320, Note_on_c, 9, 57, 127
6, 334320, Note_on_c, 9, 38, 127
6, 334800, Note_off_c, 9, 57, 127
6, 334800, Note_off_c, 9, 38, 127
6, 334800, Note_on_c, 9, 57, 127
6, 334800, Note_on_c, 9, 38, 127
6, 335160, Note_off_c, 9, 57, 127
6, 335160, Note_off_c, 9, 38, 127
6, 335160, Note_on_c, 9, 50, 127
6, 335160, Note_on_c, 9, 48, 127
6, 335280, Note_off_c, 9, 50, 127
6, 335280, Note_off_c, 9, 48, 127
6, 335280, Note_on_c, 9, 50, 127
6, 335400, Note_off_c, 9, 50, 127
6, 335400, Note_on_c, 9, 48, 127
6, 335400, Note_on_c, 9, 47, 127
6, 335640, Note_off_c, 9, 48, 127
6, 335640, Note_off_c, 9, 47, 127
6, 335640, Note_on_c, 9, 48, 127
6, 335640, Note_on_c, 9, 47, 127
6, 335760, Note_off_c, 9, 48, 127
6, 335760, Note_off_c, 9, 47, 127
6, 335760, Note_on_c, 9, 41, 127
6, 335760, Note_on_c, 9, 38, 127
6, 335880, Note_off_c, 9, 41, 127
6, 335880, Note_off_c, 9, 38, 127
6, 335880, Note_on_c, 9, 48, 127
6, 336000, Note_off_c, 9, 48, 127
6, 336000, Note_on_c, 9, 49, 127
6, 336240, Note_off_c, 9, 49, 127
6, 336240, Note_on_c, 9, 38, 127
6, 336360, Note_off_c, 9, 38, 127
6, 336360, Note_on_c, 9, 38, 127
6, 336480, Note_off_c, 9, 38, 127
6, 336480, Note_on_c, 9, 38, 127
6, 336720, Note_off_c, 9, 38, 127
6, 336720, Note_on_c, 9, 41, 127
6, 336720, Note_on_c, 9, 38, 127
6, 336840, Note_off_c, 9, 41, 127
6, 336840, Note_off_c, 9, 38, 127
6, 336840, Note_on_c, 9, 38, 127
6, 336840, Note_on_c, 9, 35, 127
6, 336960, Note_off_c, 9, 38, 127
6, 336960, Note_off_c, 9, 35, 127
6, 336960, Note_on_c, 9, 35, 127
6, 337080, Note_off_c, 9, 35, 127
6, 337080, Note_on_c, 9, 35, 127
6, 337200, Note_off_c, 9, 35, 127
6, 337200, Note_on_c, 9, 35, 127
6, 337320, Note_off_c, 9, 35, 127
6, 337320, Note_on_c, 9, 35, 127
6, 337440, Note_off_c, 9, 35, 127
6, 337440, Note_on_c, 9, 38, 127
6, 337560, Note_off_c, 9, 38, 127
6, 337560, Note_on_c, 9, 35, 127
6, 337680, Note_off_c, 9, 35, 127
6, 337680, Note_on_c, 9, 35, 127
6, 337800, Note_off_c, 9, 35, 127
6, 337800, Note_on_c, 9, 35, 127
6, 337920, Note_off_c, 9, 35, 127
6, 337920, Note_on_c, 9, 51, 127
6, 337920, Note_on_c, 9, 49, 127
6, 337920, Note_on_c, 9, 35, 127
6, 338160, Note_off_c, 9, 51, 127
6, 338160, Note_off_c, 9, 49, 127
6, 338160, Note_off_c, 9, 35, 127
6, 338160, Note_on_c, 9, 51, 127
6, 338160, Note_on_c, 9, 49, 127
6, 338160, Note_on_c, 9, 35, 127
6, 338640, Note_off_c, 9, 51, 127
6, 338640, Note_off_c, 9, 49, 127
6, 338640, Note_off_c, 9, 35, 127
6, 338640, Note_on_c, 9, 51, 127
6, 338640, Note_on_c, 9, 35, 127
6, 339120, Note_off_c, 9, 51, 127
6, 339120, Note_off_c, 9, 35, 127
6, 339120, Note_on_c, 9, 38, 127
6, 339240, Note_off_c, 9, 38, 127
6, 339240, Note_on_c, 9, 38, 127
6, 339360, Note_off_c, 9, 38, 127
6, 339360, Note_on_c, 9, 38, 127
6, 339480, Note_off_c, 9, 38, 127
6, 339480, Note_on_c, 9, 38, 127
6, 339600, Note_off_c, 9, 38, 127
6, 339600, Note_on_c, 9, 43, 127
6, 339720, Note_off_c, 9, 43, 127
6, 339720, Note_on_c, 9, 43, 127
6, 339840, Note_off_c, 9, 43, 127
6, 339840, Note_on_c, 9, 45, 127
6, 339960, Note_off_c, 9, 45, 127
6, 339960, Note_on_c, 9, 35, 127
6, 340080, Note_off_c, 9, 35, 127
6, 340080, Note_on_c, 9, 41, 127
6, 340200, Note_off_c, 9, 41, 127
6, 340200, Note_on_c, 9, 35, 127
6, 340320, Note_off_c, 9, 35, 127
6, 340320, Note_on_c, 9, 41, 127
6, 340320, Note_on_c, 9, 35, 127
6, 340440, Note_off_c, 9, 41, 127
6, 340440, Note_off_c, 9, 35, 127
6, 340440, Note_on_c, 9, 35, 127
6, 340560, Note_off_c, 9, 35, 127
6, 340560, Note_on_c, 9, 41, 127
6, 340560, Note_on_c, 9, 35, 127
6, 340680, Note_off_c, 9, 41, 127
6, 340680, Note_off_c, 9, 35, 127
6, 340680, Note_on_c, 9, 35, 127
6, 340800, Note_off_c, 9, 35, 127
6, 340800, Note_on_c, 9, 38, 127
6, 340920, Note_off_c, 9, 38, 127
6, 340920, Note_on_c, 9, 35, 127
6, 341040, Note_off_c, 9, 35, 127
6, 341040, Note_on_c, 9, 38, 127
6, 341160, Note_off_c, 9, 38, 127
6, 341160, Note_on_c, 9, 35, 127
6, 341280, Note_off_c, 9, 35, 127
6, 341280, Note_on_c, 9, 35, 127
6, 341400, Note_off_c, 9, 35, 127
6, 341400, Note_on_c, 9, 38, 127
6, 341520, Note_off_c, 9, 38, 127
6, 341520, Note_on_c, 9, 35, 127
6, 341640, Note_off_c, 9, 35, 127
6, 341640, Note_on_c, 9, 35, 127
6, 341760, Note_off_c, 9, 35, 127
6, 341760, Note_on_c, 9, 51, 127
6, 341760, Note_on_c, 9, 49, 127
6, 341760, Note_on_c, 9, 35, 127
6, 342000, Note_off_c, 9, 51, 127
6, 342000, Note_off_c, 9, 49, 127
6, 342000, Note_off_c, 9, 35, 127
6, 342000, Note_on_c, 9, 51, 127
6, 342000, Note_on_c, 9, 49, 127
6, 342000, Note_on_c, 9, 35, 127
6, 342480, Note_off_c, 9, 51, 127
6, 342480, Note_off_c, 9, 49, 127
6, 342480, Note_off_c, 9, 35, 127
6, 342480, Note_on_c, 9, 51, 127
6, 342480, Note_on_c, 9, 35, 127
6, 342960, Note_off_c, 9, 51, 127
6, 342960, Note_off_c, 9, 35, 127
6, 342960, Note_on_c, 9, 38, 127
6, 343200, Note_off_c, 9, 38, 127
6, 343200, Note_on_c, 9, 51, 127
6, 343440, Note_off_c, 9, 51, 127
6, 343440, Note_on_c, 9, 51, 127
6, 343440, Note_on_c, 9, 38, 127
6, 343680, Note_off_c, 9, 51, 127
6, 343680, Note_off_c, 9, 38, 127
6, 343680, Note_on_c, 9, 47, 127
6, 343840, Note_off_c, 9, 47, 127
6, 343840, Note_on_c, 9, 48, 127
6, 344000, Note_off_c, 9, 48, 127
6, 344000, Note_on_c, 9, 47, 127
6, 344160, Note_off_c, 9, 47, 127
6, 344160, Note_on_c, 9, 48, 127
6, 344160, Note_on_c, 9, 47, 127
6, 344320, Note_off_c, 9, 48, 127
6, 344320, Note_off_c, 9, 47, 127
6, 344320, Note_on_c, 9, 45, 127
6, 344320, Note_on_c, 9, 43, 127
6, 344480, Note_off_c, 9, 45, 127
6, 344480, Note_off_c, 9, 43, 127
6, 344480, Note_on_c, 9, 45, 127
6, 344640, Note_off_c, 9, 45, 127
6, 344640, Note_on_c, 9, 49, 127
6, 344640, Note_on_c, 9, 41, 127
6, 344960, Note_off_c, 9, 49, 127
6, 344960, Note_off_c, 9, 41, 127
6, 344960, Note_on_c, 9, 49, 127
6, 344960, Note_on_c, 9, 38, 127
6, 345280, Note_off_c, 9, 49, 127
6, 345280, Note_off_c, 9, 38, 127
6, 345280, Note_on_c, 9, 49, 127
6, 345280, Note_on_c, 9, 38, 127
6, 345600, Note_off_c, 9, 49, 127
6, 345600, Note_off_c, 9, 38, 127
6, 345600, Note_on_c, 9, 59, 127
6, 345600, Note_on_c, 9, 57, 127
6, 345600, Note_on_c, 9, 35, 127
6, 346080, Note_off_c, 9, 59, 127
6, 346080, Note_off_c, 9, 57, 127
6, 346080, Note_off_c, 9, 35, 127
6, 346080, Note_on_c, 9, 59, 127
6, 346320, Note_off_c, 9, 59, 127
6, 346320, Note_on_c, 9, 35, 127
6, 346560, Note_off_c, 9, 35, 127
6, 346560, Note_on_c, 9, 53, 127
6, 346560, Note_on_c, 9, 38, 127
6, 346800, Note_off_c, 9, 53, 127
6, 346800, Note_off_c, 9, 38, 127
6, 346800, Note_on_c, 9, 53, 127
6, 347040, Note_off_c, 9, 53, 127
6, 347040, Note_on_c, 9, 59, 127
6, 347280, Note_off_c, 9, 59, 127
6, 347280, Note_on_c, 9, 35, 127
6, 347520, Note_off_c, 9, 35, 127
6, 347520, Note_on_c, 9, 35, 127
6, 348000, Note_off_c, 9, 35, 127
6, 348000, Note_on_c, 9, 59, 127
6, 348240, Note_off_c, 9, 59, 127
6, 348240, Note_on_c, 9, 35, 127
6, 348480, Note_off_c, 9, 35, 127
6, 348480, Note_on_c, 9, 57, 127
6, 348480, Note_on_c, 9, 38, 127
6, 348960, Note_off_c, 9, 57, 127
6, 348960, Note_off_c, 9, 38, 127
6, 348960, Note_on_c, 9, 57, 127
6, 349200, Note_off_c, 9, 57, 127
6, 349200, Note_on_c, 9, 35, 127
6, 349440, Note_off_c, 9, 35, 127
6, 349440, Note_on_c, 9, 59, 127
6, 349440, Note_on_c, 9, 57, 127
6, 349440, Note_on_c, 9, 35, 127
6, 349680, Note_off_c, 9, 59, 127
6, 349680, Note_off_c, 9, 57, 127
6, 349680, Note_off_c, 9, 35, 127
6, 349680, Note_on_c, 9, 59, 127
6, 349680, Note_on_c, 9, 57, 127
6, 349680, Note_on_c, 9, 35, 127
6, 350160, Note_off_c, 9, 59, 127
6, 350160, Note_off_c, 9, 57, 127
6, 350160, Note_off_c, 9, 35, 127
6, 350160, Note_on_c, 9, 59, 127
6, 350160, Note_on_c, 9, 57, 127
6, 350160, Note_on_c, 9, 35, 127
6, 350640, Note_off_c, 9, 59, 127
6, 350640, Note_off_c, 9, 57, 127
6, 350640, Note_off_c, 9, 35, 127
6, 350640, Note_on_c, 9, 49, 127
6, 350640, Note_on_c, 9, 45, 127
6, 351120, Note_off_c, 9, 49, 127
6, 351120, Note_off_c, 9, 45, 127
6, 351120, Note_on_c, 9, 49, 127
6, 351120, Note_on_c, 9, 48, 127
6, 351600, Note_off_c, 9, 49, 127
6, 351600, Note_off_c, 9, 48, 127
6, 351600, Note_on_c, 9, 48, 127
6, 351840, Note_off_c, 9, 48, 127
6, 351840, Note_on_c, 9, 47, 127
6, 352080, Note_off_c, 9, 47, 127
6, 352080, Note_on_c, 9, 47, 127
6, 352080, Note_on_c, 9, 43, 127
6, 352320, Note_off_c, 9, 47, 127
6, 352320, Note_off_c, 9, 43, 127
6, 352320, Note_on_c, 9, 45, 127
6, 352320, Note_on_c, 9, 43, 127
6, 352560, Note_off_c, 9, 45, 127
6, 352560, Note_off_c, 9, 43, 127
6, 352560, Note_on_c, 9, 38, 127
6, 352800, Note_off_c, 9, 38, 127
6, 352800, Note_on_c, 9, 38, 127
6, 353040, Note_off_c, 9, 38, 127
6, 353040, Note_on_c, 9, 49, 127
6, 353040, Note_on_c, 9, 38, 127
6, 353280, Note_off_c, 9, 49, 127
6, 353280, Note_off_c, 9, 38, 127
6, 353280, Note_on_c, 9, 51, 127
6, 353280, Note_on_c, 9, 49, 127
6, 353280, Note_on_c, 9, 35, 127
6, 353760, Note_off_c, 9, 51, 127
6, 353760, Note_off_c, 9, 49, 127
6, 353760, Note_off_c, 9, 35, 127
6, 353760, Note_on_c, 9, 51, 127
6, 353760, Note_on_c, 9, 35, 127
6, 354240, Note_off_c, 9, 51, 127
6, 354240, Note_off_c, 9, 35, 127
6, 354240, Note_on_c, 9, 51, 127
6, 354240, Note_on_c, 9, 38, 127
6, 354480, Note_off_c, 9, 51, 127
6, 354480, Note_off_c, 9, 38, 127
6, 354480, Note_on_c, 9, 51, 127
6, 354720, Note_off_c, 9, 51, 127
6, 354720, Note_on_c, 9, 35, 127
6, 354960, Note_off_c, 9, 35, 127
6, 354960, Note_on_c, 9, 48, 127
6, 355080, Note_off_c, 9, 48, 127
6, 355080, Note_on_c, 9, 47, 127
6, 355200, Note_off_c, 9, 47, 127
6, 355200, Note_on_c, 9, 48, 127
6, 355360, Note_off_c, 9, 48, 127
6, 355360, Note_on_c, 9, 45, 127
6, 355360, Note_on_c, 9, 43, 127
6, 355520, Note_off_c, 9, 45, 127
6, 355520, Note_off_c, 9, 43, 127
6, 355520, Note_on_c, 9, 45, 127
6, 355520, Note_on_c, 9, 43, 127
6, 355680, Note_off_c, 9, 45, 127
6, 355680, Note_off_c, 9, 43, 127
6, 355680, Note_on_c, 9, 41, 127
6, 355680, Note_on_c, 9, 38, 127
6, 355840, Note_off_c, 9, 41, 127
6, 355840, Note_off_c, 9, 38, 127
6, 355840, Note_on_c, 9, 41, 127
6, 355840, Note_on_c, 9, 38, 127
6, 356000, Note_off_c, 9, 41, 127
6, 356000, Note_off_c, 9, 38, 127
6, 356000, Note_on_c, 9, 38, 127
6, 356160, Note_off_c, 9, 38, 127
6, 356160, Note_on_c, 9, 38, 127
6, 356320, Note_off_c, 9, 38, 127
6, 356320, Note_on_c, 9, 38, 127
6, 356480, Note_off_c, 9, 38, 127
6, 356480, Note_on_c, 9, 50, 127
6, 356480, Note_on_c, 9, 48, 127
6, 356640, Note_off_c, 9, 50, 127
6, 356640, Note_off_c, 9, 48, 127
6, 356640, Note_on_c, 9, 38, 127
6, 356880, Note_off_c, 9, 38, 127
6, 356880, Note_on_c, 9, 51, 127
6, 356880, Note_on_c, 9, 49, 127
6, 357120, Note_off_c, 9, 51, 127
6, 357120, Note_off_c, 9, 49, 127
6, 357120, Note_on_c, 9, 51, 127
6, 357120, Note_on_c, 9, 49, 127
6, 357120, Note_on_c, 9, 35, 127
6, 357360, Note_off_c, 9, 51, 127
6, 357360, Note_off_c, 9, 49, 127
6, 357360, Note_off_c, 9, 35, 127
6, 357360, Note_on_c, 9, 57, 127
6, 357360, Note_on_c, 9, 50, 127
6, 357360, Note_on_c, 9, 35, 127
6, 357840, Note_off_c, 9, 57, 127
6, 357840, Note_off_c, 9, 50, 127
6, 357840, Note_off_c, 9, 35, 127
6, 357840, Note_on_c, 9, 35, 127
6, 358080, Note_off_c, 9, 35, 127
6, 358080, Note_on_c, 9, 51, 127
6, 358320, Note_off_c, 9, 51, 127
6, 358320, Note_on_c, 9, 35, 127
6, 358560, Note_off_c, 9, 35, 127
6, 358560, Note_on_c, 9, 57, 127
6, 358560, Note_on_c, 9, 38, 127
6, 358800, Note_off_c, 9, 57, 127
6, 358800, Note_off_c, 9, 38, 127
6, 358800, Note_on_c, 9, 53, 127
6, 358800, Note_on_c, 9, 57, 127
6, 359040, Note_off_c, 9, 53, 127
6, 359040, Note_off_c, 9, 57, 127
6, 359040, Note_on_c, 9, 53, 127
6, 359280, Note_off_c, 9, 53, 127
6, 359280, Note_on_c, 9, 50, 127
6, 359280, Note_on_c, 9, 48, 127
6, 359520, Note_off_c, 9, 50, 127
6, 359520, Note_off_c, 9, 48, 127
6, 359520, Note_on_c, 9, 53, 127
6, 359760, Note_off_c, 9, 53, 127
6, 359760, Note_on_c, 9, 48, 127
6, 359760, Note_on_c, 9, 47, 127
6, 360000, Note_off_c, 9, 48, 127
6, 360000, Note_off_c, 9, 47, 127
6, 360000, Note_on_c, 9, 45, 127
6, 360000, Note_on_c, 9, 43, 127
6, 360160, Note_off_c, 9, 45, 127
6, 360160, Note_off_c, 9, 43, 127
6, 360160, Note_on_c, 9, 45, 127
6, 360320, Note_off_c, 9, 45, 127
6, 360320, Note_on_c, 9, 43, 127
6, 360320, Note_on_c, 9, 41, 127
6, 360480, Note_off_c, 9, 43, 127
6, 360480, Note_off_c, 9, 41, 127
6, 360480, Note_on_c, 9, 43, 127
6, 360480, Note_on_c, 9, 41, 127
6, 360640, Note_off_c, 9, 43, 127
6, 360640, Note_off_c, 9, 41, 127
6, 360640, Note_on_c, 9, 38, 127
6, 360800, Note_off_c, 9, 38, 127
6, 360800, Note_on_c, 9, 38, 127
6, 360960, Note_off_c, 9, 38, 127
6, 360960, Note_on_c, 9, 51, 127
6, 360960, Note_on_c, 9, 49, 127
6, 360960, Note_on_c, 9, 35, 127
6, 361440, Note_off_c, 9, 51, 127
6, 361440, Note_off_c, 9, 49, 127
6, 361440, Note_off_c, 9, 35, 127
6, 361440, Note_on_c, 9, 51, 127
6, 361680, Note_off_c, 9, 51, 127
6, 361680, Note_on_c, 9, 35, 127
6, 361920, Note_off_c, 9, 35, 127
6, 361920, Note_on_c, 9, 51, 127
6, 361920, Note_on_c, 9, 38, 127
6, 362160, Note_off_c, 9, 51, 127
6, 362160, Note_off_c, 9, 38, 127
6, 362160, Note_on_c, 9, 51, 127
6, 362400, Note_off_c, 9, 51, 127
6, 362400, Note_on_c, 9, 53, 127
6, 362640, Note_off_c, 9, 53, 127
6, 362640, Note_on_c, 9, 35, 127
6, 362880, Note_off_c, 9, 35, 127
6, 362880, Note_on_c, 9, 51, 127
6, 362880, Note_on_c, 9, 35, 127
6, 363120, Note_off_c, 9, 51, 127
6, 363120, Note_off_c, 9, 35, 127
6, 363120, Note_on_c, 9, 51, 127
6, 363360, Note_off_c, 9, 51, 127
6, 363360, Note_on_c, 9, 53, 127
6, 363600, Note_off_c, 9, 53, 127
6, 363600, Note_on_c, 9, 35, 127
6, 363840, Note_off_c, 9, 35, 127
6, 363840, Note_on_c, 9, 51, 127
6, 363840, Note_on_c, 9, 38, 127
6, 364080, Note_off_c, 9, 51, 127
6, 364080, Note_off_c, 9, 38, 127
6, 364080, Note_on_c, 9, 51, 127
6, 364320, Note_off_c, 9, 51, 127
6, 364320, Note_on_c, 9, 53, 127
6, 364560, Note_off_c, 9, 53, 127
6, 364560, Note_on_c, 9, 35, 127
6, 364800, Note_off_c, 9, 35, 127
6, 364800, Note_on_c, 9, 53, 127
6, 364800, Note_on_c, 9, 35, 127
6, 365040, Note_off_c, 9, 53, 127
6, 365040, Note_off_c, 9, 35, 127
6, 365040, Note_on_c, 9, 53, 127
6, 365040, Note_on_c, 9, 35, 127
6, 365280, Note_off_c, 9, 53, 127
6, 365280, Note_off_c, 9, 35, 127
6, 365280, Note_on_c, 9, 53, 127
6, 365280, Note_on_c, 9, 35, 127
6, 365520, Note_off_c, 9, 53, 127
6, 365520, Note_off_c, 9, 35, 127
6, 365520, Note_on_c, 9, 53, 127
6, 365520, Note_on_c, 9, 35, 127
6, 365760, Note_off_c, 9, 53, 127
6, 365760, Note_off_c, 9, 35, 127
6, 365760, Note_on_c, 9, 53, 127
6, 365760, Note_on_c, 9, 35, 127
6, 366000, Note_off_c, 9, 53, 127
6, 366000, Note_off_c, 9, 35, 127
6, 366000, Note_on_c, 9, 53, 127
6, 366000, Note_on_c, 9, 35, 127
6, 366240, Note_off_c, 9, 53, 127
6, 366240, Note_off_c, 9, 35, 127
6, 366240, Note_on_c, 9, 53, 127
6, 366240, Note_on_c, 9, 35, 127
6, 366480, Note_off_c, 9, 53, 127
6, 366480, Note_off_c, 9, 35, 127
6, 366480, Note_on_c, 9, 53, 127
6, 366480, Note_on_c, 9, 35, 127
6, 366720, Note_off_c, 9, 53, 127
6, 366720, Note_off_c, 9, 35, 127
6, 366720, Note_on_c, 9, 53, 127
6, 366720, Note_on_c, 9, 35, 127
6, 366960, Note_off_c, 9, 53, 127
6, 366960, Note_off_c, 9, 35, 127
6, 366960, Note_on_c, 9, 57, 127
6, 366960, Note_on_c, 9, 38, 127
6, 367440, Note_off_c, 9, 57, 127
6, 367440, Note_off_c, 9, 38, 127
6, 367440, Note_on_c, 9, 57, 127
6, 367440, Note_on_c, 9, 38, 127
6, 367920, Note_off_c, 9, 57, 127
6, 367920, Note_off_c, 9, 38, 127
6, 367920, Note_on_c, 9, 57, 127
6, 367920, Note_on_c, 9, 38, 127
6, 368400, Note_off_c, 9, 57, 127
6, 368400, Note_off_c, 9, 38, 127
6, 368400, Note_on_c, 9, 57, 127
6, 368400, Note_on_c, 9, 35, 127
6, 368640, Note_off_c, 9, 57, 127
6, 368640, Note_off_c, 9, 35, 127
6, 368640, Note_on_c, 9, 51, 127
6, 368640, Note_on_c, 9, 49, 127
6, 368640, Note_on_c, 9, 35, 127
6, 369120, Note_off_c, 9, 51, 127
6, 369120, Note_off_c, 9, 49, 127
6, 369120, Note_off_c, 9, 35, 127
6, 369120, Note_on_c, 9, 51, 127
6, 369120, Note_on_c, 9, 49, 127
6, 369360, Note_off_c, 9, 51, 127
6, 369360, Note_off_c, 9, 49, 127
6, 369360, Note_on_c, 9, 35, 127
6, 369600, Note_off_c, 9, 35, 127
6, 369600, Note_on_c, 9, 51, 127
6, 369840, Note_off_c, 9, 51, 127
6, 369840, Note_on_c, 9, 35, 127
6, 370080, Note_off_c, 9, 35, 127
6, 370080, Note_on_c, 9, 51, 127
6, 370080, Note_on_c, 9, 38, 127
6, 370560, Note_off_c, 9, 51, 127
6, 370560, Note_off_c, 9, 38, 127
6, 370560, Note_on_c, 9, 51, 127
6, 370880, Note_off_c, 9, 51, 127
6, 370880, Note_on_c, 9, 50, 127
6, 370880, Note_on_c, 9, 48, 127
6, 371040, Note_off_c, 9, 50, 127
6, 371040, Note_off_c, 9, 48, 127
6, 371040, Note_on_c, 9, 51, 127
6, 371200, Note_off_c, 9, 51, 127
6, 371200, Note_on_c, 9, 38, 127
6, 371360, Note_off_c, 9, 38, 127
6, 371360, Note_on_c, 9, 51, 127
6, 371520, Note_off_c, 9, 51, 127
6, 371520, Note_on_c, 9, 48, 127
6, 371520, Note_on_c, 9, 47, 127
6, 371680, Note_off_c, 9, 48, 127
6, 371680, Note_off_c, 9, 47, 127
6, 371680, Note_on_c, 9, 48, 127
6, 371680, Note_on_c, 9, 47, 127
6, 371840, Note_off_c, 9, 48, 127
6, 371840, Note_off_c, 9, 47, 127
6, 371840, Note_on_c, 9, 43, 127
6, 372000, Note_off_c, 9, 43, 127
6, 372000, Note_on_c, 9, 45, 127
6, 372000, Note_on_c, 9, 43, 127
6, 372160, Note_off_c, 9, 45, 127
6, 372160, Note_off_c, 9, 43, 127
6, 372160, Note_on_c, 9, 38, 127
6, 372320, Note_off_c, 9, 38, 127
6, 372320, Note_on_c, 9, 51, 127
6, 372320, Note_on_c, 9, 49, 127
6, 372480, Note_off_c, 9, 51, 127
6, 372480, Note_off_c, 9, 49, 127
6, 372480, Note_on_c, 9, 51, 127
6, 372480, Note_on_c, 9, 49, 127
6, 372480, Note_on_c, 9, 35, 127
6, 372960, Note_off_c, 9, 51, 127
6, 372960, Note_off_c, 9, 49, 127
6, 372960, Note_off_c, 9, 35, 127
6, 372960, Note_on_c, 9, 51, 127
6, 373200, Note_off_c, 9, 51, 127
6, 373200, Note_on_c, 9, 35, 127
6, 373440, Note_off_c, 9, 35, 127
6, 373440, Note_on_c, 9, 51, 127
6, 373680, Note_off_c, 9, 51, 127
6, 373680, Note_on_c, 9, 35, 127
6, 373920, Note_off_c, 9, 35, 127
6, 373920, Note_on_c, 9, 57, 127
6, 373920, Note_on_c, 9, 38, 127
6, 374400, Note_off_c, 9, 57, 127
6, 374400, Note_off_c, 9, 38, 127
6, 374400, Note_on_c, 9, 57, 127
6, 374880, Note_off_c, 9, 57, 127
6, 374880, Note_on_c, 9, 50, 127
6, 375000, Note_off_c, 9, 50, 127
6, 375000, Note_on_c, 9, 50, 127
6, 375120, Note_off_c, 9, 50, 127
6, 375120, Note_on_c, 9, 47, 127
6, 375120, Note_on_c, 9, 45, 127
6, 375240, Note_off_c, 9, 47, 127
6, 375240, Note_off_c, 9, 45, 127
6, 375240, Note_on_c, 9, 47, 127
6, 375360, Note_off_c, 9, 47, 127
6, 375360, Note_on_c, 9, 41, 127
6, 375360, Note_on_c, 9, 38, 127
6, 375600, Note_off_c, 9, 41, 127
6, 375600, Note_off_c, 9, 38, 127
6, 375600, Note_on_c, 9, 45, 127
6, 375600, Note_on_c, 9, 43, 127
6, 375840, Note_off_c, 9, 45, 127
6, 375840, Note_off_c, 9, 43, 127
6, 375840, Note_on_c, 9, 38, 127
6, 376080, Note_off_c, 9, 38, 127
6, 376080, Note_on_c, 9, 51, 127
6, 376080, Note_on_c, 9, 49, 127
6, 376320, Note_off_c, 9, 51, 127
6, 376320, Note_off_c, 9, 49, 127
6, 376320, Note_on_c, 9, 51, 127
6, 376320, Note_on_c, 9, 49, 127
6, 376320, Note_on_c, 9, 35, 127
6, 376800, Note_off_c, 9, 51, 127
6, 376800, Note_off_c, 9, 49, 127
6, 376800, Note_off_c, 9, 35, 127
6, 376800, Note_on_c, 9, 51, 127
6, 377040, Note_off_c, 9, 51, 127
6, 377040, Note_on_c, 9, 35, 127
6, 377280, Note_off_c, 9, 35, 127
6, 377280, Note_on_c, 9, 51, 127
6, 377280, Note_on_c, 9, 38, 127
6, 377760, Note_off_c, 9, 51, 127
6, 377760, Note_off_c, 9, 38, 127
6, 377760, Note_on_c, 9, 59, 127
6, 378000, Note_off_c, 9, 59, 127
6, 378000, Note_on_c, 9, 47, 127
6, 378000, Note_on_c, 9, 45, 127
6, 378240, Note_off_c, 9, 47, 127
6, 378240, Note_off_c, 9, 45, 127
6, 378240, Note_on_c, 9, 59, 127
6, 378480, Note_off_c, 9, 59, 127
6, 378480, Note_on_c, 9, 38, 127
6, 378720, Note_off_c, 9, 38, 127
6, 378720, Note_on_c, 9, 47, 127
6, 378960, Note_off_c, 9, 47, 127
6, 378960, Note_on_c, 9, 35, 127
6, 379200, Note_off_c, 9, 35, 127
6, 379200, Note_on_c, 9, 51, 127
6, 379200, Note_on_c, 9, 49, 127
6, 379200, Note_on_c, 9, 35, 127
6, 379680, Note_off_c, 9, 51, 127
6, 379680, Note_off_c, 9, 49, 127
6, 379680, Note_off_c, 9, 35, 127
6, 379680, Note_on_c, 9, 49, 127
6, 379680, Note_on_c, 9, 38, 127
6, 379680, Note_on_c, 9, 35, 127
6, 380160, Note_off_c, 9, 49, 127
6, 380160, Note_off_c, 9, 38, 127
6, 380160, Note_off_c, 9, 35, 127
6, 380160, Note_on_c, 9, 38, 127
6, 380400, Note_off_c, 9, 38, 127
6, 380400, Note_on_c, 9, 38, 127
6, 380520, Note_off_c, 9, 38, 127
6, 380520, Note_on_c, 9, 38, 127
6, 380640, Note_off_c, 9, 38, 127
6, 380640, Note_on_c, 9, 41, 127
6, 380640, Note_on_c, 9, 38, 127
6, 380880, Note_off_c, 9, 41, 127
6, 380880, Note_off_c, 9, 38, 127
6, 380880, Note_on_c, 9, 35, 127
6, 381000, Note_off_c, 9, 35, 127
6, 381000, Note_on_c, 9, 35, 127
6, 381120, Note_off_c, 9, 35, 127
6, 381120, Note_on_c, 9, 35, 127
6, 381240, Note_off_c, 9, 35, 127
6, 381240, Note_on_c, 9, 38, 127
6, 381360, Note_off_c, 9, 38, 127
6, 381360, Note_on_c, 9, 35, 127
6, 381480, Note_off_c, 9, 35, 127
6, 381480, Note_on_c, 9, 41, 127
6, 381480, Note_on_c, 9, 38, 127
6, 381720, Note_off_c, 9, 41, 127
6, 381720, Note_off_c, 9, 38, 127
6, 381720, Note_on_c, 9, 38, 127
6, 381840, Note_off_c, 9, 38, 127
6, 381840, Note_on_c, 9, 47, 127
6, 381960, Note_off_c, 9, 47, 127
6, 381960, Note_on_c, 9, 38, 127
6, 382080, Note_off_c, 9, 38, 127
6, 382080, Note_on_c, 9, 48, 127
6, 382240, Note_off_c, 9, 48, 127
6, 382240, Note_on_c, 9, 47, 127
6, 382400, Note_off_c, 9, 47, 127
6, 382400, Note_on_c, 9, 50, 127
6, 382400, Note_on_c, 9, 48, 127
6, 382480, Note_off_c, 9, 50, 127
6, 382480, Note_off_c, 9, 48, 127
6, 382480, Note_on_c, 9, 48, 127
6, 382480, Note_on_c, 9, 47, 127
6, 382560, Note_off_c, 9, 48, 127
6, 382560, Note_off_c, 9, 47, 127
6, 382560, Note_on_c, 9, 48, 127
6, 382720, Note_off_c, 9, 48, 127
6, 382720, Note_on_c, 9, 47, 127
6, 382720, Note_on_c, 9, 45, 127
6, 382880, Note_off_c, 9, 47, 127
6, 382880, Note_off_c, 9, 45, 127
6, 382880, Note_on_c, 9, 47, 127
6, 383040, Note_off_c, 9, 47, 127
6, 383040, Note_on_c, 9, 45, 127
6, 383040, Note_on_c, 9, 43, 127
6, 383160, Note_off_c, 9, 45, 127
6, 383160, Note_off_c, 9, 43, 127
6, 383160, Note_on_c, 9, 45, 127
6, 383280, Note_off_c, 9, 45, 127
6, 383280, Note_on_c, 9, 43, 127
6, 383280, Note_on_c, 9, 41, 127
6, 383400, Note_off_c, 9, 43, 127
6, 383400, Note_off_c, 9, 41, 127
6, 383400, Note_on_c, 9, 43, 127
6, 383520, Note_off_c, 9, 43, 127
6, 383520, Note_on_c, 9, 41, 127
6, 383640, Note_off_c, 9, 41, 127
6, 383640, Note_on_c, 9, 43, 127
6, 383640, Note_on_c, 9, 41, 127
6, 383760, Note_off_c, 9, 43, 127
6, 383760, Note_off_c, 9, 41, 127
6, 383760, Note_on_c, 9, 38, 127
6, 384000, Note_off_c, 9, 38, 127
6, 384000, Note_on_c, 9, 51, 127
6, 384000, Note_on_c, 9, 49, 127
6, 384000, Note_on_c, 9, 35, 127
6, 384240, Note_off_c, 9, 51, 127
6, 384240, Note_off_c, 9, 49, 127
6, 384240, Note_off_c, 9, 35, 127
6, 384240, Note_on_c, 9, 51, 127
6, 384240, Note_on_c, 9, 49, 127
6, 384240, Note_on_c, 9, 35, 127
6, 384720, Note_off_c, 9, 51, 127
6, 384720, Note_off_c, 9, 49, 127
6, 384720, Note_off_c, 9, 35, 127
6, 384720, Note_on_c, 9, 51, 127
6, 384720, Note_on_c, 9, 35, 127
6, 385200, Note_off_c, 9, 51, 127
6, 385200, Note_off_c, 9, 35, 127
6, 385200, Note_on_c, 9, 35, 127
6, 385440, Note_off_c, 9, 35, 127
6, 385440, Note_on_c, 9, 57, 127
6, 385440, Note_on_c, 9, 38, 127
6, 385680, Note_off_c, 9, 57, 127
6, 385680, Note_off_c, 9, 38, 127
6, 385680, Note_on_c, 9, 38, 127
6, 385920, Note_off_c, 9, 38, 127
6, 385920, Note_on_c, 9, 51, 127
6, 385920, Note_on_c, 9, 38, 127
6, 386240, Note_off_c, 9, 51, 127
6, 386240, Note_off_c, 9, 38, 127
6, 386240, Note_on_c, 9, 51, 127
6, 386240, Note_on_c, 9, 38, 127
6, 386560, Note_off_c, 9, 51, 127
6, 386560, Note_off_c, 9, 38, 127
6, 386560, Note_on_c, 9, 51, 127
6, 386560, Note_on_c, 9, 38, 127
6, 386880, Note_off_c, 9, 51, 127
6, 386880, Note_off_c, 9, 38, 127
6, 386880, Note_on_c, 9, 51, 127
6, 386880, Note_on_c, 9, 38, 127
6, 387200, Note_off_c, 9, 51, 127
6, 387200, Note_off_c, 9, 38, 127
6, 387200, Note_on_c, 9, 51, 127
6, 387200, Note_on_c, 9, 38, 127
6, 387520, Note_off_c, 9, 51, 127
6, 387520, Note_off_c, 9, 38, 127
6, 387520, Note_on_c, 9, 51, 127
6, 387520, Note_on_c, 9, 38, 127
6, 387840, Note_off_c, 9, 51, 127
6, 387840, Note_off_c, 9, 38, 127
6, 387840, Note_on_c, 9, 51, 127
6, 387840, Note_on_c, 9, 49, 127
6, 387840, Note_on_c, 9, 35, 127
6, 388080, Note_off_c, 9, 51, 127
6, 388080, Note_off_c, 9, 49, 127
6, 388080, Note_off_c, 9, 35, 127
6, 388080, Note_on_c, 9, 51, 127
6, 388080, Note_on_c, 9, 35, 127
6, 388560, Note_off_c, 9, 51, 127
6, 388560, Note_off_c, 9, 35, 127
6, 388560, Note_on_c, 9, 51, 127
6, 388560, Note_on_c, 9, 35, 127
6, 389040, Note_off_c, 9, 51, 127
6, 389040, Note_off_c, 9, 35, 127
6, 389040, Note_on_c, 9, 38, 127
6, 389280, Note_off_c, 9, 38, 127
6, 389280, Note_on_c, 9, 51, 127
6, 389520, Note_off_c, 9, 51, 127
6, 389520, Note_on_c, 9, 35, 127
6, 389760, Note_off_c, 9, 35, 127
6, 389760, Note_on_c, 9, 38, 127
6, 389880, Note_off_c, 9, 38, 127
6, 389880, Note_on_c, 9, 35, 127
6, 390000, Note_off_c, 9, 35, 127
6, 390000, Note_on_c, 9, 38, 127
6, 390120, Note_off_c, 9, 38, 127
6, 390120, Note_on_c, 9, 35, 127
6, 390240, Note_off_c, 9, 35, 127
6, 390240, Note_on_c, 9, 35, 127
6, 390400, Note_off_c, 9, 35, 127
6, 390400, Note_on_c, 9, 35, 127
6, 390560, Note_off_c, 9, 35, 127
6, 390560, Note_on_c, 9, 38, 127
6, 390720, Note_off_c, 9, 38, 127
6, 390720, Note_on_c, 9, 35, 127
6, 390840, Note_off_c, 9, 35, 127
6, 390840, Note_on_c, 9, 35, 127
6, 390960, Note_off_c, 9, 35, 127
6, 390960, Note_on_c, 9, 35, 127
6, 391080, Note_off_c, 9, 35, 127
6, 391080, Note_on_c, 9, 38, 127
6, 391200, Note_off_c, 9, 38, 127
6, 391200, Note_on_c, 9, 35, 127
6, 391320, Note_off_c, 9, 35, 127
6, 391320, Note_on_c, 9, 35, 127
6, 391440, Note_off_c, 9, 35, 127
6, 391440, Note_on_c, 9, 35, 127
6, 391560, Note_off_c, 9, 35, 127
6, 391560, Note_on_c, 9, 38, 127
6, 391680, Note_off_c, 9, 38, 127
6, 391680, Note_on_c, 9, 51, 127
6, 391680, Note_on_c, 9, 49, 127
6, 391680, Note_on_c, 9, 35, 127
6, 391920, Note_off_c, 9, 51, 127
6, 391920, Note_off_c, 9, 49, 127
6, 391920, Note_off_c, 9, 35, 127
6, 391920, Note_on_c, 9, 35, 127
6, 392160, Note_off_c, 9, 35, 127
6, 392160, Note_on_c, 9, 51, 127
6, 392400, Note_off_c, 9, 51, 127
6, 392400, Note_on_c, 9, 35, 127
6, 392640, Note_off_c, 9, 35, 127
6, 392640, Note_on_c, 9, 51, 127
6, 392640, Note_on_c, 9, 38, 127
6, 392880, Note_off_c, 9, 51, 127
6, 392880, Note_off_c, 9, 38, 127
6, 392880, Note_on_c, 9, 53, 127
6, 393000, Note_off_c, 9, 53, 127
6, 393000, Note_on_c, 9, 51, 127
6, 393120, Note_off_c, 9, 51, 127
6, 393120, Note_on_c, 9, 53, 127
6, 393360, Note_off_c, 9, 53, 127
6, 393360, Note_on_c, 9, 51, 127
6, 393360, Note_on_c, 9, 35, 127
6, 393600, Note_off_c, 9, 51, 127
6, 393600, Note_off_c, 9, 35, 127
6, 393600, Note_on_c, 9, 51, 127
6, 393840, Note_off_c, 9, 51, 127
6, 393840, Note_on_c, 9, 53, 127
6, 393960, Note_off_c, 9, 53, 127
6, 393960, Note_on_c, 9, 51, 127
6, 394080, Note_off_c, 9, 51, 127
6, 394080, Note_on_c, 9, 51, 127
6, 394080, Note_on_c, 9, 35, 127
6, 394440, Note_off_c, 9, 51, 127
6, 394440, Note_off_c, 9, 35, 127
6, 394440, Note_on_c, 9, 51, 127
6, 394560, Note_off_c, 9, 51, 127
6, 394560, Note_on_c, 9, 53, 127
6, 394560, Note_on_c, 9, 38, 127
6, 394800, Note_off_c, 9, 53, 127
6, 394800, Note_off_c, 9, 38, 127
6, 394800, Note_on_c, 9, 51, 127
6, 394920, Note_off_c, 9, 51, 127
6, 394920, Note_on_c, 9, 53, 127
6, 395040, Note_off_c, 9, 53, 127
6, 395040, Note_on_c, 9, 51, 127
6, 395280, Note_off_c, 9, 51, 127
6, 395280, Note_on_c, 9, 51, 127
6, 395280, Note_on_c, 9, 35, 127
6, 395520, Note_off_c, 9, 51, 127
6, 395520, Note_off_c, 9, 35, 127
6, 395520, Note_on_c, 9, 51, 127
6, 395760, Note_off_c, 9, 51, 127
6, 395760, Note_on_c, 9, 53, 127
6, 396000, Note_off_c, 9, 53, 127
6, 396000, Note_on_c, 9, 51, 127
6, 396000, Note_on_c, 9, 35, 127
6, 396240, Note_off_c, 9, 51, 127
6, 396240, Note_off_c, 9, 35, 127
6, 396240, Note_on_c, 9, 51, 127
6, 396480, Note_off_c, 9, 51, 127
6, 396480, Note_on_c, 9, 53, 127
6, 396480, Note_on_c, 9, 38, 127
6, 396720, Note_off_c, 9, 53, 127
6, 396720, Note_off_c, 9, 38, 127
6, 396720, Note_on_c, 9, 51, 127
6, 396960, Note_off_c, 9, 51, 127
6, 396960, Note_on_c, 9, 53, 127
6, 396960, Note_on_c, 9, 35, 127
6, 397200, Note_off_c, 9, 53, 127
6, 397200, Note_off_c, 9, 35, 127
6, 397200, Note_on_c, 9, 51, 127
6, 397440, Note_off_c, 9, 51, 127
6, 397440, Note_on_c, 9, 53, 127
6, 397440, Note_on_c, 9, 35, 127
6, 397680, Note_off_c, 9, 53, 127
6, 397680, Note_off_c, 9, 35, 127
6, 397680, Note_on_c, 9, 38, 127
6, 397920, Note_off_c, 9, 38, 127
6, 397920, Note_on_c, 9, 51, 127
6, 397920, Note_on_c, 9, 57, 127
6, 398160, Note_off_c, 9, 51, 127
6, 398160, Note_off_c, 9, 57, 127
6, 398160, Note_on_c, 9, 48, 127
6, 398160, Note_on_c, 9, 47, 127
6, 398400, Note_off_c, 9, 48, 127
6, 398400, Note_off_c, 9, 47, 127
6, 398400, Note_on_c, 9, 51, 127
6, 398400, Note_on_c, 9, 57, 127
6, 398560, Note_off_c, 9, 51, 127
6, 398560, Note_off_c, 9, 57, 127
6, 398560, Note_on_c, 9, 45, 127
6, 398560, Note_on_c, 9, 43, 127
6, 398720, Note_off_c, 9, 45, 127
6, 398720, Note_off_c, 9, 43, 127
6, 398720, Note_on_c, 9, 51, 127
6, 398720, Note_on_c, 9, 47, 127
6, 398880, Note_off_c, 9, 51, 127
6, 398880, Note_off_c, 9, 47, 127
6, 398880, Note_on_c, 9, 41, 127
6, 399040, Note_off_c, 9, 41, 127
6, 399040, Note_on_c, 9, 48, 127
6, 399040, Note_on_c, 9, 45, 127
6, 399200, Note_off_c, 9, 48, 127
6, 399200, Note_off_c, 9, 45, 127
6, 399200, Note_on_c, 9, 38, 127
6, 399360, Note_off_c, 9, 38, 127
6, 399360, Note_on_c, 9, 57, 127
6, 399360, Note_on_c, 9, 35, 127
6, 399840, Note_off_c, 9, 57, 127
6, 399840, Note_off_c, 9, 35, 127
6, 399840, Note_on_c, 9, 57, 127
6, 400080, Note_off_c, 9, 57, 127
6, 400080, Note_on_c, 9, 35, 127
6, 400320, Note_off_c, 9, 35, 127
6, 400320, Note_on_c, 9, 57, 127
6, 400480, Note_off_c, 9, 57, 127
6, 400480, Note_on_c, 9, 38, 127
6, 400640, Note_off_c, 9, 38, 127
6, 400640, Note_on_c, 9, 57, 127
6, 400800, Note_off_c, 9, 57, 127
6, 400800, Note_on_c, 9, 50, 127
6, 400800, Note_on_c, 9, 48, 127
6, 400960, Note_off_c, 9, 50, 127
6, 400960, Note_off_c, 9, 48, 127
6, 400960, Note_on_c, 9, 57, 127
6, 401120, Note_off_c, 9, 57, 127
6, 401120, Note_on_c, 9, 47, 127
6, 401280, Note_off_c, 9, 47, 127
6, 401280, Note_on_c, 9, 59, 127
6, 401280, Note_on_c, 9, 57, 127
6, 401640, Note_off_c, 9, 59, 127
6, 401640, Note_off_c, 9, 57, 127
6, 401640, Note_on_c, 9, 53, 127
6, 401640, Note_on_c, 9, 38, 127
6, 401760, Note_off_c, 9, 53, 127
6, 401760, Note_off_c, 9, 38, 127
6, 401760, Note_on_c, 9, 59, 127
6, 401760, Note_on_c, 9, 38, 127
6, 401880, Note_off_c, 9, 59, 127
6, 401880, Note_off_c, 9, 38, 127
6, 401880, Note_on_c, 9, 53, 127
6, 402240, Note_off_c, 9, 53, 127
6, 402240, Note_on_c, 9, 57, 127
6, 402240, Note_on_c, 9, 38, 127
6, 402560, Note_off_c, 9, 57, 127
6, 402560, Note_off_c, 9, 38, 127
6, 402560, Note_on_c, 9, 49, 127
6, 402560, Note_on_c, 9, 38, 127
6, 402560, Note_on_c, 9, 35, 127
6, 402880, Note_off_c, 9, 49, 127
6, 402880, Note_off_c, 9, 38, 127
6, 402880, Note_off_c, 9, 35, 127
6, 402880, Note_on_c, 9, 49, 127
6, 402880, Note_on_c, 9, 35, 127
6, 403200, Note_off_c, 9, 49, 127
6, 403200, Note_off_c, 9, 35, 127
6, 403200, Note_on_c, 9, 51, 127
6, 403200, Note_on_c, 9, 35, 127
6, 403680, Note_off_c, 9, 51, 127
6, 403680, Note_off_c, 9, 35, 127
6, 403680, Note_on_c, 9, 51, 127
6, 403920, Note_off_c, 9, 51, 127
6, 403920, Note_on_c, 9, 35, 127
6, 404160, Note_off_c, 9, 35, 127
6, 404160, Note_on_c, 9, 51, 127
6, 404400, Note_off_c, 9, 51, 127
6, 404400, Note_on_c, 9, 35, 127
6, 404640, Note_off_c, 9, 35, 127
6, 404640, Note_on_c, 9, 51, 127
6, 404640, Note_on_c, 9, 38, 127
6, 405120, Note_off_c, 9, 51, 127
6, 405120, Note_off_c, 9, 38, 127
6, 405120, Note_on_c, 9, 51, 127
6, 405280, Note_off_c, 9, 51, 127
6, 405280, Note_on_c, 9, 50, 127
6, 405280, Note_on_c, 9, 48, 127
6, 405440, Note_off_c, 9, 50, 127
6, 405440, Note_off_c, 9, 48, 127
6, 405440, Note_on_c, 9, 50, 127
6, 405600, Note_off_c, 9, 50, 127
6, 405600, Note_on_c, 9, 48, 127
6, 405600, Note_on_c, 9, 47, 127
6, 405760, Note_off_c, 9, 48, 127
6, 405760, Note_off_c, 9, 47, 127
6, 405760, Note_on_c, 9, 48, 127
6, 405920, Note_off_c, 9, 48, 127
6, 405920, Note_on_c, 9, 45, 127
6, 406080, Note_off_c, 9, 45, 127
6, 406080, Note_on_c, 9, 57, 127
6, 406080, Note_on_c, 9, 47, 127
6, 406080, Note_on_c, 9, 35, 127
6, 406400, Note_off_c, 9, 57, 127
6, 406400, Note_off_c, 9, 47, 127
6, 406400, Note_off_c, 9, 35, 127
6, 406400, Note_on_c, 9, 49, 127
6, 406400, Note_on_c, 9, 38, 127
6, 406720, Note_off_c, 9, 49, 127
6, 406720, Note_off_c, 9, 38, 127
6, 406720, Note_on_c, 9, 49, 127
6, 406720, Note_on_c, 9, 38, 127
6, 407040, Note_off_c, 9, 49, 127
6, 407040, Note_off_c, 9, 38, 127
6, 407040, Note_on_c, 9, 59, 127
6, 407040, Note_on_c, 9, 57, 127
6, 407040, Note_on_c, 9, 35, 127
6, 407520, Note_off_c, 9, 59, 127
6, 407520, Note_off_c, 9, 57, 127
6, 407520, Note_off_c, 9, 35, 127
6, 407520, Note_on_c, 9, 59, 127
6, 407760, Note_off_c, 9, 59, 127
6, 407760, Note_on_c, 9, 35, 127
6, 408000, Note_off_c, 9, 35, 127
6, 408000, Note_on_c, 9, 53, 127
6, 408000, Note_on_c, 9, 38, 127
6, 408240, Note_off_c, 9, 53, 127
6, 408240, Note_off_c, 9, 38, 127
6, 408240, Note_on_c, 9, 53, 127
6, 408480, Note_off_c, 9, 53, 127
6, 408480, Note_on_c, 9, 59, 127
6, 408720, Note_off_c, 9, 59, 127
6, 408720, Note_on_c, 9, 35, 127
6, 408960, Note_off_c, 9, 35, 127
6, 408960, Note_on_c, 9, 53, 127
6, 409200, Note_off_c, 9, 53, 127
6, 409200, Note_on_c, 9, 35, 127
6, 409440, Note_off_c, 9, 35, 127
6, 409440, Note_on_c, 9, 53, 127
6, 409680, Note_off_c, 9, 53, 127
6, 409680, Note_on_c, 9, 35, 127
6, 409920, Note_off_c, 9, 35, 127
6, 409920, Note_on_c, 9, 57, 127
6, 409920, Note_on_c, 9, 38, 127
6, 410160, Note_off_c, 9, 57, 127
6, 410160, Note_off_c, 9, 38, 127
6, 410160, Note_on_c, 9, 53, 127
6, 410400, Note_off_c, 9, 53, 127
6, 410400, Note_on_c, 9, 53, 127
6, 410640, Note_off_c, 9, 53, 127
6, 410640, Note_on_c, 9, 35, 127
6, 410880, Note_off_c, 9, 35, 127
6, 410880, Note_on_c, 9, 59, 127
6, 410880, Note_on_c, 9, 57, 127
6, 410880, Note_on_c, 9, 35, 127
6, 411120, Note_off_c, 9, 59, 127
6, 411120, Note_off_c, 9, 57, 127
6, 411120, Note_off_c, 9, 35, 127
6, 411120, Note_on_c, 9, 59, 127
6, 411120, Note_on_c, 9, 57, 127
6, 411120, Note_on_c, 9, 35, 127
6, 411600, Note_off_c, 9, 59, 127
6, 411600, Note_off_c, 9, 57, 127
6, 411600, Note_off_c, 9, 35, 127
6, 411600, Note_on_c, 9, 53, 127
6, 411600, Note_on_c, 9, 35, 127
6, 412080, Note_off_c, 9, 53, 127
6, 412080, Note_off_c, 9, 35, 127
6, 412080, Note_on_c, 9, 38, 127
6, 412320, Note_off_c, 9, 38, 127
6, 412320, Note_on_c, 9, 59, 127
6, 412320, Note_on_c, 9, 57, 127
6, 412560, Note_off_c, 9, 59, 127
6, 412560, Note_off_c, 9, 57, 127
6, 412560, Note_on_c, 9, 50, 127
6, 412560, Note_on_c, 9, 48, 127
6, 412800, Note_off_c, 9, 50, 127
6, 412800, Note_off_c, 9, 48, 127
6, 412800, Note_on_c, 9, 59, 127
6, 412800, Note_on_c, 9, 57, 127
6, 413040, Note_off_c, 9, 59, 127
6, 413040, Note_off_c, 9, 57, 127
6, 413040, Note_on_c, 9, 45, 127
6, 413160, Note_off_c, 9, 45, 127
6, 413160, Note_on_c, 9, 48, 127
6, 413280, Note_off_c, 9, 48, 127
6, 413280, Note_on_c, 9, 45, 127
6, 413280, Note_on_c, 9, 43, 127
6, 413520, Note_off_c, 9, 45, 127
6, 413520, Note_off_c, 9, 43, 127
6, 413520, Note_on_c, 9, 45, 127
6, 413640, Note_off_c, 9, 45, 127
6, 413640, Note_on_c, 9, 43, 127
6, 413640, Note_on_c, 9, 41, 127
6, 413760, Note_off_c, 9, 43, 127
6, 413760, Note_off_c, 9, 41, 127
6, 413760, Note_on_c, 9, 43, 127
6, 413760, Note_on_c, 9, 41, 127
6, 414000, Note_off_c, 9, 43, 127
6, 414000, Note_off_c, 9, 41, 127
6, 414000, Note_on_c, 9, 38, 127
6, 414120, Note_off_c, 9, 38, 127
6, 414120, Note_on_c, 9, 38, 127
6, 414240, Note_off_c, 9, 38, 127
6, 414240, Note_on_c, 9, 38, 127
6, 414480, Note_off_c, 9, 38, 127
6, 414480, Note_on_c, 9, 38, 127
6, 414600, Note_off_c, 9, 38, 127
6, 414600, Note_on_c, 9, 38, 127
6, 414720, Note_off_c, 9, 38, 127
6, 414720, Note_on_c, 9, 51, 127
6, 414720, Note_on_c, 9, 49, 127
6, 414720, Note_on_c, 9, 35, 127
6, 415200, Note_off_c, 9, 51, 127
6, 415200, Note_off_c, 9, 49, 127
6, 415200, Note_off_c, 9, 35, 127
6, 415200, Note_on_c, 9, 51, 127
6, 415440, Note_off_c, 9, 51, 127
6, 415440, Note_on_c, 9, 35, 127
6, 415680, Note_off_c, 9, 35, 127
6, 415680, Note_on_c, 9, 53, 127
6, 415680, Note_on_c, 9, 38, 127
6, 415920, Note_off_c, 9, 53, 127
6, 415920, Note_off_c, 9, 38, 127
6, 415920, Note_on_c, 9, 53, 127
6, 416160, Note_off_c, 9, 53, 127
6, 416160, Note_on_c, 9, 59, 127
6, 416400, Note_off_c, 9, 59, 127
6, 416400, Note_on_c, 9, 35, 127
6, 416640, Note_off_c, 9, 35, 127
6, 416640, Note_on_c, 9, 53, 127
6, 416880, Note_off_c, 9, 53, 127
6, 416880, Note_on_c, 9, 53, 127
6, 417120, Note_off_c, 9, 53, 127
6, 417120, Note_on_c, 9, 59, 127
6, 417360, Note_off_c, 9, 59, 127
6, 417360, Note_on_c, 9, 35, 127
6, 417600, Note_off_c, 9, 35, 127
6, 417600, Note_on_c, 9, 53, 127
6, 417600, Note_on_c, 9, 38, 127
6, 417840, Note_off_c, 9, 53, 127
6, 417840, Note_off_c, 9, 38, 127
6, 417840, Note_on_c, 9, 53, 127
6, 418080, Note_off_c, 9, 53, 127
6, 418080, Note_on_c, 9, 59, 127
6, 418320, Note_off_c, 9, 59, 127
6, 418320, Note_on_c, 9, 35, 127
6, 418560, Note_off_c, 9, 35, 127
6, 418560, Note_on_c, 9, 53, 127
6, 418800, Note_off_c, 9, 53, 127
6, 418800, Note_on_c, 9, 53, 127
6, 419040, Note_off_c, 9, 53, 127
6, 419040, Note_on_c, 9, 59, 127
6, 419040, Note_on_c, 9, 35, 127
6, 419520, Note_off_c, 9, 59, 127
6, 419520, Note_off_c, 9, 35, 127
6, 419520, Note_on_c, 9, 53, 127
6, 419520, Note_on_c, 9, 38, 127
6, 419760, Note_off_c, 9, 53, 127
6, 419760, Note_off_c, 9, 38, 127
6, 419760, Note_on_c, 9, 53, 127
6, 420000, Note_off_c, 9, 53, 127
6, 420000, Note_on_c, 9, 59, 127
6, 420240, Note_off_c, 9, 59, 127
6, 420240, Note_on_c, 9, 35, 127
6, 420480, Note_off_c, 9, 35, 127
6, 420480, Note_on_c, 9, 53, 127
6, 420720, Note_off_c, 9, 53, 127
6, 420720, Note_on_c, 9, 53, 127
6, 420960, Note_off_c, 9, 53, 127
6, 420960, Note_on_c, 9, 59, 127
6, 420960, Note_on_c, 9, 35, 127
6, 421440, Note_off_c, 9, 59, 127
6, 421440, Note_off_c, 9, 35, 127
6, 421440, Note_on_c, 9, 53, 127
6, 421440, Note_on_c, 9, 38, 127
6, 421680, Note_off_c, 9, 53, 127
6, 421680, Note_off_c, 9, 38, 127
6, 421680, Note_on_c, 9, 53, 127
6, 421920, Note_off_c, 9, 53, 127
6, 421920, Note_on_c, 9, 59, 127
6, 422160, Note_off_c, 9, 59, 127
6, 422160, Note_on_c, 9, 35, 127
6, 422400, Note_off_c, 9, 35, 127
6, 422400, Note_on_c, 9, 53, 127
6, 422400, Note_on_c, 9, 35, 127
6, 422880, Note_off_c, 9, 53, 127
6, 422880, Note_off_c, 9, 35, 127
6, 422880, Note_on_c, 9, 59, 127
6, 423120, Note_off_c, 9, 59, 127
6, 423120, Note_on_c, 9, 35, 127
6, 423360, Note_off_c, 9, 35, 127
6, 423360, Note_on_c, 9, 53, 127
6, 423360, Note_on_c, 9, 38, 127
6, 423840, Note_off_c, 9, 53, 127
6, 423840, Note_off_c, 9, 38, 127
6, 423840, Note_on_c, 9, 59, 127
6, 424080, Note_off_c, 9, 59, 127
6, 424080, Note_on_c, 9, 35, 127
6, 424320, Note_off_c, 9, 35, 127
6, 424320, Note_on_c, 9, 53, 127
6, 424560, Note_off_c, 9, 53, 127
6, 424560, Note_on_c, 9, 53, 127
6, 424800, Note_off_c, 9, 53, 127
6, 424800, Note_on_c, 9, 59, 127
6, 424800, Note_on_c, 9, 35, 127
6, 425280, Note_off_c, 9, 59, 127
6, 425280, Note_off_c, 9, 35, 127
6, 425280, Note_on_c, 9, 53, 127
6, 425280, Note_on_c, 9, 38, 127
6, 425520, Note_off_c, 9, 53, 127
6, 425520, Note_off_c, 9, 38, 127
6, 425520, Note_on_c, 9, 53, 127
6, 425760, Note_off_c, 9, 53, 127
6, 425760, Note_on_c, 9, 59, 127
6, 426000, Note_off_c, 9, 59, 127
6, 426000, Note_on_c, 9, 35, 127
6, 426240, Note_off_c, 9, 35, 127
6, 426240, Note_on_c, 9, 53, 127
6, 426240, Note_on_c, 9, 35, 127
6, 426480, Note_off_c, 9, 53, 127
6, 426480, Note_off_c, 9, 35, 127
6, 426480, Note_on_c, 9, 59, 127
6, 426480, Note_on_c, 9, 38, 127
6, 426960, Note_off_c, 9, 59, 127
6, 426960, Note_off_c, 9, 38, 127
6, 426960, Note_on_c, 9, 53, 127
6, 427440, Note_off_c, 9, 53, 127
6, 427440, Note_on_c, 9, 53, 127
6, 427680, Note_off_c, 9, 53, 127
6, 427680, Note_on_c, 9, 35, 127
6, 427920, Note_off_c, 9, 35, 127
6, 427920, Note_on_c, 9, 53, 127
6, 428160, Note_off_c, 9, 53, 127
6, 428160, Note_on_c, 9, 38, 127
6, 428400, Note_off_c, 9, 38, 127
6, 428400, Note_on_c, 9, 45, 127
6, 428400, Note_on_c, 9, 35, 127
6, 428640, Note_off_c, 9, 45, 127
6, 428640, Note_off_c, 9, 35, 127
6, 428640, Note_on_c, 9, 42, 127
6, 428880, Note_off_c, 9, 42, 127
6, 428880, Note_on_c, 9, 45, 127
6, 428880, Note_on_c, 9, 35, 127
6, 429120, Note_off_c, 9, 45, 127
6, 429120, Note_off_c, 9, 35, 127
6, 429120, Note_on_c, 9, 42, 127
6, 429360, Note_off_c, 9, 42, 127
6, 429360, Note_on_c, 9, 49, 127
6, 429360, Note_on_c, 9, 38, 127
6, 429840, Note_off_c, 9, 49, 127
6, 429840, Note_off_c, 9, 38, 127
6, 429840, Note_on_c, 9, 35, 127
6, 430080, Note_off_c, 9, 35, 127
6, 430080, Note_on_c, 9, 59, 127
6, 430080, Note_on_c, 9, 57, 127
6, 430080, Note_on_c, 9, 35, 127
6, 430560, Note_off_c, 9, 59, 127
6, 430560, Note_off_c, 9, 57, 127
6, 430560, Note_off_c, 9, 35, 127
6, 430560, Note_on_c, 9, 59, 127
6, 430800, Note_off_c, 9, 59, 127
6, 430800, Note_on_c, 9, 35, 127
6, 431040, Note_off_c, 9, 35, 127
6, 431040, Note_on_c, 9, 59, 127
6, 431040, Note_on_c, 9, 38, 127
6, 431520, Note_off_c, 9, 59, 127
6, 431520, Note_off_c, 9, 38, 127
6, 431520, Note_on_c, 9, 59, 127
6, 431760, Note_off_c, 9, 59, 127
6, 431760, Note_on_c, 9, 35, 127
6, 432000, Note_off_c, 9, 35, 127
6, 432000, Note_on_c, 9, 59, 127
6, 432000, Note_on_c, 9, 35, 127
6, 432480, Note_off_c, 9, 59, 127
6, 432480, Note_off_c, 9, 35, 127
6, 432480, Note_on_c, 9, 59, 127
6, 432720, Note_off_c, 9, 59, 127
6, 432720, Note_on_c, 9, 35, 127
6, 432960, Note_off_c, 9, 35, 127
6, 432960, Note_on_c, 9, 59, 127
6, 432960, Note_on_c, 9, 38, 127
6, 433440, Note_off_c, 9, 59, 127
6, 433440, Note_off_c, 9, 38, 127
6, 433440, Note_on_c, 9, 59, 127
6, 433680, Note_off_c, 9, 59, 127
6, 433680, Note_on_c, 9, 35, 127
6, 433920, Note_off_c, 9, 35, 127
6, 433920, Note_on_c, 9, 59, 127
6, 433920, Note_on_c, 9, 35, 127
6, 434400, Note_off_c, 9, 59, 127
6, 434400, Note_off_c, 9, 35, 127
6, 434400, Note_on_c, 9, 59, 127
6, 434640, Note_off_c, 9, 59, 127
6, 434640, Note_on_c, 9, 35, 127
6, 434880, Note_off_c, 9, 35, 127
6, 434880, Note_on_c, 9, 59, 127
6, 434880, Note_on_c, 9, 38, 127
6, 435360, Note_off_c, 9, 59, 127
6, 435360, Note_off_c, 9, 38, 127
6, 435360, Note_on_c, 9, 59, 127
6, 435600, Note_off_c, 9, 59, 127
6, 435600, Note_on_c, 9, 35, 127
6, 435840, Note_off_c, 9, 35, 127
6, 435840, Note_on_c, 9, 59, 127
6, 435840, Note_on_c, 9, 35, 127
6, 436080, Note_off_c, 9, 59, 127
6, 436080, Note_off_c, 9, 35, 127
6, 436080, Note_on_c, 9, 59, 127
6, 436320, Note_off_c, 9, 59, 127
6, 436320, Note_on_c, 9, 59, 127
6, 436560, Note_off_c, 9, 59, 127
6, 436560, Note_on_c, 9, 35, 127
6, 436800, Note_off_c, 9, 35, 127
6, 436800, Note_on_c, 9, 59, 127
6, 436800, Note_on_c, 9, 38, 127
6, 437040, Note_off_c, 9, 59, 127
6, 437040, Note_off_c, 9, 38, 127
6, 437040, Note_on_c, 9, 59, 127
6, 437280, Note_off_c, 9, 59, 127
6, 437280, Note_on_c, 9, 59, 127
6, 437520, Note_off_c, 9, 59, 127
6, 437520, Note_on_c, 9, 35, 127
6, 437760, Note_off_c, 9, 35, 127
6, 437760, Note_on_c, 9, 59, 127
6, 437760, Note_on_c, 9, 35, 127
6, 438240, Note_off_c, 9, 59, 127
6, 438240, Note_off_c, 9, 35, 127
6, 438240, Note_on_c, 9, 59, 127
6, 438480, Note_off_c, 9, 59, 127
6, 438480, Note_on_c, 9, 35, 127
6, 438720, Note_off_c, 9, 35, 127
6, 438720, Note_on_c, 9, 59, 127
6, 438720, Note_on_c, 9, 38, 127
6, 438960, Note_off_c, 9, 59, 127
6, 438960, Note_off_c, 9, 38, 127
6, 438960, Note_on_c, 9, 59, 127
6, 439200, Note_off_c, 9, 59, 127
6, 439200, Note_on_c, 9, 59, 127
6, 439440, Note_off_c, 9, 59, 127
6, 439440, Note_on_c, 9, 35, 127
6, 439680, Note_off_c, 9, 35, 127
6, 439680, Note_on_c, 9, 59, 127
6, 439680, Note_on_c, 9, 35, 127
6, 440160, Note_off_c, 9, 59, 127
6, 440160, Note_off_c, 9, 35, 127
6, 440160, Note_on_c, 9, 59, 127
6, 440400, Note_off_c, 9, 59, 127
6, 440400, Note_on_c, 9, 35, 127
6, 440640, Note_off_c, 9, 35, 127
6, 440640, Note_on_c, 9, 59, 127
6, 440640, Note_on_c, 9, 38, 127
6, 441120, Note_off_c, 9, 59, 127
6, 441120, Note_off_c, 9, 38, 127
6, 441120, Note_on_c, 9, 59, 127
6, 441600, Note_off_c, 9, 59, 127
6, 441600, Note_on_c, 9, 59, 127
6, 441600, Note_on_c, 9, 35, 127
6, 442080, Note_off_c, 9, 59, 127
6, 442080, Note_off_c, 9, 35, 127
6, 442080, Note_on_c, 9, 57, 127
6, 442080, Note_on_c, 9, 38, 127
6, 442560, Note_off_c, 9, 57, 127
6, 442560, Note_off_c, 9, 38, 127
6, 442560, Note_on_c, 9, 59, 127
6, 442800, Note_off_c, 9, 59, 127
6, 442800, Note_on_c, 9, 50, 127
6, 442800, Note_on_c, 9, 48, 127
6, 443040, Note_off_c, 9, 50, 127
6, 443040, Note_off_c, 9, 48, 127
6, 443040, Note_on_c, 9, 51, 127
6, 443040, Note_on_c, 9, 57, 127
6, 443280, Note_off_c, 9, 51, 127
6, 443280, Note_off_c, 9, 57, 127
6, 443280, Note_on_c, 9, 57, 127
6, 443280, Note_on_c, 9, 47, 127
6, 443520, Note_off_c, 9, 57, 127
6, 443520, Note_off_c, 9, 47, 127
6, 443520, Note_on_c, 9, 45, 127
6, 443520, Note_on_c, 9, 43, 127
6, 443680, Note_off_c, 9, 45, 127
6, 443680, Note_off_c, 9, 43, 127
6, 443680, Note_on_c, 9, 50, 127
6, 443680, Note_on_c, 9, 48, 127
6, 443840, Note_off_c, 9, 50, 127
6, 443840, Note_off_c, 9, 48, 127
6, 443840, Note_on_c, 9, 45, 127
6, 444000, Note_off_c, 9, 45, 127
6, 444000, Note_on_c, 9, 45, 127
6, 444000, Note_on_c, 9, 43, 127
6, 444160, Note_off_c, 9, 45, 127
6, 444160, Note_off_c, 9, 43, 127
6, 444160, Note_on_c, 9, 41, 127
6, 444160, Note_on_c, 9, 38, 127
6, 444320, Note_off_c, 9, 41, 127
6, 444320, Note_off_c, 9, 38, 127
6, 444320, Note_on_c, 9, 38, 127
6, 444480, Note_off_c, 9, 38, 127
6, 444480, Note_on_c, 9, 38, 127
6, 444640, Note_off_c, 9, 38, 127
6, 444640, Note_on_c, 9, 38, 127
6, 444800, Note_off_c, 9, 38, 127
6, 444800, Note_on_c, 9, 38, 127
6, 444960, Note_off_c, 9, 38, 127
6, 444960, Note_on_c, 9, 49, 127
6, 444960, Note_on_c, 9, 35, 127
6, 445440, Note_off_c, 9, 49, 127
6, 445440, Note_off_c, 9, 35, 127
6, 445440, Note_on_c, 9, 51, 127
6, 445440, Note_on_c, 9, 49, 127
6, 445440, Note_on_c, 9, 35, 127
6, 445920, Note_off_c, 9, 51, 127
6, 445920, Note_off_c, 9, 49, 127
6, 445920, Note_off_c, 9, 35, 127
6, 445920, Note_on_c, 9, 51, 127
6, 446400, Note_off_c, 9, 51, 127
6, 446400, Note_on_c, 9, 51, 127
6, 446880, Note_off_c, 9, 51, 127
6, 446880, Note_on_c, 9, 51, 127
6, 447120, Note_off_c, 9, 51, 127
6, 447120, Note_on_c, 9, 35, 127
6, 447360, Note_off_c, 9, 35, 127
6, 447360, Note_on_c, 9, 51, 127
6, 447360, Note_on_c, 9, 38, 127
6, 447840, Note_off_c, 9, 51, 127
6, 447840, Note_off_c, 9, 38, 127
6, 447840, Note_on_c, 9, 51, 127
6, 448080, Note_off_c, 9, 51, 127
6, 448080, Note_on_c, 9, 35, 127
6, 448320, Note_off_c, 9, 35, 127
6, 448320, Note_on_c, 9, 51, 127
6, 448320, Note_on_c, 9, 49, 127
6, 448320, Note_on_c, 9, 35, 127
6, 448800, Note_off_c, 9, 51, 127
6, 448800, Note_off_c, 9, 49, 127
6, 448800, Note_off_c, 9, 35, 127
6, 448800, Note_on_c, 9, 51, 127
6, 449040, Note_off_c, 9, 51, 127
6, 449040, Note_on_c, 9, 35, 127
6, 449280, Note_off_c, 9, 35, 127
6, 449280, Note_on_c, 9, 51, 127
6, 449280, Note_on_c, 9, 35, 127
6, 449760, Note_off_c, 9, 51, 127
6, 449760, Note_off_c, 9, 35, 127
6, 449760, Note_on_c, 9, 51, 127
6, 449760, Note_on_c, 9, 38, 127
6, 450240, Note_off_c, 9, 51, 127
6, 450240, Note_off_c, 9, 38, 127
6, 450240, Note_on_c, 9, 51, 127
6, 450360, Note_off_c, 9, 51, 127
6, 450360, Note_on_c, 9, 45, 127
6, 450480, Note_off_c, 9, 45, 127
6, 450480, Note_on_c, 9, 47, 127
6, 450600, Note_off_c, 9, 47, 127
6, 450600, Note_on_c, 9, 45, 127
6, 450720, Note_off_c, 9, 45, 127
6, 450720, Note_on_c, 9, 41, 127
6, 450880, Note_off_c, 9, 41, 127
6, 450880, Note_on_c, 9, 38, 127
6, 451040, Note_off_c, 9, 38, 127
6, 451040, Note_on_c, 9, 41, 127
6, 451040, Note_on_c, 9, 38, 127
6, 451200, Note_off_c, 9, 41, 127
6, 451200, Note_off_c, 9, 38, 127
6, 451200, Note_on_c, 9, 59, 127
6, 451200, Note_on_c, 9, 57, 127
6, 451200, Note_on_c, 9, 35, 127
6, 451680, Note_off_c, 9, 59, 127
6, 451680, Note_off_c, 9, 57, 127
6, 451680, Note_off_c, 9, 35, 127
6, 451680, Note_on_c, 9, 59, 127
6, 452160, Note_off_c, 9, 59, 127
6, 452160, Note_on_c, 9, 59, 127
6, 452640, Note_off_c, 9, 59, 127
6, 452640, Note_on_c, 9, 59, 127
6, 452880, Note_off_c, 9, 59, 127
6, 452880, Note_on_c, 9, 35, 127
6, 453120, Note_off_c, 9, 35, 127
6, 453120, Note_on_c, 9, 59, 127
6, 453120, Note_on_c, 9, 38, 127
6, 453600, Note_off_c, 9, 59, 127
6, 453600, Note_off_c, 9, 38, 127
6, 453600, Note_on_c, 9, 59, 127
6, 453840, Note_off_c, 9, 59, 127
6, 453840, Note_on_c, 9, 35, 127
6, 454080, Note_off_c, 9, 35, 127
6, 454080, Note_on_c, 9, 51, 127
6, 454080, Note_on_c, 9, 38, 127
6, 454560, Note_off_c, 9, 51, 127
6, 454560, Note_off_c, 9, 38, 127
6, 454560, Note_on_c, 9, 51, 127
6, 454560, Note_on_c, 9, 38, 127
6, 455040, Note_off_c, 9, 51, 127
6, 455040, Note_off_c, 9, 38, 127
6, 455040, Note_on_c, 9, 51, 127
6, 455280, Note_off_c, 9, 51, 127
6, 455280, Note_on_c, 9, 48, 127
6, 455280, Note_on_c, 9, 47, 127
6, 455520, Note_off_c, 9, 48, 127
6, 455520, Note_off_c, 9, 47, 127
6, 455520, Note_on_c, 9, 51, 127
6, 455760, Note_off_c, 9, 51, 127
6, 455760, Note_on_c, 9, 45, 127
6, 455880, Note_off_c, 9, 45, 127
6, 455880, Note_on_c, 9, 48, 127
6, 456000, Note_off_c, 9, 48, 127
6, 456000, Note_on_c, 9, 41, 127
6, 456160, Note_off_c, 9, 41, 127
6, 456160, Note_on_c, 9, 38, 127
6, 456320, Note_off_c, 9, 38, 127
6, 456320, Note_on_c, 9, 38, 127
6, 456480, Note_off_c, 9, 38, 127
6, 456480, Note_on_c, 9, 38, 127
6, 456640, Note_off_c, 9, 38, 127
6, 456640, Note_on_c, 9, 38, 127
6, 456800, Note_off_c, 9, 38, 127
6, 456800, Note_on_c, 9, 38, 127
6, 456960, Note_off_c, 9, 38, 127
6, 456960, Note_on_c, 9, 51, 127
6, 456960, Note_on_c, 9, 35, 127
6, 457440, Note_off_c, 9, 51, 127
6, 457440, Note_off_c, 9, 35, 127
6, 457440, Note_on_c, 9, 51, 127
6, 457920, Note_off_c, 9, 51, 127
6, 457920, Note_on_c, 9, 51, 127
6, 458160, Note_off_c, 9, 51, 127
6, 458160, Note_on_c, 9, 35, 127
6, 458400, Note_off_c, 9, 35, 127
6, 458400, Note_on_c, 9, 51, 127
6, 458640, Note_off_c, 9, 51, 127
6, 458640, Note_on_c, 9, 35, 127
6, 458880, Note_off_c, 9, 35, 127
6, 458880, Note_on_c, 9, 53, 127
6, 458880, Note_on_c, 9, 38, 127
6, 459120, Note_off_c, 9, 53, 127
6, 459120, Note_off_c, 9, 38, 127
6, 459120, Note_on_c, 9, 51, 127
6, 459360, Note_off_c, 9, 51, 127
6, 459360, Note_on_c, 9, 51, 127
6, 459600, Note_off_c, 9, 51, 127
6, 459600, Note_on_c, 9, 35, 127
6, 459840, Note_off_c, 9, 35, 127
6, 459840, Note_on_c, 9, 51, 127
6, 459840, Note_on_c, 9, 35, 127
6, 460080, Note_off_c, 9, 51, 127
6, 460080, Note_off_c, 9, 35, 127
6, 460080, Note_on_c, 9, 51, 127
6, 460320, Note_off_c, 9, 51, 127
6, 460320, Note_on_c, 9, 53, 127
6, 460560, Note_off_c, 9, 53, 127
6, 460560, Note_on_c, 9, 35, 127
6, 460800, Note_off_c, 9, 35, 127
6, 460800, Note_on_c, 9, 51, 127
6, 460800, Note_on_c, 9, 38, 127
6, 461040, Note_off_c, 9, 51, 127
6, 461040, Note_off_c, 9, 38, 127
6, 461040, Note_on_c, 9, 51, 127
6, 461280, Note_off_c, 9, 51, 127
6, 461280, Note_on_c, 9, 53, 127
6, 461520, Note_off_c, 9, 53, 127
6, 461520, Note_on_c, 9, 35, 127
6, 461760, Note_off_c, 9, 35, 127
6, 461760, Note_on_c, 9, 51, 127
6, 462000, Note_off_c, 9, 51, 127
6, 462000, Note_on_c, 9, 38, 127
6, 462240, Note_off_c, 9, 38, 127
6, 462240, Note_on_c, 9, 53, 127
6, 462480, Note_off_c, 9, 53, 127
6, 462480, Note_on_c, 9, 38, 127
6, 462720, Note_off_c, 9, 38, 127
6, 462720, Note_on_c, 9, 51, 127
6, 462720, Note_on_c, 9, 49, 127
6, 462720, Note_on_c, 9, 35, 127
6, 463200, Note_off_c, 9, 51, 127
6, 463200, Note_off_c, 9, 49, 127
6, 463200, Note_off_c, 9, 35, 127
6, 463200, Note_on_c, 9, 51, 127
6, 463680, Note_off_c, 9, 51, 127
6, 463680, Note_on_c, 9, 51, 127
6, 463920, Note_off_c, 9, 51, 127
6, 463920, Note_on_c, 9, 35, 127
6, 464160, Note_off_c, 9, 35, 127
6, 464160, Note_on_c, 9, 51, 127
6, 464160, Note_on_c, 9, 38, 127
6, 464640, Note_off_c, 9, 51, 127
6, 464640, Note_off_c, 9, 38, 127
6, 464640, Note_on_c, 9, 51, 127
6, 465120, Note_off_c, 9, 51, 127
6, 465120, Note_on_c, 9, 51, 127
6, 465360, Note_off_c, 9, 51, 127
6, 465360, Note_on_c, 9, 35, 127
6, 465600, Note_off_c, 9, 35, 127
6, 465600, Note_on_c, 9, 38, 127
6, 465920, Note_off_c, 9, 38, 127
6, 465920, Note_on_c, 9, 38, 127
6, 466240, Note_off_c, 9, 38, 127
6, 466240, Note_on_c, 9, 38, 127
6, 466400, Note_off_c, 9, 38, 127
6, 466400, Note_on_c, 9, 38, 127
6, 466560, Note_off_c, 9, 38, 127
6, 466560, Note_on_c, 9, 38, 127
6, 466720, Note_off_c, 9, 38, 127
6, 466720, Note_on_c, 9, 38, 127
6, 467040, Note_off_c, 9, 38, 127
6, 467040, Note_on_c, 9, 49, 127
6, 467040, Note_on_c, 9, 35, 127
6, 467520, Note_off_c, 9, 49, 127
6, 467520, Note_off_c, 9, 35, 127
6, 467520, Note_on_c, 9, 49, 127
6, 467520, Note_on_c, 9, 35, 127
6, 467760, Note_off_c, 9, 49, 127
6, 467760, Note_off_c, 9, 35, 127
6, 467760, Note_on_c, 9, 38, 127
6, 468000, Note_off_c, 9, 38, 127
6, 468000, Note_on_c, 9, 59, 127
6, 468240, Note_off_c, 9, 59, 127
6, 468240, Note_on_c, 9, 38, 127
6, 468480, Note_off_c, 9, 38, 127
6, 468480, Note_on_c, 9, 59, 127
6, 468480, Note_on_c, 9, 57, 127
6, 468480, Note_on_c, 9, 35, 127
6, 468960, Note_off_c, 9, 59, 127
6, 468960, Note_off_c, 9, 57, 127
6, 468960, Note_off_c, 9, 35, 127
6, 468960, Note_on_c, 9, 59, 127
6, 469440, Note_off_c, 9, 59, 127
6, 469440, Note_on_c, 9, 59, 127
6, 469680, Note_off_c, 9, 59, 127
6, 469680, Note_on_c, 9, 35, 127
6, 469920, Note_off_c, 9, 35, 127
6, 469920, Note_on_c, 9, 38, 127
6, 470160, Note_off_c, 9, 38, 127
6, 470160, Note_on_c, 9, 53, 127
6, 470400, Note_off_c, 9, 53, 127
6, 470400, Note_on_c, 9, 59, 127
6, 470400, Note_on_c, 9, 57, 127
6, 470640, Note_off_c, 9, 59, 127
6, 470640, Note_off_c, 9, 57, 127
6, 470640, Note_on_c, 9, 38, 127
6, 470880, Note_off_c, 9, 38, 127
6, 470880, Note_on_c, 9, 53, 127
6, 471120, Note_off_c, 9, 53, 127
6, 471120, Note_on_c, 9, 59, 127
6, 471360, Note_off_c, 9, 59, 127
6, 471360, Note_on_c, 9, 57, 127
6, 471360, Note_on_c, 9, 48, 127
6, 471360, Note_on_c, 9, 47, 127
6, 471600, Note_off_c, 9, 57, 127
6, 471600, Note_off_c, 9, 48, 127
6, 471600, Note_off_c, 9, 47, 127
6, 471600, Note_on_c, 9, 53, 127
6, 471840, Note_off_c, 9, 53, 127
6, 471840, Note_on_c, 9, 53, 127
6, 472080, Note_off_c, 9, 53, 127
6, 472080, Note_on_c, 9, 48, 127
6, 472080, Note_on_c, 9, 47, 127
6, 472320, Note_off_c, 9, 48, 127
6, 472320, Note_off_c, 9, 47, 127
6, 472320, Note_on_c, 9, 50, 127
6, 472440, Note_off_c, 9, 50, 127
6, 472440, Note_on_c, 9, 48, 127
6, 472560, Note_off_c, 9, 48, 127
6, 472560, Note_on_c, 9, 45, 127
6, 472680, Note_off_c, 9, 45, 127
6, 472680, Note_on_c, 9, 43, 127
6, 472800, Note_off_c, 9, 43, 127
6, 472800, Note_on_c, 9, 43, 127
6, 472800, Note_on_c, 9, 38, 127
6, 472960, Note_off_c, 9, 43, 127
6, 472960, Note_off_c, 9, 38, 127
6, 472960, Note_on_c, 9, 35, 127
6, 473120, Note_off_c, 9, 35, 127
6, 473120, Note_on_c, 9, 38, 127
6, 473280, Note_off_c, 9, 38, 127
6, 473280, Note_on_c, 9, 51, 127
6, 473280, Note_on_c, 9, 49, 127
6, 473600, Note_off_c, 9, 51, 127
6, 473600, Note_off_c, 9, 49, 127
6, 473600, Note_on_c, 9, 51, 127
6, 473600, Note_on_c, 9, 49, 127
6, 473920, Note_off_c, 9, 51, 127
6, 473920, Note_off_c, 9, 49, 127
6, 473920, Note_on_c, 9, 51, 127
6, 473920, Note_on_c, 9, 49, 127
6, 473920, Note_on_c, 9, 38, 127
6, 474240, Note_off_c, 9, 51, 127
6, 474240, Note_off_c, 9, 49, 127
6, 474240, Note_off_c, 9, 38, 127
6, 474240, Note_on_c, 9, 53, 127
6, 474240, Note_on_c, 9, 49, 127
6, 474240, Note_on_c, 9, 35, 127
6, 474720, Note_off_c, 9, 53, 127
6, 474720, Note_off_c, 9, 49, 127
6, 474720, Note_off_c, 9, 35, 127
6, 474720, Note_on_c, 9, 53, 127
6, 474960, Note_off_c, 9, 53, 127
6, 474960, Note_on_c, 9, 35, 127
6, 475200, Note_off_c, 9, 35, 127
6, 475200, Note_on_c, 9, 51, 127
6, 475440, Note_off_c, 9, 51, 127
6, 475440, Note_on_c, 9, 35, 127
6, 475680, Note_off_c, 9, 35, 127
6, 475680, Note_on_c, 9, 51, 127
6, 475920, Note_off_c, 9, 51, 127
6, 475920, Note_on_c, 9, 35, 127
6, 476160, Note_off_c, 9, 35, 127
6, 476160, Note_on_c, 9, 53, 127
6, 476160, Note_on_c, 9, 38, 127
6, 476400, Note_off_c, 9, 53, 127
6, 476400, Note_off_c, 9, 38, 127
6, 476400, Note_on_c, 9, 51, 127
6, 476640, Note_off_c, 9, 51, 127
6, 476640, Note_on_c, 9, 53, 127
6, 476880, Note_off_c, 9, 53, 127
6, 476880, Note_on_c, 9, 35, 127
6, 477120, Note_off_c, 9, 35, 127
6, 477120, Note_on_c, 9, 51, 127
6, 477120, Note_on_c, 9, 35, 127
6, 477360, Note_off_c, 9, 51, 127
6, 477360, Note_off_c, 9, 35, 127
6, 477360, Note_on_c, 9, 51, 127
6, 477600, Note_off_c, 9, 51, 127
6, 477600, Note_on_c, 9, 53, 127
6, 477840, Note_off_c, 9, 53, 127
6, 477840, Note_on_c, 9, 35, 127
6, 478080, Note_off_c, 9, 35, 127
6, 478080, Note_on_c, 9, 51, 127
6, 478080, Note_on_c, 9, 38, 127
6, 478320, Note_off_c, 9, 51, 127
6, 478320, Note_off_c, 9, 38, 127
6, 478320, Note_on_c, 9, 51, 127
6, 478560, Note_off_c, 9, 51, 127
6, 478560, Note_on_c, 9, 51, 127
6, 478800, Note_off_c, 9, 51, 127
6, 478800, Note_on_c, 9, 38, 127
6, 478920, Note_off_c, 9, 38, 127
6, 478920, Note_on_c, 9, 38, 127
6, 479040, Note_off_c, 9, 38, 127
6, 479040, Note_on_c, 9, 38, 127
6, 479280, Note_off_c, 9, 38, 127
6, 479280, Note_on_c, 9, 47, 127
6, 479520, Note_off_c, 9, 47, 127
6, 479520, Note_on_c, 9, 43, 127
6, 479520, Note_on_c, 9, 41, 127
6, 479680, Note_off_c, 9, 43, 127
6, 479680, Note_off_c, 9, 41, 127
6, 479680, Note_on_c, 9, 43, 127
6, 479680, Note_on_c, 9, 41, 127
6, 479840, Note_off_c, 9, 43, 127
6, 479840, Note_off_c, 9, 41, 127
6, 479840, Note_on_c, 9, 38, 127
6, 480000, Note_off_c, 9, 38, 127
6, 480000, Note_on_c, 9, 51, 127
6, 480000, Note_on_c, 9, 52, 127
6, 480000, Note_on_c, 9, 35, 127
6, 480480, Note_off_c, 9, 51, 127
6, 480480, Note_off_c, 9, 52, 127
6, 480480, Note_off_c, 9, 35, 127
6, 480480, Note_on_c, 9, 51, 127
6, 480720, Note_off_c, 9, 51, 127
6, 480720, Note_on_c, 9, 35, 127
6, 480960, Note_off_c, 9, 35, 127
6, 480960, Note_on_c, 9, 51, 127
6, 481200, Note_off_c, 9, 51, 127
6, 481200, Note_on_c, 9, 35, 127
6, 481440, Note_off_c, 9, 35, 127
6, 481440, Note_on_c, 9, 51, 127
6, 481680, Note_off_c, 9, 51, 127
6, 481680, Note_on_c, 9, 35, 127
6, 481920, Note_off_c, 9, 35, 127
6, 481920, Note_on_c, 9, 53, 127
6, 481920, Note_on_c, 9, 38, 127
6, 482160, Note_off_c, 9, 53, 127
6, 482160, Note_off_c, 9, 38, 127
6, 482160, Note_on_c, 9, 51, 127
6, 482400, Note_off_c, 9, 51, 127
6, 482400, Note_on_c, 9, 51, 127
6, 482640, Note_off_c, 9, 51, 127
6, 482640, Note_on_c, 9, 35, 127
6, 482880, Note_off_c, 9, 35, 127
6, 482880, Note_on_c, 9, 51, 127
6, 482880, Note_on_c, 9, 35, 127
6, 483120, Note_off_c, 9, 51, 127
6, 483120, Note_off_c, 9, 35, 127
6, 483120, Note_on_c, 9, 51, 127
6, 483360, Note_off_c, 9, 51, 127
6, 483360, Note_on_c, 9, 53, 127
6, 483600, Note_off_c, 9, 53, 127
6, 483600, Note_on_c, 9, 35, 127
6, 483840, Note_off_c, 9, 35, 127
6, 483840, Note_on_c, 9, 51, 127
6, 483840, Note_on_c, 9, 38, 127
6, 484080, Note_off_c, 9, 51, 127
6, 484080, Note_off_c, 9, 38, 127
6, 484080, Note_on_c, 9, 51, 127
6, 484320, Note_off_c, 9, 51, 127
6, 484320, Note_on_c, 9, 59, 127
6, 484560, Note_off_c, 9, 59, 127
6, 484560, Note_on_c, 9, 35, 127
6, 484800, Note_off_c, 9, 35, 127
6, 484800, Note_on_c, 9, 51, 127
6, 485040, Note_off_c, 9, 51, 127
6, 485040, Note_on_c, 9, 51, 127
6, 485280, Note_off_c, 9, 51, 127
6, 485280, Note_on_c, 9, 59, 127
6, 485520, Note_off_c, 9, 59, 127
6, 485520, Note_on_c, 9, 51, 127
6, 485520, Note_on_c, 9, 35, 127
6, 485760, Note_off_c, 9, 51, 127
6, 485760, Note_off_c, 9, 35, 127
6, 485760, Note_on_c, 9, 59, 127
6, 485760, Note_on_c, 9, 57, 127
6, 485760, Note_on_c, 9, 35, 127
6, 486240, Note_off_c, 9, 59, 127
6, 486240, Note_off_c, 9, 57, 127
6, 486240, Note_off_c, 9, 35, 127
6, 486240, Note_on_c, 9, 59, 127
6, 486480, Note_off_c, 9, 59, 127
6, 486480, Note_on_c, 9, 35, 127
6, 486720, Note_off_c, 9, 35, 127
6, 486720, Note_on_c, 9, 59, 127
6, 487200, Note_off_c, 9, 59, 127
6, 487200, Note_on_c, 9, 59, 127
6, 487680, Note_off_c, 9, 59, 127
6, 487680, Note_on_c, 9, 53, 127
6, 487680, Note_on_c, 9, 38, 127
6, 488160, Note_off_c, 9, 53, 127
6, 488160, Note_off_c, 9, 38, 127
6, 488160, Note_on_c, 9, 53, 127
6, 488400, Note_off_c, 9, 53, 127
6, 488400, Note_on_c, 9, 35, 127
6, 488640, Note_off_c, 9, 35, 127
6, 488640, Note_on_c, 9, 59, 127
6, 488640, Note_on_c, 9, 57, 127
6, 488960, Note_off_c, 9, 59, 127
6, 488960, Note_off_c, 9, 57, 127
6, 488960, Note_on_c, 9, 53, 127
6, 488960, Note_on_c, 9, 35, 127
6, 489280, Note_off_c, 9, 53, 127
6, 489280, Note_off_c, 9, 35, 127
6, 489280, Note_on_c, 9, 59, 127
6, 489280, Note_on_c, 9, 57, 127
6, 489280, Note_on_c, 9, 35, 127
6, 489600, Note_off_c, 9, 59, 127
6, 489600, Note_off_c, 9, 57, 127
6, 489600, Note_off_c, 9, 35, 127
6, 489600, Note_on_c, 9, 59, 127
6, 489600, Note_on_c, 9, 57, 127
6, 489600, Note_on_c, 9, 35, 127
6, 490080, Note_off_c, 9, 59, 127
6, 490080, Note_off_c, 9, 57, 127
6, 490080, Note_off_c, 9, 35, 127
6, 490080, Note_on_c, 9, 53, 127
6, 490440, Note_off_c, 9, 53, 127
6, 490440, Note_on_c, 9, 48, 127
6, 490440, Note_on_c, 9, 47, 127
6, 490560, Note_off_c, 9, 48, 127
6, 490560, Note_off_c, 9, 47, 127
6, 490560, Note_on_c, 9, 48, 127
6, 490800, Note_off_c, 9, 48, 127
6, 490800, Note_on_c, 9, 45, 127
6, 490800, Note_on_c, 9, 43, 127
6, 491040, Note_off_c, 9, 45, 127
6, 491040, Note_off_c, 9, 43, 127
6, 491040, Note_on_c, 9, 38, 127
6, 491200, Note_off_c, 9, 38, 127
6, 491200, Note_on_c, 9, 38, 127
6, 491360, Note_off_c, 9, 38, 127
6, 491360, Note_on_c, 9, 38, 127
6, 491520, Note_off_c, 9, 38, 127
6, 491520, Note_on_c, 9, 49, 127
6, 491520, Note_on_c, 9, 35, 127
6, 492000, Note_off_c, 9, 49, 127
6, 492000, Note_off_c, 9, 35, 127
6, 492000, Note_on_c, 9, 42, 127
6, 492320, Note_off_c, 9, 42, 127
6, 492320, Note_on_c, 9, 42, 127
6, 492480, Note_off_c, 9, 42, 127
6, 492480, Note_on_c, 9, 38, 127
6, 492960, Note_off_c, 9, 38, 127
6, 492960, Note_on_c, 9, 42, 127
6, 493280, Note_off_c, 9, 42, 127
6, 493280, Note_on_c, 9, 42, 127
6, 493440, Note_off_c, 9, 42, 127
6, 493760, Note_on_c, 9, 35, 127
6, 493920, Note_off_c, 9, 35, 127
6, 493920, Note_on_c, 9, 42, 127
6, 494240, Note_off_c, 9, 42, 127
6, 494240, Note_on_c, 9, 42, 127
6, 494400, Note_off_c, 9, 42, 127
6, 494400, Note_on_c, 9, 35, 127
6, 494880, Note_off_c, 9, 35, 127
6, 494880, Note_on_c, 9, 42, 127
6, 495200, Note_off_c, 9, 42, 127
6, 495200, Note_on_c, 9, 42, 127
6, 495360, Note_off_c, 9, 42, 127
6, 495360, Note_on_c, 9, 38, 127
6, 495840, Note_off_c, 9, 38, 127
6, 495840, Note_on_c, 9, 42, 127
6, 496160, Note_off_c, 9, 42, 127
6, 496160, Note_on_c, 9, 42, 127
6, 496320, Note_off_c, 9, 42, 127
6, 496320, Note_on_c, 9, 42, 127
6, 496320, Note_on_c, 9, 35, 127
6, 496800, Note_off_c, 9, 42, 127
6, 496800, Note_off_c, 9, 35, 127
6, 496800, Note_on_c, 9, 42, 127
6, 497120, Note_off_c, 9, 42, 127
6, 497120, Note_on_c, 9, 42, 127
6, 497280, Note_off_c, 9, 42, 127
6, 497280, Note_on_c, 9, 35, 127
6, 497760, Note_off_c, 9, 35, 127
6, 497760, Note_on_c, 9, 42, 127
6, 498080, Note_off_c, 9, 42, 127
6, 498080, Note_on_c, 9, 42, 127
6, 498240, Note_off_c, 9, 42, 127
6, 498240, Note_on_c, 9, 38, 127
6, 498720, Note_off_c, 9, 38, 127
6, 498720, Note_on_c, 9, 42, 127
6, 499040, Note_off_c, 9, 42, 127
6, 499040, Note_on_c, 9, 42, 127
6, 499200, Note_off_c, 9, 42, 127
6, 499200, Note_on_c, 9, 42, 127
6, 499360, Note_off_c, 9, 42, 127
6, 499360, Note_on_c, 9, 38, 127
6, 499680, Note_off_c, 9, 38, 127
6, 499680, Note_on_c, 9, 42, 127
6, 499840, Note_off_c, 9, 42, 127
6, 499840, Note_on_c, 9, 38, 127
6, 500160, Note_off_c, 9, 38, 127
6, 500160, Note_on_c, 9, 46, 127
6, 500160, Note_on_c, 9, 35, 127
6, 500880, Note_off_c, 9, 46, 127
6, 500880, Note_off_c, 9, 35, 127
6, 500880, Note_on_c, 9, 38, 127
6, 501000, Note_off_c, 9, 38, 127
6, 501000, Note_on_c, 9, 38, 127
6, 501120, Note_off_c, 9, 38, 127
6, 501120, Note_on_c, 9, 46, 127
6, 501120, Note_on_c, 9, 35, 127
6, 502080, Note_off_c, 9, 46, 127
6, 502080, Note_off_c, 9, 35, 127
6, 502080, Note_on_c, 9, 46, 127
6, 502080, Note_on_c, 9, 35, 127
6, 502320, Note_off_c, 9, 46, 127
6, 502320, Note_off_c, 9, 35, 127
6, 502320, Note_on_c, 9, 38, 127
6, 502560, Note_off_c, 9, 38, 127
6, 502560, Note_on_c, 9, 38, 127
6, 502800, Note_off_c, 9, 38, 127
6, 502800, Note_on_c, 9, 38, 127
6, 503040, Note_off_c, 9, 38, 127
6, 503040, Note_on_c, 9, 49, 127
6, 503040, Note_on_c, 9, 35, 127
6, 503520, Note_off_c, 9, 49, 127
6, 503520, Note_off_c, 9, 35, 127
6, 503520, Note_on_c, 9, 51, 127
6, 504000, Note_off_c, 9, 51, 127
6, 504000, Note_on_c, 9, 51, 127
6, 504480, Note_off_c, 9, 51, 127
6, 504480, Note_on_c, 9, 51, 127
6, 504720, Note_off_c, 9, 51, 127
6, 504720, Note_on_c, 9, 35, 127
6, 504960, Note_off_c, 9, 35, 127
6, 504960, Note_on_c, 9, 51, 127
6, 504960, Note_on_c, 9, 38, 127
6, 505440, Note_off_c, 9, 51, 127
6, 505440, Note_off_c, 9, 38, 127
6, 505440, Note_on_c, 9, 51, 127
6, 505680, Note_off_c, 9, 51, 127
6, 505680, Note_on_c, 9, 35, 127
6, 505920, Note_off_c, 9, 35, 127
6, 505920, Note_on_c, 9, 57, 127
6, 505920, Note_on_c, 9, 35, 127
6, 506400, Note_off_c, 9, 57, 127
6, 506400, Note_off_c, 9, 35, 127
6, 506400, Note_on_c, 9, 57, 127
6, 506400, Note_on_c, 9, 35, 127
6, 506760, Note_off_c, 9, 57, 127
6, 506760, Note_off_c, 9, 35, 127
6, 506760, Note_on_c, 9, 53, 127
6, 506760, Note_on_c, 9, 38, 127
6, 507120, Note_off_c, 9, 53, 127
6, 507120, Note_off_c, 9, 38, 127
6, 507120, Note_on_c, 9, 53, 127
6, 507600, Note_off_c, 9, 53, 127
6, 507600, Note_on_c, 9, 53, 127
6, 507840, Note_off_c, 9, 53, 127
6, 507840, Note_on_c, 9, 45, 127
6, 508320, Note_off_c, 9, 45, 127
6, 508320, Note_on_c, 9, 43, 127
6, 508800, Note_off_c, 9, 43, 127
6, 508800, Note_on_c, 9, 49, 127
6, 508800, Note_on_c, 9, 35, 127
6, 510080, Note_off_c, 9, 49, 127
6, 510080, Note_off_c, 9, 35, 127
6, 510080, Note_on_c, 9, 51, 127
6, 510080, Note_on_c, 9, 35, 127
6, 510400, Note_off_c, 9, 51, 127
6, 510400, Note_off_c, 9, 35, 127
6, 510400, Note_on_c, 9, 51, 127
6, 510400, Note_on_c, 9, 35, 127
6, 510720, Note_off_c, 9, 51, 127
6, 510720, Note_off_c, 9, 35, 127
6, 510720, Note_on_c, 9, 49, 127
6, 510720, Note_on_c, 9, 38, 127
6, 511200, Note_off_c, 9, 49, 127
6, 511200, Note_off_c, 9, 38, 127
6, 511200, Note_on_c, 9, 49, 127
6, 511520, Note_off_c, 9, 49, 127
6, 511520, Note_on_c, 9, 38, 127
6, 511680, Note_off_c, 9, 38, 127
6, 511680, Note_on_c, 9, 38, 127
6, 511840, Note_off_c, 9, 38, 127
6, 511840, Note_on_c, 9, 38, 127
6, 512000, Note_off_c, 9, 38, 127
6, 512000, Note_on_c, 9, 38, 127
6, 512160, Note_off_c, 9, 38, 127
6, 512160, Note_on_c, 9, 57, 127
6, 512160, Note_on_c, 9, 35, 127
6, 512640, Note_off_c, 9, 57, 127
6, 512640, Note_off_c, 9, 35, 127
6, 512640, Note_on_c, 9, 50, 127
6, 513120, Note_off_c, 9, 50, 127
6, 513120, Note_on_c, 9, 48, 127
6, 513360, Note_off_c, 9, 48, 127
6, 513360, Note_on_c, 9, 47, 127
6, 513600, Note_off_c, 9, 47, 127
6, 513600, Note_on_c, 9, 47, 127
6, 513600, Note_on_c, 9, 45, 127
6, 513840, Note_off_c, 9, 47, 127
6, 513840, Note_off_c, 9, 45, 127
6, 513840, Note_on_c, 9, 45, 127
6, 514080, Note_off_c, 9, 45, 127
6, 514080, Note_on_c, 9, 41, 127
6, 514320, Note_off_c, 9, 41, 127
6, 514320, Note_on_c, 9, 41, 127
6, 514560, Note_off_c, 9, 41, 127
6, 514560, Note_on_c, 9, 49, 127
6, 514560, Note_on_c, 9, 35, 127
6, 515040, Note_off_c, 9, 49, 127
6, 515040, Note_off_c, 9, 35, 127
6, 515040, Note_on_c, 9, 51, 127
6, 515520, Note_off_c, 9, 51, 127
6, 515520, Note_on_c, 9, 51, 127
6, 516000, Note_off_c, 9, 51, 127
6, 516000, Note_on_c, 9, 51, 127
6, 516240, Note_off_c, 9, 51, 127
6, 516240, Note_on_c, 9, 35, 127
6, 516480, Note_off_c, 9, 35, 127
6, 516480, Note_on_c, 9, 51, 127
6, 516480, Note_on_c, 9, 38, 127
6, 516960, Note_off_c, 9, 51, 127
6, 516960, Note_off_c, 9, 38, 127
6, 516960, Note_on_c, 9, 51, 127
6, 517200, Note_off_c, 9, 51, 127
6, 517200, Note_on_c, 9, 35, 127
6, 517440, Note_off_c, 9, 35, 127
6, 517440, Note_on_c, 9, 51, 127
6, 517440, Note_on_c, 9, 35, 127
6, 517920, Note_off_c, 9, 51, 127
6, 517920, Note_off_c, 9, 35, 127
6, 517920, Note_on_c, 9, 51, 127
6, 517920, Note_on_c, 9, 35, 127
6, 518400, Note_off_c, 9, 51, 127
6, 518400, Note_off_c, 9, 35, 127
6, 518400, Note_on_c, 9, 51, 127
6, 518640, Note_off_c, 9, 51, 127
6, 518640, Note_on_c, 9, 38, 127
6, 518880, Note_off_c, 9, 38, 127
6, 518880, Note_on_c, 9, 51, 127
6, 519120, Note_off_c, 9, 51, 127
6, 519120, Note_on_c, 9, 41, 127
6, 519120, Note_on_c, 9, 38, 127
6, 519360, Note_off_c, 9, 41, 127
6, 519360, Note_off_c, 9, 38, 127
6, 519360, Note_on_c, 9, 51, 127
6, 519600, Note_off_c, 9, 51, 127
6, 519600, Note_on_c, 9, 43, 127
6, 519720, Note_off_c, 9, 43, 127
6, 519720, Note_on_c, 9, 45, 127
6, 519840, Note_off_c, 9, 45, 127
6, 519840, Note_on_c, 9, 43, 127
6, 520080, Note_off_c, 9, 43, 127
6, 520080, Note_on_c, 9, 41, 127
6, 520320, Note_off_c, 9, 41, 127
6, 520320, Note_on_c, 9, 49, 127
6, 520320, Note_on_c, 9, 35, 127
6, 520800, Note_off_c, 9, 49, 127
6, 520800, Note_off_c, 9, 35, 127
6, 520800, Note_on_c, 9, 51, 127
6, 521280, Note_off_c, 9, 51, 127
6, 521280, Note_on_c, 9, 51, 127
6, 521760, Note_off_c, 9, 51, 127
6, 521760, Note_on_c, 9, 51, 127
6, 522000, Note_off_c, 9, 51, 127
6, 522000, Note_on_c, 9, 35, 127
6, 522240, Note_off_c, 9, 35, 127
6, 522240, Note_on_c, 9, 51, 127
6, 522240, Note_on_c, 9, 38, 127
6, 522720, Note_off_c, 9, 51, 127
6, 522720, Note_off_c, 9, 38, 127
6, 522720, Note_on_c, 9, 51, 127
6, 522960, Note_off_c, 9, 51, 127
6, 522960, Note_on_c, 9, 35, 127
6, 523200, Note_off_c, 9, 35, 127
6, 523200, Note_on_c, 9, 57, 127
6, 523200, Note_on_c, 9, 35, 127
6, 523680, Note_off_c, 9, 57, 127
6, 523680, Note_off_c, 9, 35, 127
6, 523680, Note_on_c, 9, 59, 127
6, 524160, Note_off_c, 9, 59, 127
6, 524160, Note_on_c, 9, 59, 127
6, 524640, Note_off_c, 9, 59, 127
6, 524640, Note_on_c, 9, 59, 127
6, 524880, Note_off_c, 9, 59, 127
6, 524880, Note_on_c, 9, 35, 127
6, 525120, Note_off_c, 9, 35, 127
6, 525120, Note_on_c, 9, 38, 127
6, 525440, Note_off_c, 9, 38, 127
6, 525440, Note_on_c, 9, 57, 127
6, 525440, Note_on_c, 9, 38, 127
6, 525760, Note_off_c, 9, 57, 127
6, 525760, Note_off_c, 9, 38, 127
6, 525760, Note_on_c, 9, 49, 127
6, 525760, Note_on_c, 9, 35, 127
6, 526080, Note_off_c, 9, 49, 127
6, 526080, Note_off_c, 9, 35, 127
6, 526080, Note_on_c, 9, 49, 127
6, 526080, Note_on_c, 9, 35, 127
6, 526560, Note_off_c, 9, 49, 127
6, 526560, Note_off_c, 9, 35, 127
6, 526560, Note_on_c, 9, 51, 127
6, 527040, Note_off_c, 9, 51, 127
6, 527040, Note_on_c, 9, 51, 127
6, 527520, Note_off_c, 9, 51, 127
6, 527520, Note_on_c, 9, 51, 127
6, 527760, Note_off_c, 9, 51, 127
6, 527760, Note_on_c, 9, 35, 127
6, 528000, Note_off_c, 9, 35, 127
6, 528000, Note_on_c, 9, 51, 127
6, 528000, Note_on_c, 9, 38, 127
6, 528480, Note_off_c, 9, 51, 127
6, 528480, Note_off_c, 9, 38, 127
6, 528480, Note_on_c, 9, 51, 127
6, 528960, Note_off_c, 9, 51, 127
6, 528960, Note_on_c, 9, 51, 127
6, 528960, Note_on_c, 9, 35, 127
6, 529440, Note_off_c, 9, 51, 127
6, 529440, Note_off_c, 9, 35, 127
6, 529440, Note_on_c, 9, 51, 127
6, 529920, Note_off_c, 9, 51, 127
6, 529920, Note_on_c, 9, 51, 127
6, 530400, Note_off_c, 9, 51, 127
6, 530400, Note_on_c, 9, 51, 127
6, 530880, Note_off_c, 9, 51, 127
6, 530880, Note_on_c, 9, 38, 127
6, 531040, Note_off_c, 9, 38, 127
6, 531040, Note_on_c, 9, 51, 127
6, 531200, Note_off_c, 9, 51, 127
6, 531200, Note_on_c, 9, 38, 127
6, 531360, Note_off_c, 9, 38, 127
6, 531360, Note_on_c, 9, 38, 127
6, 531520, Note_off_c, 9, 38, 127
6, 531520, Note_on_c, 9, 38, 127
6, 531680, Note_off_c, 9, 38, 127
6, 531680, Note_on_c, 9, 38, 127
6, 531840, Note_off_c, 9, 38, 127
6, 531840, Note_on_c, 9, 51, 127
6, 531840, Note_on_c, 9, 49, 127
6, 531840, Note_on_c, 9, 35, 127
6, 532800, Note_off_c, 9, 51, 127
6, 532800, Note_off_c, 9, 49, 127
6, 532800, Note_off_c, 9, 35, 127
6, 532800, Note_on_c, 9, 51, 127
6, 533760, Note_off_c, 9, 51, 127
6, 533760, Note_on_c, 9, 51, 127
6, 533920, Note_off_c, 9, 51, 127
6, 533920, Note_on_c, 9, 38, 127
6, 534080, Note_off_c, 9, 38, 127
6, 534080, Note_on_c, 9, 38, 127
6, 534240, Note_off_c, 9, 38, 127
6, 534240, Note_on_c, 9, 38, 127
6, 534400, Note_off_c, 9, 38, 127
6, 534400, Note_on_c, 9, 38, 127
6, 534560, Note_off_c, 9, 38, 127
6, 534560, Note_on_c, 9, 38, 127
6, 534720, Note_off_c, 9, 38, 127
6, 534720, Note_on_c, 9, 51, 127
6, 534720, Note_on_c, 9, 49, 127
6, 534720, Note_on_c, 9, 35, 127
6, 535440, Note_off_c, 9, 51, 127
6, 535440, Note_off_c, 9, 49, 127
6, 535440, Note_off_c, 9, 35, 127
6, 535440, Note_on_c, 9, 35, 127
6, 535560, Note_off_c, 9, 35, 127
6, 535560, Note_on_c, 9, 38, 127
6, 535680, Note_off_c, 9, 38, 127
6, 535680, Note_on_c, 9, 57, 127
6, 535680, Note_on_c, 9, 35, 127
6, 536640, Note_off_c, 9, 57, 127
6, 536640, Note_off_c, 9, 35, 127
6, 536880, Note_on_c, 9, 38, 127
6, 537120, Note_off_c, 9, 38, 127
6, 537120, Note_on_c, 9, 48, 127
6, 537360, Note_off_c, 9, 48, 127
6, 537360, Note_on_c, 9, 47, 127
6, 537600, Note_off_c, 9, 47, 127
6, 537600, Note_on_c, 9, 51, 127
6, 537600, Note_on_c, 9, 49, 127
6, 537600, Note_on_c, 9, 35, 127
6, 538080, Note_off_c, 9, 51, 127
6, 538080, Note_off_c, 9, 49, 127
6, 538080, Note_off_c, 9, 35, 127
6, 538080, Note_on_c, 9, 51, 127
6, 538560, Note_off_c, 9, 51, 127
6, 538560, Note_on_c, 9, 51, 127
6, 539040, Note_off_c, 9, 51, 127
6, 539040, Note_on_c, 9, 51, 127
6, 539040, Note_on_c, 9, 35, 127
6, 539280, Note_off_c, 9, 51, 127
6, 539280, Note_off_c, 9, 35, 127
6, 539280, Note_on_c, 9, 35, 127
6, 539520, Note_off_c, 9, 35, 127
6, 539520, Note_on_c, 9, 51, 127
6, 540000, Note_off_c, 9, 51, 127
6, 540000, Note_on_c, 9, 35, 127
6, 540240, Note_off_c, 9, 35, 127
6, 540240, Note_on_c, 9, 51, 127
6, 540240, Note_on_c, 9, 35, 127
6, 540480, Note_off_c, 9, 51, 127
6, 540480, Note_off_c, 9, 35, 127
6, 540480, Note_on_c, 9, 51, 127
6, 540480, Note_on_c, 9, 38, 127
6, 541200, Note_off_c, 9, 51, 127
6, 541200, Note_off_c, 9, 38, 127
6, 541200, Note_on_c, 9, 38, 127
6, 541440, Note_off_c, 9, 38, 127
6, 541440, Note_on_c, 9, 51, 127
6, 541920, Note_off_c, 9, 51, 127
6, 541920, Note_on_c, 9, 52, 127
6, 541920, Note_on_c, 9, 38, 127
6, 542400, Note_off_c, 9, 52, 127
6, 542400, Note_off_c, 9, 38, 127
6, 542400, Note_on_c, 9, 51, 127
6, 542880, Note_off_c, 9, 51, 127
6, 542880, Note_on_c, 9, 51, 127
6, 543360, Note_off_c, 9, 51, 127
6, 543360, Note_on_c, 9, 51, 127
6, 543360, Note_on_c, 9, 49, 127
6, 543360, Note_on_c, 9, 35, 127
6, 543840, Note_off_c, 9, 51, 127
6, 543840, Note_off_c, 9, 49, 127
6, 543840, Note_off_c, 9, 35, 127
6, 543840, Note_on_c, 9, 51, 127
6, 544320, Note_off_c, 9, 51, 127
6, 544320, Note_on_c, 9, 51, 127
6, 544320, Note_on_c, 9, 35, 127
6, 544800, Note_off_c, 9, 51, 127
6, 544800, Note_off_c, 9, 35, 127
6, 544800, Note_on_c, 9, 51, 127
6, 545280, Note_off_c, 9, 51, 127
6, 545280, Note_on_c, 9, 51, 127
6, 545760, Note_off_c, 9, 51, 127
6, 545760, Note_on_c, 9, 51, 127
6, 546240, Note_off_c, 9, 51, 127
6, 546240, Note_on_c, 9, 51, 127
6, 546240, Note_on_c, 9, 35, 127
6, 546720, Note_off_c, 9, 51, 127
6, 546720, Note_off_c, 9, 35, 127
6, 546720, Note_on_c, 9, 51, 127
6, 546720, Note_on_c, 9, 35, 127
6, 546960, Note_off_c, 9, 51, 127
6, 546960, Note_off_c, 9, 35, 127
6, 546960, Note_on_c, 9, 35, 127
6, 547200, Note_off_c, 9, 35, 127
6, 547440, Note_on_c, 9, 35, 127
6, 547680, Note_off_c, 9, 35, 127
6, 547680, Note_on_c, 9, 51, 127
6, 547920, Note_off_c, 9, 51, 127
6, 547920, Note_on_c, 9, 38, 127
6, 548160, Note_off_c, 9, 38, 127
6, 548160, Note_on_c, 9, 38, 127
6, 548400, Note_off_c, 9, 38, 127
6, 548400, Note_on_c, 9, 51, 127
6, 548640, Note_off_c, 9, 51, 127
6, 548640, Note_on_c, 9, 38, 127
6, 548880, Note_off_c, 9, 38, 127
6, 548880, Note_on_c, 9, 51, 127
6, 549120, Note_off_c, 9, 51, 127
6, 549120, Note_on_c, 9, 45, 127
6, 549312, Note_off_c, 9, 45, 127
6, 549312, Note_on_c, 9, 47, 127
6, 549504, Note_off_c, 9, 47, 127
6, 549504, Note_on_c, 9, 45, 127
6, 549696, Note_off_c, 9, 45, 127
6, 549696, Note_on_c, 9, 47, 127
6, 549888, Note_off_c, 9, 47, 127
6, 549888, Note_on_c, 9, 43, 127
6, 550080, Note_off_c, 9, 43, 127
6, 550080, Note_on_c, 9, 49, 127
6, 550080, Note_on_c, 9, 41, 127
6, 550400, Note_off_c, 9, 49, 127
6, 550400, Note_off_c, 9, 41, 127
6, 550720, Note_on_c, 9, 49, 127
6, 550720, Note_on_c, 9, 41, 127
6, 551040, Note_off_c, 9, 49, 127
6, 551040, Note_off_c, 9, 41, 127
6, 551360, Note_on_c, 9, 51, 127
6, 551360, Note_on_c, 9, 38, 127
6, 551680, Note_off_c, 9, 51, 127
6, 551680, Note_off_c, 9, 38, 127
6, 552000, Note_on_c, 9, 57, 127
6, 552000, Note_on_c, 9, 38, 127
6, 552320, Note_off_c, 9, 57, 127
6, 552320, Note_off_c, 9, 38, 127
6, 552320, Note_on_c, 9, 38, 127
6, 552480, Note_off_c, 9, 38, 127
6, 552480, Note_on_c, 9, 57, 127
6, 552480, Note_on_c, 9, 35, 127
6, 552960, Note_off_c, 9, 57, 127
6, 552960, Note_off_c, 9, 35, 127
6, 553440, Note_on_c, 9, 59, 127
6, 553920, Note_off_c, 9, 59, 127
6, 553920, Note_on_c, 9, 38, 127
6, 554400, Note_off_c, 9, 38, 127
6, 554400, Note_on_c, 9, 53, 127
6, 554720, Note_off_c, 9, 53, 127
6, 554720, Note_on_c, 9, 53, 127
6, 554880, Note_off_c, 9, 53, 127
6, 554880, Note_on_c, 9, 35, 127
6, 555120, Note_off_c, 9, 35, 127
6, 555120, Note_on_c, 9, 53, 127
6, 555360, Note_off_c, 9, 53, 127
6, 555360, Note_on_c, 9, 53, 127
6, 555600, Note_off_c, 9, 53, 127
6, 555600, Note_on_c, 9, 35, 127
6, 555840, Note_off_c, 9, 35, 127
6, 556032, Note_on_c, 9, 53, 127
6, 556224, Note_off_c, 9, 53, 127
6, 556608, Note_on_c, 9, 53, 127
6, 556800, Note_off_c, 9, 53, 127
6, 556800, Note_on_c, 9, 35, 127
6, 556992, Note_off_c, 9, 35, 127
6, 556992, Note_on_c, 9, 38, 127
6, 557184, Note_off_c, 9, 38, 127
6, 557184, Note_on_c, 9, 38, 127
6, 557376, Note_off_c, 9, 38, 127
6, 557376, Note_on_c, 9, 38, 127
6, 557568, Note_off_c, 9, 38, 127
6, 557568, Note_on_c, 9, 38, 127
6, 557760, Note_off_c, 9, 38, 127
6, 557760, Note_on_c, 9, 51, 127
6, 557760, Note_on_c, 9, 49, 127
6, 557760, Note_on_c, 9, 35, 127
6, 558240, Note_off_c, 9, 51, 127
6, 558240, Note_off_c, 9, 49, 127
6, 558240, Note_off_c, 9, 35, 127
6, 558240, Note_on_c, 9, 51, 127
6, 558720, Note_off_c, 9, 51, 127
6, 558720, Note_on_c, 9, 51, 127
6, 559104, Note_off_c, 9, 51, 127
6, 559104, Note_on_c, 9, 38, 127
6, 559488, Note_off_c, 9, 38, 127
6, 559488, Note_on_c, 9, 38, 127
6, 559840, Note_off_c, 9, 38, 127
6, 559840, Note_on_c, 9, 41, 127
6, 560000, Note_off_c, 9, 41, 127
6, 560000, Note_on_c, 9, 47, 127
6, 560160, Note_off_c, 9, 47, 127
6, 560160, Note_on_c, 9, 43, 127
6, 560320, Note_off_c, 9, 43, 127
6, 560320, Note_on_c, 9, 45, 127
6, 560480, Note_off_c, 9, 45, 127
6, 560480, Note_on_c, 9, 41, 127
6, 560640, Note_off_c, 9, 41, 127
6, 560640, Note_on_c, 9, 49, 127
6, 560640, Note_on_c, 9, 35, 127
6, 561120, Note_off_c, 9, 49, 127
6, 561120, Note_off_c, 9, 35, 127
6, 561120, Note_on_c, 9, 51, 127
6, 561600, Note_off_c, 9, 51, 127
6, 561600, Note_on_c, 9, 51, 127
6, 562320, Note_off_c, 9, 51, 127
6, 562320, Note_on_c, 9, 51, 127
6, 562320, Note_on_c, 9, 35, 127
6, 562560, Note_off_c, 9, 51, 127
6, 562560, Note_off_c, 9, 35, 127
6, 562560, Note_on_c, 9, 51, 127
6, 562560, Note_on_c, 9, 38, 127
6, 563040, Note_off_c, 9, 51, 127
6, 563040, Note_off_c, 9, 38, 127
6, 563040, Note_on_c, 9, 51, 127
6, 563280, Note_off_c, 9, 51, 127
6, 563280, Note_on_c, 9, 35, 127
6, 563520, Note_off_c, 9, 35, 127
6, 563520, Note_on_c, 9, 53, 127
6, 563520, Note_on_c, 9, 35, 127
6, 564000, Note_off_c, 9, 53, 127
6, 564000, Note_off_c, 9, 35, 127
6, 564000, Note_on_c, 9, 53, 127
6, 564000, Note_on_c, 9, 35, 127
6, 564480, Note_off_c, 9, 53, 127
6, 564480, Note_off_c, 9, 35, 127
6, 564480, Note_on_c, 9, 53, 127
6, 564960, Note_off_c, 9, 53, 127
6, 564960, Note_on_c, 9, 53, 127
6, 564960, Note_on_c, 9, 47, 127
6, 565440, Note_off_c, 9, 53, 127
6, 565440, Note_off_c, 9, 47, 127
6, 565440, Note_on_c, 9, 53, 127
6, 565440, Note_on_c, 9, 47, 127
6, 565680, Note_off_c, 9, 53, 127
6, 565680, Note_off_c, 9, 47, 127
6, 565680, Note_on_c, 9, 45, 127
6, 565920, Note_off_c, 9, 45, 127
6, 565920, Note_on_c, 9, 43, 127
6, 566160, Note_off_c, 9, 43, 127
6, 566160, Note_on_c, 9, 41, 127
6, 566400, Note_off_c, 9, 41, 127
6, 566400, Note_on_c, 9, 49, 127
6, 566400, Note_on_c, 9, 35, 127
6, 566720, Note_off_c, 9, 49, 127
6, 566720, Note_off_c, 9, 35, 127
6, 567040, Note_on_c, 9, 49, 127
6, 567040, Note_on_c, 9, 41, 127
6, 567360, Note_off_c, 9, 49, 127
6, 567360, Note_off_c, 9, 41, 127
6, 567680, Note_on_c, 9, 57, 127
6, 567680, Note_on_c, 9, 43, 127
6, 568000, Note_off_c, 9, 57, 127
6, 568000, Note_off_c, 9, 43, 127
6, 568320, Note_on_c, 9, 48, 127
6, 568512, Note_off_c, 9, 48, 127
6, 568512, Note_on_c, 9, 45, 127
6, 568704, Note_off_c, 9, 45, 127
6, 568704, Note_on_c, 9, 47, 127
6, 568896, Note_off_c, 9, 47, 127
6, 568896, Note_on_c, 9, 41, 127
6, 569088, Note_off_c, 9, 41, 127
6, 569088, Note_on_c, 9, 45, 127
6, 569280, Note_off_c, 9, 45, 127
6, 569280, Note_on_c, 9, 49, 127
6, 569280, Note_on_c, 9, 38, 127
6, 569600, Note_off_c, 9, 49, 127
6, 569600, Note_off_c, 9, 38, 127
6, 569920, Note_on_c, 9, 38, 127
6, 570080, Note_off_c, 9, 38, 127
6, 570080, Note_on_c, 9, 38, 127
6, 570240, Note_off_c, 9, 38, 127
6, 570240, Note_on_c, 9, 38, 127
6, 570480, Note_off_c, 9, 38, 127
6, 570480, Note_on_c, 9, 38, 127
6, 570720, Note_off_c, 9, 38, 127
6, 570720, Note_on_c, 9, 35, 127
6, 570960, Note_off_c, 9, 35, 127
6, 570960, Note_on_c, 9, 35, 127
6, 571200, Note_off_c, 9, 35, 127
6, 571200, Note_on_c, 9, 38, 127
6, 571440, Note_off_c, 9, 38, 127
6, 571440, Note_on_c, 9, 38, 127
6, 571680, Note_off_c, 9, 38, 127
6, 571680, Note_on_c, 9, 46, 127
6, 571920, Note_off_c, 9, 46, 127
6, 571920, Note_on_c, 9, 38, 127
6, 572160, Note_off_c, 9, 38, 127
6, 572160, Note_on_c, 9, 35, 127
6, 572640, Note_off_c, 9, 35, 127
6, 572640, Note_on_c, 9, 51, 127
6, 573120, Note_off_c, 9, 51, 127
6, 573120, Note_on_c, 9, 51, 127
6, 573600, Note_off_c, 9, 51, 127
6, 573600, Note_on_c, 9, 51, 127
6, 573840, Note_off_c, 9, 51, 127
6, 573840, Note_on_c, 9, 35, 127
6, 574080, Note_off_c, 9, 35, 127
6, 574080, Note_on_c, 9, 49, 127
6, 574080, Note_on_c, 9, 38, 127
6, 574560, Note_off_c, 9, 49, 127
6, 574560, Note_off_c, 9, 38, 127
6, 574560, Note_on_c, 9, 46, 127
6, 574880, Note_off_c, 9, 46, 127
6, 574880, Note_on_c, 9, 35, 127
6, 575040, Note_off_c, 9, 35, 127
6, 575040, Note_on_c, 9, 49, 127
6, 575040, Note_on_c, 9, 35, 127
6, 575520, Note_off_c, 9, 49, 127
6, 575520, Note_off_c, 9, 35, 127
6, 575520, Note_on_c, 9, 46, 127
6, 575520, Note_on_c, 9, 35, 127
6, 576000, Note_off_c, 9, 46, 127
6, 576000, Note_off_c, 9, 35, 127
6, 576000, Note_on_c, 9, 49, 127
6, 576000, Note_on_c, 9, 35, 127
6, 576320, Note_off_c, 9, 49, 127
6, 576320, Note_off_c, 9, 35, 127
6, 576320, Note_on_c, 9, 46, 127
6, 576320, Note_on_c, 9, 35, 127
6, 576640, Note_off_c, 9, 46, 127
6, 576640, Note_off_c, 9, 35, 127
6, 576640, Note_on_c, 9, 49, 127
6, 576640, Note_on_c, 9, 38, 127
6, 576960, Note_off_c, 9, 49, 127
6, 576960, Note_off_c, 9, 38, 127
6, 576960, Note_on_c, 9, 49, 127
6, 576960, Note_on_c, 9, 38, 127
6, 577440, Note_off_c, 9, 49, 127
6, 577440, Note_off_c, 9, 38, 127
6, 577440, Note_on_c, 9, 46, 127
6, 577440, Note_on_c, 9, 38, 127
6, 577920, Note_off_c, 9, 46, 127
6, 577920, Note_off_c, 9, 38, 127
6, 577920, Note_on_c, 9, 38, 127
6, 578080, Note_off_c, 9, 38, 127
6, 578080, Note_on_c, 9, 38, 127
6, 578240, Note_off_c, 9, 38, 127
6, 578240, Note_on_c, 9, 38, 127
6, 578400, Note_off_c, 9, 38, 127
6, 578400, Note_on_c, 9, 38, 127
6, 578560, Note_off_c, 9, 38, 127
6, 578560, Note_on_c, 9, 38, 127
6, 578720, Note_off_c, 9, 38, 127
6, 578720, Note_on_c, 9, 38, 127
6, 578880, Note_off_c, 9, 38, 127
6, 578880, Note_on_c, 9, 49, 127
6, 578880, Note_on_c, 9, 35, 127
6, 580320, Note_off_c, 9, 49, 127
6, 580320, Note_off_c, 9, 35, 127
6, 580320, Note_on_c, 9, 51, 127
6, 580480, Note_off_c, 9, 51, 127
6, 580480, Note_on_c, 9, 51, 127
6, 580640, Note_off_c, 9, 51, 127
6, 580640, Note_on_c, 9, 51, 127
6, 580800, Note_off_c, 9, 51, 127
6, 580800, Note_on_c, 9, 51, 127
6, 581040, Note_off_c, 9, 51, 127
6, 581040, Note_on_c, 9, 38, 127
6, 581280, Note_off_c, 9, 38, 127
6, 581280, Note_on_c, 9, 48, 127
6, 581520, Note_off_c, 9, 48, 127
6, 581520, Note_on_c, 9, 47, 127
6, 581760, Note_off_c, 9, 47, 127
6, 581760, Note_on_c, 9, 45, 127
6, 582080, Note_off_c, 9, 45, 127
6, 582080, Note_on_c, 9, 43, 127
6, 582400, Note_off_c, 9, 43, 127
6, 582400, Note_on_c, 9, 41, 127
6, 582720, Note_off_c, 9, 41, 127
6, 582720, Note_on_c, 9, 49, 127
6, 582720, Note_on_c, 9, 38, 127
6, 582840, Note_off_c, 9, 49, 127
6, 582840, Note_off_c, 9, 38, 127
6, 582840, Note_on_c, 9, 41, 127
6, 582960, Note_off_c, 9, 41, 127
6, 582960, Note_on_c, 9, 49, 127
6, 582960, Note_on_c, 9, 38, 127
6, 583200, Note_off_c, 9, 49, 127
6, 583200, Note_off_c, 9, 38, 127
6, 583200, Note_on_c, 9, 49, 127
6, 583200, Note_on_c, 9, 38, 127
6, 583200, Note_on_c, 9, 35, 127
6, 584160, Note_off_c, 9, 49, 127
6, 584160, Note_off_c, 9, 38, 127
6, 584160, Note_off_c, 9, 35, 127
6, 584160, Note_on_c, 9, 51, 127
6, 584640, Note_off_c, 9, 51, 127
6, 584640, Note_on_c, 9, 38, 127
6, 584960, Note_off_c, 9, 38, 127
6, 584960, Note_on_c, 9, 51, 127
6, 584960, Note_on_c, 9, 38, 127
6, 585280, Note_off_c, 9, 51, 127
6, 585280, Note_off_c, 9, 38, 127
6, 585280, Note_on_c, 9, 38, 127
6, 585600, Note_off_c, 9, 38, 127
6, 585600, Note_on_c, 9, 51, 127
6, 585600, Note_on_c, 9, 49, 127
6, 586080, Note_off_c, 9, 51, 127
6, 586080, Note_off_c, 9, 49, 127
6, 586080, Note_on_c, 9, 51, 127
6, 586320, Note_off_c, 9, 51, 127
6, 586320, Note_on_c, 9, 47, 127
6, 586560, Note_off_c, 9, 47, 127
6, 586560, Note_on_c, 9, 47, 127
6, 586800, Note_off_c, 9, 47, 127
6, 586800, Note_on_c, 9, 48, 127
6, 587040, Note_off_c, 9, 48, 127
6, 587040, Note_on_c, 9, 35, 127
6, 587280, Note_off_c, 9, 35, 127
6, 587280, Note_on_c, 9, 38, 127
6, 587520, Note_off_c, 9, 38, 127
6, 587520, Note_on_c, 9, 42, 127
6, 587520, Note_on_c, 9, 35, 127
6, 587760, Note_off_c, 9, 42, 127
6, 587760, Note_off_c, 9, 35, 127
6, 587760, Note_on_c, 9, 50, 127
6, 588000, Note_off_c, 9, 50, 127
6, 588000, Note_on_c, 9, 51, 127
6, 588240, Note_off_c, 9, 51, 127
6, 588240, Note_on_c, 9, 38, 127
6, 588480, Note_off_c, 9, 38, 127
6, 588480, Note_on_c, 9, 48, 127
6, 588720, Note_off_c, 9, 48, 127
6, 588720, Note_on_c, 9, 38, 127
6, 588960, Note_off_c, 9, 38, 127
6, 588960, Note_on_c, 9, 35, 127
6, 589200, Note_off_c, 9, 35, 127
6, 589200, Note_on_c, 9, 38, 127
6, 589440, Note_off_c, 9, 38, 127
6, 589440, Note_on_c, 9, 49, 127
6, 589440, Note_on_c, 9, 38, 127
6, 589440, Note_on_c, 9, 35, 127
6, 590400, Note_off_c, 9, 49, 127
6, 590400, Note_off_c, 9, 38, 127
6, 590400, Note_off_c, 9, 35, 127
6, 590400, Note_on_c, 9, 51, 127
6, 591120, Note_off_c, 9, 51, 127
6, 591120, Note_on_c, 9, 51, 127
6, 591360, Note_off_c, 9, 51, 127
6, 591360, Note_on_c, 9, 51, 127
6, 591360, Note_on_c, 9, 38, 127
6, 591840, Note_off_c, 9, 51, 127
6, 591840, Note_off_c, 9, 38, 127
6, 591840, Note_on_c, 9, 51, 127
6, 592320, Note_off_c, 9, 51, 127
6, 592320, Note_on_c, 9, 49, 127
6, 592320, Note_on_c, 9, 38, 127
6, 592581, Note_off_c, 9, 49, 127
6, 592581, Note_off_c, 9, 38, 127
6, 592581, Note_on_c, 9, 38, 127
6, 592842, Note_off_c, 9, 38, 127
6, 592842, Note_on_c, 9, 35, 127
6, 593103, Note_off_c, 9, 35, 127
6, 593103, Note_on_c, 9, 35, 127
6, 593364, Note_off_c, 9, 35, 127
6, 593364, Note_on_c, 9, 38, 127
6, 593625, Note_off_c, 9, 38, 127
6, 593625, Note_on_c, 9, 35, 127
6, 593886, Note_off_c, 9, 35, 127
6, 593886, Note_on_c, 9, 41, 127
6, 594147, Note_off_c, 9, 41, 127
6, 594147, Note_on_c, 9, 43, 127
6, 594147, Note_on_c, 9, 41, 127
6, 594408, Note_off_c, 9, 43, 127
6, 594408, Note_off_c, 9, 41, 127
6, 594408, Note_on_c, 9, 43, 127
6, 594408, Note_on_c, 9, 41, 127
6, 594669, Note_off_c, 9, 43, 127
6, 594669, Note_off_c, 9, 41, 127
6, 594669, Note_on_c, 9, 47, 127
6, 594669, Note_on_c, 9, 45, 127
6, 594930, Note_off_c, 9, 47, 127
6, 594930, Note_off_c, 9, 45, 127
6, 594930, Note_on_c, 9, 47, 127
6, 594930, Note_on_c, 9, 45, 127
6, 595191, Note_off_c, 9, 47, 127
6, 595191, Note_off_c, 9, 45, 127
6, 595200, Note_on_c, 9, 57, 127
6, 595200, Note_on_c, 9, 38, 127
6, 595776, Note_off_c, 9, 57, 127
6, 595776, Note_off_c, 9, 38, 127
6, 595776, Note_on_c, 9, 57, 127
6, 595776, Note_on_c, 9, 38, 127
6, 596352, Note_off_c, 9, 57, 127
6, 596352, Note_off_c, 9, 38, 127
6, 596352, Note_on_c, 9, 47, 127
6, 596928, Note_off_c, 9, 47, 127
6, 596928, Note_on_c, 9, 49, 127
6, 596928, Note_on_c, 9, 47, 127
6, 597504, Note_off_c, 9, 49, 127
6, 597504, Note_off_c, 9, 47, 127
6, 597504, Note_on_c, 9, 49, 127
6, 597504, Note_on_c, 9, 43, 127
6, 598080, Note_off_c, 9, 49, 127
6, 598080, Note_off_c, 9, 43, 127
6, 598080, Note_on_c, 9, 57, 127
6, 598080, Note_on_c, 9, 35, 127
6, 599040, Note_off_c, 9, 57, 127
6, 599040, Note_off_c, 9, 35, 127
6, 599040, Note_on_c, 9, 53, 127
6, 599520, Note_off_c, 9, 53, 127
6, 599520, Note_on_c, 9, 38, 127
6, 600000, Note_off_c, 9, 38, 127
6, 600000, Note_on_c, 9, 38, 127
6, 600160, Note_off_c, 9, 38, 127
6, 600160, Note_on_c, 9, 38, 127
6, 600320, Note_off_c, 9, 38, 127
6, 600320, Note_on_c, 9, 38, 127
6, 600480, Note_off_c, 9, 38, 127
6, 600480, Note_on_c, 9, 38, 127
6, 600640, Note_off_c, 9, 38, 127
6, 600640, Note_on_c, 9, 38, 127
6, 600800, Note_off_c, 9, 38, 127
6, 600800, Note_on_c, 9, 41, 127
6, 600960, Note_off_c, 9, 41, 127
6, 600960, Note_on_c, 9, 49, 127
6, 600960, Note_on_c, 9, 35, 127
6, 601920, Note_off_c, 9, 49, 127
6, 601920, Note_off_c, 9, 35, 127
6, 601920, Note_on_c, 9, 51, 127
6, 602160, Note_off_c, 9, 51, 127
6, 602160, Note_on_c, 9, 38, 127
6, 602400, Note_off_c, 9, 38, 127
6, 602400, Note_on_c, 9, 47, 127
6, 602400, Note_on_c, 9, 45, 127
6, 602640, Note_off_c, 9, 47, 127
6, 602640, Note_off_c, 9, 45, 127
6, 602640, Note_on_c, 9, 48, 127
6, 602640, Note_on_c, 9, 47, 127
6, 602880, Note_off_c, 9, 48, 127
6, 602880, Note_off_c, 9, 47, 127
6, 602880, Note_on_c, 9, 45, 127
6, 602880, Note_on_c, 9, 43, 127
6, 603120, Note_off_c, 9, 45, 127
6, 603120, Note_off_c, 9, 43, 127
6, 603120, Note_on_c, 9, 45, 127
6, 603120, Note_on_c, 9, 43, 127
6, 603360, Note_off_c, 9, 45, 127
6, 603360, Note_off_c, 9, 43, 127
6, 603360, Note_on_c, 9, 41, 127
6, 603360, Note_on_c, 9, 38, 127
6, 603600, Note_off_c, 9, 41, 127
6, 603600, Note_off_c, 9, 38, 127
6, 603600, Note_on_c, 9, 41, 127
6, 603600, Note_on_c, 9, 38, 127
6, 603840, Note_off_c, 9, 41, 127
6, 603840, Note_off_c, 9, 38, 127
6, 603840, Note_on_c, 9, 38, 127
6, 604032, Note_off_c, 9, 38, 127
6, 604032, Note_on_c, 9, 38, 127
6, 604224, Note_off_c, 9, 38, 127
6, 604224, Note_on_c, 9, 38, 127
6, 604416, Note_off_c, 9, 38, 127
6, 604416, Note_on_c, 9, 38, 127
6, 604608, Note_off_c, 9, 38, 127
6, 604608, Note_on_c, 9, 38, 127
6, 604800, Note_off_c, 9, 38, 127
6, 604800, Note_on_c, 9, 49, 127
6, 604800, Note_on_c, 9, 35, 127
6, 605760, Note_off_c, 9, 49, 127
6, 605760, Note_off_c, 9, 35, 127
6, 605760, Note_on_c, 9, 51, 127
6, 606240, Note_off_c, 9, 51, 127
6, 606240, Note_on_c, 9, 51, 127
6, 606560, Note_off_c, 9, 51, 127
6, 606560, Note_on_c, 9, 35, 127
6, 606720, Note_off_c, 9, 35, 127
6, 606720, Note_on_c, 9, 51, 127
6, 606720, Note_on_c, 9, 38, 127
6, 606960, Note_off_c, 9, 51, 127
6, 606960, Note_off_c, 9, 38, 127
6, 606960, Note_on_c, 9, 51, 127
6, 607200, Note_off_c, 9, 51, 127
6, 607200, Note_on_c, 9, 53, 127
6, 607440, Note_off_c, 9, 53, 127
6, 607440, Note_on_c, 9, 51, 127
6, 607680, Note_off_c, 9, 51, 127
6, 607680, Note_on_c, 9, 51, 127
6, 607680, Note_on_c, 9, 35, 127
6, 607920, Note_off_c, 9, 51, 127
6, 607920, Note_off_c, 9, 35, 127
6, 607920, Note_on_c, 9, 51, 127
6, 608160, Note_off_c, 9, 51, 127
6, 608160, Note_on_c, 9, 53, 127
6, 608400, Note_off_c, 9, 53, 127
6, 608400, Note_on_c, 9, 51, 127
6, 608640, Note_off_c, 9, 51, 127
6, 608640, Note_on_c, 9, 51, 127
6, 608640, Note_on_c, 9, 35, 127
6, 609120, Note_off_c, 9, 51, 127
6, 609120, Note_off_c, 9, 35, 127
6, 609120, Note_on_c, 9, 38, 127
6, 609280, Note_off_c, 9, 38, 127
6, 609280, Note_on_c, 9, 38, 127
6, 609440, Note_off_c, 9, 38, 127
6, 609440, Note_on_c, 9, 38, 127
6, 609600, Note_off_c, 9, 38, 127
6, 609600, Note_on_c, 9, 38, 127
6, 609792, Note_off_c, 9, 38, 127
6, 609792, Note_on_c, 9, 38, 127
6, 609984, Note_off_c, 9, 38, 127
6, 609984, Note_on_c, 9, 38, 127
6, 610176, Note_off_c, 9, 38, 127
6, 610176, Note_on_c, 9, 38, 127
6, 610368, Note_off_c, 9, 38, 127
6, 610368, Note_on_c, 9, 38, 127
6, 610560, Note_off_c, 9, 38, 127
6, 610560, Note_on_c, 9, 49, 127
6, 610560, Note_on_c, 9, 35, 127
6, 611520, Note_off_c, 9, 49, 127
6, 611520, Note_off_c, 9, 35, 127
6, 611520, Note_on_c, 9, 51, 127
6, 612480, Note_off_c, 9, 51, 127
6, 612480, Note_on_c, 9, 51, 127
6, 612720, Note_off_c, 9, 51, 127
6, 612720, Note_on_c, 9, 38, 127
6, 612960, Note_off_c, 9, 38, 127
6, 612960, Note_on_c, 9, 47, 127
6, 613200, Note_off_c, 9, 47, 127
6, 613200, Note_on_c, 9, 50, 127
6, 613440, Note_off_c, 9, 50, 127
6, 613440, Note_on_c, 9, 45, 127
6, 613680, Note_off_c, 9, 45, 127
6, 613680, Note_on_c, 9, 47, 127
6, 613680, Note_on_c, 9, 45, 127
6, 613920, Note_off_c, 9, 47, 127
6, 613920, Note_off_c, 9, 45, 127
6, 613920, Note_on_c, 9, 43, 127
6, 613920, Note_on_c, 9, 41, 127
6, 614160, Note_off_c, 9, 43, 127
6, 614160, Note_off_c, 9, 41, 127
6, 614160, Note_on_c, 9, 43, 127
6, 614400, Note_off_c, 9, 43, 127
6, 614400, Note_on_c, 9, 41, 127
6, 614400, Note_on_c, 9, 38, 127
6, 614640, Note_off_c, 9, 41, 127
6, 614640, Note_off_c, 9, 38, 127
6, 614640, Note_on_c, 9, 38, 127
6, 614880, Note_off_c, 9, 38, 127
6, 614880, Note_on_c, 9, 38, 127
6, 615120, Note_off_c, 9, 38, 127
6, 615120, Note_on_c, 9, 38, 127
6, 615360, Note_off_c, 9, 38, 127
6, 615360, Note_on_c, 9, 51, 127
6, 615360, Note_on_c, 9, 49, 127
6, 615360, Note_on_c, 9, 35, 127
6, 615840, Note_off_c, 9, 51, 127
6, 615840, Note_off_c, 9, 49, 127
6, 615840, Note_off_c, 9, 35, 127
6, 615840, Note_on_c, 9, 51, 127
6, 616320, Note_off_c, 9, 51, 127
6, 616320, Note_on_c, 9, 51, 127
6, 616800, Note_off_c, 9, 51, 127
6, 616800, Note_on_c, 9, 51, 127
6, 617280, Note_off_c, 9, 51, 127
6, 617280, Note_on_c, 9, 38, 127
6, 617520, Note_off_c, 9, 38, 127
6, 617520, Note_on_c, 9, 51, 127
6, 617760, Note_off_c, 9, 51, 127
6, 617760, Note_on_c, 9, 38, 127
6, 618000, Note_off_c, 9, 38, 127
6, 618000, Note_on_c, 9, 38, 127
6, 618240, Note_off_c, 9, 38, 127
6, 618240, Note_on_c, 9, 51, 127
6, 618240, Note_on_c, 9, 49, 127
6, 618240, Note_on_c, 9, 35, 127
6, 618720, Note_off_c, 9, 51, 127
6, 618720, Note_off_c, 9, 49, 127
6, 618720, Note_off_c, 9, 35, 127
6, 618720, Note_on_c, 9, 51, 127
6, 618960, Note_off_c, 9, 51, 127
6, 618960, Note_on_c, 9, 38, 127
6, 619200, Note_off_c, 9, 38, 127
6, 619200, Note_on_c, 9, 51, 127
6, 619200, Note_on_c, 9, 38, 127
6, 619680, Note_off_c, 9, 51, 127
6, 619680, Note_off_c, 9, 38, 127
6, 619680, Note_on_c, 9, 55, 127
6, 619680, Note_on_c, 9, 35, 127
6, 620160, Note_off_c, 9, 55, 127
6, 620160, Note_off_c, 9, 35, 127
6, 620160, Note_on_c, 9, 51, 127
6, 620320, Note_off_c, 9, 51, 127
6, 620320, Note_on_c, 9, 38, 127
6, 620480, Note_off_c, 9, 38, 127
6, 620480, Note_on_c, 9, 51, 127
6, 620640, Note_off_c, 9, 51, 127
6, 620640, Note_on_c, 9, 38, 127
6, 620800, Note_off_c, 9, 38, 127
6, 620800, Note_on_c, 9, 38, 127
6, 620960, Note_off_c, 9, 38, 127
6, 620960, Note_on_c, 9, 38, 127
6, 621120, Note_off_c, 9, 38, 127
6, 621120, Note_on_c, 9, 51, 127
6, 621120, Note_on_c, 9, 49, 127
6, 621120, Note_on_c, 9, 35, 127
6, 621360, Note_off_c, 9, 51, 127
6, 621360, Note_off_c, 9, 49, 127
6, 621360, Note_off_c, 9, 35, 127
6, 621360, Note_on_c, 9, 35, 127
6, 621600, Note_off_c, 9, 35, 127
6, 621600, Note_on_c, 9, 51, 127
6, 621840, Note_off_c, 9, 51, 127
6, 621840, Note_on_c, 9, 35, 127
6, 622080, Note_off_c, 9, 35, 127
6, 622080, Note_on_c, 9, 52, 127
6, 622080, Note_on_c, 9, 38, 127
6, 622320, Note_off_c, 9, 52, 127
6, 622320, Note_off_c, 9, 38, 127
6, 622320, Note_on_c, 9, 51, 127
6, 622560, Note_off_c, 9, 51, 127
6, 622560, Note_on_c, 9, 53, 127
6, 622800, Note_off_c, 9, 53, 127
6, 622800, Note_on_c, 9, 35, 127
6, 623040, Note_off_c, 9, 35, 127
6, 623040, Note_on_c, 9, 51, 127
6, 623040, Note_on_c, 9, 35, 127
6, 623520, Note_off_c, 9, 51, 127
6, 623520, Note_off_c, 9, 35, 127
6, 623520, Note_on_c, 9, 51, 127
6, 623760, Note_off_c, 9, 51, 127
6, 623760, Note_on_c, 9, 38, 127
6, 624000, Note_off_c, 9, 38, 127
6, 624000, Note_on_c, 9, 51, 127
6, 624240, Note_off_c, 9, 51, 127
6, 624240, Note_on_c, 9, 38, 127
6, 624480, Note_off_c, 9, 38, 127
6, 624480, Note_on_c, 9, 51, 127
6, 624720, Note_off_c, 9, 51, 127
6, 624720, Note_on_c, 9, 38, 127
6, 624960, Note_off_c, 9, 38, 127
6, 624960, Note_on_c, 9, 51, 127
6, 624960, Note_on_c, 9, 38, 127
6, 625440, Note_off_c, 9, 51, 127
6, 625440, Note_off_c, 9, 38, 127
6, 625440, Note_on_c, 9, 49, 127
6, 625440, Note_on_c, 9, 38, 127
6, 625600, Note_off_c, 9, 49, 127
6, 625600, Note_off_c, 9, 38, 127
6, 625600, Note_on_c, 9, 49, 127
6, 625600, Note_on_c, 9, 38, 127
6, 625760, Note_off_c, 9, 49, 127
6, 625760, Note_off_c, 9, 38, 127
6, 625760, Note_on_c, 9, 49, 127
6, 625760, Note_on_c, 9, 38, 127
6, 625920, Note_off_c, 9, 49, 127
6, 625920, Note_off_c, 9, 38, 127
6, 625920, Note_on_c, 9, 49, 127
6, 625920, Note_on_c, 9, 38, 127
6, 626160, Note_off_c, 9, 49, 127
6, 626160, Note_off_c, 9, 38, 127
6, 626160, Note_on_c, 9, 49, 127
6, 626160, Note_on_c, 9, 35, 127
6, 626400, Note_off_c, 9, 49, 127
6, 626400, Note_off_c, 9, 35, 127
6, 626400, Note_on_c, 9, 38, 127
6, 626640, Note_off_c, 9, 38, 127
6, 626640, Note_on_c, 9, 35, 127
6, 626880, Note_off_c, 9, 35, 127
6, 626880, Note_on_c, 9, 57, 127
6, 626880, Note_on_c, 9, 35, 127
6, 627360, Note_off_c, 9, 57, 127
6, 627360, Note_off_c, 9, 35, 127
6, 627360, Note_on_c, 9, 51, 127
6, 627840, Note_off_c, 9, 51, 127
6, 627840, Note_on_c, 9, 51, 127
6, 627840, Note_on_c, 9, 38, 127
6, 628320, Note_off_c, 9, 51, 127
6, 628320, Note_off_c, 9, 38, 127
6, 628320, Note_on_c, 9, 51, 127
6, 628560, Note_off_c, 9, 51, 127
6, 628560, Note_on_c, 9, 43, 127
6, 628800, Note_off_c, 9, 43, 127
6, 628800, Note_on_c, 9, 51, 127
6, 628800, Note_on_c, 9, 45, 127
6, 629040, Note_off_c, 9, 51, 127
6, 629040, Note_off_c, 9, 45, 127
6, 629040, Note_on_c, 9, 53, 127
6, 629280, Note_off_c, 9, 53, 127
6, 629280, Note_on_c, 9, 45, 127
6, 629520, Note_off_c, 9, 45, 127
6, 629520, Note_on_c, 9, 51, 127
6, 629760, Note_off_c, 9, 51, 127
6, 629760, Note_on_c, 9, 50, 127
6, 629760, Note_on_c, 9, 48, 127
6, 630000, Note_off_c, 9, 50, 127
6, 630000, Note_off_c, 9, 48, 127
6, 630000, Note_on_c, 9, 41, 127
6, 630000, Note_on_c, 9, 38, 127
6, 630240, Note_off_c, 9, 41, 127
6, 630240, Note_off_c, 9, 38, 127
6, 630240, Note_on_c, 9, 50, 127
6, 630240, Note_on_c, 9, 48, 127
6, 630480, Note_off_c, 9, 50, 127
6, 630480, Note_off_c, 9, 48, 127
6, 630480, Note_on_c, 9, 48, 127
6, 630480, Note_on_c, 9, 47, 127
6, 630720, Note_off_c, 9, 48, 127
6, 630720, Note_off_c, 9, 47, 127
6, 630720, Note_on_c, 9, 48, 127
6, 630720, Note_on_c, 9, 47, 127
6, 630960, Note_off_c, 9, 48, 127
6, 630960, Note_off_c, 9, 47, 127
6, 630960, Note_on_c, 9, 50, 127
6, 631200, Note_off_c, 9, 50, 127
6, 631200, Note_on_c, 9, 47, 127
6, 631200, Note_on_c, 9, 45, 127
6, 631440, Note_off_c, 9, 47, 127
6, 631440, Note_off_c, 9, 45, 127
6, 631440, Note_on_c, 9, 45, 127
6, 631440, Note_on_c, 9, 41, 127
6, 631680, Note_off_c, 9, 45, 127
6, 631680, Note_off_c, 9, 41, 127
6, 631680, Note_on_c, 9, 51, 127
6, 631872, Note_off_c, 9, 51, 127
6, 631872, Note_on_c, 9, 45, 127
6, 632064, Note_off_c, 9, 45, 127
6, 632064, Note_on_c, 9, 53, 127
6, 632256, Note_off_c, 9, 53, 127
6, 632256, Note_on_c, 9, 47, 127
6, 632256, Note_on_c, 9, 45, 127
6, 632448, Note_off_c, 9, 47, 127
6, 632448, Note_off_c, 9, 45, 127
6, 632448, Note_on_c, 9, 51, 127
6, 632640, Note_off_c, 9, 51, 127
6, 632640, Note_on_c, 9, 53, 127
6, 632640, Note_on_c, 9, 47, 127
6, 632960, Note_off_c, 9, 53, 127
6, 632960, Note_off_c, 9, 47, 127
6, 633280, Note_on_c, 9, 53, 127
6, 633280, Note_on_c, 9, 47, 127
6, 633600, Note_off_c, 9, 53, 127
6, 633600, Note_off_c, 9, 47, 127
6, 633984, Note_on_c, 9, 43, 127
6, 634176, Note_off_c, 9, 43, 127
6, 634176, Note_on_c, 9, 43, 127
6, 634368, Note_off_c, 9, 43, 127
6, 634368, Note_on_c, 9, 43, 127
6, 634560, Note_off_c, 9, 43, 127
6, 634560, Note_on_c, 9, 57, 127
6, 634560, Note_on_c, 9, 38, 127
6, 635040, Note_off_c, 9, 57, 127
6, 635040, Note_off_c, 9, 38, 127
6, 635040, Note_on_c, 9, 57, 127
6, 635520, Note_off_c, 9, 57, 127
6, 635520, Note_on_c, 9, 53, 127
6, 636000, Note_off_c, 9, 53, 127
6, 636000, Note_on_c, 9, 53, 127
6, 636240, Note_off_c, 9, 53, 127
6, 636240, Note_on_c, 9, 38, 127
6, 636480, Note_off_c, 9, 38, 127
6, 636480, Note_on_c, 9, 53, 127
6, 636600, Note_off_c, 9, 53, 127
6, 636600, Note_on_c, 9, 47, 127
6, 636720, Note_off_c, 9, 47, 127
6, 636720, Note_on_c, 9, 48, 127
6, 636840, Note_off_c, 9, 48, 127
6, 636840, Note_on_c, 9, 43, 127
6, 636960, Note_off_c, 9, 43, 127
6, 636960, Note_on_c, 9, 43, 127
6, 637080, Note_off_c, 9, 43, 127
6, 637080, Note_on_c, 9, 38, 127
6, 637200, Note_off_c, 9, 38, 127
6, 637200, Note_on_c, 9, 38, 127
6, 637320, Note_off_c, 9, 38, 127
6, 637320, Note_on_c, 9, 38, 127
6, 637440, Note_off_c, 9, 38, 127
6, 637440, Note_on_c, 9, 46, 127
6, 637440, Note_on_c, 9, 35, 127
6, 637680, Note_off_c, 9, 46, 127
6, 637680, Note_off_c, 9, 35, 127
6, 637680, Note_on_c, 9, 44, 127
6, 637680, Note_on_c, 9, 35, 127
6, 637920, Note_off_c, 9, 44, 127
6, 637920, Note_off_c, 9, 35, 127
6, 637920, Note_on_c, 9, 46, 127
6, 637920, Note_on_c, 9, 38, 127
6, 638160, Note_off_c, 9, 46, 127
6, 638160, Note_off_c, 9, 38, 127
6, 638160, Note_on_c, 9, 44, 127
6, 638160, Note_on_c, 9, 35, 127
6, 638400, Note_off_c, 9, 44, 127
6, 638400, Note_off_c, 9, 35, 127
6, 638400, Note_on_c, 9, 49, 127
6, 638400, Note_on_c, 9, 35, 127
6, 638560, Note_off_c, 9, 49, 127
6, 638560, Note_off_c, 9, 35, 127
6, 638720, Note_on_c, 9, 51, 127
6, 638720, Note_on_c, 9, 35, 127
6, 638880, Note_off_c, 9, 51, 127
6, 638880, Note_off_c, 9, 35, 127
6, 639040, Note_on_c, 9, 51, 127
6, 639040, Note_on_c, 9, 35, 127
6, 639200, Note_off_c, 9, 51, 127
6, 639200, Note_off_c, 9, 35, 127
6, 639200, Note_on_c, 9, 51, 127
6, 639200, Note_on_c, 9, 35, 127
6, 639360, Note_off_c, 9, 51, 127
6, 639360, Note_off_c, 9, 35, 127
6, 639360, Note_on_c, 9, 51, 127
6, 639360, Note_on_c, 9, 35, 127
6, 639634, Note_off_c, 9, 51, 127
6, 639634, Note_off_c, 9, 35, 127
6, 639634, Note_on_c, 9, 51, 127
6, 639634, Note_on_c, 9, 35, 127
6, 639908, Note_off_c, 9, 51, 127
6, 639908, Note_off_c, 9, 35, 127
6, 639908, Note_on_c, 9, 51, 127
6, 639908, Note_on_c, 9, 35, 127
6, 640182, Note_off_c, 9, 51, 127
6, 640182, Note_off_c, 9, 35, 127
6, 640182, Note_on_c, 9, 53, 127
6, 640182, Note_on_c, 9, 35, 127
6, 640456, Note_off_c, 9, 53, 127
6, 640456, Note_off_c, 9, 35, 127
6, 640456, Note_on_c, 9, 51, 127
6, 640456, Note_on_c, 9, 38, 127
6, 640730, Note_off_c, 9, 51, 127
6, 640730, Note_off_c, 9, 38, 127
6, 640730, Note_on_c, 9, 53, 127
6, 640730, Note_on_c, 9, 38, 127
6, 641004, Note_off_c, 9, 53, 127
6, 641004, Note_off_c, 9, 38, 127
6, 641004, Note_on_c, 9, 51, 127
6, 641004, Note_on_c, 9, 38, 127
6, 641278, Note_off_c, 9, 51, 127
6, 641278, Note_off_c, 9, 38, 127
6, 641280, Note_on_c, 9, 57, 127
6, 641280, Note_on_c, 9, 38, 127
6, 642240, Note_off_c, 9, 57, 127
6, 642240, Note_off_c, 9, 38, 127
6, 642480, Note_on_c, 9, 51, 127
6, 642720, Note_off_c, 9, 51, 127
6, 642720, Note_on_c, 9, 45, 127
6, 642960, Note_off_c, 9, 45, 127
6, 642960, Note_on_c, 9, 47, 127
6, 643040, Note_off_c, 9, 47, 127
6, 643040, Note_on_c, 9, 41, 127
6, 643120, Note_off_c, 9, 41, 127
6, 643120, Note_on_c, 9, 41, 127
6, 643200, Note_off_c, 9, 41, 127
6, 643200, Note_on_c, 9, 38, 127
6, 643360, Note_off_c, 9, 38, 127
6, 643360, Note_on_c, 9, 38, 127
6, 643520, Note_off_c, 9, 38, 127
6, 643520, Note_on_c, 9, 38, 127
6, 643680, Note_off_c, 9, 38, 127
6, 643680, Note_on_c, 9, 49, 127
6, 643680, Note_on_c, 9, 35, 127
6, 644640, Note_off_c, 9, 49, 127
6, 644640, Note_off_c, 9, 35, 127
6, 644640, Note_on_c, 9, 38, 127
6, 645600, Note_off_c, 9, 38, 127
6, 645760, Note_on_c, 9, 45, 127
6, 645920, Note_off_c, 9, 45, 127
6, 645920, Note_on_c, 9, 45, 127
6, 646080, Note_off_c, 9, 45, 127
6, 646080, Note_on_c, 9, 57, 127
6, 646080, Note_on_c, 9, 35, 127
6, 646560, Note_off_c, 9, 57, 127
6, 646560, Note_off_c, 9, 35, 127
6, 646560, Note_on_c, 9, 51, 127
6, 647040, Note_off_c, 9, 51, 127
6, 647040, Note_on_c, 9, 51, 127
6, 647040, Note_on_c, 9, 38, 127
6, 647520, Note_off_c, 9, 51, 127
6, 647520, Note_off_c, 9, 38, 127
6, 647520, Note_on_c, 9, 50, 127
6, 647680, Note_off_c, 9, 50, 127
6, 647680, Note_on_c, 9, 48, 127
6, 647840, Note_off_c, 9, 48, 127
6, 647840, Note_on_c, 9, 47, 127
6, 648000, Note_off_c, 9, 47, 127
6, 648000, Note_on_c, 9, 48, 127
6, 648240, Note_off_c, 9, 48, 127
6, 648240, Note_on_c, 9, 47, 127
6, 648480, Note_off_c, 9, 47, 127
6, 648480, Note_on_c, 9, 43, 127
6, 648720, Note_off_c, 9, 43, 127
6, 648720, Note_on_c, 9, 41, 127
6, 648960, Note_off_c, 9, 41, 127
6, 648960, Note_on_c, 9, 55, 127
6, 648960, Note_on_c, 9, 35, 127
6, 649440, Note_off_c, 9, 55, 127
6, 649440, Note_off_c, 9, 35, 127
6, 649440, Note_on_c, 9, 38, 127
6, 649680, Note_off_c, 9, 38, 127
6, 649680, Note_on_c, 9, 35, 127
6, 649920, Note_off_c, 9, 35, 127
6, 649920, Note_on_c, 9, 55, 127
6, 650400, Note_off_c, 9, 55, 127
6, 650400, Note_on_c, 9, 51, 127
6, 650400, Note_on_c, 9, 35, 127
6, 650880, Note_off_c, 9, 51, 127
6, 650880, Note_off_c, 9, 35, 127
6, 650880, Note_on_c, 9, 49, 127
6, 650880, Note_on_c, 9, 35, 127
6, 651360, Note_off_c, 9, 49, 127
6, 651360, Note_off_c, 9, 35, 127
6, 651360, Note_on_c, 9, 51, 127
6, 651840, Note_off_c, 9, 51, 127
6, 651840, Note_on_c, 9, 35, 127
6, 651977, Note_off_c, 9, 35, 127
6, 651977, Note_on_c, 9, 53, 127
6, 652114, Note_off_c, 9, 53, 127
6, 652114, Note_on_c, 9, 35, 127
6, 652251, Note_off_c, 9, 35, 127
6, 652251, Note_on_c, 9, 51, 127
6, 652388, Note_off_c, 9, 51, 127
6, 652388, Note_on_c, 9, 38, 127
6, 652525, Note_off_c, 9, 38, 127
6, 652525, Note_on_c, 9, 53, 127
6, 652662, Note_off_c, 9, 53, 127
6, 652662, Note_on_c, 9, 51, 127
6, 652799, Note_off_c, 9, 51, 127
6, 652800, Note_on_c, 9, 49, 127
6, 652800, Note_on_c, 9, 35, 127
6, 653760, Note_off_c, 9, 49, 127
6, 653760, Note_off_c, 9, 35, 127
6, 653760, Note_on_c, 9, 38, 127
6, 653952, Note_off_c, 9, 38, 127
6, 654336, Note_on_c, 9, 53, 127
6, 654336, Note_on_c, 9, 38, 127
6, 654528, Note_off_c, 9, 53, 127
6, 654528, Note_off_c, 9, 38, 127
6, 654528, Note_on_c, 9, 45, 127
6, 654528, Note_on_c, 9, 43, 127
6, 654720, Note_off_c, 9, 45, 127
6, 654720, Note_off_c, 9, 43, 127
6, 654720, Note_on_c, 9, 47, 127
6, 654912, Note_off_c, 9, 47, 127
6, 654912, Note_on_c, 9, 47, 127
6, 655104, Note_off_c, 9, 47, 127
6, 655104, Note_on_c, 9, 43, 127
6, 655296, Note_off_c, 9, 43, 127
6, 655296, Note_on_c, 9, 51, 127
6, 655488, Note_off_c, 9, 51, 127
6, 655488, Note_on_c, 9, 43, 127
6, 655680, Note_off_c, 9, 43, 127
6, 655680, Note_on_c, 9, 48, 127
6, 655800, Note_off_c, 9, 48, 127
6, 655800, Note_on_c, 9, 47, 127
6, 655920, Note_off_c, 9, 47, 127
6, 655920, Note_on_c, 9, 45, 127
6, 656040, Note_off_c, 9, 45, 127
6, 656040, Note_on_c, 9, 50, 127
6, 656160, Note_off_c, 9, 50, 127
6, 656160, Note_on_c, 9, 49, 127
6, 656160, Note_on_c, 9, 38, 127
6, 656640, Note_off_c, 9, 49, 127
6, 656640, Note_off_c, 9, 38, 127
6, 656640, Note_on_c, 9, 51, 127
6, 657120, Note_off_c, 9, 51, 127
6, 657120, Note_on_c, 9, 51, 127
6, 657360, Note_off_c, 9, 51, 127
6, 657360, Note_on_c, 9, 38, 127
6, 657600, Note_off_c, 9, 38, 127
6, 657600, Note_on_c, 9, 51, 127
6, 657600, Note_on_c, 9, 38, 127
6, 658080, Note_off_c, 9, 51, 127
6, 658080, Note_off_c, 9, 38, 127
6, 658080, Note_on_c, 9, 51, 127
6, 658320, Note_off_c, 9, 51, 127
6, 658320, Note_on_c, 9, 38, 127
6, 658440, Note_off_c, 9, 38, 127
6, 658440, Note_on_c, 9, 38, 127
6, 658560, Note_off_c, 9, 38, 127
6, 658560, Note_on_c, 9, 38, 127
6, 658800, Note_off_c, 9, 38, 127
6, 658800, Note_on_c, 9, 48, 127
6, 659040, Note_off_c, 9, 48, 127
6, 659040, Note_on_c, 9, 48, 127
6, 659280, Note_off_c, 9, 48, 127
6, 659280, Note_on_c, 9, 48, 127
6, 659520, Note_off_c, 9, 48, 127
6, 659520, Note_on_c, 9, 41, 127
6, 659760, Note_off_c, 9, 41, 127
6, 659760, Note_on_c, 9, 41, 127
6, 659760, Note_on_c, 9, 35, 127
6, 660000, Note_off_c, 9, 41, 127
6, 660000, Note_off_c, 9, 35, 127
6, 660000, Note_on_c, 9, 49, 127
6, 660000, Note_on_c, 9, 35, 127
6, 660480, Note_off_c, 9, 49, 127
6, 660480, Note_off_c, 9, 35, 127
6, 660480, Note_on_c, 9, 51, 127
6, 660960, Note_off_c, 9, 51, 127
6, 660960, Note_on_c, 9, 51, 127
6, 661200, Note_off_c, 9, 51, 127
6, 661200, Note_on_c, 9, 35, 127
6, 661440, Note_off_c, 9, 35, 127
6, 661440, Note_on_c, 9, 51, 127
6, 661760, Note_off_c, 9, 51, 127
6, 661760, Note_on_c, 9, 53, 127
6, 661760, Note_on_c, 9, 38, 127
6, 662080, Note_off_c, 9, 53, 127
6, 662080, Note_off_c, 9, 38, 127
6, 662080, Note_on_c, 9, 51, 127
6, 662400, Note_off_c, 9, 51, 127
6, 662400, Note_on_c, 9, 53, 127
6, 662400, Note_on_c, 9, 35, 127
6, 662720, Note_off_c, 9, 53, 127
6, 662720, Note_off_c, 9, 35, 127
6, 663040, Note_on_c, 9, 53, 127
6, 663040, Note_on_c, 9, 35, 127
6, 663360, Note_off_c, 9, 53, 127
6, 663360, Note_off_c, 9, 35, 127
6, 663680, Note_on_c, 9, 53, 127
6, 663680, Note_on_c, 9, 35, 127
6, 664000, Note_off_c, 9, 53, 127
6, 664000, Note_off_c, 9, 35, 127
6, 664320, Note_on_c, 9, 35, 127
6, 664457, Note_off_c, 9, 35, 127
6, 664457, Note_on_c, 9, 51, 127
6, 664594, Note_off_c, 9, 51, 127
6, 664594, Note_on_c, 9, 35, 127
6, 664731, Note_off_c, 9, 35, 127
6, 664731, Note_on_c, 9, 53, 127
6, 664868, Note_off_c, 9, 53, 127
6, 664868, Note_on_c, 9, 35, 127
6, 665005, Note_off_c, 9, 35, 127
6, 665005, Note_on_c, 9, 51, 127
6, 665142, Note_off_c, 9, 51, 127
6, 665142, Note_on_c, 9, 53, 127
6, 665279, Note_off_c, 9, 53, 127
6, 665279, Note_on_c, 9, 49, 127
6, 665279, Note_on_c, 9, 38, 127
6, 666239, Note_off_c, 9, 49, 127
6, 666239, Note_off_c, 9, 38, 127
6, 666239, Note_on_c, 9, 51, 127
6, 666959, Note_off_c, 9, 51, 127
6, 666959, Note_on_c, 9, 38, 127
6, 667079, Note_off_c, 9, 38, 127
6, 667079, Note_on_c, 9, 38, 127
6, 667199, Note_off_c, 9, 38, 127
6, 667200, Note_on_c, 9, 38, 127
6, 667520, Note_off_c, 9, 38, 127
6, 667520, Note_on_c, 9, 53, 127
6, 667520, Note_on_c, 9, 45, 127
6, 667840, Note_off_c, 9, 53, 127
6, 667840, Note_off_c, 9, 45, 127
6, 667840, Note_on_c, 9, 53, 127
6, 667840, Note_on_c, 9, 41, 127
6, 668160, Note_off_c, 9, 53, 127
6, 668160, Note_off_c, 9, 41, 127
6, 668160, Note_on_c, 9, 57, 127
6, 668160, Note_on_c, 9, 45, 127
6, 668480, Note_off_c, 9, 57, 127
6, 668480, Note_off_c, 9, 45, 127
6, 668480, Note_on_c, 9, 57, 127
6, 668480, Note_on_c, 9, 47, 127
6, 668800, Note_off_c, 9, 57, 127
6, 668800, Note_off_c, 9, 47, 127
6, 668800, Note_on_c, 9, 57, 127
6, 668800, Note_on_c, 9, 45, 127
6, 669120, Note_off_c, 9, 57, 127
6, 669120, Note_off_c, 9, 45, 127
6, 669120, Note_on_c, 9, 57, 127
6, 669120, Note_on_c, 9, 38, 127
6, 669600, Note_off_c, 9, 57, 127
6, 669600, Note_off_c, 9, 38, 127
6, 669600, Note_on_c, 9, 38, 127
6, 670080, Note_off_c, 9, 38, 127
6, 670080, Note_on_c, 9, 48, 127
6, 670080, Note_on_c, 9, 47, 127
6, 670560, Note_off_c, 9, 48, 127
6, 670560, Note_off_c, 9, 47, 127
6, 670560, Note_on_c, 9, 47, 127
6, 670560, Note_on_c, 9, 45, 127
6, 670800, Note_off_c, 9, 47, 127
6, 670800, Note_off_c, 9, 45, 127
6, 670800, Note_on_c, 9, 47, 127
6, 670800, Note_on_c, 9, 45, 127
6, 671040, Note_off_c, 9, 47, 127
6, 671040, Note_off_c, 9, 45, 127
6, 671040, Note_on_c, 9, 43, 127
6, 671280, Note_off_c, 9, 43, 127
6, 671280, Note_on_c, 9, 41, 127
6, 671520, Note_off_c, 9, 41, 127
6, 671520, Note_on_c, 9, 41, 127
6, 671520, Note_on_c, 9, 38, 127
6, 671760, Note_off_c, 9, 41, 127
6, 671760, Note_off_c, 9, 38, 127
6, 671760, Note_on_c, 9, 38, 127
6, 672000, Note_off_c, 9, 38, 127
6, 672000, Note_on_c, 9, 49, 127
6, 672000, Note_on_c, 9, 35, 127
6, 672480, Note_off_c, 9, 49, 127
6, 672480, Note_off_c, 9, 35, 127
6, 672480, Note_on_c, 9, 35, 127
6, 672640, Note_off_c, 9, 35, 127
6, 672640, Note_on_c, 9, 38, 127
6, 672800, Note_off_c, 9, 38, 127
6, 672800, Note_on_c, 9, 35, 127
6, 672960, Note_off_c, 9, 35, 127
6, 672960, Note_on_c, 9, 38, 127
6, 673120, Note_off_c, 9, 38, 127
6, 673120, Note_on_c, 9, 53, 127
6, 673280, Note_off_c, 9, 53, 127
6, 673280, Note_on_c, 9, 35, 127
6, 673440, Note_off_c, 9, 35, 127
6, 673440, Note_on_c, 9, 51, 127
6, 673600, Note_off_c, 9, 51, 127
6, 673600, Note_on_c, 9, 35, 127
6, 673760, Note_off_c, 9, 35, 127
6, 673760, Note_on_c, 9, 53, 127
6, 673920, Note_off_c, 9, 53, 127
6, 673920, Note_on_c, 9, 35, 127
6, 674080, Note_off_c, 9, 35, 127
6, 674080, Note_on_c, 9, 51, 127
6, 674240, Note_off_c, 9, 51, 127
6, 674240, Note_on_c, 9, 38, 127
6, 674400, Note_off_c, 9, 38, 127
6, 674400, Note_on_c, 9, 53, 127
6, 674560, Note_off_c, 9, 53, 127
6, 674560, Note_on_c, 9, 35, 127
6, 674720, Note_off_c, 9, 35, 127
6, 674720, Note_on_c, 9, 51, 127
6, 674880, Note_off_c, 9, 51, 127
6, 674880, Note_on_c, 9, 35, 127
6, 675040, Note_off_c, 9, 35, 127
6, 675040, Note_on_c, 9, 53, 127
6, 675200, Note_off_c, 9, 53, 127
6, 675200, Note_on_c, 9, 35, 127
6, 675360, Note_off_c, 9, 35, 127
6, 675360, Note_on_c, 9, 38, 127
6, 675520, Note_off_c, 9, 38, 127
6, 675520, Note_on_c, 9, 35, 127
6, 675680, Note_off_c, 9, 35, 127
6, 675680, Note_on_c, 9, 51, 127
6, 675840, Note_off_c, 9, 51, 127
6, 675840, Note_on_c, 9, 49, 127
6, 675840, Note_on_c, 9, 35, 127
6, 677280, Note_off_c, 9, 49, 127
6, 677280, Note_off_c, 9, 35, 127
6, 677280, Note_on_c, 9, 57, 127
6, 677280, Note_on_c, 9, 38, 127
6, 678240, Note_off_c, 9, 57, 127
6, 678240, Note_off_c, 9, 38, 127
6, 678240, Note_on_c, 9, 38, 127
6, 678480, Note_off_c, 9, 38, 127
6, 678480, Note_on_c, 9, 38, 127
6, 678560, Note_off_c, 9, 38, 127
6, 678560, Note_on_c, 9, 38, 127
6, 678640, Note_off_c, 9, 38, 127
6, 678640, Note_on_c, 9, 38, 127
6, 678720, Note_off_c, 9, 38, 127
6, 678720, Note_on_c, 9, 51, 127
6, 678720, Note_on_c, 9, 35, 127
6, 679200, Note_off_c, 9, 51, 127
6, 679200, Note_off_c, 9, 35, 127
6, 679200, Note_on_c, 9, 51, 127
6, 679680, Note_off_c, 9, 51, 127
6, 679680, Note_on_c, 9, 51, 127
6, 679680, Note_on_c, 9, 35, 127
6, 680160, Note_off_c, 9, 51, 127
6, 680160, Note_off_c, 9, 35, 127
6, 680160, Note_on_c, 9, 51, 127
6, 680640, Note_off_c, 9, 51, 127
6, 680640, Note_on_c, 9, 53, 127
6, 680640, Note_on_c, 9, 38, 127
6, 681120, Note_off_c, 9, 53, 127
6, 681120, Note_off_c, 9, 38, 127
6, 681120, Note_on_c, 9, 51, 127
6, 681600, Note_off_c, 9, 51, 127
6, 681600, Note_on_c, 9, 53, 127
6, 681600, Note_on_c, 9, 38, 127
6, 682080, Note_off_c, 9, 53, 127
6, 682080, Note_off_c, 9, 38, 127
6, 682080, Note_on_c, 9, 51, 127
6, 682560, Note_off_c, 9, 51, 127
6, 682560, Note_on_c, 9, 51, 127
6, 682800, Note_off_c, 9, 51, 127
6, 682800, Note_on_c, 9, 45, 127
6, 683040, Note_off_c, 9, 45, 127
6, 683040, Note_on_c, 9, 49, 127
6, 683280, Note_off_c, 9, 49, 127
6, 683280, Note_on_c, 9, 43, 127
6, 683520, Note_off_c, 9, 43, 127
6, 683520, Note_on_c, 9, 49, 127
6, 683760, Note_off_c, 9, 49, 127
6, 683760, Note_on_c, 9, 41, 127
6, 684000, Note_off_c, 9, 41, 127
6, 684000, Note_on_c, 9, 49, 127
6, 684240, Note_off_c, 9, 49, 127
6, 684240, Note_on_c, 9, 41, 127
6, 684480, Note_off_c, 9, 41, 127
6, 684480, Note_on_c, 9, 57, 127
6, 684480, Note_on_c, 9, 35, 127
6, 684960, Note_off_c, 9, 57, 127
6, 684960, Note_off_c, 9, 35, 127
6, 684960, Note_on_c, 9, 53, 127
6, 685200, Note_off_c, 9, 53, 127
6, 685200, Note_on_c, 9, 35, 127
6, 685440, Note_off_c, 9, 35, 127
6, 685440, Note_on_c, 9, 53, 127
6, 685680, Note_off_c, 9, 53, 127
6, 685680, Note_on_c, 9, 38, 127
6, 685920, Note_off_c, 9, 38, 127
6, 685920, Note_on_c, 9, 57, 127
6, 685920, Note_on_c, 9, 38, 127
6, 686400, Note_off_c, 9, 57, 127
6, 686400, Note_off_c, 9, 38, 127
6, 686400, Note_on_c, 9, 53, 127
6, 686640, Note_off_c, 9, 53, 127
6, 686640, Note_on_c, 9, 35, 127
6, 686880, Note_off_c, 9, 35, 127
6, 686880, Note_on_c, 9, 53, 127
6, 687120, Note_off_c, 9, 53, 127
6, 687120, Note_on_c, 9, 35, 127
6, 687360, Note_off_c, 9, 35, 127
6, 687360, Note_on_c, 9, 49, 127
6, 687360, Note_on_c, 9, 35, 127
6, 687840, Note_off_c, 9, 49, 127
6, 687840, Note_off_c, 9, 35, 127
6, 687840, Note_on_c, 9, 51, 127
6, 688080, Note_off_c, 9, 51, 127
6, 688080, Note_on_c, 9, 35, 127
6, 688320, Note_off_c, 9, 35, 127
6, 688320, Note_on_c, 9, 51, 127
6, 688320, Note_on_c, 9, 38, 127
6, 688800, Note_off_c, 9, 51, 127
6, 688800, Note_off_c, 9, 38, 127
6, 688800, Note_on_c, 9, 51, 127
6, 689040, Note_off_c, 9, 51, 127
6, 689040, Note_on_c, 9, 35, 127
6, 689280, Note_off_c, 9, 35, 127
6, 689280, Note_on_c, 9, 51, 127
6, 689280, Note_on_c, 9, 35, 127
6, 689760, Note_off_c, 9, 51, 127
6, 689760, Note_off_c, 9, 35, 127
6, 689760, Note_on_c, 9, 51, 127
6, 690000, Note_off_c, 9, 51, 127
6, 690000, Note_on_c, 9, 35, 127
6, 690240, Note_off_c, 9, 35, 127
6, 690240, Note_on_c, 9, 38, 127
6, 690720, Note_off_c, 9, 38, 127
6, 690720, Note_on_c, 9, 51, 127
6, 690720, Note_on_c, 9, 35, 127
6, 691200, Note_off_c, 9, 51, 127
6, 691200, Note_off_c, 9, 35, 127
6, 691200, Note_on_c, 9, 51, 127
6, 691440, Note_off_c, 9, 51, 127
6, 691440, Note_on_c, 9, 35, 127
6, 691680, Note_off_c, 9, 35, 127
6, 691680, Note_on_c, 9, 49, 127
6, 691680, Note_on_c, 9, 38, 127
6, 692160, Note_off_c, 9, 49, 127
6, 692160, Note_off_c, 9, 38, 127
6, 692160, Note_on_c, 9, 49, 127
6, 692160, Note_on_c, 9, 38, 127
6, 692640, Note_off_c, 9, 49, 127
6, 692640, Note_off_c, 9, 38, 127
6, 692640, Note_on_c, 9, 57, 127
6, 692640, Note_on_c, 9, 35, 127
6, 693120, Note_off_c, 9, 57, 127
6, 693120, Note_off_c, 9, 35, 127
6, 693120, Note_on_c, 9, 57, 127
6, 694080, Note_off_c, 9, 57, 127
6, 694080, Note_on_c, 9, 57, 127
6, 694080, Note_on_c, 9, 49, 127
6, 694200, Note_off_c, 9, 57, 127
6, 694200, Note_on_c, 9, 57, 127
6, 694200, Note_off_c, 9, 49, 127
6, 694200, Note_on_c, 9, 49, 127
6, 694320, Note_off_c, 9, 57, 127
6, 694320, Note_on_c, 9, 57, 127
6, 694320, Note_off_c, 9, 49, 127
6, 694320, Note_on_c, 9, 49, 127
6, 694440, Note_off_c, 9, 57, 127
6, 694440, Note_on_c, 9, 57, 127
6, 694440, Note_off_c, 9, 49, 127
6, 694440, Note_on_c, 9, 49, 127
6, 694560, Note_off_c, 9, 57, 127
6, 694560, Note_on_c, 9, 57, 127
6, 694560, Note_off_c, 9, 49, 127
6, 694560, Note_on_c, 9, 49, 127
6, 694680, Note_off_c, 9, 57, 127
6, 694680, Note_on_c, 9, 57, 127
6, 694680, Note_off_c, 9, 49, 127
6, 694680, Note_on_c, 9, 49, 127
6, 694800, Note_off_c, 9, 57, 127
6, 694800, Note_on_c, 9, 57, 127
6, 694800, Note_off_c, 9, 49, 127
6, 694800, Note_on_c, 9, 49, 127
6, 694920, Note_off_c, 9, 57, 127
6, 694920, Note_on_c, 9, 57, 127
6, 694920, Note_off_c, 9, 49, 127
6, 694920, Note_on_c, 9, 49, 127
6, 695040, Note_off_c, 9, 57, 127
6, 695040, Note_on_c, 9, 57, 127
6, 695040, Note_off_c, 9, 49, 127
6, 695040, Note_on_c, 9, 49, 127
6, 695160, Note_off_c, 9, 57, 127
6, 695160, Note_on_c, 9, 57, 127
6, 695160, Note_off_c, 9, 49, 127
6, 695160, Note_on_c, 9, 49, 127
6, 695280, Note_off_c, 9, 57, 127
6, 695280, Note_on_c, 9, 57, 127
6, 695280, Note_off_c, 9, 49, 127
6, 695280, Note_on_c, 9, 49, 127
6, 695400, Note_off_c, 9, 57, 127
6, 695400, Note_on_c, 9, 57, 127
6, 695400, Note_off_c, 9, 49, 127
6, 695400, Note_on_c, 9, 49, 127
6, 695520, Note_off_c, 9, 57, 127
6, 695520, Note_on_c, 9, 57, 127
6, 695520, Note_off_c, 9, 49, 127
6, 695520, Note_on_c, 9, 49, 127
6, 695640, Note_off_c, 9, 57, 127
6, 695640, Note_on_c, 9, 57, 127
6, 695640, Note_off_c, 9, 49, 127
6, 695640, Note_on_c, 9, 49, 127
6, 695760, Note_off_c, 9, 57, 127
6, 695760, Note_on_c, 9, 57, 127
6, 695760, Note_off_c, 9, 49, 127
6, 695760, Note_on_c, 9, 49, 127
6, 695880, Note_off_c, 9, 57, 127
6, 695880, Note_on_c, 9, 57, 127
6, 695880, Note_off_c, 9, 49, 127
6, 695880, Note_on_c, 9, 49, 127
6, 696000, Note_off_c, 9, 57, 127
6, 696000, Note_on_c, 9, 57, 127
6, 696000, Note_off_c, 9, 49, 127
6, 696000, Note_on_c, 9, 49, 127
6, 696120, Note_off_c, 9, 57, 127
6, 696120, Note_on_c, 9, 57, 127
6, 696120, Note_off_c, 9, 49, 127
6, 696120, Note_on_c, 9, 49, 127
6, 696240, Note_off_c, 9, 57, 127
6, 696240, Note_on_c, 9, 57, 127
6, 696240, Note_off_c, 9, 49, 127
6, 696240, Note_on_c, 9, 49, 127
6, 696360, Note_off_c, 9, 57, 127
6, 696360, Note_on_c, 9, 57, 127
6, 696360, Note_off_c, 9, 49, 127
6, 696360, Note_on_c, 9, 49, 127
6, 696480, Note_off_c, 9, 57, 127
6, 696480, Note_on_c, 9, 57, 127
6, 696480, Note_off_c, 9, 49, 127
6, 696480, Note_on_c, 9, 49, 127
6, 696600, Note_off_c, 9, 57, 127
6, 696600, Note_on_c, 9, 57, 127
6, 696600, Note_off_c, 9, 49, 127
6, 696600, Note_on_c, 9, 49, 127
6, 696720, Note_off_c, 9, 57, 127
6, 696720, Note_on_c, 9, 57, 127
6, 696720, Note_off_c, 9, 49, 127
6, 696720, Note_on_c, 9, 49, 127
6, 696840, Note_off_c, 9, 57, 127
6, 696840, Note_on_c, 9, 57, 127
6, 696840, Note_off_c, 9, 49, 127
6, 696840, Note_on_c, 9, 49, 127
6, 696959, Note_off_c, 9, 57, 127
6, 696959, Note_off_c, 9, 49, 127
6, 696959, End_track
7, 0, Start_track
7, 0, Pitch_bend_c, 2, 8192
7, 0, Control_c, 2, 7, 103
7, 0, Control_c, 2, 10, 63
7, 0, Control_c, 2, 93, 0
7, 0, Control_c, 2, 91, 0
7, 0, Control_c, 2, 95, 0
7, 0, Control_c, 2, 92, 0
7, 0, Control_c, 2, 11, 127
7, 0, Program_c, 2, 8
7, 480, Note_on_c, 2, 73, 127
7, 960, Note_off_c, 2, 73, 127
7, 960, Note_on_c, 2, 76, 127
7, 1440, Note_off_c, 2, 76, 127
7, 1440, Note_on_c, 2, 79, 127
7, 1920, Note_off_c, 2, 79, 127
7, 1920, Note_on_c, 2, 87, 127
7, 2400, Note_off_c, 2, 87, 127
7, 2400, Note_on_c, 2, 82, 127
7, 2880, Note_off_c, 2, 82, 127
7, 2880, Note_on_c, 2, 84, 127
7, 5760, Note_off_c, 2, 84, 127
7, 6240, Note_on_c, 2, 73, 127
7, 6720, Note_off_c, 2, 73, 127
7, 6720, Note_on_c, 2, 76, 127
7, 7200, Note_off_c, 2, 76, 127
7, 7200, Note_on_c, 2, 79, 127
7, 7680, Note_off_c, 2, 79, 127
7, 7680, Note_on_c, 2, 87, 127
7, 8160, Note_off_c, 2, 87, 127
7, 8160, Note_on_c, 2, 82, 127
7, 8640, Note_off_c, 2, 82, 127
7, 8640, Note_on_c, 2, 84, 127
7, 11520, Note_off_c, 2, 84, 127
7, 12000, Note_on_c, 2, 72, 127
7, 12480, Note_off_c, 2, 72, 127
7, 12480, Note_on_c, 2, 75, 127
7, 12960, Note_off_c, 2, 75, 127
7, 12960, Note_on_c, 2, 82, 127
7, 13440, Note_off_c, 2, 82, 127
7, 13440, Note_on_c, 2, 89, 127
7, 13920, Note_off_c, 2, 89, 127
7, 13920, Note_on_c, 2, 78, 127
7, 14400, Note_off_c, 2, 78, 127
7, 14400, Note_on_c, 2, 86, 127
7, 17280, Note_off_c, 2, 86, 127
7, 17760, Note_on_c, 2, 72, 127
7, 18240, Note_off_c, 2, 72, 127
7, 18240, Note_on_c, 2, 75, 127
7, 18720, Note_off_c, 2, 75, 127
7, 18720, Note_on_c, 2, 82, 127
7, 19200, Note_off_c, 2, 82, 127
7, 19200, Note_on_c, 2, 89, 127
7, 19680, Note_off_c, 2, 89, 127
7, 19680, Note_on_c, 2, 78, 127
7, 20160, Note_off_c, 2, 78, 127
7, 20160, Note_on_c, 2, 86, 127
7, 23040, Note_off_c, 2, 86, 127
7, 23520, Note_on_c, 2, 71, 127
7, 24000, Note_off_c, 2, 71, 127
7, 24000, Note_on_c, 2, 74, 127
7, 24480, Note_off_c, 2, 74, 127
7, 24480, Note_on_c, 2, 90, 127
7, 24960, Note_off_c, 2, 90, 127
7, 24960, Note_on_c, 2, 79, 127
7, 25440, Note_off_c, 2, 79, 127
7, 25440, Note_on_c, 2, 86, 127
7, 25920, Note_off_c, 2, 86, 127
7, 25920, Note_on_c, 2, 85, 127
7, 28800, Note_off_c, 2, 85, 127
7, 29280, Note_on_c, 2, 71, 127
7, 29760, Note_off_c, 2, 71, 127
7, 29760, Note_on_c, 2, 74, 127
7, 30240, Note_off_c, 2, 74, 127
7, 30240, Note_on_c, 2, 90, 127
7, 30720, Note_off_c, 2, 90, 127
7, 30720, Note_on_c, 2, 79, 127
7, 31200, Note_off_c, 2, 79, 127
7, 31200, Note_on_c, 2, 86, 127
7, 31680, Note_off_c, 2, 86, 127
7, 31680, Note_on_c, 2, 85, 127
7, 34560, Note_off_c, 2, 85, 127
7, 35040, Note_on_c, 2, 70, 127
7, 35520, Note_off_c, 2, 70, 127
7, 35520, Note_on_c, 2, 73, 127
7, 36000, Note_off_c, 2, 73, 127
7, 36000, Note_on_c, 2, 81, 127
7, 36480, Note_off_c, 2, 81, 127
7, 36480, Note_on_c, 2, 92, 127
7, 36960, Note_off_c, 2, 92, 127
7, 36960, Note_on_c, 2, 89, 127
7, 37440, Note_off_c, 2, 89, 127
7, 37440, Note_on_c, 2, 87, 127
7, 40320, Note_off_c, 2, 87, 127
7, 40800, Note_on_c, 2, 70, 127
7, 41280, Note_off_c, 2, 70, 127
7, 41280, Note_on_c, 2, 73, 127
7, 41760, Note_off_c, 2, 73, 127
7, 41760, Note_on_c, 2, 81, 127
7, 42240, Note_off_c, 2, 81, 127
7, 42240, Note_on_c, 2, 92, 127
7, 42720, Note_off_c, 2, 92, 127
7, 42720, Note_on_c, 2, 89, 127
7, 43200, Note_off_c, 2, 89, 127
7, 43200, Note_on_c, 2, 87, 127
7, 46080, Note_off_c, 2, 87, 127
7, 184320, Note_on_c, 2, 68, 127
7, 184560, Note_off_c, 2, 68, 127
7, 184560, Note_on_c, 2, 74, 127
7, 184800, Note_off_c, 2, 74, 127
7, 184800, Note_on_c, 2, 79, 127
7, 185040, Note_off_c, 2, 79, 127
7, 185040, Note_on_c, 2, 68, 127
7, 185280, Note_off_c, 2, 68, 127
7, 185280, Note_on_c, 2, 84, 127
7, 185520, Note_off_c, 2, 84, 127
7, 185520, Note_on_c, 2, 86, 127
7, 185760, Note_off_c, 2, 86, 127
7, 185760, Note_on_c, 2, 91, 127
7, 186000, Note_off_c, 2, 91, 127
7, 186000, Note_on_c, 2, 80, 127
7, 186240, Note_off_c, 2, 80, 127
7, 186240, Note_on_c, 2, 96, 127
7, 186480, Note_off_c, 2, 96, 127
7, 186480, Note_on_c, 2, 80, 127
7, 186720, Note_off_c, 2, 80, 127
7, 186720, Note_on_c, 2, 91, 127
7, 186960, Note_off_c, 2, 91, 127
7, 186960, Note_on_c, 2, 86, 127
7, 187200, Note_off_c, 2, 86, 127
7, 187200, Note_on_c, 2, 84, 127
7, 187440, Note_off_c, 2, 84, 127
7, 187440, Note_on_c, 2, 68, 127
7, 187680, Note_off_c, 2, 68, 127
7, 187680, Note_on_c, 2, 79, 127
7, 187920, Note_off_c, 2, 79, 127
7, 187920, Note_on_c, 2, 74, 127
7, 188160, Note_off_c, 2, 74, 127
7, 188160, Note_on_c, 2, 68, 127
7, 188400, Note_off_c, 2, 68, 127
7, 188400, Note_on_c, 2, 74, 127
7, 188640, Note_off_c, 2, 74, 127
7, 188640, Note_on_c, 2, 79, 127
7, 188880, Note_off_c, 2, 79, 127
7, 188880, Note_on_c, 2, 68, 127
7, 189120, Note_off_c, 2, 68, 127
7, 189120, Note_on_c, 2, 84, 127
7, 189360, Note_off_c, 2, 84, 127
7, 189360, Note_on_c, 2, 86, 127
7, 189600, Note_off_c, 2, 86, 127
7, 189600, Note_on_c, 2, 91, 127
7, 189840, Note_off_c, 2, 91, 127
7, 189840, Note_on_c, 2, 80, 127
7, 190080, Note_off_c, 2, 80, 127
7, 190080, Note_on_c, 2, 96, 127
7, 190320, Note_off_c, 2, 96, 127
7, 190320, Note_on_c, 2, 80, 127
7, 190560, Note_off_c, 2, 80, 127
7, 190560, Note_on_c, 2, 91, 127
7, 190800, Note_off_c, 2, 91, 127
7, 190800, Note_on_c, 2, 86, 127
7, 191040, Note_off_c, 2, 86, 127
7, 191040, Note_on_c, 2, 84, 127
7, 191280, Note_off_c, 2, 84, 127
7, 191280, Note_on_c, 2, 68, 127
7, 191520, Note_off_c, 2, 68, 127
7, 191520, Note_on_c, 2, 79, 127
7, 191760, Note_off_c, 2, 79, 127
7, 191760, Note_on_c, 2, 74, 127
7, 192000, Note_off_c, 2, 74, 127
7, 192000, Note_on_c, 2, 65, 127
7, 192240, Note_off_c, 2, 65, 127
7, 192240, Note_on_c, 2, 72, 127
7, 192480, Note_off_c, 2, 72, 127
7, 192480, Note_on_c, 2, 74, 127
7, 192720, Note_off_c, 2, 74, 127
7, 192720, Note_on_c, 2, 75, 127
7, 192960, Note_off_c, 2, 75, 127
7, 192960, Note_on_c, 2, 65, 127
7, 193200, Note_off_c, 2, 65, 127
7, 193200, Note_on_c, 2, 84, 127
7, 193440, Note_off_c, 2, 84, 127
7, 193440, Note_on_c, 2, 86, 127
7, 193680, Note_off_c, 2, 86, 127
7, 193680, Note_on_c, 2, 87, 127
7, 193920, Note_off_c, 2, 87, 127
7, 193920, Note_on_c, 2, 77, 127
7, 194160, Note_off_c, 2, 77, 127
7, 194160, Note_on_c, 2, 96, 127
7, 194400, Note_off_c, 2, 96, 127
7, 194400, Note_on_c, 2, 77, 127
7, 194640, Note_off_c, 2, 77, 127
7, 194640, Note_on_c, 2, 87, 127
7, 194880, Note_off_c, 2, 87, 127
7, 194880, Note_on_c, 2, 86, 127
7, 195120, Note_off_c, 2, 86, 127
7, 195120, Note_on_c, 2, 84, 127
7, 195360, Note_off_c, 2, 84, 127
7, 195360, Note_on_c, 2, 65, 127
7, 195600, Note_off_c, 2, 65, 127
7, 195600, Note_on_c, 2, 75, 127
7, 195840, Note_off_c, 2, 75, 127
7, 195840, Note_on_c, 2, 74, 127
7, 196080, Note_off_c, 2, 74, 127
7, 196080, Note_on_c, 2, 72, 127
7, 196320, Note_off_c, 2, 72, 127
7, 196320, Note_on_c, 2, 65, 127
7, 196560, Note_off_c, 2, 65, 127
7, 196560, Note_on_c, 2, 72, 127
7, 196800, Note_off_c, 2, 72, 127
7, 196800, Note_on_c, 2, 74, 127
7, 197040, Note_off_c, 2, 74, 127
7, 197040, Note_on_c, 2, 75, 127
7, 197280, Note_off_c, 2, 75, 127
7, 197280, Note_on_c, 2, 65, 127
7, 197520, Note_off_c, 2, 65, 127
7, 197520, Note_on_c, 2, 84, 127
7, 197760, Note_off_c, 2, 84, 127
7, 197760, Note_on_c, 2, 86, 127
7, 198000, Note_off_c, 2, 86, 127
7, 198000, Note_on_c, 2, 87, 127
7, 198240, Note_off_c, 2, 87, 127
7, 198240, Note_on_c, 2, 77, 127
7, 198480, Note_off_c, 2, 77, 127
7, 198480, Note_on_c, 2, 96, 127
7, 198720, Note_off_c, 2, 96, 127
7, 198720, Note_on_c, 2, 77, 127
7, 198960, Note_off_c, 2, 77, 127
7, 198960, Note_on_c, 2, 87, 127
7, 199200, Note_off_c, 2, 87, 127
7, 199200, Note_on_c, 2, 86, 127
7, 199440, Note_off_c, 2, 86, 127
7, 199440, Note_on_c, 2, 84, 127
7, 199680, Note_off_c, 2, 84, 127
7, 199680, Note_on_c, 2, 68, 127
7, 199920, Note_off_c, 2, 68, 127
7, 199920, Note_on_c, 2, 74, 127
7, 200160, Note_off_c, 2, 74, 127
7, 200160, Note_on_c, 2, 79, 127
7, 200400, Note_off_c, 2, 79, 127
7, 200400, Note_on_c, 2, 68, 127
7, 200640, Note_off_c, 2, 68, 127
7, 200640, Note_on_c, 2, 84, 127
7, 200880, Note_off_c, 2, 84, 127
7, 200880, Note_on_c, 2, 86, 127
7, 201120, Note_off_c, 2, 86, 127
7, 201120, Note_on_c, 2, 91, 127
7, 201360, Note_off_c, 2, 91, 127
7, 201360, Note_on_c, 2, 80, 127
7, 201600, Note_off_c, 2, 80, 127
7, 201600, Note_on_c, 2, 96, 127
7, 201840, Note_off_c, 2, 96, 127
7, 201840, Note_on_c, 2, 80, 127
7, 202080, Note_off_c, 2, 80, 127
7, 202080, Note_on_c, 2, 91, 127
7, 202320, Note_off_c, 2, 91, 127
7, 202320, Note_on_c, 2, 86, 127
7, 202560, Note_off_c, 2, 86, 127
7, 202560, Note_on_c, 2, 84, 127
7, 202800, Note_off_c, 2, 84, 127
7, 202800, Note_on_c, 2, 68, 127
7, 203040, Note_off_c, 2, 68, 127
7, 203040, Note_on_c, 2, 79, 127
7, 203280, Note_off_c, 2, 79, 127
7, 203280, Note_on_c, 2, 74, 127
7, 203520, Note_off_c, 2, 74, 127
7, 203520, Note_on_c, 2, 68, 127
7, 203760, Note_off_c, 2, 68, 127
7, 203760, Note_on_c, 2, 74, 127
7, 204000, Note_off_c, 2, 74, 127
7, 204000, Note_on_c, 2, 79, 127
7, 204240, Note_off_c, 2, 79, 127
7, 204240, Note_on_c, 2, 68, 127
7, 204480, Note_off_c, 2, 68, 127
7, 204480, Note_on_c, 2, 84, 127
7, 204720, Note_off_c, 2, 84, 127
7, 204720, Note_on_c, 2, 86, 127
7, 204960, Note_off_c, 2, 86, 127
7, 204960, Note_on_c, 2, 91, 127
7, 205200, Note_off_c, 2, 91, 127
7, 205200, Note_on_c, 2, 80, 127
7, 205440, Note_off_c, 2, 80, 127
7, 205440, Note_on_c, 2, 96, 127
7, 205680, Note_off_c, 2, 96, 127
7, 205680, Note_on_c, 2, 80, 127
7, 205920, Note_off_c, 2, 80, 127
7, 205920, Note_on_c, 2, 91, 127
7, 206160, Note_off_c, 2, 91, 127
7, 206160, Note_on_c, 2, 86, 127
7, 206400, Note_off_c, 2, 86, 127
7, 206400, Note_on_c, 2, 84, 127
7, 206640, Note_off_c, 2, 84, 127
7, 206640, Note_on_c, 2, 68, 127
7, 206880, Note_off_c, 2, 68, 127
7, 206880, Note_on_c, 2, 79, 127
7, 207120, Note_off_c, 2, 79, 127
7, 207120, Note_on_c, 2, 74, 127
7, 207360, Note_off_c, 2, 74, 127
7, 207360, Note_on_c, 2, 65, 127
7, 207600, Note_off_c, 2, 65, 127
7, 207600, Note_on_c, 2, 72, 127
7, 207840, Note_off_c, 2, 72, 127
7, 207840, Note_on_c, 2, 74, 127
7, 208080, Note_off_c, 2, 74, 127
7, 208080, Note_on_c, 2, 75, 127
7, 208320, Note_off_c, 2, 75, 127
7, 208320, Note_on_c, 2, 65, 127
7, 208560, Note_off_c, 2, 65, 127
7, 208560, Note_on_c, 2, 84, 127
7, 208800, Note_off_c, 2, 84, 127
7, 208800, Note_on_c, 2, 86, 127
7, 209040, Note_off_c, 2, 86, 127
7, 209040, Note_on_c, 2, 87, 127
7, 209280, Note_off_c, 2, 87, 127
7, 209280, Note_on_c, 2, 77, 127
7, 209520, Note_off_c, 2, 77, 127
7, 209520, Note_on_c, 2, 96, 127
7, 209760, Note_off_c, 2, 96, 127
7, 209760, Note_on_c, 2, 77, 127
7, 210000, Note_off_c, 2, 77, 127
7, 210000, Note_on_c, 2, 87, 127
7, 210240, Note_off_c, 2, 87, 127
7, 210240, Note_on_c, 2, 86, 127
7, 210480, Note_off_c, 2, 86, 127
7, 210480, Note_on_c, 2, 84, 127
7, 210720, Note_off_c, 2, 84, 127
7, 210720, Note_on_c, 2, 65, 127
7, 210960, Note_off_c, 2, 65, 127
7, 210960, Note_on_c, 2, 75, 127
7, 211200, Note_off_c, 2, 75, 127
7, 211200, Note_on_c, 2, 74, 127
7, 211440, Note_off_c, 2, 74, 127
7, 211440, Note_on_c, 2, 72, 127
7, 211680, Note_off_c, 2, 72, 127
7, 211680, Note_on_c, 2, 65, 127
7, 211920, Note_off_c, 2, 65, 127
7, 211920, Note_on_c, 2, 72, 127
7, 212160, Note_off_c, 2, 72, 127
7, 212160, Note_on_c, 2, 74, 127
7, 212400, Note_off_c, 2, 74, 127
7, 212400, Note_on_c, 2, 75, 127
7, 212640, Note_off_c, 2, 75, 127
7, 212640, Note_on_c, 2, 65, 127
7, 212880, Note_off_c, 2, 65, 127
7, 212880, Note_on_c, 2, 84, 127
7, 213120, Note_off_c, 2, 84, 127
7, 213120, Note_on_c, 2, 86, 127
7, 213360, Note_off_c, 2, 86, 127
7, 213360, Note_on_c, 2, 87, 127
7, 213600, Note_off_c, 2, 87, 127
7, 213600, Note_on_c, 2, 77, 127
7, 213840, Note_off_c, 2, 77, 127
7, 213840, Note_on_c, 2, 96, 127
7, 214080, Note_off_c, 2, 96, 127
7, 214080, Note_on_c, 2, 77, 127
7, 214320, Note_off_c, 2, 77, 127
7, 214320, Note_on_c, 2, 87, 127
7, 214560, Note_off_c, 2, 87, 127
7, 214560, Note_on_c, 2, 86, 127
7, 214800, Note_off_c, 2, 86, 127
7, 214800, Note_on_c, 2, 84, 127
7, 215040, Note_off_c, 2, 84, 127
7, 215040, Note_on_c, 2, 68, 127
7, 215280, Note_off_c, 2, 68, 127
7, 215280, Note_on_c, 2, 74, 127
7, 215520, Note_off_c, 2, 74, 127
7, 215520, Note_on_c, 2, 79, 127
7, 215760, Note_off_c, 2, 79, 127
7, 215760, Note_on_c, 2, 68, 127
7, 216000, Note_off_c, 2, 68, 127
7, 216000, Note_on_c, 2, 84, 127
7, 216240, Note_off_c, 2, 84, 127
7, 216240, Note_on_c, 2, 86, 127
7, 216480, Note_off_c, 2, 86, 127
7, 216480, Note_on_c, 2, 91, 127
7, 216720, Note_off_c, 2, 91, 127
7, 216720, Note_on_c, 2, 80, 127
7, 216960, Note_off_c, 2, 80, 127
7, 216960, Note_on_c, 2, 96, 127
7, 217200, Note_off_c, 2, 96, 127
7, 217200, Note_on_c, 2, 80, 127
7, 217440, Note_off_c, 2, 80, 127
7, 217440, Note_on_c, 2, 91, 127
7, 217680, Note_off_c, 2, 91, 127
7, 217680, Note_on_c, 2, 86, 127
7, 217920, Note_off_c, 2, 86, 127
7, 217920, Note_on_c, 2, 84, 127
7, 218160, Note_off_c, 2, 84, 127
7, 218160, Note_on_c, 2, 68, 127
7, 218400, Note_off_c, 2, 68, 127
7, 218400, Note_on_c, 2, 79, 127
7, 218640, Note_off_c, 2, 79, 127
7, 218640, Note_on_c, 2, 74, 127
7, 218880, Note_off_c, 2, 74, 127
7, 218880, Note_on_c, 2, 68, 127
7, 219120, Note_off_c, 2, 68, 127
7, 219120, Note_on_c, 2, 74, 127
7, 219360, Note_off_c, 2, 74, 127
7, 219360, Note_on_c, 2, 79, 127
7, 219600, Note_off_c, 2, 79, 127
7, 219600, Note_on_c, 2, 68, 127
7, 219840, Note_off_c, 2, 68, 127
7, 219840, Note_on_c, 2, 84, 127
7, 220080, Note_off_c, 2, 84, 127
7, 220080, Note_on_c, 2, 86, 127
7, 220320, Note_off_c, 2, 86, 127
7, 220320, Note_on_c, 2, 91, 127
7, 220560, Note_off_c, 2, 91, 127
7, 220560, Note_on_c, 2, 80, 127
7, 220800, Note_off_c, 2, 80, 127
7, 220800, Note_on_c, 2, 96, 127
7, 221040, Note_off_c, 2, 96, 127
7, 221040, Note_on_c, 2, 80, 127
7, 221280, Note_off_c, 2, 80, 127
7, 221280, Note_on_c, 2, 91, 127
7, 221520, Note_off_c, 2, 91, 127
7, 221520, Note_on_c, 2, 86, 127
7, 221760, Note_off_c, 2, 86, 127
7, 221760, Note_on_c, 2, 84, 127
7, 222000, Note_off_c, 2, 84, 127
7, 222000, Note_on_c, 2, 68, 127
7, 222240, Note_off_c, 2, 68, 127
7, 222240, Note_on_c, 2, 79, 127
7, 222480, Note_off_c, 2, 79, 127
7, 222480, Note_on_c, 2, 74, 127
7, 222720, Note_off_c, 2, 74, 127
7, 222720, Note_on_c, 2, 65, 127
7, 222960, Note_off_c, 2, 65, 127
7, 222960, Note_on_c, 2, 72, 127
7, 223200, Note_off_c, 2, 72, 127
7, 223200, Note_on_c, 2, 74, 127
7, 223440, Note_off_c, 2, 74, 127
7, 223440, Note_on_c, 2, 75, 127
7, 223680, Note_off_c, 2, 75, 127
7, 223680, Note_on_c, 2, 65, 127
7, 223920, Note_off_c, 2, 65, 127
7, 223920, Note_on_c, 2, 84, 127
7, 224160, Note_off_c, 2, 84, 127
7, 224160, Note_on_c, 2, 86, 127
7, 224400, Note_off_c, 2, 86, 127
7, 224400, Note_on_c, 2, 87, 127
7, 224640, Note_off_c, 2, 87, 127
7, 224640, Note_on_c, 2, 77, 127
7, 224880, Note_off_c, 2, 77, 127
7, 224880, Note_on_c, 2, 96, 127
7, 225120, Note_off_c, 2, 96, 127
7, 225120, Note_on_c, 2, 77, 127
7, 225360, Note_off_c, 2, 77, 127
7, 225360, Note_on_c, 2, 87, 127
7, 225600, Note_off_c, 2, 87, 127
7, 225600, Note_on_c, 2, 86, 127
7, 225840, Note_off_c, 2, 86, 127
7, 225840, Note_on_c, 2, 84, 127
7, 226080, Note_off_c, 2, 84, 127
7, 226080, Note_on_c, 2, 65, 127
7, 226320, Note_off_c, 2, 65, 127
7, 226320, Note_on_c, 2, 75, 127
7, 226560, Note_off_c, 2, 75, 127
7, 226560, Note_on_c, 2, 74, 127
7, 226800, Note_off_c, 2, 74, 127
7, 226800, Note_on_c, 2, 72, 127
7, 227040, Note_off_c, 2, 72, 127
7, 227040, Note_on_c, 2, 65, 127
7, 227280, Note_off_c, 2, 65, 127
7, 227280, Note_on_c, 2, 72, 127
7, 227520, Note_off_c, 2, 72, 127
7, 227520, Note_on_c, 2, 74, 127
7, 227760, Note_off_c, 2, 74, 127
7, 227760, Note_on_c, 2, 75, 127
7, 228000, Note_off_c, 2, 75, 127
7, 228000, Note_on_c, 2, 65, 127
7, 228240, Note_off_c, 2, 65, 127
7, 228240, Note_on_c, 2, 84, 127
7, 228480, Note_off_c, 2, 84, 127
7, 228480, Note_on_c, 2, 86, 127
7, 228720, Note_off_c, 2, 86, 127
7, 228720, Note_on_c, 2, 87, 127
7, 228960, Note_off_c, 2, 87, 127
7, 228960, Note_on_c, 2, 77, 127
7, 229200, Note_off_c, 2, 77, 127
7, 229200, Note_on_c, 2, 96, 127
7, 229440, Note_off_c, 2, 96, 127
7, 229440, Note_on_c, 2, 77, 127
7, 229680, Note_off_c, 2, 77, 127
7, 229680, Note_on_c, 2, 87, 127
7, 229920, Note_off_c, 2, 87, 127
7, 229920, Note_on_c, 2, 86, 127
7, 230160, Note_off_c, 2, 86, 127
7, 230160, Note_on_c, 2, 84, 127
7, 230400, Note_off_c, 2, 84, 127
7, 230400, Note_on_c, 2, 68, 127
7, 230640, Note_off_c, 2, 68, 127
7, 230640, Note_on_c, 2, 74, 127
7, 230880, Note_off_c, 2, 74, 127
7, 230880, Note_on_c, 2, 79, 127
7, 231120, Note_off_c, 2, 79, 127
7, 231120, Note_on_c, 2, 68, 127
7, 231360, Note_off_c, 2, 68, 127
7, 231360, Note_on_c, 2, 84, 127
7, 231600, Note_off_c, 2, 84, 127
7, 231600, Note_on_c, 2, 86, 127
7, 231840, Note_off_c, 2, 86, 127
7, 231840, Note_on_c, 2, 91, 127
7, 232080, Note_off_c, 2, 91, 127
7, 232080, Note_on_c, 2, 80, 127
7, 232320, Note_off_c, 2, 80, 127
7, 232320, Note_on_c, 2, 96, 127
7, 232560, Note_off_c, 2, 96, 127
7, 232560, Note_on_c, 2, 80, 127
7, 232800, Note_off_c, 2, 80, 127
7, 232800, Note_on_c, 2, 91, 127
7, 233040, Note_off_c, 2, 91, 127
7, 233040, Note_on_c, 2, 86, 127
7, 233280, Note_off_c, 2, 86, 127
7, 233280, Note_on_c, 2, 84, 127
7, 233520, Note_off_c, 2, 84, 127
7, 233520, Note_on_c, 2, 68, 127
7, 233760, Note_off_c, 2, 68, 127
7, 233760, Note_on_c, 2, 79, 127
7, 234000, Note_off_c, 2, 79, 127
7, 234000, Note_on_c, 2, 74, 127
7, 234240, Note_off_c, 2, 74, 127
7, 234240, Note_on_c, 2, 68, 127
7, 234480, Note_off_c, 2, 68, 127
7, 234480, Note_on_c, 2, 74, 127
7, 234720, Note_off_c, 2, 74, 127
7, 234720, Note_on_c, 2, 79, 127
7, 234960, Note_off_c, 2, 79, 127
7, 234960, Note_on_c, 2, 68, 127
7, 235200, Note_off_c, 2, 68, 127
7, 235200, Note_on_c, 2, 84, 127
7, 235440, Note_off_c, 2, 84, 127
7, 235440, Note_on_c, 2, 86, 127
7, 235680, Note_off_c, 2, 86, 127
7, 235680, Note_on_c, 2, 91, 127
7, 235920, Note_off_c, 2, 91, 127
7, 235920, Note_on_c, 2, 80, 127
7, 236160, Note_off_c, 2, 80, 127
7, 236160, Note_on_c, 2, 96, 127
7, 236400, Note_off_c, 2, 96, 127
7, 236400, Note_on_c, 2, 80, 127
7, 236640, Note_off_c, 2, 80, 127
7, 236640, Note_on_c, 2, 91, 127
7, 236880, Note_off_c, 2, 91, 127
7, 236880, Note_on_c, 2, 86, 127
7, 237120, Note_off_c, 2, 86, 127
7, 237120, Note_on_c, 2, 84, 127
7, 237360, Note_off_c, 2, 84, 127
7, 237360, Note_on_c, 2, 68, 127
7, 237600, Note_off_c, 2, 68, 127
7, 237600, Note_on_c, 2, 79, 127
7, 237840, Note_off_c, 2, 79, 127
7, 237840, Note_on_c, 2, 74, 127
7, 238080, Note_off_c, 2, 74, 127
7, 238080, Note_on_c, 2, 65, 127
7, 238320, Note_off_c, 2, 65, 127
7, 238320, Note_on_c, 2, 72, 127
7, 238560, Note_off_c, 2, 72, 127
7, 238560, Note_on_c, 2, 74, 127
7, 238800, Note_off_c, 2, 74, 127
7, 238800, Note_on_c, 2, 75, 127
7, 239040, Note_off_c, 2, 75, 127
7, 239040, Note_on_c, 2, 65, 127
7, 239280, Note_off_c, 2, 65, 127
7, 239280, Note_on_c, 2, 84, 127
7, 239520, Note_off_c, 2, 84, 127
7, 239520, Note_on_c, 2, 86, 127
7, 239760, Note_off_c, 2, 86, 127
7, 239760, Note_on_c, 2, 87, 127
7, 240000, Note_off_c, 2, 87, 127
7, 240000, Note_on_c, 2, 77, 127
7, 240240, Note_off_c, 2, 77, 127
7, 240240, Note_on_c, 2, 96, 127
7, 240480, Note_off_c, 2, 96, 127
7, 240480, Note_on_c, 2, 77, 127
7, 240720, Note_off_c, 2, 77, 127
7, 240720, Note_on_c, 2, 87, 127
7, 240960, Note_off_c, 2, 87, 127
7, 240960, Note_on_c, 2, 86, 127
7, 241200, Note_off_c, 2, 86, 127
7, 241200, Note_on_c, 2, 84, 127
7, 241440, Note_off_c, 2, 84, 127
7, 241440, Note_on_c, 2, 65, 127
7, 241680, Note_off_c, 2, 65, 127
7, 241680, Note_on_c, 2, 75, 127
7, 241920, Note_off_c, 2, 75, 127
7, 241920, Note_on_c, 2, 74, 127
7, 242160, Note_off_c, 2, 74, 127
7, 242160, Note_on_c, 2, 72, 127
7, 242400, Note_off_c, 2, 72, 127
7, 242400, Note_on_c, 2, 65, 127
7, 242640, Note_off_c, 2, 65, 127
7, 242640, Note_on_c, 2, 72, 127
7, 242880, Note_off_c, 2, 72, 127
7, 242880, Note_on_c, 2, 74, 127
7, 243120, Note_off_c, 2, 74, 127
7, 243120, Note_on_c, 2, 75, 127
7, 243360, Note_off_c, 2, 75, 127
7, 243360, Note_on_c, 2, 65, 127
7, 243600, Note_off_c, 2, 65, 127
7, 243600, Note_on_c, 2, 84, 127
7, 243840, Note_off_c, 2, 84, 127
7, 243840, Note_on_c, 2, 86, 127
7, 244080, Note_off_c, 2, 86, 127
7, 244080, Note_on_c, 2, 87, 127
7, 244320, Note_off_c, 2, 87, 127
7, 244320, Note_on_c, 2, 77, 127
7, 244560, Note_off_c, 2, 77, 127
7, 244560, Note_on_c, 2, 96, 127
7, 244800, Note_off_c, 2, 96, 127
7, 244800, Note_on_c, 2, 77, 127
7, 245040, Note_off_c, 2, 77, 127
7, 245040, Note_on_c, 2, 87, 127
7, 245280, Note_off_c, 2, 87, 127
7, 245280, Note_on_c, 2, 86, 127
7, 245520, Note_off_c, 2, 86, 127
7, 245520, Note_on_c, 2, 84, 127
7, 245760, Note_off_c, 2, 84, 127
7, 245760, Note_on_c, 2, 68, 127
7, 246000, Note_off_c, 2, 68, 127
7, 246000, Note_on_c, 2, 74, 127
7, 246240, Note_off_c, 2, 74, 127
7, 246240, Note_on_c, 2, 79, 127
7, 246480, Note_off_c, 2, 79, 127
7, 246480, Note_on_c, 2, 68, 127
7, 246720, Note_off_c, 2, 68, 127
7, 246720, Note_on_c, 2, 84, 127
7, 246960, Note_off_c, 2, 84, 127
7, 246960, Note_on_c, 2, 86, 127
7, 247200, Note_off_c, 2, 86, 127
7, 247200, Note_on_c, 2, 91, 127
7, 247440, Note_off_c, 2, 91, 127
7, 247440, Note_on_c, 2, 80, 127
7, 247680, Note_off_c, 2, 80, 127
7, 247680, Note_on_c, 2, 96, 127
7, 247920, Note_off_c, 2, 96, 127
7, 247920, Note_on_c, 2, 80, 127
7, 248160, Note_off_c, 2, 80, 127
7, 248160, Note_on_c, 2, 91, 127
7, 248400, Note_off_c, 2, 91, 127
7, 248400, Note_on_c, 2, 86, 127
7, 248640, Note_off_c, 2, 86, 127
7, 248640, Note_on_c, 2, 84, 127
7, 248880, Note_off_c, 2, 84, 127
7, 248880, Note_on_c, 2, 68, 127
7, 249120, Note_off_c, 2, 68, 127
7, 249120, Note_on_c, 2, 79, 127
7, 249360, Note_off_c, 2, 79, 127
7, 249360, Note_on_c, 2, 74, 127
7, 249600, Note_off_c, 2, 74, 127
7, 249600, Note_on_c, 2, 68, 127
7, 249840, Note_off_c, 2, 68, 127
7, 249840, Note_on_c, 2, 74, 127
7, 250080, Note_off_c, 2, 74, 127
7, 250080, Note_on_c, 2, 79, 127
7, 250320, Note_off_c, 2, 79, 127
7, 250320, Note_on_c, 2, 68, 127
7, 250560, Note_off_c, 2, 68, 127
7, 250560, Note_on_c, 2, 84, 127
7, 250800, Note_off_c, 2, 84, 127
7, 250800, Note_on_c, 2, 86, 127
7, 251040, Note_off_c, 2, 86, 127
7, 251040, Note_on_c, 2, 91, 127
7, 251280, Note_off_c, 2, 91, 127
7, 251280, Note_on_c, 2, 80, 127
7, 251520, Note_off_c, 2, 80, 127
7, 251520, Note_on_c, 2, 96, 127
7, 251760, Note_off_c, 2, 96, 127
7, 251760, Note_on_c, 2, 80, 127
7, 252000, Note_off_c, 2, 80, 127
7, 252000, Note_on_c, 2, 91, 127
7, 252240, Note_off_c, 2, 91, 127
7, 252240, Note_on_c, 2, 86, 127
7, 252480, Note_off_c, 2, 86, 127
7, 252480, Note_on_c, 2, 84, 127
7, 252720, Note_off_c, 2, 84, 127
7, 252720, Note_on_c, 2, 68, 127
7, 252960, Note_off_c, 2, 68, 127
7, 252960, Note_on_c, 2, 79, 127
7, 253200, Note_off_c, 2, 79, 127
7, 253200, Note_on_c, 2, 74, 127
7, 253440, Note_off_c, 2, 74, 127
7, 253440, Note_on_c, 2, 65, 127
7, 253680, Note_off_c, 2, 65, 127
7, 253680, Note_on_c, 2, 72, 127
7, 253920, Note_off_c, 2, 72, 127
7, 253920, Note_on_c, 2, 74, 127
7, 254160, Note_off_c, 2, 74, 127
7, 254160, Note_on_c, 2, 75, 127
7, 254400, Note_off_c, 2, 75, 127
7, 254400, Note_on_c, 2, 65, 127
7, 254640, Note_off_c, 2, 65, 127
7, 254640, Note_on_c, 2, 84, 127
7, 254880, Note_off_c, 2, 84, 127
7, 254880, Note_on_c, 2, 86, 127
7, 255120, Note_off_c, 2, 86, 127
7, 255120, Note_on_c, 2, 87, 127
7, 255360, Note_off_c, 2, 87, 127
7, 255360, Note_on_c, 2, 77, 127
7, 255600, Note_off_c, 2, 77, 127
7, 255600, Note_on_c, 2, 96, 127
7, 255840, Note_off_c, 2, 96, 127
7, 255840, Note_on_c, 2, 77, 127
7, 256080, Note_off_c, 2, 77, 127
7, 256080, Note_on_c, 2, 87, 127
7, 256320, Note_off_c, 2, 87, 127
7, 256320, Note_on_c, 2, 86, 127
7, 256560, Note_off_c, 2, 86, 127
7, 256560, Note_on_c, 2, 84, 127
7, 256800, Note_off_c, 2, 84, 127
7, 256800, Note_on_c, 2, 65, 127
7, 257040, Note_off_c, 2, 65, 127
7, 257040, Note_on_c, 2, 75, 127
7, 257280, Note_off_c, 2, 75, 127
7, 257280, Note_on_c, 2, 74, 127
7, 257520, Note_off_c, 2, 74, 127
7, 257520, Note_on_c, 2, 72, 127
7, 257760, Note_off_c, 2, 72, 127
7, 257760, Note_on_c, 2, 65, 127
7, 258000, Note_off_c, 2, 65, 127
7, 258000, Note_on_c, 2, 72, 127
7, 258240, Note_off_c, 2, 72, 127
7, 258240, Note_on_c, 2, 74, 127
7, 258480, Note_off_c, 2, 74, 127
7, 258480, Note_on_c, 2, 75, 127
7, 258720, Note_off_c, 2, 75, 127
7, 258720, Note_on_c, 2, 65, 127
7, 258960, Note_off_c, 2, 65, 127
7, 258960, Note_on_c, 2, 84, 127
7, 259200, Note_off_c, 2, 84, 127
7, 259200, Note_on_c, 2, 86, 127
7, 259440, Note_off_c, 2, 86, 127
7, 259440, Note_on_c, 2, 87, 127
7, 259680, Note_off_c, 2, 87, 127
7, 259680, Note_on_c, 2, 77, 127
7, 259920, Note_off_c, 2, 77, 127
7, 259920, Note_on_c, 2, 96, 127
7, 260160, Note_off_c, 2, 96, 127
7, 260160, Note_on_c, 2, 77, 127
7, 260400, Note_off_c, 2, 77, 127
7, 260400, Note_on_c, 2, 87, 127
7, 260640, Note_off_c, 2, 87, 127
7, 260640, Note_on_c, 2, 86, 127
7, 260880, Note_off_c, 2, 86, 127
7, 260880, Note_on_c, 2, 84, 127
7, 261120, Note_off_c, 2, 84, 127
7, 261120, Note_on_c, 2, 68, 127
7, 261360, Note_off_c, 2, 68, 127
7, 261360, Note_on_c, 2, 74, 127
7, 261600, Note_off_c, 2, 74, 127
7, 261600, Note_on_c, 2, 79, 127
7, 261840, Note_off_c, 2, 79, 127
7, 261840, Note_on_c, 2, 68, 127
7, 262080, Note_off_c, 2, 68, 127
7, 262080, Note_on_c, 2, 84, 127
7, 262320, Note_off_c, 2, 84, 127
7, 262320, Note_on_c, 2, 86, 127
7, 262560, Note_off_c, 2, 86, 127
7, 262560, Note_on_c, 2, 91, 127
7, 262800, Note_off_c, 2, 91, 127
7, 262800, Note_on_c, 2, 80, 127
7, 263040, Note_off_c, 2, 80, 127
7, 263040, Note_on_c, 2, 96, 127
7, 263280, Note_off_c, 2, 96, 127
7, 263280, Note_on_c, 2, 80, 127
7, 263520, Note_off_c, 2, 80, 127
7, 263520, Note_on_c, 2, 91, 127
7, 263760, Note_off_c, 2, 91, 127
7, 263760, Note_on_c, 2, 86, 127
7, 264000, Note_off_c, 2, 86, 127
7, 264000, Note_on_c, 2, 84, 127
7, 264240, Note_off_c, 2, 84, 127
7, 264240, Note_on_c, 2, 68, 127
7, 264480, Note_off_c, 2, 68, 127
7, 264480, Note_on_c, 2, 79, 127
7, 264720, Note_off_c, 2, 79, 127
7, 264720, Note_on_c, 2, 74, 127
7, 264960, Note_off_c, 2, 74, 127
7, 264960, Note_on_c, 2, 68, 127
7, 265200, Note_off_c, 2, 68, 127
7, 265200, Note_on_c, 2, 74, 127
7, 265440, Note_off_c, 2, 74, 127
7, 265440, Note_on_c, 2, 79, 127
7, 265680, Note_off_c, 2, 79, 127
7, 265680, Note_on_c, 2, 68, 127
7, 265920, Note_off_c, 2, 68, 127
7, 265920, Note_on_c, 2, 84, 127
7, 266160, Note_off_c, 2, 84, 127
7, 266160, Note_on_c, 2, 86, 127
7, 266400, Note_off_c, 2, 86, 127
7, 266400, Note_on_c, 2, 91, 127
7, 266640, Note_off_c, 2, 91, 127
7, 266640, Note_on_c, 2, 80, 127
7, 266880, Note_off_c, 2, 80, 127
7, 266880, Note_on_c, 2, 96, 127
7, 267120, Note_off_c, 2, 96, 127
7, 267120, Note_on_c, 2, 80, 127
7, 267360, Note_off_c, 2, 80, 127
7, 267360, Note_on_c, 2, 91, 127
7, 267600, Note_off_c, 2, 91, 127
7, 267600, Note_on_c, 2, 86, 127
7, 267840, Note_off_c, 2, 86, 127
7, 267840, Note_on_c, 2, 84, 127
7, 268080, Note_off_c, 2, 84, 127
7, 268080, Note_on_c, 2, 68, 127
7, 268320, Note_off_c, 2, 68, 127
7, 268320, Note_on_c, 2, 79, 127
7, 268560, Note_off_c, 2, 79, 127
7, 268560, Note_on_c, 2, 74, 127
7, 268800, Note_off_c, 2, 74, 127
7, 268800, Note_on_c, 2, 65, 127
7, 269040, Note_off_c, 2, 65, 127
7, 269040, Note_on_c, 2, 72, 127
7, 269280, Note_off_c, 2, 72, 127
7, 269280, Note_on_c, 2, 74, 127
7, 269520, Note_off_c, 2, 74, 127
7, 269520, Note_on_c, 2, 75, 127
7, 269760, Note_off_c, 2, 75, 127
7, 269760, Note_on_c, 2, 65, 127
7, 270000, Note_off_c, 2, 65, 127
7, 270000, Note_on_c, 2, 84, 127
7, 270240, Note_off_c, 2, 84, 127
7, 270240, Note_on_c, 2, 86, 127
7, 270480, Note_off_c, 2, 86, 127
7, 270480, Note_on_c, 2, 87, 127
7, 270720, Note_off_c, 2, 87, 127
7, 270720, Note_on_c, 2, 77, 127
7, 270960, Note_off_c, 2, 77, 127
7, 270960, Note_on_c, 2, 96, 127
7, 271200, Note_off_c, 2, 96, 127
7, 271200, Note_on_c, 2, 77, 127
7, 271440, Note_off_c, 2, 77, 127
7, 271440, Note_on_c, 2, 87, 127
7, 271680, Note_off_c, 2, 87, 127
7, 271680, Note_on_c, 2, 86, 127
7, 271920, Note_off_c, 2, 86, 127
7, 271920, Note_on_c, 2, 84, 127
7, 272160, Note_off_c, 2, 84, 127
7, 272160, Note_on_c, 2, 65, 127
7, 272400, Note_off_c, 2, 65, 127
7, 272400, Note_on_c, 2, 75, 127
7, 272640, Note_off_c, 2, 75, 127
7, 272640, Note_on_c, 2, 74, 127
7, 272880, Note_off_c, 2, 74, 127
7, 272880, Note_on_c, 2, 72, 127
7, 273120, Note_off_c, 2, 72, 127
7, 273120, Note_on_c, 2, 65, 127
7, 273360, Note_off_c, 2, 65, 127
7, 273360, Note_on_c, 2, 72, 127
7, 273600, Note_off_c, 2, 72, 127
7, 273600, Note_on_c, 2, 74, 127
7, 273840, Note_off_c, 2, 74, 127
7, 273840, Note_on_c, 2, 75, 127
7, 274080, Note_off_c, 2, 75, 127
7, 274080, Note_on_c, 2, 65, 127
7, 274320, Note_off_c, 2, 65, 127
7, 274320, Note_on_c, 2, 84, 127
7, 274560, Note_off_c, 2, 84, 127
7, 274560, Note_on_c, 2, 86, 127
7, 274800, Note_off_c, 2, 86, 127
7, 274800, Note_on_c, 2, 87, 127
7, 275040, Note_off_c, 2, 87, 127
7, 275040, Note_on_c, 2, 77, 127
7, 275280, Note_off_c, 2, 77, 127
7, 275280, Note_on_c, 2, 96, 127
7, 275520, Note_off_c, 2, 96, 127
7, 275520, Note_on_c, 2, 77, 127
7, 275760, Note_off_c, 2, 77, 127
7, 275760, Note_on_c, 2, 87, 127
7, 276000, Note_off_c, 2, 87, 127
7, 276000, Note_on_c, 2, 86, 127
7, 276240, Note_off_c, 2, 86, 127
7, 276240, Note_on_c, 2, 84, 127
7, 276480, Note_off_c, 2, 84, 127
7, 276480, Note_on_c, 2, 68, 127
7, 276720, Note_off_c, 2, 68, 127
7, 276720, Note_on_c, 2, 74, 127
7, 276960, Note_off_c, 2, 74, 127
7, 276960, Note_on_c, 2, 79, 127
7, 277200, Note_off_c, 2, 79, 127
7, 277200, Note_on_c, 2, 68, 127
7, 277440, Note_off_c, 2, 68, 127
7, 277440, Note_on_c, 2, 84, 127
7, 277680, Note_off_c, 2, 84, 127
7, 277680, Note_on_c, 2, 86, 127
7, 277920, Note_off_c, 2, 86, 127
7, 277920, Note_on_c, 2, 91, 127
7, 278160, Note_off_c, 2, 91, 127
7, 278160, Note_on_c, 2, 80, 127
7, 278400, Note_off_c, 2, 80, 127
7, 278400, Note_on_c, 2, 96, 127
7, 278640, Note_off_c, 2, 96, 127
7, 278640, Note_on_c, 2, 80, 127
7, 278880, Note_off_c, 2, 80, 127
7, 278880, Note_on_c, 2, 91, 127
7, 279120, Note_off_c, 2, 91, 127
7, 279120, Note_on_c, 2, 86, 127
7, 279360, Note_off_c, 2, 86, 127
7, 279360, Note_on_c, 2, 84, 127
7, 279600, Note_off_c, 2, 84, 127
7, 279600, Note_on_c, 2, 68, 127
7, 279840, Note_off_c, 2, 68, 127
7, 279840, Note_on_c, 2, 79, 127
7, 280080, Note_off_c, 2, 79, 127
7, 280080, Note_on_c, 2, 74, 127
7, 280320, Note_off_c, 2, 74, 127
7, 280320, Note_on_c, 2, 68, 127
7, 280560, Note_off_c, 2, 68, 127
7, 280560, Note_on_c, 2, 74, 127
7, 280800, Note_off_c, 2, 74, 127
7, 280800, Note_on_c, 2, 79, 127
7, 281040, Note_off_c, 2, 79, 127
7, 281040, Note_on_c, 2, 68, 127
7, 281280, Note_off_c, 2, 68, 127
7, 281280, Note_on_c, 2, 84, 127
7, 281520, Note_off_c, 2, 84, 127
7, 281520, Note_on_c, 2, 86, 127
7, 281760, Note_off_c, 2, 86, 127
7, 281760, Note_on_c, 2, 91, 127
7, 282000, Note_off_c, 2, 91, 127
7, 282000, Note_on_c, 2, 80, 127
7, 282240, Note_off_c, 2, 80, 127
7, 282240, Note_on_c, 2, 96, 127
7, 282480, Note_off_c, 2, 96, 127
7, 282480, Note_on_c, 2, 80, 127
7, 282720, Note_off_c, 2, 80, 127
7, 282720, Note_on_c, 2, 91, 127
7, 282960, Note_off_c, 2, 91, 127
7, 282960, Note_on_c, 2, 86, 127
7, 283200, Note_off_c, 2, 86, 127
7, 283200, Note_on_c, 2, 84, 127
7, 283440, Note_off_c, 2, 84, 127
7, 283440, Note_on_c, 2, 68, 127
7, 283680, Note_off_c, 2, 68, 127
7, 283680, Note_on_c, 2, 79, 127
7, 283920, Note_off_c, 2, 79, 127
7, 283920, Note_on_c, 2, 74, 127
7, 284160, Note_off_c, 2, 74, 127
7, 284160, Note_on_c, 2, 65, 127
7, 284400, Note_off_c, 2, 65, 127
7, 284400, Note_on_c, 2, 72, 127
7, 284640, Note_off_c, 2, 72, 127
7, 284640, Note_on_c, 2, 74, 127
7, 284880, Note_off_c, 2, 74, 127
7, 284880, Note_on_c, 2, 75, 127
7, 285120, Note_off_c, 2, 75, 127
7, 285120, Note_on_c, 2, 65, 127
7, 285360, Note_off_c, 2, 65, 127
7, 285360, Note_on_c, 2, 84, 127
7, 285600, Note_off_c, 2, 84, 127
7, 285600, Note_on_c, 2, 86, 127
7, 285840, Note_off_c, 2, 86, 127
7, 285840, Note_on_c, 2, 87, 127
7, 286080, Note_off_c, 2, 87, 127
7, 286080, Note_on_c, 2, 77, 127
7, 286320, Note_off_c, 2, 77, 127
7, 286320, Note_on_c, 2, 96, 127
7, 286560, Note_off_c, 2, 96, 127
7, 286560, Note_on_c, 2, 77, 127
7, 286800, Note_off_c, 2, 77, 127
7, 286800, Note_on_c, 2, 87, 127
7, 287040, Note_off_c, 2, 87, 127
7, 287040, Note_on_c, 2, 86, 127
7, 287280, Note_off_c, 2, 86, 127
7, 287280, Note_on_c, 2, 84, 127
7, 287520, Note_off_c, 2, 84, 127
7, 287520, Note_on_c, 2, 65, 127
7, 287760, Note_off_c, 2, 65, 127
7, 287760, Note_on_c, 2, 75, 127
7, 288000, Note_off_c, 2, 75, 127
7, 288000, Note_on_c, 2, 74, 127
7, 288240, Note_off_c, 2, 74, 127
7, 288240, Note_on_c, 2, 72, 127
7, 288480, Note_off_c, 2, 72, 127
7, 288480, Note_on_c, 2, 65, 127
7, 288720, Note_off_c, 2, 65, 127
7, 288720, Note_on_c, 2, 72, 127
7, 288960, Note_off_c, 2, 72, 127
7, 288960, Note_on_c, 2, 74, 127
7, 289200, Note_off_c, 2, 74, 127
7, 289200, Note_on_c, 2, 75, 127
7, 289440, Note_off_c, 2, 75, 127
7, 289440, Note_on_c, 2, 65, 127
7, 289680, Note_off_c, 2, 65, 127
7, 289680, Note_on_c, 2, 84, 127
7, 289920, Note_off_c, 2, 84, 127
7, 289920, Note_on_c, 2, 86, 127
7, 290160, Note_off_c, 2, 86, 127
7, 290160, Note_on_c, 2, 87, 127
7, 290400, Note_off_c, 2, 87, 127
7, 290400, Note_on_c, 2, 77, 127
7, 290640, Note_off_c, 2, 77, 127
7, 290640, Note_on_c, 2, 96, 127
7, 290880, Note_off_c, 2, 96, 127
7, 290880, Note_on_c, 2, 77, 127
7, 291120, Note_off_c, 2, 77, 127
7, 291120, Note_on_c, 2, 87, 127
7, 291360, Note_off_c, 2, 87, 127
7, 291360, Note_on_c, 2, 86, 127
7, 291600, Note_off_c, 2, 86, 127
7, 291600, Note_on_c, 2, 84, 127
7, 291840, Note_off_c, 2, 84, 127
7, 291840, Note_on_c, 2, 68, 127
7, 292080, Note_off_c, 2, 68, 127
7, 292080, Note_on_c, 2, 74, 127
7, 292320, Note_off_c, 2, 74, 127
7, 292320, Note_on_c, 2, 79, 127
7, 292560, Note_off_c, 2, 79, 127
7, 292560, Note_on_c, 2, 68, 127
7, 292800, Note_off_c, 2, 68, 127
7, 292800, Note_on_c, 2, 84, 127
7, 293040, Note_off_c, 2, 84, 127
7, 293040, Note_on_c, 2, 86, 127
7, 293280, Note_off_c, 2, 86, 127
7, 293280, Note_on_c, 2, 91, 127
7, 293520, Note_off_c, 2, 91, 127
7, 293520, Note_on_c, 2, 80, 127
7, 293760, Note_off_c, 2, 80, 127
7, 293760, Note_on_c, 2, 96, 127
7, 294000, Note_off_c, 2, 96, 127
7, 294000, Note_on_c, 2, 80, 127
7, 294240, Note_off_c, 2, 80, 127
7, 294240, Note_on_c, 2, 91, 127
7, 294480, Note_off_c, 2, 91, 127
7, 294480, Note_on_c, 2, 86, 127
7, 294720, Note_off_c, 2, 86, 127
7, 294720, Note_on_c, 2, 84, 127
7, 294960, Note_off_c, 2, 84, 127
7, 294960, Note_on_c, 2, 68, 127
7, 295200, Note_off_c, 2, 68, 127
7, 295200, Note_on_c, 2, 79, 127
7, 295440, Note_off_c, 2, 79, 127
7, 295440, Note_on_c, 2, 74, 127
7, 295680, Note_off_c, 2, 74, 127
7, 295680, Note_on_c, 2, 68, 127
7, 295920, Note_off_c, 2, 68, 127
7, 295920, Note_on_c, 2, 74, 127
7, 296160, Note_off_c, 2, 74, 127
7, 296160, Note_on_c, 2, 79, 127
7, 296400, Note_off_c, 2, 79, 127
7, 296400, Note_on_c, 2, 68, 127
7, 296640, Note_off_c, 2, 68, 127
7, 296640, Note_on_c, 2, 84, 127
7, 296880, Note_off_c, 2, 84, 127
7, 296880, Note_on_c, 2, 86, 127
7, 297120, Note_off_c, 2, 86, 127
7, 297120, Note_on_c, 2, 91, 127
7, 297360, Note_off_c, 2, 91, 127
7, 297360, Note_on_c, 2, 80, 127
7, 297600, Note_off_c, 2, 80, 127
7, 297600, Note_on_c, 2, 96, 127
7, 297840, Note_off_c, 2, 96, 127
7, 297840, Note_on_c, 2, 80, 127
7, 298080, Note_off_c, 2, 80, 127
7, 298080, Note_on_c, 2, 91, 127
7, 298320, Note_off_c, 2, 91, 127
7, 298320, Note_on_c, 2, 86, 127
7, 298560, Note_off_c, 2, 86, 127
7, 298560, Note_on_c, 2, 84, 127
7, 298800, Note_off_c, 2, 84, 127
7, 298800, Note_on_c, 2, 68, 127
7, 299040, Note_off_c, 2, 68, 127
7, 299040, Note_on_c, 2, 79, 127
7, 299280, Note_off_c, 2, 79, 127
7, 299280, Note_on_c, 2, 74, 127
7, 299520, Note_off_c, 2, 74, 127
7, 299520, Note_on_c, 2, 65, 127
7, 299760, Note_off_c, 2, 65, 127
7, 299760, Note_on_c, 2, 72, 127
7, 300000, Note_off_c, 2, 72, 127
7, 300000, Note_on_c, 2, 74, 127
7, 300240, Note_off_c, 2, 74, 127
7, 300240, Note_on_c, 2, 75, 127
7, 300480, Note_off_c, 2, 75, 127
7, 300480, Note_on_c, 2, 65, 127
7, 300720, Note_off_c, 2, 65, 127
7, 300720, Note_on_c, 2, 84, 127
7, 300960, Note_off_c, 2, 84, 127
7, 300960, Note_on_c, 2, 86, 127
7, 301200, Note_off_c, 2, 86, 127
7, 301200, Note_on_c, 2, 87, 127
7, 301440, Note_off_c, 2, 87, 127
7, 301440, Note_on_c, 2, 77, 127
7, 301680, Note_off_c, 2, 77, 127
7, 301680, Note_on_c, 2, 96, 127
7, 301920, Note_off_c, 2, 96, 127
7, 301920, Note_on_c, 2, 77, 127
7, 302160, Note_off_c, 2, 77, 127
7, 302160, Note_on_c, 2, 87, 127
7, 302400, Note_off_c, 2, 87, 127
7, 302400, Note_on_c, 2, 86, 127
7, 302640, Note_off_c, 2, 86, 127
7, 302640, Note_on_c, 2, 84, 127
7, 302880, Note_off_c, 2, 84, 127
7, 302880, Note_on_c, 2, 65, 127
7, 303120, Note_off_c, 2, 65, 127
7, 303120, Note_on_c, 2, 75, 127
7, 303360, Note_off_c, 2, 75, 127
7, 303360, Note_on_c, 2, 74, 127
7, 303600, Note_off_c, 2, 74, 127
7, 303600, Note_on_c, 2, 72, 127
7, 303840, Note_off_c, 2, 72, 127
7, 303840, Note_on_c, 2, 65, 127
7, 304080, Note_off_c, 2, 65, 127
7, 304080, Note_on_c, 2, 72, 127
7, 304320, Note_off_c, 2, 72, 127
7, 304320, Note_on_c, 2, 74, 127
7, 304560, Note_off_c, 2, 74, 127
7, 304560, Note_on_c, 2, 75, 127
7, 304800, Note_off_c, 2, 75, 127
7, 304800, Note_on_c, 2, 65, 127
7, 305040, Note_off_c, 2, 65, 127
7, 305040, Note_on_c, 2, 84, 127
7, 305280, Note_off_c, 2, 84, 127
7, 305280, Note_on_c, 2, 86, 127
7, 305520, Note_off_c, 2, 86, 127
7, 305520, Note_on_c, 2, 87, 127
7, 305760, Note_off_c, 2, 87, 127
7, 305760, Note_on_c, 2, 77, 127
7, 306000, Note_off_c, 2, 77, 127
7, 306000, Note_on_c, 2, 96, 127
7, 306240, Note_off_c, 2, 96, 127
7, 306240, Note_on_c, 2, 77, 127
7, 306480, Note_off_c, 2, 77, 127
7, 306480, Note_on_c, 2, 87, 127
7, 306720, Note_off_c, 2, 87, 127
7, 306720, Note_on_c, 2, 86, 127
7, 306960, Note_off_c, 2, 86, 127
7, 306960, Note_on_c, 2, 84, 127
7, 307200, Note_off_c, 2, 84, 127
7, 307200, Note_on_c, 2, 68, 127
7, 307440, Note_off_c, 2, 68, 127
7, 307440, Note_on_c, 2, 74, 127
7, 307680, Note_off_c, 2, 74, 127
7, 307680, Note_on_c, 2, 79, 127
7, 307920, Note_off_c, 2, 79, 127
7, 307920, Note_on_c, 2, 68, 127
7, 308160, Note_off_c, 2, 68, 127
7, 308160, Note_on_c, 2, 84, 127
7, 308400, Note_off_c, 2, 84, 127
7, 308400, Note_on_c, 2, 86, 127
7, 308640, Note_off_c, 2, 86, 127
7, 308640, Note_on_c, 2, 91, 127
7, 308880, Note_off_c, 2, 91, 127
7, 308880, Note_on_c, 2, 80, 127
7, 309120, Note_off_c, 2, 80, 127
7, 309120, Note_on_c, 2, 96, 127
7, 309360, Note_off_c, 2, 96, 127
7, 309360, Note_on_c, 2, 80, 127
7, 309600, Note_off_c, 2, 80, 127
7, 309600, Note_on_c, 2, 91, 127
7, 309840, Note_off_c, 2, 91, 127
7, 309840, Note_on_c, 2, 86, 127
7, 310080, Note_off_c, 2, 86, 127
7, 310080, Note_on_c, 2, 84, 127
7, 310320, Note_off_c, 2, 84, 127
7, 310320, Note_on_c, 2, 68, 127
7, 310560, Note_off_c, 2, 68, 127
7, 310560, Note_on_c, 2, 79, 127
7, 310800, Note_off_c, 2, 79, 127
7, 310800, Note_on_c, 2, 74, 127
7, 311040, Note_off_c, 2, 74, 127
7, 311040, Note_on_c, 2, 68, 127
7, 311280, Note_off_c, 2, 68, 127
7, 311280, Note_on_c, 2, 74, 127
7, 311520, Note_off_c, 2, 74, 127
7, 311520, Note_on_c, 2, 79, 127
7, 311760, Note_off_c, 2, 79, 127
7, 311760, Note_on_c, 2, 68, 127
7, 312000, Note_off_c, 2, 68, 127
7, 312000, Note_on_c, 2, 84, 127
7, 312240, Note_off_c, 2, 84, 127
7, 312240, Note_on_c, 2, 86, 127
7, 312480, Note_off_c, 2, 86, 127
7, 312480, Note_on_c, 2, 91, 127
7, 312720, Note_off_c, 2, 91, 127
7, 312720, Note_on_c, 2, 80, 127
7, 312960, Note_off_c, 2, 80, 127
7, 312960, Note_on_c, 2, 96, 127
7, 313200, Note_off_c, 2, 96, 127
7, 313200, Note_on_c, 2, 80, 127
7, 313440, Note_off_c, 2, 80, 127
7, 313440, Note_on_c, 2, 91, 127
7, 313680, Note_off_c, 2, 91, 127
7, 313680, Note_on_c, 2, 86, 127
7, 313920, Note_off_c, 2, 86, 127
7, 313920, Note_on_c, 2, 84, 127
7, 314160, Note_off_c, 2, 84, 127
7, 314160, Note_on_c, 2, 68, 127
7, 314400, Note_off_c, 2, 68, 127
7, 314400, Note_on_c, 2, 79, 127
7, 314640, Note_off_c, 2, 79, 127
7, 314640, Note_on_c, 2, 74, 127
7, 314880, Note_off_c, 2, 74, 127
7, 314880, Note_on_c, 2, 65, 127
7, 315120, Note_off_c, 2, 65, 127
7, 315120, Note_on_c, 2, 72, 127
7, 315360, Note_off_c, 2, 72, 127
7, 315360, Note_on_c, 2, 74, 127
7, 315600, Note_off_c, 2, 74, 127
7, 315600, Note_on_c, 2, 75, 127
7, 315840, Note_off_c, 2, 75, 127
7, 315840, Note_on_c, 2, 65, 127
7, 316080, Note_off_c, 2, 65, 127
7, 316080, Note_on_c, 2, 84, 127
7, 316320, Note_off_c, 2, 84, 127
7, 316320, Note_on_c, 2, 86, 127
7, 316560, Note_off_c, 2, 86, 127
7, 316560, Note_on_c, 2, 87, 127
7, 316800, Note_off_c, 2, 87, 127
7, 316800, Note_on_c, 2, 77, 127
7, 317040, Note_off_c, 2, 77, 127
7, 317040, Note_on_c, 2, 96, 127
7, 317280, Note_off_c, 2, 96, 127
7, 317280, Note_on_c, 2, 77, 127
7, 317520, Note_off_c, 2, 77, 127
7, 317520, Note_on_c, 2, 87, 127
7, 317760, Note_off_c, 2, 87, 127
7, 317760, Note_on_c, 2, 86, 127
7, 318000, Note_off_c, 2, 86, 127
7, 318000, Note_on_c, 2, 84, 127
7, 318240, Note_off_c, 2, 84, 127
7, 318240, Note_on_c, 2, 65, 127
7, 318480, Note_off_c, 2, 65, 127
7, 318480, Note_on_c, 2, 75, 127
7, 318720, Note_off_c, 2, 75, 127
7, 318720, Note_on_c, 2, 74, 127
7, 318960, Note_off_c, 2, 74, 127
7, 318960, Note_on_c, 2, 72, 127
7, 319200, Note_off_c, 2, 72, 127
7, 319200, Note_on_c, 2, 65, 127
7, 319440, Note_off_c, 2, 65, 127
7, 319440, Note_on_c, 2, 72, 127
7, 319680, Note_off_c, 2, 72, 127
7, 319680, Note_on_c, 2, 74, 127
7, 319920, Note_off_c, 2, 74, 127
7, 319920, Note_on_c, 2, 75, 127
7, 320160, Note_off_c, 2, 75, 127
7, 320160, Note_on_c, 2, 65, 127
7, 320400, Note_off_c, 2, 65, 127
7, 320400, Note_on_c, 2, 84, 127
7, 320640, Note_off_c, 2, 84, 127
7, 320640, Note_on_c, 2, 86, 127
7, 320880, Note_off_c, 2, 86, 127
7, 320880, Note_on_c, 2, 87, 127
7, 321120, Note_off_c, 2, 87, 127
7, 321120, Note_on_c, 2, 77, 127
7, 321360, Note_off_c, 2, 77, 127
7, 321360, Note_on_c, 2, 96, 127
7, 321600, Note_off_c, 2, 96, 127
7, 321600, Note_on_c, 2, 77, 127
7, 321840, Note_off_c, 2, 77, 127
7, 321840, Note_on_c, 2, 87, 127
7, 322080, Note_off_c, 2, 87, 127
7, 322080, Note_on_c, 2, 86, 127
7, 322320, Note_off_c, 2, 86, 127
7, 322320, Note_on_c, 2, 84, 127
7, 322560, Note_off_c, 2, 84, 127
7, 322560, Note_on_c, 2, 68, 127
7, 322800, Note_off_c, 2, 68, 127
7, 322800, Note_on_c, 2, 74, 127
7, 323040, Note_off_c, 2, 74, 127
7, 323040, Note_on_c, 2, 79, 127
7, 323280, Note_off_c, 2, 79, 127
7, 323280, Note_on_c, 2, 68, 127
7, 323520, Note_off_c, 2, 68, 127
7, 323520, Note_on_c, 2, 84, 127
7, 323760, Note_off_c, 2, 84, 127
7, 323760, Note_on_c, 2, 86, 127
7, 324000, Note_off_c, 2, 86, 127
7, 324000, Note_on_c, 2, 91, 127
7, 324240, Note_off_c, 2, 91, 127
7, 324240, Note_on_c, 2, 80, 127
7, 324480, Note_off_c, 2, 80, 127
7, 324480, Note_on_c, 2, 96, 127
7, 324720, Note_off_c, 2, 96, 127
7, 324720, Note_on_c, 2, 80, 127
7, 324960, Note_off_c, 2, 80, 127
7, 324960, Note_on_c, 2, 91, 127
7, 325200, Note_off_c, 2, 91, 127
7, 325200, Note_on_c, 2, 86, 127
7, 325440, Note_off_c, 2, 86, 127
7, 325440, Note_on_c, 2, 84, 127
7, 325680, Note_off_c, 2, 84, 127
7, 325680, Note_on_c, 2, 68, 127
7, 325920, Note_off_c, 2, 68, 127
7, 325920, Note_on_c, 2, 79, 127
7, 326160, Note_off_c, 2, 79, 127
7, 326160, Note_on_c, 2, 74, 127
7, 326400, Note_off_c, 2, 74, 127
7, 326400, Note_on_c, 2, 68, 127
7, 326640, Note_off_c, 2, 68, 127
7, 326640, Note_on_c, 2, 74, 127
7, 326880, Note_off_c, 2, 74, 127
7, 326880, Note_on_c, 2, 79, 127
7, 327120, Note_off_c, 2, 79, 127
7, 327120, Note_on_c, 2, 68, 127
7, 327360, Note_off_c, 2, 68, 127
7, 327360, Note_on_c, 2, 84, 127
7, 327600, Note_off_c, 2, 84, 127
7, 327600, Note_on_c, 2, 86, 127
7, 327840, Note_off_c, 2, 86, 127
7, 327840, Note_on_c, 2, 91, 127
7, 328080, Note_off_c, 2, 91, 127
7, 328080, Note_on_c, 2, 80, 127
7, 328320, Note_off_c, 2, 80, 127
7, 328320, Note_on_c, 2, 96, 127
7, 328560, Note_off_c, 2, 96, 127
7, 328560, Note_on_c, 2, 80, 127
7, 328800, Note_off_c, 2, 80, 127
7, 328800, Note_on_c, 2, 91, 127
7, 329040, Note_off_c, 2, 91, 127
7, 329040, Note_on_c, 2, 86, 127
7, 329280, Note_off_c, 2, 86, 127
7, 329280, Note_on_c, 2, 84, 127
7, 329520, Note_off_c, 2, 84, 127
7, 329520, Note_on_c, 2, 68, 127
7, 329760, Note_off_c, 2, 68, 127
7, 329760, Note_on_c, 2, 79, 127
7, 330000, Note_off_c, 2, 79, 127
7, 330000, Note_on_c, 2, 74, 127
7, 330240, Note_off_c, 2, 74, 127
7, 330240, Note_on_c, 2, 65, 127
7, 330480, Note_off_c, 2, 65, 127
7, 330480, Note_on_c, 2, 72, 127
7, 330720, Note_off_c, 2, 72, 127
7, 330720, Note_on_c, 2, 74, 127
7, 330960, Note_off_c, 2, 74, 127
7, 330960, Note_on_c, 2, 75, 127
7, 331200, Note_off_c, 2, 75, 127
7, 331200, Note_on_c, 2, 65, 127
7, 331440, Note_off_c, 2, 65, 127
7, 331440, Note_on_c, 2, 84, 127
7, 331680, Note_off_c, 2, 84, 127
7, 331680, Note_on_c, 2, 86, 127
7, 331920, Note_off_c, 2, 86, 127
7, 331920, Note_on_c, 2, 87, 127
7, 332160, Note_off_c, 2, 87, 127
7, 332160, Note_on_c, 2, 77, 127
7, 332400, Note_off_c, 2, 77, 127
7, 332400, Note_on_c, 2, 96, 127
7, 332640, Note_off_c, 2, 96, 127
7, 332640, Note_on_c, 2, 77, 127
7, 332880, Note_off_c, 2, 77, 127
7, 332880, Note_on_c, 2, 87, 127
7, 333120, Note_off_c, 2, 87, 127
7, 333120, Note_on_c, 2, 86, 127
7, 333360, Note_off_c, 2, 86, 127
7, 333360, Note_on_c, 2, 84, 127
7, 333600, Note_off_c, 2, 84, 127
7, 333600, Note_on_c, 2, 65, 127
7, 333840, Note_off_c, 2, 65, 127
7, 333840, Note_on_c, 2, 75, 127
7, 334080, Note_off_c, 2, 75, 127
7, 334080, Note_on_c, 2, 74, 127
7, 334320, Note_off_c, 2, 74, 127
7, 334320, Note_on_c, 2, 72, 127
7, 334560, Note_off_c, 2, 72, 127
7, 334560, Note_on_c, 2, 65, 127
7, 334800, Note_off_c, 2, 65, 127
7, 334800, Note_on_c, 2, 72, 127
7, 335040, Note_off_c, 2, 72, 127
7, 335040, Note_on_c, 2, 74, 127
7, 335280, Note_off_c, 2, 74, 127
7, 335280, Note_on_c, 2, 75, 127
7, 335520, Note_off_c, 2, 75, 127
7, 335520, Note_on_c, 2, 65, 127
7, 335760, Note_off_c, 2, 65, 127
7, 335760, Note_on_c, 2, 84, 127
7, 336000, Note_off_c, 2, 84, 127
7, 336000, Note_on_c, 2, 86, 127
7, 336240, Note_off_c, 2, 86, 127
7, 336240, Note_on_c, 2, 87, 127
7, 336480, Note_off_c, 2, 87, 127
7, 336480, Note_on_c, 2, 77, 127
7, 336720, Note_off_c, 2, 77, 127
7, 336720, Note_on_c, 2, 96, 127
7, 336960, Note_off_c, 2, 96, 127
7, 336960, Note_on_c, 2, 77, 127
7, 337200, Note_off_c, 2, 77, 127
7, 337200, Note_on_c, 2, 87, 127
7, 337440, Note_off_c, 2, 87, 127
7, 337440, Note_on_c, 2, 86, 127
7, 337680, Note_off_c, 2, 86, 127
7, 337680, Note_on_c, 2, 84, 127
7, 337920, Note_off_c, 2, 84, 127
7, 337920, Note_on_c, 2, 68, 127
7, 338160, Note_off_c, 2, 68, 127
7, 338160, Note_on_c, 2, 74, 127
7, 338400, Note_off_c, 2, 74, 127
7, 338400, Note_on_c, 2, 79, 127
7, 338640, Note_off_c, 2, 79, 127
7, 338640, Note_on_c, 2, 68, 127
7, 338880, Note_off_c, 2, 68, 127
7, 338880, Note_on_c, 2, 84, 127
7, 339120, Note_off_c, 2, 84, 127
7, 339120, Note_on_c, 2, 86, 127
7, 339360, Note_off_c, 2, 86, 127
7, 339360, Note_on_c, 2, 91, 127
7, 339600, Note_off_c, 2, 91, 127
7, 339600, Note_on_c, 2, 80, 127
7, 339840, Note_off_c, 2, 80, 127
7, 339840, Note_on_c, 2, 96, 127
7, 340080, Note_off_c, 2, 96, 127
7, 340080, Note_on_c, 2, 80, 127
7, 340320, Note_off_c, 2, 80, 127
7, 340320, Note_on_c, 2, 91, 127
7, 340560, Note_off_c, 2, 91, 127
7, 340560, Note_on_c, 2, 86, 127
7, 340800, Note_off_c, 2, 86, 127
7, 340800, Note_on_c, 2, 84, 127
7, 341040, Note_off_c, 2, 84, 127
7, 341040, Note_on_c, 2, 68, 127
7, 341280, Note_off_c, 2, 68, 127
7, 341280, Note_on_c, 2, 79, 127
7, 341520, Note_off_c, 2, 79, 127
7, 341520, Note_on_c, 2, 74, 127
7, 341760, Note_off_c, 2, 74, 127
7, 341760, Note_on_c, 2, 68, 127
7, 342000, Note_off_c, 2, 68, 127
7, 342000, Note_on_c, 2, 74, 127
7, 342240, Note_off_c, 2, 74, 127
7, 342240, Note_on_c, 2, 79, 127
7, 342480, Note_off_c, 2, 79, 127
7, 342480, Note_on_c, 2, 68, 127
7, 342720, Note_off_c, 2, 68, 127
7, 342720, Note_on_c, 2, 84, 127
7, 342960, Note_off_c, 2, 84, 127
7, 342960, Note_on_c, 2, 86, 127
7, 343200, Note_off_c, 2, 86, 127
7, 343200, Note_on_c, 2, 91, 127
7, 343440, Note_off_c, 2, 91, 127
7, 343440, Note_on_c, 2, 80, 127
7, 343680, Note_off_c, 2, 80, 127
7, 343680, Note_on_c, 2, 96, 127
7, 343920, Note_off_c, 2, 96, 127
7, 343920, Note_on_c, 2, 80, 127
7, 344160, Note_off_c, 2, 80, 127
7, 344160, Note_on_c, 2, 91, 127
7, 344400, Note_off_c, 2, 91, 127
7, 344400, Note_on_c, 2, 86, 127
7, 344640, Note_off_c, 2, 86, 127
7, 344640, Note_on_c, 2, 84, 127
7, 344880, Note_off_c, 2, 84, 127
7, 344880, Note_on_c, 2, 68, 127
7, 345120, Note_off_c, 2, 68, 127
7, 345120, Note_on_c, 2, 79, 127
7, 345360, Note_off_c, 2, 79, 127
7, 345360, Note_on_c, 2, 74, 127
7, 345600, Note_off_c, 2, 74, 127
7, 345600, Note_on_c, 2, 65, 127
7, 345840, Note_off_c, 2, 65, 127
7, 345840, Note_on_c, 2, 72, 127
7, 346080, Note_off_c, 2, 72, 127
7, 346080, Note_on_c, 2, 74, 127
7, 346320, Note_off_c, 2, 74, 127
7, 346320, Note_on_c, 2, 75, 127
7, 346560, Note_off_c, 2, 75, 127
7, 346560, Note_on_c, 2, 65, 127
7, 346800, Note_off_c, 2, 65, 127
7, 346800, Note_on_c, 2, 84, 127
7, 347040, Note_off_c, 2, 84, 127
7, 347040, Note_on_c, 2, 86, 127
7, 347280, Note_off_c, 2, 86, 127
7, 347280, Note_on_c, 2, 87, 127
7, 347520, Note_off_c, 2, 87, 127
7, 347520, Note_on_c, 2, 77, 127
7, 347760, Note_off_c, 2, 77, 127
7, 347760, Note_on_c, 2, 96, 127
7, 348000, Note_off_c, 2, 96, 127
7, 348000, Note_on_c, 2, 77, 127
7, 348240, Note_off_c, 2, 77, 127
7, 348240, Note_on_c, 2, 87, 127
7, 348480, Note_off_c, 2, 87, 127
7, 348480, Note_on_c, 2, 86, 127
7, 348720, Note_off_c, 2, 86, 127
7, 348720, Note_on_c, 2, 84, 127
7, 348960, Note_off_c, 2, 84, 127
7, 348960, Note_on_c, 2, 65, 127
7, 349200, Note_off_c, 2, 65, 127
7, 349200, Note_on_c, 2, 75, 127
7, 349440, Note_off_c, 2, 75, 127
7, 349440, Note_on_c, 2, 74, 127
7, 349680, Note_off_c, 2, 74, 127
7, 349680, Note_on_c, 2, 72, 127
7, 349920, Note_off_c, 2, 72, 127
7, 349920, Note_on_c, 2, 65, 127
7, 350160, Note_off_c, 2, 65, 127
7, 350160, Note_on_c, 2, 72, 127
7, 350400, Note_off_c, 2, 72, 127
7, 350400, Note_on_c, 2, 74, 127
7, 350640, Note_off_c, 2, 74, 127
7, 350640, Note_on_c, 2, 75, 127
7, 350880, Note_off_c, 2, 75, 127
7, 350880, Note_on_c, 2, 65, 127
7, 351120, Note_off_c, 2, 65, 127
7, 351120, Note_on_c, 2, 84, 127
7, 351360, Note_off_c, 2, 84, 127
7, 351360, Note_on_c, 2, 86, 127
7, 351600, Note_off_c, 2, 86, 127
7, 351600, Note_on_c, 2, 87, 127
7, 351840, Note_off_c, 2, 87, 127
7, 351840, Note_on_c, 2, 77, 127
7, 352080, Note_off_c, 2, 77, 127
7, 352080, Note_on_c, 2, 96, 127
7, 352320, Note_off_c, 2, 96, 127
7, 352320, Note_on_c, 2, 77, 127
7, 352560, Note_off_c, 2, 77, 127
7, 352560, Note_on_c, 2, 87, 127
7, 352800, Note_off_c, 2, 87, 127
7, 352800, Note_on_c, 2, 86, 127
7, 353040, Note_off_c, 2, 86, 127
7, 353040, Note_on_c, 2, 84, 127
7, 353280, Note_off_c, 2, 84, 127
7, 353280, Note_on_c, 2, 68, 127
7, 353520, Note_off_c, 2, 68, 127
7, 353520, Note_on_c, 2, 74, 127
7, 353760, Note_off_c, 2, 74, 127
7, 353760, Note_on_c, 2, 79, 127
7, 354000, Note_off_c, 2, 79, 127
7, 354000, Note_on_c, 2, 68, 127
7, 354240, Note_off_c, 2, 68, 127
7, 354240, Note_on_c, 2, 84, 127
7, 354480, Note_off_c, 2, 84, 127
7, 354480, Note_on_c, 2, 86, 127
7, 354720, Note_off_c, 2, 86, 127
7, 354720, Note_on_c, 2, 91, 127
7, 354960, Note_off_c, 2, 91, 127
7, 354960, Note_on_c, 2, 80, 127
7, 355200, Note_off_c, 2, 80, 127
7, 355200, Note_on_c, 2, 96, 127
7, 355440, Note_off_c, 2, 96, 127
7, 355440, Note_on_c, 2, 80, 127
7, 355680, Note_off_c, 2, 80, 127
7, 355680, Note_on_c, 2, 91, 127
7, 355920, Note_off_c, 2, 91, 127
7, 355920, Note_on_c, 2, 86, 127
7, 356160, Note_off_c, 2, 86, 127
7, 356160, Note_on_c, 2, 84, 127
7, 356400, Note_off_c, 2, 84, 127
7, 356400, Note_on_c, 2, 68, 127
7, 356640, Note_off_c, 2, 68, 127
7, 356640, Note_on_c, 2, 79, 127
7, 356880, Note_off_c, 2, 79, 127
7, 356880, Note_on_c, 2, 74, 127
7, 357120, Note_off_c, 2, 74, 127
7, 357120, Note_on_c, 2, 68, 127
7, 357360, Note_off_c, 2, 68, 127
7, 357360, Note_on_c, 2, 74, 127
7, 357600, Note_off_c, 2, 74, 127
7, 357600, Note_on_c, 2, 79, 127
7, 357840, Note_off_c, 2, 79, 127
7, 357840, Note_on_c, 2, 68, 127
7, 358080, Note_off_c, 2, 68, 127
7, 358080, Note_on_c, 2, 84, 127
7, 358320, Note_off_c, 2, 84, 127
7, 358320, Note_on_c, 2, 86, 127
7, 358560, Note_off_c, 2, 86, 127
7, 358560, Note_on_c, 2, 91, 127
7, 358800, Note_off_c, 2, 91, 127
7, 358800, Note_on_c, 2, 80, 127
7, 359040, Note_off_c, 2, 80, 127
7, 359040, Note_on_c, 2, 96, 127
7, 359280, Note_off_c, 2, 96, 127
7, 359280, Note_on_c, 2, 80, 127
7, 359520, Note_off_c, 2, 80, 127
7, 359520, Note_on_c, 2, 91, 127
7, 359760, Note_off_c, 2, 91, 127
7, 359760, Note_on_c, 2, 86, 127
7, 360000, Note_off_c, 2, 86, 127
7, 360000, Note_on_c, 2, 84, 127
7, 360240, Note_off_c, 2, 84, 127
7, 360240, Note_on_c, 2, 68, 127
7, 360480, Note_off_c, 2, 68, 127
7, 360480, Note_on_c, 2, 79, 127
7, 360720, Note_off_c, 2, 79, 127
7, 360720, Note_on_c, 2, 74, 127
7, 360960, Note_off_c, 2, 74, 127
7, 360960, Note_on_c, 2, 65, 127
7, 361200, Note_off_c, 2, 65, 127
7, 361200, Note_on_c, 2, 72, 127
7, 361440, Note_off_c, 2, 72, 127
7, 361440, Note_on_c, 2, 74, 127
7, 361680, Note_off_c, 2, 74, 127
7, 361680, Note_on_c, 2, 75, 127
7, 361920, Note_off_c, 2, 75, 127
7, 361920, Note_on_c, 2, 65, 127
7, 362160, Note_off_c, 2, 65, 127
7, 362160, Note_on_c, 2, 84, 127
7, 362400, Note_off_c, 2, 84, 127
7, 362400, Note_on_c, 2, 86, 127
7, 362640, Note_off_c, 2, 86, 127
7, 362640, Note_on_c, 2, 87, 127
7, 362880, Note_off_c, 2, 87, 127
7, 362880, Note_on_c, 2, 77, 127
7, 363120, Note_off_c, 2, 77, 127
7, 363120, Note_on_c, 2, 96, 127
7, 363360, Note_off_c, 2, 96, 127
7, 363360, Note_on_c, 2, 77, 127
7, 363600, Note_off_c, 2, 77, 127
7, 363600, Note_on_c, 2, 87, 127
7, 363840, Note_off_c, 2, 87, 127
7, 363840, Note_on_c, 2, 86, 127
7, 364080, Note_off_c, 2, 86, 127
7, 364080, Note_on_c, 2, 84, 127
7, 364320, Note_off_c, 2, 84, 127
7, 364320, Note_on_c, 2, 65, 127
7, 364560, Note_off_c, 2, 65, 127
7, 364560, Note_on_c, 2, 75, 127
7, 364800, Note_off_c, 2, 75, 127
7, 364800, Note_on_c, 2, 74, 127
7, 365040, Note_off_c, 2, 74, 127
7, 365040, Note_on_c, 2, 72, 127
7, 365280, Note_off_c, 2, 72, 127
7, 365280, Note_on_c, 2, 65, 127
7, 365520, Note_off_c, 2, 65, 127
7, 365520, Note_on_c, 2, 72, 127
7, 365760, Note_off_c, 2, 72, 127
7, 365760, Note_on_c, 2, 74, 127
7, 366000, Note_off_c, 2, 74, 127
7, 366000, Note_on_c, 2, 75, 127
7, 366240, Note_off_c, 2, 75, 127
7, 366240, Note_on_c, 2, 65, 127
7, 366480, Note_off_c, 2, 65, 127
7, 366480, Note_on_c, 2, 84, 127
7, 366720, Note_off_c, 2, 84, 127
7, 366720, Note_on_c, 2, 86, 127
7, 366960, Note_off_c, 2, 86, 127
7, 366960, Note_on_c, 2, 87, 127
7, 367200, Note_off_c, 2, 87, 127
7, 367200, Note_on_c, 2, 77, 127
7, 367440, Note_off_c, 2, 77, 127
7, 367440, Note_on_c, 2, 96, 127
7, 367680, Note_off_c, 2, 96, 127
7, 367680, Note_on_c, 2, 77, 127
7, 367920, Note_off_c, 2, 77, 127
7, 367920, Note_on_c, 2, 87, 127
7, 368160, Note_off_c, 2, 87, 127
7, 368160, Note_on_c, 2, 86, 127
7, 368400, Note_off_c, 2, 86, 127
7, 368400, Note_on_c, 2, 84, 127
7, 368640, Note_off_c, 2, 84, 127
7, 368640, Note_on_c, 2, 68, 127
7, 368880, Note_off_c, 2, 68, 127
7, 368880, Note_on_c, 2, 74, 127
7, 369120, Note_off_c, 2, 74, 127
7, 369120, Note_on_c, 2, 79, 127
7, 369360, Note_off_c, 2, 79, 127
7, 369360, Note_on_c, 2, 68, 127
7, 369600, Note_off_c, 2, 68, 127
7, 369600, Note_on_c, 2, 84, 127
7, 369840, Note_off_c, 2, 84, 127
7, 369840, Note_on_c, 2, 86, 127
7, 370080, Note_off_c, 2, 86, 127
7, 370080, Note_on_c, 2, 91, 127
7, 370320, Note_off_c, 2, 91, 127
7, 370320, Note_on_c, 2, 80, 127
7, 370560, Note_off_c, 2, 80, 127
7, 370560, Note_on_c, 2, 96, 127
7, 370800, Note_off_c, 2, 96, 127
7, 370800, Note_on_c, 2, 80, 127
7, 371040, Note_off_c, 2, 80, 127
7, 371040, Note_on_c, 2, 91, 127
7, 371280, Note_off_c, 2, 91, 127
7, 371280, Note_on_c, 2, 86, 127
7, 371520, Note_off_c, 2, 86, 127
7, 371520, Note_on_c, 2, 84, 127
7, 371760, Note_off_c, 2, 84, 127
7, 371760, Note_on_c, 2, 68, 127
7, 372000, Note_off_c, 2, 68, 127
7, 372000, Note_on_c, 2, 79, 127
7, 372240, Note_off_c, 2, 79, 127
7, 372240, Note_on_c, 2, 74, 127
7, 372480, Note_off_c, 2, 74, 127
7, 372480, Note_on_c, 2, 68, 127
7, 372720, Note_off_c, 2, 68, 127
7, 372720, Note_on_c, 2, 74, 127
7, 372960, Note_off_c, 2, 74, 127
7, 372960, Note_on_c, 2, 79, 127
7, 373200, Note_off_c, 2, 79, 127
7, 373200, Note_on_c, 2, 68, 127
7, 373440, Note_off_c, 2, 68, 127
7, 373440, Note_on_c, 2, 84, 127
7, 373680, Note_off_c, 2, 84, 127
7, 373680, Note_on_c, 2, 86, 127
7, 373920, Note_off_c, 2, 86, 127
7, 373920, Note_on_c, 2, 91, 127
7, 374160, Note_off_c, 2, 91, 127
7, 374160, Note_on_c, 2, 80, 127
7, 374400, Note_off_c, 2, 80, 127
7, 374400, Note_on_c, 2, 96, 127
7, 374640, Note_off_c, 2, 96, 127
7, 374640, Note_on_c, 2, 80, 127
7, 374880, Note_off_c, 2, 80, 127
7, 374880, Note_on_c, 2, 91, 127
7, 375120, Note_off_c, 2, 91, 127
7, 375120, Note_on_c, 2, 86, 127
7, 375360, Note_off_c, 2, 86, 127
7, 375360, Note_on_c, 2, 84, 127
7, 375600, Note_off_c, 2, 84, 127
7, 375600, Note_on_c, 2, 68, 127
7, 375840, Note_off_c, 2, 68, 127
7, 375840, Note_on_c, 2, 79, 127
7, 376080, Note_off_c, 2, 79, 127
7, 376080, Note_on_c, 2, 74, 127
7, 376320, Note_off_c, 2, 74, 127
7, 376320, Note_on_c, 2, 65, 127
7, 376560, Note_off_c, 2, 65, 127
7, 376560, Note_on_c, 2, 72, 127
7, 376800, Note_off_c, 2, 72, 127
7, 376800, Note_on_c, 2, 74, 127
7, 377040, Note_off_c, 2, 74, 127
7, 377040, Note_on_c, 2, 75, 127
7, 377280, Note_off_c, 2, 75, 127
7, 377280, Note_on_c, 2, 65, 127
7, 377520, Note_off_c, 2, 65, 127
7, 377520, Note_on_c, 2, 84, 127
7, 377760, Note_off_c, 2, 84, 127
7, 377760, Note_on_c, 2, 86, 127
7, 378000, Note_off_c, 2, 86, 127
7, 378000, Note_on_c, 2, 87, 127
7, 378240, Note_off_c, 2, 87, 127
7, 378240, Note_on_c, 2, 77, 127
7, 378480, Note_off_c, 2, 77, 127
7, 378480, Note_on_c, 2, 96, 127
7, 378720, Note_off_c, 2, 96, 127
7, 378720, Note_on_c, 2, 77, 127
7, 378960, Note_off_c, 2, 77, 127
7, 378960, Note_on_c, 2, 87, 127
7, 379200, Note_off_c, 2, 87, 127
7, 379200, Note_on_c, 2, 86, 127
7, 379440, Note_off_c, 2, 86, 127
7, 379440, Note_on_c, 2, 84, 127
7, 379680, Note_off_c, 2, 84, 127
7, 379680, Note_on_c, 2, 65, 127
7, 379920, Note_off_c, 2, 65, 127
7, 379920, Note_on_c, 2, 75, 127
7, 380160, Note_off_c, 2, 75, 127
7, 380160, Note_on_c, 2, 74, 127
7, 380400, Note_off_c, 2, 74, 127
7, 380400, Note_on_c, 2, 72, 127
7, 380640, Note_off_c, 2, 72, 127
7, 380640, Note_on_c, 2, 65, 127
7, 380880, Note_off_c, 2, 65, 127
7, 380880, Note_on_c, 2, 72, 127
7, 381120, Note_off_c, 2, 72, 127
7, 381120, Note_on_c, 2, 74, 127
7, 381360, Note_off_c, 2, 74, 127
7, 381360, Note_on_c, 2, 75, 127
7, 381600, Note_off_c, 2, 75, 127
7, 381600, Note_on_c, 2, 65, 127
7, 381840, Note_off_c, 2, 65, 127
7, 381840, Note_on_c, 2, 84, 127
7, 382080, Note_off_c, 2, 84, 127
7, 382080, Note_on_c, 2, 86, 127
7, 382320, Note_off_c, 2, 86, 127
7, 382320, Note_on_c, 2, 87, 127
7, 382560, Note_off_c, 2, 87, 127
7, 382560, Note_on_c, 2, 77, 127
7, 382800, Note_off_c, 2, 77, 127
7, 382800, Note_on_c, 2, 96, 127
7, 383040, Note_off_c, 2, 96, 127
7, 383040, Note_on_c, 2, 77, 127
7, 383280, Note_off_c, 2, 77, 127
7, 383280, Note_on_c, 2, 87, 127
7, 383520, Note_off_c, 2, 87, 127
7, 383520, Note_on_c, 2, 86, 127
7, 383760, Note_off_c, 2, 86, 127
7, 383760, Note_on_c, 2, 84, 127
7, 384000, Note_off_c, 2, 84, 127
7, 384000, Note_on_c, 2, 68, 127
7, 384240, Note_off_c, 2, 68, 127
7, 384240, Note_on_c, 2, 74, 127
7, 384480, Note_off_c, 2, 74, 127
7, 384480, Note_on_c, 2, 79, 127
7, 384720, Note_off_c, 2, 79, 127
7, 384720, Note_on_c, 2, 68, 127
7, 384960, Note_off_c, 2, 68, 127
7, 384960, Note_on_c, 2, 84, 127
7, 385200, Note_off_c, 2, 84, 127
7, 385200, Note_on_c, 2, 86, 127
7, 385440, Note_off_c, 2, 86, 127
7, 385440, Note_on_c, 2, 91, 127
7, 385680, Note_off_c, 2, 91, 127
7, 385680, Note_on_c, 2, 80, 127
7, 385920, Note_off_c, 2, 80, 127
7, 385920, Note_on_c, 2, 96, 127
7, 386160, Note_off_c, 2, 96, 127
7, 386160, Note_on_c, 2, 80, 127
7, 386400, Note_off_c, 2, 80, 127
7, 386400, Note_on_c, 2, 91, 127
7, 386640, Note_off_c, 2, 91, 127
7, 386640, Note_on_c, 2, 86, 127
7, 386880, Note_off_c, 2, 86, 127
7, 386880, Note_on_c, 2, 84, 127
7, 387120, Note_off_c, 2, 84, 127
7, 387120, Note_on_c, 2, 68, 127
7, 387360, Note_off_c, 2, 68, 127
7, 387360, Note_on_c, 2, 79, 127
7, 387600, Note_off_c, 2, 79, 127
7, 387600, Note_on_c, 2, 74, 127
7, 387840, Note_off_c, 2, 74, 127
7, 387840, Note_on_c, 2, 68, 127
7, 388080, Note_off_c, 2, 68, 127
7, 388080, Note_on_c, 2, 74, 127
7, 388320, Note_off_c, 2, 74, 127
7, 388320, Note_on_c, 2, 79, 127
7, 388560, Note_off_c, 2, 79, 127
7, 388560, Note_on_c, 2, 68, 127
7, 388800, Note_off_c, 2, 68, 127
7, 388800, Note_on_c, 2, 84, 127
7, 389040, Note_off_c, 2, 84, 127
7, 389040, Note_on_c, 2, 86, 127
7, 389280, Note_off_c, 2, 86, 127
7, 389280, Note_on_c, 2, 91, 127
7, 389520, Note_off_c, 2, 91, 127
7, 389520, Note_on_c, 2, 80, 127
7, 389760, Note_off_c, 2, 80, 127
7, 389760, Note_on_c, 2, 96, 127
7, 390000, Note_off_c, 2, 96, 127
7, 390000, Note_on_c, 2, 80, 127
7, 390240, Note_off_c, 2, 80, 127
7, 390240, Note_on_c, 2, 91, 127
7, 390480, Note_off_c, 2, 91, 127
7, 390480, Note_on_c, 2, 86, 127
7, 390720, Note_off_c, 2, 86, 127
7, 390720, Note_on_c, 2, 84, 127
7, 390960, Note_off_c, 2, 84, 127
7, 390960, Note_on_c, 2, 68, 127
7, 391200, Note_off_c, 2, 68, 127
7, 391200, Note_on_c, 2, 79, 127
7, 391440, Note_off_c, 2, 79, 127
7, 391440, Note_on_c, 2, 74, 127
7, 391680, Note_off_c, 2, 74, 127
7, 391680, Note_on_c, 2, 65, 127
7, 391920, Note_off_c, 2, 65, 127
7, 391920, Note_on_c, 2, 72, 127
7, 392160, Note_off_c, 2, 72, 127
7, 392160, Note_on_c, 2, 74, 127
7, 392400, Note_off_c, 2, 74, 127
7, 392400, Note_on_c, 2, 75, 127
7, 392640, Note_off_c, 2, 75, 127
7, 392640, Note_on_c, 2, 65, 127
7, 392880, Note_off_c, 2, 65, 127
7, 392880, Note_on_c, 2, 84, 127
7, 393120, Note_off_c, 2, 84, 127
7, 393120, Note_on_c, 2, 86, 127
7, 393360, Note_off_c, 2, 86, 127
7, 393360, Note_on_c, 2, 87, 127
7, 393600, Note_off_c, 2, 87, 127
7, 393600, Note_on_c, 2, 77, 127
7, 393840, Note_off_c, 2, 77, 127
7, 393840, Note_on_c, 2, 96, 127
7, 394080, Note_off_c, 2, 96, 127
7, 394080, Note_on_c, 2, 77, 127
7, 394320, Note_off_c, 2, 77, 127
7, 394320, Note_on_c, 2, 87, 127
7, 394560, Note_off_c, 2, 87, 127
7, 394560, Note_on_c, 2, 86, 127
7, 394800, Note_off_c, 2, 86, 127
7, 394800, Note_on_c, 2, 84, 127
7, 395040, Note_off_c, 2, 84, 127
7, 395040, Note_on_c, 2, 65, 127
7, 395280, Note_off_c, 2, 65, 127
7, 395280, Note_on_c, 2, 75, 127
7, 395520, Note_off_c, 2, 75, 127
7, 395520, Note_on_c, 2, 74, 127
7, 395760, Note_off_c, 2, 74, 127
7, 395760, Note_on_c, 2, 72, 127
7, 396000, Note_off_c, 2, 72, 127
7, 396000, Note_on_c, 2, 65, 127
7, 396240, Note_off_c, 2, 65, 127
7, 396240, Note_on_c, 2, 72, 127
7, 396480, Note_off_c, 2, 72, 127
7, 396480, Note_on_c, 2, 74, 127
7, 396720, Note_off_c, 2, 74, 127
7, 396720, Note_on_c, 2, 75, 127
7, 396960, Note_off_c, 2, 75, 127
7, 396960, Note_on_c, 2, 65, 127
7, 397200, Note_off_c, 2, 65, 127
7, 397200, Note_on_c, 2, 84, 127
7, 397440, Note_off_c, 2, 84, 127
7, 397440, Note_on_c, 2, 86, 127
7, 397680, Note_off_c, 2, 86, 127
7, 397680, Note_on_c, 2, 87, 127
7, 397920, Note_off_c, 2, 87, 127
7, 397920, Note_on_c, 2, 77, 127
7, 398160, Note_off_c, 2, 77, 127
7, 398160, Note_on_c, 2, 96, 127
7, 398400, Note_off_c, 2, 96, 127
7, 398400, Note_on_c, 2, 77, 127
7, 398640, Note_off_c, 2, 77, 127
7, 398640, Note_on_c, 2, 87, 127
7, 398880, Note_off_c, 2, 87, 127
7, 398880, Note_on_c, 2, 86, 127
7, 399120, Note_off_c, 2, 86, 127
7, 399120, Note_on_c, 2, 84, 127
7, 399360, Note_off_c, 2, 84, 127
7, 399360, Note_on_c, 2, 68, 127
7, 399600, Note_off_c, 2, 68, 127
7, 399600, Note_on_c, 2, 74, 127
7, 399840, Note_off_c, 2, 74, 127
7, 399840, Note_on_c, 2, 79, 127
7, 400080, Note_off_c, 2, 79, 127
7, 400080, Note_on_c, 2, 68, 127
7, 400320, Note_off_c, 2, 68, 127
7, 400320, Note_on_c, 2, 84, 127
7, 400560, Note_off_c, 2, 84, 127
7, 400560, Note_on_c, 2, 86, 127
7, 400800, Note_off_c, 2, 86, 127
7, 400800, Note_on_c, 2, 91, 127
7, 401040, Note_off_c, 2, 91, 127
7, 401040, Note_on_c, 2, 80, 127
7, 401280, Note_off_c, 2, 80, 127
7, 401280, Note_on_c, 2, 96, 127
7, 401520, Note_off_c, 2, 96, 127
7, 401520, Note_on_c, 2, 80, 127
7, 401760, Note_off_c, 2, 80, 127
7, 401760, Note_on_c, 2, 91, 127
7, 402000, Note_off_c, 2, 91, 127
7, 402000, Note_on_c, 2, 86, 127
7, 402240, Note_off_c, 2, 86, 127
7, 402240, Note_on_c, 2, 84, 127
7, 402480, Note_off_c, 2, 84, 127
7, 402480, Note_on_c, 2, 68, 127
7, 402720, Note_off_c, 2, 68, 127
7, 402720, Note_on_c, 2, 79, 127
7, 402960, Note_off_c, 2, 79, 127
7, 402960, Note_on_c, 2, 74, 127
7, 403200, Note_off_c, 2, 74, 127
7, 403200, Note_on_c, 2, 68, 127
7, 403440, Note_off_c, 2, 68, 127
7, 403440, Note_on_c, 2, 74, 127
7, 403680, Note_off_c, 2, 74, 127
7, 403680, Note_on_c, 2, 79, 127
7, 403920, Note_off_c, 2, 79, 127
7, 403920, Note_on_c, 2, 68, 127
7, 404160, Note_off_c, 2, 68, 127
7, 404160, Note_on_c, 2, 84, 127
7, 404400, Note_off_c, 2, 84, 127
7, 404400, Note_on_c, 2, 86, 127
7, 404640, Note_off_c, 2, 86, 127
7, 404640, Note_on_c, 2, 91, 127
7, 404880, Note_off_c, 2, 91, 127
7, 404880, Note_on_c, 2, 80, 127
7, 405120, Note_off_c, 2, 80, 127
7, 405120, Note_on_c, 2, 96, 127
7, 405360, Note_off_c, 2, 96, 127
7, 405360, Note_on_c, 2, 80, 127
7, 405600, Note_off_c, 2, 80, 127
7, 405600, Note_on_c, 2, 91, 127
7, 405840, Note_off_c, 2, 91, 127
7, 405840, Note_on_c, 2, 86, 127
7, 406080, Note_off_c, 2, 86, 127
7, 406080, Note_on_c, 2, 84, 127
7, 406320, Note_off_c, 2, 84, 127
7, 406320, Note_on_c, 2, 68, 127
7, 406560, Note_off_c, 2, 68, 127
7, 406560, Note_on_c, 2, 79, 127
7, 406800, Note_off_c, 2, 79, 127
7, 406800, Note_on_c, 2, 74, 127
7, 407040, Note_off_c, 2, 74, 127
7, 407040, Note_on_c, 2, 65, 127
7, 407280, Note_off_c, 2, 65, 127
7, 407280, Note_on_c, 2, 72, 127
7, 407520, Note_off_c, 2, 72, 127
7, 407520, Note_on_c, 2, 74, 127
7, 407760, Note_off_c, 2, 74, 127
7, 407760, Note_on_c, 2, 75, 127
7, 408000, Note_off_c, 2, 75, 127
7, 408000, Note_on_c, 2, 65, 127
7, 408240, Note_off_c, 2, 65, 127
7, 408240, Note_on_c, 2, 84, 127
7, 408480, Note_off_c, 2, 84, 127
7, 408480, Note_on_c, 2, 86, 127
7, 408720, Note_off_c, 2, 86, 127
7, 408720, Note_on_c, 2, 87, 127
7, 408960, Note_off_c, 2, 87, 127
7, 408960, Note_on_c, 2, 77, 127
7, 409200, Note_off_c, 2, 77, 127
7, 409200, Note_on_c, 2, 96, 127
7, 409440, Note_off_c, 2, 96, 127
7, 409440, Note_on_c, 2, 77, 127
7, 409680, Note_off_c, 2, 77, 127
7, 409680, Note_on_c, 2, 87, 127
7, 409920, Note_off_c, 2, 87, 127
7, 409920, Note_on_c, 2, 86, 127
7, 410160, Note_off_c, 2, 86, 127
7, 410160, Note_on_c, 2, 84, 127
7, 410400, Note_off_c, 2, 84, 127
7, 410400, Note_on_c, 2, 65, 127
7, 410640, Note_off_c, 2, 65, 127
7, 410640, Note_on_c, 2, 75, 127
7, 410880, Note_off_c, 2, 75, 127
7, 410880, Note_on_c, 2, 74, 127
7, 411120, Note_off_c, 2, 74, 127
7, 411120, Note_on_c, 2, 72, 127
7, 411360, Note_off_c, 2, 72, 127
7, 411360, Note_on_c, 2, 65, 127
7, 411600, Note_off_c, 2, 65, 127
7, 411600, Note_on_c, 2, 72, 127
7, 411840, Note_off_c, 2, 72, 127
7, 411840, Note_on_c, 2, 74, 127
7, 412080, Note_off_c, 2, 74, 127
7, 412080, Note_on_c, 2, 75, 127
7, 412320, Note_off_c, 2, 75, 127
7, 412320, Note_on_c, 2, 65, 127
7, 412560, Note_off_c, 2, 65, 127
7, 412560, Note_on_c, 2, 84, 127
7, 412800, Note_off_c, 2, 84, 127
7, 412800, Note_on_c, 2, 86, 127
7, 413040, Note_off_c, 2, 86, 127
7, 413040, Note_on_c, 2, 87, 127
7, 413280, Note_off_c, 2, 87, 127
7, 413280, Note_on_c, 2, 77, 127
7, 413520, Note_off_c, 2, 77, 127
7, 413520, Note_on_c, 2, 96, 127
7, 413760, Note_off_c, 2, 96, 127
7, 413760, Note_on_c, 2, 77, 127
7, 414000, Note_off_c, 2, 77, 127
7, 414000, Note_on_c, 2, 87, 127
7, 414240, Note_off_c, 2, 87, 127
7, 414240, Note_on_c, 2, 86, 127
7, 414480, Note_off_c, 2, 86, 127
7, 414480, Note_on_c, 2, 84, 127
7, 414720, Note_off_c, 2, 84, 127
7, 414720, Note_on_c, 2, 68, 127
7, 414960, Note_off_c, 2, 68, 127
7, 414960, Note_on_c, 2, 74, 127
7, 415200, Note_off_c, 2, 74, 127
7, 415200, Note_on_c, 2, 79, 127
7, 415440, Note_off_c, 2, 79, 127
7, 415440, Note_on_c, 2, 68, 127
7, 415680, Note_off_c, 2, 68, 127
7, 415680, Note_on_c, 2, 84, 127
7, 415920, Note_off_c, 2, 84, 127
7, 415920, Note_on_c, 2, 86, 127
7, 416160, Note_off_c, 2, 86, 127
7, 416160, Note_on_c, 2, 91, 127
7, 416400, Note_off_c, 2, 91, 127
7, 416400, Note_on_c, 2, 80, 127
7, 416640, Note_off_c, 2, 80, 127
7, 416640, Note_on_c, 2, 96, 127
7, 416880, Note_off_c, 2, 96, 127
7, 416880, Note_on_c, 2, 80, 127
7, 417120, Note_off_c, 2, 80, 127
7, 417120, Note_on_c, 2, 91, 127
7, 417360, Note_off_c, 2, 91, 127
7, 417360, Note_on_c, 2, 86, 127
7, 417600, Note_off_c, 2, 86, 127
7, 417600, Note_on_c, 2, 84, 127
7, 417840, Note_off_c, 2, 84, 127
7, 417840, Note_on_c, 2, 68, 127
7, 418080, Note_off_c, 2, 68, 127
7, 418080, Note_on_c, 2, 79, 127
7, 418320, Note_off_c, 2, 79, 127
7, 418320, Note_on_c, 2, 74, 127
7, 418560, Note_off_c, 2, 74, 127
7, 418560, Note_on_c, 2, 68, 127
7, 418800, Note_off_c, 2, 68, 127
7, 418800, Note_on_c, 2, 74, 127
7, 419040, Note_off_c, 2, 74, 127
7, 419040, Note_on_c, 2, 79, 127
7, 419280, Note_off_c, 2, 79, 127
7, 419280, Note_on_c, 2, 68, 127
7, 419520, Note_off_c, 2, 68, 127
7, 419520, Note_on_c, 2, 84, 127
7, 419760, Note_off_c, 2, 84, 127
7, 419760, Note_on_c, 2, 86, 127
7, 420000, Note_off_c, 2, 86, 127
7, 420000, Note_on_c, 2, 91, 127
7, 420240, Note_off_c, 2, 91, 127
7, 420240, Note_on_c, 2, 80, 127
7, 420480, Note_off_c, 2, 80, 127
7, 420480, Note_on_c, 2, 96, 127
7, 420720, Note_off_c, 2, 96, 127
7, 420720, Note_on_c, 2, 80, 127
7, 420960, Note_off_c, 2, 80, 127
7, 420960, Note_on_c, 2, 91, 127
7, 421200, Note_off_c, 2, 91, 127
7, 421200, Note_on_c, 2, 86, 127
7, 421440, Note_off_c, 2, 86, 127
7, 421440, Note_on_c, 2, 84, 127
7, 421680, Note_off_c, 2, 84, 127
7, 421680, Note_on_c, 2, 68, 127
7, 421920, Note_off_c, 2, 68, 127
7, 421920, Note_on_c, 2, 79, 127
7, 422160, Note_off_c, 2, 79, 127
7, 422160, Note_on_c, 2, 74, 127
7, 422400, Note_off_c, 2, 74, 127
7, 422400, Note_on_c, 2, 65, 127
7, 422640, Note_off_c, 2, 65, 127
7, 422640, Note_on_c, 2, 72, 127
7, 422880, Note_off_c, 2, 72, 127
7, 422880, Note_on_c, 2, 74, 127
7, 423120, Note_off_c, 2, 74, 127
7, 423120, Note_on_c, 2, 75, 127
7, 423360, Note_off_c, 2, 75, 127
7, 423360, Note_on_c, 2, 65, 127
7, 423600, Note_off_c, 2, 65, 127
7, 423600, Note_on_c, 2, 84, 127
7, 423840, Note_off_c, 2, 84, 127
7, 423840, Note_on_c, 2, 86, 127
7, 424080, Note_off_c, 2, 86, 127
7, 424080, Note_on_c, 2, 87, 127
7, 424320, Note_off_c, 2, 87, 127
7, 424320, Note_on_c, 2, 77, 127
7, 424560, Note_off_c, 2, 77, 127
7, 424560, Note_on_c, 2, 96, 127
7, 424800, Note_off_c, 2, 96, 127
7, 424800, Note_on_c, 2, 77, 127
7, 425040, Note_off_c, 2, 77, 127
7, 425040, Note_on_c, 2, 87, 127
7, 425280, Note_off_c, 2, 87, 127
7, 425280, Note_on_c, 2, 86, 127
7, 425520, Note_off_c, 2, 86, 127
7, 425520, Note_on_c, 2, 84, 127
7, 425760, Note_off_c, 2, 84, 127
7, 425760, Note_on_c, 2, 65, 127
7, 426000, Note_off_c, 2, 65, 127
7, 426000, Note_on_c, 2, 75, 127
7, 426240, Note_off_c, 2, 75, 127
7, 426240, Note_on_c, 2, 74, 127
7, 426480, Note_off_c, 2, 74, 127
7, 426480, Note_on_c, 2, 72, 127
7, 426720, Note_off_c, 2, 72, 127
7, 426720, Note_on_c, 2, 65, 127
7, 426960, Note_off_c, 2, 65, 127
7, 426960, Note_on_c, 2, 72, 127
7, 427200, Note_off_c, 2, 72, 127
7, 427200, Note_on_c, 2, 74, 127
7, 427440, Note_off_c, 2, 74, 127
7, 427440, Note_on_c, 2, 75, 127
7, 427680, Note_off_c, 2, 75, 127
7, 427680, Note_on_c, 2, 65, 127
7, 427920, Note_off_c, 2, 65, 127
7, 427920, Note_on_c, 2, 84, 127
7, 428160, Note_off_c, 2, 84, 127
7, 428160, Note_on_c, 2, 86, 127
7, 428400, Note_off_c, 2, 86, 127
7, 428400, Note_on_c, 2, 87, 127
7, 428640, Note_off_c, 2, 87, 127
7, 428640, Note_on_c, 2, 77, 127
7, 428880, Note_off_c, 2, 77, 127
7, 428880, Note_on_c, 2, 96, 127
7, 429120, Note_off_c, 2, 96, 127
7, 429120, Note_on_c, 2, 77, 127
7, 429360, Note_off_c, 2, 77, 127
7, 429360, Note_on_c, 2, 87, 127
7, 429600, Note_off_c, 2, 87, 127
7, 429600, Note_on_c, 2, 86, 127
7, 429840, Note_off_c, 2, 86, 127
7, 429840, Note_on_c, 2, 84, 127
7, 430080, Note_off_c, 2, 84, 127
7, 430080, Note_on_c, 2, 68, 127
7, 430320, Note_off_c, 2, 68, 127
7, 430320, Note_on_c, 2, 74, 127
7, 430560, Note_off_c, 2, 74, 127
7, 430560, Note_on_c, 2, 79, 127
7, 430800, Note_off_c, 2, 79, 127
7, 430800, Note_on_c, 2, 68, 127
7, 431040, Note_off_c, 2, 68, 127
7, 431040, Note_on_c, 2, 84, 127
7, 431280, Note_off_c, 2, 84, 127
7, 431280, Note_on_c, 2, 86, 127
7, 431520, Note_off_c, 2, 86, 127
7, 431520, Note_on_c, 2, 91, 127
7, 431760, Note_off_c, 2, 91, 127
7, 431760, Note_on_c, 2, 80, 127
7, 432000, Note_off_c, 2, 80, 127
7, 432000, Note_on_c, 2, 96, 127
7, 432240, Note_off_c, 2, 96, 127
7, 432240, Note_on_c, 2, 80, 127
7, 432480, Note_off_c, 2, 80, 127
7, 432480, Note_on_c, 2, 91, 127
7, 432720, Note_off_c, 2, 91, 127
7, 432720, Note_on_c, 2, 86, 127
7, 432960, Note_off_c, 2, 86, 127
7, 432960, Note_on_c, 2, 84, 127
7, 433200, Note_off_c, 2, 84, 127
7, 433200, Note_on_c, 2, 68, 127
7, 433440, Note_off_c, 2, 68, 127
7, 433440, Note_on_c, 2, 79, 127
7, 433680, Note_off_c, 2, 79, 127
7, 433680, Note_on_c, 2, 74, 127
7, 433920, Note_off_c, 2, 74, 127
7, 433920, Note_on_c, 2, 68, 127
7, 434160, Note_off_c, 2, 68, 127
7, 434160, Note_on_c, 2, 74, 127
7, 434400, Note_off_c, 2, 74, 127
7, 434400, Note_on_c, 2, 79, 127
7, 434640, Note_off_c, 2, 79, 127
7, 434640, Note_on_c, 2, 68, 127
7, 434880, Note_off_c, 2, 68, 127
7, 434880, Note_on_c, 2, 84, 127
7, 435120, Note_off_c, 2, 84, 127
7, 435120, Note_on_c, 2, 86, 127
7, 435360, Note_off_c, 2, 86, 127
7, 435360, Note_on_c, 2, 91, 127
7, 435600, Note_off_c, 2, 91, 127
7, 435600, Note_on_c, 2, 80, 127
7, 435840, Note_off_c, 2, 80, 127
7, 435840, Note_on_c, 2, 96, 127
7, 436080, Note_off_c, 2, 96, 127
7, 436080, Note_on_c, 2, 80, 127
7, 436320, Note_off_c, 2, 80, 127
7, 436320, Note_on_c, 2, 91, 127
7, 436560, Note_off_c, 2, 91, 127
7, 436560, Note_on_c, 2, 86, 127
7, 436800, Note_off_c, 2, 86, 127
7, 436800, Note_on_c, 2, 84, 127
7, 437040, Note_off_c, 2, 84, 127
7, 437040, Note_on_c, 2, 68, 127
7, 437280, Note_off_c, 2, 68, 127
7, 437280, Note_on_c, 2, 79, 127
7, 437520, Note_off_c, 2, 79, 127
7, 437520, Note_on_c, 2, 74, 127
7, 437760, Note_off_c, 2, 74, 127
7, 437760, Note_on_c, 2, 65, 127
7, 438000, Note_off_c, 2, 65, 127
7, 438000, Note_on_c, 2, 72, 127
7, 438240, Note_off_c, 2, 72, 127
7, 438240, Note_on_c, 2, 74, 127
7, 438480, Note_off_c, 2, 74, 127
7, 438480, Note_on_c, 2, 75, 127
7, 438720, Note_off_c, 2, 75, 127
7, 438720, Note_on_c, 2, 65, 127
7, 438960, Note_off_c, 2, 65, 127
7, 438960, Note_on_c, 2, 84, 127
7, 439200, Note_off_c, 2, 84, 127
7, 439200, Note_on_c, 2, 86, 127
7, 439440, Note_off_c, 2, 86, 127
7, 439440, Note_on_c, 2, 87, 127
7, 439680, Note_off_c, 2, 87, 127
7, 439680, Note_on_c, 2, 77, 127
7, 439920, Note_off_c, 2, 77, 127
7, 439920, Note_on_c, 2, 96, 127
7, 440160, Note_off_c, 2, 96, 127
7, 440160, Note_on_c, 2, 77, 127
7, 440400, Note_off_c, 2, 77, 127
7, 440400, Note_on_c, 2, 87, 127
7, 440640, Note_off_c, 2, 87, 127
7, 440640, Note_on_c, 2, 86, 127
7, 440880, Note_off_c, 2, 86, 127
7, 440880, Note_on_c, 2, 84, 127
7, 441120, Note_off_c, 2, 84, 127
7, 441120, Note_on_c, 2, 65, 127
7, 441360, Note_off_c, 2, 65, 127
7, 441360, Note_on_c, 2, 75, 127
7, 441600, Note_off_c, 2, 75, 127
7, 441600, Note_on_c, 2, 74, 127
7, 441840, Note_off_c, 2, 74, 127
7, 441840, Note_on_c, 2, 72, 127
7, 442080, Note_off_c, 2, 72, 127
7, 442080, Note_on_c, 2, 65, 127
7, 442320, Note_off_c, 2, 65, 127
7, 442320, Note_on_c, 2, 72, 127
7, 442560, Note_off_c, 2, 72, 127
7, 442560, Note_on_c, 2, 74, 127
7, 442800, Note_off_c, 2, 74, 127
7, 442800, Note_on_c, 2, 75, 127
7, 443040, Note_off_c, 2, 75, 127
7, 443040, Note_on_c, 2, 65, 127
7, 443280, Note_off_c, 2, 65, 127
7, 443280, Note_on_c, 2, 84, 127
7, 443520, Note_off_c, 2, 84, 127
7, 443520, Note_on_c, 2, 86, 127
7, 443760, Note_off_c, 2, 86, 127
7, 443760, Note_on_c, 2, 87, 127
7, 444000, Note_off_c, 2, 87, 127
7, 444000, Note_on_c, 2, 77, 127
7, 444240, Note_off_c, 2, 77, 127
7, 444240, Note_on_c, 2, 96, 127
7, 444480, Note_off_c, 2, 96, 127
7, 444480, Note_on_c, 2, 77, 127
7, 444720, Note_off_c, 2, 77, 127
7, 444720, Note_on_c, 2, 87, 127
7, 444960, Note_off_c, 2, 87, 127
7, 444960, Note_on_c, 2, 86, 127
7, 445200, Note_off_c, 2, 86, 127
7, 445200, Note_on_c, 2, 84, 127
7, 445440, Note_off_c, 2, 84, 127
7, 492000, Note_on_c, 2, 71, 127
7, 492480, Note_off_c, 2, 71, 127
7, 492480, Note_on_c, 2, 74, 127
7, 492960, Note_off_c, 2, 74, 127
7, 492960, Note_on_c, 2, 77, 127
7, 493440, Note_off_c, 2, 77, 127
7, 493440, Note_on_c, 2, 85, 127
7, 493920, Note_off_c, 2, 85, 127
7, 493920, Note_on_c, 2, 80, 127
7, 494400, Note_off_c, 2, 80, 127
7, 494400, Note_on_c, 2, 82, 127
7, 497280, Note_off_c, 2, 82, 127
7, 497760, Note_on_c, 2, 71, 127
7, 498240, Note_off_c, 2, 71, 127
7, 498240, Note_on_c, 2, 74, 127
7, 498720, Note_off_c, 2, 74, 127
7, 498720, Note_on_c, 2, 77, 127
7, 499200, Note_off_c, 2, 77, 127
7, 499200, Note_on_c, 2, 85, 127
7, 499680, Note_off_c, 2, 85, 127
7, 499680, Note_on_c, 2, 80, 127
7, 500160, Note_off_c, 2, 80, 127
7, 500160, Note_on_c, 2, 82, 127
7, 503040, Note_off_c, 2, 82, 127
7, 503520, Note_on_c, 2, 71, 127
7, 504000, Note_off_c, 2, 71, 127
7, 504000, Note_on_c, 2, 74, 127
7, 504480, Note_off_c, 2, 74, 127
7, 504480, Note_on_c, 2, 77, 127
7, 504960, Note_off_c, 2, 77, 127
7, 504960, Note_on_c, 2, 85, 127
7, 505440, Note_off_c, 2, 85, 127
7, 505440, Note_on_c, 2, 80, 127
7, 505920, Note_off_c, 2, 80, 127
7, 505920, Note_on_c, 2, 82, 127
7, 508800, Note_off_c, 2, 82, 127
7, 509280, Note_on_c, 2, 71, 127
7, 509760, Note_off_c, 2, 71, 127
7, 509760, Note_on_c, 2, 74, 127
7, 510240, Note_off_c, 2, 74, 127
7, 510240, Note_on_c, 2, 77, 127
7, 510720, Note_off_c, 2, 77, 127
7, 510720, Note_on_c, 2, 85, 127
7, 511200, Note_off_c, 2, 85, 127
7, 511200, Note_on_c, 2, 80, 127
7, 511680, Note_off_c, 2, 80, 127
7, 511680, Note_on_c, 2, 82, 127
7, 514560, Note_off_c, 2, 82, 127
7, 515040, Note_on_c, 2, 70, 127
7, 515520, Note_off_c, 2, 70, 127
7, 515520, Note_on_c, 2, 73, 127
7, 516000, Note_off_c, 2, 73, 127
7, 516000, Note_on_c, 2, 80, 127
7, 516480, Note_off_c, 2, 80, 127
7, 516480, Note_on_c, 2, 87, 127
7, 516960, Note_off_c, 2, 87, 127
7, 516960, Note_on_c, 2, 77, 127
7, 517440, Note_off_c, 2, 77, 127
7, 517440, Note_on_c, 2, 84, 127
7, 520320, Note_off_c, 2, 84, 127
7, 520800, Note_on_c, 2, 70, 127
7, 521280, Note_off_c, 2, 70, 127
7, 521280, Note_on_c, 2, 73, 127
7, 521760, Note_off_c, 2, 73, 127
7, 521760, Note_on_c, 2, 80, 127
7, 522240, Note_off_c, 2, 80, 127
7, 522240, Note_on_c, 2, 87, 127
7, 522720, Note_off_c, 2, 87, 127
7, 522720, Note_on_c, 2, 77, 127
7, 523200, Note_off_c, 2, 77, 127
7, 523200, Note_on_c, 2, 84, 127
7, 526080, Note_off_c, 2, 84, 127
7, 526560, Note_on_c, 2, 70, 127
7, 527040, Note_off_c, 2, 70, 127
7, 527040, Note_on_c, 2, 73, 127
7, 527520, Note_off_c, 2, 73, 127
7, 527520, Note_on_c, 2, 80, 127
7, 528000, Note_off_c, 2, 80, 127
7, 528000, Note_on_c, 2, 87, 127
7, 528480, Note_off_c, 2, 87, 127
7, 528480, Note_on_c, 2, 77, 127
7, 528960, Note_off_c, 2, 77, 127
7, 528960, Note_on_c, 2, 84, 127
7, 531840, Note_off_c, 2, 84, 127
7, 532320, Note_on_c, 2, 70, 127
7, 532800, Note_off_c, 2, 70, 127
7, 532800, Note_on_c, 2, 73, 127
7, 533280, Note_off_c, 2, 73, 127
7, 533280, Note_on_c, 2, 80, 127
7, 533760, Note_off_c, 2, 80, 127
7, 533760, Note_on_c, 2, 87, 127
7, 534240, Note_off_c, 2, 87, 127
7, 534240, Note_on_c, 2, 77, 127
7, 534720, Note_off_c, 2, 77, 127
7, 534720, Note_on_c, 2, 84, 127
7, 537600, Note_off_c, 2, 84, 127
7, 538080, Note_on_c, 2, 69, 127
7, 538560, Note_off_c, 2, 69, 127
7, 538560, Note_on_c, 2, 72, 127
7, 539040, Note_off_c, 2, 72, 127
7, 539040, Note_on_c, 2, 88, 127
7, 539520, Note_off_c, 2, 88, 127
7, 539520, Note_on_c, 2, 77, 127
7, 540000, Note_off_c, 2, 77, 127
7, 540000, Note_on_c, 2, 84, 127
7, 540480, Note_off_c, 2, 84, 127
7, 540480, Note_on_c, 2, 83, 127
7, 543360, Note_off_c, 2, 83, 127
7, 543840, Note_on_c, 2, 69, 127
7, 544320, Note_off_c, 2, 69, 127
7, 544320, Note_on_c, 2, 72, 127
7, 544800, Note_off_c, 2, 72, 127
7, 544800, Note_on_c, 2, 88, 127
7, 545280, Note_off_c, 2, 88, 127
7, 545280, Note_on_c, 2, 77, 127
7, 545760, Note_off_c, 2, 77, 127
7, 545760, Note_on_c, 2, 84, 127
7, 546240, Note_off_c, 2, 84, 127
7, 546240, Note_on_c, 2, 83, 127
7, 549120, Note_off_c, 2, 83, 127
7, 549600, Note_on_c, 2, 69, 127
7, 550080, Note_off_c, 2, 69, 127
7, 550080, Note_on_c, 2, 72, 127
7, 550560, Note_off_c, 2, 72, 127
7, 550560, Note_on_c, 2, 88, 127
7, 551040, Note_off_c, 2, 88, 127
7, 551040, Note_on_c, 2, 77, 127
7, 551520, Note_off_c, 2, 77, 127
7, 551520, Note_on_c, 2, 84, 127
7, 552000, Note_off_c, 2, 84, 127
7, 552000, Note_on_c, 2, 83, 127
7, 554880, Note_off_c, 2, 83, 127
7, 555360, Note_on_c, 2, 69, 127
7, 555840, Note_off_c, 2, 69, 127
7, 555840, Note_on_c, 2, 72, 127
7, 556320, Note_off_c, 2, 72, 127
7, 556320, Note_on_c, 2, 88, 127
7, 556800, Note_off_c, 2, 88, 127
7, 556800, Note_on_c, 2, 77, 127
7, 557280, Note_off_c, 2, 77, 127
7, 557280, Note_on_c, 2, 84, 127
7, 557760, Note_off_c, 2, 84, 127
7, 557760, Note_on_c, 2, 83, 127
7, 560640, Note_off_c, 2, 83, 127
7, 561120, Note_on_c, 2, 70, 127
7, 561600, Note_off_c, 2, 70, 127
7, 561600, Note_on_c, 2, 73, 127
7, 562080, Note_off_c, 2, 73, 127
7, 562080, Note_on_c, 2, 82, 127
7, 562560, Note_off_c, 2, 82, 127
7, 562560, Note_on_c, 2, 92, 127
7, 563040, Note_off_c, 2, 92, 127
7, 563040, Note_on_c, 2, 89, 127
7, 563520, Note_off_c, 2, 89, 127
7, 563520, Note_on_c, 2, 87, 127
7, 566400, Note_off_c, 2, 87, 127
7, 566880, Note_on_c, 2, 70, 127
7, 567360, Note_off_c, 2, 70, 127
7, 567360, Note_on_c, 2, 73, 127
7, 567840, Note_off_c, 2, 73, 127
7, 567840, Note_on_c, 2, 82, 127
7, 568320, Note_off_c, 2, 82, 127
7, 568320, Note_on_c, 2, 92, 127
7, 568800, Note_off_c, 2, 92, 127
7, 568800, Note_on_c, 2, 89, 127
7, 569280, Note_off_c, 2, 89, 127
7, 569280, Note_on_c, 2, 87, 127
7, 572160, Note_off_c, 2, 87, 127
7, 572640, Note_on_c, 2, 70, 127
7, 573120, Note_off_c, 2, 70, 127
7, 573120, Note_on_c, 2, 73, 127
7, 573600, Note_off_c, 2, 73, 127
7, 573600, Note_on_c, 2, 82, 127
7, 574080, Note_off_c, 2, 82, 127
7, 574080, Note_on_c, 2, 92, 127
7, 574560, Note_off_c, 2, 92, 127
7, 574560, Note_on_c, 2, 89, 127
7, 575040, Note_off_c, 2, 89, 127
7, 575040, Note_on_c, 2, 87, 127
7, 577920, Note_off_c, 2, 87, 127
7, 578400, Note_on_c, 2, 70, 127
7, 578880, Note_off_c, 2, 70, 127
7, 578880, Note_on_c, 2, 73, 127
7, 579360, Note_off_c, 2, 73, 127
7, 579360, Note_on_c, 2, 82, 127
7, 579840, Note_off_c, 2, 82, 127
7, 579840, Note_on_c, 2, 92, 127
7, 580320, Note_off_c, 2, 92, 127
7, 580320, Note_on_c, 2, 89, 127
7, 580800, Note_off_c, 2, 89, 127
7, 580800, Note_on_c, 2, 87, 127
7, 583680, Note_off_c, 2, 87, 127
7, 586560, Note_on_c, 2, 83, 127
7, 586800, Note_off_c, 2, 83, 127
7, 586800, Note_on_c, 2, 84, 127
7, 587040, Note_off_c, 2, 84, 127
7, 587040, Note_on_c, 2, 86, 127
7, 587280, Note_off_c, 2, 86, 127
7, 587280, Note_on_c, 2, 87, 127
7, 587520, Note_off_c, 2, 87, 127
7, 587520, Note_on_c, 2, 89, 127
7, 587760, Note_off_c, 2, 89, 127
7, 587760, Note_on_c, 2, 91, 127
7, 588000, Note_off_c, 2, 91, 127
7, 588000, Note_on_c, 2, 92, 127
7, 588240, Note_off_c, 2, 92, 127
7, 588240, Note_on_c, 2, 91, 127
7, 588480, Note_off_c, 2, 91, 127
7, 588480, Note_on_c, 2, 89, 127
7, 588720, Note_off_c, 2, 89, 127
7, 588720, Note_on_c, 2, 87, 127
7, 588960, Note_off_c, 2, 87, 127
7, 588960, Note_on_c, 2, 86, 127
7, 589200, Note_off_c, 2, 86, 127
7, 589200, Note_on_c, 2, 84, 127
7, 589440, Note_off_c, 2, 84, 127
7, 589440, Note_on_c, 2, 83, 127
7, 592320, Note_off_c, 2, 83, 127
7, 592320, Note_on_c, 2, 82, 127
7, 592581, Note_off_c, 2, 82, 127
7, 592581, Note_on_c, 2, 77, 127
7, 592842, Note_off_c, 2, 77, 127
7, 592842, Note_on_c, 2, 77, 127
7, 593103, Note_off_c, 2, 77, 127
7, 593103, Note_on_c, 2, 77, 127
7, 593364, Note_off_c, 2, 77, 127
7, 593364, Note_on_c, 2, 81, 127
7, 593625, Note_off_c, 2, 81, 127
7, 593625, Note_on_c, 2, 79, 127
7, 593886, Note_off_c, 2, 79, 127
7, 593886, Note_on_c, 2, 84, 127
7, 594147, Note_off_c, 2, 84, 127
7, 594147, Note_on_c, 2, 84, 127
7, 594408, Note_off_c, 2, 84, 127
7, 594408, Note_on_c, 2, 84, 127
7, 594669, Note_off_c, 2, 84, 127
7, 594669, Note_on_c, 2, 79, 127
7, 594930, Note_off_c, 2, 79, 127
7, 594930, Note_on_c, 2, 81, 127
7, 595191, Note_off_c, 2, 81, 127
7, 595200, Note_on_c, 2, 81, 127
7, 595488, Note_off_c, 2, 81, 127
7, 595776, Note_on_c, 2, 84, 127
7, 596064, Note_off_c, 2, 84, 127
7, 596352, Note_on_c, 2, 86, 127
7, 596640, Note_off_c, 2, 86, 127
7, 596928, Note_on_c, 2, 79, 127
7, 597216, Note_off_c, 2, 79, 127
7, 597504, Note_on_c, 2, 82, 127
7, 597792, Note_off_c, 2, 82, 127
7, 598080, Note_on_c, 2, 81, 127
7, 600000, Note_off_c, 2, 81, 127
7, 600160, Note_on_c, 2, 82, 127
7, 600320, Note_off_c, 2, 82, 127
7, 600320, Note_on_c, 2, 82, 127
7, 600480, Note_off_c, 2, 82, 127
7, 600480, Note_on_c, 2, 79, 127
7, 600640, Note_off_c, 2, 79, 127
7, 600640, Note_on_c, 2, 79, 127
7, 600800, Note_off_c, 2, 79, 127
7, 600800, Note_on_c, 2, 82, 127
7, 600960, Note_off_c, 2, 82, 127
7, 600960, Note_on_c, 2, 81, 127
7, 602160, Note_off_c, 2, 81, 127
7, 602160, Note_on_c, 2, 74, 127
7, 602400, Note_off_c, 2, 74, 127
7, 602400, Note_on_c, 2, 76, 127
7, 602640, Note_off_c, 2, 76, 127
7, 602640, Note_on_c, 2, 77, 127
7, 602880, Note_off_c, 2, 77, 127
7, 602880, Note_on_c, 2, 79, 127
7, 603120, Note_off_c, 2, 79, 127
7, 603120, Note_on_c, 2, 81, 127
7, 603360, Note_off_c, 2, 81, 127
7, 603360, Note_on_c, 2, 82, 127
7, 603600, Note_off_c, 2, 82, 127
7, 603600, Note_on_c, 2, 84, 127
7, 603840, Note_off_c, 2, 84, 127
7, 603840, Note_on_c, 2, 86, 127
7, 604032, Note_off_c, 2, 86, 127
7, 604032, Note_on_c, 2, 88, 127
7, 604224, Note_off_c, 2, 88, 127
7, 604224, Note_on_c, 2, 89, 127
7, 604416, Note_off_c, 2, 89, 127
7, 604416, Note_on_c, 2, 91, 127
7, 604608, Note_off_c, 2, 91, 127
7, 604608, Note_on_c, 2, 93, 127
7, 604800, Note_off_c, 2, 93, 127
7, 604800, Note_on_c, 2, 95, 127
7, 608640, Note_off_c, 2, 95, 127
7, 609792, Note_on_c, 2, 93, 127
7, 609984, Note_off_c, 2, 93, 127
7, 609984, Note_on_c, 2, 95, 127
7, 610176, Note_off_c, 2, 95, 127
7, 610176, Note_on_c, 2, 90, 127
7, 610368, Note_off_c, 2, 90, 127
7, 610368, Note_on_c, 2, 92, 127
7, 610560, Note_off_c, 2, 92, 127
7, 610560, Note_on_c, 2, 85, 127
7, 612480, Note_off_c, 2, 85, 127
7, 612480, Note_on_c, 2, 97, 127
7, 612720, Note_off_c, 2, 97, 127
7, 612720, Note_on_c, 2, 95, 127
7, 612960, Note_off_c, 2, 95, 127
7, 612960, Note_on_c, 2, 93, 127
7, 613200, Note_off_c, 2, 93, 127
7, 613200, Note_on_c, 2, 92, 127
7, 613440, Note_off_c, 2, 92, 127
7, 613440, Note_on_c, 2, 90, 127
7, 613680, Note_off_c, 2, 90, 127
7, 613680, Note_on_c, 2, 88, 127
7, 613920, Note_off_c, 2, 88, 127
7, 613920, Note_on_c, 2, 87, 127
7, 614160, Note_off_c, 2, 87, 127
7, 614160, Note_on_c, 2, 85, 127
7, 614400, Note_off_c, 2, 85, 127
7, 614400, Note_on_c, 2, 83, 127
7, 614640, Note_off_c, 2, 83, 127
7, 614640, Note_on_c, 2, 81, 127
7, 614880, Note_off_c, 2, 81, 127
7, 614880, Note_on_c, 2, 80, 127
7, 615120, Note_off_c, 2, 80, 127
7, 615120, Note_on_c, 2, 78, 127
7, 615360, Note_off_c, 2, 78, 127
7, 615360, Note_on_c, 2, 77, 127
7, 617280, Note_off_c, 2, 77, 127
7, 617520, Note_on_c, 2, 79, 127
7, 617760, Note_off_c, 2, 79, 127
7, 617760, Note_on_c, 2, 80, 127
7, 618000, Note_off_c, 2, 80, 127
7, 618000, Note_on_c, 2, 82, 127
7, 618240, Note_off_c, 2, 82, 127
7, 618240, Note_on_c, 2, 79, 127
7, 619200, Note_off_c, 2, 79, 127
7, 619680, Note_on_c, 2, 79, 127
7, 621120, Note_off_c, 2, 79, 127
7, 621360, Note_on_c, 2, 75, 127
7, 621600, Note_off_c, 2, 75, 127
7, 621600, Note_on_c, 2, 78, 127
7, 621840, Note_off_c, 2, 78, 127
7, 621840, Note_on_c, 2, 70, 127
7, 622080, Note_off_c, 2, 70, 127
7, 622080, Note_on_c, 2, 72, 127
7, 622320, Note_off_c, 2, 72, 127
7, 622320, Note_on_c, 2, 76, 127
7, 622560, Note_off_c, 2, 76, 127
7, 622560, Note_on_c, 2, 80, 127
7, 622800, Note_off_c, 2, 80, 127
7, 622800, Note_on_c, 2, 72, 127
7, 623040, Note_off_c, 2, 72, 127
7, 623040, Note_on_c, 2, 77, 127
7, 624960, Note_off_c, 2, 77, 127
7, 625440, Note_on_c, 2, 77, 127
7, 625600, Note_off_c, 2, 77, 127
7, 625600, Note_on_c, 2, 77, 127
7, 625760, Note_off_c, 2, 77, 127
7, 625760, Note_on_c, 2, 77, 127
7, 625920, Note_off_c, 2, 77, 127
7, 625920, Note_on_c, 2, 77, 127
7, 626160, Note_off_c, 2, 77, 127
7, 626160, Note_on_c, 2, 77, 127
7, 626400, Note_off_c, 2, 77, 127
7, 626400, Note_on_c, 2, 77, 127
7, 626640, Note_off_c, 2, 77, 127
7, 626640, Note_on_c, 2, 77, 127
7, 626880, Note_off_c, 2, 77, 127
7, 626880, Note_on_c, 2, 77, 127
7, 627840, Note_off_c, 2, 77, 127
7, 628320, Note_on_c, 2, 79, 127
7, 628560, Note_off_c, 2, 79, 127
7, 628560, Note_on_c, 2, 81, 127
7, 628800, Note_off_c, 2, 81, 127
7, 628800, Note_on_c, 2, 83, 127
7, 629040, Note_off_c, 2, 83, 127
7, 629040, Note_on_c, 2, 84, 127
7, 629280, Note_off_c, 2, 84, 127
7, 629280, Note_on_c, 2, 86, 127
7, 629520, Note_off_c, 2, 86, 127
7, 629520, Note_on_c, 2, 88, 127
7, 629760, Note_off_c, 2, 88, 127
7, 629760, Note_on_c, 2, 88, 127
7, 630000, Note_off_c, 2, 88, 127
7, 630000, Note_on_c, 2, 84, 127
7, 630240, Note_off_c, 2, 84, 127
7, 630240, Note_on_c, 2, 83, 127
7, 630480, Note_off_c, 2, 83, 127
7, 630480, Note_on_c, 2, 79, 127
7, 630720, Note_off_c, 2, 79, 127
7, 630720, Note_on_c, 2, 77, 127
7, 630960, Note_off_c, 2, 77, 127
7, 630960, Note_on_c, 2, 84, 127
7, 631200, Note_off_c, 2, 84, 127
7, 631200, Note_on_c, 2, 83, 127
7, 631440, Note_off_c, 2, 83, 127
7, 631440, Note_on_c, 2, 79, 127
7, 631680, Note_off_c, 2, 79, 127
7, 631680, Note_on_c, 2, 76, 127
7, 631872, Note_off_c, 2, 76, 127
7, 631872, Note_on_c, 2, 71, 127
7, 632064, Note_off_c, 2, 71, 127
7, 632064, Note_on_c, 2, 74, 127
7, 632256, Note_off_c, 2, 74, 127
7, 632256, Note_on_c, 2, 79, 127
7, 632448, Note_off_c, 2, 79, 127
7, 632448, Note_on_c, 2, 76, 127
7, 632640, Note_off_c, 2, 76, 127
7, 632640, Note_on_c, 2, 78, 127
7, 632960, Note_off_c, 2, 78, 127
7, 633280, Note_on_c, 2, 78, 127
7, 633600, Note_off_c, 2, 78, 127
7, 633984, Note_on_c, 2, 78, 127
7, 634176, Note_off_c, 2, 78, 127
7, 634176, Note_on_c, 2, 78, 127
7, 634368, Note_off_c, 2, 78, 127
7, 634368, Note_on_c, 2, 78, 127
7, 634560, Note_off_c, 2, 78, 127
7, 634560, Note_on_c, 2, 78, 127
7, 638400, Note_off_c, 2, 78, 127
7, 638720, Note_on_c, 2, 78, 127
7, 638880, Note_off_c, 2, 78, 127
7, 638880, Note_on_c, 2, 78, 127
7, 639040, Note_off_c, 2, 78, 127
7, 639040, Note_on_c, 2, 78, 127
7, 639200, Note_off_c, 2, 78, 127
7, 639200, Note_on_c, 2, 78, 127
7, 639360, Note_off_c, 2, 78, 127
7, 639360, Note_on_c, 2, 78, 127
7, 639634, Note_off_c, 2, 78, 127
7, 639634, Note_on_c, 2, 80, 127
7, 639908, Note_off_c, 2, 80, 127
7, 639908, Note_on_c, 2, 81, 127
7, 640182, Note_off_c, 2, 81, 127
7, 640182, Note_on_c, 2, 83, 127
7, 640456, Note_off_c, 2, 83, 127
7, 640456, Note_on_c, 2, 84, 127
7, 640730, Note_off_c, 2, 84, 127
7, 640730, Note_on_c, 2, 86, 127
7, 641004, Note_off_c, 2, 86, 127
7, 641004, Note_on_c, 2, 87, 127
7, 641278, Note_off_c, 2, 87, 127
7, 641280, Note_on_c, 2, 90, 127
7, 642240, Note_off_c, 2, 90, 127
7, 642480, Note_on_c, 2, 86, 127
7, 642720, Note_off_c, 2, 86, 127
7, 642720, Note_on_c, 2, 81, 127
7, 642960, Note_off_c, 2, 81, 127
7, 642960, Note_on_c, 2, 79, 127
7, 643200, Note_off_c, 2, 79, 127
7, 643200, Note_on_c, 2, 86, 127
7, 643360, Note_off_c, 2, 86, 127
7, 643360, Note_on_c, 2, 87, 127
7, 643520, Note_off_c, 2, 87, 127
7, 643520, Note_on_c, 2, 82, 127
7, 643680, Note_off_c, 2, 82, 127
7, 643680, Note_on_c, 2, 81, 127
7, 645600, Note_off_c, 2, 81, 127
7, 645760, Note_on_c, 2, 79, 127
7, 645920, Note_off_c, 2, 79, 127
7, 645920, Note_on_c, 2, 82, 127
7, 646080, Note_off_c, 2, 82, 127
7, 646080, Note_on_c, 2, 81, 127
7, 648960, Note_off_c, 2, 81, 127
7, 651840, Note_on_c, 2, 77, 127
7, 651977, Note_off_c, 2, 77, 127
7, 651977, Note_on_c, 2, 79, 127
7, 652114, Note_off_c, 2, 79, 127
7, 652114, Note_on_c, 2, 79, 127
7, 652251, Note_off_c, 2, 79, 127
7, 652251, Note_on_c, 2, 84, 127
7, 652388, Note_off_c, 2, 84, 127
7, 652388, Note_on_c, 2, 82, 127
7, 652525, Note_off_c, 2, 82, 127
7, 652525, Note_on_c, 2, 79, 127
7, 652662, Note_off_c, 2, 79, 127
7, 652662, Note_on_c, 2, 74, 127
7, 652799, Note_off_c, 2, 74, 127
7, 652800, Note_on_c, 2, 76, 127
7, 653760, Note_off_c, 2, 76, 127
7, 654336, Note_on_c, 2, 79, 127
7, 654528, Note_off_c, 2, 79, 127
7, 654528, Note_on_c, 2, 86, 127
7, 654720, Note_off_c, 2, 86, 127
7, 654720, Note_on_c, 2, 83, 127
7, 654912, Note_off_c, 2, 83, 127
7, 654912, Note_on_c, 2, 84, 127
7, 655104, Note_off_c, 2, 84, 127
7, 655104, Note_on_c, 2, 88, 127
7, 655296, Note_off_c, 2, 88, 127
7, 655296, Note_on_c, 2, 89, 127
7, 655488, Note_off_c, 2, 89, 127
7, 655488, Note_on_c, 2, 86, 127
7, 655680, Note_off_c, 2, 86, 127
7, 655680, Note_on_c, 2, 84, 127
7, 655800, Note_off_c, 2, 84, 127
7, 655800, Note_on_c, 2, 89, 127
7, 655920, Note_off_c, 2, 89, 127
7, 655920, Note_on_c, 2, 88, 127
7, 656040, Note_off_c, 2, 88, 127
7, 656040, Note_on_c, 2, 84, 127
7, 656160, Note_off_c, 2, 84, 127
7, 656160, Note_on_c, 2, 88, 127
7, 658560, Note_off_c, 2, 88, 127
7, 661760, Note_on_c, 2, 88, 127
7, 662080, Note_off_c, 2, 88, 127
7, 662080, Note_on_c, 2, 88, 127
7, 662400, Note_off_c, 2, 88, 127
7, 662400, Note_on_c, 2, 88, 127
7, 662720, Note_off_c, 2, 88, 127
7, 663040, Note_on_c, 2, 88, 127
7, 663360, Note_off_c, 2, 88, 127
7, 663680, Note_on_c, 2, 88, 127
7, 664000, Note_off_c, 2, 88, 127
7, 664320, Note_on_c, 2, 88, 127
7, 664457, Note_off_c, 2, 88, 127
7, 664457, Note_on_c, 2, 86, 127
7, 664594, Note_off_c, 2, 86, 127
7, 664594, Note_on_c, 2, 83, 127
7, 664731, Note_off_c, 2, 83, 127
7, 664731, Note_on_c, 2, 88, 127
7, 664868, Note_off_c, 2, 88, 127
7, 664868, Note_on_c, 2, 86, 127
7, 665005, Note_off_c, 2, 86, 127
7, 665005, Note_on_c, 2, 88, 127
7, 665142, Note_off_c, 2, 88, 127
7, 665142, Note_on_c, 2, 89, 127
7, 665279, Note_off_c, 2, 89, 127
7, 665279, Note_on_c, 2, 80, 127
7, 666239, Note_off_c, 2, 80, 127
7, 666959, Note_on_c, 2, 80, 127
7, 667079, Note_off_c, 2, 80, 127
7, 667079, Note_on_c, 2, 81, 127
7, 667199, Note_off_c, 2, 81, 127
7, 667200, Note_on_c, 2, 86, 127
7, 667520, Note_off_c, 2, 86, 127
7, 667520, Note_on_c, 2, 83, 127
7, 667840, Note_off_c, 2, 83, 127
7, 667840, Note_on_c, 2, 84, 127
7, 668160, Note_off_c, 2, 84, 127
7, 668160, Note_on_c, 2, 88, 127
7, 668480, Note_off_c, 2, 88, 127
7, 668480, Note_on_c, 2, 89, 127
7, 668800, Note_off_c, 2, 89, 127
7, 668800, Note_on_c, 2, 86, 127
7, 669120, Note_off_c, 2, 86, 127
7, 669120, Note_on_c, 2, 88, 127
7, 672000, Note_off_c, 2, 88, 127
7, 672480, Note_on_c, 2, 88, 127
7, 672640, Note_off_c, 2, 88, 127
7, 672640, Note_on_c, 2, 89, 127
7, 672800, Note_off_c, 2, 89, 127
7, 672800, Note_on_c, 2, 88, 127
7, 672960, Note_off_c, 2, 88, 127
7, 672960, Note_on_c, 2, 86, 127
7, 673120, Note_off_c, 2, 86, 127
7, 673120, Note_on_c, 2, 88, 127
7, 673280, Note_off_c, 2, 88, 127
7, 673280, Note_on_c, 2, 89, 127
7, 673440, Note_off_c, 2, 89, 127
7, 673440, Note_on_c, 2, 91, 127
7, 673600, Note_off_c, 2, 91, 127
7, 673600, Note_on_c, 2, 93, 127
7, 673760, Note_off_c, 2, 93, 127
7, 673760, Note_on_c, 2, 88, 127
7, 673920, Note_off_c, 2, 88, 127
7, 673920, Note_on_c, 2, 88, 127
7, 674080, Note_off_c, 2, 88, 127
7, 674080, Note_on_c, 2, 89, 127
7, 674240, Note_off_c, 2, 89, 127
7, 674240, Note_on_c, 2, 91, 127
7, 674400, Note_off_c, 2, 91, 127
7, 674400, Note_on_c, 2, 86, 127
7, 674560, Note_off_c, 2, 86, 127
7, 674560, Note_on_c, 2, 88, 127
7, 674720, Note_off_c, 2, 88, 127
7, 674720, Note_on_c, 2, 89, 127
7, 674880, Note_off_c, 2, 89, 127
7, 674880, Note_on_c, 2, 91, 127
7, 675040, Note_off_c, 2, 91, 127
7, 675040, Note_on_c, 2, 93, 127
7, 675200, Note_off_c, 2, 93, 127
7, 675200, Note_on_c, 2, 88, 127
7, 675360, Note_off_c, 2, 88, 127
7, 675360, Note_on_c, 2, 88, 127
7, 675520, Note_off_c, 2, 88, 127
7, 675520, Note_on_c, 2, 89, 127
7, 675680, Note_off_c, 2, 89, 127
7, 675680, Note_on_c, 2, 91, 127
7, 675840, Note_off_c, 2, 91, 127
7, 675840, Note_on_c, 2, 94, 127
7, 676320, Note_off_c, 2, 94, 127
7, 677280, Note_on_c, 2, 93, 127
7, 677760, Note_off_c, 2, 93, 127
7, 678720, Note_on_c, 2, 86, 127
7, 679200, Note_off_c, 2, 86, 127
7, 679680, Note_on_c, 2, 81, 127
7, 680160, Note_off_c, 2, 81, 127
7, 680640, Note_on_c, 2, 86, 127
7, 681120, Note_off_c, 2, 86, 127
7, 681600, Note_on_c, 2, 91, 127
7, 682080, Note_off_c, 2, 91, 127
7, 682560, Note_on_c, 2, 88, 127
7, 683040, Note_off_c, 2, 88, 127
7, 683520, Note_on_c, 2, 84, 127
7, 684000, Note_off_c, 2, 84, 127
7, 684480, Note_on_c, 2, 81, 127
7, 685920, Note_off_c, 2, 81, 127
7, 685920, Note_on_c, 2, 88, 127
7, 687360, Note_off_c, 2, 88, 127
7, 687360, Note_on_c, 2, 87, 127
7, 687840, Note_off_c, 2, 87, 127
7, 687840, Note_on_c, 2, 80, 127
7, 688320, Note_off_c, 2, 80, 127
7, 688320, Note_on_c, 2, 73, 127
7, 688800, Note_off_c, 2, 73, 127
7, 688800, Note_on_c, 2, 72, 127
7, 689280, Note_off_c, 2, 72, 127
7, 689280, Note_on_c, 2, 73, 127
7, 689760, Note_off_c, 2, 73, 127
7, 689760, Note_on_c, 2, 80, 127
7, 690240, Note_off_c, 2, 80, 127
7, 690240, Note_on_c, 2, 76, 127
7, 690720, Note_off_c, 2, 76, 127
7, 690720, Note_on_c, 2, 78, 127
7, 691200, Note_off_c, 2, 78, 127
7, 691200, Note_on_c, 2, 79, 127
7, 691680, Note_off_c, 2, 79, 127
7, 691680, Note_on_c, 2, 84, 127
7, 692160, Note_off_c, 2, 84, 127
7, 692160, Note_on_c, 2, 84, 127
7, 692400, Note_off_c, 2, 84, 127
7, 692640, Note_on_c, 2, 84, 127
7, 692880, Note_off_c, 2, 84, 127
7, 693120, Note_on_c, 2, 84, 127
7, 696960, Note_off_c, 2, 84, 127
7, 696960, End_track
8, 0, Start_track
8, 0, Pitch_bend_c, 3, 8192
8, 0, Control_c, 3, 7, 71
8, 0, Control_c, 3, 10, 63
8, 0, Control_c, 3, 93, 0
8, 0, Control_c, 3, 91, 0
8, 0, Control_c, 3, 95, 0
8, 0, Control_c, 3, 92, 0
8, 0, Control_c, 3, 11, 127
8, 0, Program_c, 3, 11
8, 0, Control_c, 4, 7, 71
8, 0, Control_c, 4, 10, 63
8, 0, Control_c, 4, 93, 0
8, 0, Control_c, 4, 91, 0
8, 0, Control_c, 4, 95, 0
8, 0, Control_c, 4, 92, 0
8, 0, Control_c, 4, 11, 127
8, 0, Program_c, 4, 11
8, 480, Note_on_c, 3, 61, 127
8, 960, Note_off_c, 3, 61, 127
8, 960, Note_on_c, 3, 64, 127
8, 1440, Note_off_c, 3, 64, 127
8, 1440, Note_on_c, 3, 67, 127
8, 1920, Note_off_c, 3, 67, 127
8, 1920, Note_on_c, 3, 75, 127
8, 2400, Note_off_c, 3, 75, 127
8, 2400, Note_on_c, 3, 70, 127
8, 2880, Note_off_c, 3, 70, 127
8, 2880, Note_on_c, 3, 72, 127
8, 5760, Note_off_c, 3, 72, 127
8, 6240, Note_on_c, 3, 61, 127
8, 6720, Note_off_c, 3, 61, 127
8, 6720, Note_on_c, 3, 64, 127
8, 7200, Note_off_c, 3, 64, 127
8, 7200, Note_on_c, 3, 67, 127
8, 7680, Note_off_c, 3, 67, 127
8, 7680, Note_on_c, 3, 75, 127
8, 8160, Note_off_c, 3, 75, 127
8, 8160, Note_on_c, 3, 70, 127
8, 8640, Note_off_c, 3, 70, 127
8, 8640, Note_on_c, 3, 72, 127
8, 11520, Note_off_c, 3, 72, 127
8, 12000, Note_on_c, 3, 60, 127
8, 12480, Note_off_c, 3, 60, 127
8, 12480, Note_on_c, 3, 63, 127
8, 12960, Note_off_c, 3, 63, 127
8, 12960, Note_on_c, 3, 70, 127
8, 13440, Note_off_c, 3, 70, 127
8, 13440, Note_on_c, 3, 77, 127
8, 13920, Note_off_c, 3, 77, 127
8, 13920, Note_on_c, 3, 66, 127
8, 14400, Note_off_c, 3, 66, 127
8, 14400, Note_on_c, 3, 74, 127
8, 17280, Note_off_c, 3, 74, 127
8, 17760, Note_on_c, 3, 60, 127
8, 18240, Note_off_c, 3, 60, 127
8, 18240, Note_on_c, 3, 63, 127
8, 18720, Note_off_c, 3, 63, 127
8, 18720, Note_on_c, 3, 70, 127
8, 19200, Note_off_c, 3, 70, 127
8, 19200, Note_on_c, 3, 77, 127
8, 19680, Note_off_c, 3, 77, 127
8, 19680, Note_on_c, 3, 66, 127
8, 20160, Note_off_c, 3, 66, 127
8, 20160, Note_on_c, 3, 74, 127
8, 23040, Note_off_c, 3, 74, 127
8, 23520, Note_on_c, 3, 59, 127
8, 24000, Note_off_c, 3, 59, 127
8, 24000, Note_on_c, 3, 62, 127
8, 24480, Note_off_c, 3, 62, 127
8, 24480, Note_on_c, 3, 78, 127
8, 24960, Note_off_c, 3, 78, 127
8, 24960, Note_on_c, 3, 67, 127
8, 25440, Note_off_c, 3, 67, 127
8, 25440, Note_on_c, 3, 74, 127
8, 25920, Note_off_c, 3, 74, 127
8, 25920, Note_on_c, 3, 73, 127
8, 28800, Note_off_c, 3, 73, 127
8, 29280, Note_on_c, 3, 59, 127
8, 29760, Note_off_c, 3, 59, 127
8, 29760, Note_on_c, 3, 62, 127
8, 30240, Note_off_c, 3, 62, 127
8, 30240, Note_on_c, 3, 78, 127
8, 30720, Note_off_c, 3, 78, 127
8, 30720, Note_on_c, 3, 67, 127
8, 31200, Note_off_c, 3, 67, 127
8, 31200, Note_on_c, 3, 74, 127
8, 31680, Note_off_c, 3, 74, 127
8, 31680, Note_on_c, 3, 73, 127
8, 34560, Note_off_c, 3, 73, 127
8, 35040, Note_on_c, 3, 58, 127
8, 35520, Note_off_c, 3, 58, 127
8, 35520, Note_on_c, 3, 61, 127
8, 36000, Note_off_c, 3, 61, 127
8, 36000, Note_on_c, 3, 69, 127
8, 36480, Note_off_c, 3, 69, 127
8, 36480, Note_on_c, 3, 80, 127
8, 36960, Note_off_c, 3, 80, 127
8, 36960, Note_on_c, 3, 77, 127
8, 37440, Note_off_c, 3, 77, 127
8, 37440, Note_on_c, 3, 75, 127
8, 40320, Note_off_c, 3, 75, 127
8, 40800, Note_on_c, 3, 58, 127
8, 41280, Note_off_c, 3, 58, 127
8, 41280, Note_on_c, 3, 61, 127
8, 41760, Note_off_c, 3, 61, 127
8, 41760, Note_on_c, 3, 69, 127
8, 42240, Note_off_c, 3, 69, 127
8, 42240, Note_on_c, 3, 80, 127
8, 42720, Note_off_c, 3, 80, 127
8, 42720, Note_on_c, 3, 77, 127
8, 43200, Note_off_c, 3, 77, 127
8, 43200, Note_on_c, 3, 75, 127
8, 46080, Note_off_c, 3, 75, 127
8, 47040, Note_on_c, 3, 73, 127
8, 47520, Note_off_c, 3, 73, 127
8, 48000, Note_on_c, 3, 73, 127
8, 48160, Note_off_c, 3, 73, 127
8, 48320, Note_on_c, 3, 73, 127
8, 48480, Note_off_c, 3, 73, 127
8, 48640, Note_on_c, 3, 71, 127
8, 48800, Note_off_c, 3, 71, 127
8, 48960, Note_on_c, 3, 73, 127
8, 50400, Note_off_c, 3, 73, 127
8, 50400, Note_on_c, 3, 69, 127
8, 51360, Note_off_c, 3, 69, 127
8, 51360, Note_on_c, 3, 67, 127
8, 51840, Note_off_c, 3, 67, 127
8, 54720, Note_on_c, 3, 73, 127
8, 54880, Note_off_c, 3, 73, 127
8, 55040, Note_on_c, 3, 71, 127
8, 55200, Note_off_c, 3, 71, 127
8, 55360, Note_on_c, 3, 73, 127
8, 55480, Note_off_c, 3, 73, 127
8, 55480, Note_on_c, 3, 73, 127
8, 55600, Note_off_c, 3, 73, 127
8, 55600, Note_on_c, 3, 73, 127
8, 55720, Note_off_c, 3, 73, 127
8, 55720, Note_on_c, 3, 73, 127
8, 55840, Note_off_c, 3, 73, 127
8, 55840, Note_on_c, 3, 73, 127
8, 55960, Note_off_c, 3, 73, 127
8, 55960, Note_on_c, 3, 73, 127
8, 56080, Note_off_c, 3, 73, 127
8, 56080, Note_on_c, 3, 73, 127
8, 56200, Note_off_c, 3, 73, 127
8, 56200, Note_on_c, 3, 73, 127
8, 56320, Note_off_c, 3, 73, 127
8, 56320, Note_on_c, 3, 73, 127
8, 56440, Note_off_c, 3, 73, 127
8, 56440, Note_on_c, 3, 73, 127
8, 56560, Note_off_c, 3, 73, 127
8, 56560, Note_on_c, 3, 73, 127
8, 56680, Note_off_c, 3, 73, 127
8, 56680, Note_on_c, 3, 73, 127
8, 56800, Note_off_c, 3, 73, 127
8, 56800, Note_on_c, 3, 73, 127
8, 56920, Note_off_c, 3, 73, 127
8, 56920, Note_on_c, 3, 73, 127
8, 57040, Note_off_c, 3, 73, 127
8, 57040, Note_on_c, 3, 73, 127
8, 57160, Note_off_c, 3, 73, 127
8, 57160, Note_on_c, 3, 73, 127
8, 57280, Note_off_c, 3, 73, 127
8, 57280, Note_on_c, 3, 73, 127
8, 57400, Note_off_c, 3, 73, 127
8, 57400, Note_on_c, 3, 73, 127
8, 57520, Note_off_c, 3, 73, 127
8, 57520, Note_on_c, 3, 73, 127
8, 57599, Note_off_c, 3, 73, 127
8, 58560, Note_on_c, 3, 67, 127
8, 59040, Note_off_c, 3, 67, 127
8, 59520, Note_on_c, 3, 67, 127
8, 60000, Note_off_c, 3, 67, 127
8, 60480, Note_on_c, 3, 67, 127
8, 60600, Note_off_c, 3, 67, 127
8, 60600, Note_on_c, 3, 67, 127
8, 60720, Note_off_c, 3, 67, 127
8, 60720, Note_on_c, 3, 67, 127
8, 60840, Note_off_c, 3, 67, 127
8, 60840, Note_on_c, 3, 67, 127
8, 60960, Note_off_c, 3, 67, 127
8, 60960, Note_on_c, 3, 67, 127
8, 61080, Note_off_c, 3, 67, 127
8, 61080, Note_on_c, 3, 67, 127
8, 61200, Note_off_c, 3, 67, 127
8, 61200, Note_on_c, 3, 67, 127
8, 61320, Note_off_c, 3, 67, 127
8, 61320, Note_on_c, 3, 67, 127
8, 61440, Note_off_c, 3, 67, 127
8, 61440, Note_on_c, 3, 67, 127
8, 61560, Note_off_c, 3, 67, 127
8, 61560, Note_on_c, 3, 67, 127
8, 61680, Note_off_c, 3, 67, 127
8, 61680, Note_on_c, 3, 67, 127
8, 61800, Note_off_c, 3, 67, 127
8, 61800, Note_on_c, 3, 67, 127
8, 61920, Note_off_c, 3, 67, 127
8, 61920, Note_on_c, 3, 67, 127
8, 62040, Note_off_c, 3, 67, 127
8, 62040, Note_on_c, 3, 67, 127
8, 62160, Note_off_c, 3, 67, 127
8, 62160, Note_on_c, 3, 67, 127
8, 62280, Note_off_c, 3, 67, 127
8, 62280, Note_on_c, 3, 67, 127
8, 62400, Note_off_c, 3, 67, 127
8, 62400, Note_on_c, 3, 67, 127
8, 62520, Note_off_c, 3, 67, 127
8, 62520, Note_on_c, 3, 67, 127
8, 62640, Note_off_c, 3, 67, 127
8, 62640, Note_on_c, 3, 67, 127
8, 62760, Note_off_c, 3, 67, 127
8, 62760, Note_on_c, 3, 67, 127
8, 62880, Note_off_c, 3, 67, 127
8, 62880, Note_on_c, 3, 67, 127
8, 63000, Note_off_c, 3, 67, 127
8, 63000, Note_on_c, 3, 67, 127
8, 63120, Note_off_c, 3, 67, 127
8, 63120, Note_on_c, 3, 67, 127
8, 63240, Note_off_c, 3, 67, 127
8, 63240, Note_on_c, 3, 67, 127
8, 63359, Note_off_c, 3, 67, 127
8, 63360, Note_on_c, 3, 67, 127
8, 63840, Note_off_c, 3, 67, 127
8, 64320, Note_on_c, 3, 67, 127
8, 65760, Note_off_c, 3, 67, 127
8, 65760, Note_on_c, 3, 67, 127
8, 66000, Note_off_c, 3, 67, 127
8, 66000, Note_on_c, 3, 67, 127
8, 66240, Note_off_c, 3, 67, 127
8, 66240, Note_on_c, 3, 67, 127
8, 66400, Note_off_c, 3, 67, 127
8, 66560, Note_on_c, 3, 67, 127
8, 66720, Note_off_c, 3, 67, 127
8, 66880, Note_on_c, 3, 62, 127
8, 67040, Note_off_c, 3, 62, 127
8, 67200, Note_on_c, 3, 67, 127
8, 69120, Note_off_c, 3, 67, 127
8, 70080, Note_on_c, 3, 70, 127
8, 70560, Note_off_c, 3, 70, 127
8, 71040, Note_on_c, 3, 70, 127
8, 71520, Note_off_c, 3, 70, 127
8, 72000, Note_on_c, 3, 70, 127
8, 72240, Note_off_c, 3, 70, 127
8, 72480, Note_on_c, 3, 70, 127
8, 72600, Note_off_c, 3, 70, 127
8, 72600, Note_on_c, 3, 70, 127
8, 72720, Note_off_c, 3, 70, 127
8, 72720, Note_on_c, 3, 70, 127
8, 72840, Note_off_c, 3, 70, 127
8, 72840, Note_on_c, 3, 70, 127
8, 72959, Note_off_c, 3, 70, 127
8, 72960, Note_on_c, 3, 66, 127
8, 73080, Note_off_c, 3, 66, 127
8, 73080, Note_on_c, 3, 66, 127
8, 73200, Note_off_c, 3, 66, 127
8, 73200, Note_on_c, 3, 66, 127
8, 73320, Note_off_c, 3, 66, 127
8, 73320, Note_on_c, 3, 66, 127
8, 73439, Note_off_c, 3, 66, 127
8, 73440, Note_on_c, 3, 68, 127
8, 73560, Note_off_c, 3, 68, 127
8, 73560, Note_on_c, 3, 68, 127
8, 73680, Note_off_c, 3, 68, 127
8, 73680, Note_on_c, 3, 68, 127
8, 73800, Note_off_c, 3, 68, 127
8, 73800, Note_on_c, 3, 68, 127
8, 73919, Note_off_c, 3, 68, 127
8, 73920, Note_on_c, 3, 63, 127
8, 74040, Note_off_c, 3, 63, 127
8, 74040, Note_on_c, 3, 63, 127
8, 74160, Note_off_c, 3, 63, 127
8, 74160, Note_on_c, 3, 63, 127
8, 74280, Note_off_c, 3, 63, 127
8, 74280, Note_on_c, 3, 63, 127
8, 74399, Note_off_c, 3, 63, 127
8, 74400, Note_on_c, 3, 56, 127
8, 74520, Note_off_c, 3, 56, 127
8, 74520, Note_on_c, 3, 56, 127
8, 74640, Note_off_c, 3, 56, 127
8, 74640, Note_on_c, 3, 56, 127
8, 74760, Note_off_c, 3, 56, 127
8, 74760, Note_on_c, 3, 56, 127
8, 74879, Note_off_c, 3, 56, 127
8, 74880, Note_on_c, 3, 61, 127
8, 75000, Note_off_c, 3, 61, 127
8, 75000, Note_on_c, 3, 61, 127
8, 75120, Note_off_c, 3, 61, 127
8, 75120, Note_on_c, 3, 61, 127
8, 75240, Note_off_c, 3, 61, 127
8, 75240, Note_on_c, 3, 61, 127
8, 75360, Note_off_c, 3, 61, 127
8, 75360, Note_on_c, 3, 61, 127
8, 75480, Note_off_c, 3, 61, 127
8, 75480, Note_on_c, 3, 61, 127
8, 75600, Note_off_c, 3, 61, 127
8, 75600, Note_on_c, 3, 61, 127
8, 75720, Note_off_c, 3, 61, 127
8, 75720, Note_on_c, 3, 61, 127
8, 75839, Note_off_c, 3, 61, 127
8, 75840, Note_on_c, 3, 71, 127
8, 75960, Note_off_c, 3, 71, 127
8, 75960, Note_on_c, 3, 71, 127
8, 76080, Note_off_c, 3, 71, 127
8, 76080, Note_on_c, 3, 71, 127
8, 76200, Note_off_c, 3, 71, 127
8, 76200, Note_on_c, 3, 71, 127
8, 76320, Note_off_c, 3, 71, 127
8, 76320, Note_on_c, 3, 71, 127
8, 76440, Note_off_c, 3, 71, 127
8, 76440, Note_on_c, 3, 71, 127
8, 76560, Note_off_c, 3, 71, 127
8, 76560, Note_on_c, 3, 71, 127
8, 76680, Note_off_c, 3, 71, 127
8, 76680, Note_on_c, 3, 71, 127
8, 76800, Note_off_c, 3, 71, 127
8, 76800, Note_on_c, 3, 71, 127
8, 76920, Note_off_c, 3, 71, 127
8, 76920, Note_on_c, 3, 71, 127
8, 77040, Note_off_c, 3, 71, 127
8, 77040, Note_on_c, 3, 71, 127
8, 77160, Note_off_c, 3, 71, 127
8, 77160, Note_on_c, 3, 71, 127
8, 77279, Note_off_c, 3, 71, 127
8, 77280, Note_on_c, 3, 66, 127
8, 77400, Note_off_c, 3, 66, 127
8, 77400, Note_on_c, 3, 66, 127
8, 77520, Note_off_c, 3, 66, 127
8, 77520, Note_on_c, 3, 66, 127
8, 77640, Note_off_c, 3, 66, 127
8, 77640, Note_on_c, 3, 66, 127
8, 77759, Note_off_c, 3, 66, 127
8, 77760, Note_on_c, 3, 68, 127
8, 77880, Note_off_c, 3, 68, 127
8, 77880, Note_on_c, 3, 68, 127
8, 78000, Note_off_c, 3, 68, 127
8, 78000, Note_on_c, 3, 68, 127
8, 78120, Note_off_c, 3, 68, 127
8, 78120, Note_on_c, 3, 68, 127
8, 78240, Note_off_c, 3, 68, 127
8, 78240, Note_on_c, 3, 68, 127
8, 78360, Note_off_c, 3, 68, 127
8, 78360, Note_on_c, 3, 68, 127
8, 78480, Note_off_c, 3, 68, 127
8, 78480, Note_on_c, 3, 68, 127
8, 78600, Note_off_c, 3, 68, 127
8, 78600, Note_on_c, 3, 68, 127
8, 78720, Note_off_c, 3, 68, 127
8, 78720, Note_on_c, 3, 68, 127
8, 78840, Note_off_c, 3, 68, 127
8, 78840, Note_on_c, 3, 68, 127
8, 78960, Note_off_c, 3, 68, 127
8, 78960, Note_on_c, 3, 68, 127
8, 79080, Note_off_c, 3, 68, 127
8, 79080, Note_on_c, 3, 68, 127
8, 79200, Note_off_c, 3, 68, 127
8, 79200, Note_on_c, 3, 68, 127
8, 79320, Note_off_c, 3, 68, 127
8, 79320, Note_on_c, 3, 68, 127
8, 79440, Note_off_c, 3, 68, 127
8, 79440, Note_on_c, 3, 68, 127
8, 79560, Note_off_c, 3, 68, 127
8, 79560, Note_on_c, 3, 68, 127
8, 79680, Note_off_c, 3, 68, 127
8, 79680, Note_on_c, 3, 68, 127
8, 79800, Note_off_c, 3, 68, 127
8, 79800, Note_on_c, 3, 68, 127
8, 79920, Note_off_c, 3, 68, 127
8, 79920, Note_on_c, 3, 68, 127
8, 80040, Note_off_c, 3, 68, 127
8, 80040, Note_on_c, 3, 68, 127
8, 80160, Note_off_c, 3, 68, 127
8, 80160, Note_on_c, 3, 68, 127
8, 80280, Note_off_c, 3, 68, 127
8, 80280, Note_on_c, 3, 68, 127
8, 80400, Note_off_c, 3, 68, 127
8, 80400, Note_on_c, 3, 68, 127
8, 80520, Note_off_c, 3, 68, 127
8, 80520, Note_on_c, 3, 68, 127
8, 80639, Note_off_c, 3, 68, 127
8, 81600, Note_on_c, 3, 67, 127
8, 82080, Note_off_c, 3, 67, 127
8, 82560, Note_on_c, 3, 67, 127
8, 83040, Note_off_c, 3, 67, 127
8, 83520, Note_on_c, 3, 67, 127
8, 83640, Note_off_c, 3, 67, 127
8, 83640, Note_on_c, 3, 67, 127
8, 83760, Note_off_c, 3, 67, 127
8, 83760, Note_on_c, 3, 67, 127
8, 83880, Note_off_c, 3, 67, 127
8, 83880, Note_on_c, 3, 67, 127
8, 84000, Note_off_c, 3, 67, 127
8, 84000, Note_on_c, 3, 67, 127
8, 84120, Note_off_c, 3, 67, 127
8, 84120, Note_on_c, 3, 67, 127
8, 84240, Note_off_c, 3, 67, 127
8, 84240, Note_on_c, 3, 67, 127
8, 84360, Note_off_c, 3, 67, 127
8, 84360, Note_on_c, 3, 67, 127
8, 84480, Note_off_c, 3, 67, 127
8, 84480, Note_on_c, 3, 67, 127
8, 84600, Note_off_c, 3, 67, 127
8, 84600, Note_on_c, 3, 67, 127
8, 84720, Note_off_c, 3, 67, 127
8, 84720, Note_on_c, 3, 67, 127
8, 84840, Note_off_c, 3, 67, 127
8, 84840, Note_on_c, 3, 67, 127
8, 84960, Note_off_c, 3, 67, 127
8, 84960, Note_on_c, 3, 67, 127
8, 85080, Note_off_c, 3, 67, 127
8, 85080, Note_on_c, 3, 67, 127
8, 85200, Note_off_c, 3, 67, 127
8, 85200, Note_on_c, 3, 67, 127
8, 85320, Note_off_c, 3, 67, 127
8, 85320, Note_on_c, 3, 67, 127
8, 85440, Note_off_c, 3, 67, 127
8, 85440, Note_on_c, 3, 67, 127
8, 85560, Note_off_c, 3, 67, 127
8, 85560, Note_on_c, 3, 67, 127
8, 85680, Note_off_c, 3, 67, 127
8, 85680, Note_on_c, 3, 67, 127
8, 85800, Note_off_c, 3, 67, 127
8, 85800, Note_on_c, 3, 67, 127
8, 85920, Note_off_c, 3, 67, 127
8, 85920, Note_on_c, 3, 67, 127
8, 86040, Note_off_c, 3, 67, 127
8, 86040, Note_on_c, 3, 67, 127
8, 86160, Note_off_c, 3, 67, 127
8, 86160, Note_on_c, 3, 67, 127
8, 86280, Note_off_c, 3, 67, 127
8, 86280, Note_on_c, 3, 67, 127
8, 86399, Note_off_c, 3, 67, 127
8, 86400, Note_on_c, 3, 67, 127
8, 86880, Note_off_c, 3, 67, 127
8, 87360, Note_on_c, 3, 67, 127
8, 87480, Note_off_c, 3, 67, 127
8, 87480, Note_on_c, 3, 67, 127
8, 87600, Note_off_c, 3, 67, 127
8, 87600, Note_on_c, 3, 67, 127
8, 87720, Note_off_c, 3, 67, 127
8, 87720, Note_on_c, 3, 67, 127
8, 87840, Note_off_c, 3, 67, 127
8, 87840, Note_on_c, 3, 67, 127
8, 87960, Note_off_c, 3, 67, 127
8, 87960, Note_on_c, 3, 67, 127
8, 88080, Note_off_c, 3, 67, 127
8, 88080, Note_on_c, 3, 67, 127
8, 88200, Note_off_c, 3, 67, 127
8, 88200, Note_on_c, 3, 67, 127
8, 88320, Note_off_c, 3, 67, 127
8, 88320, Note_on_c, 3, 67, 127
8, 88440, Note_off_c, 3, 67, 127
8, 88440, Note_on_c, 3, 67, 127
8, 88560, Note_off_c, 3, 67, 127
8, 88560, Note_on_c, 3, 67, 127
8, 88680, Note_off_c, 3, 67, 127
8, 88680, Note_on_c, 3, 67, 127
8, 88800, Note_off_c, 3, 67, 127
8, 88800, Note_on_c, 3, 67, 127
8, 88920, Note_off_c, 3, 67, 127
8, 88920, Note_on_c, 3, 67, 127
8, 89040, Note_off_c, 3, 67, 127
8, 89040, Note_on_c, 3, 67, 127
8, 89160, Note_off_c, 3, 67, 127
8, 89160, Note_on_c, 3, 67, 127
8, 89279, Note_off_c, 3, 67, 127
8, 89280, Note_on_c, 3, 67, 127
8, 89440, Note_off_c, 3, 67, 127
8, 89600, Note_on_c, 3, 67, 127
8, 89760, Note_off_c, 3, 67, 127
8, 89920, Note_on_c, 3, 62, 127
8, 90080, Note_off_c, 3, 62, 127
8, 90240, Note_on_c, 3, 67, 127
8, 90360, Note_off_c, 3, 67, 127
8, 90360, Note_on_c, 3, 67, 127
8, 90480, Note_off_c, 3, 67, 127
8, 90480, Note_on_c, 3, 67, 127
8, 90600, Note_off_c, 3, 67, 127
8, 90600, Note_on_c, 3, 67, 127
8, 90720, Note_off_c, 3, 67, 127
8, 90720, Note_on_c, 3, 67, 127
8, 90840, Note_off_c, 3, 67, 127
8, 90840, Note_on_c, 3, 67, 127
8, 90960, Note_off_c, 3, 67, 127
8, 90960, Note_on_c, 3, 67, 127
8, 91080, Note_off_c, 3, 67, 127
8, 91080, Note_on_c, 3, 67, 127
8, 91200, Note_off_c, 3, 67, 127
8, 91200, Note_on_c, 3, 67, 127
8, 91320, Note_off_c, 3, 67, 127
8, 91320, Note_on_c, 3, 67, 127
8, 91440, Note_off_c, 3, 67, 127
8, 91440, Note_on_c, 3, 67, 127
8, 91560, Note_off_c, 3, 67, 127
8, 91560, Note_on_c, 3, 67, 127
8, 91680, Note_off_c, 3, 67, 127
8, 91680, Note_on_c, 3, 67, 127
8, 91800, Note_off_c, 3, 67, 127
8, 91800, Note_on_c, 3, 67, 127
8, 91920, Note_off_c, 3, 67, 127
8, 91920, Note_on_c, 3, 67, 127
8, 92040, Note_off_c, 3, 67, 127
8, 92040, Note_on_c, 3, 67, 127
8, 92159, Note_off_c, 3, 67, 127
8, 92160, Note_on_c, 3, 66, 127
8, 92160, Note_on_c, 3, 61, 127
8, 92280, Note_off_c, 3, 66, 127
8, 92280, Note_on_c, 3, 66, 127
8, 92280, Note_off_c, 3, 61, 127
8, 92280, Note_on_c, 3, 61, 127
8, 92400, Note_off_c, 3, 66, 127
8, 92400, Note_on_c, 3, 66, 127
8, 92400, Note_off_c, 3, 61, 127
8, 92400, Note_on_c, 3, 61, 127
8, 92520, Note_off_c, 3, 66, 127
8, 92520, Note_on_c, 3, 66, 127
8, 92520, Note_off_c, 3, 61, 127
8, 92520, Note_on_c, 3, 61, 127
8, 92640, Note_off_c, 3, 66, 127
8, 92640, Note_on_c, 3, 66, 127
8, 92640, Note_off_c, 3, 61, 127
8, 92640, Note_on_c, 3, 61, 127
8, 92760, Note_off_c, 3, 66, 127
8, 92760, Note_on_c, 3, 66, 127
8, 92760, Note_off_c, 3, 61, 127
8, 92760, Note_on_c, 3, 61, 127
8, 92880, Note_off_c, 3, 66, 127
8, 92880, Note_on_c, 3, 66, 127
8, 92880, Note_off_c, 3, 61, 127
8, 92880, Note_on_c, 3, 61, 127
8, 93000, Note_off_c, 3, 66, 127
8, 93000, Note_on_c, 3, 66, 127
8, 93000, Note_off_c, 3, 61, 127
8, 93000, Note_on_c, 3, 61, 127
8, 93120, Note_off_c, 3, 66, 127
8, 93120, Note_on_c, 3, 66, 127
8, 93120, Note_off_c, 3, 61, 127
8, 93120, Note_on_c, 3, 61, 127
8, 93240, Note_off_c, 3, 66, 127
8, 93240, Note_on_c, 3, 66, 127
8, 93240, Note_off_c, 3, 61, 127
8, 93240, Note_on_c, 3, 61, 127
8, 93360, Note_off_c, 3, 66, 127
8, 93360, Note_on_c, 3, 66, 127
8, 93360, Note_off_c, 3, 61, 127
8, 93360, Note_on_c, 3, 61, 127
8, 93480, Note_off_c, 3, 66, 127
8, 93480, Note_on_c, 3, 66, 127
8, 93480, Note_off_c, 3, 61, 127
8, 93480, Note_on_c, 3, 61, 127
8, 93600, Note_off_c, 3, 66, 127
8, 93600, Note_on_c, 3, 66, 127
8, 93600, Note_off_c, 3, 61, 127
8, 93600, Note_on_c, 3, 61, 127
8, 93720, Note_off_c, 3, 66, 127
8, 93720, Note_on_c, 3, 66, 127
8, 93720, Note_off_c, 3, 61, 127
8, 93720, Note_on_c, 3, 61, 127
8, 93840, Note_off_c, 3, 66, 127
8, 93840, Note_on_c, 3, 66, 127
8, 93840, Note_off_c, 3, 61, 127
8, 93840, Note_on_c, 3, 61, 127
8, 93960, Note_off_c, 3, 66, 127
8, 93960, Note_on_c, 3, 66, 127
8, 93960, Note_off_c, 3, 61, 127
8, 93960, Note_on_c, 3, 61, 127
8, 94080, Note_off_c, 3, 66, 127
8, 94080, Note_on_c, 3, 66, 127
8, 94080, Note_off_c, 3, 61, 127
8, 94080, Note_on_c, 3, 61, 127
8, 94200, Note_off_c, 3, 66, 127
8, 94200, Note_on_c, 3, 66, 127
8, 94200, Note_off_c, 3, 61, 127
8, 94200, Note_on_c, 3, 61, 127
8, 94320, Note_off_c, 3, 66, 127
8, 94320, Note_on_c, 3, 66, 127
8, 94320, Note_off_c, 3, 61, 127
8, 94320, Note_on_c, 3, 61, 127
8, 94440, Note_off_c, 3, 66, 127
8, 94440, Note_on_c, 3, 66, 127
8, 94440, Note_off_c, 3, 61, 127
8, 94440, Note_on_c, 3, 61, 127
8, 94560, Note_off_c, 3, 66, 127
8, 94560, Note_on_c, 3, 66, 127
8, 94560, Note_off_c, 3, 61, 127
8, 94560, Note_on_c, 3, 61, 127
8, 94680, Note_off_c, 3, 66, 127
8, 94680, Note_on_c, 3, 66, 127
8, 94680, Note_off_c, 3, 61, 127
8, 94680, Note_on_c, 3, 61, 127
8, 94800, Note_off_c, 3, 66, 127
8, 94800, Note_on_c, 3, 66, 127
8, 94800, Note_off_c, 3, 61, 127
8, 94800, Note_on_c, 3, 61, 127
8, 94920, Note_off_c, 3, 66, 127
8, 94920, Note_on_c, 3, 66, 127
8, 94920, Note_off_c, 3, 61, 127
8, 94920, Note_on_c, 3, 61, 127
8, 95040, Note_off_c, 3, 66, 127
8, 95040, Note_on_c, 3, 66, 127
8, 95040, Note_off_c, 3, 61, 127
8, 95040, Note_on_c, 3, 61, 127
8, 95160, Note_off_c, 3, 66, 127
8, 95160, Note_on_c, 3, 66, 127
8, 95160, Note_off_c, 3, 61, 127
8, 95160, Note_on_c, 3, 61, 127
8, 95280, Note_off_c, 3, 66, 127
8, 95280, Note_on_c, 3, 66, 127
8, 95280, Note_off_c, 3, 61, 127
8, 95280, Note_on_c, 3, 61, 127
8, 95400, Note_off_c, 3, 66, 127
8, 95400, Note_on_c, 3, 66, 127
8, 95400, Note_off_c, 3, 61, 127
8, 95400, Note_on_c, 3, 61, 127
8, 95520, Note_off_c, 3, 66, 127
8, 95520, Note_on_c, 3, 66, 127
8, 95520, Note_off_c, 3, 61, 127
8, 95520, Note_on_c, 3, 61, 127
8, 95640, Note_off_c, 3, 66, 127
8, 95640, Note_on_c, 3, 66, 127
8, 95640, Note_off_c, 3, 61, 127
8, 95640, Note_on_c, 3, 61, 127
8, 95760, Note_off_c, 3, 66, 127
8, 95760, Note_on_c, 3, 66, 127
8, 95760, Note_off_c, 3, 61, 127
8, 95760, Note_on_c, 3, 61, 127
8, 95880, Note_off_c, 3, 66, 127
8, 95880, Note_on_c, 3, 66, 127
8, 95880, Note_off_c, 3, 61, 127
8, 95880, Note_on_c, 3, 61, 127
8, 96000, Note_off_c, 3, 66, 127
8, 96000, Note_on_c, 3, 66, 127
8, 96000, Note_off_c, 3, 61, 127
8, 96000, Note_on_c, 3, 61, 127
8, 96120, Note_off_c, 3, 66, 127
8, 96120, Note_on_c, 3, 66, 127
8, 96120, Note_off_c, 3, 61, 127
8, 96120, Note_on_c, 3, 61, 127
8, 96240, Note_off_c, 3, 66, 127
8, 96240, Note_on_c, 3, 66, 127
8, 96240, Note_off_c, 3, 61, 127
8, 96240, Note_on_c, 3, 61, 127
8, 96360, Note_off_c, 3, 66, 127
8, 96360, Note_on_c, 3, 66, 127
8, 96360, Note_off_c, 3, 61, 127
8, 96360, Note_on_c, 3, 61, 127
8, 96480, Note_off_c, 3, 66, 127
8, 96480, Note_on_c, 3, 66, 127
8, 96480, Note_off_c, 3, 61, 127
8, 96480, Note_on_c, 3, 61, 127
8, 96600, Note_off_c, 3, 66, 127
8, 96600, Note_on_c, 3, 66, 127
8, 96600, Note_off_c, 3, 61, 127
8, 96600, Note_on_c, 3, 61, 127
8, 96720, Note_off_c, 3, 66, 127
8, 96720, Note_on_c, 3, 66, 127
8, 96720, Note_off_c, 3, 61, 127
8, 96720, Note_on_c, 3, 61, 127
8, 96840, Note_off_c, 3, 66, 127
8, 96840, Note_on_c, 3, 66, 127
8, 96840, Note_off_c, 3, 61, 127
8, 96840, Note_on_c, 3, 61, 127
8, 96960, Note_off_c, 3, 66, 127
8, 96960, Note_on_c, 3, 66, 127
8, 96960, Note_off_c, 3, 61, 127
8, 96960, Note_on_c, 3, 61, 127
8, 97080, Note_off_c, 3, 66, 127
8, 97080, Note_on_c, 3, 66, 127
8, 97080, Note_off_c, 3, 61, 127
8, 97080, Note_on_c, 3, 61, 127
8, 97200, Note_off_c, 3, 66, 127
8, 97200, Note_on_c, 3, 66, 127
8, 97200, Note_off_c, 3, 61, 127
8, 97200, Note_on_c, 3, 61, 127
8, 97320, Note_off_c, 3, 66, 127
8, 97320, Note_on_c, 3, 66, 127
8, 97320, Note_off_c, 3, 61, 127
8, 97320, Note_on_c, 3, 61, 127
8, 97440, Note_off_c, 3, 66, 127
8, 97440, Note_on_c, 3, 66, 127
8, 97440, Note_off_c, 3, 61, 127
8, 97440, Note_on_c, 3, 61, 127
8, 97560, Note_off_c, 3, 66, 127
8, 97560, Note_on_c, 3, 66, 127
8, 97560, Note_off_c, 3, 61, 127
8, 97560, Note_on_c, 3, 61, 127
8, 97680, Note_off_c, 3, 66, 127
8, 97680, Note_on_c, 3, 66, 127
8, 97680, Note_off_c, 3, 61, 127
8, 97680, Note_on_c, 3, 61, 127
8, 97800, Note_off_c, 3, 66, 127
8, 97800, Note_on_c, 3, 66, 127
8, 97800, Note_off_c, 3, 61, 127
8, 97800, Note_on_c, 3, 61, 127
8, 97920, Note_off_c, 3, 66, 127
8, 97920, Note_on_c, 3, 66, 127
8, 97920, Note_off_c, 3, 61, 127
8, 97920, Note_on_c, 3, 61, 127
8, 98040, Note_off_c, 3, 66, 127
8, 98040, Note_on_c, 3, 66, 127
8, 98040, Note_off_c, 3, 61, 127
8, 98040, Note_on_c, 3, 61, 127
8, 98160, Note_off_c, 3, 66, 127
8, 98160, Note_on_c, 3, 66, 127
8, 98160, Note_off_c, 3, 61, 127
8, 98160, Note_on_c, 3, 61, 127
8, 98280, Note_off_c, 3, 66, 127
8, 98280, Note_on_c, 3, 66, 127
8, 98280, Note_off_c, 3, 61, 127
8, 98280, Note_on_c, 3, 61, 127
8, 98400, Note_off_c, 3, 66, 127
8, 98400, Note_on_c, 3, 66, 127
8, 98400, Note_off_c, 3, 61, 127
8, 98400, Note_on_c, 3, 61, 127
8, 98520, Note_off_c, 3, 66, 127
8, 98520, Note_on_c, 3, 66, 127
8, 98520, Note_off_c, 3, 61, 127
8, 98520, Note_on_c, 3, 61, 127
8, 98640, Note_off_c, 3, 66, 127
8, 98640, Note_on_c, 3, 66, 127
8, 98640, Note_off_c, 3, 61, 127
8, 98640, Note_on_c, 3, 61, 127
8, 98760, Note_off_c, 3, 66, 127
8, 98760, Note_on_c, 3, 66, 127
8, 98760, Note_off_c, 3, 61, 127
8, 98760, Note_on_c, 3, 61, 127
8, 98880, Note_off_c, 3, 66, 127
8, 98880, Note_on_c, 3, 66, 127
8, 98880, Note_off_c, 3, 61, 127
8, 98880, Note_on_c, 3, 61, 127
8, 99000, Note_off_c, 3, 66, 127
8, 99000, Note_on_c, 3, 66, 127
8, 99000, Note_off_c, 3, 61, 127
8, 99000, Note_on_c, 3, 61, 127
8, 99120, Note_off_c, 3, 66, 127
8, 99120, Note_on_c, 3, 66, 127
8, 99120, Note_off_c, 3, 61, 127
8, 99120, Note_on_c, 3, 61, 127
8, 99240, Note_off_c, 3, 66, 127
8, 99240, Note_on_c, 3, 66, 127
8, 99240, Note_off_c, 3, 61, 127
8, 99240, Note_on_c, 3, 61, 127
8, 99360, Note_off_c, 3, 66, 127
8, 99360, Note_on_c, 3, 66, 127
8, 99360, Note_off_c, 3, 61, 127
8, 99360, Note_on_c, 3, 61, 127
8, 99480, Note_off_c, 3, 66, 127
8, 99480, Note_on_c, 3, 66, 127
8, 99480, Note_off_c, 3, 61, 127
8, 99480, Note_on_c, 3, 61, 127
8, 99600, Note_off_c, 3, 66, 127
8, 99600, Note_on_c, 3, 66, 127
8, 99600, Note_off_c, 3, 61, 127
8, 99600, Note_on_c, 3, 61, 127
8, 99720, Note_off_c, 3, 66, 127
8, 99720, Note_on_c, 3, 66, 127
8, 99720, Note_off_c, 3, 61, 127
8, 99720, Note_on_c, 3, 61, 127
8, 99840, Note_off_c, 3, 66, 127
8, 99840, Note_on_c, 3, 66, 127
8, 99840, Note_off_c, 3, 61, 127
8, 99840, Note_on_c, 3, 61, 127
8, 99960, Note_off_c, 3, 66, 127
8, 99960, Note_on_c, 3, 66, 127
8, 99960, Note_off_c, 3, 61, 127
8, 99960, Note_on_c, 3, 61, 127
8, 100080, Note_off_c, 3, 66, 127
8, 100080, Note_on_c, 3, 66, 127
8, 100080, Note_off_c, 3, 61, 127
8, 100080, Note_on_c, 3, 61, 127
8, 100200, Note_off_c, 3, 66, 127
8, 100200, Note_on_c, 3, 66, 127
8, 100200, Note_off_c, 3, 61, 127
8, 100200, Note_on_c, 3, 61, 127
8, 100320, Note_off_c, 3, 66, 127
8, 100320, Note_on_c, 3, 66, 127
8, 100320, Note_off_c, 3, 61, 127
8, 100320, Note_on_c, 3, 61, 127
8, 100440, Note_off_c, 3, 66, 127
8, 100440, Note_on_c, 3, 66, 127
8, 100440, Note_off_c, 3, 61, 127
8, 100440, Note_on_c, 3, 61, 127
8, 100560, Note_off_c, 3, 66, 127
8, 100560, Note_on_c, 3, 66, 127
8, 100560, Note_off_c, 3, 61, 127
8, 100560, Note_on_c, 3, 61, 127
8, 100680, Note_off_c, 3, 66, 127
8, 100680, Note_on_c, 3, 66, 127
8, 100680, Note_off_c, 3, 61, 127
8, 100680, Note_on_c, 3, 61, 127
8, 100800, Note_off_c, 3, 66, 127
8, 100800, Note_on_c, 3, 66, 127
8, 100800, Note_off_c, 3, 61, 127
8, 100800, Note_on_c, 3, 61, 127
8, 100920, Note_off_c, 3, 66, 127
8, 100920, Note_on_c, 3, 66, 127
8, 100920, Note_off_c, 3, 61, 127
8, 100920, Note_on_c, 3, 61, 127
8, 101040, Note_off_c, 3, 66, 127
8, 101040, Note_on_c, 3, 66, 127
8, 101040, Note_off_c, 3, 61, 127
8, 101040, Note_on_c, 3, 61, 127
8, 101160, Note_off_c, 3, 66, 127
8, 101160, Note_on_c, 3, 66, 127
8, 101160, Note_off_c, 3, 61, 127
8, 101160, Note_on_c, 3, 61, 127
8, 101280, Note_off_c, 3, 66, 127
8, 101280, Note_on_c, 3, 66, 127
8, 101280, Note_off_c, 3, 61, 127
8, 101280, Note_on_c, 3, 61, 127
8, 101400, Note_off_c, 3, 66, 127
8, 101400, Note_on_c, 3, 66, 127
8, 101400, Note_off_c, 3, 61, 127
8, 101400, Note_on_c, 3, 61, 127
8, 101520, Note_off_c, 3, 66, 127
8, 101520, Note_on_c, 3, 66, 127
8, 101520, Note_off_c, 3, 61, 127
8, 101520, Note_on_c, 3, 61, 127
8, 101640, Note_off_c, 3, 66, 127
8, 101640, Note_on_c, 3, 66, 127
8, 101640, Note_off_c, 3, 61, 127
8, 101640, Note_on_c, 3, 61, 127
8, 101760, Note_off_c, 3, 66, 127
8, 101760, Note_on_c, 3, 66, 127
8, 101760, Note_off_c, 3, 61, 127
8, 101760, Note_on_c, 3, 61, 127
8, 101880, Note_off_c, 3, 66, 127
8, 101880, Note_on_c, 3, 66, 127
8, 101880, Note_off_c, 3, 61, 127
8, 101880, Note_on_c, 3, 61, 127
8, 102000, Note_off_c, 3, 66, 127
8, 102000, Note_on_c, 3, 66, 127
8, 102000, Note_off_c, 3, 61, 127
8, 102000, Note_on_c, 3, 61, 127
8, 102120, Note_off_c, 3, 66, 127
8, 102120, Note_on_c, 3, 66, 127
8, 102120, Note_off_c, 3, 61, 127
8, 102120, Note_on_c, 3, 61, 127
8, 102240, Note_off_c, 3, 66, 127
8, 102240, Note_on_c, 3, 66, 127
8, 102240, Note_off_c, 3, 61, 127
8, 102240, Note_on_c, 3, 61, 127
8, 102360, Note_off_c, 3, 66, 127
8, 102360, Note_on_c, 3, 66, 127
8, 102360, Note_off_c, 3, 61, 127
8, 102360, Note_on_c, 3, 61, 127
8, 102480, Note_off_c, 3, 66, 127
8, 102480, Note_on_c, 3, 66, 127
8, 102480, Note_off_c, 3, 61, 127
8, 102480, Note_on_c, 3, 61, 127
8, 102600, Note_off_c, 3, 66, 127
8, 102600, Note_on_c, 3, 66, 127
8, 102600, Note_off_c, 3, 61, 127
8, 102600, Note_on_c, 3, 61, 127
8, 102720, Note_off_c, 3, 66, 127
8, 102720, Note_on_c, 3, 66, 127
8, 102720, Note_off_c, 3, 61, 127
8, 102720, Note_on_c, 3, 61, 127
8, 102840, Note_off_c, 3, 66, 127
8, 102840, Note_on_c, 3, 66, 127
8, 102840, Note_off_c, 3, 61, 127
8, 102840, Note_on_c, 3, 61, 127
8, 102960, Note_off_c, 3, 66, 127
8, 102960, Note_on_c, 3, 66, 127
8, 102960, Note_off_c, 3, 61, 127
8, 102960, Note_on_c, 3, 61, 127
8, 103080, Note_off_c, 3, 66, 127
8, 103080, Note_on_c, 3, 66, 127
8, 103080, Note_off_c, 3, 61, 127
8, 103080, Note_on_c, 3, 61, 127
8, 103200, Note_off_c, 3, 66, 127
8, 103200, Note_on_c, 3, 66, 127
8, 103200, Note_off_c, 3, 61, 127
8, 103200, Note_on_c, 3, 61, 127
8, 103320, Note_off_c, 3, 66, 127
8, 103320, Note_on_c, 3, 66, 127
8, 103320, Note_off_c, 3, 61, 127
8, 103320, Note_on_c, 3, 61, 127
8, 103440, Note_off_c, 3, 66, 127
8, 103440, Note_on_c, 3, 66, 127
8, 103440, Note_off_c, 3, 61, 127
8, 103440, Note_on_c, 3, 61, 127
8, 103560, Note_off_c, 3, 66, 127
8, 103560, Note_on_c, 3, 66, 127
8, 103560, Note_off_c, 3, 61, 127
8, 103560, Note_on_c, 3, 61, 127
8, 103679, Note_off_c, 3, 66, 127
8, 103679, Note_off_c, 3, 61, 127
8, 103680, Note_on_c, 3, 65, 127
8, 103680, Note_on_c, 3, 59, 127
8, 103800, Note_off_c, 3, 65, 127
8, 103800, Note_on_c, 3, 65, 127
8, 103800, Note_off_c, 3, 59, 127
8, 103800, Note_on_c, 3, 59, 127
8, 103920, Note_off_c, 3, 65, 127
8, 103920, Note_on_c, 3, 65, 127
8, 103920, Note_off_c, 3, 59, 127
8, 103920, Note_on_c, 3, 59, 127
8, 104040, Note_off_c, 3, 65, 127
8, 104040, Note_on_c, 3, 65, 127
8, 104040, Note_off_c, 3, 59, 127
8, 104040, Note_on_c, 3, 59, 127
8, 104160, Note_off_c, 3, 65, 127
8, 104160, Note_on_c, 3, 65, 127
8, 104160, Note_off_c, 3, 59, 127
8, 104160, Note_on_c, 3, 59, 127
8, 104280, Note_off_c, 3, 65, 127
8, 104280, Note_on_c, 3, 65, 127
8, 104280, Note_off_c, 3, 59, 127
8, 104280, Note_on_c, 3, 59, 127
8, 104400, Note_off_c, 3, 65, 127
8, 104400, Note_on_c, 3, 65, 127
8, 104400, Note_off_c, 3, 59, 127
8, 104400, Note_on_c, 3, 59, 127
8, 104520, Note_off_c, 3, 65, 127
8, 104520, Note_on_c, 3, 65, 127
8, 104520, Note_off_c, 3, 59, 127
8, 104520, Note_on_c, 3, 59, 127
8, 104640, Note_off_c, 3, 65, 127
8, 104640, Note_on_c, 3, 65, 127
8, 104640, Note_off_c, 3, 59, 127
8, 104640, Note_on_c, 3, 59, 127
8, 104760, Note_off_c, 3, 65, 127
8, 104760, Note_on_c, 3, 65, 127
8, 104760, Note_off_c, 3, 59, 127
8, 104760, Note_on_c, 3, 59, 127
8, 104880, Note_off_c, 3, 65, 127
8, 104880, Note_on_c, 3, 65, 127
8, 104880, Note_off_c, 3, 59, 127
8, 104880, Note_on_c, 3, 59, 127
8, 105000, Note_off_c, 3, 65, 127
8, 105000, Note_on_c, 3, 65, 127
8, 105000, Note_off_c, 3, 59, 127
8, 105000, Note_on_c, 3, 59, 127
8, 105120, Note_off_c, 3, 65, 127
8, 105120, Note_on_c, 3, 65, 127
8, 105120, Note_off_c, 3, 59, 127
8, 105120, Note_on_c, 3, 59, 127
8, 105240, Note_off_c, 3, 65, 127
8, 105240, Note_on_c, 3, 65, 127
8, 105240, Note_off_c, 3, 59, 127
8, 105240, Note_on_c, 3, 59, 127
8, 105360, Note_off_c, 3, 65, 127
8, 105360, Note_on_c, 3, 65, 127
8, 105360, Note_off_c, 3, 59, 127
8, 105360, Note_on_c, 3, 59, 127
8, 105480, Note_off_c, 3, 65, 127
8, 105480, Note_on_c, 3, 65, 127
8, 105480, Note_off_c, 3, 59, 127
8, 105480, Note_on_c, 3, 59, 127
8, 105600, Note_off_c, 3, 65, 127
8, 105600, Note_on_c, 3, 65, 127
8, 105600, Note_off_c, 3, 59, 127
8, 105600, Note_on_c, 3, 59, 127
8, 105720, Note_off_c, 3, 65, 127
8, 105720, Note_on_c, 3, 65, 127
8, 105720, Note_off_c, 3, 59, 127
8, 105720, Note_on_c, 3, 59, 127
8, 105840, Note_off_c, 3, 65, 127
8, 105840, Note_on_c, 3, 65, 127
8, 105840, Note_off_c, 3, 59, 127
8, 105840, Note_on_c, 3, 59, 127
8, 105960, Note_off_c, 3, 65, 127
8, 105960, Note_on_c, 3, 65, 127
8, 105960, Note_off_c, 3, 59, 127
8, 105960, Note_on_c, 3, 59, 127
8, 106080, Note_off_c, 3, 65, 127
8, 106080, Note_on_c, 3, 65, 127
8, 106080, Note_off_c, 3, 59, 127
8, 106080, Note_on_c, 3, 59, 127
8, 106200, Note_off_c, 3, 65, 127
8, 106200, Note_on_c, 3, 65, 127
8, 106200, Note_off_c, 3, 59, 127
8, 106200, Note_on_c, 3, 59, 127
8, 106320, Note_off_c, 3, 65, 127
8, 106320, Note_on_c, 3, 65, 127
8, 106320, Note_off_c, 3, 59, 127
8, 106320, Note_on_c, 3, 59, 127
8, 106440, Note_off_c, 3, 65, 127
8, 106440, Note_on_c, 3, 65, 127
8, 106440, Note_off_c, 3, 59, 127
8, 106440, Note_on_c, 3, 59, 127
8, 106560, Note_off_c, 3, 65, 127
8, 106560, Note_on_c, 3, 65, 127
8, 106560, Note_off_c, 3, 59, 127
8, 106560, Note_on_c, 3, 59, 127
8, 106680, Note_off_c, 3, 65, 127
8, 106680, Note_on_c, 3, 65, 127
8, 106680, Note_off_c, 3, 59, 127
8, 106680, Note_on_c, 3, 59, 127
8, 106800, Note_off_c, 3, 65, 127
8, 106800, Note_on_c, 3, 65, 127
8, 106800, Note_off_c, 3, 59, 127
8, 106800, Note_on_c, 3, 59, 127
8, 106920, Note_off_c, 3, 65, 127
8, 106920, Note_on_c, 3, 65, 127
8, 106920, Note_off_c, 3, 59, 127
8, 106920, Note_on_c, 3, 59, 127
8, 107040, Note_off_c, 3, 65, 127
8, 107040, Note_on_c, 3, 65, 127
8, 107040, Note_off_c, 3, 59, 127
8, 107040, Note_on_c, 3, 59, 127
8, 107160, Note_off_c, 3, 65, 127
8, 107160, Note_on_c, 3, 65, 127
8, 107160, Note_off_c, 3, 59, 127
8, 107160, Note_on_c, 3, 59, 127
8, 107280, Note_off_c, 3, 65, 127
8, 107280, Note_on_c, 3, 65, 127
8, 107280, Note_off_c, 3, 59, 127
8, 107280, Note_on_c, 3, 59, 127
8, 107400, Note_off_c, 3, 65, 127
8, 107400, Note_on_c, 3, 65, 127
8, 107400, Note_off_c, 3, 59, 127
8, 107400, Note_on_c, 3, 59, 127
8, 107520, Note_off_c, 3, 65, 127
8, 107520, Note_on_c, 3, 65, 127
8, 107520, Note_off_c, 3, 59, 127
8, 107520, Note_on_c, 3, 59, 127
8, 107640, Note_off_c, 3, 65, 127
8, 107640, Note_on_c, 3, 65, 127
8, 107640, Note_off_c, 3, 59, 127
8, 107640, Note_on_c, 3, 59, 127
8, 107760, Note_off_c, 3, 65, 127
8, 107760, Note_on_c, 3, 65, 127
8, 107760, Note_off_c, 3, 59, 127
8, 107760, Note_on_c, 3, 59, 127
8, 107880, Note_off_c, 3, 65, 127
8, 107880, Note_on_c, 3, 65, 127
8, 107880, Note_off_c, 3, 59, 127
8, 107880, Note_on_c, 3, 59, 127
8, 108000, Note_off_c, 3, 65, 127
8, 108000, Note_on_c, 3, 65, 127
8, 108000, Note_off_c, 3, 59, 127
8, 108000, Note_on_c, 3, 59, 127
8, 108120, Note_off_c, 3, 65, 127
8, 108120, Note_on_c, 3, 65, 127
8, 108120, Note_off_c, 3, 59, 127
8, 108120, Note_on_c, 3, 59, 127
8, 108240, Note_off_c, 3, 65, 127
8, 108240, Note_on_c, 3, 65, 127
8, 108240, Note_off_c, 3, 59, 127
8, 108240, Note_on_c, 3, 59, 127
8, 108360, Note_off_c, 3, 65, 127
8, 108360, Note_on_c, 3, 65, 127
8, 108360, Note_off_c, 3, 59, 127
8, 108360, Note_on_c, 3, 59, 127
8, 108480, Note_off_c, 3, 65, 127
8, 108480, Note_on_c, 3, 65, 127
8, 108480, Note_off_c, 3, 59, 127
8, 108480, Note_on_c, 3, 59, 127
8, 108600, Note_off_c, 3, 65, 127
8, 108600, Note_on_c, 3, 65, 127
8, 108600, Note_off_c, 3, 59, 127
8, 108600, Note_on_c, 3, 59, 127
8, 108720, Note_off_c, 3, 65, 127
8, 108720, Note_on_c, 3, 65, 127
8, 108720, Note_off_c, 3, 59, 127
8, 108720, Note_on_c, 3, 59, 127
8, 108840, Note_off_c, 3, 65, 127
8, 108840, Note_on_c, 3, 65, 127
8, 108840, Note_off_c, 3, 59, 127
8, 108840, Note_on_c, 3, 59, 127
8, 108960, Note_off_c, 3, 65, 127
8, 108960, Note_on_c, 3, 65, 127
8, 108960, Note_off_c, 3, 59, 127
8, 108960, Note_on_c, 3, 59, 127
8, 109080, Note_off_c, 3, 65, 127
8, 109080, Note_on_c, 3, 65, 127
8, 109080, Note_off_c, 3, 59, 127
8, 109080, Note_on_c, 3, 59, 127
8, 109200, Note_off_c, 3, 65, 127
8, 109200, Note_on_c, 3, 65, 127
8, 109200, Note_off_c, 3, 59, 127
8, 109200, Note_on_c, 3, 59, 127
8, 109320, Note_off_c, 3, 65, 127
8, 109320, Note_on_c, 3, 65, 127
8, 109320, Note_off_c, 3, 59, 127
8, 109320, Note_on_c, 3, 59, 127
8, 109440, Note_off_c, 3, 65, 127
8, 109440, Note_on_c, 3, 65, 127
8, 109440, Note_off_c, 3, 59, 127
8, 109440, Note_on_c, 3, 59, 127
8, 109560, Note_off_c, 3, 65, 127
8, 109560, Note_on_c, 3, 65, 127
8, 109560, Note_off_c, 3, 59, 127
8, 109560, Note_on_c, 3, 59, 127
8, 109680, Note_off_c, 3, 65, 127
8, 109680, Note_on_c, 3, 65, 127
8, 109680, Note_off_c, 3, 59, 127
8, 109680, Note_on_c, 3, 59, 127
8, 109800, Note_off_c, 3, 65, 127
8, 109800, Note_on_c, 3, 65, 127
8, 109800, Note_off_c, 3, 59, 127
8, 109800, Note_on_c, 3, 59, 127
8, 109920, Note_off_c, 3, 65, 127
8, 109920, Note_on_c, 3, 65, 127
8, 109920, Note_off_c, 3, 59, 127
8, 109920, Note_on_c, 3, 59, 127
8, 110040, Note_off_c, 3, 65, 127
8, 110040, Note_on_c, 3, 65, 127
8, 110040, Note_off_c, 3, 59, 127
8, 110040, Note_on_c, 3, 59, 127
8, 110160, Note_off_c, 3, 65, 127
8, 110160, Note_on_c, 3, 65, 127
8, 110160, Note_off_c, 3, 59, 127
8, 110160, Note_on_c, 3, 59, 127
8, 110280, Note_off_c, 3, 65, 127
8, 110280, Note_on_c, 3, 65, 127
8, 110280, Note_off_c, 3, 59, 127
8, 110280, Note_on_c, 3, 59, 127
8, 110400, Note_off_c, 3, 65, 127
8, 110400, Note_on_c, 3, 65, 127
8, 110400, Note_off_c, 3, 59, 127
8, 110400, Note_on_c, 3, 59, 127
8, 110520, Note_off_c, 3, 65, 127
8, 110520, Note_on_c, 3, 65, 127
8, 110520, Note_off_c, 3, 59, 127
8, 110520, Note_on_c, 3, 59, 127
8, 110640, Note_off_c, 3, 65, 127
8, 110640, Note_on_c, 3, 65, 127
8, 110640, Note_off_c, 3, 59, 127
8, 110640, Note_on_c, 3, 59, 127
8, 110760, Note_off_c, 3, 65, 127
8, 110760, Note_on_c, 3, 65, 127
8, 110760, Note_off_c, 3, 59, 127
8, 110760, Note_on_c, 3, 59, 127
8, 110880, Note_off_c, 3, 65, 127
8, 110880, Note_on_c, 3, 65, 127
8, 110880, Note_off_c, 3, 59, 127
8, 110880, Note_on_c, 3, 59, 127
8, 111000, Note_off_c, 3, 65, 127
8, 111000, Note_on_c, 3, 65, 127
8, 111000, Note_off_c, 3, 59, 127
8, 111000, Note_on_c, 3, 59, 127
8, 111120, Note_off_c, 3, 65, 127
8, 111120, Note_on_c, 3, 65, 127
8, 111120, Note_off_c, 3, 59, 127
8, 111120, Note_on_c, 3, 59, 127
8, 111240, Note_off_c, 3, 65, 127
8, 111240, Note_on_c, 3, 65, 127
8, 111240, Note_off_c, 3, 59, 127
8, 111240, Note_on_c, 3, 59, 127
8, 111360, Note_off_c, 3, 65, 127
8, 111360, Note_on_c, 3, 65, 127
8, 111360, Note_off_c, 3, 59, 127
8, 111360, Note_on_c, 3, 59, 127
8, 111480, Note_off_c, 3, 65, 127
8, 111480, Note_on_c, 3, 65, 127
8, 111480, Note_off_c, 3, 59, 127
8, 111480, Note_on_c, 3, 59, 127
8, 111600, Note_off_c, 3, 65, 127
8, 111600, Note_on_c, 3, 65, 127
8, 111600, Note_off_c, 3, 59, 127
8, 111600, Note_on_c, 3, 59, 127
8, 111720, Note_off_c, 3, 65, 127
8, 111720, Note_on_c, 3, 65, 127
8, 111720, Note_off_c, 3, 59, 127
8, 111720, Note_on_c, 3, 59, 127
8, 111840, Note_off_c, 3, 65, 127
8, 111840, Note_on_c, 3, 65, 127
8, 111840, Note_off_c, 3, 59, 127
8, 111840, Note_on_c, 3, 59, 127
8, 111960, Note_off_c, 3, 65, 127
8, 111960, Note_on_c, 3, 65, 127
8, 111960, Note_off_c, 3, 59, 127
8, 111960, Note_on_c, 3, 59, 127
8, 112080, Note_off_c, 3, 65, 127
8, 112080, Note_on_c, 3, 65, 127
8, 112080, Note_off_c, 3, 59, 127
8, 112080, Note_on_c, 3, 59, 127
8, 112200, Note_off_c, 3, 65, 127
8, 112200, Note_on_c, 3, 65, 127
8, 112200, Note_off_c, 3, 59, 127
8, 112200, Note_on_c, 3, 59, 127
8, 112320, Note_off_c, 3, 65, 127
8, 112320, Note_on_c, 3, 65, 127
8, 112320, Note_off_c, 3, 59, 127
8, 112320, Note_on_c, 3, 59, 127
8, 112440, Note_off_c, 3, 65, 127
8, 112440, Note_on_c, 3, 65, 127
8, 112440, Note_off_c, 3, 59, 127
8, 112440, Note_on_c, 3, 59, 127
8, 112560, Note_off_c, 3, 65, 127
8, 112560, Note_on_c, 3, 65, 127
8, 112560, Note_off_c, 3, 59, 127
8, 112560, Note_on_c, 3, 59, 127
8, 112680, Note_off_c, 3, 65, 127
8, 112680, Note_on_c, 3, 65, 127
8, 112680, Note_off_c, 3, 59, 127
8, 112680, Note_on_c, 3, 59, 127
8, 112800, Note_off_c, 3, 65, 127
8, 112800, Note_on_c, 3, 65, 127
8, 112800, Note_off_c, 3, 59, 127
8, 112800, Note_on_c, 3, 59, 127
8, 112920, Note_off_c, 3, 65, 127
8, 112920, Note_on_c, 3, 65, 127
8, 112920, Note_off_c, 3, 59, 127
8, 112920, Note_on_c, 3, 59, 127
8, 113040, Note_off_c, 3, 65, 127
8, 113040, Note_on_c, 3, 65, 127
8, 113040, Note_off_c, 3, 59, 127
8, 113040, Note_on_c, 3, 59, 127
8, 113160, Note_off_c, 3, 65, 127
8, 113160, Note_on_c, 3, 65, 127
8, 113160, Note_off_c, 3, 59, 127
8, 113160, Note_on_c, 3, 59, 127
8, 113280, Note_off_c, 3, 65, 127
8, 113280, Note_on_c, 3, 65, 127
8, 113280, Note_off_c, 3, 59, 127
8, 113280, Note_on_c, 3, 59, 127
8, 113400, Note_off_c, 3, 65, 127
8, 113400, Note_on_c, 3, 65, 127
8, 113400, Note_off_c, 3, 59, 127
8, 113400, Note_on_c, 3, 59, 127
8, 113520, Note_off_c, 3, 65, 127
8, 113520, Note_on_c, 3, 65, 127
8, 113520, Note_off_c, 3, 59, 127
8, 113520, Note_on_c, 3, 59, 127
8, 113640, Note_off_c, 3, 65, 127
8, 113640, Note_on_c, 3, 65, 127
8, 113640, Note_off_c, 3, 59, 127
8, 113640, Note_on_c, 3, 59, 127
8, 113760, Note_off_c, 3, 65, 127
8, 113760, Note_on_c, 3, 65, 127
8, 113760, Note_off_c, 3, 59, 127
8, 113760, Note_on_c, 3, 59, 127
8, 113880, Note_off_c, 3, 65, 127
8, 113880, Note_on_c, 3, 65, 127
8, 113880, Note_off_c, 3, 59, 127
8, 113880, Note_on_c, 3, 59, 127
8, 114000, Note_off_c, 3, 65, 127
8, 114000, Note_on_c, 3, 65, 127
8, 114000, Note_off_c, 3, 59, 127
8, 114000, Note_on_c, 3, 59, 127
8, 114120, Note_off_c, 3, 65, 127
8, 114120, Note_on_c, 3, 65, 127
8, 114120, Note_off_c, 3, 59, 127
8, 114120, Note_on_c, 3, 59, 127
8, 114240, Note_off_c, 3, 65, 127
8, 114240, Note_on_c, 3, 65, 127
8, 114240, Note_off_c, 3, 59, 127
8, 114240, Note_on_c, 3, 59, 127
8, 114360, Note_off_c, 3, 65, 127
8, 114360, Note_on_c, 3, 65, 127
8, 114360, Note_off_c, 3, 59, 127
8, 114360, Note_on_c, 3, 59, 127
8, 114480, Note_off_c, 3, 65, 127
8, 114480, Note_on_c, 3, 65, 127
8, 114480, Note_off_c, 3, 59, 127
8, 114480, Note_on_c, 3, 59, 127
8, 114600, Note_off_c, 3, 65, 127
8, 114600, Note_on_c, 3, 65, 127
8, 114600, Note_off_c, 3, 59, 127
8, 114600, Note_on_c, 3, 59, 127
8, 114720, Note_off_c, 3, 65, 127
8, 114720, Note_on_c, 3, 65, 127
8, 114720, Note_off_c, 3, 59, 127
8, 114720, Note_on_c, 3, 59, 127
8, 114840, Note_off_c, 3, 65, 127
8, 114840, Note_on_c, 3, 65, 127
8, 114840, Note_off_c, 3, 59, 127
8, 114840, Note_on_c, 3, 59, 127
8, 114960, Note_off_c, 3, 65, 127
8, 114960, Note_on_c, 3, 65, 127
8, 114960, Note_off_c, 3, 59, 127
8, 114960, Note_on_c, 3, 59, 127
8, 115080, Note_off_c, 3, 65, 127
8, 115080, Note_on_c, 3, 65, 127
8, 115080, Note_off_c, 3, 59, 127
8, 115080, Note_on_c, 3, 59, 127
8, 115199, Note_off_c, 3, 65, 127
8, 115199, Note_off_c, 3, 59, 127
8, 115200, Note_on_c, 3, 64, 127
8, 115200, Note_on_c, 3, 55, 127
8, 115320, Note_off_c, 3, 64, 127
8, 115320, Note_on_c, 3, 64, 127
8, 115320, Note_off_c, 3, 55, 127
8, 115320, Note_on_c, 3, 55, 127
8, 115440, Note_off_c, 3, 64, 127
8, 115440, Note_on_c, 3, 64, 127
8, 115440, Note_off_c, 3, 55, 127
8, 115440, Note_on_c, 3, 55, 127
8, 115560, Note_off_c, 3, 64, 127
8, 115560, Note_on_c, 3, 64, 127
8, 115560, Note_off_c, 3, 55, 127
8, 115560, Note_on_c, 3, 55, 127
8, 115680, Note_off_c, 3, 64, 127
8, 115680, Note_on_c, 3, 64, 127
8, 115680, Note_off_c, 3, 55, 127
8, 115680, Note_on_c, 3, 55, 127
8, 115800, Note_off_c, 3, 64, 127
8, 115800, Note_on_c, 3, 64, 127
8, 115800, Note_off_c, 3, 55, 127
8, 115800, Note_on_c, 3, 55, 127
8, 115920, Note_off_c, 3, 64, 127
8, 115920, Note_on_c, 3, 64, 127
8, 115920, Note_off_c, 3, 55, 127
8, 115920, Note_on_c, 3, 55, 127
8, 116040, Note_off_c, 3, 64, 127
8, 116040, Note_on_c, 3, 64, 127
8, 116040, Note_off_c, 3, 55, 127
8, 116040, Note_on_c, 3, 55, 127
8, 116160, Note_off_c, 3, 64, 127
8, 116160, Note_on_c, 3, 64, 127
8, 116160, Note_off_c, 3, 55, 127
8, 116160, Note_on_c, 3, 55, 127
8, 116280, Note_off_c, 3, 64, 127
8, 116280, Note_on_c, 3, 64, 127
8, 116280, Note_off_c, 3, 55, 127
8, 116280, Note_on_c, 3, 55, 127
8, 116400, Note_off_c, 3, 64, 127
8, 116400, Note_on_c, 3, 64, 127
8, 116400, Note_off_c, 3, 55, 127
8, 116400, Note_on_c, 3, 55, 127
8, 116520, Note_off_c, 3, 64, 127
8, 116520, Note_on_c, 3, 64, 127
8, 116520, Note_off_c, 3, 55, 127
8, 116520, Note_on_c, 3, 55, 127
8, 116640, Note_off_c, 3, 64, 127
8, 116640, Note_on_c, 3, 64, 127
8, 116640, Note_off_c, 3, 55, 127
8, 116640, Note_on_c, 3, 55, 127
8, 116760, Note_off_c, 3, 64, 127
8, 116760, Note_on_c, 3, 64, 127
8, 116760, Note_off_c, 3, 55, 127
8, 116760, Note_on_c, 3, 55, 127
8, 116880, Note_off_c, 3, 64, 127
8, 116880, Note_on_c, 3, 64, 127
8, 116880, Note_off_c, 3, 55, 127
8, 116880, Note_on_c, 3, 55, 127
8, 117000, Note_off_c, 3, 64, 127
8, 117000, Note_on_c, 3, 64, 127
8, 117000, Note_off_c, 3, 55, 127
8, 117000, Note_on_c, 3, 55, 127
8, 117120, Note_off_c, 3, 64, 127
8, 117120, Note_on_c, 3, 64, 127
8, 117120, Note_off_c, 3, 55, 127
8, 117120, Note_on_c, 3, 55, 127
8, 117240, Note_off_c, 3, 64, 127
8, 117240, Note_on_c, 3, 64, 127
8, 117240, Note_off_c, 3, 55, 127
8, 117240, Note_on_c, 3, 55, 127
8, 117360, Note_off_c, 3, 64, 127
8, 117360, Note_on_c, 3, 64, 127
8, 117360, Note_off_c, 3, 55, 127
8, 117360, Note_on_c, 3, 55, 127
8, 117480, Note_off_c, 3, 64, 127
8, 117480, Note_on_c, 3, 64, 127
8, 117480, Note_off_c, 3, 55, 127
8, 117480, Note_on_c, 3, 55, 127
8, 117600, Note_off_c, 3, 64, 127
8, 117600, Note_on_c, 3, 64, 127
8, 117600, Note_off_c, 3, 55, 127
8, 117600, Note_on_c, 3, 55, 127
8, 117720, Note_off_c, 3, 64, 127
8, 117720, Note_on_c, 3, 64, 127
8, 117720, Note_off_c, 3, 55, 127
8, 117720, Note_on_c, 3, 55, 127
8, 117840, Note_off_c, 3, 64, 127
8, 117840, Note_on_c, 3, 64, 127
8, 117840, Note_off_c, 3, 55, 127
8, 117840, Note_on_c, 3, 55, 127
8, 117960, Note_off_c, 3, 64, 127
8, 117960, Note_on_c, 3, 64, 127
8, 117960, Note_off_c, 3, 55, 127
8, 117960, Note_on_c, 3, 55, 127
8, 118080, Note_off_c, 3, 64, 127
8, 118080, Note_on_c, 3, 64, 127
8, 118080, Note_off_c, 3, 55, 127
8, 118080, Note_on_c, 3, 55, 127
8, 118200, Note_off_c, 3, 64, 127
8, 118200, Note_on_c, 3, 64, 127
8, 118200, Note_off_c, 3, 55, 127
8, 118200, Note_on_c, 3, 55, 127
8, 118320, Note_off_c, 3, 64, 127
8, 118320, Note_on_c, 3, 64, 127
8, 118320, Note_off_c, 3, 55, 127
8, 118320, Note_on_c, 3, 55, 127
8, 118440, Note_off_c, 3, 64, 127
8, 118440, Note_on_c, 3, 64, 127
8, 118440, Note_off_c, 3, 55, 127
8, 118440, Note_on_c, 3, 55, 127
8, 118560, Note_off_c, 3, 64, 127
8, 118560, Note_on_c, 3, 64, 127
8, 118560, Note_off_c, 3, 55, 127
8, 118560, Note_on_c, 3, 55, 127
8, 118680, Note_off_c, 3, 64, 127
8, 118680, Note_on_c, 3, 64, 127
8, 118680, Note_off_c, 3, 55, 127
8, 118680, Note_on_c, 3, 55, 127
8, 118800, Note_off_c, 3, 64, 127
8, 118800, Note_on_c, 3, 64, 127
8, 118800, Note_off_c, 3, 55, 127
8, 118800, Note_on_c, 3, 55, 127
8, 118920, Note_off_c, 3, 64, 127
8, 118920, Note_on_c, 3, 64, 127
8, 118920, Note_off_c, 3, 55, 127
8, 118920, Note_on_c, 3, 55, 127
8, 119040, Note_off_c, 3, 64, 127
8, 119040, Note_on_c, 3, 64, 127
8, 119040, Note_off_c, 3, 55, 127
8, 119040, Note_on_c, 3, 55, 127
8, 119160, Note_off_c, 3, 64, 127
8, 119160, Note_on_c, 3, 64, 127
8, 119160, Note_off_c, 3, 55, 127
8, 119160, Note_on_c, 3, 55, 127
8, 119280, Note_off_c, 3, 64, 127
8, 119280, Note_on_c, 3, 64, 127
8, 119280, Note_off_c, 3, 55, 127
8, 119280, Note_on_c, 3, 55, 127
8, 119400, Note_off_c, 3, 64, 127
8, 119400, Note_on_c, 3, 64, 127
8, 119400, Note_off_c, 3, 55, 127
8, 119400, Note_on_c, 3, 55, 127
8, 119520, Note_off_c, 3, 64, 127
8, 119520, Note_on_c, 3, 64, 127
8, 119520, Note_off_c, 3, 55, 127
8, 119520, Note_on_c, 3, 55, 127
8, 119640, Note_off_c, 3, 64, 127
8, 119640, Note_on_c, 3, 64, 127
8, 119640, Note_off_c, 3, 55, 127
8, 119640, Note_on_c, 3, 55, 127
8, 119760, Note_off_c, 3, 64, 127
8, 119760, Note_on_c, 3, 64, 127
8, 119760, Note_off_c, 3, 55, 127
8, 119760, Note_on_c, 3, 55, 127
8, 119880, Note_off_c, 3, 64, 127
8, 119880, Note_on_c, 3, 64, 127
8, 119880, Note_off_c, 3, 55, 127
8, 119880, Note_on_c, 3, 55, 127
8, 120000, Note_off_c, 3, 64, 127
8, 120000, Note_on_c, 3, 64, 127
8, 120000, Note_off_c, 3, 55, 127
8, 120000, Note_on_c, 3, 55, 127
8, 120120, Note_off_c, 3, 64, 127
8, 120120, Note_on_c, 3, 64, 127
8, 120120, Note_off_c, 3, 55, 127
8, 120120, Note_on_c, 3, 55, 127
8, 120240, Note_off_c, 3, 64, 127
8, 120240, Note_on_c, 3, 64, 127
8, 120240, Note_off_c, 3, 55, 127
8, 120240, Note_on_c, 3, 55, 127
8, 120360, Note_off_c, 3, 64, 127
8, 120360, Note_on_c, 3, 64, 127
8, 120360, Note_off_c, 3, 55, 127
8, 120360, Note_on_c, 3, 55, 127
8, 120480, Note_off_c, 3, 64, 127
8, 120480, Note_on_c, 3, 64, 127
8, 120480, Note_off_c, 3, 55, 127
8, 120480, Note_on_c, 3, 55, 127
8, 120600, Note_off_c, 3, 64, 127
8, 120600, Note_on_c, 3, 64, 127
8, 120600, Note_off_c, 3, 55, 127
8, 120600, Note_on_c, 3, 55, 127
8, 120720, Note_off_c, 3, 64, 127
8, 120720, Note_on_c, 3, 64, 127
8, 120720, Note_off_c, 3, 55, 127
8, 120720, Note_on_c, 3, 55, 127
8, 120840, Note_off_c, 3, 64, 127
8, 120840, Note_on_c, 3, 64, 127
8, 120840, Note_off_c, 3, 55, 127
8, 120840, Note_on_c, 3, 55, 127
8, 120960, Note_off_c, 3, 64, 127
8, 120960, Note_on_c, 3, 64, 127
8, 120960, Note_off_c, 3, 55, 127
8, 120960, Note_on_c, 3, 55, 127
8, 121080, Note_off_c, 3, 64, 127
8, 121080, Note_on_c, 3, 64, 127
8, 121080, Note_off_c, 3, 55, 127
8, 121080, Note_on_c, 3, 55, 127
8, 121200, Note_off_c, 3, 64, 127
8, 121200, Note_on_c, 3, 64, 127
8, 121200, Note_off_c, 3, 55, 127
8, 121200, Note_on_c, 3, 55, 127
8, 121320, Note_off_c, 3, 64, 127
8, 121320, Note_on_c, 3, 64, 127
8, 121320, Note_off_c, 3, 55, 127
8, 121320, Note_on_c, 3, 55, 127
8, 121440, Note_off_c, 3, 64, 127
8, 121440, Note_on_c, 3, 64, 127
8, 121440, Note_off_c, 3, 55, 127
8, 121440, Note_on_c, 3, 55, 127
8, 121560, Note_off_c, 3, 64, 127
8, 121560, Note_on_c, 3, 64, 127
8, 121560, Note_off_c, 3, 55, 127
8, 121560, Note_on_c, 3, 55, 127
8, 121680, Note_off_c, 3, 64, 127
8, 121680, Note_on_c, 3, 64, 127
8, 121680, Note_off_c, 3, 55, 127
8, 121680, Note_on_c, 3, 55, 127
8, 121800, Note_off_c, 3, 64, 127
8, 121800, Note_on_c, 3, 64, 127
8, 121800, Note_off_c, 3, 55, 127
8, 121800, Note_on_c, 3, 55, 127
8, 121920, Note_off_c, 3, 64, 127
8, 121920, Note_on_c, 3, 64, 127
8, 121920, Note_off_c, 3, 55, 127
8, 121920, Note_on_c, 3, 55, 127
8, 122040, Note_off_c, 3, 64, 127
8, 122040, Note_on_c, 3, 64, 127
8, 122040, Note_off_c, 3, 55, 127
8, 122040, Note_on_c, 3, 55, 127
8, 122160, Note_off_c, 3, 64, 127
8, 122160, Note_on_c, 3, 64, 127
8, 122160, Note_off_c, 3, 55, 127
8, 122160, Note_on_c, 3, 55, 127
8, 122280, Note_off_c, 3, 64, 127
8, 122280, Note_on_c, 3, 64, 127
8, 122280, Note_off_c, 3, 55, 127
8, 122280, Note_on_c, 3, 55, 127
8, 122400, Note_off_c, 3, 64, 127
8, 122400, Note_on_c, 3, 64, 127
8, 122400, Note_off_c, 3, 55, 127
8, 122400, Note_on_c, 3, 55, 127
8, 122520, Note_off_c, 3, 64, 127
8, 122520, Note_on_c, 3, 64, 127
8, 122520, Note_off_c, 3, 55, 127
8, 122520, Note_on_c, 3, 55, 127
8, 122640, Note_off_c, 3, 64, 127
8, 122640, Note_on_c, 3, 64, 127
8, 122640, Note_off_c, 3, 55, 127
8, 122640, Note_on_c, 3, 55, 127
8, 122760, Note_off_c, 3, 64, 127
8, 122760, Note_on_c, 3, 64, 127
8, 122760, Note_off_c, 3, 55, 127
8, 122760, Note_on_c, 3, 55, 127
8, 122880, Note_off_c, 3, 64, 127
8, 122880, Note_on_c, 3, 64, 127
8, 122880, Note_off_c, 3, 55, 127
8, 122880, Note_on_c, 3, 55, 127
8, 123000, Note_off_c, 3, 64, 127
8, 123000, Note_on_c, 3, 64, 127
8, 123000, Note_off_c, 3, 55, 127
8, 123000, Note_on_c, 3, 55, 127
8, 123120, Note_off_c, 3, 64, 127
8, 123120, Note_on_c, 3, 64, 127
8, 123120, Note_off_c, 3, 55, 127
8, 123120, Note_on_c, 3, 55, 127
8, 123240, Note_off_c, 3, 64, 127
8, 123240, Note_on_c, 3, 64, 127
8, 123240, Note_off_c, 3, 55, 127
8, 123240, Note_on_c, 3, 55, 127
8, 123360, Note_off_c, 3, 64, 127
8, 123360, Note_on_c, 3, 64, 127
8, 123360, Note_off_c, 3, 55, 127
8, 123360, Note_on_c, 3, 55, 127
8, 123480, Note_off_c, 3, 64, 127
8, 123480, Note_on_c, 3, 64, 127
8, 123480, Note_off_c, 3, 55, 127
8, 123480, Note_on_c, 3, 55, 127
8, 123600, Note_off_c, 3, 64, 127
8, 123600, Note_on_c, 3, 64, 127
8, 123600, Note_off_c, 3, 55, 127
8, 123600, Note_on_c, 3, 55, 127
8, 123720, Note_off_c, 3, 64, 127
8, 123720, Note_on_c, 3, 64, 127
8, 123720, Note_off_c, 3, 55, 127
8, 123720, Note_on_c, 3, 55, 127
8, 123840, Note_off_c, 3, 64, 127
8, 123840, Note_on_c, 3, 64, 127
8, 123840, Note_off_c, 3, 55, 127
8, 123840, Note_on_c, 3, 55, 127
8, 123960, Note_off_c, 3, 64, 127
8, 123960, Note_on_c, 3, 64, 127
8, 123960, Note_off_c, 3, 55, 127
8, 123960, Note_on_c, 3, 55, 127
8, 124080, Note_off_c, 3, 64, 127
8, 124080, Note_on_c, 3, 64, 127
8, 124080, Note_off_c, 3, 55, 127
8, 124080, Note_on_c, 3, 55, 127
8, 124200, Note_off_c, 3, 64, 127
8, 124200, Note_on_c, 3, 64, 127
8, 124200, Note_off_c, 3, 55, 127
8, 124200, Note_on_c, 3, 55, 127
8, 124320, Note_off_c, 3, 64, 127
8, 124320, Note_on_c, 3, 64, 127
8, 124320, Note_off_c, 3, 55, 127
8, 124320, Note_on_c, 3, 55, 127
8, 124440, Note_off_c, 3, 64, 127
8, 124440, Note_on_c, 3, 64, 127
8, 124440, Note_off_c, 3, 55, 127
8, 124440, Note_on_c, 3, 55, 127
8, 124560, Note_off_c, 3, 64, 127
8, 124560, Note_on_c, 3, 64, 127
8, 124560, Note_off_c, 3, 55, 127
8, 124560, Note_on_c, 3, 55, 127
8, 124680, Note_off_c, 3, 64, 127
8, 124680, Note_on_c, 3, 64, 127
8, 124680, Note_off_c, 3, 55, 127
8, 124680, Note_on_c, 3, 55, 127
8, 124800, Note_off_c, 3, 64, 127
8, 124800, Note_on_c, 3, 64, 127
8, 124800, Note_off_c, 3, 55, 127
8, 124800, Note_on_c, 3, 55, 127
8, 124920, Note_off_c, 3, 64, 127
8, 124920, Note_on_c, 3, 64, 127
8, 124920, Note_off_c, 3, 55, 127
8, 124920, Note_on_c, 3, 55, 127
8, 125040, Note_off_c, 3, 64, 127
8, 125040, Note_on_c, 3, 64, 127
8, 125040, Note_off_c, 3, 55, 127
8, 125040, Note_on_c, 3, 55, 127
8, 125160, Note_off_c, 3, 64, 127
8, 125160, Note_on_c, 3, 64, 127
8, 125160, Note_off_c, 3, 55, 127
8, 125160, Note_on_c, 3, 55, 127
8, 125280, Note_off_c, 3, 64, 127
8, 125280, Note_on_c, 3, 64, 127
8, 125280, Note_off_c, 3, 55, 127
8, 125280, Note_on_c, 3, 55, 127
8, 125400, Note_off_c, 3, 64, 127
8, 125400, Note_on_c, 3, 64, 127
8, 125400, Note_off_c, 3, 55, 127
8, 125400, Note_on_c, 3, 55, 127
8, 125520, Note_off_c, 3, 64, 127
8, 125520, Note_on_c, 3, 64, 127
8, 125520, Note_off_c, 3, 55, 127
8, 125520, Note_on_c, 3, 55, 127
8, 125640, Note_off_c, 3, 64, 127
8, 125640, Note_on_c, 3, 64, 127
8, 125640, Note_off_c, 3, 55, 127
8, 125640, Note_on_c, 3, 55, 127
8, 125760, Note_off_c, 3, 64, 127
8, 125760, Note_on_c, 3, 64, 127
8, 125760, Note_off_c, 3, 55, 127
8, 125760, Note_on_c, 3, 55, 127
8, 125880, Note_off_c, 3, 64, 127
8, 125880, Note_on_c, 3, 64, 127
8, 125880, Note_off_c, 3, 55, 127
8, 125880, Note_on_c, 3, 55, 127
8, 126000, Note_off_c, 3, 64, 127
8, 126000, Note_on_c, 3, 64, 127
8, 126000, Note_off_c, 3, 55, 127
8, 126000, Note_on_c, 3, 55, 127
8, 126120, Note_off_c, 3, 64, 127
8, 126120, Note_on_c, 3, 64, 127
8, 126120, Note_off_c, 3, 55, 127
8, 126120, Note_on_c, 3, 55, 127
8, 126240, Note_off_c, 3, 64, 127
8, 126240, Note_on_c, 3, 64, 127
8, 126240, Note_off_c, 3, 55, 127
8, 126240, Note_on_c, 3, 55, 127
8, 126360, Note_off_c, 3, 64, 127
8, 126360, Note_on_c, 3, 64, 127
8, 126360, Note_off_c, 3, 55, 127
8, 126360, Note_on_c, 3, 55, 127
8, 126480, Note_off_c, 3, 64, 127
8, 126480, Note_on_c, 3, 64, 127
8, 126480, Note_off_c, 3, 55, 127
8, 126480, Note_on_c, 3, 55, 127
8, 126600, Note_off_c, 3, 64, 127
8, 126600, Note_on_c, 3, 64, 127
8, 126600, Note_off_c, 3, 55, 127
8, 126600, Note_on_c, 3, 55, 127
8, 126719, Note_off_c, 3, 64, 127
8, 126719, Note_off_c, 3, 55, 127
8, 126720, Note_on_c, 3, 61, 127
8, 126720, Note_on_c, 3, 55, 127
8, 126840, Note_off_c, 3, 61, 127
8, 126840, Note_on_c, 3, 61, 127
8, 126840, Note_off_c, 3, 55, 127
8, 126840, Note_on_c, 3, 55, 127
8, 126960, Note_off_c, 3, 61, 127
8, 126960, Note_on_c, 3, 61, 127
8, 126960, Note_off_c, 3, 55, 127
8, 126960, Note_on_c, 3, 55, 127
8, 127080, Note_off_c, 3, 61, 127
8, 127080, Note_on_c, 3, 61, 127
8, 127080, Note_off_c, 3, 55, 127
8, 127080, Note_on_c, 3, 55, 127
8, 127200, Note_off_c, 3, 61, 127
8, 127200, Note_on_c, 3, 61, 127
8, 127200, Note_off_c, 3, 55, 127
8, 127200, Note_on_c, 3, 55, 127
8, 127320, Note_off_c, 3, 61, 127
8, 127320, Note_on_c, 3, 61, 127
8, 127320, Note_off_c, 3, 55, 127
8, 127320, Note_on_c, 3, 55, 127
8, 127440, Note_off_c, 3, 61, 127
8, 127440, Note_on_c, 3, 61, 127
8, 127440, Note_off_c, 3, 55, 127
8, 127440, Note_on_c, 3, 55, 127
8, 127560, Note_off_c, 3, 61, 127
8, 127560, Note_on_c, 3, 61, 127
8, 127560, Note_off_c, 3, 55, 127
8, 127560, Note_on_c, 3, 55, 127
8, 127680, Note_off_c, 3, 61, 127
8, 127680, Note_on_c, 3, 61, 127
8, 127680, Note_off_c, 3, 55, 127
8, 127680, Note_on_c, 3, 55, 127
8, 127800, Note_off_c, 3, 61, 127
8, 127800, Note_on_c, 3, 61, 127
8, 127800, Note_off_c, 3, 55, 127
8, 127800, Note_on_c, 3, 55, 127
8, 127920, Note_off_c, 3, 61, 127
8, 127920, Note_on_c, 3, 61, 127
8, 127920, Note_off_c, 3, 55, 127
8, 127920, Note_on_c, 3, 55, 127
8, 128040, Note_off_c, 3, 61, 127
8, 128040, Note_on_c, 3, 61, 127
8, 128040, Note_off_c, 3, 55, 127
8, 128040, Note_on_c, 3, 55, 127
8, 128160, Note_off_c, 3, 61, 127
8, 128160, Note_on_c, 3, 61, 127
8, 128160, Note_off_c, 3, 55, 127
8, 128160, Note_on_c, 3, 55, 127
8, 128280, Note_off_c, 3, 61, 127
8, 128280, Note_on_c, 3, 61, 127
8, 128280, Note_off_c, 3, 55, 127
8, 128280, Note_on_c, 3, 55, 127
8, 128400, Note_off_c, 3, 61, 127
8, 128400, Note_on_c, 3, 61, 127
8, 128400, Note_off_c, 3, 55, 127
8, 128400, Note_on_c, 3, 55, 127
8, 128520, Note_off_c, 3, 61, 127
8, 128520, Note_on_c, 3, 61, 127
8, 128520, Note_off_c, 3, 55, 127
8, 128520, Note_on_c, 3, 55, 127
8, 128639, Note_off_c, 3, 61, 127
8, 128639, Note_off_c, 3, 55, 127
8, 138960, Note_on_c, 3, 71, 127
8, 139080, Note_off_c, 3, 71, 127
8, 139080, Note_on_c, 3, 73, 102
8, 139200, Note_off_c, 3, 73, 102
8, 139200, Note_on_c, 3, 74, 102
8, 139680, Note_off_c, 3, 74, 102
8, 139920, Note_on_c, 3, 73, 127
8, 140160, Note_off_c, 3, 73, 127
8, 140160, Note_on_c, 3, 74, 102
8, 140280, Note_off_c, 3, 74, 102
8, 140280, Note_on_c, 3, 74, 102
8, 140400, Note_off_c, 3, 74, 102
8, 140400, Note_on_c, 3, 74, 102
8, 140520, Note_off_c, 3, 74, 102
8, 140520, Note_on_c, 3, 74, 102
8, 140640, Note_off_c, 3, 74, 102
8, 140640, Note_on_c, 3, 74, 102
8, 140760, Note_off_c, 3, 74, 102
8, 140760, Note_on_c, 3, 74, 102
8, 140880, Note_off_c, 3, 74, 102
8, 140880, Note_on_c, 3, 74, 102
8, 141000, Note_off_c, 3, 74, 102
8, 141000, Note_on_c, 3, 74, 102
8, 141119, Note_off_c, 3, 74, 102
8, 141840, Note_on_c, 3, 71, 127
8, 141960, Note_off_c, 3, 71, 127
8, 141960, Note_on_c, 3, 73, 102
8, 142080, Note_off_c, 3, 73, 102
8, 142080, Note_on_c, 3, 74, 102
8, 142560, Note_off_c, 3, 74, 102
8, 142800, Note_on_c, 3, 73, 127
8, 143040, Note_off_c, 3, 73, 127
8, 143040, Note_on_c, 3, 74, 102
8, 143160, Note_off_c, 3, 74, 102
8, 143160, Note_on_c, 3, 74, 102
8, 143280, Note_off_c, 3, 74, 102
8, 143280, Note_on_c, 3, 74, 102
8, 143400, Note_off_c, 3, 74, 102
8, 143400, Note_on_c, 3, 74, 102
8, 143520, Note_off_c, 3, 74, 102
8, 143520, Note_on_c, 3, 74, 102
8, 143640, Note_off_c, 3, 74, 102
8, 143640, Note_on_c, 3, 74, 102
8, 143760, Note_off_c, 3, 74, 102
8, 143760, Note_on_c, 3, 74, 102
8, 143880, Note_off_c, 3, 74, 102
8, 143880, Note_on_c, 3, 74, 102
8, 143999, Note_off_c, 3, 74, 102
8, 144720, Note_on_c, 3, 71, 127
8, 144840, Note_off_c, 3, 71, 127
8, 144840, Note_on_c, 3, 73, 102
8, 144960, Note_off_c, 3, 73, 102
8, 144960, Note_on_c, 3, 74, 102
8, 145440, Note_off_c, 3, 74, 102
8, 145680, Note_on_c, 3, 71, 127
8, 145920, Note_off_c, 3, 71, 127
8, 145920, Note_on_c, 3, 73, 102
8, 146040, Note_off_c, 3, 73, 102
8, 146040, Note_on_c, 3, 73, 102
8, 146160, Note_off_c, 3, 73, 102
8, 146160, Note_on_c, 3, 73, 102
8, 146280, Note_off_c, 3, 73, 102
8, 146280, Note_on_c, 3, 73, 102
8, 146400, Note_off_c, 3, 73, 102
8, 146400, Note_on_c, 3, 73, 102
8, 146520, Note_off_c, 3, 73, 102
8, 146520, Note_on_c, 3, 73, 102
8, 146640, Note_off_c, 3, 73, 102
8, 146640, Note_on_c, 3, 73, 102
8, 146760, Note_off_c, 3, 73, 102
8, 146760, Note_on_c, 3, 73, 102
8, 146879, Note_off_c, 3, 73, 102
8, 147120, Note_on_c, 3, 69, 127
8, 147360, Note_off_c, 3, 69, 127
8, 147360, Note_on_c, 3, 66, 127
8, 147600, Note_off_c, 3, 66, 127
8, 147600, Note_on_c, 3, 69, 127
8, 147840, Note_off_c, 3, 69, 127
8, 147840, Note_on_c, 3, 76, 127
8, 147960, Note_off_c, 3, 76, 127
8, 147960, Note_on_c, 3, 76, 127
8, 148080, Note_off_c, 3, 76, 127
8, 148080, Note_on_c, 3, 76, 127
8, 148200, Note_off_c, 3, 76, 127
8, 148200, Note_on_c, 3, 76, 127
8, 148320, Note_off_c, 3, 76, 127
8, 148320, Note_on_c, 3, 76, 127
8, 148440, Note_off_c, 3, 76, 127
8, 148440, Note_on_c, 3, 76, 127
8, 148559, Note_off_c, 3, 76, 127
8, 148560, Note_on_c, 3, 70, 127
8, 148680, Note_off_c, 3, 70, 127
8, 148680, Note_on_c, 3, 76, 127
8, 148800, Note_off_c, 3, 76, 127
8, 148800, Note_on_c, 3, 73, 127
8, 148920, Note_off_c, 3, 73, 127
8, 148920, Note_on_c, 3, 73, 127
8, 149040, Note_off_c, 3, 73, 127
8, 149040, Note_on_c, 3, 73, 127
8, 149160, Note_off_c, 3, 73, 127
8, 149160, Note_on_c, 3, 73, 127
8, 149280, Note_off_c, 3, 73, 127
8, 149280, Note_on_c, 3, 73, 127
8, 149400, Note_off_c, 3, 73, 127
8, 149400, Note_on_c, 3, 73, 127
8, 149520, Note_off_c, 3, 73, 127
8, 149520, Note_on_c, 3, 73, 127
8, 149640, Note_off_c, 3, 73, 127
8, 149640, Note_on_c, 3, 73, 127
8, 149759, Note_off_c, 3, 73, 127
8, 150480, Note_on_c, 3, 71, 127
8, 150600, Note_off_c, 3, 71, 127
8, 150600, Note_on_c, 3, 73, 102
8, 150720, Note_off_c, 3, 73, 102
8, 150720, Note_on_c, 3, 74, 102
8, 151200, Note_off_c, 3, 74, 102
8, 151440, Note_on_c, 3, 73, 127
8, 151680, Note_off_c, 3, 73, 127
8, 151680, Note_on_c, 3, 74, 102
8, 151800, Note_off_c, 3, 74, 102
8, 151800, Note_on_c, 3, 74, 102
8, 151920, Note_off_c, 3, 74, 102
8, 151920, Note_on_c, 3, 74, 102
8, 152040, Note_off_c, 3, 74, 102
8, 152040, Note_on_c, 3, 74, 102
8, 152160, Note_off_c, 3, 74, 102
8, 152160, Note_on_c, 3, 74, 102
8, 152280, Note_off_c, 3, 74, 102
8, 152280, Note_on_c, 3, 74, 102
8, 152400, Note_off_c, 3, 74, 102
8, 152400, Note_on_c, 3, 74, 102
8, 152520, Note_off_c, 3, 74, 102
8, 152520, Note_on_c, 3, 74, 102
8, 152639, Note_off_c, 3, 74, 102
8, 153360, Note_on_c, 3, 71, 127
8, 153480, Note_off_c, 3, 71, 127
8, 153480, Note_on_c, 3, 73, 102
8, 153600, Note_off_c, 3, 73, 102
8, 153600, Note_on_c, 3, 74, 102
8, 154080, Note_off_c, 3, 74, 102
8, 154320, Note_on_c, 3, 73, 127
8, 154560, Note_off_c, 3, 73, 127
8, 154560, Note_on_c, 3, 74, 102
8, 154680, Note_off_c, 3, 74, 102
8, 154680, Note_on_c, 3, 74, 102
8, 154800, Note_off_c, 3, 74, 102
8, 154800, Note_on_c, 3, 74, 102
8, 154920, Note_off_c, 3, 74, 102
8, 154920, Note_on_c, 3, 74, 102
8, 155040, Note_off_c, 3, 74, 102
8, 155040, Note_on_c, 3, 74, 102
8, 155160, Note_off_c, 3, 74, 102
8, 155160, Note_on_c, 3, 74, 102
8, 155280, Note_off_c, 3, 74, 102
8, 155280, Note_on_c, 3, 74, 102
8, 155400, Note_off_c, 3, 74, 102
8, 155400, Note_on_c, 3, 74, 102
8, 155519, Note_off_c, 3, 74, 102
8, 156240, Note_on_c, 3, 71, 127
8, 156360, Note_off_c, 3, 71, 127
8, 156360, Note_on_c, 3, 73, 102
8, 156480, Note_off_c, 3, 73, 102
8, 156480, Note_on_c, 3, 74, 102
8, 156960, Note_off_c, 3, 74, 102
8, 157200, Note_on_c, 3, 71, 127
8, 157440, Note_off_c, 3, 71, 127
8, 157440, Note_on_c, 3, 73, 102
8, 157560, Note_off_c, 3, 73, 102
8, 157560, Note_on_c, 3, 73, 102
8, 157680, Note_off_c, 3, 73, 102
8, 157680, Note_on_c, 3, 73, 102
8, 157800, Note_off_c, 3, 73, 102
8, 157800, Note_on_c, 3, 73, 102
8, 157920, Note_off_c, 3, 73, 102
8, 157920, Note_on_c, 3, 73, 102
8, 158040, Note_off_c, 3, 73, 102
8, 158040, Note_on_c, 3, 73, 102
8, 158160, Note_off_c, 3, 73, 102
8, 158160, Note_on_c, 3, 73, 102
8, 158280, Note_off_c, 3, 73, 102
8, 158280, Note_on_c, 3, 73, 102
8, 158399, Note_off_c, 3, 73, 102
8, 158640, Note_on_c, 3, 69, 127
8, 158880, Note_off_c, 3, 69, 127
8, 158880, Note_on_c, 3, 66, 127
8, 159120, Note_off_c, 3, 66, 127
8, 159120, Note_on_c, 3, 69, 127
8, 159360, Note_off_c, 3, 69, 127
8, 159360, Note_on_c, 3, 76, 127
8, 159480, Note_off_c, 3, 76, 127
8, 159480, Note_on_c, 3, 76, 127
8, 159600, Note_off_c, 3, 76, 127
8, 159600, Note_on_c, 3, 76, 127
8, 159720, Note_off_c, 3, 76, 127
8, 159720, Note_on_c, 3, 76, 127
8, 159840, Note_off_c, 3, 76, 127
8, 159840, Note_on_c, 3, 76, 127
8, 159960, Note_off_c, 3, 76, 127
8, 159960, Note_on_c, 3, 76, 127
8, 160079, Note_off_c, 3, 76, 127
8, 160080, Note_on_c, 3, 70, 127
8, 160200, Note_off_c, 3, 70, 127
8, 160200, Note_on_c, 3, 76, 127
8, 160320, Note_off_c, 3, 76, 127
8, 160320, Note_on_c, 3, 73, 127
8, 160440, Note_off_c, 3, 73, 127
8, 160440, Note_on_c, 3, 73, 127
8, 160560, Note_off_c, 3, 73, 127
8, 160560, Note_on_c, 3, 73, 127
8, 160680, Note_off_c, 3, 73, 127
8, 160680, Note_on_c, 3, 73, 127
8, 160800, Note_off_c, 3, 73, 127
8, 160800, Note_on_c, 3, 73, 127
8, 160920, Note_off_c, 3, 73, 127
8, 160920, Note_on_c, 3, 73, 127
8, 161040, Note_off_c, 3, 73, 127
8, 161040, Note_on_c, 3, 73, 127
8, 161160, Note_off_c, 3, 73, 127
8, 161160, Note_on_c, 3, 73, 127
8, 161279, Note_off_c, 3, 73, 127
8, 162000, Note_on_c, 3, 71, 127
8, 162120, Note_off_c, 3, 71, 127
8, 162120, Note_on_c, 3, 73, 102
8, 162240, Note_off_c, 3, 73, 102
8, 162240, Note_on_c, 3, 74, 102
8, 162720, Note_off_c, 3, 74, 102
8, 162960, Note_on_c, 3, 73, 127
8, 163200, Note_off_c, 3, 73, 127
8, 163200, Note_on_c, 3, 74, 102
8, 163320, Note_off_c, 3, 74, 102
8, 163320, Note_on_c, 3, 74, 102
8, 163440, Note_off_c, 3, 74, 102
8, 163440, Note_on_c, 3, 74, 102
8, 163560, Note_off_c, 3, 74, 102
8, 163560, Note_on_c, 3, 74, 102
8, 163680, Note_off_c, 3, 74, 102
8, 163680, Note_on_c, 3, 74, 102
8, 163800, Note_off_c, 3, 74, 102
8, 163800, Note_on_c, 3, 74, 102
8, 163920, Note_off_c, 3, 74, 102
8, 163920, Note_on_c, 3, 74, 102
8, 164040, Note_off_c, 3, 74, 102
8, 164040, Note_on_c, 3, 74, 102
8, 164159, Note_off_c, 3, 74, 102
8, 164880, Note_on_c, 3, 71, 127
8, 165000, Note_off_c, 3, 71, 127
8, 165000, Note_on_c, 3, 73, 102
8, 165120, Note_off_c, 3, 73, 102
8, 165120, Note_on_c, 3, 74, 102
8, 165600, Note_off_c, 3, 74, 102
8, 165840, Note_on_c, 3, 73, 127
8, 166080, Note_off_c, 3, 73, 127
8, 166080, Note_on_c, 3, 74, 102
8, 166200, Note_off_c, 3, 74, 102
8, 166200, Note_on_c, 3, 74, 102
8, 166320, Note_off_c, 3, 74, 102
8, 166320, Note_on_c, 3, 74, 102
8, 166440, Note_off_c, 3, 74, 102
8, 166440, Note_on_c, 3, 74, 102
8, 166560, Note_off_c, 3, 74, 102
8, 166560, Note_on_c, 3, 74, 102
8, 166680, Note_off_c, 3, 74, 102
8, 166680, Note_on_c, 3, 74, 102
8, 166800, Note_off_c, 3, 74, 102
8, 166800, Note_on_c, 3, 74, 102
8, 166920, Note_off_c, 3, 74, 102
8, 166920, Note_on_c, 3, 74, 102
8, 167039, Note_off_c, 3, 74, 102
8, 167760, Note_on_c, 3, 71, 127
8, 167880, Note_off_c, 3, 71, 127
8, 167880, Note_on_c, 3, 73, 102
8, 168000, Note_off_c, 3, 73, 102
8, 168000, Note_on_c, 3, 74, 102
8, 168480, Note_off_c, 3, 74, 102
8, 168720, Note_on_c, 3, 71, 127
8, 168960, Note_off_c, 3, 71, 127
8, 168960, Note_on_c, 3, 73, 102
8, 169080, Note_off_c, 3, 73, 102
8, 169080, Note_on_c, 3, 73, 102
8, 169200, Note_off_c, 3, 73, 102
8, 169200, Note_on_c, 3, 73, 102
8, 169320, Note_off_c, 3, 73, 102
8, 169320, Note_on_c, 3, 73, 102
8, 169440, Note_off_c, 3, 73, 102
8, 169440, Note_on_c, 3, 73, 102
8, 169560, Note_off_c, 3, 73, 102
8, 169560, Note_on_c, 3, 73, 102
8, 169680, Note_off_c, 3, 73, 102
8, 169680, Note_on_c, 3, 73, 102
8, 169800, Note_off_c, 3, 73, 102
8, 169800, Note_on_c, 3, 73, 102
8, 169919, Note_off_c, 3, 73, 102
8, 170160, Note_on_c, 3, 69, 127
8, 170400, Note_off_c, 3, 69, 127
8, 170400, Note_on_c, 3, 66, 127
8, 170640, Note_off_c, 3, 66, 127
8, 170640, Note_on_c, 3, 69, 127
8, 170880, Note_off_c, 3, 69, 127
8, 170880, Note_on_c, 3, 76, 127
8, 171000, Note_off_c, 3, 76, 127
8, 171000, Note_on_c, 3, 76, 127
8, 171120, Note_off_c, 3, 76, 127
8, 171120, Note_on_c, 3, 76, 127
8, 171240, Note_off_c, 3, 76, 127
8, 171240, Note_on_c, 3, 76, 127
8, 171360, Note_off_c, 3, 76, 127
8, 171360, Note_on_c, 3, 76, 127
8, 171480, Note_off_c, 3, 76, 127
8, 171480, Note_on_c, 3, 76, 127
8, 171599, Note_off_c, 3, 76, 127
8, 171600, Note_on_c, 3, 70, 127
8, 171720, Note_off_c, 3, 70, 127
8, 171720, Note_on_c, 3, 76, 127
8, 171840, Note_off_c, 3, 76, 127
8, 171840, Note_on_c, 3, 73, 127
8, 171960, Note_off_c, 3, 73, 127
8, 171960, Note_on_c, 3, 73, 127
8, 172080, Note_off_c, 3, 73, 127
8, 172080, Note_on_c, 3, 73, 127
8, 172200, Note_off_c, 3, 73, 127
8, 172200, Note_on_c, 3, 73, 127
8, 172320, Note_off_c, 3, 73, 127
8, 172320, Note_on_c, 3, 73, 127
8, 172440, Note_off_c, 3, 73, 127
8, 172440, Note_on_c, 3, 73, 127
8, 172560, Note_off_c, 3, 73, 127
8, 172560, Note_on_c, 3, 73, 127
8, 172680, Note_off_c, 3, 73, 127
8, 172680, Note_on_c, 3, 73, 127
8, 172799, Note_off_c, 3, 73, 127
8, 173520, Note_on_c, 3, 71, 127
8, 173640, Note_off_c, 3, 71, 127
8, 173640, Note_on_c, 3, 73, 102
8, 173760, Note_off_c, 3, 73, 102
8, 173760, Note_on_c, 3, 74, 102
8, 174240, Note_off_c, 3, 74, 102
8, 174480, Note_on_c, 3, 73, 127
8, 174720, Note_off_c, 3, 73, 127
8, 174720, Note_on_c, 3, 74, 102
8, 174840, Note_off_c, 3, 74, 102
8, 174840, Note_on_c, 3, 74, 102
8, 174960, Note_off_c, 3, 74, 102
8, 174960, Note_on_c, 3, 74, 102
8, 175080, Note_off_c, 3, 74, 102
8, 175080, Note_on_c, 3, 74, 102
8, 175200, Note_off_c, 3, 74, 102
8, 175200, Note_on_c, 3, 74, 102
8, 175320, Note_off_c, 3, 74, 102
8, 175320, Note_on_c, 3, 74, 102
8, 175440, Note_off_c, 3, 74, 102
8, 175440, Note_on_c, 3, 74, 102
8, 175560, Note_off_c, 3, 74, 102
8, 175560, Note_on_c, 3, 74, 102
8, 175679, Note_off_c, 3, 74, 102
8, 176400, Note_on_c, 3, 71, 127
8, 176520, Note_off_c, 3, 71, 127
8, 176520, Note_on_c, 3, 73, 102
8, 176640, Note_off_c, 3, 73, 102
8, 176640, Note_on_c, 3, 74, 102
8, 177120, Note_off_c, 3, 74, 102
8, 177360, Note_on_c, 3, 73, 127
8, 177600, Note_off_c, 3, 73, 127
8, 177600, Note_on_c, 3, 74, 102
8, 177720, Note_off_c, 3, 74, 102
8, 177720, Note_on_c, 3, 74, 102
8, 177840, Note_off_c, 3, 74, 102
8, 177840, Note_on_c, 3, 74, 102
8, 177960, Note_off_c, 3, 74, 102
8, 177960, Note_on_c, 3, 74, 102
8, 178080, Note_off_c, 3, 74, 102
8, 178080, Note_on_c, 3, 74, 102
8, 178200, Note_off_c, 3, 74, 102
8, 178200, Note_on_c, 3, 74, 102
8, 178320, Note_off_c, 3, 74, 102
8, 178320, Note_on_c, 3, 74, 102
8, 178440, Note_off_c, 3, 74, 102
8, 178440, Note_on_c, 3, 74, 102
8, 178559, Note_off_c, 3, 74, 102
8, 179280, Note_on_c, 3, 71, 127
8, 179400, Note_off_c, 3, 71, 127
8, 179400, Note_on_c, 3, 73, 102
8, 179520, Note_off_c, 3, 73, 102
8, 179520, Note_on_c, 3, 74, 102
8, 180000, Note_off_c, 3, 74, 102
8, 180240, Note_on_c, 3, 71, 127
8, 180480, Note_off_c, 3, 71, 127
8, 180480, Note_on_c, 3, 73, 102
8, 180600, Note_off_c, 3, 73, 102
8, 180600, Note_on_c, 3, 73, 102
8, 180720, Note_off_c, 3, 73, 102
8, 180720, Note_on_c, 3, 73, 102
8, 180840, Note_off_c, 3, 73, 102
8, 180840, Note_on_c, 3, 73, 102
8, 180960, Note_off_c, 3, 73, 102
8, 180960, Note_on_c, 3, 73, 102
8, 181080, Note_off_c, 3, 73, 102
8, 181080, Note_on_c, 3, 73, 102
8, 181200, Note_off_c, 3, 73, 102
8, 181200, Note_on_c, 3, 73, 102
8, 181320, Note_off_c, 3, 73, 102
8, 181320, Note_on_c, 3, 73, 102
8, 181439, Note_off_c, 3, 73, 102
8, 181680, Note_on_c, 3, 69, 127
8, 181920, Note_off_c, 3, 69, 127
8, 181920, Note_on_c, 3, 66, 127
8, 182160, Note_off_c, 3, 66, 127
8, 182160, Note_on_c, 3, 69, 127
8, 182400, Note_off_c, 3, 69, 127
8, 182400, Note_on_c, 3, 76, 127
8, 182520, Note_off_c, 3, 76, 127
8, 182520, Note_on_c, 3, 76, 127
8, 182640, Note_off_c, 3, 76, 127
8, 182640, Note_on_c, 3, 76, 127
8, 182760, Note_off_c, 3, 76, 127
8, 182760, Note_on_c, 3, 76, 127
8, 182880, Note_off_c, 3, 76, 127
8, 182880, Note_on_c, 3, 76, 127
8, 183000, Note_off_c, 3, 76, 127
8, 183000, Note_on_c, 3, 76, 127
8, 183119, Note_off_c, 3, 76, 127
8, 183120, Note_on_c, 3, 70, 127
8, 183240, Note_off_c, 3, 70, 127
8, 183240, Note_on_c, 3, 76, 127
8, 183360, Note_off_c, 3, 76, 127
8, 183360, Note_on_c, 3, 73, 127
8, 183480, Note_off_c, 3, 73, 127
8, 183480, Note_on_c, 3, 73, 127
8, 183600, Note_off_c, 3, 73, 127
8, 183600, Note_on_c, 3, 73, 127
8, 183720, Note_off_c, 3, 73, 127
8, 183720, Note_on_c, 3, 73, 127
8, 183840, Note_off_c, 3, 73, 127
8, 183840, Note_on_c, 3, 73, 127
8, 183960, Note_off_c, 3, 73, 127
8, 183960, Note_on_c, 3, 73, 127
8, 184080, Note_off_c, 3, 73, 127
8, 184080, Note_on_c, 3, 73, 127
8, 184200, Note_off_c, 3, 73, 127
8, 184200, Note_on_c, 3, 73, 127
8, 184319, Note_off_c, 3, 73, 127
8, 184320, Note_on_c, 3, 74, 127
8, 184320, Note_on_c, 3, 68, 127
8, 184320, Note_on_c, 3, 56, 127
8, 188160, Note_off_c, 3, 74, 127
8, 188160, Note_off_c, 3, 68, 127
8, 188160, Note_off_c, 3, 56, 127
8, 215040, Note_on_c, 3, 56, 127
8, 215280, Note_off_c, 3, 56, 127
8, 215280, Note_on_c, 3, 62, 127
8, 215520, Note_off_c, 3, 62, 127
8, 215520, Note_on_c, 3, 67, 127
8, 215760, Note_off_c, 3, 67, 127
8, 215760, Note_on_c, 3, 56, 127
8, 216000, Note_off_c, 3, 56, 127
8, 216000, Note_on_c, 3, 72, 127
8, 216240, Note_off_c, 3, 72, 127
8, 216240, Note_on_c, 3, 74, 127
8, 216480, Note_off_c, 3, 74, 127
8, 216480, Note_on_c, 3, 79, 127
8, 216720, Note_off_c, 3, 79, 127
8, 216720, Note_on_c, 3, 68, 127
8, 216960, Note_off_c, 3, 68, 127
8, 216960, Note_on_c, 3, 84, 127
8, 217200, Note_off_c, 3, 84, 127
8, 217200, Note_on_c, 3, 68, 127
8, 217440, Note_off_c, 3, 68, 127
8, 217440, Note_on_c, 3, 79, 127
8, 217680, Note_off_c, 3, 79, 127
8, 217680, Note_on_c, 3, 74, 127
8, 217920, Note_off_c, 3, 74, 127
8, 217920, Note_on_c, 3, 72, 127
8, 218160, Note_off_c, 3, 72, 127
8, 218160, Note_on_c, 3, 56, 127
8, 218400, Note_off_c, 3, 56, 127
8, 218400, Note_on_c, 3, 67, 127
8, 218640, Note_off_c, 3, 67, 127
8, 218640, Note_on_c, 3, 62, 127
8, 218880, Note_off_c, 3, 62, 127
8, 218880, Note_on_c, 3, 56, 127
8, 219120, Note_off_c, 3, 56, 127
8, 219120, Note_on_c, 3, 62, 127
8, 219360, Note_off_c, 3, 62, 127
8, 219360, Note_on_c, 3, 67, 127
8, 219600, Note_off_c, 3, 67, 127
8, 219600, Note_on_c, 3, 56, 127
8, 219840, Note_off_c, 3, 56, 127
8, 219840, Note_on_c, 3, 72, 127
8, 220080, Note_off_c, 3, 72, 127
8, 220080, Note_on_c, 3, 74, 127
8, 220320, Note_off_c, 3, 74, 127
8, 220320, Note_on_c, 3, 79, 127
8, 220560, Note_off_c, 3, 79, 127
8, 220560, Note_on_c, 3, 68, 127
8, 220800, Note_off_c, 3, 68, 127
8, 220800, Note_on_c, 3, 84, 127
8, 221040, Note_off_c, 3, 84, 127
8, 221040, Note_on_c, 3, 68, 127
8, 221280, Note_off_c, 3, 68, 127
8, 221280, Note_on_c, 3, 79, 127
8, 221520, Note_off_c, 3, 79, 127
8, 221520, Note_on_c, 3, 74, 127
8, 221760, Note_off_c, 3, 74, 127
8, 221760, Note_on_c, 3, 72, 127
8, 222000, Note_off_c, 3, 72, 127
8, 222000, Note_on_c, 3, 56, 127
8, 222240, Note_off_c, 3, 56, 127
8, 222240, Note_on_c, 3, 67, 127
8, 222480, Note_off_c, 3, 67, 127
8, 222480, Note_on_c, 3, 62, 127
8, 222720, Note_off_c, 3, 62, 127
8, 222720, Note_on_c, 3, 53, 127
8, 222960, Note_off_c, 3, 53, 127
8, 222960, Note_on_c, 3, 60, 127
8, 223200, Note_off_c, 3, 60, 127
8, 223200, Note_on_c, 3, 62, 127
8, 223440, Note_off_c, 3, 62, 127
8, 223440, Note_on_c, 3, 63, 127
8, 223680, Note_off_c, 3, 63, 127
8, 223680, Note_on_c, 3, 53, 127
8, 223920, Note_off_c, 3, 53, 127
8, 223920, Note_on_c, 3, 72, 127
8, 224160, Note_off_c, 3, 72, 127
8, 224160, Note_on_c, 3, 74, 127
8, 224400, Note_off_c, 3, 74, 127
8, 224400, Note_on_c, 3, 75, 127
8, 224640, Note_off_c, 3, 75, 127
8, 224640, Note_on_c, 3, 65, 127
8, 224880, Note_off_c, 3, 65, 127
8, 224880, Note_on_c, 3, 84, 127
8, 225120, Note_off_c, 3, 84, 127
8, 225120, Note_on_c, 3, 65, 127
8, 225360, Note_off_c, 3, 65, 127
8, 225360, Note_on_c, 3, 75, 127
8, 225600, Note_off_c, 3, 75, 127
8, 225600, Note_on_c, 3, 74, 127
8, 225840, Note_off_c, 3, 74, 127
8, 225840, Note_on_c, 3, 72, 127
8, 226080, Note_off_c, 3, 72, 127
8, 226080, Note_on_c, 3, 53, 127
8, 226320, Note_off_c, 3, 53, 127
8, 226320, Note_on_c, 3, 63, 127
8, 226560, Note_off_c, 3, 63, 127
8, 226560, Note_on_c, 3, 62, 127
8, 226800, Note_off_c, 3, 62, 127
8, 226800, Note_on_c, 3, 60, 127
8, 227040, Note_off_c, 3, 60, 127
8, 227040, Note_on_c, 3, 53, 127
8, 227280, Note_off_c, 3, 53, 127
8, 227280, Note_on_c, 3, 60, 127
8, 227520, Note_off_c, 3, 60, 127
8, 227520, Note_on_c, 3, 62, 127
8, 227760, Note_off_c, 3, 62, 127
8, 227760, Note_on_c, 3, 63, 127
8, 228000, Note_off_c, 3, 63, 127
8, 228000, Note_on_c, 3, 53, 127
8, 228240, Note_off_c, 3, 53, 127
8, 228240, Note_on_c, 3, 72, 127
8, 228480, Note_off_c, 3, 72, 127
8, 228480, Note_on_c, 3, 74, 127
8, 228720, Note_off_c, 3, 74, 127
8, 228720, Note_on_c, 3, 75, 127
8, 228960, Note_off_c, 3, 75, 127
8, 228960, Note_on_c, 3, 65, 127
8, 229200, Note_off_c, 3, 65, 127
8, 229200, Note_on_c, 3, 84, 127
8, 229440, Note_off_c, 3, 84, 127
8, 229440, Note_on_c, 3, 65, 127
8, 229680, Note_off_c, 3, 65, 127
8, 229680, Note_on_c, 3, 75, 127
8, 229920, Note_off_c, 3, 75, 127
8, 229920, Note_on_c, 3, 74, 127
8, 230160, Note_off_c, 3, 74, 127
8, 230160, Note_on_c, 3, 72, 127
8, 230400, Note_off_c, 3, 72, 127
8, 230400, Note_on_c, 3, 56, 127
8, 230640, Note_off_c, 3, 56, 127
8, 230640, Note_on_c, 3, 62, 127
8, 230880, Note_off_c, 3, 62, 127
8, 230880, Note_on_c, 3, 67, 127
8, 231120, Note_off_c, 3, 67, 127
8, 231120, Note_on_c, 3, 56, 127
8, 231360, Note_off_c, 3, 56, 127
8, 231360, Note_on_c, 3, 72, 127
8, 231600, Note_off_c, 3, 72, 127
8, 231600, Note_on_c, 3, 74, 127
8, 231840, Note_off_c, 3, 74, 127
8, 231840, Note_on_c, 3, 79, 127
8, 232080, Note_off_c, 3, 79, 127
8, 232080, Note_on_c, 3, 68, 127
8, 232320, Note_off_c, 3, 68, 127
8, 232320, Note_on_c, 3, 84, 127
8, 232560, Note_off_c, 3, 84, 127
8, 232560, Note_on_c, 3, 68, 127
8, 232800, Note_off_c, 3, 68, 127
8, 232800, Note_on_c, 3, 79, 127
8, 233040, Note_off_c, 3, 79, 127
8, 233040, Note_on_c, 3, 74, 127
8, 233280, Note_off_c, 3, 74, 127
8, 233280, Note_on_c, 3, 72, 127
8, 233520, Note_off_c, 3, 72, 127
8, 233520, Note_on_c, 3, 56, 127
8, 233760, Note_off_c, 3, 56, 127
8, 233760, Note_on_c, 3, 67, 127
8, 234000, Note_off_c, 3, 67, 127
8, 234000, Note_on_c, 3, 62, 127
8, 234240, Note_off_c, 3, 62, 127
8, 234240, Note_on_c, 3, 56, 127
8, 234480, Note_off_c, 3, 56, 127
8, 234480, Note_on_c, 3, 62, 127
8, 234720, Note_off_c, 3, 62, 127
8, 234720, Note_on_c, 3, 67, 127
8, 234960, Note_off_c, 3, 67, 127
8, 234960, Note_on_c, 3, 56, 127
8, 235200, Note_off_c, 3, 56, 127
8, 235200, Note_on_c, 3, 72, 127
8, 235440, Note_off_c, 3, 72, 127
8, 235440, Note_on_c, 3, 74, 127
8, 235680, Note_off_c, 3, 74, 127
8, 235680, Note_on_c, 3, 79, 127
8, 235920, Note_off_c, 3, 79, 127
8, 235920, Note_on_c, 3, 68, 127
8, 236160, Note_off_c, 3, 68, 127
8, 236160, Note_on_c, 3, 84, 127
8, 236400, Note_off_c, 3, 84, 127
8, 236400, Note_on_c, 3, 68, 127
8, 236640, Note_off_c, 3, 68, 127
8, 236640, Note_on_c, 3, 79, 127
8, 236880, Note_off_c, 3, 79, 127
8, 236880, Note_on_c, 3, 74, 127
8, 237120, Note_off_c, 3, 74, 127
8, 237120, Note_on_c, 3, 72, 127
8, 237360, Note_off_c, 3, 72, 127
8, 237360, Note_on_c, 3, 56, 127
8, 237600, Note_off_c, 3, 56, 127
8, 237600, Note_on_c, 3, 67, 127
8, 237840, Note_off_c, 3, 67, 127
8, 237840, Note_on_c, 3, 62, 127
8, 238080, Note_off_c, 3, 62, 127
8, 238080, Note_on_c, 3, 53, 127
8, 238320, Note_off_c, 3, 53, 127
8, 238320, Note_on_c, 3, 60, 127
8, 238560, Note_off_c, 3, 60, 127
8, 238560, Note_on_c, 3, 62, 127
8, 238800, Note_off_c, 3, 62, 127
8, 238800, Note_on_c, 3, 63, 127
8, 239040, Note_off_c, 3, 63, 127
8, 239040, Note_on_c, 3, 53, 127
8, 239280, Note_off_c, 3, 53, 127
8, 239280, Note_on_c, 3, 72, 127
8, 239520, Note_off_c, 3, 72, 127
8, 239520, Note_on_c, 3, 74, 127
8, 239760, Note_off_c, 3, 74, 127
8, 239760, Note_on_c, 3, 75, 127
8, 240000, Note_off_c, 3, 75, 127
8, 240000, Note_on_c, 3, 65, 127
8, 240240, Note_off_c, 3, 65, 127
8, 240240, Note_on_c, 3, 84, 127
8, 240480, Note_off_c, 3, 84, 127
8, 240480, Note_on_c, 3, 65, 127
8, 240720, Note_off_c, 3, 65, 127
8, 240720, Note_on_c, 3, 75, 127
8, 240960, Note_off_c, 3, 75, 127
8, 240960, Note_on_c, 3, 74, 127
8, 241200, Note_off_c, 3, 74, 127
8, 241200, Note_on_c, 3, 72, 127
8, 241440, Note_off_c, 3, 72, 127
8, 241440, Note_on_c, 3, 53, 127
8, 241680, Note_off_c, 3, 53, 127
8, 241680, Note_on_c, 3, 63, 127
8, 241920, Note_off_c, 3, 63, 127
8, 241920, Note_on_c, 3, 62, 127
8, 242160, Note_off_c, 3, 62, 127
8, 242160, Note_on_c, 3, 60, 127
8, 242400, Note_off_c, 3, 60, 127
8, 242400, Note_on_c, 3, 53, 127
8, 242640, Note_off_c, 3, 53, 127
8, 242640, Note_on_c, 3, 60, 127
8, 242880, Note_off_c, 3, 60, 127
8, 242880, Note_on_c, 3, 62, 127
8, 243120, Note_off_c, 3, 62, 127
8, 243120, Note_on_c, 3, 63, 127
8, 243360, Note_off_c, 3, 63, 127
8, 243360, Note_on_c, 3, 53, 127
8, 243600, Note_off_c, 3, 53, 127
8, 243600, Note_on_c, 3, 72, 127
8, 243840, Note_off_c, 3, 72, 127
8, 243840, Note_on_c, 3, 74, 127
8, 244080, Note_off_c, 3, 74, 127
8, 244080, Note_on_c, 3, 75, 127
8, 244320, Note_off_c, 3, 75, 127
8, 244320, Note_on_c, 3, 65, 127
8, 244560, Note_off_c, 3, 65, 127
8, 244560, Note_on_c, 3, 84, 127
8, 244800, Note_off_c, 3, 84, 127
8, 244800, Note_on_c, 3, 65, 127
8, 245040, Note_off_c, 3, 65, 127
8, 245040, Note_on_c, 3, 75, 127
8, 245280, Note_off_c, 3, 75, 127
8, 245280, Note_on_c, 3, 74, 127
8, 245520, Note_off_c, 3, 74, 127
8, 245520, Note_on_c, 3, 72, 127
8, 245760, Note_off_c, 3, 72, 127
8, 245760, Note_on_c, 3, 56, 127
8, 246000, Note_off_c, 3, 56, 127
8, 246000, Note_on_c, 3, 62, 127
8, 246240, Note_off_c, 3, 62, 127
8, 246240, Note_on_c, 3, 67, 127
8, 246480, Note_off_c, 3, 67, 127
8, 246480, Note_on_c, 3, 56, 127
8, 246720, Note_off_c, 3, 56, 127
8, 246720, Note_on_c, 3, 72, 127
8, 246960, Note_off_c, 3, 72, 127
8, 246960, Note_on_c, 3, 74, 127
8, 247200, Note_off_c, 3, 74, 127
8, 247200, Note_on_c, 3, 79, 127
8, 247440, Note_off_c, 3, 79, 127
8, 247440, Note_on_c, 3, 68, 127
8, 247680, Note_off_c, 3, 68, 127
8, 247680, Note_on_c, 3, 84, 127
8, 247920, Note_off_c, 3, 84, 127
8, 247920, Note_on_c, 3, 68, 127
8, 248160, Note_off_c, 3, 68, 127
8, 248160, Note_on_c, 3, 79, 127
8, 248400, Note_off_c, 3, 79, 127
8, 248400, Note_on_c, 3, 74, 127
8, 248640, Note_off_c, 3, 74, 127
8, 248640, Note_on_c, 3, 72, 127
8, 248880, Note_off_c, 3, 72, 127
8, 248880, Note_on_c, 3, 56, 127
8, 249120, Note_off_c, 3, 56, 127
8, 249120, Note_on_c, 3, 67, 127
8, 249360, Note_off_c, 3, 67, 127
8, 249360, Note_on_c, 3, 62, 127
8, 249600, Note_off_c, 3, 62, 127
8, 249600, Note_on_c, 3, 56, 127
8, 249840, Note_off_c, 3, 56, 127
8, 249840, Note_on_c, 3, 62, 127
8, 250080, Note_off_c, 3, 62, 127
8, 250080, Note_on_c, 3, 67, 127
8, 250320, Note_off_c, 3, 67, 127
8, 250320, Note_on_c, 3, 56, 127
8, 250560, Note_off_c, 3, 56, 127
8, 250560, Note_on_c, 3, 72, 127
8, 250800, Note_off_c, 3, 72, 127
8, 250800, Note_on_c, 3, 74, 127
8, 251040, Note_off_c, 3, 74, 127
8, 251040, Note_on_c, 3, 79, 127
8, 251280, Note_off_c, 3, 79, 127
8, 251280, Note_on_c, 3, 68, 127
8, 251520, Note_off_c, 3, 68, 127
8, 251520, Note_on_c, 3, 84, 127
8, 251760, Note_off_c, 3, 84, 127
8, 251760, Note_on_c, 3, 68, 127
8, 252000, Note_off_c, 3, 68, 127
8, 252000, Note_on_c, 3, 79, 127
8, 252240, Note_off_c, 3, 79, 127
8, 252240, Note_on_c, 3, 74, 127
8, 252480, Note_off_c, 3, 74, 127
8, 252480, Note_on_c, 3, 72, 127
8, 252720, Note_off_c, 3, 72, 127
8, 252720, Note_on_c, 3, 56, 127
8, 252960, Note_off_c, 3, 56, 127
8, 252960, Note_on_c, 3, 67, 127
8, 253200, Note_off_c, 3, 67, 127
8, 253200, Note_on_c, 3, 62, 127
8, 253440, Note_off_c, 3, 62, 127
8, 253440, Note_on_c, 3, 53, 127
8, 253680, Note_off_c, 3, 53, 127
8, 253680, Note_on_c, 3, 60, 127
8, 253920, Note_off_c, 3, 60, 127
8, 253920, Note_on_c, 3, 62, 127
8, 254160, Note_off_c, 3, 62, 127
8, 254160, Note_on_c, 3, 63, 127
8, 254400, Note_off_c, 3, 63, 127
8, 254400, Note_on_c, 3, 53, 127
8, 254640, Note_off_c, 3, 53, 127
8, 254640, Note_on_c, 3, 72, 127
8, 254880, Note_off_c, 3, 72, 127
8, 254880, Note_on_c, 3, 74, 127
8, 255120, Note_off_c, 3, 74, 127
8, 255120, Note_on_c, 3, 75, 127
8, 255360, Note_off_c, 3, 75, 127
8, 255360, Note_on_c, 3, 65, 127
8, 255600, Note_off_c, 3, 65, 127
8, 255600, Note_on_c, 3, 84, 127
8, 255840, Note_off_c, 3, 84, 127
8, 255840, Note_on_c, 3, 65, 127
8, 256080, Note_off_c, 3, 65, 127
8, 256080, Note_on_c, 3, 75, 127
8, 256320, Note_off_c, 3, 75, 127
8, 256320, Note_on_c, 3, 74, 127
8, 256560, Note_off_c, 3, 74, 127
8, 256560, Note_on_c, 3, 72, 127
8, 256800, Note_off_c, 3, 72, 127
8, 256800, Note_on_c, 3, 53, 127
8, 257040, Note_off_c, 3, 53, 127
8, 257040, Note_on_c, 3, 63, 127
8, 257280, Note_off_c, 3, 63, 127
8, 257280, Note_on_c, 3, 62, 127
8, 257520, Note_off_c, 3, 62, 127
8, 257520, Note_on_c, 3, 60, 127
8, 257760, Note_off_c, 3, 60, 127
8, 257760, Note_on_c, 3, 53, 127
8, 258000, Note_off_c, 3, 53, 127
8, 258000, Note_on_c, 3, 60, 127
8, 258240, Note_off_c, 3, 60, 127
8, 258240, Note_on_c, 3, 62, 127
8, 258480, Note_off_c, 3, 62, 127
8, 258480, Note_on_c, 3, 63, 127
8, 258720, Note_off_c, 3, 63, 127
8, 258720, Note_on_c, 3, 53, 127
8, 258960, Note_off_c, 3, 53, 127
8, 258960, Note_on_c, 3, 72, 127
8, 259200, Note_off_c, 3, 72, 127
8, 259200, Note_on_c, 3, 74, 127
8, 259440, Note_off_c, 3, 74, 127
8, 259440, Note_on_c, 3, 75, 127
8, 259680, Note_off_c, 3, 75, 127
8, 259680, Note_on_c, 3, 65, 127
8, 259920, Note_off_c, 3, 65, 127
8, 259920, Note_on_c, 3, 84, 127
8, 260160, Note_off_c, 3, 84, 127
8, 260160, Note_on_c, 3, 65, 127
8, 260400, Note_off_c, 3, 65, 127
8, 260400, Note_on_c, 3, 75, 127
8, 260640, Note_off_c, 3, 75, 127
8, 260640, Note_on_c, 3, 74, 127
8, 260880, Note_off_c, 3, 74, 127
8, 260880, Note_on_c, 3, 72, 127
8, 261120, Note_off_c, 3, 72, 127
8, 261120, Note_on_c, 3, 56, 127
8, 261360, Note_off_c, 3, 56, 127
8, 261360, Note_on_c, 3, 62, 127
8, 261600, Note_off_c, 3, 62, 127
8, 261600, Note_on_c, 3, 67, 127
8, 261840, Note_off_c, 3, 67, 127
8, 261840, Note_on_c, 3, 56, 127
8, 262080, Note_off_c, 3, 56, 127
8, 262080, Note_on_c, 3, 72, 127
8, 262320, Note_off_c, 3, 72, 127
8, 262320, Note_on_c, 3, 74, 127
8, 262560, Note_off_c, 3, 74, 127
8, 262560, Note_on_c, 3, 79, 127
8, 262800, Note_off_c, 3, 79, 127
8, 262800, Note_on_c, 3, 68, 127
8, 263040, Note_off_c, 3, 68, 127
8, 263040, Note_on_c, 3, 84, 127
8, 263280, Note_off_c, 3, 84, 127
8, 263280, Note_on_c, 3, 68, 127
8, 263520, Note_off_c, 3, 68, 127
8, 263520, Note_on_c, 3, 79, 127
8, 263760, Note_off_c, 3, 79, 127
8, 263760, Note_on_c, 3, 74, 127
8, 264000, Note_off_c, 3, 74, 127
8, 264000, Note_on_c, 3, 72, 127
8, 264240, Note_off_c, 3, 72, 127
8, 264240, Note_on_c, 3, 56, 127
8, 264480, Note_off_c, 3, 56, 127
8, 264480, Note_on_c, 3, 67, 127
8, 264720, Note_off_c, 3, 67, 127
8, 264720, Note_on_c, 3, 62, 127
8, 264960, Note_off_c, 3, 62, 127
8, 264960, Note_on_c, 3, 56, 127
8, 265200, Note_off_c, 3, 56, 127
8, 265200, Note_on_c, 3, 62, 127
8, 265440, Note_off_c, 3, 62, 127
8, 265440, Note_on_c, 3, 67, 127
8, 265680, Note_off_c, 3, 67, 127
8, 265680, Note_on_c, 3, 56, 127
8, 265920, Note_off_c, 3, 56, 127
8, 265920, Note_on_c, 3, 72, 127
8, 266160, Note_off_c, 3, 72, 127
8, 266160, Note_on_c, 3, 74, 127
8, 266400, Note_off_c, 3, 74, 127
8, 266400, Note_on_c, 3, 79, 127
8, 266640, Note_off_c, 3, 79, 127
8, 266640, Note_on_c, 3, 68, 127
8, 266880, Note_off_c, 3, 68, 127
8, 266880, Note_on_c, 3, 84, 127
8, 267120, Note_off_c, 3, 84, 127
8, 267120, Note_on_c, 3, 68, 127
8, 267360, Note_off_c, 3, 68, 127
8, 267360, Note_on_c, 3, 79, 127
8, 267600, Note_off_c, 3, 79, 127
8, 267600, Note_on_c, 3, 74, 127
8, 267840, Note_off_c, 3, 74, 127
8, 267840, Note_on_c, 3, 72, 127
8, 268080, Note_off_c, 3, 72, 127
8, 268080, Note_on_c, 3, 56, 127
8, 268320, Note_off_c, 3, 56, 127
8, 268320, Note_on_c, 3, 67, 127
8, 268560, Note_off_c, 3, 67, 127
8, 268560, Note_on_c, 3, 62, 127
8, 268800, Note_off_c, 3, 62, 127
8, 268800, Note_on_c, 3, 53, 127
8, 269040, Note_off_c, 3, 53, 127
8, 269040, Note_on_c, 3, 60, 127
8, 269280, Note_off_c, 3, 60, 127
8, 269280, Note_on_c, 3, 62, 127
8, 269520, Note_off_c, 3, 62, 127
8, 269520, Note_on_c, 3, 63, 127
8, 269760, Note_off_c, 3, 63, 127
8, 269760, Note_on_c, 3, 53, 127
8, 270000, Note_off_c, 3, 53, 127
8, 270000, Note_on_c, 3, 72, 127
8, 270240, Note_off_c, 3, 72, 127
8, 270240, Note_on_c, 3, 74, 127
8, 270480, Note_off_c, 3, 74, 127
8, 270480, Note_on_c, 3, 75, 127
8, 270720, Note_off_c, 3, 75, 127
8, 270720, Note_on_c, 3, 65, 127
8, 270960, Note_off_c, 3, 65, 127
8, 270960, Note_on_c, 3, 84, 127
8, 271200, Note_off_c, 3, 84, 127
8, 271200, Note_on_c, 3, 65, 127
8, 271440, Note_off_c, 3, 65, 127
8, 271440, Note_on_c, 3, 75, 127
8, 271680, Note_off_c, 3, 75, 127
8, 271680, Note_on_c, 3, 74, 127
8, 271920, Note_off_c, 3, 74, 127
8, 271920, Note_on_c, 3, 72, 127
8, 272160, Note_off_c, 3, 72, 127
8, 272160, Note_on_c, 3, 53, 127
8, 272400, Note_off_c, 3, 53, 127
8, 272400, Note_on_c, 3, 63, 127
8, 272640, Note_off_c, 3, 63, 127
8, 272640, Note_on_c, 3, 62, 127
8, 272880, Note_off_c, 3, 62, 127
8, 272880, Note_on_c, 3, 60, 127
8, 273120, Note_off_c, 3, 60, 127
8, 273120, Note_on_c, 3, 53, 127
8, 273360, Note_off_c, 3, 53, 127
8, 273360, Note_on_c, 3, 60, 127
8, 273600, Note_off_c, 3, 60, 127
8, 273600, Note_on_c, 3, 62, 127
8, 273840, Note_off_c, 3, 62, 127
8, 273840, Note_on_c, 3, 63, 127
8, 274080, Note_off_c, 3, 63, 127
8, 274080, Note_on_c, 3, 53, 127
8, 274320, Note_off_c, 3, 53, 127
8, 274320, Note_on_c, 3, 72, 127
8, 274560, Note_off_c, 3, 72, 127
8, 274560, Note_on_c, 3, 74, 127
8, 274800, Note_off_c, 3, 74, 127
8, 274800, Note_on_c, 3, 75, 127
8, 275040, Note_off_c, 3, 75, 127
8, 275040, Note_on_c, 3, 65, 127
8, 275280, Note_off_c, 3, 65, 127
8, 275280, Note_on_c, 3, 84, 127
8, 275520, Note_off_c, 3, 84, 127
8, 275520, Note_on_c, 3, 65, 127
8, 275760, Note_off_c, 3, 65, 127
8, 275760, Note_on_c, 3, 75, 127
8, 276000, Note_off_c, 3, 75, 127
8, 276000, Note_on_c, 3, 74, 127
8, 276240, Note_off_c, 3, 74, 127
8, 276240, Note_on_c, 3, 72, 127
8, 276480, Note_off_c, 3, 72, 127
8, 276480, Note_on_c, 3, 67, 127
8, 276480, Note_on_c, 3, 62, 127
8, 276480, Note_on_c, 3, 55, 127
8, 276720, Note_off_c, 3, 67, 127
8, 276720, Note_off_c, 3, 62, 127
8, 276720, Note_off_c, 3, 55, 127
8, 276720, Note_on_c, 3, 68, 127
8, 276720, Note_on_c, 3, 63, 127
8, 276720, Note_on_c, 3, 56, 127
8, 276960, Note_off_c, 3, 68, 127
8, 276960, Note_off_c, 3, 63, 127
8, 276960, Note_off_c, 3, 56, 127
8, 280320, Note_on_c, 3, 68, 127
8, 280320, Note_on_c, 3, 63, 127
8, 280320, Note_on_c, 3, 56, 127
8, 280560, Note_off_c, 3, 68, 127
8, 280560, Note_off_c, 3, 63, 127
8, 280560, Note_off_c, 3, 56, 127
8, 280560, Note_on_c, 3, 67, 127
8, 280560, Note_on_c, 3, 62, 127
8, 280560, Note_on_c, 3, 55, 127
8, 280800, Note_off_c, 3, 67, 127
8, 280800, Note_off_c, 3, 62, 127
8, 280800, Note_off_c, 3, 55, 127
8, 282240, Note_on_c, 3, 67, 127
8, 282240, Note_on_c, 3, 62, 127
8, 282240, Note_on_c, 3, 55, 127
8, 282480, Note_off_c, 3, 67, 127
8, 282480, Note_off_c, 3, 62, 127
8, 282480, Note_off_c, 3, 55, 127
8, 283200, Note_on_c, 3, 68, 127
8, 283200, Note_on_c, 3, 63, 127
8, 283200, Note_on_c, 3, 56, 127
8, 283440, Note_off_c, 3, 68, 127
8, 283440, Note_off_c, 3, 63, 127
8, 283440, Note_off_c, 3, 56, 127
8, 284160, Note_on_c, 3, 62, 127
8, 284160, Note_on_c, 3, 57, 127
8, 288000, Note_off_c, 3, 62, 127
8, 288000, Note_off_c, 3, 57, 127
8, 288000, Note_on_c, 3, 62, 127
8, 288000, Note_on_c, 3, 57, 127
8, 288240, Note_off_c, 3, 62, 127
8, 288240, Note_off_c, 3, 57, 127
8, 288240, Note_on_c, 3, 63, 127
8, 288240, Note_on_c, 3, 58, 127
8, 288480, Note_off_c, 3, 63, 127
8, 288480, Note_off_c, 3, 58, 127
8, 289920, Note_on_c, 3, 63, 127
8, 289920, Note_on_c, 3, 58, 127
8, 290160, Note_off_c, 3, 63, 127
8, 290160, Note_off_c, 3, 58, 127
8, 290160, Note_on_c, 3, 62, 127
8, 290160, Note_on_c, 3, 57, 127
8, 290400, Note_off_c, 3, 62, 127
8, 290400, Note_off_c, 3, 57, 127
8, 290880, Note_on_c, 3, 62, 127
8, 290880, Note_on_c, 3, 57, 127
8, 291120, Note_off_c, 3, 62, 127
8, 291120, Note_off_c, 3, 57, 127
8, 291120, Note_on_c, 3, 63, 127
8, 291120, Note_on_c, 3, 58, 127
8, 291360, Note_off_c, 3, 63, 127
8, 291360, Note_off_c, 3, 58, 127
8, 291840, Note_on_c, 3, 67, 127
8, 291840, Note_on_c, 3, 62, 127
8, 291840, Note_on_c, 3, 55, 127
8, 292080, Note_off_c, 3, 67, 127
8, 292080, Note_off_c, 3, 62, 127
8, 292080, Note_off_c, 3, 55, 127
8, 292080, Note_on_c, 3, 68, 127
8, 292080, Note_on_c, 3, 63, 127
8, 292080, Note_on_c, 3, 56, 127
8, 292320, Note_off_c, 3, 68, 127
8, 292320, Note_off_c, 3, 63, 127
8, 292320, Note_off_c, 3, 56, 127
8, 295680, Note_on_c, 3, 68, 127
8, 295680, Note_on_c, 3, 63, 127
8, 295680, Note_on_c, 3, 56, 127
8, 295920, Note_off_c, 3, 68, 127
8, 295920, Note_off_c, 3, 63, 127
8, 295920, Note_off_c, 3, 56, 127
8, 295920, Note_on_c, 3, 67, 127
8, 295920, Note_on_c, 3, 62, 127
8, 295920, Note_on_c, 3, 55, 127
8, 296160, Note_off_c, 3, 67, 127
8, 296160, Note_off_c, 3, 62, 127
8, 296160, Note_off_c, 3, 55, 127
8, 297600, Note_on_c, 3, 67, 127
8, 297600, Note_on_c, 3, 62, 127
8, 297600, Note_on_c, 3, 55, 127
8, 297840, Note_off_c, 3, 67, 127
8, 297840, Note_off_c, 3, 62, 127
8, 297840, Note_off_c, 3, 55, 127
8, 298560, Note_on_c, 3, 68, 127
8, 298560, Note_on_c, 3, 63, 127
8, 298560, Note_on_c, 3, 56, 127
8, 298800, Note_off_c, 3, 68, 127
8, 298800, Note_off_c, 3, 63, 127
8, 298800, Note_off_c, 3, 56, 127
8, 299520, Note_on_c, 3, 62, 127
8, 299520, Note_on_c, 3, 57, 127
8, 303360, Note_off_c, 3, 62, 127
8, 303360, Note_off_c, 3, 57, 127
8, 303360, Note_on_c, 3, 62, 127
8, 303360, Note_on_c, 3, 57, 127
8, 303600, Note_off_c, 3, 62, 127
8, 303600, Note_off_c, 3, 57, 127
8, 303600, Note_on_c, 3, 63, 127
8, 303600, Note_on_c, 3, 58, 127
8, 303840, Note_off_c, 3, 63, 127
8, 303840, Note_off_c, 3, 58, 127
8, 305280, Note_on_c, 3, 63, 127
8, 305280, Note_on_c, 3, 58, 127
8, 305520, Note_off_c, 3, 63, 127
8, 305520, Note_off_c, 3, 58, 127
8, 305520, Note_on_c, 3, 62, 127
8, 305520, Note_on_c, 3, 57, 127
8, 305760, Note_off_c, 3, 62, 127
8, 305760, Note_off_c, 3, 57, 127
8, 306240, Note_on_c, 3, 62, 127
8, 306240, Note_on_c, 3, 57, 127
8, 306480, Note_off_c, 3, 62, 127
8, 306480, Note_off_c, 3, 57, 127
8, 306480, Note_on_c, 3, 63, 127
8, 306480, Note_on_c, 3, 58, 127
8, 306720, Note_off_c, 3, 63, 127
8, 306720, Note_off_c, 3, 58, 127
8, 307200, Note_on_c, 3, 67, 127
8, 307200, Note_on_c, 3, 62, 127
8, 307200, Note_on_c, 3, 55, 127
8, 307440, Note_off_c, 3, 67, 127
8, 307440, Note_off_c, 3, 62, 127
8, 307440, Note_off_c, 3, 55, 127
8, 307440, Note_on_c, 3, 68, 127
8, 307440, Note_on_c, 3, 63, 127
8, 307440, Note_on_c, 3, 56, 127
8, 307680, Note_off_c, 3, 68, 127
8, 307680, Note_off_c, 3, 63, 127
8, 307680, Note_off_c, 3, 56, 127
8, 311040, Note_on_c, 3, 68, 127
8, 311040, Note_on_c, 3, 63, 127
8, 311040, Note_on_c, 3, 56, 127
8, 311280, Note_off_c, 3, 68, 127
8, 311280, Note_off_c, 3, 63, 127
8, 311280, Note_off_c, 3, 56, 127
8, 311280, Note_on_c, 3, 67, 127
8, 311280, Note_on_c, 3, 62, 127
8, 311280, Note_on_c, 3, 55, 127
8, 311520, Note_off_c, 3, 67, 127
8, 311520, Note_off_c, 3, 62, 127
8, 311520, Note_off_c, 3, 55, 127
8, 312960, Note_on_c, 3, 67, 127
8, 312960, Note_on_c, 3, 62, 127
8, 312960, Note_on_c, 3, 55, 127
8, 313200, Note_off_c, 3, 67, 127
8, 313200, Note_off_c, 3, 62, 127
8, 313200, Note_off_c, 3, 55, 127
8, 313920, Note_on_c, 3, 68, 127
8, 313920, Note_on_c, 3, 63, 127
8, 313920, Note_on_c, 3, 56, 127
8, 314160, Note_off_c, 3, 68, 127
8, 314160, Note_off_c, 3, 63, 127
8, 314160, Note_off_c, 3, 56, 127
8, 314880, Note_on_c, 3, 62, 127
8, 314880, Note_on_c, 3, 57, 127
8, 318720, Note_off_c, 3, 62, 127
8, 318720, Note_off_c, 3, 57, 127
8, 318720, Note_on_c, 3, 62, 127
8, 318720, Note_on_c, 3, 57, 127
8, 318960, Note_off_c, 3, 62, 127
8, 318960, Note_off_c, 3, 57, 127
8, 318960, Note_on_c, 3, 63, 127
8, 318960, Note_on_c, 3, 58, 127
8, 319200, Note_off_c, 3, 63, 127
8, 319200, Note_off_c, 3, 58, 127
8, 320640, Note_on_c, 3, 63, 127
8, 320640, Note_on_c, 3, 58, 127
8, 320880, Note_off_c, 3, 63, 127
8, 320880, Note_off_c, 3, 58, 127
8, 320880, Note_on_c, 3, 62, 127
8, 320880, Note_on_c, 3, 57, 127
8, 321120, Note_off_c, 3, 62, 127
8, 321120, Note_off_c, 3, 57, 127
8, 321600, Note_on_c, 3, 62, 127
8, 321600, Note_on_c, 3, 57, 127
8, 321840, Note_off_c, 3, 62, 127
8, 321840, Note_off_c, 3, 57, 127
8, 321840, Note_on_c, 3, 63, 127
8, 321840, Note_on_c, 3, 58, 127
8, 322080, Note_off_c, 3, 63, 127
8, 322080, Note_off_c, 3, 58, 127
8, 322560, Note_on_c, 3, 67, 127
8, 322560, Note_on_c, 3, 62, 127
8, 322560, Note_on_c, 3, 55, 127
8, 322800, Note_off_c, 3, 67, 127
8, 322800, Note_off_c, 3, 62, 127
8, 322800, Note_off_c, 3, 55, 127
8, 322800, Note_on_c, 3, 68, 127
8, 322800, Note_on_c, 3, 63, 127
8, 322800, Note_on_c, 3, 56, 127
8, 323040, Note_off_c, 3, 68, 127
8, 323040, Note_off_c, 3, 63, 127
8, 323040, Note_off_c, 3, 56, 127
8, 326400, Note_on_c, 3, 68, 127
8, 326400, Note_on_c, 3, 63, 127
8, 326400, Note_on_c, 3, 56, 127
8, 326640, Note_off_c, 3, 68, 127
8, 326640, Note_off_c, 3, 63, 127
8, 326640, Note_off_c, 3, 56, 127
8, 326640, Note_on_c, 3, 67, 127
8, 326640, Note_on_c, 3, 62, 127
8, 326640, Note_on_c, 3, 55, 127
8, 326880, Note_off_c, 3, 67, 127
8, 326880, Note_off_c, 3, 62, 127
8, 326880, Note_off_c, 3, 55, 127
8, 328320, Note_on_c, 3, 67, 127
8, 328320, Note_on_c, 3, 62, 127
8, 328320, Note_on_c, 3, 55, 127
8, 328560, Note_off_c, 3, 67, 127
8, 328560, Note_off_c, 3, 62, 127
8, 328560, Note_off_c, 3, 55, 127
8, 329280, Note_on_c, 3, 68, 127
8, 329280, Note_on_c, 3, 63, 127
8, 329280, Note_on_c, 3, 56, 127
8, 329520, Note_off_c, 3, 68, 127
8, 329520, Note_off_c, 3, 63, 127
8, 329520, Note_off_c, 3, 56, 127
8, 330240, Note_on_c, 3, 62, 127
8, 330240, Note_on_c, 3, 57, 127
8, 334080, Note_off_c, 3, 62, 127
8, 334080, Note_off_c, 3, 57, 127
8, 334080, Note_on_c, 3, 62, 127
8, 334080, Note_on_c, 3, 57, 127
8, 334320, Note_off_c, 3, 62, 127
8, 334320, Note_off_c, 3, 57, 127
8, 334320, Note_on_c, 3, 63, 127
8, 334320, Note_on_c, 3, 58, 127
8, 334560, Note_off_c, 3, 63, 127
8, 334560, Note_off_c, 3, 58, 127
8, 336000, Note_on_c, 3, 63, 127
8, 336000, Note_on_c, 3, 58, 127
8, 336240, Note_off_c, 3, 63, 127
8, 336240, Note_off_c, 3, 58, 127
8, 336240, Note_on_c, 3, 62, 127
8, 336240, Note_on_c, 3, 57, 127
8, 336480, Note_off_c, 3, 62, 127
8, 336480, Note_off_c, 3, 57, 127
8, 336960, Note_on_c, 3, 62, 127
8, 336960, Note_on_c, 3, 57, 127
8, 337200, Note_off_c, 3, 62, 127
8, 337200, Note_off_c, 3, 57, 127
8, 337200, Note_on_c, 3, 63, 127
8, 337200, Note_on_c, 3, 58, 127
8, 337440, Note_off_c, 3, 63, 127
8, 337440, Note_off_c, 3, 58, 127
8, 337920, Note_on_c, 3, 67, 127
8, 337920, Note_on_c, 3, 62, 127
8, 337920, Note_on_c, 3, 55, 127
8, 338160, Note_off_c, 3, 67, 127
8, 338160, Note_off_c, 3, 62, 127
8, 338160, Note_off_c, 3, 55, 127
8, 338160, Note_on_c, 3, 68, 127
8, 338160, Note_on_c, 3, 63, 127
8, 338160, Note_on_c, 3, 56, 127
8, 338400, Note_off_c, 3, 68, 127
8, 338400, Note_off_c, 3, 63, 127
8, 338400, Note_off_c, 3, 56, 127
8, 341760, Note_on_c, 3, 68, 127
8, 341760, Note_on_c, 3, 63, 127
8, 341760, Note_on_c, 3, 56, 127
8, 342000, Note_off_c, 3, 68, 127
8, 342000, Note_off_c, 3, 63, 127
8, 342000, Note_off_c, 3, 56, 127
8, 342000, Note_on_c, 3, 67, 127
8, 342000, Note_on_c, 3, 62, 127
8, 342000, Note_on_c, 3, 55, 127
8, 342240, Note_off_c, 3, 67, 127
8, 342240, Note_off_c, 3, 62, 127
8, 342240, Note_off_c, 3, 55, 127
8, 343680, Note_on_c, 3, 67, 127
8, 343680, Note_on_c, 3, 62, 127
8, 343680, Note_on_c, 3, 55, 127
8, 343920, Note_off_c, 3, 67, 127
8, 343920, Note_off_c, 3, 62, 127
8, 343920, Note_off_c, 3, 55, 127
8, 344640, Note_on_c, 3, 68, 127
8, 344640, Note_on_c, 3, 63, 127
8, 344640, Note_on_c, 3, 56, 127
8, 344880, Note_off_c, 3, 68, 127
8, 344880, Note_off_c, 3, 63, 127
8, 344880, Note_off_c, 3, 56, 127
8, 345600, Note_on_c, 3, 62, 127
8, 345600, Note_on_c, 3, 57, 127
8, 349440, Note_off_c, 3, 62, 127
8, 349440, Note_off_c, 3, 57, 127
8, 349440, Note_on_c, 3, 62, 127
8, 349440, Note_on_c, 3, 57, 127
8, 349680, Note_off_c, 3, 62, 127
8, 349680, Note_off_c, 3, 57, 127
8, 349680, Note_on_c, 3, 63, 127
8, 349680, Note_on_c, 3, 58, 127
8, 349920, Note_off_c, 3, 63, 127
8, 349920, Note_off_c, 3, 58, 127
8, 351360, Note_on_c, 3, 63, 127
8, 351360, Note_on_c, 3, 58, 127
8, 351600, Note_off_c, 3, 63, 127
8, 351600, Note_off_c, 3, 58, 127
8, 351600, Note_on_c, 3, 62, 127
8, 351600, Note_on_c, 3, 57, 127
8, 351840, Note_off_c, 3, 62, 127
8, 351840, Note_off_c, 3, 57, 127
8, 352320, Note_on_c, 3, 62, 127
8, 352320, Note_on_c, 3, 57, 127
8, 352560, Note_off_c, 3, 62, 127
8, 352560, Note_off_c, 3, 57, 127
8, 352560, Note_on_c, 3, 63, 127
8, 352560, Note_on_c, 3, 58, 127
8, 352800, Note_off_c, 3, 63, 127
8, 352800, Note_off_c, 3, 58, 127
8, 353280, Note_on_c, 3, 67, 127
8, 353280, Note_on_c, 3, 62, 127
8, 353280, Note_on_c, 3, 55, 127
8, 353520, Note_off_c, 3, 67, 127
8, 353520, Note_off_c, 3, 62, 127
8, 353520, Note_off_c, 3, 55, 127
8, 353520, Note_on_c, 3, 68, 127
8, 353520, Note_on_c, 3, 63, 127
8, 353520, Note_on_c, 3, 56, 127
8, 353760, Note_off_c, 3, 68, 127
8, 353760, Note_off_c, 3, 63, 127
8, 353760, Note_off_c, 3, 56, 127
8, 357120, Note_on_c, 3, 68, 127
8, 357120, Note_on_c, 3, 63, 127
8, 357120, Note_on_c, 3, 56, 127
8, 357360, Note_off_c, 3, 68, 127
8, 357360, Note_off_c, 3, 63, 127
8, 357360, Note_off_c, 3, 56, 127
8, 357360, Note_on_c, 3, 67, 127
8, 357360, Note_on_c, 3, 62, 127
8, 357360, Note_on_c, 3, 55, 127
8, 357600, Note_off_c, 3, 67, 127
8, 357600, Note_off_c, 3, 62, 127
8, 357600, Note_off_c, 3, 55, 127
8, 359040, Note_on_c, 3, 67, 127
8, 359040, Note_on_c, 3, 62, 127
8, 359040, Note_on_c, 3, 55, 127
8, 359280, Note_off_c, 3, 67, 127
8, 359280, Note_off_c, 3, 62, 127
8, 359280, Note_off_c, 3, 55, 127
8, 360000, Note_on_c, 3, 68, 127
8, 360000, Note_on_c, 3, 63, 127
8, 360000, Note_on_c, 3, 56, 127
8, 360240, Note_off_c, 3, 68, 127
8, 360240, Note_off_c, 3, 63, 127
8, 360240, Note_off_c, 3, 56, 127
8, 360960, Note_on_c, 3, 62, 127
8, 360960, Note_on_c, 3, 57, 127
8, 364800, Note_off_c, 3, 62, 127
8, 364800, Note_off_c, 3, 57, 127
8, 364800, Note_on_c, 3, 62, 127
8, 364800, Note_on_c, 3, 57, 127
8, 365040, Note_off_c, 3, 62, 127
8, 365040, Note_off_c, 3, 57, 127
8, 365040, Note_on_c, 3, 63, 127
8, 365040, Note_on_c, 3, 58, 127
8, 365280, Note_off_c, 3, 63, 127
8, 365280, Note_off_c, 3, 58, 127
8, 366720, Note_on_c, 3, 63, 127
8, 366720, Note_on_c, 3, 58, 127
8, 366960, Note_off_c, 3, 63, 127
8, 366960, Note_off_c, 3, 58, 127
8, 366960, Note_on_c, 3, 62, 127
8, 366960, Note_on_c, 3, 57, 127
8, 367200, Note_off_c, 3, 62, 127
8, 367200, Note_off_c, 3, 57, 127
8, 367680, Note_on_c, 3, 62, 127
8, 367680, Note_on_c, 3, 57, 127
8, 367920, Note_off_c, 3, 62, 127
8, 367920, Note_off_c, 3, 57, 127
8, 367920, Note_on_c, 3, 63, 127
8, 367920, Note_on_c, 3, 58, 127
8, 368160, Note_off_c, 3, 63, 127
8, 368160, Note_off_c, 3, 58, 127
8, 368640, Note_on_c, 3, 67, 127
8, 368640, Note_on_c, 3, 62, 127
8, 368640, Note_on_c, 3, 55, 127
8, 368880, Note_off_c, 3, 67, 127
8, 368880, Note_off_c, 3, 62, 127
8, 368880, Note_off_c, 3, 55, 127
8, 368880, Note_on_c, 3, 68, 127
8, 368880, Note_on_c, 3, 63, 127
8, 368880, Note_on_c, 3, 56, 127
8, 369120, Note_off_c, 3, 68, 127
8, 369120, Note_off_c, 3, 63, 127
8, 369120, Note_off_c, 3, 56, 127
8, 372480, Note_on_c, 3, 68, 127
8, 372480, Note_on_c, 3, 63, 127
8, 372480, Note_on_c, 3, 56, 127
8, 372720, Note_off_c, 3, 68, 127
8, 372720, Note_off_c, 3, 63, 127
8, 372720, Note_off_c, 3, 56, 127
8, 372720, Note_on_c, 3, 67, 127
8, 372720, Note_on_c, 3, 62, 127
8, 372720, Note_on_c, 3, 55, 127
8, 372960, Note_off_c, 3, 67, 127
8, 372960, Note_off_c, 3, 62, 127
8, 372960, Note_off_c, 3, 55, 127
8, 374400, Note_on_c, 3, 67, 127
8, 374400, Note_on_c, 3, 62, 127
8, 374400, Note_on_c, 3, 55, 127
8, 374640, Note_off_c, 3, 67, 127
8, 374640, Note_off_c, 3, 62, 127
8, 374640, Note_off_c, 3, 55, 127
8, 375360, Note_on_c, 3, 68, 127
8, 375360, Note_on_c, 3, 63, 127
8, 375360, Note_on_c, 3, 56, 127
8, 375600, Note_off_c, 3, 68, 127
8, 375600, Note_off_c, 3, 63, 127
8, 375600, Note_off_c, 3, 56, 127
8, 376320, Note_on_c, 3, 62, 127
8, 376320, Note_on_c, 3, 57, 127
8, 380160, Note_off_c, 3, 62, 127
8, 380160, Note_off_c, 3, 57, 127
8, 380160, Note_on_c, 3, 62, 127
8, 380160, Note_on_c, 3, 57, 127
8, 380400, Note_off_c, 3, 62, 127
8, 380400, Note_off_c, 3, 57, 127
8, 380400, Note_on_c, 3, 63, 127
8, 380400, Note_on_c, 3, 58, 127
8, 380640, Note_off_c, 3, 63, 127
8, 380640, Note_off_c, 3, 58, 127
8, 382080, Note_on_c, 3, 63, 127
8, 382080, Note_on_c, 3, 58, 127
8, 382320, Note_off_c, 3, 63, 127
8, 382320, Note_off_c, 3, 58, 127
8, 382320, Note_on_c, 3, 62, 127
8, 382320, Note_on_c, 3, 57, 127
8, 382560, Note_off_c, 3, 62, 127
8, 382560, Note_off_c, 3, 57, 127
8, 383040, Note_on_c, 3, 62, 127
8, 383040, Note_on_c, 3, 57, 127
8, 383280, Note_off_c, 3, 62, 127
8, 383280, Note_off_c, 3, 57, 127
8, 383280, Note_on_c, 3, 63, 127
8, 383280, Note_on_c, 3, 58, 127
8, 383520, Note_off_c, 3, 63, 127
8, 383520, Note_off_c, 3, 58, 127
8, 384000, Note_on_c, 3, 67, 127
8, 384000, Note_on_c, 3, 62, 127
8, 384000, Note_on_c, 3, 55, 127
8, 384240, Note_off_c, 3, 67, 127
8, 384240, Note_off_c, 3, 62, 127
8, 384240, Note_off_c, 3, 55, 127
8, 384240, Note_on_c, 3, 68, 127
8, 384240, Note_on_c, 3, 63, 127
8, 384240, Note_on_c, 3, 56, 127
8, 384480, Note_off_c, 3, 68, 127
8, 384480, Note_off_c, 3, 63, 127
8, 384480, Note_off_c, 3, 56, 127
8, 387840, Note_on_c, 3, 68, 127
8, 387840, Note_on_c, 3, 63, 127
8, 387840, Note_on_c, 3, 56, 127
8, 388080, Note_off_c, 3, 68, 127
8, 388080, Note_off_c, 3, 63, 127
8, 388080, Note_off_c, 3, 56, 127
8, 388080, Note_on_c, 3, 67, 127
8, 388080, Note_on_c, 3, 62, 127
8, 388080, Note_on_c, 3, 55, 127
8, 388320, Note_off_c, 3, 67, 127
8, 388320, Note_off_c, 3, 62, 127
8, 388320, Note_off_c, 3, 55, 127
8, 389760, Note_on_c, 3, 67, 127
8, 389760, Note_on_c, 3, 62, 127
8, 389760, Note_on_c, 3, 55, 127
8, 390000, Note_off_c, 3, 67, 127
8, 390000, Note_off_c, 3, 62, 127
8, 390000, Note_off_c, 3, 55, 127
8, 390720, Note_on_c, 3, 68, 127
8, 390720, Note_on_c, 3, 63, 127
8, 390720, Note_on_c, 3, 56, 127
8, 390960, Note_off_c, 3, 68, 127
8, 390960, Note_off_c, 3, 63, 127
8, 390960, Note_off_c, 3, 56, 127
8, 391680, Note_on_c, 3, 62, 127
8, 391680, Note_on_c, 3, 57, 127
8, 395520, Note_off_c, 3, 62, 127
8, 395520, Note_off_c, 3, 57, 127
8, 395520, Note_on_c, 3, 62, 127
8, 395520, Note_on_c, 3, 57, 127
8, 395760, Note_off_c, 3, 62, 127
8, 395760, Note_off_c, 3, 57, 127
8, 395760, Note_on_c, 3, 63, 127
8, 395760, Note_on_c, 3, 58, 127
8, 396000, Note_off_c, 3, 63, 127
8, 396000, Note_off_c, 3, 58, 127
8, 397440, Note_on_c, 3, 63, 127
8, 397440, Note_on_c, 3, 58, 127
8, 397680, Note_off_c, 3, 63, 127
8, 397680, Note_off_c, 3, 58, 127
8, 397680, Note_on_c, 3, 62, 127
8, 397680, Note_on_c, 3, 57, 127
8, 397920, Note_off_c, 3, 62, 127
8, 397920, Note_off_c, 3, 57, 127
8, 398400, Note_on_c, 3, 62, 127
8, 398400, Note_on_c, 3, 57, 127
8, 398640, Note_off_c, 3, 62, 127
8, 398640, Note_off_c, 3, 57, 127
8, 398640, Note_on_c, 3, 63, 127
8, 398640, Note_on_c, 3, 58, 127
8, 398880, Note_off_c, 3, 63, 127
8, 398880, Note_off_c, 3, 58, 127
8, 399360, Note_on_c, 3, 67, 127
8, 399360, Note_on_c, 3, 62, 127
8, 399360, Note_on_c, 3, 55, 127
8, 399600, Note_off_c, 3, 67, 127
8, 399600, Note_off_c, 3, 62, 127
8, 399600, Note_off_c, 3, 55, 127
8, 399600, Note_on_c, 3, 68, 127
8, 399600, Note_on_c, 3, 63, 127
8, 399600, Note_on_c, 3, 56, 127
8, 399840, Note_off_c, 3, 68, 127
8, 399840, Note_off_c, 3, 63, 127
8, 399840, Note_off_c, 3, 56, 127
8, 403200, Note_on_c, 3, 68, 127
8, 403200, Note_on_c, 3, 63, 127
8, 403200, Note_on_c, 3, 56, 127
8, 403440, Note_off_c, 3, 68, 127
8, 403440, Note_off_c, 3, 63, 127
8, 403440, Note_off_c, 3, 56, 127
8, 403440, Note_on_c, 3, 67, 127
8, 403440, Note_on_c, 3, 62, 127
8, 403440, Note_on_c, 3, 55, 127
8, 403680, Note_off_c, 3, 67, 127
8, 403680, Note_off_c, 3, 62, 127
8, 403680, Note_off_c, 3, 55, 127
8, 405120, Note_on_c, 3, 67, 127
8, 405120, Note_on_c, 3, 62, 127
8, 405120, Note_on_c, 3, 55, 127
8, 405360, Note_off_c, 3, 67, 127
8, 405360, Note_off_c, 3, 62, 127
8, 405360, Note_off_c, 3, 55, 127
8, 406080, Note_on_c, 3, 68, 127
8, 406080, Note_on_c, 3, 63, 127
8, 406080, Note_on_c, 3, 56, 127
8, 406320, Note_off_c, 3, 68, 127
8, 406320, Note_off_c, 3, 63, 127
8, 406320, Note_off_c, 3, 56, 127
8, 407040, Note_on_c, 3, 62, 127
8, 407040, Note_on_c, 3, 57, 127
8, 410880, Note_off_c, 3, 62, 127
8, 410880, Note_off_c, 3, 57, 127
8, 410880, Note_on_c, 3, 62, 127
8, 410880, Note_on_c, 3, 57, 127
8, 411120, Note_off_c, 3, 62, 127
8, 411120, Note_off_c, 3, 57, 127
8, 411120, Note_on_c, 3, 63, 127
8, 411120, Note_on_c, 3, 58, 127
8, 411360, Note_off_c, 3, 63, 127
8, 411360, Note_off_c, 3, 58, 127
8, 412800, Note_on_c, 3, 63, 127
8, 412800, Note_on_c, 3, 58, 127
8, 413040, Note_off_c, 3, 63, 127
8, 413040, Note_off_c, 3, 58, 127
8, 413040, Note_on_c, 3, 62, 127
8, 413040, Note_on_c, 3, 57, 127
8, 413280, Note_off_c, 3, 62, 127
8, 413280, Note_off_c, 3, 57, 127
8, 413760, Note_on_c, 3, 62, 127
8, 413760, Note_on_c, 3, 57, 127
8, 414000, Note_off_c, 3, 62, 127
8, 414000, Note_off_c, 3, 57, 127
8, 414000, Note_on_c, 3, 63, 127
8, 414000, Note_on_c, 3, 58, 127
8, 414240, Note_off_c, 3, 63, 127
8, 414240, Note_off_c, 3, 58, 127
8, 414720, Note_on_c, 3, 67, 127
8, 414720, Note_on_c, 3, 62, 127
8, 414720, Note_on_c, 3, 55, 127
8, 414960, Note_off_c, 3, 67, 127
8, 414960, Note_off_c, 3, 62, 127
8, 414960, Note_off_c, 3, 55, 127
8, 414960, Note_on_c, 3, 68, 127
8, 414960, Note_on_c, 3, 63, 127
8, 414960, Note_on_c, 3, 56, 127
8, 415200, Note_off_c, 3, 68, 127
8, 415200, Note_off_c, 3, 63, 127
8, 415200, Note_off_c, 3, 56, 127
8, 418560, Note_on_c, 3, 68, 127
8, 418560, Note_on_c, 3, 63, 127
8, 418560, Note_on_c, 3, 56, 127
8, 418800, Note_off_c, 3, 68, 127
8, 418800, Note_off_c, 3, 63, 127
8, 418800, Note_off_c, 3, 56, 127
8, 418800, Note_on_c, 3, 67, 127
8, 418800, Note_on_c, 3, 62, 127
8, 418800, Note_on_c, 3, 55, 127
8, 419040, Note_off_c, 3, 67, 127
8, 419040, Note_off_c, 3, 62, 127
8, 419040, Note_off_c, 3, 55, 127
8, 420480, Note_on_c, 3, 67, 127
8, 420480, Note_on_c, 3, 62, 127
8, 420480, Note_on_c, 3, 55, 127
8, 420720, Note_off_c, 3, 67, 127
8, 420720, Note_off_c, 3, 62, 127
8, 420720, Note_off_c, 3, 55, 127
8, 421440, Note_on_c, 3, 68, 127
8, 421440, Note_on_c, 3, 63, 127
8, 421440, Note_on_c, 3, 56, 127
8, 421680, Note_off_c, 3, 68, 127
8, 421680, Note_off_c, 3, 63, 127
8, 421680, Note_off_c, 3, 56, 127
8, 422400, Note_on_c, 3, 62, 127
8, 422400, Note_on_c, 3, 57, 127
8, 426240, Note_off_c, 3, 62, 127
8, 426240, Note_off_c, 3, 57, 127
8, 426240, Note_on_c, 3, 62, 127
8, 426240, Note_on_c, 3, 57, 127
8, 426480, Note_off_c, 3, 62, 127
8, 426480, Note_off_c, 3, 57, 127
8, 426480, Note_on_c, 3, 63, 127
8, 426480, Note_on_c, 3, 58, 127
8, 426720, Note_off_c, 3, 63, 127
8, 426720, Note_off_c, 3, 58, 127
8, 428160, Note_on_c, 3, 63, 127
8, 428160, Note_on_c, 3, 58, 127
8, 428400, Note_off_c, 3, 63, 127
8, 428400, Note_off_c, 3, 58, 127
8, 428400, Note_on_c, 3, 62, 127
8, 428400, Note_on_c, 3, 57, 127
8, 428640, Note_off_c, 3, 62, 127
8, 428640, Note_off_c, 3, 57, 127
8, 429120, Note_on_c, 3, 62, 127
8, 429120, Note_on_c, 3, 57, 127
8, 429360, Note_off_c, 3, 62, 127
8, 429360, Note_off_c, 3, 57, 127
8, 429360, Note_on_c, 3, 63, 127
8, 429360, Note_on_c, 3, 58, 127
8, 429600, Note_off_c, 3, 63, 127
8, 429600, Note_off_c, 3, 58, 127
8, 430080, Note_on_c, 3, 67, 127
8, 430080, Note_on_c, 3, 62, 127
8, 430080, Note_on_c, 3, 55, 127
8, 430320, Note_off_c, 3, 67, 127
8, 430320, Note_off_c, 3, 62, 127
8, 430320, Note_off_c, 3, 55, 127
8, 430320, Note_on_c, 3, 68, 127
8, 430320, Note_on_c, 3, 63, 127
8, 430320, Note_on_c, 3, 56, 127
8, 430560, Note_off_c, 3, 68, 127
8, 430560, Note_off_c, 3, 63, 127
8, 430560, Note_off_c, 3, 56, 127
8, 433920, Note_on_c, 3, 68, 127
8, 433920, Note_on_c, 3, 63, 127
8, 433920, Note_on_c, 3, 56, 127
8, 434160, Note_off_c, 3, 68, 127
8, 434160, Note_off_c, 3, 63, 127
8, 434160, Note_off_c, 3, 56, 127
8, 434160, Note_on_c, 3, 67, 127
8, 434160, Note_on_c, 3, 62, 127
8, 434160, Note_on_c, 3, 55, 127
8, 434400, Note_off_c, 3, 67, 127
8, 434400, Note_off_c, 3, 62, 127
8, 434400, Note_off_c, 3, 55, 127
8, 435840, Note_on_c, 3, 67, 127
8, 435840, Note_on_c, 3, 62, 127
8, 435840, Note_on_c, 3, 55, 127
8, 436080, Note_off_c, 3, 67, 127
8, 436080, Note_off_c, 3, 62, 127
8, 436080, Note_off_c, 3, 55, 127
8, 436800, Note_on_c, 3, 68, 127
8, 436800, Note_on_c, 3, 63, 127
8, 436800, Note_on_c, 3, 56, 127
8, 437040, Note_off_c, 3, 68, 127
8, 437040, Note_off_c, 3, 63, 127
8, 437040, Note_off_c, 3, 56, 127
8, 437760, Note_on_c, 3, 62, 127
8, 437760, Note_on_c, 3, 57, 127
8, 441600, Note_off_c, 3, 62, 127
8, 441600, Note_off_c, 3, 57, 127
8, 441600, Note_on_c, 3, 62, 127
8, 441600, Note_on_c, 3, 57, 127
8, 441840, Note_off_c, 3, 62, 127
8, 441840, Note_off_c, 3, 57, 127
8, 441840, Note_on_c, 3, 63, 127
8, 441840, Note_on_c, 3, 58, 127
8, 442080, Note_off_c, 3, 63, 127
8, 442080, Note_off_c, 3, 58, 127
8, 443520, Note_on_c, 3, 63, 127
8, 443520, Note_on_c, 3, 58, 127
8, 443760, Note_off_c, 3, 63, 127
8, 443760, Note_off_c, 3, 58, 127
8, 443760, Note_on_c, 3, 62, 127
8, 443760, Note_on_c, 3, 57, 127
8, 444000, Note_off_c, 3, 62, 127
8, 444000, Note_off_c, 3, 57, 127
8, 444480, Note_on_c, 3, 62, 127
8, 444480, Note_on_c, 3, 57, 127
8, 444720, Note_off_c, 3, 62, 127
8, 444720, Note_off_c, 3, 57, 127
8, 444720, Note_on_c, 3, 63, 127
8, 444720, Note_on_c, 3, 58, 127
8, 444960, Note_off_c, 3, 63, 127
8, 444960, Note_off_c, 3, 58, 127
8, 446160, Note_on_c, 3, 71, 127
8, 446280, Note_off_c, 3, 71, 127
8, 446280, Note_on_c, 3, 73, 102
8, 446400, Note_off_c, 3, 73, 102
8, 446400, Note_on_c, 3, 74, 102
8, 446880, Note_off_c, 3, 74, 102
8, 447120, Note_on_c, 3, 73, 127
8, 447360, Note_off_c, 3, 73, 127
8, 447360, Note_on_c, 3, 74, 102
8, 447480, Note_off_c, 3, 74, 102
8, 447480, Note_on_c, 3, 74, 102
8, 447600, Note_off_c, 3, 74, 102
8, 447600, Note_on_c, 3, 74, 102
8, 447720, Note_off_c, 3, 74, 102
8, 447720, Note_on_c, 3, 74, 102
8, 447840, Note_off_c, 3, 74, 102
8, 447840, Note_on_c, 3, 74, 102
8, 447960, Note_off_c, 3, 74, 102
8, 447960, Note_on_c, 3, 74, 102
8, 448080, Note_off_c, 3, 74, 102
8, 448080, Note_on_c, 3, 74, 102
8, 448200, Note_off_c, 3, 74, 102
8, 448200, Note_on_c, 3, 74, 102
8, 448319, Note_off_c, 3, 74, 102
8, 449040, Note_on_c, 3, 71, 127
8, 449160, Note_off_c, 3, 71, 127
8, 449160, Note_on_c, 3, 73, 102
8, 449280, Note_off_c, 3, 73, 102
8, 449280, Note_on_c, 3, 74, 102
8, 449760, Note_off_c, 3, 74, 102
8, 450000, Note_on_c, 3, 73, 127
8, 450240, Note_off_c, 3, 73, 127
8, 450240, Note_on_c, 3, 74, 102
8, 450360, Note_off_c, 3, 74, 102
8, 450360, Note_on_c, 3, 74, 102
8, 450480, Note_off_c, 3, 74, 102
8, 450480, Note_on_c, 3, 74, 102
8, 450600, Note_off_c, 3, 74, 102
8, 450600, Note_on_c, 3, 74, 102
8, 450720, Note_off_c, 3, 74, 102
8, 450720, Note_on_c, 3, 74, 102
8, 450840, Note_off_c, 3, 74, 102
8, 450840, Note_on_c, 3, 74, 102
8, 450960, Note_off_c, 3, 74, 102
8, 450960, Note_on_c, 3, 74, 102
8, 451080, Note_off_c, 3, 74, 102
8, 451080, Note_on_c, 3, 74, 102
8, 451199, Note_off_c, 3, 74, 102
8, 451920, Note_on_c, 3, 71, 127
8, 452040, Note_off_c, 3, 71, 127
8, 452040, Note_on_c, 3, 73, 102
8, 452160, Note_off_c, 3, 73, 102
8, 452160, Note_on_c, 3, 74, 102
8, 452640, Note_off_c, 3, 74, 102
8, 452880, Note_on_c, 3, 71, 127
8, 453120, Note_off_c, 3, 71, 127
8, 453120, Note_on_c, 3, 73, 102
8, 453240, Note_off_c, 3, 73, 102
8, 453240, Note_on_c, 3, 73, 102
8, 453360, Note_off_c, 3, 73, 102
8, 453360, Note_on_c, 3, 73, 102
8, 453480, Note_off_c, 3, 73, 102
8, 453480, Note_on_c, 3, 73, 102
8, 453600, Note_off_c, 3, 73, 102
8, 453600, Note_on_c, 3, 73, 102
8, 453720, Note_off_c, 3, 73, 102
8, 453720, Note_on_c, 3, 73, 102
8, 453840, Note_off_c, 3, 73, 102
8, 453840, Note_on_c, 3, 73, 102
8, 453960, Note_off_c, 3, 73, 102
8, 453960, Note_on_c, 3, 73, 102
8, 454079, Note_off_c, 3, 73, 102
8, 454320, Note_on_c, 3, 69, 127
8, 454560, Note_off_c, 3, 69, 127
8, 454560, Note_on_c, 3, 66, 127
8, 454800, Note_off_c, 3, 66, 127
8, 454800, Note_on_c, 3, 69, 127
8, 455040, Note_off_c, 3, 69, 127
8, 455040, Note_on_c, 3, 76, 127
8, 455160, Note_off_c, 3, 76, 127
8, 455160, Note_on_c, 3, 76, 127
8, 455280, Note_off_c, 3, 76, 127
8, 455280, Note_on_c, 3, 76, 127
8, 455400, Note_off_c, 3, 76, 127
8, 455400, Note_on_c, 3, 76, 127
8, 455520, Note_off_c, 3, 76, 127
8, 455520, Note_on_c, 3, 76, 127
8, 455640, Note_off_c, 3, 76, 127
8, 455640, Note_on_c, 3, 76, 127
8, 455759, Note_off_c, 3, 76, 127
8, 455760, Note_on_c, 3, 70, 127
8, 455880, Note_off_c, 3, 70, 127
8, 455880, Note_on_c, 3, 76, 127
8, 456000, Note_off_c, 3, 76, 127
8, 456000, Note_on_c, 3, 73, 127
8, 456120, Note_off_c, 3, 73, 127
8, 456120, Note_on_c, 3, 73, 127
8, 456240, Note_off_c, 3, 73, 127
8, 456240, Note_on_c, 3, 73, 127
8, 456360, Note_off_c, 3, 73, 127
8, 456360, Note_on_c, 3, 73, 127
8, 456480, Note_off_c, 3, 73, 127
8, 456480, Note_on_c, 3, 73, 127
8, 456600, Note_off_c, 3, 73, 127
8, 456600, Note_on_c, 3, 73, 127
8, 456720, Note_off_c, 3, 73, 127
8, 456720, Note_on_c, 3, 73, 127
8, 456840, Note_off_c, 3, 73, 127
8, 456840, Note_on_c, 3, 73, 127
8, 456959, Note_off_c, 3, 73, 127
8, 457680, Note_on_c, 3, 71, 127
8, 457800, Note_off_c, 3, 71, 127
8, 457800, Note_on_c, 3, 73, 102
8, 457920, Note_off_c, 3, 73, 102
8, 457920, Note_on_c, 3, 74, 102
8, 458400, Note_off_c, 3, 74, 102
8, 458640, Note_on_c, 3, 73, 127
8, 458880, Note_off_c, 3, 73, 127
8, 458880, Note_on_c, 3, 74, 102
8, 459000, Note_off_c, 3, 74, 102
8, 459000, Note_on_c, 3, 74, 102
8, 459120, Note_off_c, 3, 74, 102
8, 459120, Note_on_c, 3, 74, 102
8, 459240, Note_off_c, 3, 74, 102
8, 459240, Note_on_c, 3, 74, 102
8, 459360, Note_off_c, 3, 74, 102
8, 459360, Note_on_c, 3, 74, 102
8, 459480, Note_off_c, 3, 74, 102
8, 459480, Note_on_c, 3, 74, 102
8, 459600, Note_off_c, 3, 74, 102
8, 459600, Note_on_c, 3, 74, 102
8, 459720, Note_off_c, 3, 74, 102
8, 459720, Note_on_c, 3, 74, 102
8, 459839, Note_off_c, 3, 74, 102
8, 460560, Note_on_c, 3, 71, 127
8, 460680, Note_off_c, 3, 71, 127
8, 460680, Note_on_c, 3, 73, 102
8, 460800, Note_off_c, 3, 73, 102
8, 460800, Note_on_c, 3, 74, 102
8, 461280, Note_off_c, 3, 74, 102
8, 461520, Note_on_c, 3, 73, 127
8, 461760, Note_off_c, 3, 73, 127
8, 461760, Note_on_c, 3, 74, 102
8, 461880, Note_off_c, 3, 74, 102
8, 461880, Note_on_c, 3, 74, 102
8, 462000, Note_off_c, 3, 74, 102
8, 462000, Note_on_c, 3, 74, 102
8, 462120, Note_off_c, 3, 74, 102
8, 462120, Note_on_c, 3, 74, 102
8, 462240, Note_off_c, 3, 74, 102
8, 462240, Note_on_c, 3, 74, 102
8, 462360, Note_off_c, 3, 74, 102
8, 462360, Note_on_c, 3, 74, 102
8, 462480, Note_off_c, 3, 74, 102
8, 462480, Note_on_c, 3, 74, 102
8, 462600, Note_off_c, 3, 74, 102
8, 462600, Note_on_c, 3, 74, 102
8, 462719, Note_off_c, 3, 74, 102
8, 463440, Note_on_c, 3, 71, 127
8, 463560, Note_off_c, 3, 71, 127
8, 463560, Note_on_c, 3, 73, 102
8, 463680, Note_off_c, 3, 73, 102
8, 463680, Note_on_c, 3, 74, 102
8, 464160, Note_off_c, 3, 74, 102
8, 464400, Note_on_c, 3, 71, 127
8, 464640, Note_off_c, 3, 71, 127
8, 464640, Note_on_c, 3, 73, 102
8, 464760, Note_off_c, 3, 73, 102
8, 464760, Note_on_c, 3, 73, 102
8, 464880, Note_off_c, 3, 73, 102
8, 464880, Note_on_c, 3, 73, 102
8, 465000, Note_off_c, 3, 73, 102
8, 465000, Note_on_c, 3, 73, 102
8, 465120, Note_off_c, 3, 73, 102
8, 465120, Note_on_c, 3, 73, 102
8, 465240, Note_off_c, 3, 73, 102
8, 465240, Note_on_c, 3, 73, 102
8, 465360, Note_off_c, 3, 73, 102
8, 465360, Note_on_c, 3, 73, 102
8, 465480, Note_off_c, 3, 73, 102
8, 465480, Note_on_c, 3, 73, 102
8, 465599, Note_off_c, 3, 73, 102
8, 465840, Note_on_c, 3, 69, 127
8, 466080, Note_off_c, 3, 69, 127
8, 466080, Note_on_c, 3, 66, 127
8, 466320, Note_off_c, 3, 66, 127
8, 466320, Note_on_c, 3, 69, 127
8, 466560, Note_off_c, 3, 69, 127
8, 466560, Note_on_c, 3, 76, 127
8, 466680, Note_off_c, 3, 76, 127
8, 466680, Note_on_c, 3, 76, 127
8, 466800, Note_off_c, 3, 76, 127
8, 466800, Note_on_c, 3, 76, 127
8, 466920, Note_off_c, 3, 76, 127
8, 466920, Note_on_c, 3, 76, 127
8, 467040, Note_off_c, 3, 76, 127
8, 467040, Note_on_c, 3, 76, 127
8, 467160, Note_off_c, 3, 76, 127
8, 467160, Note_on_c, 3, 76, 127
8, 467279, Note_off_c, 3, 76, 127
8, 467280, Note_on_c, 3, 70, 127
8, 467400, Note_off_c, 3, 70, 127
8, 467400, Note_on_c, 3, 76, 127
8, 467520, Note_off_c, 3, 76, 127
8, 467520, Note_on_c, 3, 73, 127
8, 467640, Note_off_c, 3, 73, 127
8, 467640, Note_on_c, 3, 73, 127
8, 467760, Note_off_c, 3, 73, 127
8, 467760, Note_on_c, 3, 73, 127
8, 467880, Note_off_c, 3, 73, 127
8, 467880, Note_on_c, 3, 73, 127
8, 468000, Note_off_c, 3, 73, 127
8, 468000, Note_on_c, 3, 73, 127
8, 468120, Note_off_c, 3, 73, 127
8, 468120, Note_on_c, 3, 73, 127
8, 468240, Note_off_c, 3, 73, 127
8, 468240, Note_on_c, 3, 73, 127
8, 468360, Note_off_c, 3, 73, 127
8, 468360, Note_on_c, 3, 73, 127
8, 468479, Note_off_c, 3, 73, 127
8, 469200, Note_on_c, 3, 71, 127
8, 469320, Note_off_c, 3, 71, 127
8, 469320, Note_on_c, 3, 73, 102
8, 469440, Note_off_c, 3, 73, 102
8, 469440, Note_on_c, 3, 74, 102
8, 469920, Note_off_c, 3, 74, 102
8, 470160, Note_on_c, 3, 73, 127
8, 470400, Note_off_c, 3, 73, 127
8, 470400, Note_on_c, 3, 74, 102
8, 470520, Note_off_c, 3, 74, 102
8, 470520, Note_on_c, 3, 74, 102
8, 470640, Note_off_c, 3, 74, 102
8, 470640, Note_on_c, 3, 74, 102
8, 470760, Note_off_c, 3, 74, 102
8, 470760, Note_on_c, 3, 74, 102
8, 470880, Note_off_c, 3, 74, 102
8, 470880, Note_on_c, 3, 74, 102
8, 471000, Note_off_c, 3, 74, 102
8, 471000, Note_on_c, 3, 74, 102
8, 471120, Note_off_c, 3, 74, 102
8, 471120, Note_on_c, 3, 74, 102
8, 471240, Note_off_c, 3, 74, 102
8, 471240, Note_on_c, 3, 74, 102
8, 471359, Note_off_c, 3, 74, 102
8, 472080, Note_on_c, 3, 71, 127
8, 472200, Note_off_c, 3, 71, 127
8, 472200, Note_on_c, 3, 73, 102
8, 472320, Note_off_c, 3, 73, 102
8, 472320, Note_on_c, 3, 74, 102
8, 472800, Note_off_c, 3, 74, 102
8, 473040, Note_on_c, 3, 73, 127
8, 473280, Note_off_c, 3, 73, 127
8, 473280, Note_on_c, 3, 74, 102
8, 473400, Note_off_c, 3, 74, 102
8, 473400, Note_on_c, 3, 74, 102
8, 473520, Note_off_c, 3, 74, 102
8, 473520, Note_on_c, 3, 74, 102
8, 473640, Note_off_c, 3, 74, 102
8, 473640, Note_on_c, 3, 74, 102
8, 473760, Note_off_c, 3, 74, 102
8, 473760, Note_on_c, 3, 74, 102
8, 473880, Note_off_c, 3, 74, 102
8, 473880, Note_on_c, 3, 74, 102
8, 474000, Note_off_c, 3, 74, 102
8, 474000, Note_on_c, 3, 74, 102
8, 474120, Note_off_c, 3, 74, 102
8, 474120, Note_on_c, 3, 74, 102
8, 474239, Note_off_c, 3, 74, 102
8, 474960, Note_on_c, 3, 71, 127
8, 475080, Note_off_c, 3, 71, 127
8, 475080, Note_on_c, 3, 73, 102
8, 475200, Note_off_c, 3, 73, 102
8, 475200, Note_on_c, 3, 74, 102
8, 475680, Note_off_c, 3, 74, 102
8, 475920, Note_on_c, 3, 71, 127
8, 476160, Note_off_c, 3, 71, 127
8, 476160, Note_on_c, 3, 73, 102
8, 476280, Note_off_c, 3, 73, 102
8, 476280, Note_on_c, 3, 73, 102
8, 476400, Note_off_c, 3, 73, 102
8, 476400, Note_on_c, 3, 73, 102
8, 476520, Note_off_c, 3, 73, 102
8, 476520, Note_on_c, 3, 73, 102
8, 476640, Note_off_c, 3, 73, 102
8, 476640, Note_on_c, 3, 73, 102
8, 476760, Note_off_c, 3, 73, 102
8, 476760, Note_on_c, 3, 73, 102
8, 476880, Note_off_c, 3, 73, 102
8, 476880, Note_on_c, 3, 73, 102
8, 477000, Note_off_c, 3, 73, 102
8, 477000, Note_on_c, 3, 73, 102
8, 477119, Note_off_c, 3, 73, 102
8, 477360, Note_on_c, 3, 69, 127
8, 477600, Note_off_c, 3, 69, 127
8, 477600, Note_on_c, 3, 66, 127
8, 477840, Note_off_c, 3, 66, 127
8, 477840, Note_on_c, 3, 69, 127
8, 478080, Note_off_c, 3, 69, 127
8, 478080, Note_on_c, 3, 76, 127
8, 478200, Note_off_c, 3, 76, 127
8, 478200, Note_on_c, 3, 76, 127
8, 478320, Note_off_c, 3, 76, 127
8, 478320, Note_on_c, 3, 76, 127
8, 478440, Note_off_c, 3, 76, 127
8, 478440, Note_on_c, 3, 76, 127
8, 478560, Note_off_c, 3, 76, 127
8, 478560, Note_on_c, 3, 76, 127
8, 478680, Note_off_c, 3, 76, 127
8, 478680, Note_on_c, 3, 76, 127
8, 478799, Note_off_c, 3, 76, 127
8, 478800, Note_on_c, 3, 70, 127
8, 478920, Note_off_c, 3, 70, 127
8, 478920, Note_on_c, 3, 76, 127
8, 479040, Note_off_c, 3, 76, 127
8, 479040, Note_on_c, 3, 73, 127
8, 479160, Note_off_c, 3, 73, 127
8, 479160, Note_on_c, 3, 73, 127
8, 479280, Note_off_c, 3, 73, 127
8, 479280, Note_on_c, 3, 73, 127
8, 479400, Note_off_c, 3, 73, 127
8, 479400, Note_on_c, 3, 73, 127
8, 479520, Note_off_c, 3, 73, 127
8, 479520, Note_on_c, 3, 73, 127
8, 479640, Note_off_c, 3, 73, 127
8, 479640, Note_on_c, 3, 73, 127
8, 479760, Note_off_c, 3, 73, 127
8, 479760, Note_on_c, 3, 73, 127
8, 479880, Note_off_c, 3, 73, 127
8, 479880, Note_on_c, 3, 73, 127
8, 479999, Note_off_c, 3, 73, 127
8, 480720, Note_on_c, 3, 71, 127
8, 480840, Note_off_c, 3, 71, 127
8, 480840, Note_on_c, 3, 73, 102
8, 480960, Note_off_c, 3, 73, 102
8, 480960, Note_on_c, 3, 74, 102
8, 481440, Note_off_c, 3, 74, 102
8, 481680, Note_on_c, 3, 73, 127
8, 481920, Note_off_c, 3, 73, 127
8, 481920, Note_on_c, 3, 74, 102
8, 482040, Note_off_c, 3, 74, 102
8, 482040, Note_on_c, 3, 74, 102
8, 482160, Note_off_c, 3, 74, 102
8, 482160, Note_on_c, 3, 74, 102
8, 482280, Note_off_c, 3, 74, 102
8, 482280, Note_on_c, 3, 74, 102
8, 482400, Note_off_c, 3, 74, 102
8, 482400, Note_on_c, 3, 74, 102
8, 482520, Note_off_c, 3, 74, 102
8, 482520, Note_on_c, 3, 74, 102
8, 482640, Note_off_c, 3, 74, 102
8, 482640, Note_on_c, 3, 74, 102
8, 482760, Note_off_c, 3, 74, 102
8, 482760, Note_on_c, 3, 74, 102
8, 482879, Note_off_c, 3, 74, 102
8, 483600, Note_on_c, 3, 71, 127
8, 483720, Note_off_c, 3, 71, 127
8, 483720, Note_on_c, 3, 73, 102
8, 483840, Note_off_c, 3, 73, 102
8, 483840, Note_on_c, 3, 74, 102
8, 484320, Note_off_c, 3, 74, 102
8, 484560, Note_on_c, 3, 73, 127
8, 484800, Note_off_c, 3, 73, 127
8, 484800, Note_on_c, 3, 74, 102
8, 484920, Note_off_c, 3, 74, 102
8, 484920, Note_on_c, 3, 74, 102
8, 485040, Note_off_c, 3, 74, 102
8, 485040, Note_on_c, 3, 74, 102
8, 485160, Note_off_c, 3, 74, 102
8, 485160, Note_on_c, 3, 74, 102
8, 485280, Note_off_c, 3, 74, 102
8, 485280, Note_on_c, 3, 74, 102
8, 485400, Note_off_c, 3, 74, 102
8, 485400, Note_on_c, 3, 74, 102
8, 485520, Note_off_c, 3, 74, 102
8, 485520, Note_on_c, 3, 74, 102
8, 485640, Note_off_c, 3, 74, 102
8, 485640, Note_on_c, 3, 74, 102
8, 485759, Note_off_c, 3, 74, 102
8, 486480, Note_on_c, 3, 71, 127
8, 486600, Note_off_c, 3, 71, 127
8, 486600, Note_on_c, 3, 73, 102
8, 486720, Note_off_c, 3, 73, 102
8, 486720, Note_on_c, 3, 74, 102
8, 487200, Note_off_c, 3, 74, 102
8, 487440, Note_on_c, 3, 71, 127
8, 487680, Note_off_c, 3, 71, 127
8, 487680, Note_on_c, 3, 73, 102
8, 487800, Note_off_c, 3, 73, 102
8, 487800, Note_on_c, 3, 73, 102
8, 487920, Note_off_c, 3, 73, 102
8, 487920, Note_on_c, 3, 73, 102
8, 488040, Note_off_c, 3, 73, 102
8, 488040, Note_on_c, 3, 73, 102
8, 488160, Note_off_c, 3, 73, 102
8, 488160, Note_on_c, 3, 73, 102
8, 488280, Note_off_c, 3, 73, 102
8, 488280, Note_on_c, 3, 73, 102
8, 488400, Note_off_c, 3, 73, 102
8, 488400, Note_on_c, 3, 73, 102
8, 488520, Note_off_c, 3, 73, 102
8, 488520, Note_on_c, 3, 73, 102
8, 488639, Note_off_c, 3, 73, 102
8, 488880, Note_on_c, 3, 69, 127
8, 489120, Note_off_c, 3, 69, 127
8, 489120, Note_on_c, 3, 66, 127
8, 489360, Note_off_c, 3, 66, 127
8, 489360, Note_on_c, 3, 69, 127
8, 489600, Note_off_c, 3, 69, 127
8, 489600, Note_on_c, 3, 76, 127
8, 489720, Note_off_c, 3, 76, 127
8, 489720, Note_on_c, 3, 76, 127
8, 489840, Note_off_c, 3, 76, 127
8, 489840, Note_on_c, 3, 76, 127
8, 489960, Note_off_c, 3, 76, 127
8, 489960, Note_on_c, 3, 76, 127
8, 490080, Note_off_c, 3, 76, 127
8, 490080, Note_on_c, 3, 76, 127
8, 490200, Note_off_c, 3, 76, 127
8, 490200, Note_on_c, 3, 76, 127
8, 490319, Note_off_c, 3, 76, 127
8, 490320, Note_on_c, 3, 70, 127
8, 490440, Note_off_c, 3, 70, 127
8, 490440, Note_on_c, 3, 76, 127
8, 490560, Note_off_c, 3, 76, 127
8, 490560, Note_on_c, 3, 73, 127
8, 490680, Note_off_c, 3, 73, 127
8, 490680, Note_on_c, 3, 73, 127
8, 490800, Note_off_c, 3, 73, 127
8, 490800, Note_on_c, 3, 73, 127
8, 490920, Note_off_c, 3, 73, 127
8, 490920, Note_on_c, 3, 73, 127
8, 491040, Note_off_c, 3, 73, 127
8, 491040, Note_on_c, 3, 73, 127
8, 491160, Note_off_c, 3, 73, 127
8, 491160, Note_on_c, 3, 73, 127
8, 491280, Note_off_c, 3, 73, 127
8, 491280, Note_on_c, 3, 73, 127
8, 491400, Note_off_c, 3, 73, 127
8, 491400, Note_on_c, 3, 73, 127
8, 491519, Note_off_c, 3, 73, 127
8, 492000, Note_on_c, 3, 59, 127
8, 492480, Note_off_c, 3, 59, 127
8, 492480, Note_on_c, 3, 62, 127
8, 492960, Note_off_c, 3, 62, 127
8, 492960, Note_on_c, 3, 65, 127
8, 493440, Note_off_c, 3, 65, 127
8, 493440, Note_on_c, 3, 73, 127
8, 493920, Note_off_c, 3, 73, 127
8, 493920, Note_on_c, 3, 68, 127
8, 494400, Note_off_c, 3, 68, 127
8, 494400, Note_on_c, 3, 70, 127
8, 497280, Note_off_c, 3, 70, 127
8, 497760, Note_on_c, 3, 59, 127
8, 498240, Note_off_c, 3, 59, 127
8, 498240, Note_on_c, 3, 62, 127
8, 498720, Note_off_c, 3, 62, 127
8, 498720, Note_on_c, 3, 65, 127
8, 499200, Note_off_c, 3, 65, 127
8, 499200, Note_on_c, 3, 73, 127
8, 499680, Note_off_c, 3, 73, 127
8, 499680, Note_on_c, 3, 68, 127
8, 500160, Note_off_c, 3, 68, 127
8, 500160, Note_on_c, 3, 70, 127
8, 503040, Note_off_c, 3, 70, 127
8, 503520, Note_on_c, 3, 59, 127
8, 504000, Note_off_c, 3, 59, 127
8, 504000, Note_on_c, 3, 62, 127
8, 504480, Note_off_c, 3, 62, 127
8, 504480, Note_on_c, 3, 65, 127
8, 504960, Note_off_c, 3, 65, 127
8, 504960, Note_on_c, 3, 73, 127
8, 505440, Note_off_c, 3, 73, 127
8, 505440, Note_on_c, 3, 68, 127
8, 505920, Note_off_c, 3, 68, 127
8, 505920, Note_on_c, 3, 70, 127
8, 508800, Note_off_c, 3, 70, 127
8, 509280, Note_on_c, 3, 59, 127
8, 509760, Note_off_c, 3, 59, 127
8, 509760, Note_on_c, 3, 62, 127
8, 510240, Note_off_c, 3, 62, 127
8, 510240, Note_on_c, 3, 65, 127
8, 510720, Note_off_c, 3, 65, 127
8, 510720, Note_on_c, 3, 73, 127
8, 511200, Note_off_c, 3, 73, 127
8, 511200, Note_on_c, 3, 68, 127
8, 511680, Note_off_c, 3, 68, 127
8, 511680, Note_on_c, 3, 70, 127
8, 514560, Note_off_c, 3, 70, 127
8, 515040, Note_on_c, 3, 58, 127
8, 515520, Note_off_c, 3, 58, 127
8, 515520, Note_on_c, 3, 61, 127
8, 516000, Note_off_c, 3, 61, 127
8, 516000, Note_on_c, 3, 68, 127
8, 516480, Note_off_c, 3, 68, 127
8, 516480, Note_on_c, 3, 75, 127
8, 516960, Note_off_c, 3, 75, 127
8, 516960, Note_on_c, 3, 65, 127
8, 517440, Note_off_c, 3, 65, 127
8, 517440, Note_on_c, 3, 72, 127
8, 520320, Note_off_c, 3, 72, 127
8, 520800, Note_on_c, 3, 58, 127
8, 521280, Note_off_c, 3, 58, 127
8, 521280, Note_on_c, 3, 61, 127
8, 521760, Note_off_c, 3, 61, 127
8, 521760, Note_on_c, 3, 68, 127
8, 522240, Note_off_c, 3, 68, 127
8, 522240, Note_on_c, 3, 75, 127
8, 522720, Note_off_c, 3, 75, 127
8, 522720, Note_on_c, 3, 65, 127
8, 523200, Note_off_c, 3, 65, 127
8, 523200, Note_on_c, 3, 72, 127
8, 526080, Note_off_c, 3, 72, 127
8, 526560, Note_on_c, 3, 58, 127
8, 527040, Note_off_c, 3, 58, 127
8, 527040, Note_on_c, 3, 61, 127
8, 527520, Note_off_c, 3, 61, 127
8, 527520, Note_on_c, 3, 68, 127
8, 528000, Note_off_c, 3, 68, 127
8, 528000, Note_on_c, 3, 75, 127
8, 528480, Note_off_c, 3, 75, 127
8, 528480, Note_on_c, 3, 65, 127
8, 528960, Note_off_c, 3, 65, 127
8, 528960, Note_on_c, 3, 72, 127
8, 531840, Note_off_c, 3, 72, 127
8, 532320, Note_on_c, 3, 58, 127
8, 532800, Note_off_c, 3, 58, 127
8, 532800, Note_on_c, 3, 61, 127
8, 533280, Note_off_c, 3, 61, 127
8, 533280, Note_on_c, 3, 68, 127
8, 533760, Note_off_c, 3, 68, 127
8, 533760, Note_on_c, 3, 75, 127
8, 534240, Note_off_c, 3, 75, 127
8, 534240, Note_on_c, 3, 65, 127
8, 534720, Note_off_c, 3, 65, 127
8, 534720, Note_on_c, 3, 72, 127
8, 537600, Note_off_c, 3, 72, 127
8, 538080, Note_on_c, 3, 57, 127
8, 538560, Note_off_c, 3, 57, 127
8, 538560, Note_on_c, 3, 60, 127
8, 539040, Note_off_c, 3, 60, 127
8, 539040, Note_on_c, 3, 76, 127
8, 539520, Note_off_c, 3, 76, 127
8, 539520, Note_on_c, 3, 65, 127
8, 540000, Note_off_c, 3, 65, 127
8, 540000, Note_on_c, 3, 72, 127
8, 540480, Note_off_c, 3, 72, 127
8, 540480, Note_on_c, 3, 71, 127
8, 543360, Note_off_c, 3, 71, 127
8, 543840, Note_on_c, 3, 57, 127
8, 544320, Note_off_c, 3, 57, 127
8, 544320, Note_on_c, 3, 60, 127
8, 544800, Note_off_c, 3, 60, 127
8, 544800, Note_on_c, 3, 76, 127
8, 545280, Note_off_c, 3, 76, 127
8, 545280, Note_on_c, 3, 65, 127
8, 545760, Note_off_c, 3, 65, 127
8, 545760, Note_on_c, 3, 72, 127
8, 546240, Note_off_c, 3, 72, 127
8, 546240, Note_on_c, 3, 71, 127
8, 549120, Note_off_c, 3, 71, 127
8, 549600, Note_on_c, 3, 57, 127
8, 550080, Note_off_c, 3, 57, 127
8, 550080, Note_on_c, 3, 60, 127
8, 550560, Note_off_c, 3, 60, 127
8, 550560, Note_on_c, 3, 76, 127
8, 551040, Note_off_c, 3, 76, 127
8, 551040, Note_on_c, 3, 65, 127
8, 551520, Note_off_c, 3, 65, 127
8, 551520, Note_on_c, 3, 72, 127
8, 552000, Note_off_c, 3, 72, 127
8, 552000, Note_on_c, 3, 71, 127
8, 554880, Note_off_c, 3, 71, 127
8, 555360, Note_on_c, 3, 57, 127
8, 555840, Note_off_c, 3, 57, 127
8, 555840, Note_on_c, 3, 60, 127
8, 556320, Note_off_c, 3, 60, 127
8, 556320, Note_on_c, 3, 76, 127
8, 556800, Note_off_c, 3, 76, 127
8, 556800, Note_on_c, 3, 65, 127
8, 557280, Note_off_c, 3, 65, 127
8, 557280, Note_on_c, 3, 72, 127
8, 557760, Note_off_c, 3, 72, 127
8, 557760, Note_on_c, 3, 71, 127
8, 560640, Note_off_c, 3, 71, 127
8, 561120, Note_on_c, 3, 58, 127
8, 561600, Note_off_c, 3, 58, 127
8, 561600, Note_on_c, 3, 61, 127
8, 562080, Note_off_c, 3, 61, 127
8, 562080, Note_on_c, 3, 70, 127
8, 562560, Note_off_c, 3, 70, 127
8, 562560, Note_on_c, 3, 80, 127
8, 563040, Note_off_c, 3, 80, 127
8, 563040, Note_on_c, 3, 77, 127
8, 563520, Note_off_c, 3, 77, 127
8, 563520, Note_on_c, 3, 75, 127
8, 566400, Note_off_c, 3, 75, 127
8, 566880, Note_on_c, 3, 58, 127
8, 567360, Note_off_c, 3, 58, 127
8, 567360, Note_on_c, 3, 61, 127
8, 567840, Note_off_c, 3, 61, 127
8, 567840, Note_on_c, 3, 70, 127
8, 568320, Note_off_c, 3, 70, 127
8, 568320, Note_on_c, 3, 80, 127
8, 568800, Note_off_c, 3, 80, 127
8, 568800, Note_on_c, 3, 77, 127
8, 569280, Note_off_c, 3, 77, 127
8, 569280, Note_on_c, 3, 75, 127
8, 572160, Note_off_c, 3, 75, 127
8, 572640, Note_on_c, 3, 58, 127
8, 573120, Note_off_c, 3, 58, 127
8, 573120, Note_on_c, 3, 61, 127
8, 573600, Note_off_c, 3, 61, 127
8, 573600, Note_on_c, 3, 70, 127
8, 574080, Note_off_c, 3, 70, 127
8, 574080, Note_on_c, 3, 80, 127
8, 574560, Note_off_c, 3, 80, 127
8, 574560, Note_on_c, 3, 77, 127
8, 575040, Note_off_c, 3, 77, 127
8, 575040, Note_on_c, 3, 75, 127
8, 577920, Note_off_c, 3, 75, 127
8, 578400, Note_on_c, 3, 58, 127
8, 578880, Note_off_c, 3, 58, 127
8, 578880, Note_on_c, 3, 61, 127
8, 579360, Note_off_c, 3, 61, 127
8, 579360, Note_on_c, 3, 70, 127
8, 579840, Note_off_c, 3, 70, 127
8, 579840, Note_on_c, 3, 80, 127
8, 580320, Note_off_c, 3, 80, 127
8, 580320, Note_on_c, 3, 77, 127
8, 580800, Note_off_c, 3, 77, 127
8, 580800, Note_on_c, 3, 75, 127
8, 583680, Note_off_c, 3, 75, 127
8, 586560, Note_on_c, 3, 71, 127
8, 586800, Note_off_c, 3, 71, 127
8, 586800, Note_on_c, 3, 72, 127
8, 587040, Note_off_c, 3, 72, 127
8, 587040, Note_on_c, 3, 74, 127
8, 587280, Note_off_c, 3, 74, 127
8, 587280, Note_on_c, 3, 75, 127
8, 587520, Note_off_c, 3, 75, 127
8, 587520, Note_on_c, 3, 77, 127
8, 587760, Note_off_c, 3, 77, 127
8, 587760, Note_on_c, 3, 79, 127
8, 588000, Note_off_c, 3, 79, 127
8, 588000, Note_on_c, 3, 80, 127
8, 588240, Note_off_c, 3, 80, 127
8, 588240, Note_on_c, 3, 79, 127
8, 588480, Note_off_c, 3, 79, 127
8, 588480, Note_on_c, 3, 77, 127
8, 588720, Note_off_c, 3, 77, 127
8, 588720, Note_on_c, 3, 75, 127
8, 588960, Note_off_c, 3, 75, 127
8, 588960, Note_on_c, 3, 74, 127
8, 589200, Note_off_c, 3, 74, 127
8, 589200, Note_on_c, 3, 72, 127
8, 589440, Note_off_c, 3, 72, 127
8, 589440, Note_on_c, 3, 71, 127
8, 592320, Note_off_c, 3, 71, 127
8, 592320, Note_on_c, 3, 70, 127
8, 592581, Note_off_c, 3, 70, 127
8, 592581, Note_on_c, 3, 65, 127
8, 592842, Note_off_c, 3, 65, 127
8, 592842, Note_on_c, 3, 65, 127
8, 593103, Note_off_c, 3, 65, 127
8, 593103, Note_on_c, 3, 65, 127
8, 593364, Note_off_c, 3, 65, 127
8, 593364, Note_on_c, 3, 69, 127
8, 593625, Note_off_c, 3, 69, 127
8, 593625, Note_on_c, 3, 67, 127
8, 593886, Note_off_c, 3, 67, 127
8, 593886, Note_on_c, 3, 72, 127
8, 594147, Note_off_c, 3, 72, 127
8, 594147, Note_on_c, 3, 72, 127
8, 594408, Note_off_c, 3, 72, 127
8, 594408, Note_on_c, 3, 72, 127
8, 594669, Note_off_c, 3, 72, 127
8, 594669, Note_on_c, 3, 67, 127
8, 594930, Note_off_c, 3, 67, 127
8, 594930, Note_on_c, 3, 69, 127
8, 595191, Note_off_c, 3, 69, 127
8, 595200, Note_on_c, 3, 69, 127
8, 595488, Note_off_c, 3, 69, 127
8, 595776, Note_on_c, 3, 72, 127
8, 596064, Note_off_c, 3, 72, 127
8, 596352, Note_on_c, 3, 74, 127
8, 596640, Note_off_c, 3, 74, 127
8, 596928, Note_on_c, 3, 67, 127
8, 597216, Note_off_c, 3, 67, 127
8, 597504, Note_on_c, 3, 70, 127
8, 597792, Note_off_c, 3, 70, 127
8, 598080, Note_on_c, 3, 69, 127
8, 600000, Note_off_c, 3, 69, 127
8, 600160, Note_on_c, 3, 70, 127
8, 600320, Note_off_c, 3, 70, 127
8, 600320, Note_on_c, 3, 70, 127
8, 600480, Note_off_c, 3, 70, 127
8, 600480, Note_on_c, 3, 67, 127
8, 600640, Note_off_c, 3, 67, 127
8, 600640, Note_on_c, 3, 67, 127
8, 600800, Note_off_c, 3, 67, 127
8, 600800, Note_on_c, 3, 70, 127
8, 600960, Note_off_c, 3, 70, 127
8, 600960, Note_on_c, 3, 69, 127
8, 602160, Note_off_c, 3, 69, 127
8, 602160, Note_on_c, 3, 62, 127
8, 602400, Note_off_c, 3, 62, 127
8, 602400, Note_on_c, 3, 64, 127
8, 602640, Note_off_c, 3, 64, 127
8, 602640, Note_on_c, 3, 65, 127
8, 602880, Note_off_c, 3, 65, 127
8, 602880, Note_on_c, 3, 67, 127
8, 603120, Note_off_c, 3, 67, 127
8, 603120, Note_on_c, 3, 69, 127
8, 603360, Note_off_c, 3, 69, 127
8, 603360, Note_on_c, 3, 70, 127
8, 603600, Note_off_c, 3, 70, 127
8, 603600, Note_on_c, 3, 72, 127
8, 603840, Note_off_c, 3, 72, 127
8, 603840, Note_on_c, 3, 74, 127
8, 604032, Note_off_c, 3, 74, 127
8, 604032, Note_on_c, 3, 76, 127
8, 604224, Note_off_c, 3, 76, 127
8, 604224, Note_on_c, 3, 77, 127
8, 604416, Note_off_c, 3, 77, 127
8, 604416, Note_on_c, 3, 79, 127
8, 604608, Note_off_c, 3, 79, 127
8, 604608, Note_on_c, 3, 81, 127
8, 604800, Note_off_c, 3, 81, 127
8, 604800, Note_on_c, 3, 83, 127
8, 608640, Note_off_c, 3, 83, 127
8, 609792, Note_on_c, 3, 81, 127
8, 609984, Note_off_c, 3, 81, 127
8, 609984, Note_on_c, 3, 83, 127
8, 610176, Note_off_c, 3, 83, 127
8, 610176, Note_on_c, 3, 78, 127
8, 610368, Note_off_c, 3, 78, 127
8, 610368, Note_on_c, 3, 80, 127
8, 610560, Note_off_c, 3, 80, 127
8, 610560, Note_on_c, 3, 73, 127
8, 612480, Note_off_c, 3, 73, 127
8, 612480, Note_on_c, 3, 85, 127
8, 612720, Note_off_c, 3, 85, 127
8, 612720, Note_on_c, 3, 83, 127
8, 612960, Note_off_c, 3, 83, 127
8, 612960, Note_on_c, 3, 81, 127
8, 613200, Note_off_c, 3, 81, 127
8, 613200, Note_on_c, 3, 80, 127
8, 613440, Note_off_c, 3, 80, 127
8, 613440, Note_on_c, 3, 78, 127
8, 613680, Note_off_c, 3, 78, 127
8, 613680, Note_on_c, 3, 76, 127
8, 613920, Note_off_c, 3, 76, 127
8, 613920, Note_on_c, 3, 75, 127
8, 614160, Note_off_c, 3, 75, 127
8, 614160, Note_on_c, 3, 73, 127
8, 614400, Note_off_c, 3, 73, 127
8, 614400, Note_on_c, 3, 71, 127
8, 614640, Note_off_c, 3, 71, 127
8, 614640, Note_on_c, 3, 69, 127
8, 614880, Note_off_c, 3, 69, 127
8, 614880, Note_on_c, 3, 68, 127
8, 615120, Note_off_c, 3, 68, 127
8, 615120, Note_on_c, 3, 66, 127
8, 615360, Note_off_c, 3, 66, 127
8, 615360, Note_on_c, 3, 65, 127
8, 617280, Note_off_c, 3, 65, 127
8, 617520, Note_on_c, 3, 67, 127
8, 617760, Note_off_c, 3, 67, 127
8, 617760, Note_on_c, 3, 68, 127
8, 618000, Note_off_c, 3, 68, 127
8, 618000, Note_on_c, 3, 70, 127
8, 618240, Note_off_c, 3, 70, 127
8, 618240, Note_on_c, 3, 67, 127
8, 619200, Note_off_c, 3, 67, 127
8, 619680, Note_on_c, 3, 67, 127
8, 621120, Note_off_c, 3, 67, 127
8, 621360, Note_on_c, 3, 63, 127
8, 621600, Note_off_c, 3, 63, 127
8, 621600, Note_on_c, 3, 66, 127
8, 621840, Note_off_c, 3, 66, 127
8, 621840, Note_on_c, 3, 58, 127
8, 622080, Note_off_c, 3, 58, 127
8, 622080, Note_on_c, 3, 60, 127
8, 622320, Note_off_c, 3, 60, 127
8, 622320, Note_on_c, 3, 64, 127
8, 622560, Note_off_c, 3, 64, 127
8, 622560, Note_on_c, 3, 68, 127
8, 622800, Note_off_c, 3, 68, 127
8, 622800, Note_on_c, 3, 60, 127
8, 623040, Note_off_c, 3, 60, 127
8, 623040, Note_on_c, 3, 65, 127
8, 624960, Note_off_c, 3, 65, 127
8, 625440, Note_on_c, 3, 65, 127
8, 625600, Note_off_c, 3, 65, 127
8, 625600, Note_on_c, 3, 65, 127
8, 625760, Note_off_c, 3, 65, 127
8, 625760, Note_on_c, 3, 65, 127
8, 625920, Note_off_c, 3, 65, 127
8, 625920, Note_on_c, 3, 65, 127
8, 626160, Note_off_c, 3, 65, 127
8, 626160, Note_on_c, 3, 65, 127
8, 626400, Note_off_c, 3, 65, 127
8, 626400, Note_on_c, 3, 65, 127
8, 626640, Note_off_c, 3, 65, 127
8, 626640, Note_on_c, 3, 65, 127
8, 626880, Note_off_c, 3, 65, 127
8, 626880, Note_on_c, 3, 65, 127
8, 627840, Note_off_c, 3, 65, 127
8, 628320, Note_on_c, 3, 67, 127
8, 628560, Note_off_c, 3, 67, 127
8, 628560, Note_on_c, 3, 69, 127
8, 628800, Note_off_c, 3, 69, 127
8, 628800, Note_on_c, 3, 71, 127
8, 629040, Note_off_c, 3, 71, 127
8, 629040, Note_on_c, 3, 72, 127
8, 629280, Note_off_c, 3, 72, 127
8, 629280, Note_on_c, 3, 74, 127
8, 629520, Note_off_c, 3, 74, 127
8, 629520, Note_on_c, 3, 76, 127
8, 629760, Note_off_c, 3, 76, 127
8, 629760, Note_on_c, 3, 76, 127
8, 630000, Note_off_c, 3, 76, 127
8, 630000, Note_on_c, 3, 72, 127
8, 630240, Note_off_c, 3, 72, 127
8, 630240, Note_on_c, 3, 71, 127
8, 630480, Note_off_c, 3, 71, 127
8, 630480, Note_on_c, 3, 67, 127
8, 630720, Note_off_c, 3, 67, 127
8, 630720, Note_on_c, 3, 65, 127
8, 630960, Note_off_c, 3, 65, 127
8, 630960, Note_on_c, 3, 72, 127
8, 631200, Note_off_c, 3, 72, 127
8, 631200, Note_on_c, 3, 71, 127
8, 631440, Note_off_c, 3, 71, 127
8, 631440, Note_on_c, 3, 67, 127
8, 631680, Note_off_c, 3, 67, 127
8, 631680, Note_on_c, 3, 64, 127
8, 631872, Note_off_c, 3, 64, 127
8, 631872, Note_on_c, 3, 59, 127
8, 632064, Note_off_c, 3, 59, 127
8, 632064, Note_on_c, 3, 62, 127
8, 632256, Note_off_c, 3, 62, 127
8, 632256, Note_on_c, 3, 67, 127
8, 632448, Note_off_c, 3, 67, 127
8, 632448, Note_on_c, 3, 64, 127
8, 632640, Note_off_c, 3, 64, 127
8, 632640, Note_on_c, 3, 66, 127
8, 632960, Note_off_c, 3, 66, 127
8, 633280, Note_on_c, 3, 66, 127
8, 633600, Note_off_c, 3, 66, 127
8, 633984, Note_on_c, 3, 66, 127
8, 634176, Note_off_c, 3, 66, 127
8, 634176, Note_on_c, 3, 66, 127
8, 634368, Note_off_c, 3, 66, 127
8, 634368, Note_on_c, 3, 66, 127
8, 634560, Note_off_c, 3, 66, 127
8, 634560, Note_on_c, 3, 66, 127
8, 638400, Note_off_c, 3, 66, 127
8, 638720, Note_on_c, 3, 66, 127
8, 638880, Note_off_c, 3, 66, 127
8, 638880, Note_on_c, 3, 66, 127
8, 639040, Note_off_c, 3, 66, 127
8, 639040, Note_on_c, 3, 66, 127
8, 639200, Note_off_c, 3, 66, 127
8, 639200, Note_on_c, 3, 66, 127
8, 639360, Note_off_c, 3, 66, 127
8, 639360, Note_on_c, 3, 66, 127
8, 639634, Note_off_c, 3, 66, 127
8, 639634, Note_on_c, 3, 68, 127
8, 639908, Note_off_c, 3, 68, 127
8, 639908, Note_on_c, 3, 69, 127
8, 640182, Note_off_c, 3, 69, 127
8, 640182, Note_on_c, 3, 71, 127
8, 640456, Note_off_c, 3, 71, 127
8, 640456, Note_on_c, 3, 72, 127
8, 640730, Note_off_c, 3, 72, 127
8, 640730, Note_on_c, 3, 74, 127
8, 641004, Note_off_c, 3, 74, 127
8, 641004, Note_on_c, 3, 75, 127
8, 641278, Note_off_c, 3, 75, 127
8, 641280, Note_on_c, 3, 78, 127
8, 642240, Note_off_c, 3, 78, 127
8, 642480, Note_on_c, 3, 74, 127
8, 642720, Note_off_c, 3, 74, 127
8, 642720, Note_on_c, 3, 69, 127
8, 642960, Note_off_c, 3, 69, 127
8, 642960, Note_on_c, 3, 67, 127
8, 643200, Note_off_c, 3, 67, 127
8, 643200, Note_on_c, 3, 74, 127
8, 643360, Note_off_c, 3, 74, 127
8, 643360, Note_on_c, 3, 75, 127
8, 643520, Note_off_c, 3, 75, 127
8, 643520, Note_on_c, 3, 70, 127
8, 643680, Note_off_c, 3, 70, 127
8, 643680, Note_on_c, 3, 69, 127
8, 645600, Note_off_c, 3, 69, 127
8, 645760, Note_on_c, 3, 67, 127
8, 645920, Note_off_c, 3, 67, 127
8, 645920, Note_on_c, 3, 70, 127
8, 646080, Note_off_c, 3, 70, 127
8, 646080, Note_on_c, 3, 69, 127
8, 648960, Note_off_c, 3, 69, 127
8, 651840, Note_on_c, 3, 65, 127
8, 651977, Note_off_c, 3, 65, 127
8, 651977, Note_on_c, 3, 67, 127
8, 652114, Note_off_c, 3, 67, 127
8, 652114, Note_on_c, 3, 67, 127
8, 652251, Note_off_c, 3, 67, 127
8, 652251, Note_on_c, 3, 72, 127
8, 652388, Note_off_c, 3, 72, 127
8, 652388, Note_on_c, 3, 70, 127
8, 652525, Note_off_c, 3, 70, 127
8, 652525, Note_on_c, 3, 67, 127
8, 652662, Note_off_c, 3, 67, 127
8, 652662, Note_on_c, 3, 62, 127
8, 652799, Note_off_c, 3, 62, 127
8, 652800, Note_on_c, 3, 64, 127
8, 653760, Note_off_c, 3, 64, 127
8, 654336, Note_on_c, 3, 67, 127
8, 654528, Note_off_c, 3, 67, 127
8, 654528, Note_on_c, 3, 74, 127
8, 654720, Note_off_c, 3, 74, 127
8, 654720, Note_on_c, 3, 71, 127
8, 654912, Note_off_c, 3, 71, 127
8, 654912, Note_on_c, 3, 72, 127
8, 655104, Note_off_c, 3, 72, 127
8, 655104, Note_on_c, 3, 76, 127
8, 655296, Note_off_c, 3, 76, 127
8, 655296, Note_on_c, 3, 77, 127
8, 655488, Note_off_c, 3, 77, 127
8, 655488, Note_on_c, 3, 74, 127
8, 655680, Note_off_c, 3, 74, 127
8, 655680, Note_on_c, 3, 72, 127
8, 655800, Note_off_c, 3, 72, 127
8, 655800, Note_on_c, 3, 77, 127
8, 655920, Note_off_c, 3, 77, 127
8, 655920, Note_on_c, 3, 76, 127
8, 656040, Note_off_c, 3, 76, 127
8, 656040, Note_on_c, 3, 72, 127
8, 656160, Note_off_c, 3, 72, 127
8, 656160, Note_on_c, 3, 76, 127
8, 658560, Note_off_c, 3, 76, 127
8, 661760, Note_on_c, 3, 76, 127
8, 662080, Note_off_c, 3, 76, 127
8, 662080, Note_on_c, 3, 76, 127
8, 662400, Note_off_c, 3, 76, 127
8, 662400, Note_on_c, 3, 76, 127
8, 662720, Note_off_c, 3, 76, 127
8, 663040, Note_on_c, 3, 76, 127
8, 663360, Note_off_c, 3, 76, 127
8, 663680, Note_on_c, 3, 76, 127
8, 664000, Note_off_c, 3, 76, 127
8, 664320, Note_on_c, 3, 76, 127
8, 664457, Note_off_c, 3, 76, 127
8, 664457, Note_on_c, 3, 74, 127
8, 664594, Note_off_c, 3, 74, 127
8, 664594, Note_on_c, 3, 71, 127
8, 664731, Note_off_c, 3, 71, 127
8, 664731, Note_on_c, 3, 76, 127
8, 664868, Note_off_c, 3, 76, 127
8, 664868, Note_on_c, 3, 74, 127
8, 665005, Note_off_c, 3, 74, 127
8, 665005, Note_on_c, 3, 76, 127
8, 665142, Note_off_c, 3, 76, 127
8, 665142, Note_on_c, 3, 77, 127
8, 665279, Note_off_c, 3, 77, 127
8, 665279, Note_on_c, 3, 68, 127
8, 666239, Note_off_c, 3, 68, 127
8, 666959, Note_on_c, 3, 68, 127
8, 667079, Note_off_c, 3, 68, 127
8, 667079, Note_on_c, 3, 69, 127
8, 667199, Note_off_c, 3, 69, 127
8, 667200, Note_on_c, 3, 74, 127
8, 667520, Note_off_c, 3, 74, 127
8, 667520, Note_on_c, 3, 71, 127
8, 667840, Note_off_c, 3, 71, 127
8, 667840, Note_on_c, 3, 72, 127
8, 668160, Note_off_c, 3, 72, 127
8, 668160, Note_on_c, 3, 76, 127
8, 668480, Note_off_c, 3, 76, 127
8, 668480, Note_on_c, 3, 77, 127
8, 668800, Note_off_c, 3, 77, 127
8, 668800, Note_on_c, 3, 74, 127
8, 669120, Note_off_c, 3, 74, 127
8, 669120, Note_on_c, 3, 76, 127
8, 672000, Note_off_c, 3, 76, 127
8, 672480, Note_on_c, 3, 76, 127
8, 672640, Note_off_c, 3, 76, 127
8, 672640, Note_on_c, 3, 77, 127
8, 672800, Note_off_c, 3, 77, 127
8, 672800, Note_on_c, 3, 76, 127
8, 672960, Note_off_c, 3, 76, 127
8, 672960, Note_on_c, 3, 74, 127
8, 673120, Note_off_c, 3, 74, 127
8, 673120, Note_on_c, 3, 76, 127
8, 673280, Note_off_c, 3, 76, 127
8, 673280, Note_on_c, 3, 77, 127
8, 673440, Note_off_c, 3, 77, 127
8, 673440, Note_on_c, 3, 79, 127
8, 673600, Note_off_c, 3, 79, 127
8, 673600, Note_on_c, 3, 81, 127
8, 673760, Note_off_c, 3, 81, 127
8, 673760, Note_on_c, 3, 76, 127
8, 673920, Note_off_c, 3, 76, 127
8, 673920, Note_on_c, 3, 76, 127
8, 674080, Note_off_c, 3, 76, 127
8, 674080, Note_on_c, 3, 77, 127
8, 674240, Note_off_c, 3, 77, 127
8, 674240, Note_on_c, 3, 79, 127
8, 674400, Note_off_c, 3, 79, 127
8, 674400, Note_on_c, 3, 74, 127
8, 674560, Note_off_c, 3, 74, 127
8, 674560, Note_on_c, 3, 76, 127
8, 674720, Note_off_c, 3, 76, 127
8, 674720, Note_on_c, 3, 77, 127
8, 674880, Note_off_c, 3, 77, 127
8, 674880, Note_on_c, 3, 79, 127
8, 675040, Note_off_c, 3, 79, 127
8, 675040, Note_on_c, 3, 81, 127
8, 675200, Note_off_c, 3, 81, 127
8, 675200, Note_on_c, 3, 76, 127
8, 675360, Note_off_c, 3, 76, 127
8, 675360, Note_on_c, 3, 76, 127
8, 675520, Note_off_c, 3, 76, 127
8, 675520, Note_on_c, 3, 77, 127
8, 675680, Note_off_c, 3, 77, 127
8, 675680, Note_on_c, 3, 79, 127
8, 675840, Note_off_c, 3, 79, 127
8, 675840, Note_on_c, 3, 82, 127
8, 676320, Note_off_c, 3, 82, 127
8, 677280, Note_on_c, 3, 81, 127
8, 677760, Note_off_c, 3, 81, 127
8, 678720, Note_on_c, 3, 74, 127
8, 679200, Note_off_c, 3, 74, 127
8, 679680, Note_on_c, 3, 69, 127
8, 680160, Note_off_c, 3, 69, 127
8, 680640, Note_on_c, 3, 74, 127
8, 681120, Note_off_c, 3, 74, 127
8, 681600, Note_on_c, 3, 79, 127
8, 682080, Note_off_c, 3, 79, 127
8, 682560, Note_on_c, 3, 76, 127
8, 683040, Note_off_c, 3, 76, 127
8, 683520, Note_on_c, 3, 72, 127
8, 684000, Note_off_c, 3, 72, 127
8, 684480, Note_on_c, 3, 69, 127
8, 685920, Note_off_c, 3, 69, 127
8, 685920, Note_on_c, 3, 76, 127
8, 687360, Note_off_c, 3, 76, 127
8, 687360, Note_on_c, 3, 75, 127
8, 687840, Note_off_c, 3, 75, 127
8, 687840, Note_on_c, 3, 68, 127
8, 688320, Note_off_c, 3, 68, 127
8, 688320, Note_on_c, 3, 61, 127
8, 688800, Note_off_c, 3, 61, 127
8, 688800, Note_on_c, 3, 60, 127
8, 689280, Note_off_c, 3, 60, 127
8, 689280, Note_on_c, 3, 61, 127
8, 689760, Note_off_c, 3, 61, 127
8, 689760, Note_on_c, 3, 68, 127
8, 690240, Note_off_c, 3, 68, 127
8, 690240, Note_on_c, 3, 64, 127
8, 690720, Note_off_c, 3, 64, 127
8, 690720, Note_on_c, 3, 66, 127
8, 691200, Note_off_c, 3, 66, 127
8, 691200, Note_on_c, 3, 67, 127
8, 691680, Note_off_c, 3, 67, 127
8, 691680, Note_on_c, 3, 72, 127
8, 692160, Note_off_c, 3, 72, 127
8, 692160, Note_on_c, 3, 72, 127
8, 692400, Note_off_c, 3, 72, 127
8, 692640, Note_on_c, 3, 72, 127
8, 692880, Note_off_c, 3, 72, 127
8, 693120, Note_on_c, 3, 72, 127
8, 696960, Note_off_c, 3, 72, 127
8, 696960, End_track
9, 0, Start_track
9, 0, Pitch_bend_c, 3, 8192
9, 0, Control_c, 3, 7, 71
9, 0, Control_c, 3, 10, 63
9, 0, Control_c, 3, 93, 0
9, 0, Control_c, 3, 91, 0
9, 0, Control_c, 3, 95, 0
9, 0, Control_c, 3, 92, 0
9, 0, Control_c, 3, 11, 127
9, 0, Program_c, 3, 11
9, 0, Control_c, 4, 7, 71
9, 0, Control_c, 4, 10, 63
9, 0, Control_c, 4, 93, 0
9, 0, Control_c, 4, 91, 0
9, 0, Control_c, 4, 95, 0
9, 0, Control_c, 4, 92, 0
9, 0, Control_c, 4, 11, 127
9, 0, Program_c, 4, 11
9, 0, Note_on_c, 3, 61, 127
9, 0, Note_on_c, 3, 56, 127
9, 2880, Note_off_c, 3, 61, 127
9, 2880, Note_off_c, 3, 56, 127
9, 2880, Note_on_c, 3, 63, 127
9, 2880, Note_on_c, 3, 56, 127
9, 3000, Note_off_c, 3, 63, 127
9, 3000, Note_on_c, 3, 63, 127
9, 3000, Note_off_c, 3, 56, 127
9, 3000, Note_on_c, 3, 56, 127
9, 3120, Note_off_c, 3, 63, 127
9, 3120, Note_on_c, 3, 63, 127
9, 3120, Note_off_c, 3, 56, 127
9, 3120, Note_on_c, 3, 56, 127
9, 3240, Note_off_c, 3, 63, 127
9, 3240, Note_on_c, 3, 63, 127
9, 3240, Note_off_c, 3, 56, 127
9, 3240, Note_on_c, 3, 56, 127
9, 3360, Note_off_c, 3, 63, 127
9, 3360, Note_on_c, 3, 63, 127
9, 3360, Note_off_c, 3, 56, 127
9, 3360, Note_on_c, 3, 56, 127
9, 3480, Note_off_c, 3, 63, 127
9, 3480, Note_on_c, 3, 63, 127
9, 3480, Note_off_c, 3, 56, 127
9, 3480, Note_on_c, 3, 56, 127
9, 3600, Note_off_c, 3, 63, 127
9, 3600, Note_on_c, 3, 63, 127
9, 3600, Note_off_c, 3, 56, 127
9, 3600, Note_on_c, 3, 56, 127
9, 3720, Note_off_c, 3, 63, 127
9, 3720, Note_on_c, 3, 63, 127
9, 3720, Note_off_c, 3, 56, 127
9, 3720, Note_on_c, 3, 56, 127
9, 3840, Note_off_c, 3, 63, 127
9, 3840, Note_on_c, 3, 63, 127
9, 3840, Note_off_c, 3, 56, 127
9, 3840, Note_on_c, 3, 56, 127
9, 3960, Note_off_c, 3, 63, 127
9, 3960, Note_on_c, 3, 63, 127
9, 3960, Note_off_c, 3, 56, 127
9, 3960, Note_on_c, 3, 56, 127
9, 4080, Note_off_c, 3, 63, 127
9, 4080, Note_on_c, 3, 63, 127
9, 4080, Note_off_c, 3, 56, 127
9, 4080, Note_on_c, 3, 56, 127
9, 4200, Note_off_c, 3, 63, 127
9, 4200, Note_on_c, 3, 63, 127
9, 4200, Note_off_c, 3, 56, 127
9, 4200, Note_on_c, 3, 56, 127
9, 4320, Note_off_c, 3, 63, 127
9, 4320, Note_on_c, 3, 63, 127
9, 4320, Note_off_c, 3, 56, 127
9, 4320, Note_on_c, 3, 56, 127
9, 4440, Note_off_c, 3, 63, 127
9, 4440, Note_on_c, 3, 63, 127
9, 4440, Note_off_c, 3, 56, 127
9, 4440, Note_on_c, 3, 56, 127
9, 4560, Note_off_c, 3, 63, 127
9, 4560, Note_on_c, 3, 63, 127
9, 4560, Note_off_c, 3, 56, 127
9, 4560, Note_on_c, 3, 56, 127
9, 4680, Note_off_c, 3, 63, 127
9, 4680, Note_on_c, 3, 63, 127
9, 4680, Note_off_c, 3, 56, 127
9, 4680, Note_on_c, 3, 56, 127
9, 4800, Note_off_c, 3, 63, 127
9, 4800, Note_on_c, 3, 63, 127
9, 4800, Note_off_c, 3, 56, 127
9, 4800, Note_on_c, 3, 56, 127
9, 4920, Note_off_c, 3, 63, 127
9, 4920, Note_on_c, 3, 63, 127
9, 4920, Note_off_c, 3, 56, 127
9, 4920, Note_on_c, 3, 56, 127
9, 5040, Note_off_c, 3, 63, 127
9, 5040, Note_on_c, 3, 63, 127
9, 5040, Note_off_c, 3, 56, 127
9, 5040, Note_on_c, 3, 56, 127
9, 5160, Note_off_c, 3, 63, 127
9, 5160, Note_on_c, 3, 63, 127
9, 5160, Note_off_c, 3, 56, 127
9, 5160, Note_on_c, 3, 56, 127
9, 5280, Note_off_c, 3, 63, 127
9, 5280, Note_on_c, 3, 63, 127
9, 5280, Note_off_c, 3, 56, 127
9, 5280, Note_on_c, 3, 56, 127
9, 5400, Note_off_c, 3, 63, 127
9, 5400, Note_on_c, 3, 63, 127
9, 5400, Note_off_c, 3, 56, 127
9, 5400, Note_on_c, 3, 56, 127
9, 5520, Note_off_c, 3, 63, 127
9, 5520, Note_on_c, 3, 63, 127
9, 5520, Note_off_c, 3, 56, 127
9, 5520, Note_on_c, 3, 56, 127
9, 5640, Note_off_c, 3, 63, 127
9, 5640, Note_on_c, 3, 63, 127
9, 5640, Note_off_c, 3, 56, 127
9, 5640, Note_on_c, 3, 56, 127
9, 5759, Note_off_c, 3, 63, 127
9, 5759, Note_off_c, 3, 56, 127
9, 5760, Note_on_c, 3, 61, 127
9, 5760, Note_on_c, 3, 56, 127
9, 8640, Note_off_c, 3, 61, 127
9, 8640, Note_off_c, 3, 56, 127
9, 8640, Note_on_c, 3, 63, 127
9, 8640, Note_on_c, 3, 56, 127
9, 8760, Note_off_c, 3, 63, 127
9, 8760, Note_on_c, 3, 63, 127
9, 8760, Note_off_c, 3, 56, 127
9, 8760, Note_on_c, 3, 56, 127
9, 8880, Note_off_c, 3, 63, 127
9, 8880, Note_on_c, 3, 63, 127
9, 8880, Note_off_c, 3, 56, 127
9, 8880, Note_on_c, 3, 56, 127
9, 9000, Note_off_c, 3, 63, 127
9, 9000, Note_on_c, 3, 63, 127
9, 9000, Note_off_c, 3, 56, 127
9, 9000, Note_on_c, 3, 56, 127
9, 9120, Note_off_c, 3, 63, 127
9, 9120, Note_on_c, 3, 63, 127
9, 9120, Note_off_c, 3, 56, 127
9, 9120, Note_on_c, 3, 56, 127
9, 9240, Note_off_c, 3, 63, 127
9, 9240, Note_on_c, 3, 63, 127
9, 9240, Note_off_c, 3, 56, 127
9, 9240, Note_on_c, 3, 56, 127
9, 9360, Note_off_c, 3, 63, 127
9, 9360, Note_on_c, 3, 63, 127
9, 9360, Note_off_c, 3, 56, 127
9, 9360, Note_on_c, 3, 56, 127
9, 9480, Note_off_c, 3, 63, 127
9, 9480, Note_on_c, 3, 63, 127
9, 9480, Note_off_c, 3, 56, 127
9, 9480, Note_on_c, 3, 56, 127
9, 9600, Note_off_c, 3, 63, 127
9, 9600, Note_on_c, 3, 63, 127
9, 9600, Note_off_c, 3, 56, 127
9, 9600, Note_on_c, 3, 56, 127
9, 9720, Note_off_c, 3, 63, 127
9, 9720, Note_on_c, 3, 63, 127
9, 9720, Note_off_c, 3, 56, 127
9, 9720, Note_on_c, 3, 56, 127
9, 9840, Note_off_c, 3, 63, 127
9, 9840, Note_on_c, 3, 63, 127
9, 9840, Note_off_c, 3, 56, 127
9, 9840, Note_on_c, 3, 56, 127
9, 9960, Note_off_c, 3, 63, 127
9, 9960, Note_on_c, 3, 63, 127
9, 9960, Note_off_c, 3, 56, 127
9, 9960, Note_on_c, 3, 56, 127
9, 10080, Note_off_c, 3, 63, 127
9, 10080, Note_on_c, 3, 63, 127
9, 10080, Note_off_c, 3, 56, 127
9, 10080, Note_on_c, 3, 56, 127
9, 10200, Note_off_c, 3, 63, 127
9, 10200, Note_on_c, 3, 63, 127
9, 10200, Note_off_c, 3, 56, 127
9, 10200, Note_on_c, 3, 56, 127
9, 10320, Note_off_c, 3, 63, 127
9, 10320, Note_on_c, 3, 63, 127
9, 10320, Note_off_c, 3, 56, 127
9, 10320, Note_on_c, 3, 56, 127
9, 10440, Note_off_c, 3, 63, 127
9, 10440, Note_on_c, 3, 63, 127
9, 10440, Note_off_c, 3, 56, 127
9, 10440, Note_on_c, 3, 56, 127
9, 10560, Note_off_c, 3, 63, 127
9, 10560, Note_on_c, 3, 63, 127
9, 10560, Note_off_c, 3, 56, 127
9, 10560, Note_on_c, 3, 56, 127
9, 10680, Note_off_c, 3, 63, 127
9, 10680, Note_on_c, 3, 63, 127
9, 10680, Note_off_c, 3, 56, 127
9, 10680, Note_on_c, 3, 56, 127
9, 10800, Note_off_c, 3, 63, 127
9, 10800, Note_on_c, 3, 63, 127
9, 10800, Note_off_c, 3, 56, 127
9, 10800, Note_on_c, 3, 56, 127
9, 10920, Note_off_c, 3, 63, 127
9, 10920, Note_on_c, 3, 63, 127
9, 10920, Note_off_c, 3, 56, 127
9, 10920, Note_on_c, 3, 56, 127
9, 11040, Note_off_c, 3, 63, 127
9, 11040, Note_on_c, 3, 63, 127
9, 11040, Note_off_c, 3, 56, 127
9, 11040, Note_on_c, 3, 56, 127
9, 11160, Note_off_c, 3, 63, 127
9, 11160, Note_on_c, 3, 63, 127
9, 11160, Note_off_c, 3, 56, 127
9, 11160, Note_on_c, 3, 56, 127
9, 11280, Note_off_c, 3, 63, 127
9, 11280, Note_on_c, 3, 63, 127
9, 11280, Note_off_c, 3, 56, 127
9, 11280, Note_on_c, 3, 56, 127
9, 11400, Note_off_c, 3, 63, 127
9, 11400, Note_on_c, 3, 63, 127
9, 11400, Note_off_c, 3, 56, 127
9, 11400, Note_on_c, 3, 56, 127
9, 11519, Note_off_c, 3, 63, 127
9, 11519, Note_off_c, 3, 56, 127
9, 11520, Note_on_c, 3, 60, 127
9, 11520, Note_on_c, 3, 55, 127
9, 14400, Note_off_c, 3, 60, 127
9, 14400, Note_off_c, 3, 55, 127
9, 14400, Note_on_c, 3, 62, 127
9, 14400, Note_on_c, 3, 55, 127
9, 14520, Note_off_c, 3, 62, 127
9, 14520, Note_on_c, 3, 62, 127
9, 14520, Note_off_c, 3, 55, 127
9, 14520, Note_on_c, 3, 55, 127
9, 14640, Note_off_c, 3, 62, 127
9, 14640, Note_on_c, 3, 62, 127
9, 14640, Note_off_c, 3, 55, 127
9, 14640, Note_on_c, 3, 55, 127
9, 14760, Note_off_c, 3, 62, 127
9, 14760, Note_on_c, 3, 62, 127
9, 14760, Note_off_c, 3, 55, 127
9, 14760, Note_on_c, 3, 55, 127
9, 14880, Note_off_c, 3, 62, 127
9, 14880, Note_on_c, 3, 62, 127
9, 14880, Note_off_c, 3, 55, 127
9, 14880, Note_on_c, 3, 55, 127
9, 15000, Note_off_c, 3, 62, 127
9, 15000, Note_on_c, 3, 62, 127
9, 15000, Note_off_c, 3, 55, 127
9, 15000, Note_on_c, 3, 55, 127
9, 15120, Note_off_c, 3, 62, 127
9, 15120, Note_on_c, 3, 62, 127
9, 15120, Note_off_c, 3, 55, 127
9, 15120, Note_on_c, 3, 55, 127
9, 15240, Note_off_c, 3, 62, 127
9, 15240, Note_on_c, 3, 62, 127
9, 15240, Note_off_c, 3, 55, 127
9, 15240, Note_on_c, 3, 55, 127
9, 15360, Note_off_c, 3, 62, 127
9, 15360, Note_on_c, 3, 62, 127
9, 15360, Note_off_c, 3, 55, 127
9, 15360, Note_on_c, 3, 55, 127
9, 15480, Note_off_c, 3, 62, 127
9, 15480, Note_on_c, 3, 62, 127
9, 15480, Note_off_c, 3, 55, 127
9, 15480, Note_on_c, 3, 55, 127
9, 15600, Note_off_c, 3, 62, 127
9, 15600, Note_on_c, 3, 62, 127
9, 15600, Note_off_c, 3, 55, 127
9, 15600, Note_on_c, 3, 55, 127
9, 15720, Note_off_c, 3, 62, 127
9, 15720, Note_on_c, 3, 62, 127
9, 15720, Note_off_c, 3, 55, 127
9, 15720, Note_on_c, 3, 55, 127
9, 15840, Note_off_c, 3, 62, 127
9, 15840, Note_on_c, 3, 62, 127
9, 15840, Note_off_c, 3, 55, 127
9, 15840, Note_on_c, 3, 55, 127
9, 15960, Note_off_c, 3, 62, 127
9, 15960, Note_on_c, 3, 62, 127
9, 15960, Note_off_c, 3, 55, 127
9, 15960, Note_on_c, 3, 55, 127
9, 16080, Note_off_c, 3, 62, 127
9, 16080, Note_on_c, 3, 62, 127
9, 16080, Note_off_c, 3, 55, 127
9, 16080, Note_on_c, 3, 55, 127
9, 16200, Note_off_c, 3, 62, 127
9, 16200, Note_on_c, 3, 62, 127
9, 16200, Note_off_c, 3, 55, 127
9, 16200, Note_on_c, 3, 55, 127
9, 16320, Note_off_c, 3, 62, 127
9, 16320, Note_on_c, 3, 62, 127
9, 16320, Note_off_c, 3, 55, 127
9, 16320, Note_on_c, 3, 55, 127
9, 16440, Note_off_c, 3, 62, 127
9, 16440, Note_on_c, 3, 62, 127
9, 16440, Note_off_c, 3, 55, 127
9, 16440, Note_on_c, 3, 55, 127
9, 16560, Note_off_c, 3, 62, 127
9, 16560, Note_on_c, 3, 62, 127
9, 16560, Note_off_c, 3, 55, 127
9, 16560, Note_on_c, 3, 55, 127
9, 16680, Note_off_c, 3, 62, 127
9, 16680, Note_on_c, 3, 62, 127
9, 16680, Note_off_c, 3, 55, 127
9, 16680, Note_on_c, 3, 55, 127
9, 16800, Note_off_c, 3, 62, 127
9, 16800, Note_on_c, 3, 62, 127
9, 16800, Note_off_c, 3, 55, 127
9, 16800, Note_on_c, 3, 55, 127
9, 16920, Note_off_c, 3, 62, 127
9, 16920, Note_on_c, 3, 62, 127
9, 16920, Note_off_c, 3, 55, 127
9, 16920, Note_on_c, 3, 55, 127
9, 17040, Note_off_c, 3, 62, 127
9, 17040, Note_on_c, 3, 62, 127
9, 17040, Note_off_c, 3, 55, 127
9, 17040, Note_on_c, 3, 55, 127
9, 17160, Note_off_c, 3, 62, 127
9, 17160, Note_on_c, 3, 62, 127
9, 17160, Note_off_c, 3, 55, 127
9, 17160, Note_on_c, 3, 55, 127
9, 17279, Note_off_c, 3, 62, 127
9, 17279, Note_off_c, 3, 55, 127
9, 17280, Note_on_c, 3, 60, 127
9, 17280, Note_on_c, 3, 55, 127
9, 20160, Note_off_c, 3, 60, 127
9, 20160, Note_off_c, 3, 55, 127
9, 20160, Note_on_c, 3, 62, 127
9, 20160, Note_on_c, 3, 55, 127
9, 20280, Note_off_c, 3, 62, 127
9, 20280, Note_on_c, 3, 62, 127
9, 20280, Note_off_c, 3, 55, 127
9, 20280, Note_on_c, 3, 55, 127
9, 20400, Note_off_c, 3, 62, 127
9, 20400, Note_on_c, 3, 62, 127
9, 20400, Note_off_c, 3, 55, 127
9, 20400, Note_on_c, 3, 55, 127
9, 20520, Note_off_c, 3, 62, 127
9, 20520, Note_on_c, 3, 62, 127
9, 20520, Note_off_c, 3, 55, 127
9, 20520, Note_on_c, 3, 55, 127
9, 20640, Note_off_c, 3, 62, 127
9, 20640, Note_on_c, 3, 62, 127
9, 20640, Note_off_c, 3, 55, 127
9, 20640, Note_on_c, 3, 55, 127
9, 20760, Note_off_c, 3, 62, 127
9, 20760, Note_on_c, 3, 62, 127
9, 20760, Note_off_c, 3, 55, 127
9, 20760, Note_on_c, 3, 55, 127
9, 20880, Note_off_c, 3, 62, 127
9, 20880, Note_on_c, 3, 62, 127
9, 20880, Note_off_c, 3, 55, 127
9, 20880, Note_on_c, 3, 55, 127
9, 21000, Note_off_c, 3, 62, 127
9, 21000, Note_on_c, 3, 62, 127
9, 21000, Note_off_c, 3, 55, 127
9, 21000, Note_on_c, 3, 55, 127
9, 21120, Note_off_c, 3, 62, 127
9, 21120, Note_on_c, 3, 62, 127
9, 21120, Note_off_c, 3, 55, 127
9, 21120, Note_on_c, 3, 55, 127
9, 21240, Note_off_c, 3, 62, 127
9, 21240, Note_on_c, 3, 62, 127
9, 21240, Note_off_c, 3, 55, 127
9, 21240, Note_on_c, 3, 55, 127
9, 21360, Note_off_c, 3, 62, 127
9, 21360, Note_on_c, 3, 62, 127
9, 21360, Note_off_c, 3, 55, 127
9, 21360, Note_on_c, 3, 55, 127
9, 21480, Note_off_c, 3, 62, 127
9, 21480, Note_on_c, 3, 62, 127
9, 21480, Note_off_c, 3, 55, 127
9, 21480, Note_on_c, 3, 55, 127
9, 21600, Note_off_c, 3, 62, 127
9, 21600, Note_on_c, 3, 62, 127
9, 21600, Note_off_c, 3, 55, 127
9, 21600, Note_on_c, 3, 55, 127
9, 21720, Note_off_c, 3, 62, 127
9, 21720, Note_on_c, 3, 62, 127
9, 21720, Note_off_c, 3, 55, 127
9, 21720, Note_on_c, 3, 55, 127
9, 21840, Note_off_c, 3, 62, 127
9, 21840, Note_on_c, 3, 62, 127
9, 21840, Note_off_c, 3, 55, 127
9, 21840, Note_on_c, 3, 55, 127
9, 21960, Note_off_c, 3, 62, 127
9, 21960, Note_on_c, 3, 62, 127
9, 21960, Note_off_c, 3, 55, 127
9, 21960, Note_on_c, 3, 55, 127
9, 22080, Note_off_c, 3, 62, 127
9, 22080, Note_on_c, 3, 62, 127
9, 22080, Note_off_c, 3, 55, 127
9, 22080, Note_on_c, 3, 55, 127
9, 22200, Note_off_c, 3, 62, 127
9, 22200, Note_on_c, 3, 62, 127
9, 22200, Note_off_c, 3, 55, 127
9, 22200, Note_on_c, 3, 55, 127
9, 22320, Note_off_c, 3, 62, 127
9, 22320, Note_on_c, 3, 62, 127
9, 22320, Note_off_c, 3, 55, 127
9, 22320, Note_on_c, 3, 55, 127
9, 22440, Note_off_c, 3, 62, 127
9, 22440, Note_on_c, 3, 62, 127
9, 22440, Note_off_c, 3, 55, 127
9, 22440, Note_on_c, 3, 55, 127
9, 22560, Note_off_c, 3, 62, 127
9, 22560, Note_on_c, 3, 62, 127
9, 22560, Note_off_c, 3, 55, 127
9, 22560, Note_on_c, 3, 55, 127
9, 22680, Note_off_c, 3, 62, 127
9, 22680, Note_on_c, 3, 62, 127
9, 22680, Note_off_c, 3, 55, 127
9, 22680, Note_on_c, 3, 55, 127
9, 22800, Note_off_c, 3, 62, 127
9, 22800, Note_on_c, 3, 62, 127
9, 22800, Note_off_c, 3, 55, 127
9, 22800, Note_on_c, 3, 55, 127
9, 22920, Note_off_c, 3, 62, 127
9, 22920, Note_on_c, 3, 62, 127
9, 22920, Note_off_c, 3, 55, 127
9, 22920, Note_on_c, 3, 55, 127
9, 23039, Note_off_c, 3, 62, 127
9, 23039, Note_off_c, 3, 55, 127
9, 23040, Note_on_c, 3, 59, 127
9, 23040, Note_on_c, 3, 54, 127
9, 25920, Note_off_c, 3, 59, 127
9, 25920, Note_off_c, 3, 54, 127
9, 25920, Note_on_c, 3, 61, 127
9, 25920, Note_on_c, 3, 54, 127
9, 26040, Note_off_c, 3, 61, 127
9, 26040, Note_on_c, 3, 61, 127
9, 26040, Note_off_c, 3, 54, 127
9, 26040, Note_on_c, 3, 54, 127
9, 26160, Note_off_c, 3, 61, 127
9, 26160, Note_on_c, 3, 61, 127
9, 26160, Note_off_c, 3, 54, 127
9, 26160, Note_on_c, 3, 54, 127
9, 26280, Note_off_c, 3, 61, 127
9, 26280, Note_on_c, 3, 61, 127
9, 26280, Note_off_c, 3, 54, 127
9, 26280, Note_on_c, 3, 54, 127
9, 26400, Note_off_c, 3, 61, 127
9, 26400, Note_on_c, 3, 61, 127
9, 26400, Note_off_c, 3, 54, 127
9, 26400, Note_on_c, 3, 54, 127
9, 26520, Note_off_c, 3, 61, 127
9, 26520, Note_on_c, 3, 61, 127
9, 26520, Note_off_c, 3, 54, 127
9, 26520, Note_on_c, 3, 54, 127
9, 26640, Note_off_c, 3, 61, 127
9, 26640, Note_on_c, 3, 61, 127
9, 26640, Note_off_c, 3, 54, 127
9, 26640, Note_on_c, 3, 54, 127
9, 26760, Note_off_c, 3, 61, 127
9, 26760, Note_on_c, 3, 61, 127
9, 26760, Note_off_c, 3, 54, 127
9, 26760, Note_on_c, 3, 54, 127
9, 26880, Note_off_c, 3, 61, 127
9, 26880, Note_on_c, 3, 61, 127
9, 26880, Note_off_c, 3, 54, 127
9, 26880, Note_on_c, 3, 54, 127
9, 27000, Note_off_c, 3, 61, 127
9, 27000, Note_on_c, 3, 61, 127
9, 27000, Note_off_c, 3, 54, 127
9, 27000, Note_on_c, 3, 54, 127
9, 27120, Note_off_c, 3, 61, 127
9, 27120, Note_on_c, 3, 61, 127
9, 27120, Note_off_c, 3, 54, 127
9, 27120, Note_on_c, 3, 54, 127
9, 27240, Note_off_c, 3, 61, 127
9, 27240, Note_on_c, 3, 61, 127
9, 27240, Note_off_c, 3, 54, 127
9, 27240, Note_on_c, 3, 54, 127
9, 27360, Note_off_c, 3, 61, 127
9, 27360, Note_on_c, 3, 61, 127
9, 27360, Note_off_c, 3, 54, 127
9, 27360, Note_on_c, 3, 54, 127
9, 27480, Note_off_c, 3, 61, 127
9, 27480, Note_on_c, 3, 61, 127
9, 27480, Note_off_c, 3, 54, 127
9, 27480, Note_on_c, 3, 54, 127
9, 27600, Note_off_c, 3, 61, 127
9, 27600, Note_on_c, 3, 61, 127
9, 27600, Note_off_c, 3, 54, 127
9, 27600, Note_on_c, 3, 54, 127
9, 27720, Note_off_c, 3, 61, 127
9, 27720, Note_on_c, 3, 61, 127
9, 27720, Note_off_c, 3, 54, 127
9, 27720, Note_on_c, 3, 54, 127
9, 27840, Note_off_c, 3, 61, 127
9, 27840, Note_on_c, 3, 61, 127
9, 27840, Note_off_c, 3, 54, 127
9, 27840, Note_on_c, 3, 54, 127
9, 27960, Note_off_c, 3, 61, 127
9, 27960, Note_on_c, 3, 61, 127
9, 27960, Note_off_c, 3, 54, 127
9, 27960, Note_on_c, 3, 54, 127
9, 28080, Note_off_c, 3, 61, 127
9, 28080, Note_on_c, 3, 61, 127
9, 28080, Note_off_c, 3, 54, 127
9, 28080, Note_on_c, 3, 54, 127
9, 28200, Note_off_c, 3, 61, 127
9, 28200, Note_on_c, 3, 61, 127
9, 28200, Note_off_c, 3, 54, 127
9, 28200, Note_on_c, 3, 54, 127
9, 28320, Note_off_c, 3, 61, 127
9, 28320, Note_on_c, 3, 61, 127
9, 28320, Note_off_c, 3, 54, 127
9, 28320, Note_on_c, 3, 54, 127
9, 28440, Note_off_c, 3, 61, 127
9, 28440, Note_on_c, 3, 61, 127
9, 28440, Note_off_c, 3, 54, 127
9, 28440, Note_on_c, 3, 54, 127
9, 28560, Note_off_c, 3, 61, 127
9, 28560, Note_on_c, 3, 61, 127
9, 28560, Note_off_c, 3, 54, 127
9, 28560, Note_on_c, 3, 54, 127
9, 28680, Note_off_c, 3, 61, 127
9, 28680, Note_on_c, 3, 61, 127
9, 28680, Note_off_c, 3, 54, 127
9, 28680, Note_on_c, 3, 54, 127
9, 28799, Note_off_c, 3, 61, 127
9, 28799, Note_off_c, 3, 54, 127
9, 28800, Note_on_c, 3, 59, 127
9, 28800, Note_on_c, 3, 54, 127
9, 31680, Note_off_c, 3, 59, 127
9, 31680, Note_off_c, 3, 54, 127
9, 31680, Note_on_c, 3, 61, 127
9, 31680, Note_on_c, 3, 54, 127
9, 31800, Note_off_c, 3, 61, 127
9, 31800, Note_on_c, 3, 61, 127
9, 31800, Note_off_c, 3, 54, 127
9, 31800, Note_on_c, 3, 54, 127
9, 31920, Note_off_c, 3, 61, 127
9, 31920, Note_on_c, 3, 61, 127
9, 31920, Note_off_c, 3, 54, 127
9, 31920, Note_on_c, 3, 54, 127
9, 32040, Note_off_c, 3, 61, 127
9, 32040, Note_on_c, 3, 61, 127
9, 32040, Note_off_c, 3, 54, 127
9, 32040, Note_on_c, 3, 54, 127
9, 32160, Note_off_c, 3, 61, 127
9, 32160, Note_on_c, 3, 61, 127
9, 32160, Note_off_c, 3, 54, 127
9, 32160, Note_on_c, 3, 54, 127
9, 32280, Note_off_c, 3, 61, 127
9, 32280, Note_on_c, 3, 61, 127
9, 32280, Note_off_c, 3, 54, 127
9, 32280, Note_on_c, 3, 54, 127
9, 32400, Note_off_c, 3, 61, 127
9, 32400, Note_on_c, 3, 61, 127
9, 32400, Note_off_c, 3, 54, 127
9, 32400, Note_on_c, 3, 54, 127
9, 32520, Note_off_c, 3, 61, 127
9, 32520, Note_on_c, 3, 61, 127
9, 32520, Note_off_c, 3, 54, 127
9, 32520, Note_on_c, 3, 54, 127
9, 32640, Note_off_c, 3, 61, 127
9, 32640, Note_on_c, 3, 61, 127
9, 32640, Note_off_c, 3, 54, 127
9, 32640, Note_on_c, 3, 54, 127
9, 32760, Note_off_c, 3, 61, 127
9, 32760, Note_on_c, 3, 61, 127
9, 32760, Note_off_c, 3, 54, 127
9, 32760, Note_on_c, 3, 54, 127
9, 32880, Note_off_c, 3, 61, 127
9, 32880, Note_on_c, 3, 61, 127
9, 32880, Note_off_c, 3, 54, 127
9, 32880, Note_on_c, 3, 54, 127
9, 33000, Note_off_c, 3, 61, 127
9, 33000, Note_on_c, 3, 61, 127
9, 33000, Note_off_c, 3, 54, 127
9, 33000, Note_on_c, 3, 54, 127
9, 33120, Note_off_c, 3, 61, 127
9, 33120, Note_on_c, 3, 61, 127
9, 33120, Note_off_c, 3, 54, 127
9, 33120, Note_on_c, 3, 54, 127
9, 33240, Note_off_c, 3, 61, 127
9, 33240, Note_on_c, 3, 61, 127
9, 33240, Note_off_c, 3, 54, 127
9, 33240, Note_on_c, 3, 54, 127
9, 33360, Note_off_c, 3, 61, 127
9, 33360, Note_on_c, 3, 61, 127
9, 33360, Note_off_c, 3, 54, 127
9, 33360, Note_on_c, 3, 54, 127
9, 33480, Note_off_c, 3, 61, 127
9, 33480, Note_on_c, 3, 61, 127
9, 33480, Note_off_c, 3, 54, 127
9, 33480, Note_on_c, 3, 54, 127
9, 33600, Note_off_c, 3, 61, 127
9, 33600, Note_on_c, 3, 61, 127
9, 33600, Note_off_c, 3, 54, 127
9, 33600, Note_on_c, 3, 54, 127
9, 33720, Note_off_c, 3, 61, 127
9, 33720, Note_on_c, 3, 61, 127
9, 33720, Note_off_c, 3, 54, 127
9, 33720, Note_on_c, 3, 54, 127
9, 33840, Note_off_c, 3, 61, 127
9, 33840, Note_on_c, 3, 61, 127
9, 33840, Note_off_c, 3, 54, 127
9, 33840, Note_on_c, 3, 54, 127
9, 33960, Note_off_c, 3, 61, 127
9, 33960, Note_on_c, 3, 61, 127
9, 33960, Note_off_c, 3, 54, 127
9, 33960, Note_on_c, 3, 54, 127
9, 34080, Note_off_c, 3, 61, 127
9, 34080, Note_on_c, 3, 61, 127
9, 34080, Note_off_c, 3, 54, 127
9, 34080, Note_on_c, 3, 54, 127
9, 34200, Note_off_c, 3, 61, 127
9, 34200, Note_on_c, 3, 61, 127
9, 34200, Note_off_c, 3, 54, 127
9, 34200, Note_on_c, 3, 54, 127
9, 34320, Note_off_c, 3, 61, 127
9, 34320, Note_on_c, 3, 61, 127
9, 34320, Note_off_c, 3, 54, 127
9, 34320, Note_on_c, 3, 54, 127
9, 34440, Note_off_c, 3, 61, 127
9, 34440, Note_on_c, 3, 61, 127
9, 34440, Note_off_c, 3, 54, 127
9, 34440, Note_on_c, 3, 54, 127
9, 34559, Note_off_c, 3, 61, 127
9, 34559, Note_off_c, 3, 54, 127
9, 34560, Note_on_c, 3, 58, 127
9, 34560, Note_on_c, 3, 53, 127
9, 37440, Note_off_c, 3, 58, 127
9, 37440, Note_off_c, 3, 53, 127
9, 37440, Note_on_c, 3, 60, 127
9, 37440, Note_on_c, 3, 53, 127
9, 37560, Note_off_c, 3, 60, 127
9, 37560, Note_on_c, 3, 60, 127
9, 37560, Note_off_c, 3, 53, 127
9, 37560, Note_on_c, 3, 53, 127
9, 37680, Note_off_c, 3, 60, 127
9, 37680, Note_on_c, 3, 60, 127
9, 37680, Note_off_c, 3, 53, 127
9, 37680, Note_on_c, 3, 53, 127
9, 37800, Note_off_c, 3, 60, 127
9, 37800, Note_on_c, 3, 60, 127
9, 37800, Note_off_c, 3, 53, 127
9, 37800, Note_on_c, 3, 53, 127
9, 37920, Note_off_c, 3, 60, 127
9, 37920, Note_on_c, 3, 60, 127
9, 37920, Note_off_c, 3, 53, 127
9, 37920, Note_on_c, 3, 53, 127
9, 38040, Note_off_c, 3, 60, 127
9, 38040, Note_on_c, 3, 60, 127
9, 38040, Note_off_c, 3, 53, 127
9, 38040, Note_on_c, 3, 53, 127
9, 38160, Note_off_c, 3, 60, 127
9, 38160, Note_on_c, 3, 60, 127
9, 38160, Note_off_c, 3, 53, 127
9, 38160, Note_on_c, 3, 53, 127
9, 38280, Note_off_c, 3, 60, 127
9, 38280, Note_on_c, 3, 60, 127
9, 38280, Note_off_c, 3, 53, 127
9, 38280, Note_on_c, 3, 53, 127
9, 38400, Note_off_c, 3, 60, 127
9, 38400, Note_on_c, 3, 60, 127
9, 38400, Note_off_c, 3, 53, 127
9, 38400, Note_on_c, 3, 53, 127
9, 38520, Note_off_c, 3, 60, 127
9, 38520, Note_on_c, 3, 60, 127
9, 38520, Note_off_c, 3, 53, 127
9, 38520, Note_on_c, 3, 53, 127
9, 38640, Note_off_c, 3, 60, 127
9, 38640, Note_on_c, 3, 60, 127
9, 38640, Note_off_c, 3, 53, 127
9, 38640, Note_on_c, 3, 53, 127
9, 38760, Note_off_c, 3, 60, 127
9, 38760, Note_on_c, 3, 60, 127
9, 38760, Note_off_c, 3, 53, 127
9, 38760, Note_on_c, 3, 53, 127
9, 38880, Note_off_c, 3, 60, 127
9, 38880, Note_on_c, 3, 60, 127
9, 38880, Note_off_c, 3, 53, 127
9, 38880, Note_on_c, 3, 53, 127
9, 39000, Note_off_c, 3, 60, 127
9, 39000, Note_on_c, 3, 60, 127
9, 39000, Note_off_c, 3, 53, 127
9, 39000, Note_on_c, 3, 53, 127
9, 39120, Note_off_c, 3, 60, 127
9, 39120, Note_on_c, 3, 60, 127
9, 39120, Note_off_c, 3, 53, 127
9, 39120, Note_on_c, 3, 53, 127
9, 39240, Note_off_c, 3, 60, 127
9, 39240, Note_on_c, 3, 60, 127
9, 39240, Note_off_c, 3, 53, 127
9, 39240, Note_on_c, 3, 53, 127
9, 39360, Note_off_c, 3, 60, 127
9, 39360, Note_on_c, 3, 60, 127
9, 39360, Note_off_c, 3, 53, 127
9, 39360, Note_on_c, 3, 53, 127
9, 39480, Note_off_c, 3, 60, 127
9, 39480, Note_on_c, 3, 60, 127
9, 39480, Note_off_c, 3, 53, 127
9, 39480, Note_on_c, 3, 53, 127
9, 39600, Note_off_c, 3, 60, 127
9, 39600, Note_on_c, 3, 60, 127
9, 39600, Note_off_c, 3, 53, 127
9, 39600, Note_on_c, 3, 53, 127
9, 39720, Note_off_c, 3, 60, 127
9, 39720, Note_on_c, 3, 60, 127
9, 39720, Note_off_c, 3, 53, 127
9, 39720, Note_on_c, 3, 53, 127
9, 39840, Note_off_c, 3, 60, 127
9, 39840, Note_on_c, 3, 60, 127
9, 39840, Note_off_c, 3, 53, 127
9, 39840, Note_on_c, 3, 53, 127
9, 39960, Note_off_c, 3, 60, 127
9, 39960, Note_on_c, 3, 60, 127
9, 39960, Note_off_c, 3, 53, 127
9, 39960, Note_on_c, 3, 53, 127
9, 40080, Note_off_c, 3, 60, 127
9, 40080, Note_on_c, 3, 60, 127
9, 40080, Note_off_c, 3, 53, 127
9, 40080, Note_on_c, 3, 53, 127
9, 40200, Note_off_c, 3, 60, 127
9, 40200, Note_on_c, 3, 60, 127
9, 40200, Note_off_c, 3, 53, 127
9, 40200, Note_on_c, 3, 53, 127
9, 40319, Note_off_c, 3, 60, 127
9, 40319, Note_off_c, 3, 53, 127
9, 40320, Note_on_c, 3, 58, 127
9, 40320, Note_on_c, 3, 53, 127
9, 43200, Note_off_c, 3, 58, 127
9, 43200, Note_off_c, 3, 53, 127
9, 43200, Note_on_c, 3, 60, 127
9, 43200, Note_on_c, 3, 53, 127
9, 43320, Note_off_c, 3, 60, 127
9, 43320, Note_on_c, 3, 60, 127
9, 43320, Note_off_c, 3, 53, 127
9, 43320, Note_on_c, 3, 53, 127
9, 43440, Note_off_c, 3, 60, 127
9, 43440, Note_on_c, 3, 60, 127
9, 43440, Note_off_c, 3, 53, 127
9, 43440, Note_on_c, 3, 53, 127
9, 43560, Note_off_c, 3, 60, 127
9, 43560, Note_on_c, 3, 60, 127
9, 43560, Note_off_c, 3, 53, 127
9, 43560, Note_on_c, 3, 53, 127
9, 43680, Note_off_c, 3, 60, 127
9, 43680, Note_on_c, 3, 60, 127
9, 43680, Note_off_c, 3, 53, 127
9, 43680, Note_on_c, 3, 53, 127
9, 43800, Note_off_c, 3, 60, 127
9, 43800, Note_on_c, 3, 60, 127
9, 43800, Note_off_c, 3, 53, 127
9, 43800, Note_on_c, 3, 53, 127
9, 43920, Note_off_c, 3, 60, 127
9, 43920, Note_on_c, 3, 60, 127
9, 43920, Note_off_c, 3, 53, 127
9, 43920, Note_on_c, 3, 53, 127
9, 44040, Note_off_c, 3, 60, 127
9, 44040, Note_on_c, 3, 60, 127
9, 44040, Note_off_c, 3, 53, 127
9, 44040, Note_on_c, 3, 53, 127
9, 44160, Note_off_c, 3, 60, 127
9, 44160, Note_on_c, 3, 60, 127
9, 44160, Note_off_c, 3, 53, 127
9, 44160, Note_on_c, 3, 53, 127
9, 44280, Note_off_c, 3, 60, 127
9, 44280, Note_on_c, 3, 60, 127
9, 44280, Note_off_c, 3, 53, 127
9, 44280, Note_on_c, 3, 53, 127
9, 44400, Note_off_c, 3, 60, 127
9, 44400, Note_on_c, 3, 60, 127
9, 44400, Note_off_c, 3, 53, 127
9, 44400, Note_on_c, 3, 53, 127
9, 44520, Note_off_c, 3, 60, 127
9, 44520, Note_on_c, 3, 60, 127
9, 44520, Note_off_c, 3, 53, 127
9, 44520, Note_on_c, 3, 53, 127
9, 44640, Note_off_c, 3, 60, 127
9, 44640, Note_on_c, 3, 60, 127
9, 44640, Note_off_c, 3, 53, 127
9, 44640, Note_on_c, 3, 53, 127
9, 44760, Note_off_c, 3, 60, 127
9, 44760, Note_on_c, 3, 60, 127
9, 44760, Note_off_c, 3, 53, 127
9, 44760, Note_on_c, 3, 53, 127
9, 44880, Note_off_c, 3, 60, 127
9, 44880, Note_on_c, 3, 60, 127
9, 44880, Note_off_c, 3, 53, 127
9, 44880, Note_on_c, 3, 53, 127
9, 45000, Note_off_c, 3, 60, 127
9, 45000, Note_on_c, 3, 60, 127
9, 45000, Note_off_c, 3, 53, 127
9, 45000, Note_on_c, 3, 53, 127
9, 45120, Note_off_c, 3, 60, 127
9, 45120, Note_on_c, 3, 60, 127
9, 45120, Note_off_c, 3, 53, 127
9, 45120, Note_on_c, 3, 53, 127
9, 45240, Note_off_c, 3, 60, 127
9, 45240, Note_on_c, 3, 60, 127
9, 45240, Note_off_c, 3, 53, 127
9, 45240, Note_on_c, 3, 53, 127
9, 45360, Note_off_c, 3, 60, 127
9, 45360, Note_on_c, 3, 60, 127
9, 45360, Note_off_c, 3, 53, 127
9, 45360, Note_on_c, 3, 53, 127
9, 45480, Note_off_c, 3, 60, 127
9, 45480, Note_on_c, 3, 60, 127
9, 45480, Note_off_c, 3, 53, 127
9, 45480, Note_on_c, 3, 53, 127
9, 45600, Note_off_c, 3, 60, 127
9, 45600, Note_on_c, 3, 60, 127
9, 45600, Note_off_c, 3, 53, 127
9, 45600, Note_on_c, 3, 53, 127
9, 45720, Note_off_c, 3, 60, 127
9, 45720, Note_on_c, 3, 60, 127
9, 45720, Note_off_c, 3, 53, 127
9, 45720, Note_on_c, 3, 53, 127
9, 45840, Note_off_c, 3, 60, 127
9, 45840, Note_on_c, 3, 60, 127
9, 45840, Note_off_c, 3, 53, 127
9, 45840, Note_on_c, 3, 53, 127
9, 45960, Note_off_c, 3, 60, 127
9, 45960, Note_on_c, 3, 60, 127
9, 45960, Note_off_c, 3, 53, 127
9, 45960, Note_on_c, 3, 53, 127
9, 46079, Note_off_c, 3, 60, 127
9, 46079, Note_off_c, 3, 53, 127
9, 46080, Note_on_c, 3, 58, 127
9, 46080, Note_on_c, 3, 53, 127
9, 47040, Note_off_c, 3, 58, 127
9, 47040, Note_off_c, 3, 53, 127
9, 47040, Note_on_c, 3, 58, 127
9, 47040, Note_on_c, 3, 53, 127
9, 47520, Note_off_c, 3, 58, 127
9, 47520, Note_off_c, 3, 53, 127
9, 48000, Note_on_c, 3, 58, 127
9, 48000, Note_on_c, 3, 53, 127
9, 48160, Note_off_c, 3, 58, 127
9, 48160, Note_off_c, 3, 53, 127
9, 48320, Note_on_c, 3, 58, 127
9, 48320, Note_on_c, 3, 53, 127
9, 48480, Note_off_c, 3, 58, 127
9, 48480, Note_off_c, 3, 53, 127
9, 48640, Note_on_c, 3, 53, 127
9, 48800, Note_off_c, 3, 53, 127
9, 48960, Note_on_c, 3, 58, 127
9, 48960, Note_on_c, 3, 53, 127
9, 49080, Note_off_c, 3, 58, 127
9, 49080, Note_on_c, 3, 58, 127
9, 49080, Note_off_c, 3, 53, 127
9, 49080, Note_on_c, 3, 53, 127
9, 49200, Note_off_c, 3, 58, 127
9, 49200, Note_on_c, 3, 58, 127
9, 49200, Note_off_c, 3, 53, 127
9, 49200, Note_on_c, 3, 53, 127
9, 49320, Note_off_c, 3, 58, 127
9, 49320, Note_on_c, 3, 58, 127
9, 49320, Note_off_c, 3, 53, 127
9, 49320, Note_on_c, 3, 53, 127
9, 49440, Note_off_c, 3, 58, 127
9, 49440, Note_on_c, 3, 58, 127
9, 49440, Note_off_c, 3, 53, 127
9, 49440, Note_on_c, 3, 53, 127
9, 49560, Note_off_c, 3, 58, 127
9, 49560, Note_on_c, 3, 58, 127
9, 49560, Note_off_c, 3, 53, 127
9, 49560, Note_on_c, 3, 53, 127
9, 49680, Note_off_c, 3, 58, 127
9, 49680, Note_on_c, 3, 58, 127
9, 49680, Note_off_c, 3, 53, 127
9, 49680, Note_on_c, 3, 53, 127
9, 49800, Note_off_c, 3, 58, 127
9, 49800, Note_on_c, 3, 58, 127
9, 49800, Note_off_c, 3, 53, 127
9, 49800, Note_on_c, 3, 53, 127
9, 49920, Note_off_c, 3, 58, 127
9, 49920, Note_on_c, 3, 58, 127
9, 49920, Note_off_c, 3, 53, 127
9, 49920, Note_on_c, 3, 53, 127
9, 50040, Note_off_c, 3, 58, 127
9, 50040, Note_on_c, 3, 58, 127
9, 50040, Note_off_c, 3, 53, 127
9, 50040, Note_on_c, 3, 53, 127
9, 50160, Note_off_c, 3, 58, 127
9, 50160, Note_on_c, 3, 58, 127
9, 50160, Note_off_c, 3, 53, 127
9, 50160, Note_on_c, 3, 53, 127
9, 50280, Note_off_c, 3, 58, 127
9, 50280, Note_on_c, 3, 58, 127
9, 50280, Note_off_c, 3, 53, 127
9, 50280, Note_on_c, 3, 53, 127
9, 50400, Note_off_c, 3, 58, 127
9, 50400, Note_on_c, 3, 58, 127
9, 50400, Note_off_c, 3, 53, 127
9, 50400, Note_on_c, 3, 53, 127
9, 50520, Note_off_c, 3, 58, 127
9, 50520, Note_on_c, 3, 58, 127
9, 50520, Note_off_c, 3, 53, 127
9, 50520, Note_on_c, 3, 53, 127
9, 50640, Note_off_c, 3, 58, 127
9, 50640, Note_on_c, 3, 58, 127
9, 50640, Note_off_c, 3, 53, 127
9, 50640, Note_on_c, 3, 53, 127
9, 50760, Note_off_c, 3, 58, 127
9, 50760, Note_on_c, 3, 58, 127
9, 50760, Note_off_c, 3, 53, 127
9, 50760, Note_on_c, 3, 53, 127
9, 50880, Note_off_c, 3, 58, 127
9, 50880, Note_on_c, 3, 58, 127
9, 50880, Note_off_c, 3, 53, 127
9, 50880, Note_on_c, 3, 53, 127
9, 51000, Note_off_c, 3, 58, 127
9, 51000, Note_on_c, 3, 58, 127
9, 51000, Note_off_c, 3, 53, 127
9, 51000, Note_on_c, 3, 53, 127
9, 51120, Note_off_c, 3, 58, 127
9, 51120, Note_on_c, 3, 58, 127
9, 51120, Note_off_c, 3, 53, 127
9, 51120, Note_on_c, 3, 53, 127
9, 51240, Note_off_c, 3, 58, 127
9, 51240, Note_on_c, 3, 58, 127
9, 51240, Note_off_c, 3, 53, 127
9, 51240, Note_on_c, 3, 53, 127
9, 51360, Note_off_c, 3, 58, 127
9, 51360, Note_on_c, 3, 58, 127
9, 51360, Note_off_c, 3, 53, 127
9, 51360, Note_on_c, 3, 53, 127
9, 51480, Note_off_c, 3, 58, 127
9, 51480, Note_on_c, 3, 58, 127
9, 51480, Note_off_c, 3, 53, 127
9, 51480, Note_on_c, 3, 53, 127
9, 51600, Note_off_c, 3, 58, 127
9, 51600, Note_on_c, 3, 58, 127
9, 51600, Note_off_c, 3, 53, 127
9, 51600, Note_on_c, 3, 53, 127
9, 51720, Note_off_c, 3, 58, 127
9, 51720, Note_on_c, 3, 58, 127
9, 51720, Note_off_c, 3, 53, 127
9, 51720, Note_on_c, 3, 53, 127
9, 51839, Note_off_c, 3, 58, 127
9, 51839, Note_off_c, 3, 53, 127
9, 51840, Note_on_c, 3, 53, 127
9, 52080, Note_off_c, 3, 53, 127
9, 52320, Note_on_c, 3, 53, 127
9, 52560, Note_off_c, 3, 53, 127
9, 52800, Note_on_c, 3, 58, 127
9, 52800, Note_on_c, 3, 53, 127
9, 52920, Note_off_c, 3, 58, 127
9, 52920, Note_on_c, 3, 58, 127
9, 52920, Note_off_c, 3, 53, 127
9, 52920, Note_on_c, 3, 53, 127
9, 53040, Note_off_c, 3, 58, 127
9, 53040, Note_on_c, 3, 58, 127
9, 53040, Note_off_c, 3, 53, 127
9, 53040, Note_on_c, 3, 53, 127
9, 53160, Note_off_c, 3, 58, 127
9, 53160, Note_on_c, 3, 58, 127
9, 53160, Note_off_c, 3, 53, 127
9, 53160, Note_on_c, 3, 53, 127
9, 53280, Note_off_c, 3, 58, 127
9, 53280, Note_on_c, 3, 58, 127
9, 53280, Note_off_c, 3, 53, 127
9, 53280, Note_on_c, 3, 53, 127
9, 53400, Note_off_c, 3, 58, 127
9, 53400, Note_on_c, 3, 58, 127
9, 53400, Note_off_c, 3, 53, 127
9, 53400, Note_on_c, 3, 53, 127
9, 53520, Note_off_c, 3, 58, 127
9, 53520, Note_on_c, 3, 58, 127
9, 53520, Note_off_c, 3, 53, 127
9, 53520, Note_on_c, 3, 53, 127
9, 53640, Note_off_c, 3, 58, 127
9, 53640, Note_on_c, 3, 58, 127
9, 53640, Note_off_c, 3, 53, 127
9, 53640, Note_on_c, 3, 53, 127
9, 53760, Note_off_c, 3, 58, 127
9, 53760, Note_on_c, 3, 58, 127
9, 53760, Note_off_c, 3, 53, 127
9, 53760, Note_on_c, 3, 53, 127
9, 53880, Note_off_c, 3, 58, 127
9, 53880, Note_on_c, 3, 58, 127
9, 53880, Note_off_c, 3, 53, 127
9, 53880, Note_on_c, 3, 53, 127
9, 54000, Note_off_c, 3, 58, 127
9, 54000, Note_on_c, 3, 58, 127
9, 54000, Note_off_c, 3, 53, 127
9, 54000, Note_on_c, 3, 53, 127
9, 54120, Note_off_c, 3, 58, 127
9, 54120, Note_on_c, 3, 58, 127
9, 54120, Note_off_c, 3, 53, 127
9, 54120, Note_on_c, 3, 53, 127
9, 54240, Note_off_c, 3, 58, 127
9, 54240, Note_on_c, 3, 58, 127
9, 54240, Note_off_c, 3, 53, 127
9, 54240, Note_on_c, 3, 53, 127
9, 54360, Note_off_c, 3, 58, 127
9, 54360, Note_on_c, 3, 58, 127
9, 54360, Note_off_c, 3, 53, 127
9, 54360, Note_on_c, 3, 53, 127
9, 54480, Note_off_c, 3, 58, 127
9, 54480, Note_on_c, 3, 58, 127
9, 54480, Note_off_c, 3, 53, 127
9, 54480, Note_on_c, 3, 53, 127
9, 54600, Note_off_c, 3, 58, 127
9, 54600, Note_on_c, 3, 58, 127
9, 54600, Note_off_c, 3, 53, 127
9, 54600, Note_on_c, 3, 53, 127
9, 54719, Note_off_c, 3, 58, 127
9, 54719, Note_off_c, 3, 53, 127
9, 54720, Note_on_c, 3, 58, 127
9, 54720, Note_on_c, 3, 53, 127
9, 54880, Note_off_c, 3, 58, 127
9, 54880, Note_off_c, 3, 53, 127
9, 55040, Note_on_c, 3, 58, 127
9, 55040, Note_on_c, 3, 53, 127
9, 55200, Note_off_c, 3, 58, 127
9, 55200, Note_off_c, 3, 53, 127
9, 55360, Note_on_c, 3, 58, 127
9, 55360, Note_on_c, 3, 53, 127
9, 55520, Note_off_c, 3, 58, 127
9, 55520, Note_off_c, 3, 53, 127
9, 55680, Note_on_c, 3, 58, 127
9, 55680, Note_on_c, 3, 53, 127
9, 55800, Note_off_c, 3, 58, 127
9, 55800, Note_on_c, 3, 58, 127
9, 55800, Note_off_c, 3, 53, 127
9, 55800, Note_on_c, 3, 53, 127
9, 55920, Note_off_c, 3, 58, 127
9, 55920, Note_on_c, 3, 58, 127
9, 55920, Note_off_c, 3, 53, 127
9, 55920, Note_on_c, 3, 53, 127
9, 56040, Note_off_c, 3, 58, 127
9, 56040, Note_on_c, 3, 58, 127
9, 56040, Note_off_c, 3, 53, 127
9, 56040, Note_on_c, 3, 53, 127
9, 56160, Note_off_c, 3, 58, 127
9, 56160, Note_on_c, 3, 58, 127
9, 56160, Note_off_c, 3, 53, 127
9, 56160, Note_on_c, 3, 53, 127
9, 56280, Note_off_c, 3, 58, 127
9, 56280, Note_on_c, 3, 58, 127
9, 56280, Note_off_c, 3, 53, 127
9, 56280, Note_on_c, 3, 53, 127
9, 56400, Note_off_c, 3, 58, 127
9, 56400, Note_on_c, 3, 58, 127
9, 56400, Note_off_c, 3, 53, 127
9, 56400, Note_on_c, 3, 53, 127
9, 56520, Note_off_c, 3, 58, 127
9, 56520, Note_on_c, 3, 58, 127
9, 56520, Note_off_c, 3, 53, 127
9, 56520, Note_on_c, 3, 53, 127
9, 56640, Note_off_c, 3, 58, 127
9, 56640, Note_on_c, 3, 58, 127
9, 56640, Note_off_c, 3, 53, 127
9, 56640, Note_on_c, 3, 53, 127
9, 56760, Note_off_c, 3, 58, 127
9, 56760, Note_on_c, 3, 58, 127
9, 56760, Note_off_c, 3, 53, 127
9, 56760, Note_on_c, 3, 53, 127
9, 56880, Note_off_c, 3, 58, 127
9, 56880, Note_on_c, 3, 58, 127
9, 56880, Note_off_c, 3, 53, 127
9, 56880, Note_on_c, 3, 53, 127
9, 57000, Note_off_c, 3, 58, 127
9, 57000, Note_on_c, 3, 58, 127
9, 57000, Note_off_c, 3, 53, 127
9, 57000, Note_on_c, 3, 53, 127
9, 57120, Note_off_c, 3, 58, 127
9, 57120, Note_on_c, 3, 58, 127
9, 57120, Note_off_c, 3, 53, 127
9, 57120, Note_on_c, 3, 53, 127
9, 57240, Note_off_c, 3, 58, 127
9, 57240, Note_on_c, 3, 58, 127
9, 57240, Note_off_c, 3, 53, 127
9, 57240, Note_on_c, 3, 53, 127
9, 57360, Note_off_c, 3, 58, 127
9, 57360, Note_on_c, 3, 58, 127
9, 57360, Note_off_c, 3, 53, 127
9, 57360, Note_on_c, 3, 53, 127
9, 57480, Note_off_c, 3, 58, 127
9, 57480, Note_on_c, 3, 58, 127
9, 57480, Note_off_c, 3, 53, 127
9, 57480, Note_on_c, 3, 53, 127
9, 57599, Note_off_c, 3, 58, 127
9, 57599, Note_off_c, 3, 53, 127
9, 57600, Note_on_c, 3, 57, 127
9, 57600, Note_on_c, 3, 52, 127
9, 58080, Note_off_c, 3, 57, 127
9, 58080, Note_off_c, 3, 52, 127
9, 58080, Note_on_c, 3, 52, 127
9, 58560, Note_off_c, 3, 52, 127
9, 58560, Note_on_c, 3, 57, 127
9, 58560, Note_on_c, 3, 52, 127
9, 58680, Note_off_c, 3, 57, 127
9, 58680, Note_on_c, 3, 57, 127
9, 58680, Note_off_c, 3, 52, 127
9, 58680, Note_on_c, 3, 52, 127
9, 58800, Note_off_c, 3, 57, 127
9, 58800, Note_on_c, 3, 57, 127
9, 58800, Note_off_c, 3, 52, 127
9, 58800, Note_on_c, 3, 52, 127
9, 58920, Note_off_c, 3, 57, 127
9, 58920, Note_on_c, 3, 57, 127
9, 58920, Note_off_c, 3, 52, 127
9, 58920, Note_on_c, 3, 52, 127
9, 59040, Note_off_c, 3, 57, 127
9, 59040, Note_on_c, 3, 57, 127
9, 59040, Note_off_c, 3, 52, 127
9, 59040, Note_on_c, 3, 52, 127
9, 59160, Note_off_c, 3, 57, 127
9, 59160, Note_on_c, 3, 57, 127
9, 59160, Note_off_c, 3, 52, 127
9, 59160, Note_on_c, 3, 52, 127
9, 59280, Note_off_c, 3, 57, 127
9, 59280, Note_on_c, 3, 57, 127
9, 59280, Note_off_c, 3, 52, 127
9, 59280, Note_on_c, 3, 52, 127
9, 59400, Note_off_c, 3, 57, 127
9, 59400, Note_on_c, 3, 57, 127
9, 59400, Note_off_c, 3, 52, 127
9, 59400, Note_on_c, 3, 52, 127
9, 59520, Note_off_c, 3, 57, 127
9, 59520, Note_on_c, 3, 57, 127
9, 59520, Note_off_c, 3, 52, 127
9, 59520, Note_on_c, 3, 52, 127
9, 59640, Note_off_c, 3, 57, 127
9, 59640, Note_on_c, 3, 57, 127
9, 59640, Note_off_c, 3, 52, 127
9, 59640, Note_on_c, 3, 52, 127
9, 59760, Note_off_c, 3, 57, 127
9, 59760, Note_on_c, 3, 57, 127
9, 59760, Note_off_c, 3, 52, 127
9, 59760, Note_on_c, 3, 52, 127
9, 59880, Note_off_c, 3, 57, 127
9, 59880, Note_on_c, 3, 57, 127
9, 59880, Note_off_c, 3, 52, 127
9, 59880, Note_on_c, 3, 52, 127
9, 60000, Note_off_c, 3, 57, 127
9, 60000, Note_on_c, 3, 57, 127
9, 60000, Note_off_c, 3, 52, 127
9, 60000, Note_on_c, 3, 52, 127
9, 60120, Note_off_c, 3, 57, 127
9, 60120, Note_on_c, 3, 57, 127
9, 60120, Note_off_c, 3, 52, 127
9, 60120, Note_on_c, 3, 52, 127
9, 60240, Note_off_c, 3, 57, 127
9, 60240, Note_on_c, 3, 57, 127
9, 60240, Note_off_c, 3, 52, 127
9, 60240, Note_on_c, 3, 52, 127
9, 60360, Note_off_c, 3, 57, 127
9, 60360, Note_on_c, 3, 57, 127
9, 60360, Note_off_c, 3, 52, 127
9, 60360, Note_on_c, 3, 52, 127
9, 60479, Note_off_c, 3, 57, 127
9, 60479, Note_off_c, 3, 52, 127
9, 60480, Note_on_c, 3, 57, 127
9, 60480, Note_on_c, 3, 52, 127
9, 60600, Note_off_c, 3, 57, 127
9, 60600, Note_on_c, 3, 57, 127
9, 60600, Note_off_c, 3, 52, 127
9, 60600, Note_on_c, 3, 52, 127
9, 60720, Note_off_c, 3, 57, 127
9, 60720, Note_on_c, 3, 57, 127
9, 60720, Note_off_c, 3, 52, 127
9, 60720, Note_on_c, 3, 52, 127
9, 60840, Note_off_c, 3, 57, 127
9, 60840, Note_on_c, 3, 57, 127
9, 60840, Note_off_c, 3, 52, 127
9, 60840, Note_on_c, 3, 52, 127
9, 60960, Note_off_c, 3, 57, 127
9, 60960, Note_on_c, 3, 57, 127
9, 60960, Note_off_c, 3, 52, 127
9, 60960, Note_on_c, 3, 52, 127
9, 61080, Note_off_c, 3, 57, 127
9, 61080, Note_on_c, 3, 57, 127
9, 61080, Note_off_c, 3, 52, 127
9, 61080, Note_on_c, 3, 52, 127
9, 61200, Note_off_c, 3, 57, 127
9, 61200, Note_on_c, 3, 57, 127
9, 61200, Note_off_c, 3, 52, 127
9, 61200, Note_on_c, 3, 52, 127
9, 61320, Note_off_c, 3, 57, 127
9, 61320, Note_on_c, 3, 57, 127
9, 61320, Note_off_c, 3, 52, 127
9, 61320, Note_on_c, 3, 52, 127
9, 61440, Note_off_c, 3, 57, 127
9, 61440, Note_on_c, 3, 57, 127
9, 61440, Note_off_c, 3, 52, 127
9, 61440, Note_on_c, 3, 52, 127
9, 61560, Note_off_c, 3, 57, 127
9, 61560, Note_on_c, 3, 57, 127
9, 61560, Note_off_c, 3, 52, 127
9, 61560, Note_on_c, 3, 52, 127
9, 61680, Note_off_c, 3, 57, 127
9, 61680, Note_on_c, 3, 57, 127
9, 61680, Note_off_c, 3, 52, 127
9, 61680, Note_on_c, 3, 52, 127
9, 61800, Note_off_c, 3, 57, 127
9, 61800, Note_on_c, 3, 57, 127
9, 61800, Note_off_c, 3, 52, 127
9, 61800, Note_on_c, 3, 52, 127
9, 61920, Note_off_c, 3, 57, 127
9, 61920, Note_on_c, 3, 57, 127
9, 61920, Note_off_c, 3, 52, 127
9, 61920, Note_on_c, 3, 52, 127
9, 62040, Note_off_c, 3, 57, 127
9, 62040, Note_on_c, 3, 57, 127
9, 62040, Note_off_c, 3, 52, 127
9, 62040, Note_on_c, 3, 52, 127
9, 62160, Note_off_c, 3, 57, 127
9, 62160, Note_on_c, 3, 57, 127
9, 62160, Note_off_c, 3, 52, 127
9, 62160, Note_on_c, 3, 52, 127
9, 62280, Note_off_c, 3, 57, 127
9, 62280, Note_on_c, 3, 57, 127
9, 62280, Note_off_c, 3, 52, 127
9, 62280, Note_on_c, 3, 52, 127
9, 62400, Note_off_c, 3, 57, 127
9, 62400, Note_on_c, 3, 57, 127
9, 62400, Note_off_c, 3, 52, 127
9, 62400, Note_on_c, 3, 52, 127
9, 62520, Note_off_c, 3, 57, 127
9, 62520, Note_on_c, 3, 57, 127
9, 62520, Note_off_c, 3, 52, 127
9, 62520, Note_on_c, 3, 52, 127
9, 62640, Note_off_c, 3, 57, 127
9, 62640, Note_on_c, 3, 57, 127
9, 62640, Note_off_c, 3, 52, 127
9, 62640, Note_on_c, 3, 52, 127
9, 62760, Note_off_c, 3, 57, 127
9, 62760, Note_on_c, 3, 57, 127
9, 62760, Note_off_c, 3, 52, 127
9, 62760, Note_on_c, 3, 52, 127
9, 62880, Note_off_c, 3, 57, 127
9, 62880, Note_on_c, 3, 57, 127
9, 62880, Note_off_c, 3, 52, 127
9, 62880, Note_on_c, 3, 52, 127
9, 63000, Note_off_c, 3, 57, 127
9, 63000, Note_on_c, 3, 57, 127
9, 63000, Note_off_c, 3, 52, 127
9, 63000, Note_on_c, 3, 52, 127
9, 63120, Note_off_c, 3, 57, 127
9, 63120, Note_on_c, 3, 57, 127
9, 63120, Note_off_c, 3, 52, 127
9, 63120, Note_on_c, 3, 52, 127
9, 63240, Note_off_c, 3, 57, 127
9, 63240, Note_on_c, 3, 57, 127
9, 63240, Note_off_c, 3, 52, 127
9, 63240, Note_on_c, 3, 52, 127
9, 63359, Note_off_c, 3, 57, 127
9, 63359, Note_off_c, 3, 52, 127
9, 63360, Note_on_c, 3, 57, 127
9, 63360, Note_on_c, 3, 52, 127
9, 64320, Note_off_c, 3, 57, 127
9, 64320, Note_off_c, 3, 52, 127
9, 64320, Note_on_c, 3, 57, 127
9, 64320, Note_on_c, 3, 52, 127
9, 64440, Note_off_c, 3, 57, 127
9, 64440, Note_on_c, 3, 57, 127
9, 64440, Note_off_c, 3, 52, 127
9, 64440, Note_on_c, 3, 52, 127
9, 64560, Note_off_c, 3, 57, 127
9, 64560, Note_on_c, 3, 57, 127
9, 64560, Note_off_c, 3, 52, 127
9, 64560, Note_on_c, 3, 52, 127
9, 64680, Note_off_c, 3, 57, 127
9, 64680, Note_on_c, 3, 57, 127
9, 64680, Note_off_c, 3, 52, 127
9, 64680, Note_on_c, 3, 52, 127
9, 64800, Note_off_c, 3, 57, 127
9, 64800, Note_on_c, 3, 57, 127
9, 64800, Note_off_c, 3, 52, 127
9, 64800, Note_on_c, 3, 52, 127
9, 64920, Note_off_c, 3, 57, 127
9, 64920, Note_on_c, 3, 57, 127
9, 64920, Note_off_c, 3, 52, 127
9, 64920, Note_on_c, 3, 52, 127
9, 65040, Note_off_c, 3, 57, 127
9, 65040, Note_on_c, 3, 57, 127
9, 65040, Note_off_c, 3, 52, 127
9, 65040, Note_on_c, 3, 52, 127
9, 65160, Note_off_c, 3, 57, 127
9, 65160, Note_on_c, 3, 57, 127
9, 65160, Note_off_c, 3, 52, 127
9, 65160, Note_on_c, 3, 52, 127
9, 65280, Note_off_c, 3, 57, 127
9, 65280, Note_on_c, 3, 57, 127
9, 65280, Note_off_c, 3, 52, 127
9, 65280, Note_on_c, 3, 52, 127
9, 65400, Note_off_c, 3, 57, 127
9, 65400, Note_on_c, 3, 57, 127
9, 65400, Note_off_c, 3, 52, 127
9, 65400, Note_on_c, 3, 52, 127
9, 65520, Note_off_c, 3, 57, 127
9, 65520, Note_on_c, 3, 57, 127
9, 65520, Note_off_c, 3, 52, 127
9, 65520, Note_on_c, 3, 52, 127
9, 65640, Note_off_c, 3, 57, 127
9, 65640, Note_on_c, 3, 57, 127
9, 65640, Note_off_c, 3, 52, 127
9, 65640, Note_on_c, 3, 52, 127
9, 65760, Note_off_c, 3, 57, 127
9, 65760, Note_on_c, 3, 57, 127
9, 65760, Note_off_c, 3, 52, 127
9, 65760, Note_on_c, 3, 52, 127
9, 65880, Note_off_c, 3, 57, 127
9, 65880, Note_on_c, 3, 57, 127
9, 65880, Note_off_c, 3, 52, 127
9, 65880, Note_on_c, 3, 52, 127
9, 66000, Note_off_c, 3, 57, 127
9, 66000, Note_on_c, 3, 57, 127
9, 66000, Note_off_c, 3, 52, 127
9, 66000, Note_on_c, 3, 52, 127
9, 66120, Note_off_c, 3, 57, 127
9, 66120, Note_on_c, 3, 57, 127
9, 66120, Note_off_c, 3, 52, 127
9, 66120, Note_on_c, 3, 52, 127
9, 66239, Note_off_c, 3, 57, 127
9, 66239, Note_off_c, 3, 52, 127
9, 66240, Note_on_c, 3, 57, 127
9, 66400, Note_off_c, 3, 57, 127
9, 66560, Note_on_c, 3, 52, 127
9, 66720, Note_off_c, 3, 52, 127
9, 66880, Note_on_c, 3, 52, 127
9, 67040, Note_off_c, 3, 52, 127
9, 67200, Note_on_c, 3, 57, 127
9, 67200, Note_on_c, 3, 52, 127
9, 67320, Note_off_c, 3, 57, 127
9, 67320, Note_on_c, 3, 57, 127
9, 67320, Note_off_c, 3, 52, 127
9, 67320, Note_on_c, 3, 52, 127
9, 67440, Note_off_c, 3, 57, 127
9, 67440, Note_on_c, 3, 57, 127
9, 67440, Note_off_c, 3, 52, 127
9, 67440, Note_on_c, 3, 52, 127
9, 67560, Note_off_c, 3, 57, 127
9, 67560, Note_on_c, 3, 57, 127
9, 67560, Note_off_c, 3, 52, 127
9, 67560, Note_on_c, 3, 52, 127
9, 67680, Note_off_c, 3, 57, 127
9, 67680, Note_on_c, 3, 57, 127
9, 67680, Note_off_c, 3, 52, 127
9, 67680, Note_on_c, 3, 52, 127
9, 67800, Note_off_c, 3, 57, 127
9, 67800, Note_on_c, 3, 57, 127
9, 67800, Note_off_c, 3, 52, 127
9, 67800, Note_on_c, 3, 52, 127
9, 67920, Note_off_c, 3, 57, 127
9, 67920, Note_on_c, 3, 57, 127
9, 67920, Note_off_c, 3, 52, 127
9, 67920, Note_on_c, 3, 52, 127
9, 68040, Note_off_c, 3, 57, 127
9, 68040, Note_on_c, 3, 57, 127
9, 68040, Note_off_c, 3, 52, 127
9, 68040, Note_on_c, 3, 52, 127
9, 68160, Note_off_c, 3, 57, 127
9, 68160, Note_on_c, 3, 57, 127
9, 68160, Note_off_c, 3, 52, 127
9, 68160, Note_on_c, 3, 52, 127
9, 68280, Note_off_c, 3, 57, 127
9, 68280, Note_on_c, 3, 57, 127
9, 68280, Note_off_c, 3, 52, 127
9, 68280, Note_on_c, 3, 52, 127
9, 68400, Note_off_c, 3, 57, 127
9, 68400, Note_on_c, 3, 57, 127
9, 68400, Note_off_c, 3, 52, 127
9, 68400, Note_on_c, 3, 52, 127
9, 68520, Note_off_c, 3, 57, 127
9, 68520, Note_on_c, 3, 57, 127
9, 68520, Note_off_c, 3, 52, 127
9, 68520, Note_on_c, 3, 52, 127
9, 68640, Note_off_c, 3, 57, 127
9, 68640, Note_on_c, 3, 57, 127
9, 68640, Note_off_c, 3, 52, 127
9, 68640, Note_on_c, 3, 52, 127
9, 68760, Note_off_c, 3, 57, 127
9, 68760, Note_on_c, 3, 57, 127
9, 68760, Note_off_c, 3, 52, 127
9, 68760, Note_on_c, 3, 52, 127
9, 68880, Note_off_c, 3, 57, 127
9, 68880, Note_on_c, 3, 57, 127
9, 68880, Note_off_c, 3, 52, 127
9, 68880, Note_on_c, 3, 52, 127
9, 69000, Note_off_c, 3, 57, 127
9, 69000, Note_on_c, 3, 57, 127
9, 69000, Note_off_c, 3, 52, 127
9, 69000, Note_on_c, 3, 52, 127
9, 69119, Note_off_c, 3, 57, 127
9, 69119, Note_off_c, 3, 52, 127
9, 69120, Note_on_c, 3, 56, 127
9, 69120, Note_on_c, 3, 51, 127
9, 69240, Note_off_c, 3, 56, 127
9, 69240, Note_on_c, 3, 56, 127
9, 69240, Note_off_c, 3, 51, 127
9, 69240, Note_on_c, 3, 51, 127
9, 69360, Note_off_c, 3, 56, 127
9, 69360, Note_on_c, 3, 56, 127
9, 69360, Note_off_c, 3, 51, 127
9, 69360, Note_on_c, 3, 51, 127
9, 69480, Note_off_c, 3, 56, 127
9, 69480, Note_on_c, 3, 56, 127
9, 69480, Note_off_c, 3, 51, 127
9, 69480, Note_on_c, 3, 51, 127
9, 69600, Note_off_c, 3, 56, 127
9, 69600, Note_on_c, 3, 56, 127
9, 69600, Note_off_c, 3, 51, 127
9, 69600, Note_on_c, 3, 51, 127
9, 69720, Note_off_c, 3, 56, 127
9, 69720, Note_on_c, 3, 56, 127
9, 69720, Note_off_c, 3, 51, 127
9, 69720, Note_on_c, 3, 51, 127
9, 69840, Note_off_c, 3, 56, 127
9, 69840, Note_on_c, 3, 56, 127
9, 69840, Note_off_c, 3, 51, 127
9, 69840, Note_on_c, 3, 51, 127
9, 69960, Note_off_c, 3, 56, 127
9, 69960, Note_on_c, 3, 56, 127
9, 69960, Note_off_c, 3, 51, 127
9, 69960, Note_on_c, 3, 51, 127
9, 70079, Note_off_c, 3, 56, 127
9, 70079, Note_off_c, 3, 51, 127
9, 70080, Note_on_c, 3, 56, 127
9, 70080, Note_on_c, 3, 51, 127
9, 70560, Note_off_c, 3, 56, 127
9, 70560, Note_off_c, 3, 51, 127
9, 71040, Note_on_c, 3, 56, 127
9, 71040, Note_on_c, 3, 51, 127
9, 71280, Note_off_c, 3, 56, 127
9, 71280, Note_off_c, 3, 51, 127
9, 71520, Note_on_c, 3, 56, 127
9, 71520, Note_on_c, 3, 51, 127
9, 71760, Note_off_c, 3, 56, 127
9, 71760, Note_off_c, 3, 51, 127
9, 71760, Note_on_c, 3, 56, 127
9, 71760, Note_on_c, 3, 51, 127
9, 72000, Note_off_c, 3, 56, 127
9, 72000, Note_off_c, 3, 51, 127
9, 72000, Note_on_c, 3, 56, 127
9, 72000, Note_on_c, 3, 51, 127
9, 72120, Note_off_c, 3, 56, 127
9, 72120, Note_on_c, 3, 56, 127
9, 72120, Note_off_c, 3, 51, 127
9, 72120, Note_on_c, 3, 51, 127
9, 72240, Note_off_c, 3, 56, 127
9, 72240, Note_on_c, 3, 56, 127
9, 72240, Note_off_c, 3, 51, 127
9, 72240, Note_on_c, 3, 51, 127
9, 72360, Note_off_c, 3, 56, 127
9, 72360, Note_on_c, 3, 56, 127
9, 72360, Note_off_c, 3, 51, 127
9, 72360, Note_on_c, 3, 51, 127
9, 72480, Note_off_c, 3, 56, 127
9, 72480, Note_on_c, 3, 56, 127
9, 72480, Note_off_c, 3, 51, 127
9, 72480, Note_on_c, 3, 51, 127
9, 72600, Note_off_c, 3, 56, 127
9, 72600, Note_on_c, 3, 56, 127
9, 72600, Note_off_c, 3, 51, 127
9, 72600, Note_on_c, 3, 51, 127
9, 72720, Note_off_c, 3, 56, 127
9, 72720, Note_on_c, 3, 56, 127
9, 72720, Note_off_c, 3, 51, 127
9, 72720, Note_on_c, 3, 51, 127
9, 72840, Note_off_c, 3, 56, 127
9, 72840, Note_on_c, 3, 56, 127
9, 72840, Note_off_c, 3, 51, 127
9, 72840, Note_on_c, 3, 51, 127
9, 72960, Note_off_c, 3, 56, 127
9, 72960, Note_on_c, 3, 56, 127
9, 72960, Note_off_c, 3, 51, 127
9, 72960, Note_on_c, 3, 51, 127
9, 73080, Note_off_c, 3, 56, 127
9, 73080, Note_on_c, 3, 56, 127
9, 73080, Note_off_c, 3, 51, 127
9, 73080, Note_on_c, 3, 51, 127
9, 73200, Note_off_c, 3, 56, 127
9, 73200, Note_on_c, 3, 56, 127
9, 73200, Note_off_c, 3, 51, 127
9, 73200, Note_on_c, 3, 51, 127
9, 73320, Note_off_c, 3, 56, 127
9, 73320, Note_on_c, 3, 56, 127
9, 73320, Note_off_c, 3, 51, 127
9, 73320, Note_on_c, 3, 51, 127
9, 73440, Note_off_c, 3, 56, 127
9, 73440, Note_on_c, 3, 56, 127
9, 73440, Note_off_c, 3, 51, 127
9, 73440, Note_on_c, 3, 51, 127
9, 73560, Note_off_c, 3, 56, 127
9, 73560, Note_on_c, 3, 56, 127
9, 73560, Note_off_c, 3, 51, 127
9, 73560, Note_on_c, 3, 51, 127
9, 73680, Note_off_c, 3, 56, 127
9, 73680, Note_on_c, 3, 56, 127
9, 73680, Note_off_c, 3, 51, 127
9, 73680, Note_on_c, 3, 51, 127
9, 73800, Note_off_c, 3, 56, 127
9, 73800, Note_on_c, 3, 56, 127
9, 73800, Note_off_c, 3, 51, 127
9, 73800, Note_on_c, 3, 51, 127
9, 73920, Note_off_c, 3, 56, 127
9, 73920, Note_on_c, 3, 56, 127
9, 73920, Note_off_c, 3, 51, 127
9, 73920, Note_on_c, 3, 51, 127
9, 74040, Note_off_c, 3, 56, 127
9, 74040, Note_on_c, 3, 56, 127
9, 74040, Note_off_c, 3, 51, 127
9, 74040, Note_on_c, 3, 51, 127
9, 74160, Note_off_c, 3, 56, 127
9, 74160, Note_on_c, 3, 56, 127
9, 74160, Note_off_c, 3, 51, 127
9, 74160, Note_on_c, 3, 51, 127
9, 74280, Note_off_c, 3, 56, 127
9, 74280, Note_on_c, 3, 56, 127
9, 74280, Note_off_c, 3, 51, 127
9, 74280, Note_on_c, 3, 51, 127
9, 74400, Note_off_c, 3, 56, 127
9, 74400, Note_on_c, 3, 56, 127
9, 74400, Note_off_c, 3, 51, 127
9, 74400, Note_on_c, 3, 51, 127
9, 74520, Note_off_c, 3, 56, 127
9, 74520, Note_on_c, 3, 56, 127
9, 74520, Note_off_c, 3, 51, 127
9, 74520, Note_on_c, 3, 51, 127
9, 74640, Note_off_c, 3, 56, 127
9, 74640, Note_on_c, 3, 56, 127
9, 74640, Note_off_c, 3, 51, 127
9, 74640, Note_on_c, 3, 51, 127
9, 74760, Note_off_c, 3, 56, 127
9, 74760, Note_on_c, 3, 56, 127
9, 74760, Note_off_c, 3, 51, 127
9, 74760, Note_on_c, 3, 51, 127
9, 74879, Note_off_c, 3, 56, 127
9, 74879, Note_off_c, 3, 51, 127
9, 74880, Note_on_c, 3, 63, 127
9, 74880, Note_on_c, 3, 56, 127
9, 75000, Note_off_c, 3, 63, 127
9, 75000, Note_on_c, 3, 63, 127
9, 75000, Note_off_c, 3, 56, 127
9, 75000, Note_on_c, 3, 56, 127
9, 75120, Note_off_c, 3, 63, 127
9, 75120, Note_on_c, 3, 63, 127
9, 75120, Note_off_c, 3, 56, 127
9, 75120, Note_on_c, 3, 56, 127
9, 75240, Note_off_c, 3, 63, 127
9, 75240, Note_on_c, 3, 63, 127
9, 75240, Note_off_c, 3, 56, 127
9, 75240, Note_on_c, 3, 56, 127
9, 75360, Note_off_c, 3, 63, 127
9, 75360, Note_on_c, 3, 63, 127
9, 75360, Note_off_c, 3, 56, 127
9, 75360, Note_on_c, 3, 56, 127
9, 75480, Note_off_c, 3, 63, 127
9, 75480, Note_on_c, 3, 63, 127
9, 75480, Note_off_c, 3, 56, 127
9, 75480, Note_on_c, 3, 56, 127
9, 75600, Note_off_c, 3, 63, 127
9, 75600, Note_on_c, 3, 63, 127
9, 75600, Note_off_c, 3, 56, 127
9, 75600, Note_on_c, 3, 56, 127
9, 75720, Note_off_c, 3, 63, 127
9, 75720, Note_on_c, 3, 63, 127
9, 75720, Note_off_c, 3, 56, 127
9, 75720, Note_on_c, 3, 56, 127
9, 75840, Note_off_c, 3, 63, 127
9, 75840, Note_on_c, 3, 63, 127
9, 75840, Note_off_c, 3, 56, 127
9, 75840, Note_on_c, 3, 56, 127
9, 75960, Note_off_c, 3, 63, 127
9, 75960, Note_on_c, 3, 63, 127
9, 75960, Note_off_c, 3, 56, 127
9, 75960, Note_on_c, 3, 56, 127
9, 76080, Note_off_c, 3, 63, 127
9, 76080, Note_on_c, 3, 63, 127
9, 76080, Note_off_c, 3, 56, 127
9, 76080, Note_on_c, 3, 56, 127
9, 76200, Note_off_c, 3, 63, 127
9, 76200, Note_on_c, 3, 63, 127
9, 76200, Note_off_c, 3, 56, 127
9, 76200, Note_on_c, 3, 56, 127
9, 76320, Note_off_c, 3, 63, 127
9, 76320, Note_on_c, 3, 63, 127
9, 76320, Note_off_c, 3, 56, 127
9, 76320, Note_on_c, 3, 56, 127
9, 76440, Note_off_c, 3, 63, 127
9, 76440, Note_on_c, 3, 63, 127
9, 76440, Note_off_c, 3, 56, 127
9, 76440, Note_on_c, 3, 56, 127
9, 76560, Note_off_c, 3, 63, 127
9, 76560, Note_on_c, 3, 63, 127
9, 76560, Note_off_c, 3, 56, 127
9, 76560, Note_on_c, 3, 56, 127
9, 76680, Note_off_c, 3, 63, 127
9, 76680, Note_on_c, 3, 63, 127
9, 76680, Note_off_c, 3, 56, 127
9, 76680, Note_on_c, 3, 56, 127
9, 76800, Note_off_c, 3, 63, 127
9, 76800, Note_on_c, 3, 63, 127
9, 76800, Note_off_c, 3, 56, 127
9, 76800, Note_on_c, 3, 56, 127
9, 76920, Note_off_c, 3, 63, 127
9, 76920, Note_on_c, 3, 63, 127
9, 76920, Note_off_c, 3, 56, 127
9, 76920, Note_on_c, 3, 56, 127
9, 77040, Note_off_c, 3, 63, 127
9, 77040, Note_on_c, 3, 63, 127
9, 77040, Note_off_c, 3, 56, 127
9, 77040, Note_on_c, 3, 56, 127
9, 77160, Note_off_c, 3, 63, 127
9, 77160, Note_on_c, 3, 63, 127
9, 77160, Note_off_c, 3, 56, 127
9, 77160, Note_on_c, 3, 56, 127
9, 77280, Note_off_c, 3, 63, 127
9, 77280, Note_on_c, 3, 63, 127
9, 77280, Note_off_c, 3, 56, 127
9, 77280, Note_on_c, 3, 56, 127
9, 77400, Note_off_c, 3, 63, 127
9, 77400, Note_on_c, 3, 63, 127
9, 77400, Note_off_c, 3, 56, 127
9, 77400, Note_on_c, 3, 56, 127
9, 77520, Note_off_c, 3, 63, 127
9, 77520, Note_on_c, 3, 63, 127
9, 77520, Note_off_c, 3, 56, 127
9, 77520, Note_on_c, 3, 56, 127
9, 77640, Note_off_c, 3, 63, 127
9, 77640, Note_on_c, 3, 63, 127
9, 77640, Note_off_c, 3, 56, 127
9, 77640, Note_on_c, 3, 56, 127
9, 77760, Note_off_c, 3, 63, 127
9, 77760, Note_on_c, 3, 63, 127
9, 77760, Note_off_c, 3, 56, 127
9, 77760, Note_on_c, 3, 56, 127
9, 77880, Note_off_c, 3, 63, 127
9, 77880, Note_on_c, 3, 63, 127
9, 77880, Note_off_c, 3, 56, 127
9, 77880, Note_on_c, 3, 56, 127
9, 78000, Note_off_c, 3, 63, 127
9, 78000, Note_on_c, 3, 63, 127
9, 78000, Note_off_c, 3, 56, 127
9, 78000, Note_on_c, 3, 56, 127
9, 78120, Note_off_c, 3, 63, 127
9, 78120, Note_on_c, 3, 63, 127
9, 78120, Note_off_c, 3, 56, 127
9, 78120, Note_on_c, 3, 56, 127
9, 78240, Note_off_c, 3, 63, 127
9, 78240, Note_on_c, 3, 63, 127
9, 78240, Note_off_c, 3, 56, 127
9, 78240, Note_on_c, 3, 56, 127
9, 78360, Note_off_c, 3, 63, 127
9, 78360, Note_on_c, 3, 63, 127
9, 78360, Note_off_c, 3, 56, 127
9, 78360, Note_on_c, 3, 56, 127
9, 78480, Note_off_c, 3, 63, 127
9, 78480, Note_on_c, 3, 63, 127
9, 78480, Note_off_c, 3, 56, 127
9, 78480, Note_on_c, 3, 56, 127
9, 78600, Note_off_c, 3, 63, 127
9, 78600, Note_on_c, 3, 63, 127
9, 78600, Note_off_c, 3, 56, 127
9, 78600, Note_on_c, 3, 56, 127
9, 78720, Note_off_c, 3, 63, 127
9, 78720, Note_on_c, 3, 63, 127
9, 78720, Note_off_c, 3, 56, 127
9, 78720, Note_on_c, 3, 56, 127
9, 78840, Note_off_c, 3, 63, 127
9, 78840, Note_on_c, 3, 63, 127
9, 78840, Note_off_c, 3, 56, 127
9, 78840, Note_on_c, 3, 56, 127
9, 78960, Note_off_c, 3, 63, 127
9, 78960, Note_on_c, 3, 63, 127
9, 78960, Note_off_c, 3, 56, 127
9, 78960, Note_on_c, 3, 56, 127
9, 79080, Note_off_c, 3, 63, 127
9, 79080, Note_on_c, 3, 63, 127
9, 79080, Note_off_c, 3, 56, 127
9, 79080, Note_on_c, 3, 56, 127
9, 79200, Note_off_c, 3, 63, 127
9, 79200, Note_on_c, 3, 63, 127
9, 79200, Note_off_c, 3, 56, 127
9, 79200, Note_on_c, 3, 56, 127
9, 79320, Note_off_c, 3, 63, 127
9, 79320, Note_on_c, 3, 63, 127
9, 79320, Note_off_c, 3, 56, 127
9, 79320, Note_on_c, 3, 56, 127
9, 79440, Note_off_c, 3, 63, 127
9, 79440, Note_on_c, 3, 63, 127
9, 79440, Note_off_c, 3, 56, 127
9, 79440, Note_on_c, 3, 56, 127
9, 79560, Note_off_c, 3, 63, 127
9, 79560, Note_on_c, 3, 63, 127
9, 79560, Note_off_c, 3, 56, 127
9, 79560, Note_on_c, 3, 56, 127
9, 79680, Note_off_c, 3, 63, 127
9, 79680, Note_on_c, 3, 63, 127
9, 79680, Note_off_c, 3, 56, 127
9, 79680, Note_on_c, 3, 56, 127
9, 79800, Note_off_c, 3, 63, 127
9, 79800, Note_on_c, 3, 63, 127
9, 79800, Note_off_c, 3, 56, 127
9, 79800, Note_on_c, 3, 56, 127
9, 79920, Note_off_c, 3, 63, 127
9, 79920, Note_on_c, 3, 63, 127
9, 79920, Note_off_c, 3, 56, 127
9, 79920, Note_on_c, 3, 56, 127
9, 80040, Note_off_c, 3, 63, 127
9, 80040, Note_on_c, 3, 63, 127
9, 80040, Note_off_c, 3, 56, 127
9, 80040, Note_on_c, 3, 56, 127
9, 80160, Note_off_c, 3, 63, 127
9, 80160, Note_on_c, 3, 63, 127
9, 80160, Note_off_c, 3, 56, 127
9, 80160, Note_on_c, 3, 56, 127
9, 80280, Note_off_c, 3, 63, 127
9, 80280, Note_on_c, 3, 63, 127
9, 80280, Note_off_c, 3, 56, 127
9, 80280, Note_on_c, 3, 56, 127
9, 80400, Note_off_c, 3, 63, 127
9, 80400, Note_on_c, 3, 63, 127
9, 80400, Note_off_c, 3, 56, 127
9, 80400, Note_on_c, 3, 56, 127
9, 80520, Note_off_c, 3, 63, 127
9, 80520, Note_on_c, 3, 63, 127
9, 80520, Note_off_c, 3, 56, 127
9, 80520, Note_on_c, 3, 56, 127
9, 80639, Note_off_c, 3, 63, 127
9, 80639, Note_off_c, 3, 56, 127
9, 80640, Note_on_c, 3, 62, 127
9, 80640, Note_on_c, 3, 55, 127
9, 80760, Note_off_c, 3, 62, 127
9, 80760, Note_on_c, 3, 62, 127
9, 80760, Note_off_c, 3, 55, 127
9, 80760, Note_on_c, 3, 55, 127
9, 80880, Note_off_c, 3, 62, 127
9, 80880, Note_on_c, 3, 62, 127
9, 80880, Note_off_c, 3, 55, 127
9, 80880, Note_on_c, 3, 55, 127
9, 81000, Note_off_c, 3, 62, 127
9, 81000, Note_on_c, 3, 62, 127
9, 81000, Note_off_c, 3, 55, 127
9, 81000, Note_on_c, 3, 55, 127
9, 81120, Note_off_c, 3, 62, 127
9, 81120, Note_on_c, 3, 62, 127
9, 81120, Note_off_c, 3, 55, 127
9, 81120, Note_on_c, 3, 55, 127
9, 81240, Note_off_c, 3, 62, 127
9, 81240, Note_on_c, 3, 62, 127
9, 81240, Note_off_c, 3, 55, 127
9, 81240, Note_on_c, 3, 55, 127
9, 81360, Note_off_c, 3, 62, 127
9, 81360, Note_on_c, 3, 62, 127
9, 81360, Note_off_c, 3, 55, 127
9, 81360, Note_on_c, 3, 55, 127
9, 81480, Note_off_c, 3, 62, 127
9, 81480, Note_on_c, 3, 62, 127
9, 81480, Note_off_c, 3, 55, 127
9, 81480, Note_on_c, 3, 55, 127
9, 81599, Note_off_c, 3, 62, 127
9, 81599, Note_off_c, 3, 55, 127
9, 81600, Note_on_c, 3, 62, 127
9, 81600, Note_on_c, 3, 55, 127
9, 81840, Note_off_c, 3, 62, 127
9, 81840, Note_off_c, 3, 55, 127
9, 82080, Note_on_c, 3, 62, 127
9, 82080, Note_on_c, 3, 55, 127
9, 82320, Note_off_c, 3, 62, 127
9, 82320, Note_off_c, 3, 55, 127
9, 82320, Note_on_c, 3, 62, 127
9, 82320, Note_on_c, 3, 55, 127
9, 82560, Note_off_c, 3, 62, 127
9, 82560, Note_off_c, 3, 55, 127
9, 82560, Note_on_c, 3, 62, 127
9, 82560, Note_on_c, 3, 55, 127
9, 82800, Note_off_c, 3, 62, 127
9, 82800, Note_off_c, 3, 55, 127
9, 83040, Note_on_c, 3, 62, 127
9, 83040, Note_on_c, 3, 55, 127
9, 83280, Note_off_c, 3, 62, 127
9, 83280, Note_off_c, 3, 55, 127
9, 83280, Note_on_c, 3, 62, 127
9, 83280, Note_on_c, 3, 55, 127
9, 83520, Note_off_c, 3, 62, 127
9, 83520, Note_off_c, 3, 55, 127
9, 83520, Note_on_c, 3, 62, 127
9, 83520, Note_on_c, 3, 55, 127
9, 83640, Note_off_c, 3, 62, 127
9, 83640, Note_on_c, 3, 62, 127
9, 83640, Note_off_c, 3, 55, 127
9, 83640, Note_on_c, 3, 55, 127
9, 83760, Note_off_c, 3, 62, 127
9, 83760, Note_on_c, 3, 62, 127
9, 83760, Note_off_c, 3, 55, 127
9, 83760, Note_on_c, 3, 55, 127
9, 83880, Note_off_c, 3, 62, 127
9, 83880, Note_on_c, 3, 62, 127
9, 83880, Note_off_c, 3, 55, 127
9, 83880, Note_on_c, 3, 55, 127
9, 84000, Note_off_c, 3, 62, 127
9, 84000, Note_on_c, 3, 62, 127
9, 84000, Note_off_c, 3, 55, 127
9, 84000, Note_on_c, 3, 55, 127
9, 84120, Note_off_c, 3, 62, 127
9, 84120, Note_on_c, 3, 62, 127
9, 84120, Note_off_c, 3, 55, 127
9, 84120, Note_on_c, 3, 55, 127
9, 84240, Note_off_c, 3, 62, 127
9, 84240, Note_on_c, 3, 62, 127
9, 84240, Note_off_c, 3, 55, 127
9, 84240, Note_on_c, 3, 55, 127
9, 84360, Note_off_c, 3, 62, 127
9, 84360, Note_on_c, 3, 62, 127
9, 84360, Note_off_c, 3, 55, 127
9, 84360, Note_on_c, 3, 55, 127
9, 84480, Note_off_c, 3, 62, 127
9, 84480, Note_on_c, 3, 62, 127
9, 84480, Note_off_c, 3, 55, 127
9, 84480, Note_on_c, 3, 55, 127
9, 84600, Note_off_c, 3, 62, 127
9, 84600, Note_on_c, 3, 62, 127
9, 84600, Note_off_c, 3, 55, 127
9, 84600, Note_on_c, 3, 55, 127
9, 84720, Note_off_c, 3, 62, 127
9, 84720, Note_on_c, 3, 62, 127
9, 84720, Note_off_c, 3, 55, 127
9, 84720, Note_on_c, 3, 55, 127
9, 84840, Note_off_c, 3, 62, 127
9, 84840, Note_on_c, 3, 62, 127
9, 84840, Note_off_c, 3, 55, 127
9, 84840, Note_on_c, 3, 55, 127
9, 84960, Note_off_c, 3, 62, 127
9, 84960, Note_on_c, 3, 62, 127
9, 84960, Note_off_c, 3, 55, 127
9, 84960, Note_on_c, 3, 55, 127
9, 85080, Note_off_c, 3, 62, 127
9, 85080, Note_on_c, 3, 62, 127
9, 85080, Note_off_c, 3, 55, 127
9, 85080, Note_on_c, 3, 55, 127
9, 85200, Note_off_c, 3, 62, 127
9, 85200, Note_on_c, 3, 62, 127
9, 85200, Note_off_c, 3, 55, 127
9, 85200, Note_on_c, 3, 55, 127
9, 85320, Note_off_c, 3, 62, 127
9, 85320, Note_on_c, 3, 62, 127
9, 85320, Note_off_c, 3, 55, 127
9, 85320, Note_on_c, 3, 55, 127
9, 85440, Note_off_c, 3, 62, 127
9, 85440, Note_on_c, 3, 62, 127
9, 85440, Note_off_c, 3, 55, 127
9, 85440, Note_on_c, 3, 55, 127
9, 85560, Note_off_c, 3, 62, 127
9, 85560, Note_on_c, 3, 62, 127
9, 85560, Note_off_c, 3, 55, 127
9, 85560, Note_on_c, 3, 55, 127
9, 85680, Note_off_c, 3, 62, 127
9, 85680, Note_on_c, 3, 62, 127
9, 85680, Note_off_c, 3, 55, 127
9, 85680, Note_on_c, 3, 55, 127
9, 85800, Note_off_c, 3, 62, 127
9, 85800, Note_on_c, 3, 62, 127
9, 85800, Note_off_c, 3, 55, 127
9, 85800, Note_on_c, 3, 55, 127
9, 85920, Note_off_c, 3, 62, 127
9, 85920, Note_on_c, 3, 62, 127
9, 85920, Note_off_c, 3, 55, 127
9, 85920, Note_on_c, 3, 55, 127
9, 86040, Note_off_c, 3, 62, 127
9, 86040, Note_on_c, 3, 62, 127
9, 86040, Note_off_c, 3, 55, 127
9, 86040, Note_on_c, 3, 55, 127
9, 86160, Note_off_c, 3, 62, 127
9, 86160, Note_on_c, 3, 62, 127
9, 86160, Note_off_c, 3, 55, 127
9, 86160, Note_on_c, 3, 55, 127
9, 86280, Note_off_c, 3, 62, 127
9, 86280, Note_on_c, 3, 62, 127
9, 86280, Note_off_c, 3, 55, 127
9, 86280, Note_on_c, 3, 55, 127
9, 86399, Note_off_c, 3, 62, 127
9, 86399, Note_off_c, 3, 55, 127
9, 86400, Note_on_c, 3, 62, 127
9, 86640, Note_off_c, 3, 62, 127
9, 86880, Note_on_c, 3, 55, 127
9, 87120, Note_off_c, 3, 55, 127
9, 87360, Note_on_c, 3, 62, 127
9, 87360, Note_on_c, 3, 55, 127
9, 87480, Note_off_c, 3, 62, 127
9, 87480, Note_on_c, 3, 62, 127
9, 87480, Note_off_c, 3, 55, 127
9, 87480, Note_on_c, 3, 55, 127
9, 87600, Note_off_c, 3, 62, 127
9, 87600, Note_on_c, 3, 62, 127
9, 87600, Note_off_c, 3, 55, 127
9, 87600, Note_on_c, 3, 55, 127
9, 87720, Note_off_c, 3, 62, 127
9, 87720, Note_on_c, 3, 62, 127
9, 87720, Note_off_c, 3, 55, 127
9, 87720, Note_on_c, 3, 55, 127
9, 87840, Note_off_c, 3, 62, 127
9, 87840, Note_on_c, 3, 62, 127
9, 87840, Note_off_c, 3, 55, 127
9, 87840, Note_on_c, 3, 55, 127
9, 87960, Note_off_c, 3, 62, 127
9, 87960, Note_on_c, 3, 62, 127
9, 87960, Note_off_c, 3, 55, 127
9, 87960, Note_on_c, 3, 55, 127
9, 88080, Note_off_c, 3, 62, 127
9, 88080, Note_on_c, 3, 62, 127
9, 88080, Note_off_c, 3, 55, 127
9, 88080, Note_on_c, 3, 55, 127
9, 88200, Note_off_c, 3, 62, 127
9, 88200, Note_on_c, 3, 62, 127
9, 88200, Note_off_c, 3, 55, 127
9, 88200, Note_on_c, 3, 55, 127
9, 88320, Note_off_c, 3, 62, 127
9, 88320, Note_on_c, 3, 62, 127
9, 88320, Note_off_c, 3, 55, 127
9, 88320, Note_on_c, 3, 55, 127
9, 88440, Note_off_c, 3, 62, 127
9, 88440, Note_on_c, 3, 62, 127
9, 88440, Note_off_c, 3, 55, 127
9, 88440, Note_on_c, 3, 55, 127
9, 88560, Note_off_c, 3, 62, 127
9, 88560, Note_on_c, 3, 62, 127
9, 88560, Note_off_c, 3, 55, 127
9, 88560, Note_on_c, 3, 55, 127
9, 88680, Note_off_c, 3, 62, 127
9, 88680, Note_on_c, 3, 62, 127
9, 88680, Note_off_c, 3, 55, 127
9, 88680, Note_on_c, 3, 55, 127
9, 88800, Note_off_c, 3, 62, 127
9, 88800, Note_on_c, 3, 62, 127
9, 88800, Note_off_c, 3, 55, 127
9, 88800, Note_on_c, 3, 55, 127
9, 88920, Note_off_c, 3, 62, 127
9, 88920, Note_on_c, 3, 62, 127
9, 88920, Note_off_c, 3, 55, 127
9, 88920, Note_on_c, 3, 55, 127
9, 89040, Note_off_c, 3, 62, 127
9, 89040, Note_on_c, 3, 62, 127
9, 89040, Note_off_c, 3, 55, 127
9, 89040, Note_on_c, 3, 55, 127
9, 89160, Note_off_c, 3, 62, 127
9, 89160, Note_on_c, 3, 62, 127
9, 89160, Note_off_c, 3, 55, 127
9, 89160, Note_on_c, 3, 55, 127
9, 89279, Note_off_c, 3, 62, 127
9, 89279, Note_off_c, 3, 55, 127
9, 89280, Note_on_c, 3, 55, 127
9, 89440, Note_off_c, 3, 55, 127
9, 89600, Note_on_c, 3, 62, 127
9, 89600, Note_on_c, 3, 55, 127
9, 89760, Note_off_c, 3, 62, 127
9, 89760, Note_off_c, 3, 55, 127
9, 89920, Note_on_c, 3, 55, 127
9, 90080, Note_off_c, 3, 55, 127
9, 90240, Note_on_c, 3, 62, 127
9, 90240, Note_on_c, 3, 55, 127
9, 90360, Note_off_c, 3, 62, 127
9, 90360, Note_on_c, 3, 62, 127
9, 90360, Note_off_c, 3, 55, 127
9, 90360, Note_on_c, 3, 55, 127
9, 90480, Note_off_c, 3, 62, 127
9, 90480, Note_on_c, 3, 62, 127
9, 90480, Note_off_c, 3, 55, 127
9, 90480, Note_on_c, 3, 55, 127
9, 90600, Note_off_c, 3, 62, 127
9, 90600, Note_on_c, 3, 62, 127
9, 90600, Note_off_c, 3, 55, 127
9, 90600, Note_on_c, 3, 55, 127
9, 90720, Note_off_c, 3, 62, 127
9, 90720, Note_on_c, 3, 62, 127
9, 90720, Note_off_c, 3, 55, 127
9, 90720, Note_on_c, 3, 55, 127
9, 90840, Note_off_c, 3, 62, 127
9, 90840, Note_on_c, 3, 62, 127
9, 90840, Note_off_c, 3, 55, 127
9, 90840, Note_on_c, 3, 55, 127
9, 90960, Note_off_c, 3, 62, 127
9, 90960, Note_on_c, 3, 62, 127
9, 90960, Note_off_c, 3, 55, 127
9, 90960, Note_on_c, 3, 55, 127
9, 91080, Note_off_c, 3, 62, 127
9, 91080, Note_on_c, 3, 62, 127
9, 91080, Note_off_c, 3, 55, 127
9, 91080, Note_on_c, 3, 55, 127
9, 91200, Note_off_c, 3, 62, 127
9, 91200, Note_on_c, 3, 62, 127
9, 91200, Note_off_c, 3, 55, 127
9, 91200, Note_on_c, 3, 55, 127
9, 91320, Note_off_c, 3, 62, 127
9, 91320, Note_on_c, 3, 62, 127
9, 91320, Note_off_c, 3, 55, 127
9, 91320, Note_on_c, 3, 55, 127
9, 91440, Note_off_c, 3, 62, 127
9, 91440, Note_on_c, 3, 62, 127
9, 91440, Note_off_c, 3, 55, 127
9, 91440, Note_on_c, 3, 55, 127
9, 91560, Note_off_c, 3, 62, 127
9, 91560, Note_on_c, 3, 62, 127
9, 91560, Note_off_c, 3, 55, 127
9, 91560, Note_on_c, 3, 55, 127
9, 91680, Note_off_c, 3, 62, 127
9, 91680, Note_on_c, 3, 62, 127
9, 91680, Note_off_c, 3, 55, 127
9, 91680, Note_on_c, 3, 55, 127
9, 91800, Note_off_c, 3, 62, 127
9, 91800, Note_on_c, 3, 62, 127
9, 91800, Note_off_c, 3, 55, 127
9, 91800, Note_on_c, 3, 55, 127
9, 91920, Note_off_c, 3, 62, 127
9, 91920, Note_on_c, 3, 62, 127
9, 91920, Note_off_c, 3, 55, 127
9, 91920, Note_on_c, 3, 55, 127
9, 92040, Note_off_c, 3, 62, 127
9, 92040, Note_on_c, 3, 62, 127
9, 92040, Note_off_c, 3, 55, 127
9, 92040, Note_on_c, 3, 55, 127
9, 92159, Note_off_c, 3, 62, 127
9, 92159, Note_off_c, 3, 55, 127
9, 92160, Note_on_c, 3, 66, 127
9, 92160, Note_on_c, 3, 54, 127
9, 99840, Note_off_c, 3, 66, 127
9, 99840, Note_off_c, 3, 54, 127
9, 100320, Note_on_c, 3, 56, 127
9, 100320, Note_on_c, 3, 44, 127
9, 100800, Note_off_c, 3, 56, 127
9, 100800, Note_off_c, 3, 44, 127
9, 100800, Note_on_c, 3, 56, 127
9, 100800, Note_on_c, 3, 44, 127
9, 101280, Note_off_c, 3, 56, 127
9, 101280, Note_off_c, 3, 44, 127
9, 101280, Note_on_c, 3, 57, 127
9, 101280, Note_on_c, 3, 45, 127
9, 101760, Note_off_c, 3, 57, 127
9, 101760, Note_off_c, 3, 45, 127
9, 101760, Note_on_c, 3, 57, 127
9, 101760, Note_on_c, 3, 45, 127
9, 102240, Note_off_c, 3, 57, 127
9, 102240, Note_off_c, 3, 45, 127
9, 102240, Note_on_c, 3, 59, 127
9, 102240, Note_on_c, 3, 47, 127
9, 102720, Note_off_c, 3, 59, 127
9, 102720, Note_off_c, 3, 47, 127
9, 102720, Note_on_c, 3, 61, 127
9, 102720, Note_on_c, 3, 49, 127
9, 103200, Note_off_c, 3, 61, 127
9, 103200, Note_off_c, 3, 49, 127
9, 103200, Note_on_c, 3, 66, 127
9, 103200, Note_on_c, 3, 54, 127
9, 103680, Note_off_c, 3, 66, 127
9, 103680, Note_off_c, 3, 54, 127
9, 103680, Note_on_c, 3, 65, 127
9, 103680, Note_on_c, 3, 53, 127
9, 111360, Note_off_c, 3, 65, 127
9, 111360, Note_off_c, 3, 53, 127
9, 111840, Note_on_c, 3, 56, 127
9, 111840, Note_on_c, 3, 44, 127
9, 112320, Note_off_c, 3, 56, 127
9, 112320, Note_off_c, 3, 44, 127
9, 112320, Note_on_c, 3, 56, 127
9, 112320, Note_on_c, 3, 44, 127
9, 112800, Note_off_c, 3, 56, 127
9, 112800, Note_off_c, 3, 44, 127
9, 112800, Note_on_c, 3, 57, 127
9, 112800, Note_on_c, 3, 45, 127
9, 113280, Note_off_c, 3, 57, 127
9, 113280, Note_off_c, 3, 45, 127
9, 113280, Note_on_c, 3, 59, 127
9, 113280, Note_on_c, 3, 47, 127
9, 113760, Note_off_c, 3, 59, 127
9, 113760, Note_off_c, 3, 47, 127
9, 113760, Note_on_c, 3, 61, 127
9, 113760, Note_on_c, 3, 49, 127
9, 114240, Note_off_c, 3, 61, 127
9, 114240, Note_off_c, 3, 49, 127
9, 114240, Note_on_c, 3, 63, 127
9, 114240, Note_on_c, 3, 51, 127
9, 114720, Note_off_c, 3, 63, 127
9, 114720, Note_off_c, 3, 51, 127
9, 114720, Note_on_c, 3, 62, 127
9, 114720, Note_on_c, 3, 50, 127
9, 115200, Note_off_c, 3, 62, 127
9, 115200, Note_off_c, 3, 50, 127
9, 115200, Note_on_c, 3, 64, 127
9, 115200, Note_on_c, 3, 52, 127
9, 122880, Note_off_c, 3, 64, 127
9, 122880, Note_off_c, 3, 52, 127
9, 123360, Note_on_c, 3, 64, 127
9, 123360, Note_on_c, 3, 52, 127
9, 123840, Note_off_c, 3, 64, 127
9, 123840, Note_off_c, 3, 52, 127
9, 123840, Note_on_c, 3, 64, 127
9, 123840, Note_on_c, 3, 52, 127
9, 124320, Note_off_c, 3, 64, 127
9, 124320, Note_off_c, 3, 52, 127
9, 124320, Note_on_c, 3, 62, 127
9, 124320, Note_on_c, 3, 50, 127
9, 124800, Note_off_c, 3, 62, 127
9, 124800, Note_off_c, 3, 50, 127
9, 124800, Note_on_c, 3, 62, 127
9, 124800, Note_on_c, 3, 50, 127
9, 125280, Note_off_c, 3, 62, 127
9, 125280, Note_off_c, 3, 50, 127
9, 125280, Note_on_c, 3, 61, 127
9, 125280, Note_on_c, 3, 49, 127
9, 125760, Note_off_c, 3, 61, 127
9, 125760, Note_off_c, 3, 49, 127
9, 125760, Note_on_c, 3, 61, 127
9, 125760, Note_on_c, 3, 49, 127
9, 126240, Note_off_c, 3, 61, 127
9, 126240, Note_off_c, 3, 49, 127
9, 126240, Note_on_c, 3, 54, 127
9, 126240, Note_on_c, 3, 42, 127
9, 126720, Note_off_c, 3, 54, 127
9, 126720, Note_off_c, 3, 42, 127
9, 126720, Note_on_c, 3, 55, 127
9, 126720, Note_on_c, 3, 43, 127
9, 134400, Note_off_c, 3, 55, 127
9, 134400, Note_off_c, 3, 43, 127
9, 134880, Note_on_c, 3, 61, 127
9, 134880, Note_on_c, 3, 49, 127
9, 135360, Note_off_c, 3, 61, 127
9, 135360, Note_off_c, 3, 49, 127
9, 135360, Note_on_c, 3, 59, 127
9, 135360, Note_on_c, 3, 47, 127
9, 135840, Note_off_c, 3, 59, 127
9, 135840, Note_off_c, 3, 47, 127
9, 135840, Note_on_c, 3, 58, 127
9, 135840, Note_on_c, 3, 46, 127
9, 136320, Note_off_c, 3, 58, 127
9, 136320, Note_off_c, 3, 46, 127
9, 136320, Note_on_c, 3, 55, 127
9, 136320, Note_on_c, 3, 43, 127
9, 136800, Note_off_c, 3, 55, 127
9, 136800, Note_off_c, 3, 43, 127
9, 136800, Note_on_c, 3, 51, 127
9, 137280, Note_off_c, 3, 51, 127
9, 137280, Note_on_c, 3, 54, 127
9, 137280, Note_on_c, 3, 42, 127
9, 137760, Note_off_c, 3, 54, 127
9, 137760, Note_off_c, 3, 42, 127
9, 137760, Note_on_c, 3, 58, 127
9, 137760, Note_on_c, 3, 46, 127
9, 138240, Note_off_c, 3, 58, 127
9, 138240, Note_off_c, 3, 46, 127
9, 138240, Note_on_c, 3, 62, 127
9, 138240, Note_on_c, 3, 59, 127
9, 138360, Note_off_c, 3, 62, 127
9, 138360, Note_on_c, 3, 62, 127
9, 138360, Note_off_c, 3, 59, 127
9, 138360, Note_on_c, 3, 59, 127
9, 138480, Note_off_c, 3, 62, 127
9, 138480, Note_on_c, 3, 62, 127
9, 138480, Note_off_c, 3, 59, 127
9, 138480, Note_on_c, 3, 59, 127
9, 138600, Note_off_c, 3, 62, 127
9, 138600, Note_on_c, 3, 62, 127
9, 138600, Note_off_c, 3, 59, 127
9, 138600, Note_on_c, 3, 59, 127
9, 138720, Note_off_c, 3, 62, 127
9, 138720, Note_on_c, 3, 62, 127
9, 138720, Note_off_c, 3, 59, 127
9, 138720, Note_on_c, 3, 59, 127
9, 138840, Note_off_c, 3, 62, 127
9, 138840, Note_on_c, 3, 62, 127
9, 138840, Note_off_c, 3, 59, 127
9, 138840, Note_on_c, 3, 59, 127
9, 138960, Note_off_c, 3, 62, 127
9, 138960, Note_on_c, 3, 62, 127
9, 138960, Note_off_c, 3, 59, 127
9, 138960, Note_on_c, 3, 59, 127
9, 139080, Note_off_c, 3, 62, 127
9, 139080, Note_on_c, 3, 62, 127
9, 139080, Note_off_c, 3, 59, 127
9, 139080, Note_on_c, 3, 59, 127
9, 139200, Note_off_c, 3, 62, 127
9, 139200, Note_on_c, 3, 62, 127
9, 139200, Note_off_c, 3, 59, 127
9, 139200, Note_on_c, 3, 59, 127
9, 139320, Note_off_c, 3, 62, 127
9, 139320, Note_on_c, 3, 62, 127
9, 139320, Note_off_c, 3, 59, 127
9, 139320, Note_on_c, 3, 59, 127
9, 139440, Note_off_c, 3, 62, 127
9, 139440, Note_on_c, 3, 62, 127
9, 139440, Note_off_c, 3, 59, 127
9, 139440, Note_on_c, 3, 59, 127
9, 139560, Note_off_c, 3, 62, 127
9, 139560, Note_on_c, 3, 62, 127
9, 139560, Note_off_c, 3, 59, 127
9, 139560, Note_on_c, 3, 59, 127
9, 139680, Note_off_c, 3, 62, 127
9, 139680, Note_on_c, 3, 62, 127
9, 139680, Note_off_c, 3, 59, 127
9, 139680, Note_on_c, 3, 59, 127
9, 139800, Note_off_c, 3, 62, 127
9, 139800, Note_on_c, 3, 62, 127
9, 139800, Note_off_c, 3, 59, 127
9, 139800, Note_on_c, 3, 59, 127
9, 139920, Note_off_c, 3, 62, 127
9, 139920, Note_on_c, 3, 62, 127
9, 139920, Note_off_c, 3, 59, 127
9, 139920, Note_on_c, 3, 59, 127
9, 140040, Note_off_c, 3, 62, 127
9, 140040, Note_on_c, 3, 62, 127
9, 140040, Note_off_c, 3, 59, 127
9, 140040, Note_on_c, 3, 59, 127
9, 140160, Note_off_c, 3, 62, 127
9, 140160, Note_on_c, 3, 62, 127
9, 140160, Note_off_c, 3, 59, 127
9, 140160, Note_on_c, 3, 59, 127
9, 140280, Note_off_c, 3, 62, 127
9, 140280, Note_on_c, 3, 62, 127
9, 140280, Note_off_c, 3, 59, 127
9, 140280, Note_on_c, 3, 59, 127
9, 140400, Note_off_c, 3, 62, 127
9, 140400, Note_on_c, 3, 62, 127
9, 140400, Note_off_c, 3, 59, 127
9, 140400, Note_on_c, 3, 59, 127
9, 140520, Note_off_c, 3, 62, 127
9, 140520, Note_on_c, 3, 62, 127
9, 140520, Note_off_c, 3, 59, 127
9, 140520, Note_on_c, 3, 59, 127
9, 140640, Note_off_c, 3, 62, 127
9, 140640, Note_on_c, 3, 62, 127
9, 140640, Note_off_c, 3, 59, 127
9, 140640, Note_on_c, 3, 59, 127
9, 140760, Note_off_c, 3, 62, 127
9, 140760, Note_on_c, 3, 62, 127
9, 140760, Note_off_c, 3, 59, 127
9, 140760, Note_on_c, 3, 59, 127
9, 140880, Note_off_c, 3, 62, 127
9, 140880, Note_on_c, 3, 62, 127
9, 140880, Note_off_c, 3, 59, 127
9, 140880, Note_on_c, 3, 59, 127
9, 141000, Note_off_c, 3, 62, 127
9, 141000, Note_on_c, 3, 62, 127
9, 141000, Note_off_c, 3, 59, 127
9, 141000, Note_on_c, 3, 59, 127
9, 141120, Note_off_c, 3, 62, 127
9, 141120, Note_on_c, 3, 62, 127
9, 141120, Note_off_c, 3, 59, 127
9, 141120, Note_on_c, 3, 59, 127
9, 141240, Note_off_c, 3, 62, 127
9, 141240, Note_on_c, 3, 62, 127
9, 141240, Note_off_c, 3, 59, 127
9, 141240, Note_on_c, 3, 59, 127
9, 141360, Note_off_c, 3, 62, 127
9, 141360, Note_on_c, 3, 62, 127
9, 141360, Note_off_c, 3, 59, 127
9, 141360, Note_on_c, 3, 59, 127
9, 141480, Note_off_c, 3, 62, 127
9, 141480, Note_on_c, 3, 62, 127
9, 141480, Note_off_c, 3, 59, 127
9, 141480, Note_on_c, 3, 59, 127
9, 141600, Note_off_c, 3, 62, 127
9, 141600, Note_on_c, 3, 62, 127
9, 141600, Note_off_c, 3, 59, 127
9, 141600, Note_on_c, 3, 59, 127
9, 141720, Note_off_c, 3, 62, 127
9, 141720, Note_on_c, 3, 62, 127
9, 141720, Note_off_c, 3, 59, 127
9, 141720, Note_on_c, 3, 59, 127
9, 141840, Note_off_c, 3, 62, 127
9, 141840, Note_on_c, 3, 62, 127
9, 141840, Note_off_c, 3, 59, 127
9, 141840, Note_on_c, 3, 59, 127
9, 141960, Note_off_c, 3, 62, 127
9, 141960, Note_on_c, 3, 62, 127
9, 141960, Note_off_c, 3, 59, 127
9, 141960, Note_on_c, 3, 59, 127
9, 142079, Note_off_c, 3, 62, 127
9, 142079, Note_off_c, 3, 59, 127
9, 142080, Note_on_c, 3, 64, 127
9, 142080, Note_on_c, 3, 61, 127
9, 142200, Note_off_c, 3, 64, 127
9, 142200, Note_on_c, 3, 64, 127
9, 142200, Note_off_c, 3, 61, 127
9, 142200, Note_on_c, 3, 61, 127
9, 142320, Note_off_c, 3, 64, 127
9, 142320, Note_on_c, 3, 64, 127
9, 142320, Note_off_c, 3, 61, 127
9, 142320, Note_on_c, 3, 61, 127
9, 142440, Note_off_c, 3, 64, 127
9, 142440, Note_on_c, 3, 64, 127
9, 142440, Note_off_c, 3, 61, 127
9, 142440, Note_on_c, 3, 61, 127
9, 142560, Note_off_c, 3, 64, 127
9, 142560, Note_on_c, 3, 64, 127
9, 142560, Note_off_c, 3, 61, 127
9, 142560, Note_on_c, 3, 61, 127
9, 142680, Note_off_c, 3, 64, 127
9, 142680, Note_on_c, 3, 64, 127
9, 142680, Note_off_c, 3, 61, 127
9, 142680, Note_on_c, 3, 61, 127
9, 142800, Note_off_c, 3, 64, 127
9, 142800, Note_on_c, 3, 64, 127
9, 142800, Note_off_c, 3, 61, 127
9, 142800, Note_on_c, 3, 61, 127
9, 142920, Note_off_c, 3, 64, 127
9, 142920, Note_on_c, 3, 64, 127
9, 142920, Note_off_c, 3, 61, 127
9, 142920, Note_on_c, 3, 61, 127
9, 143039, Note_off_c, 3, 64, 127
9, 143039, Note_off_c, 3, 61, 127
9, 143040, Note_on_c, 3, 66, 127
9, 143040, Note_on_c, 3, 62, 127
9, 143160, Note_off_c, 3, 66, 127
9, 143160, Note_on_c, 3, 66, 127
9, 143160, Note_off_c, 3, 62, 127
9, 143160, Note_on_c, 3, 62, 127
9, 143280, Note_off_c, 3, 66, 127
9, 143280, Note_on_c, 3, 66, 127
9, 143280, Note_off_c, 3, 62, 127
9, 143280, Note_on_c, 3, 62, 127
9, 143400, Note_off_c, 3, 66, 127
9, 143400, Note_on_c, 3, 66, 127
9, 143400, Note_off_c, 3, 62, 127
9, 143400, Note_on_c, 3, 62, 127
9, 143520, Note_off_c, 3, 66, 127
9, 143520, Note_on_c, 3, 66, 127
9, 143520, Note_off_c, 3, 62, 127
9, 143520, Note_on_c, 3, 62, 127
9, 143640, Note_off_c, 3, 66, 127
9, 143640, Note_on_c, 3, 66, 127
9, 143640, Note_off_c, 3, 62, 127
9, 143640, Note_on_c, 3, 62, 127
9, 143760, Note_off_c, 3, 66, 127
9, 143760, Note_on_c, 3, 66, 127
9, 143760, Note_off_c, 3, 62, 127
9, 143760, Note_on_c, 3, 62, 127
9, 143880, Note_off_c, 3, 66, 127
9, 143880, Note_on_c, 3, 66, 127
9, 143880, Note_off_c, 3, 62, 127
9, 143880, Note_on_c, 3, 62, 127
9, 143999, Note_off_c, 3, 66, 127
9, 143999, Note_off_c, 3, 62, 127
9, 144000, Note_on_c, 3, 61, 127
9, 144000, Note_on_c, 3, 58, 127
9, 144120, Note_off_c, 3, 61, 127
9, 144120, Note_on_c, 3, 61, 127
9, 144120, Note_off_c, 3, 58, 127
9, 144120, Note_on_c, 3, 58, 127
9, 144240, Note_off_c, 3, 61, 127
9, 144240, Note_on_c, 3, 61, 127
9, 144240, Note_off_c, 3, 58, 127
9, 144240, Note_on_c, 3, 58, 127
9, 144360, Note_off_c, 3, 61, 127
9, 144360, Note_on_c, 3, 61, 127
9, 144360, Note_off_c, 3, 58, 127
9, 144360, Note_on_c, 3, 58, 127
9, 144480, Note_off_c, 3, 61, 127
9, 144480, Note_on_c, 3, 61, 127
9, 144480, Note_off_c, 3, 58, 127
9, 144480, Note_on_c, 3, 58, 127
9, 144600, Note_off_c, 3, 61, 127
9, 144600, Note_on_c, 3, 61, 127
9, 144600, Note_off_c, 3, 58, 127
9, 144600, Note_on_c, 3, 58, 127
9, 144720, Note_off_c, 3, 61, 127
9, 144720, Note_on_c, 3, 61, 127
9, 144720, Note_off_c, 3, 58, 127
9, 144720, Note_on_c, 3, 58, 127
9, 144840, Note_off_c, 3, 61, 127
9, 144840, Note_on_c, 3, 61, 127
9, 144840, Note_off_c, 3, 58, 127
9, 144840, Note_on_c, 3, 58, 127
9, 144960, Note_off_c, 3, 61, 127
9, 144960, Note_on_c, 3, 61, 127
9, 144960, Note_off_c, 3, 58, 127
9, 144960, Note_on_c, 3, 58, 127
9, 145080, Note_off_c, 3, 61, 127
9, 145080, Note_on_c, 3, 61, 127
9, 145080, Note_off_c, 3, 58, 127
9, 145080, Note_on_c, 3, 58, 127
9, 145200, Note_off_c, 3, 61, 127
9, 145200, Note_on_c, 3, 61, 127
9, 145200, Note_off_c, 3, 58, 127
9, 145200, Note_on_c, 3, 58, 127
9, 145320, Note_off_c, 3, 61, 127
9, 145320, Note_on_c, 3, 61, 127
9, 145320, Note_off_c, 3, 58, 127
9, 145320, Note_on_c, 3, 58, 127
9, 145440, Note_off_c, 3, 61, 127
9, 145440, Note_on_c, 3, 61, 127
9, 145440, Note_off_c, 3, 58, 127
9, 145440, Note_on_c, 3, 58, 127
9, 145560, Note_off_c, 3, 61, 127
9, 145560, Note_on_c, 3, 61, 127
9, 145560, Note_off_c, 3, 58, 127
9, 145560, Note_on_c, 3, 58, 127
9, 145680, Note_off_c, 3, 61, 127
9, 145680, Note_on_c, 3, 61, 127
9, 145680, Note_off_c, 3, 58, 127
9, 145680, Note_on_c, 3, 58, 127
9, 145800, Note_off_c, 3, 61, 127
9, 145800, Note_on_c, 3, 61, 127
9, 145800, Note_off_c, 3, 58, 127
9, 145800, Note_on_c, 3, 58, 127
9, 145920, Note_off_c, 3, 61, 127
9, 145920, Note_on_c, 3, 61, 127
9, 145920, Note_off_c, 3, 58, 127
9, 145920, Note_on_c, 3, 58, 127
9, 146040, Note_off_c, 3, 61, 127
9, 146040, Note_on_c, 3, 61, 127
9, 146040, Note_off_c, 3, 58, 127
9, 146040, Note_on_c, 3, 58, 127
9, 146160, Note_off_c, 3, 61, 127
9, 146160, Note_on_c, 3, 61, 127
9, 146160, Note_off_c, 3, 58, 127
9, 146160, Note_on_c, 3, 58, 127
9, 146280, Note_off_c, 3, 61, 127
9, 146280, Note_on_c, 3, 61, 127
9, 146280, Note_off_c, 3, 58, 127
9, 146280, Note_on_c, 3, 58, 127
9, 146400, Note_off_c, 3, 61, 127
9, 146400, Note_on_c, 3, 61, 127
9, 146400, Note_off_c, 3, 58, 127
9, 146400, Note_on_c, 3, 58, 127
9, 146520, Note_off_c, 3, 61, 127
9, 146520, Note_on_c, 3, 61, 127
9, 146520, Note_off_c, 3, 58, 127
9, 146520, Note_on_c, 3, 58, 127
9, 146640, Note_off_c, 3, 61, 127
9, 146640, Note_on_c, 3, 61, 127
9, 146640, Note_off_c, 3, 58, 127
9, 146640, Note_on_c, 3, 58, 127
9, 146760, Note_off_c, 3, 61, 127
9, 146760, Note_on_c, 3, 61, 127
9, 146760, Note_off_c, 3, 58, 127
9, 146760, Note_on_c, 3, 58, 127
9, 146880, Note_off_c, 3, 61, 127
9, 146880, Note_on_c, 3, 61, 127
9, 146880, Note_off_c, 3, 58, 127
9, 146880, Note_on_c, 3, 58, 127
9, 147000, Note_off_c, 3, 61, 127
9, 147000, Note_on_c, 3, 61, 127
9, 147000, Note_off_c, 3, 58, 127
9, 147000, Note_on_c, 3, 58, 127
9, 147120, Note_off_c, 3, 61, 127
9, 147120, Note_on_c, 3, 61, 127
9, 147120, Note_off_c, 3, 58, 127
9, 147120, Note_on_c, 3, 58, 127
9, 147240, Note_off_c, 3, 61, 127
9, 147240, Note_on_c, 3, 61, 127
9, 147240, Note_off_c, 3, 58, 127
9, 147240, Note_on_c, 3, 58, 127
9, 147360, Note_off_c, 3, 61, 127
9, 147360, Note_on_c, 3, 61, 127
9, 147360, Note_off_c, 3, 58, 127
9, 147360, Note_on_c, 3, 58, 127
9, 147480, Note_off_c, 3, 61, 127
9, 147480, Note_on_c, 3, 61, 127
9, 147480, Note_off_c, 3, 58, 127
9, 147480, Note_on_c, 3, 58, 127
9, 147600, Note_off_c, 3, 61, 127
9, 147600, Note_on_c, 3, 61, 127
9, 147600, Note_off_c, 3, 58, 127
9, 147600, Note_on_c, 3, 58, 127
9, 147720, Note_off_c, 3, 61, 127
9, 147720, Note_on_c, 3, 61, 127
9, 147720, Note_off_c, 3, 58, 127
9, 147720, Note_on_c, 3, 58, 127
9, 147840, Note_off_c, 3, 61, 127
9, 147840, Note_on_c, 3, 61, 127
9, 147840, Note_off_c, 3, 58, 127
9, 147840, Note_on_c, 3, 58, 127
9, 147960, Note_off_c, 3, 61, 127
9, 147960, Note_on_c, 3, 61, 127
9, 147960, Note_off_c, 3, 58, 127
9, 147960, Note_on_c, 3, 58, 127
9, 148080, Note_off_c, 3, 61, 127
9, 148080, Note_on_c, 3, 61, 127
9, 148080, Note_off_c, 3, 58, 127
9, 148080, Note_on_c, 3, 58, 127
9, 148200, Note_off_c, 3, 61, 127
9, 148200, Note_on_c, 3, 61, 127
9, 148200, Note_off_c, 3, 58, 127
9, 148200, Note_on_c, 3, 58, 127
9, 148320, Note_off_c, 3, 61, 127
9, 148320, Note_on_c, 3, 61, 127
9, 148320, Note_off_c, 3, 58, 127
9, 148320, Note_on_c, 3, 58, 127
9, 148440, Note_off_c, 3, 61, 127
9, 148440, Note_on_c, 3, 61, 127
9, 148440, Note_off_c, 3, 58, 127
9, 148440, Note_on_c, 3, 58, 127
9, 148560, Note_off_c, 3, 61, 127
9, 148560, Note_on_c, 3, 61, 127
9, 148560, Note_off_c, 3, 58, 127
9, 148560, Note_on_c, 3, 58, 127
9, 148680, Note_off_c, 3, 61, 127
9, 148680, Note_on_c, 3, 61, 127
9, 148680, Note_off_c, 3, 58, 127
9, 148680, Note_on_c, 3, 58, 127
9, 148800, Note_off_c, 3, 61, 127
9, 148800, Note_on_c, 3, 61, 127
9, 148800, Note_off_c, 3, 58, 127
9, 148800, Note_on_c, 3, 58, 127
9, 148920, Note_off_c, 3, 61, 127
9, 148920, Note_on_c, 3, 61, 127
9, 148920, Note_off_c, 3, 58, 127
9, 148920, Note_on_c, 3, 58, 127
9, 149040, Note_off_c, 3, 61, 127
9, 149040, Note_on_c, 3, 61, 127
9, 149040, Note_off_c, 3, 58, 127
9, 149040, Note_on_c, 3, 58, 127
9, 149160, Note_off_c, 3, 61, 127
9, 149160, Note_on_c, 3, 61, 127
9, 149160, Note_off_c, 3, 58, 127
9, 149160, Note_on_c, 3, 58, 127
9, 149280, Note_off_c, 3, 61, 127
9, 149280, Note_on_c, 3, 61, 127
9, 149280, Note_off_c, 3, 58, 127
9, 149280, Note_on_c, 3, 58, 127
9, 149400, Note_off_c, 3, 61, 127
9, 149400, Note_on_c, 3, 61, 127
9, 149400, Note_off_c, 3, 58, 127
9, 149400, Note_on_c, 3, 58, 127
9, 149520, Note_off_c, 3, 61, 127
9, 149520, Note_on_c, 3, 61, 127
9, 149520, Note_off_c, 3, 58, 127
9, 149520, Note_on_c, 3, 58, 127
9, 149640, Note_off_c, 3, 61, 127
9, 149640, Note_on_c, 3, 61, 127
9, 149640, Note_off_c, 3, 58, 127
9, 149640, Note_on_c, 3, 58, 127
9, 149759, Note_off_c, 3, 61, 127
9, 149759, Note_off_c, 3, 58, 127
9, 149760, Note_on_c, 3, 62, 127
9, 149760, Note_on_c, 3, 59, 127
9, 149880, Note_off_c, 3, 62, 127
9, 149880, Note_on_c, 3, 62, 127
9, 149880, Note_off_c, 3, 59, 127
9, 149880, Note_on_c, 3, 59, 127
9, 150000, Note_off_c, 3, 62, 127
9, 150000, Note_on_c, 3, 62, 127
9, 150000, Note_off_c, 3, 59, 127
9, 150000, Note_on_c, 3, 59, 127
9, 150120, Note_off_c, 3, 62, 127
9, 150120, Note_on_c, 3, 62, 127
9, 150120, Note_off_c, 3, 59, 127
9, 150120, Note_on_c, 3, 59, 127
9, 150240, Note_off_c, 3, 62, 127
9, 150240, Note_on_c, 3, 62, 127
9, 150240, Note_off_c, 3, 59, 127
9, 150240, Note_on_c, 3, 59, 127
9, 150360, Note_off_c, 3, 62, 127
9, 150360, Note_on_c, 3, 62, 127
9, 150360, Note_off_c, 3, 59, 127
9, 150360, Note_on_c, 3, 59, 127
9, 150480, Note_off_c, 3, 62, 127
9, 150480, Note_on_c, 3, 62, 127
9, 150480, Note_off_c, 3, 59, 127
9, 150480, Note_on_c, 3, 59, 127
9, 150600, Note_off_c, 3, 62, 127
9, 150600, Note_on_c, 3, 62, 127
9, 150600, Note_off_c, 3, 59, 127
9, 150600, Note_on_c, 3, 59, 127
9, 150720, Note_off_c, 3, 62, 127
9, 150720, Note_on_c, 3, 62, 127
9, 150720, Note_off_c, 3, 59, 127
9, 150720, Note_on_c, 3, 59, 127
9, 150840, Note_off_c, 3, 62, 127
9, 150840, Note_on_c, 3, 62, 127
9, 150840, Note_off_c, 3, 59, 127
9, 150840, Note_on_c, 3, 59, 127
9, 150960, Note_off_c, 3, 62, 127
9, 150960, Note_on_c, 3, 62, 127
9, 150960, Note_off_c, 3, 59, 127
9, 150960, Note_on_c, 3, 59, 127
9, 151080, Note_off_c, 3, 62, 127
9, 151080, Note_on_c, 3, 62, 127
9, 151080, Note_off_c, 3, 59, 127
9, 151080, Note_on_c, 3, 59, 127
9, 151200, Note_off_c, 3, 62, 127
9, 151200, Note_on_c, 3, 62, 127
9, 151200, Note_off_c, 3, 59, 127
9, 151200, Note_on_c, 3, 59, 127
9, 151320, Note_off_c, 3, 62, 127
9, 151320, Note_on_c, 3, 62, 127
9, 151320, Note_off_c, 3, 59, 127
9, 151320, Note_on_c, 3, 59, 127
9, 151440, Note_off_c, 3, 62, 127
9, 151440, Note_on_c, 3, 62, 127
9, 151440, Note_off_c, 3, 59, 127
9, 151440, Note_on_c, 3, 59, 127
9, 151560, Note_off_c, 3, 62, 127
9, 151560, Note_on_c, 3, 62, 127
9, 151560, Note_off_c, 3, 59, 127
9, 151560, Note_on_c, 3, 59, 127
9, 151680, Note_off_c, 3, 62, 127
9, 151680, Note_on_c, 3, 62, 127
9, 151680, Note_off_c, 3, 59, 127
9, 151680, Note_on_c, 3, 59, 127
9, 151800, Note_off_c, 3, 62, 127
9, 151800, Note_on_c, 3, 62, 127
9, 151800, Note_off_c, 3, 59, 127
9, 151800, Note_on_c, 3, 59, 127
9, 151920, Note_off_c, 3, 62, 127
9, 151920, Note_on_c, 3, 62, 127
9, 151920, Note_off_c, 3, 59, 127
9, 151920, Note_on_c, 3, 59, 127
9, 152040, Note_off_c, 3, 62, 127
9, 152040, Note_on_c, 3, 62, 127
9, 152040, Note_off_c, 3, 59, 127
9, 152040, Note_on_c, 3, 59, 127
9, 152160, Note_off_c, 3, 62, 127
9, 152160, Note_on_c, 3, 62, 127
9, 152160, Note_off_c, 3, 59, 127
9, 152160, Note_on_c, 3, 59, 127
9, 152280, Note_off_c, 3, 62, 127
9, 152280, Note_on_c, 3, 62, 127
9, 152280, Note_off_c, 3, 59, 127
9, 152280, Note_on_c, 3, 59, 127
9, 152400, Note_off_c, 3, 62, 127
9, 152400, Note_on_c, 3, 62, 127
9, 152400, Note_off_c, 3, 59, 127
9, 152400, Note_on_c, 3, 59, 127
9, 152520, Note_off_c, 3, 62, 127
9, 152520, Note_on_c, 3, 62, 127
9, 152520, Note_off_c, 3, 59, 127
9, 152520, Note_on_c, 3, 59, 127
9, 152640, Note_off_c, 3, 62, 127
9, 152640, Note_on_c, 3, 62, 127
9, 152640, Note_off_c, 3, 59, 127
9, 152640, Note_on_c, 3, 59, 127
9, 152760, Note_off_c, 3, 62, 127
9, 152760, Note_on_c, 3, 62, 127
9, 152760, Note_off_c, 3, 59, 127
9, 152760, Note_on_c, 3, 59, 127
9, 152880, Note_off_c, 3, 62, 127
9, 152880, Note_on_c, 3, 62, 127
9, 152880, Note_off_c, 3, 59, 127
9, 152880, Note_on_c, 3, 59, 127
9, 153000, Note_off_c, 3, 62, 127
9, 153000, Note_on_c, 3, 62, 127
9, 153000, Note_off_c, 3, 59, 127
9, 153000, Note_on_c, 3, 59, 127
9, 153120, Note_off_c, 3, 62, 127
9, 153120, Note_on_c, 3, 62, 127
9, 153120, Note_off_c, 3, 59, 127
9, 153120, Note_on_c, 3, 59, 127
9, 153240, Note_off_c, 3, 62, 127
9, 153240, Note_on_c, 3, 62, 127
9, 153240, Note_off_c, 3, 59, 127
9, 153240, Note_on_c, 3, 59, 127
9, 153360, Note_off_c, 3, 62, 127
9, 153360, Note_on_c, 3, 62, 127
9, 153360, Note_off_c, 3, 59, 127
9, 153360, Note_on_c, 3, 59, 127
9, 153480, Note_off_c, 3, 62, 127
9, 153480, Note_on_c, 3, 62, 127
9, 153480, Note_off_c, 3, 59, 127
9, 153480, Note_on_c, 3, 59, 127
9, 153599, Note_off_c, 3, 62, 127
9, 153599, Note_off_c, 3, 59, 127
9, 153600, Note_on_c, 3, 64, 127
9, 153600, Note_on_c, 3, 61, 127
9, 153720, Note_off_c, 3, 64, 127
9, 153720, Note_on_c, 3, 64, 127
9, 153720, Note_off_c, 3, 61, 127
9, 153720, Note_on_c, 3, 61, 127
9, 153840, Note_off_c, 3, 64, 127
9, 153840, Note_on_c, 3, 64, 127
9, 153840, Note_off_c, 3, 61, 127
9, 153840, Note_on_c, 3, 61, 127
9, 153960, Note_off_c, 3, 64, 127
9, 153960, Note_on_c, 3, 64, 127
9, 153960, Note_off_c, 3, 61, 127
9, 153960, Note_on_c, 3, 61, 127
9, 154080, Note_off_c, 3, 64, 127
9, 154080, Note_on_c, 3, 64, 127
9, 154080, Note_off_c, 3, 61, 127
9, 154080, Note_on_c, 3, 61, 127
9, 154200, Note_off_c, 3, 64, 127
9, 154200, Note_on_c, 3, 64, 127
9, 154200, Note_off_c, 3, 61, 127
9, 154200, Note_on_c, 3, 61, 127
9, 154320, Note_off_c, 3, 64, 127
9, 154320, Note_on_c, 3, 64, 127
9, 154320, Note_off_c, 3, 61, 127
9, 154320, Note_on_c, 3, 61, 127
9, 154440, Note_off_c, 3, 64, 127
9, 154440, Note_on_c, 3, 64, 127
9, 154440, Note_off_c, 3, 61, 127
9, 154440, Note_on_c, 3, 61, 127
9, 154559, Note_off_c, 3, 64, 127
9, 154559, Note_off_c, 3, 61, 127
9, 154560, Note_on_c, 3, 66, 127
9, 154560, Note_on_c, 3, 62, 127
9, 154680, Note_off_c, 3, 66, 127
9, 154680, Note_on_c, 3, 66, 127
9, 154680, Note_off_c, 3, 62, 127
9, 154680, Note_on_c, 3, 62, 127
9, 154800, Note_off_c, 3, 66, 127
9, 154800, Note_on_c, 3, 66, 127
9, 154800, Note_off_c, 3, 62, 127
9, 154800, Note_on_c, 3, 62, 127
9, 154920, Note_off_c, 3, 66, 127
9, 154920, Note_on_c, 3, 66, 127
9, 154920, Note_off_c, 3, 62, 127
9, 154920, Note_on_c, 3, 62, 127
9, 155040, Note_off_c, 3, 66, 127
9, 155040, Note_on_c, 3, 66, 127
9, 155040, Note_off_c, 3, 62, 127
9, 155040, Note_on_c, 3, 62, 127
9, 155160, Note_off_c, 3, 66, 127
9, 155160, Note_on_c, 3, 66, 127
9, 155160, Note_off_c, 3, 62, 127
9, 155160, Note_on_c, 3, 62, 127
9, 155280, Note_off_c, 3, 66, 127
9, 155280, Note_on_c, 3, 66, 127
9, 155280, Note_off_c, 3, 62, 127
9, 155280, Note_on_c, 3, 62, 127
9, 155400, Note_off_c, 3, 66, 127
9, 155400, Note_on_c, 3, 66, 127
9, 155400, Note_off_c, 3, 62, 127
9, 155400, Note_on_c, 3, 62, 127
9, 155519, Note_off_c, 3, 66, 127
9, 155519, Note_off_c, 3, 62, 127
9, 155520, Note_on_c, 3, 61, 127
9, 155520, Note_on_c, 3, 58, 127
9, 155640, Note_off_c, 3, 61, 127
9, 155640, Note_on_c, 3, 61, 127
9, 155640, Note_off_c, 3, 58, 127
9, 155640, Note_on_c, 3, 58, 127
9, 155760, Note_off_c, 3, 61, 127
9, 155760, Note_on_c, 3, 61, 127
9, 155760, Note_off_c, 3, 58, 127
9, 155760, Note_on_c, 3, 58, 127
9, 155880, Note_off_c, 3, 61, 127
9, 155880, Note_on_c, 3, 61, 127
9, 155880, Note_off_c, 3, 58, 127
9, 155880, Note_on_c, 3, 58, 127
9, 156000, Note_off_c, 3, 61, 127
9, 156000, Note_on_c, 3, 61, 127
9, 156000, Note_off_c, 3, 58, 127
9, 156000, Note_on_c, 3, 58, 127
9, 156120, Note_off_c, 3, 61, 127
9, 156120, Note_on_c, 3, 61, 127
9, 156120, Note_off_c, 3, 58, 127
9, 156120, Note_on_c, 3, 58, 127
9, 156240, Note_off_c, 3, 61, 127
9, 156240, Note_on_c, 3, 61, 127
9, 156240, Note_off_c, 3, 58, 127
9, 156240, Note_on_c, 3, 58, 127
9, 156360, Note_off_c, 3, 61, 127
9, 156360, Note_on_c, 3, 61, 127
9, 156360, Note_off_c, 3, 58, 127
9, 156360, Note_on_c, 3, 58, 127
9, 156480, Note_off_c, 3, 61, 127
9, 156480, Note_on_c, 3, 61, 127
9, 156480, Note_off_c, 3, 58, 127
9, 156480, Note_on_c, 3, 58, 127
9, 156600, Note_off_c, 3, 61, 127
9, 156600, Note_on_c, 3, 61, 127
9, 156600, Note_off_c, 3, 58, 127
9, 156600, Note_on_c, 3, 58, 127
9, 156720, Note_off_c, 3, 61, 127
9, 156720, Note_on_c, 3, 61, 127
9, 156720, Note_off_c, 3, 58, 127
9, 156720, Note_on_c, 3, 58, 127
9, 156840, Note_off_c, 3, 61, 127
9, 156840, Note_on_c, 3, 61, 127
9, 156840, Note_off_c, 3, 58, 127
9, 156840, Note_on_c, 3, 58, 127
9, 156960, Note_off_c, 3, 61, 127
9, 156960, Note_on_c, 3, 61, 127
9, 156960, Note_off_c, 3, 58, 127
9, 156960, Note_on_c, 3, 58, 127
9, 157080, Note_off_c, 3, 61, 127
9, 157080, Note_on_c, 3, 61, 127
9, 157080, Note_off_c, 3, 58, 127
9, 157080, Note_on_c, 3, 58, 127
9, 157200, Note_off_c, 3, 61, 127
9, 157200, Note_on_c, 3, 61, 127
9, 157200, Note_off_c, 3, 58, 127
9, 157200, Note_on_c, 3, 58, 127
9, 157320, Note_off_c, 3, 61, 127
9, 157320, Note_on_c, 3, 61, 127
9, 157320, Note_off_c, 3, 58, 127
9, 157320, Note_on_c, 3, 58, 127
9, 157440, Note_off_c, 3, 61, 127
9, 157440, Note_on_c, 3, 61, 127
9, 157440, Note_off_c, 3, 58, 127
9, 157440, Note_on_c, 3, 58, 127
9, 157560, Note_off_c, 3, 61, 127
9, 157560, Note_on_c, 3, 61, 127
9, 157560, Note_off_c, 3, 58, 127
9, 157560, Note_on_c, 3, 58, 127
9, 157680, Note_off_c, 3, 61, 127
9, 157680, Note_on_c, 3, 61, 127
9, 157680, Note_off_c, 3, 58, 127
9, 157680, Note_on_c, 3, 58, 127
9, 157800, Note_off_c, 3, 61, 127
9, 157800, Note_on_c, 3, 61, 127
9, 157800, Note_off_c, 3, 58, 127
9, 157800, Note_on_c, 3, 58, 127
9, 157920, Note_off_c, 3, 61, 127
9, 157920, Note_on_c, 3, 61, 127
9, 157920, Note_off_c, 3, 58, 127
9, 157920, Note_on_c, 3, 58, 127
9, 158040, Note_off_c, 3, 61, 127
9, 158040, Note_on_c, 3, 61, 127
9, 158040, Note_off_c, 3, 58, 127
9, 158040, Note_on_c, 3, 58, 127
9, 158160, Note_off_c, 3, 61, 127
9, 158160, Note_on_c, 3, 61, 127
9, 158160, Note_off_c, 3, 58, 127
9, 158160, Note_on_c, 3, 58, 127
9, 158280, Note_off_c, 3, 61, 127
9, 158280, Note_on_c, 3, 61, 127
9, 158280, Note_off_c, 3, 58, 127
9, 158280, Note_on_c, 3, 58, 127
9, 158400, Note_off_c, 3, 61, 127
9, 158400, Note_on_c, 3, 61, 127
9, 158400, Note_off_c, 3, 58, 127
9, 158400, Note_on_c, 3, 58, 127
9, 158520, Note_off_c, 3, 61, 127
9, 158520, Note_on_c, 3, 61, 127
9, 158520, Note_off_c, 3, 58, 127
9, 158520, Note_on_c, 3, 58, 127
9, 158640, Note_off_c, 3, 61, 127
9, 158640, Note_on_c, 3, 61, 127
9, 158640, Note_off_c, 3, 58, 127
9, 158640, Note_on_c, 3, 58, 127
9, 158760, Note_off_c, 3, 61, 127
9, 158760, Note_on_c, 3, 61, 127
9, 158760, Note_off_c, 3, 58, 127
9, 158760, Note_on_c, 3, 58, 127
9, 158880, Note_off_c, 3, 61, 127
9, 158880, Note_on_c, 3, 61, 127
9, 158880, Note_off_c, 3, 58, 127
9, 158880, Note_on_c, 3, 58, 127
9, 159000, Note_off_c, 3, 61, 127
9, 159000, Note_on_c, 3, 61, 127
9, 159000, Note_off_c, 3, 58, 127
9, 159000, Note_on_c, 3, 58, 127
9, 159120, Note_off_c, 3, 61, 127
9, 159120, Note_on_c, 3, 61, 127
9, 159120, Note_off_c, 3, 58, 127
9, 159120, Note_on_c, 3, 58, 127
9, 159240, Note_off_c, 3, 61, 127
9, 159240, Note_on_c, 3, 61, 127
9, 159240, Note_off_c, 3, 58, 127
9, 159240, Note_on_c, 3, 58, 127
9, 159360, Note_off_c, 3, 61, 127
9, 159360, Note_on_c, 3, 61, 127
9, 159360, Note_off_c, 3, 58, 127
9, 159360, Note_on_c, 3, 58, 127
9, 159480, Note_off_c, 3, 61, 127
9, 159480, Note_on_c, 3, 61, 127
9, 159480, Note_off_c, 3, 58, 127
9, 159480, Note_on_c, 3, 58, 127
9, 159600, Note_off_c, 3, 61, 127
9, 159600, Note_on_c, 3, 61, 127
9, 159600, Note_off_c, 3, 58, 127
9, 159600, Note_on_c, 3, 58, 127
9, 159720, Note_off_c, 3, 61, 127
9, 159720, Note_on_c, 3, 61, 127
9, 159720, Note_off_c, 3, 58, 127
9, 159720, Note_on_c, 3, 58, 127
9, 159840, Note_off_c, 3, 61, 127
9, 159840, Note_on_c, 3, 61, 127
9, 159840, Note_off_c, 3, 58, 127
9, 159840, Note_on_c, 3, 58, 127
9, 159960, Note_off_c, 3, 61, 127
9, 159960, Note_on_c, 3, 61, 127
9, 159960, Note_off_c, 3, 58, 127
9, 159960, Note_on_c, 3, 58, 127
9, 160080, Note_off_c, 3, 61, 127
9, 160080, Note_on_c, 3, 61, 127
9, 160080, Note_off_c, 3, 58, 127
9, 160080, Note_on_c, 3, 58, 127
9, 160200, Note_off_c, 3, 61, 127
9, 160200, Note_on_c, 3, 61, 127
9, 160200, Note_off_c, 3, 58, 127
9, 160200, Note_on_c, 3, 58, 127
9, 160320, Note_off_c, 3, 61, 127
9, 160320, Note_on_c, 3, 61, 127
9, 160320, Note_off_c, 3, 58, 127
9, 160320, Note_on_c, 3, 58, 127
9, 160440, Note_off_c, 3, 61, 127
9, 160440, Note_on_c, 3, 61, 127
9, 160440, Note_off_c, 3, 58, 127
9, 160440, Note_on_c, 3, 58, 127
9, 160560, Note_off_c, 3, 61, 127
9, 160560, Note_on_c, 3, 61, 127
9, 160560, Note_off_c, 3, 58, 127
9, 160560, Note_on_c, 3, 58, 127
9, 160680, Note_off_c, 3, 61, 127
9, 160680, Note_on_c, 3, 61, 127
9, 160680, Note_off_c, 3, 58, 127
9, 160680, Note_on_c, 3, 58, 127
9, 160800, Note_off_c, 3, 61, 127
9, 160800, Note_on_c, 3, 61, 127
9, 160800, Note_off_c, 3, 58, 127
9, 160800, Note_on_c, 3, 58, 127
9, 160920, Note_off_c, 3, 61, 127
9, 160920, Note_on_c, 3, 61, 127
9, 160920, Note_off_c, 3, 58, 127
9, 160920, Note_on_c, 3, 58, 127
9, 161040, Note_off_c, 3, 61, 127
9, 161040, Note_on_c, 3, 61, 127
9, 161040, Note_off_c, 3, 58, 127
9, 161040, Note_on_c, 3, 58, 127
9, 161160, Note_off_c, 3, 61, 127
9, 161160, Note_on_c, 3, 61, 127
9, 161160, Note_off_c, 3, 58, 127
9, 161160, Note_on_c, 3, 58, 127
9, 161279, Note_off_c, 3, 61, 127
9, 161279, Note_off_c, 3, 58, 127
9, 161280, Note_on_c, 3, 62, 127
9, 161280, Note_on_c, 3, 59, 127
9, 161400, Note_off_c, 3, 62, 127
9, 161400, Note_on_c, 3, 62, 127
9, 161400, Note_off_c, 3, 59, 127
9, 161400, Note_on_c, 3, 59, 127
9, 161520, Note_off_c, 3, 62, 127
9, 161520, Note_on_c, 3, 62, 127
9, 161520, Note_off_c, 3, 59, 127
9, 161520, Note_on_c, 3, 59, 127
9, 161640, Note_off_c, 3, 62, 127
9, 161640, Note_on_c, 3, 62, 127
9, 161640, Note_off_c, 3, 59, 127
9, 161640, Note_on_c, 3, 59, 127
9, 161760, Note_off_c, 3, 62, 127
9, 161760, Note_on_c, 3, 62, 127
9, 161760, Note_off_c, 3, 59, 127
9, 161760, Note_on_c, 3, 59, 127
9, 161880, Note_off_c, 3, 62, 127
9, 161880, Note_on_c, 3, 62, 127
9, 161880, Note_off_c, 3, 59, 127
9, 161880, Note_on_c, 3, 59, 127
9, 162000, Note_off_c, 3, 62, 127
9, 162000, Note_on_c, 3, 62, 127
9, 162000, Note_off_c, 3, 59, 127
9, 162000, Note_on_c, 3, 59, 127
9, 162120, Note_off_c, 3, 62, 127
9, 162120, Note_on_c, 3, 62, 127
9, 162120, Note_off_c, 3, 59, 127
9, 162120, Note_on_c, 3, 59, 127
9, 162240, Note_off_c, 3, 62, 127
9, 162240, Note_on_c, 3, 62, 127
9, 162240, Note_off_c, 3, 59, 127
9, 162240, Note_on_c, 3, 59, 127
9, 162360, Note_off_c, 3, 62, 127
9, 162360, Note_on_c, 3, 62, 127
9, 162360, Note_off_c, 3, 59, 127
9, 162360, Note_on_c, 3, 59, 127
9, 162480, Note_off_c, 3, 62, 127
9, 162480, Note_on_c, 3, 62, 127
9, 162480, Note_off_c, 3, 59, 127
9, 162480, Note_on_c, 3, 59, 127
9, 162600, Note_off_c, 3, 62, 127
9, 162600, Note_on_c, 3, 62, 127
9, 162600, Note_off_c, 3, 59, 127
9, 162600, Note_on_c, 3, 59, 127
9, 162720, Note_off_c, 3, 62, 127
9, 162720, Note_on_c, 3, 62, 127
9, 162720, Note_off_c, 3, 59, 127
9, 162720, Note_on_c, 3, 59, 127
9, 162840, Note_off_c, 3, 62, 127
9, 162840, Note_on_c, 3, 62, 127
9, 162840, Note_off_c, 3, 59, 127
9, 162840, Note_on_c, 3, 59, 127
9, 162960, Note_off_c, 3, 62, 127
9, 162960, Note_on_c, 3, 62, 127
9, 162960, Note_off_c, 3, 59, 127
9, 162960, Note_on_c, 3, 59, 127
9, 163080, Note_off_c, 3, 62, 127
9, 163080, Note_on_c, 3, 62, 127
9, 163080, Note_off_c, 3, 59, 127
9, 163080, Note_on_c, 3, 59, 127
9, 163200, Note_off_c, 3, 62, 127
9, 163200, Note_on_c, 3, 62, 127
9, 163200, Note_off_c, 3, 59, 127
9, 163200, Note_on_c, 3, 59, 127
9, 163320, Note_off_c, 3, 62, 127
9, 163320, Note_on_c, 3, 62, 127
9, 163320, Note_off_c, 3, 59, 127
9, 163320, Note_on_c, 3, 59, 127
9, 163440, Note_off_c, 3, 62, 127
9, 163440, Note_on_c, 3, 62, 127
9, 163440, Note_off_c, 3, 59, 127
9, 163440, Note_on_c, 3, 59, 127
9, 163560, Note_off_c, 3, 62, 127
9, 163560, Note_on_c, 3, 62, 127
9, 163560, Note_off_c, 3, 59, 127
9, 163560, Note_on_c, 3, 59, 127
9, 163680, Note_off_c, 3, 62, 127
9, 163680, Note_on_c, 3, 62, 127
9, 163680, Note_off_c, 3, 59, 127
9, 163680, Note_on_c, 3, 59, 127
9, 163800, Note_off_c, 3, 62, 127
9, 163800, Note_on_c, 3, 62, 127
9, 163800, Note_off_c, 3, 59, 127
9, 163800, Note_on_c, 3, 59, 127
9, 163920, Note_off_c, 3, 62, 127
9, 163920, Note_on_c, 3, 62, 127
9, 163920, Note_off_c, 3, 59, 127
9, 163920, Note_on_c, 3, 59, 127
9, 164040, Note_off_c, 3, 62, 127
9, 164040, Note_on_c, 3, 62, 127
9, 164040, Note_off_c, 3, 59, 127
9, 164040, Note_on_c, 3, 59, 127
9, 164160, Note_off_c, 3, 62, 127
9, 164160, Note_on_c, 3, 62, 127
9, 164160, Note_off_c, 3, 59, 127
9, 164160, Note_on_c, 3, 59, 127
9, 164280, Note_off_c, 3, 62, 127
9, 164280, Note_on_c, 3, 62, 127
9, 164280, Note_off_c, 3, 59, 127
9, 164280, Note_on_c, 3, 59, 127
9, 164400, Note_off_c, 3, 62, 127
9, 164400, Note_on_c, 3, 62, 127
9, 164400, Note_off_c, 3, 59, 127
9, 164400, Note_on_c, 3, 59, 127
9, 164520, Note_off_c, 3, 62, 127
9, 164520, Note_on_c, 3, 62, 127
9, 164520, Note_off_c, 3, 59, 127
9, 164520, Note_on_c, 3, 59, 127
9, 164640, Note_off_c, 3, 62, 127
9, 164640, Note_on_c, 3, 62, 127
9, 164640, Note_off_c, 3, 59, 127
9, 164640, Note_on_c, 3, 59, 127
9, 164760, Note_off_c, 3, 62, 127
9, 164760, Note_on_c, 3, 62, 127
9, 164760, Note_off_c, 3, 59, 127
9, 164760, Note_on_c, 3, 59, 127
9, 164880, Note_off_c, 3, 62, 127
9, 164880, Note_on_c, 3, 62, 127
9, 164880, Note_off_c, 3, 59, 127
9, 164880, Note_on_c, 3, 59, 127
9, 165000, Note_off_c, 3, 62, 127
9, 165000, Note_on_c, 3, 62, 127
9, 165000, Note_off_c, 3, 59, 127
9, 165000, Note_on_c, 3, 59, 127
9, 165119, Note_off_c, 3, 62, 127
9, 165119, Note_off_c, 3, 59, 127
9, 165120, Note_on_c, 3, 64, 127
9, 165120, Note_on_c, 3, 61, 127
9, 165240, Note_off_c, 3, 64, 127
9, 165240, Note_on_c, 3, 64, 127
9, 165240, Note_off_c, 3, 61, 127
9, 165240, Note_on_c, 3, 61, 127
9, 165360, Note_off_c, 3, 64, 127
9, 165360, Note_on_c, 3, 64, 127
9, 165360, Note_off_c, 3, 61, 127
9, 165360, Note_on_c, 3, 61, 127
9, 165480, Note_off_c, 3, 64, 127
9, 165480, Note_on_c, 3, 64, 127
9, 165480, Note_off_c, 3, 61, 127
9, 165480, Note_on_c, 3, 61, 127
9, 165600, Note_off_c, 3, 64, 127
9, 165600, Note_on_c, 3, 64, 127
9, 165600, Note_off_c, 3, 61, 127
9, 165600, Note_on_c, 3, 61, 127
9, 165720, Note_off_c, 3, 64, 127
9, 165720, Note_on_c, 3, 64, 127
9, 165720, Note_off_c, 3, 61, 127
9, 165720, Note_on_c, 3, 61, 127
9, 165840, Note_off_c, 3, 64, 127
9, 165840, Note_on_c, 3, 64, 127
9, 165840, Note_off_c, 3, 61, 127
9, 165840, Note_on_c, 3, 61, 127
9, 165960, Note_off_c, 3, 64, 127
9, 165960, Note_on_c, 3, 64, 127
9, 165960, Note_off_c, 3, 61, 127
9, 165960, Note_on_c, 3, 61, 127
9, 166079, Note_off_c, 3, 64, 127
9, 166079, Note_off_c, 3, 61, 127
9, 166080, Note_on_c, 3, 66, 127
9, 166080, Note_on_c, 3, 62, 127
9, 166200, Note_off_c, 3, 66, 127
9, 166200, Note_on_c, 3, 66, 127
9, 166200, Note_off_c, 3, 62, 127
9, 166200, Note_on_c, 3, 62, 127
9, 166320, Note_off_c, 3, 66, 127
9, 166320, Note_on_c, 3, 66, 127
9, 166320, Note_off_c, 3, 62, 127
9, 166320, Note_on_c, 3, 62, 127
9, 166440, Note_off_c, 3, 66, 127
9, 166440, Note_on_c, 3, 66, 127
9, 166440, Note_off_c, 3, 62, 127
9, 166440, Note_on_c, 3, 62, 127
9, 166560, Note_off_c, 3, 66, 127
9, 166560, Note_on_c, 3, 66, 127
9, 166560, Note_off_c, 3, 62, 127
9, 166560, Note_on_c, 3, 62, 127
9, 166680, Note_off_c, 3, 66, 127
9, 166680, Note_on_c, 3, 66, 127
9, 166680, Note_off_c, 3, 62, 127
9, 166680, Note_on_c, 3, 62, 127
9, 166800, Note_off_c, 3, 66, 127
9, 166800, Note_on_c, 3, 66, 127
9, 166800, Note_off_c, 3, 62, 127
9, 166800, Note_on_c, 3, 62, 127
9, 166920, Note_off_c, 3, 66, 127
9, 166920, Note_on_c, 3, 66, 127
9, 166920, Note_off_c, 3, 62, 127
9, 166920, Note_on_c, 3, 62, 127
9, 167039, Note_off_c, 3, 66, 127
9, 167039, Note_off_c, 3, 62, 127
9, 167040, Note_on_c, 3, 61, 127
9, 167040, Note_on_c, 3, 58, 127
9, 167160, Note_off_c, 3, 61, 127
9, 167160, Note_on_c, 3, 61, 127
9, 167160, Note_off_c, 3, 58, 127
9, 167160, Note_on_c, 3, 58, 127
9, 167280, Note_off_c, 3, 61, 127
9, 167280, Note_on_c, 3, 61, 127
9, 167280, Note_off_c, 3, 58, 127
9, 167280, Note_on_c, 3, 58, 127
9, 167400, Note_off_c, 3, 61, 127
9, 167400, Note_on_c, 3, 61, 127
9, 167400, Note_off_c, 3, 58, 127
9, 167400, Note_on_c, 3, 58, 127
9, 167520, Note_off_c, 3, 61, 127
9, 167520, Note_on_c, 3, 61, 127
9, 167520, Note_off_c, 3, 58, 127
9, 167520, Note_on_c, 3, 58, 127
9, 167640, Note_off_c, 3, 61, 127
9, 167640, Note_on_c, 3, 61, 127
9, 167640, Note_off_c, 3, 58, 127
9, 167640, Note_on_c, 3, 58, 127
9, 167760, Note_off_c, 3, 61, 127
9, 167760, Note_on_c, 3, 61, 127
9, 167760, Note_off_c, 3, 58, 127
9, 167760, Note_on_c, 3, 58, 127
9, 167880, Note_off_c, 3, 61, 127
9, 167880, Note_on_c, 3, 61, 127
9, 167880, Note_off_c, 3, 58, 127
9, 167880, Note_on_c, 3, 58, 127
9, 168000, Note_off_c, 3, 61, 127
9, 168000, Note_on_c, 3, 61, 127
9, 168000, Note_off_c, 3, 58, 127
9, 168000, Note_on_c, 3, 58, 127
9, 168120, Note_off_c, 3, 61, 127
9, 168120, Note_on_c, 3, 61, 127
9, 168120, Note_off_c, 3, 58, 127
9, 168120, Note_on_c, 3, 58, 127
9, 168240, Note_off_c, 3, 61, 127
9, 168240, Note_on_c, 3, 61, 127
9, 168240, Note_off_c, 3, 58, 127
9, 168240, Note_on_c, 3, 58, 127
9, 168360, Note_off_c, 3, 61, 127
9, 168360, Note_on_c, 3, 61, 127
9, 168360, Note_off_c, 3, 58, 127
9, 168360, Note_on_c, 3, 58, 127
9, 168480, Note_off_c, 3, 61, 127
9, 168480, Note_on_c, 3, 61, 127
9, 168480, Note_off_c, 3, 58, 127
9, 168480, Note_on_c, 3, 58, 127
9, 168600, Note_off_c, 3, 61, 127
9, 168600, Note_on_c, 3, 61, 127
9, 168600, Note_off_c, 3, 58, 127
9, 168600, Note_on_c, 3, 58, 127
9, 168720, Note_off_c, 3, 61, 127
9, 168720, Note_on_c, 3, 61, 127
9, 168720, Note_off_c, 3, 58, 127
9, 168720, Note_on_c, 3, 58, 127
9, 168840, Note_off_c, 3, 61, 127
9, 168840, Note_on_c, 3, 61, 127
9, 168840, Note_off_c, 3, 58, 127
9, 168840, Note_on_c, 3, 58, 127
9, 168960, Note_off_c, 3, 61, 127
9, 168960, Note_on_c, 3, 61, 127
9, 168960, Note_off_c, 3, 58, 127
9, 168960, Note_on_c, 3, 58, 127
9, 169080, Note_off_c, 3, 61, 127
9, 169080, Note_on_c, 3, 61, 127
9, 169080, Note_off_c, 3, 58, 127
9, 169080, Note_on_c, 3, 58, 127
9, 169200, Note_off_c, 3, 61, 127
9, 169200, Note_on_c, 3, 61, 127
9, 169200, Note_off_c, 3, 58, 127
9, 169200, Note_on_c, 3, 58, 127
9, 169320, Note_off_c, 3, 61, 127
9, 169320, Note_on_c, 3, 61, 127
9, 169320, Note_off_c, 3, 58, 127
9, 169320, Note_on_c, 3, 58, 127
9, 169440, Note_off_c, 3, 61, 127
9, 169440, Note_on_c, 3, 61, 127
9, 169440, Note_off_c, 3, 58, 127
9, 169440, Note_on_c, 3, 58, 127
9, 169560, Note_off_c, 3, 61, 127
9, 169560, Note_on_c, 3, 61, 127
9, 169560, Note_off_c, 3, 58, 127
9, 169560, Note_on_c, 3, 58, 127
9, 169680, Note_off_c, 3, 61, 127
9, 169680, Note_on_c, 3, 61, 127
9, 169680, Note_off_c, 3, 58, 127
9, 169680, Note_on_c, 3, 58, 127
9, 169800, Note_off_c, 3, 61, 127
9, 169800, Note_on_c, 3, 61, 127
9, 169800, Note_off_c, 3, 58, 127
9, 169800, Note_on_c, 3, 58, 127
9, 169920, Note_off_c, 3, 61, 127
9, 169920, Note_on_c, 3, 61, 127
9, 169920, Note_off_c, 3, 58, 127
9, 169920, Note_on_c, 3, 58, 127
9, 170040, Note_off_c, 3, 61, 127
9, 170040, Note_on_c, 3, 61, 127
9, 170040, Note_off_c, 3, 58, 127
9, 170040, Note_on_c, 3, 58, 127
9, 170160, Note_off_c, 3, 61, 127
9, 170160, Note_on_c, 3, 61, 127
9, 170160, Note_off_c, 3, 58, 127
9, 170160, Note_on_c, 3, 58, 127
9, 170280, Note_off_c, 3, 61, 127
9, 170280, Note_on_c, 3, 61, 127
9, 170280, Note_off_c, 3, 58, 127
9, 170280, Note_on_c, 3, 58, 127
9, 170400, Note_off_c, 3, 61, 127
9, 170400, Note_on_c, 3, 61, 127
9, 170400, Note_off_c, 3, 58, 127
9, 170400, Note_on_c, 3, 58, 127
9, 170520, Note_off_c, 3, 61, 127
9, 170520, Note_on_c, 3, 61, 127
9, 170520, Note_off_c, 3, 58, 127
9, 170520, Note_on_c, 3, 58, 127
9, 170640, Note_off_c, 3, 61, 127
9, 170640, Note_on_c, 3, 61, 127
9, 170640, Note_off_c, 3, 58, 127
9, 170640, Note_on_c, 3, 58, 127
9, 170760, Note_off_c, 3, 61, 127
9, 170760, Note_on_c, 3, 61, 127
9, 170760, Note_off_c, 3, 58, 127
9, 170760, Note_on_c, 3, 58, 127
9, 170880, Note_off_c, 3, 61, 127
9, 170880, Note_on_c, 3, 61, 127
9, 170880, Note_off_c, 3, 58, 127
9, 170880, Note_on_c, 3, 58, 127
9, 171000, Note_off_c, 3, 61, 127
9, 171000, Note_on_c, 3, 61, 127
9, 171000, Note_off_c, 3, 58, 127
9, 171000, Note_on_c, 3, 58, 127
9, 171120, Note_off_c, 3, 61, 127
9, 171120, Note_on_c, 3, 61, 127
9, 171120, Note_off_c, 3, 58, 127
9, 171120, Note_on_c, 3, 58, 127
9, 171240, Note_off_c, 3, 61, 127
9, 171240, Note_on_c, 3, 61, 127
9, 171240, Note_off_c, 3, 58, 127
9, 171240, Note_on_c, 3, 58, 127
9, 171360, Note_off_c, 3, 61, 127
9, 171360, Note_on_c, 3, 61, 127
9, 171360, Note_off_c, 3, 58, 127
9, 171360, Note_on_c, 3, 58, 127
9, 171480, Note_off_c, 3, 61, 127
9, 171480, Note_on_c, 3, 61, 127
9, 171480, Note_off_c, 3, 58, 127
9, 171480, Note_on_c, 3, 58, 127
9, 171600, Note_off_c, 3, 61, 127
9, 171600, Note_on_c, 3, 61, 127
9, 171600, Note_off_c, 3, 58, 127
9, 171600, Note_on_c, 3, 58, 127
9, 171720, Note_off_c, 3, 61, 127
9, 171720, Note_on_c, 3, 61, 127
9, 171720, Note_off_c, 3, 58, 127
9, 171720, Note_on_c, 3, 58, 127
9, 171840, Note_off_c, 3, 61, 127
9, 171840, Note_on_c, 3, 61, 127
9, 171840, Note_off_c, 3, 58, 127
9, 171840, Note_on_c, 3, 58, 127
9, 171960, Note_off_c, 3, 61, 127
9, 171960, Note_on_c, 3, 61, 127
9, 171960, Note_off_c, 3, 58, 127
9, 171960, Note_on_c, 3, 58, 127
9, 172080, Note_off_c, 3, 61, 127
9, 172080, Note_on_c, 3, 61, 127
9, 172080, Note_off_c, 3, 58, 127
9, 172080, Note_on_c, 3, 58, 127
9, 172200, Note_off_c, 3, 61, 127
9, 172200, Note_on_c, 3, 61, 127
9, 172200, Note_off_c, 3, 58, 127
9, 172200, Note_on_c, 3, 58, 127
9, 172320, Note_off_c, 3, 61, 127
9, 172320, Note_on_c, 3, 61, 127
9, 172320, Note_off_c, 3, 58, 127
9, 172320, Note_on_c, 3, 58, 127
9, 172440, Note_off_c, 3, 61, 127
9, 172440, Note_on_c, 3, 61, 127
9, 172440, Note_off_c, 3, 58, 127
9, 172440, Note_on_c, 3, 58, 127
9, 172560, Note_off_c, 3, 61, 127
9, 172560, Note_on_c, 3, 61, 127
9, 172560, Note_off_c, 3, 58, 127
9, 172560, Note_on_c, 3, 58, 127
9, 172680, Note_off_c, 3, 61, 127
9, 172680, Note_on_c, 3, 61, 127
9, 172680, Note_off_c, 3, 58, 127
9, 172680, Note_on_c, 3, 58, 127
9, 172799, Note_off_c, 3, 61, 127
9, 172799, Note_off_c, 3, 58, 127
9, 172800, Note_on_c, 3, 62, 127
9, 172800, Note_on_c, 3, 59, 127
9, 172920, Note_off_c, 3, 62, 127
9, 172920, Note_on_c, 3, 62, 127
9, 172920, Note_off_c, 3, 59, 127
9, 172920, Note_on_c, 3, 59, 127
9, 173040, Note_off_c, 3, 62, 127
9, 173040, Note_on_c, 3, 62, 127
9, 173040, Note_off_c, 3, 59, 127
9, 173040, Note_on_c, 3, 59, 127
9, 173160, Note_off_c, 3, 62, 127
9, 173160, Note_on_c, 3, 62, 127
9, 173160, Note_off_c, 3, 59, 127
9, 173160, Note_on_c, 3, 59, 127
9, 173280, Note_off_c, 3, 62, 127
9, 173280, Note_on_c, 3, 62, 127
9, 173280, Note_off_c, 3, 59, 127
9, 173280, Note_on_c, 3, 59, 127
9, 173400, Note_off_c, 3, 62, 127
9, 173400, Note_on_c, 3, 62, 127
9, 173400, Note_off_c, 3, 59, 127
9, 173400, Note_on_c, 3, 59, 127
9, 173520, Note_off_c, 3, 62, 127
9, 173520, Note_on_c, 3, 62, 127
9, 173520, Note_off_c, 3, 59, 127
9, 173520, Note_on_c, 3, 59, 127
9, 173640, Note_off_c, 3, 62, 127
9, 173640, Note_on_c, 3, 62, 127
9, 173640, Note_off_c, 3, 59, 127
9, 173640, Note_on_c, 3, 59, 127
9, 173760, Note_off_c, 3, 62, 127
9, 173760, Note_on_c, 3, 62, 127
9, 173760, Note_off_c, 3, 59, 127
9, 173760, Note_on_c, 3, 59, 127
9, 173880, Note_off_c, 3, 62, 127
9, 173880, Note_on_c, 3, 62, 127
9, 173880, Note_off_c, 3, 59, 127
9, 173880, Note_on_c, 3, 59, 127
9, 174000, Note_off_c, 3, 62, 127
9, 174000, Note_on_c, 3, 62, 127
9, 174000, Note_off_c, 3, 59, 127
9, 174000, Note_on_c, 3, 59, 127
9, 174120, Note_off_c, 3, 62, 127
9, 174120, Note_on_c, 3, 62, 127
9, 174120, Note_off_c, 3, 59, 127
9, 174120, Note_on_c, 3, 59, 127
9, 174240, Note_off_c, 3, 62, 127
9, 174240, Note_on_c, 3, 62, 127
9, 174240, Note_off_c, 3, 59, 127
9, 174240, Note_on_c, 3, 59, 127
9, 174360, Note_off_c, 3, 62, 127
9, 174360, Note_on_c, 3, 62, 127
9, 174360, Note_off_c, 3, 59, 127
9, 174360, Note_on_c, 3, 59, 127
9, 174480, Note_off_c, 3, 62, 127
9, 174480, Note_on_c, 3, 62, 127
9, 174480, Note_off_c, 3, 59, 127
9, 174480, Note_on_c, 3, 59, 127
9, 174600, Note_off_c, 3, 62, 127
9, 174600, Note_on_c, 3, 62, 127
9, 174600, Note_off_c, 3, 59, 127
9, 174600, Note_on_c, 3, 59, 127
9, 174720, Note_off_c, 3, 62, 127
9, 174720, Note_on_c, 3, 62, 127
9, 174720, Note_off_c, 3, 59, 127
9, 174720, Note_on_c, 3, 59, 127
9, 174840, Note_off_c, 3, 62, 127
9, 174840, Note_on_c, 3, 62, 127
9, 174840, Note_off_c, 3, 59, 127
9, 174840, Note_on_c, 3, 59, 127
9, 174960, Note_off_c, 3, 62, 127
9, 174960, Note_on_c, 3, 62, 127
9, 174960, Note_off_c, 3, 59, 127
9, 174960, Note_on_c, 3, 59, 127
9, 175080, Note_off_c, 3, 62, 127
9, 175080, Note_on_c, 3, 62, 127
9, 175080, Note_off_c, 3, 59, 127
9, 175080, Note_on_c, 3, 59, 127
9, 175200, Note_off_c, 3, 62, 127
9, 175200, Note_on_c, 3, 62, 127
9, 175200, Note_off_c, 3, 59, 127
9, 175200, Note_on_c, 3, 59, 127
9, 175320, Note_off_c, 3, 62, 127
9, 175320, Note_on_c, 3, 62, 127
9, 175320, Note_off_c, 3, 59, 127
9, 175320, Note_on_c, 3, 59, 127
9, 175440, Note_off_c, 3, 62, 127
9, 175440, Note_on_c, 3, 62, 127
9, 175440, Note_off_c, 3, 59, 127
9, 175440, Note_on_c, 3, 59, 127
9, 175560, Note_off_c, 3, 62, 127
9, 175560, Note_on_c, 3, 62, 127
9, 175560, Note_off_c, 3, 59, 127
9, 175560, Note_on_c, 3, 59, 127
9, 175680, Note_off_c, 3, 62, 127
9, 175680, Note_on_c, 3, 62, 127
9, 175680, Note_off_c, 3, 59, 127
9, 175680, Note_on_c, 3, 59, 127
9, 175800, Note_off_c, 3, 62, 127
9, 175800, Note_on_c, 3, 62, 127
9, 175800, Note_off_c, 3, 59, 127
9, 175800, Note_on_c, 3, 59, 127
9, 175920, Note_off_c, 3, 62, 127
9, 175920, Note_on_c, 3, 62, 127
9, 175920, Note_off_c, 3, 59, 127
9, 175920, Note_on_c, 3, 59, 127
9, 176040, Note_off_c, 3, 62, 127
9, 176040, Note_on_c, 3, 62, 127
9, 176040, Note_off_c, 3, 59, 127
9, 176040, Note_on_c, 3, 59, 127
9, 176160, Note_off_c, 3, 62, 127
9, 176160, Note_on_c, 3, 62, 127
9, 176160, Note_off_c, 3, 59, 127
9, 176160, Note_on_c, 3, 59, 127
9, 176280, Note_off_c, 3, 62, 127
9, 176280, Note_on_c, 3, 62, 127
9, 176280, Note_off_c, 3, 59, 127
9, 176280, Note_on_c, 3, 59, 127
9, 176400, Note_off_c, 3, 62, 127
9, 176400, Note_on_c, 3, 62, 127
9, 176400, Note_off_c, 3, 59, 127
9, 176400, Note_on_c, 3, 59, 127
9, 176520, Note_off_c, 3, 62, 127
9, 176520, Note_on_c, 3, 62, 127
9, 176520, Note_off_c, 3, 59, 127
9, 176520, Note_on_c, 3, 59, 127
9, 176639, Note_off_c, 3, 62, 127
9, 176639, Note_off_c, 3, 59, 127
9, 176640, Note_on_c, 3, 64, 127
9, 176640, Note_on_c, 3, 61, 127
9, 176760, Note_off_c, 3, 64, 127
9, 176760, Note_on_c, 3, 64, 127
9, 176760, Note_off_c, 3, 61, 127
9, 176760, Note_on_c, 3, 61, 127
9, 176880, Note_off_c, 3, 64, 127
9, 176880, Note_on_c, 3, 64, 127
9, 176880, Note_off_c, 3, 61, 127
9, 176880, Note_on_c, 3, 61, 127
9, 177000, Note_off_c, 3, 64, 127
9, 177000, Note_on_c, 3, 64, 127
9, 177000, Note_off_c, 3, 61, 127
9, 177000, Note_on_c, 3, 61, 127
9, 177120, Note_off_c, 3, 64, 127
9, 177120, Note_on_c, 3, 64, 127
9, 177120, Note_off_c, 3, 61, 127
9, 177120, Note_on_c, 3, 61, 127
9, 177240, Note_off_c, 3, 64, 127
9, 177240, Note_on_c, 3, 64, 127
9, 177240, Note_off_c, 3, 61, 127
9, 177240, Note_on_c, 3, 61, 127
9, 177360, Note_off_c, 3, 64, 127
9, 177360, Note_on_c, 3, 64, 127
9, 177360, Note_off_c, 3, 61, 127
9, 177360, Note_on_c, 3, 61, 127
9, 177480, Note_off_c, 3, 64, 127
9, 177480, Note_on_c, 3, 64, 127
9, 177480, Note_off_c, 3, 61, 127
9, 177480, Note_on_c, 3, 61, 127
9, 177599, Note_off_c, 3, 64, 127
9, 177599, Note_off_c, 3, 61, 127
9, 177600, Note_on_c, 3, 66, 127
9, 177600, Note_on_c, 3, 62, 127
9, 177720, Note_off_c, 3, 66, 127
9, 177720, Note_on_c, 3, 66, 127
9, 177720, Note_off_c, 3, 62, 127
9, 177720, Note_on_c, 3, 62, 127
9, 177840, Note_off_c, 3, 66, 127
9, 177840, Note_on_c, 3, 66, 127
9, 177840, Note_off_c, 3, 62, 127
9, 177840, Note_on_c, 3, 62, 127
9, 177960, Note_off_c, 3, 66, 127
9, 177960, Note_on_c, 3, 66, 127
9, 177960, Note_off_c, 3, 62, 127
9, 177960, Note_on_c, 3, 62, 127
9, 178080, Note_off_c, 3, 66, 127
9, 178080, Note_on_c, 3, 66, 127
9, 178080, Note_off_c, 3, 62, 127
9, 178080, Note_on_c, 3, 62, 127
9, 178200, Note_off_c, 3, 66, 127
9, 178200, Note_on_c, 3, 66, 127
9, 178200, Note_off_c, 3, 62, 127
9, 178200, Note_on_c, 3, 62, 127
9, 178320, Note_off_c, 3, 66, 127
9, 178320, Note_on_c, 3, 66, 127
9, 178320, Note_off_c, 3, 62, 127
9, 178320, Note_on_c, 3, 62, 127
9, 178440, Note_off_c, 3, 66, 127
9, 178440, Note_on_c, 3, 66, 127
9, 178440, Note_off_c, 3, 62, 127
9, 178440, Note_on_c, 3, 62, 127
9, 178559, Note_off_c, 3, 66, 127
9, 178559, Note_off_c, 3, 62, 127
9, 178560, Note_on_c, 3, 61, 127
9, 178560, Note_on_c, 3, 58, 127
9, 178680, Note_off_c, 3, 61, 127
9, 178680, Note_on_c, 3, 61, 127
9, 178680, Note_off_c, 3, 58, 127
9, 178680, Note_on_c, 3, 58, 127
9, 178800, Note_off_c, 3, 61, 127
9, 178800, Note_on_c, 3, 61, 127
9, 178800, Note_off_c, 3, 58, 127
9, 178800, Note_on_c, 3, 58, 127
9, 178920, Note_off_c, 3, 61, 127
9, 178920, Note_on_c, 3, 61, 127
9, 178920, Note_off_c, 3, 58, 127
9, 178920, Note_on_c, 3, 58, 127
9, 179040, Note_off_c, 3, 61, 127
9, 179040, Note_on_c, 3, 61, 127
9, 179040, Note_off_c, 3, 58, 127
9, 179040, Note_on_c, 3, 58, 127
9, 179160, Note_off_c, 3, 61, 127
9, 179160, Note_on_c, 3, 61, 127
9, 179160, Note_off_c, 3, 58, 127
9, 179160, Note_on_c, 3, 58, 127
9, 179280, Note_off_c, 3, 61, 127
9, 179280, Note_on_c, 3, 61, 127
9, 179280, Note_off_c, 3, 58, 127
9, 179280, Note_on_c, 3, 58, 127
9, 179400, Note_off_c, 3, 61, 127
9, 179400, Note_on_c, 3, 61, 127
9, 179400, Note_off_c, 3, 58, 127
9, 179400, Note_on_c, 3, 58, 127
9, 179520, Note_off_c, 3, 61, 127
9, 179520, Note_on_c, 3, 61, 127
9, 179520, Note_off_c, 3, 58, 127
9, 179520, Note_on_c, 3, 58, 127
9, 179640, Note_off_c, 3, 61, 127
9, 179640, Note_on_c, 3, 61, 127
9, 179640, Note_off_c, 3, 58, 127
9, 179640, Note_on_c, 3, 58, 127
9, 179760, Note_off_c, 3, 61, 127
9, 179760, Note_on_c, 3, 61, 127
9, 179760, Note_off_c, 3, 58, 127
9, 179760, Note_on_c, 3, 58, 127
9, 179880, Note_off_c, 3, 61, 127
9, 179880, Note_on_c, 3, 61, 127
9, 179880, Note_off_c, 3, 58, 127
9, 179880, Note_on_c, 3, 58, 127
9, 180000, Note_off_c, 3, 61, 127
9, 180000, Note_on_c, 3, 61, 127
9, 180000, Note_off_c, 3, 58, 127
9, 180000, Note_on_c, 3, 58, 127
9, 180120, Note_off_c, 3, 61, 127
9, 180120, Note_on_c, 3, 61, 127
9, 180120, Note_off_c, 3, 58, 127
9, 180120, Note_on_c, 3, 58, 127
9, 180240, Note_off_c, 3, 61, 127
9, 180240, Note_on_c, 3, 61, 127
9, 180240, Note_off_c, 3, 58, 127
9, 180240, Note_on_c, 3, 58, 127
9, 180360, Note_off_c, 3, 61, 127
9, 180360, Note_on_c, 3, 61, 127
9, 180360, Note_off_c, 3, 58, 127
9, 180360, Note_on_c, 3, 58, 127
9, 180480, Note_off_c, 3, 61, 127
9, 180480, Note_on_c, 3, 61, 127
9, 180480, Note_off_c, 3, 58, 127
9, 180480, Note_on_c, 3, 58, 127
9, 180600, Note_off_c, 3, 61, 127
9, 180600, Note_on_c, 3, 61, 127
9, 180600, Note_off_c, 3, 58, 127
9, 180600, Note_on_c, 3, 58, 127
9, 180720, Note_off_c, 3, 61, 127
9, 180720, Note_on_c, 3, 61, 127
9, 180720, Note_off_c, 3, 58, 127
9, 180720, Note_on_c, 3, 58, 127
9, 180840, Note_off_c, 3, 61, 127
9, 180840, Note_on_c, 3, 61, 127
9, 180840, Note_off_c, 3, 58, 127
9, 180840, Note_on_c, 3, 58, 127
9, 180960, Note_off_c, 3, 61, 127
9, 180960, Note_on_c, 3, 61, 127
9, 180960, Note_off_c, 3, 58, 127
9, 180960, Note_on_c, 3, 58, 127
9, 181080, Note_off_c, 3, 61, 127
9, 181080, Note_on_c, 3, 61, 127
9, 181080, Note_off_c, 3, 58, 127
9, 181080, Note_on_c, 3, 58, 127
9, 181200, Note_off_c, 3, 61, 127
9, 181200, Note_on_c, 3, 61, 127
9, 181200, Note_off_c, 3, 58, 127
9, 181200, Note_on_c, 3, 58, 127
9, 181320, Note_off_c, 3, 61, 127
9, 181320, Note_on_c, 3, 61, 127
9, 181320, Note_off_c, 3, 58, 127
9, 181320, Note_on_c, 3, 58, 127
9, 181440, Note_off_c, 3, 61, 127
9, 181440, Note_on_c, 3, 61, 127
9, 181440, Note_off_c, 3, 58, 127
9, 181440, Note_on_c, 3, 58, 127
9, 181560, Note_off_c, 3, 61, 127
9, 181560, Note_on_c, 3, 61, 127
9, 181560, Note_off_c, 3, 58, 127
9, 181560, Note_on_c, 3, 58, 127
9, 181680, Note_off_c, 3, 61, 127
9, 181680, Note_on_c, 3, 61, 127
9, 181680, Note_off_c, 3, 58, 127
9, 181680, Note_on_c, 3, 58, 127
9, 181800, Note_off_c, 3, 61, 127
9, 181800, Note_on_c, 3, 61, 127
9, 181800, Note_off_c, 3, 58, 127
9, 181800, Note_on_c, 3, 58, 127
9, 181920, Note_off_c, 3, 61, 127
9, 181920, Note_on_c, 3, 61, 127
9, 181920, Note_off_c, 3, 58, 127
9, 181920, Note_on_c, 3, 58, 127
9, 182040, Note_off_c, 3, 61, 127
9, 182040, Note_on_c, 3, 61, 127
9, 182040, Note_off_c, 3, 58, 127
9, 182040, Note_on_c, 3, 58, 127
9, 182160, Note_off_c, 3, 61, 127
9, 182160, Note_on_c, 3, 61, 127
9, 182160, Note_off_c, 3, 58, 127
9, 182160, Note_on_c, 3, 58, 127
9, 182280, Note_off_c, 3, 61, 127
9, 182280, Note_on_c, 3, 61, 127
9, 182280, Note_off_c, 3, 58, 127
9, 182280, Note_on_c, 3, 58, 127
9, 182400, Note_off_c, 3, 61, 127
9, 182400, Note_on_c, 3, 61, 127
9, 182400, Note_off_c, 3, 58, 127
9, 182400, Note_on_c, 3, 58, 127
9, 182520, Note_off_c, 3, 61, 127
9, 182520, Note_on_c, 3, 61, 127
9, 182520, Note_off_c, 3, 58, 127
9, 182520, Note_on_c, 3, 58, 127
9, 182640, Note_off_c, 3, 61, 127
9, 182640, Note_on_c, 3, 61, 127
9, 182640, Note_off_c, 3, 58, 127
9, 182640, Note_on_c, 3, 58, 127
9, 182760, Note_off_c, 3, 61, 127
9, 182760, Note_on_c, 3, 61, 127
9, 182760, Note_off_c, 3, 58, 127
9, 182760, Note_on_c, 3, 58, 127
9, 182880, Note_off_c, 3, 61, 127
9, 182880, Note_on_c, 3, 61, 127
9, 182880, Note_off_c, 3, 58, 127
9, 182880, Note_on_c, 3, 58, 127
9, 183000, Note_off_c, 3, 61, 127
9, 183000, Note_on_c, 3, 61, 127
9, 183000, Note_off_c, 3, 58, 127
9, 183000, Note_on_c, 3, 58, 127
9, 183120, Note_off_c, 3, 61, 127
9, 183120, Note_on_c, 3, 61, 127
9, 183120, Note_off_c, 3, 58, 127
9, 183120, Note_on_c, 3, 58, 127
9, 183240, Note_off_c, 3, 61, 127
9, 183240, Note_on_c, 3, 61, 127
9, 183240, Note_off_c, 3, 58, 127
9, 183240, Note_on_c, 3, 58, 127
9, 183360, Note_off_c, 3, 61, 127
9, 183360, Note_on_c, 3, 61, 127
9, 183360, Note_off_c, 3, 58, 127
9, 183360, Note_on_c, 3, 58, 127
9, 183480, Note_off_c, 3, 61, 127
9, 183480, Note_on_c, 3, 61, 127
9, 183480, Note_off_c, 3, 58, 127
9, 183480, Note_on_c, 3, 58, 127
9, 183600, Note_off_c, 3, 61, 127
9, 183600, Note_on_c, 3, 61, 127
9, 183600, Note_off_c, 3, 58, 127
9, 183600, Note_on_c, 3, 58, 127
9, 183720, Note_off_c, 3, 61, 127
9, 183720, Note_on_c, 3, 61, 127
9, 183720, Note_off_c, 3, 58, 127
9, 183720, Note_on_c, 3, 58, 127
9, 183840, Note_off_c, 3, 61, 127
9, 183840, Note_on_c, 3, 61, 127
9, 183840, Note_off_c, 3, 58, 127
9, 183840, Note_on_c, 3, 58, 127
9, 183960, Note_off_c, 3, 61, 127
9, 183960, Note_on_c, 3, 61, 127
9, 183960, Note_off_c, 3, 58, 127
9, 183960, Note_on_c, 3, 58, 127
9, 184080, Note_off_c, 3, 61, 127
9, 184080, Note_on_c, 3, 61, 127
9, 184080, Note_off_c, 3, 58, 127
9, 184080, Note_on_c, 3, 58, 127
9, 184200, Note_off_c, 3, 61, 127
9, 184200, Note_on_c, 3, 61, 127
9, 184200, Note_off_c, 3, 58, 127
9, 184200, Note_on_c, 3, 58, 127
9, 184319, Note_off_c, 3, 61, 127
9, 184319, Note_off_c, 3, 58, 127
9, 184320, Note_on_c, 3, 60, 127
9, 184320, Note_on_c, 3, 56, 127
9, 184440, Note_off_c, 3, 60, 127
9, 184440, Note_on_c, 3, 60, 127
9, 184440, Note_off_c, 3, 56, 127
9, 184440, Note_on_c, 3, 56, 127
9, 184560, Note_off_c, 3, 60, 127
9, 184560, Note_on_c, 3, 60, 127
9, 184560, Note_off_c, 3, 56, 127
9, 184560, Note_on_c, 3, 56, 127
9, 184680, Note_off_c, 3, 60, 127
9, 184680, Note_on_c, 3, 60, 127
9, 184680, Note_off_c, 3, 56, 127
9, 184680, Note_on_c, 3, 56, 127
9, 184800, Note_off_c, 3, 60, 127
9, 184800, Note_on_c, 3, 60, 127
9, 184800, Note_off_c, 3, 56, 127
9, 184800, Note_on_c, 3, 56, 127
9, 184920, Note_off_c, 3, 60, 127
9, 184920, Note_on_c, 3, 60, 127
9, 184920, Note_off_c, 3, 56, 127
9, 184920, Note_on_c, 3, 56, 127
9, 185040, Note_off_c, 3, 60, 127
9, 185040, Note_on_c, 3, 60, 127
9, 185040, Note_off_c, 3, 56, 127
9, 185040, Note_on_c, 3, 56, 127
9, 185160, Note_off_c, 3, 60, 127
9, 185160, Note_on_c, 3, 60, 127
9, 185160, Note_off_c, 3, 56, 127
9, 185160, Note_on_c, 3, 56, 127
9, 185280, Note_off_c, 3, 60, 127
9, 185280, Note_on_c, 3, 60, 127
9, 185280, Note_off_c, 3, 56, 127
9, 185280, Note_on_c, 3, 56, 127
9, 185400, Note_off_c, 3, 60, 127
9, 185400, Note_on_c, 3, 60, 127
9, 185400, Note_off_c, 3, 56, 127
9, 185400, Note_on_c, 3, 56, 127
9, 185520, Note_off_c, 3, 60, 127
9, 185520, Note_on_c, 3, 60, 127
9, 185520, Note_off_c, 3, 56, 127
9, 185520, Note_on_c, 3, 56, 127
9, 185640, Note_off_c, 3, 60, 127
9, 185640, Note_on_c, 3, 60, 127
9, 185640, Note_off_c, 3, 56, 127
9, 185640, Note_on_c, 3, 56, 127
9, 185760, Note_off_c, 3, 60, 127
9, 185760, Note_on_c, 3, 60, 127
9, 185760, Note_off_c, 3, 56, 127
9, 185760, Note_on_c, 3, 56, 127
9, 185880, Note_off_c, 3, 60, 127
9, 185880, Note_on_c, 3, 60, 127
9, 185880, Note_off_c, 3, 56, 127
9, 185880, Note_on_c, 3, 56, 127
9, 186000, Note_off_c, 3, 60, 127
9, 186000, Note_on_c, 3, 60, 127
9, 186000, Note_off_c, 3, 56, 127
9, 186000, Note_on_c, 3, 56, 127
9, 186120, Note_off_c, 3, 60, 127
9, 186120, Note_on_c, 3, 60, 127
9, 186120, Note_off_c, 3, 56, 127
9, 186120, Note_on_c, 3, 56, 127
9, 186240, Note_off_c, 3, 60, 127
9, 186240, Note_on_c, 3, 60, 127
9, 186240, Note_off_c, 3, 56, 127
9, 186240, Note_on_c, 3, 56, 127
9, 186360, Note_off_c, 3, 60, 127
9, 186360, Note_on_c, 3, 60, 127
9, 186360, Note_off_c, 3, 56, 127
9, 186360, Note_on_c, 3, 56, 127
9, 186480, Note_off_c, 3, 60, 127
9, 186480, Note_on_c, 3, 60, 127
9, 186480, Note_off_c, 3, 56, 127
9, 186480, Note_on_c, 3, 56, 127
9, 186600, Note_off_c, 3, 60, 127
9, 186600, Note_on_c, 3, 60, 127
9, 186600, Note_off_c, 3, 56, 127
9, 186600, Note_on_c, 3, 56, 127
9, 186720, Note_off_c, 3, 60, 127
9, 186720, Note_on_c, 3, 60, 127
9, 186720, Note_off_c, 3, 56, 127
9, 186720, Note_on_c, 3, 56, 127
9, 186840, Note_off_c, 3, 60, 127
9, 186840, Note_on_c, 3, 60, 127
9, 186840, Note_off_c, 3, 56, 127
9, 186840, Note_on_c, 3, 56, 127
9, 186960, Note_off_c, 3, 60, 127
9, 186960, Note_on_c, 3, 60, 127
9, 186960, Note_off_c, 3, 56, 127
9, 186960, Note_on_c, 3, 56, 127
9, 187080, Note_off_c, 3, 60, 127
9, 187080, Note_on_c, 3, 60, 127
9, 187080, Note_off_c, 3, 56, 127
9, 187080, Note_on_c, 3, 56, 127
9, 187200, Note_off_c, 3, 60, 127
9, 187200, Note_on_c, 3, 60, 127
9, 187200, Note_off_c, 3, 56, 127
9, 187200, Note_on_c, 3, 56, 127
9, 187320, Note_off_c, 3, 60, 127
9, 187320, Note_on_c, 3, 60, 127
9, 187320, Note_off_c, 3, 56, 127
9, 187320, Note_on_c, 3, 56, 127
9, 187440, Note_off_c, 3, 60, 127
9, 187440, Note_on_c, 3, 60, 127
9, 187440, Note_off_c, 3, 56, 127
9, 187440, Note_on_c, 3, 56, 127
9, 187560, Note_off_c, 3, 60, 127
9, 187560, Note_on_c, 3, 60, 127
9, 187560, Note_off_c, 3, 56, 127
9, 187560, Note_on_c, 3, 56, 127
9, 187680, Note_off_c, 3, 60, 127
9, 187680, Note_on_c, 3, 60, 127
9, 187680, Note_off_c, 3, 56, 127
9, 187680, Note_on_c, 3, 56, 127
9, 187800, Note_off_c, 3, 60, 127
9, 187800, Note_on_c, 3, 60, 127
9, 187800, Note_off_c, 3, 56, 127
9, 187800, Note_on_c, 3, 56, 127
9, 187920, Note_off_c, 3, 60, 127
9, 187920, Note_on_c, 3, 60, 127
9, 187920, Note_off_c, 3, 56, 127
9, 187920, Note_on_c, 3, 56, 127
9, 188040, Note_off_c, 3, 60, 127
9, 188040, Note_on_c, 3, 60, 127
9, 188040, Note_off_c, 3, 56, 127
9, 188040, Note_on_c, 3, 56, 127
9, 188160, Note_off_c, 3, 60, 127
9, 188160, Note_on_c, 3, 60, 127
9, 188160, Note_off_c, 3, 56, 127
9, 188160, Note_on_c, 3, 56, 127
9, 188280, Note_off_c, 3, 60, 127
9, 188280, Note_on_c, 3, 60, 127
9, 188280, Note_off_c, 3, 56, 127
9, 188280, Note_on_c, 3, 56, 127
9, 188400, Note_off_c, 3, 60, 127
9, 188400, Note_on_c, 3, 60, 127
9, 188400, Note_off_c, 3, 56, 127
9, 188400, Note_on_c, 3, 56, 127
9, 188520, Note_off_c, 3, 60, 127
9, 188520, Note_on_c, 3, 60, 127
9, 188520, Note_off_c, 3, 56, 127
9, 188520, Note_on_c, 3, 56, 127
9, 188640, Note_off_c, 3, 60, 127
9, 188640, Note_on_c, 3, 60, 127
9, 188640, Note_off_c, 3, 56, 127
9, 188640, Note_on_c, 3, 56, 127
9, 188760, Note_off_c, 3, 60, 127
9, 188760, Note_on_c, 3, 60, 127
9, 188760, Note_off_c, 3, 56, 127
9, 188760, Note_on_c, 3, 56, 127
9, 188880, Note_off_c, 3, 60, 127
9, 188880, Note_on_c, 3, 60, 127
9, 188880, Note_off_c, 3, 56, 127
9, 188880, Note_on_c, 3, 56, 127
9, 189000, Note_off_c, 3, 60, 127
9, 189000, Note_on_c, 3, 60, 127
9, 189000, Note_off_c, 3, 56, 127
9, 189000, Note_on_c, 3, 56, 127
9, 189120, Note_off_c, 3, 60, 127
9, 189120, Note_on_c, 3, 60, 127
9, 189120, Note_off_c, 3, 56, 127
9, 189120, Note_on_c, 3, 56, 127
9, 189240, Note_off_c, 3, 60, 127
9, 189240, Note_on_c, 3, 60, 127
9, 189240, Note_off_c, 3, 56, 127
9, 189240, Note_on_c, 3, 56, 127
9, 189360, Note_off_c, 3, 60, 127
9, 189360, Note_on_c, 3, 60, 127
9, 189360, Note_off_c, 3, 56, 127
9, 189360, Note_on_c, 3, 56, 127
9, 189480, Note_off_c, 3, 60, 127
9, 189480, Note_on_c, 3, 60, 127
9, 189480, Note_off_c, 3, 56, 127
9, 189480, Note_on_c, 3, 56, 127
9, 189600, Note_off_c, 3, 60, 127
9, 189600, Note_on_c, 3, 60, 127
9, 189600, Note_off_c, 3, 56, 127
9, 189600, Note_on_c, 3, 56, 127
9, 189720, Note_off_c, 3, 60, 127
9, 189720, Note_on_c, 3, 60, 127
9, 189720, Note_off_c, 3, 56, 127
9, 189720, Note_on_c, 3, 56, 127
9, 189840, Note_off_c, 3, 60, 127
9, 189840, Note_on_c, 3, 60, 127
9, 189840, Note_off_c, 3, 56, 127
9, 189840, Note_on_c, 3, 56, 127
9, 189960, Note_off_c, 3, 60, 127
9, 189960, Note_on_c, 3, 60, 127
9, 189960, Note_off_c, 3, 56, 127
9, 189960, Note_on_c, 3, 56, 127
9, 190079, Note_off_c, 3, 60, 127
9, 190079, Note_off_c, 3, 56, 127
9, 190080, Note_on_c, 3, 63, 127
9, 190080, Note_on_c, 3, 58, 127
9, 190200, Note_off_c, 3, 63, 127
9, 190200, Note_on_c, 3, 63, 127
9, 190200, Note_off_c, 3, 58, 127
9, 190200, Note_on_c, 3, 58, 127
9, 190320, Note_off_c, 3, 63, 127
9, 190320, Note_on_c, 3, 63, 127
9, 190320, Note_off_c, 3, 58, 127
9, 190320, Note_on_c, 3, 58, 127
9, 190440, Note_off_c, 3, 63, 127
9, 190440, Note_on_c, 3, 63, 127
9, 190440, Note_off_c, 3, 58, 127
9, 190440, Note_on_c, 3, 58, 127
9, 190560, Note_off_c, 3, 63, 127
9, 190560, Note_on_c, 3, 63, 127
9, 190560, Note_off_c, 3, 58, 127
9, 190560, Note_on_c, 3, 58, 127
9, 190680, Note_off_c, 3, 63, 127
9, 190680, Note_on_c, 3, 63, 127
9, 190680, Note_off_c, 3, 58, 127
9, 190680, Note_on_c, 3, 58, 127
9, 190800, Note_off_c, 3, 63, 127
9, 190800, Note_on_c, 3, 63, 127
9, 190800, Note_off_c, 3, 58, 127
9, 190800, Note_on_c, 3, 58, 127
9, 190920, Note_off_c, 3, 63, 127
9, 190920, Note_on_c, 3, 63, 127
9, 190920, Note_off_c, 3, 58, 127
9, 190920, Note_on_c, 3, 58, 127
9, 191039, Note_off_c, 3, 63, 127
9, 191039, Note_off_c, 3, 58, 127
9, 191040, Note_on_c, 3, 60, 127
9, 191040, Note_on_c, 3, 56, 127
9, 191160, Note_off_c, 3, 60, 127
9, 191160, Note_on_c, 3, 60, 127
9, 191160, Note_off_c, 3, 56, 127
9, 191160, Note_on_c, 3, 56, 127
9, 191280, Note_off_c, 3, 60, 127
9, 191280, Note_on_c, 3, 60, 127
9, 191280, Note_off_c, 3, 56, 127
9, 191280, Note_on_c, 3, 56, 127
9, 191400, Note_off_c, 3, 60, 127
9, 191400, Note_on_c, 3, 60, 127
9, 191400, Note_off_c, 3, 56, 127
9, 191400, Note_on_c, 3, 56, 127
9, 191520, Note_off_c, 3, 60, 127
9, 191520, Note_on_c, 3, 60, 127
9, 191520, Note_off_c, 3, 56, 127
9, 191520, Note_on_c, 3, 56, 127
9, 191640, Note_off_c, 3, 60, 127
9, 191640, Note_on_c, 3, 60, 127
9, 191640, Note_off_c, 3, 56, 127
9, 191640, Note_on_c, 3, 56, 127
9, 191760, Note_off_c, 3, 60, 127
9, 191760, Note_on_c, 3, 60, 127
9, 191760, Note_off_c, 3, 56, 127
9, 191760, Note_on_c, 3, 56, 127
9, 191880, Note_off_c, 3, 60, 127
9, 191880, Note_on_c, 3, 60, 127
9, 191880, Note_off_c, 3, 56, 127
9, 191880, Note_on_c, 3, 56, 127
9, 191999, Note_off_c, 3, 60, 127
9, 191999, Note_off_c, 3, 56, 127
9, 192000, Note_on_c, 3, 56, 127
9, 192000, Note_on_c, 3, 53, 127
9, 192120, Note_off_c, 3, 56, 127
9, 192120, Note_on_c, 3, 56, 127
9, 192120, Note_off_c, 3, 53, 127
9, 192120, Note_on_c, 3, 53, 127
9, 192240, Note_off_c, 3, 56, 127
9, 192240, Note_on_c, 3, 56, 127
9, 192240, Note_off_c, 3, 53, 127
9, 192240, Note_on_c, 3, 53, 127
9, 192360, Note_off_c, 3, 56, 127
9, 192360, Note_on_c, 3, 56, 127
9, 192360, Note_off_c, 3, 53, 127
9, 192360, Note_on_c, 3, 53, 127
9, 192480, Note_off_c, 3, 56, 127
9, 192480, Note_on_c, 3, 56, 127
9, 192480, Note_off_c, 3, 53, 127
9, 192480, Note_on_c, 3, 53, 127
9, 192600, Note_off_c, 3, 56, 127
9, 192600, Note_on_c, 3, 56, 127
9, 192600, Note_off_c, 3, 53, 127
9, 192600, Note_on_c, 3, 53, 127
9, 192720, Note_off_c, 3, 56, 127
9, 192720, Note_on_c, 3, 56, 127
9, 192720, Note_off_c, 3, 53, 127
9, 192720, Note_on_c, 3, 53, 127
9, 192840, Note_off_c, 3, 56, 127
9, 192840, Note_on_c, 3, 56, 127
9, 192840, Note_off_c, 3, 53, 127
9, 192840, Note_on_c, 3, 53, 127
9, 192960, Note_off_c, 3, 56, 127
9, 192960, Note_on_c, 3, 56, 127
9, 192960, Note_off_c, 3, 53, 127
9, 192960, Note_on_c, 3, 53, 127
9, 193080, Note_off_c, 3, 56, 127
9, 193080, Note_on_c, 3, 56, 127
9, 193080, Note_off_c, 3, 53, 127
9, 193080, Note_on_c, 3, 53, 127
9, 193200, Note_off_c, 3, 56, 127
9, 193200, Note_on_c, 3, 56, 127
9, 193200, Note_off_c, 3, 53, 127
9, 193200, Note_on_c, 3, 53, 127
9, 193320, Note_off_c, 3, 56, 127
9, 193320, Note_on_c, 3, 56, 127
9, 193320, Note_off_c, 3, 53, 127
9, 193320, Note_on_c, 3, 53, 127
9, 193440, Note_off_c, 3, 56, 127
9, 193440, Note_on_c, 3, 56, 127
9, 193440, Note_off_c, 3, 53, 127
9, 193440, Note_on_c, 3, 53, 127
9, 193560, Note_off_c, 3, 56, 127
9, 193560, Note_on_c, 3, 56, 127
9, 193560, Note_off_c, 3, 53, 127
9, 193560, Note_on_c, 3, 53, 127
9, 193680, Note_off_c, 3, 56, 127
9, 193680, Note_on_c, 3, 56, 127
9, 193680, Note_off_c, 3, 53, 127
9, 193680, Note_on_c, 3, 53, 127
9, 193800, Note_off_c, 3, 56, 127
9, 193800, Note_on_c, 3, 56, 127
9, 193800, Note_off_c, 3, 53, 127
9, 193800, Note_on_c, 3, 53, 127
9, 193920, Note_off_c, 3, 56, 127
9, 193920, Note_on_c, 3, 56, 127
9, 193920, Note_off_c, 3, 53, 127
9, 193920, Note_on_c, 3, 53, 127
9, 194040, Note_off_c, 3, 56, 127
9, 194040, Note_on_c, 3, 56, 127
9, 194040, Note_off_c, 3, 53, 127
9, 194040, Note_on_c, 3, 53, 127
9, 194160, Note_off_c, 3, 56, 127
9, 194160, Note_on_c, 3, 56, 127
9, 194160, Note_off_c, 3, 53, 127
9, 194160, Note_on_c, 3, 53, 127
9, 194280, Note_off_c, 3, 56, 127
9, 194280, Note_on_c, 3, 56, 127
9, 194280, Note_off_c, 3, 53, 127
9, 194280, Note_on_c, 3, 53, 127
9, 194400, Note_off_c, 3, 56, 127
9, 194400, Note_on_c, 3, 56, 127
9, 194400, Note_off_c, 3, 53, 127
9, 194400, Note_on_c, 3, 53, 127
9, 194520, Note_off_c, 3, 56, 127
9, 194520, Note_on_c, 3, 56, 127
9, 194520, Note_off_c, 3, 53, 127
9, 194520, Note_on_c, 3, 53, 127
9, 194640, Note_off_c, 3, 56, 127
9, 194640, Note_on_c, 3, 56, 127
9, 194640, Note_off_c, 3, 53, 127
9, 194640, Note_on_c, 3, 53, 127
9, 194760, Note_off_c, 3, 56, 127
9, 194760, Note_on_c, 3, 56, 127
9, 194760, Note_off_c, 3, 53, 127
9, 194760, Note_on_c, 3, 53, 127
9, 194880, Note_off_c, 3, 56, 127
9, 194880, Note_on_c, 3, 56, 127
9, 194880, Note_off_c, 3, 53, 127
9, 194880, Note_on_c, 3, 53, 127
9, 195000, Note_off_c, 3, 56, 127
9, 195000, Note_on_c, 3, 56, 127
9, 195000, Note_off_c, 3, 53, 127
9, 195000, Note_on_c, 3, 53, 127
9, 195120, Note_off_c, 3, 56, 127
9, 195120, Note_on_c, 3, 56, 127
9, 195120, Note_off_c, 3, 53, 127
9, 195120, Note_on_c, 3, 53, 127
9, 195240, Note_off_c, 3, 56, 127
9, 195240, Note_on_c, 3, 56, 127
9, 195240, Note_off_c, 3, 53, 127
9, 195240, Note_on_c, 3, 53, 127
9, 195360, Note_off_c, 3, 56, 127
9, 195360, Note_on_c, 3, 56, 127
9, 195360, Note_off_c, 3, 53, 127
9, 195360, Note_on_c, 3, 53, 127
9, 195480, Note_off_c, 3, 56, 127
9, 195480, Note_on_c, 3, 56, 127
9, 195480, Note_off_c, 3, 53, 127
9, 195480, Note_on_c, 3, 53, 127
9, 195600, Note_off_c, 3, 56, 127
9, 195600, Note_on_c, 3, 56, 127
9, 195600, Note_off_c, 3, 53, 127
9, 195600, Note_on_c, 3, 53, 127
9, 195720, Note_off_c, 3, 56, 127
9, 195720, Note_on_c, 3, 56, 127
9, 195720, Note_off_c, 3, 53, 127
9, 195720, Note_on_c, 3, 53, 127
9, 195840, Note_off_c, 3, 56, 127
9, 195840, Note_on_c, 3, 56, 127
9, 195840, Note_off_c, 3, 53, 127
9, 195840, Note_on_c, 3, 53, 127
9, 195960, Note_off_c, 3, 56, 127
9, 195960, Note_on_c, 3, 56, 127
9, 195960, Note_off_c, 3, 53, 127
9, 195960, Note_on_c, 3, 53, 127
9, 196080, Note_off_c, 3, 56, 127
9, 196080, Note_on_c, 3, 56, 127
9, 196080, Note_off_c, 3, 53, 127
9, 196080, Note_on_c, 3, 53, 127
9, 196200, Note_off_c, 3, 56, 127
9, 196200, Note_on_c, 3, 56, 127
9, 196200, Note_off_c, 3, 53, 127
9, 196200, Note_on_c, 3, 53, 127
9, 196320, Note_off_c, 3, 56, 127
9, 196320, Note_on_c, 3, 56, 127
9, 196320, Note_off_c, 3, 53, 127
9, 196320, Note_on_c, 3, 53, 127
9, 196440, Note_off_c, 3, 56, 127
9, 196440, Note_on_c, 3, 56, 127
9, 196440, Note_off_c, 3, 53, 127
9, 196440, Note_on_c, 3, 53, 127
9, 196560, Note_off_c, 3, 56, 127
9, 196560, Note_on_c, 3, 56, 127
9, 196560, Note_off_c, 3, 53, 127
9, 196560, Note_on_c, 3, 53, 127
9, 196680, Note_off_c, 3, 56, 127
9, 196680, Note_on_c, 3, 56, 127
9, 196680, Note_off_c, 3, 53, 127
9, 196680, Note_on_c, 3, 53, 127
9, 196800, Note_off_c, 3, 56, 127
9, 196800, Note_on_c, 3, 56, 127
9, 196800, Note_off_c, 3, 53, 127
9, 196800, Note_on_c, 3, 53, 127
9, 196920, Note_off_c, 3, 56, 127
9, 196920, Note_on_c, 3, 56, 127
9, 196920, Note_off_c, 3, 53, 127
9, 196920, Note_on_c, 3, 53, 127
9, 197040, Note_off_c, 3, 56, 127
9, 197040, Note_on_c, 3, 56, 127
9, 197040, Note_off_c, 3, 53, 127
9, 197040, Note_on_c, 3, 53, 127
9, 197160, Note_off_c, 3, 56, 127
9, 197160, Note_on_c, 3, 56, 127
9, 197160, Note_off_c, 3, 53, 127
9, 197160, Note_on_c, 3, 53, 127
9, 197280, Note_off_c, 3, 56, 127
9, 197280, Note_on_c, 3, 56, 127
9, 197280, Note_off_c, 3, 53, 127
9, 197280, Note_on_c, 3, 53, 127
9, 197400, Note_off_c, 3, 56, 127
9, 197400, Note_on_c, 3, 56, 127
9, 197400, Note_off_c, 3, 53, 127
9, 197400, Note_on_c, 3, 53, 127
9, 197520, Note_off_c, 3, 56, 127
9, 197520, Note_on_c, 3, 56, 127
9, 197520, Note_off_c, 3, 53, 127
9, 197520, Note_on_c, 3, 53, 127
9, 197640, Note_off_c, 3, 56, 127
9, 197640, Note_on_c, 3, 56, 127
9, 197640, Note_off_c, 3, 53, 127
9, 197640, Note_on_c, 3, 53, 127
9, 197759, Note_off_c, 3, 56, 127
9, 197759, Note_off_c, 3, 53, 127
9, 197760, Note_on_c, 3, 55, 127
9, 197760, Note_on_c, 3, 51, 127
9, 197880, Note_off_c, 3, 55, 127
9, 197880, Note_on_c, 3, 55, 127
9, 197880, Note_off_c, 3, 51, 127
9, 197880, Note_on_c, 3, 51, 127
9, 198000, Note_off_c, 3, 55, 127
9, 198000, Note_on_c, 3, 55, 127
9, 198000, Note_off_c, 3, 51, 127
9, 198000, Note_on_c, 3, 51, 127
9, 198120, Note_off_c, 3, 55, 127
9, 198120, Note_on_c, 3, 55, 127
9, 198120, Note_off_c, 3, 51, 127
9, 198120, Note_on_c, 3, 51, 127
9, 198240, Note_off_c, 3, 55, 127
9, 198240, Note_on_c, 3, 55, 127
9, 198240, Note_off_c, 3, 51, 127
9, 198240, Note_on_c, 3, 51, 127
9, 198360, Note_off_c, 3, 55, 127
9, 198360, Note_on_c, 3, 55, 127
9, 198360, Note_off_c, 3, 51, 127
9, 198360, Note_on_c, 3, 51, 127
9, 198480, Note_off_c, 3, 55, 127
9, 198480, Note_on_c, 3, 55, 127
9, 198480, Note_off_c, 3, 51, 127
9, 198480, Note_on_c, 3, 51, 127
9, 198600, Note_off_c, 3, 55, 127
9, 198600, Note_on_c, 3, 55, 127
9, 198600, Note_off_c, 3, 51, 127
9, 198600, Note_on_c, 3, 51, 127
9, 198719, Note_off_c, 3, 55, 127
9, 198719, Note_off_c, 3, 51, 127
9, 198720, Note_on_c, 3, 56, 127
9, 198720, Note_on_c, 3, 53, 127
9, 198840, Note_off_c, 3, 56, 127
9, 198840, Note_on_c, 3, 56, 127
9, 198840, Note_off_c, 3, 53, 127
9, 198840, Note_on_c, 3, 53, 127
9, 198960, Note_off_c, 3, 56, 127
9, 198960, Note_on_c, 3, 56, 127
9, 198960, Note_off_c, 3, 53, 127
9, 198960, Note_on_c, 3, 53, 127
9, 199080, Note_off_c, 3, 56, 127
9, 199080, Note_on_c, 3, 56, 127
9, 199080, Note_off_c, 3, 53, 127
9, 199080, Note_on_c, 3, 53, 127
9, 199200, Note_off_c, 3, 56, 127
9, 199200, Note_on_c, 3, 56, 127
9, 199200, Note_off_c, 3, 53, 127
9, 199200, Note_on_c, 3, 53, 127
9, 199320, Note_off_c, 3, 56, 127
9, 199320, Note_on_c, 3, 56, 127
9, 199320, Note_off_c, 3, 53, 127
9, 199320, Note_on_c, 3, 53, 127
9, 199440, Note_off_c, 3, 56, 127
9, 199440, Note_on_c, 3, 56, 127
9, 199440, Note_off_c, 3, 53, 127
9, 199440, Note_on_c, 3, 53, 127
9, 199560, Note_off_c, 3, 56, 127
9, 199560, Note_on_c, 3, 56, 127
9, 199560, Note_off_c, 3, 53, 127
9, 199560, Note_on_c, 3, 53, 127
9, 199679, Note_off_c, 3, 56, 127
9, 199679, Note_off_c, 3, 53, 127
9, 199680, Note_on_c, 3, 60, 127
9, 199680, Note_on_c, 3, 56, 127
9, 199800, Note_off_c, 3, 60, 127
9, 199800, Note_on_c, 3, 60, 127
9, 199800, Note_off_c, 3, 56, 127
9, 199800, Note_on_c, 3, 56, 127
9, 199920, Note_off_c, 3, 60, 127
9, 199920, Note_on_c, 3, 60, 127
9, 199920, Note_off_c, 3, 56, 127
9, 199920, Note_on_c, 3, 56, 127
9, 200040, Note_off_c, 3, 60, 127
9, 200040, Note_on_c, 3, 60, 127
9, 200040, Note_off_c, 3, 56, 127
9, 200040, Note_on_c, 3, 56, 127
9, 200160, Note_off_c, 3, 60, 127
9, 200160, Note_on_c, 3, 60, 127
9, 200160, Note_off_c, 3, 56, 127
9, 200160, Note_on_c, 3, 56, 127
9, 200280, Note_off_c, 3, 60, 127
9, 200280, Note_on_c, 3, 60, 127
9, 200280, Note_off_c, 3, 56, 127
9, 200280, Note_on_c, 3, 56, 127
9, 200400, Note_off_c, 3, 60, 127
9, 200400, Note_on_c, 3, 60, 127
9, 200400, Note_off_c, 3, 56, 127
9, 200400, Note_on_c, 3, 56, 127
9, 200520, Note_off_c, 3, 60, 127
9, 200520, Note_on_c, 3, 60, 127
9, 200520, Note_off_c, 3, 56, 127
9, 200520, Note_on_c, 3, 56, 127
9, 200640, Note_off_c, 3, 60, 127
9, 200640, Note_on_c, 3, 60, 127
9, 200640, Note_off_c, 3, 56, 127
9, 200640, Note_on_c, 3, 56, 127
9, 200760, Note_off_c, 3, 60, 127
9, 200760, Note_on_c, 3, 60, 127
9, 200760, Note_off_c, 3, 56, 127
9, 200760, Note_on_c, 3, 56, 127
9, 200880, Note_off_c, 3, 60, 127
9, 200880, Note_on_c, 3, 60, 127
9, 200880, Note_off_c, 3, 56, 127
9, 200880, Note_on_c, 3, 56, 127
9, 201000, Note_off_c, 3, 60, 127
9, 201000, Note_on_c, 3, 60, 127
9, 201000, Note_off_c, 3, 56, 127
9, 201000, Note_on_c, 3, 56, 127
9, 201120, Note_off_c, 3, 60, 127
9, 201120, Note_on_c, 3, 60, 127
9, 201120, Note_off_c, 3, 56, 127
9, 201120, Note_on_c, 3, 56, 127
9, 201240, Note_off_c, 3, 60, 127
9, 201240, Note_on_c, 3, 60, 127
9, 201240, Note_off_c, 3, 56, 127
9, 201240, Note_on_c, 3, 56, 127
9, 201360, Note_off_c, 3, 60, 127
9, 201360, Note_on_c, 3, 60, 127
9, 201360, Note_off_c, 3, 56, 127
9, 201360, Note_on_c, 3, 56, 127
9, 201480, Note_off_c, 3, 60, 127
9, 201480, Note_on_c, 3, 60, 127
9, 201480, Note_off_c, 3, 56, 127
9, 201480, Note_on_c, 3, 56, 127
9, 201600, Note_off_c, 3, 60, 127
9, 201600, Note_on_c, 3, 60, 127
9, 201600, Note_off_c, 3, 56, 127
9, 201600, Note_on_c, 3, 56, 127
9, 201720, Note_off_c, 3, 60, 127
9, 201720, Note_on_c, 3, 60, 127
9, 201720, Note_off_c, 3, 56, 127
9, 201720, Note_on_c, 3, 56, 127
9, 201840, Note_off_c, 3, 60, 127
9, 201840, Note_on_c, 3, 60, 127
9, 201840, Note_off_c, 3, 56, 127
9, 201840, Note_on_c, 3, 56, 127
9, 201960, Note_off_c, 3, 60, 127
9, 201960, Note_on_c, 3, 60, 127
9, 201960, Note_off_c, 3, 56, 127
9, 201960, Note_on_c, 3, 56, 127
9, 202080, Note_off_c, 3, 60, 127
9, 202080, Note_on_c, 3, 60, 127
9, 202080, Note_off_c, 3, 56, 127
9, 202080, Note_on_c, 3, 56, 127
9, 202200, Note_off_c, 3, 60, 127
9, 202200, Note_on_c, 3, 60, 127
9, 202200, Note_off_c, 3, 56, 127
9, 202200, Note_on_c, 3, 56, 127
9, 202320, Note_off_c, 3, 60, 127
9, 202320, Note_on_c, 3, 60, 127
9, 202320, Note_off_c, 3, 56, 127
9, 202320, Note_on_c, 3, 56, 127
9, 202440, Note_off_c, 3, 60, 127
9, 202440, Note_on_c, 3, 60, 127
9, 202440, Note_off_c, 3, 56, 127
9, 202440, Note_on_c, 3, 56, 127
9, 202560, Note_off_c, 3, 60, 127
9, 202560, Note_on_c, 3, 60, 127
9, 202560, Note_off_c, 3, 56, 127
9, 202560, Note_on_c, 3, 56, 127
9, 202680, Note_off_c, 3, 60, 127
9, 202680, Note_on_c, 3, 60, 127
9, 202680, Note_off_c, 3, 56, 127
9, 202680, Note_on_c, 3, 56, 127
9, 202800, Note_off_c, 3, 60, 127
9, 202800, Note_on_c, 3, 60, 127
9, 202800, Note_off_c, 3, 56, 127
9, 202800, Note_on_c, 3, 56, 127
9, 202920, Note_off_c, 3, 60, 127
9, 202920, Note_on_c, 3, 60, 127
9, 202920, Note_off_c, 3, 56, 127
9, 202920, Note_on_c, 3, 56, 127
9, 203040, Note_off_c, 3, 60, 127
9, 203040, Note_on_c, 3, 60, 127
9, 203040, Note_off_c, 3, 56, 127
9, 203040, Note_on_c, 3, 56, 127
9, 203160, Note_off_c, 3, 60, 127
9, 203160, Note_on_c, 3, 60, 127
9, 203160, Note_off_c, 3, 56, 127
9, 203160, Note_on_c, 3, 56, 127
9, 203280, Note_off_c, 3, 60, 127
9, 203280, Note_on_c, 3, 60, 127
9, 203280, Note_off_c, 3, 56, 127
9, 203280, Note_on_c, 3, 56, 127
9, 203400, Note_off_c, 3, 60, 127
9, 203400, Note_on_c, 3, 60, 127
9, 203400, Note_off_c, 3, 56, 127
9, 203400, Note_on_c, 3, 56, 127
9, 203520, Note_off_c, 3, 60, 127
9, 203520, Note_on_c, 3, 60, 127
9, 203520, Note_off_c, 3, 56, 127
9, 203520, Note_on_c, 3, 56, 127
9, 203640, Note_off_c, 3, 60, 127
9, 203640, Note_on_c, 3, 60, 127
9, 203640, Note_off_c, 3, 56, 127
9, 203640, Note_on_c, 3, 56, 127
9, 203760, Note_off_c, 3, 60, 127
9, 203760, Note_on_c, 3, 60, 127
9, 203760, Note_off_c, 3, 56, 127
9, 203760, Note_on_c, 3, 56, 127
9, 203880, Note_off_c, 3, 60, 127
9, 203880, Note_on_c, 3, 60, 127
9, 203880, Note_off_c, 3, 56, 127
9, 203880, Note_on_c, 3, 56, 127
9, 204000, Note_off_c, 3, 60, 127
9, 204000, Note_on_c, 3, 60, 127
9, 204000, Note_off_c, 3, 56, 127
9, 204000, Note_on_c, 3, 56, 127
9, 204120, Note_off_c, 3, 60, 127
9, 204120, Note_on_c, 3, 60, 127
9, 204120, Note_off_c, 3, 56, 127
9, 204120, Note_on_c, 3, 56, 127
9, 204240, Note_off_c, 3, 60, 127
9, 204240, Note_on_c, 3, 60, 127
9, 204240, Note_off_c, 3, 56, 127
9, 204240, Note_on_c, 3, 56, 127
9, 204360, Note_off_c, 3, 60, 127
9, 204360, Note_on_c, 3, 60, 127
9, 204360, Note_off_c, 3, 56, 127
9, 204360, Note_on_c, 3, 56, 127
9, 204480, Note_off_c, 3, 60, 127
9, 204480, Note_on_c, 3, 60, 127
9, 204480, Note_off_c, 3, 56, 127
9, 204480, Note_on_c, 3, 56, 127
9, 204600, Note_off_c, 3, 60, 127
9, 204600, Note_on_c, 3, 60, 127
9, 204600, Note_off_c, 3, 56, 127
9, 204600, Note_on_c, 3, 56, 127
9, 204720, Note_off_c, 3, 60, 127
9, 204720, Note_on_c, 3, 60, 127
9, 204720, Note_off_c, 3, 56, 127
9, 204720, Note_on_c, 3, 56, 127
9, 204840, Note_off_c, 3, 60, 127
9, 204840, Note_on_c, 3, 60, 127
9, 204840, Note_off_c, 3, 56, 127
9, 204840, Note_on_c, 3, 56, 127
9, 204960, Note_off_c, 3, 60, 127
9, 204960, Note_on_c, 3, 60, 127
9, 204960, Note_off_c, 3, 56, 127
9, 204960, Note_on_c, 3, 56, 127
9, 205080, Note_off_c, 3, 60, 127
9, 205080, Note_on_c, 3, 60, 127
9, 205080, Note_off_c, 3, 56, 127
9, 205080, Note_on_c, 3, 56, 127
9, 205200, Note_off_c, 3, 60, 127
9, 205200, Note_on_c, 3, 60, 127
9, 205200, Note_off_c, 3, 56, 127
9, 205200, Note_on_c, 3, 56, 127
9, 205320, Note_off_c, 3, 60, 127
9, 205320, Note_on_c, 3, 60, 127
9, 205320, Note_off_c, 3, 56, 127
9, 205320, Note_on_c, 3, 56, 127
9, 205439, Note_off_c, 3, 60, 127
9, 205439, Note_off_c, 3, 56, 127
9, 205440, Note_on_c, 3, 63, 127
9, 205440, Note_on_c, 3, 58, 127
9, 205560, Note_off_c, 3, 63, 127
9, 205560, Note_on_c, 3, 63, 127
9, 205560, Note_off_c, 3, 58, 127
9, 205560, Note_on_c, 3, 58, 127
9, 205680, Note_off_c, 3, 63, 127
9, 205680, Note_on_c, 3, 63, 127
9, 205680, Note_off_c, 3, 58, 127
9, 205680, Note_on_c, 3, 58, 127
9, 205800, Note_off_c, 3, 63, 127
9, 205800, Note_on_c, 3, 63, 127
9, 205800, Note_off_c, 3, 58, 127
9, 205800, Note_on_c, 3, 58, 127
9, 205920, Note_off_c, 3, 63, 127
9, 205920, Note_on_c, 3, 63, 127
9, 205920, Note_off_c, 3, 58, 127
9, 205920, Note_on_c, 3, 58, 127
9, 206040, Note_off_c, 3, 63, 127
9, 206040, Note_on_c, 3, 63, 127
9, 206040, Note_off_c, 3, 58, 127
9, 206040, Note_on_c, 3, 58, 127
9, 206160, Note_off_c, 3, 63, 127
9, 206160, Note_on_c, 3, 63, 127
9, 206160, Note_off_c, 3, 58, 127
9, 206160, Note_on_c, 3, 58, 127
9, 206280, Note_off_c, 3, 63, 127
9, 206280, Note_on_c, 3, 63, 127
9, 206280, Note_off_c, 3, 58, 127
9, 206280, Note_on_c, 3, 58, 127
9, 206399, Note_off_c, 3, 63, 127
9, 206399, Note_off_c, 3, 58, 127
9, 206400, Note_on_c, 3, 60, 127
9, 206400, Note_on_c, 3, 56, 127
9, 206520, Note_off_c, 3, 60, 127
9, 206520, Note_on_c, 3, 60, 127
9, 206520, Note_off_c, 3, 56, 127
9, 206520, Note_on_c, 3, 56, 127
9, 206640, Note_off_c, 3, 60, 127
9, 206640, Note_on_c, 3, 60, 127
9, 206640, Note_off_c, 3, 56, 127
9, 206640, Note_on_c, 3, 56, 127
9, 206760, Note_off_c, 3, 60, 127
9, 206760, Note_on_c, 3, 60, 127
9, 206760, Note_off_c, 3, 56, 127
9, 206760, Note_on_c, 3, 56, 127
9, 206880, Note_off_c, 3, 60, 127
9, 206880, Note_on_c, 3, 60, 127
9, 206880, Note_off_c, 3, 56, 127
9, 206880, Note_on_c, 3, 56, 127
9, 207000, Note_off_c, 3, 60, 127
9, 207000, Note_on_c, 3, 60, 127
9, 207000, Note_off_c, 3, 56, 127
9, 207000, Note_on_c, 3, 56, 127
9, 207120, Note_off_c, 3, 60, 127
9, 207120, Note_on_c, 3, 60, 127
9, 207120, Note_off_c, 3, 56, 127
9, 207120, Note_on_c, 3, 56, 127
9, 207240, Note_off_c, 3, 60, 127
9, 207240, Note_on_c, 3, 60, 127
9, 207240, Note_off_c, 3, 56, 127
9, 207240, Note_on_c, 3, 56, 127
9, 207359, Note_off_c, 3, 60, 127
9, 207359, Note_off_c, 3, 56, 127
9, 207360, Note_on_c, 3, 56, 127
9, 207360, Note_on_c, 3, 53, 127
9, 207480, Note_off_c, 3, 56, 127
9, 207480, Note_on_c, 3, 56, 127
9, 207480, Note_off_c, 3, 53, 127
9, 207480, Note_on_c, 3, 53, 127
9, 207600, Note_off_c, 3, 56, 127
9, 207600, Note_on_c, 3, 56, 127
9, 207600, Note_off_c, 3, 53, 127
9, 207600, Note_on_c, 3, 53, 127
9, 207720, Note_off_c, 3, 56, 127
9, 207720, Note_on_c, 3, 56, 127
9, 207720, Note_off_c, 3, 53, 127
9, 207720, Note_on_c, 3, 53, 127
9, 207840, Note_off_c, 3, 56, 127
9, 207840, Note_on_c, 3, 56, 127
9, 207840, Note_off_c, 3, 53, 127
9, 207840, Note_on_c, 3, 53, 127
9, 207960, Note_off_c, 3, 56, 127
9, 207960, Note_on_c, 3, 56, 127
9, 207960, Note_off_c, 3, 53, 127
9, 207960, Note_on_c, 3, 53, 127
9, 208080, Note_off_c, 3, 56, 127
9, 208080, Note_on_c, 3, 56, 127
9, 208080, Note_off_c, 3, 53, 127
9, 208080, Note_on_c, 3, 53, 127
9, 208200, Note_off_c, 3, 56, 127
9, 208200, Note_on_c, 3, 56, 127
9, 208200, Note_off_c, 3, 53, 127
9, 208200, Note_on_c, 3, 53, 127
9, 208320, Note_off_c, 3, 56, 127
9, 208320, Note_on_c, 3, 56, 127
9, 208320, Note_off_c, 3, 53, 127
9, 208320, Note_on_c, 3, 53, 127
9, 208440, Note_off_c, 3, 56, 127
9, 208440, Note_on_c, 3, 56, 127
9, 208440, Note_off_c, 3, 53, 127
9, 208440, Note_on_c, 3, 53, 127
9, 208560, Note_off_c, 3, 56, 127
9, 208560, Note_on_c, 3, 56, 127
9, 208560, Note_off_c, 3, 53, 127
9, 208560, Note_on_c, 3, 53, 127
9, 208680, Note_off_c, 3, 56, 127
9, 208680, Note_on_c, 3, 56, 127
9, 208680, Note_off_c, 3, 53, 127
9, 208680, Note_on_c, 3, 53, 127
9, 208800, Note_off_c, 3, 56, 127
9, 208800, Note_on_c, 3, 56, 127
9, 208800, Note_off_c, 3, 53, 127
9, 208800, Note_on_c, 3, 53, 127
9, 208920, Note_off_c, 3, 56, 127
9, 208920, Note_on_c, 3, 56, 127
9, 208920, Note_off_c, 3, 53, 127
9, 208920, Note_on_c, 3, 53, 127
9, 209040, Note_off_c, 3, 56, 127
9, 209040, Note_on_c, 3, 56, 127
9, 209040, Note_off_c, 3, 53, 127
9, 209040, Note_on_c, 3, 53, 127
9, 209160, Note_off_c, 3, 56, 127
9, 209160, Note_on_c, 3, 56, 127
9, 209160, Note_off_c, 3, 53, 127
9, 209160, Note_on_c, 3, 53, 127
9, 209280, Note_off_c, 3, 56, 127
9, 209280, Note_on_c, 3, 56, 127
9, 209280, Note_off_c, 3, 53, 127
9, 209280, Note_on_c, 3, 53, 127
9, 209400, Note_off_c, 3, 56, 127
9, 209400, Note_on_c, 3, 56, 127
9, 209400, Note_off_c, 3, 53, 127
9, 209400, Note_on_c, 3, 53, 127
9, 209520, Note_off_c, 3, 56, 127
9, 209520, Note_on_c, 3, 56, 127
9, 209520, Note_off_c, 3, 53, 127
9, 209520, Note_on_c, 3, 53, 127
9, 209640, Note_off_c, 3, 56, 127
9, 209640, Note_on_c, 3, 56, 127
9, 209640, Note_off_c, 3, 53, 127
9, 209640, Note_on_c, 3, 53, 127
9, 209760, Note_off_c, 3, 56, 127
9, 209760, Note_on_c, 3, 56, 127
9, 209760, Note_off_c, 3, 53, 127
9, 209760, Note_on_c, 3, 53, 127
9, 209880, Note_off_c, 3, 56, 127
9, 209880, Note_on_c, 3, 56, 127
9, 209880, Note_off_c, 3, 53, 127
9, 209880, Note_on_c, 3, 53, 127
9, 210000, Note_off_c, 3, 56, 127
9, 210000, Note_on_c, 3, 56, 127
9, 210000, Note_off_c, 3, 53, 127
9, 210000, Note_on_c, 3, 53, 127
9, 210120, Note_off_c, 3, 56, 127
9, 210120, Note_on_c, 3, 56, 127
9, 210120, Note_off_c, 3, 53, 127
9, 210120, Note_on_c, 3, 53, 127
9, 210240, Note_off_c, 3, 56, 127
9, 210240, Note_on_c, 3, 56, 127
9, 210240, Note_off_c, 3, 53, 127
9, 210240, Note_on_c, 3, 53, 127
9, 210360, Note_off_c, 3, 56, 127
9, 210360, Note_on_c, 3, 56, 127
9, 210360, Note_off_c, 3, 53, 127
9, 210360, Note_on_c, 3, 53, 127
9, 210480, Note_off_c, 3, 56, 127
9, 210480, Note_on_c, 3, 56, 127
9, 210480, Note_off_c, 3, 53, 127
9, 210480, Note_on_c, 3, 53, 127
9, 210600, Note_off_c, 3, 56, 127
9, 210600, Note_on_c, 3, 56, 127
9, 210600, Note_off_c, 3, 53, 127
9, 210600, Note_on_c, 3, 53, 127
9, 210720, Note_off_c, 3, 56, 127
9, 210720, Note_on_c, 3, 56, 127
9, 210720, Note_off_c, 3, 53, 127
9, 210720, Note_on_c, 3, 53, 127
9, 210840, Note_off_c, 3, 56, 127
9, 210840, Note_on_c, 3, 56, 127
9, 210840, Note_off_c, 3, 53, 127
9, 210840, Note_on_c, 3, 53, 127
9, 210960, Note_off_c, 3, 56, 127
9, 210960, Note_on_c, 3, 56, 127
9, 210960, Note_off_c, 3, 53, 127
9, 210960, Note_on_c, 3, 53, 127
9, 211080, Note_off_c, 3, 56, 127
9, 211080, Note_on_c, 3, 56, 127
9, 211080, Note_off_c, 3, 53, 127
9, 211080, Note_on_c, 3, 53, 127
9, 211200, Note_off_c, 3, 56, 127
9, 211200, Note_on_c, 3, 56, 127
9, 211200, Note_off_c, 3, 53, 127
9, 211200, Note_on_c, 3, 53, 127
9, 211320, Note_off_c, 3, 56, 127
9, 211320, Note_on_c, 3, 56, 127
9, 211320, Note_off_c, 3, 53, 127
9, 211320, Note_on_c, 3, 53, 127
9, 211440, Note_off_c, 3, 56, 127
9, 211440, Note_on_c, 3, 56, 127
9, 211440, Note_off_c, 3, 53, 127
9, 211440, Note_on_c, 3, 53, 127
9, 211560, Note_off_c, 3, 56, 127
9, 211560, Note_on_c, 3, 56, 127
9, 211560, Note_off_c, 3, 53, 127
9, 211560, Note_on_c, 3, 53, 127
9, 211680, Note_off_c, 3, 56, 127
9, 211680, Note_on_c, 3, 56, 127
9, 211680, Note_off_c, 3, 53, 127
9, 211680, Note_on_c, 3, 53, 127
9, 211800, Note_off_c, 3, 56, 127
9, 211800, Note_on_c, 3, 56, 127
9, 211800, Note_off_c, 3, 53, 127
9, 211800, Note_on_c, 3, 53, 127
9, 211920, Note_off_c, 3, 56, 127
9, 211920, Note_on_c, 3, 56, 127
9, 211920, Note_off_c, 3, 53, 127
9, 211920, Note_on_c, 3, 53, 127
9, 212040, Note_off_c, 3, 56, 127
9, 212040, Note_on_c, 3, 56, 127
9, 212040, Note_off_c, 3, 53, 127
9, 212040, Note_on_c, 3, 53, 127
9, 212160, Note_off_c, 3, 56, 127
9, 212160, Note_on_c, 3, 56, 127
9, 212160, Note_off_c, 3, 53, 127
9, 212160, Note_on_c, 3, 53, 127
9, 212280, Note_off_c, 3, 56, 127
9, 212280, Note_on_c, 3, 56, 127
9, 212280, Note_off_c, 3, 53, 127
9, 212280, Note_on_c, 3, 53, 127
9, 212400, Note_off_c, 3, 56, 127
9, 212400, Note_on_c, 3, 56, 127
9, 212400, Note_off_c, 3, 53, 127
9, 212400, Note_on_c, 3, 53, 127
9, 212520, Note_off_c, 3, 56, 127
9, 212520, Note_on_c, 3, 56, 127
9, 212520, Note_off_c, 3, 53, 127
9, 212520, Note_on_c, 3, 53, 127
9, 212640, Note_off_c, 3, 56, 127
9, 212640, Note_on_c, 3, 56, 127
9, 212640, Note_off_c, 3, 53, 127
9, 212640, Note_on_c, 3, 53, 127
9, 212760, Note_off_c, 3, 56, 127
9, 212760, Note_on_c, 3, 56, 127
9, 212760, Note_off_c, 3, 53, 127
9, 212760, Note_on_c, 3, 53, 127
9, 212880, Note_off_c, 3, 56, 127
9, 212880, Note_on_c, 3, 56, 127
9, 212880, Note_off_c, 3, 53, 127
9, 212880, Note_on_c, 3, 53, 127
9, 213000, Note_off_c, 3, 56, 127
9, 213000, Note_on_c, 3, 56, 127
9, 213000, Note_off_c, 3, 53, 127
9, 213000, Note_on_c, 3, 53, 127
9, 213119, Note_off_c, 3, 56, 127
9, 213119, Note_off_c, 3, 53, 127
9, 213120, Note_on_c, 3, 55, 127
9, 213120, Note_on_c, 3, 51, 127
9, 213240, Note_off_c, 3, 55, 127
9, 213240, Note_on_c, 3, 55, 127
9, 213240, Note_off_c, 3, 51, 127
9, 213240, Note_on_c, 3, 51, 127
9, 213360, Note_off_c, 3, 55, 127
9, 213360, Note_on_c, 3, 55, 127
9, 213360, Note_off_c, 3, 51, 127
9, 213360, Note_on_c, 3, 51, 127
9, 213480, Note_off_c, 3, 55, 127
9, 213480, Note_on_c, 3, 55, 127
9, 213480, Note_off_c, 3, 51, 127
9, 213480, Note_on_c, 3, 51, 127
9, 213600, Note_off_c, 3, 55, 127
9, 213600, Note_on_c, 3, 55, 127
9, 213600, Note_off_c, 3, 51, 127
9, 213600, Note_on_c, 3, 51, 127
9, 213720, Note_off_c, 3, 55, 127
9, 213720, Note_on_c, 3, 55, 127
9, 213720, Note_off_c, 3, 51, 127
9, 213720, Note_on_c, 3, 51, 127
9, 213840, Note_off_c, 3, 55, 127
9, 213840, Note_on_c, 3, 55, 127
9, 213840, Note_off_c, 3, 51, 127
9, 213840, Note_on_c, 3, 51, 127
9, 213960, Note_off_c, 3, 55, 127
9, 213960, Note_on_c, 3, 55, 127
9, 213960, Note_off_c, 3, 51, 127
9, 213960, Note_on_c, 3, 51, 127
9, 214079, Note_off_c, 3, 55, 127
9, 214079, Note_off_c, 3, 51, 127
9, 214080, Note_on_c, 3, 56, 127
9, 214080, Note_on_c, 3, 53, 127
9, 214200, Note_off_c, 3, 56, 127
9, 214200, Note_on_c, 3, 56, 127
9, 214200, Note_off_c, 3, 53, 127
9, 214200, Note_on_c, 3, 53, 127
9, 214320, Note_off_c, 3, 56, 127
9, 214320, Note_on_c, 3, 56, 127
9, 214320, Note_off_c, 3, 53, 127
9, 214320, Note_on_c, 3, 53, 127
9, 214440, Note_off_c, 3, 56, 127
9, 214440, Note_on_c, 3, 56, 127
9, 214440, Note_off_c, 3, 53, 127
9, 214440, Note_on_c, 3, 53, 127
9, 214560, Note_off_c, 3, 56, 127
9, 214560, Note_on_c, 3, 56, 127
9, 214560, Note_off_c, 3, 53, 127
9, 214560, Note_on_c, 3, 53, 127
9, 214680, Note_off_c, 3, 56, 127
9, 214680, Note_on_c, 3, 56, 127
9, 214680, Note_off_c, 3, 53, 127
9, 214680, Note_on_c, 3, 53, 127
9, 214800, Note_off_c, 3, 56, 127
9, 214800, Note_on_c, 3, 56, 127
9, 214800, Note_off_c, 3, 53, 127
9, 214800, Note_on_c, 3, 53, 127
9, 214920, Note_off_c, 3, 56, 127
9, 214920, Note_on_c, 3, 56, 127
9, 214920, Note_off_c, 3, 53, 127
9, 214920, Note_on_c, 3, 53, 127
9, 215039, Note_off_c, 3, 56, 127
9, 215039, Note_off_c, 3, 53, 127
9, 215040, Note_on_c, 3, 60, 127
9, 215040, Note_on_c, 3, 56, 127
9, 215160, Note_off_c, 3, 60, 127
9, 215160, Note_on_c, 3, 60, 127
9, 215160, Note_off_c, 3, 56, 127
9, 215160, Note_on_c, 3, 56, 127
9, 215280, Note_off_c, 3, 60, 127
9, 215280, Note_on_c, 3, 60, 127
9, 215280, Note_off_c, 3, 56, 127
9, 215280, Note_on_c, 3, 56, 127
9, 215400, Note_off_c, 3, 60, 127
9, 215400, Note_on_c, 3, 60, 127
9, 215400, Note_off_c, 3, 56, 127
9, 215400, Note_on_c, 3, 56, 127
9, 215520, Note_off_c, 3, 60, 127
9, 215520, Note_on_c, 3, 60, 127
9, 215520, Note_off_c, 3, 56, 127
9, 215520, Note_on_c, 3, 56, 127
9, 215640, Note_off_c, 3, 60, 127
9, 215640, Note_on_c, 3, 60, 127
9, 215640, Note_off_c, 3, 56, 127
9, 215640, Note_on_c, 3, 56, 127
9, 215760, Note_off_c, 3, 60, 127
9, 215760, Note_on_c, 3, 60, 127
9, 215760, Note_off_c, 3, 56, 127
9, 215760, Note_on_c, 3, 56, 127
9, 215880, Note_off_c, 3, 60, 127
9, 215880, Note_on_c, 3, 60, 127
9, 215880, Note_off_c, 3, 56, 127
9, 215880, Note_on_c, 3, 56, 127
9, 216000, Note_off_c, 3, 60, 127
9, 216000, Note_on_c, 3, 60, 127
9, 216000, Note_off_c, 3, 56, 127
9, 216000, Note_on_c, 3, 56, 127
9, 216120, Note_off_c, 3, 60, 127
9, 216120, Note_on_c, 3, 60, 127
9, 216120, Note_off_c, 3, 56, 127
9, 216120, Note_on_c, 3, 56, 127
9, 216240, Note_off_c, 3, 60, 127
9, 216240, Note_on_c, 3, 60, 127
9, 216240, Note_off_c, 3, 56, 127
9, 216240, Note_on_c, 3, 56, 127
9, 216360, Note_off_c, 3, 60, 127
9, 216360, Note_on_c, 3, 60, 127
9, 216360, Note_off_c, 3, 56, 127
9, 216360, Note_on_c, 3, 56, 127
9, 216480, Note_off_c, 3, 60, 127
9, 216480, Note_on_c, 3, 60, 127
9, 216480, Note_off_c, 3, 56, 127
9, 216480, Note_on_c, 3, 56, 127
9, 216600, Note_off_c, 3, 60, 127
9, 216600, Note_on_c, 3, 60, 127
9, 216600, Note_off_c, 3, 56, 127
9, 216600, Note_on_c, 3, 56, 127
9, 216720, Note_off_c, 3, 60, 127
9, 216720, Note_on_c, 3, 60, 127
9, 216720, Note_off_c, 3, 56, 127
9, 216720, Note_on_c, 3, 56, 127
9, 216840, Note_off_c, 3, 60, 127
9, 216840, Note_on_c, 3, 60, 127
9, 216840, Note_off_c, 3, 56, 127
9, 216840, Note_on_c, 3, 56, 127
9, 216960, Note_off_c, 3, 60, 127
9, 216960, Note_on_c, 3, 60, 127
9, 216960, Note_off_c, 3, 56, 127
9, 216960, Note_on_c, 3, 56, 127
9, 217080, Note_off_c, 3, 60, 127
9, 217080, Note_on_c, 3, 60, 127
9, 217080, Note_off_c, 3, 56, 127
9, 217080, Note_on_c, 3, 56, 127
9, 217200, Note_off_c, 3, 60, 127
9, 217200, Note_on_c, 3, 60, 127
9, 217200, Note_off_c, 3, 56, 127
9, 217200, Note_on_c, 3, 56, 127
9, 217320, Note_off_c, 3, 60, 127
9, 217320, Note_on_c, 3, 60, 127
9, 217320, Note_off_c, 3, 56, 127
9, 217320, Note_on_c, 3, 56, 127
9, 217440, Note_off_c, 3, 60, 127
9, 217440, Note_on_c, 3, 60, 127
9, 217440, Note_off_c, 3, 56, 127
9, 217440, Note_on_c, 3, 56, 127
9, 217560, Note_off_c, 3, 60, 127
9, 217560, Note_on_c, 3, 60, 127
9, 217560, Note_off_c, 3, 56, 127
9, 217560, Note_on_c, 3, 56, 127
9, 217680, Note_off_c, 3, 60, 127
9, 217680, Note_on_c, 3, 60, 127
9, 217680, Note_off_c, 3, 56, 127
9, 217680, Note_on_c, 3, 56, 127
9, 217800, Note_off_c, 3, 60, 127
9, 217800, Note_on_c, 3, 60, 127
9, 217800, Note_off_c, 3, 56, 127
9, 217800, Note_on_c, 3, 56, 127
9, 217920, Note_off_c, 3, 60, 127
9, 217920, Note_on_c, 3, 60, 127
9, 217920, Note_off_c, 3, 56, 127
9, 217920, Note_on_c, 3, 56, 127
9, 218040, Note_off_c, 3, 60, 127
9, 218040, Note_on_c, 3, 60, 127
9, 218040, Note_off_c, 3, 56, 127
9, 218040, Note_on_c, 3, 56, 127
9, 218160, Note_off_c, 3, 60, 127
9, 218160, Note_on_c, 3, 60, 127
9, 218160, Note_off_c, 3, 56, 127
9, 218160, Note_on_c, 3, 56, 127
9, 218280, Note_off_c, 3, 60, 127
9, 218280, Note_on_c, 3, 60, 127
9, 218280, Note_off_c, 3, 56, 127
9, 218280, Note_on_c, 3, 56, 127
9, 218400, Note_off_c, 3, 60, 127
9, 218400, Note_on_c, 3, 60, 127
9, 218400, Note_off_c, 3, 56, 127
9, 218400, Note_on_c, 3, 56, 127
9, 218520, Note_off_c, 3, 60, 127
9, 218520, Note_on_c, 3, 60, 127
9, 218520, Note_off_c, 3, 56, 127
9, 218520, Note_on_c, 3, 56, 127
9, 218640, Note_off_c, 3, 60, 127
9, 218640, Note_on_c, 3, 60, 127
9, 218640, Note_off_c, 3, 56, 127
9, 218640, Note_on_c, 3, 56, 127
9, 218760, Note_off_c, 3, 60, 127
9, 218760, Note_on_c, 3, 60, 127
9, 218760, Note_off_c, 3, 56, 127
9, 218760, Note_on_c, 3, 56, 127
9, 218880, Note_off_c, 3, 60, 127
9, 218880, Note_on_c, 3, 60, 127
9, 218880, Note_off_c, 3, 56, 127
9, 218880, Note_on_c, 3, 56, 127
9, 219000, Note_off_c, 3, 60, 127
9, 219000, Note_on_c, 3, 60, 127
9, 219000, Note_off_c, 3, 56, 127
9, 219000, Note_on_c, 3, 56, 127
9, 219120, Note_off_c, 3, 60, 127
9, 219120, Note_on_c, 3, 60, 127
9, 219120, Note_off_c, 3, 56, 127
9, 219120, Note_on_c, 3, 56, 127
9, 219240, Note_off_c, 3, 60, 127
9, 219240, Note_on_c, 3, 60, 127
9, 219240, Note_off_c, 3, 56, 127
9, 219240, Note_on_c, 3, 56, 127
9, 219360, Note_off_c, 3, 60, 127
9, 219360, Note_on_c, 3, 60, 127
9, 219360, Note_off_c, 3, 56, 127
9, 219360, Note_on_c, 3, 56, 127
9, 219480, Note_off_c, 3, 60, 127
9, 219480, Note_on_c, 3, 60, 127
9, 219480, Note_off_c, 3, 56, 127
9, 219480, Note_on_c, 3, 56, 127
9, 219600, Note_off_c, 3, 60, 127
9, 219600, Note_on_c, 3, 60, 127
9, 219600, Note_off_c, 3, 56, 127
9, 219600, Note_on_c, 3, 56, 127
9, 219720, Note_off_c, 3, 60, 127
9, 219720, Note_on_c, 3, 60, 127
9, 219720, Note_off_c, 3, 56, 127
9, 219720, Note_on_c, 3, 56, 127
9, 219840, Note_off_c, 3, 60, 127
9, 219840, Note_on_c, 3, 60, 127
9, 219840, Note_off_c, 3, 56, 127
9, 219840, Note_on_c, 3, 56, 127
9, 219960, Note_off_c, 3, 60, 127
9, 219960, Note_on_c, 3, 60, 127
9, 219960, Note_off_c, 3, 56, 127
9, 219960, Note_on_c, 3, 56, 127
9, 220080, Note_off_c, 3, 60, 127
9, 220080, Note_on_c, 3, 60, 127
9, 220080, Note_off_c, 3, 56, 127
9, 220080, Note_on_c, 3, 56, 127
9, 220200, Note_off_c, 3, 60, 127
9, 220200, Note_on_c, 3, 60, 127
9, 220200, Note_off_c, 3, 56, 127
9, 220200, Note_on_c, 3, 56, 127
9, 220320, Note_off_c, 3, 60, 127
9, 220320, Note_on_c, 3, 60, 127
9, 220320, Note_off_c, 3, 56, 127
9, 220320, Note_on_c, 3, 56, 127
9, 220440, Note_off_c, 3, 60, 127
9, 220440, Note_on_c, 3, 60, 127
9, 220440, Note_off_c, 3, 56, 127
9, 220440, Note_on_c, 3, 56, 127
9, 220560, Note_off_c, 3, 60, 127
9, 220560, Note_on_c, 3, 60, 127
9, 220560, Note_off_c, 3, 56, 127
9, 220560, Note_on_c, 3, 56, 127
9, 220680, Note_off_c, 3, 60, 127
9, 220680, Note_on_c, 3, 60, 127
9, 220680, Note_off_c, 3, 56, 127
9, 220680, Note_on_c, 3, 56, 127
9, 220799, Note_off_c, 3, 60, 127
9, 220799, Note_off_c, 3, 56, 127
9, 220800, Note_on_c, 3, 63, 127
9, 220800, Note_on_c, 3, 58, 127
9, 220920, Note_off_c, 3, 63, 127
9, 220920, Note_on_c, 3, 63, 127
9, 220920, Note_off_c, 3, 58, 127
9, 220920, Note_on_c, 3, 58, 127
9, 221040, Note_off_c, 3, 63, 127
9, 221040, Note_on_c, 3, 63, 127
9, 221040, Note_off_c, 3, 58, 127
9, 221040, Note_on_c, 3, 58, 127
9, 221160, Note_off_c, 3, 63, 127
9, 221160, Note_on_c, 3, 63, 127
9, 221160, Note_off_c, 3, 58, 127
9, 221160, Note_on_c, 3, 58, 127
9, 221280, Note_off_c, 3, 63, 127
9, 221280, Note_on_c, 3, 63, 127
9, 221280, Note_off_c, 3, 58, 127
9, 221280, Note_on_c, 3, 58, 127
9, 221400, Note_off_c, 3, 63, 127
9, 221400, Note_on_c, 3, 63, 127
9, 221400, Note_off_c, 3, 58, 127
9, 221400, Note_on_c, 3, 58, 127
9, 221520, Note_off_c, 3, 63, 127
9, 221520, Note_on_c, 3, 63, 127
9, 221520, Note_off_c, 3, 58, 127
9, 221520, Note_on_c, 3, 58, 127
9, 221640, Note_off_c, 3, 63, 127
9, 221640, Note_on_c, 3, 63, 127
9, 221640, Note_off_c, 3, 58, 127
9, 221640, Note_on_c, 3, 58, 127
9, 221759, Note_off_c, 3, 63, 127
9, 221759, Note_off_c, 3, 58, 127
9, 221760, Note_on_c, 3, 60, 127
9, 221760, Note_on_c, 3, 56, 127
9, 221880, Note_off_c, 3, 60, 127
9, 221880, Note_on_c, 3, 60, 127
9, 221880, Note_off_c, 3, 56, 127
9, 221880, Note_on_c, 3, 56, 127
9, 222000, Note_off_c, 3, 60, 127
9, 222000, Note_on_c, 3, 60, 127
9, 222000, Note_off_c, 3, 56, 127
9, 222000, Note_on_c, 3, 56, 127
9, 222120, Note_off_c, 3, 60, 127
9, 222120, Note_on_c, 3, 60, 127
9, 222120, Note_off_c, 3, 56, 127
9, 222120, Note_on_c, 3, 56, 127
9, 222240, Note_off_c, 3, 60, 127
9, 222240, Note_on_c, 3, 60, 127
9, 222240, Note_off_c, 3, 56, 127
9, 222240, Note_on_c, 3, 56, 127
9, 222360, Note_off_c, 3, 60, 127
9, 222360, Note_on_c, 3, 60, 127
9, 222360, Note_off_c, 3, 56, 127
9, 222360, Note_on_c, 3, 56, 127
9, 222480, Note_off_c, 3, 60, 127
9, 222480, Note_on_c, 3, 60, 127
9, 222480, Note_off_c, 3, 56, 127
9, 222480, Note_on_c, 3, 56, 127
9, 222600, Note_off_c, 3, 60, 127
9, 222600, Note_on_c, 3, 60, 127
9, 222600, Note_off_c, 3, 56, 127
9, 222600, Note_on_c, 3, 56, 127
9, 222719, Note_off_c, 3, 60, 127
9, 222719, Note_off_c, 3, 56, 127
9, 222720, Note_on_c, 3, 56, 127
9, 222720, Note_on_c, 3, 53, 127
9, 222840, Note_off_c, 3, 56, 127
9, 222840, Note_on_c, 3, 56, 127
9, 222840, Note_off_c, 3, 53, 127
9, 222840, Note_on_c, 3, 53, 127
9, 222960, Note_off_c, 3, 56, 127
9, 222960, Note_on_c, 3, 56, 127
9, 222960, Note_off_c, 3, 53, 127
9, 222960, Note_on_c, 3, 53, 127
9, 223080, Note_off_c, 3, 56, 127
9, 223080, Note_on_c, 3, 56, 127
9, 223080, Note_off_c, 3, 53, 127
9, 223080, Note_on_c, 3, 53, 127
9, 223200, Note_off_c, 3, 56, 127
9, 223200, Note_on_c, 3, 56, 127
9, 223200, Note_off_c, 3, 53, 127
9, 223200, Note_on_c, 3, 53, 127
9, 223320, Note_off_c, 3, 56, 127
9, 223320, Note_on_c, 3, 56, 127
9, 223320, Note_off_c, 3, 53, 127
9, 223320, Note_on_c, 3, 53, 127
9, 223440, Note_off_c, 3, 56, 127
9, 223440, Note_on_c, 3, 56, 127
9, 223440, Note_off_c, 3, 53, 127
9, 223440, Note_on_c, 3, 53, 127
9, 223560, Note_off_c, 3, 56, 127
9, 223560, Note_on_c, 3, 56, 127
9, 223560, Note_off_c, 3, 53, 127
9, 223560, Note_on_c, 3, 53, 127
9, 223680, Note_off_c, 3, 56, 127
9, 223680, Note_on_c, 3, 56, 127
9, 223680, Note_off_c, 3, 53, 127
9, 223680, Note_on_c, 3, 53, 127
9, 223800, Note_off_c, 3, 56, 127
9, 223800, Note_on_c, 3, 56, 127
9, 223800, Note_off_c, 3, 53, 127
9, 223800, Note_on_c, 3, 53, 127
9, 223920, Note_off_c, 3, 56, 127
9, 223920, Note_on_c, 3, 56, 127
9, 223920, Note_off_c, 3, 53, 127
9, 223920, Note_on_c, 3, 53, 127
9, 224040, Note_off_c, 3, 56, 127
9, 224040, Note_on_c, 3, 56, 127
9, 224040, Note_off_c, 3, 53, 127
9, 224040, Note_on_c, 3, 53, 127
9, 224160, Note_off_c, 3, 56, 127
9, 224160, Note_on_c, 3, 56, 127
9, 224160, Note_off_c, 3, 53, 127
9, 224160, Note_on_c, 3, 53, 127
9, 224280, Note_off_c, 3, 56, 127
9, 224280, Note_on_c, 3, 56, 127
9, 224280, Note_off_c, 3, 53, 127
9, 224280, Note_on_c, 3, 53, 127
9, 224400, Note_off_c, 3, 56, 127
9, 224400, Note_on_c, 3, 56, 127
9, 224400, Note_off_c, 3, 53, 127
9, 224400, Note_on_c, 3, 53, 127
9, 224520, Note_off_c, 3, 56, 127
9, 224520, Note_on_c, 3, 56, 127
9, 224520, Note_off_c, 3, 53, 127
9, 224520, Note_on_c, 3, 53, 127
9, 224640, Note_off_c, 3, 56, 127
9, 224640, Note_on_c, 3, 56, 127
9, 224640, Note_off_c, 3, 53, 127
9, 224640, Note_on_c, 3, 53, 127
9, 224760, Note_off_c, 3, 56, 127
9, 224760, Note_on_c, 3, 56, 127
9, 224760, Note_off_c, 3, 53, 127
9, 224760, Note_on_c, 3, 53, 127
9, 224880, Note_off_c, 3, 56, 127
9, 224880, Note_on_c, 3, 56, 127
9, 224880, Note_off_c, 3, 53, 127
9, 224880, Note_on_c, 3, 53, 127
9, 225000, Note_off_c, 3, 56, 127
9, 225000, Note_on_c, 3, 56, 127
9, 225000, Note_off_c, 3, 53, 127
9, 225000, Note_on_c, 3, 53, 127
9, 225120, Note_off_c, 3, 56, 127
9, 225120, Note_on_c, 3, 56, 127
9, 225120, Note_off_c, 3, 53, 127
9, 225120, Note_on_c, 3, 53, 127
9, 225240, Note_off_c, 3, 56, 127
9, 225240, Note_on_c, 3, 56, 127
9, 225240, Note_off_c, 3, 53, 127
9, 225240, Note_on_c, 3, 53, 127
9, 225360, Note_off_c, 3, 56, 127
9, 225360, Note_on_c, 3, 56, 127
9, 225360, Note_off_c, 3, 53, 127
9, 225360, Note_on_c, 3, 53, 127
9, 225480, Note_off_c, 3, 56, 127
9, 225480, Note_on_c, 3, 56, 127
9, 225480, Note_off_c, 3, 53, 127
9, 225480, Note_on_c, 3, 53, 127
9, 225600, Note_off_c, 3, 56, 127
9, 225600, Note_on_c, 3, 56, 127
9, 225600, Note_off_c, 3, 53, 127
9, 225600, Note_on_c, 3, 53, 127
9, 225720, Note_off_c, 3, 56, 127
9, 225720, Note_on_c, 3, 56, 127
9, 225720, Note_off_c, 3, 53, 127
9, 225720, Note_on_c, 3, 53, 127
9, 225840, Note_off_c, 3, 56, 127
9, 225840, Note_on_c, 3, 56, 127
9, 225840, Note_off_c, 3, 53, 127
9, 225840, Note_on_c, 3, 53, 127
9, 225960, Note_off_c, 3, 56, 127
9, 225960, Note_on_c, 3, 56, 127
9, 225960, Note_off_c, 3, 53, 127
9, 225960, Note_on_c, 3, 53, 127
9, 226080, Note_off_c, 3, 56, 127
9, 226080, Note_on_c, 3, 56, 127
9, 226080, Note_off_c, 3, 53, 127
9, 226080, Note_on_c, 3, 53, 127
9, 226200, Note_off_c, 3, 56, 127
9, 226200, Note_on_c, 3, 56, 127
9, 226200, Note_off_c, 3, 53, 127
9, 226200, Note_on_c, 3, 53, 127
9, 226320, Note_off_c, 3, 56, 127
9, 226320, Note_on_c, 3, 56, 127
9, 226320, Note_off_c, 3, 53, 127
9, 226320, Note_on_c, 3, 53, 127
9, 226440, Note_off_c, 3, 56, 127
9, 226440, Note_on_c, 3, 56, 127
9, 226440, Note_off_c, 3, 53, 127
9, 226440, Note_on_c, 3, 53, 127
9, 226560, Note_off_c, 3, 56, 127
9, 226560, Note_on_c, 3, 56, 127
9, 226560, Note_off_c, 3, 53, 127
9, 226560, Note_on_c, 3, 53, 127
9, 226680, Note_off_c, 3, 56, 127
9, 226680, Note_on_c, 3, 56, 127
9, 226680, Note_off_c, 3, 53, 127
9, 226680, Note_on_c, 3, 53, 127
9, 226800, Note_off_c, 3, 56, 127
9, 226800, Note_on_c, 3, 56, 127
9, 226800, Note_off_c, 3, 53, 127
9, 226800, Note_on_c, 3, 53, 127
9, 226920, Note_off_c, 3, 56, 127
9, 226920, Note_on_c, 3, 56, 127
9, 226920, Note_off_c, 3, 53, 127
9, 226920, Note_on_c, 3, 53, 127
9, 227040, Note_off_c, 3, 56, 127
9, 227040, Note_on_c, 3, 56, 127
9, 227040, Note_off_c, 3, 53, 127
9, 227040, Note_on_c, 3, 53, 127
9, 227160, Note_off_c, 3, 56, 127
9, 227160, Note_on_c, 3, 56, 127
9, 227160, Note_off_c, 3, 53, 127
9, 227160, Note_on_c, 3, 53, 127
9, 227280, Note_off_c, 3, 56, 127
9, 227280, Note_on_c, 3, 56, 127
9, 227280, Note_off_c, 3, 53, 127
9, 227280, Note_on_c, 3, 53, 127
9, 227400, Note_off_c, 3, 56, 127
9, 227400, Note_on_c, 3, 56, 127
9, 227400, Note_off_c, 3, 53, 127
9, 227400, Note_on_c, 3, 53, 127
9, 227520, Note_off_c, 3, 56, 127
9, 227520, Note_on_c, 3, 56, 127
9, 227520, Note_off_c, 3, 53, 127
9, 227520, Note_on_c, 3, 53, 127
9, 227640, Note_off_c, 3, 56, 127
9, 227640, Note_on_c, 3, 56, 127
9, 227640, Note_off_c, 3, 53, 127
9, 227640, Note_on_c, 3, 53, 127
9, 227760, Note_off_c, 3, 56, 127
9, 227760, Note_on_c, 3, 56, 127
9, 227760, Note_off_c, 3, 53, 127
9, 227760, Note_on_c, 3, 53, 127
9, 227880, Note_off_c, 3, 56, 127
9, 227880, Note_on_c, 3, 56, 127
9, 227880, Note_off_c, 3, 53, 127
9, 227880, Note_on_c, 3, 53, 127
9, 228000, Note_off_c, 3, 56, 127
9, 228000, Note_on_c, 3, 56, 127
9, 228000, Note_off_c, 3, 53, 127
9, 228000, Note_on_c, 3, 53, 127
9, 228120, Note_off_c, 3, 56, 127
9, 228120, Note_on_c, 3, 56, 127
9, 228120, Note_off_c, 3, 53, 127
9, 228120, Note_on_c, 3, 53, 127
9, 228240, Note_off_c, 3, 56, 127
9, 228240, Note_on_c, 3, 56, 127
9, 228240, Note_off_c, 3, 53, 127
9, 228240, Note_on_c, 3, 53, 127
9, 228360, Note_off_c, 3, 56, 127
9, 228360, Note_on_c, 3, 56, 127
9, 228360, Note_off_c, 3, 53, 127
9, 228360, Note_on_c, 3, 53, 127
9, 228479, Note_off_c, 3, 56, 127
9, 228479, Note_off_c, 3, 53, 127
9, 228480, Note_on_c, 3, 55, 127
9, 228480, Note_on_c, 3, 51, 127
9, 228600, Note_off_c, 3, 55, 127
9, 228600, Note_on_c, 3, 55, 127
9, 228600, Note_off_c, 3, 51, 127
9, 228600, Note_on_c, 3, 51, 127
9, 228720, Note_off_c, 3, 55, 127
9, 228720, Note_on_c, 3, 55, 127
9, 228720, Note_off_c, 3, 51, 127
9, 228720, Note_on_c, 3, 51, 127
9, 228840, Note_off_c, 3, 55, 127
9, 228840, Note_on_c, 3, 55, 127
9, 228840, Note_off_c, 3, 51, 127
9, 228840, Note_on_c, 3, 51, 127
9, 228960, Note_off_c, 3, 55, 127
9, 228960, Note_on_c, 3, 55, 127
9, 228960, Note_off_c, 3, 51, 127
9, 228960, Note_on_c, 3, 51, 127
9, 229080, Note_off_c, 3, 55, 127
9, 229080, Note_on_c, 3, 55, 127
9, 229080, Note_off_c, 3, 51, 127
9, 229080, Note_on_c, 3, 51, 127
9, 229200, Note_off_c, 3, 55, 127
9, 229200, Note_on_c, 3, 55, 127
9, 229200, Note_off_c, 3, 51, 127
9, 229200, Note_on_c, 3, 51, 127
9, 229320, Note_off_c, 3, 55, 127
9, 229320, Note_on_c, 3, 55, 127
9, 229320, Note_off_c, 3, 51, 127
9, 229320, Note_on_c, 3, 51, 127
9, 229439, Note_off_c, 3, 55, 127
9, 229439, Note_off_c, 3, 51, 127
9, 229440, Note_on_c, 3, 56, 127
9, 229440, Note_on_c, 3, 53, 127
9, 229560, Note_off_c, 3, 56, 127
9, 229560, Note_on_c, 3, 56, 127
9, 229560, Note_off_c, 3, 53, 127
9, 229560, Note_on_c, 3, 53, 127
9, 229680, Note_off_c, 3, 56, 127
9, 229680, Note_on_c, 3, 56, 127
9, 229680, Note_off_c, 3, 53, 127
9, 229680, Note_on_c, 3, 53, 127
9, 229800, Note_off_c, 3, 56, 127
9, 229800, Note_on_c, 3, 56, 127
9, 229800, Note_off_c, 3, 53, 127
9, 229800, Note_on_c, 3, 53, 127
9, 229920, Note_off_c, 3, 56, 127
9, 229920, Note_on_c, 3, 56, 127
9, 229920, Note_off_c, 3, 53, 127
9, 229920, Note_on_c, 3, 53, 127
9, 230040, Note_off_c, 3, 56, 127
9, 230040, Note_on_c, 3, 56, 127
9, 230040, Note_off_c, 3, 53, 127
9, 230040, Note_on_c, 3, 53, 127
9, 230160, Note_off_c, 3, 56, 127
9, 230160, Note_on_c, 3, 56, 127
9, 230160, Note_off_c, 3, 53, 127
9, 230160, Note_on_c, 3, 53, 127
9, 230280, Note_off_c, 3, 56, 127
9, 230280, Note_on_c, 3, 56, 127
9, 230280, Note_off_c, 3, 53, 127
9, 230280, Note_on_c, 3, 53, 127
9, 230399, Note_off_c, 3, 56, 127
9, 230399, Note_off_c, 3, 53, 127
9, 230400, Note_on_c, 3, 60, 127
9, 230400, Note_on_c, 3, 56, 127
9, 230520, Note_off_c, 3, 60, 127
9, 230520, Note_on_c, 3, 60, 127
9, 230520, Note_off_c, 3, 56, 127
9, 230520, Note_on_c, 3, 56, 127
9, 230640, Note_off_c, 3, 60, 127
9, 230640, Note_on_c, 3, 60, 127
9, 230640, Note_off_c, 3, 56, 127
9, 230640, Note_on_c, 3, 56, 127
9, 230760, Note_off_c, 3, 60, 127
9, 230760, Note_on_c, 3, 60, 127
9, 230760, Note_off_c, 3, 56, 127
9, 230760, Note_on_c, 3, 56, 127
9, 230880, Note_off_c, 3, 60, 127
9, 230880, Note_on_c, 3, 60, 127
9, 230880, Note_off_c, 3, 56, 127
9, 230880, Note_on_c, 3, 56, 127
9, 231000, Note_off_c, 3, 60, 127
9, 231000, Note_on_c, 3, 60, 127
9, 231000, Note_off_c, 3, 56, 127
9, 231000, Note_on_c, 3, 56, 127
9, 231120, Note_off_c, 3, 60, 127
9, 231120, Note_on_c, 3, 60, 127
9, 231120, Note_off_c, 3, 56, 127
9, 231120, Note_on_c, 3, 56, 127
9, 231240, Note_off_c, 3, 60, 127
9, 231240, Note_on_c, 3, 60, 127
9, 231240, Note_off_c, 3, 56, 127
9, 231240, Note_on_c, 3, 56, 127
9, 231360, Note_off_c, 3, 60, 127
9, 231360, Note_on_c, 3, 60, 127
9, 231360, Note_off_c, 3, 56, 127
9, 231360, Note_on_c, 3, 56, 127
9, 231480, Note_off_c, 3, 60, 127
9, 231480, Note_on_c, 3, 60, 127
9, 231480, Note_off_c, 3, 56, 127
9, 231480, Note_on_c, 3, 56, 127
9, 231600, Note_off_c, 3, 60, 127
9, 231600, Note_on_c, 3, 60, 127
9, 231600, Note_off_c, 3, 56, 127
9, 231600, Note_on_c, 3, 56, 127
9, 231720, Note_off_c, 3, 60, 127
9, 231720, Note_on_c, 3, 60, 127
9, 231720, Note_off_c, 3, 56, 127
9, 231720, Note_on_c, 3, 56, 127
9, 231840, Note_off_c, 3, 60, 127
9, 231840, Note_on_c, 3, 60, 127
9, 231840, Note_off_c, 3, 56, 127
9, 231840, Note_on_c, 3, 56, 127
9, 231960, Note_off_c, 3, 60, 127
9, 231960, Note_on_c, 3, 60, 127
9, 231960, Note_off_c, 3, 56, 127
9, 231960, Note_on_c, 3, 56, 127
9, 232080, Note_off_c, 3, 60, 127
9, 232080, Note_on_c, 3, 60, 127
9, 232080, Note_off_c, 3, 56, 127
9, 232080, Note_on_c, 3, 56, 127
9, 232200, Note_off_c, 3, 60, 127
9, 232200, Note_on_c, 3, 60, 127
9, 232200, Note_off_c, 3, 56, 127
9, 232200, Note_on_c, 3, 56, 127
9, 232320, Note_off_c, 3, 60, 127
9, 232320, Note_on_c, 3, 60, 127
9, 232320, Note_off_c, 3, 56, 127
9, 232320, Note_on_c, 3, 56, 127
9, 232440, Note_off_c, 3, 60, 127
9, 232440, Note_on_c, 3, 60, 127
9, 232440, Note_off_c, 3, 56, 127
9, 232440, Note_on_c, 3, 56, 127
9, 232560, Note_off_c, 3, 60, 127
9, 232560, Note_on_c, 3, 60, 127
9, 232560, Note_off_c, 3, 56, 127
9, 232560, Note_on_c, 3, 56, 127
9, 232680, Note_off_c, 3, 60, 127
9, 232680, Note_on_c, 3, 60, 127
9, 232680, Note_off_c, 3, 56, 127
9, 232680, Note_on_c, 3, 56, 127
9, 232800, Note_off_c, 3, 60, 127
9, 232800, Note_on_c, 3, 60, 127
9, 232800, Note_off_c, 3, 56, 127
9, 232800, Note_on_c, 3, 56, 127
9, 232920, Note_off_c, 3, 60, 127
9, 232920, Note_on_c, 3, 60, 127
9, 232920, Note_off_c, 3, 56, 127
9, 232920, Note_on_c, 3, 56, 127
9, 233040, Note_off_c, 3, 60, 127
9, 233040, Note_on_c, 3, 60, 127
9, 233040, Note_off_c, 3, 56, 127
9, 233040, Note_on_c, 3, 56, 127
9, 233160, Note_off_c, 3, 60, 127
9, 233160, Note_on_c, 3, 60, 127
9, 233160, Note_off_c, 3, 56, 127
9, 233160, Note_on_c, 3, 56, 127
9, 233280, Note_off_c, 3, 60, 127
9, 233280, Note_on_c, 3, 60, 127
9, 233280, Note_off_c, 3, 56, 127
9, 233280, Note_on_c, 3, 56, 127
9, 233400, Note_off_c, 3, 60, 127
9, 233400, Note_on_c, 3, 60, 127
9, 233400, Note_off_c, 3, 56, 127
9, 233400, Note_on_c, 3, 56, 127
9, 233520, Note_off_c, 3, 60, 127
9, 233520, Note_on_c, 3, 60, 127
9, 233520, Note_off_c, 3, 56, 127
9, 233520, Note_on_c, 3, 56, 127
9, 233640, Note_off_c, 3, 60, 127
9, 233640, Note_on_c, 3, 60, 127
9, 233640, Note_off_c, 3, 56, 127
9, 233640, Note_on_c, 3, 56, 127
9, 233760, Note_off_c, 3, 60, 127
9, 233760, Note_on_c, 3, 60, 127
9, 233760, Note_off_c, 3, 56, 127
9, 233760, Note_on_c, 3, 56, 127
9, 233880, Note_off_c, 3, 60, 127
9, 233880, Note_on_c, 3, 60, 127
9, 233880, Note_off_c, 3, 56, 127
9, 233880, Note_on_c, 3, 56, 127
9, 234000, Note_off_c, 3, 60, 127
9, 234000, Note_on_c, 3, 60, 127
9, 234000, Note_off_c, 3, 56, 127
9, 234000, Note_on_c, 3, 56, 127
9, 234120, Note_off_c, 3, 60, 127
9, 234120, Note_on_c, 3, 60, 127
9, 234120, Note_off_c, 3, 56, 127
9, 234120, Note_on_c, 3, 56, 127
9, 234240, Note_off_c, 3, 60, 127
9, 234240, Note_on_c, 3, 60, 127
9, 234240, Note_off_c, 3, 56, 127
9, 234240, Note_on_c, 3, 56, 127
9, 234360, Note_off_c, 3, 60, 127
9, 234360, Note_on_c, 3, 60, 127
9, 234360, Note_off_c, 3, 56, 127
9, 234360, Note_on_c, 3, 56, 127
9, 234480, Note_off_c, 3, 60, 127
9, 234480, Note_on_c, 3, 60, 127
9, 234480, Note_off_c, 3, 56, 127
9, 234480, Note_on_c, 3, 56, 127
9, 234600, Note_off_c, 3, 60, 127
9, 234600, Note_on_c, 3, 60, 127
9, 234600, Note_off_c, 3, 56, 127
9, 234600, Note_on_c, 3, 56, 127
9, 234720, Note_off_c, 3, 60, 127
9, 234720, Note_on_c, 3, 60, 127
9, 234720, Note_off_c, 3, 56, 127
9, 234720, Note_on_c, 3, 56, 127
9, 234840, Note_off_c, 3, 60, 127
9, 234840, Note_on_c, 3, 60, 127
9, 234840, Note_off_c, 3, 56, 127
9, 234840, Note_on_c, 3, 56, 127
9, 234960, Note_off_c, 3, 60, 127
9, 234960, Note_on_c, 3, 60, 127
9, 234960, Note_off_c, 3, 56, 127
9, 234960, Note_on_c, 3, 56, 127
9, 235080, Note_off_c, 3, 60, 127
9, 235080, Note_on_c, 3, 60, 127
9, 235080, Note_off_c, 3, 56, 127
9, 235080, Note_on_c, 3, 56, 127
9, 235200, Note_off_c, 3, 60, 127
9, 235200, Note_on_c, 3, 60, 127
9, 235200, Note_off_c, 3, 56, 127
9, 235200, Note_on_c, 3, 56, 127
9, 235320, Note_off_c, 3, 60, 127
9, 235320, Note_on_c, 3, 60, 127
9, 235320, Note_off_c, 3, 56, 127
9, 235320, Note_on_c, 3, 56, 127
9, 235440, Note_off_c, 3, 60, 127
9, 235440, Note_on_c, 3, 60, 127
9, 235440, Note_off_c, 3, 56, 127
9, 235440, Note_on_c, 3, 56, 127
9, 235560, Note_off_c, 3, 60, 127
9, 235560, Note_on_c, 3, 60, 127
9, 235560, Note_off_c, 3, 56, 127
9, 235560, Note_on_c, 3, 56, 127
9, 235680, Note_off_c, 3, 60, 127
9, 235680, Note_on_c, 3, 60, 127
9, 235680, Note_off_c, 3, 56, 127
9, 235680, Note_on_c, 3, 56, 127
9, 235800, Note_off_c, 3, 60, 127
9, 235800, Note_on_c, 3, 60, 127
9, 235800, Note_off_c, 3, 56, 127
9, 235800, Note_on_c, 3, 56, 127
9, 235920, Note_off_c, 3, 60, 127
9, 235920, Note_on_c, 3, 60, 127
9, 235920, Note_off_c, 3, 56, 127
9, 235920, Note_on_c, 3, 56, 127
9, 236040, Note_off_c, 3, 60, 127
9, 236040, Note_on_c, 3, 60, 127
9, 236040, Note_off_c, 3, 56, 127
9, 236040, Note_on_c, 3, 56, 127
9, 236159, Note_off_c, 3, 60, 127
9, 236159, Note_off_c, 3, 56, 127
9, 236160, Note_on_c, 3, 63, 127
9, 236160, Note_on_c, 3, 58, 127
9, 236280, Note_off_c, 3, 63, 127
9, 236280, Note_on_c, 3, 63, 127
9, 236280, Note_off_c, 3, 58, 127
9, 236280, Note_on_c, 3, 58, 127
9, 236400, Note_off_c, 3, 63, 127
9, 236400, Note_on_c, 3, 63, 127
9, 236400, Note_off_c, 3, 58, 127
9, 236400, Note_on_c, 3, 58, 127
9, 236520, Note_off_c, 3, 63, 127
9, 236520, Note_on_c, 3, 63, 127
9, 236520, Note_off_c, 3, 58, 127
9, 236520, Note_on_c, 3, 58, 127
9, 236640, Note_off_c, 3, 63, 127
9, 236640, Note_on_c, 3, 63, 127
9, 236640, Note_off_c, 3, 58, 127
9, 236640, Note_on_c, 3, 58, 127
9, 236760, Note_off_c, 3, 63, 127
9, 236760, Note_on_c, 3, 63, 127
9, 236760, Note_off_c, 3, 58, 127
9, 236760, Note_on_c, 3, 58, 127
9, 236880, Note_off_c, 3, 63, 127
9, 236880, Note_on_c, 3, 63, 127
9, 236880, Note_off_c, 3, 58, 127
9, 236880, Note_on_c, 3, 58, 127
9, 237000, Note_off_c, 3, 63, 127
9, 237000, Note_on_c, 3, 63, 127
9, 237000, Note_off_c, 3, 58, 127
9, 237000, Note_on_c, 3, 58, 127
9, 237119, Note_off_c, 3, 63, 127
9, 237119, Note_off_c, 3, 58, 127
9, 237120, Note_on_c, 3, 60, 127
9, 237120, Note_on_c, 3, 56, 127
9, 237240, Note_off_c, 3, 60, 127
9, 237240, Note_on_c, 3, 60, 127
9, 237240, Note_off_c, 3, 56, 127
9, 237240, Note_on_c, 3, 56, 127
9, 237360, Note_off_c, 3, 60, 127
9, 237360, Note_on_c, 3, 60, 127
9, 237360, Note_off_c, 3, 56, 127
9, 237360, Note_on_c, 3, 56, 127
9, 237480, Note_off_c, 3, 60, 127
9, 237480, Note_on_c, 3, 60, 127
9, 237480, Note_off_c, 3, 56, 127
9, 237480, Note_on_c, 3, 56, 127
9, 237600, Note_off_c, 3, 60, 127
9, 237600, Note_on_c, 3, 60, 127
9, 237600, Note_off_c, 3, 56, 127
9, 237600, Note_on_c, 3, 56, 127
9, 237720, Note_off_c, 3, 60, 127
9, 237720, Note_on_c, 3, 60, 127
9, 237720, Note_off_c, 3, 56, 127
9, 237720, Note_on_c, 3, 56, 127
9, 237840, Note_off_c, 3, 60, 127
9, 237840, Note_on_c, 3, 60, 127
9, 237840, Note_off_c, 3, 56, 127
9, 237840, Note_on_c, 3, 56, 127
9, 237960, Note_off_c, 3, 60, 127
9, 237960, Note_on_c, 3, 60, 127
9, 237960, Note_off_c, 3, 56, 127
9, 237960, Note_on_c, 3, 56, 127
9, 238079, Note_off_c, 3, 60, 127
9, 238079, Note_off_c, 3, 56, 127
9, 238080, Note_on_c, 3, 56, 127
9, 238080, Note_on_c, 3, 53, 127
9, 238200, Note_off_c, 3, 56, 127
9, 238200, Note_on_c, 3, 56, 127
9, 238200, Note_off_c, 3, 53, 127
9, 238200, Note_on_c, 3, 53, 127
9, 238320, Note_off_c, 3, 56, 127
9, 238320, Note_on_c, 3, 56, 127
9, 238320, Note_off_c, 3, 53, 127
9, 238320, Note_on_c, 3, 53, 127
9, 238440, Note_off_c, 3, 56, 127
9, 238440, Note_on_c, 3, 56, 127
9, 238440, Note_off_c, 3, 53, 127
9, 238440, Note_on_c, 3, 53, 127
9, 238560, Note_off_c, 3, 56, 127
9, 238560, Note_on_c, 3, 56, 127
9, 238560, Note_off_c, 3, 53, 127
9, 238560, Note_on_c, 3, 53, 127
9, 238680, Note_off_c, 3, 56, 127
9, 238680, Note_on_c, 3, 56, 127
9, 238680, Note_off_c, 3, 53, 127
9, 238680, Note_on_c, 3, 53, 127
9, 238800, Note_off_c, 3, 56, 127
9, 238800, Note_on_c, 3, 56, 127
9, 238800, Note_off_c, 3, 53, 127
9, 238800, Note_on_c, 3, 53, 127
9, 238920, Note_off_c, 3, 56, 127
9, 238920, Note_on_c, 3, 56, 127
9, 238920, Note_off_c, 3, 53, 127
9, 238920, Note_on_c, 3, 53, 127
9, 239040, Note_off_c, 3, 56, 127
9, 239040, Note_on_c, 3, 56, 127
9, 239040, Note_off_c, 3, 53, 127
9, 239040, Note_on_c, 3, 53, 127
9, 239160, Note_off_c, 3, 56, 127
9, 239160, Note_on_c, 3, 56, 127
9, 239160, Note_off_c, 3, 53, 127
9, 239160, Note_on_c, 3, 53, 127
9, 239280, Note_off_c, 3, 56, 127
9, 239280, Note_on_c, 3, 56, 127
9, 239280, Note_off_c, 3, 53, 127
9, 239280, Note_on_c, 3, 53, 127
9, 239400, Note_off_c, 3, 56, 127
9, 239400, Note_on_c, 3, 56, 127
9, 239400, Note_off_c, 3, 53, 127
9, 239400, Note_on_c, 3, 53, 127
9, 239520, Note_off_c, 3, 56, 127
9, 239520, Note_on_c, 3, 56, 127
9, 239520, Note_off_c, 3, 53, 127
9, 239520, Note_on_c, 3, 53, 127
9, 239640, Note_off_c, 3, 56, 127
9, 239640, Note_on_c, 3, 56, 127
9, 239640, Note_off_c, 3, 53, 127
9, 239640, Note_on_c, 3, 53, 127
9, 239760, Note_off_c, 3, 56, 127
9, 239760, Note_on_c, 3, 56, 127
9, 239760, Note_off_c, 3, 53, 127
9, 239760, Note_on_c, 3, 53, 127
9, 239880, Note_off_c, 3, 56, 127
9, 239880, Note_on_c, 3, 56, 127
9, 239880, Note_off_c, 3, 53, 127
9, 239880, Note_on_c, 3, 53, 127
9, 240000, Note_off_c, 3, 56, 127
9, 240000, Note_on_c, 3, 56, 127
9, 240000, Note_off_c, 3, 53, 127
9, 240000, Note_on_c, 3, 53, 127
9, 240120, Note_off_c, 3, 56, 127
9, 240120, Note_on_c, 3, 56, 127
9, 240120, Note_off_c, 3, 53, 127
9, 240120, Note_on_c, 3, 53, 127
9, 240240, Note_off_c, 3, 56, 127
9, 240240, Note_on_c, 3, 56, 127
9, 240240, Note_off_c, 3, 53, 127
9, 240240, Note_on_c, 3, 53, 127
9, 240360, Note_off_c, 3, 56, 127
9, 240360, Note_on_c, 3, 56, 127
9, 240360, Note_off_c, 3, 53, 127
9, 240360, Note_on_c, 3, 53, 127
9, 240480, Note_off_c, 3, 56, 127
9, 240480, Note_on_c, 3, 56, 127
9, 240480, Note_off_c, 3, 53, 127
9, 240480, Note_on_c, 3, 53, 127
9, 240600, Note_off_c, 3, 56, 127
9, 240600, Note_on_c, 3, 56, 127
9, 240600, Note_off_c, 3, 53, 127
9, 240600, Note_on_c, 3, 53, 127
9, 240720, Note_off_c, 3, 56, 127
9, 240720, Note_on_c, 3, 56, 127
9, 240720, Note_off_c, 3, 53, 127
9, 240720, Note_on_c, 3, 53, 127
9, 240840, Note_off_c, 3, 56, 127
9, 240840, Note_on_c, 3, 56, 127
9, 240840, Note_off_c, 3, 53, 127
9, 240840, Note_on_c, 3, 53, 127
9, 240960, Note_off_c, 3, 56, 127
9, 240960, Note_on_c, 3, 56, 127
9, 240960, Note_off_c, 3, 53, 127
9, 240960, Note_on_c, 3, 53, 127
9, 241080, Note_off_c, 3, 56, 127
9, 241080, Note_on_c, 3, 56, 127
9, 241080, Note_off_c, 3, 53, 127
9, 241080, Note_on_c, 3, 53, 127
9, 241200, Note_off_c, 3, 56, 127
9, 241200, Note_on_c, 3, 56, 127
9, 241200, Note_off_c, 3, 53, 127
9, 241200, Note_on_c, 3, 53, 127
9, 241320, Note_off_c, 3, 56, 127
9, 241320, Note_on_c, 3, 56, 127
9, 241320, Note_off_c, 3, 53, 127
9, 241320, Note_on_c, 3, 53, 127
9, 241440, Note_off_c, 3, 56, 127
9, 241440, Note_on_c, 3, 56, 127
9, 241440, Note_off_c, 3, 53, 127
9, 241440, Note_on_c, 3, 53, 127
9, 241560, Note_off_c, 3, 56, 127
9, 241560, Note_on_c, 3, 56, 127
9, 241560, Note_off_c, 3, 53, 127
9, 241560, Note_on_c, 3, 53, 127
9, 241680, Note_off_c, 3, 56, 127
9, 241680, Note_on_c, 3, 56, 127
9, 241680, Note_off_c, 3, 53, 127
9, 241680, Note_on_c, 3, 53, 127
9, 241800, Note_off_c, 3, 56, 127
9, 241800, Note_on_c, 3, 56, 127
9, 241800, Note_off_c, 3, 53, 127
9, 241800, Note_on_c, 3, 53, 127
9, 241920, Note_off_c, 3, 56, 127
9, 241920, Note_on_c, 3, 56, 127
9, 241920, Note_off_c, 3, 53, 127
9, 241920, Note_on_c, 3, 53, 127
9, 242040, Note_off_c, 3, 56, 127
9, 242040, Note_on_c, 3, 56, 127
9, 242040, Note_off_c, 3, 53, 127
9, 242040, Note_on_c, 3, 53, 127
9, 242160, Note_off_c, 3, 56, 127
9, 242160, Note_on_c, 3, 56, 127
9, 242160, Note_off_c, 3, 53, 127
9, 242160, Note_on_c, 3, 53, 127
9, 242280, Note_off_c, 3, 56, 127
9, 242280, Note_on_c, 3, 56, 127
9, 242280, Note_off_c, 3, 53, 127
9, 242280, Note_on_c, 3, 53, 127
9, 242400, Note_off_c, 3, 56, 127
9, 242400, Note_on_c, 3, 56, 127
9, 242400, Note_off_c, 3, 53, 127
9, 242400, Note_on_c, 3, 53, 127
9, 242520, Note_off_c, 3, 56, 127
9, 242520, Note_on_c, 3, 56, 127
9, 242520, Note_off_c, 3, 53, 127
9, 242520, Note_on_c, 3, 53, 127
9, 242640, Note_off_c, 3, 56, 127
9, 242640, Note_on_c, 3, 56, 127
9, 242640, Note_off_c, 3, 53, 127
9, 242640, Note_on_c, 3, 53, 127
9, 242760, Note_off_c, 3, 56, 127
9, 242760, Note_on_c, 3, 56, 127
9, 242760, Note_off_c, 3, 53, 127
9, 242760, Note_on_c, 3, 53, 127
9, 242880, Note_off_c, 3, 56, 127
9, 242880, Note_on_c, 3, 56, 127
9, 242880, Note_off_c, 3, 53, 127
9, 242880, Note_on_c, 3, 53, 127
9, 243000, Note_off_c, 3, 56, 127
9, 243000, Note_on_c, 3, 56, 127
9, 243000, Note_off_c, 3, 53, 127
9, 243000, Note_on_c, 3, 53, 127
9, 243120, Note_off_c, 3, 56, 127
9, 243120, Note_on_c, 3, 56, 127
9, 243120, Note_off_c, 3, 53, 127
9, 243120, Note_on_c, 3, 53, 127
9, 243240, Note_off_c, 3, 56, 127
9, 243240, Note_on_c, 3, 56, 127
9, 243240, Note_off_c, 3, 53, 127
9, 243240, Note_on_c, 3, 53, 127
9, 243360, Note_off_c, 3, 56, 127
9, 243360, Note_on_c, 3, 56, 127
9, 243360, Note_off_c, 3, 53, 127
9, 243360, Note_on_c, 3, 53, 127
9, 243480, Note_off_c, 3, 56, 127
9, 243480, Note_on_c, 3, 56, 127
9, 243480, Note_off_c, 3, 53, 127
9, 243480, Note_on_c, 3, 53, 127
9, 243600, Note_off_c, 3, 56, 127
9, 243600, Note_on_c, 3, 56, 127
9, 243600, Note_off_c, 3, 53, 127
9, 243600, Note_on_c, 3, 53, 127
9, 243720, Note_off_c, 3, 56, 127
9, 243720, Note_on_c, 3, 56, 127
9, 243720, Note_off_c, 3, 53, 127
9, 243720, Note_on_c, 3, 53, 127
9, 243839, Note_off_c, 3, 56, 127
9, 243839, Note_off_c, 3, 53, 127
9, 243840, Note_on_c, 3, 55, 127
9, 243840, Note_on_c, 3, 51, 127
9, 243960, Note_off_c, 3, 55, 127
9, 243960, Note_on_c, 3, 55, 127
9, 243960, Note_off_c, 3, 51, 127
9, 243960, Note_on_c, 3, 51, 127
9, 244080, Note_off_c, 3, 55, 127
9, 244080, Note_on_c, 3, 55, 127
9, 244080, Note_off_c, 3, 51, 127
9, 244080, Note_on_c, 3, 51, 127
9, 244200, Note_off_c, 3, 55, 127
9, 244200, Note_on_c, 3, 55, 127
9, 244200, Note_off_c, 3, 51, 127
9, 244200, Note_on_c, 3, 51, 127
9, 244320, Note_off_c, 3, 55, 127
9, 244320, Note_on_c, 3, 55, 127
9, 244320, Note_off_c, 3, 51, 127
9, 244320, Note_on_c, 3, 51, 127
9, 244440, Note_off_c, 3, 55, 127
9, 244440, Note_on_c, 3, 55, 127
9, 244440, Note_off_c, 3, 51, 127
9, 244440, Note_on_c, 3, 51, 127
9, 244560, Note_off_c, 3, 55, 127
9, 244560, Note_on_c, 3, 55, 127
9, 244560, Note_off_c, 3, 51, 127
9, 244560, Note_on_c, 3, 51, 127
9, 244680, Note_off_c, 3, 55, 127
9, 244680, Note_on_c, 3, 55, 127
9, 244680, Note_off_c, 3, 51, 127
9, 244680, Note_on_c, 3, 51, 127
9, 244799, Note_off_c, 3, 55, 127
9, 244799, Note_off_c, 3, 51, 127
9, 244800, Note_on_c, 3, 56, 127
9, 244800, Note_on_c, 3, 53, 127
9, 244920, Note_off_c, 3, 56, 127
9, 244920, Note_on_c, 3, 56, 127
9, 244920, Note_off_c, 3, 53, 127
9, 244920, Note_on_c, 3, 53, 127
9, 245040, Note_off_c, 3, 56, 127
9, 245040, Note_on_c, 3, 56, 127
9, 245040, Note_off_c, 3, 53, 127
9, 245040, Note_on_c, 3, 53, 127
9, 245160, Note_off_c, 3, 56, 127
9, 245160, Note_on_c, 3, 56, 127
9, 245160, Note_off_c, 3, 53, 127
9, 245160, Note_on_c, 3, 53, 127
9, 245280, Note_off_c, 3, 56, 127
9, 245280, Note_on_c, 3, 56, 127
9, 245280, Note_off_c, 3, 53, 127
9, 245280, Note_on_c, 3, 53, 127
9, 245400, Note_off_c, 3, 56, 127
9, 245400, Note_on_c, 3, 56, 127
9, 245400, Note_off_c, 3, 53, 127
9, 245400, Note_on_c, 3, 53, 127
9, 245520, Note_off_c, 3, 56, 127
9, 245520, Note_on_c, 3, 56, 127
9, 245520, Note_off_c, 3, 53, 127
9, 245520, Note_on_c, 3, 53, 127
9, 245640, Note_off_c, 3, 56, 127
9, 245640, Note_on_c, 3, 56, 127
9, 245640, Note_off_c, 3, 53, 127
9, 245640, Note_on_c, 3, 53, 127
9, 245759, Note_off_c, 3, 56, 127
9, 245759, Note_off_c, 3, 53, 127
9, 245760, Note_on_c, 3, 67, 127
9, 245760, Note_on_c, 3, 62, 127
9, 245760, Note_on_c, 3, 55, 127
9, 246000, Note_off_c, 3, 67, 127
9, 246000, Note_off_c, 3, 62, 127
9, 246000, Note_off_c, 3, 55, 127
9, 246000, Note_on_c, 3, 68, 127
9, 246000, Note_on_c, 3, 63, 127
9, 246000, Note_on_c, 3, 56, 127
9, 246240, Note_off_c, 3, 68, 127
9, 246240, Note_off_c, 3, 63, 127
9, 246240, Note_off_c, 3, 56, 127
9, 249600, Note_on_c, 3, 68, 127
9, 249600, Note_on_c, 3, 63, 127
9, 249600, Note_on_c, 3, 56, 127
9, 249840, Note_off_c, 3, 68, 127
9, 249840, Note_off_c, 3, 63, 127
9, 249840, Note_off_c, 3, 56, 127
9, 249840, Note_on_c, 3, 67, 127
9, 249840, Note_on_c, 3, 62, 127
9, 249840, Note_on_c, 3, 55, 127
9, 250080, Note_off_c, 3, 67, 127
9, 250080, Note_off_c, 3, 62, 127
9, 250080, Note_off_c, 3, 55, 127
9, 251520, Note_on_c, 3, 67, 127
9, 251520, Note_on_c, 3, 62, 127
9, 251520, Note_on_c, 3, 55, 127
9, 251760, Note_off_c, 3, 67, 127
9, 251760, Note_off_c, 3, 62, 127
9, 251760, Note_off_c, 3, 55, 127
9, 252480, Note_on_c, 3, 68, 127
9, 252480, Note_on_c, 3, 63, 127
9, 252480, Note_on_c, 3, 56, 127
9, 252720, Note_off_c, 3, 68, 127
9, 252720, Note_off_c, 3, 63, 127
9, 252720, Note_off_c, 3, 56, 127
9, 253440, Note_on_c, 3, 62, 127
9, 253440, Note_on_c, 3, 57, 127
9, 253560, Note_off_c, 3, 62, 127
9, 253560, Note_on_c, 3, 62, 127
9, 253560, Note_off_c, 3, 57, 127
9, 253560, Note_on_c, 3, 57, 127
9, 253680, Note_off_c, 3, 62, 127
9, 253680, Note_on_c, 3, 62, 127
9, 253680, Note_off_c, 3, 57, 127
9, 253680, Note_on_c, 3, 57, 127
9, 253800, Note_off_c, 3, 62, 127
9, 253800, Note_on_c, 3, 62, 127
9, 253800, Note_off_c, 3, 57, 127
9, 253800, Note_on_c, 3, 57, 127
9, 253920, Note_off_c, 3, 62, 127
9, 253920, Note_on_c, 3, 62, 127
9, 253920, Note_off_c, 3, 57, 127
9, 253920, Note_on_c, 3, 57, 127
9, 254040, Note_off_c, 3, 62, 127
9, 254040, Note_on_c, 3, 62, 127
9, 254040, Note_off_c, 3, 57, 127
9, 254040, Note_on_c, 3, 57, 127
9, 254160, Note_off_c, 3, 62, 127
9, 254160, Note_on_c, 3, 62, 127
9, 254160, Note_off_c, 3, 57, 127
9, 254160, Note_on_c, 3, 57, 127
9, 254280, Note_off_c, 3, 62, 127
9, 254280, Note_on_c, 3, 62, 127
9, 254280, Note_off_c, 3, 57, 127
9, 254280, Note_on_c, 3, 57, 127
9, 254400, Note_off_c, 3, 62, 127
9, 254400, Note_on_c, 3, 62, 127
9, 254400, Note_off_c, 3, 57, 127
9, 254400, Note_on_c, 3, 57, 127
9, 254520, Note_off_c, 3, 62, 127
9, 254520, Note_on_c, 3, 62, 127
9, 254520, Note_off_c, 3, 57, 127
9, 254520, Note_on_c, 3, 57, 127
9, 254640, Note_off_c, 3, 62, 127
9, 254640, Note_on_c, 3, 62, 127
9, 254640, Note_off_c, 3, 57, 127
9, 254640, Note_on_c, 3, 57, 127
9, 254760, Note_off_c, 3, 62, 127
9, 254760, Note_on_c, 3, 62, 127
9, 254760, Note_off_c, 3, 57, 127
9, 254760, Note_on_c, 3, 57, 127
9, 254880, Note_off_c, 3, 62, 127
9, 254880, Note_on_c, 3, 62, 127
9, 254880, Note_off_c, 3, 57, 127
9, 254880, Note_on_c, 3, 57, 127
9, 255000, Note_off_c, 3, 62, 127
9, 255000, Note_on_c, 3, 62, 127
9, 255000, Note_off_c, 3, 57, 127
9, 255000, Note_on_c, 3, 57, 127
9, 255120, Note_off_c, 3, 62, 127
9, 255120, Note_on_c, 3, 62, 127
9, 255120, Note_off_c, 3, 57, 127
9, 255120, Note_on_c, 3, 57, 127
9, 255240, Note_off_c, 3, 62, 127
9, 255240, Note_on_c, 3, 62, 127
9, 255240, Note_off_c, 3, 57, 127
9, 255240, Note_on_c, 3, 57, 127
9, 255360, Note_off_c, 3, 62, 127
9, 255360, Note_on_c, 3, 62, 127
9, 255360, Note_off_c, 3, 57, 127
9, 255360, Note_on_c, 3, 57, 127
9, 255480, Note_off_c, 3, 62, 127
9, 255480, Note_on_c, 3, 62, 127
9, 255480, Note_off_c, 3, 57, 127
9, 255480, Note_on_c, 3, 57, 127
9, 255600, Note_off_c, 3, 62, 127
9, 255600, Note_on_c, 3, 62, 127
9, 255600, Note_off_c, 3, 57, 127
9, 255600, Note_on_c, 3, 57, 127
9, 255720, Note_off_c, 3, 62, 127
9, 255720, Note_on_c, 3, 62, 127
9, 255720, Note_off_c, 3, 57, 127
9, 255720, Note_on_c, 3, 57, 127
9, 255840, Note_off_c, 3, 62, 127
9, 255840, Note_on_c, 3, 62, 127
9, 255840, Note_off_c, 3, 57, 127
9, 255840, Note_on_c, 3, 57, 127
9, 255960, Note_off_c, 3, 62, 127
9, 255960, Note_on_c, 3, 62, 127
9, 255960, Note_off_c, 3, 57, 127
9, 255960, Note_on_c, 3, 57, 127
9, 256080, Note_off_c, 3, 62, 127
9, 256080, Note_on_c, 3, 62, 127
9, 256080, Note_off_c, 3, 57, 127
9, 256080, Note_on_c, 3, 57, 127
9, 256200, Note_off_c, 3, 62, 127
9, 256200, Note_on_c, 3, 62, 127
9, 256200, Note_off_c, 3, 57, 127
9, 256200, Note_on_c, 3, 57, 127
9, 256320, Note_off_c, 3, 62, 127
9, 256320, Note_on_c, 3, 62, 127
9, 256320, Note_off_c, 3, 57, 127
9, 256320, Note_on_c, 3, 57, 127
9, 256440, Note_off_c, 3, 62, 127
9, 256440, Note_on_c, 3, 62, 127
9, 256440, Note_off_c, 3, 57, 127
9, 256440, Note_on_c, 3, 57, 127
9, 256560, Note_off_c, 3, 62, 127
9, 256560, Note_on_c, 3, 62, 127
9, 256560, Note_off_c, 3, 57, 127
9, 256560, Note_on_c, 3, 57, 127
9, 256680, Note_off_c, 3, 62, 127
9, 256680, Note_on_c, 3, 62, 127
9, 256680, Note_off_c, 3, 57, 127
9, 256680, Note_on_c, 3, 57, 127
9, 256800, Note_off_c, 3, 62, 127
9, 256800, Note_on_c, 3, 62, 127
9, 256800, Note_off_c, 3, 57, 127
9, 256800, Note_on_c, 3, 57, 127
9, 256920, Note_off_c, 3, 62, 127
9, 256920, Note_on_c, 3, 62, 127
9, 256920, Note_off_c, 3, 57, 127
9, 256920, Note_on_c, 3, 57, 127
9, 257040, Note_off_c, 3, 62, 127
9, 257040, Note_on_c, 3, 62, 127
9, 257040, Note_off_c, 3, 57, 127
9, 257040, Note_on_c, 3, 57, 127
9, 257160, Note_off_c, 3, 62, 127
9, 257160, Note_on_c, 3, 62, 127
9, 257160, Note_off_c, 3, 57, 127
9, 257160, Note_on_c, 3, 57, 127
9, 257279, Note_off_c, 3, 62, 127
9, 257279, Note_off_c, 3, 57, 127
9, 257280, Note_on_c, 3, 62, 127
9, 257280, Note_on_c, 3, 57, 127
9, 257520, Note_off_c, 3, 62, 127
9, 257520, Note_off_c, 3, 57, 127
9, 257520, Note_on_c, 3, 63, 127
9, 257520, Note_on_c, 3, 58, 127
9, 257760, Note_off_c, 3, 63, 127
9, 257760, Note_off_c, 3, 58, 127
9, 259200, Note_on_c, 3, 63, 127
9, 259200, Note_on_c, 3, 58, 127
9, 259440, Note_off_c, 3, 63, 127
9, 259440, Note_off_c, 3, 58, 127
9, 259440, Note_on_c, 3, 62, 127
9, 259440, Note_on_c, 3, 57, 127
9, 259680, Note_off_c, 3, 62, 127
9, 259680, Note_off_c, 3, 57, 127
9, 260160, Note_on_c, 3, 62, 127
9, 260160, Note_on_c, 3, 57, 127
9, 260400, Note_off_c, 3, 62, 127
9, 260400, Note_off_c, 3, 57, 127
9, 260400, Note_on_c, 3, 63, 127
9, 260400, Note_on_c, 3, 58, 127
9, 260640, Note_off_c, 3, 63, 127
9, 260640, Note_off_c, 3, 58, 127
9, 261120, Note_on_c, 3, 67, 127
9, 261120, Note_on_c, 3, 62, 127
9, 261120, Note_on_c, 3, 55, 127
9, 261360, Note_off_c, 3, 67, 127
9, 261360, Note_off_c, 3, 62, 127
9, 261360, Note_off_c, 3, 55, 127
9, 261360, Note_on_c, 3, 68, 127
9, 261360, Note_on_c, 3, 63, 127
9, 261360, Note_on_c, 3, 56, 127
9, 261600, Note_off_c, 3, 68, 127
9, 261600, Note_off_c, 3, 63, 127
9, 261600, Note_off_c, 3, 56, 127
9, 264960, Note_on_c, 3, 68, 127
9, 264960, Note_on_c, 3, 63, 127
9, 264960, Note_on_c, 3, 56, 127
9, 265200, Note_off_c, 3, 68, 127
9, 265200, Note_off_c, 3, 63, 127
9, 265200, Note_off_c, 3, 56, 127
9, 265200, Note_on_c, 3, 67, 127
9, 265200, Note_on_c, 3, 62, 127
9, 265200, Note_on_c, 3, 55, 127
9, 265440, Note_off_c, 3, 67, 127
9, 265440, Note_off_c, 3, 62, 127
9, 265440, Note_off_c, 3, 55, 127
9, 266880, Note_on_c, 3, 67, 127
9, 266880, Note_on_c, 3, 62, 127
9, 266880, Note_on_c, 3, 55, 127
9, 267120, Note_off_c, 3, 67, 127
9, 267120, Note_off_c, 3, 62, 127
9, 267120, Note_off_c, 3, 55, 127
9, 267840, Note_on_c, 3, 68, 127
9, 267840, Note_on_c, 3, 63, 127
9, 267840, Note_on_c, 3, 56, 127
9, 268080, Note_off_c, 3, 68, 127
9, 268080, Note_off_c, 3, 63, 127
9, 268080, Note_off_c, 3, 56, 127
9, 268800, Note_on_c, 3, 62, 127
9, 268800, Note_on_c, 3, 57, 127
9, 268920, Note_off_c, 3, 62, 127
9, 268920, Note_on_c, 3, 62, 127
9, 268920, Note_off_c, 3, 57, 127
9, 268920, Note_on_c, 3, 57, 127
9, 269040, Note_off_c, 3, 62, 127
9, 269040, Note_on_c, 3, 62, 127
9, 269040, Note_off_c, 3, 57, 127
9, 269040, Note_on_c, 3, 57, 127
9, 269160, Note_off_c, 3, 62, 127
9, 269160, Note_on_c, 3, 62, 127
9, 269160, Note_off_c, 3, 57, 127
9, 269160, Note_on_c, 3, 57, 127
9, 269280, Note_off_c, 3, 62, 127
9, 269280, Note_on_c, 3, 62, 127
9, 269280, Note_off_c, 3, 57, 127
9, 269280, Note_on_c, 3, 57, 127
9, 269400, Note_off_c, 3, 62, 127
9, 269400, Note_on_c, 3, 62, 127
9, 269400, Note_off_c, 3, 57, 127
9, 269400, Note_on_c, 3, 57, 127
9, 269520, Note_off_c, 3, 62, 127
9, 269520, Note_on_c, 3, 62, 127
9, 269520, Note_off_c, 3, 57, 127
9, 269520, Note_on_c, 3, 57, 127
9, 269640, Note_off_c, 3, 62, 127
9, 269640, Note_on_c, 3, 62, 127
9, 269640, Note_off_c, 3, 57, 127
9, 269640, Note_on_c, 3, 57, 127
9, 269760, Note_off_c, 3, 62, 127
9, 269760, Note_on_c, 3, 62, 127
9, 269760, Note_off_c, 3, 57, 127
9, 269760, Note_on_c, 3, 57, 127
9, 269880, Note_off_c, 3, 62, 127
9, 269880, Note_on_c, 3, 62, 127
9, 269880, Note_off_c, 3, 57, 127
9, 269880, Note_on_c, 3, 57, 127
9, 270000, Note_off_c, 3, 62, 127
9, 270000, Note_on_c, 3, 62, 127
9, 270000, Note_off_c, 3, 57, 127
9, 270000, Note_on_c, 3, 57, 127
9, 270120, Note_off_c, 3, 62, 127
9, 270120, Note_on_c, 3, 62, 127
9, 270120, Note_off_c, 3, 57, 127
9, 270120, Note_on_c, 3, 57, 127
9, 270240, Note_off_c, 3, 62, 127
9, 270240, Note_on_c, 3, 62, 127
9, 270240, Note_off_c, 3, 57, 127
9, 270240, Note_on_c, 3, 57, 127
9, 270360, Note_off_c, 3, 62, 127
9, 270360, Note_on_c, 3, 62, 127
9, 270360, Note_off_c, 3, 57, 127
9, 270360, Note_on_c, 3, 57, 127
9, 270480, Note_off_c, 3, 62, 127
9, 270480, Note_on_c, 3, 62, 127
9, 270480, Note_off_c, 3, 57, 127
9, 270480, Note_on_c, 3, 57, 127
9, 270600, Note_off_c, 3, 62, 127
9, 270600, Note_on_c, 3, 62, 127
9, 270600, Note_off_c, 3, 57, 127
9, 270600, Note_on_c, 3, 57, 127
9, 270720, Note_off_c, 3, 62, 127
9, 270720, Note_on_c, 3, 62, 127
9, 270720, Note_off_c, 3, 57, 127
9, 270720, Note_on_c, 3, 57, 127
9, 270840, Note_off_c, 3, 62, 127
9, 270840, Note_on_c, 3, 62, 127
9, 270840, Note_off_c, 3, 57, 127
9, 270840, Note_on_c, 3, 57, 127
9, 270960, Note_off_c, 3, 62, 127
9, 270960, Note_on_c, 3, 62, 127
9, 270960, Note_off_c, 3, 57, 127
9, 270960, Note_on_c, 3, 57, 127
9, 271080, Note_off_c, 3, 62, 127
9, 271080, Note_on_c, 3, 62, 127
9, 271080, Note_off_c, 3, 57, 127
9, 271080, Note_on_c, 3, 57, 127
9, 271200, Note_off_c, 3, 62, 127
9, 271200, Note_on_c, 3, 62, 127
9, 271200, Note_off_c, 3, 57, 127
9, 271200, Note_on_c, 3, 57, 127
9, 271320, Note_off_c, 3, 62, 127
9, 271320, Note_on_c, 3, 62, 127
9, 271320, Note_off_c, 3, 57, 127
9, 271320, Note_on_c, 3, 57, 127
9, 271440, Note_off_c, 3, 62, 127
9, 271440, Note_on_c, 3, 62, 127
9, 271440, Note_off_c, 3, 57, 127
9, 271440, Note_on_c, 3, 57, 127
9, 271560, Note_off_c, 3, 62, 127
9, 271560, Note_on_c, 3, 62, 127
9, 271560, Note_off_c, 3, 57, 127
9, 271560, Note_on_c, 3, 57, 127
9, 271680, Note_off_c, 3, 62, 127
9, 271680, Note_on_c, 3, 62, 127
9, 271680, Note_off_c, 3, 57, 127
9, 271680, Note_on_c, 3, 57, 127
9, 271800, Note_off_c, 3, 62, 127
9, 271800, Note_on_c, 3, 62, 127
9, 271800, Note_off_c, 3, 57, 127
9, 271800, Note_on_c, 3, 57, 127
9, 271920, Note_off_c, 3, 62, 127
9, 271920, Note_on_c, 3, 62, 127
9, 271920, Note_off_c, 3, 57, 127
9, 271920, Note_on_c, 3, 57, 127
9, 272040, Note_off_c, 3, 62, 127
9, 272040, Note_on_c, 3, 62, 127
9, 272040, Note_off_c, 3, 57, 127
9, 272040, Note_on_c, 3, 57, 127
9, 272160, Note_off_c, 3, 62, 127
9, 272160, Note_on_c, 3, 62, 127
9, 272160, Note_off_c, 3, 57, 127
9, 272160, Note_on_c, 3, 57, 127
9, 272280, Note_off_c, 3, 62, 127
9, 272280, Note_on_c, 3, 62, 127
9, 272280, Note_off_c, 3, 57, 127
9, 272280, Note_on_c, 3, 57, 127
9, 272400, Note_off_c, 3, 62, 127
9, 272400, Note_on_c, 3, 62, 127
9, 272400, Note_off_c, 3, 57, 127
9, 272400, Note_on_c, 3, 57, 127
9, 272520, Note_off_c, 3, 62, 127
9, 272520, Note_on_c, 3, 62, 127
9, 272520, Note_off_c, 3, 57, 127
9, 272520, Note_on_c, 3, 57, 127
9, 272639, Note_off_c, 3, 62, 127
9, 272639, Note_off_c, 3, 57, 127
9, 272640, Note_on_c, 3, 62, 127
9, 272640, Note_on_c, 3, 57, 127
9, 272880, Note_off_c, 3, 62, 127
9, 272880, Note_off_c, 3, 57, 127
9, 272880, Note_on_c, 3, 63, 127
9, 272880, Note_on_c, 3, 58, 127
9, 273120, Note_off_c, 3, 63, 127
9, 273120, Note_off_c, 3, 58, 127
9, 274560, Note_on_c, 3, 63, 127
9, 274560, Note_on_c, 3, 58, 127
9, 274800, Note_off_c, 3, 63, 127
9, 274800, Note_off_c, 3, 58, 127
9, 274800, Note_on_c, 3, 62, 127
9, 274800, Note_on_c, 3, 57, 127
9, 275040, Note_off_c, 3, 62, 127
9, 275040, Note_off_c, 3, 57, 127
9, 275520, Note_on_c, 3, 62, 127
9, 275520, Note_on_c, 3, 57, 127
9, 275760, Note_off_c, 3, 62, 127
9, 275760, Note_off_c, 3, 57, 127
9, 275760, Note_on_c, 3, 63, 127
9, 275760, Note_on_c, 3, 58, 127
9, 276000, Note_off_c, 3, 63, 127
9, 276000, Note_off_c, 3, 58, 127
9, 276480, Note_on_c, 3, 67, 127
9, 276480, Note_on_c, 3, 62, 127
9, 276480, Note_on_c, 3, 55, 127
9, 276720, Note_off_c, 3, 67, 127
9, 276720, Note_off_c, 3, 62, 127
9, 276720, Note_off_c, 3, 55, 127
9, 276720, Note_on_c, 3, 68, 127
9, 276720, Note_on_c, 3, 63, 127
9, 276720, Note_on_c, 3, 56, 127
9, 276960, Note_off_c, 3, 68, 127
9, 276960, Note_off_c, 3, 63, 127
9, 276960, Note_off_c, 3, 56, 127
9, 280320, Note_on_c, 3, 68, 127
9, 280320, Note_on_c, 3, 63, 127
9, 280320, Note_on_c, 3, 56, 127
9, 280560, Note_off_c, 3, 68, 127
9, 280560, Note_off_c, 3, 63, 127
9, 280560, Note_off_c, 3, 56, 127
9, 280560, Note_on_c, 3, 67, 127
9, 280560, Note_on_c, 3, 62, 127
9, 280560, Note_on_c, 3, 55, 127
9, 280800, Note_off_c, 3, 67, 127
9, 280800, Note_off_c, 3, 62, 127
9, 280800, Note_off_c, 3, 55, 127
9, 282240, Note_on_c, 3, 67, 127
9, 282240, Note_on_c, 3, 62, 127
9, 282240, Note_on_c, 3, 55, 127
9, 282480, Note_off_c, 3, 67, 127
9, 282480, Note_off_c, 3, 62, 127
9, 282480, Note_off_c, 3, 55, 127
9, 283200, Note_on_c, 3, 68, 127
9, 283200, Note_on_c, 3, 63, 127
9, 283200, Note_on_c, 3, 56, 127
9, 283440, Note_off_c, 3, 68, 127
9, 283440, Note_off_c, 3, 63, 127
9, 283440, Note_off_c, 3, 56, 127
9, 284160, Note_on_c, 3, 62, 127
9, 284160, Note_on_c, 3, 57, 127
9, 284280, Note_off_c, 3, 62, 127
9, 284280, Note_on_c, 3, 62, 127
9, 284280, Note_off_c, 3, 57, 127
9, 284280, Note_on_c, 3, 57, 127
9, 284400, Note_off_c, 3, 62, 127
9, 284400, Note_on_c, 3, 62, 127
9, 284400, Note_off_c, 3, 57, 127
9, 284400, Note_on_c, 3, 57, 127
9, 284520, Note_off_c, 3, 62, 127
9, 284520, Note_on_c, 3, 62, 127
9, 284520, Note_off_c, 3, 57, 127
9, 284520, Note_on_c, 3, 57, 127
9, 284640, Note_off_c, 3, 62, 127
9, 284640, Note_on_c, 3, 62, 127
9, 284640, Note_off_c, 3, 57, 127
9, 284640, Note_on_c, 3, 57, 127
9, 284760, Note_off_c, 3, 62, 127
9, 284760, Note_on_c, 3, 62, 127
9, 284760, Note_off_c, 3, 57, 127
9, 284760, Note_on_c, 3, 57, 127
9, 284880, Note_off_c, 3, 62, 127
9, 284880, Note_on_c, 3, 62, 127
9, 284880, Note_off_c, 3, 57, 127
9, 284880, Note_on_c, 3, 57, 127
9, 285000, Note_off_c, 3, 62, 127
9, 285000, Note_on_c, 3, 62, 127
9, 285000, Note_off_c, 3, 57, 127
9, 285000, Note_on_c, 3, 57, 127
9, 285120, Note_off_c, 3, 62, 127
9, 285120, Note_on_c, 3, 62, 127
9, 285120, Note_off_c, 3, 57, 127
9, 285120, Note_on_c, 3, 57, 127
9, 285240, Note_off_c, 3, 62, 127
9, 285240, Note_on_c, 3, 62, 127
9, 285240, Note_off_c, 3, 57, 127
9, 285240, Note_on_c, 3, 57, 127
9, 285360, Note_off_c, 3, 62, 127
9, 285360, Note_on_c, 3, 62, 127
9, 285360, Note_off_c, 3, 57, 127
9, 285360, Note_on_c, 3, 57, 127
9, 285480, Note_off_c, 3, 62, 127
9, 285480, Note_on_c, 3, 62, 127
9, 285480, Note_off_c, 3, 57, 127
9, 285480, Note_on_c, 3, 57, 127
9, 285600, Note_off_c, 3, 62, 127
9, 285600, Note_on_c, 3, 62, 127
9, 285600, Note_off_c, 3, 57, 127
9, 285600, Note_on_c, 3, 57, 127
9, 285720, Note_off_c, 3, 62, 127
9, 285720, Note_on_c, 3, 62, 127
9, 285720, Note_off_c, 3, 57, 127
9, 285720, Note_on_c, 3, 57, 127
9, 285840, Note_off_c, 3, 62, 127
9, 285840, Note_on_c, 3, 62, 127
9, 285840, Note_off_c, 3, 57, 127
9, 285840, Note_on_c, 3, 57, 127
9, 285960, Note_off_c, 3, 62, 127
9, 285960, Note_on_c, 3, 62, 127
9, 285960, Note_off_c, 3, 57, 127
9, 285960, Note_on_c, 3, 57, 127
9, 286080, Note_off_c, 3, 62, 127
9, 286080, Note_on_c, 3, 62, 127
9, 286080, Note_off_c, 3, 57, 127
9, 286080, Note_on_c, 3, 57, 127
9, 286200, Note_off_c, 3, 62, 127
9, 286200, Note_on_c, 3, 62, 127
9, 286200, Note_off_c, 3, 57, 127
9, 286200, Note_on_c, 3, 57, 127
9, 286320, Note_off_c, 3, 62, 127
9, 286320, Note_on_c, 3, 62, 127
9, 286320, Note_off_c, 3, 57, 127
9, 286320, Note_on_c, 3, 57, 127
9, 286440, Note_off_c, 3, 62, 127
9, 286440, Note_on_c, 3, 62, 127
9, 286440, Note_off_c, 3, 57, 127
9, 286440, Note_on_c, 3, 57, 127
9, 286560, Note_off_c, 3, 62, 127
9, 286560, Note_on_c, 3, 62, 127
9, 286560, Note_off_c, 3, 57, 127
9, 286560, Note_on_c, 3, 57, 127
9, 286680, Note_off_c, 3, 62, 127
9, 286680, Note_on_c, 3, 62, 127
9, 286680, Note_off_c, 3, 57, 127
9, 286680, Note_on_c, 3, 57, 127
9, 286800, Note_off_c, 3, 62, 127
9, 286800, Note_on_c, 3, 62, 127
9, 286800, Note_off_c, 3, 57, 127
9, 286800, Note_on_c, 3, 57, 127
9, 286920, Note_off_c, 3, 62, 127
9, 286920, Note_on_c, 3, 62, 127
9, 286920, Note_off_c, 3, 57, 127
9, 286920, Note_on_c, 3, 57, 127
9, 287040, Note_off_c, 3, 62, 127
9, 287040, Note_on_c, 3, 62, 127
9, 287040, Note_off_c, 3, 57, 127
9, 287040, Note_on_c, 3, 57, 127
9, 287160, Note_off_c, 3, 62, 127
9, 287160, Note_on_c, 3, 62, 127
9, 287160, Note_off_c, 3, 57, 127
9, 287160, Note_on_c, 3, 57, 127
9, 287280, Note_off_c, 3, 62, 127
9, 287280, Note_on_c, 3, 62, 127
9, 287280, Note_off_c, 3, 57, 127
9, 287280, Note_on_c, 3, 57, 127
9, 287400, Note_off_c, 3, 62, 127
9, 287400, Note_on_c, 3, 62, 127
9, 287400, Note_off_c, 3, 57, 127
9, 287400, Note_on_c, 3, 57, 127
9, 287520, Note_off_c, 3, 62, 127
9, 287520, Note_on_c, 3, 62, 127
9, 287520, Note_off_c, 3, 57, 127
9, 287520, Note_on_c, 3, 57, 127
9, 287640, Note_off_c, 3, 62, 127
9, 287640, Note_on_c, 3, 62, 127
9, 287640, Note_off_c, 3, 57, 127
9, 287640, Note_on_c, 3, 57, 127
9, 287760, Note_off_c, 3, 62, 127
9, 287760, Note_on_c, 3, 62, 127
9, 287760, Note_off_c, 3, 57, 127
9, 287760, Note_on_c, 3, 57, 127
9, 287880, Note_off_c, 3, 62, 127
9, 287880, Note_on_c, 3, 62, 127
9, 287880, Note_off_c, 3, 57, 127
9, 287880, Note_on_c, 3, 57, 127
9, 287999, Note_off_c, 3, 62, 127
9, 287999, Note_off_c, 3, 57, 127
9, 288000, Note_on_c, 3, 62, 127
9, 288000, Note_on_c, 3, 57, 127
9, 288240, Note_off_c, 3, 62, 127
9, 288240, Note_off_c, 3, 57, 127
9, 288240, Note_on_c, 3, 63, 127
9, 288240, Note_on_c, 3, 58, 127
9, 288480, Note_off_c, 3, 63, 127
9, 288480, Note_off_c, 3, 58, 127
9, 289920, Note_on_c, 3, 63, 127
9, 289920, Note_on_c, 3, 58, 127
9, 290160, Note_off_c, 3, 63, 127
9, 290160, Note_off_c, 3, 58, 127
9, 290160, Note_on_c, 3, 62, 127
9, 290160, Note_on_c, 3, 57, 127
9, 290400, Note_off_c, 3, 62, 127
9, 290400, Note_off_c, 3, 57, 127
9, 290880, Note_on_c, 3, 62, 127
9, 290880, Note_on_c, 3, 57, 127
9, 291120, Note_off_c, 3, 62, 127
9, 291120, Note_off_c, 3, 57, 127
9, 291120, Note_on_c, 3, 63, 127
9, 291120, Note_on_c, 3, 58, 127
9, 291360, Note_off_c, 3, 63, 127
9, 291360, Note_off_c, 3, 58, 127
9, 291840, Note_on_c, 3, 67, 127
9, 291840, Note_on_c, 3, 62, 127
9, 291840, Note_on_c, 3, 55, 127
9, 292080, Note_off_c, 3, 67, 127
9, 292080, Note_off_c, 3, 62, 127
9, 292080, Note_off_c, 3, 55, 127
9, 292080, Note_on_c, 3, 68, 127
9, 292080, Note_on_c, 3, 63, 127
9, 292080, Note_on_c, 3, 56, 127
9, 292320, Note_off_c, 3, 68, 127
9, 292320, Note_off_c, 3, 63, 127
9, 292320, Note_off_c, 3, 56, 127
9, 295680, Note_on_c, 3, 68, 127
9, 295680, Note_on_c, 3, 63, 127
9, 295680, Note_on_c, 3, 56, 127
9, 295920, Note_off_c, 3, 68, 127
9, 295920, Note_off_c, 3, 63, 127
9, 295920, Note_off_c, 3, 56, 127
9, 295920, Note_on_c, 3, 67, 127
9, 295920, Note_on_c, 3, 62, 127
9, 295920, Note_on_c, 3, 55, 127
9, 296160, Note_off_c, 3, 67, 127
9, 296160, Note_off_c, 3, 62, 127
9, 296160, Note_off_c, 3, 55, 127
9, 297600, Note_on_c, 3, 67, 127
9, 297600, Note_on_c, 3, 62, 127
9, 297600, Note_on_c, 3, 55, 127
9, 297840, Note_off_c, 3, 67, 127
9, 297840, Note_off_c, 3, 62, 127
9, 297840, Note_off_c, 3, 55, 127
9, 298560, Note_on_c, 3, 68, 127
9, 298560, Note_on_c, 3, 63, 127
9, 298560, Note_on_c, 3, 56, 127
9, 298800, Note_off_c, 3, 68, 127
9, 298800, Note_off_c, 3, 63, 127
9, 298800, Note_off_c, 3, 56, 127
9, 299520, Note_on_c, 3, 62, 127
9, 299520, Note_on_c, 3, 57, 127
9, 299640, Note_off_c, 3, 62, 127
9, 299640, Note_on_c, 3, 62, 127
9, 299640, Note_off_c, 3, 57, 127
9, 299640, Note_on_c, 3, 57, 127
9, 299760, Note_off_c, 3, 62, 127
9, 299760, Note_on_c, 3, 62, 127
9, 299760, Note_off_c, 3, 57, 127
9, 299760, Note_on_c, 3, 57, 127
9, 299880, Note_off_c, 3, 62, 127
9, 299880, Note_on_c, 3, 62, 127
9, 299880, Note_off_c, 3, 57, 127
9, 299880, Note_on_c, 3, 57, 127
9, 300000, Note_off_c, 3, 62, 127
9, 300000, Note_on_c, 3, 62, 127
9, 300000, Note_off_c, 3, 57, 127
9, 300000, Note_on_c, 3, 57, 127
9, 300120, Note_off_c, 3, 62, 127
9, 300120, Note_on_c, 3, 62, 127
9, 300120, Note_off_c, 3, 57, 127
9, 300120, Note_on_c, 3, 57, 127
9, 300240, Note_off_c, 3, 62, 127
9, 300240, Note_on_c, 3, 62, 127
9, 300240, Note_off_c, 3, 57, 127
9, 300240, Note_on_c, 3, 57, 127
9, 300360, Note_off_c, 3, 62, 127
9, 300360, Note_on_c, 3, 62, 127
9, 300360, Note_off_c, 3, 57, 127
9, 300360, Note_on_c, 3, 57, 127
9, 300480, Note_off_c, 3, 62, 127
9, 300480, Note_on_c, 3, 62, 127
9, 300480, Note_off_c, 3, 57, 127
9, 300480, Note_on_c, 3, 57, 127
9, 300600, Note_off_c, 3, 62, 127
9, 300600, Note_on_c, 3, 62, 127
9, 300600, Note_off_c, 3, 57, 127
9, 300600, Note_on_c, 3, 57, 127
9, 300720, Note_off_c, 3, 62, 127
9, 300720, Note_on_c, 3, 62, 127
9, 300720, Note_off_c, 3, 57, 127
9, 300720, Note_on_c, 3, 57, 127
9, 300840, Note_off_c, 3, 62, 127
9, 300840, Note_on_c, 3, 62, 127
9, 300840, Note_off_c, 3, 57, 127
9, 300840, Note_on_c, 3, 57, 127
9, 300960, Note_off_c, 3, 62, 127
9, 300960, Note_on_c, 3, 62, 127
9, 300960, Note_off_c, 3, 57, 127
9, 300960, Note_on_c, 3, 57, 127
9, 301080, Note_off_c, 3, 62, 127
9, 301080, Note_on_c, 3, 62, 127
9, 301080, Note_off_c, 3, 57, 127
9, 301080, Note_on_c, 3, 57, 127
9, 301200, Note_off_c, 3, 62, 127
9, 301200, Note_on_c, 3, 62, 127
9, 301200, Note_off_c, 3, 57, 127
9, 301200, Note_on_c, 3, 57, 127
9, 301320, Note_off_c, 3, 62, 127
9, 301320, Note_on_c, 3, 62, 127
9, 301320, Note_off_c, 3, 57, 127
9, 301320, Note_on_c, 3, 57, 127
9, 301440, Note_off_c, 3, 62, 127
9, 301440, Note_on_c, 3, 62, 127
9, 301440, Note_off_c, 3, 57, 127
9, 301440, Note_on_c, 3, 57, 127
9, 301560, Note_off_c, 3, 62, 127
9, 301560, Note_on_c, 3, 62, 127
9, 301560, Note_off_c, 3, 57, 127
9, 301560, Note_on_c, 3, 57, 127
9, 301680, Note_off_c, 3, 62, 127
9, 301680, Note_on_c, 3, 62, 127
9, 301680, Note_off_c, 3, 57, 127
9, 301680, Note_on_c, 3, 57, 127
9, 301800, Note_off_c, 3, 62, 127
9, 301800, Note_on_c, 3, 62, 127
9, 301800, Note_off_c, 3, 57, 127
9, 301800, Note_on_c, 3, 57, 127
9, 301920, Note_off_c, 3, 62, 127
9, 301920, Note_on_c, 3, 62, 127
9, 301920, Note_off_c, 3, 57, 127
9, 301920, Note_on_c, 3, 57, 127
9, 302040, Note_off_c, 3, 62, 127
9, 302040, Note_on_c, 3, 62, 127
9, 302040, Note_off_c, 3, 57, 127
9, 302040, Note_on_c, 3, 57, 127
9, 302160, Note_off_c, 3, 62, 127
9, 302160, Note_on_c, 3, 62, 127
9, 302160, Note_off_c, 3, 57, 127
9, 302160, Note_on_c, 3, 57, 127
9, 302280, Note_off_c, 3, 62, 127
9, 302280, Note_on_c, 3, 62, 127
9, 302280, Note_off_c, 3, 57, 127
9, 302280, Note_on_c, 3, 57, 127
9, 302400, Note_off_c, 3, 62, 127
9, 302400, Note_on_c, 3, 62, 127
9, 302400, Note_off_c, 3, 57, 127
9, 302400, Note_on_c, 3, 57, 127
9, 302520, Note_off_c, 3, 62, 127
9, 302520, Note_on_c, 3, 62, 127
9, 302520, Note_off_c, 3, 57, 127
9, 302520, Note_on_c, 3, 57, 127
9, 302640, Note_off_c, 3, 62, 127
9, 302640, Note_on_c, 3, 62, 127
9, 302640, Note_off_c, 3, 57, 127
9, 302640, Note_on_c, 3, 57, 127
9, 302760, Note_off_c, 3, 62, 127
9, 302760, Note_on_c, 3, 62, 127
9, 302760, Note_off_c, 3, 57, 127
9, 302760, Note_on_c, 3, 57, 127
9, 302880, Note_off_c, 3, 62, 127
9, 302880, Note_on_c, 3, 62, 127
9, 302880, Note_off_c, 3, 57, 127
9, 302880, Note_on_c, 3, 57, 127
9, 303000, Note_off_c, 3, 62, 127
9, 303000, Note_on_c, 3, 62, 127
9, 303000, Note_off_c, 3, 57, 127
9, 303000, Note_on_c, 3, 57, 127
9, 303120, Note_off_c, 3, 62, 127
9, 303120, Note_on_c, 3, 62, 127
9, 303120, Note_off_c, 3, 57, 127
9, 303120, Note_on_c, 3, 57, 127
9, 303240, Note_off_c, 3, 62, 127
9, 303240, Note_on_c, 3, 62, 127
9, 303240, Note_off_c, 3, 57, 127
9, 303240, Note_on_c, 3, 57, 127
9, 303359, Note_off_c, 3, 62, 127
9, 303359, Note_off_c, 3, 57, 127
9, 303360, Note_on_c, 3, 62, 127
9, 303360, Note_on_c, 3, 57, 127
9, 303600, Note_off_c, 3, 62, 127
9, 303600, Note_off_c, 3, 57, 127
9, 303600, Note_on_c, 3, 63, 127
9, 303600, Note_on_c, 3, 58, 127
9, 303840, Note_off_c, 3, 63, 127
9, 303840, Note_off_c, 3, 58, 127
9, 305280, Note_on_c, 3, 63, 127
9, 305280, Note_on_c, 3, 58, 127
9, 305520, Note_off_c, 3, 63, 127
9, 305520, Note_off_c, 3, 58, 127
9, 305520, Note_on_c, 3, 62, 127
9, 305520, Note_on_c, 3, 57, 127
9, 305760, Note_off_c, 3, 62, 127
9, 305760, Note_off_c, 3, 57, 127
9, 306240, Note_on_c, 3, 62, 127
9, 306240, Note_on_c, 3, 57, 127
9, 306480, Note_off_c, 3, 62, 127
9, 306480, Note_off_c, 3, 57, 127
9, 306480, Note_on_c, 3, 63, 127
9, 306480, Note_on_c, 3, 58, 127
9, 306720, Note_off_c, 3, 63, 127
9, 306720, Note_off_c, 3, 58, 127
9, 307200, Note_on_c, 3, 67, 127
9, 307200, Note_on_c, 3, 62, 127
9, 307200, Note_on_c, 3, 55, 127
9, 307440, Note_off_c, 3, 67, 127
9, 307440, Note_off_c, 3, 62, 127
9, 307440, Note_off_c, 3, 55, 127
9, 307440, Note_on_c, 3, 68, 127
9, 307440, Note_on_c, 3, 63, 127
9, 307440, Note_on_c, 3, 56, 127
9, 307680, Note_off_c, 3, 68, 127
9, 307680, Note_off_c, 3, 63, 127
9, 307680, Note_off_c, 3, 56, 127
9, 311040, Note_on_c, 3, 68, 127
9, 311040, Note_on_c, 3, 63, 127
9, 311040, Note_on_c, 3, 56, 127
9, 311280, Note_off_c, 3, 68, 127
9, 311280, Note_off_c, 3, 63, 127
9, 311280, Note_off_c, 3, 56, 127
9, 311280, Note_on_c, 3, 67, 127
9, 311280, Note_on_c, 3, 62, 127
9, 311280, Note_on_c, 3, 55, 127
9, 311520, Note_off_c, 3, 67, 127
9, 311520, Note_off_c, 3, 62, 127
9, 311520, Note_off_c, 3, 55, 127
9, 312960, Note_on_c, 3, 67, 127
9, 312960, Note_on_c, 3, 62, 127
9, 312960, Note_on_c, 3, 55, 127
9, 313200, Note_off_c, 3, 67, 127
9, 313200, Note_off_c, 3, 62, 127
9, 313200, Note_off_c, 3, 55, 127
9, 313920, Note_on_c, 3, 68, 127
9, 313920, Note_on_c, 3, 63, 127
9, 313920, Note_on_c, 3, 56, 127
9, 314160, Note_off_c, 3, 68, 127
9, 314160, Note_off_c, 3, 63, 127
9, 314160, Note_off_c, 3, 56, 127
9, 314880, Note_on_c, 3, 62, 127
9, 314880, Note_on_c, 3, 57, 127
9, 315000, Note_off_c, 3, 62, 127
9, 315000, Note_on_c, 3, 62, 127
9, 315000, Note_off_c, 3, 57, 127
9, 315000, Note_on_c, 3, 57, 127
9, 315120, Note_off_c, 3, 62, 127
9, 315120, Note_on_c, 3, 62, 127
9, 315120, Note_off_c, 3, 57, 127
9, 315120, Note_on_c, 3, 57, 127
9, 315240, Note_off_c, 3, 62, 127
9, 315240, Note_on_c, 3, 62, 127
9, 315240, Note_off_c, 3, 57, 127
9, 315240, Note_on_c, 3, 57, 127
9, 315360, Note_off_c, 3, 62, 127
9, 315360, Note_on_c, 3, 62, 127
9, 315360, Note_off_c, 3, 57, 127
9, 315360, Note_on_c, 3, 57, 127
9, 315480, Note_off_c, 3, 62, 127
9, 315480, Note_on_c, 3, 62, 127
9, 315480, Note_off_c, 3, 57, 127
9, 315480, Note_on_c, 3, 57, 127
9, 315600, Note_off_c, 3, 62, 127
9, 315600, Note_on_c, 3, 62, 127
9, 315600, Note_off_c, 3, 57, 127
9, 315600, Note_on_c, 3, 57, 127
9, 315720, Note_off_c, 3, 62, 127
9, 315720, Note_on_c, 3, 62, 127
9, 315720, Note_off_c, 3, 57, 127
9, 315720, Note_on_c, 3, 57, 127
9, 315840, Note_off_c, 3, 62, 127
9, 315840, Note_on_c, 3, 62, 127
9, 315840, Note_off_c, 3, 57, 127
9, 315840, Note_on_c, 3, 57, 127
9, 315960, Note_off_c, 3, 62, 127
9, 315960, Note_on_c, 3, 62, 127
9, 315960, Note_off_c, 3, 57, 127
9, 315960, Note_on_c, 3, 57, 127
9, 316080, Note_off_c, 3, 62, 127
9, 316080, Note_on_c, 3, 62, 127
9, 316080, Note_off_c, 3, 57, 127
9, 316080, Note_on_c, 3, 57, 127
9, 316200, Note_off_c, 3, 62, 127
9, 316200, Note_on_c, 3, 62, 127
9, 316200, Note_off_c, 3, 57, 127
9, 316200, Note_on_c, 3, 57, 127
9, 316320, Note_off_c, 3, 62, 127
9, 316320, Note_on_c, 3, 62, 127
9, 316320, Note_off_c, 3, 57, 127
9, 316320, Note_on_c, 3, 57, 127
9, 316440, Note_off_c, 3, 62, 127
9, 316440, Note_on_c, 3, 62, 127
9, 316440, Note_off_c, 3, 57, 127
9, 316440, Note_on_c, 3, 57, 127
9, 316560, Note_off_c, 3, 62, 127
9, 316560, Note_on_c, 3, 62, 127
9, 316560, Note_off_c, 3, 57, 127
9, 316560, Note_on_c, 3, 57, 127
9, 316680, Note_off_c, 3, 62, 127
9, 316680, Note_on_c, 3, 62, 127
9, 316680, Note_off_c, 3, 57, 127
9, 316680, Note_on_c, 3, 57, 127
9, 316800, Note_off_c, 3, 62, 127
9, 316800, Note_on_c, 3, 62, 127
9, 316800, Note_off_c, 3, 57, 127
9, 316800, Note_on_c, 3, 57, 127
9, 316920, Note_off_c, 3, 62, 127
9, 316920, Note_on_c, 3, 62, 127
9, 316920, Note_off_c, 3, 57, 127
9, 316920, Note_on_c, 3, 57, 127
9, 317040, Note_off_c, 3, 62, 127
9, 317040, Note_on_c, 3, 62, 127
9, 317040, Note_off_c, 3, 57, 127
9, 317040, Note_on_c, 3, 57, 127
9, 317160, Note_off_c, 3, 62, 127
9, 317160, Note_on_c, 3, 62, 127
9, 317160, Note_off_c, 3, 57, 127
9, 317160, Note_on_c, 3, 57, 127
9, 317280, Note_off_c, 3, 62, 127
9, 317280, Note_on_c, 3, 62, 127
9, 317280, Note_off_c, 3, 57, 127
9, 317280, Note_on_c, 3, 57, 127
9, 317400, Note_off_c, 3, 62, 127
9, 317400, Note_on_c, 3, 62, 127
9, 317400, Note_off_c, 3, 57, 127
9, 317400, Note_on_c, 3, 57, 127
9, 317520, Note_off_c, 3, 62, 127
9, 317520, Note_on_c, 3, 62, 127
9, 317520, Note_off_c, 3, 57, 127
9, 317520, Note_on_c, 3, 57, 127
9, 317640, Note_off_c, 3, 62, 127
9, 317640, Note_on_c, 3, 62, 127
9, 317640, Note_off_c, 3, 57, 127
9, 317640, Note_on_c, 3, 57, 127
9, 317760, Note_off_c, 3, 62, 127
9, 317760, Note_on_c, 3, 62, 127
9, 317760, Note_off_c, 3, 57, 127
9, 317760, Note_on_c, 3, 57, 127
9, 317880, Note_off_c, 3, 62, 127
9, 317880, Note_on_c, 3, 62, 127
9, 317880, Note_off_c, 3, 57, 127
9, 317880, Note_on_c, 3, 57, 127
9, 318000, Note_off_c, 3, 62, 127
9, 318000, Note_on_c, 3, 62, 127
9, 318000, Note_off_c, 3, 57, 127
9, 318000, Note_on_c, 3, 57, 127
9, 318120, Note_off_c, 3, 62, 127
9, 318120, Note_on_c, 3, 62, 127
9, 318120, Note_off_c, 3, 57, 127
9, 318120, Note_on_c, 3, 57, 127
9, 318240, Note_off_c, 3, 62, 127
9, 318240, Note_on_c, 3, 62, 127
9, 318240, Note_off_c, 3, 57, 127
9, 318240, Note_on_c, 3, 57, 127
9, 318360, Note_off_c, 3, 62, 127
9, 318360, Note_on_c, 3, 62, 127
9, 318360, Note_off_c, 3, 57, 127
9, 318360, Note_on_c, 3, 57, 127
9, 318480, Note_off_c, 3, 62, 127
9, 318480, Note_on_c, 3, 62, 127
9, 318480, Note_off_c, 3, 57, 127
9, 318480, Note_on_c, 3, 57, 127
9, 318600, Note_off_c, 3, 62, 127
9, 318600, Note_on_c, 3, 62, 127
9, 318600, Note_off_c, 3, 57, 127
9, 318600, Note_on_c, 3, 57, 127
9, 318719, Note_off_c, 3, 62, 127
9, 318719, Note_off_c, 3, 57, 127
9, 318720, Note_on_c, 3, 62, 127
9, 318720, Note_on_c, 3, 57, 127
9, 318960, Note_off_c, 3, 62, 127
9, 318960, Note_off_c, 3, 57, 127
9, 318960, Note_on_c, 3, 63, 127
9, 318960, Note_on_c, 3, 58, 127
9, 319200, Note_off_c, 3, 63, 127
9, 319200, Note_off_c, 3, 58, 127
9, 320640, Note_on_c, 3, 63, 127
9, 320640, Note_on_c, 3, 58, 127
9, 320880, Note_off_c, 3, 63, 127
9, 320880, Note_off_c, 3, 58, 127
9, 320880, Note_on_c, 3, 62, 127
9, 320880, Note_on_c, 3, 57, 127
9, 321120, Note_off_c, 3, 62, 127
9, 321120, Note_off_c, 3, 57, 127
9, 321600, Note_on_c, 3, 62, 127
9, 321600, Note_on_c, 3, 57, 127
9, 321840, Note_off_c, 3, 62, 127
9, 321840, Note_off_c, 3, 57, 127
9, 321840, Note_on_c, 3, 63, 127
9, 321840, Note_on_c, 3, 58, 127
9, 322080, Note_off_c, 3, 63, 127
9, 322080, Note_off_c, 3, 58, 127
9, 322560, Note_on_c, 3, 67, 127
9, 322560, Note_on_c, 3, 62, 127
9, 322560, Note_on_c, 3, 55, 127
9, 322800, Note_off_c, 3, 67, 127
9, 322800, Note_off_c, 3, 62, 127
9, 322800, Note_off_c, 3, 55, 127
9, 322800, Note_on_c, 3, 68, 127
9, 322800, Note_on_c, 3, 63, 127
9, 322800, Note_on_c, 3, 56, 127
9, 323040, Note_off_c, 3, 68, 127
9, 323040, Note_off_c, 3, 63, 127
9, 323040, Note_off_c, 3, 56, 127
9, 326400, Note_on_c, 3, 68, 127
9, 326400, Note_on_c, 3, 63, 127
9, 326400, Note_on_c, 3, 56, 127
9, 326640, Note_off_c, 3, 68, 127
9, 326640, Note_off_c, 3, 63, 127
9, 326640, Note_off_c, 3, 56, 127
9, 326640, Note_on_c, 3, 67, 127
9, 326640, Note_on_c, 3, 62, 127
9, 326640, Note_on_c, 3, 55, 127
9, 326880, Note_off_c, 3, 67, 127
9, 326880, Note_off_c, 3, 62, 127
9, 326880, Note_off_c, 3, 55, 127
9, 328320, Note_on_c, 3, 67, 127
9, 328320, Note_on_c, 3, 62, 127
9, 328320, Note_on_c, 3, 55, 127
9, 328560, Note_off_c, 3, 67, 127
9, 328560, Note_off_c, 3, 62, 127
9, 328560, Note_off_c, 3, 55, 127
9, 329280, Note_on_c, 3, 68, 127
9, 329280, Note_on_c, 3, 63, 127
9, 329280, Note_on_c, 3, 56, 127
9, 329520, Note_off_c, 3, 68, 127
9, 329520, Note_off_c, 3, 63, 127
9, 329520, Note_off_c, 3, 56, 127
9, 330240, Note_on_c, 3, 62, 127
9, 330240, Note_on_c, 3, 57, 127
9, 330360, Note_off_c, 3, 62, 127
9, 330360, Note_on_c, 3, 62, 127
9, 330360, Note_off_c, 3, 57, 127
9, 330360, Note_on_c, 3, 57, 127
9, 330480, Note_off_c, 3, 62, 127
9, 330480, Note_on_c, 3, 62, 127
9, 330480, Note_off_c, 3, 57, 127
9, 330480, Note_on_c, 3, 57, 127
9, 330600, Note_off_c, 3, 62, 127
9, 330600, Note_on_c, 3, 62, 127
9, 330600, Note_off_c, 3, 57, 127
9, 330600, Note_on_c, 3, 57, 127
9, 330720, Note_off_c, 3, 62, 127
9, 330720, Note_on_c, 3, 62, 127
9, 330720, Note_off_c, 3, 57, 127
9, 330720, Note_on_c, 3, 57, 127
9, 330840, Note_off_c, 3, 62, 127
9, 330840, Note_on_c, 3, 62, 127
9, 330840, Note_off_c, 3, 57, 127
9, 330840, Note_on_c, 3, 57, 127
9, 330960, Note_off_c, 3, 62, 127
9, 330960, Note_on_c, 3, 62, 127
9, 330960, Note_off_c, 3, 57, 127
9, 330960, Note_on_c, 3, 57, 127
9, 331080, Note_off_c, 3, 62, 127
9, 331080, Note_on_c, 3, 62, 127
9, 331080, Note_off_c, 3, 57, 127
9, 331080, Note_on_c, 3, 57, 127
9, 331200, Note_off_c, 3, 62, 127
9, 331200, Note_on_c, 3, 62, 127
9, 331200, Note_off_c, 3, 57, 127
9, 331200, Note_on_c, 3, 57, 127
9, 331320, Note_off_c, 3, 62, 127
9, 331320, Note_on_c, 3, 62, 127
9, 331320, Note_off_c, 3, 57, 127
9, 331320, Note_on_c, 3, 57, 127
9, 331440, Note_off_c, 3, 62, 127
9, 331440, Note_on_c, 3, 62, 127
9, 331440, Note_off_c, 3, 57, 127
9, 331440, Note_on_c, 3, 57, 127
9, 331560, Note_off_c, 3, 62, 127
9, 331560, Note_on_c, 3, 62, 127
9, 331560, Note_off_c, 3, 57, 127
9, 331560, Note_on_c, 3, 57, 127
9, 331680, Note_off_c, 3, 62, 127
9, 331680, Note_on_c, 3, 62, 127
9, 331680, Note_off_c, 3, 57, 127
9, 331680, Note_on_c, 3, 57, 127
9, 331800, Note_off_c, 3, 62, 127
9, 331800, Note_on_c, 3, 62, 127
9, 331800, Note_off_c, 3, 57, 127
9, 331800, Note_on_c, 3, 57, 127
9, 331920, Note_off_c, 3, 62, 127
9, 331920, Note_on_c, 3, 62, 127
9, 331920, Note_off_c, 3, 57, 127
9, 331920, Note_on_c, 3, 57, 127
9, 332040, Note_off_c, 3, 62, 127
9, 332040, Note_on_c, 3, 62, 127
9, 332040, Note_off_c, 3, 57, 127
9, 332040, Note_on_c, 3, 57, 127
9, 332160, Note_off_c, 3, 62, 127
9, 332160, Note_on_c, 3, 62, 127
9, 332160, Note_off_c, 3, 57, 127
9, 332160, Note_on_c, 3, 57, 127
9, 332280, Note_off_c, 3, 62, 127
9, 332280, Note_on_c, 3, 62, 127
9, 332280, Note_off_c, 3, 57, 127
9, 332280, Note_on_c, 3, 57, 127
9, 332400, Note_off_c, 3, 62, 127
9, 332400, Note_on_c, 3, 62, 127
9, 332400, Note_off_c, 3, 57, 127
9, 332400, Note_on_c, 3, 57, 127
9, 332520, Note_off_c, 3, 62, 127
9, 332520, Note_on_c, 3, 62, 127
9, 332520, Note_off_c, 3, 57, 127
9, 332520, Note_on_c, 3, 57, 127
9, 332640, Note_off_c, 3, 62, 127
9, 332640, Note_on_c, 3, 62, 127
9, 332640, Note_off_c, 3, 57, 127
9, 332640, Note_on_c, 3, 57, 127
9, 332760, Note_off_c, 3, 62, 127
9, 332760, Note_on_c, 3, 62, 127
9, 332760, Note_off_c, 3, 57, 127
9, 332760, Note_on_c, 3, 57, 127
9, 332880, Note_off_c, 3, 62, 127
9, 332880, Note_on_c, 3, 62, 127
9, 332880, Note_off_c, 3, 57, 127
9, 332880, Note_on_c, 3, 57, 127
9, 333000, Note_off_c, 3, 62, 127
9, 333000, Note_on_c, 3, 62, 127
9, 333000, Note_off_c, 3, 57, 127
9, 333000, Note_on_c, 3, 57, 127
9, 333120, Note_off_c, 3, 62, 127
9, 333120, Note_on_c, 3, 62, 127
9, 333120, Note_off_c, 3, 57, 127
9, 333120, Note_on_c, 3, 57, 127
9, 333240, Note_off_c, 3, 62, 127
9, 333240, Note_on_c, 3, 62, 127
9, 333240, Note_off_c, 3, 57, 127
9, 333240, Note_on_c, 3, 57, 127
9, 333360, Note_off_c, 3, 62, 127
9, 333360, Note_on_c, 3, 62, 127
9, 333360, Note_off_c, 3, 57, 127
9, 333360, Note_on_c, 3, 57, 127
9, 333480, Note_off_c, 3, 62, 127
9, 333480, Note_on_c, 3, 62, 127
9, 333480, Note_off_c, 3, 57, 127
9, 333480, Note_on_c, 3, 57, 127
9, 333600, Note_off_c, 3, 62, 127
9, 333600, Note_on_c, 3, 62, 127
9, 333600, Note_off_c, 3, 57, 127
9, 333600, Note_on_c, 3, 57, 127
9, 333720, Note_off_c, 3, 62, 127
9, 333720, Note_on_c, 3, 62, 127
9, 333720, Note_off_c, 3, 57, 127
9, 333720, Note_on_c, 3, 57, 127
9, 333840, Note_off_c, 3, 62, 127
9, 333840, Note_on_c, 3, 62, 127
9, 333840, Note_off_c, 3, 57, 127
9, 333840, Note_on_c, 3, 57, 127
9, 333960, Note_off_c, 3, 62, 127
9, 333960, Note_on_c, 3, 62, 127
9, 333960, Note_off_c, 3, 57, 127
9, 333960, Note_on_c, 3, 57, 127
9, 334079, Note_off_c, 3, 62, 127
9, 334079, Note_off_c, 3, 57, 127
9, 334080, Note_on_c, 3, 62, 127
9, 334080, Note_on_c, 3, 57, 127
9, 334320, Note_off_c, 3, 62, 127
9, 334320, Note_off_c, 3, 57, 127
9, 334320, Note_on_c, 3, 63, 127
9, 334320, Note_on_c, 3, 58, 127
9, 334560, Note_off_c, 3, 63, 127
9, 334560, Note_off_c, 3, 58, 127
9, 336000, Note_on_c, 3, 63, 127
9, 336000, Note_on_c, 3, 58, 127
9, 336240, Note_off_c, 3, 63, 127
9, 336240, Note_off_c, 3, 58, 127
9, 336240, Note_on_c, 3, 62, 127
9, 336240, Note_on_c, 3, 57, 127
9, 336480, Note_off_c, 3, 62, 127
9, 336480, Note_off_c, 3, 57, 127
9, 336960, Note_on_c, 3, 62, 127
9, 336960, Note_on_c, 3, 57, 127
9, 337200, Note_off_c, 3, 62, 127
9, 337200, Note_off_c, 3, 57, 127
9, 337200, Note_on_c, 3, 63, 127
9, 337200, Note_on_c, 3, 58, 127
9, 337440, Note_off_c, 3, 63, 127
9, 337440, Note_off_c, 3, 58, 127
9, 337920, Note_on_c, 3, 67, 127
9, 337920, Note_on_c, 3, 62, 127
9, 337920, Note_on_c, 3, 55, 127
9, 338160, Note_off_c, 3, 67, 127
9, 338160, Note_off_c, 3, 62, 127
9, 338160, Note_off_c, 3, 55, 127
9, 338160, Note_on_c, 3, 68, 127
9, 338160, Note_on_c, 3, 63, 127
9, 338160, Note_on_c, 3, 56, 127
9, 338400, Note_off_c, 3, 68, 127
9, 338400, Note_off_c, 3, 63, 127
9, 338400, Note_off_c, 3, 56, 127
9, 341760, Note_on_c, 3, 68, 127
9, 341760, Note_on_c, 3, 63, 127
9, 341760, Note_on_c, 3, 56, 127
9, 342000, Note_off_c, 3, 68, 127
9, 342000, Note_off_c, 3, 63, 127
9, 342000, Note_off_c, 3, 56, 127
9, 342000, Note_on_c, 3, 67, 127
9, 342000, Note_on_c, 3, 62, 127
9, 342000, Note_on_c, 3, 55, 127
9, 342240, Note_off_c, 3, 67, 127
9, 342240, Note_off_c, 3, 62, 127
9, 342240, Note_off_c, 3, 55, 127
9, 343680, Note_on_c, 3, 67, 127
9, 343680, Note_on_c, 3, 62, 127
9, 343680, Note_on_c, 3, 55, 127
9, 343920, Note_off_c, 3, 67, 127
9, 343920, Note_off_c, 3, 62, 127
9, 343920, Note_off_c, 3, 55, 127
9, 344640, Note_on_c, 3, 68, 127
9, 344640, Note_on_c, 3, 63, 127
9, 344640, Note_on_c, 3, 56, 127
9, 344880, Note_off_c, 3, 68, 127
9, 344880, Note_off_c, 3, 63, 127
9, 344880, Note_off_c, 3, 56, 127
9, 345600, Note_on_c, 3, 62, 127
9, 345600, Note_on_c, 3, 57, 127
9, 345720, Note_off_c, 3, 62, 127
9, 345720, Note_on_c, 3, 62, 127
9, 345720, Note_off_c, 3, 57, 127
9, 345720, Note_on_c, 3, 57, 127
9, 345840, Note_off_c, 3, 62, 127
9, 345840, Note_on_c, 3, 62, 127
9, 345840, Note_off_c, 3, 57, 127
9, 345840, Note_on_c, 3, 57, 127
9, 345960, Note_off_c, 3, 62, 127
9, 345960, Note_on_c, 3, 62, 127
9, 345960, Note_off_c, 3, 57, 127
9, 345960, Note_on_c, 3, 57, 127
9, 346080, Note_off_c, 3, 62, 127
9, 346080, Note_on_c, 3, 62, 127
9, 346080, Note_off_c, 3, 57, 127
9, 346080, Note_on_c, 3, 57, 127
9, 346200, Note_off_c, 3, 62, 127
9, 346200, Note_on_c, 3, 62, 127
9, 346200, Note_off_c, 3, 57, 127
9, 346200, Note_on_c, 3, 57, 127
9, 346320, Note_off_c, 3, 62, 127
9, 346320, Note_on_c, 3, 62, 127
9, 346320, Note_off_c, 3, 57, 127
9, 346320, Note_on_c, 3, 57, 127
9, 346440, Note_off_c, 3, 62, 127
9, 346440, Note_on_c, 3, 62, 127
9, 346440, Note_off_c, 3, 57, 127
9, 346440, Note_on_c, 3, 57, 127
9, 346560, Note_off_c, 3, 62, 127
9, 346560, Note_on_c, 3, 62, 127
9, 346560, Note_off_c, 3, 57, 127
9, 346560, Note_on_c, 3, 57, 127
9, 346680, Note_off_c, 3, 62, 127
9, 346680, Note_on_c, 3, 62, 127
9, 346680, Note_off_c, 3, 57, 127
9, 346680, Note_on_c, 3, 57, 127
9, 346800, Note_off_c, 3, 62, 127
9, 346800, Note_on_c, 3, 62, 127
9, 346800, Note_off_c, 3, 57, 127
9, 346800, Note_on_c, 3, 57, 127
9, 346920, Note_off_c, 3, 62, 127
9, 346920, Note_on_c, 3, 62, 127
9, 346920, Note_off_c, 3, 57, 127
9, 346920, Note_on_c, 3, 57, 127
9, 347040, Note_off_c, 3, 62, 127
9, 347040, Note_on_c, 3, 62, 127
9, 347040, Note_off_c, 3, 57, 127
9, 347040, Note_on_c, 3, 57, 127
9, 347160, Note_off_c, 3, 62, 127
9, 347160, Note_on_c, 3, 62, 127
9, 347160, Note_off_c, 3, 57, 127
9, 347160, Note_on_c, 3, 57, 127
9, 347280, Note_off_c, 3, 62, 127
9, 347280, Note_on_c, 3, 62, 127
9, 347280, Note_off_c, 3, 57, 127
9, 347280, Note_on_c, 3, 57, 127
9, 347400, Note_off_c, 3, 62, 127
9, 347400, Note_on_c, 3, 62, 127
9, 347400, Note_off_c, 3, 57, 127
9, 347400, Note_on_c, 3, 57, 127
9, 347520, Note_off_c, 3, 62, 127
9, 347520, Note_on_c, 3, 62, 127
9, 347520, Note_off_c, 3, 57, 127
9, 347520, Note_on_c, 3, 57, 127
9, 347640, Note_off_c, 3, 62, 127
9, 347640, Note_on_c, 3, 62, 127
9, 347640, Note_off_c, 3, 57, 127
9, 347640, Note_on_c, 3, 57, 127
9, 347760, Note_off_c, 3, 62, 127
9, 347760, Note_on_c, 3, 62, 127
9, 347760, Note_off_c, 3, 57, 127
9, 347760, Note_on_c, 3, 57, 127
9, 347880, Note_off_c, 3, 62, 127
9, 347880, Note_on_c, 3, 62, 127
9, 347880, Note_off_c, 3, 57, 127
9, 347880, Note_on_c, 3, 57, 127
9, 348000, Note_off_c, 3, 62, 127
9, 348000, Note_on_c, 3, 62, 127
9, 348000, Note_off_c, 3, 57, 127
9, 348000, Note_on_c, 3, 57, 127
9, 348120, Note_off_c, 3, 62, 127
9, 348120, Note_on_c, 3, 62, 127
9, 348120, Note_off_c, 3, 57, 127
9, 348120, Note_on_c, 3, 57, 127
9, 348240, Note_off_c, 3, 62, 127
9, 348240, Note_on_c, 3, 62, 127
9, 348240, Note_off_c, 3, 57, 127
9, 348240, Note_on_c, 3, 57, 127
9, 348360, Note_off_c, 3, 62, 127
9, 348360, Note_on_c, 3, 62, 127
9, 348360, Note_off_c, 3, 57, 127
9, 348360, Note_on_c, 3, 57, 127
9, 348480, Note_off_c, 3, 62, 127
9, 348480, Note_on_c, 3, 62, 127
9, 348480, Note_off_c, 3, 57, 127
9, 348480, Note_on_c, 3, 57, 127
9, 348600, Note_off_c, 3, 62, 127
9, 348600, Note_on_c, 3, 62, 127
9, 348600, Note_off_c, 3, 57, 127
9, 348600, Note_on_c, 3, 57, 127
9, 348720, Note_off_c, 3, 62, 127
9, 348720, Note_on_c, 3, 62, 127
9, 348720, Note_off_c, 3, 57, 127
9, 348720, Note_on_c, 3, 57, 127
9, 348840, Note_off_c, 3, 62, 127
9, 348840, Note_on_c, 3, 62, 127
9, 348840, Note_off_c, 3, 57, 127
9, 348840, Note_on_c, 3, 57, 127
9, 348960, Note_off_c, 3, 62, 127
9, 348960, Note_on_c, 3, 62, 127
9, 348960, Note_off_c, 3, 57, 127
9, 348960, Note_on_c, 3, 57, 127
9, 349080, Note_off_c, 3, 62, 127
9, 349080, Note_on_c, 3, 62, 127
9, 349080, Note_off_c, 3, 57, 127
9, 349080, Note_on_c, 3, 57, 127
9, 349200, Note_off_c, 3, 62, 127
9, 349200, Note_on_c, 3, 62, 127
9, 349200, Note_off_c, 3, 57, 127
9, 349200, Note_on_c, 3, 57, 127
9, 349320, Note_off_c, 3, 62, 127
9, 349320, Note_on_c, 3, 62, 127
9, 349320, Note_off_c, 3, 57, 127
9, 349320, Note_on_c, 3, 57, 127
9, 349439, Note_off_c, 3, 62, 127
9, 349439, Note_off_c, 3, 57, 127
9, 349440, Note_on_c, 3, 62, 127
9, 349440, Note_on_c, 3, 57, 127
9, 349680, Note_off_c, 3, 62, 127
9, 349680, Note_off_c, 3, 57, 127
9, 349680, Note_on_c, 3, 63, 127
9, 349680, Note_on_c, 3, 58, 127
9, 349920, Note_off_c, 3, 63, 127
9, 349920, Note_off_c, 3, 58, 127
9, 351360, Note_on_c, 3, 63, 127
9, 351360, Note_on_c, 3, 58, 127
9, 351600, Note_off_c, 3, 63, 127
9, 351600, Note_off_c, 3, 58, 127
9, 351600, Note_on_c, 3, 62, 127
9, 351600, Note_on_c, 3, 57, 127
9, 351840, Note_off_c, 3, 62, 127
9, 351840, Note_off_c, 3, 57, 127
9, 352320, Note_on_c, 3, 62, 127
9, 352320, Note_on_c, 3, 57, 127
9, 352560, Note_off_c, 3, 62, 127
9, 352560, Note_off_c, 3, 57, 127
9, 352560, Note_on_c, 3, 63, 127
9, 352560, Note_on_c, 3, 58, 127
9, 352800, Note_off_c, 3, 63, 127
9, 352800, Note_off_c, 3, 58, 127
9, 353280, Note_on_c, 3, 67, 127
9, 353280, Note_on_c, 3, 62, 127
9, 353280, Note_on_c, 3, 55, 127
9, 353520, Note_off_c, 3, 67, 127
9, 353520, Note_off_c, 3, 62, 127
9, 353520, Note_off_c, 3, 55, 127
9, 353520, Note_on_c, 3, 68, 127
9, 353520, Note_on_c, 3, 63, 127
9, 353520, Note_on_c, 3, 56, 127
9, 353760, Note_off_c, 3, 68, 127
9, 353760, Note_off_c, 3, 63, 127
9, 353760, Note_off_c, 3, 56, 127
9, 357120, Note_on_c, 3, 68, 127
9, 357120, Note_on_c, 3, 63, 127
9, 357120, Note_on_c, 3, 56, 127
9, 357360, Note_off_c, 3, 68, 127
9, 357360, Note_off_c, 3, 63, 127
9, 357360, Note_off_c, 3, 56, 127
9, 357360, Note_on_c, 3, 67, 127
9, 357360, Note_on_c, 3, 62, 127
9, 357360, Note_on_c, 3, 55, 127
9, 357600, Note_off_c, 3, 67, 127
9, 357600, Note_off_c, 3, 62, 127
9, 357600, Note_off_c, 3, 55, 127
9, 359040, Note_on_c, 3, 67, 127
9, 359040, Note_on_c, 3, 62, 127
9, 359040, Note_on_c, 3, 55, 127
9, 359280, Note_off_c, 3, 67, 127
9, 359280, Note_off_c, 3, 62, 127
9, 359280, Note_off_c, 3, 55, 127
9, 360000, Note_on_c, 3, 68, 127
9, 360000, Note_on_c, 3, 63, 127
9, 360000, Note_on_c, 3, 56, 127
9, 360240, Note_off_c, 3, 68, 127
9, 360240, Note_off_c, 3, 63, 127
9, 360240, Note_off_c, 3, 56, 127
9, 360960, Note_on_c, 3, 62, 127
9, 360960, Note_on_c, 3, 57, 127
9, 361080, Note_off_c, 3, 62, 127
9, 361080, Note_on_c, 3, 62, 127
9, 361080, Note_off_c, 3, 57, 127
9, 361080, Note_on_c, 3, 57, 127
9, 361200, Note_off_c, 3, 62, 127
9, 361200, Note_on_c, 3, 62, 127
9, 361200, Note_off_c, 3, 57, 127
9, 361200, Note_on_c, 3, 57, 127
9, 361320, Note_off_c, 3, 62, 127
9, 361320, Note_on_c, 3, 62, 127
9, 361320, Note_off_c, 3, 57, 127
9, 361320, Note_on_c, 3, 57, 127
9, 361440, Note_off_c, 3, 62, 127
9, 361440, Note_on_c, 3, 62, 127
9, 361440, Note_off_c, 3, 57, 127
9, 361440, Note_on_c, 3, 57, 127
9, 361560, Note_off_c, 3, 62, 127
9, 361560, Note_on_c, 3, 62, 127
9, 361560, Note_off_c, 3, 57, 127
9, 361560, Note_on_c, 3, 57, 127
9, 361680, Note_off_c, 3, 62, 127
9, 361680, Note_on_c, 3, 62, 127
9, 361680, Note_off_c, 3, 57, 127
9, 361680, Note_on_c, 3, 57, 127
9, 361800, Note_off_c, 3, 62, 127
9, 361800, Note_on_c, 3, 62, 127
9, 361800, Note_off_c, 3, 57, 127
9, 361800, Note_on_c, 3, 57, 127
9, 361920, Note_off_c, 3, 62, 127
9, 361920, Note_on_c, 3, 62, 127
9, 361920, Note_off_c, 3, 57, 127
9, 361920, Note_on_c, 3, 57, 127
9, 362040, Note_off_c, 3, 62, 127
9, 362040, Note_on_c, 3, 62, 127
9, 362040, Note_off_c, 3, 57, 127
9, 362040, Note_on_c, 3, 57, 127
9, 362160, Note_off_c, 3, 62, 127
9, 362160, Note_on_c, 3, 62, 127
9, 362160, Note_off_c, 3, 57, 127
9, 362160, Note_on_c, 3, 57, 127
9, 362280, Note_off_c, 3, 62, 127
9, 362280, Note_on_c, 3, 62, 127
9, 362280, Note_off_c, 3, 57, 127
9, 362280, Note_on_c, 3, 57, 127
9, 362400, Note_off_c, 3, 62, 127
9, 362400, Note_on_c, 3, 62, 127
9, 362400, Note_off_c, 3, 57, 127
9, 362400, Note_on_c, 3, 57, 127
9, 362520, Note_off_c, 3, 62, 127
9, 362520, Note_on_c, 3, 62, 127
9, 362520, Note_off_c, 3, 57, 127
9, 362520, Note_on_c, 3, 57, 127
9, 362640, Note_off_c, 3, 62, 127
9, 362640, Note_on_c, 3, 62, 127
9, 362640, Note_off_c, 3, 57, 127
9, 362640, Note_on_c, 3, 57, 127
9, 362760, Note_off_c, 3, 62, 127
9, 362760, Note_on_c, 3, 62, 127
9, 362760, Note_off_c, 3, 57, 127
9, 362760, Note_on_c, 3, 57, 127
9, 362880, Note_off_c, 3, 62, 127
9, 362880, Note_on_c, 3, 62, 127
9, 362880, Note_off_c, 3, 57, 127
9, 362880, Note_on_c, 3, 57, 127
9, 363000, Note_off_c, 3, 62, 127
9, 363000, Note_on_c, 3, 62, 127
9, 363000, Note_off_c, 3, 57, 127
9, 363000, Note_on_c, 3, 57, 127
9, 363120, Note_off_c, 3, 62, 127
9, 363120, Note_on_c, 3, 62, 127
9, 363120, Note_off_c, 3, 57, 127
9, 363120, Note_on_c, 3, 57, 127
9, 363240, Note_off_c, 3, 62, 127
9, 363240, Note_on_c, 3, 62, 127
9, 363240, Note_off_c, 3, 57, 127
9, 363240, Note_on_c, 3, 57, 127
9, 363360, Note_off_c, 3, 62, 127
9, 363360, Note_on_c, 3, 62, 127
9, 363360, Note_off_c, 3, 57, 127
9, 363360, Note_on_c, 3, 57, 127
9, 363480, Note_off_c, 3, 62, 127
9, 363480, Note_on_c, 3, 62, 127
9, 363480, Note_off_c, 3, 57, 127
9, 363480, Note_on_c, 3, 57, 127
9, 363600, Note_off_c, 3, 62, 127
9, 363600, Note_on_c, 3, 62, 127
9, 363600, Note_off_c, 3, 57, 127
9, 363600, Note_on_c, 3, 57, 127
9, 363720, Note_off_c, 3, 62, 127
9, 363720, Note_on_c, 3, 62, 127
9, 363720, Note_off_c, 3, 57, 127
9, 363720, Note_on_c, 3, 57, 127
9, 363840, Note_off_c, 3, 62, 127
9, 363840, Note_on_c, 3, 62, 127
9, 363840, Note_off_c, 3, 57, 127
9, 363840, Note_on_c, 3, 57, 127
9, 363960, Note_off_c, 3, 62, 127
9, 363960, Note_on_c, 3, 62, 127
9, 363960, Note_off_c, 3, 57, 127
9, 363960, Note_on_c, 3, 57, 127
9, 364080, Note_off_c, 3, 62, 127
9, 364080, Note_on_c, 3, 62, 127
9, 364080, Note_off_c, 3, 57, 127
9, 364080, Note_on_c, 3, 57, 127
9, 364200, Note_off_c, 3, 62, 127
9, 364200, Note_on_c, 3, 62, 127
9, 364200, Note_off_c, 3, 57, 127
9, 364200, Note_on_c, 3, 57, 127
9, 364320, Note_off_c, 3, 62, 127
9, 364320, Note_on_c, 3, 62, 127
9, 364320, Note_off_c, 3, 57, 127
9, 364320, Note_on_c, 3, 57, 127
9, 364440, Note_off_c, 3, 62, 127
9, 364440, Note_on_c, 3, 62, 127
9, 364440, Note_off_c, 3, 57, 127
9, 364440, Note_on_c, 3, 57, 127
9, 364560, Note_off_c, 3, 62, 127
9, 364560, Note_on_c, 3, 62, 127
9, 364560, Note_off_c, 3, 57, 127
9, 364560, Note_on_c, 3, 57, 127
9, 364680, Note_off_c, 3, 62, 127
9, 364680, Note_on_c, 3, 62, 127
9, 364680, Note_off_c, 3, 57, 127
9, 364680, Note_on_c, 3, 57, 127
9, 364799, Note_off_c, 3, 62, 127
9, 364799, Note_off_c, 3, 57, 127
9, 364800, Note_on_c, 3, 62, 127
9, 364800, Note_on_c, 3, 57, 127
9, 365040, Note_off_c, 3, 62, 127
9, 365040, Note_off_c, 3, 57, 127
9, 365040, Note_on_c, 3, 63, 127
9, 365040, Note_on_c, 3, 58, 127
9, 365280, Note_off_c, 3, 63, 127
9, 365280, Note_off_c, 3, 58, 127
9, 366720, Note_on_c, 3, 63, 127
9, 366720, Note_on_c, 3, 58, 127
9, 366960, Note_off_c, 3, 63, 127
9, 366960, Note_off_c, 3, 58, 127
9, 366960, Note_on_c, 3, 62, 127
9, 366960, Note_on_c, 3, 57, 127
9, 367200, Note_off_c, 3, 62, 127
9, 367200, Note_off_c, 3, 57, 127
9, 367680, Note_on_c, 3, 62, 127
9, 367680, Note_on_c, 3, 57, 127
9, 367920, Note_off_c, 3, 62, 127
9, 367920, Note_off_c, 3, 57, 127
9, 367920, Note_on_c, 3, 63, 127
9, 367920, Note_on_c, 3, 58, 127
9, 368160, Note_off_c, 3, 63, 127
9, 368160, Note_off_c, 3, 58, 127
9, 368640, Note_on_c, 3, 67, 127
9, 368640, Note_on_c, 3, 62, 127
9, 368640, Note_on_c, 3, 55, 127
9, 368880, Note_off_c, 3, 67, 127
9, 368880, Note_off_c, 3, 62, 127
9, 368880, Note_off_c, 3, 55, 127
9, 368880, Note_on_c, 3, 68, 127
9, 368880, Note_on_c, 3, 63, 127
9, 368880, Note_on_c, 3, 56, 127
9, 369120, Note_off_c, 3, 68, 127
9, 369120, Note_off_c, 3, 63, 127
9, 369120, Note_off_c, 3, 56, 127
9, 372480, Note_on_c, 3, 68, 127
9, 372480, Note_on_c, 3, 63, 127
9, 372480, Note_on_c, 3, 56, 127
9, 372720, Note_off_c, 3, 68, 127
9, 372720, Note_off_c, 3, 63, 127
9, 372720, Note_off_c, 3, 56, 127
9, 372720, Note_on_c, 3, 67, 127
9, 372720, Note_on_c, 3, 62, 127
9, 372720, Note_on_c, 3, 55, 127
9, 372960, Note_off_c, 3, 67, 127
9, 372960, Note_off_c, 3, 62, 127
9, 372960, Note_off_c, 3, 55, 127
9, 374400, Note_on_c, 3, 67, 127
9, 374400, Note_on_c, 3, 62, 127
9, 374400, Note_on_c, 3, 55, 127
9, 374640, Note_off_c, 3, 67, 127
9, 374640, Note_off_c, 3, 62, 127
9, 374640, Note_off_c, 3, 55, 127
9, 375360, Note_on_c, 3, 68, 127
9, 375360, Note_on_c, 3, 63, 127
9, 375360, Note_on_c, 3, 56, 127
9, 375600, Note_off_c, 3, 68, 127
9, 375600, Note_off_c, 3, 63, 127
9, 375600, Note_off_c, 3, 56, 127
9, 376320, Note_on_c, 3, 62, 127
9, 376320, Note_on_c, 3, 57, 127
9, 376440, Note_off_c, 3, 62, 127
9, 376440, Note_on_c, 3, 62, 127
9, 376440, Note_off_c, 3, 57, 127
9, 376440, Note_on_c, 3, 57, 127
9, 376560, Note_off_c, 3, 62, 127
9, 376560, Note_on_c, 3, 62, 127
9, 376560, Note_off_c, 3, 57, 127
9, 376560, Note_on_c, 3, 57, 127
9, 376680, Note_off_c, 3, 62, 127
9, 376680, Note_on_c, 3, 62, 127
9, 376680, Note_off_c, 3, 57, 127
9, 376680, Note_on_c, 3, 57, 127
9, 376800, Note_off_c, 3, 62, 127
9, 376800, Note_on_c, 3, 62, 127
9, 376800, Note_off_c, 3, 57, 127
9, 376800, Note_on_c, 3, 57, 127
9, 376920, Note_off_c, 3, 62, 127
9, 376920, Note_on_c, 3, 62, 127
9, 376920, Note_off_c, 3, 57, 127
9, 376920, Note_on_c, 3, 57, 127
9, 377040, Note_off_c, 3, 62, 127
9, 377040, Note_on_c, 3, 62, 127
9, 377040, Note_off_c, 3, 57, 127
9, 377040, Note_on_c, 3, 57, 127
9, 377160, Note_off_c, 3, 62, 127
9, 377160, Note_on_c, 3, 62, 127
9, 377160, Note_off_c, 3, 57, 127
9, 377160, Note_on_c, 3, 57, 127
9, 377280, Note_off_c, 3, 62, 127
9, 377280, Note_on_c, 3, 62, 127
9, 377280, Note_off_c, 3, 57, 127
9, 377280, Note_on_c, 3, 57, 127
9, 377400, Note_off_c, 3, 62, 127
9, 377400, Note_on_c, 3, 62, 127
9, 377400, Note_off_c, 3, 57, 127
9, 377400, Note_on_c, 3, 57, 127
9, 377520, Note_off_c, 3, 62, 127
9, 377520, Note_on_c, 3, 62, 127
9, 377520, Note_off_c, 3, 57, 127
9, 377520, Note_on_c, 3, 57, 127
9, 377640, Note_off_c, 3, 62, 127
9, 377640, Note_on_c, 3, 62, 127
9, 377640, Note_off_c, 3, 57, 127
9, 377640, Note_on_c, 3, 57, 127
9, 377760, Note_off_c, 3, 62, 127
9, 377760, Note_on_c, 3, 62, 127
9, 377760, Note_off_c, 3, 57, 127
9, 377760, Note_on_c, 3, 57, 127
9, 377880, Note_off_c, 3, 62, 127
9, 377880, Note_on_c, 3, 62, 127
9, 377880, Note_off_c, 3, 57, 127
9, 377880, Note_on_c, 3, 57, 127
9, 378000, Note_off_c, 3, 62, 127
9, 378000, Note_on_c, 3, 62, 127
9, 378000, Note_off_c, 3, 57, 127
9, 378000, Note_on_c, 3, 57, 127
9, 378120, Note_off_c, 3, 62, 127
9, 378120, Note_on_c, 3, 62, 127
9, 378120, Note_off_c, 3, 57, 127
9, 378120, Note_on_c, 3, 57, 127
9, 378240, Note_off_c, 3, 62, 127
9, 378240, Note_on_c, 3, 62, 127
9, 378240, Note_off_c, 3, 57, 127
9, 378240, Note_on_c, 3, 57, 127
9, 378360, Note_off_c, 3, 62, 127
9, 378360, Note_on_c, 3, 62, 127
9, 378360, Note_off_c, 3, 57, 127
9, 378360, Note_on_c, 3, 57, 127
9, 378480, Note_off_c, 3, 62, 127
9, 378480, Note_on_c, 3, 62, 127
9, 378480, Note_off_c, 3, 57, 127
9, 378480, Note_on_c, 3, 57, 127
9, 378600, Note_off_c, 3, 62, 127
9, 378600, Note_on_c, 3, 62, 127
9, 378600, Note_off_c, 3, 57, 127
9, 378600, Note_on_c, 3, 57, 127
9, 378720, Note_off_c, 3, 62, 127
9, 378720, Note_on_c, 3, 62, 127
9, 378720, Note_off_c, 3, 57, 127
9, 378720, Note_on_c, 3, 57, 127
9, 378840, Note_off_c, 3, 62, 127
9, 378840, Note_on_c, 3, 62, 127
9, 378840, Note_off_c, 3, 57, 127
9, 378840, Note_on_c, 3, 57, 127
9, 378960, Note_off_c, 3, 62, 127
9, 378960, Note_on_c, 3, 62, 127
9, 378960, Note_off_c, 3, 57, 127
9, 378960, Note_on_c, 3, 57, 127
9, 379080, Note_off_c, 3, 62, 127
9, 379080, Note_on_c, 3, 62, 127
9, 379080, Note_off_c, 3, 57, 127
9, 379080, Note_on_c, 3, 57, 127
9, 379200, Note_off_c, 3, 62, 127
9, 379200, Note_on_c, 3, 62, 127
9, 379200, Note_off_c, 3, 57, 127
9, 379200, Note_on_c, 3, 57, 127
9, 379320, Note_off_c, 3, 62, 127
9, 379320, Note_on_c, 3, 62, 127
9, 379320, Note_off_c, 3, 57, 127
9, 379320, Note_on_c, 3, 57, 127
9, 379440, Note_off_c, 3, 62, 127
9, 379440, Note_on_c, 3, 62, 127
9, 379440, Note_off_c, 3, 57, 127
9, 379440, Note_on_c, 3, 57, 127
9, 379560, Note_off_c, 3, 62, 127
9, 379560, Note_on_c, 3, 62, 127
9, 379560, Note_off_c, 3, 57, 127
9, 379560, Note_on_c, 3, 57, 127
9, 379680, Note_off_c, 3, 62, 127
9, 379680, Note_on_c, 3, 62, 127
9, 379680, Note_off_c, 3, 57, 127
9, 379680, Note_on_c, 3, 57, 127
9, 379800, Note_off_c, 3, 62, 127
9, 379800, Note_on_c, 3, 62, 127
9, 379800, Note_off_c, 3, 57, 127
9, 379800, Note_on_c, 3, 57, 127
9, 379920, Note_off_c, 3, 62, 127
9, 379920, Note_on_c, 3, 62, 127
9, 379920, Note_off_c, 3, 57, 127
9, 379920, Note_on_c, 3, 57, 127
9, 380040, Note_off_c, 3, 62, 127
9, 380040, Note_on_c, 3, 62, 127
9, 380040, Note_off_c, 3, 57, 127
9, 380040, Note_on_c, 3, 57, 127
9, 380159, Note_off_c, 3, 62, 127
9, 380159, Note_off_c, 3, 57, 127
9, 380160, Note_on_c, 3, 62, 127
9, 380160, Note_on_c, 3, 57, 127
9, 380400, Note_off_c, 3, 62, 127
9, 380400, Note_off_c, 3, 57, 127
9, 380400, Note_on_c, 3, 63, 127
9, 380400, Note_on_c, 3, 58, 127
9, 380640, Note_off_c, 3, 63, 127
9, 380640, Note_off_c, 3, 58, 127
9, 382080, Note_on_c, 3, 63, 127
9, 382080, Note_on_c, 3, 58, 127
9, 382320, Note_off_c, 3, 63, 127
9, 382320, Note_off_c, 3, 58, 127
9, 382320, Note_on_c, 3, 62, 127
9, 382320, Note_on_c, 3, 57, 127
9, 382560, Note_off_c, 3, 62, 127
9, 382560, Note_off_c, 3, 57, 127
9, 383040, Note_on_c, 3, 62, 127
9, 383040, Note_on_c, 3, 57, 127
9, 383280, Note_off_c, 3, 62, 127
9, 383280, Note_off_c, 3, 57, 127
9, 383280, Note_on_c, 3, 63, 127
9, 383280, Note_on_c, 3, 58, 127
9, 383520, Note_off_c, 3, 63, 127
9, 383520, Note_off_c, 3, 58, 127
9, 384000, Note_on_c, 3, 67, 127
9, 384000, Note_on_c, 3, 62, 127
9, 384000, Note_on_c, 3, 55, 127
9, 384240, Note_off_c, 3, 67, 127
9, 384240, Note_off_c, 3, 62, 127
9, 384240, Note_off_c, 3, 55, 127
9, 384240, Note_on_c, 3, 68, 127
9, 384240, Note_on_c, 3, 63, 127
9, 384240, Note_on_c, 3, 56, 127
9, 384480, Note_off_c, 3, 68, 127
9, 384480, Note_off_c, 3, 63, 127
9, 384480, Note_off_c, 3, 56, 127
9, 387840, Note_on_c, 3, 68, 127
9, 387840, Note_on_c, 3, 63, 127
9, 387840, Note_on_c, 3, 56, 127
9, 388080, Note_off_c, 3, 68, 127
9, 388080, Note_off_c, 3, 63, 127
9, 388080, Note_off_c, 3, 56, 127
9, 388080, Note_on_c, 3, 67, 127
9, 388080, Note_on_c, 3, 62, 127
9, 388080, Note_on_c, 3, 55, 127
9, 388320, Note_off_c, 3, 67, 127
9, 388320, Note_off_c, 3, 62, 127
9, 388320, Note_off_c, 3, 55, 127
9, 389760, Note_on_c, 3, 67, 127
9, 389760, Note_on_c, 3, 62, 127
9, 389760, Note_on_c, 3, 55, 127
9, 390000, Note_off_c, 3, 67, 127
9, 390000, Note_off_c, 3, 62, 127
9, 390000, Note_off_c, 3, 55, 127
9, 390720, Note_on_c, 3, 68, 127
9, 390720, Note_on_c, 3, 63, 127
9, 390720, Note_on_c, 3, 56, 127
9, 390960, Note_off_c, 3, 68, 127
9, 390960, Note_off_c, 3, 63, 127
9, 390960, Note_off_c, 3, 56, 127
9, 391680, Note_on_c, 3, 62, 127
9, 391680, Note_on_c, 3, 57, 127
9, 391800, Note_off_c, 3, 62, 127
9, 391800, Note_on_c, 3, 62, 127
9, 391800, Note_off_c, 3, 57, 127
9, 391800, Note_on_c, 3, 57, 127
9, 391920, Note_off_c, 3, 62, 127
9, 391920, Note_on_c, 3, 62, 127
9, 391920, Note_off_c, 3, 57, 127
9, 391920, Note_on_c, 3, 57, 127
9, 392040, Note_off_c, 3, 62, 127
9, 392040, Note_on_c, 3, 62, 127
9, 392040, Note_off_c, 3, 57, 127
9, 392040, Note_on_c, 3, 57, 127
9, 392160, Note_off_c, 3, 62, 127
9, 392160, Note_on_c, 3, 62, 127
9, 392160, Note_off_c, 3, 57, 127
9, 392160, Note_on_c, 3, 57, 127
9, 392280, Note_off_c, 3, 62, 127
9, 392280, Note_on_c, 3, 62, 127
9, 392280, Note_off_c, 3, 57, 127
9, 392280, Note_on_c, 3, 57, 127
9, 392400, Note_off_c, 3, 62, 127
9, 392400, Note_on_c, 3, 62, 127
9, 392400, Note_off_c, 3, 57, 127
9, 392400, Note_on_c, 3, 57, 127
9, 392520, Note_off_c, 3, 62, 127
9, 392520, Note_on_c, 3, 62, 127
9, 392520, Note_off_c, 3, 57, 127
9, 392520, Note_on_c, 3, 57, 127
9, 392640, Note_off_c, 3, 62, 127
9, 392640, Note_on_c, 3, 62, 127
9, 392640, Note_off_c, 3, 57, 127
9, 392640, Note_on_c, 3, 57, 127
9, 392760, Note_off_c, 3, 62, 127
9, 392760, Note_on_c, 3, 62, 127
9, 392760, Note_off_c, 3, 57, 127
9, 392760, Note_on_c, 3, 57, 127
9, 392880, Note_off_c, 3, 62, 127
9, 392880, Note_on_c, 3, 62, 127
9, 392880, Note_off_c, 3, 57, 127
9, 392880, Note_on_c, 3, 57, 127
9, 393000, Note_off_c, 3, 62, 127
9, 393000, Note_on_c, 3, 62, 127
9, 393000, Note_off_c, 3, 57, 127
9, 393000, Note_on_c, 3, 57, 127
9, 393120, Note_off_c, 3, 62, 127
9, 393120, Note_on_c, 3, 62, 127
9, 393120, Note_off_c, 3, 57, 127
9, 393120, Note_on_c, 3, 57, 127
9, 393240, Note_off_c, 3, 62, 127
9, 393240, Note_on_c, 3, 62, 127
9, 393240, Note_off_c, 3, 57, 127
9, 393240, Note_on_c, 3, 57, 127
9, 393360, Note_off_c, 3, 62, 127
9, 393360, Note_on_c, 3, 62, 127
9, 393360, Note_off_c, 3, 57, 127
9, 393360, Note_on_c, 3, 57, 127
9, 393480, Note_off_c, 3, 62, 127
9, 393480, Note_on_c, 3, 62, 127
9, 393480, Note_off_c, 3, 57, 127
9, 393480, Note_on_c, 3, 57, 127
9, 393600, Note_off_c, 3, 62, 127
9, 393600, Note_on_c, 3, 62, 127
9, 393600, Note_off_c, 3, 57, 127
9, 393600, Note_on_c, 3, 57, 127
9, 393720, Note_off_c, 3, 62, 127
9, 393720, Note_on_c, 3, 62, 127
9, 393720, Note_off_c, 3, 57, 127
9, 393720, Note_on_c, 3, 57, 127
9, 393840, Note_off_c, 3, 62, 127
9, 393840, Note_on_c, 3, 62, 127
9, 393840, Note_off_c, 3, 57, 127
9, 393840, Note_on_c, 3, 57, 127
9, 393960, Note_off_c, 3, 62, 127
9, 393960, Note_on_c, 3, 62, 127
9, 393960, Note_off_c, 3, 57, 127
9, 393960, Note_on_c, 3, 57, 127
9, 394080, Note_off_c, 3, 62, 127
9, 394080, Note_on_c, 3, 62, 127
9, 394080, Note_off_c, 3, 57, 127
9, 394080, Note_on_c, 3, 57, 127
9, 394200, Note_off_c, 3, 62, 127
9, 394200, Note_on_c, 3, 62, 127
9, 394200, Note_off_c, 3, 57, 127
9, 394200, Note_on_c, 3, 57, 127
9, 394320, Note_off_c, 3, 62, 127
9, 394320, Note_on_c, 3, 62, 127
9, 394320, Note_off_c, 3, 57, 127
9, 394320, Note_on_c, 3, 57, 127
9, 394440, Note_off_c, 3, 62, 127
9, 394440, Note_on_c, 3, 62, 127
9, 394440, Note_off_c, 3, 57, 127
9, 394440, Note_on_c, 3, 57, 127
9, 394560, Note_off_c, 3, 62, 127
9, 394560, Note_on_c, 3, 62, 127
9, 394560, Note_off_c, 3, 57, 127
9, 394560, Note_on_c, 3, 57, 127
9, 394680, Note_off_c, 3, 62, 127
9, 394680, Note_on_c, 3, 62, 127
9, 394680, Note_off_c, 3, 57, 127
9, 394680, Note_on_c, 3, 57, 127
9, 394800, Note_off_c, 3, 62, 127
9, 394800, Note_on_c, 3, 62, 127
9, 394800, Note_off_c, 3, 57, 127
9, 394800, Note_on_c, 3, 57, 127
9, 394920, Note_off_c, 3, 62, 127
9, 394920, Note_on_c, 3, 62, 127
9, 394920, Note_off_c, 3, 57, 127
9, 394920, Note_on_c, 3, 57, 127
9, 395040, Note_off_c, 3, 62, 127
9, 395040, Note_on_c, 3, 62, 127
9, 395040, Note_off_c, 3, 57, 127
9, 395040, Note_on_c, 3, 57, 127
9, 395160, Note_off_c, 3, 62, 127
9, 395160, Note_on_c, 3, 62, 127
9, 395160, Note_off_c, 3, 57, 127
9, 395160, Note_on_c, 3, 57, 127
9, 395280, Note_off_c, 3, 62, 127
9, 395280, Note_on_c, 3, 62, 127
9, 395280, Note_off_c, 3, 57, 127
9, 395280, Note_on_c, 3, 57, 127
9, 395400, Note_off_c, 3, 62, 127
9, 395400, Note_on_c, 3, 62, 127
9, 395400, Note_off_c, 3, 57, 127
9, 395400, Note_on_c, 3, 57, 127
9, 395519, Note_off_c, 3, 62, 127
9, 395519, Note_off_c, 3, 57, 127
9, 395520, Note_on_c, 3, 62, 127
9, 395520, Note_on_c, 3, 57, 127
9, 395760, Note_off_c, 3, 62, 127
9, 395760, Note_off_c, 3, 57, 127
9, 395760, Note_on_c, 3, 63, 127
9, 395760, Note_on_c, 3, 58, 127
9, 396000, Note_off_c, 3, 63, 127
9, 396000, Note_off_c, 3, 58, 127
9, 397440, Note_on_c, 3, 63, 127
9, 397440, Note_on_c, 3, 58, 127
9, 397680, Note_off_c, 3, 63, 127
9, 397680, Note_off_c, 3, 58, 127
9, 397680, Note_on_c, 3, 62, 127
9, 397680, Note_on_c, 3, 57, 127
9, 397920, Note_off_c, 3, 62, 127
9, 397920, Note_off_c, 3, 57, 127
9, 398400, Note_on_c, 3, 62, 127
9, 398400, Note_on_c, 3, 57, 127
9, 398640, Note_off_c, 3, 62, 127
9, 398640, Note_off_c, 3, 57, 127
9, 398640, Note_on_c, 3, 63, 127
9, 398640, Note_on_c, 3, 58, 127
9, 398880, Note_off_c, 3, 63, 127
9, 398880, Note_off_c, 3, 58, 127
9, 399360, Note_on_c, 3, 67, 127
9, 399360, Note_on_c, 3, 62, 127
9, 399360, Note_on_c, 3, 55, 127
9, 399600, Note_off_c, 3, 67, 127
9, 399600, Note_off_c, 3, 62, 127
9, 399600, Note_off_c, 3, 55, 127
9, 399600, Note_on_c, 3, 68, 127
9, 399600, Note_on_c, 3, 63, 127
9, 399600, Note_on_c, 3, 56, 127
9, 399840, Note_off_c, 3, 68, 127
9, 399840, Note_off_c, 3, 63, 127
9, 399840, Note_off_c, 3, 56, 127
9, 403200, Note_on_c, 3, 68, 127
9, 403200, Note_on_c, 3, 63, 127
9, 403200, Note_on_c, 3, 56, 127
9, 403440, Note_off_c, 3, 68, 127
9, 403440, Note_off_c, 3, 63, 127
9, 403440, Note_off_c, 3, 56, 127
9, 403440, Note_on_c, 3, 67, 127
9, 403440, Note_on_c, 3, 62, 127
9, 403440, Note_on_c, 3, 55, 127
9, 403680, Note_off_c, 3, 67, 127
9, 403680, Note_off_c, 3, 62, 127
9, 403680, Note_off_c, 3, 55, 127
9, 405120, Note_on_c, 3, 67, 127
9, 405120, Note_on_c, 3, 62, 127
9, 405120, Note_on_c, 3, 55, 127
9, 405360, Note_off_c, 3, 67, 127
9, 405360, Note_off_c, 3, 62, 127
9, 405360, Note_off_c, 3, 55, 127
9, 406080, Note_on_c, 3, 68, 127
9, 406080, Note_on_c, 3, 63, 127
9, 406080, Note_on_c, 3, 56, 127
9, 406320, Note_off_c, 3, 68, 127
9, 406320, Note_off_c, 3, 63, 127
9, 406320, Note_off_c, 3, 56, 127
9, 407040, Note_on_c, 3, 62, 127
9, 407040, Note_on_c, 3, 57, 127
9, 407160, Note_off_c, 3, 62, 127
9, 407160, Note_on_c, 3, 62, 127
9, 407160, Note_off_c, 3, 57, 127
9, 407160, Note_on_c, 3, 57, 127
9, 407280, Note_off_c, 3, 62, 127
9, 407280, Note_on_c, 3, 62, 127
9, 407280, Note_off_c, 3, 57, 127
9, 407280, Note_on_c, 3, 57, 127
9, 407400, Note_off_c, 3, 62, 127
9, 407400, Note_on_c, 3, 62, 127
9, 407400, Note_off_c, 3, 57, 127
9, 407400, Note_on_c, 3, 57, 127
9, 407520, Note_off_c, 3, 62, 127
9, 407520, Note_on_c, 3, 62, 127
9, 407520, Note_off_c, 3, 57, 127
9, 407520, Note_on_c, 3, 57, 127
9, 407640, Note_off_c, 3, 62, 127
9, 407640, Note_on_c, 3, 62, 127
9, 407640, Note_off_c, 3, 57, 127
9, 407640, Note_on_c, 3, 57, 127
9, 407760, Note_off_c, 3, 62, 127
9, 407760, Note_on_c, 3, 62, 127
9, 407760, Note_off_c, 3, 57, 127
9, 407760, Note_on_c, 3, 57, 127
9, 407880, Note_off_c, 3, 62, 127
9, 407880, Note_on_c, 3, 62, 127
9, 407880, Note_off_c, 3, 57, 127
9, 407880, Note_on_c, 3, 57, 127
9, 408000, Note_off_c, 3, 62, 127
9, 408000, Note_on_c, 3, 62, 127
9, 408000, Note_off_c, 3, 57, 127
9, 408000, Note_on_c, 3, 57, 127
9, 408120, Note_off_c, 3, 62, 127
9, 408120, Note_on_c, 3, 62, 127
9, 408120, Note_off_c, 3, 57, 127
9, 408120, Note_on_c, 3, 57, 127
9, 408240, Note_off_c, 3, 62, 127
9, 408240, Note_on_c, 3, 62, 127
9, 408240, Note_off_c, 3, 57, 127
9, 408240, Note_on_c, 3, 57, 127
9, 408360, Note_off_c, 3, 62, 127
9, 408360, Note_on_c, 3, 62, 127
9, 408360, Note_off_c, 3, 57, 127
9, 408360, Note_on_c, 3, 57, 127
9, 408480, Note_off_c, 3, 62, 127
9, 408480, Note_on_c, 3, 62, 127
9, 408480, Note_off_c, 3, 57, 127
9, 408480, Note_on_c, 3, 57, 127
9, 408600, Note_off_c, 3, 62, 127
9, 408600, Note_on_c, 3, 62, 127
9, 408600, Note_off_c, 3, 57, 127
9, 408600, Note_on_c, 3, 57, 127
9, 408720, Note_off_c, 3, 62, 127
9, 408720, Note_on_c, 3, 62, 127
9, 408720, Note_off_c, 3, 57, 127
9, 408720, Note_on_c, 3, 57, 127
9, 408840, Note_off_c, 3, 62, 127
9, 408840, Note_on_c, 3, 62, 127
9, 408840, Note_off_c, 3, 57, 127
9, 408840, Note_on_c, 3, 57, 127
9, 408960, Note_off_c, 3, 62, 127
9, 408960, Note_on_c, 3, 62, 127
9, 408960, Note_off_c, 3, 57, 127
9, 408960, Note_on_c, 3, 57, 127
9, 409080, Note_off_c, 3, 62, 127
9, 409080, Note_on_c, 3, 62, 127
9, 409080, Note_off_c, 3, 57, 127
9, 409080, Note_on_c, 3, 57, 127
9, 409200, Note_off_c, 3, 62, 127
9, 409200, Note_on_c, 3, 62, 127
9, 409200, Note_off_c, 3, 57, 127
9, 409200, Note_on_c, 3, 57, 127
9, 409320, Note_off_c, 3, 62, 127
9, 409320, Note_on_c, 3, 62, 127
9, 409320, Note_off_c, 3, 57, 127
9, 409320, Note_on_c, 3, 57, 127
9, 409440, Note_off_c, 3, 62, 127
9, 409440, Note_on_c, 3, 62, 127
9, 409440, Note_off_c, 3, 57, 127
9, 409440, Note_on_c, 3, 57, 127
9, 409560, Note_off_c, 3, 62, 127
9, 409560, Note_on_c, 3, 62, 127
9, 409560, Note_off_c, 3, 57, 127
9, 409560, Note_on_c, 3, 57, 127
9, 409680, Note_off_c, 3, 62, 127
9, 409680, Note_on_c, 3, 62, 127
9, 409680, Note_off_c, 3, 57, 127
9, 409680, Note_on_c, 3, 57, 127
9, 409800, Note_off_c, 3, 62, 127
9, 409800, Note_on_c, 3, 62, 127
9, 409800, Note_off_c, 3, 57, 127
9, 409800, Note_on_c, 3, 57, 127
9, 409920, Note_off_c, 3, 62, 127
9, 409920, Note_on_c, 3, 62, 127
9, 409920, Note_off_c, 3, 57, 127
9, 409920, Note_on_c, 3, 57, 127
9, 410040, Note_off_c, 3, 62, 127
9, 410040, Note_on_c, 3, 62, 127
9, 410040, Note_off_c, 3, 57, 127
9, 410040, Note_on_c, 3, 57, 127
9, 410160, Note_off_c, 3, 62, 127
9, 410160, Note_on_c, 3, 62, 127
9, 410160, Note_off_c, 3, 57, 127
9, 410160, Note_on_c, 3, 57, 127
9, 410280, Note_off_c, 3, 62, 127
9, 410280, Note_on_c, 3, 62, 127
9, 410280, Note_off_c, 3, 57, 127
9, 410280, Note_on_c, 3, 57, 127
9, 410400, Note_off_c, 3, 62, 127
9, 410400, Note_on_c, 3, 62, 127
9, 410400, Note_off_c, 3, 57, 127
9, 410400, Note_on_c, 3, 57, 127
9, 410520, Note_off_c, 3, 62, 127
9, 410520, Note_on_c, 3, 62, 127
9, 410520, Note_off_c, 3, 57, 127
9, 410520, Note_on_c, 3, 57, 127
9, 410640, Note_off_c, 3, 62, 127
9, 410640, Note_on_c, 3, 62, 127
9, 410640, Note_off_c, 3, 57, 127
9, 410640, Note_on_c, 3, 57, 127
9, 410760, Note_off_c, 3, 62, 127
9, 410760, Note_on_c, 3, 62, 127
9, 410760, Note_off_c, 3, 57, 127
9, 410760, Note_on_c, 3, 57, 127
9, 410879, Note_off_c, 3, 62, 127
9, 410879, Note_off_c, 3, 57, 127
9, 410880, Note_on_c, 3, 62, 127
9, 410880, Note_on_c, 3, 57, 127
9, 411120, Note_off_c, 3, 62, 127
9, 411120, Note_off_c, 3, 57, 127
9, 411120, Note_on_c, 3, 63, 127
9, 411120, Note_on_c, 3, 58, 127
9, 411360, Note_off_c, 3, 63, 127
9, 411360, Note_off_c, 3, 58, 127
9, 412800, Note_on_c, 3, 63, 127
9, 412800, Note_on_c, 3, 58, 127
9, 413040, Note_off_c, 3, 63, 127
9, 413040, Note_off_c, 3, 58, 127
9, 413040, Note_on_c, 3, 62, 127
9, 413040, Note_on_c, 3, 57, 127
9, 413280, Note_off_c, 3, 62, 127
9, 413280, Note_off_c, 3, 57, 127
9, 413760, Note_on_c, 3, 62, 127
9, 413760, Note_on_c, 3, 57, 127
9, 414000, Note_off_c, 3, 62, 127
9, 414000, Note_off_c, 3, 57, 127
9, 414000, Note_on_c, 3, 63, 127
9, 414000, Note_on_c, 3, 58, 127
9, 414240, Note_off_c, 3, 63, 127
9, 414240, Note_off_c, 3, 58, 127
9, 414720, Note_on_c, 3, 67, 127
9, 414720, Note_on_c, 3, 62, 127
9, 414720, Note_on_c, 3, 55, 127
9, 414960, Note_off_c, 3, 67, 127
9, 414960, Note_off_c, 3, 62, 127
9, 414960, Note_off_c, 3, 55, 127
9, 414960, Note_on_c, 3, 68, 127
9, 414960, Note_on_c, 3, 63, 127
9, 414960, Note_on_c, 3, 56, 127
9, 415200, Note_off_c, 3, 68, 127
9, 415200, Note_off_c, 3, 63, 127
9, 415200, Note_off_c, 3, 56, 127
9, 418560, Note_on_c, 3, 68, 127
9, 418560, Note_on_c, 3, 63, 127
9, 418560, Note_on_c, 3, 56, 127
9, 418800, Note_off_c, 3, 68, 127
9, 418800, Note_off_c, 3, 63, 127
9, 418800, Note_off_c, 3, 56, 127
9, 418800, Note_on_c, 3, 67, 127
9, 418800, Note_on_c, 3, 62, 127
9, 418800, Note_on_c, 3, 55, 127
9, 419040, Note_off_c, 3, 67, 127
9, 419040, Note_off_c, 3, 62, 127
9, 419040, Note_off_c, 3, 55, 127
9, 420480, Note_on_c, 3, 67, 127
9, 420480, Note_on_c, 3, 62, 127
9, 420480, Note_on_c, 3, 55, 127
9, 420720, Note_off_c, 3, 67, 127
9, 420720, Note_off_c, 3, 62, 127
9, 420720, Note_off_c, 3, 55, 127
9, 421440, Note_on_c, 3, 68, 127
9, 421440, Note_on_c, 3, 63, 127
9, 421440, Note_on_c, 3, 56, 127
9, 421680, Note_off_c, 3, 68, 127
9, 421680, Note_off_c, 3, 63, 127
9, 421680, Note_off_c, 3, 56, 127
9, 422400, Note_on_c, 3, 62, 127
9, 422400, Note_on_c, 3, 57, 127
9, 422520, Note_off_c, 3, 62, 127
9, 422520, Note_on_c, 3, 62, 127
9, 422520, Note_off_c, 3, 57, 127
9, 422520, Note_on_c, 3, 57, 127
9, 422640, Note_off_c, 3, 62, 127
9, 422640, Note_on_c, 3, 62, 127
9, 422640, Note_off_c, 3, 57, 127
9, 422640, Note_on_c, 3, 57, 127
9, 422760, Note_off_c, 3, 62, 127
9, 422760, Note_on_c, 3, 62, 127
9, 422760, Note_off_c, 3, 57, 127
9, 422760, Note_on_c, 3, 57, 127
9, 422880, Note_off_c, 3, 62, 127
9, 422880, Note_on_c, 3, 62, 127
9, 422880, Note_off_c, 3, 57, 127
9, 422880, Note_on_c, 3, 57, 127
9, 423000, Note_off_c, 3, 62, 127
9, 423000, Note_on_c, 3, 62, 127
9, 423000, Note_off_c, 3, 57, 127
9, 423000, Note_on_c, 3, 57, 127
9, 423120, Note_off_c, 3, 62, 127
9, 423120, Note_on_c, 3, 62, 127
9, 423120, Note_off_c, 3, 57, 127
9, 423120, Note_on_c, 3, 57, 127
9, 423240, Note_off_c, 3, 62, 127
9, 423240, Note_on_c, 3, 62, 127
9, 423240, Note_off_c, 3, 57, 127
9, 423240, Note_on_c, 3, 57, 127
9, 423360, Note_off_c, 3, 62, 127
9, 423360, Note_on_c, 3, 62, 127
9, 423360, Note_off_c, 3, 57, 127
9, 423360, Note_on_c, 3, 57, 127
9, 423480, Note_off_c, 3, 62, 127
9, 423480, Note_on_c, 3, 62, 127
9, 423480, Note_off_c, 3, 57, 127
9, 423480, Note_on_c, 3, 57, 127
9, 423600, Note_off_c, 3, 62, 127
9, 423600, Note_on_c, 3, 62, 127
9, 423600, Note_off_c, 3, 57, 127
9, 423600, Note_on_c, 3, 57, 127
9, 423720, Note_off_c, 3, 62, 127
9, 423720, Note_on_c, 3, 62, 127
9, 423720, Note_off_c, 3, 57, 127
9, 423720, Note_on_c, 3, 57, 127
9, 423840, Note_off_c, 3, 62, 127
9, 423840, Note_on_c, 3, 62, 127
9, 423840, Note_off_c, 3, 57, 127
9, 423840, Note_on_c, 3, 57, 127
9, 423960, Note_off_c, 3, 62, 127
9, 423960, Note_on_c, 3, 62, 127
9, 423960, Note_off_c, 3, 57, 127
9, 423960, Note_on_c, 3, 57, 127
9, 424080, Note_off_c, 3, 62, 127
9, 424080, Note_on_c, 3, 62, 127
9, 424080, Note_off_c, 3, 57, 127
9, 424080, Note_on_c, 3, 57, 127
9, 424200, Note_off_c, 3, 62, 127
9, 424200, Note_on_c, 3, 62, 127
9, 424200, Note_off_c, 3, 57, 127
9, 424200, Note_on_c, 3, 57, 127
9, 424320, Note_off_c, 3, 62, 127
9, 424320, Note_on_c, 3, 62, 127
9, 424320, Note_off_c, 3, 57, 127
9, 424320, Note_on_c, 3, 57, 127
9, 424440, Note_off_c, 3, 62, 127
9, 424440, Note_on_c, 3, 62, 127
9, 424440, Note_off_c, 3, 57, 127
9, 424440, Note_on_c, 3, 57, 127
9, 424560, Note_off_c, 3, 62, 127
9, 424560, Note_on_c, 3, 62, 127
9, 424560, Note_off_c, 3, 57, 127
9, 424560, Note_on_c, 3, 57, 127
9, 424680, Note_off_c, 3, 62, 127
9, 424680, Note_on_c, 3, 62, 127
9, 424680, Note_off_c, 3, 57, 127
9, 424680, Note_on_c, 3, 57, 127
9, 424800, Note_off_c, 3, 62, 127
9, 424800, Note_on_c, 3, 62, 127
9, 424800, Note_off_c, 3, 57, 127
9, 424800, Note_on_c, 3, 57, 127
9, 424920, Note_off_c, 3, 62, 127
9, 424920, Note_on_c, 3, 62, 127
9, 424920, Note_off_c, 3, 57, 127
9, 424920, Note_on_c, 3, 57, 127
9, 425040, Note_off_c, 3, 62, 127
9, 425040, Note_on_c, 3, 62, 127
9, 425040, Note_off_c, 3, 57, 127
9, 425040, Note_on_c, 3, 57, 127
9, 425160, Note_off_c, 3, 62, 127
9, 425160, Note_on_c, 3, 62, 127
9, 425160, Note_off_c, 3, 57, 127
9, 425160, Note_on_c, 3, 57, 127
9, 425280, Note_off_c, 3, 62, 127
9, 425280, Note_on_c, 3, 62, 127
9, 425280, Note_off_c, 3, 57, 127
9, 425280, Note_on_c, 3, 57, 127
9, 425400, Note_off_c, 3, 62, 127
9, 425400, Note_on_c, 3, 62, 127
9, 425400, Note_off_c, 3, 57, 127
9, 425400, Note_on_c, 3, 57, 127
9, 425520, Note_off_c, 3, 62, 127
9, 425520, Note_on_c, 3, 62, 127
9, 425520, Note_off_c, 3, 57, 127
9, 425520, Note_on_c, 3, 57, 127
9, 425640, Note_off_c, 3, 62, 127
9, 425640, Note_on_c, 3, 62, 127
9, 425640, Note_off_c, 3, 57, 127
9, 425640, Note_on_c, 3, 57, 127
9, 425760, Note_off_c, 3, 62, 127
9, 425760, Note_on_c, 3, 62, 127
9, 425760, Note_off_c, 3, 57, 127
9, 425760, Note_on_c, 3, 57, 127
9, 425880, Note_off_c, 3, 62, 127
9, 425880, Note_on_c, 3, 62, 127
9, 425880, Note_off_c, 3, 57, 127
9, 425880, Note_on_c, 3, 57, 127
9, 426000, Note_off_c, 3, 62, 127
9, 426000, Note_on_c, 3, 62, 127
9, 426000, Note_off_c, 3, 57, 127
9, 426000, Note_on_c, 3, 57, 127
9, 426120, Note_off_c, 3, 62, 127
9, 426120, Note_on_c, 3, 62, 127
9, 426120, Note_off_c, 3, 57, 127
9, 426120, Note_on_c, 3, 57, 127
9, 426239, Note_off_c, 3, 62, 127
9, 426239, Note_off_c, 3, 57, 127
9, 426240, Note_on_c, 3, 62, 127
9, 426240, Note_on_c, 3, 57, 127
9, 426480, Note_off_c, 3, 62, 127
9, 426480, Note_off_c, 3, 57, 127
9, 426480, Note_on_c, 3, 63, 127
9, 426480, Note_on_c, 3, 58, 127
9, 426720, Note_off_c, 3, 63, 127
9, 426720, Note_off_c, 3, 58, 127
9, 428160, Note_on_c, 3, 63, 127
9, 428160, Note_on_c, 3, 58, 127
9, 428400, Note_off_c, 3, 63, 127
9, 428400, Note_off_c, 3, 58, 127
9, 428400, Note_on_c, 3, 62, 127
9, 428400, Note_on_c, 3, 57, 127
9, 428640, Note_off_c, 3, 62, 127
9, 428640, Note_off_c, 3, 57, 127
9, 429120, Note_on_c, 3, 62, 127
9, 429120, Note_on_c, 3, 57, 127
9, 429360, Note_off_c, 3, 62, 127
9, 429360, Note_off_c, 3, 57, 127
9, 429360, Note_on_c, 3, 63, 127
9, 429360, Note_on_c, 3, 58, 127
9, 429600, Note_off_c, 3, 63, 127
9, 429600, Note_off_c, 3, 58, 127
9, 430080, Note_on_c, 3, 67, 127
9, 430080, Note_on_c, 3, 62, 127
9, 430080, Note_on_c, 3, 55, 127
9, 430320, Note_off_c, 3, 67, 127
9, 430320, Note_off_c, 3, 62, 127
9, 430320, Note_off_c, 3, 55, 127
9, 430320, Note_on_c, 3, 68, 127
9, 430320, Note_on_c, 3, 63, 127
9, 430320, Note_on_c, 3, 56, 127
9, 430560, Note_off_c, 3, 68, 127
9, 430560, Note_off_c, 3, 63, 127
9, 430560, Note_off_c, 3, 56, 127
9, 433920, Note_on_c, 3, 68, 127
9, 433920, Note_on_c, 3, 63, 127
9, 433920, Note_on_c, 3, 56, 127
9, 434160, Note_off_c, 3, 68, 127
9, 434160, Note_off_c, 3, 63, 127
9, 434160, Note_off_c, 3, 56, 127
9, 434160, Note_on_c, 3, 67, 127
9, 434160, Note_on_c, 3, 62, 127
9, 434160, Note_on_c, 3, 55, 127
9, 434400, Note_off_c, 3, 67, 127
9, 434400, Note_off_c, 3, 62, 127
9, 434400, Note_off_c, 3, 55, 127
9, 435840, Note_on_c, 3, 67, 127
9, 435840, Note_on_c, 3, 62, 127
9, 435840, Note_on_c, 3, 55, 127
9, 436080, Note_off_c, 3, 67, 127
9, 436080, Note_off_c, 3, 62, 127
9, 436080, Note_off_c, 3, 55, 127
9, 436800, Note_on_c, 3, 68, 127
9, 436800, Note_on_c, 3, 63, 127
9, 436800, Note_on_c, 3, 56, 127
9, 437040, Note_off_c, 3, 68, 127
9, 437040, Note_off_c, 3, 63, 127
9, 437040, Note_off_c, 3, 56, 127
9, 437760, Note_on_c, 3, 62, 127
9, 437760, Note_on_c, 3, 57, 127
9, 437880, Note_off_c, 3, 62, 127
9, 437880, Note_on_c, 3, 62, 127
9, 437880, Note_off_c, 3, 57, 127
9, 437880, Note_on_c, 3, 57, 127
9, 438000, Note_off_c, 3, 62, 127
9, 438000, Note_on_c, 3, 62, 127
9, 438000, Note_off_c, 3, 57, 127
9, 438000, Note_on_c, 3, 57, 127
9, 438120, Note_off_c, 3, 62, 127
9, 438120, Note_on_c, 3, 62, 127
9, 438120, Note_off_c, 3, 57, 127
9, 438120, Note_on_c, 3, 57, 127
9, 438240, Note_off_c, 3, 62, 127
9, 438240, Note_on_c, 3, 62, 127
9, 438240, Note_off_c, 3, 57, 127
9, 438240, Note_on_c, 3, 57, 127
9, 438360, Note_off_c, 3, 62, 127
9, 438360, Note_on_c, 3, 62, 127
9, 438360, Note_off_c, 3, 57, 127
9, 438360, Note_on_c, 3, 57, 127
9, 438480, Note_off_c, 3, 62, 127
9, 438480, Note_on_c, 3, 62, 127
9, 438480, Note_off_c, 3, 57, 127
9, 438480, Note_on_c, 3, 57, 127
9, 438600, Note_off_c, 3, 62, 127
9, 438600, Note_on_c, 3, 62, 127
9, 438600, Note_off_c, 3, 57, 127
9, 438600, Note_on_c, 3, 57, 127
9, 438720, Note_off_c, 3, 62, 127
9, 438720, Note_on_c, 3, 62, 127
9, 438720, Note_off_c, 3, 57, 127
9, 438720, Note_on_c, 3, 57, 127
9, 438840, Note_off_c, 3, 62, 127
9, 438840, Note_on_c, 3, 62, 127
9, 438840, Note_off_c, 3, 57, 127
9, 438840, Note_on_c, 3, 57, 127
9, 438960, Note_off_c, 3, 62, 127
9, 438960, Note_on_c, 3, 62, 127
9, 438960, Note_off_c, 3, 57, 127
9, 438960, Note_on_c, 3, 57, 127
9, 439080, Note_off_c, 3, 62, 127
9, 439080, Note_on_c, 3, 62, 127
9, 439080, Note_off_c, 3, 57, 127
9, 439080, Note_on_c, 3, 57, 127
9, 439200, Note_off_c, 3, 62, 127
9, 439200, Note_on_c, 3, 62, 127
9, 439200, Note_off_c, 3, 57, 127
9, 439200, Note_on_c, 3, 57, 127
9, 439320, Note_off_c, 3, 62, 127
9, 439320, Note_on_c, 3, 62, 127
9, 439320, Note_off_c, 3, 57, 127
9, 439320, Note_on_c, 3, 57, 127
9, 439440, Note_off_c, 3, 62, 127
9, 439440, Note_on_c, 3, 62, 127
9, 439440, Note_off_c, 3, 57, 127
9, 439440, Note_on_c, 3, 57, 127
9, 439560, Note_off_c, 3, 62, 127
9, 439560, Note_on_c, 3, 62, 127
9, 439560, Note_off_c, 3, 57, 127
9, 439560, Note_on_c, 3, 57, 127
9, 439680, Note_off_c, 3, 62, 127
9, 439680, Note_on_c, 3, 62, 127
9, 439680, Note_off_c, 3, 57, 127
9, 439680, Note_on_c, 3, 57, 127
9, 439800, Note_off_c, 3, 62, 127
9, 439800, Note_on_c, 3, 62, 127
9, 439800, Note_off_c, 3, 57, 127
9, 439800, Note_on_c, 3, 57, 127
9, 439920, Note_off_c, 3, 62, 127
9, 439920, Note_on_c, 3, 62, 127
9, 439920, Note_off_c, 3, 57, 127
9, 439920, Note_on_c, 3, 57, 127
9, 440040, Note_off_c, 3, 62, 127
9, 440040, Note_on_c, 3, 62, 127
9, 440040, Note_off_c, 3, 57, 127
9, 440040, Note_on_c, 3, 57, 127
9, 440160, Note_off_c, 3, 62, 127
9, 440160, Note_on_c, 3, 62, 127
9, 440160, Note_off_c, 3, 57, 127
9, 440160, Note_on_c, 3, 57, 127
9, 440280, Note_off_c, 3, 62, 127
9, 440280, Note_on_c, 3, 62, 127
9, 440280, Note_off_c, 3, 57, 127
9, 440280, Note_on_c, 3, 57, 127
9, 440400, Note_off_c, 3, 62, 127
9, 440400, Note_on_c, 3, 62, 127
9, 440400, Note_off_c, 3, 57, 127
9, 440400, Note_on_c, 3, 57, 127
9, 440520, Note_off_c, 3, 62, 127
9, 440520, Note_on_c, 3, 62, 127
9, 440520, Note_off_c, 3, 57, 127
9, 440520, Note_on_c, 3, 57, 127
9, 440640, Note_off_c, 3, 62, 127
9, 440640, Note_on_c, 3, 62, 127
9, 440640, Note_off_c, 3, 57, 127
9, 440640, Note_on_c, 3, 57, 127
9, 440760, Note_off_c, 3, 62, 127
9, 440760, Note_on_c, 3, 62, 127
9, 440760, Note_off_c, 3, 57, 127
9, 440760, Note_on_c, 3, 57, 127
9, 440880, Note_off_c, 3, 62, 127
9, 440880, Note_on_c, 3, 62, 127
9, 440880, Note_off_c, 3, 57, 127
9, 440880, Note_on_c, 3, 57, 127
9, 441000, Note_off_c, 3, 62, 127
9, 441000, Note_on_c, 3, 62, 127
9, 441000, Note_off_c, 3, 57, 127
9, 441000, Note_on_c, 3, 57, 127
9, 441120, Note_off_c, 3, 62, 127
9, 441120, Note_on_c, 3, 62, 127
9, 441120, Note_off_c, 3, 57, 127
9, 441120, Note_on_c, 3, 57, 127
9, 441240, Note_off_c, 3, 62, 127
9, 441240, Note_on_c, 3, 62, 127
9, 441240, Note_off_c, 3, 57, 127
9, 441240, Note_on_c, 3, 57, 127
9, 441360, Note_off_c, 3, 62, 127
9, 441360, Note_on_c, 3, 62, 127
9, 441360, Note_off_c, 3, 57, 127
9, 441360, Note_on_c, 3, 57, 127
9, 441480, Note_off_c, 3, 62, 127
9, 441480, Note_on_c, 3, 62, 127
9, 441480, Note_off_c, 3, 57, 127
9, 441480, Note_on_c, 3, 57, 127
9, 441599, Note_off_c, 3, 62, 127
9, 441599, Note_off_c, 3, 57, 127
9, 441600, Note_on_c, 3, 62, 127
9, 441600, Note_on_c, 3, 57, 127
9, 441840, Note_off_c, 3, 62, 127
9, 441840, Note_off_c, 3, 57, 127
9, 441840, Note_on_c, 3, 63, 127
9, 441840, Note_on_c, 3, 58, 127
9, 442080, Note_off_c, 3, 63, 127
9, 442080, Note_off_c, 3, 58, 127
9, 443520, Note_on_c, 3, 63, 127
9, 443520, Note_on_c, 3, 58, 127
9, 443760, Note_off_c, 3, 63, 127
9, 443760, Note_off_c, 3, 58, 127
9, 443760, Note_on_c, 3, 62, 127
9, 443760, Note_on_c, 3, 57, 127
9, 444000, Note_off_c, 3, 62, 127
9, 444000, Note_off_c, 3, 57, 127
9, 444480, Note_on_c, 3, 62, 127
9, 444480, Note_on_c, 3, 57, 127
9, 444720, Note_off_c, 3, 62, 127
9, 444720, Note_off_c, 3, 57, 127
9, 444720, Note_on_c, 3, 63, 127
9, 444720, Note_on_c, 3, 58, 127
9, 444960, Note_off_c, 3, 63, 127
9, 444960, Note_off_c, 3, 58, 127
9, 445440, Note_on_c, 3, 62, 127
9, 445440, Note_on_c, 3, 59, 127
9, 445560, Note_off_c, 3, 62, 127
9, 445560, Note_on_c, 3, 62, 127
9, 445560, Note_off_c, 3, 59, 127
9, 445560, Note_on_c, 3, 59, 127
9, 445680, Note_off_c, 3, 62, 127
9, 445680, Note_on_c, 3, 62, 127
9, 445680, Note_off_c, 3, 59, 127
9, 445680, Note_on_c, 3, 59, 127
9, 445800, Note_off_c, 3, 62, 127
9, 445800, Note_on_c, 3, 62, 127
9, 445800, Note_off_c, 3, 59, 127
9, 445800, Note_on_c, 3, 59, 127
9, 445920, Note_off_c, 3, 62, 127
9, 445920, Note_on_c, 3, 62, 127
9, 445920, Note_off_c, 3, 59, 127
9, 445920, Note_on_c, 3, 59, 127
9, 446040, Note_off_c, 3, 62, 127
9, 446040, Note_on_c, 3, 62, 127
9, 446040, Note_off_c, 3, 59, 127
9, 446040, Note_on_c, 3, 59, 127
9, 446160, Note_off_c, 3, 62, 127
9, 446160, Note_on_c, 3, 62, 127
9, 446160, Note_off_c, 3, 59, 127
9, 446160, Note_on_c, 3, 59, 127
9, 446280, Note_off_c, 3, 62, 127
9, 446280, Note_on_c, 3, 62, 127
9, 446280, Note_off_c, 3, 59, 127
9, 446280, Note_on_c, 3, 59, 127
9, 446400, Note_off_c, 3, 62, 127
9, 446400, Note_on_c, 3, 62, 127
9, 446400, Note_off_c, 3, 59, 127
9, 446400, Note_on_c, 3, 59, 127
9, 446520, Note_off_c, 3, 62, 127
9, 446520, Note_on_c, 3, 62, 127
9, 446520, Note_off_c, 3, 59, 127
9, 446520, Note_on_c, 3, 59, 127
9, 446640, Note_off_c, 3, 62, 127
9, 446640, Note_on_c, 3, 62, 127
9, 446640, Note_off_c, 3, 59, 127
9, 446640, Note_on_c, 3, 59, 127
9, 446760, Note_off_c, 3, 62, 127
9, 446760, Note_on_c, 3, 62, 127
9, 446760, Note_off_c, 3, 59, 127
9, 446760, Note_on_c, 3, 59, 127
9, 446880, Note_off_c, 3, 62, 127
9, 446880, Note_on_c, 3, 62, 127
9, 446880, Note_off_c, 3, 59, 127
9, 446880, Note_on_c, 3, 59, 127
9, 447000, Note_off_c, 3, 62, 127
9, 447000, Note_on_c, 3, 62, 127
9, 447000, Note_off_c, 3, 59, 127
9, 447000, Note_on_c, 3, 59, 127
9, 447120, Note_off_c, 3, 62, 127
9, 447120, Note_on_c, 3, 62, 127
9, 447120, Note_off_c, 3, 59, 127
9, 447120, Note_on_c, 3, 59, 127
9, 447240, Note_off_c, 3, 62, 127
9, 447240, Note_on_c, 3, 62, 127
9, 447240, Note_off_c, 3, 59, 127
9, 447240, Note_on_c, 3, 59, 127
9, 447360, Note_off_c, 3, 62, 127
9, 447360, Note_on_c, 3, 62, 127
9, 447360, Note_off_c, 3, 59, 127
9, 447360, Note_on_c, 3, 59, 127
9, 447480, Note_off_c, 3, 62, 127
9, 447480, Note_on_c, 3, 62, 127
9, 447480, Note_off_c, 3, 59, 127
9, 447480, Note_on_c, 3, 59, 127
9, 447600, Note_off_c, 3, 62, 127
9, 447600, Note_on_c, 3, 62, 127
9, 447600, Note_off_c, 3, 59, 127
9, 447600, Note_on_c, 3, 59, 127
9, 447720, Note_off_c, 3, 62, 127
9, 447720, Note_on_c, 3, 62, 127
9, 447720, Note_off_c, 3, 59, 127
9, 447720, Note_on_c, 3, 59, 127
9, 447840, Note_off_c, 3, 62, 127
9, 447840, Note_on_c, 3, 62, 127
9, 447840, Note_off_c, 3, 59, 127
9, 447840, Note_on_c, 3, 59, 127
9, 447960, Note_off_c, 3, 62, 127
9, 447960, Note_on_c, 3, 62, 127
9, 447960, Note_off_c, 3, 59, 127
9, 447960, Note_on_c, 3, 59, 127
9, 448080, Note_off_c, 3, 62, 127
9, 448080, Note_on_c, 3, 62, 127
9, 448080, Note_off_c, 3, 59, 127
9, 448080, Note_on_c, 3, 59, 127
9, 448200, Note_off_c, 3, 62, 127
9, 448200, Note_on_c, 3, 62, 127
9, 448200, Note_off_c, 3, 59, 127
9, 448200, Note_on_c, 3, 59, 127
9, 448320, Note_off_c, 3, 62, 127
9, 448320, Note_on_c, 3, 62, 127
9, 448320, Note_off_c, 3, 59, 127
9, 448320, Note_on_c, 3, 59, 127
9, 448440, Note_off_c, 3, 62, 127
9, 448440, Note_on_c, 3, 62, 127
9, 448440, Note_off_c, 3, 59, 127
9, 448440, Note_on_c, 3, 59, 127
9, 448560, Note_off_c, 3, 62, 127
9, 448560, Note_on_c, 3, 62, 127
9, 448560, Note_off_c, 3, 59, 127
9, 448560, Note_on_c, 3, 59, 127
9, 448680, Note_off_c, 3, 62, 127
9, 448680, Note_on_c, 3, 62, 127
9, 448680, Note_off_c, 3, 59, 127
9, 448680, Note_on_c, 3, 59, 127
9, 448800, Note_off_c, 3, 62, 127
9, 448800, Note_on_c, 3, 62, 127
9, 448800, Note_off_c, 3, 59, 127
9, 448800, Note_on_c, 3, 59, 127
9, 448920, Note_off_c, 3, 62, 127
9, 448920, Note_on_c, 3, 62, 127
9, 448920, Note_off_c, 3, 59, 127
9, 448920, Note_on_c, 3, 59, 127
9, 449040, Note_off_c, 3, 62, 127
9, 449040, Note_on_c, 3, 62, 127
9, 449040, Note_off_c, 3, 59, 127
9, 449040, Note_on_c, 3, 59, 127
9, 449160, Note_off_c, 3, 62, 127
9, 449160, Note_on_c, 3, 62, 127
9, 449160, Note_off_c, 3, 59, 127
9, 449160, Note_on_c, 3, 59, 127
9, 449279, Note_off_c, 3, 62, 127
9, 449279, Note_off_c, 3, 59, 127
9, 449280, Note_on_c, 3, 64, 127
9, 449280, Note_on_c, 3, 61, 127
9, 449400, Note_off_c, 3, 64, 127
9, 449400, Note_on_c, 3, 64, 127
9, 449400, Note_off_c, 3, 61, 127
9, 449400, Note_on_c, 3, 61, 127
9, 449520, Note_off_c, 3, 64, 127
9, 449520, Note_on_c, 3, 64, 127
9, 449520, Note_off_c, 3, 61, 127
9, 449520, Note_on_c, 3, 61, 127
9, 449640, Note_off_c, 3, 64, 127
9, 449640, Note_on_c, 3, 64, 127
9, 449640, Note_off_c, 3, 61, 127
9, 449640, Note_on_c, 3, 61, 127
9, 449760, Note_off_c, 3, 64, 127
9, 449760, Note_on_c, 3, 64, 127
9, 449760, Note_off_c, 3, 61, 127
9, 449760, Note_on_c, 3, 61, 127
9, 449880, Note_off_c, 3, 64, 127
9, 449880, Note_on_c, 3, 64, 127
9, 449880, Note_off_c, 3, 61, 127
9, 449880, Note_on_c, 3, 61, 127
9, 450000, Note_off_c, 3, 64, 127
9, 450000, Note_on_c, 3, 64, 127
9, 450000, Note_off_c, 3, 61, 127
9, 450000, Note_on_c, 3, 61, 127
9, 450120, Note_off_c, 3, 64, 127
9, 450120, Note_on_c, 3, 64, 127
9, 450120, Note_off_c, 3, 61, 127
9, 450120, Note_on_c, 3, 61, 127
9, 450239, Note_off_c, 3, 64, 127
9, 450239, Note_off_c, 3, 61, 127
9, 450240, Note_on_c, 3, 66, 127
9, 450240, Note_on_c, 3, 62, 127
9, 450360, Note_off_c, 3, 66, 127
9, 450360, Note_on_c, 3, 66, 127
9, 450360, Note_off_c, 3, 62, 127
9, 450360, Note_on_c, 3, 62, 127
9, 450480, Note_off_c, 3, 66, 127
9, 450480, Note_on_c, 3, 66, 127
9, 450480, Note_off_c, 3, 62, 127
9, 450480, Note_on_c, 3, 62, 127
9, 450600, Note_off_c, 3, 66, 127
9, 450600, Note_on_c, 3, 66, 127
9, 450600, Note_off_c, 3, 62, 127
9, 450600, Note_on_c, 3, 62, 127
9, 450720, Note_off_c, 3, 66, 127
9, 450720, Note_on_c, 3, 66, 127
9, 450720, Note_off_c, 3, 62, 127
9, 450720, Note_on_c, 3, 62, 127
9, 450840, Note_off_c, 3, 66, 127
9, 450840, Note_on_c, 3, 66, 127
9, 450840, Note_off_c, 3, 62, 127
9, 450840, Note_on_c, 3, 62, 127
9, 450960, Note_off_c, 3, 66, 127
9, 450960, Note_on_c, 3, 66, 127
9, 450960, Note_off_c, 3, 62, 127
9, 450960, Note_on_c, 3, 62, 127
9, 451080, Note_off_c, 3, 66, 127
9, 451080, Note_on_c, 3, 66, 127
9, 451080, Note_off_c, 3, 62, 127
9, 451080, Note_on_c, 3, 62, 127
9, 451199, Note_off_c, 3, 66, 127
9, 451199, Note_off_c, 3, 62, 127
9, 451200, Note_on_c, 3, 61, 127
9, 451200, Note_on_c, 3, 58, 127
9, 451320, Note_off_c, 3, 61, 127
9, 451320, Note_on_c, 3, 61, 127
9, 451320, Note_off_c, 3, 58, 127
9, 451320, Note_on_c, 3, 58, 127
9, 451440, Note_off_c, 3, 61, 127
9, 451440, Note_on_c, 3, 61, 127
9, 451440, Note_off_c, 3, 58, 127
9, 451440, Note_on_c, 3, 58, 127
9, 451560, Note_off_c, 3, 61, 127
9, 451560, Note_on_c, 3, 61, 127
9, 451560, Note_off_c, 3, 58, 127
9, 451560, Note_on_c, 3, 58, 127
9, 451680, Note_off_c, 3, 61, 127
9, 451680, Note_on_c, 3, 61, 127
9, 451680, Note_off_c, 3, 58, 127
9, 451680, Note_on_c, 3, 58, 127
9, 451800, Note_off_c, 3, 61, 127
9, 451800, Note_on_c, 3, 61, 127
9, 451800, Note_off_c, 3, 58, 127
9, 451800, Note_on_c, 3, 58, 127
9, 451920, Note_off_c, 3, 61, 127
9, 451920, Note_on_c, 3, 61, 127
9, 451920, Note_off_c, 3, 58, 127
9, 451920, Note_on_c, 3, 58, 127
9, 452040, Note_off_c, 3, 61, 127
9, 452040, Note_on_c, 3, 61, 127
9, 452040, Note_off_c, 3, 58, 127
9, 452040, Note_on_c, 3, 58, 127
9, 452160, Note_off_c, 3, 61, 127
9, 452160, Note_on_c, 3, 61, 127
9, 452160, Note_off_c, 3, 58, 127
9, 452160, Note_on_c, 3, 58, 127
9, 452280, Note_off_c, 3, 61, 127
9, 452280, Note_on_c, 3, 61, 127
9, 452280, Note_off_c, 3, 58, 127
9, 452280, Note_on_c, 3, 58, 127
9, 452400, Note_off_c, 3, 61, 127
9, 452400, Note_on_c, 3, 61, 127
9, 452400, Note_off_c, 3, 58, 127
9, 452400, Note_on_c, 3, 58, 127
9, 452520, Note_off_c, 3, 61, 127
9, 452520, Note_on_c, 3, 61, 127
9, 452520, Note_off_c, 3, 58, 127
9, 452520, Note_on_c, 3, 58, 127
9, 452640, Note_off_c, 3, 61, 127
9, 452640, Note_on_c, 3, 61, 127
9, 452640, Note_off_c, 3, 58, 127
9, 452640, Note_on_c, 3, 58, 127
9, 452760, Note_off_c, 3, 61, 127
9, 452760, Note_on_c, 3, 61, 127
9, 452760, Note_off_c, 3, 58, 127
9, 452760, Note_on_c, 3, 58, 127
9, 452880, Note_off_c, 3, 61, 127
9, 452880, Note_on_c, 3, 61, 127
9, 452880, Note_off_c, 3, 58, 127
9, 452880, Note_on_c, 3, 58, 127
9, 453000, Note_off_c, 3, 61, 127
9, 453000, Note_on_c, 3, 61, 127
9, 453000, Note_off_c, 3, 58, 127
9, 453000, Note_on_c, 3, 58, 127
9, 453120, Note_off_c, 3, 61, 127
9, 453120, Note_on_c, 3, 61, 127
9, 453120, Note_off_c, 3, 58, 127
9, 453120, Note_on_c, 3, 58, 127
9, 453240, Note_off_c, 3, 61, 127
9, 453240, Note_on_c, 3, 61, 127
9, 453240, Note_off_c, 3, 58, 127
9, 453240, Note_on_c, 3, 58, 127
9, 453360, Note_off_c, 3, 61, 127
9, 453360, Note_on_c, 3, 61, 127
9, 453360, Note_off_c, 3, 58, 127
9, 453360, Note_on_c, 3, 58, 127
9, 453480, Note_off_c, 3, 61, 127
9, 453480, Note_on_c, 3, 61, 127
9, 453480, Note_off_c, 3, 58, 127
9, 453480, Note_on_c, 3, 58, 127
9, 453600, Note_off_c, 3, 61, 127
9, 453600, Note_on_c, 3, 61, 127
9, 453600, Note_off_c, 3, 58, 127
9, 453600, Note_on_c, 3, 58, 127
9, 453720, Note_off_c, 3, 61, 127
9, 453720, Note_on_c, 3, 61, 127
9, 453720, Note_off_c, 3, 58, 127
9, 453720, Note_on_c, 3, 58, 127
9, 453840, Note_off_c, 3, 61, 127
9, 453840, Note_on_c, 3, 61, 127
9, 453840, Note_off_c, 3, 58, 127
9, 453840, Note_on_c, 3, 58, 127
9, 453960, Note_off_c, 3, 61, 127
9, 453960, Note_on_c, 3, 61, 127
9, 453960, Note_off_c, 3, 58, 127
9, 453960, Note_on_c, 3, 58, 127
9, 454080, Note_off_c, 3, 61, 127
9, 454080, Note_on_c, 3, 61, 127
9, 454080, Note_off_c, 3, 58, 127
9, 454080, Note_on_c, 3, 58, 127
9, 454200, Note_off_c, 3, 61, 127
9, 454200, Note_on_c, 3, 61, 127
9, 454200, Note_off_c, 3, 58, 127
9, 454200, Note_on_c, 3, 58, 127
9, 454320, Note_off_c, 3, 61, 127
9, 454320, Note_on_c, 3, 61, 127
9, 454320, Note_off_c, 3, 58, 127
9, 454320, Note_on_c, 3, 58, 127
9, 454440, Note_off_c, 3, 61, 127
9, 454440, Note_on_c, 3, 61, 127
9, 454440, Note_off_c, 3, 58, 127
9, 454440, Note_on_c, 3, 58, 127
9, 454560, Note_off_c, 3, 61, 127
9, 454560, Note_on_c, 3, 61, 127
9, 454560, Note_off_c, 3, 58, 127
9, 454560, Note_on_c, 3, 58, 127
9, 454680, Note_off_c, 3, 61, 127
9, 454680, Note_on_c, 3, 61, 127
9, 454680, Note_off_c, 3, 58, 127
9, 454680, Note_on_c, 3, 58, 127
9, 454800, Note_off_c, 3, 61, 127
9, 454800, Note_on_c, 3, 61, 127
9, 454800, Note_off_c, 3, 58, 127
9, 454800, Note_on_c, 3, 58, 127
9, 454920, Note_off_c, 3, 61, 127
9, 454920, Note_on_c, 3, 61, 127
9, 454920, Note_off_c, 3, 58, 127
9, 454920, Note_on_c, 3, 58, 127
9, 455040, Note_off_c, 3, 61, 127
9, 455040, Note_on_c, 3, 61, 127
9, 455040, Note_off_c, 3, 58, 127
9, 455040, Note_on_c, 3, 58, 127
9, 455160, Note_off_c, 3, 61, 127
9, 455160, Note_on_c, 3, 61, 127
9, 455160, Note_off_c, 3, 58, 127
9, 455160, Note_on_c, 3, 58, 127
9, 455280, Note_off_c, 3, 61, 127
9, 455280, Note_on_c, 3, 61, 127
9, 455280, Note_off_c, 3, 58, 127
9, 455280, Note_on_c, 3, 58, 127
9, 455400, Note_off_c, 3, 61, 127
9, 455400, Note_on_c, 3, 61, 127
9, 455400, Note_off_c, 3, 58, 127
9, 455400, Note_on_c, 3, 58, 127
9, 455520, Note_off_c, 3, 61, 127
9, 455520, Note_on_c, 3, 61, 127
9, 455520, Note_off_c, 3, 58, 127
9, 455520, Note_on_c, 3, 58, 127
9, 455640, Note_off_c, 3, 61, 127
9, 455640, Note_on_c, 3, 61, 127
9, 455640, Note_off_c, 3, 58, 127
9, 455640, Note_on_c, 3, 58, 127
9, 455760, Note_off_c, 3, 61, 127
9, 455760, Note_on_c, 3, 61, 127
9, 455760, Note_off_c, 3, 58, 127
9, 455760, Note_on_c, 3, 58, 127
9, 455880, Note_off_c, 3, 61, 127
9, 455880, Note_on_c, 3, 61, 127
9, 455880, Note_off_c, 3, 58, 127
9, 455880, Note_on_c, 3, 58, 127
9, 456000, Note_off_c, 3, 61, 127
9, 456000, Note_on_c, 3, 61, 127
9, 456000, Note_off_c, 3, 58, 127
9, 456000, Note_on_c, 3, 58, 127
9, 456120, Note_off_c, 3, 61, 127
9, 456120, Note_on_c, 3, 61, 127
9, 456120, Note_off_c, 3, 58, 127
9, 456120, Note_on_c, 3, 58, 127
9, 456240, Note_off_c, 3, 61, 127
9, 456240, Note_on_c, 3, 61, 127
9, 456240, Note_off_c, 3, 58, 127
9, 456240, Note_on_c, 3, 58, 127
9, 456360, Note_off_c, 3, 61, 127
9, 456360, Note_on_c, 3, 61, 127
9, 456360, Note_off_c, 3, 58, 127
9, 456360, Note_on_c, 3, 58, 127
9, 456480, Note_off_c, 3, 61, 127
9, 456480, Note_on_c, 3, 61, 127
9, 456480, Note_off_c, 3, 58, 127
9, 456480, Note_on_c, 3, 58, 127
9, 456600, Note_off_c, 3, 61, 127
9, 456600, Note_on_c, 3, 61, 127
9, 456600, Note_off_c, 3, 58, 127
9, 456600, Note_on_c, 3, 58, 127
9, 456720, Note_off_c, 3, 61, 127
9, 456720, Note_on_c, 3, 61, 127
9, 456720, Note_off_c, 3, 58, 127
9, 456720, Note_on_c, 3, 58, 127
9, 456840, Note_off_c, 3, 61, 127
9, 456840, Note_on_c, 3, 61, 127
9, 456840, Note_off_c, 3, 58, 127
9, 456840, Note_on_c, 3, 58, 127
9, 456959, Note_off_c, 3, 61, 127
9, 456959, Note_off_c, 3, 58, 127
9, 456960, Note_on_c, 3, 62, 127
9, 456960, Note_on_c, 3, 59, 127
9, 457080, Note_off_c, 3, 62, 127
9, 457080, Note_on_c, 3, 62, 127
9, 457080, Note_off_c, 3, 59, 127
9, 457080, Note_on_c, 3, 59, 127
9, 457200, Note_off_c, 3, 62, 127
9, 457200, Note_on_c, 3, 62, 127
9, 457200, Note_off_c, 3, 59, 127
9, 457200, Note_on_c, 3, 59, 127
9, 457320, Note_off_c, 3, 62, 127
9, 457320, Note_on_c, 3, 62, 127
9, 457320, Note_off_c, 3, 59, 127
9, 457320, Note_on_c, 3, 59, 127
9, 457440, Note_off_c, 3, 62, 127
9, 457440, Note_on_c, 3, 62, 127
9, 457440, Note_off_c, 3, 59, 127
9, 457440, Note_on_c, 3, 59, 127
9, 457560, Note_off_c, 3, 62, 127
9, 457560, Note_on_c, 3, 62, 127
9, 457560, Note_off_c, 3, 59, 127
9, 457560, Note_on_c, 3, 59, 127
9, 457680, Note_off_c, 3, 62, 127
9, 457680, Note_on_c, 3, 62, 127
9, 457680, Note_off_c, 3, 59, 127
9, 457680, Note_on_c, 3, 59, 127
9, 457800, Note_off_c, 3, 62, 127
9, 457800, Note_on_c, 3, 62, 127
9, 457800, Note_off_c, 3, 59, 127
9, 457800, Note_on_c, 3, 59, 127
9, 457920, Note_off_c, 3, 62, 127
9, 457920, Note_on_c, 3, 62, 127
9, 457920, Note_off_c, 3, 59, 127
9, 457920, Note_on_c, 3, 59, 127
9, 458040, Note_off_c, 3, 62, 127
9, 458040, Note_on_c, 3, 62, 127
9, 458040, Note_off_c, 3, 59, 127
9, 458040, Note_on_c, 3, 59, 127
9, 458160, Note_off_c, 3, 62, 127
9, 458160, Note_on_c, 3, 62, 127
9, 458160, Note_off_c, 3, 59, 127
9, 458160, Note_on_c, 3, 59, 127
9, 458280, Note_off_c, 3, 62, 127
9, 458280, Note_on_c, 3, 62, 127
9, 458280, Note_off_c, 3, 59, 127
9, 458280, Note_on_c, 3, 59, 127
9, 458400, Note_off_c, 3, 62, 127
9, 458400, Note_on_c, 3, 62, 127
9, 458400, Note_off_c, 3, 59, 127
9, 458400, Note_on_c, 3, 59, 127
9, 458520, Note_off_c, 3, 62, 127
9, 458520, Note_on_c, 3, 62, 127
9, 458520, Note_off_c, 3, 59, 127
9, 458520, Note_on_c, 3, 59, 127
9, 458640, Note_off_c, 3, 62, 127
9, 458640, Note_on_c, 3, 62, 127
9, 458640, Note_off_c, 3, 59, 127
9, 458640, Note_on_c, 3, 59, 127
9, 458760, Note_off_c, 3, 62, 127
9, 458760, Note_on_c, 3, 62, 127
9, 458760, Note_off_c, 3, 59, 127
9, 458760, Note_on_c, 3, 59, 127
9, 458880, Note_off_c, 3, 62, 127
9, 458880, Note_on_c, 3, 62, 127
9, 458880, Note_off_c, 3, 59, 127
9, 458880, Note_on_c, 3, 59, 127
9, 459000, Note_off_c, 3, 62, 127
9, 459000, Note_on_c, 3, 62, 127
9, 459000, Note_off_c, 3, 59, 127
9, 459000, Note_on_c, 3, 59, 127
9, 459120, Note_off_c, 3, 62, 127
9, 459120, Note_on_c, 3, 62, 127
9, 459120, Note_off_c, 3, 59, 127
9, 459120, Note_on_c, 3, 59, 127
9, 459240, Note_off_c, 3, 62, 127
9, 459240, Note_on_c, 3, 62, 127
9, 459240, Note_off_c, 3, 59, 127
9, 459240, Note_on_c, 3, 59, 127
9, 459360, Note_off_c, 3, 62, 127
9, 459360, Note_on_c, 3, 62, 127
9, 459360, Note_off_c, 3, 59, 127
9, 459360, Note_on_c, 3, 59, 127
9, 459480, Note_off_c, 3, 62, 127
9, 459480, Note_on_c, 3, 62, 127
9, 459480, Note_off_c, 3, 59, 127
9, 459480, Note_on_c, 3, 59, 127
9, 459600, Note_off_c, 3, 62, 127
9, 459600, Note_on_c, 3, 62, 127
9, 459600, Note_off_c, 3, 59, 127
9, 459600, Note_on_c, 3, 59, 127
9, 459720, Note_off_c, 3, 62, 127
9, 459720, Note_on_c, 3, 62, 127
9, 459720, Note_off_c, 3, 59, 127
9, 459720, Note_on_c, 3, 59, 127
9, 459840, Note_off_c, 3, 62, 127
9, 459840, Note_on_c, 3, 62, 127
9, 459840, Note_off_c, 3, 59, 127
9, 459840, Note_on_c, 3, 59, 127
9, 459960, Note_off_c, 3, 62, 127
9, 459960, Note_on_c, 3, 62, 127
9, 459960, Note_off_c, 3, 59, 127
9, 459960, Note_on_c, 3, 59, 127
9, 460080, Note_off_c, 3, 62, 127
9, 460080, Note_on_c, 3, 62, 127
9, 460080, Note_off_c, 3, 59, 127
9, 460080, Note_on_c, 3, 59, 127
9, 460200, Note_off_c, 3, 62, 127
9, 460200, Note_on_c, 3, 62, 127
9, 460200, Note_off_c, 3, 59, 127
9, 460200, Note_on_c, 3, 59, 127
9, 460320, Note_off_c, 3, 62, 127
9, 460320, Note_on_c, 3, 62, 127
9, 460320, Note_off_c, 3, 59, 127
9, 460320, Note_on_c, 3, 59, 127
9, 460440, Note_off_c, 3, 62, 127
9, 460440, Note_on_c, 3, 62, 127
9, 460440, Note_off_c, 3, 59, 127
9, 460440, Note_on_c, 3, 59, 127
9, 460560, Note_off_c, 3, 62, 127
9, 460560, Note_on_c, 3, 62, 127
9, 460560, Note_off_c, 3, 59, 127
9, 460560, Note_on_c, 3, 59, 127
9, 460680, Note_off_c, 3, 62, 127
9, 460680, Note_on_c, 3, 62, 127
9, 460680, Note_off_c, 3, 59, 127
9, 460680, Note_on_c, 3, 59, 127
9, 460799, Note_off_c, 3, 62, 127
9, 460799, Note_off_c, 3, 59, 127
9, 460800, Note_on_c, 3, 64, 127
9, 460800, Note_on_c, 3, 61, 127
9, 460920, Note_off_c, 3, 64, 127
9, 460920, Note_on_c, 3, 64, 127
9, 460920, Note_off_c, 3, 61, 127
9, 460920, Note_on_c, 3, 61, 127
9, 461040, Note_off_c, 3, 64, 127
9, 461040, Note_on_c, 3, 64, 127
9, 461040, Note_off_c, 3, 61, 127
9, 461040, Note_on_c, 3, 61, 127
9, 461160, Note_off_c, 3, 64, 127
9, 461160, Note_on_c, 3, 64, 127
9, 461160, Note_off_c, 3, 61, 127
9, 461160, Note_on_c, 3, 61, 127
9, 461280, Note_off_c, 3, 64, 127
9, 461280, Note_on_c, 3, 64, 127
9, 461280, Note_off_c, 3, 61, 127
9, 461280, Note_on_c, 3, 61, 127
9, 461400, Note_off_c, 3, 64, 127
9, 461400, Note_on_c, 3, 64, 127
9, 461400, Note_off_c, 3, 61, 127
9, 461400, Note_on_c, 3, 61, 127
9, 461520, Note_off_c, 3, 64, 127
9, 461520, Note_on_c, 3, 64, 127
9, 461520, Note_off_c, 3, 61, 127
9, 461520, Note_on_c, 3, 61, 127
9, 461640, Note_off_c, 3, 64, 127
9, 461640, Note_on_c, 3, 64, 127
9, 461640, Note_off_c, 3, 61, 127
9, 461640, Note_on_c, 3, 61, 127
9, 461759, Note_off_c, 3, 64, 127
9, 461759, Note_off_c, 3, 61, 127
9, 461760, Note_on_c, 3, 66, 127
9, 461760, Note_on_c, 3, 62, 127
9, 461880, Note_off_c, 3, 66, 127
9, 461880, Note_on_c, 3, 66, 127
9, 461880, Note_off_c, 3, 62, 127
9, 461880, Note_on_c, 3, 62, 127
9, 462000, Note_off_c, 3, 66, 127
9, 462000, Note_on_c, 3, 66, 127
9, 462000, Note_off_c, 3, 62, 127
9, 462000, Note_on_c, 3, 62, 127
9, 462120, Note_off_c, 3, 66, 127
9, 462120, Note_on_c, 3, 66, 127
9, 462120, Note_off_c, 3, 62, 127
9, 462120, Note_on_c, 3, 62, 127
9, 462240, Note_off_c, 3, 66, 127
9, 462240, Note_on_c, 3, 66, 127
9, 462240, Note_off_c, 3, 62, 127
9, 462240, Note_on_c, 3, 62, 127
9, 462360, Note_off_c, 3, 66, 127
9, 462360, Note_on_c, 3, 66, 127
9, 462360, Note_off_c, 3, 62, 127
9, 462360, Note_on_c, 3, 62, 127
9, 462480, Note_off_c, 3, 66, 127
9, 462480, Note_on_c, 3, 66, 127
9, 462480, Note_off_c, 3, 62, 127
9, 462480, Note_on_c, 3, 62, 127
9, 462600, Note_off_c, 3, 66, 127
9, 462600, Note_on_c, 3, 66, 127
9, 462600, Note_off_c, 3, 62, 127
9, 462600, Note_on_c, 3, 62, 127
9, 462719, Note_off_c, 3, 66, 127
9, 462719, Note_off_c, 3, 62, 127
9, 462720, Note_on_c, 3, 61, 127
9, 462720, Note_on_c, 3, 58, 127
9, 462840, Note_off_c, 3, 61, 127
9, 462840, Note_on_c, 3, 61, 127
9, 462840, Note_off_c, 3, 58, 127
9, 462840, Note_on_c, 3, 58, 127
9, 462960, Note_off_c, 3, 61, 127
9, 462960, Note_on_c, 3, 61, 127
9, 462960, Note_off_c, 3, 58, 127
9, 462960, Note_on_c, 3, 58, 127
9, 463080, Note_off_c, 3, 61, 127
9, 463080, Note_on_c, 3, 61, 127
9, 463080, Note_off_c, 3, 58, 127
9, 463080, Note_on_c, 3, 58, 127
9, 463200, Note_off_c, 3, 61, 127
9, 463200, Note_on_c, 3, 61, 127
9, 463200, Note_off_c, 3, 58, 127
9, 463200, Note_on_c, 3, 58, 127
9, 463320, Note_off_c, 3, 61, 127
9, 463320, Note_on_c, 3, 61, 127
9, 463320, Note_off_c, 3, 58, 127
9, 463320, Note_on_c, 3, 58, 127
9, 463440, Note_off_c, 3, 61, 127
9, 463440, Note_on_c, 3, 61, 127
9, 463440, Note_off_c, 3, 58, 127
9, 463440, Note_on_c, 3, 58, 127
9, 463560, Note_off_c, 3, 61, 127
9, 463560, Note_on_c, 3, 61, 127
9, 463560, Note_off_c, 3, 58, 127
9, 463560, Note_on_c, 3, 58, 127
9, 463680, Note_off_c, 3, 61, 127
9, 463680, Note_on_c, 3, 61, 127
9, 463680, Note_off_c, 3, 58, 127
9, 463680, Note_on_c, 3, 58, 127
9, 463800, Note_off_c, 3, 61, 127
9, 463800, Note_on_c, 3, 61, 127
9, 463800, Note_off_c, 3, 58, 127
9, 463800, Note_on_c, 3, 58, 127
9, 463920, Note_off_c, 3, 61, 127
9, 463920, Note_on_c, 3, 61, 127
9, 463920, Note_off_c, 3, 58, 127
9, 463920, Note_on_c, 3, 58, 127
9, 464040, Note_off_c, 3, 61, 127
9, 464040, Note_on_c, 3, 61, 127
9, 464040, Note_off_c, 3, 58, 127
9, 464040, Note_on_c, 3, 58, 127
9, 464160, Note_off_c, 3, 61, 127
9, 464160, Note_on_c, 3, 61, 127
9, 464160, Note_off_c, 3, 58, 127
9, 464160, Note_on_c, 3, 58, 127
9, 464280, Note_off_c, 3, 61, 127
9, 464280, Note_on_c, 3, 61, 127
9, 464280, Note_off_c, 3, 58, 127
9, 464280, Note_on_c, 3, 58, 127
9, 464400, Note_off_c, 3, 61, 127
9, 464400, Note_on_c, 3, 61, 127
9, 464400, Note_off_c, 3, 58, 127
9, 464400, Note_on_c, 3, 58, 127
9, 464520, Note_off_c, 3, 61, 127
9, 464520, Note_on_c, 3, 61, 127
9, 464520, Note_off_c, 3, 58, 127
9, 464520, Note_on_c, 3, 58, 127
9, 464640, Note_off_c, 3, 61, 127
9, 464640, Note_on_c, 3, 61, 127
9, 464640, Note_off_c, 3, 58, 127
9, 464640, Note_on_c, 3, 58, 127
9, 464760, Note_off_c, 3, 61, 127
9, 464760, Note_on_c, 3, 61, 127
9, 464760, Note_off_c, 3, 58, 127
9, 464760, Note_on_c, 3, 58, 127
9, 464880, Note_off_c, 3, 61, 127
9, 464880, Note_on_c, 3, 61, 127
9, 464880, Note_off_c, 3, 58, 127
9, 464880, Note_on_c, 3, 58, 127
9, 465000, Note_off_c, 3, 61, 127
9, 465000, Note_on_c, 3, 61, 127
9, 465000, Note_off_c, 3, 58, 127
9, 465000, Note_on_c, 3, 58, 127
9, 465120, Note_off_c, 3, 61, 127
9, 465120, Note_on_c, 3, 61, 127
9, 465120, Note_off_c, 3, 58, 127
9, 465120, Note_on_c, 3, 58, 127
9, 465240, Note_off_c, 3, 61, 127
9, 465240, Note_on_c, 3, 61, 127
9, 465240, Note_off_c, 3, 58, 127
9, 465240, Note_on_c, 3, 58, 127
9, 465360, Note_off_c, 3, 61, 127
9, 465360, Note_on_c, 3, 61, 127
9, 465360, Note_off_c, 3, 58, 127
9, 465360, Note_on_c, 3, 58, 127
9, 465480, Note_off_c, 3, 61, 127
9, 465480, Note_on_c, 3, 61, 127
9, 465480, Note_off_c, 3, 58, 127
9, 465480, Note_on_c, 3, 58, 127
9, 465600, Note_off_c, 3, 61, 127
9, 465600, Note_on_c, 3, 61, 127
9, 465600, Note_off_c, 3, 58, 127
9, 465600, Note_on_c, 3, 58, 127
9, 465720, Note_off_c, 3, 61, 127
9, 465720, Note_on_c, 3, 61, 127
9, 465720, Note_off_c, 3, 58, 127
9, 465720, Note_on_c, 3, 58, 127
9, 465840, Note_off_c, 3, 61, 127
9, 465840, Note_on_c, 3, 61, 127
9, 465840, Note_off_c, 3, 58, 127
9, 465840, Note_on_c, 3, 58, 127
9, 465960, Note_off_c, 3, 61, 127
9, 465960, Note_on_c, 3, 61, 127
9, 465960, Note_off_c, 3, 58, 127
9, 465960, Note_on_c, 3, 58, 127
9, 466080, Note_off_c, 3, 61, 127
9, 466080, Note_on_c, 3, 61, 127
9, 466080, Note_off_c, 3, 58, 127
9, 466080, Note_on_c, 3, 58, 127
9, 466200, Note_off_c, 3, 61, 127
9, 466200, Note_on_c, 3, 61, 127
9, 466200, Note_off_c, 3, 58, 127
9, 466200, Note_on_c, 3, 58, 127
9, 466320, Note_off_c, 3, 61, 127
9, 466320, Note_on_c, 3, 61, 127
9, 466320, Note_off_c, 3, 58, 127
9, 466320, Note_on_c, 3, 58, 127
9, 466440, Note_off_c, 3, 61, 127
9, 466440, Note_on_c, 3, 61, 127
9, 466440, Note_off_c, 3, 58, 127
9, 466440, Note_on_c, 3, 58, 127
9, 466560, Note_off_c, 3, 61, 127
9, 466560, Note_on_c, 3, 61, 127
9, 466560, Note_off_c, 3, 58, 127
9, 466560, Note_on_c, 3, 58, 127
9, 466680, Note_off_c, 3, 61, 127
9, 466680, Note_on_c, 3, 61, 127
9, 466680, Note_off_c, 3, 58, 127
9, 466680, Note_on_c, 3, 58, 127
9, 466800, Note_off_c, 3, 61, 127
9, 466800, Note_on_c, 3, 61, 127
9, 466800, Note_off_c, 3, 58, 127
9, 466800, Note_on_c, 3, 58, 127
9, 466920, Note_off_c, 3, 61, 127
9, 466920, Note_on_c, 3, 61, 127
9, 466920, Note_off_c, 3, 58, 127
9, 466920, Note_on_c, 3, 58, 127
9, 467040, Note_off_c, 3, 61, 127
9, 467040, Note_on_c, 3, 61, 127
9, 467040, Note_off_c, 3, 58, 127
9, 467040, Note_on_c, 3, 58, 127
9, 467160, Note_off_c, 3, 61, 127
9, 467160, Note_on_c, 3, 61, 127
9, 467160, Note_off_c, 3, 58, 127
9, 467160, Note_on_c, 3, 58, 127
9, 467280, Note_off_c, 3, 61, 127
9, 467280, Note_on_c, 3, 61, 127
9, 467280, Note_off_c, 3, 58, 127
9, 467280, Note_on_c, 3, 58, 127
9, 467400, Note_off_c, 3, 61, 127
9, 467400, Note_on_c, 3, 61, 127
9, 467400, Note_off_c, 3, 58, 127
9, 467400, Note_on_c, 3, 58, 127
9, 467520, Note_off_c, 3, 61, 127
9, 467520, Note_on_c, 3, 61, 127
9, 467520, Note_off_c, 3, 58, 127
9, 467520, Note_on_c, 3, 58, 127
9, 467640, Note_off_c, 3, 61, 127
9, 467640, Note_on_c, 3, 61, 127
9, 467640, Note_off_c, 3, 58, 127
9, 467640, Note_on_c, 3, 58, 127
9, 467760, Note_off_c, 3, 61, 127
9, 467760, Note_on_c, 3, 61, 127
9, 467760, Note_off_c, 3, 58, 127
9, 467760, Note_on_c, 3, 58, 127
9, 467880, Note_off_c, 3, 61, 127
9, 467880, Note_on_c, 3, 61, 127
9, 467880, Note_off_c, 3, 58, 127
9, 467880, Note_on_c, 3, 58, 127
9, 468000, Note_off_c, 3, 61, 127
9, 468000, Note_on_c, 3, 61, 127
9, 468000, Note_off_c, 3, 58, 127
9, 468000, Note_on_c, 3, 58, 127
9, 468120, Note_off_c, 3, 61, 127
9, 468120, Note_on_c, 3, 61, 127
9, 468120, Note_off_c, 3, 58, 127
9, 468120, Note_on_c, 3, 58, 127
9, 468240, Note_off_c, 3, 61, 127
9, 468240, Note_on_c, 3, 61, 127
9, 468240, Note_off_c, 3, 58, 127
9, 468240, Note_on_c, 3, 58, 127
9, 468360, Note_off_c, 3, 61, 127
9, 468360, Note_on_c, 3, 61, 127
9, 468360, Note_off_c, 3, 58, 127
9, 468360, Note_on_c, 3, 58, 127
9, 468479, Note_off_c, 3, 61, 127
9, 468479, Note_off_c, 3, 58, 127
9, 468480, Note_on_c, 3, 62, 127
9, 468480, Note_on_c, 3, 59, 127
9, 468600, Note_off_c, 3, 62, 127
9, 468600, Note_on_c, 3, 62, 127
9, 468600, Note_off_c, 3, 59, 127
9, 468600, Note_on_c, 3, 59, 127
9, 468720, Note_off_c, 3, 62, 127
9, 468720, Note_on_c, 3, 62, 127
9, 468720, Note_off_c, 3, 59, 127
9, 468720, Note_on_c, 3, 59, 127
9, 468840, Note_off_c, 3, 62, 127
9, 468840, Note_on_c, 3, 62, 127
9, 468840, Note_off_c, 3, 59, 127
9, 468840, Note_on_c, 3, 59, 127
9, 468960, Note_off_c, 3, 62, 127
9, 468960, Note_on_c, 3, 62, 127
9, 468960, Note_off_c, 3, 59, 127
9, 468960, Note_on_c, 3, 59, 127
9, 469080, Note_off_c, 3, 62, 127
9, 469080, Note_on_c, 3, 62, 127
9, 469080, Note_off_c, 3, 59, 127
9, 469080, Note_on_c, 3, 59, 127
9, 469200, Note_off_c, 3, 62, 127
9, 469200, Note_on_c, 3, 62, 127
9, 469200, Note_off_c, 3, 59, 127
9, 469200, Note_on_c, 3, 59, 127
9, 469320, Note_off_c, 3, 62, 127
9, 469320, Note_on_c, 3, 62, 127
9, 469320, Note_off_c, 3, 59, 127
9, 469320, Note_on_c, 3, 59, 127
9, 469440, Note_off_c, 3, 62, 127
9, 469440, Note_on_c, 3, 62, 127
9, 469440, Note_off_c, 3, 59, 127
9, 469440, Note_on_c, 3, 59, 127
9, 469560, Note_off_c, 3, 62, 127
9, 469560, Note_on_c, 3, 62, 127
9, 469560, Note_off_c, 3, 59, 127
9, 469560, Note_on_c, 3, 59, 127
9, 469680, Note_off_c, 3, 62, 127
9, 469680, Note_on_c, 3, 62, 127
9, 469680, Note_off_c, 3, 59, 127
9, 469680, Note_on_c, 3, 59, 127
9, 469800, Note_off_c, 3, 62, 127
9, 469800, Note_on_c, 3, 62, 127
9, 469800, Note_off_c, 3, 59, 127
9, 469800, Note_on_c, 3, 59, 127
9, 469920, Note_off_c, 3, 62, 127
9, 469920, Note_on_c, 3, 62, 127
9, 469920, Note_off_c, 3, 59, 127
9, 469920, Note_on_c, 3, 59, 127
9, 470040, Note_off_c, 3, 62, 127
9, 470040, Note_on_c, 3, 62, 127
9, 470040, Note_off_c, 3, 59, 127
9, 470040, Note_on_c, 3, 59, 127
9, 470160, Note_off_c, 3, 62, 127
9, 470160, Note_on_c, 3, 62, 127
9, 470160, Note_off_c, 3, 59, 127
9, 470160, Note_on_c, 3, 59, 127
9, 470280, Note_off_c, 3, 62, 127
9, 470280, Note_on_c, 3, 62, 127
9, 470280, Note_off_c, 3, 59, 127
9, 470280, Note_on_c, 3, 59, 127
9, 470400, Note_off_c, 3, 62, 127
9, 470400, Note_on_c, 3, 62, 127
9, 470400, Note_off_c, 3, 59, 127
9, 470400, Note_on_c, 3, 59, 127
9, 470520, Note_off_c, 3, 62, 127
9, 470520, Note_on_c, 3, 62, 127
9, 470520, Note_off_c, 3, 59, 127
9, 470520, Note_on_c, 3, 59, 127
9, 470640, Note_off_c, 3, 62, 127
9, 470640, Note_on_c, 3, 62, 127
9, 470640, Note_off_c, 3, 59, 127
9, 470640, Note_on_c, 3, 59, 127
9, 470760, Note_off_c, 3, 62, 127
9, 470760, Note_on_c, 3, 62, 127
9, 470760, Note_off_c, 3, 59, 127
9, 470760, Note_on_c, 3, 59, 127
9, 470880, Note_off_c, 3, 62, 127
9, 470880, Note_on_c, 3, 62, 127
9, 470880, Note_off_c, 3, 59, 127
9, 470880, Note_on_c, 3, 59, 127
9, 471000, Note_off_c, 3, 62, 127
9, 471000, Note_on_c, 3, 62, 127
9, 471000, Note_off_c, 3, 59, 127
9, 471000, Note_on_c, 3, 59, 127
9, 471120, Note_off_c, 3, 62, 127
9, 471120, Note_on_c, 3, 62, 127
9, 471120, Note_off_c, 3, 59, 127
9, 471120, Note_on_c, 3, 59, 127
9, 471240, Note_off_c, 3, 62, 127
9, 471240, Note_on_c, 3, 62, 127
9, 471240, Note_off_c, 3, 59, 127
9, 471240, Note_on_c, 3, 59, 127
9, 471360, Note_off_c, 3, 62, 127
9, 471360, Note_on_c, 3, 62, 127
9, 471360, Note_off_c, 3, 59, 127
9, 471360, Note_on_c, 3, 59, 127
9, 471480, Note_off_c, 3, 62, 127
9, 471480, Note_on_c, 3, 62, 127
9, 471480, Note_off_c, 3, 59, 127
9, 471480, Note_on_c, 3, 59, 127
9, 471600, Note_off_c, 3, 62, 127
9, 471600, Note_on_c, 3, 62, 127
9, 471600, Note_off_c, 3, 59, 127
9, 471600, Note_on_c, 3, 59, 127
9, 471720, Note_off_c, 3, 62, 127
9, 471720, Note_on_c, 3, 62, 127
9, 471720, Note_off_c, 3, 59, 127
9, 471720, Note_on_c, 3, 59, 127
9, 471840, Note_off_c, 3, 62, 127
9, 471840, Note_on_c, 3, 62, 127
9, 471840, Note_off_c, 3, 59, 127
9, 471840, Note_on_c, 3, 59, 127
9, 471960, Note_off_c, 3, 62, 127
9, 471960, Note_on_c, 3, 62, 127
9, 471960, Note_off_c, 3, 59, 127
9, 471960, Note_on_c, 3, 59, 127
9, 472080, Note_off_c, 3, 62, 127
9, 472080, Note_on_c, 3, 62, 127
9, 472080, Note_off_c, 3, 59, 127
9, 472080, Note_on_c, 3, 59, 127
9, 472200, Note_off_c, 3, 62, 127
9, 472200, Note_on_c, 3, 62, 127
9, 472200, Note_off_c, 3, 59, 127
9, 472200, Note_on_c, 3, 59, 127
9, 472319, Note_off_c, 3, 62, 127
9, 472319, Note_off_c, 3, 59, 127
9, 472320, Note_on_c, 3, 64, 127
9, 472320, Note_on_c, 3, 61, 127
9, 472440, Note_off_c, 3, 64, 127
9, 472440, Note_on_c, 3, 64, 127
9, 472440, Note_off_c, 3, 61, 127
9, 472440, Note_on_c, 3, 61, 127
9, 472560, Note_off_c, 3, 64, 127
9, 472560, Note_on_c, 3, 64, 127
9, 472560, Note_off_c, 3, 61, 127
9, 472560, Note_on_c, 3, 61, 127
9, 472680, Note_off_c, 3, 64, 127
9, 472680, Note_on_c, 3, 64, 127
9, 472680, Note_off_c, 3, 61, 127
9, 472680, Note_on_c, 3, 61, 127
9, 472800, Note_off_c, 3, 64, 127
9, 472800, Note_on_c, 3, 64, 127
9, 472800, Note_off_c, 3, 61, 127
9, 472800, Note_on_c, 3, 61, 127
9, 472920, Note_off_c, 3, 64, 127
9, 472920, Note_on_c, 3, 64, 127
9, 472920, Note_off_c, 3, 61, 127
9, 472920, Note_on_c, 3, 61, 127
9, 473040, Note_off_c, 3, 64, 127
9, 473040, Note_on_c, 3, 64, 127
9, 473040, Note_off_c, 3, 61, 127
9, 473040, Note_on_c, 3, 61, 127
9, 473160, Note_off_c, 3, 64, 127
9, 473160, Note_on_c, 3, 64, 127
9, 473160, Note_off_c, 3, 61, 127
9, 473160, Note_on_c, 3, 61, 127
9, 473279, Note_off_c, 3, 64, 127
9, 473279, Note_off_c, 3, 61, 127
9, 473280, Note_on_c, 3, 66, 127
9, 473280, Note_on_c, 3, 62, 127
9, 473400, Note_off_c, 3, 66, 127
9, 473400, Note_on_c, 3, 66, 127
9, 473400, Note_off_c, 3, 62, 127
9, 473400, Note_on_c, 3, 62, 127
9, 473520, Note_off_c, 3, 66, 127
9, 473520, Note_on_c, 3, 66, 127
9, 473520, Note_off_c, 3, 62, 127
9, 473520, Note_on_c, 3, 62, 127
9, 473640, Note_off_c, 3, 66, 127
9, 473640, Note_on_c, 3, 66, 127
9, 473640, Note_off_c, 3, 62, 127
9, 473640, Note_on_c, 3, 62, 127
9, 473760, Note_off_c, 3, 66, 127
9, 473760, Note_on_c, 3, 66, 127
9, 473760, Note_off_c, 3, 62, 127
9, 473760, Note_on_c, 3, 62, 127
9, 473880, Note_off_c, 3, 66, 127
9, 473880, Note_on_c, 3, 66, 127
9, 473880, Note_off_c, 3, 62, 127
9, 473880, Note_on_c, 3, 62, 127
9, 474000, Note_off_c, 3, 66, 127
9, 474000, Note_on_c, 3, 66, 127
9, 474000, Note_off_c, 3, 62, 127
9, 474000, Note_on_c, 3, 62, 127
9, 474120, Note_off_c, 3, 66, 127
9, 474120, Note_on_c, 3, 66, 127
9, 474120, Note_off_c, 3, 62, 127
9, 474120, Note_on_c, 3, 62, 127
9, 474239, Note_off_c, 3, 66, 127
9, 474239, Note_off_c, 3, 62, 127
9, 474240, Note_on_c, 3, 61, 127
9, 474240, Note_on_c, 3, 58, 127
9, 474360, Note_off_c, 3, 61, 127
9, 474360, Note_on_c, 3, 61, 127
9, 474360, Note_off_c, 3, 58, 127
9, 474360, Note_on_c, 3, 58, 127
9, 474480, Note_off_c, 3, 61, 127
9, 474480, Note_on_c, 3, 61, 127
9, 474480, Note_off_c, 3, 58, 127
9, 474480, Note_on_c, 3, 58, 127
9, 474600, Note_off_c, 3, 61, 127
9, 474600, Note_on_c, 3, 61, 127
9, 474600, Note_off_c, 3, 58, 127
9, 474600, Note_on_c, 3, 58, 127
9, 474720, Note_off_c, 3, 61, 127
9, 474720, Note_on_c, 3, 61, 127
9, 474720, Note_off_c, 3, 58, 127
9, 474720, Note_on_c, 3, 58, 127
9, 474840, Note_off_c, 3, 61, 127
9, 474840, Note_on_c, 3, 61, 127
9, 474840, Note_off_c, 3, 58, 127
9, 474840, Note_on_c, 3, 58, 127
9, 474960, Note_off_c, 3, 61, 127
9, 474960, Note_on_c, 3, 61, 127
9, 474960, Note_off_c, 3, 58, 127
9, 474960, Note_on_c, 3, 58, 127
9, 475080, Note_off_c, 3, 61, 127
9, 475080, Note_on_c, 3, 61, 127
9, 475080, Note_off_c, 3, 58, 127
9, 475080, Note_on_c, 3, 58, 127
9, 475200, Note_off_c, 3, 61, 127
9, 475200, Note_on_c, 3, 61, 127
9, 475200, Note_off_c, 3, 58, 127
9, 475200, Note_on_c, 3, 58, 127
9, 475320, Note_off_c, 3, 61, 127
9, 475320, Note_on_c, 3, 61, 127
9, 475320, Note_off_c, 3, 58, 127
9, 475320, Note_on_c, 3, 58, 127
9, 475440, Note_off_c, 3, 61, 127
9, 475440, Note_on_c, 3, 61, 127
9, 475440, Note_off_c, 3, 58, 127
9, 475440, Note_on_c, 3, 58, 127
9, 475560, Note_off_c, 3, 61, 127
9, 475560, Note_on_c, 3, 61, 127
9, 475560, Note_off_c, 3, 58, 127
9, 475560, Note_on_c, 3, 58, 127
9, 475680, Note_off_c, 3, 61, 127
9, 475680, Note_on_c, 3, 61, 127
9, 475680, Note_off_c, 3, 58, 127
9, 475680, Note_on_c, 3, 58, 127
9, 475800, Note_off_c, 3, 61, 127
9, 475800, Note_on_c, 3, 61, 127
9, 475800, Note_off_c, 3, 58, 127
9, 475800, Note_on_c, 3, 58, 127
9, 475920, Note_off_c, 3, 61, 127
9, 475920, Note_on_c, 3, 61, 127
9, 475920, Note_off_c, 3, 58, 127
9, 475920, Note_on_c, 3, 58, 127
9, 476040, Note_off_c, 3, 61, 127
9, 476040, Note_on_c, 3, 61, 127
9, 476040, Note_off_c, 3, 58, 127
9, 476040, Note_on_c, 3, 58, 127
9, 476160, Note_off_c, 3, 61, 127
9, 476160, Note_on_c, 3, 61, 127
9, 476160, Note_off_c, 3, 58, 127
9, 476160, Note_on_c, 3, 58, 127
9, 476280, Note_off_c, 3, 61, 127
9, 476280, Note_on_c, 3, 61, 127
9, 476280, Note_off_c, 3, 58, 127
9, 476280, Note_on_c, 3, 58, 127
9, 476400, Note_off_c, 3, 61, 127
9, 476400, Note_on_c, 3, 61, 127
9, 476400, Note_off_c, 3, 58, 127
9, 476400, Note_on_c, 3, 58, 127
9, 476520, Note_off_c, 3, 61, 127
9, 476520, Note_on_c, 3, 61, 127
9, 476520, Note_off_c, 3, 58, 127
9, 476520, Note_on_c, 3, 58, 127
9, 476640, Note_off_c, 3, 61, 127
9, 476640, Note_on_c, 3, 61, 127
9, 476640, Note_off_c, 3, 58, 127
9, 476640, Note_on_c, 3, 58, 127
9, 476760, Note_off_c, 3, 61, 127
9, 476760, Note_on_c, 3, 61, 127
9, 476760, Note_off_c, 3, 58, 127
9, 476760, Note_on_c, 3, 58, 127
9, 476880, Note_off_c, 3, 61, 127
9, 476880, Note_on_c, 3, 61, 127
9, 476880, Note_off_c, 3, 58, 127
9, 476880, Note_on_c, 3, 58, 127
9, 477000, Note_off_c, 3, 61, 127
9, 477000, Note_on_c, 3, 61, 127
9, 477000, Note_off_c, 3, 58, 127
9, 477000, Note_on_c, 3, 58, 127
9, 477120, Note_off_c, 3, 61, 127
9, 477120, Note_on_c, 3, 61, 127
9, 477120, Note_off_c, 3, 58, 127
9, 477120, Note_on_c, 3, 58, 127
9, 477240, Note_off_c, 3, 61, 127
9, 477240, Note_on_c, 3, 61, 127
9, 477240, Note_off_c, 3, 58, 127
9, 477240, Note_on_c, 3, 58, 127
9, 477360, Note_off_c, 3, 61, 127
9, 477360, Note_on_c, 3, 61, 127
9, 477360, Note_off_c, 3, 58, 127
9, 477360, Note_on_c, 3, 58, 127
9, 477480, Note_off_c, 3, 61, 127
9, 477480, Note_on_c, 3, 61, 127
9, 477480, Note_off_c, 3, 58, 127
9, 477480, Note_on_c, 3, 58, 127
9, 477600, Note_off_c, 3, 61, 127
9, 477600, Note_on_c, 3, 61, 127
9, 477600, Note_off_c, 3, 58, 127
9, 477600, Note_on_c, 3, 58, 127
9, 477720, Note_off_c, 3, 61, 127
9, 477720, Note_on_c, 3, 61, 127
9, 477720, Note_off_c, 3, 58, 127
9, 477720, Note_on_c, 3, 58, 127
9, 477840, Note_off_c, 3, 61, 127
9, 477840, Note_on_c, 3, 61, 127
9, 477840, Note_off_c, 3, 58, 127
9, 477840, Note_on_c, 3, 58, 127
9, 477960, Note_off_c, 3, 61, 127
9, 477960, Note_on_c, 3, 61, 127
9, 477960, Note_off_c, 3, 58, 127
9, 477960, Note_on_c, 3, 58, 127
9, 478080, Note_off_c, 3, 61, 127
9, 478080, Note_on_c, 3, 61, 127
9, 478080, Note_off_c, 3, 58, 127
9, 478080, Note_on_c, 3, 58, 127
9, 478200, Note_off_c, 3, 61, 127
9, 478200, Note_on_c, 3, 61, 127
9, 478200, Note_off_c, 3, 58, 127
9, 478200, Note_on_c, 3, 58, 127
9, 478320, Note_off_c, 3, 61, 127
9, 478320, Note_on_c, 3, 61, 127
9, 478320, Note_off_c, 3, 58, 127
9, 478320, Note_on_c, 3, 58, 127
9, 478440, Note_off_c, 3, 61, 127
9, 478440, Note_on_c, 3, 61, 127
9, 478440, Note_off_c, 3, 58, 127
9, 478440, Note_on_c, 3, 58, 127
9, 478560, Note_off_c, 3, 61, 127
9, 478560, Note_on_c, 3, 61, 127
9, 478560, Note_off_c, 3, 58, 127
9, 478560, Note_on_c, 3, 58, 127
9, 478680, Note_off_c, 3, 61, 127
9, 478680, Note_on_c, 3, 61, 127
9, 478680, Note_off_c, 3, 58, 127
9, 478680, Note_on_c, 3, 58, 127
9, 478800, Note_off_c, 3, 61, 127
9, 478800, Note_on_c, 3, 61, 127
9, 478800, Note_off_c, 3, 58, 127
9, 478800, Note_on_c, 3, 58, 127
9, 478920, Note_off_c, 3, 61, 127
9, 478920, Note_on_c, 3, 61, 127
9, 478920, Note_off_c, 3, 58, 127
9, 478920, Note_on_c, 3, 58, 127
9, 479040, Note_off_c, 3, 61, 127
9, 479040, Note_on_c, 3, 61, 127
9, 479040, Note_off_c, 3, 58, 127
9, 479040, Note_on_c, 3, 58, 127
9, 479160, Note_off_c, 3, 61, 127
9, 479160, Note_on_c, 3, 61, 127
9, 479160, Note_off_c, 3, 58, 127
9, 479160, Note_on_c, 3, 58, 127
9, 479280, Note_off_c, 3, 61, 127
9, 479280, Note_on_c, 3, 61, 127
9, 479280, Note_off_c, 3, 58, 127
9, 479280, Note_on_c, 3, 58, 127
9, 479400, Note_off_c, 3, 61, 127
9, 479400, Note_on_c, 3, 61, 127
9, 479400, Note_off_c, 3, 58, 127
9, 479400, Note_on_c, 3, 58, 127
9, 479520, Note_off_c, 3, 61, 127
9, 479520, Note_on_c, 3, 61, 127
9, 479520, Note_off_c, 3, 58, 127
9, 479520, Note_on_c, 3, 58, 127
9, 479640, Note_off_c, 3, 61, 127
9, 479640, Note_on_c, 3, 61, 127
9, 479640, Note_off_c, 3, 58, 127
9, 479640, Note_on_c, 3, 58, 127
9, 479760, Note_off_c, 3, 61, 127
9, 479760, Note_on_c, 3, 61, 127
9, 479760, Note_off_c, 3, 58, 127
9, 479760, Note_on_c, 3, 58, 127
9, 479880, Note_off_c, 3, 61, 127
9, 479880, Note_on_c, 3, 61, 127
9, 479880, Note_off_c, 3, 58, 127
9, 479880, Note_on_c, 3, 58, 127
9, 479999, Note_off_c, 3, 61, 127
9, 479999, Note_off_c, 3, 58, 127
9, 480000, Note_on_c, 3, 62, 127
9, 480000, Note_on_c, 3, 59, 127
9, 480120, Note_off_c, 3, 62, 127
9, 480120, Note_on_c, 3, 62, 127
9, 480120, Note_off_c, 3, 59, 127
9, 480120, Note_on_c, 3, 59, 127
9, 480240, Note_off_c, 3, 62, 127
9, 480240, Note_on_c, 3, 62, 127
9, 480240, Note_off_c, 3, 59, 127
9, 480240, Note_on_c, 3, 59, 127
9, 480360, Note_off_c, 3, 62, 127
9, 480360, Note_on_c, 3, 62, 127
9, 480360, Note_off_c, 3, 59, 127
9, 480360, Note_on_c, 3, 59, 127
9, 480480, Note_off_c, 3, 62, 127
9, 480480, Note_on_c, 3, 62, 127
9, 480480, Note_off_c, 3, 59, 127
9, 480480, Note_on_c, 3, 59, 127
9, 480600, Note_off_c, 3, 62, 127
9, 480600, Note_on_c, 3, 62, 127
9, 480600, Note_off_c, 3, 59, 127
9, 480600, Note_on_c, 3, 59, 127
9, 480720, Note_off_c, 3, 62, 127
9, 480720, Note_on_c, 3, 62, 127
9, 480720, Note_off_c, 3, 59, 127
9, 480720, Note_on_c, 3, 59, 127
9, 480840, Note_off_c, 3, 62, 127
9, 480840, Note_on_c, 3, 62, 127
9, 480840, Note_off_c, 3, 59, 127
9, 480840, Note_on_c, 3, 59, 127
9, 480960, Note_off_c, 3, 62, 127
9, 480960, Note_on_c, 3, 62, 127
9, 480960, Note_off_c, 3, 59, 127
9, 480960, Note_on_c, 3, 59, 127
9, 481080, Note_off_c, 3, 62, 127
9, 481080, Note_on_c, 3, 62, 127
9, 481080, Note_off_c, 3, 59, 127
9, 481080, Note_on_c, 3, 59, 127
9, 481200, Note_off_c, 3, 62, 127
9, 481200, Note_on_c, 3, 62, 127
9, 481200, Note_off_c, 3, 59, 127
9, 481200, Note_on_c, 3, 59, 127
9, 481320, Note_off_c, 3, 62, 127
9, 481320, Note_on_c, 3, 62, 127
9, 481320, Note_off_c, 3, 59, 127
9, 481320, Note_on_c, 3, 59, 127
9, 481440, Note_off_c, 3, 62, 127
9, 481440, Note_on_c, 3, 62, 127
9, 481440, Note_off_c, 3, 59, 127
9, 481440, Note_on_c, 3, 59, 127
9, 481560, Note_off_c, 3, 62, 127
9, 481560, Note_on_c, 3, 62, 127
9, 481560, Note_off_c, 3, 59, 127
9, 481560, Note_on_c, 3, 59, 127
9, 481680, Note_off_c, 3, 62, 127
9, 481680, Note_on_c, 3, 62, 127
9, 481680, Note_off_c, 3, 59, 127
9, 481680, Note_on_c, 3, 59, 127
9, 481800, Note_off_c, 3, 62, 127
9, 481800, Note_on_c, 3, 62, 127
9, 481800, Note_off_c, 3, 59, 127
9, 481800, Note_on_c, 3, 59, 127
9, 481920, Note_off_c, 3, 62, 127
9, 481920, Note_on_c, 3, 62, 127
9, 481920, Note_off_c, 3, 59, 127
9, 481920, Note_on_c, 3, 59, 127
9, 482040, Note_off_c, 3, 62, 127
9, 482040, Note_on_c, 3, 62, 127
9, 482040, Note_off_c, 3, 59, 127
9, 482040, Note_on_c, 3, 59, 127
9, 482160, Note_off_c, 3, 62, 127
9, 482160, Note_on_c, 3, 62, 127
9, 482160, Note_off_c, 3, 59, 127
9, 482160, Note_on_c, 3, 59, 127
9, 482280, Note_off_c, 3, 62, 127
9, 482280, Note_on_c, 3, 62, 127
9, 482280, Note_off_c, 3, 59, 127
9, 482280, Note_on_c, 3, 59, 127
9, 482400, Note_off_c, 3, 62, 127
9, 482400, Note_on_c, 3, 62, 127
9, 482400, Note_off_c, 3, 59, 127
9, 482400, Note_on_c, 3, 59, 127
9, 482520, Note_off_c, 3, 62, 127
9, 482520, Note_on_c, 3, 62, 127
9, 482520, Note_off_c, 3, 59, 127
9, 482520, Note_on_c, 3, 59, 127
9, 482640, Note_off_c, 3, 62, 127
9, 482640, Note_on_c, 3, 62, 127
9, 482640, Note_off_c, 3, 59, 127
9, 482640, Note_on_c, 3, 59, 127
9, 482760, Note_off_c, 3, 62, 127
9, 482760, Note_on_c, 3, 62, 127
9, 482760, Note_off_c, 3, 59, 127
9, 482760, Note_on_c, 3, 59, 127
9, 482880, Note_off_c, 3, 62, 127
9, 482880, Note_on_c, 3, 62, 127
9, 482880, Note_off_c, 3, 59, 127
9, 482880, Note_on_c, 3, 59, 127
9, 483000, Note_off_c, 3, 62, 127
9, 483000, Note_on_c, 3, 62, 127
9, 483000, Note_off_c, 3, 59, 127
9, 483000, Note_on_c, 3, 59, 127
9, 483120, Note_off_c, 3, 62, 127
9, 483120, Note_on_c, 3, 62, 127
9, 483120, Note_off_c, 3, 59, 127
9, 483120, Note_on_c, 3, 59, 127
9, 483240, Note_off_c, 3, 62, 127
9, 483240, Note_on_c, 3, 62, 127
9, 483240, Note_off_c, 3, 59, 127
9, 483240, Note_on_c, 3, 59, 127
9, 483360, Note_off_c, 3, 62, 127
9, 483360, Note_on_c, 3, 62, 127
9, 483360, Note_off_c, 3, 59, 127
9, 483360, Note_on_c, 3, 59, 127
9, 483480, Note_off_c, 3, 62, 127
9, 483480, Note_on_c, 3, 62, 127
9, 483480, Note_off_c, 3, 59, 127
9, 483480, Note_on_c, 3, 59, 127
9, 483600, Note_off_c, 3, 62, 127
9, 483600, Note_on_c, 3, 62, 127
9, 483600, Note_off_c, 3, 59, 127
9, 483600, Note_on_c, 3, 59, 127
9, 483720, Note_off_c, 3, 62, 127
9, 483720, Note_on_c, 3, 62, 127
9, 483720, Note_off_c, 3, 59, 127
9, 483720, Note_on_c, 3, 59, 127
9, 483839, Note_off_c, 3, 62, 127
9, 483839, Note_off_c, 3, 59, 127
9, 483840, Note_on_c, 3, 64, 127
9, 483840, Note_on_c, 3, 61, 127
9, 483960, Note_off_c, 3, 64, 127
9, 483960, Note_on_c, 3, 64, 127
9, 483960, Note_off_c, 3, 61, 127
9, 483960, Note_on_c, 3, 61, 127
9, 484080, Note_off_c, 3, 64, 127
9, 484080, Note_on_c, 3, 64, 127
9, 484080, Note_off_c, 3, 61, 127
9, 484080, Note_on_c, 3, 61, 127
9, 484200, Note_off_c, 3, 64, 127
9, 484200, Note_on_c, 3, 64, 127
9, 484200, Note_off_c, 3, 61, 127
9, 484200, Note_on_c, 3, 61, 127
9, 484320, Note_off_c, 3, 64, 127
9, 484320, Note_on_c, 3, 64, 127
9, 484320, Note_off_c, 3, 61, 127
9, 484320, Note_on_c, 3, 61, 127
9, 484440, Note_off_c, 3, 64, 127
9, 484440, Note_on_c, 3, 64, 127
9, 484440, Note_off_c, 3, 61, 127
9, 484440, Note_on_c, 3, 61, 127
9, 484560, Note_off_c, 3, 64, 127
9, 484560, Note_on_c, 3, 64, 127
9, 484560, Note_off_c, 3, 61, 127
9, 484560, Note_on_c, 3, 61, 127
9, 484680, Note_off_c, 3, 64, 127
9, 484680, Note_on_c, 3, 64, 127
9, 484680, Note_off_c, 3, 61, 127
9, 484680, Note_on_c, 3, 61, 127
9, 484799, Note_off_c, 3, 64, 127
9, 484799, Note_off_c, 3, 61, 127
9, 484800, Note_on_c, 3, 66, 127
9, 484800, Note_on_c, 3, 62, 127
9, 484920, Note_off_c, 3, 66, 127
9, 484920, Note_on_c, 3, 66, 127
9, 484920, Note_off_c, 3, 62, 127
9, 484920, Note_on_c, 3, 62, 127
9, 485040, Note_off_c, 3, 66, 127
9, 485040, Note_on_c, 3, 66, 127
9, 485040, Note_off_c, 3, 62, 127
9, 485040, Note_on_c, 3, 62, 127
9, 485160, Note_off_c, 3, 66, 127
9, 485160, Note_on_c, 3, 66, 127
9, 485160, Note_off_c, 3, 62, 127
9, 485160, Note_on_c, 3, 62, 127
9, 485280, Note_off_c, 3, 66, 127
9, 485280, Note_on_c, 3, 66, 127
9, 485280, Note_off_c, 3, 62, 127
9, 485280, Note_on_c, 3, 62, 127
9, 485400, Note_off_c, 3, 66, 127
9, 485400, Note_on_c, 3, 66, 127
9, 485400, Note_off_c, 3, 62, 127
9, 485400, Note_on_c, 3, 62, 127
9, 485520, Note_off_c, 3, 66, 127
9, 485520, Note_on_c, 3, 66, 127
9, 485520, Note_off_c, 3, 62, 127
9, 485520, Note_on_c, 3, 62, 127
9, 485640, Note_off_c, 3, 66, 127
9, 485640, Note_on_c, 3, 66, 127
9, 485640, Note_off_c, 3, 62, 127
9, 485640, Note_on_c, 3, 62, 127
9, 485759, Note_off_c, 3, 66, 127
9, 485759, Note_off_c, 3, 62, 127
9, 485760, Note_on_c, 3, 61, 127
9, 485760, Note_on_c, 3, 58, 127
9, 485880, Note_off_c, 3, 61, 127
9, 485880, Note_on_c, 3, 61, 127
9, 485880, Note_off_c, 3, 58, 127
9, 485880, Note_on_c, 3, 58, 127
9, 486000, Note_off_c, 3, 61, 127
9, 486000, Note_on_c, 3, 61, 127
9, 486000, Note_off_c, 3, 58, 127
9, 486000, Note_on_c, 3, 58, 127
9, 486120, Note_off_c, 3, 61, 127
9, 486120, Note_on_c, 3, 61, 127
9, 486120, Note_off_c, 3, 58, 127
9, 486120, Note_on_c, 3, 58, 127
9, 486240, Note_off_c, 3, 61, 127
9, 486240, Note_on_c, 3, 61, 127
9, 486240, Note_off_c, 3, 58, 127
9, 486240, Note_on_c, 3, 58, 127
9, 486360, Note_off_c, 3, 61, 127
9, 486360, Note_on_c, 3, 61, 127
9, 486360, Note_off_c, 3, 58, 127
9, 486360, Note_on_c, 3, 58, 127
9, 486480, Note_off_c, 3, 61, 127
9, 486480, Note_on_c, 3, 61, 127
9, 486480, Note_off_c, 3, 58, 127
9, 486480, Note_on_c, 3, 58, 127
9, 486600, Note_off_c, 3, 61, 127
9, 486600, Note_on_c, 3, 61, 127
9, 486600, Note_off_c, 3, 58, 127
9, 486600, Note_on_c, 3, 58, 127
9, 486720, Note_off_c, 3, 61, 127
9, 486720, Note_on_c, 3, 61, 127
9, 486720, Note_off_c, 3, 58, 127
9, 486720, Note_on_c, 3, 58, 127
9, 486840, Note_off_c, 3, 61, 127
9, 486840, Note_on_c, 3, 61, 127
9, 486840, Note_off_c, 3, 58, 127
9, 486840, Note_on_c, 3, 58, 127
9, 486960, Note_off_c, 3, 61, 127
9, 486960, Note_on_c, 3, 61, 127
9, 486960, Note_off_c, 3, 58, 127
9, 486960, Note_on_c, 3, 58, 127
9, 487080, Note_off_c, 3, 61, 127
9, 487080, Note_on_c, 3, 61, 127
9, 487080, Note_off_c, 3, 58, 127
9, 487080, Note_on_c, 3, 58, 127
9, 487200, Note_off_c, 3, 61, 127
9, 487200, Note_on_c, 3, 61, 127
9, 487200, Note_off_c, 3, 58, 127
9, 487200, Note_on_c, 3, 58, 127
9, 487320, Note_off_c, 3, 61, 127
9, 487320, Note_on_c, 3, 61, 127
9, 487320, Note_off_c, 3, 58, 127
9, 487320, Note_on_c, 3, 58, 127
9, 487440, Note_off_c, 3, 61, 127
9, 487440, Note_on_c, 3, 61, 127
9, 487440, Note_off_c, 3, 58, 127
9, 487440, Note_on_c, 3, 58, 127
9, 487560, Note_off_c, 3, 61, 127
9, 487560, Note_on_c, 3, 61, 127
9, 487560, Note_off_c, 3, 58, 127
9, 487560, Note_on_c, 3, 58, 127
9, 487680, Note_off_c, 3, 61, 127
9, 487680, Note_on_c, 3, 61, 127
9, 487680, Note_off_c, 3, 58, 127
9, 487680, Note_on_c, 3, 58, 127
9, 487800, Note_off_c, 3, 61, 127
9, 487800, Note_on_c, 3, 61, 127
9, 487800, Note_off_c, 3, 58, 127
9, 487800, Note_on_c, 3, 58, 127
9, 487920, Note_off_c, 3, 61, 127
9, 487920, Note_on_c, 3, 61, 127
9, 487920, Note_off_c, 3, 58, 127
9, 487920, Note_on_c, 3, 58, 127
9, 488040, Note_off_c, 3, 61, 127
9, 488040, Note_on_c, 3, 61, 127
9, 488040, Note_off_c, 3, 58, 127
9, 488040, Note_on_c, 3, 58, 127
9, 488160, Note_off_c, 3, 61, 127
9, 488160, Note_on_c, 3, 61, 127
9, 488160, Note_off_c, 3, 58, 127
9, 488160, Note_on_c, 3, 58, 127
9, 488280, Note_off_c, 3, 61, 127
9, 488280, Note_on_c, 3, 61, 127
9, 488280, Note_off_c, 3, 58, 127
9, 488280, Note_on_c, 3, 58, 127
9, 488400, Note_off_c, 3, 61, 127
9, 488400, Note_on_c, 3, 61, 127
9, 488400, Note_off_c, 3, 58, 127
9, 488400, Note_on_c, 3, 58, 127
9, 488520, Note_off_c, 3, 61, 127
9, 488520, Note_on_c, 3, 61, 127
9, 488520, Note_off_c, 3, 58, 127
9, 488520, Note_on_c, 3, 58, 127
9, 488640, Note_off_c, 3, 61, 127
9, 488640, Note_on_c, 3, 61, 127
9, 488640, Note_off_c, 3, 58, 127
9, 488640, Note_on_c, 3, 58, 127
9, 488760, Note_off_c, 3, 61, 127
9, 488760, Note_on_c, 3, 61, 127
9, 488760, Note_off_c, 3, 58, 127
9, 488760, Note_on_c, 3, 58, 127
9, 488880, Note_off_c, 3, 61, 127
9, 488880, Note_on_c, 3, 61, 127
9, 488880, Note_off_c, 3, 58, 127
9, 488880, Note_on_c, 3, 58, 127
9, 489000, Note_off_c, 3, 61, 127
9, 489000, Note_on_c, 3, 61, 127
9, 489000, Note_off_c, 3, 58, 127
9, 489000, Note_on_c, 3, 58, 127
9, 489120, Note_off_c, 3, 61, 127
9, 489120, Note_on_c, 3, 61, 127
9, 489120, Note_off_c, 3, 58, 127
9, 489120, Note_on_c, 3, 58, 127
9, 489240, Note_off_c, 3, 61, 127
9, 489240, Note_on_c, 3, 61, 127
9, 489240, Note_off_c, 3, 58, 127
9, 489240, Note_on_c, 3, 58, 127
9, 489360, Note_off_c, 3, 61, 127
9, 489360, Note_on_c, 3, 61, 127
9, 489360, Note_off_c, 3, 58, 127
9, 489360, Note_on_c, 3, 58, 127
9, 489480, Note_off_c, 3, 61, 127
9, 489480, Note_on_c, 3, 61, 127
9, 489480, Note_off_c, 3, 58, 127
9, 489480, Note_on_c, 3, 58, 127
9, 489600, Note_off_c, 3, 61, 127
9, 489600, Note_on_c, 3, 61, 127
9, 489600, Note_off_c, 3, 58, 127
9, 489600, Note_on_c, 3, 58, 127
9, 489720, Note_off_c, 3, 61, 127
9, 489720, Note_on_c, 3, 61, 127
9, 489720, Note_off_c, 3, 58, 127
9, 489720, Note_on_c, 3, 58, 127
9, 489840, Note_off_c, 3, 61, 127
9, 489840, Note_on_c, 3, 61, 127
9, 489840, Note_off_c, 3, 58, 127
9, 489840, Note_on_c, 3, 58, 127
9, 489960, Note_off_c, 3, 61, 127
9, 489960, Note_on_c, 3, 61, 127
9, 489960, Note_off_c, 3, 58, 127
9, 489960, Note_on_c, 3, 58, 127
9, 490080, Note_off_c, 3, 61, 127
9, 490080, Note_on_c, 3, 61, 127
9, 490080, Note_off_c, 3, 58, 127
9, 490080, Note_on_c, 3, 58, 127
9, 490200, Note_off_c, 3, 61, 127
9, 490200, Note_on_c, 3, 61, 127
9, 490200, Note_off_c, 3, 58, 127
9, 490200, Note_on_c, 3, 58, 127
9, 490320, Note_off_c, 3, 61, 127
9, 490320, Note_on_c, 3, 61, 127
9, 490320, Note_off_c, 3, 58, 127
9, 490320, Note_on_c, 3, 58, 127
9, 490440, Note_off_c, 3, 61, 127
9, 490440, Note_on_c, 3, 61, 127
9, 490440, Note_off_c, 3, 58, 127
9, 490440, Note_on_c, 3, 58, 127
9, 490560, Note_off_c, 3, 61, 127
9, 490560, Note_on_c, 3, 61, 127
9, 490560, Note_off_c, 3, 58, 127
9, 490560, Note_on_c, 3, 58, 127
9, 490680, Note_off_c, 3, 61, 127
9, 490680, Note_on_c, 3, 61, 127
9, 490680, Note_off_c, 3, 58, 127
9, 490680, Note_on_c, 3, 58, 127
9, 490800, Note_off_c, 3, 61, 127
9, 490800, Note_on_c, 3, 61, 127
9, 490800, Note_off_c, 3, 58, 127
9, 490800, Note_on_c, 3, 58, 127
9, 490920, Note_off_c, 3, 61, 127
9, 490920, Note_on_c, 3, 61, 127
9, 490920, Note_off_c, 3, 58, 127
9, 490920, Note_on_c, 3, 58, 127
9, 491040, Note_off_c, 3, 61, 127
9, 491040, Note_on_c, 3, 61, 127
9, 491040, Note_off_c, 3, 58, 127
9, 491040, Note_on_c, 3, 58, 127
9, 491160, Note_off_c, 3, 61, 127
9, 491160, Note_on_c, 3, 61, 127
9, 491160, Note_off_c, 3, 58, 127
9, 491160, Note_on_c, 3, 58, 127
9, 491280, Note_off_c, 3, 61, 127
9, 491280, Note_on_c, 3, 61, 127
9, 491280, Note_off_c, 3, 58, 127
9, 491280, Note_on_c, 3, 58, 127
9, 491400, Note_off_c, 3, 61, 127
9, 491400, Note_on_c, 3, 61, 127
9, 491400, Note_off_c, 3, 58, 127
9, 491400, Note_on_c, 3, 58, 127
9, 491519, Note_off_c, 3, 61, 127
9, 491519, Note_off_c, 3, 58, 127
9, 495360, Note_on_c, 3, 76, 127
9, 495480, Note_off_c, 3, 76, 127
9, 495480, Note_on_c, 3, 76, 127
9, 495600, Note_off_c, 3, 76, 127
9, 495600, Note_on_c, 3, 76, 127
9, 495720, Note_off_c, 3, 76, 127
9, 495720, Note_on_c, 3, 76, 127
9, 495840, Note_off_c, 3, 76, 127
9, 495840, Note_on_c, 3, 76, 127
9, 495960, Note_off_c, 3, 76, 127
9, 495960, Note_on_c, 3, 76, 127
9, 496080, Note_off_c, 3, 76, 127
9, 496080, Note_on_c, 3, 76, 127
9, 496200, Note_off_c, 3, 76, 127
9, 496200, Note_on_c, 3, 76, 127
9, 496319, Note_off_c, 3, 76, 127
9, 496640, Note_on_c, 3, 73, 127
9, 496960, Note_off_c, 3, 73, 127
9, 496960, Note_on_c, 3, 65, 127
9, 497280, Note_off_c, 3, 65, 127
9, 497280, Note_on_c, 3, 77, 127
9, 497400, Note_off_c, 3, 77, 127
9, 497400, Note_on_c, 3, 77, 127
9, 497520, Note_off_c, 3, 77, 127
9, 497520, Note_on_c, 3, 77, 127
9, 497640, Note_off_c, 3, 77, 127
9, 497640, Note_on_c, 3, 77, 127
9, 497759, Note_off_c, 3, 77, 127
9, 497760, Note_on_c, 3, 74, 127
9, 497880, Note_off_c, 3, 74, 127
9, 497880, Note_on_c, 3, 74, 127
9, 498000, Note_off_c, 3, 74, 127
9, 498000, Note_on_c, 3, 74, 127
9, 498120, Note_off_c, 3, 74, 127
9, 498120, Note_on_c, 3, 74, 127
9, 498239, Note_off_c, 3, 74, 127
9, 498480, Note_on_c, 3, 71, 127
9, 498720, Note_off_c, 3, 71, 127
9, 498720, Note_on_c, 3, 73, 127
9, 498960, Note_off_c, 3, 73, 127
9, 498960, Note_on_c, 3, 74, 127
9, 499200, Note_off_c, 3, 74, 127
9, 499200, Note_on_c, 3, 76, 127
9, 499440, Note_off_c, 3, 76, 127
9, 499440, Note_on_c, 3, 77, 127
9, 499680, Note_off_c, 3, 77, 127
9, 499680, Note_on_c, 3, 79, 127
9, 499920, Note_off_c, 3, 79, 127
9, 499920, Note_on_c, 3, 81, 127
9, 500160, Note_off_c, 3, 81, 127
9, 500160, Note_on_c, 3, 82, 127
9, 500400, Note_off_c, 3, 82, 127
9, 500880, Note_on_c, 3, 80, 127
9, 501000, Note_off_c, 3, 80, 127
9, 501000, Note_on_c, 3, 76, 127
9, 501120, Note_off_c, 3, 76, 127
9, 501120, Note_on_c, 3, 74, 127
9, 501240, Note_off_c, 3, 74, 127
9, 501240, Note_on_c, 3, 74, 127
9, 501360, Note_off_c, 3, 74, 127
9, 501360, Note_on_c, 3, 74, 127
9, 501480, Note_off_c, 3, 74, 127
9, 501480, Note_on_c, 3, 74, 127
9, 501600, Note_off_c, 3, 74, 127
9, 501600, Note_on_c, 3, 74, 127
9, 501720, Note_off_c, 3, 74, 127
9, 501720, Note_on_c, 3, 74, 127
9, 501840, Note_off_c, 3, 74, 127
9, 501840, Note_on_c, 3, 74, 127
9, 501960, Note_off_c, 3, 74, 127
9, 501960, Note_on_c, 3, 74, 127
9, 502080, Note_off_c, 3, 74, 127
9, 502080, Note_on_c, 3, 74, 127
9, 502200, Note_off_c, 3, 74, 127
9, 502200, Note_on_c, 3, 74, 127
9, 502320, Note_off_c, 3, 74, 127
9, 502320, Note_on_c, 3, 74, 127
9, 502440, Note_off_c, 3, 74, 127
9, 502440, Note_on_c, 3, 74, 127
9, 502560, Note_off_c, 3, 74, 127
9, 502560, Note_on_c, 3, 74, 127
9, 502680, Note_off_c, 3, 74, 127
9, 502680, Note_on_c, 3, 74, 127
9, 502800, Note_off_c, 3, 74, 127
9, 502800, Note_on_c, 3, 74, 127
9, 502920, Note_off_c, 3, 74, 127
9, 502920, Note_on_c, 3, 74, 127
9, 503040, Note_off_c, 3, 74, 127
9, 503040, Note_on_c, 3, 74, 127
9, 503160, Note_off_c, 3, 74, 127
9, 503160, Note_on_c, 3, 74, 127
9, 503280, Note_off_c, 3, 74, 127
9, 503280, Note_on_c, 3, 74, 127
9, 503400, Note_off_c, 3, 74, 127
9, 503400, Note_on_c, 3, 74, 127
9, 503520, Note_off_c, 3, 74, 127
9, 503520, Note_on_c, 3, 74, 127
9, 503640, Note_off_c, 3, 74, 127
9, 503640, Note_on_c, 3, 74, 127
9, 503760, Note_off_c, 3, 74, 127
9, 503760, Note_on_c, 3, 74, 127
9, 503880, Note_off_c, 3, 74, 127
9, 503880, Note_on_c, 3, 74, 127
9, 504000, Note_off_c, 3, 74, 127
9, 504000, Note_on_c, 3, 74, 127
9, 504120, Note_off_c, 3, 74, 127
9, 504120, Note_on_c, 3, 74, 127
9, 504240, Note_off_c, 3, 74, 127
9, 504240, Note_on_c, 3, 74, 127
9, 504360, Note_off_c, 3, 74, 127
9, 504360, Note_on_c, 3, 74, 127
9, 504480, Note_off_c, 3, 74, 127
9, 504480, Note_on_c, 3, 74, 127
9, 504600, Note_off_c, 3, 74, 127
9, 504600, Note_on_c, 3, 74, 127
9, 504720, Note_off_c, 3, 74, 127
9, 504720, Note_on_c, 3, 74, 127
9, 504840, Note_off_c, 3, 74, 127
9, 504840, Note_on_c, 3, 74, 127
9, 504960, Note_off_c, 3, 74, 127
9, 504960, Note_on_c, 3, 74, 127
9, 505080, Note_off_c, 3, 74, 127
9, 505080, Note_on_c, 3, 74, 127
9, 505200, Note_off_c, 3, 74, 127
9, 505200, Note_on_c, 3, 74, 127
9, 505320, Note_off_c, 3, 74, 127
9, 505320, Note_on_c, 3, 74, 127
9, 505440, Note_off_c, 3, 74, 127
9, 505440, Note_on_c, 3, 74, 127
9, 505560, Note_off_c, 3, 74, 127
9, 505560, Note_on_c, 3, 74, 127
9, 505680, Note_off_c, 3, 74, 127
9, 505680, Note_on_c, 3, 74, 127
9, 505800, Note_off_c, 3, 74, 127
9, 505800, Note_on_c, 3, 74, 127
9, 505919, Note_off_c, 3, 74, 127
9, 505920, Note_on_c, 3, 71, 127
9, 506331, Note_off_c, 3, 71, 127
9, 506331, Note_on_c, 3, 73, 127
9, 506742, Note_off_c, 3, 73, 127
9, 506742, Note_on_c, 3, 74, 127
9, 507153, Note_off_c, 3, 74, 127
9, 507153, Note_on_c, 3, 76, 127
9, 507564, Note_off_c, 3, 76, 127
9, 507564, Note_on_c, 3, 78, 127
9, 507975, Note_off_c, 3, 78, 127
9, 507975, Note_on_c, 3, 80, 127
9, 508386, Note_off_c, 3, 80, 127
9, 508386, Note_on_c, 3, 81, 127
9, 508797, Note_off_c, 3, 81, 127
9, 508800, Note_on_c, 3, 79, 127
9, 508920, Note_off_c, 3, 79, 127
9, 508920, Note_on_c, 3, 79, 127
9, 509040, Note_off_c, 3, 79, 127
9, 509040, Note_on_c, 3, 79, 127
9, 509160, Note_off_c, 3, 79, 127
9, 509160, Note_on_c, 3, 79, 127
9, 509280, Note_off_c, 3, 79, 127
9, 509280, Note_on_c, 3, 79, 127
9, 509400, Note_off_c, 3, 79, 127
9, 509400, Note_on_c, 3, 79, 127
9, 509520, Note_off_c, 3, 79, 127
9, 509520, Note_on_c, 3, 79, 127
9, 509640, Note_off_c, 3, 79, 127
9, 509640, Note_on_c, 3, 79, 127
9, 509760, Note_off_c, 3, 79, 127
9, 509760, Note_on_c, 3, 79, 127
9, 509880, Note_off_c, 3, 79, 127
9, 509880, Note_on_c, 3, 79, 127
9, 510000, Note_off_c, 3, 79, 127
9, 510000, Note_on_c, 3, 79, 127
9, 510079, Note_off_c, 3, 79, 127
9, 510080, Note_on_c, 3, 80, 127
9, 510400, Note_off_c, 3, 80, 127
9, 510400, Note_on_c, 3, 77, 127
9, 510720, Note_off_c, 3, 77, 127
9, 510720, Note_on_c, 3, 76, 127
9, 510840, Note_off_c, 3, 76, 127
9, 510840, Note_on_c, 3, 76, 127
9, 510960, Note_off_c, 3, 76, 127
9, 510960, Note_on_c, 3, 76, 127
9, 511080, Note_off_c, 3, 76, 127
9, 511080, Note_on_c, 3, 76, 127
9, 511200, Note_off_c, 3, 76, 127
9, 511200, Note_on_c, 3, 76, 127
9, 511320, Note_off_c, 3, 76, 127
9, 511320, Note_on_c, 3, 76, 127
9, 511440, Note_off_c, 3, 76, 127
9, 511440, Note_on_c, 3, 76, 127
9, 511560, Note_off_c, 3, 76, 127
9, 511560, Note_on_c, 3, 76, 127
9, 511680, Note_off_c, 3, 76, 127
9, 511680, Note_on_c, 3, 76, 127
9, 511800, Note_off_c, 3, 76, 127
9, 511800, Note_on_c, 3, 76, 127
9, 511920, Note_off_c, 3, 76, 127
9, 511920, Note_on_c, 3, 76, 127
9, 512040, Note_off_c, 3, 76, 127
9, 512040, Note_on_c, 3, 76, 127
9, 512160, Note_off_c, 3, 76, 127
9, 512160, Note_on_c, 3, 76, 127
9, 512280, Note_off_c, 3, 76, 127
9, 512280, Note_on_c, 3, 76, 127
9, 512400, Note_off_c, 3, 76, 127
9, 512400, Note_on_c, 3, 76, 127
9, 512520, Note_off_c, 3, 76, 127
9, 512520, Note_on_c, 3, 76, 127
9, 512640, Note_off_c, 3, 76, 127
9, 512640, Note_on_c, 3, 76, 127
9, 512760, Note_off_c, 3, 76, 127
9, 512760, Note_on_c, 3, 76, 127
9, 512880, Note_off_c, 3, 76, 127
9, 512880, Note_on_c, 3, 76, 127
9, 513000, Note_off_c, 3, 76, 127
9, 513000, Note_on_c, 3, 76, 127
9, 513120, Note_off_c, 3, 76, 127
9, 513120, Note_on_c, 3, 76, 127
9, 513240, Note_off_c, 3, 76, 127
9, 513240, Note_on_c, 3, 76, 127
9, 513360, Note_off_c, 3, 76, 127
9, 513360, Note_on_c, 3, 76, 127
9, 513480, Note_off_c, 3, 76, 127
9, 513480, Note_on_c, 3, 76, 127
9, 513600, Note_off_c, 3, 76, 127
9, 513600, Note_on_c, 3, 76, 127
9, 513720, Note_off_c, 3, 76, 127
9, 513720, Note_on_c, 3, 76, 127
9, 513840, Note_off_c, 3, 76, 127
9, 513840, Note_on_c, 3, 76, 127
9, 513960, Note_off_c, 3, 76, 127
9, 513960, Note_on_c, 3, 76, 127
9, 514080, Note_off_c, 3, 76, 127
9, 514080, Note_on_c, 3, 76, 127
9, 514200, Note_off_c, 3, 76, 127
9, 514200, Note_on_c, 3, 76, 127
9, 514320, Note_off_c, 3, 76, 127
9, 514320, Note_on_c, 3, 76, 127
9, 514440, Note_off_c, 3, 76, 127
9, 514440, Note_on_c, 3, 76, 127
9, 514559, Note_off_c, 3, 76, 127
9, 515040, Note_on_c, 3, 75, 127
9, 515520, Note_off_c, 3, 75, 127
9, 515520, Note_on_c, 3, 73, 127
9, 515840, Note_off_c, 3, 73, 127
9, 515840, Note_on_c, 3, 72, 127
9, 516160, Note_off_c, 3, 72, 127
9, 516160, Note_on_c, 3, 70, 127
9, 516480, Note_off_c, 3, 70, 127
9, 516480, Note_on_c, 3, 68, 127
9, 516960, Note_off_c, 3, 68, 127
9, 516960, Note_on_c, 3, 66, 127
9, 517440, Note_off_c, 3, 66, 127
9, 517440, Note_on_c, 3, 65, 127
9, 517920, Note_off_c, 3, 65, 127
9, 517920, Note_on_c, 3, 67, 127
9, 518400, Note_off_c, 3, 67, 127
9, 518400, Note_on_c, 3, 69, 127
9, 518720, Note_off_c, 3, 69, 127
9, 518720, Note_on_c, 3, 70, 127
9, 519040, Note_off_c, 3, 70, 127
9, 519040, Note_on_c, 3, 72, 127
9, 519360, Note_off_c, 3, 72, 127
9, 519360, Note_on_c, 3, 73, 127
9, 519840, Note_off_c, 3, 73, 127
9, 519840, Note_on_c, 3, 75, 127
9, 520320, Note_off_c, 3, 75, 127
9, 520320, Note_on_c, 3, 76, 127
9, 520440, Note_off_c, 3, 76, 127
9, 520440, Note_on_c, 3, 76, 127
9, 520560, Note_off_c, 3, 76, 127
9, 520560, Note_on_c, 3, 76, 127
9, 520680, Note_off_c, 3, 76, 127
9, 520680, Note_on_c, 3, 76, 127
9, 520800, Note_off_c, 3, 76, 127
9, 520800, Note_on_c, 3, 76, 127
9, 520920, Note_off_c, 3, 76, 127
9, 520920, Note_on_c, 3, 76, 127
9, 521040, Note_off_c, 3, 76, 127
9, 521040, Note_on_c, 3, 76, 127
9, 521160, Note_off_c, 3, 76, 127
9, 521160, Note_on_c, 3, 76, 127
9, 521280, Note_off_c, 3, 76, 127
9, 521280, Note_on_c, 3, 76, 127
9, 521400, Note_off_c, 3, 76, 127
9, 521400, Note_on_c, 3, 76, 127
9, 521520, Note_off_c, 3, 76, 127
9, 521520, Note_on_c, 3, 76, 127
9, 521640, Note_off_c, 3, 76, 127
9, 521640, Note_on_c, 3, 76, 127
9, 521760, Note_off_c, 3, 76, 127
9, 521760, Note_on_c, 3, 76, 127
9, 521880, Note_off_c, 3, 76, 127
9, 521880, Note_on_c, 3, 76, 127
9, 522000, Note_off_c, 3, 76, 127
9, 522000, Note_on_c, 3, 76, 127
9, 522120, Note_off_c, 3, 76, 127
9, 522120, Note_on_c, 3, 76, 127
9, 522240, Note_off_c, 3, 76, 127
9, 522240, Note_on_c, 3, 76, 127
9, 522360, Note_off_c, 3, 76, 127
9, 522360, Note_on_c, 3, 76, 127
9, 522480, Note_off_c, 3, 76, 127
9, 522480, Note_on_c, 3, 76, 127
9, 522600, Note_off_c, 3, 76, 127
9, 522600, Note_on_c, 3, 76, 127
9, 522720, Note_off_c, 3, 76, 127
9, 522720, Note_on_c, 3, 76, 127
9, 522840, Note_off_c, 3, 76, 127
9, 522840, Note_on_c, 3, 76, 127
9, 522960, Note_off_c, 3, 76, 127
9, 522960, Note_on_c, 3, 76, 127
9, 523080, Note_off_c, 3, 76, 127
9, 523080, Note_on_c, 3, 76, 127
9, 523199, Note_off_c, 3, 76, 127
9, 523200, Note_on_c, 3, 73, 127
9, 523320, Note_off_c, 3, 73, 127
9, 523320, Note_on_c, 3, 73, 127
9, 523440, Note_off_c, 3, 73, 127
9, 523440, Note_on_c, 3, 73, 127
9, 523560, Note_off_c, 3, 73, 127
9, 523560, Note_on_c, 3, 73, 127
9, 523680, Note_off_c, 3, 73, 127
9, 523680, Note_on_c, 3, 73, 127
9, 523800, Note_off_c, 3, 73, 127
9, 523800, Note_on_c, 3, 73, 127
9, 523920, Note_off_c, 3, 73, 127
9, 523920, Note_on_c, 3, 73, 127
9, 524040, Note_off_c, 3, 73, 127
9, 524040, Note_on_c, 3, 73, 127
9, 524160, Note_off_c, 3, 73, 127
9, 524160, Note_on_c, 3, 73, 127
9, 524280, Note_off_c, 3, 73, 127
9, 524280, Note_on_c, 3, 73, 127
9, 524400, Note_off_c, 3, 73, 127
9, 524400, Note_on_c, 3, 73, 127
9, 524520, Note_off_c, 3, 73, 127
9, 524520, Note_on_c, 3, 73, 127
9, 524640, Note_off_c, 3, 73, 127
9, 524640, Note_on_c, 3, 73, 127
9, 524760, Note_off_c, 3, 73, 127
9, 524760, Note_on_c, 3, 73, 127
9, 524880, Note_off_c, 3, 73, 127
9, 524880, Note_on_c, 3, 73, 127
9, 525000, Note_off_c, 3, 73, 127
9, 525000, Note_on_c, 3, 73, 127
9, 525119, Note_off_c, 3, 73, 127
9, 525440, Note_on_c, 3, 72, 127
9, 525760, Note_off_c, 3, 72, 127
9, 525760, Note_on_c, 3, 70, 127
9, 526080, Note_off_c, 3, 70, 127
9, 526080, Note_on_c, 3, 72, 127
9, 526200, Note_off_c, 3, 72, 127
9, 526200, Note_on_c, 3, 72, 127
9, 526320, Note_off_c, 3, 72, 127
9, 526320, Note_on_c, 3, 72, 127
9, 526440, Note_off_c, 3, 72, 127
9, 526440, Note_on_c, 3, 72, 127
9, 526560, Note_off_c, 3, 72, 127
9, 526560, Note_on_c, 3, 72, 127
9, 526680, Note_off_c, 3, 72, 127
9, 526680, Note_on_c, 3, 72, 127
9, 526800, Note_off_c, 3, 72, 127
9, 526800, Note_on_c, 3, 72, 127
9, 526920, Note_off_c, 3, 72, 127
9, 526920, Note_on_c, 3, 72, 127
9, 527040, Note_off_c, 3, 72, 127
9, 527040, Note_on_c, 3, 72, 127
9, 527160, Note_off_c, 3, 72, 127
9, 527160, Note_on_c, 3, 72, 127
9, 527280, Note_off_c, 3, 72, 127
9, 527280, Note_on_c, 3, 72, 127
9, 527400, Note_off_c, 3, 72, 127
9, 527400, Note_on_c, 3, 72, 127
9, 527520, Note_off_c, 3, 72, 127
9, 527520, Note_on_c, 3, 72, 127
9, 527640, Note_off_c, 3, 72, 127
9, 527640, Note_on_c, 3, 72, 127
9, 527760, Note_off_c, 3, 72, 127
9, 527760, Note_on_c, 3, 72, 127
9, 527880, Note_off_c, 3, 72, 127
9, 527880, Note_on_c, 3, 72, 127
9, 528000, Note_off_c, 3, 72, 127
9, 528000, Note_on_c, 3, 72, 127
9, 528120, Note_off_c, 3, 72, 127
9, 528120, Note_on_c, 3, 72, 127
9, 528240, Note_off_c, 3, 72, 127
9, 528240, Note_on_c, 3, 72, 127
9, 528360, Note_off_c, 3, 72, 127
9, 528360, Note_on_c, 3, 72, 127
9, 528480, Note_off_c, 3, 72, 127
9, 528480, Note_on_c, 3, 72, 127
9, 528600, Note_off_c, 3, 72, 127
9, 528600, Note_on_c, 3, 72, 127
9, 528720, Note_off_c, 3, 72, 127
9, 528720, Note_on_c, 3, 72, 127
9, 528840, Note_off_c, 3, 72, 127
9, 528840, Note_on_c, 3, 72, 127
9, 528960, Note_off_c, 3, 72, 127
9, 528960, Note_on_c, 3, 72, 127
9, 529080, Note_off_c, 3, 72, 127
9, 529080, Note_on_c, 3, 72, 127
9, 529200, Note_off_c, 3, 72, 127
9, 529200, Note_on_c, 3, 72, 127
9, 529320, Note_off_c, 3, 72, 127
9, 529320, Note_on_c, 3, 72, 127
9, 529440, Note_off_c, 3, 72, 127
9, 529440, Note_on_c, 3, 72, 127
9, 529560, Note_off_c, 3, 72, 127
9, 529560, Note_on_c, 3, 72, 127
9, 529680, Note_off_c, 3, 72, 127
9, 529680, Note_on_c, 3, 72, 127
9, 529800, Note_off_c, 3, 72, 127
9, 529800, Note_on_c, 3, 72, 127
9, 529920, Note_off_c, 3, 72, 127
9, 529920, Note_on_c, 3, 72, 127
9, 530040, Note_off_c, 3, 72, 127
9, 530040, Note_on_c, 3, 72, 127
9, 530160, Note_off_c, 3, 72, 127
9, 530160, Note_on_c, 3, 72, 127
9, 530280, Note_off_c, 3, 72, 127
9, 530280, Note_on_c, 3, 72, 127
9, 530400, Note_off_c, 3, 72, 127
9, 530400, Note_on_c, 3, 72, 127
9, 530520, Note_off_c, 3, 72, 127
9, 530520, Note_on_c, 3, 72, 127
9, 530640, Note_off_c, 3, 72, 127
9, 530640, Note_on_c, 3, 72, 127
9, 530760, Note_off_c, 3, 72, 127
9, 530760, Note_on_c, 3, 72, 127
9, 530880, Note_off_c, 3, 72, 127
9, 530880, Note_on_c, 3, 72, 127
9, 531000, Note_off_c, 3, 72, 127
9, 531000, Note_on_c, 3, 72, 127
9, 531119, Note_off_c, 3, 72, 127
9, 531120, Note_on_c, 3, 75, 127
9, 531360, Note_off_c, 3, 75, 127
9, 531360, Note_on_c, 3, 73, 127
9, 531600, Note_off_c, 3, 73, 127
9, 531600, Note_on_c, 3, 69, 127
9, 531840, Note_off_c, 3, 69, 127
9, 531840, Note_on_c, 3, 76, 127
9, 531960, Note_off_c, 3, 76, 127
9, 531960, Note_on_c, 3, 76, 127
9, 532080, Note_off_c, 3, 76, 127
9, 532080, Note_on_c, 3, 76, 127
9, 532200, Note_off_c, 3, 76, 127
9, 532200, Note_on_c, 3, 76, 127
9, 532320, Note_off_c, 3, 76, 127
9, 532320, Note_on_c, 3, 76, 127
9, 532440, Note_off_c, 3, 76, 127
9, 532440, Note_on_c, 3, 76, 127
9, 532560, Note_off_c, 3, 76, 127
9, 532560, Note_on_c, 3, 76, 127
9, 532680, Note_off_c, 3, 76, 127
9, 532680, Note_on_c, 3, 76, 127
9, 532800, Note_off_c, 3, 76, 127
9, 532800, Note_on_c, 3, 76, 127
9, 532920, Note_off_c, 3, 76, 127
9, 532920, Note_on_c, 3, 76, 127
9, 533040, Note_off_c, 3, 76, 127
9, 533040, Note_on_c, 3, 76, 127
9, 533160, Note_off_c, 3, 76, 127
9, 533160, Note_on_c, 3, 76, 127
9, 533280, Note_off_c, 3, 76, 127
9, 533280, Note_on_c, 3, 76, 127
9, 533400, Note_off_c, 3, 76, 127
9, 533400, Note_on_c, 3, 76, 127
9, 533520, Note_off_c, 3, 76, 127
9, 533520, Note_on_c, 3, 76, 127
9, 533640, Note_off_c, 3, 76, 127
9, 533640, Note_on_c, 3, 76, 127
9, 533759, Note_off_c, 3, 76, 127
9, 533952, Note_on_c, 3, 78, 127
9, 534144, Note_off_c, 3, 78, 127
9, 534144, Note_on_c, 3, 80, 127
9, 534336, Note_off_c, 3, 80, 127
9, 534336, Note_on_c, 3, 75, 127
9, 534528, Note_off_c, 3, 75, 127
9, 534528, Note_on_c, 3, 73, 127
9, 534720, Note_off_c, 3, 73, 127
9, 534720, Note_on_c, 3, 72, 127
9, 535040, Note_off_c, 3, 72, 127
9, 535360, Note_on_c, 3, 72, 127
9, 535520, Note_off_c, 3, 72, 127
9, 535520, Note_on_c, 3, 73, 102
9, 535680, Note_off_c, 3, 73, 102
9, 535680, Note_on_c, 3, 72, 102
9, 535800, Note_off_c, 3, 72, 102
9, 535800, Note_on_c, 3, 72, 102
9, 535920, Note_off_c, 3, 72, 102
9, 535920, Note_on_c, 3, 72, 102
9, 536040, Note_off_c, 3, 72, 102
9, 536040, Note_on_c, 3, 72, 102
9, 536160, Note_off_c, 3, 72, 102
9, 536160, Note_on_c, 3, 72, 102
9, 536280, Note_off_c, 3, 72, 102
9, 536280, Note_on_c, 3, 72, 102
9, 536400, Note_off_c, 3, 72, 102
9, 536400, Note_on_c, 3, 72, 102
9, 536520, Note_off_c, 3, 72, 102
9, 536520, Note_on_c, 3, 72, 102
9, 536640, Note_off_c, 3, 72, 102
9, 536640, Note_on_c, 3, 72, 102
9, 536760, Note_off_c, 3, 72, 102
9, 536760, Note_on_c, 3, 72, 102
9, 536880, Note_off_c, 3, 72, 102
9, 536880, Note_on_c, 3, 72, 102
9, 537000, Note_off_c, 3, 72, 102
9, 537000, Note_on_c, 3, 72, 102
9, 537120, Note_off_c, 3, 72, 102
9, 537120, Note_on_c, 3, 72, 102
9, 537240, Note_off_c, 3, 72, 102
9, 537240, Note_on_c, 3, 72, 102
9, 537360, Note_off_c, 3, 72, 102
9, 537360, Note_on_c, 3, 72, 102
9, 537480, Note_off_c, 3, 72, 102
9, 537480, Note_on_c, 3, 72, 102
9, 537600, Note_off_c, 3, 72, 102
9, 537600, Note_on_c, 3, 72, 102
9, 537720, Note_off_c, 3, 72, 102
9, 537720, Note_on_c, 3, 72, 102
9, 537840, Note_off_c, 3, 72, 102
9, 537840, Note_on_c, 3, 72, 102
9, 537960, Note_off_c, 3, 72, 102
9, 537960, Note_on_c, 3, 72, 102
9, 538080, Note_off_c, 3, 72, 102
9, 538080, Note_on_c, 3, 72, 102
9, 538200, Note_off_c, 3, 72, 102
9, 538200, Note_on_c, 3, 72, 102
9, 538320, Note_off_c, 3, 72, 102
9, 538320, Note_on_c, 3, 72, 102
9, 538440, Note_off_c, 3, 72, 102
9, 538440, Note_on_c, 3, 72, 102
9, 538560, Note_off_c, 3, 72, 102
9, 538560, Note_on_c, 3, 72, 102
9, 538680, Note_off_c, 3, 72, 102
9, 538680, Note_on_c, 3, 72, 102
9, 538800, Note_off_c, 3, 72, 102
9, 538800, Note_on_c, 3, 72, 102
9, 538920, Note_off_c, 3, 72, 102
9, 538920, Note_on_c, 3, 72, 102
9, 539040, Note_off_c, 3, 72, 102
9, 539040, Note_on_c, 3, 72, 102
9, 539160, Note_off_c, 3, 72, 102
9, 539160, Note_on_c, 3, 72, 102
9, 539280, Note_off_c, 3, 72, 102
9, 539280, Note_on_c, 3, 72, 102
9, 539400, Note_off_c, 3, 72, 102
9, 539400, Note_on_c, 3, 72, 102
9, 539520, Note_off_c, 3, 72, 102
9, 539520, Note_on_c, 3, 72, 102
9, 539640, Note_off_c, 3, 72, 102
9, 539640, Note_on_c, 3, 72, 102
9, 539760, Note_off_c, 3, 72, 102
9, 539760, Note_on_c, 3, 72, 102
9, 539880, Note_off_c, 3, 72, 102
9, 539880, Note_on_c, 3, 72, 102
9, 539999, Note_off_c, 3, 72, 102
9, 540000, Note_on_c, 3, 71, 127
9, 540160, Note_off_c, 3, 71, 127
9, 540160, Note_on_c, 3, 71, 127
9, 540320, Note_off_c, 3, 71, 127
9, 540320, Note_on_c, 3, 74, 102
9, 540480, Note_off_c, 3, 74, 102
9, 540480, Note_on_c, 3, 69, 127
9, 540600, Note_off_c, 3, 69, 127
9, 540600, Note_on_c, 3, 69, 127
9, 540720, Note_off_c, 3, 69, 127
9, 540720, Note_on_c, 3, 69, 127
9, 540840, Note_off_c, 3, 69, 127
9, 540840, Note_on_c, 3, 69, 127
9, 540960, Note_off_c, 3, 69, 127
9, 540960, Note_on_c, 3, 69, 127
9, 541080, Note_off_c, 3, 69, 127
9, 541080, Note_on_c, 3, 69, 127
9, 541200, Note_off_c, 3, 69, 127
9, 541200, Note_on_c, 3, 69, 127
9, 541320, Note_off_c, 3, 69, 127
9, 541320, Note_on_c, 3, 69, 127
9, 541440, Note_off_c, 3, 69, 127
9, 541440, Note_on_c, 3, 69, 127
9, 541560, Note_off_c, 3, 69, 127
9, 541560, Note_on_c, 3, 69, 127
9, 541680, Note_off_c, 3, 69, 127
9, 541680, Note_on_c, 3, 69, 127
9, 541800, Note_off_c, 3, 69, 127
9, 541800, Note_on_c, 3, 69, 127
9, 541919, Note_off_c, 3, 69, 127
9, 541920, Note_on_c, 3, 71, 127
9, 542040, Note_off_c, 3, 71, 127
9, 542040, Note_on_c, 3, 71, 127
9, 542160, Note_off_c, 3, 71, 127
9, 542160, Note_on_c, 3, 71, 127
9, 542280, Note_off_c, 3, 71, 127
9, 542280, Note_on_c, 3, 71, 127
9, 542400, Note_off_c, 3, 71, 127
9, 542400, Note_on_c, 3, 71, 127
9, 542520, Note_off_c, 3, 71, 127
9, 542520, Note_on_c, 3, 71, 127
9, 542640, Note_off_c, 3, 71, 127
9, 542640, Note_on_c, 3, 71, 127
9, 542760, Note_off_c, 3, 71, 127
9, 542760, Note_on_c, 3, 71, 127
9, 542880, Note_off_c, 3, 71, 127
9, 542880, Note_on_c, 3, 71, 127
9, 543000, Note_off_c, 3, 71, 127
9, 543000, Note_on_c, 3, 71, 127
9, 543120, Note_off_c, 3, 71, 127
9, 543120, Note_on_c, 3, 71, 127
9, 543240, Note_off_c, 3, 71, 127
9, 543240, Note_on_c, 3, 71, 127
9, 543360, Note_off_c, 3, 71, 127
9, 543360, Note_on_c, 3, 71, 127
9, 543480, Note_off_c, 3, 71, 127
9, 543480, Note_on_c, 3, 71, 127
9, 543600, Note_off_c, 3, 71, 127
9, 543600, Note_on_c, 3, 71, 127
9, 543720, Note_off_c, 3, 71, 127
9, 543720, Note_on_c, 3, 71, 127
9, 543840, Note_off_c, 3, 71, 127
9, 543840, Note_on_c, 3, 71, 127
9, 543960, Note_off_c, 3, 71, 127
9, 543960, Note_on_c, 3, 71, 127
9, 544080, Note_off_c, 3, 71, 127
9, 544080, Note_on_c, 3, 71, 127
9, 544200, Note_off_c, 3, 71, 127
9, 544200, Note_on_c, 3, 71, 127
9, 544320, Note_off_c, 3, 71, 127
9, 544320, Note_on_c, 3, 71, 127
9, 544440, Note_off_c, 3, 71, 127
9, 544440, Note_on_c, 3, 71, 127
9, 544560, Note_off_c, 3, 71, 127
9, 544560, Note_on_c, 3, 71, 127
9, 544680, Note_off_c, 3, 71, 127
9, 544680, Note_on_c, 3, 71, 127
9, 544800, Note_off_c, 3, 71, 127
9, 544800, Note_on_c, 3, 71, 127
9, 544920, Note_off_c, 3, 71, 127
9, 544920, Note_on_c, 3, 71, 127
9, 545040, Note_off_c, 3, 71, 127
9, 545040, Note_on_c, 3, 71, 127
9, 545160, Note_off_c, 3, 71, 127
9, 545160, Note_on_c, 3, 71, 127
9, 545280, Note_off_c, 3, 71, 127
9, 545280, Note_on_c, 3, 71, 127
9, 545400, Note_off_c, 3, 71, 127
9, 545400, Note_on_c, 3, 71, 127
9, 545520, Note_off_c, 3, 71, 127
9, 545520, Note_on_c, 3, 71, 127
9, 545640, Note_off_c, 3, 71, 127
9, 545640, Note_on_c, 3, 71, 127
9, 545760, Note_off_c, 3, 71, 127
9, 545760, Note_on_c, 3, 71, 127
9, 545880, Note_off_c, 3, 71, 127
9, 545880, Note_on_c, 3, 71, 127
9, 546000, Note_off_c, 3, 71, 127
9, 546000, Note_on_c, 3, 71, 127
9, 546120, Note_off_c, 3, 71, 127
9, 546120, Note_on_c, 3, 71, 127
9, 546239, Note_off_c, 3, 71, 127
9, 546240, Note_on_c, 3, 72, 127
9, 546480, Note_off_c, 3, 72, 127
9, 546480, Note_on_c, 3, 71, 127
9, 546720, Note_off_c, 3, 71, 127
9, 546720, Note_on_c, 3, 71, 127
9, 546960, Note_off_c, 3, 71, 127
9, 546960, Note_on_c, 3, 67, 127
9, 547200, Note_off_c, 3, 67, 127
9, 547200, Note_on_c, 3, 67, 127
9, 547440, Note_off_c, 3, 67, 127
9, 547440, Note_on_c, 3, 69, 127
9, 547680, Note_off_c, 3, 69, 127
9, 547680, Note_on_c, 3, 65, 127
9, 547920, Note_off_c, 3, 65, 127
9, 547920, Note_on_c, 3, 76, 127
9, 548160, Note_off_c, 3, 76, 127
9, 548160, Note_on_c, 3, 74, 127
9, 548400, Note_off_c, 3, 74, 127
9, 548400, Note_on_c, 3, 69, 127
9, 548640, Note_off_c, 3, 69, 127
9, 548640, Note_on_c, 3, 72, 127
9, 548880, Note_off_c, 3, 72, 127
9, 548880, Note_on_c, 3, 71, 127
9, 549120, Note_off_c, 3, 71, 127
9, 549120, Note_on_c, 3, 71, 127
9, 549312, Note_off_c, 3, 71, 127
9, 549312, Note_on_c, 3, 69, 127
9, 549504, Note_off_c, 3, 69, 127
9, 549504, Note_on_c, 3, 69, 127
9, 549696, Note_off_c, 3, 69, 127
9, 549696, Note_on_c, 3, 64, 127
9, 549888, Note_off_c, 3, 64, 127
9, 549888, Note_on_c, 3, 72, 127
9, 550080, Note_off_c, 3, 72, 127
9, 550080, Note_on_c, 3, 71, 127
9, 550400, Note_off_c, 3, 71, 127
9, 550720, Note_on_c, 3, 71, 127
9, 551040, Note_off_c, 3, 71, 127
9, 551360, Note_on_c, 3, 69, 127
9, 551680, Note_off_c, 3, 69, 127
9, 552000, Note_on_c, 3, 72, 127
9, 552320, Note_off_c, 3, 72, 127
9, 552320, Note_on_c, 3, 74, 127
9, 552480, Note_off_c, 3, 74, 127
9, 552480, Note_on_c, 3, 71, 127
9, 552600, Note_off_c, 3, 71, 127
9, 552600, Note_on_c, 3, 71, 127
9, 552720, Note_off_c, 3, 71, 127
9, 552720, Note_on_c, 3, 71, 127
9, 552840, Note_off_c, 3, 71, 127
9, 552840, Note_on_c, 3, 71, 127
9, 552960, Note_off_c, 3, 71, 127
9, 552960, Note_on_c, 3, 71, 127
9, 553080, Note_off_c, 3, 71, 127
9, 553080, Note_on_c, 3, 71, 127
9, 553200, Note_off_c, 3, 71, 127
9, 553200, Note_on_c, 3, 71, 127
9, 553320, Note_off_c, 3, 71, 127
9, 553320, Note_on_c, 3, 71, 127
9, 553440, Note_off_c, 3, 71, 127
9, 553440, Note_on_c, 3, 71, 127
9, 553560, Note_off_c, 3, 71, 127
9, 553560, Note_on_c, 3, 71, 127
9, 553680, Note_off_c, 3, 71, 127
9, 553680, Note_on_c, 3, 71, 127
9, 553800, Note_off_c, 3, 71, 127
9, 553800, Note_on_c, 3, 71, 127
9, 553920, Note_off_c, 3, 71, 127
9, 553920, Note_on_c, 3, 71, 127
9, 554040, Note_off_c, 3, 71, 127
9, 554040, Note_on_c, 3, 71, 127
9, 554160, Note_off_c, 3, 71, 127
9, 554160, Note_on_c, 3, 71, 127
9, 554280, Note_off_c, 3, 71, 127
9, 554280, Note_on_c, 3, 71, 127
9, 554400, Note_off_c, 3, 71, 127
9, 554400, Note_on_c, 3, 71, 127
9, 554520, Note_off_c, 3, 71, 127
9, 554520, Note_on_c, 3, 71, 127
9, 554640, Note_off_c, 3, 71, 127
9, 554640, Note_on_c, 3, 71, 127
9, 554760, Note_off_c, 3, 71, 127
9, 554760, Note_on_c, 3, 71, 127
9, 554880, Note_off_c, 3, 71, 127
9, 554880, Note_on_c, 3, 71, 127
9, 555000, Note_off_c, 3, 71, 127
9, 555000, Note_on_c, 3, 71, 127
9, 555120, Note_off_c, 3, 71, 127
9, 555120, Note_on_c, 3, 71, 127
9, 555240, Note_off_c, 3, 71, 127
9, 555240, Note_on_c, 3, 71, 127
9, 555360, Note_off_c, 3, 71, 127
9, 555360, Note_on_c, 3, 71, 127
9, 555480, Note_off_c, 3, 71, 127
9, 555480, Note_on_c, 3, 71, 127
9, 555600, Note_off_c, 3, 71, 127
9, 555600, Note_on_c, 3, 71, 127
9, 555720, Note_off_c, 3, 71, 127
9, 555720, Note_on_c, 3, 71, 127
9, 555840, Note_off_c, 3, 71, 127
9, 555840, Note_on_c, 3, 71, 127
9, 555960, Note_off_c, 3, 71, 127
9, 555960, Note_on_c, 3, 71, 127
9, 556080, Note_off_c, 3, 71, 127
9, 556080, Note_on_c, 3, 71, 127
9, 556200, Note_off_c, 3, 71, 127
9, 556200, Note_on_c, 3, 71, 127
9, 556320, Note_off_c, 3, 71, 127
9, 556320, Note_on_c, 3, 71, 127
9, 556440, Note_off_c, 3, 71, 127
9, 556440, Note_on_c, 3, 71, 127
9, 556560, Note_off_c, 3, 71, 127
9, 556560, Note_on_c, 3, 71, 127
9, 556680, Note_off_c, 3, 71, 127
9, 556680, Note_on_c, 3, 71, 127
9, 556799, Note_off_c, 3, 71, 127
9, 556992, Note_on_c, 3, 72, 127
9, 557184, Note_off_c, 3, 72, 127
9, 557184, Note_on_c, 3, 72, 127
9, 557376, Note_off_c, 3, 72, 127
9, 557376, Note_on_c, 3, 74, 127
9, 557568, Note_off_c, 3, 74, 127
9, 557568, Note_on_c, 3, 69, 127
9, 557760, Note_off_c, 3, 69, 127
9, 557760, Note_on_c, 3, 67, 127
9, 557880, Note_off_c, 3, 67, 127
9, 557880, Note_on_c, 3, 67, 127
9, 558000, Note_off_c, 3, 67, 127
9, 558000, Note_on_c, 3, 67, 127
9, 558120, Note_off_c, 3, 67, 127
9, 558120, Note_on_c, 3, 67, 127
9, 558240, Note_off_c, 3, 67, 127
9, 558240, Note_on_c, 3, 67, 127
9, 558360, Note_off_c, 3, 67, 127
9, 558360, Note_on_c, 3, 67, 127
9, 558480, Note_off_c, 3, 67, 127
9, 558480, Note_on_c, 3, 67, 127
9, 558600, Note_off_c, 3, 67, 127
9, 558600, Note_on_c, 3, 67, 127
9, 558719, Note_off_c, 3, 67, 127
9, 559104, Note_on_c, 3, 64, 127
9, 559488, Note_off_c, 3, 64, 127
9, 559488, Note_on_c, 3, 65, 127
9, 559840, Note_off_c, 3, 65, 127
9, 559840, Note_on_c, 3, 62, 127
9, 560000, Note_off_c, 3, 62, 127
9, 560000, Note_on_c, 3, 64, 127
9, 560160, Note_off_c, 3, 64, 127
9, 560160, Note_on_c, 3, 65, 127
9, 560320, Note_off_c, 3, 65, 127
9, 560320, Note_on_c, 3, 67, 127
9, 560480, Note_off_c, 3, 67, 127
9, 560480, Note_on_c, 3, 69, 127
9, 560640, Note_off_c, 3, 69, 127
9, 560640, Note_on_c, 3, 70, 127
9, 560760, Note_off_c, 3, 70, 127
9, 560760, Note_on_c, 3, 70, 127
9, 560880, Note_off_c, 3, 70, 127
9, 560880, Note_on_c, 3, 70, 127
9, 561000, Note_off_c, 3, 70, 127
9, 561000, Note_on_c, 3, 70, 127
9, 561120, Note_off_c, 3, 70, 127
9, 561120, Note_on_c, 3, 70, 127
9, 561240, Note_off_c, 3, 70, 127
9, 561240, Note_on_c, 3, 70, 127
9, 561360, Note_off_c, 3, 70, 127
9, 561360, Note_on_c, 3, 70, 127
9, 561480, Note_off_c, 3, 70, 127
9, 561480, Note_on_c, 3, 70, 127
9, 561600, Note_off_c, 3, 70, 127
9, 561600, Note_on_c, 3, 70, 127
9, 561720, Note_off_c, 3, 70, 127
9, 561720, Note_on_c, 3, 70, 127
9, 561840, Note_off_c, 3, 70, 127
9, 561840, Note_on_c, 3, 70, 127
9, 561960, Note_off_c, 3, 70, 127
9, 561960, Note_on_c, 3, 70, 127
9, 562080, Note_off_c, 3, 70, 127
9, 562080, Note_on_c, 3, 70, 127
9, 562200, Note_off_c, 3, 70, 127
9, 562200, Note_on_c, 3, 70, 127
9, 562320, Note_off_c, 3, 70, 127
9, 562320, Note_on_c, 3, 70, 127
9, 562440, Note_off_c, 3, 70, 127
9, 562440, Note_on_c, 3, 70, 127
9, 562560, Note_off_c, 3, 70, 127
9, 562560, Note_on_c, 3, 70, 127
9, 562680, Note_off_c, 3, 70, 127
9, 562680, Note_on_c, 3, 70, 127
9, 562800, Note_off_c, 3, 70, 127
9, 562800, Note_on_c, 3, 70, 127
9, 562920, Note_off_c, 3, 70, 127
9, 562920, Note_on_c, 3, 70, 127
9, 563040, Note_off_c, 3, 70, 127
9, 563040, Note_on_c, 3, 70, 127
9, 563160, Note_off_c, 3, 70, 127
9, 563160, Note_on_c, 3, 70, 127
9, 563280, Note_off_c, 3, 70, 127
9, 563280, Note_on_c, 3, 70, 127
9, 563400, Note_off_c, 3, 70, 127
9, 563400, Note_on_c, 3, 70, 127
9, 563520, Note_off_c, 3, 70, 127
9, 563520, Note_on_c, 3, 70, 127
9, 563640, Note_off_c, 3, 70, 127
9, 563640, Note_on_c, 3, 70, 127
9, 563760, Note_off_c, 3, 70, 127
9, 563760, Note_on_c, 3, 70, 127
9, 563880, Note_off_c, 3, 70, 127
9, 563880, Note_on_c, 3, 70, 127
9, 563999, Note_off_c, 3, 70, 127
9, 564000, Note_on_c, 3, 72, 127
9, 564480, Note_off_c, 3, 72, 127
9, 564480, Note_on_c, 3, 73, 127
9, 564960, Note_off_c, 3, 73, 127
9, 564960, Note_on_c, 3, 75, 127
9, 565440, Note_off_c, 3, 75, 127
9, 565440, Note_on_c, 3, 77, 127
9, 565680, Note_off_c, 3, 77, 127
9, 565680, Note_on_c, 3, 78, 127
9, 565920, Note_off_c, 3, 78, 127
9, 565920, Note_on_c, 3, 80, 127
9, 566160, Note_off_c, 3, 80, 127
9, 566160, Note_on_c, 3, 82, 127
9, 566400, Note_off_c, 3, 82, 127
9, 566400, Note_on_c, 3, 82, 127
9, 566720, Note_off_c, 3, 82, 127
9, 567040, Note_on_c, 3, 80, 127
9, 567360, Note_off_c, 3, 80, 127
9, 567680, Note_on_c, 3, 79, 127
9, 568000, Note_off_c, 3, 79, 127
9, 568320, Note_on_c, 3, 77, 127
9, 568512, Note_off_c, 3, 77, 127
9, 568512, Note_on_c, 3, 75, 127
9, 568704, Note_off_c, 3, 75, 127
9, 568704, Note_on_c, 3, 73, 127
9, 568896, Note_off_c, 3, 73, 127
9, 568896, Note_on_c, 3, 71, 127
9, 569088, Note_off_c, 3, 71, 127
9, 569088, Note_on_c, 3, 70, 127
9, 569280, Note_off_c, 3, 70, 127
9, 569280, Note_on_c, 3, 71, 127
9, 569400, Note_off_c, 3, 71, 127
9, 569400, Note_on_c, 3, 71, 127
9, 569520, Note_off_c, 3, 71, 127
9, 569520, Note_on_c, 3, 71, 127
9, 569640, Note_off_c, 3, 71, 127
9, 569640, Note_on_c, 3, 71, 127
9, 569760, Note_off_c, 3, 71, 127
9, 569760, Note_on_c, 3, 71, 127
9, 569880, Note_off_c, 3, 71, 127
9, 569880, Note_on_c, 3, 71, 127
9, 570000, Note_off_c, 3, 71, 127
9, 570000, Note_on_c, 3, 71, 127
9, 570120, Note_off_c, 3, 71, 127
9, 570120, Note_on_c, 3, 71, 127
9, 570240, Note_off_c, 3, 71, 127
9, 570240, Note_on_c, 3, 71, 127
9, 570360, Note_off_c, 3, 71, 127
9, 570360, Note_on_c, 3, 71, 127
9, 570480, Note_off_c, 3, 71, 127
9, 570480, Note_on_c, 3, 71, 127
9, 570600, Note_off_c, 3, 71, 127
9, 570600, Note_on_c, 3, 71, 127
9, 570720, Note_off_c, 3, 71, 127
9, 570720, Note_on_c, 3, 71, 127
9, 570840, Note_off_c, 3, 71, 127
9, 570840, Note_on_c, 3, 71, 127
9, 570960, Note_off_c, 3, 71, 127
9, 570960, Note_on_c, 3, 71, 127
9, 571080, Note_off_c, 3, 71, 127
9, 571080, Note_on_c, 3, 71, 127
9, 571200, Note_off_c, 3, 71, 127
9, 571200, Note_on_c, 3, 71, 127
9, 571320, Note_off_c, 3, 71, 127
9, 571320, Note_on_c, 3, 71, 127
9, 571440, Note_off_c, 3, 71, 127
9, 571440, Note_on_c, 3, 71, 127
9, 571560, Note_off_c, 3, 71, 127
9, 571560, Note_on_c, 3, 71, 127
9, 571680, Note_off_c, 3, 71, 127
9, 571680, Note_on_c, 3, 71, 127
9, 571800, Note_off_c, 3, 71, 127
9, 571800, Note_on_c, 3, 71, 127
9, 571920, Note_off_c, 3, 71, 127
9, 571920, Note_on_c, 3, 71, 127
9, 572040, Note_off_c, 3, 71, 127
9, 572040, Note_on_c, 3, 71, 127
9, 572160, Note_off_c, 3, 71, 127
9, 572160, Note_on_c, 3, 71, 127
9, 572280, Note_off_c, 3, 71, 127
9, 572280, Note_on_c, 3, 71, 127
9, 572400, Note_off_c, 3, 71, 127
9, 572400, Note_on_c, 3, 71, 127
9, 572520, Note_off_c, 3, 71, 127
9, 572520, Note_on_c, 3, 71, 127
9, 572639, Note_off_c, 3, 71, 127
9, 572640, Note_on_c, 3, 70, 127
9, 573120, Note_off_c, 3, 70, 127
9, 573120, Note_on_c, 3, 68, 127
9, 573440, Note_off_c, 3, 68, 127
9, 573440, Note_on_c, 3, 67, 127
9, 573760, Note_off_c, 3, 67, 127
9, 573760, Note_on_c, 3, 65, 127
9, 574080, Note_off_c, 3, 65, 127
9, 574080, Note_on_c, 3, 63, 127
9, 574560, Note_off_c, 3, 63, 127
9, 574560, Note_on_c, 3, 61, 127
9, 575040, Note_off_c, 3, 61, 127
9, 575040, Note_on_c, 3, 59, 127
9, 575520, Note_off_c, 3, 59, 127
9, 575520, Note_on_c, 3, 61, 127
9, 576000, Note_off_c, 3, 61, 127
9, 576000, Note_on_c, 3, 63, 127
9, 576320, Note_off_c, 3, 63, 127
9, 576320, Note_on_c, 3, 65, 127
9, 576640, Note_off_c, 3, 65, 127
9, 576640, Note_on_c, 3, 67, 127
9, 576960, Note_off_c, 3, 67, 127
9, 576960, Note_on_c, 3, 68, 127
9, 577440, Note_off_c, 3, 68, 127
9, 577440, Note_on_c, 3, 70, 127
9, 577920, Note_off_c, 3, 70, 127
9, 577920, Note_on_c, 3, 72, 127
9, 578080, Note_off_c, 3, 72, 127
9, 578080, Note_on_c, 3, 73, 127
9, 578240, Note_off_c, 3, 73, 127
9, 578240, Note_on_c, 3, 75, 127
9, 578400, Note_off_c, 3, 75, 127
9, 578400, Note_on_c, 3, 77, 127
9, 578560, Note_off_c, 3, 77, 127
9, 578560, Note_on_c, 3, 78, 127
9, 578720, Note_off_c, 3, 78, 127
9, 578720, Note_on_c, 3, 80, 127
9, 578880, Note_off_c, 3, 80, 127
9, 578880, Note_on_c, 3, 82, 127
9, 579000, Note_off_c, 3, 82, 127
9, 579000, Note_on_c, 3, 82, 127
9, 579120, Note_off_c, 3, 82, 127
9, 579120, Note_on_c, 3, 82, 127
9, 579240, Note_off_c, 3, 82, 127
9, 579240, Note_on_c, 3, 82, 127
9, 579360, Note_off_c, 3, 82, 127
9, 579360, Note_on_c, 3, 82, 127
9, 579480, Note_off_c, 3, 82, 127
9, 579480, Note_on_c, 3, 82, 127
9, 579600, Note_off_c, 3, 82, 127
9, 579600, Note_on_c, 3, 82, 127
9, 579720, Note_off_c, 3, 82, 127
9, 579720, Note_on_c, 3, 82, 127
9, 579840, Note_off_c, 3, 82, 127
9, 579840, Note_on_c, 3, 82, 127
9, 579960, Note_off_c, 3, 82, 127
9, 579960, Note_on_c, 3, 82, 127
9, 580080, Note_off_c, 3, 82, 127
9, 580080, Note_on_c, 3, 82, 127
9, 580200, Note_off_c, 3, 82, 127
9, 580200, Note_on_c, 3, 82, 127
9, 580320, Note_off_c, 3, 82, 127
9, 580320, Note_on_c, 3, 82, 127
9, 580440, Note_off_c, 3, 82, 127
9, 580440, Note_on_c, 3, 82, 127
9, 580560, Note_off_c, 3, 82, 127
9, 580560, Note_on_c, 3, 82, 127
9, 580680, Note_off_c, 3, 82, 127
9, 580680, Note_on_c, 3, 82, 127
9, 580800, Note_off_c, 3, 82, 127
9, 580800, Note_on_c, 3, 82, 127
9, 580920, Note_off_c, 3, 82, 127
9, 580920, Note_on_c, 3, 82, 127
9, 581039, Note_off_c, 3, 82, 127
9, 581040, Note_on_c, 3, 80, 127
9, 581280, Note_off_c, 3, 80, 127
9, 581280, Note_on_c, 3, 78, 127
9, 581520, Note_off_c, 3, 78, 127
9, 581520, Note_on_c, 3, 77, 127
9, 581760, Note_off_c, 3, 77, 127
9, 581760, Note_on_c, 3, 75, 127
9, 582080, Note_off_c, 3, 75, 127
9, 582080, Note_on_c, 3, 73, 127
9, 582400, Note_off_c, 3, 73, 127
9, 582400, Note_on_c, 3, 71, 127
9, 582720, Note_off_c, 3, 71, 127
9, 582720, Note_on_c, 3, 71, 127
9, 582840, Note_off_c, 3, 71, 127
9, 582840, Note_on_c, 3, 68, 127
9, 582960, Note_off_c, 3, 68, 127
9, 582960, Note_on_c, 3, 71, 127
9, 583080, Note_off_c, 3, 71, 127
9, 583080, Note_on_c, 3, 68, 127
9, 583200, Note_off_c, 3, 68, 127
9, 583200, Note_on_c, 3, 67, 127
9, 583320, Note_off_c, 3, 67, 127
9, 583320, Note_on_c, 3, 67, 127
9, 583440, Note_off_c, 3, 67, 127
9, 583440, Note_on_c, 3, 67, 127
9, 583560, Note_off_c, 3, 67, 127
9, 583560, Note_on_c, 3, 67, 127
9, 583680, Note_off_c, 3, 67, 127
9, 583680, Note_on_c, 3, 67, 127
9, 583800, Note_off_c, 3, 67, 127
9, 583800, Note_on_c, 3, 67, 127
9, 583920, Note_off_c, 3, 67, 127
9, 583920, Note_on_c, 3, 67, 127
9, 584040, Note_off_c, 3, 67, 127
9, 584040, Note_on_c, 3, 67, 127
9, 584160, Note_off_c, 3, 67, 127
9, 584160, Note_on_c, 3, 67, 127
9, 584280, Note_off_c, 3, 67, 127
9, 584280, Note_on_c, 3, 67, 127
9, 584400, Note_off_c, 3, 67, 127
9, 584400, Note_on_c, 3, 67, 127
9, 584520, Note_off_c, 3, 67, 127
9, 584520, Note_on_c, 3, 67, 127
9, 584640, Note_off_c, 3, 67, 127
9, 584640, Note_on_c, 3, 67, 127
9, 584760, Note_off_c, 3, 67, 127
9, 584760, Note_on_c, 3, 67, 127
9, 584880, Note_off_c, 3, 67, 127
9, 584880, Note_on_c, 3, 67, 127
9, 585000, Note_off_c, 3, 67, 127
9, 585000, Note_on_c, 3, 67, 127
9, 585120, Note_off_c, 3, 67, 127
9, 585120, Note_on_c, 3, 67, 127
9, 585240, Note_off_c, 3, 67, 127
9, 585240, Note_on_c, 3, 67, 127
9, 585360, Note_off_c, 3, 67, 127
9, 585360, Note_on_c, 3, 67, 127
9, 585480, Note_off_c, 3, 67, 127
9, 585480, Note_on_c, 3, 67, 127
9, 585600, Note_off_c, 3, 67, 127
9, 585600, Note_on_c, 3, 67, 127
9, 585720, Note_off_c, 3, 67, 127
9, 585720, Note_on_c, 3, 67, 127
9, 585840, Note_off_c, 3, 67, 127
9, 585840, Note_on_c, 3, 67, 127
9, 585960, Note_off_c, 3, 67, 127
9, 585960, Note_on_c, 3, 67, 127
9, 586080, Note_off_c, 3, 67, 127
9, 586080, Note_on_c, 3, 67, 127
9, 586200, Note_off_c, 3, 67, 127
9, 586200, Note_on_c, 3, 67, 127
9, 586320, Note_off_c, 3, 67, 127
9, 586320, Note_on_c, 3, 67, 127
9, 586440, Note_off_c, 3, 67, 127
9, 586440, Note_on_c, 3, 67, 127
9, 586559, Note_off_c, 3, 67, 127
9, 586560, Note_on_c, 3, 71, 127
9, 586800, Note_off_c, 3, 71, 127
9, 586800, Note_on_c, 3, 72, 127
9, 587040, Note_off_c, 3, 72, 127
9, 587040, Note_on_c, 3, 74, 127
9, 587280, Note_off_c, 3, 74, 127
9, 587280, Note_on_c, 3, 75, 127
9, 587520, Note_off_c, 3, 75, 127
9, 587520, Note_on_c, 3, 77, 127
9, 587760, Note_off_c, 3, 77, 127
9, 587760, Note_on_c, 3, 79, 127
9, 588000, Note_off_c, 3, 79, 127
9, 588000, Note_on_c, 3, 80, 127
9, 588240, Note_off_c, 3, 80, 127
9, 588240, Note_on_c, 3, 79, 127
9, 588480, Note_off_c, 3, 79, 127
9, 588480, Note_on_c, 3, 77, 127
9, 588720, Note_off_c, 3, 77, 127
9, 588720, Note_on_c, 3, 75, 127
9, 588960, Note_off_c, 3, 75, 127
9, 588960, Note_on_c, 3, 74, 127
9, 589200, Note_off_c, 3, 74, 127
9, 589200, Note_on_c, 3, 72, 127
9, 589440, Note_off_c, 3, 72, 127
9, 589440, Note_on_c, 3, 71, 127
9, 589560, Note_off_c, 3, 71, 127
9, 589560, Note_on_c, 3, 71, 127
9, 589680, Note_off_c, 3, 71, 127
9, 589680, Note_on_c, 3, 71, 127
9, 589800, Note_off_c, 3, 71, 127
9, 589800, Note_on_c, 3, 71, 127
9, 589920, Note_off_c, 3, 71, 127
9, 589920, Note_on_c, 3, 71, 127
9, 590040, Note_off_c, 3, 71, 127
9, 590040, Note_on_c, 3, 71, 127
9, 590160, Note_off_c, 3, 71, 127
9, 590160, Note_on_c, 3, 71, 127
9, 590280, Note_off_c, 3, 71, 127
9, 590280, Note_on_c, 3, 71, 127
9, 590400, Note_off_c, 3, 71, 127
9, 590400, Note_on_c, 3, 71, 127
9, 590520, Note_off_c, 3, 71, 127
9, 590520, Note_on_c, 3, 71, 127
9, 590640, Note_off_c, 3, 71, 127
9, 590640, Note_on_c, 3, 71, 127
9, 590760, Note_off_c, 3, 71, 127
9, 590760, Note_on_c, 3, 71, 127
9, 590880, Note_off_c, 3, 71, 127
9, 590880, Note_on_c, 3, 71, 127
9, 591000, Note_off_c, 3, 71, 127
9, 591000, Note_on_c, 3, 71, 127
9, 591120, Note_off_c, 3, 71, 127
9, 591120, Note_on_c, 3, 71, 127
9, 591240, Note_off_c, 3, 71, 127
9, 591240, Note_on_c, 3, 71, 127
9, 591360, Note_off_c, 3, 71, 127
9, 591360, Note_on_c, 3, 71, 127
9, 591480, Note_off_c, 3, 71, 127
9, 591480, Note_on_c, 3, 71, 127
9, 591600, Note_off_c, 3, 71, 127
9, 591600, Note_on_c, 3, 71, 127
9, 591720, Note_off_c, 3, 71, 127
9, 591720, Note_on_c, 3, 71, 127
9, 591840, Note_off_c, 3, 71, 127
9, 591840, Note_on_c, 3, 71, 127
9, 591960, Note_off_c, 3, 71, 127
9, 591960, Note_on_c, 3, 71, 127
9, 592080, Note_off_c, 3, 71, 127
9, 592080, Note_on_c, 3, 71, 127
9, 592200, Note_off_c, 3, 71, 127
9, 592200, Note_on_c, 3, 71, 127
9, 592319, Note_off_c, 3, 71, 127
9, 592320, Note_on_c, 3, 70, 127
9, 592581, Note_off_c, 3, 70, 127
9, 592581, Note_on_c, 3, 65, 127
9, 592842, Note_off_c, 3, 65, 127
9, 592842, Note_on_c, 3, 65, 127
9, 593103, Note_off_c, 3, 65, 127
9, 593103, Note_on_c, 3, 65, 127
9, 593364, Note_off_c, 3, 65, 127
9, 593364, Note_on_c, 3, 69, 127
9, 593625, Note_off_c, 3, 69, 127
9, 593625, Note_on_c, 3, 67, 127
9, 593886, Note_off_c, 3, 67, 127
9, 593886, Note_on_c, 3, 72, 127
9, 594147, Note_off_c, 3, 72, 127
9, 594147, Note_on_c, 3, 72, 127
9, 594408, Note_off_c, 3, 72, 127
9, 594408, Note_on_c, 3, 72, 127
9, 594669, Note_off_c, 3, 72, 127
9, 594669, Note_on_c, 3, 67, 127
9, 594930, Note_off_c, 3, 67, 127
9, 594930, Note_on_c, 3, 69, 127
9, 595191, Note_off_c, 3, 69, 127
9, 595200, Note_on_c, 3, 69, 127
9, 595488, Note_off_c, 3, 69, 127
9, 595776, Note_on_c, 3, 72, 127
9, 596064, Note_off_c, 3, 72, 127
9, 596352, Note_on_c, 3, 74, 127
9, 596640, Note_off_c, 3, 74, 127
9, 596928, Note_on_c, 3, 67, 127
9, 597216, Note_off_c, 3, 67, 127
9, 597504, Note_on_c, 3, 70, 127
9, 597792, Note_off_c, 3, 70, 127
9, 598080, Note_on_c, 3, 69, 127
9, 598200, Note_off_c, 3, 69, 127
9, 598200, Note_on_c, 3, 69, 127
9, 598320, Note_off_c, 3, 69, 127
9, 598320, Note_on_c, 3, 69, 127
9, 598440, Note_off_c, 3, 69, 127
9, 598440, Note_on_c, 3, 69, 127
9, 598560, Note_off_c, 3, 69, 127
9, 598560, Note_on_c, 3, 69, 127
9, 598680, Note_off_c, 3, 69, 127
9, 598680, Note_on_c, 3, 69, 127
9, 598800, Note_off_c, 3, 69, 127
9, 598800, Note_on_c, 3, 69, 127
9, 598920, Note_off_c, 3, 69, 127
9, 598920, Note_on_c, 3, 69, 127
9, 599040, Note_off_c, 3, 69, 127
9, 599040, Note_on_c, 3, 69, 127
9, 599160, Note_off_c, 3, 69, 127
9, 599160, Note_on_c, 3, 69, 127
9, 599280, Note_off_c, 3, 69, 127
9, 599280, Note_on_c, 3, 69, 127
9, 599400, Note_off_c, 3, 69, 127
9, 599400, Note_on_c, 3, 69, 127
9, 599520, Note_off_c, 3, 69, 127
9, 599520, Note_on_c, 3, 69, 127
9, 599640, Note_off_c, 3, 69, 127
9, 599640, Note_on_c, 3, 69, 127
9, 599760, Note_off_c, 3, 69, 127
9, 599760, Note_on_c, 3, 69, 127
9, 599880, Note_off_c, 3, 69, 127
9, 599880, Note_on_c, 3, 69, 127
9, 599999, Note_off_c, 3, 69, 127
9, 600160, Note_on_c, 3, 70, 127
9, 600320, Note_off_c, 3, 70, 127
9, 600320, Note_on_c, 3, 70, 127
9, 600480, Note_off_c, 3, 70, 127
9, 600480, Note_on_c, 3, 67, 127
9, 600640, Note_off_c, 3, 67, 127
9, 600640, Note_on_c, 3, 67, 127
9, 600800, Note_off_c, 3, 67, 127
9, 600800, Note_on_c, 3, 70, 127
9, 600960, Note_off_c, 3, 70, 127
9, 600960, Note_on_c, 3, 69, 127
9, 601080, Note_off_c, 3, 69, 127
9, 601080, Note_on_c, 3, 69, 127
9, 601200, Note_off_c, 3, 69, 127
9, 601200, Note_on_c, 3, 69, 127
9, 601320, Note_off_c, 3, 69, 127
9, 601320, Note_on_c, 3, 69, 127
9, 601440, Note_off_c, 3, 69, 127
9, 601440, Note_on_c, 3, 69, 127
9, 601560, Note_off_c, 3, 69, 127
9, 601560, Note_on_c, 3, 69, 127
9, 601680, Note_off_c, 3, 69, 127
9, 601680, Note_on_c, 3, 69, 127
9, 601800, Note_off_c, 3, 69, 127
9, 601800, Note_on_c, 3, 69, 127
9, 601920, Note_off_c, 3, 69, 127
9, 601920, Note_on_c, 3, 69, 127
9, 602040, Note_off_c, 3, 69, 127
9, 602040, Note_on_c, 3, 69, 127
9, 602159, Note_off_c, 3, 69, 127
9, 602160, Note_on_c, 3, 62, 127
9, 602400, Note_off_c, 3, 62, 127
9, 602400, Note_on_c, 3, 64, 127
9, 602640, Note_off_c, 3, 64, 127
9, 602640, Note_on_c, 3, 65, 127
9, 602880, Note_off_c, 3, 65, 127
9, 602880, Note_on_c, 3, 67, 127
9, 603120, Note_off_c, 3, 67, 127
9, 603120, Note_on_c, 3, 69, 127
9, 603360, Note_off_c, 3, 69, 127
9, 603360, Note_on_c, 3, 70, 127
9, 603600, Note_off_c, 3, 70, 127
9, 603600, Note_on_c, 3, 72, 127
9, 603840, Note_off_c, 3, 72, 127
9, 603840, Note_on_c, 3, 74, 127
9, 604032, Note_off_c, 3, 74, 127
9, 604032, Note_on_c, 3, 76, 127
9, 604224, Note_off_c, 3, 76, 127
9, 604224, Note_on_c, 3, 77, 127
9, 604416, Note_off_c, 3, 77, 127
9, 604416, Note_on_c, 3, 79, 127
9, 604608, Note_off_c, 3, 79, 127
9, 604608, Note_on_c, 3, 81, 127
9, 604800, Note_off_c, 3, 81, 127
9, 604800, Note_on_c, 3, 83, 127
9, 604920, Note_off_c, 3, 83, 127
9, 604920, Note_on_c, 3, 83, 127
9, 605040, Note_off_c, 3, 83, 127
9, 605040, Note_on_c, 3, 83, 127
9, 605160, Note_off_c, 3, 83, 127
9, 605160, Note_on_c, 3, 83, 127
9, 605280, Note_off_c, 3, 83, 127
9, 605280, Note_on_c, 3, 83, 127
9, 605400, Note_off_c, 3, 83, 127
9, 605400, Note_on_c, 3, 83, 127
9, 605520, Note_off_c, 3, 83, 127
9, 605520, Note_on_c, 3, 83, 127
9, 605640, Note_off_c, 3, 83, 127
9, 605640, Note_on_c, 3, 83, 127
9, 605760, Note_off_c, 3, 83, 127
9, 605760, Note_on_c, 3, 83, 127
9, 605880, Note_off_c, 3, 83, 127
9, 605880, Note_on_c, 3, 83, 127
9, 606000, Note_off_c, 3, 83, 127
9, 606000, Note_on_c, 3, 83, 127
9, 606120, Note_off_c, 3, 83, 127
9, 606120, Note_on_c, 3, 83, 127
9, 606240, Note_off_c, 3, 83, 127
9, 606240, Note_on_c, 3, 83, 127
9, 606360, Note_off_c, 3, 83, 127
9, 606360, Note_on_c, 3, 83, 127
9, 606480, Note_off_c, 3, 83, 127
9, 606480, Note_on_c, 3, 83, 127
9, 606600, Note_off_c, 3, 83, 127
9, 606600, Note_on_c, 3, 83, 127
9, 606720, Note_off_c, 3, 83, 127
9, 606720, Note_on_c, 3, 83, 127
9, 606840, Note_off_c, 3, 83, 127
9, 606840, Note_on_c, 3, 83, 127
9, 606960, Note_off_c, 3, 83, 127
9, 606960, Note_on_c, 3, 83, 127
9, 607080, Note_off_c, 3, 83, 127
9, 607080, Note_on_c, 3, 83, 127
9, 607200, Note_off_c, 3, 83, 127
9, 607200, Note_on_c, 3, 83, 127
9, 607320, Note_off_c, 3, 83, 127
9, 607320, Note_on_c, 3, 83, 127
9, 607440, Note_off_c, 3, 83, 127
9, 607440, Note_on_c, 3, 83, 127
9, 607560, Note_off_c, 3, 83, 127
9, 607560, Note_on_c, 3, 83, 127
9, 607680, Note_off_c, 3, 83, 127
9, 607680, Note_on_c, 3, 83, 127
9, 607800, Note_off_c, 3, 83, 127
9, 607800, Note_on_c, 3, 83, 127
9, 607920, Note_off_c, 3, 83, 127
9, 607920, Note_on_c, 3, 83, 127
9, 608040, Note_off_c, 3, 83, 127
9, 608040, Note_on_c, 3, 83, 127
9, 608160, Note_off_c, 3, 83, 127
9, 608160, Note_on_c, 3, 83, 127
9, 608280, Note_off_c, 3, 83, 127
9, 608280, Note_on_c, 3, 83, 127
9, 608400, Note_off_c, 3, 83, 127
9, 608400, Note_on_c, 3, 83, 127
9, 608520, Note_off_c, 3, 83, 127
9, 608520, Note_on_c, 3, 83, 127
9, 608639, Note_off_c, 3, 83, 127
9, 609792, Note_on_c, 3, 81, 127
9, 609984, Note_off_c, 3, 81, 127
9, 609984, Note_on_c, 3, 83, 127
9, 610176, Note_off_c, 3, 83, 127
9, 610176, Note_on_c, 3, 78, 127
9, 610368, Note_off_c, 3, 78, 127
9, 610368, Note_on_c, 3, 80, 127
9, 610560, Note_off_c, 3, 80, 127
9, 610560, Note_on_c, 3, 73, 127
9, 610680, Note_off_c, 3, 73, 127
9, 610680, Note_on_c, 3, 73, 127
9, 610800, Note_off_c, 3, 73, 127
9, 610800, Note_on_c, 3, 73, 127
9, 610920, Note_off_c, 3, 73, 127
9, 610920, Note_on_c, 3, 73, 127
9, 611040, Note_off_c, 3, 73, 127
9, 611040, Note_on_c, 3, 73, 127
9, 611160, Note_off_c, 3, 73, 127
9, 611160, Note_on_c, 3, 73, 127
9, 611280, Note_off_c, 3, 73, 127
9, 611280, Note_on_c, 3, 73, 127
9, 611400, Note_off_c, 3, 73, 127
9, 611400, Note_on_c, 3, 73, 127
9, 611520, Note_off_c, 3, 73, 127
9, 611520, Note_on_c, 3, 73, 127
9, 611640, Note_off_c, 3, 73, 127
9, 611640, Note_on_c, 3, 73, 127
9, 611760, Note_off_c, 3, 73, 127
9, 611760, Note_on_c, 3, 73, 127
9, 611880, Note_off_c, 3, 73, 127
9, 611880, Note_on_c, 3, 73, 127
9, 612000, Note_off_c, 3, 73, 127
9, 612000, Note_on_c, 3, 73, 127
9, 612120, Note_off_c, 3, 73, 127
9, 612120, Note_on_c, 3, 73, 127
9, 612240, Note_off_c, 3, 73, 127
9, 612240, Note_on_c, 3, 73, 127
9, 612360, Note_off_c, 3, 73, 127
9, 612360, Note_on_c, 3, 73, 127
9, 612479, Note_off_c, 3, 73, 127
9, 612480, Note_on_c, 3, 85, 127
9, 612720, Note_off_c, 3, 85, 127
9, 612720, Note_on_c, 3, 83, 127
9, 612960, Note_off_c, 3, 83, 127
9, 612960, Note_on_c, 3, 81, 127
9, 613200, Note_off_c, 3, 81, 127
9, 613200, Note_on_c, 3, 80, 127
9, 613440, Note_off_c, 3, 80, 127
9, 613440, Note_on_c, 3, 78, 127
9, 613680, Note_off_c, 3, 78, 127
9, 613680, Note_on_c, 3, 76, 127
9, 613920, Note_off_c, 3, 76, 127
9, 613920, Note_on_c, 3, 75, 127
9, 614160, Note_off_c, 3, 75, 127
9, 614160, Note_on_c, 3, 73, 127
9, 614400, Note_off_c, 3, 73, 127
9, 614400, Note_on_c, 3, 71, 127
9, 614640, Note_off_c, 3, 71, 127
9, 614640, Note_on_c, 3, 69, 127
9, 614880, Note_off_c, 3, 69, 127
9, 614880, Note_on_c, 3, 68, 127
9, 615120, Note_off_c, 3, 68, 127
9, 615120, Note_on_c, 3, 66, 127
9, 615360, Note_off_c, 3, 66, 127
9, 615360, Note_on_c, 3, 65, 127
9, 615480, Note_off_c, 3, 65, 127
9, 615480, Note_on_c, 3, 65, 127
9, 615600, Note_off_c, 3, 65, 127
9, 615600, Note_on_c, 3, 65, 127
9, 615720, Note_off_c, 3, 65, 127
9, 615720, Note_on_c, 3, 65, 127
9, 615840, Note_off_c, 3, 65, 127
9, 615840, Note_on_c, 3, 65, 127
9, 615960, Note_off_c, 3, 65, 127
9, 615960, Note_on_c, 3, 65, 127
9, 616080, Note_off_c, 3, 65, 127
9, 616080, Note_on_c, 3, 65, 127
9, 616200, Note_off_c, 3, 65, 127
9, 616200, Note_on_c, 3, 65, 127
9, 616320, Note_off_c, 3, 65, 127
9, 616320, Note_on_c, 3, 65, 127
9, 616440, Note_off_c, 3, 65, 127
9, 616440, Note_on_c, 3, 65, 127
9, 616560, Note_off_c, 3, 65, 127
9, 616560, Note_on_c, 3, 65, 127
9, 616680, Note_off_c, 3, 65, 127
9, 616680, Note_on_c, 3, 65, 127
9, 616800, Note_off_c, 3, 65, 127
9, 616800, Note_on_c, 3, 65, 127
9, 616920, Note_off_c, 3, 65, 127
9, 616920, Note_on_c, 3, 65, 127
9, 617040, Note_off_c, 3, 65, 127
9, 617040, Note_on_c, 3, 65, 127
9, 617160, Note_off_c, 3, 65, 127
9, 617160, Note_on_c, 3, 65, 127
9, 617279, Note_off_c, 3, 65, 127
9, 617520, Note_on_c, 3, 67, 127
9, 617760, Note_off_c, 3, 67, 127
9, 617760, Note_on_c, 3, 68, 127
9, 618000, Note_off_c, 3, 68, 127
9, 618000, Note_on_c, 3, 70, 127
9, 618240, Note_off_c, 3, 70, 127
9, 618240, Note_on_c, 3, 67, 127
9, 618360, Note_off_c, 3, 67, 127
9, 618360, Note_on_c, 3, 67, 127
9, 618480, Note_off_c, 3, 67, 127
9, 618480, Note_on_c, 3, 67, 127
9, 618600, Note_off_c, 3, 67, 127
9, 618600, Note_on_c, 3, 67, 127
9, 618720, Note_off_c, 3, 67, 127
9, 618720, Note_on_c, 3, 67, 127
9, 618840, Note_off_c, 3, 67, 127
9, 618840, Note_on_c, 3, 67, 127
9, 618960, Note_off_c, 3, 67, 127
9, 618960, Note_on_c, 3, 67, 127
9, 619080, Note_off_c, 3, 67, 127
9, 619080, Note_on_c, 3, 67, 127
9, 619199, Note_off_c, 3, 67, 127
9, 619680, Note_on_c, 3, 67, 127
9, 619800, Note_off_c, 3, 67, 127
9, 619800, Note_on_c, 3, 67, 127
9, 619920, Note_off_c, 3, 67, 127
9, 619920, Note_on_c, 3, 67, 127
9, 620040, Note_off_c, 3, 67, 127
9, 620040, Note_on_c, 3, 67, 127
9, 620160, Note_off_c, 3, 67, 127
9, 620160, Note_on_c, 3, 67, 127
9, 620280, Note_off_c, 3, 67, 127
9, 620280, Note_on_c, 3, 67, 127
9, 620400, Note_off_c, 3, 67, 127
9, 620400, Note_on_c, 3, 67, 127
9, 620520, Note_off_c, 3, 67, 127
9, 620520, Note_on_c, 3, 67, 127
9, 620640, Note_off_c, 3, 67, 127
9, 620640, Note_on_c, 3, 67, 127
9, 620760, Note_off_c, 3, 67, 127
9, 620760, Note_on_c, 3, 67, 127
9, 620880, Note_off_c, 3, 67, 127
9, 620880, Note_on_c, 3, 67, 127
9, 621000, Note_off_c, 3, 67, 127
9, 621000, Note_on_c, 3, 67, 127
9, 621119, Note_off_c, 3, 67, 127
9, 621360, Note_on_c, 3, 63, 127
9, 621600, Note_off_c, 3, 63, 127
9, 621600, Note_on_c, 3, 66, 127
9, 621840, Note_off_c, 3, 66, 127
9, 621840, Note_on_c, 3, 58, 127
9, 622080, Note_off_c, 3, 58, 127
9, 622080, Note_on_c, 3, 60, 127
9, 622320, Note_off_c, 3, 60, 127
9, 622320, Note_on_c, 3, 64, 127
9, 622560, Note_off_c, 3, 64, 127
9, 622560, Note_on_c, 3, 68, 127
9, 622800, Note_off_c, 3, 68, 127
9, 622800, Note_on_c, 3, 60, 127
9, 623040, Note_off_c, 3, 60, 127
9, 623040, Note_on_c, 3, 65, 127
9, 623160, Note_off_c, 3, 65, 127
9, 623160, Note_on_c, 3, 65, 127
9, 623280, Note_off_c, 3, 65, 127
9, 623280, Note_on_c, 3, 65, 127
9, 623400, Note_off_c, 3, 65, 127
9, 623400, Note_on_c, 3, 65, 127
9, 623520, Note_off_c, 3, 65, 127
9, 623520, Note_on_c, 3, 65, 127
9, 623640, Note_off_c, 3, 65, 127
9, 623640, Note_on_c, 3, 65, 127
9, 623760, Note_off_c, 3, 65, 127
9, 623760, Note_on_c, 3, 65, 127
9, 623880, Note_off_c, 3, 65, 127
9, 623880, Note_on_c, 3, 65, 127
9, 624000, Note_off_c, 3, 65, 127
9, 624000, Note_on_c, 3, 65, 127
9, 624120, Note_off_c, 3, 65, 127
9, 624120, Note_on_c, 3, 65, 127
9, 624240, Note_off_c, 3, 65, 127
9, 624240, Note_on_c, 3, 65, 127
9, 624360, Note_off_c, 3, 65, 127
9, 624360, Note_on_c, 3, 65, 127
9, 624480, Note_off_c, 3, 65, 127
9, 624480, Note_on_c, 3, 65, 127
9, 624600, Note_off_c, 3, 65, 127
9, 624600, Note_on_c, 3, 65, 127
9, 624720, Note_off_c, 3, 65, 127
9, 624720, Note_on_c, 3, 65, 127
9, 624840, Note_off_c, 3, 65, 127
9, 624840, Note_on_c, 3, 65, 127
9, 624959, Note_off_c, 3, 65, 127
9, 625440, Note_on_c, 3, 65, 127
9, 625600, Note_off_c, 3, 65, 127
9, 625600, Note_on_c, 3, 65, 127
9, 625760, Note_off_c, 3, 65, 127
9, 625760, Note_on_c, 3, 65, 127
9, 625920, Note_off_c, 3, 65, 127
9, 625920, Note_on_c, 3, 65, 127
9, 626160, Note_off_c, 3, 65, 127
9, 626160, Note_on_c, 3, 65, 127
9, 626400, Note_off_c, 3, 65, 127
9, 626400, Note_on_c, 3, 65, 127
9, 626640, Note_off_c, 3, 65, 127
9, 626640, Note_on_c, 3, 65, 127
9, 626880, Note_off_c, 3, 65, 127
9, 626880, Note_on_c, 3, 65, 127
9, 627000, Note_off_c, 3, 65, 127
9, 627000, Note_on_c, 3, 65, 127
9, 627120, Note_off_c, 3, 65, 127
9, 627120, Note_on_c, 3, 65, 127
9, 627240, Note_off_c, 3, 65, 127
9, 627240, Note_on_c, 3, 65, 127
9, 627360, Note_off_c, 3, 65, 127
9, 627360, Note_on_c, 3, 65, 127
9, 627480, Note_off_c, 3, 65, 127
9, 627480, Note_on_c, 3, 65, 127
9, 627600, Note_off_c, 3, 65, 127
9, 627600, Note_on_c, 3, 65, 127
9, 627720, Note_off_c, 3, 65, 127
9, 627720, Note_on_c, 3, 65, 127
9, 627839, Note_off_c, 3, 65, 127
9, 628320, Note_on_c, 3, 67, 127
9, 628560, Note_off_c, 3, 67, 127
9, 628560, Note_on_c, 3, 69, 127
9, 628800, Note_off_c, 3, 69, 127
9, 628800, Note_on_c, 3, 71, 127
9, 629040, Note_off_c, 3, 71, 127
9, 629040, Note_on_c, 3, 72, 127
9, 629280, Note_off_c, 3, 72, 127
9, 629280, Note_on_c, 3, 74, 127
9, 629520, Note_off_c, 3, 74, 127
9, 629520, Note_on_c, 3, 76, 127
9, 629760, Note_off_c, 3, 76, 127
9, 629760, Note_on_c, 3, 76, 127
9, 630000, Note_off_c, 3, 76, 127
9, 630000, Note_on_c, 3, 72, 127
9, 630240, Note_off_c, 3, 72, 127
9, 630240, Note_on_c, 3, 71, 127
9, 630480, Note_off_c, 3, 71, 127
9, 630480, Note_on_c, 3, 67, 127
9, 630720, Note_off_c, 3, 67, 127
9, 630720, Note_on_c, 3, 65, 127
9, 630960, Note_off_c, 3, 65, 127
9, 630960, Note_on_c, 3, 72, 127
9, 631200, Note_off_c, 3, 72, 127
9, 631200, Note_on_c, 3, 71, 127
9, 631440, Note_off_c, 3, 71, 127
9, 631440, Note_on_c, 3, 67, 127
9, 631680, Note_off_c, 3, 67, 127
9, 631680, Note_on_c, 3, 64, 127
9, 631872, Note_off_c, 3, 64, 127
9, 631872, Note_on_c, 3, 59, 127
9, 632064, Note_off_c, 3, 59, 127
9, 632064, Note_on_c, 3, 62, 127
9, 632256, Note_off_c, 3, 62, 127
9, 632256, Note_on_c, 3, 67, 127
9, 632448, Note_off_c, 3, 67, 127
9, 632448, Note_on_c, 3, 64, 127
9, 632640, Note_off_c, 3, 64, 127
9, 632640, Note_on_c, 3, 66, 127
9, 632960, Note_off_c, 3, 66, 127
9, 633280, Note_on_c, 3, 66, 127
9, 633600, Note_off_c, 3, 66, 127
9, 633984, Note_on_c, 3, 66, 127
9, 634176, Note_off_c, 3, 66, 127
9, 634176, Note_on_c, 3, 66, 127
9, 634368, Note_off_c, 3, 66, 127
9, 634368, Note_on_c, 3, 66, 127
9, 634560, Note_off_c, 3, 66, 127
9, 634560, Note_on_c, 3, 66, 127
9, 634680, Note_off_c, 3, 66, 127
9, 634680, Note_on_c, 3, 66, 127
9, 634800, Note_off_c, 3, 66, 127
9, 634800, Note_on_c, 3, 66, 127
9, 634920, Note_off_c, 3, 66, 127
9, 634920, Note_on_c, 3, 66, 127
9, 635040, Note_off_c, 3, 66, 127
9, 635040, Note_on_c, 3, 66, 127
9, 635160, Note_off_c, 3, 66, 127
9, 635160, Note_on_c, 3, 66, 127
9, 635280, Note_off_c, 3, 66, 127
9, 635280, Note_on_c, 3, 66, 127
9, 635400, Note_off_c, 3, 66, 127
9, 635400, Note_on_c, 3, 66, 127
9, 635520, Note_off_c, 3, 66, 127
9, 635520, Note_on_c, 3, 66, 127
9, 635640, Note_off_c, 3, 66, 127
9, 635640, Note_on_c, 3, 66, 127
9, 635760, Note_off_c, 3, 66, 127
9, 635760, Note_on_c, 3, 66, 127
9, 635880, Note_off_c, 3, 66, 127
9, 635880, Note_on_c, 3, 66, 127
9, 636000, Note_off_c, 3, 66, 127
9, 636000, Note_on_c, 3, 66, 127
9, 636120, Note_off_c, 3, 66, 127
9, 636120, Note_on_c, 3, 66, 127
9, 636240, Note_off_c, 3, 66, 127
9, 636240, Note_on_c, 3, 66, 127
9, 636360, Note_off_c, 3, 66, 127
9, 636360, Note_on_c, 3, 66, 127
9, 636480, Note_off_c, 3, 66, 127
9, 636480, Note_on_c, 3, 66, 127
9, 636600, Note_off_c, 3, 66, 127
9, 636600, Note_on_c, 3, 66, 127
9, 636720, Note_off_c, 3, 66, 127
9, 636720, Note_on_c, 3, 66, 127
9, 636840, Note_off_c, 3, 66, 127
9, 636840, Note_on_c, 3, 66, 127
9, 636960, Note_off_c, 3, 66, 127
9, 636960, Note_on_c, 3, 66, 127
9, 637080, Note_off_c, 3, 66, 127
9, 637080, Note_on_c, 3, 66, 127
9, 637200, Note_off_c, 3, 66, 127
9, 637200, Note_on_c, 3, 66, 127
9, 637320, Note_off_c, 3, 66, 127
9, 637320, Note_on_c, 3, 66, 127
9, 637440, Note_off_c, 3, 66, 127
9, 637440, Note_on_c, 3, 66, 127
9, 637560, Note_off_c, 3, 66, 127
9, 637560, Note_on_c, 3, 66, 127
9, 637680, Note_off_c, 3, 66, 127
9, 637680, Note_on_c, 3, 66, 127
9, 637800, Note_off_c, 3, 66, 127
9, 637800, Note_on_c, 3, 66, 127
9, 637920, Note_off_c, 3, 66, 127
9, 637920, Note_on_c, 3, 66, 127
9, 638040, Note_off_c, 3, 66, 127
9, 638040, Note_on_c, 3, 66, 127
9, 638160, Note_off_c, 3, 66, 127
9, 638160, Note_on_c, 3, 66, 127
9, 638280, Note_off_c, 3, 66, 127
9, 638280, Note_on_c, 3, 66, 127
9, 638399, Note_off_c, 3, 66, 127
9, 638720, Note_on_c, 3, 66, 127
9, 638880, Note_off_c, 3, 66, 127
9, 638880, Note_on_c, 3, 66, 127
9, 639040, Note_off_c, 3, 66, 127
9, 639040, Note_on_c, 3, 66, 127
9, 639200, Note_off_c, 3, 66, 127
9, 639200, Note_on_c, 3, 66, 127
9, 639360, Note_off_c, 3, 66, 127
9, 639360, Note_on_c, 3, 66, 127
9, 639634, Note_off_c, 3, 66, 127
9, 639634, Note_on_c, 3, 68, 127
9, 639908, Note_off_c, 3, 68, 127
9, 639908, Note_on_c, 3, 69, 127
9, 640182, Note_off_c, 3, 69, 127
9, 640182, Note_on_c, 3, 71, 127
9, 640456, Note_off_c, 3, 71, 127
9, 640456, Note_on_c, 3, 72, 127
9, 640730, Note_off_c, 3, 72, 127
9, 640730, Note_on_c, 3, 74, 127
9, 641004, Note_off_c, 3, 74, 127
9, 641004, Note_on_c, 3, 75, 127
9, 641278, Note_off_c, 3, 75, 127
9, 641280, Note_on_c, 3, 78, 127
9, 641400, Note_off_c, 3, 78, 127
9, 641400, Note_on_c, 3, 78, 127
9, 641520, Note_off_c, 3, 78, 127
9, 641520, Note_on_c, 3, 78, 127
9, 641640, Note_off_c, 3, 78, 127
9, 641640, Note_on_c, 3, 78, 127
9, 641760, Note_off_c, 3, 78, 127
9, 641760, Note_on_c, 3, 78, 127
9, 641880, Note_off_c, 3, 78, 127
9, 641880, Note_on_c, 3, 78, 127
9, 642000, Note_off_c, 3, 78, 127
9, 642000, Note_on_c, 3, 78, 127
9, 642120, Note_off_c, 3, 78, 127
9, 642120, Note_on_c, 3, 78, 127
9, 642239, Note_off_c, 3, 78, 127
9, 642480, Note_on_c, 3, 74, 127
9, 642720, Note_off_c, 3, 74, 127
9, 642720, Note_on_c, 3, 69, 127
9, 642960, Note_off_c, 3, 69, 127
9, 642960, Note_on_c, 3, 67, 127
9, 643200, Note_off_c, 3, 67, 127
9, 643200, Note_on_c, 3, 74, 127
9, 643360, Note_off_c, 3, 74, 127
9, 643360, Note_on_c, 3, 75, 127
9, 643520, Note_off_c, 3, 75, 127
9, 643520, Note_on_c, 3, 70, 127
9, 643680, Note_off_c, 3, 70, 127
9, 643680, Note_on_c, 3, 69, 127
9, 643800, Note_off_c, 3, 69, 127
9, 643800, Note_on_c, 3, 69, 127
9, 643920, Note_off_c, 3, 69, 127
9, 643920, Note_on_c, 3, 69, 127
9, 644040, Note_off_c, 3, 69, 127
9, 644040, Note_on_c, 3, 69, 127
9, 644160, Note_off_c, 3, 69, 127
9, 644160, Note_on_c, 3, 69, 127
9, 644280, Note_off_c, 3, 69, 127
9, 644280, Note_on_c, 3, 69, 127
9, 644400, Note_off_c, 3, 69, 127
9, 644400, Note_on_c, 3, 69, 127
9, 644520, Note_off_c, 3, 69, 127
9, 644520, Note_on_c, 3, 69, 127
9, 644640, Note_off_c, 3, 69, 127
9, 644640, Note_on_c, 3, 69, 127
9, 644760, Note_off_c, 3, 69, 127
9, 644760, Note_on_c, 3, 69, 127
9, 644880, Note_off_c, 3, 69, 127
9, 644880, Note_on_c, 3, 69, 127
9, 645000, Note_off_c, 3, 69, 127
9, 645000, Note_on_c, 3, 69, 127
9, 645120, Note_off_c, 3, 69, 127
9, 645120, Note_on_c, 3, 69, 127
9, 645240, Note_off_c, 3, 69, 127
9, 645240, Note_on_c, 3, 69, 127
9, 645360, Note_off_c, 3, 69, 127
9, 645360, Note_on_c, 3, 69, 127
9, 645480, Note_off_c, 3, 69, 127
9, 645480, Note_on_c, 3, 69, 127
9, 645599, Note_off_c, 3, 69, 127
9, 645760, Note_on_c, 3, 67, 127
9, 645920, Note_off_c, 3, 67, 127
9, 645920, Note_on_c, 3, 70, 127
9, 646080, Note_off_c, 3, 70, 127
9, 646080, Note_on_c, 3, 69, 127
9, 646200, Note_off_c, 3, 69, 127
9, 646200, Note_on_c, 3, 69, 127
9, 646320, Note_off_c, 3, 69, 127
9, 646320, Note_on_c, 3, 69, 127
9, 646440, Note_off_c, 3, 69, 127
9, 646440, Note_on_c, 3, 69, 127
9, 646560, Note_off_c, 3, 69, 127
9, 646560, Note_on_c, 3, 69, 127
9, 646680, Note_off_c, 3, 69, 127
9, 646680, Note_on_c, 3, 69, 127
9, 646800, Note_off_c, 3, 69, 127
9, 646800, Note_on_c, 3, 69, 127
9, 646920, Note_off_c, 3, 69, 127
9, 646920, Note_on_c, 3, 69, 127
9, 647040, Note_off_c, 3, 69, 127
9, 647040, Note_on_c, 3, 69, 127
9, 647160, Note_off_c, 3, 69, 127
9, 647160, Note_on_c, 3, 69, 127
9, 647280, Note_off_c, 3, 69, 127
9, 647280, Note_on_c, 3, 69, 127
9, 647400, Note_off_c, 3, 69, 127
9, 647400, Note_on_c, 3, 69, 127
9, 647520, Note_off_c, 3, 69, 127
9, 647520, Note_on_c, 3, 69, 127
9, 647640, Note_off_c, 3, 69, 127
9, 647640, Note_on_c, 3, 69, 127
9, 647760, Note_off_c, 3, 69, 127
9, 647760, Note_on_c, 3, 69, 127
9, 647880, Note_off_c, 3, 69, 127
9, 647880, Note_on_c, 3, 69, 127
9, 648000, Note_off_c, 3, 69, 127
9, 648000, Note_on_c, 3, 69, 127
9, 648120, Note_off_c, 3, 69, 127
9, 648120, Note_on_c, 3, 69, 127
9, 648240, Note_off_c, 3, 69, 127
9, 648240, Note_on_c, 3, 69, 127
9, 648360, Note_off_c, 3, 69, 127
9, 648360, Note_on_c, 3, 69, 127
9, 648480, Note_off_c, 3, 69, 127
9, 648480, Note_on_c, 3, 69, 127
9, 648600, Note_off_c, 3, 69, 127
9, 648600, Note_on_c, 3, 69, 127
9, 648720, Note_off_c, 3, 69, 127
9, 648720, Note_on_c, 3, 69, 127
9, 648840, Note_off_c, 3, 69, 127
9, 648840, Note_on_c, 3, 69, 127
9, 648959, Note_off_c, 3, 69, 127
9, 651840, Note_on_c, 3, 65, 127
9, 651977, Note_off_c, 3, 65, 127
9, 651977, Note_on_c, 3, 67, 127
9, 652114, Note_off_c, 3, 67, 127
9, 652114, Note_on_c, 3, 67, 127
9, 652251, Note_off_c, 3, 67, 127
9, 652251, Note_on_c, 3, 72, 127
9, 652388, Note_off_c, 3, 72, 127
9, 652388, Note_on_c, 3, 70, 127
9, 652525, Note_off_c, 3, 70, 127
9, 652525, Note_on_c, 3, 67, 127
9, 652662, Note_off_c, 3, 67, 127
9, 652662, Note_on_c, 3, 62, 127
9, 652799, Note_off_c, 3, 62, 127
9, 652800, Note_on_c, 3, 64, 127
9, 652920, Note_off_c, 3, 64, 127
9, 652920, Note_on_c, 3, 64, 127
9, 653040, Note_off_c, 3, 64, 127
9, 653040, Note_on_c, 3, 64, 127
9, 653160, Note_off_c, 3, 64, 127
9, 653160, Note_on_c, 3, 64, 127
9, 653280, Note_off_c, 3, 64, 127
9, 653280, Note_on_c, 3, 64, 127
9, 653400, Note_off_c, 3, 64, 127
9, 653400, Note_on_c, 3, 64, 127
9, 653520, Note_off_c, 3, 64, 127
9, 653520, Note_on_c, 3, 64, 127
9, 653640, Note_off_c, 3, 64, 127
9, 653640, Note_on_c, 3, 64, 127
9, 653759, Note_off_c, 3, 64, 127
9, 654336, Note_on_c, 3, 67, 127
9, 654528, Note_off_c, 3, 67, 127
9, 654528, Note_on_c, 3, 74, 127
9, 654720, Note_off_c, 3, 74, 127
9, 654720, Note_on_c, 3, 71, 127
9, 654912, Note_off_c, 3, 71, 127
9, 654912, Note_on_c, 3, 72, 127
9, 655104, Note_off_c, 3, 72, 127
9, 655104, Note_on_c, 3, 76, 127
9, 655296, Note_off_c, 3, 76, 127
9, 655296, Note_on_c, 3, 77, 127
9, 655488, Note_off_c, 3, 77, 127
9, 655488, Note_on_c, 3, 74, 127
9, 655680, Note_off_c, 3, 74, 127
9, 655680, Note_on_c, 3, 72, 127
9, 655800, Note_off_c, 3, 72, 127
9, 655800, Note_on_c, 3, 77, 127
9, 655920, Note_off_c, 3, 77, 127
9, 655920, Note_on_c, 3, 76, 127
9, 656040, Note_off_c, 3, 76, 127
9, 656040, Note_on_c, 3, 72, 127
9, 656160, Note_off_c, 3, 72, 127
9, 656160, Note_on_c, 3, 76, 127
9, 656280, Note_off_c, 3, 76, 127
9, 656280, Note_on_c, 3, 76, 127
9, 656400, Note_off_c, 3, 76, 127
9, 656400, Note_on_c, 3, 76, 127
9, 656520, Note_off_c, 3, 76, 127
9, 656520, Note_on_c, 3, 76, 127
9, 656640, Note_off_c, 3, 76, 127
9, 656640, Note_on_c, 3, 76, 127
9, 656760, Note_off_c, 3, 76, 127
9, 656760, Note_on_c, 3, 76, 127
9, 656880, Note_off_c, 3, 76, 127
9, 656880, Note_on_c, 3, 76, 127
9, 657000, Note_off_c, 3, 76, 127
9, 657000, Note_on_c, 3, 76, 127
9, 657120, Note_off_c, 3, 76, 127
9, 657120, Note_on_c, 3, 76, 127
9, 657240, Note_off_c, 3, 76, 127
9, 657240, Note_on_c, 3, 76, 127
9, 657360, Note_off_c, 3, 76, 127
9, 657360, Note_on_c, 3, 76, 127
9, 657480, Note_off_c, 3, 76, 127
9, 657480, Note_on_c, 3, 76, 127
9, 657600, Note_off_c, 3, 76, 127
9, 657600, Note_on_c, 3, 76, 127
9, 657720, Note_off_c, 3, 76, 127
9, 657720, Note_on_c, 3, 76, 127
9, 657840, Note_off_c, 3, 76, 127
9, 657840, Note_on_c, 3, 76, 127
9, 657960, Note_off_c, 3, 76, 127
9, 657960, Note_on_c, 3, 76, 127
9, 658080, Note_off_c, 3, 76, 127
9, 658080, Note_on_c, 3, 76, 127
9, 658200, Note_off_c, 3, 76, 127
9, 658200, Note_on_c, 3, 76, 127
9, 658320, Note_off_c, 3, 76, 127
9, 658320, Note_on_c, 3, 76, 127
9, 658440, Note_off_c, 3, 76, 127
9, 658440, Note_on_c, 3, 76, 127
9, 658559, Note_off_c, 3, 76, 127
9, 661760, Note_on_c, 3, 76, 127
9, 662080, Note_off_c, 3, 76, 127
9, 662080, Note_on_c, 3, 76, 127
9, 662400, Note_off_c, 3, 76, 127
9, 662400, Note_on_c, 3, 76, 127
9, 662720, Note_off_c, 3, 76, 127
9, 663040, Note_on_c, 3, 76, 127
9, 663360, Note_off_c, 3, 76, 127
9, 663680, Note_on_c, 3, 76, 127
9, 664000, Note_off_c, 3, 76, 127
9, 664320, Note_on_c, 3, 76, 127
9, 664457, Note_off_c, 3, 76, 127
9, 664457, Note_on_c, 3, 74, 127
9, 664594, Note_off_c, 3, 74, 127
9, 664594, Note_on_c, 3, 71, 127
9, 664731, Note_off_c, 3, 71, 127
9, 664731, Note_on_c, 3, 76, 127
9, 664868, Note_off_c, 3, 76, 127
9, 664868, Note_on_c, 3, 74, 127
9, 665005, Note_off_c, 3, 74, 127
9, 665005, Note_on_c, 3, 76, 127
9, 665142, Note_off_c, 3, 76, 127
9, 665142, Note_on_c, 3, 77, 127
9, 665279, Note_off_c, 3, 77, 127
9, 665279, Note_on_c, 3, 68, 127
9, 665399, Note_off_c, 3, 68, 127
9, 665399, Note_on_c, 3, 68, 127
9, 665519, Note_off_c, 3, 68, 127
9, 665519, Note_on_c, 3, 68, 127
9, 665639, Note_off_c, 3, 68, 127
9, 665639, Note_on_c, 3, 68, 127
9, 665759, Note_off_c, 3, 68, 127
9, 665759, Note_on_c, 3, 68, 127
9, 665879, Note_off_c, 3, 68, 127
9, 665879, Note_on_c, 3, 68, 127
9, 665999, Note_off_c, 3, 68, 127
9, 665999, Note_on_c, 3, 68, 127
9, 666119, Note_off_c, 3, 68, 127
9, 666119, Note_on_c, 3, 68, 127
9, 666238, Note_off_c, 3, 68, 127
9, 666959, Note_on_c, 3, 68, 127
9, 667079, Note_off_c, 3, 68, 127
9, 667079, Note_on_c, 3, 69, 127
9, 667199, Note_off_c, 3, 69, 127
9, 667200, Note_on_c, 3, 74, 127
9, 667520, Note_off_c, 3, 74, 127
9, 667520, Note_on_c, 3, 71, 127
9, 667840, Note_off_c, 3, 71, 127
9, 667840, Note_on_c, 3, 72, 127
9, 668160, Note_off_c, 3, 72, 127
9, 668160, Note_on_c, 3, 76, 127
9, 668480, Note_off_c, 3, 76, 127
9, 668480, Note_on_c, 3, 77, 127
9, 668800, Note_off_c, 3, 77, 127
9, 668800, Note_on_c, 3, 74, 127
9, 669120, Note_off_c, 3, 74, 127
9, 669120, Note_on_c, 3, 76, 127
9, 669240, Note_off_c, 3, 76, 127
9, 669240, Note_on_c, 3, 76, 127
9, 669360, Note_off_c, 3, 76, 127
9, 669360, Note_on_c, 3, 76, 127
9, 669480, Note_off_c, 3, 76, 127
9, 669480, Note_on_c, 3, 76, 127
9, 669600, Note_off_c, 3, 76, 127
9, 669600, Note_on_c, 3, 76, 127
9, 669720, Note_off_c, 3, 76, 127
9, 669720, Note_on_c, 3, 76, 127
9, 669840, Note_off_c, 3, 76, 127
9, 669840, Note_on_c, 3, 76, 127
9, 669960, Note_off_c, 3, 76, 127
9, 669960, Note_on_c, 3, 76, 127
9, 670080, Note_off_c, 3, 76, 127
9, 670080, Note_on_c, 3, 76, 127
9, 670200, Note_off_c, 3, 76, 127
9, 670200, Note_on_c, 3, 76, 127
9, 670320, Note_off_c, 3, 76, 127
9, 670320, Note_on_c, 3, 76, 127
9, 670440, Note_off_c, 3, 76, 127
9, 670440, Note_on_c, 3, 76, 127
9, 670560, Note_off_c, 3, 76, 127
9, 670560, Note_on_c, 3, 76, 127
9, 670680, Note_off_c, 3, 76, 127
9, 670680, Note_on_c, 3, 76, 127
9, 670800, Note_off_c, 3, 76, 127
9, 670800, Note_on_c, 3, 76, 127
9, 670920, Note_off_c, 3, 76, 127
9, 670920, Note_on_c, 3, 76, 127
9, 671040, Note_off_c, 3, 76, 127
9, 671040, Note_on_c, 3, 76, 127
9, 671160, Note_off_c, 3, 76, 127
9, 671160, Note_on_c, 3, 76, 127
9, 671280, Note_off_c, 3, 76, 127
9, 671280, Note_on_c, 3, 76, 127
9, 671400, Note_off_c, 3, 76, 127
9, 671400, Note_on_c, 3, 76, 127
9, 671520, Note_off_c, 3, 76, 127
9, 671520, Note_on_c, 3, 76, 127
9, 671640, Note_off_c, 3, 76, 127
9, 671640, Note_on_c, 3, 76, 127
9, 671760, Note_off_c, 3, 76, 127
9, 671760, Note_on_c, 3, 76, 127
9, 671880, Note_off_c, 3, 76, 127
9, 671880, Note_on_c, 3, 76, 127
9, 671999, Note_off_c, 3, 76, 127
9, 672480, Note_on_c, 3, 76, 127
9, 672640, Note_off_c, 3, 76, 127
9, 672640, Note_on_c, 3, 77, 127
9, 672800, Note_off_c, 3, 77, 127
9, 672800, Note_on_c, 3, 76, 127
9, 672960, Note_off_c, 3, 76, 127
9, 672960, Note_on_c, 3, 74, 127
9, 673120, Note_off_c, 3, 74, 127
9, 673120, Note_on_c, 3, 76, 127
9, 673280, Note_off_c, 3, 76, 127
9, 673280, Note_on_c, 3, 77, 127
9, 673440, Note_off_c, 3, 77, 127
9, 673440, Note_on_c, 3, 79, 127
9, 673600, Note_off_c, 3, 79, 127
9, 673600, Note_on_c, 3, 81, 127
9, 673760, Note_off_c, 3, 81, 127
9, 673760, Note_on_c, 3, 76, 127
9, 673920, Note_off_c, 3, 76, 127
9, 673920, Note_on_c, 3, 76, 127
9, 674080, Note_off_c, 3, 76, 127
9, 674080, Note_on_c, 3, 77, 127
9, 674240, Note_off_c, 3, 77, 127
9, 674240, Note_on_c, 3, 79, 127
9, 674400, Note_off_c, 3, 79, 127
9, 674400, Note_on_c, 3, 74, 127
9, 674560, Note_off_c, 3, 74, 127
9, 674560, Note_on_c, 3, 76, 127
9, 674720, Note_off_c, 3, 76, 127
9, 674720, Note_on_c, 3, 77, 127
9, 674880, Note_off_c, 3, 77, 127
9, 674880, Note_on_c, 3, 79, 127
9, 675040, Note_off_c, 3, 79, 127
9, 675040, Note_on_c, 3, 81, 127
9, 675200, Note_off_c, 3, 81, 127
9, 675200, Note_on_c, 3, 76, 127
9, 675360, Note_off_c, 3, 76, 127
9, 675360, Note_on_c, 3, 76, 127
9, 675520, Note_off_c, 3, 76, 127
9, 675520, Note_on_c, 3, 77, 127
9, 675680, Note_off_c, 3, 77, 127
9, 675680, Note_on_c, 3, 79, 127
9, 675840, Note_off_c, 3, 79, 127
9, 675840, Note_on_c, 3, 82, 127
9, 676320, Note_off_c, 3, 82, 127
9, 677280, Note_on_c, 3, 81, 127
9, 677760, Note_off_c, 3, 81, 127
9, 678720, Note_on_c, 3, 74, 127
9, 679200, Note_off_c, 3, 74, 127
9, 679680, Note_on_c, 3, 69, 127
9, 680160, Note_off_c, 3, 69, 127
9, 680640, Note_on_c, 3, 74, 127
9, 681120, Note_off_c, 3, 74, 127
9, 681600, Note_on_c, 3, 79, 127
9, 682080, Note_off_c, 3, 79, 127
9, 682560, Note_on_c, 3, 76, 127
9, 683040, Note_off_c, 3, 76, 127
9, 683520, Note_on_c, 3, 72, 127
9, 684000, Note_off_c, 3, 72, 127
9, 684480, Note_on_c, 3, 69, 127
9, 684600, Note_off_c, 3, 69, 127
9, 684600, Note_on_c, 3, 69, 127
9, 684720, Note_off_c, 3, 69, 127
9, 684720, Note_on_c, 3, 69, 127
9, 684840, Note_off_c, 3, 69, 127
9, 684840, Note_on_c, 3, 69, 127
9, 684960, Note_off_c, 3, 69, 127
9, 684960, Note_on_c, 3, 69, 127
9, 685080, Note_off_c, 3, 69, 127
9, 685080, Note_on_c, 3, 69, 127
9, 685200, Note_off_c, 3, 69, 127
9, 685200, Note_on_c, 3, 69, 127
9, 685320, Note_off_c, 3, 69, 127
9, 685320, Note_on_c, 3, 69, 127
9, 685440, Note_off_c, 3, 69, 127
9, 685440, Note_on_c, 3, 69, 127
9, 685560, Note_off_c, 3, 69, 127
9, 685560, Note_on_c, 3, 69, 127
9, 685680, Note_off_c, 3, 69, 127
9, 685680, Note_on_c, 3, 69, 127
9, 685800, Note_off_c, 3, 69, 127
9, 685800, Note_on_c, 3, 69, 127
9, 685919, Note_off_c, 3, 69, 127
9, 685920, Note_on_c, 3, 76, 127
9, 686040, Note_off_c, 3, 76, 127
9, 686040, Note_on_c, 3, 76, 127
9, 686160, Note_off_c, 3, 76, 127
9, 686160, Note_on_c, 3, 76, 127
9, 686280, Note_off_c, 3, 76, 127
9, 686280, Note_on_c, 3, 76, 127
9, 686400, Note_off_c, 3, 76, 127
9, 686400, Note_on_c, 3, 76, 127
9, 686520, Note_off_c, 3, 76, 127
9, 686520, Note_on_c, 3, 76, 127
9, 686640, Note_off_c, 3, 76, 127
9, 686640, Note_on_c, 3, 76, 127
9, 686760, Note_off_c, 3, 76, 127
9, 686760, Note_on_c, 3, 76, 127
9, 686880, Note_off_c, 3, 76, 127
9, 686880, Note_on_c, 3, 76, 127
9, 687000, Note_off_c, 3, 76, 127
9, 687000, Note_on_c, 3, 76, 127
9, 687120, Note_off_c, 3, 76, 127
9, 687120, Note_on_c, 3, 76, 127
9, 687240, Note_off_c, 3, 76, 127
9, 687240, Note_on_c, 3, 76, 127
9, 687359, Note_off_c, 3, 76, 127
9, 687360, Note_on_c, 3, 75, 127
9, 687840, Note_off_c, 3, 75, 127
9, 687840, Note_on_c, 3, 68, 127
9, 688320, Note_off_c, 3, 68, 127
9, 688320, Note_on_c, 3, 61, 127
9, 688800, Note_off_c, 3, 61, 127
9, 688800, Note_on_c, 3, 60, 127
9, 689280, Note_off_c, 3, 60, 127
9, 689280, Note_on_c, 3, 61, 127
9, 689760, Note_off_c, 3, 61, 127
9, 689760, Note_on_c, 3, 68, 127
9, 690240, Note_off_c, 3, 68, 127
9, 690240, Note_on_c, 3, 64, 127
9, 690720, Note_off_c, 3, 64, 127
9, 690720, Note_on_c, 3, 66, 127
9, 691200, Note_off_c, 3, 66, 127
9, 691200, Note_on_c, 3, 67, 127
9, 691680, Note_off_c, 3, 67, 127
9, 691680, Note_on_c, 3, 72, 127
9, 692160, Note_off_c, 3, 72, 127
9, 692160, Note_on_c, 3, 72, 127
9, 692400, Note_off_c, 3, 72, 127
9, 692640, Note_on_c, 3, 72, 127
9, 692880, Note_off_c, 3, 72, 127
9, 693120, Note_on_c, 3, 72, 127
9, 693240, Note_off_c, 3, 72, 127
9, 693240, Note_on_c, 3, 72, 127
9, 693360, Note_off_c, 3, 72, 127
9, 693360, Note_on_c, 3, 72, 127
9, 693480, Note_off_c, 3, 72, 127
9, 693480, Note_on_c, 3, 72, 127
9, 693600, Note_off_c, 3, 72, 127
9, 693600, Note_on_c, 3, 72, 127
9, 693720, Note_off_c, 3, 72, 127
9, 693720, Note_on_c, 3, 72, 127
9, 693840, Note_off_c, 3, 72, 127
9, 693840, Note_on_c, 3, 72, 127
9, 693960, Note_off_c, 3, 72, 127
9, 693960, Note_on_c, 3, 72, 127
9, 694080, Note_off_c, 3, 72, 127
9, 694080, Note_on_c, 3, 72, 127
9, 694200, Note_off_c, 3, 72, 127
9, 694200, Note_on_c, 3, 72, 127
9, 694320, Note_off_c, 3, 72, 127
9, 694320, Note_on_c, 3, 72, 127
9, 694440, Note_off_c, 3, 72, 127
9, 694440, Note_on_c, 3, 72, 127
9, 694560, Note_off_c, 3, 72, 127
9, 694560, Note_on_c, 3, 72, 127
9, 694680, Note_off_c, 3, 72, 127
9, 694680, Note_on_c, 3, 72, 127
9, 694800, Note_off_c, 3, 72, 127
9, 694800, Note_on_c, 3, 72, 127
9, 694920, Note_off_c, 3, 72, 127
9, 694920, Note_on_c, 3, 72, 127
9, 695040, Note_off_c, 3, 72, 127
9, 695040, Note_on_c, 3, 72, 127
9, 695160, Note_off_c, 3, 72, 127
9, 695160, Note_on_c, 3, 72, 127
9, 695280, Note_off_c, 3, 72, 127
9, 695280, Note_on_c, 3, 72, 127
9, 695400, Note_off_c, 3, 72, 127
9, 695400, Note_on_c, 3, 72, 127
9, 695520, Note_off_c, 3, 72, 127
9, 695520, Note_on_c, 3, 72, 127
9, 695640, Note_off_c, 3, 72, 127
9, 695640, Note_on_c, 3, 72, 127
9, 695760, Note_off_c, 3, 72, 127
9, 695760, Note_on_c, 3, 72, 127
9, 695880, Note_off_c, 3, 72, 127
9, 695880, Note_on_c, 3, 72, 127
9, 696000, Note_off_c, 3, 72, 127
9, 696000, Note_on_c, 3, 72, 127
9, 696120, Note_off_c, 3, 72, 127
9, 696120, Note_on_c, 3, 72, 127
9, 696240, Note_off_c, 3, 72, 127
9, 696240, Note_on_c, 3, 72, 127
9, 696360, Note_off_c, 3, 72, 127
9, 696360, Note_on_c, 3, 72, 127
9, 696480, Note_off_c, 3, 72, 127
9, 696480, Note_on_c, 3, 72, 127
9, 696600, Note_off_c, 3, 72, 127
9, 696600, Note_on_c, 3, 72, 127
9, 696720, Note_off_c, 3, 72, 127
9, 696720, Note_on_c, 3, 72, 127
9, 696840, Note_off_c, 3, 72, 127
9, 696840, Note_on_c, 3, 72, 127
9, 696959, Note_off_c, 3, 72, 127
9, 696959, End_track
10, 0, Start_track
10, 0, Pitch_bend_c, 7, 8192
10, 0, Control_c, 7, 7, 103
10, 0, Control_c, 7, 10, 63
10, 0, Control_c, 7, 93, 0
10, 0, Control_c, 7, 91, 0
10, 0, Control_c, 7, 95, 0
10, 0, Control_c, 7, 92, 0
10, 0, Control_c, 7, 11, 127
10, 0, Program_c, 7, 12
10, 47040, Note_on_c, 7, 73, 127
10, 48000, Note_off_c, 7, 73, 127
10, 48000, Note_on_c, 7, 73, 127
10, 48160, Note_off_c, 7, 73, 127
10, 48320, Note_on_c, 7, 73, 127
10, 48480, Note_off_c, 7, 73, 127
10, 48640, Note_on_c, 7, 71, 127
10, 48800, Note_off_c, 7, 71, 127
10, 48960, Note_on_c, 7, 73, 127
10, 49080, Note_off_c, 7, 73, 127
10, 49080, Note_on_c, 7, 73, 127
10, 49200, Note_off_c, 7, 73, 127
10, 49200, Note_on_c, 7, 73, 127
10, 49320, Note_off_c, 7, 73, 127
10, 49320, Note_on_c, 7, 73, 127
10, 49440, Note_off_c, 7, 73, 127
10, 49440, Note_on_c, 7, 73, 127
10, 49560, Note_off_c, 7, 73, 127
10, 49560, Note_on_c, 7, 73, 127
10, 49680, Note_off_c, 7, 73, 127
10, 49680, Note_on_c, 7, 73, 127
10, 49800, Note_off_c, 7, 73, 127
10, 49800, Note_on_c, 7, 73, 127
10, 49920, Note_off_c, 7, 73, 127
10, 49920, Note_on_c, 7, 73, 127
10, 50040, Note_off_c, 7, 73, 127
10, 50040, Note_on_c, 7, 73, 127
10, 50160, Note_off_c, 7, 73, 127
10, 50160, Note_on_c, 7, 73, 127
10, 50280, Note_off_c, 7, 73, 127
10, 50280, Note_on_c, 7, 73, 127
10, 50399, Note_off_c, 7, 73, 127
10, 50400, Note_on_c, 7, 69, 127
10, 50520, Note_off_c, 7, 69, 127
10, 50520, Note_on_c, 7, 69, 127
10, 50640, Note_off_c, 7, 69, 127
10, 50640, Note_on_c, 7, 69, 127
10, 50760, Note_off_c, 7, 69, 127
10, 50760, Note_on_c, 7, 69, 127
10, 50880, Note_off_c, 7, 69, 127
10, 50880, Note_on_c, 7, 69, 127
10, 51000, Note_off_c, 7, 69, 127
10, 51000, Note_on_c, 7, 69, 127
10, 51120, Note_off_c, 7, 69, 127
10, 51120, Note_on_c, 7, 69, 127
10, 51240, Note_off_c, 7, 69, 127
10, 51240, Note_on_c, 7, 69, 127
10, 51359, Note_off_c, 7, 69, 127
10, 51360, Note_on_c, 7, 67, 127
10, 51480, Note_off_c, 7, 67, 127
10, 51480, Note_on_c, 7, 67, 127
10, 51600, Note_off_c, 7, 67, 127
10, 51600, Note_on_c, 7, 67, 127
10, 51720, Note_off_c, 7, 67, 127
10, 51720, Note_on_c, 7, 67, 127
10, 51839, Note_off_c, 7, 67, 127
10, 52800, Note_on_c, 7, 73, 127
10, 52920, Note_off_c, 7, 73, 127
10, 52920, Note_on_c, 7, 73, 127
10, 53040, Note_off_c, 7, 73, 127
10, 53040, Note_on_c, 7, 73, 127
10, 53160, Note_off_c, 7, 73, 127
10, 53160, Note_on_c, 7, 73, 127
10, 53280, Note_off_c, 7, 73, 127
10, 53280, Note_on_c, 7, 73, 127
10, 53400, Note_off_c, 7, 73, 127
10, 53400, Note_on_c, 7, 73, 127
10, 53520, Note_off_c, 7, 73, 127
10, 53520, Note_on_c, 7, 73, 127
10, 53640, Note_off_c, 7, 73, 127
10, 53640, Note_on_c, 7, 73, 127
10, 53760, Note_off_c, 7, 73, 127
10, 53760, Note_on_c, 7, 73, 127
10, 53880, Note_off_c, 7, 73, 127
10, 53880, Note_on_c, 7, 73, 127
10, 54000, Note_off_c, 7, 73, 127
10, 54000, Note_on_c, 7, 73, 127
10, 54120, Note_off_c, 7, 73, 127
10, 54120, Note_on_c, 7, 73, 127
10, 54240, Note_off_c, 7, 73, 127
10, 54240, Note_on_c, 7, 73, 127
10, 54360, Note_off_c, 7, 73, 127
10, 54360, Note_on_c, 7, 73, 127
10, 54480, Note_off_c, 7, 73, 127
10, 54480, Note_on_c, 7, 73, 127
10, 54600, Note_off_c, 7, 73, 127
10, 54600, Note_on_c, 7, 73, 127
10, 54719, Note_off_c, 7, 73, 127
10, 54720, Note_on_c, 7, 73, 127
10, 54880, Note_off_c, 7, 73, 127
10, 55040, Note_on_c, 7, 71, 127
10, 55200, Note_off_c, 7, 71, 127
10, 55360, Note_on_c, 7, 73, 127
10, 55480, Note_off_c, 7, 73, 127
10, 55480, Note_on_c, 7, 73, 127
10, 55600, Note_off_c, 7, 73, 127
10, 55600, Note_on_c, 7, 73, 127
10, 55720, Note_off_c, 7, 73, 127
10, 55720, Note_on_c, 7, 73, 127
10, 55840, Note_off_c, 7, 73, 127
10, 55840, Note_on_c, 7, 73, 127
10, 55960, Note_off_c, 7, 73, 127
10, 55960, Note_on_c, 7, 73, 127
10, 56080, Note_off_c, 7, 73, 127
10, 56080, Note_on_c, 7, 73, 127
10, 56200, Note_off_c, 7, 73, 127
10, 56200, Note_on_c, 7, 73, 127
10, 56320, Note_off_c, 7, 73, 127
10, 56320, Note_on_c, 7, 73, 127
10, 56440, Note_off_c, 7, 73, 127
10, 56440, Note_on_c, 7, 73, 127
10, 56560, Note_off_c, 7, 73, 127
10, 56560, Note_on_c, 7, 73, 127
10, 56680, Note_off_c, 7, 73, 127
10, 56680, Note_on_c, 7, 73, 127
10, 56800, Note_off_c, 7, 73, 127
10, 56800, Note_on_c, 7, 73, 127
10, 56920, Note_off_c, 7, 73, 127
10, 56920, Note_on_c, 7, 73, 127
10, 57040, Note_off_c, 7, 73, 127
10, 57040, Note_on_c, 7, 73, 127
10, 57160, Note_off_c, 7, 73, 127
10, 57160, Note_on_c, 7, 73, 127
10, 57280, Note_off_c, 7, 73, 127
10, 57280, Note_on_c, 7, 73, 127
10, 57400, Note_off_c, 7, 73, 127
10, 57400, Note_on_c, 7, 73, 127
10, 57520, Note_off_c, 7, 73, 127
10, 57520, Note_on_c, 7, 73, 127
10, 57599, Note_off_c, 7, 73, 127
10, 58560, Note_on_c, 7, 79, 127
10, 59040, Note_off_c, 7, 79, 127
10, 59520, Note_on_c, 7, 79, 127
10, 60000, Note_off_c, 7, 79, 127
10, 60480, Note_on_c, 7, 79, 127
10, 60600, Note_off_c, 7, 79, 127
10, 60600, Note_on_c, 7, 79, 127
10, 60720, Note_off_c, 7, 79, 127
10, 60720, Note_on_c, 7, 79, 127
10, 60840, Note_off_c, 7, 79, 127
10, 60840, Note_on_c, 7, 79, 127
10, 60960, Note_off_c, 7, 79, 127
10, 60960, Note_on_c, 7, 79, 127
10, 61080, Note_off_c, 7, 79, 127
10, 61080, Note_on_c, 7, 79, 127
10, 61200, Note_off_c, 7, 79, 127
10, 61200, Note_on_c, 7, 79, 127
10, 61320, Note_off_c, 7, 79, 127
10, 61320, Note_on_c, 7, 79, 127
10, 61440, Note_off_c, 7, 79, 127
10, 61440, Note_on_c, 7, 79, 127
10, 61560, Note_off_c, 7, 79, 127
10, 61560, Note_on_c, 7, 79, 127
10, 61680, Note_off_c, 7, 79, 127
10, 61680, Note_on_c, 7, 79, 127
10, 61800, Note_off_c, 7, 79, 127
10, 61800, Note_on_c, 7, 79, 127
10, 61920, Note_off_c, 7, 79, 127
10, 61920, Note_on_c, 7, 79, 127
10, 62040, Note_off_c, 7, 79, 127
10, 62040, Note_on_c, 7, 79, 127
10, 62160, Note_off_c, 7, 79, 127
10, 62160, Note_on_c, 7, 79, 127
10, 62280, Note_off_c, 7, 79, 127
10, 62280, Note_on_c, 7, 79, 127
10, 62399, Note_off_c, 7, 79, 127
10, 62400, Note_on_c, 7, 77, 127
10, 62520, Note_off_c, 7, 77, 127
10, 62520, Note_on_c, 7, 79, 127
10, 62640, Note_off_c, 7, 79, 127
10, 62640, Note_on_c, 7, 74, 127
10, 62760, Note_off_c, 7, 74, 127
10, 62760, Note_on_c, 7, 72, 127
10, 62880, Note_off_c, 7, 72, 127
10, 62880, Note_on_c, 7, 74, 127
10, 63000, Note_off_c, 7, 74, 127
10, 63000, Note_on_c, 7, 72, 127
10, 63120, Note_off_c, 7, 72, 127
10, 63120, Note_on_c, 7, 70, 127
10, 63240, Note_off_c, 7, 70, 127
10, 63240, Note_on_c, 7, 72, 127
10, 63360, Note_off_c, 7, 72, 127
10, 63360, Note_on_c, 7, 67, 127
10, 63480, Note_off_c, 7, 67, 127
10, 63480, Note_on_c, 7, 67, 127
10, 63600, Note_off_c, 7, 67, 127
10, 63600, Note_on_c, 7, 67, 127
10, 63720, Note_off_c, 7, 67, 127
10, 63720, Note_on_c, 7, 67, 127
10, 63840, Note_off_c, 7, 67, 127
10, 63840, Note_on_c, 7, 67, 127
10, 63960, Note_off_c, 7, 67, 127
10, 63960, Note_on_c, 7, 67, 127
10, 64080, Note_off_c, 7, 67, 127
10, 64080, Note_on_c, 7, 67, 127
10, 64200, Note_off_c, 7, 67, 127
10, 64200, Note_on_c, 7, 67, 127
10, 64319, Note_off_c, 7, 67, 127
10, 64320, Note_on_c, 7, 79, 127
10, 64440, Note_off_c, 7, 79, 127
10, 64440, Note_on_c, 7, 79, 127
10, 64560, Note_off_c, 7, 79, 127
10, 64560, Note_on_c, 7, 79, 127
10, 64680, Note_off_c, 7, 79, 127
10, 64680, Note_on_c, 7, 79, 127
10, 64800, Note_off_c, 7, 79, 127
10, 64800, Note_on_c, 7, 79, 127
10, 64920, Note_off_c, 7, 79, 127
10, 64920, Note_on_c, 7, 79, 127
10, 65040, Note_off_c, 7, 79, 127
10, 65040, Note_on_c, 7, 79, 127
10, 65160, Note_off_c, 7, 79, 127
10, 65160, Note_on_c, 7, 79, 127
10, 65280, Note_off_c, 7, 79, 127
10, 65280, Note_on_c, 7, 79, 127
10, 65400, Note_off_c, 7, 79, 127
10, 65400, Note_on_c, 7, 79, 127
10, 65520, Note_off_c, 7, 79, 127
10, 65520, Note_on_c, 7, 79, 127
10, 65640, Note_off_c, 7, 79, 127
10, 65640, Note_on_c, 7, 79, 127
10, 65760, Note_off_c, 7, 79, 127
10, 65760, Note_on_c, 7, 79, 127
10, 65880, Note_off_c, 7, 79, 127
10, 65880, Note_on_c, 7, 79, 127
10, 66000, Note_off_c, 7, 79, 127
10, 66000, Note_on_c, 7, 79, 127
10, 66120, Note_off_c, 7, 79, 127
10, 66120, Note_on_c, 7, 79, 127
10, 66239, Note_off_c, 7, 79, 127
10, 66240, Note_on_c, 7, 79, 127
10, 66400, Note_off_c, 7, 79, 127
10, 66560, Note_on_c, 7, 79, 127
10, 66720, Note_off_c, 7, 79, 127
10, 66880, Note_on_c, 7, 74, 127
10, 67040, Note_off_c, 7, 74, 127
10, 67200, Note_on_c, 7, 79, 127
10, 67320, Note_off_c, 7, 79, 127
10, 67320, Note_on_c, 7, 79, 127
10, 67440, Note_off_c, 7, 79, 127
10, 67440, Note_on_c, 7, 79, 127
10, 67560, Note_off_c, 7, 79, 127
10, 67560, Note_on_c, 7, 79, 127
10, 67680, Note_off_c, 7, 79, 127
10, 67680, Note_on_c, 7, 79, 127
10, 67800, Note_off_c, 7, 79, 127
10, 67800, Note_on_c, 7, 79, 127
10, 67920, Note_off_c, 7, 79, 127
10, 67920, Note_on_c, 7, 79, 127
10, 68040, Note_off_c, 7, 79, 127
10, 68040, Note_on_c, 7, 79, 127
10, 68160, Note_off_c, 7, 79, 127
10, 68160, Note_on_c, 7, 79, 127
10, 68280, Note_off_c, 7, 79, 127
10, 68280, Note_on_c, 7, 79, 127
10, 68400, Note_off_c, 7, 79, 127
10, 68400, Note_on_c, 7, 79, 127
10, 68520, Note_off_c, 7, 79, 127
10, 68520, Note_on_c, 7, 79, 127
10, 68640, Note_off_c, 7, 79, 127
10, 68640, Note_on_c, 7, 79, 127
10, 68760, Note_off_c, 7, 79, 127
10, 68760, Note_on_c, 7, 79, 127
10, 68880, Note_off_c, 7, 79, 127
10, 68880, Note_on_c, 7, 79, 127
10, 69000, Note_off_c, 7, 79, 127
10, 69000, Note_on_c, 7, 79, 127
10, 69119, Note_off_c, 7, 79, 127
10, 70080, Note_on_c, 7, 82, 127
10, 70200, Note_off_c, 7, 82, 127
10, 70200, Note_on_c, 7, 82, 127
10, 70320, Note_off_c, 7, 82, 127
10, 70320, Note_on_c, 7, 82, 127
10, 70440, Note_off_c, 7, 82, 127
10, 70440, Note_on_c, 7, 82, 127
10, 70560, Note_off_c, 7, 82, 127
10, 70560, Note_on_c, 7, 82, 127
10, 70680, Note_off_c, 7, 82, 127
10, 70680, Note_on_c, 7, 82, 127
10, 70800, Note_off_c, 7, 82, 127
10, 70800, Note_on_c, 7, 82, 127
10, 70920, Note_off_c, 7, 82, 127
10, 70920, Note_on_c, 7, 82, 127
10, 71039, Note_off_c, 7, 82, 127
10, 71040, Note_on_c, 7, 82, 127
10, 71160, Note_off_c, 7, 82, 127
10, 71160, Note_on_c, 7, 82, 127
10, 71280, Note_off_c, 7, 82, 127
10, 71280, Note_on_c, 7, 82, 127
10, 71400, Note_off_c, 7, 82, 127
10, 71400, Note_on_c, 7, 82, 127
10, 71520, Note_off_c, 7, 82, 127
10, 71520, Note_on_c, 7, 82, 127
10, 71640, Note_off_c, 7, 82, 127
10, 71640, Note_on_c, 7, 82, 127
10, 71760, Note_off_c, 7, 82, 127
10, 71760, Note_on_c, 7, 82, 127
10, 71880, Note_off_c, 7, 82, 127
10, 71880, Note_on_c, 7, 82, 127
10, 71999, Note_off_c, 7, 82, 127
10, 72000, Note_on_c, 7, 82, 127
10, 72120, Note_off_c, 7, 82, 127
10, 72120, Note_on_c, 7, 82, 127
10, 72240, Note_off_c, 7, 82, 127
10, 72240, Note_on_c, 7, 82, 127
10, 72360, Note_off_c, 7, 82, 127
10, 72360, Note_on_c, 7, 82, 127
10, 72480, Note_off_c, 7, 82, 127
10, 72480, Note_on_c, 7, 82, 127
10, 72600, Note_off_c, 7, 82, 127
10, 72600, Note_on_c, 7, 82, 127
10, 72720, Note_off_c, 7, 82, 127
10, 72720, Note_on_c, 7, 82, 127
10, 72840, Note_off_c, 7, 82, 127
10, 72840, Note_on_c, 7, 82, 127
10, 72960, Note_off_c, 7, 82, 127
10, 72960, Note_on_c, 7, 82, 127
10, 73080, Note_off_c, 7, 82, 127
10, 73080, Note_on_c, 7, 82, 127
10, 73200, Note_off_c, 7, 82, 127
10, 73200, Note_on_c, 7, 82, 127
10, 73320, Note_off_c, 7, 82, 127
10, 73320, Note_on_c, 7, 82, 127
10, 73440, Note_off_c, 7, 82, 127
10, 73440, Note_on_c, 7, 82, 127
10, 73560, Note_off_c, 7, 82, 127
10, 73560, Note_on_c, 7, 82, 127
10, 73680, Note_off_c, 7, 82, 127
10, 73680, Note_on_c, 7, 82, 127
10, 73800, Note_off_c, 7, 82, 127
10, 73800, Note_on_c, 7, 82, 127
10, 73920, Note_off_c, 7, 82, 127
10, 73920, Note_on_c, 7, 82, 127
10, 74040, Note_off_c, 7, 82, 127
10, 74040, Note_on_c, 7, 82, 127
10, 74160, Note_off_c, 7, 82, 127
10, 74160, Note_on_c, 7, 82, 127
10, 74280, Note_off_c, 7, 82, 127
10, 74280, Note_on_c, 7, 82, 127
10, 74400, Note_off_c, 7, 82, 127
10, 74400, Note_on_c, 7, 82, 127
10, 74520, Note_off_c, 7, 82, 127
10, 74520, Note_on_c, 7, 82, 127
10, 74640, Note_off_c, 7, 82, 127
10, 74640, Note_on_c, 7, 82, 127
10, 74760, Note_off_c, 7, 82, 127
10, 74760, Note_on_c, 7, 82, 127
10, 74879, Note_off_c, 7, 82, 127
10, 75840, Note_on_c, 7, 82, 127
10, 75960, Note_off_c, 7, 82, 127
10, 75960, Note_on_c, 7, 82, 127
10, 76080, Note_off_c, 7, 82, 127
10, 76080, Note_on_c, 7, 82, 127
10, 76200, Note_off_c, 7, 82, 127
10, 76200, Note_on_c, 7, 82, 127
10, 76320, Note_off_c, 7, 82, 127
10, 76320, Note_on_c, 7, 82, 127
10, 76440, Note_off_c, 7, 82, 127
10, 76440, Note_on_c, 7, 82, 127
10, 76560, Note_off_c, 7, 82, 127
10, 76560, Note_on_c, 7, 82, 127
10, 76680, Note_off_c, 7, 82, 127
10, 76680, Note_on_c, 7, 82, 127
10, 76800, Note_off_c, 7, 82, 127
10, 76800, Note_on_c, 7, 82, 127
10, 76920, Note_off_c, 7, 82, 127
10, 76920, Note_on_c, 7, 82, 127
10, 77040, Note_off_c, 7, 82, 127
10, 77040, Note_on_c, 7, 82, 127
10, 77160, Note_off_c, 7, 82, 127
10, 77160, Note_on_c, 7, 82, 127
10, 77280, Note_off_c, 7, 82, 127
10, 77280, Note_on_c, 7, 82, 127
10, 77400, Note_off_c, 7, 82, 127
10, 77400, Note_on_c, 7, 82, 127
10, 77520, Note_off_c, 7, 82, 127
10, 77520, Note_on_c, 7, 82, 127
10, 77640, Note_off_c, 7, 82, 127
10, 77640, Note_on_c, 7, 82, 127
10, 77759, Note_off_c, 7, 82, 127
10, 77760, Note_on_c, 7, 82, 127
10, 77880, Note_off_c, 7, 82, 127
10, 77880, Note_on_c, 7, 82, 127
10, 78000, Note_off_c, 7, 82, 127
10, 78000, Note_on_c, 7, 82, 127
10, 78120, Note_off_c, 7, 82, 127
10, 78120, Note_on_c, 7, 82, 127
10, 78240, Note_off_c, 7, 82, 127
10, 78240, Note_on_c, 7, 82, 127
10, 78360, Note_off_c, 7, 82, 127
10, 78360, Note_on_c, 7, 82, 127
10, 78480, Note_off_c, 7, 82, 127
10, 78480, Note_on_c, 7, 82, 127
10, 78600, Note_off_c, 7, 82, 127
10, 78600, Note_on_c, 7, 82, 127
10, 78720, Note_off_c, 7, 82, 127
10, 78720, Note_on_c, 7, 82, 127
10, 78840, Note_off_c, 7, 82, 127
10, 78840, Note_on_c, 7, 82, 127
10, 78960, Note_off_c, 7, 82, 127
10, 78960, Note_on_c, 7, 82, 127
10, 79080, Note_off_c, 7, 82, 127
10, 79080, Note_on_c, 7, 82, 127
10, 79200, Note_off_c, 7, 82, 127
10, 79200, Note_on_c, 7, 82, 127
10, 79320, Note_off_c, 7, 82, 127
10, 79320, Note_on_c, 7, 82, 127
10, 79440, Note_off_c, 7, 82, 127
10, 79440, Note_on_c, 7, 82, 127
10, 79560, Note_off_c, 7, 82, 127
10, 79560, Note_on_c, 7, 82, 127
10, 79680, Note_off_c, 7, 82, 127
10, 79680, Note_on_c, 7, 82, 127
10, 79800, Note_off_c, 7, 82, 127
10, 79800, Note_on_c, 7, 82, 127
10, 79920, Note_off_c, 7, 82, 127
10, 79920, Note_on_c, 7, 82, 127
10, 80040, Note_off_c, 7, 82, 127
10, 80040, Note_on_c, 7, 82, 127
10, 80160, Note_off_c, 7, 82, 127
10, 80160, Note_on_c, 7, 82, 127
10, 80280, Note_off_c, 7, 82, 127
10, 80280, Note_on_c, 7, 82, 127
10, 80400, Note_off_c, 7, 82, 127
10, 80400, Note_on_c, 7, 82, 127
10, 80520, Note_off_c, 7, 82, 127
10, 80520, Note_on_c, 7, 82, 127
10, 80639, Note_off_c, 7, 82, 127
10, 81600, Note_on_c, 7, 79, 127
10, 82080, Note_off_c, 7, 79, 127
10, 82560, Note_on_c, 7, 79, 127
10, 83040, Note_off_c, 7, 79, 127
10, 83520, Note_on_c, 7, 79, 127
10, 83640, Note_off_c, 7, 79, 127
10, 83640, Note_on_c, 7, 79, 127
10, 83760, Note_off_c, 7, 79, 127
10, 83760, Note_on_c, 7, 79, 127
10, 83880, Note_off_c, 7, 79, 127
10, 83880, Note_on_c, 7, 79, 127
10, 84000, Note_off_c, 7, 79, 127
10, 84000, Note_on_c, 7, 79, 127
10, 84120, Note_off_c, 7, 79, 127
10, 84120, Note_on_c, 7, 79, 127
10, 84240, Note_off_c, 7, 79, 127
10, 84240, Note_on_c, 7, 79, 127
10, 84360, Note_off_c, 7, 79, 127
10, 84360, Note_on_c, 7, 79, 127
10, 84480, Note_off_c, 7, 79, 127
10, 84480, Note_on_c, 7, 79, 127
10, 84600, Note_off_c, 7, 79, 127
10, 84600, Note_on_c, 7, 79, 127
10, 84720, Note_off_c, 7, 79, 127
10, 84720, Note_on_c, 7, 79, 127
10, 84840, Note_off_c, 7, 79, 127
10, 84840, Note_on_c, 7, 79, 127
10, 84960, Note_off_c, 7, 79, 127
10, 84960, Note_on_c, 7, 79, 127
10, 85080, Note_off_c, 7, 79, 127
10, 85080, Note_on_c, 7, 79, 127
10, 85200, Note_off_c, 7, 79, 127
10, 85200, Note_on_c, 7, 79, 127
10, 85320, Note_off_c, 7, 79, 127
10, 85320, Note_on_c, 7, 79, 127
10, 85439, Note_off_c, 7, 79, 127
10, 85440, Note_on_c, 7, 79, 127
10, 85560, Note_off_c, 7, 79, 127
10, 85560, Note_on_c, 7, 77, 127
10, 85680, Note_off_c, 7, 77, 127
10, 85680, Note_on_c, 7, 79, 127
10, 85800, Note_off_c, 7, 79, 127
10, 85800, Note_on_c, 7, 74, 127
10, 85920, Note_off_c, 7, 74, 127
10, 85920, Note_on_c, 7, 72, 127
10, 86040, Note_off_c, 7, 72, 127
10, 86040, Note_on_c, 7, 74, 127
10, 86160, Note_off_c, 7, 74, 127
10, 86160, Note_on_c, 7, 70, 127
10, 86280, Note_off_c, 7, 70, 127
10, 86280, Note_on_c, 7, 72, 127
10, 86400, Note_off_c, 7, 72, 127
10, 86400, Note_on_c, 7, 67, 127
10, 86520, Note_off_c, 7, 67, 127
10, 86520, Note_on_c, 7, 67, 127
10, 86640, Note_off_c, 7, 67, 127
10, 86640, Note_on_c, 7, 67, 127
10, 86760, Note_off_c, 7, 67, 127
10, 86760, Note_on_c, 7, 67, 127
10, 86880, Note_off_c, 7, 67, 127
10, 86880, Note_on_c, 7, 67, 127
10, 87000, Note_off_c, 7, 67, 127
10, 87000, Note_on_c, 7, 67, 127
10, 87120, Note_off_c, 7, 67, 127
10, 87120, Note_on_c, 7, 67, 127
10, 87240, Note_off_c, 7, 67, 127
10, 87240, Note_on_c, 7, 67, 127
10, 87359, Note_off_c, 7, 67, 127
10, 87360, Note_on_c, 7, 79, 127
10, 87480, Note_off_c, 7, 79, 127
10, 87480, Note_on_c, 7, 79, 127
10, 87600, Note_off_c, 7, 79, 127
10, 87600, Note_on_c, 7, 79, 127
10, 87720, Note_off_c, 7, 79, 127
10, 87720, Note_on_c, 7, 79, 127
10, 87840, Note_off_c, 7, 79, 127
10, 87840, Note_on_c, 7, 79, 127
10, 87960, Note_off_c, 7, 79, 127
10, 87960, Note_on_c, 7, 79, 127
10, 88080, Note_off_c, 7, 79, 127
10, 88080, Note_on_c, 7, 79, 127
10, 88200, Note_off_c, 7, 79, 127
10, 88200, Note_on_c, 7, 79, 127
10, 88320, Note_off_c, 7, 79, 127
10, 88320, Note_on_c, 7, 79, 127
10, 88440, Note_off_c, 7, 79, 127
10, 88440, Note_on_c, 7, 79, 127
10, 88560, Note_off_c, 7, 79, 127
10, 88560, Note_on_c, 7, 79, 127
10, 88680, Note_off_c, 7, 79, 127
10, 88680, Note_on_c, 7, 79, 127
10, 88800, Note_off_c, 7, 79, 127
10, 88800, Note_on_c, 7, 79, 127
10, 88920, Note_off_c, 7, 79, 127
10, 88920, Note_on_c, 7, 79, 127
10, 89040, Note_off_c, 7, 79, 127
10, 89040, Note_on_c, 7, 79, 127
10, 89160, Note_off_c, 7, 79, 127
10, 89160, Note_on_c, 7, 79, 127
10, 89279, Note_off_c, 7, 79, 127
10, 89280, Note_on_c, 7, 79, 127
10, 89440, Note_off_c, 7, 79, 127
10, 89600, Note_on_c, 7, 79, 127
10, 89760, Note_off_c, 7, 79, 127
10, 89920, Note_on_c, 7, 74, 127
10, 90080, Note_off_c, 7, 74, 127
10, 90240, Note_on_c, 7, 79, 127
10, 90360, Note_off_c, 7, 79, 127
10, 90360, Note_on_c, 7, 79, 127
10, 90480, Note_off_c, 7, 79, 127
10, 90480, Note_on_c, 7, 79, 127
10, 90600, Note_off_c, 7, 79, 127
10, 90600, Note_on_c, 7, 79, 127
10, 90720, Note_off_c, 7, 79, 127
10, 90720, Note_on_c, 7, 79, 127
10, 90840, Note_off_c, 7, 79, 127
10, 90840, Note_on_c, 7, 79, 127
10, 90960, Note_off_c, 7, 79, 127
10, 90960, Note_on_c, 7, 79, 127
10, 91080, Note_off_c, 7, 79, 127
10, 91080, Note_on_c, 7, 79, 127
10, 91200, Note_off_c, 7, 79, 127
10, 91200, Note_on_c, 7, 79, 127
10, 91320, Note_off_c, 7, 79, 127
10, 91320, Note_on_c, 7, 79, 127
10, 91440, Note_off_c, 7, 79, 127
10, 91440, Note_on_c, 7, 79, 127
10, 91560, Note_off_c, 7, 79, 127
10, 91560, Note_on_c, 7, 79, 127
10, 91680, Note_off_c, 7, 79, 127
10, 91680, Note_on_c, 7, 79, 127
10, 91800, Note_off_c, 7, 79, 127
10, 91800, Note_on_c, 7, 79, 127
10, 91920, Note_off_c, 7, 79, 127
10, 91920, Note_on_c, 7, 79, 127
10, 92040, Note_off_c, 7, 79, 127
10, 92040, Note_on_c, 7, 79, 127
10, 92159, Note_off_c, 7, 79, 127
10, 94320, Note_on_c, 7, 84, 127
10, 94560, Note_off_c, 7, 84, 127
10, 94560, Note_on_c, 7, 81, 127
10, 94800, Note_off_c, 7, 81, 127
10, 94800, Note_on_c, 7, 83, 127
10, 95040, Note_off_c, 7, 83, 127
10, 95040, Note_on_c, 7, 80, 127
10, 95232, Note_off_c, 7, 80, 127
10, 95232, Note_on_c, 7, 84, 127
10, 95424, Note_off_c, 7, 84, 127
10, 95424, Note_on_c, 7, 88, 127
10, 95616, Note_off_c, 7, 88, 127
10, 95616, Note_on_c, 7, 88, 127
10, 95808, Note_off_c, 7, 88, 127
10, 95808, Note_on_c, 7, 92, 127
10, 96000, Note_off_c, 7, 92, 127
10, 96000, Note_on_c, 7, 90, 127
10, 96192, Note_off_c, 7, 90, 127
10, 96192, Note_on_c, 7, 95, 127
10, 96384, Note_off_c, 7, 95, 127
10, 96384, Note_on_c, 7, 84, 127
10, 96576, Note_off_c, 7, 84, 127
10, 96576, Note_on_c, 7, 80, 127
10, 96768, Note_off_c, 7, 80, 127
10, 96768, Note_on_c, 7, 84, 127
10, 96960, Note_off_c, 7, 84, 127
10, 96960, Note_on_c, 7, 92, 127
10, 97200, Note_off_c, 7, 92, 127
10, 97200, Note_on_c, 7, 95, 127
10, 97440, Note_off_c, 7, 95, 127
10, 97440, Note_on_c, 7, 90, 127
10, 97680, Note_off_c, 7, 90, 127
10, 97680, Note_on_c, 7, 95, 127
10, 97920, Note_off_c, 7, 95, 127
10, 97920, Note_on_c, 7, 95, 127
10, 98112, Note_off_c, 7, 95, 127
10, 98112, Note_on_c, 7, 85, 127
10, 98304, Note_off_c, 7, 85, 127
10, 98304, Note_on_c, 7, 85, 127
10, 98496, Note_off_c, 7, 85, 127
10, 98496, Note_on_c, 7, 90, 127
10, 98688, Note_off_c, 7, 90, 127
10, 98688, Note_on_c, 7, 90, 127
10, 98880, Note_off_c, 7, 90, 127
10, 98880, Note_on_c, 7, 90, 127
10, 99000, Note_off_c, 7, 90, 127
10, 99000, Note_on_c, 7, 90, 127
10, 99120, Note_off_c, 7, 90, 127
10, 99120, Note_on_c, 7, 90, 127
10, 99240, Note_off_c, 7, 90, 127
10, 99240, Note_on_c, 7, 90, 127
10, 99360, Note_off_c, 7, 90, 127
10, 99360, Note_on_c, 7, 90, 127
10, 99480, Note_off_c, 7, 90, 127
10, 99480, Note_on_c, 7, 90, 127
10, 99600, Note_off_c, 7, 90, 127
10, 99600, Note_on_c, 7, 90, 127
10, 99720, Note_off_c, 7, 90, 127
10, 99720, Note_on_c, 7, 90, 127
10, 99840, Note_off_c, 7, 90, 127
10, 99840, Note_on_c, 7, 90, 127
10, 99960, Note_off_c, 7, 90, 127
10, 99960, Note_on_c, 7, 90, 127
10, 100080, Note_off_c, 7, 90, 127
10, 100080, Note_on_c, 7, 90, 127
10, 100200, Note_off_c, 7, 90, 127
10, 100200, Note_on_c, 7, 90, 127
10, 100320, Note_off_c, 7, 90, 127
10, 100320, Note_on_c, 7, 90, 127
10, 100440, Note_off_c, 7, 90, 127
10, 100440, Note_on_c, 7, 90, 127
10, 100560, Note_off_c, 7, 90, 127
10, 100560, Note_on_c, 7, 90, 127
10, 100680, Note_off_c, 7, 90, 127
10, 100680, Note_on_c, 7, 90, 127
10, 100800, Note_off_c, 7, 90, 127
10, 100800, Note_on_c, 7, 90, 127
10, 100920, Note_off_c, 7, 90, 127
10, 100920, Note_on_c, 7, 90, 127
10, 101040, Note_off_c, 7, 90, 127
10, 101040, Note_on_c, 7, 90, 127
10, 101160, Note_off_c, 7, 90, 127
10, 101160, Note_on_c, 7, 90, 127
10, 101280, Note_off_c, 7, 90, 127
10, 101280, Note_on_c, 7, 90, 127
10, 101400, Note_off_c, 7, 90, 127
10, 101400, Note_on_c, 7, 90, 127
10, 101520, Note_off_c, 7, 90, 127
10, 101520, Note_on_c, 7, 90, 127
10, 101640, Note_off_c, 7, 90, 127
10, 101640, Note_on_c, 7, 90, 127
10, 101760, Note_off_c, 7, 90, 127
10, 101760, Note_on_c, 7, 90, 127
10, 101880, Note_off_c, 7, 90, 127
10, 101880, Note_on_c, 7, 90, 127
10, 102000, Note_off_c, 7, 90, 127
10, 102000, Note_on_c, 7, 90, 127
10, 102120, Note_off_c, 7, 90, 127
10, 102120, Note_on_c, 7, 90, 127
10, 102240, Note_off_c, 7, 90, 127
10, 102240, Note_on_c, 7, 90, 127
10, 102360, Note_off_c, 7, 90, 127
10, 102360, Note_on_c, 7, 90, 127
10, 102480, Note_off_c, 7, 90, 127
10, 102480, Note_on_c, 7, 90, 127
10, 102600, Note_off_c, 7, 90, 127
10, 102600, Note_on_c, 7, 90, 127
10, 102720, Note_off_c, 7, 90, 127
10, 102720, Note_on_c, 7, 90, 127
10, 102840, Note_off_c, 7, 90, 127
10, 102840, Note_on_c, 7, 90, 127
10, 102960, Note_off_c, 7, 90, 127
10, 102960, Note_on_c, 7, 90, 127
10, 103080, Note_off_c, 7, 90, 127
10, 103080, Note_on_c, 7, 90, 127
10, 103200, Note_off_c, 7, 90, 127
10, 103200, Note_on_c, 7, 90, 127
10, 103320, Note_off_c, 7, 90, 127
10, 103320, Note_on_c, 7, 90, 127
10, 103440, Note_off_c, 7, 90, 127
10, 103440, Note_on_c, 7, 90, 127
10, 103560, Note_off_c, 7, 90, 127
10, 103560, Note_on_c, 7, 90, 127
10, 103679, Note_off_c, 7, 90, 127
10, 104640, Note_on_c, 7, 83, 127
10, 105920, Note_off_c, 7, 83, 127
10, 105920, Note_on_c, 7, 81, 127
10, 106240, Note_off_c, 7, 81, 127
10, 106240, Note_on_c, 7, 84, 127
10, 106560, Note_off_c, 7, 84, 127
10, 106560, Note_on_c, 7, 80, 127
10, 106752, Note_off_c, 7, 80, 127
10, 106752, Note_on_c, 7, 78, 127
10, 106944, Note_off_c, 7, 78, 127
10, 106944, Note_on_c, 7, 89, 127
10, 107136, Note_off_c, 7, 89, 127
10, 107136, Note_on_c, 7, 88, 127
10, 107328, Note_off_c, 7, 88, 127
10, 107328, Note_on_c, 7, 88, 127
10, 107520, Note_off_c, 7, 88, 127
10, 107520, Note_on_c, 7, 99, 127
10, 107694, Note_off_c, 7, 99, 127
10, 107694, Note_on_c, 7, 97, 127
10, 107868, Note_off_c, 7, 97, 127
10, 107868, Note_on_c, 7, 94, 127
10, 108042, Note_off_c, 7, 94, 127
10, 108042, Note_on_c, 7, 94, 127
10, 108216, Note_off_c, 7, 94, 127
10, 108216, Note_on_c, 7, 99, 127
10, 108390, Note_off_c, 7, 99, 127
10, 108390, Note_on_c, 7, 92, 127
10, 108564, Note_off_c, 7, 92, 127
10, 108564, Note_on_c, 7, 97, 127
10, 108738, Note_off_c, 7, 97, 127
10, 108738, Note_on_c, 7, 94, 127
10, 108912, Note_off_c, 7, 94, 127
10, 108912, Note_on_c, 7, 94, 127
10, 109086, Note_off_c, 7, 94, 127
10, 109086, Note_on_c, 7, 99, 127
10, 109260, Note_off_c, 7, 99, 127
10, 109260, Note_on_c, 7, 92, 127
10, 109434, Note_off_c, 7, 92, 127
10, 109440, Note_on_c, 7, 100, 127
10, 109632, Note_off_c, 7, 100, 127
10, 109632, Note_on_c, 7, 99, 127
10, 109824, Note_off_c, 7, 99, 127
10, 109824, Note_on_c, 7, 99, 127
10, 110016, Note_off_c, 7, 99, 127
10, 110016, Note_on_c, 7, 103, 127
10, 110208, Note_off_c, 7, 103, 127
10, 110208, Note_on_c, 7, 92, 127
10, 110400, Note_off_c, 7, 92, 127
10, 110400, Note_on_c, 7, 102, 127
10, 110520, Note_off_c, 7, 102, 127
10, 110520, Note_on_c, 7, 102, 127
10, 110640, Note_off_c, 7, 102, 127
10, 110640, Note_on_c, 7, 102, 127
10, 110760, Note_off_c, 7, 102, 127
10, 110760, Note_on_c, 7, 102, 127
10, 110880, Note_off_c, 7, 102, 127
10, 110880, Note_on_c, 7, 102, 127
10, 111000, Note_off_c, 7, 102, 127
10, 111000, Note_on_c, 7, 102, 127
10, 111120, Note_off_c, 7, 102, 127
10, 111120, Note_on_c, 7, 102, 127
10, 111240, Note_off_c, 7, 102, 127
10, 111240, Note_on_c, 7, 102, 127
10, 111360, Note_off_c, 7, 102, 127
10, 111360, Note_on_c, 7, 102, 127
10, 111480, Note_off_c, 7, 102, 127
10, 111480, Note_on_c, 7, 102, 127
10, 111600, Note_off_c, 7, 102, 127
10, 111600, Note_on_c, 7, 102, 127
10, 111720, Note_off_c, 7, 102, 127
10, 111720, Note_on_c, 7, 102, 127
10, 111840, Note_off_c, 7, 102, 127
10, 111840, Note_on_c, 7, 102, 127
10, 111960, Note_off_c, 7, 102, 127
10, 111960, Note_on_c, 7, 102, 127
10, 112080, Note_off_c, 7, 102, 127
10, 112080, Note_on_c, 7, 102, 127
10, 112200, Note_off_c, 7, 102, 127
10, 112200, Note_on_c, 7, 102, 127
10, 112320, Note_off_c, 7, 102, 127
10, 112320, Note_on_c, 7, 102, 127
10, 112440, Note_off_c, 7, 102, 127
10, 112440, Note_on_c, 7, 102, 127
10, 112560, Note_off_c, 7, 102, 127
10, 112560, Note_on_c, 7, 102, 127
10, 112680, Note_off_c, 7, 102, 127
10, 112680, Note_on_c, 7, 102, 127
10, 112800, Note_off_c, 7, 102, 127
10, 112800, Note_on_c, 7, 102, 127
10, 112920, Note_off_c, 7, 102, 127
10, 112920, Note_on_c, 7, 102, 127
10, 113040, Note_off_c, 7, 102, 127
10, 113040, Note_on_c, 7, 102, 127
10, 113160, Note_off_c, 7, 102, 127
10, 113160, Note_on_c, 7, 102, 127
10, 113280, Note_off_c, 7, 102, 127
10, 113280, Note_on_c, 7, 102, 127
10, 113400, Note_off_c, 7, 102, 127
10, 113400, Note_on_c, 7, 102, 127
10, 113520, Note_off_c, 7, 102, 127
10, 113520, Note_on_c, 7, 102, 127
10, 113640, Note_off_c, 7, 102, 127
10, 113640, Note_on_c, 7, 102, 127
10, 113760, Note_off_c, 7, 102, 127
10, 113760, Note_on_c, 7, 102, 127
10, 113880, Note_off_c, 7, 102, 127
10, 113880, Note_on_c, 7, 102, 127
10, 114000, Note_off_c, 7, 102, 127
10, 114000, Note_on_c, 7, 102, 127
10, 114120, Note_off_c, 7, 102, 127
10, 114120, Note_on_c, 7, 102, 127
10, 114240, Note_off_c, 7, 102, 127
10, 114240, Note_on_c, 7, 102, 127
10, 114360, Note_off_c, 7, 102, 127
10, 114360, Note_on_c, 7, 102, 127
10, 114480, Note_off_c, 7, 102, 127
10, 114480, Note_on_c, 7, 102, 127
10, 114600, Note_off_c, 7, 102, 127
10, 114600, Note_on_c, 7, 102, 127
10, 114720, Note_off_c, 7, 102, 127
10, 114720, Note_on_c, 7, 102, 127
10, 114840, Note_off_c, 7, 102, 127
10, 114840, Note_on_c, 7, 102, 127
10, 114960, Note_off_c, 7, 102, 127
10, 114960, Note_on_c, 7, 102, 127
10, 115080, Note_off_c, 7, 102, 127
10, 115080, Note_on_c, 7, 102, 127
10, 115199, Note_off_c, 7, 102, 127
10, 118080, Note_on_c, 7, 83, 127
10, 118341, Note_off_c, 7, 83, 127
10, 118341, Note_on_c, 7, 81, 127
10, 118602, Note_off_c, 7, 81, 127
10, 118602, Note_on_c, 7, 81, 127
10, 118863, Note_off_c, 7, 81, 127
10, 118863, Note_on_c, 7, 86, 127
10, 119124, Note_off_c, 7, 86, 127
10, 119124, Note_on_c, 7, 85, 127
10, 119385, Note_off_c, 7, 85, 127
10, 119385, Note_on_c, 7, 85, 127
10, 119646, Note_off_c, 7, 85, 127
10, 119646, Note_on_c, 7, 83, 127
10, 119907, Note_off_c, 7, 83, 127
10, 119907, Note_on_c, 7, 83, 127
10, 120168, Note_off_c, 7, 83, 127
10, 120168, Note_on_c, 7, 85, 127
10, 120429, Note_off_c, 7, 85, 127
10, 120429, Note_on_c, 7, 78, 127
10, 120690, Note_off_c, 7, 78, 127
10, 120690, Note_on_c, 7, 74, 127
10, 120951, Note_off_c, 7, 74, 127
10, 120960, Note_on_c, 7, 82, 127
10, 121152, Note_off_c, 7, 82, 127
10, 121152, Note_on_c, 7, 85, 127
10, 121344, Note_off_c, 7, 85, 127
10, 121344, Note_on_c, 7, 85, 127
10, 121536, Note_off_c, 7, 85, 127
10, 121536, Note_on_c, 7, 81, 127
10, 121728, Note_off_c, 7, 81, 127
10, 121728, Note_on_c, 7, 93, 127
10, 121920, Note_off_c, 7, 93, 127
10, 121920, Note_on_c, 7, 88, 127
10, 122112, Note_off_c, 7, 88, 127
10, 122112, Note_on_c, 7, 90, 127
10, 122304, Note_off_c, 7, 90, 127
10, 122304, Note_on_c, 7, 90, 127
10, 122496, Note_off_c, 7, 90, 127
10, 122496, Note_on_c, 7, 79, 127
10, 122688, Note_off_c, 7, 79, 127
10, 122688, Note_on_c, 7, 86, 127
10, 122880, Note_off_c, 7, 86, 127
10, 122880, Note_on_c, 7, 85, 127
10, 123072, Note_off_c, 7, 85, 127
10, 123072, Note_on_c, 7, 75, 127
10, 123264, Note_off_c, 7, 75, 127
10, 123264, Note_on_c, 7, 82, 127
10, 123456, Note_off_c, 7, 82, 127
10, 123456, Note_on_c, 7, 83, 127
10, 123648, Note_off_c, 7, 83, 127
10, 123648, Note_on_c, 7, 81, 127
10, 123840, Note_off_c, 7, 81, 127
10, 123840, Note_on_c, 7, 93, 127
10, 123960, Note_off_c, 7, 93, 127
10, 123960, Note_on_c, 7, 93, 127
10, 124080, Note_off_c, 7, 93, 127
10, 124080, Note_on_c, 7, 93, 127
10, 124200, Note_off_c, 7, 93, 127
10, 124200, Note_on_c, 7, 93, 127
10, 124320, Note_off_c, 7, 93, 127
10, 124320, Note_on_c, 7, 93, 127
10, 124440, Note_off_c, 7, 93, 127
10, 124440, Note_on_c, 7, 93, 127
10, 124560, Note_off_c, 7, 93, 127
10, 124560, Note_on_c, 7, 93, 127
10, 124680, Note_off_c, 7, 93, 127
10, 124680, Note_on_c, 7, 93, 127
10, 124800, Note_off_c, 7, 93, 127
10, 124800, Note_on_c, 7, 93, 127
10, 124920, Note_off_c, 7, 93, 127
10, 124920, Note_on_c, 7, 93, 127
10, 125040, Note_off_c, 7, 93, 127
10, 125040, Note_on_c, 7, 93, 127
10, 125160, Note_off_c, 7, 93, 127
10, 125160, Note_on_c, 7, 93, 127
10, 125280, Note_off_c, 7, 93, 127
10, 125280, Note_on_c, 7, 93, 127
10, 125400, Note_off_c, 7, 93, 127
10, 125400, Note_on_c, 7, 93, 127
10, 125520, Note_off_c, 7, 93, 127
10, 125520, Note_on_c, 7, 93, 127
10, 125640, Note_off_c, 7, 93, 127
10, 125640, Note_on_c, 7, 93, 127
10, 125760, Note_off_c, 7, 93, 127
10, 125760, Note_on_c, 7, 93, 127
10, 125880, Note_off_c, 7, 93, 127
10, 125880, Note_on_c, 7, 93, 127
10, 126000, Note_off_c, 7, 93, 127
10, 126000, Note_on_c, 7, 93, 127
10, 126120, Note_off_c, 7, 93, 127
10, 126120, Note_on_c, 7, 93, 127
10, 126240, Note_off_c, 7, 93, 127
10, 126240, Note_on_c, 7, 93, 127
10, 126360, Note_off_c, 7, 93, 127
10, 126360, Note_on_c, 7, 93, 127
10, 126480, Note_off_c, 7, 93, 127
10, 126480, Note_on_c, 7, 93, 127
10, 126600, Note_off_c, 7, 93, 127
10, 126600, Note_on_c, 7, 93, 127
10, 126719, Note_off_c, 7, 93, 127
10, 128640, Note_on_c, 7, 83, 127
10, 128777, Note_off_c, 7, 83, 127
10, 128777, Note_on_c, 7, 82, 127
10, 128914, Note_off_c, 7, 82, 127
10, 128914, Note_on_c, 7, 79, 127
10, 129051, Note_off_c, 7, 79, 127
10, 129051, Note_on_c, 7, 78, 127
10, 129188, Note_off_c, 7, 78, 127
10, 129188, Note_on_c, 7, 79, 127
10, 129325, Note_off_c, 7, 79, 127
10, 129325, Note_on_c, 7, 82, 127
10, 129462, Note_off_c, 7, 82, 127
10, 129462, Note_on_c, 7, 83, 127
10, 129599, Note_off_c, 7, 83, 127
10, 129600, Note_on_c, 7, 85, 127
10, 129888, Note_off_c, 7, 85, 127
10, 129888, Note_on_c, 7, 88, 127
10, 130176, Note_off_c, 7, 88, 127
10, 130176, Note_on_c, 7, 84, 127
10, 130464, Note_off_c, 7, 84, 127
10, 130464, Note_on_c, 7, 83, 127
10, 130752, Note_off_c, 7, 83, 127
10, 130752, Note_on_c, 7, 79, 127
10, 131040, Note_off_c, 7, 79, 127
10, 131040, Note_on_c, 7, 90, 127
10, 131328, Note_off_c, 7, 90, 127
10, 131328, Note_on_c, 7, 85, 127
10, 131616, Note_off_c, 7, 85, 127
10, 131616, Note_on_c, 7, 84, 127
10, 131904, Note_off_c, 7, 84, 127
10, 131904, Note_on_c, 7, 88, 127
10, 132192, Note_off_c, 7, 88, 127
10, 132192, Note_on_c, 7, 84, 127
10, 132480, Note_off_c, 7, 84, 127
10, 132480, Note_on_c, 7, 83, 127
10, 132720, Note_off_c, 7, 83, 127
10, 132720, Note_on_c, 7, 82, 127
10, 132960, Note_off_c, 7, 82, 127
10, 132960, Note_on_c, 7, 82, 127
10, 133200, Note_off_c, 7, 82, 127
10, 133200, Note_on_c, 7, 90, 127
10, 133440, Note_off_c, 7, 90, 127
10, 133440, Note_on_c, 7, 78, 127
10, 133760, Note_off_c, 7, 78, 127
10, 133760, Note_on_c, 7, 76, 127
10, 134080, Note_off_c, 7, 76, 127
10, 134080, Note_on_c, 7, 82, 127
10, 134400, Note_off_c, 7, 82, 127
10, 134400, Note_on_c, 7, 84, 127
10, 134640, Note_off_c, 7, 84, 127
10, 134640, Note_on_c, 7, 88, 127
10, 134760, Note_off_c, 7, 88, 127
10, 134760, Note_on_c, 7, 85, 127
10, 134880, Note_off_c, 7, 85, 127
10, 134880, Note_on_c, 7, 85, 127
10, 135000, Note_off_c, 7, 85, 127
10, 135000, Note_on_c, 7, 85, 127
10, 135120, Note_off_c, 7, 85, 127
10, 135120, Note_on_c, 7, 85, 127
10, 135240, Note_off_c, 7, 85, 127
10, 135240, Note_on_c, 7, 85, 127
10, 135360, Note_off_c, 7, 85, 127
10, 135360, Note_on_c, 7, 85, 127
10, 135480, Note_off_c, 7, 85, 127
10, 135480, Note_on_c, 7, 85, 127
10, 135600, Note_off_c, 7, 85, 127
10, 135600, Note_on_c, 7, 85, 127
10, 135720, Note_off_c, 7, 85, 127
10, 135720, Note_on_c, 7, 85, 127
10, 135840, Note_off_c, 7, 85, 127
10, 135840, Note_on_c, 7, 85, 127
10, 135960, Note_off_c, 7, 85, 127
10, 135960, Note_on_c, 7, 85, 127
10, 136080, Note_off_c, 7, 85, 127
10, 136080, Note_on_c, 7, 85, 127
10, 136200, Note_off_c, 7, 85, 127
10, 136200, Note_on_c, 7, 85, 127
10, 136320, Note_off_c, 7, 85, 127
10, 136320, Note_on_c, 7, 85, 127
10, 136440, Note_off_c, 7, 85, 127
10, 136440, Note_on_c, 7, 85, 127
10, 136560, Note_off_c, 7, 85, 127
10, 136560, Note_on_c, 7, 85, 127
10, 136680, Note_off_c, 7, 85, 127
10, 136680, Note_on_c, 7, 85, 127
10, 136800, Note_off_c, 7, 85, 127
10, 136800, Note_on_c, 7, 85, 127
10, 136920, Note_off_c, 7, 85, 127
10, 136920, Note_on_c, 7, 85, 127
10, 137040, Note_off_c, 7, 85, 127
10, 137040, Note_on_c, 7, 85, 127
10, 137160, Note_off_c, 7, 85, 127
10, 137160, Note_on_c, 7, 85, 127
10, 137280, Note_off_c, 7, 85, 127
10, 137280, Note_on_c, 7, 85, 127
10, 137400, Note_off_c, 7, 85, 127
10, 137400, Note_on_c, 7, 85, 127
10, 137520, Note_off_c, 7, 85, 127
10, 137520, Note_on_c, 7, 85, 127
10, 137640, Note_off_c, 7, 85, 127
10, 137640, Note_on_c, 7, 85, 127
10, 137760, Note_off_c, 7, 85, 127
10, 137760, Note_on_c, 7, 85, 127
10, 137880, Note_off_c, 7, 85, 127
10, 137880, Note_on_c, 7, 85, 127
10, 138000, Note_off_c, 7, 85, 127
10, 138000, Note_on_c, 7, 85, 127
10, 138120, Note_off_c, 7, 85, 127
10, 138120, Note_on_c, 7, 85, 127
10, 138239, Note_off_c, 7, 85, 127
10, 138960, Note_on_c, 7, 83, 127
10, 139080, Note_off_c, 7, 83, 127
10, 139080, Note_on_c, 7, 85, 102
10, 139200, Note_off_c, 7, 85, 102
10, 139200, Note_on_c, 7, 86, 102
10, 139680, Note_off_c, 7, 86, 102
10, 139920, Note_on_c, 7, 85, 127
10, 140160, Note_off_c, 7, 85, 127
10, 140160, Note_on_c, 7, 86, 102
10, 140280, Note_off_c, 7, 86, 102
10, 140280, Note_on_c, 7, 86, 102
10, 140400, Note_off_c, 7, 86, 102
10, 140400, Note_on_c, 7, 86, 102
10, 140520, Note_off_c, 7, 86, 102
10, 140520, Note_on_c, 7, 86, 102
10, 140640, Note_off_c, 7, 86, 102
10, 140640, Note_on_c, 7, 86, 102
10, 140760, Note_off_c, 7, 86, 102
10, 140760, Note_on_c, 7, 86, 102
10, 140880, Note_off_c, 7, 86, 102
10, 140880, Note_on_c, 7, 86, 102
10, 141000, Note_off_c, 7, 86, 102
10, 141000, Note_on_c, 7, 86, 102
10, 141119, Note_off_c, 7, 86, 102
10, 141840, Note_on_c, 7, 83, 127
10, 141960, Note_off_c, 7, 83, 127
10, 141960, Note_on_c, 7, 85, 102
10, 142080, Note_off_c, 7, 85, 102
10, 142080, Note_on_c, 7, 86, 102
10, 142560, Note_off_c, 7, 86, 102
10, 142800, Note_on_c, 7, 85, 127
10, 143040, Note_off_c, 7, 85, 127
10, 143040, Note_on_c, 7, 86, 102
10, 143160, Note_off_c, 7, 86, 102
10, 143160, Note_on_c, 7, 86, 102
10, 143280, Note_off_c, 7, 86, 102
10, 143280, Note_on_c, 7, 86, 102
10, 143400, Note_off_c, 7, 86, 102
10, 143400, Note_on_c, 7, 86, 102
10, 143520, Note_off_c, 7, 86, 102
10, 143520, Note_on_c, 7, 86, 102
10, 143640, Note_off_c, 7, 86, 102
10, 143640, Note_on_c, 7, 86, 102
10, 143760, Note_off_c, 7, 86, 102
10, 143760, Note_on_c, 7, 86, 102
10, 143880, Note_off_c, 7, 86, 102
10, 143880, Note_on_c, 7, 86, 102
10, 143999, Note_off_c, 7, 86, 102
10, 144720, Note_on_c, 7, 83, 127
10, 144840, Note_off_c, 7, 83, 127
10, 144840, Note_on_c, 7, 85, 102
10, 144960, Note_off_c, 7, 85, 102
10, 144960, Note_on_c, 7, 86, 102
10, 145440, Note_off_c, 7, 86, 102
10, 145680, Note_on_c, 7, 83, 127
10, 145920, Note_off_c, 7, 83, 127
10, 145920, Note_on_c, 7, 85, 102
10, 146040, Note_off_c, 7, 85, 102
10, 146040, Note_on_c, 7, 85, 102
10, 146160, Note_off_c, 7, 85, 102
10, 146160, Note_on_c, 7, 85, 102
10, 146280, Note_off_c, 7, 85, 102
10, 146280, Note_on_c, 7, 85, 102
10, 146400, Note_off_c, 7, 85, 102
10, 146400, Note_on_c, 7, 85, 102
10, 146520, Note_off_c, 7, 85, 102
10, 146520, Note_on_c, 7, 85, 102
10, 146640, Note_off_c, 7, 85, 102
10, 146640, Note_on_c, 7, 85, 102
10, 146760, Note_off_c, 7, 85, 102
10, 146760, Note_on_c, 7, 85, 102
10, 146879, Note_off_c, 7, 85, 102
10, 147120, Note_on_c, 7, 81, 127
10, 147360, Note_off_c, 7, 81, 127
10, 147360, Note_on_c, 7, 78, 127
10, 147600, Note_off_c, 7, 78, 127
10, 147600, Note_on_c, 7, 81, 127
10, 147840, Note_off_c, 7, 81, 127
10, 147840, Note_on_c, 7, 88, 127
10, 147960, Note_off_c, 7, 88, 127
10, 147960, Note_on_c, 7, 88, 127
10, 148080, Note_off_c, 7, 88, 127
10, 148080, Note_on_c, 7, 88, 127
10, 148200, Note_off_c, 7, 88, 127
10, 148200, Note_on_c, 7, 88, 127
10, 148320, Note_off_c, 7, 88, 127
10, 148320, Note_on_c, 7, 88, 127
10, 148440, Note_off_c, 7, 88, 127
10, 148440, Note_on_c, 7, 88, 127
10, 148559, Note_off_c, 7, 88, 127
10, 148560, Note_on_c, 7, 82, 127
10, 148680, Note_off_c, 7, 82, 127
10, 148680, Note_on_c, 7, 88, 127
10, 148800, Note_off_c, 7, 88, 127
10, 148800, Note_on_c, 7, 85, 127
10, 148920, Note_off_c, 7, 85, 127
10, 148920, Note_on_c, 7, 85, 127
10, 149040, Note_off_c, 7, 85, 127
10, 149040, Note_on_c, 7, 85, 127
10, 149160, Note_off_c, 7, 85, 127
10, 149160, Note_on_c, 7, 85, 127
10, 149280, Note_off_c, 7, 85, 127
10, 149280, Note_on_c, 7, 85, 127
10, 149400, Note_off_c, 7, 85, 127
10, 149400, Note_on_c, 7, 85, 127
10, 149520, Note_off_c, 7, 85, 127
10, 149520, Note_on_c, 7, 85, 127
10, 149640, Note_off_c, 7, 85, 127
10, 149640, Note_on_c, 7, 85, 127
10, 149759, Note_off_c, 7, 85, 127
10, 150480, Note_on_c, 7, 83, 127
10, 150600, Note_off_c, 7, 83, 127
10, 150600, Note_on_c, 7, 85, 102
10, 150720, Note_off_c, 7, 85, 102
10, 150720, Note_on_c, 7, 86, 102
10, 151200, Note_off_c, 7, 86, 102
10, 151440, Note_on_c, 7, 85, 127
10, 151680, Note_off_c, 7, 85, 127
10, 151680, Note_on_c, 7, 86, 102
10, 151800, Note_off_c, 7, 86, 102
10, 151800, Note_on_c, 7, 86, 102
10, 151920, Note_off_c, 7, 86, 102
10, 151920, Note_on_c, 7, 86, 102
10, 152040, Note_off_c, 7, 86, 102
10, 152040, Note_on_c, 7, 86, 102
10, 152160, Note_off_c, 7, 86, 102
10, 152160, Note_on_c, 7, 86, 102
10, 152280, Note_off_c, 7, 86, 102
10, 152280, Note_on_c, 7, 86, 102
10, 152400, Note_off_c, 7, 86, 102
10, 152400, Note_on_c, 7, 86, 102
10, 152520, Note_off_c, 7, 86, 102
10, 152520, Note_on_c, 7, 86, 102
10, 152639, Note_off_c, 7, 86, 102
10, 153360, Note_on_c, 7, 83, 127
10, 153480, Note_off_c, 7, 83, 127
10, 153480, Note_on_c, 7, 85, 102
10, 153600, Note_off_c, 7, 85, 102
10, 153600, Note_on_c, 7, 86, 102
10, 154080, Note_off_c, 7, 86, 102
10, 154320, Note_on_c, 7, 85, 127
10, 154560, Note_off_c, 7, 85, 127
10, 154560, Note_on_c, 7, 86, 102
10, 154680, Note_off_c, 7, 86, 102
10, 154680, Note_on_c, 7, 86, 102
10, 154800, Note_off_c, 7, 86, 102
10, 154800, Note_on_c, 7, 86, 102
10, 154920, Note_off_c, 7, 86, 102
10, 154920, Note_on_c, 7, 86, 102
10, 155040, Note_off_c, 7, 86, 102
10, 155040, Note_on_c, 7, 86, 102
10, 155160, Note_off_c, 7, 86, 102
10, 155160, Note_on_c, 7, 86, 102
10, 155280, Note_off_c, 7, 86, 102
10, 155280, Note_on_c, 7, 86, 102
10, 155400, Note_off_c, 7, 86, 102
10, 155400, Note_on_c, 7, 86, 102
10, 155519, Note_off_c, 7, 86, 102
10, 156240, Note_on_c, 7, 83, 127
10, 156360, Note_off_c, 7, 83, 127
10, 156360, Note_on_c, 7, 85, 102
10, 156480, Note_off_c, 7, 85, 102
10, 156480, Note_on_c, 7, 86, 102
10, 156960, Note_off_c, 7, 86, 102
10, 157200, Note_on_c, 7, 83, 127
10, 157440, Note_off_c, 7, 83, 127
10, 157440, Note_on_c, 7, 85, 102
10, 157560, Note_off_c, 7, 85, 102
10, 157560, Note_on_c, 7, 85, 102
10, 157680, Note_off_c, 7, 85, 102
10, 157680, Note_on_c, 7, 85, 102
10, 157800, Note_off_c, 7, 85, 102
10, 157800, Note_on_c, 7, 85, 102
10, 157920, Note_off_c, 7, 85, 102
10, 157920, Note_on_c, 7, 85, 102
10, 158040, Note_off_c, 7, 85, 102
10, 158040, Note_on_c, 7, 85, 102
10, 158160, Note_off_c, 7, 85, 102
10, 158160, Note_on_c, 7, 85, 102
10, 158280, Note_off_c, 7, 85, 102
10, 158280, Note_on_c, 7, 85, 102
10, 158399, Note_off_c, 7, 85, 102
10, 158640, Note_on_c, 7, 81, 127
10, 158880, Note_off_c, 7, 81, 127
10, 158880, Note_on_c, 7, 78, 127
10, 159120, Note_off_c, 7, 78, 127
10, 159120, Note_on_c, 7, 81, 127
10, 159360, Note_off_c, 7, 81, 127
10, 159360, Note_on_c, 7, 88, 127
10, 159480, Note_off_c, 7, 88, 127
10, 159480, Note_on_c, 7, 88, 127
10, 159600, Note_off_c, 7, 88, 127
10, 159600, Note_on_c, 7, 88, 127
10, 159720, Note_off_c, 7, 88, 127
10, 159720, Note_on_c, 7, 88, 127
10, 159840, Note_off_c, 7, 88, 127
10, 159840, Note_on_c, 7, 88, 127
10, 159960, Note_off_c, 7, 88, 127
10, 159960, Note_on_c, 7, 88, 127
10, 160079, Note_off_c, 7, 88, 127
10, 160080, Note_on_c, 7, 82, 127
10, 160200, Note_off_c, 7, 82, 127
10, 160200, Note_on_c, 7, 88, 127
10, 160320, Note_off_c, 7, 88, 127
10, 160320, Note_on_c, 7, 85, 127
10, 160440, Note_off_c, 7, 85, 127
10, 160440, Note_on_c, 7, 85, 127
10, 160560, Note_off_c, 7, 85, 127
10, 160560, Note_on_c, 7, 85, 127
10, 160680, Note_off_c, 7, 85, 127
10, 160680, Note_on_c, 7, 85, 127
10, 160800, Note_off_c, 7, 85, 127
10, 160800, Note_on_c, 7, 85, 127
10, 160920, Note_off_c, 7, 85, 127
10, 160920, Note_on_c, 7, 85, 127
10, 161040, Note_off_c, 7, 85, 127
10, 161040, Note_on_c, 7, 85, 127
10, 161160, Note_off_c, 7, 85, 127
10, 161160, Note_on_c, 7, 85, 127
10, 161279, Note_off_c, 7, 85, 127
10, 162000, Note_on_c, 7, 83, 127
10, 162120, Note_off_c, 7, 83, 127
10, 162120, Note_on_c, 7, 85, 102
10, 162240, Note_off_c, 7, 85, 102
10, 162240, Note_on_c, 7, 86, 102
10, 162720, Note_off_c, 7, 86, 102
10, 162960, Note_on_c, 7, 85, 127
10, 163200, Note_off_c, 7, 85, 127
10, 163200, Note_on_c, 7, 86, 102
10, 163320, Note_off_c, 7, 86, 102
10, 163320, Note_on_c, 7, 86, 102
10, 163440, Note_off_c, 7, 86, 102
10, 163440, Note_on_c, 7, 86, 102
10, 163560, Note_off_c, 7, 86, 102
10, 163560, Note_on_c, 7, 86, 102
10, 163680, Note_off_c, 7, 86, 102
10, 163680, Note_on_c, 7, 86, 102
10, 163800, Note_off_c, 7, 86, 102
10, 163800, Note_on_c, 7, 86, 102
10, 163920, Note_off_c, 7, 86, 102
10, 163920, Note_on_c, 7, 86, 102
10, 164040, Note_off_c, 7, 86, 102
10, 164040, Note_on_c, 7, 86, 102
10, 164159, Note_off_c, 7, 86, 102
10, 164880, Note_on_c, 7, 83, 127
10, 165000, Note_off_c, 7, 83, 127
10, 165000, Note_on_c, 7, 85, 102
10, 165120, Note_off_c, 7, 85, 102
10, 165120, Note_on_c, 7, 86, 102
10, 165600, Note_off_c, 7, 86, 102
10, 165840, Note_on_c, 7, 85, 127
10, 166080, Note_off_c, 7, 85, 127
10, 166080, Note_on_c, 7, 86, 102
10, 166200, Note_off_c, 7, 86, 102
10, 166200, Note_on_c, 7, 86, 102
10, 166320, Note_off_c, 7, 86, 102
10, 166320, Note_on_c, 7, 86, 102
10, 166440, Note_off_c, 7, 86, 102
10, 166440, Note_on_c, 7, 86, 102
10, 166560, Note_off_c, 7, 86, 102
10, 166560, Note_on_c, 7, 86, 102
10, 166680, Note_off_c, 7, 86, 102
10, 166680, Note_on_c, 7, 86, 102
10, 166800, Note_off_c, 7, 86, 102
10, 166800, Note_on_c, 7, 86, 102
10, 166920, Note_off_c, 7, 86, 102
10, 166920, Note_on_c, 7, 86, 102
10, 167039, Note_off_c, 7, 86, 102
10, 167760, Note_on_c, 7, 83, 127
10, 167880, Note_off_c, 7, 83, 127
10, 167880, Note_on_c, 7, 85, 102
10, 168000, Note_off_c, 7, 85, 102
10, 168000, Note_on_c, 7, 86, 102
10, 168480, Note_off_c, 7, 86, 102
10, 168720, Note_on_c, 7, 83, 127
10, 168960, Note_off_c, 7, 83, 127
10, 168960, Note_on_c, 7, 85, 102
10, 169080, Note_off_c, 7, 85, 102
10, 169080, Note_on_c, 7, 85, 102
10, 169200, Note_off_c, 7, 85, 102
10, 169200, Note_on_c, 7, 85, 102
10, 169320, Note_off_c, 7, 85, 102
10, 169320, Note_on_c, 7, 85, 102
10, 169440, Note_off_c, 7, 85, 102
10, 169440, Note_on_c, 7, 85, 102
10, 169560, Note_off_c, 7, 85, 102
10, 169560, Note_on_c, 7, 85, 102
10, 169680, Note_off_c, 7, 85, 102
10, 169680, Note_on_c, 7, 85, 102
10, 169800, Note_off_c, 7, 85, 102
10, 169800, Note_on_c, 7, 85, 102
10, 169919, Note_off_c, 7, 85, 102
10, 170160, Note_on_c, 7, 81, 127
10, 170400, Note_off_c, 7, 81, 127
10, 170400, Note_on_c, 7, 78, 127
10, 170640, Note_off_c, 7, 78, 127
10, 170640, Note_on_c, 7, 81, 127
10, 170880, Note_off_c, 7, 81, 127
10, 170880, Note_on_c, 7, 88, 127
10, 171000, Note_off_c, 7, 88, 127
10, 171000, Note_on_c, 7, 88, 127
10, 171120, Note_off_c, 7, 88, 127
10, 171120, Note_on_c, 7, 88, 127
10, 171240, Note_off_c, 7, 88, 127
10, 171240, Note_on_c, 7, 88, 127
10, 171360, Note_off_c, 7, 88, 127
10, 171360, Note_on_c, 7, 88, 127
10, 171480, Note_off_c, 7, 88, 127
10, 171480, Note_on_c, 7, 88, 127
10, 171599, Note_off_c, 7, 88, 127
10, 171600, Note_on_c, 7, 82, 127
10, 171720, Note_off_c, 7, 82, 127
10, 171720, Note_on_c, 7, 88, 127
10, 171840, Note_off_c, 7, 88, 127
10, 171840, Note_on_c, 7, 85, 127
10, 171960, Note_off_c, 7, 85, 127
10, 171960, Note_on_c, 7, 85, 127
10, 172080, Note_off_c, 7, 85, 127
10, 172080, Note_on_c, 7, 85, 127
10, 172200, Note_off_c, 7, 85, 127
10, 172200, Note_on_c, 7, 85, 127
10, 172320, Note_off_c, 7, 85, 127
10, 172320, Note_on_c, 7, 85, 127
10, 172440, Note_off_c, 7, 85, 127
10, 172440, Note_on_c, 7, 85, 127
10, 172560, Note_off_c, 7, 85, 127
10, 172560, Note_on_c, 7, 85, 127
10, 172680, Note_off_c, 7, 85, 127
10, 172680, Note_on_c, 7, 85, 127
10, 172799, Note_off_c, 7, 85, 127
10, 173520, Note_on_c, 7, 83, 127
10, 173640, Note_off_c, 7, 83, 127
10, 173640, Note_on_c, 7, 85, 102
10, 173760, Note_off_c, 7, 85, 102
10, 173760, Note_on_c, 7, 86, 102
10, 174240, Note_off_c, 7, 86, 102
10, 174480, Note_on_c, 7, 85, 127
10, 174720, Note_off_c, 7, 85, 127
10, 174720, Note_on_c, 7, 86, 102
10, 174840, Note_off_c, 7, 86, 102
10, 174840, Note_on_c, 7, 86, 102
10, 174960, Note_off_c, 7, 86, 102
10, 174960, Note_on_c, 7, 86, 102
10, 175080, Note_off_c, 7, 86, 102
10, 175080, Note_on_c, 7, 86, 102
10, 175200, Note_off_c, 7, 86, 102
10, 175200, Note_on_c, 7, 86, 102
10, 175320, Note_off_c, 7, 86, 102
10, 175320, Note_on_c, 7, 86, 102
10, 175440, Note_off_c, 7, 86, 102
10, 175440, Note_on_c, 7, 86, 102
10, 175560, Note_off_c, 7, 86, 102
10, 175560, Note_on_c, 7, 86, 102
10, 175679, Note_off_c, 7, 86, 102
10, 176400, Note_on_c, 7, 83, 127
10, 176520, Note_off_c, 7, 83, 127
10, 176520, Note_on_c, 7, 85, 102
10, 176640, Note_off_c, 7, 85, 102
10, 176640, Note_on_c, 7, 86, 102
10, 177120, Note_off_c, 7, 86, 102
10, 177360, Note_on_c, 7, 85, 127
10, 177600, Note_off_c, 7, 85, 127
10, 177600, Note_on_c, 7, 86, 102
10, 177720, Note_off_c, 7, 86, 102
10, 177720, Note_on_c, 7, 86, 102
10, 177840, Note_off_c, 7, 86, 102
10, 177840, Note_on_c, 7, 86, 102
10, 177960, Note_off_c, 7, 86, 102
10, 177960, Note_on_c, 7, 86, 102
10, 178080, Note_off_c, 7, 86, 102
10, 178080, Note_on_c, 7, 86, 102
10, 178200, Note_off_c, 7, 86, 102
10, 178200, Note_on_c, 7, 86, 102
10, 178320, Note_off_c, 7, 86, 102
10, 178320, Note_on_c, 7, 86, 102
10, 178440, Note_off_c, 7, 86, 102
10, 178440, Note_on_c, 7, 86, 102
10, 178559, Note_off_c, 7, 86, 102
10, 179280, Note_on_c, 7, 83, 127
10, 179400, Note_off_c, 7, 83, 127
10, 179400, Note_on_c, 7, 85, 102
10, 179520, Note_off_c, 7, 85, 102
10, 179520, Note_on_c, 7, 86, 102
10, 180000, Note_off_c, 7, 86, 102
10, 180240, Note_on_c, 7, 83, 127
10, 180480, Note_off_c, 7, 83, 127
10, 180480, Note_on_c, 7, 85, 102
10, 180600, Note_off_c, 7, 85, 102
10, 180600, Note_on_c, 7, 85, 102
10, 180720, Note_off_c, 7, 85, 102
10, 180720, Note_on_c, 7, 85, 102
10, 180840, Note_off_c, 7, 85, 102
10, 180840, Note_on_c, 7, 85, 102
10, 180960, Note_off_c, 7, 85, 102
10, 180960, Note_on_c, 7, 85, 102
10, 181080, Note_off_c, 7, 85, 102
10, 181080, Note_on_c, 7, 85, 102
10, 181200, Note_off_c, 7, 85, 102
10, 181200, Note_on_c, 7, 85, 102
10, 181320, Note_off_c, 7, 85, 102
10, 181320, Note_on_c, 7, 85, 102
10, 181439, Note_off_c, 7, 85, 102
10, 181680, Note_on_c, 7, 81, 127
10, 181920, Note_off_c, 7, 81, 127
10, 181920, Note_on_c, 7, 78, 127
10, 182160, Note_off_c, 7, 78, 127
10, 182160, Note_on_c, 7, 81, 127
10, 182400, Note_off_c, 7, 81, 127
10, 182400, Note_on_c, 7, 88, 127
10, 182520, Note_off_c, 7, 88, 127
10, 182520, Note_on_c, 7, 88, 127
10, 182640, Note_off_c, 7, 88, 127
10, 182640, Note_on_c, 7, 88, 127
10, 182760, Note_off_c, 7, 88, 127
10, 182760, Note_on_c, 7, 88, 127
10, 182880, Note_off_c, 7, 88, 127
10, 182880, Note_on_c, 7, 88, 127
10, 183000, Note_off_c, 7, 88, 127
10, 183000, Note_on_c, 7, 88, 127
10, 183119, Note_off_c, 7, 88, 127
10, 183120, Note_on_c, 7, 82, 127
10, 183240, Note_off_c, 7, 82, 127
10, 183240, Note_on_c, 7, 88, 127
10, 183360, Note_off_c, 7, 88, 127
10, 183360, Note_on_c, 7, 85, 127
10, 183480, Note_off_c, 7, 85, 127
10, 183480, Note_on_c, 7, 85, 127
10, 183600, Note_off_c, 7, 85, 127
10, 183600, Note_on_c, 7, 85, 127
10, 183720, Note_off_c, 7, 85, 127
10, 183720, Note_on_c, 7, 85, 127
10, 183840, Note_off_c, 7, 85, 127
10, 183840, Note_on_c, 7, 85, 127
10, 183960, Note_off_c, 7, 85, 127
10, 183960, Note_on_c, 7, 85, 127
10, 184080, Note_off_c, 7, 85, 127
10, 184080, Note_on_c, 7, 85, 127
10, 184200, Note_off_c, 7, 85, 127
10, 184200, Note_on_c, 7, 85, 127
10, 184319, Note_off_c, 7, 85, 127
10, 184320, Note_on_c, 7, 80, 127
10, 184320, Note_on_c, 7, 68, 127
10, 188160, Note_off_c, 7, 80, 127
10, 188160, Note_off_c, 7, 68, 127
10, 215040, Note_on_c, 7, 68, 127
10, 215280, Note_off_c, 7, 68, 127
10, 215280, Note_on_c, 7, 74, 127
10, 215520, Note_off_c, 7, 74, 127
10, 215520, Note_on_c, 7, 79, 127
10, 215760, Note_off_c, 7, 79, 127
10, 215760, Note_on_c, 7, 68, 127
10, 216000, Note_off_c, 7, 68, 127
10, 216000, Note_on_c, 7, 84, 127
10, 216240, Note_off_c, 7, 84, 127
10, 216240, Note_on_c, 7, 86, 127
10, 216480, Note_off_c, 7, 86, 127
10, 216480, Note_on_c, 7, 91, 127
10, 216720, Note_off_c, 7, 91, 127
10, 216720, Note_on_c, 7, 80, 127
10, 216960, Note_off_c, 7, 80, 127
10, 216960, Note_on_c, 7, 96, 127
10, 217200, Note_off_c, 7, 96, 127
10, 217200, Note_on_c, 7, 80, 127
10, 217440, Note_off_c, 7, 80, 127
10, 217440, Note_on_c, 7, 91, 127
10, 217680, Note_off_c, 7, 91, 127
10, 217680, Note_on_c, 7, 86, 127
10, 217920, Note_off_c, 7, 86, 127
10, 217920, Note_on_c, 7, 84, 127
10, 218160, Note_off_c, 7, 84, 127
10, 218160, Note_on_c, 7, 68, 127
10, 218400, Note_off_c, 7, 68, 127
10, 218400, Note_on_c, 7, 79, 127
10, 218640, Note_off_c, 7, 79, 127
10, 218640, Note_on_c, 7, 74, 127
10, 218880, Note_off_c, 7, 74, 127
10, 218880, Note_on_c, 7, 68, 127
10, 219120, Note_off_c, 7, 68, 127
10, 219120, Note_on_c, 7, 74, 127
10, 219360, Note_off_c, 7, 74, 127
10, 219360, Note_on_c, 7, 79, 127
10, 219600, Note_off_c, 7, 79, 127
10, 219600, Note_on_c, 7, 68, 127
10, 219840, Note_off_c, 7, 68, 127
10, 219840, Note_on_c, 7, 84, 127
10, 220080, Note_off_c, 7, 84, 127
10, 220080, Note_on_c, 7, 86, 127
10, 220320, Note_off_c, 7, 86, 127
10, 220320, Note_on_c, 7, 91, 127
10, 220560, Note_off_c, 7, 91, 127
10, 220560, Note_on_c, 7, 80, 127
10, 220800, Note_off_c, 7, 80, 127
10, 220800, Note_on_c, 7, 96, 127
10, 221040, Note_off_c, 7, 96, 127
10, 221040, Note_on_c, 7, 80, 127
10, 221280, Note_off_c, 7, 80, 127
10, 221280, Note_on_c, 7, 91, 127
10, 221520, Note_off_c, 7, 91, 127
10, 221520, Note_on_c, 7, 86, 127
10, 221760, Note_off_c, 7, 86, 127
10, 221760, Note_on_c, 7, 84, 127
10, 222000, Note_off_c, 7, 84, 127
10, 222000, Note_on_c, 7, 68, 127
10, 222240, Note_off_c, 7, 68, 127
10, 222240, Note_on_c, 7, 79, 127
10, 222480, Note_off_c, 7, 79, 127
10, 222480, Note_on_c, 7, 74, 127
10, 222720, Note_off_c, 7, 74, 127
10, 222720, Note_on_c, 7, 65, 127
10, 222960, Note_off_c, 7, 65, 127
10, 222960, Note_on_c, 7, 72, 127
10, 223200, Note_off_c, 7, 72, 127
10, 223200, Note_on_c, 7, 74, 127
10, 223440, Note_off_c, 7, 74, 127
10, 223440, Note_on_c, 7, 75, 127
10, 223680, Note_off_c, 7, 75, 127
10, 223680, Note_on_c, 7, 65, 127
10, 223920, Note_off_c, 7, 65, 127
10, 223920, Note_on_c, 7, 84, 127
10, 224160, Note_off_c, 7, 84, 127
10, 224160, Note_on_c, 7, 86, 127
10, 224400, Note_off_c, 7, 86, 127
10, 224400, Note_on_c, 7, 87, 127
10, 224640, Note_off_c, 7, 87, 127
10, 224640, Note_on_c, 7, 77, 127
10, 224880, Note_off_c, 7, 77, 127
10, 224880, Note_on_c, 7, 96, 127
10, 225120, Note_off_c, 7, 96, 127
10, 225120, Note_on_c, 7, 77, 127
10, 225360, Note_off_c, 7, 77, 127
10, 225360, Note_on_c, 7, 87, 127
10, 225600, Note_off_c, 7, 87, 127
10, 225600, Note_on_c, 7, 86, 127
10, 225840, Note_off_c, 7, 86, 127
10, 225840, Note_on_c, 7, 84, 127
10, 226080, Note_off_c, 7, 84, 127
10, 226080, Note_on_c, 7, 65, 127
10, 226320, Note_off_c, 7, 65, 127
10, 226320, Note_on_c, 7, 75, 127
10, 226560, Note_off_c, 7, 75, 127
10, 226560, Note_on_c, 7, 74, 127
10, 226800, Note_off_c, 7, 74, 127
10, 226800, Note_on_c, 7, 72, 127
10, 227040, Note_off_c, 7, 72, 127
10, 227040, Note_on_c, 7, 65, 127
10, 227280, Note_off_c, 7, 65, 127
10, 227280, Note_on_c, 7, 72, 127
10, 227520, Note_off_c, 7, 72, 127
10, 227520, Note_on_c, 7, 74, 127
10, 227760, Note_off_c, 7, 74, 127
10, 227760, Note_on_c, 7, 75, 127
10, 228000, Note_off_c, 7, 75, 127
10, 228000, Note_on_c, 7, 65, 127
10, 228240, Note_off_c, 7, 65, 127
10, 228240, Note_on_c, 7, 84, 127
10, 228480, Note_off_c, 7, 84, 127
10, 228480, Note_on_c, 7, 86, 127
10, 228720, Note_off_c, 7, 86, 127
10, 228720, Note_on_c, 7, 87, 127
10, 228960, Note_off_c, 7, 87, 127
10, 228960, Note_on_c, 7, 77, 127
10, 229200, Note_off_c, 7, 77, 127
10, 229200, Note_on_c, 7, 96, 127
10, 229440, Note_off_c, 7, 96, 127
10, 229440, Note_on_c, 7, 77, 127
10, 229680, Note_off_c, 7, 77, 127
10, 229680, Note_on_c, 7, 87, 127
10, 229920, Note_off_c, 7, 87, 127
10, 229920, Note_on_c, 7, 86, 127
10, 230160, Note_off_c, 7, 86, 127
10, 230160, Note_on_c, 7, 84, 127
10, 230400, Note_off_c, 7, 84, 127
10, 230400, Note_on_c, 7, 68, 127
10, 230640, Note_off_c, 7, 68, 127
10, 230640, Note_on_c, 7, 74, 127
10, 230880, Note_off_c, 7, 74, 127
10, 230880, Note_on_c, 7, 79, 127
10, 231120, Note_off_c, 7, 79, 127
10, 231120, Note_on_c, 7, 68, 127
10, 231360, Note_off_c, 7, 68, 127
10, 231360, Note_on_c, 7, 84, 127
10, 231600, Note_off_c, 7, 84, 127
10, 231600, Note_on_c, 7, 86, 127
10, 231840, Note_off_c, 7, 86, 127
10, 231840, Note_on_c, 7, 91, 127
10, 232080, Note_off_c, 7, 91, 127
10, 232080, Note_on_c, 7, 80, 127
10, 232320, Note_off_c, 7, 80, 127
10, 232320, Note_on_c, 7, 96, 127
10, 232560, Note_off_c, 7, 96, 127
10, 232560, Note_on_c, 7, 80, 127
10, 232800, Note_off_c, 7, 80, 127
10, 232800, Note_on_c, 7, 91, 127
10, 233040, Note_off_c, 7, 91, 127
10, 233040, Note_on_c, 7, 86, 127
10, 233280, Note_off_c, 7, 86, 127
10, 233280, Note_on_c, 7, 84, 127
10, 233520, Note_off_c, 7, 84, 127
10, 233520, Note_on_c, 7, 68, 127
10, 233760, Note_off_c, 7, 68, 127
10, 233760, Note_on_c, 7, 79, 127
10, 234000, Note_off_c, 7, 79, 127
10, 234000, Note_on_c, 7, 74, 127
10, 234240, Note_off_c, 7, 74, 127
10, 234240, Note_on_c, 7, 68, 127
10, 234480, Note_off_c, 7, 68, 127
10, 234480, Note_on_c, 7, 74, 127
10, 234720, Note_off_c, 7, 74, 127
10, 234720, Note_on_c, 7, 79, 127
10, 234960, Note_off_c, 7, 79, 127
10, 234960, Note_on_c, 7, 68, 127
10, 235200, Note_off_c, 7, 68, 127
10, 235200, Note_on_c, 7, 84, 127
10, 235440, Note_off_c, 7, 84, 127
10, 235440, Note_on_c, 7, 86, 127
10, 235680, Note_off_c, 7, 86, 127
10, 235680, Note_on_c, 7, 91, 127
10, 235920, Note_off_c, 7, 91, 127
10, 235920, Note_on_c, 7, 80, 127
10, 236160, Note_off_c, 7, 80, 127
10, 236160, Note_on_c, 7, 96, 127
10, 236400, Note_off_c, 7, 96, 127
10, 236400, Note_on_c, 7, 80, 127
10, 236640, Note_off_c, 7, 80, 127
10, 236640, Note_on_c, 7, 91, 127
10, 236880, Note_off_c, 7, 91, 127
10, 236880, Note_on_c, 7, 86, 127
10, 237120, Note_off_c, 7, 86, 127
10, 237120, Note_on_c, 7, 84, 127
10, 237360, Note_off_c, 7, 84, 127
10, 237360, Note_on_c, 7, 68, 127
10, 237600, Note_off_c, 7, 68, 127
10, 237600, Note_on_c, 7, 79, 127
10, 237840, Note_off_c, 7, 79, 127
10, 237840, Note_on_c, 7, 74, 127
10, 238080, Note_off_c, 7, 74, 127
10, 238080, Note_on_c, 7, 65, 127
10, 238320, Note_off_c, 7, 65, 127
10, 238320, Note_on_c, 7, 72, 127
10, 238560, Note_off_c, 7, 72, 127
10, 238560, Note_on_c, 7, 74, 127
10, 238800, Note_off_c, 7, 74, 127
10, 238800, Note_on_c, 7, 75, 127
10, 239040, Note_off_c, 7, 75, 127
10, 239040, Note_on_c, 7, 65, 127
10, 239280, Note_off_c, 7, 65, 127
10, 239280, Note_on_c, 7, 84, 127
10, 239520, Note_off_c, 7, 84, 127
10, 239520, Note_on_c, 7, 86, 127
10, 239760, Note_off_c, 7, 86, 127
10, 239760, Note_on_c, 7, 87, 127
10, 240000, Note_off_c, 7, 87, 127
10, 240000, Note_on_c, 7, 77, 127
10, 240240, Note_off_c, 7, 77, 127
10, 240240, Note_on_c, 7, 96, 127
10, 240480, Note_off_c, 7, 96, 127
10, 240480, Note_on_c, 7, 77, 127
10, 240720, Note_off_c, 7, 77, 127
10, 240720, Note_on_c, 7, 87, 127
10, 240960, Note_off_c, 7, 87, 127
10, 240960, Note_on_c, 7, 86, 127
10, 241200, Note_off_c, 7, 86, 127
10, 241200, Note_on_c, 7, 84, 127
10, 241440, Note_off_c, 7, 84, 127
10, 241440, Note_on_c, 7, 65, 127
10, 241680, Note_off_c, 7, 65, 127
10, 241680, Note_on_c, 7, 75, 127
10, 241920, Note_off_c, 7, 75, 127
10, 241920, Note_on_c, 7, 74, 127
10, 242160, Note_off_c, 7, 74, 127
10, 242160, Note_on_c, 7, 72, 127
10, 242400, Note_off_c, 7, 72, 127
10, 242400, Note_on_c, 7, 65, 127
10, 242640, Note_off_c, 7, 65, 127
10, 242640, Note_on_c, 7, 72, 127
10, 242880, Note_off_c, 7, 72, 127
10, 242880, Note_on_c, 7, 74, 127
10, 243120, Note_off_c, 7, 74, 127
10, 243120, Note_on_c, 7, 75, 127
10, 243360, Note_off_c, 7, 75, 127
10, 243360, Note_on_c, 7, 65, 127
10, 243600, Note_off_c, 7, 65, 127
10, 243600, Note_on_c, 7, 84, 127
10, 243840, Note_off_c, 7, 84, 127
10, 243840, Note_on_c, 7, 86, 127
10, 244080, Note_off_c, 7, 86, 127
10, 244080, Note_on_c, 7, 87, 127
10, 244320, Note_off_c, 7, 87, 127
10, 244320, Note_on_c, 7, 77, 127
10, 244560, Note_off_c, 7, 77, 127
10, 244560, Note_on_c, 7, 96, 127
10, 244800, Note_off_c, 7, 96, 127
10, 244800, Note_on_c, 7, 77, 127
10, 245040, Note_off_c, 7, 77, 127
10, 245040, Note_on_c, 7, 87, 127
10, 245280, Note_off_c, 7, 87, 127
10, 245280, Note_on_c, 7, 86, 127
10, 245520, Note_off_c, 7, 86, 127
10, 245520, Note_on_c, 7, 84, 127
10, 245760, Note_off_c, 7, 84, 127
10, 245760, Note_on_c, 7, 68, 127
10, 246000, Note_off_c, 7, 68, 127
10, 246000, Note_on_c, 7, 74, 127
10, 246240, Note_off_c, 7, 74, 127
10, 246240, Note_on_c, 7, 79, 127
10, 246480, Note_off_c, 7, 79, 127
10, 246480, Note_on_c, 7, 68, 127
10, 246720, Note_off_c, 7, 68, 127
10, 246720, Note_on_c, 7, 84, 127
10, 246960, Note_off_c, 7, 84, 127
10, 246960, Note_on_c, 7, 86, 127
10, 247200, Note_off_c, 7, 86, 127
10, 247200, Note_on_c, 7, 91, 127
10, 247440, Note_off_c, 7, 91, 127
10, 247440, Note_on_c, 7, 80, 127
10, 247680, Note_off_c, 7, 80, 127
10, 247680, Note_on_c, 7, 96, 127
10, 247920, Note_off_c, 7, 96, 127
10, 247920, Note_on_c, 7, 80, 127
10, 248160, Note_off_c, 7, 80, 127
10, 248160, Note_on_c, 7, 91, 127
10, 248400, Note_off_c, 7, 91, 127
10, 248400, Note_on_c, 7, 86, 127
10, 248640, Note_off_c, 7, 86, 127
10, 248640, Note_on_c, 7, 84, 127
10, 248880, Note_off_c, 7, 84, 127
10, 248880, Note_on_c, 7, 68, 127
10, 249120, Note_off_c, 7, 68, 127
10, 249120, Note_on_c, 7, 79, 127
10, 249360, Note_off_c, 7, 79, 127
10, 249360, Note_on_c, 7, 74, 127
10, 249600, Note_off_c, 7, 74, 127
10, 249600, Note_on_c, 7, 68, 127
10, 249840, Note_off_c, 7, 68, 127
10, 249840, Note_on_c, 7, 74, 127
10, 250080, Note_off_c, 7, 74, 127
10, 250080, Note_on_c, 7, 79, 127
10, 250320, Note_off_c, 7, 79, 127
10, 250320, Note_on_c, 7, 68, 127
10, 250560, Note_off_c, 7, 68, 127
10, 250560, Note_on_c, 7, 84, 127
10, 250800, Note_off_c, 7, 84, 127
10, 250800, Note_on_c, 7, 86, 127
10, 251040, Note_off_c, 7, 86, 127
10, 251040, Note_on_c, 7, 91, 127
10, 251280, Note_off_c, 7, 91, 127
10, 251280, Note_on_c, 7, 80, 127
10, 251520, Note_off_c, 7, 80, 127
10, 251520, Note_on_c, 7, 96, 127
10, 251760, Note_off_c, 7, 96, 127
10, 251760, Note_on_c, 7, 80, 127
10, 252000, Note_off_c, 7, 80, 127
10, 252000, Note_on_c, 7, 91, 127
10, 252240, Note_off_c, 7, 91, 127
10, 252240, Note_on_c, 7, 86, 127
10, 252480, Note_off_c, 7, 86, 127
10, 252480, Note_on_c, 7, 84, 127
10, 252720, Note_off_c, 7, 84, 127
10, 252720, Note_on_c, 7, 68, 127
10, 252960, Note_off_c, 7, 68, 127
10, 252960, Note_on_c, 7, 79, 127
10, 253200, Note_off_c, 7, 79, 127
10, 253200, Note_on_c, 7, 74, 127
10, 253440, Note_off_c, 7, 74, 127
10, 253440, Note_on_c, 7, 65, 127
10, 253680, Note_off_c, 7, 65, 127
10, 253680, Note_on_c, 7, 72, 127
10, 253920, Note_off_c, 7, 72, 127
10, 253920, Note_on_c, 7, 74, 127
10, 254160, Note_off_c, 7, 74, 127
10, 254160, Note_on_c, 7, 75, 127
10, 254400, Note_off_c, 7, 75, 127
10, 254400, Note_on_c, 7, 65, 127
10, 254640, Note_off_c, 7, 65, 127
10, 254640, Note_on_c, 7, 84, 127
10, 254880, Note_off_c, 7, 84, 127
10, 254880, Note_on_c, 7, 86, 127
10, 255120, Note_off_c, 7, 86, 127
10, 255120, Note_on_c, 7, 87, 127
10, 255360, Note_off_c, 7, 87, 127
10, 255360, Note_on_c, 7, 77, 127
10, 255600, Note_off_c, 7, 77, 127
10, 255600, Note_on_c, 7, 96, 127
10, 255840, Note_off_c, 7, 96, 127
10, 255840, Note_on_c, 7, 77, 127
10, 256080, Note_off_c, 7, 77, 127
10, 256080, Note_on_c, 7, 87, 127
10, 256320, Note_off_c, 7, 87, 127
10, 256320, Note_on_c, 7, 86, 127
10, 256560, Note_off_c, 7, 86, 127
10, 256560, Note_on_c, 7, 84, 127
10, 256800, Note_off_c, 7, 84, 127
10, 256800, Note_on_c, 7, 65, 127
10, 257040, Note_off_c, 7, 65, 127
10, 257040, Note_on_c, 7, 75, 127
10, 257280, Note_off_c, 7, 75, 127
10, 257280, Note_on_c, 7, 74, 127
10, 257520, Note_off_c, 7, 74, 127
10, 257520, Note_on_c, 7, 72, 127
10, 257760, Note_off_c, 7, 72, 127
10, 257760, Note_on_c, 7, 65, 127
10, 258000, Note_off_c, 7, 65, 127
10, 258000, Note_on_c, 7, 72, 127
10, 258240, Note_off_c, 7, 72, 127
10, 258240, Note_on_c, 7, 74, 127
10, 258480, Note_off_c, 7, 74, 127
10, 258480, Note_on_c, 7, 75, 127
10, 258720, Note_off_c, 7, 75, 127
10, 258720, Note_on_c, 7, 65, 127
10, 258960, Note_off_c, 7, 65, 127
10, 258960, Note_on_c, 7, 84, 127
10, 259200, Note_off_c, 7, 84, 127
10, 259200, Note_on_c, 7, 86, 127
10, 259440, Note_off_c, 7, 86, 127
10, 259440, Note_on_c, 7, 87, 127
10, 259680, Note_off_c, 7, 87, 127
10, 259680, Note_on_c, 7, 77, 127
10, 259920, Note_off_c, 7, 77, 127
10, 259920, Note_on_c, 7, 96, 127
10, 260160, Note_off_c, 7, 96, 127
10, 260160, Note_on_c, 7, 77, 127
10, 260400, Note_off_c, 7, 77, 127
10, 260400, Note_on_c, 7, 87, 127
10, 260640, Note_off_c, 7, 87, 127
10, 260640, Note_on_c, 7, 86, 127
10, 260880, Note_off_c, 7, 86, 127
10, 260880, Note_on_c, 7, 84, 127
10, 261120, Note_off_c, 7, 84, 127
10, 261120, Note_on_c, 7, 68, 127
10, 261360, Note_off_c, 7, 68, 127
10, 261360, Note_on_c, 7, 74, 127
10, 261600, Note_off_c, 7, 74, 127
10, 261600, Note_on_c, 7, 79, 127
10, 261840, Note_off_c, 7, 79, 127
10, 261840, Note_on_c, 7, 68, 127
10, 262080, Note_off_c, 7, 68, 127
10, 262080, Note_on_c, 7, 84, 127
10, 262320, Note_off_c, 7, 84, 127
10, 262320, Note_on_c, 7, 86, 127
10, 262560, Note_off_c, 7, 86, 127
10, 262560, Note_on_c, 7, 91, 127
10, 262800, Note_off_c, 7, 91, 127
10, 262800, Note_on_c, 7, 80, 127
10, 263040, Note_off_c, 7, 80, 127
10, 263040, Note_on_c, 7, 96, 127
10, 263280, Note_off_c, 7, 96, 127
10, 263280, Note_on_c, 7, 80, 127
10, 263520, Note_off_c, 7, 80, 127
10, 263520, Note_on_c, 7, 91, 127
10, 263760, Note_off_c, 7, 91, 127
10, 263760, Note_on_c, 7, 86, 127
10, 264000, Note_off_c, 7, 86, 127
10, 264000, Note_on_c, 7, 84, 127
10, 264240, Note_off_c, 7, 84, 127
10, 264240, Note_on_c, 7, 68, 127
10, 264480, Note_off_c, 7, 68, 127
10, 264480, Note_on_c, 7, 79, 127
10, 264720, Note_off_c, 7, 79, 127
10, 264720, Note_on_c, 7, 74, 127
10, 264960, Note_off_c, 7, 74, 127
10, 264960, Note_on_c, 7, 68, 127
10, 265200, Note_off_c, 7, 68, 127
10, 265200, Note_on_c, 7, 74, 127
10, 265440, Note_off_c, 7, 74, 127
10, 265440, Note_on_c, 7, 79, 127
10, 265680, Note_off_c, 7, 79, 127
10, 265680, Note_on_c, 7, 68, 127
10, 265920, Note_off_c, 7, 68, 127
10, 265920, Note_on_c, 7, 84, 127
10, 266160, Note_off_c, 7, 84, 127
10, 266160, Note_on_c, 7, 86, 127
10, 266400, Note_off_c, 7, 86, 127
10, 266400, Note_on_c, 7, 91, 127
10, 266640, Note_off_c, 7, 91, 127
10, 266640, Note_on_c, 7, 80, 127
10, 266880, Note_off_c, 7, 80, 127
10, 266880, Note_on_c, 7, 96, 127
10, 267120, Note_off_c, 7, 96, 127
10, 267120, Note_on_c, 7, 80, 127
10, 267360, Note_off_c, 7, 80, 127
10, 267360, Note_on_c, 7, 91, 127
10, 267600, Note_off_c, 7, 91, 127
10, 267600, Note_on_c, 7, 86, 127
10, 267840, Note_off_c, 7, 86, 127
10, 267840, Note_on_c, 7, 84, 127
10, 268080, Note_off_c, 7, 84, 127
10, 268080, Note_on_c, 7, 68, 127
10, 268320, Note_off_c, 7, 68, 127
10, 268320, Note_on_c, 7, 79, 127
10, 268560, Note_off_c, 7, 79, 127
10, 268560, Note_on_c, 7, 74, 127
10, 268800, Note_off_c, 7, 74, 127
10, 268800, Note_on_c, 7, 65, 127
10, 269040, Note_off_c, 7, 65, 127
10, 269040, Note_on_c, 7, 72, 127
10, 269280, Note_off_c, 7, 72, 127
10, 269280, Note_on_c, 7, 74, 127
10, 269520, Note_off_c, 7, 74, 127
10, 269520, Note_on_c, 7, 75, 127
10, 269760, Note_off_c, 7, 75, 127
10, 269760, Note_on_c, 7, 65, 127
10, 270000, Note_off_c, 7, 65, 127
10, 270000, Note_on_c, 7, 84, 127
10, 270240, Note_off_c, 7, 84, 127
10, 270240, Note_on_c, 7, 86, 127
10, 270480, Note_off_c, 7, 86, 127
10, 270480, Note_on_c, 7, 87, 127
10, 270720, Note_off_c, 7, 87, 127
10, 270720, Note_on_c, 7, 77, 127
10, 270960, Note_off_c, 7, 77, 127
10, 270960, Note_on_c, 7, 96, 127
10, 271200, Note_off_c, 7, 96, 127
10, 271200, Note_on_c, 7, 77, 127
10, 271440, Note_off_c, 7, 77, 127
10, 271440, Note_on_c, 7, 87, 127
10, 271680, Note_off_c, 7, 87, 127
10, 271680, Note_on_c, 7, 86, 127
10, 271920, Note_off_c, 7, 86, 127
10, 271920, Note_on_c, 7, 84, 127
10, 272160, Note_off_c, 7, 84, 127
10, 272160, Note_on_c, 7, 65, 127
10, 272400, Note_off_c, 7, 65, 127
10, 272400, Note_on_c, 7, 75, 127
10, 272640, Note_off_c, 7, 75, 127
10, 272640, Note_on_c, 7, 74, 127
10, 272880, Note_off_c, 7, 74, 127
10, 272880, Note_on_c, 7, 72, 127
10, 273120, Note_off_c, 7, 72, 127
10, 273120, Note_on_c, 7, 65, 127
10, 273360, Note_off_c, 7, 65, 127
10, 273360, Note_on_c, 7, 72, 127
10, 273600, Note_off_c, 7, 72, 127
10, 273600, Note_on_c, 7, 74, 127
10, 273840, Note_off_c, 7, 74, 127
10, 273840, Note_on_c, 7, 75, 127
10, 274080, Note_off_c, 7, 75, 127
10, 274080, Note_on_c, 7, 65, 127
10, 274320, Note_off_c, 7, 65, 127
10, 274320, Note_on_c, 7, 84, 127
10, 274560, Note_off_c, 7, 84, 127
10, 274560, Note_on_c, 7, 86, 127
10, 274800, Note_off_c, 7, 86, 127
10, 274800, Note_on_c, 7, 87, 127
10, 275040, Note_off_c, 7, 87, 127
10, 275040, Note_on_c, 7, 77, 127
10, 275280, Note_off_c, 7, 77, 127
10, 275280, Note_on_c, 7, 96, 127
10, 275520, Note_off_c, 7, 96, 127
10, 275520, Note_on_c, 7, 77, 127
10, 275760, Note_off_c, 7, 77, 127
10, 275760, Note_on_c, 7, 87, 127
10, 276000, Note_off_c, 7, 87, 127
10, 276000, Note_on_c, 7, 86, 127
10, 276240, Note_off_c, 7, 86, 127
10, 276240, Note_on_c, 7, 84, 127
10, 276480, Note_off_c, 7, 84, 127
10, 276480, Note_on_c, 7, 79, 127
10, 276480, Note_on_c, 7, 74, 127
10, 276480, Note_on_c, 7, 67, 127
10, 276720, Note_off_c, 7, 79, 127
10, 276720, Note_off_c, 7, 74, 127
10, 276720, Note_off_c, 7, 67, 127
10, 276720, Note_on_c, 7, 80, 127
10, 276720, Note_on_c, 7, 75, 127
10, 276720, Note_on_c, 7, 68, 127
10, 276960, Note_off_c, 7, 80, 127
10, 276960, Note_off_c, 7, 75, 127
10, 276960, Note_off_c, 7, 68, 127
10, 280320, Note_on_c, 7, 80, 127
10, 280320, Note_on_c, 7, 75, 127
10, 280320, Note_on_c, 7, 68, 127
10, 280560, Note_off_c, 7, 80, 127
10, 280560, Note_off_c, 7, 75, 127
10, 280560, Note_off_c, 7, 68, 127
10, 280560, Note_on_c, 7, 79, 127
10, 280560, Note_on_c, 7, 74, 127
10, 280560, Note_on_c, 7, 67, 127
10, 280800, Note_off_c, 7, 79, 127
10, 280800, Note_off_c, 7, 74, 127
10, 280800, Note_off_c, 7, 67, 127
10, 282240, Note_on_c, 7, 79, 127
10, 282240, Note_on_c, 7, 74, 127
10, 282240, Note_on_c, 7, 67, 127
10, 282480, Note_off_c, 7, 79, 127
10, 282480, Note_off_c, 7, 74, 127
10, 282480, Note_off_c, 7, 67, 127
10, 283200, Note_on_c, 7, 80, 127
10, 283200, Note_on_c, 7, 75, 127
10, 283200, Note_on_c, 7, 68, 127
10, 283440, Note_off_c, 7, 80, 127
10, 283440, Note_off_c, 7, 75, 127
10, 283440, Note_off_c, 7, 68, 127
10, 284160, Note_on_c, 7, 74, 127
10, 284160, Note_on_c, 7, 69, 127
10, 284280, Note_off_c, 7, 74, 127
10, 284280, Note_on_c, 7, 74, 127
10, 284280, Note_off_c, 7, 69, 127
10, 284280, Note_on_c, 7, 69, 127
10, 284400, Note_off_c, 7, 74, 127
10, 284400, Note_on_c, 7, 74, 127
10, 284400, Note_off_c, 7, 69, 127
10, 284400, Note_on_c, 7, 69, 127
10, 284520, Note_off_c, 7, 74, 127
10, 284520, Note_on_c, 7, 74, 127
10, 284520, Note_off_c, 7, 69, 127
10, 284520, Note_on_c, 7, 69, 127
10, 284640, Note_off_c, 7, 74, 127
10, 284640, Note_on_c, 7, 74, 127
10, 284640, Note_off_c, 7, 69, 127
10, 284640, Note_on_c, 7, 69, 127
10, 284760, Note_off_c, 7, 74, 127
10, 284760, Note_on_c, 7, 74, 127
10, 284760, Note_off_c, 7, 69, 127
10, 284760, Note_on_c, 7, 69, 127
10, 284880, Note_off_c, 7, 74, 127
10, 284880, Note_on_c, 7, 74, 127
10, 284880, Note_off_c, 7, 69, 127
10, 284880, Note_on_c, 7, 69, 127
10, 285000, Note_off_c, 7, 74, 127
10, 285000, Note_on_c, 7, 74, 127
10, 285000, Note_off_c, 7, 69, 127
10, 285000, Note_on_c, 7, 69, 127
10, 285120, Note_off_c, 7, 74, 127
10, 285120, Note_on_c, 7, 74, 127
10, 285120, Note_off_c, 7, 69, 127
10, 285120, Note_on_c, 7, 69, 127
10, 285240, Note_off_c, 7, 74, 127
10, 285240, Note_on_c, 7, 74, 127
10, 285240, Note_off_c, 7, 69, 127
10, 285240, Note_on_c, 7, 69, 127
10, 285360, Note_off_c, 7, 74, 127
10, 285360, Note_on_c, 7, 74, 127
10, 285360, Note_off_c, 7, 69, 127
10, 285360, Note_on_c, 7, 69, 127
10, 285480, Note_off_c, 7, 74, 127
10, 285480, Note_on_c, 7, 74, 127
10, 285480, Note_off_c, 7, 69, 127
10, 285480, Note_on_c, 7, 69, 127
10, 285600, Note_off_c, 7, 74, 127
10, 285600, Note_on_c, 7, 74, 127
10, 285600, Note_off_c, 7, 69, 127
10, 285600, Note_on_c, 7, 69, 127
10, 285720, Note_off_c, 7, 74, 127
10, 285720, Note_on_c, 7, 74, 127
10, 285720, Note_off_c, 7, 69, 127
10, 285720, Note_on_c, 7, 69, 127
10, 285840, Note_off_c, 7, 74, 127
10, 285840, Note_on_c, 7, 74, 127
10, 285840, Note_off_c, 7, 69, 127
10, 285840, Note_on_c, 7, 69, 127
10, 285960, Note_off_c, 7, 74, 127
10, 285960, Note_on_c, 7, 74, 127
10, 285960, Note_off_c, 7, 69, 127
10, 285960, Note_on_c, 7, 69, 127
10, 286080, Note_off_c, 7, 74, 127
10, 286080, Note_on_c, 7, 74, 127
10, 286080, Note_off_c, 7, 69, 127
10, 286080, Note_on_c, 7, 69, 127
10, 286200, Note_off_c, 7, 74, 127
10, 286200, Note_on_c, 7, 74, 127
10, 286200, Note_off_c, 7, 69, 127
10, 286200, Note_on_c, 7, 69, 127
10, 286320, Note_off_c, 7, 74, 127
10, 286320, Note_on_c, 7, 74, 127
10, 286320, Note_off_c, 7, 69, 127
10, 286320, Note_on_c, 7, 69, 127
10, 286440, Note_off_c, 7, 74, 127
10, 286440, Note_on_c, 7, 74, 127
10, 286440, Note_off_c, 7, 69, 127
10, 286440, Note_on_c, 7, 69, 127
10, 286560, Note_off_c, 7, 74, 127
10, 286560, Note_on_c, 7, 74, 127
10, 286560, Note_off_c, 7, 69, 127
10, 286560, Note_on_c, 7, 69, 127
10, 286680, Note_off_c, 7, 74, 127
10, 286680, Note_on_c, 7, 74, 127
10, 286680, Note_off_c, 7, 69, 127
10, 286680, Note_on_c, 7, 69, 127
10, 286800, Note_off_c, 7, 74, 127
10, 286800, Note_on_c, 7, 74, 127
10, 286800, Note_off_c, 7, 69, 127
10, 286800, Note_on_c, 7, 69, 127
10, 286920, Note_off_c, 7, 74, 127
10, 286920, Note_on_c, 7, 74, 127
10, 286920, Note_off_c, 7, 69, 127
10, 286920, Note_on_c, 7, 69, 127
10, 287040, Note_off_c, 7, 74, 127
10, 287040, Note_on_c, 7, 74, 127
10, 287040, Note_off_c, 7, 69, 127
10, 287040, Note_on_c, 7, 69, 127
10, 287160, Note_off_c, 7, 74, 127
10, 287160, Note_on_c, 7, 74, 127
10, 287160, Note_off_c, 7, 69, 127
10, 287160, Note_on_c, 7, 69, 127
10, 287280, Note_off_c, 7, 74, 127
10, 287280, Note_on_c, 7, 74, 127
10, 287280, Note_off_c, 7, 69, 127
10, 287280, Note_on_c, 7, 69, 127
10, 287400, Note_off_c, 7, 74, 127
10, 287400, Note_on_c, 7, 74, 127
10, 287400, Note_off_c, 7, 69, 127
10, 287400, Note_on_c, 7, 69, 127
10, 287520, Note_off_c, 7, 74, 127
10, 287520, Note_on_c, 7, 74, 127
10, 287520, Note_off_c, 7, 69, 127
10, 287520, Note_on_c, 7, 69, 127
10, 287640, Note_off_c, 7, 74, 127
10, 287640, Note_on_c, 7, 74, 127
10, 287640, Note_off_c, 7, 69, 127
10, 287640, Note_on_c, 7, 69, 127
10, 287760, Note_off_c, 7, 74, 127
10, 287760, Note_on_c, 7, 74, 127
10, 287760, Note_off_c, 7, 69, 127
10, 287760, Note_on_c, 7, 69, 127
10, 287880, Note_off_c, 7, 74, 127
10, 287880, Note_on_c, 7, 74, 127
10, 287880, Note_off_c, 7, 69, 127
10, 287880, Note_on_c, 7, 69, 127
10, 287999, Note_off_c, 7, 74, 127
10, 287999, Note_off_c, 7, 69, 127
10, 288000, Note_on_c, 7, 74, 127
10, 288000, Note_on_c, 7, 69, 127
10, 288240, Note_off_c, 7, 74, 127
10, 288240, Note_off_c, 7, 69, 127
10, 288240, Note_on_c, 7, 75, 127
10, 288240, Note_on_c, 7, 70, 127
10, 288480, Note_off_c, 7, 75, 127
10, 288480, Note_off_c, 7, 70, 127
10, 289920, Note_on_c, 7, 75, 127
10, 289920, Note_on_c, 7, 70, 127
10, 290160, Note_off_c, 7, 75, 127
10, 290160, Note_off_c, 7, 70, 127
10, 290160, Note_on_c, 7, 74, 127
10, 290160, Note_on_c, 7, 69, 127
10, 290400, Note_off_c, 7, 74, 127
10, 290400, Note_off_c, 7, 69, 127
10, 290880, Note_on_c, 7, 74, 127
10, 290880, Note_on_c, 7, 69, 127
10, 291120, Note_off_c, 7, 74, 127
10, 291120, Note_off_c, 7, 69, 127
10, 291120, Note_on_c, 7, 75, 127
10, 291120, Note_on_c, 7, 70, 127
10, 291360, Note_off_c, 7, 75, 127
10, 291360, Note_off_c, 7, 70, 127
10, 291840, Note_on_c, 7, 79, 127
10, 291840, Note_on_c, 7, 74, 127
10, 291840, Note_on_c, 7, 67, 127
10, 292080, Note_off_c, 7, 79, 127
10, 292080, Note_off_c, 7, 74, 127
10, 292080, Note_off_c, 7, 67, 127
10, 292080, Note_on_c, 7, 80, 127
10, 292080, Note_on_c, 7, 75, 127
10, 292080, Note_on_c, 7, 68, 127
10, 292320, Note_off_c, 7, 80, 127
10, 292320, Note_off_c, 7, 75, 127
10, 292320, Note_off_c, 7, 68, 127
10, 295680, Note_on_c, 7, 80, 127
10, 295680, Note_on_c, 7, 75, 127
10, 295680, Note_on_c, 7, 68, 127
10, 295920, Note_off_c, 7, 80, 127
10, 295920, Note_off_c, 7, 75, 127
10, 295920, Note_off_c, 7, 68, 127
10, 295920, Note_on_c, 7, 79, 127
10, 295920, Note_on_c, 7, 74, 127
10, 295920, Note_on_c, 7, 67, 127
10, 296160, Note_off_c, 7, 79, 127
10, 296160, Note_off_c, 7, 74, 127
10, 296160, Note_off_c, 7, 67, 127
10, 297600, Note_on_c, 7, 79, 127
10, 297600, Note_on_c, 7, 74, 127
10, 297600, Note_on_c, 7, 67, 127
10, 297840, Note_off_c, 7, 79, 127
10, 297840, Note_off_c, 7, 74, 127
10, 297840, Note_off_c, 7, 67, 127
10, 298560, Note_on_c, 7, 80, 127
10, 298560, Note_on_c, 7, 75, 127
10, 298560, Note_on_c, 7, 68, 127
10, 298800, Note_off_c, 7, 80, 127
10, 298800, Note_off_c, 7, 75, 127
10, 298800, Note_off_c, 7, 68, 127
10, 299520, Note_on_c, 7, 74, 127
10, 299520, Note_on_c, 7, 69, 127
10, 299640, Note_off_c, 7, 74, 127
10, 299640, Note_on_c, 7, 74, 127
10, 299640, Note_off_c, 7, 69, 127
10, 299640, Note_on_c, 7, 69, 127
10, 299760, Note_off_c, 7, 74, 127
10, 299760, Note_on_c, 7, 74, 127
10, 299760, Note_off_c, 7, 69, 127
10, 299760, Note_on_c, 7, 69, 127
10, 299880, Note_off_c, 7, 74, 127
10, 299880, Note_on_c, 7, 74, 127
10, 299880, Note_off_c, 7, 69, 127
10, 299880, Note_on_c, 7, 69, 127
10, 300000, Note_off_c, 7, 74, 127
10, 300000, Note_on_c, 7, 74, 127
10, 300000, Note_off_c, 7, 69, 127
10, 300000, Note_on_c, 7, 69, 127
10, 300120, Note_off_c, 7, 74, 127
10, 300120, Note_on_c, 7, 74, 127
10, 300120, Note_off_c, 7, 69, 127
10, 300120, Note_on_c, 7, 69, 127
10, 300240, Note_off_c, 7, 74, 127
10, 300240, Note_on_c, 7, 74, 127
10, 300240, Note_off_c, 7, 69, 127
10, 300240, Note_on_c, 7, 69, 127
10, 300360, Note_off_c, 7, 74, 127
10, 300360, Note_on_c, 7, 74, 127
10, 300360, Note_off_c, 7, 69, 127
10, 300360, Note_on_c, 7, 69, 127
10, 300480, Note_off_c, 7, 74, 127
10, 300480, Note_on_c, 7, 74, 127
10, 300480, Note_off_c, 7, 69, 127
10, 300480, Note_on_c, 7, 69, 127
10, 300600, Note_off_c, 7, 74, 127
10, 300600, Note_on_c, 7, 74, 127
10, 300600, Note_off_c, 7, 69, 127
10, 300600, Note_on_c, 7, 69, 127
10, 300720, Note_off_c, 7, 74, 127
10, 300720, Note_on_c, 7, 74, 127
10, 300720, Note_off_c, 7, 69, 127
10, 300720, Note_on_c, 7, 69, 127
10, 300840, Note_off_c, 7, 74, 127
10, 300840, Note_on_c, 7, 74, 127
10, 300840, Note_off_c, 7, 69, 127
10, 300840, Note_on_c, 7, 69, 127
10, 300960, Note_off_c, 7, 74, 127
10, 300960, Note_on_c, 7, 74, 127
10, 300960, Note_off_c, 7, 69, 127
10, 300960, Note_on_c, 7, 69, 127
10, 301080, Note_off_c, 7, 74, 127
10, 301080, Note_on_c, 7, 74, 127
10, 301080, Note_off_c, 7, 69, 127
10, 301080, Note_on_c, 7, 69, 127
10, 301200, Note_off_c, 7, 74, 127
10, 301200, Note_on_c, 7, 74, 127
10, 301200, Note_off_c, 7, 69, 127
10, 301200, Note_on_c, 7, 69, 127
10, 301320, Note_off_c, 7, 74, 127
10, 301320, Note_on_c, 7, 74, 127
10, 301320, Note_off_c, 7, 69, 127
10, 301320, Note_on_c, 7, 69, 127
10, 301440, Note_off_c, 7, 74, 127
10, 301440, Note_on_c, 7, 74, 127
10, 301440, Note_off_c, 7, 69, 127
10, 301440, Note_on_c, 7, 69, 127
10, 301560, Note_off_c, 7, 74, 127
10, 301560, Note_on_c, 7, 74, 127
10, 301560, Note_off_c, 7, 69, 127
10, 301560, Note_on_c, 7, 69, 127
10, 301680, Note_off_c, 7, 74, 127
10, 301680, Note_on_c, 7, 74, 127
10, 301680, Note_off_c, 7, 69, 127
10, 301680, Note_on_c, 7, 69, 127
10, 301800, Note_off_c, 7, 74, 127
10, 301800, Note_on_c, 7, 74, 127
10, 301800, Note_off_c, 7, 69, 127
10, 301800, Note_on_c, 7, 69, 127
10, 301920, Note_off_c, 7, 74, 127
10, 301920, Note_on_c, 7, 74, 127
10, 301920, Note_off_c, 7, 69, 127
10, 301920, Note_on_c, 7, 69, 127
10, 302040, Note_off_c, 7, 74, 127
10, 302040, Note_on_c, 7, 74, 127
10, 302040, Note_off_c, 7, 69, 127
10, 302040, Note_on_c, 7, 69, 127
10, 302160, Note_off_c, 7, 74, 127
10, 302160, Note_on_c, 7, 74, 127
10, 302160, Note_off_c, 7, 69, 127
10, 302160, Note_on_c, 7, 69, 127
10, 302280, Note_off_c, 7, 74, 127
10, 302280, Note_on_c, 7, 74, 127
10, 302280, Note_off_c, 7, 69, 127
10, 302280, Note_on_c, 7, 69, 127
10, 302400, Note_off_c, 7, 74, 127
10, 302400, Note_on_c, 7, 74, 127
10, 302400, Note_off_c, 7, 69, 127
10, 302400, Note_on_c, 7, 69, 127
10, 302520, Note_off_c, 7, 74, 127
10, 302520, Note_on_c, 7, 74, 127
10, 302520, Note_off_c, 7, 69, 127
10, 302520, Note_on_c, 7, 69, 127
10, 302640, Note_off_c, 7, 74, 127
10, 302640, Note_on_c, 7, 74, 127
10, 302640, Note_off_c, 7, 69, 127
10, 302640, Note_on_c, 7, 69, 127
10, 302760, Note_off_c, 7, 74, 127
10, 302760, Note_on_c, 7, 74, 127
10, 302760, Note_off_c, 7, 69, 127
10, 302760, Note_on_c, 7, 69, 127
10, 302880, Note_off_c, 7, 74, 127
10, 302880, Note_on_c, 7, 74, 127
10, 302880, Note_off_c, 7, 69, 127
10, 302880, Note_on_c, 7, 69, 127
10, 303000, Note_off_c, 7, 74, 127
10, 303000, Note_on_c, 7, 74, 127
10, 303000, Note_off_c, 7, 69, 127
10, 303000, Note_on_c, 7, 69, 127
10, 303120, Note_off_c, 7, 74, 127
10, 303120, Note_on_c, 7, 74, 127
10, 303120, Note_off_c, 7, 69, 127
10, 303120, Note_on_c, 7, 69, 127
10, 303240, Note_off_c, 7, 74, 127
10, 303240, Note_on_c, 7, 74, 127
10, 303240, Note_off_c, 7, 69, 127
10, 303240, Note_on_c, 7, 69, 127
10, 303359, Note_off_c, 7, 74, 127
10, 303359, Note_off_c, 7, 69, 127
10, 303360, Note_on_c, 7, 74, 127
10, 303360, Note_on_c, 7, 69, 127
10, 303600, Note_off_c, 7, 74, 127
10, 303600, Note_off_c, 7, 69, 127
10, 303600, Note_on_c, 7, 75, 127
10, 303600, Note_on_c, 7, 70, 127
10, 303840, Note_off_c, 7, 75, 127
10, 303840, Note_off_c, 7, 70, 127
10, 305280, Note_on_c, 7, 75, 127
10, 305280, Note_on_c, 7, 70, 127
10, 305520, Note_off_c, 7, 75, 127
10, 305520, Note_off_c, 7, 70, 127
10, 305520, Note_on_c, 7, 74, 127
10, 305520, Note_on_c, 7, 69, 127
10, 305760, Note_off_c, 7, 74, 127
10, 305760, Note_off_c, 7, 69, 127
10, 306240, Note_on_c, 7, 74, 127
10, 306240, Note_on_c, 7, 69, 127
10, 306480, Note_off_c, 7, 74, 127
10, 306480, Note_off_c, 7, 69, 127
10, 306480, Note_on_c, 7, 75, 127
10, 306480, Note_on_c, 7, 70, 127
10, 306720, Note_off_c, 7, 75, 127
10, 306720, Note_off_c, 7, 70, 127
10, 307200, Note_on_c, 7, 79, 127
10, 307200, Note_on_c, 7, 74, 127
10, 307200, Note_on_c, 7, 67, 127
10, 307440, Note_off_c, 7, 79, 127
10, 307440, Note_off_c, 7, 74, 127
10, 307440, Note_off_c, 7, 67, 127
10, 307440, Note_on_c, 7, 80, 127
10, 307440, Note_on_c, 7, 75, 127
10, 307440, Note_on_c, 7, 68, 127
10, 307680, Note_off_c, 7, 80, 127
10, 307680, Note_off_c, 7, 75, 127
10, 307680, Note_off_c, 7, 68, 127
10, 311040, Note_on_c, 7, 80, 127
10, 311040, Note_on_c, 7, 75, 127
10, 311040, Note_on_c, 7, 68, 127
10, 311280, Note_off_c, 7, 80, 127
10, 311280, Note_off_c, 7, 75, 127
10, 311280, Note_off_c, 7, 68, 127
10, 311280, Note_on_c, 7, 79, 127
10, 311280, Note_on_c, 7, 74, 127
10, 311280, Note_on_c, 7, 67, 127
10, 311520, Note_off_c, 7, 79, 127
10, 311520, Note_off_c, 7, 74, 127
10, 311520, Note_off_c, 7, 67, 127
10, 312960, Note_on_c, 7, 79, 127
10, 312960, Note_on_c, 7, 74, 127
10, 312960, Note_on_c, 7, 67, 127
10, 313200, Note_off_c, 7, 79, 127
10, 313200, Note_off_c, 7, 74, 127
10, 313200, Note_off_c, 7, 67, 127
10, 313920, Note_on_c, 7, 80, 127
10, 313920, Note_on_c, 7, 75, 127
10, 313920, Note_on_c, 7, 68, 127
10, 314160, Note_off_c, 7, 80, 127
10, 314160, Note_off_c, 7, 75, 127
10, 314160, Note_off_c, 7, 68, 127
10, 314880, Note_on_c, 7, 74, 127
10, 314880, Note_on_c, 7, 69, 127
10, 315000, Note_off_c, 7, 74, 127
10, 315000, Note_on_c, 7, 74, 127
10, 315000, Note_off_c, 7, 69, 127
10, 315000, Note_on_c, 7, 69, 127
10, 315120, Note_off_c, 7, 74, 127
10, 315120, Note_on_c, 7, 74, 127
10, 315120, Note_off_c, 7, 69, 127
10, 315120, Note_on_c, 7, 69, 127
10, 315240, Note_off_c, 7, 74, 127
10, 315240, Note_on_c, 7, 74, 127
10, 315240, Note_off_c, 7, 69, 127
10, 315240, Note_on_c, 7, 69, 127
10, 315360, Note_off_c, 7, 74, 127
10, 315360, Note_on_c, 7, 74, 127
10, 315360, Note_off_c, 7, 69, 127
10, 315360, Note_on_c, 7, 69, 127
10, 315480, Note_off_c, 7, 74, 127
10, 315480, Note_on_c, 7, 74, 127
10, 315480, Note_off_c, 7, 69, 127
10, 315480, Note_on_c, 7, 69, 127
10, 315600, Note_off_c, 7, 74, 127
10, 315600, Note_on_c, 7, 74, 127
10, 315600, Note_off_c, 7, 69, 127
10, 315600, Note_on_c, 7, 69, 127
10, 315720, Note_off_c, 7, 74, 127
10, 315720, Note_on_c, 7, 74, 127
10, 315720, Note_off_c, 7, 69, 127
10, 315720, Note_on_c, 7, 69, 127
10, 315840, Note_off_c, 7, 74, 127
10, 315840, Note_on_c, 7, 74, 127
10, 315840, Note_off_c, 7, 69, 127
10, 315840, Note_on_c, 7, 69, 127
10, 315960, Note_off_c, 7, 74, 127
10, 315960, Note_on_c, 7, 74, 127
10, 315960, Note_off_c, 7, 69, 127
10, 315960, Note_on_c, 7, 69, 127
10, 316080, Note_off_c, 7, 74, 127
10, 316080, Note_on_c, 7, 74, 127
10, 316080, Note_off_c, 7, 69, 127
10, 316080, Note_on_c, 7, 69, 127
10, 316200, Note_off_c, 7, 74, 127
10, 316200, Note_on_c, 7, 74, 127
10, 316200, Note_off_c, 7, 69, 127
10, 316200, Note_on_c, 7, 69, 127
10, 316320, Note_off_c, 7, 74, 127
10, 316320, Note_on_c, 7, 74, 127
10, 316320, Note_off_c, 7, 69, 127
10, 316320, Note_on_c, 7, 69, 127
10, 316440, Note_off_c, 7, 74, 127
10, 316440, Note_on_c, 7, 74, 127
10, 316440, Note_off_c, 7, 69, 127
10, 316440, Note_on_c, 7, 69, 127
10, 316560, Note_off_c, 7, 74, 127
10, 316560, Note_on_c, 7, 74, 127
10, 316560, Note_off_c, 7, 69, 127
10, 316560, Note_on_c, 7, 69, 127
10, 316680, Note_off_c, 7, 74, 127
10, 316680, Note_on_c, 7, 74, 127
10, 316680, Note_off_c, 7, 69, 127
10, 316680, Note_on_c, 7, 69, 127
10, 316800, Note_off_c, 7, 74, 127
10, 316800, Note_on_c, 7, 74, 127
10, 316800, Note_off_c, 7, 69, 127
10, 316800, Note_on_c, 7, 69, 127
10, 316920, Note_off_c, 7, 74, 127
10, 316920, Note_on_c, 7, 74, 127
10, 316920, Note_off_c, 7, 69, 127
10, 316920, Note_on_c, 7, 69, 127
10, 317040, Note_off_c, 7, 74, 127
10, 317040, Note_on_c, 7, 74, 127
10, 317040, Note_off_c, 7, 69, 127
10, 317040, Note_on_c, 7, 69, 127
10, 317160, Note_off_c, 7, 74, 127
10, 317160, Note_on_c, 7, 74, 127
10, 317160, Note_off_c, 7, 69, 127
10, 317160, Note_on_c, 7, 69, 127
10, 317280, Note_off_c, 7, 74, 127
10, 317280, Note_on_c, 7, 74, 127
10, 317280, Note_off_c, 7, 69, 127
10, 317280, Note_on_c, 7, 69, 127
10, 317400, Note_off_c, 7, 74, 127
10, 317400, Note_on_c, 7, 74, 127
10, 317400, Note_off_c, 7, 69, 127
10, 317400, Note_on_c, 7, 69, 127
10, 317520, Note_off_c, 7, 74, 127
10, 317520, Note_on_c, 7, 74, 127
10, 317520, Note_off_c, 7, 69, 127
10, 317520, Note_on_c, 7, 69, 127
10, 317640, Note_off_c, 7, 74, 127
10, 317640, Note_on_c, 7, 74, 127
10, 317640, Note_off_c, 7, 69, 127
10, 317640, Note_on_c, 7, 69, 127
10, 317760, Note_off_c, 7, 74, 127
10, 317760, Note_on_c, 7, 74, 127
10, 317760, Note_off_c, 7, 69, 127
10, 317760, Note_on_c, 7, 69, 127
10, 317880, Note_off_c, 7, 74, 127
10, 317880, Note_on_c, 7, 74, 127
10, 317880, Note_off_c, 7, 69, 127
10, 317880, Note_on_c, 7, 69, 127
10, 318000, Note_off_c, 7, 74, 127
10, 318000, Note_on_c, 7, 74, 127
10, 318000, Note_off_c, 7, 69, 127
10, 318000, Note_on_c, 7, 69, 127
10, 318120, Note_off_c, 7, 74, 127
10, 318120, Note_on_c, 7, 74, 127
10, 318120, Note_off_c, 7, 69, 127
10, 318120, Note_on_c, 7, 69, 127
10, 318240, Note_off_c, 7, 74, 127
10, 318240, Note_on_c, 7, 74, 127
10, 318240, Note_off_c, 7, 69, 127
10, 318240, Note_on_c, 7, 69, 127
10, 318360, Note_off_c, 7, 74, 127
10, 318360, Note_on_c, 7, 74, 127
10, 318360, Note_off_c, 7, 69, 127
10, 318360, Note_on_c, 7, 69, 127
10, 318480, Note_off_c, 7, 74, 127
10, 318480, Note_on_c, 7, 74, 127
10, 318480, Note_off_c, 7, 69, 127
10, 318480, Note_on_c, 7, 69, 127
10, 318600, Note_off_c, 7, 74, 127
10, 318600, Note_on_c, 7, 74, 127
10, 318600, Note_off_c, 7, 69, 127
10, 318600, Note_on_c, 7, 69, 127
10, 318719, Note_off_c, 7, 74, 127
10, 318719, Note_off_c, 7, 69, 127
10, 318720, Note_on_c, 7, 74, 127
10, 318720, Note_on_c, 7, 69, 127
10, 318960, Note_off_c, 7, 74, 127
10, 318960, Note_off_c, 7, 69, 127
10, 318960, Note_on_c, 7, 75, 127
10, 318960, Note_on_c, 7, 70, 127
10, 319200, Note_off_c, 7, 75, 127
10, 319200, Note_off_c, 7, 70, 127
10, 320640, Note_on_c, 7, 75, 127
10, 320640, Note_on_c, 7, 70, 127
10, 320880, Note_off_c, 7, 75, 127
10, 320880, Note_off_c, 7, 70, 127
10, 320880, Note_on_c, 7, 74, 127
10, 320880, Note_on_c, 7, 69, 127
10, 321120, Note_off_c, 7, 74, 127
10, 321120, Note_off_c, 7, 69, 127
10, 321600, Note_on_c, 7, 74, 127
10, 321600, Note_on_c, 7, 69, 127
10, 321840, Note_off_c, 7, 74, 127
10, 321840, Note_off_c, 7, 69, 127
10, 321840, Note_on_c, 7, 75, 127
10, 321840, Note_on_c, 7, 70, 127
10, 322080, Note_off_c, 7, 75, 127
10, 322080, Note_off_c, 7, 70, 127
10, 322560, Note_on_c, 7, 79, 127
10, 322560, Note_on_c, 7, 74, 127
10, 322560, Note_on_c, 7, 67, 127
10, 322800, Note_off_c, 7, 79, 127
10, 322800, Note_off_c, 7, 74, 127
10, 322800, Note_off_c, 7, 67, 127
10, 322800, Note_on_c, 7, 80, 127
10, 322800, Note_on_c, 7, 75, 127
10, 322800, Note_on_c, 7, 68, 127
10, 323040, Note_off_c, 7, 80, 127
10, 323040, Note_off_c, 7, 75, 127
10, 323040, Note_off_c, 7, 68, 127
10, 326400, Note_on_c, 7, 80, 127
10, 326400, Note_on_c, 7, 75, 127
10, 326400, Note_on_c, 7, 68, 127
10, 326640, Note_off_c, 7, 80, 127
10, 326640, Note_off_c, 7, 75, 127
10, 326640, Note_off_c, 7, 68, 127
10, 326640, Note_on_c, 7, 79, 127
10, 326640, Note_on_c, 7, 74, 127
10, 326640, Note_on_c, 7, 67, 127
10, 326880, Note_off_c, 7, 79, 127
10, 326880, Note_off_c, 7, 74, 127
10, 326880, Note_off_c, 7, 67, 127
10, 328320, Note_on_c, 7, 79, 127
10, 328320, Note_on_c, 7, 74, 127
10, 328320, Note_on_c, 7, 67, 127
10, 328560, Note_off_c, 7, 79, 127
10, 328560, Note_off_c, 7, 74, 127
10, 328560, Note_off_c, 7, 67, 127
10, 329280, Note_on_c, 7, 80, 127
10, 329280, Note_on_c, 7, 75, 127
10, 329280, Note_on_c, 7, 68, 127
10, 329520, Note_off_c, 7, 80, 127
10, 329520, Note_off_c, 7, 75, 127
10, 329520, Note_off_c, 7, 68, 127
10, 330240, Note_on_c, 7, 74, 127
10, 330240, Note_on_c, 7, 69, 127
10, 330360, Note_off_c, 7, 74, 127
10, 330360, Note_on_c, 7, 74, 127
10, 330360, Note_off_c, 7, 69, 127
10, 330360, Note_on_c, 7, 69, 127
10, 330480, Note_off_c, 7, 74, 127
10, 330480, Note_on_c, 7, 74, 127
10, 330480, Note_off_c, 7, 69, 127
10, 330480, Note_on_c, 7, 69, 127
10, 330600, Note_off_c, 7, 74, 127
10, 330600, Note_on_c, 7, 74, 127
10, 330600, Note_off_c, 7, 69, 127
10, 330600, Note_on_c, 7, 69, 127
10, 330720, Note_off_c, 7, 74, 127
10, 330720, Note_on_c, 7, 74, 127
10, 330720, Note_off_c, 7, 69, 127
10, 330720, Note_on_c, 7, 69, 127
10, 330840, Note_off_c, 7, 74, 127
10, 330840, Note_on_c, 7, 74, 127
10, 330840, Note_off_c, 7, 69, 127
10, 330840, Note_on_c, 7, 69, 127
10, 330960, Note_off_c, 7, 74, 127
10, 330960, Note_on_c, 7, 74, 127
10, 330960, Note_off_c, 7, 69, 127
10, 330960, Note_on_c, 7, 69, 127
10, 331080, Note_off_c, 7, 74, 127
10, 331080, Note_on_c, 7, 74, 127
10, 331080, Note_off_c, 7, 69, 127
10, 331080, Note_on_c, 7, 69, 127
10, 331200, Note_off_c, 7, 74, 127
10, 331200, Note_on_c, 7, 74, 127
10, 331200, Note_off_c, 7, 69, 127
10, 331200, Note_on_c, 7, 69, 127
10, 331320, Note_off_c, 7, 74, 127
10, 331320, Note_on_c, 7, 74, 127
10, 331320, Note_off_c, 7, 69, 127
10, 331320, Note_on_c, 7, 69, 127
10, 331440, Note_off_c, 7, 74, 127
10, 331440, Note_on_c, 7, 74, 127
10, 331440, Note_off_c, 7, 69, 127
10, 331440, Note_on_c, 7, 69, 127
10, 331560, Note_off_c, 7, 74, 127
10, 331560, Note_on_c, 7, 74, 127
10, 331560, Note_off_c, 7, 69, 127
10, 331560, Note_on_c, 7, 69, 127
10, 331680, Note_off_c, 7, 74, 127
10, 331680, Note_on_c, 7, 74, 127
10, 331680, Note_off_c, 7, 69, 127
10, 331680, Note_on_c, 7, 69, 127
10, 331800, Note_off_c, 7, 74, 127
10, 331800, Note_on_c, 7, 74, 127
10, 331800, Note_off_c, 7, 69, 127
10, 331800, Note_on_c, 7, 69, 127
10, 331920, Note_off_c, 7, 74, 127
10, 331920, Note_on_c, 7, 74, 127
10, 331920, Note_off_c, 7, 69, 127
10, 331920, Note_on_c, 7, 69, 127
10, 332040, Note_off_c, 7, 74, 127
10, 332040, Note_on_c, 7, 74, 127
10, 332040, Note_off_c, 7, 69, 127
10, 332040, Note_on_c, 7, 69, 127
10, 332160, Note_off_c, 7, 74, 127
10, 332160, Note_on_c, 7, 74, 127
10, 332160, Note_off_c, 7, 69, 127
10, 332160, Note_on_c, 7, 69, 127
10, 332280, Note_off_c, 7, 74, 127
10, 332280, Note_on_c, 7, 74, 127
10, 332280, Note_off_c, 7, 69, 127
10, 332280, Note_on_c, 7, 69, 127
10, 332400, Note_off_c, 7, 74, 127
10, 332400, Note_on_c, 7, 74, 127
10, 332400, Note_off_c, 7, 69, 127
10, 332400, Note_on_c, 7, 69, 127
10, 332520, Note_off_c, 7, 74, 127
10, 332520, Note_on_c, 7, 74, 127
10, 332520, Note_off_c, 7, 69, 127
10, 332520, Note_on_c, 7, 69, 127
10, 332640, Note_off_c, 7, 74, 127
10, 332640, Note_on_c, 7, 74, 127
10, 332640, Note_off_c, 7, 69, 127
10, 332640, Note_on_c, 7, 69, 127
10, 332760, Note_off_c, 7, 74, 127
10, 332760, Note_on_c, 7, 74, 127
10, 332760, Note_off_c, 7, 69, 127
10, 332760, Note_on_c, 7, 69, 127
10, 332880, Note_off_c, 7, 74, 127
10, 332880, Note_on_c, 7, 74, 127
10, 332880, Note_off_c, 7, 69, 127
10, 332880, Note_on_c, 7, 69, 127
10, 333000, Note_off_c, 7, 74, 127
10, 333000, Note_on_c, 7, 74, 127
10, 333000, Note_off_c, 7, 69, 127
10, 333000, Note_on_c, 7, 69, 127
10, 333120, Note_off_c, 7, 74, 127
10, 333120, Note_on_c, 7, 74, 127
10, 333120, Note_off_c, 7, 69, 127
10, 333120, Note_on_c, 7, 69, 127
10, 333240, Note_off_c, 7, 74, 127
10, 333240, Note_on_c, 7, 74, 127
10, 333240, Note_off_c, 7, 69, 127
10, 333240, Note_on_c, 7, 69, 127
10, 333360, Note_off_c, 7, 74, 127
10, 333360, Note_on_c, 7, 74, 127
10, 333360, Note_off_c, 7, 69, 127
10, 333360, Note_on_c, 7, 69, 127
10, 333480, Note_off_c, 7, 74, 127
10, 333480, Note_on_c, 7, 74, 127
10, 333480, Note_off_c, 7, 69, 127
10, 333480, Note_on_c, 7, 69, 127
10, 333600, Note_off_c, 7, 74, 127
10, 333600, Note_on_c, 7, 74, 127
10, 333600, Note_off_c, 7, 69, 127
10, 333600, Note_on_c, 7, 69, 127
10, 333720, Note_off_c, 7, 74, 127
10, 333720, Note_on_c, 7, 74, 127
10, 333720, Note_off_c, 7, 69, 127
10, 333720, Note_on_c, 7, 69, 127
10, 333840, Note_off_c, 7, 74, 127
10, 333840, Note_on_c, 7, 74, 127
10, 333840, Note_off_c, 7, 69, 127
10, 333840, Note_on_c, 7, 69, 127
10, 333960, Note_off_c, 7, 74, 127
10, 333960, Note_on_c, 7, 74, 127
10, 333960, Note_off_c, 7, 69, 127
10, 333960, Note_on_c, 7, 69, 127
10, 334079, Note_off_c, 7, 74, 127
10, 334079, Note_off_c, 7, 69, 127
10, 334080, Note_on_c, 7, 74, 127
10, 334080, Note_on_c, 7, 69, 127
10, 334320, Note_off_c, 7, 74, 127
10, 334320, Note_off_c, 7, 69, 127
10, 334320, Note_on_c, 7, 75, 127
10, 334320, Note_on_c, 7, 70, 127
10, 334560, Note_off_c, 7, 75, 127
10, 334560, Note_off_c, 7, 70, 127
10, 336000, Note_on_c, 7, 75, 127
10, 336000, Note_on_c, 7, 70, 127
10, 336240, Note_off_c, 7, 75, 127
10, 336240, Note_off_c, 7, 70, 127
10, 336240, Note_on_c, 7, 74, 127
10, 336240, Note_on_c, 7, 69, 127
10, 336480, Note_off_c, 7, 74, 127
10, 336480, Note_off_c, 7, 69, 127
10, 336960, Note_on_c, 7, 74, 127
10, 336960, Note_on_c, 7, 69, 127
10, 337200, Note_off_c, 7, 74, 127
10, 337200, Note_off_c, 7, 69, 127
10, 337200, Note_on_c, 7, 75, 127
10, 337200, Note_on_c, 7, 70, 127
10, 337440, Note_off_c, 7, 75, 127
10, 337440, Note_off_c, 7, 70, 127
10, 337920, Note_on_c, 7, 79, 127
10, 337920, Note_on_c, 7, 74, 127
10, 337920, Note_on_c, 7, 67, 127
10, 338160, Note_off_c, 7, 79, 127
10, 338160, Note_off_c, 7, 74, 127
10, 338160, Note_off_c, 7, 67, 127
10, 338160, Note_on_c, 7, 80, 127
10, 338160, Note_on_c, 7, 75, 127
10, 338160, Note_on_c, 7, 68, 127
10, 338400, Note_off_c, 7, 80, 127
10, 338400, Note_off_c, 7, 75, 127
10, 338400, Note_off_c, 7, 68, 127
10, 341760, Note_on_c, 7, 80, 127
10, 341760, Note_on_c, 7, 75, 127
10, 341760, Note_on_c, 7, 68, 127
10, 342000, Note_off_c, 7, 80, 127
10, 342000, Note_off_c, 7, 75, 127
10, 342000, Note_off_c, 7, 68, 127
10, 342000, Note_on_c, 7, 79, 127
10, 342000, Note_on_c, 7, 74, 127
10, 342000, Note_on_c, 7, 67, 127
10, 342240, Note_off_c, 7, 79, 127
10, 342240, Note_off_c, 7, 74, 127
10, 342240, Note_off_c, 7, 67, 127
10, 343680, Note_on_c, 7, 79, 127
10, 343680, Note_on_c, 7, 74, 127
10, 343680, Note_on_c, 7, 67, 127
10, 343920, Note_off_c, 7, 79, 127
10, 343920, Note_off_c, 7, 74, 127
10, 343920, Note_off_c, 7, 67, 127
10, 344640, Note_on_c, 7, 80, 127
10, 344640, Note_on_c, 7, 75, 127
10, 344640, Note_on_c, 7, 68, 127
10, 344880, Note_off_c, 7, 80, 127
10, 344880, Note_off_c, 7, 75, 127
10, 344880, Note_off_c, 7, 68, 127
10, 345600, Note_on_c, 7, 74, 127
10, 345600, Note_on_c, 7, 69, 127
10, 345720, Note_off_c, 7, 74, 127
10, 345720, Note_on_c, 7, 74, 127
10, 345720, Note_off_c, 7, 69, 127
10, 345720, Note_on_c, 7, 69, 127
10, 345840, Note_off_c, 7, 74, 127
10, 345840, Note_on_c, 7, 74, 127
10, 345840, Note_off_c, 7, 69, 127
10, 345840, Note_on_c, 7, 69, 127
10, 345960, Note_off_c, 7, 74, 127
10, 345960, Note_on_c, 7, 74, 127
10, 345960, Note_off_c, 7, 69, 127
10, 345960, Note_on_c, 7, 69, 127
10, 346080, Note_off_c, 7, 74, 127
10, 346080, Note_on_c, 7, 74, 127
10, 346080, Note_off_c, 7, 69, 127
10, 346080, Note_on_c, 7, 69, 127
10, 346200, Note_off_c, 7, 74, 127
10, 346200, Note_on_c, 7, 74, 127
10, 346200, Note_off_c, 7, 69, 127
10, 346200, Note_on_c, 7, 69, 127
10, 346320, Note_off_c, 7, 74, 127
10, 346320, Note_on_c, 7, 74, 127
10, 346320, Note_off_c, 7, 69, 127
10, 346320, Note_on_c, 7, 69, 127
10, 346440, Note_off_c, 7, 74, 127
10, 346440, Note_on_c, 7, 74, 127
10, 346440, Note_off_c, 7, 69, 127
10, 346440, Note_on_c, 7, 69, 127
10, 346560, Note_off_c, 7, 74, 127
10, 346560, Note_on_c, 7, 74, 127
10, 346560, Note_off_c, 7, 69, 127
10, 346560, Note_on_c, 7, 69, 127
10, 346680, Note_off_c, 7, 74, 127
10, 346680, Note_on_c, 7, 74, 127
10, 346680, Note_off_c, 7, 69, 127
10, 346680, Note_on_c, 7, 69, 127
10, 346800, Note_off_c, 7, 74, 127
10, 346800, Note_on_c, 7, 74, 127
10, 346800, Note_off_c, 7, 69, 127
10, 346800, Note_on_c, 7, 69, 127
10, 346920, Note_off_c, 7, 74, 127
10, 346920, Note_on_c, 7, 74, 127
10, 346920, Note_off_c, 7, 69, 127
10, 346920, Note_on_c, 7, 69, 127
10, 347040, Note_off_c, 7, 74, 127
10, 347040, Note_on_c, 7, 74, 127
10, 347040, Note_off_c, 7, 69, 127
10, 347040, Note_on_c, 7, 69, 127
10, 347160, Note_off_c, 7, 74, 127
10, 347160, Note_on_c, 7, 74, 127
10, 347160, Note_off_c, 7, 69, 127
10, 347160, Note_on_c, 7, 69, 127
10, 347280, Note_off_c, 7, 74, 127
10, 347280, Note_on_c, 7, 74, 127
10, 347280, Note_off_c, 7, 69, 127
10, 347280, Note_on_c, 7, 69, 127
10, 347400, Note_off_c, 7, 74, 127
10, 347400, Note_on_c, 7, 74, 127
10, 347400, Note_off_c, 7, 69, 127
10, 347400, Note_on_c, 7, 69, 127
10, 347520, Note_off_c, 7, 74, 127
10, 347520, Note_on_c, 7, 74, 127
10, 347520, Note_off_c, 7, 69, 127
10, 347520, Note_on_c, 7, 69, 127
10, 347640, Note_off_c, 7, 74, 127
10, 347640, Note_on_c, 7, 74, 127
10, 347640, Note_off_c, 7, 69, 127
10, 347640, Note_on_c, 7, 69, 127
10, 347760, Note_off_c, 7, 74, 127
10, 347760, Note_on_c, 7, 74, 127
10, 347760, Note_off_c, 7, 69, 127
10, 347760, Note_on_c, 7, 69, 127
10, 347880, Note_off_c, 7, 74, 127
10, 347880, Note_on_c, 7, 74, 127
10, 347880, Note_off_c, 7, 69, 127
10, 347880, Note_on_c, 7, 69, 127
10, 348000, Note_off_c, 7, 74, 127
10, 348000, Note_on_c, 7, 74, 127
10, 348000, Note_off_c, 7, 69, 127
10, 348000, Note_on_c, 7, 69, 127
10, 348120, Note_off_c, 7, 74, 127
10, 348120, Note_on_c, 7, 74, 127
10, 348120, Note_off_c, 7, 69, 127
10, 348120, Note_on_c, 7, 69, 127
10, 348240, Note_off_c, 7, 74, 127
10, 348240, Note_on_c, 7, 74, 127
10, 348240, Note_off_c, 7, 69, 127
10, 348240, Note_on_c, 7, 69, 127
10, 348360, Note_off_c, 7, 74, 127
10, 348360, Note_on_c, 7, 74, 127
10, 348360, Note_off_c, 7, 69, 127
10, 348360, Note_on_c, 7, 69, 127
10, 348480, Note_off_c, 7, 74, 127
10, 348480, Note_on_c, 7, 74, 127
10, 348480, Note_off_c, 7, 69, 127
10, 348480, Note_on_c, 7, 69, 127
10, 348600, Note_off_c, 7, 74, 127
10, 348600, Note_on_c, 7, 74, 127
10, 348600, Note_off_c, 7, 69, 127
10, 348600, Note_on_c, 7, 69, 127
10, 348720, Note_off_c, 7, 74, 127
10, 348720, Note_on_c, 7, 74, 127
10, 348720, Note_off_c, 7, 69, 127
10, 348720, Note_on_c, 7, 69, 127
10, 348840, Note_off_c, 7, 74, 127
10, 348840, Note_on_c, 7, 74, 127
10, 348840, Note_off_c, 7, 69, 127
10, 348840, Note_on_c, 7, 69, 127
10, 348960, Note_off_c, 7, 74, 127
10, 348960, Note_on_c, 7, 74, 127
10, 348960, Note_off_c, 7, 69, 127
10, 348960, Note_on_c, 7, 69, 127
10, 349080, Note_off_c, 7, 74, 127
10, 349080, Note_on_c, 7, 74, 127
10, 349080, Note_off_c, 7, 69, 127
10, 349080, Note_on_c, 7, 69, 127
10, 349200, Note_off_c, 7, 74, 127
10, 349200, Note_on_c, 7, 74, 127
10, 349200, Note_off_c, 7, 69, 127
10, 349200, Note_on_c, 7, 69, 127
10, 349320, Note_off_c, 7, 74, 127
10, 349320, Note_on_c, 7, 74, 127
10, 349320, Note_off_c, 7, 69, 127
10, 349320, Note_on_c, 7, 69, 127
10, 349439, Note_off_c, 7, 74, 127
10, 349439, Note_off_c, 7, 69, 127
10, 349440, Note_on_c, 7, 74, 127
10, 349440, Note_on_c, 7, 69, 127
10, 349680, Note_off_c, 7, 74, 127
10, 349680, Note_off_c, 7, 69, 127
10, 349680, Note_on_c, 7, 75, 127
10, 349680, Note_on_c, 7, 70, 127
10, 349920, Note_off_c, 7, 75, 127
10, 349920, Note_off_c, 7, 70, 127
10, 351360, Note_on_c, 7, 75, 127
10, 351360, Note_on_c, 7, 70, 127
10, 351600, Note_off_c, 7, 75, 127
10, 351600, Note_off_c, 7, 70, 127
10, 351600, Note_on_c, 7, 74, 127
10, 351600, Note_on_c, 7, 69, 127
10, 351840, Note_off_c, 7, 74, 127
10, 351840, Note_off_c, 7, 69, 127
10, 352320, Note_on_c, 7, 74, 127
10, 352320, Note_on_c, 7, 69, 127
10, 352560, Note_off_c, 7, 74, 127
10, 352560, Note_off_c, 7, 69, 127
10, 352560, Note_on_c, 7, 75, 127
10, 352560, Note_on_c, 7, 70, 127
10, 352800, Note_off_c, 7, 75, 127
10, 352800, Note_off_c, 7, 70, 127
10, 353280, Note_on_c, 7, 79, 127
10, 353280, Note_on_c, 7, 74, 127
10, 353280, Note_on_c, 7, 67, 127
10, 353520, Note_off_c, 7, 79, 127
10, 353520, Note_off_c, 7, 74, 127
10, 353520, Note_off_c, 7, 67, 127
10, 353520, Note_on_c, 7, 80, 127
10, 353520, Note_on_c, 7, 75, 127
10, 353520, Note_on_c, 7, 68, 127
10, 353760, Note_off_c, 7, 80, 127
10, 353760, Note_off_c, 7, 75, 127
10, 353760, Note_off_c, 7, 68, 127
10, 357120, Note_on_c, 7, 80, 127
10, 357120, Note_on_c, 7, 75, 127
10, 357120, Note_on_c, 7, 68, 127
10, 357360, Note_off_c, 7, 80, 127
10, 357360, Note_off_c, 7, 75, 127
10, 357360, Note_off_c, 7, 68, 127
10, 357360, Note_on_c, 7, 79, 127
10, 357360, Note_on_c, 7, 74, 127
10, 357360, Note_on_c, 7, 67, 127
10, 357600, Note_off_c, 7, 79, 127
10, 357600, Note_off_c, 7, 74, 127
10, 357600, Note_off_c, 7, 67, 127
10, 359040, Note_on_c, 7, 79, 127
10, 359040, Note_on_c, 7, 74, 127
10, 359040, Note_on_c, 7, 67, 127
10, 359280, Note_off_c, 7, 79, 127
10, 359280, Note_off_c, 7, 74, 127
10, 359280, Note_off_c, 7, 67, 127
10, 360000, Note_on_c, 7, 80, 127
10, 360000, Note_on_c, 7, 75, 127
10, 360000, Note_on_c, 7, 68, 127
10, 360240, Note_off_c, 7, 80, 127
10, 360240, Note_off_c, 7, 75, 127
10, 360240, Note_off_c, 7, 68, 127
10, 360960, Note_on_c, 7, 74, 127
10, 360960, Note_on_c, 7, 69, 127
10, 361080, Note_off_c, 7, 74, 127
10, 361080, Note_on_c, 7, 74, 127
10, 361080, Note_off_c, 7, 69, 127
10, 361080, Note_on_c, 7, 69, 127
10, 361200, Note_off_c, 7, 74, 127
10, 361200, Note_on_c, 7, 74, 127
10, 361200, Note_off_c, 7, 69, 127
10, 361200, Note_on_c, 7, 69, 127
10, 361320, Note_off_c, 7, 74, 127
10, 361320, Note_on_c, 7, 74, 127
10, 361320, Note_off_c, 7, 69, 127
10, 361320, Note_on_c, 7, 69, 127
10, 361440, Note_off_c, 7, 74, 127
10, 361440, Note_on_c, 7, 74, 127
10, 361440, Note_off_c, 7, 69, 127
10, 361440, Note_on_c, 7, 69, 127
10, 361560, Note_off_c, 7, 74, 127
10, 361560, Note_on_c, 7, 74, 127
10, 361560, Note_off_c, 7, 69, 127
10, 361560, Note_on_c, 7, 69, 127
10, 361680, Note_off_c, 7, 74, 127
10, 361680, Note_on_c, 7, 74, 127
10, 361680, Note_off_c, 7, 69, 127
10, 361680, Note_on_c, 7, 69, 127
10, 361800, Note_off_c, 7, 74, 127
10, 361800, Note_on_c, 7, 74, 127
10, 361800, Note_off_c, 7, 69, 127
10, 361800, Note_on_c, 7, 69, 127
10, 361920, Note_off_c, 7, 74, 127
10, 361920, Note_on_c, 7, 74, 127
10, 361920, Note_off_c, 7, 69, 127
10, 361920, Note_on_c, 7, 69, 127
10, 362040, Note_off_c, 7, 74, 127
10, 362040, Note_on_c, 7, 74, 127
10, 362040, Note_off_c, 7, 69, 127
10, 362040, Note_on_c, 7, 69, 127
10, 362160, Note_off_c, 7, 74, 127
10, 362160, Note_on_c, 7, 74, 127
10, 362160, Note_off_c, 7, 69, 127
10, 362160, Note_on_c, 7, 69, 127
10, 362280, Note_off_c, 7, 74, 127
10, 362280, Note_on_c, 7, 74, 127
10, 362280, Note_off_c, 7, 69, 127
10, 362280, Note_on_c, 7, 69, 127
10, 362400, Note_off_c, 7, 74, 127
10, 362400, Note_on_c, 7, 74, 127
10, 362400, Note_off_c, 7, 69, 127
10, 362400, Note_on_c, 7, 69, 127
10, 362520, Note_off_c, 7, 74, 127
10, 362520, Note_on_c, 7, 74, 127
10, 362520, Note_off_c, 7, 69, 127
10, 362520, Note_on_c, 7, 69, 127
10, 362640, Note_off_c, 7, 74, 127
10, 362640, Note_on_c, 7, 74, 127
10, 362640, Note_off_c, 7, 69, 127
10, 362640, Note_on_c, 7, 69, 127
10, 362760, Note_off_c, 7, 74, 127
10, 362760, Note_on_c, 7, 74, 127
10, 362760, Note_off_c, 7, 69, 127
10, 362760, Note_on_c, 7, 69, 127
10, 362880, Note_off_c, 7, 74, 127
10, 362880, Note_on_c, 7, 74, 127
10, 362880, Note_off_c, 7, 69, 127
10, 362880, Note_on_c, 7, 69, 127
10, 363000, Note_off_c, 7, 74, 127
10, 363000, Note_on_c, 7, 74, 127
10, 363000, Note_off_c, 7, 69, 127
10, 363000, Note_on_c, 7, 69, 127
10, 363120, Note_off_c, 7, 74, 127
10, 363120, Note_on_c, 7, 74, 127
10, 363120, Note_off_c, 7, 69, 127
10, 363120, Note_on_c, 7, 69, 127
10, 363240, Note_off_c, 7, 74, 127
10, 363240, Note_on_c, 7, 74, 127
10, 363240, Note_off_c, 7, 69, 127
10, 363240, Note_on_c, 7, 69, 127
10, 363360, Note_off_c, 7, 74, 127
10, 363360, Note_on_c, 7, 74, 127
10, 363360, Note_off_c, 7, 69, 127
10, 363360, Note_on_c, 7, 69, 127
10, 363480, Note_off_c, 7, 74, 127
10, 363480, Note_on_c, 7, 74, 127
10, 363480, Note_off_c, 7, 69, 127
10, 363480, Note_on_c, 7, 69, 127
10, 363600, Note_off_c, 7, 74, 127
10, 363600, Note_on_c, 7, 74, 127
10, 363600, Note_off_c, 7, 69, 127
10, 363600, Note_on_c, 7, 69, 127
10, 363720, Note_off_c, 7, 74, 127
10, 363720, Note_on_c, 7, 74, 127
10, 363720, Note_off_c, 7, 69, 127
10, 363720, Note_on_c, 7, 69, 127
10, 363840, Note_off_c, 7, 74, 127
10, 363840, Note_on_c, 7, 74, 127
10, 363840, Note_off_c, 7, 69, 127
10, 363840, Note_on_c, 7, 69, 127
10, 363960, Note_off_c, 7, 74, 127
10, 363960, Note_on_c, 7, 74, 127
10, 363960, Note_off_c, 7, 69, 127
10, 363960, Note_on_c, 7, 69, 127
10, 364080, Note_off_c, 7, 74, 127
10, 364080, Note_on_c, 7, 74, 127
10, 364080, Note_off_c, 7, 69, 127
10, 364080, Note_on_c, 7, 69, 127
10, 364200, Note_off_c, 7, 74, 127
10, 364200, Note_on_c, 7, 74, 127
10, 364200, Note_off_c, 7, 69, 127
10, 364200, Note_on_c, 7, 69, 127
10, 364320, Note_off_c, 7, 74, 127
10, 364320, Note_on_c, 7, 74, 127
10, 364320, Note_off_c, 7, 69, 127
10, 364320, Note_on_c, 7, 69, 127
10, 364440, Note_off_c, 7, 74, 127
10, 364440, Note_on_c, 7, 74, 127
10, 364440, Note_off_c, 7, 69, 127
10, 364440, Note_on_c, 7, 69, 127
10, 364560, Note_off_c, 7, 74, 127
10, 364560, Note_on_c, 7, 74, 127
10, 364560, Note_off_c, 7, 69, 127
10, 364560, Note_on_c, 7, 69, 127
10, 364680, Note_off_c, 7, 74, 127
10, 364680, Note_on_c, 7, 74, 127
10, 364680, Note_off_c, 7, 69, 127
10, 364680, Note_on_c, 7, 69, 127
10, 364799, Note_off_c, 7, 74, 127
10, 364799, Note_off_c, 7, 69, 127
10, 364800, Note_on_c, 7, 74, 127
10, 364800, Note_on_c, 7, 69, 127
10, 365040, Note_off_c, 7, 74, 127
10, 365040, Note_off_c, 7, 69, 127
10, 365040, Note_on_c, 7, 75, 127
10, 365040, Note_on_c, 7, 70, 127
10, 365280, Note_off_c, 7, 75, 127
10, 365280, Note_off_c, 7, 70, 127
10, 366720, Note_on_c, 7, 75, 127
10, 366720, Note_on_c, 7, 70, 127
10, 366960, Note_off_c, 7, 75, 127
10, 366960, Note_off_c, 7, 70, 127
10, 366960, Note_on_c, 7, 74, 127
10, 366960, Note_on_c, 7, 69, 127
10, 367200, Note_off_c, 7, 74, 127
10, 367200, Note_off_c, 7, 69, 127
10, 367680, Note_on_c, 7, 74, 127
10, 367680, Note_on_c, 7, 69, 127
10, 367920, Note_off_c, 7, 74, 127
10, 367920, Note_off_c, 7, 69, 127
10, 367920, Note_on_c, 7, 75, 127
10, 367920, Note_on_c, 7, 70, 127
10, 368160, Note_off_c, 7, 75, 127
10, 368160, Note_off_c, 7, 70, 127
10, 368640, Note_on_c, 7, 79, 127
10, 368640, Note_on_c, 7, 74, 127
10, 368640, Note_on_c, 7, 67, 127
10, 368880, Note_off_c, 7, 79, 127
10, 368880, Note_off_c, 7, 74, 127
10, 368880, Note_off_c, 7, 67, 127
10, 368880, Note_on_c, 7, 80, 127
10, 368880, Note_on_c, 7, 75, 127
10, 368880, Note_on_c, 7, 68, 127
10, 369120, Note_off_c, 7, 80, 127
10, 369120, Note_off_c, 7, 75, 127
10, 369120, Note_off_c, 7, 68, 127
10, 372480, Note_on_c, 7, 80, 127
10, 372480, Note_on_c, 7, 75, 127
10, 372480, Note_on_c, 7, 68, 127
10, 372720, Note_off_c, 7, 80, 127
10, 372720, Note_off_c, 7, 75, 127
10, 372720, Note_off_c, 7, 68, 127
10, 372720, Note_on_c, 7, 79, 127
10, 372720, Note_on_c, 7, 74, 127
10, 372720, Note_on_c, 7, 67, 127
10, 372960, Note_off_c, 7, 79, 127
10, 372960, Note_off_c, 7, 74, 127
10, 372960, Note_off_c, 7, 67, 127
10, 374400, Note_on_c, 7, 79, 127
10, 374400, Note_on_c, 7, 74, 127
10, 374400, Note_on_c, 7, 67, 127
10, 374640, Note_off_c, 7, 79, 127
10, 374640, Note_off_c, 7, 74, 127
10, 374640, Note_off_c, 7, 67, 127
10, 375360, Note_on_c, 7, 80, 127
10, 375360, Note_on_c, 7, 75, 127
10, 375360, Note_on_c, 7, 68, 127
10, 375600, Note_off_c, 7, 80, 127
10, 375600, Note_off_c, 7, 75, 127
10, 375600, Note_off_c, 7, 68, 127
10, 376320, Note_on_c, 7, 74, 127
10, 376320, Note_on_c, 7, 69, 127
10, 376440, Note_off_c, 7, 74, 127
10, 376440, Note_on_c, 7, 74, 127
10, 376440, Note_off_c, 7, 69, 127
10, 376440, Note_on_c, 7, 69, 127
10, 376560, Note_off_c, 7, 74, 127
10, 376560, Note_on_c, 7, 74, 127
10, 376560, Note_off_c, 7, 69, 127
10, 376560, Note_on_c, 7, 69, 127
10, 376680, Note_off_c, 7, 74, 127
10, 376680, Note_on_c, 7, 74, 127
10, 376680, Note_off_c, 7, 69, 127
10, 376680, Note_on_c, 7, 69, 127
10, 376800, Note_off_c, 7, 74, 127
10, 376800, Note_on_c, 7, 74, 127
10, 376800, Note_off_c, 7, 69, 127
10, 376800, Note_on_c, 7, 69, 127
10, 376920, Note_off_c, 7, 74, 127
10, 376920, Note_on_c, 7, 74, 127
10, 376920, Note_off_c, 7, 69, 127
10, 376920, Note_on_c, 7, 69, 127
10, 377040, Note_off_c, 7, 74, 127
10, 377040, Note_on_c, 7, 74, 127
10, 377040, Note_off_c, 7, 69, 127
10, 377040, Note_on_c, 7, 69, 127
10, 377160, Note_off_c, 7, 74, 127
10, 377160, Note_on_c, 7, 74, 127
10, 377160, Note_off_c, 7, 69, 127
10, 377160, Note_on_c, 7, 69, 127
10, 377280, Note_off_c, 7, 74, 127
10, 377280, Note_on_c, 7, 74, 127
10, 377280, Note_off_c, 7, 69, 127
10, 377280, Note_on_c, 7, 69, 127
10, 377400, Note_off_c, 7, 74, 127
10, 377400, Note_on_c, 7, 74, 127
10, 377400, Note_off_c, 7, 69, 127
10, 377400, Note_on_c, 7, 69, 127
10, 377520, Note_off_c, 7, 74, 127
10, 377520, Note_on_c, 7, 74, 127
10, 377520, Note_off_c, 7, 69, 127
10, 377520, Note_on_c, 7, 69, 127
10, 377640, Note_off_c, 7, 74, 127
10, 377640, Note_on_c, 7, 74, 127
10, 377640, Note_off_c, 7, 69, 127
10, 377640, Note_on_c, 7, 69, 127
10, 377760, Note_off_c, 7, 74, 127
10, 377760, Note_on_c, 7, 74, 127
10, 377760, Note_off_c, 7, 69, 127
10, 377760, Note_on_c, 7, 69, 127
10, 377880, Note_off_c, 7, 74, 127
10, 377880, Note_on_c, 7, 74, 127
10, 377880, Note_off_c, 7, 69, 127
10, 377880, Note_on_c, 7, 69, 127
10, 378000, Note_off_c, 7, 74, 127
10, 378000, Note_on_c, 7, 74, 127
10, 378000, Note_off_c, 7, 69, 127
10, 378000, Note_on_c, 7, 69, 127
10, 378120, Note_off_c, 7, 74, 127
10, 378120, Note_on_c, 7, 74, 127
10, 378120, Note_off_c, 7, 69, 127
10, 378120, Note_on_c, 7, 69, 127
10, 378240, Note_off_c, 7, 74, 127
10, 378240, Note_on_c, 7, 74, 127
10, 378240, Note_off_c, 7, 69, 127
10, 378240, Note_on_c, 7, 69, 127
10, 378360, Note_off_c, 7, 74, 127
10, 378360, Note_on_c, 7, 74, 127
10, 378360, Note_off_c, 7, 69, 127
10, 378360, Note_on_c, 7, 69, 127
10, 378480, Note_off_c, 7, 74, 127
10, 378480, Note_on_c, 7, 74, 127
10, 378480, Note_off_c, 7, 69, 127
10, 378480, Note_on_c, 7, 69, 127
10, 378600, Note_off_c, 7, 74, 127
10, 378600, Note_on_c, 7, 74, 127
10, 378600, Note_off_c, 7, 69, 127
10, 378600, Note_on_c, 7, 69, 127
10, 378720, Note_off_c, 7, 74, 127
10, 378720, Note_on_c, 7, 74, 127
10, 378720, Note_off_c, 7, 69, 127
10, 378720, Note_on_c, 7, 69, 127
10, 378840, Note_off_c, 7, 74, 127
10, 378840, Note_on_c, 7, 74, 127
10, 378840, Note_off_c, 7, 69, 127
10, 378840, Note_on_c, 7, 69, 127
10, 378960, Note_off_c, 7, 74, 127
10, 378960, Note_on_c, 7, 74, 127
10, 378960, Note_off_c, 7, 69, 127
10, 378960, Note_on_c, 7, 69, 127
10, 379080, Note_off_c, 7, 74, 127
10, 379080, Note_on_c, 7, 74, 127
10, 379080, Note_off_c, 7, 69, 127
10, 379080, Note_on_c, 7, 69, 127
10, 379200, Note_off_c, 7, 74, 127
10, 379200, Note_on_c, 7, 74, 127
10, 379200, Note_off_c, 7, 69, 127
10, 379200, Note_on_c, 7, 69, 127
10, 379320, Note_off_c, 7, 74, 127
10, 379320, Note_on_c, 7, 74, 127
10, 379320, Note_off_c, 7, 69, 127
10, 379320, Note_on_c, 7, 69, 127
10, 379440, Note_off_c, 7, 74, 127
10, 379440, Note_on_c, 7, 74, 127
10, 379440, Note_off_c, 7, 69, 127
10, 379440, Note_on_c, 7, 69, 127
10, 379560, Note_off_c, 7, 74, 127
10, 379560, Note_on_c, 7, 74, 127
10, 379560, Note_off_c, 7, 69, 127
10, 379560, Note_on_c, 7, 69, 127
10, 379680, Note_off_c, 7, 74, 127
10, 379680, Note_on_c, 7, 74, 127
10, 379680, Note_off_c, 7, 69, 127
10, 379680, Note_on_c, 7, 69, 127
10, 379800, Note_off_c, 7, 74, 127
10, 379800, Note_on_c, 7, 74, 127
10, 379800, Note_off_c, 7, 69, 127
10, 379800, Note_on_c, 7, 69, 127
10, 379920, Note_off_c, 7, 74, 127
10, 379920, Note_on_c, 7, 74, 127
10, 379920, Note_off_c, 7, 69, 127
10, 379920, Note_on_c, 7, 69, 127
10, 380040, Note_off_c, 7, 74, 127
10, 380040, Note_on_c, 7, 74, 127
10, 380040, Note_off_c, 7, 69, 127
10, 380040, Note_on_c, 7, 69, 127
10, 380159, Note_off_c, 7, 74, 127
10, 380159, Note_off_c, 7, 69, 127
10, 380160, Note_on_c, 7, 74, 127
10, 380160, Note_on_c, 7, 69, 127
10, 380400, Note_off_c, 7, 74, 127
10, 380400, Note_off_c, 7, 69, 127
10, 380400, Note_on_c, 7, 75, 127
10, 380400, Note_on_c, 7, 70, 127
10, 380640, Note_off_c, 7, 75, 127
10, 380640, Note_off_c, 7, 70, 127
10, 382080, Note_on_c, 7, 75, 127
10, 382080, Note_on_c, 7, 70, 127
10, 382320, Note_off_c, 7, 75, 127
10, 382320, Note_off_c, 7, 70, 127
10, 382320, Note_on_c, 7, 74, 127
10, 382320, Note_on_c, 7, 69, 127
10, 382560, Note_off_c, 7, 74, 127
10, 382560, Note_off_c, 7, 69, 127
10, 383040, Note_on_c, 7, 74, 127
10, 383040, Note_on_c, 7, 69, 127
10, 383280, Note_off_c, 7, 74, 127
10, 383280, Note_off_c, 7, 69, 127
10, 383280, Note_on_c, 7, 75, 127
10, 383280, Note_on_c, 7, 70, 127
10, 383520, Note_off_c, 7, 75, 127
10, 383520, Note_off_c, 7, 70, 127
10, 384000, Note_on_c, 7, 79, 127
10, 384000, Note_on_c, 7, 74, 127
10, 384000, Note_on_c, 7, 67, 127
10, 384240, Note_off_c, 7, 79, 127
10, 384240, Note_off_c, 7, 74, 127
10, 384240, Note_off_c, 7, 67, 127
10, 384240, Note_on_c, 7, 80, 127
10, 384240, Note_on_c, 7, 75, 127
10, 384240, Note_on_c, 7, 68, 127
10, 384480, Note_off_c, 7, 80, 127
10, 384480, Note_off_c, 7, 75, 127
10, 384480, Note_off_c, 7, 68, 127
10, 387840, Note_on_c, 7, 80, 127
10, 387840, Note_on_c, 7, 75, 127
10, 387840, Note_on_c, 7, 68, 127
10, 388080, Note_off_c, 7, 80, 127
10, 388080, Note_off_c, 7, 75, 127
10, 388080, Note_off_c, 7, 68, 127
10, 388080, Note_on_c, 7, 79, 127
10, 388080, Note_on_c, 7, 74, 127
10, 388080, Note_on_c, 7, 67, 127
10, 388320, Note_off_c, 7, 79, 127
10, 388320, Note_off_c, 7, 74, 127
10, 388320, Note_off_c, 7, 67, 127
10, 389760, Note_on_c, 7, 79, 127
10, 389760, Note_on_c, 7, 74, 127
10, 389760, Note_on_c, 7, 67, 127
10, 390000, Note_off_c, 7, 79, 127
10, 390000, Note_off_c, 7, 74, 127
10, 390000, Note_off_c, 7, 67, 127
10, 390720, Note_on_c, 7, 80, 127
10, 390720, Note_on_c, 7, 75, 127
10, 390720, Note_on_c, 7, 68, 127
10, 390960, Note_off_c, 7, 80, 127
10, 390960, Note_off_c, 7, 75, 127
10, 390960, Note_off_c, 7, 68, 127
10, 391680, Note_on_c, 7, 74, 127
10, 391680, Note_on_c, 7, 69, 127
10, 391800, Note_off_c, 7, 74, 127
10, 391800, Note_on_c, 7, 74, 127
10, 391800, Note_off_c, 7, 69, 127
10, 391800, Note_on_c, 7, 69, 127
10, 391920, Note_off_c, 7, 74, 127
10, 391920, Note_on_c, 7, 74, 127
10, 391920, Note_off_c, 7, 69, 127
10, 391920, Note_on_c, 7, 69, 127
10, 392040, Note_off_c, 7, 74, 127
10, 392040, Note_on_c, 7, 74, 127
10, 392040, Note_off_c, 7, 69, 127
10, 392040, Note_on_c, 7, 69, 127
10, 392160, Note_off_c, 7, 74, 127
10, 392160, Note_on_c, 7, 74, 127
10, 392160, Note_off_c, 7, 69, 127
10, 392160, Note_on_c, 7, 69, 127
10, 392280, Note_off_c, 7, 74, 127
10, 392280, Note_on_c, 7, 74, 127
10, 392280, Note_off_c, 7, 69, 127
10, 392280, Note_on_c, 7, 69, 127
10, 392400, Note_off_c, 7, 74, 127
10, 392400, Note_on_c, 7, 74, 127
10, 392400, Note_off_c, 7, 69, 127
10, 392400, Note_on_c, 7, 69, 127
10, 392520, Note_off_c, 7, 74, 127
10, 392520, Note_on_c, 7, 74, 127
10, 392520, Note_off_c, 7, 69, 127
10, 392520, Note_on_c, 7, 69, 127
10, 392640, Note_off_c, 7, 74, 127
10, 392640, Note_on_c, 7, 74, 127
10, 392640, Note_off_c, 7, 69, 127
10, 392640, Note_on_c, 7, 69, 127
10, 392760, Note_off_c, 7, 74, 127
10, 392760, Note_on_c, 7, 74, 127
10, 392760, Note_off_c, 7, 69, 127
10, 392760, Note_on_c, 7, 69, 127
10, 392880, Note_off_c, 7, 74, 127
10, 392880, Note_on_c, 7, 74, 127
10, 392880, Note_off_c, 7, 69, 127
10, 392880, Note_on_c, 7, 69, 127
10, 393000, Note_off_c, 7, 74, 127
10, 393000, Note_on_c, 7, 74, 127
10, 393000, Note_off_c, 7, 69, 127
10, 393000, Note_on_c, 7, 69, 127
10, 393120, Note_off_c, 7, 74, 127
10, 393120, Note_on_c, 7, 74, 127
10, 393120, Note_off_c, 7, 69, 127
10, 393120, Note_on_c, 7, 69, 127
10, 393240, Note_off_c, 7, 74, 127
10, 393240, Note_on_c, 7, 74, 127
10, 393240, Note_off_c, 7, 69, 127
10, 393240, Note_on_c, 7, 69, 127
10, 393360, Note_off_c, 7, 74, 127
10, 393360, Note_on_c, 7, 74, 127
10, 393360, Note_off_c, 7, 69, 127
10, 393360, Note_on_c, 7, 69, 127
10, 393480, Note_off_c, 7, 74, 127
10, 393480, Note_on_c, 7, 74, 127
10, 393480, Note_off_c, 7, 69, 127
10, 393480, Note_on_c, 7, 69, 127
10, 393600, Note_off_c, 7, 74, 127
10, 393600, Note_on_c, 7, 74, 127
10, 393600, Note_off_c, 7, 69, 127
10, 393600, Note_on_c, 7, 69, 127
10, 393720, Note_off_c, 7, 74, 127
10, 393720, Note_on_c, 7, 74, 127
10, 393720, Note_off_c, 7, 69, 127
10, 393720, Note_on_c, 7, 69, 127
10, 393840, Note_off_c, 7, 74, 127
10, 393840, Note_on_c, 7, 74, 127
10, 393840, Note_off_c, 7, 69, 127
10, 393840, Note_on_c, 7, 69, 127
10, 393960, Note_off_c, 7, 74, 127
10, 393960, Note_on_c, 7, 74, 127
10, 393960, Note_off_c, 7, 69, 127
10, 393960, Note_on_c, 7, 69, 127
10, 394080, Note_off_c, 7, 74, 127
10, 394080, Note_on_c, 7, 74, 127
10, 394080, Note_off_c, 7, 69, 127
10, 394080, Note_on_c, 7, 69, 127
10, 394200, Note_off_c, 7, 74, 127
10, 394200, Note_on_c, 7, 74, 127
10, 394200, Note_off_c, 7, 69, 127
10, 394200, Note_on_c, 7, 69, 127
10, 394320, Note_off_c, 7, 74, 127
10, 394320, Note_on_c, 7, 74, 127
10, 394320, Note_off_c, 7, 69, 127
10, 394320, Note_on_c, 7, 69, 127
10, 394440, Note_off_c, 7, 74, 127
10, 394440, Note_on_c, 7, 74, 127
10, 394440, Note_off_c, 7, 69, 127
10, 394440, Note_on_c, 7, 69, 127
10, 394560, Note_off_c, 7, 74, 127
10, 394560, Note_on_c, 7, 74, 127
10, 394560, Note_off_c, 7, 69, 127
10, 394560, Note_on_c, 7, 69, 127
10, 394680, Note_off_c, 7, 74, 127
10, 394680, Note_on_c, 7, 74, 127
10, 394680, Note_off_c, 7, 69, 127
10, 394680, Note_on_c, 7, 69, 127
10, 394800, Note_off_c, 7, 74, 127
10, 394800, Note_on_c, 7, 74, 127
10, 394800, Note_off_c, 7, 69, 127
10, 394800, Note_on_c, 7, 69, 127
10, 394920, Note_off_c, 7, 74, 127
10, 394920, Note_on_c, 7, 74, 127
10, 394920, Note_off_c, 7, 69, 127
10, 394920, Note_on_c, 7, 69, 127
10, 395040, Note_off_c, 7, 74, 127
10, 395040, Note_on_c, 7, 74, 127
10, 395040, Note_off_c, 7, 69, 127
10, 395040, Note_on_c, 7, 69, 127
10, 395160, Note_off_c, 7, 74, 127
10, 395160, Note_on_c, 7, 74, 127
10, 395160, Note_off_c, 7, 69, 127
10, 395160, Note_on_c, 7, 69, 127
10, 395280, Note_off_c, 7, 74, 127
10, 395280, Note_on_c, 7, 74, 127
10, 395280, Note_off_c, 7, 69, 127
10, 395280, Note_on_c, 7, 69, 127
10, 395400, Note_off_c, 7, 74, 127
10, 395400, Note_on_c, 7, 74, 127
10, 395400, Note_off_c, 7, 69, 127
10, 395400, Note_on_c, 7, 69, 127
10, 395519, Note_off_c, 7, 74, 127
10, 395519, Note_off_c, 7, 69, 127
10, 395520, Note_on_c, 7, 74, 127
10, 395520, Note_on_c, 7, 69, 127
10, 395760, Note_off_c, 7, 74, 127
10, 395760, Note_off_c, 7, 69, 127
10, 395760, Note_on_c, 7, 75, 127
10, 395760, Note_on_c, 7, 70, 127
10, 396000, Note_off_c, 7, 75, 127
10, 396000, Note_off_c, 7, 70, 127
10, 397440, Note_on_c, 7, 75, 127
10, 397440, Note_on_c, 7, 70, 127
10, 397680, Note_off_c, 7, 75, 127
10, 397680, Note_off_c, 7, 70, 127
10, 397680, Note_on_c, 7, 74, 127
10, 397680, Note_on_c, 7, 69, 127
10, 397920, Note_off_c, 7, 74, 127
10, 397920, Note_off_c, 7, 69, 127
10, 398400, Note_on_c, 7, 74, 127
10, 398400, Note_on_c, 7, 69, 127
10, 398640, Note_off_c, 7, 74, 127
10, 398640, Note_off_c, 7, 69, 127
10, 398640, Note_on_c, 7, 75, 127
10, 398640, Note_on_c, 7, 70, 127
10, 398880, Note_off_c, 7, 75, 127
10, 398880, Note_off_c, 7, 70, 127
10, 399360, Note_on_c, 7, 79, 127
10, 399360, Note_on_c, 7, 74, 127
10, 399360, Note_on_c, 7, 67, 127
10, 399600, Note_off_c, 7, 79, 127
10, 399600, Note_off_c, 7, 74, 127
10, 399600, Note_off_c, 7, 67, 127
10, 399600, Note_on_c, 7, 80, 127
10, 399600, Note_on_c, 7, 75, 127
10, 399600, Note_on_c, 7, 68, 127
10, 399840, Note_off_c, 7, 80, 127
10, 399840, Note_off_c, 7, 75, 127
10, 399840, Note_off_c, 7, 68, 127
10, 403200, Note_on_c, 7, 80, 127
10, 403200, Note_on_c, 7, 75, 127
10, 403200, Note_on_c, 7, 68, 127
10, 403440, Note_off_c, 7, 80, 127
10, 403440, Note_off_c, 7, 75, 127
10, 403440, Note_off_c, 7, 68, 127
10, 403440, Note_on_c, 7, 79, 127
10, 403440, Note_on_c, 7, 74, 127
10, 403440, Note_on_c, 7, 67, 127
10, 403680, Note_off_c, 7, 79, 127
10, 403680, Note_off_c, 7, 74, 127
10, 403680, Note_off_c, 7, 67, 127
10, 405120, Note_on_c, 7, 79, 127
10, 405120, Note_on_c, 7, 74, 127
10, 405120, Note_on_c, 7, 67, 127
10, 405360, Note_off_c, 7, 79, 127
10, 405360, Note_off_c, 7, 74, 127
10, 405360, Note_off_c, 7, 67, 127
10, 406080, Note_on_c, 7, 80, 127
10, 406080, Note_on_c, 7, 75, 127
10, 406080, Note_on_c, 7, 68, 127
10, 406320, Note_off_c, 7, 80, 127
10, 406320, Note_off_c, 7, 75, 127
10, 406320, Note_off_c, 7, 68, 127
10, 407040, Note_on_c, 7, 74, 127
10, 407040, Note_on_c, 7, 69, 127
10, 407160, Note_off_c, 7, 74, 127
10, 407160, Note_on_c, 7, 74, 127
10, 407160, Note_off_c, 7, 69, 127
10, 407160, Note_on_c, 7, 69, 127
10, 407280, Note_off_c, 7, 74, 127
10, 407280, Note_on_c, 7, 74, 127
10, 407280, Note_off_c, 7, 69, 127
10, 407280, Note_on_c, 7, 69, 127
10, 407400, Note_off_c, 7, 74, 127
10, 407400, Note_on_c, 7, 74, 127
10, 407400, Note_off_c, 7, 69, 127
10, 407400, Note_on_c, 7, 69, 127
10, 407520, Note_off_c, 7, 74, 127
10, 407520, Note_on_c, 7, 74, 127
10, 407520, Note_off_c, 7, 69, 127
10, 407520, Note_on_c, 7, 69, 127
10, 407640, Note_off_c, 7, 74, 127
10, 407640, Note_on_c, 7, 74, 127
10, 407640, Note_off_c, 7, 69, 127
10, 407640, Note_on_c, 7, 69, 127
10, 407760, Note_off_c, 7, 74, 127
10, 407760, Note_on_c, 7, 74, 127
10, 407760, Note_off_c, 7, 69, 127
10, 407760, Note_on_c, 7, 69, 127
10, 407880, Note_off_c, 7, 74, 127
10, 407880, Note_on_c, 7, 74, 127
10, 407880, Note_off_c, 7, 69, 127
10, 407880, Note_on_c, 7, 69, 127
10, 408000, Note_off_c, 7, 74, 127
10, 408000, Note_on_c, 7, 74, 127
10, 408000, Note_off_c, 7, 69, 127
10, 408000, Note_on_c, 7, 69, 127
10, 408120, Note_off_c, 7, 74, 127
10, 408120, Note_on_c, 7, 74, 127
10, 408120, Note_off_c, 7, 69, 127
10, 408120, Note_on_c, 7, 69, 127
10, 408240, Note_off_c, 7, 74, 127
10, 408240, Note_on_c, 7, 74, 127
10, 408240, Note_off_c, 7, 69, 127
10, 408240, Note_on_c, 7, 69, 127
10, 408360, Note_off_c, 7, 74, 127
10, 408360, Note_on_c, 7, 74, 127
10, 408360, Note_off_c, 7, 69, 127
10, 408360, Note_on_c, 7, 69, 127
10, 408480, Note_off_c, 7, 74, 127
10, 408480, Note_on_c, 7, 74, 127
10, 408480, Note_off_c, 7, 69, 127
10, 408480, Note_on_c, 7, 69, 127
10, 408600, Note_off_c, 7, 74, 127
10, 408600, Note_on_c, 7, 74, 127
10, 408600, Note_off_c, 7, 69, 127
10, 408600, Note_on_c, 7, 69, 127
10, 408720, Note_off_c, 7, 74, 127
10, 408720, Note_on_c, 7, 74, 127
10, 408720, Note_off_c, 7, 69, 127
10, 408720, Note_on_c, 7, 69, 127
10, 408840, Note_off_c, 7, 74, 127
10, 408840, Note_on_c, 7, 74, 127
10, 408840, Note_off_c, 7, 69, 127
10, 408840, Note_on_c, 7, 69, 127
10, 408960, Note_off_c, 7, 74, 127
10, 408960, Note_on_c, 7, 74, 127
10, 408960, Note_off_c, 7, 69, 127
10, 408960, Note_on_c, 7, 69, 127
10, 409080, Note_off_c, 7, 74, 127
10, 409080, Note_on_c, 7, 74, 127
10, 409080, Note_off_c, 7, 69, 127
10, 409080, Note_on_c, 7, 69, 127
10, 409200, Note_off_c, 7, 74, 127
10, 409200, Note_on_c, 7, 74, 127
10, 409200, Note_off_c, 7, 69, 127
10, 409200, Note_on_c, 7, 69, 127
10, 409320, Note_off_c, 7, 74, 127
10, 409320, Note_on_c, 7, 74, 127
10, 409320, Note_off_c, 7, 69, 127
10, 409320, Note_on_c, 7, 69, 127
10, 409440, Note_off_c, 7, 74, 127
10, 409440, Note_on_c, 7, 74, 127
10, 409440, Note_off_c, 7, 69, 127
10, 409440, Note_on_c, 7, 69, 127
10, 409560, Note_off_c, 7, 74, 127
10, 409560, Note_on_c, 7, 74, 127
10, 409560, Note_off_c, 7, 69, 127
10, 409560, Note_on_c, 7, 69, 127
10, 409680, Note_off_c, 7, 74, 127
10, 409680, Note_on_c, 7, 74, 127
10, 409680, Note_off_c, 7, 69, 127
10, 409680, Note_on_c, 7, 69, 127
10, 409800, Note_off_c, 7, 74, 127
10, 409800, Note_on_c, 7, 74, 127
10, 409800, Note_off_c, 7, 69, 127
10, 409800, Note_on_c, 7, 69, 127
10, 409920, Note_off_c, 7, 74, 127
10, 409920, Note_on_c, 7, 74, 127
10, 409920, Note_off_c, 7, 69, 127
10, 409920, Note_on_c, 7, 69, 127
10, 410040, Note_off_c, 7, 74, 127
10, 410040, Note_on_c, 7, 74, 127
10, 410040, Note_off_c, 7, 69, 127
10, 410040, Note_on_c, 7, 69, 127
10, 410160, Note_off_c, 7, 74, 127
10, 410160, Note_on_c, 7, 74, 127
10, 410160, Note_off_c, 7, 69, 127
10, 410160, Note_on_c, 7, 69, 127
10, 410280, Note_off_c, 7, 74, 127
10, 410280, Note_on_c, 7, 74, 127
10, 410280, Note_off_c, 7, 69, 127
10, 410280, Note_on_c, 7, 69, 127
10, 410400, Note_off_c, 7, 74, 127
10, 410400, Note_on_c, 7, 74, 127
10, 410400, Note_off_c, 7, 69, 127
10, 410400, Note_on_c, 7, 69, 127
10, 410520, Note_off_c, 7, 74, 127
10, 410520, Note_on_c, 7, 74, 127
10, 410520, Note_off_c, 7, 69, 127
10, 410520, Note_on_c, 7, 69, 127
10, 410640, Note_off_c, 7, 74, 127
10, 410640, Note_on_c, 7, 74, 127
10, 410640, Note_off_c, 7, 69, 127
10, 410640, Note_on_c, 7, 69, 127
10, 410760, Note_off_c, 7, 74, 127
10, 410760, Note_on_c, 7, 74, 127
10, 410760, Note_off_c, 7, 69, 127
10, 410760, Note_on_c, 7, 69, 127
10, 410879, Note_off_c, 7, 74, 127
10, 410879, Note_off_c, 7, 69, 127
10, 410880, Note_on_c, 7, 74, 127
10, 410880, Note_on_c, 7, 69, 127
10, 411120, Note_off_c, 7, 74, 127
10, 411120, Note_off_c, 7, 69, 127
10, 411120, Note_on_c, 7, 75, 127
10, 411120, Note_on_c, 7, 70, 127
10, 411360, Note_off_c, 7, 75, 127
10, 411360, Note_off_c, 7, 70, 127
10, 412800, Note_on_c, 7, 75, 127
10, 412800, Note_on_c, 7, 70, 127
10, 413040, Note_off_c, 7, 75, 127
10, 413040, Note_off_c, 7, 70, 127
10, 413040, Note_on_c, 7, 74, 127
10, 413040, Note_on_c, 7, 69, 127
10, 413280, Note_off_c, 7, 74, 127
10, 413280, Note_off_c, 7, 69, 127
10, 413760, Note_on_c, 7, 74, 127
10, 413760, Note_on_c, 7, 69, 127
10, 414000, Note_off_c, 7, 74, 127
10, 414000, Note_off_c, 7, 69, 127
10, 414000, Note_on_c, 7, 75, 127
10, 414000, Note_on_c, 7, 70, 127
10, 414240, Note_off_c, 7, 75, 127
10, 414240, Note_off_c, 7, 70, 127
10, 414720, Note_on_c, 7, 79, 127
10, 414720, Note_on_c, 7, 74, 127
10, 414720, Note_on_c, 7, 67, 127
10, 414960, Note_off_c, 7, 79, 127
10, 414960, Note_off_c, 7, 74, 127
10, 414960, Note_off_c, 7, 67, 127
10, 414960, Note_on_c, 7, 80, 127
10, 414960, Note_on_c, 7, 75, 127
10, 414960, Note_on_c, 7, 68, 127
10, 415200, Note_off_c, 7, 80, 127
10, 415200, Note_off_c, 7, 75, 127
10, 415200, Note_off_c, 7, 68, 127
10, 418560, Note_on_c, 7, 80, 127
10, 418560, Note_on_c, 7, 75, 127
10, 418560, Note_on_c, 7, 68, 127
10, 418800, Note_off_c, 7, 80, 127
10, 418800, Note_off_c, 7, 75, 127
10, 418800, Note_off_c, 7, 68, 127
10, 418800, Note_on_c, 7, 79, 127
10, 418800, Note_on_c, 7, 74, 127
10, 418800, Note_on_c, 7, 67, 127
10, 419040, Note_off_c, 7, 79, 127
10, 419040, Note_off_c, 7, 74, 127
10, 419040, Note_off_c, 7, 67, 127
10, 420480, Note_on_c, 7, 79, 127
10, 420480, Note_on_c, 7, 74, 127
10, 420480, Note_on_c, 7, 67, 127
10, 420720, Note_off_c, 7, 79, 127
10, 420720, Note_off_c, 7, 74, 127
10, 420720, Note_off_c, 7, 67, 127
10, 421440, Note_on_c, 7, 80, 127
10, 421440, Note_on_c, 7, 75, 127
10, 421440, Note_on_c, 7, 68, 127
10, 421680, Note_off_c, 7, 80, 127
10, 421680, Note_off_c, 7, 75, 127
10, 421680, Note_off_c, 7, 68, 127
10, 422400, Note_on_c, 7, 74, 127
10, 422400, Note_on_c, 7, 69, 127
10, 422520, Note_off_c, 7, 74, 127
10, 422520, Note_on_c, 7, 74, 127
10, 422520, Note_off_c, 7, 69, 127
10, 422520, Note_on_c, 7, 69, 127
10, 422640, Note_off_c, 7, 74, 127
10, 422640, Note_on_c, 7, 74, 127
10, 422640, Note_off_c, 7, 69, 127
10, 422640, Note_on_c, 7, 69, 127
10, 422760, Note_off_c, 7, 74, 127
10, 422760, Note_on_c, 7, 74, 127
10, 422760, Note_off_c, 7, 69, 127
10, 422760, Note_on_c, 7, 69, 127
10, 422880, Note_off_c, 7, 74, 127
10, 422880, Note_on_c, 7, 74, 127
10, 422880, Note_off_c, 7, 69, 127
10, 422880, Note_on_c, 7, 69, 127
10, 423000, Note_off_c, 7, 74, 127
10, 423000, Note_on_c, 7, 74, 127
10, 423000, Note_off_c, 7, 69, 127
10, 423000, Note_on_c, 7, 69, 127
10, 423120, Note_off_c, 7, 74, 127
10, 423120, Note_on_c, 7, 74, 127
10, 423120, Note_off_c, 7, 69, 127
10, 423120, Note_on_c, 7, 69, 127
10, 423240, Note_off_c, 7, 74, 127
10, 423240, Note_on_c, 7, 74, 127
10, 423240, Note_off_c, 7, 69, 127
10, 423240, Note_on_c, 7, 69, 127
10, 423360, Note_off_c, 7, 74, 127
10, 423360, Note_on_c, 7, 74, 127
10, 423360, Note_off_c, 7, 69, 127
10, 423360, Note_on_c, 7, 69, 127
10, 423480, Note_off_c, 7, 74, 127
10, 423480, Note_on_c, 7, 74, 127
10, 423480, Note_off_c, 7, 69, 127
10, 423480, Note_on_c, 7, 69, 127
10, 423600, Note_off_c, 7, 74, 127
10, 423600, Note_on_c, 7, 74, 127
10, 423600, Note_off_c, 7, 69, 127
10, 423600, Note_on_c, 7, 69, 127
10, 423720, Note_off_c, 7, 74, 127
10, 423720, Note_on_c, 7, 74, 127
10, 423720, Note_off_c, 7, 69, 127
10, 423720, Note_on_c, 7, 69, 127
10, 423840, Note_off_c, 7, 74, 127
10, 423840, Note_on_c, 7, 74, 127
10, 423840, Note_off_c, 7, 69, 127
10, 423840, Note_on_c, 7, 69, 127
10, 423960, Note_off_c, 7, 74, 127
10, 423960, Note_on_c, 7, 74, 127
10, 423960, Note_off_c, 7, 69, 127
10, 423960, Note_on_c, 7, 69, 127
10, 424080, Note_off_c, 7, 74, 127
10, 424080, Note_on_c, 7, 74, 127
10, 424080, Note_off_c, 7, 69, 127
10, 424080, Note_on_c, 7, 69, 127
10, 424200, Note_off_c, 7, 74, 127
10, 424200, Note_on_c, 7, 74, 127
10, 424200, Note_off_c, 7, 69, 127
10, 424200, Note_on_c, 7, 69, 127
10, 424320, Note_off_c, 7, 74, 127
10, 424320, Note_on_c, 7, 74, 127
10, 424320, Note_off_c, 7, 69, 127
10, 424320, Note_on_c, 7, 69, 127
10, 424440, Note_off_c, 7, 74, 127
10, 424440, Note_on_c, 7, 74, 127
10, 424440, Note_off_c, 7, 69, 127
10, 424440, Note_on_c, 7, 69, 127
10, 424560, Note_off_c, 7, 74, 127
10, 424560, Note_on_c, 7, 74, 127
10, 424560, Note_off_c, 7, 69, 127
10, 424560, Note_on_c, 7, 69, 127
10, 424680, Note_off_c, 7, 74, 127
10, 424680, Note_on_c, 7, 74, 127
10, 424680, Note_off_c, 7, 69, 127
10, 424680, Note_on_c, 7, 69, 127
10, 424800, Note_off_c, 7, 74, 127
10, 424800, Note_on_c, 7, 74, 127
10, 424800, Note_off_c, 7, 69, 127
10, 424800, Note_on_c, 7, 69, 127
10, 424920, Note_off_c, 7, 74, 127
10, 424920, Note_on_c, 7, 74, 127
10, 424920, Note_off_c, 7, 69, 127
10, 424920, Note_on_c, 7, 69, 127
10, 425040, Note_off_c, 7, 74, 127
10, 425040, Note_on_c, 7, 74, 127
10, 425040, Note_off_c, 7, 69, 127
10, 425040, Note_on_c, 7, 69, 127
10, 425160, Note_off_c, 7, 74, 127
10, 425160, Note_on_c, 7, 74, 127
10, 425160, Note_off_c, 7, 69, 127
10, 425160, Note_on_c, 7, 69, 127
10, 425280, Note_off_c, 7, 74, 127
10, 425280, Note_on_c, 7, 74, 127
10, 425280, Note_off_c, 7, 69, 127
10, 425280, Note_on_c, 7, 69, 127
10, 425400, Note_off_c, 7, 74, 127
10, 425400, Note_on_c, 7, 74, 127
10, 425400, Note_off_c, 7, 69, 127
10, 425400, Note_on_c, 7, 69, 127
10, 425520, Note_off_c, 7, 74, 127
10, 425520, Note_on_c, 7, 74, 127
10, 425520, Note_off_c, 7, 69, 127
10, 425520, Note_on_c, 7, 69, 127
10, 425640, Note_off_c, 7, 74, 127
10, 425640, Note_on_c, 7, 74, 127
10, 425640, Note_off_c, 7, 69, 127
10, 425640, Note_on_c, 7, 69, 127
10, 425760, Note_off_c, 7, 74, 127
10, 425760, Note_on_c, 7, 74, 127
10, 425760, Note_off_c, 7, 69, 127
10, 425760, Note_on_c, 7, 69, 127
10, 425880, Note_off_c, 7, 74, 127
10, 425880, Note_on_c, 7, 74, 127
10, 425880, Note_off_c, 7, 69, 127
10, 425880, Note_on_c, 7, 69, 127
10, 426000, Note_off_c, 7, 74, 127
10, 426000, Note_on_c, 7, 74, 127
10, 426000, Note_off_c, 7, 69, 127
10, 426000, Note_on_c, 7, 69, 127
10, 426120, Note_off_c, 7, 74, 127
10, 426120, Note_on_c, 7, 74, 127
10, 426120, Note_off_c, 7, 69, 127
10, 426120, Note_on_c, 7, 69, 127
10, 426239, Note_off_c, 7, 74, 127
10, 426239, Note_off_c, 7, 69, 127
10, 426240, Note_on_c, 7, 74, 127
10, 426240, Note_on_c, 7, 69, 127
10, 426480, Note_off_c, 7, 74, 127
10, 426480, Note_off_c, 7, 69, 127
10, 426480, Note_on_c, 7, 75, 127
10, 426480, Note_on_c, 7, 70, 127
10, 426720, Note_off_c, 7, 75, 127
10, 426720, Note_off_c, 7, 70, 127
10, 428160, Note_on_c, 7, 75, 127
10, 428160, Note_on_c, 7, 70, 127
10, 428400, Note_off_c, 7, 75, 127
10, 428400, Note_off_c, 7, 70, 127
10, 428400, Note_on_c, 7, 74, 127
10, 428400, Note_on_c, 7, 69, 127
10, 428640, Note_off_c, 7, 74, 127
10, 428640, Note_off_c, 7, 69, 127
10, 429120, Note_on_c, 7, 74, 127
10, 429120, Note_on_c, 7, 69, 127
10, 429360, Note_off_c, 7, 74, 127
10, 429360, Note_off_c, 7, 69, 127
10, 429360, Note_on_c, 7, 75, 127
10, 429360, Note_on_c, 7, 70, 127
10, 429600, Note_off_c, 7, 75, 127
10, 429600, Note_off_c, 7, 70, 127
10, 430080, Note_on_c, 7, 79, 127
10, 430080, Note_on_c, 7, 74, 127
10, 430080, Note_on_c, 7, 67, 127
10, 430320, Note_off_c, 7, 79, 127
10, 430320, Note_off_c, 7, 74, 127
10, 430320, Note_off_c, 7, 67, 127
10, 430320, Note_on_c, 7, 80, 127
10, 430320, Note_on_c, 7, 75, 127
10, 430320, Note_on_c, 7, 68, 127
10, 430560, Note_off_c, 7, 80, 127
10, 430560, Note_off_c, 7, 75, 127
10, 430560, Note_off_c, 7, 68, 127
10, 433920, Note_on_c, 7, 80, 127
10, 433920, Note_on_c, 7, 75, 127
10, 433920, Note_on_c, 7, 68, 127
10, 434160, Note_off_c, 7, 80, 127
10, 434160, Note_off_c, 7, 75, 127
10, 434160, Note_off_c, 7, 68, 127
10, 434160, Note_on_c, 7, 79, 127
10, 434160, Note_on_c, 7, 74, 127
10, 434160, Note_on_c, 7, 67, 127
10, 434400, Note_off_c, 7, 79, 127
10, 434400, Note_off_c, 7, 74, 127
10, 434400, Note_off_c, 7, 67, 127
10, 435840, Note_on_c, 7, 79, 127
10, 435840, Note_on_c, 7, 74, 127
10, 435840, Note_on_c, 7, 67, 127
10, 436080, Note_off_c, 7, 79, 127
10, 436080, Note_off_c, 7, 74, 127
10, 436080, Note_off_c, 7, 67, 127
10, 436800, Note_on_c, 7, 80, 127
10, 436800, Note_on_c, 7, 75, 127
10, 436800, Note_on_c, 7, 68, 127
10, 437040, Note_off_c, 7, 80, 127
10, 437040, Note_off_c, 7, 75, 127
10, 437040, Note_off_c, 7, 68, 127
10, 437760, Note_on_c, 7, 74, 127
10, 437760, Note_on_c, 7, 69, 127
10, 437880, Note_off_c, 7, 74, 127
10, 437880, Note_on_c, 7, 74, 127
10, 437880, Note_off_c, 7, 69, 127
10, 437880, Note_on_c, 7, 69, 127
10, 438000, Note_off_c, 7, 74, 127
10, 438000, Note_on_c, 7, 74, 127
10, 438000, Note_off_c, 7, 69, 127
10, 438000, Note_on_c, 7, 69, 127
10, 438120, Note_off_c, 7, 74, 127
10, 438120, Note_on_c, 7, 74, 127
10, 438120, Note_off_c, 7, 69, 127
10, 438120, Note_on_c, 7, 69, 127
10, 438240, Note_off_c, 7, 74, 127
10, 438240, Note_on_c, 7, 74, 127
10, 438240, Note_off_c, 7, 69, 127
10, 438240, Note_on_c, 7, 69, 127
10, 438360, Note_off_c, 7, 74, 127
10, 438360, Note_on_c, 7, 74, 127
10, 438360, Note_off_c, 7, 69, 127
10, 438360, Note_on_c, 7, 69, 127
10, 438480, Note_off_c, 7, 74, 127
10, 438480, Note_on_c, 7, 74, 127
10, 438480, Note_off_c, 7, 69, 127
10, 438480, Note_on_c, 7, 69, 127
10, 438600, Note_off_c, 7, 74, 127
10, 438600, Note_on_c, 7, 74, 127
10, 438600, Note_off_c, 7, 69, 127
10, 438600, Note_on_c, 7, 69, 127
10, 438720, Note_off_c, 7, 74, 127
10, 438720, Note_on_c, 7, 74, 127
10, 438720, Note_off_c, 7, 69, 127
10, 438720, Note_on_c, 7, 69, 127
10, 438840, Note_off_c, 7, 74, 127
10, 438840, Note_on_c, 7, 74, 127
10, 438840, Note_off_c, 7, 69, 127
10, 438840, Note_on_c, 7, 69, 127
10, 438960, Note_off_c, 7, 74, 127
10, 438960, Note_on_c, 7, 74, 127
10, 438960, Note_off_c, 7, 69, 127
10, 438960, Note_on_c, 7, 69, 127
10, 439080, Note_off_c, 7, 74, 127
10, 439080, Note_on_c, 7, 74, 127
10, 439080, Note_off_c, 7, 69, 127
10, 439080, Note_on_c, 7, 69, 127
10, 439200, Note_off_c, 7, 74, 127
10, 439200, Note_on_c, 7, 74, 127
10, 439200, Note_off_c, 7, 69, 127
10, 439200, Note_on_c, 7, 69, 127
10, 439320, Note_off_c, 7, 74, 127
10, 439320, Note_on_c, 7, 74, 127
10, 439320, Note_off_c, 7, 69, 127
10, 439320, Note_on_c, 7, 69, 127
10, 439440, Note_off_c, 7, 74, 127
10, 439440, Note_on_c, 7, 74, 127
10, 439440, Note_off_c, 7, 69, 127
10, 439440, Note_on_c, 7, 69, 127
10, 439560, Note_off_c, 7, 74, 127
10, 439560, Note_on_c, 7, 74, 127
10, 439560, Note_off_c, 7, 69, 127
10, 439560, Note_on_c, 7, 69, 127
10, 439680, Note_off_c, 7, 74, 127
10, 439680, Note_on_c, 7, 74, 127
10, 439680, Note_off_c, 7, 69, 127
10, 439680, Note_on_c, 7, 69, 127
10, 439800, Note_off_c, 7, 74, 127
10, 439800, Note_on_c, 7, 74, 127
10, 439800, Note_off_c, 7, 69, 127
10, 439800, Note_on_c, 7, 69, 127
10, 439920, Note_off_c, 7, 74, 127
10, 439920, Note_on_c, 7, 74, 127
10, 439920, Note_off_c, 7, 69, 127
10, 439920, Note_on_c, 7, 69, 127
10, 440040, Note_off_c, 7, 74, 127
10, 440040, Note_on_c, 7, 74, 127
10, 440040, Note_off_c, 7, 69, 127
10, 440040, Note_on_c, 7, 69, 127
10, 440160, Note_off_c, 7, 74, 127
10, 440160, Note_on_c, 7, 74, 127
10, 440160, Note_off_c, 7, 69, 127
10, 440160, Note_on_c, 7, 69, 127
10, 440280, Note_off_c, 7, 74, 127
10, 440280, Note_on_c, 7, 74, 127
10, 440280, Note_off_c, 7, 69, 127
10, 440280, Note_on_c, 7, 69, 127
10, 440400, Note_off_c, 7, 74, 127
10, 440400, Note_on_c, 7, 74, 127
10, 440400, Note_off_c, 7, 69, 127
10, 440400, Note_on_c, 7, 69, 127
10, 440520, Note_off_c, 7, 74, 127
10, 440520, Note_on_c, 7, 74, 127
10, 440520, Note_off_c, 7, 69, 127
10, 440520, Note_on_c, 7, 69, 127
10, 440640, Note_off_c, 7, 74, 127
10, 440640, Note_on_c, 7, 74, 127
10, 440640, Note_off_c, 7, 69, 127
10, 440640, Note_on_c, 7, 69, 127
10, 440760, Note_off_c, 7, 74, 127
10, 440760, Note_on_c, 7, 74, 127
10, 440760, Note_off_c, 7, 69, 127
10, 440760, Note_on_c, 7, 69, 127
10, 440880, Note_off_c, 7, 74, 127
10, 440880, Note_on_c, 7, 74, 127
10, 440880, Note_off_c, 7, 69, 127
10, 440880, Note_on_c, 7, 69, 127
10, 441000, Note_off_c, 7, 74, 127
10, 441000, Note_on_c, 7, 74, 127
10, 441000, Note_off_c, 7, 69, 127
10, 441000, Note_on_c, 7, 69, 127
10, 441120, Note_off_c, 7, 74, 127
10, 441120, Note_on_c, 7, 74, 127
10, 441120, Note_off_c, 7, 69, 127
10, 441120, Note_on_c, 7, 69, 127
10, 441240, Note_off_c, 7, 74, 127
10, 441240, Note_on_c, 7, 74, 127
10, 441240, Note_off_c, 7, 69, 127
10, 441240, Note_on_c, 7, 69, 127
10, 441360, Note_off_c, 7, 74, 127
10, 441360, Note_on_c, 7, 74, 127
10, 441360, Note_off_c, 7, 69, 127
10, 441360, Note_on_c, 7, 69, 127
10, 441480, Note_off_c, 7, 74, 127
10, 441480, Note_on_c, 7, 74, 127
10, 441480, Note_off_c, 7, 69, 127
10, 441480, Note_on_c, 7, 69, 127
10, 441599, Note_off_c, 7, 74, 127
10, 441599, Note_off_c, 7, 69, 127
10, 441600, Note_on_c, 7, 74, 127
10, 441600, Note_on_c, 7, 69, 127
10, 441840, Note_off_c, 7, 74, 127
10, 441840, Note_off_c, 7, 69, 127
10, 441840, Note_on_c, 7, 75, 127
10, 441840, Note_on_c, 7, 70, 127
10, 442080, Note_off_c, 7, 75, 127
10, 442080, Note_off_c, 7, 70, 127
10, 443520, Note_on_c, 7, 75, 127
10, 443520, Note_on_c, 7, 70, 127
10, 443760, Note_off_c, 7, 75, 127
10, 443760, Note_off_c, 7, 70, 127
10, 443760, Note_on_c, 7, 74, 127
10, 443760, Note_on_c, 7, 69, 127
10, 444000, Note_off_c, 7, 74, 127
10, 444000, Note_off_c, 7, 69, 127
10, 444480, Note_on_c, 7, 74, 127
10, 444480, Note_on_c, 7, 69, 127
10, 444720, Note_off_c, 7, 74, 127
10, 444720, Note_off_c, 7, 69, 127
10, 444720, Note_on_c, 7, 75, 127
10, 444720, Note_on_c, 7, 70, 127
10, 444960, Note_off_c, 7, 75, 127
10, 444960, Note_off_c, 7, 70, 127
10, 446160, Note_on_c, 7, 83, 127
10, 446280, Note_off_c, 7, 83, 127
10, 446280, Note_on_c, 7, 85, 102
10, 446400, Note_off_c, 7, 85, 102
10, 446400, Note_on_c, 7, 86, 102
10, 446880, Note_off_c, 7, 86, 102
10, 447120, Note_on_c, 7, 85, 127
10, 447360, Note_off_c, 7, 85, 127
10, 447360, Note_on_c, 7, 86, 102
10, 447480, Note_off_c, 7, 86, 102
10, 447480, Note_on_c, 7, 86, 102
10, 447600, Note_off_c, 7, 86, 102
10, 447600, Note_on_c, 7, 86, 102
10, 447720, Note_off_c, 7, 86, 102
10, 447720, Note_on_c, 7, 86, 102
10, 447840, Note_off_c, 7, 86, 102
10, 447840, Note_on_c, 7, 86, 102
10, 447960, Note_off_c, 7, 86, 102
10, 447960, Note_on_c, 7, 86, 102
10, 448080, Note_off_c, 7, 86, 102
10, 448080, Note_on_c, 7, 86, 102
10, 448200, Note_off_c, 7, 86, 102
10, 448200, Note_on_c, 7, 86, 102
10, 448319, Note_off_c, 7, 86, 102
10, 449040, Note_on_c, 7, 83, 127
10, 449160, Note_off_c, 7, 83, 127
10, 449160, Note_on_c, 7, 85, 102
10, 449280, Note_off_c, 7, 85, 102
10, 449280, Note_on_c, 7, 86, 102
10, 449760, Note_off_c, 7, 86, 102
10, 450000, Note_on_c, 7, 85, 127
10, 450240, Note_off_c, 7, 85, 127
10, 450240, Note_on_c, 7, 86, 102
10, 450360, Note_off_c, 7, 86, 102
10, 450360, Note_on_c, 7, 86, 102
10, 450480, Note_off_c, 7, 86, 102
10, 450480, Note_on_c, 7, 86, 102
10, 450600, Note_off_c, 7, 86, 102
10, 450600, Note_on_c, 7, 86, 102
10, 450720, Note_off_c, 7, 86, 102
10, 450720, Note_on_c, 7, 86, 102
10, 450840, Note_off_c, 7, 86, 102
10, 450840, Note_on_c, 7, 86, 102
10, 450960, Note_off_c, 7, 86, 102
10, 450960, Note_on_c, 7, 86, 102
10, 451080, Note_off_c, 7, 86, 102
10, 451080, Note_on_c, 7, 86, 102
10, 451199, Note_off_c, 7, 86, 102
10, 451920, Note_on_c, 7, 83, 127
10, 452040, Note_off_c, 7, 83, 127
10, 452040, Note_on_c, 7, 85, 102
10, 452160, Note_off_c, 7, 85, 102
10, 452160, Note_on_c, 7, 86, 102
10, 452640, Note_off_c, 7, 86, 102
10, 452880, Note_on_c, 7, 83, 127
10, 453120, Note_off_c, 7, 83, 127
10, 453120, Note_on_c, 7, 85, 102
10, 453240, Note_off_c, 7, 85, 102
10, 453240, Note_on_c, 7, 85, 102
10, 453360, Note_off_c, 7, 85, 102
10, 453360, Note_on_c, 7, 85, 102
10, 453480, Note_off_c, 7, 85, 102
10, 453480, Note_on_c, 7, 85, 102
10, 453600, Note_off_c, 7, 85, 102
10, 453600, Note_on_c, 7, 85, 102
10, 453720, Note_off_c, 7, 85, 102
10, 453720, Note_on_c, 7, 85, 102
10, 453840, Note_off_c, 7, 85, 102
10, 453840, Note_on_c, 7, 85, 102
10, 453960, Note_off_c, 7, 85, 102
10, 453960, Note_on_c, 7, 85, 102
10, 454079, Note_off_c, 7, 85, 102
10, 454320, Note_on_c, 7, 81, 127
10, 454560, Note_off_c, 7, 81, 127
10, 454560, Note_on_c, 7, 78, 127
10, 454800, Note_off_c, 7, 78, 127
10, 454800, Note_on_c, 7, 81, 127
10, 455040, Note_off_c, 7, 81, 127
10, 455040, Note_on_c, 7, 88, 127
10, 455160, Note_off_c, 7, 88, 127
10, 455160, Note_on_c, 7, 88, 127
10, 455280, Note_off_c, 7, 88, 127
10, 455280, Note_on_c, 7, 88, 127
10, 455400, Note_off_c, 7, 88, 127
10, 455400, Note_on_c, 7, 88, 127
10, 455520, Note_off_c, 7, 88, 127
10, 455520, Note_on_c, 7, 88, 127
10, 455640, Note_off_c, 7, 88, 127
10, 455640, Note_on_c, 7, 88, 127
10, 455759, Note_off_c, 7, 88, 127
10, 455760, Note_on_c, 7, 82, 127
10, 455880, Note_off_c, 7, 82, 127
10, 455880, Note_on_c, 7, 88, 127
10, 456000, Note_off_c, 7, 88, 127
10, 456000, Note_on_c, 7, 85, 127
10, 456120, Note_off_c, 7, 85, 127
10, 456120, Note_on_c, 7, 85, 127
10, 456240, Note_off_c, 7, 85, 127
10, 456240, Note_on_c, 7, 85, 127
10, 456360, Note_off_c, 7, 85, 127
10, 456360, Note_on_c, 7, 85, 127
10, 456480, Note_off_c, 7, 85, 127
10, 456480, Note_on_c, 7, 85, 127
10, 456600, Note_off_c, 7, 85, 127
10, 456600, Note_on_c, 7, 85, 127
10, 456720, Note_off_c, 7, 85, 127
10, 456720, Note_on_c, 7, 85, 127
10, 456840, Note_off_c, 7, 85, 127
10, 456840, Note_on_c, 7, 85, 127
10, 456959, Note_off_c, 7, 85, 127
10, 457680, Note_on_c, 7, 83, 127
10, 457800, Note_off_c, 7, 83, 127
10, 457800, Note_on_c, 7, 85, 102
10, 457920, Note_off_c, 7, 85, 102
10, 457920, Note_on_c, 7, 86, 102
10, 458400, Note_off_c, 7, 86, 102
10, 458640, Note_on_c, 7, 85, 127
10, 458880, Note_off_c, 7, 85, 127
10, 458880, Note_on_c, 7, 86, 102
10, 459000, Note_off_c, 7, 86, 102
10, 459000, Note_on_c, 7, 86, 102
10, 459120, Note_off_c, 7, 86, 102
10, 459120, Note_on_c, 7, 86, 102
10, 459240, Note_off_c, 7, 86, 102
10, 459240, Note_on_c, 7, 86, 102
10, 459360, Note_off_c, 7, 86, 102
10, 459360, Note_on_c, 7, 86, 102
10, 459480, Note_off_c, 7, 86, 102
10, 459480, Note_on_c, 7, 86, 102
10, 459600, Note_off_c, 7, 86, 102
10, 459600, Note_on_c, 7, 86, 102
10, 459720, Note_off_c, 7, 86, 102
10, 459720, Note_on_c, 7, 86, 102
10, 459839, Note_off_c, 7, 86, 102
10, 460560, Note_on_c, 7, 83, 127
10, 460680, Note_off_c, 7, 83, 127
10, 460680, Note_on_c, 7, 85, 102
10, 460800, Note_off_c, 7, 85, 102
10, 460800, Note_on_c, 7, 86, 102
10, 461280, Note_off_c, 7, 86, 102
10, 461520, Note_on_c, 7, 85, 127
10, 461760, Note_off_c, 7, 85, 127
10, 461760, Note_on_c, 7, 86, 102
10, 461880, Note_off_c, 7, 86, 102
10, 461880, Note_on_c, 7, 86, 102
10, 462000, Note_off_c, 7, 86, 102
10, 462000, Note_on_c, 7, 86, 102
10, 462120, Note_off_c, 7, 86, 102
10, 462120, Note_on_c, 7, 86, 102
10, 462240, Note_off_c, 7, 86, 102
10, 462240, Note_on_c, 7, 86, 102
10, 462360, Note_off_c, 7, 86, 102
10, 462360, Note_on_c, 7, 86, 102
10, 462480, Note_off_c, 7, 86, 102
10, 462480, Note_on_c, 7, 86, 102
10, 462600, Note_off_c, 7, 86, 102
10, 462600, Note_on_c, 7, 86, 102
10, 462719, Note_off_c, 7, 86, 102
10, 463440, Note_on_c, 7, 83, 127
10, 463560, Note_off_c, 7, 83, 127
10, 463560, Note_on_c, 7, 85, 102
10, 463680, Note_off_c, 7, 85, 102
10, 463680, Note_on_c, 7, 86, 102
10, 464160, Note_off_c, 7, 86, 102
10, 464400, Note_on_c, 7, 83, 127
10, 464640, Note_off_c, 7, 83, 127
10, 464640, Note_on_c, 7, 85, 102
10, 464760, Note_off_c, 7, 85, 102
10, 464760, Note_on_c, 7, 85, 102
10, 464880, Note_off_c, 7, 85, 102
10, 464880, Note_on_c, 7, 85, 102
10, 465000, Note_off_c, 7, 85, 102
10, 465000, Note_on_c, 7, 85, 102
10, 465120, Note_off_c, 7, 85, 102
10, 465120, Note_on_c, 7, 85, 102
10, 465240, Note_off_c, 7, 85, 102
10, 465240, Note_on_c, 7, 85, 102
10, 465360, Note_off_c, 7, 85, 102
10, 465360, Note_on_c, 7, 85, 102
10, 465480, Note_off_c, 7, 85, 102
10, 465480, Note_on_c, 7, 85, 102
10, 465599, Note_off_c, 7, 85, 102
10, 465840, Note_on_c, 7, 81, 127
10, 466080, Note_off_c, 7, 81, 127
10, 466080, Note_on_c, 7, 78, 127
10, 466320, Note_off_c, 7, 78, 127
10, 466320, Note_on_c, 7, 81, 127
10, 466560, Note_off_c, 7, 81, 127
10, 466560, Note_on_c, 7, 88, 127
10, 466680, Note_off_c, 7, 88, 127
10, 466680, Note_on_c, 7, 88, 127
10, 466800, Note_off_c, 7, 88, 127
10, 466800, Note_on_c, 7, 88, 127
10, 466920, Note_off_c, 7, 88, 127
10, 466920, Note_on_c, 7, 88, 127
10, 467040, Note_off_c, 7, 88, 127
10, 467040, Note_on_c, 7, 88, 127
10, 467160, Note_off_c, 7, 88, 127
10, 467160, Note_on_c, 7, 88, 127
10, 467279, Note_off_c, 7, 88, 127
10, 467280, Note_on_c, 7, 82, 127
10, 467400, Note_off_c, 7, 82, 127
10, 467400, Note_on_c, 7, 88, 127
10, 467520, Note_off_c, 7, 88, 127
10, 467520, Note_on_c, 7, 85, 127
10, 467640, Note_off_c, 7, 85, 127
10, 467640, Note_on_c, 7, 85, 127
10, 467760, Note_off_c, 7, 85, 127
10, 467760, Note_on_c, 7, 85, 127
10, 467880, Note_off_c, 7, 85, 127
10, 467880, Note_on_c, 7, 85, 127
10, 468000, Note_off_c, 7, 85, 127
10, 468000, Note_on_c, 7, 85, 127
10, 468120, Note_off_c, 7, 85, 127
10, 468120, Note_on_c, 7, 85, 127
10, 468240, Note_off_c, 7, 85, 127
10, 468240, Note_on_c, 7, 85, 127
10, 468360, Note_off_c, 7, 85, 127
10, 468360, Note_on_c, 7, 85, 127
10, 468479, Note_off_c, 7, 85, 127
10, 469200, Note_on_c, 7, 83, 127
10, 469320, Note_off_c, 7, 83, 127
10, 469320, Note_on_c, 7, 85, 102
10, 469440, Note_off_c, 7, 85, 102
10, 469440, Note_on_c, 7, 86, 102
10, 469920, Note_off_c, 7, 86, 102
10, 470160, Note_on_c, 7, 85, 127
10, 470400, Note_off_c, 7, 85, 127
10, 470400, Note_on_c, 7, 86, 102
10, 470520, Note_off_c, 7, 86, 102
10, 470520, Note_on_c, 7, 86, 102
10, 470640, Note_off_c, 7, 86, 102
10, 470640, Note_on_c, 7, 86, 102
10, 470760, Note_off_c, 7, 86, 102
10, 470760, Note_on_c, 7, 86, 102
10, 470880, Note_off_c, 7, 86, 102
10, 470880, Note_on_c, 7, 86, 102
10, 471000, Note_off_c, 7, 86, 102
10, 471000, Note_on_c, 7, 86, 102
10, 471120, Note_off_c, 7, 86, 102
10, 471120, Note_on_c, 7, 86, 102
10, 471240, Note_off_c, 7, 86, 102
10, 471240, Note_on_c, 7, 86, 102
10, 471359, Note_off_c, 7, 86, 102
10, 472080, Note_on_c, 7, 83, 127
10, 472200, Note_off_c, 7, 83, 127
10, 472200, Note_on_c, 7, 85, 102
10, 472320, Note_off_c, 7, 85, 102
10, 472320, Note_on_c, 7, 86, 102
10, 472800, Note_off_c, 7, 86, 102
10, 473040, Note_on_c, 7, 85, 127
10, 473280, Note_off_c, 7, 85, 127
10, 473280, Note_on_c, 7, 86, 102
10, 473400, Note_off_c, 7, 86, 102
10, 473400, Note_on_c, 7, 86, 102
10, 473520, Note_off_c, 7, 86, 102
10, 473520, Note_on_c, 7, 86, 102
10, 473640, Note_off_c, 7, 86, 102
10, 473640, Note_on_c, 7, 86, 102
10, 473760, Note_off_c, 7, 86, 102
10, 473760, Note_on_c, 7, 86, 102
10, 473880, Note_off_c, 7, 86, 102
10, 473880, Note_on_c, 7, 86, 102
10, 474000, Note_off_c, 7, 86, 102
10, 474000, Note_on_c, 7, 86, 102
10, 474120, Note_off_c, 7, 86, 102
10, 474120, Note_on_c, 7, 86, 102
10, 474239, Note_off_c, 7, 86, 102
10, 474960, Note_on_c, 7, 83, 127
10, 475080, Note_off_c, 7, 83, 127
10, 475080, Note_on_c, 7, 85, 102
10, 475200, Note_off_c, 7, 85, 102
10, 475200, Note_on_c, 7, 86, 102
10, 475680, Note_off_c, 7, 86, 102
10, 475920, Note_on_c, 7, 83, 127
10, 476160, Note_off_c, 7, 83, 127
10, 476160, Note_on_c, 7, 85, 102
10, 476280, Note_off_c, 7, 85, 102
10, 476280, Note_on_c, 7, 85, 102
10, 476400, Note_off_c, 7, 85, 102
10, 476400, Note_on_c, 7, 85, 102
10, 476520, Note_off_c, 7, 85, 102
10, 476520, Note_on_c, 7, 85, 102
10, 476640, Note_off_c, 7, 85, 102
10, 476640, Note_on_c, 7, 85, 102
10, 476760, Note_off_c, 7, 85, 102
10, 476760, Note_on_c, 7, 85, 102
10, 476880, Note_off_c, 7, 85, 102
10, 476880, Note_on_c, 7, 85, 102
10, 477000, Note_off_c, 7, 85, 102
10, 477000, Note_on_c, 7, 85, 102
10, 477119, Note_off_c, 7, 85, 102
10, 477360, Note_on_c, 7, 81, 127
10, 477600, Note_off_c, 7, 81, 127
10, 477600, Note_on_c, 7, 78, 127
10, 477840, Note_off_c, 7, 78, 127
10, 477840, Note_on_c, 7, 81, 127
10, 478080, Note_off_c, 7, 81, 127
10, 478080, Note_on_c, 7, 88, 127
10, 478200, Note_off_c, 7, 88, 127
10, 478200, Note_on_c, 7, 88, 127
10, 478320, Note_off_c, 7, 88, 127
10, 478320, Note_on_c, 7, 88, 127
10, 478440, Note_off_c, 7, 88, 127
10, 478440, Note_on_c, 7, 88, 127
10, 478560, Note_off_c, 7, 88, 127
10, 478560, Note_on_c, 7, 88, 127
10, 478680, Note_off_c, 7, 88, 127
10, 478680, Note_on_c, 7, 88, 127
10, 478799, Note_off_c, 7, 88, 127
10, 478800, Note_on_c, 7, 82, 127
10, 478920, Note_off_c, 7, 82, 127
10, 478920, Note_on_c, 7, 88, 127
10, 479040, Note_off_c, 7, 88, 127
10, 479040, Note_on_c, 7, 85, 127
10, 479160, Note_off_c, 7, 85, 127
10, 479160, Note_on_c, 7, 85, 127
10, 479280, Note_off_c, 7, 85, 127
10, 479280, Note_on_c, 7, 85, 127
10, 479400, Note_off_c, 7, 85, 127
10, 479400, Note_on_c, 7, 85, 127
10, 479520, Note_off_c, 7, 85, 127
10, 479520, Note_on_c, 7, 85, 127
10, 479640, Note_off_c, 7, 85, 127
10, 479640, Note_on_c, 7, 85, 127
10, 479760, Note_off_c, 7, 85, 127
10, 479760, Note_on_c, 7, 85, 127
10, 479880, Note_off_c, 7, 85, 127
10, 479880, Note_on_c, 7, 85, 127
10, 479999, Note_off_c, 7, 85, 127
10, 480720, Note_on_c, 7, 83, 127
10, 480840, Note_off_c, 7, 83, 127
10, 480840, Note_on_c, 7, 85, 102
10, 480960, Note_off_c, 7, 85, 102
10, 480960, Note_on_c, 7, 86, 102
10, 481440, Note_off_c, 7, 86, 102
10, 481680, Note_on_c, 7, 85, 127
10, 481920, Note_off_c, 7, 85, 127
10, 481920, Note_on_c, 7, 86, 102
10, 482040, Note_off_c, 7, 86, 102
10, 482040, Note_on_c, 7, 86, 102
10, 482160, Note_off_c, 7, 86, 102
10, 482160, Note_on_c, 7, 86, 102
10, 482280, Note_off_c, 7, 86, 102
10, 482280, Note_on_c, 7, 86, 102
10, 482400, Note_off_c, 7, 86, 102
10, 482400, Note_on_c, 7, 86, 102
10, 482520, Note_off_c, 7, 86, 102
10, 482520, Note_on_c, 7, 86, 102
10, 482640, Note_off_c, 7, 86, 102
10, 482640, Note_on_c, 7, 86, 102
10, 482760, Note_off_c, 7, 86, 102
10, 482760, Note_on_c, 7, 86, 102
10, 482879, Note_off_c, 7, 86, 102
10, 483600, Note_on_c, 7, 83, 127
10, 483720, Note_off_c, 7, 83, 127
10, 483720, Note_on_c, 7, 85, 102
10, 483840, Note_off_c, 7, 85, 102
10, 483840, Note_on_c, 7, 86, 102
10, 484320, Note_off_c, 7, 86, 102
10, 484560, Note_on_c, 7, 85, 127
10, 484800, Note_off_c, 7, 85, 127
10, 484800, Note_on_c, 7, 86, 102
10, 484920, Note_off_c, 7, 86, 102
10, 484920, Note_on_c, 7, 86, 102
10, 485040, Note_off_c, 7, 86, 102
10, 485040, Note_on_c, 7, 86, 102
10, 485160, Note_off_c, 7, 86, 102
10, 485160, Note_on_c, 7, 86, 102
10, 485280, Note_off_c, 7, 86, 102
10, 485280, Note_on_c, 7, 86, 102
10, 485400, Note_off_c, 7, 86, 102
10, 485400, Note_on_c, 7, 86, 102
10, 485520, Note_off_c, 7, 86, 102
10, 485520, Note_on_c, 7, 86, 102
10, 485640, Note_off_c, 7, 86, 102
10, 485640, Note_on_c, 7, 86, 102
10, 485759, Note_off_c, 7, 86, 102
10, 486480, Note_on_c, 7, 83, 127
10, 486600, Note_off_c, 7, 83, 127
10, 486600, Note_on_c, 7, 85, 102
10, 486720, Note_off_c, 7, 85, 102
10, 486720, Note_on_c, 7, 86, 102
10, 487200, Note_off_c, 7, 86, 102
10, 487440, Note_on_c, 7, 83, 127
10, 487680, Note_off_c, 7, 83, 127
10, 487680, Note_on_c, 7, 85, 102
10, 487800, Note_off_c, 7, 85, 102
10, 487800, Note_on_c, 7, 85, 102
10, 487920, Note_off_c, 7, 85, 102
10, 487920, Note_on_c, 7, 85, 102
10, 488040, Note_off_c, 7, 85, 102
10, 488040, Note_on_c, 7, 85, 102
10, 488160, Note_off_c, 7, 85, 102
10, 488160, Note_on_c, 7, 85, 102
10, 488280, Note_off_c, 7, 85, 102
10, 488280, Note_on_c, 7, 85, 102
10, 488400, Note_off_c, 7, 85, 102
10, 488400, Note_on_c, 7, 85, 102
10, 488520, Note_off_c, 7, 85, 102
10, 488520, Note_on_c, 7, 85, 102
10, 488639, Note_off_c, 7, 85, 102
10, 488880, Note_on_c, 7, 81, 127
10, 489120, Note_off_c, 7, 81, 127
10, 489120, Note_on_c, 7, 78, 127
10, 489360, Note_off_c, 7, 78, 127
10, 489360, Note_on_c, 7, 81, 127
10, 489600, Note_off_c, 7, 81, 127
10, 489600, Note_on_c, 7, 88, 127
10, 489720, Note_off_c, 7, 88, 127
10, 489720, Note_on_c, 7, 88, 127
10, 489840, Note_off_c, 7, 88, 127
10, 489840, Note_on_c, 7, 88, 127
10, 489960, Note_off_c, 7, 88, 127
10, 489960, Note_on_c, 7, 88, 127
10, 490080, Note_off_c, 7, 88, 127
10, 490080, Note_on_c, 7, 88, 127
10, 490200, Note_off_c, 7, 88, 127
10, 490200, Note_on_c, 7, 88, 127
10, 490319, Note_off_c, 7, 88, 127
10, 490320, Note_on_c, 7, 82, 127
10, 490440, Note_off_c, 7, 82, 127
10, 490440, Note_on_c, 7, 88, 127
10, 490560, Note_off_c, 7, 88, 127
10, 490560, Note_on_c, 7, 85, 127
10, 490680, Note_off_c, 7, 85, 127
10, 490680, Note_on_c, 7, 85, 127
10, 490800, Note_off_c, 7, 85, 127
10, 490800, Note_on_c, 7, 85, 127
10, 490920, Note_off_c, 7, 85, 127
10, 490920, Note_on_c, 7, 85, 127
10, 491040, Note_off_c, 7, 85, 127
10, 491040, Note_on_c, 7, 85, 127
10, 491160, Note_off_c, 7, 85, 127
10, 491160, Note_on_c, 7, 85, 127
10, 491280, Note_off_c, 7, 85, 127
10, 491280, Note_on_c, 7, 85, 127
10, 491400, Note_off_c, 7, 85, 127
10, 491400, Note_on_c, 7, 85, 127
10, 491519, Note_off_c, 7, 85, 127
10, 495360, Note_on_c, 7, 88, 127
10, 495480, Note_off_c, 7, 88, 127
10, 495480, Note_on_c, 7, 88, 127
10, 495600, Note_off_c, 7, 88, 127
10, 495600, Note_on_c, 7, 88, 127
10, 495720, Note_off_c, 7, 88, 127
10, 495720, Note_on_c, 7, 88, 127
10, 495840, Note_off_c, 7, 88, 127
10, 495840, Note_on_c, 7, 88, 127
10, 495960, Note_off_c, 7, 88, 127
10, 495960, Note_on_c, 7, 88, 127
10, 496080, Note_off_c, 7, 88, 127
10, 496080, Note_on_c, 7, 88, 127
10, 496200, Note_off_c, 7, 88, 127
10, 496200, Note_on_c, 7, 88, 127
10, 496319, Note_off_c, 7, 88, 127
10, 496640, Note_on_c, 7, 85, 127
10, 496960, Note_off_c, 7, 85, 127
10, 496960, Note_on_c, 7, 77, 127
10, 497280, Note_off_c, 7, 77, 127
10, 497280, Note_on_c, 7, 89, 127
10, 497400, Note_off_c, 7, 89, 127
10, 497400, Note_on_c, 7, 89, 127
10, 497520, Note_off_c, 7, 89, 127
10, 497520, Note_on_c, 7, 89, 127
10, 497640, Note_off_c, 7, 89, 127
10, 497640, Note_on_c, 7, 89, 127
10, 497759, Note_off_c, 7, 89, 127
10, 497760, Note_on_c, 7, 86, 127
10, 497880, Note_off_c, 7, 86, 127
10, 497880, Note_on_c, 7, 86, 127
10, 498000, Note_off_c, 7, 86, 127
10, 498000, Note_on_c, 7, 86, 127
10, 498120, Note_off_c, 7, 86, 127
10, 498120, Note_on_c, 7, 86, 127
10, 498239, Note_off_c, 7, 86, 127
10, 498480, Note_on_c, 7, 83, 127
10, 498720, Note_off_c, 7, 83, 127
10, 498720, Note_on_c, 7, 85, 127
10, 498960, Note_off_c, 7, 85, 127
10, 498960, Note_on_c, 7, 86, 127
10, 499200, Note_off_c, 7, 86, 127
10, 499200, Note_on_c, 7, 88, 127
10, 499440, Note_off_c, 7, 88, 127
10, 499440, Note_on_c, 7, 89, 127
10, 499680, Note_off_c, 7, 89, 127
10, 499680, Note_on_c, 7, 91, 127
10, 499920, Note_off_c, 7, 91, 127
10, 499920, Note_on_c, 7, 93, 127
10, 500160, Note_off_c, 7, 93, 127
10, 500160, Note_on_c, 7, 94, 127
10, 500400, Note_off_c, 7, 94, 127
10, 500880, Note_on_c, 7, 92, 127
10, 501000, Note_off_c, 7, 92, 127
10, 501000, Note_on_c, 7, 88, 127
10, 501120, Note_off_c, 7, 88, 127
10, 501120, Note_on_c, 7, 86, 127
10, 501240, Note_off_c, 7, 86, 127
10, 501240, Note_on_c, 7, 86, 127
10, 501360, Note_off_c, 7, 86, 127
10, 501360, Note_on_c, 7, 86, 127
10, 501480, Note_off_c, 7, 86, 127
10, 501480, Note_on_c, 7, 86, 127
10, 501600, Note_off_c, 7, 86, 127
10, 501600, Note_on_c, 7, 86, 127
10, 501720, Note_off_c, 7, 86, 127
10, 501720, Note_on_c, 7, 86, 127
10, 501840, Note_off_c, 7, 86, 127
10, 501840, Note_on_c, 7, 86, 127
10, 501960, Note_off_c, 7, 86, 127
10, 501960, Note_on_c, 7, 86, 127
10, 502080, Note_off_c, 7, 86, 127
10, 502080, Note_on_c, 7, 86, 127
10, 502200, Note_off_c, 7, 86, 127
10, 502200, Note_on_c, 7, 86, 127
10, 502320, Note_off_c, 7, 86, 127
10, 502320, Note_on_c, 7, 86, 127
10, 502440, Note_off_c, 7, 86, 127
10, 502440, Note_on_c, 7, 86, 127
10, 502560, Note_off_c, 7, 86, 127
10, 502560, Note_on_c, 7, 86, 127
10, 502680, Note_off_c, 7, 86, 127
10, 502680, Note_on_c, 7, 86, 127
10, 502800, Note_off_c, 7, 86, 127
10, 502800, Note_on_c, 7, 86, 127
10, 502920, Note_off_c, 7, 86, 127
10, 502920, Note_on_c, 7, 86, 127
10, 503040, Note_off_c, 7, 86, 127
10, 503040, Note_on_c, 7, 86, 127
10, 503160, Note_off_c, 7, 86, 127
10, 503160, Note_on_c, 7, 86, 127
10, 503280, Note_off_c, 7, 86, 127
10, 503280, Note_on_c, 7, 86, 127
10, 503400, Note_off_c, 7, 86, 127
10, 503400, Note_on_c, 7, 86, 127
10, 503520, Note_off_c, 7, 86, 127
10, 503520, Note_on_c, 7, 86, 127
10, 503640, Note_off_c, 7, 86, 127
10, 503640, Note_on_c, 7, 86, 127
10, 503760, Note_off_c, 7, 86, 127
10, 503760, Note_on_c, 7, 86, 127
10, 503880, Note_off_c, 7, 86, 127
10, 503880, Note_on_c, 7, 86, 127
10, 504000, Note_off_c, 7, 86, 127
10, 504000, Note_on_c, 7, 86, 127
10, 504120, Note_off_c, 7, 86, 127
10, 504120, Note_on_c, 7, 86, 127
10, 504240, Note_off_c, 7, 86, 127
10, 504240, Note_on_c, 7, 86, 127
10, 504360, Note_off_c, 7, 86, 127
10, 504360, Note_on_c, 7, 86, 127
10, 504480, Note_off_c, 7, 86, 127
10, 504480, Note_on_c, 7, 86, 127
10, 504600, Note_off_c, 7, 86, 127
10, 504600, Note_on_c, 7, 86, 127
10, 504720, Note_off_c, 7, 86, 127
10, 504720, Note_on_c, 7, 86, 127
10, 504840, Note_off_c, 7, 86, 127
10, 504840, Note_on_c, 7, 86, 127
10, 504960, Note_off_c, 7, 86, 127
10, 504960, Note_on_c, 7, 86, 127
10, 505080, Note_off_c, 7, 86, 127
10, 505080, Note_on_c, 7, 86, 127
10, 505200, Note_off_c, 7, 86, 127
10, 505200, Note_on_c, 7, 86, 127
10, 505320, Note_off_c, 7, 86, 127
10, 505320, Note_on_c, 7, 86, 127
10, 505440, Note_off_c, 7, 86, 127
10, 505440, Note_on_c, 7, 86, 127
10, 505560, Note_off_c, 7, 86, 127
10, 505560, Note_on_c, 7, 86, 127
10, 505680, Note_off_c, 7, 86, 127
10, 505680, Note_on_c, 7, 86, 127
10, 505800, Note_off_c, 7, 86, 127
10, 505800, Note_on_c, 7, 86, 127
10, 505919, Note_off_c, 7, 86, 127
10, 505920, Note_on_c, 7, 83, 127
10, 506331, Note_off_c, 7, 83, 127
10, 506331, Note_on_c, 7, 85, 127
10, 506742, Note_off_c, 7, 85, 127
10, 506742, Note_on_c, 7, 86, 127
10, 507153, Note_off_c, 7, 86, 127
10, 507153, Note_on_c, 7, 88, 127
10, 507564, Note_off_c, 7, 88, 127
10, 507564, Note_on_c, 7, 90, 127
10, 507975, Note_off_c, 7, 90, 127
10, 507975, Note_on_c, 7, 92, 127
10, 508386, Note_off_c, 7, 92, 127
10, 508386, Note_on_c, 7, 93, 127
10, 508797, Note_off_c, 7, 93, 127
10, 508800, Note_on_c, 7, 91, 127
10, 508920, Note_off_c, 7, 91, 127
10, 508920, Note_on_c, 7, 91, 127
10, 509040, Note_off_c, 7, 91, 127
10, 509040, Note_on_c, 7, 91, 127
10, 509160, Note_off_c, 7, 91, 127
10, 509160, Note_on_c, 7, 91, 127
10, 509280, Note_off_c, 7, 91, 127
10, 509280, Note_on_c, 7, 91, 127
10, 509400, Note_off_c, 7, 91, 127
10, 509400, Note_on_c, 7, 91, 127
10, 509520, Note_off_c, 7, 91, 127
10, 509520, Note_on_c, 7, 91, 127
10, 509640, Note_off_c, 7, 91, 127
10, 509640, Note_on_c, 7, 91, 127
10, 509760, Note_off_c, 7, 91, 127
10, 509760, Note_on_c, 7, 91, 127
10, 509880, Note_off_c, 7, 91, 127
10, 509880, Note_on_c, 7, 91, 127
10, 510000, Note_off_c, 7, 91, 127
10, 510000, Note_on_c, 7, 91, 127
10, 510079, Note_off_c, 7, 91, 127
10, 510080, Note_on_c, 7, 92, 127
10, 510400, Note_off_c, 7, 92, 127
10, 510400, Note_on_c, 7, 89, 127
10, 510720, Note_off_c, 7, 89, 127
10, 510720, Note_on_c, 7, 88, 127
10, 510840, Note_off_c, 7, 88, 127
10, 510840, Note_on_c, 7, 88, 127
10, 510960, Note_off_c, 7, 88, 127
10, 510960, Note_on_c, 7, 88, 127
10, 511080, Note_off_c, 7, 88, 127
10, 511080, Note_on_c, 7, 88, 127
10, 511200, Note_off_c, 7, 88, 127
10, 511200, Note_on_c, 7, 88, 127
10, 511320, Note_off_c, 7, 88, 127
10, 511320, Note_on_c, 7, 88, 127
10, 511440, Note_off_c, 7, 88, 127
10, 511440, Note_on_c, 7, 88, 127
10, 511560, Note_off_c, 7, 88, 127
10, 511560, Note_on_c, 7, 88, 127
10, 511680, Note_off_c, 7, 88, 127
10, 511680, Note_on_c, 7, 88, 127
10, 511800, Note_off_c, 7, 88, 127
10, 511800, Note_on_c, 7, 88, 127
10, 511920, Note_off_c, 7, 88, 127
10, 511920, Note_on_c, 7, 88, 127
10, 512040, Note_off_c, 7, 88, 127
10, 512040, Note_on_c, 7, 88, 127
10, 512160, Note_off_c, 7, 88, 127
10, 512160, Note_on_c, 7, 88, 127
10, 512280, Note_off_c, 7, 88, 127
10, 512280, Note_on_c, 7, 88, 127
10, 512400, Note_off_c, 7, 88, 127
10, 512400, Note_on_c, 7, 88, 127
10, 512520, Note_off_c, 7, 88, 127
10, 512520, Note_on_c, 7, 88, 127
10, 512640, Note_off_c, 7, 88, 127
10, 512640, Note_on_c, 7, 88, 127
10, 512760, Note_off_c, 7, 88, 127
10, 512760, Note_on_c, 7, 88, 127
10, 512880, Note_off_c, 7, 88, 127
10, 512880, Note_on_c, 7, 88, 127
10, 513000, Note_off_c, 7, 88, 127
10, 513000, Note_on_c, 7, 88, 127
10, 513120, Note_off_c, 7, 88, 127
10, 513120, Note_on_c, 7, 88, 127
10, 513240, Note_off_c, 7, 88, 127
10, 513240, Note_on_c, 7, 88, 127
10, 513360, Note_off_c, 7, 88, 127
10, 513360, Note_on_c, 7, 88, 127
10, 513480, Note_off_c, 7, 88, 127
10, 513480, Note_on_c, 7, 88, 127
10, 513600, Note_off_c, 7, 88, 127
10, 513600, Note_on_c, 7, 88, 127
10, 513720, Note_off_c, 7, 88, 127
10, 513720, Note_on_c, 7, 88, 127
10, 513840, Note_off_c, 7, 88, 127
10, 513840, Note_on_c, 7, 88, 127
10, 513960, Note_off_c, 7, 88, 127
10, 513960, Note_on_c, 7, 88, 127
10, 514080, Note_off_c, 7, 88, 127
10, 514080, Note_on_c, 7, 88, 127
10, 514200, Note_off_c, 7, 88, 127
10, 514200, Note_on_c, 7, 88, 127
10, 514320, Note_off_c, 7, 88, 127
10, 514320, Note_on_c, 7, 88, 127
10, 514440, Note_off_c, 7, 88, 127
10, 514440, Note_on_c, 7, 88, 127
10, 514559, Note_off_c, 7, 88, 127
10, 515040, Note_on_c, 7, 87, 127
10, 515520, Note_off_c, 7, 87, 127
10, 515520, Note_on_c, 7, 85, 127
10, 515840, Note_off_c, 7, 85, 127
10, 515840, Note_on_c, 7, 84, 127
10, 516160, Note_off_c, 7, 84, 127
10, 516160, Note_on_c, 7, 82, 127
10, 516480, Note_off_c, 7, 82, 127
10, 516480, Note_on_c, 7, 80, 127
10, 516960, Note_off_c, 7, 80, 127
10, 516960, Note_on_c, 7, 78, 127
10, 517440, Note_off_c, 7, 78, 127
10, 517440, Note_on_c, 7, 77, 127
10, 517920, Note_off_c, 7, 77, 127
10, 517920, Note_on_c, 7, 79, 127
10, 518400, Note_off_c, 7, 79, 127
10, 518400, Note_on_c, 7, 81, 127
10, 518720, Note_off_c, 7, 81, 127
10, 518720, Note_on_c, 7, 82, 127
10, 519040, Note_off_c, 7, 82, 127
10, 519040, Note_on_c, 7, 84, 127
10, 519360, Note_off_c, 7, 84, 127
10, 519360, Note_on_c, 7, 85, 127
10, 519840, Note_off_c, 7, 85, 127
10, 519840, Note_on_c, 7, 87, 127
10, 520320, Note_off_c, 7, 87, 127
10, 520320, Note_on_c, 7, 88, 127
10, 520440, Note_off_c, 7, 88, 127
10, 520440, Note_on_c, 7, 88, 127
10, 520560, Note_off_c, 7, 88, 127
10, 520560, Note_on_c, 7, 88, 127
10, 520680, Note_off_c, 7, 88, 127
10, 520680, Note_on_c, 7, 88, 127
10, 520800, Note_off_c, 7, 88, 127
10, 520800, Note_on_c, 7, 88, 127
10, 520920, Note_off_c, 7, 88, 127
10, 520920, Note_on_c, 7, 88, 127
10, 521040, Note_off_c, 7, 88, 127
10, 521040, Note_on_c, 7, 88, 127
10, 521160, Note_off_c, 7, 88, 127
10, 521160, Note_on_c, 7, 88, 127
10, 521280, Note_off_c, 7, 88, 127
10, 521280, Note_on_c, 7, 88, 127
10, 521400, Note_off_c, 7, 88, 127
10, 521400, Note_on_c, 7, 88, 127
10, 521520, Note_off_c, 7, 88, 127
10, 521520, Note_on_c, 7, 88, 127
10, 521640, Note_off_c, 7, 88, 127
10, 521640, Note_on_c, 7, 88, 127
10, 521760, Note_off_c, 7, 88, 127
10, 521760, Note_on_c, 7, 88, 127
10, 521880, Note_off_c, 7, 88, 127
10, 521880, Note_on_c, 7, 88, 127
10, 522000, Note_off_c, 7, 88, 127
10, 522000, Note_on_c, 7, 88, 127
10, 522120, Note_off_c, 7, 88, 127
10, 522120, Note_on_c, 7, 88, 127
10, 522240, Note_off_c, 7, 88, 127
10, 522240, Note_on_c, 7, 88, 127
10, 522360, Note_off_c, 7, 88, 127
10, 522360, Note_on_c, 7, 88, 127
10, 522480, Note_off_c, 7, 88, 127
10, 522480, Note_on_c, 7, 88, 127
10, 522600, Note_off_c, 7, 88, 127
10, 522600, Note_on_c, 7, 88, 127
10, 522720, Note_off_c, 7, 88, 127
10, 522720, Note_on_c, 7, 88, 127
10, 522840, Note_off_c, 7, 88, 127
10, 522840, Note_on_c, 7, 88, 127
10, 522960, Note_off_c, 7, 88, 127
10, 522960, Note_on_c, 7, 88, 127
10, 523080, Note_off_c, 7, 88, 127
10, 523080, Note_on_c, 7, 88, 127
10, 523199, Note_off_c, 7, 88, 127
10, 523200, Note_on_c, 7, 85, 127
10, 523320, Note_off_c, 7, 85, 127
10, 523320, Note_on_c, 7, 85, 127
10, 523440, Note_off_c, 7, 85, 127
10, 523440, Note_on_c, 7, 85, 127
10, 523560, Note_off_c, 7, 85, 127
10, 523560, Note_on_c, 7, 85, 127
10, 523680, Note_off_c, 7, 85, 127
10, 523680, Note_on_c, 7, 85, 127
10, 523800, Note_off_c, 7, 85, 127
10, 523800, Note_on_c, 7, 85, 127
10, 523920, Note_off_c, 7, 85, 127
10, 523920, Note_on_c, 7, 85, 127
10, 524040, Note_off_c, 7, 85, 127
10, 524040, Note_on_c, 7, 85, 127
10, 524160, Note_off_c, 7, 85, 127
10, 524160, Note_on_c, 7, 85, 127
10, 524280, Note_off_c, 7, 85, 127
10, 524280, Note_on_c, 7, 85, 127
10, 524400, Note_off_c, 7, 85, 127
10, 524400, Note_on_c, 7, 85, 127
10, 524520, Note_off_c, 7, 85, 127
10, 524520, Note_on_c, 7, 85, 127
10, 524640, Note_off_c, 7, 85, 127
10, 524640, Note_on_c, 7, 85, 127
10, 524760, Note_off_c, 7, 85, 127
10, 524760, Note_on_c, 7, 85, 127
10, 524880, Note_off_c, 7, 85, 127
10, 524880, Note_on_c, 7, 85, 127
10, 525000, Note_off_c, 7, 85, 127
10, 525000, Note_on_c, 7, 85, 127
10, 525119, Note_off_c, 7, 85, 127
10, 525440, Note_on_c, 7, 84, 127
10, 525760, Note_off_c, 7, 84, 127
10, 525760, Note_on_c, 7, 82, 127
10, 526080, Note_off_c, 7, 82, 127
10, 526080, Note_on_c, 7, 84, 127
10, 526200, Note_off_c, 7, 84, 127
10, 526200, Note_on_c, 7, 84, 127
10, 526320, Note_off_c, 7, 84, 127
10, 526320, Note_on_c, 7, 84, 127
10, 526440, Note_off_c, 7, 84, 127
10, 526440, Note_on_c, 7, 84, 127
10, 526560, Note_off_c, 7, 84, 127
10, 526560, Note_on_c, 7, 84, 127
10, 526680, Note_off_c, 7, 84, 127
10, 526680, Note_on_c, 7, 84, 127
10, 526800, Note_off_c, 7, 84, 127
10, 526800, Note_on_c, 7, 84, 127
10, 526920, Note_off_c, 7, 84, 127
10, 526920, Note_on_c, 7, 84, 127
10, 527040, Note_off_c, 7, 84, 127
10, 527040, Note_on_c, 7, 84, 127
10, 527160, Note_off_c, 7, 84, 127
10, 527160, Note_on_c, 7, 84, 127
10, 527280, Note_off_c, 7, 84, 127
10, 527280, Note_on_c, 7, 84, 127
10, 527400, Note_off_c, 7, 84, 127
10, 527400, Note_on_c, 7, 84, 127
10, 527520, Note_off_c, 7, 84, 127
10, 527520, Note_on_c, 7, 84, 127
10, 527640, Note_off_c, 7, 84, 127
10, 527640, Note_on_c, 7, 84, 127
10, 527760, Note_off_c, 7, 84, 127
10, 527760, Note_on_c, 7, 84, 127
10, 527880, Note_off_c, 7, 84, 127
10, 527880, Note_on_c, 7, 84, 127
10, 528000, Note_off_c, 7, 84, 127
10, 528000, Note_on_c, 7, 84, 127
10, 528120, Note_off_c, 7, 84, 127
10, 528120, Note_on_c, 7, 84, 127
10, 528240, Note_off_c, 7, 84, 127
10, 528240, Note_on_c, 7, 84, 127
10, 528360, Note_off_c, 7, 84, 127
10, 528360, Note_on_c, 7, 84, 127
10, 528480, Note_off_c, 7, 84, 127
10, 528480, Note_on_c, 7, 84, 127
10, 528600, Note_off_c, 7, 84, 127
10, 528600, Note_on_c, 7, 84, 127
10, 528720, Note_off_c, 7, 84, 127
10, 528720, Note_on_c, 7, 84, 127
10, 528840, Note_off_c, 7, 84, 127
10, 528840, Note_on_c, 7, 84, 127
10, 528960, Note_off_c, 7, 84, 127
10, 528960, Note_on_c, 7, 84, 127
10, 529080, Note_off_c, 7, 84, 127
10, 529080, Note_on_c, 7, 84, 127
10, 529200, Note_off_c, 7, 84, 127
10, 529200, Note_on_c, 7, 84, 127
10, 529320, Note_off_c, 7, 84, 127
10, 529320, Note_on_c, 7, 84, 127
10, 529440, Note_off_c, 7, 84, 127
10, 529440, Note_on_c, 7, 84, 127
10, 529560, Note_off_c, 7, 84, 127
10, 529560, Note_on_c, 7, 84, 127
10, 529680, Note_off_c, 7, 84, 127
10, 529680, Note_on_c, 7, 84, 127
10, 529800, Note_off_c, 7, 84, 127
10, 529800, Note_on_c, 7, 84, 127
10, 529920, Note_off_c, 7, 84, 127
10, 529920, Note_on_c, 7, 84, 127
10, 530040, Note_off_c, 7, 84, 127
10, 530040, Note_on_c, 7, 84, 127
10, 530160, Note_off_c, 7, 84, 127
10, 530160, Note_on_c, 7, 84, 127
10, 530280, Note_off_c, 7, 84, 127
10, 530280, Note_on_c, 7, 84, 127
10, 530400, Note_off_c, 7, 84, 127
10, 530400, Note_on_c, 7, 84, 127
10, 530520, Note_off_c, 7, 84, 127
10, 530520, Note_on_c, 7, 84, 127
10, 530640, Note_off_c, 7, 84, 127
10, 530640, Note_on_c, 7, 84, 127
10, 530760, Note_off_c, 7, 84, 127
10, 530760, Note_on_c, 7, 84, 127
10, 530880, Note_off_c, 7, 84, 127
10, 530880, Note_on_c, 7, 84, 127
10, 531000, Note_off_c, 7, 84, 127
10, 531000, Note_on_c, 7, 84, 127
10, 531119, Note_off_c, 7, 84, 127
10, 531120, Note_on_c, 7, 87, 127
10, 531360, Note_off_c, 7, 87, 127
10, 531360, Note_on_c, 7, 85, 127
10, 531600, Note_off_c, 7, 85, 127
10, 531600, Note_on_c, 7, 81, 127
10, 531840, Note_off_c, 7, 81, 127
10, 531840, Note_on_c, 7, 88, 127
10, 531960, Note_off_c, 7, 88, 127
10, 531960, Note_on_c, 7, 88, 127
10, 532080, Note_off_c, 7, 88, 127
10, 532080, Note_on_c, 7, 88, 127
10, 532200, Note_off_c, 7, 88, 127
10, 532200, Note_on_c, 7, 88, 127
10, 532320, Note_off_c, 7, 88, 127
10, 532320, Note_on_c, 7, 88, 127
10, 532440, Note_off_c, 7, 88, 127
10, 532440, Note_on_c, 7, 88, 127
10, 532560, Note_off_c, 7, 88, 127
10, 532560, Note_on_c, 7, 88, 127
10, 532680, Note_off_c, 7, 88, 127
10, 532680, Note_on_c, 7, 88, 127
10, 532800, Note_off_c, 7, 88, 127
10, 532800, Note_on_c, 7, 88, 127
10, 532920, Note_off_c, 7, 88, 127
10, 532920, Note_on_c, 7, 88, 127
10, 533040, Note_off_c, 7, 88, 127
10, 533040, Note_on_c, 7, 88, 127
10, 533160, Note_off_c, 7, 88, 127
10, 533160, Note_on_c, 7, 88, 127
10, 533280, Note_off_c, 7, 88, 127
10, 533280, Note_on_c, 7, 88, 127
10, 533400, Note_off_c, 7, 88, 127
10, 533400, Note_on_c, 7, 88, 127
10, 533520, Note_off_c, 7, 88, 127
10, 533520, Note_on_c, 7, 88, 127
10, 533640, Note_off_c, 7, 88, 127
10, 533640, Note_on_c, 7, 88, 127
10, 533759, Note_off_c, 7, 88, 127
10, 533952, Note_on_c, 7, 90, 127
10, 534144, Note_off_c, 7, 90, 127
10, 534144, Note_on_c, 7, 92, 127
10, 534336, Note_off_c, 7, 92, 127
10, 534336, Note_on_c, 7, 87, 127
10, 534528, Note_off_c, 7, 87, 127
10, 534528, Note_on_c, 7, 85, 127
10, 534720, Note_off_c, 7, 85, 127
10, 534720, Note_on_c, 7, 84, 127
10, 535040, Note_off_c, 7, 84, 127
10, 535360, Note_on_c, 7, 84, 127
10, 535520, Note_off_c, 7, 84, 127
10, 535520, Note_on_c, 7, 85, 102
10, 535680, Note_off_c, 7, 85, 102
10, 535680, Note_on_c, 7, 84, 102
10, 535800, Note_off_c, 7, 84, 102
10, 535800, Note_on_c, 7, 84, 102
10, 535920, Note_off_c, 7, 84, 102
10, 535920, Note_on_c, 7, 84, 102
10, 536040, Note_off_c, 7, 84, 102
10, 536040, Note_on_c, 7, 84, 102
10, 536160, Note_off_c, 7, 84, 102
10, 536160, Note_on_c, 7, 84, 102
10, 536280, Note_off_c, 7, 84, 102
10, 536280, Note_on_c, 7, 84, 102
10, 536400, Note_off_c, 7, 84, 102
10, 536400, Note_on_c, 7, 84, 102
10, 536520, Note_off_c, 7, 84, 102
10, 536520, Note_on_c, 7, 84, 102
10, 536640, Note_off_c, 7, 84, 102
10, 536640, Note_on_c, 7, 84, 102
10, 536760, Note_off_c, 7, 84, 102
10, 536760, Note_on_c, 7, 84, 102
10, 536880, Note_off_c, 7, 84, 102
10, 536880, Note_on_c, 7, 84, 102
10, 537000, Note_off_c, 7, 84, 102
10, 537000, Note_on_c, 7, 84, 102
10, 537120, Note_off_c, 7, 84, 102
10, 537120, Note_on_c, 7, 84, 102
10, 537240, Note_off_c, 7, 84, 102
10, 537240, Note_on_c, 7, 84, 102
10, 537360, Note_off_c, 7, 84, 102
10, 537360, Note_on_c, 7, 84, 102
10, 537480, Note_off_c, 7, 84, 102
10, 537480, Note_on_c, 7, 84, 102
10, 537600, Note_off_c, 7, 84, 102
10, 537600, Note_on_c, 7, 84, 102
10, 537720, Note_off_c, 7, 84, 102
10, 537720, Note_on_c, 7, 84, 102
10, 537840, Note_off_c, 7, 84, 102
10, 537840, Note_on_c, 7, 84, 102
10, 537960, Note_off_c, 7, 84, 102
10, 537960, Note_on_c, 7, 84, 102
10, 538080, Note_off_c, 7, 84, 102
10, 538080, Note_on_c, 7, 84, 102
10, 538200, Note_off_c, 7, 84, 102
10, 538200, Note_on_c, 7, 84, 102
10, 538320, Note_off_c, 7, 84, 102
10, 538320, Note_on_c, 7, 84, 102
10, 538440, Note_off_c, 7, 84, 102
10, 538440, Note_on_c, 7, 84, 102
10, 538560, Note_off_c, 7, 84, 102
10, 538560, Note_on_c, 7, 84, 102
10, 538680, Note_off_c, 7, 84, 102
10, 538680, Note_on_c, 7, 84, 102
10, 538800, Note_off_c, 7, 84, 102
10, 538800, Note_on_c, 7, 84, 102
10, 538920, Note_off_c, 7, 84, 102
10, 538920, Note_on_c, 7, 84, 102
10, 539040, Note_off_c, 7, 84, 102
10, 539040, Note_on_c, 7, 84, 102
10, 539160, Note_off_c, 7, 84, 102
10, 539160, Note_on_c, 7, 84, 102
10, 539280, Note_off_c, 7, 84, 102
10, 539280, Note_on_c, 7, 84, 102
10, 539400, Note_off_c, 7, 84, 102
10, 539400, Note_on_c, 7, 84, 102
10, 539520, Note_off_c, 7, 84, 102
10, 539520, Note_on_c, 7, 84, 102
10, 539640, Note_off_c, 7, 84, 102
10, 539640, Note_on_c, 7, 84, 102
10, 539760, Note_off_c, 7, 84, 102
10, 539760, Note_on_c, 7, 84, 102
10, 539880, Note_off_c, 7, 84, 102
10, 539880, Note_on_c, 7, 84, 102
10, 539999, Note_off_c, 7, 84, 102
10, 540000, Note_on_c, 7, 83, 127
10, 540160, Note_off_c, 7, 83, 127
10, 540160, Note_on_c, 7, 83, 127
10, 540320, Note_off_c, 7, 83, 127
10, 540320, Note_on_c, 7, 86, 102
10, 540480, Note_off_c, 7, 86, 102
10, 540480, Note_on_c, 7, 81, 127
10, 540600, Note_off_c, 7, 81, 127
10, 540600, Note_on_c, 7, 81, 127
10, 540720, Note_off_c, 7, 81, 127
10, 540720, Note_on_c, 7, 81, 127
10, 540840, Note_off_c, 7, 81, 127
10, 540840, Note_on_c, 7, 81, 127
10, 540960, Note_off_c, 7, 81, 127
10, 540960, Note_on_c, 7, 81, 127
10, 541080, Note_off_c, 7, 81, 127
10, 541080, Note_on_c, 7, 81, 127
10, 541200, Note_off_c, 7, 81, 127
10, 541200, Note_on_c, 7, 81, 127
10, 541320, Note_off_c, 7, 81, 127
10, 541320, Note_on_c, 7, 81, 127
10, 541440, Note_off_c, 7, 81, 127
10, 541440, Note_on_c, 7, 81, 127
10, 541560, Note_off_c, 7, 81, 127
10, 541560, Note_on_c, 7, 81, 127
10, 541680, Note_off_c, 7, 81, 127
10, 541680, Note_on_c, 7, 81, 127
10, 541800, Note_off_c, 7, 81, 127
10, 541800, Note_on_c, 7, 81, 127
10, 541919, Note_off_c, 7, 81, 127
10, 541920, Note_on_c, 7, 83, 127
10, 542040, Note_off_c, 7, 83, 127
10, 542040, Note_on_c, 7, 83, 127
10, 542160, Note_off_c, 7, 83, 127
10, 542160, Note_on_c, 7, 83, 127
10, 542280, Note_off_c, 7, 83, 127
10, 542280, Note_on_c, 7, 83, 127
10, 542400, Note_off_c, 7, 83, 127
10, 542400, Note_on_c, 7, 83, 127
10, 542520, Note_off_c, 7, 83, 127
10, 542520, Note_on_c, 7, 83, 127
10, 542640, Note_off_c, 7, 83, 127
10, 542640, Note_on_c, 7, 83, 127
10, 542760, Note_off_c, 7, 83, 127
10, 542760, Note_on_c, 7, 83, 127
10, 542880, Note_off_c, 7, 83, 127
10, 542880, Note_on_c, 7, 83, 127
10, 543000, Note_off_c, 7, 83, 127
10, 543000, Note_on_c, 7, 83, 127
10, 543120, Note_off_c, 7, 83, 127
10, 543120, Note_on_c, 7, 83, 127
10, 543240, Note_off_c, 7, 83, 127
10, 543240, Note_on_c, 7, 83, 127
10, 543360, Note_off_c, 7, 83, 127
10, 543360, Note_on_c, 7, 83, 127
10, 543480, Note_off_c, 7, 83, 127
10, 543480, Note_on_c, 7, 83, 127
10, 543600, Note_off_c, 7, 83, 127
10, 543600, Note_on_c, 7, 83, 127
10, 543720, Note_off_c, 7, 83, 127
10, 543720, Note_on_c, 7, 83, 127
10, 543840, Note_off_c, 7, 83, 127
10, 543840, Note_on_c, 7, 83, 127
10, 543960, Note_off_c, 7, 83, 127
10, 543960, Note_on_c, 7, 83, 127
10, 544080, Note_off_c, 7, 83, 127
10, 544080, Note_on_c, 7, 83, 127
10, 544200, Note_off_c, 7, 83, 127
10, 544200, Note_on_c, 7, 83, 127
10, 544320, Note_off_c, 7, 83, 127
10, 544320, Note_on_c, 7, 83, 127
10, 544440, Note_off_c, 7, 83, 127
10, 544440, Note_on_c, 7, 83, 127
10, 544560, Note_off_c, 7, 83, 127
10, 544560, Note_on_c, 7, 83, 127
10, 544680, Note_off_c, 7, 83, 127
10, 544680, Note_on_c, 7, 83, 127
10, 544800, Note_off_c, 7, 83, 127
10, 544800, Note_on_c, 7, 83, 127
10, 544920, Note_off_c, 7, 83, 127
10, 544920, Note_on_c, 7, 83, 127
10, 545040, Note_off_c, 7, 83, 127
10, 545040, Note_on_c, 7, 83, 127
10, 545160, Note_off_c, 7, 83, 127
10, 545160, Note_on_c, 7, 83, 127
10, 545280, Note_off_c, 7, 83, 127
10, 545280, Note_on_c, 7, 83, 127
10, 545400, Note_off_c, 7, 83, 127
10, 545400, Note_on_c, 7, 83, 127
10, 545520, Note_off_c, 7, 83, 127
10, 545520, Note_on_c, 7, 83, 127
10, 545640, Note_off_c, 7, 83, 127
10, 545640, Note_on_c, 7, 83, 127
10, 545760, Note_off_c, 7, 83, 127
10, 545760, Note_on_c, 7, 83, 127
10, 545880, Note_off_c, 7, 83, 127
10, 545880, Note_on_c, 7, 83, 127
10, 546000, Note_off_c, 7, 83, 127
10, 546000, Note_on_c, 7, 83, 127
10, 546120, Note_off_c, 7, 83, 127
10, 546120, Note_on_c, 7, 83, 127
10, 546239, Note_off_c, 7, 83, 127
10, 546240, Note_on_c, 7, 84, 127
10, 546480, Note_off_c, 7, 84, 127
10, 546480, Note_on_c, 7, 83, 127
10, 546720, Note_off_c, 7, 83, 127
10, 546720, Note_on_c, 7, 83, 127
10, 546960, Note_off_c, 7, 83, 127
10, 546960, Note_on_c, 7, 79, 127
10, 547200, Note_off_c, 7, 79, 127
10, 547200, Note_on_c, 7, 79, 127
10, 547440, Note_off_c, 7, 79, 127
10, 547440, Note_on_c, 7, 81, 127
10, 547680, Note_off_c, 7, 81, 127
10, 547680, Note_on_c, 7, 77, 127
10, 547920, Note_off_c, 7, 77, 127
10, 547920, Note_on_c, 7, 88, 127
10, 548160, Note_off_c, 7, 88, 127
10, 548160, Note_on_c, 7, 86, 127
10, 548400, Note_off_c, 7, 86, 127
10, 548400, Note_on_c, 7, 81, 127
10, 548640, Note_off_c, 7, 81, 127
10, 548640, Note_on_c, 7, 84, 127
10, 548880, Note_off_c, 7, 84, 127
10, 548880, Note_on_c, 7, 83, 127
10, 549120, Note_off_c, 7, 83, 127
10, 549120, Note_on_c, 7, 83, 127
10, 549312, Note_off_c, 7, 83, 127
10, 549312, Note_on_c, 7, 81, 127
10, 549504, Note_off_c, 7, 81, 127
10, 549504, Note_on_c, 7, 81, 127
10, 549696, Note_off_c, 7, 81, 127
10, 549696, Note_on_c, 7, 76, 127
10, 549888, Note_off_c, 7, 76, 127
10, 549888, Note_on_c, 7, 84, 127
10, 550080, Note_off_c, 7, 84, 127
10, 550080, Note_on_c, 7, 83, 127
10, 550400, Note_off_c, 7, 83, 127
10, 550720, Note_on_c, 7, 83, 127
10, 551040, Note_off_c, 7, 83, 127
10, 551360, Note_on_c, 7, 81, 127
10, 551680, Note_off_c, 7, 81, 127
10, 552000, Note_on_c, 7, 84, 127
10, 552320, Note_off_c, 7, 84, 127
10, 552320, Note_on_c, 7, 86, 127
10, 552480, Note_off_c, 7, 86, 127
10, 552480, Note_on_c, 7, 83, 127
10, 552600, Note_off_c, 7, 83, 127
10, 552600, Note_on_c, 7, 83, 127
10, 552720, Note_off_c, 7, 83, 127
10, 552720, Note_on_c, 7, 83, 127
10, 552840, Note_off_c, 7, 83, 127
10, 552840, Note_on_c, 7, 83, 127
10, 552960, Note_off_c, 7, 83, 127
10, 552960, Note_on_c, 7, 83, 127
10, 553080, Note_off_c, 7, 83, 127
10, 553080, Note_on_c, 7, 83, 127
10, 553200, Note_off_c, 7, 83, 127
10, 553200, Note_on_c, 7, 83, 127
10, 553320, Note_off_c, 7, 83, 127
10, 553320, Note_on_c, 7, 83, 127
10, 553440, Note_off_c, 7, 83, 127
10, 553440, Note_on_c, 7, 83, 127
10, 553560, Note_off_c, 7, 83, 127
10, 553560, Note_on_c, 7, 83, 127
10, 553680, Note_off_c, 7, 83, 127
10, 553680, Note_on_c, 7, 83, 127
10, 553800, Note_off_c, 7, 83, 127
10, 553800, Note_on_c, 7, 83, 127
10, 553920, Note_off_c, 7, 83, 127
10, 553920, Note_on_c, 7, 83, 127
10, 554040, Note_off_c, 7, 83, 127
10, 554040, Note_on_c, 7, 83, 127
10, 554160, Note_off_c, 7, 83, 127
10, 554160, Note_on_c, 7, 83, 127
10, 554280, Note_off_c, 7, 83, 127
10, 554280, Note_on_c, 7, 83, 127
10, 554400, Note_off_c, 7, 83, 127
10, 554400, Note_on_c, 7, 83, 127
10, 554520, Note_off_c, 7, 83, 127
10, 554520, Note_on_c, 7, 83, 127
10, 554640, Note_off_c, 7, 83, 127
10, 554640, Note_on_c, 7, 83, 127
10, 554760, Note_off_c, 7, 83, 127
10, 554760, Note_on_c, 7, 83, 127
10, 554880, Note_off_c, 7, 83, 127
10, 554880, Note_on_c, 7, 83, 127
10, 555000, Note_off_c, 7, 83, 127
10, 555000, Note_on_c, 7, 83, 127
10, 555120, Note_off_c, 7, 83, 127
10, 555120, Note_on_c, 7, 83, 127
10, 555240, Note_off_c, 7, 83, 127
10, 555240, Note_on_c, 7, 83, 127
10, 555360, Note_off_c, 7, 83, 127
10, 555360, Note_on_c, 7, 83, 127
10, 555480, Note_off_c, 7, 83, 127
10, 555480, Note_on_c, 7, 83, 127
10, 555600, Note_off_c, 7, 83, 127
10, 555600, Note_on_c, 7, 83, 127
10, 555720, Note_off_c, 7, 83, 127
10, 555720, Note_on_c, 7, 83, 127
10, 555840, Note_off_c, 7, 83, 127
10, 555840, Note_on_c, 7, 83, 127
10, 555960, Note_off_c, 7, 83, 127
10, 555960, Note_on_c, 7, 83, 127
10, 556080, Note_off_c, 7, 83, 127
10, 556080, Note_on_c, 7, 83, 127
10, 556200, Note_off_c, 7, 83, 127
10, 556200, Note_on_c, 7, 83, 127
10, 556320, Note_off_c, 7, 83, 127
10, 556320, Note_on_c, 7, 83, 127
10, 556440, Note_off_c, 7, 83, 127
10, 556440, Note_on_c, 7, 83, 127
10, 556560, Note_off_c, 7, 83, 127
10, 556560, Note_on_c, 7, 83, 127
10, 556680, Note_off_c, 7, 83, 127
10, 556680, Note_on_c, 7, 83, 127
10, 556799, Note_off_c, 7, 83, 127
10, 556992, Note_on_c, 7, 84, 127
10, 557184, Note_off_c, 7, 84, 127
10, 557184, Note_on_c, 7, 84, 127
10, 557376, Note_off_c, 7, 84, 127
10, 557376, Note_on_c, 7, 86, 127
10, 557568, Note_off_c, 7, 86, 127
10, 557568, Note_on_c, 7, 81, 127
10, 557760, Note_off_c, 7, 81, 127
10, 557760, Note_on_c, 7, 79, 127
10, 557880, Note_off_c, 7, 79, 127
10, 557880, Note_on_c, 7, 79, 127
10, 558000, Note_off_c, 7, 79, 127
10, 558000, Note_on_c, 7, 79, 127
10, 558120, Note_off_c, 7, 79, 127
10, 558120, Note_on_c, 7, 79, 127
10, 558240, Note_off_c, 7, 79, 127
10, 558240, Note_on_c, 7, 79, 127
10, 558360, Note_off_c, 7, 79, 127
10, 558360, Note_on_c, 7, 79, 127
10, 558480, Note_off_c, 7, 79, 127
10, 558480, Note_on_c, 7, 79, 127
10, 558600, Note_off_c, 7, 79, 127
10, 558600, Note_on_c, 7, 79, 127
10, 558719, Note_off_c, 7, 79, 127
10, 559104, Note_on_c, 7, 76, 127
10, 559488, Note_off_c, 7, 76, 127
10, 559488, Note_on_c, 7, 77, 127
10, 559840, Note_off_c, 7, 77, 127
10, 559840, Note_on_c, 7, 74, 127
10, 560000, Note_off_c, 7, 74, 127
10, 560000, Note_on_c, 7, 76, 127
10, 560160, Note_off_c, 7, 76, 127
10, 560160, Note_on_c, 7, 77, 127
10, 560320, Note_off_c, 7, 77, 127
10, 560320, Note_on_c, 7, 79, 127
10, 560480, Note_off_c, 7, 79, 127
10, 560480, Note_on_c, 7, 81, 127
10, 560640, Note_off_c, 7, 81, 127
10, 560640, Note_on_c, 7, 82, 127
10, 560760, Note_off_c, 7, 82, 127
10, 560760, Note_on_c, 7, 82, 127
10, 560880, Note_off_c, 7, 82, 127
10, 560880, Note_on_c, 7, 82, 127
10, 561000, Note_off_c, 7, 82, 127
10, 561000, Note_on_c, 7, 82, 127
10, 561120, Note_off_c, 7, 82, 127
10, 561120, Note_on_c, 7, 82, 127
10, 561240, Note_off_c, 7, 82, 127
10, 561240, Note_on_c, 7, 82, 127
10, 561360, Note_off_c, 7, 82, 127
10, 561360, Note_on_c, 7, 82, 127
10, 561480, Note_off_c, 7, 82, 127
10, 561480, Note_on_c, 7, 82, 127
10, 561600, Note_off_c, 7, 82, 127
10, 561600, Note_on_c, 7, 82, 127
10, 561720, Note_off_c, 7, 82, 127
10, 561720, Note_on_c, 7, 82, 127
10, 561840, Note_off_c, 7, 82, 127
10, 561840, Note_on_c, 7, 82, 127
10, 561960, Note_off_c, 7, 82, 127
10, 561960, Note_on_c, 7, 82, 127
10, 562080, Note_off_c, 7, 82, 127
10, 562080, Note_on_c, 7, 82, 127
10, 562200, Note_off_c, 7, 82, 127
10, 562200, Note_on_c, 7, 82, 127
10, 562320, Note_off_c, 7, 82, 127
10, 562320, Note_on_c, 7, 82, 127
10, 562440, Note_off_c, 7, 82, 127
10, 562440, Note_on_c, 7, 82, 127
10, 562560, Note_off_c, 7, 82, 127
10, 562560, Note_on_c, 7, 82, 127
10, 562680, Note_off_c, 7, 82, 127
10, 562680, Note_on_c, 7, 82, 127
10, 562800, Note_off_c, 7, 82, 127
10, 562800, Note_on_c, 7, 82, 127
10, 562920, Note_off_c, 7, 82, 127
10, 562920, Note_on_c, 7, 82, 127
10, 563040, Note_off_c, 7, 82, 127
10, 563040, Note_on_c, 7, 82, 127
10, 563160, Note_off_c, 7, 82, 127
10, 563160, Note_on_c, 7, 82, 127
10, 563280, Note_off_c, 7, 82, 127
10, 563280, Note_on_c, 7, 82, 127
10, 563400, Note_off_c, 7, 82, 127
10, 563400, Note_on_c, 7, 82, 127
10, 563520, Note_off_c, 7, 82, 127
10, 563520, Note_on_c, 7, 82, 127
10, 563640, Note_off_c, 7, 82, 127
10, 563640, Note_on_c, 7, 82, 127
10, 563760, Note_off_c, 7, 82, 127
10, 563760, Note_on_c, 7, 82, 127
10, 563880, Note_off_c, 7, 82, 127
10, 563880, Note_on_c, 7, 82, 127
10, 563999, Note_off_c, 7, 82, 127
10, 564000, Note_on_c, 7, 84, 127
10, 564480, Note_off_c, 7, 84, 127
10, 564480, Note_on_c, 7, 85, 127
10, 564960, Note_off_c, 7, 85, 127
10, 564960, Note_on_c, 7, 87, 127
10, 565440, Note_off_c, 7, 87, 127
10, 565440, Note_on_c, 7, 89, 127
10, 565680, Note_off_c, 7, 89, 127
10, 565680, Note_on_c, 7, 90, 127
10, 565920, Note_off_c, 7, 90, 127
10, 565920, Note_on_c, 7, 92, 127
10, 566160, Note_off_c, 7, 92, 127
10, 566160, Note_on_c, 7, 94, 127
10, 566400, Note_off_c, 7, 94, 127
10, 566400, Note_on_c, 7, 94, 127
10, 566720, Note_off_c, 7, 94, 127
10, 567040, Note_on_c, 7, 92, 127
10, 567360, Note_off_c, 7, 92, 127
10, 567680, Note_on_c, 7, 91, 127
10, 568000, Note_off_c, 7, 91, 127
10, 568320, Note_on_c, 7, 89, 127
10, 568512, Note_off_c, 7, 89, 127
10, 568512, Note_on_c, 7, 87, 127
10, 568704, Note_off_c, 7, 87, 127
10, 568704, Note_on_c, 7, 85, 127
10, 568896, Note_off_c, 7, 85, 127
10, 568896, Note_on_c, 7, 83, 127
10, 569088, Note_off_c, 7, 83, 127
10, 569088, Note_on_c, 7, 82, 127
10, 569280, Note_off_c, 7, 82, 127
10, 569280, Note_on_c, 7, 83, 127
10, 569400, Note_off_c, 7, 83, 127
10, 569400, Note_on_c, 7, 83, 127
10, 569520, Note_off_c, 7, 83, 127
10, 569520, Note_on_c, 7, 83, 127
10, 569640, Note_off_c, 7, 83, 127
10, 569640, Note_on_c, 7, 83, 127
10, 569760, Note_off_c, 7, 83, 127
10, 569760, Note_on_c, 7, 83, 127
10, 569880, Note_off_c, 7, 83, 127
10, 569880, Note_on_c, 7, 83, 127
10, 570000, Note_off_c, 7, 83, 127
10, 570000, Note_on_c, 7, 83, 127
10, 570120, Note_off_c, 7, 83, 127
10, 570120, Note_on_c, 7, 83, 127
10, 570240, Note_off_c, 7, 83, 127
10, 570240, Note_on_c, 7, 83, 127
10, 570360, Note_off_c, 7, 83, 127
10, 570360, Note_on_c, 7, 83, 127
10, 570480, Note_off_c, 7, 83, 127
10, 570480, Note_on_c, 7, 83, 127
10, 570600, Note_off_c, 7, 83, 127
10, 570600, Note_on_c, 7, 83, 127
10, 570720, Note_off_c, 7, 83, 127
10, 570720, Note_on_c, 7, 83, 127
10, 570840, Note_off_c, 7, 83, 127
10, 570840, Note_on_c, 7, 83, 127
10, 570960, Note_off_c, 7, 83, 127
10, 570960, Note_on_c, 7, 83, 127
10, 571080, Note_off_c, 7, 83, 127
10, 571080, Note_on_c, 7, 83, 127
10, 571200, Note_off_c, 7, 83, 127
10, 571200, Note_on_c, 7, 83, 127
10, 571320, Note_off_c, 7, 83, 127
10, 571320, Note_on_c, 7, 83, 127
10, 571440, Note_off_c, 7, 83, 127
10, 571440, Note_on_c, 7, 83, 127
10, 571560, Note_off_c, 7, 83, 127
10, 571560, Note_on_c, 7, 83, 127
10, 571680, Note_off_c, 7, 83, 127
10, 571680, Note_on_c, 7, 83, 127
10, 571800, Note_off_c, 7, 83, 127
10, 571800, Note_on_c, 7, 83, 127
10, 571920, Note_off_c, 7, 83, 127
10, 571920, Note_on_c, 7, 83, 127
10, 572040, Note_off_c, 7, 83, 127
10, 572040, Note_on_c, 7, 83, 127
10, 572160, Note_off_c, 7, 83, 127
10, 572160, Note_on_c, 7, 83, 127
10, 572280, Note_off_c, 7, 83, 127
10, 572280, Note_on_c, 7, 83, 127
10, 572400, Note_off_c, 7, 83, 127
10, 572400, Note_on_c, 7, 83, 127
10, 572520, Note_off_c, 7, 83, 127
10, 572520, Note_on_c, 7, 83, 127
10, 572639, Note_off_c, 7, 83, 127
10, 572640, Note_on_c, 7, 82, 127
10, 573120, Note_off_c, 7, 82, 127
10, 573120, Note_on_c, 7, 80, 127
10, 573440, Note_off_c, 7, 80, 127
10, 573440, Note_on_c, 7, 79, 127
10, 573760, Note_off_c, 7, 79, 127
10, 573760, Note_on_c, 7, 77, 127
10, 574080, Note_off_c, 7, 77, 127
10, 574080, Note_on_c, 7, 75, 127
10, 574560, Note_off_c, 7, 75, 127
10, 574560, Note_on_c, 7, 73, 127
10, 575040, Note_off_c, 7, 73, 127
10, 575040, Note_on_c, 7, 71, 127
10, 575520, Note_off_c, 7, 71, 127
10, 575520, Note_on_c, 7, 73, 127
10, 576000, Note_off_c, 7, 73, 127
10, 576000, Note_on_c, 7, 75, 127
10, 576320, Note_off_c, 7, 75, 127
10, 576320, Note_on_c, 7, 77, 127
10, 576640, Note_off_c, 7, 77, 127
10, 576640, Note_on_c, 7, 79, 127
10, 576960, Note_off_c, 7, 79, 127
10, 576960, Note_on_c, 7, 80, 127
10, 577440, Note_off_c, 7, 80, 127
10, 577440, Note_on_c, 7, 82, 127
10, 577920, Note_off_c, 7, 82, 127
10, 577920, Note_on_c, 7, 84, 127
10, 578080, Note_off_c, 7, 84, 127
10, 578080, Note_on_c, 7, 85, 127
10, 578240, Note_off_c, 7, 85, 127
10, 578240, Note_on_c, 7, 87, 127
10, 578400, Note_off_c, 7, 87, 127
10, 578400, Note_on_c, 7, 89, 127
10, 578560, Note_off_c, 7, 89, 127
10, 578560, Note_on_c, 7, 90, 127
10, 578720, Note_off_c, 7, 90, 127
10, 578720, Note_on_c, 7, 92, 127
10, 578880, Note_off_c, 7, 92, 127
10, 578880, Note_on_c, 7, 94, 127
10, 579000, Note_off_c, 7, 94, 127
10, 579000, Note_on_c, 7, 94, 127
10, 579120, Note_off_c, 7, 94, 127
10, 579120, Note_on_c, 7, 94, 127
10, 579240, Note_off_c, 7, 94, 127
10, 579240, Note_on_c, 7, 94, 127
10, 579360, Note_off_c, 7, 94, 127
10, 579360, Note_on_c, 7, 94, 127
10, 579480, Note_off_c, 7, 94, 127
10, 579480, Note_on_c, 7, 94, 127
10, 579600, Note_off_c, 7, 94, 127
10, 579600, Note_on_c, 7, 94, 127
10, 579720, Note_off_c, 7, 94, 127
10, 579720, Note_on_c, 7, 94, 127
10, 579840, Note_off_c, 7, 94, 127
10, 579840, Note_on_c, 7, 94, 127
10, 579960, Note_off_c, 7, 94, 127
10, 579960, Note_on_c, 7, 94, 127
10, 580080, Note_off_c, 7, 94, 127
10, 580080, Note_on_c, 7, 94, 127
10, 580200, Note_off_c, 7, 94, 127
10, 580200, Note_on_c, 7, 94, 127
10, 580320, Note_off_c, 7, 94, 127
10, 580320, Note_on_c, 7, 94, 127
10, 580440, Note_off_c, 7, 94, 127
10, 580440, Note_on_c, 7, 94, 127
10, 580560, Note_off_c, 7, 94, 127
10, 580560, Note_on_c, 7, 94, 127
10, 580680, Note_off_c, 7, 94, 127
10, 580680, Note_on_c, 7, 94, 127
10, 580800, Note_off_c, 7, 94, 127
10, 580800, Note_on_c, 7, 94, 127
10, 580920, Note_off_c, 7, 94, 127
10, 580920, Note_on_c, 7, 94, 127
10, 581039, Note_off_c, 7, 94, 127
10, 581040, Note_on_c, 7, 92, 127
10, 581280, Note_off_c, 7, 92, 127
10, 581280, Note_on_c, 7, 90, 127
10, 581520, Note_off_c, 7, 90, 127
10, 581520, Note_on_c, 7, 89, 127
10, 581760, Note_off_c, 7, 89, 127
10, 581760, Note_on_c, 7, 87, 127
10, 582080, Note_off_c, 7, 87, 127
10, 582080, Note_on_c, 7, 85, 127
10, 582400, Note_off_c, 7, 85, 127
10, 582400, Note_on_c, 7, 83, 127
10, 582720, Note_off_c, 7, 83, 127
10, 582720, Note_on_c, 7, 83, 127
10, 582840, Note_off_c, 7, 83, 127
10, 582840, Note_on_c, 7, 80, 127
10, 582960, Note_off_c, 7, 80, 127
10, 582960, Note_on_c, 7, 83, 127
10, 583080, Note_off_c, 7, 83, 127
10, 583080, Note_on_c, 7, 80, 127
10, 583200, Note_off_c, 7, 80, 127
10, 583200, Note_on_c, 7, 79, 127
10, 583320, Note_off_c, 7, 79, 127
10, 583320, Note_on_c, 7, 79, 127
10, 583440, Note_off_c, 7, 79, 127
10, 583440, Note_on_c, 7, 79, 127
10, 583560, Note_off_c, 7, 79, 127
10, 583560, Note_on_c, 7, 79, 127
10, 583680, Note_off_c, 7, 79, 127
10, 583680, Note_on_c, 7, 79, 127
10, 583800, Note_off_c, 7, 79, 127
10, 583800, Note_on_c, 7, 79, 127
10, 583920, Note_off_c, 7, 79, 127
10, 583920, Note_on_c, 7, 79, 127
10, 584040, Note_off_c, 7, 79, 127
10, 584040, Note_on_c, 7, 79, 127
10, 584160, Note_off_c, 7, 79, 127
10, 584160, Note_on_c, 7, 79, 127
10, 584280, Note_off_c, 7, 79, 127
10, 584280, Note_on_c, 7, 79, 127
10, 584400, Note_off_c, 7, 79, 127
10, 584400, Note_on_c, 7, 79, 127
10, 584520, Note_off_c, 7, 79, 127
10, 584520, Note_on_c, 7, 79, 127
10, 584640, Note_off_c, 7, 79, 127
10, 584640, Note_on_c, 7, 79, 127
10, 584760, Note_off_c, 7, 79, 127
10, 584760, Note_on_c, 7, 79, 127
10, 584880, Note_off_c, 7, 79, 127
10, 584880, Note_on_c, 7, 79, 127
10, 585000, Note_off_c, 7, 79, 127
10, 585000, Note_on_c, 7, 79, 127
10, 585120, Note_off_c, 7, 79, 127
10, 585120, Note_on_c, 7, 79, 127
10, 585240, Note_off_c, 7, 79, 127
10, 585240, Note_on_c, 7, 79, 127
10, 585360, Note_off_c, 7, 79, 127
10, 585360, Note_on_c, 7, 79, 127
10, 585480, Note_off_c, 7, 79, 127
10, 585480, Note_on_c, 7, 79, 127
10, 585600, Note_off_c, 7, 79, 127
10, 585600, Note_on_c, 7, 79, 127
10, 585720, Note_off_c, 7, 79, 127
10, 585720, Note_on_c, 7, 79, 127
10, 585840, Note_off_c, 7, 79, 127
10, 585840, Note_on_c, 7, 79, 127
10, 585960, Note_off_c, 7, 79, 127
10, 585960, Note_on_c, 7, 79, 127
10, 586080, Note_off_c, 7, 79, 127
10, 586080, Note_on_c, 7, 79, 127
10, 586200, Note_off_c, 7, 79, 127
10, 586200, Note_on_c, 7, 79, 127
10, 586320, Note_off_c, 7, 79, 127
10, 586320, Note_on_c, 7, 79, 127
10, 586440, Note_off_c, 7, 79, 127
10, 586440, Note_on_c, 7, 79, 127
10, 586559, Note_off_c, 7, 79, 127
10, 586560, Note_on_c, 7, 83, 127
10, 586800, Note_off_c, 7, 83, 127
10, 586800, Note_on_c, 7, 84, 127
10, 587040, Note_off_c, 7, 84, 127
10, 587040, Note_on_c, 7, 86, 127
10, 587280, Note_off_c, 7, 86, 127
10, 587280, Note_on_c, 7, 87, 127
10, 587520, Note_off_c, 7, 87, 127
10, 587520, Note_on_c, 7, 89, 127
10, 587760, Note_off_c, 7, 89, 127
10, 587760, Note_on_c, 7, 91, 127
10, 588000, Note_off_c, 7, 91, 127
10, 588000, Note_on_c, 7, 92, 127
10, 588240, Note_off_c, 7, 92, 127
10, 588240, Note_on_c, 7, 91, 127
10, 588480, Note_off_c, 7, 91, 127
10, 588480, Note_on_c, 7, 89, 127
10, 588720, Note_off_c, 7, 89, 127
10, 588720, Note_on_c, 7, 87, 127
10, 588960, Note_off_c, 7, 87, 127
10, 588960, Note_on_c, 7, 86, 127
10, 589200, Note_off_c, 7, 86, 127
10, 589200, Note_on_c, 7, 84, 127
10, 589440, Note_off_c, 7, 84, 127
10, 589440, Note_on_c, 7, 83, 127
10, 589560, Note_off_c, 7, 83, 127
10, 589560, Note_on_c, 7, 83, 127
10, 589680, Note_off_c, 7, 83, 127
10, 589680, Note_on_c, 7, 83, 127
10, 589800, Note_off_c, 7, 83, 127
10, 589800, Note_on_c, 7, 83, 127
10, 589920, Note_off_c, 7, 83, 127
10, 589920, Note_on_c, 7, 83, 127
10, 590040, Note_off_c, 7, 83, 127
10, 590040, Note_on_c, 7, 83, 127
10, 590160, Note_off_c, 7, 83, 127
10, 590160, Note_on_c, 7, 83, 127
10, 590280, Note_off_c, 7, 83, 127
10, 590280, Note_on_c, 7, 83, 127
10, 590400, Note_off_c, 7, 83, 127
10, 590400, Note_on_c, 7, 83, 127
10, 590520, Note_off_c, 7, 83, 127
10, 590520, Note_on_c, 7, 83, 127
10, 590640, Note_off_c, 7, 83, 127
10, 590640, Note_on_c, 7, 83, 127
10, 590760, Note_off_c, 7, 83, 127
10, 590760, Note_on_c, 7, 83, 127
10, 590880, Note_off_c, 7, 83, 127
10, 590880, Note_on_c, 7, 83, 127
10, 591000, Note_off_c, 7, 83, 127
10, 591000, Note_on_c, 7, 83, 127
10, 591120, Note_off_c, 7, 83, 127
10, 591120, Note_on_c, 7, 83, 127
10, 591240, Note_off_c, 7, 83, 127
10, 591240, Note_on_c, 7, 83, 127
10, 591360, Note_off_c, 7, 83, 127
10, 591360, Note_on_c, 7, 83, 127
10, 591480, Note_off_c, 7, 83, 127
10, 591480, Note_on_c, 7, 83, 127
10, 591600, Note_off_c, 7, 83, 127
10, 591600, Note_on_c, 7, 83, 127
10, 591720, Note_off_c, 7, 83, 127
10, 591720, Note_on_c, 7, 83, 127
10, 591840, Note_off_c, 7, 83, 127
10, 591840, Note_on_c, 7, 83, 127
10, 591960, Note_off_c, 7, 83, 127
10, 591960, Note_on_c, 7, 83, 127
10, 592080, Note_off_c, 7, 83, 127
10, 592080, Note_on_c, 7, 83, 127
10, 592200, Note_off_c, 7, 83, 127
10, 592200, Note_on_c, 7, 83, 127
10, 592319, Note_off_c, 7, 83, 127
10, 592320, Note_on_c, 7, 82, 127
10, 592581, Note_off_c, 7, 82, 127
10, 592581, Note_on_c, 7, 77, 127
10, 592842, Note_off_c, 7, 77, 127
10, 592842, Note_on_c, 7, 77, 127
10, 593103, Note_off_c, 7, 77, 127
10, 593103, Note_on_c, 7, 77, 127
10, 593364, Note_off_c, 7, 77, 127
10, 593364, Note_on_c, 7, 81, 127
10, 593625, Note_off_c, 7, 81, 127
10, 593625, Note_on_c, 7, 79, 127
10, 593886, Note_off_c, 7, 79, 127
10, 593886, Note_on_c, 7, 84, 127
10, 594147, Note_off_c, 7, 84, 127
10, 594147, Note_on_c, 7, 84, 127
10, 594408, Note_off_c, 7, 84, 127
10, 594408, Note_on_c, 7, 84, 127
10, 594669, Note_off_c, 7, 84, 127
10, 594669, Note_on_c, 7, 79, 127
10, 594930, Note_off_c, 7, 79, 127
10, 594930, Note_on_c, 7, 81, 127
10, 595191, Note_off_c, 7, 81, 127
10, 595200, Note_on_c, 7, 81, 127
10, 595488, Note_off_c, 7, 81, 127
10, 595776, Note_on_c, 7, 84, 127
10, 596064, Note_off_c, 7, 84, 127
10, 596352, Note_on_c, 7, 86, 127
10, 596640, Note_off_c, 7, 86, 127
10, 596928, Note_on_c, 7, 79, 127
10, 597216, Note_off_c, 7, 79, 127
10, 597504, Note_on_c, 7, 82, 127
10, 597792, Note_off_c, 7, 82, 127
10, 598080, Note_on_c, 7, 81, 127
10, 598200, Note_off_c, 7, 81, 127
10, 598200, Note_on_c, 7, 81, 127
10, 598320, Note_off_c, 7, 81, 127
10, 598320, Note_on_c, 7, 81, 127
10, 598440, Note_off_c, 7, 81, 127
10, 598440, Note_on_c, 7, 81, 127
10, 598560, Note_off_c, 7, 81, 127
10, 598560, Note_on_c, 7, 81, 127
10, 598680, Note_off_c, 7, 81, 127
10, 598680, Note_on_c, 7, 81, 127
10, 598800, Note_off_c, 7, 81, 127
10, 598800, Note_on_c, 7, 81, 127
10, 598920, Note_off_c, 7, 81, 127
10, 598920, Note_on_c, 7, 81, 127
10, 599040, Note_off_c, 7, 81, 127
10, 599040, Note_on_c, 7, 81, 127
10, 599160, Note_off_c, 7, 81, 127
10, 599160, Note_on_c, 7, 81, 127
10, 599280, Note_off_c, 7, 81, 127
10, 599280, Note_on_c, 7, 81, 127
10, 599400, Note_off_c, 7, 81, 127
10, 599400, Note_on_c, 7, 81, 127
10, 599520, Note_off_c, 7, 81, 127
10, 599520, Note_on_c, 7, 81, 127
10, 599640, Note_off_c, 7, 81, 127
10, 599640, Note_on_c, 7, 81, 127
10, 599760, Note_off_c, 7, 81, 127
10, 599760, Note_on_c, 7, 81, 127
10, 599880, Note_off_c, 7, 81, 127
10, 599880, Note_on_c, 7, 81, 127
10, 599999, Note_off_c, 7, 81, 127
10, 600160, Note_on_c, 7, 82, 127
10, 600320, Note_off_c, 7, 82, 127
10, 600320, Note_on_c, 7, 82, 127
10, 600480, Note_off_c, 7, 82, 127
10, 600480, Note_on_c, 7, 79, 127
10, 600640, Note_off_c, 7, 79, 127
10, 600640, Note_on_c, 7, 79, 127
10, 600800, Note_off_c, 7, 79, 127
10, 600800, Note_on_c, 7, 82, 127
10, 600960, Note_off_c, 7, 82, 127
10, 600960, Note_on_c, 7, 81, 127
10, 601080, Note_off_c, 7, 81, 127
10, 601080, Note_on_c, 7, 81, 127
10, 601200, Note_off_c, 7, 81, 127
10, 601200, Note_on_c, 7, 81, 127
10, 601320, Note_off_c, 7, 81, 127
10, 601320, Note_on_c, 7, 81, 127
10, 601440, Note_off_c, 7, 81, 127
10, 601440, Note_on_c, 7, 81, 127
10, 601560, Note_off_c, 7, 81, 127
10, 601560, Note_on_c, 7, 81, 127
10, 601680, Note_off_c, 7, 81, 127
10, 601680, Note_on_c, 7, 81, 127
10, 601800, Note_off_c, 7, 81, 127
10, 601800, Note_on_c, 7, 81, 127
10, 601920, Note_off_c, 7, 81, 127
10, 601920, Note_on_c, 7, 81, 127
10, 602040, Note_off_c, 7, 81, 127
10, 602040, Note_on_c, 7, 81, 127
10, 602159, Note_off_c, 7, 81, 127
10, 602160, Note_on_c, 7, 74, 127
10, 602400, Note_off_c, 7, 74, 127
10, 602400, Note_on_c, 7, 76, 127
10, 602640, Note_off_c, 7, 76, 127
10, 602640, Note_on_c, 7, 77, 127
10, 602880, Note_off_c, 7, 77, 127
10, 602880, Note_on_c, 7, 79, 127
10, 603120, Note_off_c, 7, 79, 127
10, 603120, Note_on_c, 7, 81, 127
10, 603360, Note_off_c, 7, 81, 127
10, 603360, Note_on_c, 7, 82, 127
10, 603600, Note_off_c, 7, 82, 127
10, 603600, Note_on_c, 7, 84, 127
10, 603840, Note_off_c, 7, 84, 127
10, 603840, Note_on_c, 7, 86, 127
10, 604032, Note_off_c, 7, 86, 127
10, 604032, Note_on_c, 7, 88, 127
10, 604224, Note_off_c, 7, 88, 127
10, 604224, Note_on_c, 7, 89, 127
10, 604416, Note_off_c, 7, 89, 127
10, 604416, Note_on_c, 7, 91, 127
10, 604608, Note_off_c, 7, 91, 127
10, 604608, Note_on_c, 7, 93, 127
10, 604800, Note_off_c, 7, 93, 127
10, 604800, Note_on_c, 7, 95, 127
10, 604920, Note_off_c, 7, 95, 127
10, 604920, Note_on_c, 7, 95, 127
10, 605040, Note_off_c, 7, 95, 127
10, 605040, Note_on_c, 7, 95, 127
10, 605160, Note_off_c, 7, 95, 127
10, 605160, Note_on_c, 7, 95, 127
10, 605280, Note_off_c, 7, 95, 127
10, 605280, Note_on_c, 7, 95, 127
10, 605400, Note_off_c, 7, 95, 127
10, 605400, Note_on_c, 7, 95, 127
10, 605520, Note_off_c, 7, 95, 127
10, 605520, Note_on_c, 7, 95, 127
10, 605640, Note_off_c, 7, 95, 127
10, 605640, Note_on_c, 7, 95, 127
10, 605760, Note_off_c, 7, 95, 127
10, 605760, Note_on_c, 7, 95, 127
10, 605880, Note_off_c, 7, 95, 127
10, 605880, Note_on_c, 7, 95, 127
10, 606000, Note_off_c, 7, 95, 127
10, 606000, Note_on_c, 7, 95, 127
10, 606120, Note_off_c, 7, 95, 127
10, 606120, Note_on_c, 7, 95, 127
10, 606240, Note_off_c, 7, 95, 127
10, 606240, Note_on_c, 7, 95, 127
10, 606360, Note_off_c, 7, 95, 127
10, 606360, Note_on_c, 7, 95, 127
10, 606480, Note_off_c, 7, 95, 127
10, 606480, Note_on_c, 7, 95, 127
10, 606600, Note_off_c, 7, 95, 127
10, 606600, Note_on_c, 7, 95, 127
10, 606720, Note_off_c, 7, 95, 127
10, 606720, Note_on_c, 7, 95, 127
10, 606840, Note_off_c, 7, 95, 127
10, 606840, Note_on_c, 7, 95, 127
10, 606960, Note_off_c, 7, 95, 127
10, 606960, Note_on_c, 7, 95, 127
10, 607080, Note_off_c, 7, 95, 127
10, 607080, Note_on_c, 7, 95, 127
10, 607200, Note_off_c, 7, 95, 127
10, 607200, Note_on_c, 7, 95, 127
10, 607320, Note_off_c, 7, 95, 127
10, 607320, Note_on_c, 7, 95, 127
10, 607440, Note_off_c, 7, 95, 127
10, 607440, Note_on_c, 7, 95, 127
10, 607560, Note_off_c, 7, 95, 127
10, 607560, Note_on_c, 7, 95, 127
10, 607680, Note_off_c, 7, 95, 127
10, 607680, Note_on_c, 7, 95, 127
10, 607800, Note_off_c, 7, 95, 127
10, 607800, Note_on_c, 7, 95, 127
10, 607920, Note_off_c, 7, 95, 127
10, 607920, Note_on_c, 7, 95, 127
10, 608040, Note_off_c, 7, 95, 127
10, 608040, Note_on_c, 7, 95, 127
10, 608160, Note_off_c, 7, 95, 127
10, 608160, Note_on_c, 7, 95, 127
10, 608280, Note_off_c, 7, 95, 127
10, 608280, Note_on_c, 7, 95, 127
10, 608400, Note_off_c, 7, 95, 127
10, 608400, Note_on_c, 7, 95, 127
10, 608520, Note_off_c, 7, 95, 127
10, 608520, Note_on_c, 7, 95, 127
10, 608639, Note_off_c, 7, 95, 127
10, 609792, Note_on_c, 7, 93, 127
10, 609984, Note_off_c, 7, 93, 127
10, 609984, Note_on_c, 7, 95, 127
10, 610176, Note_off_c, 7, 95, 127
10, 610176, Note_on_c, 7, 90, 127
10, 610368, Note_off_c, 7, 90, 127
10, 610368, Note_on_c, 7, 92, 127
10, 610560, Note_off_c, 7, 92, 127
10, 610560, Note_on_c, 7, 85, 127
10, 610680, Note_off_c, 7, 85, 127
10, 610680, Note_on_c, 7, 85, 127
10, 610800, Note_off_c, 7, 85, 127
10, 610800, Note_on_c, 7, 85, 127
10, 610920, Note_off_c, 7, 85, 127
10, 610920, Note_on_c, 7, 85, 127
10, 611040, Note_off_c, 7, 85, 127
10, 611040, Note_on_c, 7, 85, 127
10, 611160, Note_off_c, 7, 85, 127
10, 611160, Note_on_c, 7, 85, 127
10, 611280, Note_off_c, 7, 85, 127
10, 611280, Note_on_c, 7, 85, 127
10, 611400, Note_off_c, 7, 85, 127
10, 611400, Note_on_c, 7, 85, 127
10, 611520, Note_off_c, 7, 85, 127
10, 611520, Note_on_c, 7, 85, 127
10, 611640, Note_off_c, 7, 85, 127
10, 611640, Note_on_c, 7, 85, 127
10, 611760, Note_off_c, 7, 85, 127
10, 611760, Note_on_c, 7, 85, 127
10, 611880, Note_off_c, 7, 85, 127
10, 611880, Note_on_c, 7, 85, 127
10, 612000, Note_off_c, 7, 85, 127
10, 612000, Note_on_c, 7, 85, 127
10, 612120, Note_off_c, 7, 85, 127
10, 612120, Note_on_c, 7, 85, 127
10, 612240, Note_off_c, 7, 85, 127
10, 612240, Note_on_c, 7, 85, 127
10, 612360, Note_off_c, 7, 85, 127
10, 612360, Note_on_c, 7, 85, 127
10, 612479, Note_off_c, 7, 85, 127
10, 612480, Note_on_c, 7, 97, 127
10, 612720, Note_off_c, 7, 97, 127
10, 612720, Note_on_c, 7, 95, 127
10, 612960, Note_off_c, 7, 95, 127
10, 612960, Note_on_c, 7, 93, 127
10, 613200, Note_off_c, 7, 93, 127
10, 613200, Note_on_c, 7, 92, 127
10, 613440, Note_off_c, 7, 92, 127
10, 613440, Note_on_c, 7, 90, 127
10, 613680, Note_off_c, 7, 90, 127
10, 613680, Note_on_c, 7, 88, 127
10, 613920, Note_off_c, 7, 88, 127
10, 613920, Note_on_c, 7, 87, 127
10, 614160, Note_off_c, 7, 87, 127
10, 614160, Note_on_c, 7, 85, 127
10, 614400, Note_off_c, 7, 85, 127
10, 614400, Note_on_c, 7, 83, 127
10, 614640, Note_off_c, 7, 83, 127
10, 614640, Note_on_c, 7, 81, 127
10, 614880, Note_off_c, 7, 81, 127
10, 614880, Note_on_c, 7, 80, 127
10, 615120, Note_off_c, 7, 80, 127
10, 615120, Note_on_c, 7, 78, 127
10, 615360, Note_off_c, 7, 78, 127
10, 615360, Note_on_c, 7, 77, 127
10, 615480, Note_off_c, 7, 77, 127
10, 615480, Note_on_c, 7, 77, 127
10, 615600, Note_off_c, 7, 77, 127
10, 615600, Note_on_c, 7, 77, 127
10, 615720, Note_off_c, 7, 77, 127
10, 615720, Note_on_c, 7, 77, 127
10, 615840, Note_off_c, 7, 77, 127
10, 615840, Note_on_c, 7, 77, 127
10, 615960, Note_off_c, 7, 77, 127
10, 615960, Note_on_c, 7, 77, 127
10, 616080, Note_off_c, 7, 77, 127
10, 616080, Note_on_c, 7, 77, 127
10, 616200, Note_off_c, 7, 77, 127
10, 616200, Note_on_c, 7, 77, 127
10, 616320, Note_off_c, 7, 77, 127
10, 616320, Note_on_c, 7, 77, 127
10, 616440, Note_off_c, 7, 77, 127
10, 616440, Note_on_c, 7, 77, 127
10, 616560, Note_off_c, 7, 77, 127
10, 616560, Note_on_c, 7, 77, 127
10, 616680, Note_off_c, 7, 77, 127
10, 616680, Note_on_c, 7, 77, 127
10, 616800, Note_off_c, 7, 77, 127
10, 616800, Note_on_c, 7, 77, 127
10, 616920, Note_off_c, 7, 77, 127
10, 616920, Note_on_c, 7, 77, 127
10, 617040, Note_off_c, 7, 77, 127
10, 617040, Note_on_c, 7, 77, 127
10, 617160, Note_off_c, 7, 77, 127
10, 617160, Note_on_c, 7, 77, 127
10, 617279, Note_off_c, 7, 77, 127
10, 617520, Note_on_c, 7, 79, 127
10, 617760, Note_off_c, 7, 79, 127
10, 617760, Note_on_c, 7, 80, 127
10, 618000, Note_off_c, 7, 80, 127
10, 618000, Note_on_c, 7, 82, 127
10, 618240, Note_off_c, 7, 82, 127
10, 618240, Note_on_c, 7, 79, 127
10, 618360, Note_off_c, 7, 79, 127
10, 618360, Note_on_c, 7, 79, 127
10, 618480, Note_off_c, 7, 79, 127
10, 618480, Note_on_c, 7, 79, 127
10, 618600, Note_off_c, 7, 79, 127
10, 618600, Note_on_c, 7, 79, 127
10, 618720, Note_off_c, 7, 79, 127
10, 618720, Note_on_c, 7, 79, 127
10, 618840, Note_off_c, 7, 79, 127
10, 618840, Note_on_c, 7, 79, 127
10, 618960, Note_off_c, 7, 79, 127
10, 618960, Note_on_c, 7, 79, 127
10, 619080, Note_off_c, 7, 79, 127
10, 619080, Note_on_c, 7, 79, 127
10, 619199, Note_off_c, 7, 79, 127
10, 619680, Note_on_c, 7, 79, 127
10, 619800, Note_off_c, 7, 79, 127
10, 619800, Note_on_c, 7, 79, 127
10, 619920, Note_off_c, 7, 79, 127
10, 619920, Note_on_c, 7, 79, 127
10, 620040, Note_off_c, 7, 79, 127
10, 620040, Note_on_c, 7, 79, 127
10, 620160, Note_off_c, 7, 79, 127
10, 620160, Note_on_c, 7, 79, 127
10, 620280, Note_off_c, 7, 79, 127
10, 620280, Note_on_c, 7, 79, 127
10, 620400, Note_off_c, 7, 79, 127
10, 620400, Note_on_c, 7, 79, 127
10, 620520, Note_off_c, 7, 79, 127
10, 620520, Note_on_c, 7, 79, 127
10, 620640, Note_off_c, 7, 79, 127
10, 620640, Note_on_c, 7, 79, 127
10, 620760, Note_off_c, 7, 79, 127
10, 620760, Note_on_c, 7, 79, 127
10, 620880, Note_off_c, 7, 79, 127
10, 620880, Note_on_c, 7, 79, 127
10, 621000, Note_off_c, 7, 79, 127
10, 621000, Note_on_c, 7, 79, 127
10, 621119, Note_off_c, 7, 79, 127
10, 621360, Note_on_c, 7, 75, 127
10, 621600, Note_off_c, 7, 75, 127
10, 621600, Note_on_c, 7, 78, 127
10, 621840, Note_off_c, 7, 78, 127
10, 621840, Note_on_c, 7, 70, 127
10, 622080, Note_off_c, 7, 70, 127
10, 622080, Note_on_c, 7, 72, 127
10, 622320, Note_off_c, 7, 72, 127
10, 622320, Note_on_c, 7, 76, 127
10, 622560, Note_off_c, 7, 76, 127
10, 622560, Note_on_c, 7, 80, 127
10, 622800, Note_off_c, 7, 80, 127
10, 622800, Note_on_c, 7, 72, 127
10, 623040, Note_off_c, 7, 72, 127
10, 623040, Note_on_c, 7, 77, 127
10, 623160, Note_off_c, 7, 77, 127
10, 623160, Note_on_c, 7, 77, 127
10, 623280, Note_off_c, 7, 77, 127
10, 623280, Note_on_c, 7, 77, 127
10, 623400, Note_off_c, 7, 77, 127
10, 623400, Note_on_c, 7, 77, 127
10, 623520, Note_off_c, 7, 77, 127
10, 623520, Note_on_c, 7, 77, 127
10, 623640, Note_off_c, 7, 77, 127
10, 623640, Note_on_c, 7, 77, 127
10, 623760, Note_off_c, 7, 77, 127
10, 623760, Note_on_c, 7, 77, 127
10, 623880, Note_off_c, 7, 77, 127
10, 623880, Note_on_c, 7, 77, 127
10, 624000, Note_off_c, 7, 77, 127
10, 624000, Note_on_c, 7, 77, 127
10, 624120, Note_off_c, 7, 77, 127
10, 624120, Note_on_c, 7, 77, 127
10, 624240, Note_off_c, 7, 77, 127
10, 624240, Note_on_c, 7, 77, 127
10, 624360, Note_off_c, 7, 77, 127
10, 624360, Note_on_c, 7, 77, 127
10, 624480, Note_off_c, 7, 77, 127
10, 624480, Note_on_c, 7, 77, 127
10, 624600, Note_off_c, 7, 77, 127
10, 624600, Note_on_c, 7, 77, 127
10, 624720, Note_off_c, 7, 77, 127
10, 624720, Note_on_c, 7, 77, 127
10, 624840, Note_off_c, 7, 77, 127
10, 624840, Note_on_c, 7, 77, 127
10, 624959, Note_off_c, 7, 77, 127
10, 625440, Note_on_c, 7, 77, 127
10, 625600, Note_off_c, 7, 77, 127
10, 625600, Note_on_c, 7, 77, 127
10, 625760, Note_off_c, 7, 77, 127
10, 625760, Note_on_c, 7, 77, 127
10, 625920, Note_off_c, 7, 77, 127
10, 625920, Note_on_c, 7, 77, 127
10, 626160, Note_off_c, 7, 77, 127
10, 626160, Note_on_c, 7, 77, 127
10, 626400, Note_off_c, 7, 77, 127
10, 626400, Note_on_c, 7, 77, 127
10, 626640, Note_off_c, 7, 77, 127
10, 626640, Note_on_c, 7, 77, 127
10, 626880, Note_off_c, 7, 77, 127
10, 626880, Note_on_c, 7, 77, 127
10, 627000, Note_off_c, 7, 77, 127
10, 627000, Note_on_c, 7, 77, 127
10, 627120, Note_off_c, 7, 77, 127
10, 627120, Note_on_c, 7, 77, 127
10, 627240, Note_off_c, 7, 77, 127
10, 627240, Note_on_c, 7, 77, 127
10, 627360, Note_off_c, 7, 77, 127
10, 627360, Note_on_c, 7, 77, 127
10, 627480, Note_off_c, 7, 77, 127
10, 627480, Note_on_c, 7, 77, 127
10, 627600, Note_off_c, 7, 77, 127
10, 627600, Note_on_c, 7, 77, 127
10, 627720, Note_off_c, 7, 77, 127
10, 627720, Note_on_c, 7, 77, 127
10, 627839, Note_off_c, 7, 77, 127
10, 628320, Note_on_c, 7, 79, 127
10, 628560, Note_off_c, 7, 79, 127
10, 628560, Note_on_c, 7, 81, 127
10, 628800, Note_off_c, 7, 81, 127
10, 628800, Note_on_c, 7, 83, 127
10, 629040, Note_off_c, 7, 83, 127
10, 629040, Note_on_c, 7, 84, 127
10, 629280, Note_off_c, 7, 84, 127
10, 629280, Note_on_c, 7, 86, 127
10, 629520, Note_off_c, 7, 86, 127
10, 629520, Note_on_c, 7, 88, 127
10, 629760, Note_off_c, 7, 88, 127
10, 629760, Note_on_c, 7, 88, 127
10, 630000, Note_off_c, 7, 88, 127
10, 630000, Note_on_c, 7, 84, 127
10, 630240, Note_off_c, 7, 84, 127
10, 630240, Note_on_c, 7, 83, 127
10, 630480, Note_off_c, 7, 83, 127
10, 630480, Note_on_c, 7, 79, 127
10, 630720, Note_off_c, 7, 79, 127
10, 630720, Note_on_c, 7, 77, 127
10, 630960, Note_off_c, 7, 77, 127
10, 630960, Note_on_c, 7, 84, 127
10, 631200, Note_off_c, 7, 84, 127
10, 631200, Note_on_c, 7, 83, 127
10, 631440, Note_off_c, 7, 83, 127
10, 631440, Note_on_c, 7, 79, 127
10, 631680, Note_off_c, 7, 79, 127
10, 631680, Note_on_c, 7, 76, 127
10, 631872, Note_off_c, 7, 76, 127
10, 631872, Note_on_c, 7, 71, 127
10, 632064, Note_off_c, 7, 71, 127
10, 632064, Note_on_c, 7, 74, 127
10, 632256, Note_off_c, 7, 74, 127
10, 632256, Note_on_c, 7, 79, 127
10, 632448, Note_off_c, 7, 79, 127
10, 632448, Note_on_c, 7, 76, 127
10, 632640, Note_off_c, 7, 76, 127
10, 632640, Note_on_c, 7, 78, 127
10, 632960, Note_off_c, 7, 78, 127
10, 633280, Note_on_c, 7, 78, 127
10, 633600, Note_off_c, 7, 78, 127
10, 633984, Note_on_c, 7, 78, 127
10, 634176, Note_off_c, 7, 78, 127
10, 634176, Note_on_c, 7, 78, 127
10, 634368, Note_off_c, 7, 78, 127
10, 634368, Note_on_c, 7, 78, 127
10, 634560, Note_off_c, 7, 78, 127
10, 634560, Note_on_c, 7, 78, 127
10, 634680, Note_off_c, 7, 78, 127
10, 634680, Note_on_c, 7, 78, 127
10, 634800, Note_off_c, 7, 78, 127
10, 634800, Note_on_c, 7, 78, 127
10, 634920, Note_off_c, 7, 78, 127
10, 634920, Note_on_c, 7, 78, 127
10, 635040, Note_off_c, 7, 78, 127
10, 635040, Note_on_c, 7, 78, 127
10, 635160, Note_off_c, 7, 78, 127
10, 635160, Note_on_c, 7, 78, 127
10, 635280, Note_off_c, 7, 78, 127
10, 635280, Note_on_c, 7, 78, 127
10, 635400, Note_off_c, 7, 78, 127
10, 635400, Note_on_c, 7, 78, 127
10, 635520, Note_off_c, 7, 78, 127
10, 635520, Note_on_c, 7, 78, 127
10, 635640, Note_off_c, 7, 78, 127
10, 635640, Note_on_c, 7, 78, 127
10, 635760, Note_off_c, 7, 78, 127
10, 635760, Note_on_c, 7, 78, 127
10, 635880, Note_off_c, 7, 78, 127
10, 635880, Note_on_c, 7, 78, 127
10, 636000, Note_off_c, 7, 78, 127
10, 636000, Note_on_c, 7, 78, 127
10, 636120, Note_off_c, 7, 78, 127
10, 636120, Note_on_c, 7, 78, 127
10, 636240, Note_off_c, 7, 78, 127
10, 636240, Note_on_c, 7, 78, 127
10, 636360, Note_off_c, 7, 78, 127
10, 636360, Note_on_c, 7, 78, 127
10, 636480, Note_off_c, 7, 78, 127
10, 636480, Note_on_c, 7, 78, 127
10, 636600, Note_off_c, 7, 78, 127
10, 636600, Note_on_c, 7, 78, 127
10, 636720, Note_off_c, 7, 78, 127
10, 636720, Note_on_c, 7, 78, 127
10, 636840, Note_off_c, 7, 78, 127
10, 636840, Note_on_c, 7, 78, 127
10, 636960, Note_off_c, 7, 78, 127
10, 636960, Note_on_c, 7, 78, 127
10, 637080, Note_off_c, 7, 78, 127
10, 637080, Note_on_c, 7, 78, 127
10, 637200, Note_off_c, 7, 78, 127
10, 637200, Note_on_c, 7, 78, 127
10, 637320, Note_off_c, 7, 78, 127
10, 637320, Note_on_c, 7, 78, 127
10, 637440, Note_off_c, 7, 78, 127
10, 637440, Note_on_c, 7, 78, 127
10, 637560, Note_off_c, 7, 78, 127
10, 637560, Note_on_c, 7, 78, 127
10, 637680, Note_off_c, 7, 78, 127
10, 637680, Note_on_c, 7, 78, 127
10, 637800, Note_off_c, 7, 78, 127
10, 637800, Note_on_c, 7, 78, 127
10, 637920, Note_off_c, 7, 78, 127
10, 637920, Note_on_c, 7, 78, 127
10, 638040, Note_off_c, 7, 78, 127
10, 638040, Note_on_c, 7, 78, 127
10, 638160, Note_off_c, 7, 78, 127
10, 638160, Note_on_c, 7, 78, 127
10, 638280, Note_off_c, 7, 78, 127
10, 638280, Note_on_c, 7, 78, 127
10, 638399, Note_off_c, 7, 78, 127
10, 638720, Note_on_c, 7, 78, 127
10, 638880, Note_off_c, 7, 78, 127
10, 638880, Note_on_c, 7, 78, 127
10, 639040, Note_off_c, 7, 78, 127
10, 639040, Note_on_c, 7, 78, 127
10, 639200, Note_off_c, 7, 78, 127
10, 639200, Note_on_c, 7, 78, 127
10, 639360, Note_off_c, 7, 78, 127
10, 639360, Note_on_c, 7, 78, 127
10, 639634, Note_off_c, 7, 78, 127
10, 639634, Note_on_c, 7, 80, 127
10, 639908, Note_off_c, 7, 80, 127
10, 639908, Note_on_c, 7, 81, 127
10, 640182, Note_off_c, 7, 81, 127
10, 640182, Note_on_c, 7, 83, 127
10, 640456, Note_off_c, 7, 83, 127
10, 640456, Note_on_c, 7, 84, 127
10, 640730, Note_off_c, 7, 84, 127
10, 640730, Note_on_c, 7, 86, 127
10, 641004, Note_off_c, 7, 86, 127
10, 641004, Note_on_c, 7, 87, 127
10, 641278, Note_off_c, 7, 87, 127
10, 641280, Note_on_c, 7, 90, 127
10, 641400, Note_off_c, 7, 90, 127
10, 641400, Note_on_c, 7, 90, 127
10, 641520, Note_off_c, 7, 90, 127
10, 641520, Note_on_c, 7, 90, 127
10, 641640, Note_off_c, 7, 90, 127
10, 641640, Note_on_c, 7, 90, 127
10, 641760, Note_off_c, 7, 90, 127
10, 641760, Note_on_c, 7, 90, 127
10, 641880, Note_off_c, 7, 90, 127
10, 641880, Note_on_c, 7, 90, 127
10, 642000, Note_off_c, 7, 90, 127
10, 642000, Note_on_c, 7, 90, 127
10, 642120, Note_off_c, 7, 90, 127
10, 642120, Note_on_c, 7, 90, 127
10, 642239, Note_off_c, 7, 90, 127
10, 642480, Note_on_c, 7, 86, 127
10, 642720, Note_off_c, 7, 86, 127
10, 642720, Note_on_c, 7, 81, 127
10, 642960, Note_off_c, 7, 81, 127
10, 642960, Note_on_c, 7, 79, 127
10, 643200, Note_off_c, 7, 79, 127
10, 643200, Note_on_c, 7, 86, 127
10, 643360, Note_off_c, 7, 86, 127
10, 643360, Note_on_c, 7, 87, 127
10, 643520, Note_off_c, 7, 87, 127
10, 643520, Note_on_c, 7, 82, 127
10, 643680, Note_off_c, 7, 82, 127
10, 643680, Note_on_c, 7, 81, 127
10, 643800, Note_off_c, 7, 81, 127
10, 643800, Note_on_c, 7, 81, 127
10, 643920, Note_off_c, 7, 81, 127
10, 643920, Note_on_c, 7, 81, 127
10, 644040, Note_off_c, 7, 81, 127
10, 644040, Note_on_c, 7, 81, 127
10, 644160, Note_off_c, 7, 81, 127
10, 644160, Note_on_c, 7, 81, 127
10, 644280, Note_off_c, 7, 81, 127
10, 644280, Note_on_c, 7, 81, 127
10, 644400, Note_off_c, 7, 81, 127
10, 644400, Note_on_c, 7, 81, 127
10, 644520, Note_off_c, 7, 81, 127
10, 644520, Note_on_c, 7, 81, 127
10, 644640, Note_off_c, 7, 81, 127
10, 644640, Note_on_c, 7, 81, 127
10, 644760, Note_off_c, 7, 81, 127
10, 644760, Note_on_c, 7, 81, 127
10, 644880, Note_off_c, 7, 81, 127
10, 644880, Note_on_c, 7, 81, 127
10, 645000, Note_off_c, 7, 81, 127
10, 645000, Note_on_c, 7, 81, 127
10, 645120, Note_off_c, 7, 81, 127
10, 645120, Note_on_c, 7, 81, 127
10, 645240, Note_off_c, 7, 81, 127
10, 645240, Note_on_c, 7, 81, 127
10, 645360, Note_off_c, 7, 81, 127
10, 645360, Note_on_c, 7, 81, 127
10, 645480, Note_off_c, 7, 81, 127
10, 645480, Note_on_c, 7, 81, 127
10, 645599, Note_off_c, 7, 81, 127
10, 645760, Note_on_c, 7, 79, 127
10, 645920, Note_off_c, 7, 79, 127
10, 645920, Note_on_c, 7, 82, 127
10, 646080, Note_off_c, 7, 82, 127
10, 646080, Note_on_c, 7, 81, 127
10, 646200, Note_off_c, 7, 81, 127
10, 646200, Note_on_c, 7, 81, 127
10, 646320, Note_off_c, 7, 81, 127
10, 646320, Note_on_c, 7, 81, 127
10, 646440, Note_off_c, 7, 81, 127
10, 646440, Note_on_c, 7, 81, 127
10, 646560, Note_off_c, 7, 81, 127
10, 646560, Note_on_c, 7, 81, 127
10, 646680, Note_off_c, 7, 81, 127
10, 646680, Note_on_c, 7, 81, 127
10, 646800, Note_off_c, 7, 81, 127
10, 646800, Note_on_c, 7, 81, 127
10, 646920, Note_off_c, 7, 81, 127
10, 646920, Note_on_c, 7, 81, 127
10, 647040, Note_off_c, 7, 81, 127
10, 647040, Note_on_c, 7, 81, 127
10, 647160, Note_off_c, 7, 81, 127
10, 647160, Note_on_c, 7, 81, 127
10, 647280, Note_off_c, 7, 81, 127
10, 647280, Note_on_c, 7, 81, 127
10, 647400, Note_off_c, 7, 81, 127
10, 647400, Note_on_c, 7, 81, 127
10, 647520, Note_off_c, 7, 81, 127
10, 647520, Note_on_c, 7, 81, 127
10, 647640, Note_off_c, 7, 81, 127
10, 647640, Note_on_c, 7, 81, 127
10, 647760, Note_off_c, 7, 81, 127
10, 647760, Note_on_c, 7, 81, 127
10, 647880, Note_off_c, 7, 81, 127
10, 647880, Note_on_c, 7, 81, 127
10, 648000, Note_off_c, 7, 81, 127
10, 648000, Note_on_c, 7, 81, 127
10, 648120, Note_off_c, 7, 81, 127
10, 648120, Note_on_c, 7, 81, 127
10, 648240, Note_off_c, 7, 81, 127
10, 648240, Note_on_c, 7, 81, 127
10, 648360, Note_off_c, 7, 81, 127
10, 648360, Note_on_c, 7, 81, 127
10, 648480, Note_off_c, 7, 81, 127
10, 648480, Note_on_c, 7, 81, 127
10, 648600, Note_off_c, 7, 81, 127
10, 648600, Note_on_c, 7, 81, 127
10, 648720, Note_off_c, 7, 81, 127
10, 648720, Note_on_c, 7, 81, 127
10, 648840, Note_off_c, 7, 81, 127
10, 648840, Note_on_c, 7, 81, 127
10, 648959, Note_off_c, 7, 81, 127
10, 651840, Note_on_c, 7, 77, 127
10, 651977, Note_off_c, 7, 77, 127
10, 651977, Note_on_c, 7, 79, 127
10, 652114, Note_off_c, 7, 79, 127
10, 652114, Note_on_c, 7, 79, 127
10, 652251, Note_off_c, 7, 79, 127
10, 652251, Note_on_c, 7, 84, 127
10, 652388, Note_off_c, 7, 84, 127
10, 652388, Note_on_c, 7, 82, 127
10, 652525, Note_off_c, 7, 82, 127
10, 652525, Note_on_c, 7, 79, 127
10, 652662, Note_off_c, 7, 79, 127
10, 652662, Note_on_c, 7, 74, 127
10, 652799, Note_off_c, 7, 74, 127
10, 652800, Note_on_c, 7, 76, 127
10, 652920, Note_off_c, 7, 76, 127
10, 652920, Note_on_c, 7, 76, 127
10, 653040, Note_off_c, 7, 76, 127
10, 653040, Note_on_c, 7, 76, 127
10, 653160, Note_off_c, 7, 76, 127
10, 653160, Note_on_c, 7, 76, 127
10, 653280, Note_off_c, 7, 76, 127
10, 653280, Note_on_c, 7, 76, 127
10, 653400, Note_off_c, 7, 76, 127
10, 653400, Note_on_c, 7, 76, 127
10, 653520, Note_off_c, 7, 76, 127
10, 653520, Note_on_c, 7, 76, 127
10, 653640, Note_off_c, 7, 76, 127
10, 653640, Note_on_c, 7, 76, 127
10, 653759, Note_off_c, 7, 76, 127
10, 654336, Note_on_c, 7, 79, 127
10, 654528, Note_off_c, 7, 79, 127
10, 654528, Note_on_c, 7, 86, 127
10, 654720, Note_off_c, 7, 86, 127
10, 654720, Note_on_c, 7, 83, 127
10, 654912, Note_off_c, 7, 83, 127
10, 654912, Note_on_c, 7, 84, 127
10, 655104, Note_off_c, 7, 84, 127
10, 655104, Note_on_c, 7, 88, 127
10, 655296, Note_off_c, 7, 88, 127
10, 655296, Note_on_c, 7, 89, 127
10, 655488, Note_off_c, 7, 89, 127
10, 655488, Note_on_c, 7, 86, 127
10, 655680, Note_off_c, 7, 86, 127
10, 655680, Note_on_c, 7, 84, 127
10, 655800, Note_off_c, 7, 84, 127
10, 655800, Note_on_c, 7, 89, 127
10, 655920, Note_off_c, 7, 89, 127
10, 655920, Note_on_c, 7, 88, 127
10, 656040, Note_off_c, 7, 88, 127
10, 656040, Note_on_c, 7, 84, 127
10, 656160, Note_off_c, 7, 84, 127
10, 656160, Note_on_c, 7, 88, 127
10, 656280, Note_off_c, 7, 88, 127
10, 656280, Note_on_c, 7, 88, 127
10, 656400, Note_off_c, 7, 88, 127
10, 656400, Note_on_c, 7, 88, 127
10, 656520, Note_off_c, 7, 88, 127
10, 656520, Note_on_c, 7, 88, 127
10, 656640, Note_off_c, 7, 88, 127
10, 656640, Note_on_c, 7, 88, 127
10, 656760, Note_off_c, 7, 88, 127
10, 656760, Note_on_c, 7, 88, 127
10, 656880, Note_off_c, 7, 88, 127
10, 656880, Note_on_c, 7, 88, 127
10, 657000, Note_off_c, 7, 88, 127
10, 657000, Note_on_c, 7, 88, 127
10, 657120, Note_off_c, 7, 88, 127
10, 657120, Note_on_c, 7, 88, 127
10, 657240, Note_off_c, 7, 88, 127
10, 657240, Note_on_c, 7, 88, 127
10, 657360, Note_off_c, 7, 88, 127
10, 657360, Note_on_c, 7, 88, 127
10, 657480, Note_off_c, 7, 88, 127
10, 657480, Note_on_c, 7, 88, 127
10, 657600, Note_off_c, 7, 88, 127
10, 657600, Note_on_c, 7, 88, 127
10, 657720, Note_off_c, 7, 88, 127
10, 657720, Note_on_c, 7, 88, 127
10, 657840, Note_off_c, 7, 88, 127
10, 657840, Note_on_c, 7, 88, 127
10, 657960, Note_off_c, 7, 88, 127
10, 657960, Note_on_c, 7, 88, 127
10, 658080, Note_off_c, 7, 88, 127
10, 658080, Note_on_c, 7, 88, 127
10, 658200, Note_off_c, 7, 88, 127
10, 658200, Note_on_c, 7, 88, 127
10, 658320, Note_off_c, 7, 88, 127
10, 658320, Note_on_c, 7, 88, 127
10, 658440, Note_off_c, 7, 88, 127
10, 658440, Note_on_c, 7, 88, 127
10, 658559, Note_off_c, 7, 88, 127
10, 661760, Note_on_c, 7, 88, 127
10, 662080, Note_off_c, 7, 88, 127
10, 662080, Note_on_c, 7, 88, 127
10, 662400, Note_off_c, 7, 88, 127
10, 662400, Note_on_c, 7, 88, 127
10, 662720, Note_off_c, 7, 88, 127
10, 663040, Note_on_c, 7, 88, 127
10, 663360, Note_off_c, 7, 88, 127
10, 663680, Note_on_c, 7, 88, 127
10, 664000, Note_off_c, 7, 88, 127
10, 664320, Note_on_c, 7, 88, 127
10, 664457, Note_off_c, 7, 88, 127
10, 664457, Note_on_c, 7, 86, 127
10, 664594, Note_off_c, 7, 86, 127
10, 664594, Note_on_c, 7, 83, 127
10, 664731, Note_off_c, 7, 83, 127
10, 664731, Note_on_c, 7, 88, 127
10, 664868, Note_off_c, 7, 88, 127
10, 664868, Note_on_c, 7, 86, 127
10, 665005, Note_off_c, 7, 86, 127
10, 665005, Note_on_c, 7, 88, 127
10, 665142, Note_off_c, 7, 88, 127
10, 665142, Note_on_c, 7, 89, 127
10, 665279, Note_off_c, 7, 89, 127
10, 665279, Note_on_c, 7, 80, 127
10, 665399, Note_off_c, 7, 80, 127
10, 665399, Note_on_c, 7, 80, 127
10, 665519, Note_off_c, 7, 80, 127
10, 665519, Note_on_c, 7, 80, 127
10, 665639, Note_off_c, 7, 80, 127
10, 665639, Note_on_c, 7, 80, 127
10, 665759, Note_off_c, 7, 80, 127
10, 665759, Note_on_c, 7, 80, 127
10, 665879, Note_off_c, 7, 80, 127
10, 665879, Note_on_c, 7, 80, 127
10, 665999, Note_off_c, 7, 80, 127
10, 665999, Note_on_c, 7, 80, 127
10, 666119, Note_off_c, 7, 80, 127
10, 666119, Note_on_c, 7, 80, 127
10, 666238, Note_off_c, 7, 80, 127
10, 666959, Note_on_c, 7, 80, 127
10, 667079, Note_off_c, 7, 80, 127
10, 667079, Note_on_c, 7, 81, 127
10, 667199, Note_off_c, 7, 81, 127
10, 667200, Note_on_c, 7, 86, 127
10, 667520, Note_off_c, 7, 86, 127
10, 667520, Note_on_c, 7, 83, 127
10, 667840, Note_off_c, 7, 83, 127
10, 667840, Note_on_c, 7, 84, 127
10, 668160, Note_off_c, 7, 84, 127
10, 668160, Note_on_c, 7, 88, 127
10, 668480, Note_off_c, 7, 88, 127
10, 668480, Note_on_c, 7, 89, 127
10, 668800, Note_off_c, 7, 89, 127
10, 668800, Note_on_c, 7, 86, 127
10, 669120, Note_off_c, 7, 86, 127
10, 669120, Note_on_c, 7, 88, 127
10, 669240, Note_off_c, 7, 88, 127
10, 669240, Note_on_c, 7, 88, 127
10, 669360, Note_off_c, 7, 88, 127
10, 669360, Note_on_c, 7, 88, 127
10, 669480, Note_off_c, 7, 88, 127
10, 669480, Note_on_c, 7, 88, 127
10, 669600, Note_off_c, 7, 88, 127
10, 669600, Note_on_c, 7, 88, 127
10, 669720, Note_off_c, 7, 88, 127
10, 669720, Note_on_c, 7, 88, 127
10, 669840, Note_off_c, 7, 88, 127
10, 669840, Note_on_c, 7, 88, 127
10, 669960, Note_off_c, 7, 88, 127
10, 669960, Note_on_c, 7, 88, 127
10, 670080, Note_off_c, 7, 88, 127
10, 670080, Note_on_c, 7, 88, 127
10, 670200, Note_off_c, 7, 88, 127
10, 670200, Note_on_c, 7, 88, 127
10, 670320, Note_off_c, 7, 88, 127
10, 670320, Note_on_c, 7, 88, 127
10, 670440, Note_off_c, 7, 88, 127
10, 670440, Note_on_c, 7, 88, 127
10, 670560, Note_off_c, 7, 88, 127
10, 670560, Note_on_c, 7, 88, 127
10, 670680, Note_off_c, 7, 88, 127
10, 670680, Note_on_c, 7, 88, 127
10, 670800, Note_off_c, 7, 88, 127
10, 670800, Note_on_c, 7, 88, 127
10, 670920, Note_off_c, 7, 88, 127
10, 670920, Note_on_c, 7, 88, 127
10, 671040, Note_off_c, 7, 88, 127
10, 671040, Note_on_c, 7, 88, 127
10, 671160, Note_off_c, 7, 88, 127
10, 671160, Note_on_c, 7, 88, 127
10, 671280, Note_off_c, 7, 88, 127
10, 671280, Note_on_c, 7, 88, 127
10, 671400, Note_off_c, 7, 88, 127
10, 671400, Note_on_c, 7, 88, 127
10, 671520, Note_off_c, 7, 88, 127
10, 671520, Note_on_c, 7, 88, 127
10, 671640, Note_off_c, 7, 88, 127
10, 671640, Note_on_c, 7, 88, 127
10, 671760, Note_off_c, 7, 88, 127
10, 671760, Note_on_c, 7, 88, 127
10, 671880, Note_off_c, 7, 88, 127
10, 671880, Note_on_c, 7, 88, 127
10, 671999, Note_off_c, 7, 88, 127
10, 672480, Note_on_c, 7, 88, 127
10, 672640, Note_off_c, 7, 88, 127
10, 672640, Note_on_c, 7, 89, 127
10, 672800, Note_off_c, 7, 89, 127
10, 672800, Note_on_c, 7, 88, 127
10, 672960, Note_off_c, 7, 88, 127
10, 672960, Note_on_c, 7, 86, 127
10, 673120, Note_off_c, 7, 86, 127
10, 673120, Note_on_c, 7, 88, 127
10, 673280, Note_off_c, 7, 88, 127
10, 673280, Note_on_c, 7, 89, 127
10, 673440, Note_off_c, 7, 89, 127
10, 673440, Note_on_c, 7, 91, 127
10, 673600, Note_off_c, 7, 91, 127
10, 673600, Note_on_c, 7, 93, 127
10, 673760, Note_off_c, 7, 93, 127
10, 673760, Note_on_c, 7, 88, 127
10, 673920, Note_off_c, 7, 88, 127
10, 673920, Note_on_c, 7, 88, 127
10, 674080, Note_off_c, 7, 88, 127
10, 674080, Note_on_c, 7, 89, 127
10, 674240, Note_off_c, 7, 89, 127
10, 674240, Note_on_c, 7, 91, 127
10, 674400, Note_off_c, 7, 91, 127
10, 674400, Note_on_c, 7, 86, 127
10, 674560, Note_off_c, 7, 86, 127
10, 674560, Note_on_c, 7, 88, 127
10, 674720, Note_off_c, 7, 88, 127
10, 674720, Note_on_c, 7, 89, 127
10, 674880, Note_off_c, 7, 89, 127
10, 674880, Note_on_c, 7, 91, 127
10, 675040, Note_off_c, 7, 91, 127
10, 675040, Note_on_c, 7, 93, 127
10, 675200, Note_off_c, 7, 93, 127
10, 675200, Note_on_c, 7, 88, 127
10, 675360, Note_off_c, 7, 88, 127
10, 675360, Note_on_c, 7, 88, 127
10, 675520, Note_off_c, 7, 88, 127
10, 675520, Note_on_c, 7, 89, 127
10, 675680, Note_off_c, 7, 89, 127
10, 675680, Note_on_c, 7, 91, 127
10, 675840, Note_off_c, 7, 91, 127
10, 675840, Note_on_c, 7, 94, 127
10, 676320, Note_off_c, 7, 94, 127
10, 677280, Note_on_c, 7, 93, 127
10, 677760, Note_off_c, 7, 93, 127
10, 678720, Note_on_c, 7, 86, 127
10, 679200, Note_off_c, 7, 86, 127
10, 679680, Note_on_c, 7, 81, 127
10, 680160, Note_off_c, 7, 81, 127
10, 680640, Note_on_c, 7, 86, 127
10, 681120, Note_off_c, 7, 86, 127
10, 681600, Note_on_c, 7, 91, 127
10, 682080, Note_off_c, 7, 91, 127
10, 682560, Note_on_c, 7, 88, 127
10, 683040, Note_off_c, 7, 88, 127
10, 683520, Note_on_c, 7, 84, 127
10, 684000, Note_off_c, 7, 84, 127
10, 684480, Note_on_c, 7, 81, 127
10, 684600, Note_off_c, 7, 81, 127
10, 684600, Note_on_c, 7, 81, 127
10, 684720, Note_off_c, 7, 81, 127
10, 684720, Note_on_c, 7, 81, 127
10, 684840, Note_off_c, 7, 81, 127
10, 684840, Note_on_c, 7, 81, 127
10, 684960, Note_off_c, 7, 81, 127
10, 684960, Note_on_c, 7, 81, 127
10, 685080, Note_off_c, 7, 81, 127
10, 685080, Note_on_c, 7, 81, 127
10, 685200, Note_off_c, 7, 81, 127
10, 685200, Note_on_c, 7, 81, 127
10, 685320, Note_off_c, 7, 81, 127
10, 685320, Note_on_c, 7, 81, 127
10, 685440, Note_off_c, 7, 81, 127
10, 685440, Note_on_c, 7, 81, 127
10, 685560, Note_off_c, 7, 81, 127
10, 685560, Note_on_c, 7, 81, 127
10, 685680, Note_off_c, 7, 81, 127
10, 685680, Note_on_c, 7, 81, 127
10, 685800, Note_off_c, 7, 81, 127
10, 685800, Note_on_c, 7, 81, 127
10, 685919, Note_off_c, 7, 81, 127
10, 685920, Note_on_c, 7, 88, 127
10, 686040, Note_off_c, 7, 88, 127
10, 686040, Note_on_c, 7, 88, 127
10, 686160, Note_off_c, 7, 88, 127
10, 686160, Note_on_c, 7, 88, 127
10, 686280, Note_off_c, 7, 88, 127
10, 686280, Note_on_c, 7, 88, 127
10, 686400, Note_off_c, 7, 88, 127
10, 686400, Note_on_c, 7, 88, 127
10, 686520, Note_off_c, 7, 88, 127
10, 686520, Note_on_c, 7, 88, 127
10, 686640, Note_off_c, 7, 88, 127
10, 686640, Note_on_c, 7, 88, 127
10, 686760, Note_off_c, 7, 88, 127
10, 686760, Note_on_c, 7, 88, 127
10, 686880, Note_off_c, 7, 88, 127
10, 686880, Note_on_c, 7, 88, 127
10, 687000, Note_off_c, 7, 88, 127
10, 687000, Note_on_c, 7, 88, 127
10, 687120, Note_off_c, 7, 88, 127
10, 687120, Note_on_c, 7, 88, 127
10, 687240, Note_off_c, 7, 88, 127
10, 687240, Note_on_c, 7, 88, 127
10, 687359, Note_off_c, 7, 88, 127
10, 687360, Note_on_c, 7, 87, 127
10, 687840, Note_off_c, 7, 87, 127
10, 687840, Note_on_c, 7, 80, 127
10, 688320, Note_off_c, 7, 80, 127
10, 688320, Note_on_c, 7, 73, 127
10, 688800, Note_off_c, 7, 73, 127
10, 688800, Note_on_c, 7, 72, 127
10, 689280, Note_off_c, 7, 72, 127
10, 689280, Note_on_c, 7, 73, 127
10, 689760, Note_off_c, 7, 73, 127
10, 689760, Note_on_c, 7, 80, 127
10, 690240, Note_off_c, 7, 80, 127
10, 690240, Note_on_c, 7, 76, 127
10, 690720, Note_off_c, 7, 76, 127
10, 690720, Note_on_c, 7, 78, 127
10, 691200, Note_off_c, 7, 78, 127
10, 691200, Note_on_c, 7, 79, 127
10, 691680, Note_off_c, 7, 79, 127
10, 691680, Note_on_c, 7, 84, 127
10, 692160, Note_off_c, 7, 84, 127
10, 692160, Note_on_c, 7, 84, 127
10, 692400, Note_off_c, 7, 84, 127
10, 692640, Note_on_c, 7, 84, 127
10, 692880, Note_off_c, 7, 84, 127
10, 693120, Note_on_c, 7, 84, 127
10, 693240, Note_off_c, 7, 84, 127
10, 693240, Note_on_c, 7, 84, 127
10, 693360, Note_off_c, 7, 84, 127
10, 693360, Note_on_c, 7, 84, 127
10, 693480, Note_off_c, 7, 84, 127
10, 693480, Note_on_c, 7, 84, 127
10, 693600, Note_off_c, 7, 84, 127
10, 693600, Note_on_c, 7, 84, 127
10, 693720, Note_off_c, 7, 84, 127
10, 693720, Note_on_c, 7, 84, 127
10, 693840, Note_off_c, 7, 84, 127
10, 693840, Note_on_c, 7, 84, 127
10, 693960, Note_off_c, 7, 84, 127
10, 693960, Note_on_c, 7, 84, 127
10, 694080, Note_off_c, 7, 84, 127
10, 694080, Note_on_c, 7, 84, 127
10, 694200, Note_off_c, 7, 84, 127
10, 694200, Note_on_c, 7, 84, 127
10, 694320, Note_off_c, 7, 84, 127
10, 694320, Note_on_c, 7, 84, 127
10, 694440, Note_off_c, 7, 84, 127
10, 694440, Note_on_c, 7, 84, 127
10, 694560, Note_off_c, 7, 84, 127
10, 694560, Note_on_c, 7, 84, 127
10, 694680, Note_off_c, 7, 84, 127
10, 694680, Note_on_c, 7, 84, 127
10, 694800, Note_off_c, 7, 84, 127
10, 694800, Note_on_c, 7, 84, 127
10, 694920, Note_off_c, 7, 84, 127
10, 694920, Note_on_c, 7, 84, 127
10, 695040, Note_off_c, 7, 84, 127
10, 695040, Note_on_c, 7, 84, 127
10, 695160, Note_off_c, 7, 84, 127
10, 695160, Note_on_c, 7, 84, 127
10, 695280, Note_off_c, 7, 84, 127
10, 695280, Note_on_c, 7, 84, 127
10, 695400, Note_off_c, 7, 84, 127
10, 695400, Note_on_c, 7, 84, 127
10, 695520, Note_off_c, 7, 84, 127
10, 695520, Note_on_c, 7, 84, 127
10, 695640, Note_off_c, 7, 84, 127
10, 695640, Note_on_c, 7, 84, 127
10, 695760, Note_off_c, 7, 84, 127
10, 695760, Note_on_c, 7, 84, 127
10, 695880, Note_off_c, 7, 84, 127
10, 695880, Note_on_c, 7, 84, 127
10, 696000, Note_off_c, 7, 84, 127
10, 696000, Note_on_c, 7, 84, 127
10, 696120, Note_off_c, 7, 84, 127
10, 696120, Note_on_c, 7, 84, 127
10, 696240, Note_off_c, 7, 84, 127
10, 696240, Note_on_c, 7, 84, 127
10, 696360, Note_off_c, 7, 84, 127
10, 696360, Note_on_c, 7, 84, 127
10, 696480, Note_off_c, 7, 84, 127
10, 696480, Note_on_c, 7, 84, 127
10, 696600, Note_off_c, 7, 84, 127
10, 696600, Note_on_c, 7, 84, 127
10, 696720, Note_off_c, 7, 84, 127
10, 696720, Note_on_c, 7, 84, 127
10, 696840, Note_off_c, 7, 84, 127
10, 696840, Note_on_c, 7, 84, 127
10, 696959, Note_off_c, 7, 84, 127
10, 696959, End_track
11, 0, Start_track
11, 0, Pitch_bend_c, 8, 8192
11, 0, Control_c, 8, 7, 103
11, 0, Control_c, 8, 10, 63
11, 0, Control_c, 8, 93, 0
11, 0, Control_c, 8, 91, 0
11, 0, Control_c, 8, 95, 0
11, 0, Control_c, 8, 92, 0
11, 0, Control_c, 8, 11, 127
11, 0, Program_c, 8, 14
11, 48320, Note_on_c, 8, 85, 127
11, 48640, Note_off_c, 8, 85, 127
11, 48640, Note_on_c, 8, 83, 127
11, 48960, Note_off_c, 8, 83, 127
11, 48960, Note_on_c, 8, 85, 127
11, 50400, Note_off_c, 8, 85, 127
11, 50400, Note_on_c, 8, 81, 127
11, 51360, Note_off_c, 8, 81, 127
11, 51360, Note_on_c, 8, 79, 127
11, 51840, Note_off_c, 8, 79, 127
11, 52800, Note_on_c, 8, 85, 127
11, 54720, Note_off_c, 8, 85, 127
11, 54720, Note_on_c, 8, 85, 127
11, 55040, Note_off_c, 8, 85, 127
11, 55040, Note_on_c, 8, 83, 127
11, 55360, Note_off_c, 8, 83, 127
11, 55360, Note_on_c, 8, 85, 127
11, 57600, Note_off_c, 8, 85, 127
11, 72480, Note_on_c, 8, 82, 127
11, 72960, Note_off_c, 8, 82, 127
11, 72960, Note_on_c, 8, 78, 127
11, 73440, Note_off_c, 8, 78, 127
11, 73440, Note_on_c, 8, 80, 127
11, 73920, Note_off_c, 8, 80, 127
11, 73920, Note_on_c, 8, 75, 127
11, 74400, Note_off_c, 8, 75, 127
11, 74400, Note_on_c, 8, 68, 127
11, 74880, Note_off_c, 8, 68, 127
11, 74880, Note_on_c, 8, 73, 127
11, 75840, Note_off_c, 8, 73, 127
11, 75840, Note_on_c, 8, 83, 127
11, 77280, Note_off_c, 8, 83, 127
11, 77280, Note_on_c, 8, 78, 127
11, 77760, Note_off_c, 8, 78, 127
11, 77760, Note_on_c, 8, 80, 127
11, 80640, Note_off_c, 8, 80, 127
11, 81600, Note_on_c, 8, 79, 127
11, 82560, Note_off_c, 8, 79, 127
11, 82560, Note_on_c, 8, 79, 127
11, 83520, Note_off_c, 8, 79, 127
11, 83520, Note_on_c, 8, 79, 127
11, 86400, Note_off_c, 8, 79, 127
11, 87360, Note_on_c, 8, 79, 127
11, 89280, Note_off_c, 8, 79, 127
11, 89280, Note_on_c, 8, 79, 127
11, 89600, Note_off_c, 8, 79, 127
11, 89600, Note_on_c, 8, 79, 127
11, 89920, Note_off_c, 8, 79, 127
11, 89920, Note_on_c, 8, 74, 127
11, 90240, Note_off_c, 8, 74, 127
11, 90240, Note_on_c, 8, 79, 127
11, 92160, Note_off_c, 8, 79, 127
11, 128640, Note_on_c, 8, 83, 127
11, 128777, Note_off_c, 8, 83, 127
11, 128777, Note_on_c, 8, 82, 127
11, 128914, Note_off_c, 8, 82, 127
11, 128914, Note_on_c, 8, 79, 127
11, 129051, Note_off_c, 8, 79, 127
11, 129051, Note_on_c, 8, 78, 127
11, 129188, Note_off_c, 8, 78, 127
11, 129188, Note_on_c, 8, 79, 127
11, 129325, Note_off_c, 8, 79, 127
11, 129325, Note_on_c, 8, 82, 127
11, 129462, Note_off_c, 8, 82, 127
11, 129462, Note_on_c, 8, 83, 127
11, 129599, Note_off_c, 8, 83, 127
11, 129600, Note_on_c, 8, 85, 127
11, 129888, Note_off_c, 8, 85, 127
11, 129888, Note_on_c, 8, 88, 127
11, 130176, Note_off_c, 8, 88, 127
11, 130176, Note_on_c, 8, 84, 127
11, 130464, Note_off_c, 8, 84, 127
11, 130464, Note_on_c, 8, 83, 127
11, 130752, Note_off_c, 8, 83, 127
11, 130752, Note_on_c, 8, 79, 127
11, 131040, Note_off_c, 8, 79, 127
11, 131040, Note_on_c, 8, 90, 127
11, 131328, Note_off_c, 8, 90, 127
11, 131328, Note_on_c, 8, 85, 127
11, 131616, Note_off_c, 8, 85, 127
11, 131616, Note_on_c, 8, 84, 127
11, 131904, Note_off_c, 8, 84, 127
11, 131904, Note_on_c, 8, 88, 127
11, 132192, Note_off_c, 8, 88, 127
11, 132192, Note_on_c, 8, 84, 127
11, 132480, Note_off_c, 8, 84, 127
11, 132480, Note_on_c, 8, 83, 127
11, 132720, Note_off_c, 8, 83, 127
11, 132720, Note_on_c, 8, 82, 127
11, 132960, Note_off_c, 8, 82, 127
11, 132960, Note_on_c, 8, 82, 127
11, 133200, Note_off_c, 8, 82, 127
11, 133200, Note_on_c, 8, 90, 127
11, 133440, Note_off_c, 8, 90, 127
11, 133440, Note_on_c, 8, 78, 127
11, 133760, Note_off_c, 8, 78, 127
11, 133760, Note_on_c, 8, 76, 127
11, 134080, Note_off_c, 8, 76, 127
11, 134080, Note_on_c, 8, 82, 127
11, 134400, Note_off_c, 8, 82, 127
11, 134400, Note_on_c, 8, 84, 127
11, 134640, Note_off_c, 8, 84, 127
11, 134640, Note_on_c, 8, 88, 127
11, 134760, Note_off_c, 8, 88, 127
11, 134760, Note_on_c, 8, 85, 127
11, 135360, Note_off_c, 8, 85, 127
11, 184320, Note_on_c, 8, 68, 127
11, 188160, Note_off_c, 8, 68, 127
11, 192000, Note_on_c, 8, 65, 127
11, 195840, Note_off_c, 8, 65, 127
11, 199680, Note_on_c, 8, 68, 127
11, 203520, Note_off_c, 8, 68, 127
11, 207360, Note_on_c, 8, 65, 127
11, 211200, Note_off_c, 8, 65, 127
11, 215040, Note_on_c, 8, 68, 127
11, 218880, Note_off_c, 8, 68, 127
11, 218880, End_track
12, 0, Start_track
12, 0, Pitch_bend_c, 10, 8192
12, 0, Control_c, 10, 7, 103
12, 0, Control_c, 10, 10, 63
12, 0, Control_c, 10, 93, 0
12, 0, Control_c, 10, 91, 0
12, 0, Control_c, 10, 95, 0
12, 0, Control_c, 10, 92, 0
12, 0, Control_c, 10, 11, 127
12, 0, Program_c, 10, 13
12, 58560, Note_on_c, 10, 67, 127
12, 59040, Note_off_c, 10, 67, 127
12, 59520, Note_on_c, 10, 67, 127
12, 60000, Note_off_c, 10, 67, 127
12, 60480, Note_on_c, 10, 67, 127
12, 63360, Note_off_c, 10, 67, 127
12, 64320, Note_on_c, 10, 67, 127
12, 65280, Note_off_c, 10, 67, 127
12, 66240, Note_on_c, 10, 67, 127
12, 66400, Note_off_c, 10, 67, 127
12, 66560, Note_on_c, 10, 67, 127
12, 66720, Note_off_c, 10, 67, 127
12, 66880, Note_on_c, 10, 62, 127
12, 67040, Note_off_c, 10, 62, 127
12, 67200, Note_on_c, 10, 67, 127
12, 69120, Note_off_c, 10, 67, 127
12, 70080, Note_on_c, 10, 70, 127
12, 70560, Note_off_c, 10, 70, 127
12, 71040, Note_on_c, 10, 70, 127
12, 71520, Note_off_c, 10, 70, 127
12, 72000, Note_on_c, 10, 70, 127
12, 74880, Note_off_c, 10, 70, 127
12, 75840, Note_on_c, 10, 70, 127
12, 77760, Note_off_c, 10, 70, 127
12, 81600, Note_on_c, 10, 67, 127
12, 82080, Note_off_c, 10, 67, 127
12, 82560, Note_on_c, 10, 67, 127
12, 83040, Note_off_c, 10, 67, 127
12, 83520, Note_on_c, 10, 67, 127
12, 86400, Note_off_c, 10, 67, 127
12, 87360, Note_on_c, 10, 67, 127
12, 89280, Note_off_c, 10, 67, 127
12, 89280, Note_on_c, 10, 67, 127
12, 89440, Note_off_c, 10, 67, 127
12, 89600, Note_on_c, 10, 67, 127
12, 89760, Note_off_c, 10, 67, 127
12, 89920, Note_on_c, 10, 62, 127
12, 90080, Note_off_c, 10, 62, 127
12, 90240, Note_on_c, 10, 67, 127
12, 92160, Note_off_c, 10, 67, 127
12, 94320, Note_on_c, 10, 72, 127
12, 94560, Note_off_c, 10, 72, 127
12, 94560, Note_on_c, 10, 69, 127
12, 94800, Note_off_c, 10, 69, 127
12, 94800, Note_on_c, 10, 71, 127
12, 95040, Note_off_c, 10, 71, 127
12, 95040, Note_on_c, 10, 68, 127
12, 95232, Note_off_c, 10, 68, 127
12, 95232, Note_on_c, 10, 72, 127
12, 95424, Note_off_c, 10, 72, 127
12, 95424, Note_on_c, 10, 76, 127
12, 95616, Note_off_c, 10, 76, 127
12, 95616, Note_on_c, 10, 76, 127
12, 95808, Note_off_c, 10, 76, 127
12, 95808, Note_on_c, 10, 80, 127
12, 96000, Note_off_c, 10, 80, 127
12, 96000, Note_on_c, 10, 78, 127
12, 96192, Note_off_c, 10, 78, 127
12, 96192, Note_on_c, 10, 83, 127
12, 96384, Note_off_c, 10, 83, 127
12, 96384, Note_on_c, 10, 72, 127
12, 96576, Note_off_c, 10, 72, 127
12, 96576, Note_on_c, 10, 68, 127
12, 96768, Note_off_c, 10, 68, 127
12, 96768, Note_on_c, 10, 72, 127
12, 96960, Note_off_c, 10, 72, 127
12, 96960, Note_on_c, 10, 80, 127
12, 97200, Note_off_c, 10, 80, 127
12, 97200, Note_on_c, 10, 83, 127
12, 97440, Note_off_c, 10, 83, 127
12, 97440, Note_on_c, 10, 78, 127
12, 97680, Note_off_c, 10, 78, 127
12, 97680, Note_on_c, 10, 83, 127
12, 97920, Note_off_c, 10, 83, 127
12, 97920, Note_on_c, 10, 83, 127
12, 98112, Note_off_c, 10, 83, 127
12, 98112, Note_on_c, 10, 73, 127
12, 98304, Note_off_c, 10, 73, 127
12, 98304, Note_on_c, 10, 73, 127
12, 98496, Note_off_c, 10, 73, 127
12, 98496, Note_on_c, 10, 78, 127
12, 98688, Note_off_c, 10, 78, 127
12, 98688, Note_on_c, 10, 78, 127
12, 98880, Note_off_c, 10, 78, 127
12, 98880, Note_on_c, 10, 78, 127
12, 100320, Note_off_c, 10, 78, 127
12, 104640, Note_on_c, 10, 71, 127
12, 105920, Note_off_c, 10, 71, 127
12, 105920, Note_on_c, 10, 69, 127
12, 106240, Note_off_c, 10, 69, 127
12, 106240, Note_on_c, 10, 72, 127
12, 106560, Note_off_c, 10, 72, 127
12, 106560, Note_on_c, 10, 68, 127
12, 106752, Note_off_c, 10, 68, 127
12, 106752, Note_on_c, 10, 66, 127
12, 106944, Note_off_c, 10, 66, 127
12, 106944, Note_on_c, 10, 77, 127
12, 107136, Note_off_c, 10, 77, 127
12, 107136, Note_on_c, 10, 76, 127
12, 107328, Note_off_c, 10, 76, 127
12, 107328, Note_on_c, 10, 76, 127
12, 107520, Note_off_c, 10, 76, 127
12, 107520, Note_on_c, 10, 87, 127
12, 107694, Note_off_c, 10, 87, 127
12, 107694, Note_on_c, 10, 85, 127
12, 107868, Note_off_c, 10, 85, 127
12, 107868, Note_on_c, 10, 82, 127
12, 108042, Note_off_c, 10, 82, 127
12, 108042, Note_on_c, 10, 82, 127
12, 108216, Note_off_c, 10, 82, 127
12, 108216, Note_on_c, 10, 87, 127
12, 108390, Note_off_c, 10, 87, 127
12, 108390, Note_on_c, 10, 80, 127
12, 108564, Note_off_c, 10, 80, 127
12, 108564, Note_on_c, 10, 85, 127
12, 108738, Note_off_c, 10, 85, 127
12, 108738, Note_on_c, 10, 82, 127
12, 108912, Note_off_c, 10, 82, 127
12, 108912, Note_on_c, 10, 82, 127
12, 109086, Note_off_c, 10, 82, 127
12, 109086, Note_on_c, 10, 87, 127
12, 109260, Note_off_c, 10, 87, 127
12, 109260, Note_on_c, 10, 80, 127
12, 109434, Note_off_c, 10, 80, 127
12, 109440, Note_on_c, 10, 88, 127
12, 109632, Note_off_c, 10, 88, 127
12, 109632, Note_on_c, 10, 87, 127
12, 109824, Note_off_c, 10, 87, 127
12, 109824, Note_on_c, 10, 87, 127
12, 110016, Note_off_c, 10, 87, 127
12, 110016, Note_on_c, 10, 91, 127
12, 110208, Note_off_c, 10, 91, 127
12, 110208, Note_on_c, 10, 80, 127
12, 110400, Note_off_c, 10, 80, 127
12, 110400, Note_on_c, 10, 90, 127
12, 112320, Note_off_c, 10, 90, 127
12, 118080, Note_on_c, 10, 71, 127
12, 118341, Note_off_c, 10, 71, 127
12, 118341, Note_on_c, 10, 69, 127
12, 118602, Note_off_c, 10, 69, 127
12, 118602, Note_on_c, 10, 69, 127
12, 118863, Note_off_c, 10, 69, 127
12, 118863, Note_on_c, 10, 74, 127
12, 119124, Note_off_c, 10, 74, 127
12, 119124, Note_on_c, 10, 73, 127
12, 119385, Note_off_c, 10, 73, 127
12, 119385, Note_on_c, 10, 73, 127
12, 119646, Note_off_c, 10, 73, 127
12, 119646, Note_on_c, 10, 71, 127
12, 119907, Note_off_c, 10, 71, 127
12, 119907, Note_on_c, 10, 71, 127
12, 120168, Note_off_c, 10, 71, 127
12, 120168, Note_on_c, 10, 73, 127
12, 120429, Note_off_c, 10, 73, 127
12, 120429, Note_on_c, 10, 66, 127
12, 120690, Note_off_c, 10, 66, 127
12, 120690, Note_on_c, 10, 62, 127
12, 120951, Note_off_c, 10, 62, 127
12, 120960, Note_on_c, 10, 70, 127
12, 121152, Note_off_c, 10, 70, 127
12, 121152, Note_on_c, 10, 73, 127
12, 121344, Note_off_c, 10, 73, 127
12, 121344, Note_on_c, 10, 73, 127
12, 121536, Note_off_c, 10, 73, 127
12, 121536, Note_on_c, 10, 69, 127
12, 121728, Note_off_c, 10, 69, 127
12, 121728, Note_on_c, 10, 81, 127
12, 121920, Note_off_c, 10, 81, 127
12, 121920, Note_on_c, 10, 76, 127
12, 122112, Note_off_c, 10, 76, 127
12, 122112, Note_on_c, 10, 78, 127
12, 122304, Note_off_c, 10, 78, 127
12, 122304, Note_on_c, 10, 78, 127
12, 122496, Note_off_c, 10, 78, 127
12, 122496, Note_on_c, 10, 67, 127
12, 122688, Note_off_c, 10, 67, 127
12, 122688, Note_on_c, 10, 74, 127
12, 122880, Note_off_c, 10, 74, 127
12, 122880, Note_on_c, 10, 73, 127
12, 123072, Note_off_c, 10, 73, 127
12, 123072, Note_on_c, 10, 63, 127
12, 123264, Note_off_c, 10, 63, 127
12, 123264, Note_on_c, 10, 70, 127
12, 123456, Note_off_c, 10, 70, 127
12, 123456, Note_on_c, 10, 71, 127
12, 123648, Note_off_c, 10, 71, 127
12, 123648, Note_on_c, 10, 69, 127
12, 123840, Note_off_c, 10, 69, 127
12, 123840, Note_on_c, 10, 81, 127
12, 126720, Note_off_c, 10, 81, 127
12, 128640, Note_on_c, 10, 71, 127
12, 128777, Note_off_c, 10, 71, 127
12, 128777, Note_on_c, 10, 70, 127
12, 128914, Note_off_c, 10, 70, 127
12, 128914, Note_on_c, 10, 67, 127
12, 129051, Note_off_c, 10, 67, 127
12, 129051, Note_on_c, 10, 66, 127
12, 129188, Note_off_c, 10, 66, 127
12, 129188, Note_on_c, 10, 67, 127
12, 129325, Note_off_c, 10, 67, 127
12, 129325, Note_on_c, 10, 70, 127
12, 129462, Note_off_c, 10, 70, 127
12, 129462, Note_on_c, 10, 71, 127
12, 129599, Note_off_c, 10, 71, 127
12, 129600, Note_on_c, 10, 73, 127
12, 129888, Note_off_c, 10, 73, 127
12, 129888, Note_on_c, 10, 76, 127
12, 130176, Note_off_c, 10, 76, 127
12, 130176, Note_on_c, 10, 72, 127
12, 130464, Note_off_c, 10, 72, 127
12, 130464, Note_on_c, 10, 71, 127
12, 130752, Note_off_c, 10, 71, 127
12, 130752, Note_on_c, 10, 67, 127
12, 131040, Note_off_c, 10, 67, 127
12, 131040, Note_on_c, 10, 78, 127
12, 131328, Note_off_c, 10, 78, 127
12, 131328, Note_on_c, 10, 73, 127
12, 131616, Note_off_c, 10, 73, 127
12, 131616, Note_on_c, 10, 72, 127
12, 131904, Note_off_c, 10, 72, 127
12, 131904, Note_on_c, 10, 76, 127
12, 132192, Note_off_c, 10, 76, 127
12, 132192, Note_on_c, 10, 72, 127
12, 132480, Note_off_c, 10, 72, 127
12, 132480, Note_on_c, 10, 71, 127
12, 132720, Note_off_c, 10, 71, 127
12, 132720, Note_on_c, 10, 70, 127
12, 132960, Note_off_c, 10, 70, 127
12, 132960, Note_on_c, 10, 70, 127
12, 133200, Note_off_c, 10, 70, 127
12, 133200, Note_on_c, 10, 78, 127
12, 133440, Note_off_c, 10, 78, 127
12, 133440, Note_on_c, 10, 66, 127
12, 133760, Note_off_c, 10, 66, 127
12, 133760, Note_on_c, 10, 64, 127
12, 134080, Note_off_c, 10, 64, 127
12, 134080, Note_on_c, 10, 70, 127
12, 134400, Note_off_c, 10, 70, 127
12, 134400, Note_on_c, 10, 72, 127
12, 134640, Note_off_c, 10, 72, 127
12, 134640, Note_on_c, 10, 76, 127
12, 134760, Note_off_c, 10, 76, 127
12, 134760, Note_on_c, 10, 73, 127
12, 135360, Note_off_c, 10, 73, 127
12, 276480, Note_on_c, 10, 67, 127
12, 276480, Note_on_c, 10, 62, 127
12, 276480, Note_on_c, 10, 55, 127
12, 276720, Note_off_c, 10, 67, 127
12, 276720, Note_off_c, 10, 62, 127
12, 276720, Note_off_c, 10, 55, 127
12, 276720, Note_on_c, 10, 68, 127
12, 276720, Note_on_c, 10, 63, 127
12, 276720, Note_on_c, 10, 56, 127
12, 276960, Note_off_c, 10, 68, 127
12, 276960, Note_off_c, 10, 63, 127
12, 276960, Note_off_c, 10, 56, 127
12, 280320, Note_on_c, 10, 68, 127
12, 280320, Note_on_c, 10, 63, 127
12, 280320, Note_on_c, 10, 56, 127
12, 280560, Note_off_c, 10, 68, 127
12, 280560, Note_off_c, 10, 63, 127
12, 280560, Note_off_c, 10, 56, 127
12, 280560, Note_on_c, 10, 67, 127
12, 280560, Note_on_c, 10, 62, 127
12, 280560, Note_on_c, 10, 55, 127
12, 280800, Note_off_c, 10, 67, 127
12, 280800, Note_off_c, 10, 62, 127
12, 280800, Note_off_c, 10, 55, 127
12, 282240, Note_on_c, 10, 67, 127
12, 282240, Note_on_c, 10, 62, 127
12, 282240, Note_on_c, 10, 55, 127
12, 282480, Note_off_c, 10, 67, 127
12, 282480, Note_off_c, 10, 62, 127
12, 282480, Note_off_c, 10, 55, 127
12, 283200, Note_on_c, 10, 68, 127
12, 283200, Note_on_c, 10, 63, 127
12, 283200, Note_on_c, 10, 56, 127
12, 283440, Note_off_c, 10, 68, 127
12, 283440, Note_off_c, 10, 63, 127
12, 283440, Note_off_c, 10, 56, 127
12, 284160, Note_on_c, 10, 62, 127
12, 284160, Note_on_c, 10, 57, 127
12, 288000, Note_off_c, 10, 62, 127
12, 288000, Note_off_c, 10, 57, 127
12, 288000, Note_on_c, 10, 62, 127
12, 288000, Note_on_c, 10, 57, 127
12, 288240, Note_off_c, 10, 62, 127
12, 288240, Note_off_c, 10, 57, 127
12, 288240, Note_on_c, 10, 63, 127
12, 288240, Note_on_c, 10, 58, 127
12, 288480, Note_off_c, 10, 63, 127
12, 288480, Note_off_c, 10, 58, 127
12, 289920, Note_on_c, 10, 63, 127
12, 289920, Note_on_c, 10, 58, 127
12, 290160, Note_off_c, 10, 63, 127
12, 290160, Note_off_c, 10, 58, 127
12, 290160, Note_on_c, 10, 62, 127
12, 290160, Note_on_c, 10, 57, 127
12, 290400, Note_off_c, 10, 62, 127
12, 290400, Note_off_c, 10, 57, 127
12, 290880, Note_on_c, 10, 62, 127
12, 290880, Note_on_c, 10, 57, 127
12, 291120, Note_off_c, 10, 62, 127
12, 291120, Note_off_c, 10, 57, 127
12, 291120, Note_on_c, 10, 63, 127
12, 291120, Note_on_c, 10, 58, 127
12, 291360, Note_off_c, 10, 63, 127
12, 291360, Note_off_c, 10, 58, 127
12, 291840, Note_on_c, 10, 67, 127
12, 291840, Note_on_c, 10, 62, 127
12, 291840, Note_on_c, 10, 55, 127
12, 292080, Note_off_c, 10, 67, 127
12, 292080, Note_off_c, 10, 62, 127
12, 292080, Note_off_c, 10, 55, 127
12, 292080, Note_on_c, 10, 68, 127
12, 292080, Note_on_c, 10, 63, 127
12, 292080, Note_on_c, 10, 56, 127
12, 292320, Note_off_c, 10, 68, 127
12, 292320, Note_off_c, 10, 63, 127
12, 292320, Note_off_c, 10, 56, 127
12, 295680, Note_on_c, 10, 68, 127
12, 295680, Note_on_c, 10, 63, 127
12, 295680, Note_on_c, 10, 56, 127
12, 295920, Note_off_c, 10, 68, 127
12, 295920, Note_off_c, 10, 63, 127
12, 295920, Note_off_c, 10, 56, 127
12, 295920, Note_on_c, 10, 67, 127
12, 295920, Note_on_c, 10, 62, 127
12, 295920, Note_on_c, 10, 55, 127
12, 296160, Note_off_c, 10, 67, 127
12, 296160, Note_off_c, 10, 62, 127
12, 296160, Note_off_c, 10, 55, 127
12, 297600, Note_on_c, 10, 67, 127
12, 297600, Note_on_c, 10, 62, 127
12, 297600, Note_on_c, 10, 55, 127
12, 297840, Note_off_c, 10, 67, 127
12, 297840, Note_off_c, 10, 62, 127
12, 297840, Note_off_c, 10, 55, 127
12, 298560, Note_on_c, 10, 68, 127
12, 298560, Note_on_c, 10, 63, 127
12, 298560, Note_on_c, 10, 56, 127
12, 298800, Note_off_c, 10, 68, 127
12, 298800, Note_off_c, 10, 63, 127
12, 298800, Note_off_c, 10, 56, 127
12, 299520, Note_on_c, 10, 62, 127
12, 299520, Note_on_c, 10, 57, 127
12, 303360, Note_off_c, 10, 62, 127
12, 303360, Note_off_c, 10, 57, 127
12, 303360, Note_on_c, 10, 62, 127
12, 303360, Note_on_c, 10, 57, 127
12, 303600, Note_off_c, 10, 62, 127
12, 303600, Note_off_c, 10, 57, 127
12, 303600, Note_on_c, 10, 63, 127
12, 303600, Note_on_c, 10, 58, 127
12, 303840, Note_off_c, 10, 63, 127
12, 303840, Note_off_c, 10, 58, 127
12, 305280, Note_on_c, 10, 63, 127
12, 305280, Note_on_c, 10, 58, 127
12, 305520, Note_off_c, 10, 63, 127
12, 305520, Note_off_c, 10, 58, 127
12, 305520, Note_on_c, 10, 62, 127
12, 305520, Note_on_c, 10, 57, 127
12, 305760, Note_off_c, 10, 62, 127
12, 305760, Note_off_c, 10, 57, 127
12, 306240, Note_on_c, 10, 62, 127
12, 306240, Note_on_c, 10, 57, 127
12, 306480, Note_off_c, 10, 62, 127
12, 306480, Note_off_c, 10, 57, 127
12, 306480, Note_on_c, 10, 63, 127
12, 306480, Note_on_c, 10, 58, 127
12, 306720, Note_off_c, 10, 63, 127
12, 306720, Note_off_c, 10, 58, 127
12, 307200, Note_on_c, 10, 67, 127
12, 307200, Note_on_c, 10, 62, 127
12, 307200, Note_on_c, 10, 55, 127
12, 307440, Note_off_c, 10, 67, 127
12, 307440, Note_off_c, 10, 62, 127
12, 307440, Note_off_c, 10, 55, 127
12, 307440, Note_on_c, 10, 68, 127
12, 307440, Note_on_c, 10, 63, 127
12, 307440, Note_on_c, 10, 56, 127
12, 307680, Note_off_c, 10, 68, 127
12, 307680, Note_off_c, 10, 63, 127
12, 307680, Note_off_c, 10, 56, 127
12, 311040, Note_on_c, 10, 68, 127
12, 311040, Note_on_c, 10, 63, 127
12, 311040, Note_on_c, 10, 56, 127
12, 311280, Note_off_c, 10, 68, 127
12, 311280, Note_off_c, 10, 63, 127
12, 311280, Note_off_c, 10, 56, 127
12, 311280, Note_on_c, 10, 67, 127
12, 311280, Note_on_c, 10, 62, 127
12, 311280, Note_on_c, 10, 55, 127
12, 311520, Note_off_c, 10, 67, 127
12, 311520, Note_off_c, 10, 62, 127
12, 311520, Note_off_c, 10, 55, 127
12, 312960, Note_on_c, 10, 67, 127
12, 312960, Note_on_c, 10, 62, 127
12, 312960, Note_on_c, 10, 55, 127
12, 313200, Note_off_c, 10, 67, 127
12, 313200, Note_off_c, 10, 62, 127
12, 313200, Note_off_c, 10, 55, 127
12, 313920, Note_on_c, 10, 68, 127
12, 313920, Note_on_c, 10, 63, 127
12, 313920, Note_on_c, 10, 56, 127
12, 314160, Note_off_c, 10, 68, 127
12, 314160, Note_off_c, 10, 63, 127
12, 314160, Note_off_c, 10, 56, 127
12, 314880, Note_on_c, 10, 62, 127
12, 314880, Note_on_c, 10, 57, 127
12, 318720, Note_off_c, 10, 62, 127
12, 318720, Note_off_c, 10, 57, 127
12, 318720, Note_on_c, 10, 62, 127
12, 318720, Note_on_c, 10, 57, 127
12, 318960, Note_off_c, 10, 62, 127
12, 318960, Note_off_c, 10, 57, 127
12, 318960, Note_on_c, 10, 63, 127
12, 318960, Note_on_c, 10, 58, 127
12, 319200, Note_off_c, 10, 63, 127
12, 319200, Note_off_c, 10, 58, 127
12, 320640, Note_on_c, 10, 63, 127
12, 320640, Note_on_c, 10, 58, 127
12, 320880, Note_off_c, 10, 63, 127
12, 320880, Note_off_c, 10, 58, 127
12, 320880, Note_on_c, 10, 62, 127
12, 320880, Note_on_c, 10, 57, 127
12, 321120, Note_off_c, 10, 62, 127
12, 321120, Note_off_c, 10, 57, 127
12, 321600, Note_on_c, 10, 62, 127
12, 321600, Note_on_c, 10, 57, 127
12, 321840, Note_off_c, 10, 62, 127
12, 321840, Note_off_c, 10, 57, 127
12, 321840, Note_on_c, 10, 63, 127
12, 321840, Note_on_c, 10, 58, 127
12, 322080, Note_off_c, 10, 63, 127
12, 322080, Note_off_c, 10, 58, 127
12, 322560, Note_on_c, 10, 67, 127
12, 322560, Note_on_c, 10, 62, 127
12, 322560, Note_on_c, 10, 55, 127
12, 322800, Note_off_c, 10, 67, 127
12, 322800, Note_off_c, 10, 62, 127
12, 322800, Note_off_c, 10, 55, 127
12, 322800, Note_on_c, 10, 68, 127
12, 322800, Note_on_c, 10, 63, 127
12, 322800, Note_on_c, 10, 56, 127
12, 323040, Note_off_c, 10, 68, 127
12, 323040, Note_off_c, 10, 63, 127
12, 323040, Note_off_c, 10, 56, 127
12, 326400, Note_on_c, 10, 68, 127
12, 326400, Note_on_c, 10, 63, 127
12, 326400, Note_on_c, 10, 56, 127
12, 326640, Note_off_c, 10, 68, 127
12, 326640, Note_off_c, 10, 63, 127
12, 326640, Note_off_c, 10, 56, 127
12, 326640, Note_on_c, 10, 67, 127
12, 326640, Note_on_c, 10, 62, 127
12, 326640, Note_on_c, 10, 55, 127
12, 326880, Note_off_c, 10, 67, 127
12, 326880, Note_off_c, 10, 62, 127
12, 326880, Note_off_c, 10, 55, 127
12, 328320, Note_on_c, 10, 67, 127
12, 328320, Note_on_c, 10, 62, 127
12, 328320, Note_on_c, 10, 55, 127
12, 328560, Note_off_c, 10, 67, 127
12, 328560, Note_off_c, 10, 62, 127
12, 328560, Note_off_c, 10, 55, 127
12, 329280, Note_on_c, 10, 68, 127
12, 329280, Note_on_c, 10, 63, 127
12, 329280, Note_on_c, 10, 56, 127
12, 329520, Note_off_c, 10, 68, 127
12, 329520, Note_off_c, 10, 63, 127
12, 329520, Note_off_c, 10, 56, 127
12, 330240, Note_on_c, 10, 62, 127
12, 330240, Note_on_c, 10, 57, 127
12, 334080, Note_off_c, 10, 62, 127
12, 334080, Note_off_c, 10, 57, 127
12, 334080, Note_on_c, 10, 62, 127
12, 334080, Note_on_c, 10, 57, 127
12, 334320, Note_off_c, 10, 62, 127
12, 334320, Note_off_c, 10, 57, 127
12, 334320, Note_on_c, 10, 63, 127
12, 334320, Note_on_c, 10, 58, 127
12, 334560, Note_off_c, 10, 63, 127
12, 334560, Note_off_c, 10, 58, 127
12, 336000, Note_on_c, 10, 63, 127
12, 336000, Note_on_c, 10, 58, 127
12, 336240, Note_off_c, 10, 63, 127
12, 336240, Note_off_c, 10, 58, 127
12, 336240, Note_on_c, 10, 62, 127
12, 336240, Note_on_c, 10, 57, 127
12, 336480, Note_off_c, 10, 62, 127
12, 336480, Note_off_c, 10, 57, 127
12, 336960, Note_on_c, 10, 62, 127
12, 336960, Note_on_c, 10, 57, 127
12, 337200, Note_off_c, 10, 62, 127
12, 337200, Note_off_c, 10, 57, 127
12, 337200, Note_on_c, 10, 63, 127
12, 337200, Note_on_c, 10, 58, 127
12, 337440, Note_off_c, 10, 63, 127
12, 337440, Note_off_c, 10, 58, 127
12, 337920, Note_on_c, 10, 67, 127
12, 337920, Note_on_c, 10, 62, 127
12, 337920, Note_on_c, 10, 55, 127
12, 338160, Note_off_c, 10, 67, 127
12, 338160, Note_off_c, 10, 62, 127
12, 338160, Note_off_c, 10, 55, 127
12, 338160, Note_on_c, 10, 68, 127
12, 338160, Note_on_c, 10, 63, 127
12, 338160, Note_on_c, 10, 56, 127
12, 338400, Note_off_c, 10, 68, 127
12, 338400, Note_off_c, 10, 63, 127
12, 338400, Note_off_c, 10, 56, 127
12, 341760, Note_on_c, 10, 68, 127
12, 341760, Note_on_c, 10, 63, 127
12, 341760, Note_on_c, 10, 56, 127
12, 342000, Note_off_c, 10, 68, 127
12, 342000, Note_off_c, 10, 63, 127
12, 342000, Note_off_c, 10, 56, 127
12, 342000, Note_on_c, 10, 67, 127
12, 342000, Note_on_c, 10, 62, 127
12, 342000, Note_on_c, 10, 55, 127
12, 342240, Note_off_c, 10, 67, 127
12, 342240, Note_off_c, 10, 62, 127
12, 342240, Note_off_c, 10, 55, 127
12, 343680, Note_on_c, 10, 67, 127
12, 343680, Note_on_c, 10, 62, 127
12, 343680, Note_on_c, 10, 55, 127
12, 343920, Note_off_c, 10, 67, 127
12, 343920, Note_off_c, 10, 62, 127
12, 343920, Note_off_c, 10, 55, 127
12, 344640, Note_on_c, 10, 68, 127
12, 344640, Note_on_c, 10, 63, 127
12, 344640, Note_on_c, 10, 56, 127
12, 344880, Note_off_c, 10, 68, 127
12, 344880, Note_off_c, 10, 63, 127
12, 344880, Note_off_c, 10, 56, 127
12, 345600, Note_on_c, 10, 62, 127
12, 345600, Note_on_c, 10, 57, 127
12, 349440, Note_off_c, 10, 62, 127
12, 349440, Note_off_c, 10, 57, 127
12, 349440, Note_on_c, 10, 62, 127
12, 349440, Note_on_c, 10, 57, 127
12, 349680, Note_off_c, 10, 62, 127
12, 349680, Note_off_c, 10, 57, 127
12, 349680, Note_on_c, 10, 63, 127
12, 349680, Note_on_c, 10, 58, 127
12, 349920, Note_off_c, 10, 63, 127
12, 349920, Note_off_c, 10, 58, 127
12, 351360, Note_on_c, 10, 63, 127
12, 351360, Note_on_c, 10, 58, 127
12, 351600, Note_off_c, 10, 63, 127
12, 351600, Note_off_c, 10, 58, 127
12, 351600, Note_on_c, 10, 62, 127
12, 351600, Note_on_c, 10, 57, 127
12, 351840, Note_off_c, 10, 62, 127
12, 351840, Note_off_c, 10, 57, 127
12, 352320, Note_on_c, 10, 62, 127
12, 352320, Note_on_c, 10, 57, 127
12, 352560, Note_off_c, 10, 62, 127
12, 352560, Note_off_c, 10, 57, 127
12, 352560, Note_on_c, 10, 63, 127
12, 352560, Note_on_c, 10, 58, 127
12, 352800, Note_off_c, 10, 63, 127
12, 352800, Note_off_c, 10, 58, 127
12, 353280, Note_on_c, 10, 67, 127
12, 353280, Note_on_c, 10, 62, 127
12, 353280, Note_on_c, 10, 55, 127
12, 353520, Note_off_c, 10, 67, 127
12, 353520, Note_off_c, 10, 62, 127
12, 353520, Note_off_c, 10, 55, 127
12, 353520, Note_on_c, 10, 68, 127
12, 353520, Note_on_c, 10, 63, 127
12, 353520, Note_on_c, 10, 56, 127
12, 353760, Note_off_c, 10, 68, 127
12, 353760, Note_off_c, 10, 63, 127
12, 353760, Note_off_c, 10, 56, 127
12, 357120, Note_on_c, 10, 68, 127
12, 357120, Note_on_c, 10, 63, 127
12, 357120, Note_on_c, 10, 56, 127
12, 357360, Note_off_c, 10, 68, 127
12, 357360, Note_off_c, 10, 63, 127
12, 357360, Note_off_c, 10, 56, 127
12, 357360, Note_on_c, 10, 67, 127
12, 357360, Note_on_c, 10, 62, 127
12, 357360, Note_on_c, 10, 55, 127
12, 357600, Note_off_c, 10, 67, 127
12, 357600, Note_off_c, 10, 62, 127
12, 357600, Note_off_c, 10, 55, 127
12, 359040, Note_on_c, 10, 67, 127
12, 359040, Note_on_c, 10, 62, 127
12, 359040, Note_on_c, 10, 55, 127
12, 359280, Note_off_c, 10, 67, 127
12, 359280, Note_off_c, 10, 62, 127
12, 359280, Note_off_c, 10, 55, 127
12, 360000, Note_on_c, 10, 68, 127
12, 360000, Note_on_c, 10, 63, 127
12, 360000, Note_on_c, 10, 56, 127
12, 360240, Note_off_c, 10, 68, 127
12, 360240, Note_off_c, 10, 63, 127
12, 360240, Note_off_c, 10, 56, 127
12, 360960, Note_on_c, 10, 62, 127
12, 360960, Note_on_c, 10, 57, 127
12, 364800, Note_off_c, 10, 62, 127
12, 364800, Note_off_c, 10, 57, 127
12, 364800, Note_on_c, 10, 62, 127
12, 364800, Note_on_c, 10, 57, 127
12, 365040, Note_off_c, 10, 62, 127
12, 365040, Note_off_c, 10, 57, 127
12, 365040, Note_on_c, 10, 63, 127
12, 365040, Note_on_c, 10, 58, 127
12, 365280, Note_off_c, 10, 63, 127
12, 365280, Note_off_c, 10, 58, 127
12, 366720, Note_on_c, 10, 63, 127
12, 366720, Note_on_c, 10, 58, 127
12, 366960, Note_off_c, 10, 63, 127
12, 366960, Note_off_c, 10, 58, 127
12, 366960, Note_on_c, 10, 62, 127
12, 366960, Note_on_c, 10, 57, 127
12, 367200, Note_off_c, 10, 62, 127
12, 367200, Note_off_c, 10, 57, 127
12, 367680, Note_on_c, 10, 62, 127
12, 367680, Note_on_c, 10, 57, 127
12, 367920, Note_off_c, 10, 62, 127
12, 367920, Note_off_c, 10, 57, 127
12, 367920, Note_on_c, 10, 63, 127
12, 367920, Note_on_c, 10, 58, 127
12, 368160, Note_off_c, 10, 63, 127
12, 368160, Note_off_c, 10, 58, 127
12, 368640, Note_on_c, 10, 67, 127
12, 368640, Note_on_c, 10, 62, 127
12, 368640, Note_on_c, 10, 55, 127
12, 368880, Note_off_c, 10, 67, 127
12, 368880, Note_off_c, 10, 62, 127
12, 368880, Note_off_c, 10, 55, 127
12, 368880, Note_on_c, 10, 68, 127
12, 368880, Note_on_c, 10, 63, 127
12, 368880, Note_on_c, 10, 56, 127
12, 369120, Note_off_c, 10, 68, 127
12, 369120, Note_off_c, 10, 63, 127
12, 369120, Note_off_c, 10, 56, 127
12, 372480, Note_on_c, 10, 68, 127
12, 372480, Note_on_c, 10, 63, 127
12, 372480, Note_on_c, 10, 56, 127
12, 372720, Note_off_c, 10, 68, 127
12, 372720, Note_off_c, 10, 63, 127
12, 372720, Note_off_c, 10, 56, 127
12, 372720, Note_on_c, 10, 67, 127
12, 372720, Note_on_c, 10, 62, 127
12, 372720, Note_on_c, 10, 55, 127
12, 372960, Note_off_c, 10, 67, 127
12, 372960, Note_off_c, 10, 62, 127
12, 372960, Note_off_c, 10, 55, 127
12, 374400, Note_on_c, 10, 67, 127
12, 374400, Note_on_c, 10, 62, 127
12, 374400, Note_on_c, 10, 55, 127
12, 374640, Note_off_c, 10, 67, 127
12, 374640, Note_off_c, 10, 62, 127
12, 374640, Note_off_c, 10, 55, 127
12, 375360, Note_on_c, 10, 68, 127
12, 375360, Note_on_c, 10, 63, 127
12, 375360, Note_on_c, 10, 56, 127
12, 375600, Note_off_c, 10, 68, 127
12, 375600, Note_off_c, 10, 63, 127
12, 375600, Note_off_c, 10, 56, 127
12, 376320, Note_on_c, 10, 62, 127
12, 376320, Note_on_c, 10, 57, 127
12, 380160, Note_off_c, 10, 62, 127
12, 380160, Note_off_c, 10, 57, 127
12, 380160, Note_on_c, 10, 62, 127
12, 380160, Note_on_c, 10, 57, 127
12, 380400, Note_off_c, 10, 62, 127
12, 380400, Note_off_c, 10, 57, 127
12, 380400, Note_on_c, 10, 63, 127
12, 380400, Note_on_c, 10, 58, 127
12, 380640, Note_off_c, 10, 63, 127
12, 380640, Note_off_c, 10, 58, 127
12, 382080, Note_on_c, 10, 63, 127
12, 382080, Note_on_c, 10, 58, 127
12, 382320, Note_off_c, 10, 63, 127
12, 382320, Note_off_c, 10, 58, 127
12, 382320, Note_on_c, 10, 62, 127
12, 382320, Note_on_c, 10, 57, 127
12, 382560, Note_off_c, 10, 62, 127
12, 382560, Note_off_c, 10, 57, 127
12, 383040, Note_on_c, 10, 62, 127
12, 383040, Note_on_c, 10, 57, 127
12, 383280, Note_off_c, 10, 62, 127
12, 383280, Note_off_c, 10, 57, 127
12, 383280, Note_on_c, 10, 63, 127
12, 383280, Note_on_c, 10, 58, 127
12, 383520, Note_off_c, 10, 63, 127
12, 383520, Note_off_c, 10, 58, 127
12, 384000, Note_on_c, 10, 67, 127
12, 384000, Note_on_c, 10, 62, 127
12, 384000, Note_on_c, 10, 55, 127
12, 384240, Note_off_c, 10, 67, 127
12, 384240, Note_off_c, 10, 62, 127
12, 384240, Note_off_c, 10, 55, 127
12, 384240, Note_on_c, 10, 68, 127
12, 384240, Note_on_c, 10, 63, 127
12, 384240, Note_on_c, 10, 56, 127
12, 384480, Note_off_c, 10, 68, 127
12, 384480, Note_off_c, 10, 63, 127
12, 384480, Note_off_c, 10, 56, 127
12, 387840, Note_on_c, 10, 68, 127
12, 387840, Note_on_c, 10, 63, 127
12, 387840, Note_on_c, 10, 56, 127
12, 388080, Note_off_c, 10, 68, 127
12, 388080, Note_off_c, 10, 63, 127
12, 388080, Note_off_c, 10, 56, 127
12, 388080, Note_on_c, 10, 67, 127
12, 388080, Note_on_c, 10, 62, 127
12, 388080, Note_on_c, 10, 55, 127
12, 388320, Note_off_c, 10, 67, 127
12, 388320, Note_off_c, 10, 62, 127
12, 388320, Note_off_c, 10, 55, 127
12, 389760, Note_on_c, 10, 67, 127
12, 389760, Note_on_c, 10, 62, 127
12, 389760, Note_on_c, 10, 55, 127
12, 390000, Note_off_c, 10, 67, 127
12, 390000, Note_off_c, 10, 62, 127
12, 390000, Note_off_c, 10, 55, 127
12, 390720, Note_on_c, 10, 68, 127
12, 390720, Note_on_c, 10, 63, 127
12, 390720, Note_on_c, 10, 56, 127
12, 390960, Note_off_c, 10, 68, 127
12, 390960, Note_off_c, 10, 63, 127
12, 390960, Note_off_c, 10, 56, 127
12, 391680, Note_on_c, 10, 62, 127
12, 391680, Note_on_c, 10, 57, 127
12, 395520, Note_off_c, 10, 62, 127
12, 395520, Note_off_c, 10, 57, 127
12, 395520, Note_on_c, 10, 62, 127
12, 395520, Note_on_c, 10, 57, 127
12, 395760, Note_off_c, 10, 62, 127
12, 395760, Note_off_c, 10, 57, 127
12, 395760, Note_on_c, 10, 63, 127
12, 395760, Note_on_c, 10, 58, 127
12, 396000, Note_off_c, 10, 63, 127
12, 396000, Note_off_c, 10, 58, 127
12, 397440, Note_on_c, 10, 63, 127
12, 397440, Note_on_c, 10, 58, 127
12, 397680, Note_off_c, 10, 63, 127
12, 397680, Note_off_c, 10, 58, 127
12, 397680, Note_on_c, 10, 62, 127
12, 397680, Note_on_c, 10, 57, 127
12, 397920, Note_off_c, 10, 62, 127
12, 397920, Note_off_c, 10, 57, 127
12, 398400, Note_on_c, 10, 62, 127
12, 398400, Note_on_c, 10, 57, 127
12, 398640, Note_off_c, 10, 62, 127
12, 398640, Note_off_c, 10, 57, 127
12, 398640, Note_on_c, 10, 63, 127
12, 398640, Note_on_c, 10, 58, 127
12, 398880, Note_off_c, 10, 63, 127
12, 398880, Note_off_c, 10, 58, 127
12, 399360, Note_on_c, 10, 67, 127
12, 399360, Note_on_c, 10, 62, 127
12, 399360, Note_on_c, 10, 55, 127
12, 399600, Note_off_c, 10, 67, 127
12, 399600, Note_off_c, 10, 62, 127
12, 399600, Note_off_c, 10, 55, 127
12, 399600, Note_on_c, 10, 68, 127
12, 399600, Note_on_c, 10, 63, 127
12, 399600, Note_on_c, 10, 56, 127
12, 399840, Note_off_c, 10, 68, 127
12, 399840, Note_off_c, 10, 63, 127
12, 399840, Note_off_c, 10, 56, 127
12, 403200, Note_on_c, 10, 68, 127
12, 403200, Note_on_c, 10, 63, 127
12, 403200, Note_on_c, 10, 56, 127
12, 403440, Note_off_c, 10, 68, 127
12, 403440, Note_off_c, 10, 63, 127
12, 403440, Note_off_c, 10, 56, 127
12, 403440, Note_on_c, 10, 67, 127
12, 403440, Note_on_c, 10, 62, 127
12, 403440, Note_on_c, 10, 55, 127
12, 403680, Note_off_c, 10, 67, 127
12, 403680, Note_off_c, 10, 62, 127
12, 403680, Note_off_c, 10, 55, 127
12, 405120, Note_on_c, 10, 67, 127
12, 405120, Note_on_c, 10, 62, 127
12, 405120, Note_on_c, 10, 55, 127
12, 405360, Note_off_c, 10, 67, 127
12, 405360, Note_off_c, 10, 62, 127
12, 405360, Note_off_c, 10, 55, 127
12, 406080, Note_on_c, 10, 68, 127
12, 406080, Note_on_c, 10, 63, 127
12, 406080, Note_on_c, 10, 56, 127
12, 406320, Note_off_c, 10, 68, 127
12, 406320, Note_off_c, 10, 63, 127
12, 406320, Note_off_c, 10, 56, 127
12, 407040, Note_on_c, 10, 62, 127
12, 407040, Note_on_c, 10, 57, 127
12, 410880, Note_off_c, 10, 62, 127
12, 410880, Note_off_c, 10, 57, 127
12, 410880, Note_on_c, 10, 62, 127
12, 410880, Note_on_c, 10, 57, 127
12, 411120, Note_off_c, 10, 62, 127
12, 411120, Note_off_c, 10, 57, 127
12, 411120, Note_on_c, 10, 63, 127
12, 411120, Note_on_c, 10, 58, 127
12, 411360, Note_off_c, 10, 63, 127
12, 411360, Note_off_c, 10, 58, 127
12, 412800, Note_on_c, 10, 63, 127
12, 412800, Note_on_c, 10, 58, 127
12, 413040, Note_off_c, 10, 63, 127
12, 413040, Note_off_c, 10, 58, 127
12, 413040, Note_on_c, 10, 62, 127
12, 413040, Note_on_c, 10, 57, 127
12, 413280, Note_off_c, 10, 62, 127
12, 413280, Note_off_c, 10, 57, 127
12, 413760, Note_on_c, 10, 62, 127
12, 413760, Note_on_c, 10, 57, 127
12, 414000, Note_off_c, 10, 62, 127
12, 414000, Note_off_c, 10, 57, 127
12, 414000, Note_on_c, 10, 63, 127
12, 414000, Note_on_c, 10, 58, 127
12, 414240, Note_off_c, 10, 63, 127
12, 414240, Note_off_c, 10, 58, 127
12, 414720, Note_on_c, 10, 67, 127
12, 414720, Note_on_c, 10, 62, 127
12, 414720, Note_on_c, 10, 55, 127
12, 414960, Note_off_c, 10, 67, 127
12, 414960, Note_off_c, 10, 62, 127
12, 414960, Note_off_c, 10, 55, 127
12, 414960, Note_on_c, 10, 68, 127
12, 414960, Note_on_c, 10, 63, 127
12, 414960, Note_on_c, 10, 56, 127
12, 415200, Note_off_c, 10, 68, 127
12, 415200, Note_off_c, 10, 63, 127
12, 415200, Note_off_c, 10, 56, 127
12, 418560, Note_on_c, 10, 68, 127
12, 418560, Note_on_c, 10, 63, 127
12, 418560, Note_on_c, 10, 56, 127
12, 418800, Note_off_c, 10, 68, 127
12, 418800, Note_off_c, 10, 63, 127
12, 418800, Note_off_c, 10, 56, 127
12, 418800, Note_on_c, 10, 67, 127
12, 418800, Note_on_c, 10, 62, 127
12, 418800, Note_on_c, 10, 55, 127
12, 419040, Note_off_c, 10, 67, 127
12, 419040, Note_off_c, 10, 62, 127
12, 419040, Note_off_c, 10, 55, 127
12, 420480, Note_on_c, 10, 67, 127
12, 420480, Note_on_c, 10, 62, 127
12, 420480, Note_on_c, 10, 55, 127
12, 420720, Note_off_c, 10, 67, 127
12, 420720, Note_off_c, 10, 62, 127
12, 420720, Note_off_c, 10, 55, 127
12, 421440, Note_on_c, 10, 68, 127
12, 421440, Note_on_c, 10, 63, 127
12, 421440, Note_on_c, 10, 56, 127
12, 421680, Note_off_c, 10, 68, 127
12, 421680, Note_off_c, 10, 63, 127
12, 421680, Note_off_c, 10, 56, 127
12, 422400, Note_on_c, 10, 62, 127
12, 422400, Note_on_c, 10, 57, 127
12, 426240, Note_off_c, 10, 62, 127
12, 426240, Note_off_c, 10, 57, 127
12, 426240, Note_on_c, 10, 62, 127
12, 426240, Note_on_c, 10, 57, 127
12, 426480, Note_off_c, 10, 62, 127
12, 426480, Note_off_c, 10, 57, 127
12, 426480, Note_on_c, 10, 63, 127
12, 426480, Note_on_c, 10, 58, 127
12, 426720, Note_off_c, 10, 63, 127
12, 426720, Note_off_c, 10, 58, 127
12, 428160, Note_on_c, 10, 63, 127
12, 428160, Note_on_c, 10, 58, 127
12, 428400, Note_off_c, 10, 63, 127
12, 428400, Note_off_c, 10, 58, 127
12, 428400, Note_on_c, 10, 62, 127
12, 428400, Note_on_c, 10, 57, 127
12, 428640, Note_off_c, 10, 62, 127
12, 428640, Note_off_c, 10, 57, 127
12, 429120, Note_on_c, 10, 62, 127
12, 429120, Note_on_c, 10, 57, 127
12, 429360, Note_off_c, 10, 62, 127
12, 429360, Note_off_c, 10, 57, 127
12, 429360, Note_on_c, 10, 63, 127
12, 429360, Note_on_c, 10, 58, 127
12, 429600, Note_off_c, 10, 63, 127
12, 429600, Note_off_c, 10, 58, 127
12, 430080, Note_on_c, 10, 67, 127
12, 430080, Note_on_c, 10, 62, 127
12, 430080, Note_on_c, 10, 55, 127
12, 430320, Note_off_c, 10, 67, 127
12, 430320, Note_off_c, 10, 62, 127
12, 430320, Note_off_c, 10, 55, 127
12, 430320, Note_on_c, 10, 68, 127
12, 430320, Note_on_c, 10, 63, 127
12, 430320, Note_on_c, 10, 56, 127
12, 430560, Note_off_c, 10, 68, 127
12, 430560, Note_off_c, 10, 63, 127
12, 430560, Note_off_c, 10, 56, 127
12, 433920, Note_on_c, 10, 68, 127
12, 433920, Note_on_c, 10, 63, 127
12, 433920, Note_on_c, 10, 56, 127
12, 434160, Note_off_c, 10, 68, 127
12, 434160, Note_off_c, 10, 63, 127
12, 434160, Note_off_c, 10, 56, 127
12, 434160, Note_on_c, 10, 67, 127
12, 434160, Note_on_c, 10, 62, 127
12, 434160, Note_on_c, 10, 55, 127
12, 434400, Note_off_c, 10, 67, 127
12, 434400, Note_off_c, 10, 62, 127
12, 434400, Note_off_c, 10, 55, 127
12, 435840, Note_on_c, 10, 67, 127
12, 435840, Note_on_c, 10, 62, 127
12, 435840, Note_on_c, 10, 55, 127
12, 436080, Note_off_c, 10, 67, 127
12, 436080, Note_off_c, 10, 62, 127
12, 436080, Note_off_c, 10, 55, 127
12, 436800, Note_on_c, 10, 68, 127
12, 436800, Note_on_c, 10, 63, 127
12, 436800, Note_on_c, 10, 56, 127
12, 437040, Note_off_c, 10, 68, 127
12, 437040, Note_off_c, 10, 63, 127
12, 437040, Note_off_c, 10, 56, 127
12, 437760, Note_on_c, 10, 62, 127
12, 437760, Note_on_c, 10, 57, 127
12, 441600, Note_off_c, 10, 62, 127
12, 441600, Note_off_c, 10, 57, 127
12, 441600, Note_on_c, 10, 62, 127
12, 441600, Note_on_c, 10, 57, 127
12, 441840, Note_off_c, 10, 62, 127
12, 441840, Note_off_c, 10, 57, 127
12, 441840, Note_on_c, 10, 63, 127
12, 441840, Note_on_c, 10, 58, 127
12, 442080, Note_off_c, 10, 63, 127
12, 442080, Note_off_c, 10, 58, 127
12, 443520, Note_on_c, 10, 63, 127
12, 443520, Note_on_c, 10, 58, 127
12, 443760, Note_off_c, 10, 63, 127
12, 443760, Note_off_c, 10, 58, 127
12, 443760, Note_on_c, 10, 62, 127
12, 443760, Note_on_c, 10, 57, 127
12, 444000, Note_off_c, 10, 62, 127
12, 444000, Note_off_c, 10, 57, 127
12, 444480, Note_on_c, 10, 62, 127
12, 444480, Note_on_c, 10, 57, 127
12, 444720, Note_off_c, 10, 62, 127
12, 444720, Note_off_c, 10, 57, 127
12, 444720, Note_on_c, 10, 63, 127
12, 444720, Note_on_c, 10, 58, 127
12, 444960, Note_off_c, 10, 63, 127
12, 444960, Note_off_c, 10, 58, 127
12, 444960, End_track
13, 0, Start_track
13, 0, Pitch_bend_c, 5, 8192
13, 0, Control_c, 5, 7, 71
13, 0, Control_c, 5, 10, 63
13, 0, Control_c, 5, 93, 0
13, 0, Control_c, 5, 91, 0
13, 0, Control_c, 5, 95, 0
13, 0, Control_c, 5, 92, 0
13, 0, Control_c, 5, 11, 127
13, 0, Program_c, 5, 46
13, 4320, Note_on_c, 5, 73, 127
13, 4480, Note_off_c, 5, 73, 127
13, 4480, Note_on_c, 5, 76, 127
13, 4640, Note_off_c, 5, 76, 127
13, 4640, Note_on_c, 5, 78, 127
13, 4800, Note_off_c, 5, 78, 127
13, 4800, Note_on_c, 5, 85, 127
13, 5040, Note_off_c, 5, 85, 127
13, 5040, Note_on_c, 5, 78, 127
13, 5280, Note_off_c, 5, 78, 127
13, 5280, Note_on_c, 5, 81, 127
13, 5520, Note_off_c, 5, 81, 127
13, 5520, Note_on_c, 5, 76, 127
13, 5760, Note_off_c, 5, 76, 127
13, 5760, Note_on_c, 5, 73, 127
13, 7680, Note_off_c, 5, 73, 127
13, 10080, Note_on_c, 5, 73, 127
13, 10240, Note_off_c, 5, 73, 127
13, 10240, Note_on_c, 5, 76, 127
13, 10400, Note_off_c, 5, 76, 127
13, 10400, Note_on_c, 5, 78, 127
13, 10560, Note_off_c, 5, 78, 127
13, 10560, Note_on_c, 5, 85, 127
13, 10800, Note_off_c, 5, 85, 127
13, 10800, Note_on_c, 5, 78, 127
13, 11040, Note_off_c, 5, 78, 127
13, 11040, Note_on_c, 5, 81, 127
13, 11280, Note_off_c, 5, 81, 127
13, 11280, Note_on_c, 5, 76, 127
13, 11520, Note_off_c, 5, 76, 127
13, 11520, Note_on_c, 5, 72, 127
13, 13440, Note_off_c, 5, 72, 127
13, 15360, Note_on_c, 5, 72, 127
13, 15520, Note_off_c, 5, 72, 127
13, 15520, Note_on_c, 5, 75, 127
13, 15680, Note_off_c, 5, 75, 127
13, 15680, Note_on_c, 5, 77, 127
13, 15840, Note_off_c, 5, 77, 127
13, 15840, Note_on_c, 5, 84, 127
13, 16000, Note_off_c, 5, 84, 127
13, 16000, Note_on_c, 5, 87, 127
13, 16160, Note_off_c, 5, 87, 127
13, 16160, Note_on_c, 5, 89, 127
13, 16320, Note_off_c, 5, 89, 127
13, 16320, Note_on_c, 5, 87, 127
13, 16560, Note_off_c, 5, 87, 127
13, 16560, Note_on_c, 5, 84, 127
13, 16800, Note_off_c, 5, 84, 127
13, 16800, Note_on_c, 5, 77, 127
13, 17040, Note_off_c, 5, 77, 127
13, 17040, Note_on_c, 5, 75, 127
13, 17280, Note_off_c, 5, 75, 127
13, 17280, Note_on_c, 5, 72, 127
13, 19200, Note_off_c, 5, 72, 127
13, 21120, Note_on_c, 5, 72, 127
13, 21280, Note_off_c, 5, 72, 127
13, 21280, Note_on_c, 5, 75, 127
13, 21440, Note_off_c, 5, 75, 127
13, 21440, Note_on_c, 5, 77, 127
13, 21600, Note_off_c, 5, 77, 127
13, 21600, Note_on_c, 5, 84, 127
13, 21840, Note_off_c, 5, 84, 127
13, 21840, Note_on_c, 5, 87, 127
13, 22080, Note_off_c, 5, 87, 127
13, 22080, Note_on_c, 5, 89, 127
13, 22320, Note_off_c, 5, 89, 127
13, 22320, Note_on_c, 5, 87, 127
13, 22560, Note_off_c, 5, 87, 127
13, 22560, Note_on_c, 5, 84, 127
13, 22800, Note_off_c, 5, 84, 127
13, 22800, Note_on_c, 5, 77, 127
13, 23040, Note_off_c, 5, 77, 127
13, 23040, Note_on_c, 5, 71, 127
13, 24960, Note_off_c, 5, 71, 127
13, 26880, Note_on_c, 5, 71, 127
13, 27040, Note_off_c, 5, 71, 127
13, 27040, Note_on_c, 5, 77, 127
13, 27200, Note_off_c, 5, 77, 127
13, 27200, Note_on_c, 5, 83, 127
13, 27360, Note_off_c, 5, 83, 127
13, 27360, Note_on_c, 5, 89, 127
13, 27600, Note_off_c, 5, 89, 127
13, 27600, Note_on_c, 5, 85, 127
13, 27840, Note_off_c, 5, 85, 127
13, 27840, Note_on_c, 5, 83, 127
13, 28080, Note_off_c, 5, 83, 127
13, 28080, Note_on_c, 5, 77, 127
13, 28320, Note_off_c, 5, 77, 127
13, 28320, Note_on_c, 5, 89, 127
13, 28560, Note_off_c, 5, 89, 127
13, 28560, Note_on_c, 5, 83, 127
13, 28800, Note_off_c, 5, 83, 127
13, 28800, Note_on_c, 5, 71, 127
13, 30720, Note_off_c, 5, 71, 127
13, 32640, Note_on_c, 5, 71, 127
13, 32800, Note_off_c, 5, 71, 127
13, 32800, Note_on_c, 5, 77, 127
13, 32960, Note_off_c, 5, 77, 127
13, 32960, Note_on_c, 5, 83, 127
13, 33120, Note_off_c, 5, 83, 127
13, 33120, Note_on_c, 5, 85, 127
13, 33280, Note_off_c, 5, 85, 127
13, 33280, Note_on_c, 5, 89, 127
13, 33440, Note_off_c, 5, 89, 127
13, 33440, Note_on_c, 5, 85, 127
13, 33600, Note_off_c, 5, 85, 127
13, 33600, Note_on_c, 5, 83, 127
13, 33840, Note_off_c, 5, 83, 127
13, 33840, Note_on_c, 5, 73, 127
13, 34080, Note_off_c, 5, 73, 127
13, 34080, Note_on_c, 5, 85, 127
13, 34320, Note_off_c, 5, 85, 127
13, 34320, Note_on_c, 5, 77, 127
13, 34560, Note_off_c, 5, 77, 127
13, 34560, Note_on_c, 5, 70, 127
13, 36480, Note_off_c, 5, 70, 127
13, 38400, Note_on_c, 5, 70, 127
13, 38520, Note_off_c, 5, 70, 127
13, 38520, Note_on_c, 5, 76, 127
13, 38640, Note_off_c, 5, 76, 127
13, 38640, Note_on_c, 5, 82, 127
13, 38760, Note_off_c, 5, 82, 127
13, 38760, Note_on_c, 5, 84, 127
13, 38880, Note_off_c, 5, 84, 127
13, 38880, Note_on_c, 5, 89, 127
13, 39120, Note_off_c, 5, 89, 127
13, 39120, Note_on_c, 5, 87, 127
13, 39360, Note_off_c, 5, 87, 127
13, 39360, Note_on_c, 5, 84, 127
13, 39600, Note_off_c, 5, 84, 127
13, 39600, Note_on_c, 5, 82, 127
13, 39840, Note_off_c, 5, 82, 127
13, 39840, Note_on_c, 5, 87, 127
13, 40080, Note_off_c, 5, 87, 127
13, 40080, Note_on_c, 5, 82, 127
13, 40320, Note_off_c, 5, 82, 127
13, 40320, Note_on_c, 5, 70, 127
13, 42240, Note_off_c, 5, 70, 127
13, 44160, Note_on_c, 5, 84, 127
13, 44160, Note_on_c, 5, 76, 127
13, 44160, Note_on_c, 5, 70, 127
13, 46080, Note_off_c, 5, 84, 127
13, 46080, Note_off_c, 5, 76, 127
13, 46080, Note_off_c, 5, 70, 127
13, 138960, Note_on_c, 5, 83, 127
13, 139080, Note_off_c, 5, 83, 127
13, 139080, Note_on_c, 5, 85, 102
13, 139200, Note_off_c, 5, 85, 102
13, 139200, Note_on_c, 5, 86, 102
13, 139680, Note_off_c, 5, 86, 102
13, 139920, Note_on_c, 5, 85, 127
13, 140160, Note_off_c, 5, 85, 127
13, 140160, Note_on_c, 5, 86, 102
13, 141120, Note_off_c, 5, 86, 102
13, 141840, Note_on_c, 5, 83, 127
13, 141960, Note_off_c, 5, 83, 127
13, 141960, Note_on_c, 5, 85, 102
13, 142080, Note_off_c, 5, 85, 102
13, 142080, Note_on_c, 5, 86, 102
13, 142560, Note_off_c, 5, 86, 102
13, 142800, Note_on_c, 5, 85, 127
13, 143040, Note_off_c, 5, 85, 127
13, 143040, Note_on_c, 5, 86, 102
13, 144000, Note_off_c, 5, 86, 102
13, 144720, Note_on_c, 5, 83, 127
13, 144840, Note_off_c, 5, 83, 127
13, 144840, Note_on_c, 5, 85, 102
13, 144960, Note_off_c, 5, 85, 102
13, 144960, Note_on_c, 5, 86, 102
13, 145440, Note_off_c, 5, 86, 102
13, 145680, Note_on_c, 5, 83, 127
13, 145920, Note_off_c, 5, 83, 127
13, 145920, Note_on_c, 5, 85, 102
13, 146880, Note_off_c, 5, 85, 102
13, 147120, Note_on_c, 5, 81, 127
13, 147360, Note_off_c, 5, 81, 127
13, 147360, Note_on_c, 5, 78, 127
13, 147600, Note_off_c, 5, 78, 127
13, 147600, Note_on_c, 5, 81, 127
13, 147840, Note_off_c, 5, 81, 127
13, 147840, Note_on_c, 5, 88, 127
13, 148560, Note_off_c, 5, 88, 127
13, 148560, Note_on_c, 5, 82, 127
13, 148680, Note_off_c, 5, 82, 127
13, 148680, Note_on_c, 5, 88, 127
13, 148800, Note_off_c, 5, 88, 127
13, 148800, Note_on_c, 5, 85, 127
13, 149760, Note_off_c, 5, 85, 127
13, 150480, Note_on_c, 5, 83, 127
13, 150600, Note_off_c, 5, 83, 127
13, 150600, Note_on_c, 5, 85, 102
13, 150720, Note_off_c, 5, 85, 102
13, 150720, Note_on_c, 5, 86, 102
13, 151200, Note_off_c, 5, 86, 102
13, 151440, Note_on_c, 5, 85, 127
13, 151680, Note_off_c, 5, 85, 127
13, 151680, Note_on_c, 5, 86, 102
13, 152640, Note_off_c, 5, 86, 102
13, 153360, Note_on_c, 5, 83, 127
13, 153480, Note_off_c, 5, 83, 127
13, 153480, Note_on_c, 5, 85, 102
13, 153600, Note_off_c, 5, 85, 102
13, 153600, Note_on_c, 5, 86, 102
13, 154080, Note_off_c, 5, 86, 102
13, 154320, Note_on_c, 5, 85, 127
13, 154560, Note_off_c, 5, 85, 127
13, 154560, Note_on_c, 5, 86, 102
13, 155520, Note_off_c, 5, 86, 102
13, 156240, Note_on_c, 5, 83, 127
13, 156360, Note_off_c, 5, 83, 127
13, 156360, Note_on_c, 5, 85, 102
13, 156480, Note_off_c, 5, 85, 102
13, 156480, Note_on_c, 5, 86, 102
13, 156960, Note_off_c, 5, 86, 102
13, 157200, Note_on_c, 5, 83, 127
13, 157440, Note_off_c, 5, 83, 127
13, 157440, Note_on_c, 5, 85, 102
13, 158400, Note_off_c, 5, 85, 102
13, 158640, Note_on_c, 5, 81, 127
13, 158880, Note_off_c, 5, 81, 127
13, 158880, Note_on_c, 5, 78, 127
13, 159120, Note_off_c, 5, 78, 127
13, 159120, Note_on_c, 5, 81, 127
13, 159360, Note_off_c, 5, 81, 127
13, 159360, Note_on_c, 5, 88, 127
13, 160080, Note_off_c, 5, 88, 127
13, 160080, Note_on_c, 5, 82, 127
13, 160200, Note_off_c, 5, 82, 127
13, 160200, Note_on_c, 5, 88, 127
13, 160320, Note_off_c, 5, 88, 127
13, 160320, Note_on_c, 5, 85, 127
13, 161280, Note_off_c, 5, 85, 127
13, 162000, Note_on_c, 5, 83, 127
13, 162120, Note_off_c, 5, 83, 127
13, 162120, Note_on_c, 5, 85, 102
13, 162240, Note_off_c, 5, 85, 102
13, 162240, Note_on_c, 5, 86, 102
13, 162720, Note_off_c, 5, 86, 102
13, 162960, Note_on_c, 5, 85, 127
13, 163200, Note_off_c, 5, 85, 127
13, 163200, Note_on_c, 5, 86, 102
13, 164160, Note_off_c, 5, 86, 102
13, 164880, Note_on_c, 5, 83, 127
13, 165000, Note_off_c, 5, 83, 127
13, 165000, Note_on_c, 5, 85, 102
13, 165120, Note_off_c, 5, 85, 102
13, 165120, Note_on_c, 5, 86, 102
13, 165600, Note_off_c, 5, 86, 102
13, 165840, Note_on_c, 5, 85, 127
13, 166080, Note_off_c, 5, 85, 127
13, 166080, Note_on_c, 5, 86, 102
13, 167040, Note_off_c, 5, 86, 102
13, 167760, Note_on_c, 5, 83, 127
13, 167880, Note_off_c, 5, 83, 127
13, 167880, Note_on_c, 5, 85, 102
13, 168000, Note_off_c, 5, 85, 102
13, 168000, Note_on_c, 5, 86, 102
13, 168480, Note_off_c, 5, 86, 102
13, 168720, Note_on_c, 5, 83, 127
13, 168960, Note_off_c, 5, 83, 127
13, 168960, Note_on_c, 5, 85, 102
13, 169920, Note_off_c, 5, 85, 102
13, 170160, Note_on_c, 5, 81, 127
13, 170400, Note_off_c, 5, 81, 127
13, 170400, Note_on_c, 5, 78, 127
13, 170640, Note_off_c, 5, 78, 127
13, 170640, Note_on_c, 5, 81, 127
13, 170880, Note_off_c, 5, 81, 127
13, 170880, Note_on_c, 5, 88, 127
13, 171600, Note_off_c, 5, 88, 127
13, 171600, Note_on_c, 5, 82, 127
13, 171720, Note_off_c, 5, 82, 127
13, 171720, Note_on_c, 5, 88, 127
13, 171840, Note_off_c, 5, 88, 127
13, 171840, Note_on_c, 5, 85, 127
13, 172800, Note_off_c, 5, 85, 127
13, 173520, Note_on_c, 5, 83, 127
13, 173640, Note_off_c, 5, 83, 127
13, 173640, Note_on_c, 5, 85, 102
13, 173760, Note_off_c, 5, 85, 102
13, 173760, Note_on_c, 5, 86, 102
13, 174240, Note_off_c, 5, 86, 102
13, 174480, Note_on_c, 5, 85, 127
13, 174720, Note_off_c, 5, 85, 127
13, 174720, Note_on_c, 5, 86, 102
13, 175680, Note_off_c, 5, 86, 102
13, 176400, Note_on_c, 5, 83, 127
13, 176520, Note_off_c, 5, 83, 127
13, 176520, Note_on_c, 5, 85, 102
13, 176640, Note_off_c, 5, 85, 102
13, 176640, Note_on_c, 5, 86, 102
13, 177120, Note_off_c, 5, 86, 102
13, 177360, Note_on_c, 5, 85, 127
13, 177600, Note_off_c, 5, 85, 127
13, 177600, Note_on_c, 5, 86, 102
13, 178560, Note_off_c, 5, 86, 102
13, 179280, Note_on_c, 5, 83, 127
13, 179400, Note_off_c, 5, 83, 127
13, 179400, Note_on_c, 5, 85, 102
13, 179520, Note_off_c, 5, 85, 102
13, 179520, Note_on_c, 5, 86, 102
13, 180000, Note_off_c, 5, 86, 102
13, 180240, Note_on_c, 5, 83, 127
13, 180480, Note_off_c, 5, 83, 127
13, 180480, Note_on_c, 5, 85, 102
13, 181440, Note_off_c, 5, 85, 102
13, 181680, Note_on_c, 5, 81, 127
13, 181920, Note_off_c, 5, 81, 127
13, 181920, Note_on_c, 5, 78, 127
13, 182160, Note_off_c, 5, 78, 127
13, 182160, Note_on_c, 5, 81, 127
13, 182400, Note_off_c, 5, 81, 127
13, 182400, Note_on_c, 5, 88, 127
13, 183120, Note_off_c, 5, 88, 127
13, 183120, Note_on_c, 5, 82, 127
13, 183240, Note_off_c, 5, 82, 127
13, 183240, Note_on_c, 5, 88, 127
13, 183360, Note_off_c, 5, 88, 127
13, 183360, Note_on_c, 5, 85, 127
13, 184320, Note_off_c, 5, 85, 127
13, 186240, Note_on_c, 5, 56, 127
13, 187200, Note_off_c, 5, 56, 127
13, 187200, Note_on_c, 5, 68, 127
13, 187680, Note_off_c, 5, 68, 127
13, 187680, Note_on_c, 5, 74, 127
13, 188160, Note_off_c, 5, 74, 127
13, 188160, Note_on_c, 5, 75, 127
13, 189120, Note_off_c, 5, 75, 127
13, 189120, Note_on_c, 5, 80, 127
13, 190080, Note_off_c, 5, 80, 127
13, 190560, Note_on_c, 5, 68, 127
13, 191040, Note_off_c, 5, 68, 127
13, 191040, Note_on_c, 5, 74, 127
13, 191280, Note_off_c, 5, 74, 127
13, 191280, Note_on_c, 5, 75, 127
13, 191520, Note_off_c, 5, 75, 127
13, 191520, Note_on_c, 5, 80, 127
13, 191760, Note_off_c, 5, 80, 127
13, 191760, Note_on_c, 5, 82, 127
13, 192000, Note_off_c, 5, 82, 127
13, 192000, Note_on_c, 5, 80, 127
13, 192480, Note_off_c, 5, 80, 127
13, 192480, Note_on_c, 5, 77, 127
13, 192960, Note_off_c, 5, 77, 127
13, 192960, Note_on_c, 5, 65, 127
13, 194400, Note_off_c, 5, 65, 127
13, 194400, Note_on_c, 5, 65, 127
13, 194520, Note_off_c, 5, 65, 127
13, 194520, Note_on_c, 5, 72, 127
13, 194640, Note_off_c, 5, 72, 127
13, 194640, Note_on_c, 5, 77, 127
13, 194760, Note_off_c, 5, 77, 127
13, 194760, Note_on_c, 5, 84, 127
13, 194880, Note_off_c, 5, 84, 127
13, 195360, Note_on_c, 5, 65, 127
13, 195480, Note_off_c, 5, 65, 127
13, 195480, Note_on_c, 5, 72, 127
13, 195600, Note_off_c, 5, 72, 127
13, 195600, Note_on_c, 5, 77, 127
13, 195720, Note_off_c, 5, 77, 127
13, 195720, Note_on_c, 5, 82, 127
13, 195840, Note_off_c, 5, 82, 127
13, 196800, Note_on_c, 5, 82, 127
13, 197760, Note_off_c, 5, 82, 127
13, 197760, Note_on_c, 5, 80, 127
13, 198240, Note_off_c, 5, 80, 127
13, 198240, Note_on_c, 5, 65, 127
13, 198360, Note_off_c, 5, 65, 127
13, 198360, Note_on_c, 5, 68, 127
13, 198480, Note_off_c, 5, 68, 127
13, 198480, Note_on_c, 5, 72, 127
13, 198600, Note_off_c, 5, 72, 127
13, 198600, Note_on_c, 5, 77, 127
13, 198720, Note_off_c, 5, 77, 127
13, 198720, Note_on_c, 5, 80, 127
13, 199440, Note_off_c, 5, 80, 127
13, 199440, Note_on_c, 5, 68, 127
13, 199560, Note_off_c, 5, 68, 127
13, 199560, Note_on_c, 5, 74, 127
13, 199680, Note_off_c, 5, 74, 127
13, 199680, Note_on_c, 5, 80, 127
13, 200160, Note_off_c, 5, 80, 127
13, 200160, Note_on_c, 5, 80, 127
13, 200400, Note_off_c, 5, 80, 127
13, 200400, Note_on_c, 5, 75, 127
13, 200640, Note_off_c, 5, 75, 127
13, 200880, Note_on_c, 5, 74, 127
13, 201120, Note_off_c, 5, 74, 127
13, 201120, Note_on_c, 5, 75, 127
13, 201360, Note_off_c, 5, 75, 127
13, 201600, Note_on_c, 5, 72, 127
13, 202560, Note_off_c, 5, 72, 127
13, 202560, Note_on_c, 5, 72, 127
13, 203040, Note_off_c, 5, 72, 127
13, 203040, Note_on_c, 5, 75, 127
13, 203520, Note_off_c, 5, 75, 127
13, 203520, Note_on_c, 5, 74, 127
13, 204000, Note_off_c, 5, 74, 127
13, 204000, Note_on_c, 5, 68, 127
13, 204240, Note_off_c, 5, 68, 127
13, 204240, Note_on_c, 5, 56, 127
13, 204960, Note_off_c, 5, 56, 127
13, 204960, Note_on_c, 5, 68, 127
13, 205200, Note_off_c, 5, 68, 127
13, 205200, Note_on_c, 5, 74, 127
13, 205440, Note_off_c, 5, 74, 127
13, 205440, Note_on_c, 5, 75, 127
13, 205680, Note_off_c, 5, 75, 127
13, 205680, Note_on_c, 5, 74, 127
13, 205920, Note_off_c, 5, 74, 127
13, 205920, Note_on_c, 5, 68, 127
13, 206160, Note_off_c, 5, 68, 127
13, 206160, Note_on_c, 5, 62, 127
13, 206400, Note_off_c, 5, 62, 127
13, 206400, Note_on_c, 5, 63, 127
13, 206640, Note_off_c, 5, 63, 127
13, 206640, Note_on_c, 5, 70, 127
13, 206880, Note_off_c, 5, 70, 127
13, 206880, Note_on_c, 5, 68, 127
13, 207120, Note_off_c, 5, 68, 127
13, 207120, Note_on_c, 5, 74, 127
13, 207360, Note_off_c, 5, 74, 127
13, 207360, Note_on_c, 5, 65, 127
13, 207600, Note_off_c, 5, 65, 127
13, 207600, Note_on_c, 5, 53, 127
13, 208080, Note_off_c, 5, 53, 127
13, 208080, Note_on_c, 5, 65, 127
13, 208320, Note_off_c, 5, 65, 127
13, 208320, Note_on_c, 5, 72, 127
13, 208560, Note_off_c, 5, 72, 127
13, 208560, Note_on_c, 5, 77, 127
13, 208800, Note_off_c, 5, 77, 127
13, 208800, Note_on_c, 5, 60, 127
13, 209040, Note_off_c, 5, 60, 127
13, 209040, Note_on_c, 5, 68, 127
13, 209280, Note_off_c, 5, 68, 127
13, 209280, Note_on_c, 5, 75, 127
13, 209520, Note_off_c, 5, 75, 127
13, 209520, Note_on_c, 5, 80, 127
13, 210720, Note_off_c, 5, 80, 127
13, 210720, Note_on_c, 5, 53, 127
13, 210960, Note_on_c, 5, 60, 127
13, 211920, Note_off_c, 5, 53, 127
13, 211920, Note_off_c, 5, 60, 127
13, 211920, Note_on_c, 5, 53, 127
13, 212160, Note_off_c, 5, 53, 127
13, 212160, Note_on_c, 5, 60, 127
13, 212400, Note_off_c, 5, 60, 127
13, 212400, Note_on_c, 5, 70, 127
13, 212640, Note_off_c, 5, 70, 127
13, 212640, Note_on_c, 5, 75, 127
13, 212880, Note_off_c, 5, 75, 127
13, 212880, Note_on_c, 5, 80, 127
13, 213120, Note_off_c, 5, 80, 127
13, 213120, Note_on_c, 5, 82, 127
13, 213600, Note_off_c, 5, 82, 127
13, 213600, Note_on_c, 5, 80, 127
13, 214080, Note_off_c, 5, 80, 127
13, 214080, Note_on_c, 5, 75, 127
13, 214320, Note_off_c, 5, 75, 127
13, 214320, Note_on_c, 5, 80, 127
13, 214560, Note_off_c, 5, 80, 127
13, 214560, Note_on_c, 5, 70, 127
13, 215040, Note_off_c, 5, 70, 127
13, 215040, Note_on_c, 5, 56, 127
13, 216000, Note_off_c, 5, 56, 127
13, 216000, Note_on_c, 5, 68, 127
13, 216480, Note_off_c, 5, 68, 127
13, 216480, Note_on_c, 5, 75, 127
13, 217440, Note_off_c, 5, 75, 127
13, 217440, Note_on_c, 5, 80, 127
13, 217920, Note_off_c, 5, 80, 127
13, 217920, Note_on_c, 5, 87, 127
13, 218880, Note_off_c, 5, 87, 127
13, 219360, Note_on_c, 5, 56, 127
13, 219840, Note_off_c, 5, 56, 127
13, 219840, Note_on_c, 5, 68, 127
13, 220320, Note_off_c, 5, 68, 127
13, 220320, Note_on_c, 5, 75, 127
13, 221280, Note_off_c, 5, 75, 127
13, 221280, Note_on_c, 5, 80, 127
13, 221760, Note_off_c, 5, 80, 127
13, 221760, Note_on_c, 5, 87, 127
13, 222240, Note_off_c, 5, 87, 127
13, 222240, Note_on_c, 5, 75, 127
13, 222720, Note_off_c, 5, 75, 127
13, 222720, Note_on_c, 5, 53, 127
13, 223200, Note_off_c, 5, 53, 127
13, 223200, Note_on_c, 5, 65, 127
13, 223680, Note_off_c, 5, 65, 127
13, 223680, Note_on_c, 5, 68, 127
13, 224160, Note_off_c, 5, 68, 127
13, 224160, Note_on_c, 5, 72, 127
13, 225120, Note_off_c, 5, 72, 127
13, 225120, Note_on_c, 5, 77, 127
13, 225600, Note_off_c, 5, 77, 127
13, 225600, Note_on_c, 5, 84, 127
13, 226560, Note_off_c, 5, 84, 127
13, 226560, Note_on_c, 5, 53, 127
13, 227040, Note_off_c, 5, 53, 127
13, 227040, Note_on_c, 5, 65, 127
13, 227520, Note_off_c, 5, 65, 127
13, 227520, Note_on_c, 5, 68, 127
13, 228000, Note_off_c, 5, 68, 127
13, 228000, Note_on_c, 5, 72, 127
13, 228960, Note_off_c, 5, 72, 127
13, 228960, Note_on_c, 5, 77, 127
13, 229440, Note_off_c, 5, 77, 127
13, 229440, Note_on_c, 5, 84, 127
13, 230400, Note_off_c, 5, 84, 127
13, 230400, Note_on_c, 5, 56, 127
13, 230880, Note_off_c, 5, 56, 127
13, 230880, Note_on_c, 5, 68, 127
13, 231360, Note_off_c, 5, 68, 127
13, 231360, Note_on_c, 5, 75, 127
13, 231840, Note_off_c, 5, 75, 127
13, 231840, Note_on_c, 5, 80, 127
13, 232800, Note_off_c, 5, 80, 127
13, 232800, Note_on_c, 5, 87, 127
13, 233760, Note_off_c, 5, 87, 127
13, 233760, Note_on_c, 5, 86, 127
13, 234240, Note_off_c, 5, 86, 127
13, 234240, Note_on_c, 5, 56, 127
13, 234720, Note_off_c, 5, 56, 127
13, 234720, Note_on_c, 5, 68, 127
13, 235200, Note_off_c, 5, 68, 127
13, 235200, Note_on_c, 5, 75, 127
13, 235680, Note_off_c, 5, 75, 127
13, 235680, Note_on_c, 5, 82, 127
13, 236160, Note_off_c, 5, 82, 127
13, 236160, Note_on_c, 5, 87, 127
13, 236640, Note_off_c, 5, 87, 127
13, 236640, Note_on_c, 5, 82, 127
13, 237120, Note_off_c, 5, 82, 127
13, 237120, Note_on_c, 5, 75, 127
13, 237600, Note_off_c, 5, 75, 127
13, 237600, Note_on_c, 5, 82, 127
13, 238080, Note_off_c, 5, 82, 127
13, 238080, Note_on_c, 5, 53, 127
13, 238560, Note_off_c, 5, 53, 127
13, 238560, Note_on_c, 5, 65, 127
13, 239040, Note_off_c, 5, 65, 127
13, 239040, Note_on_c, 5, 70, 127
13, 239520, Note_off_c, 5, 70, 127
13, 239520, Note_on_c, 5, 75, 127
13, 240000, Note_off_c, 5, 75, 127
13, 240000, Note_on_c, 5, 84, 127
13, 240960, Note_off_c, 5, 84, 127
13, 240960, Note_on_c, 5, 80, 127
13, 241920, Note_off_c, 5, 80, 127
13, 242400, Note_on_c, 5, 53, 127
13, 242880, Note_off_c, 5, 53, 127
13, 242880, Note_on_c, 5, 65, 127
13, 243360, Note_off_c, 5, 65, 127
13, 243360, Note_on_c, 5, 70, 127
13, 244320, Note_off_c, 5, 70, 127
13, 244320, Note_on_c, 5, 84, 127
13, 244800, Note_off_c, 5, 84, 127
13, 244800, Note_on_c, 5, 80, 127
13, 245760, Note_off_c, 5, 80, 127
13, 245760, Note_on_c, 5, 56, 127
13, 246720, Note_off_c, 5, 56, 127
13, 246720, Note_on_c, 5, 68, 127
13, 247200, Note_off_c, 5, 68, 127
13, 247200, Note_on_c, 5, 75, 127
13, 248160, Note_off_c, 5, 75, 127
13, 248160, Note_on_c, 5, 80, 127
13, 248640, Note_off_c, 5, 80, 127
13, 248640, Note_on_c, 5, 87, 127
13, 249600, Note_off_c, 5, 87, 127
13, 250080, Note_on_c, 5, 56, 127
13, 250560, Note_off_c, 5, 56, 127
13, 250560, Note_on_c, 5, 68, 127
13, 251040, Note_off_c, 5, 68, 127
13, 251040, Note_on_c, 5, 75, 127
13, 252000, Note_off_c, 5, 75, 127
13, 252000, Note_on_c, 5, 80, 127
13, 252480, Note_off_c, 5, 80, 127
13, 252480, Note_on_c, 5, 87, 127
13, 252960, Note_off_c, 5, 87, 127
13, 252960, Note_on_c, 5, 75, 127
13, 253440, Note_off_c, 5, 75, 127
13, 253440, Note_on_c, 5, 53, 127
13, 253920, Note_off_c, 5, 53, 127
13, 253920, Note_on_c, 5, 65, 127
13, 254400, Note_off_c, 5, 65, 127
13, 254400, Note_on_c, 5, 68, 127
13, 254880, Note_off_c, 5, 68, 127
13, 254880, Note_on_c, 5, 72, 127
13, 255840, Note_off_c, 5, 72, 127
13, 255840, Note_on_c, 5, 77, 127
13, 256320, Note_off_c, 5, 77, 127
13, 256320, Note_on_c, 5, 84, 127
13, 257280, Note_off_c, 5, 84, 127
13, 257280, Note_on_c, 5, 53, 127
13, 257760, Note_off_c, 5, 53, 127
13, 257760, Note_on_c, 5, 65, 127
13, 258240, Note_off_c, 5, 65, 127
13, 258240, Note_on_c, 5, 68, 127
13, 258720, Note_off_c, 5, 68, 127
13, 258720, Note_on_c, 5, 72, 127
13, 259680, Note_off_c, 5, 72, 127
13, 259680, Note_on_c, 5, 77, 127
13, 260160, Note_off_c, 5, 77, 127
13, 260160, Note_on_c, 5, 84, 127
13, 261120, Note_off_c, 5, 84, 127
13, 261120, Note_on_c, 5, 56, 127
13, 261600, Note_off_c, 5, 56, 127
13, 261600, Note_on_c, 5, 68, 127
13, 262080, Note_off_c, 5, 68, 127
13, 262080, Note_on_c, 5, 75, 127
13, 262560, Note_off_c, 5, 75, 127
13, 262560, Note_on_c, 5, 80, 127
13, 263520, Note_off_c, 5, 80, 127
13, 263520, Note_on_c, 5, 87, 127
13, 264480, Note_off_c, 5, 87, 127
13, 264480, Note_on_c, 5, 86, 127
13, 264960, Note_off_c, 5, 86, 127
13, 264960, Note_on_c, 5, 56, 127
13, 265440, Note_off_c, 5, 56, 127
13, 265440, Note_on_c, 5, 68, 127
13, 265920, Note_off_c, 5, 68, 127
13, 265920, Note_on_c, 5, 75, 127
13, 266400, Note_off_c, 5, 75, 127
13, 266400, Note_on_c, 5, 82, 127
13, 266880, Note_off_c, 5, 82, 127
13, 266880, Note_on_c, 5, 87, 127
13, 267360, Note_off_c, 5, 87, 127
13, 267360, Note_on_c, 5, 82, 127
13, 267840, Note_off_c, 5, 82, 127
13, 267840, Note_on_c, 5, 75, 127
13, 268320, Note_off_c, 5, 75, 127
13, 268320, Note_on_c, 5, 82, 127
13, 268800, Note_off_c, 5, 82, 127
13, 268800, Note_on_c, 5, 53, 127
13, 269280, Note_off_c, 5, 53, 127
13, 269280, Note_on_c, 5, 65, 127
13, 269760, Note_off_c, 5, 65, 127
13, 269760, Note_on_c, 5, 70, 127
13, 270240, Note_off_c, 5, 70, 127
13, 270240, Note_on_c, 5, 75, 127
13, 270720, Note_off_c, 5, 75, 127
13, 270720, Note_on_c, 5, 84, 127
13, 271680, Note_off_c, 5, 84, 127
13, 271680, Note_on_c, 5, 80, 127
13, 272640, Note_off_c, 5, 80, 127
13, 273120, Note_on_c, 5, 53, 127
13, 273600, Note_off_c, 5, 53, 127
13, 273600, Note_on_c, 5, 65, 127
13, 274080, Note_off_c, 5, 65, 127
13, 274080, Note_on_c, 5, 70, 127
13, 275040, Note_off_c, 5, 70, 127
13, 275040, Note_on_c, 5, 84, 127
13, 275520, Note_off_c, 5, 84, 127
13, 275520, Note_on_c, 5, 80, 127
13, 276480, Note_off_c, 5, 80, 127
13, 276480, Note_on_c, 5, 68, 127
13, 276720, Note_off_c, 5, 68, 127
13, 276720, Note_on_c, 5, 74, 127
13, 276960, Note_off_c, 5, 74, 127
13, 276960, Note_on_c, 5, 79, 127
13, 277200, Note_off_c, 5, 79, 127
13, 277200, Note_on_c, 5, 68, 127
13, 277440, Note_off_c, 5, 68, 127
13, 277440, Note_on_c, 5, 84, 127
13, 277680, Note_off_c, 5, 84, 127
13, 277680, Note_on_c, 5, 86, 127
13, 277920, Note_off_c, 5, 86, 127
13, 277920, Note_on_c, 5, 91, 127
13, 278160, Note_off_c, 5, 91, 127
13, 278160, Note_on_c, 5, 80, 127
13, 278400, Note_off_c, 5, 80, 127
13, 278400, Note_on_c, 5, 96, 127
13, 278640, Note_off_c, 5, 96, 127
13, 278640, Note_on_c, 5, 80, 127
13, 278880, Note_off_c, 5, 80, 127
13, 278880, Note_on_c, 5, 91, 127
13, 279120, Note_off_c, 5, 91, 127
13, 279120, Note_on_c, 5, 86, 127
13, 279360, Note_off_c, 5, 86, 127
13, 279360, Note_on_c, 5, 84, 127
13, 279600, Note_off_c, 5, 84, 127
13, 279600, Note_on_c, 5, 68, 127
13, 279840, Note_off_c, 5, 68, 127
13, 279840, Note_on_c, 5, 79, 127
13, 280080, Note_off_c, 5, 79, 127
13, 280080, Note_on_c, 5, 74, 127
13, 280320, Note_off_c, 5, 74, 127
13, 280320, Note_on_c, 5, 68, 127
13, 280560, Note_off_c, 5, 68, 127
13, 280560, Note_on_c, 5, 74, 127
13, 280800, Note_off_c, 5, 74, 127
13, 280800, Note_on_c, 5, 79, 127
13, 281040, Note_off_c, 5, 79, 127
13, 281040, Note_on_c, 5, 68, 127
13, 281280, Note_off_c, 5, 68, 127
13, 281280, Note_on_c, 5, 84, 127
13, 281520, Note_off_c, 5, 84, 127
13, 281520, Note_on_c, 5, 86, 127
13, 281760, Note_off_c, 5, 86, 127
13, 281760, Note_on_c, 5, 91, 127
13, 282000, Note_off_c, 5, 91, 127
13, 282000, Note_on_c, 5, 80, 127
13, 282240, Note_off_c, 5, 80, 127
13, 282240, Note_on_c, 5, 96, 127
13, 282480, Note_off_c, 5, 96, 127
13, 282480, Note_on_c, 5, 80, 127
13, 282720, Note_off_c, 5, 80, 127
13, 282720, Note_on_c, 5, 91, 127
13, 282960, Note_off_c, 5, 91, 127
13, 282960, Note_on_c, 5, 86, 127
13, 283200, Note_off_c, 5, 86, 127
13, 283200, Note_on_c, 5, 84, 127
13, 283440, Note_off_c, 5, 84, 127
13, 283440, Note_on_c, 5, 68, 127
13, 283680, Note_off_c, 5, 68, 127
13, 283680, Note_on_c, 5, 79, 127
13, 283920, Note_off_c, 5, 79, 127
13, 283920, Note_on_c, 5, 74, 127
13, 284160, Note_off_c, 5, 74, 127
13, 284160, Note_on_c, 5, 65, 127
13, 284400, Note_off_c, 5, 65, 127
13, 284400, Note_on_c, 5, 72, 127
13, 284640, Note_off_c, 5, 72, 127
13, 284640, Note_on_c, 5, 74, 127
13, 284880, Note_off_c, 5, 74, 127
13, 284880, Note_on_c, 5, 75, 127
13, 285120, Note_off_c, 5, 75, 127
13, 285120, Note_on_c, 5, 65, 127
13, 285360, Note_off_c, 5, 65, 127
13, 285360, Note_on_c, 5, 84, 127
13, 285600, Note_off_c, 5, 84, 127
13, 285600, Note_on_c, 5, 86, 127
13, 285840, Note_off_c, 5, 86, 127
13, 285840, Note_on_c, 5, 87, 127
13, 286080, Note_off_c, 5, 87, 127
13, 286080, Note_on_c, 5, 77, 127
13, 286320, Note_off_c, 5, 77, 127
13, 286320, Note_on_c, 5, 96, 127
13, 286560, Note_off_c, 5, 96, 127
13, 286560, Note_on_c, 5, 77, 127
13, 286800, Note_off_c, 5, 77, 127
13, 286800, Note_on_c, 5, 87, 127
13, 287040, Note_off_c, 5, 87, 127
13, 287040, Note_on_c, 5, 86, 127
13, 287280, Note_off_c, 5, 86, 127
13, 287280, Note_on_c, 5, 84, 127
13, 287520, Note_off_c, 5, 84, 127
13, 287520, Note_on_c, 5, 65, 127
13, 287760, Note_off_c, 5, 65, 127
13, 287760, Note_on_c, 5, 75, 127
13, 288000, Note_off_c, 5, 75, 127
13, 288000, Note_on_c, 5, 74, 127
13, 288240, Note_off_c, 5, 74, 127
13, 288240, Note_on_c, 5, 72, 127
13, 288480, Note_off_c, 5, 72, 127
13, 288480, Note_on_c, 5, 65, 127
13, 288720, Note_off_c, 5, 65, 127
13, 288720, Note_on_c, 5, 72, 127
13, 288960, Note_off_c, 5, 72, 127
13, 288960, Note_on_c, 5, 74, 127
13, 289200, Note_off_c, 5, 74, 127
13, 289200, Note_on_c, 5, 75, 127
13, 289440, Note_off_c, 5, 75, 127
13, 289440, Note_on_c, 5, 65, 127
13, 289680, Note_off_c, 5, 65, 127
13, 289680, Note_on_c, 5, 84, 127
13, 289920, Note_off_c, 5, 84, 127
13, 289920, Note_on_c, 5, 86, 127
13, 290160, Note_off_c, 5, 86, 127
13, 290160, Note_on_c, 5, 87, 127
13, 290400, Note_off_c, 5, 87, 127
13, 290400, Note_on_c, 5, 77, 127
13, 290640, Note_off_c, 5, 77, 127
13, 290640, Note_on_c, 5, 96, 127
13, 290880, Note_off_c, 5, 96, 127
13, 290880, Note_on_c, 5, 77, 127
13, 291120, Note_off_c, 5, 77, 127
13, 291120, Note_on_c, 5, 87, 127
13, 291360, Note_off_c, 5, 87, 127
13, 291360, Note_on_c, 5, 86, 127
13, 291600, Note_off_c, 5, 86, 127
13, 291600, Note_on_c, 5, 84, 127
13, 291840, Note_off_c, 5, 84, 127
13, 291840, Note_on_c, 5, 68, 127
13, 292080, Note_off_c, 5, 68, 127
13, 292080, Note_on_c, 5, 74, 127
13, 292320, Note_off_c, 5, 74, 127
13, 292320, Note_on_c, 5, 79, 127
13, 292560, Note_off_c, 5, 79, 127
13, 292560, Note_on_c, 5, 68, 127
13, 292800, Note_off_c, 5, 68, 127
13, 292800, Note_on_c, 5, 84, 127
13, 293040, Note_off_c, 5, 84, 127
13, 293040, Note_on_c, 5, 86, 127
13, 293280, Note_off_c, 5, 86, 127
13, 293280, Note_on_c, 5, 91, 127
13, 293520, Note_off_c, 5, 91, 127
13, 293520, Note_on_c, 5, 80, 127
13, 293760, Note_off_c, 5, 80, 127
13, 293760, Note_on_c, 5, 96, 127
13, 294000, Note_off_c, 5, 96, 127
13, 294000, Note_on_c, 5, 80, 127
13, 294240, Note_off_c, 5, 80, 127
13, 294240, Note_on_c, 5, 91, 127
13, 294480, Note_off_c, 5, 91, 127
13, 294480, Note_on_c, 5, 86, 127
13, 294720, Note_off_c, 5, 86, 127
13, 294720, Note_on_c, 5, 84, 127
13, 294960, Note_off_c, 5, 84, 127
13, 294960, Note_on_c, 5, 68, 127
13, 295200, Note_off_c, 5, 68, 127
13, 295200, Note_on_c, 5, 79, 127
13, 295440, Note_off_c, 5, 79, 127
13, 295440, Note_on_c, 5, 74, 127
13, 295680, Note_off_c, 5, 74, 127
13, 295680, Note_on_c, 5, 68, 127
13, 295920, Note_off_c, 5, 68, 127
13, 295920, Note_on_c, 5, 74, 127
13, 296160, Note_off_c, 5, 74, 127
13, 296160, Note_on_c, 5, 79, 127
13, 296400, Note_off_c, 5, 79, 127
13, 296400, Note_on_c, 5, 68, 127
13, 296640, Note_off_c, 5, 68, 127
13, 296640, Note_on_c, 5, 84, 127
13, 296880, Note_off_c, 5, 84, 127
13, 296880, Note_on_c, 5, 86, 127
13, 297120, Note_off_c, 5, 86, 127
13, 297120, Note_on_c, 5, 91, 127
13, 297360, Note_off_c, 5, 91, 127
13, 297360, Note_on_c, 5, 80, 127
13, 297600, Note_off_c, 5, 80, 127
13, 297600, Note_on_c, 5, 96, 127
13, 297840, Note_off_c, 5, 96, 127
13, 297840, Note_on_c, 5, 80, 127
13, 298080, Note_off_c, 5, 80, 127
13, 298080, Note_on_c, 5, 91, 127
13, 298320, Note_off_c, 5, 91, 127
13, 298320, Note_on_c, 5, 86, 127
13, 298560, Note_off_c, 5, 86, 127
13, 298560, Note_on_c, 5, 84, 127
13, 298800, Note_off_c, 5, 84, 127
13, 298800, Note_on_c, 5, 68, 127
13, 299040, Note_off_c, 5, 68, 127
13, 299040, Note_on_c, 5, 79, 127
13, 299280, Note_off_c, 5, 79, 127
13, 299280, Note_on_c, 5, 74, 127
13, 299520, Note_off_c, 5, 74, 127
13, 299520, Note_on_c, 5, 65, 127
13, 299760, Note_off_c, 5, 65, 127
13, 299760, Note_on_c, 5, 72, 127
13, 300000, Note_off_c, 5, 72, 127
13, 300000, Note_on_c, 5, 74, 127
13, 300240, Note_off_c, 5, 74, 127
13, 300240, Note_on_c, 5, 75, 127
13, 300480, Note_off_c, 5, 75, 127
13, 300480, Note_on_c, 5, 65, 127
13, 300720, Note_off_c, 5, 65, 127
13, 300720, Note_on_c, 5, 84, 127
13, 300960, Note_off_c, 5, 84, 127
13, 300960, Note_on_c, 5, 86, 127
13, 301200, Note_off_c, 5, 86, 127
13, 301200, Note_on_c, 5, 87, 127
13, 301440, Note_off_c, 5, 87, 127
13, 301440, Note_on_c, 5, 77, 127
13, 301680, Note_off_c, 5, 77, 127
13, 301680, Note_on_c, 5, 96, 127
13, 301920, Note_off_c, 5, 96, 127
13, 301920, Note_on_c, 5, 77, 127
13, 302160, Note_off_c, 5, 77, 127
13, 302160, Note_on_c, 5, 87, 127
13, 302400, Note_off_c, 5, 87, 127
13, 302400, Note_on_c, 5, 86, 127
13, 302640, Note_off_c, 5, 86, 127
13, 302640, Note_on_c, 5, 84, 127
13, 302880, Note_off_c, 5, 84, 127
13, 302880, Note_on_c, 5, 65, 127
13, 303120, Note_off_c, 5, 65, 127
13, 303120, Note_on_c, 5, 75, 127
13, 303360, Note_off_c, 5, 75, 127
13, 303360, Note_on_c, 5, 74, 127
13, 303600, Note_off_c, 5, 74, 127
13, 303600, Note_on_c, 5, 72, 127
13, 303840, Note_off_c, 5, 72, 127
13, 303840, Note_on_c, 5, 65, 127
13, 304080, Note_off_c, 5, 65, 127
13, 304080, Note_on_c, 5, 72, 127
13, 304320, Note_off_c, 5, 72, 127
13, 304320, Note_on_c, 5, 74, 127
13, 304560, Note_off_c, 5, 74, 127
13, 304560, Note_on_c, 5, 75, 127
13, 304800, Note_off_c, 5, 75, 127
13, 304800, Note_on_c, 5, 65, 127
13, 305040, Note_off_c, 5, 65, 127
13, 305040, Note_on_c, 5, 84, 127
13, 305280, Note_off_c, 5, 84, 127
13, 305280, Note_on_c, 5, 86, 127
13, 305520, Note_off_c, 5, 86, 127
13, 305520, Note_on_c, 5, 87, 127
13, 305760, Note_off_c, 5, 87, 127
13, 305760, Note_on_c, 5, 77, 127
13, 306000, Note_off_c, 5, 77, 127
13, 306000, Note_on_c, 5, 96, 127
13, 306240, Note_off_c, 5, 96, 127
13, 306240, Note_on_c, 5, 77, 127
13, 306480, Note_off_c, 5, 77, 127
13, 306480, Note_on_c, 5, 87, 127
13, 306720, Note_off_c, 5, 87, 127
13, 306720, Note_on_c, 5, 86, 127
13, 306960, Note_off_c, 5, 86, 127
13, 306960, Note_on_c, 5, 84, 127
13, 307200, Note_off_c, 5, 84, 127
13, 307200, Note_on_c, 5, 68, 127
13, 307440, Note_off_c, 5, 68, 127
13, 307440, Note_on_c, 5, 74, 127
13, 307680, Note_off_c, 5, 74, 127
13, 307680, Note_on_c, 5, 79, 127
13, 307920, Note_off_c, 5, 79, 127
13, 307920, Note_on_c, 5, 68, 127
13, 308160, Note_off_c, 5, 68, 127
13, 308160, Note_on_c, 5, 84, 127
13, 308400, Note_off_c, 5, 84, 127
13, 308400, Note_on_c, 5, 86, 127
13, 308640, Note_off_c, 5, 86, 127
13, 308640, Note_on_c, 5, 91, 127
13, 308880, Note_off_c, 5, 91, 127
13, 308880, Note_on_c, 5, 80, 127
13, 309120, Note_off_c, 5, 80, 127
13, 309120, Note_on_c, 5, 96, 127
13, 309360, Note_off_c, 5, 96, 127
13, 309360, Note_on_c, 5, 80, 127
13, 309600, Note_off_c, 5, 80, 127
13, 309600, Note_on_c, 5, 91, 127
13, 309840, Note_off_c, 5, 91, 127
13, 309840, Note_on_c, 5, 86, 127
13, 310080, Note_off_c, 5, 86, 127
13, 310080, Note_on_c, 5, 84, 127
13, 310320, Note_off_c, 5, 84, 127
13, 310320, Note_on_c, 5, 68, 127
13, 310560, Note_off_c, 5, 68, 127
13, 310560, Note_on_c, 5, 79, 127
13, 310800, Note_off_c, 5, 79, 127
13, 310800, Note_on_c, 5, 74, 127
13, 311040, Note_off_c, 5, 74, 127
13, 311040, Note_on_c, 5, 68, 127
13, 311280, Note_off_c, 5, 68, 127
13, 311280, Note_on_c, 5, 74, 127
13, 311520, Note_off_c, 5, 74, 127
13, 311520, Note_on_c, 5, 79, 127
13, 311760, Note_off_c, 5, 79, 127
13, 311760, Note_on_c, 5, 68, 127
13, 312000, Note_off_c, 5, 68, 127
13, 312000, Note_on_c, 5, 84, 127
13, 312240, Note_off_c, 5, 84, 127
13, 312240, Note_on_c, 5, 86, 127
13, 312480, Note_off_c, 5, 86, 127
13, 312480, Note_on_c, 5, 91, 127
13, 312720, Note_off_c, 5, 91, 127
13, 312720, Note_on_c, 5, 80, 127
13, 312960, Note_off_c, 5, 80, 127
13, 312960, Note_on_c, 5, 96, 127
13, 313200, Note_off_c, 5, 96, 127
13, 313200, Note_on_c, 5, 80, 127
13, 313440, Note_off_c, 5, 80, 127
13, 313440, Note_on_c, 5, 91, 127
13, 313680, Note_off_c, 5, 91, 127
13, 313680, Note_on_c, 5, 86, 127
13, 313920, Note_off_c, 5, 86, 127
13, 313920, Note_on_c, 5, 84, 127
13, 314160, Note_off_c, 5, 84, 127
13, 314160, Note_on_c, 5, 68, 127
13, 314400, Note_off_c, 5, 68, 127
13, 314400, Note_on_c, 5, 79, 127
13, 314640, Note_off_c, 5, 79, 127
13, 314640, Note_on_c, 5, 74, 127
13, 314880, Note_off_c, 5, 74, 127
13, 314880, Note_on_c, 5, 65, 127
13, 315120, Note_off_c, 5, 65, 127
13, 315120, Note_on_c, 5, 72, 127
13, 315360, Note_off_c, 5, 72, 127
13, 315360, Note_on_c, 5, 74, 127
13, 315600, Note_off_c, 5, 74, 127
13, 315600, Note_on_c, 5, 75, 127
13, 315840, Note_off_c, 5, 75, 127
13, 315840, Note_on_c, 5, 65, 127
13, 316080, Note_off_c, 5, 65, 127
13, 316080, Note_on_c, 5, 84, 127
13, 316320, Note_off_c, 5, 84, 127
13, 316320, Note_on_c, 5, 86, 127
13, 316560, Note_off_c, 5, 86, 127
13, 316560, Note_on_c, 5, 87, 127
13, 316800, Note_off_c, 5, 87, 127
13, 316800, Note_on_c, 5, 77, 127
13, 317040, Note_off_c, 5, 77, 127
13, 317040, Note_on_c, 5, 96, 127
13, 317280, Note_off_c, 5, 96, 127
13, 317280, Note_on_c, 5, 77, 127
13, 317520, Note_off_c, 5, 77, 127
13, 317520, Note_on_c, 5, 87, 127
13, 317760, Note_off_c, 5, 87, 127
13, 317760, Note_on_c, 5, 86, 127
13, 318000, Note_off_c, 5, 86, 127
13, 318000, Note_on_c, 5, 84, 127
13, 318240, Note_off_c, 5, 84, 127
13, 318240, Note_on_c, 5, 65, 127
13, 318480, Note_off_c, 5, 65, 127
13, 318480, Note_on_c, 5, 75, 127
13, 318720, Note_off_c, 5, 75, 127
13, 318720, Note_on_c, 5, 74, 127
13, 318960, Note_off_c, 5, 74, 127
13, 318960, Note_on_c, 5, 72, 127
13, 319200, Note_off_c, 5, 72, 127
13, 319200, Note_on_c, 5, 65, 127
13, 319440, Note_off_c, 5, 65, 127
13, 319440, Note_on_c, 5, 72, 127
13, 319680, Note_off_c, 5, 72, 127
13, 319680, Note_on_c, 5, 74, 127
13, 319920, Note_off_c, 5, 74, 127
13, 319920, Note_on_c, 5, 75, 127
13, 320160, Note_off_c, 5, 75, 127
13, 320160, Note_on_c, 5, 65, 127
13, 320400, Note_off_c, 5, 65, 127
13, 320400, Note_on_c, 5, 84, 127
13, 320640, Note_off_c, 5, 84, 127
13, 320640, Note_on_c, 5, 86, 127
13, 320880, Note_off_c, 5, 86, 127
13, 320880, Note_on_c, 5, 87, 127
13, 321120, Note_off_c, 5, 87, 127
13, 321120, Note_on_c, 5, 77, 127
13, 321360, Note_off_c, 5, 77, 127
13, 321360, Note_on_c, 5, 96, 127
13, 321600, Note_off_c, 5, 96, 127
13, 321600, Note_on_c, 5, 77, 127
13, 321840, Note_off_c, 5, 77, 127
13, 321840, Note_on_c, 5, 87, 127
13, 322080, Note_off_c, 5, 87, 127
13, 322080, Note_on_c, 5, 86, 127
13, 322320, Note_off_c, 5, 86, 127
13, 322320, Note_on_c, 5, 84, 127
13, 322560, Note_off_c, 5, 84, 127
13, 322560, Note_on_c, 5, 68, 127
13, 322800, Note_off_c, 5, 68, 127
13, 322800, Note_on_c, 5, 74, 127
13, 323040, Note_off_c, 5, 74, 127
13, 323040, Note_on_c, 5, 79, 127
13, 323280, Note_off_c, 5, 79, 127
13, 323280, Note_on_c, 5, 68, 127
13, 323520, Note_off_c, 5, 68, 127
13, 323520, Note_on_c, 5, 84, 127
13, 323760, Note_off_c, 5, 84, 127
13, 323760, Note_on_c, 5, 86, 127
13, 324000, Note_off_c, 5, 86, 127
13, 324000, Note_on_c, 5, 91, 127
13, 324240, Note_off_c, 5, 91, 127
13, 324240, Note_on_c, 5, 80, 127
13, 324480, Note_off_c, 5, 80, 127
13, 324480, Note_on_c, 5, 96, 127
13, 324720, Note_off_c, 5, 96, 127
13, 324720, Note_on_c, 5, 80, 127
13, 324960, Note_off_c, 5, 80, 127
13, 324960, Note_on_c, 5, 91, 127
13, 325200, Note_off_c, 5, 91, 127
13, 325200, Note_on_c, 5, 86, 127
13, 325440, Note_off_c, 5, 86, 127
13, 325440, Note_on_c, 5, 84, 127
13, 325680, Note_off_c, 5, 84, 127
13, 325680, Note_on_c, 5, 68, 127
13, 325920, Note_off_c, 5, 68, 127
13, 325920, Note_on_c, 5, 79, 127
13, 326160, Note_off_c, 5, 79, 127
13, 326160, Note_on_c, 5, 74, 127
13, 326400, Note_off_c, 5, 74, 127
13, 326400, Note_on_c, 5, 68, 127
13, 326640, Note_off_c, 5, 68, 127
13, 326640, Note_on_c, 5, 74, 127
13, 326880, Note_off_c, 5, 74, 127
13, 326880, Note_on_c, 5, 79, 127
13, 327120, Note_off_c, 5, 79, 127
13, 327120, Note_on_c, 5, 68, 127
13, 327360, Note_off_c, 5, 68, 127
13, 327360, Note_on_c, 5, 84, 127
13, 327600, Note_off_c, 5, 84, 127
13, 327600, Note_on_c, 5, 86, 127
13, 327840, Note_off_c, 5, 86, 127
13, 327840, Note_on_c, 5, 91, 127
13, 328080, Note_off_c, 5, 91, 127
13, 328080, Note_on_c, 5, 80, 127
13, 328320, Note_off_c, 5, 80, 127
13, 328320, Note_on_c, 5, 96, 127
13, 328560, Note_off_c, 5, 96, 127
13, 328560, Note_on_c, 5, 80, 127
13, 328800, Note_off_c, 5, 80, 127
13, 328800, Note_on_c, 5, 91, 127
13, 329040, Note_off_c, 5, 91, 127
13, 329040, Note_on_c, 5, 86, 127
13, 329280, Note_off_c, 5, 86, 127
13, 329280, Note_on_c, 5, 84, 127
13, 329520, Note_off_c, 5, 84, 127
13, 329520, Note_on_c, 5, 68, 127
13, 329760, Note_off_c, 5, 68, 127
13, 329760, Note_on_c, 5, 79, 127
13, 330000, Note_off_c, 5, 79, 127
13, 330000, Note_on_c, 5, 74, 127
13, 330240, Note_off_c, 5, 74, 127
13, 330240, Note_on_c, 5, 65, 127
13, 330480, Note_off_c, 5, 65, 127
13, 330480, Note_on_c, 5, 72, 127
13, 330720, Note_off_c, 5, 72, 127
13, 330720, Note_on_c, 5, 74, 127
13, 330960, Note_off_c, 5, 74, 127
13, 330960, Note_on_c, 5, 75, 127
13, 331200, Note_off_c, 5, 75, 127
13, 331200, Note_on_c, 5, 65, 127
13, 331440, Note_off_c, 5, 65, 127
13, 331440, Note_on_c, 5, 84, 127
13, 331680, Note_off_c, 5, 84, 127
13, 331680, Note_on_c, 5, 86, 127
13, 331920, Note_off_c, 5, 86, 127
13, 331920, Note_on_c, 5, 87, 127
13, 332160, Note_off_c, 5, 87, 127
13, 332160, Note_on_c, 5, 77, 127
13, 332400, Note_off_c, 5, 77, 127
13, 332400, Note_on_c, 5, 96, 127
13, 332640, Note_off_c, 5, 96, 127
13, 332640, Note_on_c, 5, 77, 127
13, 332880, Note_off_c, 5, 77, 127
13, 332880, Note_on_c, 5, 87, 127
13, 333120, Note_off_c, 5, 87, 127
13, 333120, Note_on_c, 5, 86, 127
13, 333360, Note_off_c, 5, 86, 127
13, 333360, Note_on_c, 5, 84, 127
13, 333600, Note_off_c, 5, 84, 127
13, 333600, Note_on_c, 5, 65, 127
13, 333840, Note_off_c, 5, 65, 127
13, 333840, Note_on_c, 5, 75, 127
13, 334080, Note_off_c, 5, 75, 127
13, 334080, Note_on_c, 5, 74, 127
13, 334320, Note_off_c, 5, 74, 127
13, 334320, Note_on_c, 5, 72, 127
13, 334560, Note_off_c, 5, 72, 127
13, 334560, Note_on_c, 5, 65, 127
13, 334800, Note_off_c, 5, 65, 127
13, 334800, Note_on_c, 5, 72, 127
13, 335040, Note_off_c, 5, 72, 127
13, 335040, Note_on_c, 5, 74, 127
13, 335280, Note_off_c, 5, 74, 127
13, 335280, Note_on_c, 5, 75, 127
13, 335520, Note_off_c, 5, 75, 127
13, 335520, Note_on_c, 5, 65, 127
13, 335760, Note_off_c, 5, 65, 127
13, 335760, Note_on_c, 5, 84, 127
13, 336000, Note_off_c, 5, 84, 127
13, 336000, Note_on_c, 5, 86, 127
13, 336240, Note_off_c, 5, 86, 127
13, 336240, Note_on_c, 5, 87, 127
13, 336480, Note_off_c, 5, 87, 127
13, 336480, Note_on_c, 5, 77, 127
13, 336720, Note_off_c, 5, 77, 127
13, 336720, Note_on_c, 5, 96, 127
13, 336960, Note_off_c, 5, 96, 127
13, 336960, Note_on_c, 5, 77, 127
13, 337200, Note_off_c, 5, 77, 127
13, 337200, Note_on_c, 5, 87, 127
13, 337440, Note_off_c, 5, 87, 127
13, 337440, Note_on_c, 5, 86, 127
13, 337680, Note_off_c, 5, 86, 127
13, 337680, Note_on_c, 5, 84, 127
13, 337920, Note_off_c, 5, 84, 127
13, 337920, Note_on_c, 5, 68, 127
13, 338160, Note_off_c, 5, 68, 127
13, 338160, Note_on_c, 5, 74, 127
13, 338400, Note_off_c, 5, 74, 127
13, 338400, Note_on_c, 5, 79, 127
13, 338640, Note_off_c, 5, 79, 127
13, 338640, Note_on_c, 5, 68, 127
13, 338880, Note_off_c, 5, 68, 127
13, 338880, Note_on_c, 5, 84, 127
13, 339120, Note_off_c, 5, 84, 127
13, 339120, Note_on_c, 5, 86, 127
13, 339360, Note_off_c, 5, 86, 127
13, 339360, Note_on_c, 5, 91, 127
13, 339600, Note_off_c, 5, 91, 127
13, 339600, Note_on_c, 5, 80, 127
13, 339840, Note_off_c, 5, 80, 127
13, 339840, Note_on_c, 5, 96, 127
13, 340080, Note_off_c, 5, 96, 127
13, 340080, Note_on_c, 5, 80, 127
13, 340320, Note_off_c, 5, 80, 127
13, 340320, Note_on_c, 5, 91, 127
13, 340560, Note_off_c, 5, 91, 127
13, 340560, Note_on_c, 5, 86, 127
13, 340800, Note_off_c, 5, 86, 127
13, 340800, Note_on_c, 5, 84, 127
13, 341040, Note_off_c, 5, 84, 127
13, 341040, Note_on_c, 5, 68, 127
13, 341280, Note_off_c, 5, 68, 127
13, 341280, Note_on_c, 5, 79, 127
13, 341520, Note_off_c, 5, 79, 127
13, 341520, Note_on_c, 5, 74, 127
13, 341760, Note_off_c, 5, 74, 127
13, 341760, Note_on_c, 5, 68, 127
13, 342000, Note_off_c, 5, 68, 127
13, 342000, Note_on_c, 5, 74, 127
13, 342240, Note_off_c, 5, 74, 127
13, 342240, Note_on_c, 5, 79, 127
13, 342480, Note_off_c, 5, 79, 127
13, 342480, Note_on_c, 5, 68, 127
13, 342720, Note_off_c, 5, 68, 127
13, 342720, Note_on_c, 5, 84, 127
13, 342960, Note_off_c, 5, 84, 127
13, 342960, Note_on_c, 5, 86, 127
13, 343200, Note_off_c, 5, 86, 127
13, 343200, Note_on_c, 5, 91, 127
13, 343440, Note_off_c, 5, 91, 127
13, 343440, Note_on_c, 5, 80, 127
13, 343680, Note_off_c, 5, 80, 127
13, 343680, Note_on_c, 5, 96, 127
13, 343920, Note_off_c, 5, 96, 127
13, 343920, Note_on_c, 5, 80, 127
13, 344160, Note_off_c, 5, 80, 127
13, 344160, Note_on_c, 5, 91, 127
13, 344400, Note_off_c, 5, 91, 127
13, 344400, Note_on_c, 5, 86, 127
13, 344640, Note_off_c, 5, 86, 127
13, 344640, Note_on_c, 5, 84, 127
13, 344880, Note_off_c, 5, 84, 127
13, 344880, Note_on_c, 5, 68, 127
13, 345120, Note_off_c, 5, 68, 127
13, 345120, Note_on_c, 5, 79, 127
13, 345360, Note_off_c, 5, 79, 127
13, 345360, Note_on_c, 5, 74, 127
13, 345600, Note_off_c, 5, 74, 127
13, 345600, Note_on_c, 5, 65, 127
13, 345840, Note_off_c, 5, 65, 127
13, 345840, Note_on_c, 5, 72, 127
13, 346080, Note_off_c, 5, 72, 127
13, 346080, Note_on_c, 5, 74, 127
13, 346320, Note_off_c, 5, 74, 127
13, 346320, Note_on_c, 5, 75, 127
13, 346560, Note_off_c, 5, 75, 127
13, 346560, Note_on_c, 5, 65, 127
13, 346800, Note_off_c, 5, 65, 127
13, 346800, Note_on_c, 5, 84, 127
13, 347040, Note_off_c, 5, 84, 127
13, 347040, Note_on_c, 5, 86, 127
13, 347280, Note_off_c, 5, 86, 127
13, 347280, Note_on_c, 5, 87, 127
13, 347520, Note_off_c, 5, 87, 127
13, 347520, Note_on_c, 5, 77, 127
13, 347760, Note_off_c, 5, 77, 127
13, 347760, Note_on_c, 5, 96, 127
13, 348000, Note_off_c, 5, 96, 127
13, 348000, Note_on_c, 5, 77, 127
13, 348240, Note_off_c, 5, 77, 127
13, 348240, Note_on_c, 5, 87, 127
13, 348480, Note_off_c, 5, 87, 127
13, 348480, Note_on_c, 5, 86, 127
13, 348720, Note_off_c, 5, 86, 127
13, 348720, Note_on_c, 5, 84, 127
13, 348960, Note_off_c, 5, 84, 127
13, 348960, Note_on_c, 5, 65, 127
13, 349200, Note_off_c, 5, 65, 127
13, 349200, Note_on_c, 5, 75, 127
13, 349440, Note_off_c, 5, 75, 127
13, 349440, Note_on_c, 5, 74, 127
13, 349680, Note_off_c, 5, 74, 127
13, 349680, Note_on_c, 5, 72, 127
13, 349920, Note_off_c, 5, 72, 127
13, 349920, Note_on_c, 5, 65, 127
13, 350160, Note_off_c, 5, 65, 127
13, 350160, Note_on_c, 5, 72, 127
13, 350400, Note_off_c, 5, 72, 127
13, 350400, Note_on_c, 5, 74, 127
13, 350640, Note_off_c, 5, 74, 127
13, 350640, Note_on_c, 5, 75, 127
13, 350880, Note_off_c, 5, 75, 127
13, 350880, Note_on_c, 5, 65, 127
13, 351120, Note_off_c, 5, 65, 127
13, 351120, Note_on_c, 5, 84, 127
13, 351360, Note_off_c, 5, 84, 127
13, 351360, Note_on_c, 5, 86, 127
13, 351600, Note_off_c, 5, 86, 127
13, 351600, Note_on_c, 5, 87, 127
13, 351840, Note_off_c, 5, 87, 127
13, 351840, Note_on_c, 5, 77, 127
13, 352080, Note_off_c, 5, 77, 127
13, 352080, Note_on_c, 5, 96, 127
13, 352320, Note_off_c, 5, 96, 127
13, 352320, Note_on_c, 5, 77, 127
13, 352560, Note_off_c, 5, 77, 127
13, 352560, Note_on_c, 5, 87, 127
13, 352800, Note_off_c, 5, 87, 127
13, 352800, Note_on_c, 5, 86, 127
13, 353040, Note_off_c, 5, 86, 127
13, 353040, Note_on_c, 5, 84, 127
13, 353280, Note_off_c, 5, 84, 127
13, 353280, Note_on_c, 5, 68, 127
13, 353520, Note_off_c, 5, 68, 127
13, 353520, Note_on_c, 5, 74, 127
13, 353760, Note_off_c, 5, 74, 127
13, 353760, Note_on_c, 5, 79, 127
13, 354000, Note_off_c, 5, 79, 127
13, 354000, Note_on_c, 5, 68, 127
13, 354240, Note_off_c, 5, 68, 127
13, 354240, Note_on_c, 5, 84, 127
13, 354480, Note_off_c, 5, 84, 127
13, 354480, Note_on_c, 5, 86, 127
13, 354720, Note_off_c, 5, 86, 127
13, 354720, Note_on_c, 5, 91, 127
13, 354960, Note_off_c, 5, 91, 127
13, 354960, Note_on_c, 5, 80, 127
13, 355200, Note_off_c, 5, 80, 127
13, 355200, Note_on_c, 5, 96, 127
13, 355440, Note_off_c, 5, 96, 127
13, 355440, Note_on_c, 5, 80, 127
13, 355680, Note_off_c, 5, 80, 127
13, 355680, Note_on_c, 5, 91, 127
13, 355920, Note_off_c, 5, 91, 127
13, 355920, Note_on_c, 5, 86, 127
13, 356160, Note_off_c, 5, 86, 127
13, 356160, Note_on_c, 5, 84, 127
13, 356400, Note_off_c, 5, 84, 127
13, 356400, Note_on_c, 5, 68, 127
13, 356640, Note_off_c, 5, 68, 127
13, 356640, Note_on_c, 5, 79, 127
13, 356880, Note_off_c, 5, 79, 127
13, 356880, Note_on_c, 5, 74, 127
13, 357120, Note_off_c, 5, 74, 127
13, 357120, Note_on_c, 5, 68, 127
13, 357360, Note_off_c, 5, 68, 127
13, 357360, Note_on_c, 5, 74, 127
13, 357600, Note_off_c, 5, 74, 127
13, 357600, Note_on_c, 5, 79, 127
13, 357840, Note_off_c, 5, 79, 127
13, 357840, Note_on_c, 5, 68, 127
13, 358080, Note_off_c, 5, 68, 127
13, 358080, Note_on_c, 5, 84, 127
13, 358320, Note_off_c, 5, 84, 127
13, 358320, Note_on_c, 5, 86, 127
13, 358560, Note_off_c, 5, 86, 127
13, 358560, Note_on_c, 5, 91, 127
13, 358800, Note_off_c, 5, 91, 127
13, 358800, Note_on_c, 5, 80, 127
13, 359040, Note_off_c, 5, 80, 127
13, 359040, Note_on_c, 5, 96, 127
13, 359280, Note_off_c, 5, 96, 127
13, 359280, Note_on_c, 5, 80, 127
13, 359520, Note_off_c, 5, 80, 127
13, 359520, Note_on_c, 5, 91, 127
13, 359760, Note_off_c, 5, 91, 127
13, 359760, Note_on_c, 5, 86, 127
13, 360000, Note_off_c, 5, 86, 127
13, 360000, Note_on_c, 5, 84, 127
13, 360240, Note_off_c, 5, 84, 127
13, 360240, Note_on_c, 5, 68, 127
13, 360480, Note_off_c, 5, 68, 127
13, 360480, Note_on_c, 5, 79, 127
13, 360720, Note_off_c, 5, 79, 127
13, 360720, Note_on_c, 5, 74, 127
13, 360960, Note_off_c, 5, 74, 127
13, 360960, Note_on_c, 5, 65, 127
13, 361200, Note_off_c, 5, 65, 127
13, 361200, Note_on_c, 5, 72, 127
13, 361440, Note_off_c, 5, 72, 127
13, 361440, Note_on_c, 5, 74, 127
13, 361680, Note_off_c, 5, 74, 127
13, 361680, Note_on_c, 5, 75, 127
13, 361920, Note_off_c, 5, 75, 127
13, 361920, Note_on_c, 5, 65, 127
13, 362160, Note_off_c, 5, 65, 127
13, 362160, Note_on_c, 5, 84, 127
13, 362400, Note_off_c, 5, 84, 127
13, 362400, Note_on_c, 5, 86, 127
13, 362640, Note_off_c, 5, 86, 127
13, 362640, Note_on_c, 5, 87, 127
13, 362880, Note_off_c, 5, 87, 127
13, 362880, Note_on_c, 5, 77, 127
13, 363120, Note_off_c, 5, 77, 127
13, 363120, Note_on_c, 5, 96, 127
13, 363360, Note_off_c, 5, 96, 127
13, 363360, Note_on_c, 5, 77, 127
13, 363600, Note_off_c, 5, 77, 127
13, 363600, Note_on_c, 5, 87, 127
13, 363840, Note_off_c, 5, 87, 127
13, 363840, Note_on_c, 5, 86, 127
13, 364080, Note_off_c, 5, 86, 127
13, 364080, Note_on_c, 5, 84, 127
13, 364320, Note_off_c, 5, 84, 127
13, 364320, Note_on_c, 5, 65, 127
13, 364560, Note_off_c, 5, 65, 127
13, 364560, Note_on_c, 5, 75, 127
13, 364800, Note_off_c, 5, 75, 127
13, 364800, Note_on_c, 5, 74, 127
13, 365040, Note_off_c, 5, 74, 127
13, 365040, Note_on_c, 5, 72, 127
13, 365280, Note_off_c, 5, 72, 127
13, 365280, Note_on_c, 5, 65, 127
13, 365520, Note_off_c, 5, 65, 127
13, 365520, Note_on_c, 5, 72, 127
13, 365760, Note_off_c, 5, 72, 127
13, 365760, Note_on_c, 5, 74, 127
13, 366000, Note_off_c, 5, 74, 127
13, 366000, Note_on_c, 5, 75, 127
13, 366240, Note_off_c, 5, 75, 127
13, 366240, Note_on_c, 5, 65, 127
13, 366480, Note_off_c, 5, 65, 127
13, 366480, Note_on_c, 5, 84, 127
13, 366720, Note_off_c, 5, 84, 127
13, 366720, Note_on_c, 5, 86, 127
13, 366960, Note_off_c, 5, 86, 127
13, 366960, Note_on_c, 5, 87, 127
13, 367200, Note_off_c, 5, 87, 127
13, 367200, Note_on_c, 5, 77, 127
13, 367440, Note_off_c, 5, 77, 127
13, 367440, Note_on_c, 5, 96, 127
13, 367680, Note_off_c, 5, 96, 127
13, 367680, Note_on_c, 5, 77, 127
13, 367920, Note_off_c, 5, 77, 127
13, 367920, Note_on_c, 5, 87, 127
13, 368160, Note_off_c, 5, 87, 127
13, 368160, Note_on_c, 5, 86, 127
13, 368400, Note_off_c, 5, 86, 127
13, 368400, Note_on_c, 5, 84, 127
13, 368640, Note_off_c, 5, 84, 127
13, 368640, Note_on_c, 5, 68, 127
13, 368880, Note_off_c, 5, 68, 127
13, 368880, Note_on_c, 5, 74, 127
13, 369120, Note_off_c, 5, 74, 127
13, 369120, Note_on_c, 5, 79, 127
13, 369360, Note_off_c, 5, 79, 127
13, 369360, Note_on_c, 5, 68, 127
13, 369600, Note_off_c, 5, 68, 127
13, 369600, Note_on_c, 5, 84, 127
13, 369840, Note_off_c, 5, 84, 127
13, 369840, Note_on_c, 5, 86, 127
13, 370080, Note_off_c, 5, 86, 127
13, 370080, Note_on_c, 5, 91, 127
13, 370320, Note_off_c, 5, 91, 127
13, 370320, Note_on_c, 5, 80, 127
13, 370560, Note_off_c, 5, 80, 127
13, 370560, Note_on_c, 5, 96, 127
13, 370800, Note_off_c, 5, 96, 127
13, 370800, Note_on_c, 5, 80, 127
13, 371040, Note_off_c, 5, 80, 127
13, 371040, Note_on_c, 5, 91, 127
13, 371280, Note_off_c, 5, 91, 127
13, 371280, Note_on_c, 5, 86, 127
13, 371520, Note_off_c, 5, 86, 127
13, 371520, Note_on_c, 5, 84, 127
13, 371760, Note_off_c, 5, 84, 127
13, 371760, Note_on_c, 5, 68, 127
13, 372000, Note_off_c, 5, 68, 127
13, 372000, Note_on_c, 5, 79, 127
13, 372240, Note_off_c, 5, 79, 127
13, 372240, Note_on_c, 5, 74, 127
13, 372480, Note_off_c, 5, 74, 127
13, 372480, Note_on_c, 5, 68, 127
13, 372720, Note_off_c, 5, 68, 127
13, 372720, Note_on_c, 5, 74, 127
13, 372960, Note_off_c, 5, 74, 127
13, 372960, Note_on_c, 5, 79, 127
13, 373200, Note_off_c, 5, 79, 127
13, 373200, Note_on_c, 5, 68, 127
13, 373440, Note_off_c, 5, 68, 127
13, 373440, Note_on_c, 5, 84, 127
13, 373680, Note_off_c, 5, 84, 127
13, 373680, Note_on_c, 5, 86, 127
13, 373920, Note_off_c, 5, 86, 127
13, 373920, Note_on_c, 5, 91, 127
13, 374160, Note_off_c, 5, 91, 127
13, 374160, Note_on_c, 5, 80, 127
13, 374400, Note_off_c, 5, 80, 127
13, 374400, Note_on_c, 5, 96, 127
13, 374640, Note_off_c, 5, 96, 127
13, 374640, Note_on_c, 5, 80, 127
13, 374880, Note_off_c, 5, 80, 127
13, 374880, Note_on_c, 5, 91, 127
13, 375120, Note_off_c, 5, 91, 127
13, 375120, Note_on_c, 5, 86, 127
13, 375360, Note_off_c, 5, 86, 127
13, 375360, Note_on_c, 5, 84, 127
13, 375600, Note_off_c, 5, 84, 127
13, 375600, Note_on_c, 5, 68, 127
13, 375840, Note_off_c, 5, 68, 127
13, 375840, Note_on_c, 5, 79, 127
13, 376080, Note_off_c, 5, 79, 127
13, 376080, Note_on_c, 5, 74, 127
13, 376320, Note_off_c, 5, 74, 127
13, 376320, Note_on_c, 5, 65, 127
13, 376560, Note_off_c, 5, 65, 127
13, 376560, Note_on_c, 5, 72, 127
13, 376800, Note_off_c, 5, 72, 127
13, 376800, Note_on_c, 5, 74, 127
13, 377040, Note_off_c, 5, 74, 127
13, 377040, Note_on_c, 5, 75, 127
13, 377280, Note_off_c, 5, 75, 127
13, 377280, Note_on_c, 5, 65, 127
13, 377520, Note_off_c, 5, 65, 127
13, 377520, Note_on_c, 5, 84, 127
13, 377760, Note_off_c, 5, 84, 127
13, 377760, Note_on_c, 5, 86, 127
13, 378000, Note_off_c, 5, 86, 127
13, 378000, Note_on_c, 5, 87, 127
13, 378240, Note_off_c, 5, 87, 127
13, 378240, Note_on_c, 5, 77, 127
13, 378480, Note_off_c, 5, 77, 127
13, 378480, Note_on_c, 5, 96, 127
13, 378720, Note_off_c, 5, 96, 127
13, 378720, Note_on_c, 5, 77, 127
13, 378960, Note_off_c, 5, 77, 127
13, 378960, Note_on_c, 5, 87, 127
13, 379200, Note_off_c, 5, 87, 127
13, 379200, Note_on_c, 5, 86, 127
13, 379440, Note_off_c, 5, 86, 127
13, 379440, Note_on_c, 5, 84, 127
13, 379680, Note_off_c, 5, 84, 127
13, 379680, Note_on_c, 5, 65, 127
13, 379920, Note_off_c, 5, 65, 127
13, 379920, Note_on_c, 5, 75, 127
13, 380160, Note_off_c, 5, 75, 127
13, 380160, Note_on_c, 5, 74, 127
13, 380400, Note_off_c, 5, 74, 127
13, 380400, Note_on_c, 5, 72, 127
13, 380640, Note_off_c, 5, 72, 127
13, 380640, Note_on_c, 5, 65, 127
13, 380880, Note_off_c, 5, 65, 127
13, 380880, Note_on_c, 5, 72, 127
13, 381120, Note_off_c, 5, 72, 127
13, 381120, Note_on_c, 5, 74, 127
13, 381360, Note_off_c, 5, 74, 127
13, 381360, Note_on_c, 5, 75, 127
13, 381600, Note_off_c, 5, 75, 127
13, 381600, Note_on_c, 5, 65, 127
13, 381840, Note_off_c, 5, 65, 127
13, 381840, Note_on_c, 5, 84, 127
13, 382080, Note_off_c, 5, 84, 127
13, 382080, Note_on_c, 5, 86, 127
13, 382320, Note_off_c, 5, 86, 127
13, 382320, Note_on_c, 5, 87, 127
13, 382560, Note_off_c, 5, 87, 127
13, 382560, Note_on_c, 5, 77, 127
13, 382800, Note_off_c, 5, 77, 127
13, 382800, Note_on_c, 5, 96, 127
13, 383040, Note_off_c, 5, 96, 127
13, 383040, Note_on_c, 5, 77, 127
13, 383280, Note_off_c, 5, 77, 127
13, 383280, Note_on_c, 5, 87, 127
13, 383520, Note_off_c, 5, 87, 127
13, 383520, Note_on_c, 5, 86, 127
13, 383760, Note_off_c, 5, 86, 127
13, 383760, Note_on_c, 5, 84, 127
13, 384000, Note_off_c, 5, 84, 127
13, 384000, Note_on_c, 5, 68, 127
13, 384240, Note_off_c, 5, 68, 127
13, 384240, Note_on_c, 5, 74, 127
13, 384480, Note_off_c, 5, 74, 127
13, 384480, Note_on_c, 5, 79, 127
13, 384720, Note_off_c, 5, 79, 127
13, 384720, Note_on_c, 5, 68, 127
13, 384960, Note_off_c, 5, 68, 127
13, 384960, Note_on_c, 5, 84, 127
13, 385200, Note_off_c, 5, 84, 127
13, 385200, Note_on_c, 5, 86, 127
13, 385440, Note_off_c, 5, 86, 127
13, 385440, Note_on_c, 5, 91, 127
13, 385680, Note_off_c, 5, 91, 127
13, 385680, Note_on_c, 5, 80, 127
13, 385920, Note_off_c, 5, 80, 127
13, 385920, Note_on_c, 5, 96, 127
13, 386160, Note_off_c, 5, 96, 127
13, 386160, Note_on_c, 5, 80, 127
13, 386400, Note_off_c, 5, 80, 127
13, 386400, Note_on_c, 5, 91, 127
13, 386640, Note_off_c, 5, 91, 127
13, 386640, Note_on_c, 5, 86, 127
13, 386880, Note_off_c, 5, 86, 127
13, 386880, Note_on_c, 5, 84, 127
13, 387120, Note_off_c, 5, 84, 127
13, 387120, Note_on_c, 5, 68, 127
13, 387360, Note_off_c, 5, 68, 127
13, 387360, Note_on_c, 5, 79, 127
13, 387600, Note_off_c, 5, 79, 127
13, 387600, Note_on_c, 5, 74, 127
13, 387840, Note_off_c, 5, 74, 127
13, 387840, Note_on_c, 5, 68, 127
13, 388080, Note_off_c, 5, 68, 127
13, 388080, Note_on_c, 5, 74, 127
13, 388320, Note_off_c, 5, 74, 127
13, 388320, Note_on_c, 5, 79, 127
13, 388560, Note_off_c, 5, 79, 127
13, 388560, Note_on_c, 5, 68, 127
13, 388800, Note_off_c, 5, 68, 127
13, 388800, Note_on_c, 5, 84, 127
13, 389040, Note_off_c, 5, 84, 127
13, 389040, Note_on_c, 5, 86, 127
13, 389280, Note_off_c, 5, 86, 127
13, 389280, Note_on_c, 5, 91, 127
13, 389520, Note_off_c, 5, 91, 127
13, 389520, Note_on_c, 5, 80, 127
13, 389760, Note_off_c, 5, 80, 127
13, 389760, Note_on_c, 5, 96, 127
13, 390000, Note_off_c, 5, 96, 127
13, 390000, Note_on_c, 5, 80, 127
13, 390240, Note_off_c, 5, 80, 127
13, 390240, Note_on_c, 5, 91, 127
13, 390480, Note_off_c, 5, 91, 127
13, 390480, Note_on_c, 5, 86, 127
13, 390720, Note_off_c, 5, 86, 127
13, 390720, Note_on_c, 5, 84, 127
13, 390960, Note_off_c, 5, 84, 127
13, 390960, Note_on_c, 5, 68, 127
13, 391200, Note_off_c, 5, 68, 127
13, 391200, Note_on_c, 5, 79, 127
13, 391440, Note_off_c, 5, 79, 127
13, 391440, Note_on_c, 5, 74, 127
13, 391680, Note_off_c, 5, 74, 127
13, 391680, Note_on_c, 5, 65, 127
13, 391920, Note_off_c, 5, 65, 127
13, 391920, Note_on_c, 5, 72, 127
13, 392160, Note_off_c, 5, 72, 127
13, 392160, Note_on_c, 5, 74, 127
13, 392400, Note_off_c, 5, 74, 127
13, 392400, Note_on_c, 5, 75, 127
13, 392640, Note_off_c, 5, 75, 127
13, 392640, Note_on_c, 5, 65, 127
13, 392880, Note_off_c, 5, 65, 127
13, 392880, Note_on_c, 5, 84, 127
13, 393120, Note_off_c, 5, 84, 127
13, 393120, Note_on_c, 5, 86, 127
13, 393360, Note_off_c, 5, 86, 127
13, 393360, Note_on_c, 5, 87, 127
13, 393600, Note_off_c, 5, 87, 127
13, 393600, Note_on_c, 5, 77, 127
13, 393840, Note_off_c, 5, 77, 127
13, 393840, Note_on_c, 5, 96, 127
13, 394080, Note_off_c, 5, 96, 127
13, 394080, Note_on_c, 5, 77, 127
13, 394320, Note_off_c, 5, 77, 127
13, 394320, Note_on_c, 5, 87, 127
13, 394560, Note_off_c, 5, 87, 127
13, 394560, Note_on_c, 5, 86, 127
13, 394800, Note_off_c, 5, 86, 127
13, 394800, Note_on_c, 5, 84, 127
13, 395040, Note_off_c, 5, 84, 127
13, 395040, Note_on_c, 5, 65, 127
13, 395280, Note_off_c, 5, 65, 127
13, 395280, Note_on_c, 5, 75, 127
13, 395520, Note_off_c, 5, 75, 127
13, 395520, Note_on_c, 5, 74, 127
13, 395760, Note_off_c, 5, 74, 127
13, 395760, Note_on_c, 5, 72, 127
13, 396000, Note_off_c, 5, 72, 127
13, 396000, Note_on_c, 5, 65, 127
13, 396240, Note_off_c, 5, 65, 127
13, 396240, Note_on_c, 5, 72, 127
13, 396480, Note_off_c, 5, 72, 127
13, 396480, Note_on_c, 5, 74, 127
13, 396720, Note_off_c, 5, 74, 127
13, 396720, Note_on_c, 5, 75, 127
13, 396960, Note_off_c, 5, 75, 127
13, 396960, Note_on_c, 5, 65, 127
13, 397200, Note_off_c, 5, 65, 127
13, 397200, Note_on_c, 5, 84, 127
13, 397440, Note_off_c, 5, 84, 127
13, 397440, Note_on_c, 5, 86, 127
13, 397680, Note_off_c, 5, 86, 127
13, 397680, Note_on_c, 5, 87, 127
13, 397920, Note_off_c, 5, 87, 127
13, 397920, Note_on_c, 5, 77, 127
13, 398160, Note_off_c, 5, 77, 127
13, 398160, Note_on_c, 5, 96, 127
13, 398400, Note_off_c, 5, 96, 127
13, 398400, Note_on_c, 5, 77, 127
13, 398640, Note_off_c, 5, 77, 127
13, 398640, Note_on_c, 5, 87, 127
13, 398880, Note_off_c, 5, 87, 127
13, 398880, Note_on_c, 5, 86, 127
13, 399120, Note_off_c, 5, 86, 127
13, 399120, Note_on_c, 5, 84, 127
13, 399360, Note_off_c, 5, 84, 127
13, 399360, Note_on_c, 5, 68, 127
13, 399600, Note_off_c, 5, 68, 127
13, 399600, Note_on_c, 5, 74, 127
13, 399840, Note_off_c, 5, 74, 127
13, 399840, Note_on_c, 5, 79, 127
13, 400080, Note_off_c, 5, 79, 127
13, 400080, Note_on_c, 5, 68, 127
13, 400320, Note_off_c, 5, 68, 127
13, 400320, Note_on_c, 5, 84, 127
13, 400560, Note_off_c, 5, 84, 127
13, 400560, Note_on_c, 5, 86, 127
13, 400800, Note_off_c, 5, 86, 127
13, 400800, Note_on_c, 5, 91, 127
13, 401040, Note_off_c, 5, 91, 127
13, 401040, Note_on_c, 5, 80, 127
13, 401280, Note_off_c, 5, 80, 127
13, 401280, Note_on_c, 5, 96, 127
13, 401520, Note_off_c, 5, 96, 127
13, 401520, Note_on_c, 5, 80, 127
13, 401760, Note_off_c, 5, 80, 127
13, 401760, Note_on_c, 5, 91, 127
13, 402000, Note_off_c, 5, 91, 127
13, 402000, Note_on_c, 5, 86, 127
13, 402240, Note_off_c, 5, 86, 127
13, 402240, Note_on_c, 5, 84, 127
13, 402480, Note_off_c, 5, 84, 127
13, 402480, Note_on_c, 5, 68, 127
13, 402720, Note_off_c, 5, 68, 127
13, 402720, Note_on_c, 5, 79, 127
13, 402960, Note_off_c, 5, 79, 127
13, 402960, Note_on_c, 5, 74, 127
13, 403200, Note_off_c, 5, 74, 127
13, 403200, Note_on_c, 5, 68, 127
13, 403440, Note_off_c, 5, 68, 127
13, 403440, Note_on_c, 5, 74, 127
13, 403680, Note_off_c, 5, 74, 127
13, 403680, Note_on_c, 5, 79, 127
13, 403920, Note_off_c, 5, 79, 127
13, 403920, Note_on_c, 5, 68, 127
13, 404160, Note_off_c, 5, 68, 127
13, 404160, Note_on_c, 5, 84, 127
13, 404400, Note_off_c, 5, 84, 127
13, 404400, Note_on_c, 5, 86, 127
13, 404640, Note_off_c, 5, 86, 127
13, 404640, Note_on_c, 5, 91, 127
13, 404880, Note_off_c, 5, 91, 127
13, 404880, Note_on_c, 5, 80, 127
13, 405120, Note_off_c, 5, 80, 127
13, 405120, Note_on_c, 5, 96, 127
13, 405360, Note_off_c, 5, 96, 127
13, 405360, Note_on_c, 5, 80, 127
13, 405600, Note_off_c, 5, 80, 127
13, 405600, Note_on_c, 5, 91, 127
13, 405840, Note_off_c, 5, 91, 127
13, 405840, Note_on_c, 5, 86, 127
13, 406080, Note_off_c, 5, 86, 127
13, 406080, Note_on_c, 5, 84, 127
13, 406320, Note_off_c, 5, 84, 127
13, 406320, Note_on_c, 5, 68, 127
13, 406560, Note_off_c, 5, 68, 127
13, 406560, Note_on_c, 5, 79, 127
13, 406800, Note_off_c, 5, 79, 127
13, 406800, Note_on_c, 5, 74, 127
13, 407040, Note_off_c, 5, 74, 127
13, 407040, Note_on_c, 5, 65, 127
13, 407280, Note_off_c, 5, 65, 127
13, 407280, Note_on_c, 5, 72, 127
13, 407520, Note_off_c, 5, 72, 127
13, 407520, Note_on_c, 5, 74, 127
13, 407760, Note_off_c, 5, 74, 127
13, 407760, Note_on_c, 5, 75, 127
13, 408000, Note_off_c, 5, 75, 127
13, 408000, Note_on_c, 5, 65, 127
13, 408240, Note_off_c, 5, 65, 127
13, 408240, Note_on_c, 5, 84, 127
13, 408480, Note_off_c, 5, 84, 127
13, 408480, Note_on_c, 5, 86, 127
13, 408720, Note_off_c, 5, 86, 127
13, 408720, Note_on_c, 5, 87, 127
13, 408960, Note_off_c, 5, 87, 127
13, 408960, Note_on_c, 5, 77, 127
13, 409200, Note_off_c, 5, 77, 127
13, 409200, Note_on_c, 5, 96, 127
13, 409440, Note_off_c, 5, 96, 127
13, 409440, Note_on_c, 5, 77, 127
13, 409680, Note_off_c, 5, 77, 127
13, 409680, Note_on_c, 5, 87, 127
13, 409920, Note_off_c, 5, 87, 127
13, 409920, Note_on_c, 5, 86, 127
13, 410160, Note_off_c, 5, 86, 127
13, 410160, Note_on_c, 5, 84, 127
13, 410400, Note_off_c, 5, 84, 127
13, 410400, Note_on_c, 5, 65, 127
13, 410640, Note_off_c, 5, 65, 127
13, 410640, Note_on_c, 5, 75, 127
13, 410880, Note_off_c, 5, 75, 127
13, 410880, Note_on_c, 5, 74, 127
13, 411120, Note_off_c, 5, 74, 127
13, 411120, Note_on_c, 5, 72, 127
13, 411360, Note_off_c, 5, 72, 127
13, 411360, Note_on_c, 5, 65, 127
13, 411600, Note_off_c, 5, 65, 127
13, 411600, Note_on_c, 5, 72, 127
13, 411840, Note_off_c, 5, 72, 127
13, 411840, Note_on_c, 5, 74, 127
13, 412080, Note_off_c, 5, 74, 127
13, 412080, Note_on_c, 5, 75, 127
13, 412320, Note_off_c, 5, 75, 127
13, 412320, Note_on_c, 5, 65, 127
13, 412560, Note_off_c, 5, 65, 127
13, 412560, Note_on_c, 5, 84, 127
13, 412800, Note_off_c, 5, 84, 127
13, 412800, Note_on_c, 5, 86, 127
13, 413040, Note_off_c, 5, 86, 127
13, 413040, Note_on_c, 5, 87, 127
13, 413280, Note_off_c, 5, 87, 127
13, 413280, Note_on_c, 5, 77, 127
13, 413520, Note_off_c, 5, 77, 127
13, 413520, Note_on_c, 5, 96, 127
13, 413760, Note_off_c, 5, 96, 127
13, 413760, Note_on_c, 5, 77, 127
13, 414000, Note_off_c, 5, 77, 127
13, 414000, Note_on_c, 5, 87, 127
13, 414240, Note_off_c, 5, 87, 127
13, 414240, Note_on_c, 5, 86, 127
13, 414480, Note_off_c, 5, 86, 127
13, 414480, Note_on_c, 5, 84, 127
13, 414720, Note_off_c, 5, 84, 127
13, 414720, Note_on_c, 5, 68, 127
13, 414960, Note_off_c, 5, 68, 127
13, 414960, Note_on_c, 5, 74, 127
13, 415200, Note_off_c, 5, 74, 127
13, 415200, Note_on_c, 5, 79, 127
13, 415440, Note_off_c, 5, 79, 127
13, 415440, Note_on_c, 5, 68, 127
13, 415680, Note_off_c, 5, 68, 127
13, 415680, Note_on_c, 5, 84, 127
13, 415920, Note_off_c, 5, 84, 127
13, 415920, Note_on_c, 5, 86, 127
13, 416160, Note_off_c, 5, 86, 127
13, 416160, Note_on_c, 5, 91, 127
13, 416400, Note_off_c, 5, 91, 127
13, 416400, Note_on_c, 5, 80, 127
13, 416640, Note_off_c, 5, 80, 127
13, 416640, Note_on_c, 5, 96, 127
13, 416880, Note_off_c, 5, 96, 127
13, 416880, Note_on_c, 5, 80, 127
13, 417120, Note_off_c, 5, 80, 127
13, 417120, Note_on_c, 5, 91, 127
13, 417360, Note_off_c, 5, 91, 127
13, 417360, Note_on_c, 5, 86, 127
13, 417600, Note_off_c, 5, 86, 127
13, 417600, Note_on_c, 5, 84, 127
13, 417840, Note_off_c, 5, 84, 127
13, 417840, Note_on_c, 5, 68, 127
13, 418080, Note_off_c, 5, 68, 127
13, 418080, Note_on_c, 5, 79, 127
13, 418320, Note_off_c, 5, 79, 127
13, 418320, Note_on_c, 5, 74, 127
13, 418560, Note_off_c, 5, 74, 127
13, 418560, Note_on_c, 5, 68, 127
13, 418800, Note_off_c, 5, 68, 127
13, 418800, Note_on_c, 5, 74, 127
13, 419040, Note_off_c, 5, 74, 127
13, 419040, Note_on_c, 5, 79, 127
13, 419280, Note_off_c, 5, 79, 127
13, 419280, Note_on_c, 5, 68, 127
13, 419520, Note_off_c, 5, 68, 127
13, 419520, Note_on_c, 5, 84, 127
13, 419760, Note_off_c, 5, 84, 127
13, 419760, Note_on_c, 5, 86, 127
13, 420000, Note_off_c, 5, 86, 127
13, 420000, Note_on_c, 5, 91, 127
13, 420240, Note_off_c, 5, 91, 127
13, 420240, Note_on_c, 5, 80, 127
13, 420480, Note_off_c, 5, 80, 127
13, 420480, Note_on_c, 5, 96, 127
13, 420720, Note_off_c, 5, 96, 127
13, 420720, Note_on_c, 5, 80, 127
13, 420960, Note_off_c, 5, 80, 127
13, 420960, Note_on_c, 5, 91, 127
13, 421200, Note_off_c, 5, 91, 127
13, 421200, Note_on_c, 5, 86, 127
13, 421440, Note_off_c, 5, 86, 127
13, 421440, Note_on_c, 5, 84, 127
13, 421680, Note_off_c, 5, 84, 127
13, 421680, Note_on_c, 5, 68, 127
13, 421920, Note_off_c, 5, 68, 127
13, 421920, Note_on_c, 5, 79, 127
13, 422160, Note_off_c, 5, 79, 127
13, 422160, Note_on_c, 5, 74, 127
13, 422400, Note_off_c, 5, 74, 127
13, 422400, Note_on_c, 5, 65, 127
13, 422640, Note_off_c, 5, 65, 127
13, 422640, Note_on_c, 5, 72, 127
13, 422880, Note_off_c, 5, 72, 127
13, 422880, Note_on_c, 5, 74, 127
13, 423120, Note_off_c, 5, 74, 127
13, 423120, Note_on_c, 5, 75, 127
13, 423360, Note_off_c, 5, 75, 127
13, 423360, Note_on_c, 5, 65, 127
13, 423600, Note_off_c, 5, 65, 127
13, 423600, Note_on_c, 5, 84, 127
13, 423840, Note_off_c, 5, 84, 127
13, 423840, Note_on_c, 5, 86, 127
13, 424080, Note_off_c, 5, 86, 127
13, 424080, Note_on_c, 5, 87, 127
13, 424320, Note_off_c, 5, 87, 127
13, 424320, Note_on_c, 5, 77, 127
13, 424560, Note_off_c, 5, 77, 127
13, 424560, Note_on_c, 5, 96, 127
13, 424800, Note_off_c, 5, 96, 127
13, 424800, Note_on_c, 5, 77, 127
13, 425040, Note_off_c, 5, 77, 127
13, 425040, Note_on_c, 5, 87, 127
13, 425280, Note_off_c, 5, 87, 127
13, 425280, Note_on_c, 5, 86, 127
13, 425520, Note_off_c, 5, 86, 127
13, 425520, Note_on_c, 5, 84, 127
13, 425760, Note_off_c, 5, 84, 127
13, 425760, Note_on_c, 5, 65, 127
13, 426000, Note_off_c, 5, 65, 127
13, 426000, Note_on_c, 5, 75, 127
13, 426240, Note_off_c, 5, 75, 127
13, 426240, Note_on_c, 5, 74, 127
13, 426480, Note_off_c, 5, 74, 127
13, 426480, Note_on_c, 5, 72, 127
13, 426720, Note_off_c, 5, 72, 127
13, 426720, Note_on_c, 5, 65, 127
13, 426960, Note_off_c, 5, 65, 127
13, 426960, Note_on_c, 5, 72, 127
13, 427200, Note_off_c, 5, 72, 127
13, 427200, Note_on_c, 5, 74, 127
13, 427440, Note_off_c, 5, 74, 127
13, 427440, Note_on_c, 5, 75, 127
13, 427680, Note_off_c, 5, 75, 127
13, 427680, Note_on_c, 5, 65, 127
13, 427920, Note_off_c, 5, 65, 127
13, 427920, Note_on_c, 5, 84, 127
13, 428160, Note_off_c, 5, 84, 127
13, 428160, Note_on_c, 5, 86, 127
13, 428400, Note_off_c, 5, 86, 127
13, 428400, Note_on_c, 5, 87, 127
13, 428640, Note_off_c, 5, 87, 127
13, 428640, Note_on_c, 5, 77, 127
13, 428880, Note_off_c, 5, 77, 127
13, 428880, Note_on_c, 5, 96, 127
13, 429120, Note_off_c, 5, 96, 127
13, 429120, Note_on_c, 5, 77, 127
13, 429360, Note_off_c, 5, 77, 127
13, 429360, Note_on_c, 5, 87, 127
13, 429600, Note_off_c, 5, 87, 127
13, 429600, Note_on_c, 5, 86, 127
13, 429840, Note_off_c, 5, 86, 127
13, 429840, Note_on_c, 5, 84, 127
13, 430080, Note_off_c, 5, 84, 127
13, 430080, Note_on_c, 5, 68, 127
13, 430320, Note_off_c, 5, 68, 127
13, 430320, Note_on_c, 5, 74, 127
13, 430560, Note_off_c, 5, 74, 127
13, 430560, Note_on_c, 5, 79, 127
13, 430800, Note_off_c, 5, 79, 127
13, 430800, Note_on_c, 5, 68, 127
13, 431040, Note_off_c, 5, 68, 127
13, 431040, Note_on_c, 5, 84, 127
13, 431280, Note_off_c, 5, 84, 127
13, 431280, Note_on_c, 5, 86, 127
13, 431520, Note_off_c, 5, 86, 127
13, 431520, Note_on_c, 5, 91, 127
13, 431760, Note_off_c, 5, 91, 127
13, 431760, Note_on_c, 5, 80, 127
13, 432000, Note_off_c, 5, 80, 127
13, 432000, Note_on_c, 5, 96, 127
13, 432240, Note_off_c, 5, 96, 127
13, 432240, Note_on_c, 5, 80, 127
13, 432480, Note_off_c, 5, 80, 127
13, 432480, Note_on_c, 5, 91, 127
13, 432720, Note_off_c, 5, 91, 127
13, 432720, Note_on_c, 5, 86, 127
13, 432960, Note_off_c, 5, 86, 127
13, 432960, Note_on_c, 5, 84, 127
13, 433200, Note_off_c, 5, 84, 127
13, 433200, Note_on_c, 5, 68, 127
13, 433440, Note_off_c, 5, 68, 127
13, 433440, Note_on_c, 5, 79, 127
13, 433680, Note_off_c, 5, 79, 127
13, 433680, Note_on_c, 5, 74, 127
13, 433920, Note_off_c, 5, 74, 127
13, 433920, Note_on_c, 5, 68, 127
13, 434160, Note_off_c, 5, 68, 127
13, 434160, Note_on_c, 5, 74, 127
13, 434400, Note_off_c, 5, 74, 127
13, 434400, Note_on_c, 5, 79, 127
13, 434640, Note_off_c, 5, 79, 127
13, 434640, Note_on_c, 5, 68, 127
13, 434880, Note_off_c, 5, 68, 127
13, 434880, Note_on_c, 5, 84, 127
13, 435120, Note_off_c, 5, 84, 127
13, 435120, Note_on_c, 5, 86, 127
13, 435360, Note_off_c, 5, 86, 127
13, 435360, Note_on_c, 5, 91, 127
13, 435600, Note_off_c, 5, 91, 127
13, 435600, Note_on_c, 5, 80, 127
13, 435840, Note_off_c, 5, 80, 127
13, 435840, Note_on_c, 5, 96, 127
13, 436080, Note_off_c, 5, 96, 127
13, 436080, Note_on_c, 5, 80, 127
13, 436320, Note_off_c, 5, 80, 127
13, 436320, Note_on_c, 5, 91, 127
13, 436560, Note_off_c, 5, 91, 127
13, 436560, Note_on_c, 5, 86, 127
13, 436800, Note_off_c, 5, 86, 127
13, 436800, Note_on_c, 5, 84, 127
13, 437040, Note_off_c, 5, 84, 127
13, 437040, Note_on_c, 5, 68, 127
13, 437280, Note_off_c, 5, 68, 127
13, 437280, Note_on_c, 5, 79, 127
13, 437520, Note_off_c, 5, 79, 127
13, 437520, Note_on_c, 5, 74, 127
13, 437760, Note_off_c, 5, 74, 127
13, 437760, Note_on_c, 5, 65, 127
13, 438000, Note_off_c, 5, 65, 127
13, 438000, Note_on_c, 5, 72, 127
13, 438240, Note_off_c, 5, 72, 127
13, 438240, Note_on_c, 5, 74, 127
13, 438480, Note_off_c, 5, 74, 127
13, 438480, Note_on_c, 5, 75, 127
13, 438720, Note_off_c, 5, 75, 127
13, 438720, Note_on_c, 5, 65, 127
13, 438960, Note_off_c, 5, 65, 127
13, 438960, Note_on_c, 5, 84, 127
13, 439200, Note_off_c, 5, 84, 127
13, 439200, Note_on_c, 5, 86, 127
13, 439440, Note_off_c, 5, 86, 127
13, 439440, Note_on_c, 5, 87, 127
13, 439680, Note_off_c, 5, 87, 127
13, 439680, Note_on_c, 5, 77, 127
13, 439920, Note_off_c, 5, 77, 127
13, 439920, Note_on_c, 5, 96, 127
13, 440160, Note_off_c, 5, 96, 127
13, 440160, Note_on_c, 5, 77, 127
13, 440400, Note_off_c, 5, 77, 127
13, 440400, Note_on_c, 5, 87, 127
13, 440640, Note_off_c, 5, 87, 127
13, 440640, Note_on_c, 5, 86, 127
13, 440880, Note_off_c, 5, 86, 127
13, 440880, Note_on_c, 5, 84, 127
13, 441120, Note_off_c, 5, 84, 127
13, 441120, Note_on_c, 5, 65, 127
13, 441360, Note_off_c, 5, 65, 127
13, 441360, Note_on_c, 5, 75, 127
13, 441600, Note_off_c, 5, 75, 127
13, 441600, Note_on_c, 5, 74, 127
13, 441840, Note_off_c, 5, 74, 127
13, 441840, Note_on_c, 5, 72, 127
13, 442080, Note_off_c, 5, 72, 127
13, 442080, Note_on_c, 5, 65, 127
13, 442320, Note_off_c, 5, 65, 127
13, 442320, Note_on_c, 5, 72, 127
13, 442560, Note_off_c, 5, 72, 127
13, 442560, Note_on_c, 5, 74, 127
13, 442800, Note_off_c, 5, 74, 127
13, 442800, Note_on_c, 5, 75, 127
13, 443040, Note_off_c, 5, 75, 127
13, 443040, Note_on_c, 5, 65, 127
13, 443280, Note_off_c, 5, 65, 127
13, 443280, Note_on_c, 5, 84, 127
13, 443520, Note_off_c, 5, 84, 127
13, 443520, Note_on_c, 5, 86, 127
13, 443760, Note_off_c, 5, 86, 127
13, 443760, Note_on_c, 5, 87, 127
13, 444000, Note_off_c, 5, 87, 127
13, 444000, Note_on_c, 5, 77, 127
13, 444240, Note_off_c, 5, 77, 127
13, 444240, Note_on_c, 5, 96, 127
13, 444480, Note_off_c, 5, 96, 127
13, 444480, Note_on_c, 5, 77, 127
13, 444720, Note_off_c, 5, 77, 127
13, 444720, Note_on_c, 5, 87, 127
13, 444960, Note_off_c, 5, 87, 127
13, 444960, Note_on_c, 5, 86, 127
13, 445200, Note_off_c, 5, 86, 127
13, 445200, Note_on_c, 5, 84, 127
13, 445440, Note_off_c, 5, 84, 127
13, 446160, Note_on_c, 5, 83, 127
13, 446280, Note_off_c, 5, 83, 127
13, 446280, Note_on_c, 5, 85, 102
13, 446400, Note_off_c, 5, 85, 102
13, 446400, Note_on_c, 5, 86, 102
13, 446880, Note_off_c, 5, 86, 102
13, 447120, Note_on_c, 5, 85, 127
13, 447360, Note_off_c, 5, 85, 127
13, 447360, Note_on_c, 5, 86, 102
13, 448320, Note_off_c, 5, 86, 102
13, 449040, Note_on_c, 5, 83, 127
13, 449160, Note_off_c, 5, 83, 127
13, 449160, Note_on_c, 5, 85, 102
13, 449280, Note_off_c, 5, 85, 102
13, 449280, Note_on_c, 5, 86, 102
13, 449760, Note_off_c, 5, 86, 102
13, 450000, Note_on_c, 5, 85, 127
13, 450240, Note_off_c, 5, 85, 127
13, 450240, Note_on_c, 5, 86, 102
13, 451200, Note_off_c, 5, 86, 102
13, 451920, Note_on_c, 5, 83, 127
13, 452040, Note_off_c, 5, 83, 127
13, 452040, Note_on_c, 5, 85, 102
13, 452160, Note_off_c, 5, 85, 102
13, 452160, Note_on_c, 5, 86, 102
13, 452640, Note_off_c, 5, 86, 102
13, 452880, Note_on_c, 5, 83, 127
13, 453120, Note_off_c, 5, 83, 127
13, 453120, Note_on_c, 5, 85, 102
13, 454080, Note_off_c, 5, 85, 102
13, 454320, Note_on_c, 5, 81, 127
13, 454560, Note_off_c, 5, 81, 127
13, 454560, Note_on_c, 5, 78, 127
13, 454800, Note_off_c, 5, 78, 127
13, 454800, Note_on_c, 5, 81, 127
13, 455040, Note_off_c, 5, 81, 127
13, 455040, Note_on_c, 5, 88, 127
13, 455760, Note_off_c, 5, 88, 127
13, 455760, Note_on_c, 5, 82, 127
13, 455880, Note_off_c, 5, 82, 127
13, 455880, Note_on_c, 5, 88, 127
13, 456000, Note_off_c, 5, 88, 127
13, 456000, Note_on_c, 5, 85, 127
13, 456960, Note_off_c, 5, 85, 127
13, 457680, Note_on_c, 5, 83, 127
13, 457800, Note_off_c, 5, 83, 127
13, 457800, Note_on_c, 5, 85, 102
13, 457920, Note_off_c, 5, 85, 102
13, 457920, Note_on_c, 5, 86, 102
13, 458400, Note_off_c, 5, 86, 102
13, 458640, Note_on_c, 5, 85, 127
13, 458880, Note_off_c, 5, 85, 127
13, 458880, Note_on_c, 5, 86, 102
13, 459840, Note_off_c, 5, 86, 102
13, 460560, Note_on_c, 5, 83, 127
13, 460680, Note_off_c, 5, 83, 127
13, 460680, Note_on_c, 5, 85, 102
13, 460800, Note_off_c, 5, 85, 102
13, 460800, Note_on_c, 5, 86, 102
13, 461280, Note_off_c, 5, 86, 102
13, 461520, Note_on_c, 5, 85, 127
13, 461760, Note_off_c, 5, 85, 127
13, 461760, Note_on_c, 5, 86, 102
13, 462720, Note_off_c, 5, 86, 102
13, 463440, Note_on_c, 5, 83, 127
13, 463560, Note_off_c, 5, 83, 127
13, 463560, Note_on_c, 5, 85, 102
13, 463680, Note_off_c, 5, 85, 102
13, 463680, Note_on_c, 5, 86, 102
13, 464160, Note_off_c, 5, 86, 102
13, 464400, Note_on_c, 5, 83, 127
13, 464640, Note_off_c, 5, 83, 127
13, 464640, Note_on_c, 5, 85, 102
13, 465600, Note_off_c, 5, 85, 102
13, 465840, Note_on_c, 5, 81, 127
13, 466080, Note_off_c, 5, 81, 127
13, 466080, Note_on_c, 5, 78, 127
13, 466320, Note_off_c, 5, 78, 127
13, 466320, Note_on_c, 5, 81, 127
13, 466560, Note_off_c, 5, 81, 127
13, 466560, Note_on_c, 5, 88, 127
13, 467280, Note_off_c, 5, 88, 127
13, 467280, Note_on_c, 5, 82, 127
13, 467400, Note_off_c, 5, 82, 127
13, 467400, Note_on_c, 5, 88, 127
13, 467520, Note_off_c, 5, 88, 127
13, 467520, Note_on_c, 5, 85, 127
13, 468480, Note_off_c, 5, 85, 127
13, 469200, Note_on_c, 5, 83, 127
13, 469320, Note_off_c, 5, 83, 127
13, 469320, Note_on_c, 5, 85, 102
13, 469440, Note_off_c, 5, 85, 102
13, 469440, Note_on_c, 5, 86, 102
13, 469920, Note_off_c, 5, 86, 102
13, 470160, Note_on_c, 5, 85, 127
13, 470400, Note_off_c, 5, 85, 127
13, 470400, Note_on_c, 5, 86, 102
13, 471360, Note_off_c, 5, 86, 102
13, 472080, Note_on_c, 5, 83, 127
13, 472200, Note_off_c, 5, 83, 127
13, 472200, Note_on_c, 5, 85, 102
13, 472320, Note_off_c, 5, 85, 102
13, 472320, Note_on_c, 5, 86, 102
13, 472800, Note_off_c, 5, 86, 102
13, 473040, Note_on_c, 5, 85, 127
13, 473280, Note_off_c, 5, 85, 127
13, 473280, Note_on_c, 5, 86, 102
13, 474240, Note_off_c, 5, 86, 102
13, 474960, Note_on_c, 5, 83, 127
13, 475080, Note_off_c, 5, 83, 127
13, 475080, Note_on_c, 5, 85, 102
13, 475200, Note_off_c, 5, 85, 102
13, 475200, Note_on_c, 5, 86, 102
13, 475680, Note_off_c, 5, 86, 102
13, 475920, Note_on_c, 5, 83, 127
13, 476160, Note_off_c, 5, 83, 127
13, 476160, Note_on_c, 5, 85, 102
13, 477120, Note_off_c, 5, 85, 102
13, 477360, Note_on_c, 5, 81, 127
13, 477600, Note_off_c, 5, 81, 127
13, 477600, Note_on_c, 5, 78, 127
13, 477840, Note_off_c, 5, 78, 127
13, 477840, Note_on_c, 5, 81, 127
13, 478080, Note_off_c, 5, 81, 127
13, 478080, Note_on_c, 5, 88, 127
13, 478800, Note_off_c, 5, 88, 127
13, 478800, Note_on_c, 5, 82, 127
13, 478920, Note_off_c, 5, 82, 127
13, 478920, Note_on_c, 5, 88, 127
13, 479040, Note_off_c, 5, 88, 127
13, 479040, Note_on_c, 5, 85, 127
13, 480000, Note_off_c, 5, 85, 127
13, 480720, Note_on_c, 5, 83, 127
13, 480840, Note_off_c, 5, 83, 127
13, 480840, Note_on_c, 5, 85, 102
13, 480960, Note_off_c, 5, 85, 102
13, 480960, Note_on_c, 5, 86, 102
13, 481440, Note_off_c, 5, 86, 102
13, 481680, Note_on_c, 5, 85, 127
13, 481920, Note_off_c, 5, 85, 127
13, 481920, Note_on_c, 5, 86, 102
13, 482880, Note_off_c, 5, 86, 102
13, 483600, Note_on_c, 5, 83, 127
13, 483720, Note_off_c, 5, 83, 127
13, 483720, Note_on_c, 5, 85, 102
13, 483840, Note_off_c, 5, 85, 102
13, 483840, Note_on_c, 5, 86, 102
13, 484320, Note_off_c, 5, 86, 102
13, 484560, Note_on_c, 5, 85, 127
13, 484800, Note_off_c, 5, 85, 127
13, 484800, Note_on_c, 5, 86, 102
13, 485760, Note_off_c, 5, 86, 102
13, 486480, Note_on_c, 5, 83, 127
13, 486600, Note_off_c, 5, 83, 127
13, 486600, Note_on_c, 5, 85, 102
13, 486720, Note_off_c, 5, 85, 102
13, 486720, Note_on_c, 5, 86, 102
13, 487200, Note_off_c, 5, 86, 102
13, 487440, Note_on_c, 5, 83, 127
13, 487680, Note_off_c, 5, 83, 127
13, 487680, Note_on_c, 5, 85, 102
13, 488640, Note_off_c, 5, 85, 102
13, 488880, Note_on_c, 5, 81, 127
13, 489120, Note_off_c, 5, 81, 127
13, 489120, Note_on_c, 5, 78, 127
13, 489360, Note_off_c, 5, 78, 127
13, 489360, Note_on_c, 5, 81, 127
13, 489600, Note_off_c, 5, 81, 127
13, 489600, Note_on_c, 5, 88, 127
13, 490320, Note_off_c, 5, 88, 127
13, 490320, Note_on_c, 5, 82, 127
13, 490440, Note_off_c, 5, 82, 127
13, 490440, Note_on_c, 5, 88, 127
13, 490560, Note_off_c, 5, 88, 127
13, 490560, Note_on_c, 5, 85, 127
13, 491520, Note_off_c, 5, 85, 127
13, 492000, Note_on_c, 5, 71, 127
13, 492480, Note_off_c, 5, 71, 127
13, 492480, Note_on_c, 5, 74, 127
13, 492960, Note_off_c, 5, 74, 127
13, 492960, Note_on_c, 5, 77, 127
13, 493440, Note_off_c, 5, 77, 127
13, 493440, Note_on_c, 5, 85, 127
13, 493920, Note_off_c, 5, 85, 127
13, 493920, Note_on_c, 5, 80, 127
13, 494400, Note_off_c, 5, 80, 127
13, 494400, Note_on_c, 5, 82, 127
13, 497280, Note_off_c, 5, 82, 127
13, 497760, Note_on_c, 5, 71, 127
13, 498240, Note_off_c, 5, 71, 127
13, 498240, Note_on_c, 5, 74, 127
13, 498720, Note_off_c, 5, 74, 127
13, 498720, Note_on_c, 5, 77, 127
13, 499200, Note_off_c, 5, 77, 127
13, 499200, Note_on_c, 5, 85, 127
13, 499680, Note_off_c, 5, 85, 127
13, 499680, Note_on_c, 5, 80, 127
13, 500160, Note_off_c, 5, 80, 127
13, 500160, Note_on_c, 5, 82, 127
13, 503040, Note_off_c, 5, 82, 127
13, 503520, Note_on_c, 5, 71, 127
13, 504000, Note_off_c, 5, 71, 127
13, 504000, Note_on_c, 5, 74, 127
13, 504480, Note_off_c, 5, 74, 127
13, 504480, Note_on_c, 5, 77, 127
13, 504960, Note_off_c, 5, 77, 127
13, 504960, Note_on_c, 5, 85, 127
13, 505440, Note_off_c, 5, 85, 127
13, 505440, Note_on_c, 5, 80, 127
13, 505920, Note_off_c, 5, 80, 127
13, 505920, Note_on_c, 5, 82, 127
13, 508800, Note_off_c, 5, 82, 127
13, 509280, Note_on_c, 5, 71, 127
13, 509760, Note_off_c, 5, 71, 127
13, 509760, Note_on_c, 5, 74, 127
13, 510240, Note_off_c, 5, 74, 127
13, 510240, Note_on_c, 5, 77, 127
13, 510720, Note_off_c, 5, 77, 127
13, 510720, Note_on_c, 5, 85, 127
13, 511200, Note_off_c, 5, 85, 127
13, 511200, Note_on_c, 5, 80, 127
13, 511680, Note_off_c, 5, 80, 127
13, 511680, Note_on_c, 5, 82, 127
13, 514560, Note_off_c, 5, 82, 127
13, 515040, Note_on_c, 5, 70, 127
13, 515520, Note_off_c, 5, 70, 127
13, 515520, Note_on_c, 5, 73, 127
13, 516000, Note_off_c, 5, 73, 127
13, 516000, Note_on_c, 5, 80, 127
13, 516480, Note_off_c, 5, 80, 127
13, 516480, Note_on_c, 5, 87, 127
13, 516960, Note_off_c, 5, 87, 127
13, 516960, Note_on_c, 5, 77, 127
13, 517440, Note_off_c, 5, 77, 127
13, 517440, Note_on_c, 5, 84, 127
13, 520320, Note_off_c, 5, 84, 127
13, 520800, Note_on_c, 5, 70, 127
13, 521280, Note_off_c, 5, 70, 127
13, 521280, Note_on_c, 5, 73, 127
13, 521760, Note_off_c, 5, 73, 127
13, 521760, Note_on_c, 5, 80, 127
13, 522240, Note_off_c, 5, 80, 127
13, 522240, Note_on_c, 5, 87, 127
13, 522720, Note_off_c, 5, 87, 127
13, 522720, Note_on_c, 5, 77, 127
13, 523200, Note_off_c, 5, 77, 127
13, 523200, Note_on_c, 5, 84, 127
13, 526080, Note_off_c, 5, 84, 127
13, 526560, Note_on_c, 5, 70, 127
13, 527040, Note_off_c, 5, 70, 127
13, 527040, Note_on_c, 5, 73, 127
13, 527520, Note_off_c, 5, 73, 127
13, 527520, Note_on_c, 5, 80, 127
13, 528000, Note_off_c, 5, 80, 127
13, 528000, Note_on_c, 5, 87, 127
13, 528480, Note_off_c, 5, 87, 127
13, 528480, Note_on_c, 5, 77, 127
13, 528960, Note_off_c, 5, 77, 127
13, 528960, Note_on_c, 5, 84, 127
13, 531840, Note_off_c, 5, 84, 127
13, 532320, Note_on_c, 5, 70, 127
13, 532800, Note_off_c, 5, 70, 127
13, 532800, Note_on_c, 5, 73, 127
13, 533280, Note_off_c, 5, 73, 127
13, 533280, Note_on_c, 5, 80, 127
13, 533760, Note_off_c, 5, 80, 127
13, 533760, Note_on_c, 5, 87, 127
13, 534240, Note_off_c, 5, 87, 127
13, 534240, Note_on_c, 5, 77, 127
13, 534720, Note_off_c, 5, 77, 127
13, 534720, Note_on_c, 5, 84, 127
13, 537600, Note_off_c, 5, 84, 127
13, 538080, Note_on_c, 5, 69, 127
13, 538560, Note_off_c, 5, 69, 127
13, 538560, Note_on_c, 5, 72, 127
13, 539040, Note_off_c, 5, 72, 127
13, 539040, Note_on_c, 5, 88, 127
13, 539520, Note_off_c, 5, 88, 127
13, 539520, Note_on_c, 5, 77, 127
13, 540000, Note_off_c, 5, 77, 127
13, 540000, Note_on_c, 5, 84, 127
13, 540480, Note_off_c, 5, 84, 127
13, 540480, Note_on_c, 5, 83, 127
13, 543360, Note_off_c, 5, 83, 127
13, 543840, Note_on_c, 5, 69, 127
13, 544320, Note_off_c, 5, 69, 127
13, 544320, Note_on_c, 5, 72, 127
13, 544800, Note_off_c, 5, 72, 127
13, 544800, Note_on_c, 5, 88, 127
13, 545280, Note_off_c, 5, 88, 127
13, 545280, Note_on_c, 5, 77, 127
13, 545760, Note_off_c, 5, 77, 127
13, 545760, Note_on_c, 5, 84, 127
13, 546240, Note_off_c, 5, 84, 127
13, 546240, Note_on_c, 5, 83, 127
13, 549120, Note_off_c, 5, 83, 127
13, 549600, Note_on_c, 5, 69, 127
13, 550080, Note_off_c, 5, 69, 127
13, 550080, Note_on_c, 5, 72, 127
13, 550560, Note_off_c, 5, 72, 127
13, 550560, Note_on_c, 5, 88, 127
13, 551040, Note_off_c, 5, 88, 127
13, 551040, Note_on_c, 5, 77, 127
13, 551520, Note_off_c, 5, 77, 127
13, 551520, Note_on_c, 5, 84, 127
13, 552000, Note_off_c, 5, 84, 127
13, 552000, Note_on_c, 5, 83, 127
13, 554880, Note_off_c, 5, 83, 127
13, 555360, Note_on_c, 5, 69, 127
13, 555840, Note_off_c, 5, 69, 127
13, 555840, Note_on_c, 5, 72, 127
13, 556320, Note_off_c, 5, 72, 127
13, 556320, Note_on_c, 5, 88, 127
13, 556800, Note_off_c, 5, 88, 127
13, 556800, Note_on_c, 5, 77, 127
13, 557280, Note_off_c, 5, 77, 127
13, 557280, Note_on_c, 5, 84, 127
13, 557760, Note_off_c, 5, 84, 127
13, 557760, Note_on_c, 5, 83, 127
13, 560640, Note_off_c, 5, 83, 127
13, 561120, Note_on_c, 5, 70, 127
13, 561600, Note_off_c, 5, 70, 127
13, 561600, Note_on_c, 5, 73, 127
13, 562080, Note_off_c, 5, 73, 127
13, 562080, Note_on_c, 5, 82, 127
13, 562560, Note_off_c, 5, 82, 127
13, 562560, Note_on_c, 5, 92, 127
13, 563040, Note_off_c, 5, 92, 127
13, 563040, Note_on_c, 5, 89, 127
13, 563520, Note_off_c, 5, 89, 127
13, 563520, Note_on_c, 5, 87, 127
13, 566400, Note_off_c, 5, 87, 127
13, 566880, Note_on_c, 5, 70, 127
13, 567360, Note_off_c, 5, 70, 127
13, 567360, Note_on_c, 5, 73, 127
13, 567840, Note_off_c, 5, 73, 127
13, 567840, Note_on_c, 5, 82, 127
13, 568320, Note_off_c, 5, 82, 127
13, 568320, Note_on_c, 5, 92, 127
13, 568800, Note_off_c, 5, 92, 127
13, 568800, Note_on_c, 5, 89, 127
13, 569280, Note_off_c, 5, 89, 127
13, 569280, Note_on_c, 5, 87, 127
13, 572160, Note_off_c, 5, 87, 127
13, 572640, Note_on_c, 5, 70, 127
13, 573120, Note_off_c, 5, 70, 127
13, 573120, Note_on_c, 5, 73, 127
13, 573600, Note_off_c, 5, 73, 127
13, 573600, Note_on_c, 5, 82, 127
13, 574080, Note_off_c, 5, 82, 127
13, 574080, Note_on_c, 5, 92, 127
13, 574560, Note_off_c, 5, 92, 127
13, 574560, Note_on_c, 5, 89, 127
13, 575040, Note_off_c, 5, 89, 127
13, 575040, Note_on_c, 5, 87, 127
13, 577920, Note_off_c, 5, 87, 127
13, 578400, Note_on_c, 5, 70, 127
13, 578880, Note_off_c, 5, 70, 127
13, 578880, Note_on_c, 5, 73, 127
13, 579360, Note_off_c, 5, 73, 127
13, 579360, Note_on_c, 5, 82, 127
13, 579840, Note_off_c, 5, 82, 127
13, 579840, Note_on_c, 5, 92, 127
13, 580320, Note_off_c, 5, 92, 127
13, 580320, Note_on_c, 5, 89, 127
13, 580800, Note_off_c, 5, 89, 127
13, 580800, Note_on_c, 5, 87, 127
13, 583680, Note_off_c, 5, 87, 127
13, 583680, End_track
0, 0, End_of_file
