0, 0, Header, 1, 15, 480
1, 0, Start_track
1, 0, Title_t, "Untitled Song"
1, 0, SMPTE_offset, 0, 0, 0, 0, 0
1, 0, Tempo, 576923
1, 0, Time_signature, 4, 2, 24, 8
1, 0, Key_signature, 2, "major"
1, 0, End_track
2, 0, Start_track
2, 0, Title_t, "Trombone"
2, 0, MIDI_port, 0
2, 0, Channel_prefix, 0
2, 0, Control_c, 0, 7, 127
2, 0, Control_c, 0, 10, 88
2, 0, Control_c, 0, 32, 0
2, 0, Control_c, 0, 91, 64
2, 0, Control_c, 0, 93, 84
2, 0, Program_c, 0, 57
2, 0, Control_c, 0, 123, 0
2, 1920, Note_on_c, 0, 74, 121
2, 4224, Note_off_c, 0, 74, 64
2, 4800, Note_on_c, 0, 78, 111
2, 5056, Note_off_c, 0, 78, 64
2, 5120, Note_on_c, 0, 81, 120
2, 5260, Note_off_c, 0, 81, 64
2, 5280, Control_c, 0, 86, 37
2, 5280, Control_c, 0, 85, 4
2, 5280, Control_c, 0, 86, 4
2, 5520, Note_on_c, 0, 78, 121
2, 5616, Note_off_c, 0, 78, 64
2, 5640, Note_on_c, 0, 76, 113
2, 5736, Note_off_c, 0, 76, 64
2, 5760, Note_on_c, 0, 74, 122
2, 8320, Note_off_c, 0, 74, 64
2, 8640, Control_c, 0, 86, 37
2, 8960, Note_on_c, 0, 71, 114
2, 9088, Note_off_c, 0, 71, 64
2, 9120, Note_on_c, 0, 74, 114
2, 9376, Note_off_c, 0, 74, 64
2, 9440, Note_on_c, 0, 78, 110
2, 10592, Note_off_c, 0, 78, 64
2, 10880, Note_on_c, 0, 69, 117
2, 11008, Note_off_c, 0, 69, 64
2, 11040, Note_on_c, 0, 78, 123
2, 11168, Note_off_c, 0, 78, 64
2, 11200, Note_on_c, 0, 78, 107
2, 11328, Note_off_c, 0, 78, 64
2, 11360, Note_on_c, 0, 76, 108
2, 11488, Note_off_c, 0, 76, 64
2, 11520, Note_on_c, 0, 74, 113
2, 11776, Note_off_c, 0, 74, 64
2, 11840, Note_on_c, 0, 76, 115
2, 11968, Note_off_c, 0, 76, 64
2, 12000, Note_on_c, 0, 74, 107
2, 12384, Note_off_c, 0, 74, 64
2, 12480, Control_c, 0, 86, 37
2, 12800, Note_on_c, 0, 76, 115
2, 12928, Note_off_c, 0, 76, 64
2, 12960, Note_on_c, 0, 74, 124
2, 13600, Note_off_c, 0, 74, 64
2, 13760, Note_on_c, 0, 71, 105
2, 13888, Note_off_c, 0, 71, 64
2, 13920, Note_on_c, 0, 69, 124
2, 14380, Note_off_c, 0, 69, 64
2, 14400, Control_c, 0, 86, 37
2, 14720, Note_on_c, 0, 74, 115
2, 15232, Note_off_c, 0, 74, 64
2, 15360, Note_on_c, 0, 74, 110
2, 15820, Note_off_c, 0, 74, 64
2, 15840, Control_c, 0, 86, 37
2, 16640, Note_on_c, 0, 69, 123
2, 16768, Note_off_c, 0, 69, 64
2, 16800, Note_on_c, 0, 71, 113
2, 16928, Note_off_c, 0, 71, 64
2, 16960, Note_on_c, 0, 74, 102
2, 17088, Note_off_c, 0, 74, 64
2, 17120, Note_on_c, 0, 78, 108
2, 18220, Note_off_c, 0, 78, 64
2, 18240, Control_c, 0, 86, 37
2, 18560, Note_on_c, 0, 74, 118
2, 18688, Note_off_c, 0, 74, 64
2, 18720, Note_on_c, 0, 81, 114
2, 18848, Note_off_c, 0, 81, 64
2, 18880, Note_on_c, 0, 81, 116
2, 19008, Note_off_c, 0, 81, 64
2, 19040, Note_on_c, 0, 78, 117
2, 19424, Note_off_c, 0, 78, 64
2, 19520, Note_on_c, 0, 78, 118
2, 19648, Note_off_c, 0, 78, 64
2, 19680, Note_on_c, 0, 76, 124
2, 19936, Note_off_c, 0, 76, 64
2, 20000, Note_on_c, 0, 74, 108
2, 20384, Note_off_c, 0, 74, 64
2, 20480, Note_on_c, 0, 78, 118
2, 20608, Note_off_c, 0, 78, 64
2, 20640, Note_on_c, 0, 76, 119
2, 20896, Note_off_c, 0, 76, 64
2, 20960, Note_on_c, 0, 74, 118
2, 21088, Note_off_c, 0, 74, 64
2, 21120, Note_on_c, 0, 76, 120
2, 21376, Note_off_c, 0, 76, 64
2, 21440, Note_on_c, 0, 74, 122
2, 21824, Note_off_c, 0, 74, 64
2, 21920, Note_on_c, 0, 71, 116
2, 22304, Note_off_c, 0, 71, 64
2, 22400, Note_on_c, 0, 76, 118
2, 22784, Note_off_c, 0, 76, 64
2, 22880, Note_on_c, 0, 74, 122
2, 23980, Note_off_c, 0, 74, 64
2, 24000, Control_c, 0, 86, 37
2, 24320, Note_on_c, 0, 78, 110
2, 24576, Note_off_c, 0, 78, 64
2, 24640, Note_on_c, 0, 78, 112
2, 24896, Note_off_c, 0, 78, 64
2, 24960, Note_on_c, 0, 76, 119
2, 25420, Note_off_c, 0, 76, 64
2, 25440, Control_c, 0, 86, 37
2, 25920, Note_on_c, 0, 78, 121
2, 26176, Note_off_c, 0, 78, 64
2, 26240, Note_on_c, 0, 81, 124
2, 26496, Note_off_c, 0, 81, 64
2, 26560, Note_on_c, 0, 78, 122
2, 26816, Note_off_c, 0, 78, 64
2, 26880, Note_on_c, 0, 74, 115
2, 27820, Note_off_c, 0, 74, 64
2, 27840, Control_c, 0, 86, 37
2, 28160, Note_on_c, 0, 78, 121
2, 28288, Note_off_c, 0, 78, 64
2, 28320, Note_on_c, 0, 81, 114
2, 28448, Note_off_c, 0, 81, 64
2, 28480, Note_on_c, 0, 81, 123
2, 28608, Note_off_c, 0, 81, 64
2, 28640, Note_on_c, 0, 78, 120
2, 28768, Note_off_c, 0, 78, 64
2, 28800, Note_on_c, 0, 81, 117
2, 29056, Note_off_c, 0, 81, 64
2, 29120, Note_on_c, 0, 81, 120
2, 29260, Note_off_c, 0, 81, 64
2, 29280, Control_c, 0, 86, 37
2, 29600, Note_on_c, 0, 81, 118
2, 29740, Note_off_c, 0, 81, 64
2, 29760, Control_c, 0, 86, 37
2, 30080, Note_on_c, 0, 78, 115
2, 30220, Note_off_c, 0, 78, 64
2, 30240, Control_c, 0, 86, 37
2, 30560, Note_on_c, 0, 74, 123
2, 30688, Note_off_c, 0, 74, 64
2, 30720, Note_on_c, 0, 72, 117
2, 30976, Note_off_c, 0, 72, 64
2, 31040, Note_on_c, 0, 72, 124
2, 31168, Note_off_c, 0, 72, 64
2, 31200, Note_on_c, 0, 74, 118
2, 31456, Note_off_c, 0, 74, 64
2, 31520, Note_on_c, 0, 72, 115
2, 31648, Note_off_c, 0, 72, 64
2, 31680, Note_on_c, 0, 74, 103
2, 32064, Note_off_c, 0, 74, 64
2, 32160, Note_on_c, 0, 71, 118
2, 32544, Note_off_c, 0, 71, 64
2, 35840, Note_on_c, 0, 78, 124
2, 36096, Note_off_c, 0, 78, 64
2, 36160, Note_on_c, 0, 78, 108
2, 36416, Note_off_c, 0, 78, 64
2, 36480, Note_on_c, 0, 78, 116
2, 36864, Note_off_c, 0, 78, 64
2, 36960, Note_on_c, 0, 76, 116
2, 37344, Note_off_c, 0, 76, 64
2, 39680, Note_on_c, 0, 71, 118
2, 39808, Note_off_c, 0, 71, 64
2, 39840, Note_on_c, 0, 74, 118
2, 40096, Note_off_c, 0, 74, 64
2, 40160, Note_on_c, 0, 78, 109
2, 41312, Note_off_c, 0, 78, 64
2, 41600, Note_on_c, 0, 69, 119
2, 41728, Note_off_c, 0, 69, 64
2, 41760, Note_on_c, 0, 78, 113
2, 41888, Note_off_c, 0, 78, 64
2, 41920, Note_on_c, 0, 78, 117
2, 42048, Note_off_c, 0, 78, 64
2, 42080, Note_on_c, 0, 76, 113
2, 42208, Note_off_c, 0, 76, 64
2, 42240, Note_on_c, 0, 74, 112
2, 42496, Note_off_c, 0, 74, 64
2, 42560, Note_on_c, 0, 76, 118
2, 42688, Note_off_c, 0, 76, 64
2, 42720, Note_on_c, 0, 74, 116
2, 43104, Note_off_c, 0, 74, 64
2, 43200, Control_c, 0, 86, 37
2, 43520, Note_on_c, 0, 76, 114
2, 43648, Note_off_c, 0, 76, 64
2, 43680, Note_on_c, 0, 74, 119
2, 44320, Note_off_c, 0, 74, 64
2, 44480, Note_on_c, 0, 71, 106
2, 44608, Note_off_c, 0, 71, 64
2, 44640, Note_on_c, 0, 69, 111
2, 45100, Note_off_c, 0, 69, 64
2, 45120, Control_c, 0, 86, 37
2, 45280, Note_on_c, 0, 71, 122
2, 45408, Note_off_c, 0, 71, 64
2, 45440, Note_on_c, 0, 74, 122
2, 45568, Note_off_c, 0, 74, 64
2, 45600, Note_on_c, 0, 74, 118
2, 45728, Note_off_c, 0, 74, 64
2, 45760, Note_on_c, 0, 74, 124
2, 45888, Note_off_c, 0, 74, 64
2, 45920, Note_on_c, 0, 71, 112
2, 46048, Note_off_c, 0, 71, 64
2, 46080, Note_on_c, 0, 74, 120
2, 46336, Note_off_c, 0, 74, 64
2, 46400, Note_on_c, 0, 71, 123
2, 46540, Note_off_c, 0, 71, 64
2, 46560, Control_c, 0, 86, 37
2, 47360, Note_on_c, 0, 69, 111
2, 47488, Note_off_c, 0, 69, 64
2, 47520, Note_on_c, 0, 71, 104
2, 47648, Note_off_c, 0, 71, 64
2, 47680, Note_on_c, 0, 74, 115
2, 47808, Note_off_c, 0, 74, 64
2, 47840, Note_on_c, 0, 78, 117
2, 48940, Note_off_c, 0, 78, 64
2, 48960, Control_c, 0, 86, 37
2, 49440, Note_on_c, 0, 81, 124
2, 49568, Note_off_c, 0, 81, 64
2, 49600, Note_on_c, 0, 81, 115
2, 49728, Note_off_c, 0, 81, 64
2, 49760, Note_on_c, 0, 78, 108
2, 50144, Note_off_c, 0, 78, 64
2, 50240, Note_on_c, 0, 78, 116
2, 50368, Note_off_c, 0, 78, 64
2, 50400, Note_on_c, 0, 76, 108
2, 50656, Note_off_c, 0, 76, 64
2, 50720, Note_on_c, 0, 74, 121
2, 51104, Note_off_c, 0, 74, 64
2, 51200, Note_on_c, 0, 78, 111
2, 51328, Note_off_c, 0, 78, 64
2, 51360, Note_on_c, 0, 76, 122
2, 51616, Note_off_c, 0, 76, 64
2, 51680, Note_on_c, 0, 74, 122
2, 51808, Note_off_c, 0, 74, 64
2, 51840, Note_on_c, 0, 76, 107
2, 52096, Note_off_c, 0, 76, 64
2, 52160, Note_on_c, 0, 74, 118
2, 52544, Note_off_c, 0, 74, 64
2, 52640, Note_on_c, 0, 71, 110
2, 53024, Note_off_c, 0, 71, 64
2, 53120, Note_on_c, 0, 76, 112
2, 53504, Note_off_c, 0, 76, 64
2, 53600, Note_on_c, 0, 74, 111
2, 54700, Note_off_c, 0, 74, 64
2, 54720, Control_c, 0, 86, 37
2, 55040, Note_on_c, 0, 78, 115
2, 55296, Note_off_c, 0, 78, 64
2, 55360, Note_on_c, 0, 78, 115
2, 55616, Note_off_c, 0, 78, 64
2, 55680, Note_on_c, 0, 81, 117
2, 55936, Note_off_c, 0, 81, 64
2, 56000, Note_on_c, 0, 81, 110
2, 56128, Note_off_c, 0, 81, 64
2, 56160, Note_on_c, 0, 83, 117
2, 56620, Note_off_c, 0, 83, 64
2, 56640, Control_c, 0, 86, 37
2, 56960, Note_on_c, 0, 81, 110
2, 57216, Note_off_c, 0, 81, 64
2, 57280, Note_on_c, 0, 78, 116
2, 57408, Note_off_c, 0, 78, 64
2, 57440, Note_on_c, 0, 76, 123
2, 57568, Note_off_c, 0, 76, 64
2, 57600, Note_on_c, 0, 76, 113
2, 57856, Note_off_c, 0, 76, 64
2, 57920, Note_on_c, 0, 74, 119
2, 58060, Note_off_c, 0, 74, 64
2, 58080, Control_c, 0, 86, 37
2, 58560, Control_c, 0, 86, 37
2, 58880, Note_on_c, 0, 78, 109
2, 59008, Note_off_c, 0, 78, 64
2, 59040, Note_on_c, 0, 81, 113
2, 59168, Note_off_c, 0, 81, 64
2, 59200, Note_on_c, 0, 81, 115
2, 59328, Note_off_c, 0, 81, 64
2, 59360, Note_on_c, 0, 78, 110
2, 59488, Note_off_c, 0, 78, 64
2, 59520, Note_on_c, 0, 81, 111
2, 59776, Note_off_c, 0, 81, 64
2, 59840, Note_on_c, 0, 81, 108
2, 59980, Note_off_c, 0, 81, 64
2, 60000, Control_c, 0, 86, 37
2, 60320, Note_on_c, 0, 81, 120
2, 60460, Note_off_c, 0, 81, 64
2, 60480, Control_c, 0, 86, 37
2, 60800, Note_on_c, 0, 78, 121
2, 60940, Note_off_c, 0, 78, 64
2, 60960, Control_c, 0, 86, 37
2, 61280, Note_on_c, 0, 74, 102
2, 61408, Note_off_c, 0, 74, 64
2, 61440, Note_on_c, 0, 72, 100
2, 61696, Note_off_c, 0, 72, 64
2, 61760, Note_on_c, 0, 72, 123
2, 61888, Note_off_c, 0, 72, 64
2, 61920, Note_on_c, 0, 74, 122
2, 62176, Note_off_c, 0, 74, 64
2, 62240, Note_on_c, 0, 72, 102
2, 62368, Note_off_c, 0, 72, 64
2, 62400, Note_on_c, 0, 74, 105
2, 62784, Note_off_c, 0, 74, 64
2, 62880, Note_on_c, 0, 71, 107
2, 63264, Note_off_c, 0, 71, 64
2, 66560, Note_on_c, 0, 78, 120
2, 66816, Note_off_c, 0, 78, 64
2, 66880, Note_on_c, 0, 78, 120
2, 67136, Note_off_c, 0, 78, 64
2, 67200, Note_on_c, 0, 78, 109
2, 67584, Note_off_c, 0, 78, 64
2, 67680, Note_on_c, 0, 76, 118
2, 68064, Note_off_c, 0, 76, 64
2, 70560, Control_c, 0, 86, 37
2, 71040, Control_c, 0, 86, 37
2, 71520, Note_on_c, 0, 78, 119
2, 72288, Note_off_c, 0, 78, 64
2, 72480, Note_on_c, 0, 78, 117
2, 72864, Note_off_c, 0, 78, 64
2, 72960, Note_on_c, 0, 78, 123
2, 73216, Note_off_c, 0, 78, 64
2, 73280, Note_on_c, 0, 76, 122
2, 73664, Note_off_c, 0, 76, 64
2, 73760, Note_on_c, 0, 74, 123
2, 73888, Note_off_c, 0, 74, 64
2, 73920, Note_on_c, 0, 71, 121
2, 74860, Note_off_c, 0, 71, 64
2, 74880, Control_c, 0, 86, 37
2, 75360, Note_on_c, 0, 76, 111
2, 75616, Note_off_c, 0, 76, 64
2, 75680, Note_on_c, 0, 74, 123
2, 75808, Note_off_c, 0, 74, 64
2, 75840, Note_on_c, 0, 76, 105
2, 76096, Note_off_c, 0, 76, 64
2, 76160, Note_on_c, 0, 74, 113
2, 76288, Note_off_c, 0, 74, 64
2, 76320, Note_on_c, 0, 76, 118
2, 76576, Note_off_c, 0, 76, 64
2, 76640, Note_on_c, 0, 78, 100
2, 77024, Note_off_c, 0, 78, 64
2, 77120, Note_on_c, 0, 78, 119
2, 77248, Note_off_c, 0, 78, 64
2, 77280, Note_on_c, 0, 81, 119
2, 78048, Note_off_c, 0, 81, 64
2, 78240, Note_on_c, 0, 78, 114
2, 78368, Note_off_c, 0, 78, 64
2, 78400, Note_on_c, 0, 76, 116
2, 78528, Note_off_c, 0, 76, 64
2, 78560, Note_on_c, 0, 74, 112
2, 78700, Note_off_c, 0, 74, 64
2, 78720, Control_c, 0, 86, 37
2, 79040, Note_on_c, 0, 74, 111
2, 79168, Note_off_c, 0, 74, 64
2, 79200, Note_on_c, 0, 81, 110
2, 79328, Note_off_c, 0, 81, 64
2, 79360, Note_on_c, 0, 81, 110
2, 79616, Note_off_c, 0, 81, 64
2, 79680, Note_on_c, 0, 78, 124
2, 80320, Note_off_c, 0, 78, 64
2, 80480, Note_on_c, 0, 74, 111
2, 80608, Note_off_c, 0, 74, 64
2, 80640, Note_on_c, 0, 74, 115
2, 80768, Note_off_c, 0, 74, 64
2, 80800, Note_on_c, 0, 76, 122
2, 80928, Note_off_c, 0, 76, 64
2, 80960, Note_on_c, 0, 78, 101
2, 81344, Note_off_c, 0, 78, 64
2, 81440, Note_on_c, 0, 76, 121
2, 81824, Note_off_c, 0, 76, 64
2, 81920, Note_on_c, 0, 71, 113
2, 82304, Note_off_c, 0, 71, 64
2, 82400, Note_on_c, 0, 69, 116
2, 82528, Note_off_c, 0, 69, 64
2, 82560, Note_on_c, 0, 76, 113
2, 82944, Note_off_c, 0, 76, 64
2, 83040, Note_on_c, 0, 76, 124
2, 83296, Note_off_c, 0, 76, 64
2, 83360, Note_on_c, 0, 76, 115
2, 83488, Note_off_c, 0, 76, 64
2, 83520, Note_on_c, 0, 76, 122
2, 83776, Note_off_c, 0, 76, 64
2, 83840, Note_on_c, 0, 78, 112
2, 84224, Note_off_c, 0, 78, 64
2, 84320, Note_on_c, 0, 81, 114
2, 85472, Note_off_c, 0, 81, 64
2, 85760, Note_on_c, 0, 78, 110
2, 86272, Note_off_c, 0, 78, 64
2, 86400, Note_on_c, 0, 76, 112
2, 86528, Note_off_c, 0, 76, 64
2, 86560, Note_on_c, 0, 74, 123
2, 86860, Note_off_c, 0, 74, 64
2, 86880, Control_c, 0, 86, 37
2, 93440, Note_on_c, 0, 69, 124
2, 93568, Note_off_c, 0, 69, 64
2, 93600, Note_on_c, 0, 71, 106
2, 93728, Note_off_c, 0, 71, 64
2, 93760, Note_on_c, 0, 74, 115
2, 93888, Note_off_c, 0, 74, 64
2, 93920, Note_on_c, 0, 78, 121
2, 95072, Note_off_c, 0, 78, 64
2, 95360, Note_on_c, 0, 69, 117
2, 95488, Note_off_c, 0, 69, 64
2, 95520, Note_on_c, 0, 78, 108
2, 95648, Note_off_c, 0, 78, 64
2, 95680, Note_on_c, 0, 78, 120
2, 95808, Note_off_c, 0, 78, 64
2, 95840, Note_on_c, 0, 76, 111
2, 95968, Note_off_c, 0, 76, 64
2, 96000, Note_on_c, 0, 74, 103
2, 96256, Note_off_c, 0, 74, 64
2, 96320, Note_on_c, 0, 76, 114
2, 96448, Note_off_c, 0, 76, 64
2, 96480, Note_on_c, 0, 74, 110
2, 96864, Note_off_c, 0, 74, 64
2, 96960, Control_c, 0, 86, 37
2, 97280, Note_on_c, 0, 76, 117
2, 97408, Note_off_c, 0, 76, 64
2, 97440, Note_on_c, 0, 74, 121
2, 98080, Note_off_c, 0, 74, 64
2, 98240, Note_on_c, 0, 71, 115
2, 98368, Note_off_c, 0, 71, 64
2, 98400, Note_on_c, 0, 69, 121
2, 98860, Note_off_c, 0, 69, 64
2, 98880, Control_c, 0, 86, 37
2, 99200, Note_on_c, 0, 74, 108
2, 99328, Note_off_c, 0, 74, 64
2, 99360, Note_on_c, 0, 74, 103
2, 99744, Note_off_c, 0, 74, 64
2, 99840, Note_on_c, 0, 74, 124
2, 100096, Note_off_c, 0, 74, 64
2, 100160, Note_on_c, 0, 71, 112
2, 100300, Note_off_c, 0, 71, 64
2, 100320, Control_c, 0, 86, 37
2, 101120, Note_on_c, 0, 69, 118
2, 101248, Note_off_c, 0, 69, 64
2, 101280, Note_on_c, 0, 71, 114
2, 101408, Note_off_c, 0, 71, 64
2, 101440, Note_on_c, 0, 74, 119
2, 101568, Note_off_c, 0, 74, 64
2, 101600, Note_on_c, 0, 78, 122
2, 102700, Note_off_c, 0, 78, 64
2, 102720, Control_c, 0, 86, 37
2, 103200, Note_on_c, 0, 81, 115
2, 103328, Note_off_c, 0, 81, 64
2, 103360, Note_on_c, 0, 81, 101
2, 103488, Note_off_c, 0, 81, 64
2, 103520, Note_on_c, 0, 78, 101
2, 103904, Note_off_c, 0, 78, 64
2, 104000, Note_on_c, 0, 78, 116
2, 104128, Note_off_c, 0, 78, 64
2, 104160, Note_on_c, 0, 76, 116
2, 104416, Note_off_c, 0, 76, 64
2, 104480, Note_on_c, 0, 74, 114
2, 104864, Note_off_c, 0, 74, 64
2, 104960, Note_on_c, 0, 78, 113
2, 105088, Note_off_c, 0, 78, 64
2, 105120, Note_on_c, 0, 76, 118
2, 105376, Note_off_c, 0, 76, 64
2, 105440, Note_on_c, 0, 74, 123
2, 105568, Note_off_c, 0, 74, 64
2, 105600, Note_on_c, 0, 76, 124
2, 105856, Note_off_c, 0, 76, 64
2, 105920, Note_on_c, 0, 74, 121
2, 106304, Note_off_c, 0, 74, 64
2, 106400, Note_on_c, 0, 71, 118
2, 106656, Note_off_c, 0, 71, 64
2, 106720, Note_on_c, 0, 71, 123
2, 106848, Note_off_c, 0, 71, 64
2, 106880, Note_on_c, 0, 74, 116
2, 107008, Note_off_c, 0, 74, 64
2, 107040, Note_on_c, 0, 74, 115
2, 107168, Note_off_c, 0, 74, 64
2, 107200, Note_on_c, 0, 74, 123
2, 107328, Note_off_c, 0, 74, 64
2, 107360, Note_on_c, 0, 71, 101
2, 107488, Note_off_c, 0, 71, 64
2, 107520, Note_on_c, 0, 74, 116
2, 107776, Note_off_c, 0, 74, 64
2, 107840, Note_on_c, 0, 71, 120
2, 107980, Note_off_c, 0, 71, 64
2, 108000, Control_c, 0, 86, 37
2, 108480, Control_c, 0, 86, 37
2, 108800, Note_on_c, 0, 78, 117
2, 109056, Note_off_c, 0, 78, 64
2, 109120, Note_on_c, 0, 78, 124
2, 109376, Note_off_c, 0, 78, 64
2, 109440, Note_on_c, 0, 81, 105
2, 109696, Note_off_c, 0, 81, 64
2, 109760, Note_on_c, 0, 81, 104
2, 109888, Note_off_c, 0, 81, 64
2, 109920, Note_on_c, 0, 83, 117
2, 110304, Note_off_c, 0, 83, 64
2, 110400, Control_c, 0, 86, 37
2, 110720, Note_on_c, 0, 81, 97
2, 110976, Note_off_c, 0, 81, 64
2, 111040, Note_on_c, 0, 78, 124
2, 111168, Note_off_c, 0, 78, 64
2, 111200, Note_on_c, 0, 76, 115
2, 111328, Note_off_c, 0, 76, 64
2, 111360, Note_on_c, 0, 76, 110
2, 111616, Note_off_c, 0, 76, 64
2, 111680, Note_on_c, 0, 74, 107
2, 111820, Note_off_c, 0, 74, 64
2, 111840, Control_c, 0, 86, 37
2, 112320, Control_c, 0, 86, 37
2, 112640, Note_on_c, 0, 78, 121
2, 112768, Note_off_c, 0, 78, 64
2, 112800, Note_on_c, 0, 81, 123
2, 112928, Note_off_c, 0, 81, 64
2, 112960, Note_on_c, 0, 81, 119
2, 113088, Note_off_c, 0, 81, 64
2, 113120, Note_on_c, 0, 78, 116
2, 113248, Note_off_c, 0, 78, 64
2, 113280, Note_on_c, 0, 81, 124
2, 113536, Note_off_c, 0, 81, 64
2, 113600, Note_on_c, 0, 81, 104
2, 113740, Note_off_c, 0, 81, 64
2, 113760, Control_c, 0, 86, 37
2, 114080, Note_on_c, 0, 81, 124
2, 114220, Note_off_c, 0, 81, 64
2, 114240, Control_c, 0, 86, 37
2, 114560, Note_on_c, 0, 78, 121
2, 114700, Note_off_c, 0, 78, 64
2, 114720, Control_c, 0, 86, 37
2, 115040, Note_on_c, 0, 74, 112
2, 115168, Note_off_c, 0, 74, 64
2, 115200, Note_on_c, 0, 72, 117
2, 115456, Note_off_c, 0, 72, 64
2, 115520, Note_on_c, 0, 72, 112
2, 115648, Note_off_c, 0, 72, 64
2, 115680, Note_on_c, 0, 74, 106
2, 115936, Note_off_c, 0, 74, 64
2, 116000, Note_on_c, 0, 72, 119
2, 116128, Note_off_c, 0, 72, 64
2, 116160, Note_on_c, 0, 74, 116
2, 116544, Note_off_c, 0, 74, 64
2, 116640, Note_on_c, 0, 71, 111
2, 117024, Note_off_c, 0, 71, 64
2, 120320, Note_on_c, 0, 78, 120
2, 120576, Note_off_c, 0, 78, 64
2, 120640, Note_on_c, 0, 78, 104
2, 120896, Note_off_c, 0, 78, 64
2, 120960, Note_on_c, 0, 78, 111
2, 121344, Note_off_c, 0, 78, 64
2, 121440, Note_on_c, 0, 76, 115
2, 121824, Note_off_c, 0, 76, 64
2, 124320, Control_c, 0, 86, 37
2, 127680, Note_on_c, 0, 79, 124
2, 127936, Note_off_c, 0, 79, 64
2, 128000, Note_on_c, 0, 82, 114
2, 128128, Note_off_c, 0, 82, 64
2, 128160, Note_on_c, 0, 82, 112
2, 128416, Note_off_c, 0, 82, 64
2, 128480, Note_on_c, 0, 79, 118
2, 128608, Note_off_c, 0, 79, 64
2, 128640, Note_on_c, 0, 79, 117
2, 128896, Note_off_c, 0, 79, 64
2, 128960, Note_on_c, 0, 79, 115
2, 129088, Note_off_c, 0, 79, 64
2, 129120, Note_on_c, 0, 77, 100
2, 129504, Note_off_c, 0, 77, 64
2, 132000, Control_c, 0, 86, 37
2, 135360, Note_on_c, 0, 79, 106
2, 135616, Note_off_c, 0, 79, 64
2, 135680, Note_on_c, 0, 82, 101
2, 135808, Note_off_c, 0, 82, 64
2, 135840, Note_on_c, 0, 82, 112
2, 136096, Note_off_c, 0, 82, 64
2, 136160, Note_on_c, 0, 79, 101
2, 136288, Note_off_c, 0, 79, 64
2, 136320, Note_on_c, 0, 79, 119
2, 136320, Control_c, 0, 7, 108
2, 136560, Control_c, 0, 7, 105
2, 136576, Note_off_c, 0, 79, 64
2, 136640, Note_on_c, 0, 79, 112
2, 136768, Note_off_c, 0, 79, 64
2, 136800, Note_on_c, 0, 77, 121
2, 136800, Control_c, 0, 7, 103
2, 137040, Control_c, 0, 7, 101
2, 137184, Note_off_c, 0, 77, 64
2, 137280, Control_c, 0, 7, 98
2, 137520, Control_c, 0, 7, 96
2, 137760, Control_c, 0, 7, 94
2, 138000, Control_c, 0, 7, 92
2, 138240, Control_c, 0, 7, 89
2, 138480, Control_c, 0, 7, 87
2, 138720, Control_c, 0, 7, 85
2, 138960, Control_c, 0, 7, 83
2, 139200, Control_c, 0, 7, 80
2, 139440, Control_c, 0, 7, 78
2, 139680, Control_c, 0, 7, 76
2, 139920, Control_c, 0, 7, 74
2, 140160, Control_c, 0, 7, 71
2, 140400, Control_c, 0, 7, 69
2, 140640, Control_c, 0, 7, 67
2, 140880, Control_c, 0, 7, 65
2, 141120, Control_c, 0, 7, 62
2, 141360, Control_c, 0, 7, 60
2, 141600, Control_c, 0, 7, 58
2, 141840, Control_c, 0, 7, 56
2, 142080, Control_c, 0, 7, 53
2, 142320, Control_c, 0, 7, 51
2, 142560, Control_c, 0, 7, 49
2, 142800, Control_c, 0, 7, 47
2, 143040, Note_on_c, 0, 79, 104
2, 143040, Control_c, 0, 7, 44
2, 143280, Control_c, 0, 7, 42
2, 143296, Note_off_c, 0, 79, 64
2, 143360, Note_on_c, 0, 82, 115
2, 143488, Note_off_c, 0, 82, 64
2, 143520, Note_on_c, 0, 82, 104
2, 143520, Control_c, 0, 7, 40
2, 143760, Control_c, 0, 7, 38
2, 143776, Note_off_c, 0, 82, 64
2, 143840, Note_on_c, 0, 79, 111
2, 143968, Note_off_c, 0, 79, 64
2, 144000, Note_on_c, 0, 79, 120
2, 144000, Control_c, 0, 7, 35
2, 144240, Control_c, 0, 7, 33
2, 144256, Note_off_c, 0, 79, 64
2, 144320, Note_on_c, 0, 79, 102
2, 144448, Note_off_c, 0, 79, 64
2, 144480, Note_on_c, 0, 77, 117
2, 144480, Control_c, 0, 7, 31
2, 144720, Control_c, 0, 7, 29
2, 144864, Note_off_c, 0, 77, 64
2, 144960, Control_c, 0, 7, 26
2, 145200, Control_c, 0, 7, 24
2, 145440, Control_c, 0, 7, 22
2, 145680, Control_c, 0, 7, 20
2, 145920, Control_c, 0, 7, 17
2, 146160, Control_c, 0, 7, 15
2, 146400, Control_c, 0, 7, 13
2, 146640, Control_c, 0, 7, 11
2, 146880, Control_c, 0, 7, 8
2, 147120, Control_c, 0, 7, 6
2, 147360, Control_c, 0, 7, 4
2, 147600, Control_c, 0, 7, 2
2, 147600, End_track
3, 0, Start_track
3, 0, Title_t, "Sax"
3, 0, MIDI_port, 0
3, 0, Channel_prefix, 1
3, 0, Control_c, 1, 7, 127
3, 0, Control_c, 1, 10, 40
3, 0, Control_c, 1, 32, 0
3, 0, Control_c, 1, 91, 64
3, 0, Control_c, 1, 93, 84
3, 0, Program_c, 1, 66
3, 0, Control_c, 1, 123, 0
3, 32640, Note_on_c, 1, 74, 90
3, 32640, Note_on_c, 1, 69, 100
3, 32640, Note_on_c, 1, 78, 90
3, 33024, Note_off_c, 1, 78, 64
3, 33024, Note_off_c, 1, 69, 64
3, 33024, Note_off_c, 1, 74, 64
3, 33120, Note_on_c, 1, 67, 94
3, 33120, Note_on_c, 1, 71, 100
3, 33120, Note_on_c, 1, 76, 90
3, 33504, Note_off_c, 1, 76, 64
3, 33504, Note_off_c, 1, 71, 64
3, 33504, Note_off_c, 1, 67, 64
3, 33600, Note_on_c, 1, 66, 98
3, 33600, Note_on_c, 1, 69, 92
3, 33600, Note_on_c, 1, 74, 90
3, 33984, Note_off_c, 1, 74, 64
3, 33984, Note_off_c, 1, 69, 64
3, 33984, Note_off_c, 1, 66, 64
3, 34080, Note_on_c, 1, 67, 97
3, 34080, Note_on_c, 1, 71, 102
3, 34080, Note_on_c, 1, 76, 90
3, 34464, Note_off_c, 1, 76, 64
3, 34464, Note_off_c, 1, 71, 64
3, 34464, Note_off_c, 1, 67, 64
3, 34560, Note_on_c, 1, 69, 98
3, 34560, Note_on_c, 1, 74, 86
3, 34560, Note_on_c, 1, 78, 90
3, 34816, Note_off_c, 1, 78, 64
3, 34816, Note_off_c, 1, 74, 64
3, 34816, Note_off_c, 1, 69, 64
3, 34880, Note_on_c, 1, 69, 93
3, 34880, Note_on_c, 1, 74, 100
3, 34880, Note_on_c, 1, 78, 90
3, 35008, Note_off_c, 1, 78, 64
3, 35008, Note_off_c, 1, 74, 64
3, 35008, Note_off_c, 1, 69, 64
3, 35040, Note_on_c, 1, 67, 104
3, 35040, Note_on_c, 1, 71, 101
3, 35040, Note_on_c, 1, 76, 90
3, 35424, Note_off_c, 1, 76, 64
3, 35424, Note_off_c, 1, 71, 64
3, 35424, Note_off_c, 1, 67, 64
3, 35520, Note_on_c, 1, 69, 93
3, 35520, Note_on_c, 1, 66, 98
3, 35520, Note_on_c, 1, 74, 90
3, 35880, Note_off_c, 1, 74, 64
3, 35880, Note_off_c, 1, 66, 64
3, 35880, Note_off_c, 1, 69, 64
3, 36480, Note_on_c, 1, 69, 94
3, 36480, Note_on_c, 1, 74, 103
3, 36480, Note_on_c, 1, 78, 90
3, 36864, Note_off_c, 1, 78, 64
3, 36864, Note_off_c, 1, 74, 64
3, 36864, Note_off_c, 1, 69, 64
3, 36960, Note_on_c, 1, 67, 98
3, 36960, Note_on_c, 1, 71, 77
3, 36960, Note_on_c, 1, 76, 90
3, 37344, Note_off_c, 1, 76, 64
3, 37344, Note_off_c, 1, 71, 64
3, 37344, Note_off_c, 1, 67, 64
3, 37440, Note_on_c, 1, 66, 91
3, 37440, Note_on_c, 1, 69, 104
3, 37440, Note_on_c, 1, 74, 90
3, 37824, Note_off_c, 1, 74, 64
3, 37824, Note_off_c, 1, 69, 64
3, 37824, Note_off_c, 1, 66, 64
3, 37920, Note_on_c, 1, 67, 99
3, 37920, Note_on_c, 1, 71, 87
3, 37920, Note_on_c, 1, 76, 90
3, 38304, Note_off_c, 1, 76, 64
3, 38304, Note_off_c, 1, 71, 64
3, 38304, Note_off_c, 1, 67, 64
3, 38400, Note_on_c, 1, 69, 98
3, 38400, Note_on_c, 1, 74, 93
3, 38400, Note_on_c, 1, 78, 90
3, 38656, Note_off_c, 1, 78, 64
3, 38656, Note_off_c, 1, 74, 64
3, 38656, Note_off_c, 1, 69, 64
3, 38720, Note_on_c, 1, 69, 103
3, 38720, Note_on_c, 1, 74, 94
3, 38720, Note_on_c, 1, 78, 90
3, 38848, Note_off_c, 1, 78, 64
3, 38848, Note_off_c, 1, 74, 64
3, 38848, Note_off_c, 1, 69, 64
3, 38880, Note_on_c, 1, 67, 87
3, 38880, Note_on_c, 1, 71, 102
3, 38880, Note_on_c, 1, 76, 90
3, 39264, Note_off_c, 1, 76, 64
3, 39264, Note_off_c, 1, 71, 64
3, 39264, Note_off_c, 1, 67, 64
3, 39360, Note_on_c, 1, 69, 101
3, 39360, Note_on_c, 1, 66, 87
3, 39360, Note_on_c, 1, 74, 90
3, 39720, Note_off_c, 1, 74, 64
3, 39720, Note_off_c, 1, 66, 64
3, 39720, Note_off_c, 1, 69, 64
3, 63360, Note_on_c, 1, 74, 103
3, 63360, Note_on_c, 1, 69, 83
3, 63360, Note_on_c, 1, 78, 90
3, 63744, Note_off_c, 1, 78, 64
3, 63744, Note_off_c, 1, 69, 64
3, 63744, Note_off_c, 1, 74, 64
3, 63840, Note_on_c, 1, 67, 102
3, 63840, Note_on_c, 1, 71, 87
3, 63840, Note_on_c, 1, 76, 90
3, 64224, Note_off_c, 1, 76, 64
3, 64224, Note_off_c, 1, 71, 64
3, 64224, Note_off_c, 1, 67, 64
3, 64320, Note_on_c, 1, 66, 104
3, 64320, Note_on_c, 1, 69, 95
3, 64320, Note_on_c, 1, 74, 90
3, 64704, Note_off_c, 1, 74, 64
3, 64704, Note_off_c, 1, 69, 64
3, 64704, Note_off_c, 1, 66, 64
3, 64800, Note_on_c, 1, 67, 100
3, 64800, Note_on_c, 1, 71, 96
3, 64800, Note_on_c, 1, 76, 90
3, 65184, Note_off_c, 1, 76, 64
3, 65184, Note_off_c, 1, 71, 64
3, 65184, Note_off_c, 1, 67, 64
3, 65280, Note_on_c, 1, 69, 101
3, 65280, Note_on_c, 1, 74, 88
3, 65280, Note_on_c, 1, 78, 90
3, 65536, Note_off_c, 1, 78, 64
3, 65536, Note_off_c, 1, 74, 64
3, 65536, Note_off_c, 1, 69, 64
3, 65600, Note_on_c, 1, 69, 88
3, 65600, Note_on_c, 1, 74, 101
3, 65600, Note_on_c, 1, 78, 90
3, 65728, Note_off_c, 1, 78, 64
3, 65728, Note_off_c, 1, 74, 64
3, 65728, Note_off_c, 1, 69, 64
3, 65760, Note_on_c, 1, 67, 97
3, 65760, Note_on_c, 1, 71, 104
3, 65760, Note_on_c, 1, 76, 90
3, 66144, Note_off_c, 1, 76, 64
3, 66144, Note_off_c, 1, 71, 64
3, 66144, Note_off_c, 1, 67, 64
3, 66240, Note_on_c, 1, 69, 91
3, 66240, Note_on_c, 1, 66, 103
3, 66240, Note_on_c, 1, 74, 90
3, 66600, Note_off_c, 1, 74, 64
3, 66600, Note_off_c, 1, 66, 64
3, 66600, Note_off_c, 1, 69, 64
3, 67200, Note_on_c, 1, 69, 87
3, 67200, Note_on_c, 1, 74, 89
3, 67200, Note_on_c, 1, 78, 90
3, 67584, Note_off_c, 1, 78, 64
3, 67584, Note_off_c, 1, 74, 64
3, 67584, Note_off_c, 1, 69, 64
3, 67680, Note_on_c, 1, 67, 90
3, 67680, Note_on_c, 1, 71, 85
3, 67680, Note_on_c, 1, 76, 90
3, 68064, Note_off_c, 1, 76, 64
3, 68064, Note_off_c, 1, 71, 64
3, 68064, Note_off_c, 1, 67, 64
3, 68160, Note_on_c, 1, 66, 78
3, 68160, Note_on_c, 1, 69, 103
3, 68160, Note_on_c, 1, 74, 90
3, 68544, Note_off_c, 1, 74, 64
3, 68544, Note_off_c, 1, 69, 64
3, 68544, Note_off_c, 1, 66, 64
3, 68640, Note_on_c, 1, 67, 100
3, 68640, Note_on_c, 1, 71, 88
3, 68640, Note_on_c, 1, 76, 90
3, 69024, Note_off_c, 1, 76, 64
3, 69024, Note_off_c, 1, 71, 64
3, 69024, Note_off_c, 1, 67, 64
3, 69120, Note_on_c, 1, 69, 96
3, 69120, Note_on_c, 1, 74, 82
3, 69120, Note_on_c, 1, 78, 90
3, 69376, Note_off_c, 1, 78, 64
3, 69376, Note_off_c, 1, 74, 64
3, 69376, Note_off_c, 1, 69, 64
3, 69440, Note_on_c, 1, 69, 95
3, 69440, Note_on_c, 1, 74, 98
3, 69440, Note_on_c, 1, 78, 90
3, 69568, Note_off_c, 1, 78, 64
3, 69568, Note_off_c, 1, 74, 64
3, 69568, Note_off_c, 1, 69, 64
3, 69600, Note_on_c, 1, 67, 96
3, 69600, Note_on_c, 1, 71, 99
3, 69600, Note_on_c, 1, 76, 90
3, 69984, Note_off_c, 1, 76, 64
3, 69984, Note_off_c, 1, 71, 64
3, 69984, Note_off_c, 1, 67, 64
3, 70080, Note_on_c, 1, 66, 100
3, 70080, Note_on_c, 1, 69, 97
3, 70080, Note_on_c, 1, 74, 90
3, 70540, Note_off_c, 1, 74, 64
3, 70540, Note_off_c, 1, 69, 64
3, 70540, Note_off_c, 1, 66, 64
3, 70560, Control_c, 1, 86, 37
3, 117120, Note_on_c, 1, 74, 88
3, 117120, Note_on_c, 1, 69, 85
3, 117120, Note_on_c, 1, 78, 90
3, 117504, Note_off_c, 1, 78, 64
3, 117504, Note_off_c, 1, 69, 64
3, 117504, Note_off_c, 1, 74, 64
3, 117600, Note_on_c, 1, 67, 103
3, 117600, Note_on_c, 1, 71, 93
3, 117600, Note_on_c, 1, 76, 90
3, 117984, Note_off_c, 1, 76, 64
3, 117984, Note_off_c, 1, 71, 64
3, 117984, Note_off_c, 1, 67, 64
3, 118080, Note_on_c, 1, 66, 97
3, 118080, Note_on_c, 1, 69, 96
3, 118080, Note_on_c, 1, 74, 90
3, 118464, Note_off_c, 1, 74, 64
3, 118464, Note_off_c, 1, 69, 64
3, 118464, Note_off_c, 1, 66, 64
3, 118560, Note_on_c, 1, 67, 104
3, 118560, Note_on_c, 1, 71, 99
3, 118560, Note_on_c, 1, 76, 90
3, 118944, Note_off_c, 1, 76, 64
3, 118944, Note_off_c, 1, 71, 64
3, 118944, Note_off_c, 1, 67, 64
3, 119040, Note_on_c, 1, 69, 100
3, 119040, Note_on_c, 1, 74, 82
3, 119040, Note_on_c, 1, 78, 90
3, 119296, Note_off_c, 1, 78, 64
3, 119296, Note_off_c, 1, 74, 64
3, 119296, Note_off_c, 1, 69, 64
3, 119360, Note_on_c, 1, 69, 96
3, 119360, Note_on_c, 1, 74, 98
3, 119360, Note_on_c, 1, 78, 90
3, 119488, Note_off_c, 1, 78, 64
3, 119488, Note_off_c, 1, 74, 64
3, 119488, Note_off_c, 1, 69, 64
3, 119520, Note_on_c, 1, 67, 98
3, 119520, Note_on_c, 1, 71, 101
3, 119520, Note_on_c, 1, 76, 90
3, 119904, Note_off_c, 1, 76, 64
3, 119904, Note_off_c, 1, 71, 64
3, 119904, Note_off_c, 1, 67, 64
3, 120000, Note_on_c, 1, 69, 91
3, 120000, Note_on_c, 1, 66, 90
3, 120000, Note_on_c, 1, 74, 90
3, 120360, Note_off_c, 1, 74, 64
3, 120360, Note_off_c, 1, 66, 64
3, 120360, Note_off_c, 1, 69, 64
3, 120960, Note_on_c, 1, 69, 103
3, 120960, Note_on_c, 1, 74, 99
3, 120960, Note_on_c, 1, 78, 90
3, 121344, Note_off_c, 1, 78, 64
3, 121344, Note_off_c, 1, 74, 64
3, 121344, Note_off_c, 1, 69, 64
3, 121440, Note_on_c, 1, 67, 94
3, 121440, Note_on_c, 1, 71, 93
3, 121440, Note_on_c, 1, 76, 90
3, 121824, Note_off_c, 1, 76, 64
3, 121824, Note_off_c, 1, 71, 64
3, 121824, Note_off_c, 1, 67, 64
3, 121920, Note_on_c, 1, 66, 86
3, 121920, Note_on_c, 1, 69, 104
3, 121920, Note_on_c, 1, 74, 90
3, 122304, Note_off_c, 1, 74, 64
3, 122304, Note_off_c, 1, 69, 64
3, 122304, Note_off_c, 1, 66, 64
3, 122400, Note_on_c, 1, 67, 84
3, 122400, Note_on_c, 1, 71, 101
3, 122400, Note_on_c, 1, 76, 90
3, 122784, Note_off_c, 1, 76, 64
3, 122784, Note_off_c, 1, 71, 64
3, 122784, Note_off_c, 1, 67, 64
3, 122880, Note_on_c, 1, 66, 93
3, 122880, Note_on_c, 1, 69, 86
3, 122880, Note_on_c, 1, 74, 103
3, 122880, Note_on_c, 1, 78, 90
3, 123136, Note_off_c, 1, 78, 64
3, 123136, Note_off_c, 1, 74, 64
3, 123136, Note_off_c, 1, 69, 64
3, 123136, Note_off_c, 1, 66, 64
3, 123200, Note_on_c, 1, 66, 95
3, 123200, Note_on_c, 1, 69, 103
3, 123200, Note_on_c, 1, 74, 92
3, 123200, Note_on_c, 1, 78, 90
3, 123328, Note_off_c, 1, 78, 64
3, 123328, Note_off_c, 1, 74, 64
3, 123328, Note_off_c, 1, 69, 64
3, 123328, Note_off_c, 1, 66, 64
3, 123360, Note_on_c, 1, 67, 84
3, 123360, Note_on_c, 1, 71, 93
3, 123360, Note_on_c, 1, 76, 90
3, 123744, Note_off_c, 1, 76, 64
3, 123744, Note_off_c, 1, 71, 64
3, 123744, Note_off_c, 1, 67, 64
3, 123840, Note_on_c, 1, 74, 90
3, 123840, Note_on_c, 1, 69, 93
3, 123840, Note_on_c, 1, 66, 86
3, 124200, Note_off_c, 1, 66, 64
3, 124200, Note_off_c, 1, 69, 64
3, 124200, Note_off_c, 1, 74, 64
3, 124320, Control_c, 1, 86, 37
3, 124800, Note_on_c, 1, 67, 101
3, 124800, Note_on_c, 1, 70, 80
3, 124800, Note_on_c, 1, 75, 90
3, 125184, Note_off_c, 1, 75, 64
3, 125184, Note_off_c, 1, 70, 64
3, 125184, Note_off_c, 1, 67, 64
3, 125280, Note_on_c, 1, 68, 103
3, 125280, Note_on_c, 1, 72, 101
3, 125280, Note_on_c, 1, 77, 90
3, 125664, Note_off_c, 1, 77, 64
3, 125664, Note_off_c, 1, 72, 64
3, 125664, Note_off_c, 1, 68, 64
3, 125760, Note_on_c, 1, 67, 96
3, 125760, Note_on_c, 1, 70, 92
3, 125760, Note_on_c, 1, 75, 90
3, 126144, Note_off_c, 1, 75, 64
3, 126144, Note_off_c, 1, 70, 64
3, 126144, Note_off_c, 1, 67, 64
3, 126240, Note_on_c, 1, 68, 99
3, 126240, Note_on_c, 1, 72, 102
3, 126240, Note_on_c, 1, 77, 90
3, 126624, Note_off_c, 1, 77, 64
3, 126624, Note_off_c, 1, 72, 64
3, 126624, Note_off_c, 1, 68, 64
3, 126720, Note_on_c, 1, 70, 93
3, 126720, Note_on_c, 1, 75, 75
3, 126720, Note_on_c, 1, 79, 90
3, 126976, Note_off_c, 1, 79, 64
3, 126976, Note_off_c, 1, 75, 64
3, 126976, Note_off_c, 1, 70, 64
3, 127040, Note_on_c, 1, 70, 96
3, 127040, Note_on_c, 1, 75, 84
3, 127040, Note_on_c, 1, 79, 90
3, 127168, Note_off_c, 1, 79, 64
3, 127168, Note_off_c, 1, 75, 64
3, 127168, Note_off_c, 1, 70, 64
3, 127200, Note_on_c, 1, 68, 90
3, 127200, Note_on_c, 1, 72, 87
3, 127200, Note_on_c, 1, 77, 90
3, 127584, Note_off_c, 1, 77, 64
3, 127584, Note_off_c, 1, 72, 64
3, 127584, Note_off_c, 1, 68, 64
3, 127680, Note_on_c, 1, 75, 84
3, 127680, Note_on_c, 1, 70, 92
3, 127680, Note_on_c, 1, 79, 90
3, 127680, Note_on_c, 1, 75, 90
3, 127936, Note_off_c, 1, 79, 64
3, 128040, Note_off_c, 1, 70, 64
3, 128040, Note_off_c, 1, 75, 64
3, 128124, Note_off_c, 1, 75, 64
3, 128640, Note_on_c, 1, 75, 90
3, 128640, Note_on_c, 1, 79, 90
3, 128640, Note_on_c, 1, 75, 96
3, 128640, Note_on_c, 1, 70, 94
3, 128880, Note_off_c, 1, 75, 64
3, 129000, Note_off_c, 1, 79, 64
3, 129000, Note_off_c, 1, 75, 64
3, 129000, Note_off_c, 1, 70, 64
3, 129120, Note_on_c, 1, 68, 78
3, 129120, Note_on_c, 1, 72, 88
3, 129120, Note_on_c, 1, 77, 90
3, 129504, Note_off_c, 1, 77, 64
3, 129504, Note_off_c, 1, 72, 64
3, 129504, Note_off_c, 1, 68, 64
3, 129600, Note_on_c, 1, 67, 103
3, 129600, Note_on_c, 1, 70, 93
3, 129600, Note_on_c, 1, 75, 90
3, 129984, Note_off_c, 1, 75, 64
3, 129984, Note_off_c, 1, 70, 64
3, 129984, Note_off_c, 1, 67, 64
3, 130080, Note_on_c, 1, 68, 95
3, 130080, Note_on_c, 1, 72, 77
3, 130080, Note_on_c, 1, 77, 90
3, 130464, Note_off_c, 1, 77, 64
3, 130464, Note_off_c, 1, 72, 64
3, 130464, Note_off_c, 1, 68, 64
3, 130560, Note_on_c, 1, 70, 88
3, 130560, Note_on_c, 1, 75, 88
3, 130560, Note_on_c, 1, 79, 90
3, 130816, Note_off_c, 1, 79, 64
3, 130816, Note_off_c, 1, 75, 64
3, 130816, Note_off_c, 1, 70, 64
3, 130880, Note_on_c, 1, 70, 103
3, 130880, Note_on_c, 1, 75, 96
3, 130880, Note_on_c, 1, 79, 90
3, 131008, Note_off_c, 1, 79, 64
3, 131008, Note_off_c, 1, 75, 64
3, 131008, Note_off_c, 1, 70, 64
3, 131040, Note_on_c, 1, 68, 98
3, 131040, Note_on_c, 1, 72, 101
3, 131040, Note_on_c, 1, 77, 90
3, 131424, Note_off_c, 1, 77, 64
3, 131424, Note_off_c, 1, 72, 64
3, 131424, Note_off_c, 1, 68, 64
3, 131520, Note_on_c, 1, 75, 90
3, 131520, Note_on_c, 1, 70, 96
3, 131520, Note_on_c, 1, 67, 104
3, 131880, Note_off_c, 1, 67, 64
3, 131880, Note_off_c, 1, 70, 64
3, 131880, Note_off_c, 1, 75, 64
3, 132000, Control_c, 1, 86, 37
3, 132480, Note_on_c, 1, 67, 100
3, 132480, Note_on_c, 1, 70, 96
3, 132480, Note_on_c, 1, 75, 90
3, 132864, Note_off_c, 1, 75, 64
3, 132864, Note_off_c, 1, 70, 64
3, 132864, Note_off_c, 1, 67, 64
3, 132960, Note_on_c, 1, 68, 97
3, 132960, Note_on_c, 1, 72, 93
3, 132960, Note_on_c, 1, 77, 90
3, 133344, Note_off_c, 1, 77, 64
3, 133344, Note_off_c, 1, 72, 64
3, 133344, Note_off_c, 1, 68, 64
3, 133440, Note_on_c, 1, 67, 94
3, 133440, Note_on_c, 1, 70, 103
3, 133440, Note_on_c, 1, 75, 90
3, 133824, Note_off_c, 1, 75, 64
3, 133824, Note_off_c, 1, 70, 64
3, 133824, Note_off_c, 1, 67, 64
3, 133920, Note_on_c, 1, 68, 101
3, 133920, Note_on_c, 1, 72, 99
3, 133920, Note_on_c, 1, 77, 90
3, 134304, Note_off_c, 1, 77, 64
3, 134304, Note_off_c, 1, 72, 64
3, 134304, Note_off_c, 1, 68, 64
3, 134400, Note_on_c, 1, 70, 100
3, 134400, Note_on_c, 1, 75, 102
3, 134400, Note_on_c, 1, 79, 90
3, 134656, Note_off_c, 1, 79, 64
3, 134656, Note_off_c, 1, 75, 64
3, 134656, Note_off_c, 1, 70, 64
3, 134720, Note_on_c, 1, 70, 85
3, 134720, Note_on_c, 1, 75, 102
3, 134720, Note_on_c, 1, 79, 90
3, 134848, Note_off_c, 1, 79, 64
3, 134848, Note_off_c, 1, 75, 64
3, 134848, Note_off_c, 1, 70, 64
3, 134880, Note_on_c, 1, 68, 102
3, 134880, Note_on_c, 1, 72, 78
3, 134880, Note_on_c, 1, 77, 90
3, 135264, Note_off_c, 1, 77, 64
3, 135264, Note_off_c, 1, 72, 64
3, 135264, Note_off_c, 1, 68, 64
3, 135360, Note_on_c, 1, 75, 95
3, 135360, Note_on_c, 1, 70, 97
3, 135360, Note_on_c, 1, 75, 90
3, 135360, Note_on_c, 1, 79, 90
3, 135720, Note_off_c, 1, 79, 64
3, 135720, Note_off_c, 1, 75, 64
3, 135720, Note_off_c, 1, 70, 64
3, 135720, Note_off_c, 1, 75, 64
3, 136320, Note_on_c, 1, 75, 90
3, 136320, Note_on_c, 1, 79, 90
3, 136320, Note_on_c, 1, 75, 84
3, 136320, Note_on_c, 1, 70, 88
3, 136320, Control_c, 1, 7, 108
3, 136560, Note_off_c, 1, 75, 64
3, 136560, Control_c, 1, 7, 105
3, 136680, Note_off_c, 1, 79, 64
3, 136680, Note_off_c, 1, 75, 64
3, 136680, Note_off_c, 1, 70, 64
3, 136800, Note_on_c, 1, 68, 95
3, 136800, Note_on_c, 1, 72, 98
3, 136800, Note_on_c, 1, 77, 90
3, 136800, Control_c, 1, 7, 103
3, 137040, Control_c, 1, 7, 101
3, 137184, Note_off_c, 1, 77, 64
3, 137184, Note_off_c, 1, 72, 64
3, 137184, Note_off_c, 1, 68, 64
3, 137280, Note_on_c, 1, 67, 103
3, 137280, Note_on_c, 1, 70, 89
3, 137280, Note_on_c, 1, 75, 90
3, 137280, Control_c, 1, 7, 98
3, 137520, Control_c, 1, 7, 96
3, 137664, Note_off_c, 1, 75, 64
3, 137664, Note_off_c, 1, 70, 64
3, 137664, Note_off_c, 1, 67, 64
3, 137760, Note_on_c, 1, 68, 104
3, 137760, Note_on_c, 1, 72, 93
3, 137760, Note_on_c, 1, 77, 90
3, 137760, Control_c, 1, 7, 94
3, 138000, Control_c, 1, 7, 92
3, 138144, Note_off_c, 1, 77, 64
3, 138144, Note_off_c, 1, 72, 64
3, 138144, Note_off_c, 1, 68, 64
3, 138240, Note_on_c, 1, 70, 82
3, 138240, Note_on_c, 1, 75, 84
3, 138240, Note_on_c, 1, 79, 90
3, 138240, Control_c, 1, 7, 89
3, 138480, Control_c, 1, 7, 87
3, 138496, Note_off_c, 1, 79, 64
3, 138496, Note_off_c, 1, 75, 64
3, 138496, Note_off_c, 1, 70, 64
3, 138560, Note_on_c, 1, 70, 97
3, 138560, Note_on_c, 1, 75, 99
3, 138560, Note_on_c, 1, 79, 90
3, 138688, Note_off_c, 1, 79, 64
3, 138688, Note_off_c, 1, 75, 64
3, 138688, Note_off_c, 1, 70, 64
3, 138720, Note_on_c, 1, 68, 96
3, 138720, Note_on_c, 1, 72, 99
3, 138720, Note_on_c, 1, 77, 90
3, 138720, Control_c, 1, 7, 85
3, 138960, Control_c, 1, 7, 83
3, 139104, Note_off_c, 1, 77, 64
3, 139104, Note_off_c, 1, 72, 64
3, 139104, Note_off_c, 1, 68, 64
3, 139200, Note_on_c, 1, 75, 90
3, 139200, Note_on_c, 1, 70, 90
3, 139200, Note_on_c, 1, 67, 98
3, 139200, Control_c, 1, 7, 80
3, 139440, Control_c, 1, 7, 78
3, 139560, Note_off_c, 1, 67, 64
3, 139560, Note_off_c, 1, 70, 64
3, 139560, Note_off_c, 1, 75, 64
3, 139680, Control_c, 1, 86, 37
3, 139680, Control_c, 1, 7, 76
3, 139920, Control_c, 1, 7, 74
3, 140160, Note_on_c, 1, 67, 98
3, 140160, Note_on_c, 1, 70, 86
3, 140160, Note_on_c, 1, 75, 90
3, 140160, Control_c, 1, 7, 71
3, 140400, Control_c, 1, 7, 69
3, 140544, Note_off_c, 1, 75, 64
3, 140544, Note_off_c, 1, 70, 64
3, 140544, Note_off_c, 1, 67, 64
3, 140640, Note_on_c, 1, 68, 96
3, 140640, Note_on_c, 1, 72, 104
3, 140640, Note_on_c, 1, 77, 90
3, 140640, Control_c, 1, 7, 67
3, 140880, Control_c, 1, 7, 65
3, 141024, Note_off_c, 1, 77, 64
3, 141024, Note_off_c, 1, 72, 64
3, 141024, Note_off_c, 1, 68, 64
3, 141120, Note_on_c, 1, 67, 104
3, 141120, Note_on_c, 1, 70, 93
3, 141120, Note_on_c, 1, 75, 90
3, 141120, Control_c, 1, 7, 62
3, 141360, Control_c, 1, 7, 60
3, 141504, Note_off_c, 1, 75, 64
3, 141504, Note_off_c, 1, 70, 64
3, 141504, Note_off_c, 1, 67, 64
3, 141600, Note_on_c, 1, 68, 103
3, 141600, Note_on_c, 1, 72, 84
3, 141600, Note_on_c, 1, 77, 90
3, 141600, Control_c, 1, 7, 58
3, 141840, Control_c, 1, 7, 56
3, 141984, Note_off_c, 1, 77, 64
3, 141984, Note_off_c, 1, 72, 64
3, 141984, Note_off_c, 1, 68, 64
3, 142080, Note_on_c, 1, 70, 95
3, 142080, Note_on_c, 1, 75, 98
3, 142080, Note_on_c, 1, 79, 90
3, 142080, Control_c, 1, 7, 53
3, 142320, Control_c, 1, 7, 51
3, 142336, Note_off_c, 1, 79, 64
3, 142336, Note_off_c, 1, 75, 64
3, 142336, Note_off_c, 1, 70, 64
3, 142400, Note_on_c, 1, 70, 95
3, 142400, Note_on_c, 1, 75, 100
3, 142400, Note_on_c, 1, 79, 90
3, 142528, Note_off_c, 1, 79, 64
3, 142528, Note_off_c, 1, 75, 64
3, 142528, Note_off_c, 1, 70, 64
3, 142560, Note_on_c, 1, 68, 100
3, 142560, Note_on_c, 1, 72, 103
3, 142560, Note_on_c, 1, 77, 90
3, 142560, Control_c, 1, 7, 49
3, 142800, Control_c, 1, 7, 47
3, 142944, Note_off_c, 1, 77, 64
3, 142944, Note_off_c, 1, 72, 64
3, 142944, Note_off_c, 1, 68, 64
3, 143040, Note_on_c, 1, 75, 89
3, 143040, Note_on_c, 1, 70, 98
3, 143040, Note_on_c, 1, 75, 90
3, 143040, Note_on_c, 1, 79, 90
3, 143040, Control_c, 1, 7, 44
3, 143280, Control_c, 1, 7, 42
3, 143400, Note_off_c, 1, 79, 64
3, 143400, Note_off_c, 1, 75, 64
3, 143400, Note_off_c, 1, 70, 64
3, 143400, Note_off_c, 1, 75, 64
3, 143520, Control_c, 1, 7, 40
3, 143760, Control_c, 1, 7, 38
3, 144000, Note_on_c, 1, 79, 90
3, 144000, Note_on_c, 1, 75, 97
3, 144000, Note_on_c, 1, 70, 83
3, 144000, Control_c, 1, 7, 35
3, 144240, Control_c, 1, 7, 33
3, 144360, Note_off_c, 1, 70, 64
3, 144360, Note_off_c, 1, 75, 64
3, 144360, Note_off_c, 1, 79, 64
3, 144480, Note_on_c, 1, 68, 90
3, 144480, Note_on_c, 1, 72, 94
3, 144480, Note_on_c, 1, 77, 90
3, 144480, Control_c, 1, 7, 31
3, 144720, Control_c, 1, 7, 29
3, 144864, Note_off_c, 1, 77, 64
3, 144864, Note_off_c, 1, 72, 64
3, 144864, Note_off_c, 1, 68, 64
3, 144960, Note_on_c, 1, 67, 100
3, 144960, Note_on_c, 1, 70, 104
3, 144960, Note_on_c, 1, 75, 90
3, 144960, Control_c, 1, 7, 26
3, 145200, Control_c, 1, 7, 24
3, 145344, Note_off_c, 1, 75, 64
3, 145344, Note_off_c, 1, 70, 64
3, 145344, Note_off_c, 1, 67, 64
3, 145440, Note_on_c, 1, 68, 101
3, 145440, Note_on_c, 1, 72, 100
3, 145440, Note_on_c, 1, 77, 90
3, 145440, Control_c, 1, 7, 22
3, 145680, Control_c, 1, 7, 20
3, 145824, Note_off_c, 1, 77, 64
3, 145824, Note_off_c, 1, 72, 64
3, 145824, Note_off_c, 1, 68, 64
3, 145920, Note_on_c, 1, 70, 101
3, 145920, Note_on_c, 1, 75, 95
3, 145920, Note_on_c, 1, 79, 90
3, 145920, Control_c, 1, 7, 17
3, 146160, Control_c, 1, 7, 15
3, 146176, Note_off_c, 1, 79, 64
3, 146176, Note_off_c, 1, 75, 64
3, 146176, Note_off_c, 1, 70, 64
3, 146240, Note_on_c, 1, 70, 91
3, 146240, Note_on_c, 1, 75, 98
3, 146240, Note_on_c, 1, 79, 90
3, 146368, Note_off_c, 1, 79, 64
3, 146368, Note_off_c, 1, 75, 64
3, 146368, Note_off_c, 1, 70, 64
3, 146400, Note_on_c, 1, 68, 102
3, 146400, Note_on_c, 1, 72, 79
3, 146400, Note_on_c, 1, 77, 90
3, 146400, Control_c, 1, 7, 13
3, 146640, Control_c, 1, 7, 11
3, 146784, Note_off_c, 1, 77, 64
3, 146784, Note_off_c, 1, 72, 64
3, 146784, Note_off_c, 1, 68, 64
3, 146880, Note_on_c, 1, 67, 82
3, 146880, Note_on_c, 1, 70, 96
3, 146880, Note_on_c, 1, 75, 90
3, 146880, Control_c, 1, 7, 8
3, 147120, Control_c, 1, 7, 6
3, 147340, Note_off_c, 1, 75, 64
3, 147340, Note_off_c, 1, 70, 64
3, 147340, Note_off_c, 1, 67, 64
3, 147360, Control_c, 1, 86, 37
3, 147360, Control_c, 1, 7, 4
3, 147600, Control_c, 1, 7, 2
3, 147600, End_track
4, 0, Start_track
4, 0, Title_t, "Piano"
4, 0, MIDI_port, 0
4, 0, Channel_prefix, 2
4, 0, Control_c, 2, 7, 114
4, 0, Control_c, 2, 10, 16
4, 0, Control_c, 2, 32, 0
4, 0, Control_c, 2, 91, 64
4, 0, Control_c, 2, 93, 84
4, 0, Program_c, 2, 0
4, 0, Control_c, 2, 123, 0
4, 0, Control_c, 2, 123, 0
4, 1920, Note_on_c, 2, 66, 90
4, 1920, Note_on_c, 2, 69, 104
4, 1920, Note_on_c, 2, 38, 103
4, 2304, Note_off_c, 2, 38, 64
4, 2304, Note_off_c, 2, 69, 64
4, 2304, Note_off_c, 2, 66, 64
4, 2400, Note_on_c, 2, 67, 103
4, 2400, Note_on_c, 2, 71, 90
4, 2400, Note_on_c, 2, 40, 96
4, 2784, Note_off_c, 2, 40, 64
4, 2784, Note_off_c, 2, 71, 64
4, 2784, Note_off_c, 2, 67, 64
4, 2880, Note_on_c, 2, 66, 94
4, 2880, Note_on_c, 2, 69, 88
4, 2880, Note_on_c, 2, 38, 78
4, 3264, Note_off_c, 2, 38, 64
4, 3264, Note_off_c, 2, 69, 64
4, 3264, Note_off_c, 2, 66, 64
4, 3360, Control_c, 2, 86, 37
4, 3360, Note_on_c, 2, 40, 83
4, 3744, Note_off_c, 2, 40, 64
4, 3840, Note_on_c, 2, 66, 91
4, 3840, Note_on_c, 2, 69, 103
4, 3840, Note_on_c, 2, 38, 89
4, 4224, Note_off_c, 2, 38, 64
4, 4224, Note_off_c, 2, 69, 64
4, 4224, Note_off_c, 2, 66, 64
4, 4320, Note_on_c, 2, 67, 93
4, 4320, Note_on_c, 2, 71, 104
4, 4320, Note_on_c, 2, 40, 104
4, 4704, Note_off_c, 2, 40, 64
4, 4704, Note_off_c, 2, 71, 64
4, 4704, Note_off_c, 2, 67, 64
4, 4800, Note_on_c, 2, 66, 90
4, 4800, Note_on_c, 2, 69, 103
4, 4800, Note_on_c, 2, 38, 94
4, 5184, Note_off_c, 2, 38, 64
4, 5184, Note_off_c, 2, 69, 64
4, 5184, Note_off_c, 2, 66, 64
4, 5280, Control_c, 2, 86, 37
4, 5280, Note_on_c, 2, 40, 98
4, 5664, Note_off_c, 2, 40, 64
4, 5760, Note_on_c, 2, 66, 84
4, 5760, Note_on_c, 2, 69, 95
4, 5760, Note_on_c, 2, 38, 85
4, 6144, Note_off_c, 2, 38, 64
4, 6144, Note_off_c, 2, 69, 64
4, 6144, Note_off_c, 2, 66, 64
4, 6240, Note_on_c, 2, 67, 98
4, 6240, Note_on_c, 2, 71, 98
4, 6240, Note_on_c, 2, 40, 88
4, 6624, Note_off_c, 2, 40, 64
4, 6624, Note_off_c, 2, 71, 64
4, 6624, Note_off_c, 2, 67, 64
4, 6720, Note_on_c, 2, 66, 96
4, 6720, Note_on_c, 2, 69, 99
4, 6720, Note_on_c, 2, 38, 100
4, 7104, Note_off_c, 2, 38, 64
4, 7104, Note_off_c, 2, 69, 64
4, 7104, Note_off_c, 2, 66, 64
4, 7200, Note_on_c, 2, 67, 102
4, 7200, Note_on_c, 2, 71, 93
4, 7200, Note_on_c, 2, 40, 80
4, 7584, Note_off_c, 2, 40, 64
4, 7584, Note_off_c, 2, 71, 64
4, 7584, Note_off_c, 2, 67, 64
4, 7680, Note_on_c, 2, 66, 82
4, 7680, Note_on_c, 2, 69, 95
4, 7680, Note_on_c, 2, 38, 89
4, 8064, Note_off_c, 2, 38, 64
4, 8064, Note_off_c, 2, 69, 64
4, 8064, Note_off_c, 2, 66, 64
4, 8160, Note_on_c, 2, 67, 94
4, 8160, Note_on_c, 2, 71, 87
4, 8160, Note_on_c, 2, 40, 93
4, 8544, Note_off_c, 2, 40, 64
4, 8544, Note_off_c, 2, 71, 64
4, 8544, Note_off_c, 2, 67, 64
4, 8640, Note_on_c, 2, 66, 91
4, 8640, Note_on_c, 2, 69, 102
4, 8640, Note_on_c, 2, 38, 102
4, 8896, Note_off_c, 2, 38, 64
4, 8896, Note_off_c, 2, 69, 64
4, 8896, Note_off_c, 2, 66, 64
4, 8960, Note_on_c, 2, 45, 93
4, 9088, Note_off_c, 2, 45, 64
4, 9120, Note_on_c, 2, 47, 92
4, 9376, Note_off_c, 2, 47, 64
4, 9440, Note_on_c, 2, 69, 95
4, 9440, Note_on_c, 2, 74, 102
4, 9440, Note_on_c, 2, 49, 91
4, 9568, Note_off_c, 2, 49, 64
4, 9600, Note_on_c, 2, 50, 89
4, 9984, Note_off_c, 2, 50, 64
4, 10080, Note_on_c, 2, 47, 100
4, 10464, Note_off_c, 2, 47, 64
4, 10560, Note_on_c, 2, 45, 103
4, 10944, Note_off_c, 2, 45, 64
4, 10976, Note_off_c, 2, 74, 64
4, 10976, Note_off_c, 2, 69, 64
4, 11040, Note_on_c, 2, 42, 99
4, 11360, Note_on_c, 2, 67, 104
4, 11360, Note_on_c, 2, 71, 100
4, 11424, Note_off_c, 2, 42, 64
4, 11520, Note_on_c, 2, 43, 104
4, 11904, Note_off_c, 2, 43, 64
4, 12000, Note_on_c, 2, 52, 98
4, 12384, Note_off_c, 2, 52, 64
4, 12460, Note_off_c, 2, 67, 64
4, 12460, Note_off_c, 2, 71, 64
4, 12480, Control_c, 2, 86, 37
4, 12480, Note_on_c, 2, 50, 95
4, 12800, Note_on_c, 2, 67, 88
4, 12800, Note_on_c, 2, 71, 104
4, 12864, Note_off_c, 2, 50, 64
4, 12960, Note_on_c, 2, 47, 93
4, 13184, Note_off_c, 2, 67, 64
4, 13184, Note_off_c, 2, 71, 64
4, 13280, Note_on_c, 2, 67, 96
4, 13280, Note_on_c, 2, 71, 104
4, 13344, Note_off_c, 2, 47, 64
4, 13440, Note_on_c, 2, 38, 96
4, 13664, Note_off_c, 2, 67, 64
4, 13664, Note_off_c, 2, 71, 64
4, 13760, Note_on_c, 2, 62, 82
4, 13760, Note_on_c, 2, 66, 100
4, 13824, Note_off_c, 2, 38, 64
4, 13920, Note_on_c, 2, 47, 103
4, 14304, Note_off_c, 2, 47, 64
4, 14380, Note_off_c, 2, 62, 64
4, 14380, Note_off_c, 2, 66, 64
4, 14400, Control_c, 2, 86, 37
4, 14400, Note_on_c, 2, 45, 88
4, 14720, Note_on_c, 2, 66, 101
4, 14720, Note_on_c, 2, 69, 97
4, 14784, Note_off_c, 2, 45, 64
4, 14880, Note_on_c, 2, 42, 100
4, 15232, Note_off_c, 2, 66, 64
4, 15232, Note_off_c, 2, 69, 64
4, 15264, Note_off_c, 2, 42, 64
4, 15360, Note_on_c, 2, 66, 97
4, 15360, Note_on_c, 2, 69, 84
4, 15360, Note_on_c, 2, 38, 91
4, 15744, Note_off_c, 2, 38, 64
4, 15820, Note_off_c, 2, 69, 64
4, 15820, Note_off_c, 2, 66, 64
4, 15840, Control_c, 2, 86, 37
4, 15840, Note_on_c, 2, 47, 95
4, 16224, Note_off_c, 2, 47, 64
4, 16320, Note_on_c, 2, 45, 97
4, 16704, Note_off_c, 2, 45, 64
4, 16800, Note_on_c, 2, 42, 88
4, 17120, Note_on_c, 2, 69, 84
4, 17120, Note_on_c, 2, 74, 85
4, 17184, Note_off_c, 2, 42, 64
4, 17280, Note_on_c, 2, 38, 88
4, 17664, Note_off_c, 2, 38, 64
4, 17760, Note_on_c, 2, 47, 100
4, 18144, Note_off_c, 2, 47, 64
4, 18220, Note_off_c, 2, 69, 64
4, 18220, Note_off_c, 2, 74, 64
4, 18240, Control_c, 2, 86, 37
4, 18240, Note_on_c, 2, 45, 93
4, 18624, Note_off_c, 2, 45, 64
4, 18720, Note_on_c, 2, 42, 89
4, 19040, Note_on_c, 2, 67, 94
4, 19040, Note_on_c, 2, 71, 103
4, 19104, Note_off_c, 2, 42, 64
4, 19200, Note_on_c, 2, 43, 85
4, 19584, Note_off_c, 2, 43, 64
4, 19680, Note_on_c, 2, 52, 90
4, 20064, Note_off_c, 2, 52, 64
4, 20160, Note_on_c, 2, 50, 97
4, 20544, Note_off_c, 2, 50, 64
4, 20576, Note_off_c, 2, 67, 64
4, 20576, Note_off_c, 2, 71, 64
4, 20640, Control_c, 2, 86, 37
4, 20640, Note_on_c, 2, 47, 92
4, 20960, Note_on_c, 2, 66, 81
4, 20960, Note_on_c, 2, 69, 86
4, 21024, Note_off_c, 2, 47, 64
4, 21120, Note_on_c, 2, 38, 97
4, 21504, Note_off_c, 2, 38, 64
4, 21600, Note_on_c, 2, 47, 104
4, 21984, Note_off_c, 2, 47, 64
4, 22080, Note_on_c, 2, 45, 81
4, 22464, Note_off_c, 2, 45, 64
4, 22496, Note_off_c, 2, 66, 64
4, 22496, Note_off_c, 2, 69, 64
4, 22560, Note_on_c, 2, 42, 82
4, 22880, Note_on_c, 2, 66, 103
4, 22880, Note_on_c, 2, 69, 95
4, 22944, Note_off_c, 2, 42, 64
4, 23040, Note_on_c, 2, 38, 100
4, 23424, Note_off_c, 2, 38, 64
4, 23520, Note_on_c, 2, 47, 102
4, 23904, Note_off_c, 2, 47, 64
4, 23980, Note_off_c, 2, 66, 64
4, 23980, Note_off_c, 2, 69, 64
4, 24000, Control_c, 2, 86, 37
4, 24000, Note_on_c, 2, 45, 104
4, 24320, Note_on_c, 2, 69, 99
4, 24384, Note_off_c, 2, 45, 64
4, 24480, Note_on_c, 2, 42, 95
4, 24576, Note_off_c, 2, 69, 64
4, 24640, Note_on_c, 2, 69, 103
4, 24864, Note_off_c, 2, 42, 64
4, 24896, Note_off_c, 2, 69, 64
4, 24960, Note_on_c, 2, 69, 88
4, 24960, Note_on_c, 2, 73, 92
4, 24960, Note_on_c, 2, 45, 98
4, 25344, Note_off_c, 2, 45, 64
4, 25420, Note_off_c, 2, 73, 64
4, 25420, Note_off_c, 2, 69, 64
4, 25440, Control_c, 2, 86, 37
4, 25440, Note_on_c, 2, 54, 104
4, 25824, Note_off_c, 2, 54, 64
4, 25920, Note_on_c, 2, 69, 85
4, 25920, Note_on_c, 2, 73, 89
4, 25920, Note_on_c, 2, 52, 102
4, 26176, Note_off_c, 2, 73, 64
4, 26176, Note_off_c, 2, 69, 64
4, 26240, Note_on_c, 2, 73, 82
4, 26240, Note_on_c, 2, 78, 85
4, 26304, Note_off_c, 2, 52, 64
4, 26400, Note_on_c, 2, 49, 92
4, 26496, Note_off_c, 2, 73, 64
4, 26496, Note_off_c, 2, 78, 64
4, 26560, Note_on_c, 2, 69, 99
4, 26560, Note_on_c, 2, 73, 76
4, 26784, Note_off_c, 2, 49, 64
4, 26816, Note_off_c, 2, 69, 64
4, 26816, Note_off_c, 2, 73, 64
4, 26880, Note_on_c, 2, 67, 80
4, 26880, Note_on_c, 2, 71, 88
4, 26880, Note_on_c, 2, 43, 100
4, 27264, Note_off_c, 2, 43, 64
4, 27360, Note_on_c, 2, 52, 84
4, 27744, Note_off_c, 2, 52, 64
4, 27820, Note_off_c, 2, 71, 64
4, 27820, Note_off_c, 2, 67, 64
4, 27840, Control_c, 2, 86, 37
4, 27840, Note_on_c, 2, 50, 98
4, 28224, Note_off_c, 2, 50, 64
4, 28320, Note_on_c, 2, 47, 102
4, 28704, Note_off_c, 2, 47, 64
4, 28800, Note_on_c, 2, 73, 97
4, 28800, Note_on_c, 2, 76, 90
4, 28800, Note_on_c, 2, 45, 82
4, 29056, Note_off_c, 2, 76, 64
4, 29056, Note_off_c, 2, 73, 64
4, 29120, Note_on_c, 2, 73, 103
4, 29120, Note_on_c, 2, 76, 101
4, 29184, Note_off_c, 2, 45, 64
4, 29260, Note_off_c, 2, 73, 64
4, 29260, Note_off_c, 2, 76, 64
4, 29280, Control_c, 2, 86, 37
4, 29280, Note_on_c, 2, 54, 100
4, 29600, Note_on_c, 2, 73, 87
4, 29600, Note_on_c, 2, 76, 95
4, 29664, Note_off_c, 2, 54, 64
4, 29740, Note_off_c, 2, 73, 64
4, 29740, Note_off_c, 2, 76, 64
4, 29760, Control_c, 2, 86, 37
4, 29760, Note_on_c, 2, 52, 91
4, 30080, Note_on_c, 2, 69, 98
4, 30080, Note_on_c, 2, 73, 96
4, 30144, Note_off_c, 2, 52, 64
4, 30220, Note_off_c, 2, 69, 64
4, 30220, Note_off_c, 2, 73, 64
4, 30240, Control_c, 2, 86, 37
4, 30240, Note_on_c, 2, 49, 86
4, 30560, Note_on_c, 2, 62, 95
4, 30560, Note_on_c, 2, 67, 100
4, 30624, Note_off_c, 2, 49, 64
4, 30720, Note_on_c, 2, 43, 102
4, 30944, Note_off_c, 2, 62, 64
4, 30944, Note_off_c, 2, 67, 64
4, 31040, Note_on_c, 2, 62, 90
4, 31040, Note_on_c, 2, 67, 87
4, 31104, Note_off_c, 2, 43, 64
4, 31200, Note_on_c, 2, 52, 101
4, 31424, Note_off_c, 2, 62, 64
4, 31424, Note_off_c, 2, 67, 64
4, 31520, Note_on_c, 2, 62, 89
4, 31520, Note_on_c, 2, 67, 87
4, 31584, Note_off_c, 2, 52, 64
4, 31648, Note_off_c, 2, 62, 64
4, 31648, Note_off_c, 2, 67, 64
4, 31680, Note_on_c, 2, 67, 95
4, 31680, Note_on_c, 2, 71, 96
4, 31680, Note_on_c, 2, 50, 92
4, 32064, Note_off_c, 2, 50, 64
4, 32064, Note_off_c, 2, 71, 64
4, 32064, Note_off_c, 2, 67, 64
4, 32160, Note_on_c, 2, 62, 89
4, 32160, Note_on_c, 2, 67, 85
4, 32160, Note_on_c, 2, 47, 96
4, 32544, Note_off_c, 2, 47, 64
4, 32544, Note_off_c, 2, 67, 64
4, 32544, Note_off_c, 2, 62, 64
4, 32640, Note_on_c, 2, 69, 100
4, 32640, Note_on_c, 2, 74, 90
4, 32640, Note_on_c, 2, 38, 82
4, 33024, Note_off_c, 2, 38, 64
4, 33024, Note_off_c, 2, 74, 64
4, 33024, Note_off_c, 2, 69, 64
4, 33120, Note_on_c, 2, 67, 94
4, 33120, Note_on_c, 2, 71, 100
4, 33120, Note_on_c, 2, 47, 95
4, 33504, Note_off_c, 2, 47, 64
4, 33504, Note_off_c, 2, 71, 64
4, 33504, Note_off_c, 2, 67, 64
4, 33600, Note_on_c, 2, 66, 98
4, 33600, Note_on_c, 2, 69, 92
4, 33600, Note_on_c, 2, 45, 93
4, 33984, Note_off_c, 2, 45, 64
4, 33984, Note_off_c, 2, 69, 64
4, 33984, Note_off_c, 2, 66, 64
4, 34080, Note_on_c, 2, 67, 97
4, 34080, Note_on_c, 2, 71, 102
4, 34080, Note_on_c, 2, 42, 91
4, 34464, Note_off_c, 2, 42, 64
4, 34464, Note_off_c, 2, 71, 64
4, 34464, Note_off_c, 2, 67, 64
4, 34560, Note_on_c, 2, 69, 98
4, 34560, Note_on_c, 2, 74, 86
4, 34560, Note_on_c, 2, 38, 93
4, 34816, Note_off_c, 2, 74, 64
4, 34816, Note_off_c, 2, 69, 64
4, 34880, Note_on_c, 2, 69, 93
4, 34880, Note_on_c, 2, 74, 100
4, 34944, Note_off_c, 2, 38, 64
4, 35008, Note_off_c, 2, 69, 64
4, 35008, Note_off_c, 2, 74, 64
4, 35040, Note_on_c, 2, 67, 104
4, 35040, Note_on_c, 2, 71, 101
4, 35040, Note_on_c, 2, 47, 76
4, 35424, Note_off_c, 2, 47, 64
4, 35424, Note_off_c, 2, 71, 64
4, 35424, Note_off_c, 2, 67, 64
4, 35520, Note_on_c, 2, 66, 98
4, 35520, Note_on_c, 2, 69, 93
4, 35520, Note_on_c, 2, 45, 87
4, 35904, Note_off_c, 2, 45, 64
4, 36000, Note_on_c, 2, 42, 97
4, 36288, Note_off_c, 2, 69, 64
4, 36288, Note_off_c, 2, 66, 64
4, 36384, Note_off_c, 2, 42, 64
4, 36480, Note_on_c, 2, 69, 94
4, 36480, Note_on_c, 2, 74, 103
4, 36480, Note_on_c, 2, 38, 96
4, 36864, Note_off_c, 2, 38, 64
4, 36864, Note_off_c, 2, 74, 64
4, 36864, Note_off_c, 2, 69, 64
4, 36960, Note_on_c, 2, 67, 98
4, 36960, Note_on_c, 2, 71, 77
4, 36960, Note_on_c, 2, 47, 104
4, 37344, Note_off_c, 2, 47, 64
4, 37344, Note_off_c, 2, 71, 64
4, 37344, Note_off_c, 2, 67, 64
4, 37440, Note_on_c, 2, 66, 91
4, 37440, Note_on_c, 2, 69, 104
4, 37440, Note_on_c, 2, 45, 95
4, 37824, Note_off_c, 2, 45, 64
4, 37824, Note_off_c, 2, 69, 64
4, 37824, Note_off_c, 2, 66, 64
4, 37920, Note_on_c, 2, 67, 99
4, 37920, Note_on_c, 2, 71, 87
4, 37920, Note_on_c, 2, 42, 82
4, 38304, Note_off_c, 2, 42, 64
4, 38304, Note_off_c, 2, 71, 64
4, 38304, Note_off_c, 2, 67, 64
4, 38400, Note_on_c, 2, 69, 98
4, 38400, Note_on_c, 2, 74, 93
4, 38400, Note_on_c, 2, 38, 102
4, 38656, Note_off_c, 2, 74, 64
4, 38656, Note_off_c, 2, 69, 64
4, 38720, Note_on_c, 2, 69, 103
4, 38720, Note_on_c, 2, 74, 94
4, 38784, Note_off_c, 2, 38, 64
4, 38848, Note_off_c, 2, 69, 64
4, 38848, Note_off_c, 2, 74, 64
4, 38880, Note_on_c, 2, 67, 87
4, 38880, Note_on_c, 2, 71, 102
4, 38880, Note_on_c, 2, 47, 104
4, 39264, Note_off_c, 2, 47, 64
4, 39264, Note_off_c, 2, 71, 64
4, 39264, Note_off_c, 2, 67, 64
4, 39360, Note_on_c, 2, 66, 87
4, 39360, Note_on_c, 2, 69, 101
4, 39360, Note_on_c, 2, 45, 83
4, 39744, Note_off_c, 2, 45, 64
4, 39840, Note_on_c, 2, 42, 81
4, 40128, Note_off_c, 2, 69, 64
4, 40128, Note_off_c, 2, 66, 64
4, 40224, Note_off_c, 2, 42, 64
4, 40320, Note_on_c, 2, 50, 102
4, 40704, Note_off_c, 2, 50, 64
4, 40800, Note_on_c, 2, 47, 97
4, 41184, Note_off_c, 2, 47, 64
4, 41280, Note_on_c, 2, 45, 101
4, 41664, Note_off_c, 2, 45, 64
4, 41760, Note_on_c, 2, 42, 87
4, 42080, Note_on_c, 2, 67, 95
4, 42080, Note_on_c, 2, 71, 95
4, 42144, Note_off_c, 2, 42, 64
4, 42240, Note_on_c, 2, 43, 95
4, 42624, Note_off_c, 2, 43, 64
4, 42720, Note_on_c, 2, 52, 90
4, 43104, Note_off_c, 2, 52, 64
4, 43180, Note_off_c, 2, 67, 64
4, 43180, Note_off_c, 2, 71, 64
4, 43200, Control_c, 2, 86, 37
4, 43200, Note_on_c, 2, 50, 99
4, 43520, Note_on_c, 2, 67, 96
4, 43520, Note_on_c, 2, 71, 98
4, 43584, Note_off_c, 2, 50, 64
4, 43680, Note_on_c, 2, 47, 100
4, 43904, Note_off_c, 2, 67, 64
4, 43904, Note_off_c, 2, 71, 64
4, 44000, Note_on_c, 2, 67, 100
4, 44000, Note_on_c, 2, 71, 104
4, 44064, Note_off_c, 2, 47, 64
4, 44160, Note_on_c, 2, 38, 97
4, 44384, Note_off_c, 2, 67, 64
4, 44384, Note_off_c, 2, 71, 64
4, 44480, Note_on_c, 2, 62, 101
4, 44480, Note_on_c, 2, 66, 96
4, 44544, Note_off_c, 2, 38, 64
4, 44640, Note_on_c, 2, 47, 103
4, 45024, Note_off_c, 2, 47, 64
4, 45100, Note_off_c, 2, 62, 64
4, 45100, Note_off_c, 2, 66, 64
4, 45120, Control_c, 2, 86, 37
4, 45120, Note_on_c, 2, 45, 101
4, 45440, Note_on_c, 2, 66, 102
4, 45440, Note_on_c, 2, 69, 100
4, 45504, Note_off_c, 2, 45, 64
4, 45600, Note_on_c, 2, 42, 85
4, 45952, Note_off_c, 2, 66, 64
4, 45952, Note_off_c, 2, 69, 64
4, 45984, Note_off_c, 2, 42, 64
4, 46080, Note_on_c, 2, 66, 79
4, 46080, Note_on_c, 2, 69, 102
4, 46080, Note_on_c, 2, 38, 102
4, 46464, Note_off_c, 2, 38, 64
4, 46540, Note_off_c, 2, 69, 64
4, 46540, Note_off_c, 2, 66, 64
4, 46560, Control_c, 2, 86, 37
4, 46560, Note_on_c, 2, 47, 87
4, 46944, Note_off_c, 2, 47, 64
4, 47040, Note_on_c, 2, 45, 100
4, 47424, Note_off_c, 2, 45, 64
4, 47520, Note_on_c, 2, 42, 92
4, 47840, Note_on_c, 2, 69, 104
4, 47840, Note_on_c, 2, 74, 84
4, 47904, Note_off_c, 2, 42, 64
4, 48000, Note_on_c, 2, 38, 90
4, 48384, Note_off_c, 2, 38, 64
4, 48480, Note_on_c, 2, 47, 103
4, 48864, Note_off_c, 2, 47, 64
4, 48940, Note_off_c, 2, 69, 64
4, 48940, Note_off_c, 2, 74, 64
4, 48960, Control_c, 2, 86, 37
4, 48960, Note_on_c, 2, 45, 87
4, 49344, Note_off_c, 2, 45, 64
4, 49440, Note_on_c, 2, 42, 102
4, 49760, Note_on_c, 2, 67, 90
4, 49760, Note_on_c, 2, 71, 92
4, 49824, Note_off_c, 2, 42, 64
4, 49920, Note_on_c, 2, 43, 88
4, 50304, Note_off_c, 2, 43, 64
4, 50400, Note_on_c, 2, 52, 101
4, 50784, Note_off_c, 2, 52, 64
4, 50880, Note_on_c, 2, 50, 101
4, 51264, Note_off_c, 2, 50, 64
4, 51296, Note_off_c, 2, 67, 64
4, 51296, Note_off_c, 2, 71, 64
4, 51360, Control_c, 2, 86, 37
4, 51360, Note_on_c, 2, 47, 93
4, 51680, Note_on_c, 2, 66, 99
4, 51680, Note_on_c, 2, 69, 100
4, 51744, Note_off_c, 2, 47, 64
4, 51840, Note_on_c, 2, 38, 99
4, 52224, Note_off_c, 2, 38, 64
4, 52320, Note_on_c, 2, 47, 94
4, 52704, Note_off_c, 2, 47, 64
4, 52800, Note_on_c, 2, 45, 99
4, 53184, Note_off_c, 2, 45, 64
4, 53216, Note_off_c, 2, 66, 64
4, 53216, Note_off_c, 2, 69, 64
4, 53280, Note_on_c, 2, 42, 90
4, 53600, Note_on_c, 2, 66, 100
4, 53600, Note_on_c, 2, 69, 104
4, 53664, Note_off_c, 2, 42, 64
4, 53760, Note_on_c, 2, 38, 98
4, 54144, Note_off_c, 2, 38, 64
4, 54240, Note_on_c, 2, 47, 91
4, 54624, Note_off_c, 2, 47, 64
4, 54700, Note_off_c, 2, 66, 64
4, 54700, Note_off_c, 2, 69, 64
4, 54720, Control_c, 2, 86, 37
4, 54720, Note_on_c, 2, 45, 100
4, 55040, Note_on_c, 2, 69, 88
4, 55104, Note_off_c, 2, 45, 64
4, 55200, Note_on_c, 2, 42, 103
4, 55296, Note_off_c, 2, 69, 64
4, 55360, Note_on_c, 2, 69, 100
4, 55584, Note_off_c, 2, 42, 64
4, 55616, Note_off_c, 2, 69, 64
4, 55680, Note_on_c, 2, 69, 102
4, 55680, Note_on_c, 2, 73, 95
4, 55680, Note_on_c, 2, 45, 83
4, 56064, Note_off_c, 2, 45, 64
4, 56140, Note_off_c, 2, 73, 64
4, 56140, Note_off_c, 2, 69, 64
4, 56160, Control_c, 2, 86, 37
4, 56160, Note_on_c, 2, 54, 84
4, 56544, Note_off_c, 2, 54, 64
4, 56640, Note_on_c, 2, 69, 91
4, 56640, Note_on_c, 2, 73, 95
4, 56640, Note_on_c, 2, 52, 98
4, 56896, Note_off_c, 2, 73, 64
4, 56896, Note_off_c, 2, 69, 64
4, 56960, Note_on_c, 2, 73, 81
4, 56960, Note_on_c, 2, 78, 84
4, 57024, Note_off_c, 2, 52, 64
4, 57120, Note_on_c, 2, 49, 99
4, 57216, Note_off_c, 2, 73, 64
4, 57216, Note_off_c, 2, 78, 64
4, 57280, Note_on_c, 2, 69, 98
4, 57280, Note_on_c, 2, 73, 90
4, 57504, Note_off_c, 2, 49, 64
4, 57536, Note_off_c, 2, 69, 64
4, 57536, Note_off_c, 2, 73, 64
4, 57600, Note_on_c, 2, 67, 102
4, 57600, Note_on_c, 2, 71, 97
4, 57600, Note_on_c, 2, 43, 101
4, 57984, Note_off_c, 2, 43, 64
4, 58080, Note_on_c, 2, 52, 94
4, 58464, Note_off_c, 2, 52, 64
4, 58540, Note_off_c, 2, 71, 64
4, 58540, Note_off_c, 2, 67, 64
4, 58560, Control_c, 2, 86, 37
4, 58560, Note_on_c, 2, 50, 98
4, 58944, Note_off_c, 2, 50, 64
4, 59040, Note_on_c, 2, 47, 95
4, 59424, Note_off_c, 2, 47, 64
4, 59520, Note_on_c, 2, 73, 103
4, 59520, Note_on_c, 2, 76, 86
4, 59520, Note_on_c, 2, 45, 103
4, 59776, Note_off_c, 2, 76, 64
4, 59776, Note_off_c, 2, 73, 64
4, 59840, Note_on_c, 2, 73, 94
4, 59840, Note_on_c, 2, 76, 103
4, 59904, Note_off_c, 2, 45, 64
4, 59980, Note_off_c, 2, 73, 64
4, 59980, Note_off_c, 2, 76, 64
4, 60000, Control_c, 2, 86, 37
4, 60000, Note_on_c, 2, 54, 100
4, 60320, Note_on_c, 2, 73, 95
4, 60320, Note_on_c, 2, 76, 83
4, 60384, Note_off_c, 2, 54, 64
4, 60460, Note_off_c, 2, 73, 64
4, 60460, Note_off_c, 2, 76, 64
4, 60480, Control_c, 2, 86, 37
4, 60480, Note_on_c, 2, 52, 104
4, 60800, Note_on_c, 2, 69, 103
4, 60800, Note_on_c, 2, 73, 103
4, 60864, Note_off_c, 2, 52, 64
4, 60940, Note_off_c, 2, 69, 64
4, 60940, Note_off_c, 2, 73, 64
4, 60960, Control_c, 2, 86, 37
4, 60960, Note_on_c, 2, 49, 101
4, 61280, Note_on_c, 2, 62, 85
4, 61280, Note_on_c, 2, 67, 102
4, 61344, Note_off_c, 2, 49, 64
4, 61440, Note_on_c, 2, 43, 103
4, 61664, Note_off_c, 2, 62, 64
4, 61664, Note_off_c, 2, 67, 64
4, 61760, Note_on_c, 2, 62, 103
4, 61760, Note_on_c, 2, 67, 102
4, 61824, Note_off_c, 2, 43, 64
4, 61920, Note_on_c, 2, 52, 102
4, 62144, Note_off_c, 2, 62, 64
4, 62144, Note_off_c, 2, 67, 64
4, 62240, Note_on_c, 2, 62, 81
4, 62240, Note_on_c, 2, 67, 100
4, 62304, Note_off_c, 2, 52, 64
4, 62368, Note_off_c, 2, 62, 64
4, 62368, Note_off_c, 2, 67, 64
4, 62400, Note_on_c, 2, 67, 92
4, 62400, Note_on_c, 2, 71, 85
4, 62400, Note_on_c, 2, 50, 101
4, 62784, Note_off_c, 2, 50, 64
4, 62784, Note_off_c, 2, 71, 64
4, 62784, Note_off_c, 2, 67, 64
4, 62880, Note_on_c, 2, 62, 96
4, 62880, Note_on_c, 2, 67, 96
4, 62880, Note_on_c, 2, 47, 85
4, 63264, Note_off_c, 2, 47, 64
4, 63264, Note_off_c, 2, 67, 64
4, 63264, Note_off_c, 2, 62, 64
4, 63360, Note_on_c, 2, 69, 83
4, 63360, Note_on_c, 2, 74, 103
4, 63360, Note_on_c, 2, 38, 102
4, 63744, Note_off_c, 2, 38, 64
4, 63744, Note_off_c, 2, 74, 64
4, 63744, Note_off_c, 2, 69, 64
4, 63840, Note_on_c, 2, 67, 102
4, 63840, Note_on_c, 2, 71, 87
4, 63840, Note_on_c, 2, 47, 98
4, 64224, Note_off_c, 2, 47, 64
4, 64224, Note_off_c, 2, 71, 64
4, 64224, Note_off_c, 2, 67, 64
4, 64320, Note_on_c, 2, 66, 104
4, 64320, Note_on_c, 2, 69, 95
4, 64320, Note_on_c, 2, 45, 89
4, 64704, Note_off_c, 2, 45, 64
4, 64704, Note_off_c, 2, 69, 64
4, 64704, Note_off_c, 2, 66, 64
4, 64800, Note_on_c, 2, 67, 100
4, 64800, Note_on_c, 2, 71, 96
4, 64800, Note_on_c, 2, 42, 91
4, 65184, Note_off_c, 2, 42, 64
4, 65184, Note_off_c, 2, 71, 64
4, 65184, Note_off_c, 2, 67, 64
4, 65280, Note_on_c, 2, 69, 101
4, 65280, Note_on_c, 2, 74, 88
4, 65280, Note_on_c, 2, 38, 90
4, 65536, Note_off_c, 2, 74, 64
4, 65536, Note_off_c, 2, 69, 64
4, 65600, Note_on_c, 2, 69, 88
4, 65600, Note_on_c, 2, 74, 101
4, 65664, Note_off_c, 2, 38, 64
4, 65728, Note_off_c, 2, 69, 64
4, 65728, Note_off_c, 2, 74, 64
4, 65760, Note_on_c, 2, 67, 97
4, 65760, Note_on_c, 2, 71, 104
4, 65760, Note_on_c, 2, 47, 98
4, 66144, Note_off_c, 2, 47, 64
4, 66144, Note_off_c, 2, 71, 64
4, 66144, Note_off_c, 2, 67, 64
4, 66240, Note_on_c, 2, 66, 103
4, 66240, Note_on_c, 2, 69, 91
4, 66240, Note_on_c, 2, 45, 87
4, 66624, Note_off_c, 2, 45, 64
4, 66720, Note_on_c, 2, 42, 90
4, 67008, Note_off_c, 2, 69, 64
4, 67008, Note_off_c, 2, 66, 64
4, 67104, Note_off_c, 2, 42, 64
4, 67200, Note_on_c, 2, 69, 87
4, 67200, Note_on_c, 2, 74, 89
4, 67200, Note_on_c, 2, 38, 98
4, 67584, Note_off_c, 2, 38, 64
4, 67584, Note_off_c, 2, 74, 64
4, 67584, Note_off_c, 2, 69, 64
4, 67680, Note_on_c, 2, 67, 90
4, 67680, Note_on_c, 2, 71, 85
4, 67680, Note_on_c, 2, 47, 102
4, 68064, Note_off_c, 2, 47, 64
4, 68064, Note_off_c, 2, 71, 64
4, 68064, Note_off_c, 2, 67, 64
4, 68160, Note_on_c, 2, 66, 78
4, 68160, Note_on_c, 2, 69, 103
4, 68160, Note_on_c, 2, 45, 85
4, 68544, Note_off_c, 2, 45, 64
4, 68544, Note_off_c, 2, 69, 64
4, 68544, Note_off_c, 2, 66, 64
4, 68640, Note_on_c, 2, 67, 100
4, 68640, Note_on_c, 2, 71, 88
4, 68640, Note_on_c, 2, 42, 99
4, 69024, Note_off_c, 2, 42, 64
4, 69024, Note_off_c, 2, 71, 64
4, 69024, Note_off_c, 2, 67, 64
4, 69120, Note_on_c, 2, 69, 96
4, 69120, Note_on_c, 2, 74, 82
4, 69120, Note_on_c, 2, 38, 84
4, 69376, Note_off_c, 2, 74, 64
4, 69376, Note_off_c, 2, 69, 64
4, 69440, Note_on_c, 2, 69, 95
4, 69440, Note_on_c, 2, 74, 98
4, 69504, Note_off_c, 2, 38, 64
4, 69568, Note_off_c, 2, 69, 64
4, 69568, Note_off_c, 2, 74, 64
4, 69600, Note_on_c, 2, 67, 96
4, 69600, Note_on_c, 2, 71, 99
4, 69600, Note_on_c, 2, 47, 99
4, 69984, Note_off_c, 2, 47, 64
4, 69984, Note_off_c, 2, 71, 64
4, 69984, Note_off_c, 2, 67, 64
4, 70080, Note_on_c, 2, 66, 100
4, 70080, Note_on_c, 2, 69, 97
4, 70080, Note_on_c, 2, 45, 96
4, 70464, Note_off_c, 2, 45, 64
4, 70540, Note_off_c, 2, 69, 64
4, 70540, Note_off_c, 2, 66, 64
4, 70560, Control_c, 2, 86, 37
4, 70560, Note_on_c, 2, 42, 89
4, 70944, Note_off_c, 2, 42, 64
4, 71040, Control_c, 2, 86, 37
4, 71040, Note_on_c, 2, 47, 100
4, 71296, Note_off_c, 2, 47, 64
4, 71360, Note_on_c, 2, 47, 98
4, 71488, Note_off_c, 2, 47, 64
4, 71520, Note_on_c, 2, 71, 93
4, 71520, Note_on_c, 2, 74, 90
4, 71520, Note_on_c, 2, 45, 99
4, 71776, Note_off_c, 2, 45, 64
4, 71840, Note_on_c, 2, 45, 89
4, 71968, Note_off_c, 2, 45, 64
4, 72000, Note_on_c, 2, 42, 103
4, 72256, Note_off_c, 2, 42, 64
4, 72288, Note_off_c, 2, 74, 64
4, 72288, Note_off_c, 2, 71, 64
4, 72320, Note_on_c, 2, 42, 96
4, 72448, Note_off_c, 2, 42, 64
4, 72480, Note_on_c, 2, 71, 92
4, 72480, Note_on_c, 2, 74, 86
4, 72480, Note_on_c, 2, 40, 98
4, 72736, Note_off_c, 2, 40, 64
4, 72800, Note_on_c, 2, 38, 96
4, 72864, Note_off_c, 2, 74, 64
4, 72864, Note_off_c, 2, 71, 64
4, 72928, Note_off_c, 2, 38, 64
4, 72960, Note_on_c, 2, 71, 89
4, 72960, Note_on_c, 2, 74, 83
4, 72960, Note_on_c, 2, 35, 103
4, 73216, Note_off_c, 2, 35, 64
4, 73280, Note_on_c, 2, 35, 88
4, 73408, Note_off_c, 2, 35, 64
4, 73440, Note_on_c, 2, 45, 101
4, 73600, Note_off_c, 2, 74, 64
4, 73600, Note_off_c, 2, 71, 64
4, 73696, Note_off_c, 2, 45, 64
4, 73760, Note_on_c, 2, 62, 93
4, 73760, Note_on_c, 2, 66, 95
4, 73760, Note_on_c, 2, 45, 94
4, 73888, Note_off_c, 2, 45, 64
4, 73920, Note_on_c, 2, 42, 100
4, 74176, Note_off_c, 2, 42, 64
4, 74240, Note_on_c, 2, 42, 93
4, 74368, Note_off_c, 2, 42, 64
4, 74400, Note_on_c, 2, 40, 98
4, 74656, Note_off_c, 2, 40, 64
4, 74720, Note_on_c, 2, 38, 98
4, 74848, Note_off_c, 2, 38, 64
4, 74860, Note_off_c, 2, 66, 64
4, 74860, Note_off_c, 2, 62, 64
4, 74880, Control_c, 2, 86, 37
4, 74880, Note_on_c, 2, 45, 98
4, 75136, Note_off_c, 2, 45, 64
4, 75200, Note_on_c, 2, 45, 94
4, 75328, Note_off_c, 2, 45, 64
4, 75360, Note_on_c, 2, 69, 88
4, 75360, Note_on_c, 2, 73, 100
4, 75360, Note_on_c, 2, 42, 87
4, 75616, Note_off_c, 2, 42, 64
4, 75680, Note_on_c, 2, 42, 92
4, 75744, Note_off_c, 2, 73, 64
4, 75744, Note_off_c, 2, 69, 64
4, 75808, Note_off_c, 2, 42, 64
4, 75840, Note_on_c, 2, 69, 98
4, 75840, Note_on_c, 2, 73, 87
4, 75840, Note_on_c, 2, 40, 104
4, 76096, Note_off_c, 2, 40, 64
4, 76160, Note_on_c, 2, 40, 92
4, 76224, Note_off_c, 2, 73, 64
4, 76224, Note_off_c, 2, 69, 64
4, 76288, Note_off_c, 2, 40, 64
4, 76320, Note_on_c, 2, 69, 81
4, 76320, Note_on_c, 2, 73, 101
4, 76320, Note_on_c, 2, 37, 95
4, 76576, Note_off_c, 2, 37, 64
4, 76576, Note_off_c, 2, 73, 64
4, 76576, Note_off_c, 2, 69, 64
4, 76640, Note_on_c, 2, 69, 90
4, 76640, Note_on_c, 2, 73, 102
4, 76640, Note_on_c, 2, 37, 82
4, 76768, Note_off_c, 2, 37, 64
4, 76800, Note_on_c, 2, 45, 94
4, 77024, Note_off_c, 2, 73, 64
4, 77024, Note_off_c, 2, 69, 64
4, 77056, Note_off_c, 2, 45, 64
4, 77120, Note_on_c, 2, 69, 92
4, 77120, Note_on_c, 2, 73, 88
4, 77120, Note_on_c, 2, 45, 95
4, 77248, Note_off_c, 2, 45, 64
4, 77248, Note_off_c, 2, 73, 64
4, 77248, Note_off_c, 2, 69, 64
4, 77280, Note_on_c, 2, 73, 87
4, 77280, Note_on_c, 2, 76, 84
4, 77280, Note_on_c, 2, 42, 92
4, 77536, Note_off_c, 2, 42, 64
4, 77600, Note_on_c, 2, 42, 100
4, 77728, Note_off_c, 2, 42, 64
4, 77760, Note_on_c, 2, 40, 101
4, 78016, Note_off_c, 2, 40, 64
4, 78080, Note_on_c, 2, 40, 101
4, 78208, Note_off_c, 2, 40, 64
4, 78220, Note_off_c, 2, 76, 64
4, 78220, Note_off_c, 2, 73, 64
4, 78240, Control_c, 2, 86, 37
4, 78240, Note_on_c, 2, 37, 86
4, 78496, Note_off_c, 2, 37, 64
4, 78560, Note_on_c, 2, 37, 103
4, 78688, Note_off_c, 2, 37, 64
4, 78720, Note_on_c, 2, 43, 103
4, 78976, Note_off_c, 2, 43, 64
4, 79040, Note_on_c, 2, 43, 88
4, 79168, Note_off_c, 2, 43, 64
4, 79200, Note_on_c, 2, 52, 99
4, 79456, Note_off_c, 2, 52, 64
4, 79520, Note_on_c, 2, 52, 95
4, 79648, Note_off_c, 2, 52, 64
4, 79680, Note_on_c, 2, 67, 81
4, 79680, Note_on_c, 2, 71, 96
4, 79680, Note_on_c, 2, 50, 97
4, 79936, Note_off_c, 2, 50, 64
4, 80000, Note_on_c, 2, 50, 100
4, 80128, Note_off_c, 2, 50, 64
4, 80160, Note_on_c, 2, 47, 98
4, 80416, Note_off_c, 2, 47, 64
4, 80448, Note_off_c, 2, 71, 64
4, 80448, Note_off_c, 2, 67, 64
4, 80480, Note_on_c, 2, 47, 101
4, 80608, Note_off_c, 2, 47, 64
4, 80640, Note_on_c, 2, 67, 85
4, 80640, Note_on_c, 2, 71, 104
4, 80640, Note_on_c, 2, 43, 104
4, 80896, Note_off_c, 2, 43, 64
4, 80960, Note_on_c, 2, 43, 94
4, 81088, Note_off_c, 2, 43, 64
4, 81120, Note_on_c, 2, 52, 92
4, 81280, Note_off_c, 2, 71, 64
4, 81280, Note_off_c, 2, 67, 64
4, 81376, Note_off_c, 2, 52, 64
4, 81440, Note_on_c, 2, 67, 82
4, 81440, Note_on_c, 2, 71, 86
4, 81440, Note_on_c, 2, 52, 99
4, 81568, Note_off_c, 2, 52, 64
4, 81600, Note_on_c, 2, 50, 98
4, 81824, Note_off_c, 2, 71, 64
4, 81824, Note_off_c, 2, 67, 64
4, 81856, Note_off_c, 2, 50, 64
4, 81920, Note_on_c, 2, 62, 100
4, 81920, Note_on_c, 2, 67, 102
4, 81920, Note_on_c, 2, 50, 80
4, 82048, Note_off_c, 2, 50, 64
4, 82080, Note_on_c, 2, 47, 93
4, 82336, Note_off_c, 2, 47, 64
4, 82400, Note_on_c, 2, 47, 95
4, 82432, Note_off_c, 2, 67, 64
4, 82432, Note_off_c, 2, 62, 64
4, 82528, Note_off_c, 2, 47, 64
4, 82560, Note_on_c, 2, 69, 97
4, 82560, Note_on_c, 2, 73, 85
4, 82560, Note_on_c, 2, 45, 97
4, 82944, Note_off_c, 2, 45, 64
4, 82944, Note_off_c, 2, 73, 64
4, 82944, Note_off_c, 2, 69, 64
4, 83040, Note_on_c, 2, 69, 92
4, 83040, Note_on_c, 2, 73, 92
4, 83040, Note_on_c, 2, 54, 87
4, 83296, Note_off_c, 2, 73, 64
4, 83296, Note_off_c, 2, 69, 64
4, 83360, Note_on_c, 2, 69, 95
4, 83360, Note_on_c, 2, 73, 90
4, 83424, Note_off_c, 2, 54, 64
4, 83488, Note_off_c, 2, 69, 64
4, 83488, Note_off_c, 2, 73, 64
4, 83520, Note_on_c, 2, 69, 95
4, 83520, Note_on_c, 2, 73, 89
4, 83520, Note_on_c, 2, 52, 100
4, 83776, Note_off_c, 2, 73, 64
4, 83776, Note_off_c, 2, 69, 64
4, 83840, Note_on_c, 2, 69, 102
4, 83840, Note_on_c, 2, 73, 101
4, 83904, Note_off_c, 2, 52, 64
4, 84000, Note_on_c, 2, 49, 101
4, 84224, Note_off_c, 2, 69, 64
4, 84224, Note_off_c, 2, 73, 64
4, 84320, Note_on_c, 2, 73, 97
4, 84320, Note_on_c, 2, 76, 93
4, 84384, Note_off_c, 2, 49, 64
4, 84480, Note_on_c, 2, 45, 96
4, 84864, Note_off_c, 2, 45, 64
4, 84960, Note_on_c, 2, 54, 94
4, 85344, Note_off_c, 2, 54, 64
4, 85440, Note_on_c, 2, 52, 86
4, 85740, Note_off_c, 2, 73, 64
4, 85740, Note_off_c, 2, 76, 64
4, 85760, Control_c, 2, 86, 37
4, 85824, Note_off_c, 2, 52, 64
4, 85920, Note_on_c, 2, 45, 95
4, 86304, Note_off_c, 2, 45, 64
4, 86400, Note_on_c, 2, 66, 88
4, 86400, Note_on_c, 2, 69, 82
4, 86400, Note_on_c, 2, 38, 100
4, 86784, Note_off_c, 2, 38, 64
4, 86784, Note_off_c, 2, 69, 64
4, 86784, Note_off_c, 2, 66, 64
4, 86880, Note_on_c, 2, 67, 92
4, 86880, Note_on_c, 2, 71, 84
4, 86880, Note_on_c, 2, 76, 98
4, 86880, Note_on_c, 2, 40, 96
4, 87264, Note_off_c, 2, 40, 64
4, 87264, Note_off_c, 2, 76, 64
4, 87264, Note_off_c, 2, 71, 64
4, 87264, Note_off_c, 2, 67, 64
4, 87360, Note_on_c, 2, 66, 95
4, 87360, Note_on_c, 2, 69, 91
4, 87360, Note_on_c, 2, 74, 93
4, 87360, Note_on_c, 2, 38, 82
4, 87744, Note_off_c, 2, 38, 64
4, 87744, Note_off_c, 2, 74, 64
4, 87744, Note_off_c, 2, 69, 64
4, 87744, Note_off_c, 2, 66, 64
4, 87840, Control_c, 2, 86, 37
4, 87840, Note_on_c, 2, 40, 96
4, 88224, Note_off_c, 2, 40, 64
4, 88320, Note_on_c, 2, 66, 103
4, 88320, Note_on_c, 2, 69, 100
4, 88320, Note_on_c, 2, 74, 85
4, 88320, Note_on_c, 2, 38, 98
4, 88704, Note_off_c, 2, 38, 64
4, 88704, Note_off_c, 2, 74, 64
4, 88704, Note_off_c, 2, 69, 64
4, 88704, Note_off_c, 2, 66, 64
4, 88800, Note_on_c, 2, 67, 97
4, 88800, Note_on_c, 2, 71, 100
4, 88800, Note_on_c, 2, 76, 88
4, 88800, Note_on_c, 2, 40, 86
4, 89184, Note_off_c, 2, 40, 64
4, 89184, Note_off_c, 2, 76, 64
4, 89184, Note_off_c, 2, 71, 64
4, 89184, Note_off_c, 2, 67, 64
4, 89280, Note_on_c, 2, 66, 104
4, 89280, Note_on_c, 2, 69, 92
4, 89280, Note_on_c, 2, 74, 90
4, 89280, Note_on_c, 2, 38, 99
4, 89664, Note_off_c, 2, 38, 64
4, 89664, Note_off_c, 2, 74, 64
4, 89664, Note_off_c, 2, 69, 64
4, 89664, Note_off_c, 2, 66, 64
4, 89760, Control_c, 2, 86, 37
4, 89760, Note_on_c, 2, 40, 89
4, 90144, Note_off_c, 2, 40, 64
4, 90240, Note_on_c, 2, 66, 100
4, 90240, Note_on_c, 2, 69, 78
4, 90240, Note_on_c, 2, 74, 95
4, 90240, Note_on_c, 2, 38, 101
4, 90624, Note_off_c, 2, 38, 64
4, 90624, Note_off_c, 2, 74, 64
4, 90624, Note_off_c, 2, 69, 64
4, 90624, Note_off_c, 2, 66, 64
4, 90720, Note_on_c, 2, 67, 85
4, 90720, Note_on_c, 2, 71, 87
4, 90720, Note_on_c, 2, 76, 97
4, 90720, Note_on_c, 2, 40, 88
4, 91104, Note_off_c, 2, 40, 64
4, 91104, Note_off_c, 2, 76, 64
4, 91104, Note_off_c, 2, 71, 64
4, 91104, Note_off_c, 2, 67, 64
4, 91200, Note_on_c, 2, 66, 101
4, 91200, Note_on_c, 2, 69, 101
4, 91200, Note_on_c, 2, 74, 95
4, 91200, Note_on_c, 2, 38, 93
4, 91584, Note_off_c, 2, 38, 64
4, 91584, Note_off_c, 2, 74, 64
4, 91584, Note_off_c, 2, 69, 64
4, 91584, Note_off_c, 2, 66, 64
4, 91680, Note_on_c, 2, 67, 98
4, 91680, Note_on_c, 2, 71, 102
4, 91680, Note_on_c, 2, 76, 92
4, 91680, Note_on_c, 2, 40, 95
4, 92064, Note_off_c, 2, 40, 64
4, 92064, Note_off_c, 2, 76, 64
4, 92064, Note_off_c, 2, 71, 64
4, 92064, Note_off_c, 2, 67, 64
4, 92160, Note_on_c, 2, 66, 85
4, 92160, Note_on_c, 2, 69, 86
4, 92160, Note_on_c, 2, 74, 98
4, 92160, Note_on_c, 2, 38, 103
4, 92544, Note_off_c, 2, 38, 64
4, 92544, Note_off_c, 2, 74, 64
4, 92544, Note_off_c, 2, 69, 64
4, 92544, Note_off_c, 2, 66, 64
4, 92640, Note_on_c, 2, 67, 93
4, 92640, Note_on_c, 2, 71, 103
4, 92640, Note_on_c, 2, 76, 99
4, 92640, Note_on_c, 2, 40, 97
4, 93024, Note_off_c, 2, 40, 64
4, 93024, Note_off_c, 2, 76, 64
4, 93024, Note_off_c, 2, 71, 64
4, 93024, Note_off_c, 2, 67, 64
4, 93120, Note_on_c, 2, 66, 87
4, 93120, Note_on_c, 2, 69, 83
4, 93120, Note_on_c, 2, 74, 96
4, 93120, Note_on_c, 2, 38, 92
4, 93376, Note_off_c, 2, 74, 64
4, 93376, Note_off_c, 2, 69, 64
4, 93376, Note_off_c, 2, 66, 64
4, 93504, Note_off_c, 2, 38, 64
4, 93600, Note_on_c, 2, 40, 99
4, 93920, Note_on_c, 2, 69, 95
4, 93920, Note_on_c, 2, 74, 100
4, 93984, Note_off_c, 2, 40, 64
4, 94080, Note_on_c, 2, 50, 76
4, 94464, Note_off_c, 2, 50, 64
4, 94560, Note_on_c, 2, 47, 90
4, 94944, Note_off_c, 2, 47, 64
4, 95040, Note_on_c, 2, 45, 100
4, 95424, Note_off_c, 2, 45, 64
4, 95520, Note_off_c, 2, 69, 64
4, 95520, Note_off_c, 2, 74, 64
4, 95520, Note_on_c, 2, 42, 92
4, 95840, Note_on_c, 2, 67, 95
4, 95840, Note_on_c, 2, 71, 90
4, 95904, Note_off_c, 2, 42, 64
4, 96000, Note_on_c, 2, 43, 100
4, 96384, Note_off_c, 2, 43, 64
4, 96480, Note_on_c, 2, 52, 90
4, 96864, Note_off_c, 2, 52, 64
4, 96940, Note_off_c, 2, 67, 64
4, 96940, Note_off_c, 2, 71, 64
4, 96960, Control_c, 2, 86, 37
4, 96960, Note_on_c, 2, 50, 93
4, 97280, Note_on_c, 2, 67, 93
4, 97280, Note_on_c, 2, 71, 93
4, 97344, Note_off_c, 2, 50, 64
4, 97440, Note_on_c, 2, 47, 94
4, 97664, Note_off_c, 2, 67, 64
4, 97664, Note_off_c, 2, 71, 64
4, 97760, Note_on_c, 2, 67, 95
4, 97760, Note_on_c, 2, 71, 89
4, 97824, Note_off_c, 2, 47, 64
4, 97920, Note_on_c, 2, 38, 86
4, 98144, Note_off_c, 2, 67, 64
4, 98144, Note_off_c, 2, 71, 64
4, 98240, Note_on_c, 2, 62, 90
4, 98240, Note_on_c, 2, 66, 95
4, 98304, Note_off_c, 2, 38, 64
4, 98400, Note_on_c, 2, 47, 94
4, 98784, Note_off_c, 2, 47, 64
4, 98860, Note_off_c, 2, 62, 64
4, 98860, Note_off_c, 2, 66, 64
4, 98880, Control_c, 2, 86, 37
4, 98880, Note_on_c, 2, 45, 94
4, 99200, Note_on_c, 2, 66, 90
4, 99200, Note_on_c, 2, 69, 95
4, 99264, Note_off_c, 2, 45, 64
4, 99360, Note_on_c, 2, 42, 94
4, 99712, Note_off_c, 2, 66, 64
4, 99712, Note_off_c, 2, 69, 64
4, 99744, Note_off_c, 2, 42, 64
4, 99840, Note_on_c, 2, 66, 100
4, 99840, Note_on_c, 2, 69, 87
4, 99840, Note_on_c, 2, 38, 100
4, 100224, Note_off_c, 2, 38, 64
4, 100300, Note_off_c, 2, 69, 64
4, 100300, Note_off_c, 2, 66, 64
4, 100320, Control_c, 2, 86, 37
4, 100320, Note_on_c, 2, 47, 104
4, 100704, Note_off_c, 2, 47, 64
4, 100800, Note_on_c, 2, 45, 102
4, 101184, Note_off_c, 2, 45, 64
4, 101280, Note_on_c, 2, 42, 101
4, 101600, Note_on_c, 2, 69, 92
4, 101600, Note_on_c, 2, 74, 92
4, 101664, Note_off_c, 2, 42, 64
4, 101760, Note_on_c, 2, 38, 89
4, 102144, Note_off_c, 2, 38, 64
4, 102240, Note_on_c, 2, 47, 96
4, 102624, Note_off_c, 2, 47, 64
4, 102700, Note_off_c, 2, 69, 64
4, 102700, Note_off_c, 2, 74, 64
4, 102720, Control_c, 2, 86, 37
4, 102720, Note_on_c, 2, 45, 85
4, 103104, Note_off_c, 2, 45, 64
4, 103200, Note_on_c, 2, 42, 94
4, 103520, Note_on_c, 2, 67, 79
4, 103520, Note_on_c, 2, 71, 100
4, 103584, Note_off_c, 2, 42, 64
4, 103680, Note_on_c, 2, 43, 91
4, 104064, Note_off_c, 2, 43, 64
4, 104160, Note_on_c, 2, 52, 95
4, 104544, Note_off_c, 2, 52, 64
4, 104640, Note_on_c, 2, 50, 82
4, 105024, Note_off_c, 2, 50, 64
4, 105056, Note_off_c, 2, 67, 64
4, 105056, Note_off_c, 2, 71, 64
4, 105120, Control_c, 2, 86, 37
4, 105120, Note_on_c, 2, 47, 96
4, 105440, Note_on_c, 2, 66, 90
4, 105440, Note_on_c, 2, 69, 95
4, 105504, Note_off_c, 2, 47, 64
4, 105600, Note_on_c, 2, 38, 104
4, 105984, Note_off_c, 2, 38, 64
4, 106080, Note_on_c, 2, 47, 102
4, 106464, Note_off_c, 2, 47, 64
4, 106560, Note_on_c, 2, 45, 89
4, 106944, Note_off_c, 2, 45, 64
4, 106976, Note_off_c, 2, 66, 64
4, 106976, Note_off_c, 2, 69, 64
4, 107040, Note_on_c, 2, 42, 100
4, 107360, Note_on_c, 2, 66, 76
4, 107360, Note_on_c, 2, 69, 102
4, 107424, Note_off_c, 2, 42, 64
4, 107520, Note_on_c, 2, 38, 90
4, 107904, Note_off_c, 2, 38, 64
4, 108000, Note_on_c, 2, 47, 98
4, 108384, Note_off_c, 2, 47, 64
4, 108460, Note_off_c, 2, 66, 64
4, 108460, Note_off_c, 2, 69, 64
4, 108480, Control_c, 2, 86, 37
4, 108480, Note_on_c, 2, 45, 86
4, 108800, Note_on_c, 2, 69, 95
4, 108864, Note_off_c, 2, 45, 64
4, 108960, Note_on_c, 2, 42, 98
4, 109056, Note_off_c, 2, 69, 64
4, 109120, Note_on_c, 2, 69, 103
4, 109344, Note_off_c, 2, 42, 64
4, 109376, Note_off_c, 2, 69, 64
4, 109440, Note_on_c, 2, 69, 90
4, 109440, Note_on_c, 2, 73, 99
4, 109440, Note_on_c, 2, 45, 104
4, 109824, Note_off_c, 2, 45, 64
4, 109900, Note_off_c, 2, 73, 64
4, 109900, Note_off_c, 2, 69, 64
4, 109920, Control_c, 2, 86, 37
4, 109920, Note_on_c, 2, 54, 97
4, 110304, Note_off_c, 2, 54, 64
4, 110400, Note_on_c, 2, 69, 91
4, 110400, Note_on_c, 2, 73, 102
4, 110400, Note_on_c, 2, 52, 93
4, 110656, Note_off_c, 2, 73, 64
4, 110656, Note_off_c, 2, 69, 64
4, 110720, Note_on_c, 2, 73, 101
4, 110720, Note_on_c, 2, 78, 82
4, 110784, Note_off_c, 2, 52, 64
4, 110880, Note_on_c, 2, 49, 100
4, 110976, Note_off_c, 2, 73, 64
4, 110976, Note_off_c, 2, 78, 64
4, 111040, Note_on_c, 2, 69, 84
4, 111040, Note_on_c, 2, 73, 103
4, 111264, Note_off_c, 2, 49, 64
4, 111296, Note_off_c, 2, 69, 64
4, 111296, Note_off_c, 2, 73, 64
4, 111360, Note_on_c, 2, 67, 101
4, 111360, Note_on_c, 2, 71, 102
4, 111360, Note_on_c, 2, 43, 104
4, 111744, Note_off_c, 2, 43, 64
4, 111840, Note_on_c, 2, 52, 102
4, 112224, Note_off_c, 2, 52, 64
4, 112300, Note_off_c, 2, 71, 64
4, 112300, Note_off_c, 2, 67, 64
4, 112320, Control_c, 2, 86, 37
4, 112320, Note_on_c, 2, 50, 93
4, 112704, Note_off_c, 2, 50, 64
4, 112800, Note_on_c, 2, 47, 87
4, 113184, Note_off_c, 2, 47, 64
4, 113280, Note_on_c, 2, 73, 100
4, 113280, Note_on_c, 2, 76, 91
4, 113280, Note_on_c, 2, 45, 95
4, 113536, Note_off_c, 2, 76, 64
4, 113536, Note_off_c, 2, 73, 64
4, 113600, Note_on_c, 2, 73, 86
4, 113600, Note_on_c, 2, 76, 87
4, 113664, Note_off_c, 2, 45, 64
4, 113740, Note_off_c, 2, 73, 64
4, 113740, Note_off_c, 2, 76, 64
4, 113760, Control_c, 2, 86, 37
4, 113760, Note_on_c, 2, 54, 94
4, 114080, Note_on_c, 2, 73, 99
4, 114080, Note_on_c, 2, 76, 91
4, 114144, Note_off_c, 2, 54, 64
4, 114220, Note_off_c, 2, 73, 64
4, 114220, Note_off_c, 2, 76, 64
4, 114240, Control_c, 2, 86, 37
4, 114240, Note_on_c, 2, 52, 101
4, 114560, Note_on_c, 2, 69, 101
4, 114560, Note_on_c, 2, 73, 86
4, 114624, Note_off_c, 2, 52, 64
4, 114700, Note_off_c, 2, 69, 64
4, 114700, Note_off_c, 2, 73, 64
4, 114720, Control_c, 2, 86, 37
4, 114720, Note_on_c, 2, 49, 97
4, 115040, Note_on_c, 2, 62, 101
4, 115040, Note_on_c, 2, 67, 102
4, 115104, Note_off_c, 2, 49, 64
4, 115200, Note_on_c, 2, 43, 104
4, 115424, Note_off_c, 2, 62, 64
4, 115424, Note_off_c, 2, 67, 64
4, 115520, Note_on_c, 2, 62, 82
4, 115520, Note_on_c, 2, 67, 92
4, 115584, Note_off_c, 2, 43, 64
4, 115680, Note_on_c, 2, 52, 95
4, 115904, Note_off_c, 2, 62, 64
4, 115904, Note_off_c, 2, 67, 64
4, 116000, Note_on_c, 2, 62, 92
4, 116000, Note_on_c, 2, 67, 88
4, 116064, Note_off_c, 2, 52, 64
4, 116128, Note_off_c, 2, 62, 64
4, 116128, Note_off_c, 2, 67, 64
4, 116160, Note_on_c, 2, 67, 93
4, 116160, Note_on_c, 2, 71, 90
4, 116160, Note_on_c, 2, 50, 93
4, 116544, Note_off_c, 2, 50, 64
4, 116544, Note_off_c, 2, 71, 64
4, 116544, Note_off_c, 2, 67, 64
4, 116640, Note_on_c, 2, 62, 100
4, 116640, Note_on_c, 2, 67, 88
4, 116640, Note_on_c, 2, 47, 97
4, 117024, Note_off_c, 2, 47, 64
4, 117024, Note_off_c, 2, 67, 64
4, 117024, Note_off_c, 2, 62, 64
4, 117120, Note_on_c, 2, 69, 85
4, 117120, Note_on_c, 2, 74, 88
4, 117120, Note_on_c, 2, 38, 78
4, 117504, Note_off_c, 2, 38, 64
4, 117504, Note_off_c, 2, 74, 64
4, 117504, Note_off_c, 2, 69, 64
4, 117600, Note_on_c, 2, 67, 103
4, 117600, Note_on_c, 2, 71, 93
4, 117600, Note_on_c, 2, 47, 98
4, 117984, Note_off_c, 2, 47, 64
4, 117984, Note_off_c, 2, 71, 64
4, 117984, Note_off_c, 2, 67, 64
4, 118080, Note_on_c, 2, 66, 97
4, 118080, Note_on_c, 2, 69, 96
4, 118080, Note_on_c, 2, 45, 98
4, 118464, Note_off_c, 2, 45, 64
4, 118464, Note_off_c, 2, 69, 64
4, 118464, Note_off_c, 2, 66, 64
4, 118560, Note_on_c, 2, 67, 104
4, 118560, Note_on_c, 2, 71, 99
4, 118560, Note_on_c, 2, 42, 78
4, 118944, Note_off_c, 2, 42, 64
4, 118944, Note_off_c, 2, 71, 64
4, 118944, Note_off_c, 2, 67, 64
4, 119040, Note_on_c, 2, 69, 100
4, 119040, Note_on_c, 2, 74, 82
4, 119040, Note_on_c, 2, 38, 102
4, 119296, Note_off_c, 2, 74, 64
4, 119296, Note_off_c, 2, 69, 64
4, 119360, Note_on_c, 2, 69, 96
4, 119360, Note_on_c, 2, 74, 98
4, 119424, Note_off_c, 2, 38, 64
4, 119488, Note_off_c, 2, 69, 64
4, 119488, Note_off_c, 2, 74, 64
4, 119520, Note_on_c, 2, 67, 98
4, 119520, Note_on_c, 2, 71, 101
4, 119520, Note_on_c, 2, 47, 92
4, 119904, Note_off_c, 2, 47, 64
4, 119904, Note_off_c, 2, 71, 64
4, 119904, Note_off_c, 2, 67, 64
4, 120000, Note_on_c, 2, 66, 90
4, 120000, Note_on_c, 2, 69, 91
4, 120000, Note_on_c, 2, 45, 87
4, 120384, Note_off_c, 2, 45, 64
4, 120480, Note_on_c, 2, 42, 87
4, 120768, Note_off_c, 2, 69, 64
4, 120768, Note_off_c, 2, 66, 64
4, 120864, Note_off_c, 2, 42, 64
4, 120960, Note_on_c, 2, 69, 103
4, 120960, Note_on_c, 2, 74, 99
4, 120960, Note_on_c, 2, 38, 100
4, 121344, Note_off_c, 2, 38, 64
4, 121344, Note_off_c, 2, 74, 64
4, 121344, Note_off_c, 2, 69, 64
4, 121440, Note_on_c, 2, 67, 94
4, 121440, Note_on_c, 2, 71, 93
4, 121440, Note_on_c, 2, 47, 79
4, 121824, Note_off_c, 2, 47, 64
4, 121824, Note_off_c, 2, 71, 64
4, 121824, Note_off_c, 2, 67, 64
4, 121920, Note_on_c, 2, 66, 86
4, 121920, Note_on_c, 2, 69, 104
4, 121920, Note_on_c, 2, 45, 84
4, 122304, Note_off_c, 2, 45, 64
4, 122304, Note_off_c, 2, 69, 64
4, 122304, Note_off_c, 2, 66, 64
4, 122400, Note_on_c, 2, 67, 84
4, 122400, Note_on_c, 2, 71, 101
4, 122400, Note_on_c, 2, 42, 79
4, 122784, Note_off_c, 2, 42, 64
4, 122784, Note_off_c, 2, 71, 64
4, 122784, Note_off_c, 2, 67, 64
4, 122880, Note_on_c, 2, 66, 93
4, 122880, Note_on_c, 2, 69, 86
4, 122880, Note_on_c, 2, 74, 103
4, 122880, Note_on_c, 2, 38, 98
4, 123136, Note_off_c, 2, 74, 64
4, 123136, Note_off_c, 2, 69, 64
4, 123136, Note_off_c, 2, 66, 64
4, 123200, Note_on_c, 2, 66, 95
4, 123200, Note_on_c, 2, 69, 103
4, 123200, Note_on_c, 2, 74, 92
4, 123264, Note_off_c, 2, 38, 64
4, 123328, Note_off_c, 2, 66, 64
4, 123328, Note_off_c, 2, 69, 64
4, 123328, Note_off_c, 2, 74, 64
4, 123360, Note_on_c, 2, 67, 84
4, 123360, Note_on_c, 2, 71, 93
4, 123360, Note_on_c, 2, 47, 91
4, 123744, Note_off_c, 2, 47, 64
4, 123744, Note_off_c, 2, 71, 64
4, 123744, Note_off_c, 2, 67, 64
4, 123840, Note_on_c, 2, 66, 86
4, 123840, Note_on_c, 2, 69, 93
4, 123840, Note_on_c, 2, 45, 102
4, 124224, Note_off_c, 2, 45, 64
4, 124300, Note_off_c, 2, 69, 64
4, 124300, Note_off_c, 2, 66, 64
4, 124320, Control_c, 2, 86, 37
4, 124320, Note_on_c, 2, 42, 91
4, 124704, Note_off_c, 2, 42, 64
4, 124800, Note_on_c, 2, 67, 101
4, 124800, Note_on_c, 2, 70, 80
4, 124800, Note_on_c, 2, 39, 91
4, 125056, Note_off_c, 2, 39, 64
4, 125120, Note_on_c, 2, 39, 101
4, 125184, Note_off_c, 2, 70, 64
4, 125184, Note_off_c, 2, 67, 64
4, 125248, Note_off_c, 2, 39, 64
4, 125280, Note_on_c, 2, 68, 103
4, 125280, Note_on_c, 2, 72, 101
4, 125280, Note_on_c, 2, 48, 101
4, 125536, Note_off_c, 2, 48, 64
4, 125600, Note_on_c, 2, 48, 96
4, 125664, Note_off_c, 2, 72, 64
4, 125664, Note_off_c, 2, 68, 64
4, 125728, Note_off_c, 2, 48, 64
4, 125760, Note_on_c, 2, 67, 96
4, 125760, Note_on_c, 2, 70, 92
4, 125760, Note_on_c, 2, 46, 85
4, 126016, Note_off_c, 2, 46, 64
4, 126080, Note_on_c, 2, 46, 102
4, 126144, Note_off_c, 2, 70, 64
4, 126144, Note_off_c, 2, 67, 64
4, 126208, Note_off_c, 2, 46, 64
4, 126240, Note_on_c, 2, 68, 99
4, 126240, Note_on_c, 2, 72, 102
4, 126240, Note_on_c, 2, 43, 102
4, 126496, Note_off_c, 2, 43, 64
4, 126560, Note_on_c, 2, 43, 97
4, 126624, Note_off_c, 2, 72, 64
4, 126624, Note_off_c, 2, 68, 64
4, 126688, Note_off_c, 2, 43, 64
4, 126720, Note_on_c, 2, 70, 93
4, 126720, Note_on_c, 2, 75, 75
4, 126720, Note_on_c, 2, 39, 94
4, 126976, Note_off_c, 2, 75, 64
4, 126976, Note_off_c, 2, 70, 64
4, 127040, Note_on_c, 2, 70, 96
4, 127040, Note_on_c, 2, 75, 84
4, 127104, Note_off_c, 2, 39, 64
4, 127168, Note_off_c, 2, 70, 64
4, 127168, Note_off_c, 2, 75, 64
4, 127200, Note_on_c, 2, 68, 90
4, 127200, Note_on_c, 2, 72, 87
4, 127200, Note_on_c, 2, 43, 102
4, 127584, Note_off_c, 2, 43, 64
4, 127584, Note_off_c, 2, 72, 64
4, 127584, Note_off_c, 2, 68, 64
4, 127680, Note_on_c, 2, 70, 92
4, 127680, Note_on_c, 2, 75, 84
4, 127680, Note_on_c, 2, 44, 97
4, 128064, Note_off_c, 2, 44, 64
4, 128160, Note_on_c, 2, 46, 98
4, 128448, Note_off_c, 2, 75, 64
4, 128448, Note_off_c, 2, 70, 64
4, 128544, Note_off_c, 2, 46, 64
4, 128640, Note_on_c, 2, 70, 94
4, 128640, Note_on_c, 2, 75, 96
4, 128640, Note_on_c, 2, 39, 97
4, 128896, Note_off_c, 2, 39, 64
4, 128896, Note_off_c, 2, 75, 64
4, 128896, Note_off_c, 2, 70, 64
4, 128960, Note_on_c, 2, 70, 91
4, 128960, Note_on_c, 2, 75, 101
4, 128960, Note_on_c, 2, 39, 93
4, 129088, Note_off_c, 2, 39, 64
4, 129088, Note_off_c, 2, 75, 64
4, 129088, Note_off_c, 2, 70, 64
4, 129120, Note_on_c, 2, 68, 78
4, 129120, Note_on_c, 2, 72, 88
4, 129120, Note_on_c, 2, 48, 103
4, 129376, Note_off_c, 2, 48, 64
4, 129440, Note_on_c, 2, 48, 102
4, 129504, Note_off_c, 2, 72, 64
4, 129504, Note_off_c, 2, 68, 64
4, 129568, Note_off_c, 2, 48, 64
4, 129600, Note_on_c, 2, 67, 103
4, 129600, Note_on_c, 2, 70, 93
4, 129600, Note_on_c, 2, 46, 85
4, 129856, Note_off_c, 2, 46, 64
4, 129920, Note_on_c, 2, 46, 103
4, 129984, Note_off_c, 2, 70, 64
4, 129984, Note_off_c, 2, 67, 64
4, 130048, Note_off_c, 2, 46, 64
4, 130080, Note_on_c, 2, 68, 95
4, 130080, Note_on_c, 2, 72, 77
4, 130080, Note_on_c, 2, 43, 98
4, 130336, Note_off_c, 2, 43, 64
4, 130400, Note_on_c, 2, 43, 101
4, 130464, Note_off_c, 2, 72, 64
4, 130464, Note_off_c, 2, 68, 64
4, 130528, Note_off_c, 2, 43, 64
4, 130560, Note_on_c, 2, 70, 88
4, 130560, Note_on_c, 2, 75, 88
4, 130560, Note_on_c, 2, 39, 92
4, 130816, Note_off_c, 2, 75, 64
4, 130816, Note_off_c, 2, 70, 64
4, 130880, Note_on_c, 2, 70, 103
4, 130880, Note_on_c, 2, 75, 96
4, 130944, Note_off_c, 2, 39, 64
4, 131008, Note_off_c, 2, 70, 64
4, 131008, Note_off_c, 2, 75, 64
4, 131040, Note_on_c, 2, 68, 98
4, 131040, Note_on_c, 2, 72, 101
4, 131040, Note_on_c, 2, 43, 98
4, 131424, Note_off_c, 2, 43, 64
4, 131424, Note_off_c, 2, 72, 64
4, 131424, Note_off_c, 2, 68, 64
4, 131520, Note_on_c, 2, 67, 104
4, 131520, Note_on_c, 2, 70, 96
4, 131520, Note_on_c, 2, 44, 103
4, 131904, Note_off_c, 2, 44, 64
4, 131980, Note_off_c, 2, 70, 64
4, 131980, Note_off_c, 2, 67, 64
4, 132000, Control_c, 2, 86, 37
4, 132000, Note_on_c, 2, 46, 104
4, 132384, Note_off_c, 2, 46, 64
4, 132480, Note_on_c, 2, 67, 100
4, 132480, Note_on_c, 2, 70, 96
4, 132480, Note_on_c, 2, 39, 101
4, 132736, Note_off_c, 2, 39, 64
4, 132800, Note_on_c, 2, 39, 100
4, 132864, Note_off_c, 2, 70, 64
4, 132864, Note_off_c, 2, 67, 64
4, 132928, Note_off_c, 2, 39, 64
4, 132960, Note_on_c, 2, 68, 97
4, 132960, Note_on_c, 2, 72, 93
4, 132960, Note_on_c, 2, 48, 86
4, 133216, Note_off_c, 2, 48, 64
4, 133280, Note_on_c, 2, 48, 99
4, 133344, Note_off_c, 2, 72, 64
4, 133344, Note_off_c, 2, 68, 64
4, 133408, Note_off_c, 2, 48, 64
4, 133440, Note_on_c, 2, 67, 94
4, 133440, Note_on_c, 2, 70, 103
4, 133440, Note_on_c, 2, 46, 88
4, 133696, Note_off_c, 2, 46, 64
4, 133760, Note_on_c, 2, 46, 91
4, 133824, Note_off_c, 2, 70, 64
4, 133824, Note_off_c, 2, 67, 64
4, 133888, Note_off_c, 2, 46, 64
4, 133920, Note_on_c, 2, 68, 101
4, 133920, Note_on_c, 2, 72, 99
4, 133920, Note_on_c, 2, 43, 89
4, 134176, Note_off_c, 2, 43, 64
4, 134240, Note_on_c, 2, 43, 103
4, 134304, Note_off_c, 2, 72, 64
4, 134304, Note_off_c, 2, 68, 64
4, 134368, Note_off_c, 2, 43, 64
4, 134400, Note_on_c, 2, 70, 100
4, 134400, Note_on_c, 2, 75, 102
4, 134400, Note_on_c, 2, 39, 97
4, 134656, Note_off_c, 2, 75, 64
4, 134656, Note_off_c, 2, 70, 64
4, 134720, Note_on_c, 2, 70, 85
4, 134720, Note_on_c, 2, 75, 102
4, 134784, Note_off_c, 2, 39, 64
4, 134848, Note_off_c, 2, 70, 64
4, 134848, Note_off_c, 2, 75, 64
4, 134880, Note_on_c, 2, 68, 102
4, 134880, Note_on_c, 2, 72, 78
4, 134880, Note_on_c, 2, 43, 85
4, 135264, Note_off_c, 2, 43, 64
4, 135264, Note_off_c, 2, 72, 64
4, 135264, Note_off_c, 2, 68, 64
4, 135360, Note_on_c, 2, 70, 97
4, 135360, Note_on_c, 2, 75, 95
4, 135360, Note_on_c, 2, 44, 99
4, 135744, Note_off_c, 2, 44, 64
4, 135840, Note_on_c, 2, 46, 80
4, 136128, Note_off_c, 2, 75, 64
4, 136128, Note_off_c, 2, 70, 64
4, 136224, Note_off_c, 2, 46, 64
4, 136320, Note_on_c, 2, 70, 88
4, 136320, Note_on_c, 2, 75, 84
4, 136320, Control_c, 2, 7, 108
4, 136320, Note_on_c, 2, 39, 103
4, 136560, Control_c, 2, 7, 105
4, 136576, Note_off_c, 2, 39, 64
4, 136576, Note_off_c, 2, 75, 64
4, 136576, Note_off_c, 2, 70, 64
4, 136640, Note_on_c, 2, 70, 85
4, 136640, Note_on_c, 2, 75, 86
4, 136640, Note_on_c, 2, 39, 82
4, 136768, Note_off_c, 2, 39, 64
4, 136768, Note_off_c, 2, 75, 64
4, 136768, Note_off_c, 2, 70, 64
4, 136800, Note_on_c, 2, 68, 95
4, 136800, Note_on_c, 2, 72, 98
4, 136800, Control_c, 2, 7, 103
4, 136800, Note_on_c, 2, 48, 89
4, 137040, Control_c, 2, 7, 101
4, 137056, Note_off_c, 2, 48, 64
4, 137120, Note_on_c, 2, 48, 98
4, 137184, Note_off_c, 2, 72, 64
4, 137184, Note_off_c, 2, 68, 64
4, 137248, Note_off_c, 2, 48, 64
4, 137280, Note_on_c, 2, 67, 103
4, 137280, Note_on_c, 2, 70, 89
4, 137280, Control_c, 2, 7, 98
4, 137280, Note_on_c, 2, 46, 89
4, 137520, Control_c, 2, 7, 96
4, 137536, Note_off_c, 2, 46, 64
4, 137600, Note_on_c, 2, 46, 102
4, 137664, Note_off_c, 2, 70, 64
4, 137664, Note_off_c, 2, 67, 64
4, 137728, Note_off_c, 2, 46, 64
4, 137760, Note_on_c, 2, 68, 104
4, 137760, Note_on_c, 2, 72, 93
4, 137760, Control_c, 2, 7, 94
4, 137760, Note_on_c, 2, 43, 89
4, 138000, Control_c, 2, 7, 92
4, 138016, Note_off_c, 2, 43, 64
4, 138080, Note_on_c, 2, 43, 92
4, 138144, Note_off_c, 2, 72, 64
4, 138144, Note_off_c, 2, 68, 64
4, 138208, Note_off_c, 2, 43, 64
4, 138240, Note_on_c, 2, 70, 82
4, 138240, Note_on_c, 2, 75, 84
4, 138240, Control_c, 2, 7, 89
4, 138240, Note_on_c, 2, 39, 78
4, 138480, Control_c, 2, 7, 87
4, 138496, Note_off_c, 2, 75, 64
4, 138496, Note_off_c, 2, 70, 64
4, 138560, Note_on_c, 2, 70, 97
4, 138560, Note_on_c, 2, 75, 99
4, 138624, Note_off_c, 2, 39, 64
4, 138688, Note_off_c, 2, 70, 64
4, 138688, Note_off_c, 2, 75, 64
4, 138720, Note_on_c, 2, 68, 96
4, 138720, Note_on_c, 2, 72, 99
4, 138720, Control_c, 2, 7, 85
4, 138720, Note_on_c, 2, 43, 86
4, 138960, Control_c, 2, 7, 83
4, 139104, Note_off_c, 2, 43, 64
4, 139104, Note_off_c, 2, 72, 64
4, 139104, Note_off_c, 2, 68, 64
4, 139200, Note_on_c, 2, 67, 98
4, 139200, Note_on_c, 2, 70, 90
4, 139200, Control_c, 2, 7, 80
4, 139200, Note_on_c, 2, 44, 91
4, 139440, Control_c, 2, 7, 78
4, 139584, Note_off_c, 2, 44, 64
4, 139660, Note_off_c, 2, 70, 64
4, 139660, Note_off_c, 2, 67, 64
4, 139680, Control_c, 2, 86, 37
4, 139680, Control_c, 2, 7, 76
4, 139680, Note_on_c, 2, 46, 101
4, 139920, Control_c, 2, 7, 74
4, 140064, Note_off_c, 2, 46, 64
4, 140160, Note_on_c, 2, 67, 98
4, 140160, Note_on_c, 2, 70, 86
4, 140160, Control_c, 2, 7, 71
4, 140160, Note_on_c, 2, 39, 85
4, 140400, Control_c, 2, 7, 69
4, 140416, Note_off_c, 2, 39, 64
4, 140480, Note_on_c, 2, 39, 94
4, 140544, Note_off_c, 2, 70, 64
4, 140544, Note_off_c, 2, 67, 64
4, 140608, Note_off_c, 2, 39, 64
4, 140640, Note_on_c, 2, 68, 96
4, 140640, Note_on_c, 2, 72, 104
4, 140640, Control_c, 2, 7, 67
4, 140640, Note_on_c, 2, 48, 97
4, 140880, Control_c, 2, 7, 65
4, 140896, Note_off_c, 2, 48, 64
4, 140960, Note_on_c, 2, 48, 102
4, 141024, Note_off_c, 2, 72, 64
4, 141024, Note_off_c, 2, 68, 64
4, 141088, Note_off_c, 2, 48, 64
4, 141120, Note_on_c, 2, 67, 104
4, 141120, Note_on_c, 2, 70, 93
4, 141120, Control_c, 2, 7, 62
4, 141120, Note_on_c, 2, 46, 91
4, 141360, Control_c, 2, 7, 60
4, 141376, Note_off_c, 2, 46, 64
4, 141440, Note_on_c, 2, 46, 85
4, 141504, Note_off_c, 2, 70, 64
4, 141504, Note_off_c, 2, 67, 64
4, 141568, Note_off_c, 2, 46, 64
4, 141600, Note_on_c, 2, 68, 103
4, 141600, Note_on_c, 2, 72, 84
4, 141600, Control_c, 2, 7, 58
4, 141600, Note_on_c, 2, 43, 101
4, 141840, Control_c, 2, 7, 56
4, 141856, Note_off_c, 2, 43, 64
4, 141920, Note_on_c, 2, 43, 93
4, 141984, Note_off_c, 2, 72, 64
4, 141984, Note_off_c, 2, 68, 64
4, 142048, Note_off_c, 2, 43, 64
4, 142080, Note_on_c, 2, 70, 95
4, 142080, Note_on_c, 2, 75, 98
4, 142080, Control_c, 2, 7, 53
4, 142080, Note_on_c, 2, 39, 102
4, 142320, Control_c, 2, 7, 51
4, 142336, Note_off_c, 2, 75, 64
4, 142336, Note_off_c, 2, 70, 64
4, 142400, Note_on_c, 2, 70, 95
4, 142400, Note_on_c, 2, 75, 100
4, 142464, Note_off_c, 2, 39, 64
4, 142528, Note_off_c, 2, 70, 64
4, 142528, Note_off_c, 2, 75, 64
4, 142560, Note_on_c, 2, 68, 100
4, 142560, Note_on_c, 2, 72, 103
4, 142560, Control_c, 2, 7, 49
4, 142560, Note_on_c, 2, 43, 84
4, 142800, Control_c, 2, 7, 47
4, 142944, Note_off_c, 2, 43, 64
4, 142944, Note_off_c, 2, 72, 64
4, 142944, Note_off_c, 2, 68, 64
4, 143040, Note_on_c, 2, 70, 98
4, 143040, Note_on_c, 2, 75, 89
4, 143040, Control_c, 2, 7, 44
4, 143040, Note_on_c, 2, 44, 77
4, 143280, Control_c, 2, 7, 42
4, 143424, Note_off_c, 2, 44, 64
4, 143520, Control_c, 2, 7, 40
4, 143520, Note_on_c, 2, 46, 96
4, 143760, Control_c, 2, 7, 38
4, 143808, Note_off_c, 2, 75, 64
4, 143808, Note_off_c, 2, 70, 64
4, 143904, Note_off_c, 2, 46, 64
4, 144000, Note_on_c, 2, 70, 83
4, 144000, Note_on_c, 2, 75, 97
4, 144000, Control_c, 2, 7, 35
4, 144000, Note_on_c, 2, 39, 93
4, 144240, Control_c, 2, 7, 33
4, 144256, Note_off_c, 2, 39, 64
4, 144256, Note_off_c, 2, 75, 64
4, 144256, Note_off_c, 2, 70, 64
4, 144320, Note_on_c, 2, 70, 96
4, 144320, Note_on_c, 2, 75, 101
4, 144320, Note_on_c, 2, 39, 102
4, 144448, Note_off_c, 2, 39, 64
4, 144448, Note_off_c, 2, 75, 64
4, 144448, Note_off_c, 2, 70, 64
4, 144480, Note_on_c, 2, 68, 90
4, 144480, Note_on_c, 2, 72, 94
4, 144480, Control_c, 2, 7, 31
4, 144480, Note_on_c, 2, 48, 96
4, 144720, Control_c, 2, 7, 29
4, 144736, Note_off_c, 2, 48, 64
4, 144800, Note_on_c, 2, 48, 99
4, 144864, Note_off_c, 2, 72, 64
4, 144864, Note_off_c, 2, 68, 64
4, 144928, Note_off_c, 2, 48, 64
4, 144960, Note_on_c, 2, 67, 100
4, 144960, Note_on_c, 2, 70, 104
4, 144960, Control_c, 2, 7, 26
4, 144960, Note_on_c, 2, 46, 92
4, 145200, Control_c, 2, 7, 24
4, 145216, Note_off_c, 2, 46, 64
4, 145280, Note_on_c, 2, 46, 96
4, 145344, Note_off_c, 2, 70, 64
4, 145344, Note_off_c, 2, 67, 64
4, 145408, Note_off_c, 2, 46, 64
4, 145440, Note_on_c, 2, 68, 101
4, 145440, Note_on_c, 2, 72, 100
4, 145440, Control_c, 2, 7, 22
4, 145440, Note_on_c, 2, 43, 92
4, 145680, Control_c, 2, 7, 20
4, 145696, Note_off_c, 2, 43, 64
4, 145760, Note_on_c, 2, 43, 99
4, 145824, Note_off_c, 2, 72, 64
4, 145824, Note_off_c, 2, 68, 64
4, 145888, Note_off_c, 2, 43, 64
4, 145920, Note_on_c, 2, 70, 101
4, 145920, Note_on_c, 2, 75, 95
4, 145920, Control_c, 2, 7, 17
4, 145920, Note_on_c, 2, 39, 85
4, 146160, Control_c, 2, 7, 15
4, 146176, Note_off_c, 2, 75, 64
4, 146176, Note_off_c, 2, 70, 64
4, 146240, Note_on_c, 2, 70, 91
4, 146240, Note_on_c, 2, 75, 98
4, 146304, Note_off_c, 2, 39, 64
4, 146368, Note_off_c, 2, 70, 64
4, 146368, Note_off_c, 2, 75, 64
4, 146400, Note_on_c, 2, 68, 102
4, 146400, Note_on_c, 2, 72, 79
4, 146400, Control_c, 2, 7, 13
4, 146400, Note_on_c, 2, 43, 100
4, 146640, Control_c, 2, 7, 11
4, 146784, Note_off_c, 2, 43, 64
4, 146784, Note_off_c, 2, 72, 64
4, 146784, Note_off_c, 2, 68, 64
4, 146880, Note_on_c, 2, 67, 82
4, 146880, Note_on_c, 2, 70, 96
4, 146880, Control_c, 2, 7, 8
4, 146880, Note_on_c, 2, 44, 90
4, 147120, Control_c, 2, 7, 6
4, 147264, Note_off_c, 2, 44, 64
4, 147340, Note_off_c, 2, 70, 64
4, 147340, Note_off_c, 2, 67, 64
4, 147360, Control_c, 2, 86, 37
4, 147360, Control_c, 2, 7, 4
4, 147360, Note_on_c, 2, 46, 101
4, 147600, Control_c, 2, 7, 2
4, 147744, Note_off_c, 2, 46, 64
4, 147744, End_track
5, 0, Start_track
5, 0, Title_t, "Guitar  "
5, 0, MIDI_port, 0
5, 0, Channel_prefix, 3
5, 0, Control_c, 3, 7, 104
5, 0, Control_c, 3, 10, 28
5, 0, Control_c, 3, 32, 0
5, 0, Control_c, 3, 91, 99
5, 0, Program_c, 3, 25
5, 0, Control_c, 3, 123, 0
5, 0, Control_c, 3, 64, 0
5, 1920, Note_on_c, 3, 50, 46
5, 1920, Note_on_c, 3, 57, 55
5, 1920, Note_on_c, 3, 62, 55
5, 1920, Note_on_c, 3, 66, 55
5, 1920, Note_on_c, 3, 69, 55
5, 2352, Note_off_c, 3, 69, 64
5, 2360, Note_off_c, 3, 66, 64
5, 2368, Note_off_c, 3, 62, 64
5, 2376, Note_off_c, 3, 57, 64
5, 2384, Note_off_c, 3, 50, 64
5, 2396, Note_on_c, 3, 52, 46
5, 2404, Note_on_c, 3, 59, 55
5, 2412, Note_on_c, 3, 64, 55
5, 2420, Note_on_c, 3, 67, 55
5, 2428, Note_on_c, 3, 71, 55
5, 2860, Note_off_c, 3, 71, 64
5, 2860, Note_off_c, 3, 67, 64
5, 2860, Note_off_c, 3, 64, 64
5, 2860, Note_off_c, 3, 59, 64
5, 2860, Note_off_c, 3, 52, 64
5, 2876, Note_on_c, 3, 50, 46
5, 2884, Note_on_c, 3, 57, 55
5, 2892, Note_on_c, 3, 62, 55
5, 2900, Note_on_c, 3, 66, 55
5, 2908, Note_on_c, 3, 69, 55
5, 3340, Note_off_c, 3, 69, 64
5, 3340, Note_off_c, 3, 66, 64
5, 3340, Note_off_c, 3, 62, 64
5, 3340, Note_off_c, 3, 57, 64
5, 3340, Note_off_c, 3, 50, 64
5, 3356, Note_on_c, 3, 52, 46
5, 3364, Note_on_c, 3, 59, 55
5, 3372, Note_on_c, 3, 64, 55
5, 3380, Note_on_c, 3, 67, 55
5, 3388, Note_on_c, 3, 71, 55
5, 3820, Note_off_c, 3, 71, 64
5, 3820, Note_off_c, 3, 67, 64
5, 3820, Note_off_c, 3, 64, 64
5, 3820, Note_off_c, 3, 59, 64
5, 3820, Note_off_c, 3, 52, 64
5, 3844, Note_on_c, 3, 50, 50
5, 3844, Note_on_c, 3, 57, 64
5, 3844, Note_on_c, 3, 62, 64
5, 3856, Note_on_c, 3, 66, 64
5, 3868, Note_on_c, 3, 69, 64
5, 4104, Note_off_c, 3, 69, 64
5, 4104, Note_off_c, 3, 66, 64
5, 4104, Note_off_c, 3, 62, 64
5, 4104, Note_off_c, 3, 57, 64
5, 4148, Note_on_c, 3, 57, 39
5, 4156, Note_on_c, 3, 62, 39
5, 4168, Note_on_c, 3, 66, 39
5, 4180, Note_on_c, 3, 69, 39
5, 4280, Note_off_c, 3, 50, 64
5, 4284, Note_off_c, 3, 57, 64
5, 4284, Note_off_c, 3, 62, 64
5, 4284, Note_off_c, 3, 66, 64
5, 4284, Note_off_c, 3, 69, 64
5, 4324, Note_on_c, 3, 52, 50
5, 4324, Note_on_c, 3, 59, 64
5, 4324, Note_on_c, 3, 64, 64
5, 4336, Note_on_c, 3, 67, 64
5, 4348, Note_on_c, 3, 71, 64
5, 4636, Note_off_c, 3, 59, 64
5, 4636, Note_off_c, 3, 52, 64
5, 4644, Note_on_c, 3, 59, 42
5, 4764, Note_off_c, 3, 59, 64
5, 4784, Note_off_c, 3, 64, 64
5, 4784, Note_off_c, 3, 67, 64
5, 4784, Note_off_c, 3, 71, 64
5, 4804, Note_on_c, 3, 50, 50
5, 4804, Note_on_c, 3, 57, 64
5, 4804, Note_on_c, 3, 62, 64
5, 4816, Note_on_c, 3, 66, 64
5, 4828, Note_on_c, 3, 69, 64
5, 5064, Note_off_c, 3, 69, 64
5, 5064, Note_off_c, 3, 66, 64
5, 5064, Note_off_c, 3, 62, 64
5, 5064, Note_off_c, 3, 57, 64
5, 5108, Note_on_c, 3, 57, 39
5, 5116, Note_on_c, 3, 62, 39
5, 5128, Note_on_c, 3, 66, 39
5, 5140, Note_on_c, 3, 69, 39
5, 5240, Note_off_c, 3, 50, 64
5, 5244, Note_off_c, 3, 57, 64
5, 5244, Note_off_c, 3, 62, 64
5, 5244, Note_off_c, 3, 66, 64
5, 5244, Note_off_c, 3, 69, 64
5, 5276, Note_on_c, 3, 47, 44
5, 5284, Note_on_c, 3, 52, 46
5, 5288, Note_on_c, 3, 59, 55
5, 5296, Note_on_c, 3, 64, 55
5, 5304, Note_on_c, 3, 67, 55
5, 5308, Note_on_c, 3, 71, 55
5, 5740, Note_off_c, 3, 71, 64
5, 5740, Note_off_c, 3, 67, 64
5, 5740, Note_off_c, 3, 64, 64
5, 5740, Note_off_c, 3, 59, 64
5, 5740, Note_off_c, 3, 52, 64
5, 5740, Note_off_c, 3, 47, 64
5, 5764, Note_on_c, 3, 50, 50
5, 5764, Note_on_c, 3, 57, 64
5, 5764, Note_on_c, 3, 62, 64
5, 5776, Note_on_c, 3, 66, 64
5, 5788, Note_on_c, 3, 69, 64
5, 6076, Note_off_c, 3, 57, 64
5, 6076, Note_off_c, 3, 50, 64
5, 6084, Note_on_c, 3, 57, 42
5, 6204, Note_off_c, 3, 57, 64
5, 6224, Note_off_c, 3, 62, 64
5, 6224, Note_off_c, 3, 66, 64
5, 6224, Note_off_c, 3, 69, 64
5, 6244, Note_on_c, 3, 52, 50
5, 6244, Note_on_c, 3, 59, 64
5, 6244, Note_on_c, 3, 64, 64
5, 6256, Note_on_c, 3, 67, 64
5, 6268, Note_on_c, 3, 71, 64
5, 6556, Note_off_c, 3, 59, 64
5, 6556, Note_off_c, 3, 52, 64
5, 6564, Note_on_c, 3, 59, 42
5, 6684, Note_off_c, 3, 59, 64
5, 6704, Note_off_c, 3, 64, 64
5, 6704, Note_off_c, 3, 67, 64
5, 6704, Note_off_c, 3, 71, 64
5, 6716, Note_on_c, 3, 50, 46
5, 6724, Note_on_c, 3, 57, 55
5, 6732, Note_on_c, 3, 62, 55
5, 6740, Note_on_c, 3, 66, 55
5, 6748, Note_on_c, 3, 69, 55
5, 7180, Note_off_c, 3, 69, 64
5, 7180, Note_off_c, 3, 66, 64
5, 7180, Note_off_c, 3, 62, 64
5, 7180, Note_off_c, 3, 57, 64
5, 7180, Note_off_c, 3, 50, 64
5, 7204, Note_on_c, 3, 52, 50
5, 7204, Note_on_c, 3, 59, 64
5, 7204, Note_on_c, 3, 64, 64
5, 7216, Note_on_c, 3, 67, 64
5, 7228, Note_on_c, 3, 71, 64
5, 7464, Note_off_c, 3, 71, 64
5, 7464, Note_off_c, 3, 67, 64
5, 7464, Note_off_c, 3, 64, 64
5, 7464, Note_off_c, 3, 59, 64
5, 7508, Note_on_c, 3, 59, 39
5, 7516, Note_on_c, 3, 64, 39
5, 7528, Note_on_c, 3, 67, 39
5, 7540, Note_on_c, 3, 71, 39
5, 7640, Note_off_c, 3, 52, 64
5, 7644, Note_off_c, 3, 59, 64
5, 7644, Note_off_c, 3, 64, 64
5, 7644, Note_off_c, 3, 67, 64
5, 7644, Note_off_c, 3, 71, 64
5, 7676, Note_on_c, 3, 50, 46
5, 7684, Note_on_c, 3, 57, 55
5, 7692, Note_on_c, 3, 62, 55
5, 7700, Note_on_c, 3, 66, 55
5, 7708, Note_on_c, 3, 69, 55
5, 8140, Note_off_c, 3, 69, 64
5, 8140, Note_off_c, 3, 66, 64
5, 8140, Note_off_c, 3, 62, 64
5, 8140, Note_off_c, 3, 57, 64
5, 8140, Note_off_c, 3, 50, 64
5, 8164, Note_on_c, 3, 52, 50
5, 8164, Note_on_c, 3, 59, 64
5, 8164, Note_on_c, 3, 64, 64
5, 8176, Note_on_c, 3, 67, 64
5, 8188, Note_on_c, 3, 71, 64
5, 8476, Note_off_c, 3, 59, 64
5, 8476, Note_off_c, 3, 52, 64
5, 8484, Note_on_c, 3, 59, 42
5, 8604, Note_off_c, 3, 59, 64
5, 8624, Note_off_c, 3, 64, 64
5, 8624, Note_off_c, 3, 67, 64
5, 8624, Note_off_c, 3, 71, 64
5, 8656, Note_on_c, 3, 50, 45
5, 8948, Note_on_c, 3, 57, 56
5, 8956, Note_on_c, 3, 62, 56
5, 8968, Note_on_c, 3, 66, 56
5, 8980, Note_on_c, 3, 69, 56
5, 9424, Note_off_c, 3, 69, 64
5, 9432, Note_off_c, 3, 66, 64
5, 9432, Note_on_c, 3, 69, 32
5, 9440, Note_on_c, 3, 66, 37
5, 9444, Note_off_c, 3, 62, 64
5, 9452, Note_on_c, 3, 62, 37
5, 9456, Note_off_c, 3, 57, 64
5, 9464, Note_on_c, 3, 57, 32
5, 9544, Note_off_c, 3, 50, 64
5, 9580, Note_off_c, 3, 69, 64
5, 9580, Note_off_c, 3, 66, 64
5, 9580, Note_off_c, 3, 62, 64
5, 9580, Note_off_c, 3, 57, 64
5, 9584, Note_on_c, 3, 50, 28
5, 9592, Note_on_c, 3, 57, 34
5, 9600, Note_on_c, 3, 62, 34
5, 9608, Note_on_c, 3, 66, 34
5, 9616, Note_on_c, 3, 69, 34
5, 9616, Note_on_c, 3, 45, 41
5, 9824, Note_off_c, 3, 69, 64
5, 9824, Note_off_c, 3, 66, 64
5, 9824, Note_off_c, 3, 62, 64
5, 9824, Note_off_c, 3, 57, 64
5, 9824, Note_off_c, 3, 50, 64
5, 9908, Note_on_c, 3, 69, 49
5, 9916, Note_on_c, 3, 66, 56
5, 9928, Note_on_c, 3, 62, 56
5, 9940, Note_on_c, 3, 57, 49
5, 10068, Note_off_c, 3, 57, 64
5, 10068, Note_on_c, 3, 50, 22
5, 10076, Note_off_c, 3, 62, 64
5, 10076, Note_on_c, 3, 57, 27
5, 10084, Note_off_c, 3, 66, 64
5, 10084, Note_on_c, 3, 62, 27
5, 10092, Note_off_c, 3, 69, 64
5, 10092, Note_on_c, 3, 66, 27
5, 10100, Note_on_c, 3, 69, 27
5, 10384, Note_off_c, 3, 69, 64
5, 10392, Note_off_c, 3, 45, 64
5, 10392, Note_off_c, 3, 66, 64
5, 10392, Note_on_c, 3, 69, 43
5, 10400, Note_on_c, 3, 66, 49
5, 10408, Note_off_c, 3, 50, 64
5, 10408, Note_off_c, 3, 57, 64
5, 10408, Note_off_c, 3, 62, 64
5, 10412, Note_on_c, 3, 62, 49
5, 10424, Note_on_c, 3, 57, 43
5, 10560, Note_off_c, 3, 57, 64
5, 10564, Note_on_c, 3, 45, 49
5, 10564, Note_on_c, 3, 50, 48
5, 10568, Note_off_c, 3, 62, 64
5, 10568, Note_on_c, 3, 57, 57
5, 10576, Note_on_c, 3, 62, 57
5, 10580, Note_off_c, 3, 69, 64
5, 10580, Note_off_c, 3, 66, 64
5, 10584, Note_on_c, 3, 66, 57
5, 10592, Note_on_c, 3, 69, 57
5, 10856, Note_off_c, 3, 69, 64
5, 10864, Note_off_c, 3, 66, 64
5, 10864, Note_on_c, 3, 69, 27
5, 10872, Note_on_c, 3, 66, 31
5, 10876, Note_off_c, 3, 62, 64
5, 10884, Note_off_c, 3, 50, 64
5, 10884, Note_off_c, 3, 57, 64
5, 10884, Note_on_c, 3, 62, 31
5, 10896, Note_on_c, 3, 57, 27
5, 11032, Note_off_c, 3, 57, 64
5, 11032, Note_off_c, 3, 45, 64
5, 11032, Note_off_c, 3, 69, 64
5, 11032, Note_off_c, 3, 66, 64
5, 11032, Note_off_c, 3, 62, 64
5, 11040, Note_on_c, 3, 45, 39
5, 11044, Note_on_c, 3, 50, 41
5, 11048, Note_on_c, 3, 57, 49
5, 11052, Note_on_c, 3, 62, 49
5, 11056, Note_on_c, 3, 66, 49
5, 11060, Note_on_c, 3, 69, 49
5, 11344, Note_off_c, 3, 69, 64
5, 11352, Note_off_c, 3, 66, 64
5, 11352, Note_on_c, 3, 69, 49
5, 11360, Note_on_c, 3, 66, 56
5, 11364, Note_off_c, 3, 62, 64
5, 11364, Note_off_c, 3, 57, 64
5, 11364, Note_off_c, 3, 50, 64
5, 11364, Note_off_c, 3, 45, 64
5, 11372, Note_on_c, 3, 62, 56
5, 11384, Note_on_c, 3, 57, 49
5, 11500, Note_off_c, 3, 57, 64
5, 11500, Note_off_c, 3, 69, 64
5, 11500, Note_off_c, 3, 66, 64
5, 11500, Note_off_c, 3, 62, 64
5, 11504, Note_on_c, 3, 50, 28
5, 11512, Note_on_c, 3, 55, 34
5, 11520, Note_on_c, 3, 59, 34
5, 11528, Note_on_c, 3, 62, 34
5, 11536, Note_on_c, 3, 67, 34
5, 11536, Note_on_c, 3, 43, 41
5, 11744, Note_off_c, 3, 67, 64
5, 11744, Note_off_c, 3, 62, 64
5, 11744, Note_off_c, 3, 59, 64
5, 11744, Note_off_c, 3, 55, 64
5, 11744, Note_off_c, 3, 50, 64
5, 11828, Note_on_c, 3, 67, 49
5, 11836, Note_on_c, 3, 62, 56
5, 11848, Note_on_c, 3, 59, 56
5, 11860, Note_on_c, 3, 55, 49
5, 11988, Note_off_c, 3, 55, 64
5, 11988, Note_on_c, 3, 50, 22
5, 11996, Note_off_c, 3, 59, 64
5, 11996, Note_on_c, 3, 55, 27
5, 12004, Note_off_c, 3, 62, 64
5, 12004, Note_on_c, 3, 59, 27
5, 12012, Note_off_c, 3, 67, 64
5, 12012, Note_on_c, 3, 62, 27
5, 12020, Note_on_c, 3, 67, 27
5, 12304, Note_off_c, 3, 67, 64
5, 12312, Note_off_c, 3, 43, 64
5, 12312, Note_off_c, 3, 62, 64
5, 12312, Note_on_c, 3, 67, 43
5, 12320, Note_on_c, 3, 62, 49
5, 12328, Note_off_c, 3, 50, 64
5, 12328, Note_off_c, 3, 55, 64
5, 12328, Note_off_c, 3, 59, 64
5, 12332, Note_on_c, 3, 59, 49
5, 12344, Note_on_c, 3, 55, 43
5, 12480, Note_off_c, 3, 55, 64
5, 12484, Note_on_c, 3, 43, 49
5, 12484, Note_on_c, 3, 50, 48
5, 12488, Note_off_c, 3, 59, 64
5, 12488, Note_on_c, 3, 55, 57
5, 12496, Note_on_c, 3, 59, 57
5, 12500, Note_off_c, 3, 67, 64
5, 12500, Note_off_c, 3, 62, 64
5, 12504, Note_on_c, 3, 62, 57
5, 12512, Note_on_c, 3, 67, 57
5, 12776, Note_off_c, 3, 67, 64
5, 12784, Note_off_c, 3, 62, 64
5, 12784, Note_on_c, 3, 67, 27
5, 12792, Note_on_c, 3, 62, 31
5, 12796, Note_off_c, 3, 59, 64
5, 12804, Note_off_c, 3, 50, 64
5, 12804, Note_off_c, 3, 55, 64
5, 12804, Note_on_c, 3, 59, 31
5, 12816, Note_on_c, 3, 55, 27
5, 12952, Note_off_c, 3, 55, 64
5, 12952, Note_off_c, 3, 43, 64
5, 12952, Note_off_c, 3, 67, 64
5, 12952, Note_off_c, 3, 62, 64
5, 12952, Note_off_c, 3, 59, 64
5, 12960, Note_on_c, 3, 43, 39
5, 12964, Note_on_c, 3, 50, 41
5, 12968, Note_on_c, 3, 55, 49
5, 12972, Note_on_c, 3, 59, 49
5, 12976, Note_on_c, 3, 62, 49
5, 12980, Note_on_c, 3, 67, 49
5, 13264, Note_off_c, 3, 67, 64
5, 13272, Note_off_c, 3, 62, 64
5, 13272, Note_on_c, 3, 67, 49
5, 13280, Note_on_c, 3, 62, 56
5, 13284, Note_off_c, 3, 59, 64
5, 13284, Note_off_c, 3, 55, 64
5, 13284, Note_off_c, 3, 50, 64
5, 13284, Note_off_c, 3, 43, 64
5, 13292, Note_on_c, 3, 59, 56
5, 13304, Note_on_c, 3, 55, 49
5, 13412, Note_off_c, 3, 55, 64
5, 13420, Note_off_c, 3, 67, 64
5, 13420, Note_off_c, 3, 62, 64
5, 13420, Note_off_c, 3, 59, 64
5, 13420, Note_on_c, 3, 57, 49
5, 13428, Note_on_c, 3, 62, 49
5, 13440, Note_on_c, 3, 66, 49
5, 13452, Note_on_c, 3, 69, 49
5, 13736, Note_off_c, 3, 69, 64
5, 13744, Note_off_c, 3, 66, 64
5, 13744, Note_on_c, 3, 69, 39
5, 13752, Note_on_c, 3, 66, 45
5, 13756, Note_off_c, 3, 62, 64
5, 13764, Note_on_c, 3, 62, 45
5, 13768, Note_off_c, 3, 57, 64
5, 13776, Note_on_c, 3, 57, 39
5, 13904, Note_off_c, 3, 69, 64
5, 13904, Note_off_c, 3, 66, 64
5, 13904, Note_off_c, 3, 62, 64
5, 13904, Note_off_c, 3, 57, 64
5, 13912, Note_on_c, 3, 57, 57
5, 13920, Note_on_c, 3, 62, 57
5, 13932, Note_on_c, 3, 66, 57
5, 13944, Note_on_c, 3, 69, 57
5, 14216, Note_off_c, 3, 69, 64
5, 14224, Note_off_c, 3, 66, 64
5, 14224, Note_on_c, 3, 69, 39
5, 14232, Note_on_c, 3, 66, 45
5, 14236, Note_off_c, 3, 62, 64
5, 14244, Note_on_c, 3, 62, 45
5, 14248, Note_off_c, 3, 57, 64
5, 14256, Note_on_c, 3, 57, 39
5, 14372, Note_off_c, 3, 57, 64
5, 14380, Note_on_c, 3, 57, 46
5, 14384, Note_off_c, 3, 69, 64
5, 14384, Note_off_c, 3, 66, 64
5, 14384, Note_off_c, 3, 62, 64
5, 14388, Note_on_c, 3, 62, 46
5, 14400, Note_on_c, 3, 66, 46
5, 14412, Note_on_c, 3, 69, 46
5, 14724, Note_off_c, 3, 69, 64
5, 14732, Note_off_c, 3, 66, 64
5, 14732, Note_on_c, 3, 69, 39
5, 14740, Note_on_c, 3, 66, 45
5, 14744, Note_off_c, 3, 62, 64
5, 14752, Note_off_c, 3, 57, 64
5, 14752, Note_on_c, 3, 62, 45
5, 14764, Note_on_c, 3, 57, 39
5, 14856, Note_off_c, 3, 57, 64
5, 14864, Note_off_c, 3, 62, 64
5, 14864, Note_on_c, 3, 57, 57
5, 14872, Note_on_c, 3, 62, 57
5, 14876, Note_off_c, 3, 66, 64
5, 14884, Note_off_c, 3, 69, 64
5, 14884, Note_on_c, 3, 66, 57
5, 14896, Note_on_c, 3, 69, 57
5, 15176, Note_off_c, 3, 69, 64
5, 15184, Note_off_c, 3, 66, 64
5, 15184, Note_on_c, 3, 69, 39
5, 15192, Note_on_c, 3, 66, 45
5, 15196, Note_off_c, 3, 62, 64
5, 15204, Note_off_c, 3, 57, 64
5, 15204, Note_on_c, 3, 62, 45
5, 15216, Note_on_c, 3, 57, 39
5, 15332, Note_off_c, 3, 57, 64
5, 15340, Note_off_c, 3, 62, 64
5, 15340, Note_on_c, 3, 57, 49
5, 15348, Note_on_c, 3, 62, 49
5, 15356, Note_off_c, 3, 69, 64
5, 15356, Note_off_c, 3, 66, 64
5, 15360, Note_on_c, 3, 66, 49
5, 15372, Note_on_c, 3, 69, 49
5, 15664, Note_off_c, 3, 69, 64
5, 15672, Note_off_c, 3, 66, 64
5, 15672, Note_on_c, 3, 69, 39
5, 15680, Note_on_c, 3, 66, 45
5, 15684, Note_off_c, 3, 62, 64
5, 15692, Note_off_c, 3, 57, 64
5, 15692, Note_on_c, 3, 62, 45
5, 15704, Note_on_c, 3, 57, 39
5, 15816, Note_off_c, 3, 57, 64
5, 15824, Note_off_c, 3, 62, 64
5, 15824, Note_on_c, 3, 57, 57
5, 15832, Note_on_c, 3, 62, 57
5, 15836, Note_off_c, 3, 66, 64
5, 15844, Note_off_c, 3, 69, 64
5, 15844, Note_on_c, 3, 66, 57
5, 15856, Note_on_c, 3, 69, 57
5, 16148, Note_off_c, 3, 69, 64
5, 16156, Note_off_c, 3, 66, 64
5, 16156, Note_on_c, 3, 69, 39
5, 16164, Note_on_c, 3, 66, 45
5, 16168, Note_off_c, 3, 62, 64
5, 16176, Note_off_c, 3, 57, 64
5, 16176, Note_on_c, 3, 62, 45
5, 16188, Note_on_c, 3, 57, 39
5, 16296, Note_off_c, 3, 57, 64
5, 16296, Note_off_c, 3, 69, 64
5, 16296, Note_off_c, 3, 66, 64
5, 16296, Note_off_c, 3, 62, 64
5, 16300, Note_on_c, 3, 57, 44
5, 16308, Note_on_c, 3, 62, 44
5, 16320, Note_on_c, 3, 66, 44
5, 16332, Note_on_c, 3, 69, 44
5, 16616, Note_off_c, 3, 69, 64
5, 16624, Note_off_c, 3, 66, 64
5, 16624, Note_on_c, 3, 69, 39
5, 16632, Note_on_c, 3, 66, 45
5, 16636, Note_off_c, 3, 62, 64
5, 16644, Note_on_c, 3, 62, 45
5, 16648, Note_off_c, 3, 57, 64
5, 16656, Note_on_c, 3, 57, 39
5, 16776, Note_off_c, 3, 57, 64
5, 16784, Note_off_c, 3, 69, 64
5, 16784, Note_off_c, 3, 66, 64
5, 16784, Note_off_c, 3, 62, 64
5, 16784, Note_on_c, 3, 57, 57
5, 16792, Note_on_c, 3, 62, 57
5, 16804, Note_on_c, 3, 66, 57
5, 16816, Note_on_c, 3, 69, 57
5, 17096, Note_off_c, 3, 69, 64
5, 17104, Note_off_c, 3, 66, 64
5, 17104, Note_on_c, 3, 69, 39
5, 17112, Note_on_c, 3, 66, 45
5, 17116, Note_off_c, 3, 62, 64
5, 17124, Note_on_c, 3, 62, 45
5, 17128, Note_off_c, 3, 57, 64
5, 17136, Note_on_c, 3, 57, 39
5, 17256, Note_off_c, 3, 57, 64
5, 17264, Note_off_c, 3, 69, 64
5, 17264, Note_off_c, 3, 66, 64
5, 17264, Note_off_c, 3, 62, 64
5, 17264, Note_on_c, 3, 57, 34
5, 17272, Note_on_c, 3, 62, 34
5, 17284, Note_on_c, 3, 66, 34
5, 17296, Note_on_c, 3, 69, 34
5, 17296, Note_on_c, 3, 50, 44
5, 17504, Note_off_c, 3, 69, 64
5, 17504, Note_off_c, 3, 66, 64
5, 17504, Note_off_c, 3, 62, 64
5, 17504, Note_off_c, 3, 57, 64
5, 17588, Note_on_c, 3, 57, 39
5, 17596, Note_on_c, 3, 62, 39
5, 17608, Note_on_c, 3, 66, 39
5, 17620, Note_on_c, 3, 69, 39
5, 17728, Note_off_c, 3, 69, 64
5, 17728, Note_off_c, 3, 66, 64
5, 17728, Note_off_c, 3, 62, 64
5, 17728, Note_off_c, 3, 57, 64
5, 17748, Note_on_c, 3, 57, 46
5, 17756, Note_on_c, 3, 62, 46
5, 17768, Note_on_c, 3, 66, 46
5, 17780, Note_on_c, 3, 69, 46
5, 18064, Note_off_c, 3, 57, 64
5, 18072, Note_off_c, 3, 50, 64
5, 18072, Note_off_c, 3, 62, 64
5, 18072, Note_on_c, 3, 57, 62
5, 18080, Note_on_c, 3, 62, 62
5, 18088, Note_off_c, 3, 66, 64
5, 18088, Note_off_c, 3, 69, 64
5, 18092, Note_on_c, 3, 66, 62
5, 18104, Note_on_c, 3, 69, 62
5, 18536, Note_off_c, 3, 69, 64
5, 18544, Note_off_c, 3, 66, 64
5, 18544, Note_on_c, 3, 69, 27
5, 18552, Note_on_c, 3, 66, 31
5, 18556, Note_off_c, 3, 62, 64
5, 18564, Note_off_c, 3, 57, 64
5, 18564, Note_on_c, 3, 62, 31
5, 18576, Note_on_c, 3, 57, 27
5, 18712, Note_off_c, 3, 57, 64
5, 18712, Note_off_c, 3, 69, 64
5, 18712, Note_off_c, 3, 66, 64
5, 18712, Note_off_c, 3, 62, 64
5, 18720, Note_on_c, 3, 50, 41
5, 18724, Note_on_c, 3, 57, 49
5, 18728, Note_on_c, 3, 62, 49
5, 18736, Note_on_c, 3, 66, 49
5, 18740, Note_on_c, 3, 69, 49
5, 19024, Note_off_c, 3, 69, 64
5, 19032, Note_off_c, 3, 66, 64
5, 19032, Note_on_c, 3, 69, 49
5, 19040, Note_on_c, 3, 66, 56
5, 19044, Note_off_c, 3, 62, 64
5, 19044, Note_off_c, 3, 57, 64
5, 19044, Note_off_c, 3, 50, 64
5, 19052, Note_on_c, 3, 62, 56
5, 19064, Note_on_c, 3, 57, 49
5, 19172, Note_off_c, 3, 57, 64
5, 19172, Note_off_c, 3, 69, 64
5, 19172, Note_off_c, 3, 66, 64
5, 19172, Note_off_c, 3, 62, 64
5, 19180, Note_on_c, 3, 55, 49
5, 19188, Note_on_c, 3, 59, 49
5, 19200, Note_on_c, 3, 62, 49
5, 19212, Note_on_c, 3, 67, 49
5, 19496, Note_off_c, 3, 67, 64
5, 19504, Note_off_c, 3, 62, 64
5, 19504, Note_on_c, 3, 67, 39
5, 19512, Note_on_c, 3, 62, 45
5, 19516, Note_off_c, 3, 59, 64
5, 19524, Note_on_c, 3, 59, 45
5, 19528, Note_off_c, 3, 55, 64
5, 19536, Note_on_c, 3, 55, 39
5, 19664, Note_off_c, 3, 67, 64
5, 19664, Note_off_c, 3, 62, 64
5, 19664, Note_off_c, 3, 59, 64
5, 19664, Note_off_c, 3, 55, 64
5, 19672, Note_on_c, 3, 55, 57
5, 19680, Note_on_c, 3, 59, 57
5, 19692, Note_on_c, 3, 62, 57
5, 19704, Note_on_c, 3, 67, 57
5, 19976, Note_off_c, 3, 67, 64
5, 19984, Note_off_c, 3, 62, 64
5, 19984, Note_on_c, 3, 67, 39
5, 19992, Note_on_c, 3, 62, 45
5, 19996, Note_off_c, 3, 59, 64
5, 20004, Note_on_c, 3, 59, 45
5, 20008, Note_off_c, 3, 55, 64
5, 20016, Note_on_c, 3, 55, 39
5, 20132, Note_off_c, 3, 55, 64
5, 20140, Note_on_c, 3, 55, 46
5, 20144, Note_off_c, 3, 67, 64
5, 20144, Note_off_c, 3, 62, 64
5, 20144, Note_off_c, 3, 59, 64
5, 20148, Note_on_c, 3, 59, 46
5, 20160, Note_on_c, 3, 62, 46
5, 20172, Note_on_c, 3, 67, 46
5, 20484, Note_off_c, 3, 67, 64
5, 20492, Note_off_c, 3, 62, 64
5, 20492, Note_on_c, 3, 67, 39
5, 20500, Note_on_c, 3, 62, 45
5, 20504, Note_off_c, 3, 59, 64
5, 20512, Note_off_c, 3, 55, 64
5, 20512, Note_on_c, 3, 59, 45
5, 20524, Note_on_c, 3, 55, 39
5, 20616, Note_off_c, 3, 55, 64
5, 20624, Note_off_c, 3, 59, 64
5, 20624, Note_on_c, 3, 55, 57
5, 20632, Note_on_c, 3, 59, 57
5, 20636, Note_off_c, 3, 62, 64
5, 20644, Note_off_c, 3, 67, 64
5, 20644, Note_on_c, 3, 62, 57
5, 20656, Note_on_c, 3, 67, 57
5, 20936, Note_off_c, 3, 67, 64
5, 20944, Note_off_c, 3, 62, 64
5, 20944, Note_on_c, 3, 67, 39
5, 20952, Note_on_c, 3, 62, 45
5, 20956, Note_off_c, 3, 59, 64
5, 20964, Note_off_c, 3, 55, 64
5, 20964, Note_on_c, 3, 59, 45
5, 20976, Note_on_c, 3, 55, 39
5, 21100, Note_off_c, 3, 55, 64
5, 21100, Note_off_c, 3, 67, 64
5, 21100, Note_off_c, 3, 62, 64
5, 21100, Note_off_c, 3, 59, 64
5, 21104, Note_on_c, 3, 57, 34
5, 21112, Note_on_c, 3, 62, 34
5, 21124, Note_on_c, 3, 66, 34
5, 21136, Note_on_c, 3, 69, 34
5, 21136, Note_on_c, 3, 50, 44
5, 21344, Note_off_c, 3, 69, 64
5, 21344, Note_off_c, 3, 66, 64
5, 21344, Note_off_c, 3, 62, 64
5, 21344, Note_off_c, 3, 57, 64
5, 21428, Note_on_c, 3, 57, 39
5, 21436, Note_on_c, 3, 62, 39
5, 21448, Note_on_c, 3, 66, 39
5, 21460, Note_on_c, 3, 69, 39
5, 21568, Note_off_c, 3, 69, 64
5, 21568, Note_off_c, 3, 66, 64
5, 21568, Note_off_c, 3, 62, 64
5, 21568, Note_off_c, 3, 57, 64
5, 21588, Note_on_c, 3, 57, 56
5, 21596, Note_on_c, 3, 62, 56
5, 21608, Note_on_c, 3, 66, 56
5, 21620, Note_on_c, 3, 69, 56
5, 21880, Note_off_c, 3, 69, 64
5, 21880, Note_off_c, 3, 66, 64
5, 21880, Note_off_c, 3, 62, 64
5, 21880, Note_off_c, 3, 57, 64
5, 21912, Note_off_c, 3, 50, 64
5, 21912, Note_on_c, 3, 57, 62
5, 21920, Note_on_c, 3, 62, 62
5, 21932, Note_on_c, 3, 66, 62
5, 21944, Note_on_c, 3, 69, 62
5, 22376, Note_off_c, 3, 57, 64
5, 22384, Note_off_c, 3, 62, 64
5, 22384, Note_on_c, 3, 57, 39
5, 22392, Note_on_c, 3, 62, 39
5, 22396, Note_off_c, 3, 66, 64
5, 22404, Note_off_c, 3, 69, 64
5, 22404, Note_on_c, 3, 66, 39
5, 22416, Note_on_c, 3, 69, 39
5, 22552, Note_off_c, 3, 69, 64
5, 22552, Note_off_c, 3, 57, 64
5, 22552, Note_off_c, 3, 62, 64
5, 22552, Note_off_c, 3, 66, 64
5, 22560, Note_on_c, 3, 50, 41
5, 22564, Note_on_c, 3, 57, 49
5, 22568, Note_on_c, 3, 62, 49
5, 22576, Note_on_c, 3, 66, 49
5, 22580, Note_on_c, 3, 69, 49
5, 22864, Note_off_c, 3, 69, 64
5, 22872, Note_off_c, 3, 66, 64
5, 22872, Note_on_c, 3, 69, 32
5, 22880, Note_on_c, 3, 66, 36
5, 22884, Note_off_c, 3, 62, 64
5, 22884, Note_off_c, 3, 57, 64
5, 22884, Note_off_c, 3, 50, 64
5, 22892, Note_on_c, 3, 62, 36
5, 22904, Note_on_c, 3, 57, 32
5, 23020, Note_off_c, 3, 57, 64
5, 23028, Note_off_c, 3, 62, 64
5, 23028, Note_on_c, 3, 57, 57
5, 23036, Note_on_c, 3, 62, 57
5, 23040, Note_off_c, 3, 66, 64
5, 23048, Note_off_c, 3, 69, 64
5, 23048, Note_on_c, 3, 66, 57
5, 23060, Note_on_c, 3, 69, 57
5, 23060, Note_on_c, 3, 50, 46
5, 23340, Note_off_c, 3, 69, 64
5, 23348, Note_off_c, 3, 66, 64
5, 23348, Note_on_c, 3, 69, 27
5, 23356, Note_on_c, 3, 66, 31
5, 23360, Note_off_c, 3, 62, 64
5, 23368, Note_off_c, 3, 57, 64
5, 23368, Note_on_c, 3, 62, 31
5, 23380, Note_on_c, 3, 57, 27
5, 23512, Note_off_c, 3, 57, 64
5, 23512, Note_off_c, 3, 69, 64
5, 23512, Note_off_c, 3, 66, 64
5, 23512, Note_off_c, 3, 62, 64
5, 23512, Note_on_c, 3, 50, 55
5, 23516, Note_off_c, 3, 50, 64
5, 23516, Note_on_c, 3, 57, 65
5, 23520, Note_on_c, 3, 62, 65
5, 23528, Note_on_c, 3, 66, 65
5, 23532, Note_on_c, 3, 69, 65
5, 23772, Note_off_c, 3, 69, 64
5, 23772, Note_off_c, 3, 66, 64
5, 23772, Note_off_c, 3, 62, 64
5, 23772, Note_off_c, 3, 50, 64
5, 23772, Note_off_c, 3, 57, 64
5, 23828, Note_on_c, 3, 69, 45
5, 23836, Note_on_c, 3, 66, 52
5, 23848, Note_on_c, 3, 62, 52
5, 23860, Note_on_c, 3, 57, 45
5, 23996, Note_off_c, 3, 57, 64
5, 23996, Note_off_c, 3, 62, 64
5, 24004, Note_on_c, 3, 50, 44
5, 24004, Note_on_c, 3, 57, 57
5, 24004, Note_on_c, 3, 62, 57
5, 24008, Note_off_c, 3, 66, 64
5, 24016, Note_off_c, 3, 69, 64
5, 24016, Note_on_c, 3, 66, 57
5, 24028, Note_on_c, 3, 69, 57
5, 24296, Note_off_c, 3, 69, 64
5, 24304, Note_off_c, 3, 66, 64
5, 24304, Note_on_c, 3, 69, 32
5, 24312, Note_on_c, 3, 66, 36
5, 24316, Note_off_c, 3, 62, 64
5, 24324, Note_off_c, 3, 57, 64
5, 24324, Note_on_c, 3, 62, 36
5, 24336, Note_on_c, 3, 57, 32
5, 24468, Note_off_c, 3, 50, 64
5, 24472, Note_off_c, 3, 69, 64
5, 24472, Note_off_c, 3, 66, 64
5, 24472, Note_off_c, 3, 62, 64
5, 24472, Note_off_c, 3, 57, 64
5, 24476, Note_on_c, 3, 50, 49
5, 24480, Note_on_c, 3, 57, 58
5, 24484, Note_on_c, 3, 62, 58
5, 24492, Note_on_c, 3, 66, 58
5, 24496, Note_on_c, 3, 69, 58
5, 24756, Note_off_c, 3, 69, 64
5, 24756, Note_off_c, 3, 66, 64
5, 24756, Note_off_c, 3, 62, 64
5, 24756, Note_off_c, 3, 57, 64
5, 24756, Note_off_c, 3, 50, 64
5, 24788, Note_on_c, 3, 57, 46
5, 24796, Note_on_c, 3, 62, 46
5, 24808, Note_on_c, 3, 66, 46
5, 24820, Note_on_c, 3, 69, 46
5, 24944, Note_off_c, 3, 69, 64
5, 24944, Note_off_c, 3, 66, 64
5, 24944, Note_off_c, 3, 62, 64
5, 24944, Note_off_c, 3, 57, 64
5, 24944, Note_on_c, 3, 52, 28
5, 24952, Note_on_c, 3, 57, 34
5, 24960, Note_on_c, 3, 61, 34
5, 24968, Note_on_c, 3, 64, 34
5, 24976, Note_on_c, 3, 69, 34
5, 24976, Note_on_c, 3, 45, 41
5, 25184, Note_off_c, 3, 69, 64
5, 25184, Note_off_c, 3, 64, 64
5, 25184, Note_off_c, 3, 61, 64
5, 25184, Note_off_c, 3, 57, 64
5, 25184, Note_off_c, 3, 52, 64
5, 25268, Note_on_c, 3, 69, 49
5, 25276, Note_on_c, 3, 64, 56
5, 25288, Note_on_c, 3, 61, 56
5, 25300, Note_on_c, 3, 57, 49
5, 25428, Note_off_c, 3, 57, 64
5, 25428, Note_on_c, 3, 52, 22
5, 25436, Note_off_c, 3, 61, 64
5, 25436, Note_on_c, 3, 57, 27
5, 25444, Note_off_c, 3, 64, 64
5, 25444, Note_on_c, 3, 61, 27
5, 25452, Note_off_c, 3, 69, 64
5, 25452, Note_on_c, 3, 64, 27
5, 25460, Note_on_c, 3, 69, 27
5, 25744, Note_off_c, 3, 69, 64
5, 25752, Note_off_c, 3, 45, 64
5, 25752, Note_off_c, 3, 64, 64
5, 25752, Note_on_c, 3, 69, 43
5, 25760, Note_on_c, 3, 64, 49
5, 25768, Note_off_c, 3, 52, 64
5, 25768, Note_off_c, 3, 57, 64
5, 25768, Note_off_c, 3, 61, 64
5, 25772, Note_on_c, 3, 61, 49
5, 25784, Note_on_c, 3, 57, 43
5, 25920, Note_off_c, 3, 57, 64
5, 25924, Note_on_c, 3, 45, 49
5, 25924, Note_on_c, 3, 52, 48
5, 25928, Note_off_c, 3, 61, 64
5, 25928, Note_on_c, 3, 57, 57
5, 25936, Note_on_c, 3, 61, 57
5, 25940, Note_off_c, 3, 69, 64
5, 25940, Note_off_c, 3, 64, 64
5, 25944, Note_on_c, 3, 64, 57
5, 25952, Note_on_c, 3, 69, 57
5, 26216, Note_off_c, 3, 69, 64
5, 26224, Note_off_c, 3, 64, 64
5, 26224, Note_on_c, 3, 69, 27
5, 26232, Note_on_c, 3, 64, 31
5, 26236, Note_off_c, 3, 61, 64
5, 26244, Note_off_c, 3, 52, 64
5, 26244, Note_off_c, 3, 57, 64
5, 26244, Note_on_c, 3, 61, 31
5, 26256, Note_on_c, 3, 57, 27
5, 26392, Note_off_c, 3, 57, 64
5, 26392, Note_off_c, 3, 45, 64
5, 26392, Note_off_c, 3, 69, 64
5, 26392, Note_off_c, 3, 64, 64
5, 26392, Note_off_c, 3, 61, 64
5, 26400, Note_on_c, 3, 45, 39
5, 26404, Note_on_c, 3, 52, 41
5, 26408, Note_on_c, 3, 57, 49
5, 26412, Note_on_c, 3, 61, 49
5, 26416, Note_on_c, 3, 64, 49
5, 26420, Note_on_c, 3, 69, 49
5, 26704, Note_off_c, 3, 69, 64
5, 26712, Note_off_c, 3, 64, 64
5, 26712, Note_on_c, 3, 69, 49
5, 26720, Note_on_c, 3, 64, 56
5, 26724, Note_off_c, 3, 61, 64
5, 26724, Note_off_c, 3, 57, 64
5, 26724, Note_off_c, 3, 52, 64
5, 26724, Note_off_c, 3, 45, 64
5, 26732, Note_on_c, 3, 61, 56
5, 26744, Note_on_c, 3, 57, 49
5, 26860, Note_off_c, 3, 57, 64
5, 26860, Note_off_c, 3, 69, 64
5, 26860, Note_off_c, 3, 64, 64
5, 26860, Note_off_c, 3, 61, 64
5, 26864, Note_on_c, 3, 55, 34
5, 26872, Note_on_c, 3, 59, 34
5, 26884, Note_on_c, 3, 62, 34
5, 26896, Note_on_c, 3, 67, 34
5, 26896, Note_on_c, 3, 50, 44
5, 27104, Note_off_c, 3, 67, 64
5, 27104, Note_off_c, 3, 62, 64
5, 27104, Note_off_c, 3, 59, 64
5, 27104, Note_off_c, 3, 55, 64
5, 27188, Note_on_c, 3, 67, 25
5, 27196, Note_on_c, 3, 62, 28
5, 27208, Note_on_c, 3, 59, 28
5, 27220, Note_on_c, 3, 55, 25
5, 27340, Note_off_c, 3, 55, 64
5, 27348, Note_off_c, 3, 59, 64
5, 27348, Note_on_c, 3, 55, 65
5, 27356, Note_off_c, 3, 62, 64
5, 27356, Note_off_c, 3, 67, 64
5, 27356, Note_on_c, 3, 59, 65
5, 27368, Note_on_c, 3, 62, 65
5, 27380, Note_on_c, 3, 67, 65
5, 27664, Note_off_c, 3, 67, 64
5, 27672, Note_off_c, 3, 62, 64
5, 27672, Note_on_c, 3, 67, 56
5, 27680, Note_on_c, 3, 62, 64
5, 27688, Note_off_c, 3, 55, 64
5, 27688, Note_off_c, 3, 59, 64
5, 27692, Note_on_c, 3, 59, 64
5, 27704, Note_on_c, 3, 55, 56
5, 27844, Note_off_c, 3, 50, 64
5, 27844, Note_on_c, 3, 50, 52
5, 28096, Note_off_c, 3, 67, 64
5, 28096, Note_off_c, 3, 62, 64
5, 28096, Note_off_c, 3, 59, 64
5, 28096, Note_off_c, 3, 55, 64
5, 28144, Note_on_c, 3, 67, 27
5, 28152, Note_on_c, 3, 62, 31
5, 28164, Note_on_c, 3, 59, 31
5, 28176, Note_on_c, 3, 55, 27
5, 28304, Note_off_c, 3, 55, 64
5, 28312, Note_off_c, 3, 59, 64
5, 28312, Note_off_c, 3, 62, 64
5, 28312, Note_off_c, 3, 67, 64
5, 28312, Note_on_c, 3, 55, 68
5, 28320, Note_on_c, 3, 59, 68
5, 28332, Note_on_c, 3, 62, 68
5, 28344, Note_on_c, 3, 67, 68
5, 28624, Note_off_c, 3, 67, 64
5, 28632, Note_off_c, 3, 62, 64
5, 28632, Note_on_c, 3, 67, 49
5, 28640, Note_on_c, 3, 62, 56
5, 28644, Note_off_c, 3, 59, 64
5, 28644, Note_off_c, 3, 55, 64
5, 28652, Note_on_c, 3, 59, 56
5, 28664, Note_on_c, 3, 55, 49
5, 28728, Note_off_c, 3, 50, 64
5, 28784, Note_off_c, 3, 67, 64
5, 28784, Note_off_c, 3, 62, 64
5, 28784, Note_off_c, 3, 59, 64
5, 28784, Note_off_c, 3, 55, 64
5, 28784, Note_on_c, 3, 52, 28
5, 28792, Note_on_c, 3, 57, 34
5, 28800, Note_on_c, 3, 61, 34
5, 28808, Note_on_c, 3, 64, 34
5, 28816, Note_on_c, 3, 69, 34
5, 28816, Note_on_c, 3, 45, 41
5, 29024, Note_off_c, 3, 69, 64
5, 29024, Note_off_c, 3, 64, 64
5, 29024, Note_off_c, 3, 61, 64
5, 29024, Note_off_c, 3, 57, 64
5, 29024, Note_off_c, 3, 52, 64
5, 29108, Note_on_c, 3, 69, 25
5, 29116, Note_on_c, 3, 64, 28
5, 29128, Note_on_c, 3, 61, 28
5, 29140, Note_on_c, 3, 57, 25
5, 29276, Note_off_c, 3, 57, 64
5, 29276, Note_off_c, 3, 61, 64
5, 29276, Note_off_c, 3, 64, 64
5, 29276, Note_off_c, 3, 45, 64
5, 29276, Note_off_c, 3, 69, 64
5, 29276, Note_on_c, 3, 45, 52
5, 29280, Note_on_c, 3, 52, 55
5, 29284, Note_on_c, 3, 57, 65
5, 29288, Note_on_c, 3, 61, 65
5, 29292, Note_on_c, 3, 64, 65
5, 29296, Note_on_c, 3, 69, 65
5, 29584, Note_off_c, 3, 69, 64
5, 29592, Note_off_c, 3, 64, 64
5, 29592, Note_on_c, 3, 69, 43
5, 29600, Note_on_c, 3, 64, 49
5, 29608, Note_off_c, 3, 61, 64
5, 29608, Note_off_c, 3, 57, 64
5, 29608, Note_off_c, 3, 52, 64
5, 29608, Note_off_c, 3, 45, 64
5, 29612, Note_on_c, 3, 61, 49
5, 29624, Note_on_c, 3, 57, 43
5, 29764, Note_on_c, 3, 45, 49
5, 30016, Note_off_c, 3, 57, 64
5, 30016, Note_off_c, 3, 69, 64
5, 30016, Note_off_c, 3, 64, 64
5, 30016, Note_off_c, 3, 61, 64
5, 30064, Note_on_c, 3, 69, 27
5, 30072, Note_on_c, 3, 64, 31
5, 30084, Note_on_c, 3, 61, 31
5, 30096, Note_on_c, 3, 57, 27
5, 30232, Note_off_c, 3, 57, 64
5, 30232, Note_off_c, 3, 61, 64
5, 30232, Note_off_c, 3, 64, 64
5, 30232, Note_off_c, 3, 45, 64
5, 30232, Note_off_c, 3, 69, 64
5, 30240, Note_on_c, 3, 45, 54
5, 30244, Note_on_c, 3, 52, 57
5, 30248, Note_on_c, 3, 57, 68
5, 30252, Note_on_c, 3, 61, 68
5, 30256, Note_on_c, 3, 64, 68
5, 30260, Note_on_c, 3, 69, 68
5, 30544, Note_off_c, 3, 69, 64
5, 30552, Note_off_c, 3, 64, 64
5, 30552, Note_on_c, 3, 69, 49
5, 30560, Note_on_c, 3, 64, 56
5, 30564, Note_off_c, 3, 61, 64
5, 30564, Note_off_c, 3, 57, 64
5, 30564, Note_off_c, 3, 52, 64
5, 30564, Note_off_c, 3, 45, 64
5, 30572, Note_on_c, 3, 61, 56
5, 30584, Note_on_c, 3, 57, 49
5, 30704, Note_off_c, 3, 57, 64
5, 30704, Note_off_c, 3, 69, 64
5, 30704, Note_off_c, 3, 64, 64
5, 30704, Note_off_c, 3, 61, 64
5, 30704, Note_on_c, 3, 50, 28
5, 30712, Note_on_c, 3, 55, 34
5, 30720, Note_on_c, 3, 59, 34
5, 30728, Note_on_c, 3, 62, 34
5, 30736, Note_on_c, 3, 67, 34
5, 30736, Note_on_c, 3, 43, 41
5, 30944, Note_off_c, 3, 67, 64
5, 30944, Note_off_c, 3, 62, 64
5, 30944, Note_off_c, 3, 59, 64
5, 30944, Note_off_c, 3, 55, 64
5, 30944, Note_off_c, 3, 50, 64
5, 31028, Note_on_c, 3, 67, 49
5, 31036, Note_on_c, 3, 62, 56
5, 31048, Note_on_c, 3, 59, 56
5, 31060, Note_on_c, 3, 55, 49
5, 31188, Note_off_c, 3, 55, 64
5, 31188, Note_on_c, 3, 50, 22
5, 31196, Note_off_c, 3, 59, 64
5, 31196, Note_on_c, 3, 55, 27
5, 31204, Note_off_c, 3, 62, 64
5, 31204, Note_on_c, 3, 59, 27
5, 31212, Note_off_c, 3, 67, 64
5, 31212, Note_on_c, 3, 62, 27
5, 31220, Note_on_c, 3, 67, 27
5, 31504, Note_off_c, 3, 67, 64
5, 31512, Note_off_c, 3, 43, 64
5, 31512, Note_off_c, 3, 62, 64
5, 31512, Note_on_c, 3, 67, 43
5, 31520, Note_on_c, 3, 62, 49
5, 31528, Note_off_c, 3, 50, 64
5, 31528, Note_off_c, 3, 55, 64
5, 31528, Note_off_c, 3, 59, 64
5, 31532, Note_on_c, 3, 59, 49
5, 31544, Note_on_c, 3, 55, 43
5, 31680, Note_off_c, 3, 55, 64
5, 31684, Note_on_c, 3, 43, 49
5, 31684, Note_on_c, 3, 50, 48
5, 31688, Note_off_c, 3, 59, 64
5, 31688, Note_on_c, 3, 55, 57
5, 31696, Note_on_c, 3, 59, 57
5, 31700, Note_off_c, 3, 67, 64
5, 31700, Note_off_c, 3, 62, 64
5, 31704, Note_on_c, 3, 62, 57
5, 31712, Note_on_c, 3, 67, 57
5, 31976, Note_off_c, 3, 67, 64
5, 31984, Note_off_c, 3, 62, 64
5, 31984, Note_on_c, 3, 67, 27
5, 31992, Note_on_c, 3, 62, 31
5, 31996, Note_off_c, 3, 59, 64
5, 32004, Note_off_c, 3, 50, 64
5, 32004, Note_off_c, 3, 55, 64
5, 32004, Note_on_c, 3, 59, 31
5, 32016, Note_on_c, 3, 55, 27
5, 32152, Note_off_c, 3, 55, 64
5, 32152, Note_off_c, 3, 43, 64
5, 32152, Note_off_c, 3, 67, 64
5, 32152, Note_off_c, 3, 62, 64
5, 32152, Note_off_c, 3, 59, 64
5, 32160, Note_on_c, 3, 43, 39
5, 32164, Note_on_c, 3, 50, 41
5, 32168, Note_on_c, 3, 55, 49
5, 32172, Note_on_c, 3, 59, 49
5, 32176, Note_on_c, 3, 62, 49
5, 32180, Note_on_c, 3, 67, 49
5, 32464, Note_off_c, 3, 67, 64
5, 32472, Note_off_c, 3, 62, 64
5, 32472, Note_on_c, 3, 67, 49
5, 32480, Note_on_c, 3, 62, 56
5, 32484, Note_off_c, 3, 59, 64
5, 32484, Note_off_c, 3, 55, 64
5, 32484, Note_off_c, 3, 50, 64
5, 32484, Note_off_c, 3, 43, 64
5, 32492, Note_on_c, 3, 59, 56
5, 32504, Note_on_c, 3, 55, 49
5, 32620, Note_off_c, 3, 55, 64
5, 32620, Note_off_c, 3, 67, 64
5, 32620, Note_off_c, 3, 62, 64
5, 32620, Note_off_c, 3, 59, 64
5, 32636, Note_on_c, 3, 50, 46
5, 32644, Note_on_c, 3, 57, 55
5, 32652, Note_on_c, 3, 62, 55
5, 32660, Note_on_c, 3, 66, 55
5, 32668, Note_on_c, 3, 69, 55
5, 33100, Note_off_c, 3, 69, 64
5, 33100, Note_off_c, 3, 66, 64
5, 33100, Note_off_c, 3, 62, 64
5, 33100, Note_off_c, 3, 57, 64
5, 33100, Note_off_c, 3, 50, 64
5, 33124, Note_on_c, 3, 52, 50
5, 33124, Note_on_c, 3, 59, 64
5, 33124, Note_on_c, 3, 64, 64
5, 33136, Note_on_c, 3, 67, 64
5, 33148, Note_on_c, 3, 71, 64
5, 33436, Note_off_c, 3, 59, 64
5, 33436, Note_off_c, 3, 52, 64
5, 33444, Note_on_c, 3, 59, 42
5, 33564, Note_off_c, 3, 59, 64
5, 33584, Note_off_c, 3, 64, 64
5, 33584, Note_off_c, 3, 67, 64
5, 33584, Note_off_c, 3, 71, 64
5, 33596, Note_on_c, 3, 45, 44
5, 33604, Note_on_c, 3, 50, 46
5, 33608, Note_on_c, 3, 57, 55
5, 33616, Note_on_c, 3, 62, 55
5, 33624, Note_on_c, 3, 66, 55
5, 33628, Note_on_c, 3, 69, 55
5, 34060, Note_off_c, 3, 69, 64
5, 34060, Note_off_c, 3, 66, 64
5, 34060, Note_off_c, 3, 62, 64
5, 34060, Note_off_c, 3, 57, 64
5, 34060, Note_off_c, 3, 50, 64
5, 34060, Note_off_c, 3, 45, 64
5, 34076, Note_on_c, 3, 52, 46
5, 34084, Note_on_c, 3, 59, 55
5, 34092, Note_on_c, 3, 64, 55
5, 34100, Note_on_c, 3, 67, 55
5, 34108, Note_on_c, 3, 71, 55
5, 34540, Note_off_c, 3, 71, 64
5, 34540, Note_off_c, 3, 67, 64
5, 34540, Note_off_c, 3, 64, 64
5, 34540, Note_off_c, 3, 59, 64
5, 34540, Note_off_c, 3, 52, 64
5, 34556, Note_on_c, 3, 50, 46
5, 34564, Note_on_c, 3, 57, 55
5, 34572, Note_on_c, 3, 62, 55
5, 34580, Note_on_c, 3, 66, 55
5, 34588, Note_on_c, 3, 69, 55
5, 35020, Note_off_c, 3, 69, 64
5, 35020, Note_off_c, 3, 66, 64
5, 35020, Note_off_c, 3, 62, 64
5, 35020, Note_off_c, 3, 57, 64
5, 35020, Note_off_c, 3, 50, 64
5, 35044, Note_on_c, 3, 52, 50
5, 35044, Note_on_c, 3, 59, 64
5, 35044, Note_on_c, 3, 64, 64
5, 35056, Note_on_c, 3, 67, 64
5, 35068, Note_on_c, 3, 71, 64
5, 35356, Note_off_c, 3, 59, 64
5, 35356, Note_off_c, 3, 52, 64
5, 35364, Note_on_c, 3, 59, 42
5, 35484, Note_off_c, 3, 59, 64
5, 35504, Note_off_c, 3, 64, 64
5, 35504, Note_off_c, 3, 67, 64
5, 35504, Note_off_c, 3, 71, 64
5, 35516, Note_on_c, 3, 50, 46
5, 35524, Note_on_c, 3, 57, 55
5, 35532, Note_on_c, 3, 62, 55
5, 35540, Note_on_c, 3, 66, 55
5, 35548, Note_on_c, 3, 69, 55
5, 35980, Note_off_c, 3, 69, 64
5, 35980, Note_off_c, 3, 66, 64
5, 35980, Note_off_c, 3, 62, 64
5, 35980, Note_off_c, 3, 57, 64
5, 35980, Note_off_c, 3, 50, 64
5, 36004, Note_on_c, 3, 52, 50
5, 36004, Note_on_c, 3, 59, 64
5, 36004, Note_on_c, 3, 64, 64
5, 36016, Note_on_c, 3, 67, 64
5, 36028, Note_on_c, 3, 71, 64
5, 36316, Note_off_c, 3, 59, 64
5, 36316, Note_off_c, 3, 52, 64
5, 36324, Note_on_c, 3, 59, 42
5, 36444, Note_off_c, 3, 59, 64
5, 36464, Note_off_c, 3, 64, 64
5, 36464, Note_off_c, 3, 67, 64
5, 36464, Note_off_c, 3, 71, 64
5, 36476, Note_on_c, 3, 50, 46
5, 36484, Note_on_c, 3, 57, 55
5, 36492, Note_on_c, 3, 62, 55
5, 36500, Note_on_c, 3, 66, 55
5, 36508, Note_on_c, 3, 69, 55
5, 36940, Note_off_c, 3, 69, 64
5, 36940, Note_off_c, 3, 66, 64
5, 36940, Note_off_c, 3, 62, 64
5, 36940, Note_off_c, 3, 57, 64
5, 36940, Note_off_c, 3, 50, 64
5, 36964, Note_on_c, 3, 52, 50
5, 36964, Note_on_c, 3, 59, 64
5, 36964, Note_on_c, 3, 64, 64
5, 36976, Note_on_c, 3, 67, 64
5, 36988, Note_on_c, 3, 71, 64
5, 37276, Note_off_c, 3, 59, 64
5, 37276, Note_off_c, 3, 52, 64
5, 37284, Note_on_c, 3, 59, 42
5, 37404, Note_off_c, 3, 59, 64
5, 37424, Note_off_c, 3, 64, 64
5, 37424, Note_off_c, 3, 67, 64
5, 37424, Note_off_c, 3, 71, 64
5, 37444, Note_on_c, 3, 45, 47
5, 37444, Note_on_c, 3, 50, 54
5, 37444, Note_on_c, 3, 57, 64
5, 37452, Note_on_c, 3, 62, 64
5, 37460, Note_on_c, 3, 66, 64
5, 37468, Note_on_c, 3, 69, 64
5, 37756, Note_off_c, 3, 57, 64
5, 37756, Note_off_c, 3, 45, 64
5, 37764, Note_on_c, 3, 57, 42
5, 37884, Note_off_c, 3, 57, 64
5, 37904, Note_off_c, 3, 50, 64
5, 37904, Note_off_c, 3, 62, 64
5, 37904, Note_off_c, 3, 66, 64
5, 37904, Note_off_c, 3, 69, 64
5, 37924, Note_on_c, 3, 52, 50
5, 37924, Note_on_c, 3, 59, 64
5, 37924, Note_on_c, 3, 64, 64
5, 37936, Note_on_c, 3, 67, 64
5, 37948, Note_on_c, 3, 71, 64
5, 38236, Note_off_c, 3, 59, 64
5, 38236, Note_off_c, 3, 52, 64
5, 38244, Note_on_c, 3, 59, 42
5, 38364, Note_off_c, 3, 59, 64
5, 38384, Note_off_c, 3, 64, 64
5, 38384, Note_off_c, 3, 67, 64
5, 38384, Note_off_c, 3, 71, 64
5, 38404, Note_on_c, 3, 50, 50
5, 38404, Note_on_c, 3, 57, 64
5, 38404, Note_on_c, 3, 62, 64
5, 38416, Note_on_c, 3, 66, 64
5, 38428, Note_on_c, 3, 69, 64
5, 38716, Note_off_c, 3, 57, 64
5, 38716, Note_off_c, 3, 50, 64
5, 38724, Note_on_c, 3, 57, 42
5, 38844, Note_off_c, 3, 57, 64
5, 38864, Note_off_c, 3, 62, 64
5, 38864, Note_off_c, 3, 66, 64
5, 38864, Note_off_c, 3, 69, 64
5, 38884, Note_on_c, 3, 52, 50
5, 38884, Note_on_c, 3, 59, 64
5, 38884, Note_on_c, 3, 64, 64
5, 38896, Note_on_c, 3, 67, 64
5, 38908, Note_on_c, 3, 71, 64
5, 39196, Note_off_c, 3, 59, 64
5, 39196, Note_off_c, 3, 52, 64
5, 39204, Note_on_c, 3, 59, 42
5, 39324, Note_off_c, 3, 59, 64
5, 39344, Note_off_c, 3, 64, 64
5, 39344, Note_off_c, 3, 67, 64
5, 39344, Note_off_c, 3, 71, 64
5, 39364, Note_on_c, 3, 50, 50
5, 39364, Note_on_c, 3, 57, 64
5, 39364, Note_on_c, 3, 62, 64
5, 39376, Note_on_c, 3, 66, 64
5, 39388, Note_on_c, 3, 69, 64
5, 39624, Note_off_c, 3, 69, 64
5, 39624, Note_off_c, 3, 66, 64
5, 39624, Note_off_c, 3, 62, 64
5, 39624, Note_off_c, 3, 57, 64
5, 39668, Note_on_c, 3, 57, 39
5, 39676, Note_on_c, 3, 62, 39
5, 39688, Note_on_c, 3, 66, 39
5, 39700, Note_on_c, 3, 69, 39
5, 39800, Note_off_c, 3, 50, 64
5, 39804, Note_off_c, 3, 57, 64
5, 39804, Note_off_c, 3, 62, 64
5, 39804, Note_off_c, 3, 66, 64
5, 39804, Note_off_c, 3, 69, 64
5, 39844, Note_on_c, 3, 47, 47
5, 39844, Note_on_c, 3, 52, 54
5, 39844, Note_on_c, 3, 59, 64
5, 39852, Note_on_c, 3, 64, 64
5, 39860, Note_on_c, 3, 67, 64
5, 39868, Note_on_c, 3, 71, 64
5, 40104, Note_off_c, 3, 71, 64
5, 40104, Note_off_c, 3, 67, 64
5, 40104, Note_off_c, 3, 64, 64
5, 40104, Note_off_c, 3, 59, 64
5, 40104, Note_off_c, 3, 52, 64
5, 40148, Note_on_c, 3, 52, 33
5, 40156, Note_on_c, 3, 59, 39
5, 40164, Note_on_c, 3, 64, 39
5, 40172, Note_on_c, 3, 67, 39
5, 40180, Note_on_c, 3, 71, 39
5, 40280, Note_off_c, 3, 47, 64
5, 40284, Note_off_c, 3, 52, 64
5, 40284, Note_off_c, 3, 59, 64
5, 40284, Note_off_c, 3, 64, 64
5, 40284, Note_off_c, 3, 67, 64
5, 40284, Note_off_c, 3, 71, 64
5, 40304, Note_on_c, 3, 57, 34
5, 40312, Note_on_c, 3, 62, 34
5, 40324, Note_on_c, 3, 66, 34
5, 40336, Note_on_c, 3, 69, 34
5, 40336, Note_on_c, 3, 50, 44
5, 40544, Note_off_c, 3, 69, 64
5, 40544, Note_off_c, 3, 66, 64
5, 40544, Note_off_c, 3, 62, 64
5, 40544, Note_off_c, 3, 57, 64
5, 40628, Note_on_c, 3, 69, 25
5, 40636, Note_on_c, 3, 66, 28
5, 40648, Note_on_c, 3, 62, 28
5, 40660, Note_on_c, 3, 57, 25
5, 40796, Note_off_c, 3, 57, 64
5, 40796, Note_off_c, 3, 62, 64
5, 40796, Note_off_c, 3, 66, 64
5, 40796, Note_off_c, 3, 50, 64
5, 40796, Note_off_c, 3, 69, 64
5, 40796, Note_on_c, 3, 50, 55
5, 40800, Note_on_c, 3, 57, 65
5, 40804, Note_on_c, 3, 62, 65
5, 40812, Note_on_c, 3, 66, 65
5, 40816, Note_on_c, 3, 69, 65
5, 41104, Note_off_c, 3, 69, 64
5, 41112, Note_off_c, 3, 66, 64
5, 41112, Note_on_c, 3, 69, 43
5, 41120, Note_on_c, 3, 66, 49
5, 41128, Note_off_c, 3, 62, 64
5, 41128, Note_off_c, 3, 57, 64
5, 41128, Note_off_c, 3, 50, 64
5, 41132, Note_on_c, 3, 62, 49
5, 41144, Note_on_c, 3, 57, 43
5, 41284, Note_on_c, 3, 50, 52
5, 41536, Note_off_c, 3, 57, 64
5, 41536, Note_off_c, 3, 69, 64
5, 41536, Note_off_c, 3, 66, 64
5, 41536, Note_off_c, 3, 62, 64
5, 41584, Note_on_c, 3, 69, 27
5, 41592, Note_on_c, 3, 66, 31
5, 41604, Note_on_c, 3, 62, 31
5, 41616, Note_on_c, 3, 57, 27
5, 41752, Note_off_c, 3, 57, 64
5, 41752, Note_off_c, 3, 62, 64
5, 41752, Note_off_c, 3, 66, 64
5, 41752, Note_off_c, 3, 50, 64
5, 41752, Note_off_c, 3, 69, 64
5, 41760, Note_on_c, 3, 50, 57
5, 41764, Note_on_c, 3, 57, 68
5, 41768, Note_on_c, 3, 62, 68
5, 41776, Note_on_c, 3, 66, 68
5, 41780, Note_on_c, 3, 69, 68
5, 42064, Note_off_c, 3, 69, 64
5, 42072, Note_off_c, 3, 66, 64
5, 42072, Note_on_c, 3, 69, 49
5, 42080, Note_on_c, 3, 66, 56
5, 42084, Note_off_c, 3, 62, 64
5, 42084, Note_off_c, 3, 57, 64
5, 42084, Note_off_c, 3, 50, 64
5, 42092, Note_on_c, 3, 62, 56
5, 42104, Note_on_c, 3, 57, 49
5, 42224, Note_off_c, 3, 57, 64
5, 42224, Note_off_c, 3, 69, 64
5, 42224, Note_off_c, 3, 66, 64
5, 42224, Note_off_c, 3, 62, 64
5, 42224, Note_on_c, 3, 50, 28
5, 42232, Note_on_c, 3, 55, 34
5, 42240, Note_on_c, 3, 59, 34
5, 42248, Note_on_c, 3, 62, 34
5, 42256, Note_on_c, 3, 67, 34
5, 42256, Note_on_c, 3, 43, 41
5, 42464, Note_off_c, 3, 67, 64
5, 42464, Note_off_c, 3, 62, 64
5, 42464, Note_off_c, 3, 59, 64
5, 42464, Note_off_c, 3, 55, 64
5, 42464, Note_off_c, 3, 50, 64
5, 42548, Note_on_c, 3, 67, 49
5, 42556, Note_on_c, 3, 62, 56
5, 42568, Note_on_c, 3, 59, 56
5, 42580, Note_on_c, 3, 55, 49
5, 42708, Note_off_c, 3, 55, 64
5, 42708, Note_on_c, 3, 50, 22
5, 42716, Note_off_c, 3, 59, 64
5, 42716, Note_on_c, 3, 55, 27
5, 42724, Note_off_c, 3, 62, 64
5, 42724, Note_on_c, 3, 59, 27
5, 42732, Note_off_c, 3, 67, 64
5, 42732, Note_on_c, 3, 62, 27
5, 42740, Note_on_c, 3, 67, 27
5, 43024, Note_off_c, 3, 67, 64
5, 43032, Note_off_c, 3, 43, 64
5, 43032, Note_off_c, 3, 62, 64
5, 43032, Note_on_c, 3, 67, 43
5, 43040, Note_on_c, 3, 62, 49
5, 43048, Note_off_c, 3, 50, 64
5, 43048, Note_off_c, 3, 55, 64
5, 43048, Note_off_c, 3, 59, 64
5, 43052, Note_on_c, 3, 59, 49
5, 43064, Note_on_c, 3, 55, 43
5, 43200, Note_off_c, 3, 55, 64
5, 43204, Note_on_c, 3, 43, 49
5, 43204, Note_on_c, 3, 50, 48
5, 43208, Note_off_c, 3, 59, 64
5, 43208, Note_on_c, 3, 55, 57
5, 43216, Note_on_c, 3, 59, 57
5, 43220, Note_off_c, 3, 67, 64
5, 43220, Note_off_c, 3, 62, 64
5, 43224, Note_on_c, 3, 62, 57
5, 43232, Note_on_c, 3, 67, 57
5, 43496, Note_off_c, 3, 67, 64
5, 43504, Note_off_c, 3, 62, 64
5, 43504, Note_on_c, 3, 67, 27
5, 43512, Note_on_c, 3, 62, 31
5, 43516, Note_off_c, 3, 59, 64
5, 43524, Note_off_c, 3, 50, 64
5, 43524, Note_off_c, 3, 55, 64
5, 43524, Note_on_c, 3, 59, 31
5, 43536, Note_on_c, 3, 55, 27
5, 43672, Note_off_c, 3, 55, 64
5, 43672, Note_off_c, 3, 43, 64
5, 43672, Note_off_c, 3, 67, 64
5, 43672, Note_off_c, 3, 62, 64
5, 43672, Note_off_c, 3, 59, 64
5, 43680, Note_on_c, 3, 43, 39
5, 43684, Note_on_c, 3, 50, 41
5, 43688, Note_on_c, 3, 55, 49
5, 43692, Note_on_c, 3, 59, 49
5, 43696, Note_on_c, 3, 62, 49
5, 43700, Note_on_c, 3, 67, 49
5, 43984, Note_off_c, 3, 67, 64
5, 43992, Note_off_c, 3, 62, 64
5, 43992, Note_on_c, 3, 67, 49
5, 44000, Note_on_c, 3, 62, 56
5, 44004, Note_off_c, 3, 59, 64
5, 44004, Note_off_c, 3, 55, 64
5, 44004, Note_off_c, 3, 50, 64
5, 44004, Note_off_c, 3, 43, 64
5, 44012, Note_on_c, 3, 59, 56
5, 44024, Note_on_c, 3, 55, 49
5, 44140, Note_off_c, 3, 55, 64
5, 44140, Note_off_c, 3, 67, 64
5, 44140, Note_off_c, 3, 62, 64
5, 44140, Note_off_c, 3, 59, 64
5, 44144, Note_on_c, 3, 57, 34
5, 44152, Note_on_c, 3, 62, 34
5, 44164, Note_on_c, 3, 66, 34
5, 44176, Note_on_c, 3, 69, 34
5, 44176, Note_on_c, 3, 50, 44
5, 44384, Note_off_c, 3, 69, 64
5, 44384, Note_off_c, 3, 66, 64
5, 44384, Note_off_c, 3, 62, 64
5, 44384, Note_off_c, 3, 57, 64
5, 44468, Note_on_c, 3, 57, 39
5, 44476, Note_on_c, 3, 62, 39
5, 44488, Note_on_c, 3, 66, 39
5, 44500, Note_on_c, 3, 69, 39
5, 44608, Note_off_c, 3, 69, 64
5, 44608, Note_off_c, 3, 66, 64
5, 44608, Note_off_c, 3, 62, 64
5, 44608, Note_off_c, 3, 57, 64
5, 44628, Note_on_c, 3, 57, 56
5, 44636, Note_on_c, 3, 62, 56
5, 44648, Note_on_c, 3, 66, 56
5, 44660, Note_on_c, 3, 69, 56
5, 44920, Note_off_c, 3, 69, 64
5, 44920, Note_off_c, 3, 66, 64
5, 44920, Note_off_c, 3, 62, 64
5, 44920, Note_off_c, 3, 57, 64
5, 44952, Note_off_c, 3, 50, 64
5, 44952, Note_on_c, 3, 57, 62
5, 44960, Note_on_c, 3, 62, 62
5, 44972, Note_on_c, 3, 66, 62
5, 44984, Note_on_c, 3, 69, 62
5, 45416, Note_off_c, 3, 57, 64
5, 45424, Note_off_c, 3, 62, 64
5, 45424, Note_on_c, 3, 57, 39
5, 45432, Note_on_c, 3, 62, 39
5, 45436, Note_off_c, 3, 66, 64
5, 45444, Note_off_c, 3, 69, 64
5, 45444, Note_on_c, 3, 66, 39
5, 45456, Note_on_c, 3, 69, 39
5, 45592, Note_off_c, 3, 69, 64
5, 45592, Note_off_c, 3, 57, 64
5, 45592, Note_off_c, 3, 62, 64
5, 45592, Note_off_c, 3, 66, 64
5, 45600, Note_on_c, 3, 50, 41
5, 45604, Note_on_c, 3, 57, 49
5, 45608, Note_on_c, 3, 62, 49
5, 45616, Note_on_c, 3, 66, 49
5, 45620, Note_on_c, 3, 69, 49
5, 45904, Note_off_c, 3, 69, 64
5, 45912, Note_off_c, 3, 66, 64
5, 45912, Note_on_c, 3, 69, 32
5, 45920, Note_on_c, 3, 66, 36
5, 45924, Note_off_c, 3, 62, 64
5, 45924, Note_off_c, 3, 57, 64
5, 45924, Note_off_c, 3, 50, 64
5, 45932, Note_on_c, 3, 62, 36
5, 45944, Note_on_c, 3, 57, 32
5, 46060, Note_off_c, 3, 57, 64
5, 46068, Note_off_c, 3, 62, 64
5, 46068, Note_on_c, 3, 57, 57
5, 46076, Note_on_c, 3, 62, 57
5, 46080, Note_off_c, 3, 66, 64
5, 46088, Note_off_c, 3, 69, 64
5, 46088, Note_on_c, 3, 66, 57
5, 46100, Note_on_c, 3, 69, 57
5, 46100, Note_on_c, 3, 50, 46
5, 46380, Note_off_c, 3, 69, 64
5, 46388, Note_off_c, 3, 66, 64
5, 46388, Note_on_c, 3, 69, 27
5, 46396, Note_on_c, 3, 66, 31
5, 46400, Note_off_c, 3, 62, 64
5, 46408, Note_off_c, 3, 57, 64
5, 46408, Note_on_c, 3, 62, 31
5, 46420, Note_on_c, 3, 57, 27
5, 46552, Note_off_c, 3, 57, 64
5, 46552, Note_off_c, 3, 69, 64
5, 46552, Note_off_c, 3, 66, 64
5, 46552, Note_off_c, 3, 62, 64
5, 46552, Note_on_c, 3, 50, 55
5, 46556, Note_off_c, 3, 50, 64
5, 46556, Note_on_c, 3, 57, 65
5, 46560, Note_on_c, 3, 62, 65
5, 46568, Note_on_c, 3, 66, 65
5, 46572, Note_on_c, 3, 69, 65
5, 46812, Note_off_c, 3, 69, 64
5, 46812, Note_off_c, 3, 66, 64
5, 46812, Note_off_c, 3, 62, 64
5, 46812, Note_off_c, 3, 50, 64
5, 46812, Note_off_c, 3, 57, 64
5, 46868, Note_on_c, 3, 69, 45
5, 46876, Note_on_c, 3, 66, 52
5, 46888, Note_on_c, 3, 62, 52
5, 46900, Note_on_c, 3, 57, 45
5, 47036, Note_off_c, 3, 57, 64
5, 47036, Note_off_c, 3, 62, 64
5, 47044, Note_on_c, 3, 50, 44
5, 47044, Note_on_c, 3, 57, 57
5, 47044, Note_on_c, 3, 62, 57
5, 47048, Note_off_c, 3, 66, 64
5, 47056, Note_off_c, 3, 69, 64
5, 47056, Note_on_c, 3, 66, 57
5, 47068, Note_on_c, 3, 69, 57
5, 47336, Note_off_c, 3, 69, 64
5, 47344, Note_off_c, 3, 66, 64
5, 47344, Note_on_c, 3, 69, 32
5, 47352, Note_on_c, 3, 66, 36
5, 47356, Note_off_c, 3, 62, 64
5, 47364, Note_off_c, 3, 57, 64
5, 47364, Note_on_c, 3, 62, 36
5, 47376, Note_on_c, 3, 57, 32
5, 47508, Note_off_c, 3, 50, 64
5, 47512, Note_off_c, 3, 69, 64
5, 47512, Note_off_c, 3, 66, 64
5, 47512, Note_off_c, 3, 62, 64
5, 47512, Note_off_c, 3, 57, 64
5, 47516, Note_on_c, 3, 50, 49
5, 47520, Note_on_c, 3, 57, 58
5, 47524, Note_on_c, 3, 62, 58
5, 47532, Note_on_c, 3, 66, 58
5, 47536, Note_on_c, 3, 69, 58
5, 47796, Note_off_c, 3, 69, 64
5, 47796, Note_off_c, 3, 66, 64
5, 47796, Note_off_c, 3, 62, 64
5, 47796, Note_off_c, 3, 57, 64
5, 47796, Note_off_c, 3, 50, 64
5, 47828, Note_on_c, 3, 57, 46
5, 47836, Note_on_c, 3, 62, 46
5, 47848, Note_on_c, 3, 66, 46
5, 47860, Note_on_c, 3, 69, 46
5, 47984, Note_off_c, 3, 69, 64
5, 47984, Note_off_c, 3, 66, 64
5, 47984, Note_off_c, 3, 62, 64
5, 47984, Note_off_c, 3, 57, 64
5, 47984, Note_on_c, 3, 50, 28
5, 47992, Note_on_c, 3, 57, 34
5, 48000, Note_on_c, 3, 62, 34
5, 48008, Note_on_c, 3, 66, 34
5, 48016, Note_on_c, 3, 69, 34
5, 48016, Note_on_c, 3, 45, 41
5, 48224, Note_off_c, 3, 69, 64
5, 48224, Note_off_c, 3, 66, 64
5, 48224, Note_off_c, 3, 62, 64
5, 48224, Note_off_c, 3, 57, 64
5, 48224, Note_off_c, 3, 50, 64
5, 48308, Note_on_c, 3, 50, 33
5, 48316, Note_on_c, 3, 57, 39
5, 48324, Note_on_c, 3, 62, 39
5, 48332, Note_on_c, 3, 66, 39
5, 48340, Note_on_c, 3, 69, 39
5, 48448, Note_off_c, 3, 69, 64
5, 48448, Note_off_c, 3, 66, 64
5, 48448, Note_off_c, 3, 62, 64
5, 48448, Note_off_c, 3, 57, 64
5, 48448, Note_off_c, 3, 50, 64
5, 48468, Note_on_c, 3, 50, 47
5, 48476, Note_on_c, 3, 57, 56
5, 48484, Note_on_c, 3, 62, 56
5, 48492, Note_on_c, 3, 66, 56
5, 48500, Note_on_c, 3, 69, 56
5, 48784, Note_off_c, 3, 50, 64
5, 48792, Note_off_c, 3, 45, 64
5, 48792, Note_off_c, 3, 57, 64
5, 48792, Note_on_c, 3, 50, 52
5, 48800, Note_off_c, 3, 62, 64
5, 48800, Note_on_c, 3, 57, 62
5, 48808, Note_off_c, 3, 66, 64
5, 48808, Note_off_c, 3, 69, 64
5, 48808, Note_on_c, 3, 62, 62
5, 48816, Note_on_c, 3, 66, 62
5, 48824, Note_on_c, 3, 69, 62
5, 49256, Note_off_c, 3, 50, 64
5, 49264, Note_off_c, 3, 57, 64
5, 49264, Note_on_c, 3, 50, 33
5, 49272, Note_off_c, 3, 62, 64
5, 49272, Note_on_c, 3, 57, 39
5, 49280, Note_on_c, 3, 62, 39
5, 49284, Note_off_c, 3, 66, 64
5, 49284, Note_off_c, 3, 69, 64
5, 49288, Note_on_c, 3, 66, 39
5, 49296, Note_on_c, 3, 69, 39
5, 49432, Note_off_c, 3, 69, 64
5, 49432, Note_off_c, 3, 50, 64
5, 49432, Note_off_c, 3, 57, 64
5, 49432, Note_off_c, 3, 62, 64
5, 49432, Note_off_c, 3, 66, 64
5, 49440, Note_on_c, 3, 45, 39
5, 49444, Note_on_c, 3, 50, 41
5, 49448, Note_on_c, 3, 57, 49
5, 49452, Note_on_c, 3, 62, 49
5, 49456, Note_on_c, 3, 66, 49
5, 49460, Note_on_c, 3, 69, 49
5, 49744, Note_off_c, 3, 69, 64
5, 49752, Note_off_c, 3, 66, 64
5, 49752, Note_on_c, 3, 69, 32
5, 49760, Note_on_c, 3, 66, 36
5, 49764, Note_off_c, 3, 62, 64
5, 49764, Note_off_c, 3, 57, 64
5, 49764, Note_off_c, 3, 50, 64
5, 49764, Note_off_c, 3, 45, 64
5, 49772, Note_on_c, 3, 62, 36
5, 49784, Note_on_c, 3, 57, 32
5, 49900, Note_off_c, 3, 57, 64
5, 49900, Note_off_c, 3, 69, 64
5, 49900, Note_off_c, 3, 66, 64
5, 49900, Note_off_c, 3, 62, 64
5, 49904, Note_on_c, 3, 50, 28
5, 49912, Note_on_c, 3, 55, 34
5, 49920, Note_on_c, 3, 59, 34
5, 49928, Note_on_c, 3, 62, 34
5, 49936, Note_on_c, 3, 67, 34
5, 49936, Note_on_c, 3, 43, 41
5, 50144, Note_off_c, 3, 67, 64
5, 50144, Note_off_c, 3, 62, 64
5, 50144, Note_off_c, 3, 59, 64
5, 50144, Note_off_c, 3, 55, 64
5, 50144, Note_off_c, 3, 50, 64
5, 50228, Note_on_c, 3, 67, 25
5, 50236, Note_on_c, 3, 62, 28
5, 50248, Note_on_c, 3, 59, 28
5, 50260, Note_on_c, 3, 55, 25
5, 50396, Note_off_c, 3, 55, 64
5, 50396, Note_off_c, 3, 59, 64
5, 50396, Note_off_c, 3, 62, 64
5, 50396, Note_off_c, 3, 43, 64
5, 50396, Note_off_c, 3, 67, 64
5, 50396, Note_on_c, 3, 43, 52
5, 50400, Note_on_c, 3, 50, 55
5, 50404, Note_on_c, 3, 55, 65
5, 50408, Note_on_c, 3, 59, 65
5, 50412, Note_on_c, 3, 62, 65
5, 50416, Note_on_c, 3, 67, 65
5, 50704, Note_off_c, 3, 67, 64
5, 50712, Note_off_c, 3, 62, 64
5, 50712, Note_on_c, 3, 67, 43
5, 50720, Note_on_c, 3, 62, 49
5, 50728, Note_off_c, 3, 59, 64
5, 50728, Note_off_c, 3, 55, 64
5, 50728, Note_off_c, 3, 50, 64
5, 50728, Note_off_c, 3, 43, 64
5, 50732, Note_on_c, 3, 59, 49
5, 50744, Note_on_c, 3, 55, 43
5, 50884, Note_on_c, 3, 43, 49
5, 51136, Note_off_c, 3, 55, 64
5, 51136, Note_off_c, 3, 67, 64
5, 51136, Note_off_c, 3, 62, 64
5, 51136, Note_off_c, 3, 59, 64
5, 51184, Note_on_c, 3, 67, 27
5, 51192, Note_on_c, 3, 62, 31
5, 51204, Note_on_c, 3, 59, 31
5, 51216, Note_on_c, 3, 55, 27
5, 51352, Note_off_c, 3, 55, 64
5, 51352, Note_off_c, 3, 59, 64
5, 51352, Note_off_c, 3, 62, 64
5, 51352, Note_off_c, 3, 43, 64
5, 51352, Note_off_c, 3, 67, 64
5, 51360, Note_on_c, 3, 43, 54
5, 51364, Note_on_c, 3, 50, 57
5, 51368, Note_on_c, 3, 55, 68
5, 51372, Note_on_c, 3, 59, 68
5, 51376, Note_on_c, 3, 62, 68
5, 51380, Note_on_c, 3, 67, 68
5, 51664, Note_off_c, 3, 67, 64
5, 51672, Note_off_c, 3, 62, 64
5, 51672, Note_on_c, 3, 67, 49
5, 51680, Note_on_c, 3, 62, 56
5, 51684, Note_off_c, 3, 59, 64
5, 51684, Note_off_c, 3, 55, 64
5, 51684, Note_off_c, 3, 50, 64
5, 51684, Note_off_c, 3, 43, 64
5, 51692, Note_on_c, 3, 59, 56
5, 51704, Note_on_c, 3, 55, 49
5, 51816, Note_off_c, 3, 55, 64
5, 51824, Note_off_c, 3, 67, 64
5, 51824, Note_off_c, 3, 62, 64
5, 51824, Note_off_c, 3, 59, 64
5, 51824, Note_on_c, 3, 57, 34
5, 51832, Note_on_c, 3, 62, 34
5, 51844, Note_on_c, 3, 66, 34
5, 51856, Note_on_c, 3, 69, 34
5, 51856, Note_on_c, 3, 50, 44
5, 52064, Note_off_c, 3, 69, 64
5, 52064, Note_off_c, 3, 66, 64
5, 52064, Note_off_c, 3, 62, 64
5, 52064, Note_off_c, 3, 57, 64
5, 52148, Note_on_c, 3, 69, 25
5, 52156, Note_on_c, 3, 66, 28
5, 52168, Note_on_c, 3, 62, 28
5, 52180, Note_on_c, 3, 57, 25
5, 52300, Note_off_c, 3, 57, 64
5, 52308, Note_off_c, 3, 62, 64
5, 52308, Note_on_c, 3, 57, 65
5, 52316, Note_off_c, 3, 66, 64
5, 52316, Note_off_c, 3, 69, 64
5, 52316, Note_on_c, 3, 62, 65
5, 52328, Note_on_c, 3, 66, 65
5, 52340, Note_on_c, 3, 69, 65
5, 52624, Note_off_c, 3, 69, 64
5, 52632, Note_off_c, 3, 66, 64
5, 52632, Note_on_c, 3, 69, 49
5, 52640, Note_on_c, 3, 66, 56
5, 52648, Note_off_c, 3, 57, 64
5, 52648, Note_off_c, 3, 62, 64
5, 52652, Note_on_c, 3, 62, 56
5, 52664, Note_on_c, 3, 57, 49
5, 52804, Note_off_c, 3, 50, 64
5, 52804, Note_on_c, 3, 50, 52
5, 53056, Note_off_c, 3, 69, 64
5, 53056, Note_off_c, 3, 66, 64
5, 53056, Note_off_c, 3, 62, 64
5, 53056, Note_off_c, 3, 57, 64
5, 53104, Note_on_c, 3, 69, 27
5, 53112, Note_on_c, 3, 66, 31
5, 53124, Note_on_c, 3, 62, 31
5, 53136, Note_on_c, 3, 57, 27
5, 53264, Note_off_c, 3, 57, 64
5, 53272, Note_off_c, 3, 62, 64
5, 53272, Note_off_c, 3, 66, 64
5, 53272, Note_off_c, 3, 69, 64
5, 53272, Note_on_c, 3, 57, 68
5, 53280, Note_on_c, 3, 62, 68
5, 53292, Note_on_c, 3, 66, 68
5, 53304, Note_on_c, 3, 69, 68
5, 53584, Note_off_c, 3, 69, 64
5, 53592, Note_off_c, 3, 66, 64
5, 53592, Note_on_c, 3, 69, 49
5, 53600, Note_on_c, 3, 66, 56
5, 53604, Note_off_c, 3, 62, 64
5, 53604, Note_off_c, 3, 57, 64
5, 53612, Note_on_c, 3, 62, 56
5, 53624, Note_on_c, 3, 57, 49
5, 53688, Note_off_c, 3, 50, 64
5, 53768, Note_on_c, 3, 50, 46
5, 54060, Note_off_c, 3, 69, 64
5, 54068, Note_off_c, 3, 66, 64
5, 54068, Note_off_c, 3, 62, 64
5, 54068, Note_off_c, 3, 57, 64
5, 54068, Note_on_c, 3, 69, 27
5, 54076, Note_on_c, 3, 66, 31
5, 54088, Note_on_c, 3, 62, 31
5, 54100, Note_on_c, 3, 57, 27
5, 54216, Note_off_c, 3, 57, 64
5, 54224, Note_off_c, 3, 62, 64
5, 54224, Note_on_c, 3, 57, 65
5, 54232, Note_off_c, 3, 66, 64
5, 54232, Note_off_c, 3, 69, 64
5, 54232, Note_on_c, 3, 62, 65
5, 54244, Note_on_c, 3, 66, 65
5, 54256, Note_on_c, 3, 69, 65
5, 54492, Note_off_c, 3, 69, 64
5, 54492, Note_off_c, 3, 66, 64
5, 54492, Note_off_c, 3, 57, 64
5, 54492, Note_off_c, 3, 62, 64
5, 54548, Note_on_c, 3, 69, 45
5, 54556, Note_on_c, 3, 66, 52
5, 54568, Note_on_c, 3, 62, 52
5, 54580, Note_on_c, 3, 57, 45
5, 54716, Note_off_c, 3, 50, 64
5, 54724, Note_on_c, 3, 50, 44
5, 54984, Note_off_c, 3, 69, 64
5, 54984, Note_off_c, 3, 66, 64
5, 54984, Note_off_c, 3, 62, 64
5, 54984, Note_off_c, 3, 57, 64
5, 55024, Note_on_c, 3, 69, 32
5, 55032, Note_on_c, 3, 66, 36
5, 55044, Note_on_c, 3, 62, 36
5, 55056, Note_on_c, 3, 57, 32
5, 55180, Note_off_c, 3, 57, 64
5, 55188, Note_on_c, 3, 57, 68
5, 55192, Note_off_c, 3, 62, 64
5, 55192, Note_off_c, 3, 66, 64
5, 55192, Note_off_c, 3, 69, 64
5, 55196, Note_on_c, 3, 62, 68
5, 55208, Note_on_c, 3, 66, 68
5, 55220, Note_on_c, 3, 69, 68
5, 55476, Note_off_c, 3, 69, 64
5, 55476, Note_off_c, 3, 66, 64
5, 55476, Note_off_c, 3, 57, 64
5, 55476, Note_off_c, 3, 62, 64
5, 55508, Note_on_c, 3, 69, 32
5, 55516, Note_on_c, 3, 66, 36
5, 55528, Note_on_c, 3, 62, 36
5, 55540, Note_on_c, 3, 57, 32
5, 55656, Note_off_c, 3, 50, 64
5, 55664, Note_off_c, 3, 69, 64
5, 55664, Note_off_c, 3, 66, 64
5, 55664, Note_off_c, 3, 62, 64
5, 55664, Note_off_c, 3, 57, 64
5, 55664, Note_on_c, 3, 52, 28
5, 55672, Note_on_c, 3, 57, 34
5, 55680, Note_on_c, 3, 61, 34
5, 55688, Note_on_c, 3, 64, 34
5, 55696, Note_on_c, 3, 69, 34
5, 55696, Note_on_c, 3, 45, 41
5, 55904, Note_off_c, 3, 69, 64
5, 55904, Note_off_c, 3, 64, 64
5, 55904, Note_off_c, 3, 61, 64
5, 55904, Note_off_c, 3, 57, 64
5, 55904, Note_off_c, 3, 52, 64
5, 55988, Note_on_c, 3, 52, 33
5, 55996, Note_on_c, 3, 57, 39
5, 56004, Note_on_c, 3, 61, 39
5, 56012, Note_on_c, 3, 64, 39
5, 56020, Note_on_c, 3, 69, 39
5, 56128, Note_off_c, 3, 69, 64
5, 56128, Note_off_c, 3, 64, 64
5, 56128, Note_off_c, 3, 61, 64
5, 56128, Note_off_c, 3, 57, 64
5, 56128, Note_off_c, 3, 52, 64
5, 56148, Note_on_c, 3, 52, 47
5, 56156, Note_on_c, 3, 57, 56
5, 56164, Note_on_c, 3, 61, 56
5, 56172, Note_on_c, 3, 64, 56
5, 56180, Note_on_c, 3, 69, 56
5, 56464, Note_off_c, 3, 52, 64
5, 56472, Note_off_c, 3, 45, 64
5, 56472, Note_off_c, 3, 57, 64
5, 56472, Note_on_c, 3, 52, 52
5, 56480, Note_off_c, 3, 61, 64
5, 56480, Note_on_c, 3, 57, 62
5, 56488, Note_off_c, 3, 64, 64
5, 56488, Note_off_c, 3, 69, 64
5, 56488, Note_on_c, 3, 61, 62
5, 56496, Note_on_c, 3, 64, 62
5, 56504, Note_on_c, 3, 69, 62
5, 56936, Note_off_c, 3, 52, 64
5, 56944, Note_off_c, 3, 57, 64
5, 56944, Note_on_c, 3, 52, 33
5, 56952, Note_off_c, 3, 61, 64
5, 56952, Note_on_c, 3, 57, 39
5, 56960, Note_on_c, 3, 61, 39
5, 56964, Note_off_c, 3, 64, 64
5, 56964, Note_off_c, 3, 69, 64
5, 56968, Note_on_c, 3, 64, 39
5, 56976, Note_on_c, 3, 69, 39
5, 57112, Note_off_c, 3, 69, 64
5, 57112, Note_off_c, 3, 52, 64
5, 57112, Note_off_c, 3, 57, 64
5, 57112, Note_off_c, 3, 61, 64
5, 57112, Note_off_c, 3, 64, 64
5, 57120, Note_on_c, 3, 45, 39
5, 57124, Note_on_c, 3, 52, 41
5, 57128, Note_on_c, 3, 57, 49
5, 57132, Note_on_c, 3, 61, 49
5, 57136, Note_on_c, 3, 64, 49
5, 57140, Note_on_c, 3, 69, 49
5, 57424, Note_off_c, 3, 69, 64
5, 57432, Note_off_c, 3, 64, 64
5, 57432, Note_on_c, 3, 69, 32
5, 57440, Note_on_c, 3, 64, 36
5, 57444, Note_off_c, 3, 61, 64
5, 57444, Note_off_c, 3, 57, 64
5, 57444, Note_off_c, 3, 52, 64
5, 57444, Note_off_c, 3, 45, 64
5, 57452, Note_on_c, 3, 61, 36
5, 57464, Note_on_c, 3, 57, 32
5, 57580, Note_off_c, 3, 57, 64
5, 57580, Note_off_c, 3, 69, 64
5, 57580, Note_off_c, 3, 64, 64
5, 57580, Note_off_c, 3, 61, 64
5, 57608, Note_on_c, 3, 43, 41
5, 57908, Note_on_c, 3, 50, 30
5, 57916, Note_on_c, 3, 55, 36
5, 57924, Note_on_c, 3, 59, 36
5, 57932, Note_on_c, 3, 62, 36
5, 57940, Note_on_c, 3, 67, 36
5, 58060, Note_off_c, 3, 50, 64
5, 58068, Note_off_c, 3, 55, 64
5, 58068, Note_on_c, 3, 50, 55
5, 58076, Note_off_c, 3, 59, 64
5, 58076, Note_off_c, 3, 62, 64
5, 58076, Note_off_c, 3, 67, 64
5, 58076, Note_on_c, 3, 55, 65
5, 58084, Note_on_c, 3, 59, 65
5, 58092, Note_on_c, 3, 62, 65
5, 58100, Note_on_c, 3, 67, 65
5, 58384, Note_off_c, 3, 50, 64
5, 58392, Note_off_c, 3, 55, 64
5, 58392, Note_on_c, 3, 50, 52
5, 58400, Note_off_c, 3, 59, 64
5, 58400, Note_on_c, 3, 55, 62
5, 58408, Note_off_c, 3, 62, 64
5, 58408, Note_off_c, 3, 67, 64
5, 58408, Note_on_c, 3, 59, 62
5, 58416, Note_on_c, 3, 62, 62
5, 58424, Note_on_c, 3, 67, 62
5, 58556, Note_off_c, 3, 43, 64
5, 58564, Note_on_c, 3, 43, 49
5, 58816, Note_off_c, 3, 50, 64
5, 58816, Note_off_c, 3, 55, 64
5, 58816, Note_off_c, 3, 59, 64
5, 58816, Note_off_c, 3, 62, 64
5, 58816, Note_off_c, 3, 67, 64
5, 58864, Note_on_c, 3, 50, 33
5, 58872, Note_on_c, 3, 55, 39
5, 58880, Note_on_c, 3, 59, 39
5, 58888, Note_on_c, 3, 62, 39
5, 58896, Note_on_c, 3, 67, 39
5, 59024, Note_off_c, 3, 50, 64
5, 59032, Note_off_c, 3, 55, 64
5, 59032, Note_off_c, 3, 59, 64
5, 59032, Note_off_c, 3, 62, 64
5, 59032, Note_off_c, 3, 67, 64
5, 59032, Note_on_c, 3, 50, 57
5, 59040, Note_on_c, 3, 55, 68
5, 59048, Note_on_c, 3, 59, 68
5, 59056, Note_on_c, 3, 62, 68
5, 59064, Note_on_c, 3, 67, 68
5, 59344, Note_off_c, 3, 50, 64
5, 59352, Note_off_c, 3, 55, 64
5, 59352, Note_on_c, 3, 50, 60
5, 59360, Note_on_c, 3, 55, 71
5, 59364, Note_off_c, 3, 59, 64
5, 59364, Note_off_c, 3, 62, 64
5, 59364, Note_off_c, 3, 67, 64
5, 59368, Note_on_c, 3, 59, 71
5, 59376, Note_on_c, 3, 62, 71
5, 59384, Note_on_c, 3, 67, 71
5, 59448, Note_off_c, 3, 43, 64
5, 59500, Note_off_c, 3, 50, 64
5, 59500, Note_off_c, 3, 55, 64
5, 59500, Note_off_c, 3, 59, 64
5, 59500, Note_off_c, 3, 62, 64
5, 59500, Note_off_c, 3, 67, 64
5, 59504, Note_on_c, 3, 57, 34
5, 59512, Note_on_c, 3, 61, 34
5, 59524, Note_on_c, 3, 64, 34
5, 59536, Note_on_c, 3, 69, 34
5, 59536, Note_on_c, 3, 52, 44
5, 59744, Note_off_c, 3, 69, 64
5, 59744, Note_off_c, 3, 64, 64
5, 59744, Note_off_c, 3, 61, 64
5, 59744, Note_off_c, 3, 57, 64
5, 59828, Note_on_c, 3, 69, 49
5, 59836, Note_on_c, 3, 64, 56
5, 59848, Note_on_c, 3, 61, 56
5, 59860, Note_on_c, 3, 57, 49
5, 59980, Note_off_c, 3, 57, 64
5, 59988, Note_off_c, 3, 61, 64
5, 59988, Note_on_c, 3, 57, 27
5, 59996, Note_on_c, 3, 61, 27
5, 60000, Note_off_c, 3, 64, 64
5, 60008, Note_on_c, 3, 64, 27
5, 60012, Note_off_c, 3, 69, 64
5, 60020, Note_on_c, 3, 69, 27
5, 60304, Note_off_c, 3, 69, 64
5, 60312, Note_off_c, 3, 52, 64
5, 60312, Note_off_c, 3, 64, 64
5, 60312, Note_on_c, 3, 69, 43
5, 60320, Note_on_c, 3, 64, 49
5, 60328, Note_off_c, 3, 57, 64
5, 60328, Note_off_c, 3, 61, 64
5, 60332, Note_on_c, 3, 61, 49
5, 60344, Note_on_c, 3, 57, 43
5, 60476, Note_off_c, 3, 57, 64
5, 60480, Note_off_c, 3, 61, 64
5, 60484, Note_on_c, 3, 52, 52
5, 60484, Note_on_c, 3, 57, 57
5, 60488, Note_on_c, 3, 61, 57
5, 60492, Note_off_c, 3, 64, 64
5, 60500, Note_off_c, 3, 69, 64
5, 60500, Note_on_c, 3, 64, 57
5, 60512, Note_on_c, 3, 69, 57
5, 60776, Note_off_c, 3, 69, 64
5, 60784, Note_off_c, 3, 64, 64
5, 60784, Note_on_c, 3, 69, 27
5, 60792, Note_on_c, 3, 64, 31
5, 60796, Note_off_c, 3, 61, 64
5, 60804, Note_off_c, 3, 57, 64
5, 60804, Note_on_c, 3, 61, 31
5, 60816, Note_on_c, 3, 57, 27
5, 60952, Note_off_c, 3, 57, 64
5, 60952, Note_off_c, 3, 52, 64
5, 60952, Note_off_c, 3, 69, 64
5, 60952, Note_off_c, 3, 64, 64
5, 60952, Note_off_c, 3, 61, 64
5, 60960, Note_on_c, 3, 52, 41
5, 60964, Note_on_c, 3, 57, 49
5, 60968, Note_on_c, 3, 61, 49
5, 60976, Note_on_c, 3, 64, 49
5, 60980, Note_on_c, 3, 69, 49
5, 61264, Note_off_c, 3, 69, 64
5, 61272, Note_off_c, 3, 64, 64
5, 61272, Note_on_c, 3, 69, 49
5, 61280, Note_on_c, 3, 64, 56
5, 61284, Note_off_c, 3, 61, 64
5, 61284, Note_off_c, 3, 57, 64
5, 61284, Note_off_c, 3, 52, 64
5, 61292, Note_on_c, 3, 61, 56
5, 61304, Note_on_c, 3, 57, 49
5, 61420, Note_off_c, 3, 57, 64
5, 61420, Note_off_c, 3, 69, 64
5, 61420, Note_off_c, 3, 64, 64
5, 61420, Note_off_c, 3, 61, 64
5, 61424, Note_on_c, 3, 50, 28
5, 61432, Note_on_c, 3, 55, 34
5, 61440, Note_on_c, 3, 59, 34
5, 61448, Note_on_c, 3, 62, 34
5, 61456, Note_on_c, 3, 67, 34
5, 61456, Note_on_c, 3, 43, 41
5, 61664, Note_off_c, 3, 67, 64
5, 61664, Note_off_c, 3, 62, 64
5, 61664, Note_off_c, 3, 59, 64
5, 61664, Note_off_c, 3, 55, 64
5, 61664, Note_off_c, 3, 50, 64
5, 61748, Note_on_c, 3, 67, 25
5, 61756, Note_on_c, 3, 62, 28
5, 61768, Note_on_c, 3, 59, 28
5, 61780, Note_on_c, 3, 55, 25
5, 61908, Note_off_c, 3, 55, 64
5, 61908, Note_on_c, 3, 50, 55
5, 61916, Note_off_c, 3, 59, 64
5, 61916, Note_off_c, 3, 62, 64
5, 61916, Note_off_c, 3, 67, 64
5, 61916, Note_on_c, 3, 55, 65
5, 61924, Note_on_c, 3, 59, 65
5, 61932, Note_on_c, 3, 62, 65
5, 61940, Note_on_c, 3, 67, 65
5, 62224, Note_off_c, 3, 67, 64
5, 62232, Note_off_c, 3, 62, 64
5, 62232, Note_on_c, 3, 67, 56
5, 62240, Note_on_c, 3, 62, 64
5, 62248, Note_off_c, 3, 59, 64
5, 62248, Note_off_c, 3, 50, 64
5, 62248, Note_off_c, 3, 55, 64
5, 62252, Note_on_c, 3, 59, 64
5, 62264, Note_on_c, 3, 55, 56
5, 62404, Note_off_c, 3, 43, 64
5, 62404, Note_on_c, 3, 43, 49
5, 62656, Note_off_c, 3, 67, 64
5, 62656, Note_off_c, 3, 62, 64
5, 62656, Note_off_c, 3, 59, 64
5, 62656, Note_off_c, 3, 55, 64
5, 62704, Note_on_c, 3, 67, 27
5, 62712, Note_on_c, 3, 62, 31
5, 62724, Note_on_c, 3, 59, 31
5, 62736, Note_on_c, 3, 55, 27
5, 62872, Note_off_c, 3, 55, 64
5, 62872, Note_off_c, 3, 59, 64
5, 62872, Note_off_c, 3, 62, 64
5, 62872, Note_off_c, 3, 67, 64
5, 62872, Note_on_c, 3, 50, 57
5, 62880, Note_on_c, 3, 55, 68
5, 62888, Note_on_c, 3, 59, 68
5, 62896, Note_on_c, 3, 62, 68
5, 62904, Note_on_c, 3, 67, 68
5, 63184, Note_off_c, 3, 67, 64
5, 63192, Note_off_c, 3, 62, 64
5, 63192, Note_on_c, 3, 67, 49
5, 63200, Note_on_c, 3, 62, 56
5, 63204, Note_off_c, 3, 59, 64
5, 63204, Note_off_c, 3, 55, 64
5, 63204, Note_off_c, 3, 50, 64
5, 63212, Note_on_c, 3, 59, 56
5, 63224, Note_on_c, 3, 55, 49
5, 63288, Note_off_c, 3, 43, 64
5, 63344, Note_off_c, 3, 67, 64
5, 63344, Note_off_c, 3, 62, 64
5, 63344, Note_off_c, 3, 59, 64
5, 63344, Note_off_c, 3, 55, 64
5, 63364, Note_on_c, 3, 50, 50
5, 63364, Note_on_c, 3, 57, 64
5, 63364, Note_on_c, 3, 62, 64
5, 63376, Note_on_c, 3, 66, 64
5, 63388, Note_on_c, 3, 69, 64
5, 63676, Note_off_c, 3, 57, 64
5, 63676, Note_off_c, 3, 50, 64
5, 63684, Note_on_c, 3, 57, 42
5, 63804, Note_off_c, 3, 57, 64
5, 63824, Note_off_c, 3, 62, 64
5, 63824, Note_off_c, 3, 66, 64
5, 63824, Note_off_c, 3, 69, 64
5, 63836, Note_on_c, 3, 52, 46
5, 63844, Note_on_c, 3, 59, 55
5, 63852, Note_on_c, 3, 64, 55
5, 63860, Note_on_c, 3, 67, 55
5, 63868, Note_on_c, 3, 71, 55
5, 64300, Note_off_c, 3, 71, 64
5, 64300, Note_off_c, 3, 67, 64
5, 64300, Note_off_c, 3, 64, 64
5, 64300, Note_off_c, 3, 59, 64
5, 64300, Note_off_c, 3, 52, 64
5, 64316, Note_on_c, 3, 50, 46
5, 64324, Note_on_c, 3, 57, 55
5, 64332, Note_on_c, 3, 62, 55
5, 64340, Note_on_c, 3, 66, 55
5, 64348, Note_on_c, 3, 69, 55
5, 64780, Note_off_c, 3, 69, 64
5, 64780, Note_off_c, 3, 66, 64
5, 64780, Note_off_c, 3, 62, 64
5, 64780, Note_off_c, 3, 57, 64
5, 64780, Note_off_c, 3, 50, 64
5, 64804, Note_on_c, 3, 52, 50
5, 64804, Note_on_c, 3, 59, 64
5, 64804, Note_on_c, 3, 64, 64
5, 64816, Note_on_c, 3, 67, 64
5, 64828, Note_on_c, 3, 71, 64
5, 65116, Note_off_c, 3, 59, 64
5, 65116, Note_off_c, 3, 52, 64
5, 65124, Note_on_c, 3, 59, 42
5, 65244, Note_off_c, 3, 59, 64
5, 65264, Note_off_c, 3, 64, 64
5, 65264, Note_off_c, 3, 67, 64
5, 65264, Note_off_c, 3, 71, 64
5, 65284, Note_on_c, 3, 50, 50
5, 65284, Note_on_c, 3, 57, 64
5, 65284, Note_on_c, 3, 62, 64
5, 65296, Note_on_c, 3, 66, 64
5, 65308, Note_on_c, 3, 69, 64
5, 65596, Note_off_c, 3, 57, 64
5, 65596, Note_off_c, 3, 50, 64
5, 65604, Note_on_c, 3, 57, 42
5, 65724, Note_off_c, 3, 57, 64
5, 65744, Note_off_c, 3, 62, 64
5, 65744, Note_off_c, 3, 66, 64
5, 65744, Note_off_c, 3, 69, 64
5, 65756, Note_on_c, 3, 52, 46
5, 65764, Note_on_c, 3, 59, 55
5, 65772, Note_on_c, 3, 64, 55
5, 65780, Note_on_c, 3, 67, 55
5, 65788, Note_on_c, 3, 71, 55
5, 66220, Note_off_c, 3, 71, 64
5, 66220, Note_off_c, 3, 67, 64
5, 66220, Note_off_c, 3, 64, 64
5, 66220, Note_off_c, 3, 59, 64
5, 66220, Note_off_c, 3, 52, 64
5, 66236, Note_on_c, 3, 50, 46
5, 66244, Note_on_c, 3, 57, 55
5, 66252, Note_on_c, 3, 62, 55
5, 66260, Note_on_c, 3, 66, 55
5, 66268, Note_on_c, 3, 69, 55
5, 66700, Note_off_c, 3, 69, 64
5, 66700, Note_off_c, 3, 66, 64
5, 66700, Note_off_c, 3, 62, 64
5, 66700, Note_off_c, 3, 57, 64
5, 66700, Note_off_c, 3, 50, 64
5, 66724, Note_on_c, 3, 52, 50
5, 66724, Note_on_c, 3, 59, 64
5, 66724, Note_on_c, 3, 64, 64
5, 66736, Note_on_c, 3, 67, 64
5, 66748, Note_on_c, 3, 71, 64
5, 66984, Note_off_c, 3, 71, 64
5, 66984, Note_off_c, 3, 67, 64
5, 66984, Note_off_c, 3, 64, 64
5, 66984, Note_off_c, 3, 59, 64
5, 67028, Note_on_c, 3, 59, 39
5, 67036, Note_on_c, 3, 64, 39
5, 67048, Note_on_c, 3, 67, 39
5, 67060, Note_on_c, 3, 71, 39
5, 67160, Note_off_c, 3, 52, 64
5, 67164, Note_off_c, 3, 59, 64
5, 67164, Note_off_c, 3, 64, 64
5, 67164, Note_off_c, 3, 67, 64
5, 67164, Note_off_c, 3, 71, 64
5, 67196, Note_on_c, 3, 50, 46
5, 67204, Note_on_c, 3, 57, 55
5, 67212, Note_on_c, 3, 62, 55
5, 67220, Note_on_c, 3, 66, 55
5, 67228, Note_on_c, 3, 69, 55
5, 67660, Note_off_c, 3, 69, 64
5, 67660, Note_off_c, 3, 66, 64
5, 67660, Note_off_c, 3, 62, 64
5, 67660, Note_off_c, 3, 57, 64
5, 67660, Note_off_c, 3, 50, 64
5, 67684, Note_on_c, 3, 52, 50
5, 67684, Note_on_c, 3, 59, 64
5, 67684, Note_on_c, 3, 64, 64
5, 67696, Note_on_c, 3, 67, 64
5, 67708, Note_on_c, 3, 71, 64
5, 67996, Note_off_c, 3, 59, 64
5, 67996, Note_off_c, 3, 52, 64
5, 68004, Note_on_c, 3, 59, 42
5, 68124, Note_off_c, 3, 59, 64
5, 68144, Note_off_c, 3, 64, 64
5, 68144, Note_off_c, 3, 67, 64
5, 68144, Note_off_c, 3, 71, 64
5, 68164, Note_on_c, 3, 50, 50
5, 68164, Note_on_c, 3, 57, 64
5, 68164, Note_on_c, 3, 62, 64
5, 68176, Note_on_c, 3, 66, 64
5, 68188, Note_on_c, 3, 69, 64
5, 68476, Note_off_c, 3, 57, 64
5, 68476, Note_off_c, 3, 50, 64
5, 68484, Note_on_c, 3, 57, 42
5, 68604, Note_off_c, 3, 57, 64
5, 68624, Note_off_c, 3, 62, 64
5, 68624, Note_off_c, 3, 66, 64
5, 68624, Note_off_c, 3, 69, 64
5, 68636, Note_on_c, 3, 47, 44
5, 68644, Note_on_c, 3, 52, 46
5, 68648, Note_on_c, 3, 59, 55
5, 68656, Note_on_c, 3, 64, 55
5, 68664, Note_on_c, 3, 67, 55
5, 68668, Note_on_c, 3, 71, 55
5, 69100, Note_off_c, 3, 71, 64
5, 69100, Note_off_c, 3, 67, 64
5, 69100, Note_off_c, 3, 64, 64
5, 69100, Note_off_c, 3, 59, 64
5, 69100, Note_off_c, 3, 52, 64
5, 69100, Note_off_c, 3, 47, 64
5, 69124, Note_on_c, 3, 50, 50
5, 69124, Note_on_c, 3, 57, 64
5, 69124, Note_on_c, 3, 62, 64
5, 69136, Note_on_c, 3, 66, 64
5, 69148, Note_on_c, 3, 69, 64
5, 69436, Note_off_c, 3, 57, 64
5, 69436, Note_off_c, 3, 50, 64
5, 69444, Note_on_c, 3, 57, 42
5, 69564, Note_off_c, 3, 57, 64
5, 69584, Note_off_c, 3, 62, 64
5, 69584, Note_off_c, 3, 66, 64
5, 69584, Note_off_c, 3, 69, 64
5, 69604, Note_on_c, 3, 52, 50
5, 69604, Note_on_c, 3, 59, 64
5, 69604, Note_on_c, 3, 64, 64
5, 69616, Note_on_c, 3, 67, 64
5, 69628, Note_on_c, 3, 71, 64
5, 69916, Note_off_c, 3, 59, 64
5, 69916, Note_off_c, 3, 52, 64
5, 69924, Note_on_c, 3, 59, 42
5, 70044, Note_off_c, 3, 59, 64
5, 70064, Note_off_c, 3, 64, 64
5, 70064, Note_off_c, 3, 67, 64
5, 70064, Note_off_c, 3, 71, 64
5, 70076, Note_on_c, 3, 50, 46
5, 70084, Note_on_c, 3, 57, 55
5, 70092, Note_on_c, 3, 62, 55
5, 70100, Note_on_c, 3, 66, 55
5, 70108, Note_on_c, 3, 69, 55
5, 70540, Note_off_c, 3, 69, 64
5, 70540, Note_off_c, 3, 66, 64
5, 70540, Note_off_c, 3, 62, 64
5, 70540, Note_off_c, 3, 57, 64
5, 70540, Note_off_c, 3, 50, 64
5, 70556, Note_on_c, 3, 52, 46
5, 70564, Note_on_c, 3, 59, 55
5, 70572, Note_on_c, 3, 64, 55
5, 70580, Note_on_c, 3, 67, 55
5, 70588, Note_on_c, 3, 71, 55
5, 71020, Note_off_c, 3, 71, 64
5, 71020, Note_off_c, 3, 67, 64
5, 71020, Note_off_c, 3, 64, 64
5, 71020, Note_off_c, 3, 59, 64
5, 71020, Note_off_c, 3, 52, 64
5, 71024, Note_on_c, 3, 54, 34
5, 71032, Note_on_c, 3, 59, 41
5, 71040, Note_on_c, 3, 62, 41
5, 71048, Note_on_c, 3, 66, 41
5, 71056, Note_on_c, 3, 71, 41
5, 71056, Note_on_c, 3, 47, 47
5, 71264, Note_off_c, 3, 71, 64
5, 71264, Note_off_c, 3, 66, 64
5, 71264, Note_off_c, 3, 62, 64
5, 71264, Note_off_c, 3, 59, 64
5, 71264, Note_off_c, 3, 54, 64
5, 71348, Note_on_c, 3, 71, 30
5, 71356, Note_on_c, 3, 66, 34
5, 71368, Note_on_c, 3, 62, 34
5, 71380, Note_on_c, 3, 59, 30
5, 71508, Note_off_c, 3, 59, 64
5, 71508, Note_on_c, 3, 54, 61
5, 71516, Note_off_c, 3, 62, 64
5, 71516, Note_off_c, 3, 66, 64
5, 71516, Note_off_c, 3, 71, 64
5, 71516, Note_on_c, 3, 59, 72
5, 71524, Note_on_c, 3, 62, 72
5, 71532, Note_on_c, 3, 66, 72
5, 71540, Note_on_c, 3, 71, 72
5, 71824, Note_off_c, 3, 71, 64
5, 71832, Note_off_c, 3, 66, 64
5, 71832, Note_on_c, 3, 71, 48
5, 71840, Note_on_c, 3, 66, 55
5, 71848, Note_off_c, 3, 62, 64
5, 71848, Note_off_c, 3, 54, 64
5, 71848, Note_off_c, 3, 59, 64
5, 71852, Note_on_c, 3, 62, 55
5, 71864, Note_on_c, 3, 59, 48
5, 72004, Note_off_c, 3, 47, 64
5, 72004, Note_on_c, 3, 47, 55
5, 72256, Note_off_c, 3, 71, 64
5, 72256, Note_off_c, 3, 66, 64
5, 72256, Note_off_c, 3, 62, 64
5, 72256, Note_off_c, 3, 59, 64
5, 72304, Note_on_c, 3, 71, 32
5, 72312, Note_on_c, 3, 66, 36
5, 72324, Note_on_c, 3, 62, 36
5, 72336, Note_on_c, 3, 59, 32
5, 72472, Note_off_c, 3, 59, 64
5, 72472, Note_off_c, 3, 62, 64
5, 72472, Note_off_c, 3, 66, 64
5, 72472, Note_off_c, 3, 71, 64
5, 72472, Note_on_c, 3, 54, 63
5, 72480, Note_on_c, 3, 59, 75
5, 72488, Note_on_c, 3, 62, 75
5, 72496, Note_on_c, 3, 66, 75
5, 72504, Note_on_c, 3, 71, 75
5, 72784, Note_off_c, 3, 71, 64
5, 72792, Note_off_c, 3, 66, 64
5, 72792, Note_on_c, 3, 71, 54
5, 72800, Note_on_c, 3, 66, 62
5, 72804, Note_off_c, 3, 62, 64
5, 72804, Note_off_c, 3, 59, 64
5, 72804, Note_off_c, 3, 54, 64
5, 72812, Note_on_c, 3, 62, 62
5, 72824, Note_on_c, 3, 59, 54
5, 72888, Note_off_c, 3, 47, 64
5, 72968, Note_on_c, 3, 47, 49
5, 73260, Note_off_c, 3, 71, 64
5, 73268, Note_off_c, 3, 66, 64
5, 73268, Note_off_c, 3, 62, 64
5, 73268, Note_off_c, 3, 59, 64
5, 73268, Note_on_c, 3, 71, 32
5, 73276, Note_on_c, 3, 66, 36
5, 73288, Note_on_c, 3, 62, 36
5, 73300, Note_on_c, 3, 59, 32
5, 73424, Note_off_c, 3, 59, 64
5, 73424, Note_on_c, 3, 54, 61
5, 73432, Note_off_c, 3, 62, 64
5, 73432, Note_off_c, 3, 66, 64
5, 73432, Note_off_c, 3, 71, 64
5, 73432, Note_on_c, 3, 59, 72
5, 73440, Note_on_c, 3, 62, 72
5, 73448, Note_on_c, 3, 66, 72
5, 73456, Note_on_c, 3, 71, 72
5, 73692, Note_off_c, 3, 71, 64
5, 73692, Note_off_c, 3, 66, 64
5, 73692, Note_off_c, 3, 62, 64
5, 73692, Note_off_c, 3, 54, 64
5, 73692, Note_off_c, 3, 59, 64
5, 73748, Note_on_c, 3, 71, 50
5, 73756, Note_on_c, 3, 66, 57
5, 73768, Note_on_c, 3, 62, 57
5, 73780, Note_on_c, 3, 59, 50
5, 73916, Note_off_c, 3, 47, 64
5, 73924, Note_on_c, 3, 47, 47
5, 74184, Note_off_c, 3, 71, 64
5, 74184, Note_off_c, 3, 66, 64
5, 74184, Note_off_c, 3, 62, 64
5, 74184, Note_off_c, 3, 59, 64
5, 74224, Note_on_c, 3, 71, 37
5, 74232, Note_on_c, 3, 66, 42
5, 74244, Note_on_c, 3, 62, 42
5, 74256, Note_on_c, 3, 59, 37
5, 74388, Note_on_c, 3, 54, 63
5, 74392, Note_off_c, 3, 59, 64
5, 74392, Note_off_c, 3, 62, 64
5, 74392, Note_off_c, 3, 66, 64
5, 74392, Note_off_c, 3, 71, 64
5, 74396, Note_on_c, 3, 59, 75
5, 74404, Note_on_c, 3, 62, 75
5, 74412, Note_on_c, 3, 66, 75
5, 74420, Note_on_c, 3, 71, 75
5, 74676, Note_off_c, 3, 71, 64
5, 74676, Note_off_c, 3, 66, 64
5, 74676, Note_off_c, 3, 62, 64
5, 74676, Note_off_c, 3, 54, 64
5, 74676, Note_off_c, 3, 59, 64
5, 74708, Note_on_c, 3, 71, 37
5, 74716, Note_on_c, 3, 66, 42
5, 74728, Note_on_c, 3, 62, 42
5, 74740, Note_on_c, 3, 59, 37
5, 74860, Note_off_c, 3, 59, 64
5, 74860, Note_off_c, 3, 62, 64
5, 74860, Note_off_c, 3, 66, 64
5, 74860, Note_off_c, 3, 71, 64
5, 74864, Note_off_c, 3, 47, 64
5, 74864, Note_on_c, 3, 52, 34
5, 74872, Note_on_c, 3, 57, 41
5, 74880, Note_on_c, 3, 61, 41
5, 74888, Note_on_c, 3, 64, 41
5, 74896, Note_on_c, 3, 69, 41
5, 74896, Note_on_c, 3, 45, 47
5, 75104, Note_off_c, 3, 69, 64
5, 75104, Note_off_c, 3, 64, 64
5, 75104, Note_off_c, 3, 61, 64
5, 75104, Note_off_c, 3, 57, 64
5, 75104, Note_off_c, 3, 52, 64
5, 75188, Note_on_c, 3, 69, 30
5, 75196, Note_on_c, 3, 64, 34
5, 75208, Note_on_c, 3, 61, 34
5, 75220, Note_on_c, 3, 57, 30
5, 75356, Note_off_c, 3, 57, 64
5, 75356, Note_off_c, 3, 61, 64
5, 75356, Note_off_c, 3, 64, 64
5, 75356, Note_off_c, 3, 45, 64
5, 75356, Note_off_c, 3, 69, 64
5, 75356, Note_on_c, 3, 45, 57
5, 75360, Note_on_c, 3, 52, 61
5, 75364, Note_on_c, 3, 57, 72
5, 75368, Note_on_c, 3, 61, 72
5, 75372, Note_on_c, 3, 64, 72
5, 75376, Note_on_c, 3, 69, 72
5, 75664, Note_off_c, 3, 69, 64
5, 75672, Note_off_c, 3, 64, 64
5, 75672, Note_on_c, 3, 69, 48
5, 75680, Note_on_c, 3, 64, 55
5, 75688, Note_off_c, 3, 61, 64
5, 75688, Note_off_c, 3, 57, 64
5, 75688, Note_off_c, 3, 52, 64
5, 75688, Note_off_c, 3, 45, 64
5, 75692, Note_on_c, 3, 61, 55
5, 75704, Note_on_c, 3, 57, 48
5, 75844, Note_on_c, 3, 45, 55
5, 76096, Note_off_c, 3, 57, 64
5, 76096, Note_off_c, 3, 69, 64
5, 76096, Note_off_c, 3, 64, 64
5, 76096, Note_off_c, 3, 61, 64
5, 76144, Note_on_c, 3, 69, 32
5, 76152, Note_on_c, 3, 64, 36
5, 76164, Note_on_c, 3, 61, 36
5, 76176, Note_on_c, 3, 57, 32
5, 76312, Note_off_c, 3, 57, 64
5, 76312, Note_off_c, 3, 61, 64
5, 76312, Note_off_c, 3, 64, 64
5, 76312, Note_off_c, 3, 45, 64
5, 76312, Note_off_c, 3, 69, 64
5, 76320, Note_on_c, 3, 45, 60
5, 76324, Note_on_c, 3, 52, 63
5, 76328, Note_on_c, 3, 57, 75
5, 76332, Note_on_c, 3, 61, 75
5, 76336, Note_on_c, 3, 64, 75
5, 76340, Note_on_c, 3, 69, 75
5, 76624, Note_off_c, 3, 69, 64
5, 76632, Note_off_c, 3, 64, 64
5, 76632, Note_on_c, 3, 69, 54
5, 76640, Note_on_c, 3, 64, 62
5, 76644, Note_off_c, 3, 61, 64
5, 76644, Note_off_c, 3, 57, 64
5, 76644, Note_off_c, 3, 52, 64
5, 76644, Note_off_c, 3, 45, 64
5, 76652, Note_on_c, 3, 61, 62
5, 76664, Note_on_c, 3, 57, 54
5, 76808, Note_on_c, 3, 45, 49
5, 77100, Note_off_c, 3, 69, 64
5, 77108, Note_off_c, 3, 64, 64
5, 77108, Note_off_c, 3, 61, 64
5, 77108, Note_off_c, 3, 57, 64
5, 77108, Note_on_c, 3, 69, 32
5, 77116, Note_on_c, 3, 64, 36
5, 77128, Note_on_c, 3, 61, 36
5, 77140, Note_on_c, 3, 57, 32
5, 77264, Note_off_c, 3, 45, 64
5, 77272, Note_off_c, 3, 69, 64
5, 77272, Note_off_c, 3, 64, 64
5, 77272, Note_off_c, 3, 61, 64
5, 77272, Note_off_c, 3, 57, 64
5, 77272, Note_on_c, 3, 45, 57
5, 77276, Note_on_c, 3, 52, 61
5, 77280, Note_on_c, 3, 57, 72
5, 77284, Note_on_c, 3, 61, 72
5, 77288, Note_on_c, 3, 64, 72
5, 77292, Note_on_c, 3, 69, 72
5, 77532, Note_off_c, 3, 69, 64
5, 77532, Note_off_c, 3, 64, 64
5, 77532, Note_off_c, 3, 61, 64
5, 77532, Note_off_c, 3, 57, 64
5, 77532, Note_off_c, 3, 52, 64
5, 77532, Note_off_c, 3, 45, 64
5, 77588, Note_on_c, 3, 69, 50
5, 77596, Note_on_c, 3, 64, 57
5, 77608, Note_on_c, 3, 61, 57
5, 77620, Note_on_c, 3, 57, 50
5, 77764, Note_on_c, 3, 45, 47
5, 78024, Note_off_c, 3, 57, 64
5, 78024, Note_off_c, 3, 61, 64
5, 78024, Note_off_c, 3, 64, 64
5, 78024, Note_off_c, 3, 69, 64
5, 78064, Note_on_c, 3, 69, 37
5, 78072, Note_on_c, 3, 64, 42
5, 78084, Note_on_c, 3, 61, 42
5, 78096, Note_on_c, 3, 57, 37
5, 78228, Note_off_c, 3, 45, 64
5, 78232, Note_off_c, 3, 69, 64
5, 78232, Note_off_c, 3, 64, 64
5, 78232, Note_off_c, 3, 61, 64
5, 78232, Note_off_c, 3, 57, 64
5, 78236, Note_on_c, 3, 45, 60
5, 78240, Note_on_c, 3, 52, 63
5, 78244, Note_on_c, 3, 57, 75
5, 78248, Note_on_c, 3, 61, 75
5, 78252, Note_on_c, 3, 64, 75
5, 78256, Note_on_c, 3, 69, 75
5, 78516, Note_off_c, 3, 69, 64
5, 78516, Note_off_c, 3, 64, 64
5, 78516, Note_off_c, 3, 61, 64
5, 78516, Note_off_c, 3, 57, 64
5, 78516, Note_off_c, 3, 52, 64
5, 78516, Note_off_c, 3, 45, 64
5, 78548, Note_on_c, 3, 69, 37
5, 78556, Note_on_c, 3, 64, 42
5, 78568, Note_on_c, 3, 61, 42
5, 78580, Note_on_c, 3, 57, 37
5, 78704, Note_off_c, 3, 57, 64
5, 78704, Note_off_c, 3, 61, 64
5, 78704, Note_off_c, 3, 64, 64
5, 78704, Note_off_c, 3, 69, 64
5, 78704, Note_on_c, 3, 50, 35
5, 78712, Note_on_c, 3, 55, 42
5, 78720, Note_on_c, 3, 59, 42
5, 78728, Note_on_c, 3, 62, 42
5, 78736, Note_on_c, 3, 67, 42
5, 78736, Note_on_c, 3, 43, 48
5, 78944, Note_off_c, 3, 67, 64
5, 78944, Note_off_c, 3, 62, 64
5, 78944, Note_off_c, 3, 59, 64
5, 78944, Note_off_c, 3, 55, 64
5, 78944, Note_off_c, 3, 50, 64
5, 79028, Note_on_c, 3, 67, 55
5, 79036, Note_on_c, 3, 62, 63
5, 79048, Note_on_c, 3, 59, 63
5, 79060, Note_on_c, 3, 55, 55
5, 79188, Note_off_c, 3, 55, 64
5, 79188, Note_on_c, 3, 50, 29
5, 79196, Note_off_c, 3, 59, 64
5, 79196, Note_on_c, 3, 55, 35
5, 79204, Note_off_c, 3, 62, 64
5, 79204, Note_on_c, 3, 59, 35
5, 79212, Note_off_c, 3, 67, 64
5, 79212, Note_on_c, 3, 62, 35
5, 79220, Note_on_c, 3, 67, 35
5, 79504, Note_off_c, 3, 67, 64
5, 79512, Note_off_c, 3, 43, 64
5, 79512, Note_off_c, 3, 62, 64
5, 79512, Note_on_c, 3, 67, 49
5, 79520, Note_on_c, 3, 62, 56
5, 79528, Note_off_c, 3, 50, 64
5, 79528, Note_off_c, 3, 55, 64
5, 79528, Note_off_c, 3, 59, 64
5, 79532, Note_on_c, 3, 59, 56
5, 79544, Note_on_c, 3, 55, 49
5, 79680, Note_off_c, 3, 55, 64
5, 79684, Note_on_c, 3, 43, 56
5, 79684, Note_on_c, 3, 50, 55
5, 79688, Note_off_c, 3, 59, 64
5, 79688, Note_on_c, 3, 55, 65
5, 79696, Note_on_c, 3, 59, 65
5, 79700, Note_off_c, 3, 67, 64
5, 79700, Note_off_c, 3, 62, 64
5, 79704, Note_on_c, 3, 62, 65
5, 79712, Note_on_c, 3, 67, 65
5, 79976, Note_off_c, 3, 67, 64
5, 79984, Note_off_c, 3, 62, 64
5, 79984, Note_on_c, 3, 67, 32
5, 79992, Note_on_c, 3, 62, 37
5, 79996, Note_off_c, 3, 59, 64
5, 80004, Note_off_c, 3, 50, 64
5, 80004, Note_off_c, 3, 55, 64
5, 80004, Note_on_c, 3, 59, 37
5, 80016, Note_on_c, 3, 55, 32
5, 80152, Note_off_c, 3, 55, 64
5, 80152, Note_off_c, 3, 43, 64
5, 80152, Note_off_c, 3, 67, 64
5, 80152, Note_off_c, 3, 62, 64
5, 80152, Note_off_c, 3, 59, 64
5, 80160, Note_on_c, 3, 43, 45
5, 80164, Note_on_c, 3, 50, 48
5, 80168, Note_on_c, 3, 55, 57
5, 80172, Note_on_c, 3, 59, 57
5, 80176, Note_on_c, 3, 62, 57
5, 80180, Note_on_c, 3, 67, 57
5, 80464, Note_off_c, 3, 67, 64
5, 80472, Note_off_c, 3, 62, 64
5, 80472, Note_on_c, 3, 67, 55
5, 80480, Note_on_c, 3, 62, 63
5, 80484, Note_off_c, 3, 59, 64
5, 80484, Note_off_c, 3, 55, 64
5, 80484, Note_off_c, 3, 50, 64
5, 80484, Note_off_c, 3, 43, 64
5, 80492, Note_on_c, 3, 59, 63
5, 80504, Note_on_c, 3, 55, 55
5, 80648, Note_on_c, 3, 43, 50
5, 80940, Note_off_c, 3, 67, 64
5, 80948, Note_off_c, 3, 62, 64
5, 80948, Note_off_c, 3, 59, 64
5, 80948, Note_off_c, 3, 55, 64
5, 80948, Note_on_c, 3, 67, 32
5, 80956, Note_on_c, 3, 62, 37
5, 80968, Note_on_c, 3, 59, 37
5, 80980, Note_on_c, 3, 55, 32
5, 81104, Note_off_c, 3, 43, 64
5, 81112, Note_off_c, 3, 67, 64
5, 81112, Note_off_c, 3, 62, 64
5, 81112, Note_off_c, 3, 59, 64
5, 81112, Note_off_c, 3, 55, 64
5, 81112, Note_on_c, 3, 43, 58
5, 81116, Note_on_c, 3, 50, 62
5, 81120, Note_on_c, 3, 55, 73
5, 81124, Note_on_c, 3, 59, 73
5, 81128, Note_on_c, 3, 62, 73
5, 81132, Note_on_c, 3, 67, 73
5, 81372, Note_off_c, 3, 67, 64
5, 81372, Note_off_c, 3, 62, 64
5, 81372, Note_off_c, 3, 59, 64
5, 81372, Note_off_c, 3, 55, 64
5, 81372, Note_off_c, 3, 50, 64
5, 81372, Note_off_c, 3, 43, 64
5, 81428, Note_on_c, 3, 67, 51
5, 81436, Note_on_c, 3, 62, 58
5, 81448, Note_on_c, 3, 59, 58
5, 81460, Note_on_c, 3, 55, 51
5, 81596, Note_off_c, 3, 55, 64
5, 81604, Note_off_c, 3, 59, 64
5, 81604, Note_on_c, 3, 43, 48
5, 81604, Note_on_c, 3, 50, 55
5, 81604, Note_on_c, 3, 55, 65
5, 81612, Note_on_c, 3, 59, 65
5, 81616, Note_off_c, 3, 62, 64
5, 81616, Note_off_c, 3, 67, 64
5, 81620, Note_on_c, 3, 62, 65
5, 81628, Note_on_c, 3, 67, 65
5, 81896, Note_off_c, 3, 67, 64
5, 81904, Note_off_c, 3, 62, 64
5, 81904, Note_on_c, 3, 67, 37
5, 81912, Note_on_c, 3, 62, 43
5, 81916, Note_off_c, 3, 59, 64
5, 81924, Note_off_c, 3, 50, 64
5, 81924, Note_off_c, 3, 55, 64
5, 81924, Note_on_c, 3, 59, 43
5, 81936, Note_on_c, 3, 55, 37
5, 82068, Note_off_c, 3, 43, 64
5, 82072, Note_off_c, 3, 67, 64
5, 82072, Note_off_c, 3, 62, 64
5, 82072, Note_off_c, 3, 59, 64
5, 82072, Note_off_c, 3, 55, 64
5, 82076, Note_on_c, 3, 43, 52
5, 82080, Note_on_c, 3, 50, 56
5, 82084, Note_on_c, 3, 55, 66
5, 82088, Note_on_c, 3, 59, 66
5, 82092, Note_on_c, 3, 62, 66
5, 82096, Note_on_c, 3, 67, 66
5, 82356, Note_off_c, 3, 67, 64
5, 82356, Note_off_c, 3, 62, 64
5, 82356, Note_off_c, 3, 59, 64
5, 82356, Note_off_c, 3, 55, 64
5, 82356, Note_off_c, 3, 50, 64
5, 82356, Note_off_c, 3, 43, 64
5, 82388, Note_on_c, 3, 67, 37
5, 82396, Note_on_c, 3, 62, 43
5, 82408, Note_on_c, 3, 59, 43
5, 82420, Note_on_c, 3, 55, 37
5, 82544, Note_off_c, 3, 55, 64
5, 82544, Note_off_c, 3, 59, 64
5, 82544, Note_off_c, 3, 62, 64
5, 82544, Note_off_c, 3, 67, 64
5, 82544, Note_on_c, 3, 52, 35
5, 82552, Note_on_c, 3, 57, 42
5, 82560, Note_on_c, 3, 61, 42
5, 82568, Note_on_c, 3, 64, 42
5, 82576, Note_on_c, 3, 69, 42
5, 82576, Note_on_c, 3, 45, 48
5, 82784, Note_off_c, 3, 69, 64
5, 82784, Note_off_c, 3, 64, 64
5, 82784, Note_off_c, 3, 61, 64
5, 82784, Note_off_c, 3, 57, 64
5, 82784, Note_off_c, 3, 52, 64
5, 82868, Note_on_c, 3, 69, 55
5, 82876, Note_on_c, 3, 64, 63
5, 82888, Note_on_c, 3, 61, 63
5, 82900, Note_on_c, 3, 57, 55
5, 83028, Note_off_c, 3, 57, 64
5, 83028, Note_on_c, 3, 52, 29
5, 83036, Note_off_c, 3, 61, 64
5, 83036, Note_on_c, 3, 57, 35
5, 83044, Note_off_c, 3, 64, 64
5, 83044, Note_on_c, 3, 61, 35
5, 83052, Note_off_c, 3, 69, 64
5, 83052, Note_on_c, 3, 64, 35
5, 83060, Note_on_c, 3, 69, 35
5, 83344, Note_off_c, 3, 69, 64
5, 83352, Note_off_c, 3, 45, 64
5, 83352, Note_off_c, 3, 64, 64
5, 83352, Note_on_c, 3, 69, 49
5, 83360, Note_on_c, 3, 64, 56
5, 83368, Note_off_c, 3, 52, 64
5, 83368, Note_off_c, 3, 57, 64
5, 83368, Note_off_c, 3, 61, 64
5, 83372, Note_on_c, 3, 61, 56
5, 83384, Note_on_c, 3, 57, 49
5, 83520, Note_off_c, 3, 57, 64
5, 83524, Note_on_c, 3, 45, 56
5, 83524, Note_on_c, 3, 52, 55
5, 83528, Note_off_c, 3, 61, 64
5, 83528, Note_on_c, 3, 57, 65
5, 83536, Note_on_c, 3, 61, 65
5, 83540, Note_off_c, 3, 69, 64
5, 83540, Note_off_c, 3, 64, 64
5, 83544, Note_on_c, 3, 64, 65
5, 83552, Note_on_c, 3, 69, 65
5, 83816, Note_off_c, 3, 69, 64
5, 83824, Note_off_c, 3, 64, 64
5, 83824, Note_on_c, 3, 69, 32
5, 83832, Note_on_c, 3, 64, 37
5, 83836, Note_off_c, 3, 61, 64
5, 83844, Note_off_c, 3, 52, 64
5, 83844, Note_off_c, 3, 57, 64
5, 83844, Note_on_c, 3, 61, 37
5, 83856, Note_on_c, 3, 57, 32
5, 83992, Note_off_c, 3, 57, 64
5, 83992, Note_off_c, 3, 45, 64
5, 83992, Note_off_c, 3, 69, 64
5, 83992, Note_off_c, 3, 64, 64
5, 83992, Note_off_c, 3, 61, 64
5, 84000, Note_on_c, 3, 45, 45
5, 84004, Note_on_c, 3, 52, 48
5, 84008, Note_on_c, 3, 57, 57
5, 84012, Note_on_c, 3, 61, 57
5, 84016, Note_on_c, 3, 64, 57
5, 84020, Note_on_c, 3, 69, 57
5, 84304, Note_off_c, 3, 69, 64
5, 84312, Note_off_c, 3, 64, 64
5, 84312, Note_on_c, 3, 69, 55
5, 84320, Note_on_c, 3, 64, 63
5, 84324, Note_off_c, 3, 61, 64
5, 84324, Note_off_c, 3, 57, 64
5, 84324, Note_off_c, 3, 52, 64
5, 84324, Note_off_c, 3, 45, 64
5, 84332, Note_on_c, 3, 61, 63
5, 84344, Note_on_c, 3, 57, 55
5, 84488, Note_on_c, 3, 45, 50
5, 84780, Note_off_c, 3, 69, 64
5, 84788, Note_off_c, 3, 64, 64
5, 84788, Note_off_c, 3, 61, 64
5, 84788, Note_off_c, 3, 57, 64
5, 84788, Note_on_c, 3, 69, 32
5, 84796, Note_on_c, 3, 64, 37
5, 84808, Note_on_c, 3, 61, 37
5, 84820, Note_on_c, 3, 57, 32
5, 84944, Note_off_c, 3, 45, 64
5, 84952, Note_off_c, 3, 69, 64
5, 84952, Note_off_c, 3, 64, 64
5, 84952, Note_off_c, 3, 61, 64
5, 84952, Note_off_c, 3, 57, 64
5, 84952, Note_on_c, 3, 45, 58
5, 84956, Note_on_c, 3, 52, 62
5, 84960, Note_on_c, 3, 57, 73
5, 84964, Note_on_c, 3, 61, 73
5, 84968, Note_on_c, 3, 64, 73
5, 84972, Note_on_c, 3, 69, 73
5, 85212, Note_off_c, 3, 69, 64
5, 85212, Note_off_c, 3, 64, 64
5, 85212, Note_off_c, 3, 61, 64
5, 85212, Note_off_c, 3, 57, 64
5, 85212, Note_off_c, 3, 52, 64
5, 85212, Note_off_c, 3, 45, 64
5, 85268, Note_on_c, 3, 69, 51
5, 85276, Note_on_c, 3, 64, 58
5, 85288, Note_on_c, 3, 61, 58
5, 85300, Note_on_c, 3, 57, 51
5, 85436, Note_off_c, 3, 57, 64
5, 85444, Note_off_c, 3, 61, 64
5, 85444, Note_on_c, 3, 45, 48
5, 85444, Note_on_c, 3, 52, 55
5, 85444, Note_on_c, 3, 57, 65
5, 85452, Note_on_c, 3, 61, 65
5, 85456, Note_off_c, 3, 64, 64
5, 85456, Note_off_c, 3, 69, 64
5, 85460, Note_on_c, 3, 64, 65
5, 85468, Note_on_c, 3, 69, 65
5, 85736, Note_off_c, 3, 69, 64
5, 85744, Note_off_c, 3, 64, 64
5, 85744, Note_on_c, 3, 69, 37
5, 85752, Note_on_c, 3, 64, 43
5, 85756, Note_off_c, 3, 61, 64
5, 85764, Note_off_c, 3, 52, 64
5, 85764, Note_off_c, 3, 57, 64
5, 85764, Note_on_c, 3, 61, 43
5, 85776, Note_on_c, 3, 57, 37
5, 85908, Note_off_c, 3, 45, 64
5, 85912, Note_off_c, 3, 69, 64
5, 85912, Note_off_c, 3, 64, 64
5, 85912, Note_off_c, 3, 61, 64
5, 85912, Note_off_c, 3, 57, 64
5, 85916, Note_on_c, 3, 45, 52
5, 85920, Note_on_c, 3, 52, 56
5, 85924, Note_on_c, 3, 57, 66
5, 85928, Note_on_c, 3, 61, 66
5, 85932, Note_on_c, 3, 64, 66
5, 85936, Note_on_c, 3, 69, 66
5, 86196, Note_off_c, 3, 69, 64
5, 86196, Note_off_c, 3, 64, 64
5, 86196, Note_off_c, 3, 61, 64
5, 86196, Note_off_c, 3, 57, 64
5, 86196, Note_off_c, 3, 52, 64
5, 86196, Note_off_c, 3, 45, 64
5, 86228, Note_on_c, 3, 69, 37
5, 86236, Note_on_c, 3, 64, 43
5, 86248, Note_on_c, 3, 61, 43
5, 86260, Note_on_c, 3, 57, 37
5, 86384, Note_off_c, 3, 57, 64
5, 86384, Note_off_c, 3, 61, 64
5, 86384, Note_off_c, 3, 64, 64
5, 86384, Note_off_c, 3, 69, 64
5, 86404, Note_on_c, 3, 50, 55
5, 86404, Note_on_c, 3, 57, 70
5, 86404, Note_on_c, 3, 62, 70
5, 86416, Note_on_c, 3, 66, 70
5, 86428, Note_on_c, 3, 69, 70
5, 86716, Note_off_c, 3, 57, 64
5, 86716, Note_off_c, 3, 50, 64
5, 86724, Note_on_c, 3, 57, 48
5, 86844, Note_off_c, 3, 57, 64
5, 86864, Note_off_c, 3, 62, 64
5, 86864, Note_off_c, 3, 66, 64
5, 86864, Note_off_c, 3, 69, 64
5, 86884, Note_on_c, 3, 52, 56
5, 86884, Note_on_c, 3, 59, 71
5, 86884, Note_on_c, 3, 64, 71
5, 86896, Note_on_c, 3, 67, 71
5, 86908, Note_on_c, 3, 71, 71
5, 87144, Note_off_c, 3, 71, 64
5, 87144, Note_off_c, 3, 67, 64
5, 87144, Note_off_c, 3, 64, 64
5, 87144, Note_off_c, 3, 59, 64
5, 87188, Note_on_c, 3, 59, 46
5, 87196, Note_on_c, 3, 64, 46
5, 87208, Note_on_c, 3, 67, 46
5, 87220, Note_on_c, 3, 71, 46
5, 87320, Note_off_c, 3, 52, 64
5, 87324, Note_off_c, 3, 59, 64
5, 87324, Note_off_c, 3, 64, 64
5, 87324, Note_off_c, 3, 67, 64
5, 87324, Note_off_c, 3, 71, 64
5, 87364, Note_on_c, 3, 50, 55
5, 87364, Note_on_c, 3, 57, 70
5, 87364, Note_on_c, 3, 62, 70
5, 87376, Note_on_c, 3, 66, 70
5, 87388, Note_on_c, 3, 69, 70
5, 87676, Note_off_c, 3, 57, 64
5, 87676, Note_off_c, 3, 50, 64
5, 87684, Note_on_c, 3, 57, 48
5, 87804, Note_off_c, 3, 57, 64
5, 87824, Note_off_c, 3, 62, 64
5, 87824, Note_off_c, 3, 66, 64
5, 87824, Note_off_c, 3, 69, 64
5, 87844, Note_on_c, 3, 52, 55
5, 87844, Note_on_c, 3, 59, 70
5, 87844, Note_on_c, 3, 64, 70
5, 87856, Note_on_c, 3, 67, 70
5, 87868, Note_on_c, 3, 71, 70
5, 88156, Note_off_c, 3, 59, 64
5, 88156, Note_off_c, 3, 52, 64
5, 88164, Note_on_c, 3, 59, 48
5, 88284, Note_off_c, 3, 59, 64
5, 88304, Note_off_c, 3, 64, 64
5, 88304, Note_off_c, 3, 67, 64
5, 88304, Note_off_c, 3, 71, 64
5, 88316, Note_on_c, 3, 45, 48
5, 88324, Note_on_c, 3, 50, 51
5, 88328, Note_on_c, 3, 57, 61
5, 88336, Note_on_c, 3, 62, 61
5, 88344, Note_on_c, 3, 66, 61
5, 88348, Note_on_c, 3, 69, 61
5, 88780, Note_off_c, 3, 69, 64
5, 88780, Note_off_c, 3, 66, 64
5, 88780, Note_off_c, 3, 62, 64
5, 88780, Note_off_c, 3, 57, 64
5, 88780, Note_off_c, 3, 50, 64
5, 88780, Note_off_c, 3, 45, 64
5, 88804, Note_on_c, 3, 52, 56
5, 88804, Note_on_c, 3, 59, 71
5, 88804, Note_on_c, 3, 64, 71
5, 88816, Note_on_c, 3, 67, 71
5, 88828, Note_on_c, 3, 71, 71
5, 89064, Note_off_c, 3, 71, 64
5, 89064, Note_off_c, 3, 67, 64
5, 89064, Note_off_c, 3, 64, 64
5, 89064, Note_off_c, 3, 59, 64
5, 89108, Note_on_c, 3, 59, 46
5, 89116, Note_on_c, 3, 64, 46
5, 89128, Note_on_c, 3, 67, 46
5, 89140, Note_on_c, 3, 71, 46
5, 89240, Note_off_c, 3, 52, 64
5, 89244, Note_off_c, 3, 59, 64
5, 89244, Note_off_c, 3, 64, 64
5, 89244, Note_off_c, 3, 67, 64
5, 89244, Note_off_c, 3, 71, 64
5, 89276, Note_on_c, 3, 50, 51
5, 89284, Note_on_c, 3, 57, 61
5, 89292, Note_on_c, 3, 62, 61
5, 89300, Note_on_c, 3, 66, 61
5, 89308, Note_on_c, 3, 69, 61
5, 89740, Note_off_c, 3, 69, 64
5, 89740, Note_off_c, 3, 66, 64
5, 89740, Note_off_c, 3, 62, 64
5, 89740, Note_off_c, 3, 57, 64
5, 89740, Note_off_c, 3, 50, 64
5, 89764, Note_on_c, 3, 52, 55
5, 89764, Note_on_c, 3, 59, 70
5, 89764, Note_on_c, 3, 64, 70
5, 89776, Note_on_c, 3, 67, 70
5, 89788, Note_on_c, 3, 71, 70
5, 90076, Note_off_c, 3, 59, 64
5, 90076, Note_off_c, 3, 52, 64
5, 90084, Note_on_c, 3, 59, 48
5, 90204, Note_off_c, 3, 59, 64
5, 90224, Note_off_c, 3, 64, 64
5, 90224, Note_off_c, 3, 67, 64
5, 90224, Note_off_c, 3, 71, 64
5, 90244, Note_on_c, 3, 50, 56
5, 90244, Note_on_c, 3, 57, 71
5, 90244, Note_on_c, 3, 62, 71
5, 90256, Note_on_c, 3, 66, 71
5, 90268, Note_on_c, 3, 69, 71
5, 90504, Note_off_c, 3, 69, 64
5, 90504, Note_off_c, 3, 66, 64
5, 90504, Note_off_c, 3, 62, 64
5, 90504, Note_off_c, 3, 57, 64
5, 90548, Note_on_c, 3, 57, 46
5, 90556, Note_on_c, 3, 62, 46
5, 90568, Note_on_c, 3, 66, 46
5, 90580, Note_on_c, 3, 69, 46
5, 90680, Note_off_c, 3, 50, 64
5, 90684, Note_off_c, 3, 57, 64
5, 90684, Note_off_c, 3, 62, 64
5, 90684, Note_off_c, 3, 66, 64
5, 90684, Note_off_c, 3, 69, 64
5, 90716, Note_on_c, 3, 52, 51
5, 90724, Note_on_c, 3, 59, 61
5, 90732, Note_on_c, 3, 64, 61
5, 90740, Note_on_c, 3, 67, 61
5, 90748, Note_on_c, 3, 71, 61
5, 91180, Note_off_c, 3, 71, 64
5, 91180, Note_off_c, 3, 67, 64
5, 91180, Note_off_c, 3, 64, 64
5, 91180, Note_off_c, 3, 59, 64
5, 91180, Note_off_c, 3, 52, 64
5, 91196, Note_on_c, 3, 50, 51
5, 91204, Note_on_c, 3, 57, 61
5, 91212, Note_on_c, 3, 62, 61
5, 91220, Note_on_c, 3, 66, 61
5, 91228, Note_on_c, 3, 69, 61
5, 91660, Note_off_c, 3, 69, 64
5, 91660, Note_off_c, 3, 66, 64
5, 91660, Note_off_c, 3, 62, 64
5, 91660, Note_off_c, 3, 57, 64
5, 91660, Note_off_c, 3, 50, 64
5, 91684, Note_on_c, 3, 52, 56
5, 91684, Note_on_c, 3, 59, 71
5, 91684, Note_on_c, 3, 64, 71
5, 91696, Note_on_c, 3, 67, 71
5, 91708, Note_on_c, 3, 71, 71
5, 91944, Note_off_c, 3, 71, 64
5, 91944, Note_off_c, 3, 67, 64
5, 91944, Note_off_c, 3, 64, 64
5, 91944, Note_off_c, 3, 59, 64
5, 91988, Note_on_c, 3, 59, 46
5, 91996, Note_on_c, 3, 64, 46
5, 92008, Note_on_c, 3, 67, 46
5, 92020, Note_on_c, 3, 71, 46
5, 92120, Note_off_c, 3, 52, 64
5, 92124, Note_off_c, 3, 59, 64
5, 92124, Note_off_c, 3, 64, 64
5, 92124, Note_off_c, 3, 67, 64
5, 92124, Note_off_c, 3, 71, 64
5, 92164, Note_on_c, 3, 50, 56
5, 92164, Note_on_c, 3, 57, 71
5, 92164, Note_on_c, 3, 62, 71
5, 92176, Note_on_c, 3, 66, 71
5, 92188, Note_on_c, 3, 69, 71
5, 92424, Note_off_c, 3, 69, 64
5, 92424, Note_off_c, 3, 66, 64
5, 92424, Note_off_c, 3, 62, 64
5, 92424, Note_off_c, 3, 57, 64
5, 92468, Note_on_c, 3, 57, 46
5, 92476, Note_on_c, 3, 62, 46
5, 92488, Note_on_c, 3, 66, 46
5, 92500, Note_on_c, 3, 69, 46
5, 92600, Note_off_c, 3, 50, 64
5, 92604, Note_off_c, 3, 57, 64
5, 92604, Note_off_c, 3, 62, 64
5, 92604, Note_off_c, 3, 66, 64
5, 92604, Note_off_c, 3, 69, 64
5, 92644, Note_on_c, 3, 52, 55
5, 92644, Note_on_c, 3, 59, 70
5, 92644, Note_on_c, 3, 64, 70
5, 92656, Note_on_c, 3, 67, 70
5, 92668, Note_off_c, 3, 59, 64
5, 92828, Note_off_c, 3, 52, 64
5, 92828, Note_off_c, 3, 64, 64
5, 92828, Note_off_c, 3, 67, 64
5, 92964, Note_on_c, 3, 57, 61
5, 92972, Note_on_c, 3, 62, 61
5, 92984, Note_on_c, 3, 66, 61
5, 92996, Note_on_c, 3, 69, 61
5, 93516, Note_off_c, 3, 69, 64
5, 93516, Note_off_c, 3, 66, 64
5, 93516, Note_off_c, 3, 62, 64
5, 93516, Note_off_c, 3, 57, 64
5, 93588, Note_on_c, 3, 57, 75
5, 93596, Note_on_c, 3, 62, 75
5, 93608, Note_on_c, 3, 66, 75
5, 93620, Note_on_c, 3, 69, 75
5, 93904, Note_off_c, 3, 57, 64
5, 93912, Note_off_c, 3, 62, 64
5, 93912, Note_on_c, 3, 57, 48
5, 93920, Note_on_c, 3, 62, 48
5, 93928, Note_off_c, 3, 66, 64
5, 93928, Note_off_c, 3, 69, 64
5, 93932, Note_on_c, 3, 66, 48
5, 93944, Note_on_c, 3, 69, 48
5, 94048, Note_off_c, 3, 69, 64
5, 94048, Note_off_c, 3, 57, 64
5, 94048, Note_off_c, 3, 62, 64
5, 94048, Note_off_c, 3, 66, 64
5, 94060, Note_on_c, 3, 57, 49
5, 94068, Note_on_c, 3, 62, 49
5, 94080, Note_on_c, 3, 66, 49
5, 94092, Note_on_c, 3, 69, 49
5, 94376, Note_off_c, 3, 69, 64
5, 94384, Note_off_c, 3, 66, 64
5, 94384, Note_on_c, 3, 69, 39
5, 94392, Note_on_c, 3, 66, 45
5, 94396, Note_off_c, 3, 62, 64
5, 94404, Note_on_c, 3, 62, 45
5, 94408, Note_off_c, 3, 57, 64
5, 94416, Note_on_c, 3, 57, 39
5, 94544, Note_off_c, 3, 69, 64
5, 94544, Note_off_c, 3, 66, 64
5, 94544, Note_off_c, 3, 62, 64
5, 94544, Note_off_c, 3, 57, 64
5, 94552, Note_on_c, 3, 57, 57
5, 94560, Note_on_c, 3, 62, 57
5, 94572, Note_on_c, 3, 66, 57
5, 94584, Note_on_c, 3, 69, 57
5, 94856, Note_off_c, 3, 69, 64
5, 94864, Note_off_c, 3, 66, 64
5, 94864, Note_on_c, 3, 69, 39
5, 94872, Note_on_c, 3, 66, 45
5, 94876, Note_off_c, 3, 62, 64
5, 94884, Note_on_c, 3, 62, 45
5, 94888, Note_off_c, 3, 57, 64
5, 94896, Note_on_c, 3, 57, 39
5, 95012, Note_off_c, 3, 57, 64
5, 95020, Note_on_c, 3, 57, 46
5, 95024, Note_off_c, 3, 69, 64
5, 95024, Note_off_c, 3, 66, 64
5, 95024, Note_off_c, 3, 62, 64
5, 95028, Note_on_c, 3, 62, 46
5, 95040, Note_on_c, 3, 66, 46
5, 95052, Note_on_c, 3, 69, 46
5, 95364, Note_off_c, 3, 69, 64
5, 95372, Note_off_c, 3, 66, 64
5, 95372, Note_on_c, 3, 69, 39
5, 95380, Note_on_c, 3, 66, 45
5, 95384, Note_off_c, 3, 62, 64
5, 95392, Note_off_c, 3, 57, 64
5, 95392, Note_on_c, 3, 62, 45
5, 95404, Note_on_c, 3, 57, 39
5, 95496, Note_off_c, 3, 57, 64
5, 95504, Note_off_c, 3, 62, 64
5, 95504, Note_on_c, 3, 57, 57
5, 95512, Note_on_c, 3, 62, 57
5, 95516, Note_off_c, 3, 66, 64
5, 95524, Note_off_c, 3, 69, 64
5, 95524, Note_on_c, 3, 66, 57
5, 95536, Note_on_c, 3, 69, 57
5, 95816, Note_off_c, 3, 69, 64
5, 95824, Note_off_c, 3, 66, 64
5, 95824, Note_on_c, 3, 69, 39
5, 95832, Note_on_c, 3, 66, 45
5, 95836, Note_off_c, 3, 62, 64
5, 95844, Note_off_c, 3, 57, 64
5, 95844, Note_on_c, 3, 62, 45
5, 95856, Note_on_c, 3, 57, 39
5, 95980, Note_off_c, 3, 57, 64
5, 95980, Note_off_c, 3, 69, 64
5, 95980, Note_off_c, 3, 66, 64
5, 95980, Note_off_c, 3, 62, 64
5, 95984, Note_on_c, 3, 55, 34
5, 95992, Note_on_c, 3, 59, 34
5, 96004, Note_on_c, 3, 62, 34
5, 96016, Note_on_c, 3, 67, 34
5, 96016, Note_on_c, 3, 50, 44
5, 96224, Note_off_c, 3, 67, 64
5, 96224, Note_off_c, 3, 62, 64
5, 96224, Note_off_c, 3, 59, 64
5, 96224, Note_off_c, 3, 55, 64
5, 96308, Note_on_c, 3, 67, 25
5, 96316, Note_on_c, 3, 62, 28
5, 96328, Note_on_c, 3, 59, 28
5, 96340, Note_on_c, 3, 55, 25
5, 96476, Note_off_c, 3, 55, 64
5, 96476, Note_off_c, 3, 59, 64
5, 96476, Note_off_c, 3, 62, 64
5, 96476, Note_off_c, 3, 50, 64
5, 96476, Note_off_c, 3, 67, 64
5, 96476, Note_on_c, 3, 50, 55
5, 96480, Note_on_c, 3, 55, 65
5, 96484, Note_on_c, 3, 59, 65
5, 96492, Note_on_c, 3, 62, 65
5, 96496, Note_on_c, 3, 67, 65
5, 96784, Note_off_c, 3, 67, 64
5, 96792, Note_off_c, 3, 62, 64
5, 96792, Note_on_c, 3, 67, 43
5, 96800, Note_on_c, 3, 62, 49
5, 96808, Note_off_c, 3, 59, 64
5, 96808, Note_off_c, 3, 55, 64
5, 96808, Note_off_c, 3, 50, 64
5, 96812, Note_on_c, 3, 59, 49
5, 96824, Note_on_c, 3, 55, 43
5, 96964, Note_on_c, 3, 50, 52
5, 97216, Note_off_c, 3, 55, 64
5, 97216, Note_off_c, 3, 67, 64
5, 97216, Note_off_c, 3, 62, 64
5, 97216, Note_off_c, 3, 59, 64
5, 97264, Note_on_c, 3, 67, 27
5, 97272, Note_on_c, 3, 62, 31
5, 97284, Note_on_c, 3, 59, 31
5, 97296, Note_on_c, 3, 55, 27
5, 97432, Note_off_c, 3, 55, 64
5, 97432, Note_off_c, 3, 59, 64
5, 97432, Note_off_c, 3, 62, 64
5, 97432, Note_off_c, 3, 50, 64
5, 97432, Note_off_c, 3, 67, 64
5, 97440, Note_on_c, 3, 50, 57
5, 97444, Note_on_c, 3, 55, 68
5, 97448, Note_on_c, 3, 59, 68
5, 97456, Note_on_c, 3, 62, 68
5, 97460, Note_on_c, 3, 67, 68
5, 97744, Note_off_c, 3, 67, 64
5, 97752, Note_off_c, 3, 62, 64
5, 97752, Note_on_c, 3, 67, 49
5, 97760, Note_on_c, 3, 62, 56
5, 97764, Note_off_c, 3, 59, 64
5, 97764, Note_off_c, 3, 55, 64
5, 97764, Note_off_c, 3, 50, 64
5, 97772, Note_on_c, 3, 59, 56
5, 97784, Note_on_c, 3, 55, 49
5, 97896, Note_off_c, 3, 55, 64
5, 97904, Note_off_c, 3, 67, 64
5, 97904, Note_off_c, 3, 62, 64
5, 97904, Note_off_c, 3, 59, 64
5, 97904, Note_on_c, 3, 57, 49
5, 97912, Note_on_c, 3, 62, 49
5, 97924, Note_on_c, 3, 66, 49
5, 97936, Note_on_c, 3, 69, 49
5, 97936, Note_on_c, 3, 50, 44
5, 98144, Note_off_c, 3, 69, 64
5, 98144, Note_off_c, 3, 66, 64
5, 98144, Note_off_c, 3, 62, 64
5, 98144, Note_off_c, 3, 57, 64
5, 98228, Note_on_c, 3, 69, 34
5, 98236, Note_on_c, 3, 66, 39
5, 98248, Note_on_c, 3, 62, 39
5, 98260, Note_on_c, 3, 57, 34
5, 98380, Note_off_c, 3, 57, 64
5, 98388, Note_off_c, 3, 62, 64
5, 98388, Note_on_c, 3, 57, 65
5, 98396, Note_off_c, 3, 66, 64
5, 98396, Note_off_c, 3, 69, 64
5, 98396, Note_on_c, 3, 62, 65
5, 98408, Note_on_c, 3, 66, 65
5, 98420, Note_on_c, 3, 69, 65
5, 98704, Note_off_c, 3, 69, 64
5, 98712, Note_off_c, 3, 66, 64
5, 98712, Note_on_c, 3, 69, 51
5, 98720, Note_on_c, 3, 66, 58
5, 98728, Note_off_c, 3, 57, 64
5, 98728, Note_off_c, 3, 62, 64
5, 98732, Note_on_c, 3, 62, 58
5, 98744, Note_on_c, 3, 57, 51
5, 98884, Note_off_c, 3, 50, 64
5, 98884, Note_on_c, 3, 50, 52
5, 99136, Note_off_c, 3, 69, 64
5, 99136, Note_off_c, 3, 66, 64
5, 99136, Note_off_c, 3, 62, 64
5, 99136, Note_off_c, 3, 57, 64
5, 99184, Note_on_c, 3, 69, 30
5, 99192, Note_on_c, 3, 66, 35
5, 99204, Note_on_c, 3, 62, 35
5, 99216, Note_on_c, 3, 57, 30
5, 99344, Note_off_c, 3, 57, 64
5, 99352, Note_off_c, 3, 62, 64
5, 99352, Note_off_c, 3, 66, 64
5, 99352, Note_off_c, 3, 69, 64
5, 99352, Note_on_c, 3, 57, 68
5, 99360, Note_on_c, 3, 62, 68
5, 99372, Note_on_c, 3, 66, 68
5, 99384, Note_on_c, 3, 69, 68
5, 99664, Note_off_c, 3, 69, 64
5, 99672, Note_off_c, 3, 66, 64
5, 99672, Note_on_c, 3, 69, 49
5, 99680, Note_on_c, 3, 66, 56
5, 99684, Note_off_c, 3, 62, 64
5, 99684, Note_off_c, 3, 57, 64
5, 99692, Note_on_c, 3, 62, 56
5, 99704, Note_on_c, 3, 57, 49
5, 99768, Note_off_c, 3, 50, 64
5, 99828, Note_off_c, 3, 69, 64
5, 99828, Note_off_c, 3, 66, 64
5, 99828, Note_off_c, 3, 62, 64
5, 99828, Note_off_c, 3, 57, 64
5, 99848, Note_on_c, 3, 50, 46
5, 99848, Note_on_c, 3, 57, 63
5, 99848, Note_on_c, 3, 62, 63
5, 99860, Note_on_c, 3, 66, 63
5, 99872, Note_on_c, 3, 69, 63
5, 100108, Note_off_c, 3, 69, 64
5, 100108, Note_off_c, 3, 66, 64
5, 100108, Note_off_c, 3, 62, 64
5, 100108, Note_off_c, 3, 57, 64
5, 100148, Note_on_c, 3, 69, 37
5, 100156, Note_on_c, 3, 66, 43
5, 100168, Note_on_c, 3, 62, 43
5, 100180, Note_on_c, 3, 57, 37
5, 100296, Note_off_c, 3, 57, 64
5, 100304, Note_off_c, 3, 62, 64
5, 100304, Note_on_c, 3, 57, 56
5, 100312, Note_off_c, 3, 66, 64
5, 100312, Note_off_c, 3, 69, 64
5, 100312, Note_on_c, 3, 62, 56
5, 100324, Note_on_c, 3, 66, 56
5, 100336, Note_on_c, 3, 69, 56
5, 100572, Note_off_c, 3, 69, 64
5, 100572, Note_off_c, 3, 66, 64
5, 100572, Note_off_c, 3, 57, 64
5, 100572, Note_off_c, 3, 62, 64
5, 100628, Note_on_c, 3, 69, 45
5, 100636, Note_on_c, 3, 66, 52
5, 100648, Note_on_c, 3, 62, 52
5, 100660, Note_on_c, 3, 57, 45
5, 100796, Note_off_c, 3, 50, 64
5, 100804, Note_on_c, 3, 50, 44
5, 101064, Note_off_c, 3, 69, 64
5, 101064, Note_off_c, 3, 66, 64
5, 101064, Note_off_c, 3, 62, 64
5, 101064, Note_off_c, 3, 57, 64
5, 101104, Note_on_c, 3, 69, 40
5, 101112, Note_on_c, 3, 66, 46
5, 101124, Note_on_c, 3, 62, 46
5, 101136, Note_on_c, 3, 57, 40
5, 101260, Note_off_c, 3, 57, 64
5, 101268, Note_on_c, 3, 57, 68
5, 101272, Note_off_c, 3, 62, 64
5, 101272, Note_off_c, 3, 66, 64
5, 101272, Note_off_c, 3, 69, 64
5, 101276, Note_on_c, 3, 62, 68
5, 101288, Note_on_c, 3, 66, 68
5, 101300, Note_on_c, 3, 69, 68
5, 101556, Note_off_c, 3, 69, 64
5, 101556, Note_off_c, 3, 66, 64
5, 101556, Note_off_c, 3, 57, 64
5, 101556, Note_off_c, 3, 62, 64
5, 101588, Note_on_c, 3, 69, 32
5, 101596, Note_on_c, 3, 66, 36
5, 101608, Note_on_c, 3, 62, 36
5, 101620, Note_on_c, 3, 57, 32
5, 101736, Note_off_c, 3, 57, 64
5, 101744, Note_off_c, 3, 62, 64
5, 101744, Note_off_c, 3, 66, 64
5, 101744, Note_off_c, 3, 50, 64
5, 101744, Note_off_c, 3, 69, 64
5, 101744, Note_on_c, 3, 57, 34
5, 101752, Note_on_c, 3, 62, 34
5, 101764, Note_on_c, 3, 66, 34
5, 101776, Note_on_c, 3, 69, 34
5, 101776, Note_on_c, 3, 50, 44
5, 101984, Note_off_c, 3, 69, 64
5, 101984, Note_off_c, 3, 66, 64
5, 101984, Note_off_c, 3, 62, 64
5, 101984, Note_off_c, 3, 57, 64
5, 102068, Note_on_c, 3, 57, 39
5, 102076, Note_on_c, 3, 62, 39
5, 102088, Note_on_c, 3, 66, 39
5, 102100, Note_on_c, 3, 69, 39
5, 102208, Note_off_c, 3, 69, 64
5, 102208, Note_off_c, 3, 66, 64
5, 102208, Note_off_c, 3, 62, 64
5, 102208, Note_off_c, 3, 57, 64
5, 102228, Note_on_c, 3, 57, 46
5, 102236, Note_on_c, 3, 62, 46
5, 102248, Note_on_c, 3, 66, 46
5, 102260, Note_on_c, 3, 69, 46
5, 102544, Note_off_c, 3, 57, 64
5, 102552, Note_off_c, 3, 50, 64
5, 102552, Note_off_c, 3, 62, 64
5, 102552, Note_on_c, 3, 57, 62
5, 102560, Note_on_c, 3, 62, 62
5, 102568, Note_off_c, 3, 66, 64
5, 102568, Note_off_c, 3, 69, 64
5, 102572, Note_on_c, 3, 66, 62
5, 102584, Note_on_c, 3, 69, 62
5, 103016, Note_off_c, 3, 69, 64
5, 103024, Note_off_c, 3, 66, 64
5, 103024, Note_on_c, 3, 69, 27
5, 103032, Note_on_c, 3, 66, 31
5, 103036, Note_off_c, 3, 62, 64
5, 103044, Note_off_c, 3, 57, 64
5, 103044, Note_on_c, 3, 62, 31
5, 103056, Note_on_c, 3, 57, 27
5, 103192, Note_off_c, 3, 57, 64
5, 103192, Note_off_c, 3, 69, 64
5, 103192, Note_off_c, 3, 66, 64
5, 103192, Note_off_c, 3, 62, 64
5, 103200, Note_on_c, 3, 50, 41
5, 103204, Note_on_c, 3, 57, 49
5, 103208, Note_on_c, 3, 62, 49
5, 103216, Note_on_c, 3, 66, 49
5, 103220, Note_on_c, 3, 69, 49
5, 103504, Note_off_c, 3, 69, 64
5, 103512, Note_off_c, 3, 66, 64
5, 103512, Note_on_c, 3, 69, 49
5, 103520, Note_on_c, 3, 66, 56
5, 103524, Note_off_c, 3, 62, 64
5, 103524, Note_off_c, 3, 57, 64
5, 103524, Note_off_c, 3, 50, 64
5, 103532, Note_on_c, 3, 62, 56
5, 103544, Note_on_c, 3, 57, 49
5, 103652, Note_off_c, 3, 57, 64
5, 103652, Note_off_c, 3, 69, 64
5, 103652, Note_off_c, 3, 66, 64
5, 103652, Note_off_c, 3, 62, 64
5, 103664, Note_on_c, 3, 50, 28
5, 103672, Note_on_c, 3, 55, 34
5, 103680, Note_on_c, 3, 59, 34
5, 103688, Note_on_c, 3, 62, 34
5, 103696, Note_on_c, 3, 67, 34
5, 103696, Note_on_c, 3, 43, 41
5, 103904, Note_off_c, 3, 67, 64
5, 103904, Note_off_c, 3, 62, 64
5, 103904, Note_off_c, 3, 59, 64
5, 103904, Note_off_c, 3, 55, 64
5, 103904, Note_off_c, 3, 50, 64
5, 103988, Note_on_c, 3, 50, 33
5, 103996, Note_on_c, 3, 55, 39
5, 104004, Note_on_c, 3, 59, 39
5, 104012, Note_on_c, 3, 62, 39
5, 104020, Note_on_c, 3, 67, 39
5, 104128, Note_off_c, 3, 67, 64
5, 104128, Note_off_c, 3, 62, 64
5, 104128, Note_off_c, 3, 59, 64
5, 104128, Note_off_c, 3, 55, 64
5, 104128, Note_off_c, 3, 50, 64
5, 104148, Note_on_c, 3, 50, 47
5, 104156, Note_on_c, 3, 55, 56
5, 104164, Note_on_c, 3, 59, 56
5, 104172, Note_on_c, 3, 62, 56
5, 104180, Note_on_c, 3, 67, 56
5, 104464, Note_off_c, 3, 50, 64
5, 104472, Note_off_c, 3, 43, 64
5, 104472, Note_off_c, 3, 55, 64
5, 104472, Note_on_c, 3, 50, 52
5, 104480, Note_off_c, 3, 59, 64
5, 104480, Note_on_c, 3, 55, 62
5, 104488, Note_off_c, 3, 62, 64
5, 104488, Note_off_c, 3, 67, 64
5, 104488, Note_on_c, 3, 59, 62
5, 104496, Note_on_c, 3, 62, 62
5, 104504, Note_on_c, 3, 67, 62
5, 104936, Note_off_c, 3, 50, 64
5, 104944, Note_off_c, 3, 55, 64
5, 104944, Note_on_c, 3, 50, 33
5, 104952, Note_off_c, 3, 59, 64
5, 104952, Note_on_c, 3, 55, 39
5, 104960, Note_on_c, 3, 59, 39
5, 104964, Note_off_c, 3, 62, 64
5, 104964, Note_off_c, 3, 67, 64
5, 104968, Note_on_c, 3, 62, 39
5, 104976, Note_on_c, 3, 67, 39
5, 105112, Note_off_c, 3, 67, 64
5, 105112, Note_off_c, 3, 50, 64
5, 105112, Note_off_c, 3, 55, 64
5, 105112, Note_off_c, 3, 59, 64
5, 105112, Note_off_c, 3, 62, 64
5, 105120, Note_on_c, 3, 43, 39
5, 105124, Note_on_c, 3, 50, 41
5, 105128, Note_on_c, 3, 55, 49
5, 105132, Note_on_c, 3, 59, 49
5, 105136, Note_on_c, 3, 62, 49
5, 105140, Note_on_c, 3, 67, 49
5, 105424, Note_off_c, 3, 67, 64
5, 105432, Note_off_c, 3, 62, 64
5, 105432, Note_on_c, 3, 67, 32
5, 105440, Note_on_c, 3, 62, 36
5, 105444, Note_off_c, 3, 59, 64
5, 105444, Note_off_c, 3, 55, 64
5, 105444, Note_off_c, 3, 50, 64
5, 105444, Note_off_c, 3, 43, 64
5, 105452, Note_on_c, 3, 59, 36
5, 105464, Note_on_c, 3, 55, 32
5, 105572, Note_off_c, 3, 55, 64
5, 105580, Note_off_c, 3, 67, 64
5, 105580, Note_off_c, 3, 62, 64
5, 105580, Note_off_c, 3, 59, 64
5, 105580, Note_on_c, 3, 57, 49
5, 105588, Note_on_c, 3, 62, 49
5, 105600, Note_on_c, 3, 66, 49
5, 105612, Note_on_c, 3, 69, 49
5, 105896, Note_off_c, 3, 69, 64
5, 105904, Note_off_c, 3, 66, 64
5, 105904, Note_on_c, 3, 69, 39
5, 105912, Note_on_c, 3, 66, 45
5, 105916, Note_off_c, 3, 62, 64
5, 105924, Note_on_c, 3, 62, 45
5, 105928, Note_off_c, 3, 57, 64
5, 105936, Note_on_c, 3, 57, 39
5, 106064, Note_off_c, 3, 69, 64
5, 106064, Note_off_c, 3, 66, 64
5, 106064, Note_off_c, 3, 62, 64
5, 106064, Note_off_c, 3, 57, 64
5, 106072, Note_on_c, 3, 57, 57
5, 106080, Note_on_c, 3, 62, 57
5, 106092, Note_on_c, 3, 66, 57
5, 106104, Note_on_c, 3, 69, 57
5, 106376, Note_off_c, 3, 69, 64
5, 106384, Note_off_c, 3, 66, 64
5, 106384, Note_on_c, 3, 69, 39
5, 106392, Note_on_c, 3, 66, 45
5, 106396, Note_off_c, 3, 62, 64
5, 106404, Note_on_c, 3, 62, 45
5, 106408, Note_off_c, 3, 57, 64
5, 106416, Note_on_c, 3, 57, 39
5, 106532, Note_off_c, 3, 57, 64
5, 106540, Note_on_c, 3, 57, 46
5, 106544, Note_off_c, 3, 69, 64
5, 106544, Note_off_c, 3, 66, 64
5, 106544, Note_off_c, 3, 62, 64
5, 106548, Note_on_c, 3, 62, 46
5, 106560, Note_on_c, 3, 66, 46
5, 106572, Note_on_c, 3, 69, 46
5, 106884, Note_off_c, 3, 69, 64
5, 106892, Note_off_c, 3, 66, 64
5, 106892, Note_on_c, 3, 69, 39
5, 106900, Note_on_c, 3, 66, 45
5, 106904, Note_off_c, 3, 62, 64
5, 106912, Note_off_c, 3, 57, 64
5, 106912, Note_on_c, 3, 62, 45
5, 106924, Note_on_c, 3, 57, 39
5, 107016, Note_off_c, 3, 57, 64
5, 107024, Note_off_c, 3, 62, 64
5, 107024, Note_on_c, 3, 57, 57
5, 107032, Note_on_c, 3, 62, 57
5, 107036, Note_off_c, 3, 66, 64
5, 107044, Note_off_c, 3, 69, 64
5, 107044, Note_on_c, 3, 66, 57
5, 107056, Note_on_c, 3, 69, 57
5, 107336, Note_off_c, 3, 69, 64
5, 107344, Note_off_c, 3, 66, 64
5, 107344, Note_on_c, 3, 69, 39
5, 107352, Note_on_c, 3, 66, 45
5, 107356, Note_off_c, 3, 62, 64
5, 107364, Note_off_c, 3, 57, 64
5, 107364, Note_on_c, 3, 62, 45
5, 107376, Note_on_c, 3, 57, 39
5, 107492, Note_off_c, 3, 57, 64
5, 107500, Note_off_c, 3, 62, 64
5, 107500, Note_on_c, 3, 57, 49
5, 107508, Note_on_c, 3, 62, 49
5, 107516, Note_off_c, 3, 69, 64
5, 107516, Note_off_c, 3, 66, 64
5, 107520, Note_on_c, 3, 66, 49
5, 107532, Note_on_c, 3, 69, 49
5, 107824, Note_off_c, 3, 69, 64
5, 107832, Note_off_c, 3, 66, 64
5, 107832, Note_on_c, 3, 69, 39
5, 107840, Note_on_c, 3, 66, 45
5, 107844, Note_off_c, 3, 62, 64
5, 107852, Note_off_c, 3, 57, 64
5, 107852, Note_on_c, 3, 62, 45
5, 107864, Note_on_c, 3, 57, 39
5, 107976, Note_off_c, 3, 57, 64
5, 107984, Note_off_c, 3, 62, 64
5, 107984, Note_on_c, 3, 57, 57
5, 107992, Note_on_c, 3, 62, 57
5, 107996, Note_off_c, 3, 66, 64
5, 108004, Note_off_c, 3, 69, 64
5, 108004, Note_on_c, 3, 66, 57
5, 108016, Note_on_c, 3, 69, 57
5, 108308, Note_off_c, 3, 69, 64
5, 108316, Note_off_c, 3, 66, 64
5, 108316, Note_on_c, 3, 69, 39
5, 108324, Note_on_c, 3, 66, 45
5, 108328, Note_off_c, 3, 62, 64
5, 108336, Note_off_c, 3, 57, 64
5, 108336, Note_on_c, 3, 62, 45
5, 108348, Note_on_c, 3, 57, 39
5, 108456, Note_off_c, 3, 57, 64
5, 108456, Note_off_c, 3, 69, 64
5, 108456, Note_off_c, 3, 66, 64
5, 108456, Note_off_c, 3, 62, 64
5, 108460, Note_on_c, 3, 57, 44
5, 108468, Note_on_c, 3, 62, 44
5, 108480, Note_on_c, 3, 66, 44
5, 108492, Note_on_c, 3, 69, 44
5, 108776, Note_off_c, 3, 69, 64
5, 108784, Note_off_c, 3, 66, 64
5, 108784, Note_on_c, 3, 69, 39
5, 108792, Note_on_c, 3, 66, 45
5, 108796, Note_off_c, 3, 62, 64
5, 108804, Note_on_c, 3, 62, 45
5, 108808, Note_off_c, 3, 57, 64
5, 108816, Note_on_c, 3, 57, 39
5, 108936, Note_off_c, 3, 57, 64
5, 108944, Note_off_c, 3, 69, 64
5, 108944, Note_off_c, 3, 66, 64
5, 108944, Note_off_c, 3, 62, 64
5, 108944, Note_on_c, 3, 57, 57
5, 108952, Note_on_c, 3, 62, 57
5, 108964, Note_on_c, 3, 66, 57
5, 108976, Note_on_c, 3, 69, 57
5, 109256, Note_off_c, 3, 69, 64
5, 109264, Note_off_c, 3, 66, 64
5, 109264, Note_on_c, 3, 69, 39
5, 109272, Note_on_c, 3, 66, 45
5, 109276, Note_off_c, 3, 62, 64
5, 109284, Note_on_c, 3, 62, 45
5, 109288, Note_off_c, 3, 57, 64
5, 109296, Note_on_c, 3, 57, 39
5, 109424, Note_off_c, 3, 69, 64
5, 109424, Note_off_c, 3, 66, 64
5, 109424, Note_off_c, 3, 62, 64
5, 109424, Note_off_c, 3, 57, 64
5, 109424, Note_on_c, 3, 52, 28
5, 109432, Note_on_c, 3, 57, 34
5, 109440, Note_on_c, 3, 61, 34
5, 109448, Note_on_c, 3, 64, 34
5, 109456, Note_on_c, 3, 69, 34
5, 109456, Note_on_c, 3, 45, 41
5, 109664, Note_off_c, 3, 69, 64
5, 109664, Note_off_c, 3, 64, 64
5, 109664, Note_off_c, 3, 61, 64
5, 109664, Note_off_c, 3, 57, 64
5, 109664, Note_off_c, 3, 52, 64
5, 109748, Note_on_c, 3, 69, 49
5, 109756, Note_on_c, 3, 64, 56
5, 109768, Note_on_c, 3, 61, 56
5, 109780, Note_on_c, 3, 57, 49
5, 109908, Note_off_c, 3, 57, 64
5, 109908, Note_on_c, 3, 52, 22
5, 109916, Note_off_c, 3, 61, 64
5, 109916, Note_on_c, 3, 57, 27
5, 109924, Note_off_c, 3, 64, 64
5, 109924, Note_on_c, 3, 61, 27
5, 109932, Note_off_c, 3, 69, 64
5, 109932, Note_on_c, 3, 64, 27
5, 109940, Note_on_c, 3, 69, 27
5, 110224, Note_off_c, 3, 69, 64
5, 110232, Note_off_c, 3, 45, 64
5, 110232, Note_off_c, 3, 64, 64
5, 110232, Note_on_c, 3, 69, 43
5, 110240, Note_on_c, 3, 64, 49
5, 110248, Note_off_c, 3, 52, 64
5, 110248, Note_off_c, 3, 57, 64
5, 110248, Note_off_c, 3, 61, 64
5, 110252, Note_on_c, 3, 61, 49
5, 110264, Note_on_c, 3, 57, 43
5, 110400, Note_off_c, 3, 57, 64
5, 110404, Note_on_c, 3, 45, 49
5, 110404, Note_on_c, 3, 52, 48
5, 110408, Note_off_c, 3, 61, 64
5, 110408, Note_on_c, 3, 57, 57
5, 110416, Note_on_c, 3, 61, 57
5, 110420, Note_off_c, 3, 69, 64
5, 110420, Note_off_c, 3, 64, 64
5, 110424, Note_on_c, 3, 64, 57
5, 110432, Note_on_c, 3, 69, 57
5, 110696, Note_off_c, 3, 69, 64
5, 110704, Note_off_c, 3, 64, 64
5, 110704, Note_on_c, 3, 69, 27
5, 110712, Note_on_c, 3, 64, 31
5, 110716, Note_off_c, 3, 61, 64
5, 110724, Note_off_c, 3, 52, 64
5, 110724, Note_off_c, 3, 57, 64
5, 110724, Note_on_c, 3, 61, 31
5, 110736, Note_on_c, 3, 57, 27
5, 110872, Note_off_c, 3, 57, 64
5, 110872, Note_off_c, 3, 45, 64
5, 110872, Note_off_c, 3, 69, 64
5, 110872, Note_off_c, 3, 64, 64
5, 110872, Note_off_c, 3, 61, 64
5, 110880, Note_on_c, 3, 45, 39
5, 110884, Note_on_c, 3, 52, 41
5, 110888, Note_on_c, 3, 57, 49
5, 110892, Note_on_c, 3, 61, 49
5, 110896, Note_on_c, 3, 64, 49
5, 110900, Note_on_c, 3, 69, 49
5, 111184, Note_off_c, 3, 69, 64
5, 111192, Note_off_c, 3, 64, 64
5, 111192, Note_on_c, 3, 69, 49
5, 111200, Note_on_c, 3, 64, 56
5, 111204, Note_off_c, 3, 61, 64
5, 111204, Note_off_c, 3, 57, 64
5, 111204, Note_off_c, 3, 52, 64
5, 111204, Note_off_c, 3, 45, 64
5, 111212, Note_on_c, 3, 61, 56
5, 111224, Note_on_c, 3, 57, 49
5, 111340, Note_off_c, 3, 57, 64
5, 111340, Note_off_c, 3, 69, 64
5, 111340, Note_off_c, 3, 64, 64
5, 111340, Note_off_c, 3, 61, 64
5, 111344, Note_on_c, 3, 50, 28
5, 111352, Note_on_c, 3, 55, 34
5, 111360, Note_on_c, 3, 59, 34
5, 111368, Note_on_c, 3, 62, 34
5, 111376, Note_on_c, 3, 67, 34
5, 111376, Note_on_c, 3, 43, 41
5, 111584, Note_off_c, 3, 67, 64
5, 111584, Note_off_c, 3, 62, 64
5, 111584, Note_off_c, 3, 59, 64
5, 111584, Note_off_c, 3, 55, 64
5, 111584, Note_off_c, 3, 50, 64
5, 111668, Note_on_c, 3, 50, 33
5, 111676, Note_on_c, 3, 55, 39
5, 111684, Note_on_c, 3, 59, 39
5, 111692, Note_on_c, 3, 62, 39
5, 111700, Note_on_c, 3, 67, 39
5, 111808, Note_off_c, 3, 67, 64
5, 111808, Note_off_c, 3, 62, 64
5, 111808, Note_off_c, 3, 59, 64
5, 111808, Note_off_c, 3, 55, 64
5, 111808, Note_off_c, 3, 50, 64
5, 111828, Note_on_c, 3, 50, 39
5, 111836, Note_on_c, 3, 55, 46
5, 111844, Note_on_c, 3, 59, 46
5, 111852, Note_on_c, 3, 62, 46
5, 111860, Note_on_c, 3, 67, 46
5, 112144, Note_off_c, 3, 50, 64
5, 112152, Note_off_c, 3, 43, 64
5, 112152, Note_off_c, 3, 55, 64
5, 112152, Note_on_c, 3, 50, 52
5, 112160, Note_off_c, 3, 59, 64
5, 112160, Note_on_c, 3, 55, 62
5, 112168, Note_off_c, 3, 62, 64
5, 112168, Note_off_c, 3, 67, 64
5, 112168, Note_on_c, 3, 59, 62
5, 112176, Note_on_c, 3, 62, 62
5, 112184, Note_on_c, 3, 67, 62
5, 112616, Note_off_c, 3, 67, 64
5, 112624, Note_off_c, 3, 62, 64
5, 112624, Note_on_c, 3, 67, 27
5, 112632, Note_on_c, 3, 62, 31
5, 112636, Note_off_c, 3, 59, 64
5, 112644, Note_off_c, 3, 50, 64
5, 112644, Note_off_c, 3, 55, 64
5, 112644, Note_on_c, 3, 59, 31
5, 112656, Note_on_c, 3, 55, 27
5, 112792, Note_off_c, 3, 55, 64
5, 112792, Note_off_c, 3, 67, 64
5, 112792, Note_off_c, 3, 62, 64
5, 112792, Note_off_c, 3, 59, 64
5, 112800, Note_on_c, 3, 43, 39
5, 112804, Note_on_c, 3, 50, 41
5, 112808, Note_on_c, 3, 55, 49
5, 112812, Note_on_c, 3, 59, 49
5, 112816, Note_on_c, 3, 62, 49
5, 112820, Note_on_c, 3, 67, 49
5, 113104, Note_off_c, 3, 67, 64
5, 113112, Note_off_c, 3, 62, 64
5, 113112, Note_on_c, 3, 67, 49
5, 113120, Note_on_c, 3, 62, 56
5, 113124, Note_off_c, 3, 59, 64
5, 113124, Note_off_c, 3, 55, 64
5, 113124, Note_off_c, 3, 50, 64
5, 113124, Note_off_c, 3, 43, 64
5, 113132, Note_on_c, 3, 59, 56
5, 113144, Note_on_c, 3, 55, 49
5, 113252, Note_off_c, 3, 55, 64
5, 113252, Note_off_c, 3, 67, 64
5, 113252, Note_off_c, 3, 62, 64
5, 113252, Note_off_c, 3, 59, 64
5, 113260, Note_on_c, 3, 57, 49
5, 113268, Note_on_c, 3, 61, 49
5, 113280, Note_on_c, 3, 64, 49
5, 113292, Note_on_c, 3, 69, 49
5, 113576, Note_off_c, 3, 69, 64
5, 113584, Note_off_c, 3, 64, 64
5, 113584, Note_on_c, 3, 69, 39
5, 113592, Note_on_c, 3, 64, 45
5, 113596, Note_off_c, 3, 61, 64
5, 113604, Note_on_c, 3, 61, 45
5, 113608, Note_off_c, 3, 57, 64
5, 113616, Note_on_c, 3, 57, 39
5, 113744, Note_off_c, 3, 69, 64
5, 113744, Note_off_c, 3, 64, 64
5, 113744, Note_off_c, 3, 61, 64
5, 113744, Note_off_c, 3, 57, 64
5, 113752, Note_on_c, 3, 57, 57
5, 113760, Note_on_c, 3, 61, 57
5, 113772, Note_on_c, 3, 64, 57
5, 113784, Note_on_c, 3, 69, 57
5, 114056, Note_off_c, 3, 69, 64
5, 114064, Note_off_c, 3, 64, 64
5, 114064, Note_on_c, 3, 69, 39
5, 114072, Note_on_c, 3, 64, 45
5, 114076, Note_off_c, 3, 61, 64
5, 114084, Note_on_c, 3, 61, 45
5, 114088, Note_off_c, 3, 57, 64
5, 114096, Note_on_c, 3, 57, 39
5, 114212, Note_off_c, 3, 57, 64
5, 114220, Note_on_c, 3, 57, 46
5, 114224, Note_off_c, 3, 69, 64
5, 114224, Note_off_c, 3, 64, 64
5, 114224, Note_off_c, 3, 61, 64
5, 114228, Note_on_c, 3, 61, 46
5, 114240, Note_on_c, 3, 64, 46
5, 114252, Note_on_c, 3, 69, 46
5, 114564, Note_off_c, 3, 69, 64
5, 114572, Note_off_c, 3, 64, 64
5, 114572, Note_on_c, 3, 69, 39
5, 114580, Note_on_c, 3, 64, 45
5, 114584, Note_off_c, 3, 61, 64
5, 114592, Note_off_c, 3, 57, 64
5, 114592, Note_on_c, 3, 61, 45
5, 114604, Note_on_c, 3, 57, 39
5, 114696, Note_off_c, 3, 57, 64
5, 114704, Note_off_c, 3, 61, 64
5, 114704, Note_on_c, 3, 57, 57
5, 114712, Note_on_c, 3, 61, 57
5, 114716, Note_off_c, 3, 64, 64
5, 114724, Note_off_c, 3, 69, 64
5, 114724, Note_on_c, 3, 64, 57
5, 114736, Note_on_c, 3, 69, 57
5, 115016, Note_off_c, 3, 69, 64
5, 115024, Note_off_c, 3, 64, 64
5, 115024, Note_on_c, 3, 69, 39
5, 115032, Note_on_c, 3, 64, 45
5, 115036, Note_off_c, 3, 61, 64
5, 115044, Note_off_c, 3, 57, 64
5, 115044, Note_on_c, 3, 61, 45
5, 115056, Note_on_c, 3, 57, 39
5, 115180, Note_off_c, 3, 57, 64
5, 115180, Note_off_c, 3, 69, 64
5, 115180, Note_off_c, 3, 64, 64
5, 115180, Note_off_c, 3, 61, 64
5, 115184, Note_on_c, 3, 50, 28
5, 115192, Note_on_c, 3, 55, 34
5, 115200, Note_on_c, 3, 59, 34
5, 115208, Note_on_c, 3, 62, 34
5, 115216, Note_on_c, 3, 67, 34
5, 115216, Note_on_c, 3, 43, 41
5, 115424, Note_off_c, 3, 67, 64
5, 115424, Note_off_c, 3, 62, 64
5, 115424, Note_off_c, 3, 59, 64
5, 115424, Note_off_c, 3, 55, 64
5, 115424, Note_off_c, 3, 50, 64
5, 115508, Note_on_c, 3, 67, 49
5, 115516, Note_on_c, 3, 62, 56
5, 115528, Note_on_c, 3, 59, 56
5, 115540, Note_on_c, 3, 55, 49
5, 115668, Note_off_c, 3, 55, 64
5, 115668, Note_on_c, 3, 50, 22
5, 115676, Note_off_c, 3, 59, 64
5, 115676, Note_on_c, 3, 55, 27
5, 115684, Note_off_c, 3, 62, 64
5, 115684, Note_on_c, 3, 59, 27
5, 115692, Note_off_c, 3, 67, 64
5, 115692, Note_on_c, 3, 62, 27
5, 115700, Note_on_c, 3, 67, 27
5, 115984, Note_off_c, 3, 67, 64
5, 115992, Note_off_c, 3, 43, 64
5, 115992, Note_off_c, 3, 62, 64
5, 115992, Note_on_c, 3, 67, 43
5, 116000, Note_on_c, 3, 62, 49
5, 116008, Note_off_c, 3, 50, 64
5, 116008, Note_off_c, 3, 55, 64
5, 116008, Note_off_c, 3, 59, 64
5, 116012, Note_on_c, 3, 59, 49
5, 116024, Note_on_c, 3, 55, 43
5, 116160, Note_off_c, 3, 55, 64
5, 116164, Note_on_c, 3, 43, 49
5, 116164, Note_on_c, 3, 50, 48
5, 116168, Note_off_c, 3, 59, 64
5, 116168, Note_on_c, 3, 55, 57
5, 116176, Note_on_c, 3, 59, 57
5, 116180, Note_off_c, 3, 67, 64
5, 116180, Note_off_c, 3, 62, 64
5, 116184, Note_on_c, 3, 62, 57
5, 116192, Note_on_c, 3, 67, 57
5, 116456, Note_off_c, 3, 67, 64
5, 116464, Note_off_c, 3, 62, 64
5, 116464, Note_on_c, 3, 67, 27
5, 116472, Note_on_c, 3, 62, 31
5, 116476, Note_off_c, 3, 59, 64
5, 116484, Note_off_c, 3, 50, 64
5, 116484, Note_off_c, 3, 55, 64
5, 116484, Note_on_c, 3, 59, 31
5, 116496, Note_on_c, 3, 55, 27
5, 116632, Note_off_c, 3, 55, 64
5, 116632, Note_off_c, 3, 43, 64
5, 116632, Note_off_c, 3, 67, 64
5, 116632, Note_off_c, 3, 62, 64
5, 116632, Note_off_c, 3, 59, 64
5, 116640, Note_on_c, 3, 43, 39
5, 116644, Note_on_c, 3, 50, 41
5, 116648, Note_on_c, 3, 55, 49
5, 116652, Note_on_c, 3, 59, 49
5, 116656, Note_on_c, 3, 62, 49
5, 116660, Note_on_c, 3, 67, 49
5, 116944, Note_off_c, 3, 67, 64
5, 116952, Note_off_c, 3, 62, 64
5, 116952, Note_on_c, 3, 67, 49
5, 116960, Note_on_c, 3, 62, 56
5, 116964, Note_off_c, 3, 59, 64
5, 116964, Note_off_c, 3, 55, 64
5, 116964, Note_off_c, 3, 50, 64
5, 116964, Note_off_c, 3, 43, 64
5, 116972, Note_on_c, 3, 59, 56
5, 116984, Note_on_c, 3, 55, 49
5, 117100, Note_off_c, 3, 55, 64
5, 117100, Note_off_c, 3, 67, 64
5, 117100, Note_off_c, 3, 62, 64
5, 117100, Note_off_c, 3, 59, 64
5, 117124, Note_on_c, 3, 50, 50
5, 117124, Note_on_c, 3, 57, 64
5, 117124, Note_on_c, 3, 62, 64
5, 117136, Note_on_c, 3, 66, 64
5, 117148, Note_on_c, 3, 69, 64
5, 117384, Note_off_c, 3, 69, 64
5, 117384, Note_off_c, 3, 66, 64
5, 117384, Note_off_c, 3, 62, 64
5, 117384, Note_off_c, 3, 57, 64
5, 117428, Note_on_c, 3, 57, 39
5, 117436, Note_on_c, 3, 62, 39
5, 117448, Note_on_c, 3, 66, 39
5, 117460, Note_on_c, 3, 69, 39
5, 117560, Note_off_c, 3, 50, 64
5, 117564, Note_off_c, 3, 57, 64
5, 117564, Note_off_c, 3, 62, 64
5, 117564, Note_off_c, 3, 66, 64
5, 117564, Note_off_c, 3, 69, 64
5, 117604, Note_on_c, 3, 52, 50
5, 117604, Note_on_c, 3, 59, 64
5, 117604, Note_on_c, 3, 64, 64
5, 117616, Note_on_c, 3, 67, 64
5, 117628, Note_on_c, 3, 71, 64
5, 117916, Note_off_c, 3, 59, 64
5, 117916, Note_off_c, 3, 52, 64
5, 117924, Note_on_c, 3, 59, 42
5, 118044, Note_off_c, 3, 59, 64
5, 118064, Note_off_c, 3, 64, 64
5, 118064, Note_off_c, 3, 67, 64
5, 118064, Note_off_c, 3, 71, 64
5, 118076, Note_on_c, 3, 50, 46
5, 118084, Note_on_c, 3, 57, 55
5, 118092, Note_on_c, 3, 62, 55
5, 118100, Note_on_c, 3, 66, 55
5, 118108, Note_on_c, 3, 69, 55
5, 118540, Note_off_c, 3, 69, 64
5, 118540, Note_off_c, 3, 66, 64
5, 118540, Note_off_c, 3, 62, 64
5, 118540, Note_off_c, 3, 57, 64
5, 118540, Note_off_c, 3, 50, 64
5, 118564, Note_on_c, 3, 52, 50
5, 118564, Note_on_c, 3, 59, 64
5, 118564, Note_on_c, 3, 64, 64
5, 118576, Note_on_c, 3, 67, 64
5, 118588, Note_on_c, 3, 71, 64
5, 118876, Note_off_c, 3, 59, 64
5, 118876, Note_off_c, 3, 52, 64
5, 118884, Note_on_c, 3, 59, 42
5, 119004, Note_off_c, 3, 59, 64
5, 119024, Note_off_c, 3, 64, 64
5, 119024, Note_off_c, 3, 67, 64
5, 119024, Note_off_c, 3, 71, 64
5, 119036, Note_on_c, 3, 50, 46
5, 119044, Note_on_c, 3, 57, 55
5, 119052, Note_on_c, 3, 62, 55
5, 119060, Note_on_c, 3, 66, 55
5, 119068, Note_on_c, 3, 69, 55
5, 119500, Note_off_c, 3, 69, 64
5, 119500, Note_off_c, 3, 66, 64
5, 119500, Note_off_c, 3, 62, 64
5, 119500, Note_off_c, 3, 57, 64
5, 119500, Note_off_c, 3, 50, 64
5, 119516, Note_on_c, 3, 52, 46
5, 119524, Note_on_c, 3, 59, 55
5, 119532, Note_on_c, 3, 64, 55
5, 119540, Note_on_c, 3, 67, 55
5, 119548, Note_on_c, 3, 71, 55
5, 119980, Note_off_c, 3, 71, 64
5, 119980, Note_off_c, 3, 67, 64
5, 119980, Note_off_c, 3, 64, 64
5, 119980, Note_off_c, 3, 59, 64
5, 119980, Note_off_c, 3, 52, 64
5, 120004, Note_on_c, 3, 50, 50
5, 120004, Note_on_c, 3, 57, 64
5, 120004, Note_on_c, 3, 62, 64
5, 120016, Note_on_c, 3, 66, 64
5, 120028, Note_on_c, 3, 69, 64
5, 120264, Note_off_c, 3, 69, 64
5, 120264, Note_off_c, 3, 66, 64
5, 120264, Note_off_c, 3, 62, 64
5, 120264, Note_off_c, 3, 57, 64
5, 120308, Note_on_c, 3, 57, 39
5, 120316, Note_on_c, 3, 62, 39
5, 120328, Note_on_c, 3, 66, 39
5, 120340, Note_on_c, 3, 69, 39
5, 120440, Note_off_c, 3, 50, 64
5, 120444, Note_off_c, 3, 57, 64
5, 120444, Note_off_c, 3, 62, 64
5, 120444, Note_off_c, 3, 66, 64
5, 120444, Note_off_c, 3, 69, 64
5, 120484, Note_on_c, 3, 52, 50
5, 120484, Note_on_c, 3, 59, 64
5, 120484, Note_on_c, 3, 64, 64
5, 120496, Note_on_c, 3, 67, 64
5, 120508, Note_on_c, 3, 71, 64
5, 120744, Note_off_c, 3, 71, 64
5, 120744, Note_off_c, 3, 67, 64
5, 120744, Note_off_c, 3, 64, 64
5, 120744, Note_off_c, 3, 59, 64
5, 120788, Note_on_c, 3, 59, 39
5, 120796, Note_on_c, 3, 64, 39
5, 120808, Note_on_c, 3, 67, 39
5, 120820, Note_on_c, 3, 71, 39
5, 120920, Note_off_c, 3, 52, 64
5, 120924, Note_off_c, 3, 59, 64
5, 120924, Note_off_c, 3, 64, 64
5, 120924, Note_off_c, 3, 67, 64
5, 120924, Note_off_c, 3, 71, 64
5, 120964, Note_on_c, 3, 50, 50
5, 120964, Note_on_c, 3, 57, 64
5, 120964, Note_on_c, 3, 62, 64
5, 120976, Note_on_c, 3, 66, 64
5, 120988, Note_on_c, 3, 69, 64
5, 121224, Note_off_c, 3, 69, 64
5, 121224, Note_off_c, 3, 66, 64
5, 121224, Note_off_c, 3, 62, 64
5, 121224, Note_off_c, 3, 57, 64
5, 121268, Note_on_c, 3, 57, 39
5, 121276, Note_on_c, 3, 62, 39
5, 121288, Note_on_c, 3, 66, 39
5, 121300, Note_on_c, 3, 69, 39
5, 121400, Note_off_c, 3, 50, 64
5, 121404, Note_off_c, 3, 57, 64
5, 121404, Note_off_c, 3, 62, 64
5, 121404, Note_off_c, 3, 66, 64
5, 121404, Note_off_c, 3, 69, 64
5, 121444, Note_on_c, 3, 52, 50
5, 121444, Note_on_c, 3, 59, 64
5, 121444, Note_on_c, 3, 64, 64
5, 121456, Note_on_c, 3, 67, 64
5, 121468, Note_on_c, 3, 71, 64
5, 121756, Note_off_c, 3, 59, 64
5, 121756, Note_off_c, 3, 52, 64
5, 121764, Note_on_c, 3, 59, 42
5, 121884, Note_off_c, 3, 59, 64
5, 121904, Note_off_c, 3, 64, 64
5, 121904, Note_off_c, 3, 67, 64
5, 121904, Note_off_c, 3, 71, 64
5, 121924, Note_on_c, 3, 50, 50
5, 121924, Note_on_c, 3, 57, 64
5, 121924, Note_on_c, 3, 62, 64
5, 121936, Note_on_c, 3, 66, 64
5, 121948, Note_on_c, 3, 69, 64
5, 122184, Note_off_c, 3, 69, 64
5, 122184, Note_off_c, 3, 66, 64
5, 122184, Note_off_c, 3, 62, 64
5, 122184, Note_off_c, 3, 57, 64
5, 122228, Note_on_c, 3, 57, 39
5, 122236, Note_on_c, 3, 62, 39
5, 122248, Note_on_c, 3, 66, 39
5, 122260, Note_on_c, 3, 69, 39
5, 122360, Note_off_c, 3, 50, 64
5, 122364, Note_off_c, 3, 57, 64
5, 122364, Note_off_c, 3, 62, 64
5, 122364, Note_off_c, 3, 66, 64
5, 122364, Note_off_c, 3, 69, 64
5, 122396, Note_on_c, 3, 52, 46
5, 122404, Note_on_c, 3, 59, 55
5, 122412, Note_on_c, 3, 64, 55
5, 122420, Note_on_c, 3, 67, 55
5, 122428, Note_on_c, 3, 71, 55
5, 122860, Note_off_c, 3, 71, 64
5, 122860, Note_off_c, 3, 67, 64
5, 122860, Note_off_c, 3, 64, 64
5, 122860, Note_off_c, 3, 59, 64
5, 122860, Note_off_c, 3, 52, 64
5, 122876, Note_on_c, 3, 50, 46
5, 122884, Note_on_c, 3, 57, 55
5, 122892, Note_on_c, 3, 62, 55
5, 122900, Note_on_c, 3, 66, 55
5, 122908, Note_on_c, 3, 69, 55
5, 123340, Note_off_c, 3, 69, 64
5, 123340, Note_off_c, 3, 66, 64
5, 123340, Note_off_c, 3, 62, 64
5, 123340, Note_off_c, 3, 57, 64
5, 123340, Note_off_c, 3, 50, 64
5, 123356, Note_on_c, 3, 52, 46
5, 123364, Note_on_c, 3, 59, 55
5, 123372, Note_on_c, 3, 64, 55
5, 123380, Note_on_c, 3, 67, 55
5, 123388, Note_on_c, 3, 71, 55
5, 123820, Note_off_c, 3, 71, 64
5, 123820, Note_off_c, 3, 67, 64
5, 123820, Note_off_c, 3, 64, 64
5, 123820, Note_off_c, 3, 59, 64
5, 123820, Note_off_c, 3, 52, 64
5, 123844, Note_on_c, 3, 50, 50
5, 123844, Note_on_c, 3, 57, 64
5, 123844, Note_on_c, 3, 62, 64
5, 123856, Note_on_c, 3, 66, 64
5, 123868, Note_on_c, 3, 69, 64
5, 124156, Note_off_c, 3, 57, 64
5, 124156, Note_off_c, 3, 50, 64
5, 124164, Note_on_c, 3, 57, 42
5, 124284, Note_off_c, 3, 57, 64
5, 124304, Note_off_c, 3, 62, 64
5, 124304, Note_off_c, 3, 66, 64
5, 124304, Note_off_c, 3, 69, 64
5, 124324, Note_on_c, 3, 52, 50
5, 124324, Note_on_c, 3, 59, 64
5, 124324, Note_on_c, 3, 64, 64
5, 124336, Note_on_c, 3, 67, 64
5, 124348, Note_on_c, 3, 71, 64
5, 124636, Note_off_c, 3, 59, 64
5, 124636, Note_off_c, 3, 52, 64
5, 124644, Note_on_c, 3, 59, 42
5, 124764, Note_off_c, 3, 59, 64
5, 124784, Note_off_c, 3, 64, 64
5, 124784, Note_off_c, 3, 67, 64
5, 124784, Note_off_c, 3, 71, 64
5, 124804, Note_on_c, 3, 51, 50
5, 124804, Note_on_c, 3, 55, 64
5, 124804, Note_on_c, 3, 58, 64
5, 124816, Note_on_c, 3, 63, 64
5, 124828, Note_on_c, 3, 67, 64
5, 125116, Note_off_c, 3, 55, 64
5, 125116, Note_off_c, 3, 51, 64
5, 125124, Note_on_c, 3, 55, 42
5, 125244, Note_off_c, 3, 55, 64
5, 125264, Note_off_c, 3, 58, 64
5, 125264, Note_off_c, 3, 63, 64
5, 125264, Note_off_c, 3, 67, 64
5, 125276, Note_on_c, 3, 53, 46
5, 125284, Note_on_c, 3, 60, 55
5, 125292, Note_on_c, 3, 65, 55
5, 125300, Note_on_c, 3, 68, 55
5, 125308, Note_on_c, 3, 72, 55
5, 125740, Note_off_c, 3, 72, 64
5, 125740, Note_off_c, 3, 68, 64
5, 125740, Note_off_c, 3, 65, 64
5, 125740, Note_off_c, 3, 60, 64
5, 125740, Note_off_c, 3, 53, 64
5, 125764, Note_on_c, 3, 51, 50
5, 125764, Note_on_c, 3, 55, 64
5, 125764, Note_on_c, 3, 58, 64
5, 125776, Note_on_c, 3, 63, 64
5, 125788, Note_on_c, 3, 67, 64
5, 126076, Note_off_c, 3, 55, 64
5, 126076, Note_off_c, 3, 51, 64
5, 126084, Note_on_c, 3, 55, 42
5, 126204, Note_off_c, 3, 55, 64
5, 126224, Note_off_c, 3, 58, 64
5, 126224, Note_off_c, 3, 63, 64
5, 126224, Note_off_c, 3, 67, 64
5, 126236, Note_on_c, 3, 53, 46
5, 126244, Note_on_c, 3, 60, 55
5, 126252, Note_on_c, 3, 65, 55
5, 126260, Note_on_c, 3, 68, 55
5, 126268, Note_on_c, 3, 72, 55
5, 126700, Note_off_c, 3, 72, 64
5, 126700, Note_off_c, 3, 68, 64
5, 126700, Note_off_c, 3, 65, 64
5, 126700, Note_off_c, 3, 60, 64
5, 126700, Note_off_c, 3, 53, 64
5, 126716, Note_on_c, 3, 51, 46
5, 126724, Note_on_c, 3, 58, 55
5, 126732, Note_on_c, 3, 63, 55
5, 126740, Note_on_c, 3, 67, 55
5, 126748, Note_on_c, 3, 70, 55
5, 127180, Note_off_c, 3, 70, 64
5, 127180, Note_off_c, 3, 67, 64
5, 127180, Note_off_c, 3, 63, 64
5, 127180, Note_off_c, 3, 58, 64
5, 127180, Note_off_c, 3, 51, 64
5, 127204, Note_on_c, 3, 53, 50
5, 127204, Note_on_c, 3, 60, 64
5, 127204, Note_on_c, 3, 65, 64
5, 127216, Note_on_c, 3, 68, 64
5, 127228, Note_on_c, 3, 72, 64
5, 127516, Note_off_c, 3, 60, 64
5, 127516, Note_off_c, 3, 53, 64
5, 127524, Note_on_c, 3, 60, 42
5, 127644, Note_off_c, 3, 60, 64
5, 127664, Note_off_c, 3, 65, 64
5, 127664, Note_off_c, 3, 68, 64
5, 127664, Note_off_c, 3, 72, 64
5, 127684, Note_on_c, 3, 51, 50
5, 127684, Note_on_c, 3, 58, 64
5, 127684, Note_on_c, 3, 63, 64
5, 127696, Note_on_c, 3, 67, 64
5, 127708, Note_on_c, 3, 70, 64
5, 127996, Note_off_c, 3, 58, 64
5, 127996, Note_off_c, 3, 51, 64
5, 128004, Note_on_c, 3, 58, 42
5, 128124, Note_off_c, 3, 58, 64
5, 128144, Note_off_c, 3, 63, 64
5, 128144, Note_off_c, 3, 67, 64
5, 128144, Note_off_c, 3, 70, 64
5, 128156, Note_on_c, 3, 53, 46
5, 128164, Note_on_c, 3, 60, 55
5, 128172, Note_on_c, 3, 65, 55
5, 128180, Note_on_c, 3, 68, 55
5, 128188, Note_on_c, 3, 72, 55
5, 128620, Note_off_c, 3, 72, 64
5, 128620, Note_off_c, 3, 68, 64
5, 128620, Note_off_c, 3, 65, 64
5, 128620, Note_off_c, 3, 60, 64
5, 128620, Note_off_c, 3, 53, 64
5, 128644, Note_on_c, 3, 51, 50
5, 128644, Note_on_c, 3, 58, 64
5, 128644, Note_on_c, 3, 63, 64
5, 128656, Note_on_c, 3, 67, 64
5, 128668, Note_on_c, 3, 70, 64
5, 128956, Note_off_c, 3, 58, 64
5, 128956, Note_off_c, 3, 51, 64
5, 128964, Note_on_c, 3, 58, 42
5, 129084, Note_off_c, 3, 58, 64
5, 129104, Note_off_c, 3, 63, 64
5, 129104, Note_off_c, 3, 67, 64
5, 129104, Note_off_c, 3, 70, 64
5, 129116, Note_on_c, 3, 53, 46
5, 129124, Note_on_c, 3, 60, 55
5, 129132, Note_on_c, 3, 65, 55
5, 129140, Note_on_c, 3, 68, 55
5, 129148, Note_on_c, 3, 72, 55
5, 129580, Note_off_c, 3, 72, 64
5, 129580, Note_off_c, 3, 68, 64
5, 129580, Note_off_c, 3, 65, 64
5, 129580, Note_off_c, 3, 60, 64
5, 129580, Note_off_c, 3, 53, 64
5, 129596, Note_on_c, 3, 51, 46
5, 129604, Note_on_c, 3, 58, 55
5, 129612, Note_on_c, 3, 63, 55
5, 129620, Note_on_c, 3, 67, 55
5, 129628, Note_on_c, 3, 70, 55
5, 130060, Note_off_c, 3, 70, 64
5, 130060, Note_off_c, 3, 67, 64
5, 130060, Note_off_c, 3, 63, 64
5, 130060, Note_off_c, 3, 58, 64
5, 130060, Note_off_c, 3, 51, 64
5, 130076, Note_on_c, 3, 53, 46
5, 130084, Note_on_c, 3, 60, 55
5, 130092, Note_on_c, 3, 65, 55
5, 130100, Note_on_c, 3, 68, 55
5, 130108, Note_on_c, 3, 72, 55
5, 130540, Note_off_c, 3, 72, 64
5, 130540, Note_off_c, 3, 68, 64
5, 130540, Note_off_c, 3, 65, 64
5, 130540, Note_off_c, 3, 60, 64
5, 130540, Note_off_c, 3, 53, 64
5, 130564, Note_on_c, 3, 51, 50
5, 130564, Note_on_c, 3, 58, 64
5, 130564, Note_on_c, 3, 63, 64
5, 130576, Note_on_c, 3, 67, 64
5, 130588, Note_on_c, 3, 70, 64
5, 130876, Note_off_c, 3, 58, 64
5, 130876, Note_off_c, 3, 51, 64
5, 130884, Note_on_c, 3, 58, 42
5, 131004, Note_off_c, 3, 58, 64
5, 131024, Note_off_c, 3, 63, 64
5, 131024, Note_off_c, 3, 67, 64
5, 131024, Note_off_c, 3, 70, 64
5, 131036, Note_on_c, 3, 53, 46
5, 131044, Note_on_c, 3, 60, 55
5, 131052, Note_on_c, 3, 65, 55
5, 131060, Note_on_c, 3, 68, 55
5, 131068, Note_on_c, 3, 72, 55
5, 131500, Note_off_c, 3, 72, 64
5, 131500, Note_off_c, 3, 68, 64
5, 131500, Note_off_c, 3, 65, 64
5, 131500, Note_off_c, 3, 60, 64
5, 131500, Note_off_c, 3, 53, 64
5, 131516, Note_on_c, 3, 51, 46
5, 131524, Note_on_c, 3, 55, 55
5, 131532, Note_on_c, 3, 58, 55
5, 131540, Note_on_c, 3, 63, 55
5, 131548, Note_on_c, 3, 67, 55
5, 131980, Note_off_c, 3, 67, 64
5, 131980, Note_off_c, 3, 63, 64
5, 131980, Note_off_c, 3, 58, 64
5, 131980, Note_off_c, 3, 55, 64
5, 131980, Note_off_c, 3, 51, 64
5, 132004, Note_on_c, 3, 53, 50
5, 132004, Note_on_c, 3, 60, 64
5, 132004, Note_on_c, 3, 65, 64
5, 132016, Note_on_c, 3, 68, 64
5, 132028, Note_on_c, 3, 72, 64
5, 132316, Note_off_c, 3, 60, 64
5, 132316, Note_off_c, 3, 53, 64
5, 132324, Note_on_c, 3, 60, 42
5, 132444, Note_off_c, 3, 60, 64
5, 132464, Note_off_c, 3, 65, 64
5, 132464, Note_off_c, 3, 68, 64
5, 132464, Note_off_c, 3, 72, 64
5, 132484, Note_on_c, 3, 51, 50
5, 132484, Note_on_c, 3, 55, 64
5, 132484, Note_on_c, 3, 58, 64
5, 132496, Note_on_c, 3, 63, 64
5, 132508, Note_on_c, 3, 67, 64
5, 132796, Note_off_c, 3, 55, 64
5, 132796, Note_off_c, 3, 51, 64
5, 132804, Note_on_c, 3, 55, 42
5, 132924, Note_off_c, 3, 55, 64
5, 132944, Note_off_c, 3, 58, 64
5, 132944, Note_off_c, 3, 63, 64
5, 132944, Note_off_c, 3, 67, 64
5, 132964, Note_on_c, 3, 53, 50
5, 132964, Note_on_c, 3, 60, 64
5, 132964, Note_on_c, 3, 65, 64
5, 132976, Note_on_c, 3, 68, 64
5, 132988, Note_on_c, 3, 72, 64
5, 133276, Note_off_c, 3, 60, 64
5, 133276, Note_off_c, 3, 53, 64
5, 133284, Note_on_c, 3, 60, 42
5, 133404, Note_off_c, 3, 60, 64
5, 133424, Note_off_c, 3, 65, 64
5, 133424, Note_off_c, 3, 68, 64
5, 133424, Note_off_c, 3, 72, 64
5, 133444, Note_on_c, 3, 51, 50
5, 133444, Note_on_c, 3, 55, 64
5, 133444, Note_on_c, 3, 58, 64
5, 133456, Note_on_c, 3, 63, 64
5, 133468, Note_on_c, 3, 67, 64
5, 133704, Note_off_c, 3, 67, 64
5, 133704, Note_off_c, 3, 63, 64
5, 133704, Note_off_c, 3, 58, 64
5, 133704, Note_off_c, 3, 55, 64
5, 133748, Note_on_c, 3, 55, 39
5, 133756, Note_on_c, 3, 58, 39
5, 133768, Note_on_c, 3, 63, 39
5, 133780, Note_on_c, 3, 67, 39
5, 133880, Note_off_c, 3, 51, 64
5, 133884, Note_off_c, 3, 55, 64
5, 133884, Note_off_c, 3, 58, 64
5, 133884, Note_off_c, 3, 63, 64
5, 133884, Note_off_c, 3, 67, 64
5, 133924, Note_on_c, 3, 53, 50
5, 133924, Note_on_c, 3, 60, 64
5, 133924, Note_on_c, 3, 65, 64
5, 133936, Note_on_c, 3, 68, 64
5, 133948, Note_on_c, 3, 72, 64
5, 134184, Note_off_c, 3, 72, 64
5, 134184, Note_off_c, 3, 68, 64
5, 134184, Note_off_c, 3, 65, 64
5, 134184, Note_off_c, 3, 60, 64
5, 134228, Note_on_c, 3, 60, 39
5, 134236, Note_on_c, 3, 65, 39
5, 134248, Note_on_c, 3, 68, 39
5, 134260, Note_on_c, 3, 72, 39
5, 134360, Note_off_c, 3, 53, 64
5, 134364, Note_off_c, 3, 60, 64
5, 134364, Note_off_c, 3, 65, 64
5, 134364, Note_off_c, 3, 68, 64
5, 134364, Note_off_c, 3, 72, 64
5, 134404, Note_on_c, 3, 51, 50
5, 134404, Note_on_c, 3, 55, 64
5, 134404, Note_on_c, 3, 58, 64
5, 134416, Note_on_c, 3, 63, 64
5, 134428, Note_on_c, 3, 67, 64
5, 134716, Note_off_c, 3, 55, 64
5, 134716, Note_off_c, 3, 51, 64
5, 134724, Note_on_c, 3, 55, 42
5, 134844, Note_off_c, 3, 55, 64
5, 134864, Note_off_c, 3, 58, 64
5, 134864, Note_off_c, 3, 63, 64
5, 134864, Note_off_c, 3, 67, 64
5, 134876, Note_on_c, 3, 48, 44
5, 134884, Note_on_c, 3, 53, 46
5, 134888, Note_on_c, 3, 60, 55
5, 134896, Note_on_c, 3, 65, 55
5, 134904, Note_on_c, 3, 68, 55
5, 134908, Note_on_c, 3, 72, 55
5, 135340, Note_off_c, 3, 72, 64
5, 135340, Note_off_c, 3, 68, 64
5, 135340, Note_off_c, 3, 65, 64
5, 135340, Note_off_c, 3, 60, 64
5, 135340, Note_off_c, 3, 53, 64
5, 135340, Note_off_c, 3, 48, 64
5, 135364, Note_on_c, 3, 51, 50
5, 135364, Note_on_c, 3, 58, 64
5, 135364, Note_on_c, 3, 63, 64
5, 135376, Note_on_c, 3, 67, 64
5, 135388, Note_on_c, 3, 70, 64
5, 135624, Note_off_c, 3, 70, 64
5, 135624, Note_off_c, 3, 67, 64
5, 135624, Note_off_c, 3, 63, 64
5, 135624, Note_off_c, 3, 58, 64
5, 135668, Note_on_c, 3, 58, 39
5, 135676, Note_on_c, 3, 63, 39
5, 135688, Note_on_c, 3, 67, 39
5, 135700, Note_on_c, 3, 70, 39
5, 135800, Note_off_c, 3, 51, 64
5, 135804, Note_off_c, 3, 58, 64
5, 135804, Note_off_c, 3, 63, 64
5, 135804, Note_off_c, 3, 67, 64
5, 135804, Note_off_c, 3, 70, 64
5, 135836, Note_on_c, 3, 48, 44
5, 135844, Note_on_c, 3, 53, 46
5, 135848, Note_on_c, 3, 60, 55
5, 135856, Note_on_c, 3, 65, 55
5, 135864, Note_on_c, 3, 68, 55
5, 135868, Note_on_c, 3, 72, 55
5, 136300, Note_off_c, 3, 72, 64
5, 136300, Note_off_c, 3, 68, 64
5, 136300, Note_off_c, 3, 65, 64
5, 136300, Note_off_c, 3, 60, 64
5, 136300, Note_off_c, 3, 53, 64
5, 136300, Note_off_c, 3, 48, 64
5, 136316, Note_on_c, 3, 51, 46
5, 136320, Control_c, 3, 7, 108
5, 136324, Note_on_c, 3, 58, 55
5, 136332, Note_on_c, 3, 63, 55
5, 136340, Note_on_c, 3, 67, 55
5, 136348, Note_on_c, 3, 70, 55
5, 136560, Control_c, 3, 7, 105
5, 136780, Note_off_c, 3, 70, 64
5, 136780, Note_off_c, 3, 67, 64
5, 136780, Note_off_c, 3, 63, 64
5, 136780, Note_off_c, 3, 58, 64
5, 136780, Note_off_c, 3, 51, 64
5, 136796, Note_on_c, 3, 53, 46
5, 136800, Control_c, 3, 7, 103
5, 136804, Note_on_c, 3, 60, 55
5, 136812, Note_on_c, 3, 65, 55
5, 136820, Note_on_c, 3, 68, 55
5, 136828, Note_on_c, 3, 72, 55
5, 137040, Control_c, 3, 7, 101
5, 137260, Note_off_c, 3, 72, 64
5, 137260, Note_off_c, 3, 68, 64
5, 137260, Note_off_c, 3, 65, 64
5, 137260, Note_off_c, 3, 60, 64
5, 137260, Note_off_c, 3, 53, 64
5, 137280, Control_c, 3, 7, 98
5, 137284, Note_on_c, 3, 51, 50
5, 137284, Note_on_c, 3, 55, 64
5, 137284, Note_on_c, 3, 58, 64
5, 137296, Note_on_c, 3, 63, 64
5, 137308, Note_on_c, 3, 67, 64
5, 137520, Control_c, 3, 7, 96
5, 137596, Note_off_c, 3, 55, 64
5, 137596, Note_off_c, 3, 51, 64
5, 137604, Note_on_c, 3, 55, 42
5, 137724, Note_off_c, 3, 55, 64
5, 137744, Note_off_c, 3, 58, 64
5, 137744, Note_off_c, 3, 63, 64
5, 137744, Note_off_c, 3, 67, 64
5, 137760, Control_c, 3, 7, 94
5, 137764, Note_on_c, 3, 53, 50
5, 137764, Note_on_c, 3, 60, 64
5, 137764, Note_on_c, 3, 65, 64
5, 137776, Note_on_c, 3, 68, 64
5, 137788, Note_on_c, 3, 72, 64
5, 138000, Control_c, 3, 7, 92
5, 138076, Note_off_c, 3, 60, 64
5, 138076, Note_off_c, 3, 53, 64
5, 138084, Note_on_c, 3, 60, 42
5, 138204, Note_off_c, 3, 60, 64
5, 138224, Note_off_c, 3, 65, 64
5, 138224, Note_off_c, 3, 68, 64
5, 138224, Note_off_c, 3, 72, 64
5, 138240, Control_c, 3, 7, 89
5, 138244, Note_on_c, 3, 51, 50
5, 138244, Note_on_c, 3, 55, 64
5, 138244, Note_on_c, 3, 58, 64
5, 138256, Note_on_c, 3, 63, 64
5, 138268, Note_on_c, 3, 67, 64
5, 138480, Control_c, 3, 7, 87
5, 138556, Note_off_c, 3, 55, 64
5, 138556, Note_off_c, 3, 51, 64
5, 138564, Note_on_c, 3, 55, 42
5, 138684, Note_off_c, 3, 55, 64
5, 138704, Note_off_c, 3, 58, 64
5, 138704, Note_off_c, 3, 63, 64
5, 138704, Note_off_c, 3, 67, 64
5, 138716, Note_on_c, 3, 53, 46
5, 138720, Control_c, 3, 7, 85
5, 138724, Note_on_c, 3, 60, 55
5, 138732, Note_on_c, 3, 65, 55
5, 138740, Note_on_c, 3, 68, 55
5, 138748, Note_on_c, 3, 72, 55
5, 138960, Control_c, 3, 7, 83
5, 139180, Note_off_c, 3, 72, 64
5, 139180, Note_off_c, 3, 68, 64
5, 139180, Note_off_c, 3, 65, 64
5, 139180, Note_off_c, 3, 60, 64
5, 139180, Note_off_c, 3, 53, 64
5, 139200, Control_c, 3, 7, 80
5, 139204, Note_on_c, 3, 51, 50
5, 139204, Note_on_c, 3, 55, 64
5, 139204, Note_on_c, 3, 58, 64
5, 139216, Note_on_c, 3, 63, 64
5, 139228, Note_on_c, 3, 67, 64
5, 139440, Control_c, 3, 7, 78
5, 139464, Note_off_c, 3, 67, 64
5, 139464, Note_off_c, 3, 63, 64
5, 139464, Note_off_c, 3, 58, 64
5, 139464, Note_off_c, 3, 55, 64
5, 139508, Note_on_c, 3, 55, 39
5, 139516, Note_on_c, 3, 58, 39
5, 139528, Note_on_c, 3, 63, 39
5, 139540, Note_on_c, 3, 67, 39
5, 139640, Note_off_c, 3, 51, 64
5, 139644, Note_off_c, 3, 55, 64
5, 139644, Note_off_c, 3, 58, 64
5, 139644, Note_off_c, 3, 63, 64
5, 139644, Note_off_c, 3, 67, 64
5, 139680, Control_c, 3, 7, 76
5, 139684, Note_on_c, 3, 53, 50
5, 139684, Note_on_c, 3, 60, 64
5, 139684, Note_on_c, 3, 65, 64
5, 139696, Note_on_c, 3, 68, 64
5, 139708, Note_on_c, 3, 72, 64
5, 139920, Control_c, 3, 7, 74
5, 139996, Note_off_c, 3, 60, 64
5, 139996, Note_off_c, 3, 53, 64
5, 140004, Note_on_c, 3, 60, 42
5, 140124, Note_off_c, 3, 60, 64
5, 140144, Note_off_c, 3, 65, 64
5, 140144, Note_off_c, 3, 68, 64
5, 140144, Note_off_c, 3, 72, 64
5, 140156, Note_on_c, 3, 51, 46
5, 140160, Control_c, 3, 7, 71
5, 140164, Note_on_c, 3, 55, 55
5, 140172, Note_on_c, 3, 58, 55
5, 140180, Note_on_c, 3, 63, 55
5, 140188, Note_on_c, 3, 67, 55
5, 140400, Control_c, 3, 7, 69
5, 140620, Note_off_c, 3, 67, 64
5, 140620, Note_off_c, 3, 63, 64
5, 140620, Note_off_c, 3, 58, 64
5, 140620, Note_off_c, 3, 55, 64
5, 140620, Note_off_c, 3, 51, 64
5, 140636, Note_on_c, 3, 53, 46
5, 140640, Control_c, 3, 7, 67
5, 140644, Note_on_c, 3, 60, 55
5, 140652, Note_on_c, 3, 65, 55
5, 140660, Note_on_c, 3, 68, 55
5, 140668, Note_on_c, 3, 72, 55
5, 140880, Control_c, 3, 7, 65
5, 141100, Note_off_c, 3, 72, 64
5, 141100, Note_off_c, 3, 68, 64
5, 141100, Note_off_c, 3, 65, 64
5, 141100, Note_off_c, 3, 60, 64
5, 141100, Note_off_c, 3, 53, 64
5, 141120, Control_c, 3, 7, 62
5, 141124, Note_on_c, 3, 51, 50
5, 141124, Note_on_c, 3, 55, 64
5, 141124, Note_on_c, 3, 58, 64
5, 141136, Note_on_c, 3, 63, 64
5, 141148, Note_on_c, 3, 67, 64
5, 141360, Control_c, 3, 7, 60
5, 141436, Note_off_c, 3, 55, 64
5, 141436, Note_off_c, 3, 51, 64
5, 141444, Note_on_c, 3, 55, 42
5, 141564, Note_off_c, 3, 55, 64
5, 141584, Note_off_c, 3, 58, 64
5, 141584, Note_off_c, 3, 63, 64
5, 141584, Note_off_c, 3, 67, 64
5, 141600, Control_c, 3, 7, 58
5, 141604, Note_on_c, 3, 53, 50
5, 141604, Note_on_c, 3, 60, 64
5, 141604, Note_on_c, 3, 65, 64
5, 141616, Note_on_c, 3, 68, 64
5, 141628, Note_on_c, 3, 72, 64
5, 141840, Control_c, 3, 7, 56
5, 141864, Note_off_c, 3, 72, 64
5, 141864, Note_off_c, 3, 68, 64
5, 141864, Note_off_c, 3, 65, 64
5, 141864, Note_off_c, 3, 60, 64
5, 141908, Note_on_c, 3, 60, 39
5, 141916, Note_on_c, 3, 65, 39
5, 141928, Note_on_c, 3, 68, 39
5, 141940, Note_on_c, 3, 72, 39
5, 142040, Note_off_c, 3, 53, 64
5, 142044, Note_off_c, 3, 60, 64
5, 142044, Note_off_c, 3, 65, 64
5, 142044, Note_off_c, 3, 68, 64
5, 142044, Note_off_c, 3, 72, 64
5, 142076, Note_on_c, 3, 51, 46
5, 142080, Control_c, 3, 7, 53
5, 142084, Note_on_c, 3, 58, 55
5, 142092, Note_on_c, 3, 63, 55
5, 142100, Note_on_c, 3, 67, 55
5, 142108, Note_on_c, 3, 70, 55
5, 142320, Control_c, 3, 7, 51
5, 142540, Note_off_c, 3, 70, 64
5, 142540, Note_off_c, 3, 67, 64
5, 142540, Note_off_c, 3, 63, 64
5, 142540, Note_off_c, 3, 58, 64
5, 142540, Note_off_c, 3, 51, 64
5, 142560, Control_c, 3, 7, 49
5, 142564, Note_on_c, 3, 48, 47
5, 142564, Note_on_c, 3, 53, 54
5, 142564, Note_on_c, 3, 60, 64
5, 142572, Note_on_c, 3, 65, 64
5, 142580, Note_on_c, 3, 68, 64
5, 142588, Note_on_c, 3, 72, 64
5, 142800, Control_c, 3, 7, 47
5, 142824, Note_off_c, 3, 72, 64
5, 142824, Note_off_c, 3, 68, 64
5, 142824, Note_off_c, 3, 65, 64
5, 142824, Note_off_c, 3, 60, 64
5, 142824, Note_off_c, 3, 53, 64
5, 142868, Note_on_c, 3, 53, 33
5, 142876, Note_on_c, 3, 60, 39
5, 142884, Note_on_c, 3, 65, 39
5, 142892, Note_on_c, 3, 68, 39
5, 142900, Note_on_c, 3, 72, 39
5, 143000, Note_off_c, 3, 48, 64
5, 143004, Note_off_c, 3, 53, 64
5, 143004, Note_off_c, 3, 60, 64
5, 143004, Note_off_c, 3, 65, 64
5, 143004, Note_off_c, 3, 68, 64
5, 143004, Note_off_c, 3, 72, 64
5, 143040, Control_c, 3, 7, 44
5, 143044, Note_on_c, 3, 46, 47
5, 143044, Note_on_c, 3, 51, 54
5, 143044, Note_on_c, 3, 58, 64
5, 143052, Note_on_c, 3, 63, 64
5, 143060, Note_on_c, 3, 67, 64
5, 143068, Note_on_c, 3, 70, 64
5, 143280, Control_c, 3, 7, 42
5, 143356, Note_off_c, 3, 58, 64
5, 143356, Note_off_c, 3, 46, 64
5, 143364, Note_on_c, 3, 58, 42
5, 143484, Note_off_c, 3, 58, 64
5, 143504, Note_off_c, 3, 51, 64
5, 143504, Note_off_c, 3, 63, 64
5, 143504, Note_off_c, 3, 67, 64
5, 143504, Note_off_c, 3, 70, 64
5, 143516, Note_on_c, 3, 48, 44
5, 143520, Control_c, 3, 7, 40
5, 143524, Note_on_c, 3, 53, 46
5, 143528, Note_on_c, 3, 60, 55
5, 143536, Note_on_c, 3, 65, 55
5, 143544, Note_on_c, 3, 68, 55
5, 143548, Note_on_c, 3, 72, 55
5, 143760, Control_c, 3, 7, 38
5, 143980, Note_off_c, 3, 72, 64
5, 143980, Note_off_c, 3, 68, 64
5, 143980, Note_off_c, 3, 65, 64
5, 143980, Note_off_c, 3, 60, 64
5, 143980, Note_off_c, 3, 53, 64
5, 143980, Note_off_c, 3, 48, 64
5, 143996, Note_on_c, 3, 46, 44
5, 144000, Control_c, 3, 7, 35
5, 144004, Note_on_c, 3, 51, 46
5, 144008, Note_on_c, 3, 58, 55
5, 144016, Note_on_c, 3, 63, 55
5, 144024, Note_on_c, 3, 67, 55
5, 144028, Note_on_c, 3, 70, 55
5, 144240, Control_c, 3, 7, 33
5, 144460, Note_off_c, 3, 70, 64
5, 144460, Note_off_c, 3, 67, 64
5, 144460, Note_off_c, 3, 63, 64
5, 144460, Note_off_c, 3, 58, 64
5, 144460, Note_off_c, 3, 51, 64
5, 144460, Note_off_c, 3, 46, 64
5, 144476, Note_on_c, 3, 53, 46
5, 144480, Control_c, 3, 7, 31
5, 144484, Note_on_c, 3, 60, 55
5, 144492, Note_on_c, 3, 65, 55
5, 144500, Note_on_c, 3, 68, 55
5, 144508, Note_on_c, 3, 72, 55
5, 144720, Control_c, 3, 7, 29
5, 144940, Note_off_c, 3, 72, 64
5, 144940, Note_off_c, 3, 68, 64
5, 144940, Note_off_c, 3, 65, 64
5, 144940, Note_off_c, 3, 60, 64
5, 144940, Note_off_c, 3, 53, 64
5, 144956, Note_on_c, 3, 51, 46
5, 144960, Control_c, 3, 7, 26
5, 144964, Note_on_c, 3, 55, 55
5, 144972, Note_on_c, 3, 58, 55
5, 144980, Note_on_c, 3, 63, 55
5, 144988, Note_on_c, 3, 67, 55
5, 145200, Control_c, 3, 7, 24
5, 145420, Note_off_c, 3, 67, 64
5, 145420, Note_off_c, 3, 63, 64
5, 145420, Note_off_c, 3, 58, 64
5, 145420, Note_off_c, 3, 55, 64
5, 145420, Note_off_c, 3, 51, 64
5, 145436, Note_on_c, 3, 53, 46
5, 145440, Control_c, 3, 7, 22
5, 145444, Note_on_c, 3, 60, 55
5, 145452, Note_on_c, 3, 65, 55
5, 145460, Note_on_c, 3, 68, 55
5, 145468, Note_on_c, 3, 72, 55
5, 145680, Control_c, 3, 7, 20
5, 145900, Note_off_c, 3, 72, 64
5, 145900, Note_off_c, 3, 68, 64
5, 145900, Note_off_c, 3, 65, 64
5, 145900, Note_off_c, 3, 60, 64
5, 145900, Note_off_c, 3, 53, 64
5, 145920, Control_c, 3, 7, 17
5, 145924, Note_on_c, 3, 51, 50
5, 145924, Note_on_c, 3, 55, 64
5, 145924, Note_on_c, 3, 58, 64
5, 145936, Note_on_c, 3, 63, 64
5, 145948, Note_on_c, 3, 67, 64
5, 146160, Control_c, 3, 7, 15
5, 146236, Note_off_c, 3, 55, 64
5, 146236, Note_off_c, 3, 51, 64
5, 146244, Note_on_c, 3, 55, 42
5, 146364, Note_off_c, 3, 55, 64
5, 146384, Note_off_c, 3, 58, 64
5, 146384, Note_off_c, 3, 63, 64
5, 146384, Note_off_c, 3, 67, 64
5, 146400, Control_c, 3, 7, 13
5, 146404, Note_on_c, 3, 53, 50
5, 146404, Note_on_c, 3, 60, 64
5, 146404, Note_on_c, 3, 65, 64
5, 146416, Note_on_c, 3, 68, 64
5, 146428, Note_on_c, 3, 72, 64
5, 146640, Control_c, 3, 7, 11
5, 146664, Note_off_c, 3, 72, 64
5, 146664, Note_off_c, 3, 68, 64
5, 146664, Note_off_c, 3, 65, 64
5, 146664, Note_off_c, 3, 60, 64
5, 146708, Note_on_c, 3, 60, 39
5, 146716, Note_on_c, 3, 65, 39
5, 146728, Note_on_c, 3, 68, 39
5, 146740, Note_on_c, 3, 72, 39
5, 146840, Note_off_c, 3, 53, 64
5, 146844, Note_off_c, 3, 60, 64
5, 146844, Note_off_c, 3, 65, 64
5, 146844, Note_off_c, 3, 68, 64
5, 146844, Note_off_c, 3, 72, 64
5, 146876, Note_on_c, 3, 51, 46
5, 146880, Control_c, 3, 7, 8
5, 146884, Note_on_c, 3, 58, 55
5, 146892, Note_on_c, 3, 63, 55
5, 146900, Note_on_c, 3, 67, 55
5, 146908, Note_on_c, 3, 70, 55
5, 147120, Control_c, 3, 7, 6
5, 147340, Note_off_c, 3, 70, 64
5, 147340, Note_off_c, 3, 67, 64
5, 147340, Note_off_c, 3, 63, 64
5, 147340, Note_off_c, 3, 58, 64
5, 147340, Note_off_c, 3, 51, 64
5, 147360, Control_c, 3, 7, 4
5, 147364, Note_on_c, 3, 53, 50
5, 147364, Note_on_c, 3, 60, 64
5, 147364, Note_on_c, 3, 65, 64
5, 147376, Note_on_c, 3, 68, 64
5, 147388, Note_on_c, 3, 72, 64
5, 147600, Control_c, 3, 7, 2
5, 147676, Note_off_c, 3, 60, 64
5, 147676, Note_off_c, 3, 53, 64
5, 147824, Note_off_c, 3, 65, 64
5, 147824, Note_off_c, 3, 68, 64
5, 147824, Note_off_c, 3, 72, 64
5, 147840, Control_c, 3, 64, 0
5, 147840, End_track
6, 0, Start_track
6, 0, Title_t, "Strings "
6, 0, MIDI_port, 0
6, 0, Channel_prefix, 4
6, 0, Control_c, 4, 7, 127
6, 0, Control_c, 4, 10, 127
6, 0, Control_c, 4, 32, 0
6, 0, Control_c, 4, 91, 99
6, 0, Program_c, 4, 48
6, 0, Control_c, 4, 123, 0
6, 0, Control_c, 4, 64, 0
6, 1920, Note_on_c, 4, 62, 38
6, 1932, Note_on_c, 4, 54, 38
6, 2400, Note_off_c, 4, 54, 64
6, 2400, Note_off_c, 4, 62, 64
6, 2400, Note_on_c, 4, 59, 38
6, 2412, Note_on_c, 4, 52, 38
6, 2880, Note_off_c, 4, 52, 64
6, 2880, Note_off_c, 4, 59, 64
6, 2880, Note_on_c, 4, 62, 38
6, 2892, Note_on_c, 4, 54, 38
6, 3360, Note_off_c, 4, 54, 64
6, 3360, Note_off_c, 4, 62, 64
6, 3360, Note_on_c, 4, 59, 38
6, 3372, Note_on_c, 4, 52, 38
6, 3840, Note_off_c, 4, 52, 64
6, 3840, Note_off_c, 4, 59, 64
6, 3840, Note_on_c, 4, 62, 38
6, 3852, Note_on_c, 4, 54, 38
6, 4320, Note_off_c, 4, 54, 64
6, 4320, Note_off_c, 4, 62, 64
6, 4320, Note_on_c, 4, 59, 38
6, 4332, Note_on_c, 4, 52, 38
6, 4800, Note_off_c, 4, 52, 64
6, 4800, Note_off_c, 4, 59, 64
6, 4800, Note_on_c, 4, 62, 38
6, 4812, Note_on_c, 4, 54, 38
6, 5280, Note_off_c, 4, 54, 64
6, 5280, Note_off_c, 4, 62, 64
6, 5280, Note_on_c, 4, 59, 38
6, 5292, Note_on_c, 4, 52, 38
6, 5760, Note_off_c, 4, 52, 64
6, 5760, Note_off_c, 4, 59, 64
6, 5760, Note_on_c, 4, 62, 38
6, 5772, Note_on_c, 4, 54, 38
6, 6240, Note_off_c, 4, 54, 64
6, 6240, Note_off_c, 4, 62, 64
6, 6240, Note_on_c, 4, 59, 38
6, 6252, Note_on_c, 4, 52, 38
6, 6720, Note_off_c, 4, 52, 64
6, 6720, Note_off_c, 4, 59, 64
6, 6720, Note_on_c, 4, 62, 38
6, 6732, Note_on_c, 4, 54, 38
6, 7200, Note_off_c, 4, 54, 64
6, 7200, Note_off_c, 4, 62, 64
6, 7200, Note_on_c, 4, 59, 38
6, 7212, Note_on_c, 4, 52, 38
6, 7680, Note_off_c, 4, 52, 64
6, 7680, Note_off_c, 4, 59, 64
6, 7680, Note_on_c, 4, 62, 38
6, 7692, Note_on_c, 4, 54, 38
6, 8160, Note_off_c, 4, 54, 64
6, 8160, Note_off_c, 4, 62, 64
6, 8160, Note_on_c, 4, 59, 38
6, 8172, Note_on_c, 4, 52, 38
6, 8640, Note_off_c, 4, 52, 64
6, 8640, Note_off_c, 4, 59, 64
6, 8640, Note_on_c, 4, 62, 38
6, 8652, Note_on_c, 4, 54, 38
6, 9600, Note_off_c, 4, 54, 64
6, 9600, Note_off_c, 4, 62, 64
6, 9600, Note_on_c, 4, 62, 38
6, 9612, Note_on_c, 4, 54, 38
6, 11520, Note_off_c, 4, 54, 64
6, 11520, Note_off_c, 4, 62, 64
6, 11520, Note_on_c, 4, 62, 38
6, 11532, Note_on_c, 4, 55, 38
6, 13440, Note_off_c, 4, 55, 64
6, 13440, Note_off_c, 4, 62, 64
6, 13440, Note_on_c, 4, 62, 38
6, 13452, Note_on_c, 4, 54, 38
6, 17100, Note_off_c, 4, 62, 64
6, 17120, Note_off_c, 4, 54, 64
6, 17280, Note_on_c, 4, 62, 38
6, 17292, Note_on_c, 4, 54, 38
6, 19200, Note_off_c, 4, 54, 64
6, 19200, Note_off_c, 4, 62, 64
6, 19200, Note_on_c, 4, 62, 38
6, 19212, Note_on_c, 4, 55, 38
6, 21120, Note_off_c, 4, 55, 64
6, 21120, Note_off_c, 4, 62, 64
6, 21120, Note_on_c, 4, 62, 38
6, 21132, Note_on_c, 4, 54, 38
6, 24780, Note_off_c, 4, 62, 64
6, 24800, Note_off_c, 4, 54, 64
6, 24960, Note_on_c, 4, 57, 38
6, 24972, Note_on_c, 4, 49, 38
6, 26880, Note_off_c, 4, 49, 64
6, 26880, Note_off_c, 4, 57, 64
6, 26880, Note_on_c, 4, 62, 38
6, 26892, Note_on_c, 4, 55, 38
6, 28800, Note_off_c, 4, 55, 64
6, 28800, Note_off_c, 4, 62, 64
6, 28800, Note_on_c, 4, 57, 38
6, 28812, Note_on_c, 4, 49, 38
6, 30720, Note_off_c, 4, 49, 64
6, 30720, Note_off_c, 4, 57, 64
6, 30720, Note_on_c, 4, 62, 38
6, 30732, Note_on_c, 4, 55, 38
6, 32640, Note_off_c, 4, 55, 64
6, 32640, Note_off_c, 4, 62, 64
6, 32640, Note_on_c, 4, 62, 38
6, 32652, Note_on_c, 4, 54, 38
6, 33120, Note_off_c, 4, 54, 64
6, 33120, Note_off_c, 4, 62, 64
6, 33120, Note_on_c, 4, 59, 38
6, 33132, Note_on_c, 4, 52, 38
6, 33600, Note_off_c, 4, 52, 64
6, 33600, Note_off_c, 4, 59, 64
6, 33600, Note_on_c, 4, 62, 38
6, 33612, Note_on_c, 4, 54, 38
6, 34080, Note_off_c, 4, 54, 64
6, 34080, Note_off_c, 4, 62, 64
6, 34080, Note_on_c, 4, 59, 38
6, 34092, Note_on_c, 4, 52, 38
6, 34560, Note_off_c, 4, 52, 64
6, 34560, Note_off_c, 4, 59, 64
6, 34560, Note_on_c, 4, 62, 38
6, 34572, Note_on_c, 4, 54, 38
6, 35040, Note_off_c, 4, 54, 64
6, 35040, Note_off_c, 4, 62, 64
6, 35040, Note_on_c, 4, 59, 38
6, 35052, Note_on_c, 4, 52, 38
6, 35520, Note_off_c, 4, 52, 64
6, 35520, Note_off_c, 4, 59, 64
6, 35520, Note_on_c, 4, 62, 38
6, 35532, Note_on_c, 4, 54, 38
6, 36000, Note_off_c, 4, 54, 64
6, 36000, Note_off_c, 4, 62, 64
6, 36000, Note_on_c, 4, 59, 38
6, 36012, Note_on_c, 4, 52, 38
6, 36480, Note_off_c, 4, 52, 64
6, 36480, Note_off_c, 4, 59, 64
6, 36480, Note_on_c, 4, 62, 38
6, 36492, Note_on_c, 4, 54, 38
6, 36960, Note_off_c, 4, 54, 64
6, 36960, Note_off_c, 4, 62, 64
6, 36960, Note_on_c, 4, 59, 38
6, 36972, Note_on_c, 4, 52, 38
6, 37440, Note_off_c, 4, 52, 64
6, 37440, Note_off_c, 4, 59, 64
6, 37440, Note_on_c, 4, 62, 38
6, 37452, Note_on_c, 4, 54, 38
6, 37920, Note_off_c, 4, 54, 64
6, 37920, Note_off_c, 4, 62, 64
6, 37920, Note_on_c, 4, 59, 38
6, 37932, Note_on_c, 4, 52, 38
6, 38400, Note_off_c, 4, 52, 64
6, 38400, Note_off_c, 4, 59, 64
6, 38400, Note_on_c, 4, 62, 38
6, 38412, Note_on_c, 4, 54, 38
6, 38880, Note_off_c, 4, 54, 64
6, 38880, Note_off_c, 4, 62, 64
6, 38880, Note_on_c, 4, 59, 38
6, 38892, Note_on_c, 4, 52, 38
6, 39360, Note_off_c, 4, 52, 64
6, 39360, Note_off_c, 4, 59, 64
6, 39360, Note_on_c, 4, 62, 38
6, 39372, Note_on_c, 4, 54, 38
6, 39840, Note_off_c, 4, 54, 64
6, 39840, Note_off_c, 4, 62, 64
6, 39840, Note_on_c, 4, 59, 38
6, 39852, Note_on_c, 4, 52, 38
6, 40320, Note_off_c, 4, 52, 64
6, 40320, Note_off_c, 4, 59, 64
6, 40320, Note_on_c, 4, 62, 38
6, 40332, Note_on_c, 4, 54, 38
6, 42240, Note_off_c, 4, 54, 64
6, 42240, Note_off_c, 4, 62, 64
6, 42240, Note_on_c, 4, 62, 38
6, 42252, Note_on_c, 4, 55, 38
6, 44160, Note_off_c, 4, 55, 64
6, 44160, Note_off_c, 4, 62, 64
6, 44160, Note_on_c, 4, 62, 38
6, 44172, Note_on_c, 4, 54, 38
6, 47820, Note_off_c, 4, 62, 64
6, 47840, Note_off_c, 4, 54, 64
6, 48000, Note_on_c, 4, 62, 38
6, 48012, Note_on_c, 4, 54, 38
6, 49920, Note_off_c, 4, 54, 64
6, 49920, Note_off_c, 4, 62, 64
6, 49920, Note_on_c, 4, 62, 38
6, 49932, Note_on_c, 4, 55, 38
6, 51840, Note_off_c, 4, 55, 64
6, 51840, Note_off_c, 4, 62, 64
6, 51840, Note_on_c, 4, 62, 38
6, 51852, Note_on_c, 4, 54, 38
6, 55500, Note_off_c, 4, 62, 64
6, 55520, Note_off_c, 4, 54, 64
6, 55680, Note_on_c, 4, 57, 38
6, 55692, Note_on_c, 4, 49, 38
6, 57600, Note_off_c, 4, 49, 64
6, 57600, Note_off_c, 4, 57, 64
6, 57600, Note_on_c, 4, 62, 38
6, 57612, Note_on_c, 4, 55, 38
6, 59520, Note_off_c, 4, 55, 64
6, 59520, Note_off_c, 4, 62, 64
6, 59520, Note_on_c, 4, 57, 38
6, 59532, Note_on_c, 4, 49, 38
6, 61440, Note_off_c, 4, 49, 64
6, 61440, Note_off_c, 4, 57, 64
6, 61440, Note_on_c, 4, 62, 38
6, 61452, Note_on_c, 4, 55, 38
6, 63360, Note_off_c, 4, 55, 64
6, 63360, Note_off_c, 4, 62, 64
6, 63360, Note_on_c, 4, 62, 38
6, 63372, Note_on_c, 4, 54, 38
6, 63840, Note_off_c, 4, 54, 64
6, 63840, Note_off_c, 4, 62, 64
6, 63840, Note_on_c, 4, 59, 38
6, 63852, Note_on_c, 4, 52, 38
6, 64320, Note_off_c, 4, 52, 64
6, 64320, Note_off_c, 4, 59, 64
6, 64320, Note_on_c, 4, 62, 38
6, 64332, Note_on_c, 4, 54, 38
6, 64800, Note_off_c, 4, 54, 64
6, 64800, Note_off_c, 4, 62, 64
6, 64800, Note_on_c, 4, 59, 38
6, 64812, Note_on_c, 4, 52, 38
6, 65280, Note_off_c, 4, 52, 64
6, 65280, Note_off_c, 4, 59, 64
6, 65280, Note_on_c, 4, 62, 38
6, 65292, Note_on_c, 4, 54, 38
6, 65760, Note_off_c, 4, 54, 64
6, 65760, Note_off_c, 4, 62, 64
6, 65760, Note_on_c, 4, 59, 38
6, 65772, Note_on_c, 4, 52, 38
6, 66240, Note_off_c, 4, 52, 64
6, 66240, Note_off_c, 4, 59, 64
6, 66240, Note_on_c, 4, 62, 38
6, 66252, Note_on_c, 4, 54, 38
6, 66720, Note_off_c, 4, 54, 64
6, 66720, Note_off_c, 4, 62, 64
6, 66720, Note_on_c, 4, 59, 38
6, 66732, Note_on_c, 4, 52, 38
6, 67200, Note_off_c, 4, 52, 64
6, 67200, Note_off_c, 4, 59, 64
6, 67200, Note_on_c, 4, 62, 38
6, 67212, Note_on_c, 4, 54, 38
6, 67680, Note_off_c, 4, 54, 64
6, 67680, Note_off_c, 4, 62, 64
6, 67680, Note_on_c, 4, 59, 38
6, 67692, Note_on_c, 4, 52, 38
6, 68160, Note_off_c, 4, 52, 64
6, 68160, Note_off_c, 4, 59, 64
6, 68160, Note_on_c, 4, 62, 38
6, 68172, Note_on_c, 4, 54, 38
6, 68640, Note_off_c, 4, 54, 64
6, 68640, Note_off_c, 4, 62, 64
6, 68640, Note_on_c, 4, 59, 38
6, 68652, Note_on_c, 4, 52, 38
6, 69120, Note_off_c, 4, 52, 64
6, 69120, Note_off_c, 4, 59, 64
6, 69120, Note_on_c, 4, 62, 38
6, 69132, Note_on_c, 4, 54, 38
6, 69600, Note_off_c, 4, 54, 64
6, 69600, Note_off_c, 4, 62, 64
6, 69600, Note_on_c, 4, 59, 38
6, 69612, Note_on_c, 4, 52, 38
6, 70080, Note_off_c, 4, 52, 64
6, 70080, Note_off_c, 4, 59, 64
6, 70080, Note_on_c, 4, 62, 38
6, 70092, Note_on_c, 4, 54, 38
6, 70560, Note_off_c, 4, 54, 64
6, 70560, Note_off_c, 4, 62, 64
6, 70560, Note_on_c, 4, 59, 38
6, 70572, Note_on_c, 4, 52, 38
6, 71040, Note_off_c, 4, 52, 64
6, 71040, Note_off_c, 4, 59, 64
6, 71040, Note_on_c, 4, 74, 31
6, 71052, Note_on_c, 4, 71, 32
6, 71052, Note_on_c, 4, 62, 32
6, 74712, Note_off_c, 4, 71, 64
6, 74720, Note_off_c, 4, 62, 64
6, 74860, Note_off_c, 4, 74, 64
6, 74880, Note_on_c, 4, 73, 31
6, 74892, Note_on_c, 4, 69, 32
6, 74892, Note_on_c, 4, 61, 32
6, 78552, Note_off_c, 4, 69, 64
6, 78560, Note_off_c, 4, 61, 64
6, 78700, Note_off_c, 4, 73, 64
6, 78720, Note_on_c, 4, 79, 32
6, 78732, Note_on_c, 4, 74, 32
6, 82388, Note_off_c, 4, 79, 64
6, 82392, Note_off_c, 4, 74, 64
6, 82560, Note_on_c, 4, 73, 31
6, 82572, Note_on_c, 4, 69, 32
6, 82572, Note_on_c, 4, 61, 32
6, 86232, Note_off_c, 4, 69, 64
6, 86240, Note_off_c, 4, 61, 64
6, 86380, Note_off_c, 4, 73, 64
6, 86400, Note_on_c, 4, 78, 31
6, 86412, Note_on_c, 4, 74, 32
6, 86412, Note_on_c, 4, 66, 32
6, 86880, Note_off_c, 4, 66, 64
6, 86880, Note_off_c, 4, 74, 64
6, 86880, Note_off_c, 4, 78, 64
6, 86880, Note_on_c, 4, 76, 32
6, 86892, Note_on_c, 4, 71, 32
6, 87360, Note_off_c, 4, 71, 64
6, 87360, Note_off_c, 4, 76, 64
6, 87360, Note_on_c, 4, 78, 31
6, 87372, Note_on_c, 4, 74, 32
6, 87372, Note_on_c, 4, 66, 32
6, 87840, Note_off_c, 4, 66, 64
6, 87840, Note_off_c, 4, 74, 64
6, 87840, Note_off_c, 4, 78, 64
6, 87840, Note_on_c, 4, 76, 32
6, 87852, Note_on_c, 4, 71, 32
6, 88320, Note_off_c, 4, 71, 64
6, 88320, Note_off_c, 4, 76, 64
6, 88320, Note_on_c, 4, 78, 31
6, 88332, Note_on_c, 4, 74, 32
6, 88332, Note_on_c, 4, 66, 32
6, 88800, Note_off_c, 4, 66, 64
6, 88800, Note_off_c, 4, 74, 64
6, 88800, Note_off_c, 4, 78, 64
6, 88800, Note_on_c, 4, 76, 31
6, 88812, Note_on_c, 4, 71, 32
6, 88812, Note_on_c, 4, 64, 32
6, 89280, Note_off_c, 4, 64, 64
6, 89280, Note_off_c, 4, 71, 64
6, 89280, Note_off_c, 4, 76, 64
6, 89280, Note_on_c, 4, 78, 31
6, 89292, Note_on_c, 4, 74, 32
6, 89292, Note_on_c, 4, 66, 32
6, 89760, Note_off_c, 4, 66, 64
6, 89760, Note_off_c, 4, 74, 64
6, 89760, Note_off_c, 4, 78, 64
6, 89760, Note_on_c, 4, 76, 31
6, 89772, Note_on_c, 4, 71, 32
6, 89772, Note_on_c, 4, 64, 32
6, 90240, Note_off_c, 4, 64, 64
6, 90240, Note_off_c, 4, 71, 64
6, 90240, Note_off_c, 4, 76, 64
6, 90240, Note_on_c, 4, 78, 31
6, 90252, Note_on_c, 4, 74, 32
6, 90252, Note_on_c, 4, 66, 32
6, 90720, Note_off_c, 4, 66, 64
6, 90720, Note_off_c, 4, 74, 64
6, 90720, Note_off_c, 4, 78, 64
6, 90720, Note_on_c, 4, 76, 31
6, 90732, Note_on_c, 4, 71, 32
6, 90732, Note_on_c, 4, 64, 32
6, 91200, Note_off_c, 4, 64, 64
6, 91200, Note_off_c, 4, 71, 64
6, 91200, Note_off_c, 4, 76, 64
6, 91200, Note_on_c, 4, 78, 31
6, 91212, Note_on_c, 4, 74, 32
6, 91212, Note_on_c, 4, 66, 32
6, 91680, Note_off_c, 4, 66, 64
6, 91680, Note_off_c, 4, 74, 64
6, 91680, Note_off_c, 4, 78, 64
6, 91680, Note_on_c, 4, 76, 32
6, 91692, Note_on_c, 4, 71, 32
6, 92160, Note_off_c, 4, 71, 64
6, 92160, Note_off_c, 4, 76, 64
6, 92160, Note_on_c, 4, 78, 31
6, 92172, Note_on_c, 4, 74, 32
6, 92172, Note_on_c, 4, 66, 32
6, 92640, Note_off_c, 4, 66, 64
6, 92640, Note_off_c, 4, 74, 64
6, 92640, Note_off_c, 4, 78, 64
6, 92640, Note_on_c, 4, 76, 32
6, 92652, Note_on_c, 4, 71, 32
6, 93120, Note_off_c, 4, 71, 64
6, 93120, Note_off_c, 4, 76, 64
6, 93120, Note_on_c, 4, 78, 31
6, 93132, Note_on_c, 4, 74, 32
6, 93132, Note_on_c, 4, 66, 32
6, 94080, Note_off_c, 4, 66, 64
6, 94080, Note_off_c, 4, 74, 64
6, 94080, Note_off_c, 4, 78, 64
6, 94080, Note_on_c, 4, 62, 38
6, 94092, Note_on_c, 4, 54, 38
6, 96000, Note_off_c, 4, 54, 64
6, 96000, Note_off_c, 4, 62, 64
6, 96000, Note_on_c, 4, 62, 38
6, 96012, Note_on_c, 4, 55, 38
6, 97920, Note_off_c, 4, 55, 64
6, 97920, Note_off_c, 4, 62, 64
6, 97920, Note_on_c, 4, 62, 38
6, 97932, Note_on_c, 4, 54, 38
6, 101580, Note_off_c, 4, 62, 64
6, 101600, Note_off_c, 4, 54, 64
6, 101760, Note_on_c, 4, 62, 38
6, 101772, Note_on_c, 4, 54, 38
6, 103680, Note_off_c, 4, 54, 64
6, 103680, Note_off_c, 4, 62, 64
6, 103680, Note_on_c, 4, 62, 38
6, 103692, Note_on_c, 4, 55, 38
6, 105600, Note_off_c, 4, 55, 64
6, 105600, Note_off_c, 4, 62, 64
6, 105600, Note_on_c, 4, 62, 38
6, 105612, Note_on_c, 4, 54, 38
6, 109260, Note_off_c, 4, 62, 64
6, 109280, Note_off_c, 4, 54, 64
6, 109440, Note_on_c, 4, 57, 38
6, 109452, Note_on_c, 4, 49, 38
6, 111360, Note_off_c, 4, 49, 64
6, 111360, Note_off_c, 4, 57, 64
6, 111360, Note_on_c, 4, 62, 38
6, 111372, Note_on_c, 4, 55, 38
6, 113280, Note_off_c, 4, 55, 64
6, 113280, Note_off_c, 4, 62, 64
6, 113280, Note_on_c, 4, 57, 38
6, 113292, Note_on_c, 4, 49, 38
6, 115200, Note_off_c, 4, 49, 64
6, 115200, Note_off_c, 4, 57, 64
6, 115200, Note_on_c, 4, 62, 38
6, 115212, Note_on_c, 4, 55, 38
6, 117120, Note_off_c, 4, 55, 64
6, 117120, Note_off_c, 4, 62, 64
6, 117120, Note_on_c, 4, 62, 38
6, 117132, Note_on_c, 4, 54, 38
6, 117600, Note_off_c, 4, 54, 64
6, 117600, Note_off_c, 4, 62, 64
6, 117600, Note_on_c, 4, 59, 38
6, 117612, Note_on_c, 4, 52, 38
6, 118080, Note_off_c, 4, 52, 64
6, 118080, Note_off_c, 4, 59, 64
6, 118080, Note_on_c, 4, 62, 38
6, 118092, Note_on_c, 4, 54, 38
6, 118560, Note_off_c, 4, 54, 64
6, 118560, Note_off_c, 4, 62, 64
6, 118560, Note_on_c, 4, 59, 38
6, 118572, Note_on_c, 4, 52, 38
6, 119040, Note_off_c, 4, 52, 64
6, 119040, Note_off_c, 4, 59, 64
6, 119040, Note_on_c, 4, 62, 38
6, 119052, Note_on_c, 4, 54, 38
6, 119520, Note_off_c, 4, 54, 64
6, 119520, Note_off_c, 4, 62, 64
6, 119520, Note_on_c, 4, 59, 38
6, 119532, Note_on_c, 4, 52, 38
6, 120000, Note_off_c, 4, 52, 64
6, 120000, Note_off_c, 4, 59, 64
6, 120000, Note_on_c, 4, 62, 38
6, 120012, Note_on_c, 4, 54, 38
6, 120480, Note_off_c, 4, 54, 64
6, 120480, Note_off_c, 4, 62, 64
6, 120480, Note_on_c, 4, 59, 38
6, 120492, Note_on_c, 4, 52, 38
6, 120960, Note_off_c, 4, 52, 64
6, 120960, Note_off_c, 4, 59, 64
6, 120960, Note_on_c, 4, 62, 38
6, 120972, Note_on_c, 4, 54, 38
6, 121440, Note_off_c, 4, 54, 64
6, 121440, Note_off_c, 4, 62, 64
6, 121440, Note_on_c, 4, 59, 38
6, 121452, Note_on_c, 4, 52, 38
6, 121920, Note_off_c, 4, 52, 64
6, 121920, Note_off_c, 4, 59, 64
6, 121920, Note_on_c, 4, 62, 38
6, 121932, Note_on_c, 4, 54, 38
6, 122400, Note_off_c, 4, 54, 64
6, 122400, Note_off_c, 4, 62, 64
6, 122400, Note_on_c, 4, 59, 38
6, 122412, Note_on_c, 4, 52, 38
6, 122880, Note_off_c, 4, 52, 64
6, 122880, Note_off_c, 4, 59, 64
6, 122880, Note_on_c, 4, 62, 38
6, 122892, Note_on_c, 4, 54, 38
6, 123360, Note_off_c, 4, 54, 64
6, 123360, Note_off_c, 4, 62, 64
6, 123360, Note_on_c, 4, 59, 38
6, 123372, Note_on_c, 4, 52, 38
6, 123840, Note_off_c, 4, 52, 64
6, 123840, Note_off_c, 4, 59, 64
6, 123840, Note_on_c, 4, 62, 38
6, 123852, Note_on_c, 4, 54, 38
6, 124320, Note_off_c, 4, 54, 64
6, 124320, Note_off_c, 4, 62, 64
6, 124320, Note_on_c, 4, 59, 38
6, 124332, Note_on_c, 4, 52, 38
6, 124800, Note_off_c, 4, 52, 64
6, 124800, Note_off_c, 4, 59, 64
6, 124800, Note_on_c, 4, 58, 38
6, 124812, Note_on_c, 4, 51, 38
6, 125280, Note_off_c, 4, 51, 64
6, 125280, Note_off_c, 4, 58, 64
6, 125280, Note_on_c, 4, 60, 38
6, 125292, Note_on_c, 4, 53, 38
6, 125760, Note_off_c, 4, 53, 64
6, 125760, Note_off_c, 4, 60, 64
6, 125760, Note_on_c, 4, 58, 38
6, 125772, Note_on_c, 4, 51, 38
6, 126240, Note_off_c, 4, 51, 64
6, 126240, Note_off_c, 4, 58, 64
6, 126240, Note_on_c, 4, 60, 38
6, 126252, Note_on_c, 4, 53, 38
6, 126720, Note_off_c, 4, 53, 64
6, 126720, Note_off_c, 4, 60, 64
6, 126720, Note_on_c, 4, 58, 38
6, 126732, Note_on_c, 4, 51, 38
6, 127200, Note_off_c, 4, 51, 64
6, 127200, Note_off_c, 4, 58, 64
6, 127200, Note_on_c, 4, 60, 38
6, 127212, Note_on_c, 4, 53, 38
6, 127680, Note_off_c, 4, 53, 64
6, 127680, Note_off_c, 4, 60, 64
6, 127680, Note_on_c, 4, 58, 38
6, 127692, Note_on_c, 4, 51, 38
6, 128160, Note_off_c, 4, 51, 64
6, 128160, Note_off_c, 4, 58, 64
6, 128160, Note_on_c, 4, 60, 38
6, 128172, Note_on_c, 4, 53, 38
6, 128640, Note_off_c, 4, 53, 64
6, 128640, Note_off_c, 4, 60, 64
6, 128640, Note_on_c, 4, 58, 38
6, 128652, Note_on_c, 4, 51, 38
6, 129120, Note_off_c, 4, 51, 64
6, 129120, Note_off_c, 4, 58, 64
6, 129120, Note_on_c, 4, 60, 38
6, 129132, Note_on_c, 4, 53, 38
6, 129600, Note_off_c, 4, 53, 64
6, 129600, Note_off_c, 4, 60, 64
6, 129600, Note_on_c, 4, 58, 38
6, 129612, Note_on_c, 4, 51, 38
6, 130080, Note_off_c, 4, 51, 64
6, 130080, Note_off_c, 4, 58, 64
6, 130080, Note_on_c, 4, 60, 38
6, 130092, Note_on_c, 4, 53, 38
6, 130560, Note_off_c, 4, 53, 64
6, 130560, Note_off_c, 4, 60, 64
6, 130560, Note_on_c, 4, 58, 38
6, 130572, Note_on_c, 4, 51, 38
6, 131040, Note_off_c, 4, 51, 64
6, 131040, Note_off_c, 4, 58, 64
6, 131040, Note_on_c, 4, 60, 38
6, 131052, Note_on_c, 4, 53, 38
6, 131520, Note_off_c, 4, 53, 64
6, 131520, Note_off_c, 4, 60, 64
6, 131520, Note_on_c, 4, 58, 38
6, 131532, Note_on_c, 4, 51, 38
6, 132000, Note_off_c, 4, 51, 64
6, 132000, Note_off_c, 4, 58, 64
6, 132000, Note_on_c, 4, 60, 38
6, 132012, Note_on_c, 4, 53, 38
6, 132480, Note_off_c, 4, 53, 64
6, 132480, Note_off_c, 4, 60, 64
6, 132480, Note_on_c, 4, 58, 38
6, 132492, Note_on_c, 4, 51, 38
6, 132960, Note_off_c, 4, 51, 64
6, 132960, Note_off_c, 4, 58, 64
6, 132960, Note_on_c, 4, 60, 38
6, 132972, Note_on_c, 4, 53, 38
6, 133440, Note_off_c, 4, 53, 64
6, 133440, Note_off_c, 4, 60, 64
6, 133440, Note_on_c, 4, 58, 38
6, 133452, Note_on_c, 4, 51, 38
6, 133920, Note_off_c, 4, 51, 64
6, 133920, Note_off_c, 4, 58, 64
6, 133920, Note_on_c, 4, 60, 38
6, 133932, Note_on_c, 4, 53, 38
6, 134400, Note_off_c, 4, 53, 64
6, 134400, Note_off_c, 4, 60, 64
6, 134400, Note_on_c, 4, 58, 38
6, 134412, Note_on_c, 4, 51, 38
6, 134880, Note_off_c, 4, 51, 64
6, 134880, Note_off_c, 4, 58, 64
6, 134880, Note_on_c, 4, 60, 38
6, 134892, Note_on_c, 4, 53, 38
6, 135360, Note_off_c, 4, 53, 64
6, 135360, Note_off_c, 4, 60, 64
6, 135360, Note_on_c, 4, 58, 38
6, 135372, Note_on_c, 4, 51, 38
6, 135840, Note_off_c, 4, 51, 64
6, 135840, Note_off_c, 4, 58, 64
6, 135840, Note_on_c, 4, 60, 38
6, 135852, Note_on_c, 4, 53, 38
6, 136320, Note_off_c, 4, 53, 64
6, 136320, Note_off_c, 4, 60, 64
6, 136320, Note_on_c, 4, 58, 38
6, 136320, Control_c, 4, 7, 108
6, 136332, Note_on_c, 4, 51, 38
6, 136560, Control_c, 4, 7, 105
6, 136800, Note_off_c, 4, 51, 64
6, 136800, Note_off_c, 4, 58, 64
6, 136800, Note_on_c, 4, 60, 38
6, 136800, Control_c, 4, 7, 103
6, 136812, Note_on_c, 4, 53, 38
6, 137040, Control_c, 4, 7, 101
6, 137280, Note_off_c, 4, 53, 64
6, 137280, Note_off_c, 4, 60, 64
6, 137280, Note_on_c, 4, 58, 38
6, 137280, Control_c, 4, 7, 98
6, 137292, Note_on_c, 4, 51, 38
6, 137520, Control_c, 4, 7, 96
6, 137760, Note_off_c, 4, 51, 64
6, 137760, Note_off_c, 4, 58, 64
6, 137760, Note_on_c, 4, 60, 38
6, 137760, Control_c, 4, 7, 94
6, 137772, Note_on_c, 4, 53, 38
6, 138000, Control_c, 4, 7, 92
6, 138240, Note_off_c, 4, 53, 64
6, 138240, Note_off_c, 4, 60, 64
6, 138240, Note_on_c, 4, 58, 38
6, 138240, Control_c, 4, 7, 89
6, 138252, Note_on_c, 4, 51, 38
6, 138480, Control_c, 4, 7, 87
6, 138720, Note_off_c, 4, 51, 64
6, 138720, Note_off_c, 4, 58, 64
6, 138720, Note_on_c, 4, 60, 38
6, 138720, Control_c, 4, 7, 85
6, 138732, Note_on_c, 4, 53, 38
6, 138960, Control_c, 4, 7, 83
6, 139200, Note_off_c, 4, 53, 64
6, 139200, Note_off_c, 4, 60, 64
6, 139200, Note_on_c, 4, 58, 38
6, 139200, Control_c, 4, 7, 80
6, 139212, Note_on_c, 4, 51, 38
6, 139440, Control_c, 4, 7, 78
6, 139680, Note_off_c, 4, 51, 64
6, 139680, Note_off_c, 4, 58, 64
6, 139680, Note_on_c, 4, 60, 38
6, 139680, Control_c, 4, 7, 76
6, 139692, Note_on_c, 4, 53, 38
6, 139920, Control_c, 4, 7, 74
6, 140160, Note_off_c, 4, 53, 64
6, 140160, Note_off_c, 4, 60, 64
6, 140160, Note_on_c, 4, 58, 38
6, 140160, Control_c, 4, 7, 71
6, 140172, Note_on_c, 4, 51, 38
6, 140400, Control_c, 4, 7, 69
6, 140640, Note_off_c, 4, 51, 64
6, 140640, Note_off_c, 4, 58, 64
6, 140640, Note_on_c, 4, 60, 38
6, 140640, Control_c, 4, 7, 67
6, 140652, Note_on_c, 4, 53, 38
6, 140880, Control_c, 4, 7, 65
6, 141120, Note_off_c, 4, 53, 64
6, 141120, Note_off_c, 4, 60, 64
6, 141120, Note_on_c, 4, 58, 38
6, 141120, Control_c, 4, 7, 62
6, 141132, Note_on_c, 4, 51, 38
6, 141360, Control_c, 4, 7, 60
6, 141600, Note_off_c, 4, 51, 64
6, 141600, Note_off_c, 4, 58, 64
6, 141600, Note_on_c, 4, 60, 38
6, 141600, Control_c, 4, 7, 58
6, 141612, Note_on_c, 4, 53, 38
6, 141840, Control_c, 4, 7, 56
6, 142080, Note_off_c, 4, 53, 64
6, 142080, Note_off_c, 4, 60, 64
6, 142080, Note_on_c, 4, 58, 38
6, 142080, Control_c, 4, 7, 53
6, 142092, Note_on_c, 4, 51, 38
6, 142320, Control_c, 4, 7, 51
6, 142560, Note_off_c, 4, 51, 64
6, 142560, Note_off_c, 4, 58, 64
6, 142560, Note_on_c, 4, 60, 38
6, 142560, Control_c, 4, 7, 49
6, 142572, Note_on_c, 4, 53, 38
6, 142800, Control_c, 4, 7, 47
6, 143040, Note_off_c, 4, 53, 64
6, 143040, Note_off_c, 4, 60, 64
6, 143040, Note_on_c, 4, 58, 38
6, 143040, Control_c, 4, 7, 44
6, 143052, Note_on_c, 4, 51, 38
6, 143280, Control_c, 4, 7, 42
6, 143520, Note_off_c, 4, 51, 64
6, 143520, Note_off_c, 4, 58, 64
6, 143520, Note_on_c, 4, 60, 38
6, 143520, Control_c, 4, 7, 40
6, 143532, Note_on_c, 4, 53, 38
6, 143760, Control_c, 4, 7, 38
6, 144000, Note_off_c, 4, 53, 64
6, 144000, Note_off_c, 4, 60, 64
6, 144000, Note_on_c, 4, 58, 38
6, 144000, Control_c, 4, 7, 35
6, 144012, Note_on_c, 4, 51, 38
6, 144240, Control_c, 4, 7, 33
6, 144480, Note_off_c, 4, 51, 64
6, 144480, Note_off_c, 4, 58, 64
6, 144480, Note_on_c, 4, 60, 38
6, 144480, Control_c, 4, 7, 31
6, 144492, Note_on_c, 4, 53, 38
6, 144720, Control_c, 4, 7, 29
6, 144960, Note_off_c, 4, 53, 64
6, 144960, Note_off_c, 4, 60, 64
6, 144960, Note_on_c, 4, 58, 38
6, 144960, Control_c, 4, 7, 26
6, 144972, Note_on_c, 4, 51, 38
6, 145200, Control_c, 4, 7, 24
6, 145440, Note_off_c, 4, 51, 64
6, 145440, Note_off_c, 4, 58, 64
6, 145440, Note_on_c, 4, 60, 38
6, 145440, Control_c, 4, 7, 22
6, 145452, Note_on_c, 4, 53, 38
6, 145680, Control_c, 4, 7, 20
6, 145920, Note_off_c, 4, 53, 64
6, 145920, Note_off_c, 4, 60, 64
6, 145920, Note_on_c, 4, 58, 38
6, 145920, Control_c, 4, 7, 17
6, 145932, Note_on_c, 4, 51, 38
6, 146160, Control_c, 4, 7, 15
6, 146400, Note_off_c, 4, 51, 64
6, 146400, Note_off_c, 4, 58, 64
6, 146400, Note_on_c, 4, 60, 38
6, 146400, Control_c, 4, 7, 13
6, 146412, Note_on_c, 4, 53, 38
6, 146640, Control_c, 4, 7, 11
6, 146880, Note_off_c, 4, 53, 64
6, 146880, Note_off_c, 4, 60, 64
6, 146880, Note_on_c, 4, 58, 38
6, 146880, Control_c, 4, 7, 8
6, 146892, Note_on_c, 4, 51, 38
6, 147120, Control_c, 4, 7, 6
6, 147360, Note_off_c, 4, 51, 64
6, 147360, Note_off_c, 4, 58, 64
6, 147360, Note_on_c, 4, 60, 38
6, 147360, Control_c, 4, 7, 4
6, 147372, Note_on_c, 4, 53, 38
6, 147600, Control_c, 4, 7, 2
6, 147840, Note_off_c, 4, 53, 64
6, 147840, Note_off_c, 4, 60, 64
6, 147840, Control_c, 4, 64, 0
6, 147840, End_track
7, 0, Start_track
7, 0, Title_t, "Bass    "
7, 0, MIDI_port, 0
7, 0, Channel_prefix, 5
7, 0, Control_c, 5, 7, 109
7, 0, Control_c, 5, 10, 0
7, 0, Control_c, 5, 32, 0
7, 0, Control_c, 5, 91, 99
7, 0, Program_c, 5, 32
7, 0, Control_c, 5, 123, 0
7, 1920, Note_on_c, 5, 38, 103
7, 2304, Note_off_c, 5, 38, 64
7, 2400, Note_on_c, 5, 40, 96
7, 2784, Note_off_c, 5, 40, 64
7, 2880, Note_on_c, 5, 38, 78
7, 3264, Note_off_c, 5, 38, 64
7, 3360, Note_on_c, 5, 40, 83
7, 3744, Note_off_c, 5, 40, 64
7, 3840, Note_on_c, 5, 38, 89
7, 4224, Note_off_c, 5, 38, 64
7, 4320, Note_on_c, 5, 40, 104
7, 4704, Note_off_c, 5, 40, 64
7, 4800, Note_on_c, 5, 38, 94
7, 5184, Note_off_c, 5, 38, 64
7, 5280, Note_on_c, 5, 40, 98
7, 5664, Note_off_c, 5, 40, 64
7, 5760, Note_on_c, 5, 38, 85
7, 6144, Note_off_c, 5, 38, 64
7, 6240, Note_on_c, 5, 40, 88
7, 6624, Note_off_c, 5, 40, 64
7, 6720, Note_on_c, 5, 38, 100
7, 7104, Note_off_c, 5, 38, 64
7, 7200, Note_on_c, 5, 40, 80
7, 7584, Note_off_c, 5, 40, 64
7, 7680, Note_on_c, 5, 38, 89
7, 8064, Note_off_c, 5, 38, 64
7, 8160, Note_on_c, 5, 40, 93
7, 8544, Note_off_c, 5, 40, 64
7, 8640, Note_on_c, 5, 38, 102
7, 8896, Note_off_c, 5, 38, 64
7, 8960, Note_on_c, 5, 45, 93
7, 9088, Note_off_c, 5, 45, 64
7, 9120, Note_on_c, 5, 47, 92
7, 9376, Note_off_c, 5, 47, 64
7, 9440, Note_on_c, 5, 49, 91
7, 9568, Note_off_c, 5, 49, 64
7, 9600, Note_on_c, 5, 50, 89
7, 9984, Note_off_c, 5, 50, 64
7, 10080, Note_on_c, 5, 47, 100
7, 10464, Note_off_c, 5, 47, 64
7, 10560, Note_on_c, 5, 45, 103
7, 10944, Note_off_c, 5, 45, 64
7, 11040, Note_on_c, 5, 42, 99
7, 11424, Note_off_c, 5, 42, 64
7, 11520, Note_on_c, 5, 43, 104
7, 11904, Note_off_c, 5, 43, 64
7, 12000, Note_on_c, 5, 52, 98
7, 12384, Note_off_c, 5, 52, 64
7, 12480, Note_on_c, 5, 50, 95
7, 12864, Note_off_c, 5, 50, 64
7, 12960, Note_on_c, 5, 47, 93
7, 13344, Note_off_c, 5, 47, 64
7, 13440, Note_on_c, 5, 38, 96
7, 13824, Note_off_c, 5, 38, 64
7, 13920, Note_on_c, 5, 47, 103
7, 14304, Note_off_c, 5, 47, 64
7, 14400, Note_on_c, 5, 45, 88
7, 14784, Note_off_c, 5, 45, 64
7, 14880, Note_on_c, 5, 42, 100
7, 15264, Note_off_c, 5, 42, 64
7, 15360, Note_on_c, 5, 38, 91
7, 15744, Note_off_c, 5, 38, 64
7, 15840, Note_on_c, 5, 47, 95
7, 16224, Note_off_c, 5, 47, 64
7, 16320, Note_on_c, 5, 45, 97
7, 16704, Note_off_c, 5, 45, 64
7, 16800, Note_on_c, 5, 42, 88
7, 17184, Note_off_c, 5, 42, 64
7, 17280, Note_on_c, 5, 38, 88
7, 17664, Note_off_c, 5, 38, 64
7, 17760, Note_on_c, 5, 47, 100
7, 18144, Note_off_c, 5, 47, 64
7, 18240, Note_on_c, 5, 45, 93
7, 18624, Note_off_c, 5, 45, 64
7, 18720, Note_on_c, 5, 42, 89
7, 19104, Note_off_c, 5, 42, 64
7, 19200, Note_on_c, 5, 43, 85
7, 19584, Note_off_c, 5, 43, 64
7, 19680, Note_on_c, 5, 52, 90
7, 20064, Note_off_c, 5, 52, 64
7, 20160, Note_on_c, 5, 50, 97
7, 20544, Note_off_c, 5, 50, 64
7, 20640, Note_on_c, 5, 47, 92
7, 21024, Note_off_c, 5, 47, 64
7, 21120, Note_on_c, 5, 38, 97
7, 21504, Note_off_c, 5, 38, 64
7, 21600, Note_on_c, 5, 47, 104
7, 21984, Note_off_c, 5, 47, 64
7, 22080, Note_on_c, 5, 45, 81
7, 22464, Note_off_c, 5, 45, 64
7, 22560, Note_on_c, 5, 42, 82
7, 22944, Note_off_c, 5, 42, 64
7, 23040, Note_on_c, 5, 38, 100
7, 23424, Note_off_c, 5, 38, 64
7, 23520, Note_on_c, 5, 47, 102
7, 23904, Note_off_c, 5, 47, 64
7, 24000, Note_on_c, 5, 45, 104
7, 24384, Note_off_c, 5, 45, 64
7, 24480, Note_on_c, 5, 42, 95
7, 24864, Note_off_c, 5, 42, 64
7, 24960, Note_on_c, 5, 45, 98
7, 25344, Note_off_c, 5, 45, 64
7, 25440, Note_on_c, 5, 54, 104
7, 25824, Note_off_c, 5, 54, 64
7, 25920, Note_on_c, 5, 52, 102
7, 26304, Note_off_c, 5, 52, 64
7, 26400, Note_on_c, 5, 49, 92
7, 26784, Note_off_c, 5, 49, 64
7, 26880, Note_on_c, 5, 43, 100
7, 27264, Note_off_c, 5, 43, 64
7, 27360, Note_on_c, 5, 52, 84
7, 27744, Note_off_c, 5, 52, 64
7, 27840, Note_on_c, 5, 50, 98
7, 28224, Note_off_c, 5, 50, 64
7, 28320, Note_on_c, 5, 47, 102
7, 28704, Note_off_c, 5, 47, 64
7, 28800, Note_on_c, 5, 45, 82
7, 29184, Note_off_c, 5, 45, 64
7, 29280, Note_on_c, 5, 54, 100
7, 29664, Note_off_c, 5, 54, 64
7, 29760, Note_on_c, 5, 52, 91
7, 30144, Note_off_c, 5, 52, 64
7, 30240, Note_on_c, 5, 49, 86
7, 30624, Note_off_c, 5, 49, 64
7, 30720, Note_on_c, 5, 43, 102
7, 31104, Note_off_c, 5, 43, 64
7, 31200, Note_on_c, 5, 52, 101
7, 31584, Note_off_c, 5, 52, 64
7, 31680, Note_on_c, 5, 50, 92
7, 32064, Note_off_c, 5, 50, 64
7, 32160, Note_on_c, 5, 47, 96
7, 32544, Note_off_c, 5, 47, 64
7, 32640, Note_on_c, 5, 38, 82
7, 33024, Note_off_c, 5, 38, 64
7, 33120, Note_on_c, 5, 47, 95
7, 33504, Note_off_c, 5, 47, 64
7, 33600, Note_on_c, 5, 45, 93
7, 33984, Note_off_c, 5, 45, 64
7, 34080, Note_on_c, 5, 42, 91
7, 34464, Note_off_c, 5, 42, 64
7, 34560, Note_on_c, 5, 38, 93
7, 34944, Note_off_c, 5, 38, 64
7, 35040, Note_on_c, 5, 47, 76
7, 35424, Note_off_c, 5, 47, 64
7, 35520, Note_on_c, 5, 45, 87
7, 35904, Note_off_c, 5, 45, 64
7, 36000, Note_on_c, 5, 42, 97
7, 36384, Note_off_c, 5, 42, 64
7, 36480, Note_on_c, 5, 38, 96
7, 36864, Note_off_c, 5, 38, 64
7, 36960, Note_on_c, 5, 47, 104
7, 37344, Note_off_c, 5, 47, 64
7, 37440, Note_on_c, 5, 45, 95
7, 37824, Note_off_c, 5, 45, 64
7, 37920, Note_on_c, 5, 42, 82
7, 38304, Note_off_c, 5, 42, 64
7, 38400, Note_on_c, 5, 38, 102
7, 38784, Note_off_c, 5, 38, 64
7, 38880, Note_on_c, 5, 47, 104
7, 39264, Note_off_c, 5, 47, 64
7, 39360, Note_on_c, 5, 45, 83
7, 39744, Note_off_c, 5, 45, 64
7, 39840, Note_on_c, 5, 42, 81
7, 40224, Note_off_c, 5, 42, 64
7, 40320, Note_on_c, 5, 50, 102
7, 40704, Note_off_c, 5, 50, 64
7, 40800, Note_on_c, 5, 47, 97
7, 41184, Note_off_c, 5, 47, 64
7, 41280, Note_on_c, 5, 45, 101
7, 41664, Note_off_c, 5, 45, 64
7, 41760, Note_on_c, 5, 42, 87
7, 42144, Note_off_c, 5, 42, 64
7, 42240, Note_on_c, 5, 43, 95
7, 42624, Note_off_c, 5, 43, 64
7, 42720, Note_on_c, 5, 52, 90
7, 43104, Note_off_c, 5, 52, 64
7, 43200, Note_on_c, 5, 50, 99
7, 43584, Note_off_c, 5, 50, 64
7, 43680, Note_on_c, 5, 47, 100
7, 44064, Note_off_c, 5, 47, 64
7, 44160, Note_on_c, 5, 38, 97
7, 44544, Note_off_c, 5, 38, 64
7, 44640, Note_on_c, 5, 47, 103
7, 45024, Note_off_c, 5, 47, 64
7, 45120, Note_on_c, 5, 45, 101
7, 45504, Note_off_c, 5, 45, 64
7, 45600, Note_on_c, 5, 42, 85
7, 45984, Note_off_c, 5, 42, 64
7, 46080, Note_on_c, 5, 38, 102
7, 46464, Note_off_c, 5, 38, 64
7, 46560, Note_on_c, 5, 47, 87
7, 46944, Note_off_c, 5, 47, 64
7, 47040, Note_on_c, 5, 45, 100
7, 47424, Note_off_c, 5, 45, 64
7, 47520, Note_on_c, 5, 42, 92
7, 47904, Note_off_c, 5, 42, 64
7, 48000, Note_on_c, 5, 38, 90
7, 48384, Note_off_c, 5, 38, 64
7, 48480, Note_on_c, 5, 47, 103
7, 48864, Note_off_c, 5, 47, 64
7, 48960, Note_on_c, 5, 45, 87
7, 49344, Note_off_c, 5, 45, 64
7, 49440, Note_on_c, 5, 42, 102
7, 49824, Note_off_c, 5, 42, 64
7, 49920, Note_on_c, 5, 43, 88
7, 50304, Note_off_c, 5, 43, 64
7, 50400, Note_on_c, 5, 52, 101
7, 50784, Note_off_c, 5, 52, 64
7, 50880, Note_on_c, 5, 50, 101
7, 51264, Note_off_c, 5, 50, 64
7, 51360, Note_on_c, 5, 47, 93
7, 51744, Note_off_c, 5, 47, 64
7, 51840, Note_on_c, 5, 38, 99
7, 52224, Note_off_c, 5, 38, 64
7, 52320, Note_on_c, 5, 47, 94
7, 52704, Note_off_c, 5, 47, 64
7, 52800, Note_on_c, 5, 45, 99
7, 53184, Note_off_c, 5, 45, 64
7, 53280, Note_on_c, 5, 42, 90
7, 53664, Note_off_c, 5, 42, 64
7, 53760, Note_on_c, 5, 38, 98
7, 54144, Note_off_c, 5, 38, 64
7, 54240, Note_on_c, 5, 47, 91
7, 54624, Note_off_c, 5, 47, 64
7, 54720, Note_on_c, 5, 45, 100
7, 55104, Note_off_c, 5, 45, 64
7, 55200, Note_on_c, 5, 42, 103
7, 55584, Note_off_c, 5, 42, 64
7, 55680, Note_on_c, 5, 45, 83
7, 56064, Note_off_c, 5, 45, 64
7, 56160, Note_on_c, 5, 54, 84
7, 56544, Note_off_c, 5, 54, 64
7, 56640, Note_on_c, 5, 52, 98
7, 57024, Note_off_c, 5, 52, 64
7, 57120, Note_on_c, 5, 49, 99
7, 57504, Note_off_c, 5, 49, 64
7, 57600, Note_on_c, 5, 43, 101
7, 57984, Note_off_c, 5, 43, 64
7, 58080, Note_on_c, 5, 52, 94
7, 58464, Note_off_c, 5, 52, 64
7, 58560, Note_on_c, 5, 50, 98
7, 58944, Note_off_c, 5, 50, 64
7, 59040, Note_on_c, 5, 47, 95
7, 59424, Note_off_c, 5, 47, 64
7, 59520, Note_on_c, 5, 45, 103
7, 59904, Note_off_c, 5, 45, 64
7, 60000, Note_on_c, 5, 54, 100
7, 60384, Note_off_c, 5, 54, 64
7, 60480, Note_on_c, 5, 52, 104
7, 60864, Note_off_c, 5, 52, 64
7, 60960, Note_on_c, 5, 49, 101
7, 61344, Note_off_c, 5, 49, 64
7, 61440, Note_on_c, 5, 43, 103
7, 61824, Note_off_c, 5, 43, 64
7, 61920, Note_on_c, 5, 52, 102
7, 62304, Note_off_c, 5, 52, 64
7, 62400, Note_on_c, 5, 50, 101
7, 62784, Note_off_c, 5, 50, 64
7, 62880, Note_on_c, 5, 47, 85
7, 63264, Note_off_c, 5, 47, 64
7, 63360, Note_on_c, 5, 38, 102
7, 63744, Note_off_c, 5, 38, 64
7, 63840, Note_on_c, 5, 47, 98
7, 64224, Note_off_c, 5, 47, 64
7, 64320, Note_on_c, 5, 45, 89
7, 64704, Note_off_c, 5, 45, 64
7, 64800, Note_on_c, 5, 42, 91
7, 65184, Note_off_c, 5, 42, 64
7, 65280, Note_on_c, 5, 38, 90
7, 65664, Note_off_c, 5, 38, 64
7, 65760, Note_on_c, 5, 47, 98
7, 66144, Note_off_c, 5, 47, 64
7, 66240, Note_on_c, 5, 45, 87
7, 66624, Note_off_c, 5, 45, 64
7, 66720, Note_on_c, 5, 42, 90
7, 67104, Note_off_c, 5, 42, 64
7, 67200, Note_on_c, 5, 38, 98
7, 67584, Note_off_c, 5, 38, 64
7, 67680, Note_on_c, 5, 47, 102
7, 68064, Note_off_c, 5, 47, 64
7, 68160, Note_on_c, 5, 45, 85
7, 68544, Note_off_c, 5, 45, 64
7, 68640, Note_on_c, 5, 42, 99
7, 69024, Note_off_c, 5, 42, 64
7, 69120, Note_on_c, 5, 38, 84
7, 69504, Note_off_c, 5, 38, 64
7, 69600, Note_on_c, 5, 47, 99
7, 69984, Note_off_c, 5, 47, 64
7, 70080, Note_on_c, 5, 45, 96
7, 70464, Note_off_c, 5, 45, 64
7, 70560, Note_on_c, 5, 42, 89
7, 70944, Note_off_c, 5, 42, 64
7, 71040, Note_on_c, 5, 47, 100
7, 71296, Note_off_c, 5, 47, 64
7, 71360, Note_on_c, 5, 47, 98
7, 71488, Note_off_c, 5, 47, 64
7, 71520, Note_on_c, 5, 45, 99
7, 71776, Note_off_c, 5, 45, 64
7, 71840, Note_on_c, 5, 45, 89
7, 71968, Note_off_c, 5, 45, 64
7, 72000, Note_on_c, 5, 42, 103
7, 72256, Note_off_c, 5, 42, 64
7, 72320, Note_on_c, 5, 42, 96
7, 72448, Note_off_c, 5, 42, 64
7, 72480, Note_on_c, 5, 40, 98
7, 72736, Note_off_c, 5, 40, 64
7, 72800, Note_on_c, 5, 38, 96
7, 72928, Note_off_c, 5, 38, 64
7, 72960, Note_on_c, 5, 35, 103
7, 73216, Note_off_c, 5, 35, 64
7, 73280, Note_on_c, 5, 35, 88
7, 73408, Note_off_c, 5, 35, 64
7, 73440, Note_on_c, 5, 45, 101
7, 73696, Note_off_c, 5, 45, 64
7, 73760, Note_on_c, 5, 45, 94
7, 73888, Note_off_c, 5, 45, 64
7, 73920, Note_on_c, 5, 42, 100
7, 74176, Note_off_c, 5, 42, 64
7, 74240, Note_on_c, 5, 42, 93
7, 74368, Note_off_c, 5, 42, 64
7, 74400, Note_on_c, 5, 40, 98
7, 74656, Note_off_c, 5, 40, 64
7, 74720, Note_on_c, 5, 38, 98
7, 74848, Note_off_c, 5, 38, 64
7, 74880, Note_on_c, 5, 45, 98
7, 75136, Note_off_c, 5, 45, 64
7, 75200, Note_on_c, 5, 45, 94
7, 75328, Note_off_c, 5, 45, 64
7, 75360, Note_on_c, 5, 42, 87
7, 75616, Note_off_c, 5, 42, 64
7, 75680, Note_on_c, 5, 42, 92
7, 75808, Note_off_c, 5, 42, 64
7, 75840, Note_on_c, 5, 40, 104
7, 76096, Note_off_c, 5, 40, 64
7, 76160, Note_on_c, 5, 40, 92
7, 76288, Note_off_c, 5, 40, 64
7, 76320, Note_on_c, 5, 37, 95
7, 76576, Note_off_c, 5, 37, 64
7, 76640, Note_on_c, 5, 37, 82
7, 76768, Note_off_c, 5, 37, 64
7, 76800, Note_on_c, 5, 45, 94
7, 77056, Note_off_c, 5, 45, 64
7, 77120, Note_on_c, 5, 45, 95
7, 77248, Note_off_c, 5, 45, 64
7, 77280, Note_on_c, 5, 42, 92
7, 77536, Note_off_c, 5, 42, 64
7, 77600, Note_on_c, 5, 42, 100
7, 77728, Note_off_c, 5, 42, 64
7, 77760, Note_on_c, 5, 40, 101
7, 78016, Note_off_c, 5, 40, 64
7, 78080, Note_on_c, 5, 40, 101
7, 78208, Note_off_c, 5, 40, 64
7, 78240, Note_on_c, 5, 37, 86
7, 78496, Note_off_c, 5, 37, 64
7, 78560, Note_on_c, 5, 37, 103
7, 78688, Note_off_c, 5, 37, 64
7, 78720, Note_on_c, 5, 43, 103
7, 78976, Note_off_c, 5, 43, 64
7, 79040, Note_on_c, 5, 43, 88
7, 79168, Note_off_c, 5, 43, 64
7, 79200, Note_on_c, 5, 52, 99
7, 79456, Note_off_c, 5, 52, 64
7, 79520, Note_on_c, 5, 52, 95
7, 79648, Note_off_c, 5, 52, 64
7, 79680, Note_on_c, 5, 50, 97
7, 79936, Note_off_c, 5, 50, 64
7, 80000, Note_on_c, 5, 50, 100
7, 80128, Note_off_c, 5, 50, 64
7, 80160, Note_on_c, 5, 47, 98
7, 80416, Note_off_c, 5, 47, 64
7, 80480, Note_on_c, 5, 47, 101
7, 80608, Note_off_c, 5, 47, 64
7, 80640, Note_on_c, 5, 43, 104
7, 80896, Note_off_c, 5, 43, 64
7, 80960, Note_on_c, 5, 43, 94
7, 81088, Note_off_c, 5, 43, 64
7, 81120, Note_on_c, 5, 52, 92
7, 81376, Note_off_c, 5, 52, 64
7, 81440, Note_on_c, 5, 52, 99
7, 81568, Note_off_c, 5, 52, 64
7, 81600, Note_on_c, 5, 50, 98
7, 81856, Note_off_c, 5, 50, 64
7, 81920, Note_on_c, 5, 50, 80
7, 82048, Note_off_c, 5, 50, 64
7, 82080, Note_on_c, 5, 47, 93
7, 82336, Note_off_c, 5, 47, 64
7, 82400, Note_on_c, 5, 47, 95
7, 82528, Note_off_c, 5, 47, 64
7, 82560, Note_on_c, 5, 45, 97
7, 82944, Note_off_c, 5, 45, 64
7, 83040, Note_on_c, 5, 54, 87
7, 83424, Note_off_c, 5, 54, 64
7, 83520, Note_on_c, 5, 52, 100
7, 83904, Note_off_c, 5, 52, 64
7, 84000, Note_on_c, 5, 49, 101
7, 84384, Note_off_c, 5, 49, 64
7, 84480, Note_on_c, 5, 45, 96
7, 84864, Note_off_c, 5, 45, 64
7, 84960, Note_on_c, 5, 54, 94
7, 85344, Note_off_c, 5, 54, 64
7, 85440, Note_on_c, 5, 52, 86
7, 85824, Note_off_c, 5, 52, 64
7, 85920, Note_on_c, 5, 45, 95
7, 86304, Note_off_c, 5, 45, 64
7, 86400, Note_on_c, 5, 38, 100
7, 86784, Note_off_c, 5, 38, 64
7, 86880, Note_on_c, 5, 40, 96
7, 87264, Note_off_c, 5, 40, 64
7, 87360, Note_on_c, 5, 38, 82
7, 87744, Note_off_c, 5, 38, 64
7, 87840, Note_on_c, 5, 40, 96
7, 88224, Note_off_c, 5, 40, 64
7, 88320, Note_on_c, 5, 38, 98
7, 88704, Note_off_c, 5, 38, 64
7, 88800, Note_on_c, 5, 40, 86
7, 89184, Note_off_c, 5, 40, 64
7, 89280, Note_on_c, 5, 38, 99
7, 89664, Note_off_c, 5, 38, 64
7, 89760, Note_on_c, 5, 40, 89
7, 90144, Note_off_c, 5, 40, 64
7, 90240, Note_on_c, 5, 38, 101
7, 90624, Note_off_c, 5, 38, 64
7, 90720, Note_on_c, 5, 40, 88
7, 91104, Note_off_c, 5, 40, 64
7, 91200, Note_on_c, 5, 38, 93
7, 91584, Note_off_c, 5, 38, 64
7, 91680, Note_on_c, 5, 40, 95
7, 92064, Note_off_c, 5, 40, 64
7, 92160, Note_on_c, 5, 38, 103
7, 92544, Note_off_c, 5, 38, 64
7, 92640, Note_on_c, 5, 40, 97
7, 93024, Note_off_c, 5, 40, 64
7, 93120, Note_on_c, 5, 38, 92
7, 93504, Note_off_c, 5, 38, 64
7, 93600, Note_on_c, 5, 40, 99
7, 93984, Note_off_c, 5, 40, 64
7, 94080, Note_on_c, 5, 50, 76
7, 94464, Note_off_c, 5, 50, 64
7, 94560, Note_on_c, 5, 47, 90
7, 94944, Note_off_c, 5, 47, 64
7, 95040, Note_on_c, 5, 45, 100
7, 95424, Note_off_c, 5, 45, 64
7, 95520, Note_on_c, 5, 42, 92
7, 95904, Note_off_c, 5, 42, 64
7, 96000, Note_on_c, 5, 43, 100
7, 96384, Note_off_c, 5, 43, 64
7, 96480, Note_on_c, 5, 52, 90
7, 96864, Note_off_c, 5, 52, 64
7, 96960, Note_on_c, 5, 50, 93
7, 97344, Note_off_c, 5, 50, 64
7, 97440, Note_on_c, 5, 47, 94
7, 97824, Note_off_c, 5, 47, 64
7, 97920, Note_on_c, 5, 38, 86
7, 98304, Note_off_c, 5, 38, 64
7, 98400, Note_on_c, 5, 47, 94
7, 98784, Note_off_c, 5, 47, 64
7, 98880, Note_on_c, 5, 45, 94
7, 99264, Note_off_c, 5, 45, 64
7, 99360, Note_on_c, 5, 42, 94
7, 99744, Note_off_c, 5, 42, 64
7, 99840, Note_on_c, 5, 38, 100
7, 100224, Note_off_c, 5, 38, 64
7, 100320, Note_on_c, 5, 47, 104
7, 100704, Note_off_c, 5, 47, 64
7, 100800, Note_on_c, 5, 45, 102
7, 101184, Note_off_c, 5, 45, 64
7, 101280, Note_on_c, 5, 42, 101
7, 101664, Note_off_c, 5, 42, 64
7, 101760, Note_on_c, 5, 38, 89
7, 102144, Note_off_c, 5, 38, 64
7, 102240, Note_on_c, 5, 47, 96
7, 102624, Note_off_c, 5, 47, 64
7, 102720, Note_on_c, 5, 45, 85
7, 103104, Note_off_c, 5, 45, 64
7, 103200, Note_on_c, 5, 42, 94
7, 103584, Note_off_c, 5, 42, 64
7, 103680, Note_on_c, 5, 43, 91
7, 104064, Note_off_c, 5, 43, 64
7, 104160, Note_on_c, 5, 52, 95
7, 104544, Note_off_c, 5, 52, 64
7, 104640, Note_on_c, 5, 50, 82
7, 105024, Note_off_c, 5, 50, 64
7, 105120, Note_on_c, 5, 47, 96
7, 105504, Note_off_c, 5, 47, 64
7, 105600, Note_on_c, 5, 38, 104
7, 105984, Note_off_c, 5, 38, 64
7, 106080, Note_on_c, 5, 47, 102
7, 106464, Note_off_c, 5, 47, 64
7, 106560, Note_on_c, 5, 45, 89
7, 106944, Note_off_c, 5, 45, 64
7, 107040, Note_on_c, 5, 42, 100
7, 107424, Note_off_c, 5, 42, 64
7, 107520, Note_on_c, 5, 38, 90
7, 107904, Note_off_c, 5, 38, 64
7, 108000, Note_on_c, 5, 47, 98
7, 108384, Note_off_c, 5, 47, 64
7, 108480, Note_on_c, 5, 45, 86
7, 108864, Note_off_c, 5, 45, 64
7, 108960, Note_on_c, 5, 42, 98
7, 109344, Note_off_c, 5, 42, 64
7, 109440, Note_on_c, 5, 45, 104
7, 109824, Note_off_c, 5, 45, 64
7, 109920, Note_on_c, 5, 54, 97
7, 110304, Note_off_c, 5, 54, 64
7, 110400, Note_on_c, 5, 52, 93
7, 110784, Note_off_c, 5, 52, 64
7, 110880, Note_on_c, 5, 49, 100
7, 111264, Note_off_c, 5, 49, 64
7, 111360, Note_on_c, 5, 43, 104
7, 111744, Note_off_c, 5, 43, 64
7, 111840, Note_on_c, 5, 52, 102
7, 112224, Note_off_c, 5, 52, 64
7, 112320, Note_on_c, 5, 50, 93
7, 112704, Note_off_c, 5, 50, 64
7, 112800, Note_on_c, 5, 47, 87
7, 113184, Note_off_c, 5, 47, 64
7, 113280, Note_on_c, 5, 45, 95
7, 113664, Note_off_c, 5, 45, 64
7, 113760, Note_on_c, 5, 54, 94
7, 114144, Note_off_c, 5, 54, 64
7, 114240, Note_on_c, 5, 52, 101
7, 114624, Note_off_c, 5, 52, 64
7, 114720, Note_on_c, 5, 49, 97
7, 115104, Note_off_c, 5, 49, 64
7, 115200, Note_on_c, 5, 43, 104
7, 115584, Note_off_c, 5, 43, 64
7, 115680, Note_on_c, 5, 52, 95
7, 116064, Note_off_c, 5, 52, 64
7, 116160, Note_on_c, 5, 50, 93
7, 116544, Note_off_c, 5, 50, 64
7, 116640, Note_on_c, 5, 47, 97
7, 117024, Note_off_c, 5, 47, 64
7, 117120, Note_on_c, 5, 38, 78
7, 117504, Note_off_c, 5, 38, 64
7, 117600, Note_on_c, 5, 47, 98
7, 117984, Note_off_c, 5, 47, 64
7, 118080, Note_on_c, 5, 45, 98
7, 118464, Note_off_c, 5, 45, 64
7, 118560, Note_on_c, 5, 42, 78
7, 118944, Note_off_c, 5, 42, 64
7, 119040, Note_on_c, 5, 38, 102
7, 119424, Note_off_c, 5, 38, 64
7, 119520, Note_on_c, 5, 47, 92
7, 119904, Note_off_c, 5, 47, 64
7, 120000, Note_on_c, 5, 45, 87
7, 120384, Note_off_c, 5, 45, 64
7, 120480, Note_on_c, 5, 42, 87
7, 120864, Note_off_c, 5, 42, 64
7, 120960, Note_on_c, 5, 38, 100
7, 121344, Note_off_c, 5, 38, 64
7, 121440, Note_on_c, 5, 47, 79
7, 121824, Note_off_c, 5, 47, 64
7, 121920, Note_on_c, 5, 45, 84
7, 122304, Note_off_c, 5, 45, 64
7, 122400, Note_on_c, 5, 42, 79
7, 122784, Note_off_c, 5, 42, 64
7, 122880, Note_on_c, 5, 38, 98
7, 123264, Note_off_c, 5, 38, 64
7, 123360, Note_on_c, 5, 47, 91
7, 123744, Note_off_c, 5, 47, 64
7, 123840, Note_on_c, 5, 45, 102
7, 124224, Note_off_c, 5, 45, 64
7, 124320, Note_on_c, 5, 42, 91
7, 124704, Note_off_c, 5, 42, 64
7, 124800, Note_on_c, 5, 39, 91
7, 125056, Note_off_c, 5, 39, 64
7, 125120, Note_on_c, 5, 39, 101
7, 125248, Note_off_c, 5, 39, 64
7, 125280, Note_on_c, 5, 48, 101
7, 125536, Note_off_c, 5, 48, 64
7, 125600, Note_on_c, 5, 48, 96
7, 125728, Note_off_c, 5, 48, 64
7, 125760, Note_on_c, 5, 46, 85
7, 126016, Note_off_c, 5, 46, 64
7, 126080, Note_on_c, 5, 46, 102
7, 126208, Note_off_c, 5, 46, 64
7, 126240, Note_on_c, 5, 43, 102
7, 126496, Note_off_c, 5, 43, 64
7, 126560, Note_on_c, 5, 43, 97
7, 126688, Note_off_c, 5, 43, 64
7, 126720, Note_on_c, 5, 39, 94
7, 127104, Note_off_c, 5, 39, 64
7, 127200, Note_on_c, 5, 43, 102
7, 127584, Note_off_c, 5, 43, 64
7, 127680, Note_on_c, 5, 44, 97
7, 128064, Note_off_c, 5, 44, 64
7, 128160, Note_on_c, 5, 46, 98
7, 128544, Note_off_c, 5, 46, 64
7, 128640, Note_on_c, 5, 39, 97
7, 128896, Note_off_c, 5, 39, 64
7, 128960, Note_on_c, 5, 39, 93
7, 129088, Note_off_c, 5, 39, 64
7, 129120, Note_on_c, 5, 48, 103
7, 129376, Note_off_c, 5, 48, 64
7, 129440, Note_on_c, 5, 48, 102
7, 129568, Note_off_c, 5, 48, 64
7, 129600, Note_on_c, 5, 46, 85
7, 129856, Note_off_c, 5, 46, 64
7, 129920, Note_on_c, 5, 46, 103
7, 130048, Note_off_c, 5, 46, 64
7, 130080, Note_on_c, 5, 43, 98
7, 130336, Note_off_c, 5, 43, 64
7, 130400, Note_on_c, 5, 43, 101
7, 130528, Note_off_c, 5, 43, 64
7, 130560, Note_on_c, 5, 39, 92
7, 130944, Note_off_c, 5, 39, 64
7, 131040, Note_on_c, 5, 43, 98
7, 131424, Note_off_c, 5, 43, 64
7, 131520, Note_on_c, 5, 44, 103
7, 131904, Note_off_c, 5, 44, 64
7, 132000, Note_on_c, 5, 46, 104
7, 132384, Note_off_c, 5, 46, 64
7, 132480, Note_on_c, 5, 39, 101
7, 132736, Note_off_c, 5, 39, 64
7, 132800, Note_on_c, 5, 39, 100
7, 132928, Note_off_c, 5, 39, 64
7, 132960, Note_on_c, 5, 48, 86
7, 133216, Note_off_c, 5, 48, 64
7, 133280, Note_on_c, 5, 48, 99
7, 133408, Note_off_c, 5, 48, 64
7, 133440, Note_on_c, 5, 46, 88
7, 133696, Note_off_c, 5, 46, 64
7, 133760, Note_on_c, 5, 46, 91
7, 133888, Note_off_c, 5, 46, 64
7, 133920, Note_on_c, 5, 43, 89
7, 134176, Note_off_c, 5, 43, 64
7, 134240, Note_on_c, 5, 43, 103
7, 134368, Note_off_c, 5, 43, 64
7, 134400, Note_on_c, 5, 39, 97
7, 134784, Note_off_c, 5, 39, 64
7, 134880, Note_on_c, 5, 43, 85
7, 135264, Note_off_c, 5, 43, 64
7, 135360, Note_on_c, 5, 44, 99
7, 135744, Note_off_c, 5, 44, 64
7, 135840, Note_on_c, 5, 46, 80
7, 136224, Note_off_c, 5, 46, 64
7, 136320, Note_on_c, 5, 39, 103
7, 136320, Control_c, 5, 7, 108
7, 136560, Control_c, 5, 7, 105
7, 136576, Note_off_c, 5, 39, 64
7, 136640, Note_on_c, 5, 39, 82
7, 136768, Note_off_c, 5, 39, 64
7, 136800, Note_on_c, 5, 48, 89
7, 136800, Control_c, 5, 7, 103
7, 137040, Control_c, 5, 7, 101
7, 137056, Note_off_c, 5, 48, 64
7, 137120, Note_on_c, 5, 48, 98
7, 137248, Note_off_c, 5, 48, 64
7, 137280, Note_on_c, 5, 46, 89
7, 137280, Control_c, 5, 7, 98
7, 137520, Control_c, 5, 7, 96
7, 137536, Note_off_c, 5, 46, 64
7, 137600, Note_on_c, 5, 46, 102
7, 137728, Note_off_c, 5, 46, 64
7, 137760, Note_on_c, 5, 43, 89
7, 137760, Control_c, 5, 7, 94
7, 138000, Control_c, 5, 7, 92
7, 138016, Note_off_c, 5, 43, 64
7, 138080, Note_on_c, 5, 43, 92
7, 138208, Note_off_c, 5, 43, 64
7, 138240, Note_on_c, 5, 39, 78
7, 138240, Control_c, 5, 7, 89
7, 138480, Control_c, 5, 7, 87
7, 138624, Note_off_c, 5, 39, 64
7, 138720, Note_on_c, 5, 43, 86
7, 138720, Control_c, 5, 7, 85
7, 138960, Control_c, 5, 7, 83
7, 139104, Note_off_c, 5, 43, 64
7, 139200, Note_on_c, 5, 44, 91
7, 139200, Control_c, 5, 7, 80
7, 139440, Control_c, 5, 7, 78
7, 139584, Note_off_c, 5, 44, 64
7, 139680, Note_on_c, 5, 46, 101
7, 139680, Control_c, 5, 7, 76
7, 139920, Control_c, 5, 7, 74
7, 140064, Note_off_c, 5, 46, 64
7, 140160, Note_on_c, 5, 39, 85
7, 140160, Control_c, 5, 7, 71
7, 140400, Control_c, 5, 7, 69
7, 140416, Note_off_c, 5, 39, 64
7, 140480, Note_on_c, 5, 39, 94
7, 140608, Note_off_c, 5, 39, 64
7, 140640, Note_on_c, 5, 48, 97
7, 140640, Control_c, 5, 7, 67
7, 140880, Control_c, 5, 7, 65
7, 140896, Note_off_c, 5, 48, 64
7, 140960, Note_on_c, 5, 48, 102
7, 141088, Note_off_c, 5, 48, 64
7, 141120, Note_on_c, 5, 46, 91
7, 141120, Control_c, 5, 7, 62
7, 141360, Control_c, 5, 7, 60
7, 141376, Note_off_c, 5, 46, 64
7, 141440, Note_on_c, 5, 46, 85
7, 141568, Note_off_c, 5, 46, 64
7, 141600, Note_on_c, 5, 43, 101
7, 141600, Control_c, 5, 7, 58
7, 141840, Control_c, 5, 7, 56
7, 141856, Note_off_c, 5, 43, 64
7, 141920, Note_on_c, 5, 43, 93
7, 142048, Note_off_c, 5, 43, 64
7, 142080, Note_on_c, 5, 39, 102
7, 142080, Control_c, 5, 7, 53
7, 142320, Control_c, 5, 7, 51
7, 142464, Note_off_c, 5, 39, 64
7, 142560, Note_on_c, 5, 43, 84
7, 142560, Control_c, 5, 7, 49
7, 142800, Control_c, 5, 7, 47
7, 142944, Note_off_c, 5, 43, 64
7, 143040, Note_on_c, 5, 44, 77
7, 143040, Control_c, 5, 7, 44
7, 143280, Control_c, 5, 7, 42
7, 143424, Note_off_c, 5, 44, 64
7, 143520, Note_on_c, 5, 46, 96
7, 143520, Control_c, 5, 7, 40
7, 143760, Control_c, 5, 7, 38
7, 143904, Note_off_c, 5, 46, 64
7, 144000, Note_on_c, 5, 39, 93
7, 144000, Control_c, 5, 7, 35
7, 144240, Control_c, 5, 7, 33
7, 144256, Note_off_c, 5, 39, 64
7, 144320, Note_on_c, 5, 39, 102
7, 144448, Note_off_c, 5, 39, 64
7, 144480, Note_on_c, 5, 48, 96
7, 144480, Control_c, 5, 7, 31
7, 144720, Control_c, 5, 7, 29
7, 144736, Note_off_c, 5, 48, 64
7, 144800, Note_on_c, 5, 48, 99
7, 144928, Note_off_c, 5, 48, 64
7, 144960, Note_on_c, 5, 46, 92
7, 144960, Control_c, 5, 7, 26
7, 145200, Control_c, 5, 7, 24
7, 145216, Note_off_c, 5, 46, 64
7, 145280, Note_on_c, 5, 46, 96
7, 145408, Note_off_c, 5, 46, 64
7, 145440, Note_on_c, 5, 43, 92
7, 145440, Control_c, 5, 7, 22
7, 145680, Control_c, 5, 7, 20
7, 145696, Note_off_c, 5, 43, 64
7, 145760, Note_on_c, 5, 43, 99
7, 145888, Note_off_c, 5, 43, 64
7, 145920, Note_on_c, 5, 39, 85
7, 145920, Control_c, 5, 7, 17
7, 146160, Control_c, 5, 7, 15
7, 146304, Note_off_c, 5, 39, 64
7, 146400, Note_on_c, 5, 43, 100
7, 146400, Control_c, 5, 7, 13
7, 146640, Control_c, 5, 7, 11
7, 146784, Note_off_c, 5, 43, 64
7, 146880, Note_on_c, 5, 44, 90
7, 146880, Control_c, 5, 7, 8
7, 147120, Control_c, 5, 7, 6
7, 147264, Note_off_c, 5, 44, 64
7, 147360, Note_on_c, 5, 46, 101
7, 147360, Control_c, 5, 7, 4
7, 147600, Control_c, 5, 7, 2
7, 147744, Note_off_c, 5, 46, 64
7, 147744, End_track
8, 0, Start_track
8, 0, Title_t, "Drums   "
8, 0, MIDI_port, 0
8, 0, Channel_prefix, 9
8, 0, Control_c, 9, 7, 127
8, 0, Control_c, 9, 10, 64
8, 0, Control_c, 9, 91, 99
8, 0, Program_c, 9, 32
8, 1920, Note_on_c, 9, 35, 70
8, 1920, Note_on_c, 9, 42, 60
8, 2020, Note_off_c, 9, 42, 64
8, 2020, Note_off_c, 9, 35, 64
8, 2240, Note_on_c, 9, 42, 40
8, 2340, Note_off_c, 9, 42, 64
8, 2400, Note_on_c, 9, 38, 70
8, 2400, Note_on_c, 9, 42, 70
8, 2500, Note_off_c, 9, 42, 64
8, 2500, Note_off_c, 9, 38, 64
8, 2720, Note_on_c, 9, 35, 50
8, 2720, Note_on_c, 9, 42, 40
8, 2820, Note_off_c, 9, 42, 64
8, 2820, Note_off_c, 9, 35, 64
8, 2880, Note_on_c, 9, 35, 70
8, 2880, Note_on_c, 9, 42, 60
8, 2980, Note_off_c, 9, 42, 64
8, 2980, Note_off_c, 9, 35, 64
8, 3200, Note_on_c, 9, 42, 40
8, 3300, Note_off_c, 9, 42, 64
8, 3360, Note_on_c, 9, 38, 80
8, 3360, Note_on_c, 9, 42, 70
8, 3460, Note_off_c, 9, 42, 64
8, 3460, Note_off_c, 9, 38, 64
8, 3680, Note_on_c, 9, 35, 50
8, 3680, Note_on_c, 9, 42, 40
8, 3780, Note_off_c, 9, 42, 64
8, 3780, Note_off_c, 9, 35, 64
8, 3840, Note_on_c, 9, 35, 70
8, 3840, Note_on_c, 9, 42, 70
8, 3940, Note_off_c, 9, 42, 64
8, 3940, Note_off_c, 9, 35, 64
8, 4160, Note_on_c, 9, 42, 40
8, 4260, Note_off_c, 9, 42, 64
8, 4320, Note_on_c, 9, 38, 70
8, 4320, Note_on_c, 9, 42, 80
8, 4420, Note_off_c, 9, 42, 64
8, 4420, Note_off_c, 9, 38, 64
8, 4640, Note_on_c, 9, 35, 50
8, 4640, Note_on_c, 9, 42, 40
8, 4740, Note_off_c, 9, 42, 64
8, 4740, Note_off_c, 9, 35, 64
8, 4800, Note_on_c, 9, 35, 70
8, 4800, Note_on_c, 9, 42, 70
8, 4900, Note_off_c, 9, 42, 64
8, 4900, Note_off_c, 9, 35, 64
8, 5120, Note_on_c, 9, 42, 40
8, 5220, Note_off_c, 9, 42, 64
8, 5280, Note_on_c, 9, 38, 70
8, 5280, Note_on_c, 9, 42, 80
8, 5380, Note_off_c, 9, 42, 64
8, 5380, Note_off_c, 9, 38, 64
8, 5600, Note_on_c, 9, 35, 50
8, 5600, Note_on_c, 9, 42, 40
8, 5700, Note_off_c, 9, 42, 64
8, 5700, Note_off_c, 9, 35, 64
8, 5760, Note_on_c, 9, 35, 70
8, 5760, Note_on_c, 9, 42, 60
8, 5860, Note_off_c, 9, 42, 64
8, 5860, Note_off_c, 9, 35, 64
8, 6080, Note_on_c, 9, 42, 40
8, 6180, Note_off_c, 9, 42, 64
8, 6240, Note_on_c, 9, 38, 70
8, 6240, Note_on_c, 9, 42, 70
8, 6340, Note_off_c, 9, 42, 64
8, 6340, Note_off_c, 9, 38, 64
8, 6560, Note_on_c, 9, 35, 50
8, 6560, Note_on_c, 9, 42, 40
8, 6660, Note_off_c, 9, 42, 64
8, 6660, Note_off_c, 9, 35, 64
8, 6720, Note_on_c, 9, 35, 70
8, 6720, Note_on_c, 9, 42, 60
8, 6820, Note_off_c, 9, 42, 64
8, 6820, Note_off_c, 9, 35, 64
8, 7040, Note_on_c, 9, 42, 40
8, 7140, Note_off_c, 9, 42, 64
8, 7200, Note_on_c, 9, 38, 80
8, 7200, Note_on_c, 9, 42, 70
8, 7300, Note_off_c, 9, 42, 64
8, 7300, Note_off_c, 9, 38, 64
8, 7520, Note_on_c, 9, 35, 50
8, 7520, Note_on_c, 9, 42, 40
8, 7620, Note_off_c, 9, 42, 64
8, 7620, Note_off_c, 9, 35, 64
8, 7680, Note_on_c, 9, 35, 80
8, 7680, Note_on_c, 9, 42, 70
8, 7780, Note_off_c, 9, 42, 64
8, 7780, Note_off_c, 9, 35, 64
8, 8000, Note_on_c, 9, 42, 40
8, 8100, Note_off_c, 9, 42, 64
8, 8160, Note_on_c, 9, 38, 80
8, 8160, Note_on_c, 9, 42, 80
8, 8260, Note_off_c, 9, 42, 64
8, 8260, Note_off_c, 9, 38, 64
8, 8480, Note_on_c, 9, 35, 60
8, 8480, Note_on_c, 9, 42, 40
8, 8580, Note_off_c, 9, 42, 64
8, 8580, Note_off_c, 9, 35, 64
8, 8640, Note_on_c, 9, 35, 80
8, 8640, Note_on_c, 9, 42, 70
8, 8740, Note_off_c, 9, 42, 64
8, 8740, Note_off_c, 9, 35, 64
8, 8960, Note_on_c, 9, 42, 40
8, 8960, Note_on_c, 9, 45, 40
8, 9060, Note_off_c, 9, 45, 64
8, 9060, Note_off_c, 9, 42, 64
8, 9120, Note_on_c, 9, 35, 80
8, 9120, Note_on_c, 9, 48, 60
8, 9220, Note_off_c, 9, 48, 64
8, 9220, Note_off_c, 9, 35, 64
8, 9280, Note_on_c, 9, 45, 40
8, 9380, Note_off_c, 9, 45, 64
8, 9440, Note_on_c, 9, 35, 60
8, 9440, Note_on_c, 9, 41, 60
8, 9540, Note_off_c, 9, 41, 64
8, 9540, Note_off_c, 9, 35, 64
8, 9600, Note_on_c, 9, 35, 70
8, 9600, Note_on_c, 9, 42, 60
8, 9700, Note_off_c, 9, 42, 64
8, 9700, Note_off_c, 9, 35, 64
8, 9920, Note_on_c, 9, 42, 40
8, 10020, Note_off_c, 9, 42, 64
8, 10080, Note_on_c, 9, 38, 70
8, 10080, Note_on_c, 9, 42, 70
8, 10180, Note_off_c, 9, 42, 64
8, 10180, Note_off_c, 9, 38, 64
8, 10400, Note_on_c, 9, 35, 50
8, 10400, Note_on_c, 9, 42, 40
8, 10500, Note_off_c, 9, 42, 64
8, 10500, Note_off_c, 9, 35, 64
8, 10560, Note_on_c, 9, 35, 70
8, 10560, Note_on_c, 9, 42, 60
8, 10660, Note_off_c, 9, 42, 64
8, 10660, Note_off_c, 9, 35, 64
8, 10880, Note_on_c, 9, 42, 40
8, 10980, Note_off_c, 9, 42, 64
8, 11040, Note_on_c, 9, 38, 80
8, 11040, Note_on_c, 9, 42, 70
8, 11140, Note_off_c, 9, 42, 64
8, 11140, Note_off_c, 9, 38, 64
8, 11360, Note_on_c, 9, 35, 50
8, 11360, Note_on_c, 9, 42, 40
8, 11460, Note_off_c, 9, 42, 64
8, 11460, Note_off_c, 9, 35, 64
8, 11520, Note_on_c, 9, 35, 70
8, 11520, Note_on_c, 9, 42, 70
8, 11620, Note_off_c, 9, 42, 64
8, 11620, Note_off_c, 9, 35, 64
8, 11840, Note_on_c, 9, 42, 40
8, 11940, Note_off_c, 9, 42, 64
8, 12000, Note_on_c, 9, 38, 70
8, 12000, Note_on_c, 9, 42, 80
8, 12100, Note_off_c, 9, 42, 64
8, 12100, Note_off_c, 9, 38, 64
8, 12320, Note_on_c, 9, 35, 50
8, 12320, Note_on_c, 9, 42, 40
8, 12420, Note_off_c, 9, 42, 64
8, 12420, Note_off_c, 9, 35, 64
8, 12480, Note_on_c, 9, 35, 70
8, 12480, Note_on_c, 9, 42, 70
8, 12580, Note_off_c, 9, 42, 64
8, 12580, Note_off_c, 9, 35, 64
8, 12800, Note_on_c, 9, 42, 40
8, 12900, Note_off_c, 9, 42, 64
8, 12960, Note_on_c, 9, 38, 70
8, 12960, Note_on_c, 9, 42, 80
8, 13060, Note_off_c, 9, 42, 64
8, 13060, Note_off_c, 9, 38, 64
8, 13280, Note_on_c, 9, 35, 50
8, 13280, Note_on_c, 9, 42, 40
8, 13380, Note_off_c, 9, 42, 64
8, 13380, Note_off_c, 9, 35, 64
8, 13440, Note_on_c, 9, 35, 70
8, 13440, Note_on_c, 9, 42, 70
8, 13540, Note_off_c, 9, 42, 64
8, 13540, Note_off_c, 9, 35, 64
8, 13760, Note_on_c, 9, 42, 40
8, 13860, Note_off_c, 9, 42, 64
8, 13920, Note_on_c, 9, 38, 70
8, 13920, Note_on_c, 9, 42, 80
8, 14020, Note_off_c, 9, 42, 64
8, 14020, Note_off_c, 9, 38, 64
8, 14240, Note_on_c, 9, 35, 50
8, 14240, Note_on_c, 9, 42, 40
8, 14340, Note_off_c, 9, 42, 64
8, 14340, Note_off_c, 9, 35, 64
8, 14400, Note_on_c, 9, 35, 70
8, 14400, Note_on_c, 9, 42, 70
8, 14500, Note_off_c, 9, 42, 64
8, 14500, Note_off_c, 9, 35, 64
8, 14720, Note_on_c, 9, 42, 40
8, 14820, Note_off_c, 9, 42, 64
8, 14880, Note_on_c, 9, 38, 70
8, 14880, Note_on_c, 9, 42, 80
8, 14980, Note_off_c, 9, 42, 64
8, 14980, Note_off_c, 9, 38, 64
8, 15200, Note_on_c, 9, 35, 50
8, 15200, Note_on_c, 9, 42, 40
8, 15300, Note_off_c, 9, 42, 64
8, 15300, Note_off_c, 9, 35, 64
8, 15360, Note_on_c, 9, 35, 70
8, 15360, Note_on_c, 9, 42, 60
8, 15460, Note_off_c, 9, 42, 64
8, 15460, Note_off_c, 9, 35, 64
8, 15680, Note_on_c, 9, 42, 40
8, 15780, Note_off_c, 9, 42, 64
8, 15840, Note_on_c, 9, 38, 70
8, 15840, Note_on_c, 9, 42, 70
8, 15940, Note_off_c, 9, 42, 64
8, 15940, Note_off_c, 9, 38, 64
8, 16160, Note_on_c, 9, 35, 50
8, 16160, Note_on_c, 9, 42, 40
8, 16260, Note_off_c, 9, 42, 64
8, 16260, Note_off_c, 9, 35, 64
8, 16320, Note_on_c, 9, 35, 70
8, 16320, Note_on_c, 9, 42, 60
8, 16420, Note_off_c, 9, 42, 64
8, 16420, Note_off_c, 9, 35, 64
8, 16640, Note_on_c, 9, 42, 40
8, 16740, Note_off_c, 9, 42, 64
8, 16800, Note_on_c, 9, 38, 80
8, 16800, Note_on_c, 9, 42, 70
8, 16900, Note_off_c, 9, 42, 64
8, 16900, Note_off_c, 9, 38, 64
8, 17120, Note_on_c, 9, 35, 50
8, 17120, Note_on_c, 9, 42, 40
8, 17220, Note_off_c, 9, 42, 64
8, 17220, Note_off_c, 9, 35, 64
8, 17280, Note_on_c, 9, 35, 70
8, 17280, Note_on_c, 9, 42, 70
8, 17380, Note_off_c, 9, 42, 64
8, 17380, Note_off_c, 9, 35, 64
8, 17600, Note_on_c, 9, 42, 40
8, 17700, Note_off_c, 9, 42, 64
8, 17760, Note_on_c, 9, 38, 70
8, 17760, Note_on_c, 9, 42, 80
8, 17860, Note_off_c, 9, 42, 64
8, 17860, Note_off_c, 9, 38, 64
8, 18080, Note_on_c, 9, 35, 50
8, 18080, Note_on_c, 9, 42, 40
8, 18180, Note_off_c, 9, 42, 64
8, 18180, Note_off_c, 9, 35, 64
8, 18240, Note_on_c, 9, 35, 70
8, 18240, Note_on_c, 9, 42, 70
8, 18340, Note_off_c, 9, 42, 64
8, 18340, Note_off_c, 9, 35, 64
8, 18560, Note_on_c, 9, 42, 40
8, 18660, Note_off_c, 9, 42, 64
8, 18720, Note_on_c, 9, 38, 70
8, 18720, Note_on_c, 9, 42, 80
8, 18820, Note_off_c, 9, 42, 64
8, 18820, Note_off_c, 9, 38, 64
8, 19040, Note_on_c, 9, 35, 50
8, 19040, Note_on_c, 9, 42, 40
8, 19140, Note_off_c, 9, 42, 64
8, 19140, Note_off_c, 9, 35, 64
8, 19200, Note_on_c, 9, 35, 70
8, 19200, Note_on_c, 9, 42, 60
8, 19300, Note_off_c, 9, 42, 64
8, 19300, Note_off_c, 9, 35, 64
8, 19520, Note_on_c, 9, 42, 40
8, 19620, Note_off_c, 9, 42, 64
8, 19680, Note_on_c, 9, 38, 70
8, 19680, Note_on_c, 9, 42, 70
8, 19780, Note_off_c, 9, 42, 64
8, 19780, Note_off_c, 9, 38, 64
8, 20000, Note_on_c, 9, 35, 50
8, 20000, Note_on_c, 9, 42, 40
8, 20100, Note_off_c, 9, 42, 64
8, 20100, Note_off_c, 9, 35, 64
8, 20160, Note_on_c, 9, 35, 70
8, 20160, Note_on_c, 9, 42, 60
8, 20260, Note_off_c, 9, 42, 64
8, 20260, Note_off_c, 9, 35, 64
8, 20480, Note_on_c, 9, 42, 40
8, 20580, Note_off_c, 9, 42, 64
8, 20640, Note_on_c, 9, 38, 80
8, 20640, Note_on_c, 9, 42, 70
8, 20740, Note_off_c, 9, 42, 64
8, 20740, Note_off_c, 9, 38, 64
8, 20960, Note_on_c, 9, 35, 50
8, 20960, Note_on_c, 9, 42, 40
8, 21060, Note_off_c, 9, 42, 64
8, 21060, Note_off_c, 9, 35, 64
8, 21120, Note_on_c, 9, 35, 70
8, 21120, Note_on_c, 9, 42, 70
8, 21220, Note_off_c, 9, 42, 64
8, 21220, Note_off_c, 9, 35, 64
8, 21440, Note_on_c, 9, 42, 40
8, 21540, Note_off_c, 9, 42, 64
8, 21600, Note_on_c, 9, 38, 70
8, 21600, Note_on_c, 9, 42, 80
8, 21700, Note_off_c, 9, 42, 64
8, 21700, Note_off_c, 9, 38, 64
8, 21920, Note_on_c, 9, 35, 50
8, 21920, Note_on_c, 9, 42, 40
8, 22020, Note_off_c, 9, 42, 64
8, 22020, Note_off_c, 9, 35, 64
8, 22080, Note_on_c, 9, 35, 70
8, 22080, Note_on_c, 9, 42, 70
8, 22180, Note_off_c, 9, 42, 64
8, 22180, Note_off_c, 9, 35, 64
8, 22400, Note_on_c, 9, 42, 40
8, 22500, Note_off_c, 9, 42, 64
8, 22560, Note_on_c, 9, 38, 70
8, 22560, Note_on_c, 9, 42, 80
8, 22660, Note_off_c, 9, 42, 64
8, 22660, Note_off_c, 9, 38, 64
8, 22880, Note_on_c, 9, 35, 50
8, 22880, Note_on_c, 9, 42, 40
8, 22980, Note_off_c, 9, 42, 64
8, 22980, Note_off_c, 9, 35, 64
8, 23040, Note_on_c, 9, 35, 80
8, 23040, Note_on_c, 9, 42, 70
8, 23140, Note_off_c, 9, 42, 64
8, 23140, Note_off_c, 9, 35, 64
8, 23360, Note_on_c, 9, 42, 40
8, 23460, Note_off_c, 9, 42, 64
8, 23520, Note_on_c, 9, 38, 80
8, 23520, Note_on_c, 9, 42, 80
8, 23620, Note_off_c, 9, 42, 64
8, 23620, Note_off_c, 9, 38, 64
8, 23840, Note_on_c, 9, 35, 60
8, 23840, Note_on_c, 9, 38, 90
8, 23840, Note_on_c, 9, 42, 40
8, 23840, Note_on_c, 9, 49, 40
8, 23940, Note_off_c, 9, 49, 64
8, 23940, Note_off_c, 9, 42, 64
8, 23940, Note_off_c, 9, 38, 64
8, 23940, Note_off_c, 9, 35, 64
8, 24000, Note_on_c, 9, 35, 80
8, 24000, Note_on_c, 9, 42, 70
8, 24100, Note_off_c, 9, 42, 64
8, 24100, Note_off_c, 9, 35, 64
8, 24160, Note_on_c, 9, 38, 60
8, 24260, Note_off_c, 9, 38, 64
8, 24320, Note_on_c, 9, 38, 50
8, 24320, Note_on_c, 9, 42, 40
8, 24420, Note_off_c, 9, 42, 64
8, 24420, Note_off_c, 9, 38, 64
8, 24480, Note_on_c, 9, 35, 80
8, 24480, Note_on_c, 9, 38, 90
8, 24580, Note_off_c, 9, 38, 64
8, 24580, Note_off_c, 9, 35, 64
8, 24640, Note_on_c, 9, 38, 60
8, 24740, Note_off_c, 9, 38, 64
8, 24800, Note_on_c, 9, 35, 60
8, 24800, Note_on_c, 9, 38, 80
8, 24900, Note_off_c, 9, 38, 64
8, 24900, Note_off_c, 9, 35, 64
8, 24960, Note_on_c, 9, 35, 70
8, 24960, Note_on_c, 9, 42, 60
8, 25060, Note_off_c, 9, 42, 64
8, 25060, Note_off_c, 9, 35, 64
8, 25280, Note_on_c, 9, 42, 40
8, 25380, Note_off_c, 9, 42, 64
8, 25440, Note_on_c, 9, 38, 70
8, 25440, Note_on_c, 9, 42, 70
8, 25540, Note_off_c, 9, 42, 64
8, 25540, Note_off_c, 9, 38, 64
8, 25760, Note_on_c, 9, 35, 50
8, 25760, Note_on_c, 9, 42, 40
8, 25860, Note_off_c, 9, 42, 64
8, 25860, Note_off_c, 9, 35, 64
8, 25920, Note_on_c, 9, 35, 70
8, 25920, Note_on_c, 9, 42, 60
8, 26020, Note_off_c, 9, 42, 64
8, 26020, Note_off_c, 9, 35, 64
8, 26240, Note_on_c, 9, 42, 40
8, 26340, Note_off_c, 9, 42, 64
8, 26400, Note_on_c, 9, 38, 80
8, 26400, Note_on_c, 9, 42, 70
8, 26500, Note_off_c, 9, 42, 64
8, 26500, Note_off_c, 9, 38, 64
8, 26720, Note_on_c, 9, 35, 50
8, 26720, Note_on_c, 9, 42, 40
8, 26820, Note_off_c, 9, 42, 64
8, 26820, Note_off_c, 9, 35, 64
8, 26880, Note_on_c, 9, 35, 70
8, 26880, Note_on_c, 9, 42, 70
8, 26980, Note_off_c, 9, 42, 64
8, 26980, Note_off_c, 9, 35, 64
8, 27200, Note_on_c, 9, 42, 40
8, 27300, Note_off_c, 9, 42, 64
8, 27360, Note_on_c, 9, 38, 70
8, 27360, Note_on_c, 9, 42, 80
8, 27460, Note_off_c, 9, 42, 64
8, 27460, Note_off_c, 9, 38, 64
8, 27680, Note_on_c, 9, 35, 50
8, 27680, Note_on_c, 9, 42, 40
8, 27780, Note_off_c, 9, 42, 64
8, 27780, Note_off_c, 9, 35, 64
8, 27840, Note_on_c, 9, 35, 70
8, 27840, Note_on_c, 9, 42, 70
8, 27940, Note_off_c, 9, 42, 64
8, 27940, Note_off_c, 9, 35, 64
8, 28160, Note_on_c, 9, 42, 40
8, 28260, Note_off_c, 9, 42, 64
8, 28320, Note_on_c, 9, 38, 70
8, 28320, Note_on_c, 9, 42, 80
8, 28420, Note_off_c, 9, 42, 64
8, 28420, Note_off_c, 9, 38, 64
8, 28640, Note_on_c, 9, 35, 50
8, 28640, Note_on_c, 9, 42, 40
8, 28740, Note_off_c, 9, 42, 64
8, 28740, Note_off_c, 9, 35, 64
8, 28800, Note_on_c, 9, 35, 70
8, 28800, Note_on_c, 9, 42, 60
8, 28900, Note_off_c, 9, 42, 64
8, 28900, Note_off_c, 9, 35, 64
8, 29120, Note_on_c, 9, 42, 40
8, 29220, Note_off_c, 9, 42, 64
8, 29280, Note_on_c, 9, 38, 70
8, 29280, Note_on_c, 9, 42, 70
8, 29380, Note_off_c, 9, 42, 64
8, 29380, Note_off_c, 9, 38, 64
8, 29600, Note_on_c, 9, 35, 50
8, 29600, Note_on_c, 9, 42, 40
8, 29700, Note_off_c, 9, 42, 64
8, 29700, Note_off_c, 9, 35, 64
8, 29760, Note_on_c, 9, 35, 70
8, 29760, Note_on_c, 9, 42, 60
8, 29860, Note_off_c, 9, 42, 64
8, 29860, Note_off_c, 9, 35, 64
8, 30080, Note_on_c, 9, 42, 40
8, 30180, Note_off_c, 9, 42, 64
8, 30240, Note_on_c, 9, 38, 80
8, 30240, Note_on_c, 9, 42, 70
8, 30340, Note_off_c, 9, 42, 64
8, 30340, Note_off_c, 9, 38, 64
8, 30560, Note_on_c, 9, 35, 50
8, 30560, Note_on_c, 9, 42, 40
8, 30660, Note_off_c, 9, 42, 64
8, 30660, Note_off_c, 9, 35, 64
8, 30720, Note_on_c, 9, 35, 70
8, 30720, Note_on_c, 9, 42, 70
8, 30820, Note_off_c, 9, 42, 64
8, 30820, Note_off_c, 9, 35, 64
8, 31040, Note_on_c, 9, 42, 40
8, 31140, Note_off_c, 9, 42, 64
8, 31200, Note_on_c, 9, 38, 70
8, 31200, Note_on_c, 9, 42, 80
8, 31300, Note_off_c, 9, 42, 64
8, 31300, Note_off_c, 9, 38, 64
8, 31520, Note_on_c, 9, 35, 50
8, 31520, Note_on_c, 9, 42, 40
8, 31620, Note_off_c, 9, 42, 64
8, 31620, Note_off_c, 9, 35, 64
8, 31680, Note_on_c, 9, 35, 70
8, 31680, Note_on_c, 9, 42, 70
8, 31780, Note_off_c, 9, 42, 64
8, 31780, Note_off_c, 9, 35, 64
8, 32000, Note_on_c, 9, 42, 40
8, 32100, Note_off_c, 9, 42, 64
8, 32160, Note_on_c, 9, 38, 70
8, 32160, Note_on_c, 9, 42, 80
8, 32260, Note_off_c, 9, 42, 64
8, 32260, Note_off_c, 9, 38, 64
8, 32480, Note_on_c, 9, 35, 50
8, 32480, Note_on_c, 9, 42, 40
8, 32580, Note_off_c, 9, 42, 64
8, 32580, Note_off_c, 9, 35, 64
8, 32640, Note_on_c, 9, 35, 70
8, 32640, Note_on_c, 9, 42, 60
8, 32740, Note_off_c, 9, 42, 64
8, 32740, Note_off_c, 9, 35, 64
8, 32960, Note_on_c, 9, 42, 40
8, 33060, Note_off_c, 9, 42, 64
8, 33120, Note_on_c, 9, 38, 70
8, 33120, Note_on_c, 9, 42, 70
8, 33220, Note_off_c, 9, 42, 64
8, 33220, Note_off_c, 9, 38, 64
8, 33440, Note_on_c, 9, 35, 50
8, 33440, Note_on_c, 9, 42, 40
8, 33540, Note_off_c, 9, 42, 64
8, 33540, Note_off_c, 9, 35, 64
8, 33600, Note_on_c, 9, 35, 70
8, 33600, Note_on_c, 9, 42, 60
8, 33700, Note_off_c, 9, 42, 64
8, 33700, Note_off_c, 9, 35, 64
8, 33920, Note_on_c, 9, 42, 40
8, 34020, Note_off_c, 9, 42, 64
8, 34080, Note_on_c, 9, 38, 80
8, 34080, Note_on_c, 9, 42, 70
8, 34180, Note_off_c, 9, 42, 64
8, 34180, Note_off_c, 9, 38, 64
8, 34400, Note_on_c, 9, 35, 50
8, 34400, Note_on_c, 9, 42, 40
8, 34500, Note_off_c, 9, 42, 64
8, 34500, Note_off_c, 9, 35, 64
8, 34560, Note_on_c, 9, 35, 70
8, 34560, Note_on_c, 9, 42, 70
8, 34660, Note_off_c, 9, 42, 64
8, 34660, Note_off_c, 9, 35, 64
8, 34880, Note_on_c, 9, 42, 40
8, 34980, Note_off_c, 9, 42, 64
8, 35040, Note_on_c, 9, 38, 70
8, 35040, Note_on_c, 9, 42, 80
8, 35140, Note_off_c, 9, 42, 64
8, 35140, Note_off_c, 9, 38, 64
8, 35360, Note_on_c, 9, 35, 50
8, 35360, Note_on_c, 9, 42, 40
8, 35460, Note_off_c, 9, 42, 64
8, 35460, Note_off_c, 9, 35, 64
8, 35520, Note_on_c, 9, 35, 70
8, 35520, Note_on_c, 9, 42, 70
8, 35620, Note_off_c, 9, 42, 64
8, 35620, Note_off_c, 9, 35, 64
8, 35840, Note_on_c, 9, 42, 40
8, 35940, Note_off_c, 9, 42, 64
8, 36000, Note_on_c, 9, 38, 70
8, 36000, Note_on_c, 9, 42, 80
8, 36100, Note_off_c, 9, 42, 64
8, 36100, Note_off_c, 9, 38, 64
8, 36320, Note_on_c, 9, 35, 50
8, 36320, Note_on_c, 9, 42, 40
8, 36420, Note_off_c, 9, 42, 64
8, 36420, Note_off_c, 9, 35, 64
8, 36480, Note_on_c, 9, 35, 70
8, 36480, Note_on_c, 9, 42, 60
8, 36580, Note_off_c, 9, 42, 64
8, 36580, Note_off_c, 9, 35, 64
8, 36800, Note_on_c, 9, 42, 40
8, 36900, Note_off_c, 9, 42, 64
8, 36960, Note_on_c, 9, 38, 70
8, 36960, Note_on_c, 9, 42, 70
8, 37060, Note_off_c, 9, 42, 64
8, 37060, Note_off_c, 9, 38, 64
8, 37280, Note_on_c, 9, 35, 50
8, 37280, Note_on_c, 9, 42, 40
8, 37380, Note_off_c, 9, 42, 64
8, 37380, Note_off_c, 9, 35, 64
8, 37440, Note_on_c, 9, 35, 70
8, 37440, Note_on_c, 9, 42, 60
8, 37540, Note_off_c, 9, 42, 64
8, 37540, Note_off_c, 9, 35, 64
8, 37760, Note_on_c, 9, 42, 40
8, 37860, Note_off_c, 9, 42, 64
8, 37920, Note_on_c, 9, 38, 80
8, 37920, Note_on_c, 9, 42, 70
8, 38020, Note_off_c, 9, 42, 64
8, 38020, Note_off_c, 9, 38, 64
8, 38240, Note_on_c, 9, 35, 50
8, 38240, Note_on_c, 9, 42, 40
8, 38340, Note_off_c, 9, 42, 64
8, 38340, Note_off_c, 9, 35, 64
8, 38400, Note_on_c, 9, 35, 80
8, 38400, Note_on_c, 9, 42, 70
8, 38500, Note_off_c, 9, 42, 64
8, 38500, Note_off_c, 9, 35, 64
8, 38720, Note_on_c, 9, 42, 40
8, 38820, Note_off_c, 9, 42, 64
8, 38880, Note_on_c, 9, 38, 80
8, 38880, Note_on_c, 9, 42, 80
8, 38980, Note_off_c, 9, 42, 64
8, 38980, Note_off_c, 9, 38, 64
8, 39200, Note_on_c, 9, 35, 60
8, 39200, Note_on_c, 9, 42, 40
8, 39300, Note_off_c, 9, 42, 64
8, 39300, Note_off_c, 9, 35, 64
8, 39360, Note_on_c, 9, 35, 80
8, 39360, Note_on_c, 9, 42, 70
8, 39460, Note_off_c, 9, 42, 64
8, 39460, Note_off_c, 9, 35, 64
8, 39680, Note_on_c, 9, 42, 40
8, 39680, Note_on_c, 9, 45, 40
8, 39780, Note_off_c, 9, 45, 64
8, 39780, Note_off_c, 9, 42, 64
8, 39840, Note_on_c, 9, 35, 80
8, 39840, Note_on_c, 9, 48, 60
8, 39940, Note_off_c, 9, 48, 64
8, 39940, Note_off_c, 9, 35, 64
8, 40000, Note_on_c, 9, 45, 40
8, 40100, Note_off_c, 9, 45, 64
8, 40160, Note_on_c, 9, 35, 60
8, 40160, Note_on_c, 9, 41, 60
8, 40260, Note_off_c, 9, 41, 64
8, 40260, Note_off_c, 9, 35, 64
8, 40320, Note_on_c, 9, 35, 70
8, 40320, Note_on_c, 9, 42, 70
8, 40420, Note_off_c, 9, 42, 64
8, 40420, Note_off_c, 9, 35, 64
8, 40640, Note_on_c, 9, 42, 40
8, 40740, Note_off_c, 9, 42, 64
8, 40800, Note_on_c, 9, 38, 70
8, 40800, Note_on_c, 9, 42, 80
8, 40900, Note_off_c, 9, 42, 64
8, 40900, Note_off_c, 9, 38, 64
8, 41120, Note_on_c, 9, 35, 50
8, 41120, Note_on_c, 9, 42, 40
8, 41220, Note_off_c, 9, 42, 64
8, 41220, Note_off_c, 9, 35, 64
8, 41280, Note_on_c, 9, 35, 70
8, 41280, Note_on_c, 9, 42, 70
8, 41380, Note_off_c, 9, 42, 64
8, 41380, Note_off_c, 9, 35, 64
8, 41600, Note_on_c, 9, 42, 40
8, 41700, Note_off_c, 9, 42, 64
8, 41760, Note_on_c, 9, 38, 70
8, 41760, Note_on_c, 9, 42, 80
8, 41860, Note_off_c, 9, 42, 64
8, 41860, Note_off_c, 9, 38, 64
8, 42080, Note_on_c, 9, 35, 50
8, 42080, Note_on_c, 9, 42, 40
8, 42180, Note_off_c, 9, 42, 64
8, 42180, Note_off_c, 9, 35, 64
8, 42240, Note_on_c, 9, 35, 70
8, 42240, Note_on_c, 9, 42, 70
8, 42340, Note_off_c, 9, 42, 64
8, 42340, Note_off_c, 9, 35, 64
8, 42560, Note_on_c, 9, 42, 40
8, 42660, Note_off_c, 9, 42, 64
8, 42720, Note_on_c, 9, 38, 70
8, 42720, Note_on_c, 9, 42, 80
8, 42820, Note_off_c, 9, 42, 64
8, 42820, Note_off_c, 9, 38, 64
8, 43040, Note_on_c, 9, 35, 50
8, 43040, Note_on_c, 9, 42, 40
8, 43140, Note_off_c, 9, 42, 64
8, 43140, Note_off_c, 9, 35, 64
8, 43200, Note_on_c, 9, 35, 70
8, 43200, Note_on_c, 9, 42, 70
8, 43300, Note_off_c, 9, 42, 64
8, 43300, Note_off_c, 9, 35, 64
8, 43520, Note_on_c, 9, 42, 40
8, 43620, Note_off_c, 9, 42, 64
8, 43680, Note_on_c, 9, 38, 70
8, 43680, Note_on_c, 9, 42, 80
8, 43780, Note_off_c, 9, 42, 64
8, 43780, Note_off_c, 9, 38, 64
8, 44000, Note_on_c, 9, 35, 50
8, 44000, Note_on_c, 9, 42, 40
8, 44100, Note_off_c, 9, 42, 64
8, 44100, Note_off_c, 9, 35, 64
8, 44160, Note_on_c, 9, 35, 70
8, 44160, Note_on_c, 9, 42, 70
8, 44260, Note_off_c, 9, 42, 64
8, 44260, Note_off_c, 9, 35, 64
8, 44480, Note_on_c, 9, 42, 40
8, 44580, Note_off_c, 9, 42, 64
8, 44640, Note_on_c, 9, 38, 70
8, 44640, Note_on_c, 9, 42, 80
8, 44740, Note_off_c, 9, 42, 64
8, 44740, Note_off_c, 9, 38, 64
8, 44960, Note_on_c, 9, 35, 50
8, 44960, Note_on_c, 9, 42, 40
8, 45060, Note_off_c, 9, 42, 64
8, 45060, Note_off_c, 9, 35, 64
8, 45120, Note_on_c, 9, 35, 70
8, 45120, Note_on_c, 9, 42, 70
8, 45220, Note_off_c, 9, 42, 64
8, 45220, Note_off_c, 9, 35, 64
8, 45440, Note_on_c, 9, 42, 40
8, 45540, Note_off_c, 9, 42, 64
8, 45600, Note_on_c, 9, 38, 70
8, 45600, Note_on_c, 9, 42, 80
8, 45700, Note_off_c, 9, 42, 64
8, 45700, Note_off_c, 9, 38, 64
8, 45920, Note_on_c, 9, 35, 50
8, 45920, Note_on_c, 9, 42, 40
8, 46020, Note_off_c, 9, 42, 64
8, 46020, Note_off_c, 9, 35, 64
8, 46080, Note_on_c, 9, 35, 70
8, 46080, Note_on_c, 9, 42, 60
8, 46180, Note_off_c, 9, 42, 64
8, 46180, Note_off_c, 9, 35, 64
8, 46400, Note_on_c, 9, 42, 40
8, 46500, Note_off_c, 9, 42, 64
8, 46560, Note_on_c, 9, 38, 70
8, 46560, Note_on_c, 9, 42, 70
8, 46660, Note_off_c, 9, 42, 64
8, 46660, Note_off_c, 9, 38, 64
8, 46880, Note_on_c, 9, 35, 50
8, 46880, Note_on_c, 9, 42, 40
8, 46980, Note_off_c, 9, 42, 64
8, 46980, Note_off_c, 9, 35, 64
8, 47040, Note_on_c, 9, 35, 70
8, 47040, Note_on_c, 9, 42, 60
8, 47140, Note_off_c, 9, 42, 64
8, 47140, Note_off_c, 9, 35, 64
8, 47360, Note_on_c, 9, 42, 40
8, 47460, Note_off_c, 9, 42, 64
8, 47520, Note_on_c, 9, 38, 80
8, 47520, Note_on_c, 9, 42, 70
8, 47620, Note_off_c, 9, 42, 64
8, 47620, Note_off_c, 9, 38, 64
8, 47840, Note_on_c, 9, 35, 50
8, 47840, Note_on_c, 9, 42, 40
8, 47940, Note_off_c, 9, 42, 64
8, 47940, Note_off_c, 9, 35, 64
8, 48000, Note_on_c, 9, 35, 70
8, 48000, Note_on_c, 9, 42, 70
8, 48100, Note_off_c, 9, 42, 64
8, 48100, Note_off_c, 9, 35, 64
8, 48320, Note_on_c, 9, 42, 40
8, 48420, Note_off_c, 9, 42, 64
8, 48480, Note_on_c, 9, 38, 70
8, 48480, Note_on_c, 9, 42, 80
8, 48580, Note_off_c, 9, 42, 64
8, 48580, Note_off_c, 9, 38, 64
8, 48800, Note_on_c, 9, 35, 50
8, 48800, Note_on_c, 9, 42, 40
8, 48900, Note_off_c, 9, 42, 64
8, 48900, Note_off_c, 9, 35, 64
8, 48960, Note_on_c, 9, 35, 70
8, 48960, Note_on_c, 9, 42, 70
8, 49060, Note_off_c, 9, 42, 64
8, 49060, Note_off_c, 9, 35, 64
8, 49280, Note_on_c, 9, 42, 40
8, 49380, Note_off_c, 9, 42, 64
8, 49440, Note_on_c, 9, 38, 70
8, 49440, Note_on_c, 9, 42, 80
8, 49540, Note_off_c, 9, 42, 64
8, 49540, Note_off_c, 9, 38, 64
8, 49760, Note_on_c, 9, 35, 50
8, 49760, Note_on_c, 9, 42, 40
8, 49860, Note_off_c, 9, 42, 64
8, 49860, Note_off_c, 9, 35, 64
8, 49920, Note_on_c, 9, 35, 70
8, 49920, Note_on_c, 9, 42, 70
8, 50020, Note_off_c, 9, 42, 64
8, 50020, Note_off_c, 9, 35, 64
8, 50240, Note_on_c, 9, 42, 40
8, 50340, Note_off_c, 9, 42, 64
8, 50400, Note_on_c, 9, 38, 70
8, 50400, Note_on_c, 9, 42, 80
8, 50500, Note_off_c, 9, 42, 64
8, 50500, Note_off_c, 9, 38, 64
8, 50720, Note_on_c, 9, 35, 50
8, 50720, Note_on_c, 9, 42, 40
8, 50820, Note_off_c, 9, 42, 64
8, 50820, Note_off_c, 9, 35, 64
8, 50880, Note_on_c, 9, 35, 70
8, 50880, Note_on_c, 9, 42, 70
8, 50980, Note_off_c, 9, 42, 64
8, 50980, Note_off_c, 9, 35, 64
8, 51200, Note_on_c, 9, 42, 40
8, 51300, Note_off_c, 9, 42, 64
8, 51360, Note_on_c, 9, 38, 70
8, 51360, Note_on_c, 9, 42, 80
8, 51460, Note_off_c, 9, 42, 64
8, 51460, Note_off_c, 9, 38, 64
8, 51680, Note_on_c, 9, 35, 50
8, 51680, Note_on_c, 9, 42, 40
8, 51780, Note_off_c, 9, 42, 64
8, 51780, Note_off_c, 9, 35, 64
8, 51840, Note_on_c, 9, 35, 70
8, 51840, Note_on_c, 9, 42, 70
8, 51940, Note_off_c, 9, 42, 64
8, 51940, Note_off_c, 9, 35, 64
8, 52160, Note_on_c, 9, 42, 40
8, 52260, Note_off_c, 9, 42, 64
8, 52320, Note_on_c, 9, 38, 70
8, 52320, Note_on_c, 9, 42, 80
8, 52420, Note_off_c, 9, 42, 64
8, 52420, Note_off_c, 9, 38, 64
8, 52640, Note_on_c, 9, 35, 50
8, 52640, Note_on_c, 9, 42, 40
8, 52740, Note_off_c, 9, 42, 64
8, 52740, Note_off_c, 9, 35, 64
8, 52800, Note_on_c, 9, 35, 70
8, 52800, Note_on_c, 9, 42, 70
8, 52900, Note_off_c, 9, 42, 64
8, 52900, Note_off_c, 9, 35, 64
8, 53120, Note_on_c, 9, 42, 40
8, 53220, Note_off_c, 9, 42, 64
8, 53280, Note_on_c, 9, 38, 70
8, 53280, Note_on_c, 9, 42, 80
8, 53380, Note_off_c, 9, 42, 64
8, 53380, Note_off_c, 9, 38, 64
8, 53600, Note_on_c, 9, 35, 50
8, 53600, Note_on_c, 9, 42, 40
8, 53700, Note_off_c, 9, 42, 64
8, 53700, Note_off_c, 9, 35, 64
8, 53760, Note_on_c, 9, 35, 70
8, 53760, Note_on_c, 9, 42, 70
8, 53860, Note_off_c, 9, 42, 64
8, 53860, Note_off_c, 9, 35, 64
8, 54080, Note_on_c, 9, 42, 40
8, 54180, Note_off_c, 9, 42, 64
8, 54240, Note_on_c, 9, 38, 80
8, 54240, Note_on_c, 9, 42, 80
8, 54340, Note_off_c, 9, 42, 64
8, 54340, Note_off_c, 9, 38, 64
8, 54560, Note_on_c, 9, 35, 50
8, 54560, Note_on_c, 9, 42, 40
8, 54660, Note_off_c, 9, 42, 64
8, 54660, Note_off_c, 9, 35, 64
8, 54720, Note_on_c, 9, 35, 70
8, 54720, Note_on_c, 9, 42, 70
8, 54820, Note_off_c, 9, 42, 64
8, 54820, Note_off_c, 9, 35, 64
8, 55040, Note_on_c, 9, 38, 80
8, 55040, Note_on_c, 9, 42, 40
8, 55140, Note_off_c, 9, 42, 64
8, 55140, Note_off_c, 9, 38, 64
8, 55200, Note_on_c, 9, 38, 90
8, 55200, Note_on_c, 9, 42, 80
8, 55300, Note_off_c, 9, 42, 64
8, 55300, Note_off_c, 9, 38, 64
8, 55520, Note_on_c, 9, 35, 50
8, 55520, Note_on_c, 9, 42, 40
8, 55620, Note_off_c, 9, 42, 64
8, 55620, Note_off_c, 9, 35, 64
8, 55680, Note_on_c, 9, 35, 80
8, 55680, Note_on_c, 9, 49, 50
8, 55780, Note_off_c, 9, 49, 64
8, 55780, Note_off_c, 9, 35, 64
8, 56000, Note_on_c, 9, 35, 50
8, 56000, Note_on_c, 9, 42, 40
8, 56100, Note_off_c, 9, 42, 64
8, 56100, Note_off_c, 9, 35, 64
8, 56160, Note_on_c, 9, 38, 70
8, 56160, Note_on_c, 9, 42, 80
8, 56260, Note_off_c, 9, 42, 64
8, 56260, Note_off_c, 9, 38, 64
8, 56480, Note_on_c, 9, 35, 60
8, 56480, Note_on_c, 9, 42, 40
8, 56580, Note_off_c, 9, 42, 64
8, 56580, Note_off_c, 9, 35, 64
8, 56640, Note_on_c, 9, 35, 80
8, 56640, Note_on_c, 9, 42, 70
8, 56740, Note_off_c, 9, 42, 64
8, 56740, Note_off_c, 9, 35, 64
8, 56960, Note_on_c, 9, 42, 40
8, 57060, Note_off_c, 9, 42, 64
8, 57120, Note_on_c, 9, 38, 70
8, 57120, Note_on_c, 9, 42, 80
8, 57220, Note_off_c, 9, 42, 64
8, 57220, Note_off_c, 9, 38, 64
8, 57440, Note_on_c, 9, 35, 60
8, 57440, Note_on_c, 9, 42, 40
8, 57540, Note_off_c, 9, 42, 64
8, 57540, Note_off_c, 9, 35, 64
8, 57600, Note_on_c, 9, 35, 70
8, 57600, Note_on_c, 9, 42, 60
8, 57700, Note_off_c, 9, 42, 64
8, 57700, Note_off_c, 9, 35, 64
8, 57920, Note_on_c, 9, 42, 40
8, 58020, Note_off_c, 9, 42, 64
8, 58080, Note_on_c, 9, 38, 70
8, 58080, Note_on_c, 9, 42, 70
8, 58180, Note_off_c, 9, 42, 64
8, 58180, Note_off_c, 9, 38, 64
8, 58400, Note_on_c, 9, 35, 50
8, 58400, Note_on_c, 9, 42, 40
8, 58500, Note_off_c, 9, 42, 64
8, 58500, Note_off_c, 9, 35, 64
8, 58560, Note_on_c, 9, 35, 70
8, 58560, Note_on_c, 9, 42, 60
8, 58660, Note_off_c, 9, 42, 64
8, 58660, Note_off_c, 9, 35, 64
8, 58880, Note_on_c, 9, 42, 40
8, 58980, Note_off_c, 9, 42, 64
8, 59040, Note_on_c, 9, 38, 80
8, 59040, Note_on_c, 9, 42, 70
8, 59140, Note_off_c, 9, 42, 64
8, 59140, Note_off_c, 9, 38, 64
8, 59360, Note_on_c, 9, 35, 50
8, 59360, Note_on_c, 9, 42, 40
8, 59460, Note_off_c, 9, 42, 64
8, 59460, Note_off_c, 9, 35, 64
8, 59520, Note_on_c, 9, 35, 70
8, 59520, Note_on_c, 9, 42, 70
8, 59620, Note_off_c, 9, 42, 64
8, 59620, Note_off_c, 9, 35, 64
8, 59840, Note_on_c, 9, 42, 40
8, 59940, Note_off_c, 9, 42, 64
8, 60000, Note_on_c, 9, 38, 70
8, 60000, Note_on_c, 9, 42, 80
8, 60100, Note_off_c, 9, 42, 64
8, 60100, Note_off_c, 9, 38, 64
8, 60320, Note_on_c, 9, 35, 50
8, 60320, Note_on_c, 9, 42, 40
8, 60420, Note_off_c, 9, 42, 64
8, 60420, Note_off_c, 9, 35, 64
8, 60480, Note_on_c, 9, 35, 70
8, 60480, Note_on_c, 9, 42, 70
8, 60580, Note_off_c, 9, 42, 64
8, 60580, Note_off_c, 9, 35, 64
8, 60800, Note_on_c, 9, 42, 40
8, 60900, Note_off_c, 9, 42, 64
8, 60960, Note_on_c, 9, 38, 70
8, 60960, Note_on_c, 9, 42, 80
8, 61060, Note_off_c, 9, 42, 64
8, 61060, Note_off_c, 9, 38, 64
8, 61280, Note_on_c, 9, 35, 50
8, 61280, Note_on_c, 9, 42, 40
8, 61380, Note_off_c, 9, 42, 64
8, 61380, Note_off_c, 9, 35, 64
8, 61440, Note_on_c, 9, 35, 70
8, 61440, Note_on_c, 9, 42, 70
8, 61540, Note_off_c, 9, 42, 64
8, 61540, Note_off_c, 9, 35, 64
8, 61760, Note_on_c, 9, 42, 40
8, 61860, Note_off_c, 9, 42, 64
8, 61920, Note_on_c, 9, 38, 70
8, 61920, Note_on_c, 9, 42, 80
8, 62020, Note_off_c, 9, 42, 64
8, 62020, Note_off_c, 9, 38, 64
8, 62240, Note_on_c, 9, 35, 50
8, 62240, Note_on_c, 9, 42, 40
8, 62340, Note_off_c, 9, 42, 64
8, 62340, Note_off_c, 9, 35, 64
8, 62400, Note_on_c, 9, 35, 70
8, 62400, Note_on_c, 9, 42, 70
8, 62500, Note_off_c, 9, 42, 64
8, 62500, Note_off_c, 9, 35, 64
8, 62720, Note_on_c, 9, 38, 70
8, 62720, Note_on_c, 9, 42, 40
8, 62820, Note_off_c, 9, 42, 64
8, 62820, Note_off_c, 9, 38, 64
8, 62880, Note_on_c, 9, 38, 80
8, 62880, Note_on_c, 9, 42, 80
8, 62980, Note_off_c, 9, 42, 64
8, 62980, Note_off_c, 9, 38, 64
8, 63200, Note_on_c, 9, 35, 50
8, 63200, Note_on_c, 9, 42, 40
8, 63300, Note_off_c, 9, 42, 64
8, 63300, Note_off_c, 9, 35, 64
8, 63360, Note_on_c, 9, 35, 70
8, 63360, Note_on_c, 9, 42, 70
8, 63460, Note_off_c, 9, 42, 64
8, 63460, Note_off_c, 9, 35, 64
8, 63680, Note_on_c, 9, 42, 40
8, 63780, Note_off_c, 9, 42, 64
8, 63840, Note_on_c, 9, 38, 70
8, 63840, Note_on_c, 9, 42, 80
8, 63940, Note_off_c, 9, 42, 64
8, 63940, Note_off_c, 9, 38, 64
8, 64160, Note_on_c, 9, 35, 50
8, 64160, Note_on_c, 9, 42, 40
8, 64260, Note_off_c, 9, 42, 64
8, 64260, Note_off_c, 9, 35, 64
8, 64320, Note_on_c, 9, 35, 70
8, 64320, Note_on_c, 9, 42, 70
8, 64420, Note_off_c, 9, 42, 64
8, 64420, Note_off_c, 9, 35, 64
8, 64640, Note_on_c, 9, 42, 40
8, 64740, Note_off_c, 9, 42, 64
8, 64800, Note_on_c, 9, 38, 70
8, 64800, Note_on_c, 9, 42, 80
8, 64900, Note_off_c, 9, 42, 64
8, 64900, Note_off_c, 9, 38, 64
8, 65120, Note_on_c, 9, 35, 50
8, 65120, Note_on_c, 9, 42, 40
8, 65220, Note_off_c, 9, 42, 64
8, 65220, Note_off_c, 9, 35, 64
8, 65280, Note_on_c, 9, 35, 70
8, 65280, Note_on_c, 9, 42, 70
8, 65380, Note_off_c, 9, 42, 64
8, 65380, Note_off_c, 9, 35, 64
8, 65600, Note_on_c, 9, 42, 40
8, 65700, Note_off_c, 9, 42, 64
8, 65760, Note_on_c, 9, 38, 70
8, 65760, Note_on_c, 9, 42, 80
8, 65860, Note_off_c, 9, 42, 64
8, 65860, Note_off_c, 9, 38, 64
8, 66080, Note_on_c, 9, 35, 50
8, 66080, Note_on_c, 9, 42, 40
8, 66180, Note_off_c, 9, 42, 64
8, 66180, Note_off_c, 9, 35, 64
8, 66240, Note_on_c, 9, 35, 70
8, 66240, Note_on_c, 9, 42, 70
8, 66340, Note_off_c, 9, 42, 64
8, 66340, Note_off_c, 9, 35, 64
8, 66560, Note_on_c, 9, 42, 40
8, 66660, Note_off_c, 9, 42, 64
8, 66720, Note_on_c, 9, 38, 70
8, 66720, Note_on_c, 9, 42, 80
8, 66820, Note_off_c, 9, 42, 64
8, 66820, Note_off_c, 9, 38, 64
8, 67040, Note_on_c, 9, 35, 50
8, 67040, Note_on_c, 9, 42, 40
8, 67140, Note_off_c, 9, 42, 64
8, 67140, Note_off_c, 9, 35, 64
8, 67200, Note_on_c, 9, 35, 70
8, 67200, Note_on_c, 9, 42, 70
8, 67300, Note_off_c, 9, 42, 64
8, 67300, Note_off_c, 9, 35, 64
8, 67520, Note_on_c, 9, 42, 40
8, 67620, Note_off_c, 9, 42, 64
8, 67680, Note_on_c, 9, 38, 70
8, 67680, Note_on_c, 9, 42, 80
8, 67780, Note_off_c, 9, 42, 64
8, 67780, Note_off_c, 9, 38, 64
8, 68000, Note_on_c, 9, 35, 50
8, 68000, Note_on_c, 9, 42, 40
8, 68100, Note_off_c, 9, 42, 64
8, 68100, Note_off_c, 9, 35, 64
8, 68160, Note_on_c, 9, 35, 70
8, 68160, Note_on_c, 9, 42, 70
8, 68260, Note_off_c, 9, 42, 64
8, 68260, Note_off_c, 9, 35, 64
8, 68480, Note_on_c, 9, 42, 40
8, 68580, Note_off_c, 9, 42, 64
8, 68640, Note_on_c, 9, 38, 70
8, 68640, Note_on_c, 9, 42, 80
8, 68740, Note_off_c, 9, 42, 64
8, 68740, Note_off_c, 9, 38, 64
8, 68960, Note_on_c, 9, 35, 50
8, 68960, Note_on_c, 9, 42, 40
8, 69060, Note_off_c, 9, 42, 64
8, 69060, Note_off_c, 9, 35, 64
8, 69120, Note_on_c, 9, 35, 80
8, 69120, Note_on_c, 9, 42, 70
8, 69220, Note_off_c, 9, 42, 64
8, 69220, Note_off_c, 9, 35, 64
8, 69440, Note_on_c, 9, 42, 40
8, 69540, Note_off_c, 9, 42, 64
8, 69600, Note_on_c, 9, 38, 80
8, 69600, Note_on_c, 9, 42, 80
8, 69700, Note_off_c, 9, 42, 64
8, 69700, Note_off_c, 9, 38, 64
8, 69920, Note_on_c, 9, 35, 60
8, 69920, Note_on_c, 9, 42, 40
8, 70020, Note_off_c, 9, 42, 64
8, 70020, Note_off_c, 9, 35, 64
8, 70080, Note_on_c, 9, 35, 80
8, 70080, Note_on_c, 9, 42, 70
8, 70180, Note_off_c, 9, 42, 64
8, 70180, Note_off_c, 9, 35, 64
8, 70400, Note_on_c, 9, 42, 40
8, 70400, Note_on_c, 9, 45, 40
8, 70500, Note_off_c, 9, 45, 64
8, 70500, Note_off_c, 9, 42, 64
8, 70560, Note_on_c, 9, 35, 80
8, 70560, Note_on_c, 9, 48, 60
8, 70660, Note_off_c, 9, 48, 64
8, 70660, Note_off_c, 9, 35, 64
8, 70720, Note_on_c, 9, 45, 40
8, 70820, Note_off_c, 9, 45, 64
8, 70880, Note_on_c, 9, 35, 60
8, 70880, Note_on_c, 9, 41, 60
8, 70980, Note_off_c, 9, 41, 64
8, 70980, Note_off_c, 9, 35, 64
8, 71040, Note_on_c, 9, 35, 70
8, 71040, Note_on_c, 9, 49, 70
8, 71140, Note_off_c, 9, 49, 64
8, 71140, Note_off_c, 9, 35, 64
8, 71360, Note_on_c, 9, 42, 50
8, 71460, Note_off_c, 9, 42, 64
8, 71520, Note_on_c, 9, 38, 80
8, 71520, Note_on_c, 9, 42, 80
8, 71520, Note_on_c, 9, 37, 80
8, 71620, Note_off_c, 9, 37, 64
8, 71620, Note_off_c, 9, 42, 64
8, 71620, Note_off_c, 9, 38, 64
8, 71840, Note_on_c, 9, 35, 60
8, 71840, Note_on_c, 9, 42, 50
8, 71940, Note_off_c, 9, 42, 64
8, 71940, Note_off_c, 9, 35, 64
8, 72000, Note_on_c, 9, 35, 70
8, 72000, Note_on_c, 9, 42, 60
8, 72100, Note_off_c, 9, 42, 64
8, 72100, Note_off_c, 9, 35, 64
8, 72320, Note_on_c, 9, 42, 50
8, 72420, Note_off_c, 9, 42, 64
8, 72480, Note_on_c, 9, 38, 80
8, 72480, Note_on_c, 9, 42, 80
8, 72480, Note_on_c, 9, 37, 70
8, 72580, Note_off_c, 9, 37, 64
8, 72580, Note_off_c, 9, 42, 64
8, 72580, Note_off_c, 9, 38, 64
8, 72800, Note_on_c, 9, 35, 50
8, 72800, Note_on_c, 9, 46, 72
8, 72900, Note_off_c, 9, 46, 64
8, 72900, Note_off_c, 9, 35, 64
8, 72960, Note_on_c, 9, 35, 70
8, 72960, Note_on_c, 9, 42, 60
8, 73060, Note_off_c, 9, 42, 64
8, 73060, Note_off_c, 9, 35, 64
8, 73280, Note_on_c, 9, 42, 50
8, 73380, Note_off_c, 9, 42, 64
8, 73440, Note_on_c, 9, 38, 70
8, 73440, Note_on_c, 9, 42, 80
8, 73440, Note_on_c, 9, 37, 80
8, 73540, Note_off_c, 9, 37, 64
8, 73540, Note_off_c, 9, 42, 64
8, 73540, Note_off_c, 9, 38, 64
8, 73760, Note_on_c, 9, 35, 50
8, 73760, Note_on_c, 9, 42, 50
8, 73860, Note_off_c, 9, 42, 64
8, 73860, Note_off_c, 9, 35, 64
8, 73920, Note_on_c, 9, 35, 70
8, 73920, Note_on_c, 9, 42, 60
8, 74020, Note_off_c, 9, 42, 64
8, 74020, Note_off_c, 9, 35, 64
8, 74240, Note_on_c, 9, 42, 50
8, 74340, Note_off_c, 9, 42, 64
8, 74400, Note_on_c, 9, 38, 80
8, 74400, Note_on_c, 9, 42, 80
8, 74400, Note_on_c, 9, 37, 80
8, 74500, Note_off_c, 9, 37, 64
8, 74500, Note_off_c, 9, 42, 64
8, 74500, Note_off_c, 9, 38, 64
8, 74720, Note_on_c, 9, 35, 60
8, 74720, Note_on_c, 9, 46, 72
8, 74820, Note_off_c, 9, 46, 64
8, 74820, Note_off_c, 9, 35, 64
8, 74880, Note_on_c, 9, 35, 70
8, 74880, Note_on_c, 9, 42, 60
8, 74980, Note_off_c, 9, 42, 64
8, 74980, Note_off_c, 9, 35, 64
8, 75200, Note_on_c, 9, 42, 50
8, 75300, Note_off_c, 9, 42, 64
8, 75360, Note_on_c, 9, 38, 70
8, 75360, Note_on_c, 9, 42, 80
8, 75360, Note_on_c, 9, 37, 80
8, 75460, Note_off_c, 9, 37, 64
8, 75460, Note_off_c, 9, 42, 64
8, 75460, Note_off_c, 9, 38, 64
8, 75680, Note_on_c, 9, 35, 40
8, 75680, Note_on_c, 9, 42, 50
8, 75780, Note_off_c, 9, 42, 64
8, 75780, Note_off_c, 9, 35, 64
8, 75840, Note_on_c, 9, 35, 70
8, 75840, Note_on_c, 9, 42, 60
8, 75940, Note_off_c, 9, 42, 64
8, 75940, Note_off_c, 9, 35, 64
8, 76160, Note_on_c, 9, 35, 60
8, 76160, Note_on_c, 9, 42, 50
8, 76260, Note_off_c, 9, 42, 64
8, 76260, Note_off_c, 9, 35, 64
8, 76320, Note_on_c, 9, 38, 70
8, 76320, Note_on_c, 9, 42, 80
8, 76320, Note_on_c, 9, 37, 70
8, 76420, Note_off_c, 9, 37, 64
8, 76420, Note_off_c, 9, 42, 64
8, 76420, Note_off_c, 9, 38, 64
8, 76640, Note_on_c, 9, 35, 60
8, 76640, Note_on_c, 9, 42, 50
8, 76740, Note_off_c, 9, 42, 64
8, 76740, Note_off_c, 9, 35, 64
8, 76800, Note_on_c, 9, 35, 70
8, 76800, Note_on_c, 9, 42, 60
8, 76900, Note_off_c, 9, 42, 64
8, 76900, Note_off_c, 9, 35, 64
8, 77120, Note_on_c, 9, 42, 50
8, 77220, Note_off_c, 9, 42, 64
8, 77280, Note_on_c, 9, 38, 70
8, 77280, Note_on_c, 9, 42, 80
8, 77280, Note_on_c, 9, 37, 80
8, 77380, Note_off_c, 9, 37, 64
8, 77380, Note_off_c, 9, 42, 64
8, 77380, Note_off_c, 9, 38, 64
8, 77600, Note_on_c, 9, 35, 40
8, 77600, Note_on_c, 9, 42, 50
8, 77700, Note_off_c, 9, 42, 64
8, 77700, Note_off_c, 9, 35, 64
8, 77760, Note_on_c, 9, 35, 70
8, 77760, Note_on_c, 9, 42, 60
8, 77860, Note_off_c, 9, 42, 64
8, 77860, Note_off_c, 9, 35, 64
8, 78080, Note_on_c, 9, 35, 60
8, 78080, Note_on_c, 9, 42, 50
8, 78180, Note_off_c, 9, 42, 64
8, 78180, Note_off_c, 9, 35, 64
8, 78240, Note_on_c, 9, 38, 70
8, 78240, Note_on_c, 9, 42, 80
8, 78240, Note_on_c, 9, 37, 70
8, 78340, Note_off_c, 9, 37, 64
8, 78340, Note_off_c, 9, 42, 64
8, 78340, Note_off_c, 9, 38, 64
8, 78560, Note_on_c, 9, 35, 60
8, 78560, Note_on_c, 9, 46, 72
8, 78660, Note_off_c, 9, 46, 64
8, 78660, Note_off_c, 9, 35, 64
8, 78720, Note_on_c, 9, 35, 70
8, 78720, Note_on_c, 9, 42, 60
8, 78820, Note_off_c, 9, 42, 64
8, 78820, Note_off_c, 9, 35, 64
8, 79040, Note_on_c, 9, 42, 50
8, 79140, Note_off_c, 9, 42, 64
8, 79200, Note_on_c, 9, 38, 70
8, 79200, Note_on_c, 9, 42, 80
8, 79200, Note_on_c, 9, 37, 80
8, 79300, Note_off_c, 9, 37, 64
8, 79300, Note_off_c, 9, 42, 64
8, 79300, Note_off_c, 9, 38, 64
8, 79520, Note_on_c, 9, 35, 50
8, 79520, Note_on_c, 9, 42, 50
8, 79620, Note_off_c, 9, 42, 64
8, 79620, Note_off_c, 9, 35, 64
8, 79680, Note_on_c, 9, 35, 70
8, 79680, Note_on_c, 9, 42, 60
8, 79780, Note_off_c, 9, 42, 64
8, 79780, Note_off_c, 9, 35, 64
8, 80000, Note_on_c, 9, 42, 50
8, 80100, Note_off_c, 9, 42, 64
8, 80160, Note_on_c, 9, 38, 80
8, 80160, Note_on_c, 9, 42, 80
8, 80160, Note_on_c, 9, 37, 80
8, 80260, Note_off_c, 9, 37, 64
8, 80260, Note_off_c, 9, 42, 64
8, 80260, Note_off_c, 9, 38, 64
8, 80480, Note_on_c, 9, 35, 60
8, 80480, Note_on_c, 9, 42, 50
8, 80580, Note_off_c, 9, 42, 64
8, 80580, Note_off_c, 9, 35, 64
8, 80640, Note_on_c, 9, 35, 70
8, 80640, Note_on_c, 9, 42, 60
8, 80740, Note_off_c, 9, 42, 64
8, 80740, Note_off_c, 9, 35, 64
8, 80960, Note_on_c, 9, 42, 50
8, 81060, Note_off_c, 9, 42, 64
8, 81120, Note_on_c, 9, 38, 70
8, 81120, Note_on_c, 9, 42, 80
8, 81120, Note_on_c, 9, 37, 80
8, 81220, Note_off_c, 9, 37, 64
8, 81220, Note_off_c, 9, 42, 64
8, 81220, Note_off_c, 9, 38, 64
8, 81440, Note_on_c, 9, 35, 40
8, 81440, Note_on_c, 9, 42, 50
8, 81540, Note_off_c, 9, 42, 64
8, 81540, Note_off_c, 9, 35, 64
8, 81600, Note_on_c, 9, 35, 70
8, 81600, Note_on_c, 9, 42, 60
8, 81700, Note_off_c, 9, 42, 64
8, 81700, Note_off_c, 9, 35, 64
8, 81920, Note_on_c, 9, 35, 60
8, 81920, Note_on_c, 9, 42, 50
8, 82020, Note_off_c, 9, 42, 64
8, 82020, Note_off_c, 9, 35, 64
8, 82080, Note_on_c, 9, 38, 70
8, 82080, Note_on_c, 9, 42, 80
8, 82080, Note_on_c, 9, 37, 70
8, 82180, Note_off_c, 9, 37, 64
8, 82180, Note_off_c, 9, 42, 64
8, 82180, Note_off_c, 9, 38, 64
8, 82400, Note_on_c, 9, 35, 60
8, 82400, Note_on_c, 9, 42, 50
8, 82500, Note_off_c, 9, 42, 64
8, 82500, Note_off_c, 9, 35, 64
8, 82560, Note_on_c, 9, 35, 70
8, 82560, Note_on_c, 9, 42, 60
8, 82660, Note_off_c, 9, 42, 64
8, 82660, Note_off_c, 9, 35, 64
8, 82880, Note_on_c, 9, 42, 50
8, 82980, Note_off_c, 9, 42, 64
8, 83040, Note_on_c, 9, 38, 70
8, 83040, Note_on_c, 9, 42, 80
8, 83040, Note_on_c, 9, 37, 80
8, 83140, Note_off_c, 9, 37, 64
8, 83140, Note_off_c, 9, 42, 64
8, 83140, Note_off_c, 9, 38, 64
8, 83360, Note_on_c, 9, 35, 40
8, 83360, Note_on_c, 9, 42, 50
8, 83460, Note_off_c, 9, 42, 64
8, 83460, Note_off_c, 9, 35, 64
8, 83520, Note_on_c, 9, 35, 70
8, 83520, Note_on_c, 9, 42, 60
8, 83620, Note_off_c, 9, 42, 64
8, 83620, Note_off_c, 9, 35, 64
8, 83840, Note_on_c, 9, 35, 60
8, 83840, Note_on_c, 9, 42, 50
8, 83940, Note_off_c, 9, 42, 64
8, 83940, Note_off_c, 9, 35, 64
8, 84000, Note_on_c, 9, 38, 70
8, 84000, Note_on_c, 9, 42, 80
8, 84000, Note_on_c, 9, 37, 70
8, 84100, Note_off_c, 9, 37, 64
8, 84100, Note_off_c, 9, 42, 64
8, 84100, Note_off_c, 9, 38, 64
8, 84320, Note_on_c, 9, 35, 60
8, 84320, Note_on_c, 9, 42, 50
8, 84420, Note_off_c, 9, 42, 64
8, 84420, Note_off_c, 9, 35, 64
8, 84480, Note_on_c, 9, 35, 70
8, 84480, Note_on_c, 9, 42, 60
8, 84580, Note_off_c, 9, 42, 64
8, 84580, Note_off_c, 9, 35, 64
8, 84800, Note_on_c, 9, 42, 50
8, 84900, Note_off_c, 9, 42, 64
8, 84960, Note_on_c, 9, 38, 80
8, 84960, Note_on_c, 9, 42, 80
8, 84960, Note_on_c, 9, 37, 70
8, 85060, Note_off_c, 9, 37, 64
8, 85060, Note_off_c, 9, 42, 64
8, 85060, Note_off_c, 9, 38, 64
8, 85280, Note_on_c, 9, 35, 50
8, 85280, Note_on_c, 9, 42, 50
8, 85380, Note_off_c, 9, 42, 64
8, 85380, Note_off_c, 9, 35, 64
8, 85440, Note_on_c, 9, 35, 70
8, 85440, Note_on_c, 9, 42, 60
8, 85540, Note_off_c, 9, 42, 64
8, 85540, Note_off_c, 9, 35, 64
8, 85760, Note_on_c, 9, 38, 60
8, 85760, Note_on_c, 9, 42, 50
8, 85860, Note_off_c, 9, 42, 64
8, 85860, Note_off_c, 9, 38, 64
8, 85920, Note_on_c, 9, 38, 80
8, 85920, Note_on_c, 9, 42, 80
8, 85920, Note_on_c, 9, 37, 80
8, 86020, Note_off_c, 9, 37, 64
8, 86020, Note_off_c, 9, 42, 64
8, 86020, Note_off_c, 9, 38, 64
8, 86240, Note_on_c, 9, 35, 70
8, 86240, Note_on_c, 9, 38, 40
8, 86240, Note_on_c, 9, 42, 50
8, 86340, Note_off_c, 9, 42, 64
8, 86340, Note_off_c, 9, 38, 64
8, 86340, Note_off_c, 9, 35, 64
8, 86400, Note_on_c, 9, 35, 70
8, 86400, Note_on_c, 9, 42, 60
8, 86500, Note_off_c, 9, 42, 64
8, 86500, Note_off_c, 9, 35, 64
8, 86720, Note_on_c, 9, 42, 50
8, 86820, Note_off_c, 9, 42, 64
8, 86880, Note_on_c, 9, 38, 70
8, 86880, Note_on_c, 9, 42, 80
8, 86880, Note_on_c, 9, 37, 80
8, 86980, Note_off_c, 9, 37, 64
8, 86980, Note_off_c, 9, 42, 64
8, 86980, Note_off_c, 9, 38, 64
8, 87200, Note_on_c, 9, 35, 50
8, 87200, Note_on_c, 9, 42, 50
8, 87300, Note_off_c, 9, 42, 64
8, 87300, Note_off_c, 9, 35, 64
8, 87360, Note_on_c, 9, 35, 70
8, 87360, Note_on_c, 9, 42, 60
8, 87460, Note_off_c, 9, 42, 64
8, 87460, Note_off_c, 9, 35, 64
8, 87680, Note_on_c, 9, 42, 50
8, 87780, Note_off_c, 9, 42, 64
8, 87840, Note_on_c, 9, 38, 80
8, 87840, Note_on_c, 9, 42, 80
8, 87840, Note_on_c, 9, 37, 80
8, 87940, Note_off_c, 9, 37, 64
8, 87940, Note_off_c, 9, 42, 64
8, 87940, Note_off_c, 9, 38, 64
8, 88160, Note_on_c, 9, 35, 60
8, 88160, Note_on_c, 9, 46, 72
8, 88260, Note_off_c, 9, 46, 64
8, 88260, Note_off_c, 9, 35, 64
8, 88320, Note_on_c, 9, 35, 70
8, 88320, Note_on_c, 9, 42, 60
8, 88420, Note_off_c, 9, 42, 64
8, 88420, Note_off_c, 9, 35, 64
8, 88640, Note_on_c, 9, 42, 50
8, 88740, Note_off_c, 9, 42, 64
8, 88800, Note_on_c, 9, 38, 70
8, 88800, Note_on_c, 9, 42, 80
8, 88800, Note_on_c, 9, 37, 80
8, 88900, Note_off_c, 9, 37, 64
8, 88900, Note_off_c, 9, 42, 64
8, 88900, Note_off_c, 9, 38, 64
8, 89120, Note_on_c, 9, 35, 50
8, 89120, Note_on_c, 9, 42, 50
8, 89220, Note_off_c, 9, 42, 64
8, 89220, Note_off_c, 9, 35, 64
8, 89280, Note_on_c, 9, 35, 70
8, 89280, Note_on_c, 9, 42, 60
8, 89380, Note_off_c, 9, 42, 64
8, 89380, Note_off_c, 9, 35, 64
8, 89600, Note_on_c, 9, 42, 50
8, 89700, Note_off_c, 9, 42, 64
8, 89760, Note_on_c, 9, 38, 80
8, 89760, Note_on_c, 9, 42, 80
8, 89760, Note_on_c, 9, 37, 80
8, 89860, Note_off_c, 9, 37, 64
8, 89860, Note_off_c, 9, 42, 64
8, 89860, Note_off_c, 9, 38, 64
8, 90080, Note_on_c, 9, 35, 60
8, 90080, Note_on_c, 9, 46, 72
8, 90180, Note_off_c, 9, 46, 64
8, 90180, Note_off_c, 9, 35, 64
8, 90240, Note_on_c, 9, 35, 70
8, 90240, Note_on_c, 9, 42, 60
8, 90340, Note_off_c, 9, 42, 64
8, 90340, Note_off_c, 9, 35, 64
8, 90560, Note_on_c, 9, 42, 50
8, 90660, Note_off_c, 9, 42, 64
8, 90720, Note_on_c, 9, 38, 70
8, 90720, Note_on_c, 9, 42, 80
8, 90720, Note_on_c, 9, 37, 80
8, 90820, Note_off_c, 9, 37, 64
8, 90820, Note_off_c, 9, 42, 64
8, 90820, Note_off_c, 9, 38, 64
8, 91040, Note_on_c, 9, 35, 40
8, 91040, Note_on_c, 9, 42, 50
8, 91140, Note_off_c, 9, 42, 64
8, 91140, Note_off_c, 9, 35, 64
8, 91200, Note_on_c, 9, 35, 70
8, 91200, Note_on_c, 9, 42, 60
8, 91300, Note_off_c, 9, 42, 64
8, 91300, Note_off_c, 9, 35, 64
8, 91520, Note_on_c, 9, 35, 60
8, 91520, Note_on_c, 9, 42, 50
8, 91620, Note_off_c, 9, 42, 64
8, 91620, Note_off_c, 9, 35, 64
8, 91680, Note_on_c, 9, 38, 70
8, 91680, Note_on_c, 9, 42, 80
8, 91680, Note_on_c, 9, 37, 70
8, 91780, Note_off_c, 9, 37, 64
8, 91780, Note_off_c, 9, 42, 64
8, 91780, Note_off_c, 9, 38, 64
8, 92000, Note_on_c, 9, 35, 60
8, 92000, Note_on_c, 9, 42, 50
8, 92100, Note_off_c, 9, 42, 64
8, 92100, Note_off_c, 9, 35, 64
8, 92160, Note_on_c, 9, 35, 90
8, 92160, Note_on_c, 9, 42, 60
8, 92260, Note_off_c, 9, 42, 64
8, 92260, Note_off_c, 9, 35, 64
8, 92480, Note_on_c, 9, 42, 50
8, 92580, Note_off_c, 9, 42, 64
8, 92640, Note_on_c, 9, 38, 80
8, 92640, Note_on_c, 9, 42, 80
8, 92640, Note_on_c, 9, 37, 90
8, 92740, Note_off_c, 9, 37, 64
8, 92740, Note_off_c, 9, 42, 64
8, 92740, Note_off_c, 9, 38, 64
8, 92960, Note_on_c, 9, 35, 70
8, 92960, Note_on_c, 9, 42, 50
8, 93060, Note_off_c, 9, 42, 64
8, 93060, Note_off_c, 9, 35, 64
8, 93120, Note_on_c, 9, 35, 90
8, 93120, Note_on_c, 9, 42, 60
8, 93220, Note_off_c, 9, 42, 64
8, 93220, Note_off_c, 9, 35, 64
8, 93440, Note_on_c, 9, 38, 70
8, 93440, Note_on_c, 9, 42, 50
8, 93540, Note_off_c, 9, 42, 64
8, 93540, Note_off_c, 9, 38, 64
8, 93600, Note_on_c, 9, 38, 90
8, 93600, Note_on_c, 9, 42, 80
8, 93600, Note_on_c, 9, 37, 90
8, 93700, Note_off_c, 9, 37, 64
8, 93700, Note_off_c, 9, 42, 64
8, 93700, Note_off_c, 9, 38, 64
8, 93920, Note_on_c, 9, 35, 70
8, 93920, Note_on_c, 9, 38, 40
8, 93920, Note_on_c, 9, 46, 72
8, 94020, Note_off_c, 9, 46, 64
8, 94020, Note_off_c, 9, 38, 64
8, 94020, Note_off_c, 9, 35, 64
8, 94080, Note_on_c, 9, 35, 80
8, 94080, Note_on_c, 9, 49, 50
8, 94180, Note_off_c, 9, 49, 64
8, 94180, Note_off_c, 9, 35, 64
8, 94400, Note_on_c, 9, 42, 40
8, 94500, Note_off_c, 9, 42, 64
8, 94560, Note_on_c, 9, 38, 70
8, 94560, Note_on_c, 9, 42, 80
8, 94660, Note_off_c, 9, 42, 64
8, 94660, Note_off_c, 9, 38, 64
8, 94880, Note_on_c, 9, 35, 60
8, 94880, Note_on_c, 9, 42, 40
8, 94980, Note_off_c, 9, 42, 64
8, 94980, Note_off_c, 9, 35, 64
8, 95040, Note_on_c, 9, 35, 80
8, 95040, Note_on_c, 9, 42, 70
8, 95140, Note_off_c, 9, 42, 64
8, 95140, Note_off_c, 9, 35, 64
8, 95360, Note_on_c, 9, 42, 40
8, 95460, Note_off_c, 9, 42, 64
8, 95520, Note_on_c, 9, 38, 70
8, 95520, Note_on_c, 9, 42, 80
8, 95620, Note_off_c, 9, 42, 64
8, 95620, Note_off_c, 9, 38, 64
8, 95840, Note_on_c, 9, 35, 60
8, 95840, Note_on_c, 9, 42, 40
8, 95940, Note_off_c, 9, 42, 64
8, 95940, Note_off_c, 9, 35, 64
8, 96000, Note_on_c, 9, 35, 70
8, 96000, Note_on_c, 9, 42, 60
8, 96100, Note_off_c, 9, 42, 64
8, 96100, Note_off_c, 9, 35, 64
8, 96320, Note_on_c, 9, 42, 40
8, 96420, Note_off_c, 9, 42, 64
8, 96480, Note_on_c, 9, 38, 70
8, 96480, Note_on_c, 9, 42, 70
8, 96580, Note_off_c, 9, 42, 64
8, 96580, Note_off_c, 9, 38, 64
8, 96800, Note_on_c, 9, 35, 50
8, 96800, Note_on_c, 9, 42, 40
8, 96900, Note_off_c, 9, 42, 64
8, 96900, Note_off_c, 9, 35, 64
8, 96960, Note_on_c, 9, 35, 70
8, 96960, Note_on_c, 9, 42, 60
8, 97060, Note_off_c, 9, 42, 64
8, 97060, Note_off_c, 9, 35, 64
8, 97280, Note_on_c, 9, 42, 40
8, 97380, Note_off_c, 9, 42, 64
8, 97440, Note_on_c, 9, 38, 80
8, 97440, Note_on_c, 9, 42, 70
8, 97540, Note_off_c, 9, 42, 64
8, 97540, Note_off_c, 9, 38, 64
8, 97760, Note_on_c, 9, 35, 50
8, 97760, Note_on_c, 9, 42, 40
8, 97860, Note_off_c, 9, 42, 64
8, 97860, Note_off_c, 9, 35, 64
8, 97920, Note_on_c, 9, 35, 70
8, 97920, Note_on_c, 9, 42, 70
8, 98020, Note_off_c, 9, 42, 64
8, 98020, Note_off_c, 9, 35, 64
8, 98240, Note_on_c, 9, 42, 40
8, 98340, Note_off_c, 9, 42, 64
8, 98400, Note_on_c, 9, 38, 70
8, 98400, Note_on_c, 9, 42, 80
8, 98500, Note_off_c, 9, 42, 64
8, 98500, Note_off_c, 9, 38, 64
8, 98720, Note_on_c, 9, 35, 50
8, 98720, Note_on_c, 9, 42, 40
8, 98820, Note_off_c, 9, 42, 64
8, 98820, Note_off_c, 9, 35, 64
8, 98880, Note_on_c, 9, 35, 70
8, 98880, Note_on_c, 9, 42, 70
8, 98980, Note_off_c, 9, 42, 64
8, 98980, Note_off_c, 9, 35, 64
8, 99200, Note_on_c, 9, 42, 40
8, 99300, Note_off_c, 9, 42, 64
8, 99360, Note_on_c, 9, 38, 70
8, 99360, Note_on_c, 9, 42, 80
8, 99460, Note_off_c, 9, 42, 64
8, 99460, Note_off_c, 9, 38, 64
8, 99680, Note_on_c, 9, 35, 50
8, 99680, Note_on_c, 9, 42, 40
8, 99780, Note_off_c, 9, 42, 64
8, 99780, Note_off_c, 9, 35, 64
8, 99840, Note_on_c, 9, 35, 70
8, 99840, Note_on_c, 9, 42, 70
8, 99940, Note_off_c, 9, 42, 64
8, 99940, Note_off_c, 9, 35, 64
8, 100160, Note_on_c, 9, 42, 40
8, 100260, Note_off_c, 9, 42, 64
8, 100320, Note_on_c, 9, 38, 70
8, 100320, Note_on_c, 9, 42, 80
8, 100420, Note_off_c, 9, 42, 64
8, 100420, Note_off_c, 9, 38, 64
8, 100640, Note_on_c, 9, 35, 50
8, 100640, Note_on_c, 9, 42, 40
8, 100740, Note_off_c, 9, 42, 64
8, 100740, Note_off_c, 9, 35, 64
8, 100800, Note_on_c, 9, 35, 70
8, 100800, Note_on_c, 9, 42, 70
8, 100900, Note_off_c, 9, 42, 64
8, 100900, Note_off_c, 9, 35, 64
8, 101120, Note_on_c, 9, 42, 40
8, 101220, Note_off_c, 9, 42, 64
8, 101280, Note_on_c, 9, 38, 70
8, 101280, Note_on_c, 9, 42, 80
8, 101380, Note_off_c, 9, 42, 64
8, 101380, Note_off_c, 9, 38, 64
8, 101600, Note_on_c, 9, 35, 50
8, 101600, Note_on_c, 9, 42, 40
8, 101700, Note_off_c, 9, 42, 64
8, 101700, Note_off_c, 9, 35, 64
8, 101760, Note_on_c, 9, 35, 70
8, 101760, Note_on_c, 9, 42, 70
8, 101860, Note_off_c, 9, 42, 64
8, 101860, Note_off_c, 9, 35, 64
8, 102080, Note_on_c, 9, 42, 40
8, 102180, Note_off_c, 9, 42, 64
8, 102240, Note_on_c, 9, 38, 70
8, 102240, Note_on_c, 9, 42, 80
8, 102340, Note_off_c, 9, 42, 64
8, 102340, Note_off_c, 9, 38, 64
8, 102560, Note_on_c, 9, 35, 50
8, 102560, Note_on_c, 9, 42, 40
8, 102660, Note_off_c, 9, 42, 64
8, 102660, Note_off_c, 9, 35, 64
8, 102720, Note_on_c, 9, 35, 70
8, 102720, Note_on_c, 9, 42, 70
8, 102820, Note_off_c, 9, 42, 64
8, 102820, Note_off_c, 9, 35, 64
8, 103040, Note_on_c, 9, 42, 40
8, 103140, Note_off_c, 9, 42, 64
8, 103200, Note_on_c, 9, 38, 70
8, 103200, Note_on_c, 9, 42, 80
8, 103300, Note_off_c, 9, 42, 64
8, 103300, Note_off_c, 9, 38, 64
8, 103520, Note_on_c, 9, 35, 50
8, 103520, Note_on_c, 9, 42, 40
8, 103620, Note_off_c, 9, 42, 64
8, 103620, Note_off_c, 9, 35, 64
8, 103680, Note_on_c, 9, 35, 70
8, 103680, Note_on_c, 9, 42, 60
8, 103780, Note_off_c, 9, 42, 64
8, 103780, Note_off_c, 9, 35, 64
8, 104000, Note_on_c, 9, 42, 40
8, 104100, Note_off_c, 9, 42, 64
8, 104160, Note_on_c, 9, 38, 70
8, 104160, Note_on_c, 9, 42, 70
8, 104260, Note_off_c, 9, 42, 64
8, 104260, Note_off_c, 9, 38, 64
8, 104480, Note_on_c, 9, 35, 50
8, 104480, Note_on_c, 9, 42, 40
8, 104580, Note_off_c, 9, 42, 64
8, 104580, Note_off_c, 9, 35, 64
8, 104640, Note_on_c, 9, 35, 70
8, 104640, Note_on_c, 9, 42, 60
8, 104740, Note_off_c, 9, 42, 64
8, 104740, Note_off_c, 9, 35, 64
8, 104960, Note_on_c, 9, 42, 40
8, 105060, Note_off_c, 9, 42, 64
8, 105120, Note_on_c, 9, 38, 80
8, 105120, Note_on_c, 9, 42, 70
8, 105220, Note_off_c, 9, 42, 64
8, 105220, Note_off_c, 9, 38, 64
8, 105440, Note_on_c, 9, 35, 50
8, 105440, Note_on_c, 9, 42, 40
8, 105540, Note_off_c, 9, 42, 64
8, 105540, Note_off_c, 9, 35, 64
8, 105600, Note_on_c, 9, 35, 70
8, 105600, Note_on_c, 9, 42, 60
8, 105700, Note_off_c, 9, 42, 64
8, 105700, Note_off_c, 9, 35, 64
8, 105920, Note_on_c, 9, 42, 40
8, 106020, Note_off_c, 9, 42, 64
8, 106080, Note_on_c, 9, 38, 70
8, 106080, Note_on_c, 9, 42, 70
8, 106180, Note_off_c, 9, 42, 64
8, 106180, Note_off_c, 9, 38, 64
8, 106400, Note_on_c, 9, 35, 50
8, 106400, Note_on_c, 9, 42, 40
8, 106500, Note_off_c, 9, 42, 64
8, 106500, Note_off_c, 9, 35, 64
8, 106560, Note_on_c, 9, 35, 70
8, 106560, Note_on_c, 9, 42, 60
8, 106660, Note_off_c, 9, 42, 64
8, 106660, Note_off_c, 9, 35, 64
8, 106880, Note_on_c, 9, 42, 40
8, 106980, Note_off_c, 9, 42, 64
8, 107040, Note_on_c, 9, 38, 80
8, 107040, Note_on_c, 9, 42, 70
8, 107140, Note_off_c, 9, 42, 64
8, 107140, Note_off_c, 9, 38, 64
8, 107360, Note_on_c, 9, 35, 50
8, 107360, Note_on_c, 9, 42, 40
8, 107460, Note_off_c, 9, 42, 64
8, 107460, Note_off_c, 9, 35, 64
8, 107520, Note_on_c, 9, 35, 70
8, 107520, Note_on_c, 9, 42, 70
8, 107620, Note_off_c, 9, 42, 64
8, 107620, Note_off_c, 9, 35, 64
8, 107840, Note_on_c, 9, 42, 40
8, 107940, Note_off_c, 9, 42, 64
8, 108000, Note_on_c, 9, 38, 80
8, 108000, Note_on_c, 9, 42, 80
8, 108100, Note_off_c, 9, 42, 64
8, 108100, Note_off_c, 9, 38, 64
8, 108320, Note_on_c, 9, 35, 50
8, 108320, Note_on_c, 9, 42, 40
8, 108420, Note_off_c, 9, 42, 64
8, 108420, Note_off_c, 9, 35, 64
8, 108480, Note_on_c, 9, 35, 70
8, 108480, Note_on_c, 9, 42, 70
8, 108580, Note_off_c, 9, 42, 64
8, 108580, Note_off_c, 9, 35, 64
8, 108800, Note_on_c, 9, 38, 80
8, 108800, Note_on_c, 9, 42, 40
8, 108900, Note_off_c, 9, 42, 64
8, 108900, Note_off_c, 9, 38, 64
8, 108960, Note_on_c, 9, 38, 90
8, 108960, Note_on_c, 9, 42, 80
8, 109060, Note_off_c, 9, 42, 64
8, 109060, Note_off_c, 9, 38, 64
8, 109280, Note_on_c, 9, 35, 50
8, 109280, Note_on_c, 9, 42, 40
8, 109380, Note_off_c, 9, 42, 64
8, 109380, Note_off_c, 9, 35, 64
8, 109440, Note_on_c, 9, 35, 70
8, 109440, Note_on_c, 9, 42, 70
8, 109540, Note_off_c, 9, 42, 64
8, 109540, Note_off_c, 9, 35, 64
8, 109760, Note_on_c, 9, 42, 40
8, 109860, Note_off_c, 9, 42, 64
8, 109920, Note_on_c, 9, 38, 70
8, 109920, Note_on_c, 9, 42, 80
8, 110020, Note_off_c, 9, 42, 64
8, 110020, Note_off_c, 9, 38, 64
8, 110240, Note_on_c, 9, 35, 50
8, 110240, Note_on_c, 9, 42, 40
8, 110340, Note_off_c, 9, 42, 64
8, 110340, Note_off_c, 9, 35, 64
8, 110400, Note_on_c, 9, 35, 70
8, 110400, Note_on_c, 9, 42, 70
8, 110500, Note_off_c, 9, 42, 64
8, 110500, Note_off_c, 9, 35, 64
8, 110720, Note_on_c, 9, 42, 40
8, 110820, Note_off_c, 9, 42, 64
8, 110880, Note_on_c, 9, 38, 70
8, 110880, Note_on_c, 9, 42, 80
8, 110980, Note_off_c, 9, 42, 64
8, 110980, Note_off_c, 9, 38, 64
8, 111200, Note_on_c, 9, 35, 50
8, 111200, Note_on_c, 9, 42, 40
8, 111300, Note_off_c, 9, 42, 64
8, 111300, Note_off_c, 9, 35, 64
8, 111360, Note_on_c, 9, 35, 70
8, 111360, Note_on_c, 9, 42, 70
8, 111460, Note_off_c, 9, 42, 64
8, 111460, Note_off_c, 9, 35, 64
8, 111680, Note_on_c, 9, 42, 40
8, 111780, Note_off_c, 9, 42, 64
8, 111840, Note_on_c, 9, 38, 70
8, 111840, Note_on_c, 9, 42, 80
8, 111940, Note_off_c, 9, 42, 64
8, 111940, Note_off_c, 9, 38, 64
8, 112160, Note_on_c, 9, 35, 50
8, 112160, Note_on_c, 9, 42, 40
8, 112260, Note_off_c, 9, 42, 64
8, 112260, Note_off_c, 9, 35, 64
8, 112320, Note_on_c, 9, 35, 70
8, 112320, Note_on_c, 9, 42, 70
8, 112420, Note_off_c, 9, 42, 64
8, 112420, Note_off_c, 9, 35, 64
8, 112640, Note_on_c, 9, 42, 40
8, 112740, Note_off_c, 9, 42, 64
8, 112800, Note_on_c, 9, 38, 70
8, 112800, Note_on_c, 9, 42, 80
8, 112900, Note_off_c, 9, 42, 64
8, 112900, Note_off_c, 9, 38, 64
8, 113120, Note_on_c, 9, 35, 50
8, 113120, Note_on_c, 9, 42, 40
8, 113220, Note_off_c, 9, 42, 64
8, 113220, Note_off_c, 9, 35, 64
8, 113280, Note_on_c, 9, 35, 70
8, 113280, Note_on_c, 9, 42, 60
8, 113380, Note_off_c, 9, 42, 64
8, 113380, Note_off_c, 9, 35, 64
8, 113600, Note_on_c, 9, 42, 40
8, 113700, Note_off_c, 9, 42, 64
8, 113760, Note_on_c, 9, 38, 70
8, 113760, Note_on_c, 9, 42, 70
8, 113860, Note_off_c, 9, 42, 64
8, 113860, Note_off_c, 9, 38, 64
8, 114080, Note_on_c, 9, 35, 50
8, 114080, Note_on_c, 9, 42, 40
8, 114180, Note_off_c, 9, 42, 64
8, 114180, Note_off_c, 9, 35, 64
8, 114240, Note_on_c, 9, 35, 70
8, 114240, Note_on_c, 9, 42, 60
8, 114340, Note_off_c, 9, 42, 64
8, 114340, Note_off_c, 9, 35, 64
8, 114560, Note_on_c, 9, 42, 40
8, 114660, Note_off_c, 9, 42, 64
8, 114720, Note_on_c, 9, 38, 80
8, 114720, Note_on_c, 9, 42, 70
8, 114820, Note_off_c, 9, 42, 64
8, 114820, Note_off_c, 9, 38, 64
8, 115040, Note_on_c, 9, 35, 50
8, 115040, Note_on_c, 9, 42, 40
8, 115140, Note_off_c, 9, 42, 64
8, 115140, Note_off_c, 9, 35, 64
8, 115200, Note_on_c, 9, 35, 70
8, 115200, Note_on_c, 9, 42, 70
8, 115300, Note_off_c, 9, 42, 64
8, 115300, Note_off_c, 9, 35, 64
8, 115520, Note_on_c, 9, 42, 40
8, 115620, Note_off_c, 9, 42, 64
8, 115680, Note_on_c, 9, 38, 70
8, 115680, Note_on_c, 9, 42, 80
8, 115780, Note_off_c, 9, 42, 64
8, 115780, Note_off_c, 9, 38, 64
8, 116000, Note_on_c, 9, 35, 50
8, 116000, Note_on_c, 9, 42, 40
8, 116100, Note_off_c, 9, 42, 64
8, 116100, Note_off_c, 9, 35, 64
8, 116160, Note_on_c, 9, 35, 70
8, 116160, Note_on_c, 9, 42, 70
8, 116260, Note_off_c, 9, 42, 64
8, 116260, Note_off_c, 9, 35, 64
8, 116480, Note_on_c, 9, 42, 40
8, 116580, Note_off_c, 9, 42, 64
8, 116640, Note_on_c, 9, 38, 70
8, 116640, Note_on_c, 9, 42, 80
8, 116740, Note_off_c, 9, 42, 64
8, 116740, Note_off_c, 9, 38, 64
8, 116960, Note_on_c, 9, 35, 50
8, 116960, Note_on_c, 9, 42, 40
8, 117060, Note_off_c, 9, 42, 64
8, 117060, Note_off_c, 9, 35, 64
8, 117120, Note_on_c, 9, 35, 70
8, 117120, Note_on_c, 9, 42, 70
8, 117220, Note_off_c, 9, 42, 64
8, 117220, Note_off_c, 9, 35, 64
8, 117440, Note_on_c, 9, 42, 40
8, 117540, Note_off_c, 9, 42, 64
8, 117600, Note_on_c, 9, 38, 70
8, 117600, Note_on_c, 9, 42, 80
8, 117700, Note_off_c, 9, 42, 64
8, 117700, Note_off_c, 9, 38, 64
8, 117920, Note_on_c, 9, 35, 50
8, 117920, Note_on_c, 9, 42, 40
8, 118020, Note_off_c, 9, 42, 64
8, 118020, Note_off_c, 9, 35, 64
8, 118080, Note_on_c, 9, 35, 70
8, 118080, Note_on_c, 9, 42, 70
8, 118180, Note_off_c, 9, 42, 64
8, 118180, Note_off_c, 9, 35, 64
8, 118400, Note_on_c, 9, 42, 40
8, 118500, Note_off_c, 9, 42, 64
8, 118560, Note_on_c, 9, 38, 70
8, 118560, Note_on_c, 9, 42, 80
8, 118660, Note_off_c, 9, 42, 64
8, 118660, Note_off_c, 9, 38, 64
8, 118880, Note_on_c, 9, 35, 50
8, 118880, Note_on_c, 9, 42, 40
8, 118980, Note_off_c, 9, 42, 64
8, 118980, Note_off_c, 9, 35, 64
8, 119040, Note_on_c, 9, 35, 70
8, 119040, Note_on_c, 9, 42, 70
8, 119140, Note_off_c, 9, 42, 64
8, 119140, Note_off_c, 9, 35, 64
8, 119360, Note_on_c, 9, 42, 40
8, 119460, Note_off_c, 9, 42, 64
8, 119520, Note_on_c, 9, 38, 70
8, 119520, Note_on_c, 9, 42, 80
8, 119620, Note_off_c, 9, 42, 64
8, 119620, Note_off_c, 9, 38, 64
8, 119840, Note_on_c, 9, 35, 50
8, 119840, Note_on_c, 9, 42, 40
8, 119940, Note_off_c, 9, 42, 64
8, 119940, Note_off_c, 9, 35, 64
8, 120000, Note_on_c, 9, 35, 70
8, 120000, Note_on_c, 9, 42, 70
8, 120100, Note_off_c, 9, 42, 64
8, 120100, Note_off_c, 9, 35, 64
8, 120320, Note_on_c, 9, 42, 40
8, 120420, Note_off_c, 9, 42, 64
8, 120480, Note_on_c, 9, 38, 70
8, 120480, Note_on_c, 9, 42, 80
8, 120580, Note_off_c, 9, 42, 64
8, 120580, Note_off_c, 9, 38, 64
8, 120800, Note_on_c, 9, 35, 50
8, 120800, Note_on_c, 9, 42, 40
8, 120900, Note_off_c, 9, 42, 64
8, 120900, Note_off_c, 9, 35, 64
8, 120960, Note_on_c, 9, 35, 70
8, 120960, Note_on_c, 9, 42, 70
8, 121060, Note_off_c, 9, 42, 64
8, 121060, Note_off_c, 9, 35, 64
8, 121280, Note_on_c, 9, 42, 40
8, 121380, Note_off_c, 9, 42, 64
8, 121440, Note_on_c, 9, 38, 70
8, 121440, Note_on_c, 9, 42, 80
8, 121540, Note_off_c, 9, 42, 64
8, 121540, Note_off_c, 9, 38, 64
8, 121760, Note_on_c, 9, 35, 50
8, 121760, Note_on_c, 9, 42, 40
8, 121860, Note_off_c, 9, 42, 64
8, 121860, Note_off_c, 9, 35, 64
8, 121920, Note_on_c, 9, 35, 70
8, 121920, Note_on_c, 9, 42, 70
8, 122020, Note_off_c, 9, 42, 64
8, 122020, Note_off_c, 9, 35, 64
8, 122240, Note_on_c, 9, 42, 40
8, 122340, Note_off_c, 9, 42, 64
8, 122400, Note_on_c, 9, 38, 70
8, 122400, Note_on_c, 9, 42, 80
8, 122500, Note_off_c, 9, 42, 64
8, 122500, Note_off_c, 9, 38, 64
8, 122720, Note_on_c, 9, 35, 50
8, 122720, Note_on_c, 9, 42, 40
8, 122820, Note_off_c, 9, 42, 64
8, 122820, Note_off_c, 9, 35, 64
8, 122880, Note_on_c, 9, 35, 80
8, 122880, Note_on_c, 9, 42, 70
8, 122980, Note_off_c, 9, 42, 64
8, 122980, Note_off_c, 9, 35, 64
8, 123200, Note_on_c, 9, 42, 40
8, 123300, Note_off_c, 9, 42, 64
8, 123360, Note_on_c, 9, 38, 80
8, 123360, Note_on_c, 9, 42, 80
8, 123460, Note_off_c, 9, 42, 64
8, 123460, Note_off_c, 9, 38, 64
8, 123680, Note_on_c, 9, 35, 60
8, 123680, Note_on_c, 9, 38, 90
8, 123680, Note_on_c, 9, 42, 40
8, 123680, Note_on_c, 9, 49, 40
8, 123780, Note_off_c, 9, 49, 64
8, 123780, Note_off_c, 9, 42, 64
8, 123780, Note_off_c, 9, 38, 64
8, 123780, Note_off_c, 9, 35, 64
8, 123840, Note_on_c, 9, 35, 80
8, 123840, Note_on_c, 9, 42, 70
8, 123940, Note_off_c, 9, 42, 64
8, 123940, Note_off_c, 9, 35, 64
8, 124000, Note_on_c, 9, 38, 60
8, 124100, Note_off_c, 9, 38, 64
8, 124160, Note_on_c, 9, 38, 50
8, 124160, Note_on_c, 9, 42, 40
8, 124260, Note_off_c, 9, 42, 64
8, 124260, Note_off_c, 9, 38, 64
8, 124320, Note_on_c, 9, 35, 80
8, 124320, Note_on_c, 9, 38, 90
8, 124420, Note_off_c, 9, 38, 64
8, 124420, Note_off_c, 9, 35, 64
8, 124480, Note_on_c, 9, 38, 60
8, 124580, Note_off_c, 9, 38, 64
8, 124640, Note_on_c, 9, 35, 60
8, 124640, Note_on_c, 9, 38, 80
8, 124740, Note_off_c, 9, 38, 64
8, 124740, Note_off_c, 9, 35, 64
8, 124800, Note_on_c, 9, 35, 70
8, 124800, Note_on_c, 9, 42, 70
8, 124900, Note_off_c, 9, 42, 64
8, 124900, Note_off_c, 9, 35, 64
8, 125120, Note_on_c, 9, 42, 40
8, 125220, Note_off_c, 9, 42, 64
8, 125280, Note_on_c, 9, 38, 70
8, 125280, Note_on_c, 9, 42, 80
8, 125380, Note_off_c, 9, 42, 64
8, 125380, Note_off_c, 9, 38, 64
8, 125600, Note_on_c, 9, 35, 50
8, 125600, Note_on_c, 9, 42, 40
8, 125700, Note_off_c, 9, 42, 64
8, 125700, Note_off_c, 9, 35, 64
8, 125760, Note_on_c, 9, 35, 70
8, 125760, Note_on_c, 9, 42, 70
8, 125860, Note_off_c, 9, 42, 64
8, 125860, Note_off_c, 9, 35, 64
8, 126080, Note_on_c, 9, 42, 40
8, 126180, Note_off_c, 9, 42, 64
8, 126240, Note_on_c, 9, 38, 70
8, 126240, Note_on_c, 9, 42, 80
8, 126340, Note_off_c, 9, 42, 64
8, 126340, Note_off_c, 9, 38, 64
8, 126560, Note_on_c, 9, 35, 50
8, 126560, Note_on_c, 9, 42, 40
8, 126660, Note_off_c, 9, 42, 64
8, 126660, Note_off_c, 9, 35, 64
8, 126720, Note_on_c, 9, 35, 70
8, 126720, Note_on_c, 9, 42, 60
8, 126820, Note_off_c, 9, 42, 64
8, 126820, Note_off_c, 9, 35, 64
8, 127040, Note_on_c, 9, 42, 40
8, 127140, Note_off_c, 9, 42, 64
8, 127200, Note_on_c, 9, 38, 70
8, 127200, Note_on_c, 9, 42, 70
8, 127300, Note_off_c, 9, 42, 64
8, 127300, Note_off_c, 9, 38, 64
8, 127520, Note_on_c, 9, 35, 50
8, 127520, Note_on_c, 9, 42, 40
8, 127620, Note_off_c, 9, 42, 64
8, 127620, Note_off_c, 9, 35, 64
8, 127680, Note_on_c, 9, 35, 70
8, 127680, Note_on_c, 9, 42, 60
8, 127780, Note_off_c, 9, 42, 64
8, 127780, Note_off_c, 9, 35, 64
8, 128000, Note_on_c, 9, 42, 40
8, 128100, Note_off_c, 9, 42, 64
8, 128160, Note_on_c, 9, 38, 80
8, 128160, Note_on_c, 9, 42, 70
8, 128260, Note_off_c, 9, 42, 64
8, 128260, Note_off_c, 9, 38, 64
8, 128480, Note_on_c, 9, 35, 50
8, 128480, Note_on_c, 9, 42, 40
8, 128580, Note_off_c, 9, 42, 64
8, 128580, Note_off_c, 9, 35, 64
8, 128640, Note_on_c, 9, 35, 70
8, 128640, Note_on_c, 9, 42, 70
8, 128740, Note_off_c, 9, 42, 64
8, 128740, Note_off_c, 9, 35, 64
8, 128960, Note_on_c, 9, 42, 40
8, 129060, Note_off_c, 9, 42, 64
8, 129120, Note_on_c, 9, 38, 70
8, 129120, Note_on_c, 9, 42, 80
8, 129220, Note_off_c, 9, 42, 64
8, 129220, Note_off_c, 9, 38, 64
8, 129440, Note_on_c, 9, 35, 50
8, 129440, Note_on_c, 9, 42, 40
8, 129540, Note_off_c, 9, 42, 64
8, 129540, Note_off_c, 9, 35, 64
8, 129600, Note_on_c, 9, 35, 70
8, 129600, Note_on_c, 9, 42, 70
8, 129700, Note_off_c, 9, 42, 64
8, 129700, Note_off_c, 9, 35, 64
8, 129920, Note_on_c, 9, 42, 40
8, 130020, Note_off_c, 9, 42, 64
8, 130080, Note_on_c, 9, 38, 70
8, 130080, Note_on_c, 9, 42, 80
8, 130180, Note_off_c, 9, 42, 64
8, 130180, Note_off_c, 9, 38, 64
8, 130400, Note_on_c, 9, 35, 50
8, 130400, Note_on_c, 9, 42, 40
8, 130500, Note_off_c, 9, 42, 64
8, 130500, Note_off_c, 9, 35, 64
8, 130560, Note_on_c, 9, 35, 70
8, 130560, Note_on_c, 9, 42, 60
8, 130660, Note_off_c, 9, 42, 64
8, 130660, Note_off_c, 9, 35, 64
8, 130880, Note_on_c, 9, 42, 40
8, 130980, Note_off_c, 9, 42, 64
8, 131040, Note_on_c, 9, 38, 70
8, 131040, Note_on_c, 9, 42, 70
8, 131140, Note_off_c, 9, 42, 64
8, 131140, Note_off_c, 9, 38, 64
8, 131360, Note_on_c, 9, 35, 50
8, 131360, Note_on_c, 9, 42, 40
8, 131460, Note_off_c, 9, 42, 64
8, 131460, Note_off_c, 9, 35, 64
8, 131520, Note_on_c, 9, 35, 70
8, 131520, Note_on_c, 9, 42, 60
8, 131620, Note_off_c, 9, 42, 64
8, 131620, Note_off_c, 9, 35, 64
8, 131840, Note_on_c, 9, 42, 40
8, 131940, Note_off_c, 9, 42, 64
8, 132000, Note_on_c, 9, 38, 80
8, 132000, Note_on_c, 9, 42, 70
8, 132100, Note_off_c, 9, 42, 64
8, 132100, Note_off_c, 9, 38, 64
8, 132320, Note_on_c, 9, 35, 50
8, 132320, Note_on_c, 9, 42, 40
8, 132420, Note_off_c, 9, 42, 64
8, 132420, Note_off_c, 9, 35, 64
8, 132480, Note_on_c, 9, 35, 70
8, 132480, Note_on_c, 9, 42, 60
8, 132580, Note_off_c, 9, 42, 64
8, 132580, Note_off_c, 9, 35, 64
8, 132800, Note_on_c, 9, 42, 40
8, 132900, Note_off_c, 9, 42, 64
8, 132960, Note_on_c, 9, 38, 70
8, 132960, Note_on_c, 9, 42, 70
8, 133060, Note_off_c, 9, 42, 64
8, 133060, Note_off_c, 9, 38, 64
8, 133280, Note_on_c, 9, 35, 50
8, 133280, Note_on_c, 9, 42, 40
8, 133380, Note_off_c, 9, 42, 64
8, 133380, Note_off_c, 9, 35, 64
8, 133440, Note_on_c, 9, 35, 70
8, 133440, Note_on_c, 9, 42, 60
8, 133540, Note_off_c, 9, 42, 64
8, 133540, Note_off_c, 9, 35, 64
8, 133760, Note_on_c, 9, 42, 40
8, 133860, Note_off_c, 9, 42, 64
8, 133920, Note_on_c, 9, 38, 80
8, 133920, Note_on_c, 9, 42, 70
8, 134020, Note_off_c, 9, 42, 64
8, 134020, Note_off_c, 9, 38, 64
8, 134240, Note_on_c, 9, 35, 50
8, 134240, Note_on_c, 9, 42, 40
8, 134340, Note_off_c, 9, 42, 64
8, 134340, Note_off_c, 9, 35, 64
8, 134400, Note_on_c, 9, 35, 70
8, 134400, Note_on_c, 9, 42, 70
8, 134500, Note_off_c, 9, 42, 64
8, 134500, Note_off_c, 9, 35, 64
8, 134720, Note_on_c, 9, 42, 40
8, 134820, Note_off_c, 9, 42, 64
8, 134880, Note_on_c, 9, 38, 70
8, 134880, Note_on_c, 9, 42, 80
8, 134980, Note_off_c, 9, 42, 64
8, 134980, Note_off_c, 9, 38, 64
8, 135200, Note_on_c, 9, 35, 50
8, 135200, Note_on_c, 9, 42, 40
8, 135300, Note_off_c, 9, 42, 64
8, 135300, Note_off_c, 9, 35, 64
8, 135360, Note_on_c, 9, 35, 70
8, 135360, Note_on_c, 9, 42, 70
8, 135460, Note_off_c, 9, 42, 64
8, 135460, Note_off_c, 9, 35, 64
8, 135680, Note_on_c, 9, 42, 40
8, 135780, Note_off_c, 9, 42, 64
8, 135840, Note_on_c, 9, 38, 70
8, 135840, Note_on_c, 9, 42, 80
8, 135940, Note_off_c, 9, 42, 64
8, 135940, Note_off_c, 9, 38, 64
8, 136160, Note_on_c, 9, 35, 50
8, 136160, Note_on_c, 9, 42, 40
8, 136260, Note_off_c, 9, 42, 64
8, 136260, Note_off_c, 9, 35, 64
8, 136320, Note_on_c, 9, 35, 70
8, 136320, Note_on_c, 9, 42, 70
8, 136320, Control_c, 9, 7, 108
8, 136420, Note_off_c, 9, 42, 64
8, 136420, Note_off_c, 9, 35, 64
8, 136560, Control_c, 9, 7, 105
8, 136640, Note_on_c, 9, 42, 40
8, 136740, Note_off_c, 9, 42, 64
8, 136800, Note_on_c, 9, 38, 70
8, 136800, Note_on_c, 9, 42, 80
8, 136800, Control_c, 9, 7, 103
8, 136900, Note_off_c, 9, 42, 64
8, 136900, Note_off_c, 9, 38, 64
8, 137040, Control_c, 9, 7, 101
8, 137120, Note_on_c, 9, 35, 50
8, 137120, Note_on_c, 9, 42, 40
8, 137220, Note_off_c, 9, 42, 64
8, 137220, Note_off_c, 9, 35, 64
8, 137280, Note_on_c, 9, 35, 70
8, 137280, Note_on_c, 9, 42, 70
8, 137280, Control_c, 9, 7, 98
8, 137380, Note_off_c, 9, 42, 64
8, 137380, Note_off_c, 9, 35, 64
8, 137520, Control_c, 9, 7, 96
8, 137600, Note_on_c, 9, 42, 40
8, 137700, Note_off_c, 9, 42, 64
8, 137760, Note_on_c, 9, 38, 70
8, 137760, Note_on_c, 9, 42, 80
8, 137760, Control_c, 9, 7, 94
8, 137860, Note_off_c, 9, 42, 64
8, 137860, Note_off_c, 9, 38, 64
8, 138000, Control_c, 9, 7, 92
8, 138080, Note_on_c, 9, 35, 50
8, 138080, Note_on_c, 9, 42, 40
8, 138180, Note_off_c, 9, 42, 64
8, 138180, Note_off_c, 9, 35, 64
8, 138240, Note_on_c, 9, 35, 70
8, 138240, Note_on_c, 9, 42, 70
8, 138240, Control_c, 9, 7, 89
8, 138340, Note_off_c, 9, 42, 64
8, 138340, Note_off_c, 9, 35, 64
8, 138480, Control_c, 9, 7, 87
8, 138560, Note_on_c, 9, 42, 40
8, 138660, Note_off_c, 9, 42, 64
8, 138720, Note_on_c, 9, 38, 80
8, 138720, Note_on_c, 9, 42, 80
8, 138720, Control_c, 9, 7, 85
8, 138820, Note_off_c, 9, 42, 64
8, 138820, Note_off_c, 9, 38, 64
8, 138960, Control_c, 9, 7, 83
8, 139040, Note_on_c, 9, 35, 50
8, 139040, Note_on_c, 9, 42, 40
8, 139140, Note_off_c, 9, 42, 64
8, 139140, Note_off_c, 9, 35, 64
8, 139200, Note_on_c, 9, 35, 70
8, 139200, Note_on_c, 9, 42, 70
8, 139200, Control_c, 9, 7, 80
8, 139300, Note_off_c, 9, 42, 64
8, 139300, Note_off_c, 9, 35, 64
8, 139440, Control_c, 9, 7, 78
8, 139520, Note_on_c, 9, 38, 80
8, 139520, Note_on_c, 9, 42, 40
8, 139620, Note_off_c, 9, 42, 64
8, 139620, Note_off_c, 9, 38, 64
8, 139680, Note_on_c, 9, 38, 90
8, 139680, Note_on_c, 9, 42, 80
8, 139680, Control_c, 9, 7, 76
8, 139780, Note_off_c, 9, 42, 64
8, 139780, Note_off_c, 9, 38, 64
8, 139920, Control_c, 9, 7, 74
8, 140000, Note_on_c, 9, 35, 50
8, 140000, Note_on_c, 9, 42, 40
8, 140100, Note_off_c, 9, 42, 64
8, 140100, Note_off_c, 9, 35, 64
8, 140160, Note_on_c, 9, 35, 80
8, 140160, Note_on_c, 9, 49, 50
8, 140160, Control_c, 9, 7, 71
8, 140260, Note_off_c, 9, 49, 64
8, 140260, Note_off_c, 9, 35, 64
8, 140400, Control_c, 9, 7, 69
8, 140480, Note_on_c, 9, 35, 50
8, 140480, Note_on_c, 9, 42, 40
8, 140580, Note_off_c, 9, 42, 64
8, 140580, Note_off_c, 9, 35, 64
8, 140640, Note_on_c, 9, 38, 70
8, 140640, Note_on_c, 9, 42, 80
8, 140640, Control_c, 9, 7, 67
8, 140740, Note_off_c, 9, 42, 64
8, 140740, Note_off_c, 9, 38, 64
8, 140880, Control_c, 9, 7, 65
8, 140960, Note_on_c, 9, 35, 60
8, 140960, Note_on_c, 9, 42, 40
8, 141060, Note_off_c, 9, 42, 64
8, 141060, Note_off_c, 9, 35, 64
8, 141120, Note_on_c, 9, 35, 80
8, 141120, Note_on_c, 9, 42, 70
8, 141120, Control_c, 9, 7, 62
8, 141220, Note_off_c, 9, 42, 64
8, 141220, Note_off_c, 9, 35, 64
8, 141360, Control_c, 9, 7, 60
8, 141440, Note_on_c, 9, 42, 40
8, 141540, Note_off_c, 9, 42, 64
8, 141600, Note_on_c, 9, 38, 70
8, 141600, Note_on_c, 9, 42, 80
8, 141600, Control_c, 9, 7, 58
8, 141700, Note_off_c, 9, 42, 64
8, 141700, Note_off_c, 9, 38, 64
8, 141840, Control_c, 9, 7, 56
8, 141920, Note_on_c, 9, 35, 60
8, 141920, Note_on_c, 9, 42, 40
8, 142020, Note_off_c, 9, 42, 64
8, 142020, Note_off_c, 9, 35, 64
8, 142080, Note_on_c, 9, 35, 70
8, 142080, Note_on_c, 9, 42, 70
8, 142080, Control_c, 9, 7, 53
8, 142180, Note_off_c, 9, 42, 64
8, 142180, Note_off_c, 9, 35, 64
8, 142320, Control_c, 9, 7, 51
8, 142400, Note_on_c, 9, 42, 40
8, 142500, Note_off_c, 9, 42, 64
8, 142560, Note_on_c, 9, 38, 70
8, 142560, Note_on_c, 9, 42, 80
8, 142560, Control_c, 9, 7, 49
8, 142660, Note_off_c, 9, 42, 64
8, 142660, Note_off_c, 9, 38, 64
8, 142800, Control_c, 9, 7, 47
8, 142880, Note_on_c, 9, 35, 50
8, 142880, Note_on_c, 9, 42, 40
8, 142980, Note_off_c, 9, 42, 64
8, 142980, Note_off_c, 9, 35, 64
8, 143040, Note_on_c, 9, 35, 70
8, 143040, Note_on_c, 9, 42, 70
8, 143040, Control_c, 9, 7, 44
8, 143140, Note_off_c, 9, 42, 64
8, 143140, Note_off_c, 9, 35, 64
8, 143280, Control_c, 9, 7, 42
8, 143360, Note_on_c, 9, 42, 40
8, 143460, Note_off_c, 9, 42, 64
8, 143520, Note_on_c, 9, 38, 70
8, 143520, Note_on_c, 9, 42, 80
8, 143520, Control_c, 9, 7, 40
8, 143620, Note_off_c, 9, 42, 64
8, 143620, Note_off_c, 9, 38, 64
8, 143760, Control_c, 9, 7, 38
8, 143840, Note_on_c, 9, 35, 50
8, 143840, Note_on_c, 9, 42, 40
8, 143940, Note_off_c, 9, 42, 64
8, 143940, Note_off_c, 9, 35, 64
8, 144000, Note_on_c, 9, 35, 70
8, 144000, Note_on_c, 9, 42, 70
8, 144000, Control_c, 9, 7, 35
8, 144100, Note_off_c, 9, 42, 64
8, 144100, Note_off_c, 9, 35, 64
8, 144240, Control_c, 9, 7, 33
8, 144320, Note_on_c, 9, 42, 40
8, 144420, Note_off_c, 9, 42, 64
8, 144480, Note_on_c, 9, 38, 70
8, 144480, Note_on_c, 9, 42, 80
8, 144480, Control_c, 9, 7, 31
8, 144580, Note_off_c, 9, 42, 64
8, 144580, Note_off_c, 9, 38, 64
8, 144720, Control_c, 9, 7, 29
8, 144800, Note_on_c, 9, 35, 50
8, 144800, Note_on_c, 9, 42, 40
8, 144900, Note_off_c, 9, 42, 64
8, 144900, Note_off_c, 9, 35, 64
8, 144960, Note_on_c, 9, 35, 70
8, 144960, Note_on_c, 9, 42, 70
8, 144960, Control_c, 9, 7, 26
8, 145060, Note_off_c, 9, 42, 64
8, 145060, Note_off_c, 9, 35, 64
8, 145200, Control_c, 9, 7, 24
8, 145280, Note_on_c, 9, 42, 40
8, 145380, Note_off_c, 9, 42, 64
8, 145440, Note_on_c, 9, 38, 70
8, 145440, Note_on_c, 9, 42, 80
8, 145440, Control_c, 9, 7, 22
8, 145540, Note_off_c, 9, 42, 64
8, 145540, Note_off_c, 9, 38, 64
8, 145680, Control_c, 9, 7, 20
8, 145760, Note_on_c, 9, 35, 50
8, 145760, Note_on_c, 9, 42, 40
8, 145860, Note_off_c, 9, 42, 64
8, 145860, Note_off_c, 9, 35, 64
8, 145920, Note_on_c, 9, 35, 70
8, 145920, Note_on_c, 9, 42, 70
8, 145920, Control_c, 9, 7, 17
8, 146020, Note_off_c, 9, 42, 64
8, 146020, Note_off_c, 9, 35, 64
8, 146160, Control_c, 9, 7, 15
8, 146240, Note_on_c, 9, 42, 40
8, 146340, Note_off_c, 9, 42, 64
8, 146400, Note_on_c, 9, 38, 70
8, 146400, Note_on_c, 9, 42, 80
8, 146400, Control_c, 9, 7, 13
8, 146500, Note_off_c, 9, 42, 64
8, 146500, Note_off_c, 9, 38, 64
8, 146640, Control_c, 9, 7, 11
8, 146720, Note_on_c, 9, 35, 50
8, 146720, Note_on_c, 9, 42, 40
8, 146820, Note_off_c, 9, 42, 64
8, 146820, Note_off_c, 9, 35, 64
8, 146880, Note_on_c, 9, 35, 70
8, 146880, Note_on_c, 9, 42, 70
8, 146880, Control_c, 9, 7, 8
8, 146980, Note_off_c, 9, 42, 64
8, 146980, Note_off_c, 9, 35, 64
8, 147120, Control_c, 9, 7, 6
8, 147200, Note_on_c, 9, 42, 40
8, 147300, Note_off_c, 9, 42, 64
8, 147360, Note_on_c, 9, 38, 70
8, 147360, Note_on_c, 9, 42, 80
8, 147360, Control_c, 9, 7, 4
8, 147460, Note_off_c, 9, 42, 64
8, 147460, Note_off_c, 9, 38, 64
8, 147600, Control_c, 9, 7, 2
8, 147600, End_track
9, 0, Start_track
9, 0, Title_t, "634-5789"
9, 0, MIDI_port, 0
9, 0, End_track
10, 0, Start_track
10, 0, Title_t, "Words and Music by:"
10, 0, MIDI_port, 0
10, 0, End_track
11, 0, Start_track
11, 0, Title_t, "Eddie Floyd and"
11, 0, MIDI_port, 0
11, 0, End_track
12, 0, Start_track
12, 0, Title_t, "Steve Cropper"
12, 0, MIDI_port, 0
12, 0, End_track
13, 0, Start_track
13, 0, Title_t, "Sequenced by:"
13, 0, MIDI_port, 0
13, 0, End_track
14, 0, Start_track
14, 0, Title_t, "Gary Rogers"
14, 0, MIDI_port, 0
14, 0, End_track
15, 0, Start_track
15, 0, Title_t, "3/2008"
15, 0, MIDI_port, 0
15, 0, End_track
0, 0, End_of_file
