0, 0, Header, 1, 14, 96
1, 0, Start_track
1, 0, Title_t, "untitled"
1, 0, SMPTE_offset, 96, 0, 3, 0, 0
1, 0, Time_signature, 4, 2, 24, 8
1, 0, Key_signature, 0, "major"
1, 0, Tempo, 499958
1, 1152, Tempo, 673930
1, 1536, Time_signature, 11, 3, 12, 8
1, 2064, Time_signature, 6, 3, 12, 8
1, 2352, Time_signature, 4, 2, 24, 8
1, 2736, Time_signature, 6, 3, 12, 8
1, 3024, Time_signature, 4, 2, 24, 8
1, 3792, Time_signature, 3, 2, 24, 8
1, 4080, Time_signature, 5, 3, 12, 8
1, 4320, Time_signature, 4, 2, 24, 8
1, 4320, Tempo, 706964
1, 5088, Time_signature, 6, 3, 12, 8
1, 5088, Tempo, 673930
1, 5376, Time_signature, 4, 2, 24, 8
1, 5760, Time_signature, 6, 3, 12, 8
1, 6048, Time_signature, 4, 2, 24, 8
1, 6816, Time_signature, 3, 2, 24, 8
1, 7104, Time_signature, 5, 3, 12, 8
1, 7344, Time_signature, 4, 2, 24, 8
1, 7344, Tempo, 706964
1, 8880, Time_signature, 6, 3, 12, 8
1, 9168, Time_signature, 4, 2, 24, 8
1, 9552, Tempo, 722717
1, 11472, Time_signature, 2, 2, 24, 8
1, 11664, Time_signature, 4, 2, 24, 8
1, 13200, Time_signature, 2, 2, 24, 8
1, 13200, Tempo, 748036
1, 13392, Time_signature, 6, 3, 12, 8
1, 13680, Time_signature, 2, 2, 24, 8
1, 13872, Time_signature, 6, 3, 12, 8
1, 14160, Time_signature, 4, 2, 24, 8
1, 14160, Tempo, 706964
1, 14928, Time_signature, 6, 3, 12, 8
1, 14928, Tempo, 673930
1, 15216, Time_signature, 4, 2, 24, 8
1, 15600, Time_signature, 6, 3, 12, 8
1, 15888, Time_signature, 4, 2, 24, 8
1, 16656, Time_signature, 3, 2, 24, 8
1, 16944, Time_signature, 5, 3, 12, 8
1, 17184, Time_signature, 4, 2, 24, 8
1, 17184, Tempo, 706964
1, 18720, Time_signature, 6, 3, 12, 8
1, 19008, Time_signature, 4, 2, 24, 8
1, 19392, Tempo, 722717
1, 21312, Time_signature, 2, 2, 24, 8
1, 21504, Time_signature, 4, 2, 24, 8
1, 23040, Time_signature, 2, 2, 24, 8
1, 23040, Tempo, 748036
1, 23232, Time_signature, 6, 3, 12, 8
1, 23520, Time_signature, 2, 2, 24, 8
1, 23712, Time_signature, 6, 3, 12, 8
1, 24000, Time_signature, 4, 2, 24, 8
1, 24768, Time_signature, 7, 3, 12, 8
1, 25440, Time_signature, 6, 3, 12, 8
1, 25440, End_track
2, 0, Start_track
2, 0, MIDI_port, 0
2, 0, Title_t, "Fantasia"
2, 0, Program_c, 1, 14
2, 0, Control_c, 1, 7, 100
2, 0, Control_c, 1, 10, 64
2, 10320, Note_on_c, 1, 73, 110
2, 10390, Note_on_c, 1, 73, 0
2, 10416, Note_on_c, 1, 73, 118
2, 10486, Note_on_c, 1, 73, 0
2, 10512, Note_on_c, 1, 71, 110
2, 10581, Note_on_c, 1, 71, 0
2, 10608, Note_on_c, 1, 76, 102
2, 10637, Note_on_c, 1, 76, 0
2, 10656, Note_on_c, 1, 75, 103
2, 10682, Note_on_c, 1, 75, 0
2, 10704, Note_on_c, 1, 73, 110
2, 10769, Note_on_c, 1, 73, 0
2, 10800, Note_on_c, 1, 73, 110
2, 10863, Note_on_c, 1, 73, 0
2, 10896, Note_on_c, 1, 71, 106
2, 10950, Note_on_c, 1, 71, 0
2, 10992, Note_on_c, 1, 76, 93
2, 11019, Note_on_c, 1, 76, 0
2, 11040, Note_on_c, 1, 75, 110
2, 11061, Note_on_c, 1, 75, 0
2, 11088, Note_on_c, 1, 76, 110
2, 11143, Note_on_c, 1, 76, 0
2, 11184, Note_on_c, 1, 69, 114
2, 11227, Note_on_c, 1, 69, 0
2, 11280, Note_on_c, 1, 66, 118
2, 11405, Note_on_c, 1, 66, 0
2, 11472, Note_on_c, 1, 74, 102
2, 11525, Note_on_c, 1, 74, 0
2, 11568, Note_on_c, 1, 66, 110
2, 11612, Note_on_c, 1, 66, 0
2, 11664, Note_on_c, 1, 64, 126
2, 11973, Note_on_c, 1, 64, 0
2, 12048, Note_on_c, 1, 64, 119
2, 12108, Note_on_c, 1, 64, 0
2, 12144, Note_on_c, 1, 64, 119
2, 12191, Note_on_c, 1, 64, 0
2, 12240, Note_on_c, 1, 62, 114
2, 12285, Note_on_c, 1, 62, 0
2, 12336, Note_on_c, 1, 67, 95
2, 12360, Note_on_c, 1, 67, 0
2, 12384, Note_on_c, 1, 66, 118
2, 12405, Note_on_c, 1, 66, 0
2, 12432, Note_on_c, 1, 64, 106
2, 12495, Note_on_c, 1, 64, 0
2, 12528, Note_on_c, 1, 64, 114
2, 12586, Note_on_c, 1, 64, 0
2, 12624, Note_on_c, 1, 62, 106
2, 12664, Note_on_c, 1, 62, 0
2, 12720, Note_on_c, 1, 67, 95
2, 12740, Note_on_c, 1, 67, 0
2, 12768, Note_on_c, 1, 66, 103
2, 12789, Note_on_c, 1, 66, 0
2, 12816, Note_on_c, 1, 67, 102
2, 12872, Note_on_c, 1, 67, 0
2, 12912, Note_on_c, 1, 71, 106
2, 12969, Note_on_c, 1, 71, 0
2, 13008, Note_on_c, 1, 69, 119
2, 13159, Note_on_c, 1, 69, 0
2, 20160, Note_on_c, 1, 73, 110
2, 20230, Note_on_c, 1, 73, 0
2, 20256, Note_on_c, 1, 73, 118
2, 20326, Note_on_c, 1, 73, 0
2, 20352, Note_on_c, 1, 71, 110
2, 20421, Note_on_c, 1, 71, 0
2, 20448, Note_on_c, 1, 76, 102
2, 20477, Note_on_c, 1, 76, 0
2, 20496, Note_on_c, 1, 75, 103
2, 20522, Note_on_c, 1, 75, 0
2, 20544, Note_on_c, 1, 73, 110
2, 20609, Note_on_c, 1, 73, 0
2, 20640, Note_on_c, 1, 73, 110
2, 20703, Note_on_c, 1, 73, 0
2, 20736, Note_on_c, 1, 71, 106
2, 20790, Note_on_c, 1, 71, 0
2, 20832, Note_on_c, 1, 76, 93
2, 20859, Note_on_c, 1, 76, 0
2, 20880, Note_on_c, 1, 75, 110
2, 20901, Note_on_c, 1, 75, 0
2, 20928, Note_on_c, 1, 76, 110
2, 20983, Note_on_c, 1, 76, 0
2, 21024, Note_on_c, 1, 69, 114
2, 21067, Note_on_c, 1, 69, 0
2, 21120, Note_on_c, 1, 66, 118
2, 21245, Note_on_c, 1, 66, 0
2, 21312, Note_on_c, 1, 74, 102
2, 21365, Note_on_c, 1, 74, 0
2, 21408, Note_on_c, 1, 66, 110
2, 21452, Note_on_c, 1, 66, 0
2, 21504, Note_on_c, 1, 64, 126
2, 21813, Note_on_c, 1, 64, 0
2, 21888, Note_on_c, 1, 64, 119
2, 21948, Note_on_c, 1, 64, 0
2, 21984, Note_on_c, 1, 64, 119
2, 22031, Note_on_c, 1, 64, 0
2, 22080, Note_on_c, 1, 62, 114
2, 22125, Note_on_c, 1, 62, 0
2, 22176, Note_on_c, 1, 67, 95
2, 22200, Note_on_c, 1, 67, 0
2, 22224, Note_on_c, 1, 66, 118
2, 22245, Note_on_c, 1, 66, 0
2, 22272, Note_on_c, 1, 64, 106
2, 22335, Note_on_c, 1, 64, 0
2, 22368, Note_on_c, 1, 64, 114
2, 22426, Note_on_c, 1, 64, 0
2, 22464, Note_on_c, 1, 62, 106
2, 22504, Note_on_c, 1, 62, 0
2, 22560, Note_on_c, 1, 67, 95
2, 22580, Note_on_c, 1, 67, 0
2, 22608, Note_on_c, 1, 66, 103
2, 22629, Note_on_c, 1, 66, 0
2, 22656, Note_on_c, 1, 67, 102
2, 22712, Note_on_c, 1, 67, 0
2, 22752, Note_on_c, 1, 71, 106
2, 22809, Note_on_c, 1, 71, 0
2, 22848, Note_on_c, 1, 69, 119
2, 22999, Note_on_c, 1, 69, 0
2, 22999, End_track
3, 0, Start_track
3, 0, MIDI_port, 0
3, 0, Title_t, "Piano"
3, 0, Program_c, 2, 48
3, 0, Control_c, 2, 7, 100
3, 0, Control_c, 2, 10, 40
3, 2064, Note_on_c, 2, 55, 80
3, 2064, Note_on_c, 2, 59, 80
3, 2064, Note_on_c, 2, 64, 80
3, 2118, Note_on_c, 2, 64, 0
3, 2122, Note_on_c, 2, 59, 0
3, 2123, Note_on_c, 2, 55, 0
3, 2135, Note_on_c, 2, 66, 80
3, 2135, Note_on_c, 2, 62, 80
3, 2136, Note_on_c, 2, 57, 80
3, 2186, Note_on_c, 2, 57, 0
3, 2191, Note_on_c, 2, 62, 0
3, 2195, Note_on_c, 2, 66, 0
3, 2205, Note_on_c, 2, 66, 80
3, 2206, Note_on_c, 2, 62, 80
3, 2207, Note_on_c, 2, 59, 80
3, 2286, Note_on_c, 2, 66, 0
3, 2289, Note_on_c, 2, 62, 0
3, 2290, Note_on_c, 2, 59, 0
3, 2302, Note_on_c, 2, 64, 80
3, 2302, Note_on_c, 2, 59, 80
3, 2302, Note_on_c, 2, 55, 80
3, 2346, Note_on_c, 2, 55, 0
3, 2346, Note_on_c, 2, 59, 0
3, 2346, Note_on_c, 2, 64, 0
3, 2352, Note_on_c, 2, 55, 80
3, 2352, Note_on_c, 2, 59, 80
3, 2352, Note_on_c, 2, 64, 80
3, 2400, Note_on_c, 2, 64, 0
3, 2400, Note_on_c, 2, 59, 0
3, 2400, Note_on_c, 2, 55, 0
3, 2421, Note_on_c, 2, 66, 80
3, 2421, Note_on_c, 2, 62, 80
3, 2421, Note_on_c, 2, 59, 80
3, 2474, Note_on_c, 2, 66, 0
3, 2475, Note_on_c, 2, 62, 0
3, 2476, Note_on_c, 2, 59, 0
3, 2489, Note_on_c, 2, 64, 80
3, 2489, Note_on_c, 2, 61, 80
3, 2490, Note_on_c, 2, 57, 80
3, 2526, Note_on_c, 2, 64, 0
3, 2528, Note_on_c, 2, 61, 0
3, 2531, Note_on_c, 2, 57, 0
3, 2544, Note_on_c, 2, 62, 60
3, 2544, Note_on_c, 2, 66, 60
3, 2545, Note_on_c, 2, 59, 60
3, 2546, Note_on_c, 2, 55, 60
3, 2621, Note_on_c, 2, 62, 0
3, 2624, Note_on_c, 2, 66, 0
3, 2626, Note_on_c, 2, 55, 0
3, 2630, Note_on_c, 2, 59, 0
3, 2640, Note_on_c, 2, 64, 80
3, 2640, Note_on_c, 2, 59, 80
3, 2640, Note_on_c, 2, 56, 80
3, 2725, Note_on_c, 2, 59, 0
3, 2726, Note_on_c, 2, 56, 0
3, 2726, Note_on_c, 2, 64, 0
3, 2736, Note_on_c, 2, 55, 80
3, 2736, Note_on_c, 2, 59, 80
3, 2736, Note_on_c, 2, 64, 80
3, 2790, Note_on_c, 2, 64, 0
3, 2794, Note_on_c, 2, 59, 0
3, 2795, Note_on_c, 2, 55, 0
3, 2807, Note_on_c, 2, 66, 80
3, 2807, Note_on_c, 2, 62, 80
3, 2808, Note_on_c, 2, 57, 80
3, 2858, Note_on_c, 2, 57, 0
3, 2863, Note_on_c, 2, 62, 0
3, 2867, Note_on_c, 2, 66, 0
3, 2877, Note_on_c, 2, 66, 80
3, 2878, Note_on_c, 2, 62, 80
3, 2879, Note_on_c, 2, 59, 80
3, 2958, Note_on_c, 2, 66, 0
3, 2961, Note_on_c, 2, 62, 0
3, 2962, Note_on_c, 2, 59, 0
3, 2974, Note_on_c, 2, 64, 80
3, 2974, Note_on_c, 2, 59, 80
3, 2974, Note_on_c, 2, 55, 80
3, 3018, Note_on_c, 2, 55, 0
3, 3018, Note_on_c, 2, 59, 0
3, 3018, Note_on_c, 2, 64, 0
3, 3024, Note_on_c, 2, 55, 80
3, 3024, Note_on_c, 2, 59, 80
3, 3024, Note_on_c, 2, 64, 80
3, 3072, Note_on_c, 2, 64, 0
3, 3072, Note_on_c, 2, 59, 0
3, 3072, Note_on_c, 2, 55, 0
3, 3093, Note_on_c, 2, 66, 80
3, 3093, Note_on_c, 2, 62, 80
3, 3093, Note_on_c, 2, 59, 80
3, 3146, Note_on_c, 2, 66, 0
3, 3147, Note_on_c, 2, 62, 0
3, 3148, Note_on_c, 2, 59, 0
3, 3161, Note_on_c, 2, 64, 80
3, 3161, Note_on_c, 2, 61, 80
3, 3162, Note_on_c, 2, 57, 80
3, 3198, Note_on_c, 2, 64, 0
3, 3200, Note_on_c, 2, 61, 0
3, 3203, Note_on_c, 2, 57, 0
3, 3216, Note_on_c, 2, 62, 60
3, 3216, Note_on_c, 2, 66, 60
3, 3217, Note_on_c, 2, 59, 60
3, 3218, Note_on_c, 2, 55, 60
3, 3293, Note_on_c, 2, 62, 0
3, 3296, Note_on_c, 2, 66, 0
3, 3298, Note_on_c, 2, 55, 0
3, 3302, Note_on_c, 2, 59, 0
3, 3312, Note_on_c, 2, 64, 80
3, 3312, Note_on_c, 2, 59, 80
3, 3312, Note_on_c, 2, 56, 80
3, 3397, Note_on_c, 2, 59, 0
3, 3398, Note_on_c, 2, 56, 0
3, 3398, Note_on_c, 2, 64, 0
3, 3409, Note_on_c, 2, 64, 69
3, 3410, Note_on_c, 2, 59, 82
3, 3410, Note_on_c, 2, 55, 80
3, 3482, Note_on_c, 2, 59, 0
3, 3485, Note_on_c, 2, 55, 0
3, 3485, Note_on_c, 2, 64, 0
3, 3500, Note_on_c, 2, 66, 82
3, 3500, Note_on_c, 2, 62, 90
3, 3500, Note_on_c, 2, 57, 88
3, 3583, Note_on_c, 2, 62, 0
3, 3583, Note_on_c, 2, 66, 0
3, 3588, Note_on_c, 2, 57, 0
3, 3598, Note_on_c, 2, 64, 88
3, 3599, Note_on_c, 2, 60, 93
3, 3599, Note_on_c, 2, 57, 95
3, 3683, Note_on_c, 2, 60, 0
3, 3683, Note_on_c, 2, 64, 0
3, 3687, Note_on_c, 2, 57, 0
3, 3696, Note_on_c, 2, 57, 93
3, 3697, Note_on_c, 2, 66, 94
3, 3697, Note_on_c, 2, 62, 106
3, 3779, Note_on_c, 2, 66, 0
3, 3780, Note_on_c, 2, 62, 0
3, 3781, Note_on_c, 2, 57, 0
3, 3792, Note_on_c, 2, 64, 90
3, 3792, Note_on_c, 2, 55, 93
3, 3793, Note_on_c, 2, 59, 93
3, 3869, Note_on_c, 2, 55, 0
3, 3870, Note_on_c, 2, 59, 0
3, 3870, Note_on_c, 2, 64, 0
3, 3885, Note_on_c, 2, 66, 77
3, 3885, Note_on_c, 2, 62, 90
3, 3885, Note_on_c, 2, 57, 83
3, 3967, Note_on_c, 2, 66, 0
3, 3968, Note_on_c, 2, 62, 0
3, 3973, Note_on_c, 2, 57, 0
3, 3982, Note_on_c, 2, 64, 86
3, 3982, Note_on_c, 2, 60, 88
3, 3982, Note_on_c, 2, 57, 88
3, 4016, Note_on_c, 2, 64, 0
3, 4017, Note_on_c, 2, 60, 0
3, 4024, Note_on_c, 2, 57, 0
3, 4030, Note_on_c, 2, 57, 76
3, 4031, Note_on_c, 2, 66, 90
3, 4032, Note_on_c, 2, 62, 93
3, 4063, Note_on_c, 2, 62, 0
3, 4063, Note_on_c, 2, 66, 0
3, 4065, Note_on_c, 2, 57, 0
3, 4080, Note_on_c, 2, 64, 80
3, 4080, Note_on_c, 2, 59, 95
3, 4080, Note_on_c, 2, 55, 95
3, 4129, Note_on_c, 2, 55, 0
3, 4130, Note_on_c, 2, 59, 0
3, 4133, Note_on_c, 2, 64, 0
3, 4149, Note_on_c, 2, 66, 86
3, 4149, Note_on_c, 2, 62, 98
3, 4149, Note_on_c, 2, 57, 98
3, 4209, Note_on_c, 2, 57, 0
3, 4210, Note_on_c, 2, 62, 0
3, 4211, Note_on_c, 2, 66, 0
3, 4221, Note_on_c, 2, 66, 79
3, 4221, Note_on_c, 2, 62, 78
3, 4223, Note_on_c, 2, 59, 90
3, 4309, Note_on_c, 2, 62, 0
3, 4310, Note_on_c, 2, 59, 0
3, 4311, Note_on_c, 2, 66, 0
3, 4320, Note_on_c, 2, 55, 80
3, 4320, Note_on_c, 2, 62, 80
3, 4320, Note_on_c, 2, 67, 80
3, 4320, Note_on_c, 2, 59, 80
3, 4406, Note_on_c, 2, 59, 0
3, 4406, Note_on_c, 2, 55, 0
3, 4409, Note_on_c, 2, 67, 0
3, 4410, Note_on_c, 2, 62, 0
3, 4415, Note_on_c, 2, 67, 80
3, 4416, Note_on_c, 2, 62, 80
3, 4416, Note_on_c, 2, 60, 80
3, 4416, Note_on_c, 2, 57, 80
3, 4500, Note_on_c, 2, 60, 0
3, 4501, Note_on_c, 2, 57, 0
3, 4502, Note_on_c, 2, 62, 0
3, 4502, Note_on_c, 2, 67, 0
3, 4508, Note_on_c, 2, 67, 80
3, 4509, Note_on_c, 2, 62, 80
3, 4509, Note_on_c, 2, 59, 80
3, 4600, Note_on_c, 2, 59, 0
3, 4600, Note_on_c, 2, 62, 0
3, 4600, Note_on_c, 2, 67, 0
3, 4607, Note_on_c, 2, 67, 80
3, 4608, Note_on_c, 2, 62, 80
3, 4608, Note_on_c, 2, 60, 80
3, 4699, Note_on_c, 2, 60, 0
3, 4700, Note_on_c, 2, 62, 0
3, 4700, Note_on_c, 2, 67, 0
3, 4704, Note_on_c, 2, 64, 82
3, 4704, Note_on_c, 2, 60, 83
3, 4704, Note_on_c, 2, 55, 82
3, 4704, Note_on_c, 2, 53, 80
3, 5081, Note_on_c, 2, 53, 0
3, 5081, Note_on_c, 2, 64, 0
3, 5081, Note_on_c, 2, 60, 0
3, 5082, Note_on_c, 2, 55, 0
3, 5088, Note_on_c, 2, 55, 80
3, 5088, Note_on_c, 2, 59, 80
3, 5088, Note_on_c, 2, 64, 80
3, 5142, Note_on_c, 2, 64, 0
3, 5146, Note_on_c, 2, 59, 0
3, 5147, Note_on_c, 2, 55, 0
3, 5159, Note_on_c, 2, 66, 80
3, 5159, Note_on_c, 2, 62, 80
3, 5160, Note_on_c, 2, 57, 80
3, 5210, Note_on_c, 2, 57, 0
3, 5215, Note_on_c, 2, 62, 0
3, 5219, Note_on_c, 2, 66, 0
3, 5229, Note_on_c, 2, 66, 80
3, 5230, Note_on_c, 2, 62, 80
3, 5231, Note_on_c, 2, 59, 80
3, 5310, Note_on_c, 2, 66, 0
3, 5313, Note_on_c, 2, 62, 0
3, 5314, Note_on_c, 2, 59, 0
3, 5326, Note_on_c, 2, 64, 80
3, 5326, Note_on_c, 2, 59, 80
3, 5326, Note_on_c, 2, 55, 80
3, 5370, Note_on_c, 2, 55, 0
3, 5370, Note_on_c, 2, 59, 0
3, 5370, Note_on_c, 2, 64, 0
3, 5376, Note_on_c, 2, 55, 80
3, 5376, Note_on_c, 2, 59, 80
3, 5376, Note_on_c, 2, 64, 80
3, 5424, Note_on_c, 2, 64, 0
3, 5424, Note_on_c, 2, 59, 0
3, 5424, Note_on_c, 2, 55, 0
3, 5445, Note_on_c, 2, 66, 80
3, 5445, Note_on_c, 2, 62, 80
3, 5445, Note_on_c, 2, 59, 80
3, 5498, Note_on_c, 2, 66, 0
3, 5499, Note_on_c, 2, 62, 0
3, 5500, Note_on_c, 2, 59, 0
3, 5513, Note_on_c, 2, 64, 80
3, 5513, Note_on_c, 2, 61, 80
3, 5514, Note_on_c, 2, 57, 80
3, 5550, Note_on_c, 2, 64, 0
3, 5552, Note_on_c, 2, 61, 0
3, 5555, Note_on_c, 2, 57, 0
3, 5568, Note_on_c, 2, 62, 60
3, 5568, Note_on_c, 2, 66, 60
3, 5569, Note_on_c, 2, 59, 60
3, 5570, Note_on_c, 2, 55, 60
3, 5645, Note_on_c, 2, 62, 0
3, 5648, Note_on_c, 2, 66, 0
3, 5650, Note_on_c, 2, 55, 0
3, 5654, Note_on_c, 2, 59, 0
3, 5664, Note_on_c, 2, 64, 80
3, 5664, Note_on_c, 2, 59, 80
3, 5664, Note_on_c, 2, 56, 80
3, 5749, Note_on_c, 2, 59, 0
3, 5750, Note_on_c, 2, 56, 0
3, 5750, Note_on_c, 2, 64, 0
3, 5760, Note_on_c, 2, 55, 80
3, 5760, Note_on_c, 2, 59, 80
3, 5760, Note_on_c, 2, 64, 80
3, 5814, Note_on_c, 2, 64, 0
3, 5818, Note_on_c, 2, 59, 0
3, 5819, Note_on_c, 2, 55, 0
3, 5831, Note_on_c, 2, 66, 80
3, 5831, Note_on_c, 2, 62, 80
3, 5832, Note_on_c, 2, 57, 80
3, 5882, Note_on_c, 2, 57, 0
3, 5887, Note_on_c, 2, 62, 0
3, 5891, Note_on_c, 2, 66, 0
3, 5901, Note_on_c, 2, 66, 80
3, 5902, Note_on_c, 2, 62, 80
3, 5903, Note_on_c, 2, 59, 80
3, 5982, Note_on_c, 2, 66, 0
3, 5985, Note_on_c, 2, 62, 0
3, 5986, Note_on_c, 2, 59, 0
3, 5998, Note_on_c, 2, 64, 80
3, 5998, Note_on_c, 2, 59, 80
3, 5998, Note_on_c, 2, 55, 80
3, 6042, Note_on_c, 2, 55, 0
3, 6042, Note_on_c, 2, 59, 0
3, 6042, Note_on_c, 2, 64, 0
3, 6048, Note_on_c, 2, 55, 80
3, 6048, Note_on_c, 2, 59, 80
3, 6048, Note_on_c, 2, 64, 80
3, 6096, Note_on_c, 2, 64, 0
3, 6096, Note_on_c, 2, 59, 0
3, 6096, Note_on_c, 2, 55, 0
3, 6117, Note_on_c, 2, 66, 80
3, 6117, Note_on_c, 2, 62, 80
3, 6117, Note_on_c, 2, 59, 80
3, 6170, Note_on_c, 2, 66, 0
3, 6171, Note_on_c, 2, 62, 0
3, 6172, Note_on_c, 2, 59, 0
3, 6185, Note_on_c, 2, 64, 80
3, 6185, Note_on_c, 2, 61, 80
3, 6186, Note_on_c, 2, 57, 80
3, 6222, Note_on_c, 2, 64, 0
3, 6224, Note_on_c, 2, 61, 0
3, 6227, Note_on_c, 2, 57, 0
3, 6240, Note_on_c, 2, 62, 60
3, 6240, Note_on_c, 2, 66, 60
3, 6241, Note_on_c, 2, 59, 60
3, 6242, Note_on_c, 2, 55, 60
3, 6317, Note_on_c, 2, 62, 0
3, 6320, Note_on_c, 2, 66, 0
3, 6322, Note_on_c, 2, 55, 0
3, 6326, Note_on_c, 2, 59, 0
3, 6336, Note_on_c, 2, 64, 80
3, 6336, Note_on_c, 2, 59, 80
3, 6336, Note_on_c, 2, 56, 80
3, 6421, Note_on_c, 2, 59, 0
3, 6422, Note_on_c, 2, 56, 0
3, 6422, Note_on_c, 2, 64, 0
3, 6433, Note_on_c, 2, 64, 69
3, 6434, Note_on_c, 2, 59, 82
3, 6434, Note_on_c, 2, 55, 80
3, 6506, Note_on_c, 2, 59, 0
3, 6509, Note_on_c, 2, 55, 0
3, 6509, Note_on_c, 2, 64, 0
3, 6524, Note_on_c, 2, 66, 82
3, 6524, Note_on_c, 2, 62, 90
3, 6524, Note_on_c, 2, 57, 88
3, 6607, Note_on_c, 2, 62, 0
3, 6607, Note_on_c, 2, 66, 0
3, 6612, Note_on_c, 2, 57, 0
3, 6622, Note_on_c, 2, 64, 88
3, 6623, Note_on_c, 2, 60, 93
3, 6623, Note_on_c, 2, 57, 95
3, 6707, Note_on_c, 2, 60, 0
3, 6707, Note_on_c, 2, 64, 0
3, 6711, Note_on_c, 2, 57, 0
3, 6720, Note_on_c, 2, 57, 93
3, 6721, Note_on_c, 2, 66, 94
3, 6721, Note_on_c, 2, 62, 106
3, 6803, Note_on_c, 2, 66, 0
3, 6804, Note_on_c, 2, 62, 0
3, 6805, Note_on_c, 2, 57, 0
3, 6816, Note_on_c, 2, 64, 90
3, 6816, Note_on_c, 2, 55, 93
3, 6817, Note_on_c, 2, 59, 93
3, 6893, Note_on_c, 2, 55, 0
3, 6894, Note_on_c, 2, 59, 0
3, 6894, Note_on_c, 2, 64, 0
3, 6909, Note_on_c, 2, 66, 77
3, 6909, Note_on_c, 2, 62, 90
3, 6909, Note_on_c, 2, 57, 83
3, 6991, Note_on_c, 2, 66, 0
3, 6992, Note_on_c, 2, 62, 0
3, 6997, Note_on_c, 2, 57, 0
3, 7006, Note_on_c, 2, 64, 86
3, 7006, Note_on_c, 2, 60, 88
3, 7006, Note_on_c, 2, 57, 88
3, 7040, Note_on_c, 2, 64, 0
3, 7041, Note_on_c, 2, 60, 0
3, 7048, Note_on_c, 2, 57, 0
3, 7054, Note_on_c, 2, 57, 76
3, 7055, Note_on_c, 2, 66, 90
3, 7056, Note_on_c, 2, 62, 93
3, 7087, Note_on_c, 2, 62, 0
3, 7087, Note_on_c, 2, 66, 0
3, 7089, Note_on_c, 2, 57, 0
3, 7104, Note_on_c, 2, 64, 80
3, 7104, Note_on_c, 2, 59, 95
3, 7104, Note_on_c, 2, 55, 95
3, 7153, Note_on_c, 2, 55, 0
3, 7154, Note_on_c, 2, 59, 0
3, 7157, Note_on_c, 2, 64, 0
3, 7173, Note_on_c, 2, 66, 86
3, 7173, Note_on_c, 2, 62, 98
3, 7173, Note_on_c, 2, 57, 98
3, 7233, Note_on_c, 2, 57, 0
3, 7234, Note_on_c, 2, 62, 0
3, 7235, Note_on_c, 2, 66, 0
3, 7245, Note_on_c, 2, 66, 79
3, 7245, Note_on_c, 2, 62, 78
3, 7247, Note_on_c, 2, 59, 90
3, 7333, Note_on_c, 2, 62, 0
3, 7334, Note_on_c, 2, 59, 0
3, 7335, Note_on_c, 2, 66, 0
3, 7344, Note_on_c, 2, 55, 80
3, 7344, Note_on_c, 2, 62, 80
3, 7344, Note_on_c, 2, 67, 80
3, 7344, Note_on_c, 2, 59, 80
3, 7430, Note_on_c, 2, 59, 0
3, 7430, Note_on_c, 2, 55, 0
3, 7433, Note_on_c, 2, 67, 0
3, 7434, Note_on_c, 2, 62, 0
3, 7439, Note_on_c, 2, 67, 80
3, 7440, Note_on_c, 2, 62, 80
3, 7440, Note_on_c, 2, 60, 80
3, 7440, Note_on_c, 2, 57, 80
3, 7524, Note_on_c, 2, 60, 0
3, 7525, Note_on_c, 2, 57, 0
3, 7526, Note_on_c, 2, 62, 0
3, 7526, Note_on_c, 2, 67, 0
3, 7532, Note_on_c, 2, 67, 80
3, 7533, Note_on_c, 2, 62, 80
3, 7533, Note_on_c, 2, 59, 80
3, 7624, Note_on_c, 2, 59, 0
3, 7624, Note_on_c, 2, 62, 0
3, 7624, Note_on_c, 2, 67, 0
3, 7631, Note_on_c, 2, 67, 80
3, 7632, Note_on_c, 2, 62, 80
3, 7632, Note_on_c, 2, 60, 80
3, 7723, Note_on_c, 2, 60, 0
3, 7724, Note_on_c, 2, 62, 0
3, 7724, Note_on_c, 2, 67, 0
3, 7728, Note_on_c, 2, 64, 82
3, 7728, Note_on_c, 2, 60, 83
3, 7728, Note_on_c, 2, 55, 82
3, 7728, Note_on_c, 2, 53, 80
3, 8105, Note_on_c, 2, 53, 0
3, 8105, Note_on_c, 2, 64, 0
3, 8105, Note_on_c, 2, 60, 0
3, 8106, Note_on_c, 2, 55, 0
3, 9552, Note_on_c, 2, 76, 78
3, 9552, Note_on_c, 2, 73, 72
3, 9552, Note_on_c, 2, 69, 80
3, 9552, Note_on_c, 2, 81, 82
3, 9738, Note_on_c, 2, 69, 0
3, 9738, Note_on_c, 2, 76, 0
3, 9738, Note_on_c, 2, 73, 0
3, 9744, Note_on_c, 2, 75, 103
3, 9744, Note_on_c, 2, 71, 95
3, 9744, Note_on_c, 2, 78, 94
3, 9925, Note_on_c, 2, 78, 0
3, 9929, Note_on_c, 2, 71, 0
3, 9929, Note_on_c, 2, 75, 0
3, 9936, Note_on_c, 2, 76, 90
3, 9936, Note_on_c, 2, 73, 94
3, 9936, Note_on_c, 2, 69, 95
3, 10122, Note_on_c, 2, 69, 0
3, 10122, Note_on_c, 2, 73, 0
3, 10122, Note_on_c, 2, 76, 0
3, 10128, Note_on_c, 2, 71, 80
3, 10128, Note_on_c, 2, 78, 90
3, 10128, Note_on_c, 2, 75, 79
3, 10306, Note_on_c, 2, 78, 0
3, 10306, Note_on_c, 2, 71, 0
3, 10308, Note_on_c, 2, 75, 0
3, 10320, Note_on_c, 2, 76, 86
3, 10320, Note_on_c, 2, 73, 82
3, 10320, Note_on_c, 2, 69, 90
3, 10503, Note_on_c, 2, 69, 0
3, 10504, Note_on_c, 2, 76, 0
3, 10508, Note_on_c, 2, 73, 0
3, 10512, Note_on_c, 2, 78, 98
3, 10512, Note_on_c, 2, 75, 86
3, 10512, Note_on_c, 2, 71, 83
3, 10695, Note_on_c, 2, 78, 0
3, 10698, Note_on_c, 2, 75, 0
3, 10699, Note_on_c, 2, 71, 0
3, 10704, Note_on_c, 2, 76, 82
3, 10704, Note_on_c, 2, 73, 72
3, 10704, Note_on_c, 2, 69, 88
3, 10894, Note_on_c, 2, 69, 0
3, 10894, Note_on_c, 2, 73, 0
3, 10894, Note_on_c, 2, 76, 0
3, 10896, Note_on_c, 2, 75, 90
3, 10896, Note_on_c, 2, 71, 80
3, 10896, Note_on_c, 2, 78, 82
3, 11071, Note_on_c, 2, 78, 0
3, 11071, Note_on_c, 2, 71, 0
3, 11072, Note_on_c, 2, 75, 0
3, 11076, Note_on_c, 2, 81, 0
3, 11088, Note_on_c, 2, 76, 83
3, 11088, Note_on_c, 2, 73, 86
3, 11088, Note_on_c, 2, 68, 64
3, 11251, Note_on_c, 2, 68, 0
3, 11254, Note_on_c, 2, 76, 0
3, 11255, Note_on_c, 2, 73, 0
3, 11280, Note_on_c, 2, 74, 90
3, 11280, Note_on_c, 2, 69, 82
3, 11280, Note_on_c, 2, 78, 82
3, 11455, Note_on_c, 2, 74, 0
3, 11456, Note_on_c, 2, 69, 0
3, 11457, Note_on_c, 2, 78, 0
3, 11472, Note_on_c, 2, 78, 70
3, 11472, Note_on_c, 2, 74, 86
3, 11472, Note_on_c, 2, 71, 82
3, 11638, Note_on_c, 2, 78, 0
3, 11639, Note_on_c, 2, 74, 0
3, 11640, Note_on_c, 2, 71, 0
3, 11664, Note_on_c, 2, 76, 80
3, 11664, Note_on_c, 2, 67, 88
3, 11664, Note_on_c, 2, 72, 78
3, 12213, Note_on_c, 2, 76, 0
3, 12214, Note_on_c, 2, 72, 0
3, 12215, Note_on_c, 2, 67, 0
3, 12240, Note_on_c, 2, 74, 80
3, 12240, Note_on_c, 2, 78, 70
3, 12240, Note_on_c, 2, 69, 86
3, 12411, Note_on_c, 2, 78, 0
3, 12413, Note_on_c, 2, 74, 0
3, 12416, Note_on_c, 2, 69, 0
3, 12432, Note_on_c, 2, 72, 82
3, 12432, Note_on_c, 2, 76, 73
3, 12432, Note_on_c, 2, 67, 83
3, 12612, Note_on_c, 2, 67, 0
3, 12614, Note_on_c, 2, 76, 0
3, 12615, Note_on_c, 2, 72, 0
3, 12624, Note_on_c, 2, 78, 77
3, 12624, Note_on_c, 2, 74, 88
3, 12624, Note_on_c, 2, 69, 80
3, 12786, Note_on_c, 2, 74, 0
3, 12792, Note_on_c, 2, 78, 0
3, 12795, Note_on_c, 2, 69, 0
3, 12816, Note_on_c, 2, 76, 69
3, 12816, Note_on_c, 2, 67, 76
3, 12816, Note_on_c, 2, 71, 82
3, 12989, Note_on_c, 2, 67, 0
3, 12990, Note_on_c, 2, 71, 0
3, 12992, Note_on_c, 2, 76, 0
3, 13008, Note_on_c, 2, 76, 61
3, 13008, Note_on_c, 2, 73, 77
3, 13008, Note_on_c, 2, 69, 86
3, 13179, Note_on_c, 2, 69, 0
3, 13179, Note_on_c, 2, 73, 0
3, 13181, Note_on_c, 2, 76, 0
3, 13200, Note_on_c, 2, 67, 74
3, 13200, Note_on_c, 2, 60, 68
3, 13200, Note_on_c, 2, 64, 74
3, 13390, Note_on_c, 2, 64, 0
3, 13390, Note_on_c, 2, 67, 0
3, 13391, Note_on_c, 2, 60, 0
3, 14928, Note_on_c, 2, 55, 80
3, 14928, Note_on_c, 2, 59, 80
3, 14928, Note_on_c, 2, 64, 80
3, 14982, Note_on_c, 2, 64, 0
3, 14986, Note_on_c, 2, 59, 0
3, 14987, Note_on_c, 2, 55, 0
3, 14999, Note_on_c, 2, 66, 80
3, 14999, Note_on_c, 2, 62, 80
3, 15000, Note_on_c, 2, 57, 80
3, 15050, Note_on_c, 2, 57, 0
3, 15055, Note_on_c, 2, 62, 0
3, 15059, Note_on_c, 2, 66, 0
3, 15069, Note_on_c, 2, 66, 80
3, 15070, Note_on_c, 2, 62, 80
3, 15071, Note_on_c, 2, 59, 80
3, 15150, Note_on_c, 2, 66, 0
3, 15153, Note_on_c, 2, 62, 0
3, 15154, Note_on_c, 2, 59, 0
3, 15166, Note_on_c, 2, 64, 80
3, 15166, Note_on_c, 2, 59, 80
3, 15166, Note_on_c, 2, 55, 80
3, 15210, Note_on_c, 2, 55, 0
3, 15210, Note_on_c, 2, 59, 0
3, 15210, Note_on_c, 2, 64, 0
3, 15216, Note_on_c, 2, 55, 80
3, 15216, Note_on_c, 2, 59, 80
3, 15216, Note_on_c, 2, 64, 80
3, 15264, Note_on_c, 2, 64, 0
3, 15264, Note_on_c, 2, 59, 0
3, 15264, Note_on_c, 2, 55, 0
3, 15285, Note_on_c, 2, 66, 80
3, 15285, Note_on_c, 2, 62, 80
3, 15285, Note_on_c, 2, 59, 80
3, 15338, Note_on_c, 2, 66, 0
3, 15339, Note_on_c, 2, 62, 0
3, 15340, Note_on_c, 2, 59, 0
3, 15353, Note_on_c, 2, 64, 80
3, 15353, Note_on_c, 2, 61, 80
3, 15354, Note_on_c, 2, 57, 80
3, 15390, Note_on_c, 2, 64, 0
3, 15392, Note_on_c, 2, 61, 0
3, 15395, Note_on_c, 2, 57, 0
3, 15408, Note_on_c, 2, 62, 60
3, 15408, Note_on_c, 2, 66, 60
3, 15409, Note_on_c, 2, 59, 60
3, 15410, Note_on_c, 2, 55, 60
3, 15485, Note_on_c, 2, 62, 0
3, 15488, Note_on_c, 2, 66, 0
3, 15490, Note_on_c, 2, 55, 0
3, 15494, Note_on_c, 2, 59, 0
3, 15504, Note_on_c, 2, 64, 80
3, 15504, Note_on_c, 2, 59, 80
3, 15504, Note_on_c, 2, 56, 80
3, 15589, Note_on_c, 2, 59, 0
3, 15590, Note_on_c, 2, 56, 0
3, 15590, Note_on_c, 2, 64, 0
3, 15600, Note_on_c, 2, 55, 80
3, 15600, Note_on_c, 2, 59, 80
3, 15600, Note_on_c, 2, 64, 80
3, 15654, Note_on_c, 2, 64, 0
3, 15658, Note_on_c, 2, 59, 0
3, 15659, Note_on_c, 2, 55, 0
3, 15671, Note_on_c, 2, 66, 80
3, 15671, Note_on_c, 2, 62, 80
3, 15672, Note_on_c, 2, 57, 80
3, 15722, Note_on_c, 2, 57, 0
3, 15727, Note_on_c, 2, 62, 0
3, 15731, Note_on_c, 2, 66, 0
3, 15741, Note_on_c, 2, 66, 80
3, 15742, Note_on_c, 2, 62, 80
3, 15743, Note_on_c, 2, 59, 80
3, 15822, Note_on_c, 2, 66, 0
3, 15825, Note_on_c, 2, 62, 0
3, 15826, Note_on_c, 2, 59, 0
3, 15838, Note_on_c, 2, 64, 80
3, 15838, Note_on_c, 2, 59, 80
3, 15838, Note_on_c, 2, 55, 80
3, 15882, Note_on_c, 2, 55, 0
3, 15882, Note_on_c, 2, 59, 0
3, 15882, Note_on_c, 2, 64, 0
3, 15888, Note_on_c, 2, 55, 80
3, 15888, Note_on_c, 2, 59, 80
3, 15888, Note_on_c, 2, 64, 80
3, 15936, Note_on_c, 2, 64, 0
3, 15936, Note_on_c, 2, 59, 0
3, 15936, Note_on_c, 2, 55, 0
3, 15957, Note_on_c, 2, 66, 80
3, 15957, Note_on_c, 2, 62, 80
3, 15957, Note_on_c, 2, 59, 80
3, 16010, Note_on_c, 2, 66, 0
3, 16011, Note_on_c, 2, 62, 0
3, 16012, Note_on_c, 2, 59, 0
3, 16025, Note_on_c, 2, 64, 80
3, 16025, Note_on_c, 2, 61, 80
3, 16026, Note_on_c, 2, 57, 80
3, 16062, Note_on_c, 2, 64, 0
3, 16064, Note_on_c, 2, 61, 0
3, 16067, Note_on_c, 2, 57, 0
3, 16080, Note_on_c, 2, 62, 60
3, 16080, Note_on_c, 2, 66, 60
3, 16081, Note_on_c, 2, 59, 60
3, 16082, Note_on_c, 2, 55, 60
3, 16157, Note_on_c, 2, 62, 0
3, 16160, Note_on_c, 2, 66, 0
3, 16162, Note_on_c, 2, 55, 0
3, 16166, Note_on_c, 2, 59, 0
3, 16176, Note_on_c, 2, 64, 80
3, 16176, Note_on_c, 2, 59, 80
3, 16176, Note_on_c, 2, 56, 80
3, 16261, Note_on_c, 2, 59, 0
3, 16262, Note_on_c, 2, 56, 0
3, 16262, Note_on_c, 2, 64, 0
3, 16273, Note_on_c, 2, 64, 69
3, 16274, Note_on_c, 2, 59, 82
3, 16274, Note_on_c, 2, 55, 80
3, 16346, Note_on_c, 2, 59, 0
3, 16349, Note_on_c, 2, 55, 0
3, 16349, Note_on_c, 2, 64, 0
3, 16364, Note_on_c, 2, 66, 82
3, 16364, Note_on_c, 2, 62, 90
3, 16364, Note_on_c, 2, 57, 88
3, 16447, Note_on_c, 2, 62, 0
3, 16447, Note_on_c, 2, 66, 0
3, 16452, Note_on_c, 2, 57, 0
3, 16462, Note_on_c, 2, 64, 88
3, 16463, Note_on_c, 2, 60, 93
3, 16463, Note_on_c, 2, 57, 95
3, 16547, Note_on_c, 2, 60, 0
3, 16547, Note_on_c, 2, 64, 0
3, 16551, Note_on_c, 2, 57, 0
3, 16560, Note_on_c, 2, 57, 93
3, 16561, Note_on_c, 2, 66, 94
3, 16561, Note_on_c, 2, 62, 106
3, 16643, Note_on_c, 2, 66, 0
3, 16644, Note_on_c, 2, 62, 0
3, 16645, Note_on_c, 2, 57, 0
3, 16656, Note_on_c, 2, 64, 90
3, 16656, Note_on_c, 2, 55, 93
3, 16657, Note_on_c, 2, 59, 93
3, 16733, Note_on_c, 2, 55, 0
3, 16734, Note_on_c, 2, 59, 0
3, 16734, Note_on_c, 2, 64, 0
3, 16749, Note_on_c, 2, 66, 77
3, 16749, Note_on_c, 2, 62, 90
3, 16749, Note_on_c, 2, 57, 83
3, 16831, Note_on_c, 2, 66, 0
3, 16832, Note_on_c, 2, 62, 0
3, 16837, Note_on_c, 2, 57, 0
3, 16846, Note_on_c, 2, 64, 86
3, 16846, Note_on_c, 2, 60, 88
3, 16846, Note_on_c, 2, 57, 88
3, 16880, Note_on_c, 2, 64, 0
3, 16881, Note_on_c, 2, 60, 0
3, 16888, Note_on_c, 2, 57, 0
3, 16894, Note_on_c, 2, 57, 76
3, 16895, Note_on_c, 2, 66, 90
3, 16896, Note_on_c, 2, 62, 93
3, 16927, Note_on_c, 2, 62, 0
3, 16927, Note_on_c, 2, 66, 0
3, 16929, Note_on_c, 2, 57, 0
3, 16944, Note_on_c, 2, 64, 80
3, 16944, Note_on_c, 2, 59, 95
3, 16944, Note_on_c, 2, 55, 95
3, 16993, Note_on_c, 2, 55, 0
3, 16994, Note_on_c, 2, 59, 0
3, 16997, Note_on_c, 2, 64, 0
3, 17013, Note_on_c, 2, 66, 86
3, 17013, Note_on_c, 2, 62, 98
3, 17013, Note_on_c, 2, 57, 98
3, 17073, Note_on_c, 2, 57, 0
3, 17074, Note_on_c, 2, 62, 0
3, 17075, Note_on_c, 2, 66, 0
3, 17085, Note_on_c, 2, 66, 79
3, 17085, Note_on_c, 2, 62, 78
3, 17087, Note_on_c, 2, 59, 90
3, 17173, Note_on_c, 2, 62, 0
3, 17174, Note_on_c, 2, 59, 0
3, 17175, Note_on_c, 2, 66, 0
3, 17184, Note_on_c, 2, 55, 80
3, 17184, Note_on_c, 2, 62, 80
3, 17184, Note_on_c, 2, 67, 80
3, 17184, Note_on_c, 2, 59, 80
3, 17270, Note_on_c, 2, 59, 0
3, 17270, Note_on_c, 2, 55, 0
3, 17273, Note_on_c, 2, 67, 0
3, 17274, Note_on_c, 2, 62, 0
3, 17279, Note_on_c, 2, 67, 80
3, 17280, Note_on_c, 2, 62, 80
3, 17280, Note_on_c, 2, 60, 80
3, 17280, Note_on_c, 2, 57, 80
3, 17364, Note_on_c, 2, 60, 0
3, 17365, Note_on_c, 2, 57, 0
3, 17366, Note_on_c, 2, 62, 0
3, 17366, Note_on_c, 2, 67, 0
3, 17372, Note_on_c, 2, 67, 80
3, 17373, Note_on_c, 2, 62, 80
3, 17373, Note_on_c, 2, 59, 80
3, 17464, Note_on_c, 2, 59, 0
3, 17464, Note_on_c, 2, 62, 0
3, 17464, Note_on_c, 2, 67, 0
3, 17471, Note_on_c, 2, 67, 80
3, 17472, Note_on_c, 2, 62, 80
3, 17472, Note_on_c, 2, 60, 80
3, 17563, Note_on_c, 2, 60, 0
3, 17564, Note_on_c, 2, 62, 0
3, 17564, Note_on_c, 2, 67, 0
3, 17568, Note_on_c, 2, 64, 82
3, 17568, Note_on_c, 2, 60, 83
3, 17568, Note_on_c, 2, 55, 82
3, 17568, Note_on_c, 2, 53, 80
3, 17945, Note_on_c, 2, 53, 0
3, 17945, Note_on_c, 2, 64, 0
3, 17945, Note_on_c, 2, 60, 0
3, 17946, Note_on_c, 2, 55, 0
3, 19392, Note_on_c, 2, 76, 78
3, 19392, Note_on_c, 2, 73, 72
3, 19392, Note_on_c, 2, 69, 80
3, 19392, Note_on_c, 2, 81, 82
3, 19578, Note_on_c, 2, 69, 0
3, 19578, Note_on_c, 2, 76, 0
3, 19578, Note_on_c, 2, 73, 0
3, 19584, Note_on_c, 2, 75, 103
3, 19584, Note_on_c, 2, 71, 95
3, 19584, Note_on_c, 2, 78, 94
3, 19765, Note_on_c, 2, 78, 0
3, 19769, Note_on_c, 2, 71, 0
3, 19769, Note_on_c, 2, 75, 0
3, 19776, Note_on_c, 2, 76, 90
3, 19776, Note_on_c, 2, 73, 94
3, 19776, Note_on_c, 2, 69, 95
3, 19962, Note_on_c, 2, 69, 0
3, 19962, Note_on_c, 2, 73, 0
3, 19962, Note_on_c, 2, 76, 0
3, 19968, Note_on_c, 2, 71, 80
3, 19968, Note_on_c, 2, 78, 90
3, 19968, Note_on_c, 2, 75, 79
3, 20146, Note_on_c, 2, 78, 0
3, 20146, Note_on_c, 2, 71, 0
3, 20148, Note_on_c, 2, 75, 0
3, 20160, Note_on_c, 2, 76, 86
3, 20160, Note_on_c, 2, 73, 82
3, 20160, Note_on_c, 2, 69, 90
3, 20343, Note_on_c, 2, 69, 0
3, 20344, Note_on_c, 2, 76, 0
3, 20348, Note_on_c, 2, 73, 0
3, 20352, Note_on_c, 2, 78, 98
3, 20352, Note_on_c, 2, 75, 86
3, 20352, Note_on_c, 2, 71, 83
3, 20535, Note_on_c, 2, 78, 0
3, 20538, Note_on_c, 2, 75, 0
3, 20539, Note_on_c, 2, 71, 0
3, 20544, Note_on_c, 2, 76, 82
3, 20544, Note_on_c, 2, 73, 72
3, 20544, Note_on_c, 2, 69, 88
3, 20734, Note_on_c, 2, 69, 0
3, 20734, Note_on_c, 2, 73, 0
3, 20734, Note_on_c, 2, 76, 0
3, 20736, Note_on_c, 2, 75, 90
3, 20736, Note_on_c, 2, 71, 80
3, 20736, Note_on_c, 2, 78, 82
3, 20911, Note_on_c, 2, 78, 0
3, 20911, Note_on_c, 2, 71, 0
3, 20912, Note_on_c, 2, 75, 0
3, 20916, Note_on_c, 2, 81, 0
3, 20928, Note_on_c, 2, 76, 83
3, 20928, Note_on_c, 2, 73, 86
3, 20928, Note_on_c, 2, 68, 64
3, 21091, Note_on_c, 2, 68, 0
3, 21094, Note_on_c, 2, 76, 0
3, 21095, Note_on_c, 2, 73, 0
3, 21120, Note_on_c, 2, 74, 90
3, 21120, Note_on_c, 2, 69, 82
3, 21120, Note_on_c, 2, 78, 82
3, 21295, Note_on_c, 2, 74, 0
3, 21296, Note_on_c, 2, 69, 0
3, 21297, Note_on_c, 2, 78, 0
3, 21312, Note_on_c, 2, 78, 70
3, 21312, Note_on_c, 2, 74, 86
3, 21312, Note_on_c, 2, 71, 82
3, 21478, Note_on_c, 2, 78, 0
3, 21479, Note_on_c, 2, 74, 0
3, 21480, Note_on_c, 2, 71, 0
3, 21504, Note_on_c, 2, 76, 80
3, 21504, Note_on_c, 2, 67, 88
3, 21504, Note_on_c, 2, 72, 78
3, 22053, Note_on_c, 2, 76, 0
3, 22054, Note_on_c, 2, 72, 0
3, 22055, Note_on_c, 2, 67, 0
3, 22080, Note_on_c, 2, 74, 80
3, 22080, Note_on_c, 2, 78, 70
3, 22080, Note_on_c, 2, 69, 86
3, 22251, Note_on_c, 2, 78, 0
3, 22253, Note_on_c, 2, 74, 0
3, 22256, Note_on_c, 2, 69, 0
3, 22272, Note_on_c, 2, 72, 82
3, 22272, Note_on_c, 2, 76, 73
3, 22272, Note_on_c, 2, 67, 83
3, 22452, Note_on_c, 2, 67, 0
3, 22454, Note_on_c, 2, 76, 0
3, 22455, Note_on_c, 2, 72, 0
3, 22464, Note_on_c, 2, 78, 77
3, 22464, Note_on_c, 2, 74, 88
3, 22464, Note_on_c, 2, 69, 80
3, 22626, Note_on_c, 2, 74, 0
3, 22632, Note_on_c, 2, 78, 0
3, 22635, Note_on_c, 2, 69, 0
3, 22656, Note_on_c, 2, 76, 69
3, 22656, Note_on_c, 2, 67, 76
3, 22656, Note_on_c, 2, 71, 82
3, 22829, Note_on_c, 2, 67, 0
3, 22830, Note_on_c, 2, 71, 0
3, 22832, Note_on_c, 2, 76, 0
3, 22848, Note_on_c, 2, 76, 61
3, 22848, Note_on_c, 2, 73, 77
3, 22848, Note_on_c, 2, 69, 86
3, 23019, Note_on_c, 2, 69, 0
3, 23019, Note_on_c, 2, 73, 0
3, 23021, Note_on_c, 2, 76, 0
3, 23040, Note_on_c, 2, 67, 74
3, 23040, Note_on_c, 2, 60, 68
3, 23040, Note_on_c, 2, 64, 74
3, 23230, Note_on_c, 2, 64, 0
3, 23230, Note_on_c, 2, 67, 0
3, 23231, Note_on_c, 2, 60, 0
3, 23231, End_track
4, 0, Start_track
4, 0, MIDI_port, 0
4, 0, Title_t, "Synth"
4, 0, Program_c, 3, 62
4, 0, Control_c, 3, 7, 100
4, 0, Control_c, 3, 10, 94
4, 4848, Note_on_c, 3, 79, 98
4, 4870, Note_on_c, 3, 79, 0
4, 4872, Note_on_c, 3, 76, 98
4, 4894, Note_on_c, 3, 76, 0
4, 4896, Note_on_c, 3, 72, 78
4, 4918, Note_on_c, 3, 72, 0
4, 4920, Note_on_c, 3, 76, 93
4, 4942, Note_on_c, 3, 76, 0
4, 4944, Note_on_c, 3, 72, 95
4, 4966, Note_on_c, 3, 72, 0
4, 4968, Note_on_c, 3, 69, 88
4, 4990, Note_on_c, 3, 69, 0
4, 4992, Note_on_c, 3, 72, 88
4, 5014, Note_on_c, 3, 72, 0
4, 5016, Note_on_c, 3, 69, 93
4, 5038, Note_on_c, 3, 69, 0
4, 5040, Note_on_c, 3, 65, 114
4, 5062, Note_on_c, 3, 65, 0
4, 5064, Note_on_c, 3, 67, 106
4, 5086, Note_on_c, 3, 67, 0
4, 7872, Note_on_c, 3, 79, 98
4, 7894, Note_on_c, 3, 79, 0
4, 7896, Note_on_c, 3, 76, 98
4, 7918, Note_on_c, 3, 76, 0
4, 7920, Note_on_c, 3, 72, 78
4, 7942, Note_on_c, 3, 72, 0
4, 7944, Note_on_c, 3, 76, 93
4, 7966, Note_on_c, 3, 76, 0
4, 7968, Note_on_c, 3, 72, 95
4, 7990, Note_on_c, 3, 72, 0
4, 7992, Note_on_c, 3, 69, 88
4, 8014, Note_on_c, 3, 69, 0
4, 8016, Note_on_c, 3, 72, 88
4, 8038, Note_on_c, 3, 72, 0
4, 8040, Note_on_c, 3, 69, 93
4, 8062, Note_on_c, 3, 69, 0
4, 8064, Note_on_c, 3, 65, 114
4, 8086, Note_on_c, 3, 65, 0
4, 8088, Note_on_c, 3, 67, 106
4, 8110, Note_on_c, 3, 67, 0
4, 14688, Note_on_c, 3, 79, 98
4, 14710, Note_on_c, 3, 79, 0
4, 14712, Note_on_c, 3, 76, 98
4, 14734, Note_on_c, 3, 76, 0
4, 14736, Note_on_c, 3, 72, 78
4, 14758, Note_on_c, 3, 72, 0
4, 14760, Note_on_c, 3, 76, 93
4, 14782, Note_on_c, 3, 76, 0
4, 14784, Note_on_c, 3, 72, 95
4, 14806, Note_on_c, 3, 72, 0
4, 14808, Note_on_c, 3, 69, 88
4, 14830, Note_on_c, 3, 69, 0
4, 14832, Note_on_c, 3, 72, 88
4, 14854, Note_on_c, 3, 72, 0
4, 14856, Note_on_c, 3, 69, 93
4, 14878, Note_on_c, 3, 69, 0
4, 14880, Note_on_c, 3, 65, 114
4, 14902, Note_on_c, 3, 65, 0
4, 14904, Note_on_c, 3, 67, 106
4, 14926, Note_on_c, 3, 67, 0
4, 17712, Note_on_c, 3, 79, 98
4, 17734, Note_on_c, 3, 79, 0
4, 17736, Note_on_c, 3, 76, 98
4, 17758, Note_on_c, 3, 76, 0
4, 17760, Note_on_c, 3, 72, 78
4, 17782, Note_on_c, 3, 72, 0
4, 17784, Note_on_c, 3, 76, 93
4, 17806, Note_on_c, 3, 76, 0
4, 17808, Note_on_c, 3, 72, 95
4, 17830, Note_on_c, 3, 72, 0
4, 17832, Note_on_c, 3, 69, 88
4, 17854, Note_on_c, 3, 69, 0
4, 17856, Note_on_c, 3, 72, 88
4, 17878, Note_on_c, 3, 72, 0
4, 17880, Note_on_c, 3, 69, 93
4, 17902, Note_on_c, 3, 69, 0
4, 17904, Note_on_c, 3, 65, 114
4, 17926, Note_on_c, 3, 65, 0
4, 17928, Note_on_c, 3, 67, 106
4, 17950, Note_on_c, 3, 67, 0
4, 17950, End_track
5, 0, Start_track
5, 0, MIDI_port, 0
5, 0, Title_t, "Ac. Guitar"
5, 0, Program_c, 4, 25
5, 0, Control_c, 4, 7, 115
5, 0, Control_c, 4, 10, 88
5, 2064, Note_on_c, 4, 59, 82
5, 2064, Note_on_c, 4, 55, 95
5, 2064, Note_on_c, 4, 52, 93
5, 2099, Note_on_c, 4, 52, 0
5, 2099, Note_on_c, 4, 55, 0
5, 2100, Note_on_c, 4, 59, 0
5, 2112, Note_on_c, 4, 55, 78
5, 2112, Note_on_c, 4, 59, 70
5, 2112, Note_on_c, 4, 52, 74
5, 2124, Note_on_c, 4, 59, 0
5, 2124, Note_on_c, 4, 55, 0
5, 2127, Note_on_c, 4, 52, 0
5, 2137, Note_on_c, 4, 57, 90
5, 2137, Note_on_c, 4, 50, 95
5, 2137, Note_on_c, 4, 54, 94
5, 2163, Note_on_c, 4, 54, 0
5, 2164, Note_on_c, 4, 57, 0
5, 2165, Note_on_c, 4, 50, 0
5, 2184, Note_on_c, 4, 57, 74
5, 2184, Note_on_c, 4, 54, 79
5, 2184, Note_on_c, 4, 50, 82
5, 2196, Note_on_c, 4, 50, 0
5, 2196, Note_on_c, 4, 54, 0
5, 2196, Note_on_c, 4, 57, 0
5, 2208, Note_on_c, 4, 59, 93
5, 2208, Note_on_c, 4, 54, 98
5, 2208, Note_on_c, 4, 50, 95
5, 2234, Note_on_c, 4, 50, 0
5, 2234, Note_on_c, 4, 54, 0
5, 2235, Note_on_c, 4, 59, 0
5, 2256, Note_on_c, 4, 59, 88
5, 2256, Note_on_c, 4, 54, 98
5, 2256, Note_on_c, 4, 50, 93
5, 2277, Note_on_c, 4, 50, 0
5, 2277, Note_on_c, 4, 54, 0
5, 2279, Note_on_c, 4, 59, 0
5, 2304, Note_on_c, 4, 59, 90
5, 2304, Note_on_c, 4, 55, 98
5, 2304, Note_on_c, 4, 52, 98
5, 2337, Note_on_c, 4, 52, 0
5, 2338, Note_on_c, 4, 59, 0
5, 2339, Note_on_c, 4, 55, 0
5, 2352, Note_on_c, 4, 59, 90
5, 2352, Note_on_c, 4, 55, 102
5, 2352, Note_on_c, 4, 52, 98
5, 2380, Note_on_c, 4, 52, 0
5, 2382, Note_on_c, 4, 55, 0
5, 2382, Note_on_c, 4, 59, 0
5, 2400, Note_on_c, 4, 59, 74
5, 2400, Note_on_c, 4, 55, 86
5, 2400, Note_on_c, 4, 52, 83
5, 2412, Note_on_c, 4, 55, 0
5, 2414, Note_on_c, 4, 52, 0
5, 2414, Note_on_c, 4, 59, 0
5, 2424, Note_on_c, 4, 59, 90
5, 2424, Note_on_c, 4, 54, 94
5, 2424, Note_on_c, 4, 50, 98
5, 2449, Note_on_c, 4, 50, 0
5, 2449, Note_on_c, 4, 54, 0
5, 2452, Note_on_c, 4, 59, 0
5, 2472, Note_on_c, 4, 59, 73
5, 2472, Note_on_c, 4, 54, 86
5, 2472, Note_on_c, 4, 50, 83
5, 2479, Note_on_c, 4, 50, 0
5, 2483, Note_on_c, 4, 54, 0
5, 2483, Note_on_c, 4, 59, 0
5, 2496, Note_on_c, 4, 57, 86
5, 2496, Note_on_c, 4, 52, 98
5, 2496, Note_on_c, 4, 49, 77
5, 2515, Note_on_c, 4, 49, 0
5, 2517, Note_on_c, 4, 52, 0
5, 2519, Note_on_c, 4, 57, 0
5, 2544, Note_on_c, 4, 59, 93
5, 2544, Note_on_c, 4, 54, 102
5, 2544, Note_on_c, 4, 50, 106
5, 2582, Note_on_c, 4, 50, 0
5, 2582, Note_on_c, 4, 59, 0
5, 2583, Note_on_c, 4, 54, 0
5, 2592, Note_on_c, 4, 59, 86
5, 2592, Note_on_c, 4, 54, 90
5, 2592, Note_on_c, 4, 50, 95
5, 2620, Note_on_c, 4, 50, 0
5, 2620, Note_on_c, 4, 54, 0
5, 2623, Note_on_c, 4, 59, 0
5, 2640, Note_on_c, 4, 59, 90
5, 2640, Note_on_c, 4, 56, 94
5, 2640, Note_on_c, 4, 52, 106
5, 2669, Note_on_c, 4, 56, 0
5, 2669, Note_on_c, 4, 59, 0
5, 2670, Note_on_c, 4, 52, 0
5, 2688, Note_on_c, 4, 59, 90
5, 2688, Note_on_c, 4, 56, 94
5, 2688, Note_on_c, 4, 52, 95
5, 2714, Note_on_c, 4, 56, 0
5, 2714, Note_on_c, 4, 59, 0
5, 2716, Note_on_c, 4, 52, 0
5, 2736, Note_on_c, 4, 59, 82
5, 2736, Note_on_c, 4, 55, 95
5, 2736, Note_on_c, 4, 52, 93
5, 2771, Note_on_c, 4, 52, 0
5, 2771, Note_on_c, 4, 55, 0
5, 2772, Note_on_c, 4, 59, 0
5, 2784, Note_on_c, 4, 59, 70
5, 2784, Note_on_c, 4, 52, 74
5, 2784, Note_on_c, 4, 55, 78
5, 2796, Note_on_c, 4, 55, 0
5, 2796, Note_on_c, 4, 59, 0
5, 2799, Note_on_c, 4, 52, 0
5, 2809, Note_on_c, 4, 57, 90
5, 2809, Note_on_c, 4, 50, 95
5, 2809, Note_on_c, 4, 54, 94
5, 2835, Note_on_c, 4, 54, 0
5, 2836, Note_on_c, 4, 57, 0
5, 2837, Note_on_c, 4, 50, 0
5, 2856, Note_on_c, 4, 57, 74
5, 2856, Note_on_c, 4, 54, 79
5, 2856, Note_on_c, 4, 50, 82
5, 2868, Note_on_c, 4, 50, 0
5, 2868, Note_on_c, 4, 54, 0
5, 2868, Note_on_c, 4, 57, 0
5, 2880, Note_on_c, 4, 59, 93
5, 2880, Note_on_c, 4, 54, 98
5, 2880, Note_on_c, 4, 50, 95
5, 2906, Note_on_c, 4, 50, 0
5, 2906, Note_on_c, 4, 54, 0
5, 2907, Note_on_c, 4, 59, 0
5, 2928, Note_on_c, 4, 59, 88
5, 2928, Note_on_c, 4, 54, 98
5, 2928, Note_on_c, 4, 50, 93
5, 2949, Note_on_c, 4, 50, 0
5, 2949, Note_on_c, 4, 54, 0
5, 2951, Note_on_c, 4, 59, 0
5, 2976, Note_on_c, 4, 59, 90
5, 2976, Note_on_c, 4, 55, 98
5, 2976, Note_on_c, 4, 52, 98
5, 3009, Note_on_c, 4, 52, 0
5, 3010, Note_on_c, 4, 59, 0
5, 3011, Note_on_c, 4, 55, 0
5, 3024, Note_on_c, 4, 59, 90
5, 3024, Note_on_c, 4, 55, 102
5, 3024, Note_on_c, 4, 52, 98
5, 3052, Note_on_c, 4, 52, 0
5, 3054, Note_on_c, 4, 55, 0
5, 3054, Note_on_c, 4, 59, 0
5, 3072, Note_on_c, 4, 59, 74
5, 3072, Note_on_c, 4, 55, 86
5, 3072, Note_on_c, 4, 52, 83
5, 3084, Note_on_c, 4, 55, 0
5, 3086, Note_on_c, 4, 52, 0
5, 3086, Note_on_c, 4, 59, 0
5, 3096, Note_on_c, 4, 59, 90
5, 3096, Note_on_c, 4, 54, 94
5, 3096, Note_on_c, 4, 50, 98
5, 3121, Note_on_c, 4, 50, 0
5, 3121, Note_on_c, 4, 54, 0
5, 3124, Note_on_c, 4, 59, 0
5, 3144, Note_on_c, 4, 59, 73
5, 3144, Note_on_c, 4, 54, 86
5, 3144, Note_on_c, 4, 50, 83
5, 3151, Note_on_c, 4, 50, 0
5, 3155, Note_on_c, 4, 54, 0
5, 3155, Note_on_c, 4, 59, 0
5, 3168, Note_on_c, 4, 57, 86
5, 3168, Note_on_c, 4, 52, 98
5, 3168, Note_on_c, 4, 49, 77
5, 3187, Note_on_c, 4, 49, 0
5, 3189, Note_on_c, 4, 52, 0
5, 3191, Note_on_c, 4, 57, 0
5, 3216, Note_on_c, 4, 59, 93
5, 3216, Note_on_c, 4, 54, 102
5, 3216, Note_on_c, 4, 50, 106
5, 3254, Note_on_c, 4, 50, 0
5, 3254, Note_on_c, 4, 59, 0
5, 3255, Note_on_c, 4, 54, 0
5, 3264, Note_on_c, 4, 59, 86
5, 3264, Note_on_c, 4, 54, 90
5, 3264, Note_on_c, 4, 50, 95
5, 3292, Note_on_c, 4, 50, 0
5, 3292, Note_on_c, 4, 54, 0
5, 3295, Note_on_c, 4, 59, 0
5, 3312, Note_on_c, 4, 59, 90
5, 3312, Note_on_c, 4, 56, 94
5, 3312, Note_on_c, 4, 52, 106
5, 3341, Note_on_c, 4, 56, 0
5, 3341, Note_on_c, 4, 59, 0
5, 3342, Note_on_c, 4, 52, 0
5, 3360, Note_on_c, 4, 59, 90
5, 3360, Note_on_c, 4, 56, 94
5, 3360, Note_on_c, 4, 52, 95
5, 3386, Note_on_c, 4, 56, 0
5, 3386, Note_on_c, 4, 59, 0
5, 3388, Note_on_c, 4, 52, 0
5, 3408, Note_on_c, 4, 59, 78
5, 3408, Note_on_c, 4, 55, 76
5, 3408, Note_on_c, 4, 52, 83
5, 3470, Note_on_c, 4, 52, 0
5, 3471, Note_on_c, 4, 55, 0
5, 3472, Note_on_c, 4, 59, 0
5, 3480, Note_on_c, 4, 59, 78
5, 3480, Note_on_c, 4, 55, 86
5, 3480, Note_on_c, 4, 52, 82
5, 3490, Note_on_c, 4, 55, 0
5, 3491, Note_on_c, 4, 59, 0
5, 3492, Note_on_c, 4, 52, 0
5, 3504, Note_on_c, 4, 57, 90
5, 3504, Note_on_c, 4, 54, 98
5, 3504, Note_on_c, 4, 50, 95
5, 3556, Note_on_c, 4, 50, 0
5, 3556, Note_on_c, 4, 54, 0
5, 3559, Note_on_c, 4, 57, 0
5, 3575, Note_on_c, 4, 57, 66
5, 3576, Note_on_c, 4, 54, 72
5, 3576, Note_on_c, 4, 50, 78
5, 3586, Note_on_c, 4, 54, 0
5, 3586, Note_on_c, 4, 57, 0
5, 3587, Note_on_c, 4, 50, 0
5, 3600, Note_on_c, 4, 52, 95
5, 3600, Note_on_c, 4, 48, 90
5, 3600, Note_on_c, 4, 57, 88
5, 3659, Note_on_c, 4, 57, 0
5, 3662, Note_on_c, 4, 48, 0
5, 3662, Note_on_c, 4, 52, 0
5, 3672, Note_on_c, 4, 57, 73
5, 3672, Note_on_c, 4, 52, 80
5, 3672, Note_on_c, 4, 48, 74
5, 3682, Note_on_c, 4, 48, 0
5, 3682, Note_on_c, 4, 52, 0
5, 3684, Note_on_c, 4, 57, 0
5, 3696, Note_on_c, 4, 57, 88
5, 3696, Note_on_c, 4, 54, 94
5, 3696, Note_on_c, 4, 50, 95
5, 3778, Note_on_c, 4, 50, 0
5, 3779, Note_on_c, 4, 54, 0
5, 3780, Note_on_c, 4, 57, 0
5, 3792, Note_on_c, 4, 59, 76
5, 3792, Note_on_c, 4, 55, 83
5, 3792, Note_on_c, 4, 52, 78
5, 3850, Note_on_c, 4, 52, 0
5, 3850, Note_on_c, 4, 55, 0
5, 3850, Note_on_c, 4, 59, 0
5, 3864, Note_on_c, 4, 59, 78
5, 3864, Note_on_c, 4, 55, 83
5, 3864, Note_on_c, 4, 52, 83
5, 3873, Note_on_c, 4, 55, 0
5, 3873, Note_on_c, 4, 59, 0
5, 3874, Note_on_c, 4, 52, 0
5, 3888, Note_on_c, 4, 57, 93
5, 3888, Note_on_c, 4, 54, 98
5, 3888, Note_on_c, 4, 50, 95
5, 3940, Note_on_c, 4, 50, 0
5, 3942, Note_on_c, 4, 54, 0
5, 3943, Note_on_c, 4, 57, 0
5, 3960, Note_on_c, 4, 57, 62
5, 3960, Note_on_c, 4, 54, 64
5, 3960, Note_on_c, 4, 50, 70
5, 3971, Note_on_c, 4, 50, 0
5, 3971, Note_on_c, 4, 54, 0
5, 3972, Note_on_c, 4, 57, 0
5, 3984, Note_on_c, 4, 55, 93
5, 3984, Note_on_c, 4, 52, 98
5, 3984, Note_on_c, 4, 48, 90
5, 4008, Note_on_c, 4, 48, 0
5, 4010, Note_on_c, 4, 52, 0
5, 4010, Note_on_c, 4, 55, 0
5, 4032, Note_on_c, 4, 57, 83
5, 4032, Note_on_c, 4, 54, 94
5, 4032, Note_on_c, 4, 50, 102
5, 4059, Note_on_c, 4, 50, 0
5, 4060, Note_on_c, 4, 54, 0
5, 4061, Note_on_c, 4, 57, 0
5, 4080, Note_on_c, 4, 59, 86
5, 4080, Note_on_c, 4, 55, 93
5, 4081, Note_on_c, 4, 52, 95
5, 4113, Note_on_c, 4, 59, 0
5, 4114, Note_on_c, 4, 52, 0
5, 4114, Note_on_c, 4, 55, 0
5, 4128, Note_on_c, 4, 59, 80
5, 4128, Note_on_c, 4, 55, 86
5, 4128, Note_on_c, 4, 52, 86
5, 4139, Note_on_c, 4, 55, 0
5, 4139, Note_on_c, 4, 59, 0
5, 4140, Note_on_c, 4, 52, 0
5, 4153, Note_on_c, 4, 57, 88
5, 4153, Note_on_c, 4, 54, 90
5, 4153, Note_on_c, 4, 50, 95
5, 4180, Note_on_c, 4, 54, 0
5, 4180, Note_on_c, 4, 57, 0
5, 4181, Note_on_c, 4, 50, 0
5, 4200, Note_on_c, 4, 57, 90
5, 4200, Note_on_c, 4, 54, 94
5, 4200, Note_on_c, 4, 50, 93
5, 4214, Note_on_c, 4, 50, 0
5, 4214, Note_on_c, 4, 54, 0
5, 4214, Note_on_c, 4, 57, 0
5, 4224, Note_on_c, 4, 59, 93
5, 4224, Note_on_c, 4, 54, 103
5, 4224, Note_on_c, 4, 50, 95
5, 4246, Note_on_c, 4, 54, 0
5, 4247, Note_on_c, 4, 50, 0
5, 4248, Note_on_c, 4, 59, 0
5, 4271, Note_on_c, 4, 59, 93
5, 4271, Note_on_c, 4, 54, 103
5, 4272, Note_on_c, 4, 50, 102
5, 4293, Note_on_c, 4, 59, 0
5, 4294, Note_on_c, 4, 54, 0
5, 4295, Note_on_c, 4, 50, 0
5, 4320, Note_on_c, 4, 43, 92
5, 4339, Note_on_c, 4, 43, 0
5, 4344, Note_on_c, 4, 47, 92
5, 4363, Note_on_c, 4, 47, 0
5, 4368, Note_on_c, 4, 50, 92
5, 4387, Note_on_c, 4, 50, 0
5, 4392, Note_on_c, 4, 55, 92
5, 4411, Note_on_c, 4, 55, 0
5, 4416, Note_on_c, 4, 45, 92
5, 4435, Note_on_c, 4, 45, 0
5, 4440, Note_on_c, 4, 48, 92
5, 4459, Note_on_c, 4, 48, 0
5, 4464, Note_on_c, 4, 50, 92
5, 4483, Note_on_c, 4, 50, 0
5, 4488, Note_on_c, 4, 55, 92
5, 4507, Note_on_c, 4, 55, 0
5, 4512, Note_on_c, 4, 47, 92
5, 4531, Note_on_c, 4, 47, 0
5, 4536, Note_on_c, 4, 50, 92
5, 4555, Note_on_c, 4, 50, 0
5, 4560, Note_on_c, 4, 55, 92
5, 4579, Note_on_c, 4, 55, 0
5, 4584, Note_on_c, 4, 59, 92
5, 4603, Note_on_c, 4, 59, 0
5, 4608, Note_on_c, 4, 48, 92
5, 4627, Note_on_c, 4, 48, 0
5, 4632, Note_on_c, 4, 50, 92
5, 4651, Note_on_c, 4, 50, 0
5, 4656, Note_on_c, 4, 55, 92
5, 4675, Note_on_c, 4, 55, 0
5, 4680, Note_on_c, 4, 59, 92
5, 4699, Note_on_c, 4, 59, 0
5, 4704, Note_on_c, 4, 53, 79
5, 4723, Note_on_c, 4, 53, 0
5, 4728, Note_on_c, 4, 55, 79
5, 4747, Note_on_c, 4, 55, 0
5, 4752, Note_on_c, 4, 60, 79
5, 4771, Note_on_c, 4, 60, 0
5, 4776, Note_on_c, 4, 64, 79
5, 4795, Note_on_c, 4, 64, 0
5, 4800, Note_on_c, 4, 60, 79
5, 4819, Note_on_c, 4, 60, 0
5, 4824, Note_on_c, 4, 55, 79
5, 4843, Note_on_c, 4, 55, 0
5, 4848, Note_on_c, 4, 53, 79
5, 4867, Note_on_c, 4, 53, 0
5, 4872, Note_on_c, 4, 55, 79
5, 4891, Note_on_c, 4, 55, 0
5, 4896, Note_on_c, 4, 53, 79
5, 4915, Note_on_c, 4, 53, 0
5, 4920, Note_on_c, 4, 55, 79
5, 4939, Note_on_c, 4, 55, 0
5, 4944, Note_on_c, 4, 60, 79
5, 4963, Note_on_c, 4, 60, 0
5, 4968, Note_on_c, 4, 64, 79
5, 4987, Note_on_c, 4, 64, 0
5, 4992, Note_on_c, 4, 60, 79
5, 5011, Note_on_c, 4, 60, 0
5, 5016, Note_on_c, 4, 55, 79
5, 5035, Note_on_c, 4, 55, 0
5, 5040, Note_on_c, 4, 53, 79
5, 5059, Note_on_c, 4, 53, 0
5, 5064, Note_on_c, 4, 55, 79
5, 5083, Note_on_c, 4, 55, 0
5, 5088, Note_on_c, 4, 59, 82
5, 5088, Note_on_c, 4, 55, 95
5, 5088, Note_on_c, 4, 52, 93
5, 5123, Note_on_c, 4, 52, 0
5, 5123, Note_on_c, 4, 55, 0
5, 5124, Note_on_c, 4, 59, 0
5, 5136, Note_on_c, 4, 55, 78
5, 5136, Note_on_c, 4, 59, 70
5, 5136, Note_on_c, 4, 52, 74
5, 5148, Note_on_c, 4, 59, 0
5, 5148, Note_on_c, 4, 55, 0
5, 5151, Note_on_c, 4, 52, 0
5, 5161, Note_on_c, 4, 57, 90
5, 5161, Note_on_c, 4, 50, 95
5, 5161, Note_on_c, 4, 54, 94
5, 5187, Note_on_c, 4, 54, 0
5, 5188, Note_on_c, 4, 57, 0
5, 5189, Note_on_c, 4, 50, 0
5, 5208, Note_on_c, 4, 57, 74
5, 5208, Note_on_c, 4, 54, 79
5, 5208, Note_on_c, 4, 50, 82
5, 5220, Note_on_c, 4, 50, 0
5, 5220, Note_on_c, 4, 54, 0
5, 5220, Note_on_c, 4, 57, 0
5, 5232, Note_on_c, 4, 59, 93
5, 5232, Note_on_c, 4, 54, 98
5, 5232, Note_on_c, 4, 50, 95
5, 5258, Note_on_c, 4, 50, 0
5, 5258, Note_on_c, 4, 54, 0
5, 5259, Note_on_c, 4, 59, 0
5, 5280, Note_on_c, 4, 59, 88
5, 5280, Note_on_c, 4, 54, 98
5, 5280, Note_on_c, 4, 50, 93
5, 5301, Note_on_c, 4, 50, 0
5, 5301, Note_on_c, 4, 54, 0
5, 5303, Note_on_c, 4, 59, 0
5, 5328, Note_on_c, 4, 59, 90
5, 5328, Note_on_c, 4, 55, 98
5, 5328, Note_on_c, 4, 52, 98
5, 5361, Note_on_c, 4, 52, 0
5, 5362, Note_on_c, 4, 59, 0
5, 5363, Note_on_c, 4, 55, 0
5, 5376, Note_on_c, 4, 59, 90
5, 5376, Note_on_c, 4, 55, 102
5, 5376, Note_on_c, 4, 52, 98
5, 5404, Note_on_c, 4, 52, 0
5, 5406, Note_on_c, 4, 55, 0
5, 5406, Note_on_c, 4, 59, 0
5, 5424, Note_on_c, 4, 59, 74
5, 5424, Note_on_c, 4, 55, 86
5, 5424, Note_on_c, 4, 52, 83
5, 5436, Note_on_c, 4, 55, 0
5, 5438, Note_on_c, 4, 52, 0
5, 5438, Note_on_c, 4, 59, 0
5, 5448, Note_on_c, 4, 59, 90
5, 5448, Note_on_c, 4, 54, 94
5, 5448, Note_on_c, 4, 50, 98
5, 5473, Note_on_c, 4, 50, 0
5, 5473, Note_on_c, 4, 54, 0
5, 5476, Note_on_c, 4, 59, 0
5, 5496, Note_on_c, 4, 59, 73
5, 5496, Note_on_c, 4, 54, 86
5, 5496, Note_on_c, 4, 50, 83
5, 5503, Note_on_c, 4, 50, 0
5, 5507, Note_on_c, 4, 54, 0
5, 5507, Note_on_c, 4, 59, 0
5, 5520, Note_on_c, 4, 57, 86
5, 5520, Note_on_c, 4, 52, 98
5, 5520, Note_on_c, 4, 49, 77
5, 5539, Note_on_c, 4, 49, 0
5, 5541, Note_on_c, 4, 52, 0
5, 5543, Note_on_c, 4, 57, 0
5, 5568, Note_on_c, 4, 59, 93
5, 5568, Note_on_c, 4, 54, 102
5, 5568, Note_on_c, 4, 50, 106
5, 5606, Note_on_c, 4, 50, 0
5, 5606, Note_on_c, 4, 59, 0
5, 5607, Note_on_c, 4, 54, 0
5, 5616, Note_on_c, 4, 59, 86
5, 5616, Note_on_c, 4, 54, 90
5, 5616, Note_on_c, 4, 50, 95
5, 5644, Note_on_c, 4, 50, 0
5, 5644, Note_on_c, 4, 54, 0
5, 5647, Note_on_c, 4, 59, 0
5, 5664, Note_on_c, 4, 59, 90
5, 5664, Note_on_c, 4, 56, 94
5, 5664, Note_on_c, 4, 52, 106
5, 5693, Note_on_c, 4, 56, 0
5, 5693, Note_on_c, 4, 59, 0
5, 5694, Note_on_c, 4, 52, 0
5, 5712, Note_on_c, 4, 59, 90
5, 5712, Note_on_c, 4, 56, 94
5, 5712, Note_on_c, 4, 52, 95
5, 5738, Note_on_c, 4, 56, 0
5, 5738, Note_on_c, 4, 59, 0
5, 5740, Note_on_c, 4, 52, 0
5, 5760, Note_on_c, 4, 59, 82
5, 5760, Note_on_c, 4, 55, 95
5, 5760, Note_on_c, 4, 52, 93
5, 5795, Note_on_c, 4, 52, 0
5, 5795, Note_on_c, 4, 55, 0
5, 5796, Note_on_c, 4, 59, 0
5, 5808, Note_on_c, 4, 59, 70
5, 5808, Note_on_c, 4, 52, 74
5, 5808, Note_on_c, 4, 55, 78
5, 5820, Note_on_c, 4, 55, 0
5, 5820, Note_on_c, 4, 59, 0
5, 5823, Note_on_c, 4, 52, 0
5, 5833, Note_on_c, 4, 57, 90
5, 5833, Note_on_c, 4, 50, 95
5, 5833, Note_on_c, 4, 54, 94
5, 5859, Note_on_c, 4, 54, 0
5, 5860, Note_on_c, 4, 57, 0
5, 5861, Note_on_c, 4, 50, 0
5, 5880, Note_on_c, 4, 57, 74
5, 5880, Note_on_c, 4, 54, 79
5, 5880, Note_on_c, 4, 50, 82
5, 5892, Note_on_c, 4, 50, 0
5, 5892, Note_on_c, 4, 54, 0
5, 5892, Note_on_c, 4, 57, 0
5, 5904, Note_on_c, 4, 59, 93
5, 5904, Note_on_c, 4, 54, 98
5, 5904, Note_on_c, 4, 50, 95
5, 5930, Note_on_c, 4, 50, 0
5, 5930, Note_on_c, 4, 54, 0
5, 5931, Note_on_c, 4, 59, 0
5, 5952, Note_on_c, 4, 59, 88
5, 5952, Note_on_c, 4, 54, 98
5, 5952, Note_on_c, 4, 50, 93
5, 5973, Note_on_c, 4, 50, 0
5, 5973, Note_on_c, 4, 54, 0
5, 5975, Note_on_c, 4, 59, 0
5, 6000, Note_on_c, 4, 59, 90
5, 6000, Note_on_c, 4, 55, 98
5, 6000, Note_on_c, 4, 52, 98
5, 6033, Note_on_c, 4, 52, 0
5, 6034, Note_on_c, 4, 59, 0
5, 6035, Note_on_c, 4, 55, 0
5, 6048, Note_on_c, 4, 59, 90
5, 6048, Note_on_c, 4, 55, 102
5, 6048, Note_on_c, 4, 52, 98
5, 6076, Note_on_c, 4, 52, 0
5, 6078, Note_on_c, 4, 55, 0
5, 6078, Note_on_c, 4, 59, 0
5, 6096, Note_on_c, 4, 59, 74
5, 6096, Note_on_c, 4, 55, 86
5, 6096, Note_on_c, 4, 52, 83
5, 6108, Note_on_c, 4, 55, 0
5, 6110, Note_on_c, 4, 52, 0
5, 6110, Note_on_c, 4, 59, 0
5, 6120, Note_on_c, 4, 59, 90
5, 6120, Note_on_c, 4, 54, 94
5, 6120, Note_on_c, 4, 50, 98
5, 6145, Note_on_c, 4, 50, 0
5, 6145, Note_on_c, 4, 54, 0
5, 6148, Note_on_c, 4, 59, 0
5, 6168, Note_on_c, 4, 59, 73
5, 6168, Note_on_c, 4, 54, 86
5, 6168, Note_on_c, 4, 50, 83
5, 6175, Note_on_c, 4, 50, 0
5, 6179, Note_on_c, 4, 54, 0
5, 6179, Note_on_c, 4, 59, 0
5, 6192, Note_on_c, 4, 57, 86
5, 6192, Note_on_c, 4, 52, 98
5, 6192, Note_on_c, 4, 49, 77
5, 6211, Note_on_c, 4, 49, 0
5, 6213, Note_on_c, 4, 52, 0
5, 6215, Note_on_c, 4, 57, 0
5, 6240, Note_on_c, 4, 59, 93
5, 6240, Note_on_c, 4, 54, 102
5, 6240, Note_on_c, 4, 50, 106
5, 6278, Note_on_c, 4, 50, 0
5, 6278, Note_on_c, 4, 59, 0
5, 6279, Note_on_c, 4, 54, 0
5, 6288, Note_on_c, 4, 59, 86
5, 6288, Note_on_c, 4, 54, 90
5, 6288, Note_on_c, 4, 50, 95
5, 6316, Note_on_c, 4, 50, 0
5, 6316, Note_on_c, 4, 54, 0
5, 6319, Note_on_c, 4, 59, 0
5, 6336, Note_on_c, 4, 59, 90
5, 6336, Note_on_c, 4, 56, 94
5, 6336, Note_on_c, 4, 52, 106
5, 6365, Note_on_c, 4, 56, 0
5, 6365, Note_on_c, 4, 59, 0
5, 6366, Note_on_c, 4, 52, 0
5, 6384, Note_on_c, 4, 59, 90
5, 6384, Note_on_c, 4, 56, 94
5, 6384, Note_on_c, 4, 52, 95
5, 6410, Note_on_c, 4, 56, 0
5, 6410, Note_on_c, 4, 59, 0
5, 6412, Note_on_c, 4, 52, 0
5, 6432, Note_on_c, 4, 59, 78
5, 6432, Note_on_c, 4, 55, 76
5, 6432, Note_on_c, 4, 52, 83
5, 6494, Note_on_c, 4, 52, 0
5, 6495, Note_on_c, 4, 55, 0
5, 6496, Note_on_c, 4, 59, 0
5, 6504, Note_on_c, 4, 59, 78
5, 6504, Note_on_c, 4, 55, 86
5, 6504, Note_on_c, 4, 52, 82
5, 6514, Note_on_c, 4, 55, 0
5, 6515, Note_on_c, 4, 59, 0
5, 6516, Note_on_c, 4, 52, 0
5, 6528, Note_on_c, 4, 57, 90
5, 6528, Note_on_c, 4, 54, 98
5, 6528, Note_on_c, 4, 50, 95
5, 6580, Note_on_c, 4, 50, 0
5, 6580, Note_on_c, 4, 54, 0
5, 6583, Note_on_c, 4, 57, 0
5, 6599, Note_on_c, 4, 57, 66
5, 6600, Note_on_c, 4, 54, 72
5, 6600, Note_on_c, 4, 50, 78
5, 6610, Note_on_c, 4, 54, 0
5, 6610, Note_on_c, 4, 57, 0
5, 6611, Note_on_c, 4, 50, 0
5, 6624, Note_on_c, 4, 52, 95
5, 6624, Note_on_c, 4, 48, 90
5, 6624, Note_on_c, 4, 57, 88
5, 6683, Note_on_c, 4, 57, 0
5, 6686, Note_on_c, 4, 48, 0
5, 6686, Note_on_c, 4, 52, 0
5, 6696, Note_on_c, 4, 57, 73
5, 6696, Note_on_c, 4, 52, 80
5, 6696, Note_on_c, 4, 48, 74
5, 6706, Note_on_c, 4, 48, 0
5, 6706, Note_on_c, 4, 52, 0
5, 6708, Note_on_c, 4, 57, 0
5, 6720, Note_on_c, 4, 57, 88
5, 6720, Note_on_c, 4, 54, 94
5, 6720, Note_on_c, 4, 50, 95
5, 6802, Note_on_c, 4, 50, 0
5, 6803, Note_on_c, 4, 54, 0
5, 6804, Note_on_c, 4, 57, 0
5, 6816, Note_on_c, 4, 59, 76
5, 6816, Note_on_c, 4, 55, 83
5, 6816, Note_on_c, 4, 52, 78
5, 6874, Note_on_c, 4, 52, 0
5, 6874, Note_on_c, 4, 55, 0
5, 6874, Note_on_c, 4, 59, 0
5, 6888, Note_on_c, 4, 59, 78
5, 6888, Note_on_c, 4, 55, 83
5, 6888, Note_on_c, 4, 52, 83
5, 6897, Note_on_c, 4, 55, 0
5, 6897, Note_on_c, 4, 59, 0
5, 6898, Note_on_c, 4, 52, 0
5, 6912, Note_on_c, 4, 57, 93
5, 6912, Note_on_c, 4, 54, 98
5, 6912, Note_on_c, 4, 50, 95
5, 6964, Note_on_c, 4, 50, 0
5, 6966, Note_on_c, 4, 54, 0
5, 6967, Note_on_c, 4, 57, 0
5, 6984, Note_on_c, 4, 57, 62
5, 6984, Note_on_c, 4, 54, 64
5, 6984, Note_on_c, 4, 50, 70
5, 6995, Note_on_c, 4, 50, 0
5, 6995, Note_on_c, 4, 54, 0
5, 6996, Note_on_c, 4, 57, 0
5, 7008, Note_on_c, 4, 55, 93
5, 7008, Note_on_c, 4, 52, 98
5, 7008, Note_on_c, 4, 48, 90
5, 7032, Note_on_c, 4, 48, 0
5, 7034, Note_on_c, 4, 52, 0
5, 7034, Note_on_c, 4, 55, 0
5, 7056, Note_on_c, 4, 57, 83
5, 7056, Note_on_c, 4, 54, 94
5, 7056, Note_on_c, 4, 50, 102
5, 7083, Note_on_c, 4, 50, 0
5, 7084, Note_on_c, 4, 54, 0
5, 7085, Note_on_c, 4, 57, 0
5, 7104, Note_on_c, 4, 59, 86
5, 7104, Note_on_c, 4, 55, 93
5, 7105, Note_on_c, 4, 52, 95
5, 7137, Note_on_c, 4, 59, 0
5, 7138, Note_on_c, 4, 52, 0
5, 7138, Note_on_c, 4, 55, 0
5, 7152, Note_on_c, 4, 59, 80
5, 7152, Note_on_c, 4, 55, 86
5, 7152, Note_on_c, 4, 52, 86
5, 7163, Note_on_c, 4, 55, 0
5, 7163, Note_on_c, 4, 59, 0
5, 7164, Note_on_c, 4, 52, 0
5, 7177, Note_on_c, 4, 57, 88
5, 7177, Note_on_c, 4, 54, 90
5, 7177, Note_on_c, 4, 50, 95
5, 7204, Note_on_c, 4, 54, 0
5, 7204, Note_on_c, 4, 57, 0
5, 7205, Note_on_c, 4, 50, 0
5, 7224, Note_on_c, 4, 57, 90
5, 7224, Note_on_c, 4, 54, 94
5, 7224, Note_on_c, 4, 50, 93
5, 7238, Note_on_c, 4, 50, 0
5, 7238, Note_on_c, 4, 54, 0
5, 7238, Note_on_c, 4, 57, 0
5, 7248, Note_on_c, 4, 59, 93
5, 7248, Note_on_c, 4, 54, 103
5, 7248, Note_on_c, 4, 50, 95
5, 7270, Note_on_c, 4, 54, 0
5, 7271, Note_on_c, 4, 50, 0
5, 7272, Note_on_c, 4, 59, 0
5, 7295, Note_on_c, 4, 59, 93
5, 7295, Note_on_c, 4, 54, 103
5, 7296, Note_on_c, 4, 50, 102
5, 7317, Note_on_c, 4, 59, 0
5, 7318, Note_on_c, 4, 54, 0
5, 7319, Note_on_c, 4, 50, 0
5, 7344, Note_on_c, 4, 43, 92
5, 7363, Note_on_c, 4, 43, 0
5, 7368, Note_on_c, 4, 47, 92
5, 7387, Note_on_c, 4, 47, 0
5, 7392, Note_on_c, 4, 50, 92
5, 7411, Note_on_c, 4, 50, 0
5, 7416, Note_on_c, 4, 55, 92
5, 7435, Note_on_c, 4, 55, 0
5, 7440, Note_on_c, 4, 45, 92
5, 7459, Note_on_c, 4, 45, 0
5, 7464, Note_on_c, 4, 48, 92
5, 7483, Note_on_c, 4, 48, 0
5, 7488, Note_on_c, 4, 50, 92
5, 7507, Note_on_c, 4, 50, 0
5, 7512, Note_on_c, 4, 55, 92
5, 7531, Note_on_c, 4, 55, 0
5, 7536, Note_on_c, 4, 47, 92
5, 7555, Note_on_c, 4, 47, 0
5, 7560, Note_on_c, 4, 50, 92
5, 7579, Note_on_c, 4, 50, 0
5, 7584, Note_on_c, 4, 55, 92
5, 7603, Note_on_c, 4, 55, 0
5, 7608, Note_on_c, 4, 59, 92
5, 7627, Note_on_c, 4, 59, 0
5, 7632, Note_on_c, 4, 48, 92
5, 7651, Note_on_c, 4, 48, 0
5, 7656, Note_on_c, 4, 50, 92
5, 7675, Note_on_c, 4, 50, 0
5, 7680, Note_on_c, 4, 55, 92
5, 7699, Note_on_c, 4, 55, 0
5, 7704, Note_on_c, 4, 59, 92
5, 7723, Note_on_c, 4, 59, 0
5, 7728, Note_on_c, 4, 53, 79
5, 7747, Note_on_c, 4, 53, 0
5, 7752, Note_on_c, 4, 55, 79
5, 7771, Note_on_c, 4, 55, 0
5, 7776, Note_on_c, 4, 60, 79
5, 7795, Note_on_c, 4, 60, 0
5, 7800, Note_on_c, 4, 64, 79
5, 7819, Note_on_c, 4, 64, 0
5, 7824, Note_on_c, 4, 60, 79
5, 7843, Note_on_c, 4, 60, 0
5, 7848, Note_on_c, 4, 55, 79
5, 7867, Note_on_c, 4, 55, 0
5, 7872, Note_on_c, 4, 53, 79
5, 7891, Note_on_c, 4, 53, 0
5, 7896, Note_on_c, 4, 55, 79
5, 7915, Note_on_c, 4, 55, 0
5, 7920, Note_on_c, 4, 53, 79
5, 7939, Note_on_c, 4, 53, 0
5, 7944, Note_on_c, 4, 55, 79
5, 7963, Note_on_c, 4, 55, 0
5, 7968, Note_on_c, 4, 60, 79
5, 7987, Note_on_c, 4, 60, 0
5, 7992, Note_on_c, 4, 64, 79
5, 8011, Note_on_c, 4, 64, 0
5, 8016, Note_on_c, 4, 60, 79
5, 8035, Note_on_c, 4, 60, 0
5, 8040, Note_on_c, 4, 55, 79
5, 8059, Note_on_c, 4, 55, 0
5, 8064, Note_on_c, 4, 53, 79
5, 8083, Note_on_c, 4, 53, 0
5, 8088, Note_on_c, 4, 55, 79
5, 8107, Note_on_c, 4, 55, 0
5, 8112, Note_on_c, 4, 69, 40
5, 8112, Note_on_c, 4, 74, 76
5, 8131, Note_on_c, 4, 74, 0
5, 8131, Note_on_c, 4, 69, 0
5, 8136, Note_on_c, 4, 67, 43
5, 8136, Note_on_c, 4, 69, 83
5, 8155, Note_on_c, 4, 69, 0
5, 8155, Note_on_c, 4, 67, 0
5, 8160, Note_on_c, 4, 62, 47
5, 8160, Note_on_c, 4, 67, 83
5, 8179, Note_on_c, 4, 67, 0
5, 8179, Note_on_c, 4, 62, 0
5, 8184, Note_on_c, 4, 69, 47
5, 8184, Note_on_c, 4, 74, 73
5, 8203, Note_on_c, 4, 74, 0
5, 8203, Note_on_c, 4, 69, 0
5, 8208, Note_on_c, 4, 67, 51
5, 8208, Note_on_c, 4, 69, 74
5, 8227, Note_on_c, 4, 69, 0
5, 8227, Note_on_c, 4, 67, 0
5, 8232, Note_on_c, 4, 62, 40
5, 8232, Note_on_c, 4, 67, 76
5, 8251, Note_on_c, 4, 67, 0
5, 8251, Note_on_c, 4, 62, 0
5, 8256, Note_on_c, 4, 69, 35
5, 8256, Note_on_c, 4, 74, 82
5, 8275, Note_on_c, 4, 74, 0
5, 8275, Note_on_c, 4, 69, 0
5, 8280, Note_on_c, 4, 67, 40
5, 8280, Note_on_c, 4, 69, 83
5, 8299, Note_on_c, 4, 69, 0
5, 8299, Note_on_c, 4, 67, 0
5, 8304, Note_on_c, 4, 67, 40
5, 8304, Note_on_c, 4, 72, 80
5, 8323, Note_on_c, 4, 72, 0
5, 8323, Note_on_c, 4, 67, 0
5, 8328, Note_on_c, 4, 65, 35
5, 8328, Note_on_c, 4, 67, 80
5, 8347, Note_on_c, 4, 67, 0
5, 8347, Note_on_c, 4, 65, 0
5, 8352, Note_on_c, 4, 60, 35
5, 8352, Note_on_c, 4, 65, 82
5, 8371, Note_on_c, 4, 65, 0
5, 8371, Note_on_c, 4, 60, 0
5, 8376, Note_on_c, 4, 67, 40
5, 8376, Note_on_c, 4, 72, 80
5, 8395, Note_on_c, 4, 72, 0
5, 8395, Note_on_c, 4, 67, 0
5, 8400, Note_on_c, 4, 65, 51
5, 8400, Note_on_c, 4, 67, 86
5, 8419, Note_on_c, 4, 67, 0
5, 8419, Note_on_c, 4, 65, 0
5, 8424, Note_on_c, 4, 60, 40
5, 8424, Note_on_c, 4, 65, 88
5, 8443, Note_on_c, 4, 65, 0
5, 8443, Note_on_c, 4, 60, 0
5, 8448, Note_on_c, 4, 67, 43
5, 8448, Note_on_c, 4, 72, 86
5, 8467, Note_on_c, 4, 72, 0
5, 8467, Note_on_c, 4, 67, 0
5, 8472, Note_on_c, 4, 65, 47
5, 8472, Note_on_c, 4, 67, 86
5, 8491, Note_on_c, 4, 67, 0
5, 8491, Note_on_c, 4, 65, 0
5, 8496, Note_on_c, 4, 69, 51
5, 8496, Note_on_c, 4, 74, 82
5, 8515, Note_on_c, 4, 74, 0
5, 8515, Note_on_c, 4, 69, 0
5, 8520, Note_on_c, 4, 67, 40
5, 8520, Note_on_c, 4, 69, 83
5, 8539, Note_on_c, 4, 69, 0
5, 8539, Note_on_c, 4, 67, 0
5, 8544, Note_on_c, 4, 62, 40
5, 8544, Note_on_c, 4, 67, 86
5, 8563, Note_on_c, 4, 67, 0
5, 8563, Note_on_c, 4, 62, 0
5, 8568, Note_on_c, 4, 69, 47
5, 8568, Note_on_c, 4, 74, 80
5, 8587, Note_on_c, 4, 74, 0
5, 8587, Note_on_c, 4, 69, 0
5, 8592, Note_on_c, 4, 67, 51
5, 8592, Note_on_c, 4, 69, 86
5, 8611, Note_on_c, 4, 69, 0
5, 8611, Note_on_c, 4, 67, 0
5, 8616, Note_on_c, 4, 62, 43
5, 8616, Note_on_c, 4, 67, 80
5, 8635, Note_on_c, 4, 67, 0
5, 8635, Note_on_c, 4, 62, 0
5, 8640, Note_on_c, 4, 69, 40
5, 8640, Note_on_c, 4, 74, 83
5, 8659, Note_on_c, 4, 74, 0
5, 8659, Note_on_c, 4, 69, 0
5, 8664, Note_on_c, 4, 67, 43
5, 8664, Note_on_c, 4, 69, 83
5, 8683, Note_on_c, 4, 69, 0
5, 8683, Note_on_c, 4, 67, 0
5, 8688, Note_on_c, 4, 67, 47
5, 8688, Note_on_c, 4, 72, 58
5, 8707, Note_on_c, 4, 72, 0
5, 8707, Note_on_c, 4, 67, 0
5, 8712, Note_on_c, 4, 65, 38
5, 8712, Note_on_c, 4, 67, 73
5, 8731, Note_on_c, 4, 67, 0
5, 8731, Note_on_c, 4, 65, 0
5, 8736, Note_on_c, 4, 60, 38
5, 8736, Note_on_c, 4, 65, 78
5, 8755, Note_on_c, 4, 65, 0
5, 8755, Note_on_c, 4, 60, 0
5, 8760, Note_on_c, 4, 67, 47
5, 8760, Note_on_c, 4, 72, 78
5, 8779, Note_on_c, 4, 72, 0
5, 8779, Note_on_c, 4, 67, 0
5, 8784, Note_on_c, 4, 65, 47
5, 8784, Note_on_c, 4, 67, 76
5, 8803, Note_on_c, 4, 67, 0
5, 8803, Note_on_c, 4, 65, 0
5, 8808, Note_on_c, 4, 60, 43
5, 8808, Note_on_c, 4, 65, 82
5, 8827, Note_on_c, 4, 65, 0
5, 8827, Note_on_c, 4, 60, 0
5, 8832, Note_on_c, 4, 67, 47
5, 8832, Note_on_c, 4, 72, 83
5, 8851, Note_on_c, 4, 72, 0
5, 8851, Note_on_c, 4, 67, 0
5, 8856, Note_on_c, 4, 65, 51
5, 8856, Note_on_c, 4, 67, 88
5, 8875, Note_on_c, 4, 67, 0
5, 8875, Note_on_c, 4, 65, 0
5, 8880, Note_on_c, 4, 69, 43
5, 8880, Note_on_c, 4, 74, 80
5, 8899, Note_on_c, 4, 74, 0
5, 8899, Note_on_c, 4, 69, 0
5, 8904, Note_on_c, 4, 67, 43
5, 8904, Note_on_c, 4, 69, 80
5, 8923, Note_on_c, 4, 69, 0
5, 8923, Note_on_c, 4, 67, 0
5, 8928, Note_on_c, 4, 62, 40
5, 8928, Note_on_c, 4, 67, 83
5, 8947, Note_on_c, 4, 67, 0
5, 8947, Note_on_c, 4, 62, 0
5, 8952, Note_on_c, 4, 69, 40
5, 8952, Note_on_c, 4, 74, 82
5, 8971, Note_on_c, 4, 74, 0
5, 8971, Note_on_c, 4, 69, 0
5, 8976, Note_on_c, 4, 67, 43
5, 8976, Note_on_c, 4, 72, 86
5, 8995, Note_on_c, 4, 72, 0
5, 8995, Note_on_c, 4, 67, 0
5, 9000, Note_on_c, 4, 65, 43
5, 9000, Note_on_c, 4, 67, 66
5, 9019, Note_on_c, 4, 67, 0
5, 9019, Note_on_c, 4, 65, 0
5, 9024, Note_on_c, 4, 60, 38
5, 9024, Note_on_c, 4, 65, 78
5, 9043, Note_on_c, 4, 65, 0
5, 9043, Note_on_c, 4, 60, 0
5, 9048, Note_on_c, 4, 67, 28
5, 9048, Note_on_c, 4, 72, 80
5, 9067, Note_on_c, 4, 72, 0
5, 9067, Note_on_c, 4, 67, 0
5, 9072, Note_on_c, 4, 65, 40
5, 9072, Note_on_c, 4, 70, 86
5, 9091, Note_on_c, 4, 70, 0
5, 9091, Note_on_c, 4, 65, 0
5, 9096, Note_on_c, 4, 63, 48
5, 9096, Note_on_c, 4, 65, 83
5, 9115, Note_on_c, 4, 65, 0
5, 9115, Note_on_c, 4, 63, 0
5, 9120, Note_on_c, 4, 58, 43
5, 9120, Note_on_c, 4, 63, 79
5, 9139, Note_on_c, 4, 63, 0
5, 9139, Note_on_c, 4, 58, 0
5, 9144, Note_on_c, 4, 65, 35
5, 9144, Note_on_c, 4, 70, 74
5, 9163, Note_on_c, 4, 70, 0
5, 9163, Note_on_c, 4, 65, 0
5, 9168, Note_on_c, 4, 64, 59
5, 9168, Note_on_c, 4, 69, 76
5, 9187, Note_on_c, 4, 69, 0
5, 9187, Note_on_c, 4, 64, 0
5, 9192, Note_on_c, 4, 62, 47
5, 9192, Note_on_c, 4, 64, 80
5, 9211, Note_on_c, 4, 64, 0
5, 9211, Note_on_c, 4, 62, 0
5, 9216, Note_on_c, 4, 57, 47
5, 9216, Note_on_c, 4, 62, 83
5, 9235, Note_on_c, 4, 62, 0
5, 9235, Note_on_c, 4, 57, 0
5, 9240, Note_on_c, 4, 64, 51
5, 9240, Note_on_c, 4, 69, 83
5, 9259, Note_on_c, 4, 69, 0
5, 9259, Note_on_c, 4, 64, 0
5, 9264, Note_on_c, 4, 62, 51
5, 9264, Note_on_c, 4, 64, 86
5, 9283, Note_on_c, 4, 64, 0
5, 9283, Note_on_c, 4, 62, 0
5, 9288, Note_on_c, 4, 57, 40
5, 9288, Note_on_c, 4, 62, 74
5, 9307, Note_on_c, 4, 62, 0
5, 9307, Note_on_c, 4, 57, 0
5, 9312, Note_on_c, 4, 64, 51
5, 9312, Note_on_c, 4, 69, 83
5, 9331, Note_on_c, 4, 69, 0
5, 9331, Note_on_c, 4, 64, 0
5, 9336, Note_on_c, 4, 62, 55
5, 9336, Note_on_c, 4, 64, 80
5, 9355, Note_on_c, 4, 64, 0
5, 9355, Note_on_c, 4, 62, 0
5, 9360, Note_on_c, 4, 64, 59
5, 9360, Note_on_c, 4, 69, 88
5, 9379, Note_on_c, 4, 69, 0
5, 9379, Note_on_c, 4, 64, 0
5, 9384, Note_on_c, 4, 62, 59
5, 9384, Note_on_c, 4, 64, 86
5, 9403, Note_on_c, 4, 64, 0
5, 9403, Note_on_c, 4, 62, 0
5, 9408, Note_on_c, 4, 57, 47
5, 9408, Note_on_c, 4, 62, 83
5, 9427, Note_on_c, 4, 62, 0
5, 9427, Note_on_c, 4, 57, 0
5, 9432, Note_on_c, 4, 64, 47
5, 9432, Note_on_c, 4, 69, 83
5, 9451, Note_on_c, 4, 69, 0
5, 9451, Note_on_c, 4, 64, 0
5, 9456, Note_on_c, 4, 62, 51
5, 9456, Note_on_c, 4, 64, 86
5, 9475, Note_on_c, 4, 64, 0
5, 9475, Note_on_c, 4, 62, 0
5, 9480, Note_on_c, 4, 57, 40
5, 9480, Note_on_c, 4, 62, 88
5, 9499, Note_on_c, 4, 62, 0
5, 9499, Note_on_c, 4, 57, 0
5, 9504, Note_on_c, 4, 64, 47
5, 9504, Note_on_c, 4, 69, 80
5, 9523, Note_on_c, 4, 69, 0
5, 9523, Note_on_c, 4, 64, 0
5, 9528, Note_on_c, 4, 62, 51
5, 9528, Note_on_c, 4, 64, 73
5, 9547, Note_on_c, 4, 64, 0
5, 9547, Note_on_c, 4, 62, 0
5, 13200, Note_on_c, 4, 50, 90
5, 13224, Note_on_c, 4, 60, 65
5, 13248, Note_on_c, 4, 64, 58
5, 13272, Note_on_c, 4, 67, 73
5, 13295, Note_on_c, 4, 60, 68
5, 13367, Note_on_c, 4, 50, 0
5, 13387, Note_on_c, 4, 60, 0
5, 13390, Note_on_c, 4, 67, 0
5, 13391, Note_on_c, 4, 64, 0
5, 13392, Note_on_c, 4, 50, 102
5, 13413, Note_on_c, 4, 60, 0
5, 13436, Note_on_c, 4, 60, 38
5, 13438, Note_on_c, 4, 64, 73
5, 13442, Note_on_c, 4, 67, 68
5, 13461, Note_on_c, 4, 50, 0
5, 13486, Note_on_c, 4, 50, 110
5, 13496, Note_on_c, 4, 60, 0
5, 13497, Note_on_c, 4, 64, 0
5, 13498, Note_on_c, 4, 67, 0
5, 13533, Note_on_c, 4, 60, 73
5, 13534, Note_on_c, 4, 64, 78
5, 13539, Note_on_c, 4, 67, 76
5, 13543, Note_on_c, 4, 50, 0
5, 13546, Note_on_c, 4, 60, 0
5, 13574, Note_on_c, 4, 64, 0
5, 13577, Note_on_c, 4, 67, 0
5, 13586, Note_on_c, 4, 52, 95
5, 13631, Note_on_c, 4, 64, 68
5, 13631, Note_on_c, 4, 59, 62
5, 13635, Note_on_c, 4, 67, 74
5, 13644, Note_on_c, 4, 52, 0
5, 13677, Note_on_c, 4, 64, 0
5, 13678, Note_on_c, 4, 59, 0
5, 13680, Note_on_c, 4, 51, 86
5, 13681, Note_on_c, 4, 67, 0
5, 13704, Note_on_c, 4, 58, 75
5, 13728, Note_on_c, 4, 55, 80
5, 13747, Note_on_c, 4, 58, 0
5, 13751, Note_on_c, 4, 55, 0
5, 13752, Note_on_c, 4, 67, 78
5, 13776, Note_on_c, 4, 58, 79
5, 13787, Note_on_c, 4, 67, 0
5, 13800, Note_on_c, 4, 55, 67
5, 13807, Note_on_c, 4, 58, 0
5, 13815, Note_on_c, 4, 51, 0
5, 13824, Note_on_c, 4, 67, 82
5, 13834, Note_on_c, 4, 55, 0
5, 13848, Note_on_c, 4, 58, 64
5, 13862, Note_on_c, 4, 67, 0
5, 13865, Note_on_c, 4, 58, 0
5, 13872, Note_on_c, 4, 50, 86
5, 13916, Note_on_c, 4, 58, 67
5, 13920, Note_on_c, 4, 62, 76
5, 13924, Note_on_c, 4, 67, 82
5, 13952, Note_on_c, 4, 50, 0
5, 13968, Note_on_c, 4, 51, 98
5, 13972, Note_on_c, 4, 62, 0
5, 13973, Note_on_c, 4, 58, 0
5, 13976, Note_on_c, 4, 67, 0
5, 14011, Note_on_c, 4, 58, 72
5, 14015, Note_on_c, 4, 63, 80
5, 14019, Note_on_c, 4, 67, 74
5, 14048, Note_on_c, 4, 51, 0
5, 14050, Note_on_c, 4, 67, 0
5, 14050, Note_on_c, 4, 63, 0
5, 14053, Note_on_c, 4, 58, 0
5, 14064, Note_on_c, 4, 50, 95
5, 14104, Note_on_c, 4, 62, 71
5, 14108, Note_on_c, 4, 65, 71
5, 14111, Note_on_c, 4, 69, 76
5, 14154, Note_on_c, 4, 50, 0
5, 14155, Note_on_c, 4, 65, 0
5, 14156, Note_on_c, 4, 62, 0
5, 14160, Note_on_c, 4, 43, 92
5, 14167, Note_on_c, 4, 69, 0
5, 14179, Note_on_c, 4, 43, 0
5, 14184, Note_on_c, 4, 47, 92
5, 14203, Note_on_c, 4, 47, 0
5, 14208, Note_on_c, 4, 50, 92
5, 14227, Note_on_c, 4, 50, 0
5, 14232, Note_on_c, 4, 55, 92
5, 14251, Note_on_c, 4, 55, 0
5, 14256, Note_on_c, 4, 45, 92
5, 14275, Note_on_c, 4, 45, 0
5, 14280, Note_on_c, 4, 48, 92
5, 14299, Note_on_c, 4, 48, 0
5, 14304, Note_on_c, 4, 50, 92
5, 14323, Note_on_c, 4, 50, 0
5, 14328, Note_on_c, 4, 55, 92
5, 14347, Note_on_c, 4, 55, 0
5, 14352, Note_on_c, 4, 47, 92
5, 14371, Note_on_c, 4, 47, 0
5, 14376, Note_on_c, 4, 50, 92
5, 14395, Note_on_c, 4, 50, 0
5, 14400, Note_on_c, 4, 55, 92
5, 14419, Note_on_c, 4, 55, 0
5, 14424, Note_on_c, 4, 59, 92
5, 14443, Note_on_c, 4, 59, 0
5, 14448, Note_on_c, 4, 48, 92
5, 14467, Note_on_c, 4, 48, 0
5, 14472, Note_on_c, 4, 50, 92
5, 14491, Note_on_c, 4, 50, 0
5, 14496, Note_on_c, 4, 55, 92
5, 14515, Note_on_c, 4, 55, 0
5, 14520, Note_on_c, 4, 59, 92
5, 14539, Note_on_c, 4, 59, 0
5, 14544, Note_on_c, 4, 53, 79
5, 14563, Note_on_c, 4, 53, 0
5, 14568, Note_on_c, 4, 55, 79
5, 14587, Note_on_c, 4, 55, 0
5, 14592, Note_on_c, 4, 60, 79
5, 14611, Note_on_c, 4, 60, 0
5, 14616, Note_on_c, 4, 64, 79
5, 14635, Note_on_c, 4, 64, 0
5, 14640, Note_on_c, 4, 60, 79
5, 14659, Note_on_c, 4, 60, 0
5, 14664, Note_on_c, 4, 55, 79
5, 14683, Note_on_c, 4, 55, 0
5, 14688, Note_on_c, 4, 53, 79
5, 14707, Note_on_c, 4, 53, 0
5, 14712, Note_on_c, 4, 55, 79
5, 14731, Note_on_c, 4, 55, 0
5, 14736, Note_on_c, 4, 53, 79
5, 14755, Note_on_c, 4, 53, 0
5, 14760, Note_on_c, 4, 55, 79
5, 14779, Note_on_c, 4, 55, 0
5, 14784, Note_on_c, 4, 60, 79
5, 14803, Note_on_c, 4, 60, 0
5, 14808, Note_on_c, 4, 64, 79
5, 14827, Note_on_c, 4, 64, 0
5, 14832, Note_on_c, 4, 60, 79
5, 14851, Note_on_c, 4, 60, 0
5, 14856, Note_on_c, 4, 55, 79
5, 14875, Note_on_c, 4, 55, 0
5, 14880, Note_on_c, 4, 53, 79
5, 14899, Note_on_c, 4, 53, 0
5, 14904, Note_on_c, 4, 55, 79
5, 14923, Note_on_c, 4, 55, 0
5, 14928, Note_on_c, 4, 59, 82
5, 14928, Note_on_c, 4, 55, 95
5, 14928, Note_on_c, 4, 52, 93
5, 14963, Note_on_c, 4, 52, 0
5, 14963, Note_on_c, 4, 55, 0
5, 14964, Note_on_c, 4, 59, 0
5, 14976, Note_on_c, 4, 55, 78
5, 14976, Note_on_c, 4, 59, 70
5, 14976, Note_on_c, 4, 52, 74
5, 14988, Note_on_c, 4, 59, 0
5, 14988, Note_on_c, 4, 55, 0
5, 14991, Note_on_c, 4, 52, 0
5, 15001, Note_on_c, 4, 57, 90
5, 15001, Note_on_c, 4, 50, 95
5, 15001, Note_on_c, 4, 54, 94
5, 15027, Note_on_c, 4, 54, 0
5, 15028, Note_on_c, 4, 57, 0
5, 15029, Note_on_c, 4, 50, 0
5, 15048, Note_on_c, 4, 57, 74
5, 15048, Note_on_c, 4, 54, 79
5, 15048, Note_on_c, 4, 50, 82
5, 15060, Note_on_c, 4, 50, 0
5, 15060, Note_on_c, 4, 54, 0
5, 15060, Note_on_c, 4, 57, 0
5, 15072, Note_on_c, 4, 59, 93
5, 15072, Note_on_c, 4, 54, 98
5, 15072, Note_on_c, 4, 50, 95
5, 15098, Note_on_c, 4, 50, 0
5, 15098, Note_on_c, 4, 54, 0
5, 15099, Note_on_c, 4, 59, 0
5, 15120, Note_on_c, 4, 59, 88
5, 15120, Note_on_c, 4, 54, 98
5, 15120, Note_on_c, 4, 50, 93
5, 15141, Note_on_c, 4, 50, 0
5, 15141, Note_on_c, 4, 54, 0
5, 15143, Note_on_c, 4, 59, 0
5, 15168, Note_on_c, 4, 59, 90
5, 15168, Note_on_c, 4, 55, 98
5, 15168, Note_on_c, 4, 52, 98
5, 15201, Note_on_c, 4, 52, 0
5, 15202, Note_on_c, 4, 59, 0
5, 15203, Note_on_c, 4, 55, 0
5, 15216, Note_on_c, 4, 59, 90
5, 15216, Note_on_c, 4, 55, 102
5, 15216, Note_on_c, 4, 52, 98
5, 15244, Note_on_c, 4, 52, 0
5, 15246, Note_on_c, 4, 55, 0
5, 15246, Note_on_c, 4, 59, 0
5, 15264, Note_on_c, 4, 59, 74
5, 15264, Note_on_c, 4, 55, 86
5, 15264, Note_on_c, 4, 52, 83
5, 15276, Note_on_c, 4, 55, 0
5, 15278, Note_on_c, 4, 52, 0
5, 15278, Note_on_c, 4, 59, 0
5, 15288, Note_on_c, 4, 59, 90
5, 15288, Note_on_c, 4, 54, 94
5, 15288, Note_on_c, 4, 50, 98
5, 15313, Note_on_c, 4, 50, 0
5, 15313, Note_on_c, 4, 54, 0
5, 15316, Note_on_c, 4, 59, 0
5, 15336, Note_on_c, 4, 59, 73
5, 15336, Note_on_c, 4, 54, 86
5, 15336, Note_on_c, 4, 50, 83
5, 15343, Note_on_c, 4, 50, 0
5, 15347, Note_on_c, 4, 54, 0
5, 15347, Note_on_c, 4, 59, 0
5, 15360, Note_on_c, 4, 57, 86
5, 15360, Note_on_c, 4, 52, 98
5, 15360, Note_on_c, 4, 49, 77
5, 15379, Note_on_c, 4, 49, 0
5, 15381, Note_on_c, 4, 52, 0
5, 15383, Note_on_c, 4, 57, 0
5, 15408, Note_on_c, 4, 59, 93
5, 15408, Note_on_c, 4, 54, 102
5, 15408, Note_on_c, 4, 50, 106
5, 15446, Note_on_c, 4, 50, 0
5, 15446, Note_on_c, 4, 59, 0
5, 15447, Note_on_c, 4, 54, 0
5, 15456, Note_on_c, 4, 59, 86
5, 15456, Note_on_c, 4, 54, 90
5, 15456, Note_on_c, 4, 50, 95
5, 15484, Note_on_c, 4, 50, 0
5, 15484, Note_on_c, 4, 54, 0
5, 15487, Note_on_c, 4, 59, 0
5, 15504, Note_on_c, 4, 59, 90
5, 15504, Note_on_c, 4, 56, 94
5, 15504, Note_on_c, 4, 52, 106
5, 15533, Note_on_c, 4, 56, 0
5, 15533, Note_on_c, 4, 59, 0
5, 15534, Note_on_c, 4, 52, 0
5, 15552, Note_on_c, 4, 59, 90
5, 15552, Note_on_c, 4, 56, 94
5, 15552, Note_on_c, 4, 52, 95
5, 15578, Note_on_c, 4, 56, 0
5, 15578, Note_on_c, 4, 59, 0
5, 15580, Note_on_c, 4, 52, 0
5, 15600, Note_on_c, 4, 59, 82
5, 15600, Note_on_c, 4, 55, 95
5, 15600, Note_on_c, 4, 52, 93
5, 15635, Note_on_c, 4, 52, 0
5, 15635, Note_on_c, 4, 55, 0
5, 15636, Note_on_c, 4, 59, 0
5, 15648, Note_on_c, 4, 59, 70
5, 15648, Note_on_c, 4, 52, 74
5, 15648, Note_on_c, 4, 55, 78
5, 15660, Note_on_c, 4, 55, 0
5, 15660, Note_on_c, 4, 59, 0
5, 15663, Note_on_c, 4, 52, 0
5, 15673, Note_on_c, 4, 57, 90
5, 15673, Note_on_c, 4, 50, 95
5, 15673, Note_on_c, 4, 54, 94
5, 15699, Note_on_c, 4, 54, 0
5, 15700, Note_on_c, 4, 57, 0
5, 15701, Note_on_c, 4, 50, 0
5, 15720, Note_on_c, 4, 57, 74
5, 15720, Note_on_c, 4, 54, 79
5, 15720, Note_on_c, 4, 50, 82
5, 15732, Note_on_c, 4, 50, 0
5, 15732, Note_on_c, 4, 54, 0
5, 15732, Note_on_c, 4, 57, 0
5, 15744, Note_on_c, 4, 59, 93
5, 15744, Note_on_c, 4, 54, 98
5, 15744, Note_on_c, 4, 50, 95
5, 15770, Note_on_c, 4, 50, 0
5, 15770, Note_on_c, 4, 54, 0
5, 15771, Note_on_c, 4, 59, 0
5, 15792, Note_on_c, 4, 59, 88
5, 15792, Note_on_c, 4, 54, 98
5, 15792, Note_on_c, 4, 50, 93
5, 15813, Note_on_c, 4, 50, 0
5, 15813, Note_on_c, 4, 54, 0
5, 15815, Note_on_c, 4, 59, 0
5, 15840, Note_on_c, 4, 59, 90
5, 15840, Note_on_c, 4, 55, 98
5, 15840, Note_on_c, 4, 52, 98
5, 15873, Note_on_c, 4, 52, 0
5, 15874, Note_on_c, 4, 59, 0
5, 15875, Note_on_c, 4, 55, 0
5, 15888, Note_on_c, 4, 59, 90
5, 15888, Note_on_c, 4, 55, 102
5, 15888, Note_on_c, 4, 52, 98
5, 15916, Note_on_c, 4, 52, 0
5, 15918, Note_on_c, 4, 55, 0
5, 15918, Note_on_c, 4, 59, 0
5, 15936, Note_on_c, 4, 59, 74
5, 15936, Note_on_c, 4, 55, 86
5, 15936, Note_on_c, 4, 52, 83
5, 15948, Note_on_c, 4, 55, 0
5, 15950, Note_on_c, 4, 52, 0
5, 15950, Note_on_c, 4, 59, 0
5, 15960, Note_on_c, 4, 59, 90
5, 15960, Note_on_c, 4, 54, 94
5, 15960, Note_on_c, 4, 50, 98
5, 15985, Note_on_c, 4, 50, 0
5, 15985, Note_on_c, 4, 54, 0
5, 15988, Note_on_c, 4, 59, 0
5, 16008, Note_on_c, 4, 59, 73
5, 16008, Note_on_c, 4, 54, 86
5, 16008, Note_on_c, 4, 50, 83
5, 16015, Note_on_c, 4, 50, 0
5, 16019, Note_on_c, 4, 54, 0
5, 16019, Note_on_c, 4, 59, 0
5, 16032, Note_on_c, 4, 57, 86
5, 16032, Note_on_c, 4, 52, 98
5, 16032, Note_on_c, 4, 49, 77
5, 16051, Note_on_c, 4, 49, 0
5, 16053, Note_on_c, 4, 52, 0
5, 16055, Note_on_c, 4, 57, 0
5, 16080, Note_on_c, 4, 59, 93
5, 16080, Note_on_c, 4, 54, 102
5, 16080, Note_on_c, 4, 50, 106
5, 16118, Note_on_c, 4, 50, 0
5, 16118, Note_on_c, 4, 59, 0
5, 16119, Note_on_c, 4, 54, 0
5, 16128, Note_on_c, 4, 59, 86
5, 16128, Note_on_c, 4, 54, 90
5, 16128, Note_on_c, 4, 50, 95
5, 16156, Note_on_c, 4, 50, 0
5, 16156, Note_on_c, 4, 54, 0
5, 16159, Note_on_c, 4, 59, 0
5, 16176, Note_on_c, 4, 59, 90
5, 16176, Note_on_c, 4, 56, 94
5, 16176, Note_on_c, 4, 52, 106
5, 16205, Note_on_c, 4, 56, 0
5, 16205, Note_on_c, 4, 59, 0
5, 16206, Note_on_c, 4, 52, 0
5, 16224, Note_on_c, 4, 59, 90
5, 16224, Note_on_c, 4, 56, 94
5, 16224, Note_on_c, 4, 52, 95
5, 16250, Note_on_c, 4, 56, 0
5, 16250, Note_on_c, 4, 59, 0
5, 16252, Note_on_c, 4, 52, 0
5, 16272, Note_on_c, 4, 59, 78
5, 16272, Note_on_c, 4, 55, 76
5, 16272, Note_on_c, 4, 52, 83
5, 16334, Note_on_c, 4, 52, 0
5, 16335, Note_on_c, 4, 55, 0
5, 16336, Note_on_c, 4, 59, 0
5, 16344, Note_on_c, 4, 59, 78
5, 16344, Note_on_c, 4, 55, 86
5, 16344, Note_on_c, 4, 52, 82
5, 16354, Note_on_c, 4, 55, 0
5, 16355, Note_on_c, 4, 59, 0
5, 16356, Note_on_c, 4, 52, 0
5, 16368, Note_on_c, 4, 57, 90
5, 16368, Note_on_c, 4, 54, 98
5, 16368, Note_on_c, 4, 50, 95
5, 16420, Note_on_c, 4, 50, 0
5, 16420, Note_on_c, 4, 54, 0
5, 16423, Note_on_c, 4, 57, 0
5, 16439, Note_on_c, 4, 57, 66
5, 16440, Note_on_c, 4, 54, 72
5, 16440, Note_on_c, 4, 50, 78
5, 16450, Note_on_c, 4, 54, 0
5, 16450, Note_on_c, 4, 57, 0
5, 16451, Note_on_c, 4, 50, 0
5, 16464, Note_on_c, 4, 52, 95
5, 16464, Note_on_c, 4, 48, 90
5, 16464, Note_on_c, 4, 57, 88
5, 16523, Note_on_c, 4, 57, 0
5, 16526, Note_on_c, 4, 48, 0
5, 16526, Note_on_c, 4, 52, 0
5, 16536, Note_on_c, 4, 57, 73
5, 16536, Note_on_c, 4, 52, 80
5, 16536, Note_on_c, 4, 48, 74
5, 16546, Note_on_c, 4, 48, 0
5, 16546, Note_on_c, 4, 52, 0
5, 16548, Note_on_c, 4, 57, 0
5, 16560, Note_on_c, 4, 57, 88
5, 16560, Note_on_c, 4, 54, 94
5, 16560, Note_on_c, 4, 50, 95
5, 16642, Note_on_c, 4, 50, 0
5, 16643, Note_on_c, 4, 54, 0
5, 16644, Note_on_c, 4, 57, 0
5, 16656, Note_on_c, 4, 59, 76
5, 16656, Note_on_c, 4, 55, 83
5, 16656, Note_on_c, 4, 52, 78
5, 16714, Note_on_c, 4, 52, 0
5, 16714, Note_on_c, 4, 55, 0
5, 16714, Note_on_c, 4, 59, 0
5, 16728, Note_on_c, 4, 59, 78
5, 16728, Note_on_c, 4, 55, 83
5, 16728, Note_on_c, 4, 52, 83
5, 16737, Note_on_c, 4, 55, 0
5, 16737, Note_on_c, 4, 59, 0
5, 16738, Note_on_c, 4, 52, 0
5, 16752, Note_on_c, 4, 57, 93
5, 16752, Note_on_c, 4, 54, 98
5, 16752, Note_on_c, 4, 50, 95
5, 16804, Note_on_c, 4, 50, 0
5, 16806, Note_on_c, 4, 54, 0
5, 16807, Note_on_c, 4, 57, 0
5, 16824, Note_on_c, 4, 57, 62
5, 16824, Note_on_c, 4, 54, 64
5, 16824, Note_on_c, 4, 50, 70
5, 16835, Note_on_c, 4, 50, 0
5, 16835, Note_on_c, 4, 54, 0
5, 16836, Note_on_c, 4, 57, 0
5, 16848, Note_on_c, 4, 55, 93
5, 16848, Note_on_c, 4, 52, 98
5, 16848, Note_on_c, 4, 48, 90
5, 16872, Note_on_c, 4, 48, 0
5, 16874, Note_on_c, 4, 52, 0
5, 16874, Note_on_c, 4, 55, 0
5, 16896, Note_on_c, 4, 57, 83
5, 16896, Note_on_c, 4, 54, 94
5, 16896, Note_on_c, 4, 50, 102
5, 16923, Note_on_c, 4, 50, 0
5, 16924, Note_on_c, 4, 54, 0
5, 16925, Note_on_c, 4, 57, 0
5, 16944, Note_on_c, 4, 59, 86
5, 16944, Note_on_c, 4, 55, 93
5, 16945, Note_on_c, 4, 52, 95
5, 16977, Note_on_c, 4, 59, 0
5, 16978, Note_on_c, 4, 52, 0
5, 16978, Note_on_c, 4, 55, 0
5, 16992, Note_on_c, 4, 59, 80
5, 16992, Note_on_c, 4, 55, 86
5, 16992, Note_on_c, 4, 52, 86
5, 17003, Note_on_c, 4, 55, 0
5, 17003, Note_on_c, 4, 59, 0
5, 17004, Note_on_c, 4, 52, 0
5, 17017, Note_on_c, 4, 57, 88
5, 17017, Note_on_c, 4, 54, 90
5, 17017, Note_on_c, 4, 50, 95
5, 17044, Note_on_c, 4, 54, 0
5, 17044, Note_on_c, 4, 57, 0
5, 17045, Note_on_c, 4, 50, 0
5, 17064, Note_on_c, 4, 57, 90
5, 17064, Note_on_c, 4, 54, 94
5, 17064, Note_on_c, 4, 50, 93
5, 17078, Note_on_c, 4, 50, 0
5, 17078, Note_on_c, 4, 54, 0
5, 17078, Note_on_c, 4, 57, 0
5, 17088, Note_on_c, 4, 59, 93
5, 17088, Note_on_c, 4, 54, 103
5, 17088, Note_on_c, 4, 50, 95
5, 17110, Note_on_c, 4, 54, 0
5, 17111, Note_on_c, 4, 50, 0
5, 17112, Note_on_c, 4, 59, 0
5, 17135, Note_on_c, 4, 59, 93
5, 17135, Note_on_c, 4, 54, 103
5, 17136, Note_on_c, 4, 50, 102
5, 17157, Note_on_c, 4, 59, 0
5, 17158, Note_on_c, 4, 54, 0
5, 17159, Note_on_c, 4, 50, 0
5, 17184, Note_on_c, 4, 43, 92
5, 17203, Note_on_c, 4, 43, 0
5, 17208, Note_on_c, 4, 47, 92
5, 17227, Note_on_c, 4, 47, 0
5, 17232, Note_on_c, 4, 50, 92
5, 17251, Note_on_c, 4, 50, 0
5, 17256, Note_on_c, 4, 55, 92
5, 17275, Note_on_c, 4, 55, 0
5, 17280, Note_on_c, 4, 45, 92
5, 17299, Note_on_c, 4, 45, 0
5, 17304, Note_on_c, 4, 48, 92
5, 17323, Note_on_c, 4, 48, 0
5, 17328, Note_on_c, 4, 50, 92
5, 17347, Note_on_c, 4, 50, 0
5, 17352, Note_on_c, 4, 55, 92
5, 17371, Note_on_c, 4, 55, 0
5, 17376, Note_on_c, 4, 47, 92
5, 17395, Note_on_c, 4, 47, 0
5, 17400, Note_on_c, 4, 50, 92
5, 17419, Note_on_c, 4, 50, 0
5, 17424, Note_on_c, 4, 55, 92
5, 17443, Note_on_c, 4, 55, 0
5, 17448, Note_on_c, 4, 59, 92
5, 17467, Note_on_c, 4, 59, 0
5, 17472, Note_on_c, 4, 48, 92
5, 17491, Note_on_c, 4, 48, 0
5, 17496, Note_on_c, 4, 50, 92
5, 17515, Note_on_c, 4, 50, 0
5, 17520, Note_on_c, 4, 55, 92
5, 17539, Note_on_c, 4, 55, 0
5, 17544, Note_on_c, 4, 59, 92
5, 17563, Note_on_c, 4, 59, 0
5, 17568, Note_on_c, 4, 53, 79
5, 17587, Note_on_c, 4, 53, 0
5, 17592, Note_on_c, 4, 55, 79
5, 17611, Note_on_c, 4, 55, 0
5, 17616, Note_on_c, 4, 60, 79
5, 17635, Note_on_c, 4, 60, 0
5, 17640, Note_on_c, 4, 64, 79
5, 17659, Note_on_c, 4, 64, 0
5, 17664, Note_on_c, 4, 60, 79
5, 17683, Note_on_c, 4, 60, 0
5, 17688, Note_on_c, 4, 55, 79
5, 17707, Note_on_c, 4, 55, 0
5, 17712, Note_on_c, 4, 53, 79
5, 17731, Note_on_c, 4, 53, 0
5, 17736, Note_on_c, 4, 55, 79
5, 17755, Note_on_c, 4, 55, 0
5, 17760, Note_on_c, 4, 53, 79
5, 17779, Note_on_c, 4, 53, 0
5, 17784, Note_on_c, 4, 55, 79
5, 17803, Note_on_c, 4, 55, 0
5, 17808, Note_on_c, 4, 60, 79
5, 17827, Note_on_c, 4, 60, 0
5, 17832, Note_on_c, 4, 64, 79
5, 17851, Note_on_c, 4, 64, 0
5, 17856, Note_on_c, 4, 60, 79
5, 17875, Note_on_c, 4, 60, 0
5, 17880, Note_on_c, 4, 55, 79
5, 17899, Note_on_c, 4, 55, 0
5, 17904, Note_on_c, 4, 53, 79
5, 17923, Note_on_c, 4, 53, 0
5, 17928, Note_on_c, 4, 55, 79
5, 17947, Note_on_c, 4, 55, 0
5, 17952, Note_on_c, 4, 69, 40
5, 17952, Note_on_c, 4, 74, 76
5, 17971, Note_on_c, 4, 74, 0
5, 17971, Note_on_c, 4, 69, 0
5, 17976, Note_on_c, 4, 67, 43
5, 17976, Note_on_c, 4, 69, 83
5, 17995, Note_on_c, 4, 69, 0
5, 17995, Note_on_c, 4, 67, 0
5, 18000, Note_on_c, 4, 62, 47
5, 18000, Note_on_c, 4, 67, 83
5, 18019, Note_on_c, 4, 67, 0
5, 18019, Note_on_c, 4, 62, 0
5, 18024, Note_on_c, 4, 69, 47
5, 18024, Note_on_c, 4, 74, 73
5, 18043, Note_on_c, 4, 74, 0
5, 18043, Note_on_c, 4, 69, 0
5, 18048, Note_on_c, 4, 67, 51
5, 18048, Note_on_c, 4, 69, 74
5, 18067, Note_on_c, 4, 69, 0
5, 18067, Note_on_c, 4, 67, 0
5, 18072, Note_on_c, 4, 62, 40
5, 18072, Note_on_c, 4, 67, 76
5, 18091, Note_on_c, 4, 67, 0
5, 18091, Note_on_c, 4, 62, 0
5, 18096, Note_on_c, 4, 69, 35
5, 18096, Note_on_c, 4, 74, 82
5, 18115, Note_on_c, 4, 74, 0
5, 18115, Note_on_c, 4, 69, 0
5, 18120, Note_on_c, 4, 67, 40
5, 18120, Note_on_c, 4, 69, 83
5, 18139, Note_on_c, 4, 69, 0
5, 18139, Note_on_c, 4, 67, 0
5, 18144, Note_on_c, 4, 67, 40
5, 18144, Note_on_c, 4, 72, 80
5, 18163, Note_on_c, 4, 72, 0
5, 18163, Note_on_c, 4, 67, 0
5, 18168, Note_on_c, 4, 65, 35
5, 18168, Note_on_c, 4, 67, 80
5, 18187, Note_on_c, 4, 67, 0
5, 18187, Note_on_c, 4, 65, 0
5, 18192, Note_on_c, 4, 60, 35
5, 18192, Note_on_c, 4, 65, 82
5, 18211, Note_on_c, 4, 65, 0
5, 18211, Note_on_c, 4, 60, 0
5, 18216, Note_on_c, 4, 67, 40
5, 18216, Note_on_c, 4, 72, 80
5, 18235, Note_on_c, 4, 72, 0
5, 18235, Note_on_c, 4, 67, 0
5, 18240, Note_on_c, 4, 65, 51
5, 18240, Note_on_c, 4, 67, 86
5, 18259, Note_on_c, 4, 67, 0
5, 18259, Note_on_c, 4, 65, 0
5, 18264, Note_on_c, 4, 60, 40
5, 18264, Note_on_c, 4, 65, 88
5, 18283, Note_on_c, 4, 65, 0
5, 18283, Note_on_c, 4, 60, 0
5, 18288, Note_on_c, 4, 67, 43
5, 18288, Note_on_c, 4, 72, 86
5, 18307, Note_on_c, 4, 72, 0
5, 18307, Note_on_c, 4, 67, 0
5, 18312, Note_on_c, 4, 65, 47
5, 18312, Note_on_c, 4, 67, 86
5, 18331, Note_on_c, 4, 67, 0
5, 18331, Note_on_c, 4, 65, 0
5, 18336, Note_on_c, 4, 69, 51
5, 18336, Note_on_c, 4, 74, 82
5, 18355, Note_on_c, 4, 74, 0
5, 18355, Note_on_c, 4, 69, 0
5, 18360, Note_on_c, 4, 67, 40
5, 18360, Note_on_c, 4, 69, 83
5, 18379, Note_on_c, 4, 69, 0
5, 18379, Note_on_c, 4, 67, 0
5, 18384, Note_on_c, 4, 62, 40
5, 18384, Note_on_c, 4, 67, 86
5, 18403, Note_on_c, 4, 67, 0
5, 18403, Note_on_c, 4, 62, 0
5, 18408, Note_on_c, 4, 69, 47
5, 18408, Note_on_c, 4, 74, 80
5, 18427, Note_on_c, 4, 74, 0
5, 18427, Note_on_c, 4, 69, 0
5, 18432, Note_on_c, 4, 67, 51
5, 18432, Note_on_c, 4, 69, 86
5, 18451, Note_on_c, 4, 69, 0
5, 18451, Note_on_c, 4, 67, 0
5, 18456, Note_on_c, 4, 62, 43
5, 18456, Note_on_c, 4, 67, 80
5, 18475, Note_on_c, 4, 67, 0
5, 18475, Note_on_c, 4, 62, 0
5, 18480, Note_on_c, 4, 69, 40
5, 18480, Note_on_c, 4, 74, 83
5, 18499, Note_on_c, 4, 74, 0
5, 18499, Note_on_c, 4, 69, 0
5, 18504, Note_on_c, 4, 67, 43
5, 18504, Note_on_c, 4, 69, 83
5, 18523, Note_on_c, 4, 69, 0
5, 18523, Note_on_c, 4, 67, 0
5, 18528, Note_on_c, 4, 67, 47
5, 18528, Note_on_c, 4, 72, 58
5, 18547, Note_on_c, 4, 72, 0
5, 18547, Note_on_c, 4, 67, 0
5, 18552, Note_on_c, 4, 65, 38
5, 18552, Note_on_c, 4, 67, 73
5, 18571, Note_on_c, 4, 67, 0
5, 18571, Note_on_c, 4, 65, 0
5, 18576, Note_on_c, 4, 60, 38
5, 18576, Note_on_c, 4, 65, 78
5, 18595, Note_on_c, 4, 65, 0
5, 18595, Note_on_c, 4, 60, 0
5, 18600, Note_on_c, 4, 67, 47
5, 18600, Note_on_c, 4, 72, 78
5, 18619, Note_on_c, 4, 72, 0
5, 18619, Note_on_c, 4, 67, 0
5, 18624, Note_on_c, 4, 65, 47
5, 18624, Note_on_c, 4, 67, 76
5, 18643, Note_on_c, 4, 67, 0
5, 18643, Note_on_c, 4, 65, 0
5, 18648, Note_on_c, 4, 60, 43
5, 18648, Note_on_c, 4, 65, 82
5, 18667, Note_on_c, 4, 65, 0
5, 18667, Note_on_c, 4, 60, 0
5, 18672, Note_on_c, 4, 67, 47
5, 18672, Note_on_c, 4, 72, 83
5, 18691, Note_on_c, 4, 72, 0
5, 18691, Note_on_c, 4, 67, 0
5, 18696, Note_on_c, 4, 65, 51
5, 18696, Note_on_c, 4, 67, 88
5, 18715, Note_on_c, 4, 67, 0
5, 18715, Note_on_c, 4, 65, 0
5, 18720, Note_on_c, 4, 69, 43
5, 18720, Note_on_c, 4, 74, 80
5, 18739, Note_on_c, 4, 74, 0
5, 18739, Note_on_c, 4, 69, 0
5, 18744, Note_on_c, 4, 67, 43
5, 18744, Note_on_c, 4, 69, 80
5, 18763, Note_on_c, 4, 69, 0
5, 18763, Note_on_c, 4, 67, 0
5, 18768, Note_on_c, 4, 62, 40
5, 18768, Note_on_c, 4, 67, 83
5, 18787, Note_on_c, 4, 67, 0
5, 18787, Note_on_c, 4, 62, 0
5, 18792, Note_on_c, 4, 69, 40
5, 18792, Note_on_c, 4, 74, 82
5, 18811, Note_on_c, 4, 74, 0
5, 18811, Note_on_c, 4, 69, 0
5, 18816, Note_on_c, 4, 67, 43
5, 18816, Note_on_c, 4, 72, 86
5, 18835, Note_on_c, 4, 72, 0
5, 18835, Note_on_c, 4, 67, 0
5, 18840, Note_on_c, 4, 65, 43
5, 18840, Note_on_c, 4, 67, 66
5, 18859, Note_on_c, 4, 67, 0
5, 18859, Note_on_c, 4, 65, 0
5, 18864, Note_on_c, 4, 60, 38
5, 18864, Note_on_c, 4, 65, 78
5, 18883, Note_on_c, 4, 65, 0
5, 18883, Note_on_c, 4, 60, 0
5, 18888, Note_on_c, 4, 67, 28
5, 18888, Note_on_c, 4, 72, 80
5, 18907, Note_on_c, 4, 72, 0
5, 18907, Note_on_c, 4, 67, 0
5, 18912, Note_on_c, 4, 65, 40
5, 18912, Note_on_c, 4, 70, 86
5, 18931, Note_on_c, 4, 70, 0
5, 18931, Note_on_c, 4, 65, 0
5, 18936, Note_on_c, 4, 63, 48
5, 18936, Note_on_c, 4, 65, 83
5, 18955, Note_on_c, 4, 65, 0
5, 18955, Note_on_c, 4, 63, 0
5, 18960, Note_on_c, 4, 58, 43
5, 18960, Note_on_c, 4, 63, 79
5, 18979, Note_on_c, 4, 63, 0
5, 18979, Note_on_c, 4, 58, 0
5, 18984, Note_on_c, 4, 65, 35
5, 18984, Note_on_c, 4, 70, 74
5, 19003, Note_on_c, 4, 70, 0
5, 19003, Note_on_c, 4, 65, 0
5, 19008, Note_on_c, 4, 64, 59
5, 19008, Note_on_c, 4, 69, 76
5, 19027, Note_on_c, 4, 69, 0
5, 19027, Note_on_c, 4, 64, 0
5, 19032, Note_on_c, 4, 62, 47
5, 19032, Note_on_c, 4, 64, 80
5, 19051, Note_on_c, 4, 64, 0
5, 19051, Note_on_c, 4, 62, 0
5, 19056, Note_on_c, 4, 57, 47
5, 19056, Note_on_c, 4, 62, 83
5, 19075, Note_on_c, 4, 62, 0
5, 19075, Note_on_c, 4, 57, 0
5, 19080, Note_on_c, 4, 64, 51
5, 19080, Note_on_c, 4, 69, 83
5, 19099, Note_on_c, 4, 69, 0
5, 19099, Note_on_c, 4, 64, 0
5, 19104, Note_on_c, 4, 62, 51
5, 19104, Note_on_c, 4, 64, 86
5, 19123, Note_on_c, 4, 64, 0
5, 19123, Note_on_c, 4, 62, 0
5, 19128, Note_on_c, 4, 57, 40
5, 19128, Note_on_c, 4, 62, 74
5, 19147, Note_on_c, 4, 62, 0
5, 19147, Note_on_c, 4, 57, 0
5, 19152, Note_on_c, 4, 64, 51
5, 19152, Note_on_c, 4, 69, 83
5, 19171, Note_on_c, 4, 69, 0
5, 19171, Note_on_c, 4, 64, 0
5, 19176, Note_on_c, 4, 62, 55
5, 19176, Note_on_c, 4, 64, 80
5, 19195, Note_on_c, 4, 64, 0
5, 19195, Note_on_c, 4, 62, 0
5, 19200, Note_on_c, 4, 64, 59
5, 19200, Note_on_c, 4, 69, 88
5, 19219, Note_on_c, 4, 69, 0
5, 19219, Note_on_c, 4, 64, 0
5, 19224, Note_on_c, 4, 62, 59
5, 19224, Note_on_c, 4, 64, 86
5, 19243, Note_on_c, 4, 64, 0
5, 19243, Note_on_c, 4, 62, 0
5, 19248, Note_on_c, 4, 57, 47
5, 19248, Note_on_c, 4, 62, 83
5, 19267, Note_on_c, 4, 62, 0
5, 19267, Note_on_c, 4, 57, 0
5, 19272, Note_on_c, 4, 64, 47
5, 19272, Note_on_c, 4, 69, 83
5, 19291, Note_on_c, 4, 69, 0
5, 19291, Note_on_c, 4, 64, 0
5, 19296, Note_on_c, 4, 62, 51
5, 19296, Note_on_c, 4, 64, 86
5, 19315, Note_on_c, 4, 64, 0
5, 19315, Note_on_c, 4, 62, 0
5, 19320, Note_on_c, 4, 57, 40
5, 19320, Note_on_c, 4, 62, 88
5, 19339, Note_on_c, 4, 62, 0
5, 19339, Note_on_c, 4, 57, 0
5, 19344, Note_on_c, 4, 64, 47
5, 19344, Note_on_c, 4, 69, 80
5, 19363, Note_on_c, 4, 69, 0
5, 19363, Note_on_c, 4, 64, 0
5, 19368, Note_on_c, 4, 62, 51
5, 19368, Note_on_c, 4, 64, 73
5, 19387, Note_on_c, 4, 64, 0
5, 19387, Note_on_c, 4, 62, 0
5, 23040, Note_on_c, 4, 50, 90
5, 23064, Note_on_c, 4, 60, 65
5, 23088, Note_on_c, 4, 64, 58
5, 23112, Note_on_c, 4, 67, 73
5, 23135, Note_on_c, 4, 60, 62
5, 23207, Note_on_c, 4, 50, 0
5, 23227, Note_on_c, 4, 60, 0
5, 23230, Note_on_c, 4, 67, 0
5, 23231, Note_on_c, 4, 64, 0
5, 23232, Note_on_c, 4, 50, 102
5, 23257, Note_on_c, 4, 60, 0
5, 23276, Note_on_c, 4, 60, 38
5, 23278, Note_on_c, 4, 64, 73
5, 23282, Note_on_c, 4, 67, 68
5, 23301, Note_on_c, 4, 50, 0
5, 23326, Note_on_c, 4, 50, 110
5, 23336, Note_on_c, 4, 60, 0
5, 23337, Note_on_c, 4, 64, 0
5, 23338, Note_on_c, 4, 67, 0
5, 23373, Note_on_c, 4, 60, 73
5, 23374, Note_on_c, 4, 64, 78
5, 23379, Note_on_c, 4, 67, 76
5, 23383, Note_on_c, 4, 50, 0
5, 23386, Note_on_c, 4, 60, 0
5, 23414, Note_on_c, 4, 64, 0
5, 23417, Note_on_c, 4, 67, 0
5, 23426, Note_on_c, 4, 52, 95
5, 23471, Note_on_c, 4, 64, 68
5, 23471, Note_on_c, 4, 59, 62
5, 23475, Note_on_c, 4, 67, 74
5, 23484, Note_on_c, 4, 52, 0
5, 23517, Note_on_c, 4, 64, 0
5, 23518, Note_on_c, 4, 59, 0
5, 23520, Note_on_c, 4, 51, 86
5, 23521, Note_on_c, 4, 67, 0
5, 23544, Note_on_c, 4, 58, 75
5, 23568, Note_on_c, 4, 55, 80
5, 23587, Note_on_c, 4, 58, 0
5, 23591, Note_on_c, 4, 55, 0
5, 23592, Note_on_c, 4, 67, 78
5, 23616, Note_on_c, 4, 58, 79
5, 23627, Note_on_c, 4, 67, 0
5, 23640, Note_on_c, 4, 55, 67
5, 23647, Note_on_c, 4, 58, 0
5, 23655, Note_on_c, 4, 51, 0
5, 23664, Note_on_c, 4, 67, 82
5, 23674, Note_on_c, 4, 55, 0
5, 23688, Note_on_c, 4, 58, 64
5, 23702, Note_on_c, 4, 67, 0
5, 23705, Note_on_c, 4, 58, 0
5, 23712, Note_on_c, 4, 50, 86
5, 23756, Note_on_c, 4, 58, 67
5, 23760, Note_on_c, 4, 62, 76
5, 23764, Note_on_c, 4, 67, 82
5, 23792, Note_on_c, 4, 50, 0
5, 23808, Note_on_c, 4, 51, 98
5, 23812, Note_on_c, 4, 62, 0
5, 23813, Note_on_c, 4, 58, 0
5, 23816, Note_on_c, 4, 67, 0
5, 23851, Note_on_c, 4, 58, 72
5, 23855, Note_on_c, 4, 63, 80
5, 23859, Note_on_c, 4, 67, 74
5, 23888, Note_on_c, 4, 51, 0
5, 23890, Note_on_c, 4, 67, 0
5, 23890, Note_on_c, 4, 63, 0
5, 23893, Note_on_c, 4, 58, 0
5, 23904, Note_on_c, 4, 50, 95
5, 23944, Note_on_c, 4, 62, 71
5, 23948, Note_on_c, 4, 65, 71
5, 23951, Note_on_c, 4, 69, 76
5, 23994, Note_on_c, 4, 50, 0
5, 23995, Note_on_c, 4, 65, 0
5, 23996, Note_on_c, 4, 62, 0
5, 24000, Note_on_c, 4, 43, 92
5, 24007, Note_on_c, 4, 69, 0
5, 24019, Note_on_c, 4, 43, 0
5, 24024, Note_on_c, 4, 47, 92
5, 24043, Note_on_c, 4, 47, 0
5, 24048, Note_on_c, 4, 50, 92
5, 24067, Note_on_c, 4, 50, 0
5, 24072, Note_on_c, 4, 55, 92
5, 24091, Note_on_c, 4, 55, 0
5, 24096, Note_on_c, 4, 45, 92
5, 24115, Note_on_c, 4, 45, 0
5, 24120, Note_on_c, 4, 48, 92
5, 24139, Note_on_c, 4, 48, 0
5, 24144, Note_on_c, 4, 50, 92
5, 24163, Note_on_c, 4, 50, 0
5, 24168, Note_on_c, 4, 55, 92
5, 24187, Note_on_c, 4, 55, 0
5, 24192, Note_on_c, 4, 47, 92
5, 24211, Note_on_c, 4, 47, 0
5, 24216, Note_on_c, 4, 50, 92
5, 24235, Note_on_c, 4, 50, 0
5, 24240, Note_on_c, 4, 55, 92
5, 24259, Note_on_c, 4, 55, 0
5, 24264, Note_on_c, 4, 59, 92
5, 24283, Note_on_c, 4, 59, 0
5, 24288, Note_on_c, 4, 48, 92
5, 24307, Note_on_c, 4, 48, 0
5, 24312, Note_on_c, 4, 50, 92
5, 24331, Note_on_c, 4, 50, 0
5, 24336, Note_on_c, 4, 55, 92
5, 24355, Note_on_c, 4, 55, 0
5, 24360, Note_on_c, 4, 59, 92
5, 24379, Note_on_c, 4, 59, 0
5, 24384, Note_on_c, 4, 57, 42
5, 24384, Note_on_c, 4, 45, 42
5, 24387, Note_on_c, 4, 60, 42
5, 24390, Note_on_c, 4, 64, 43
5, 24393, Note_on_c, 4, 67, 43
5, 24420, Note_on_c, 4, 57, 0
5, 24423, Note_on_c, 4, 60, 0
5, 24425, Note_on_c, 4, 45, 0
5, 24426, Note_on_c, 4, 64, 0
5, 24429, Note_on_c, 4, 67, 0
5, 24432, Note_on_c, 4, 57, 48
5, 24432, Note_on_c, 4, 45, 48
5, 24435, Note_on_c, 4, 60, 48
5, 24438, Note_on_c, 4, 64, 48
5, 24441, Note_on_c, 4, 67, 49
5, 24468, Note_on_c, 4, 57, 0
5, 24471, Note_on_c, 4, 60, 0
5, 24473, Note_on_c, 4, 45, 0
5, 24474, Note_on_c, 4, 64, 0
5, 24477, Note_on_c, 4, 67, 0
5, 24480, Note_on_c, 4, 57, 53
5, 24480, Note_on_c, 4, 45, 53
5, 24483, Note_on_c, 4, 60, 54
5, 24486, Note_on_c, 4, 64, 54
5, 24489, Note_on_c, 4, 67, 54
5, 24516, Note_on_c, 4, 57, 0
5, 24519, Note_on_c, 4, 60, 0
5, 24521, Note_on_c, 4, 45, 0
5, 24522, Note_on_c, 4, 64, 0
5, 24525, Note_on_c, 4, 67, 0
5, 24528, Note_on_c, 4, 57, 59
5, 24528, Note_on_c, 4, 45, 59
5, 24531, Note_on_c, 4, 60, 59
5, 24534, Note_on_c, 4, 64, 60
5, 24537, Note_on_c, 4, 67, 60
5, 24564, Note_on_c, 4, 57, 0
5, 24567, Note_on_c, 4, 60, 0
5, 24569, Note_on_c, 4, 45, 0
5, 24570, Note_on_c, 4, 64, 0
5, 24573, Note_on_c, 4, 67, 0
5, 24576, Note_on_c, 4, 57, 65
5, 24576, Note_on_c, 4, 45, 65
5, 24579, Note_on_c, 4, 60, 65
5, 24582, Note_on_c, 4, 64, 65
5, 24585, Note_on_c, 4, 67, 66
5, 24612, Note_on_c, 4, 57, 0
5, 24615, Note_on_c, 4, 60, 0
5, 24617, Note_on_c, 4, 45, 0
5, 24618, Note_on_c, 4, 64, 0
5, 24621, Note_on_c, 4, 67, 0
5, 24624, Note_on_c, 4, 57, 70
5, 24624, Note_on_c, 4, 45, 70
5, 24627, Note_on_c, 4, 60, 70
5, 24630, Note_on_c, 4, 64, 71
5, 24633, Note_on_c, 4, 67, 71
5, 24660, Note_on_c, 4, 57, 0
5, 24663, Note_on_c, 4, 60, 0
5, 24665, Note_on_c, 4, 45, 0
5, 24666, Note_on_c, 4, 64, 0
5, 24669, Note_on_c, 4, 67, 0
5, 24672, Note_on_c, 4, 57, 76
5, 24672, Note_on_c, 4, 45, 76
5, 24675, Note_on_c, 4, 60, 76
5, 24678, Note_on_c, 4, 64, 76
5, 24681, Note_on_c, 4, 67, 77
5, 24708, Note_on_c, 4, 57, 0
5, 24711, Note_on_c, 4, 60, 0
5, 24713, Note_on_c, 4, 45, 0
5, 24714, Note_on_c, 4, 64, 0
5, 24717, Note_on_c, 4, 67, 0
5, 24864, Note_on_c, 4, 57, 90
5, 24864, Note_on_c, 4, 45, 90
5, 24867, Note_on_c, 4, 60, 90
5, 24870, Note_on_c, 4, 64, 90
5, 24873, Note_on_c, 4, 67, 90
5, 24900, Note_on_c, 4, 57, 0
5, 24903, Note_on_c, 4, 60, 0
5, 24905, Note_on_c, 4, 45, 0
5, 24906, Note_on_c, 4, 64, 0
5, 24909, Note_on_c, 4, 67, 0
5, 24960, Note_on_c, 4, 57, 97
5, 24960, Note_on_c, 4, 45, 97
5, 24963, Note_on_c, 4, 60, 97
5, 24966, Note_on_c, 4, 64, 97
5, 24969, Note_on_c, 4, 67, 98
5, 24996, Note_on_c, 4, 57, 0
5, 24999, Note_on_c, 4, 60, 0
5, 25001, Note_on_c, 4, 45, 0
5, 25002, Note_on_c, 4, 64, 0
5, 25005, Note_on_c, 4, 67, 0
5, 25056, Note_on_c, 4, 57, 102
5, 25056, Note_on_c, 4, 45, 102
5, 25059, Note_on_c, 4, 60, 102
5, 25062, Note_on_c, 4, 64, 102
5, 25065, Note_on_c, 4, 67, 102
5, 25092, Note_on_c, 4, 57, 0
5, 25095, Note_on_c, 4, 60, 0
5, 25097, Note_on_c, 4, 45, 0
5, 25098, Note_on_c, 4, 64, 0
5, 25101, Note_on_c, 4, 67, 0
5, 25104, Note_on_c, 4, 65, 71
5, 25104, Note_on_c, 4, 57, 66
5, 25104, Note_on_c, 4, 50, 82
5, 25104, Note_on_c, 4, 60, 74
5, 25113, Note_on_c, 4, 60, 0
5, 25113, Note_on_c, 4, 65, 0
5, 25113, Note_on_c, 4, 57, 0
5, 25113, Note_on_c, 4, 50, 0
5, 25116, Note_on_c, 4, 65, 71
5, 25116, Note_on_c, 4, 57, 66
5, 25116, Note_on_c, 4, 50, 90
5, 25116, Note_on_c, 4, 60, 73
5, 25125, Note_on_c, 4, 60, 0
5, 25125, Note_on_c, 4, 65, 0
5, 25125, Note_on_c, 4, 57, 0
5, 25125, Note_on_c, 4, 50, 0
5, 25128, Note_on_c, 4, 65, 82
5, 25128, Note_on_c, 4, 57, 82
5, 25128, Note_on_c, 4, 50, 98
5, 25128, Note_on_c, 4, 60, 90
5, 25137, Note_on_c, 4, 60, 0
5, 25137, Note_on_c, 4, 65, 0
5, 25137, Note_on_c, 4, 57, 0
5, 25137, Note_on_c, 4, 50, 0
5, 25140, Note_on_c, 4, 65, 82
5, 25140, Note_on_c, 4, 57, 83
5, 25140, Note_on_c, 4, 50, 98
5, 25140, Note_on_c, 4, 60, 93
5, 25149, Note_on_c, 4, 60, 0
5, 25149, Note_on_c, 4, 65, 0
5, 25149, Note_on_c, 4, 57, 0
5, 25149, Note_on_c, 4, 50, 0
5, 25152, Note_on_c, 4, 65, 93
5, 25152, Note_on_c, 4, 57, 93
5, 25152, Note_on_c, 4, 50, 110
5, 25152, Note_on_c, 4, 60, 110
5, 25161, Note_on_c, 4, 60, 0
5, 25161, Note_on_c, 4, 65, 0
5, 25161, Note_on_c, 4, 57, 0
5, 25161, Note_on_c, 4, 50, 0
5, 25248, Note_on_c, 4, 65, 66
5, 25248, Note_on_c, 4, 57, 65
5, 25248, Note_on_c, 4, 50, 73
5, 25248, Note_on_c, 4, 60, 71
5, 25257, Note_on_c, 4, 60, 0
5, 25257, Note_on_c, 4, 65, 0
5, 25257, Note_on_c, 4, 57, 0
5, 25257, Note_on_c, 4, 50, 0
5, 25260, Note_on_c, 4, 65, 70
5, 25260, Note_on_c, 4, 50, 95
5, 25260, Note_on_c, 4, 57, 64
5, 25260, Note_on_c, 4, 60, 66
5, 25269, Note_on_c, 4, 60, 0
5, 25269, Note_on_c, 4, 65, 0
5, 25269, Note_on_c, 4, 50, 0
5, 25269, Note_on_c, 4, 57, 0
5, 25272, Note_on_c, 4, 57, 76
5, 25272, Note_on_c, 4, 50, 98
5, 25272, Note_on_c, 4, 65, 76
5, 25272, Note_on_c, 4, 60, 82
5, 25281, Note_on_c, 4, 60, 0
5, 25281, Note_on_c, 4, 57, 0
5, 25281, Note_on_c, 4, 50, 0
5, 25281, Note_on_c, 4, 65, 0
5, 25284, Note_on_c, 4, 50, 90
5, 25284, Note_on_c, 4, 65, 82
5, 25284, Note_on_c, 4, 57, 80
5, 25284, Note_on_c, 4, 60, 88
5, 25293, Note_on_c, 4, 60, 0
5, 25293, Note_on_c, 4, 50, 0
5, 25293, Note_on_c, 4, 65, 0
5, 25293, Note_on_c, 4, 57, 0
5, 25296, Note_on_c, 4, 65, 93
5, 25296, Note_on_c, 4, 57, 88
5, 25296, Note_on_c, 4, 50, 98
5, 25296, Note_on_c, 4, 60, 98
5, 25305, Note_on_c, 4, 60, 0
5, 25305, Note_on_c, 4, 65, 0
5, 25305, Note_on_c, 4, 57, 0
5, 25305, Note_on_c, 4, 50, 0
5, 25392, Note_on_c, 4, 65, 70
5, 25392, Note_on_c, 4, 57, 65
5, 25392, Note_on_c, 4, 50, 83
5, 25392, Note_on_c, 4, 60, 74
5, 25401, Note_on_c, 4, 60, 0
5, 25401, Note_on_c, 4, 65, 0
5, 25401, Note_on_c, 4, 57, 0
5, 25401, Note_on_c, 4, 50, 0
5, 25404, Note_on_c, 4, 50, 86
5, 25404, Note_on_c, 4, 65, 74
5, 25404, Note_on_c, 4, 57, 71
5, 25404, Note_on_c, 4, 60, 70
5, 25413, Note_on_c, 4, 60, 0
5, 25413, Note_on_c, 4, 50, 0
5, 25413, Note_on_c, 4, 65, 0
5, 25413, Note_on_c, 4, 57, 0
5, 25416, Note_on_c, 4, 50, 88
5, 25416, Note_on_c, 4, 65, 78
5, 25416, Note_on_c, 4, 57, 78
5, 25416, Note_on_c, 4, 60, 80
5, 25425, Note_on_c, 4, 60, 0
5, 25425, Note_on_c, 4, 50, 0
5, 25425, Note_on_c, 4, 65, 0
5, 25425, Note_on_c, 4, 57, 0
5, 25428, Note_on_c, 4, 50, 83
5, 25428, Note_on_c, 4, 65, 80
5, 25428, Note_on_c, 4, 57, 76
5, 25428, Note_on_c, 4, 60, 82
5, 25437, Note_on_c, 4, 60, 0
5, 25437, Note_on_c, 4, 50, 0
5, 25437, Note_on_c, 4, 65, 0
5, 25437, Note_on_c, 4, 57, 0
5, 25440, Note_on_c, 4, 66, 100
5, 25440, Note_on_c, 4, 62, 83
5, 25440, Note_on_c, 4, 54, 72
5, 25440, Note_on_c, 4, 47, 85
5, 25440, Note_on_c, 4, 59, 82
5, 26002, Note_on_c, 4, 59, 0
5, 26002, Note_on_c, 4, 54, 0
5, 26002, Note_on_c, 4, 66, 0
5, 26002, Note_on_c, 4, 62, 0
5, 26002, Note_on_c, 4, 47, 0
5, 26020, Note_on_c, 4, 54, 67
5, 26020, Note_on_c, 4, 47, 71
5, 26022, Note_on_c, 4, 66, 70
5, 26022, Note_on_c, 4, 62, 86
5, 26022, Note_on_c, 4, 59, 78
5, 26032, Note_on_c, 4, 62, 0
5, 26032, Note_on_c, 4, 66, 0
5, 26034, Note_on_c, 4, 59, 0
5, 26041, Note_on_c, 4, 66, 53
5, 26041, Note_on_c, 4, 62, 80
5, 26042, Note_on_c, 4, 59, 68
5, 26057, Note_on_c, 4, 66, 0
5, 26058, Note_on_c, 4, 62, 0
5, 26058, Note_on_c, 4, 59, 0
5, 26081, Note_on_c, 4, 66, 74
5, 26082, Note_on_c, 4, 62, 83
5, 26083, Note_on_c, 4, 59, 78
5, 26124, Note_on_c, 4, 62, 0
5, 26126, Note_on_c, 4, 66, 0
5, 26126, Note_on_c, 4, 59, 0
5, 26146, Note_on_c, 4, 59, 93
5, 26148, Note_on_c, 4, 66, 103
5, 26149, Note_on_c, 4, 62, 98
5, 26546, Note_on_c, 4, 47, 0
5, 26546, Note_on_c, 4, 54, 0
5, 26562, Note_on_c, 4, 62, 0
5, 26566, Note_on_c, 4, 66, 0
5, 26570, Note_on_c, 4, 59, 0
5, 26597, Note_on_c, 4, 54, 66
5, 26597, Note_on_c, 4, 47, 69
5, 26619, Note_on_c, 4, 66, 53
5, 26619, Note_on_c, 4, 62, 65
5, 26620, Note_on_c, 4, 59, 62
5, 26657, Note_on_c, 4, 59, 0
5, 26658, Note_on_c, 4, 66, 0
5, 26659, Note_on_c, 4, 62, 0
5, 26669, Note_on_c, 4, 62, 88
5, 26670, Note_on_c, 4, 66, 77
5, 26670, Note_on_c, 4, 59, 76
5, 26720, Note_on_c, 4, 62, 0
5, 26721, Note_on_c, 4, 59, 0
5, 26723, Note_on_c, 4, 66, 0
5, 26737, Note_on_c, 4, 66, 82
5, 26739, Note_on_c, 4, 62, 90
5, 26740, Note_on_c, 4, 59, 80
5, 27120, Note_on_c, 4, 47, 0
5, 27122, Note_on_c, 4, 54, 0
5, 27126, Note_on_c, 4, 62, 0
5, 27128, Note_on_c, 4, 66, 0
5, 27133, Note_on_c, 4, 59, 0
5, 27173, Note_on_c, 4, 54, 46
5, 27173, Note_on_c, 4, 47, 49
5, 27195, Note_on_c, 4, 66, 33
5, 27195, Note_on_c, 4, 62, 45
5, 27196, Note_on_c, 4, 59, 42
5, 27233, Note_on_c, 4, 59, 0
5, 27234, Note_on_c, 4, 66, 0
5, 27235, Note_on_c, 4, 62, 0
5, 27245, Note_on_c, 4, 62, 68
5, 27246, Note_on_c, 4, 66, 57
5, 27246, Note_on_c, 4, 59, 56
5, 27296, Note_on_c, 4, 62, 0
5, 27297, Note_on_c, 4, 59, 0
5, 27299, Note_on_c, 4, 66, 0
5, 27313, Note_on_c, 4, 66, 62
5, 27315, Note_on_c, 4, 62, 70
5, 27316, Note_on_c, 4, 59, 60
5, 27696, Note_on_c, 4, 47, 0
5, 27698, Note_on_c, 4, 54, 0
5, 27702, Note_on_c, 4, 62, 0
5, 27704, Note_on_c, 4, 66, 0
5, 27709, Note_on_c, 4, 59, 0
5, 27744, Note_on_c, 4, 47, 49
5, 27768, Note_on_c, 4, 54, 47
5, 27783, Note_on_c, 4, 47, 0
5, 27792, Note_on_c, 4, 59, 52
5, 27807, Note_on_c, 4, 54, 0
5, 27816, Note_on_c, 4, 66, 56
5, 27831, Note_on_c, 4, 59, 0
5, 27840, Note_on_c, 4, 62, 47
5, 27855, Note_on_c, 4, 66, 0
5, 27864, Note_on_c, 4, 59, 54
5, 27879, Note_on_c, 4, 62, 0
5, 27888, Note_on_c, 4, 47, 37
5, 27903, Note_on_c, 4, 59, 0
5, 27912, Note_on_c, 4, 54, 54
5, 27927, Note_on_c, 4, 47, 0
5, 27936, Note_on_c, 4, 59, 47
5, 27951, Note_on_c, 4, 54, 0
5, 27960, Note_on_c, 4, 66, 43
5, 27975, Note_on_c, 4, 59, 0
5, 27984, Note_on_c, 4, 62, 37
5, 27999, Note_on_c, 4, 66, 0
5, 28008, Note_on_c, 4, 59, 47
5, 28023, Note_on_c, 4, 62, 0
5, 28032, Note_on_c, 4, 47, 36
5, 28047, Note_on_c, 4, 59, 0
5, 28056, Note_on_c, 4, 54, 44
5, 28071, Note_on_c, 4, 47, 0
5, 28080, Note_on_c, 4, 59, 31
5, 28095, Note_on_c, 4, 54, 0
5, 28104, Note_on_c, 4, 66, 41
5, 28119, Note_on_c, 4, 59, 0
5, 28128, Note_on_c, 4, 62, 27
5, 28143, Note_on_c, 4, 66, 0
5, 28152, Note_on_c, 4, 59, 30
5, 28167, Note_on_c, 4, 62, 0
5, 28176, Note_on_c, 4, 47, 6
5, 28191, Note_on_c, 4, 59, 0
5, 28200, Note_on_c, 4, 54, 31
5, 28215, Note_on_c, 4, 47, 0
5, 28224, Note_on_c, 4, 59, 25
5, 28239, Note_on_c, 4, 54, 0
5, 28248, Note_on_c, 4, 66, 32
5, 28263, Note_on_c, 4, 59, 0
5, 28414, Note_on_c, 4, 66, 0
5, 28414, End_track
6, 0, Start_track
6, 0, MIDI_port, 0
6, 0, Title_t, "Choir"
6, 0, Program_c, 5, 52
6, 0, Control_c, 5, 7, 100
6, 0, Control_c, 5, 10, 80
6, 10320, Note_on_c, 5, 64, 100
6, 10320, Note_on_c, 5, 61, 90
6, 10320, Note_on_c, 5, 57, 93
6, 10508, Note_on_c, 5, 57, 0
6, 10511, Note_on_c, 5, 64, 0
6, 10512, Note_on_c, 5, 61, 0
6, 10512, Note_on_c, 5, 63, 97
6, 10512, Note_on_c, 5, 59, 90
6, 10702, Note_on_c, 5, 59, 0
6, 10703, Note_on_c, 5, 63, 0
6, 10704, Note_on_c, 5, 64, 103
6, 10704, Note_on_c, 5, 61, 99
6, 10704, Note_on_c, 5, 57, 96
6, 10887, Note_on_c, 5, 57, 0
6, 10888, Note_on_c, 5, 61, 0
6, 10889, Note_on_c, 5, 64, 0
6, 10896, Note_on_c, 5, 63, 97
6, 10896, Note_on_c, 5, 59, 102
6, 11065, Note_on_c, 5, 59, 0
6, 11065, Note_on_c, 5, 63, 0
6, 11088, Note_on_c, 5, 56, 86
6, 11088, Note_on_c, 5, 61, 94
6, 11088, Note_on_c, 5, 64, 84
6, 11264, Note_on_c, 5, 64, 0
6, 11266, Note_on_c, 5, 61, 0
6, 11271, Note_on_c, 5, 56, 0
6, 11280, Note_on_c, 5, 54, 58
6, 11280, Note_on_c, 5, 62, 84
6, 11280, Note_on_c, 5, 57, 88
6, 11451, Note_on_c, 5, 62, 0
6, 11452, Note_on_c, 5, 57, 0
6, 11455, Note_on_c, 5, 54, 0
6, 11472, Note_on_c, 5, 62, 100
6, 11472, Note_on_c, 5, 59, 100
6, 11472, Note_on_c, 5, 54, 63
6, 11636, Note_on_c, 5, 62, 0
6, 11637, Note_on_c, 5, 59, 0
6, 11641, Note_on_c, 5, 54, 0
6, 11664, Note_on_c, 5, 64, 82
6, 11664, Note_on_c, 5, 60, 102
6, 11664, Note_on_c, 5, 55, 93
6, 12222, Note_on_c, 5, 60, 0
6, 12225, Note_on_c, 5, 64, 0
6, 12229, Note_on_c, 5, 55, 0
6, 12240, Note_on_c, 5, 66, 70
6, 12240, Note_on_c, 5, 62, 91
6, 12240, Note_on_c, 5, 57, 98
6, 12421, Note_on_c, 5, 62, 0
6, 12421, Note_on_c, 5, 66, 0
6, 12425, Note_on_c, 5, 57, 0
6, 12432, Note_on_c, 5, 64, 84
6, 12432, Note_on_c, 5, 60, 82
6, 12432, Note_on_c, 5, 55, 102
6, 12593, Note_on_c, 5, 60, 0
6, 12596, Note_on_c, 5, 55, 0
6, 12599, Note_on_c, 5, 64, 0
6, 12624, Note_on_c, 5, 57, 81
6, 12624, Note_on_c, 5, 62, 98
6, 12624, Note_on_c, 5, 66, 72
6, 12779, Note_on_c, 5, 66, 0
6, 12794, Note_on_c, 5, 62, 0
6, 12796, Note_on_c, 5, 57, 0
6, 12816, Note_on_c, 5, 55, 90
6, 12816, Note_on_c, 5, 59, 90
6, 12816, Note_on_c, 5, 64, 71
6, 12991, Note_on_c, 5, 64, 0
6, 12991, Note_on_c, 5, 55, 0
6, 12992, Note_on_c, 5, 59, 0
6, 13008, Note_on_c, 5, 64, 93
6, 13008, Note_on_c, 5, 61, 87
6, 13008, Note_on_c, 5, 57, 96
6, 13187, Note_on_c, 5, 57, 0
6, 13187, Note_on_c, 5, 61, 0
6, 13188, Note_on_c, 5, 64, 0
6, 20160, Note_on_c, 5, 64, 100
6, 20160, Note_on_c, 5, 61, 90
6, 20160, Note_on_c, 5, 57, 93
6, 20348, Note_on_c, 5, 57, 0
6, 20351, Note_on_c, 5, 64, 0
6, 20352, Note_on_c, 5, 61, 0
6, 20352, Note_on_c, 5, 63, 97
6, 20352, Note_on_c, 5, 59, 90
6, 20542, Note_on_c, 5, 59, 0
6, 20543, Note_on_c, 5, 63, 0
6, 20544, Note_on_c, 5, 64, 103
6, 20544, Note_on_c, 5, 61, 99
6, 20544, Note_on_c, 5, 57, 96
6, 20727, Note_on_c, 5, 57, 0
6, 20728, Note_on_c, 5, 61, 0
6, 20729, Note_on_c, 5, 64, 0
6, 20736, Note_on_c, 5, 63, 97
6, 20736, Note_on_c, 5, 59, 102
6, 20905, Note_on_c, 5, 59, 0
6, 20905, Note_on_c, 5, 63, 0
6, 20928, Note_on_c, 5, 56, 86
6, 20928, Note_on_c, 5, 61, 94
6, 20928, Note_on_c, 5, 64, 84
6, 21104, Note_on_c, 5, 64, 0
6, 21106, Note_on_c, 5, 61, 0
6, 21111, Note_on_c, 5, 56, 0
6, 21120, Note_on_c, 5, 54, 58
6, 21120, Note_on_c, 5, 62, 84
6, 21120, Note_on_c, 5, 57, 88
6, 21291, Note_on_c, 5, 62, 0
6, 21292, Note_on_c, 5, 57, 0
6, 21295, Note_on_c, 5, 54, 0
6, 21312, Note_on_c, 5, 62, 100
6, 21312, Note_on_c, 5, 59, 100
6, 21312, Note_on_c, 5, 54, 63
6, 21476, Note_on_c, 5, 62, 0
6, 21477, Note_on_c, 5, 59, 0
6, 21481, Note_on_c, 5, 54, 0
6, 21504, Note_on_c, 5, 64, 82
6, 21504, Note_on_c, 5, 60, 102
6, 21504, Note_on_c, 5, 55, 93
6, 22062, Note_on_c, 5, 60, 0
6, 22065, Note_on_c, 5, 64, 0
6, 22069, Note_on_c, 5, 55, 0
6, 22080, Note_on_c, 5, 66, 70
6, 22080, Note_on_c, 5, 62, 91
6, 22080, Note_on_c, 5, 57, 98
6, 22261, Note_on_c, 5, 62, 0
6, 22261, Note_on_c, 5, 66, 0
6, 22265, Note_on_c, 5, 57, 0
6, 22272, Note_on_c, 5, 64, 84
6, 22272, Note_on_c, 5, 60, 82
6, 22272, Note_on_c, 5, 55, 102
6, 22433, Note_on_c, 5, 60, 0
6, 22436, Note_on_c, 5, 55, 0
6, 22439, Note_on_c, 5, 64, 0
6, 22464, Note_on_c, 5, 57, 81
6, 22464, Note_on_c, 5, 62, 98
6, 22464, Note_on_c, 5, 66, 72
6, 22619, Note_on_c, 5, 66, 0
6, 22634, Note_on_c, 5, 62, 0
6, 22636, Note_on_c, 5, 57, 0
6, 22656, Note_on_c, 5, 55, 90
6, 22656, Note_on_c, 5, 59, 90
6, 22656, Note_on_c, 5, 64, 71
6, 22831, Note_on_c, 5, 64, 0
6, 22831, Note_on_c, 5, 55, 0
6, 22832, Note_on_c, 5, 59, 0
6, 22848, Note_on_c, 5, 64, 93
6, 22848, Note_on_c, 5, 61, 87
6, 22848, Note_on_c, 5, 57, 96
6, 23027, Note_on_c, 5, 57, 0
6, 23027, Note_on_c, 5, 61, 0
6, 23028, Note_on_c, 5, 64, 0
6, 23028, End_track
7, 0, Start_track
7, 0, MIDI_port, 0
7, 0, Title_t, "Bass"
7, 0, Program_c, 6, 33
7, 0, Control_c, 6, 7, 120
7, 0, Control_c, 6, 10, 64
7, 2064, Note_on_c, 6, 40, 95
7, 2135, Note_on_c, 6, 40, 0
7, 2137, Note_on_c, 6, 42, 110
7, 2171, Note_on_c, 6, 42, 0
7, 2185, Note_on_c, 6, 42, 98
7, 2201, Note_on_c, 6, 42, 0
7, 2211, Note_on_c, 6, 35, 102
7, 2246, Note_on_c, 6, 35, 0
7, 2257, Note_on_c, 6, 38, 83
7, 2297, Note_on_c, 6, 38, 0
7, 2304, Note_on_c, 6, 35, 82
7, 2347, Note_on_c, 6, 35, 0
7, 2351, Note_on_c, 6, 40, 86
7, 2392, Note_on_c, 6, 40, 0
7, 2400, Note_on_c, 6, 35, 95
7, 2470, Note_on_c, 6, 35, 0
7, 2473, Note_on_c, 6, 37, 94
7, 2504, Note_on_c, 6, 37, 0
7, 2520, Note_on_c, 6, 38, 80
7, 2539, Note_on_c, 6, 38, 0
7, 2545, Note_on_c, 6, 31, 98
7, 2579, Note_on_c, 6, 31, 0
7, 2592, Note_on_c, 6, 30, 103
7, 2629, Note_on_c, 6, 30, 0
7, 2640, Note_on_c, 6, 28, 95
7, 2661, Note_on_c, 6, 28, 0
7, 2664, Note_on_c, 6, 31, 82
7, 2681, Note_on_c, 6, 31, 0
7, 2688, Note_on_c, 6, 35, 90
7, 2707, Note_on_c, 6, 35, 0
7, 2736, Note_on_c, 6, 40, 102
7, 2798, Note_on_c, 6, 40, 0
7, 2808, Note_on_c, 6, 42, 110
7, 2847, Note_on_c, 6, 42, 0
7, 2856, Note_on_c, 6, 42, 103
7, 2876, Note_on_c, 6, 42, 0
7, 2880, Note_on_c, 6, 35, 98
7, 2922, Note_on_c, 6, 35, 0
7, 2928, Note_on_c, 6, 38, 86
7, 2967, Note_on_c, 6, 38, 0
7, 2976, Note_on_c, 6, 35, 98
7, 3013, Note_on_c, 6, 35, 0
7, 3024, Note_on_c, 6, 40, 101
7, 3066, Note_on_c, 6, 40, 0
7, 3072, Note_on_c, 6, 35, 102
7, 3138, Note_on_c, 6, 35, 0
7, 3144, Note_on_c, 6, 37, 90
7, 3184, Note_on_c, 6, 37, 0
7, 3192, Note_on_c, 6, 38, 88
7, 3209, Note_on_c, 6, 38, 0
7, 3216, Note_on_c, 6, 31, 95
7, 3251, Note_on_c, 6, 31, 0
7, 3264, Note_on_c, 6, 30, 110
7, 3298, Note_on_c, 6, 30, 0
7, 3312, Note_on_c, 6, 28, 98
7, 3330, Note_on_c, 6, 28, 0
7, 3336, Note_on_c, 6, 35, 82
7, 3355, Note_on_c, 6, 35, 0
7, 3360, Note_on_c, 6, 40, 90
7, 3381, Note_on_c, 6, 40, 0
7, 3409, Note_on_c, 6, 28, 76
7, 3428, Note_on_c, 6, 40, 80
7, 3438, Note_on_c, 6, 28, 0
7, 3457, Note_on_c, 6, 52, 83
7, 3465, Note_on_c, 6, 40, 0
7, 3484, Note_on_c, 6, 28, 74
7, 3486, Note_on_c, 6, 52, 0
7, 3503, Note_on_c, 6, 40, 74
7, 3515, Note_on_c, 6, 28, 0
7, 3531, Note_on_c, 6, 52, 106
7, 3539, Note_on_c, 6, 40, 0
7, 3555, Note_on_c, 6, 52, 0
7, 3556, Note_on_c, 6, 28, 82
7, 3577, Note_on_c, 6, 40, 73
7, 3586, Note_on_c, 6, 28, 0
7, 3603, Note_on_c, 6, 52, 106
7, 3608, Note_on_c, 6, 40, 0
7, 3624, Note_on_c, 6, 28, 82
7, 3627, Note_on_c, 6, 52, 0
7, 3648, Note_on_c, 6, 40, 68
7, 3654, Note_on_c, 6, 28, 0
7, 3675, Note_on_c, 6, 52, 106
7, 3676, Note_on_c, 6, 40, 0
7, 3722, Note_on_c, 6, 52, 0
7, 3725, Note_on_c, 6, 50, 95
7, 3742, Note_on_c, 6, 50, 0
7, 3746, Note_on_c, 6, 47, 83
7, 3780, Note_on_c, 6, 47, 0
7, 3795, Note_on_c, 6, 28, 86
7, 3816, Note_on_c, 6, 40, 70
7, 3840, Note_on_c, 6, 52, 71
7, 3841, Note_on_c, 6, 28, 0
7, 3853, Note_on_c, 6, 40, 0
7, 3863, Note_on_c, 6, 52, 0
7, 3867, Note_on_c, 6, 28, 80
7, 3889, Note_on_c, 6, 38, 74
7, 3913, Note_on_c, 6, 50, 88
7, 3934, Note_on_c, 6, 38, 0
7, 3940, Note_on_c, 6, 50, 0
7, 3958, Note_on_c, 6, 28, 75
7, 3959, Note_on_c, 6, 28, 0
7, 3978, Note_on_c, 6, 28, 0
7, 3984, Note_on_c, 6, 36, 90
7, 4032, Note_on_c, 6, 36, 0
7, 4033, Note_on_c, 6, 38, 82
7, 4056, Note_on_c, 6, 38, 0
7, 4083, Note_on_c, 6, 40, 106
7, 4153, Note_on_c, 6, 40, 0
7, 4160, Note_on_c, 6, 42, 110
7, 4184, Note_on_c, 6, 42, 0
7, 4204, Note_on_c, 6, 42, 103
7, 4225, Note_on_c, 6, 35, 102
7, 4228, Note_on_c, 6, 42, 0
7, 4261, Note_on_c, 6, 35, 0
7, 4275, Note_on_c, 6, 37, 98
7, 4304, Note_on_c, 6, 37, 0
7, 4318, Note_on_c, 6, 31, 102
7, 4418, Note_on_c, 6, 31, 0
7, 4418, Note_on_c, 6, 33, 106
7, 4510, Note_on_c, 6, 33, 0
7, 4513, Note_on_c, 6, 35, 110
7, 4595, Note_on_c, 6, 35, 0
7, 4610, Note_on_c, 6, 36, 110
7, 4669, Note_on_c, 6, 36, 0
7, 4679, Note_on_c, 6, 38, 86
7, 4703, Note_on_c, 6, 38, 0
7, 4705, Note_on_c, 6, 29, 114
7, 5070, Note_on_c, 6, 29, 0
7, 5088, Note_on_c, 6, 40, 95
7, 5159, Note_on_c, 6, 40, 0
7, 5161, Note_on_c, 6, 42, 110
7, 5195, Note_on_c, 6, 42, 0
7, 5209, Note_on_c, 6, 42, 98
7, 5225, Note_on_c, 6, 42, 0
7, 5235, Note_on_c, 6, 35, 102
7, 5270, Note_on_c, 6, 35, 0
7, 5281, Note_on_c, 6, 38, 83
7, 5321, Note_on_c, 6, 38, 0
7, 5328, Note_on_c, 6, 35, 82
7, 5371, Note_on_c, 6, 35, 0
7, 5375, Note_on_c, 6, 40, 86
7, 5416, Note_on_c, 6, 40, 0
7, 5424, Note_on_c, 6, 35, 95
7, 5494, Note_on_c, 6, 35, 0
7, 5497, Note_on_c, 6, 37, 94
7, 5528, Note_on_c, 6, 37, 0
7, 5544, Note_on_c, 6, 38, 80
7, 5563, Note_on_c, 6, 38, 0
7, 5569, Note_on_c, 6, 31, 98
7, 5603, Note_on_c, 6, 31, 0
7, 5616, Note_on_c, 6, 30, 103
7, 5653, Note_on_c, 6, 30, 0
7, 5664, Note_on_c, 6, 28, 95
7, 5685, Note_on_c, 6, 28, 0
7, 5688, Note_on_c, 6, 31, 82
7, 5705, Note_on_c, 6, 31, 0
7, 5712, Note_on_c, 6, 35, 90
7, 5731, Note_on_c, 6, 35, 0
7, 5760, Note_on_c, 6, 40, 102
7, 5822, Note_on_c, 6, 40, 0
7, 5832, Note_on_c, 6, 42, 110
7, 5871, Note_on_c, 6, 42, 0
7, 5880, Note_on_c, 6, 42, 103
7, 5900, Note_on_c, 6, 42, 0
7, 5904, Note_on_c, 6, 35, 98
7, 5946, Note_on_c, 6, 35, 0
7, 5952, Note_on_c, 6, 38, 86
7, 5991, Note_on_c, 6, 38, 0
7, 6000, Note_on_c, 6, 35, 98
7, 6037, Note_on_c, 6, 35, 0
7, 6048, Note_on_c, 6, 40, 101
7, 6090, Note_on_c, 6, 40, 0
7, 6096, Note_on_c, 6, 35, 102
7, 6162, Note_on_c, 6, 35, 0
7, 6168, Note_on_c, 6, 37, 90
7, 6208, Note_on_c, 6, 37, 0
7, 6216, Note_on_c, 6, 38, 88
7, 6233, Note_on_c, 6, 38, 0
7, 6240, Note_on_c, 6, 31, 95
7, 6275, Note_on_c, 6, 31, 0
7, 6288, Note_on_c, 6, 30, 110
7, 6322, Note_on_c, 6, 30, 0
7, 6336, Note_on_c, 6, 28, 98
7, 6354, Note_on_c, 6, 28, 0
7, 6360, Note_on_c, 6, 35, 82
7, 6379, Note_on_c, 6, 35, 0
7, 6384, Note_on_c, 6, 40, 90
7, 6405, Note_on_c, 6, 40, 0
7, 6433, Note_on_c, 6, 28, 76
7, 6452, Note_on_c, 6, 40, 80
7, 6462, Note_on_c, 6, 28, 0
7, 6481, Note_on_c, 6, 52, 83
7, 6489, Note_on_c, 6, 40, 0
7, 6508, Note_on_c, 6, 28, 74
7, 6510, Note_on_c, 6, 52, 0
7, 6527, Note_on_c, 6, 40, 74
7, 6539, Note_on_c, 6, 28, 0
7, 6555, Note_on_c, 6, 52, 106
7, 6563, Note_on_c, 6, 40, 0
7, 6579, Note_on_c, 6, 52, 0
7, 6580, Note_on_c, 6, 28, 82
7, 6601, Note_on_c, 6, 40, 73
7, 6610, Note_on_c, 6, 28, 0
7, 6627, Note_on_c, 6, 52, 106
7, 6632, Note_on_c, 6, 40, 0
7, 6648, Note_on_c, 6, 28, 82
7, 6651, Note_on_c, 6, 52, 0
7, 6672, Note_on_c, 6, 40, 68
7, 6678, Note_on_c, 6, 28, 0
7, 6699, Note_on_c, 6, 52, 106
7, 6700, Note_on_c, 6, 40, 0
7, 6746, Note_on_c, 6, 52, 0
7, 6749, Note_on_c, 6, 50, 95
7, 6766, Note_on_c, 6, 50, 0
7, 6770, Note_on_c, 6, 47, 83
7, 6804, Note_on_c, 6, 47, 0
7, 6819, Note_on_c, 6, 28, 86
7, 6840, Note_on_c, 6, 40, 70
7, 6864, Note_on_c, 6, 52, 71
7, 6865, Note_on_c, 6, 28, 0
7, 6877, Note_on_c, 6, 40, 0
7, 6887, Note_on_c, 6, 52, 0
7, 6891, Note_on_c, 6, 28, 80
7, 6913, Note_on_c, 6, 38, 74
7, 6937, Note_on_c, 6, 50, 88
7, 6958, Note_on_c, 6, 38, 0
7, 6964, Note_on_c, 6, 50, 0
7, 6982, Note_on_c, 6, 28, 75
7, 6983, Note_on_c, 6, 28, 0
7, 7002, Note_on_c, 6, 28, 0
7, 7008, Note_on_c, 6, 36, 90
7, 7056, Note_on_c, 6, 36, 0
7, 7057, Note_on_c, 6, 38, 82
7, 7080, Note_on_c, 6, 38, 0
7, 7107, Note_on_c, 6, 40, 106
7, 7177, Note_on_c, 6, 40, 0
7, 7184, Note_on_c, 6, 42, 110
7, 7208, Note_on_c, 6, 42, 0
7, 7228, Note_on_c, 6, 42, 103
7, 7249, Note_on_c, 6, 35, 102
7, 7252, Note_on_c, 6, 42, 0
7, 7285, Note_on_c, 6, 35, 0
7, 7299, Note_on_c, 6, 37, 98
7, 7328, Note_on_c, 6, 37, 0
7, 7342, Note_on_c, 6, 31, 102
7, 7442, Note_on_c, 6, 31, 0
7, 7442, Note_on_c, 6, 33, 106
7, 7534, Note_on_c, 6, 33, 0
7, 7537, Note_on_c, 6, 35, 110
7, 7619, Note_on_c, 6, 35, 0
7, 7634, Note_on_c, 6, 36, 110
7, 7693, Note_on_c, 6, 36, 0
7, 7703, Note_on_c, 6, 38, 86
7, 7727, Note_on_c, 6, 38, 0
7, 7729, Note_on_c, 6, 29, 114
7, 8094, Note_on_c, 6, 29, 0
7, 9556, Note_on_c, 6, 33, 114
7, 9913, Note_on_c, 6, 57, 45
7, 9931, Note_on_c, 6, 57, 0
7, 9936, Note_on_c, 6, 57, 45
7, 10309, Note_on_c, 6, 33, 0
7, 10323, Note_on_c, 6, 33, 93
7, 10363, Note_on_c, 6, 57, 0
7, 10680, Note_on_c, 6, 57, 38
7, 10700, Note_on_c, 6, 57, 0
7, 10704, Note_on_c, 6, 57, 45
7, 11032, Note_on_c, 6, 57, 0
7, 11037, Note_on_c, 6, 33, 0
7, 11088, Note_on_c, 6, 37, 98
7, 11178, Note_on_c, 6, 37, 0
7, 11184, Note_on_c, 6, 33, 78
7, 11275, Note_on_c, 6, 33, 0
7, 11280, Note_on_c, 6, 38, 106
7, 11462, Note_on_c, 6, 38, 0
7, 11472, Note_on_c, 6, 35, 95
7, 11547, Note_on_c, 6, 35, 0
7, 11568, Note_on_c, 6, 33, 102
7, 11636, Note_on_c, 6, 33, 0
7, 11664, Note_on_c, 6, 36, 106
7, 12024, Note_on_c, 6, 31, 76
7, 12026, Note_on_c, 6, 36, 0
7, 12045, Note_on_c, 6, 31, 0
7, 12048, Note_on_c, 6, 36, 95
7, 12336, Note_on_c, 6, 48, 45
7, 12392, Note_on_c, 6, 36, 0
7, 12400, Note_on_c, 6, 48, 0
7, 12408, Note_on_c, 6, 31, 74
7, 12432, Note_on_c, 6, 36, 102
7, 12433, Note_on_c, 6, 31, 0
7, 12803, Note_on_c, 6, 36, 0
7, 12816, Note_on_c, 6, 40, 88
7, 12906, Note_on_c, 6, 40, 0
7, 12912, Note_on_c, 6, 38, 98
7, 13003, Note_on_c, 6, 38, 0
7, 13008, Note_on_c, 6, 37, 98
7, 13179, Note_on_c, 6, 37, 0
7, 13200, Note_on_c, 6, 38, 106
7, 13387, Note_on_c, 6, 38, 0
7, 13392, Note_on_c, 6, 38, 89
7, 13486, Note_on_c, 6, 38, 0
7, 13488, Note_on_c, 6, 38, 86
7, 13580, Note_on_c, 6, 38, 0
7, 13584, Note_on_c, 6, 40, 89
7, 13676, Note_on_c, 6, 40, 0
7, 13680, Note_on_c, 6, 39, 93
7, 13851, Note_on_c, 6, 39, 0
7, 13872, Note_on_c, 6, 31, 83
7, 13968, Note_on_c, 6, 39, 75
7, 13974, Note_on_c, 6, 31, 0
7, 14060, Note_on_c, 6, 39, 0
7, 14064, Note_on_c, 6, 38, 105
7, 14152, Note_on_c, 6, 38, 0
7, 14160, Note_on_c, 6, 31, 93
7, 14253, Note_on_c, 6, 31, 0
7, 14256, Note_on_c, 6, 33, 105
7, 14349, Note_on_c, 6, 33, 0
7, 14352, Note_on_c, 6, 35, 98
7, 14443, Note_on_c, 6, 35, 0
7, 14448, Note_on_c, 6, 36, 109
7, 14514, Note_on_c, 6, 36, 0
7, 14520, Note_on_c, 6, 38, 86
7, 14541, Note_on_c, 6, 38, 0
7, 14544, Note_on_c, 6, 29, 112
7, 14914, Note_on_c, 6, 29, 0
7, 14928, Note_on_c, 6, 40, 95
7, 14999, Note_on_c, 6, 40, 0
7, 15001, Note_on_c, 6, 42, 110
7, 15035, Note_on_c, 6, 42, 0
7, 15049, Note_on_c, 6, 42, 98
7, 15065, Note_on_c, 6, 42, 0
7, 15075, Note_on_c, 6, 35, 102
7, 15110, Note_on_c, 6, 35, 0
7, 15121, Note_on_c, 6, 38, 83
7, 15161, Note_on_c, 6, 38, 0
7, 15168, Note_on_c, 6, 35, 82
7, 15211, Note_on_c, 6, 35, 0
7, 15215, Note_on_c, 6, 40, 86
7, 15256, Note_on_c, 6, 40, 0
7, 15264, Note_on_c, 6, 35, 95
7, 15334, Note_on_c, 6, 35, 0
7, 15337, Note_on_c, 6, 37, 94
7, 15368, Note_on_c, 6, 37, 0
7, 15384, Note_on_c, 6, 38, 80
7, 15403, Note_on_c, 6, 38, 0
7, 15409, Note_on_c, 6, 31, 98
7, 15443, Note_on_c, 6, 31, 0
7, 15456, Note_on_c, 6, 30, 103
7, 15493, Note_on_c, 6, 30, 0
7, 15504, Note_on_c, 6, 28, 95
7, 15525, Note_on_c, 6, 28, 0
7, 15528, Note_on_c, 6, 31, 82
7, 15545, Note_on_c, 6, 31, 0
7, 15552, Note_on_c, 6, 35, 90
7, 15571, Note_on_c, 6, 35, 0
7, 15600, Note_on_c, 6, 40, 102
7, 15662, Note_on_c, 6, 40, 0
7, 15672, Note_on_c, 6, 42, 110
7, 15711, Note_on_c, 6, 42, 0
7, 15720, Note_on_c, 6, 42, 103
7, 15740, Note_on_c, 6, 42, 0
7, 15744, Note_on_c, 6, 35, 98
7, 15786, Note_on_c, 6, 35, 0
7, 15792, Note_on_c, 6, 38, 86
7, 15831, Note_on_c, 6, 38, 0
7, 15840, Note_on_c, 6, 35, 98
7, 15877, Note_on_c, 6, 35, 0
7, 15888, Note_on_c, 6, 40, 101
7, 15930, Note_on_c, 6, 40, 0
7, 15936, Note_on_c, 6, 35, 102
7, 16002, Note_on_c, 6, 35, 0
7, 16008, Note_on_c, 6, 37, 90
7, 16048, Note_on_c, 6, 37, 0
7, 16056, Note_on_c, 6, 38, 88
7, 16073, Note_on_c, 6, 38, 0
7, 16080, Note_on_c, 6, 31, 95
7, 16115, Note_on_c, 6, 31, 0
7, 16128, Note_on_c, 6, 30, 110
7, 16162, Note_on_c, 6, 30, 0
7, 16176, Note_on_c, 6, 28, 98
7, 16194, Note_on_c, 6, 28, 0
7, 16200, Note_on_c, 6, 35, 82
7, 16219, Note_on_c, 6, 35, 0
7, 16224, Note_on_c, 6, 40, 90
7, 16245, Note_on_c, 6, 40, 0
7, 16273, Note_on_c, 6, 28, 76
7, 16292, Note_on_c, 6, 40, 80
7, 16302, Note_on_c, 6, 28, 0
7, 16321, Note_on_c, 6, 52, 83
7, 16329, Note_on_c, 6, 40, 0
7, 16348, Note_on_c, 6, 28, 74
7, 16350, Note_on_c, 6, 52, 0
7, 16367, Note_on_c, 6, 40, 74
7, 16379, Note_on_c, 6, 28, 0
7, 16395, Note_on_c, 6, 52, 106
7, 16403, Note_on_c, 6, 40, 0
7, 16419, Note_on_c, 6, 52, 0
7, 16420, Note_on_c, 6, 28, 82
7, 16441, Note_on_c, 6, 40, 73
7, 16450, Note_on_c, 6, 28, 0
7, 16467, Note_on_c, 6, 52, 106
7, 16472, Note_on_c, 6, 40, 0
7, 16488, Note_on_c, 6, 28, 82
7, 16491, Note_on_c, 6, 52, 0
7, 16512, Note_on_c, 6, 40, 68
7, 16518, Note_on_c, 6, 28, 0
7, 16539, Note_on_c, 6, 52, 106
7, 16540, Note_on_c, 6, 40, 0
7, 16586, Note_on_c, 6, 52, 0
7, 16589, Note_on_c, 6, 50, 95
7, 16606, Note_on_c, 6, 50, 0
7, 16610, Note_on_c, 6, 47, 83
7, 16644, Note_on_c, 6, 47, 0
7, 16659, Note_on_c, 6, 28, 86
7, 16680, Note_on_c, 6, 40, 70
7, 16704, Note_on_c, 6, 52, 71
7, 16705, Note_on_c, 6, 28, 0
7, 16717, Note_on_c, 6, 40, 0
7, 16727, Note_on_c, 6, 52, 0
7, 16731, Note_on_c, 6, 28, 80
7, 16753, Note_on_c, 6, 38, 74
7, 16777, Note_on_c, 6, 50, 88
7, 16798, Note_on_c, 6, 38, 0
7, 16804, Note_on_c, 6, 50, 0
7, 16822, Note_on_c, 6, 28, 75
7, 16823, Note_on_c, 6, 28, 0
7, 16842, Note_on_c, 6, 28, 0
7, 16848, Note_on_c, 6, 36, 90
7, 16896, Note_on_c, 6, 36, 0
7, 16897, Note_on_c, 6, 38, 82
7, 16920, Note_on_c, 6, 38, 0
7, 16947, Note_on_c, 6, 40, 106
7, 17017, Note_on_c, 6, 40, 0
7, 17024, Note_on_c, 6, 42, 110
7, 17048, Note_on_c, 6, 42, 0
7, 17068, Note_on_c, 6, 42, 103
7, 17089, Note_on_c, 6, 35, 102
7, 17092, Note_on_c, 6, 42, 0
7, 17125, Note_on_c, 6, 35, 0
7, 17139, Note_on_c, 6, 37, 98
7, 17168, Note_on_c, 6, 37, 0
7, 17182, Note_on_c, 6, 31, 102
7, 17282, Note_on_c, 6, 31, 0
7, 17282, Note_on_c, 6, 33, 106
7, 17374, Note_on_c, 6, 33, 0
7, 17377, Note_on_c, 6, 35, 110
7, 17459, Note_on_c, 6, 35, 0
7, 17474, Note_on_c, 6, 36, 110
7, 17533, Note_on_c, 6, 36, 0
7, 17543, Note_on_c, 6, 38, 86
7, 17567, Note_on_c, 6, 38, 0
7, 17569, Note_on_c, 6, 29, 114
7, 17934, Note_on_c, 6, 29, 0
7, 19396, Note_on_c, 6, 33, 114
7, 19753, Note_on_c, 6, 57, 45
7, 19771, Note_on_c, 6, 57, 0
7, 19776, Note_on_c, 6, 57, 45
7, 20149, Note_on_c, 6, 33, 0
7, 20163, Note_on_c, 6, 33, 93
7, 20203, Note_on_c, 6, 57, 0
7, 20520, Note_on_c, 6, 57, 38
7, 20540, Note_on_c, 6, 57, 0
7, 20544, Note_on_c, 6, 57, 45
7, 20872, Note_on_c, 6, 57, 0
7, 20877, Note_on_c, 6, 33, 0
7, 20928, Note_on_c, 6, 37, 98
7, 21018, Note_on_c, 6, 37, 0
7, 21024, Note_on_c, 6, 33, 78
7, 21115, Note_on_c, 6, 33, 0
7, 21120, Note_on_c, 6, 38, 106
7, 21302, Note_on_c, 6, 38, 0
7, 21312, Note_on_c, 6, 35, 95
7, 21387, Note_on_c, 6, 35, 0
7, 21408, Note_on_c, 6, 33, 102
7, 21476, Note_on_c, 6, 33, 0
7, 21504, Note_on_c, 6, 36, 106
7, 21864, Note_on_c, 6, 31, 76
7, 21866, Note_on_c, 6, 36, 0
7, 21885, Note_on_c, 6, 31, 0
7, 21888, Note_on_c, 6, 36, 95
7, 22176, Note_on_c, 6, 48, 45
7, 22232, Note_on_c, 6, 36, 0
7, 22240, Note_on_c, 6, 48, 0
7, 22248, Note_on_c, 6, 31, 74
7, 22272, Note_on_c, 6, 36, 102
7, 22273, Note_on_c, 6, 31, 0
7, 22643, Note_on_c, 6, 36, 0
7, 22656, Note_on_c, 6, 40, 88
7, 22746, Note_on_c, 6, 40, 0
7, 22752, Note_on_c, 6, 38, 98
7, 22843, Note_on_c, 6, 38, 0
7, 22848, Note_on_c, 6, 37, 98
7, 23019, Note_on_c, 6, 37, 0
7, 23040, Note_on_c, 6, 38, 106
7, 23227, Note_on_c, 6, 38, 0
7, 23232, Note_on_c, 6, 38, 89
7, 23326, Note_on_c, 6, 38, 0
7, 23328, Note_on_c, 6, 38, 86
7, 23420, Note_on_c, 6, 38, 0
7, 23424, Note_on_c, 6, 40, 89
7, 23516, Note_on_c, 6, 40, 0
7, 23520, Note_on_c, 6, 39, 93
7, 23691, Note_on_c, 6, 39, 0
7, 23712, Note_on_c, 6, 31, 83
7, 23808, Note_on_c, 6, 39, 75
7, 23814, Note_on_c, 6, 31, 0
7, 23900, Note_on_c, 6, 39, 0
7, 23904, Note_on_c, 6, 38, 105
7, 23992, Note_on_c, 6, 38, 0
7, 24000, Note_on_c, 6, 31, 93
7, 24093, Note_on_c, 6, 31, 0
7, 24096, Note_on_c, 6, 33, 105
7, 24189, Note_on_c, 6, 33, 0
7, 24192, Note_on_c, 6, 35, 98
7, 24283, Note_on_c, 6, 35, 0
7, 24288, Note_on_c, 6, 36, 109
7, 24354, Note_on_c, 6, 36, 0
7, 24384, Note_on_c, 6, 38, 71
7, 24422, Note_on_c, 6, 38, 0
7, 24430, Note_on_c, 6, 38, 71
7, 24464, Note_on_c, 6, 38, 0
7, 24479, Note_on_c, 6, 38, 88
7, 24513, Note_on_c, 6, 38, 0
7, 24529, Note_on_c, 6, 38, 86
7, 24561, Note_on_c, 6, 38, 0
7, 24579, Note_on_c, 6, 38, 102
7, 24609, Note_on_c, 6, 38, 0
7, 24628, Note_on_c, 6, 38, 95
7, 24661, Note_on_c, 6, 38, 0
7, 24674, Note_on_c, 6, 38, 106
7, 24706, Note_on_c, 6, 38, 0
7, 24722, Note_on_c, 6, 38, 102
7, 24768, Note_on_c, 6, 38, 0
7, 24768, Note_on_c, 6, 50, 88
7, 24818, Note_on_c, 6, 50, 0
7, 24818, Note_on_c, 6, 38, 114
7, 24865, Note_on_c, 6, 38, 0
7, 24865, Note_on_c, 6, 50, 81
7, 24913, Note_on_c, 6, 50, 0
7, 24913, Note_on_c, 6, 38, 114
7, 24959, Note_on_c, 6, 38, 0
7, 24959, Note_on_c, 6, 50, 80
7, 25007, Note_on_c, 6, 50, 0
7, 25007, Note_on_c, 6, 38, 119
7, 25057, Note_on_c, 6, 38, 0
7, 25057, Note_on_c, 6, 50, 80
7, 25104, Note_on_c, 6, 50, 0
7, 25104, Note_on_c, 6, 31, 119
7, 25113, Note_on_c, 6, 31, 0
7, 25116, Note_on_c, 6, 31, 119
7, 25125, Note_on_c, 6, 31, 0
7, 25128, Note_on_c, 6, 31, 119
7, 25137, Note_on_c, 6, 31, 0
7, 25140, Note_on_c, 6, 31, 119
7, 25149, Note_on_c, 6, 31, 0
7, 25152, Note_on_c, 6, 31, 119
7, 25161, Note_on_c, 6, 31, 0
7, 25248, Note_on_c, 6, 31, 114
7, 25257, Note_on_c, 6, 31, 0
7, 25260, Note_on_c, 6, 31, 114
7, 25269, Note_on_c, 6, 31, 0
7, 25272, Note_on_c, 6, 31, 114
7, 25281, Note_on_c, 6, 31, 0
7, 25284, Note_on_c, 6, 31, 114
7, 25293, Note_on_c, 6, 31, 0
7, 25296, Note_on_c, 6, 31, 119
7, 25305, Note_on_c, 6, 31, 0
7, 25392, Note_on_c, 6, 31, 119
7, 25401, Note_on_c, 6, 31, 0
7, 25404, Note_on_c, 6, 31, 114
7, 25413, Note_on_c, 6, 31, 0
7, 25416, Note_on_c, 6, 31, 119
7, 25425, Note_on_c, 6, 31, 0
7, 25428, Note_on_c, 6, 31, 119
7, 25437, Note_on_c, 6, 31, 0
7, 25441, Note_on_c, 6, 35, 114
7, 25575, Note_on_c, 6, 35, 0
7, 25590, Note_on_c, 6, 38, 114
7, 25722, Note_on_c, 6, 38, 0
7, 25728, Note_on_c, 6, 30, 127
7, 25872, Note_on_c, 6, 30, 0
7, 25873, Note_on_c, 6, 42, 110
7, 26010, Note_on_c, 6, 42, 0
7, 26019, Note_on_c, 6, 47, 98
7, 26155, Note_on_c, 6, 47, 0
7, 26160, Note_on_c, 6, 50, 106
7, 26303, Note_on_c, 6, 50, 0
7, 26304, Note_on_c, 6, 49, 110
7, 26447, Note_on_c, 6, 49, 0
7, 26448, Note_on_c, 6, 57, 102
7, 26586, Note_on_c, 6, 57, 0
7, 26593, Note_on_c, 6, 59, 103
7, 26735, Note_on_c, 6, 59, 0
7, 26737, Note_on_c, 6, 49, 103
7, 26879, Note_on_c, 6, 49, 0
7, 26880, Note_on_c, 6, 57, 110
7, 27025, Note_on_c, 6, 57, 0
7, 27026, Note_on_c, 6, 50, 106
7, 27168, Note_on_c, 6, 50, 0
7, 27169, Note_on_c, 6, 59, 82
7, 27310, Note_on_c, 6, 59, 0
7, 27311, Note_on_c, 6, 49, 81
7, 27452, Note_on_c, 6, 49, 0
7, 27456, Note_on_c, 6, 57, 77
7, 27600, Note_on_c, 6, 57, 0
7, 27601, Note_on_c, 6, 50, 79
7, 27741, Note_on_c, 6, 50, 0
7, 27744, Note_on_c, 6, 59, 76
7, 27883, Note_on_c, 6, 59, 0
7, 27885, Note_on_c, 6, 49, 79
7, 28028, Note_on_c, 6, 49, 0
7, 28032, Note_on_c, 6, 57, 82
7, 28174, Note_on_c, 6, 57, 0
7, 28175, Note_on_c, 6, 50, 85
7, 28313, Note_on_c, 6, 50, 0
7, 28313, End_track
8, 0, Start_track
8, 0, MIDI_port, 0
8, 0, Title_t, "Synth2"
8, 0, Program_c, 7, 80
8, 0, Control_c, 7, 7, 120
8, 0, Control_c, 7, 10, 34
8, 4320, Note_on_c, 7, 62, 90
8, 4368, Note_on_c, 7, 62, 0
8, 4368, Note_on_c, 7, 67, 83
8, 4416, Note_on_c, 7, 67, 0
8, 4416, Note_on_c, 7, 65, 98
8, 4464, Note_on_c, 7, 65, 0
8, 4464, Note_on_c, 7, 69, 90
8, 4512, Note_on_c, 7, 69, 0
8, 4512, Note_on_c, 7, 67, 106
8, 4560, Note_on_c, 7, 67, 0
8, 4560, Note_on_c, 7, 71, 86
8, 4584, Note_on_c, 7, 71, 0
8, 4584, Note_on_c, 7, 74, 74
8, 4608, Note_on_c, 7, 74, 0
8, 4608, Note_on_c, 7, 72, 90
8, 4632, Note_on_c, 7, 72, 0
8, 4632, Note_on_c, 7, 71, 83
8, 4656, Note_on_c, 7, 71, 0
8, 4656, Note_on_c, 7, 69, 88
8, 4680, Note_on_c, 7, 69, 0
8, 4680, Note_on_c, 7, 67, 86
8, 4704, Note_on_c, 7, 67, 0
8, 4704, Note_on_c, 7, 67, 83
8, 5082, Note_on_c, 7, 67, 0
8, 7344, Note_on_c, 7, 62, 90
8, 7392, Note_on_c, 7, 62, 0
8, 7392, Note_on_c, 7, 67, 83
8, 7440, Note_on_c, 7, 67, 0
8, 7440, Note_on_c, 7, 65, 98
8, 7488, Note_on_c, 7, 65, 0
8, 7488, Note_on_c, 7, 69, 90
8, 7536, Note_on_c, 7, 69, 0
8, 7536, Note_on_c, 7, 67, 106
8, 7584, Note_on_c, 7, 67, 0
8, 7584, Note_on_c, 7, 71, 86
8, 7608, Note_on_c, 7, 71, 0
8, 7608, Note_on_c, 7, 74, 74
8, 7632, Note_on_c, 7, 74, 0
8, 7632, Note_on_c, 7, 72, 90
8, 7656, Note_on_c, 7, 72, 0
8, 7656, Note_on_c, 7, 71, 83
8, 7680, Note_on_c, 7, 71, 0
8, 7680, Note_on_c, 7, 69, 88
8, 7704, Note_on_c, 7, 69, 0
8, 7704, Note_on_c, 7, 67, 86
8, 7728, Note_on_c, 7, 67, 0
8, 7728, Note_on_c, 7, 67, 83
8, 8106, Note_on_c, 7, 67, 0
8, 14162, Note_on_c, 7, 62, 80
8, 14208, Note_on_c, 7, 62, 0
8, 14208, Note_on_c, 7, 67, 82
8, 14256, Note_on_c, 7, 67, 0
8, 14256, Note_on_c, 7, 65, 110
8, 14304, Note_on_c, 7, 65, 0
8, 14304, Note_on_c, 7, 69, 98
8, 14352, Note_on_c, 7, 69, 0
8, 14352, Note_on_c, 7, 67, 106
8, 14400, Note_on_c, 7, 67, 0
8, 14400, Note_on_c, 7, 71, 88
8, 14424, Note_on_c, 7, 71, 0
8, 14424, Note_on_c, 7, 74, 93
8, 14448, Note_on_c, 7, 74, 0
8, 14448, Note_on_c, 7, 72, 73
8, 14472, Note_on_c, 7, 72, 0
8, 14472, Note_on_c, 7, 71, 98
8, 14496, Note_on_c, 7, 71, 0
8, 14496, Note_on_c, 7, 69, 86
8, 14520, Note_on_c, 7, 69, 0
8, 14520, Note_on_c, 7, 67, 90
8, 14544, Note_on_c, 7, 67, 0
8, 14544, Note_on_c, 7, 67, 86
8, 14901, Note_on_c, 7, 67, 0
8, 17184, Note_on_c, 7, 62, 90
8, 17232, Note_on_c, 7, 62, 0
8, 17232, Note_on_c, 7, 67, 83
8, 17280, Note_on_c, 7, 67, 0
8, 17280, Note_on_c, 7, 65, 98
8, 17328, Note_on_c, 7, 65, 0
8, 17328, Note_on_c, 7, 69, 90
8, 17376, Note_on_c, 7, 69, 0
8, 17376, Note_on_c, 7, 67, 106
8, 17424, Note_on_c, 7, 67, 0
8, 17424, Note_on_c, 7, 71, 86
8, 17448, Note_on_c, 7, 71, 0
8, 17448, Note_on_c, 7, 74, 74
8, 17472, Note_on_c, 7, 74, 0
8, 17472, Note_on_c, 7, 72, 90
8, 17496, Note_on_c, 7, 72, 0
8, 17496, Note_on_c, 7, 71, 83
8, 17520, Note_on_c, 7, 71, 0
8, 17520, Note_on_c, 7, 69, 88
8, 17544, Note_on_c, 7, 69, 0
8, 17544, Note_on_c, 7, 67, 86
8, 17568, Note_on_c, 7, 67, 0
8, 17568, Note_on_c, 7, 67, 83
8, 17946, Note_on_c, 7, 67, 0
8, 24002, Note_on_c, 7, 62, 80
8, 24048, Note_on_c, 7, 62, 0
8, 24048, Note_on_c, 7, 67, 82
8, 24096, Note_on_c, 7, 67, 0
8, 24096, Note_on_c, 7, 65, 110
8, 24144, Note_on_c, 7, 65, 0
8, 24144, Note_on_c, 7, 69, 98
8, 24192, Note_on_c, 7, 69, 0
8, 24192, Note_on_c, 7, 67, 106
8, 24240, Note_on_c, 7, 67, 0
8, 24240, Note_on_c, 7, 71, 88
8, 24264, Note_on_c, 7, 71, 0
8, 24264, Note_on_c, 7, 74, 93
8, 24288, Note_on_c, 7, 74, 0
8, 24288, Note_on_c, 7, 72, 73
8, 24312, Note_on_c, 7, 72, 0
8, 24312, Note_on_c, 7, 71, 98
8, 24336, Note_on_c, 7, 71, 0
8, 24336, Note_on_c, 7, 69, 86
8, 24360, Note_on_c, 7, 69, 0
8, 24360, Note_on_c, 7, 67, 90
8, 24384, Note_on_c, 7, 67, 0
8, 24384, Note_on_c, 7, 60, 94
8, 24456, Note_on_c, 7, 60, 0
8, 24456, Note_on_c, 7, 57, 101
8, 24528, Note_on_c, 7, 57, 0
8, 24528, Note_on_c, 7, 64, 94
8, 24600, Note_on_c, 7, 64, 0
8, 24600, Note_on_c, 7, 60, 94
8, 24672, Note_on_c, 7, 60, 0
8, 24672, Note_on_c, 7, 67, 89
8, 24791, Note_on_c, 7, 67, 0
8, 24791, Note_on_c, 7, 64, 94
8, 24864, Note_on_c, 7, 64, 0
8, 24864, Note_on_c, 7, 71, 89
8, 24935, Note_on_c, 7, 71, 0
8, 24935, Note_on_c, 7, 67, 94
8, 25008, Note_on_c, 7, 67, 0
8, 25008, Note_on_c, 7, 74, 101
8, 25056, Note_on_c, 7, 74, 0
8, 25056, Note_on_c, 7, 71, 89
8, 25104, Note_on_c, 7, 71, 0
8, 25104, Note_on_c, 7, 69, 100
8, 25152, Note_on_c, 7, 69, 0
8, 25152, Note_on_c, 7, 62, 83
8, 25176, Note_on_c, 7, 62, 0
8, 25176, Note_on_c, 7, 64, 82
8, 25200, Note_on_c, 7, 64, 0
8, 25200, Note_on_c, 7, 65, 85
8, 25248, Note_on_c, 7, 65, 0
8, 25248, Note_on_c, 7, 69, 95
8, 25296, Note_on_c, 7, 69, 0
8, 25296, Note_on_c, 7, 62, 84
8, 25320, Note_on_c, 7, 62, 0
8, 25320, Note_on_c, 7, 64, 81
8, 25344, Note_on_c, 7, 64, 0
8, 25344, Note_on_c, 7, 65, 85
8, 25392, Note_on_c, 7, 65, 0
8, 25392, Note_on_c, 7, 69, 81
8, 25440, Note_on_c, 7, 69, 0
8, 25440, Note_on_c, 7, 66, 86
8, 25489, Note_on_c, 7, 66, 0
8, 25489, Note_on_c, 7, 74, 87
8, 25511, Control_c, 7, 7, 127
8, 25735, Control_c, 7, 7, 126
8, 25738, Control_c, 7, 7, 125
8, 25740, Control_c, 7, 7, 124
8, 25741, Control_c, 7, 7, 123
8, 25744, Control_c, 7, 7, 122
8, 25749, Control_c, 7, 7, 121
8, 25755, Control_c, 7, 7, 120
8, 25761, Control_c, 7, 7, 119
8, 25768, Control_c, 7, 7, 118
8, 25774, Control_c, 7, 7, 117
8, 25778, Control_c, 7, 7, 116
8, 25780, Control_c, 7, 7, 115
8, 25784, Control_c, 7, 7, 114
8, 25787, Control_c, 7, 7, 113
8, 25794, Control_c, 7, 7, 112
8, 25805, Control_c, 7, 7, 111
8, 25814, Control_c, 7, 7, 110
8, 25817, Control_c, 7, 7, 109
8, 25819, Control_c, 7, 7, 108
8, 25821, Control_c, 7, 7, 107
8, 25824, Control_c, 7, 7, 106
8, 25826, Control_c, 7, 7, 105
8, 25828, Control_c, 7, 7, 104
8, 25830, Control_c, 7, 7, 103
8, 25831, Control_c, 7, 7, 102
8, 25833, Control_c, 7, 7, 100
8, 25834, Control_c, 7, 7, 99
8, 25836, Control_c, 7, 7, 98
8, 25837, Control_c, 7, 7, 97
8, 25838, Control_c, 7, 7, 96
8, 25839, Control_c, 7, 7, 95
8, 25840, Control_c, 7, 7, 94
8, 25842, Control_c, 7, 7, 93
8, 25844, Control_c, 7, 7, 92
8, 25845, Control_c, 7, 7, 91
8, 25846, Control_c, 7, 7, 90
8, 25848, Control_c, 7, 7, 89
8, 25849, Control_c, 7, 7, 88
8, 25850, Control_c, 7, 7, 87
8, 25851, Control_c, 7, 7, 86
8, 25853, Control_c, 7, 7, 84
8, 25855, Control_c, 7, 7, 83
8, 25857, Control_c, 7, 7, 82
8, 25859, Control_c, 7, 7, 81
8, 25860, Control_c, 7, 7, 80
8, 25861, Control_c, 7, 7, 79
8, 25863, Control_c, 7, 7, 78
8, 25864, Control_c, 7, 7, 77
8, 25866, Control_c, 7, 7, 76
8, 25867, Control_c, 7, 7, 75
8, 25868, Control_c, 7, 7, 74
8, 25870, Control_c, 7, 7, 73
8, 25871, Control_c, 7, 7, 72
8, 25873, Control_c, 7, 7, 71
8, 25876, Control_c, 7, 7, 70
8, 25879, Control_c, 7, 7, 69
8, 25881, Control_c, 7, 7, 68
8, 25883, Control_c, 7, 7, 67
8, 25899, Control_c, 7, 7, 66
8, 25905, Control_c, 7, 7, 65
8, 25908, Control_c, 7, 7, 64
8, 25910, Control_c, 7, 7, 63
8, 25912, Control_c, 7, 7, 62
8, 25914, Control_c, 7, 7, 61
8, 25917, Control_c, 7, 7, 60
8, 25919, Control_c, 7, 7, 59
8, 25920, Control_c, 7, 7, 58
8, 25921, Control_c, 7, 7, 56
8, 25923, Control_c, 7, 7, 55
8, 25925, Control_c, 7, 7, 54
8, 25929, Control_c, 7, 7, 53
8, 25936, Control_c, 7, 7, 52
8, 25939, Control_c, 7, 7, 51
8, 25944, Control_c, 7, 7, 50
8, 25946, Control_c, 7, 7, 49
8, 25950, Control_c, 7, 7, 48
8, 25953, Control_c, 7, 7, 47
8, 25954, Control_c, 7, 7, 46
8, 25956, Control_c, 7, 7, 45
8, 25958, Control_c, 7, 7, 44
8, 25960, Control_c, 7, 7, 43
8, 25962, Control_c, 7, 7, 42
8, 25964, Control_c, 7, 7, 41
8, 25965, Control_c, 7, 7, 40
8, 25967, Control_c, 7, 7, 38
8, 25969, Control_c, 7, 7, 37
8, 25970, Control_c, 7, 7, 36
8, 25972, Control_c, 7, 7, 34
8, 25973, Control_c, 7, 7, 33
8, 25974, Control_c, 7, 7, 32
8, 25975, Control_c, 7, 7, 31
8, 25976, Control_c, 7, 7, 29
8, 25977, Control_c, 7, 7, 28
8, 25979, Control_c, 7, 7, 26
8, 25981, Control_c, 7, 7, 25
8, 25983, Control_c, 7, 7, 24
8, 25986, Control_c, 7, 7, 23
8, 25991, Control_c, 7, 7, 22
8, 25994, Control_c, 7, 7, 21
8, 25996, Control_c, 7, 7, 20
8, 26002, Control_c, 7, 7, 19
8, 26004, Control_c, 7, 7, 18
8, 26008, Control_c, 7, 7, 17
8, 26010, Control_c, 7, 7, 16
8, 26013, Control_c, 7, 7, 15
8, 26015, Control_c, 7, 7, 14
8, 26018, Control_c, 7, 7, 13
8, 26020, Control_c, 7, 7, 12
8, 26022, Control_c, 7, 7, 11
8, 26023, Control_c, 7, 7, 10
8, 26026, Control_c, 7, 7, 9
8, 26028, Control_c, 7, 7, 7
8, 26030, Control_c, 7, 7, 6
8, 26032, Control_c, 7, 7, 5
8, 26034, Control_c, 7, 7, 4
8, 26035, Control_c, 7, 7, 3
8, 26037, Control_c, 7, 7, 2
8, 26039, Control_c, 7, 7, 1
8, 26040, Control_c, 7, 7, 0
8, 26189, Note_on_c, 7, 74, 0
8, 26328, Control_c, 7, 7, 127
8, 26328, End_track
9, 0, Start_track
9, 0, MIDI_port, 0
9, 0, Title_t, "Drums"
9, 0, Program_c, 9, 0
9, 0, Control_c, 9, 7, 100
9, 0, Control_c, 9, 10, 64
9, 1344, Note_on_c, 9, 42, 96
9, 1368, Note_on_c, 9, 42, 0
9, 1392, Note_on_c, 9, 42, 64
9, 1416, Note_on_c, 9, 42, 0
9, 1440, Note_on_c, 9, 42, 96
9, 1464, Note_on_c, 9, 42, 0
9, 1488, Note_on_c, 9, 42, 64
9, 1512, Note_on_c, 9, 42, 0
9, 1536, Note_on_c, 9, 36, 84
9, 1536, Note_on_c, 9, 49, 100
9, 1548, Note_on_c, 9, 36, 0
9, 1548, Note_on_c, 9, 38, 52
9, 1554, Note_on_c, 9, 38, 0
9, 1560, Note_on_c, 9, 49, 0
9, 1560, Note_on_c, 9, 38, 100
9, 1566, Note_on_c, 9, 38, 0
9, 1572, Note_on_c, 9, 38, 100
9, 1578, Note_on_c, 9, 38, 0
9, 1584, Note_on_c, 9, 38, 115
9, 1590, Note_on_c, 9, 38, 0
9, 1596, Note_on_c, 9, 38, 68
9, 1602, Note_on_c, 9, 38, 0
9, 1608, Note_on_c, 9, 38, 100
9, 1614, Note_on_c, 9, 38, 0
9, 1620, Note_on_c, 9, 38, 68
9, 1626, Note_on_c, 9, 38, 0
9, 1632, Note_on_c, 9, 36, 84
9, 1632, Note_on_c, 9, 47, 84
9, 1638, Note_on_c, 9, 47, 0
9, 1644, Note_on_c, 9, 36, 0
9, 1644, Note_on_c, 9, 38, 84
9, 1650, Note_on_c, 9, 38, 0
9, 1656, Note_on_c, 9, 38, 100
9, 1662, Note_on_c, 9, 38, 0
9, 1668, Note_on_c, 9, 38, 100
9, 1674, Note_on_c, 9, 38, 0
9, 1680, Note_on_c, 9, 38, 115
9, 1686, Note_on_c, 9, 38, 0
9, 1692, Note_on_c, 9, 38, 68
9, 1698, Note_on_c, 9, 38, 0
9, 1704, Note_on_c, 9, 38, 100
9, 1710, Note_on_c, 9, 38, 0
9, 1716, Note_on_c, 9, 38, 68
9, 1722, Note_on_c, 9, 38, 0
9, 1728, Note_on_c, 9, 36, 84
9, 1728, Note_on_c, 9, 49, 84
9, 1740, Note_on_c, 9, 36, 0
9, 1752, Note_on_c, 9, 49, 0
9, 1752, Note_on_c, 9, 38, 68
9, 1758, Note_on_c, 9, 38, 0
9, 1764, Note_on_c, 9, 38, 84
9, 1770, Note_on_c, 9, 38, 0
9, 1776, Note_on_c, 9, 38, 100
9, 1782, Note_on_c, 9, 38, 0
9, 1788, Note_on_c, 9, 38, 115
9, 1794, Note_on_c, 9, 38, 0
9, 1800, Note_on_c, 9, 36, 84
9, 1800, Note_on_c, 9, 38, 68
9, 1800, Note_on_c, 9, 46, 100
9, 1806, Note_on_c, 9, 38, 0
9, 1812, Note_on_c, 9, 46, 0
9, 1812, Note_on_c, 9, 36, 0
9, 1824, Note_on_c, 9, 42, 100
9, 1836, Note_on_c, 9, 42, 0
9, 1836, Note_on_c, 9, 38, 68
9, 1842, Note_on_c, 9, 38, 0
9, 1848, Note_on_c, 9, 38, 68
9, 1854, Note_on_c, 9, 38, 0
9, 1860, Note_on_c, 9, 38, 68
9, 1866, Note_on_c, 9, 38, 0
9, 1872, Note_on_c, 9, 50, 115
9, 1878, Note_on_c, 9, 50, 0
9, 1884, Note_on_c, 9, 38, 68
9, 1890, Note_on_c, 9, 38, 0
9, 1896, Note_on_c, 9, 38, 84
9, 1902, Note_on_c, 9, 38, 0
9, 1908, Note_on_c, 9, 38, 84
9, 1914, Note_on_c, 9, 38, 0
9, 1920, Note_on_c, 9, 38, 115
9, 1926, Note_on_c, 9, 38, 0
9, 1944, Note_on_c, 9, 47, 84
9, 1950, Note_on_c, 9, 47, 0
9, 1956, Note_on_c, 9, 47, 84
9, 1962, Note_on_c, 9, 47, 0
9, 1968, Note_on_c, 9, 47, 115
9, 1974, Note_on_c, 9, 47, 0
9, 1992, Note_on_c, 9, 47, 100
9, 1998, Note_on_c, 9, 47, 0
9, 2016, Note_on_c, 9, 43, 100
9, 2022, Note_on_c, 9, 43, 0
9, 2028, Note_on_c, 9, 43, 84
9, 2034, Note_on_c, 9, 43, 0
9, 2040, Note_on_c, 9, 43, 100
9, 2046, Note_on_c, 9, 43, 0
9, 2052, Note_on_c, 9, 43, 84
9, 2058, Note_on_c, 9, 43, 0
9, 2064, Note_on_c, 9, 36, 112
9, 2064, Note_on_c, 9, 49, 112
9, 2076, Note_on_c, 9, 49, 0
9, 2088, Note_on_c, 9, 36, 0
9, 2112, Note_on_c, 9, 42, 96
9, 2136, Note_on_c, 9, 42, 0
9, 2136, Note_on_c, 9, 38, 96
9, 2148, Note_on_c, 9, 38, 0
9, 2160, Note_on_c, 9, 36, 96
9, 2160, Note_on_c, 9, 42, 96
9, 2184, Note_on_c, 9, 42, 0
9, 2184, Note_on_c, 9, 36, 0
9, 2208, Note_on_c, 9, 38, 96
9, 2208, Note_on_c, 9, 42, 96
9, 2220, Note_on_c, 9, 38, 0
9, 2232, Note_on_c, 9, 42, 0
9, 2256, Note_on_c, 9, 42, 96
9, 2280, Note_on_c, 9, 42, 0
9, 2304, Note_on_c, 9, 38, 96
9, 2304, Note_on_c, 9, 46, 96
9, 2316, Note_on_c, 9, 38, 0
9, 2328, Note_on_c, 9, 46, 0
9, 2352, Note_on_c, 9, 36, 96
9, 2352, Note_on_c, 9, 42, 96
9, 2376, Note_on_c, 9, 42, 0
9, 2376, Note_on_c, 9, 36, 0
9, 2400, Note_on_c, 9, 42, 96
9, 2424, Note_on_c, 9, 42, 0
9, 2448, Note_on_c, 9, 42, 96
9, 2472, Note_on_c, 9, 42, 0
9, 2496, Note_on_c, 9, 38, 96
9, 2496, Note_on_c, 9, 42, 96
9, 2508, Note_on_c, 9, 38, 0
9, 2520, Note_on_c, 9, 42, 0
9, 2544, Note_on_c, 9, 36, 96
9, 2544, Note_on_c, 9, 42, 96
9, 2568, Note_on_c, 9, 42, 0
9, 2568, Note_on_c, 9, 36, 0
9, 2592, Note_on_c, 9, 42, 96
9, 2616, Note_on_c, 9, 42, 0
9, 2640, Note_on_c, 9, 36, 96
9, 2640, Note_on_c, 9, 42, 96
9, 2664, Note_on_c, 9, 42, 0
9, 2664, Note_on_c, 9, 36, 0
9, 2688, Note_on_c, 9, 42, 96
9, 2712, Note_on_c, 9, 42, 0
9, 2712, Note_on_c, 9, 38, 96
9, 2712, Note_on_c, 9, 46, 96
9, 2724, Note_on_c, 9, 46, 0
9, 2724, Note_on_c, 9, 38, 0
9, 2736, Note_on_c, 9, 36, 96
9, 2736, Note_on_c, 9, 42, 96
9, 2760, Note_on_c, 9, 42, 0
9, 2760, Note_on_c, 9, 36, 0
9, 2784, Note_on_c, 9, 42, 96
9, 2808, Note_on_c, 9, 42, 0
9, 2808, Note_on_c, 9, 38, 96
9, 2820, Note_on_c, 9, 38, 0
9, 2832, Note_on_c, 9, 36, 96
9, 2832, Note_on_c, 9, 42, 96
9, 2856, Note_on_c, 9, 42, 0
9, 2856, Note_on_c, 9, 36, 0
9, 2880, Note_on_c, 9, 38, 96
9, 2880, Note_on_c, 9, 42, 96
9, 2892, Note_on_c, 9, 38, 0
9, 2904, Note_on_c, 9, 42, 0
9, 2928, Note_on_c, 9, 42, 96
9, 2952, Note_on_c, 9, 42, 0
9, 2976, Note_on_c, 9, 38, 96
9, 2976, Note_on_c, 9, 46, 96
9, 2988, Note_on_c, 9, 38, 0
9, 3000, Note_on_c, 9, 46, 0
9, 3024, Note_on_c, 9, 38, 96
9, 3024, Note_on_c, 9, 42, 96
9, 3036, Note_on_c, 9, 38, 0
9, 3048, Note_on_c, 9, 42, 0
9, 3048, Note_on_c, 9, 38, 96
9, 3060, Note_on_c, 9, 38, 0
9, 3072, Note_on_c, 9, 36, 96
9, 3072, Note_on_c, 9, 42, 96
9, 3096, Note_on_c, 9, 42, 0
9, 3096, Note_on_c, 9, 36, 0
9, 3120, Note_on_c, 9, 42, 96
9, 3144, Note_on_c, 9, 42, 0
9, 3168, Note_on_c, 9, 38, 96
9, 3168, Note_on_c, 9, 42, 96
9, 3180, Note_on_c, 9, 38, 0
9, 3192, Note_on_c, 9, 42, 0
9, 3216, Note_on_c, 9, 36, 96
9, 3216, Note_on_c, 9, 42, 96
9, 3240, Note_on_c, 9, 42, 0
9, 3240, Note_on_c, 9, 36, 0
9, 3264, Note_on_c, 9, 42, 96
9, 3288, Note_on_c, 9, 42, 0
9, 3312, Note_on_c, 9, 36, 96
9, 3312, Note_on_c, 9, 42, 96
9, 3336, Note_on_c, 9, 42, 0
9, 3336, Note_on_c, 9, 36, 0
9, 3360, Note_on_c, 9, 42, 96
9, 3384, Note_on_c, 9, 42, 0
9, 3384, Note_on_c, 9, 38, 96
9, 3384, Note_on_c, 9, 46, 96
9, 3396, Note_on_c, 9, 46, 0
9, 3396, Note_on_c, 9, 38, 0
9, 3408, Note_on_c, 9, 36, 96
9, 3408, Note_on_c, 9, 42, 96
9, 3408, Note_on_c, 9, 54, 80
9, 3414, Note_on_c, 9, 54, 0
9, 3420, Note_on_c, 9, 36, 0
9, 3420, Note_on_c, 9, 54, 48
9, 3426, Note_on_c, 9, 54, 0
9, 3432, Note_on_c, 9, 42, 0
9, 3432, Note_on_c, 9, 36, 96
9, 3432, Note_on_c, 9, 54, 48
9, 3438, Note_on_c, 9, 54, 0
9, 3444, Note_on_c, 9, 36, 0
9, 3444, Note_on_c, 9, 54, 48
9, 3450, Note_on_c, 9, 54, 0
9, 3456, Note_on_c, 9, 42, 96
9, 3456, Note_on_c, 9, 54, 80
9, 3462, Note_on_c, 9, 54, 0
9, 3468, Note_on_c, 9, 54, 48
9, 3474, Note_on_c, 9, 54, 0
9, 3480, Note_on_c, 9, 42, 0
9, 3480, Note_on_c, 9, 36, 96
9, 3480, Note_on_c, 9, 54, 48
9, 3486, Note_on_c, 9, 54, 0
9, 3492, Note_on_c, 9, 36, 0
9, 3492, Note_on_c, 9, 54, 48
9, 3498, Note_on_c, 9, 54, 0
9, 3504, Note_on_c, 9, 38, 96
9, 3504, Note_on_c, 9, 42, 96
9, 3504, Note_on_c, 9, 54, 80
9, 3510, Note_on_c, 9, 54, 0
9, 3516, Note_on_c, 9, 54, 48
9, 3522, Note_on_c, 9, 54, 0
9, 3528, Note_on_c, 9, 42, 0
9, 3528, Note_on_c, 9, 54, 48
9, 3534, Note_on_c, 9, 54, 0
9, 3540, Note_on_c, 9, 54, 48
9, 3546, Note_on_c, 9, 54, 0
9, 3552, Note_on_c, 9, 38, 0
9, 3552, Note_on_c, 9, 36, 96
9, 3552, Note_on_c, 9, 42, 96
9, 3552, Note_on_c, 9, 54, 80
9, 3558, Note_on_c, 9, 54, 0
9, 3564, Note_on_c, 9, 36, 0
9, 3564, Note_on_c, 9, 54, 48
9, 3570, Note_on_c, 9, 54, 0
9, 3576, Note_on_c, 9, 42, 0
9, 3576, Note_on_c, 9, 54, 48
9, 3582, Note_on_c, 9, 54, 0
9, 3588, Note_on_c, 9, 54, 48
9, 3594, Note_on_c, 9, 54, 0
9, 3600, Note_on_c, 9, 36, 96
9, 3600, Note_on_c, 9, 42, 96
9, 3600, Note_on_c, 9, 54, 80
9, 3606, Note_on_c, 9, 54, 0
9, 3612, Note_on_c, 9, 36, 0
9, 3612, Note_on_c, 9, 54, 48
9, 3618, Note_on_c, 9, 54, 0
9, 3624, Note_on_c, 9, 42, 0
9, 3624, Note_on_c, 9, 36, 96
9, 3624, Note_on_c, 9, 54, 48
9, 3630, Note_on_c, 9, 54, 0
9, 3636, Note_on_c, 9, 36, 0
9, 3636, Note_on_c, 9, 54, 48
9, 3642, Note_on_c, 9, 54, 0
9, 3648, Note_on_c, 9, 42, 96
9, 3648, Note_on_c, 9, 54, 80
9, 3654, Note_on_c, 9, 54, 0
9, 3660, Note_on_c, 9, 54, 48
9, 3666, Note_on_c, 9, 54, 0
9, 3672, Note_on_c, 9, 42, 0
9, 3672, Note_on_c, 9, 36, 96
9, 3672, Note_on_c, 9, 54, 48
9, 3678, Note_on_c, 9, 54, 0
9, 3684, Note_on_c, 9, 36, 0
9, 3684, Note_on_c, 9, 54, 48
9, 3690, Note_on_c, 9, 54, 0
9, 3696, Note_on_c, 9, 38, 96
9, 3696, Note_on_c, 9, 42, 96
9, 3696, Note_on_c, 9, 54, 80
9, 3702, Note_on_c, 9, 54, 0
9, 3708, Note_on_c, 9, 54, 48
9, 3714, Note_on_c, 9, 54, 0
9, 3720, Note_on_c, 9, 42, 0
9, 3720, Note_on_c, 9, 54, 48
9, 3726, Note_on_c, 9, 54, 0
9, 3732, Note_on_c, 9, 54, 48
9, 3738, Note_on_c, 9, 54, 0
9, 3744, Note_on_c, 9, 38, 0
9, 3744, Note_on_c, 9, 46, 96
9, 3744, Note_on_c, 9, 54, 80
9, 3750, Note_on_c, 9, 54, 0
9, 3756, Note_on_c, 9, 54, 48
9, 3762, Note_on_c, 9, 54, 0
9, 3768, Note_on_c, 9, 46, 0
9, 3768, Note_on_c, 9, 54, 48
9, 3774, Note_on_c, 9, 54, 0
9, 3780, Note_on_c, 9, 54, 48
9, 3786, Note_on_c, 9, 54, 0
9, 3792, Note_on_c, 9, 36, 96
9, 3792, Note_on_c, 9, 42, 96
9, 3792, Note_on_c, 9, 54, 80
9, 3798, Note_on_c, 9, 54, 0
9, 3804, Note_on_c, 9, 36, 0
9, 3804, Note_on_c, 9, 54, 48
9, 3810, Note_on_c, 9, 54, 0
9, 3816, Note_on_c, 9, 42, 0
9, 3816, Note_on_c, 9, 36, 96
9, 3816, Note_on_c, 9, 54, 48
9, 3822, Note_on_c, 9, 54, 0
9, 3828, Note_on_c, 9, 36, 0
9, 3828, Note_on_c, 9, 54, 48
9, 3834, Note_on_c, 9, 54, 0
9, 3840, Note_on_c, 9, 42, 96
9, 3840, Note_on_c, 9, 54, 80
9, 3846, Note_on_c, 9, 54, 0
9, 3852, Note_on_c, 9, 54, 48
9, 3858, Note_on_c, 9, 54, 0
9, 3864, Note_on_c, 9, 42, 0
9, 3864, Note_on_c, 9, 36, 96
9, 3864, Note_on_c, 9, 54, 48
9, 3870, Note_on_c, 9, 54, 0
9, 3876, Note_on_c, 9, 36, 0
9, 3876, Note_on_c, 9, 54, 48
9, 3882, Note_on_c, 9, 54, 0
9, 3888, Note_on_c, 9, 38, 96
9, 3888, Note_on_c, 9, 42, 96
9, 3888, Note_on_c, 9, 54, 80
9, 3894, Note_on_c, 9, 54, 0
9, 3900, Note_on_c, 9, 54, 48
9, 3906, Note_on_c, 9, 54, 0
9, 3912, Note_on_c, 9, 42, 0
9, 3912, Note_on_c, 9, 38, 0
9, 3912, Note_on_c, 9, 54, 48
9, 3918, Note_on_c, 9, 54, 0
9, 3924, Note_on_c, 9, 54, 48
9, 3930, Note_on_c, 9, 54, 0
9, 3936, Note_on_c, 9, 42, 96
9, 3936, Note_on_c, 9, 54, 80
9, 3942, Note_on_c, 9, 54, 0
9, 3948, Note_on_c, 9, 54, 48
9, 3954, Note_on_c, 9, 54, 0
9, 3960, Note_on_c, 9, 42, 0
9, 3960, Note_on_c, 9, 36, 80
9, 3960, Note_on_c, 9, 54, 48
9, 3966, Note_on_c, 9, 54, 0
9, 3972, Note_on_c, 9, 36, 0
9, 3972, Note_on_c, 9, 54, 48
9, 3978, Note_on_c, 9, 54, 0
9, 3984, Note_on_c, 9, 36, 96
9, 3984, Note_on_c, 9, 42, 96
9, 3984, Note_on_c, 9, 54, 80
9, 3990, Note_on_c, 9, 54, 0
9, 3996, Note_on_c, 9, 36, 0
9, 3996, Note_on_c, 9, 54, 48
9, 4002, Note_on_c, 9, 54, 0
9, 4008, Note_on_c, 9, 42, 0
9, 4008, Note_on_c, 9, 54, 48
9, 4014, Note_on_c, 9, 54, 0
9, 4020, Note_on_c, 9, 54, 48
9, 4026, Note_on_c, 9, 54, 0
9, 4032, Note_on_c, 9, 36, 96
9, 4032, Note_on_c, 9, 42, 96
9, 4032, Note_on_c, 9, 54, 80
9, 4038, Note_on_c, 9, 54, 0
9, 4044, Note_on_c, 9, 36, 0
9, 4044, Note_on_c, 9, 54, 48
9, 4050, Note_on_c, 9, 54, 0
9, 4056, Note_on_c, 9, 42, 0
9, 4056, Note_on_c, 9, 54, 48
9, 4062, Note_on_c, 9, 54, 0
9, 4068, Note_on_c, 9, 54, 48
9, 4074, Note_on_c, 9, 54, 0
9, 4080, Note_on_c, 9, 38, 96
9, 4080, Note_on_c, 9, 46, 96
9, 4080, Note_on_c, 9, 54, 80
9, 4086, Note_on_c, 9, 54, 0
9, 4092, Note_on_c, 9, 54, 48
9, 4098, Note_on_c, 9, 54, 0
9, 4104, Note_on_c, 9, 46, 0
9, 4104, Note_on_c, 9, 38, 0
9, 4104, Note_on_c, 9, 54, 48
9, 4110, Note_on_c, 9, 54, 0
9, 4116, Note_on_c, 9, 54, 48
9, 4122, Note_on_c, 9, 54, 0
9, 4128, Note_on_c, 9, 36, 96
9, 4128, Note_on_c, 9, 38, 96
9, 4128, Note_on_c, 9, 46, 96
9, 4128, Note_on_c, 9, 54, 80
9, 4134, Note_on_c, 9, 54, 0
9, 4140, Note_on_c, 9, 36, 0
9, 4140, Note_on_c, 9, 54, 48
9, 4146, Note_on_c, 9, 54, 0
9, 4152, Note_on_c, 9, 46, 0
9, 4152, Note_on_c, 9, 38, 0
9, 4152, Note_on_c, 9, 54, 48
9, 4158, Note_on_c, 9, 54, 0
9, 4164, Note_on_c, 9, 54, 48
9, 4170, Note_on_c, 9, 54, 0
9, 4176, Note_on_c, 9, 36, 96
9, 4176, Note_on_c, 9, 42, 96
9, 4176, Note_on_c, 9, 54, 80
9, 4182, Note_on_c, 9, 54, 0
9, 4188, Note_on_c, 9, 36, 0
9, 4188, Note_on_c, 9, 54, 48
9, 4194, Note_on_c, 9, 54, 0
9, 4200, Note_on_c, 9, 42, 0
9, 4200, Note_on_c, 9, 36, 96
9, 4200, Note_on_c, 9, 54, 48
9, 4206, Note_on_c, 9, 54, 0
9, 4212, Note_on_c, 9, 36, 0
9, 4212, Note_on_c, 9, 54, 48
9, 4218, Note_on_c, 9, 54, 0
9, 4224, Note_on_c, 9, 38, 96
9, 4224, Note_on_c, 9, 42, 96
9, 4224, Note_on_c, 9, 54, 80
9, 4230, Note_on_c, 9, 54, 0
9, 4236, Note_on_c, 9, 54, 48
9, 4242, Note_on_c, 9, 54, 0
9, 4248, Note_on_c, 9, 42, 0
9, 4248, Note_on_c, 9, 38, 0
9, 4248, Note_on_c, 9, 54, 48
9, 4254, Note_on_c, 9, 54, 0
9, 4260, Note_on_c, 9, 54, 48
9, 4266, Note_on_c, 9, 54, 0
9, 4272, Note_on_c, 9, 36, 96
9, 4272, Note_on_c, 9, 42, 96
9, 4272, Note_on_c, 9, 54, 80
9, 4278, Note_on_c, 9, 54, 0
9, 4284, Note_on_c, 9, 36, 0
9, 4284, Note_on_c, 9, 54, 48
9, 4290, Note_on_c, 9, 54, 0
9, 4296, Note_on_c, 9, 42, 0
9, 4296, Note_on_c, 9, 54, 48
9, 4302, Note_on_c, 9, 54, 0
9, 4308, Note_on_c, 9, 54, 48
9, 4314, Note_on_c, 9, 54, 0
9, 4320, Note_on_c, 9, 38, 96
9, 4320, Note_on_c, 9, 46, 96
9, 4320, Note_on_c, 9, 54, 80
9, 4326, Note_on_c, 9, 54, 0
9, 4332, Note_on_c, 9, 46, 0
9, 4332, Note_on_c, 9, 54, 48
9, 4338, Note_on_c, 9, 54, 0
9, 4344, Note_on_c, 9, 38, 0
9, 4344, Note_on_c, 9, 54, 48
9, 4350, Note_on_c, 9, 54, 0
9, 4356, Note_on_c, 9, 54, 48
9, 4362, Note_on_c, 9, 54, 0
9, 4368, Note_on_c, 9, 36, 96
9, 4368, Note_on_c, 9, 49, 80
9, 4368, Note_on_c, 9, 54, 80
9, 4374, Note_on_c, 9, 54, 0
9, 4380, Note_on_c, 9, 54, 48
9, 4386, Note_on_c, 9, 54, 0
9, 4392, Note_on_c, 9, 49, 0
9, 4392, Note_on_c, 9, 36, 0
9, 4392, Note_on_c, 9, 54, 48
9, 4398, Note_on_c, 9, 54, 0
9, 4404, Note_on_c, 9, 54, 48
9, 4410, Note_on_c, 9, 54, 0
9, 4416, Note_on_c, 9, 54, 80
9, 4422, Note_on_c, 9, 54, 0
9, 4428, Note_on_c, 9, 54, 48
9, 4434, Note_on_c, 9, 54, 0
9, 4440, Note_on_c, 9, 54, 48
9, 4446, Note_on_c, 9, 54, 0
9, 4452, Note_on_c, 9, 54, 48
9, 4458, Note_on_c, 9, 54, 0
9, 4464, Note_on_c, 9, 36, 96
9, 4464, Note_on_c, 9, 49, 80
9, 4464, Note_on_c, 9, 54, 80
9, 4470, Note_on_c, 9, 54, 0
9, 4476, Note_on_c, 9, 54, 48
9, 4482, Note_on_c, 9, 54, 0
9, 4488, Note_on_c, 9, 49, 0
9, 4488, Note_on_c, 9, 36, 0
9, 4488, Note_on_c, 9, 54, 48
9, 4494, Note_on_c, 9, 54, 0
9, 4500, Note_on_c, 9, 54, 48
9, 4506, Note_on_c, 9, 54, 0
9, 4512, Note_on_c, 9, 54, 80
9, 4518, Note_on_c, 9, 54, 0
9, 4524, Note_on_c, 9, 54, 48
9, 4530, Note_on_c, 9, 54, 0
9, 4536, Note_on_c, 9, 54, 48
9, 4542, Note_on_c, 9, 54, 0
9, 4548, Note_on_c, 9, 54, 48
9, 4554, Note_on_c, 9, 54, 0
9, 4560, Note_on_c, 9, 36, 96
9, 4560, Note_on_c, 9, 49, 80
9, 4560, Note_on_c, 9, 54, 80
9, 4566, Note_on_c, 9, 54, 0
9, 4572, Note_on_c, 9, 54, 48
9, 4578, Note_on_c, 9, 54, 0
9, 4584, Note_on_c, 9, 49, 0
9, 4584, Note_on_c, 9, 36, 0
9, 4584, Note_on_c, 9, 54, 48
9, 4590, Note_on_c, 9, 54, 0
9, 4596, Note_on_c, 9, 54, 48
9, 4602, Note_on_c, 9, 54, 0
9, 4608, Note_on_c, 9, 54, 80
9, 4614, Note_on_c, 9, 54, 0
9, 4620, Note_on_c, 9, 54, 48
9, 4626, Note_on_c, 9, 54, 0
9, 4632, Note_on_c, 9, 54, 48
9, 4638, Note_on_c, 9, 54, 0
9, 4644, Note_on_c, 9, 54, 48
9, 4650, Note_on_c, 9, 54, 0
9, 4656, Note_on_c, 9, 36, 96
9, 4656, Note_on_c, 9, 49, 80
9, 4656, Note_on_c, 9, 54, 80
9, 4662, Note_on_c, 9, 54, 0
9, 4668, Note_on_c, 9, 54, 48
9, 4674, Note_on_c, 9, 54, 0
9, 4680, Note_on_c, 9, 49, 0
9, 4680, Note_on_c, 9, 36, 0
9, 4680, Note_on_c, 9, 54, 48
9, 4686, Note_on_c, 9, 54, 0
9, 4692, Note_on_c, 9, 54, 48
9, 4698, Note_on_c, 9, 54, 0
9, 4704, Note_on_c, 9, 36, 96
9, 4704, Note_on_c, 9, 49, 96
9, 4704, Note_on_c, 9, 54, 96
9, 4710, Note_on_c, 9, 54, 0
9, 4716, Note_on_c, 9, 49, 0
9, 4716, Note_on_c, 9, 36, 0
9, 4716, Note_on_c, 9, 54, 80
9, 4722, Note_on_c, 9, 54, 0
9, 4728, Note_on_c, 9, 54, 80
9, 4734, Note_on_c, 9, 54, 0
9, 4740, Note_on_c, 9, 54, 64
9, 4746, Note_on_c, 9, 54, 0
9, 4752, Note_on_c, 9, 54, 64
9, 4758, Note_on_c, 9, 54, 0
9, 4764, Note_on_c, 9, 54, 48
9, 4770, Note_on_c, 9, 54, 0
9, 4776, Note_on_c, 9, 54, 64
9, 4782, Note_on_c, 9, 54, 0
9, 4788, Note_on_c, 9, 54, 64
9, 4794, Note_on_c, 9, 54, 0
9, 4800, Note_on_c, 9, 54, 48
9, 4806, Note_on_c, 9, 54, 0
9, 4812, Note_on_c, 9, 54, 32
9, 4818, Note_on_c, 9, 54, 0
9, 4824, Note_on_c, 9, 54, 32
9, 4830, Note_on_c, 9, 54, 0
9, 4836, Note_on_c, 9, 54, 48
9, 4842, Note_on_c, 9, 54, 0
9, 4848, Note_on_c, 9, 54, 32
9, 4854, Note_on_c, 9, 54, 0
9, 4860, Note_on_c, 9, 54, 32
9, 4866, Note_on_c, 9, 54, 0
9, 4872, Note_on_c, 9, 54, 32
9, 4878, Note_on_c, 9, 54, 0
9, 4884, Note_on_c, 9, 54, 32
9, 4890, Note_on_c, 9, 54, 0
9, 4896, Note_on_c, 9, 54, 48
9, 4902, Note_on_c, 9, 54, 0
9, 4908, Note_on_c, 9, 54, 16
9, 4914, Note_on_c, 9, 54, 0
9, 4920, Note_on_c, 9, 54, 16
9, 4926, Note_on_c, 9, 54, 0
9, 4932, Note_on_c, 9, 54, 16
9, 4938, Note_on_c, 9, 54, 0
9, 4944, Note_on_c, 9, 54, 16
9, 4950, Note_on_c, 9, 54, 0
9, 4956, Note_on_c, 9, 54, 16
9, 4962, Note_on_c, 9, 54, 0
9, 4968, Note_on_c, 9, 54, 16
9, 4974, Note_on_c, 9, 54, 0
9, 4980, Note_on_c, 9, 54, 16
9, 4986, Note_on_c, 9, 54, 0
9, 4992, Note_on_c, 9, 54, 16
9, 4998, Note_on_c, 9, 54, 0
9, 5004, Note_on_c, 9, 54, 16
9, 5010, Note_on_c, 9, 54, 0
9, 5016, Note_on_c, 9, 54, 16
9, 5022, Note_on_c, 9, 54, 0
9, 5028, Note_on_c, 9, 54, 16
9, 5034, Note_on_c, 9, 54, 0
9, 5040, Note_on_c, 9, 54, 16
9, 5046, Note_on_c, 9, 54, 0
9, 5052, Note_on_c, 9, 54, 16
9, 5058, Note_on_c, 9, 54, 0
9, 5064, Note_on_c, 9, 54, 16
9, 5070, Note_on_c, 9, 54, 0
9, 5076, Note_on_c, 9, 54, 16
9, 5082, Note_on_c, 9, 54, 0
9, 5088, Note_on_c, 9, 36, 112
9, 5088, Note_on_c, 9, 49, 112
9, 5100, Note_on_c, 9, 49, 0
9, 5112, Note_on_c, 9, 36, 0
9, 5136, Note_on_c, 9, 42, 96
9, 5160, Note_on_c, 9, 42, 0
9, 5160, Note_on_c, 9, 38, 96
9, 5172, Note_on_c, 9, 38, 0
9, 5184, Note_on_c, 9, 36, 96
9, 5184, Note_on_c, 9, 42, 96
9, 5208, Note_on_c, 9, 42, 0
9, 5208, Note_on_c, 9, 36, 0
9, 5232, Note_on_c, 9, 38, 96
9, 5232, Note_on_c, 9, 42, 96
9, 5244, Note_on_c, 9, 38, 0
9, 5256, Note_on_c, 9, 42, 0
9, 5280, Note_on_c, 9, 42, 96
9, 5304, Note_on_c, 9, 42, 0
9, 5328, Note_on_c, 9, 38, 96
9, 5328, Note_on_c, 9, 46, 96
9, 5340, Note_on_c, 9, 38, 0
9, 5352, Note_on_c, 9, 46, 0
9, 5376, Note_on_c, 9, 36, 96
9, 5376, Note_on_c, 9, 42, 96
9, 5400, Note_on_c, 9, 42, 0
9, 5400, Note_on_c, 9, 36, 0
9, 5424, Note_on_c, 9, 42, 96
9, 5448, Note_on_c, 9, 42, 0
9, 5472, Note_on_c, 9, 42, 96
9, 5496, Note_on_c, 9, 42, 0
9, 5520, Note_on_c, 9, 38, 96
9, 5520, Note_on_c, 9, 42, 96
9, 5532, Note_on_c, 9, 38, 0
9, 5544, Note_on_c, 9, 42, 0
9, 5568, Note_on_c, 9, 36, 96
9, 5568, Note_on_c, 9, 42, 96
9, 5592, Note_on_c, 9, 42, 0
9, 5592, Note_on_c, 9, 36, 0
9, 5616, Note_on_c, 9, 42, 96
9, 5640, Note_on_c, 9, 42, 0
9, 5664, Note_on_c, 9, 36, 96
9, 5664, Note_on_c, 9, 42, 96
9, 5688, Note_on_c, 9, 42, 0
9, 5688, Note_on_c, 9, 36, 0
9, 5712, Note_on_c, 9, 42, 96
9, 5736, Note_on_c, 9, 42, 0
9, 5736, Note_on_c, 9, 38, 96
9, 5736, Note_on_c, 9, 46, 96
9, 5748, Note_on_c, 9, 46, 0
9, 5748, Note_on_c, 9, 38, 0
9, 5760, Note_on_c, 9, 36, 96
9, 5760, Note_on_c, 9, 42, 96
9, 5784, Note_on_c, 9, 42, 0
9, 5784, Note_on_c, 9, 36, 0
9, 5808, Note_on_c, 9, 42, 96
9, 5832, Note_on_c, 9, 42, 0
9, 5832, Note_on_c, 9, 38, 96
9, 5844, Note_on_c, 9, 38, 0
9, 5856, Note_on_c, 9, 36, 96
9, 5856, Note_on_c, 9, 42, 96
9, 5880, Note_on_c, 9, 42, 0
9, 5880, Note_on_c, 9, 36, 0
9, 5904, Note_on_c, 9, 38, 96
9, 5904, Note_on_c, 9, 42, 96
9, 5916, Note_on_c, 9, 38, 0
9, 5928, Note_on_c, 9, 42, 0
9, 5952, Note_on_c, 9, 42, 96
9, 5976, Note_on_c, 9, 42, 0
9, 6000, Note_on_c, 9, 38, 96
9, 6000, Note_on_c, 9, 46, 96
9, 6012, Note_on_c, 9, 38, 0
9, 6024, Note_on_c, 9, 46, 0
9, 6048, Note_on_c, 9, 38, 96
9, 6048, Note_on_c, 9, 42, 96
9, 6060, Note_on_c, 9, 38, 0
9, 6072, Note_on_c, 9, 42, 0
9, 6072, Note_on_c, 9, 38, 96
9, 6084, Note_on_c, 9, 38, 0
9, 6096, Note_on_c, 9, 36, 96
9, 6096, Note_on_c, 9, 42, 96
9, 6120, Note_on_c, 9, 42, 0
9, 6120, Note_on_c, 9, 36, 0
9, 6144, Note_on_c, 9, 42, 96
9, 6168, Note_on_c, 9, 42, 0
9, 6192, Note_on_c, 9, 38, 96
9, 6192, Note_on_c, 9, 42, 96
9, 6204, Note_on_c, 9, 38, 0
9, 6216, Note_on_c, 9, 42, 0
9, 6240, Note_on_c, 9, 36, 96
9, 6240, Note_on_c, 9, 42, 96
9, 6264, Note_on_c, 9, 42, 0
9, 6264, Note_on_c, 9, 36, 0
9, 6288, Note_on_c, 9, 42, 96
9, 6312, Note_on_c, 9, 42, 0
9, 6336, Note_on_c, 9, 36, 96
9, 6336, Note_on_c, 9, 42, 96
9, 6360, Note_on_c, 9, 42, 0
9, 6360, Note_on_c, 9, 36, 0
9, 6384, Note_on_c, 9, 42, 96
9, 6408, Note_on_c, 9, 42, 0
9, 6408, Note_on_c, 9, 38, 96
9, 6408, Note_on_c, 9, 46, 96
9, 6420, Note_on_c, 9, 46, 0
9, 6420, Note_on_c, 9, 38, 0
9, 6432, Note_on_c, 9, 36, 96
9, 6432, Note_on_c, 9, 49, 96
9, 6432, Note_on_c, 9, 54, 80
9, 6438, Note_on_c, 9, 54, 0
9, 6444, Note_on_c, 9, 49, 0
9, 6444, Note_on_c, 9, 36, 0
9, 6444, Note_on_c, 9, 54, 48
9, 6450, Note_on_c, 9, 54, 0
9, 6456, Note_on_c, 9, 36, 96
9, 6456, Note_on_c, 9, 54, 48
9, 6462, Note_on_c, 9, 54, 0
9, 6468, Note_on_c, 9, 36, 0
9, 6468, Note_on_c, 9, 54, 48
9, 6474, Note_on_c, 9, 54, 0
9, 6480, Note_on_c, 9, 42, 96
9, 6480, Note_on_c, 9, 54, 80
9, 6486, Note_on_c, 9, 54, 0
9, 6492, Note_on_c, 9, 54, 48
9, 6498, Note_on_c, 9, 54, 0
9, 6504, Note_on_c, 9, 42, 0
9, 6504, Note_on_c, 9, 36, 96
9, 6504, Note_on_c, 9, 54, 48
9, 6510, Note_on_c, 9, 54, 0
9, 6516, Note_on_c, 9, 36, 0
9, 6516, Note_on_c, 9, 54, 48
9, 6522, Note_on_c, 9, 54, 0
9, 6528, Note_on_c, 9, 38, 96
9, 6528, Note_on_c, 9, 42, 96
9, 6528, Note_on_c, 9, 54, 80
9, 6534, Note_on_c, 9, 54, 0
9, 6540, Note_on_c, 9, 54, 48
9, 6546, Note_on_c, 9, 54, 0
9, 6552, Note_on_c, 9, 42, 0
9, 6552, Note_on_c, 9, 54, 48
9, 6558, Note_on_c, 9, 54, 0
9, 6564, Note_on_c, 9, 54, 48
9, 6570, Note_on_c, 9, 54, 0
9, 6576, Note_on_c, 9, 38, 0
9, 6576, Note_on_c, 9, 36, 96
9, 6576, Note_on_c, 9, 42, 96
9, 6576, Note_on_c, 9, 54, 80
9, 6582, Note_on_c, 9, 54, 0
9, 6588, Note_on_c, 9, 36, 0
9, 6588, Note_on_c, 9, 54, 48
9, 6594, Note_on_c, 9, 54, 0
9, 6600, Note_on_c, 9, 42, 0
9, 6600, Note_on_c, 9, 54, 48
9, 6606, Note_on_c, 9, 54, 0
9, 6612, Note_on_c, 9, 54, 48
9, 6618, Note_on_c, 9, 54, 0
9, 6624, Note_on_c, 9, 36, 96
9, 6624, Note_on_c, 9, 42, 96
9, 6624, Note_on_c, 9, 54, 80
9, 6630, Note_on_c, 9, 54, 0
9, 6636, Note_on_c, 9, 36, 0
9, 6636, Note_on_c, 9, 54, 48
9, 6642, Note_on_c, 9, 54, 0
9, 6648, Note_on_c, 9, 42, 0
9, 6648, Note_on_c, 9, 36, 96
9, 6648, Note_on_c, 9, 54, 48
9, 6654, Note_on_c, 9, 54, 0
9, 6660, Note_on_c, 9, 36, 0
9, 6660, Note_on_c, 9, 54, 48
9, 6666, Note_on_c, 9, 54, 0
9, 6672, Note_on_c, 9, 42, 96
9, 6672, Note_on_c, 9, 54, 80
9, 6678, Note_on_c, 9, 54, 0
9, 6684, Note_on_c, 9, 54, 48
9, 6690, Note_on_c, 9, 54, 0
9, 6696, Note_on_c, 9, 42, 0
9, 6696, Note_on_c, 9, 36, 96
9, 6696, Note_on_c, 9, 54, 48
9, 6702, Note_on_c, 9, 54, 0
9, 6708, Note_on_c, 9, 36, 0
9, 6708, Note_on_c, 9, 54, 48
9, 6714, Note_on_c, 9, 54, 0
9, 6720, Note_on_c, 9, 38, 96
9, 6720, Note_on_c, 9, 42, 96
9, 6720, Note_on_c, 9, 54, 80
9, 6726, Note_on_c, 9, 54, 0
9, 6732, Note_on_c, 9, 54, 48
9, 6738, Note_on_c, 9, 54, 0
9, 6744, Note_on_c, 9, 42, 0
9, 6744, Note_on_c, 9, 54, 48
9, 6750, Note_on_c, 9, 54, 0
9, 6756, Note_on_c, 9, 54, 48
9, 6762, Note_on_c, 9, 54, 0
9, 6768, Note_on_c, 9, 38, 0
9, 6768, Note_on_c, 9, 46, 96
9, 6768, Note_on_c, 9, 54, 80
9, 6774, Note_on_c, 9, 54, 0
9, 6780, Note_on_c, 9, 54, 48
9, 6786, Note_on_c, 9, 54, 0
9, 6792, Note_on_c, 9, 46, 0
9, 6792, Note_on_c, 9, 54, 48
9, 6798, Note_on_c, 9, 54, 0
9, 6804, Note_on_c, 9, 54, 48
9, 6810, Note_on_c, 9, 54, 0
9, 6816, Note_on_c, 9, 36, 96
9, 6816, Note_on_c, 9, 42, 96
9, 6816, Note_on_c, 9, 54, 80
9, 6822, Note_on_c, 9, 54, 0
9, 6828, Note_on_c, 9, 36, 0
9, 6828, Note_on_c, 9, 54, 48
9, 6834, Note_on_c, 9, 54, 0
9, 6840, Note_on_c, 9, 42, 0
9, 6840, Note_on_c, 9, 36, 96
9, 6840, Note_on_c, 9, 54, 48
9, 6846, Note_on_c, 9, 54, 0
9, 6852, Note_on_c, 9, 36, 0
9, 6852, Note_on_c, 9, 54, 48
9, 6858, Note_on_c, 9, 54, 0
9, 6864, Note_on_c, 9, 42, 96
9, 6864, Note_on_c, 9, 54, 80
9, 6870, Note_on_c, 9, 54, 0
9, 6876, Note_on_c, 9, 54, 48
9, 6882, Note_on_c, 9, 54, 0
9, 6888, Note_on_c, 9, 42, 0
9, 6888, Note_on_c, 9, 36, 96
9, 6888, Note_on_c, 9, 54, 48
9, 6894, Note_on_c, 9, 54, 0
9, 6900, Note_on_c, 9, 36, 0
9, 6900, Note_on_c, 9, 54, 48
9, 6906, Note_on_c, 9, 54, 0
9, 6912, Note_on_c, 9, 38, 96
9, 6912, Note_on_c, 9, 42, 96
9, 6912, Note_on_c, 9, 54, 80
9, 6918, Note_on_c, 9, 54, 0
9, 6924, Note_on_c, 9, 54, 48
9, 6930, Note_on_c, 9, 54, 0
9, 6936, Note_on_c, 9, 42, 0
9, 6936, Note_on_c, 9, 38, 0
9, 6936, Note_on_c, 9, 54, 48
9, 6942, Note_on_c, 9, 54, 0
9, 6948, Note_on_c, 9, 54, 48
9, 6954, Note_on_c, 9, 54, 0
9, 6960, Note_on_c, 9, 42, 96
9, 6960, Note_on_c, 9, 54, 80
9, 6966, Note_on_c, 9, 54, 0
9, 6972, Note_on_c, 9, 54, 48
9, 6978, Note_on_c, 9, 54, 0
9, 6984, Note_on_c, 9, 42, 0
9, 6984, Note_on_c, 9, 36, 80
9, 6984, Note_on_c, 9, 54, 48
9, 6990, Note_on_c, 9, 54, 0
9, 6996, Note_on_c, 9, 36, 0
9, 6996, Note_on_c, 9, 54, 48
9, 7002, Note_on_c, 9, 54, 0
9, 7008, Note_on_c, 9, 36, 96
9, 7008, Note_on_c, 9, 42, 96
9, 7008, Note_on_c, 9, 54, 80
9, 7014, Note_on_c, 9, 54, 0
9, 7020, Note_on_c, 9, 36, 0
9, 7020, Note_on_c, 9, 54, 48
9, 7026, Note_on_c, 9, 54, 0
9, 7032, Note_on_c, 9, 42, 0
9, 7032, Note_on_c, 9, 54, 48
9, 7038, Note_on_c, 9, 54, 0
9, 7044, Note_on_c, 9, 54, 48
9, 7050, Note_on_c, 9, 54, 0
9, 7056, Note_on_c, 9, 36, 96
9, 7056, Note_on_c, 9, 42, 96
9, 7056, Note_on_c, 9, 54, 80
9, 7062, Note_on_c, 9, 54, 0
9, 7068, Note_on_c, 9, 36, 0
9, 7068, Note_on_c, 9, 54, 48
9, 7074, Note_on_c, 9, 54, 0
9, 7080, Note_on_c, 9, 42, 0
9, 7080, Note_on_c, 9, 54, 48
9, 7086, Note_on_c, 9, 54, 0
9, 7092, Note_on_c, 9, 54, 48
9, 7098, Note_on_c, 9, 54, 0
9, 7104, Note_on_c, 9, 38, 96
9, 7104, Note_on_c, 9, 46, 96
9, 7104, Note_on_c, 9, 54, 80
9, 7110, Note_on_c, 9, 54, 0
9, 7116, Note_on_c, 9, 54, 48
9, 7122, Note_on_c, 9, 54, 0
9, 7128, Note_on_c, 9, 46, 0
9, 7128, Note_on_c, 9, 38, 0
9, 7128, Note_on_c, 9, 54, 48
9, 7134, Note_on_c, 9, 54, 0
9, 7140, Note_on_c, 9, 54, 48
9, 7146, Note_on_c, 9, 54, 0
9, 7152, Note_on_c, 9, 36, 96
9, 7152, Note_on_c, 9, 38, 96
9, 7152, Note_on_c, 9, 46, 96
9, 7152, Note_on_c, 9, 54, 80
9, 7158, Note_on_c, 9, 54, 0
9, 7164, Note_on_c, 9, 36, 0
9, 7164, Note_on_c, 9, 54, 48
9, 7170, Note_on_c, 9, 54, 0
9, 7176, Note_on_c, 9, 46, 0
9, 7176, Note_on_c, 9, 38, 0
9, 7176, Note_on_c, 9, 54, 48
9, 7182, Note_on_c, 9, 54, 0
9, 7188, Note_on_c, 9, 54, 48
9, 7194, Note_on_c, 9, 54, 0
9, 7200, Note_on_c, 9, 36, 96
9, 7200, Note_on_c, 9, 42, 96
9, 7200, Note_on_c, 9, 54, 80
9, 7206, Note_on_c, 9, 54, 0
9, 7212, Note_on_c, 9, 36, 0
9, 7212, Note_on_c, 9, 54, 48
9, 7218, Note_on_c, 9, 54, 0
9, 7224, Note_on_c, 9, 42, 0
9, 7224, Note_on_c, 9, 36, 96
9, 7224, Note_on_c, 9, 54, 48
9, 7230, Note_on_c, 9, 54, 0
9, 7236, Note_on_c, 9, 36, 0
9, 7236, Note_on_c, 9, 54, 48
9, 7242, Note_on_c, 9, 54, 0
9, 7248, Note_on_c, 9, 38, 96
9, 7248, Note_on_c, 9, 42, 96
9, 7248, Note_on_c, 9, 54, 80
9, 7254, Note_on_c, 9, 54, 0
9, 7260, Note_on_c, 9, 54, 48
9, 7266, Note_on_c, 9, 54, 0
9, 7272, Note_on_c, 9, 42, 0
9, 7272, Note_on_c, 9, 38, 0
9, 7272, Note_on_c, 9, 54, 48
9, 7278, Note_on_c, 9, 54, 0
9, 7284, Note_on_c, 9, 54, 48
9, 7290, Note_on_c, 9, 54, 0
9, 7296, Note_on_c, 9, 36, 96
9, 7296, Note_on_c, 9, 42, 96
9, 7296, Note_on_c, 9, 54, 80
9, 7302, Note_on_c, 9, 54, 0
9, 7308, Note_on_c, 9, 36, 0
9, 7308, Note_on_c, 9, 54, 48
9, 7314, Note_on_c, 9, 54, 0
9, 7320, Note_on_c, 9, 42, 0
9, 7320, Note_on_c, 9, 54, 48
9, 7326, Note_on_c, 9, 54, 0
9, 7332, Note_on_c, 9, 54, 48
9, 7338, Note_on_c, 9, 54, 0
9, 7344, Note_on_c, 9, 38, 96
9, 7344, Note_on_c, 9, 49, 80
9, 7344, Note_on_c, 9, 54, 80
9, 7350, Note_on_c, 9, 54, 0
9, 7356, Note_on_c, 9, 54, 48
9, 7362, Note_on_c, 9, 54, 0
9, 7368, Note_on_c, 9, 49, 0
9, 7368, Note_on_c, 9, 38, 0
9, 7368, Note_on_c, 9, 54, 48
9, 7374, Note_on_c, 9, 54, 0
9, 7380, Note_on_c, 9, 54, 48
9, 7386, Note_on_c, 9, 54, 0
9, 7392, Note_on_c, 9, 54, 80
9, 7398, Note_on_c, 9, 54, 0
9, 7404, Note_on_c, 9, 54, 48
9, 7410, Note_on_c, 9, 54, 0
9, 7416, Note_on_c, 9, 54, 48
9, 7422, Note_on_c, 9, 54, 0
9, 7428, Note_on_c, 9, 54, 48
9, 7434, Note_on_c, 9, 54, 0
9, 7440, Note_on_c, 9, 36, 80
9, 7440, Note_on_c, 9, 49, 80
9, 7440, Note_on_c, 9, 54, 80
9, 7446, Note_on_c, 9, 54, 0
9, 7452, Note_on_c, 9, 54, 48
9, 7458, Note_on_c, 9, 54, 0
9, 7464, Note_on_c, 9, 49, 0
9, 7464, Note_on_c, 9, 36, 0
9, 7464, Note_on_c, 9, 54, 48
9, 7470, Note_on_c, 9, 54, 0
9, 7476, Note_on_c, 9, 54, 48
9, 7482, Note_on_c, 9, 54, 0
9, 7488, Note_on_c, 9, 54, 80
9, 7494, Note_on_c, 9, 54, 0
9, 7500, Note_on_c, 9, 54, 48
9, 7506, Note_on_c, 9, 54, 0
9, 7512, Note_on_c, 9, 54, 48
9, 7518, Note_on_c, 9, 54, 0
9, 7524, Note_on_c, 9, 54, 48
9, 7530, Note_on_c, 9, 54, 0
9, 7536, Note_on_c, 9, 36, 80
9, 7536, Note_on_c, 9, 49, 80
9, 7536, Note_on_c, 9, 54, 80
9, 7542, Note_on_c, 9, 54, 0
9, 7548, Note_on_c, 9, 54, 48
9, 7554, Note_on_c, 9, 54, 0
9, 7560, Note_on_c, 9, 49, 0
9, 7560, Note_on_c, 9, 36, 0
9, 7560, Note_on_c, 9, 54, 48
9, 7566, Note_on_c, 9, 54, 0
9, 7572, Note_on_c, 9, 54, 48
9, 7578, Note_on_c, 9, 54, 0
9, 7584, Note_on_c, 9, 54, 80
9, 7590, Note_on_c, 9, 54, 0
9, 7596, Note_on_c, 9, 54, 48
9, 7602, Note_on_c, 9, 54, 0
9, 7608, Note_on_c, 9, 54, 48
9, 7614, Note_on_c, 9, 54, 0
9, 7620, Note_on_c, 9, 54, 48
9, 7626, Note_on_c, 9, 54, 0
9, 7632, Note_on_c, 9, 36, 80
9, 7632, Note_on_c, 9, 49, 80
9, 7632, Note_on_c, 9, 54, 80
9, 7638, Note_on_c, 9, 54, 0
9, 7644, Note_on_c, 9, 54, 48
9, 7650, Note_on_c, 9, 54, 0
9, 7656, Note_on_c, 9, 49, 0
9, 7656, Note_on_c, 9, 36, 0
9, 7656, Note_on_c, 9, 54, 48
9, 7662, Note_on_c, 9, 54, 0
9, 7668, Note_on_c, 9, 54, 48
9, 7674, Note_on_c, 9, 54, 0
9, 7680, Note_on_c, 9, 54, 80
9, 7686, Note_on_c, 9, 54, 0
9, 7692, Note_on_c, 9, 54, 48
9, 7698, Note_on_c, 9, 54, 0
9, 7704, Note_on_c, 9, 54, 48
9, 7710, Note_on_c, 9, 54, 0
9, 7716, Note_on_c, 9, 54, 48
9, 7722, Note_on_c, 9, 54, 0
9, 7728, Note_on_c, 9, 36, 96
9, 7728, Note_on_c, 9, 49, 96
9, 7728, Note_on_c, 9, 54, 96
9, 7734, Note_on_c, 9, 54, 0
9, 7740, Note_on_c, 9, 49, 0
9, 7740, Note_on_c, 9, 36, 0
9, 7740, Note_on_c, 9, 54, 80
9, 7746, Note_on_c, 9, 54, 0
9, 7752, Note_on_c, 9, 54, 80
9, 7758, Note_on_c, 9, 54, 0
9, 7764, Note_on_c, 9, 54, 64
9, 7770, Note_on_c, 9, 54, 0
9, 7776, Note_on_c, 9, 54, 64
9, 7782, Note_on_c, 9, 54, 0
9, 7788, Note_on_c, 9, 54, 48
9, 7794, Note_on_c, 9, 54, 0
9, 7800, Note_on_c, 9, 54, 64
9, 7806, Note_on_c, 9, 54, 0
9, 7812, Note_on_c, 9, 54, 64
9, 7818, Note_on_c, 9, 54, 0
9, 7824, Note_on_c, 9, 54, 48
9, 7830, Note_on_c, 9, 54, 0
9, 7836, Note_on_c, 9, 54, 32
9, 7842, Note_on_c, 9, 54, 0
9, 7848, Note_on_c, 9, 54, 32
9, 7854, Note_on_c, 9, 54, 0
9, 7860, Note_on_c, 9, 54, 48
9, 7866, Note_on_c, 9, 54, 0
9, 7872, Note_on_c, 9, 54, 32
9, 7878, Note_on_c, 9, 54, 0
9, 7884, Note_on_c, 9, 54, 32
9, 7890, Note_on_c, 9, 54, 0
9, 7896, Note_on_c, 9, 54, 32
9, 7902, Note_on_c, 9, 54, 0
9, 7908, Note_on_c, 9, 54, 32
9, 7914, Note_on_c, 9, 54, 0
9, 7920, Note_on_c, 9, 54, 48
9, 7926, Note_on_c, 9, 54, 0
9, 7932, Note_on_c, 9, 54, 16
9, 7938, Note_on_c, 9, 54, 0
9, 7944, Note_on_c, 9, 54, 16
9, 7950, Note_on_c, 9, 54, 0
9, 7956, Note_on_c, 9, 54, 16
9, 7962, Note_on_c, 9, 54, 0
9, 7968, Note_on_c, 9, 54, 16
9, 7974, Note_on_c, 9, 54, 0
9, 7980, Note_on_c, 9, 54, 16
9, 7986, Note_on_c, 9, 54, 0
9, 7992, Note_on_c, 9, 54, 16
9, 7998, Note_on_c, 9, 54, 0
9, 8004, Note_on_c, 9, 54, 16
9, 8010, Note_on_c, 9, 54, 0
9, 8016, Note_on_c, 9, 54, 16
9, 8022, Note_on_c, 9, 54, 0
9, 8028, Note_on_c, 9, 54, 16
9, 8034, Note_on_c, 9, 54, 0
9, 8040, Note_on_c, 9, 54, 16
9, 8046, Note_on_c, 9, 54, 0
9, 8052, Note_on_c, 9, 54, 16
9, 8058, Note_on_c, 9, 54, 0
9, 8064, Note_on_c, 9, 54, 16
9, 8070, Note_on_c, 9, 54, 0
9, 8076, Note_on_c, 9, 54, 16
9, 8082, Note_on_c, 9, 54, 0
9, 8088, Note_on_c, 9, 54, 16
9, 8094, Note_on_c, 9, 54, 0
9, 8100, Note_on_c, 9, 54, 16
9, 8106, Note_on_c, 9, 54, 0
9, 14928, Note_on_c, 9, 36, 112
9, 14928, Note_on_c, 9, 49, 112
9, 14940, Note_on_c, 9, 49, 0
9, 14952, Note_on_c, 9, 36, 0
9, 14976, Note_on_c, 9, 42, 96
9, 15000, Note_on_c, 9, 42, 0
9, 15000, Note_on_c, 9, 38, 96
9, 15012, Note_on_c, 9, 38, 0
9, 15024, Note_on_c, 9, 36, 96
9, 15024, Note_on_c, 9, 42, 96
9, 15048, Note_on_c, 9, 42, 0
9, 15048, Note_on_c, 9, 36, 0
9, 15072, Note_on_c, 9, 38, 96
9, 15072, Note_on_c, 9, 42, 96
9, 15084, Note_on_c, 9, 38, 0
9, 15096, Note_on_c, 9, 42, 0
9, 15120, Note_on_c, 9, 42, 96
9, 15144, Note_on_c, 9, 42, 0
9, 15168, Note_on_c, 9, 38, 96
9, 15168, Note_on_c, 9, 46, 96
9, 15180, Note_on_c, 9, 38, 0
9, 15192, Note_on_c, 9, 46, 0
9, 15216, Note_on_c, 9, 36, 96
9, 15216, Note_on_c, 9, 42, 96
9, 15240, Note_on_c, 9, 42, 0
9, 15240, Note_on_c, 9, 36, 0
9, 15264, Note_on_c, 9, 42, 96
9, 15288, Note_on_c, 9, 42, 0
9, 15312, Note_on_c, 9, 42, 96
9, 15336, Note_on_c, 9, 42, 0
9, 15360, Note_on_c, 9, 38, 96
9, 15360, Note_on_c, 9, 42, 96
9, 15372, Note_on_c, 9, 38, 0
9, 15384, Note_on_c, 9, 42, 0
9, 15408, Note_on_c, 9, 36, 96
9, 15408, Note_on_c, 9, 42, 96
9, 15432, Note_on_c, 9, 42, 0
9, 15432, Note_on_c, 9, 36, 0
9, 15456, Note_on_c, 9, 42, 96
9, 15480, Note_on_c, 9, 42, 0
9, 15504, Note_on_c, 9, 36, 96
9, 15504, Note_on_c, 9, 42, 96
9, 15528, Note_on_c, 9, 42, 0
9, 15528, Note_on_c, 9, 36, 0
9, 15552, Note_on_c, 9, 42, 96
9, 15576, Note_on_c, 9, 42, 0
9, 15576, Note_on_c, 9, 38, 96
9, 15576, Note_on_c, 9, 46, 96
9, 15588, Note_on_c, 9, 46, 0
9, 15588, Note_on_c, 9, 38, 0
9, 15600, Note_on_c, 9, 36, 96
9, 15600, Note_on_c, 9, 42, 96
9, 15624, Note_on_c, 9, 42, 0
9, 15624, Note_on_c, 9, 36, 0
9, 15648, Note_on_c, 9, 42, 96
9, 15672, Note_on_c, 9, 42, 0
9, 15672, Note_on_c, 9, 38, 96
9, 15684, Note_on_c, 9, 38, 0
9, 15696, Note_on_c, 9, 36, 96
9, 15696, Note_on_c, 9, 42, 96
9, 15720, Note_on_c, 9, 42, 0
9, 15720, Note_on_c, 9, 36, 0
9, 15744, Note_on_c, 9, 38, 96
9, 15744, Note_on_c, 9, 42, 96
9, 15756, Note_on_c, 9, 38, 0
9, 15768, Note_on_c, 9, 42, 0
9, 15792, Note_on_c, 9, 42, 96
9, 15816, Note_on_c, 9, 42, 0
9, 15840, Note_on_c, 9, 38, 96
9, 15840, Note_on_c, 9, 46, 96
9, 15852, Note_on_c, 9, 38, 0
9, 15864, Note_on_c, 9, 46, 0
9, 15888, Note_on_c, 9, 38, 96
9, 15888, Note_on_c, 9, 42, 96
9, 15900, Note_on_c, 9, 38, 0
9, 15912, Note_on_c, 9, 42, 0
9, 15912, Note_on_c, 9, 38, 96
9, 15924, Note_on_c, 9, 38, 0
9, 15936, Note_on_c, 9, 36, 96
9, 15936, Note_on_c, 9, 42, 96
9, 15960, Note_on_c, 9, 42, 0
9, 15960, Note_on_c, 9, 36, 0
9, 15984, Note_on_c, 9, 42, 96
9, 16008, Note_on_c, 9, 42, 0
9, 16032, Note_on_c, 9, 38, 96
9, 16032, Note_on_c, 9, 42, 96
9, 16044, Note_on_c, 9, 38, 0
9, 16056, Note_on_c, 9, 42, 0
9, 16080, Note_on_c, 9, 36, 96
9, 16080, Note_on_c, 9, 42, 96
9, 16104, Note_on_c, 9, 42, 0
9, 16104, Note_on_c, 9, 36, 0
9, 16128, Note_on_c, 9, 42, 96
9, 16152, Note_on_c, 9, 42, 0
9, 16176, Note_on_c, 9, 36, 96
9, 16176, Note_on_c, 9, 42, 96
9, 16200, Note_on_c, 9, 42, 0
9, 16200, Note_on_c, 9, 36, 0
9, 16224, Note_on_c, 9, 42, 96
9, 16248, Note_on_c, 9, 42, 0
9, 16248, Note_on_c, 9, 38, 96
9, 16248, Note_on_c, 9, 46, 96
9, 16260, Note_on_c, 9, 46, 0
9, 16260, Note_on_c, 9, 38, 0
9, 16272, Note_on_c, 9, 36, 96
9, 16272, Note_on_c, 9, 49, 96
9, 16272, Note_on_c, 9, 54, 80
9, 16278, Note_on_c, 9, 54, 0
9, 16284, Note_on_c, 9, 49, 0
9, 16284, Note_on_c, 9, 36, 0
9, 16284, Note_on_c, 9, 54, 48
9, 16290, Note_on_c, 9, 54, 0
9, 16296, Note_on_c, 9, 36, 96
9, 16296, Note_on_c, 9, 54, 48
9, 16302, Note_on_c, 9, 54, 0
9, 16308, Note_on_c, 9, 36, 0
9, 16308, Note_on_c, 9, 54, 48
9, 16314, Note_on_c, 9, 54, 0
9, 16320, Note_on_c, 9, 42, 96
9, 16320, Note_on_c, 9, 54, 80
9, 16326, Note_on_c, 9, 54, 0
9, 16332, Note_on_c, 9, 54, 48
9, 16338, Note_on_c, 9, 54, 0
9, 16344, Note_on_c, 9, 42, 0
9, 16344, Note_on_c, 9, 36, 96
9, 16344, Note_on_c, 9, 54, 48
9, 16350, Note_on_c, 9, 54, 0
9, 16356, Note_on_c, 9, 36, 0
9, 16356, Note_on_c, 9, 54, 48
9, 16362, Note_on_c, 9, 54, 0
9, 16368, Note_on_c, 9, 38, 96
9, 16368, Note_on_c, 9, 42, 96
9, 16368, Note_on_c, 9, 54, 80
9, 16374, Note_on_c, 9, 54, 0
9, 16380, Note_on_c, 9, 54, 48
9, 16386, Note_on_c, 9, 54, 0
9, 16392, Note_on_c, 9, 42, 0
9, 16392, Note_on_c, 9, 54, 48
9, 16398, Note_on_c, 9, 54, 0
9, 16404, Note_on_c, 9, 54, 48
9, 16410, Note_on_c, 9, 54, 0
9, 16416, Note_on_c, 9, 38, 0
9, 16416, Note_on_c, 9, 36, 96
9, 16416, Note_on_c, 9, 42, 96
9, 16416, Note_on_c, 9, 54, 80
9, 16422, Note_on_c, 9, 54, 0
9, 16428, Note_on_c, 9, 36, 0
9, 16428, Note_on_c, 9, 54, 48
9, 16434, Note_on_c, 9, 54, 0
9, 16440, Note_on_c, 9, 42, 0
9, 16440, Note_on_c, 9, 54, 48
9, 16446, Note_on_c, 9, 54, 0
9, 16452, Note_on_c, 9, 54, 48
9, 16458, Note_on_c, 9, 54, 0
9, 16464, Note_on_c, 9, 36, 96
9, 16464, Note_on_c, 9, 42, 96
9, 16464, Note_on_c, 9, 54, 80
9, 16470, Note_on_c, 9, 54, 0
9, 16476, Note_on_c, 9, 36, 0
9, 16476, Note_on_c, 9, 54, 48
9, 16482, Note_on_c, 9, 54, 0
9, 16488, Note_on_c, 9, 42, 0
9, 16488, Note_on_c, 9, 36, 96
9, 16488, Note_on_c, 9, 54, 48
9, 16494, Note_on_c, 9, 54, 0
9, 16500, Note_on_c, 9, 36, 0
9, 16500, Note_on_c, 9, 54, 48
9, 16506, Note_on_c, 9, 54, 0
9, 16512, Note_on_c, 9, 42, 96
9, 16512, Note_on_c, 9, 54, 80
9, 16518, Note_on_c, 9, 54, 0
9, 16524, Note_on_c, 9, 54, 48
9, 16530, Note_on_c, 9, 54, 0
9, 16536, Note_on_c, 9, 42, 0
9, 16536, Note_on_c, 9, 36, 96
9, 16536, Note_on_c, 9, 54, 48
9, 16542, Note_on_c, 9, 54, 0
9, 16548, Note_on_c, 9, 36, 0
9, 16548, Note_on_c, 9, 54, 48
9, 16554, Note_on_c, 9, 54, 0
9, 16560, Note_on_c, 9, 38, 96
9, 16560, Note_on_c, 9, 42, 96
9, 16560, Note_on_c, 9, 54, 80
9, 16566, Note_on_c, 9, 54, 0
9, 16572, Note_on_c, 9, 54, 48
9, 16578, Note_on_c, 9, 54, 0
9, 16584, Note_on_c, 9, 42, 0
9, 16584, Note_on_c, 9, 54, 48
9, 16590, Note_on_c, 9, 54, 0
9, 16596, Note_on_c, 9, 54, 48
9, 16602, Note_on_c, 9, 54, 0
9, 16608, Note_on_c, 9, 38, 0
9, 16608, Note_on_c, 9, 46, 96
9, 16608, Note_on_c, 9, 54, 80
9, 16614, Note_on_c, 9, 54, 0
9, 16620, Note_on_c, 9, 54, 48
9, 16626, Note_on_c, 9, 54, 0
9, 16632, Note_on_c, 9, 46, 0
9, 16632, Note_on_c, 9, 54, 48
9, 16638, Note_on_c, 9, 54, 0
9, 16644, Note_on_c, 9, 54, 48
9, 16650, Note_on_c, 9, 54, 0
9, 16656, Note_on_c, 9, 36, 96
9, 16656, Note_on_c, 9, 42, 96
9, 16656, Note_on_c, 9, 54, 80
9, 16662, Note_on_c, 9, 54, 0
9, 16668, Note_on_c, 9, 36, 0
9, 16668, Note_on_c, 9, 54, 48
9, 16674, Note_on_c, 9, 54, 0
9, 16680, Note_on_c, 9, 42, 0
9, 16680, Note_on_c, 9, 36, 96
9, 16680, Note_on_c, 9, 54, 48
9, 16686, Note_on_c, 9, 54, 0
9, 16692, Note_on_c, 9, 36, 0
9, 16692, Note_on_c, 9, 54, 48
9, 16698, Note_on_c, 9, 54, 0
9, 16704, Note_on_c, 9, 42, 96
9, 16704, Note_on_c, 9, 54, 80
9, 16710, Note_on_c, 9, 54, 0
9, 16716, Note_on_c, 9, 54, 48
9, 16722, Note_on_c, 9, 54, 0
9, 16728, Note_on_c, 9, 42, 0
9, 16728, Note_on_c, 9, 36, 96
9, 16728, Note_on_c, 9, 54, 48
9, 16734, Note_on_c, 9, 54, 0
9, 16740, Note_on_c, 9, 36, 0
9, 16740, Note_on_c, 9, 54, 48
9, 16746, Note_on_c, 9, 54, 0
9, 16752, Note_on_c, 9, 38, 96
9, 16752, Note_on_c, 9, 42, 96
9, 16752, Note_on_c, 9, 54, 80
9, 16758, Note_on_c, 9, 54, 0
9, 16764, Note_on_c, 9, 54, 48
9, 16770, Note_on_c, 9, 54, 0
9, 16776, Note_on_c, 9, 42, 0
9, 16776, Note_on_c, 9, 38, 0
9, 16776, Note_on_c, 9, 54, 48
9, 16782, Note_on_c, 9, 54, 0
9, 16788, Note_on_c, 9, 54, 48
9, 16794, Note_on_c, 9, 54, 0
9, 16800, Note_on_c, 9, 42, 96
9, 16800, Note_on_c, 9, 54, 80
9, 16806, Note_on_c, 9, 54, 0
9, 16812, Note_on_c, 9, 54, 48
9, 16818, Note_on_c, 9, 54, 0
9, 16824, Note_on_c, 9, 42, 0
9, 16824, Note_on_c, 9, 36, 80
9, 16824, Note_on_c, 9, 54, 48
9, 16830, Note_on_c, 9, 54, 0
9, 16836, Note_on_c, 9, 36, 0
9, 16836, Note_on_c, 9, 54, 48
9, 16842, Note_on_c, 9, 54, 0
9, 16848, Note_on_c, 9, 36, 96
9, 16848, Note_on_c, 9, 42, 96
9, 16848, Note_on_c, 9, 54, 80
9, 16854, Note_on_c, 9, 54, 0
9, 16860, Note_on_c, 9, 36, 0
9, 16860, Note_on_c, 9, 54, 48
9, 16866, Note_on_c, 9, 54, 0
9, 16872, Note_on_c, 9, 42, 0
9, 16872, Note_on_c, 9, 54, 48
9, 16878, Note_on_c, 9, 54, 0
9, 16884, Note_on_c, 9, 54, 48
9, 16890, Note_on_c, 9, 54, 0
9, 16896, Note_on_c, 9, 36, 96
9, 16896, Note_on_c, 9, 42, 96
9, 16896, Note_on_c, 9, 54, 80
9, 16902, Note_on_c, 9, 54, 0
9, 16908, Note_on_c, 9, 36, 0
9, 16908, Note_on_c, 9, 54, 48
9, 16914, Note_on_c, 9, 54, 0
9, 16920, Note_on_c, 9, 42, 0
9, 16920, Note_on_c, 9, 54, 48
9, 16926, Note_on_c, 9, 54, 0
9, 16932, Note_on_c, 9, 54, 48
9, 16938, Note_on_c, 9, 54, 0
9, 16944, Note_on_c, 9, 38, 96
9, 16944, Note_on_c, 9, 46, 96
9, 16944, Note_on_c, 9, 54, 80
9, 16950, Note_on_c, 9, 54, 0
9, 16956, Note_on_c, 9, 54, 48
9, 16962, Note_on_c, 9, 54, 0
9, 16968, Note_on_c, 9, 46, 0
9, 16968, Note_on_c, 9, 38, 0
9, 16968, Note_on_c, 9, 54, 48
9, 16974, Note_on_c, 9, 54, 0
9, 16980, Note_on_c, 9, 54, 48
9, 16986, Note_on_c, 9, 54, 0
9, 16992, Note_on_c, 9, 36, 96
9, 16992, Note_on_c, 9, 38, 96
9, 16992, Note_on_c, 9, 46, 96
9, 16992, Note_on_c, 9, 54, 80
9, 16998, Note_on_c, 9, 54, 0
9, 17004, Note_on_c, 9, 36, 0
9, 17004, Note_on_c, 9, 54, 48
9, 17010, Note_on_c, 9, 54, 0
9, 17016, Note_on_c, 9, 46, 0
9, 17016, Note_on_c, 9, 38, 0
9, 17016, Note_on_c, 9, 54, 48
9, 17022, Note_on_c, 9, 54, 0
9, 17028, Note_on_c, 9, 54, 48
9, 17034, Note_on_c, 9, 54, 0
9, 17040, Note_on_c, 9, 36, 96
9, 17040, Note_on_c, 9, 42, 96
9, 17040, Note_on_c, 9, 54, 80
9, 17046, Note_on_c, 9, 54, 0
9, 17052, Note_on_c, 9, 36, 0
9, 17052, Note_on_c, 9, 54, 48
9, 17058, Note_on_c, 9, 54, 0
9, 17064, Note_on_c, 9, 42, 0
9, 17064, Note_on_c, 9, 36, 96
9, 17064, Note_on_c, 9, 54, 48
9, 17070, Note_on_c, 9, 54, 0
9, 17076, Note_on_c, 9, 36, 0
9, 17076, Note_on_c, 9, 54, 48
9, 17082, Note_on_c, 9, 54, 0
9, 17088, Note_on_c, 9, 38, 96
9, 17088, Note_on_c, 9, 42, 96
9, 17088, Note_on_c, 9, 54, 80
9, 17094, Note_on_c, 9, 54, 0
9, 17100, Note_on_c, 9, 54, 48
9, 17106, Note_on_c, 9, 54, 0
9, 17112, Note_on_c, 9, 42, 0
9, 17112, Note_on_c, 9, 38, 0
9, 17112, Note_on_c, 9, 54, 48
9, 17118, Note_on_c, 9, 54, 0
9, 17124, Note_on_c, 9, 54, 48
9, 17130, Note_on_c, 9, 54, 0
9, 17136, Note_on_c, 9, 36, 96
9, 17136, Note_on_c, 9, 42, 96
9, 17136, Note_on_c, 9, 54, 80
9, 17142, Note_on_c, 9, 54, 0
9, 17148, Note_on_c, 9, 36, 0
9, 17148, Note_on_c, 9, 54, 48
9, 17154, Note_on_c, 9, 54, 0
9, 17160, Note_on_c, 9, 42, 0
9, 17160, Note_on_c, 9, 54, 48
9, 17166, Note_on_c, 9, 54, 0
9, 17172, Note_on_c, 9, 54, 48
9, 17178, Note_on_c, 9, 54, 0
9, 17184, Note_on_c, 9, 38, 86
9, 17184, Note_on_c, 9, 49, 70
9, 17184, Note_on_c, 9, 54, 70
9, 17190, Note_on_c, 9, 54, 0
9, 17196, Note_on_c, 9, 54, 38
9, 17202, Note_on_c, 9, 54, 0
9, 17208, Note_on_c, 9, 49, 0
9, 17208, Note_on_c, 9, 38, 0
9, 17208, Note_on_c, 9, 54, 38
9, 17214, Note_on_c, 9, 54, 0
9, 17220, Note_on_c, 9, 54, 38
9, 17226, Note_on_c, 9, 54, 0
9, 17232, Note_on_c, 9, 54, 70
9, 17238, Note_on_c, 9, 54, 0
9, 17244, Note_on_c, 9, 54, 38
9, 17250, Note_on_c, 9, 54, 0
9, 17256, Note_on_c, 9, 54, 38
9, 17262, Note_on_c, 9, 54, 0
9, 17268, Note_on_c, 9, 54, 38
9, 17274, Note_on_c, 9, 54, 0
9, 17280, Note_on_c, 9, 36, 70
9, 17280, Note_on_c, 9, 49, 70
9, 17280, Note_on_c, 9, 54, 70
9, 17286, Note_on_c, 9, 54, 0
9, 17292, Note_on_c, 9, 54, 38
9, 17298, Note_on_c, 9, 54, 0
9, 17304, Note_on_c, 9, 49, 0
9, 17304, Note_on_c, 9, 36, 0
9, 17304, Note_on_c, 9, 54, 38
9, 17310, Note_on_c, 9, 54, 0
9, 17316, Note_on_c, 9, 54, 38
9, 17322, Note_on_c, 9, 54, 0
9, 17328, Note_on_c, 9, 54, 70
9, 17334, Note_on_c, 9, 54, 0
9, 17340, Note_on_c, 9, 54, 38
9, 17346, Note_on_c, 9, 54, 0
9, 17352, Note_on_c, 9, 54, 38
9, 17358, Note_on_c, 9, 54, 0
9, 17364, Note_on_c, 9, 54, 38
9, 17370, Note_on_c, 9, 54, 0
9, 17376, Note_on_c, 9, 36, 70
9, 17376, Note_on_c, 9, 49, 70
9, 17376, Note_on_c, 9, 54, 70
9, 17382, Note_on_c, 9, 54, 0
9, 17388, Note_on_c, 9, 54, 38
9, 17394, Note_on_c, 9, 54, 0
9, 17400, Note_on_c, 9, 49, 0
9, 17400, Note_on_c, 9, 36, 0
9, 17400, Note_on_c, 9, 54, 38
9, 17406, Note_on_c, 9, 54, 0
9, 17412, Note_on_c, 9, 54, 38
9, 17418, Note_on_c, 9, 54, 0
9, 17424, Note_on_c, 9, 54, 70
9, 17430, Note_on_c, 9, 54, 0
9, 17436, Note_on_c, 9, 54, 38
9, 17442, Note_on_c, 9, 54, 0
9, 17448, Note_on_c, 9, 54, 38
9, 17454, Note_on_c, 9, 54, 0
9, 17460, Note_on_c, 9, 54, 38
9, 17466, Note_on_c, 9, 54, 0
9, 17472, Note_on_c, 9, 36, 70
9, 17472, Note_on_c, 9, 49, 70
9, 17472, Note_on_c, 9, 54, 70
9, 17478, Note_on_c, 9, 54, 0
9, 17484, Note_on_c, 9, 54, 38
9, 17490, Note_on_c, 9, 54, 0
9, 17496, Note_on_c, 9, 49, 0
9, 17496, Note_on_c, 9, 36, 0
9, 17496, Note_on_c, 9, 54, 38
9, 17502, Note_on_c, 9, 54, 0
9, 17508, Note_on_c, 9, 54, 38
9, 17514, Note_on_c, 9, 54, 0
9, 17520, Note_on_c, 9, 54, 70
9, 17526, Note_on_c, 9, 54, 0
9, 17532, Note_on_c, 9, 54, 38
9, 17538, Note_on_c, 9, 54, 0
9, 17544, Note_on_c, 9, 54, 38
9, 17550, Note_on_c, 9, 54, 0
9, 17556, Note_on_c, 9, 54, 38
9, 17562, Note_on_c, 9, 54, 0
9, 17568, Note_on_c, 9, 36, 76
9, 17568, Note_on_c, 9, 49, 76
9, 17568, Note_on_c, 9, 54, 76
9, 17574, Note_on_c, 9, 54, 0
9, 17580, Note_on_c, 9, 49, 0
9, 17580, Note_on_c, 9, 36, 0
9, 17580, Note_on_c, 9, 54, 60
9, 17586, Note_on_c, 9, 54, 0
9, 17592, Note_on_c, 9, 54, 60
9, 17598, Note_on_c, 9, 54, 0
9, 17604, Note_on_c, 9, 54, 44
9, 17610, Note_on_c, 9, 54, 0
9, 17616, Note_on_c, 9, 54, 44
9, 17622, Note_on_c, 9, 54, 0
9, 17628, Note_on_c, 9, 54, 28
9, 17634, Note_on_c, 9, 54, 0
9, 17640, Note_on_c, 9, 54, 44
9, 17646, Note_on_c, 9, 54, 0
9, 17652, Note_on_c, 9, 54, 44
9, 17658, Note_on_c, 9, 54, 0
9, 17664, Note_on_c, 9, 54, 28
9, 17670, Note_on_c, 9, 54, 0
9, 17676, Note_on_c, 9, 54, 12
9, 17682, Note_on_c, 9, 54, 0
9, 17688, Note_on_c, 9, 54, 12
9, 17694, Note_on_c, 9, 54, 0
9, 17700, Note_on_c, 9, 54, 28
9, 17706, Note_on_c, 9, 54, 0
9, 17712, Note_on_c, 9, 54, 12
9, 17718, Note_on_c, 9, 54, 0
9, 17724, Note_on_c, 9, 54, 12
9, 17730, Note_on_c, 9, 54, 0
9, 17736, Note_on_c, 9, 54, 12
9, 17742, Note_on_c, 9, 54, 0
9, 17748, Note_on_c, 9, 54, 12
9, 17754, Note_on_c, 9, 54, 0
9, 17760, Note_on_c, 9, 54, 28
9, 17766, Note_on_c, 9, 54, 0
9, 17772, Note_on_c, 9, 54, 1
9, 17778, Note_on_c, 9, 54, 0
9, 17784, Note_on_c, 9, 54, 1
9, 17790, Note_on_c, 9, 54, 0
9, 17796, Note_on_c, 9, 54, 1
9, 17802, Note_on_c, 9, 54, 0
9, 17808, Note_on_c, 9, 54, 1
9, 17814, Note_on_c, 9, 54, 0
9, 17820, Note_on_c, 9, 54, 1
9, 17826, Note_on_c, 9, 54, 0
9, 17832, Note_on_c, 9, 54, 1
9, 17838, Note_on_c, 9, 54, 0
9, 17844, Note_on_c, 9, 54, 1
9, 17850, Note_on_c, 9, 54, 0
9, 17856, Note_on_c, 9, 54, 1
9, 17862, Note_on_c, 9, 54, 0
9, 17868, Note_on_c, 9, 54, 1
9, 17874, Note_on_c, 9, 54, 0
9, 17880, Note_on_c, 9, 54, 1
9, 17886, Note_on_c, 9, 54, 0
9, 17892, Note_on_c, 9, 54, 1
9, 17898, Note_on_c, 9, 54, 0
9, 17904, Note_on_c, 9, 54, 1
9, 17910, Note_on_c, 9, 54, 0
9, 17916, Note_on_c, 9, 54, 1
9, 17922, Note_on_c, 9, 54, 0
9, 17928, Note_on_c, 9, 54, 1
9, 17934, Note_on_c, 9, 54, 0
9, 17940, Note_on_c, 9, 54, 1
9, 17946, Note_on_c, 9, 54, 0
9, 19392, Note_on_c, 9, 49, 32
9, 19392, Note_on_c, 9, 77, 16
9, 19404, Note_on_c, 9, 49, 0
9, 19440, Note_on_c, 9, 77, 0
9, 24384, Note_on_c, 9, 46, 32
9, 24408, Note_on_c, 9, 46, 0
9, 24432, Note_on_c, 9, 46, 32
9, 24456, Note_on_c, 9, 46, 0
9, 24480, Note_on_c, 9, 46, 48
9, 24504, Note_on_c, 9, 46, 0
9, 24528, Note_on_c, 9, 46, 48
9, 24552, Note_on_c, 9, 46, 0
9, 24576, Note_on_c, 9, 46, 64
9, 24600, Note_on_c, 9, 46, 0
9, 24624, Note_on_c, 9, 46, 64
9, 24648, Note_on_c, 9, 46, 0
9, 24672, Note_on_c, 9, 46, 80
9, 24696, Note_on_c, 9, 46, 0
9, 24720, Note_on_c, 9, 46, 80
9, 24744, Note_on_c, 9, 46, 0
9, 24768, Note_on_c, 9, 46, 96
9, 24792, Note_on_c, 9, 46, 0
9, 24816, Note_on_c, 9, 46, 96
9, 24840, Note_on_c, 9, 46, 0
9, 24864, Note_on_c, 9, 46, 112
9, 24888, Note_on_c, 9, 46, 0
9, 24912, Note_on_c, 9, 46, 112
9, 24936, Note_on_c, 9, 46, 0
9, 24960, Note_on_c, 9, 46, 127
9, 24984, Note_on_c, 9, 46, 0
9, 25008, Note_on_c, 9, 46, 127
9, 25032, Note_on_c, 9, 46, 0
9, 25056, Note_on_c, 9, 46, 127
9, 25080, Note_on_c, 9, 46, 0
9, 25104, Note_on_c, 9, 38, 112
9, 25110, Note_on_c, 9, 38, 0
9, 25116, Note_on_c, 9, 38, 112
9, 25122, Note_on_c, 9, 38, 0
9, 25128, Note_on_c, 9, 38, 112
9, 25134, Note_on_c, 9, 38, 0
9, 25140, Note_on_c, 9, 38, 112
9, 25146, Note_on_c, 9, 38, 0
9, 25152, Note_on_c, 9, 38, 112
9, 25158, Note_on_c, 9, 38, 0
9, 25164, Note_on_c, 9, 46, 48
9, 25170, Note_on_c, 9, 46, 0
9, 25176, Note_on_c, 9, 46, 64
9, 25182, Note_on_c, 9, 46, 0
9, 25188, Note_on_c, 9, 46, 80
9, 25194, Note_on_c, 9, 46, 0
9, 25200, Note_on_c, 9, 46, 96
9, 25206, Note_on_c, 9, 46, 0
9, 25212, Note_on_c, 9, 46, 112
9, 25218, Note_on_c, 9, 46, 0
9, 25248, Note_on_c, 9, 38, 112
9, 25254, Note_on_c, 9, 38, 0
9, 25260, Note_on_c, 9, 38, 112
9, 25266, Note_on_c, 9, 38, 0
9, 25272, Note_on_c, 9, 38, 112
9, 25278, Note_on_c, 9, 38, 0
9, 25284, Note_on_c, 9, 38, 112
9, 25290, Note_on_c, 9, 38, 0
9, 25296, Note_on_c, 9, 38, 112
9, 25302, Note_on_c, 9, 38, 0
9, 25308, Note_on_c, 9, 46, 48
9, 25314, Note_on_c, 9, 46, 0
9, 25320, Note_on_c, 9, 46, 64
9, 25326, Note_on_c, 9, 46, 0
9, 25332, Note_on_c, 9, 46, 80
9, 25338, Note_on_c, 9, 46, 0
9, 25344, Note_on_c, 9, 46, 96
9, 25350, Note_on_c, 9, 46, 0
9, 25356, Note_on_c, 9, 46, 112
9, 25362, Note_on_c, 9, 46, 0
9, 25392, Note_on_c, 9, 38, 112
9, 25398, Note_on_c, 9, 38, 0
9, 25404, Note_on_c, 9, 38, 112
9, 25410, Note_on_c, 9, 38, 0
9, 25416, Note_on_c, 9, 38, 112
9, 25422, Note_on_c, 9, 38, 0
9, 25428, Note_on_c, 9, 38, 112
9, 25434, Note_on_c, 9, 38, 0
9, 25440, Note_on_c, 9, 36, 96
9, 25440, Note_on_c, 9, 49, 96
9, 25452, Note_on_c, 9, 49, 0
9, 25452, Note_on_c, 9, 36, 0
9, 25488, Note_on_c, 9, 42, 96
9, 25512, Note_on_c, 9, 42, 0
9, 25536, Note_on_c, 9, 42, 96
9, 25560, Note_on_c, 9, 42, 0
9, 25584, Note_on_c, 9, 38, 96
9, 25584, Note_on_c, 9, 42, 96
9, 25608, Note_on_c, 9, 42, 0
9, 25608, Note_on_c, 9, 38, 0
9, 25632, Note_on_c, 9, 42, 96
9, 25656, Note_on_c, 9, 42, 0
9, 25680, Note_on_c, 9, 42, 96
9, 25704, Note_on_c, 9, 42, 0
9, 25704, Note_on_c, 9, 36, 64
9, 25716, Note_on_c, 9, 36, 0
9, 25728, Note_on_c, 9, 36, 96
9, 25728, Note_on_c, 9, 42, 96
9, 25752, Note_on_c, 9, 42, 0
9, 25776, Note_on_c, 9, 36, 0
9, 25776, Note_on_c, 9, 42, 96
9, 25800, Note_on_c, 9, 42, 0
9, 25824, Note_on_c, 9, 42, 96
9, 25848, Note_on_c, 9, 42, 0
9, 25872, Note_on_c, 9, 38, 96
9, 25872, Note_on_c, 9, 42, 96
9, 25896, Note_on_c, 9, 42, 0
9, 25896, Note_on_c, 9, 38, 0
9, 25920, Note_on_c, 9, 42, 96
9, 25944, Note_on_c, 9, 42, 0
9, 25968, Note_on_c, 9, 42, 96
9, 25992, Note_on_c, 9, 42, 0
9, 26016, Note_on_c, 9, 36, 96
9, 26016, Note_on_c, 9, 42, 96
9, 26040, Note_on_c, 9, 42, 0
9, 26064, Note_on_c, 9, 36, 0
9, 26064, Note_on_c, 9, 42, 96
9, 26088, Note_on_c, 9, 42, 0
9, 26112, Note_on_c, 9, 42, 96
9, 26136, Note_on_c, 9, 42, 0
9, 26160, Note_on_c, 9, 38, 96
9, 26160, Note_on_c, 9, 42, 96
9, 26184, Note_on_c, 9, 42, 0
9, 26184, Note_on_c, 9, 38, 0
9, 26208, Note_on_c, 9, 42, 96
9, 26232, Note_on_c, 9, 42, 0
9, 26256, Note_on_c, 9, 42, 96
9, 26280, Note_on_c, 9, 42, 0
9, 26304, Note_on_c, 9, 36, 96
9, 26304, Note_on_c, 9, 42, 96
9, 26328, Note_on_c, 9, 42, 0
9, 26352, Note_on_c, 9, 36, 0
9, 26352, Note_on_c, 9, 42, 96
9, 26376, Note_on_c, 9, 42, 0
9, 26400, Note_on_c, 9, 42, 96
9, 26424, Note_on_c, 9, 42, 0
9, 26448, Note_on_c, 9, 38, 96
9, 26448, Note_on_c, 9, 42, 96
9, 26472, Note_on_c, 9, 42, 0
9, 26472, Note_on_c, 9, 38, 0
9, 26496, Note_on_c, 9, 42, 96
9, 26520, Note_on_c, 9, 42, 0
9, 26544, Note_on_c, 9, 42, 96
9, 26568, Note_on_c, 9, 42, 0
9, 26592, Note_on_c, 9, 36, 96
9, 26592, Note_on_c, 9, 42, 96
9, 26616, Note_on_c, 9, 42, 0
9, 26640, Note_on_c, 9, 36, 0
9, 26640, Note_on_c, 9, 42, 96
9, 26664, Note_on_c, 9, 42, 0
9, 26688, Note_on_c, 9, 42, 96
9, 26712, Note_on_c, 9, 42, 0
9, 26736, Note_on_c, 9, 38, 96
9, 26736, Note_on_c, 9, 42, 96
9, 26760, Note_on_c, 9, 42, 0
9, 26760, Note_on_c, 9, 38, 0
9, 26784, Note_on_c, 9, 42, 96
9, 26808, Note_on_c, 9, 42, 0
9, 26832, Note_on_c, 9, 42, 96
9, 26856, Note_on_c, 9, 42, 0
9, 26880, Note_on_c, 9, 36, 96
9, 26880, Note_on_c, 9, 42, 96
9, 26904, Note_on_c, 9, 42, 0
9, 26928, Note_on_c, 9, 36, 0
9, 26928, Note_on_c, 9, 42, 96
9, 26952, Note_on_c, 9, 42, 0
9, 26976, Note_on_c, 9, 42, 96
9, 27000, Note_on_c, 9, 42, 0
9, 27024, Note_on_c, 9, 38, 96
9, 27024, Note_on_c, 9, 42, 96
9, 27048, Note_on_c, 9, 42, 0
9, 27048, Note_on_c, 9, 38, 0
9, 27072, Note_on_c, 9, 42, 96
9, 27096, Note_on_c, 9, 42, 0
9, 27120, Note_on_c, 9, 42, 96
9, 27144, Note_on_c, 9, 42, 0
9, 27168, Note_on_c, 9, 36, 91
9, 27168, Note_on_c, 9, 42, 91
9, 27192, Note_on_c, 9, 42, 0
9, 27216, Note_on_c, 9, 36, 0
9, 27216, Note_on_c, 9, 42, 91
9, 27240, Note_on_c, 9, 42, 0
9, 27264, Note_on_c, 9, 42, 91
9, 27288, Note_on_c, 9, 42, 0
9, 27312, Note_on_c, 9, 38, 91
9, 27312, Note_on_c, 9, 42, 91
9, 27336, Note_on_c, 9, 42, 0
9, 27336, Note_on_c, 9, 38, 0
9, 27360, Note_on_c, 9, 42, 91
9, 27384, Note_on_c, 9, 42, 0
9, 27408, Note_on_c, 9, 42, 91
9, 27432, Note_on_c, 9, 42, 0
9, 27456, Note_on_c, 9, 36, 86
9, 27456, Note_on_c, 9, 42, 86
9, 27480, Note_on_c, 9, 42, 0
9, 27504, Note_on_c, 9, 36, 0
9, 27504, Note_on_c, 9, 42, 86
9, 27528, Note_on_c, 9, 42, 0
9, 27552, Note_on_c, 9, 42, 86
9, 27576, Note_on_c, 9, 42, 0
9, 27600, Note_on_c, 9, 38, 86
9, 27600, Note_on_c, 9, 42, 86
9, 27624, Note_on_c, 9, 42, 0
9, 27624, Note_on_c, 9, 38, 0
9, 27648, Note_on_c, 9, 42, 86
9, 27672, Note_on_c, 9, 42, 0
9, 27696, Note_on_c, 9, 42, 86
9, 27720, Note_on_c, 9, 42, 0
9, 27744, Note_on_c, 9, 36, 76
9, 27744, Note_on_c, 9, 42, 76
9, 27768, Note_on_c, 9, 42, 0
9, 27792, Note_on_c, 9, 36, 0
9, 27792, Note_on_c, 9, 42, 76
9, 27816, Note_on_c, 9, 42, 0
9, 27840, Note_on_c, 9, 42, 76
9, 27864, Note_on_c, 9, 42, 0
9, 27888, Note_on_c, 9, 38, 76
9, 27888, Note_on_c, 9, 42, 76
9, 27912, Note_on_c, 9, 42, 0
9, 27912, Note_on_c, 9, 38, 0
9, 27936, Note_on_c, 9, 42, 76
9, 27960, Note_on_c, 9, 42, 0
9, 27984, Note_on_c, 9, 42, 76
9, 28008, Note_on_c, 9, 42, 0
9, 28032, Note_on_c, 9, 36, 66
9, 28032, Note_on_c, 9, 42, 66
9, 28056, Note_on_c, 9, 42, 0
9, 28080, Note_on_c, 9, 36, 0
9, 28080, Note_on_c, 9, 42, 66
9, 28104, Note_on_c, 9, 42, 0
9, 28128, Note_on_c, 9, 42, 66
9, 28152, Note_on_c, 9, 42, 0
9, 28176, Note_on_c, 9, 38, 66
9, 28176, Note_on_c, 9, 42, 66
9, 28200, Note_on_c, 9, 42, 0
9, 28200, Note_on_c, 9, 38, 0
9, 28224, Note_on_c, 9, 42, 66
9, 28248, Note_on_c, 9, 42, 0
9, 28272, Note_on_c, 9, 42, 66
9, 28296, Note_on_c, 9, 42, 0
9, 28296, End_track
10, 0, Start_track
10, 0, MIDI_port, 0
10, 0, Title_t, "Piccolo"
10, 0, Program_c, 12, 72
10, 0, Control_c, 12, 7, 60
10, 0, Control_c, 12, 10, 64
10, 9552, Note_on_c, 12, 81, 106
10, 9563, Note_on_c, 12, 81, 0
10, 9564, Note_on_c, 12, 85, 110
10, 9575, Note_on_c, 12, 85, 0
10, 9576, Note_on_c, 12, 88, 98
10, 9587, Note_on_c, 12, 88, 0
10, 9588, Note_on_c, 12, 93, 90
10, 9599, Note_on_c, 12, 93, 0
10, 9600, Note_on_c, 12, 97, 103
10, 9611, Note_on_c, 12, 97, 0
10, 9612, Note_on_c, 12, 93, 98
10, 9623, Note_on_c, 12, 93, 0
10, 9624, Note_on_c, 12, 88, 98
10, 9635, Note_on_c, 12, 88, 0
10, 9636, Note_on_c, 12, 85, 103
10, 9647, Note_on_c, 12, 85, 0
10, 9648, Note_on_c, 12, 81, 106
10, 9659, Note_on_c, 12, 81, 0
10, 9660, Note_on_c, 12, 85, 103
10, 9671, Note_on_c, 12, 85, 0
10, 9672, Note_on_c, 12, 88, 90
10, 9683, Note_on_c, 12, 88, 0
10, 9684, Note_on_c, 12, 93, 90
10, 9695, Note_on_c, 12, 93, 0
10, 9696, Note_on_c, 12, 97, 110
10, 9707, Note_on_c, 12, 97, 0
10, 9708, Note_on_c, 12, 93, 102
10, 9719, Note_on_c, 12, 93, 0
10, 9720, Note_on_c, 12, 88, 106
10, 9731, Note_on_c, 12, 88, 0
10, 9732, Note_on_c, 12, 85, 103
10, 9743, Note_on_c, 12, 85, 0
10, 9744, Note_on_c, 12, 81, 102
10, 9755, Note_on_c, 12, 81, 0
10, 9756, Note_on_c, 12, 87, 103
10, 9767, Note_on_c, 12, 87, 0
10, 9768, Note_on_c, 12, 90, 110
10, 9779, Note_on_c, 12, 90, 0
10, 9780, Note_on_c, 12, 93, 95
10, 9791, Note_on_c, 12, 93, 0
10, 9792, Note_on_c, 12, 92, 98
10, 9803, Note_on_c, 12, 92, 0
10, 9804, Note_on_c, 12, 93, 83
10, 9815, Note_on_c, 12, 93, 0
10, 9816, Note_on_c, 12, 90, 110
10, 9827, Note_on_c, 12, 90, 0
10, 9828, Note_on_c, 12, 87, 110
10, 9839, Note_on_c, 12, 87, 0
10, 9840, Note_on_c, 12, 81, 110
10, 9851, Note_on_c, 12, 81, 0
10, 9852, Note_on_c, 12, 87, 110
10, 9863, Note_on_c, 12, 87, 0
10, 9864, Note_on_c, 12, 90, 110
10, 9875, Note_on_c, 12, 90, 0
10, 9876, Note_on_c, 12, 93, 93
10, 9887, Note_on_c, 12, 93, 0
10, 9888, Note_on_c, 12, 92, 103
10, 9899, Note_on_c, 12, 92, 0
10, 9900, Note_on_c, 12, 93, 93
10, 9911, Note_on_c, 12, 93, 0
10, 9912, Note_on_c, 12, 90, 103
10, 9923, Note_on_c, 12, 90, 0
10, 9924, Note_on_c, 12, 87, 110
10, 9935, Note_on_c, 12, 87, 0
10, 9936, Note_on_c, 12, 81, 102
10, 9947, Note_on_c, 12, 81, 0
10, 9948, Note_on_c, 12, 85, 98
10, 9959, Note_on_c, 12, 85, 0
10, 9960, Note_on_c, 12, 88, 93
10, 9971, Note_on_c, 12, 88, 0
10, 9972, Note_on_c, 12, 93, 93
10, 9983, Note_on_c, 12, 93, 0
10, 9984, Note_on_c, 12, 97, 103
10, 9995, Note_on_c, 12, 97, 0
10, 9996, Note_on_c, 12, 93, 102
10, 10007, Note_on_c, 12, 93, 0
10, 10008, Note_on_c, 12, 88, 98
10, 10019, Note_on_c, 12, 88, 0
10, 10020, Note_on_c, 12, 85, 110
10, 10031, Note_on_c, 12, 85, 0
10, 10032, Note_on_c, 12, 81, 106
10, 10043, Note_on_c, 12, 81, 0
10, 10044, Note_on_c, 12, 85, 103
10, 10055, Note_on_c, 12, 85, 0
10, 10056, Note_on_c, 12, 88, 98
10, 10067, Note_on_c, 12, 88, 0
10, 10068, Note_on_c, 12, 93, 98
10, 10079, Note_on_c, 12, 93, 0
10, 10080, Note_on_c, 12, 97, 90
10, 10091, Note_on_c, 12, 97, 0
10, 10092, Note_on_c, 12, 93, 95
10, 10103, Note_on_c, 12, 93, 0
10, 10104, Note_on_c, 12, 88, 93
10, 10115, Note_on_c, 12, 88, 0
10, 10116, Note_on_c, 12, 85, 110
10, 10127, Note_on_c, 12, 85, 0
10, 10128, Note_on_c, 12, 81, 106
10, 10139, Note_on_c, 12, 81, 0
10, 10140, Note_on_c, 12, 87, 103
10, 10151, Note_on_c, 12, 87, 0
10, 10152, Note_on_c, 12, 90, 103
10, 10163, Note_on_c, 12, 90, 0
10, 10164, Note_on_c, 12, 93, 90
10, 10175, Note_on_c, 12, 93, 0
10, 10176, Note_on_c, 12, 92, 98
10, 10187, Note_on_c, 12, 92, 0
10, 10188, Note_on_c, 12, 93, 90
10, 10199, Note_on_c, 12, 93, 0
10, 10200, Note_on_c, 12, 90, 103
10, 10211, Note_on_c, 12, 90, 0
10, 10212, Note_on_c, 12, 87, 110
10, 10223, Note_on_c, 12, 87, 0
10, 10224, Note_on_c, 12, 81, 106
10, 10235, Note_on_c, 12, 81, 0
10, 10236, Note_on_c, 12, 87, 110
10, 10247, Note_on_c, 12, 87, 0
10, 10248, Note_on_c, 12, 90, 110
10, 10259, Note_on_c, 12, 90, 0
10, 10260, Note_on_c, 12, 93, 88
10, 10271, Note_on_c, 12, 93, 0
10, 10272, Note_on_c, 12, 92, 98
10, 10283, Note_on_c, 12, 92, 0
10, 10284, Note_on_c, 12, 93, 90
10, 10295, Note_on_c, 12, 93, 0
10, 10296, Note_on_c, 12, 90, 103
10, 10313, Note_on_c, 12, 90, 0
10, 10320, Note_on_c, 12, 81, 106
10, 10331, Note_on_c, 12, 81, 0
10, 10332, Note_on_c, 12, 85, 103
10, 10343, Note_on_c, 12, 85, 0
10, 10344, Note_on_c, 12, 88, 93
10, 10355, Note_on_c, 12, 88, 0
10, 10356, Note_on_c, 12, 93, 90
10, 10367, Note_on_c, 12, 93, 0
10, 10368, Note_on_c, 12, 97, 98
10, 10379, Note_on_c, 12, 97, 0
10, 10380, Note_on_c, 12, 93, 93
10, 10391, Note_on_c, 12, 93, 0
10, 10392, Note_on_c, 12, 88, 93
10, 10403, Note_on_c, 12, 88, 0
10, 10404, Note_on_c, 12, 85, 103
10, 10415, Note_on_c, 12, 85, 0
10, 10416, Note_on_c, 12, 81, 102
10, 10427, Note_on_c, 12, 81, 0
10, 10428, Note_on_c, 12, 85, 94
10, 10439, Note_on_c, 12, 85, 0
10, 10440, Note_on_c, 12, 88, 90
10, 10451, Note_on_c, 12, 88, 0
10, 10452, Note_on_c, 12, 93, 93
10, 10463, Note_on_c, 12, 93, 0
10, 10464, Note_on_c, 12, 97, 98
10, 10475, Note_on_c, 12, 97, 0
10, 10476, Note_on_c, 12, 93, 90
10, 10487, Note_on_c, 12, 93, 0
10, 10488, Note_on_c, 12, 88, 93
10, 10499, Note_on_c, 12, 88, 0
10, 10500, Note_on_c, 12, 85, 98
10, 10511, Note_on_c, 12, 85, 0
10, 10512, Note_on_c, 12, 81, 93
10, 10523, Note_on_c, 12, 81, 0
10, 10524, Note_on_c, 12, 87, 98
10, 10535, Note_on_c, 12, 87, 0
10, 10536, Note_on_c, 12, 90, 86
10, 10547, Note_on_c, 12, 90, 0
10, 10548, Note_on_c, 12, 93, 82
10, 10559, Note_on_c, 12, 93, 0
10, 10560, Note_on_c, 12, 92, 90
10, 10571, Note_on_c, 12, 92, 0
10, 10572, Note_on_c, 12, 93, 83
10, 10583, Note_on_c, 12, 93, 0
10, 10584, Note_on_c, 12, 90, 103
10, 10595, Note_on_c, 12, 90, 0
10, 10596, Note_on_c, 12, 87, 103
10, 10607, Note_on_c, 12, 87, 0
10, 10608, Note_on_c, 12, 81, 95
10, 10619, Note_on_c, 12, 81, 0
10, 10620, Note_on_c, 12, 87, 103
10, 10631, Note_on_c, 12, 87, 0
10, 10632, Note_on_c, 12, 90, 103
10, 10643, Note_on_c, 12, 90, 0
10, 10644, Note_on_c, 12, 93, 90
10, 10655, Note_on_c, 12, 93, 0
10, 10656, Note_on_c, 12, 92, 94
10, 10667, Note_on_c, 12, 92, 0
10, 10668, Note_on_c, 12, 93, 90
10, 10679, Note_on_c, 12, 93, 0
10, 10680, Note_on_c, 12, 90, 103
10, 10691, Note_on_c, 12, 90, 0
10, 10692, Note_on_c, 12, 87, 103
10, 10703, Note_on_c, 12, 87, 0
10, 10704, Note_on_c, 12, 81, 95
10, 10715, Note_on_c, 12, 81, 0
10, 10716, Note_on_c, 12, 85, 79
10, 10727, Note_on_c, 12, 85, 0
10, 10728, Note_on_c, 12, 88, 98
10, 10739, Note_on_c, 12, 88, 0
10, 10740, Note_on_c, 12, 93, 95
10, 10751, Note_on_c, 12, 93, 0
10, 10752, Note_on_c, 12, 97, 103
10, 10763, Note_on_c, 12, 97, 0
10, 10764, Note_on_c, 12, 93, 95
10, 10775, Note_on_c, 12, 93, 0
10, 10776, Note_on_c, 12, 88, 98
10, 10787, Note_on_c, 12, 88, 0
10, 10788, Note_on_c, 12, 85, 98
10, 10799, Note_on_c, 12, 85, 0
10, 10800, Note_on_c, 12, 81, 98
10, 10811, Note_on_c, 12, 81, 0
10, 10812, Note_on_c, 12, 85, 103
10, 10823, Note_on_c, 12, 85, 0
10, 10824, Note_on_c, 12, 88, 93
10, 10835, Note_on_c, 12, 88, 0
10, 10836, Note_on_c, 12, 93, 98
10, 10847, Note_on_c, 12, 93, 0
10, 10848, Note_on_c, 12, 97, 103
10, 10859, Note_on_c, 12, 97, 0
10, 10860, Note_on_c, 12, 93, 95
10, 10871, Note_on_c, 12, 93, 0
10, 10872, Note_on_c, 12, 88, 95
10, 10883, Note_on_c, 12, 88, 0
10, 10884, Note_on_c, 12, 85, 98
10, 10895, Note_on_c, 12, 85, 0
10, 10896, Note_on_c, 12, 81, 106
10, 10907, Note_on_c, 12, 81, 0
10, 10908, Note_on_c, 12, 87, 103
10, 10919, Note_on_c, 12, 87, 0
10, 10920, Note_on_c, 12, 90, 98
10, 10931, Note_on_c, 12, 90, 0
10, 10932, Note_on_c, 12, 93, 86
10, 10943, Note_on_c, 12, 93, 0
10, 10944, Note_on_c, 12, 92, 98
10, 10955, Note_on_c, 12, 92, 0
10, 10956, Note_on_c, 12, 93, 88
10, 10967, Note_on_c, 12, 93, 0
10, 10968, Note_on_c, 12, 90, 103
10, 10979, Note_on_c, 12, 90, 0
10, 10980, Note_on_c, 12, 87, 103
10, 10991, Note_on_c, 12, 87, 0
10, 10992, Note_on_c, 12, 81, 106
10, 11003, Note_on_c, 12, 81, 0
10, 11004, Note_on_c, 12, 87, 103
10, 11015, Note_on_c, 12, 87, 0
10, 11016, Note_on_c, 12, 90, 110
10, 11027, Note_on_c, 12, 90, 0
10, 11028, Note_on_c, 12, 93, 102
10, 11039, Note_on_c, 12, 93, 0
10, 11040, Note_on_c, 12, 92, 103
10, 11051, Note_on_c, 12, 92, 0
10, 11052, Note_on_c, 12, 93, 95
10, 11063, Note_on_c, 12, 93, 0
10, 11064, Note_on_c, 12, 90, 103
10, 11075, Note_on_c, 12, 90, 0
10, 11076, Note_on_c, 12, 87, 110
10, 11087, Note_on_c, 12, 87, 0
10, 11088, Note_on_c, 12, 85, 79
10, 11099, Note_on_c, 12, 85, 0
10, 11100, Note_on_c, 12, 88, 93
10, 11111, Note_on_c, 12, 88, 0
10, 11112, Note_on_c, 12, 92, 82
10, 11123, Note_on_c, 12, 92, 0
10, 11124, Note_on_c, 12, 97, 103
10, 11135, Note_on_c, 12, 97, 0
10, 11136, Note_on_c, 12, 100, 93
10, 11147, Note_on_c, 12, 100, 0
10, 11148, Note_on_c, 12, 97, 103
10, 11159, Note_on_c, 12, 97, 0
10, 11160, Note_on_c, 12, 92, 103
10, 11171, Note_on_c, 12, 92, 0
10, 11172, Note_on_c, 12, 88, 106
10, 11183, Note_on_c, 12, 88, 0
10, 11184, Note_on_c, 12, 81, 93
10, 11195, Note_on_c, 12, 81, 0
10, 11196, Note_on_c, 12, 88, 93
10, 11207, Note_on_c, 12, 88, 0
10, 11208, Note_on_c, 12, 92, 98
10, 11219, Note_on_c, 12, 92, 0
10, 11220, Note_on_c, 12, 97, 103
10, 11231, Note_on_c, 12, 97, 0
10, 11232, Note_on_c, 12, 100, 93
10, 11243, Note_on_c, 12, 100, 0
10, 11244, Note_on_c, 12, 97, 103
10, 11255, Note_on_c, 12, 97, 0
10, 11256, Note_on_c, 12, 92, 103
10, 11267, Note_on_c, 12, 92, 0
10, 11268, Note_on_c, 12, 88, 95
10, 11279, Note_on_c, 12, 88, 0
10, 11280, Note_on_c, 12, 78, 94
10, 11291, Note_on_c, 12, 78, 0
10, 11292, Note_on_c, 12, 81, 90
10, 11303, Note_on_c, 12, 81, 0
10, 11304, Note_on_c, 12, 86, 93
10, 11315, Note_on_c, 12, 86, 0
10, 11316, Note_on_c, 12, 90, 103
10, 11327, Note_on_c, 12, 90, 0
10, 11328, Note_on_c, 12, 93, 88
10, 11339, Note_on_c, 12, 93, 0
10, 11340, Note_on_c, 12, 90, 103
10, 11351, Note_on_c, 12, 90, 0
10, 11352, Note_on_c, 12, 86, 95
10, 11363, Note_on_c, 12, 86, 0
10, 11364, Note_on_c, 12, 81, 98
10, 11375, Note_on_c, 12, 81, 0
10, 11376, Note_on_c, 12, 78, 98
10, 11387, Note_on_c, 12, 78, 0
10, 11388, Note_on_c, 12, 81, 98
10, 11399, Note_on_c, 12, 81, 0
10, 11400, Note_on_c, 12, 86, 90
10, 11411, Note_on_c, 12, 86, 0
10, 11412, Note_on_c, 12, 90, 98
10, 11423, Note_on_c, 12, 90, 0
10, 11424, Note_on_c, 12, 93, 90
10, 11435, Note_on_c, 12, 93, 0
10, 11436, Note_on_c, 12, 90, 103
10, 11447, Note_on_c, 12, 90, 0
10, 11448, Note_on_c, 12, 86, 102
10, 11459, Note_on_c, 12, 86, 0
10, 11460, Note_on_c, 12, 81, 98
10, 11471, Note_on_c, 12, 81, 0
10, 11472, Note_on_c, 12, 83, 106
10, 11483, Note_on_c, 12, 83, 0
10, 11484, Note_on_c, 12, 86, 95
10, 11495, Note_on_c, 12, 86, 0
10, 11496, Note_on_c, 12, 90, 103
10, 11507, Note_on_c, 12, 90, 0
10, 11508, Note_on_c, 12, 95, 88
10, 11519, Note_on_c, 12, 95, 0
10, 11520, Note_on_c, 12, 98, 82
10, 11531, Note_on_c, 12, 98, 0
10, 11532, Note_on_c, 12, 95, 78
10, 11543, Note_on_c, 12, 95, 0
10, 11544, Note_on_c, 12, 90, 94
10, 11555, Note_on_c, 12, 90, 0
10, 11556, Note_on_c, 12, 86, 95
10, 11567, Note_on_c, 12, 86, 0
10, 11568, Note_on_c, 12, 81, 102
10, 11579, Note_on_c, 12, 81, 0
10, 11580, Note_on_c, 12, 86, 95
10, 11591, Note_on_c, 12, 86, 0
10, 11592, Note_on_c, 12, 90, 98
10, 11603, Note_on_c, 12, 90, 0
10, 11604, Note_on_c, 12, 95, 98
10, 11615, Note_on_c, 12, 95, 0
10, 11616, Note_on_c, 12, 98, 76
10, 11627, Note_on_c, 12, 98, 0
10, 11628, Note_on_c, 12, 95, 76
10, 11639, Note_on_c, 12, 95, 0
10, 11640, Note_on_c, 12, 90, 94
10, 11651, Note_on_c, 12, 90, 0
10, 11652, Note_on_c, 12, 86, 102
10, 11663, Note_on_c, 12, 86, 0
10, 11664, Note_on_c, 12, 79, 98
10, 11675, Note_on_c, 12, 79, 0
10, 11676, Note_on_c, 12, 84, 98
10, 11687, Note_on_c, 12, 84, 0
10, 11688, Note_on_c, 12, 88, 90
10, 11699, Note_on_c, 12, 88, 0
10, 11700, Note_on_c, 12, 91, 95
10, 11711, Note_on_c, 12, 91, 0
10, 11712, Note_on_c, 12, 96, 78
10, 11723, Note_on_c, 12, 96, 0
10, 11724, Note_on_c, 12, 91, 90
10, 11735, Note_on_c, 12, 91, 0
10, 11736, Note_on_c, 12, 88, 86
10, 11747, Note_on_c, 12, 88, 0
10, 11748, Note_on_c, 12, 86, 98
10, 11759, Note_on_c, 12, 86, 0
10, 11760, Note_on_c, 12, 84, 106
10, 11771, Note_on_c, 12, 84, 0
10, 11772, Note_on_c, 12, 88, 102
10, 11783, Note_on_c, 12, 88, 0
10, 11784, Note_on_c, 12, 91, 95
10, 11795, Note_on_c, 12, 91, 0
10, 11796, Note_on_c, 12, 96, 80
10, 11807, Note_on_c, 12, 96, 0
10, 11808, Note_on_c, 12, 100, 93
10, 11819, Note_on_c, 12, 100, 0
10, 11820, Note_on_c, 12, 96, 93
10, 11831, Note_on_c, 12, 96, 0
10, 11832, Note_on_c, 12, 91, 93
10, 11843, Note_on_c, 12, 91, 0
10, 11844, Note_on_c, 12, 88, 95
10, 11855, Note_on_c, 12, 88, 0
10, 11856, Note_on_c, 12, 84, 98
10, 11867, Note_on_c, 12, 84, 0
10, 11868, Note_on_c, 12, 88, 98
10, 11879, Note_on_c, 12, 88, 0
10, 11880, Note_on_c, 12, 91, 98
10, 11891, Note_on_c, 12, 91, 0
10, 11892, Note_on_c, 12, 96, 90
10, 11903, Note_on_c, 12, 96, 0
10, 11904, Note_on_c, 12, 95, 102
10, 11915, Note_on_c, 12, 95, 0
10, 11916, Note_on_c, 12, 96, 90
10, 11927, Note_on_c, 12, 96, 0
10, 11928, Note_on_c, 12, 91, 102
10, 11939, Note_on_c, 12, 91, 0
10, 11940, Note_on_c, 12, 88, 93
10, 11951, Note_on_c, 12, 88, 0
10, 11952, Note_on_c, 12, 84, 95
10, 11963, Note_on_c, 12, 84, 0
10, 11964, Note_on_c, 12, 88, 102
10, 11975, Note_on_c, 12, 88, 0
10, 11976, Note_on_c, 12, 91, 95
10, 11987, Note_on_c, 12, 91, 0
10, 11988, Note_on_c, 12, 96, 98
10, 11999, Note_on_c, 12, 96, 0
10, 12000, Note_on_c, 12, 95, 95
10, 12011, Note_on_c, 12, 95, 0
10, 12012, Note_on_c, 12, 96, 90
10, 12023, Note_on_c, 12, 96, 0
10, 12024, Note_on_c, 12, 91, 98
10, 12035, Note_on_c, 12, 91, 0
10, 12036, Note_on_c, 12, 88, 98
10, 12047, Note_on_c, 12, 88, 0
10, 12048, Note_on_c, 12, 84, 102
10, 12059, Note_on_c, 12, 84, 0
10, 12060, Note_on_c, 12, 88, 98
10, 12071, Note_on_c, 12, 88, 0
10, 12072, Note_on_c, 12, 91, 93
10, 12083, Note_on_c, 12, 91, 0
10, 12084, Note_on_c, 12, 96, 90
10, 12095, Note_on_c, 12, 96, 0
10, 12096, Note_on_c, 12, 100, 90
10, 12107, Note_on_c, 12, 100, 0
10, 12108, Note_on_c, 12, 96, 88
10, 12119, Note_on_c, 12, 96, 0
10, 12120, Note_on_c, 12, 91, 95
10, 12131, Note_on_c, 12, 91, 0
10, 12132, Note_on_c, 12, 88, 95
10, 12143, Note_on_c, 12, 88, 0
10, 12144, Note_on_c, 12, 84, 95
10, 12155, Note_on_c, 12, 84, 0
10, 12156, Note_on_c, 12, 88, 93
10, 12167, Note_on_c, 12, 88, 0
10, 12168, Note_on_c, 12, 91, 95
10, 12179, Note_on_c, 12, 91, 0
10, 12180, Note_on_c, 12, 96, 95
10, 12191, Note_on_c, 12, 96, 0
10, 12192, Note_on_c, 12, 100, 80
10, 12203, Note_on_c, 12, 100, 0
10, 12204, Note_on_c, 12, 96, 98
10, 12215, Note_on_c, 12, 96, 0
10, 12216, Note_on_c, 12, 91, 95
10, 12227, Note_on_c, 12, 91, 0
10, 12228, Note_on_c, 12, 88, 98
10, 12239, Note_on_c, 12, 88, 0
10, 12240, Note_on_c, 12, 84, 102
10, 12251, Note_on_c, 12, 84, 0
10, 12252, Note_on_c, 12, 90, 103
10, 12263, Note_on_c, 12, 90, 0
10, 12264, Note_on_c, 12, 93, 95
10, 12275, Note_on_c, 12, 93, 0
10, 12276, Note_on_c, 12, 96, 86
10, 12287, Note_on_c, 12, 96, 0
10, 12288, Note_on_c, 12, 95, 98
10, 12299, Note_on_c, 12, 95, 0
10, 12300, Note_on_c, 12, 96, 83
10, 12311, Note_on_c, 12, 96, 0
10, 12312, Note_on_c, 12, 93, 98
10, 12323, Note_on_c, 12, 93, 0
10, 12324, Note_on_c, 12, 90, 94
10, 12335, Note_on_c, 12, 90, 0
10, 12336, Note_on_c, 12, 84, 95
10, 12347, Note_on_c, 12, 84, 0
10, 12348, Note_on_c, 12, 90, 98
10, 12359, Note_on_c, 12, 90, 0
10, 12360, Note_on_c, 12, 93, 90
10, 12371, Note_on_c, 12, 93, 0
10, 12372, Note_on_c, 12, 96, 86
10, 12383, Note_on_c, 12, 96, 0
10, 12384, Note_on_c, 12, 95, 95
10, 12395, Note_on_c, 12, 95, 0
10, 12396, Note_on_c, 12, 96, 82
10, 12407, Note_on_c, 12, 96, 0
10, 12408, Note_on_c, 12, 93, 93
10, 12419, Note_on_c, 12, 93, 0
10, 12420, Note_on_c, 12, 90, 98
10, 12431, Note_on_c, 12, 90, 0
10, 12432, Note_on_c, 12, 84, 98
10, 12443, Note_on_c, 12, 84, 0
10, 12444, Note_on_c, 12, 88, 106
10, 12455, Note_on_c, 12, 88, 0
10, 12456, Note_on_c, 12, 91, 93
10, 12467, Note_on_c, 12, 91, 0
10, 12468, Note_on_c, 12, 96, 86
10, 12479, Note_on_c, 12, 96, 0
10, 12480, Note_on_c, 12, 100, 90
10, 12491, Note_on_c, 12, 100, 0
10, 12492, Note_on_c, 12, 96, 90
10, 12503, Note_on_c, 12, 96, 0
10, 12504, Note_on_c, 12, 91, 95
10, 12515, Note_on_c, 12, 91, 0
10, 12516, Note_on_c, 12, 88, 95
10, 12527, Note_on_c, 12, 88, 0
10, 12528, Note_on_c, 12, 84, 106
10, 12539, Note_on_c, 12, 84, 0
10, 12540, Note_on_c, 12, 88, 106
10, 12551, Note_on_c, 12, 88, 0
10, 12552, Note_on_c, 12, 91, 98
10, 12563, Note_on_c, 12, 91, 0
10, 12564, Note_on_c, 12, 96, 90
10, 12575, Note_on_c, 12, 96, 0
10, 12576, Note_on_c, 12, 100, 90
10, 12587, Note_on_c, 12, 100, 0
10, 12588, Note_on_c, 12, 96, 86
10, 12599, Note_on_c, 12, 96, 0
10, 12600, Note_on_c, 12, 91, 95
10, 12611, Note_on_c, 12, 91, 0
10, 12612, Note_on_c, 12, 88, 95
10, 12623, Note_on_c, 12, 88, 0
10, 12624, Note_on_c, 12, 84, 95
10, 12635, Note_on_c, 12, 84, 0
10, 12636, Note_on_c, 12, 90, 103
10, 12647, Note_on_c, 12, 90, 0
10, 12648, Note_on_c, 12, 93, 90
10, 12659, Note_on_c, 12, 93, 0
10, 12660, Note_on_c, 12, 96, 95
10, 12671, Note_on_c, 12, 96, 0
10, 12672, Note_on_c, 12, 95, 95
10, 12683, Note_on_c, 12, 95, 0
10, 12684, Note_on_c, 12, 96, 65
10, 12695, Note_on_c, 12, 96, 0
10, 12696, Note_on_c, 12, 93, 106
10, 12707, Note_on_c, 12, 93, 0
10, 12708, Note_on_c, 12, 90, 98
10, 12719, Note_on_c, 12, 90, 0
10, 12720, Note_on_c, 12, 84, 98
10, 12731, Note_on_c, 12, 84, 0
10, 12732, Note_on_c, 12, 90, 110
10, 12743, Note_on_c, 12, 90, 0
10, 12744, Note_on_c, 12, 93, 95
10, 12755, Note_on_c, 12, 93, 0
10, 12756, Note_on_c, 12, 96, 93
10, 12767, Note_on_c, 12, 96, 0
10, 12768, Note_on_c, 12, 95, 106
10, 12779, Note_on_c, 12, 95, 0
10, 12780, Note_on_c, 12, 96, 90
10, 12791, Note_on_c, 12, 96, 0
10, 12792, Note_on_c, 12, 93, 102
10, 12803, Note_on_c, 12, 93, 0
10, 12804, Note_on_c, 12, 90, 94
10, 12815, Note_on_c, 12, 90, 0
10, 12816, Note_on_c, 12, 76, 95
10, 12827, Note_on_c, 12, 76, 0
10, 12828, Note_on_c, 12, 79, 93
10, 12839, Note_on_c, 12, 79, 0
10, 12840, Note_on_c, 12, 83, 93
10, 12851, Note_on_c, 12, 83, 0
10, 12852, Note_on_c, 12, 88, 98
10, 12863, Note_on_c, 12, 88, 0
10, 12864, Note_on_c, 12, 91, 93
10, 12875, Note_on_c, 12, 91, 0
10, 12876, Note_on_c, 12, 88, 95
10, 12887, Note_on_c, 12, 88, 0
10, 12888, Note_on_c, 12, 83, 98
10, 12899, Note_on_c, 12, 83, 0
10, 12900, Note_on_c, 12, 79, 90
10, 12911, Note_on_c, 12, 79, 0
10, 12912, Note_on_c, 12, 74, 88
10, 12923, Note_on_c, 12, 74, 0
10, 12924, Note_on_c, 12, 79, 93
10, 12935, Note_on_c, 12, 79, 0
10, 12936, Note_on_c, 12, 83, 82
10, 12947, Note_on_c, 12, 83, 0
10, 12948, Note_on_c, 12, 86, 90
10, 12959, Note_on_c, 12, 86, 0
10, 12960, Note_on_c, 12, 91, 86
10, 12971, Note_on_c, 12, 91, 0
10, 12972, Note_on_c, 12, 86, 86
10, 12983, Note_on_c, 12, 86, 0
10, 12984, Note_on_c, 12, 83, 88
10, 12995, Note_on_c, 12, 83, 0
10, 12996, Note_on_c, 12, 79, 93
10, 13007, Note_on_c, 12, 79, 0
10, 13008, Note_on_c, 12, 73, 50
10, 13019, Note_on_c, 12, 73, 0
10, 13020, Note_on_c, 12, 74, 69
10, 13031, Note_on_c, 12, 74, 0
10, 13032, Note_on_c, 12, 73, 55
10, 13043, Note_on_c, 12, 73, 0
10, 13044, Note_on_c, 12, 74, 80
10, 13055, Note_on_c, 12, 74, 0
10, 13056, Note_on_c, 12, 73, 79
10, 13067, Note_on_c, 12, 73, 0
10, 13068, Note_on_c, 12, 74, 78
10, 13079, Note_on_c, 12, 74, 0
10, 13080, Note_on_c, 12, 73, 66
10, 13091, Note_on_c, 12, 73, 0
10, 13092, Note_on_c, 12, 74, 71
10, 13103, Note_on_c, 12, 74, 0
10, 13104, Note_on_c, 12, 85, 82
10, 13115, Note_on_c, 12, 85, 0
10, 13116, Note_on_c, 12, 86, 73
10, 13127, Note_on_c, 12, 86, 0
10, 13128, Note_on_c, 12, 85, 94
10, 13139, Note_on_c, 12, 85, 0
10, 13140, Note_on_c, 12, 86, 78
10, 13151, Note_on_c, 12, 86, 0
10, 13152, Note_on_c, 12, 85, 94
10, 13163, Note_on_c, 12, 85, 0
10, 13164, Note_on_c, 12, 86, 71
10, 13175, Note_on_c, 12, 86, 0
10, 13176, Note_on_c, 12, 85, 94
10, 13187, Note_on_c, 12, 85, 0
10, 13188, Note_on_c, 12, 86, 86
10, 13199, Note_on_c, 12, 86, 0
10, 19392, Note_on_c, 12, 81, 106
10, 19403, Note_on_c, 12, 81, 0
10, 19404, Note_on_c, 12, 85, 110
10, 19415, Note_on_c, 12, 85, 0
10, 19416, Note_on_c, 12, 88, 98
10, 19427, Note_on_c, 12, 88, 0
10, 19428, Note_on_c, 12, 93, 90
10, 19439, Note_on_c, 12, 93, 0
10, 19440, Note_on_c, 12, 97, 103
10, 19451, Note_on_c, 12, 97, 0
10, 19452, Note_on_c, 12, 93, 98
10, 19463, Note_on_c, 12, 93, 0
10, 19464, Note_on_c, 12, 88, 98
10, 19475, Note_on_c, 12, 88, 0
10, 19476, Note_on_c, 12, 85, 103
10, 19487, Note_on_c, 12, 85, 0
10, 19488, Note_on_c, 12, 81, 106
10, 19499, Note_on_c, 12, 81, 0
10, 19500, Note_on_c, 12, 85, 103
10, 19511, Note_on_c, 12, 85, 0
10, 19512, Note_on_c, 12, 88, 90
10, 19523, Note_on_c, 12, 88, 0
10, 19524, Note_on_c, 12, 93, 90
10, 19535, Note_on_c, 12, 93, 0
10, 19536, Note_on_c, 12, 97, 110
10, 19547, Note_on_c, 12, 97, 0
10, 19548, Note_on_c, 12, 93, 102
10, 19559, Note_on_c, 12, 93, 0
10, 19560, Note_on_c, 12, 88, 106
10, 19571, Note_on_c, 12, 88, 0
10, 19572, Note_on_c, 12, 85, 103
10, 19583, Note_on_c, 12, 85, 0
10, 19584, Note_on_c, 12, 81, 102
10, 19595, Note_on_c, 12, 81, 0
10, 19596, Note_on_c, 12, 87, 103
10, 19607, Note_on_c, 12, 87, 0
10, 19608, Note_on_c, 12, 90, 110
10, 19619, Note_on_c, 12, 90, 0
10, 19620, Note_on_c, 12, 93, 95
10, 19631, Note_on_c, 12, 93, 0
10, 19632, Note_on_c, 12, 92, 98
10, 19643, Note_on_c, 12, 92, 0
10, 19644, Note_on_c, 12, 93, 83
10, 19655, Note_on_c, 12, 93, 0
10, 19656, Note_on_c, 12, 90, 110
10, 19667, Note_on_c, 12, 90, 0
10, 19668, Note_on_c, 12, 87, 110
10, 19679, Note_on_c, 12, 87, 0
10, 19680, Note_on_c, 12, 81, 110
10, 19691, Note_on_c, 12, 81, 0
10, 19692, Note_on_c, 12, 87, 110
10, 19703, Note_on_c, 12, 87, 0
10, 19704, Note_on_c, 12, 90, 110
10, 19715, Note_on_c, 12, 90, 0
10, 19716, Note_on_c, 12, 93, 93
10, 19727, Note_on_c, 12, 93, 0
10, 19728, Note_on_c, 12, 92, 103
10, 19739, Note_on_c, 12, 92, 0
10, 19740, Note_on_c, 12, 93, 93
10, 19751, Note_on_c, 12, 93, 0
10, 19752, Note_on_c, 12, 90, 103
10, 19763, Note_on_c, 12, 90, 0
10, 19764, Note_on_c, 12, 87, 110
10, 19775, Note_on_c, 12, 87, 0
10, 19776, Note_on_c, 12, 81, 102
10, 19787, Note_on_c, 12, 81, 0
10, 19788, Note_on_c, 12, 85, 98
10, 19799, Note_on_c, 12, 85, 0
10, 19800, Note_on_c, 12, 88, 93
10, 19811, Note_on_c, 12, 88, 0
10, 19812, Note_on_c, 12, 93, 93
10, 19823, Note_on_c, 12, 93, 0
10, 19824, Note_on_c, 12, 97, 103
10, 19835, Note_on_c, 12, 97, 0
10, 19836, Note_on_c, 12, 93, 102
10, 19847, Note_on_c, 12, 93, 0
10, 19848, Note_on_c, 12, 88, 98
10, 19859, Note_on_c, 12, 88, 0
10, 19860, Note_on_c, 12, 85, 110
10, 19871, Note_on_c, 12, 85, 0
10, 19872, Note_on_c, 12, 81, 106
10, 19883, Note_on_c, 12, 81, 0
10, 19884, Note_on_c, 12, 85, 103
10, 19895, Note_on_c, 12, 85, 0
10, 19896, Note_on_c, 12, 88, 98
10, 19907, Note_on_c, 12, 88, 0
10, 19908, Note_on_c, 12, 93, 98
10, 19919, Note_on_c, 12, 93, 0
10, 19920, Note_on_c, 12, 97, 90
10, 19931, Note_on_c, 12, 97, 0
10, 19932, Note_on_c, 12, 93, 95
10, 19943, Note_on_c, 12, 93, 0
10, 19944, Note_on_c, 12, 88, 93
10, 19955, Note_on_c, 12, 88, 0
10, 19956, Note_on_c, 12, 85, 110
10, 19967, Note_on_c, 12, 85, 0
10, 19968, Note_on_c, 12, 81, 106
10, 19979, Note_on_c, 12, 81, 0
10, 19980, Note_on_c, 12, 87, 103
10, 19991, Note_on_c, 12, 87, 0
10, 19992, Note_on_c, 12, 90, 103
10, 20003, Note_on_c, 12, 90, 0
10, 20004, Note_on_c, 12, 93, 90
10, 20015, Note_on_c, 12, 93, 0
10, 20016, Note_on_c, 12, 92, 98
10, 20027, Note_on_c, 12, 92, 0
10, 20028, Note_on_c, 12, 93, 90
10, 20039, Note_on_c, 12, 93, 0
10, 20040, Note_on_c, 12, 90, 103
10, 20051, Note_on_c, 12, 90, 0
10, 20052, Note_on_c, 12, 87, 110
10, 20063, Note_on_c, 12, 87, 0
10, 20064, Note_on_c, 12, 81, 106
10, 20075, Note_on_c, 12, 81, 0
10, 20076, Note_on_c, 12, 87, 110
10, 20087, Note_on_c, 12, 87, 0
10, 20088, Note_on_c, 12, 90, 110
10, 20099, Note_on_c, 12, 90, 0
10, 20100, Note_on_c, 12, 93, 88
10, 20111, Note_on_c, 12, 93, 0
10, 20112, Note_on_c, 12, 92, 98
10, 20123, Note_on_c, 12, 92, 0
10, 20124, Note_on_c, 12, 93, 90
10, 20135, Note_on_c, 12, 93, 0
10, 20136, Note_on_c, 12, 90, 103
10, 20153, Note_on_c, 12, 90, 0
10, 20160, Note_on_c, 12, 81, 106
10, 20171, Note_on_c, 12, 81, 0
10, 20172, Note_on_c, 12, 85, 103
10, 20183, Note_on_c, 12, 85, 0
10, 20184, Note_on_c, 12, 88, 93
10, 20195, Note_on_c, 12, 88, 0
10, 20196, Note_on_c, 12, 93, 90
10, 20207, Note_on_c, 12, 93, 0
10, 20208, Note_on_c, 12, 97, 98
10, 20219, Note_on_c, 12, 97, 0
10, 20220, Note_on_c, 12, 93, 93
10, 20231, Note_on_c, 12, 93, 0
10, 20232, Note_on_c, 12, 88, 93
10, 20243, Note_on_c, 12, 88, 0
10, 20244, Note_on_c, 12, 85, 103
10, 20255, Note_on_c, 12, 85, 0
10, 20256, Note_on_c, 12, 81, 102
10, 20267, Note_on_c, 12, 81, 0
10, 20268, Note_on_c, 12, 85, 94
10, 20279, Note_on_c, 12, 85, 0
10, 20280, Note_on_c, 12, 88, 90
10, 20291, Note_on_c, 12, 88, 0
10, 20292, Note_on_c, 12, 93, 93
10, 20303, Note_on_c, 12, 93, 0
10, 20304, Note_on_c, 12, 97, 98
10, 20315, Note_on_c, 12, 97, 0
10, 20316, Note_on_c, 12, 93, 90
10, 20327, Note_on_c, 12, 93, 0
10, 20328, Note_on_c, 12, 88, 93
10, 20339, Note_on_c, 12, 88, 0
10, 20340, Note_on_c, 12, 85, 98
10, 20351, Note_on_c, 12, 85, 0
10, 20352, Note_on_c, 12, 81, 93
10, 20363, Note_on_c, 12, 81, 0
10, 20364, Note_on_c, 12, 87, 98
10, 20375, Note_on_c, 12, 87, 0
10, 20376, Note_on_c, 12, 90, 86
10, 20387, Note_on_c, 12, 90, 0
10, 20388, Note_on_c, 12, 93, 82
10, 20399, Note_on_c, 12, 93, 0
10, 20400, Note_on_c, 12, 92, 90
10, 20411, Note_on_c, 12, 92, 0
10, 20412, Note_on_c, 12, 93, 83
10, 20423, Note_on_c, 12, 93, 0
10, 20424, Note_on_c, 12, 90, 103
10, 20435, Note_on_c, 12, 90, 0
10, 20436, Note_on_c, 12, 87, 103
10, 20447, Note_on_c, 12, 87, 0
10, 20448, Note_on_c, 12, 81, 95
10, 20459, Note_on_c, 12, 81, 0
10, 20460, Note_on_c, 12, 87, 103
10, 20471, Note_on_c, 12, 87, 0
10, 20472, Note_on_c, 12, 90, 103
10, 20483, Note_on_c, 12, 90, 0
10, 20484, Note_on_c, 12, 93, 90
10, 20495, Note_on_c, 12, 93, 0
10, 20496, Note_on_c, 12, 92, 94
10, 20507, Note_on_c, 12, 92, 0
10, 20508, Note_on_c, 12, 93, 90
10, 20519, Note_on_c, 12, 93, 0
10, 20520, Note_on_c, 12, 90, 103
10, 20531, Note_on_c, 12, 90, 0
10, 20532, Note_on_c, 12, 87, 103
10, 20543, Note_on_c, 12, 87, 0
10, 20544, Note_on_c, 12, 81, 95
10, 20555, Note_on_c, 12, 81, 0
10, 20556, Note_on_c, 12, 85, 79
10, 20567, Note_on_c, 12, 85, 0
10, 20568, Note_on_c, 12, 88, 98
10, 20579, Note_on_c, 12, 88, 0
10, 20580, Note_on_c, 12, 93, 95
10, 20591, Note_on_c, 12, 93, 0
10, 20592, Note_on_c, 12, 97, 103
10, 20603, Note_on_c, 12, 97, 0
10, 20604, Note_on_c, 12, 93, 95
10, 20615, Note_on_c, 12, 93, 0
10, 20616, Note_on_c, 12, 88, 98
10, 20627, Note_on_c, 12, 88, 0
10, 20628, Note_on_c, 12, 85, 98
10, 20639, Note_on_c, 12, 85, 0
10, 20640, Note_on_c, 12, 81, 98
10, 20651, Note_on_c, 12, 81, 0
10, 20652, Note_on_c, 12, 85, 103
10, 20663, Note_on_c, 12, 85, 0
10, 20664, Note_on_c, 12, 88, 93
10, 20675, Note_on_c, 12, 88, 0
10, 20676, Note_on_c, 12, 93, 98
10, 20687, Note_on_c, 12, 93, 0
10, 20688, Note_on_c, 12, 97, 103
10, 20699, Note_on_c, 12, 97, 0
10, 20700, Note_on_c, 12, 93, 95
10, 20711, Note_on_c, 12, 93, 0
10, 20712, Note_on_c, 12, 88, 95
10, 20723, Note_on_c, 12, 88, 0
10, 20724, Note_on_c, 12, 85, 98
10, 20735, Note_on_c, 12, 85, 0
10, 20736, Note_on_c, 12, 81, 106
10, 20747, Note_on_c, 12, 81, 0
10, 20748, Note_on_c, 12, 87, 103
10, 20759, Note_on_c, 12, 87, 0
10, 20760, Note_on_c, 12, 90, 98
10, 20771, Note_on_c, 12, 90, 0
10, 20772, Note_on_c, 12, 93, 86
10, 20783, Note_on_c, 12, 93, 0
10, 20784, Note_on_c, 12, 92, 98
10, 20795, Note_on_c, 12, 92, 0
10, 20796, Note_on_c, 12, 93, 88
10, 20807, Note_on_c, 12, 93, 0
10, 20808, Note_on_c, 12, 90, 103
10, 20819, Note_on_c, 12, 90, 0
10, 20820, Note_on_c, 12, 87, 103
10, 20831, Note_on_c, 12, 87, 0
10, 20832, Note_on_c, 12, 81, 106
10, 20843, Note_on_c, 12, 81, 0
10, 20844, Note_on_c, 12, 87, 103
10, 20855, Note_on_c, 12, 87, 0
10, 20856, Note_on_c, 12, 90, 110
10, 20867, Note_on_c, 12, 90, 0
10, 20868, Note_on_c, 12, 93, 102
10, 20879, Note_on_c, 12, 93, 0
10, 20880, Note_on_c, 12, 92, 103
10, 20891, Note_on_c, 12, 92, 0
10, 20892, Note_on_c, 12, 93, 95
10, 20903, Note_on_c, 12, 93, 0
10, 20904, Note_on_c, 12, 90, 103
10, 20915, Note_on_c, 12, 90, 0
10, 20916, Note_on_c, 12, 87, 110
10, 20927, Note_on_c, 12, 87, 0
10, 20928, Note_on_c, 12, 85, 79
10, 20939, Note_on_c, 12, 85, 0
10, 20940, Note_on_c, 12, 88, 93
10, 20951, Note_on_c, 12, 88, 0
10, 20952, Note_on_c, 12, 92, 82
10, 20963, Note_on_c, 12, 92, 0
10, 20964, Note_on_c, 12, 97, 103
10, 20975, Note_on_c, 12, 97, 0
10, 20976, Note_on_c, 12, 100, 93
10, 20987, Note_on_c, 12, 100, 0
10, 20988, Note_on_c, 12, 97, 103
10, 20999, Note_on_c, 12, 97, 0
10, 21000, Note_on_c, 12, 92, 103
10, 21011, Note_on_c, 12, 92, 0
10, 21012, Note_on_c, 12, 88, 106
10, 21023, Note_on_c, 12, 88, 0
10, 21024, Note_on_c, 12, 81, 93
10, 21035, Note_on_c, 12, 81, 0
10, 21036, Note_on_c, 12, 88, 93
10, 21047, Note_on_c, 12, 88, 0
10, 21048, Note_on_c, 12, 92, 98
10, 21059, Note_on_c, 12, 92, 0
10, 21060, Note_on_c, 12, 97, 103
10, 21071, Note_on_c, 12, 97, 0
10, 21072, Note_on_c, 12, 100, 93
10, 21083, Note_on_c, 12, 100, 0
10, 21084, Note_on_c, 12, 97, 103
10, 21095, Note_on_c, 12, 97, 0
10, 21096, Note_on_c, 12, 92, 103
10, 21107, Note_on_c, 12, 92, 0
10, 21108, Note_on_c, 12, 88, 95
10, 21119, Note_on_c, 12, 88, 0
10, 21120, Note_on_c, 12, 78, 94
10, 21131, Note_on_c, 12, 78, 0
10, 21132, Note_on_c, 12, 81, 90
10, 21143, Note_on_c, 12, 81, 0
10, 21144, Note_on_c, 12, 86, 93
10, 21155, Note_on_c, 12, 86, 0
10, 21156, Note_on_c, 12, 90, 103
10, 21167, Note_on_c, 12, 90, 0
10, 21168, Note_on_c, 12, 93, 88
10, 21179, Note_on_c, 12, 93, 0
10, 21180, Note_on_c, 12, 90, 103
10, 21191, Note_on_c, 12, 90, 0
10, 21192, Note_on_c, 12, 86, 95
10, 21203, Note_on_c, 12, 86, 0
10, 21204, Note_on_c, 12, 81, 98
10, 21215, Note_on_c, 12, 81, 0
10, 21216, Note_on_c, 12, 78, 98
10, 21227, Note_on_c, 12, 78, 0
10, 21228, Note_on_c, 12, 81, 98
10, 21239, Note_on_c, 12, 81, 0
10, 21240, Note_on_c, 12, 86, 90
10, 21251, Note_on_c, 12, 86, 0
10, 21252, Note_on_c, 12, 90, 98
10, 21263, Note_on_c, 12, 90, 0
10, 21264, Note_on_c, 12, 93, 90
10, 21275, Note_on_c, 12, 93, 0
10, 21276, Note_on_c, 12, 90, 103
10, 21287, Note_on_c, 12, 90, 0
10, 21288, Note_on_c, 12, 86, 102
10, 21299, Note_on_c, 12, 86, 0
10, 21300, Note_on_c, 12, 81, 98
10, 21311, Note_on_c, 12, 81, 0
10, 21312, Note_on_c, 12, 83, 106
10, 21323, Note_on_c, 12, 83, 0
10, 21324, Note_on_c, 12, 86, 95
10, 21335, Note_on_c, 12, 86, 0
10, 21336, Note_on_c, 12, 90, 103
10, 21347, Note_on_c, 12, 90, 0
10, 21348, Note_on_c, 12, 95, 88
10, 21359, Note_on_c, 12, 95, 0
10, 21360, Note_on_c, 12, 98, 82
10, 21371, Note_on_c, 12, 98, 0
10, 21372, Note_on_c, 12, 95, 78
10, 21383, Note_on_c, 12, 95, 0
10, 21384, Note_on_c, 12, 90, 94
10, 21395, Note_on_c, 12, 90, 0
10, 21396, Note_on_c, 12, 86, 95
10, 21407, Note_on_c, 12, 86, 0
10, 21408, Note_on_c, 12, 81, 102
10, 21419, Note_on_c, 12, 81, 0
10, 21420, Note_on_c, 12, 86, 95
10, 21431, Note_on_c, 12, 86, 0
10, 21432, Note_on_c, 12, 90, 98
10, 21443, Note_on_c, 12, 90, 0
10, 21444, Note_on_c, 12, 95, 98
10, 21455, Note_on_c, 12, 95, 0
10, 21456, Note_on_c, 12, 98, 76
10, 21467, Note_on_c, 12, 98, 0
10, 21468, Note_on_c, 12, 95, 76
10, 21479, Note_on_c, 12, 95, 0
10, 21480, Note_on_c, 12, 90, 94
10, 21491, Note_on_c, 12, 90, 0
10, 21492, Note_on_c, 12, 86, 102
10, 21503, Note_on_c, 12, 86, 0
10, 21504, Note_on_c, 12, 79, 98
10, 21515, Note_on_c, 12, 79, 0
10, 21516, Note_on_c, 12, 84, 98
10, 21527, Note_on_c, 12, 84, 0
10, 21528, Note_on_c, 12, 88, 90
10, 21539, Note_on_c, 12, 88, 0
10, 21540, Note_on_c, 12, 91, 95
10, 21551, Note_on_c, 12, 91, 0
10, 21552, Note_on_c, 12, 96, 78
10, 21563, Note_on_c, 12, 96, 0
10, 21564, Note_on_c, 12, 91, 90
10, 21575, Note_on_c, 12, 91, 0
10, 21576, Note_on_c, 12, 88, 86
10, 21587, Note_on_c, 12, 88, 0
10, 21588, Note_on_c, 12, 86, 98
10, 21599, Note_on_c, 12, 86, 0
10, 21600, Note_on_c, 12, 84, 106
10, 21611, Note_on_c, 12, 84, 0
10, 21612, Note_on_c, 12, 88, 102
10, 21623, Note_on_c, 12, 88, 0
10, 21624, Note_on_c, 12, 91, 95
10, 21635, Note_on_c, 12, 91, 0
10, 21636, Note_on_c, 12, 96, 80
10, 21647, Note_on_c, 12, 96, 0
10, 21648, Note_on_c, 12, 100, 93
10, 21659, Note_on_c, 12, 100, 0
10, 21660, Note_on_c, 12, 96, 93
10, 21671, Note_on_c, 12, 96, 0
10, 21672, Note_on_c, 12, 91, 93
10, 21683, Note_on_c, 12, 91, 0
10, 21684, Note_on_c, 12, 88, 95
10, 21695, Note_on_c, 12, 88, 0
10, 21696, Note_on_c, 12, 84, 98
10, 21707, Note_on_c, 12, 84, 0
10, 21708, Note_on_c, 12, 88, 98
10, 21719, Note_on_c, 12, 88, 0
10, 21720, Note_on_c, 12, 91, 98
10, 21731, Note_on_c, 12, 91, 0
10, 21732, Note_on_c, 12, 96, 90
10, 21743, Note_on_c, 12, 96, 0
10, 21744, Note_on_c, 12, 95, 102
10, 21755, Note_on_c, 12, 95, 0
10, 21756, Note_on_c, 12, 96, 90
10, 21767, Note_on_c, 12, 96, 0
10, 21768, Note_on_c, 12, 91, 102
10, 21779, Note_on_c, 12, 91, 0
10, 21780, Note_on_c, 12, 88, 93
10, 21791, Note_on_c, 12, 88, 0
10, 21792, Note_on_c, 12, 84, 95
10, 21803, Note_on_c, 12, 84, 0
10, 21804, Note_on_c, 12, 88, 102
10, 21815, Note_on_c, 12, 88, 0
10, 21816, Note_on_c, 12, 91, 95
10, 21827, Note_on_c, 12, 91, 0
10, 21828, Note_on_c, 12, 96, 98
10, 21839, Note_on_c, 12, 96, 0
10, 21840, Note_on_c, 12, 95, 95
10, 21851, Note_on_c, 12, 95, 0
10, 21852, Note_on_c, 12, 96, 90
10, 21863, Note_on_c, 12, 96, 0
10, 21864, Note_on_c, 12, 91, 98
10, 21875, Note_on_c, 12, 91, 0
10, 21876, Note_on_c, 12, 88, 98
10, 21887, Note_on_c, 12, 88, 0
10, 21888, Note_on_c, 12, 84, 102
10, 21899, Note_on_c, 12, 84, 0
10, 21900, Note_on_c, 12, 88, 98
10, 21911, Note_on_c, 12, 88, 0
10, 21912, Note_on_c, 12, 91, 93
10, 21923, Note_on_c, 12, 91, 0
10, 21924, Note_on_c, 12, 96, 90
10, 21935, Note_on_c, 12, 96, 0
10, 21936, Note_on_c, 12, 100, 90
10, 21947, Note_on_c, 12, 100, 0
10, 21948, Note_on_c, 12, 96, 88
10, 21959, Note_on_c, 12, 96, 0
10, 21960, Note_on_c, 12, 91, 95
10, 21971, Note_on_c, 12, 91, 0
10, 21972, Note_on_c, 12, 88, 95
10, 21983, Note_on_c, 12, 88, 0
10, 21984, Note_on_c, 12, 84, 95
10, 21995, Note_on_c, 12, 84, 0
10, 21996, Note_on_c, 12, 88, 93
10, 22007, Note_on_c, 12, 88, 0
10, 22008, Note_on_c, 12, 91, 95
10, 22019, Note_on_c, 12, 91, 0
10, 22020, Note_on_c, 12, 96, 95
10, 22031, Note_on_c, 12, 96, 0
10, 22032, Note_on_c, 12, 100, 80
10, 22043, Note_on_c, 12, 100, 0
10, 22044, Note_on_c, 12, 96, 98
10, 22055, Note_on_c, 12, 96, 0
10, 22056, Note_on_c, 12, 91, 95
10, 22067, Note_on_c, 12, 91, 0
10, 22068, Note_on_c, 12, 88, 98
10, 22079, Note_on_c, 12, 88, 0
10, 22080, Note_on_c, 12, 84, 102
10, 22091, Note_on_c, 12, 84, 0
10, 22092, Note_on_c, 12, 90, 103
10, 22103, Note_on_c, 12, 90, 0
10, 22104, Note_on_c, 12, 93, 95
10, 22115, Note_on_c, 12, 93, 0
10, 22116, Note_on_c, 12, 96, 86
10, 22127, Note_on_c, 12, 96, 0
10, 22128, Note_on_c, 12, 95, 98
10, 22139, Note_on_c, 12, 95, 0
10, 22140, Note_on_c, 12, 96, 83
10, 22151, Note_on_c, 12, 96, 0
10, 22152, Note_on_c, 12, 93, 98
10, 22163, Note_on_c, 12, 93, 0
10, 22164, Note_on_c, 12, 90, 94
10, 22175, Note_on_c, 12, 90, 0
10, 22176, Note_on_c, 12, 84, 95
10, 22187, Note_on_c, 12, 84, 0
10, 22188, Note_on_c, 12, 90, 98
10, 22199, Note_on_c, 12, 90, 0
10, 22200, Note_on_c, 12, 93, 90
10, 22211, Note_on_c, 12, 93, 0
10, 22212, Note_on_c, 12, 96, 86
10, 22223, Note_on_c, 12, 96, 0
10, 22224, Note_on_c, 12, 95, 95
10, 22235, Note_on_c, 12, 95, 0
10, 22236, Note_on_c, 12, 96, 82
10, 22247, Note_on_c, 12, 96, 0
10, 22248, Note_on_c, 12, 93, 93
10, 22259, Note_on_c, 12, 93, 0
10, 22260, Note_on_c, 12, 90, 98
10, 22271, Note_on_c, 12, 90, 0
10, 22272, Note_on_c, 12, 84, 98
10, 22283, Note_on_c, 12, 84, 0
10, 22284, Note_on_c, 12, 88, 106
10, 22295, Note_on_c, 12, 88, 0
10, 22296, Note_on_c, 12, 91, 93
10, 22307, Note_on_c, 12, 91, 0
10, 22308, Note_on_c, 12, 96, 86
10, 22319, Note_on_c, 12, 96, 0
10, 22320, Note_on_c, 12, 100, 90
10, 22331, Note_on_c, 12, 100, 0
10, 22332, Note_on_c, 12, 96, 90
10, 22343, Note_on_c, 12, 96, 0
10, 22344, Note_on_c, 12, 91, 95
10, 22355, Note_on_c, 12, 91, 0
10, 22356, Note_on_c, 12, 88, 95
10, 22367, Note_on_c, 12, 88, 0
10, 22368, Note_on_c, 12, 84, 106
10, 22379, Note_on_c, 12, 84, 0
10, 22380, Note_on_c, 12, 88, 106
10, 22391, Note_on_c, 12, 88, 0
10, 22392, Note_on_c, 12, 91, 98
10, 22403, Note_on_c, 12, 91, 0
10, 22404, Note_on_c, 12, 96, 90
10, 22415, Note_on_c, 12, 96, 0
10, 22416, Note_on_c, 12, 100, 90
10, 22427, Note_on_c, 12, 100, 0
10, 22428, Note_on_c, 12, 96, 86
10, 22439, Note_on_c, 12, 96, 0
10, 22440, Note_on_c, 12, 91, 95
10, 22451, Note_on_c, 12, 91, 0
10, 22452, Note_on_c, 12, 88, 95
10, 22463, Note_on_c, 12, 88, 0
10, 22464, Note_on_c, 12, 84, 95
10, 22475, Note_on_c, 12, 84, 0
10, 22476, Note_on_c, 12, 90, 103
10, 22487, Note_on_c, 12, 90, 0
10, 22488, Note_on_c, 12, 93, 90
10, 22499, Note_on_c, 12, 93, 0
10, 22500, Note_on_c, 12, 96, 95
10, 22511, Note_on_c, 12, 96, 0
10, 22512, Note_on_c, 12, 95, 95
10, 22523, Note_on_c, 12, 95, 0
10, 22524, Note_on_c, 12, 96, 65
10, 22535, Note_on_c, 12, 96, 0
10, 22536, Note_on_c, 12, 93, 106
10, 22547, Note_on_c, 12, 93, 0
10, 22548, Note_on_c, 12, 90, 98
10, 22559, Note_on_c, 12, 90, 0
10, 22560, Note_on_c, 12, 84, 98
10, 22571, Note_on_c, 12, 84, 0
10, 22572, Note_on_c, 12, 90, 110
10, 22583, Note_on_c, 12, 90, 0
10, 22584, Note_on_c, 12, 93, 95
10, 22595, Note_on_c, 12, 93, 0
10, 22596, Note_on_c, 12, 96, 93
10, 22607, Note_on_c, 12, 96, 0
10, 22608, Note_on_c, 12, 95, 106
10, 22619, Note_on_c, 12, 95, 0
10, 22620, Note_on_c, 12, 96, 90
10, 22631, Note_on_c, 12, 96, 0
10, 22632, Note_on_c, 12, 93, 102
10, 22643, Note_on_c, 12, 93, 0
10, 22644, Note_on_c, 12, 90, 94
10, 22655, Note_on_c, 12, 90, 0
10, 22656, Note_on_c, 12, 76, 95
10, 22667, Note_on_c, 12, 76, 0
10, 22668, Note_on_c, 12, 79, 93
10, 22679, Note_on_c, 12, 79, 0
10, 22680, Note_on_c, 12, 83, 93
10, 22691, Note_on_c, 12, 83, 0
10, 22692, Note_on_c, 12, 88, 98
10, 22703, Note_on_c, 12, 88, 0
10, 22704, Note_on_c, 12, 91, 93
10, 22715, Note_on_c, 12, 91, 0
10, 22716, Note_on_c, 12, 88, 95
10, 22727, Note_on_c, 12, 88, 0
10, 22728, Note_on_c, 12, 83, 98
10, 22739, Note_on_c, 12, 83, 0
10, 22740, Note_on_c, 12, 79, 90
10, 22751, Note_on_c, 12, 79, 0
10, 22752, Note_on_c, 12, 74, 88
10, 22763, Note_on_c, 12, 74, 0
10, 22764, Note_on_c, 12, 79, 93
10, 22775, Note_on_c, 12, 79, 0
10, 22776, Note_on_c, 12, 83, 82
10, 22787, Note_on_c, 12, 83, 0
10, 22788, Note_on_c, 12, 86, 90
10, 22799, Note_on_c, 12, 86, 0
10, 22800, Note_on_c, 12, 91, 86
10, 22811, Note_on_c, 12, 91, 0
10, 22812, Note_on_c, 12, 86, 86
10, 22823, Note_on_c, 12, 86, 0
10, 22824, Note_on_c, 12, 83, 88
10, 22835, Note_on_c, 12, 83, 0
10, 22836, Note_on_c, 12, 79, 93
10, 22847, Note_on_c, 12, 79, 0
10, 22848, Note_on_c, 12, 73, 50
10, 22859, Note_on_c, 12, 73, 0
10, 22860, Note_on_c, 12, 74, 69
10, 22871, Note_on_c, 12, 74, 0
10, 22872, Note_on_c, 12, 73, 55
10, 22883, Note_on_c, 12, 73, 0
10, 22884, Note_on_c, 12, 74, 80
10, 22895, Note_on_c, 12, 74, 0
10, 22896, Note_on_c, 12, 73, 79
10, 22907, Note_on_c, 12, 73, 0
10, 22908, Note_on_c, 12, 74, 78
10, 22919, Note_on_c, 12, 74, 0
10, 22920, Note_on_c, 12, 73, 66
10, 22931, Note_on_c, 12, 73, 0
10, 22932, Note_on_c, 12, 74, 71
10, 22943, Note_on_c, 12, 74, 0
10, 22944, Note_on_c, 12, 85, 82
10, 22955, Note_on_c, 12, 85, 0
10, 22956, Note_on_c, 12, 86, 73
10, 22967, Note_on_c, 12, 86, 0
10, 22968, Note_on_c, 12, 85, 94
10, 22979, Note_on_c, 12, 85, 0
10, 22980, Note_on_c, 12, 86, 78
10, 22991, Note_on_c, 12, 86, 0
10, 22992, Note_on_c, 12, 85, 94
10, 23003, Note_on_c, 12, 85, 0
10, 23004, Note_on_c, 12, 86, 71
10, 23015, Note_on_c, 12, 86, 0
10, 23016, Note_on_c, 12, 85, 94
10, 23027, Note_on_c, 12, 85, 0
10, 23028, Note_on_c, 12, 86, 86
10, 23039, Note_on_c, 12, 86, 0
10, 23039, End_track
11, 0, Start_track
11, 0, MIDI_port, 0
11, 0, Title_t, "Clarinet"
11, 0, Program_c, 13, 71
11, 0, Control_c, 13, 7, 120
11, 0, Control_c, 13, 10, 34
11, 13392, Note_on_c, 13, 67, 80
11, 13453, Note_on_c, 13, 67, 0
11, 13463, Note_on_c, 13, 69, 80
11, 13485, Note_on_c, 13, 69, 0
11, 13488, Note_on_c, 13, 71, 80
11, 13555, Note_on_c, 13, 71, 0
11, 13560, Note_on_c, 13, 72, 80
11, 13580, Note_on_c, 13, 72, 0
11, 13584, Note_on_c, 13, 71, 80
11, 13656, Note_on_c, 13, 66, 80
11, 13658, Note_on_c, 13, 71, 0
11, 13680, Note_on_c, 13, 66, 0
11, 13681, Note_on_c, 13, 67, 80
11, 13865, Note_on_c, 13, 67, 0
11, 13873, Note_on_c, 13, 67, 80
11, 13939, Note_on_c, 13, 67, 0
11, 13944, Note_on_c, 13, 69, 80
11, 13959, Note_on_c, 13, 69, 0
11, 13968, Note_on_c, 13, 70, 80
11, 14033, Note_on_c, 13, 70, 0
11, 14040, Note_on_c, 13, 72, 80
11, 14055, Note_on_c, 13, 72, 0
11, 14064, Note_on_c, 13, 69, 80
11, 14128, Note_on_c, 13, 69, 0
11, 14136, Note_on_c, 13, 65, 80
11, 14159, Note_on_c, 13, 65, 0
11, 23232, Note_on_c, 13, 67, 80
11, 23293, Note_on_c, 13, 67, 0
11, 23303, Note_on_c, 13, 69, 80
11, 23325, Note_on_c, 13, 69, 0
11, 23328, Note_on_c, 13, 71, 80
11, 23395, Note_on_c, 13, 71, 0
11, 23400, Note_on_c, 13, 72, 80
11, 23420, Note_on_c, 13, 72, 0
11, 23424, Note_on_c, 13, 71, 80
11, 23496, Note_on_c, 13, 66, 80
11, 23498, Note_on_c, 13, 71, 0
11, 23520, Note_on_c, 13, 66, 0
11, 23521, Note_on_c, 13, 67, 80
11, 23705, Note_on_c, 13, 67, 0
11, 23713, Note_on_c, 13, 67, 80
11, 23779, Note_on_c, 13, 67, 0
11, 23784, Note_on_c, 13, 69, 80
11, 23799, Note_on_c, 13, 69, 0
11, 23808, Note_on_c, 13, 70, 80
11, 23873, Note_on_c, 13, 70, 0
11, 23880, Note_on_c, 13, 72, 80
11, 23895, Note_on_c, 13, 72, 0
11, 23904, Note_on_c, 13, 69, 80
11, 23968, Note_on_c, 13, 69, 0
11, 23976, Note_on_c, 13, 65, 80
11, 23999, Note_on_c, 13, 65, 0
11, 23999, End_track
12, 0, Start_track
12, 0, MIDI_port, 0
12, 0, Title_t, "Guitar"
12, 0, Program_c, 15, 29
12, 0, Control_c, 15, 7, 105
12, 0, Control_c, 15, 10, 64
12, 1536, Note_on_c, 15, 46, 119
12, 1560, Note_on_c, 15, 46, 0
12, 1560, Note_on_c, 15, 49, 116
12, 1584, Note_on_c, 15, 49, 0
12, 1584, Note_on_c, 15, 53, 117
12, 1608, Note_on_c, 15, 53, 0
12, 1608, Note_on_c, 15, 55, 109
12, 1632, Note_on_c, 15, 55, 0
12, 1632, Note_on_c, 15, 54, 117
12, 1656, Note_on_c, 15, 54, 0
12, 1656, Note_on_c, 15, 58, 116
12, 1680, Note_on_c, 15, 58, 0
12, 1680, Note_on_c, 15, 61, 112
12, 1704, Note_on_c, 15, 61, 0
12, 1704, Note_on_c, 15, 62, 118
12, 1728, Note_on_c, 15, 62, 0
12, 1730, Note_on_c, 15, 66, 115
12, 1743, Note_on_c, 15, 66, 0
12, 1743, Note_on_c, 15, 67, 112
12, 1755, Note_on_c, 15, 66, 121
12, 1757, Note_on_c, 15, 67, 0
12, 1764, Note_on_c, 15, 66, 0
12, 1764, Note_on_c, 15, 64, 104
12, 1776, Note_on_c, 15, 66, 119
12, 1778, Note_on_c, 15, 64, 0
12, 1798, Note_on_c, 15, 66, 0
12, 1800, Note_on_c, 15, 62, 120
12, 1824, Note_on_c, 15, 62, 0
12, 1824, Note_on_c, 15, 64, 111
12, 1848, Note_on_c, 15, 64, 0
12, 1850, Note_on_c, 15, 61, 116
12, 1861, Note_on_c, 15, 62, 96
12, 1863, Note_on_c, 15, 61, 0
12, 1868, Note_on_c, 15, 62, 0
12, 1872, Note_on_c, 15, 62, 118
12, 1892, Note_on_c, 15, 62, 0
12, 1895, Note_on_c, 15, 59, 103
12, 1919, Note_on_c, 15, 59, 0
12, 1920, Note_on_c, 15, 61, 118
12, 1944, Note_on_c, 15, 61, 0
12, 1944, Note_on_c, 15, 62, 102
12, 1968, Note_on_c, 15, 62, 0
12, 1970, Note_on_c, 15, 61, 123
12, 1993, Note_on_c, 15, 59, 113
12, 1994, Note_on_c, 15, 61, 0
12, 2013, Note_on_c, 15, 59, 0
12, 2016, Note_on_c, 15, 59, 115
12, 2028, Note_on_c, 15, 57, 106
12, 2031, Note_on_c, 15, 59, 0
12, 2038, Note_on_c, 15, 57, 0
12, 2043, Note_on_c, 15, 55, 90
12, 2064, Note_on_c, 15, 76, 110
12, 2067, Note_on_c, 15, 55, 0
12, 2088, Note_on_c, 15, 78, 102
12, 2092, Note_on_c, 15, 76, 0
12, 2110, Note_on_c, 15, 78, 0
12, 2112, Note_on_c, 15, 79, 100
12, 2136, Note_on_c, 15, 78, 102
12, 2138, Note_on_c, 15, 79, 0
12, 2160, Note_on_c, 15, 76, 95
12, 2162, Note_on_c, 15, 78, 0
12, 2184, Note_on_c, 15, 74, 107
12, 2186, Note_on_c, 15, 76, 0
12, 2208, Note_on_c, 15, 74, 0
12, 2208, Note_on_c, 15, 71, 111
12, 2256, Note_on_c, 15, 71, 0
12, 2256, Note_on_c, 15, 74, 102
12, 2301, Note_on_c, 15, 74, 0
12, 2304, Note_on_c, 15, 76, 107
12, 2343, Note_on_c, 15, 76, 0
12, 2352, Note_on_c, 15, 76, 115
12, 2376, Note_on_c, 15, 74, 110
12, 2381, Note_on_c, 15, 76, 0
12, 2399, Note_on_c, 15, 74, 0
12, 2400, Note_on_c, 15, 71, 117
12, 2424, Note_on_c, 15, 73, 106
12, 2425, Note_on_c, 15, 71, 0
12, 2448, Note_on_c, 15, 74, 103
12, 2449, Note_on_c, 15, 73, 0
12, 2472, Note_on_c, 15, 73, 118
12, 2478, Note_on_c, 15, 74, 0
12, 2496, Note_on_c, 15, 71, 111
12, 2497, Note_on_c, 15, 73, 0
12, 2520, Note_on_c, 15, 69, 114
12, 2523, Note_on_c, 15, 71, 0
12, 2532, Note_on_c, 15, 69, 0
12, 2544, Note_on_c, 15, 69, 116
12, 2584, Note_on_c, 15, 69, 0
12, 2592, Note_on_c, 15, 71, 113
12, 2616, Note_on_c, 15, 69, 115
12, 2617, Note_on_c, 15, 71, 0
12, 2640, Note_on_c, 15, 68, 122
12, 2641, Note_on_c, 15, 69, 0
12, 2659, Note_on_c, 15, 68, 0
12, 2664, Note_on_c, 15, 66, 119
12, 2683, Note_on_c, 15, 66, 0
12, 2688, Note_on_c, 15, 64, 119
12, 2716, Note_on_c, 15, 64, 0
12, 2736, Note_on_c, 15, 76, 113
12, 2760, Note_on_c, 15, 78, 102
12, 2764, Note_on_c, 15, 76, 0
12, 2782, Note_on_c, 15, 78, 0
12, 2784, Note_on_c, 15, 79, 100
12, 2808, Note_on_c, 15, 78, 102
12, 2810, Note_on_c, 15, 79, 0
12, 2832, Note_on_c, 15, 76, 95
12, 2834, Note_on_c, 15, 78, 0
12, 2856, Note_on_c, 15, 74, 107
12, 2858, Note_on_c, 15, 76, 0
12, 2880, Note_on_c, 15, 74, 0
12, 2880, Note_on_c, 15, 71, 111
12, 2928, Note_on_c, 15, 71, 0
12, 2928, Note_on_c, 15, 74, 102
12, 2973, Note_on_c, 15, 74, 0
12, 2976, Note_on_c, 15, 76, 107
12, 3015, Note_on_c, 15, 76, 0
12, 3024, Note_on_c, 15, 76, 115
12, 3048, Note_on_c, 15, 74, 110
12, 3053, Note_on_c, 15, 76, 0
12, 3071, Note_on_c, 15, 74, 0
12, 3072, Note_on_c, 15, 71, 117
12, 3096, Note_on_c, 15, 73, 106
12, 3097, Note_on_c, 15, 71, 0
12, 3120, Note_on_c, 15, 74, 103
12, 3121, Note_on_c, 15, 73, 0
12, 3144, Note_on_c, 15, 73, 118
12, 3150, Note_on_c, 15, 74, 0
12, 3168, Note_on_c, 15, 71, 111
12, 3169, Note_on_c, 15, 73, 0
12, 3192, Note_on_c, 15, 69, 114
12, 3195, Note_on_c, 15, 71, 0
12, 3204, Note_on_c, 15, 69, 0
12, 3216, Note_on_c, 15, 69, 116
12, 3256, Note_on_c, 15, 69, 0
12, 3264, Note_on_c, 15, 71, 113
12, 3288, Note_on_c, 15, 69, 115
12, 3289, Note_on_c, 15, 71, 0
12, 3312, Note_on_c, 15, 68, 122
12, 3313, Note_on_c, 15, 69, 0
12, 3331, Note_on_c, 15, 68, 0
12, 3336, Note_on_c, 15, 66, 119
12, 3355, Note_on_c, 15, 66, 0
12, 3360, Note_on_c, 15, 64, 119
12, 3388, Note_on_c, 15, 64, 0
12, 3432, Note_on_c, 15, 71, 119
12, 3456, Note_on_c, 15, 69, 118
12, 3459, Note_on_c, 15, 71, 0
12, 3480, Note_on_c, 15, 67, 114
12, 3482, Note_on_c, 15, 69, 0
12, 3497, Note_on_c, 15, 67, 0
12, 3504, Note_on_c, 15, 69, 101
12, 3528, Note_on_c, 15, 69, 0
12, 3528, Note_on_c, 15, 67, 107
12, 3547, Note_on_c, 15, 67, 0
12, 3552, Note_on_c, 15, 66, 118
12, 3569, Note_on_c, 15, 66, 0
12, 3576, Note_on_c, 15, 67, 111
12, 3591, Note_on_c, 15, 67, 0
12, 3600, Note_on_c, 15, 67, 114
12, 3617, Note_on_c, 15, 67, 0
12, 3624, Note_on_c, 15, 74, 115
12, 3645, Note_on_c, 15, 74, 0
12, 3648, Note_on_c, 15, 71, 111
12, 3668, Note_on_c, 15, 71, 0
12, 3672, Note_on_c, 15, 69, 119
12, 3797, Note_on_c, 15, 69, 0
12, 3816, Note_on_c, 15, 71, 117
12, 3839, Note_on_c, 15, 71, 0
12, 3840, Note_on_c, 15, 69, 113
12, 3862, Note_on_c, 15, 69, 0
12, 3864, Note_on_c, 15, 67, 119
12, 3885, Note_on_c, 15, 67, 0
12, 3888, Note_on_c, 15, 69, 115
12, 3912, Note_on_c, 15, 67, 117
12, 3915, Note_on_c, 15, 69, 0
12, 3931, Note_on_c, 15, 67, 0
12, 3936, Note_on_c, 15, 66, 118
12, 3952, Note_on_c, 15, 66, 0
12, 3960, Note_on_c, 15, 67, 117
12, 3972, Note_on_c, 15, 67, 0
12, 3984, Note_on_c, 15, 67, 114
12, 4006, Note_on_c, 15, 67, 0
12, 4008, Note_on_c, 15, 74, 94
12, 4032, Note_on_c, 15, 71, 109
12, 4035, Note_on_c, 15, 74, 0
12, 4056, Note_on_c, 15, 67, 106
12, 4061, Note_on_c, 15, 71, 0
12, 4074, Note_on_c, 15, 67, 0
12, 4080, Note_on_c, 15, 64, 119
12, 4104, Note_on_c, 15, 66, 110
12, 4107, Note_on_c, 15, 64, 0
12, 4128, Note_on_c, 15, 67, 110
12, 4130, Note_on_c, 15, 66, 0
12, 4152, Note_on_c, 15, 66, 116
12, 4153, Note_on_c, 15, 67, 0
12, 4174, Note_on_c, 15, 66, 0
12, 4176, Note_on_c, 15, 64, 111
12, 4199, Note_on_c, 15, 64, 0
12, 4200, Note_on_c, 15, 62, 111
12, 4223, Note_on_c, 15, 62, 0
12, 4224, Note_on_c, 15, 59, 120
12, 4267, Note_on_c, 15, 59, 0
12, 4272, Note_on_c, 15, 61, 122
12, 4313, Note_on_c, 15, 61, 0
12, 4320, Note_on_c, 15, 62, 112
12, 4373, Note_on_c, 15, 62, 0
12, 5088, Note_on_c, 15, 76, 110
12, 5112, Note_on_c, 15, 78, 102
12, 5116, Note_on_c, 15, 76, 0
12, 5134, Note_on_c, 15, 78, 0
12, 5136, Note_on_c, 15, 79, 100
12, 5160, Note_on_c, 15, 78, 102
12, 5162, Note_on_c, 15, 79, 0
12, 5184, Note_on_c, 15, 76, 95
12, 5186, Note_on_c, 15, 78, 0
12, 5208, Note_on_c, 15, 74, 107
12, 5210, Note_on_c, 15, 76, 0
12, 5232, Note_on_c, 15, 74, 0
12, 5232, Note_on_c, 15, 71, 111
12, 5280, Note_on_c, 15, 71, 0
12, 5280, Note_on_c, 15, 74, 102
12, 5325, Note_on_c, 15, 74, 0
12, 5328, Note_on_c, 15, 76, 107
12, 5367, Note_on_c, 15, 76, 0
12, 5376, Note_on_c, 15, 76, 115
12, 5400, Note_on_c, 15, 74, 110
12, 5405, Note_on_c, 15, 76, 0
12, 5423, Note_on_c, 15, 74, 0
12, 5424, Note_on_c, 15, 71, 117
12, 5448, Note_on_c, 15, 73, 106
12, 5449, Note_on_c, 15, 71, 0
12, 5472, Note_on_c, 15, 74, 103
12, 5473, Note_on_c, 15, 73, 0
12, 5496, Note_on_c, 15, 73, 118
12, 5502, Note_on_c, 15, 74, 0
12, 5520, Note_on_c, 15, 71, 111
12, 5521, Note_on_c, 15, 73, 0
12, 5544, Note_on_c, 15, 69, 114
12, 5547, Note_on_c, 15, 71, 0
12, 5556, Note_on_c, 15, 69, 0
12, 5568, Note_on_c, 15, 69, 116
12, 5608, Note_on_c, 15, 69, 0
12, 5616, Note_on_c, 15, 71, 113
12, 5640, Note_on_c, 15, 69, 115
12, 5641, Note_on_c, 15, 71, 0
12, 5664, Note_on_c, 15, 68, 122
12, 5665, Note_on_c, 15, 69, 0
12, 5683, Note_on_c, 15, 68, 0
12, 5688, Note_on_c, 15, 66, 119
12, 5707, Note_on_c, 15, 66, 0
12, 5712, Note_on_c, 15, 64, 119
12, 5740, Note_on_c, 15, 64, 0
12, 5760, Note_on_c, 15, 76, 113
12, 5784, Note_on_c, 15, 78, 102
12, 5788, Note_on_c, 15, 76, 0
12, 5806, Note_on_c, 15, 78, 0
12, 5808, Note_on_c, 15, 79, 100
12, 5832, Note_on_c, 15, 78, 102
12, 5834, Note_on_c, 15, 79, 0
12, 5856, Note_on_c, 15, 76, 95
12, 5858, Note_on_c, 15, 78, 0
12, 5880, Note_on_c, 15, 74, 107
12, 5882, Note_on_c, 15, 76, 0
12, 5904, Note_on_c, 15, 74, 0
12, 5904, Note_on_c, 15, 71, 111
12, 5952, Note_on_c, 15, 71, 0
12, 5952, Note_on_c, 15, 74, 102
12, 5997, Note_on_c, 15, 74, 0
12, 6000, Note_on_c, 15, 76, 107
12, 6039, Note_on_c, 15, 76, 0
12, 6048, Note_on_c, 15, 76, 115
12, 6072, Note_on_c, 15, 74, 110
12, 6077, Note_on_c, 15, 76, 0
12, 6095, Note_on_c, 15, 74, 0
12, 6096, Note_on_c, 15, 71, 117
12, 6120, Note_on_c, 15, 73, 106
12, 6121, Note_on_c, 15, 71, 0
12, 6144, Note_on_c, 15, 74, 103
12, 6145, Note_on_c, 15, 73, 0
12, 6168, Note_on_c, 15, 73, 118
12, 6174, Note_on_c, 15, 74, 0
12, 6192, Note_on_c, 15, 71, 111
12, 6193, Note_on_c, 15, 73, 0
12, 6216, Note_on_c, 15, 69, 114
12, 6219, Note_on_c, 15, 71, 0
12, 6228, Note_on_c, 15, 69, 0
12, 6240, Note_on_c, 15, 69, 116
12, 6280, Note_on_c, 15, 69, 0
12, 6288, Note_on_c, 15, 71, 113
12, 6312, Note_on_c, 15, 69, 115
12, 6313, Note_on_c, 15, 71, 0
12, 6336, Note_on_c, 15, 68, 122
12, 6337, Note_on_c, 15, 69, 0
12, 6355, Note_on_c, 15, 68, 0
12, 6360, Note_on_c, 15, 66, 119
12, 6379, Note_on_c, 15, 66, 0
12, 6384, Note_on_c, 15, 64, 119
12, 6412, Note_on_c, 15, 64, 0
12, 6456, Note_on_c, 15, 71, 119
12, 6480, Note_on_c, 15, 69, 118
12, 6483, Note_on_c, 15, 71, 0
12, 6504, Note_on_c, 15, 67, 114
12, 6506, Note_on_c, 15, 69, 0
12, 6521, Note_on_c, 15, 67, 0
12, 6528, Note_on_c, 15, 69, 101
12, 6552, Note_on_c, 15, 69, 0
12, 6552, Note_on_c, 15, 67, 107
12, 6571, Note_on_c, 15, 67, 0
12, 6576, Note_on_c, 15, 66, 118
12, 6593, Note_on_c, 15, 66, 0
12, 6600, Note_on_c, 15, 67, 111
12, 6615, Note_on_c, 15, 67, 0
12, 6624, Note_on_c, 15, 67, 114
12, 6641, Note_on_c, 15, 67, 0
12, 6648, Note_on_c, 15, 74, 115
12, 6669, Note_on_c, 15, 74, 0
12, 6672, Note_on_c, 15, 71, 111
12, 6692, Note_on_c, 15, 71, 0
12, 6696, Note_on_c, 15, 69, 119
12, 6821, Note_on_c, 15, 69, 0
12, 6840, Note_on_c, 15, 71, 117
12, 6863, Note_on_c, 15, 71, 0
12, 6864, Note_on_c, 15, 69, 113
12, 6886, Note_on_c, 15, 69, 0
12, 6888, Note_on_c, 15, 67, 119
12, 6909, Note_on_c, 15, 67, 0
12, 6912, Note_on_c, 15, 69, 115
12, 6936, Note_on_c, 15, 67, 117
12, 6939, Note_on_c, 15, 69, 0
12, 6955, Note_on_c, 15, 67, 0
12, 6960, Note_on_c, 15, 66, 118
12, 6976, Note_on_c, 15, 66, 0
12, 6984, Note_on_c, 15, 67, 117
12, 6996, Note_on_c, 15, 67, 0
12, 7008, Note_on_c, 15, 67, 114
12, 7030, Note_on_c, 15, 67, 0
12, 7032, Note_on_c, 15, 74, 94
12, 7056, Note_on_c, 15, 71, 109
12, 7059, Note_on_c, 15, 74, 0
12, 7080, Note_on_c, 15, 67, 106
12, 7085, Note_on_c, 15, 71, 0
12, 7098, Note_on_c, 15, 67, 0
12, 7104, Note_on_c, 15, 64, 119
12, 7128, Note_on_c, 15, 66, 110
12, 7131, Note_on_c, 15, 64, 0
12, 7152, Note_on_c, 15, 67, 110
12, 7154, Note_on_c, 15, 66, 0
12, 7176, Note_on_c, 15, 66, 116
12, 7177, Note_on_c, 15, 67, 0
12, 7198, Note_on_c, 15, 66, 0
12, 7200, Note_on_c, 15, 64, 111
12, 7223, Note_on_c, 15, 64, 0
12, 7224, Note_on_c, 15, 62, 111
12, 7247, Note_on_c, 15, 62, 0
12, 7248, Note_on_c, 15, 59, 120
12, 7291, Note_on_c, 15, 59, 0
12, 7296, Note_on_c, 15, 61, 122
12, 7337, Note_on_c, 15, 61, 0
12, 7344, Note_on_c, 15, 62, 112
12, 7397, Note_on_c, 15, 62, 0
12, 14928, Note_on_c, 15, 76, 110
12, 14952, Note_on_c, 15, 78, 102
12, 14956, Note_on_c, 15, 76, 0
12, 14974, Note_on_c, 15, 78, 0
12, 14976, Note_on_c, 15, 79, 100
12, 15000, Note_on_c, 15, 78, 102
12, 15002, Note_on_c, 15, 79, 0
12, 15024, Note_on_c, 15, 76, 95
12, 15026, Note_on_c, 15, 78, 0
12, 15048, Note_on_c, 15, 74, 107
12, 15050, Note_on_c, 15, 76, 0
12, 15072, Note_on_c, 15, 74, 0
12, 15072, Note_on_c, 15, 71, 111
12, 15120, Note_on_c, 15, 71, 0
12, 15120, Note_on_c, 15, 74, 102
12, 15165, Note_on_c, 15, 74, 0
12, 15168, Note_on_c, 15, 76, 107
12, 15207, Note_on_c, 15, 76, 0
12, 15216, Note_on_c, 15, 76, 115
12, 15240, Note_on_c, 15, 74, 110
12, 15245, Note_on_c, 15, 76, 0
12, 15263, Note_on_c, 15, 74, 0
12, 15264, Note_on_c, 15, 71, 117
12, 15288, Note_on_c, 15, 73, 106
12, 15289, Note_on_c, 15, 71, 0
12, 15312, Note_on_c, 15, 74, 103
12, 15313, Note_on_c, 15, 73, 0
12, 15336, Note_on_c, 15, 73, 118
12, 15342, Note_on_c, 15, 74, 0
12, 15360, Note_on_c, 15, 71, 111
12, 15361, Note_on_c, 15, 73, 0
12, 15384, Note_on_c, 15, 69, 114
12, 15387, Note_on_c, 15, 71, 0
12, 15396, Note_on_c, 15, 69, 0
12, 15408, Note_on_c, 15, 69, 116
12, 15448, Note_on_c, 15, 69, 0
12, 15456, Note_on_c, 15, 71, 113
12, 15480, Note_on_c, 15, 69, 115
12, 15481, Note_on_c, 15, 71, 0
12, 15504, Note_on_c, 15, 68, 122
12, 15505, Note_on_c, 15, 69, 0
12, 15523, Note_on_c, 15, 68, 0
12, 15528, Note_on_c, 15, 66, 119
12, 15547, Note_on_c, 15, 66, 0
12, 15552, Note_on_c, 15, 64, 119
12, 15580, Note_on_c, 15, 64, 0
12, 15600, Note_on_c, 15, 76, 113
12, 15624, Note_on_c, 15, 78, 102
12, 15628, Note_on_c, 15, 76, 0
12, 15646, Note_on_c, 15, 78, 0
12, 15648, Note_on_c, 15, 79, 100
12, 15672, Note_on_c, 15, 78, 102
12, 15674, Note_on_c, 15, 79, 0
12, 15696, Note_on_c, 15, 76, 95
12, 15698, Note_on_c, 15, 78, 0
12, 15720, Note_on_c, 15, 74, 107
12, 15722, Note_on_c, 15, 76, 0
12, 15744, Note_on_c, 15, 74, 0
12, 15744, Note_on_c, 15, 71, 111
12, 15792, Note_on_c, 15, 71, 0
12, 15792, Note_on_c, 15, 74, 102
12, 15837, Note_on_c, 15, 74, 0
12, 15840, Note_on_c, 15, 76, 107
12, 15879, Note_on_c, 15, 76, 0
12, 15888, Note_on_c, 15, 76, 115
12, 15912, Note_on_c, 15, 74, 110
12, 15917, Note_on_c, 15, 76, 0
12, 15935, Note_on_c, 15, 74, 0
12, 15936, Note_on_c, 15, 71, 117
12, 15960, Note_on_c, 15, 73, 106
12, 15961, Note_on_c, 15, 71, 0
12, 15984, Note_on_c, 15, 74, 103
12, 15985, Note_on_c, 15, 73, 0
12, 16008, Note_on_c, 15, 73, 118
12, 16014, Note_on_c, 15, 74, 0
12, 16032, Note_on_c, 15, 71, 111
12, 16033, Note_on_c, 15, 73, 0
12, 16056, Note_on_c, 15, 69, 114
12, 16059, Note_on_c, 15, 71, 0
12, 16068, Note_on_c, 15, 69, 0
12, 16080, Note_on_c, 15, 69, 116
12, 16120, Note_on_c, 15, 69, 0
12, 16128, Note_on_c, 15, 71, 113
12, 16152, Note_on_c, 15, 69, 115
12, 16153, Note_on_c, 15, 71, 0
12, 16176, Note_on_c, 15, 68, 122
12, 16177, Note_on_c, 15, 69, 0
12, 16195, Note_on_c, 15, 68, 0
12, 16200, Note_on_c, 15, 66, 119
12, 16219, Note_on_c, 15, 66, 0
12, 16224, Note_on_c, 15, 64, 119
12, 16252, Note_on_c, 15, 64, 0
12, 16296, Note_on_c, 15, 71, 119
12, 16320, Note_on_c, 15, 69, 118
12, 16323, Note_on_c, 15, 71, 0
12, 16344, Note_on_c, 15, 67, 114
12, 16346, Note_on_c, 15, 69, 0
12, 16361, Note_on_c, 15, 67, 0
12, 16368, Note_on_c, 15, 69, 101
12, 16392, Note_on_c, 15, 69, 0
12, 16392, Note_on_c, 15, 67, 107
12, 16411, Note_on_c, 15, 67, 0
12, 16416, Note_on_c, 15, 66, 118
12, 16433, Note_on_c, 15, 66, 0
12, 16440, Note_on_c, 15, 67, 111
12, 16455, Note_on_c, 15, 67, 0
12, 16464, Note_on_c, 15, 67, 114
12, 16481, Note_on_c, 15, 67, 0
12, 16488, Note_on_c, 15, 74, 115
12, 16509, Note_on_c, 15, 74, 0
12, 16512, Note_on_c, 15, 71, 111
12, 16532, Note_on_c, 15, 71, 0
12, 16536, Note_on_c, 15, 69, 119
12, 16661, Note_on_c, 15, 69, 0
12, 16680, Note_on_c, 15, 71, 117
12, 16703, Note_on_c, 15, 71, 0
12, 16704, Note_on_c, 15, 69, 113
12, 16726, Note_on_c, 15, 69, 0
12, 16728, Note_on_c, 15, 67, 119
12, 16749, Note_on_c, 15, 67, 0
12, 16752, Note_on_c, 15, 69, 115
12, 16776, Note_on_c, 15, 67, 117
12, 16779, Note_on_c, 15, 69, 0
12, 16795, Note_on_c, 15, 67, 0
12, 16800, Note_on_c, 15, 66, 118
12, 16816, Note_on_c, 15, 66, 0
12, 16824, Note_on_c, 15, 67, 117
12, 16836, Note_on_c, 15, 67, 0
12, 16848, Note_on_c, 15, 67, 114
12, 16870, Note_on_c, 15, 67, 0
12, 16872, Note_on_c, 15, 74, 94
12, 16896, Note_on_c, 15, 71, 109
12, 16899, Note_on_c, 15, 74, 0
12, 16920, Note_on_c, 15, 67, 106
12, 16925, Note_on_c, 15, 71, 0
12, 16938, Note_on_c, 15, 67, 0
12, 16944, Note_on_c, 15, 64, 119
12, 16968, Note_on_c, 15, 66, 110
12, 16971, Note_on_c, 15, 64, 0
12, 16992, Note_on_c, 15, 67, 110
12, 16994, Note_on_c, 15, 66, 0
12, 17016, Note_on_c, 15, 66, 116
12, 17017, Note_on_c, 15, 67, 0
12, 17038, Note_on_c, 15, 66, 0
12, 17040, Note_on_c, 15, 64, 111
12, 17063, Note_on_c, 15, 64, 0
12, 17064, Note_on_c, 15, 62, 111
12, 17087, Note_on_c, 15, 62, 0
12, 17088, Note_on_c, 15, 59, 120
12, 17131, Note_on_c, 15, 59, 0
12, 17136, Note_on_c, 15, 61, 122
12, 17177, Note_on_c, 15, 61, 0
12, 17184, Note_on_c, 15, 62, 112
12, 17237, Note_on_c, 15, 62, 0
12, 17237, End_track
13, 0, Start_track
13, 0, MIDI_port, 0
13, 0, Title_t, "Guitar2"
13, 0, Program_c, 14, 30
13, 0, Control_c, 14, 7, 100
13, 0, Control_c, 14, 10, 40
13, 3432, Note_on_c, 14, 67, 109
13, 3456, Note_on_c, 14, 66, 110
13, 3457, Note_on_c, 14, 67, 0
13, 3477, Note_on_c, 14, 66, 0
13, 3480, Note_on_c, 14, 64, 108
13, 3504, Note_on_c, 14, 64, 0
13, 3504, Note_on_c, 14, 66, 118
13, 3526, Note_on_c, 14, 66, 0
13, 3528, Note_on_c, 14, 64, 111
13, 3545, Note_on_c, 14, 64, 0
13, 3552, Note_on_c, 14, 62, 115
13, 3570, Note_on_c, 14, 62, 0
13, 3576, Note_on_c, 14, 64, 111
13, 3591, Note_on_c, 14, 64, 0
13, 3600, Note_on_c, 14, 64, 111
13, 3614, Note_on_c, 14, 64, 0
13, 3624, Note_on_c, 14, 71, 95
13, 3640, Note_on_c, 14, 71, 0
13, 3648, Note_on_c, 14, 67, 111
13, 3662, Note_on_c, 14, 67, 0
13, 3672, Note_on_c, 14, 66, 122
13, 3790, Note_on_c, 14, 66, 0
13, 3816, Note_on_c, 14, 67, 111
13, 3836, Note_on_c, 14, 67, 0
13, 3840, Note_on_c, 14, 66, 110
13, 3862, Note_on_c, 14, 66, 0
13, 3864, Note_on_c, 14, 64, 115
13, 3888, Note_on_c, 14, 66, 119
13, 3889, Note_on_c, 14, 64, 0
13, 3908, Note_on_c, 14, 66, 0
13, 3912, Note_on_c, 14, 64, 102
13, 3933, Note_on_c, 14, 64, 0
13, 3936, Note_on_c, 14, 62, 117
13, 3959, Note_on_c, 14, 62, 0
13, 3960, Note_on_c, 14, 64, 113
13, 3973, Note_on_c, 14, 64, 0
13, 3984, Note_on_c, 14, 64, 112
13, 3997, Note_on_c, 14, 64, 0
13, 4008, Note_on_c, 14, 71, 96
13, 4028, Note_on_c, 14, 71, 0
13, 4032, Note_on_c, 14, 66, 116
13, 4054, Note_on_c, 14, 66, 0
13, 4056, Note_on_c, 14, 62, 117
13, 4078, Note_on_c, 14, 62, 0
13, 6456, Note_on_c, 14, 67, 109
13, 6480, Note_on_c, 14, 66, 110
13, 6481, Note_on_c, 14, 67, 0
13, 6501, Note_on_c, 14, 66, 0
13, 6504, Note_on_c, 14, 64, 108
13, 6528, Note_on_c, 14, 64, 0
13, 6528, Note_on_c, 14, 66, 118
13, 6550, Note_on_c, 14, 66, 0
13, 6552, Note_on_c, 14, 64, 111
13, 6569, Note_on_c, 14, 64, 0
13, 6576, Note_on_c, 14, 62, 115
13, 6594, Note_on_c, 14, 62, 0
13, 6600, Note_on_c, 14, 64, 111
13, 6615, Note_on_c, 14, 64, 0
13, 6624, Note_on_c, 14, 64, 111
13, 6638, Note_on_c, 14, 64, 0
13, 6648, Note_on_c, 14, 71, 95
13, 6664, Note_on_c, 14, 71, 0
13, 6672, Note_on_c, 14, 67, 111
13, 6686, Note_on_c, 14, 67, 0
13, 6696, Note_on_c, 14, 66, 122
13, 6814, Note_on_c, 14, 66, 0
13, 6840, Note_on_c, 14, 67, 111
13, 6860, Note_on_c, 14, 67, 0
13, 6864, Note_on_c, 14, 66, 110
13, 6886, Note_on_c, 14, 66, 0
13, 6888, Note_on_c, 14, 64, 115
13, 6912, Note_on_c, 14, 66, 119
13, 6913, Note_on_c, 14, 64, 0
13, 6932, Note_on_c, 14, 66, 0
13, 6936, Note_on_c, 14, 64, 102
13, 6957, Note_on_c, 14, 64, 0
13, 6960, Note_on_c, 14, 62, 117
13, 6983, Note_on_c, 14, 62, 0
13, 6984, Note_on_c, 14, 64, 113
13, 6997, Note_on_c, 14, 64, 0
13, 7008, Note_on_c, 14, 64, 112
13, 7021, Note_on_c, 14, 64, 0
13, 7032, Note_on_c, 14, 71, 96
13, 7052, Note_on_c, 14, 71, 0
13, 7056, Note_on_c, 14, 66, 116
13, 7078, Note_on_c, 14, 66, 0
13, 7080, Note_on_c, 14, 62, 117
13, 7102, Note_on_c, 14, 62, 0
13, 16296, Note_on_c, 14, 67, 109
13, 16320, Note_on_c, 14, 66, 110
13, 16321, Note_on_c, 14, 67, 0
13, 16341, Note_on_c, 14, 66, 0
13, 16344, Note_on_c, 14, 64, 108
13, 16368, Note_on_c, 14, 64, 0
13, 16368, Note_on_c, 14, 66, 118
13, 16390, Note_on_c, 14, 66, 0
13, 16392, Note_on_c, 14, 64, 111
13, 16409, Note_on_c, 14, 64, 0
13, 16416, Note_on_c, 14, 62, 115
13, 16434, Note_on_c, 14, 62, 0
13, 16440, Note_on_c, 14, 64, 111
13, 16455, Note_on_c, 14, 64, 0
13, 16464, Note_on_c, 14, 64, 111
13, 16478, Note_on_c, 14, 64, 0
13, 16488, Note_on_c, 14, 71, 95
13, 16504, Note_on_c, 14, 71, 0
13, 16512, Note_on_c, 14, 67, 111
13, 16526, Note_on_c, 14, 67, 0
13, 16536, Note_on_c, 14, 66, 122
13, 16654, Note_on_c, 14, 66, 0
13, 16680, Note_on_c, 14, 67, 111
13, 16700, Note_on_c, 14, 67, 0
13, 16704, Note_on_c, 14, 66, 110
13, 16726, Note_on_c, 14, 66, 0
13, 16728, Note_on_c, 14, 64, 115
13, 16752, Note_on_c, 14, 66, 119
13, 16753, Note_on_c, 14, 64, 0
13, 16772, Note_on_c, 14, 66, 0
13, 16776, Note_on_c, 14, 64, 102
13, 16797, Note_on_c, 14, 64, 0
13, 16800, Note_on_c, 14, 62, 117
13, 16823, Note_on_c, 14, 62, 0
13, 16824, Note_on_c, 14, 64, 113
13, 16837, Note_on_c, 14, 64, 0
13, 16848, Note_on_c, 14, 64, 112
13, 16861, Note_on_c, 14, 64, 0
13, 16872, Note_on_c, 14, 71, 96
13, 16892, Note_on_c, 14, 71, 0
13, 16896, Note_on_c, 14, 66, 116
13, 16918, Note_on_c, 14, 66, 0
13, 16920, Note_on_c, 14, 62, 117
13, 16942, Note_on_c, 14, 62, 0
13, 16942, End_track
14, 0, Start_track
14, 0, MIDI_port, 0
14, 0, Title_t, "If you have any"
14, 0, End_track
0, 0, End_of_file
