0, 0, Header, 1, 3, 384
1, 0, Start_track
1, 0, Tempo, 600000
1, 0, Time_signature, 4, 2, 24, 8
1, 148656, End_track
2, 0, Start_track
2, 0, Title_t, "A.PIANO 1"
2, 1536, Control_c, 1, 7, 127
2, 1536, Program_c, 1, 0
2, 2316, Control_c, 1, 67, 127
2, 3668, Note_on_c, 1, 46, 69
2, 3864, Control_c, 1, 64, 0
2, 3872, Control_c, 1, 64, 0
2, 3880, Control_c, 1, 64, 0
2, 3884, Control_c, 1, 64, 0
2, 3892, Control_c, 1, 64, 16
2, 3900, Control_c, 1, 64, 16
2, 3908, Control_c, 1, 64, 32
2, 3908, Control_c, 1, 64, 48
2, 3912, Control_c, 1, 64, 64
2, 3920, Control_c, 1, 64, 80
2, 3928, Control_c, 1, 64, 127
2, 3928, Control_c, 1, 64, 127
2, 3932, Control_c, 1, 64, 127
2, 3940, Control_c, 1, 64, 127
2, 3948, Note_on_c, 1, 56, 64
2, 3948, Control_c, 1, 64, 127
2, 4084, Note_off_c, 1, 46, 0
2, 4084, Note_on_c, 1, 58, 64
2, 4124, Note_off_c, 1, 56, 0
2, 4152, Note_off_c, 1, 58, 0
2, 4200, Note_on_c, 1, 59, 65
2, 4268, Note_off_c, 1, 59, 0
2, 4288, Note_on_c, 1, 62, 64
2, 4352, Note_on_c, 1, 64, 65
2, 4372, Note_off_c, 1, 62, 0
2, 4404, Note_off_c, 1, 64, 0
2, 4420, Note_on_c, 1, 67, 60
2, 4440, Note_off_c, 1, 67, 0
2, 4488, Note_on_c, 1, 68, 68
2, 4548, Note_on_c, 1, 70, 75
2, 4560, Note_off_c, 1, 68, 0
2, 4604, Note_off_c, 1, 70, 0
2, 4636, Note_on_c, 1, 71, 62
2, 4700, Note_on_c, 1, 74, 70
2, 4720, Note_off_c, 1, 71, 0
2, 4744, Note_on_c, 1, 76, 69
2, 4780, Note_off_c, 1, 74, 0
2, 4788, Note_off_c, 1, 76, 0
2, 4796, Note_on_c, 1, 79, 73
2, 4820, Note_off_c, 1, 79, 0
2, 4840, Note_on_c, 1, 80, 71
2, 4916, Note_off_c, 1, 80, 0
2, 4916, Note_on_c, 1, 82, 80
2, 4964, Note_off_c, 1, 82, 0
2, 4992, Note_on_c, 1, 83, 71
2, 5048, Note_on_c, 1, 86, 76
2, 5072, Note_off_c, 1, 83, 0
2, 5108, Note_on_c, 1, 88, 75
2, 5136, Note_off_c, 1, 86, 0
2, 5148, Note_off_c, 1, 88, 0
2, 5164, Note_on_c, 1, 91, 72
2, 5184, Note_off_c, 1, 91, 0
2, 5224, Note_on_c, 1, 92, 69
2, 5284, Note_on_c, 1, 94, 78
2, 5292, Note_off_c, 1, 92, 0
2, 5324, Note_off_c, 1, 94, 0
2, 5368, Note_on_c, 1, 95, 65
2, 5436, Note_on_c, 1, 98, 76
2, 5496, Note_on_c, 1, 100, 78
2, 5572, Note_off_c, 1, 98, 0
2, 5572, Note_on_c, 1, 103, 70
2, 5652, Note_off_c, 1, 100, 0
2, 5652, Note_off_c, 1, 95, 0
2, 5660, Note_off_c, 1, 103, 0
2, 6900, Control_c, 1, 64, 127
2, 6904, Control_c, 1, 64, 127
2, 6908, Control_c, 1, 64, 127
2, 6908, Control_c, 1, 64, 80
2, 6916, Control_c, 1, 64, 48
2, 6924, Control_c, 1, 64, 16
2, 6924, Control_c, 1, 64, 16
2, 6928, Control_c, 1, 64, 0
2, 6928, Control_c, 1, 64, 0
2, 6936, Control_c, 1, 64, 0
2, 6936, Note_on_c, 1, 58, 46
2, 6936, Note_on_c, 1, 43, 37
2, 6944, Note_on_c, 1, 53, 41
2, 6944, Control_c, 1, 64, 0
2, 6952, Note_on_c, 1, 70, 78
2, 6952, Control_c, 1, 64, 0
2, 7032, Note_off_c, 1, 70, 0
2, 7072, Control_c, 1, 64, 0
2, 7088, Note_on_c, 1, 67, 67
2, 7088, Control_c, 1, 64, 0
2, 7088, Control_c, 1, 64, 0
2, 7108, Control_c, 1, 64, 0
2, 7140, Control_c, 1, 64, 16
2, 7156, Note_off_c, 1, 67, 0
2, 7156, Control_c, 1, 64, 16
2, 7168, Control_c, 1, 64, 32
2, 7180, Control_c, 1, 64, 48
2, 7196, Control_c, 1, 64, 64
2, 7208, Note_on_c, 1, 63, 62
2, 7212, Control_c, 1, 64, 80
2, 7216, Control_c, 1, 64, 127
2, 7216, Control_c, 1, 64, 127
2, 7224, Note_off_c, 1, 43, 0
2, 7228, Control_c, 1, 64, 127
2, 7248, Control_c, 1, 64, 127
2, 7252, Note_off_c, 1, 53, 0
2, 7256, Note_off_c, 1, 58, 0
2, 7276, Note_off_c, 1, 63, 0
2, 7324, Note_on_c, 1, 62, 62
2, 7388, Note_off_c, 1, 62, 0
2, 7412, Control_c, 1, 64, 127
2, 7420, Control_c, 1, 64, 127
2, 7428, Control_c, 1, 64, 127
2, 7428, Control_c, 1, 64, 80
2, 7432, Control_c, 1, 64, 48
2, 7436, Control_c, 1, 64, 32
2, 7440, Control_c, 1, 64, 16
2, 7440, Control_c, 1, 64, 16
2, 7444, Control_c, 1, 64, 0
2, 7448, Control_c, 1, 64, 0
2, 7448, Control_c, 1, 64, 0
2, 7456, Control_c, 1, 64, 0
2, 7460, Note_on_c, 1, 55, 46
2, 7468, Control_c, 1, 64, 0
2, 7476, Note_on_c, 1, 45, 22
2, 7480, Note_on_c, 1, 61, 63
2, 7504, Control_c, 1, 64, 0
2, 7516, Control_c, 1, 64, 0
2, 7516, Control_c, 1, 64, 0
2, 7528, Control_c, 1, 64, 0
2, 7528, Control_c, 1, 64, 16
2, 7536, Control_c, 1, 64, 16
2, 7544, Control_c, 1, 64, 32
2, 7548, Control_c, 1, 64, 48
2, 7564, Note_off_c, 1, 45, 0
2, 7564, Control_c, 1, 64, 64
2, 7576, Note_off_c, 1, 61, 0
2, 7580, Control_c, 1, 64, 80
2, 7584, Control_c, 1, 64, 127
2, 7584, Control_c, 1, 64, 127
2, 7584, Control_c, 1, 64, 127
2, 7596, Control_c, 1, 64, 127
2, 7604, Control_c, 1, 64, 127
2, 7612, Note_off_c, 1, 55, 0
2, 7748, Control_c, 1, 64, 127
2, 7748, Control_c, 1, 64, 127
2, 7756, Control_c, 1, 64, 127
2, 7756, Note_on_c, 1, 72, 61
2, 7760, Control_c, 1, 64, 80
2, 7768, Control_c, 1, 64, 64
2, 7768, Control_c, 1, 64, 48
2, 7772, Control_c, 1, 64, 32
2, 7776, Control_c, 1, 64, 16
2, 7776, Control_c, 1, 64, 0
2, 7776, Note_on_c, 1, 64, 59
2, 7784, Control_c, 1, 64, 0
2, 7784, Control_c, 1, 64, 0
2, 7788, Note_on_c, 1, 61, 54
2, 7788, Note_on_c, 1, 52, 36
2, 7796, Control_c, 1, 64, 0
2, 7796, Note_on_c, 1, 58, 43
2, 7804, Control_c, 1, 64, 0
2, 7824, Note_on_c, 1, 48, 5
2, 7876, Control_c, 1, 64, 0
2, 7884, Control_c, 1, 64, 0
2, 7892, Control_c, 1, 64, 0
2, 7892, Control_c, 1, 64, 0
2, 7896, Control_c, 1, 64, 16
2, 7904, Note_off_c, 1, 52, 0
2, 7904, Control_c, 1, 64, 16
2, 7912, Note_off_c, 1, 64, 0
2, 7912, Control_c, 1, 64, 32
2, 7920, Note_off_c, 1, 72, 0
2, 7920, Control_c, 1, 64, 48
2, 7924, Note_off_c, 1, 48, 0
2, 7924, Control_c, 1, 64, 64
2, 7932, Note_off_c, 1, 61, 0
2, 7936, Control_c, 1, 64, 80
2, 7940, Control_c, 1, 64, 127
2, 7940, Control_c, 1, 64, 127
2, 7944, Control_c, 1, 64, 127
2, 7952, Control_c, 1, 64, 127
2, 7956, Note_off_c, 1, 58, 0
2, 7960, Control_c, 1, 64, 127
2, 8076, Control_c, 1, 64, 127
2, 8080, Control_c, 1, 64, 127
2, 8084, Control_c, 1, 64, 127
2, 8088, Control_c, 1, 64, 80
2, 8096, Control_c, 1, 64, 48
2, 8096, Control_c, 1, 64, 32
2, 8104, Control_c, 1, 64, 16
2, 8104, Control_c, 1, 64, 0
2, 8108, Control_c, 1, 64, 0
2, 8112, Control_c, 1, 64, 0
2, 8116, Note_on_c, 1, 72, 65
2, 8124, Note_on_c, 1, 63, 60
2, 8124, Note_on_c, 1, 41, 50
2, 8128, Note_on_c, 1, 56, 53
2, 8132, Note_on_c, 1, 67, 51
2, 8136, Note_on_c, 1, 60, 51
2, 8136, Note_on_c, 1, 48, 43
2, 8152, Control_c, 1, 64, 0
2, 8156, Control_c, 1, 64, 0
2, 8156, Control_c, 1, 64, 16
2, 8164, Control_c, 1, 64, 16
2, 8164, Control_c, 1, 64, 32
2, 8172, Note_off_c, 1, 41, 0
2, 8172, Control_c, 1, 64, 48
2, 8180, Note_off_c, 1, 60, 0
2, 8180, Control_c, 1, 64, 64
2, 8184, Control_c, 1, 64, 80
2, 8184, Control_c, 1, 64, 127
2, 8192, Control_c, 1, 64, 127
2, 8192, Control_c, 1, 64, 127
2, 8200, Note_off_c, 1, 48, 0
2, 8200, Control_c, 1, 64, 127
2, 8200, Control_c, 1, 64, 127
2, 8204, Note_off_c, 1, 56, 0
2, 8204, Note_off_c, 1, 63, 0
2, 8212, Note_off_c, 1, 67, 0
2, 8224, Note_off_c, 1, 72, 0
2, 8268, Control_c, 1, 64, 127
2, 8272, Control_c, 1, 64, 127
2, 8272, Control_c, 1, 64, 127
2, 8280, Control_c, 1, 64, 80
2, 8288, Control_c, 1, 64, 64
2, 8288, Control_c, 1, 64, 48
2, 8292, Control_c, 1, 64, 32
2, 8292, Control_c, 1, 64, 16
2, 8296, Control_c, 1, 64, 16
2, 8300, Note_on_c, 1, 43, 50
2, 8320, Note_on_c, 1, 58, 42
2, 8328, Control_c, 1, 64, 16
2, 8336, Control_c, 1, 64, 32
2, 8340, Control_c, 1, 64, 48
2, 8344, Control_c, 1, 64, 64
2, 8356, Note_off_c, 1, 43, 0
2, 8356, Control_c, 1, 64, 80
2, 8356, Control_c, 1, 64, 127
2, 8360, Control_c, 1, 64, 127
2, 8364, Note_off_c, 1, 58, 0
2, 8364, Control_c, 1, 64, 127
2, 8368, Control_c, 1, 64, 127
2, 8368, Control_c, 1, 64, 127
2, 8436, Control_c, 1, 64, 127
2, 8444, Control_c, 1, 64, 127
2, 8452, Control_c, 1, 64, 127
2, 8452, Control_c, 1, 64, 64
2, 8456, Control_c, 1, 64, 48
2, 8464, Control_c, 1, 64, 16
2, 8464, Control_c, 1, 64, 0
2, 8464, Control_c, 1, 64, 0
2, 8472, Control_c, 1, 64, 0
2, 8472, Control_c, 1, 64, 0
2, 8480, Note_on_c, 1, 44, 51
2, 8480, Control_c, 1, 64, 0
2, 8480, Note_on_c, 1, 63, 60
2, 8484, Note_on_c, 1, 70, 60
2, 8484, Note_on_c, 1, 67, 51
2, 8492, Note_on_c, 1, 60, 52
2, 8520, Control_c, 1, 64, 0
2, 8524, Control_c, 1, 64, 0
2, 8532, Control_c, 1, 64, 0
2, 8532, Control_c, 1, 64, 0
2, 8540, Control_c, 1, 64, 16
2, 8540, Control_c, 1, 64, 16
2, 8548, Control_c, 1, 64, 32
2, 8548, Control_c, 1, 64, 48
2, 8548, Control_c, 1, 64, 64
2, 8560, Control_c, 1, 64, 80
2, 8560, Control_c, 1, 64, 127
2, 8568, Control_c, 1, 64, 127
2, 8568, Control_c, 1, 64, 127
2, 8572, Control_c, 1, 64, 127
2, 8576, Control_c, 1, 64, 127
2, 8608, Note_off_c, 1, 67, 0
2, 8616, Note_off_c, 1, 63, 0
2, 8620, Note_off_c, 1, 60, 0
2, 8624, Note_off_c, 1, 70, 0
2, 8628, Note_off_c, 1, 44, 0
2, 8640, Control_c, 1, 64, 127
2, 8648, Control_c, 1, 64, 127
2, 8656, Control_c, 1, 64, 127
2, 8656, Note_on_c, 1, 45, 56
2, 8656, Control_c, 1, 64, 80
2, 8664, Control_c, 1, 64, 64
2, 8668, Control_c, 1, 64, 48
2, 8668, Control_c, 1, 64, 32
2, 8672, Control_c, 1, 64, 16
2, 8676, Control_c, 1, 64, 16
2, 8684, Control_c, 1, 64, 0
2, 8684, Control_c, 1, 64, 0
2, 8684, Control_c, 1, 64, 0
2, 8716, Control_c, 1, 64, 0
2, 8716, Control_c, 1, 64, 0
2, 8724, Control_c, 1, 64, 16
2, 8724, Control_c, 1, 64, 16
2, 8724, Control_c, 1, 64, 32
2, 8732, Control_c, 1, 64, 48
2, 8736, Control_c, 1, 64, 64
2, 8740, Control_c, 1, 64, 80
2, 8744, Control_c, 1, 64, 127
2, 8752, Control_c, 1, 64, 127
2, 8752, Control_c, 1, 64, 127
2, 8752, Control_c, 1, 64, 127
2, 8756, Control_c, 1, 64, 127
2, 8792, Note_off_c, 1, 45, 0
2, 8852, Control_c, 1, 64, 127
2, 8860, Control_c, 1, 64, 127
2, 8860, Control_c, 1, 64, 127
2, 8868, Control_c, 1, 64, 80
2, 8872, Control_c, 1, 64, 64
2, 8872, Control_c, 1, 64, 48
2, 8876, Control_c, 1, 64, 32
2, 8880, Control_c, 1, 64, 16
2, 8880, Control_c, 1, 64, 0
2, 8888, Control_c, 1, 64, 0
2, 8888, Note_on_c, 1, 46, 62
2, 8888, Control_c, 1, 64, 0
2, 8900, Control_c, 1, 64, 0
2, 8920, Control_c, 1, 64, 0
2, 8928, Control_c, 1, 64, 0
2, 8936, Control_c, 1, 64, 0
2, 8936, Control_c, 1, 64, 16
2, 8944, Control_c, 1, 64, 16
2, 8944, Control_c, 1, 64, 32
2, 8948, Control_c, 1, 64, 48
2, 8956, Control_c, 1, 64, 64
2, 8964, Control_c, 1, 64, 80
2, 8964, Control_c, 1, 64, 127
2, 8968, Control_c, 1, 64, 127
2, 8968, Control_c, 1, 64, 127
2, 8972, Control_c, 1, 64, 127
2, 8976, Control_c, 1, 64, 127
2, 9064, Control_c, 1, 64, 127
2, 9064, Control_c, 1, 64, 127
2, 9080, Control_c, 1, 64, 127
2, 9080, Control_c, 1, 64, 64
2, 9084, Control_c, 1, 64, 32
2, 9084, Control_c, 1, 64, 16
2, 9088, Control_c, 1, 64, 0
2, 9092, Control_c, 1, 64, 0
2, 9092, Control_c, 1, 64, 0
2, 9100, Control_c, 1, 64, 0
2, 9108, Note_on_c, 1, 57, 52
2, 9112, Note_on_c, 1, 61, 51
2, 9120, Note_on_c, 1, 66, 66
2, 9152, Note_on_c, 1, 70, 70
2, 9264, Control_c, 1, 64, 0
2, 9276, Control_c, 1, 64, 0
2, 9284, Control_c, 1, 64, 0
2, 9316, Control_c, 1, 64, 0
2, 9324, Control_c, 1, 64, 16
2, 9332, Control_c, 1, 64, 16
2, 9336, Control_c, 1, 64, 32
2, 9344, Control_c, 1, 64, 48
2, 9352, Control_c, 1, 64, 64
2, 9360, Note_off_c, 1, 61, 0
2, 9364, Control_c, 1, 64, 80
2, 9368, Control_c, 1, 64, 127
2, 9372, Control_c, 1, 64, 127
2, 9372, Control_c, 1, 64, 127
2, 9380, Control_c, 1, 64, 127
2, 9384, Note_off_c, 1, 66, 0
2, 9392, Control_c, 1, 64, 127
2, 9476, Note_off_c, 1, 57, 0
2, 9528, Note_on_c, 1, 56, 41
2, 9544, Control_c, 1, 64, 127
2, 9544, Control_c, 1, 64, 127
2, 9548, Note_on_c, 1, 64, 55
2, 9552, Note_on_c, 1, 59, 54
2, 9552, Control_c, 1, 64, 127
2, 9556, Control_c, 1, 64, 80
2, 9564, Control_c, 1, 64, 48
2, 9564, Control_c, 1, 64, 32
2, 9568, Control_c, 1, 64, 16
2, 9572, Control_c, 1, 64, 0
2, 9572, Control_c, 1, 64, 0
2, 9576, Control_c, 1, 64, 0
2, 9576, Control_c, 1, 64, 0
2, 9576, Control_c, 1, 64, 0
2, 9684, Control_c, 1, 64, 0
2, 9688, Control_c, 1, 64, 0
2, 9692, Control_c, 1, 64, 0
2, 9700, Control_c, 1, 64, 0
2, 9700, Control_c, 1, 64, 16
2, 9700, Control_c, 1, 64, 16
2, 9708, Control_c, 1, 64, 32
2, 9708, Control_c, 1, 64, 48
2, 9712, Control_c, 1, 64, 64
2, 9720, Control_c, 1, 64, 80
2, 9720, Control_c, 1, 64, 127
2, 9728, Control_c, 1, 64, 127
2, 9728, Control_c, 1, 64, 127
2, 9732, Control_c, 1, 64, 127
2, 9736, Control_c, 1, 64, 127
2, 9780, Note_off_c, 1, 59, 0
2, 9796, Note_off_c, 1, 64, 0
2, 9800, Note_off_c, 1, 70, 0
2, 9836, Note_off_c, 1, 56, 0
2, 9848, Note_off_c, 1, 46, 0
2, 10124, Control_c, 1, 64, 127
2, 10124, Control_c, 1, 64, 127
2, 10128, Control_c, 1, 64, 127
2, 10132, Control_c, 1, 64, 64
2, 10136, Control_c, 1, 64, 32
2, 10136, Control_c, 1, 64, 16
2, 10144, Control_c, 1, 64, 0
2, 10144, Control_c, 1, 64, 0
2, 10144, Control_c, 1, 64, 0
2, 10148, Note_on_c, 1, 43, 63
2, 10156, Control_c, 1, 64, 0
2, 10156, Control_c, 1, 64, 0
2, 10212, Control_c, 1, 64, 0
2, 10216, Control_c, 1, 64, 0
2, 10224, Control_c, 1, 64, 0
2, 10224, Control_c, 1, 64, 0
2, 10232, Control_c, 1, 64, 16
2, 10232, Control_c, 1, 64, 16
2, 10240, Control_c, 1, 64, 32
2, 10240, Control_c, 1, 64, 48
2, 10252, Control_c, 1, 64, 64
2, 10256, Control_c, 1, 64, 80
2, 10260, Control_c, 1, 64, 127
2, 10260, Control_c, 1, 64, 127
2, 10264, Control_c, 1, 64, 127
2, 10268, Control_c, 1, 64, 127
2, 10280, Control_c, 1, 64, 127
2, 10308, Note_on_c, 1, 53, 52
2, 10320, Note_on_c, 1, 70, 68
2, 10328, Note_on_c, 1, 58, 63
2, 10328, Control_c, 1, 64, 127
2, 10336, Control_c, 1, 64, 127
2, 10336, Control_c, 1, 64, 127
2, 10340, Control_c, 1, 64, 80
2, 10348, Control_c, 1, 64, 48
2, 10348, Control_c, 1, 64, 16
2, 10348, Control_c, 1, 64, 0
2, 10356, Control_c, 1, 64, 0
2, 10356, Control_c, 1, 64, 0
2, 10360, Control_c, 1, 64, 0
2, 10364, Note_off_c, 1, 70, 0
2, 10364, Control_c, 1, 64, 0
2, 10376, Note_on_c, 1, 72, 67
2, 10428, Note_off_c, 1, 72, 0
2, 10428, Note_on_c, 1, 70, 73
2, 10476, Note_off_c, 1, 70, 0
2, 10496, Note_on_c, 1, 72, 67
2, 10532, Control_c, 1, 64, 0
2, 10540, Note_off_c, 1, 72, 0
2, 10540, Control_c, 1, 64, 0
2, 10552, Control_c, 1, 64, 0
2, 10568, Note_on_c, 1, 70, 67
2, 10588, Control_c, 1, 64, 0
2, 10592, Note_off_c, 1, 70, 0
2, 10592, Control_c, 1, 64, 16
2, 10612, Control_c, 1, 64, 16
2, 10620, Control_c, 1, 64, 32
2, 10628, Control_c, 1, 64, 48
2, 10636, Control_c, 1, 64, 64
2, 10636, Note_on_c, 1, 72, 40
2, 10644, Control_c, 1, 64, 80
2, 10648, Control_c, 1, 64, 127
2, 10648, Control_c, 1, 64, 127
2, 10656, Control_c, 1, 64, 127
2, 10656, Control_c, 1, 64, 127
2, 10660, Note_off_c, 1, 72, 0
2, 10660, Control_c, 1, 64, 127
2, 10676, Note_on_c, 1, 70, 66
2, 10696, Note_off_c, 1, 70, 0
2, 10696, Note_off_c, 1, 43, 0
2, 10716, Note_on_c, 1, 72, 77
2, 10716, Control_c, 1, 64, 127
2, 10716, Control_c, 1, 64, 127
2, 10724, Control_c, 1, 64, 127
2, 10724, Control_c, 1, 64, 80
2, 10732, Control_c, 1, 64, 48
2, 10736, Note_off_c, 1, 53, 0
2, 10736, Control_c, 1, 64, 16
2, 10736, Control_c, 1, 64, 0
2, 10740, Note_off_c, 1, 58, 0
2, 10744, Control_c, 1, 64, 0
2, 10744, Control_c, 1, 64, 0
2, 10748, Control_c, 1, 64, 0
2, 10752, Control_c, 1, 64, 0
2, 10764, Note_on_c, 1, 70, 78
2, 10772, Note_off_c, 1, 72, 0
2, 10792, Note_on_c, 1, 42, 59
2, 10824, Note_off_c, 1, 70, 0
2, 10840, Note_on_c, 1, 69, 68
2, 10868, Control_c, 1, 64, 0
2, 10872, Control_c, 1, 64, 0
2, 10872, Control_c, 1, 64, 0
2, 10880, Control_c, 1, 64, 0
2, 10888, Control_c, 1, 64, 16
2, 10900, Note_off_c, 1, 69, 0
2, 10908, Control_c, 1, 64, 16
2, 10920, Control_c, 1, 64, 32
2, 10940, Note_on_c, 1, 57, 61
2, 10940, Control_c, 1, 64, 48
2, 10948, Control_c, 1, 64, 64
2, 10960, Control_c, 1, 64, 80
2, 10964, Control_c, 1, 64, 127
2, 10968, Note_off_c, 1, 42, 0
2, 10968, Control_c, 1, 64, 127
2, 10976, Control_c, 1, 64, 127
2, 10976, Control_c, 1, 64, 127
2, 10984, Control_c, 1, 64, 127
2, 11036, Note_off_c, 1, 57, 0
2, 11044, Control_c, 1, 64, 127
2, 11052, Control_c, 1, 64, 127
2, 11052, Control_c, 1, 64, 127
2, 11056, Control_c, 1, 64, 80
2, 11060, Control_c, 1, 64, 48
2, 11064, Control_c, 1, 64, 32
2, 11064, Control_c, 1, 64, 16
2, 11064, Control_c, 1, 64, 0
2, 11072, Control_c, 1, 64, 0
2, 11072, Control_c, 1, 64, 0
2, 11076, Control_c, 1, 64, 0
2, 11080, Control_c, 1, 64, 0
2, 11084, Note_on_c, 1, 57, 59
2, 11092, Note_on_c, 1, 47, 57
2, 11092, Note_on_c, 1, 69, 70
2, 11100, Note_on_c, 1, 75, 70
2, 11100, Note_on_c, 1, 63, 60
2, 11160, Control_c, 1, 64, 0
2, 11168, Control_c, 1, 64, 0
2, 11168, Control_c, 1, 64, 0
2, 11172, Control_c, 1, 64, 0
2, 11172, Control_c, 1, 64, 16
2, 11180, Control_c, 1, 64, 16
2, 11180, Control_c, 1, 64, 32
2, 11188, Control_c, 1, 64, 48
2, 11188, Control_c, 1, 64, 64
2, 11192, Note_off_c, 1, 63, 0
2, 11200, Control_c, 1, 64, 80
2, 11204, Note_off_c, 1, 69, 0
2, 11208, Note_off_c, 1, 47, 0
2, 11208, Control_c, 1, 64, 127
2, 11212, Control_c, 1, 64, 127
2, 11216, Control_c, 1, 64, 127
2, 11216, Control_c, 1, 64, 127
2, 11220, Note_off_c, 1, 75, 0
2, 11220, Control_c, 1, 64, 127
2, 11228, Note_off_c, 1, 57, 0
2, 11352, Control_c, 1, 64, 127
2, 11352, Control_c, 1, 64, 127
2, 11356, Control_c, 1, 64, 127
2, 11364, Control_c, 1, 64, 64
2, 11364, Control_c, 1, 64, 48
2, 11364, Control_c, 1, 64, 16
2, 11372, Control_c, 1, 64, 0
2, 11372, Control_c, 1, 64, 0
2, 11376, Control_c, 1, 64, 0
2, 11380, Control_c, 1, 64, 0
2, 11384, Control_c, 1, 64, 0
2, 11388, Note_on_c, 1, 56, 60
2, 11392, Note_on_c, 1, 72, 65
2, 11400, Note_on_c, 1, 41, 35
2, 11400, Note_on_c, 1, 68, 66
2, 11404, Note_on_c, 1, 75, 68
2, 11404, Note_on_c, 1, 67, 63
2, 11412, Note_on_c, 1, 48, 47
2, 11448, Control_c, 1, 64, 0
2, 11452, Note_off_c, 1, 41, 0
2, 11452, Control_c, 1, 64, 0
2, 11460, Note_off_c, 1, 48, 0
2, 11460, Control_c, 1, 64, 0
2, 11460, Control_c, 1, 64, 0
2, 11468, Control_c, 1, 64, 16
2, 11468, Control_c, 1, 64, 16
2, 11472, Control_c, 1, 64, 32
2, 11472, Control_c, 1, 64, 48
2, 11476, Control_c, 1, 64, 64
2, 11480, Note_off_c, 1, 56, 0
2, 11488, Control_c, 1, 64, 80
2, 11488, Control_c, 1, 64, 127
2, 11492, Control_c, 1, 64, 127
2, 11496, Control_c, 1, 64, 127
2, 11500, Control_c, 1, 64, 127
2, 11500, Control_c, 1, 64, 127
2, 11576, Note_off_c, 1, 67, 0
2, 11576, Note_off_c, 1, 75, 0
2, 11576, Note_off_c, 1, 72, 0
2, 11596, Control_c, 1, 64, 127
2, 11604, Control_c, 1, 64, 127
2, 11608, Control_c, 1, 64, 127
2, 11612, Note_off_c, 1, 68, 0
2, 11612, Control_c, 1, 64, 80
2, 11616, Control_c, 1, 64, 64
2, 11624, Control_c, 1, 64, 32
2, 11624, Control_c, 1, 64, 16
2, 11624, Control_c, 1, 64, 0
2, 11632, Note_on_c, 1, 65, 54
2, 11632, Control_c, 1, 64, 0
2, 11636, Note_on_c, 1, 63, 55
2, 11636, Note_on_c, 1, 60, 42
2, 11636, Control_c, 1, 64, 0
2, 11644, Control_c, 1, 64, 0
2, 11644, Control_c, 1, 64, 0
2, 11720, Note_on_c, 1, 67, 60
2, 11720, Note_on_c, 1, 72, 63
2, 11724, Control_c, 1, 64, 0
2, 11732, Control_c, 1, 64, 0
2, 11740, Note_off_c, 1, 63, 0
2, 11740, Note_off_c, 1, 65, 0
2, 11748, Control_c, 1, 64, 0
2, 11748, Control_c, 1, 64, 0
2, 11752, Note_off_c, 1, 60, 0
2, 11752, Control_c, 1, 64, 16
2, 11752, Control_c, 1, 64, 16
2, 11760, Note_off_c, 1, 67, 0
2, 11760, Control_c, 1, 64, 32
2, 11768, Control_c, 1, 64, 48
2, 11772, Control_c, 1, 64, 64
2, 11788, Control_c, 1, 64, 80
2, 11788, Control_c, 1, 64, 127
2, 11792, Control_c, 1, 64, 127
2, 11796, Control_c, 1, 64, 127
2, 11800, Control_c, 1, 64, 127
2, 11816, Control_c, 1, 64, 127
2, 11820, Note_on_c, 1, 75, 68
2, 11828, Note_on_c, 1, 68, 59
2, 11856, Note_off_c, 1, 72, 0
2, 11864, Note_off_c, 1, 68, 0
2, 11876, Note_off_c, 1, 75, 0
2, 11936, Note_on_c, 1, 67, 69
2, 11944, Note_on_c, 1, 74, 71
2, 11944, Note_on_c, 1, 62, 60
2, 11944, Note_on_c, 1, 71, 65
2, 11952, Control_c, 1, 64, 127
2, 11952, Control_c, 1, 64, 127
2, 11956, Control_c, 1, 64, 127
2, 11960, Control_c, 1, 64, 127
2, 11964, Control_c, 1, 64, 64
2, 11972, Control_c, 1, 64, 48
2, 11972, Control_c, 1, 64, 16
2, 11972, Control_c, 1, 64, 0
2, 11980, Control_c, 1, 64, 0
2, 11980, Control_c, 1, 64, 0
2, 11984, Control_c, 1, 64, 0
2, 11984, Control_c, 1, 64, 0
2, 12020, Note_off_c, 1, 62, 0
2, 12032, Note_off_c, 1, 74, 0
2, 12040, Note_off_c, 1, 71, 0
2, 12040, Note_off_c, 1, 67, 0
2, 12048, Note_on_c, 1, 46, 64
2, 12052, Control_c, 1, 64, 0
2, 12052, Control_c, 1, 64, 0
2, 12068, Control_c, 1, 64, 0
2, 12068, Control_c, 1, 64, 0
2, 12068, Control_c, 1, 64, 16
2, 12072, Control_c, 1, 64, 16
2, 12076, Control_c, 1, 64, 32
2, 12080, Control_c, 1, 64, 48
2, 12080, Control_c, 1, 64, 64
2, 12096, Control_c, 1, 64, 80
2, 12096, Control_c, 1, 64, 127
2, 12096, Control_c, 1, 64, 127
2, 12100, Control_c, 1, 64, 127
2, 12116, Control_c, 1, 64, 127
2, 12144, Note_on_c, 1, 56, 61
2, 12176, Note_off_c, 1, 46, 0
2, 12176, Note_on_c, 1, 58, 67
2, 12184, Control_c, 1, 64, 127
2, 12204, Control_c, 1, 64, 127
2, 12212, Note_off_c, 1, 56, 0
2, 12216, Control_c, 1, 64, 127
2, 12220, Note_off_c, 1, 58, 0
2, 12224, Control_c, 1, 64, 80
2, 12232, Control_c, 1, 64, 64
2, 12244, Control_c, 1, 64, 48
2, 12260, Note_on_c, 1, 59, 56
2, 12260, Note_on_c, 1, 64, 68
2, 12284, Control_c, 1, 64, 32
2, 12300, Note_off_c, 1, 59, 0
2, 12304, Control_c, 1, 64, 16
2, 12312, Control_c, 1, 64, 16
2, 12328, Control_c, 1, 64, 0
2, 12332, Note_on_c, 1, 62, 62
2, 12340, Control_c, 1, 64, 0
2, 12340, Note_on_c, 1, 67, 71
2, 12348, Note_off_c, 1, 64, 0
2, 12348, Control_c, 1, 64, 0
2, 12352, Note_off_c, 1, 62, 0
2, 12360, Control_c, 1, 64, 0
2, 12368, Control_c, 1, 64, 0
2, 12380, Note_off_c, 1, 67, 0
2, 12408, Note_on_c, 1, 68, 69
2, 12436, Note_on_c, 1, 70, 54
2, 12492, Note_on_c, 1, 71, 55
2, 12492, Note_on_c, 1, 76, 63
2, 12532, Note_off_c, 1, 70, 0
2, 12540, Note_off_c, 1, 68, 0
2, 12572, Control_c, 1, 64, 0
2, 12572, Note_on_c, 1, 74, 66
2, 12580, Control_c, 1, 64, 0
2, 12584, Note_on_c, 1, 79, 68
2, 12584, Control_c, 1, 64, 0
2, 12588, Control_c, 1, 64, 0
2, 12592, Control_c, 1, 64, 16
2, 12592, Control_c, 1, 64, 16
2, 12600, Control_c, 1, 64, 32
2, 12612, Control_c, 1, 64, 48
2, 12616, Note_off_c, 1, 76, 0
2, 12620, Control_c, 1, 64, 64
2, 12632, Control_c, 1, 64, 80
2, 12632, Control_c, 1, 64, 127
2, 12636, Control_c, 1, 64, 127
2, 12640, Control_c, 1, 64, 127
2, 12648, Note_off_c, 1, 79, 0
2, 12648, Note_off_c, 1, 71, 0
2, 12648, Control_c, 1, 64, 127
2, 12656, Note_off_c, 1, 74, 0
2, 12656, Control_c, 1, 64, 127
2, 12696, Control_c, 1, 64, 127
2, 12696, Control_c, 1, 64, 127
2, 12708, Control_c, 1, 64, 127
2, 12708, Control_c, 1, 64, 80
2, 12716, Control_c, 1, 64, 48
2, 12716, Control_c, 1, 64, 32
2, 12716, Control_c, 1, 64, 16
2, 12720, Control_c, 1, 64, 0
2, 12724, Control_c, 1, 64, 0
2, 12728, Control_c, 1, 64, 0
2, 12736, Control_c, 1, 64, 0
2, 12736, Control_c, 1, 64, 0
2, 12756, Note_on_c, 1, 56, 57
2, 12764, Note_on_c, 1, 61, 42
2, 12784, Note_on_c, 1, 46, 32
2, 12908, Control_c, 1, 64, 0
2, 12912, Control_c, 1, 64, 0
2, 12912, Control_c, 1, 64, 0
2, 12920, Control_c, 1, 64, 0
2, 12928, Control_c, 1, 64, 16
2, 12928, Control_c, 1, 64, 16
2, 12932, Control_c, 1, 64, 32
2, 12932, Control_c, 1, 64, 48
2, 12940, Control_c, 1, 64, 64
2, 12956, Control_c, 1, 64, 80
2, 12956, Control_c, 1, 64, 127
2, 12960, Control_c, 1, 64, 127
2, 12960, Control_c, 1, 64, 127
2, 12976, Control_c, 1, 64, 127
2, 12988, Control_c, 1, 64, 127
2, 13068, Control_c, 1, 64, 127
2, 13076, Control_c, 1, 64, 127
2, 13084, Note_on_c, 1, 77, 70
2, 13084, Control_c, 1, 64, 80
2, 13092, Control_c, 1, 64, 64
2, 13092, Control_c, 1, 64, 32
2, 13096, Control_c, 1, 64, 16
2, 13096, Control_c, 1, 64, 0
2, 13104, Control_c, 1, 64, 0
2, 13104, Control_c, 1, 64, 0
2, 13104, Control_c, 1, 64, 0
2, 13124, Note_off_c, 1, 77, 0
2, 13132, Note_on_c, 1, 79, 69
2, 13200, Note_on_c, 1, 77, 73
2, 13212, Note_off_c, 1, 79, 0
2, 13248, Note_off_c, 1, 77, 0
2, 13280, Note_on_c, 1, 72, 48
2, 13328, Control_c, 1, 64, 0
2, 13344, Control_c, 1, 64, 0
2, 13364, Control_c, 1, 64, 0
2, 13412, Note_on_c, 1, 77, 74
2, 13412, Control_c, 1, 64, 0
2, 13440, Note_off_c, 1, 72, 0
2, 13440, Control_c, 1, 64, 0
2, 13444, Control_c, 1, 64, 0
2, 13452, Control_c, 1, 64, 0
2, 13460, Control_c, 1, 64, 0
2, 13500, Control_c, 1, 64, 0
2, 13508, Note_off_c, 1, 77, 0
2, 13512, Note_off_c, 1, 46, 0
2, 13516, Control_c, 1, 64, 0
2, 13516, Control_c, 1, 64, 0
2, 13520, Note_off_c, 1, 56, 0
2, 13520, Control_c, 1, 64, 0
2, 13528, Control_c, 1, 64, 16
2, 13528, Control_c, 1, 64, 16
2, 13532, Control_c, 1, 64, 32
2, 13536, Control_c, 1, 64, 48
2, 13536, Control_c, 1, 64, 64
2, 13540, Note_on_c, 1, 75, 69
2, 13548, Control_c, 1, 64, 80
2, 13548, Control_c, 1, 64, 127
2, 13556, Note_off_c, 1, 61, 0
2, 13556, Control_c, 1, 64, 127
2, 13556, Control_c, 1, 64, 127
2, 13560, Control_c, 1, 64, 127
2, 13560, Control_c, 1, 64, 127
2, 13664, Control_c, 1, 64, 127
2, 13664, Control_c, 1, 64, 127
2, 13664, Note_on_c, 1, 61, 60
2, 13672, Control_c, 1, 64, 127
2, 13676, Control_c, 1, 64, 64
2, 13676, Control_c, 1, 64, 48
2, 13684, Note_on_c, 1, 65, 60
2, 13684, Control_c, 1, 64, 16
2, 13692, Note_on_c, 1, 51, 56
2, 13692, Control_c, 1, 64, 0
2, 13692, Control_c, 1, 64, 0
2, 13696, Control_c, 1, 64, 0
2, 13700, Control_c, 1, 64, 0
2, 13704, Control_c, 1, 64, 0
2, 13720, Note_off_c, 1, 75, 0
2, 13724, Note_off_c, 1, 65, 0
2, 13732, Control_c, 1, 64, 0
2, 13740, Control_c, 1, 64, 0
2, 13744, Control_c, 1, 64, 0
2, 13752, Control_c, 1, 64, 0
2, 13760, Control_c, 1, 64, 16
2, 13760, Control_c, 1, 64, 16
2, 13760, Control_c, 1, 64, 32
2, 13764, Control_c, 1, 64, 48
2, 13772, Control_c, 1, 64, 64
2, 13788, Control_c, 1, 64, 80
2, 13788, Control_c, 1, 64, 127
2, 13812, Control_c, 1, 64, 80
2, 13816, Note_on_c, 1, 64, 63
2, 13820, Control_c, 1, 64, 64
2, 13860, Control_c, 1, 64, 80
2, 13860, Control_c, 1, 64, 127
2, 13868, Control_c, 1, 64, 127
2, 13880, Control_c, 1, 64, 127
2, 13884, Control_c, 1, 64, 127
2, 13888, Note_off_c, 1, 61, 0
2, 13896, Note_off_c, 1, 51, 0
2, 13896, Control_c, 1, 64, 127
2, 13952, Note_on_c, 1, 72, 72
2, 14032, Note_off_c, 1, 64, 0
2, 14048, Note_off_c, 1, 72, 0
2, 14060, Control_c, 1, 64, 127
2, 14068, Control_c, 1, 64, 127
2, 14068, Control_c, 1, 64, 127
2, 14072, Control_c, 1, 64, 80
2, 14076, Control_c, 1, 64, 48
2, 14080, Control_c, 1, 64, 16
2, 14088, Control_c, 1, 64, 0
2, 14088, Control_c, 1, 64, 0
2, 14088, Control_c, 1, 64, 0
2, 14092, Control_c, 1, 64, 0
2, 14100, Control_c, 1, 64, 0
2, 14100, Note_on_c, 1, 55, 54
2, 14104, Note_on_c, 1, 67, 69
2, 14108, Note_on_c, 1, 60, 59
2, 14108, Note_on_c, 1, 70, 67
2, 14116, Note_on_c, 1, 44, 40
2, 14168, Control_c, 1, 64, 0
2, 14176, Control_c, 1, 64, 0
2, 14184, Control_c, 1, 64, 0
2, 14184, Control_c, 1, 64, 0
2, 14188, Control_c, 1, 64, 16
2, 14196, Control_c, 1, 64, 16
2, 14208, Control_c, 1, 64, 32
2, 14216, Control_c, 1, 64, 48
2, 14228, Control_c, 1, 64, 64
2, 14236, Control_c, 1, 64, 80
2, 14236, Control_c, 1, 64, 127
2, 14240, Note_off_c, 1, 67, 0
2, 14244, Note_off_c, 1, 70, 0
2, 14244, Control_c, 1, 64, 127
2, 14252, Control_c, 1, 64, 127
2, 14252, Control_c, 1, 64, 127
2, 14256, Control_c, 1, 64, 127
2, 14264, Note_on_c, 1, 68, 68
2, 14272, Note_on_c, 1, 65, 51
2, 14304, Note_off_c, 1, 65, 0
2, 14340, Note_off_c, 1, 68, 0
2, 14340, Control_c, 1, 64, 127
2, 14368, Note_on_c, 1, 67, 71
2, 14372, Note_off_c, 1, 60, 0
2, 14372, Note_on_c, 1, 70, 70
2, 14376, Note_off_c, 1, 55, 0
2, 14428, Note_off_c, 1, 44, 0
2, 14428, Control_c, 1, 64, 127
2, 14440, Note_off_c, 1, 67, 0
2, 14456, Note_off_c, 1, 70, 0
2, 14484, Note_on_c, 1, 65, 68
2, 14488, Note_on_c, 1, 68, 71
2, 14536, Note_off_c, 1, 65, 0
2, 14580, Note_off_c, 1, 68, 0
2, 14584, Note_on_c, 1, 67, 69
2, 14584, Note_on_c, 1, 70, 74
2, 14632, Note_off_c, 1, 67, 0
2, 14716, Note_on_c, 1, 51, 71
2, 14720, Control_c, 1, 64, 127
2, 14728, Control_c, 1, 64, 127
2, 14728, Note_on_c, 1, 44, 63
2, 14736, Control_c, 1, 64, 127
2, 14736, Control_c, 1, 64, 127
2, 14744, Control_c, 1, 64, 64
2, 14748, Note_on_c, 1, 37, 56
2, 14748, Control_c, 1, 64, 48
2, 14748, Control_c, 1, 64, 16
2, 14756, Control_c, 1, 64, 0
2, 14756, Control_c, 1, 64, 0
2, 14760, Control_c, 1, 64, 0
2, 14764, Control_c, 1, 64, 0
2, 14764, Control_c, 1, 64, 0
2, 14832, Control_c, 1, 64, 0
2, 14836, Control_c, 1, 64, 0
2, 14844, Control_c, 1, 64, 0
2, 14844, Control_c, 1, 64, 0
2, 14852, Control_c, 1, 64, 16
2, 14852, Control_c, 1, 64, 16
2, 14856, Control_c, 1, 64, 32
2, 14864, Control_c, 1, 64, 48
2, 14872, Control_c, 1, 64, 64
2, 14872, Note_on_c, 1, 63, 51
2, 14880, Control_c, 1, 64, 80
2, 14880, Note_on_c, 1, 59, 54
2, 14884, Note_off_c, 1, 51, 0
2, 14884, Control_c, 1, 64, 127
2, 14888, Control_c, 1, 64, 127
2, 14892, Control_c, 1, 64, 127
2, 14900, Control_c, 1, 64, 127
2, 14900, Control_c, 1, 64, 127
2, 14932, Note_off_c, 1, 70, 0
2, 14980, Note_off_c, 1, 63, 0
2, 15000, Control_c, 1, 64, 127
2, 15000, Control_c, 1, 64, 127
2, 15008, Control_c, 1, 64, 127
2, 15008, Note_on_c, 1, 53, 64
2, 15016, Control_c, 1, 64, 80
2, 15020, Control_c, 1, 64, 48
2, 15024, Control_c, 1, 64, 32
2, 15028, Note_on_c, 1, 63, 31
2, 15028, Control_c, 1, 64, 16
2, 15028, Control_c, 1, 64, 0
2, 15036, Control_c, 1, 64, 0
2, 15036, Control_c, 1, 64, 0
2, 15036, Control_c, 1, 64, 0
2, 15044, Control_c, 1, 64, 0
2, 15044, Note_on_c, 1, 68, 68
2, 15116, Control_c, 1, 64, 0
2, 15132, Control_c, 1, 64, 0
2, 15136, Control_c, 1, 64, 0
2, 15144, Control_c, 1, 64, 0
2, 15144, Control_c, 1, 64, 16
2, 15156, Control_c, 1, 64, 16
2, 15164, Control_c, 1, 64, 32
2, 15180, Note_off_c, 1, 68, 0
2, 15180, Control_c, 1, 64, 48
2, 15184, Note_off_c, 1, 63, 0
2, 15192, Control_c, 1, 64, 64
2, 15200, Control_c, 1, 64, 80
2, 15204, Control_c, 1, 64, 127
2, 15212, Control_c, 1, 64, 127
2, 15228, Control_c, 1, 64, 127
2, 15232, Note_off_c, 1, 59, 0
2, 15240, Control_c, 1, 64, 127
2, 15248, Control_c, 1, 64, 127
2, 15276, Note_off_c, 1, 37, 0
2, 15288, Note_off_c, 1, 44, 0
2, 15348, Note_on_c, 1, 63, 75
2, 15376, Note_off_c, 1, 53, 0
2, 15384, Control_c, 1, 64, 127
2, 15388, Control_c, 1, 64, 127
2, 15392, Control_c, 1, 64, 127
2, 15396, Control_c, 1, 64, 80
2, 15404, Control_c, 1, 64, 64
2, 15404, Control_c, 1, 64, 32
2, 15412, Control_c, 1, 64, 16
2, 15412, Control_c, 1, 64, 0
2, 15412, Control_c, 1, 64, 0
2, 15416, Note_off_c, 1, 63, 0
2, 15416, Control_c, 1, 64, 0
2, 15424, Control_c, 1, 64, 0
2, 15424, Control_c, 1, 64, 0
2, 15432, Note_on_c, 1, 65, 73
2, 15520, Note_off_c, 1, 65, 0
2, 15520, Note_on_c, 1, 67, 73
2, 15588, Control_c, 1, 64, 0
2, 15600, Control_c, 1, 64, 0
2, 15600, Control_c, 1, 64, 0
2, 15604, Control_c, 1, 64, 0
2, 15608, Control_c, 1, 64, 16
2, 15608, Control_c, 1, 64, 16
2, 15616, Control_c, 1, 64, 32
2, 15620, Control_c, 1, 64, 48
2, 15628, Note_on_c, 1, 53, 55
2, 15628, Control_c, 1, 64, 64
2, 15632, Note_on_c, 1, 59, 59
2, 15636, Note_on_c, 1, 63, 68
2, 15644, Control_c, 1, 64, 80
2, 15644, Control_c, 1, 64, 127
2, 15644, Control_c, 1, 64, 127
2, 15648, Note_on_c, 1, 49, 46
2, 15648, Note_on_c, 1, 43, 18
2, 15656, Control_c, 1, 64, 127
2, 15656, Control_c, 1, 64, 127
2, 15660, Control_c, 1, 64, 127
2, 15668, Note_off_c, 1, 59, 0
2, 15676, Note_off_c, 1, 49, 0
2, 15684, Note_off_c, 1, 63, 0
2, 15684, Note_off_c, 1, 53, 0
2, 15692, Note_off_c, 1, 43, 0
2, 15724, Control_c, 1, 64, 127
2, 15724, Control_c, 1, 64, 127
2, 15724, Control_c, 1, 64, 127
2, 15732, Control_c, 1, 64, 80
2, 15736, Control_c, 1, 64, 64
2, 15740, Control_c, 1, 64, 32
2, 15740, Control_c, 1, 64, 16
2, 15744, Control_c, 1, 64, 0
2, 15744, Control_c, 1, 64, 0
2, 15752, Control_c, 1, 64, 0
2, 15752, Control_c, 1, 64, 0
2, 15752, Control_c, 1, 64, 0
2, 15780, Note_on_c, 1, 52, 60
2, 15792, Note_on_c, 1, 36, 41
2, 15800, Control_c, 1, 64, 0
2, 15800, Note_on_c, 1, 58, 68
2, 15808, Note_on_c, 1, 61, 31
2, 15808, Control_c, 1, 64, 0
2, 15808, Control_c, 1, 64, 0
2, 15812, Control_c, 1, 64, 0
2, 15820, Note_on_c, 1, 62, 60
2, 15820, Control_c, 1, 64, 16
2, 15828, Control_c, 1, 64, 16
2, 15828, Control_c, 1, 64, 32
2, 15832, Control_c, 1, 64, 48
2, 15832, Control_c, 1, 64, 64
2, 15836, Note_off_c, 1, 36, 0
2, 15840, Control_c, 1, 64, 80
2, 15848, Control_c, 1, 64, 127
2, 15848, Control_c, 1, 64, 127
2, 15848, Control_c, 1, 64, 127
2, 15852, Control_c, 1, 64, 127
2, 15856, Note_off_c, 1, 58, 0
2, 15860, Note_off_c, 1, 52, 0
2, 15860, Control_c, 1, 64, 127
2, 15864, Note_off_c, 1, 61, 0
2, 15888, Note_off_c, 1, 62, 0
2, 15928, Note_off_c, 1, 67, 0
2, 16024, Control_c, 1, 64, 127
2, 16024, Control_c, 1, 64, 127
2, 16024, Control_c, 1, 64, 127
2, 16032, Control_c, 1, 64, 80
2, 16040, Control_c, 1, 64, 48
2, 16040, Control_c, 1, 64, 32
2, 16040, Control_c, 1, 64, 16
2, 16044, Control_c, 1, 64, 0
2, 16052, Control_c, 1, 64, 0
2, 16052, Control_c, 1, 64, 0
2, 16056, Control_c, 1, 64, 0
2, 16060, Note_on_c, 1, 35, 38
2, 16060, Control_c, 1, 64, 0
2, 16064, Note_on_c, 1, 61, 58
2, 16068, Note_on_c, 1, 65, 59
2, 16072, Note_on_c, 1, 57, 52
2, 16072, Note_on_c, 1, 51, 60
2, 16160, Note_off_c, 1, 65, 0
2, 16168, Control_c, 1, 64, 0
2, 16176, Control_c, 1, 64, 0
2, 16180, Control_c, 1, 64, 0
2, 16188, Control_c, 1, 64, 0
2, 16188, Control_c, 1, 64, 16
2, 16188, Control_c, 1, 64, 16
2, 16200, Control_c, 1, 64, 32
2, 16204, Note_off_c, 1, 51, 0
2, 16204, Note_on_c, 1, 63, 70
2, 16208, Control_c, 1, 64, 48
2, 16208, Control_c, 1, 64, 64
2, 16216, Control_c, 1, 64, 80
2, 16224, Note_off_c, 1, 35, 0
2, 16224, Control_c, 1, 64, 127
2, 16224, Control_c, 1, 64, 127
2, 16228, Note_off_c, 1, 61, 0
2, 16228, Control_c, 1, 64, 127
2, 16236, Control_c, 1, 64, 127
2, 16236, Control_c, 1, 64, 127
2, 16248, Note_off_c, 1, 57, 0
2, 16276, Note_off_c, 1, 63, 0
2, 16304, Note_on_c, 1, 65, 40
2, 16324, Control_c, 1, 64, 127
2, 16332, Note_on_c, 1, 60, 59
2, 16332, Control_c, 1, 64, 127
2, 16340, Control_c, 1, 64, 127
2, 16340, Control_c, 1, 64, 80
2, 16344, Control_c, 1, 64, 64
2, 16348, Control_c, 1, 64, 32
2, 16352, Note_on_c, 1, 50, 59
2, 16352, Control_c, 1, 64, 16
2, 16360, Control_c, 1, 64, 0
2, 16360, Note_on_c, 1, 34, 57
2, 16364, Note_on_c, 1, 56, 62
2, 16368, Control_c, 1, 64, 0
2, 16372, Control_c, 1, 64, 0
2, 16372, Control_c, 1, 64, 0
2, 16376, Control_c, 1, 64, 0
2, 16420, Note_off_c, 1, 56, 0
2, 16420, Control_c, 1, 64, 0
2, 16428, Control_c, 1, 64, 0
2, 16432, Control_c, 1, 64, 0
2, 16436, Control_c, 1, 64, 0
2, 16440, Note_off_c, 1, 60, 0
2, 16440, Control_c, 1, 64, 16
2, 16448, Control_c, 1, 64, 16
2, 16448, Control_c, 1, 64, 32
2, 16456, Note_off_c, 1, 50, 0
2, 16456, Control_c, 1, 64, 48
2, 16460, Control_c, 1, 64, 64
2, 16468, Control_c, 1, 64, 80
2, 16468, Control_c, 1, 64, 127
2, 16476, Control_c, 1, 64, 127
2, 16476, Control_c, 1, 64, 127
2, 16476, Control_c, 1, 64, 127
2, 16480, Note_off_c, 1, 65, 0
2, 16480, Control_c, 1, 64, 127
2, 16524, Note_off_c, 1, 34, 0
2, 16584, Control_c, 1, 64, 127
2, 16584, Control_c, 1, 64, 127
2, 16592, Control_c, 1, 64, 127
2, 16600, Control_c, 1, 64, 64
2, 16604, Control_c, 1, 64, 48
2, 16604, Control_c, 1, 64, 16
2, 16608, Control_c, 1, 64, 16
2, 16612, Control_c, 1, 64, 0
2, 16612, Control_c, 1, 64, 0
2, 16612, Control_c, 1, 64, 0
2, 16616, Control_c, 1, 64, 0
2, 16620, Control_c, 1, 64, 0
2, 16640, Note_on_c, 1, 33, 60
2, 16644, Note_on_c, 1, 55, 61
2, 16644, Note_on_c, 1, 45, 50
2, 16648, Note_on_c, 1, 67, 69
2, 16668, Note_on_c, 1, 60, 50
2, 16680, Control_c, 1, 64, 0
2, 16688, Control_c, 1, 64, 0
2, 16692, Control_c, 1, 64, 0
2, 16700, Control_c, 1, 64, 0
2, 16700, Control_c, 1, 64, 16
2, 16700, Control_c, 1, 64, 16
2, 16708, Control_c, 1, 64, 32
2, 16712, Control_c, 1, 64, 48
2, 16716, Note_off_c, 1, 33, 0
2, 16720, Note_off_c, 1, 60, 0
2, 16720, Note_off_c, 1, 55, 0
2, 16728, Control_c, 1, 64, 64
2, 16728, Control_c, 1, 64, 80
2, 16736, Control_c, 1, 64, 127
2, 16736, Control_c, 1, 64, 127
2, 16740, Note_off_c, 1, 45, 0
2, 16740, Control_c, 1, 64, 127
2, 16748, Note_off_c, 1, 67, 0
2, 16756, Control_c, 1, 64, 127
2, 16768, Control_c, 1, 64, 127
2, 16920, Control_c, 1, 64, 127
2, 16924, Control_c, 1, 64, 127
2, 16924, Control_c, 1, 64, 127
2, 16928, Control_c, 1, 64, 80
2, 16932, Control_c, 1, 64, 48
2, 16940, Control_c, 1, 64, 32
2, 16940, Control_c, 1, 64, 16
2, 16944, Control_c, 1, 64, 0
2, 16944, Control_c, 1, 64, 0
2, 16952, Note_on_c, 1, 64, 57
2, 16952, Control_c, 1, 64, 0
2, 16956, Note_on_c, 1, 60, 61
2, 16960, Note_on_c, 1, 54, 61
2, 16960, Control_c, 1, 64, 0
2, 16968, Note_on_c, 1, 68, 55
2, 16968, Note_on_c, 1, 38, 45
2, 16992, Note_on_c, 1, 69, 29
2, 17012, Note_off_c, 1, 69, 0
2, 17040, Control_c, 1, 64, 0
2, 17048, Control_c, 1, 64, 0
2, 17056, Note_off_c, 1, 38, 0
2, 17060, Control_c, 1, 64, 0
2, 17064, Control_c, 1, 64, 0
2, 17064, Control_c, 1, 64, 16
2, 17068, Control_c, 1, 64, 16
2, 17076, Control_c, 1, 64, 32
2, 17080, Control_c, 1, 64, 48
2, 17084, Control_c, 1, 64, 64
2, 17096, Note_on_c, 1, 70, 80
2, 17104, Note_off_c, 1, 64, 0
2, 17104, Control_c, 1, 64, 80
2, 17108, Control_c, 1, 64, 127
2, 17108, Control_c, 1, 64, 127
2, 17116, Note_off_c, 1, 54, 0
2, 17116, Control_c, 1, 64, 127
2, 17116, Control_c, 1, 64, 127
2, 17124, Control_c, 1, 64, 127
2, 17144, Note_off_c, 1, 60, 0
2, 17200, Note_off_c, 1, 70, 0
2, 17212, Note_off_c, 1, 68, 0
2, 17252, Control_c, 1, 64, 127
2, 17252, Control_c, 1, 64, 127
2, 17256, Note_on_c, 1, 59, 71
2, 17260, Control_c, 1, 64, 127
2, 17268, Note_on_c, 1, 64, 82
2, 17268, Note_on_c, 1, 71, 73
2, 17272, Control_c, 1, 64, 64
2, 17276, Note_on_c, 1, 53, 63
2, 17280, Control_c, 1, 64, 48
2, 17280, Control_c, 1, 64, 16
2, 17284, Note_on_c, 1, 43, 56
2, 17288, Control_c, 1, 64, 0
2, 17288, Control_c, 1, 64, 0
2, 17296, Note_on_c, 1, 72, 61
2, 17296, Control_c, 1, 64, 0
2, 17296, Control_c, 1, 64, 0
2, 17300, Note_off_c, 1, 72, 0
2, 17300, Control_c, 1, 64, 0
2, 17340, Note_off_c, 1, 71, 0
2, 17340, Note_off_c, 1, 64, 0
2, 17356, Control_c, 1, 64, 0
2, 17364, Control_c, 1, 64, 0
2, 17368, Control_c, 1, 64, 0
2, 17376, Control_c, 1, 64, 0
2, 17384, Note_off_c, 1, 43, 0
2, 17384, Control_c, 1, 64, 16
2, 17388, Control_c, 1, 64, 16
2, 17396, Control_c, 1, 64, 32
2, 17404, Control_c, 1, 64, 48
2, 17404, Control_c, 1, 64, 64
2, 17416, Note_off_c, 1, 53, 0
2, 17420, Control_c, 1, 64, 80
2, 17424, Control_c, 1, 64, 127
2, 17424, Control_c, 1, 64, 127
2, 17432, Note_off_c, 1, 59, 0
2, 17432, Control_c, 1, 64, 127
2, 17432, Note_on_c, 1, 72, 74
2, 17436, Control_c, 1, 64, 127
2, 17436, Control_c, 1, 64, 127
2, 17504, Note_off_c, 1, 72, 0
2, 17592, Control_c, 1, 64, 127
2, 17596, Control_c, 1, 64, 127
2, 17600, Note_on_c, 1, 58, 72
2, 17600, Note_on_c, 1, 63, 81
2, 17608, Note_on_c, 1, 52, 58
2, 17608, Note_on_c, 1, 68, 83
2, 17616, Note_on_c, 1, 73, 80
2, 17616, Control_c, 1, 64, 127
2, 17620, Control_c, 1, 64, 127
2, 17624, Control_c, 1, 64, 64
2, 17628, Control_c, 1, 64, 48
2, 17628, Control_c, 1, 64, 16
2, 17628, Control_c, 1, 64, 0
2, 17636, Control_c, 1, 64, 0
2, 17636, Control_c, 1, 64, 0
2, 17640, Control_c, 1, 64, 0
2, 17640, Control_c, 1, 64, 0
2, 17648, Note_on_c, 1, 48, 45
2, 17688, Note_off_c, 1, 63, 0
2, 17716, Control_c, 1, 64, 0
2, 17724, Control_c, 1, 64, 0
2, 17732, Control_c, 1, 64, 0
2, 17732, Control_c, 1, 64, 0
2, 17744, Control_c, 1, 64, 16
2, 17744, Control_c, 1, 64, 16
2, 17744, Control_c, 1, 64, 32
2, 17752, Control_c, 1, 64, 48
2, 17756, Control_c, 1, 64, 64
2, 17772, Note_off_c, 1, 68, 0
2, 17772, Control_c, 1, 64, 80
2, 17772, Control_c, 1, 64, 127
2, 17776, Control_c, 1, 64, 127
2, 17784, Control_c, 1, 64, 127
2, 17792, Control_c, 1, 64, 127
2, 17800, Note_off_c, 1, 52, 0
2, 17800, Note_on_c, 1, 74, 71
2, 17804, Control_c, 1, 64, 127
2, 17808, Note_off_c, 1, 48, 0
2, 17812, Note_off_c, 1, 58, 0
2, 17828, Note_off_c, 1, 73, 0
2, 17888, Note_off_c, 1, 74, 0
2, 17964, Control_c, 1, 64, 127
2, 17964, Control_c, 1, 64, 127
2, 17968, Control_c, 1, 64, 127
2, 17976, Control_c, 1, 64, 64
2, 17976, Control_c, 1, 64, 32
2, 17984, Control_c, 1, 64, 16
2, 17984, Control_c, 1, 64, 0
2, 17988, Control_c, 1, 64, 0
2, 17988, Control_c, 1, 64, 0
2, 17992, Control_c, 1, 64, 0
2, 17996, Control_c, 1, 64, 0
2, 18000, Note_on_c, 1, 63, 67
2, 18000, Note_on_c, 1, 41, 65
2, 18004, Note_on_c, 1, 51, 50
2, 18004, Note_on_c, 1, 68, 69
2, 18016, Note_on_c, 1, 57, 52
2, 18044, Note_on_c, 1, 75, 74
2, 18092, Control_c, 1, 64, 0
2, 18100, Note_off_c, 1, 63, 0
2, 18100, Control_c, 1, 64, 0
2, 18112, Control_c, 1, 64, 0
2, 18112, Control_c, 1, 64, 0
2, 18120, Note_off_c, 1, 68, 0
2, 18120, Control_c, 1, 64, 16
2, 18120, Control_c, 1, 64, 16
2, 18128, Control_c, 1, 64, 32
2, 18132, Control_c, 1, 64, 48
2, 18140, Note_off_c, 1, 75, 0
2, 18148, Control_c, 1, 64, 64
2, 18156, Control_c, 1, 64, 80
2, 18156, Control_c, 1, 64, 127
2, 18160, Control_c, 1, 64, 127
2, 18160, Control_c, 1, 64, 127
2, 18172, Control_c, 1, 64, 127
2, 18176, Control_c, 1, 64, 127
2, 18180, Note_off_c, 1, 41, 0
2, 18196, Note_off_c, 1, 51, 0
2, 18208, Note_on_c, 1, 65, 49
2, 18216, Note_on_c, 1, 77, 80
2, 18236, Note_off_c, 1, 57, 0
2, 18248, Note_off_c, 1, 65, 0
2, 18292, Note_off_c, 1, 77, 0
2, 18360, Control_c, 1, 64, 127
2, 18364, Control_c, 1, 64, 127
2, 18364, Control_c, 1, 64, 127
2, 18372, Control_c, 1, 64, 64
2, 18380, Control_c, 1, 64, 32
2, 18380, Control_c, 1, 64, 16
2, 18384, Control_c, 1, 64, 0
2, 18388, Control_c, 1, 64, 0
2, 18392, Control_c, 1, 64, 0
2, 18392, Control_c, 1, 64, 0
2, 18392, Control_c, 1, 64, 0
2, 18408, Note_on_c, 1, 46, 69
2, 18408, Note_on_c, 1, 67, 68
2, 18412, Note_on_c, 1, 74, 66
2, 18412, Note_on_c, 1, 71, 64
2, 18420, Note_on_c, 1, 76, 70
2, 18420, Note_on_c, 1, 79, 77
2, 18496, Control_c, 1, 64, 0
2, 18500, Control_c, 1, 64, 0
2, 18508, Control_c, 1, 64, 0
2, 18508, Control_c, 1, 64, 0
2, 18516, Control_c, 1, 64, 16
2, 18516, Control_c, 1, 64, 16
2, 18520, Control_c, 1, 64, 32
2, 18528, Control_c, 1, 64, 48
2, 18544, Note_off_c, 1, 79, 0
2, 18544, Control_c, 1, 64, 64
2, 18548, Note_off_c, 1, 76, 0
2, 18564, Note_off_c, 1, 74, 0
2, 18564, Control_c, 1, 64, 80
2, 18568, Note_off_c, 1, 71, 0
2, 18568, Note_off_c, 1, 67, 0
2, 18576, Control_c, 1, 64, 127
2, 18592, Note_on_c, 1, 56, 69
2, 18604, Control_c, 1, 64, 127
2, 18680, Control_c, 1, 64, 127
2, 18684, Note_on_c, 1, 58, 69
2, 18704, Control_c, 1, 64, 127
2, 18728, Control_c, 1, 64, 127
2, 18760, Note_on_c, 1, 59, 60
2, 18844, Note_on_c, 1, 64, 75
2, 18872, Note_off_c, 1, 59, 0
2, 18912, Note_off_c, 1, 64, 0
2, 18916, Note_on_c, 1, 67, 69
2, 18964, Note_on_c, 1, 59, 60
2, 18980, Note_off_c, 1, 67, 0
2, 18992, Control_c, 1, 64, 127
2, 19032, Control_c, 1, 64, 127
2, 19040, Note_off_c, 1, 59, 0
2, 19040, Note_on_c, 1, 62, 70
2, 19056, Note_off_c, 1, 58, 0
2, 19080, Note_off_c, 1, 62, 0
2, 19108, Note_on_c, 1, 67, 62
2, 19124, Note_off_c, 1, 67, 0
2, 19196, Note_on_c, 1, 71, 71
2, 19232, Note_off_c, 1, 71, 0
2, 19264, Note_on_c, 1, 74, 66
2, 19288, Note_off_c, 1, 74, 0
2, 19340, Note_on_c, 1, 79, 44
2, 19348, Note_on_c, 1, 81, 36
2, 19356, Note_off_c, 1, 79, 0
2, 19376, Note_off_c, 1, 81, 0
2, 19408, Note_on_c, 1, 83, 71
2, 19424, Note_on_c, 1, 84, 51
2, 19444, Note_off_c, 1, 84, 0
2, 19472, Note_off_c, 1, 83, 0
2, 19476, Note_on_c, 1, 86, 69
2, 19544, Note_on_c, 1, 91, 68
2, 19656, Note_off_c, 1, 91, 0
2, 19676, Note_off_c, 1, 86, 0
2, 19920, Control_c, 1, 64, 127
2, 19960, Control_c, 1, 64, 127
2, 19964, Note_off_c, 1, 56, 0
2, 19964, Note_off_c, 1, 46, 0
2, 20112, Control_c, 1, 64, 127
2, 20120, Control_c, 1, 64, 127
2, 20124, Control_c, 1, 64, 127
2, 20124, Control_c, 1, 64, 80
2, 20132, Control_c, 1, 64, 64
2, 20140, Control_c, 1, 64, 32
2, 20140, Control_c, 1, 64, 16
2, 20144, Control_c, 1, 64, 16
2, 20148, Control_c, 1, 64, 0
2, 20148, Control_c, 1, 64, 0
2, 20152, Control_c, 1, 64, 0
2, 20152, Control_c, 1, 64, 0
2, 20160, Control_c, 1, 64, 0
2, 20192, Note_on_c, 1, 60, 59
2, 20196, Note_on_c, 1, 55, 60
2, 20200, Note_on_c, 1, 46, 59
2, 20200, Control_c, 1, 64, 0
2, 20212, Control_c, 1, 64, 0
2, 20220, Control_c, 1, 64, 0
2, 20236, Control_c, 1, 64, 0
2, 20240, Control_c, 1, 64, 16
2, 20248, Control_c, 1, 64, 16
2, 20256, Control_c, 1, 64, 32
2, 20268, Control_c, 1, 64, 48
2, 20276, Control_c, 1, 64, 64
2, 20284, Control_c, 1, 64, 80
2, 20288, Control_c, 1, 64, 127
2, 20296, Control_c, 1, 64, 127
2, 20304, Control_c, 1, 64, 127
2, 20316, Note_on_c, 1, 82, 86
2, 20324, Control_c, 1, 64, 127
2, 20324, Control_c, 1, 64, 80
2, 20328, Control_c, 1, 64, 64
2, 20332, Control_c, 1, 64, 48
2, 20336, Control_c, 1, 64, 32
2, 20336, Control_c, 1, 64, 16
2, 20340, Control_c, 1, 64, 0
2, 20344, Control_c, 1, 64, 0
2, 20352, Control_c, 1, 64, 0
2, 20352, Control_c, 1, 64, 0
2, 20356, Control_c, 1, 64, 0
2, 20372, Note_off_c, 1, 82, 0
2, 20384, Note_on_c, 1, 84, 79
2, 20448, Note_on_c, 1, 82, 77
2, 20452, Note_off_c, 1, 84, 0
2, 20492, Note_on_c, 1, 79, 69
2, 20496, Note_off_c, 1, 82, 0
2, 20584, Note_on_c, 1, 75, 66
2, 20588, Note_off_c, 1, 79, 0
2, 20616, Note_off_c, 1, 75, 0
2, 20664, Control_c, 1, 64, 0
2, 20672, Control_c, 1, 64, 0
2, 20680, Control_c, 1, 64, 0
2, 20680, Control_c, 1, 64, 0
2, 20684, Control_c, 1, 64, 16
2, 20712, Note_on_c, 1, 74, 60
2, 20732, Control_c, 1, 64, 0
2, 20740, Control_c, 1, 64, 0
2, 20772, Control_c, 1, 64, 0
2, 20776, Note_off_c, 1, 74, 0
2, 20780, Control_c, 1, 64, 16
2, 20788, Control_c, 1, 64, 16
2, 20792, Control_c, 1, 64, 32
2, 20800, Control_c, 1, 64, 48
2, 20808, Control_c, 1, 64, 64
2, 20820, Control_c, 1, 64, 80
2, 20820, Control_c, 1, 64, 127
2, 20828, Note_on_c, 1, 73, 71
2, 20828, Control_c, 1, 64, 127
2, 20836, Control_c, 1, 64, 127
2, 20836, Control_c, 1, 64, 127
2, 20840, Control_c, 1, 64, 127
2, 20876, Note_off_c, 1, 46, 0
2, 20896, Control_c, 1, 64, 127
2, 20896, Control_c, 1, 64, 127
2, 20900, Note_off_c, 1, 73, 0
2, 20904, Control_c, 1, 64, 127
2, 20904, Control_c, 1, 64, 80
2, 20912, Control_c, 1, 64, 48
2, 20912, Control_c, 1, 64, 32
2, 20916, Control_c, 1, 64, 16
2, 20916, Control_c, 1, 64, 0
2, 20924, Control_c, 1, 64, 0
2, 20924, Control_c, 1, 64, 0
2, 20924, Control_c, 1, 64, 0
2, 20932, Control_c, 1, 64, 0
2, 20952, Note_off_c, 1, 55, 0
2, 20964, Note_on_c, 1, 46, 72
2, 20972, Control_c, 1, 64, 0
2, 20980, Control_c, 1, 64, 0
2, 20984, Control_c, 1, 64, 0
2, 20992, Control_c, 1, 64, 0
2, 21000, Control_c, 1, 64, 16
2, 21004, Control_c, 1, 64, 16
2, 21004, Control_c, 1, 64, 32
2, 21008, Control_c, 1, 64, 48
2, 21012, Control_c, 1, 64, 64
2, 21020, Control_c, 1, 64, 80
2, 21020, Control_c, 1, 64, 127
2, 21024, Control_c, 1, 64, 127
2, 21032, Control_c, 1, 64, 127
2, 21032, Control_c, 1, 64, 127
2, 21040, Control_c, 1, 64, 127
2, 21068, Note_off_c, 1, 60, 0
2, 21080, Note_on_c, 1, 55, 62
2, 21088, Control_c, 1, 64, 127
2, 21088, Control_c, 1, 64, 127
2, 21088, Control_c, 1, 64, 127
2, 21092, Control_c, 1, 64, 80
2, 21100, Control_c, 1, 64, 64
2, 21100, Control_c, 1, 64, 32
2, 21108, Control_c, 1, 64, 16
2, 21108, Control_c, 1, 64, 0
2, 21108, Control_c, 1, 64, 0
2, 21116, Control_c, 1, 64, 0
2, 21116, Control_c, 1, 64, 0
2, 21120, Control_c, 1, 64, 0
2, 21168, Note_on_c, 1, 61, 81
2, 21184, Control_c, 1, 64, 0
2, 21188, Control_c, 1, 64, 0
2, 21188, Control_c, 1, 64, 0
2, 21204, Control_c, 1, 64, 0
2, 21204, Control_c, 1, 64, 16
2, 21208, Control_c, 1, 64, 16
2, 21216, Control_c, 1, 64, 32
2, 21224, Control_c, 1, 64, 48
2, 21232, Control_c, 1, 64, 64
2, 21236, Control_c, 1, 64, 80
2, 21244, Control_c, 1, 64, 127
2, 21252, Control_c, 1, 64, 127
2, 21252, Note_on_c, 1, 72, 70
2, 21256, Control_c, 1, 64, 127
2, 21264, Control_c, 1, 64, 127
2, 21280, Control_c, 1, 64, 127
2, 21284, Note_on_c, 1, 76, 75
2, 21340, Note_off_c, 1, 72, 0
2, 21352, Note_on_c, 1, 79, 70
2, 21376, Note_off_c, 1, 76, 0
2, 21396, Note_off_c, 1, 79, 0
2, 21400, Note_on_c, 1, 84, 69
2, 21420, Note_off_c, 1, 84, 0
2, 21484, Note_on_c, 1, 84, 66
2, 21552, Note_on_c, 1, 88, 67
2, 21580, Note_on_c, 1, 91, 66
2, 21600, Note_off_c, 1, 84, 0
2, 21600, Note_on_c, 1, 84, 3
2, 21632, Note_off_c, 1, 88, 0
2, 21632, Note_off_c, 1, 46, 0
2, 21664, Note_off_c, 1, 91, 0
2, 21680, Note_on_c, 1, 95, 8
2, 21688, Note_off_c, 1, 95, 0
2, 21696, Note_off_c, 1, 55, 0
2, 21708, Control_c, 1, 64, 127
2, 21716, Control_c, 1, 64, 127
2, 21716, Control_c, 1, 64, 127
2, 21716, Control_c, 1, 64, 80
2, 21724, Control_c, 1, 64, 64
2, 21728, Control_c, 1, 64, 48
2, 21732, Note_on_c, 1, 46, 72
2, 21736, Control_c, 1, 64, 16
2, 21736, Control_c, 1, 64, 16
2, 21736, Control_c, 1, 64, 0
2, 21744, Control_c, 1, 64, 0
2, 21744, Control_c, 1, 64, 0
2, 21744, Control_c, 1, 64, 0
2, 21776, Control_c, 1, 64, 0
2, 21788, Control_c, 1, 64, 0
2, 21796, Control_c, 1, 64, 0
2, 21804, Note_on_c, 1, 56, 72
2, 21804, Control_c, 1, 64, 16
2, 21812, Control_c, 1, 64, 16
2, 21816, Control_c, 1, 64, 32
2, 21824, Control_c, 1, 64, 48
2, 21832, Control_c, 1, 64, 64
2, 21840, Control_c, 1, 64, 80
2, 21844, Control_c, 1, 64, 127
2, 21844, Control_c, 1, 64, 127
2, 21852, Control_c, 1, 64, 127
2, 21860, Note_on_c, 1, 60, 75
2, 21860, Control_c, 1, 64, 127
2, 21872, Control_c, 1, 64, 127
2, 21912, Control_c, 1, 64, 127
2, 21920, Control_c, 1, 64, 127
2, 21920, Note_on_c, 1, 63, 64
2, 21928, Control_c, 1, 64, 127
2, 21928, Control_c, 1, 64, 127
2, 21928, Control_c, 1, 64, 80
2, 21936, Control_c, 1, 64, 48
2, 21936, Control_c, 1, 64, 32
2, 21940, Control_c, 1, 64, 16
2, 21940, Note_on_c, 1, 65, 58
2, 21948, Control_c, 1, 64, 0
2, 21948, Control_c, 1, 64, 0
2, 21952, Control_c, 1, 64, 0
2, 21952, Control_c, 1, 64, 0
2, 21956, Control_c, 1, 64, 0
2, 21960, Note_on_c, 1, 68, 54
2, 21996, Note_on_c, 1, 72, 65
2, 22048, Control_c, 1, 64, 0
2, 22056, Control_c, 1, 64, 0
2, 22064, Control_c, 1, 64, 0
2, 22068, Control_c, 1, 64, 0
2, 22072, Control_c, 1, 64, 16
2, 22084, Control_c, 1, 64, 16
2, 22112, Control_c, 1, 64, 16
2, 22116, Control_c, 1, 64, 0
2, 22132, Note_off_c, 1, 72, 0
2, 22140, Note_off_c, 1, 63, 0
2, 22152, Note_off_c, 1, 68, 0
2, 22160, Note_off_c, 1, 65, 0
2, 22180, Control_c, 1, 64, 16
2, 22188, Note_on_c, 1, 70, 77
2, 22188, Control_c, 1, 64, 16
2, 22200, Note_on_c, 1, 68, 10
2, 22208, Control_c, 1, 64, 32
2, 22208, Control_c, 1, 64, 48
2, 22212, Control_c, 1, 64, 64
2, 22228, Control_c, 1, 64, 80
2, 22232, Control_c, 1, 64, 127
2, 22236, Control_c, 1, 64, 127
2, 22236, Control_c, 1, 64, 127
2, 22240, Control_c, 1, 64, 127
2, 22248, Control_c, 1, 64, 127
2, 22260, Note_off_c, 1, 68, 0
2, 22260, Note_off_c, 1, 70, 0
2, 22260, Note_off_c, 1, 60, 0
2, 22280, Note_off_c, 1, 46, 0
2, 22344, Note_on_c, 1, 70, 85
2, 22364, Control_c, 1, 64, 127
2, 22372, Note_off_c, 1, 56, 0
2, 22372, Control_c, 1, 64, 127
2, 22372, Control_c, 1, 64, 127
2, 22376, Control_c, 1, 64, 80
2, 22384, Control_c, 1, 64, 48
2, 22384, Control_c, 1, 64, 16
2, 22384, Control_c, 1, 64, 16
2, 22392, Control_c, 1, 64, 0
2, 22392, Control_c, 1, 64, 0
2, 22392, Note_on_c, 1, 46, 65
2, 22396, Control_c, 1, 64, 0
2, 22400, Control_c, 1, 64, 0
2, 22468, Note_off_c, 1, 70, 0
2, 22472, Control_c, 1, 64, 0
2, 22480, Note_on_c, 1, 56, 75
2, 22480, Control_c, 1, 64, 0
2, 22488, Control_c, 1, 64, 0
2, 22492, Control_c, 1, 64, 0
2, 22492, Control_c, 1, 64, 16
2, 22500, Control_c, 1, 64, 16
2, 22508, Control_c, 1, 64, 32
2, 22512, Control_c, 1, 64, 48
2, 22528, Control_c, 1, 64, 64
2, 22536, Control_c, 1, 64, 80
2, 22540, Control_c, 1, 64, 127
2, 22548, Control_c, 1, 64, 127
2, 22548, Note_on_c, 1, 58, 81
2, 22548, Control_c, 1, 64, 127
2, 22556, Control_c, 1, 64, 127
2, 22560, Control_c, 1, 64, 127
2, 22596, Note_on_c, 1, 59, 69
2, 22608, Control_c, 1, 64, 127
2, 22628, Control_c, 1, 64, 127
2, 22636, Note_off_c, 1, 61, 0
2, 22636, Note_on_c, 1, 61, 74
2, 22676, Note_off_c, 1, 59, 0
2, 22696, Note_on_c, 1, 66, 69
2, 22712, Note_off_c, 1, 61, 0
2, 22744, Note_off_c, 1, 66, 0
2, 22752, Note_on_c, 1, 70, 69
2, 22780, Note_off_c, 1, 70, 0
2, 22820, Note_on_c, 1, 71, 69
2, 22868, Note_on_c, 1, 73, 65
2, 22876, Note_off_c, 1, 71, 0
2, 22924, Note_off_c, 1, 73, 0
2, 22924, Note_on_c, 1, 78, 69
2, 22944, Note_off_c, 1, 78, 0
2, 22964, Note_on_c, 1, 82, 68
2, 22976, Note_off_c, 1, 82, 0
2, 23024, Note_on_c, 1, 83, 74
2, 23080, Note_on_c, 1, 85, 69
2, 23136, Note_on_c, 1, 90, 75
2, 23148, Note_off_c, 1, 85, 0
2, 23188, Control_c, 1, 64, 127
2, 23196, Note_on_c, 1, 94, 75
2, 23216, Control_c, 1, 64, 127
2, 23220, Note_off_c, 1, 90, 0
2, 23232, Note_off_c, 1, 94, 0
2, 23236, Note_off_c, 1, 83, 0
2, 23244, Note_off_c, 1, 56, 0
2, 23256, Note_off_c, 1, 46, 0
2, 23292, Note_off_c, 1, 58, 0
2, 23388, Note_on_c, 1, 44, 68
2, 23400, Control_c, 1, 64, 127
2, 23408, Control_c, 1, 64, 127
2, 23408, Control_c, 1, 64, 127
2, 23408, Control_c, 1, 64, 80
2, 23416, Control_c, 1, 64, 64
2, 23420, Control_c, 1, 64, 32
2, 23420, Control_c, 1, 64, 16
2, 23428, Control_c, 1, 64, 0
2, 23428, Control_c, 1, 64, 0
2, 23428, Control_c, 1, 64, 0
2, 23436, Control_c, 1, 64, 0
2, 23436, Control_c, 1, 64, 0
2, 23476, Control_c, 1, 64, 0
2, 23484, Note_off_c, 1, 44, 0
2, 23488, Control_c, 1, 64, 0
2, 23488, Control_c, 1, 64, 0
2, 23496, Control_c, 1, 64, 0
2, 23504, Control_c, 1, 64, 16
2, 23504, Control_c, 1, 64, 16
2, 23508, Control_c, 1, 64, 32
2, 23516, Control_c, 1, 64, 48
2, 23520, Note_on_c, 1, 43, 75
2, 23524, Control_c, 1, 64, 64
2, 23532, Control_c, 1, 64, 80
2, 23532, Control_c, 1, 64, 127
2, 23532, Control_c, 1, 64, 127
2, 23536, Control_c, 1, 64, 127
2, 23536, Control_c, 1, 64, 127
2, 23544, Control_c, 1, 64, 127
2, 23556, Control_c, 1, 64, 127
2, 23564, Control_c, 1, 64, 127
2, 23572, Control_c, 1, 64, 127
2, 23572, Control_c, 1, 64, 80
2, 23576, Control_c, 1, 64, 64
2, 23576, Control_c, 1, 64, 48
2, 23580, Control_c, 1, 64, 16
2, 23584, Control_c, 1, 64, 0
2, 23584, Control_c, 1, 64, 0
2, 23588, Control_c, 1, 64, 0
2, 23592, Control_c, 1, 64, 0
2, 23592, Control_c, 1, 64, 0
2, 23668, Note_on_c, 1, 53, 66
2, 23672, Note_on_c, 1, 58, 75
2, 23680, Note_on_c, 1, 60, 70
2, 23680, Note_on_c, 1, 70, 81
2, 23688, Note_on_c, 1, 65, 65
2, 23700, Control_c, 1, 64, 0
2, 23708, Control_c, 1, 64, 0
2, 23708, Control_c, 1, 64, 0
2, 23716, Control_c, 1, 64, 0
2, 23720, Control_c, 1, 64, 16
2, 23720, Control_c, 1, 64, 16
2, 23736, Control_c, 1, 64, 32
2, 23740, Control_c, 1, 64, 48
2, 23756, Control_c, 1, 64, 64
2, 23764, Note_off_c, 1, 65, 0
2, 23768, Control_c, 1, 64, 80
2, 23776, Control_c, 1, 64, 127
2, 23776, Control_c, 1, 64, 127
2, 23776, Control_c, 1, 64, 127
2, 23784, Note_off_c, 1, 60, 0
2, 23788, Note_off_c, 1, 70, 0
2, 23788, Control_c, 1, 64, 127
2, 23792, Control_c, 1, 64, 127
2, 23900, Note_on_c, 1, 70, 66
2, 23924, Note_off_c, 1, 70, 0
2, 23960, Note_on_c, 1, 72, 73
2, 24020, Note_off_c, 1, 72, 0
2, 24040, Note_on_c, 1, 70, 68
2, 24084, Note_off_c, 1, 70, 0
2, 24096, Note_on_c, 1, 72, 76
2, 24112, Note_off_c, 1, 43, 0
2, 24132, Note_off_c, 1, 58, 0
2, 24144, Note_off_c, 1, 53, 0
2, 24152, Note_on_c, 1, 70, 85
2, 24156, Note_off_c, 1, 72, 0
2, 24172, Control_c, 1, 64, 127
2, 24180, Note_on_c, 1, 42, 77
2, 24180, Control_c, 1, 64, 127
2, 24184, Control_c, 1, 64, 127
2, 24192, Control_c, 1, 64, 64
2, 24192, Control_c, 1, 64, 48
2, 24200, Control_c, 1, 64, 32
2, 24200, Control_c, 1, 64, 16
2, 24200, Control_c, 1, 64, 0
2, 24204, Control_c, 1, 64, 0
2, 24208, Control_c, 1, 64, 0
2, 24212, Control_c, 1, 64, 0
2, 24212, Control_c, 1, 64, 0
2, 24216, Note_on_c, 1, 69, 74
2, 24228, Note_off_c, 1, 70, 0
2, 24300, Note_off_c, 1, 69, 0
2, 24308, Control_c, 1, 64, 0
2, 24316, Control_c, 1, 64, 0
2, 24320, Note_on_c, 1, 57, 72
2, 24324, Control_c, 1, 64, 0
2, 24324, Control_c, 1, 64, 0
2, 24328, Control_c, 1, 64, 16
2, 24328, Control_c, 1, 64, 16
2, 24336, Control_c, 1, 64, 32
2, 24336, Control_c, 1, 64, 48
2, 24340, Note_off_c, 1, 42, 0
2, 24340, Control_c, 1, 64, 64
2, 24348, Control_c, 1, 64, 80
2, 24352, Control_c, 1, 64, 127
2, 24356, Control_c, 1, 64, 127
2, 24356, Control_c, 1, 64, 127
2, 24356, Control_c, 1, 64, 127
2, 24364, Control_c, 1, 64, 127
2, 24404, Note_off_c, 1, 57, 0
2, 24480, Note_on_c, 1, 47, 61
2, 24484, Control_c, 1, 64, 127
2, 24492, Control_c, 1, 64, 127
2, 24492, Control_c, 1, 64, 127
2, 24500, Note_on_c, 1, 57, 68
2, 24500, Note_on_c, 1, 63, 70
2, 24504, Control_c, 1, 64, 64
2, 24508, Control_c, 1, 64, 32
2, 24512, Note_on_c, 1, 68, 75
2, 24512, Control_c, 1, 64, 16
2, 24520, Control_c, 1, 64, 0
2, 24520, Control_c, 1, 64, 0
2, 24520, Control_c, 1, 64, 0
2, 24528, Control_c, 1, 64, 0
2, 24528, Note_on_c, 1, 75, 77
2, 24616, Note_off_c, 1, 47, 0
2, 24620, Control_c, 1, 64, 0
2, 24624, Control_c, 1, 64, 0
2, 24628, Control_c, 1, 64, 0
2, 24628, Control_c, 1, 64, 16
2, 24636, Control_c, 1, 64, 16
2, 24636, Control_c, 1, 64, 32
2, 24644, Control_c, 1, 64, 48
2, 24644, Control_c, 1, 64, 64
2, 24648, Control_c, 1, 64, 80
2, 24648, Control_c, 1, 64, 127
2, 24656, Note_off_c, 1, 57, 0
2, 24656, Control_c, 1, 64, 127
2, 24664, Control_c, 1, 64, 127
2, 24664, Control_c, 1, 64, 127
2, 24668, Control_c, 1, 64, 127
2, 24692, Note_off_c, 1, 63, 0
2, 24696, Note_off_c, 1, 68, 0
2, 24716, Note_off_c, 1, 75, 0
2, 24792, Control_c, 1, 64, 127
2, 24792, Control_c, 1, 64, 127
2, 24800, Control_c, 1, 64, 127
2, 24800, Control_c, 1, 64, 80
2, 24804, Control_c, 1, 64, 64
2, 24808, Control_c, 1, 64, 32
2, 24812, Note_on_c, 1, 48, 44
2, 24812, Control_c, 1, 64, 16
2, 24820, Note_on_c, 1, 72, 41
2, 24820, Control_c, 1, 64, 0
2, 24820, Control_c, 1, 64, 0
2, 24828, Note_on_c, 1, 41, 56
2, 24828, Note_on_c, 1, 56, 69
2, 24832, Control_c, 1, 64, 0
2, 24832, Control_c, 1, 64, 0
2, 24840, Note_on_c, 1, 63, 69
2, 24840, Control_c, 1, 64, 0
2, 24844, Note_on_c, 1, 68, 67
2, 24848, Note_on_c, 1, 75, 74
2, 24876, Control_c, 1, 64, 0
2, 24880, Control_c, 1, 64, 0
2, 24880, Control_c, 1, 64, 0
2, 24888, Note_off_c, 1, 63, 0
2, 24888, Note_off_c, 1, 41, 0
2, 24896, Control_c, 1, 64, 16
2, 24896, Control_c, 1, 64, 16
2, 24900, Control_c, 1, 64, 48
2, 24900, Control_c, 1, 64, 64
2, 24908, Control_c, 1, 64, 80
2, 24908, Control_c, 1, 64, 127
2, 24908, Control_c, 1, 64, 127
2, 24916, Control_c, 1, 64, 127
2, 24916, Control_c, 1, 64, 127
2, 24924, Note_off_c, 1, 56, 0
2, 24928, Note_off_c, 1, 72, 0
2, 24936, Note_off_c, 1, 68, 0
2, 24944, Note_off_c, 1, 75, 0
2, 24964, Control_c, 1, 64, 127
2, 24964, Control_c, 1, 64, 127
2, 24968, Control_c, 1, 64, 127
2, 24976, Control_c, 1, 64, 64
2, 24976, Control_c, 1, 64, 48
2, 24984, Control_c, 1, 64, 16
2, 24984, Control_c, 1, 64, 16
2, 24992, Control_c, 1, 64, 0
2, 24992, Control_c, 1, 64, 0
2, 24996, Control_c, 1, 64, 0
2, 24996, Note_on_c, 1, 43, 60
2, 25000, Control_c, 1, 64, 0
2, 25012, Note_on_c, 1, 58, 62
2, 25040, Note_off_c, 1, 48, 0
2, 25040, Control_c, 1, 64, 0
2, 25044, Control_c, 1, 64, 0
2, 25044, Control_c, 1, 64, 0
2, 25052, Control_c, 1, 64, 0
2, 25052, Control_c, 1, 64, 16
2, 25060, Control_c, 1, 64, 32
2, 25060, Control_c, 1, 64, 48
2, 25060, Control_c, 1, 64, 64
2, 25064, Note_off_c, 1, 43, 0
2, 25072, Control_c, 1, 64, 80
2, 25072, Control_c, 1, 64, 127
2, 25080, Note_off_c, 1, 58, 0
2, 25080, Control_c, 1, 64, 127
2, 25080, Control_c, 1, 64, 127
2, 25084, Control_c, 1, 64, 127
2, 25140, Control_c, 1, 64, 127
2, 25140, Control_c, 1, 64, 127
2, 25148, Control_c, 1, 64, 127
2, 25148, Control_c, 1, 64, 80
2, 25152, Control_c, 1, 64, 48
2, 25156, Control_c, 1, 64, 16
2, 25160, Control_c, 1, 64, 16
2, 25160, Control_c, 1, 64, 0
2, 25168, Control_c, 1, 64, 0
2, 25168, Control_c, 1, 64, 0
2, 25172, Note_on_c, 1, 44, 61
2, 25176, Control_c, 1, 64, 0
2, 25176, Control_c, 1, 64, 0
2, 25180, Note_on_c, 1, 60, 62
2, 25208, Control_c, 1, 64, 0
2, 25216, Control_c, 1, 64, 0
2, 25216, Control_c, 1, 64, 0
2, 25220, Control_c, 1, 64, 0
2, 25224, Control_c, 1, 64, 16
2, 25224, Control_c, 1, 64, 16
2, 25228, Control_c, 1, 64, 32
2, 25228, Control_c, 1, 64, 48
2, 25236, Control_c, 1, 64, 64
2, 25244, Control_c, 1, 64, 80
2, 25244, Control_c, 1, 64, 127
2, 25244, Control_c, 1, 64, 127
2, 25248, Control_c, 1, 64, 127
2, 25248, Control_c, 1, 64, 127
2, 25252, Control_c, 1, 64, 127
2, 25256, Note_off_c, 1, 60, 0
2, 25264, Note_off_c, 1, 44, 0
2, 25316, Control_c, 1, 64, 127
2, 25320, Control_c, 1, 64, 127
2, 25324, Control_c, 1, 64, 127
2, 25332, Control_c, 1, 64, 80
2, 25332, Control_c, 1, 64, 48
2, 25340, Control_c, 1, 64, 32
2, 25340, Control_c, 1, 64, 16
2, 25344, Control_c, 1, 64, 0
2, 25348, Note_on_c, 1, 45, 47
2, 25348, Control_c, 1, 64, 0
2, 25352, Control_c, 1, 64, 0
2, 25352, Control_c, 1, 64, 0
2, 25360, Note_on_c, 1, 75, 74
2, 25360, Note_on_c, 1, 68, 67
2, 25364, Note_on_c, 1, 67, 62
2, 25368, Note_on_c, 1, 61, 64
2, 25408, Note_off_c, 1, 67, 0
2, 25428, Control_c, 1, 64, 0
2, 25432, Control_c, 1, 64, 0
2, 25436, Control_c, 1, 64, 0
2, 25440, Control_c, 1, 64, 16
2, 25440, Control_c, 1, 64, 32
2, 25440, Control_c, 1, 64, 64
2, 25448, Control_c, 1, 64, 127
2, 25456, Note_off_c, 1, 75, 0
2, 25456, Control_c, 1, 64, 127
2, 25456, Control_c, 1, 64, 127
2, 25460, Control_c, 1, 64, 127
2, 25468, Note_off_c, 1, 68, 0
2, 25468, Note_off_c, 1, 45, 0
2, 25488, Note_off_c, 1, 61, 0
2, 25536, Control_c, 1, 64, 127
2, 25548, Control_c, 1, 64, 127
2, 25552, Control_c, 1, 64, 80
2, 25556, Control_c, 1, 64, 48
2, 25556, Control_c, 1, 64, 16
2, 25564, Control_c, 1, 64, 0
2, 25564, Control_c, 1, 64, 0
2, 25572, Control_c, 1, 64, 0
2, 25576, Note_on_c, 1, 46, 69
2, 25576, Control_c, 1, 64, 0
2, 25584, Control_c, 1, 64, 0
2, 25616, Control_c, 1, 64, 0
2, 25624, Control_c, 1, 64, 0
2, 25624, Control_c, 1, 64, 0
2, 25632, Control_c, 1, 64, 16
2, 25632, Control_c, 1, 64, 16
2, 25640, Control_c, 1, 64, 32
2, 25640, Control_c, 1, 64, 64
2, 25644, Control_c, 1, 64, 80
2, 25648, Control_c, 1, 64, 127
2, 25652, Control_c, 1, 64, 127
2, 25652, Control_c, 1, 64, 127
2, 25660, Control_c, 1, 64, 127
2, 25660, Control_c, 1, 64, 127
2, 25700, Control_c, 1, 64, 127
2, 25700, Control_c, 1, 64, 127
2, 25700, Control_c, 1, 64, 127
2, 25712, Control_c, 1, 64, 64
2, 25712, Control_c, 1, 64, 48
2, 25716, Control_c, 1, 64, 16
2, 25720, Control_c, 1, 64, 0
2, 25720, Control_c, 1, 64, 0
2, 25728, Control_c, 1, 64, 0
2, 25728, Control_c, 1, 64, 0
2, 25728, Control_c, 1, 64, 0
2, 25740, Note_on_c, 1, 67, 69
2, 25740, Note_on_c, 1, 62, 68
2, 25748, Note_on_c, 1, 71, 66
2, 25748, Note_on_c, 1, 59, 56
2, 25756, Note_on_c, 1, 74, 67
2, 25756, Note_on_c, 1, 56, 58
2, 25776, Control_c, 1, 64, 0
2, 25780, Control_c, 1, 64, 0
2, 25788, Control_c, 1, 64, 0
2, 25796, Control_c, 1, 64, 0
2, 25796, Control_c, 1, 64, 16
2, 25796, Control_c, 1, 64, 16
2, 25804, Control_c, 1, 64, 32
2, 25804, Control_c, 1, 64, 48
2, 25804, Control_c, 1, 64, 64
2, 25812, Control_c, 1, 64, 80
2, 25816, Control_c, 1, 64, 127
2, 25816, Control_c, 1, 64, 127
2, 25816, Control_c, 1, 64, 127
2, 25824, Control_c, 1, 64, 127
2, 25824, Control_c, 1, 64, 127
2, 25876, Note_off_c, 1, 62, 0
2, 25896, Note_off_c, 1, 67, 0
2, 25904, Note_off_c, 1, 71, 0
2, 25924, Note_off_c, 1, 74, 0
2, 26060, Note_on_c, 1, 74, 57
2, 26068, Note_on_c, 1, 83, 76
2, 26128, Note_off_c, 1, 59, 0
2, 26136, Note_off_c, 1, 56, 0
2, 26156, Note_off_c, 1, 46, 0
2, 26200, Note_on_c, 1, 79, 66
2, 26200, Note_on_c, 1, 86, 77
2, 26220, Note_off_c, 1, 74, 0
2, 26232, Note_off_c, 1, 83, 0
2, 26252, Note_off_c, 1, 79, 0
2, 26268, Note_off_c, 1, 86, 0
2, 26348, Control_c, 1, 64, 127
2, 26348, Control_c, 1, 64, 127
2, 26356, Control_c, 1, 64, 127
2, 26356, Control_c, 1, 64, 80
2, 26364, Control_c, 1, 64, 48
2, 26364, Control_c, 1, 64, 32
2, 26368, Control_c, 1, 64, 16
2, 26368, Control_c, 1, 64, 0
2, 26376, Control_c, 1, 64, 0
2, 26376, Control_c, 1, 64, 0
2, 26380, Control_c, 1, 64, 0
2, 26384, Control_c, 1, 64, 0
2, 26388, Note_on_c, 1, 34, 72
2, 26416, Note_off_c, 1, 34, 0
2, 26436, Control_c, 1, 64, 0
2, 26444, Control_c, 1, 64, 0
2, 26444, Control_c, 1, 64, 0
2, 26452, Control_c, 1, 64, 0
2, 26452, Control_c, 1, 64, 16
2, 26452, Control_c, 1, 64, 16
2, 26456, Control_c, 1, 64, 32
2, 26456, Control_c, 1, 64, 48
2, 26464, Control_c, 1, 64, 64
2, 26472, Control_c, 1, 64, 80
2, 26472, Control_c, 1, 64, 127
2, 26476, Control_c, 1, 64, 127
2, 26476, Control_c, 1, 64, 127
2, 26480, Control_c, 1, 64, 127
2, 26480, Control_c, 1, 64, 127
2, 26608, Control_c, 1, 64, 127
2, 26608, Control_c, 1, 64, 127
2, 26612, Control_c, 1, 64, 127
2, 26620, Control_c, 1, 64, 64
2, 26620, Control_c, 1, 64, 48
2, 26624, Control_c, 1, 64, 16
2, 26628, Control_c, 1, 64, 16
2, 26628, Control_c, 1, 64, 0
2, 26636, Control_c, 1, 64, 0
2, 26636, Control_c, 1, 64, 0
2, 26636, Control_c, 1, 64, 0
2, 26656, Note_on_c, 1, 89, 79
2, 26664, Note_off_c, 1, 84, 0
2, 26664, Note_on_c, 1, 84, 69
2, 26664, Note_on_c, 1, 56, 63
2, 26664, Note_on_c, 1, 65, 65
2, 26668, Note_on_c, 1, 85, 68
2, 26668, Note_on_c, 1, 61, 66
2, 26676, Note_on_c, 1, 77, 62
2, 26676, Note_on_c, 1, 58, 53
2, 26684, Note_on_c, 1, 60, 52
2, 26696, Control_c, 1, 64, 0
2, 26704, Control_c, 1, 64, 0
2, 26708, Control_c, 1, 64, 0
2, 26716, Control_c, 1, 64, 16
2, 26716, Control_c, 1, 64, 16
2, 26724, Note_off_c, 1, 89, 0
2, 26724, Control_c, 1, 64, 32
2, 26724, Control_c, 1, 64, 48
2, 26732, Control_c, 1, 64, 64
2, 26736, Control_c, 1, 64, 80
2, 26740, Note_off_c, 1, 84, 0
2, 26744, Control_c, 1, 64, 127
2, 26744, Control_c, 1, 64, 127
2, 26748, Note_off_c, 1, 85, 0
2, 26752, Control_c, 1, 64, 127
2, 26752, Control_c, 1, 64, 127
2, 26752, Control_c, 1, 64, 127
2, 26756, Note_off_c, 1, 77, 0
2, 26896, Note_on_c, 1, 72, 50
2, 26908, Note_off_c, 1, 65, 0
2, 26928, Note_off_c, 1, 72, 0
2, 26936, Note_off_c, 1, 60, 0
2, 26936, Note_off_c, 1, 61, 0
2, 26956, Note_on_c, 1, 74, 55
2, 26964, Note_off_c, 1, 58, 0
2, 26968, Note_off_c, 1, 56, 0
2, 27016, Note_on_c, 1, 72, 68
2, 27072, Note_off_c, 1, 72, 0
2, 27080, Note_off_c, 1, 74, 0
2, 27092, Note_on_c, 1, 71, 58
2, 27152, Note_off_c, 1, 71, 0
2, 27160, Note_on_c, 1, 72, 72
2, 27196, Control_c, 1, 64, 127
2, 27200, Control_c, 1, 64, 127
2, 27200, Control_c, 1, 64, 127
2, 27208, Control_c, 1, 64, 80
2, 27216, Control_c, 1, 64, 48
2, 27216, Control_c, 1, 64, 16
2, 27220, Control_c, 1, 64, 0
2, 27224, Control_c, 1, 64, 0
2, 27228, Control_c, 1, 64, 0
2, 27228, Control_c, 1, 64, 0
2, 27228, Control_c, 1, 64, 0
2, 27248, Note_on_c, 1, 53, 60
2, 27248, Note_on_c, 1, 39, 59
2, 27256, Note_on_c, 1, 49, 60
2, 27256, Note_on_c, 1, 75, 75
2, 27268, Note_off_c, 1, 72, 0
2, 27304, Control_c, 1, 64, 0
2, 27312, Note_off_c, 1, 53, 0
2, 27312, Control_c, 1, 64, 0
2, 27312, Control_c, 1, 64, 0
2, 27316, Control_c, 1, 64, 0
2, 27316, Control_c, 1, 64, 16
2, 27324, Control_c, 1, 64, 16
2, 27324, Control_c, 1, 64, 32
2, 27332, Control_c, 1, 64, 48
2, 27336, Control_c, 1, 64, 64
2, 27340, Note_off_c, 1, 75, 0
2, 27344, Control_c, 1, 64, 80
2, 27364, Control_c, 1, 64, 64
2, 27372, Control_c, 1, 64, 48
2, 27372, Control_c, 1, 64, 32
2, 27380, Note_off_c, 1, 49, 0
2, 27380, Control_c, 1, 64, 16
2, 27384, Note_on_c, 1, 49, 34
2, 27384, Control_c, 1, 64, 16
2, 27392, Control_c, 1, 64, 0
2, 27392, Note_on_c, 1, 54, 69
2, 27420, Control_c, 1, 64, 16
2, 27432, Control_c, 1, 64, 16
2, 27440, Control_c, 1, 64, 32
2, 27448, Control_c, 1, 64, 48
2, 27452, Note_off_c, 1, 54, 0
2, 27456, Control_c, 1, 64, 64
2, 27460, Control_c, 1, 64, 80
2, 27468, Control_c, 1, 64, 127
2, 27468, Control_c, 1, 64, 127
2, 27472, Control_c, 1, 64, 127
2, 27496, Control_c, 1, 64, 127
2, 27500, Control_c, 1, 64, 127
2, 27504, Control_c, 1, 64, 80
2, 27508, Control_c, 1, 64, 64
2, 27516, Control_c, 1, 64, 32
2, 27516, Control_c, 1, 64, 16
2, 27516, Control_c, 1, 64, 16
2, 27520, Control_c, 1, 64, 0
2, 27524, Control_c, 1, 64, 0
2, 27528, Control_c, 1, 64, 0
2, 27528, Control_c, 1, 64, 0
2, 27536, Control_c, 1, 64, 0
2, 27544, Note_on_c, 1, 61, 62
2, 27548, Note_on_c, 1, 55, 57
2, 27556, Note_on_c, 1, 64, 64
2, 27652, Control_c, 1, 64, 0
2, 27664, Note_off_c, 1, 39, 0
2, 27664, Control_c, 1, 64, 0
2, 27664, Control_c, 1, 64, 0
2, 27672, Control_c, 1, 64, 0
2, 27672, Control_c, 1, 64, 16
2, 27680, Note_off_c, 1, 49, 0
2, 27680, Control_c, 1, 64, 16
2, 27680, Control_c, 1, 64, 32
2, 27684, Control_c, 1, 64, 48
2, 27692, Control_c, 1, 64, 64
2, 27700, Control_c, 1, 64, 80
2, 27708, Control_c, 1, 64, 127
2, 27708, Control_c, 1, 64, 127
2, 27708, Control_c, 1, 64, 127
2, 27712, Note_off_c, 1, 64, 0
2, 27720, Control_c, 1, 64, 127
2, 27720, Control_c, 1, 64, 127
2, 27728, Note_on_c, 1, 67, 68
2, 27732, Note_off_c, 1, 55, 0
2, 27788, Note_off_c, 1, 61, 0
2, 27836, Note_off_c, 1, 67, 0
2, 27856, Control_c, 1, 64, 127
2, 27864, Control_c, 1, 64, 127
2, 27864, Control_c, 1, 64, 127
2, 27868, Control_c, 1, 64, 80
2, 27872, Control_c, 1, 64, 64
2, 27876, Control_c, 1, 64, 32
2, 27876, Control_c, 1, 64, 16
2, 27884, Note_on_c, 1, 65, 62
2, 27884, Control_c, 1, 64, 0
2, 27888, Control_c, 1, 64, 0
2, 27892, Control_c, 1, 64, 0
2, 27896, Note_on_c, 1, 55, 55
2, 27896, Note_on_c, 1, 44, 60
2, 27896, Control_c, 1, 64, 0
2, 27904, Control_c, 1, 64, 0
2, 27912, Note_on_c, 1, 60, 56
2, 27912, Note_on_c, 1, 70, 68
2, 28008, Control_c, 1, 64, 0
2, 28008, Control_c, 1, 64, 0
2, 28012, Control_c, 1, 64, 0
2, 28012, Control_c, 1, 64, 0
2, 28016, Control_c, 1, 64, 16
2, 28020, Control_c, 1, 64, 32
2, 28028, Control_c, 1, 64, 48
2, 28028, Control_c, 1, 64, 64
2, 28032, Control_c, 1, 64, 80
2, 28036, Control_c, 1, 64, 127
2, 28040, Control_c, 1, 64, 127
2, 28040, Control_c, 1, 64, 127
2, 28048, Control_c, 1, 64, 127
2, 28048, Control_c, 1, 64, 127
2, 28096, Note_off_c, 1, 70, 0
2, 28136, Note_off_c, 1, 55, 0
2, 28148, Note_off_c, 1, 44, 0
2, 28176, Note_on_c, 1, 70, 74
2, 28236, Note_off_c, 1, 65, 0
2, 28244, Note_off_c, 1, 60, 0
2, 28280, Note_off_c, 1, 70, 0
2, 28360, Note_on_c, 1, 37, 62
2, 28360, Control_c, 1, 64, 127
2, 28368, Control_c, 1, 64, 127
2, 28376, Note_on_c, 1, 44, 62
2, 28376, Control_c, 1, 64, 127
2, 28376, Control_c, 1, 64, 80
2, 28380, Control_c, 1, 64, 48
2, 28384, Control_c, 1, 64, 16
2, 28388, Control_c, 1, 64, 16
2, 28388, Control_c, 1, 64, 0
2, 28388, Control_c, 1, 64, 0
2, 28396, Control_c, 1, 64, 0
2, 28396, Control_c, 1, 64, 0
2, 28408, Note_on_c, 1, 53, 62
2, 28416, Note_on_c, 1, 59, 64
2, 28424, Note_on_c, 1, 64, 72
2, 28476, Note_on_c, 1, 68, 68
2, 28552, Control_c, 1, 64, 0
2, 28560, Control_c, 1, 64, 0
2, 28564, Control_c, 1, 64, 0
2, 28580, Control_c, 1, 64, 0
2, 28584, Control_c, 1, 64, 16
2, 28592, Control_c, 1, 64, 16
2, 28592, Control_c, 1, 64, 32
2, 28608, Control_c, 1, 64, 48
2, 28612, Control_c, 1, 64, 64
2, 28620, Note_off_c, 1, 64, 0
2, 28624, Control_c, 1, 64, 80
2, 28628, Control_c, 1, 64, 127
2, 28628, Control_c, 1, 64, 127
2, 28632, Control_c, 1, 64, 127
2, 28648, Control_c, 1, 64, 127
2, 28648, Control_c, 1, 64, 127
2, 28648, Control_c, 1, 64, 80
2, 28656, Control_c, 1, 64, 64
2, 28660, Control_c, 1, 64, 32
2, 28660, Control_c, 1, 64, 16
2, 28668, Control_c, 1, 64, 0
2, 28668, Control_c, 1, 64, 0
2, 28668, Control_c, 1, 64, 0
2, 28676, Control_c, 1, 64, 0
2, 28676, Control_c, 1, 64, 0
2, 28696, Note_on_c, 1, 63, 71
2, 28744, Control_c, 1, 64, 0
2, 28744, Control_c, 1, 64, 0
2, 28748, Control_c, 1, 64, 0
2, 28756, Control_c, 1, 64, 0
2, 28756, Control_c, 1, 64, 16
2, 28760, Control_c, 1, 64, 32
2, 28764, Control_c, 1, 64, 48
2, 28764, Control_c, 1, 64, 64
2, 28772, Control_c, 1, 64, 80
2, 28772, Control_c, 1, 64, 127
2, 28776, Control_c, 1, 64, 127
2, 28776, Control_c, 1, 64, 127
2, 28784, Control_c, 1, 64, 127
2, 28784, Control_c, 1, 64, 127
2, 28792, Note_off_c, 1, 63, 0
2, 28804, Control_c, 1, 64, 127
2, 28804, Control_c, 1, 64, 127
2, 28812, Control_c, 1, 64, 127
2, 28812, Control_c, 1, 64, 64
2, 28816, Control_c, 1, 64, 32
2, 28820, Control_c, 1, 64, 16
2, 28824, Control_c, 1, 64, 0
2, 28824, Control_c, 1, 64, 0
2, 28828, Control_c, 1, 64, 0
2, 28832, Control_c, 1, 64, 0
2, 28844, Note_on_c, 1, 62, 67
2, 28900, Control_c, 1, 64, 0
2, 28908, Note_off_c, 1, 62, 0
2, 28936, Control_c, 1, 64, 0
2, 28976, Control_c, 1, 64, 0
2, 28980, Note_on_c, 1, 61, 73
2, 28988, Note_off_c, 1, 68, 0
2, 28988, Control_c, 1, 64, 0
2, 28996, Control_c, 1, 64, 0
2, 29004, Control_c, 1, 64, 0
2, 29004, Control_c, 1, 64, 16
2, 29004, Control_c, 1, 64, 16
2, 29008, Control_c, 1, 64, 32
2, 29016, Control_c, 1, 64, 48
2, 29024, Control_c, 1, 64, 64
2, 29036, Control_c, 1, 64, 80
2, 29056, Control_c, 1, 64, 64
2, 29060, Note_off_c, 1, 61, 0
2, 29064, Control_c, 1, 64, 48
2, 29072, Control_c, 1, 64, 32
2, 29112, Note_on_c, 1, 63, 63
2, 29124, Control_c, 1, 64, 48
2, 29132, Note_off_c, 1, 37, 0
2, 29140, Note_off_c, 1, 44, 0
2, 29140, Control_c, 1, 64, 64
2, 29148, Control_c, 1, 64, 80
2, 29152, Control_c, 1, 64, 127
2, 29152, Control_c, 1, 64, 127
2, 29160, Control_c, 1, 64, 127
2, 29188, Control_c, 1, 64, 127
2, 29192, Control_c, 1, 64, 127
2, 29196, Note_off_c, 1, 53, 0
2, 29208, Control_c, 1, 64, 64
2, 29208, Control_c, 1, 64, 32
2, 29208, Control_c, 1, 64, 16
2, 29212, Control_c, 1, 64, 0
2, 29216, Control_c, 1, 64, 0
2, 29220, Control_c, 1, 64, 0
2, 29220, Control_c, 1, 64, 0
2, 29224, Note_on_c, 1, 65, 71
2, 29228, Note_off_c, 1, 63, 0
2, 29268, Note_off_c, 1, 59, 0
2, 29316, Note_off_c, 1, 65, 0
2, 29328, Note_on_c, 1, 53, 60
2, 29344, Note_on_c, 1, 59, 67
2, 29344, Note_on_c, 1, 67, 67
2, 29344, Note_on_c, 1, 43, 54
2, 29352, Note_on_c, 1, 63, 64
2, 29400, Control_c, 1, 64, 0
2, 29412, Control_c, 1, 64, 0
2, 29412, Control_c, 1, 64, 0
2, 29424, Note_off_c, 1, 43, 0
2, 29424, Control_c, 1, 64, 0
2, 29428, Control_c, 1, 64, 16
2, 29432, Control_c, 1, 64, 16
2, 29432, Control_c, 1, 64, 32
2, 29440, Note_off_c, 1, 67, 0
2, 29440, Control_c, 1, 64, 48
2, 29448, Note_off_c, 1, 53, 0
2, 29452, Control_c, 1, 64, 64
2, 29456, Control_c, 1, 64, 80
2, 29460, Note_off_c, 1, 59, 0
2, 29460, Control_c, 1, 64, 127
2, 29460, Control_c, 1, 64, 127
2, 29468, Note_off_c, 1, 63, 0
2, 29468, Control_c, 1, 64, 127
2, 29480, Control_c, 1, 64, 127
2, 29480, Control_c, 1, 64, 127
2, 29536, Control_c, 1, 64, 127
2, 29540, Control_c, 1, 64, 127
2, 29548, Note_on_c, 1, 62, 74
2, 29548, Note_on_c, 1, 52, 59
2, 29548, Control_c, 1, 64, 80
2, 29556, Control_c, 1, 64, 64
2, 29556, Control_c, 1, 64, 48
2, 29564, Note_on_c, 1, 58, 71
2, 29564, Note_on_c, 1, 36, 56
2, 29568, Control_c, 1, 64, 16
2, 29572, Note_on_c, 1, 68, 75
2, 29576, Control_c, 1, 64, 0
2, 29576, Control_c, 1, 64, 0
2, 29584, Control_c, 1, 64, 0
2, 29584, Control_c, 1, 64, 0
2, 29584, Control_c, 1, 64, 0
2, 29676, Note_off_c, 1, 36, 0
2, 29676, Control_c, 1, 64, 0
2, 29684, Control_c, 1, 64, 0
2, 29684, Control_c, 1, 64, 0
2, 29692, Control_c, 1, 64, 16
2, 29700, Control_c, 1, 64, 16
2, 29700, Control_c, 1, 64, 32
2, 29704, Control_c, 1, 64, 48
2, 29704, Control_c, 1, 64, 64
2, 29712, Control_c, 1, 64, 80
2, 29712, Control_c, 1, 64, 127
2, 29720, Control_c, 1, 64, 127
2, 29720, Control_c, 1, 64, 127
2, 29724, Control_c, 1, 64, 127
2, 29724, Control_c, 1, 64, 127
2, 29748, Note_off_c, 1, 62, 0
2, 29760, Note_off_c, 1, 58, 0
2, 29772, Note_off_c, 1, 68, 0
2, 29864, Control_c, 1, 64, 127
2, 29868, Control_c, 1, 64, 127
2, 29868, Control_c, 1, 64, 127
2, 29876, Control_c, 1, 64, 80
2, 29876, Control_c, 1, 64, 64
2, 29884, Note_off_c, 1, 52, 0
2, 29884, Control_c, 1, 64, 48
2, 29884, Control_c, 1, 64, 32
2, 29888, Control_c, 1, 64, 16
2, 29888, Control_c, 1, 64, 0
2, 29892, Control_c, 1, 64, 0
2, 29896, Control_c, 1, 64, 0
2, 29896, Control_c, 1, 64, 0
2, 29904, Control_c, 1, 64, 0
2, 29908, Note_on_c, 1, 61, 59
2, 29908, Note_on_c, 1, 65, 52
2, 29916, Note_on_c, 1, 51, 54
2, 29916, Note_on_c, 1, 41, 44
2, 29924, Note_on_c, 1, 57, 42
2, 29956, Control_c, 1, 64, 0
2, 29964, Control_c, 1, 64, 0
2, 29972, Control_c, 1, 64, 0
2, 29976, Control_c, 1, 64, 0
2, 29980, Control_c, 1, 64, 16
2, 29984, Control_c, 1, 64, 16
2, 29988, Note_off_c, 1, 41, 0
2, 29992, Control_c, 1, 64, 32
2, 29992, Control_c, 1, 64, 48
2, 30000, Control_c, 1, 64, 64
2, 30004, Note_off_c, 1, 51, 0
2, 30004, Control_c, 1, 64, 80
2, 30008, Control_c, 1, 64, 127
2, 30012, Control_c, 1, 64, 127
2, 30012, Control_c, 1, 64, 127
2, 30020, Note_off_c, 1, 65, 0
2, 30020, Control_c, 1, 64, 127
2, 30024, Control_c, 1, 64, 127
2, 30032, Note_off_c, 1, 61, 0
2, 30048, Note_off_c, 1, 57, 0
2, 30140, Control_c, 1, 64, 127
2, 30148, Control_c, 1, 64, 127
2, 30148, Control_c, 1, 64, 127
2, 30156, Control_c, 1, 64, 80
2, 30164, Control_c, 1, 64, 64
2, 30164, Control_c, 1, 64, 32
2, 30164, Control_c, 1, 64, 16
2, 30168, Note_on_c, 1, 67, 58
2, 30168, Control_c, 1, 64, 0
2, 30176, Control_c, 1, 64, 0
2, 30176, Control_c, 1, 64, 0
2, 30184, Note_on_c, 1, 60, 59
2, 30184, Note_on_c, 1, 34, 45
2, 30184, Control_c, 1, 64, 0
2, 30188, Note_on_c, 1, 50, 45
2, 30188, Note_on_c, 1, 56, 55
2, 30192, Control_c, 1, 64, 0
2, 30252, Control_c, 1, 64, 0
2, 30256, Control_c, 1, 64, 0
2, 30260, Control_c, 1, 64, 0
2, 30264, Control_c, 1, 64, 0
2, 30272, Control_c, 1, 64, 16
2, 30272, Control_c, 1, 64, 16
2, 30280, Control_c, 1, 64, 32
2, 30280, Control_c, 1, 64, 48
2, 30284, Note_off_c, 1, 34, 0
2, 30284, Control_c, 1, 64, 64
2, 30292, Control_c, 1, 64, 80
2, 30292, Control_c, 1, 64, 127
2, 30300, Control_c, 1, 64, 127
2, 30300, Control_c, 1, 64, 127
2, 30304, Note_off_c, 1, 67, 0
2, 30308, Control_c, 1, 64, 127
2, 30312, Control_c, 1, 64, 127
2, 30328, Note_off_c, 1, 50, 0
2, 30332, Note_off_c, 1, 56, 0
2, 30340, Note_off_c, 1, 60, 0
2, 30564, Control_c, 1, 64, 127
2, 30564, Control_c, 1, 64, 127
2, 30572, Note_on_c, 1, 63, 53
2, 30572, Control_c, 1, 64, 127
2, 30572, Note_on_c, 1, 60, 56
2, 30580, Control_c, 1, 64, 80
2, 30580, Note_on_c, 1, 55, 51
2, 30588, Control_c, 1, 64, 64
2, 30588, Control_c, 1, 64, 48
2, 30592, Control_c, 1, 64, 16
2, 30592, Note_on_c, 1, 53, 48
2, 30600, Note_on_c, 1, 39, 44
2, 30600, Control_c, 1, 64, 0
2, 30600, Note_on_c, 1, 46, 38
2, 30604, Control_c, 1, 64, 0
2, 30612, Control_c, 1, 64, 0
2, 30612, Control_c, 1, 64, 0
2, 30616, Control_c, 1, 64, 0
2, 30716, Control_c, 1, 64, 0
2, 30720, Control_c, 1, 64, 0
2, 30724, Control_c, 1, 64, 0
2, 30724, Control_c, 1, 64, 0
2, 30728, Control_c, 1, 64, 16
2, 30728, Control_c, 1, 64, 16
2, 30736, Control_c, 1, 64, 32
2, 30736, Control_c, 1, 64, 48
2, 30744, Control_c, 1, 64, 64
2, 30748, Control_c, 1, 64, 80
2, 30752, Control_c, 1, 64, 127
2, 30756, Control_c, 1, 64, 127
2, 30756, Control_c, 1, 64, 127
2, 30764, Control_c, 1, 64, 127
2, 30764, Control_c, 1, 64, 127
2, 30812, Note_off_c, 1, 55, 0
2, 30844, Note_off_c, 1, 39, 0
2, 30844, Note_off_c, 1, 60, 0
2, 30864, Note_off_c, 1, 46, 0
2, 30872, Note_off_c, 1, 63, 0
2, 31160, Note_off_c, 1, 53, 0
2, 31184, Control_c, 1, 64, 127
2, 31184, Control_c, 1, 64, 127
2, 31200, Control_c, 1, 64, 127
2, 31200, Note_on_c, 1, 75, 80
2, 31200, Control_c, 1, 64, 80
2, 31208, Control_c, 1, 64, 64
2, 31212, Control_c, 1, 64, 32
2, 31212, Control_c, 1, 64, 16
2, 31216, Control_c, 1, 64, 0
2, 31220, Control_c, 1, 64, 0
2, 31220, Control_c, 1, 64, 0
2, 31248, Control_c, 1, 64, 0
2, 31252, Control_c, 1, 64, 0
2, 31260, Control_c, 1, 64, 16
2, 31268, Control_c, 1, 64, 16
2, 31276, Control_c, 1, 64, 32
2, 31276, Control_c, 1, 64, 48
2, 31280, Control_c, 1, 64, 64
2, 31296, Control_c, 1, 64, 80
2, 31296, Control_c, 1, 64, 127
2, 31300, Control_c, 1, 64, 127
2, 31300, Control_c, 1, 64, 127
2, 31304, Control_c, 1, 64, 127
2, 31308, Control_c, 1, 64, 127
2, 31324, Note_on_c, 1, 73, 20
2, 31372, Note_off_c, 1, 73, 0
2, 31372, Note_off_c, 1, 75, 0
2, 31492, Control_c, 1, 64, 127
2, 31500, Control_c, 1, 64, 127
2, 31500, Control_c, 1, 64, 127
2, 31504, Control_c, 1, 64, 80
2, 31516, Control_c, 1, 64, 64
2, 31520, Control_c, 1, 64, 48
2, 31520, Control_c, 1, 64, 16
2, 31520, Control_c, 1, 64, 16
2, 31528, Control_c, 1, 64, 0
2, 31528, Control_c, 1, 64, 0
2, 31532, Control_c, 1, 64, 0
2, 31536, Control_c, 1, 64, 0
2, 31540, Control_c, 1, 64, 0
2, 31540, Note_on_c, 1, 53, 39
2, 31548, Note_on_c, 1, 43, 38
2, 31548, Note_on_c, 1, 59, 50
2, 31548, Note_on_c, 1, 68, 50
2, 31556, Note_on_c, 1, 71, 47
2, 31560, Note_on_c, 1, 74, 48
2, 31576, Note_on_c, 1, 62, 20
2, 31608, Control_c, 1, 64, 0
2, 31624, Control_c, 1, 64, 0
2, 31628, Control_c, 1, 64, 0
2, 31636, Control_c, 1, 64, 0
2, 31636, Control_c, 1, 64, 16
2, 31644, Control_c, 1, 64, 16
2, 31644, Control_c, 1, 64, 32
2, 31644, Control_c, 1, 64, 48
2, 31648, Control_c, 1, 64, 64
2, 31656, Control_c, 1, 64, 80
2, 31656, Control_c, 1, 64, 127
2, 31664, Control_c, 1, 64, 127
2, 31664, Control_c, 1, 64, 127
2, 31664, Control_c, 1, 64, 127
2, 31668, Control_c, 1, 64, 127
2, 31676, Note_off_c, 1, 43, 0
2, 31692, Note_off_c, 1, 53, 0
2, 31724, Note_off_c, 1, 59, 0
2, 31760, Note_off_c, 1, 62, 0
2, 31800, Note_off_c, 1, 68, 0
2, 31820, Note_off_c, 1, 71, 0
2, 31840, Note_off_c, 1, 74, 0
2, 31900, Control_c, 1, 64, 127
2, 31908, Control_c, 1, 64, 127
2, 31908, Control_c, 1, 64, 127
2, 31916, Control_c, 1, 64, 80
2, 31924, Control_c, 1, 64, 48
2, 31924, Control_c, 1, 64, 32
2, 31928, Control_c, 1, 64, 16
2, 31928, Control_c, 1, 64, 0
2, 31936, Note_on_c, 1, 48, 41
2, 31936, Control_c, 1, 64, 0
2, 31936, Control_c, 1, 64, 0
2, 31944, Control_c, 1, 64, 0
2, 31944, Control_c, 1, 64, 0
2, 31952, Note_on_c, 1, 58, 61
2, 31952, Note_on_c, 1, 63, 57
2, 32148, Note_on_c, 1, 72, 54
2, 32156, Note_on_c, 1, 75, 60
2, 32188, Note_off_c, 1, 72, 0
2, 32224, Note_off_c, 1, 75, 0
2, 32272, Note_on_c, 1, 74, 65
2, 32272, Note_on_c, 1, 77, 62
2, 32344, Control_c, 1, 64, 0
2, 32352, Control_c, 1, 64, 0
2, 32364, Control_c, 1, 64, 0
2, 32368, Note_off_c, 1, 74, 0
2, 32372, Note_off_c, 1, 77, 0
2, 32372, Control_c, 1, 64, 0
2, 32380, Control_c, 1, 64, 16
2, 32388, Note_on_c, 1, 72, 65
2, 32392, Control_c, 1, 64, 16
2, 32396, Note_off_c, 1, 48, 0
2, 32400, Note_on_c, 1, 75, 71
2, 32400, Control_c, 1, 64, 32
2, 32408, Control_c, 1, 64, 48
2, 32416, Note_off_c, 1, 58, 0
2, 32420, Control_c, 1, 64, 64
2, 32428, Control_c, 1, 64, 80
2, 32428, Control_c, 1, 64, 127
2, 32436, Note_off_c, 1, 63, 0
2, 32436, Control_c, 1, 64, 127
2, 32440, Control_c, 1, 64, 127
2, 32440, Control_c, 1, 64, 127
2, 32448, Control_c, 1, 64, 127
2, 32456, Note_off_c, 1, 75, 0
2, 32456, Note_off_c, 1, 72, 0
2, 32552, Control_c, 1, 64, 127
2, 32556, Control_c, 1, 64, 127
2, 32564, Control_c, 1, 64, 127
2, 32564, Control_c, 1, 64, 80
2, 32572, Control_c, 1, 64, 64
2, 32576, Control_c, 1, 64, 32
2, 32580, Control_c, 1, 64, 16
2, 32580, Control_c, 1, 64, 0
2, 32584, Control_c, 1, 64, 0
2, 32584, Control_c, 1, 64, 0
2, 32592, Control_c, 1, 64, 0
2, 32592, Control_c, 1, 64, 0
2, 32620, Note_on_c, 1, 60, 51
2, 32624, Note_on_c, 1, 50, 55
2, 32628, Note_on_c, 1, 64, 53
2, 32640, Note_on_c, 1, 74, 60
2, 32648, Note_on_c, 1, 71, 62
2, 32700, Control_c, 1, 64, 0
2, 32708, Control_c, 1, 64, 0
2, 32716, Control_c, 1, 64, 0
2, 32720, Control_c, 1, 64, 0
2, 32728, Control_c, 1, 64, 16
2, 32740, Control_c, 1, 64, 16
2, 32756, Control_c, 1, 64, 32
2, 32768, Note_off_c, 1, 64, 0
2, 32768, Note_off_c, 1, 60, 0
2, 32784, Control_c, 1, 64, 48
2, 32808, Control_c, 1, 64, 64
2, 32816, Note_off_c, 1, 71, 0
2, 32824, Control_c, 1, 64, 80
2, 32832, Control_c, 1, 64, 127
2, 32836, Note_on_c, 1, 64, 53
2, 32836, Control_c, 1, 64, 127
2, 32844, Note_off_c, 1, 74, 0
2, 32844, Control_c, 1, 64, 127
2, 32872, Control_c, 1, 64, 127
2, 32920, Note_off_c, 1, 64, 0
2, 32920, Control_c, 1, 64, 127
2, 32920, Control_c, 1, 64, 127
2, 32924, Control_c, 1, 64, 80
2, 32932, Control_c, 1, 64, 64
2, 32940, Control_c, 1, 64, 48
2, 32940, Control_c, 1, 64, 32
2, 32948, Control_c, 1, 64, 16
2, 32948, Control_c, 1, 64, 0
2, 32948, Control_c, 1, 64, 0
2, 32952, Control_c, 1, 64, 0
2, 32956, Note_off_c, 1, 50, 0
2, 32960, Control_c, 1, 64, 0
2, 32960, Control_c, 1, 64, 0
2, 32972, Note_on_c, 1, 63, 60
2, 32976, Note_on_c, 1, 54, 41
2, 32980, Note_on_c, 1, 60, 43
2, 33056, Note_off_c, 1, 63, 0
2, 33084, Note_on_c, 1, 62, 58
2, 33132, Note_off_c, 1, 54, 0
2, 33144, Note_off_c, 1, 60, 0
2, 33152, Note_off_c, 1, 62, 0
2, 33152, Control_c, 1, 64, 0
2, 33152, Control_c, 1, 64, 0
2, 33156, Control_c, 1, 64, 0
2, 33164, Control_c, 1, 64, 16
2, 33164, Control_c, 1, 64, 16
2, 33172, Control_c, 1, 64, 32
2, 33172, Control_c, 1, 64, 48
2, 33180, Control_c, 1, 64, 64
2, 33180, Note_on_c, 1, 62, 49
2, 33180, Note_on_c, 1, 72, 79
2, 33184, Control_c, 1, 64, 80
2, 33192, Control_c, 1, 64, 127
2, 33192, Note_on_c, 1, 69, 74
2, 33200, Control_c, 1, 64, 127
2, 33200, Control_c, 1, 64, 127
2, 33200, Control_c, 1, 64, 127
2, 33204, Control_c, 1, 64, 127
2, 33248, Note_off_c, 1, 62, 0
2, 33280, Control_c, 1, 64, 127
2, 33288, Note_off_c, 1, 69, 0
2, 33288, Control_c, 1, 64, 127
2, 33292, Control_c, 1, 64, 127
2, 33296, Control_c, 1, 64, 80
2, 33304, Control_c, 1, 64, 64
2, 33304, Control_c, 1, 64, 32
2, 33308, Note_off_c, 1, 72, 0
2, 33308, Control_c, 1, 64, 16
2, 33316, Control_c, 1, 64, 0
2, 33316, Control_c, 1, 64, 0
2, 33320, Control_c, 1, 64, 0
2, 33320, Control_c, 1, 64, 0
2, 33324, Control_c, 1, 64, 0
2, 33328, Note_on_c, 1, 53, 38
2, 33336, Note_on_c, 1, 59, 46
2, 33344, Note_on_c, 1, 43, 45
2, 33348, Note_on_c, 1, 71, 62
2, 33356, Note_on_c, 1, 65, 49
2, 33412, Note_off_c, 1, 59, 0
2, 33416, Note_off_c, 1, 71, 0
2, 33416, Control_c, 1, 64, 0
2, 33424, Control_c, 1, 64, 0
2, 33424, Control_c, 1, 64, 0
2, 33432, Note_off_c, 1, 65, 0
2, 33432, Note_off_c, 1, 53, 0
2, 33436, Control_c, 1, 64, 16
2, 33436, Control_c, 1, 64, 16
2, 33444, Control_c, 1, 64, 32
2, 33444, Control_c, 1, 64, 48
2, 33452, Control_c, 1, 64, 64
2, 33452, Control_c, 1, 64, 80
2, 33456, Control_c, 1, 64, 127
2, 33460, Control_c, 1, 64, 127
2, 33464, Control_c, 1, 64, 127
2, 33464, Control_c, 1, 64, 127
2, 33472, Control_c, 1, 64, 127
2, 33540, Note_off_c, 1, 43, 0
2, 33568, Control_c, 1, 64, 127
2, 33568, Control_c, 1, 64, 127
2, 33572, Control_c, 1, 64, 127
2, 33576, Control_c, 1, 64, 80
2, 33580, Control_c, 1, 64, 48
2, 33580, Control_c, 1, 64, 16
2, 33588, Note_on_c, 1, 53, 51
2, 33588, Note_on_c, 1, 49, 50
2, 33596, Control_c, 1, 64, 0
2, 33596, Control_c, 1, 64, 0
2, 33596, Note_on_c, 1, 63, 64
2, 33600, Control_c, 1, 64, 0
2, 33604, Note_on_c, 1, 59, 69
2, 33604, Control_c, 1, 64, 0
2, 33608, Control_c, 1, 64, 0
2, 33608, Note_on_c, 1, 68, 61
2, 33616, Note_on_c, 1, 73, 65
2, 33752, Control_c, 1, 64, 0
2, 33756, Control_c, 1, 64, 0
2, 33764, Control_c, 1, 64, 0
2, 33764, Control_c, 1, 64, 0
2, 33772, Control_c, 1, 64, 16
2, 33772, Control_c, 1, 64, 16
2, 33780, Control_c, 1, 64, 32
2, 33784, Control_c, 1, 64, 48
2, 33792, Control_c, 1, 64, 64
2, 33800, Control_c, 1, 64, 80
2, 33804, Control_c, 1, 64, 127
2, 33808, Control_c, 1, 64, 127
2, 33812, Control_c, 1, 64, 127
2, 33820, Control_c, 1, 64, 127
2, 33828, Control_c, 1, 64, 127
2, 33876, Note_off_c, 1, 49, 0
2, 33880, Note_off_c, 1, 59, 0
2, 33888, Note_off_c, 1, 68, 0
2, 33896, Note_off_c, 1, 73, 0
2, 33896, Note_off_c, 1, 63, 0
2, 33900, Note_off_c, 1, 53, 0
2, 34036, Control_c, 1, 64, 127
2, 34040, Control_c, 1, 64, 127
2, 34044, Control_c, 1, 64, 127
2, 34044, Control_c, 1, 64, 80
2, 34052, Control_c, 1, 64, 48
2, 34052, Control_c, 1, 64, 32
2, 34060, Control_c, 1, 64, 16
2, 34064, Control_c, 1, 64, 0
2, 34064, Control_c, 1, 64, 0
2, 34068, Control_c, 1, 64, 0
2, 34072, Control_c, 1, 64, 0
2, 34084, Note_on_c, 1, 36, 57
2, 34128, Control_c, 1, 64, 0
2, 34128, Control_c, 1, 64, 0
2, 34132, Control_c, 1, 64, 0
2, 34140, Control_c, 1, 64, 0
2, 34148, Control_c, 1, 64, 16
2, 34148, Control_c, 1, 64, 16
2, 34148, Control_c, 1, 64, 48
2, 34152, Control_c, 1, 64, 64
2, 34160, Control_c, 1, 64, 127
2, 34160, Control_c, 1, 64, 127
2, 34168, Control_c, 1, 64, 127
2, 34168, Control_c, 1, 64, 127
2, 34168, Control_c, 1, 64, 127
2, 34200, Control_c, 1, 64, 127
2, 34208, Control_c, 1, 64, 127
2, 34216, Control_c, 1, 64, 127
2, 34216, Note_on_c, 1, 43, 54
2, 34216, Control_c, 1, 64, 80
2, 34224, Control_c, 1, 64, 64
2, 34228, Control_c, 1, 64, 48
2, 34228, Control_c, 1, 64, 16
2, 34232, Control_c, 1, 64, 0
2, 34236, Control_c, 1, 64, 0
2, 34244, Control_c, 1, 64, 0
2, 34244, Control_c, 1, 64, 0
2, 34244, Control_c, 1, 64, 0
2, 34264, Note_off_c, 1, 36, 0
2, 34296, Note_off_c, 1, 43, 0
2, 34304, Note_on_c, 1, 72, 72
2, 34312, Note_on_c, 1, 58, 63
2, 34312, Note_on_c, 1, 61, 62
2, 34312, Note_on_c, 1, 66, 54
2, 34316, Note_on_c, 1, 52, 54
2, 34448, Control_c, 1, 64, 0
2, 34452, Control_c, 1, 64, 0
2, 34460, Control_c, 1, 64, 0
2, 34460, Control_c, 1, 64, 16
2, 34468, Control_c, 1, 64, 32
2, 34468, Control_c, 1, 64, 64
2, 34476, Control_c, 1, 64, 80
2, 34476, Control_c, 1, 64, 127
2, 34480, Control_c, 1, 64, 127
2, 34488, Control_c, 1, 64, 127
2, 34488, Control_c, 1, 64, 127
2, 34492, Note_off_c, 1, 72, 0
2, 34664, Note_on_c, 1, 70, 70
2, 34688, Note_on_c, 1, 68, 46
2, 34692, Note_off_c, 1, 58, 0
2, 34712, Note_off_c, 1, 68, 0
2, 34716, Note_off_c, 1, 61, 0
2, 34736, Note_off_c, 1, 66, 0
2, 34740, Note_off_c, 1, 70, 0
2, 34760, Control_c, 1, 64, 127
2, 34760, Control_c, 1, 64, 127
2, 34768, Control_c, 1, 64, 127
2, 34776, Control_c, 1, 64, 64
2, 34776, Control_c, 1, 64, 48
2, 34780, Control_c, 1, 64, 16
2, 34780, Control_c, 1, 64, 0
2, 34784, Control_c, 1, 64, 0
2, 34788, Control_c, 1, 64, 0
2, 34788, Control_c, 1, 64, 0
2, 34796, Control_c, 1, 64, 0
2, 34804, Note_on_c, 1, 41, 58
2, 34808, Note_off_c, 1, 52, 0
2, 34816, Note_on_c, 1, 69, 73
2, 34892, Control_c, 1, 64, 0
2, 34924, Control_c, 1, 64, 0
2, 34928, Note_on_c, 1, 51, 63
2, 35048, Note_on_c, 1, 57, 63
2, 35056, Note_on_c, 1, 63, 66
2, 35056, Note_on_c, 1, 62, 62
2, 35128, Note_off_c, 1, 62, 0
2, 35136, Control_c, 1, 64, 0
2, 35144, Note_off_c, 1, 63, 0
2, 35144, Control_c, 1, 64, 0
2, 35152, Note_off_c, 1, 69, 0
2, 35152, Control_c, 1, 64, 0
2, 35156, Control_c, 1, 64, 0
2, 35156, Control_c, 1, 64, 16
2, 35164, Note_off_c, 1, 41, 0
2, 35164, Control_c, 1, 64, 16
2, 35164, Control_c, 1, 64, 32
2, 35172, Note_off_c, 1, 51, 0
2, 35172, Control_c, 1, 64, 48
2, 35172, Control_c, 1, 64, 64
2, 35180, Control_c, 1, 64, 80
2, 35184, Control_c, 1, 64, 127
2, 35184, Control_c, 1, 64, 127
2, 35192, Control_c, 1, 64, 127
2, 35192, Control_c, 1, 64, 127
2, 35196, Control_c, 1, 64, 127
2, 35260, Note_off_c, 1, 57, 0
2, 35288, Control_c, 1, 64, 127
2, 35288, Control_c, 1, 64, 127
2, 35288, Control_c, 1, 64, 127
2, 35296, Control_c, 1, 64, 64
2, 35300, Control_c, 1, 64, 32
2, 35300, Control_c, 1, 64, 16
2, 35300, Control_c, 1, 64, 0
2, 35308, Control_c, 1, 64, 0
2, 35308, Control_c, 1, 64, 0
2, 35312, Control_c, 1, 64, 0
2, 35316, Note_on_c, 1, 47, 63
2, 35320, Note_on_c, 1, 71, 72
2, 35320, Note_on_c, 1, 68, 73
2, 35320, Note_on_c, 1, 63, 69
2, 35336, Note_on_c, 1, 57, 44
2, 35388, Control_c, 1, 64, 0
2, 35396, Control_c, 1, 64, 0
2, 35404, Note_off_c, 1, 47, 0
2, 35404, Control_c, 1, 64, 0
2, 35408, Control_c, 1, 64, 0
2, 35408, Control_c, 1, 64, 16
2, 35412, Control_c, 1, 64, 32
2, 35416, Control_c, 1, 64, 48
2, 35416, Control_c, 1, 64, 64
2, 35424, Control_c, 1, 64, 80
2, 35428, Control_c, 1, 64, 127
2, 35432, Note_off_c, 1, 63, 0
2, 35436, Control_c, 1, 64, 127
2, 35436, Control_c, 1, 64, 127
2, 35444, Control_c, 1, 64, 127
2, 35500, Note_off_c, 1, 68, 0
2, 35504, Note_off_c, 1, 71, 0
2, 35532, Note_off_c, 1, 57, 0
2, 35540, Control_c, 1, 64, 127
2, 35540, Control_c, 1, 64, 127
2, 35540, Control_c, 1, 64, 127
2, 35548, Control_c, 1, 64, 64
2, 35552, Control_c, 1, 64, 32
2, 35552, Control_c, 1, 64, 16
2, 35552, Control_c, 1, 64, 0
2, 35560, Control_c, 1, 64, 0
2, 35568, Control_c, 1, 64, 0
2, 35568, Control_c, 1, 64, 0
2, 35568, Note_on_c, 1, 46, 50
2, 35572, Note_on_c, 1, 56, 48
2, 35572, Note_on_c, 1, 62, 53
2, 35580, Note_on_c, 1, 67, 57
2, 35580, Note_on_c, 1, 70, 59
2, 35668, Note_off_c, 1, 67, 0
2, 35684, Note_off_c, 1, 70, 0
2, 35688, Control_c, 1, 64, 0
2, 35692, Note_off_c, 1, 62, 0
2, 35692, Control_c, 1, 64, 0
2, 35696, Control_c, 1, 64, 0
2, 35696, Control_c, 1, 64, 0
2, 35704, Control_c, 1, 64, 16
2, 35704, Control_c, 1, 64, 16
2, 35708, Control_c, 1, 64, 32
2, 35712, Control_c, 1, 64, 48
2, 35716, Control_c, 1, 64, 64
2, 35724, Note_off_c, 1, 56, 0
2, 35732, Control_c, 1, 64, 80
2, 35732, Control_c, 1, 64, 127
2, 35732, Control_c, 1, 64, 127
2, 35736, Control_c, 1, 64, 127
2, 35736, Control_c, 1, 64, 127
2, 35744, Control_c, 1, 64, 127
2, 35852, Control_c, 1, 64, 127
2, 35860, Control_c, 1, 64, 127
2, 35860, Control_c, 1, 64, 127
2, 35868, Control_c, 1, 64, 80
2, 35868, Control_c, 1, 64, 64
2, 35872, Control_c, 1, 64, 32
2, 35872, Control_c, 1, 64, 16
2, 35880, Control_c, 1, 64, 0
2, 35880, Control_c, 1, 64, 0
2, 35880, Control_c, 1, 64, 0
2, 35888, Control_c, 1, 64, 0
2, 35892, Control_c, 1, 64, 0
2, 35920, Note_on_c, 1, 67, 53
2, 35928, Note_on_c, 1, 62, 58
2, 35936, Note_on_c, 1, 59, 59
2, 35936, Note_on_c, 1, 56, 58
2, 35936, Note_on_c, 1, 70, 60
2, 35940, Control_c, 1, 64, 0
2, 35948, Control_c, 1, 64, 0
2, 35960, Control_c, 1, 64, 0
2, 35964, Control_c, 1, 64, 0
2, 35968, Control_c, 1, 64, 16
2, 35968, Control_c, 1, 64, 16
2, 35976, Note_off_c, 1, 56, 0
2, 35976, Control_c, 1, 64, 32
2, 35984, Control_c, 1, 64, 48
2, 35984, Control_c, 1, 64, 64
2, 35988, Note_off_c, 1, 67, 0
2, 35992, Control_c, 1, 64, 80
2, 35996, Note_off_c, 1, 70, 0
2, 35996, Control_c, 1, 64, 127
2, 36004, Note_off_c, 1, 46, 0
2, 36004, Control_c, 1, 64, 127
2, 36004, Control_c, 1, 64, 127
2, 36008, Control_c, 1, 64, 127
2, 36012, Note_off_c, 1, 62, 0
2, 36016, Control_c, 1, 64, 127
2, 36020, Note_off_c, 1, 59, 0
2, 36168, Note_on_c, 1, 39, 73
2, 36168, Note_on_c, 1, 53, 73
2, 36168, Note_on_c, 1, 67, 78
2, 36172, Note_on_c, 1, 55, 74
2, 36180, Note_on_c, 1, 60, 73
2, 36180, Note_on_c, 1, 62, 73
2, 36180, Note_on_c, 1, 46, 61
2, 36188, Control_c, 1, 64, 127
2, 36188, Control_c, 1, 64, 127
2, 36188, Control_c, 1, 64, 127
2, 36192, Control_c, 1, 64, 80
2, 36200, Control_c, 1, 64, 64
2, 36208, Control_c, 1, 64, 32
2, 36208, Control_c, 1, 64, 16
2, 36208, Control_c, 1, 64, 0
2, 36216, Control_c, 1, 64, 0
2, 36216, Control_c, 1, 64, 0
2, 36220, Control_c, 1, 64, 0
2, 36220, Control_c, 1, 64, 0
2, 36352, Note_off_c, 1, 55, 0
2, 36352, Control_c, 1, 64, 0
2, 36356, Control_c, 1, 64, 0
2, 36360, Control_c, 1, 64, 0
2, 36364, Control_c, 1, 64, 0
2, 36372, Control_c, 1, 64, 16
2, 36372, Control_c, 1, 64, 16
2, 36380, Note_off_c, 1, 67, 0
2, 36384, Control_c, 1, 64, 32
2, 36392, Control_c, 1, 64, 48
2, 36400, Control_c, 1, 64, 64
2, 36404, Note_off_c, 1, 60, 0
2, 36412, Control_c, 1, 64, 80
2, 36412, Control_c, 1, 64, 127
2, 36420, Control_c, 1, 64, 127
2, 36420, Control_c, 1, 64, 127
2, 36428, Note_off_c, 1, 62, 0
2, 36428, Control_c, 1, 64, 127
2, 36432, Control_c, 1, 64, 127
2, 36496, Note_on_c, 1, 55, 57
2, 36548, Note_on_c, 1, 56, 76
2, 36564, Note_off_c, 1, 55, 0
2, 36588, Control_c, 1, 64, 127
2, 36592, Control_c, 1, 64, 127
2, 36596, Note_off_c, 1, 56, 0
2, 36596, Control_c, 1, 64, 127
2, 36604, Control_c, 1, 64, 80
2, 36604, Control_c, 1, 64, 64
2, 36608, Control_c, 1, 64, 32
2, 36612, Control_c, 1, 64, 16
2, 36612, Note_on_c, 1, 58, 55
2, 36616, Control_c, 1, 64, 0
2, 36616, Control_c, 1, 64, 0
2, 36624, Control_c, 1, 64, 0
2, 36624, Control_c, 1, 64, 0
2, 36632, Note_off_c, 1, 58, 0
2, 36632, Control_c, 1, 64, 0
2, 36664, Note_on_c, 1, 60, 74
2, 36704, Control_c, 1, 64, 0
2, 36712, Control_c, 1, 64, 0
2, 36720, Control_c, 1, 64, 0
2, 36720, Control_c, 1, 64, 0
2, 36728, Note_on_c, 1, 62, 77
2, 36728, Control_c, 1, 64, 16
2, 36732, Control_c, 1, 64, 16
2, 36732, Control_c, 1, 64, 32
2, 36736, Control_c, 1, 64, 48
2, 36740, Note_off_c, 1, 53, 0
2, 36740, Control_c, 1, 64, 64
2, 36748, Note_off_c, 1, 60, 0
2, 36752, Control_c, 1, 64, 80
2, 36752, Control_c, 1, 64, 127
2, 36760, Control_c, 1, 64, 127
2, 36760, Control_c, 1, 64, 127
2, 36764, Note_on_c, 1, 63, 69
2, 36768, Note_off_c, 1, 62, 0
2, 36768, Control_c, 1, 64, 127
2, 36772, Control_c, 1, 64, 127
2, 36788, Note_off_c, 1, 63, 0
2, 36796, Note_off_c, 1, 46, 0
2, 36836, Note_on_c, 1, 65, 75
2, 36884, Note_on_c, 1, 67, 77
2, 36896, Note_off_c, 1, 65, 0
2, 36924, Note_on_c, 1, 68, 71
2, 36944, Note_off_c, 1, 67, 0
2, 36960, Note_off_c, 1, 39, 0
2, 36960, Control_c, 1, 64, 127
2, 36960, Control_c, 1, 64, 127
2, 36964, Control_c, 1, 64, 127
2, 36972, Control_c, 1, 64, 80
2, 36980, Control_c, 1, 64, 48
2, 36980, Control_c, 1, 64, 32
2, 36980, Control_c, 1, 64, 16
2, 36984, Control_c, 1, 64, 0
2, 36988, Control_c, 1, 64, 0
2, 36992, Control_c, 1, 64, 0
2, 36992, Note_on_c, 1, 70, 73
2, 36996, Note_off_c, 1, 68, 0
2, 37000, Control_c, 1, 64, 0
2, 37008, Note_on_c, 1, 54, 67
2, 37008, Note_on_c, 1, 38, 60
2, 37028, Note_on_c, 1, 67, 73
2, 37032, Note_off_c, 1, 70, 0
2, 37088, Note_off_c, 1, 38, 0
2, 37088, Note_on_c, 1, 68, 77
2, 37096, Note_off_c, 1, 67, 0
2, 37100, Control_c, 1, 64, 0
2, 37100, Control_c, 1, 64, 0
2, 37108, Control_c, 1, 64, 0
2, 37108, Control_c, 1, 64, 0
2, 37108, Control_c, 1, 64, 16
2, 37116, Control_c, 1, 64, 16
2, 37120, Control_c, 1, 64, 32
2, 37128, Note_off_c, 1, 68, 0
2, 37128, Control_c, 1, 64, 48
2, 37136, Note_off_c, 1, 54, 0
2, 37136, Control_c, 1, 64, 64
2, 37144, Control_c, 1, 64, 80
2, 37148, Control_c, 1, 64, 127
2, 37148, Control_c, 1, 64, 127
2, 37156, Control_c, 1, 64, 127
2, 37164, Note_on_c, 1, 70, 40
2, 37164, Control_c, 1, 64, 127
2, 37164, Control_c, 1, 64, 127
2, 37184, Note_off_c, 1, 70, 0
2, 37184, Note_on_c, 1, 71, 75
2, 37244, Note_on_c, 1, 73, 78
2, 37264, Note_off_c, 1, 71, 0
2, 37280, Note_on_c, 1, 75, 77
2, 37284, Note_off_c, 1, 73, 0
2, 37320, Note_off_c, 1, 75, 0
2, 37332, Control_c, 1, 64, 127
2, 37340, Control_c, 1, 64, 127
2, 37340, Control_c, 1, 64, 127
2, 37340, Control_c, 1, 64, 80
2, 37352, Control_c, 1, 64, 64
2, 37356, Note_on_c, 1, 53, 60
2, 37356, Control_c, 1, 64, 32
2, 37360, Note_on_c, 1, 43, 68
2, 37360, Control_c, 1, 64, 16
2, 37368, Note_on_c, 1, 59, 65
2, 37368, Control_c, 1, 64, 0
2, 37368, Control_c, 1, 64, 0
2, 37376, Control_c, 1, 64, 0
2, 37380, Control_c, 1, 64, 0
2, 37380, Control_c, 1, 64, 0
2, 37388, Note_on_c, 1, 77, 60
2, 37396, Note_on_c, 1, 79, 45
2, 37436, Note_off_c, 1, 77, 0
2, 37448, Note_off_c, 1, 43, 0
2, 37456, Note_off_c, 1, 53, 0
2, 37476, Note_off_c, 1, 59, 0
2, 37484, Note_on_c, 1, 80, 73
2, 37504, Note_off_c, 1, 79, 0
2, 37504, Control_c, 1, 64, 0
2, 37504, Control_c, 1, 64, 0
2, 37512, Control_c, 1, 64, 0
2, 37516, Control_c, 1, 64, 0
2, 37520, Control_c, 1, 64, 16
2, 37520, Control_c, 1, 64, 16
2, 37524, Control_c, 1, 64, 32
2, 37532, Control_c, 1, 64, 48
2, 37532, Control_c, 1, 64, 64
2, 37540, Control_c, 1, 64, 80
2, 37544, Note_on_c, 1, 82, 80
2, 37548, Control_c, 1, 64, 127
2, 37552, Control_c, 1, 64, 127
2, 37552, Control_c, 1, 64, 127
2, 37552, Control_c, 1, 64, 127
2, 37560, Note_off_c, 1, 80, 0
2, 37560, Control_c, 1, 64, 127
2, 37592, Note_on_c, 1, 83, 20
2, 37612, Note_off_c, 1, 82, 0
2, 37628, Note_off_c, 1, 83, 0
2, 37660, Control_c, 1, 64, 127
2, 37668, Control_c, 1, 64, 127
2, 37676, Control_c, 1, 64, 127
2, 37680, Control_c, 1, 64, 80
2, 37684, Control_c, 1, 64, 48
2, 37688, Control_c, 1, 64, 32
2, 37688, Control_c, 1, 64, 16
2, 37688, Control_c, 1, 64, 0
2, 37696, Control_c, 1, 64, 0
2, 37696, Control_c, 1, 64, 0
2, 37700, Control_c, 1, 64, 0
2, 37704, Control_c, 1, 64, 0
2, 37708, Note_on_c, 1, 63, 71
2, 37708, Note_on_c, 1, 48, 58
2, 37736, Note_on_c, 1, 84, 17
2, 37784, Note_off_c, 1, 84, 0
2, 37824, Control_c, 1, 64, 0
2, 37832, Control_c, 1, 64, 0
2, 37840, Control_c, 1, 64, 0
2, 37844, Control_c, 1, 64, 0
2, 37852, Control_c, 1, 64, 16
2, 37860, Control_c, 1, 64, 16
2, 37864, Control_c, 1, 64, 32
2, 37880, Control_c, 1, 64, 48
2, 37900, Control_c, 1, 64, 64
2, 37900, Control_c, 1, 64, 80
2, 37908, Control_c, 1, 64, 127
2, 37908, Control_c, 1, 64, 127
2, 37912, Control_c, 1, 64, 127
2, 37920, Control_c, 1, 64, 127
2, 37932, Control_c, 1, 64, 127
2, 38004, Control_c, 1, 64, 127
2, 38008, Control_c, 1, 64, 127
2, 38016, Control_c, 1, 64, 127
2, 38016, Control_c, 1, 64, 80
2, 38024, Control_c, 1, 64, 64
2, 38028, Control_c, 1, 64, 48
2, 38028, Control_c, 1, 64, 16
2, 38032, Control_c, 1, 64, 16
2, 38036, Control_c, 1, 64, 0
2, 38036, Control_c, 1, 64, 0
2, 38044, Control_c, 1, 64, 0
2, 38044, Control_c, 1, 64, 0
2, 38048, Control_c, 1, 64, 0
2, 38056, Note_on_c, 1, 55, 60
2, 38132, Note_on_c, 1, 75, 63
2, 38160, Note_off_c, 1, 75, 0
2, 38188, Note_on_c, 1, 77, 78
2, 38212, Note_off_c, 1, 55, 0
2, 38228, Note_off_c, 1, 48, 0
2, 38228, Control_c, 1, 64, 0
2, 38232, Control_c, 1, 64, 0
2, 38236, Control_c, 1, 64, 0
2, 38240, Control_c, 1, 64, 0
2, 38240, Control_c, 1, 64, 16
2, 38248, Note_off_c, 1, 77, 0
2, 38248, Control_c, 1, 64, 16
2, 38248, Control_c, 1, 64, 32
2, 38256, Control_c, 1, 64, 48
2, 38256, Note_on_c, 1, 75, 73
2, 38260, Control_c, 1, 64, 64
2, 38268, Control_c, 1, 64, 80
2, 38268, Control_c, 1, 64, 127
2, 38276, Control_c, 1, 64, 127
2, 38276, Control_c, 1, 64, 127
2, 38280, Control_c, 1, 64, 127
2, 38284, Control_c, 1, 64, 127
2, 38288, Note_off_c, 1, 63, 0
2, 38304, Note_off_c, 1, 75, 0
2, 38316, Note_on_c, 1, 77, 75
2, 38356, Control_c, 1, 64, 127
2, 38364, Control_c, 1, 64, 127
2, 38364, Control_c, 1, 64, 127
2, 38372, Control_c, 1, 64, 64
2, 38372, Control_c, 1, 64, 48
2, 38376, Control_c, 1, 64, 16
2, 38380, Control_c, 1, 64, 0
2, 38384, Control_c, 1, 64, 0
2, 38384, Control_c, 1, 64, 0
2, 38392, Note_on_c, 1, 75, 85
2, 38392, Control_c, 1, 64, 0
2, 38392, Control_c, 1, 64, 0
2, 38400, Note_off_c, 1, 77, 0
2, 38440, Note_on_c, 1, 74, 74
2, 38452, Note_off_c, 1, 75, 0
2, 38540, Note_on_c, 1, 64, 77
2, 38544, Note_on_c, 1, 60, 71
2, 38548, Note_on_c, 1, 50, 71
2, 38548, Note_on_c, 1, 86, 86
2, 38604, Control_c, 1, 64, 0
2, 38608, Control_c, 1, 64, 0
2, 38608, Control_c, 1, 64, 0
2, 38616, Control_c, 1, 64, 0
2, 38624, Control_c, 1, 64, 16
2, 38628, Control_c, 1, 64, 16
2, 38636, Control_c, 1, 64, 32
2, 38644, Control_c, 1, 64, 48
2, 38656, Control_c, 1, 64, 64
2, 38664, Note_off_c, 1, 86, 0
2, 38664, Note_off_c, 1, 64, 0
2, 38672, Control_c, 1, 64, 80
2, 38672, Control_c, 1, 64, 127
2, 38676, Control_c, 1, 64, 127
2, 38684, Control_c, 1, 64, 127
2, 38700, Note_off_c, 1, 74, 0
2, 38732, Control_c, 1, 64, 127
2, 38740, Control_c, 1, 64, 127
2, 38740, Control_c, 1, 64, 80
2, 38748, Control_c, 1, 64, 64
2, 38752, Control_c, 1, 64, 48
2, 38752, Control_c, 1, 64, 32
2, 38760, Control_c, 1, 64, 16
2, 38760, Control_c, 1, 64, 0
2, 38760, Control_c, 1, 64, 0
2, 38768, Control_c, 1, 64, 0
2, 38768, Control_c, 1, 64, 0
2, 38772, Control_c, 1, 64, 0
2, 38776, Note_on_c, 1, 66, 65
2, 38888, Note_on_c, 1, 72, 63
2, 38896, Note_off_c, 1, 66, 0
2, 38896, Note_on_c, 1, 80, 72
2, 38916, Note_off_c, 1, 60, 0
2, 38924, Control_c, 1, 64, 0
2, 38924, Control_c, 1, 64, 0
2, 38928, Control_c, 1, 64, 0
2, 38936, Control_c, 1, 64, 0
2, 38944, Note_off_c, 1, 50, 0
2, 38944, Control_c, 1, 64, 16
2, 38952, Control_c, 1, 64, 16
2, 38952, Control_c, 1, 64, 32
2, 38956, Control_c, 1, 64, 48
2, 38964, Control_c, 1, 64, 64
2, 38980, Control_c, 1, 64, 80
2, 38980, Control_c, 1, 64, 127
2, 38984, Control_c, 1, 64, 127
2, 38984, Control_c, 1, 64, 127
2, 38992, Note_on_c, 1, 84, 81
2, 39000, Control_c, 1, 64, 127
2, 39020, Note_off_c, 1, 80, 0
2, 39020, Note_on_c, 1, 75, 54
2, 39032, Control_c, 1, 64, 127
2, 39060, Note_off_c, 1, 84, 0
2, 39068, Note_off_c, 1, 72, 0
2, 39072, Note_off_c, 1, 75, 0
2, 39136, Note_on_c, 1, 73, 75
2, 39140, Note_on_c, 1, 83, 81
2, 39144, Note_on_c, 1, 71, 60
2, 39148, Control_c, 1, 64, 127
2, 39156, Control_c, 1, 64, 127
2, 39164, Control_c, 1, 64, 127
2, 39168, Control_c, 1, 64, 80
2, 39172, Control_c, 1, 64, 64
2, 39176, Note_on_c, 1, 72, 43
2, 39184, Control_c, 1, 64, 48
2, 39184, Control_c, 1, 64, 32
2, 39184, Control_c, 1, 64, 16
2, 39188, Control_c, 1, 64, 0
2, 39188, Control_c, 1, 64, 0
2, 39196, Note_off_c, 1, 72, 0
2, 39196, Control_c, 1, 64, 0
2, 39196, Control_c, 1, 64, 0
2, 39204, Control_c, 1, 64, 0
2, 39216, Note_off_c, 1, 71, 0
2, 39216, Note_off_c, 1, 73, 0
2, 39244, Note_on_c, 1, 53, 62
2, 39252, Note_off_c, 1, 83, 0
2, 39252, Note_on_c, 1, 43, 68
2, 39252, Note_on_c, 1, 59, 69
2, 39256, Note_on_c, 1, 49, 60
2, 39348, Control_c, 1, 64, 0
2, 39348, Control_c, 1, 64, 0
2, 39352, Control_c, 1, 64, 0
2, 39360, Note_off_c, 1, 43, 0
2, 39360, Control_c, 1, 64, 16
2, 39368, Control_c, 1, 64, 16
2, 39368, Control_c, 1, 64, 32
2, 39372, Note_off_c, 1, 49, 0
2, 39376, Control_c, 1, 64, 48
2, 39380, Note_off_c, 1, 59, 0
2, 39388, Note_off_c, 1, 53, 0
2, 39388, Control_c, 1, 64, 64
2, 39392, Control_c, 1, 64, 80
2, 39400, Control_c, 1, 64, 127
2, 39400, Control_c, 1, 64, 127
2, 39408, Control_c, 1, 64, 127
2, 39428, Control_c, 1, 64, 127
2, 39436, Control_c, 1, 64, 127
2, 39496, Note_on_c, 1, 80, 37
2, 39504, Note_on_c, 1, 85, 75
2, 39512, Note_on_c, 1, 73, 66
2, 39512, Note_on_c, 1, 77, 67
2, 39512, Note_on_c, 1, 82, 66
2, 39556, Control_c, 1, 64, 127
2, 39564, Control_c, 1, 64, 127
2, 39564, Control_c, 1, 64, 127
2, 39572, Control_c, 1, 64, 127
2, 39572, Control_c, 1, 64, 80
2, 39580, Control_c, 1, 64, 48
2, 39580, Control_c, 1, 64, 32
2, 39584, Control_c, 1, 64, 16
2, 39592, Note_off_c, 1, 73, 0
2, 39592, Control_c, 1, 64, 0
2, 39592, Control_c, 1, 64, 0
2, 39600, Note_off_c, 1, 77, 0
2, 39600, Control_c, 1, 64, 0
2, 39600, Control_c, 1, 64, 0
2, 39604, Control_c, 1, 64, 0
2, 39608, Note_off_c, 1, 82, 0
2, 39620, Note_off_c, 1, 85, 0
2, 39620, Note_off_c, 1, 80, 0
2, 39628, Note_on_c, 1, 63, 69
2, 39632, Note_on_c, 1, 53, 63
2, 39632, Note_on_c, 1, 59, 69
2, 39636, Note_on_c, 1, 56, 67
2, 39748, Note_off_c, 1, 59, 0
2, 39748, Note_off_c, 1, 63, 0
2, 39756, Note_off_c, 1, 56, 0
2, 39756, Control_c, 1, 64, 0
2, 39760, Control_c, 1, 64, 0
2, 39764, Control_c, 1, 64, 0
2, 39764, Control_c, 1, 64, 0
2, 39768, Control_c, 1, 64, 16
2, 39768, Control_c, 1, 64, 16
2, 39776, Note_off_c, 1, 53, 0
2, 39776, Control_c, 1, 64, 32
2, 39776, Control_c, 1, 64, 48
2, 39788, Control_c, 1, 64, 64
2, 39796, Control_c, 1, 64, 80
2, 39796, Control_c, 1, 64, 127
2, 39804, Control_c, 1, 64, 127
2, 39808, Control_c, 1, 64, 127
2, 39816, Control_c, 1, 64, 127
2, 39832, Control_c, 1, 64, 127
2, 39864, Note_on_c, 1, 82, 67
2, 39872, Note_on_c, 1, 73, 65
2, 39872, Note_on_c, 1, 78, 60
2, 39872, Note_on_c, 1, 72, 60
2, 39880, Note_on_c, 1, 84, 69
2, 39948, Control_c, 1, 64, 127
2, 39952, Control_c, 1, 64, 127
2, 39956, Control_c, 1, 64, 127
2, 39960, Control_c, 1, 64, 80
2, 39968, Control_c, 1, 64, 64
2, 39968, Control_c, 1, 64, 32
2, 39968, Control_c, 1, 64, 16
2, 39972, Control_c, 1, 64, 0
2, 39976, Control_c, 1, 64, 0
2, 39980, Control_c, 1, 64, 0
2, 39980, Control_c, 1, 64, 0
2, 39988, Control_c, 1, 64, 0
2, 39996, Note_on_c, 1, 36, 60
2, 40028, Note_off_c, 1, 36, 0
2, 40048, Control_c, 1, 64, 0
2, 40056, Control_c, 1, 64, 0
2, 40064, Control_c, 1, 64, 0
2, 40068, Control_c, 1, 64, 0
2, 40076, Control_c, 1, 64, 16
2, 40076, Control_c, 1, 64, 16
2, 40076, Control_c, 1, 64, 32
2, 40084, Control_c, 1, 64, 48
2, 40088, Control_c, 1, 64, 64
2, 40096, Control_c, 1, 64, 80
2, 40096, Control_c, 1, 64, 127
2, 40104, Control_c, 1, 64, 127
2, 40104, Control_c, 1, 64, 127
2, 40104, Control_c, 1, 64, 127
2, 40112, Control_c, 1, 64, 127
2, 40184, Note_off_c, 1, 84, 0
2, 40212, Note_off_c, 1, 82, 0
2, 40228, Note_off_c, 1, 72, 0
2, 40228, Note_off_c, 1, 78, 0
2, 40232, Note_off_c, 1, 73, 0
2, 40252, Control_c, 1, 64, 127
2, 40260, Control_c, 1, 64, 127
2, 40264, Note_on_c, 1, 52, 55
2, 40268, Note_on_c, 1, 58, 68
2, 40268, Note_on_c, 1, 56, 61
2, 40268, Control_c, 1, 64, 127
2, 40272, Control_c, 1, 64, 80
2, 40280, Control_c, 1, 64, 64
2, 40284, Control_c, 1, 64, 32
2, 40288, Control_c, 1, 64, 16
2, 40288, Note_on_c, 1, 63, 56
2, 40296, Control_c, 1, 64, 0
2, 40296, Note_on_c, 1, 53, 44
2, 40296, Control_c, 1, 64, 0
2, 40300, Control_c, 1, 64, 0
2, 40304, Control_c, 1, 64, 0
2, 40304, Note_on_c, 1, 54, 44
2, 40308, Control_c, 1, 64, 0
2, 40312, Note_off_c, 1, 53, 0
2, 40416, Control_c, 1, 64, 0
2, 40424, Control_c, 1, 64, 0
2, 40424, Control_c, 1, 64, 0
2, 40432, Control_c, 1, 64, 0
2, 40432, Control_c, 1, 64, 16
2, 40440, Note_off_c, 1, 63, 0
2, 40440, Control_c, 1, 64, 16
2, 40444, Control_c, 1, 64, 32
2, 40452, Control_c, 1, 64, 48
2, 40460, Control_c, 1, 64, 64
2, 40464, Note_off_c, 1, 56, 0
2, 40472, Note_off_c, 1, 58, 0
2, 40472, Control_c, 1, 64, 80
2, 40480, Control_c, 1, 64, 127
2, 40480, Control_c, 1, 64, 127
2, 40480, Control_c, 1, 64, 127
2, 40488, Note_off_c, 1, 54, 0
2, 40488, Note_off_c, 1, 52, 0
2, 40492, Note_on_c, 1, 82, 79
2, 40492, Note_on_c, 1, 73, 64
2, 40500, Control_c, 1, 64, 127
2, 40508, Note_on_c, 1, 70, 67
2, 40508, Note_on_c, 1, 75, 60
2, 40508, Control_c, 1, 64, 127
2, 40512, Note_on_c, 1, 80, 57
2, 40576, Note_off_c, 1, 70, 0
2, 40580, Note_off_c, 1, 80, 0
2, 40584, Note_off_c, 1, 73, 0
2, 40588, Note_off_c, 1, 75, 0
2, 40588, Note_off_c, 1, 82, 0
2, 40648, Note_on_c, 1, 75, 53
2, 40656, Note_on_c, 1, 73, 57
2, 40656, Note_on_c, 1, 69, 60
2, 40660, Note_on_c, 1, 81, 65
2, 40704, Control_c, 1, 64, 127
2, 40712, Control_c, 1, 64, 127
2, 40712, Control_c, 1, 64, 127
2, 40716, Control_c, 1, 64, 80
2, 40724, Control_c, 1, 64, 64
2, 40724, Control_c, 1, 64, 32
2, 40728, Control_c, 1, 64, 16
2, 40732, Control_c, 1, 64, 0
2, 40732, Control_c, 1, 64, 0
2, 40740, Control_c, 1, 64, 0
2, 40740, Control_c, 1, 64, 0
2, 40740, Control_c, 1, 64, 0
2, 40764, Note_on_c, 1, 41, 63
2, 40772, Note_on_c, 1, 51, 56
2, 40780, Note_on_c, 1, 47, 46
2, 40788, Note_on_c, 1, 57, 47
2, 40808, Note_off_c, 1, 41, 0
2, 40812, Note_off_c, 1, 47, 0
2, 40828, Control_c, 1, 64, 0
2, 40832, Control_c, 1, 64, 0
2, 40840, Note_off_c, 1, 51, 0
2, 40840, Control_c, 1, 64, 0
2, 40848, Control_c, 1, 64, 0
2, 40848, Control_c, 1, 64, 16
2, 40856, Control_c, 1, 64, 32
2, 40856, Control_c, 1, 64, 48
2, 40860, Control_c, 1, 64, 64
2, 40868, Note_off_c, 1, 57, 0
2, 40868, Control_c, 1, 64, 80
2, 40876, Note_off_c, 1, 69, 0
2, 40876, Control_c, 1, 64, 127
2, 40876, Control_c, 1, 64, 127
2, 40880, Control_c, 1, 64, 127
2, 40880, Control_c, 1, 64, 127
2, 40884, Control_c, 1, 64, 127
2, 40888, Note_off_c, 1, 73, 0
2, 40896, Note_off_c, 1, 75, 0
2, 40916, Note_off_c, 1, 81, 0
2, 41032, Control_c, 1, 64, 127
2, 41040, Control_c, 1, 64, 127
2, 41040, Note_on_c, 1, 61, 64
2, 41040, Note_on_c, 1, 63, 71
2, 41044, Control_c, 1, 64, 127
2, 41048, Note_on_c, 1, 67, 67
2, 41052, Note_on_c, 1, 57, 59
2, 41052, Control_c, 1, 64, 127
2, 41056, Note_on_c, 1, 59, 62
2, 41060, Control_c, 1, 64, 64
2, 41064, Control_c, 1, 64, 48
2, 41064, Control_c, 1, 64, 32
2, 41068, Control_c, 1, 64, 16
2, 41072, Control_c, 1, 64, 0
2, 41072, Control_c, 1, 64, 0
2, 41080, Control_c, 1, 64, 0
2, 41080, Control_c, 1, 64, 0
2, 41080, Control_c, 1, 64, 0
2, 41188, Note_off_c, 1, 67, 0
2, 41196, Control_c, 1, 64, 0
2, 41196, Control_c, 1, 64, 0
2, 41204, Control_c, 1, 64, 0
2, 41208, Control_c, 1, 64, 16
2, 41216, Note_off_c, 1, 63, 0
2, 41216, Control_c, 1, 64, 16
2, 41216, Control_c, 1, 64, 32
2, 41224, Note_off_c, 1, 61, 0
2, 41224, Control_c, 1, 64, 48
2, 41228, Note_off_c, 1, 59, 0
2, 41228, Control_c, 1, 64, 64
2, 41236, Control_c, 1, 64, 80
2, 41236, Control_c, 1, 64, 127
2, 41244, Note_off_c, 1, 57, 0
2, 41244, Control_c, 1, 64, 127
2, 41244, Control_c, 1, 64, 127
2, 41248, Control_c, 1, 64, 127
2, 41252, Control_c, 1, 64, 127
2, 41272, Note_on_c, 1, 95, 76
2, 41276, Note_on_c, 1, 83, 75
2, 41276, Note_on_c, 1, 87, 66
2, 41284, Note_on_c, 1, 90, 69
2, 41344, Note_off_c, 1, 83, 0
2, 41352, Note_off_c, 1, 95, 0
2, 41372, Note_off_c, 1, 87, 0
2, 41388, Control_c, 1, 64, 127
2, 41392, Control_c, 1, 64, 127
2, 41400, Control_c, 1, 64, 127
2, 41408, Control_c, 1, 64, 64
2, 41408, Control_c, 1, 64, 48
2, 41412, Control_c, 1, 64, 16
2, 41412, Control_c, 1, 64, 16
2, 41416, Control_c, 1, 64, 0
2, 41420, Control_c, 1, 64, 0
2, 41424, Note_on_c, 1, 34, 61
2, 41428, Control_c, 1, 64, 0
2, 41428, Control_c, 1, 64, 0
2, 41436, Note_off_c, 1, 90, 0
2, 41436, Control_c, 1, 64, 0
2, 41440, Note_on_c, 1, 90, 17
2, 41440, Note_on_c, 1, 88, 63
2, 41444, Note_on_c, 1, 82, 59
2, 41448, Note_on_c, 1, 94, 68
2, 41496, Control_c, 1, 64, 0
2, 41504, Note_off_c, 1, 34, 0
2, 41504, Control_c, 1, 64, 0
2, 41508, Control_c, 1, 64, 0
2, 41516, Note_off_c, 1, 94, 0
2, 41516, Control_c, 1, 64, 0
2, 41520, Note_off_c, 1, 88, 0
2, 41524, Control_c, 1, 64, 16
2, 41524, Control_c, 1, 64, 16
2, 41524, Control_c, 1, 64, 32
2, 41532, Note_off_c, 1, 90, 0
2, 41532, Control_c, 1, 64, 48
2, 41536, Note_off_c, 1, 82, 0
2, 41536, Control_c, 1, 64, 64
2, 41544, Control_c, 1, 64, 80
2, 41544, Control_c, 1, 64, 127
2, 41552, Control_c, 1, 64, 127
2, 41552, Control_c, 1, 64, 127
2, 41556, Control_c, 1, 64, 127
2, 41556, Control_c, 1, 64, 127
2, 41788, Note_on_c, 1, 56, 62
2, 41796, Control_c, 1, 64, 127
2, 41796, Note_on_c, 1, 59, 57
2, 41796, Note_on_c, 1, 67, 60
2, 41804, Control_c, 1, 64, 127
2, 41804, Note_on_c, 1, 62, 60
2, 41808, Control_c, 1, 64, 127
2, 41808, Control_c, 1, 64, 80
2, 41816, Control_c, 1, 64, 64
2, 41816, Control_c, 1, 64, 48
2, 41824, Control_c, 1, 64, 32
2, 41824, Control_c, 1, 64, 16
2, 41824, Control_c, 1, 64, 0
2, 41828, Control_c, 1, 64, 0
2, 41832, Control_c, 1, 64, 0
2, 41836, Control_c, 1, 64, 0
2, 41836, Control_c, 1, 64, 0
2, 41920, Note_on_c, 1, 79, 75
2, 41924, Control_c, 1, 64, 0
2, 41932, Control_c, 1, 64, 0
2, 41940, Control_c, 1, 64, 0
2, 41944, Control_c, 1, 64, 0
2, 41948, Control_c, 1, 64, 16
2, 41952, Control_c, 1, 64, 16
2, 41952, Control_c, 1, 64, 32
2, 41956, Control_c, 1, 64, 48
2, 41960, Control_c, 1, 64, 64
2, 41968, Control_c, 1, 64, 80
2, 41972, Control_c, 1, 64, 127
2, 41972, Control_c, 1, 64, 127
2, 41980, Control_c, 1, 64, 127
2, 41980, Control_c, 1, 64, 127
2, 41988, Control_c, 1, 64, 127
2, 42016, Note_off_c, 1, 62, 0
2, 42028, Note_on_c, 1, 77, 75
2, 42036, Note_off_c, 1, 67, 0
2, 42040, Note_on_c, 1, 82, 79
2, 42076, Note_off_c, 1, 79, 0
2, 42076, Note_off_c, 1, 56, 0
2, 42084, Note_off_c, 1, 77, 0
2, 42104, Note_off_c, 1, 82, 0
2, 42104, Note_off_c, 1, 59, 0
2, 42136, Control_c, 1, 64, 127
2, 42136, Control_c, 1, 64, 127
2, 42144, Control_c, 1, 64, 127
2, 42144, Control_c, 1, 64, 80
2, 42152, Control_c, 1, 64, 48
2, 42152, Control_c, 1, 64, 32
2, 42156, Control_c, 1, 64, 16
2, 42160, Control_c, 1, 64, 0
2, 42164, Control_c, 1, 64, 0
2, 42164, Control_c, 1, 64, 0
2, 42172, Control_c, 1, 64, 0
2, 42172, Control_c, 1, 64, 0
2, 42172, Note_on_c, 1, 65, 57
2, 42180, Note_on_c, 1, 55, 53
2, 42180, Note_on_c, 1, 61, 54
2, 42184, Note_on_c, 1, 71, 57
2, 42184, Note_on_c, 1, 79, 66
2, 42188, Note_on_c, 1, 75, 60
2, 42212, Control_c, 1, 64, 0
2, 42220, Control_c, 1, 64, 0
2, 42224, Control_c, 1, 64, 0
2, 42232, Note_off_c, 1, 55, 0
2, 42232, Control_c, 1, 64, 0
2, 42240, Control_c, 1, 64, 16
2, 42240, Control_c, 1, 64, 16
2, 42240, Control_c, 1, 64, 32
2, 42248, Note_off_c, 1, 61, 0
2, 42248, Control_c, 1, 64, 48
2, 42252, Control_c, 1, 64, 64
2, 42256, Control_c, 1, 64, 80
2, 42260, Note_off_c, 1, 71, 0
2, 42268, Control_c, 1, 64, 127
2, 42268, Control_c, 1, 64, 127
2, 42268, Control_c, 1, 64, 127
2, 42272, Control_c, 1, 64, 127
2, 42276, Note_off_c, 1, 65, 0
2, 42280, Note_off_c, 1, 79, 0
2, 42292, Note_off_c, 1, 75, 0
2, 42308, Control_c, 1, 64, 127
2, 42316, Control_c, 1, 64, 127
2, 42316, Control_c, 1, 64, 127
2, 42320, Control_c, 1, 64, 127
2, 42324, Control_c, 1, 64, 64
2, 42328, Control_c, 1, 64, 48
2, 42328, Control_c, 1, 64, 32
2, 42336, Control_c, 1, 64, 16
2, 42336, Control_c, 1, 64, 0
2, 42336, Control_c, 1, 64, 0
2, 42340, Control_c, 1, 64, 0
2, 42348, Control_c, 1, 64, 0
2, 42352, Note_on_c, 1, 49, 70
2, 42352, Control_c, 1, 64, 0
2, 42364, Note_on_c, 1, 82, 77
2, 42368, Control_c, 1, 64, 0
2, 42384, Control_c, 1, 64, 0
2, 42388, Note_on_c, 1, 70, 47
2, 42388, Control_c, 1, 64, 0
2, 42392, Note_on_c, 1, 80, 33
2, 42396, Control_c, 1, 64, 0
2, 42396, Control_c, 1, 64, 16
2, 42404, Control_c, 1, 64, 16
2, 42404, Control_c, 1, 64, 32
2, 42408, Control_c, 1, 64, 48
2, 42412, Control_c, 1, 64, 64
2, 42416, Control_c, 1, 64, 80
2, 42420, Note_off_c, 1, 70, 0
2, 42424, Control_c, 1, 64, 127
2, 42424, Control_c, 1, 64, 127
2, 42432, Note_off_c, 1, 80, 0
2, 42432, Control_c, 1, 64, 127
2, 42432, Control_c, 1, 64, 127
2, 42436, Note_off_c, 1, 82, 0
2, 42436, Control_c, 1, 64, 127
2, 42472, Note_off_c, 1, 49, 0
2, 42504, Control_c, 1, 64, 127
2, 42512, Control_c, 1, 64, 127
2, 42512, Control_c, 1, 64, 127
2, 42512, Control_c, 1, 64, 80
2, 42520, Control_c, 1, 64, 64
2, 42524, Control_c, 1, 64, 32
2, 42528, Control_c, 1, 64, 16
2, 42528, Control_c, 1, 64, 0
2, 42532, Control_c, 1, 64, 0
2, 42532, Control_c, 1, 64, 0
2, 42540, Control_c, 1, 64, 0
2, 42540, Control_c, 1, 64, 0
2, 42544, Note_on_c, 1, 58, 69
2, 42548, Note_on_c, 1, 80, 55
2, 42548, Note_on_c, 1, 64, 63
2, 42552, Note_on_c, 1, 73, 69
2, 42552, Note_on_c, 1, 85, 77
2, 42556, Note_on_c, 1, 48, 62
2, 42572, Control_c, 1, 64, 0
2, 42580, Control_c, 1, 64, 0
2, 42596, Note_off_c, 1, 64, 0
2, 42596, Control_c, 1, 64, 0
2, 42596, Control_c, 1, 64, 0
2, 42600, Control_c, 1, 64, 16
2, 42608, Control_c, 1, 64, 16
2, 42608, Control_c, 1, 64, 32
2, 42608, Control_c, 1, 64, 48
2, 42616, Control_c, 1, 64, 64
2, 42620, Control_c, 1, 64, 80
2, 42620, Control_c, 1, 64, 127
2, 42624, Note_off_c, 1, 58, 0
2, 42628, Control_c, 1, 64, 127
2, 42628, Control_c, 1, 64, 127
2, 42636, Note_off_c, 1, 48, 0
2, 42636, Control_c, 1, 64, 127
2, 42636, Control_c, 1, 64, 127
2, 42644, Note_off_c, 1, 73, 0
2, 42656, Note_off_c, 1, 85, 0
2, 42684, Note_off_c, 1, 80, 0
2, 42696, Control_c, 1, 64, 127
2, 42696, Control_c, 1, 64, 127
2, 42704, Control_c, 1, 64, 127
2, 42704, Control_c, 1, 64, 80
2, 42712, Control_c, 1, 64, 64
2, 42716, Control_c, 1, 64, 32
2, 42716, Control_c, 1, 64, 16
2, 42720, Control_c, 1, 64, 0
2, 42724, Control_c, 1, 64, 0
2, 42724, Control_c, 1, 64, 0
2, 42724, Control_c, 1, 64, 0
2, 42732, Control_c, 1, 64, 0
2, 42732, Note_on_c, 1, 52, 53
2, 42736, Note_on_c, 1, 58, 69
2, 42736, Note_on_c, 1, 42, 68
2, 42744, Note_on_c, 1, 84, 76
2, 42744, Note_on_c, 1, 72, 65
2, 42756, Control_c, 1, 64, 0
2, 42764, Control_c, 1, 64, 0
2, 42772, Control_c, 1, 64, 0
2, 42780, Control_c, 1, 64, 0
2, 42780, Control_c, 1, 64, 16
2, 42784, Note_off_c, 1, 72, 0
2, 42784, Control_c, 1, 64, 16
2, 42784, Control_c, 1, 64, 32
2, 42792, Note_off_c, 1, 84, 0
2, 42792, Control_c, 1, 64, 48
2, 42800, Control_c, 1, 64, 64
2, 42800, Control_c, 1, 64, 80
2, 42804, Control_c, 1, 64, 127
2, 42812, Control_c, 1, 64, 127
2, 42812, Control_c, 1, 64, 127
2, 42816, Control_c, 1, 64, 127
2, 42820, Note_off_c, 1, 58, 0
2, 42820, Control_c, 1, 64, 127
2, 42828, Note_off_c, 1, 52, 0
2, 42840, Note_off_c, 1, 42, 0
2, 42872, Control_c, 1, 64, 127
2, 42880, Control_c, 1, 64, 127
2, 42880, Control_c, 1, 64, 127
2, 42888, Control_c, 1, 64, 80
2, 42896, Control_c, 1, 64, 64
2, 42896, Control_c, 1, 64, 32
2, 42896, Control_c, 1, 64, 16
2, 42900, Control_c, 1, 64, 0
2, 42908, Control_c, 1, 64, 0
2, 42908, Control_c, 1, 64, 0
2, 42908, Control_c, 1, 64, 0
2, 42916, Control_c, 1, 64, 0
2, 42924, Note_on_c, 1, 67, 53
2, 42924, Note_on_c, 1, 51, 54
2, 42928, Note_on_c, 1, 57, 61
2, 42936, Note_on_c, 1, 41, 55
2, 42956, Note_on_c, 1, 69, 33
2, 42964, Control_c, 1, 64, 0
2, 42968, Control_c, 1, 64, 0
2, 42976, Control_c, 1, 64, 0
2, 42984, Note_off_c, 1, 69, 0
2, 42984, Control_c, 1, 64, 0
2, 42988, Control_c, 1, 64, 16
2, 42992, Control_c, 1, 64, 16
2, 42996, Control_c, 1, 64, 32
2, 42996, Control_c, 1, 64, 48
2, 43004, Note_off_c, 1, 67, 0
2, 43004, Control_c, 1, 64, 64
2, 43012, Control_c, 1, 64, 80
2, 43012, Control_c, 1, 64, 127
2, 43016, Control_c, 1, 64, 127
2, 43016, Control_c, 1, 64, 127
2, 43024, Control_c, 1, 64, 127
2, 43024, Control_c, 1, 64, 127
2, 43060, Control_c, 1, 64, 127
2, 43064, Control_c, 1, 64, 127
2, 43072, Control_c, 1, 64, 127
2, 43072, Control_c, 1, 64, 127
2, 43080, Control_c, 1, 64, 80
2, 43080, Control_c, 1, 64, 64
2, 43084, Control_c, 1, 64, 48
2, 43088, Control_c, 1, 64, 16
2, 43092, Control_c, 1, 64, 16
2, 43092, Control_c, 1, 64, 0
2, 43100, Control_c, 1, 64, 0
2, 43112, Note_on_c, 1, 65, 54
2, 43128, Note_off_c, 1, 41, 0
2, 43128, Note_off_c, 1, 51, 0
2, 43132, Control_c, 1, 64, 0
2, 43132, Control_c, 1, 64, 16
2, 43140, Control_c, 1, 64, 16
2, 43148, Note_off_c, 1, 65, 0
2, 43148, Control_c, 1, 64, 32
2, 43152, Control_c, 1, 64, 48
2, 43156, Control_c, 1, 64, 64
2, 43160, Note_off_c, 1, 57, 0
2, 43160, Control_c, 1, 64, 80
2, 43168, Control_c, 1, 64, 127
2, 43168, Control_c, 1, 64, 127
2, 43176, Control_c, 1, 64, 127
2, 43176, Control_c, 1, 64, 127
2, 43180, Control_c, 1, 64, 127
2, 43264, Control_c, 1, 64, 127
2, 43268, Control_c, 1, 64, 127
2, 43272, Control_c, 1, 64, 127
2, 43276, Control_c, 1, 64, 80
2, 43284, Control_c, 1, 64, 64
2, 43284, Control_c, 1, 64, 32
2, 43284, Control_c, 1, 64, 16
2, 43288, Control_c, 1, 64, 0
2, 43292, Control_c, 1, 64, 0
2, 43296, Note_on_c, 1, 67, 59
2, 43296, Control_c, 1, 64, 0
2, 43304, Note_on_c, 1, 56, 50
2, 43304, Control_c, 1, 64, 0
2, 43304, Control_c, 1, 64, 0
2, 43312, Note_on_c, 1, 70, 63
2, 43312, Note_on_c, 1, 60, 47
2, 43312, Note_on_c, 1, 46, 50
2, 43316, Note_on_c, 1, 62, 50
2, 43364, Note_off_c, 1, 67, 0
2, 43364, Control_c, 1, 64, 0
2, 43372, Control_c, 1, 64, 0
2, 43380, Control_c, 1, 64, 0
2, 43384, Control_c, 1, 64, 0
2, 43384, Control_c, 1, 64, 16
2, 43388, Control_c, 1, 64, 16
2, 43392, Control_c, 1, 64, 32
2, 43392, Control_c, 1, 64, 48
2, 43392, Control_c, 1, 64, 64
2, 43408, Control_c, 1, 64, 80
2, 43408, Control_c, 1, 64, 127
2, 43408, Control_c, 1, 64, 127
2, 43412, Control_c, 1, 64, 127
2, 43412, Control_c, 1, 64, 127
2, 43452, Control_c, 1, 64, 127
2, 43456, Note_off_c, 1, 60, 0
2, 43460, Note_off_c, 1, 70, 0
2, 43460, Control_c, 1, 64, 127
2, 43480, Note_off_c, 1, 56, 0
2, 43488, Note_on_c, 1, 65, 59
2, 43496, Note_on_c, 1, 68, 60
2, 43500, Note_off_c, 1, 46, 0
2, 43504, Control_c, 1, 64, 127
2, 43508, Control_c, 1, 64, 127
2, 43564, Note_off_c, 1, 65, 0
2, 43576, Note_off_c, 1, 62, 0
2, 43624, Note_off_c, 1, 68, 0
2, 43640, Control_c, 1, 64, 127
2, 43644, Control_c, 1, 64, 127
2, 43644, Control_c, 1, 64, 127
2, 43652, Control_c, 1, 64, 80
2, 43660, Control_c, 1, 64, 48
2, 43660, Control_c, 1, 64, 32
2, 43664, Control_c, 1, 64, 16
2, 43664, Control_c, 1, 64, 0
2, 43672, Control_c, 1, 64, 0
2, 43672, Control_c, 1, 64, 0
2, 43680, Control_c, 1, 64, 0
2, 43680, Control_c, 1, 64, 0
2, 43680, Note_on_c, 1, 46, 39
2, 43684, Note_on_c, 1, 67, 63
2, 43688, Note_on_c, 1, 60, 57
2, 43692, Note_on_c, 1, 39, 47
2, 43692, Note_on_c, 1, 70, 64
2, 43700, Note_on_c, 1, 63, 57
2, 43700, Note_on_c, 1, 55, 44
2, 43780, Control_c, 1, 64, 0
2, 43796, Control_c, 1, 64, 0
2, 43796, Control_c, 1, 64, 0
2, 43800, Control_c, 1, 64, 0
2, 43804, Control_c, 1, 64, 16
2, 43808, Control_c, 1, 64, 16
2, 43808, Control_c, 1, 64, 32
2, 43816, Control_c, 1, 64, 48
2, 43824, Control_c, 1, 64, 64
2, 43828, Control_c, 1, 64, 80
2, 43836, Control_c, 1, 64, 127
2, 43836, Control_c, 1, 64, 127
2, 43836, Control_c, 1, 64, 127
2, 43844, Control_c, 1, 64, 127
2, 43848, Control_c, 1, 64, 127
2, 43964, Note_off_c, 1, 67, 0
2, 43972, Note_off_c, 1, 70, 0
2, 43988, Note_off_c, 1, 63, 0
2, 44020, Control_c, 1, 64, 127
2, 44028, Control_c, 1, 64, 127
2, 44028, Control_c, 1, 64, 127
2, 44032, Control_c, 1, 64, 80
2, 44040, Control_c, 1, 64, 64
2, 44040, Control_c, 1, 64, 48
2, 44048, Control_c, 1, 64, 16
2, 44048, Control_c, 1, 64, 0
2, 44056, Control_c, 1, 64, 0
2, 44056, Control_c, 1, 64, 0
2, 44056, Control_c, 1, 64, 0
2, 44056, Control_c, 1, 64, 0
2, 44060, Note_on_c, 1, 67, 71
2, 44108, Note_off_c, 1, 60, 0
2, 44128, Note_off_c, 1, 67, 0
2, 44172, Control_c, 1, 64, 0
2, 44176, Control_c, 1, 64, 0
2, 44184, Control_c, 1, 64, 0
2, 44184, Note_on_c, 1, 63, 63
2, 44192, Control_c, 1, 64, 0
2, 44192, Control_c, 1, 64, 16
2, 44192, Control_c, 1, 64, 16
2, 44196, Control_c, 1, 64, 32
2, 44204, Control_c, 1, 64, 48
2, 44204, Control_c, 1, 64, 64
2, 44220, Note_off_c, 1, 39, 0
2, 44220, Control_c, 1, 64, 80
2, 44224, Control_c, 1, 64, 127
2, 44224, Control_c, 1, 64, 127
2, 44232, Note_off_c, 1, 63, 0
2, 44232, Control_c, 1, 64, 127
2, 44232, Control_c, 1, 64, 127
2, 44240, Control_c, 1, 64, 127
2, 44268, Note_off_c, 1, 55, 0
2, 44288, Note_on_c, 1, 62, 63
2, 44320, Control_c, 1, 64, 127
2, 44328, Control_c, 1, 64, 127
2, 44328, Control_c, 1, 64, 127
2, 44328, Control_c, 1, 64, 127
2, 44336, Control_c, 1, 64, 80
2, 44340, Control_c, 1, 64, 64
2, 44344, Note_off_c, 1, 46, 0
2, 44344, Control_c, 1, 64, 48
2, 44348, Control_c, 1, 64, 32
2, 44348, Control_c, 1, 64, 16
2, 44356, Control_c, 1, 64, 16
2, 44356, Control_c, 1, 64, 0
2, 44356, Control_c, 1, 64, 0
2, 44360, Control_c, 1, 64, 0
2, 44360, Control_c, 1, 64, 0
2, 44368, Note_off_c, 1, 62, 0
2, 44376, Control_c, 1, 64, 0
2, 44388, Control_c, 1, 64, 0
2, 44408, Control_c, 1, 64, 0
2, 44408, Control_c, 1, 64, 0
2, 44416, Note_on_c, 1, 49, 39
2, 44416, Note_on_c, 1, 55, 38
2, 44424, Control_c, 1, 64, 0
2, 44424, Note_on_c, 1, 40, 40
2, 44428, Control_c, 1, 64, 16
2, 44428, Note_on_c, 1, 61, 62
2, 44436, Control_c, 1, 64, 16
2, 44436, Control_c, 1, 64, 32
2, 44444, Control_c, 1, 64, 48
2, 44448, Control_c, 1, 64, 64
2, 44464, Control_c, 1, 64, 80
2, 44464, Control_c, 1, 64, 127
2, 44472, Note_off_c, 1, 61, 0
2, 44472, Control_c, 1, 64, 127
2, 44476, Control_c, 1, 64, 127
2, 44480, Note_off_c, 1, 40, 0
2, 44484, Control_c, 1, 64, 127
2, 44492, Control_c, 1, 64, 127
2, 44504, Note_off_c, 1, 55, 0
2, 44512, Note_off_c, 1, 49, 0
2, 44660, Note_on_c, 1, 70, 59
2, 44676, Note_on_c, 1, 72, 80
2, 44676, Note_on_c, 1, 61, 74
2, 44684, Note_on_c, 1, 52, 57
2, 44688, Note_on_c, 1, 66, 67
2, 44688, Note_on_c, 1, 36, 52
2, 44696, Control_c, 1, 64, 127
2, 44696, Control_c, 1, 64, 127
2, 44704, Note_on_c, 1, 58, 60
2, 44704, Control_c, 1, 64, 127
2, 44704, Control_c, 1, 64, 127
2, 44708, Control_c, 1, 64, 80
2, 44716, Control_c, 1, 64, 48
2, 44716, Control_c, 1, 64, 32
2, 44724, Note_off_c, 1, 70, 0
2, 44724, Control_c, 1, 64, 16
2, 44728, Control_c, 1, 64, 0
2, 44728, Control_c, 1, 64, 0
2, 44732, Control_c, 1, 64, 0
2, 44736, Control_c, 1, 64, 0
2, 44736, Control_c, 1, 64, 0
2, 44756, Note_off_c, 1, 58, 0
2, 44764, Note_on_c, 1, 58, 3
2, 44860, Control_c, 1, 64, 0
2, 44872, Control_c, 1, 64, 0
2, 44872, Control_c, 1, 64, 0
2, 44880, Control_c, 1, 64, 0
2, 44880, Control_c, 1, 64, 16
2, 44888, Control_c, 1, 64, 16
2, 44892, Control_c, 1, 64, 32
2, 44900, Control_c, 1, 64, 48
2, 44908, Control_c, 1, 64, 64
2, 44916, Control_c, 1, 64, 80
2, 44916, Control_c, 1, 64, 127
2, 44916, Control_c, 1, 64, 127
2, 44928, Control_c, 1, 64, 127
2, 44928, Control_c, 1, 64, 127
2, 44936, Control_c, 1, 64, 127
2, 44940, Note_off_c, 1, 58, 0
2, 44940, Note_off_c, 1, 36, 0
2, 44960, Note_off_c, 1, 61, 0
2, 44988, Note_off_c, 1, 66, 0
2, 44988, Note_off_c, 1, 72, 0
2, 45124, Control_c, 1, 64, 127
2, 45124, Control_c, 1, 64, 127
2, 45132, Note_off_c, 1, 52, 0
2, 45132, Control_c, 1, 64, 127
2, 45140, Control_c, 1, 64, 80
2, 45148, Control_c, 1, 64, 64
2, 45148, Control_c, 1, 64, 48
2, 45152, Control_c, 1, 64, 16
2, 45152, Control_c, 1, 64, 16
2, 45156, Control_c, 1, 64, 0
2, 45160, Control_c, 1, 64, 0
2, 45160, Control_c, 1, 64, 0
2, 45160, Control_c, 1, 64, 0
2, 45168, Control_c, 1, 64, 0
2, 45188, Note_on_c, 1, 41, 62
2, 45192, Note_on_c, 1, 67, 71
2, 45200, Note_on_c, 1, 72, 74
2, 45200, Note_on_c, 1, 60, 73
2, 45204, Note_on_c, 1, 63, 67
2, 45236, Note_off_c, 1, 60, 0
2, 45288, Note_on_c, 1, 48, 60
2, 45324, Control_c, 1, 64, 0
2, 45332, Note_off_c, 1, 63, 0
2, 45332, Control_c, 1, 64, 0
2, 45332, Control_c, 1, 64, 0
2, 45336, Control_c, 1, 64, 0
2, 45336, Control_c, 1, 64, 16
2, 45344, Control_c, 1, 64, 16
2, 45352, Control_c, 1, 64, 32
2, 45356, Control_c, 1, 64, 48
2, 45364, Control_c, 1, 64, 64
2, 45368, Control_c, 1, 64, 80
2, 45372, Control_c, 1, 64, 127
2, 45372, Control_c, 1, 64, 127
2, 45380, Control_c, 1, 64, 127
2, 45392, Control_c, 1, 64, 127
2, 45392, Control_c, 1, 64, 127
2, 45412, Note_off_c, 1, 41, 0
2, 45424, Note_on_c, 1, 56, 70
2, 45496, Note_off_c, 1, 48, 0
2, 45500, Note_off_c, 1, 56, 0
2, 45544, Note_off_c, 1, 72, 0
2, 45556, Control_c, 1, 67, 0
2, 45564, Control_c, 1, 64, 127
2, 45568, Control_c, 1, 64, 127
2, 45576, Note_on_c, 1, 43, 54
2, 45584, Control_c, 1, 64, 127
2, 45584, Control_c, 1, 64, 80
2, 45596, Control_c, 1, 64, 64
2, 45596, Control_c, 1, 64, 48
2, 45596, Control_c, 1, 64, 16
2, 45604, Control_c, 1, 64, 16
2, 45612, Note_on_c, 1, 45, 50
2, 45612, Control_c, 1, 64, 0
2, 45612, Control_c, 1, 64, 0
2, 45616, Control_c, 1, 64, 0
2, 45616, Control_c, 1, 64, 0
2, 45624, Control_c, 1, 64, 0
2, 45632, Note_off_c, 1, 45, 0
2, 45640, Control_c, 1, 67, 127
2, 45660, Note_off_c, 1, 67, 0
2, 45680, Note_on_c, 1, 51, 52
2, 45780, Note_on_c, 1, 65, 78
2, 45780, Note_on_c, 1, 70, 81
2, 45788, Control_c, 1, 64, 0
2, 45788, Note_on_c, 1, 58, 72
2, 45796, Control_c, 1, 64, 0
2, 45796, Control_c, 1, 64, 0
2, 45800, Control_c, 1, 64, 0
2, 45800, Control_c, 1, 64, 16
2, 45804, Control_c, 1, 64, 16
2, 45808, Control_c, 1, 64, 32
2, 45816, Note_off_c, 1, 43, 0
2, 45836, Control_c, 1, 64, 16
2, 45844, Control_c, 1, 64, 16
2, 45848, Control_c, 1, 64, 0
2, 45848, Control_c, 1, 64, 0
2, 45856, Control_c, 1, 64, 0
2, 45864, Note_off_c, 1, 51, 0
2, 45864, Control_c, 1, 64, 0
2, 45868, Note_off_c, 1, 65, 0
2, 45872, Note_off_c, 1, 58, 0
2, 45872, Control_c, 1, 64, 0
2, 45896, Note_off_c, 1, 70, 0
2, 45912, Note_on_c, 1, 44, 71
2, 46032, Note_on_c, 1, 54, 53
2, 46156, Note_on_c, 1, 59, 56
2, 46156, Note_on_c, 1, 70, 70
2, 46156, Note_on_c, 1, 63, 67
2, 46168, Control_c, 1, 64, 0
2, 46176, Control_c, 1, 64, 0
2, 46176, Control_c, 1, 64, 0
2, 46184, Control_c, 1, 64, 0
2, 46184, Control_c, 1, 64, 16
2, 46184, Control_c, 1, 64, 16
2, 46188, Control_c, 1, 64, 32
2, 46196, Note_off_c, 1, 44, 0
2, 46196, Control_c, 1, 64, 48
2, 46200, Control_c, 1, 64, 64
2, 46204, Control_c, 1, 64, 80
2, 46204, Control_c, 1, 64, 127
2, 46212, Control_c, 1, 64, 127
2, 46212, Control_c, 1, 64, 127
2, 46216, Control_c, 1, 64, 127
2, 46224, Note_off_c, 1, 54, 0
2, 46224, Control_c, 1, 64, 127
2, 46264, Note_off_c, 1, 59, 0
2, 46272, Note_off_c, 1, 63, 0
2, 46292, Control_c, 1, 64, 127
2, 46304, Control_c, 1, 64, 127
2, 46308, Note_on_c, 1, 46, 62
2, 46308, Control_c, 1, 64, 127
2, 46312, Control_c, 1, 64, 80
2, 46320, Control_c, 1, 64, 64
2, 46320, Note_on_c, 1, 56, 58
2, 46328, Control_c, 1, 64, 48
2, 46328, Control_c, 1, 64, 16
2, 46328, Control_c, 1, 64, 16
2, 46332, Control_c, 1, 64, 0
2, 46332, Control_c, 1, 64, 0
2, 46340, Control_c, 1, 64, 0
2, 46348, Control_c, 1, 64, 0
2, 46388, Note_off_c, 1, 70, 0
2, 46424, Note_on_c, 1, 62, 59
2, 46424, Note_on_c, 1, 67, 57
2, 46428, Note_on_c, 1, 59, 57
2, 46444, Control_c, 1, 64, 0
2, 46444, Control_c, 1, 64, 0
2, 46448, Control_c, 1, 64, 0
2, 46456, Control_c, 1, 64, 0
2, 46456, Control_c, 1, 64, 16
2, 46456, Control_c, 1, 64, 16
2, 46464, Control_c, 1, 64, 32
2, 46476, Control_c, 1, 64, 48
2, 46480, Note_off_c, 1, 56, 0
2, 46484, Control_c, 1, 64, 64
2, 46484, Control_c, 1, 64, 80
2, 46492, Control_c, 1, 64, 127
2, 46492, Control_c, 1, 64, 127
2, 46496, Control_c, 1, 64, 127
2, 46496, Control_c, 1, 64, 127
2, 46500, Control_c, 1, 64, 127
2, 46524, Note_off_c, 1, 46, 0
2, 46532, Note_off_c, 1, 59, 0
2, 46540, Note_off_c, 1, 62, 0
2, 46572, Note_off_c, 1, 67, 0
2, 46652, Control_c, 1, 64, 127
2, 46656, Control_c, 1, 64, 127
2, 46660, Control_c, 1, 64, 127
2, 46660, Control_c, 1, 64, 80
2, 46676, Control_c, 1, 64, 48
2, 46676, Control_c, 1, 64, 32
2, 46676, Control_c, 1, 64, 16
2, 46680, Control_c, 1, 64, 0
2, 46680, Control_c, 1, 64, 0
2, 46684, Control_c, 1, 64, 0
2, 46688, Control_c, 1, 64, 0
2, 46688, Control_c, 1, 64, 0
2, 46696, Note_on_c, 1, 65, 66
2, 46696, Note_on_c, 1, 58, 62
2, 46700, Note_on_c, 1, 53, 49
2, 46704, Note_on_c, 1, 60, 60
2, 46708, Note_on_c, 1, 43, 44
2, 46708, Note_on_c, 1, 70, 64
2, 46776, Control_c, 1, 64, 0
2, 46784, Control_c, 1, 64, 0
2, 46792, Note_off_c, 1, 60, 0
2, 46792, Control_c, 1, 64, 0
2, 46796, Note_off_c, 1, 65, 0
2, 46796, Control_c, 1, 64, 0
2, 46804, Note_off_c, 1, 43, 0
2, 46804, Control_c, 1, 64, 16
2, 46804, Control_c, 1, 64, 16
2, 46812, Control_c, 1, 64, 32
2, 46812, Control_c, 1, 64, 48
2, 46816, Control_c, 1, 64, 64
2, 46820, Note_off_c, 1, 53, 0
2, 46824, Note_off_c, 1, 70, 0
2, 46824, Control_c, 1, 64, 80
2, 46832, Control_c, 1, 64, 127
2, 46832, Control_c, 1, 64, 127
2, 46832, Control_c, 1, 64, 127
2, 46840, Control_c, 1, 64, 127
2, 46840, Control_c, 1, 64, 127
2, 46844, Note_off_c, 1, 58, 0
2, 47072, Control_c, 1, 64, 127
2, 47076, Control_c, 1, 64, 127
2, 47084, Note_on_c, 1, 55, 53
2, 47084, Note_on_c, 1, 62, 53
2, 47084, Note_on_c, 1, 65, 49
2, 47092, Control_c, 1, 64, 127
2, 47092, Note_on_c, 1, 58, 55
2, 47096, Control_c, 1, 64, 80
2, 47100, Control_c, 1, 64, 64
2, 47104, Note_on_c, 1, 70, 55
2, 47112, Control_c, 1, 64, 32
2, 47112, Control_c, 1, 64, 16
2, 47112, Control_c, 1, 64, 16
2, 47116, Control_c, 1, 64, 0
2, 47120, Control_c, 1, 64, 0
2, 47124, Control_c, 1, 64, 0
2, 47128, Note_off_c, 1, 70, 0
2, 47132, Control_c, 1, 64, 0
2, 47132, Control_c, 1, 64, 0
2, 47136, Note_off_c, 1, 65, 0
2, 47140, Note_off_c, 1, 62, 0
2, 47140, Note_on_c, 1, 72, 73
2, 47152, Note_off_c, 1, 58, 0
2, 47152, Note_off_c, 1, 55, 0
2, 47180, Note_off_c, 1, 72, 0
2, 47200, Note_on_c, 1, 70, 48
2, 47236, Note_off_c, 1, 70, 0
2, 47256, Note_on_c, 1, 72, 73
2, 47296, Note_off_c, 1, 72, 0
2, 47304, Control_c, 1, 64, 0
2, 47304, Note_on_c, 1, 58, 57
2, 47304, Control_c, 1, 64, 0
2, 47308, Control_c, 1, 64, 0
2, 47308, Control_c, 1, 64, 16
2, 47316, Control_c, 1, 64, 16
2, 47316, Control_c, 1, 64, 48
2, 47316, Control_c, 1, 64, 64
2, 47324, Note_on_c, 1, 70, 63
2, 47332, Control_c, 1, 64, 80
2, 47332, Control_c, 1, 64, 127
2, 47336, Control_c, 1, 64, 127
2, 47336, Control_c, 1, 64, 127
2, 47344, Note_off_c, 1, 70, 0
2, 47344, Control_c, 1, 64, 127
2, 47344, Control_c, 1, 64, 127
2, 47364, Note_on_c, 1, 72, 77
2, 47396, Control_c, 1, 64, 127
2, 47404, Control_c, 1, 64, 127
2, 47404, Control_c, 1, 64, 127
2, 47412, Control_c, 1, 64, 80
2, 47412, Control_c, 1, 64, 64
2, 47416, Control_c, 1, 64, 32
2, 47424, Note_off_c, 1, 58, 0
2, 47424, Control_c, 1, 64, 16
2, 47424, Control_c, 1, 64, 0
2, 47432, Control_c, 1, 64, 0
2, 47432, Note_on_c, 1, 70, 70
2, 47440, Note_off_c, 1, 72, 0
2, 47440, Control_c, 1, 64, 0
2, 47440, Control_c, 1, 64, 0
2, 47444, Control_c, 1, 64, 0
2, 47480, Note_on_c, 1, 42, 70
2, 47492, Note_on_c, 1, 69, 68
2, 47496, Note_off_c, 1, 70, 0
2, 47556, Note_off_c, 1, 69, 0
2, 47672, Note_off_c, 1, 42, 0
2, 47672, Control_c, 1, 64, 0
2, 47676, Control_c, 1, 64, 0
2, 47680, Note_on_c, 1, 69, 74
2, 47684, Control_c, 1, 64, 0
2, 47688, Note_on_c, 1, 64, 70
2, 47692, Note_on_c, 1, 58, 74
2, 47692, Control_c, 1, 64, 16
2, 47692, Note_on_c, 1, 75, 77
2, 47700, Control_c, 1, 64, 16
2, 47700, Control_c, 1, 64, 32
2, 47700, Control_c, 1, 64, 48
2, 47704, Control_c, 1, 64, 64
2, 47712, Control_c, 1, 64, 80
2, 47712, Control_c, 1, 64, 127
2, 47712, Control_c, 1, 64, 127
2, 47720, Control_c, 1, 64, 127
2, 47724, Control_c, 1, 64, 127
2, 47724, Control_c, 1, 64, 127
2, 47768, Note_off_c, 1, 58, 0
2, 47772, Note_off_c, 1, 64, 0
2, 47780, Note_off_c, 1, 69, 0
2, 47848, Control_c, 1, 64, 127
2, 47848, Control_c, 1, 64, 127
2, 47856, Note_on_c, 1, 57, 64
2, 47856, Control_c, 1, 64, 127
2, 47860, Control_c, 1, 64, 80
2, 47864, Control_c, 1, 64, 64
2, 47868, Control_c, 1, 64, 48
2, 47868, Control_c, 1, 64, 32
2, 47876, Note_on_c, 1, 68, 63
2, 47876, Note_on_c, 1, 63, 56
2, 47876, Control_c, 1, 64, 16
2, 47884, Control_c, 1, 64, 0
2, 47884, Control_c, 1, 64, 0
2, 47888, Control_c, 1, 64, 0
2, 47888, Control_c, 1, 64, 0
2, 47892, Control_c, 1, 64, 0
2, 47992, Note_off_c, 1, 63, 0
2, 48000, Note_off_c, 1, 68, 0
2, 48004, Note_off_c, 1, 75, 0
2, 48032, Control_c, 1, 64, 0
2, 48040, Control_c, 1, 64, 0
2, 48040, Control_c, 1, 64, 0
2, 48044, Control_c, 1, 64, 0
2, 48048, Control_c, 1, 64, 16
2, 48052, Note_on_c, 1, 47, 45
2, 48052, Control_c, 1, 64, 32
2, 48060, Control_c, 1, 64, 48
2, 48068, Control_c, 1, 64, 64
2, 48068, Note_on_c, 1, 72, 61
2, 48072, Control_c, 1, 64, 127
2, 48072, Control_c, 1, 64, 127
2, 48080, Control_c, 1, 64, 127
2, 48080, Control_c, 1, 64, 127
2, 48080, Control_c, 1, 64, 127
2, 48088, Note_off_c, 1, 47, 0
2, 48116, Note_off_c, 1, 57, 0
2, 48196, Control_c, 1, 64, 127
2, 48196, Control_c, 1, 64, 127
2, 48204, Control_c, 1, 64, 127
2, 48208, Control_c, 1, 64, 80
2, 48216, Control_c, 1, 64, 64
2, 48216, Control_c, 1, 64, 32
2, 48216, Control_c, 1, 64, 16
2, 48224, Control_c, 1, 64, 16
2, 48224, Control_c, 1, 64, 0
2, 48232, Control_c, 1, 64, 0
2, 48232, Control_c, 1, 64, 0
2, 48232, Note_on_c, 1, 41, 59
2, 48236, Note_on_c, 1, 68, 66
2, 48236, Control_c, 1, 64, 0
2, 48240, Note_on_c, 1, 56, 60
2, 48244, Note_on_c, 1, 75, 71
2, 48244, Control_c, 1, 64, 0
2, 48252, Note_on_c, 1, 67, 59
2, 48324, Control_c, 1, 64, 0
2, 48340, Control_c, 1, 64, 0
2, 48340, Control_c, 1, 64, 0
2, 48348, Note_off_c, 1, 41, 0
2, 48348, Control_c, 1, 64, 0
2, 48348, Control_c, 1, 64, 16
2, 48352, Control_c, 1, 64, 16
2, 48352, Control_c, 1, 64, 32
2, 48360, Control_c, 1, 64, 48
2, 48368, Control_c, 1, 64, 64
2, 48376, Control_c, 1, 64, 80
2, 48380, Control_c, 1, 64, 127
2, 48380, Control_c, 1, 64, 127
2, 48388, Control_c, 1, 64, 127
2, 48392, Control_c, 1, 64, 127
2, 48396, Note_off_c, 1, 56, 0
2, 48396, Control_c, 1, 64, 127
2, 48428, Note_off_c, 1, 75, 0
2, 48440, Note_off_c, 1, 68, 0
2, 48448, Note_off_c, 1, 67, 0
2, 48456, Note_off_c, 1, 72, 0
2, 48564, Control_c, 1, 64, 127
2, 48564, Control_c, 1, 64, 127
2, 48572, Control_c, 1, 64, 127
2, 48572, Control_c, 1, 64, 80
2, 48580, Control_c, 1, 64, 64
2, 48584, Control_c, 1, 64, 32
2, 48584, Control_c, 1, 64, 16
2, 48592, Control_c, 1, 64, 0
2, 48592, Control_c, 1, 64, 0
2, 48592, Control_c, 1, 64, 0
2, 48600, Control_c, 1, 64, 0
2, 48600, Control_c, 1, 64, 0
2, 48604, Note_on_c, 1, 56, 55
2, 48604, Note_on_c, 1, 58, 52
2, 48612, Note_on_c, 1, 63, 52
2, 48612, Note_on_c, 1, 60, 49
2, 48620, Note_on_c, 1, 65, 43
2, 48708, Control_c, 1, 64, 0
2, 48716, Control_c, 1, 64, 0
2, 48720, Note_off_c, 1, 65, 0
2, 48720, Control_c, 1, 64, 0
2, 48728, Control_c, 1, 64, 0
2, 48736, Note_off_c, 1, 63, 0
2, 48736, Control_c, 1, 64, 16
2, 48740, Control_c, 1, 64, 16
2, 48744, Note_off_c, 1, 60, 0
2, 48744, Control_c, 1, 64, 32
2, 48748, Control_c, 1, 64, 48
2, 48752, Note_off_c, 1, 58, 0
2, 48752, Control_c, 1, 64, 64
2, 48756, Control_c, 1, 64, 80
2, 48764, Note_off_c, 1, 56, 0
2, 48764, Control_c, 1, 64, 127
2, 48768, Control_c, 1, 64, 127
2, 48768, Control_c, 1, 64, 127
2, 48776, Control_c, 1, 64, 127
2, 48776, Control_c, 1, 64, 127
2, 48836, Note_on_c, 1, 71, 69
2, 48844, Note_on_c, 1, 68, 66
2, 48844, Note_on_c, 1, 67, 68
2, 48848, Note_on_c, 1, 74, 71
2, 48912, Control_c, 1, 64, 127
2, 48912, Control_c, 1, 64, 127
2, 48920, Control_c, 1, 64, 127
2, 48920, Control_c, 1, 64, 127
2, 48928, Control_c, 1, 64, 64
2, 48928, Control_c, 1, 64, 48
2, 48932, Control_c, 1, 64, 16
2, 48932, Control_c, 1, 64, 16
2, 48940, Control_c, 1, 64, 0
2, 48940, Control_c, 1, 64, 0
2, 48940, Control_c, 1, 64, 0
2, 48948, Control_c, 1, 64, 0
2, 48948, Control_c, 1, 64, 0
2, 48996, Note_on_c, 1, 34, 47
2, 48996, Control_c, 1, 64, 0
2, 49000, Control_c, 1, 64, 0
2, 49016, Control_c, 1, 64, 0
2, 49020, Control_c, 1, 64, 0
2, 49024, Control_c, 1, 64, 16
2, 49024, Control_c, 1, 64, 16
2, 49028, Control_c, 1, 64, 32
2, 49036, Control_c, 1, 64, 48
2, 49036, Control_c, 1, 64, 64
2, 49044, Control_c, 1, 64, 80
2, 49048, Control_c, 1, 64, 127
2, 49048, Control_c, 1, 64, 127
2, 49052, Control_c, 1, 64, 127
2, 49056, Control_c, 1, 64, 127
2, 49064, Control_c, 1, 64, 127
2, 49084, Note_off_c, 1, 34, 0
2, 49104, Note_off_c, 1, 68, 0
2, 49132, Note_off_c, 1, 71, 0
2, 49152, Note_off_c, 1, 67, 0
2, 49212, Note_off_c, 1, 74, 0
2, 49212, Note_on_c, 1, 68, 63
2, 49240, Note_off_c, 1, 68, 0
2, 49268, Note_on_c, 1, 71, 72
2, 49308, Note_on_c, 1, 70, 78
2, 49336, Note_off_c, 1, 71, 0
2, 49364, Note_on_c, 1, 59, 57
2, 49364, Control_c, 1, 64, 127
2, 49368, Note_on_c, 1, 56, 56
2, 49368, Control_c, 1, 64, 127
2, 49376, Note_on_c, 1, 62, 54
2, 49376, Control_c, 1, 64, 127
2, 49376, Note_on_c, 1, 65, 52
2, 49384, Control_c, 1, 64, 80
2, 49392, Control_c, 1, 64, 48
2, 49392, Control_c, 1, 64, 32
2, 49396, Note_on_c, 1, 69, 73
2, 49396, Control_c, 1, 64, 0
2, 49404, Control_c, 1, 64, 0
2, 49404, Control_c, 1, 64, 0
2, 49404, Control_c, 1, 64, 0
2, 49412, Control_c, 1, 64, 0
2, 49416, Note_off_c, 1, 70, 0
2, 49452, Note_off_c, 1, 69, 0
2, 49472, Note_on_c, 1, 70, 85
2, 49492, Control_c, 1, 64, 0
2, 49500, Note_off_c, 1, 65, 0
2, 49500, Control_c, 1, 64, 0
2, 49512, Note_off_c, 1, 62, 0
2, 49512, Control_c, 1, 64, 0
2, 49512, Control_c, 1, 64, 16
2, 49520, Note_off_c, 1, 59, 0
2, 49520, Control_c, 1, 64, 16
2, 49528, Control_c, 1, 64, 32
2, 49532, Control_c, 1, 64, 48
2, 49540, Control_c, 1, 64, 64
2, 49544, Control_c, 1, 64, 80
2, 49548, Control_c, 1, 64, 127
2, 49548, Control_c, 1, 64, 127
2, 49552, Control_c, 1, 64, 127
2, 49556, Note_off_c, 1, 56, 0
2, 49556, Control_c, 1, 64, 127
2, 49560, Control_c, 1, 64, 127
2, 49576, Note_on_c, 1, 69, 69
2, 49580, Note_off_c, 1, 70, 0
2, 49644, Note_off_c, 1, 69, 0
2, 49664, Note_on_c, 1, 70, 78
2, 49676, Control_c, 1, 64, 127
2, 49684, Control_c, 1, 64, 127
2, 49692, Control_c, 1, 64, 127
2, 49692, Control_c, 1, 64, 80
2, 49696, Control_c, 1, 64, 48
2, 49696, Control_c, 1, 64, 16
2, 49704, Control_c, 1, 64, 0
2, 49704, Control_c, 1, 64, 0
2, 49712, Control_c, 1, 64, 0
2, 49712, Control_c, 1, 64, 0
2, 49712, Control_c, 1, 64, 0
2, 49716, Note_off_c, 1, 70, 0
2, 49732, Note_on_c, 1, 61, 62
2, 49732, Note_on_c, 1, 46, 61
2, 49732, Note_on_c, 1, 56, 57
2, 49744, Note_on_c, 1, 77, 80
2, 49752, Note_on_c, 1, 72, 69
2, 49760, Note_on_c, 1, 65, 69
2, 49848, Control_c, 1, 64, 0
2, 49856, Control_c, 1, 64, 0
2, 49856, Control_c, 1, 64, 0
2, 49860, Control_c, 1, 64, 0
2, 49860, Control_c, 1, 64, 16
2, 49864, Control_c, 1, 64, 32
2, 49868, Control_c, 1, 64, 48
2, 49868, Control_c, 1, 64, 64
2, 49876, Control_c, 1, 64, 80
2, 49880, Control_c, 1, 64, 127
2, 49880, Control_c, 1, 64, 127
2, 49884, Control_c, 1, 64, 127
2, 49888, Control_c, 1, 64, 127
2, 49888, Control_c, 1, 64, 127
2, 49916, Note_off_c, 1, 56, 0
2, 49928, Note_off_c, 1, 61, 0
2, 49936, Note_on_c, 1, 53, 52
2, 49944, Note_off_c, 1, 72, 0
2, 49944, Note_off_c, 1, 77, 0
2, 49992, Control_c, 1, 64, 127
2, 49996, Control_c, 1, 64, 127
2, 50004, Control_c, 1, 64, 127
2, 50012, Control_c, 1, 64, 80
2, 50012, Control_c, 1, 64, 64
2, 50016, Note_off_c, 1, 65, 0
2, 50020, Control_c, 1, 64, 48
2, 50024, Control_c, 1, 64, 16
2, 50024, Control_c, 1, 64, 16
2, 50032, Control_c, 1, 64, 0
2, 50032, Control_c, 1, 64, 0
2, 50032, Control_c, 1, 64, 0
2, 50040, Control_c, 1, 64, 0
2, 50040, Control_c, 1, 64, 0
2, 50100, Note_off_c, 1, 53, 0
2, 50108, Note_on_c, 1, 56, 60
2, 50120, Note_on_c, 1, 77, 71
2, 50120, Note_on_c, 1, 65, 62
2, 50128, Note_on_c, 1, 72, 72
2, 50160, Control_c, 1, 64, 0
2, 50164, Note_off_c, 1, 77, 0
2, 50168, Note_off_c, 1, 72, 0
2, 50168, Control_c, 1, 64, 0
2, 50176, Control_c, 1, 64, 0
2, 50180, Control_c, 1, 64, 0
2, 50184, Control_c, 1, 64, 16
2, 50188, Note_off_c, 1, 65, 0
2, 50188, Control_c, 1, 64, 16
2, 50188, Control_c, 1, 64, 32
2, 50196, Control_c, 1, 64, 48
2, 50200, Control_c, 1, 64, 64
2, 50208, Control_c, 1, 64, 80
2, 50212, Control_c, 1, 64, 127
2, 50216, Control_c, 1, 64, 127
2, 50216, Control_c, 1, 64, 127
2, 50224, Control_c, 1, 64, 127
2, 50224, Control_c, 1, 64, 127
2, 50340, Note_off_c, 1, 56, 0
2, 50352, Note_on_c, 1, 72, 57
2, 50360, Note_on_c, 1, 65, 60
2, 50360, Note_on_c, 1, 55, 57
2, 50364, Note_on_c, 1, 61, 60
2, 50372, Note_on_c, 1, 75, 70
2, 50372, Control_c, 1, 64, 127
2, 50372, Control_c, 1, 64, 127
2, 50380, Control_c, 1, 64, 127
2, 50388, Control_c, 1, 64, 80
2, 50388, Control_c, 1, 64, 48
2, 50392, Control_c, 1, 64, 32
2, 50396, Note_off_c, 1, 46, 0
2, 50400, Control_c, 1, 64, 16
2, 50400, Control_c, 1, 64, 0
2, 50400, Control_c, 1, 64, 0
2, 50408, Control_c, 1, 64, 0
2, 50408, Control_c, 1, 64, 0
2, 50412, Control_c, 1, 64, 0
2, 50504, Control_c, 1, 64, 0
2, 50508, Control_c, 1, 64, 0
2, 50508, Control_c, 1, 64, 0
2, 50516, Control_c, 1, 64, 0
2, 50524, Control_c, 1, 64, 16
2, 50524, Control_c, 1, 64, 16
2, 50524, Control_c, 1, 64, 32
2, 50528, Control_c, 1, 64, 48
2, 50536, Control_c, 1, 64, 64
2, 50540, Note_off_c, 1, 61, 0
2, 50544, Control_c, 1, 64, 80
2, 50548, Control_c, 1, 64, 127
2, 50552, Control_c, 1, 64, 127
2, 50556, Control_c, 1, 64, 127
2, 50556, Control_c, 1, 64, 127
2, 50560, Control_c, 1, 64, 127
2, 50564, Note_off_c, 1, 65, 0
2, 50572, Note_off_c, 1, 72, 0
2, 50584, Note_off_c, 1, 75, 0
2, 50756, Note_on_c, 1, 39, 51
2, 50788, Note_off_c, 1, 39, 0
2, 50904, Control_c, 1, 64, 127
2, 50912, Control_c, 1, 64, 127
2, 50920, Control_c, 1, 64, 127
2, 50920, Control_c, 1, 64, 80
2, 50924, Control_c, 1, 64, 64
2, 50932, Control_c, 1, 64, 32
2, 50932, Note_on_c, 1, 67, 63
2, 50932, Control_c, 1, 64, 16
2, 50940, Control_c, 1, 64, 0
2, 50940, Control_c, 1, 64, 0
2, 50940, Control_c, 1, 64, 0
2, 50944, Control_c, 1, 64, 0
2, 50948, Control_c, 1, 64, 0
2, 51008, Note_off_c, 1, 55, 0
2, 51008, Note_on_c, 1, 68, 59
2, 51020, Note_off_c, 1, 67, 0
2, 51036, Note_off_c, 1, 68, 0
2, 51040, Control_c, 1, 64, 0
2, 51048, Control_c, 1, 64, 0
2, 51048, Control_c, 1, 64, 0
2, 51056, Control_c, 1, 64, 16
2, 51056, Control_c, 1, 64, 16
2, 51056, Control_c, 1, 64, 32
2, 51060, Control_c, 1, 64, 64
2, 51068, Control_c, 1, 64, 80
2, 51068, Control_c, 1, 64, 127
2, 51072, Control_c, 1, 64, 127
2, 51076, Control_c, 1, 64, 127
2, 51076, Control_c, 1, 64, 127
2, 51084, Control_c, 1, 64, 127
2, 51084, Note_on_c, 1, 72, 77
2, 51088, Note_on_c, 1, 74, 70
2, 51104, Note_off_c, 1, 74, 0
2, 51156, Control_c, 1, 64, 127
2, 51164, Note_off_c, 1, 72, 0
2, 51164, Control_c, 1, 64, 127
2, 51164, Control_c, 1, 64, 127
2, 51172, Control_c, 1, 64, 80
2, 51176, Control_c, 1, 64, 48
2, 51180, Control_c, 1, 64, 16
2, 51184, Control_c, 1, 64, 0
2, 51184, Control_c, 1, 64, 0
2, 51184, Control_c, 1, 64, 0
2, 51192, Control_c, 1, 64, 0
2, 51192, Note_on_c, 1, 67, 78
2, 51240, Note_on_c, 1, 55, 54
2, 51248, Note_off_c, 1, 67, 0
2, 51252, Note_on_c, 1, 44, 47
2, 51260, Note_on_c, 1, 60, 59
2, 51288, Note_on_c, 1, 70, 77
2, 51388, Note_on_c, 1, 68, 74
2, 51404, Note_off_c, 1, 70, 0
2, 51436, Note_off_c, 1, 68, 0
2, 51480, Note_on_c, 1, 67, 55
2, 51520, Note_off_c, 1, 67, 0
2, 51560, Note_on_c, 1, 68, 60
2, 51636, Note_off_c, 1, 68, 0
2, 51644, Note_on_c, 1, 72, 68
2, 51712, Note_off_c, 1, 44, 0
2, 51716, Note_off_c, 1, 55, 0
2, 51732, Note_off_c, 1, 72, 0
2, 51732, Control_c, 1, 64, 0
2, 51736, Control_c, 1, 64, 0
2, 51740, Control_c, 1, 64, 0
2, 51744, Note_off_c, 1, 60, 0
2, 51752, Note_on_c, 1, 75, 67
2, 51752, Control_c, 1, 64, 0
2, 51752, Control_c, 1, 64, 16
2, 51756, Control_c, 1, 64, 16
2, 51756, Control_c, 1, 64, 32
2, 51764, Control_c, 1, 64, 48
2, 51768, Note_off_c, 1, 75, 0
2, 51772, Control_c, 1, 64, 64
2, 51780, Control_c, 1, 64, 80
2, 51780, Control_c, 1, 64, 127
2, 51784, Control_c, 1, 64, 127
2, 51784, Control_c, 1, 64, 127
2, 51788, Control_c, 1, 64, 127
2, 51792, Control_c, 1, 64, 127
2, 51820, Note_on_c, 1, 79, 85
2, 51824, Control_c, 1, 67, 0
2, 51896, Note_off_c, 1, 79, 0
2, 51900, Control_c, 1, 64, 127
2, 51908, Control_c, 1, 64, 127
2, 51916, Control_c, 1, 64, 127
2, 51916, Control_c, 1, 64, 80
2, 51928, Control_c, 1, 64, 48
2, 51928, Control_c, 1, 67, 127
2, 51936, Control_c, 1, 64, 16
2, 51940, Control_c, 1, 64, 0
2, 51944, Control_c, 1, 64, 0
2, 51948, Control_c, 1, 64, 0
2, 51956, Control_c, 1, 64, 0
2, 51964, Note_on_c, 1, 82, 88
2, 51968, Note_on_c, 1, 59, 61
2, 51976, Note_on_c, 1, 65, 60
2, 51988, Note_on_c, 1, 49, 48
2, 52012, Note_on_c, 1, 80, 76
2, 52024, Note_off_c, 1, 82, 0
2, 52064, Note_off_c, 1, 80, 0
2, 52112, Note_on_c, 1, 75, 73
2, 52152, Note_off_c, 1, 75, 0
2, 52196, Note_on_c, 1, 71, 56
2, 52228, Note_off_c, 1, 71, 0
2, 52288, Note_on_c, 1, 70, 69
2, 52336, Note_off_c, 1, 70, 0
2, 52384, Note_on_c, 1, 68, 54
2, 52420, Note_off_c, 1, 68, 0
2, 52476, Note_off_c, 1, 65, 0
2, 52476, Note_off_c, 1, 59, 0
2, 52480, Note_on_c, 1, 70, 75
2, 52528, Note_off_c, 1, 70, 0
2, 52528, Note_off_c, 1, 49, 0
2, 52536, Control_c, 1, 64, 0
2, 52536, Control_c, 1, 64, 0
2, 52544, Control_c, 1, 64, 0
2, 52544, Control_c, 1, 64, 16
2, 52544, Control_c, 1, 64, 16
2, 52548, Control_c, 1, 64, 32
2, 52556, Control_c, 1, 64, 48
2, 52564, Note_on_c, 1, 75, 78
2, 52584, Control_c, 1, 64, 32
2, 52584, Control_c, 1, 64, 16
2, 52592, Control_c, 1, 64, 16
2, 52592, Control_c, 1, 64, 0
2, 52596, Control_c, 1, 64, 0
2, 52604, Control_c, 1, 64, 0
2, 52612, Control_c, 1, 64, 0
2, 52624, Control_c, 1, 64, 0
2, 52640, Note_off_c, 1, 75, 0
2, 52684, Note_on_c, 1, 68, 62
2, 52712, Note_on_c, 1, 53, 63
2, 52720, Note_off_c, 1, 68, 0
2, 52728, Note_on_c, 1, 43, 66
2, 52728, Note_on_c, 1, 59, 58
2, 52788, Note_on_c, 1, 67, 60
2, 52848, Note_off_c, 1, 43, 0
2, 52876, Note_on_c, 1, 79, 94
2, 52896, Note_off_c, 1, 67, 0
2, 52960, Note_off_c, 1, 59, 0
2, 52980, Note_off_c, 1, 79, 0
2, 52980, Note_on_c, 1, 67, 74
2, 53020, Note_off_c, 1, 53, 0
2, 53060, Note_on_c, 1, 66, 80
2, 53076, Note_off_c, 1, 67, 0
2, 53104, Note_on_c, 1, 58, 62
2, 53116, Note_on_c, 1, 52, 52
2, 53116, Note_on_c, 1, 48, 44
2, 53124, Note_off_c, 1, 66, 0
2, 53144, Note_on_c, 1, 78, 84
2, 53240, Note_off_c, 1, 78, 0
2, 53240, Note_on_c, 1, 66, 63
2, 53300, Note_off_c, 1, 52, 0
2, 53312, Note_off_c, 1, 48, 0
2, 53328, Note_on_c, 1, 65, 51
2, 53336, Note_off_c, 1, 66, 0
2, 53368, Note_off_c, 1, 58, 0
2, 53376, Note_off_c, 1, 65, 0
2, 53428, Note_on_c, 1, 77, 89
2, 53484, Note_on_c, 1, 51, 53
2, 53484, Note_on_c, 1, 41, 56
2, 53492, Note_on_c, 1, 57, 54
2, 53496, Note_off_c, 1, 77, 0
2, 53512, Note_on_c, 1, 65, 64
2, 53552, Note_off_c, 1, 65, 0
2, 53592, Note_on_c, 1, 77, 67
2, 53668, Note_off_c, 1, 77, 0
2, 53676, Note_on_c, 1, 65, 66
2, 53688, Note_off_c, 1, 41, 0
2, 53716, Note_off_c, 1, 51, 0
2, 53724, Note_off_c, 1, 65, 0
2, 53784, Note_on_c, 1, 63, 70
2, 53812, Note_off_c, 1, 57, 0
2, 53824, Note_off_c, 1, 63, 0
2, 53840, Note_on_c, 1, 56, 49
2, 53844, Note_on_c, 1, 46, 42
2, 53872, Note_on_c, 1, 62, 62
2, 54052, Note_on_c, 1, 74, 84
2, 54076, Note_off_c, 1, 46, 0
2, 54084, Control_c, 1, 64, 0
2, 54092, Control_c, 1, 64, 0
2, 54092, Control_c, 1, 64, 0
2, 54100, Control_c, 1, 64, 0
2, 54100, Control_c, 1, 64, 16
2, 54104, Control_c, 1, 64, 16
2, 54108, Note_off_c, 1, 56, 0
2, 54112, Control_c, 1, 64, 32
2, 54112, Control_c, 1, 64, 48
2, 54120, Control_c, 1, 64, 64
2, 54128, Control_c, 1, 64, 80
2, 54128, Control_c, 1, 64, 127
2, 54132, Control_c, 1, 64, 127
2, 54132, Control_c, 1, 64, 127
2, 54140, Note_off_c, 1, 74, 0
2, 54140, Control_c, 1, 64, 127
2, 54140, Control_c, 1, 64, 127
2, 54152, Note_off_c, 1, 62, 0
2, 54152, Note_on_c, 1, 66, 49
2, 54172, Note_off_c, 1, 66, 0
2, 54180, Control_c, 1, 64, 127
2, 54180, Control_c, 1, 64, 127
2, 54180, Control_c, 1, 64, 127
2, 54188, Control_c, 1, 64, 80
2, 54192, Control_c, 1, 64, 48
2, 54196, Control_c, 1, 64, 32
2, 54196, Control_c, 1, 64, 16
2, 54200, Control_c, 1, 64, 0
2, 54208, Note_on_c, 1, 46, 27
2, 54208, Control_c, 1, 64, 0
2, 54208, Control_c, 1, 64, 0
2, 54216, Control_c, 1, 64, 0
2, 54236, Note_on_c, 1, 39, 56
2, 54236, Note_on_c, 1, 67, 68
2, 54240, Note_on_c, 1, 70, 53
2, 54244, Note_on_c, 1, 55, 44
2, 54248, Note_off_c, 1, 46, 0
2, 54248, Note_on_c, 1, 75, 68
2, 54256, Note_on_c, 1, 63, 46
2, 54284, Note_off_c, 1, 63, 0
2, 54288, Control_c, 1, 64, 0
2, 54304, Note_off_c, 1, 55, 0
2, 54304, Note_off_c, 1, 67, 0
2, 54304, Control_c, 1, 64, 0
2, 54308, Note_off_c, 1, 39, 0
2, 54316, Control_c, 1, 64, 0
2, 54316, Control_c, 1, 64, 0
2, 54320, Note_off_c, 1, 70, 0
2, 54324, Control_c, 1, 64, 16
2, 54324, Control_c, 1, 64, 16
2, 54324, Control_c, 1, 64, 32
2, 54332, Note_off_c, 1, 75, 0
2, 54332, Control_c, 1, 64, 48
2, 54332, Control_c, 1, 64, 64
2, 54336, Control_c, 1, 64, 80
2, 54344, Control_c, 1, 64, 127
2, 54344, Control_c, 1, 64, 127
2, 54352, Control_c, 1, 64, 127
2, 54352, Control_c, 1, 64, 127
2, 54356, Control_c, 1, 64, 127
2, 54384, Control_c, 1, 64, 127
2, 54392, Control_c, 1, 64, 127
2, 54400, Control_c, 1, 64, 80
2, 54400, Control_c, 1, 64, 64
2, 54404, Control_c, 1, 64, 32
2, 54404, Control_c, 1, 64, 16
2, 54412, Control_c, 1, 64, 0
2, 54412, Control_c, 1, 64, 0
2, 54412, Control_c, 1, 64, 0
2, 54420, Control_c, 1, 64, 0
2, 54432, Note_on_c, 1, 37, 49
2, 54440, Note_on_c, 1, 53, 51
2, 54480, Control_c, 1, 64, 0
2, 54488, Control_c, 1, 64, 0
2, 54488, Control_c, 1, 64, 0
2, 54492, Control_c, 1, 64, 0
2, 54500, Control_c, 1, 64, 16
2, 54500, Control_c, 1, 64, 16
2, 54508, Control_c, 1, 64, 32
2, 54508, Control_c, 1, 64, 48
2, 54508, Control_c, 1, 64, 64
2, 54516, Control_c, 1, 64, 80
2, 54520, Control_c, 1, 64, 127
2, 54520, Control_c, 1, 64, 127
2, 54524, Control_c, 1, 64, 127
2, 54528, Note_off_c, 1, 53, 0
2, 54536, Control_c, 1, 64, 127
2, 54536, Control_c, 1, 64, 127
2, 54548, Note_off_c, 1, 37, 0
2, 54564, Control_c, 1, 64, 127
2, 54568, Control_c, 1, 64, 127
2, 54568, Control_c, 1, 64, 127
2, 54576, Control_c, 1, 64, 64
2, 54576, Control_c, 1, 64, 48
2, 54584, Control_c, 1, 64, 16
2, 54584, Control_c, 1, 64, 0
2, 54588, Control_c, 1, 64, 0
2, 54588, Control_c, 1, 64, 0
2, 54592, Control_c, 1, 64, 0
2, 54596, Control_c, 1, 64, 0
2, 54616, Note_on_c, 1, 36, 64
2, 54616, Note_on_c, 1, 52, 53
2, 54652, Control_c, 1, 64, 0
2, 54660, Note_off_c, 1, 36, 0
2, 54664, Control_c, 1, 64, 0
2, 54672, Control_c, 1, 64, 0
2, 54672, Control_c, 1, 64, 0
2, 54672, Control_c, 1, 64, 16
2, 54676, Control_c, 1, 64, 32
2, 54680, Control_c, 1, 64, 48
2, 54684, Control_c, 1, 64, 64
2, 54688, Control_c, 1, 64, 80
2, 54692, Control_c, 1, 64, 127
2, 54692, Control_c, 1, 64, 127
2, 54700, Note_off_c, 1, 52, 0
2, 54700, Control_c, 1, 64, 127
2, 54700, Control_c, 1, 64, 127
2, 54704, Control_c, 1, 64, 127
2, 54768, Control_c, 1, 64, 127
2, 54768, Control_c, 1, 64, 127
2, 54772, Control_c, 1, 64, 127
2, 54776, Control_c, 1, 64, 64
2, 54780, Control_c, 1, 64, 48
2, 54780, Control_c, 1, 64, 16
2, 54788, Control_c, 1, 64, 0
2, 54796, Control_c, 1, 64, 0
2, 54796, Control_c, 1, 64, 0
2, 54796, Control_c, 1, 64, 0
2, 54800, Control_c, 1, 64, 0
2, 54828, Note_on_c, 1, 58, 74
2, 54828, Note_on_c, 1, 73, 76
2, 54836, Note_on_c, 1, 42, 59
2, 54836, Note_on_c, 1, 68, 64
2, 54844, Note_on_c, 1, 63, 64
2, 54844, Control_c, 1, 64, 0
2, 54844, Note_on_c, 1, 50, 37
2, 54848, Note_off_c, 1, 50, 0
2, 54848, Control_c, 1, 64, 0
2, 54856, Control_c, 1, 64, 0
2, 54864, Note_off_c, 1, 63, 0
2, 54868, Control_c, 1, 64, 0
2, 54868, Control_c, 1, 64, 16
2, 54872, Control_c, 1, 64, 16
2, 54876, Control_c, 1, 64, 32
2, 54876, Control_c, 1, 64, 48
2, 54884, Control_c, 1, 64, 64
2, 54888, Control_c, 1, 64, 80
2, 54892, Note_off_c, 1, 58, 0
2, 54896, Control_c, 1, 64, 127
2, 54896, Control_c, 1, 64, 127
2, 54896, Control_c, 1, 64, 127
2, 54904, Note_off_c, 1, 68, 0
2, 54904, Control_c, 1, 64, 127
2, 54908, Control_c, 1, 64, 127
2, 54912, Note_off_c, 1, 73, 0
2, 54916, Note_off_c, 1, 42, 0
2, 54952, Control_c, 1, 64, 127
2, 54952, Control_c, 1, 64, 127
2, 54956, Control_c, 1, 64, 127
2, 54960, Control_c, 1, 64, 127
2, 54964, Control_c, 1, 64, 64
2, 54964, Control_c, 1, 64, 48
2, 54972, Control_c, 1, 64, 16
2, 54972, Control_c, 1, 64, 16
2, 54980, Control_c, 1, 64, 0
2, 54980, Control_c, 1, 64, 0
2, 54980, Control_c, 1, 64, 0
2, 54984, Control_c, 1, 64, 0
2, 54992, Control_c, 1, 64, 0
2, 55004, Note_on_c, 1, 41, 60
2, 55012, Note_on_c, 1, 57, 55
2, 55020, Control_c, 1, 64, 0
2, 55032, Note_off_c, 1, 41, 0
2, 55040, Control_c, 1, 64, 0
2, 55040, Control_c, 1, 64, 0
2, 55048, Control_c, 1, 64, 0
2, 55048, Control_c, 1, 64, 16
2, 55052, Control_c, 1, 64, 16
2, 55056, Control_c, 1, 64, 32
2, 55068, Note_off_c, 1, 57, 0
2, 55068, Control_c, 1, 64, 48
2, 55068, Control_c, 1, 64, 64
2, 55076, Control_c, 1, 64, 80
2, 55080, Control_c, 1, 64, 127
2, 55080, Control_c, 1, 64, 127
2, 55084, Control_c, 1, 64, 127
2, 55088, Control_c, 1, 64, 127
2, 55088, Control_c, 1, 64, 127
2, 55164, Control_c, 1, 64, 127
2, 55164, Control_c, 1, 64, 127
2, 55168, Control_c, 1, 64, 127
2, 55168, Control_c, 1, 64, 80
2, 55176, Control_c, 1, 64, 48
2, 55176, Control_c, 1, 64, 16
2, 55184, Control_c, 1, 64, 0
2, 55184, Control_c, 1, 64, 0
2, 55188, Control_c, 1, 64, 0
2, 55192, Control_c, 1, 64, 0
2, 55196, Control_c, 1, 64, 0
2, 55196, Note_on_c, 1, 48, 61
2, 55224, Note_on_c, 1, 63, 73
2, 55252, Control_c, 1, 64, 0
2, 55260, Control_c, 1, 64, 0
2, 55264, Control_c, 1, 64, 0
2, 55272, Control_c, 1, 64, 0
2, 55272, Control_c, 1, 64, 16
2, 55280, Control_c, 1, 64, 16
2, 55284, Control_c, 1, 64, 32
2, 55292, Note_off_c, 1, 63, 0
2, 55292, Control_c, 1, 64, 48
2, 55300, Note_off_c, 1, 48, 0
2, 55300, Control_c, 1, 64, 64
2, 55308, Control_c, 1, 64, 80
2, 55312, Control_c, 1, 64, 127
2, 55312, Control_c, 1, 64, 127
2, 55320, Control_c, 1, 64, 127
2, 55348, Control_c, 1, 64, 127
2, 55352, Control_c, 1, 64, 80
2, 55360, Control_c, 1, 64, 64
2, 55360, Control_c, 1, 64, 48
2, 55368, Control_c, 1, 64, 16
2, 55368, Control_c, 1, 64, 16
2, 55372, Control_c, 1, 64, 0
2, 55376, Control_c, 1, 64, 0
2, 55376, Control_c, 1, 64, 0
2, 55396, Note_on_c, 1, 46, 68
2, 55400, Note_on_c, 1, 62, 62
2, 55416, Control_c, 1, 64, 0
2, 55428, Control_c, 1, 64, 0
2, 55436, Control_c, 1, 64, 16
2, 55436, Control_c, 1, 64, 16
2, 55444, Control_c, 1, 64, 32
2, 55444, Control_c, 1, 64, 48
2, 55448, Control_c, 1, 64, 64
2, 55456, Control_c, 1, 64, 80
2, 55464, Note_off_c, 1, 62, 0
2, 55464, Control_c, 1, 64, 127
2, 55468, Note_off_c, 1, 46, 0
2, 55468, Control_c, 1, 64, 127
2, 55472, Control_c, 1, 64, 127
2, 55476, Control_c, 1, 64, 127
2, 55476, Control_c, 1, 64, 127
2, 55600, Control_c, 1, 67, 0
2, 55608, Control_c, 1, 64, 127
2, 55620, Control_c, 1, 64, 127
2, 55628, Control_c, 1, 64, 127
2, 55628, Control_c, 1, 64, 80
2, 55632, Note_on_c, 1, 44, 65
2, 55640, Control_c, 1, 64, 48
2, 55640, Note_on_c, 1, 59, 64
2, 55644, Control_c, 1, 64, 16
2, 55648, Control_c, 1, 64, 16
2, 55656, Control_c, 1, 64, 0
2, 55656, Control_c, 1, 64, 0
2, 55660, Control_c, 1, 64, 0
2, 55668, Note_on_c, 1, 94, 93
2, 55668, Note_on_c, 1, 82, 104
2, 55668, Control_c, 1, 64, 0
2, 55676, Control_c, 1, 64, 0
2, 55696, Control_c, 1, 67, 127
2, 55708, Note_off_c, 1, 82, 0
2, 55708, Note_off_c, 1, 59, 0
2, 55708, Control_c, 1, 64, 0
2, 55716, Control_c, 1, 64, 0
2, 55724, Note_off_c, 1, 94, 0
2, 55724, Control_c, 1, 64, 0
2, 55724, Control_c, 1, 64, 0
2, 55728, Control_c, 1, 64, 16
2, 55728, Control_c, 1, 64, 16
2, 55736, Control_c, 1, 64, 32
2, 55736, Control_c, 1, 64, 48
2, 55736, Control_c, 1, 64, 64
2, 55744, Control_c, 1, 64, 80
2, 55748, Note_off_c, 1, 44, 0
2, 55764, Control_c, 1, 64, 64
2, 55764, Control_c, 1, 64, 48
2, 55764, Control_c, 1, 64, 32
2, 55768, Control_c, 1, 64, 16
2, 55772, Control_c, 1, 64, 16
2, 55776, Control_c, 1, 64, 0
2, 55776, Control_c, 1, 64, 0
2, 55780, Control_c, 1, 64, 0
2, 55784, Control_c, 1, 64, 0
2, 55792, Note_on_c, 1, 58, 71
2, 55792, Control_c, 1, 64, 0
2, 55792, Note_on_c, 1, 79, 64
2, 55796, Note_on_c, 1, 43, 50
2, 55880, Note_off_c, 1, 79, 0
2, 55908, Control_c, 1, 64, 0
2, 55912, Note_off_c, 1, 43, 0
2, 55912, Control_c, 1, 64, 0
2, 55920, Control_c, 1, 64, 0
2, 55928, Control_c, 1, 64, 0
2, 55928, Control_c, 1, 64, 16
2, 55932, Control_c, 1, 64, 16
2, 55932, Control_c, 1, 64, 32
2, 55940, Control_c, 1, 64, 48
2, 55948, Control_c, 1, 64, 64
2, 55956, Control_c, 1, 64, 80
2, 55956, Control_c, 1, 64, 127
2, 55960, Control_c, 1, 64, 127
2, 55964, Note_off_c, 1, 58, 0
2, 55968, Control_c, 1, 64, 127
2, 55968, Control_c, 1, 64, 127
2, 55976, Control_c, 1, 64, 127
2, 56036, Note_on_c, 1, 75, 77
2, 56144, Note_off_c, 1, 75, 0
2, 56144, Control_c, 1, 64, 127
2, 56152, Control_c, 1, 64, 127
2, 56160, Control_c, 1, 64, 127
2, 56160, Control_c, 1, 64, 80
2, 56164, Control_c, 1, 64, 64
2, 56172, Control_c, 1, 64, 48
2, 56172, Control_c, 1, 64, 16
2, 56176, Control_c, 1, 64, 16
2, 56180, Control_c, 1, 64, 0
2, 56180, Control_c, 1, 64, 0
2, 56188, Note_on_c, 1, 58, 55
2, 56188, Control_c, 1, 64, 0
2, 56188, Note_on_c, 1, 67, 48
2, 56192, Note_on_c, 1, 63, 51
2, 56192, Control_c, 1, 64, 0
2, 56200, Note_on_c, 1, 60, 40
2, 56200, Control_c, 1, 64, 0
2, 56200, Note_on_c, 1, 82, 70
2, 56208, Note_on_c, 1, 70, 63
2, 56240, Note_off_c, 1, 67, 0
2, 56248, Note_off_c, 1, 63, 0
2, 56268, Note_off_c, 1, 70, 0
2, 56268, Note_off_c, 1, 60, 0
2, 56296, Note_off_c, 1, 58, 0
2, 56308, Note_off_c, 1, 82, 0
2, 56336, Control_c, 1, 64, 0
2, 56344, Control_c, 1, 64, 0
2, 56344, Control_c, 1, 64, 0
2, 56348, Control_c, 1, 64, 0
2, 56356, Control_c, 1, 64, 16
2, 56364, Control_c, 1, 64, 16
2, 56364, Control_c, 1, 64, 32
2, 56364, Control_c, 1, 64, 48
2, 56372, Control_c, 1, 64, 64
2, 56372, Control_c, 1, 64, 80
2, 56376, Control_c, 1, 64, 127
2, 56376, Control_c, 1, 64, 127
2, 56384, Control_c, 1, 64, 127
2, 56392, Control_c, 1, 64, 127
2, 56392, Control_c, 1, 64, 127
2, 56404, Note_on_c, 1, 72, 60
2, 56404, Note_on_c, 1, 51, 64
2, 56412, Note_on_c, 1, 84, 70
2, 56480, Note_off_c, 1, 72, 0
2, 56488, Note_off_c, 1, 84, 0
2, 56492, Note_off_c, 1, 51, 0
2, 56520, Control_c, 1, 64, 127
2, 56528, Control_c, 1, 64, 127
2, 56528, Control_c, 1, 64, 127
2, 56536, Control_c, 1, 64, 127
2, 56536, Control_c, 1, 64, 80
2, 56540, Control_c, 1, 64, 64
2, 56548, Control_c, 1, 64, 48
2, 56548, Control_c, 1, 64, 32
2, 56552, Control_c, 1, 64, 16
2, 56556, Control_c, 1, 64, 0
2, 56560, Control_c, 1, 64, 0
2, 56560, Control_c, 1, 64, 0
2, 56564, Control_c, 1, 64, 0
2, 56568, Control_c, 1, 64, 0
2, 56568, Note_on_c, 1, 36, 54
2, 56576, Note_on_c, 1, 52, 57
2, 56588, Note_on_c, 1, 79, 60
2, 56596, Note_on_c, 1, 73, 58
2, 56604, Note_on_c, 1, 85, 63
2, 56644, Note_off_c, 1, 36, 0
2, 56672, Control_c, 1, 64, 0
2, 56676, Control_c, 1, 64, 0
2, 56676, Control_c, 1, 64, 0
2, 56684, Control_c, 1, 64, 0
2, 56684, Control_c, 1, 64, 16
2, 56692, Control_c, 1, 64, 16
2, 56692, Control_c, 1, 64, 32
2, 56696, Control_c, 1, 64, 48
2, 56700, Control_c, 1, 64, 64
2, 56704, Control_c, 1, 64, 80
2, 56712, Control_c, 1, 64, 127
2, 56712, Control_c, 1, 64, 127
2, 56712, Control_c, 1, 64, 127
2, 56720, Control_c, 1, 64, 127
2, 56720, Control_c, 1, 64, 127
2, 56752, Note_off_c, 1, 79, 0
2, 56752, Note_off_c, 1, 52, 0
2, 56760, Note_off_c, 1, 73, 0
2, 56768, Note_off_c, 1, 85, 0
2, 56936, Control_c, 1, 64, 127
2, 56944, Control_c, 1, 64, 127
2, 56944, Control_c, 1, 64, 127
2, 56948, Control_c, 1, 64, 80
2, 56956, Control_c, 1, 64, 48
2, 56956, Note_on_c, 1, 64, 68
2, 56960, Control_c, 1, 64, 32
2, 56964, Control_c, 1, 64, 16
2, 56964, Note_on_c, 1, 55, 60
2, 56972, Control_c, 1, 64, 0
2, 56972, Control_c, 1, 64, 0
2, 56972, Note_on_c, 1, 60, 58
2, 56976, Control_c, 1, 64, 0
2, 56980, Note_on_c, 1, 58, 55
2, 57100, Note_off_c, 1, 64, 0
2, 57108, Note_off_c, 1, 60, 0
2, 57108, Control_c, 1, 64, 0
2, 57116, Note_off_c, 1, 58, 0
2, 57116, Control_c, 1, 64, 0
2, 57120, Control_c, 1, 64, 0
2, 57120, Control_c, 1, 64, 0
2, 57128, Control_c, 1, 64, 16
2, 57128, Control_c, 1, 64, 16
2, 57128, Control_c, 1, 64, 32
2, 57136, Note_off_c, 1, 55, 0
2, 57136, Control_c, 1, 64, 48
2, 57140, Control_c, 1, 64, 64
2, 57144, Control_c, 1, 64, 80
2, 57148, Control_c, 1, 64, 127
2, 57148, Control_c, 1, 64, 127
2, 57156, Control_c, 1, 64, 127
2, 57156, Control_c, 1, 64, 127
2, 57160, Control_c, 1, 64, 127
2, 57196, Note_on_c, 1, 72, 80
2, 57204, Note_on_c, 1, 84, 83
2, 57236, Note_off_c, 1, 84, 0
2, 57244, Note_off_c, 1, 72, 0
2, 57320, Control_c, 1, 64, 127
2, 57320, Control_c, 1, 64, 127
2, 57324, Control_c, 1, 64, 127
2, 57332, Control_c, 1, 64, 80
2, 57336, Control_c, 1, 64, 48
2, 57340, Control_c, 1, 64, 16
2, 57348, Note_on_c, 1, 56, 55
2, 57348, Control_c, 1, 64, 0
2, 57348, Note_on_c, 1, 41, 50
2, 57352, Control_c, 1, 64, 0
2, 57352, Control_c, 1, 64, 0
2, 57360, Control_c, 1, 64, 0
2, 57360, Control_c, 1, 64, 0
2, 57368, Note_on_c, 1, 70, 63
2, 57400, Note_off_c, 1, 70, 0
2, 57440, Note_on_c, 1, 69, 66
2, 57484, Note_off_c, 1, 41, 0
2, 57488, Note_off_c, 1, 69, 0
2, 57488, Control_c, 1, 64, 0
2, 57504, Control_c, 1, 64, 0
2, 57504, Control_c, 1, 64, 0
2, 57508, Control_c, 1, 64, 0
2, 57508, Control_c, 1, 64, 16
2, 57516, Control_c, 1, 64, 16
2, 57524, Note_on_c, 1, 68, 87
2, 57524, Control_c, 1, 64, 32
2, 57524, Control_c, 1, 64, 48
2, 57532, Control_c, 1, 64, 64
2, 57536, Control_c, 1, 64, 80
2, 57540, Control_c, 1, 64, 127
2, 57544, Note_off_c, 1, 56, 0
2, 57544, Control_c, 1, 64, 127
2, 57552, Control_c, 1, 64, 127
2, 57552, Control_c, 1, 64, 127
2, 57552, Control_c, 1, 64, 127
2, 57612, Note_on_c, 1, 67, 75
2, 57632, Note_off_c, 1, 68, 0
2, 57680, Note_off_c, 1, 67, 0
2, 57688, Control_c, 1, 64, 127
2, 57688, Control_c, 1, 64, 127
2, 57692, Control_c, 1, 64, 127
2, 57696, Control_c, 1, 64, 127
2, 57700, Control_c, 1, 64, 64
2, 57704, Control_c, 1, 64, 48
2, 57708, Control_c, 1, 64, 32
2, 57708, Control_c, 1, 64, 16
2, 57716, Control_c, 1, 64, 0
2, 57716, Note_on_c, 1, 63, 59
2, 57716, Control_c, 1, 64, 0
2, 57720, Note_on_c, 1, 60, 56
2, 57720, Note_on_c, 1, 56, 58
2, 57728, Control_c, 1, 64, 0
2, 57728, Control_c, 1, 64, 0
2, 57732, Control_c, 1, 64, 0
2, 57756, Note_on_c, 1, 64, 61
2, 57768, Note_on_c, 1, 65, 52
2, 57836, Note_off_c, 1, 64, 0
2, 57852, Note_off_c, 1, 65, 0
2, 57864, Control_c, 1, 64, 0
2, 57872, Control_c, 1, 64, 0
2, 57880, Control_c, 1, 64, 0
2, 57884, Control_c, 1, 64, 0
2, 57892, Note_off_c, 1, 63, 0
2, 57892, Control_c, 1, 64, 16
2, 57892, Control_c, 1, 64, 16
2, 57900, Note_off_c, 1, 60, 0
2, 57900, Control_c, 1, 64, 32
2, 57912, Control_c, 1, 64, 48
2, 57920, Control_c, 1, 64, 64
2, 57924, Control_c, 1, 64, 80
2, 57932, Note_off_c, 1, 56, 0
2, 57932, Control_c, 1, 64, 127
2, 57932, Control_c, 1, 64, 127
2, 57940, Control_c, 1, 64, 127
2, 57940, Control_c, 1, 64, 127
2, 57948, Control_c, 1, 64, 127
2, 57968, Note_on_c, 1, 74, 78
2, 58048, Control_c, 1, 64, 127
2, 58056, Control_c, 1, 64, 127
2, 58056, Control_c, 1, 64, 127
2, 58056, Control_c, 1, 64, 127
2, 58064, Control_c, 1, 64, 80
2, 58064, Control_c, 1, 64, 48
2, 58068, Control_c, 1, 64, 32
2, 58068, Control_c, 1, 64, 16
2, 58076, Control_c, 1, 64, 16
2, 58084, Note_off_c, 1, 74, 0
2, 58084, Control_c, 1, 64, 0
2, 58084, Control_c, 1, 64, 0
2, 58088, Control_c, 1, 64, 0
2, 58092, Control_c, 1, 64, 0
2, 58096, Control_c, 1, 64, 0
2, 58112, Note_on_c, 1, 66, 57
2, 58116, Note_on_c, 1, 46, 60
2, 58116, Note_on_c, 1, 56, 58
2, 58124, Note_on_c, 1, 62, 41
2, 58132, Note_on_c, 1, 60, 33
2, 58232, Control_c, 1, 64, 0
2, 58240, Control_c, 1, 64, 0
2, 58248, Control_c, 1, 64, 0
2, 58252, Control_c, 1, 64, 0
2, 58256, Control_c, 1, 64, 16
2, 58260, Control_c, 1, 64, 16
2, 58260, Control_c, 1, 64, 32
2, 58268, Control_c, 1, 64, 48
2, 58272, Control_c, 1, 64, 64
2, 58280, Control_c, 1, 64, 80
2, 58280, Control_c, 1, 64, 127
2, 58284, Control_c, 1, 64, 127
2, 58284, Control_c, 1, 64, 127
2, 58288, Control_c, 1, 64, 127
2, 58296, Control_c, 1, 64, 127
2, 58308, Note_off_c, 1, 56, 0
2, 58316, Note_off_c, 1, 60, 0
2, 58320, Note_off_c, 1, 62, 0
2, 58328, Note_off_c, 1, 46, 0
2, 58344, Note_off_c, 1, 66, 0
2, 58512, Note_on_c, 1, 44, 62
2, 58520, Note_on_c, 1, 54, 51
2, 58520, Control_c, 1, 64, 127
2, 58520, Control_c, 1, 64, 127
2, 58528, Control_c, 1, 64, 127
2, 58532, Note_on_c, 1, 60, 56
2, 58536, Control_c, 1, 64, 64
2, 58540, Control_c, 1, 64, 32
2, 58540, Control_c, 1, 64, 16
2, 58548, Control_c, 1, 64, 0
2, 58548, Control_c, 1, 64, 0
2, 58548, Control_c, 1, 64, 0
2, 58552, Control_c, 1, 64, 0
2, 58556, Control_c, 1, 64, 0
2, 58636, Control_c, 1, 64, 0
2, 58644, Control_c, 1, 64, 0
2, 58648, Control_c, 1, 64, 0
2, 58656, Control_c, 1, 64, 0
2, 58656, Control_c, 1, 64, 16
2, 58664, Control_c, 1, 64, 32
2, 58664, Control_c, 1, 64, 48
2, 58668, Control_c, 1, 64, 64
2, 58672, Control_c, 1, 64, 127
2, 58676, Control_c, 1, 64, 127
2, 58676, Control_c, 1, 64, 127
2, 58684, Control_c, 1, 64, 127
2, 58684, Control_c, 1, 64, 127
2, 58732, Note_off_c, 1, 60, 0
2, 58744, Note_on_c, 1, 70, 85
2, 58800, Note_off_c, 1, 70, 0
2, 58808, Note_on_c, 1, 72, 76
2, 58820, Note_off_c, 1, 54, 0
2, 58820, Note_off_c, 1, 44, 0
2, 58832, Control_c, 1, 64, 127
2, 58840, Control_c, 1, 64, 127
2, 58848, Control_c, 1, 64, 127
2, 58852, Control_c, 1, 64, 80
2, 58860, Control_c, 1, 64, 48
2, 58868, Control_c, 1, 64, 16
2, 58876, Control_c, 1, 64, 0
2, 58880, Control_c, 1, 64, 0
2, 58880, Control_c, 1, 64, 0
2, 58888, Control_c, 1, 64, 0
2, 58908, Note_off_c, 1, 72, 0
2, 58908, Note_on_c, 1, 70, 83
2, 58916, Note_on_c, 1, 53, 54
2, 58916, Note_on_c, 1, 58, 63
2, 58916, Note_on_c, 1, 43, 54
2, 58924, Note_on_c, 1, 69, 62
2, 58928, Note_off_c, 1, 70, 0
2, 59016, Note_on_c, 1, 70, 78
2, 59040, Control_c, 1, 64, 0
2, 59044, Note_off_c, 1, 69, 0
2, 59052, Control_c, 1, 64, 0
2, 59060, Control_c, 1, 64, 0
2, 59072, Control_c, 1, 64, 0
2, 59080, Control_c, 1, 64, 16
2, 59092, Control_c, 1, 64, 16
2, 59108, Control_c, 1, 64, 32
2, 59120, Note_off_c, 1, 70, 0
2, 59120, Control_c, 1, 64, 48
2, 59120, Note_on_c, 1, 74, 67
2, 59128, Control_c, 1, 64, 64
2, 59136, Control_c, 1, 64, 80
2, 59136, Control_c, 1, 64, 127
2, 59140, Control_c, 1, 64, 127
2, 59140, Control_c, 1, 64, 127
2, 59144, Control_c, 1, 64, 127
2, 59148, Control_c, 1, 64, 127
2, 59204, Note_off_c, 1, 74, 0
2, 59204, Note_on_c, 1, 77, 67
2, 59224, Control_c, 1, 64, 127
2, 59224, Control_c, 1, 64, 127
2, 59228, Control_c, 1, 64, 127
2, 59232, Note_off_c, 1, 77, 0
2, 59232, Control_c, 1, 64, 80
2, 59244, Control_c, 1, 64, 48
2, 59244, Control_c, 1, 64, 32
2, 59244, Control_c, 1, 64, 16
2, 59248, Control_c, 1, 64, 0
2, 59252, Control_c, 1, 64, 0
2, 59256, Control_c, 1, 64, 0
2, 59256, Control_c, 1, 64, 0
2, 59260, Control_c, 1, 64, 0
2, 59296, Note_on_c, 1, 84, 77
2, 59320, Note_on_c, 1, 83, 41
2, 59324, Note_off_c, 1, 83, 0
2, 59364, Note_off_c, 1, 84, 0
2, 59408, Note_on_c, 1, 81, 77
2, 59476, Note_off_c, 1, 81, 0
2, 59488, Note_on_c, 1, 77, 68
2, 59544, Note_off_c, 1, 77, 0
2, 59584, Note_on_c, 1, 74, 57
2, 59632, Note_off_c, 1, 74, 0
2, 59652, Note_on_c, 1, 72, 72
2, 59692, Note_off_c, 1, 72, 0
2, 59700, Note_on_c, 1, 74, 64
2, 59736, Note_on_c, 1, 72, 52
2, 59740, Note_off_c, 1, 74, 0
2, 59808, Note_on_c, 1, 70, 74
2, 59852, Note_off_c, 1, 72, 0
2, 59864, Note_off_c, 1, 70, 0
2, 59932, Note_on_c, 1, 69, 71
2, 59944, Note_off_c, 1, 43, 0
2, 59960, Note_off_c, 1, 58, 0
2, 59988, Note_off_c, 1, 53, 0
2, 60012, Note_on_c, 1, 81, 91
2, 60040, Note_off_c, 1, 69, 0
2, 60088, Note_off_c, 1, 81, 0
2, 60108, Note_on_c, 1, 69, 68
2, 60176, Note_on_c, 1, 57, 58
2, 60184, Note_off_c, 1, 69, 0
2, 60184, Note_on_c, 1, 42, 53
2, 60192, Note_on_c, 1, 68, 71
2, 60240, Note_off_c, 1, 68, 0
2, 60248, Note_off_c, 1, 57, 0
2, 60252, Control_c, 1, 64, 0
2, 60252, Control_c, 1, 64, 0
2, 60260, Control_c, 1, 64, 0
2, 60260, Control_c, 1, 64, 0
2, 60264, Control_c, 1, 64, 16
2, 60268, Control_c, 1, 64, 16
2, 60268, Control_c, 1, 64, 32
2, 60272, Control_c, 1, 64, 48
2, 60272, Control_c, 1, 64, 64
2, 60288, Control_c, 1, 64, 80
2, 60288, Control_c, 1, 64, 127
2, 60296, Note_off_c, 1, 42, 0
2, 60296, Control_c, 1, 64, 127
2, 60300, Note_on_c, 1, 80, 79
2, 60300, Control_c, 1, 64, 127
2, 60300, Control_c, 1, 64, 127
2, 60312, Control_c, 1, 64, 127
2, 60328, Control_c, 1, 64, 127
2, 60328, Control_c, 1, 64, 127
2, 60336, Control_c, 1, 64, 127
2, 60336, Control_c, 1, 64, 80
2, 60344, Control_c, 1, 64, 64
2, 60348, Control_c, 1, 64, 32
2, 60348, Control_c, 1, 64, 16
2, 60356, Control_c, 1, 64, 0
2, 60356, Control_c, 1, 64, 0
2, 60360, Control_c, 1, 64, 0
2, 60364, Control_c, 1, 64, 0
2, 60368, Note_off_c, 1, 80, 0
2, 60376, Control_c, 1, 64, 0
2, 60384, Note_on_c, 1, 41, 60
2, 60384, Note_on_c, 1, 51, 41
2, 60388, Note_on_c, 1, 67, 66
2, 60388, Note_on_c, 1, 56, 55
2, 60464, Note_off_c, 1, 67, 0
2, 60484, Note_on_c, 1, 68, 77
2, 60524, Note_off_c, 1, 41, 0
2, 60548, Note_off_c, 1, 51, 0
2, 60572, Note_off_c, 1, 68, 0
2, 60576, Note_off_c, 1, 56, 0
2, 60580, Note_on_c, 1, 70, 78
2, 60600, Control_c, 1, 64, 0
2, 60608, Control_c, 1, 64, 0
2, 60608, Control_c, 1, 64, 0
2, 60620, Note_off_c, 1, 70, 0
2, 60620, Control_c, 1, 64, 0
2, 60628, Control_c, 1, 64, 16
2, 60640, Control_c, 1, 64, 16
2, 60676, Note_on_c, 1, 72, 70
2, 60704, Control_c, 1, 64, 16
2, 60708, Control_c, 1, 64, 0
2, 60724, Control_c, 1, 64, 0
2, 60732, Note_off_c, 1, 72, 0
2, 60732, Control_c, 1, 64, 0
2, 60744, Note_on_c, 1, 65, 61
2, 60744, Control_c, 1, 64, 0
2, 60752, Note_on_c, 1, 56, 55
2, 60752, Note_on_c, 1, 63, 54
2, 60756, Note_on_c, 1, 75, 75
2, 60760, Control_c, 1, 64, 0
2, 60760, Note_on_c, 1, 58, 50
2, 60764, Note_on_c, 1, 60, 49
2, 60812, Note_off_c, 1, 75, 0
2, 60852, Note_on_c, 1, 79, 68
2, 60896, Note_off_c, 1, 60, 0
2, 60896, Note_off_c, 1, 63, 0
2, 60896, Note_off_c, 1, 65, 0
2, 60900, Note_off_c, 1, 79, 0
2, 60900, Note_off_c, 1, 58, 0
2, 60916, Control_c, 1, 64, 0
2, 60920, Note_off_c, 1, 56, 0
2, 60928, Control_c, 1, 64, 0
2, 60936, Control_c, 1, 64, 0
2, 60936, Note_on_c, 1, 82, 79
2, 60940, Control_c, 1, 64, 0
2, 60948, Control_c, 1, 64, 16
2, 60948, Control_c, 1, 64, 16
2, 60964, Control_c, 1, 64, 32
2, 60968, Control_c, 1, 64, 48
2, 60988, Control_c, 1, 64, 64
2, 61004, Control_c, 1, 64, 80
2, 61004, Control_c, 1, 64, 127
2, 61032, Control_c, 1, 64, 127
2, 61036, Control_c, 1, 64, 127
2, 61044, Control_c, 1, 64, 80
2, 61044, Note_on_c, 1, 80, 72
2, 61052, Control_c, 1, 64, 64
2, 61056, Control_c, 1, 64, 48
2, 61060, Note_off_c, 1, 82, 0
2, 61060, Control_c, 1, 64, 32
2, 61064, Control_c, 1, 64, 16
2, 61064, Control_c, 1, 64, 16
2, 61072, Control_c, 1, 64, 0
2, 61072, Control_c, 1, 64, 0
2, 61100, Control_c, 1, 64, 0
2, 61100, Control_c, 1, 64, 0
2, 61104, Note_on_c, 1, 46, 65
2, 61108, Control_c, 1, 64, 0
2, 61112, Note_on_c, 1, 56, 61
2, 61112, Note_on_c, 1, 62, 56
2, 61128, Note_on_c, 1, 79, 74
2, 61132, Note_off_c, 1, 80, 0
2, 61148, Note_off_c, 1, 46, 0
2, 61196, Note_off_c, 1, 79, 0
2, 61208, Note_on_c, 1, 77, 73
2, 61264, Note_off_c, 1, 77, 0
2, 61304, Note_on_c, 1, 76, 66
2, 61380, Note_off_c, 1, 76, 0
2, 61400, Note_on_c, 1, 74, 66
2, 61460, Note_off_c, 1, 74, 0
2, 61480, Note_on_c, 1, 73, 69
2, 61524, Note_off_c, 1, 73, 0
2, 61556, Note_on_c, 1, 74, 70
2, 61612, Note_off_c, 1, 74, 0
2, 61612, Note_on_c, 1, 73, 73
2, 61660, Note_on_c, 1, 47, 51
2, 61672, Note_on_c, 1, 71, 56
2, 61684, Note_off_c, 1, 47, 0
2, 61684, Note_off_c, 1, 73, 0
2, 61700, Note_off_c, 1, 71, 0
2, 61712, Note_off_c, 1, 62, 0
2, 61752, Note_off_c, 1, 56, 0
2, 61776, Note_on_c, 1, 69, 66
2, 61828, Note_on_c, 1, 56, 51
2, 61836, Note_on_c, 1, 61, 60
2, 61856, Note_on_c, 1, 46, 44
2, 61864, Note_on_c, 1, 70, 61
2, 61916, Note_off_c, 1, 69, 0
2, 61924, Note_off_c, 1, 70, 0
2, 61960, Note_on_c, 1, 72, 74
2, 61984, Note_off_c, 1, 46, 0
2, 62000, Note_off_c, 1, 56, 0
2, 62008, Note_off_c, 1, 72, 0
2, 62012, Control_c, 1, 64, 0
2, 62020, Note_on_c, 1, 69, 67
2, 62020, Control_c, 1, 64, 0
2, 62020, Control_c, 1, 64, 0
2, 62028, Control_c, 1, 64, 0
2, 62032, Control_c, 1, 64, 16
2, 62040, Note_off_c, 1, 61, 0
2, 62040, Control_c, 1, 64, 16
2, 62048, Control_c, 1, 64, 32
2, 62052, Control_c, 1, 64, 48
2, 62060, Control_c, 1, 64, 64
2, 62068, Note_off_c, 1, 69, 0
2, 62076, Control_c, 1, 64, 80
2, 62076, Note_on_c, 1, 70, 73
2, 62080, Control_c, 1, 64, 127
2, 62080, Control_c, 1, 64, 127
2, 62088, Control_c, 1, 64, 127
2, 62088, Control_c, 1, 64, 127
2, 62096, Note_off_c, 1, 70, 0
2, 62096, Control_c, 1, 64, 127
2, 62152, Note_on_c, 1, 72, 79
2, 62156, Control_c, 1, 64, 127
2, 62164, Control_c, 1, 64, 127
2, 62168, Control_c, 1, 64, 127
2, 62172, Control_c, 1, 64, 80
2, 62176, Control_c, 1, 64, 48
2, 62184, Control_c, 1, 64, 32
2, 62184, Control_c, 1, 64, 16
2, 62192, Control_c, 1, 64, 0
2, 62192, Control_c, 1, 64, 0
2, 62192, Control_c, 1, 64, 0
2, 62196, Control_c, 1, 64, 0
2, 62196, Control_c, 1, 64, 0
2, 62204, Note_on_c, 1, 73, 79
2, 62232, Note_off_c, 1, 72, 0
2, 62232, Note_on_c, 1, 61, 59
2, 62232, Note_on_c, 1, 56, 63
2, 62240, Note_on_c, 1, 65, 60
2, 62240, Note_on_c, 1, 58, 55
2, 62260, Note_off_c, 1, 73, 0
2, 62260, Note_on_c, 1, 75, 68
2, 62280, Note_off_c, 1, 75, 0
2, 62328, Note_on_c, 1, 77, 74
2, 62396, Note_off_c, 1, 58, 0
2, 62408, Note_off_c, 1, 65, 0
2, 62408, Note_off_c, 1, 61, 0
2, 62412, Note_off_c, 1, 56, 0
2, 62416, Note_off_c, 1, 77, 0
2, 62424, Note_on_c, 1, 81, 50
2, 62428, Note_on_c, 1, 80, 9
2, 62444, Control_c, 1, 64, 0
2, 62448, Control_c, 1, 64, 0
2, 62456, Control_c, 1, 64, 0
2, 62464, Note_off_c, 1, 81, 0
2, 62464, Note_on_c, 1, 84, 77
2, 62464, Control_c, 1, 64, 0
2, 62472, Note_off_c, 1, 80, 0
2, 62472, Control_c, 1, 64, 16
2, 62476, Control_c, 1, 64, 16
2, 62484, Control_c, 1, 64, 32
2, 62504, Control_c, 1, 64, 48
2, 62512, Note_off_c, 1, 84, 0
2, 62516, Control_c, 1, 64, 32
2, 62524, Control_c, 1, 64, 16
2, 62524, Control_c, 1, 64, 16
2, 62532, Control_c, 1, 64, 0
2, 62532, Note_on_c, 1, 87, 74
2, 62540, Control_c, 1, 64, 0
2, 62540, Control_c, 1, 64, 0
2, 62544, Control_c, 1, 64, 0
2, 62552, Control_c, 1, 64, 0
2, 62600, Note_on_c, 1, 61, 60
2, 62608, Note_on_c, 1, 84, 79
2, 62608, Note_on_c, 1, 67, 55
2, 62612, Note_on_c, 1, 51, 51
2, 62708, Control_c, 1, 64, 0
2, 62716, Control_c, 1, 64, 0
2, 62716, Control_c, 1, 64, 0
2, 62724, Control_c, 1, 64, 0
2, 62724, Control_c, 1, 64, 16
2, 62728, Note_off_c, 1, 84, 0
2, 62728, Control_c, 1, 64, 16
2, 62736, Note_off_c, 1, 67, 0
2, 62736, Control_c, 1, 64, 32
2, 62740, Control_c, 1, 64, 48
2, 62744, Note_off_c, 1, 87, 0
2, 62752, Note_off_c, 1, 61, 0
2, 62752, Control_c, 1, 64, 64
2, 62756, Control_c, 1, 64, 80
2, 62756, Control_c, 1, 64, 127
2, 62764, Control_c, 1, 64, 127
2, 62764, Control_c, 1, 64, 127
2, 62772, Control_c, 1, 64, 127
2, 62776, Control_c, 1, 64, 127
2, 62784, Note_off_c, 1, 51, 0
2, 62872, Note_on_c, 1, 75, 71
2, 62880, Note_on_c, 1, 87, 66
2, 62920, Control_c, 1, 64, 127
2, 62928, Note_off_c, 1, 75, 0
2, 62928, Control_c, 1, 64, 127
2, 62932, Note_off_c, 1, 87, 0
2, 62936, Control_c, 1, 64, 127
2, 62936, Control_c, 1, 64, 127
2, 62940, Control_c, 1, 64, 80
2, 62944, Control_c, 1, 64, 64
2, 62948, Control_c, 1, 64, 48
2, 62948, Control_c, 1, 64, 16
2, 62956, Control_c, 1, 64, 16
2, 62956, Control_c, 1, 64, 0
2, 62956, Control_c, 1, 64, 0
2, 62960, Control_c, 1, 64, 0
2, 62968, Control_c, 1, 64, 0
2, 62968, Control_c, 1, 64, 0
2, 62984, Note_on_c, 1, 61, 55
2, 62984, Note_on_c, 1, 55, 47
2, 62996, Note_on_c, 1, 53, 41
2, 62996, Note_on_c, 1, 46, 44
2, 63092, Control_c, 1, 64, 0
2, 63096, Control_c, 1, 64, 0
2, 63104, Control_c, 1, 64, 0
2, 63120, Control_c, 1, 64, 0
2, 63120, Control_c, 1, 64, 16
2, 63124, Control_c, 1, 64, 16
2, 63140, Control_c, 1, 64, 32
2, 63144, Control_c, 1, 64, 48
2, 63152, Note_off_c, 1, 61, 0
2, 63152, Control_c, 1, 64, 64
2, 63160, Control_c, 1, 64, 80
2, 63168, Note_off_c, 1, 53, 0
2, 63168, Note_off_c, 1, 55, 0
2, 63172, Control_c, 1, 64, 127
2, 63172, Control_c, 1, 64, 127
2, 63176, Control_c, 1, 64, 127
2, 63188, Note_off_c, 1, 46, 0
2, 63188, Control_c, 1, 64, 127
2, 63192, Control_c, 1, 64, 127
2, 63236, Note_on_c, 1, 84, 67
2, 63236, Note_on_c, 1, 79, 70
2, 63236, Note_on_c, 1, 91, 78
2, 63240, Note_on_c, 1, 87, 63
2, 63288, Note_off_c, 1, 79, 0
2, 63316, Note_off_c, 1, 91, 0
2, 63316, Note_off_c, 1, 84, 0
2, 63336, Control_c, 1, 64, 127
2, 63344, Note_off_c, 1, 87, 0
2, 63344, Control_c, 1, 64, 127
2, 63356, Control_c, 1, 64, 127
2, 63364, Control_c, 1, 64, 80
2, 63372, Control_c, 1, 64, 64
2, 63372, Control_c, 1, 64, 48
2, 63380, Control_c, 1, 64, 16
2, 63384, Control_c, 1, 64, 16
2, 63392, Control_c, 1, 64, 0
2, 63392, Control_c, 1, 64, 0
2, 63400, Control_c, 1, 64, 0
2, 63400, Control_c, 1, 64, 0
2, 63404, Control_c, 1, 64, 0
2, 63408, Note_on_c, 1, 51, 57
2, 63412, Note_on_c, 1, 55, 57
2, 63412, Note_on_c, 1, 60, 60
2, 63412, Note_on_c, 1, 44, 52
2, 63420, Note_on_c, 1, 84, 53
2, 63420, Note_on_c, 1, 82, 56
2, 63424, Note_on_c, 1, 87, 56
2, 63428, Note_on_c, 1, 94, 74
2, 63452, Note_off_c, 1, 82, 0
2, 63488, Note_off_c, 1, 94, 0
2, 63492, Note_off_c, 1, 44, 0
2, 63500, Note_off_c, 1, 87, 0
2, 63508, Control_c, 1, 64, 0
2, 63516, Note_off_c, 1, 51, 0
2, 63516, Control_c, 1, 64, 0
2, 63520, Note_off_c, 1, 55, 0
2, 63520, Control_c, 1, 64, 0
2, 63528, Control_c, 1, 64, 0
2, 63528, Control_c, 1, 64, 16
2, 63536, Control_c, 1, 64, 16
2, 63548, Control_c, 1, 64, 32
2, 63556, Control_c, 1, 64, 48
2, 63564, Note_off_c, 1, 60, 0
2, 63564, Control_c, 1, 64, 64
2, 63568, Note_on_c, 1, 94, 65
2, 63576, Note_on_c, 1, 87, 32
2, 63576, Control_c, 1, 64, 80
2, 63584, Control_c, 1, 64, 127
2, 63584, Control_c, 1, 64, 127
2, 63588, Note_off_c, 1, 94, 0
2, 63588, Control_c, 1, 64, 127
2, 63592, Control_c, 1, 64, 127
2, 63596, Note_off_c, 1, 87, 0
2, 63596, Control_c, 1, 64, 127
2, 63604, Note_off_c, 1, 84, 0
2, 63608, Note_on_c, 1, 82, 73
2, 63636, Note_off_c, 1, 82, 0
2, 63672, Note_on_c, 1, 87, 65
2, 63672, Note_on_c, 1, 94, 60
2, 63700, Note_off_c, 1, 94, 0
2, 63712, Note_off_c, 1, 87, 0
2, 63712, Control_c, 1, 64, 127
2, 63720, Control_c, 1, 64, 127
2, 63720, Control_c, 1, 64, 127
2, 63724, Control_c, 1, 64, 127
2, 63732, Control_c, 1, 64, 64
2, 63740, Control_c, 1, 64, 48
2, 63740, Control_c, 1, 64, 32
2, 63748, Control_c, 1, 64, 16
2, 63748, Control_c, 1, 64, 0
2, 63752, Control_c, 1, 64, 0
2, 63752, Control_c, 1, 64, 0
2, 63760, Control_c, 1, 64, 0
2, 63760, Control_c, 1, 64, 0
2, 63768, Note_on_c, 1, 56, 69
2, 63772, Note_on_c, 1, 67, 67
2, 63776, Note_on_c, 1, 63, 67
2, 63776, Note_on_c, 1, 60, 61
2, 63864, Note_off_c, 1, 67, 0
2, 63876, Control_c, 1, 64, 0
2, 63884, Note_off_c, 1, 63, 0
2, 63884, Control_c, 1, 64, 0
2, 63888, Note_off_c, 1, 60, 0
2, 63888, Control_c, 1, 64, 0
2, 63896, Control_c, 1, 64, 0
2, 63904, Control_c, 1, 64, 16
2, 63904, Control_c, 1, 64, 16
2, 63912, Note_off_c, 1, 56, 0
2, 63916, Control_c, 1, 64, 32
2, 63924, Control_c, 1, 64, 48
2, 63932, Control_c, 1, 64, 64
2, 63944, Control_c, 1, 64, 80
2, 63944, Control_c, 1, 64, 127
2, 63952, Control_c, 1, 64, 127
2, 63952, Control_c, 1, 64, 127
2, 63956, Control_c, 1, 64, 127
2, 63964, Control_c, 1, 64, 127
2, 64032, Note_on_c, 1, 80, 69
2, 64032, Note_on_c, 1, 92, 83
2, 64040, Note_on_c, 1, 87, 76
2, 64040, Note_on_c, 1, 83, 78
2, 64072, Note_off_c, 1, 80, 0
2, 64100, Note_off_c, 1, 92, 0
2, 64108, Note_off_c, 1, 83, 0
2, 64116, Note_off_c, 1, 87, 0
2, 64140, Control_c, 1, 64, 127
2, 64148, Control_c, 1, 64, 127
2, 64156, Control_c, 1, 64, 80
2, 64164, Control_c, 1, 64, 64
2, 64168, Control_c, 1, 64, 32
2, 64176, Control_c, 1, 64, 16
2, 64184, Control_c, 1, 64, 0
2, 64184, Control_c, 1, 64, 0
2, 64188, Note_on_c, 1, 37, 48
2, 64196, Control_c, 1, 64, 0
2, 64196, Control_c, 1, 64, 0
2, 64204, Note_on_c, 1, 44, 58
2, 64256, Control_c, 1, 64, 0
2, 64264, Control_c, 1, 64, 0
2, 64264, Control_c, 1, 64, 0
2, 64272, Control_c, 1, 64, 0
2, 64280, Note_off_c, 1, 37, 0
2, 64280, Control_c, 1, 64, 16
2, 64280, Control_c, 1, 64, 16
2, 64284, Control_c, 1, 64, 32
2, 64288, Control_c, 1, 64, 48
2, 64292, Note_off_c, 1, 44, 0
2, 64292, Control_c, 1, 64, 64
2, 64300, Control_c, 1, 64, 80
2, 64304, Control_c, 1, 64, 127
2, 64308, Control_c, 1, 64, 127
2, 64308, Control_c, 1, 64, 127
2, 64320, Control_c, 1, 64, 127
2, 64320, Control_c, 1, 64, 127
2, 64524, Control_c, 1, 64, 127
2, 64536, Control_c, 1, 64, 127
2, 64540, Control_c, 1, 64, 127
2, 64544, Control_c, 1, 64, 80
2, 64560, Control_c, 1, 64, 64
2, 64564, Control_c, 1, 64, 48
2, 64564, Control_c, 1, 64, 16
2, 64572, Control_c, 1, 64, 0
2, 64580, Note_on_c, 1, 59, 76
2, 64580, Note_on_c, 1, 53, 74
2, 64584, Control_c, 1, 64, 0
2, 64592, Control_c, 1, 64, 0
2, 64592, Note_on_c, 1, 63, 77
2, 64592, Note_on_c, 1, 56, 72
2, 64600, Control_c, 1, 64, 0
2, 64600, Control_c, 1, 64, 0
2, 64652, Control_c, 1, 64, 0
2, 64660, Control_c, 1, 64, 0
2, 64668, Control_c, 1, 64, 0
2, 64668, Control_c, 1, 64, 0
2, 64672, Control_c, 1, 64, 16
2, 64676, Control_c, 1, 64, 16
2, 64676, Control_c, 1, 64, 32
2, 64680, Control_c, 1, 64, 48
2, 64688, Control_c, 1, 64, 64
2, 64688, Control_c, 1, 64, 80
2, 64696, Note_off_c, 1, 59, 0
2, 64696, Control_c, 1, 64, 127
2, 64700, Note_off_c, 1, 63, 0
2, 64700, Control_c, 1, 64, 127
2, 64704, Note_off_c, 1, 56, 0
2, 64708, Control_c, 1, 64, 127
2, 64708, Control_c, 1, 64, 127
2, 64716, Note_off_c, 1, 53, 0
2, 64716, Control_c, 1, 64, 127
2, 64756, Note_on_c, 1, 70, 83
2, 64796, Note_on_c, 1, 69, 71
2, 64824, Control_c, 1, 64, 127
2, 64832, Control_c, 1, 64, 127
2, 64836, Control_c, 1, 64, 127
2, 64840, Control_c, 1, 64, 64
2, 64844, Note_off_c, 1, 70, 0
2, 64844, Control_c, 1, 64, 48
2, 64852, Control_c, 1, 64, 16
2, 64852, Control_c, 1, 64, 0
2, 64860, Control_c, 1, 64, 0
2, 64860, Control_c, 1, 64, 0
2, 64864, Control_c, 1, 64, 0
2, 64872, Control_c, 1, 64, 0
2, 64892, Note_on_c, 1, 68, 75
2, 64900, Note_off_c, 1, 69, 0
2, 64928, Note_off_c, 1, 68, 0
2, 64940, Note_on_c, 1, 53, 60
2, 64948, Note_on_c, 1, 43, 63
2, 64948, Note_on_c, 1, 59, 63
2, 64960, Note_on_c, 1, 67, 67
2, 65036, Note_off_c, 1, 67, 0
2, 65180, Note_on_c, 1, 68, 69
2, 65256, Note_off_c, 1, 68, 0
2, 65356, Note_on_c, 1, 69, 62
2, 65392, Note_off_c, 1, 69, 0
2, 65440, Control_c, 1, 64, 0
2, 65452, Control_c, 1, 64, 0
2, 65460, Note_off_c, 1, 43, 0
2, 65460, Control_c, 1, 64, 0
2, 65464, Control_c, 1, 64, 0
2, 65472, Control_c, 1, 64, 16
2, 65480, Control_c, 1, 64, 16
2, 65484, Control_c, 1, 64, 32
2, 65492, Control_c, 1, 64, 48
2, 65500, Control_c, 1, 64, 64
2, 65508, Control_c, 1, 64, 80
2, 65512, Control_c, 1, 64, 127
2, 65512, Control_c, 1, 64, 127
2, 65520, Note_off_c, 1, 53, 0
2, 65520, Control_c, 1, 64, 127
2, 65524, Note_off_c, 1, 59, 0
2, 65528, Control_c, 1, 64, 127
2, 65528, Control_c, 1, 64, 127
2, 65560, Note_on_c, 1, 70, 75
2, 65656, Note_off_c, 1, 70, 0
2, 65676, Control_c, 1, 64, 127
2, 65684, Control_c, 1, 64, 127
2, 65684, Control_c, 1, 64, 127
2, 65684, Control_c, 1, 64, 80
2, 65692, Control_c, 1, 64, 48
2, 65696, Control_c, 1, 64, 32
2, 65700, Control_c, 1, 64, 16
2, 65700, Control_c, 1, 64, 0
2, 65704, Control_c, 1, 64, 0
2, 65704, Control_c, 1, 64, 0
2, 65712, Control_c, 1, 64, 0
2, 65712, Control_c, 1, 64, 0
2, 65720, Note_on_c, 1, 58, 61
2, 65732, Note_on_c, 1, 48, 50
2, 65732, Note_on_c, 1, 52, 55
2, 65740, Note_on_c, 1, 69, 64
2, 65740, Note_on_c, 1, 73, 68
2, 65740, Note_on_c, 1, 64, 57
2, 65812, Control_c, 1, 64, 0
2, 65812, Control_c, 1, 64, 0
2, 65820, Control_c, 1, 64, 0
2, 65828, Control_c, 1, 64, 0
2, 65836, Control_c, 1, 64, 16
2, 65836, Control_c, 1, 64, 16
2, 65840, Note_off_c, 1, 48, 0
2, 65840, Control_c, 1, 64, 32
2, 65844, Note_off_c, 1, 52, 0
2, 65848, Control_c, 1, 64, 48
2, 65856, Control_c, 1, 64, 64
2, 65860, Control_c, 1, 64, 80
2, 65864, Note_off_c, 1, 73, 0
2, 65868, Control_c, 1, 64, 127
2, 65868, Control_c, 1, 64, 127
2, 65876, Control_c, 1, 64, 127
2, 65880, Control_c, 1, 64, 127
2, 65888, Control_c, 1, 64, 127
2, 65908, Note_off_c, 1, 69, 0
2, 65956, Note_on_c, 1, 42, 62
2, 65956, Note_on_c, 1, 72, 72
2, 65972, Note_on_c, 1, 68, 67
2, 65976, Control_c, 1, 64, 127
2, 65984, Control_c, 1, 64, 127
2, 65984, Control_c, 1, 64, 127
2, 65992, Control_c, 1, 64, 127
2, 65992, Control_c, 1, 64, 80
2, 66000, Control_c, 1, 64, 64
2, 66000, Control_c, 1, 64, 48
2, 66004, Control_c, 1, 64, 32
2, 66012, Control_c, 1, 64, 16
2, 66012, Control_c, 1, 64, 16
2, 66012, Control_c, 1, 64, 0
2, 66020, Control_c, 1, 64, 0
2, 66024, Control_c, 1, 64, 0
2, 66044, Control_c, 1, 64, 0
2, 66052, Control_c, 1, 64, 0
2, 66060, Control_c, 1, 64, 16
2, 66060, Control_c, 1, 64, 16
2, 66068, Control_c, 1, 64, 32
2, 66068, Control_c, 1, 64, 48
2, 66072, Control_c, 1, 64, 64
2, 66080, Control_c, 1, 64, 80
2, 66080, Control_c, 1, 64, 127
2, 66088, Control_c, 1, 64, 127
2, 66088, Control_c, 1, 64, 127
2, 66092, Control_c, 1, 64, 127
2, 66092, Control_c, 1, 64, 127
2, 66136, Note_off_c, 1, 72, 0
2, 66140, Note_off_c, 1, 58, 0
2, 66148, Note_off_c, 1, 64, 0
2, 66156, Note_off_c, 1, 68, 0
2, 66156, Control_c, 1, 64, 127
2, 66160, Control_c, 1, 64, 127
2, 66164, Control_c, 1, 64, 127
2, 66168, Control_c, 1, 64, 127
2, 66168, Control_c, 1, 64, 80
2, 66176, Control_c, 1, 64, 64
2, 66176, Control_c, 1, 64, 48
2, 66180, Control_c, 1, 64, 32
2, 66188, Control_c, 1, 64, 16
2, 66188, Control_c, 1, 64, 16
2, 66196, Control_c, 1, 64, 0
2, 66204, Control_c, 1, 64, 16
2, 66208, Control_c, 1, 64, 16
2, 66216, Control_c, 1, 64, 32
2, 66216, Control_c, 1, 64, 48
2, 66216, Control_c, 1, 64, 64
2, 66224, Control_c, 1, 64, 80
2, 66228, Control_c, 1, 64, 127
2, 66232, Control_c, 1, 64, 127
2, 66232, Control_c, 1, 64, 127
2, 66236, Control_c, 1, 64, 127
2, 66340, Note_on_c, 1, 58, 70
2, 66428, Note_off_c, 1, 58, 0
2, 66436, Control_c, 1, 64, 127
2, 66448, Control_c, 1, 64, 127
2, 66448, Control_c, 1, 64, 127
2, 66456, Control_c, 1, 64, 64
2, 66456, Control_c, 1, 64, 48
2, 66456, Control_c, 1, 64, 16
2, 66464, Note_off_c, 1, 42, 0
2, 66468, Control_c, 1, 64, 0
2, 66472, Note_on_c, 1, 62, 51
2, 66476, Control_c, 1, 64, 0
2, 66476, Control_c, 1, 64, 0
2, 66484, Control_c, 1, 64, 0
2, 66504, Note_on_c, 1, 57, 62
2, 66524, Note_on_c, 1, 41, 44
2, 66524, Note_on_c, 1, 69, 75
2, 66532, Note_on_c, 1, 55, 46
2, 66533, Note_off_c, 1, 55, 0
2, 66564, Note_off_c, 1, 41, 0
2, 66584, Note_off_c, 1, 69, 0
2, 66600, Note_on_c, 1, 67, 69
2, 66604, Note_off_c, 1, 62, 0
2, 66648, Note_off_c, 1, 67, 0
2, 66652, Control_c, 1, 64, 0
2, 66660, Note_on_c, 1, 69, 63
2, 66668, Control_c, 1, 64, 0
2, 66668, Control_c, 1, 64, 0
2, 66672, Control_c, 1, 64, 0
2, 66680, Control_c, 1, 64, 16
2, 66688, Control_c, 1, 64, 16
2, 66700, Control_c, 1, 64, 32
2, 66716, Control_c, 1, 64, 48
2, 66720, Control_c, 1, 64, 64
2, 66728, Note_off_c, 1, 69, 0
2, 66728, Note_on_c, 1, 67, 62
2, 66736, Control_c, 1, 64, 80
2, 66736, Control_c, 1, 64, 127
2, 66740, Control_c, 1, 64, 127
2, 66740, Control_c, 1, 64, 127
2, 66748, Control_c, 1, 64, 127
2, 66756, Control_c, 1, 64, 127
2, 66776, Note_on_c, 1, 63, 57
2, 66804, Note_off_c, 1, 67, 0
2, 66832, Note_off_c, 1, 63, 0
2, 66836, Note_on_c, 1, 62, 50
2, 66856, Control_c, 1, 64, 127
2, 66864, Control_c, 1, 64, 127
2, 66864, Control_c, 1, 64, 127
2, 66872, Control_c, 1, 64, 127
2, 66876, Control_c, 1, 64, 64
2, 66880, Note_off_c, 1, 62, 0
2, 66880, Note_on_c, 1, 64, 38
2, 66884, Control_c, 1, 64, 48
2, 66884, Control_c, 1, 64, 32
2, 66892, Control_c, 1, 64, 16
2, 66892, Control_c, 1, 64, 0
2, 66900, Control_c, 1, 64, 0
2, 66900, Control_c, 1, 64, 0
2, 66900, Control_c, 1, 64, 0
2, 66904, Control_c, 1, 64, 0
2, 66904, Note_on_c, 1, 74, 82
2, 66908, Note_off_c, 1, 64, 0
2, 66960, Note_off_c, 1, 74, 0
2, 66972, Note_on_c, 1, 72, 67
2, 67016, Note_off_c, 1, 57, 0
2, 67020, Note_off_c, 1, 72, 0
2, 67028, Note_on_c, 1, 74, 71
2, 67064, Note_on_c, 1, 57, 40
2, 67076, Control_c, 1, 64, 0
2, 67084, Control_c, 1, 64, 0
2, 67088, Note_on_c, 1, 63, 60
2, 67092, Control_c, 1, 64, 0
2, 67092, Control_c, 1, 64, 0
2, 67096, Control_c, 1, 64, 16
2, 67096, Control_c, 1, 64, 32
2, 67104, Control_c, 1, 64, 48
2, 67104, Note_on_c, 1, 72, 63
2, 67112, Note_off_c, 1, 74, 0
2, 67112, Control_c, 1, 64, 64
2, 67120, Control_c, 1, 64, 80
2, 67120, Control_c, 1, 64, 127
2, 67124, Control_c, 1, 64, 127
2, 67124, Control_c, 1, 64, 127
2, 67132, Control_c, 1, 64, 127
2, 67132, Control_c, 1, 64, 127
2, 67160, Note_on_c, 1, 69, 60
2, 67164, Note_off_c, 1, 63, 0
2, 67184, Note_off_c, 1, 57, 0
2, 67192, Note_off_c, 1, 72, 0
2, 67228, Note_off_c, 1, 69, 0
2, 67232, Note_on_c, 1, 67, 61
2, 67232, Control_c, 1, 64, 127
2, 67240, Control_c, 1, 64, 127
2, 67240, Control_c, 1, 64, 127
2, 67248, Control_c, 1, 64, 127
2, 67248, Control_c, 1, 64, 80
2, 67256, Control_c, 1, 64, 64
2, 67260, Control_c, 1, 64, 48
2, 67260, Control_c, 1, 64, 16
2, 67268, Note_off_c, 1, 67, 0
2, 67268, Control_c, 1, 64, 16
2, 67268, Control_c, 1, 64, 0
2, 67272, Control_c, 1, 64, 0
2, 67276, Control_c, 1, 64, 0
2, 67280, Note_on_c, 1, 56, 61
2, 67280, Control_c, 1, 64, 0
2, 67280, Note_on_c, 1, 62, 61
2, 67288, Note_on_c, 1, 79, 87
2, 67288, Note_on_c, 1, 46, 60
2, 67296, Control_c, 1, 64, 0
2, 67356, Note_off_c, 1, 79, 0
2, 67364, Note_on_c, 1, 77, 68
2, 67416, Note_off_c, 1, 77, 0
2, 67416, Note_off_c, 1, 62, 0
2, 67416, Control_c, 1, 64, 0
2, 67424, Note_on_c, 1, 79, 66
2, 67432, Note_off_c, 1, 56, 0
2, 67432, Control_c, 1, 64, 0
2, 67432, Control_c, 1, 64, 0
2, 67432, Control_c, 1, 64, 0
2, 67436, Control_c, 1, 64, 16
2, 67440, Control_c, 1, 64, 16
2, 67444, Control_c, 1, 64, 32
2, 67452, Control_c, 1, 64, 48
2, 67456, Control_c, 1, 64, 64
2, 67464, Control_c, 1, 64, 80
2, 67468, Note_off_c, 1, 46, 0
2, 67472, Control_c, 1, 64, 127
2, 67472, Control_c, 1, 64, 127
2, 67472, Control_c, 1, 64, 127
2, 67484, Control_c, 1, 64, 127
2, 67484, Control_c, 1, 64, 127
2, 67492, Note_on_c, 1, 77, 66
2, 67500, Note_off_c, 1, 79, 0
2, 67540, Note_on_c, 1, 74, 64
2, 67568, Note_off_c, 1, 77, 0
2, 67596, Note_off_c, 1, 74, 0
2, 67644, Control_c, 1, 64, 127
2, 67648, Control_c, 1, 64, 127
2, 67664, Note_on_c, 1, 59, 76
2, 67664, Control_c, 1, 64, 127
2, 67676, Note_on_c, 1, 44, 79
2, 67676, Control_c, 1, 64, 80
2, 67684, Control_c, 1, 64, 64
2, 67688, Control_c, 1, 64, 48
2, 67696, Control_c, 1, 64, 32
2, 67704, Note_on_c, 1, 86, 90
2, 67704, Control_c, 1, 64, 16
2, 67712, Control_c, 1, 64, 0
2, 67716, Control_c, 1, 64, 0
2, 67724, Control_c, 1, 64, 0
2, 67724, Control_c, 1, 64, 0
2, 67732, Note_off_c, 1, 86, 0
2, 67732, Control_c, 1, 64, 0
2, 67752, Note_on_c, 1, 84, 65
2, 67784, Note_off_c, 1, 84, 0
2, 67812, Note_on_c, 1, 86, 72
2, 67832, Control_c, 1, 64, 0
2, 67832, Control_c, 1, 64, 0
2, 67840, Control_c, 1, 64, 0
2, 67848, Control_c, 1, 64, 16
2, 67852, Control_c, 1, 64, 16
2, 67852, Control_c, 1, 64, 32
2, 67860, Control_c, 1, 64, 48
2, 67868, Control_c, 1, 64, 64
2, 67880, Control_c, 1, 64, 80
2, 67880, Control_c, 1, 64, 127
2, 67884, Control_c, 1, 64, 127
2, 67888, Control_c, 1, 64, 127
2, 67888, Note_on_c, 1, 84, 52
2, 67896, Note_off_c, 1, 59, 0
2, 67896, Control_c, 1, 64, 127
2, 67896, Control_c, 1, 64, 127
2, 67908, Note_off_c, 1, 86, 0
2, 67924, Note_on_c, 1, 80, 60
2, 67984, Note_off_c, 1, 80, 0
2, 67992, Note_off_c, 1, 84, 0
2, 68004, Note_off_c, 1, 44, 0
2, 68012, Note_on_c, 1, 79, 64
2, 68052, Note_on_c, 1, 89, 86
2, 68060, Note_on_c, 1, 43, 74
2, 68064, Note_on_c, 1, 58, 88
2, 68064, Control_c, 1, 64, 127
2, 68072, Control_c, 1, 64, 127
2, 68072, Control_c, 1, 64, 127
2, 68080, Control_c, 1, 64, 127
2, 68084, Control_c, 1, 64, 64
2, 68092, Control_c, 1, 64, 48
2, 68100, Control_c, 1, 64, 16
2, 68100, Control_c, 1, 64, 16
2, 68108, Control_c, 1, 64, 0
2, 68112, Control_c, 1, 64, 0
2, 68120, Control_c, 1, 64, 0
2, 68128, Control_c, 1, 64, 0
2, 68132, Control_c, 1, 64, 0
2, 68148, Note_off_c, 1, 89, 0
2, 68148, Note_on_c, 1, 86, 80
2, 68156, Note_off_c, 1, 79, 0
2, 68168, Note_off_c, 1, 86, 0
2, 68188, Note_on_c, 1, 87, 81
2, 68256, Note_off_c, 1, 87, 0
2, 68256, Note_on_c, 1, 82, 79
2, 68296, Note_off_c, 1, 82, 0
2, 68324, Note_on_c, 1, 79, 62
2, 68352, Note_off_c, 1, 79, 0
2, 68388, Note_on_c, 1, 77, 74
2, 68432, Note_off_c, 1, 77, 0
2, 68436, Note_off_c, 1, 43, 0
2, 68456, Note_on_c, 1, 76, 70
2, 68508, Note_off_c, 1, 76, 0
2, 68528, Note_on_c, 1, 75, 71
2, 68596, Note_off_c, 1, 75, 0
2, 68620, Note_on_c, 1, 74, 67
2, 68652, Control_c, 1, 64, 0
2, 68672, Control_c, 1, 64, 0
2, 68708, Note_off_c, 1, 58, 0
2, 68720, Note_on_c, 1, 86, 93
2, 68728, Note_off_c, 1, 74, 0
2, 68728, Control_c, 1, 64, 0
2, 68732, Control_c, 1, 64, 0
2, 68796, Note_off_c, 1, 86, 0
2, 68816, Note_on_c, 1, 58, 60
2, 68824, Note_on_c, 1, 74, 65
2, 68824, Note_on_c, 1, 43, 59
2, 68864, Note_off_c, 1, 74, 0
2, 68932, Note_on_c, 1, 73, 69
2, 68988, Note_off_c, 1, 73, 0
2, 69028, Note_on_c, 1, 85, 83
2, 69028, Control_c, 1, 64, 0
2, 69028, Control_c, 1, 64, 0
2, 69036, Control_c, 1, 64, 0
2, 69040, Control_c, 1, 64, 0
2, 69048, Control_c, 1, 64, 16
2, 69048, Control_c, 1, 64, 16
2, 69056, Control_c, 1, 64, 32
2, 69056, Control_c, 1, 64, 48
2, 69060, Control_c, 1, 64, 64
2, 69068, Control_c, 1, 64, 80
2, 69068, Control_c, 1, 64, 127
2, 69076, Control_c, 1, 64, 127
2, 69076, Control_c, 1, 64, 127
2, 69084, Note_off_c, 1, 43, 0
2, 69084, Note_off_c, 1, 58, 0
2, 69084, Control_c, 1, 64, 127
2, 69088, Control_c, 1, 64, 127
2, 69092, Note_off_c, 1, 85, 0
2, 69128, Note_on_c, 1, 73, 68
2, 69176, Control_c, 1, 64, 127
2, 69180, Control_c, 1, 64, 127
2, 69184, Note_off_c, 1, 73, 0
2, 69184, Control_c, 1, 64, 127
2, 69192, Note_on_c, 1, 42, 63
2, 69192, Control_c, 1, 64, 80
2, 69196, Control_c, 1, 64, 64
2, 69200, Control_c, 1, 64, 48
2, 69204, Control_c, 1, 64, 32
2, 69204, Control_c, 1, 64, 16
2, 69204, Control_c, 1, 64, 16
2, 69212, Note_on_c, 1, 72, 62
2, 69212, Note_on_c, 1, 57, 51
2, 69220, Control_c, 1, 64, 0
2, 69220, Control_c, 1, 64, 0
2, 69220, Control_c, 1, 64, 0
2, 69224, Control_c, 1, 64, 0
2, 69224, Control_c, 1, 64, 0
2, 69260, Note_off_c, 1, 72, 0
2, 69300, Note_on_c, 1, 73, 68
2, 69384, Control_c, 1, 64, 0
2, 69396, Note_on_c, 1, 74, 74
2, 69396, Control_c, 1, 64, 0
2, 69396, Control_c, 1, 64, 0
2, 69404, Note_off_c, 1, 57, 0
2, 69404, Control_c, 1, 64, 16
2, 69404, Control_c, 1, 64, 16
2, 69408, Note_off_c, 1, 73, 0
2, 69408, Control_c, 1, 64, 32
2, 69416, Control_c, 1, 64, 48
2, 69416, Control_c, 1, 64, 64
2, 69424, Control_c, 1, 64, 80
2, 69424, Control_c, 1, 64, 127
2, 69428, Control_c, 1, 64, 127
2, 69432, Control_c, 1, 64, 127
2, 69436, Control_c, 1, 64, 127
2, 69444, Note_off_c, 1, 74, 0
2, 69444, Control_c, 1, 64, 127
2, 69476, Note_off_c, 1, 42, 0
2, 69484, Note_on_c, 1, 75, 85
2, 69504, Control_c, 1, 64, 127
2, 69512, Control_c, 1, 64, 127
2, 69512, Control_c, 1, 64, 127
2, 69520, Control_c, 1, 64, 127
2, 69520, Control_c, 1, 64, 64
2, 69524, Control_c, 1, 64, 48
2, 69524, Control_c, 1, 64, 16
2, 69532, Control_c, 1, 64, 16
2, 69532, Control_c, 1, 64, 0
2, 69532, Control_c, 1, 64, 0
2, 69540, Control_c, 1, 64, 0
2, 69540, Control_c, 1, 64, 0
2, 69544, Control_c, 1, 64, 0
2, 69552, Note_on_c, 1, 56, 41
2, 69572, Note_on_c, 1, 41, 31
2, 69588, Note_on_c, 1, 72, 69
2, 69600, Note_off_c, 1, 75, 0
2, 69636, Note_off_c, 1, 72, 0
2, 69684, Note_on_c, 1, 68, 70
2, 69704, Note_off_c, 1, 41, 0
2, 69732, Note_off_c, 1, 68, 0
2, 69752, Control_c, 1, 64, 0
2, 69752, Control_c, 1, 64, 0
2, 69756, Note_off_c, 1, 56, 0
2, 69764, Control_c, 1, 64, 0
2, 69764, Control_c, 1, 64, 0
2, 69772, Control_c, 1, 64, 16
2, 69776, Control_c, 1, 64, 16
2, 69784, Note_on_c, 1, 65, 41
2, 69792, Control_c, 1, 64, 32
2, 69792, Control_c, 1, 64, 48
2, 69800, Control_c, 1, 64, 64
2, 69804, Control_c, 1, 64, 80
2, 69808, Note_off_c, 1, 65, 0
2, 69812, Control_c, 1, 64, 127
2, 69820, Control_c, 1, 64, 127
2, 69820, Control_c, 1, 64, 127
2, 69824, Control_c, 1, 64, 127
2, 69828, Control_c, 1, 64, 127
2, 69860, Note_on_c, 1, 67, 73
2, 69892, Control_c, 1, 64, 127
2, 69896, Control_c, 1, 64, 127
2, 69900, Control_c, 1, 64, 127
2, 69900, Control_c, 1, 64, 127
2, 69908, Control_c, 1, 64, 80
2, 69916, Control_c, 1, 64, 48
2, 69916, Control_c, 1, 64, 32
2, 69920, Control_c, 1, 64, 16
2, 69920, Control_c, 1, 64, 0
2, 69924, Control_c, 1, 64, 0
2, 69928, Note_on_c, 1, 56, 52
2, 69928, Note_on_c, 1, 63, 60
2, 69936, Control_c, 1, 64, 0
2, 69936, Note_on_c, 1, 60, 52
2, 69940, Control_c, 1, 64, 0
2, 69940, Control_c, 1, 64, 0
2, 69948, Note_on_c, 1, 68, 70
2, 69948, Note_on_c, 1, 58, 40
2, 69968, Note_off_c, 1, 67, 0
2, 70016, Note_off_c, 1, 68, 0
2, 70024, Note_on_c, 1, 70, 70
2, 70044, Note_off_c, 1, 70, 0
2, 70052, Note_off_c, 1, 63, 0
2, 70056, Note_off_c, 1, 60, 0
2, 70064, Control_c, 1, 64, 0
2, 70072, Control_c, 1, 64, 0
2, 70080, Note_off_c, 1, 58, 0
2, 70080, Control_c, 1, 64, 0
2, 70084, Note_off_c, 1, 56, 0
2, 70092, Control_c, 1, 64, 0
2, 70100, Note_on_c, 1, 72, 70
2, 70104, Control_c, 1, 64, 16
2, 70112, Control_c, 1, 64, 16
2, 70124, Control_c, 1, 64, 32
2, 70132, Control_c, 1, 64, 48
2, 70148, Control_c, 1, 64, 64
2, 70148, Note_on_c, 1, 75, 69
2, 70152, Note_off_c, 1, 72, 0
2, 70160, Control_c, 1, 64, 80
2, 70160, Control_c, 1, 64, 127
2, 70160, Control_c, 1, 64, 127
2, 70168, Control_c, 1, 64, 127
2, 70180, Control_c, 1, 64, 127
2, 70192, Control_c, 1, 64, 127
2, 70204, Note_on_c, 1, 79, 71
2, 70208, Control_c, 1, 64, 127
2, 70220, Note_off_c, 1, 75, 0
2, 70220, Control_c, 1, 64, 127
2, 70228, Control_c, 1, 64, 127
2, 70236, Control_c, 1, 64, 127
2, 70248, Control_c, 1, 64, 64
2, 70256, Control_c, 1, 64, 48
2, 70256, Control_c, 1, 64, 32
2, 70264, Control_c, 1, 64, 16
2, 70272, Control_c, 1, 64, 0
2, 70276, Control_c, 1, 64, 0
2, 70276, Control_c, 1, 64, 0
2, 70276, Control_c, 1, 64, 0
2, 70284, Note_off_c, 1, 79, 0
2, 70284, Control_c, 1, 64, 0
2, 70284, Note_on_c, 1, 82, 76
2, 70324, Note_on_c, 1, 34, 63
2, 70336, Note_on_c, 1, 79, 77
2, 70380, Note_off_c, 1, 82, 0
2, 70412, Control_c, 1, 64, 0
2, 70416, Note_off_c, 1, 79, 0
2, 70420, Control_c, 1, 64, 0
2, 70428, Control_c, 1, 64, 0
2, 70428, Control_c, 1, 64, 0
2, 70432, Control_c, 1, 64, 16
2, 70436, Note_off_c, 1, 34, 0
2, 70436, Control_c, 1, 64, 16
2, 70440, Control_c, 1, 64, 32
2, 70440, Control_c, 1, 64, 48
2, 70448, Control_c, 1, 64, 64
2, 70452, Control_c, 1, 64, 80
2, 70456, Control_c, 1, 64, 127
2, 70460, Control_c, 1, 64, 127
2, 70460, Control_c, 1, 64, 127
2, 70468, Control_c, 1, 64, 127
2, 70468, Control_c, 1, 64, 127
2, 70544, Note_on_c, 1, 70, 73
2, 70624, Note_off_c, 1, 70, 0
2, 70672, Control_c, 1, 64, 127
2, 70680, Control_c, 1, 64, 127
2, 70680, Control_c, 1, 64, 127
2, 70684, Control_c, 1, 64, 64
2, 70688, Control_c, 1, 64, 48
2, 70692, Control_c, 1, 64, 16
2, 70692, Note_on_c, 1, 59, 58
2, 70696, Note_on_c, 1, 56, 60
2, 70700, Control_c, 1, 64, 0
2, 70700, Control_c, 1, 64, 0
2, 70708, Note_on_c, 1, 67, 44
2, 70708, Control_c, 1, 64, 0
2, 70708, Note_on_c, 1, 62, 54
2, 70712, Control_c, 1, 64, 0
2, 70716, Note_on_c, 1, 71, 67
2, 70828, Note_off_c, 1, 67, 0
2, 70836, Note_off_c, 1, 62, 0
2, 70844, Note_off_c, 1, 59, 0
2, 70844, Control_c, 1, 64, 0
2, 70848, Control_c, 1, 64, 0
2, 70848, Control_c, 1, 64, 0
2, 70856, Control_c, 1, 64, 0
2, 70856, Control_c, 1, 64, 16
2, 70864, Control_c, 1, 64, 16
2, 70864, Control_c, 1, 64, 32
2, 70868, Control_c, 1, 64, 48
2, 70872, Note_off_c, 1, 56, 0
2, 70872, Control_c, 1, 64, 64
2, 70884, Control_c, 1, 64, 80
2, 70884, Control_c, 1, 64, 127
2, 70884, Control_c, 1, 64, 127
2, 70892, Control_c, 1, 64, 127
2, 70892, Control_c, 1, 64, 127
2, 70896, Control_c, 1, 64, 127
2, 70912, Note_on_c, 1, 83, 88
2, 70980, Note_off_c, 1, 71, 0
2, 70992, Note_off_c, 1, 83, 0
2, 71048, Control_c, 1, 64, 127
2, 71052, Control_c, 1, 64, 127
2, 71060, Control_c, 1, 64, 127
2, 71076, Control_c, 1, 64, 80
2, 71080, Control_c, 1, 64, 64
2, 71088, Control_c, 1, 64, 48
2, 71096, Control_c, 1, 64, 32
2, 71100, Control_c, 1, 64, 16
2, 71104, Control_c, 1, 64, 0
2, 71104, Control_c, 1, 64, 0
2, 71108, Control_c, 1, 64, 0
2, 71108, Control_c, 1, 64, 0
2, 71116, Note_on_c, 1, 53, 60
2, 71116, Control_c, 1, 64, 0
2, 71120, Note_on_c, 1, 43, 64
2, 71124, Note_on_c, 1, 77, 61
2, 71124, Note_on_c, 1, 58, 62
2, 71128, Note_on_c, 1, 82, 74
2, 71128, Note_on_c, 1, 70, 68
2, 71204, Note_off_c, 1, 70, 0
2, 71204, Note_off_c, 1, 43, 0
2, 71212, Control_c, 1, 64, 0
2, 71212, Control_c, 1, 64, 0
2, 71216, Note_off_c, 1, 53, 0
2, 71224, Control_c, 1, 64, 0
2, 71224, Control_c, 1, 64, 0
2, 71224, Control_c, 1, 64, 16
2, 71232, Note_off_c, 1, 58, 0
2, 71232, Control_c, 1, 64, 16
2, 71240, Note_off_c, 1, 77, 0
2, 71240, Control_c, 1, 64, 32
2, 71240, Control_c, 1, 64, 48
2, 71244, Control_c, 1, 64, 64
2, 71252, Control_c, 1, 64, 80
2, 71252, Control_c, 1, 64, 127
2, 71252, Control_c, 1, 64, 127
2, 71260, Note_off_c, 1, 82, 0
2, 71260, Control_c, 1, 64, 127
2, 71264, Control_c, 1, 64, 127
2, 71264, Control_c, 1, 64, 127
2, 71328, Note_on_c, 1, 72, 65
2, 71332, Note_on_c, 1, 84, 74
2, 71356, Note_on_c, 1, 63, 30
2, 71396, Note_off_c, 1, 84, 0
2, 71396, Note_off_c, 1, 72, 0
2, 71400, Note_off_c, 1, 63, 0
2, 71444, Control_c, 1, 64, 127
2, 71448, Control_c, 1, 64, 127
2, 71456, Control_c, 1, 64, 127
2, 71456, Control_c, 1, 64, 127
2, 71464, Control_c, 1, 64, 80
2, 71472, Control_c, 1, 64, 48
2, 71472, Control_c, 1, 64, 32
2, 71472, Control_c, 1, 64, 16
2, 71476, Control_c, 1, 64, 16
2, 71476, Control_c, 1, 64, 0
2, 71484, Control_c, 1, 64, 0
2, 71484, Note_on_c, 1, 65, 54
2, 71492, Note_on_c, 1, 62, 47
2, 71492, Note_on_c, 1, 58, 45
2, 71492, Control_c, 1, 64, 0
2, 71496, Control_c, 1, 64, 0
2, 71500, Note_on_c, 1, 82, 73
2, 71504, Note_on_c, 1, 55, 40
2, 71504, Control_c, 1, 64, 0
2, 71512, Note_on_c, 1, 70, 54
2, 71532, Note_off_c, 1, 65, 0
2, 71540, Note_off_c, 1, 62, 0
2, 71540, Note_on_c, 1, 80, 13
2, 71544, Note_off_c, 1, 70, 0
2, 71560, Note_off_c, 1, 58, 0
2, 71564, Note_off_c, 1, 82, 0
2, 71572, Note_off_c, 1, 55, 0
2, 71588, Note_off_c, 1, 80, 0
2, 71612, Note_on_c, 1, 84, 77
2, 71636, Note_on_c, 1, 72, 52
2, 71636, Note_on_c, 1, 71, 58
2, 71656, Note_off_c, 1, 71, 0
2, 71660, Note_off_c, 1, 72, 0
2, 71668, Note_off_c, 1, 84, 0
2, 71728, Control_c, 1, 64, 0
2, 71732, Note_on_c, 1, 70, 71
2, 71736, Note_on_c, 1, 82, 79
2, 71736, Note_on_c, 1, 58, 74
2, 71736, Control_c, 1, 64, 0
2, 71744, Control_c, 1, 64, 0
2, 71744, Control_c, 1, 64, 0
2, 71748, Control_c, 1, 64, 16
2, 71752, Control_c, 1, 64, 16
2, 71756, Control_c, 1, 64, 32
2, 71764, Control_c, 1, 64, 48
2, 71764, Control_c, 1, 64, 64
2, 71772, Control_c, 1, 64, 80
2, 71776, Control_c, 1, 64, 127
2, 71784, Control_c, 1, 64, 127
2, 71792, Control_c, 1, 64, 127
2, 71792, Control_c, 1, 64, 127
2, 71796, Control_c, 1, 64, 127
2, 71800, Note_on_c, 1, 80, 33
2, 71812, Note_off_c, 1, 58, 0
2, 71820, Note_off_c, 1, 70, 0
2, 71824, Note_off_c, 1, 80, 0
2, 71824, Note_off_c, 1, 82, 0
2, 71852, Control_c, 1, 64, 127
2, 71852, Control_c, 1, 64, 127
2, 71860, Control_c, 1, 64, 127
2, 71860, Control_c, 1, 64, 80
2, 71868, Control_c, 1, 64, 48
2, 71872, Control_c, 1, 64, 32
2, 71872, Control_c, 1, 64, 16
2, 71880, Note_on_c, 1, 42, 61
2, 71880, Control_c, 1, 64, 0
2, 71880, Control_c, 1, 64, 0
2, 71884, Control_c, 1, 64, 0
2, 71888, Control_c, 1, 64, 0
2, 71888, Control_c, 1, 64, 0
2, 71892, Note_on_c, 1, 69, 58
2, 71900, Note_on_c, 1, 81, 57
2, 71900, Note_on_c, 1, 57, 50
2, 71912, Note_off_c, 1, 69, 0
2, 71948, Note_off_c, 1, 81, 0
2, 71948, Note_off_c, 1, 42, 0
2, 71968, Control_c, 1, 64, 0
2, 71976, Control_c, 1, 64, 0
2, 71980, Control_c, 1, 64, 0
2, 71988, Control_c, 1, 64, 0
2, 71988, Control_c, 1, 64, 16
2, 71996, Control_c, 1, 64, 16
2, 71996, Control_c, 1, 64, 32
2, 72000, Control_c, 1, 64, 48
2, 72008, Control_c, 1, 64, 64
2, 72024, Control_c, 1, 64, 80
2, 72024, Control_c, 1, 64, 127
2, 72024, Control_c, 1, 64, 127
2, 72028, Control_c, 1, 64, 127
2, 72036, Note_off_c, 1, 57, 0
2, 72036, Control_c, 1, 64, 127
2, 72044, Control_c, 1, 64, 127
2, 72140, Note_on_c, 1, 90, 92
2, 72144, Note_on_c, 1, 78, 80
2, 72160, Note_on_c, 1, 80, 54
2, 72180, Note_off_c, 1, 80, 0
2, 72180, Note_on_c, 1, 91, 25
2, 72192, Note_off_c, 1, 78, 0
2, 72212, Note_off_c, 1, 91, 0
2, 72220, Note_off_c, 1, 90, 0
2, 72240, Control_c, 1, 64, 127
2, 72240, Control_c, 1, 64, 127
2, 72248, Control_c, 1, 64, 127
2, 72248, Control_c, 1, 64, 80
2, 72256, Control_c, 1, 64, 48
2, 72260, Control_c, 1, 64, 32
2, 72260, Control_c, 1, 64, 16
2, 72264, Control_c, 1, 64, 0
2, 72268, Control_c, 1, 64, 0
2, 72268, Control_c, 1, 64, 0
2, 72276, Control_c, 1, 64, 0
2, 72276, Note_on_c, 1, 69, 60
2, 72280, Control_c, 1, 64, 0
2, 72288, Note_on_c, 1, 54, 49
2, 72288, Note_on_c, 1, 63, 52
2, 72304, Note_on_c, 1, 77, 69
2, 72336, Note_off_c, 1, 69, 0
2, 72352, Note_off_c, 1, 77, 0
2, 72364, Note_off_c, 1, 63, 0
2, 72392, Note_off_c, 1, 54, 0
2, 72492, Control_c, 1, 64, 0
2, 72496, Control_c, 1, 64, 0
2, 72500, Control_c, 1, 64, 0
2, 72508, Note_on_c, 1, 57, 63
2, 72508, Control_c, 1, 64, 0
2, 72508, Control_c, 1, 64, 16
2, 72512, Control_c, 1, 64, 16
2, 72516, Control_c, 1, 64, 32
2, 72516, Control_c, 1, 64, 48
2, 72520, Note_on_c, 1, 76, 61
2, 72520, Note_on_c, 1, 88, 72
2, 72520, Control_c, 1, 64, 64
2, 72528, Control_c, 1, 64, 80
2, 72536, Control_c, 1, 64, 127
2, 72536, Control_c, 1, 64, 127
2, 72536, Control_c, 1, 64, 127
2, 72540, Control_c, 1, 64, 127
2, 72548, Control_c, 1, 64, 127
2, 72568, Note_off_c, 1, 76, 0
2, 72576, Note_off_c, 1, 88, 0
2, 72588, Note_off_c, 1, 57, 0
2, 72644, Control_c, 1, 64, 127
2, 72644, Control_c, 1, 64, 127
2, 72652, Control_c, 1, 64, 127
2, 72656, Control_c, 1, 64, 64
2, 72656, Control_c, 1, 64, 48
2, 72660, Control_c, 1, 64, 32
2, 72664, Control_c, 1, 64, 16
2, 72664, Control_c, 1, 64, 0
2, 72672, Control_c, 1, 64, 0
2, 72672, Control_c, 1, 64, 0
2, 72672, Control_c, 1, 64, 0
2, 72684, Control_c, 1, 64, 0
2, 72688, Note_on_c, 1, 84, 51
2, 72692, Note_on_c, 1, 56, 55
2, 72692, Note_on_c, 1, 80, 52
2, 72700, Note_on_c, 1, 87, 60
2, 72700, Note_on_c, 1, 75, 53
2, 72700, Note_on_c, 1, 41, 52
2, 72768, Note_off_c, 1, 87, 0
2, 72768, Note_off_c, 1, 84, 0
2, 72772, Note_off_c, 1, 75, 0
2, 72776, Note_off_c, 1, 80, 0
2, 72808, Control_c, 1, 64, 0
2, 72808, Control_c, 1, 64, 0
2, 72816, Note_off_c, 1, 41, 0
2, 72820, Control_c, 1, 64, 0
2, 72820, Control_c, 1, 64, 0
2, 72828, Control_c, 1, 64, 16
2, 72828, Control_c, 1, 64, 16
2, 72836, Control_c, 1, 64, 32
2, 72840, Control_c, 1, 64, 48
2, 72848, Control_c, 1, 64, 64
2, 72856, Control_c, 1, 64, 80
2, 72856, Control_c, 1, 64, 127
2, 72860, Control_c, 1, 64, 127
2, 72864, Control_c, 1, 64, 127
2, 72868, Control_c, 1, 64, 127
2, 72876, Note_off_c, 1, 56, 0
2, 72876, Control_c, 1, 64, 127
2, 72924, Note_on_c, 1, 84, 71
2, 72924, Note_on_c, 1, 72, 58
2, 72964, Note_off_c, 1, 72, 0
2, 72980, Note_off_c, 1, 84, 0
2, 72980, Note_on_c, 1, 61, 24
2, 73032, Note_off_c, 1, 61, 0
2, 73048, Control_c, 1, 64, 127
2, 73048, Control_c, 1, 64, 127
2, 73052, Control_c, 1, 64, 127
2, 73052, Control_c, 1, 64, 80
2, 73060, Control_c, 1, 64, 64
2, 73068, Control_c, 1, 64, 48
2, 73068, Control_c, 1, 64, 16
2, 73068, Control_c, 1, 64, 16
2, 73072, Control_c, 1, 64, 0
2, 73080, Control_c, 1, 64, 0
2, 73080, Note_on_c, 1, 70, 57
2, 73084, Note_on_c, 1, 65, 46
2, 73088, Note_on_c, 1, 63, 43
2, 73088, Control_c, 1, 64, 0
2, 73092, Note_on_c, 1, 56, 48
2, 73096, Note_on_c, 1, 58, 50
2, 73096, Note_on_c, 1, 82, 59
2, 73100, Control_c, 1, 64, 0
2, 73108, Note_on_c, 1, 60, 44
2, 73108, Control_c, 1, 64, 0
2, 73116, Note_off_c, 1, 70, 0
2, 73136, Note_off_c, 1, 82, 0
2, 73196, Note_on_c, 1, 69, 55
2, 73216, Control_c, 1, 64, 0
2, 73232, Note_off_c, 1, 69, 0
2, 73232, Control_c, 1, 64, 0
2, 73236, Control_c, 1, 64, 0
2, 73240, Note_off_c, 1, 60, 0
2, 73244, Note_off_c, 1, 63, 0
2, 73244, Control_c, 1, 64, 0
2, 73248, Note_off_c, 1, 65, 0
2, 73252, Control_c, 1, 64, 16
2, 73260, Note_off_c, 1, 58, 0
2, 73260, Control_c, 1, 64, 16
2, 73260, Control_c, 1, 64, 32
2, 73264, Note_off_c, 1, 56, 0
2, 73272, Control_c, 1, 64, 48
2, 73272, Control_c, 1, 64, 64
2, 73280, Control_c, 1, 64, 80
2, 73284, Control_c, 1, 64, 127
2, 73284, Control_c, 1, 64, 127
2, 73288, Control_c, 1, 64, 127
2, 73292, Control_c, 1, 64, 127
2, 73300, Note_on_c, 1, 80, 58
2, 73300, Control_c, 1, 64, 127
2, 73320, Note_on_c, 1, 68, 57
2, 73360, Note_off_c, 1, 68, 0
2, 73372, Note_off_c, 1, 80, 0
2, 73428, Control_c, 1, 64, 127
2, 73436, Control_c, 1, 64, 127
2, 73436, Control_c, 1, 64, 127
2, 73440, Control_c, 1, 64, 80
2, 73448, Control_c, 1, 64, 64
2, 73456, Control_c, 1, 64, 32
2, 73456, Control_c, 1, 64, 16
2, 73456, Control_c, 1, 64, 0
2, 73464, Control_c, 1, 64, 0
2, 73464, Control_c, 1, 64, 0
2, 73468, Control_c, 1, 64, 0
2, 73472, Note_on_c, 1, 46, 50
2, 73476, Control_c, 1, 64, 0
2, 73476, Note_on_c, 1, 74, 52
2, 73480, Note_on_c, 1, 71, 54
2, 73484, Note_on_c, 1, 56, 52
2, 73484, Note_on_c, 1, 62, 45
2, 73484, Note_on_c, 1, 79, 60
2, 73492, Note_on_c, 1, 67, 53
2, 73524, Note_off_c, 1, 67, 0
2, 73560, Note_off_c, 1, 71, 0
2, 73564, Note_off_c, 1, 79, 0
2, 73564, Note_off_c, 1, 62, 0
2, 73572, Note_off_c, 1, 74, 0
2, 73580, Control_c, 1, 64, 0
2, 73580, Control_c, 1, 64, 0
2, 73584, Control_c, 1, 64, 0
2, 73592, Control_c, 1, 64, 0
2, 73600, Control_c, 1, 64, 16
2, 73600, Control_c, 1, 64, 16
2, 73604, Control_c, 1, 64, 32
2, 73608, Note_off_c, 1, 56, 0
2, 73612, Control_c, 1, 64, 48
2, 73620, Control_c, 1, 64, 64
2, 73628, Control_c, 1, 64, 80
2, 73632, Control_c, 1, 64, 127
2, 73632, Control_c, 1, 64, 127
2, 73636, Control_c, 1, 64, 127
2, 73640, Note_off_c, 1, 46, 0
2, 73640, Control_c, 1, 64, 127
2, 73648, Control_c, 1, 64, 127
2, 73700, Note_on_c, 1, 70, 68
2, 73708, Note_on_c, 1, 82, 65
2, 73720, Note_on_c, 1, 80, 39
2, 73736, Note_on_c, 1, 46, 34
2, 73744, Note_off_c, 1, 70, 0
2, 73748, Note_off_c, 1, 80, 0
2, 73764, Note_off_c, 1, 82, 0
2, 73804, Control_c, 1, 64, 127
2, 73812, Control_c, 1, 64, 127
2, 73812, Control_c, 1, 64, 127
2, 73816, Control_c, 1, 64, 80
2, 73824, Control_c, 1, 64, 64
2, 73832, Control_c, 1, 64, 32
2, 73832, Control_c, 1, 64, 16
2, 73832, Control_c, 1, 64, 16
2, 73836, Control_c, 1, 64, 0
2, 73836, Control_c, 1, 64, 0
2, 73844, Note_on_c, 1, 34, 54
2, 73860, Note_on_c, 1, 72, 53
2, 73860, Note_on_c, 1, 84, 67
2, 73872, Control_c, 1, 64, 0
2, 73872, Control_c, 1, 64, 16
2, 73880, Control_c, 1, 64, 16
2, 73884, Note_off_c, 1, 34, 0
2, 73884, Note_off_c, 1, 46, 0
2, 73888, Control_c, 1, 64, 32
2, 73892, Control_c, 1, 64, 48
2, 73892, Control_c, 1, 64, 64
2, 73900, Control_c, 1, 64, 80
2, 73904, Control_c, 1, 64, 127
2, 73904, Control_c, 1, 64, 127
2, 73908, Note_off_c, 1, 72, 0
2, 73912, Control_c, 1, 64, 127
2, 73912, Control_c, 1, 64, 127
2, 73920, Control_c, 1, 64, 127
2, 73928, Note_off_c, 1, 84, 0
2, 74036, Control_c, 1, 64, 127
2, 74044, Control_c, 1, 64, 127
2, 74048, Control_c, 1, 64, 127
2, 74056, Control_c, 1, 64, 64
2, 74056, Control_c, 1, 64, 48
2, 74064, Control_c, 1, 64, 16
2, 74064, Control_c, 1, 64, 0
2, 74064, Control_c, 1, 64, 0
2, 74068, Control_c, 1, 64, 0
2, 74072, Control_c, 1, 64, 0
2, 74076, Control_c, 1, 64, 0
2, 74080, Note_on_c, 1, 45, 63
2, 74092, Note_on_c, 1, 60, 63
2, 74092, Note_on_c, 1, 87, 79
2, 74092, Note_on_c, 1, 75, 77
2, 74096, Note_on_c, 1, 54, 60
2, 74112, Note_on_c, 1, 59, 41
2, 74116, Control_c, 1, 64, 0
2, 74132, Control_c, 1, 64, 0
2, 74132, Control_c, 1, 64, 0
2, 74140, Note_off_c, 1, 59, 0
2, 74140, Note_off_c, 1, 60, 0
2, 74144, Control_c, 1, 64, 16
2, 74148, Note_off_c, 1, 75, 0
2, 74148, Note_off_c, 1, 45, 0
2, 74152, Control_c, 1, 64, 16
2, 74152, Control_c, 1, 64, 32
2, 74160, Control_c, 1, 64, 48
2, 74160, Control_c, 1, 64, 64
2, 74164, Control_c, 1, 64, 80
2, 74168, Control_c, 1, 64, 127
2, 74172, Note_off_c, 1, 54, 0
2, 74172, Control_c, 1, 64, 127
2, 74172, Control_c, 1, 64, 127
2, 74180, Note_off_c, 1, 87, 0
2, 74180, Control_c, 1, 64, 127
2, 74184, Control_c, 1, 64, 127
2, 74220, Control_c, 1, 64, 127
2, 74228, Control_c, 1, 64, 127
2, 74232, Control_c, 1, 64, 127
2, 74240, Control_c, 1, 64, 80
2, 74244, Control_c, 1, 64, 48
2, 74248, Note_on_c, 1, 46, 61
2, 74248, Control_c, 1, 64, 16
2, 74252, Control_c, 1, 64, 16
2, 74256, Note_on_c, 1, 56, 45
2, 74256, Control_c, 1, 64, 0
2, 74260, Control_c, 1, 64, 0
2, 74260, Control_c, 1, 64, 0
2, 74268, Control_c, 1, 64, 0
2, 74268, Note_on_c, 1, 61, 51
2, 74268, Control_c, 1, 64, 0
2, 74364, Note_off_c, 1, 61, 0
2, 74364, Note_on_c, 1, 77, 75
2, 74364, Note_on_c, 1, 84, 67
2, 74368, Note_on_c, 1, 87, 73
2, 74372, Note_off_c, 1, 56, 0
2, 74376, Note_on_c, 1, 90, 87
2, 74396, Note_off_c, 1, 46, 0
2, 74412, Control_c, 1, 64, 0
2, 74416, Control_c, 1, 64, 0
2, 74416, Control_c, 1, 64, 0
2, 74424, Control_c, 1, 64, 0
2, 74432, Control_c, 1, 64, 16
2, 74432, Control_c, 1, 64, 16
2, 74432, Control_c, 1, 64, 32
2, 74440, Control_c, 1, 64, 48
2, 74440, Control_c, 1, 64, 64
2, 74444, Control_c, 1, 64, 80
2, 74452, Control_c, 1, 64, 127
2, 74452, Control_c, 1, 64, 127
2, 74460, Control_c, 1, 64, 127
2, 74460, Control_c, 1, 64, 127
2, 74464, Control_c, 1, 64, 127
2, 74488, Note_off_c, 1, 87, 0
2, 74512, Note_off_c, 1, 84, 0
2, 74528, Note_off_c, 1, 90, 0
2, 74556, Note_off_c, 1, 77, 0
2, 74608, Control_c, 1, 64, 127
2, 74608, Control_c, 1, 64, 127
2, 74616, Control_c, 1, 64, 127
2, 74624, Control_c, 1, 64, 64
2, 74624, Control_c, 1, 64, 48
2, 74624, Control_c, 1, 64, 16
2, 74628, Control_c, 1, 64, 16
2, 74636, Control_c, 1, 64, 0
2, 74636, Note_on_c, 1, 54, 69
2, 74636, Note_on_c, 1, 38, 50
2, 74644, Control_c, 1, 64, 0
2, 74644, Control_c, 1, 64, 0
2, 74648, Control_c, 1, 64, 0
2, 74652, Note_on_c, 1, 87, 60
2, 74652, Note_on_c, 1, 77, 70
2, 74656, Note_on_c, 1, 84, 65
2, 74656, Note_on_c, 1, 90, 71
2, 74712, Note_off_c, 1, 84, 0
2, 74732, Note_off_c, 1, 90, 0
2, 74732, Note_off_c, 1, 77, 0
2, 74732, Note_off_c, 1, 87, 0
2, 74740, Control_c, 1, 64, 0
2, 74744, Control_c, 1, 64, 0
2, 74752, Control_c, 1, 64, 0
2, 74760, Control_c, 1, 64, 0
2, 74760, Control_c, 1, 64, 16
2, 74764, Control_c, 1, 64, 16
2, 74772, Control_c, 1, 64, 32
2, 74780, Control_c, 1, 64, 48
2, 74784, Control_c, 1, 64, 64
2, 74792, Control_c, 1, 64, 80
2, 74792, Control_c, 1, 64, 127
2, 74800, Control_c, 1, 64, 127
2, 74800, Control_c, 1, 64, 127
2, 74808, Control_c, 1, 64, 127
2, 74812, Control_c, 1, 64, 127
2, 74816, Note_off_c, 1, 38, 0
2, 74828, Note_off_c, 1, 54, 0
2, 74924, Note_on_c, 1, 82, 79
2, 74928, Note_on_c, 1, 79, 71
2, 74928, Note_on_c, 1, 75, 75
2, 74932, Note_on_c, 1, 87, 76
2, 74964, Note_off_c, 1, 75, 0
2, 74976, Note_off_c, 1, 79, 0
2, 74984, Control_c, 1, 64, 127
2, 74992, Control_c, 1, 64, 127
2, 74992, Control_c, 1, 64, 127
2, 74996, Control_c, 1, 64, 80
2, 75004, Control_c, 1, 64, 64
2, 75004, Control_c, 1, 64, 32
2, 75008, Note_off_c, 1, 82, 0
2, 75012, Note_off_c, 1, 87, 0
2, 75012, Control_c, 1, 64, 16
2, 75020, Control_c, 1, 64, 0
2, 75020, Control_c, 1, 64, 0
2, 75020, Control_c, 1, 64, 0
2, 75024, Control_c, 1, 64, 0
2, 75024, Control_c, 1, 64, 0
2, 75028, Note_on_c, 1, 39, 57
2, 75040, Note_on_c, 1, 49, 50
2, 75044, Note_on_c, 1, 55, 38
2, 75148, Control_c, 1, 64, 0
2, 75156, Control_c, 1, 64, 0
2, 75160, Control_c, 1, 64, 0
2, 75160, Control_c, 1, 64, 0
2, 75168, Control_c, 1, 64, 16
2, 75168, Control_c, 1, 64, 16
2, 75176, Control_c, 1, 64, 32
2, 75180, Control_c, 1, 64, 48
2, 75188, Control_c, 1, 64, 64
2, 75196, Note_off_c, 1, 39, 0
2, 75204, Control_c, 1, 64, 80
2, 75204, Control_c, 1, 64, 127
2, 75204, Control_c, 1, 64, 127
2, 75208, Note_off_c, 1, 49, 0
2, 75208, Control_c, 1, 64, 127
2, 75216, Control_c, 1, 64, 127
2, 75224, Control_c, 1, 64, 127
2, 75228, Note_off_c, 1, 55, 0
2, 75284, Note_on_c, 1, 79, 67
2, 75320, Note_off_c, 1, 79, 0
2, 75332, Note_on_c, 1, 80, 76
2, 75360, Control_c, 1, 64, 127
2, 75368, Control_c, 1, 64, 127
2, 75372, Control_c, 1, 64, 127
2, 75372, Control_c, 1, 64, 80
2, 75380, Control_c, 1, 64, 64
2, 75380, Control_c, 1, 64, 48
2, 75388, Control_c, 1, 64, 16
2, 75388, Control_c, 1, 64, 16
2, 75392, Control_c, 1, 64, 0
2, 75392, Control_c, 1, 64, 0
2, 75400, Control_c, 1, 64, 0
2, 75404, Note_on_c, 1, 79, 71
2, 75408, Control_c, 1, 64, 0
2, 75408, Control_c, 1, 64, 0
2, 75420, Note_on_c, 1, 53, 56
2, 75428, Note_off_c, 1, 80, 0
2, 75428, Note_on_c, 1, 59, 69
2, 75436, Note_on_c, 1, 49, 53
2, 75440, Note_on_c, 1, 43, 34
2, 75456, Note_on_c, 1, 78, 69
2, 75476, Note_off_c, 1, 79, 0
2, 75516, Note_off_c, 1, 78, 0
2, 75556, Control_c, 1, 64, 0
2, 75564, Control_c, 1, 64, 0
2, 75572, Control_c, 1, 64, 0
2, 75576, Control_c, 1, 64, 0
2, 75584, Control_c, 1, 64, 16
2, 75592, Control_c, 1, 64, 16
2, 75600, Control_c, 1, 64, 32
2, 75600, Control_c, 1, 64, 48
2, 75604, Control_c, 1, 64, 64
2, 75620, Control_c, 1, 64, 80
2, 75620, Control_c, 1, 64, 127
2, 75624, Note_off_c, 1, 43, 0
2, 75624, Control_c, 1, 64, 127
2, 75628, Note_off_c, 1, 49, 0
2, 75632, Control_c, 1, 64, 127
2, 75632, Control_c, 1, 64, 127
2, 75640, Note_off_c, 1, 53, 0
2, 75640, Control_c, 1, 64, 127
2, 75652, Note_off_c, 1, 59, 0
2, 75688, Note_on_c, 1, 79, 73
2, 75736, Note_off_c, 1, 79, 0
2, 75808, Control_c, 1, 64, 127
2, 75816, Control_c, 1, 64, 127
2, 75824, Control_c, 1, 64, 127
2, 75824, Control_c, 1, 64, 64
2, 75832, Control_c, 1, 64, 48
2, 75832, Control_c, 1, 64, 16
2, 75836, Control_c, 1, 64, 16
2, 75840, Note_on_c, 1, 53, 50
2, 75840, Note_on_c, 1, 51, 60
2, 75844, Control_c, 1, 64, 0
2, 75844, Note_on_c, 1, 60, 60
2, 75852, Note_on_c, 1, 44, 56
2, 75852, Control_c, 1, 64, 0
2, 75852, Control_c, 1, 64, 0
2, 75856, Control_c, 1, 64, 0
2, 75860, Note_on_c, 1, 72, 58
2, 75864, Note_on_c, 1, 79, 70
2, 75864, Note_on_c, 1, 75, 66
2, 75880, Note_on_c, 1, 82, 52
2, 75952, Control_c, 1, 64, 0
2, 75960, Control_c, 1, 64, 0
2, 75968, Control_c, 1, 64, 0
2, 75968, Control_c, 1, 64, 0
2, 75972, Control_c, 1, 64, 16
2, 75976, Control_c, 1, 64, 16
2, 75980, Control_c, 1, 64, 32
2, 75988, Note_off_c, 1, 75, 0
2, 75988, Control_c, 1, 64, 48
2, 75988, Control_c, 1, 64, 64
2, 75996, Control_c, 1, 64, 80
2, 76000, Control_c, 1, 64, 127
2, 76004, Note_off_c, 1, 44, 0
2, 76004, Control_c, 1, 64, 127
2, 76008, Control_c, 1, 64, 127
2, 76016, Note_off_c, 1, 82, 0
2, 76016, Note_off_c, 1, 79, 0
2, 76016, Control_c, 1, 64, 127
2, 76020, Control_c, 1, 64, 127
2, 76024, Note_off_c, 1, 51, 0
2, 76028, Note_off_c, 1, 53, 0
2, 76056, Note_off_c, 1, 60, 0
2, 76088, Note_on_c, 1, 77, 64
2, 76092, Note_on_c, 1, 80, 59
2, 76164, Control_c, 1, 64, 127
2, 76172, Control_c, 1, 64, 127
2, 76176, Control_c, 1, 64, 127
2, 76180, Control_c, 1, 64, 127
2, 76184, Control_c, 1, 64, 64
2, 76188, Note_off_c, 1, 77, 0
2, 76192, Control_c, 1, 64, 48
2, 76192, Control_c, 1, 64, 32
2, 76196, Note_off_c, 1, 80, 0
2, 76200, Control_c, 1, 64, 16
2, 76204, Control_c, 1, 64, 0
2, 76204, Control_c, 1, 64, 0
2, 76208, Control_c, 1, 64, 0
2, 76212, Control_c, 1, 64, 0
2, 76212, Control_c, 1, 64, 0
2, 76220, Control_c, 1, 64, 0
2, 76232, Note_on_c, 1, 56, 67
2, 76232, Note_on_c, 1, 63, 62
2, 76232, Control_c, 1, 64, 0
2, 76240, Note_on_c, 1, 77, 41
2, 76240, Note_on_c, 1, 79, 68
2, 76248, Note_on_c, 1, 82, 73
2, 76248, Note_on_c, 1, 60, 58
2, 76248, Control_c, 1, 64, 0
2, 76252, Control_c, 1, 64, 0
2, 76260, Note_on_c, 1, 67, 20
2, 76260, Control_c, 1, 64, 16
2, 76261, Note_off_c, 1, 67, 0
2, 76268, Note_off_c, 1, 63, 0
2, 76268, Control_c, 1, 64, 16
2, 76272, Note_off_c, 1, 60, 0
2, 76276, Control_c, 1, 64, 32
2, 76276, Control_c, 1, 64, 48
2, 76280, Control_c, 1, 64, 64
2, 76288, Control_c, 1, 64, 80
2, 76288, Control_c, 1, 64, 127
2, 76288, Control_c, 1, 64, 127
2, 76296, Note_off_c, 1, 77, 0
2, 76296, Note_off_c, 1, 56, 0
2, 76300, Control_c, 1, 64, 127
2, 76300, Control_c, 1, 64, 127
2, 76304, Control_c, 1, 64, 127
2, 76348, Note_off_c, 1, 79, 0
2, 76368, Note_off_c, 1, 72, 0
2, 76424, Note_off_c, 1, 82, 0
2, 76500, Note_on_c, 1, 37, 70
2, 76504, Note_on_c, 1, 25, 75
2, 76512, Note_on_c, 1, 75, 77
2, 76520, Note_on_c, 1, 77, 75
2, 76520, Control_c, 1, 64, 127
2, 76520, Note_on_c, 1, 80, 76
2, 76528, Note_on_c, 1, 71, 71
2, 76528, Control_c, 1, 64, 127
2, 76528, Control_c, 1, 64, 127
2, 76532, Control_c, 1, 64, 127
2, 76540, Control_c, 1, 64, 64
2, 76548, Control_c, 1, 64, 48
2, 76548, Control_c, 1, 64, 16
2, 76548, Control_c, 1, 64, 16
2, 76552, Control_c, 1, 64, 0
2, 76552, Control_c, 1, 64, 0
2, 76560, Control_c, 1, 64, 0
2, 76560, Control_c, 1, 64, 0
2, 76560, Control_c, 1, 64, 0
2, 76628, Note_off_c, 1, 25, 0
2, 76648, Note_off_c, 1, 37, 0
2, 76648, Control_c, 1, 64, 0
2, 76656, Control_c, 1, 64, 0
2, 76664, Control_c, 1, 64, 0
2, 76668, Control_c, 1, 64, 0
2, 76668, Control_c, 1, 64, 16
2, 76676, Control_c, 1, 64, 16
2, 76676, Control_c, 1, 64, 32
2, 76676, Control_c, 1, 64, 48
2, 76684, Control_c, 1, 64, 64
2, 76696, Control_c, 1, 64, 80
2, 76696, Control_c, 1, 64, 127
2, 76700, Control_c, 1, 64, 127
2, 76704, Control_c, 1, 64, 127
2, 76704, Control_c, 1, 64, 127
2, 76712, Control_c, 1, 64, 127
2, 76780, Note_off_c, 1, 71, 0
2, 76800, Note_off_c, 1, 75, 0
2, 76812, Note_off_c, 1, 77, 0
2, 76820, Note_off_c, 1, 80, 0
2, 76924, Note_on_c, 1, 53, 74
2, 76936, Note_on_c, 1, 63, 77
2, 76936, Note_on_c, 1, 59, 70
2, 76944, Note_on_c, 1, 56, 69
2, 76968, Control_c, 1, 64, 127
2, 76976, Control_c, 1, 64, 127
2, 76984, Control_c, 1, 64, 127
2, 76984, Control_c, 1, 64, 80
2, 76996, Control_c, 1, 64, 64
2, 76996, Control_c, 1, 64, 48
2, 77004, Control_c, 1, 64, 16
2, 77012, Control_c, 1, 64, 16
2, 77012, Control_c, 1, 64, 0
2, 77016, Control_c, 1, 64, 0
2, 77024, Control_c, 1, 64, 0
2, 77032, Control_c, 1, 64, 0
2, 77040, Control_c, 1, 64, 0
2, 77120, Control_c, 1, 64, 0
2, 77128, Control_c, 1, 64, 0
2, 77128, Control_c, 1, 64, 0
2, 77128, Control_c, 1, 64, 0
2, 77132, Control_c, 1, 64, 16
2, 77132, Control_c, 1, 64, 32
2, 77136, Control_c, 1, 64, 64
2, 77140, Control_c, 1, 64, 80
2, 77148, Control_c, 1, 64, 127
2, 77148, Control_c, 1, 64, 127
2, 77152, Control_c, 1, 64, 127
2, 77152, Control_c, 1, 64, 127
2, 77208, Note_off_c, 1, 59, 0
2, 77216, Note_off_c, 1, 63, 0
2, 77220, Note_off_c, 1, 56, 0
2, 77228, Note_off_c, 1, 53, 0
2, 77372, Note_on_c, 1, 79, 80
2, 77380, Note_on_c, 1, 84, 42
2, 77420, Note_off_c, 1, 84, 0
2, 77452, Control_c, 1, 64, 127
2, 77460, Control_c, 1, 64, 127
2, 77468, Control_c, 1, 64, 127
2, 77476, Note_off_c, 1, 79, 0
2, 77476, Control_c, 1, 64, 80
2, 77488, Control_c, 1, 64, 48
2, 77496, Control_c, 1, 64, 32
2, 77500, Control_c, 1, 64, 16
2, 77508, Control_c, 1, 64, 0
2, 77516, Control_c, 1, 64, 0
2, 77516, Control_c, 1, 64, 0
2, 77520, Control_c, 1, 64, 0
2, 77528, Note_on_c, 1, 53, 59
2, 77528, Control_c, 1, 64, 0
2, 77528, Note_on_c, 1, 43, 63
2, 77536, Note_off_c, 1, 43, 0
2, 77536, Note_on_c, 1, 59, 60
2, 77544, Note_off_c, 1, 53, 0
2, 77544, Note_on_c, 1, 82, 77
2, 77556, Note_off_c, 1, 59, 0
2, 77556, Control_c, 1, 64, 0
2, 77564, Note_on_c, 1, 81, 61
2, 77564, Control_c, 1, 64, 0
2, 77572, Control_c, 1, 64, 0
2, 77576, Control_c, 1, 64, 0
2, 77576, Control_c, 1, 64, 16
2, 77584, Control_c, 1, 64, 16
2, 77584, Control_c, 1, 64, 32
2, 77592, Control_c, 1, 64, 48
2, 77592, Control_c, 1, 64, 64
2, 77596, Control_c, 1, 64, 80
2, 77600, Control_c, 1, 64, 127
2, 77604, Control_c, 1, 64, 127
2, 77604, Control_c, 1, 64, 127
2, 77612, Note_off_c, 1, 82, 0
2, 77612, Control_c, 1, 64, 127
2, 77612, Control_c, 1, 64, 127
2, 77632, Note_on_c, 1, 80, 68
2, 77672, Control_c, 1, 64, 127
2, 77680, Control_c, 1, 64, 127
2, 77680, Control_c, 1, 64, 127
2, 77688, Note_off_c, 1, 81, 0
2, 77692, Control_c, 1, 64, 64
2, 77692, Control_c, 1, 64, 48
2, 77700, Control_c, 1, 64, 16
2, 77708, Control_c, 1, 64, 0
2, 77708, Control_c, 1, 64, 0
2, 77712, Control_c, 1, 64, 0
2, 77720, Control_c, 1, 64, 0
2, 77728, Control_c, 1, 64, 0
2, 77736, Note_on_c, 1, 59, 61
2, 77736, Note_on_c, 1, 49, 66
2, 77740, Note_on_c, 1, 65, 65
2, 77748, Note_on_c, 1, 79, 77
2, 77760, Note_on_c, 1, 64, 43
2, 77768, Control_c, 1, 64, 0
2, 77776, Control_c, 1, 64, 0
2, 77776, Control_c, 1, 64, 0
2, 77776, Control_c, 1, 64, 0
2, 77780, Control_c, 1, 64, 16
2, 77784, Control_c, 1, 64, 16
2, 77788, Control_c, 1, 64, 32
2, 77792, Note_off_c, 1, 80, 0
2, 77792, Control_c, 1, 64, 48
2, 77796, Control_c, 1, 64, 64
2, 77804, Note_off_c, 1, 64, 0
2, 77804, Control_c, 1, 64, 80
2, 77804, Control_c, 1, 64, 127
2, 77808, Control_c, 1, 64, 127
2, 77812, Note_off_c, 1, 59, 0
2, 77816, Control_c, 1, 64, 127
2, 77816, Control_c, 1, 64, 127
2, 77824, Note_off_c, 1, 65, 0
2, 77824, Note_off_c, 1, 49, 0
2, 77828, Note_off_c, 1, 79, 0
2, 77844, Control_c, 1, 64, 127
2, 77844, Control_c, 1, 64, 127
2, 77848, Control_c, 1, 64, 127
2, 77856, Control_c, 1, 64, 80
2, 77860, Control_c, 1, 64, 64
2, 77864, Control_c, 1, 64, 48
2, 77872, Control_c, 1, 64, 16
2, 77872, Control_c, 1, 64, 16
2, 77872, Control_c, 1, 64, 0
2, 77876, Control_c, 1, 64, 0
2, 77876, Control_c, 1, 64, 0
2, 77884, Control_c, 1, 64, 0
2, 77884, Control_c, 1, 64, 0
2, 77892, Note_on_c, 1, 58, 68
2, 77896, Note_on_c, 1, 48, 63
2, 77900, Note_on_c, 1, 64, 50
2, 77912, Note_on_c, 1, 78, 73
2, 77952, Control_c, 1, 64, 0
2, 77960, Control_c, 1, 64, 0
2, 77968, Note_off_c, 1, 64, 0
2, 77968, Control_c, 1, 64, 0
2, 77972, Control_c, 1, 64, 0
2, 77972, Control_c, 1, 64, 16
2, 77980, Control_c, 1, 64, 16
2, 77980, Control_c, 1, 64, 32
2, 77980, Control_c, 1, 64, 48
2, 77988, Note_off_c, 1, 58, 0
2, 77988, Control_c, 1, 64, 64
2, 77992, Control_c, 1, 64, 80
2, 77996, Control_c, 1, 64, 127
2, 78000, Note_off_c, 1, 48, 0
2, 78000, Control_c, 1, 64, 127
2, 78008, Control_c, 1, 64, 127
2, 78008, Control_c, 1, 64, 127
2, 78008, Control_c, 1, 64, 127
2, 78096, Control_c, 1, 64, 127
2, 78104, Note_on_c, 1, 52, 65
2, 78104, Control_c, 1, 64, 127
2, 78104, Control_c, 1, 64, 127
2, 78108, Note_on_c, 1, 58, 78
2, 78116, Control_c, 1, 64, 80
2, 78116, Note_on_c, 1, 42, 65
2, 78124, Control_c, 1, 64, 48
2, 78124, Control_c, 1, 64, 32
2, 78124, Control_c, 1, 64, 16
2, 78128, Note_on_c, 1, 85, 83
2, 78128, Control_c, 1, 64, 0
2, 78136, Control_c, 1, 64, 0
2, 78144, Control_c, 1, 64, 0
2, 78144, Control_c, 1, 64, 0
2, 78148, Control_c, 1, 64, 0
2, 78164, Control_c, 1, 64, 0
2, 78172, Control_c, 1, 64, 0
2, 78176, Control_c, 1, 64, 0
2, 78176, Control_c, 1, 64, 0
2, 78184, Control_c, 1, 64, 16
2, 78184, Control_c, 1, 64, 16
2, 78192, Note_off_c, 1, 78, 0
2, 78192, Control_c, 1, 64, 32
2, 78196, Control_c, 1, 64, 48
2, 78200, Note_off_c, 1, 58, 0
2, 78200, Control_c, 1, 64, 64
2, 78204, Control_c, 1, 64, 127
2, 78212, Note_off_c, 1, 52, 0
2, 78212, Control_c, 1, 64, 127
2, 78216, Control_c, 1, 64, 127
2, 78220, Control_c, 1, 64, 127
2, 78220, Control_c, 1, 64, 127
2, 78224, Note_off_c, 1, 85, 0
2, 78224, Note_off_c, 1, 42, 0
2, 78272, Control_c, 1, 64, 127
2, 78272, Control_c, 1, 64, 127
2, 78280, Control_c, 1, 64, 127
2, 78280, Control_c, 1, 64, 80
2, 78288, Control_c, 1, 64, 64
2, 78288, Control_c, 1, 64, 32
2, 78292, Note_on_c, 1, 41, 72
2, 78292, Note_on_c, 1, 51, 66
2, 78300, Control_c, 1, 64, 16
2, 78300, Control_c, 1, 64, 16
2, 78304, Note_on_c, 1, 57, 60
2, 78308, Control_c, 1, 64, 0
2, 78308, Note_on_c, 1, 84, 77
2, 78308, Control_c, 1, 64, 0
2, 78312, Control_c, 1, 64, 0
2, 78316, Control_c, 1, 64, 0
2, 78320, Control_c, 1, 64, 0
2, 78324, Note_off_c, 1, 41, 0
2, 78340, Note_off_c, 1, 51, 0
2, 78360, Note_on_c, 1, 82, 65
2, 78364, Note_off_c, 1, 57, 0
2, 78376, Control_c, 1, 64, 0
2, 78388, Control_c, 1, 64, 0
2, 78396, Control_c, 1, 64, 0
2, 78396, Note_on_c, 1, 79, 55
2, 78404, Control_c, 1, 64, 0
2, 78404, Control_c, 1, 64, 16
2, 78404, Control_c, 1, 64, 16
2, 78408, Note_off_c, 1, 84, 0
2, 78408, Control_c, 1, 64, 32
2, 78416, Control_c, 1, 64, 48
2, 78416, Control_c, 1, 64, 64
2, 78420, Note_off_c, 1, 82, 0
2, 78424, Control_c, 1, 64, 80
2, 78424, Control_c, 1, 64, 127
2, 78432, Note_on_c, 1, 77, 75
2, 78432, Control_c, 1, 64, 127
2, 78436, Control_c, 1, 64, 127
2, 78436, Control_c, 1, 64, 127
2, 78444, Note_off_c, 1, 79, 0
2, 78444, Control_c, 1, 64, 127
2, 78464, Note_off_c, 1, 77, 0
2, 78476, Note_on_c, 1, 76, 67
2, 78492, Control_c, 1, 64, 127
2, 78496, Control_c, 1, 64, 127
2, 78500, Control_c, 1, 64, 127
2, 78504, Control_c, 1, 64, 80
2, 78512, Control_c, 1, 64, 64
2, 78512, Control_c, 1, 64, 32
2, 78520, Note_on_c, 1, 48, 44
2, 78520, Control_c, 1, 64, 16
2, 78520, Control_c, 1, 64, 0
2, 78524, Control_c, 1, 64, 0
2, 78524, Control_c, 1, 64, 0
2, 78532, Control_c, 1, 64, 0
2, 78532, Note_on_c, 1, 57, 61
2, 78540, Control_c, 1, 64, 0
2, 78540, Note_on_c, 1, 63, 70
2, 78544, Note_on_c, 1, 75, 80
2, 78552, Note_off_c, 1, 76, 0
2, 78572, Control_c, 1, 64, 0
2, 78580, Note_off_c, 1, 63, 0
2, 78580, Control_c, 1, 64, 0
2, 78588, Note_off_c, 1, 48, 0
2, 78588, Control_c, 1, 64, 0
2, 78592, Control_c, 1, 64, 0
2, 78596, Control_c, 1, 64, 16
2, 78600, Note_off_c, 1, 57, 0
2, 78600, Control_c, 1, 64, 16
2, 78600, Control_c, 1, 64, 32
2, 78608, Control_c, 1, 64, 48
2, 78608, Control_c, 1, 64, 64
2, 78616, Control_c, 1, 64, 80
2, 78616, Control_c, 1, 64, 127
2, 78620, Control_c, 1, 64, 127
2, 78620, Control_c, 1, 64, 127
2, 78628, Control_c, 1, 64, 127
2, 78628, Control_c, 1, 64, 127
2, 78656, Control_c, 1, 64, 127
2, 78660, Control_c, 1, 64, 127
2, 78660, Control_c, 1, 64, 127
2, 78664, Control_c, 1, 64, 80
2, 78668, Control_c, 1, 64, 64
2, 78676, Control_c, 1, 64, 48
2, 78676, Control_c, 1, 64, 32
2, 78676, Control_c, 1, 64, 16
2, 78684, Control_c, 1, 64, 0
2, 78684, Control_c, 1, 64, 0
2, 78688, Control_c, 1, 64, 0
2, 78692, Control_c, 1, 64, 0
2, 78696, Note_on_c, 1, 56, 61
2, 78696, Control_c, 1, 64, 0
2, 78700, Note_on_c, 1, 74, 67
2, 78704, Note_on_c, 1, 62, 58
2, 78712, Note_on_c, 1, 46, 44
2, 78756, Note_off_c, 1, 62, 0
2, 78764, Note_off_c, 1, 75, 0
2, 78764, Control_c, 1, 64, 0
2, 78776, Control_c, 1, 64, 0
2, 78780, Note_off_c, 1, 56, 0
2, 78784, Control_c, 1, 64, 0
2, 78784, Control_c, 1, 64, 0
2, 78792, Control_c, 1, 64, 16
2, 78792, Control_c, 1, 64, 16
2, 78800, Note_off_c, 1, 46, 0
2, 78800, Control_c, 1, 64, 32
2, 78800, Control_c, 1, 64, 48
2, 78812, Control_c, 1, 64, 64
2, 78820, Control_c, 1, 64, 80
2, 78820, Control_c, 1, 64, 127
2, 78820, Control_c, 1, 64, 127
2, 78824, Control_c, 1, 64, 127
2, 78828, Control_c, 1, 64, 127
2, 78832, Control_c, 1, 64, 127
2, 78916, Note_on_c, 1, 56, 72
2, 78916, Note_on_c, 1, 41, 69
2, 78916, Control_c, 1, 64, 127
2, 78920, Control_c, 1, 64, 127
2, 78928, Control_c, 1, 64, 127
2, 78928, Control_c, 1, 64, 80
2, 78936, Note_on_c, 1, 82, 80
2, 78940, Control_c, 1, 64, 48
2, 78940, Control_c, 1, 64, 32
2, 78944, Control_c, 1, 64, 16
2, 78948, Control_c, 1, 64, 0
2, 78948, Control_c, 1, 64, 0
2, 78952, Note_off_c, 1, 74, 0
2, 78956, Control_c, 1, 64, 0
2, 78960, Control_c, 1, 64, 0
2, 78968, Note_off_c, 1, 82, 0
2, 78976, Control_c, 1, 64, 0
2, 78984, Control_c, 1, 64, 0
2, 78988, Control_c, 1, 64, 0
2, 78992, Note_off_c, 1, 41, 0
2, 78996, Control_c, 1, 64, 16
2, 78996, Control_c, 1, 64, 16
2, 79004, Note_off_c, 1, 56, 0
2, 79004, Control_c, 1, 64, 32
2, 79004, Control_c, 1, 64, 48
2, 79008, Control_c, 1, 64, 64
2, 79016, Control_c, 1, 64, 127
2, 79016, Control_c, 1, 64, 127
2, 79020, Control_c, 1, 64, 127
2, 79024, Control_c, 1, 64, 127
2, 79024, Control_c, 1, 64, 127
2, 79076, Control_c, 1, 64, 127
2, 79084, Control_c, 1, 64, 127
2, 79084, Control_c, 1, 64, 127
2, 79088, Note_on_c, 1, 39, 68
2, 79092, Control_c, 1, 64, 80
2, 79092, Note_on_c, 1, 72, 67
2, 79100, Note_on_c, 1, 75, 69
2, 79100, Control_c, 1, 64, 64
2, 79104, Control_c, 1, 64, 48
2, 79108, Note_on_c, 1, 79, 70
2, 79112, Control_c, 1, 64, 16
2, 79112, Note_on_c, 1, 55, 55
2, 79112, Control_c, 1, 64, 16
2, 79120, Note_on_c, 1, 67, 51
2, 79120, Control_c, 1, 64, 0
2, 79124, Control_c, 1, 64, 0
2, 79128, Control_c, 1, 64, 0
2, 79128, Control_c, 1, 64, 0
2, 79132, Control_c, 1, 64, 0
2, 79180, Control_c, 1, 64, 0
2, 79188, Control_c, 1, 64, 0
2, 79192, Control_c, 1, 64, 0
2, 79196, Control_c, 1, 64, 0
2, 79200, Note_off_c, 1, 67, 0
2, 79200, Control_c, 1, 64, 16
2, 79208, Control_c, 1, 64, 16
2, 79208, Control_c, 1, 64, 32
2, 79220, Control_c, 1, 64, 48
2, 79228, Control_c, 1, 64, 64
2, 79236, Control_c, 1, 64, 80
2, 79236, Control_c, 1, 64, 127
2, 79236, Control_c, 1, 64, 127
2, 79248, Control_c, 1, 64, 127
2, 79256, Control_c, 1, 64, 127
2, 79264, Control_c, 1, 64, 127
2, 79324, Note_off_c, 1, 39, 0
2, 79336, Note_off_c, 1, 79, 0
2, 79336, Note_off_c, 1, 72, 0
2, 79344, Note_off_c, 1, 75, 0
2, 79404, Note_off_c, 1, 55, 0
2, 79468, Control_c, 1, 64, 127
2, 79472, Control_c, 1, 64, 127
2, 79480, Control_c, 1, 64, 127
2, 79480, Control_c, 1, 64, 80
2, 79488, Control_c, 1, 64, 64
2, 79488, Control_c, 1, 64, 48
2, 79492, Control_c, 1, 64, 16
2, 79496, Control_c, 1, 64, 16
2, 79496, Note_on_c, 1, 45, 73
2, 79500, Note_on_c, 1, 55, 78
2, 79500, Control_c, 1, 64, 0
2, 79508, Control_c, 1, 64, 0
2, 79508, Control_c, 1, 64, 0
2, 79508, Control_c, 1, 64, 0
2, 79516, Control_c, 1, 64, 0
2, 79604, Note_on_c, 1, 87, 85
2, 79612, Note_on_c, 1, 75, 91
2, 79636, Note_on_c, 1, 85, 44
2, 79652, Control_c, 1, 64, 0
2, 79660, Note_off_c, 1, 75, 0
2, 79660, Note_off_c, 1, 87, 0
2, 79664, Note_off_c, 1, 85, 0
2, 79664, Control_c, 1, 64, 0
2, 79672, Note_off_c, 1, 45, 0
2, 79672, Control_c, 1, 64, 0
2, 79672, Control_c, 1, 64, 0
2, 79680, Control_c, 1, 64, 16
2, 79684, Control_c, 1, 64, 16
2, 79692, Control_c, 1, 64, 32
2, 79700, Note_on_c, 1, 74, 67
2, 79704, Control_c, 1, 64, 48
2, 79712, Note_off_c, 1, 55, 0
2, 79720, Control_c, 1, 64, 64
2, 79732, Control_c, 1, 64, 80
2, 79740, Control_c, 1, 64, 127
2, 79740, Control_c, 1, 64, 127
2, 79748, Control_c, 1, 64, 127
2, 79760, Note_off_c, 1, 74, 0
2, 79768, Control_c, 1, 64, 127
2, 79772, Control_c, 1, 64, 127
2, 79796, Control_c, 1, 67, 0
2, 79800, Note_on_c, 1, 75, 80
2, 79824, Control_c, 1, 64, 127
2, 79836, Control_c, 1, 64, 127
2, 79836, Control_c, 1, 67, 127
2, 79844, Control_c, 1, 64, 127
2, 79848, Control_c, 1, 64, 80
2, 79864, Control_c, 1, 64, 64
2, 79864, Control_c, 1, 64, 48
2, 79872, Note_off_c, 1, 75, 0
2, 79876, Control_c, 1, 64, 32
2, 79880, Control_c, 1, 64, 16
2, 79884, Control_c, 1, 64, 16
2, 79888, Control_c, 1, 64, 0
2, 79892, Control_c, 1, 64, 0
2, 79896, Control_c, 1, 64, 0
2, 79900, Note_on_c, 1, 38, 57
2, 79900, Note_on_c, 1, 54, 63
2, 79904, Control_c, 1, 64, 0
2, 79904, Control_c, 1, 64, 0
2, 79912, Note_on_c, 1, 74, 63
2, 79912, Note_on_c, 1, 72, 49
2, 79932, Note_off_c, 1, 72, 0
2, 79936, Note_off_c, 1, 74, 0
2, 79992, Note_on_c, 1, 73, 73
2, 80028, Control_c, 1, 64, 0
2, 80032, Control_c, 1, 64, 0
2, 80040, Control_c, 1, 64, 0
2, 80040, Control_c, 1, 64, 0
2, 80048, Control_c, 1, 64, 16
2, 80052, Control_c, 1, 64, 16
2, 80060, Note_off_c, 1, 73, 0
2, 80076, Note_on_c, 1, 72, 65
2, 80080, Control_c, 1, 64, 32
2, 80100, Note_off_c, 1, 72, 0
2, 80108, Control_c, 1, 64, 48
2, 80120, Control_c, 1, 64, 64
2, 80128, Control_c, 1, 64, 80
2, 80136, Control_c, 1, 64, 127
2, 80136, Control_c, 1, 64, 127
2, 80144, Control_c, 1, 64, 127
2, 80148, Control_c, 1, 64, 127
2, 80164, Control_c, 1, 64, 127
2, 80196, Control_c, 1, 64, 127
2, 80204, Control_c, 1, 64, 127
2, 80204, Control_c, 1, 64, 127
2, 80212, Control_c, 1, 64, 127
2, 80216, Control_c, 1, 64, 80
2, 80220, Control_c, 1, 64, 64
2, 80224, Control_c, 1, 64, 32
2, 80232, Control_c, 1, 64, 16
2, 80232, Control_c, 1, 64, 16
2, 80232, Control_c, 1, 64, 0
2, 80236, Control_c, 1, 64, 0
2, 80236, Control_c, 1, 64, 0
2, 80240, Control_c, 1, 64, 0
2, 80244, Control_c, 1, 64, 0
2, 80272, Note_on_c, 1, 74, 86
2, 80416, Control_c, 1, 64, 0
2, 80416, Control_c, 1, 64, 0
2, 80424, Control_c, 1, 64, 0
2, 80424, Control_c, 1, 64, 16
2, 80428, Control_c, 1, 64, 32
2, 80428, Control_c, 1, 64, 64
2, 80436, Control_c, 1, 64, 127
2, 80440, Note_off_c, 1, 74, 0
2, 80444, Note_off_c, 1, 38, 0
2, 80444, Control_c, 1, 64, 127
2, 80444, Control_c, 1, 64, 127
2, 80448, Control_c, 1, 64, 127
2, 80472, Note_on_c, 1, 72, 77
2, 80516, Control_c, 1, 64, 127
2, 80540, Note_off_c, 1, 72, 0
2, 80540, Control_c, 1, 64, 127
2, 80600, Control_c, 1, 64, 127
2, 80608, Control_c, 1, 64, 127
2, 80612, Control_c, 1, 64, 127
2, 80612, Control_c, 1, 64, 80
2, 80620, Control_c, 1, 64, 64
2, 80628, Control_c, 1, 64, 32
2, 80628, Control_c, 1, 64, 16
2, 80632, Control_c, 1, 64, 16
2, 80636, Note_off_c, 1, 54, 0
2, 80640, Control_c, 1, 64, 0
2, 80640, Control_c, 1, 64, 0
2, 80648, Control_c, 1, 64, 0
2, 80648, Control_c, 1, 64, 0
2, 80648, Control_c, 1, 64, 0
2, 80656, Note_on_c, 1, 43, 71
2, 80792, Note_on_c, 1, 50, 73
2, 80824, Control_c, 1, 64, 0
2, 80832, Control_c, 1, 64, 0
2, 80860, Control_c, 1, 64, 0
2, 80864, Control_c, 1, 64, 0
2, 80908, Note_on_c, 1, 58, 82
2, 80960, Control_c, 1, 64, 0
2, 80976, Control_c, 1, 64, 0
2, 80980, Control_c, 1, 64, 0
2, 81008, Control_c, 1, 64, 0
2, 81016, Control_c, 1, 64, 0
2, 81024, Control_c, 1, 64, 0
2, 81036, Note_on_c, 1, 75, 81
2, 81036, Note_on_c, 1, 87, 81
2, 81044, Note_on_c, 1, 79, 73
2, 81044, Note_on_c, 1, 82, 79
2, 81092, Control_c, 1, 64, 0
2, 81104, Control_c, 1, 64, 0
2, 81116, Control_c, 1, 64, 0
2, 81124, Control_c, 1, 64, 0
2, 81132, Control_c, 1, 64, 16
2, 81144, Control_c, 1, 64, 16
2, 81200, Note_off_c, 1, 87, 0
2, 81200, Note_off_c, 1, 58, 0
2, 81208, Note_off_c, 1, 79, 0
2, 81208, Note_off_c, 1, 75, 0
2, 81212, Note_off_c, 1, 50, 0
2, 81228, Note_off_c, 1, 82, 0
2, 81228, Control_c, 1, 64, 32
2, 81232, Note_off_c, 1, 43, 0
2, 81240, Control_c, 1, 64, 48
2, 81248, Control_c, 1, 64, 64
2, 81256, Control_c, 1, 64, 80
2, 81260, Control_c, 1, 64, 127
2, 81260, Control_c, 1, 64, 127
2, 81268, Control_c, 1, 64, 127
2, 81276, Control_c, 1, 64, 127
2, 81280, Control_c, 1, 64, 127
2, 81296, Note_on_c, 1, 89, 88
2, 81308, Note_on_c, 1, 77, 77
2, 81308, Note_on_c, 1, 79, 75
2, 81336, Note_off_c, 1, 79, 0
2, 81344, Note_off_c, 1, 77, 0
2, 81352, Note_off_c, 1, 89, 0
2, 81404, Control_c, 1, 64, 127
2, 81420, Control_c, 1, 64, 127
2, 81420, Control_c, 1, 64, 127
2, 81424, Control_c, 1, 64, 80
2, 81432, Control_c, 1, 64, 64
2, 81440, Control_c, 1, 64, 48
2, 81440, Control_c, 1, 64, 32
2, 81444, Control_c, 1, 64, 16
2, 81444, Control_c, 1, 64, 0
2, 81448, Note_on_c, 1, 43, 66
2, 81452, Note_on_c, 1, 53, 32
2, 81460, Control_c, 1, 64, 0
2, 81460, Control_c, 1, 64, 0
2, 81464, Note_on_c, 1, 74, 77
2, 81468, Control_c, 1, 64, 0
2, 81468, Note_on_c, 1, 59, 59
2, 81472, Control_c, 1, 64, 0
2, 81472, Note_on_c, 1, 86, 79
2, 81476, Note_on_c, 1, 52, 29
2, 81516, Note_off_c, 1, 52, 0
2, 81516, Note_off_c, 1, 74, 0
2, 81556, Note_off_c, 1, 86, 0
2, 81584, Control_c, 1, 64, 0
2, 81588, Note_on_c, 1, 74, 43
2, 81588, Control_c, 1, 64, 0
2, 81596, Control_c, 1, 64, 0
2, 81604, Control_c, 1, 64, 0
2, 81604, Control_c, 1, 64, 16
2, 81608, Control_c, 1, 64, 16
2, 81616, Note_off_c, 1, 74, 0
2, 81616, Control_c, 1, 64, 32
2, 81624, Note_off_c, 1, 43, 0
2, 81624, Control_c, 1, 64, 48
2, 81632, Control_c, 1, 64, 64
2, 81636, Control_c, 1, 64, 80
2, 81640, Note_on_c, 1, 86, 73
2, 81640, Control_c, 1, 64, 127
2, 81644, Control_c, 1, 64, 127
2, 81652, Control_c, 1, 64, 127
2, 81656, Note_off_c, 1, 53, 0
2, 81656, Control_c, 1, 64, 127
2, 81664, Note_off_c, 1, 86, 0
2, 81664, Control_c, 1, 64, 127
2, 81704, Note_off_c, 1, 59, 0
2, 81704, Note_on_c, 1, 74, 47
2, 81724, Note_off_c, 1, 74, 0
2, 81760, Note_on_c, 1, 86, 69
2, 81800, Control_c, 1, 64, 127
2, 81808, Note_off_c, 1, 86, 0
2, 81808, Control_c, 1, 64, 127
2, 81816, Control_c, 1, 64, 127
2, 81816, Control_c, 1, 64, 127
2, 81820, Control_c, 1, 64, 80
2, 81828, Control_c, 1, 64, 64
2, 81836, Control_c, 1, 64, 32
2, 81836, Control_c, 1, 64, 16
2, 81840, Control_c, 1, 64, 16
2, 81848, Control_c, 1, 64, 0
2, 81848, Control_c, 1, 64, 0
2, 81856, Control_c, 1, 64, 0
2, 81856, Note_on_c, 1, 45, 53
2, 81860, Control_c, 1, 64, 0
2, 81864, Note_on_c, 1, 54, 51
2, 81864, Control_c, 1, 64, 0
2, 81868, Note_on_c, 1, 60, 58
2, 81964, Control_c, 1, 64, 0
2, 81976, Control_c, 1, 64, 0
2, 81984, Control_c, 1, 64, 0
2, 81984, Control_c, 1, 64, 0
2, 81984, Control_c, 1, 64, 16
2, 81992, Control_c, 1, 64, 16
2, 82000, Control_c, 1, 64, 32
2, 82004, Control_c, 1, 64, 48
2, 82012, Control_c, 1, 64, 64
2, 82020, Control_c, 1, 64, 80
2, 82024, Control_c, 1, 64, 127
2, 82028, Control_c, 1, 64, 127
2, 82032, Control_c, 1, 64, 127
2, 82040, Control_c, 1, 64, 127
2, 82044, Control_c, 1, 64, 127
2, 82060, Note_off_c, 1, 45, 0
2, 82072, Note_off_c, 1, 60, 0
2, 82100, Note_on_c, 1, 81, 67
2, 82108, Note_on_c, 1, 84, 79
2, 82108, Note_on_c, 1, 78, 70
2, 82116, Note_on_c, 1, 72, 70
2, 82120, Note_off_c, 1, 54, 0
2, 82176, Note_off_c, 1, 72, 0
2, 82176, Note_off_c, 1, 84, 0
2, 82184, Note_off_c, 1, 81, 0
2, 82196, Note_off_c, 1, 78, 0
2, 82208, Control_c, 1, 64, 127
2, 82212, Control_c, 1, 64, 127
2, 82224, Control_c, 1, 64, 127
2, 82224, Control_c, 1, 64, 127
2, 82232, Control_c, 1, 64, 64
2, 82232, Control_c, 1, 64, 48
2, 82236, Control_c, 1, 64, 32
2, 82236, Control_c, 1, 64, 16
2, 82244, Control_c, 1, 64, 16
2, 82244, Control_c, 1, 64, 0
2, 82244, Control_c, 1, 64, 0
2, 82252, Control_c, 1, 64, 0
2, 82252, Control_c, 1, 64, 0
2, 82256, Note_on_c, 1, 53, 51
2, 82256, Note_on_c, 1, 59, 61
2, 82260, Control_c, 1, 64, 0
2, 82264, Note_on_c, 1, 43, 51
2, 82264, Note_on_c, 1, 49, 50
2, 82368, Control_c, 1, 64, 0
2, 82372, Control_c, 1, 64, 0
2, 82388, Control_c, 1, 64, 0
2, 82388, Control_c, 1, 64, 0
2, 82392, Control_c, 1, 64, 16
2, 82400, Note_on_c, 1, 75, 53
2, 82400, Note_on_c, 1, 71, 68
2, 82404, Note_on_c, 1, 83, 76
2, 82408, Note_off_c, 1, 43, 0
2, 82408, Control_c, 1, 64, 16
2, 82416, Note_off_c, 1, 49, 0
2, 82416, Note_on_c, 1, 80, 72
2, 82416, Control_c, 1, 64, 32
2, 82420, Note_off_c, 1, 53, 0
2, 82420, Control_c, 1, 64, 48
2, 82436, Control_c, 1, 64, 64
2, 82444, Note_off_c, 1, 59, 0
2, 82448, Control_c, 1, 64, 80
2, 82448, Control_c, 1, 64, 127
2, 82456, Note_off_c, 1, 71, 0
2, 82456, Control_c, 1, 64, 127
2, 82456, Control_c, 1, 64, 127
2, 82468, Control_c, 1, 64, 127
2, 82476, Control_c, 1, 64, 127
2, 82488, Note_off_c, 1, 75, 0
2, 82504, Note_off_c, 1, 80, 0
2, 82512, Note_off_c, 1, 83, 0
2, 82648, Note_on_c, 1, 52, 45
2, 82648, Control_c, 1, 64, 127
2, 82652, Control_c, 1, 64, 127
2, 82652, Note_on_c, 1, 58, 76
2, 82656, Note_on_c, 1, 54, 67
2, 82660, Control_c, 1, 64, 127
2, 82660, Note_on_c, 1, 63, 74
2, 82664, Control_c, 1, 64, 80
2, 82668, Note_on_c, 1, 56, 71
2, 82672, Control_c, 1, 64, 64
2, 82672, Control_c, 1, 64, 48
2, 82676, Control_c, 1, 64, 16
2, 82680, Control_c, 1, 64, 16
2, 82680, Control_c, 1, 64, 0
2, 82688, Control_c, 1, 64, 0
2, 82688, Control_c, 1, 64, 0
2, 82688, Control_c, 1, 64, 0
2, 82696, Control_c, 1, 64, 0
2, 82796, Control_c, 1, 64, 0
2, 82812, Note_on_c, 1, 80, 68
2, 82812, Control_c, 1, 64, 0
2, 82812, Note_on_c, 1, 73, 62
2, 82816, Note_off_c, 1, 63, 0
2, 82816, Note_on_c, 1, 77, 66
2, 82824, Note_on_c, 1, 82, 69
2, 82824, Note_on_c, 1, 85, 71
2, 82824, Control_c, 1, 64, 0
2, 82832, Control_c, 1, 64, 0
2, 82836, Note_off_c, 1, 58, 0
2, 82836, Control_c, 1, 64, 16
2, 82840, Note_off_c, 1, 56, 0
2, 82844, Control_c, 1, 64, 16
2, 82848, Note_off_c, 1, 52, 0
2, 82852, Note_off_c, 1, 54, 0
2, 82852, Control_c, 1, 64, 32
2, 82852, Control_c, 1, 64, 48
2, 82856, Control_c, 1, 64, 64
2, 82864, Control_c, 1, 64, 80
2, 82864, Control_c, 1, 64, 127
2, 82872, Control_c, 1, 64, 127
2, 82880, Control_c, 1, 64, 127
2, 82884, Control_c, 1, 64, 127
2, 82892, Control_c, 1, 64, 127
2, 82988, Note_off_c, 1, 85, 0
2, 82988, Note_off_c, 1, 77, 0
2, 82988, Note_off_c, 1, 73, 0
2, 82996, Note_off_c, 1, 82, 0
2, 82996, Note_off_c, 1, 80, 0
2, 83028, Control_c, 1, 64, 127
2, 83028, Control_c, 1, 64, 127
2, 83036, Control_c, 1, 64, 127
2, 83036, Control_c, 1, 64, 127
2, 83044, Control_c, 1, 64, 80
2, 83044, Control_c, 1, 64, 48
2, 83048, Control_c, 1, 64, 32
2, 83056, Control_c, 1, 64, 16
2, 83056, Control_c, 1, 64, 16
2, 83056, Control_c, 1, 64, 0
2, 83064, Control_c, 1, 64, 0
2, 83064, Control_c, 1, 64, 0
2, 83068, Note_on_c, 1, 36, 62
2, 83068, Control_c, 1, 64, 0
2, 83072, Control_c, 1, 64, 0
2, 83164, Control_c, 1, 64, 0
2, 83180, Control_c, 1, 64, 0
2, 83180, Control_c, 1, 64, 0
2, 83184, Control_c, 1, 64, 0
2, 83192, Control_c, 1, 64, 16
2, 83200, Note_off_c, 1, 36, 0
2, 83200, Control_c, 1, 64, 16
2, 83208, Note_on_c, 1, 73, 73
2, 83208, Note_on_c, 1, 82, 76
2, 83212, Note_on_c, 1, 84, 76
2, 83212, Note_on_c, 1, 72, 69
2, 83220, Note_on_c, 1, 78, 67
2, 83220, Control_c, 1, 64, 32
2, 83228, Control_c, 1, 64, 48
2, 83228, Control_c, 1, 64, 64
2, 83236, Control_c, 1, 64, 80
2, 83240, Control_c, 1, 64, 127
2, 83240, Control_c, 1, 64, 127
2, 83252, Control_c, 1, 64, 127
2, 83276, Control_c, 1, 64, 127
2, 83288, Note_off_c, 1, 72, 0
2, 83320, Control_c, 1, 64, 127
2, 83356, Note_off_c, 1, 84, 0
2, 83376, Note_off_c, 1, 82, 0
2, 83376, Note_off_c, 1, 73, 0
2, 83392, Note_off_c, 1, 78, 0
2, 83444, Control_c, 1, 64, 127
2, 83452, Control_c, 1, 64, 127
2, 83460, Control_c, 1, 64, 127
2, 83460, Control_c, 1, 64, 127
2, 83464, Note_on_c, 1, 52, 66
2, 83472, Control_c, 1, 64, 64
2, 83472, Control_c, 1, 64, 48
2, 83472, Control_c, 1, 64, 32
2, 83480, Note_on_c, 1, 54, 61
2, 83480, Note_on_c, 1, 58, 72
2, 83484, Control_c, 1, 64, 16
2, 83488, Control_c, 1, 64, 0
2, 83492, Note_on_c, 1, 63, 69
2, 83492, Control_c, 1, 64, 0
2, 83496, Note_on_c, 1, 56, 65
2, 83500, Control_c, 1, 64, 0
2, 83500, Control_c, 1, 64, 0
2, 83500, Control_c, 1, 64, 0
2, 83596, Control_c, 1, 64, 0
2, 83600, Note_off_c, 1, 63, 0
2, 83604, Control_c, 1, 64, 0
2, 83608, Control_c, 1, 64, 0
2, 83612, Note_off_c, 1, 56, 0
2, 83616, Note_off_c, 1, 58, 0
2, 83616, Note_on_c, 1, 82, 73
2, 83616, Control_c, 1, 64, 0
2, 83620, Control_c, 1, 64, 16
2, 83628, Note_on_c, 1, 73, 58
2, 83628, Control_c, 1, 64, 16
2, 83632, Note_on_c, 1, 75, 61
2, 83636, Control_c, 1, 64, 32
2, 83636, Note_on_c, 1, 70, 50
2, 83644, Note_off_c, 1, 54, 0
2, 83644, Note_on_c, 1, 80, 59
2, 83644, Control_c, 1, 64, 48
2, 83648, Note_off_c, 1, 52, 0
2, 83648, Control_c, 1, 64, 64
2, 83656, Control_c, 1, 64, 80
2, 83656, Control_c, 1, 64, 127
2, 83664, Control_c, 1, 64, 127
2, 83664, Control_c, 1, 64, 127
2, 83668, Control_c, 1, 64, 127
2, 83668, Control_c, 1, 64, 127
2, 83720, Note_off_c, 1, 70, 0
2, 83736, Control_c, 1, 67, 0
2, 83764, Note_off_c, 1, 80, 0
2, 83768, Note_off_c, 1, 73, 0
2, 83772, Note_off_c, 1, 75, 0
2, 83772, Note_off_c, 1, 82, 0
2, 83848, Control_c, 1, 64, 127
2, 83852, Control_c, 1, 64, 127
2, 83856, Control_c, 1, 64, 127
2, 83856, Control_c, 1, 64, 80
2, 83868, Control_c, 1, 64, 64
2, 83868, Control_c, 1, 64, 48
2, 83876, Note_on_c, 1, 47, 59
2, 83876, Control_c, 1, 64, 16
2, 83880, Control_c, 1, 64, 16
2, 83880, Control_c, 1, 64, 0
2, 83888, Control_c, 1, 64, 0
2, 83888, Note_on_c, 1, 57, 63
2, 83892, Note_on_c, 1, 51, 60
2, 83896, Note_on_c, 1, 41, 65
2, 83896, Control_c, 1, 64, 0
2, 83900, Control_c, 1, 64, 0
2, 83904, Control_c, 1, 64, 0
2, 83996, Control_c, 1, 64, 0
2, 84004, Control_c, 1, 64, 0
2, 84012, Note_off_c, 1, 41, 0
2, 84012, Control_c, 1, 64, 0
2, 84020, Note_off_c, 1, 47, 0
2, 84020, Note_on_c, 1, 78, 65
2, 84020, Note_on_c, 1, 75, 61
2, 84024, Note_on_c, 1, 71, 59
2, 84024, Note_on_c, 1, 81, 64
2, 84024, Control_c, 1, 64, 0
2, 84032, Note_on_c, 1, 69, 54
2, 84040, Note_off_c, 1, 51, 0
2, 84040, Control_c, 1, 64, 16
2, 84044, Control_c, 1, 64, 16
2, 84044, Control_c, 1, 64, 32
2, 84048, Control_c, 1, 64, 48
2, 84052, Note_off_c, 1, 57, 0
2, 84052, Control_c, 1, 64, 64
2, 84060, Note_off_c, 1, 69, 0
2, 84060, Control_c, 1, 64, 80
2, 84064, Control_c, 1, 64, 127
2, 84068, Control_c, 1, 64, 127
2, 84072, Control_c, 1, 64, 127
2, 84088, Control_c, 1, 64, 127
2, 84096, Note_off_c, 1, 71, 0
2, 84100, Control_c, 1, 64, 127
2, 84108, Control_c, 1, 67, 127
2, 84140, Note_off_c, 1, 78, 0
2, 84148, Note_off_c, 1, 81, 0
2, 84148, Note_off_c, 1, 75, 0
2, 84256, Control_c, 1, 64, 127
2, 84264, Control_c, 1, 64, 127
2, 84264, Note_on_c, 1, 57, 67
2, 84272, Control_c, 1, 64, 127
2, 84272, Control_c, 1, 64, 127
2, 84272, Note_on_c, 1, 63, 71
2, 84276, Note_on_c, 1, 59, 57
2, 84276, Control_c, 1, 64, 80
2, 84284, Control_c, 1, 64, 64
2, 84284, Note_on_c, 1, 67, 68
2, 84292, Control_c, 1, 64, 32
2, 84292, Control_c, 1, 64, 16
2, 84300, Note_on_c, 1, 61, 61
2, 84300, Control_c, 1, 64, 0
2, 84300, Control_c, 1, 64, 0
2, 84300, Control_c, 1, 64, 0
2, 84304, Control_c, 1, 64, 0
2, 84304, Control_c, 1, 64, 0
2, 84408, Note_off_c, 1, 67, 0
2, 84412, Control_c, 1, 64, 0
2, 84420, Control_c, 1, 64, 0
2, 84420, Control_c, 1, 64, 0
2, 84436, Note_off_c, 1, 63, 0
2, 84436, Note_on_c, 1, 71, 66
2, 84436, Note_on_c, 1, 80, 69
2, 84440, Control_c, 1, 64, 0
2, 84440, Control_c, 1, 64, 16
2, 84448, Note_on_c, 1, 76, 69
2, 84448, Note_on_c, 1, 83, 78
2, 84448, Control_c, 1, 64, 16
2, 84456, Note_off_c, 1, 61, 0
2, 84456, Control_c, 1, 64, 32
2, 84460, Note_off_c, 1, 59, 0
2, 84460, Control_c, 1, 64, 48
2, 84464, Note_off_c, 1, 57, 0
2, 84468, Control_c, 1, 64, 64
2, 84476, Control_c, 1, 64, 80
2, 84476, Control_c, 1, 64, 127
2, 84476, Control_c, 1, 64, 127
2, 84480, Control_c, 1, 64, 127
2, 84484, Control_c, 1, 64, 127
2, 84488, Control_c, 1, 64, 127
2, 84592, Note_off_c, 1, 83, 0
2, 84600, Note_off_c, 1, 76, 0
2, 84600, Note_off_c, 1, 80, 0
2, 84600, Note_off_c, 1, 71, 0
2, 84680, Control_c, 1, 64, 127
2, 84680, Control_c, 1, 64, 127
2, 84692, Note_on_c, 1, 34, 70
2, 84696, Control_c, 1, 64, 127
2, 84700, Control_c, 1, 64, 127
2, 84708, Control_c, 1, 64, 64
2, 84712, Control_c, 1, 64, 48
2, 84716, Control_c, 1, 64, 16
2, 84720, Control_c, 1, 64, 16
2, 84720, Control_c, 1, 64, 0
2, 84728, Control_c, 1, 64, 0
2, 84736, Control_c, 1, 64, 0
2, 84736, Control_c, 1, 64, 0
2, 84748, Control_c, 1, 64, 0
2, 84808, Control_c, 1, 64, 0
2, 84816, Note_off_c, 1, 34, 0
2, 84816, Control_c, 1, 64, 0
2, 84832, Note_on_c, 1, 74, 71
2, 84832, Control_c, 1, 64, 0
2, 84832, Note_on_c, 1, 79, 62
2, 84836, Control_c, 1, 64, 0
2, 84844, Note_on_c, 1, 70, 67
2, 84844, Control_c, 1, 64, 16
2, 84844, Note_on_c, 1, 82, 76
2, 84852, Control_c, 1, 64, 16
2, 84852, Control_c, 1, 64, 32
2, 84852, Control_c, 1, 64, 48
2, 84856, Control_c, 1, 64, 64
2, 84864, Control_c, 1, 64, 80
2, 84872, Control_c, 1, 64, 127
2, 84872, Control_c, 1, 64, 127
2, 84872, Control_c, 1, 64, 127
2, 84876, Control_c, 1, 64, 127
2, 84880, Control_c, 1, 64, 127
2, 84952, Note_off_c, 1, 79, 0
2, 84968, Note_off_c, 1, 70, 0
2, 84968, Note_off_c, 1, 74, 0
2, 84972, Note_off_c, 1, 82, 0
2, 85056, Control_c, 1, 64, 127
2, 85056, Control_c, 1, 64, 127
2, 85060, Control_c, 1, 64, 127
2, 85064, Control_c, 1, 64, 80
2, 85068, Control_c, 1, 64, 64
2, 85072, Note_on_c, 1, 56, 68
2, 85076, Note_on_c, 1, 59, 62
2, 85076, Control_c, 1, 64, 32
2, 85084, Note_on_c, 1, 62, 63
2, 85084, Control_c, 1, 64, 16
2, 85088, Note_on_c, 1, 67, 61
2, 85088, Control_c, 1, 64, 0
2, 85096, Control_c, 1, 64, 0
2, 85096, Control_c, 1, 64, 0
2, 85096, Control_c, 1, 64, 0
2, 85104, Control_c, 1, 64, 0
2, 85200, Control_c, 1, 64, 0
2, 85204, Note_off_c, 1, 67, 0
2, 85204, Control_c, 1, 64, 0
2, 85212, Note_on_c, 1, 80, 73
2, 85212, Note_on_c, 1, 71, 73
2, 85220, Note_on_c, 1, 76, 69
2, 85220, Control_c, 1, 64, 0
2, 85220, Note_on_c, 1, 68, 63
2, 85224, Note_off_c, 1, 62, 0
2, 85228, Control_c, 1, 64, 0
2, 85232, Control_c, 1, 64, 16
2, 85236, Note_off_c, 1, 59, 0
2, 85240, Control_c, 1, 64, 16
2, 85240, Control_c, 1, 64, 32
2, 85240, Control_c, 1, 64, 48
2, 85244, Control_c, 1, 64, 64
2, 85252, Note_off_c, 1, 56, 0
2, 85260, Control_c, 1, 64, 80
2, 85260, Control_c, 1, 64, 127
2, 85268, Control_c, 1, 64, 127
2, 85268, Control_c, 1, 64, 127
2, 85268, Control_c, 1, 64, 127
2, 85272, Control_c, 1, 64, 127
2, 85340, Note_off_c, 1, 76, 0
2, 85364, Note_off_c, 1, 68, 0
2, 85364, Note_off_c, 1, 71, 0
2, 85368, Note_off_c, 1, 80, 0
2, 85444, Control_c, 1, 64, 127
2, 85452, Control_c, 1, 64, 127
2, 85456, Control_c, 1, 64, 127
2, 85456, Control_c, 1, 64, 127
2, 85464, Control_c, 1, 64, 64
2, 85468, Note_on_c, 1, 39, 61
2, 85472, Control_c, 1, 64, 48
2, 85472, Control_c, 1, 64, 32
2, 85480, Control_c, 1, 64, 16
2, 85480, Note_on_c, 1, 46, 65
2, 85484, Control_c, 1, 64, 0
2, 85484, Control_c, 1, 64, 0
2, 85484, Control_c, 1, 64, 0
2, 85492, Control_c, 1, 64, 0
2, 85492, Control_c, 1, 64, 0
2, 85500, Note_on_c, 1, 55, 56
2, 85560, Control_c, 1, 64, 0
2, 85568, Control_c, 1, 64, 0
2, 85572, Control_c, 1, 64, 0
2, 85580, Control_c, 1, 64, 0
2, 85580, Control_c, 1, 64, 16
2, 85588, Control_c, 1, 64, 16
2, 85596, Control_c, 1, 64, 32
2, 85596, Note_on_c, 1, 70, 68
2, 85600, Note_on_c, 1, 67, 62
2, 85600, Note_on_c, 1, 74, 66
2, 85608, Note_off_c, 1, 39, 0
2, 85608, Control_c, 1, 64, 48
2, 85608, Note_on_c, 1, 79, 71
2, 85616, Control_c, 1, 64, 64
2, 85620, Control_c, 1, 64, 80
2, 85624, Control_c, 1, 64, 127
2, 85628, Control_c, 1, 64, 127
2, 85628, Control_c, 1, 64, 127
2, 85636, Note_off_c, 1, 67, 0
2, 85636, Note_off_c, 1, 46, 0
2, 85640, Control_c, 1, 64, 127
2, 85644, Control_c, 1, 64, 127
2, 85656, Note_off_c, 1, 70, 0
2, 85676, Note_off_c, 1, 74, 0
2, 85684, Note_off_c, 1, 55, 0
2, 85704, Note_off_c, 1, 79, 0
2, 85840, Control_c, 1, 64, 127
2, 85848, Control_c, 1, 64, 127
2, 85848, Control_c, 1, 64, 127
2, 85852, Control_c, 1, 64, 80
2, 85856, Control_c, 1, 64, 64
2, 85860, Control_c, 1, 64, 48
2, 85860, Control_c, 1, 64, 32
2, 85868, Note_on_c, 1, 58, 62
2, 85868, Control_c, 1, 64, 16
2, 85868, Note_on_c, 1, 61, 68
2, 85872, Control_c, 1, 64, 0
2, 85876, Note_on_c, 1, 51, 56
2, 85880, Control_c, 1, 64, 0
2, 85880, Control_c, 1, 64, 0
2, 85884, Control_c, 1, 64, 0
2, 85888, Control_c, 1, 64, 0
2, 85968, Note_on_c, 1, 86, 82
2, 85976, Note_on_c, 1, 79, 73
2, 85996, Control_c, 1, 64, 0
2, 86004, Control_c, 1, 64, 0
2, 86012, Control_c, 1, 64, 0
2, 86016, Control_c, 1, 64, 0
2, 86020, Control_c, 1, 64, 16
2, 86024, Control_c, 1, 64, 16
2, 86024, Control_c, 1, 64, 32
2, 86032, Control_c, 1, 64, 48
2, 86036, Control_c, 1, 64, 64
2, 86044, Control_c, 1, 64, 80
2, 86048, Note_off_c, 1, 58, 0
2, 86052, Control_c, 1, 64, 127
2, 86052, Control_c, 1, 64, 127
2, 86060, Control_c, 1, 64, 127
2, 86064, Control_c, 1, 64, 127
2, 86072, Note_off_c, 1, 61, 0
2, 86072, Control_c, 1, 64, 127
2, 86092, Note_on_c, 1, 82, 77
2, 86100, Note_off_c, 1, 51, 0
2, 86100, Note_on_c, 1, 91, 81
2, 86128, Note_off_c, 1, 79, 0
2, 86132, Note_off_c, 1, 86, 0
2, 86180, Note_off_c, 1, 91, 0
2, 86180, Note_off_c, 1, 82, 0
2, 86220, Control_c, 1, 64, 127
2, 86228, Control_c, 1, 64, 127
2, 86236, Control_c, 1, 64, 127
2, 86244, Control_c, 1, 64, 127
2, 86248, Control_c, 1, 64, 64
2, 86256, Control_c, 1, 64, 48
2, 86264, Control_c, 1, 64, 32
2, 86264, Note_on_c, 1, 60, 71
2, 86268, Note_on_c, 1, 50, 58
2, 86276, Control_c, 1, 64, 16
2, 86276, Control_c, 1, 64, 0
2, 86284, Control_c, 1, 64, 0
2, 86284, Control_c, 1, 64, 0
2, 86292, Note_on_c, 1, 52, 52
2, 86292, Note_on_c, 1, 66, 79
2, 86292, Control_c, 1, 64, 0
2, 86296, Control_c, 1, 64, 0
2, 86324, Note_off_c, 1, 66, 0
2, 86352, Control_c, 1, 64, 0
2, 86360, Control_c, 1, 64, 0
2, 86364, Note_off_c, 1, 60, 0
2, 86372, Control_c, 1, 64, 0
2, 86372, Control_c, 1, 64, 0
2, 86372, Control_c, 1, 64, 16
2, 86380, Control_c, 1, 64, 16
2, 86384, Note_off_c, 1, 52, 0
2, 86388, Note_on_c, 1, 84, 73
2, 86388, Control_c, 1, 64, 32
2, 86392, Control_c, 1, 64, 48
2, 86400, Control_c, 1, 64, 64
2, 86400, Note_on_c, 1, 90, 69
2, 86412, Control_c, 1, 64, 80
2, 86416, Control_c, 1, 64, 127
2, 86420, Note_off_c, 1, 50, 0
2, 86420, Control_c, 1, 64, 127
2, 86428, Control_c, 1, 64, 127
2, 86432, Control_c, 1, 64, 127
2, 86440, Control_c, 1, 64, 127
2, 86524, Note_on_c, 1, 78, 66
2, 86592, Note_off_c, 1, 84, 0
2, 86604, Note_off_c, 1, 78, 0
2, 86612, Note_off_c, 1, 90, 0
2, 86612, Control_c, 1, 64, 127
2, 86616, Control_c, 1, 64, 127
2, 86616, Control_c, 1, 64, 127
2, 86620, Control_c, 1, 64, 80
2, 86624, Control_c, 1, 64, 64
2, 86632, Control_c, 1, 64, 48
2, 86632, Control_c, 1, 64, 32
2, 86632, Control_c, 1, 64, 16
2, 86636, Control_c, 1, 64, 0
2, 86644, Control_c, 1, 64, 0
2, 86644, Control_c, 1, 64, 0
2, 86644, Control_c, 1, 64, 0
2, 86652, Note_on_c, 1, 53, 66
2, 86652, Control_c, 1, 64, 0
2, 86660, Note_on_c, 1, 43, 70
2, 86660, Note_on_c, 1, 59, 71
2, 86732, Control_c, 1, 64, 0
2, 86740, Control_c, 1, 64, 0
2, 86748, Control_c, 1, 64, 0
2, 86752, Control_c, 1, 64, 0
2, 86756, Control_c, 1, 64, 16
2, 86756, Control_c, 1, 64, 16
2, 86760, Control_c, 1, 64, 32
2, 86768, Control_c, 1, 64, 48
2, 86776, Control_c, 1, 64, 64
2, 86776, Note_on_c, 1, 86, 70
2, 86780, Note_on_c, 1, 83, 70
2, 86788, Control_c, 1, 64, 80
2, 86788, Control_c, 1, 64, 127
2, 86792, Note_on_c, 1, 89, 73
2, 86796, Control_c, 1, 64, 127
2, 86796, Note_on_c, 1, 77, 66
2, 86800, Note_off_c, 1, 43, 0
2, 86804, Control_c, 1, 64, 127
2, 86808, Control_c, 1, 64, 127
2, 86808, Control_c, 1, 64, 127
2, 86816, Note_off_c, 1, 53, 0
2, 86828, Note_off_c, 1, 59, 0
2, 86836, Note_off_c, 1, 77, 0
2, 86872, Note_off_c, 1, 83, 0
2, 86892, Note_off_c, 1, 86, 0
2, 86896, Note_off_c, 1, 89, 0
2, 87020, Control_c, 1, 64, 127
2, 87020, Control_c, 1, 64, 127
2, 87028, Control_c, 1, 64, 127
2, 87028, Control_c, 1, 64, 80
2, 87032, Note_on_c, 1, 55, 73
2, 87036, Note_on_c, 1, 48, 62
2, 87040, Control_c, 1, 64, 48
2, 87048, Control_c, 1, 64, 32
2, 87048, Note_on_c, 1, 63, 77
2, 87056, Control_c, 1, 64, 16
2, 87056, Control_c, 1, 64, 0
2, 87056, Control_c, 1, 64, 0
2, 87060, Control_c, 1, 64, 0
2, 87060, Control_c, 1, 64, 0
2, 87068, Control_c, 1, 64, 0
2, 87152, Note_on_c, 1, 87, 83
2, 87152, Note_on_c, 1, 84, 76
2, 87244, Note_on_c, 1, 89, 70
2, 87244, Note_on_c, 1, 86, 74
2, 87252, Note_off_c, 1, 87, 0
2, 87260, Note_off_c, 1, 84, 0
2, 87300, Note_off_c, 1, 86, 0
2, 87328, Note_off_c, 1, 89, 0
2, 87424, Control_c, 1, 64, 0
2, 87424, Control_c, 1, 64, 0
2, 87428, Control_c, 1, 64, 0
2, 87432, Control_c, 1, 64, 0
2, 87436, Note_on_c, 1, 87, 77
2, 87436, Control_c, 1, 64, 16
2, 87436, Control_c, 1, 64, 16
2, 87444, Note_on_c, 1, 91, 79
2, 87444, Control_c, 1, 64, 32
2, 87452, Note_off_c, 1, 48, 0
2, 87452, Note_off_c, 1, 55, 0
2, 87452, Control_c, 1, 64, 48
2, 87456, Control_c, 1, 64, 64
2, 87464, Control_c, 1, 64, 80
2, 87464, Control_c, 1, 64, 127
2, 87472, Note_off_c, 1, 63, 0
2, 87472, Control_c, 1, 64, 127
2, 87476, Control_c, 1, 64, 127
2, 87484, Control_c, 1, 64, 127
2, 87492, Control_c, 1, 64, 127
2, 87496, Note_off_c, 1, 87, 0
2, 87532, Control_c, 1, 64, 127
2, 87540, Control_c, 1, 64, 127
2, 87540, Note_on_c, 1, 86, 63
2, 87544, Control_c, 1, 64, 127
2, 87548, Note_on_c, 1, 89, 65
2, 87552, Control_c, 1, 64, 64
2, 87560, Control_c, 1, 64, 48
2, 87560, Control_c, 1, 64, 16
2, 87560, Control_c, 1, 64, 16
2, 87564, Control_c, 1, 64, 0
2, 87568, Control_c, 1, 64, 0
2, 87572, Control_c, 1, 64, 0
2, 87572, Control_c, 1, 64, 0
2, 87576, Note_off_c, 1, 91, 0
2, 87628, Note_on_c, 1, 58, 55
2, 87636, Note_on_c, 1, 87, 71
2, 87636, Note_on_c, 1, 49, 62
2, 87640, Note_on_c, 1, 64, 53
2, 87640, Note_on_c, 1, 84, 54
2, 87644, Note_off_c, 1, 89, 0
2, 87648, Control_c, 1, 64, 0
2, 87648, Control_c, 1, 64, 0
2, 87656, Control_c, 1, 64, 0
2, 87660, Control_c, 1, 64, 0
2, 87660, Control_c, 1, 64, 16
2, 87668, Note_off_c, 1, 86, 0
2, 87668, Control_c, 1, 64, 16
2, 87668, Control_c, 1, 64, 32
2, 87676, Note_on_c, 1, 62, 31
2, 87676, Control_c, 1, 64, 48
2, 87680, Control_c, 1, 64, 64
2, 87684, Control_c, 1, 64, 80
2, 87688, Control_c, 1, 64, 127
2, 87692, Control_c, 1, 64, 127
2, 87696, Control_c, 1, 64, 127
2, 87696, Control_c, 1, 64, 127
2, 87696, Control_c, 1, 64, 127
2, 87708, Note_off_c, 1, 62, 0
2, 87708, Note_off_c, 1, 58, 0
2, 87712, Note_off_c, 1, 84, 0
2, 87712, Note_off_c, 1, 64, 0
2, 87716, Note_off_c, 1, 49, 0
2, 87724, Note_off_c, 1, 87, 0
2, 87752, Control_c, 1, 64, 127
2, 87752, Control_c, 1, 64, 127
2, 87756, Control_c, 1, 64, 127
2, 87764, Control_c, 1, 64, 127
2, 87764, Control_c, 1, 64, 80
2, 87772, Control_c, 1, 64, 64
2, 87772, Control_c, 1, 64, 32
2, 87776, Control_c, 1, 64, 16
2, 87780, Control_c, 1, 64, 16
2, 87780, Control_c, 1, 64, 0
2, 87784, Control_c, 1, 64, 0
2, 87784, Control_c, 1, 64, 0
2, 87792, Control_c, 1, 64, 0
2, 87792, Control_c, 1, 64, 0
2, 87824, Note_on_c, 1, 60, 55
2, 87824, Note_on_c, 1, 50, 48
2, 87844, Note_on_c, 1, 86, 74
2, 87848, Note_on_c, 1, 83, 67
2, 87848, Note_on_c, 1, 66, 67
2, 87916, Note_off_c, 1, 66, 0
2, 87940, Note_off_c, 1, 86, 0
2, 87944, Control_c, 1, 64, 0
2, 87948, Control_c, 1, 64, 0
2, 87956, Control_c, 1, 64, 0
2, 87960, Control_c, 1, 64, 16
2, 87968, Note_off_c, 1, 60, 0
2, 87968, Control_c, 1, 64, 16
2, 87968, Control_c, 1, 64, 32
2, 87976, Control_c, 1, 64, 48
2, 87984, Control_c, 1, 64, 64
2, 87996, Control_c, 1, 64, 80
2, 87996, Control_c, 1, 64, 127
2, 87996, Control_c, 1, 64, 127
2, 88004, Control_c, 1, 64, 127
2, 88008, Control_c, 1, 64, 127
2, 88016, Note_on_c, 1, 87, 65
2, 88016, Control_c, 1, 64, 127
2, 88024, Note_on_c, 1, 84, 62
2, 88104, Note_off_c, 1, 84, 0
2, 88120, Note_off_c, 1, 87, 0
2, 88120, Note_off_c, 1, 83, 0
2, 88152, Note_on_c, 1, 89, 74
2, 88160, Note_on_c, 1, 86, 76
2, 88168, Note_on_c, 1, 53, 46
2, 88172, Control_c, 1, 64, 127
2, 88176, Note_off_c, 1, 50, 0
2, 88180, Control_c, 1, 64, 127
2, 88188, Control_c, 1, 64, 127
2, 88188, Control_c, 1, 64, 80
2, 88192, Control_c, 1, 64, 64
2, 88196, Note_on_c, 1, 54, 68
2, 88200, Control_c, 1, 64, 48
2, 88200, Control_c, 1, 64, 16
2, 88208, Note_off_c, 1, 53, 0
2, 88208, Note_on_c, 1, 60, 59
2, 88216, Control_c, 1, 64, 16
2, 88216, Control_c, 1, 64, 0
2, 88216, Control_c, 1, 64, 0
2, 88220, Control_c, 1, 64, 0
2, 88224, Note_off_c, 1, 89, 0
2, 88228, Control_c, 1, 64, 0
2, 88228, Control_c, 1, 64, 0
2, 88232, Note_off_c, 1, 86, 0
2, 88324, Note_on_c, 1, 87, 73
2, 88336, Note_on_c, 1, 84, 67
2, 88364, Note_on_c, 1, 44, 49
2, 88384, Note_off_c, 1, 84, 0
2, 88392, Control_c, 1, 64, 0
2, 88400, Control_c, 1, 64, 0
2, 88404, Control_c, 1, 64, 0
2, 88404, Control_c, 1, 64, 0
2, 88412, Control_c, 1, 64, 16
2, 88412, Control_c, 1, 64, 16
2, 88412, Control_c, 1, 64, 32
2, 88420, Control_c, 1, 64, 48
2, 88420, Control_c, 1, 64, 64
2, 88424, Note_on_c, 1, 83, 75
2, 88428, Note_on_c, 1, 86, 77
2, 88432, Control_c, 1, 64, 80
2, 88432, Control_c, 1, 64, 127
2, 88440, Note_off_c, 1, 44, 0
2, 88440, Control_c, 1, 64, 127
2, 88448, Note_off_c, 1, 87, 0
2, 88448, Control_c, 1, 64, 127
2, 88452, Control_c, 1, 64, 127
2, 88452, Control_c, 1, 64, 127
2, 88472, Note_off_c, 1, 60, 0
2, 88488, Note_off_c, 1, 86, 0
2, 88488, Note_off_c, 1, 54, 0
2, 88496, Note_off_c, 1, 83, 0
2, 88564, Control_c, 1, 64, 127
2, 88568, Control_c, 1, 64, 127
2, 88568, Control_c, 1, 64, 127
2, 88576, Control_c, 1, 64, 127
2, 88576, Note_on_c, 1, 53, 46
2, 88584, Control_c, 1, 64, 64
2, 88588, Control_c, 1, 64, 48
2, 88592, Control_c, 1, 64, 32
2, 88596, Note_on_c, 1, 59, 69
2, 88596, Control_c, 1, 64, 16
2, 88596, Control_c, 1, 64, 0
2, 88604, Note_on_c, 1, 43, 60
2, 88604, Note_on_c, 1, 49, 59
2, 88612, Control_c, 1, 64, 0
2, 88612, Control_c, 1, 64, 0
2, 88612, Control_c, 1, 64, 0
2, 88616, Control_c, 1, 64, 0
2, 88712, Note_on_c, 1, 85, 73
2, 88712, Note_on_c, 1, 82, 73
2, 88740, Note_off_c, 1, 43, 0
2, 88748, Note_off_c, 1, 49, 0
2, 88748, Control_c, 1, 64, 0
2, 88748, Control_c, 1, 64, 0
2, 88752, Note_off_c, 1, 53, 0
2, 88752, Control_c, 1, 64, 0
2, 88760, Note_off_c, 1, 82, 0
2, 88760, Control_c, 1, 64, 0
2, 88768, Note_off_c, 1, 59, 0
2, 88768, Control_c, 1, 64, 16
2, 88768, Control_c, 1, 64, 16
2, 88772, Control_c, 1, 64, 32
2, 88776, Control_c, 1, 64, 48
2, 88776, Control_c, 1, 64, 64
2, 88780, Control_c, 1, 64, 80
2, 88788, Control_c, 1, 64, 127
2, 88788, Control_c, 1, 64, 127
2, 88792, Control_c, 1, 64, 127
2, 88796, Control_c, 1, 64, 127
2, 88800, Control_c, 1, 64, 127
2, 88816, Note_off_c, 1, 85, 0
2, 88820, Note_on_c, 1, 87, 63
2, 88828, Note_on_c, 1, 83, 75
2, 88916, Note_off_c, 1, 83, 0
2, 88932, Note_off_c, 1, 87, 0
2, 88984, Note_on_c, 1, 53, 68
2, 88992, Note_on_c, 1, 56, 67
2, 88992, Note_on_c, 1, 63, 60
2, 88992, Note_on_c, 1, 85, 80
2, 89000, Note_on_c, 1, 59, 56
2, 89000, Note_on_c, 1, 89, 76
2, 89004, Control_c, 1, 64, 127
2, 89008, Control_c, 1, 64, 127
2, 89012, Control_c, 1, 64, 127
2, 89012, Control_c, 1, 64, 127
2, 89020, Control_c, 1, 64, 64
2, 89020, Control_c, 1, 64, 48
2, 89028, Control_c, 1, 64, 32
2, 89028, Control_c, 1, 64, 16
2, 89032, Control_c, 1, 64, 0
2, 89032, Control_c, 1, 64, 0
2, 89036, Control_c, 1, 64, 0
2, 89040, Control_c, 1, 64, 0
2, 89048, Control_c, 1, 64, 0
2, 89060, Note_off_c, 1, 89, 0
2, 89080, Note_off_c, 1, 85, 0
2, 89100, Note_off_c, 1, 59, 0
2, 89108, Note_off_c, 1, 63, 0
2, 89108, Note_on_c, 1, 84, 47
2, 89116, Note_off_c, 1, 56, 0
2, 89116, Note_on_c, 1, 87, 57
2, 89120, Control_c, 1, 64, 0
2, 89128, Note_off_c, 1, 53, 0
2, 89128, Control_c, 1, 64, 0
2, 89136, Control_c, 1, 64, 0
2, 89140, Control_c, 1, 64, 0
2, 89148, Control_c, 1, 64, 16
2, 89152, Control_c, 1, 64, 16
2, 89156, Control_c, 1, 64, 32
2, 89168, Control_c, 1, 64, 48
2, 89176, Control_c, 1, 64, 64
2, 89184, Control_c, 1, 64, 80
2, 89184, Control_c, 1, 64, 127
2, 89188, Control_c, 1, 64, 127
2, 89196, Control_c, 1, 64, 127
2, 89204, Control_c, 1, 64, 127
2, 89212, Control_c, 1, 64, 127
2, 89224, Note_on_c, 1, 85, 81
2, 89236, Note_on_c, 1, 82, 68
2, 89260, Note_off_c, 1, 84, 0
2, 89264, Note_off_c, 1, 82, 0
2, 89292, Note_off_c, 1, 87, 0
2, 89300, Note_off_c, 1, 85, 0
2, 89376, Note_on_c, 1, 84, 83
2, 89380, Note_on_c, 1, 81, 65
2, 89416, Control_c, 1, 67, 0
2, 89436, Control_c, 1, 64, 127
2, 89436, Control_c, 1, 64, 127
2, 89444, Control_c, 1, 64, 127
2, 89444, Control_c, 1, 64, 80
2, 89448, Control_c, 1, 64, 48
2, 89456, Note_off_c, 1, 84, 0
2, 89456, Control_c, 1, 64, 16
2, 89456, Control_c, 1, 64, 0
2, 89464, Note_off_c, 1, 81, 0
2, 89464, Control_c, 1, 64, 0
2, 89468, Control_c, 1, 64, 0
2, 89472, Control_c, 1, 64, 0
2, 89472, Control_c, 1, 64, 0
2, 89492, Note_on_c, 1, 36, 67
2, 89500, Control_c, 1, 67, 127
2, 89504, Note_on_c, 1, 43, 64
2, 89512, Note_on_c, 1, 85, 71
2, 89524, Note_on_c, 1, 82, 70
2, 89532, Note_off_c, 1, 43, 0
2, 89532, Note_off_c, 1, 36, 0
2, 89532, Control_c, 1, 64, 0
2, 89536, Control_c, 1, 64, 0
2, 89544, Control_c, 1, 64, 0
2, 89544, Control_c, 1, 64, 0
2, 89552, Note_off_c, 1, 82, 0
2, 89552, Control_c, 1, 64, 16
2, 89552, Control_c, 1, 64, 16
2, 89564, Control_c, 1, 64, 32
2, 89568, Note_off_c, 1, 85, 0
2, 89568, Control_c, 1, 64, 48
2, 89572, Control_c, 1, 64, 64
2, 89580, Control_c, 1, 64, 80
2, 89580, Control_c, 1, 64, 127
2, 89580, Control_c, 1, 64, 127
2, 89584, Control_c, 1, 64, 127
2, 89592, Control_c, 1, 64, 127
2, 89592, Control_c, 1, 64, 127
2, 89632, Note_on_c, 1, 81, 75
2, 89636, Note_on_c, 1, 77, 71
2, 89704, Note_off_c, 1, 77, 0
2, 89724, Note_off_c, 1, 81, 0
2, 89728, Control_c, 1, 64, 127
2, 89728, Control_c, 1, 64, 127
2, 89732, Control_c, 1, 64, 127
2, 89736, Control_c, 1, 64, 80
2, 89744, Control_c, 1, 64, 64
2, 89744, Control_c, 1, 64, 32
2, 89744, Control_c, 1, 64, 16
2, 89748, Note_on_c, 1, 52, 59
2, 89756, Control_c, 1, 64, 0
2, 89756, Control_c, 1, 64, 0
2, 89760, Control_c, 1, 64, 0
2, 89764, Control_c, 1, 64, 0
2, 89764, Note_on_c, 1, 82, 74
2, 89768, Control_c, 1, 64, 0
2, 89772, Note_on_c, 1, 78, 72
2, 89772, Note_on_c, 1, 58, 55
2, 89776, Note_on_c, 1, 56, 47
2, 89784, Note_on_c, 1, 53, 44
2, 89784, Note_on_c, 1, 63, 54
2, 89796, Note_off_c, 1, 53, 0
2, 89804, Note_off_c, 1, 78, 0
2, 89804, Control_c, 1, 64, 0
2, 89812, Control_c, 1, 64, 0
2, 89816, Control_c, 1, 64, 0
2, 89820, Note_off_c, 1, 82, 0
2, 89824, Control_c, 1, 64, 0
2, 89824, Control_c, 1, 64, 16
2, 89832, Control_c, 1, 64, 16
2, 89832, Control_c, 1, 64, 32
2, 89832, Control_c, 1, 64, 48
2, 89840, Note_off_c, 1, 58, 0
2, 89840, Control_c, 1, 64, 64
2, 89844, Note_off_c, 1, 63, 0
2, 89852, Note_off_c, 1, 56, 0
2, 89852, Control_c, 1, 64, 80
2, 89860, Note_off_c, 1, 52, 0
2, 89860, Control_c, 1, 64, 127
2, 89860, Control_c, 1, 64, 127
2, 89864, Control_c, 1, 64, 127
2, 89868, Control_c, 1, 64, 127
2, 89872, Control_c, 1, 64, 127
2, 89880, Note_on_c, 1, 72, 61
2, 89908, Note_on_c, 1, 80, 60
2, 89912, Note_off_c, 1, 72, 0
2, 89932, Control_c, 1, 64, 127
2, 89932, Control_c, 1, 64, 127
2, 89940, Note_off_c, 1, 80, 0
2, 89940, Control_c, 1, 64, 127
2, 89948, Control_c, 1, 64, 64
2, 89952, Control_c, 1, 64, 48
2, 89956, Control_c, 1, 64, 16
2, 89956, Control_c, 1, 64, 0
2, 89960, Control_c, 1, 64, 0
2, 89960, Control_c, 1, 64, 0
2, 89968, Control_c, 1, 64, 0
2, 89976, Control_c, 1, 64, 0
2, 89980, Note_on_c, 1, 52, 59
2, 89988, Note_on_c, 1, 58, 79
2, 89988, Note_on_c, 1, 42, 65
2, 89996, Note_on_c, 1, 84, 83
2, 90004, Note_on_c, 1, 80, 72
2, 90016, Control_c, 1, 64, 0
2, 90016, Note_on_c, 1, 75, 39
2, 90024, Control_c, 1, 64, 0
2, 90024, Control_c, 1, 64, 0
2, 90028, Control_c, 1, 64, 0
2, 90028, Control_c, 1, 64, 16
2, 90036, Control_c, 1, 64, 16
2, 90036, Control_c, 1, 64, 32
2, 90044, Note_off_c, 1, 75, 0
2, 90044, Control_c, 1, 64, 48
2, 90044, Control_c, 1, 64, 64
2, 90056, Control_c, 1, 64, 80
2, 90056, Control_c, 1, 64, 127
2, 90060, Control_c, 1, 64, 127
2, 90064, Control_c, 1, 64, 127
2, 90064, Control_c, 1, 64, 127
2, 90064, Control_c, 1, 64, 127
2, 90072, Note_off_c, 1, 58, 0
2, 90076, Note_off_c, 1, 84, 0
2, 90076, Note_off_c, 1, 52, 0
2, 90084, Note_off_c, 1, 42, 0
2, 90092, Note_off_c, 1, 80, 0
2, 90096, Control_c, 1, 64, 127
2, 90096, Control_c, 1, 64, 127
2, 90104, Control_c, 1, 64, 127
2, 90104, Control_c, 1, 64, 80
2, 90112, Control_c, 1, 64, 48
2, 90116, Control_c, 1, 64, 32
2, 90120, Control_c, 1, 64, 16
2, 90124, Control_c, 1, 64, 0
2, 90124, Control_c, 1, 64, 0
2, 90128, Control_c, 1, 64, 0
2, 90132, Control_c, 1, 64, 0
2, 90132, Control_c, 1, 64, 0
2, 90140, Note_on_c, 1, 47, 61
2, 90152, Note_on_c, 1, 57, 69
2, 90160, Note_on_c, 1, 51, 68
2, 90160, Note_on_c, 1, 41, 63
2, 90228, Note_off_c, 1, 41, 0
2, 90232, Control_c, 1, 64, 0
2, 90240, Note_off_c, 1, 47, 0
2, 90240, Control_c, 1, 64, 0
2, 90248, Note_off_c, 1, 57, 0
2, 90248, Control_c, 1, 64, 0
2, 90256, Note_off_c, 1, 51, 0
2, 90256, Control_c, 1, 64, 0
2, 90256, Control_c, 1, 64, 16
2, 90260, Control_c, 1, 64, 16
2, 90260, Control_c, 1, 64, 32
2, 90268, Control_c, 1, 64, 48
2, 90276, Control_c, 1, 64, 64
2, 90288, Control_c, 1, 64, 80
2, 90288, Control_c, 1, 64, 127
2, 90288, Control_c, 1, 64, 127
2, 90296, Control_c, 1, 64, 127
2, 90296, Control_c, 1, 64, 127
2, 90304, Control_c, 1, 64, 127
2, 90392, Note_on_c, 1, 79, 78
2, 90392, Note_on_c, 1, 75, 80
2, 90396, Note_on_c, 1, 84, 81
2, 90400, Note_on_c, 1, 72, 79
2, 90468, Note_off_c, 1, 75, 0
2, 90480, Note_off_c, 1, 72, 0
2, 90488, Note_off_c, 1, 84, 0
2, 90500, Note_off_c, 1, 79, 0
2, 90536, Control_c, 1, 64, 127
2, 90536, Control_c, 1, 64, 127
2, 90540, Control_c, 1, 64, 127
2, 90548, Control_c, 1, 64, 80
2, 90556, Control_c, 1, 64, 64
2, 90556, Control_c, 1, 64, 32
2, 90556, Control_c, 1, 64, 16
2, 90560, Control_c, 1, 64, 0
2, 90564, Note_on_c, 1, 56, 67
2, 90568, Note_on_c, 1, 67, 64
2, 90568, Control_c, 1, 64, 0
2, 90576, Note_on_c, 1, 58, 58
2, 90576, Control_c, 1, 64, 0
2, 90576, Note_on_c, 1, 63, 60
2, 90580, Control_c, 1, 64, 0
2, 90584, Note_on_c, 1, 60, 60
2, 90584, Control_c, 1, 64, 0
2, 90588, Note_on_c, 1, 75, 73
2, 90684, Note_off_c, 1, 75, 0
2, 90704, Control_c, 1, 64, 0
2, 90712, Control_c, 1, 64, 0
2, 90712, Control_c, 1, 64, 0
2, 90720, Note_off_c, 1, 67, 0
2, 90720, Control_c, 1, 64, 0
2, 90724, Control_c, 1, 64, 16
2, 90724, Control_c, 1, 64, 16
2, 90728, Control_c, 1, 64, 32
2, 90732, Control_c, 1, 64, 48
2, 90740, Note_off_c, 1, 63, 0
2, 90740, Control_c, 1, 64, 64
2, 90744, Control_c, 1, 64, 80
2, 90748, Note_off_c, 1, 60, 0
2, 90752, Control_c, 1, 64, 127
2, 90752, Control_c, 1, 64, 127
2, 90756, Control_c, 1, 64, 127
2, 90760, Note_off_c, 1, 58, 0
2, 90760, Control_c, 1, 64, 127
2, 90768, Note_off_c, 1, 56, 0
2, 90768, Control_c, 1, 64, 127
2, 90792, Note_on_c, 1, 77, 63
2, 90876, Note_off_c, 1, 77, 0
2, 90896, Note_on_c, 1, 46, 21
2, 90916, Control_c, 1, 64, 127
2, 90916, Control_c, 1, 64, 127
2, 90924, Control_c, 1, 64, 127
2, 90928, Control_c, 1, 64, 80
2, 90932, Control_c, 1, 64, 64
2, 90936, Control_c, 1, 64, 32
2, 90936, Control_c, 1, 64, 16
2, 90944, Control_c, 1, 64, 0
2, 90944, Control_c, 1, 64, 0
2, 90944, Control_c, 1, 64, 0
2, 90952, Control_c, 1, 64, 0
2, 90952, Control_c, 1, 64, 0
2, 90956, Note_off_c, 1, 46, 0
2, 90956, Note_on_c, 1, 34, 63
2, 90964, Note_on_c, 1, 74, 63
2, 90964, Note_on_c, 1, 78, 76
2, 91000, Note_off_c, 1, 34, 0
2, 91004, Note_on_c, 1, 79, 53
2, 91020, Note_off_c, 1, 78, 0
2, 91032, Control_c, 1, 64, 0
2, 91040, Control_c, 1, 64, 0
2, 91040, Control_c, 1, 64, 0
2, 91044, Control_c, 1, 64, 0
2, 91052, Control_c, 1, 64, 16
2, 91052, Control_c, 1, 64, 32
2, 91056, Control_c, 1, 64, 48
2, 91060, Control_c, 1, 64, 64
2, 91068, Control_c, 1, 64, 80
2, 91068, Control_c, 1, 64, 127
2, 91072, Control_c, 1, 64, 127
2, 91072, Control_c, 1, 64, 127
2, 91080, Control_c, 1, 64, 127
2, 91080, Control_c, 1, 64, 127
2, 91128, Note_off_c, 1, 79, 0
2, 91188, Note_on_c, 1, 82, 84
2, 91188, Control_c, 1, 64, 127
2, 91192, Note_on_c, 1, 62, 64
2, 91196, Note_on_c, 1, 67, 67
2, 91204, Control_c, 1, 64, 127
2, 91204, Note_on_c, 1, 56, 68
2, 91204, Note_on_c, 1, 80, 56
2, 91208, Control_c, 1, 64, 127
2, 91212, Note_on_c, 1, 60, 54
2, 91216, Control_c, 1, 64, 80
2, 91224, Control_c, 1, 64, 64
2, 91224, Control_c, 1, 64, 32
2, 91224, Control_c, 1, 64, 16
2, 91232, Note_off_c, 1, 80, 0
2, 91232, Control_c, 1, 64, 0
2, 91232, Control_c, 1, 64, 0
2, 91236, Control_c, 1, 64, 0
2, 91240, Note_on_c, 1, 58, 42
2, 91244, Control_c, 1, 64, 0
2, 91244, Control_c, 1, 64, 0
2, 91320, Control_c, 1, 64, 0
2, 91324, Control_c, 1, 64, 0
2, 91332, Control_c, 1, 64, 0
2, 91340, Note_off_c, 1, 67, 0
2, 91340, Note_off_c, 1, 62, 0
2, 91340, Control_c, 1, 64, 0
2, 91344, Control_c, 1, 64, 16
2, 91352, Note_off_c, 1, 60, 0
2, 91352, Control_c, 1, 64, 16
2, 91356, Note_on_c, 1, 84, 70
2, 91360, Note_on_c, 1, 79, 62
2, 91360, Control_c, 1, 64, 32
2, 91368, Note_off_c, 1, 58, 0
2, 91368, Control_c, 1, 64, 48
2, 91368, Control_c, 1, 64, 64
2, 91376, Note_off_c, 1, 74, 0
2, 91380, Control_c, 1, 64, 80
2, 91380, Control_c, 1, 64, 127
2, 91384, Note_off_c, 1, 56, 0
2, 91388, Control_c, 1, 64, 127
2, 91388, Control_c, 1, 64, 127
2, 91392, Control_c, 1, 64, 127
2, 91392, Control_c, 1, 64, 127
2, 91420, Note_off_c, 1, 84, 0
2, 91456, Note_off_c, 1, 79, 0
2, 91464, Note_off_c, 1, 82, 0
2, 91504, Control_c, 1, 64, 127
2, 91508, Control_c, 1, 64, 127
2, 91516, Control_c, 1, 64, 127
2, 91516, Control_c, 1, 64, 80
2, 91524, Control_c, 1, 64, 48
2, 91524, Control_c, 1, 64, 32
2, 91532, Control_c, 1, 64, 16
2, 91532, Control_c, 1, 64, 0
2, 91532, Control_c, 1, 64, 0
2, 91536, Control_c, 1, 64, 0
2, 91536, Control_c, 1, 64, 0
2, 91540, Control_c, 1, 64, 0
2, 91564, Note_on_c, 1, 54, 55
2, 91572, Note_on_c, 1, 44, 65
2, 91572, Note_on_c, 1, 79, 70
2, 91572, Note_on_c, 1, 82, 69
2, 91580, Note_on_c, 1, 60, 70
2, 91580, Note_on_c, 1, 75, 66
2, 91580, Note_on_c, 1, 87, 73
2, 91584, Control_c, 1, 64, 0
2, 91600, Control_c, 1, 64, 0
2, 91604, Note_on_c, 1, 59, 28
2, 91608, Note_off_c, 1, 59, 0
2, 91612, Note_off_c, 1, 75, 0
2, 91612, Control_c, 1, 64, 0
2, 91612, Control_c, 1, 64, 0
2, 91620, Control_c, 1, 64, 16
2, 91620, Control_c, 1, 64, 16
2, 91624, Control_c, 1, 64, 32
2, 91628, Note_off_c, 1, 79, 0
2, 91628, Control_c, 1, 64, 48
2, 91632, Control_c, 1, 64, 64
2, 91640, Control_c, 1, 64, 80
2, 91640, Control_c, 1, 64, 127
2, 91640, Control_c, 1, 64, 127
2, 91648, Control_c, 1, 64, 127
2, 91648, Control_c, 1, 64, 127
2, 91652, Control_c, 1, 64, 127
2, 91656, Note_off_c, 1, 60, 0
2, 91660, Note_off_c, 1, 87, 0
2, 91668, Note_off_c, 1, 82, 0
2, 91672, Note_off_c, 1, 54, 0
2, 91680, Note_off_c, 1, 44, 0
2, 91716, Control_c, 1, 64, 127
2, 91720, Control_c, 1, 64, 127
2, 91720, Control_c, 1, 64, 127
2, 91728, Control_c, 1, 64, 80
2, 91736, Control_c, 1, 64, 48
2, 91736, Control_c, 1, 64, 32
2, 91736, Control_c, 1, 64, 16
2, 91740, Control_c, 1, 64, 0
2, 91744, Control_c, 1, 64, 0
2, 91748, Control_c, 1, 64, 0
2, 91748, Control_c, 1, 64, 0
2, 91752, Note_on_c, 1, 53, 66
2, 91756, Control_c, 1, 64, 0
2, 91756, Note_on_c, 1, 59, 64
2, 91764, Note_on_c, 1, 43, 69
2, 91764, Note_on_c, 1, 78, 70
2, 91768, Note_on_c, 1, 90, 67
2, 91832, Note_off_c, 1, 78, 0
2, 91852, Note_off_c, 1, 90, 0
2, 91864, Control_c, 1, 64, 0
2, 91872, Control_c, 1, 64, 0
2, 91880, Control_c, 1, 64, 0
2, 91892, Control_c, 1, 64, 0
2, 91900, Control_c, 1, 64, 16
2, 91904, Control_c, 1, 64, 16
2, 91912, Control_c, 1, 64, 32
2, 91920, Control_c, 1, 64, 48
2, 91924, Control_c, 1, 64, 64
2, 91940, Control_c, 1, 64, 80
2, 91940, Control_c, 1, 64, 127
2, 91948, Control_c, 1, 64, 127
2, 91948, Control_c, 1, 64, 127
2, 91960, Control_c, 1, 64, 127
2, 91968, Control_c, 1, 64, 127
2, 91996, Note_on_c, 1, 91, 81
2, 91996, Note_on_c, 1, 79, 69
2, 92020, Note_off_c, 1, 59, 0
2, 92028, Note_off_c, 1, 43, 0
2, 92036, Note_off_c, 1, 79, 0
2, 92036, Note_off_c, 1, 53, 0
2, 92048, Note_off_c, 1, 91, 0
2, 92048, Note_on_c, 1, 90, 20
2, 92068, Control_c, 1, 64, 127
2, 92076, Control_c, 1, 64, 127
2, 92080, Note_off_c, 1, 90, 0
2, 92084, Control_c, 1, 64, 127
2, 92084, Control_c, 1, 64, 80
2, 92088, Control_c, 1, 64, 64
2, 92092, Control_c, 1, 64, 32
2, 92096, Control_c, 1, 64, 16
2, 92096, Control_c, 1, 64, 0
2, 92096, Control_c, 1, 64, 0
2, 92104, Control_c, 1, 64, 0
2, 92104, Control_c, 1, 64, 0
2, 92108, Control_c, 1, 64, 0
2, 92132, Note_on_c, 1, 52, 52
2, 92132, Note_on_c, 1, 42, 59
2, 92136, Note_on_c, 1, 80, 71
2, 92140, Note_on_c, 1, 58, 67
2, 92144, Note_on_c, 1, 92, 78
2, 92144, Note_on_c, 1, 87, 64
2, 92184, Note_off_c, 1, 80, 0
2, 92220, Note_off_c, 1, 92, 0
2, 92228, Note_off_c, 1, 87, 0
2, 92276, Note_on_c, 1, 82, 73
2, 92280, Note_on_c, 1, 94, 57
2, 92288, Control_c, 1, 64, 0
2, 92296, Control_c, 1, 64, 0
2, 92300, Note_off_c, 1, 94, 0
2, 92308, Control_c, 1, 64, 0
2, 92312, Note_off_c, 1, 82, 0
2, 92316, Control_c, 1, 64, 0
2, 92328, Control_c, 1, 64, 16
2, 92336, Control_c, 1, 64, 16
2, 92348, Control_c, 1, 64, 32
2, 92364, Control_c, 1, 64, 48
2, 92368, Control_c, 1, 64, 64
2, 92376, Control_c, 1, 64, 80
2, 92376, Control_c, 1, 64, 127
2, 92376, Control_c, 1, 64, 127
2, 92384, Control_c, 1, 64, 127
2, 92392, Note_off_c, 1, 58, 0
2, 92396, Note_on_c, 1, 78, 59
2, 92396, Control_c, 1, 64, 127
2, 92396, Control_c, 1, 64, 127
2, 92404, Note_off_c, 1, 52, 0
2, 92424, Note_on_c, 1, 79, 34
2, 92432, Note_off_c, 1, 78, 0
2, 92432, Note_on_c, 1, 80, 35
2, 92436, Note_off_c, 1, 80, 0
2, 92444, Note_off_c, 1, 42, 0
2, 92444, Note_on_c, 1, 81, 68
2, 92460, Control_c, 1, 64, 127
2, 92460, Control_c, 1, 64, 127
2, 92464, Control_c, 1, 64, 127
2, 92472, Control_c, 1, 64, 64
2, 92472, Control_c, 1, 64, 48
2, 92480, Control_c, 1, 64, 16
2, 92480, Control_c, 1, 64, 0
2, 92484, Control_c, 1, 64, 0
2, 92484, Control_c, 1, 64, 0
2, 92492, Control_c, 1, 64, 0
2, 92492, Control_c, 1, 64, 0
2, 92496, Note_off_c, 1, 81, 0
2, 92500, Note_off_c, 1, 79, 0
2, 92532, Note_on_c, 1, 51, 64
2, 92532, Note_on_c, 1, 57, 62
2, 92548, Note_on_c, 1, 41, 47
2, 92548, Note_on_c, 1, 75, 80
2, 92596, Note_off_c, 1, 75, 0
2, 92616, Note_on_c, 1, 77, 75
2, 92664, Note_off_c, 1, 77, 0
2, 92676, Note_on_c, 1, 75, 71
2, 92712, Note_off_c, 1, 75, 0
2, 92732, Note_on_c, 1, 70, 74
2, 92780, Note_off_c, 1, 70, 0
2, 92848, Note_on_c, 1, 69, 70
2, 92896, Note_off_c, 1, 69, 0
2, 92908, Note_off_c, 1, 41, 0
2, 92908, Note_off_c, 1, 57, 0
2, 92944, Note_off_c, 1, 51, 0
2, 92944, Note_on_c, 1, 68, 69
2, 92984, Note_off_c, 1, 68, 0
2, 93024, Note_on_c, 1, 77, 85
2, 93072, Note_on_c, 1, 50, 57
2, 93072, Note_on_c, 1, 40, 26
2, 93076, Note_on_c, 1, 56, 71
2, 93108, Note_on_c, 1, 68, 74
2, 93128, Note_off_c, 1, 77, 0
2, 93156, Note_off_c, 1, 68, 0
2, 93160, Note_off_c, 1, 56, 0
2, 93176, Note_off_c, 1, 40, 0
2, 93204, Note_on_c, 1, 77, 91
2, 93292, Note_on_c, 1, 46, 62
2, 93292, Note_on_c, 1, 55, 68
2, 93296, Note_on_c, 1, 75, 81
2, 93300, Note_on_c, 1, 39, 60
2, 93320, Note_off_c, 1, 77, 0
2, 93380, Note_on_c, 1, 70, 68
2, 93388, Note_off_c, 1, 75, 0
2, 93440, Note_off_c, 1, 70, 0
2, 93480, Note_on_c, 1, 65, 47
2, 93504, Note_off_c, 1, 65, 0
2, 93524, Note_off_c, 1, 55, 0
2, 93564, Note_on_c, 1, 63, 74
2, 93644, Note_off_c, 1, 63, 0
2, 93652, Note_on_c, 1, 58, 63
2, 93712, Note_off_c, 1, 58, 0
2, 93760, Note_on_c, 1, 55, 51
2, 93816, Control_c, 1, 64, 0
2, 93816, Control_c, 1, 64, 0
2, 93824, Control_c, 1, 64, 0
2, 93836, Control_c, 1, 64, 0
2, 93836, Control_c, 1, 64, 16
2, 93844, Control_c, 1, 64, 16
2, 93852, Note_on_c, 1, 56, 68
2, 93864, Control_c, 1, 64, 32
2, 93884, Note_off_c, 1, 55, 0
2, 93924, Note_off_c, 1, 56, 0
2, 93932, Note_off_c, 1, 39, 0
2, 93940, Note_off_c, 1, 50, 0
2, 93940, Note_on_c, 1, 58, 56
2, 93952, Control_c, 1, 64, 16
2, 93960, Control_c, 1, 64, 16
2, 93960, Control_c, 1, 64, 0
2, 93980, Note_off_c, 1, 58, 0
2, 93988, Note_on_c, 1, 40, 61
2, 93992, Control_c, 1, 64, 0
2, 94000, Control_c, 1, 64, 0
2, 94004, Note_off_c, 1, 46, 0
2, 94008, Control_c, 1, 64, 0
2, 94008, Control_c, 1, 64, 0
2, 94016, Note_on_c, 1, 60, 64
2, 94068, Note_off_c, 1, 60, 0
2, 94088, Note_on_c, 1, 61, 62
2, 94124, Note_off_c, 1, 61, 0
2, 94176, Note_on_c, 1, 64, 70
2, 94220, Note_off_c, 1, 64, 0
2, 94248, Note_on_c, 1, 67, 78
2, 94316, Note_on_c, 1, 70, 77
2, 94320, Note_off_c, 1, 67, 0
2, 94376, Note_off_c, 1, 70, 0
2, 94384, Note_on_c, 1, 73, 69
2, 94384, Note_on_c, 1, 55, 63
2, 94388, Note_on_c, 1, 49, 61
2, 94396, Note_off_c, 1, 73, 0
2, 94452, Note_off_c, 1, 40, 0
2, 94452, Note_on_c, 1, 76, 75
2, 94500, Note_off_c, 1, 76, 0
2, 94520, Note_on_c, 1, 79, 71
2, 94560, Note_on_c, 1, 82, 74
2, 94572, Note_off_c, 1, 79, 0
2, 94572, Note_on_c, 1, 40, 55
2, 94600, Note_off_c, 1, 40, 0
2, 94608, Control_c, 1, 64, 0
2, 94616, Control_c, 1, 64, 0
2, 94620, Note_on_c, 1, 85, 77
2, 94620, Control_c, 1, 64, 0
2, 94628, Control_c, 1, 64, 0
2, 94628, Control_c, 1, 64, 16
2, 94632, Note_off_c, 1, 82, 0
2, 94636, Control_c, 1, 64, 32
2, 94640, Control_c, 1, 64, 48
2, 94640, Control_c, 1, 64, 64
2, 94644, Note_off_c, 1, 55, 0
2, 94648, Control_c, 1, 64, 80
2, 94656, Control_c, 1, 64, 127
2, 94656, Control_c, 1, 64, 127
2, 94656, Control_c, 1, 64, 127
2, 94660, Control_c, 1, 64, 127
2, 94668, Note_off_c, 1, 49, 0
2, 94668, Control_c, 1, 64, 127
2, 94676, Note_off_c, 1, 85, 0
2, 94724, Control_c, 1, 64, 127
2, 94732, Control_c, 1, 64, 127
2, 94736, Control_c, 1, 64, 127
2, 94736, Control_c, 1, 64, 80
2, 94744, Control_c, 1, 64, 64
2, 94752, Control_c, 1, 64, 48
2, 94752, Control_c, 1, 64, 32
2, 94752, Control_c, 1, 64, 16
2, 94756, Control_c, 1, 64, 0
2, 94760, Control_c, 1, 64, 0
2, 94764, Control_c, 1, 64, 0
2, 94764, Control_c, 1, 64, 0
2, 94772, Note_on_c, 1, 41, 54
2, 94776, Control_c, 1, 64, 0
2, 94780, Note_on_c, 1, 48, 53
2, 94792, Note_on_c, 1, 56, 62
2, 94928, Control_c, 1, 64, 0
2, 94928, Control_c, 1, 64, 0
2, 94936, Control_c, 1, 64, 0
2, 94940, Control_c, 1, 64, 0
2, 94940, Control_c, 1, 64, 16
2, 94944, Control_c, 1, 64, 16
2, 94948, Control_c, 1, 64, 32
2, 94948, Control_c, 1, 64, 48
2, 94956, Control_c, 1, 64, 64
2, 94964, Control_c, 1, 64, 80
2, 94968, Control_c, 1, 64, 127
2, 94968, Control_c, 1, 64, 127
2, 94976, Control_c, 1, 64, 127
2, 94976, Note_on_c, 1, 86, 84
2, 94984, Control_c, 1, 64, 127
2, 94984, Control_c, 1, 64, 127
2, 95036, Note_off_c, 1, 86, 0
2, 95052, Note_on_c, 1, 84, 73
2, 95104, Note_on_c, 1, 86, 69
2, 95120, Note_off_c, 1, 84, 0
2, 95120, Control_c, 1, 64, 127
2, 95128, Control_c, 1, 64, 127
2, 95132, Control_c, 1, 64, 127
2, 95140, Control_c, 1, 64, 80
2, 95148, Control_c, 1, 67, 0
2, 95156, Control_c, 1, 64, 64
2, 95160, Control_c, 1, 64, 48
2, 95168, Control_c, 1, 64, 32
2, 95172, Control_c, 1, 64, 16
2, 95176, Control_c, 1, 64, 16
2, 95176, Note_on_c, 1, 84, 55
2, 95180, Control_c, 1, 64, 0
2, 95188, Control_c, 1, 64, 0
2, 95188, Control_c, 1, 64, 0
2, 95196, Control_c, 1, 64, 0
2, 95216, Control_c, 1, 67, 127
2, 95224, Note_on_c, 1, 80, 58
2, 95236, Note_off_c, 1, 86, 0
2, 95236, Control_c, 1, 64, 0
2, 95244, Note_off_c, 1, 84, 0
2, 95244, Control_c, 1, 64, 0
2, 95248, Control_c, 1, 64, 0
2, 95268, Note_off_c, 1, 80, 0
2, 95312, Note_on_c, 1, 79, 27
2, 95324, Note_off_c, 1, 79, 0
2, 95360, Note_on_c, 1, 91, 73
2, 95360, Control_c, 1, 64, 0
2, 95364, Note_on_c, 1, 93, 72
2, 95364, Control_c, 1, 64, 0
2, 95372, Control_c, 1, 64, 0
2, 95380, Control_c, 1, 64, 0
2, 95380, Control_c, 1, 64, 16
2, 95384, Note_off_c, 1, 93, 0
2, 95384, Control_c, 1, 64, 16
2, 95400, Control_c, 1, 64, 32
2, 95408, Note_off_c, 1, 91, 0
2, 95412, Note_on_c, 1, 89, 74
2, 95420, Note_off_c, 1, 41, 0
2, 95420, Control_c, 1, 64, 48
2, 95440, Control_c, 1, 64, 64
2, 95448, Control_c, 1, 64, 80
2, 95452, Control_c, 1, 64, 127
2, 95460, Note_off_c, 1, 89, 0
2, 95460, Control_c, 1, 64, 127
2, 95468, Control_c, 1, 64, 127
2, 95480, Control_c, 1, 64, 127
2, 95488, Note_off_c, 1, 56, 0
2, 95488, Note_on_c, 1, 91, 71
2, 95508, Control_c, 1, 64, 127
2, 95516, Control_c, 1, 64, 127
2, 95516, Control_c, 1, 64, 127
2, 95520, Control_c, 1, 64, 80
2, 95528, Control_c, 1, 64, 64
2, 95536, Control_c, 1, 64, 48
2, 95536, Control_c, 1, 64, 32
2, 95544, Control_c, 1, 64, 16
2, 95548, Control_c, 1, 64, 0
2, 95556, Control_c, 1, 64, 0
2, 95564, Control_c, 1, 64, 0
2, 95568, Control_c, 1, 64, 0
2, 95572, Note_on_c, 1, 89, 69
2, 95576, Control_c, 1, 64, 0
2, 95584, Note_on_c, 1, 42, 77
2, 95584, Note_on_c, 1, 51, 74
2, 95592, Note_on_c, 1, 57, 71
2, 95596, Note_off_c, 1, 48, 0
2, 95596, Note_on_c, 1, 86, 44
2, 95640, Note_off_c, 1, 86, 0
2, 95660, Note_off_c, 1, 89, 0
2, 95660, Note_off_c, 1, 91, 0
2, 95664, Note_on_c, 1, 84, 59
2, 95672, Control_c, 1, 64, 0
2, 95684, Control_c, 1, 64, 0
2, 95692, Control_c, 1, 64, 0
2, 95700, Control_c, 1, 64, 0
2, 95704, Control_c, 1, 64, 16
2, 95720, Note_off_c, 1, 84, 0
2, 95728, Control_c, 1, 64, 0
2, 95740, Control_c, 1, 64, 0
2, 95748, Note_on_c, 1, 98, 85
2, 95748, Control_c, 1, 64, 0
2, 95864, Note_off_c, 1, 98, 0
2, 95864, Note_on_c, 1, 98, 58
2, 95896, Note_on_c, 1, 93, 52
2, 95916, Note_off_c, 1, 98, 0
2, 95940, Note_on_c, 1, 90, 68
2, 95952, Note_off_c, 1, 93, 0
2, 95980, Note_off_c, 1, 90, 0
2, 95992, Note_on_c, 1, 86, 65
2, 96020, Note_off_c, 1, 86, 0
2, 96060, Note_on_c, 1, 85, 67
2, 96108, Note_off_c, 1, 85, 0
2, 96116, Note_on_c, 1, 84, 57
2, 96128, Note_on_c, 1, 86, 50
2, 96144, Note_off_c, 1, 86, 0
2, 96144, Note_off_c, 1, 84, 0
2, 96172, Note_off_c, 1, 51, 0
2, 96172, Note_on_c, 1, 83, 69
2, 96184, Note_off_c, 1, 42, 0
2, 96192, Control_c, 1, 64, 0
2, 96196, Control_c, 1, 64, 0
2, 96200, Control_c, 1, 64, 0
2, 96204, Control_c, 1, 64, 16
2, 96204, Control_c, 1, 64, 16
2, 96212, Control_c, 1, 64, 32
2, 96212, Control_c, 1, 64, 48
2, 96220, Note_off_c, 1, 57, 0
2, 96224, Control_c, 1, 64, 64
2, 96228, Note_off_c, 1, 83, 0
2, 96240, Control_c, 1, 64, 80
2, 96240, Control_c, 1, 64, 127
2, 96240, Control_c, 1, 64, 127
2, 96244, Control_c, 1, 64, 127
2, 96248, Note_on_c, 1, 82, 76
2, 96252, Control_c, 1, 64, 127
2, 96252, Control_c, 1, 64, 127
2, 96292, Control_c, 1, 64, 127
2, 96300, Control_c, 1, 64, 127
2, 96308, Control_c, 1, 64, 127
2, 96308, Control_c, 1, 64, 80
2, 96312, Control_c, 1, 64, 64
2, 96320, Control_c, 1, 64, 48
2, 96320, Control_c, 1, 64, 16
2, 96328, Control_c, 1, 64, 16
2, 96332, Control_c, 1, 64, 0
2, 96336, Control_c, 1, 64, 0
2, 96336, Note_on_c, 1, 53, 66
2, 96340, Note_on_c, 1, 43, 70
2, 96340, Control_c, 1, 64, 0
2, 96348, Control_c, 1, 64, 0
2, 96348, Note_on_c, 1, 81, 78
2, 96348, Note_on_c, 1, 58, 75
2, 96356, Control_c, 1, 64, 0
2, 96360, Note_on_c, 1, 52, 32
2, 96361, Note_off_c, 1, 52, 0
2, 96364, Note_off_c, 1, 82, 0
2, 96416, Note_off_c, 1, 43, 0
2, 96416, Note_off_c, 1, 53, 0
2, 96436, Note_off_c, 1, 58, 0
2, 96448, Note_on_c, 1, 82, 88
2, 96464, Control_c, 1, 64, 0
2, 96472, Control_c, 1, 64, 0
2, 96472, Control_c, 1, 64, 0
2, 96476, Control_c, 1, 64, 0
2, 96484, Control_c, 1, 64, 16
2, 96484, Control_c, 1, 64, 16
2, 96484, Control_c, 1, 64, 32
2, 96492, Control_c, 1, 64, 48
2, 96496, Control_c, 1, 64, 64
2, 96512, Control_c, 1, 64, 80
2, 96512, Control_c, 1, 64, 127
2, 96516, Control_c, 1, 64, 127
2, 96520, Control_c, 1, 64, 127
2, 96524, Control_c, 1, 64, 127
2, 96532, Control_c, 1, 64, 127
2, 96544, Note_on_c, 1, 86, 76
2, 96560, Note_off_c, 1, 82, 0
2, 96588, Note_off_c, 1, 81, 0
2, 96620, Note_off_c, 1, 86, 0
2, 96620, Note_on_c, 1, 89, 73
2, 96656, Note_off_c, 1, 89, 0
2, 96660, Control_c, 1, 64, 127
2, 96668, Control_c, 1, 64, 127
2, 96668, Control_c, 1, 64, 127
2, 96676, Control_c, 1, 64, 127
2, 96680, Control_c, 1, 64, 64
2, 96680, Control_c, 1, 64, 48
2, 96684, Control_c, 1, 64, 32
2, 96688, Control_c, 1, 64, 16
2, 96688, Control_c, 1, 64, 0
2, 96696, Control_c, 1, 64, 0
2, 96704, Control_c, 1, 64, 0
2, 96704, Control_c, 1, 64, 0
2, 96704, Control_c, 1, 64, 0
2, 96708, Note_on_c, 1, 50, 60
2, 96708, Note_on_c, 1, 59, 56
2, 96716, Note_on_c, 1, 65, 60
2, 96724, Note_on_c, 1, 92, 80
2, 96784, Note_on_c, 1, 93, 83
2, 96968, Control_c, 1, 64, 48
2, 96984, Note_off_c, 1, 92, 0
2, 96996, Note_off_c, 1, 59, 0
2, 96996, Note_off_c, 1, 50, 0
2, 97004, Note_off_c, 1, 93, 0
2, 97004, Note_off_c, 1, 65, 0
2, 97004, Note_on_c, 1, 93, 71
2, 97016, Control_c, 1, 64, 64
2, 97032, Control_c, 1, 64, 80
2, 97036, Control_c, 1, 64, 127
2, 97036, Control_c, 1, 64, 127
2, 97064, Control_c, 1, 64, 127
2, 97064, Control_c, 1, 64, 80
2, 97268, Control_c, 1, 64, 0
2, 97272, Note_on_c, 1, 91, 66
2, 97276, Control_c, 1, 64, 0
2, 97276, Note_on_c, 1, 89, 65
2, 97284, Control_c, 1, 64, 0
2, 97284, Control_c, 1, 64, 16
2, 97284, Control_c, 1, 64, 16
2, 97288, Control_c, 1, 64, 32
2, 97296, Control_c, 1, 64, 48
2, 97308, Control_c, 1, 64, 64
2, 97312, Note_off_c, 1, 89, 0
2, 97316, Control_c, 1, 64, 80
2, 97316, Control_c, 1, 64, 127
2, 97324, Note_off_c, 1, 91, 0
2, 97324, Control_c, 1, 64, 127
2, 97336, Control_c, 1, 64, 127
2, 97344, Note_on_c, 1, 88, 69
2, 97400, Note_off_c, 1, 88, 0
2, 97420, Control_c, 1, 64, 127
2, 97424, Control_c, 1, 64, 127
2, 97428, Control_c, 1, 64, 80
2, 97432, Control_c, 1, 64, 64
2, 97440, Control_c, 1, 64, 48
2, 97440, Control_c, 1, 64, 32
2, 97444, Control_c, 1, 64, 16
2, 97448, Control_c, 1, 64, 0
2, 97452, Control_c, 1, 64, 0
2, 97452, Control_c, 1, 64, 0
2, 97460, Note_on_c, 1, 87, 67
2, 97460, Control_c, 1, 64, 0
2, 97468, Control_c, 1, 64, 0
2, 97480, Note_on_c, 1, 64, 56
2, 97480, Note_on_c, 1, 58, 47
2, 97500, Note_on_c, 1, 48, 50
2, 97528, Note_off_c, 1, 64, 0
2, 97528, Note_off_c, 1, 87, 0
2, 97528, Note_on_c, 1, 86, 65
2, 97540, Note_off_c, 1, 58, 0
2, 97568, Note_off_c, 1, 48, 0
2, 97588, Note_off_c, 1, 86, 0
2, 97636, Note_on_c, 1, 85, 67
2, 97684, Note_on_c, 1, 42, 66
2, 97684, Note_on_c, 1, 51, 57
2, 97684, Control_c, 1, 64, 0
2, 97692, Note_on_c, 1, 57, 61
2, 97692, Control_c, 1, 64, 0
2, 97700, Control_c, 1, 64, 0
2, 97700, Control_c, 1, 64, 0
2, 97704, Control_c, 1, 64, 16
2, 97704, Control_c, 1, 64, 16
2, 97712, Note_on_c, 1, 84, 64
2, 97712, Control_c, 1, 64, 32
2, 97720, Control_c, 1, 64, 48
2, 97728, Note_off_c, 1, 85, 0
2, 97728, Control_c, 1, 64, 64
2, 97740, Control_c, 1, 64, 80
2, 97740, Control_c, 1, 64, 127
2, 97744, Control_c, 1, 64, 127
2, 97748, Note_off_c, 1, 57, 0
2, 97752, Control_c, 1, 64, 127
2, 97760, Control_c, 1, 64, 127
2, 97768, Control_c, 1, 64, 127
2, 97788, Note_off_c, 1, 42, 0
2, 97796, Note_off_c, 1, 51, 0
2, 97820, Note_on_c, 1, 94, 91
2, 97820, Control_c, 1, 64, 127
2, 97828, Control_c, 1, 64, 127
2, 97828, Control_c, 1, 64, 127
2, 97836, Control_c, 1, 64, 127
2, 97836, Control_c, 1, 64, 64
2, 97840, Control_c, 1, 64, 48
2, 97844, Control_c, 1, 64, 32
2, 97848, Control_c, 1, 64, 16
2, 97848, Control_c, 1, 64, 0
2, 97856, Control_c, 1, 64, 0
2, 97856, Control_c, 1, 64, 0
2, 97856, Control_c, 1, 64, 0
2, 97860, Control_c, 1, 64, 0
2, 97864, Note_off_c, 1, 84, 0
2, 97868, Note_on_c, 1, 48, 59
2, 97876, Note_on_c, 1, 56, 68
2, 97876, Note_on_c, 1, 41, 52
2, 97916, Note_on_c, 1, 92, 80
2, 97932, Note_off_c, 1, 94, 0
2, 98012, Note_off_c, 1, 41, 0
2, 98020, Note_on_c, 1, 87, 70
2, 98028, Note_off_c, 1, 48, 0
2, 98028, Control_c, 1, 64, 0
2, 98032, Control_c, 1, 64, 0
2, 98040, Note_off_c, 1, 92, 0
2, 98040, Control_c, 1, 64, 0
2, 98048, Control_c, 1, 64, 0
2, 98052, Control_c, 1, 64, 16
2, 98052, Control_c, 1, 64, 16
2, 98060, Note_off_c, 1, 56, 0
2, 98068, Control_c, 1, 64, 32
2, 98080, Control_c, 1, 64, 48
2, 98084, Note_off_c, 1, 87, 0
2, 98088, Control_c, 1, 64, 64
2, 98096, Note_on_c, 1, 84, 56
2, 98108, Control_c, 1, 64, 80
2, 98108, Control_c, 1, 64, 127
2, 98116, Control_c, 1, 64, 127
2, 98120, Control_c, 1, 64, 127
2, 98136, Note_off_c, 1, 84, 0
2, 98136, Control_c, 1, 64, 127
2, 98148, Control_c, 1, 64, 127
2, 98204, Note_on_c, 1, 82, 77
2, 98216, Control_c, 1, 64, 127
2, 98216, Control_c, 1, 64, 127
2, 98232, Control_c, 1, 64, 127
2, 98232, Control_c, 1, 64, 80
2, 98236, Control_c, 1, 64, 64
2, 98236, Control_c, 1, 64, 48
2, 98244, Control_c, 1, 64, 32
2, 98244, Control_c, 1, 64, 16
2, 98248, Control_c, 1, 64, 16
2, 98252, Control_c, 1, 64, 0
2, 98252, Control_c, 1, 64, 0
2, 98256, Control_c, 1, 64, 0
2, 98260, Control_c, 1, 64, 0
2, 98272, Note_on_c, 1, 58, 60
2, 98272, Control_c, 1, 64, 0
2, 98276, Note_on_c, 1, 56, 62
2, 98280, Note_off_c, 1, 82, 0
2, 98280, Note_on_c, 1, 67, 53
2, 98280, Note_on_c, 1, 63, 55
2, 98284, Note_on_c, 1, 60, 54
2, 98288, Note_on_c, 1, 81, 57
2, 98332, Note_off_c, 1, 81, 0
2, 98388, Note_off_c, 1, 67, 0
2, 98388, Note_on_c, 1, 80, 71
2, 98408, Note_off_c, 1, 63, 0
2, 98416, Note_off_c, 1, 60, 0
2, 98428, Note_off_c, 1, 58, 0
2, 98436, Control_c, 1, 64, 0
2, 98440, Control_c, 1, 64, 0
2, 98444, Note_off_c, 1, 56, 0
2, 98448, Control_c, 1, 64, 0
2, 98456, Control_c, 1, 64, 0
2, 98456, Control_c, 1, 64, 16
2, 98464, Note_off_c, 1, 80, 0
2, 98464, Control_c, 1, 64, 16
2, 98468, Note_on_c, 1, 79, 56
2, 98476, Control_c, 1, 64, 32
2, 98476, Control_c, 1, 64, 48
2, 98484, Control_c, 1, 64, 64
2, 98496, Control_c, 1, 64, 80
2, 98504, Control_c, 1, 64, 127
2, 98504, Control_c, 1, 64, 127
2, 98504, Control_c, 1, 64, 127
2, 98512, Note_off_c, 1, 79, 0
2, 98516, Control_c, 1, 64, 127
2, 98524, Control_c, 1, 64, 127
2, 98580, Note_on_c, 1, 77, 78
2, 98600, Control_c, 1, 64, 127
2, 98604, Control_c, 1, 64, 127
2, 98608, Control_c, 1, 64, 127
2, 98612, Control_c, 1, 64, 80
2, 98616, Control_c, 1, 64, 64
2, 98620, Control_c, 1, 64, 48
2, 98628, Control_c, 1, 64, 32
2, 98628, Control_c, 1, 64, 16
2, 98628, Control_c, 1, 64, 0
2, 98632, Control_c, 1, 64, 0
2, 98632, Control_c, 1, 64, 0
2, 98640, Control_c, 1, 64, 0
2, 98648, Control_c, 1, 64, 0
2, 98652, Note_on_c, 1, 34, 60
2, 98676, Note_off_c, 1, 77, 0
2, 98680, Note_on_c, 1, 72, 52
2, 98716, Note_off_c, 1, 72, 0
2, 98784, Note_on_c, 1, 77, 74
2, 98816, Note_off_c, 1, 34, 0
2, 98844, Note_off_c, 1, 77, 0
2, 98872, Note_on_c, 1, 72, 50
2, 98960, Note_off_c, 1, 72, 0
2, 98968, Note_on_c, 1, 73, 75
2, 99024, Note_off_c, 1, 73, 0
2, 99056, Note_on_c, 1, 74, 65
2, 99132, Note_on_c, 1, 56, 71
2, 99132, Note_on_c, 1, 62, 68
2, 99132, Note_on_c, 1, 67, 71
2, 99144, Note_on_c, 1, 59, 51
2, 99228, Note_on_c, 1, 82, 90
2, 99248, Control_c, 1, 64, 0
2, 99256, Control_c, 1, 64, 0
2, 99256, Control_c, 1, 64, 0
2, 99260, Note_off_c, 1, 74, 0
2, 99260, Control_c, 1, 64, 0
2, 99264, Control_c, 1, 64, 16
2, 99268, Control_c, 1, 64, 32
2, 99276, Note_on_c, 1, 83, 31
2, 99276, Control_c, 1, 64, 48
2, 99277, Note_off_c, 1, 83, 0
2, 99280, Control_c, 1, 64, 64
2, 99296, Note_off_c, 1, 82, 0
2, 99296, Control_c, 1, 64, 80
2, 99296, Control_c, 1, 64, 127
2, 99296, Control_c, 1, 64, 127
2, 99300, Control_c, 1, 64, 127
2, 99316, Control_c, 1, 64, 127
2, 99324, Note_off_c, 1, 67, 0
2, 99328, Control_c, 1, 64, 127
2, 99336, Note_off_c, 1, 59, 0
2, 99336, Note_off_c, 1, 62, 0
2, 99356, Note_off_c, 1, 56, 0
2, 99364, Control_c, 1, 64, 127
2, 99364, Control_c, 1, 64, 127
2, 99372, Control_c, 1, 64, 127
2, 99376, Control_c, 1, 64, 80
2, 99380, Control_c, 1, 64, 64
2, 99384, Control_c, 1, 64, 48
2, 99384, Control_c, 1, 64, 32
2, 99392, Control_c, 1, 64, 16
2, 99392, Control_c, 1, 64, 16
2, 99392, Control_c, 1, 64, 0
2, 99396, Control_c, 1, 64, 0
2, 99404, Control_c, 1, 64, 0
2, 99412, Control_c, 1, 64, 0
2, 99416, Control_c, 1, 64, 0
2, 99424, Note_on_c, 1, 61, 73
2, 99432, Note_on_c, 1, 55, 71
2, 99432, Note_on_c, 1, 65, 69
2, 99432, Note_on_c, 1, 75, 87
2, 99440, Note_on_c, 1, 87, 81
2, 99440, Note_on_c, 1, 58, 62
2, 99444, Note_on_c, 1, 82, 82
2, 99512, Note_off_c, 1, 65, 0
2, 99520, Note_off_c, 1, 87, 0
2, 99528, Note_off_c, 1, 61, 0
2, 99532, Control_c, 1, 64, 0
2, 99536, Note_off_c, 1, 82, 0
2, 99540, Control_c, 1, 64, 0
2, 99540, Control_c, 1, 64, 0
2, 99548, Control_c, 1, 64, 0
2, 99556, Note_off_c, 1, 58, 0
2, 99556, Control_c, 1, 64, 16
2, 99556, Control_c, 1, 64, 16
2, 99560, Note_off_c, 1, 55, 0
2, 99560, Control_c, 1, 64, 32
2, 99568, Control_c, 1, 64, 48
2, 99576, Control_c, 1, 64, 64
2, 99584, Control_c, 1, 64, 80
2, 99584, Control_c, 1, 64, 127
2, 99588, Control_c, 1, 64, 127
2, 99588, Control_c, 1, 64, 127
2, 99596, Note_off_c, 1, 75, 0
2, 99596, Control_c, 1, 64, 127
2, 99604, Control_c, 1, 64, 127
2, 99608, Note_on_c, 1, 82, 69
2, 99608, Note_on_c, 1, 87, 73
2, 99644, Note_off_c, 1, 82, 0
2, 99652, Note_off_c, 1, 87, 0
2, 99684, Note_on_c, 1, 75, 60
2, 99712, Note_off_c, 1, 75, 0
2, 99712, Note_on_c, 1, 51, 5
2, 99724, Note_on_c, 1, 82, 74
2, 99732, Note_on_c, 1, 87, 76
2, 99760, Note_off_c, 1, 51, 0
2, 99760, Control_c, 1, 64, 127
2, 99760, Control_c, 1, 64, 127
2, 99764, Control_c, 1, 64, 127
2, 99772, Control_c, 1, 64, 80
2, 99776, Note_off_c, 1, 87, 0
2, 99776, Note_off_c, 1, 82, 0
2, 99788, Control_c, 1, 64, 64
2, 99788, Control_c, 1, 64, 48
2, 99788, Control_c, 1, 64, 32
2, 99792, Control_c, 1, 64, 16
2, 99800, Control_c, 1, 64, 0
2, 99800, Control_c, 1, 64, 0
2, 99800, Control_c, 1, 64, 0
2, 99808, Control_c, 1, 64, 0
2, 99808, Control_c, 1, 64, 0
2, 99828, Note_on_c, 1, 39, 67
2, 99904, Control_c, 1, 64, 0
2, 99908, Note_off_c, 1, 39, 0
2, 99908, Control_c, 1, 64, 0
2, 99916, Control_c, 1, 64, 0
2, 99924, Control_c, 1, 64, 0
2, 99924, Control_c, 1, 64, 16
2, 99928, Control_c, 1, 64, 16
2, 99936, Control_c, 1, 64, 32
2, 99952, Control_c, 1, 64, 48
2, 99956, Control_c, 1, 64, 64
2, 99972, Control_c, 1, 64, 80
2, 99972, Control_c, 1, 64, 127
2, 99976, Control_c, 1, 64, 127
2, 99992, Control_c, 1, 64, 127
2, 100088, Control_c, 1, 64, 127
2, 100092, Control_c, 1, 64, 127
2, 100096, Control_c, 1, 64, 80
2, 100100, Note_on_c, 1, 79, 77
2, 100100, Note_on_c, 1, 84, 87
2, 100108, Note_on_c, 1, 76, 75
2, 100116, Control_c, 1, 64, 64
2, 100116, Control_c, 1, 64, 48
2, 100120, Note_on_c, 1, 72, 76
2, 100120, Note_on_c, 1, 55, 68
2, 100120, Note_on_c, 1, 61, 73
2, 100128, Control_c, 1, 64, 32
2, 100128, Note_on_c, 1, 58, 70
2, 100136, Control_c, 1, 64, 16
2, 100136, Control_c, 1, 64, 16
2, 100136, Control_c, 1, 64, 0
2, 100140, Note_on_c, 1, 65, 59
2, 100140, Control_c, 1, 64, 0
2, 100148, Note_on_c, 1, 64, 62
2, 100148, Control_c, 1, 64, 0
2, 100148, Control_c, 1, 64, 0
2, 100156, Control_c, 1, 64, 0
2, 100204, Note_off_c, 1, 65, 0
2, 100272, Control_c, 1, 64, 0
2, 100272, Control_c, 1, 64, 0
2, 100276, Control_c, 1, 64, 0
2, 100280, Note_off_c, 1, 64, 0
2, 100284, Control_c, 1, 64, 0
2, 100284, Control_c, 1, 64, 16
2, 100292, Control_c, 1, 64, 16
2, 100292, Control_c, 1, 64, 32
2, 100296, Control_c, 1, 64, 48
2, 100304, Control_c, 1, 64, 64
2, 100312, Note_off_c, 1, 61, 0
2, 100320, Control_c, 1, 64, 80
2, 100324, Control_c, 1, 64, 127
2, 100328, Note_off_c, 1, 58, 0
2, 100328, Control_c, 1, 64, 127
2, 100332, Note_off_c, 1, 55, 0
2, 100332, Control_c, 1, 64, 127
2, 100360, Note_off_c, 1, 84, 0
2, 100380, Note_off_c, 1, 79, 0
2, 100388, Note_off_c, 1, 72, 0
2, 100388, Note_off_c, 1, 76, 0
2, 100392, Control_c, 1, 64, 127
2, 100428, Control_c, 1, 64, 127
2, 100476, Note_on_c, 1, 51, 7
2, 100524, Note_on_c, 1, 39, 74
2, 100532, Note_off_c, 1, 51, 0
2, 100552, Control_c, 1, 67, 0
2, 100584, Control_c, 1, 64, 127
2, 100592, Control_c, 1, 64, 127
2, 100600, Control_c, 1, 64, 127
2, 100600, Control_c, 1, 64, 127
2, 100600, Control_c, 1, 64, 80
2, 100608, Control_c, 1, 64, 64
2, 100612, Control_c, 1, 64, 48
2, 100620, Control_c, 1, 64, 32
2, 100620, Control_c, 1, 64, 16
2, 100624, Control_c, 1, 64, 16
2, 100628, Control_c, 1, 64, 0
2, 100632, Control_c, 1, 64, 0
2, 100640, Control_c, 1, 67, 127
2, 100648, Control_c, 1, 64, 0
2, 100660, Control_c, 1, 64, 0
2, 100668, Control_c, 1, 64, 0
2, 100784, Note_on_c, 1, 78, 56
2, 100784, Note_on_c, 1, 66, 53
2, 100788, Note_off_c, 1, 39, 0
2, 100796, Control_c, 1, 64, 0
2, 100804, Note_off_c, 1, 66, 0
2, 100804, Control_c, 1, 64, 0
2, 100812, Note_off_c, 1, 78, 0
2, 100816, Control_c, 1, 64, 0
2, 100816, Control_c, 1, 64, 0
2, 100820, Control_c, 1, 64, 16
2, 100824, Control_c, 1, 64, 16
2, 100824, Control_c, 1, 64, 32
2, 100832, Control_c, 1, 64, 48
2, 100836, Control_c, 1, 64, 64
2, 100844, Control_c, 1, 64, 80
2, 100852, Control_c, 1, 64, 127
2, 100852, Control_c, 1, 64, 127
2, 100852, Control_c, 1, 64, 127
2, 100856, Control_c, 1, 64, 127
2, 100864, Control_c, 1, 64, 127
2, 100884, Note_on_c, 1, 67, 71
2, 100892, Note_on_c, 1, 79, 73
2, 100948, Note_off_c, 1, 79, 0
2, 100948, Note_off_c, 1, 67, 0
2, 101020, Control_c, 1, 64, 127
2, 101028, Control_c, 1, 64, 127
2, 101028, Control_c, 1, 64, 127
2, 101036, Control_c, 1, 64, 127
2, 101036, Control_c, 1, 64, 80
2, 101044, Control_c, 1, 64, 64
2, 101048, Control_c, 1, 64, 32
2, 101048, Note_on_c, 1, 44, 66
2, 101056, Note_on_c, 1, 75, 80
2, 101056, Control_c, 1, 64, 16
2, 101056, Note_on_c, 1, 70, 81
2, 101064, Note_on_c, 1, 82, 90
2, 101068, Control_c, 1, 64, 16
2, 101068, Control_c, 1, 64, 0
2, 101072, Control_c, 1, 64, 0
2, 101076, Control_c, 1, 64, 0
2, 101076, Control_c, 1, 64, 0
2, 101084, Control_c, 1, 64, 0
2, 101104, Note_off_c, 1, 70, 0
2, 101144, Note_off_c, 1, 82, 0
2, 101152, Note_off_c, 1, 75, 0
2, 101180, Note_on_c, 1, 54, 78
2, 101280, Note_off_c, 1, 44, 0
2, 101308, Note_on_c, 1, 61, 66
2, 101316, Note_on_c, 1, 46, 51
2, 101316, Note_on_c, 1, 52, 51
2, 101344, Note_off_c, 1, 52, 0
2, 101480, Note_off_c, 1, 61, 0
2, 101576, Note_on_c, 1, 60, 74
2, 101644, Control_c, 1, 64, 0
2, 101644, Control_c, 1, 64, 0
2, 101644, Control_c, 1, 64, 0
2, 101648, Control_c, 1, 64, 0
2, 101656, Control_c, 1, 64, 16
2, 101656, Control_c, 1, 64, 32
2, 101664, Control_c, 1, 64, 48
2, 101664, Control_c, 1, 64, 64
2, 101672, Control_c, 1, 64, 80
2, 101676, Control_c, 1, 64, 127
2, 101676, Control_c, 1, 64, 127
2, 101680, Control_c, 1, 64, 127
2, 101684, Control_c, 1, 64, 127
2, 101684, Control_c, 1, 64, 127
2, 101724, Note_off_c, 1, 60, 0
2, 101760, Note_off_c, 1, 46, 0
2, 101772, Control_c, 1, 64, 127
2, 101772, Control_c, 1, 64, 127
2, 101780, Control_c, 1, 64, 127
2, 101780, Control_c, 1, 64, 80
2, 101784, Control_c, 1, 64, 48
2, 101792, Control_c, 1, 64, 32
2, 101792, Control_c, 1, 64, 16
2, 101792, Control_c, 1, 64, 0
2, 101800, Control_c, 1, 64, 0
2, 101800, Control_c, 1, 64, 0
2, 101808, Control_c, 1, 64, 0
2, 101808, Control_c, 1, 64, 0
2, 101820, Note_on_c, 1, 59, 66
2, 101828, Note_on_c, 1, 44, 59
2, 101828, Note_on_c, 1, 75, 70
2, 101832, Note_on_c, 1, 68, 66
2, 101832, Note_on_c, 1, 71, 67
2, 101836, Note_on_c, 1, 80, 76
2, 101840, Note_off_c, 1, 54, 0
2, 101840, Note_on_c, 1, 54, 4
2, 101924, Control_c, 1, 64, 0
2, 101928, Control_c, 1, 64, 0
2, 101928, Control_c, 1, 64, 0
2, 101944, Control_c, 1, 64, 0
2, 101944, Control_c, 1, 64, 16
2, 101944, Control_c, 1, 64, 16
2, 101948, Note_off_c, 1, 80, 0
2, 101956, Note_off_c, 1, 59, 0
2, 101956, Control_c, 1, 64, 32
2, 101956, Control_c, 1, 64, 48
2, 101964, Note_off_c, 1, 54, 0
2, 101964, Note_off_c, 1, 75, 0
2, 101968, Control_c, 1, 64, 64
2, 101972, Note_off_c, 1, 71, 0
2, 101976, Control_c, 1, 64, 80
2, 101984, Note_off_c, 1, 68, 0
2, 101984, Control_c, 1, 64, 127
2, 101984, Control_c, 1, 64, 127
2, 101992, Control_c, 1, 64, 127
2, 101992, Control_c, 1, 64, 127
2, 101996, Control_c, 1, 64, 127
2, 102004, Note_off_c, 1, 44, 0
2, 102224, Control_c, 1, 64, 127
2, 102224, Control_c, 1, 64, 127
2, 102228, Control_c, 1, 64, 127
2, 102228, Control_c, 1, 64, 80
2, 102236, Control_c, 1, 64, 64
2, 102236, Control_c, 1, 64, 32
2, 102244, Control_c, 1, 64, 16
2, 102244, Note_on_c, 1, 63, 70
2, 102248, Control_c, 1, 64, 0
2, 102248, Control_c, 1, 64, 0
2, 102256, Note_on_c, 1, 59, 63
2, 102256, Control_c, 1, 64, 0
2, 102264, Control_c, 1, 64, 0
2, 102264, Control_c, 1, 64, 0
2, 102264, Note_on_c, 1, 53, 56
2, 102272, Note_on_c, 1, 25, 48
2, 102284, Note_on_c, 1, 37, 32
2, 102352, Note_off_c, 1, 63, 0
2, 102352, Control_c, 1, 64, 0
2, 102360, Note_off_c, 1, 59, 0
2, 102364, Control_c, 1, 64, 0
2, 102372, Control_c, 1, 64, 0
2, 102380, Control_c, 1, 64, 0
2, 102380, Control_c, 1, 64, 16
2, 102388, Note_off_c, 1, 25, 0
2, 102388, Control_c, 1, 64, 16
2, 102392, Note_off_c, 1, 53, 0
2, 102392, Control_c, 1, 64, 32
2, 102400, Note_off_c, 1, 37, 0
2, 102412, Control_c, 1, 64, 48
2, 102428, Control_c, 1, 64, 64
2, 102440, Control_c, 1, 64, 80
2, 102448, Control_c, 1, 64, 127
2, 102448, Control_c, 1, 64, 127
2, 102460, Control_c, 1, 64, 127
2, 102468, Note_on_c, 1, 65, 62
2, 102468, Control_c, 1, 64, 127
2, 102476, Control_c, 1, 64, 127
2, 102584, Note_off_c, 1, 65, 0
2, 102592, Control_c, 1, 64, 127
2, 102592, Control_c, 1, 64, 127
2, 102596, Control_c, 1, 64, 127
2, 102596, Control_c, 1, 64, 80
2, 102604, Control_c, 1, 64, 64
2, 102612, Control_c, 1, 64, 32
2, 102612, Control_c, 1, 64, 16
2, 102612, Control_c, 1, 64, 0
2, 102620, Control_c, 1, 64, 0
2, 102620, Control_c, 1, 64, 0
2, 102624, Control_c, 1, 64, 0
2, 102624, Control_c, 1, 64, 0
2, 102632, Note_on_c, 1, 67, 69
2, 102632, Note_on_c, 1, 53, 50
2, 102640, Note_on_c, 1, 63, 64
2, 102640, Note_on_c, 1, 43, 48
2, 102640, Note_on_c, 1, 59, 55
2, 102680, Control_c, 1, 64, 0
2, 102692, Control_c, 1, 64, 0
2, 102700, Control_c, 1, 64, 0
2, 102700, Control_c, 1, 64, 0
2, 102708, Note_off_c, 1, 43, 0
2, 102708, Control_c, 1, 64, 16
2, 102712, Control_c, 1, 64, 16
2, 102712, Control_c, 1, 64, 32
2, 102720, Control_c, 1, 64, 48
2, 102724, Note_off_c, 1, 67, 0
2, 102724, Control_c, 1, 64, 64
2, 102728, Control_c, 1, 64, 80
2, 102732, Control_c, 1, 64, 127
2, 102736, Note_off_c, 1, 53, 0
2, 102736, Control_c, 1, 64, 127
2, 102740, Control_c, 1, 64, 127
2, 102748, Note_off_c, 1, 59, 0
2, 102748, Control_c, 1, 64, 127
2, 102748, Control_c, 1, 64, 127
2, 102804, Note_off_c, 1, 63, 0
2, 102828, Note_on_c, 1, 37, 71
2, 102832, Note_on_c, 1, 52, 49
2, 102844, Note_on_c, 1, 62, 73
2, 102844, Note_on_c, 1, 58, 71
2, 102844, Note_on_c, 1, 68, 78
2, 102884, Control_c, 1, 64, 127
2, 102896, Control_c, 1, 64, 127
2, 102900, Control_c, 1, 64, 127
2, 102900, Control_c, 1, 64, 127
2, 102904, Control_c, 1, 64, 80
2, 102912, Control_c, 1, 64, 64
2, 102912, Control_c, 1, 64, 48
2, 102912, Control_c, 1, 64, 32
2, 102920, Control_c, 1, 64, 16
2, 102924, Control_c, 1, 64, 16
2, 102924, Control_c, 1, 64, 0
2, 102928, Control_c, 1, 64, 0
2, 102932, Control_c, 1, 64, 0
2, 102940, Note_off_c, 1, 37, 0
2, 102944, Note_off_c, 1, 52, 0
2, 102948, Note_off_c, 1, 62, 0
2, 102952, Note_off_c, 1, 68, 0
2, 102952, Note_off_c, 1, 58, 0
2, 102952, Control_c, 1, 64, 0
2, 102960, Control_c, 1, 64, 0
2, 103020, Note_on_c, 1, 36, 54
2, 103028, Note_on_c, 1, 67, 62
2, 103036, Note_on_c, 1, 52, 36
2, 103036, Note_on_c, 1, 61, 54
2, 103040, Note_on_c, 1, 57, 46
2, 103088, Note_off_c, 1, 67, 0
2, 103116, Note_off_c, 1, 36, 0
2, 103124, Control_c, 1, 64, 0
2, 103128, Control_c, 1, 64, 0
2, 103132, Control_c, 1, 64, 0
2, 103136, Control_c, 1, 64, 0
2, 103136, Control_c, 1, 64, 16
2, 103144, Control_c, 1, 64, 16
2, 103144, Control_c, 1, 64, 32
2, 103144, Control_c, 1, 64, 48
2, 103152, Control_c, 1, 64, 64
2, 103156, Control_c, 1, 64, 80
2, 103160, Note_off_c, 1, 57, 0
2, 103160, Control_c, 1, 64, 127
2, 103164, Control_c, 1, 64, 127
2, 103164, Control_c, 1, 64, 127
2, 103172, Control_c, 1, 64, 127
2, 103172, Control_c, 1, 64, 127
2, 103184, Note_off_c, 1, 61, 0
2, 103240, Note_on_c, 1, 57, 37
2, 103240, Note_on_c, 1, 61, 19
2, 103244, Note_on_c, 1, 68, 77
2, 103320, Note_off_c, 1, 68, 0
2, 103320, Note_off_c, 1, 57, 0
2, 103336, Note_off_c, 1, 61, 0
2, 103368, Control_c, 1, 64, 127
2, 103376, Control_c, 1, 64, 127
2, 103376, Control_c, 1, 64, 127
2, 103380, Control_c, 1, 64, 80
2, 103384, Note_off_c, 1, 52, 0
2, 103392, Control_c, 1, 64, 64
2, 103392, Control_c, 1, 64, 32
2, 103396, Control_c, 1, 64, 16
2, 103396, Control_c, 1, 64, 16
2, 103396, Control_c, 1, 64, 0
2, 103404, Control_c, 1, 64, 0
2, 103404, Control_c, 1, 64, 0
2, 103408, Control_c, 1, 64, 0
2, 103408, Control_c, 1, 64, 0
2, 103412, Note_on_c, 1, 67, 56
2, 103416, Note_on_c, 1, 51, 51
2, 103416, Note_on_c, 1, 41, 44
2, 103432, Note_on_c, 1, 60, 62
2, 103436, Note_on_c, 1, 56, 55
2, 103464, Note_off_c, 1, 41, 0
2, 103512, Note_off_c, 1, 60, 0
2, 103512, Note_off_c, 1, 67, 0
2, 103524, Control_c, 1, 64, 0
2, 103532, Control_c, 1, 64, 0
2, 103544, Control_c, 1, 64, 0
2, 103548, Control_c, 1, 64, 0
2, 103552, Control_c, 1, 64, 16
2, 103560, Control_c, 1, 64, 16
2, 103568, Control_c, 1, 64, 32
2, 103580, Control_c, 1, 64, 48
2, 103588, Control_c, 1, 64, 64
2, 103600, Control_c, 1, 64, 80
2, 103608, Control_c, 1, 64, 127
2, 103608, Control_c, 1, 64, 127
2, 103616, Control_c, 1, 64, 127
2, 103620, Control_c, 1, 64, 127
2, 103628, Control_c, 1, 64, 127
2, 103636, Note_off_c, 1, 51, 0
2, 103640, Note_on_c, 1, 58, 64
2, 103744, Note_off_c, 1, 58, 0
2, 103752, Note_off_c, 1, 56, 0
2, 103752, Control_c, 1, 64, 127
2, 103756, Control_c, 1, 64, 127
2, 103760, Control_c, 1, 64, 127
2, 103764, Control_c, 1, 64, 127
2, 103768, Control_c, 1, 64, 64
2, 103772, Control_c, 1, 64, 48
2, 103772, Control_c, 1, 64, 32
2, 103776, Control_c, 1, 64, 16
2, 103780, Control_c, 1, 64, 0
2, 103784, Control_c, 1, 64, 0
2, 103784, Control_c, 1, 64, 0
2, 103788, Control_c, 1, 64, 0
2, 103792, Control_c, 1, 64, 0
2, 103800, Note_on_c, 1, 34, 61
2, 103812, Note_on_c, 1, 62, 63
2, 103812, Note_on_c, 1, 59, 59
2, 103820, Note_on_c, 1, 56, 50
2, 103828, Note_off_c, 1, 34, 0
2, 103828, Note_on_c, 1, 50, 37
2, 103832, Control_c, 1, 64, 0
2, 103840, Control_c, 1, 64, 0
2, 103852, Control_c, 1, 64, 0
2, 103852, Control_c, 1, 64, 0
2, 103860, Control_c, 1, 64, 16
2, 103860, Control_c, 1, 64, 16
2, 103868, Control_c, 1, 64, 32
2, 103868, Control_c, 1, 64, 48
2, 103872, Control_c, 1, 64, 64
2, 103880, Control_c, 1, 64, 80
2, 103888, Control_c, 1, 64, 127
2, 103888, Control_c, 1, 64, 127
2, 103888, Control_c, 1, 64, 127
2, 103892, Control_c, 1, 64, 127
2, 103900, Control_c, 1, 64, 127
2, 103908, Note_off_c, 1, 50, 0
2, 103920, Note_off_c, 1, 56, 0
2, 103936, Note_off_c, 1, 59, 0
2, 103956, Note_off_c, 1, 62, 0
2, 104052, Control_c, 1, 64, 127
2, 104056, Control_c, 1, 64, 127
2, 104060, Control_c, 1, 64, 127
2, 104064, Control_c, 1, 64, 127
2, 104068, Note_on_c, 1, 63, 69
2, 104072, Note_on_c, 1, 60, 70
2, 104076, Control_c, 1, 64, 64
2, 104080, Control_c, 1, 64, 48
2, 104080, Control_c, 1, 64, 16
2, 104084, Note_on_c, 1, 39, 54
2, 104084, Note_on_c, 1, 55, 59
2, 104084, Control_c, 1, 64, 0
2, 104092, Control_c, 1, 64, 0
2, 104100, Note_on_c, 1, 49, 50
2, 104100, Control_c, 1, 64, 0
2, 104104, Control_c, 1, 64, 0
2, 104104, Control_c, 1, 64, 0
2, 104108, Note_on_c, 1, 46, 43
2, 104132, Control_c, 1, 64, 0
2, 104148, Control_c, 1, 64, 0
2, 104152, Control_c, 1, 64, 0
2, 104156, Control_c, 1, 64, 0
2, 104160, Control_c, 1, 64, 16
2, 104160, Control_c, 1, 64, 16
2, 104168, Control_c, 1, 64, 32
2, 104168, Control_c, 1, 64, 48
2, 104168, Control_c, 1, 64, 64
2, 104176, Control_c, 1, 64, 80
2, 104180, Control_c, 1, 64, 127
2, 104180, Control_c, 1, 64, 127
2, 104188, Control_c, 1, 64, 127
2, 104188, Control_c, 1, 64, 127
2, 104196, Note_off_c, 1, 49, 0
2, 104196, Note_off_c, 1, 55, 0
2, 104200, Note_off_c, 1, 46, 0
2, 104220, Note_off_c, 1, 39, 0
2, 104264, Note_off_c, 1, 60, 0
2, 104268, Note_off_c, 1, 63, 0
2, 104468, Control_c, 1, 67, 0
2, 104476, Note_on_c, 1, 43, 87
2, 104476, Note_on_c, 1, 31, 83
2, 104500, Control_c, 1, 64, 127
2, 104508, Control_c, 1, 64, 127
2, 104508, Control_c, 1, 64, 127
2, 104516, Control_c, 1, 64, 80
2, 104520, Control_c, 1, 64, 48
2, 104524, Control_c, 1, 64, 32
2, 104524, Control_c, 1, 64, 16
2, 104528, Control_c, 1, 64, 0
2, 104528, Control_c, 1, 64, 0
2, 104536, Control_c, 1, 64, 0
2, 104536, Control_c, 1, 64, 0
2, 104536, Control_c, 1, 64, 0
2, 104568, Control_c, 1, 67, 127
2, 104616, Note_on_c, 1, 80, 78
2, 104636, Note_on_c, 1, 87, 71
2, 104664, Note_off_c, 1, 80, 0
2, 104672, Note_off_c, 1, 31, 0
2, 104692, Note_on_c, 1, 79, 66
2, 104700, Note_off_c, 1, 87, 0
2, 104712, Note_off_c, 1, 43, 0
2, 104740, Note_off_c, 1, 79, 0
2, 104748, Note_on_c, 1, 87, 63
2, 104760, Note_on_c, 1, 80, 64
2, 104824, Note_off_c, 1, 80, 0
2, 104824, Note_off_c, 1, 87, 0
2, 104824, Note_on_c, 1, 79, 74
2, 104864, Note_off_c, 1, 79, 0
2, 104896, Note_on_c, 1, 78, 77
2, 104944, Note_off_c, 1, 78, 0
2, 104964, Note_on_c, 1, 77, 52
2, 105000, Note_on_c, 1, 76, 51
2, 105008, Note_on_c, 1, 56, 57
2, 105012, Note_on_c, 1, 63, 54
2, 105012, Note_on_c, 1, 59, 54
2, 105020, Note_on_c, 1, 53, 52
2, 105028, Note_off_c, 1, 77, 0
2, 105032, Note_off_c, 1, 76, 0
2, 105080, Note_on_c, 1, 75, 66
2, 105100, Note_off_c, 1, 75, 0
2, 105136, Note_on_c, 1, 74, 57
2, 105156, Note_off_c, 1, 74, 0
2, 105156, Note_off_c, 1, 63, 0
2, 105196, Note_on_c, 1, 71, 65
2, 105232, Note_off_c, 1, 71, 0
2, 105260, Note_on_c, 1, 68, 53
2, 105280, Note_off_c, 1, 68, 0
2, 105312, Note_on_c, 1, 65, 64
2, 105348, Note_off_c, 1, 65, 0
2, 105368, Note_off_c, 1, 56, 0
2, 105388, Note_on_c, 1, 63, 67
2, 105404, Note_off_c, 1, 59, 0
2, 105428, Note_off_c, 1, 63, 0
2, 105456, Note_off_c, 1, 53, 0
2, 105456, Note_on_c, 1, 62, 55
2, 105484, Note_off_c, 1, 62, 0
2, 105520, Note_on_c, 1, 59, 69
2, 105580, Note_off_c, 1, 59, 0
2, 105592, Note_on_c, 1, 56, 71
2, 105648, Note_on_c, 1, 53, 75
2, 105660, Note_off_c, 1, 56, 0
2, 105696, Note_off_c, 1, 53, 0
2, 105772, Note_on_c, 1, 51, 68
2, 105792, Note_on_c, 1, 36, 49
2, 105820, Note_off_c, 1, 36, 0
2, 105864, Control_c, 1, 64, 0
2, 105872, Control_c, 1, 64, 0
2, 105880, Control_c, 1, 64, 0
2, 105888, Control_c, 1, 64, 0
2, 105888, Control_c, 1, 64, 16
2, 105900, Control_c, 1, 64, 16
2, 105908, Control_c, 1, 64, 32
2, 105912, Control_c, 1, 64, 48
2, 105920, Control_c, 1, 64, 64
2, 105928, Control_c, 1, 64, 80
2, 105928, Control_c, 1, 64, 127
2, 105936, Note_off_c, 1, 51, 0
2, 105936, Control_c, 1, 64, 127
2, 105940, Control_c, 1, 64, 127
2, 105948, Control_c, 1, 64, 127
2, 105956, Control_c, 1, 64, 127
2, 106028, Note_on_c, 1, 75, 78
2, 106036, Note_on_c, 1, 87, 83
2, 106076, Note_off_c, 1, 75, 0
2, 106096, Note_off_c, 1, 87, 0
2, 106132, Control_c, 1, 64, 127
2, 106140, Control_c, 1, 64, 127
2, 106144, Control_c, 1, 64, 127
2, 106152, Control_c, 1, 64, 80
2, 106156, Control_c, 1, 64, 48
2, 106160, Control_c, 1, 64, 32
2, 106160, Control_c, 1, 64, 16
2, 106160, Note_on_c, 1, 55, 60
2, 106164, Control_c, 1, 64, 0
2, 106168, Control_c, 1, 64, 0
2, 106172, Control_c, 1, 64, 0
2, 106176, Note_on_c, 1, 60, 51
2, 106180, Control_c, 1, 64, 0
2, 106180, Note_on_c, 1, 63, 62
2, 106180, Control_c, 1, 64, 0
2, 106188, Note_on_c, 1, 58, 60
2, 106308, Control_c, 1, 64, 0
2, 106316, Note_off_c, 1, 60, 0
2, 106324, Note_off_c, 1, 63, 0
2, 106324, Control_c, 1, 64, 0
2, 106328, Control_c, 1, 64, 0
2, 106336, Note_off_c, 1, 58, 0
2, 106336, Note_off_c, 1, 55, 0
2, 106336, Control_c, 1, 64, 0
2, 106344, Control_c, 1, 64, 16
2, 106352, Control_c, 1, 64, 16
2, 106356, Control_c, 1, 64, 32
2, 106364, Control_c, 1, 64, 48
2, 106376, Control_c, 1, 64, 64
2, 106384, Control_c, 1, 64, 80
2, 106384, Control_c, 1, 64, 127
2, 106392, Control_c, 1, 64, 127
2, 106392, Control_c, 1, 64, 127
2, 106404, Control_c, 1, 64, 127
2, 106404, Control_c, 1, 64, 127
2, 106432, Note_on_c, 1, 89, 79
2, 106432, Note_on_c, 1, 79, 66
2, 106432, Note_on_c, 1, 77, 69
2, 106440, Note_on_c, 1, 82, 76
2, 106460, Note_off_c, 1, 77, 0
2, 106472, Note_on_c, 1, 88, 20
2, 106488, Note_off_c, 1, 79, 0
2, 106500, Note_off_c, 1, 89, 0
2, 106516, Note_off_c, 1, 82, 0
2, 106516, Control_c, 1, 64, 127
2, 106520, Control_c, 1, 64, 127
2, 106528, Note_off_c, 1, 88, 0
2, 106528, Control_c, 1, 64, 127
2, 106528, Control_c, 1, 64, 80
2, 106536, Control_c, 1, 64, 64
2, 106540, Control_c, 1, 64, 48
2, 106540, Control_c, 1, 64, 32
2, 106544, Control_c, 1, 64, 16
2, 106548, Control_c, 1, 64, 0
2, 106548, Control_c, 1, 64, 0
2, 106556, Control_c, 1, 64, 0
2, 106556, Control_c, 1, 64, 0
2, 106556, Control_c, 1, 64, 0
2, 106568, Note_on_c, 1, 38, 62
2, 106584, Note_on_c, 1, 45, 54
2, 106692, Control_c, 1, 64, 0
2, 106700, Control_c, 1, 64, 0
2, 106704, Control_c, 1, 64, 0
2, 106712, Control_c, 1, 64, 0
2, 106712, Control_c, 1, 64, 16
2, 106720, Control_c, 1, 64, 16
2, 106724, Control_c, 1, 64, 32
2, 106728, Note_off_c, 1, 38, 0
2, 106728, Control_c, 1, 64, 48
2, 106732, Control_c, 1, 64, 64
2, 106748, Note_off_c, 1, 45, 0
2, 106748, Control_c, 1, 64, 80
2, 106752, Control_c, 1, 64, 127
2, 106752, Control_c, 1, 64, 127
2, 106760, Control_c, 1, 64, 127
2, 106760, Control_c, 1, 64, 127
2, 106760, Control_c, 1, 64, 127
2, 106820, Note_on_c, 1, 76, 53
2, 106820, Note_on_c, 1, 86, 66
2, 106828, Note_on_c, 1, 83, 70
2, 106828, Note_on_c, 1, 74, 56
2, 106876, Note_off_c, 1, 74, 0
2, 106884, Note_off_c, 1, 86, 0
2, 106884, Note_off_c, 1, 76, 0
2, 106904, Note_off_c, 1, 83, 0
2, 106952, Control_c, 1, 64, 127
2, 106952, Control_c, 1, 64, 127
2, 106952, Control_c, 1, 64, 127
2, 106956, Control_c, 1, 64, 80
2, 106964, Control_c, 1, 64, 64
2, 106964, Control_c, 1, 64, 48
2, 106972, Control_c, 1, 64, 16
2, 106972, Control_c, 1, 64, 0
2, 106972, Control_c, 1, 64, 0
2, 106976, Control_c, 1, 64, 0
2, 106980, Control_c, 1, 64, 0
2, 106984, Control_c, 1, 64, 0
2, 106988, Note_on_c, 1, 54, 60
2, 106992, Note_on_c, 1, 60, 60
2, 106992, Note_on_c, 1, 64, 71
2, 106992, Note_on_c, 1, 58, 51
2, 107000, Note_on_c, 1, 56, 55
2, 107052, Control_c, 1, 64, 0
2, 107060, Control_c, 1, 64, 0
2, 107072, Control_c, 1, 64, 0
2, 107072, Control_c, 1, 64, 0
2, 107076, Control_c, 1, 64, 16
2, 107080, Control_c, 1, 64, 16
2, 107080, Control_c, 1, 64, 32
2, 107088, Control_c, 1, 64, 48
2, 107088, Control_c, 1, 64, 64
2, 107096, Note_off_c, 1, 64, 0
2, 107100, Control_c, 1, 64, 80
2, 107104, Control_c, 1, 64, 127
2, 107108, Note_off_c, 1, 60, 0
2, 107108, Control_c, 1, 64, 127
2, 107116, Note_off_c, 1, 58, 0
2, 107116, Control_c, 1, 64, 127
2, 107120, Control_c, 1, 64, 127
2, 107120, Control_c, 1, 64, 127
2, 107128, Note_off_c, 1, 56, 0
2, 107144, Note_off_c, 1, 54, 0
2, 107236, Note_on_c, 1, 84, 69
2, 107244, Note_on_c, 1, 80, 64
2, 107244, Note_on_c, 1, 76, 58
2, 107252, Note_on_c, 1, 72, 54
2, 107308, Note_off_c, 1, 76, 0
2, 107308, Note_off_c, 1, 84, 0
2, 107320, Note_off_c, 1, 72, 0
2, 107328, Note_off_c, 1, 80, 0
2, 107352, Control_c, 1, 64, 127
2, 107360, Control_c, 1, 64, 127
2, 107364, Control_c, 1, 64, 127
2, 107368, Control_c, 1, 64, 80
2, 107380, Control_c, 1, 64, 48
2, 107388, Control_c, 1, 64, 32
2, 107388, Control_c, 1, 64, 16
2, 107396, Control_c, 1, 64, 0
2, 107400, Control_c, 1, 64, 0
2, 107400, Control_c, 1, 64, 0
2, 107408, Control_c, 1, 64, 0
2, 107416, Control_c, 1, 64, 0
2, 107424, Note_on_c, 1, 31, 60
2, 107456, Control_c, 1, 64, 0
2, 107468, Control_c, 1, 64, 0
2, 107476, Control_c, 1, 64, 0
2, 107484, Control_c, 1, 64, 0
2, 107488, Control_c, 1, 64, 16
2, 107492, Control_c, 1, 64, 16
2, 107504, Note_off_c, 1, 31, 0
2, 107504, Control_c, 1, 64, 32
2, 107512, Control_c, 1, 64, 48
2, 107524, Control_c, 1, 64, 64
2, 107532, Control_c, 1, 64, 80
2, 107540, Note_on_c, 1, 73, 61
2, 107540, Control_c, 1, 64, 127
2, 107544, Note_on_c, 1, 77, 57
2, 107544, Control_c, 1, 64, 127
2, 107548, Note_on_c, 1, 83, 71
2, 107552, Note_on_c, 1, 80, 62
2, 107552, Note_on_c, 1, 71, 58
2, 107556, Control_c, 1, 64, 127
2, 107556, Control_c, 1, 64, 127
2, 107564, Control_c, 1, 64, 127
2, 107568, Note_off_c, 1, 71, 0
2, 107592, Note_off_c, 1, 73, 0
2, 107612, Note_off_c, 1, 77, 0
2, 107632, Note_off_c, 1, 80, 0
2, 107632, Note_off_c, 1, 83, 0
2, 107764, Control_c, 1, 64, 127
2, 107764, Control_c, 1, 64, 127
2, 107768, Control_c, 1, 64, 127
2, 107772, Control_c, 1, 64, 80
2, 107776, Control_c, 1, 64, 48
2, 107784, Control_c, 1, 64, 32
2, 107784, Control_c, 1, 64, 16
2, 107784, Control_c, 1, 64, 0
2, 107788, Control_c, 1, 64, 0
2, 107792, Control_c, 1, 64, 0
2, 107796, Control_c, 1, 64, 0
2, 107796, Control_c, 1, 64, 0
2, 107800, Note_on_c, 1, 63, 68
2, 107804, Note_on_c, 1, 53, 70
2, 107804, Note_on_c, 1, 59, 66
2, 107812, Note_on_c, 1, 55, 63
2, 107812, Note_on_c, 1, 56, 62
2, 107928, Control_c, 1, 64, 0
2, 107932, Control_c, 1, 64, 0
2, 107940, Control_c, 1, 64, 0
2, 107940, Note_on_c, 1, 85, 73
2, 107948, Note_on_c, 1, 73, 65
2, 107948, Note_on_c, 1, 82, 67
2, 107948, Note_on_c, 1, 77, 60
2, 107952, Control_c, 1, 64, 0
2, 107956, Control_c, 1, 64, 16
2, 107960, Control_c, 1, 64, 16
2, 107960, Control_c, 1, 64, 32
2, 107964, Control_c, 1, 64, 48
2, 107968, Control_c, 1, 64, 64
2, 107968, Note_on_c, 1, 79, 47
2, 107976, Control_c, 1, 64, 80
2, 107976, Control_c, 1, 64, 127
2, 107980, Control_c, 1, 64, 127
2, 107980, Control_c, 1, 64, 127
2, 107988, Note_off_c, 1, 73, 0
2, 107988, Control_c, 1, 64, 127
2, 107996, Note_off_c, 1, 79, 0
2, 107996, Control_c, 1, 64, 127
2, 108000, Note_off_c, 1, 77, 0
2, 108036, Note_off_c, 1, 82, 0
2, 108048, Note_off_c, 1, 63, 0
2, 108056, Note_off_c, 1, 85, 0
2, 108056, Note_off_c, 1, 56, 0
2, 108056, Note_off_c, 1, 59, 0
2, 108064, Note_off_c, 1, 55, 0
2, 108068, Note_off_c, 1, 53, 0
2, 108200, Note_on_c, 1, 84, 64
2, 108208, Note_on_c, 1, 82, 59
2, 108208, Note_on_c, 1, 72, 53
2, 108208, Note_on_c, 1, 78, 57
2, 108212, Note_on_c, 1, 73, 50
2, 108260, Control_c, 1, 64, 127
2, 108268, Control_c, 1, 64, 127
2, 108276, Control_c, 1, 64, 127
2, 108276, Control_c, 1, 64, 80
2, 108280, Control_c, 1, 64, 48
2, 108280, Control_c, 1, 64, 16
2, 108288, Control_c, 1, 64, 0
2, 108288, Control_c, 1, 64, 0
2, 108296, Control_c, 1, 64, 0
2, 108296, Control_c, 1, 64, 0
2, 108296, Control_c, 1, 64, 0
2, 108316, Note_on_c, 1, 36, 66
2, 108324, Note_on_c, 1, 44, 65
2, 108344, Control_c, 1, 64, 0
2, 108348, Control_c, 1, 64, 0
2, 108356, Note_off_c, 1, 36, 0
2, 108356, Control_c, 1, 64, 0
2, 108356, Control_c, 1, 64, 0
2, 108364, Control_c, 1, 64, 16
2, 108368, Control_c, 1, 64, 16
2, 108372, Control_c, 1, 64, 32
2, 108376, Control_c, 1, 64, 48
2, 108376, Control_c, 1, 64, 64
2, 108384, Control_c, 1, 64, 80
2, 108384, Control_c, 1, 64, 127
2, 108392, Note_off_c, 1, 44, 0
2, 108392, Control_c, 1, 64, 127
2, 108396, Control_c, 1, 64, 127
2, 108396, Control_c, 1, 64, 127
2, 108400, Control_c, 1, 64, 127
2, 108472, Note_off_c, 1, 84, 0
2, 108488, Note_off_c, 1, 73, 0
2, 108520, Note_off_c, 1, 82, 0
2, 108528, Note_off_c, 1, 72, 0
2, 108560, Note_off_c, 1, 78, 0
2, 108568, Control_c, 1, 64, 127
2, 108568, Control_c, 1, 64, 127
2, 108576, Control_c, 1, 64, 127
2, 108576, Control_c, 1, 64, 80
2, 108584, Control_c, 1, 64, 64
2, 108588, Control_c, 1, 64, 32
2, 108588, Control_c, 1, 64, 16
2, 108588, Control_c, 1, 64, 0
2, 108596, Control_c, 1, 64, 0
2, 108596, Control_c, 1, 64, 0
2, 108596, Note_on_c, 1, 52, 66
2, 108604, Control_c, 1, 64, 0
2, 108604, Note_on_c, 1, 58, 78
2, 108608, Control_c, 1, 64, 0
2, 108612, Note_on_c, 1, 56, 70
2, 108616, Note_on_c, 1, 63, 77
2, 108616, Note_on_c, 1, 54, 64
2, 108760, Control_c, 1, 64, 0
2, 108764, Control_c, 1, 64, 0
2, 108772, Control_c, 1, 64, 0
2, 108772, Control_c, 1, 64, 16
2, 108780, Control_c, 1, 64, 64
2, 108780, Control_c, 1, 64, 127
2, 108788, Control_c, 1, 64, 127
2, 108788, Control_c, 1, 64, 127
2, 108792, Control_c, 1, 64, 127
2, 108828, Note_off_c, 1, 63, 0
2, 108856, Note_off_c, 1, 56, 0
2, 108856, Note_off_c, 1, 58, 0
2, 108860, Note_off_c, 1, 54, 0
2, 108864, Note_off_c, 1, 52, 0
2, 108904, Note_on_c, 1, 82, 82
2, 108904, Note_on_c, 1, 73, 75
2, 108904, Note_on_c, 1, 70, 81
2, 108908, Note_on_c, 1, 75, 71
2, 108948, Note_off_c, 1, 70, 0
2, 108956, Note_off_c, 1, 73, 0
2, 108972, Note_off_c, 1, 82, 0
2, 108996, Control_c, 1, 64, 127
2, 109000, Note_on_c, 1, 73, 41
2, 109004, Note_on_c, 1, 69, 77
2, 109004, Control_c, 1, 64, 127
2, 109012, Control_c, 1, 64, 127
2, 109012, Control_c, 1, 64, 127
2, 109020, Control_c, 1, 64, 64
2, 109020, Control_c, 1, 64, 48
2, 109024, Control_c, 1, 64, 32
2, 109024, Control_c, 1, 64, 16
2, 109032, Control_c, 1, 64, 0
2, 109032, Control_c, 1, 64, 0
2, 109040, Control_c, 1, 64, 0
2, 109040, Control_c, 1, 64, 0
2, 109044, Note_off_c, 1, 69, 0
2, 109044, Control_c, 1, 64, 0
2, 109080, Note_off_c, 1, 73, 0
2, 109088, Note_on_c, 1, 47, 57
2, 109108, Note_on_c, 1, 51, 61
2, 109112, Note_on_c, 1, 57, 70
2, 109120, Note_on_c, 1, 41, 62
2, 109128, Note_on_c, 1, 70, 78
2, 109156, Note_off_c, 1, 41, 0
2, 109168, Note_off_c, 1, 47, 0
2, 109168, Note_off_c, 1, 75, 0
2, 109176, Note_off_c, 1, 70, 0
2, 109176, Control_c, 1, 64, 0
2, 109176, Control_c, 1, 64, 0
2, 109184, Note_off_c, 1, 51, 0
2, 109184, Control_c, 1, 64, 0
2, 109188, Control_c, 1, 64, 0
2, 109188, Control_c, 1, 64, 16
2, 109196, Control_c, 1, 64, 16
2, 109196, Note_on_c, 1, 71, 61
2, 109204, Note_off_c, 1, 57, 0
2, 109204, Control_c, 1, 64, 32
2, 109204, Control_c, 1, 64, 48
2, 109208, Control_c, 1, 64, 64
2, 109224, Control_c, 1, 64, 80
2, 109228, Control_c, 1, 64, 127
2, 109228, Control_c, 1, 64, 127
2, 109244, Control_c, 1, 64, 127
2, 109252, Control_c, 1, 64, 127
2, 109264, Note_off_c, 1, 71, 0
2, 109272, Control_c, 1, 64, 127
2, 109296, Control_c, 1, 64, 127
2, 109304, Control_c, 1, 64, 127
2, 109312, Control_c, 1, 64, 127
2, 109320, Note_on_c, 1, 74, 88
2, 109320, Control_c, 1, 64, 80
2, 109328, Control_c, 1, 64, 64
2, 109328, Control_c, 1, 64, 48
2, 109332, Control_c, 1, 64, 16
2, 109332, Control_c, 1, 64, 16
2, 109340, Control_c, 1, 64, 0
2, 109340, Control_c, 1, 64, 0
2, 109344, Control_c, 1, 64, 0
2, 109344, Control_c, 1, 64, 0
2, 109348, Control_c, 1, 64, 0
2, 109380, Note_on_c, 1, 67, 57
2, 109380, Note_on_c, 1, 57, 57
2, 109380, Note_on_c, 1, 63, 58
2, 109388, Note_on_c, 1, 60, 54
2, 109392, Note_off_c, 1, 74, 0
2, 109400, Note_on_c, 1, 72, 61
2, 109460, Note_off_c, 1, 72, 0
2, 109476, Note_on_c, 1, 71, 55
2, 109564, Note_on_c, 1, 72, 66
2, 109576, Note_off_c, 1, 71, 0
2, 109692, Note_on_c, 1, 74, 71
2, 109696, Control_c, 1, 67, 0
2, 109708, Note_off_c, 1, 67, 0
2, 109712, Control_c, 1, 64, 0
2, 109720, Control_c, 1, 64, 0
2, 109720, Control_c, 1, 64, 0
2, 109724, Note_off_c, 1, 63, 0
2, 109728, Note_off_c, 1, 60, 0
2, 109728, Control_c, 1, 64, 0
2, 109736, Note_off_c, 1, 57, 0
2, 109736, Control_c, 1, 64, 16
2, 109736, Control_c, 1, 67, 127
2, 109764, Note_off_c, 1, 72, 0
2, 109768, Note_on_c, 1, 75, 75
2, 109776, Note_off_c, 1, 74, 0
2, 109816, Note_off_c, 1, 75, 0
2, 109864, Control_c, 1, 64, 0
2, 109872, Note_on_c, 1, 77, 78
2, 109872, Control_c, 1, 64, 0
2, 109884, Control_c, 1, 64, 0
2, 109900, Control_c, 1, 64, 0
2, 109904, Control_c, 1, 64, 0
2, 109920, Note_on_c, 1, 46, 58
2, 109924, Note_on_c, 1, 56, 64
2, 109940, Note_off_c, 1, 77, 0
2, 109940, Note_on_c, 1, 79, 78
2, 109940, Note_on_c, 1, 62, 40
2, 109988, Note_off_c, 1, 79, 0
2, 110000, Note_on_c, 1, 80, 76
2, 110064, Note_on_c, 1, 82, 84
2, 110068, Note_off_c, 1, 80, 0
2, 110156, Note_on_c, 1, 79, 75
2, 110172, Note_off_c, 1, 82, 0
2, 110224, Note_off_c, 1, 79, 0
2, 110260, Note_on_c, 1, 74, 64
2, 110288, Note_off_c, 1, 74, 0
2, 110356, Control_c, 1, 64, 0
2, 110368, Control_c, 1, 64, 0
2, 110368, Control_c, 1, 64, 0
2, 110376, Control_c, 1, 64, 0
2, 110376, Note_on_c, 1, 70, 57
2, 110376, Control_c, 1, 64, 16
2, 110384, Note_off_c, 1, 62, 0
2, 110388, Control_c, 1, 64, 16
2, 110392, Note_off_c, 1, 46, 0
2, 110392, Control_c, 1, 64, 32
2, 110396, Note_off_c, 1, 70, 0
2, 110404, Control_c, 1, 64, 48
2, 110416, Control_c, 1, 64, 64
2, 110424, Note_off_c, 1, 56, 0
2, 110436, Control_c, 1, 64, 80
2, 110460, Control_c, 1, 64, 64
2, 110464, Control_c, 1, 64, 48
2, 110464, Control_c, 1, 64, 32
2, 110472, Control_c, 1, 64, 16
2, 110472, Control_c, 1, 64, 16
2, 110480, Control_c, 1, 64, 0
2, 110480, Control_c, 1, 64, 0
2, 110484, Control_c, 1, 64, 0
2, 110492, Note_on_c, 1, 55, 68
2, 110492, Note_on_c, 1, 60, 70
2, 110492, Control_c, 1, 64, 0
2, 110500, Control_c, 1, 64, 0
2, 110500, Note_on_c, 1, 46, 63
2, 110676, Note_on_c, 1, 77, 91
2, 110760, Note_off_c, 1, 77, 0
2, 110764, Note_on_c, 1, 74, 80
2, 110808, Note_off_c, 1, 74, 0
2, 110828, Note_on_c, 1, 77, 64
2, 110896, Note_on_c, 1, 74, 68
2, 110916, Note_off_c, 1, 77, 0
2, 110964, Note_off_c, 1, 74, 0
2, 110968, Note_on_c, 1, 70, 63
2, 111012, Note_off_c, 1, 70, 0
2, 111016, Control_c, 1, 64, 0
2, 111024, Note_on_c, 1, 67, 59
2, 111080, Control_c, 1, 64, 0
2, 111080, Note_on_c, 1, 75, 83
2, 111092, Note_off_c, 1, 55, 0
2, 111100, Note_off_c, 1, 60, 0
2, 111100, Control_c, 1, 64, 0
2, 111108, Note_off_c, 1, 67, 0
2, 111128, Control_c, 1, 64, 0
2, 111132, Note_off_c, 1, 46, 0
2, 111148, Note_off_c, 1, 75, 0
2, 111160, Control_c, 1, 64, 0
2, 111176, Control_c, 1, 64, 0
2, 111180, Control_c, 1, 64, 0
2, 111184, Note_on_c, 1, 71, 43
2, 111188, Note_on_c, 1, 72, 30
2, 111196, Control_c, 1, 64, 0
2, 111200, Note_off_c, 1, 71, 0
2, 111224, Note_off_c, 1, 72, 0
2, 111228, Note_on_c, 1, 75, 77
2, 111268, Note_on_c, 1, 71, 68
2, 111272, Note_on_c, 1, 53, 60
2, 111276, Note_on_c, 1, 43, 63
2, 111276, Note_on_c, 1, 59, 66
2, 111296, Note_off_c, 1, 75, 0
2, 111344, Note_off_c, 1, 71, 0
2, 111344, Note_on_c, 1, 68, 71
2, 111372, Note_off_c, 1, 68, 0
2, 111400, Note_on_c, 1, 65, 65
2, 111420, Note_off_c, 1, 59, 0
2, 111428, Note_off_c, 1, 65, 0
2, 111468, Note_on_c, 1, 63, 74
2, 111476, Note_off_c, 1, 53, 0
2, 111524, Note_off_c, 1, 63, 0
2, 111528, Note_on_c, 1, 62, 67
2, 111584, Note_off_c, 1, 62, 0
2, 111584, Note_on_c, 1, 61, 70
2, 111640, Note_on_c, 1, 60, 73
2, 111644, Note_on_c, 1, 53, 54
2, 111652, Note_off_c, 1, 61, 0
2, 111660, Note_off_c, 1, 43, 0
2, 111692, Note_off_c, 1, 60, 0
2, 111692, Note_on_c, 1, 59, 65
2, 111844, Note_on_c, 1, 43, 54
2, 111856, Control_c, 1, 64, 0
2, 111864, Control_c, 1, 64, 0
2, 111872, Control_c, 1, 64, 0
2, 111872, Control_c, 1, 64, 0
2, 111876, Control_c, 1, 64, 16
2, 111880, Note_off_c, 1, 59, 0
2, 111884, Note_off_c, 1, 43, 0
2, 111884, Control_c, 1, 64, 16
2, 111884, Control_c, 1, 64, 32
2, 111892, Control_c, 1, 64, 48
2, 111892, Control_c, 1, 64, 64
2, 111896, Control_c, 1, 64, 80
2, 111904, Control_c, 1, 64, 127
2, 111904, Control_c, 1, 64, 127
2, 111912, Control_c, 1, 64, 127
2, 111912, Control_c, 1, 64, 127
2, 111920, Control_c, 1, 64, 127
2, 111932, Note_off_c, 1, 53, 0
2, 112012, Control_c, 1, 64, 127
2, 112020, Control_c, 1, 64, 127
2, 112028, Control_c, 1, 64, 127
2, 112028, Control_c, 1, 64, 127
2, 112036, Control_c, 1, 64, 64
2, 112036, Control_c, 1, 64, 48
2, 112040, Control_c, 1, 64, 32
2, 112048, Control_c, 1, 64, 16
2, 112048, Control_c, 1, 64, 0
2, 112056, Control_c, 1, 64, 0
2, 112056, Control_c, 1, 64, 0
2, 112060, Control_c, 1, 64, 0
2, 112060, Control_c, 1, 64, 0
2, 112064, Note_on_c, 1, 51, 75
2, 112068, Note_on_c, 1, 36, 63
2, 112152, Note_off_c, 1, 36, 0
2, 112172, Control_c, 1, 64, 0
2, 112176, Control_c, 1, 64, 0
2, 112184, Control_c, 1, 64, 0
2, 112192, Control_c, 1, 64, 0
2, 112200, Note_on_c, 1, 79, 78
2, 112200, Control_c, 1, 64, 16
2, 112204, Note_on_c, 1, 87, 77
2, 112204, Control_c, 1, 64, 16
2, 112212, Note_off_c, 1, 51, 0
2, 112212, Note_on_c, 1, 75, 73
2, 112212, Control_c, 1, 64, 32
2, 112220, Control_c, 1, 64, 48
2, 112220, Control_c, 1, 64, 64
2, 112224, Control_c, 1, 64, 80
2, 112232, Control_c, 1, 64, 127
2, 112232, Control_c, 1, 64, 127
2, 112232, Control_c, 1, 64, 127
2, 112240, Note_off_c, 1, 75, 0
2, 112240, Note_off_c, 1, 79, 0
2, 112240, Control_c, 1, 64, 127
2, 112244, Control_c, 1, 64, 127
2, 112272, Note_off_c, 1, 87, 0
2, 112320, Note_on_c, 1, 77, 71
2, 112336, Note_on_c, 1, 89, 77
2, 112360, Note_off_c, 1, 77, 0
2, 112388, Note_off_c, 1, 89, 0
2, 112424, Control_c, 1, 64, 127
2, 112424, Control_c, 1, 64, 127
2, 112428, Control_c, 1, 64, 127
2, 112432, Control_c, 1, 64, 80
2, 112436, Control_c, 1, 64, 48
2, 112444, Control_c, 1, 64, 16
2, 112444, Control_c, 1, 64, 16
2, 112452, Control_c, 1, 64, 0
2, 112452, Note_on_c, 1, 60, 60
2, 112452, Control_c, 1, 64, 0
2, 112456, Control_c, 1, 64, 0
2, 112456, Control_c, 1, 64, 0
2, 112464, Note_on_c, 1, 63, 67
2, 112464, Control_c, 1, 64, 0
2, 112464, Note_on_c, 1, 55, 58
2, 112472, Note_on_c, 1, 79, 70
2, 112472, Note_on_c, 1, 91, 79
2, 112476, Note_on_c, 1, 87, 63
2, 112480, Note_on_c, 1, 84, 59
2, 112484, Note_on_c, 1, 57, 49
2, 112484, Control_c, 1, 64, 0
2, 112492, Note_off_c, 1, 79, 0
2, 112492, Control_c, 1, 64, 0
2, 112504, Control_c, 1, 64, 0
2, 112508, Note_off_c, 1, 84, 0
2, 112520, Note_off_c, 1, 91, 0
2, 112520, Control_c, 1, 64, 0
2, 112524, Control_c, 1, 64, 16
2, 112532, Control_c, 1, 64, 16
2, 112540, Note_off_c, 1, 57, 0
2, 112540, Note_off_c, 1, 87, 0
2, 112544, Control_c, 1, 64, 32
2, 112548, Note_off_c, 1, 60, 0
2, 112552, Note_off_c, 1, 63, 0
2, 112552, Control_c, 1, 64, 48
2, 112560, Note_off_c, 1, 55, 0
2, 112560, Control_c, 1, 64, 64
2, 112572, Control_c, 1, 64, 80
2, 112580, Control_c, 1, 64, 127
2, 112580, Control_c, 1, 64, 127
2, 112588, Note_on_c, 1, 77, 70
2, 112592, Control_c, 1, 64, 127
2, 112600, Control_c, 1, 64, 127
2, 112616, Note_on_c, 1, 89, 49
2, 112616, Control_c, 1, 64, 127
2, 112636, Note_off_c, 1, 89, 0
2, 112636, Note_off_c, 1, 77, 0
2, 112668, Note_on_c, 1, 51, 47
2, 112676, Note_on_c, 1, 39, 64
2, 112704, Note_on_c, 1, 75, 75
2, 112708, Note_on_c, 1, 87, 67
2, 112764, Note_off_c, 1, 75, 0
2, 112764, Note_off_c, 1, 51, 0
2, 112772, Note_off_c, 1, 87, 0
2, 112792, Note_off_c, 1, 39, 0
2, 112812, Control_c, 1, 64, 127
2, 112812, Control_c, 1, 64, 127
2, 112820, Control_c, 1, 64, 127
2, 112820, Control_c, 1, 64, 80
2, 112828, Control_c, 1, 64, 48
2, 112832, Control_c, 1, 64, 32
2, 112832, Control_c, 1, 64, 16
2, 112840, Control_c, 1, 64, 0
2, 112840, Control_c, 1, 64, 0
2, 112840, Control_c, 1, 64, 0
2, 112848, Control_c, 1, 64, 0
2, 112860, Note_on_c, 1, 78, 67
2, 112860, Note_on_c, 1, 81, 61
2, 112868, Note_on_c, 1, 38, 54
2, 112868, Note_on_c, 1, 86, 68
2, 112872, Note_on_c, 1, 74, 57
2, 112880, Note_on_c, 1, 40, 57
2, 112908, Control_c, 1, 64, 0
2, 112920, Control_c, 1, 64, 0
2, 112928, Note_off_c, 1, 74, 0
2, 112928, Control_c, 1, 64, 0
2, 112928, Control_c, 1, 64, 0
2, 112940, Control_c, 1, 64, 16
2, 112944, Control_c, 1, 64, 16
2, 112948, Note_off_c, 1, 38, 0
2, 112948, Control_c, 1, 64, 32
2, 112956, Note_off_c, 1, 78, 0
2, 112956, Control_c, 1, 64, 48
2, 112960, Note_off_c, 1, 81, 0
2, 112964, Control_c, 1, 64, 64
2, 112968, Note_off_c, 1, 40, 0
2, 112968, Note_off_c, 1, 86, 0
2, 112976, Control_c, 1, 64, 80
2, 112984, Control_c, 1, 64, 127
2, 112984, Control_c, 1, 64, 127
2, 112988, Control_c, 1, 64, 127
2, 113004, Control_c, 1, 64, 127
2, 113008, Control_c, 1, 64, 127
2, 113148, Note_on_c, 1, 98, 92
2, 113148, Note_on_c, 1, 86, 80
2, 113148, Note_on_c, 1, 90, 79
2, 113152, Note_off_c, 1, 93, 0
2, 113152, Note_on_c, 1, 93, 73
2, 113188, Note_off_c, 1, 86, 0
2, 113216, Note_off_c, 1, 93, 0
2, 113220, Note_off_c, 1, 90, 0
2, 113228, Note_off_c, 1, 98, 0
2, 113236, Control_c, 1, 64, 127
2, 113236, Control_c, 1, 64, 127
2, 113240, Control_c, 1, 64, 127
2, 113248, Control_c, 1, 64, 80
2, 113256, Control_c, 1, 64, 64
2, 113256, Note_on_c, 1, 86, 66
2, 113264, Control_c, 1, 64, 32
2, 113264, Control_c, 1, 64, 16
2, 113268, Control_c, 1, 64, 0
2, 113268, Control_c, 1, 64, 0
2, 113272, Control_c, 1, 64, 0
2, 113276, Control_c, 1, 64, 0
2, 113276, Control_c, 1, 64, 0
2, 113284, Note_on_c, 1, 60, 56
2, 113284, Note_on_c, 1, 65, 60
2, 113284, Note_on_c, 1, 54, 64
2, 113288, Note_on_c, 1, 56, 57
2, 113288, Note_on_c, 1, 58, 54
2, 113312, Note_off_c, 1, 86, 0
2, 113316, Note_on_c, 1, 90, 30
2, 113316, Note_on_c, 1, 98, 64
2, 113324, Note_on_c, 1, 93, 54
2, 113380, Note_off_c, 1, 98, 0
2, 113384, Note_on_c, 1, 86, 43
2, 113404, Control_c, 1, 64, 0
2, 113412, Control_c, 1, 64, 0
2, 113420, Control_c, 1, 64, 0
2, 113420, Control_c, 1, 64, 0
2, 113424, Control_c, 1, 64, 16
2, 113428, Control_c, 1, 64, 16
2, 113432, Note_off_c, 1, 86, 0
2, 113432, Note_off_c, 1, 65, 0
2, 113440, Note_off_c, 1, 93, 0
2, 113440, Note_off_c, 1, 90, 0
2, 113440, Control_c, 1, 64, 32
2, 113448, Note_off_c, 1, 60, 0
2, 113448, Control_c, 1, 64, 48
2, 113452, Note_off_c, 1, 58, 0
2, 113452, Control_c, 1, 64, 64
2, 113460, Control_c, 1, 64, 80
2, 113464, Note_off_c, 1, 56, 0
2, 113468, Control_c, 1, 64, 127
2, 113468, Control_c, 1, 64, 127
2, 113472, Control_c, 1, 64, 127
2, 113476, Note_off_c, 1, 54, 0
2, 113476, Control_c, 1, 64, 127
2, 113480, Control_c, 1, 64, 127
2, 113680, Control_c, 1, 64, 127
2, 113680, Control_c, 1, 64, 127
2, 113680, Control_c, 1, 64, 127
2, 113684, Control_c, 1, 64, 80
2, 113688, Note_on_c, 1, 53, 57
2, 113692, Control_c, 1, 64, 64
2, 113700, Control_c, 1, 64, 48
2, 113700, Control_c, 1, 64, 16
2, 113700, Control_c, 1, 64, 16
2, 113708, Note_on_c, 1, 59, 66
2, 113708, Control_c, 1, 64, 0
2, 113712, Control_c, 1, 64, 0
2, 113712, Control_c, 1, 64, 0
2, 113720, Note_on_c, 1, 49, 53
2, 113720, Note_on_c, 1, 43, 60
2, 113720, Control_c, 1, 64, 0
2, 113728, Note_on_c, 1, 89, 69
2, 113728, Note_on_c, 1, 92, 77
2, 113728, Control_c, 1, 64, 0
2, 113732, Note_on_c, 1, 97, 78
2, 113732, Note_on_c, 1, 85, 69
2, 113816, Control_c, 1, 64, 0
2, 113828, Control_c, 1, 64, 0
2, 113828, Control_c, 1, 64, 0
2, 113836, Control_c, 1, 64, 0
2, 113844, Note_off_c, 1, 85, 0
2, 113844, Control_c, 1, 64, 16
2, 113848, Note_off_c, 1, 43, 0
2, 113848, Control_c, 1, 64, 16
2, 113852, Note_off_c, 1, 49, 0
2, 113856, Control_c, 1, 64, 32
2, 113864, Note_off_c, 1, 53, 0
2, 113868, Control_c, 1, 64, 48
2, 113872, Note_off_c, 1, 97, 0
2, 113876, Note_off_c, 1, 59, 0
2, 113876, Control_c, 1, 64, 64
2, 113884, Control_c, 1, 64, 80
2, 113884, Control_c, 1, 64, 127
2, 113888, Control_c, 1, 64, 127
2, 113892, Control_c, 1, 64, 127
2, 113896, Note_off_c, 1, 89, 0
2, 113896, Control_c, 1, 64, 127
2, 113904, Control_c, 1, 64, 127
2, 113960, Note_off_c, 1, 92, 0
2, 113960, Note_on_c, 1, 92, 30
2, 113964, Note_on_c, 1, 87, 71
2, 113964, Note_on_c, 1, 97, 75
2, 113968, Note_on_c, 1, 89, 59
2, 114028, Note_off_c, 1, 97, 0
2, 114028, Note_off_c, 1, 87, 0
2, 114032, Note_off_c, 1, 89, 0
2, 114060, Note_off_c, 1, 92, 0
2, 114088, Control_c, 1, 64, 127
2, 114096, Control_c, 1, 64, 127
2, 114100, Control_c, 1, 64, 127
2, 114104, Note_on_c, 1, 59, 57
2, 114104, Control_c, 1, 64, 127
2, 114108, Note_on_c, 1, 53, 63
2, 114108, Control_c, 1, 64, 80
2, 114116, Note_on_c, 1, 63, 58
2, 114120, Control_c, 1, 64, 48
2, 114124, Note_on_c, 1, 97, 75
2, 114124, Note_on_c, 1, 85, 66
2, 114128, Note_on_c, 1, 92, 44
2, 114128, Note_on_c, 1, 56, 60
2, 114136, Control_c, 1, 64, 32
2, 114136, Control_c, 1, 64, 16
2, 114136, Control_c, 1, 64, 16
2, 114144, Control_c, 1, 64, 0
2, 114144, Note_on_c, 1, 89, 65
2, 114148, Control_c, 1, 64, 0
2, 114156, Note_off_c, 1, 85, 0
2, 114164, Control_c, 1, 64, 0
2, 114172, Note_off_c, 1, 89, 0
2, 114176, Note_off_c, 1, 97, 0
2, 114176, Control_c, 1, 64, 16
2, 114204, Note_off_c, 1, 92, 0
2, 114212, Control_c, 1, 64, 16
2, 114216, Control_c, 1, 64, 32
2, 114232, Control_c, 1, 64, 48
2, 114244, Note_on_c, 1, 87, 70
2, 114244, Control_c, 1, 64, 64
2, 114252, Note_on_c, 1, 99, 69
2, 114260, Control_c, 1, 64, 80
2, 114260, Control_c, 1, 64, 127
2, 114272, Note_on_c, 1, 97, 55
2, 114272, Control_c, 1, 64, 127
2, 114284, Note_off_c, 1, 99, 0
2, 114292, Note_off_c, 1, 87, 0
2, 114308, Note_off_c, 1, 63, 0
2, 114312, Note_off_c, 1, 59, 0
2, 114320, Note_off_c, 1, 56, 0
2, 114320, Control_c, 1, 64, 127
2, 114332, Control_c, 1, 64, 80
2, 114336, Note_off_c, 1, 53, 0
2, 114340, Note_off_c, 1, 97, 0
2, 114376, Control_c, 1, 64, 127
2, 114396, Control_c, 1, 64, 127
2, 114408, Control_c, 1, 64, 127
2, 114428, Control_c, 1, 64, 127
2, 114436, Control_c, 1, 64, 127
2, 114516, Note_on_c, 1, 92, 71
2, 114524, Note_on_c, 1, 84, 69
2, 114880, Control_c, 1, 64, 127
2, 114880, Control_c, 1, 64, 127
2, 114884, Control_c, 1, 64, 127
2, 114892, Control_c, 1, 64, 80
2, 114900, Control_c, 1, 64, 64
2, 114908, Note_off_c, 1, 84, 0
2, 114908, Control_c, 1, 64, 48
2, 114908, Control_c, 1, 64, 16
2, 114912, Note_off_c, 1, 92, 0
2, 114920, Control_c, 1, 64, 16
2, 114920, Control_c, 1, 64, 0
2, 114924, Control_c, 1, 64, 0
2, 114928, Control_c, 1, 64, 0
2, 114928, Note_on_c, 1, 64, 73
2, 114932, Control_c, 1, 64, 0
2, 114936, Note_on_c, 1, 58, 69
2, 114936, Note_on_c, 1, 68, 71
2, 114940, Note_on_c, 1, 62, 60
2, 114948, Control_c, 1, 64, 0
2, 114948, Note_on_c, 1, 60, 47
2, 114948, Control_c, 1, 64, 0
2, 114956, Control_c, 1, 64, 0
2, 114960, Control_c, 1, 64, 0
2, 114968, Control_c, 1, 64, 0
2, 114976, Control_c, 1, 64, 16
2, 114976, Control_c, 1, 64, 16
2, 114980, Control_c, 1, 64, 32
2, 114988, Control_c, 1, 64, 48
2, 114988, Control_c, 1, 64, 64
2, 115000, Control_c, 1, 64, 80
2, 115004, Control_c, 1, 64, 127
2, 115004, Control_c, 1, 64, 127
2, 115008, Control_c, 1, 64, 127
2, 115016, Control_c, 1, 64, 127
2, 115016, Control_c, 1, 64, 127
2, 115072, Note_off_c, 1, 68, 0
2, 115084, Note_off_c, 1, 62, 0
2, 115084, Note_off_c, 1, 64, 0
2, 115120, Note_off_c, 1, 58, 0
2, 115124, Note_off_c, 1, 60, 0
2, 115180, Note_on_c, 1, 94, 75
2, 115180, Note_on_c, 1, 82, 73
2, 115240, Note_off_c, 1, 82, 0
2, 115256, Note_off_c, 1, 94, 0
2, 115324, Note_on_c, 1, 87, 67
2, 115328, Note_on_c, 1, 95, 77
2, 115332, Note_on_c, 1, 90, 71
2, 115332, Note_on_c, 1, 83, 68
2, 115420, Control_c, 1, 67, 0
2, 115428, Note_off_c, 1, 83, 0
2, 115440, Note_off_c, 1, 95, 0
2, 115444, Note_on_c, 1, 47, 54
2, 115452, Note_on_c, 1, 57, 74
2, 115452, Note_on_c, 1, 51, 68
2, 115460, Note_on_c, 1, 41, 68
2, 115460, Control_c, 1, 64, 127
2, 115468, Control_c, 1, 64, 127
2, 115472, Control_c, 1, 64, 127
2, 115472, Control_c, 1, 64, 80
2, 115480, Control_c, 1, 64, 64
2, 115488, Control_c, 1, 64, 32
2, 115492, Control_c, 1, 64, 16
2, 115496, Control_c, 1, 64, 0
2, 115500, Control_c, 1, 64, 0
2, 115508, Control_c, 1, 64, 0
2, 115512, Control_c, 1, 64, 0
2, 115520, Control_c, 1, 67, 127
2, 115524, Note_off_c, 1, 90, 0
2, 115528, Control_c, 1, 64, 0
2, 115544, Note_off_c, 1, 87, 0
2, 115568, Control_c, 1, 64, 0
2, 115576, Control_c, 1, 64, 0
2, 115580, Control_c, 1, 64, 0
2, 115588, Control_c, 1, 64, 0
2, 115588, Control_c, 1, 64, 16
2, 115596, Control_c, 1, 64, 16
2, 115596, Control_c, 1, 64, 32
2, 115604, Note_off_c, 1, 41, 0
2, 115608, Control_c, 1, 64, 48
2, 115616, Note_off_c, 1, 47, 0
2, 115616, Control_c, 1, 64, 64
2, 115624, Note_on_c, 1, 97, 86
2, 115624, Note_on_c, 1, 87, 62
2, 115624, Note_on_c, 1, 90, 68
2, 115632, Control_c, 1, 64, 80
2, 115636, Note_on_c, 1, 85, 69
2, 115636, Control_c, 1, 64, 127
2, 115644, Note_off_c, 1, 51, 0
2, 115644, Control_c, 1, 64, 127
2, 115644, Control_c, 1, 64, 127
2, 115652, Note_off_c, 1, 57, 0
2, 115676, Note_off_c, 1, 85, 0
2, 115680, Note_off_c, 1, 97, 0
2, 115684, Note_off_c, 1, 87, 0
2, 115692, Note_off_c, 1, 90, 0
2, 115744, Control_c, 1, 64, 127
2, 115768, Note_on_c, 1, 90, 55
2, 115768, Note_on_c, 1, 95, 67
2, 115772, Note_on_c, 1, 87, 58
2, 115772, Note_on_c, 1, 83, 61
2, 115776, Control_c, 1, 64, 127
2, 115808, Note_off_c, 1, 83, 0
2, 115836, Note_off_c, 1, 95, 0
2, 115856, Note_off_c, 1, 87, 0
2, 115864, Note_on_c, 1, 57, 63
2, 115868, Note_on_c, 1, 63, 69
2, 115876, Note_off_c, 1, 90, 0
2, 115876, Note_on_c, 1, 59, 61
2, 115876, Note_on_c, 1, 67, 63
2, 115884, Control_c, 1, 64, 127
2, 115884, Note_on_c, 1, 61, 62
2, 115888, Control_c, 1, 64, 127
2, 115888, Control_c, 1, 64, 127
2, 115896, Control_c, 1, 64, 80
2, 115904, Control_c, 1, 64, 64
2, 115904, Control_c, 1, 64, 48
2, 115904, Control_c, 1, 64, 32
2, 115908, Control_c, 1, 64, 16
2, 115912, Control_c, 1, 64, 0
2, 115916, Control_c, 1, 64, 0
2, 115916, Control_c, 1, 64, 0
2, 115924, Control_c, 1, 64, 0
2, 115932, Control_c, 1, 64, 0
2, 115956, Control_c, 1, 64, 0
2, 115964, Control_c, 1, 64, 0
2, 115976, Control_c, 1, 64, 0
2, 115980, Note_off_c, 1, 67, 0
2, 115980, Control_c, 1, 64, 0
2, 115984, Control_c, 1, 64, 16
2, 115992, Control_c, 1, 64, 16
2, 115992, Control_c, 1, 64, 32
2, 116000, Note_off_c, 1, 63, 0
2, 116000, Control_c, 1, 64, 48
2, 116000, Control_c, 1, 64, 64
2, 116004, Control_c, 1, 64, 80
2, 116012, Note_on_c, 1, 87, 59
2, 116012, Control_c, 1, 64, 127
2, 116020, Note_on_c, 1, 85, 63
2, 116020, Control_c, 1, 64, 127
2, 116024, Control_c, 1, 64, 127
2, 116028, Note_off_c, 1, 59, 0
2, 116028, Note_on_c, 1, 90, 49
2, 116032, Note_off_c, 1, 61, 0
2, 116032, Control_c, 1, 64, 127
2, 116040, Note_off_c, 1, 57, 0
2, 116040, Control_c, 1, 64, 127
2, 116092, Note_off_c, 1, 90, 0
2, 116096, Note_off_c, 1, 87, 0
2, 116148, Note_on_c, 1, 94, 77
2, 116156, Note_on_c, 1, 86, 69
2, 116164, Note_on_c, 1, 82, 70
2, 116168, Note_on_c, 1, 91, 61
2, 116204, Control_c, 1, 64, 127
2, 116204, Control_c, 1, 64, 127
2, 116208, Control_c, 1, 64, 127
2, 116216, Control_c, 1, 64, 80
2, 116224, Control_c, 1, 64, 64
2, 116224, Control_c, 1, 64, 48
2, 116232, Control_c, 1, 64, 16
2, 116232, Control_c, 1, 64, 16
2, 116232, Control_c, 1, 64, 0
2, 116236, Note_off_c, 1, 82, 0
2, 116236, Control_c, 1, 64, 0
2, 116244, Note_off_c, 1, 91, 0
2, 116244, Note_off_c, 1, 94, 0
2, 116244, Control_c, 1, 64, 0
2, 116252, Control_c, 1, 64, 0
2, 116252, Control_c, 1, 64, 0
2, 116260, Note_off_c, 1, 86, 0
2, 116260, Note_on_c, 1, 34, 71
2, 116284, Control_c, 1, 64, 0
2, 116292, Note_off_c, 1, 34, 0
2, 116300, Control_c, 1, 64, 0
2, 116304, Control_c, 1, 64, 0
2, 116312, Control_c, 1, 64, 0
2, 116320, Control_c, 1, 64, 16
2, 116320, Control_c, 1, 64, 16
2, 116324, Control_c, 1, 64, 32
2, 116332, Control_c, 1, 64, 48
2, 116332, Control_c, 1, 64, 64
2, 116348, Control_c, 1, 64, 80
2, 116352, Control_c, 1, 64, 127
2, 116352, Control_c, 1, 64, 127
2, 116352, Control_c, 1, 64, 127
2, 116368, Control_c, 1, 64, 127
2, 116372, Control_c, 1, 64, 127
2, 116476, Control_c, 1, 64, 127
2, 116484, Control_c, 1, 64, 127
2, 116488, Control_c, 1, 64, 127
2, 116492, Control_c, 1, 64, 80
2, 116496, Control_c, 1, 64, 64
2, 116504, Control_c, 1, 64, 48
2, 116504, Control_c, 1, 64, 32
2, 116504, Control_c, 1, 64, 16
2, 116508, Control_c, 1, 64, 16
2, 116512, Control_c, 1, 64, 0
2, 116516, Control_c, 1, 64, 0
2, 116524, Control_c, 1, 64, 0
2, 116544, Note_on_c, 1, 74, 71
2, 116544, Note_on_c, 1, 79, 68
2, 116544, Note_on_c, 1, 56, 67
2, 116552, Note_on_c, 1, 65, 68
2, 116552, Note_on_c, 1, 82, 73
2, 116556, Note_on_c, 1, 62, 62
2, 116560, Control_c, 1, 64, 0
2, 116560, Note_on_c, 1, 70, 67
2, 116564, Note_on_c, 1, 60, 58
2, 116572, Control_c, 1, 64, 0
2, 116572, Control_c, 1, 64, 16
2, 116576, Control_c, 1, 64, 16
2, 116580, Control_c, 1, 64, 32
2, 116580, Control_c, 1, 64, 48
2, 116584, Control_c, 1, 64, 64
2, 116600, Control_c, 1, 64, 80
2, 116600, Control_c, 1, 64, 127
2, 116600, Control_c, 1, 64, 127
2, 116604, Control_c, 1, 64, 127
2, 116612, Control_c, 1, 64, 127
2, 116612, Control_c, 1, 64, 127
2, 116628, Note_off_c, 1, 79, 0
2, 116640, Note_off_c, 1, 70, 0
2, 116640, Note_off_c, 1, 74, 0
2, 116652, Note_off_c, 1, 65, 0
2, 116660, Note_off_c, 1, 82, 0
2, 116668, Note_off_c, 1, 60, 0
2, 116668, Note_off_c, 1, 62, 0
2, 116696, Note_off_c, 1, 56, 0
2, 116816, Note_on_c, 1, 56, 59
2, 116824, Note_on_c, 1, 77, 71
2, 116832, Note_on_c, 1, 82, 86
2, 116832, Note_on_c, 1, 73, 78
2, 116832, Note_on_c, 1, 72, 77
2, 116836, Note_on_c, 1, 61, 68
2, 116836, Note_on_c, 1, 46, 63
2, 116844, Control_c, 1, 64, 127
2, 116844, Control_c, 1, 64, 127
2, 116852, Control_c, 1, 64, 127
2, 116852, Control_c, 1, 64, 80
2, 116860, Control_c, 1, 64, 64
2, 116864, Control_c, 1, 64, 48
2, 116864, Control_c, 1, 64, 32
2, 116868, Control_c, 1, 64, 16
2, 116872, Control_c, 1, 64, 0
2, 116872, Control_c, 1, 64, 0
2, 116880, Control_c, 1, 64, 0
2, 116880, Control_c, 1, 64, 0
2, 116884, Control_c, 1, 64, 0
2, 117036, Control_c, 1, 64, 0
2, 117036, Control_c, 1, 64, 0
2, 117040, Control_c, 1, 64, 0
2, 117044, Control_c, 1, 64, 16
2, 117048, Control_c, 1, 64, 16
2, 117048, Control_c, 1, 64, 48
2, 117052, Control_c, 1, 64, 64
2, 117056, Control_c, 1, 64, 80
2, 117064, Control_c, 1, 64, 127
2, 117064, Control_c, 1, 64, 127
2, 117064, Control_c, 1, 64, 127
2, 117068, Control_c, 1, 64, 127
2, 117068, Control_c, 1, 64, 127
2, 117076, Note_off_c, 1, 82, 0
2, 117092, Note_off_c, 1, 72, 0
2, 117092, Note_off_c, 1, 77, 0
2, 117096, Note_off_c, 1, 73, 0
2, 117368, Control_c, 1, 64, 127
2, 117376, Note_on_c, 1, 63, 68
2, 117384, Control_c, 1, 64, 127
2, 117444, Note_off_c, 1, 61, 0
2, 117472, Note_off_c, 1, 56, 0
2, 117500, Note_off_c, 1, 46, 0
2, 117532, Control_c, 1, 64, 127
2, 117548, Control_c, 1, 64, 127
2, 117628, Note_on_c, 1, 75, 85
2, 117672, Note_on_c, 1, 73, 23
2, 117692, Note_off_c, 1, 63, 0
2, 117716, Note_off_c, 1, 73, 0
2, 117720, Note_off_c, 1, 75, 0
2, 117724, Control_c, 1, 64, 127
2, 117732, Control_c, 1, 64, 127
2, 117732, Control_c, 1, 64, 127
2, 117740, Control_c, 1, 64, 80
2, 117744, Control_c, 1, 64, 64
2, 117748, Control_c, 1, 64, 48
2, 117752, Control_c, 1, 64, 16
2, 117752, Note_on_c, 1, 39, 49
2, 117760, Control_c, 1, 64, 0
2, 117760, Control_c, 1, 64, 0
2, 117764, Control_c, 1, 64, 0
2, 117764, Control_c, 1, 64, 0
2, 117768, Control_c, 1, 64, 0
2, 117780, Note_on_c, 1, 55, 18
2, 117828, Control_c, 1, 64, 0
2, 117840, Control_c, 1, 64, 0
2, 117840, Control_c, 1, 64, 0
2, 117848, Control_c, 1, 64, 0
2, 117856, Control_c, 1, 64, 16
2, 117856, Control_c, 1, 64, 16
2, 117860, Control_c, 1, 64, 32
2, 117868, Control_c, 1, 64, 48
2, 117868, Control_c, 1, 64, 64
2, 117876, Control_c, 1, 64, 80
2, 117880, Control_c, 1, 64, 127
2, 117884, Control_c, 1, 64, 127
2, 117888, Note_off_c, 1, 39, 0
2, 117888, Control_c, 1, 64, 127
2, 117896, Control_c, 1, 64, 127
2, 117896, Control_c, 1, 64, 127
2, 117948, Note_off_c, 1, 55, 0
2, 118044, Note_on_c, 1, 75, 81
2, 118044, Note_on_c, 1, 87, 85
2, 118088, Note_off_c, 1, 75, 0
2, 118092, Note_off_c, 1, 87, 0
2, 118152, Control_c, 1, 64, 127
2, 118168, Control_c, 1, 64, 127
2, 118168, Control_c, 1, 64, 127
2, 118168, Control_c, 1, 64, 80
2, 118176, Control_c, 1, 64, 64
2, 118184, Note_on_c, 1, 58, 24
2, 118184, Control_c, 1, 64, 48
2, 118184, Note_on_c, 1, 64, 53
2, 118188, Control_c, 1, 64, 16
2, 118192, Note_on_c, 1, 49, 52
2, 118196, Control_c, 1, 64, 16
2, 118196, Control_c, 1, 64, 0
2, 118196, Control_c, 1, 64, 0
2, 118200, Control_c, 1, 64, 0
2, 118204, Control_c, 1, 64, 0
2, 118208, Control_c, 1, 64, 0
2, 118296, Note_off_c, 1, 64, 0
2, 118300, Control_c, 1, 64, 0
2, 118304, Control_c, 1, 64, 0
2, 118304, Control_c, 1, 64, 0
2, 118320, Control_c, 1, 64, 0
2, 118320, Control_c, 1, 64, 16
2, 118320, Control_c, 1, 64, 16
2, 118324, Control_c, 1, 64, 32
2, 118324, Control_c, 1, 64, 48
2, 118332, Note_off_c, 1, 58, 0
2, 118332, Control_c, 1, 64, 64
2, 118340, Control_c, 1, 64, 80
2, 118344, Control_c, 1, 64, 127
2, 118344, Control_c, 1, 64, 127
2, 118348, Control_c, 1, 64, 127
2, 118360, Control_c, 1, 64, 127
2, 118360, Control_c, 1, 64, 127
2, 118460, Note_on_c, 1, 84, 64
2, 118484, Note_off_c, 1, 49, 0
2, 118556, Control_c, 1, 64, 127
2, 118564, Note_off_c, 1, 84, 0
2, 118564, Control_c, 1, 64, 127
2, 118572, Control_c, 1, 64, 127
2, 118572, Control_c, 1, 64, 80
2, 118580, Control_c, 1, 64, 48
2, 118584, Control_c, 1, 64, 32
2, 118584, Control_c, 1, 64, 16
2, 118584, Control_c, 1, 64, 0
2, 118592, Control_c, 1, 64, 0
2, 118592, Note_on_c, 1, 48, 48
2, 118592, Note_on_c, 1, 63, 49
2, 118596, Control_c, 1, 64, 0
2, 118600, Note_on_c, 1, 87, 70
2, 118604, Note_on_c, 1, 75, 60
2, 118604, Control_c, 1, 64, 0
2, 118612, Control_c, 1, 64, 0
2, 118652, Note_off_c, 1, 75, 0
2, 118652, Note_off_c, 1, 87, 0
2, 118712, Control_c, 1, 64, 0
2, 118728, Control_c, 1, 64, 0
2, 118728, Control_c, 1, 64, 0
2, 118736, Control_c, 1, 64, 0
2, 118740, Control_c, 1, 64, 16
2, 118740, Control_c, 1, 64, 16
2, 118748, Control_c, 1, 64, 32
2, 118760, Control_c, 1, 64, 48
2, 118768, Control_c, 1, 64, 64
2, 118776, Control_c, 1, 64, 80
2, 118784, Control_c, 1, 64, 127
2, 118784, Control_c, 1, 64, 127
2, 118788, Control_c, 1, 64, 127
2, 118808, Control_c, 1, 64, 127
2, 118828, Control_c, 1, 64, 127
2, 118836, Note_on_c, 1, 84, 65
2, 118844, Note_on_c, 1, 72, 57
2, 118884, Note_off_c, 1, 84, 0
2, 118900, Note_off_c, 1, 72, 0
2, 118968, Control_c, 1, 64, 127
2, 118968, Control_c, 1, 64, 127
2, 118972, Control_c, 1, 64, 127
2, 118972, Control_c, 1, 64, 127
2, 118980, Control_c, 1, 64, 64
2, 118980, Control_c, 1, 64, 48
2, 118988, Control_c, 1, 64, 32
2, 118988, Control_c, 1, 64, 16
2, 118992, Control_c, 1, 64, 0
2, 118996, Control_c, 1, 64, 0
2, 119000, Control_c, 1, 64, 0
2, 119004, Note_on_c, 1, 68, 60
2, 119008, Note_on_c, 1, 80, 56
2, 119008, Control_c, 1, 64, 0
2, 119008, Control_c, 1, 64, 0
2, 119040, Note_off_c, 1, 68, 0
2, 119064, Note_off_c, 1, 80, 0
2, 119096, Control_c, 1, 64, 0
2, 119104, Control_c, 1, 64, 0
2, 119108, Control_c, 1, 64, 0
2, 119116, Control_c, 1, 64, 0
2, 119116, Control_c, 1, 64, 16
2, 119124, Control_c, 1, 64, 16
2, 119124, Control_c, 1, 64, 32
2, 119128, Control_c, 1, 64, 48
2, 119136, Control_c, 1, 64, 64
2, 119144, Control_c, 1, 64, 80
2, 119152, Control_c, 1, 64, 127
2, 119152, Control_c, 1, 64, 127
2, 119156, Control_c, 1, 64, 127
2, 119160, Control_c, 1, 64, 127
2, 119164, Control_c, 1, 64, 127
2, 119232, Note_on_c, 1, 79, 62
2, 119240, Note_on_c, 1, 67, 47
2, 119268, Note_off_c, 1, 79, 0
2, 119280, Note_off_c, 1, 67, 0
2, 119300, Control_c, 1, 64, 127
2, 119300, Control_c, 1, 64, 127
2, 119316, Control_c, 1, 64, 127
2, 119316, Control_c, 1, 64, 80
2, 119320, Control_c, 1, 64, 48
2, 119320, Control_c, 1, 64, 32
2, 119328, Control_c, 1, 64, 16
2, 119336, Control_c, 1, 64, 0
2, 119336, Control_c, 1, 64, 0
2, 119336, Control_c, 1, 64, 0
2, 119340, Control_c, 1, 64, 0
2, 119344, Control_c, 1, 64, 0
2, 119388, Note_on_c, 1, 66, 52
2, 119396, Note_on_c, 1, 78, 50
2, 119404, Control_c, 1, 64, 0
2, 119408, Control_c, 1, 64, 0
2, 119416, Control_c, 1, 64, 0
2, 119424, Note_off_c, 1, 66, 0
2, 119424, Control_c, 1, 64, 0
2, 119432, Control_c, 1, 64, 16
2, 119432, Control_c, 1, 64, 16
2, 119432, Control_c, 1, 64, 32
2, 119436, Control_c, 1, 64, 48
2, 119444, Note_off_c, 1, 78, 0
2, 119444, Control_c, 1, 64, 64
2, 119452, Control_c, 1, 64, 80
2, 119456, Control_c, 1, 64, 127
2, 119456, Control_c, 1, 64, 127
2, 119460, Control_c, 1, 64, 127
2, 119464, Control_c, 1, 64, 127
2, 119472, Control_c, 1, 64, 127
2, 119484, Note_off_c, 1, 63, 0
2, 119588, Note_off_c, 1, 48, 0
2, 119664, Note_on_c, 1, 89, 76
2, 119668, Note_on_c, 1, 84, 59
2, 119668, Note_on_c, 1, 77, 62
2, 119696, Note_off_c, 1, 77, 0
2, 119724, Note_off_c, 1, 89, 0
2, 119732, Note_off_c, 1, 84, 0
2, 119744, Control_c, 1, 64, 127
2, 119752, Control_c, 1, 64, 127
2, 119752, Control_c, 1, 64, 127
2, 119756, Control_c, 1, 64, 127
2, 119756, Control_c, 1, 64, 80
2, 119764, Control_c, 1, 64, 48
2, 119768, Control_c, 1, 64, 32
2, 119772, Control_c, 1, 64, 16
2, 119772, Control_c, 1, 64, 0
2, 119780, Control_c, 1, 64, 0
2, 119780, Control_c, 1, 64, 0
2, 119780, Note_on_c, 1, 45, 52
2, 119784, Control_c, 1, 64, 0
2, 119792, Note_on_c, 1, 54, 48
2, 119792, Control_c, 1, 64, 0
2, 119792, Note_on_c, 1, 60, 42
2, 119896, Control_c, 1, 64, 0
2, 119900, Control_c, 1, 64, 0
2, 119908, Control_c, 1, 64, 0
2, 119916, Control_c, 1, 64, 0
2, 119916, Control_c, 1, 64, 16
2, 119920, Control_c, 1, 64, 16
2, 119928, Control_c, 1, 64, 32
2, 119936, Control_c, 1, 64, 48
2, 119944, Control_c, 1, 64, 64
2, 119956, Control_c, 1, 64, 80
2, 119960, Note_off_c, 1, 45, 0
2, 119964, Control_c, 1, 64, 127
2, 119964, Control_c, 1, 64, 127
2, 119968, Control_c, 1, 64, 127
2, 119972, Control_c, 1, 64, 127
2, 119976, Control_c, 1, 64, 127
2, 119984, Note_off_c, 1, 54, 0
2, 119996, Note_off_c, 1, 60, 0
2, 120152, Control_c, 1, 64, 127
2, 120160, Control_c, 1, 64, 127
2, 120160, Control_c, 1, 64, 127
2, 120168, Control_c, 1, 64, 80
2, 120176, Control_c, 1, 64, 64
2, 120176, Control_c, 1, 64, 48
2, 120180, Control_c, 1, 64, 16
2, 120180, Control_c, 1, 64, 16
2, 120188, Control_c, 1, 64, 0
2, 120188, Control_c, 1, 64, 0
2, 120192, Note_on_c, 1, 46, 54
2, 120196, Control_c, 1, 64, 0
2, 120200, Note_on_c, 1, 61, 58
2, 120200, Control_c, 1, 64, 0
2, 120204, Note_on_c, 1, 53, 45
2, 120208, Note_on_c, 1, 77, 59
2, 120208, Control_c, 1, 64, 0
2, 120216, Note_on_c, 1, 80, 61
2, 120216, Note_on_c, 1, 56, 48
2, 120216, Note_on_c, 1, 89, 61
2, 120284, Note_off_c, 1, 89, 0
2, 120284, Control_c, 1, 64, 0
2, 120296, Note_off_c, 1, 77, 0
2, 120296, Control_c, 1, 64, 0
2, 120300, Note_on_c, 1, 77, 2
2, 120304, Control_c, 1, 64, 0
2, 120312, Note_off_c, 1, 46, 0
2, 120312, Control_c, 1, 64, 0
2, 120316, Control_c, 1, 64, 16
2, 120320, Note_off_c, 1, 56, 0
2, 120324, Note_off_c, 1, 53, 0
2, 120324, Control_c, 1, 64, 16
2, 120336, Control_c, 1, 64, 32
2, 120340, Note_off_c, 1, 77, 0
2, 120344, Control_c, 1, 64, 48
2, 120352, Note_off_c, 1, 61, 0
2, 120360, Control_c, 1, 64, 64
2, 120364, Control_c, 1, 64, 80
2, 120372, Note_on_c, 1, 89, 61
2, 120380, Control_c, 1, 64, 127
2, 120380, Control_c, 1, 64, 127
2, 120380, Control_c, 1, 64, 127
2, 120392, Note_off_c, 1, 89, 0
2, 120392, Control_c, 1, 64, 127
2, 120408, Note_off_c, 1, 80, 0
2, 120408, Control_c, 1, 64, 127
2, 120428, Note_on_c, 1, 77, 60
2, 120452, Note_off_c, 1, 77, 0
2, 120476, Note_on_c, 1, 80, 37
2, 120476, Note_on_c, 1, 89, 67
2, 120516, Note_off_c, 1, 80, 0
2, 120528, Note_off_c, 1, 89, 0
2, 120544, Control_c, 1, 64, 127
2, 120544, Control_c, 1, 64, 127
2, 120548, Control_c, 1, 64, 127
2, 120548, Control_c, 1, 64, 80
2, 120556, Control_c, 1, 64, 48
2, 120564, Control_c, 1, 64, 16
2, 120564, Control_c, 1, 64, 16
2, 120568, Control_c, 1, 64, 0
2, 120568, Control_c, 1, 64, 0
2, 120572, Control_c, 1, 64, 0
2, 120576, Control_c, 1, 64, 0
2, 120592, Note_on_c, 1, 65, 58
2, 120592, Note_on_c, 1, 58, 48
2, 120596, Note_on_c, 1, 61, 46
2, 120596, Note_on_c, 1, 56, 49
2, 120660, Control_c, 1, 64, 0
2, 120664, Control_c, 1, 64, 0
2, 120672, Control_c, 1, 64, 0
2, 120680, Control_c, 1, 64, 0
2, 120684, Control_c, 1, 64, 16
2, 120692, Control_c, 1, 64, 16
2, 120700, Note_off_c, 1, 65, 0
2, 120700, Control_c, 1, 64, 32
2, 120712, Note_off_c, 1, 61, 0
2, 120712, Control_c, 1, 64, 48
2, 120728, Note_off_c, 1, 58, 0
2, 120732, Control_c, 1, 64, 64
2, 120748, Control_c, 1, 64, 80
2, 120748, Control_c, 1, 64, 127
2, 120756, Note_off_c, 1, 56, 0
2, 120756, Control_c, 1, 64, 127
2, 120760, Control_c, 1, 64, 127
2, 120776, Control_c, 1, 64, 127
2, 120780, Control_c, 1, 64, 127
2, 120856, Note_on_c, 1, 87, 73
2, 120872, Note_off_c, 1, 85, 0
2, 120872, Note_on_c, 1, 75, 66
2, 120872, Note_on_c, 1, 82, 69
2, 120872, Note_on_c, 1, 85, 70
2, 120876, Note_on_c, 1, 79, 63
2, 120896, Note_off_c, 1, 75, 0
2, 120916, Note_off_c, 1, 79, 0
2, 120940, Note_off_c, 1, 85, 0
2, 120940, Note_off_c, 1, 82, 0
2, 120944, Note_off_c, 1, 87, 0
2, 120952, Control_c, 1, 64, 127
2, 120952, Control_c, 1, 64, 127
2, 120960, Control_c, 1, 64, 127
2, 120960, Control_c, 1, 64, 80
2, 120968, Control_c, 1, 64, 64
2, 120972, Control_c, 1, 64, 32
2, 120972, Control_c, 1, 64, 16
2, 120972, Control_c, 1, 64, 0
2, 120980, Control_c, 1, 64, 0
2, 120980, Control_c, 1, 64, 0
2, 120984, Control_c, 1, 64, 0
2, 120988, Control_c, 1, 64, 0
2, 120988, Note_on_c, 1, 49, 46
2, 121008, Note_on_c, 1, 34, 41
2, 121040, Control_c, 1, 64, 0
2, 121056, Control_c, 1, 64, 0
2, 121060, Control_c, 1, 64, 0
2, 121060, Control_c, 1, 64, 0
2, 121068, Control_c, 1, 64, 16
2, 121076, Control_c, 1, 64, 16
2, 121076, Control_c, 1, 64, 32
2, 121080, Control_c, 1, 64, 48
2, 121088, Control_c, 1, 64, 64
2, 121096, Control_c, 1, 64, 80
2, 121096, Control_c, 1, 64, 127
2, 121104, Control_c, 1, 64, 127
2, 121104, Control_c, 1, 64, 127
2, 121108, Control_c, 1, 64, 127
2, 121116, Note_off_c, 1, 34, 0
2, 121116, Control_c, 1, 64, 127
2, 121144, Note_off_c, 1, 49, 0
2, 121364, Control_c, 1, 64, 127
2, 121368, Control_c, 1, 64, 127
2, 121376, Control_c, 1, 64, 127
2, 121388, Control_c, 1, 64, 80
2, 121396, Control_c, 1, 64, 64
2, 121404, Control_c, 1, 64, 32
2, 121404, Control_c, 1, 64, 16
2, 121404, Control_c, 1, 64, 0
2, 121408, Control_c, 1, 64, 0
2, 121408, Control_c, 1, 64, 0
2, 121416, Control_c, 1, 64, 0
2, 121416, Control_c, 1, 64, 0
2, 121416, Note_on_c, 1, 49, 60
2, 121424, Note_on_c, 1, 58, 60
2, 121424, Note_on_c, 1, 64, 55
2, 121428, Note_on_c, 1, 56, 50
2, 121484, Control_c, 1, 64, 0
2, 121492, Control_c, 1, 64, 0
2, 121500, Control_c, 1, 64, 0
2, 121504, Control_c, 1, 64, 0
2, 121504, Control_c, 1, 64, 16
2, 121512, Control_c, 1, 64, 16
2, 121512, Control_c, 1, 64, 32
2, 121524, Control_c, 1, 64, 48
2, 121524, Control_c, 1, 64, 64
2, 121540, Control_c, 1, 64, 80
2, 121540, Control_c, 1, 64, 127
2, 121540, Control_c, 1, 64, 127
2, 121544, Control_c, 1, 64, 127
2, 121552, Control_c, 1, 64, 127
2, 121560, Control_c, 1, 64, 127
2, 121588, Note_off_c, 1, 56, 0
2, 121592, Note_off_c, 1, 64, 0
2, 121612, Note_off_c, 1, 58, 0
2, 121640, Note_on_c, 1, 87, 65
2, 121676, Note_off_c, 1, 87, 0
2, 121704, Note_on_c, 1, 89, 74
2, 121724, Note_off_c, 1, 49, 0
2, 121756, Control_c, 1, 64, 127
2, 121764, Control_c, 1, 64, 127
2, 121772, Control_c, 1, 64, 127
2, 121776, Note_on_c, 1, 87, 77
2, 121776, Control_c, 1, 64, 80
2, 121784, Control_c, 1, 64, 64
2, 121784, Control_c, 1, 64, 32
2, 121792, Note_off_c, 1, 89, 0
2, 121792, Control_c, 1, 64, 16
2, 121800, Control_c, 1, 64, 0
2, 121800, Control_c, 1, 64, 0
2, 121800, Control_c, 1, 64, 0
2, 121804, Control_c, 1, 64, 0
2, 121804, Control_c, 1, 64, 0
2, 121812, Note_on_c, 1, 63, 67
2, 121812, Note_on_c, 1, 58, 56
2, 121820, Note_on_c, 1, 48, 60
2, 121824, Note_off_c, 1, 87, 0
2, 121840, Note_on_c, 1, 86, 67
2, 121900, Note_off_c, 1, 86, 0
2, 121940, Note_on_c, 1, 87, 70
2, 121988, Note_off_c, 1, 87, 0
2, 122032, Note_on_c, 1, 94, 86
2, 122112, Note_off_c, 1, 94, 0
2, 122124, Note_on_c, 1, 92, 70
2, 122200, Note_off_c, 1, 92, 0
2, 122200, Note_on_c, 1, 87, 59
2, 122264, Note_off_c, 1, 87, 0
2, 122288, Note_on_c, 1, 84, 55
2, 122372, Note_on_c, 1, 82, 60
2, 122376, Note_off_c, 1, 84, 0
2, 122400, Note_off_c, 1, 82, 0
2, 122412, Control_c, 1, 64, 0
2, 122420, Control_c, 1, 64, 0
2, 122420, Control_c, 1, 64, 0
2, 122424, Control_c, 1, 64, 0
2, 122432, Note_on_c, 1, 86, 58
2, 122432, Control_c, 1, 64, 16
2, 122440, Control_c, 1, 64, 16
2, 122440, Control_c, 1, 64, 32
2, 122448, Note_on_c, 1, 84, 30
2, 122452, Note_off_c, 1, 48, 0
2, 122452, Control_c, 1, 64, 48
2, 122468, Control_c, 1, 64, 64
2, 122472, Note_off_c, 1, 63, 0
2, 122476, Note_off_c, 1, 58, 0
2, 122480, Control_c, 1, 64, 80
2, 122488, Note_off_c, 1, 84, 0
2, 122488, Control_c, 1, 64, 127
2, 122496, Note_off_c, 1, 86, 0
2, 122496, Note_on_c, 1, 82, 60
2, 122496, Control_c, 1, 64, 127
2, 122500, Control_c, 1, 64, 127
2, 122536, Control_c, 1, 64, 127
2, 122536, Control_c, 1, 64, 127
2, 122540, Control_c, 1, 64, 80
2, 122544, Control_c, 1, 64, 64
2, 122548, Control_c, 1, 64, 48
2, 122548, Control_c, 1, 64, 32
2, 122556, Control_c, 1, 64, 16
2, 122564, Control_c, 1, 64, 16
2, 122568, Note_on_c, 1, 58, 55
2, 122568, Control_c, 1, 64, 0
2, 122576, Control_c, 1, 64, 0
2, 122576, Note_on_c, 1, 48, 65
2, 122584, Note_on_c, 1, 63, 63
2, 122584, Control_c, 1, 64, 0
2, 122584, Control_c, 1, 64, 0
2, 122588, Note_on_c, 1, 81, 60
2, 122592, Control_c, 1, 64, 0
2, 122596, Note_off_c, 1, 82, 0
2, 122636, Note_off_c, 1, 81, 0
2, 122680, Note_on_c, 1, 80, 72
2, 122732, Control_c, 1, 64, 0
2, 122740, Control_c, 1, 64, 0
2, 122748, Control_c, 1, 64, 0
2, 122752, Control_c, 1, 64, 0
2, 122752, Control_c, 1, 64, 16
2, 122760, Note_off_c, 1, 80, 0
2, 122760, Control_c, 1, 64, 16
2, 122768, Note_on_c, 1, 79, 64
2, 122768, Control_c, 1, 64, 32
2, 122772, Control_c, 1, 64, 48
2, 122780, Control_c, 1, 64, 64
2, 122796, Note_off_c, 1, 63, 0
2, 122796, Control_c, 1, 64, 80
2, 122796, Control_c, 1, 64, 127
2, 122800, Control_c, 1, 64, 127
2, 122808, Note_off_c, 1, 58, 0
2, 122808, Control_c, 1, 64, 127
2, 122816, Control_c, 1, 64, 127
2, 122820, Control_c, 1, 64, 127
2, 122836, Note_off_c, 1, 48, 0
2, 122856, Note_off_c, 1, 79, 0
2, 122864, Note_on_c, 1, 91, 92
2, 122904, Control_c, 1, 64, 127
2, 122908, Control_c, 1, 64, 127
2, 122916, Control_c, 1, 64, 127
2, 122924, Control_c, 1, 64, 80
2, 122924, Control_c, 1, 64, 48
2, 122932, Control_c, 1, 64, 32
2, 122932, Control_c, 1, 64, 16
2, 122932, Control_c, 1, 64, 0
2, 122936, Control_c, 1, 64, 0
2, 122940, Note_on_c, 1, 56, 61
2, 122944, Control_c, 1, 64, 0
2, 122948, Note_on_c, 1, 62, 63
2, 122948, Note_on_c, 1, 47, 61
2, 122952, Control_c, 1, 64, 0
2, 122960, Note_off_c, 1, 91, 0
2, 122960, Control_c, 1, 64, 0
2, 122964, Note_on_c, 1, 79, 54
2, 123028, Note_off_c, 1, 79, 0
2, 123068, Note_on_c, 1, 78, 77
2, 123120, Note_off_c, 1, 78, 0
2, 123148, Control_c, 1, 64, 0
2, 123148, Control_c, 1, 64, 0
2, 123156, Control_c, 1, 64, 0
2, 123156, Control_c, 1, 64, 16
2, 123164, Note_on_c, 1, 90, 78
2, 123164, Control_c, 1, 64, 16
2, 123164, Control_c, 1, 64, 32
2, 123168, Control_c, 1, 64, 48
2, 123176, Control_c, 1, 64, 64
2, 123180, Control_c, 1, 64, 80
2, 123184, Control_c, 1, 64, 127
2, 123184, Control_c, 1, 64, 127
2, 123192, Note_off_c, 1, 62, 0
2, 123192, Control_c, 1, 64, 127
2, 123192, Control_c, 1, 64, 127
2, 123196, Control_c, 1, 64, 127
2, 123204, Note_off_c, 1, 47, 0
2, 123252, Note_off_c, 1, 90, 0
2, 123252, Note_off_c, 1, 56, 0
2, 123264, Note_on_c, 1, 78, 66
2, 123284, Control_c, 1, 64, 127
2, 123284, Control_c, 1, 64, 127
2, 123300, Control_c, 1, 64, 127
2, 123300, Control_c, 1, 64, 80
2, 123304, Control_c, 1, 64, 48
2, 123308, Control_c, 1, 64, 32
2, 123312, Control_c, 1, 64, 16
2, 123312, Control_c, 1, 64, 0
2, 123316, Control_c, 1, 64, 0
2, 123320, Control_c, 1, 64, 0
2, 123320, Control_c, 1, 64, 0
2, 123328, Control_c, 1, 64, 0
2, 123328, Note_on_c, 1, 56, 46
2, 123332, Note_on_c, 1, 46, 56
2, 123332, Note_on_c, 1, 61, 55
2, 123340, Note_off_c, 1, 78, 0
2, 123356, Note_on_c, 1, 77, 66
2, 123400, Control_c, 1, 64, 0
2, 123416, Control_c, 1, 64, 0
2, 123416, Control_c, 1, 64, 0
2, 123420, Control_c, 1, 64, 0
2, 123428, Control_c, 1, 64, 16
2, 123428, Control_c, 1, 64, 16
2, 123436, Control_c, 1, 64, 32
2, 123436, Control_c, 1, 64, 48
2, 123444, Control_c, 1, 64, 64
2, 123448, Control_c, 1, 64, 80
2, 123452, Control_c, 1, 64, 127
2, 123456, Control_c, 1, 64, 127
2, 123456, Control_c, 1, 64, 127
2, 123464, Note_off_c, 1, 46, 0
2, 123464, Note_on_c, 1, 79, 81
2, 123468, Control_c, 1, 64, 127
2, 123468, Control_c, 1, 64, 127
2, 123476, Note_off_c, 1, 56, 0
2, 123504, Note_off_c, 1, 61, 0
2, 123552, Note_on_c, 1, 80, 72
2, 123592, Note_off_c, 1, 77, 0
2, 123632, Note_off_c, 1, 79, 0
2, 123640, Note_on_c, 1, 82, 70
2, 123660, Note_off_c, 1, 80, 0
2, 123688, Note_off_c, 1, 82, 0
2, 123716, Note_on_c, 1, 65, 67
2, 123716, Note_on_c, 1, 56, 69
2, 123724, Note_on_c, 1, 58, 62
2, 123724, Note_on_c, 1, 60, 61
2, 123724, Note_on_c, 1, 61, 68
2, 123744, Note_on_c, 1, 84, 77
2, 123756, Control_c, 1, 64, 127
2, 123764, Control_c, 1, 64, 127
2, 123768, Control_c, 1, 64, 127
2, 123772, Control_c, 1, 64, 80
2, 123776, Control_c, 1, 64, 64
2, 123784, Control_c, 1, 64, 48
2, 123784, Control_c, 1, 64, 32
2, 123792, Control_c, 1, 64, 16
2, 123792, Control_c, 1, 64, 0
2, 123796, Control_c, 1, 64, 0
2, 123800, Note_on_c, 1, 85, 71
2, 123800, Control_c, 1, 64, 0
2, 123804, Control_c, 1, 64, 0
2, 123808, Note_off_c, 1, 84, 0
2, 123812, Control_c, 1, 64, 0
2, 123852, Note_on_c, 1, 86, 79
2, 123860, Note_off_c, 1, 60, 0
2, 123860, Note_off_c, 1, 65, 0
2, 123864, Note_off_c, 1, 61, 0
2, 123872, Note_off_c, 1, 58, 0
2, 123884, Control_c, 1, 64, 0
2, 123888, Note_off_c, 1, 56, 0
2, 123892, Control_c, 1, 64, 0
2, 123896, Note_off_c, 1, 85, 0
2, 123900, Control_c, 1, 64, 0
2, 123900, Control_c, 1, 64, 0
2, 123908, Control_c, 1, 64, 16
2, 123908, Control_c, 1, 64, 32
2, 123912, Control_c, 1, 64, 48
2, 123912, Control_c, 1, 64, 64
2, 123920, Control_c, 1, 64, 80
2, 123924, Note_on_c, 1, 87, 83
2, 123928, Control_c, 1, 64, 127
2, 123928, Control_c, 1, 64, 127
2, 123932, Control_c, 1, 64, 127
2, 123936, Control_c, 1, 64, 127
2, 123940, Note_off_c, 1, 86, 0
2, 123940, Control_c, 1, 64, 127
2, 123988, Note_on_c, 1, 86, 84
2, 124024, Control_c, 1, 67, 0
2, 124044, Note_off_c, 1, 87, 0
2, 124048, Control_c, 1, 64, 127
2, 124056, Note_on_c, 1, 85, 78
2, 124056, Control_c, 1, 64, 127
2, 124064, Control_c, 1, 64, 127
2, 124064, Control_c, 1, 64, 80
2, 124072, Control_c, 1, 64, 64
2, 124072, Control_c, 1, 64, 32
2, 124076, Control_c, 1, 64, 16
2, 124084, Control_c, 1, 64, 0
2, 124092, Control_c, 1, 64, 0
2, 124096, Control_c, 1, 64, 0
2, 124104, Note_off_c, 1, 86, 0
2, 124104, Control_c, 1, 64, 0
2, 124112, Control_c, 1, 64, 0
2, 124112, Control_c, 1, 67, 127
2, 124140, Note_on_c, 1, 39, 68
2, 124140, Note_on_c, 1, 53, 62
2, 124144, Note_on_c, 1, 49, 66
2, 124144, Note_on_c, 1, 84, 65
2, 124152, Note_off_c, 1, 85, 0
2, 124160, Note_off_c, 1, 84, 0
2, 124160, Control_c, 1, 64, 0
2, 124164, Note_off_c, 1, 39, 0
2, 124168, Control_c, 1, 64, 0
2, 124172, Control_c, 1, 64, 0
2, 124180, Note_off_c, 1, 49, 0
2, 124180, Control_c, 1, 64, 0
2, 124180, Control_c, 1, 64, 16
2, 124188, Control_c, 1, 64, 16
2, 124188, Control_c, 1, 64, 32
2, 124192, Control_c, 1, 64, 48
2, 124200, Control_c, 1, 64, 64
2, 124208, Note_off_c, 1, 53, 0
2, 124212, Control_c, 1, 64, 80
2, 124212, Control_c, 1, 64, 127
2, 124220, Control_c, 1, 64, 127
2, 124220, Control_c, 1, 64, 127
2, 124228, Control_c, 1, 64, 127
2, 124232, Control_c, 1, 64, 127
2, 124336, Control_c, 1, 64, 127
2, 124344, Control_c, 1, 64, 127
2, 124344, Control_c, 1, 64, 127
2, 124348, Control_c, 1, 64, 80
2, 124352, Control_c, 1, 64, 64
2, 124356, Control_c, 1, 64, 48
2, 124356, Control_c, 1, 64, 16
2, 124364, Control_c, 1, 64, 16
2, 124364, Control_c, 1, 64, 0
2, 124372, Control_c, 1, 64, 0
2, 124372, Control_c, 1, 64, 0
2, 124372, Control_c, 1, 64, 0
2, 124376, Control_c, 1, 64, 0
2, 124384, Note_on_c, 1, 55, 67
2, 124392, Note_on_c, 1, 61, 66
2, 124392, Note_on_c, 1, 75, 73
2, 124392, Note_on_c, 1, 82, 76
2, 124396, Note_on_c, 1, 79, 73
2, 124400, Note_on_c, 1, 87, 70
2, 124404, Note_on_c, 1, 65, 62
2, 124404, Note_on_c, 1, 58, 63
2, 124412, Control_c, 1, 64, 0
2, 124424, Control_c, 1, 64, 0
2, 124424, Control_c, 1, 64, 0
2, 124432, Control_c, 1, 64, 0
2, 124432, Control_c, 1, 64, 16
2, 124440, Control_c, 1, 64, 32
2, 124444, Note_off_c, 1, 75, 0
2, 124444, Control_c, 1, 64, 48
2, 124448, Control_c, 1, 64, 64
2, 124452, Control_c, 1, 64, 127
2, 124460, Control_c, 1, 64, 127
2, 124460, Control_c, 1, 64, 127
2, 124464, Control_c, 1, 64, 127
2, 124464, Control_c, 1, 64, 127
2, 124488, Note_off_c, 1, 79, 0
2, 124512, Note_off_c, 1, 82, 0
2, 124536, Note_off_c, 1, 87, 0
2, 124548, Note_off_c, 1, 65, 0
2, 124584, Note_off_c, 1, 61, 0
2, 124588, Note_off_c, 1, 58, 0
2, 124596, Note_off_c, 1, 55, 0
2, 124780, Control_c, 1, 64, 127
2, 124788, Control_c, 1, 64, 127
2, 124788, Control_c, 1, 64, 127
2, 124792, Control_c, 1, 64, 80
2, 124800, Control_c, 1, 64, 64
2, 124808, Control_c, 1, 64, 48
2, 124808, Control_c, 1, 64, 16
2, 124812, Control_c, 1, 64, 0
2, 124816, Control_c, 1, 64, 0
2, 124820, Note_on_c, 1, 54, 71
2, 124828, Note_on_c, 1, 39, 75
2, 124828, Control_c, 1, 64, 0
2, 124836, Control_c, 1, 64, 0
2, 124840, Note_on_c, 1, 90, 79
2, 124840, Note_on_c, 1, 94, 78
2, 124840, Note_on_c, 1, 85, 78
2, 124848, Control_c, 1, 64, 0
2, 124848, Note_on_c, 1, 82, 68
2, 124856, Note_off_c, 1, 39, 0
2, 124876, Control_c, 1, 64, 0
2, 124880, Control_c, 1, 64, 0
2, 124888, Note_off_c, 1, 54, 0
2, 124896, Control_c, 1, 64, 0
2, 124896, Control_c, 1, 64, 16
2, 124896, Control_c, 1, 64, 16
2, 124904, Control_c, 1, 64, 32
2, 124904, Control_c, 1, 64, 48
2, 124908, Control_c, 1, 64, 64
2, 124916, Control_c, 1, 64, 80
2, 124916, Control_c, 1, 64, 127
2, 124924, Control_c, 1, 64, 127
2, 124924, Control_c, 1, 64, 127
2, 124924, Control_c, 1, 64, 127
2, 124928, Control_c, 1, 64, 127
2, 124972, Note_off_c, 1, 94, 0
2, 125000, Note_off_c, 1, 90, 0
2, 125004, Note_off_c, 1, 82, 0
2, 125008, Note_off_c, 1, 85, 0
2, 125060, Control_c, 1, 64, 127
2, 125068, Control_c, 1, 64, 127
2, 125072, Control_c, 1, 64, 127
2, 125072, Control_c, 1, 64, 127
2, 125080, Control_c, 1, 64, 80
2, 125088, Control_c, 1, 64, 64
2, 125088, Note_on_c, 1, 63, 71
2, 125092, Control_c, 1, 64, 48
2, 125096, Note_on_c, 1, 66, 69
2, 125100, Control_c, 1, 64, 32
2, 125100, Note_on_c, 1, 58, 64
2, 125104, Note_on_c, 1, 61, 67
2, 125116, Note_off_c, 1, 66, 0
2, 125128, Note_off_c, 1, 63, 0
2, 125136, Note_off_c, 1, 61, 0
2, 125136, Control_c, 1, 64, 48
2, 125140, Control_c, 1, 64, 64
2, 125148, Control_c, 1, 64, 80
2, 125156, Note_off_c, 1, 58, 0
2, 125156, Control_c, 1, 64, 127
2, 125156, Control_c, 1, 64, 127
2, 125160, Control_c, 1, 64, 127
2, 125168, Control_c, 1, 64, 127
2, 125168, Control_c, 1, 64, 127
2, 125300, Control_c, 1, 64, 127
2, 125304, Control_c, 1, 64, 127
2, 125304, Control_c, 1, 64, 127
2, 125312, Control_c, 1, 64, 127
2, 125312, Control_c, 1, 64, 80
2, 125320, Control_c, 1, 64, 64
2, 125320, Control_c, 1, 64, 48
2, 125324, Control_c, 1, 64, 32
2, 125324, Control_c, 1, 64, 16
2, 125332, Control_c, 1, 64, 0
2, 125332, Control_c, 1, 64, 0
2, 125348, Note_on_c, 1, 32, 74
2, 125360, Control_c, 1, 64, 0
2, 125368, Control_c, 1, 64, 16
2, 125372, Control_c, 1, 64, 16
2, 125372, Control_c, 1, 64, 32
2, 125380, Control_c, 1, 64, 48
2, 125380, Control_c, 1, 64, 64
2, 125388, Control_c, 1, 64, 80
2, 125392, Note_off_c, 1, 32, 0
2, 125396, Control_c, 1, 64, 127
2, 125396, Control_c, 1, 64, 127
2, 125400, Control_c, 1, 64, 127
2, 125400, Control_c, 1, 64, 127
2, 125408, Control_c, 1, 64, 127
2, 125544, Control_c, 1, 67, 0
2, 125624, Note_on_c, 1, 60, 45
2, 125640, Note_on_c, 1, 77, 66
2, 125640, Note_on_c, 1, 68, 71
2, 125648, Note_on_c, 1, 72, 70
2, 125648, Note_on_c, 1, 80, 75
2, 125652, Note_on_c, 1, 54, 62
2, 125652, Note_on_c, 1, 64, 51
2, 125668, Control_c, 1, 64, 127
2, 125672, Control_c, 1, 64, 127
2, 125676, Note_off_c, 1, 64, 0
2, 125676, Control_c, 1, 64, 127
2, 125680, Control_c, 1, 64, 80
2, 125688, Control_c, 1, 64, 64
2, 125688, Control_c, 1, 64, 32
2, 125692, Control_c, 1, 64, 16
2, 125696, Control_c, 1, 64, 0
2, 125700, Control_c, 1, 64, 0
2, 125700, Control_c, 1, 64, 0
2, 125704, Control_c, 1, 64, 0
2, 125708, Control_c, 1, 64, 0
2, 125824, Control_c, 1, 64, 0
2, 125832, Control_c, 1, 64, 0
2, 125836, Control_c, 1, 64, 0
2, 125836, Control_c, 1, 64, 0
2, 125840, Control_c, 1, 64, 32
2, 125844, Control_c, 1, 64, 48
2, 125852, Control_c, 1, 64, 80
2, 125852, Control_c, 1, 64, 127
2, 125856, Control_c, 1, 64, 127
2, 125856, Control_c, 1, 64, 127
2, 125860, Control_c, 1, 64, 127
2, 125904, Note_off_c, 1, 77, 0
2, 125920, Note_off_c, 1, 72, 0
2, 125920, Note_off_c, 1, 68, 0
2, 125932, Note_off_c, 1, 80, 0
2, 126068, Note_on_c, 1, 72, 70
2, 126096, Control_c, 1, 64, 127
2, 126104, Control_c, 1, 64, 127
2, 126104, Control_c, 1, 64, 127
2, 126112, Control_c, 1, 64, 80
2, 126112, Control_c, 1, 64, 48
2, 126116, Note_off_c, 1, 72, 0
2, 126116, Control_c, 1, 64, 32
2, 126116, Control_c, 1, 64, 16
2, 126124, Control_c, 1, 64, 0
2, 126124, Control_c, 1, 64, 0
2, 126132, Control_c, 1, 64, 0
2, 126132, Control_c, 1, 64, 0
2, 126132, Note_on_c, 1, 73, 78
2, 126136, Control_c, 1, 64, 0
2, 126192, Note_on_c, 1, 72, 73
2, 126212, Note_off_c, 1, 73, 0
2, 126240, Note_on_c, 1, 71, 64
2, 126272, Note_off_c, 1, 72, 0
2, 126276, Control_c, 1, 64, 0
2, 126276, Control_c, 1, 64, 0
2, 126280, Control_c, 1, 64, 0
2, 126288, Control_c, 1, 64, 0
2, 126288, Control_c, 1, 64, 16
2, 126288, Control_c, 1, 64, 16
2, 126296, Control_c, 1, 64, 32
2, 126296, Control_c, 1, 64, 48
2, 126300, Control_c, 1, 64, 64
2, 126316, Control_c, 1, 64, 80
2, 126316, Control_c, 1, 64, 127
2, 126316, Control_c, 1, 64, 127
2, 126320, Control_c, 1, 64, 127
2, 126324, Control_c, 1, 64, 127
2, 126328, Control_c, 1, 64, 127
2, 126336, Note_off_c, 1, 71, 0
2, 126372, Note_off_c, 1, 60, 0
2, 126376, Note_off_c, 1, 54, 0
2, 126376, Control_c, 1, 67, 127
2, 126420, Note_on_c, 1, 72, 70
2, 126464, Note_off_c, 1, 72, 0
2, 126560, Control_c, 1, 64, 127
2, 126560, Control_c, 1, 64, 127
2, 126564, Control_c, 1, 64, 127
2, 126568, Control_c, 1, 64, 80
2, 126572, Control_c, 1, 64, 48
2, 126576, Control_c, 1, 64, 32
2, 126576, Control_c, 1, 64, 16
2, 126580, Control_c, 1, 64, 0
2, 126588, Control_c, 1, 64, 0
2, 126588, Control_c, 1, 64, 0
2, 126588, Control_c, 1, 64, 0
2, 126596, Control_c, 1, 64, 0
2, 126596, Note_on_c, 1, 49, 69
2, 126600, Note_on_c, 1, 72, 44
2, 126608, Note_on_c, 1, 65, 60
2, 126616, Note_on_c, 1, 68, 69
2, 126616, Note_on_c, 1, 75, 61
2, 126696, Control_c, 1, 64, 0
2, 126696, Control_c, 1, 64, 0
2, 126712, Control_c, 1, 64, 0
2, 126712, Control_c, 1, 64, 0
2, 126712, Control_c, 1, 64, 16
2, 126716, Control_c, 1, 64, 16
2, 126720, Control_c, 1, 64, 32
2, 126724, Control_c, 1, 64, 48
2, 126724, Control_c, 1, 64, 64
2, 126740, Control_c, 1, 64, 80
2, 126740, Control_c, 1, 64, 127
2, 126744, Control_c, 1, 64, 127
2, 126744, Control_c, 1, 64, 127
2, 126752, Control_c, 1, 64, 127
2, 126752, Control_c, 1, 64, 127
2, 126812, Note_on_c, 1, 60, 63
2, 126868, Control_c, 1, 64, 127
2, 126876, Control_c, 1, 64, 127
2, 126876, Control_c, 1, 64, 127
2, 126880, Control_c, 1, 64, 80
2, 126888, Control_c, 1, 64, 64
2, 126888, Control_c, 1, 64, 32
2, 126896, Control_c, 1, 64, 16
2, 126896, Control_c, 1, 64, 0
2, 126896, Control_c, 1, 64, 0
2, 126900, Control_c, 1, 64, 0
2, 126904, Control_c, 1, 64, 0
2, 126908, Control_c, 1, 64, 0
2, 126944, Control_c, 1, 64, 0
2, 126948, Note_off_c, 1, 60, 0
2, 126956, Control_c, 1, 64, 0
2, 126956, Control_c, 1, 64, 0
2, 126964, Control_c, 1, 64, 0
2, 126968, Control_c, 1, 64, 16
2, 126972, Control_c, 1, 64, 16
2, 126972, Control_c, 1, 64, 32
2, 126976, Control_c, 1, 64, 48
2, 126984, Control_c, 1, 64, 64
2, 126984, Control_c, 1, 64, 80
2, 126992, Control_c, 1, 64, 127
2, 126992, Control_c, 1, 64, 127
2, 126992, Control_c, 1, 64, 127
2, 126996, Control_c, 1, 64, 127
2, 127004, Note_on_c, 1, 59, 63
2, 127004, Control_c, 1, 64, 127
2, 127024, Note_off_c, 1, 65, 0
2, 127044, Note_off_c, 1, 72, 0
2, 127060, Note_off_c, 1, 75, 0
2, 127064, Note_off_c, 1, 68, 0
2, 127120, Note_off_c, 1, 59, 0
2, 127128, Note_off_c, 1, 49, 0
2, 127248, Note_on_c, 1, 49, 50
2, 127256, Control_c, 1, 64, 127
2, 127256, Note_on_c, 1, 68, 67
2, 127260, Note_on_c, 1, 58, 54
2, 127264, Control_c, 1, 64, 127
2, 127264, Control_c, 1, 64, 127
2, 127272, Note_on_c, 1, 64, 55
2, 127272, Control_c, 1, 64, 80
2, 127276, Note_on_c, 1, 42, 41
2, 127280, Control_c, 1, 64, 48
2, 127284, Control_c, 1, 64, 16
2, 127284, Note_on_c, 1, 73, 62
2, 127292, Control_c, 1, 64, 0
2, 127292, Control_c, 1, 64, 0
2, 127292, Control_c, 1, 64, 0
2, 127296, Control_c, 1, 64, 0
2, 127420, Control_c, 1, 64, 0
2, 127428, Control_c, 1, 64, 0
2, 127428, Control_c, 1, 64, 0
2, 127432, Control_c, 1, 64, 0
2, 127436, Control_c, 1, 64, 16
2, 127440, Control_c, 1, 64, 16
2, 127440, Control_c, 1, 64, 32
2, 127448, Control_c, 1, 64, 48
2, 127448, Control_c, 1, 64, 64
2, 127456, Control_c, 1, 64, 80
2, 127460, Control_c, 1, 64, 127
2, 127460, Control_c, 1, 64, 127
2, 127468, Control_c, 1, 64, 127
2, 127468, Control_c, 1, 64, 127
2, 127476, Control_c, 1, 64, 127
2, 127680, Note_off_c, 1, 73, 0
2, 127692, Note_off_c, 1, 68, 0
2, 127884, Note_off_c, 1, 42, 0
2, 127884, Note_on_c, 1, 68, 63
2, 127900, Note_off_c, 1, 49, 0
2, 127940, Note_off_c, 1, 68, 0
2, 127988, Note_on_c, 1, 70, 74
2, 128056, Note_off_c, 1, 58, 0
2, 128060, Note_off_c, 1, 64, 0
2, 128068, Control_c, 1, 64, 127
2, 128068, Control_c, 1, 64, 127
2, 128076, Control_c, 1, 64, 127
2, 128076, Control_c, 1, 64, 80
2, 128084, Control_c, 1, 64, 48
2, 128088, Note_off_c, 1, 70, 0
2, 128088, Control_c, 1, 64, 16
2, 128088, Control_c, 1, 64, 0
2, 128096, Control_c, 1, 64, 0
2, 128096, Control_c, 1, 64, 0
2, 128104, Control_c, 1, 64, 0
2, 128132, Note_on_c, 1, 68, 57
2, 128136, Note_on_c, 1, 72, 61
2, 128136, Note_on_c, 1, 64, 56
2, 128144, Note_on_c, 1, 58, 55
2, 128144, Note_on_c, 1, 48, 52
2, 128320, Note_off_c, 1, 72, 0
2, 128396, Note_on_c, 1, 73, 75
2, 128492, Note_off_c, 1, 73, 0
2, 128504, Control_c, 1, 64, 0
2, 128512, Control_c, 1, 64, 0
2, 128524, Control_c, 1, 64, 0
2, 128532, Control_c, 1, 64, 0
2, 128540, Control_c, 1, 64, 16
2, 128552, Note_on_c, 1, 72, 52
2, 128560, Control_c, 1, 64, 16
2, 128568, Note_off_c, 1, 68, 0
2, 128572, Control_c, 1, 64, 32
2, 128580, Note_off_c, 1, 48, 0
2, 128588, Control_c, 1, 64, 48
2, 128592, Control_c, 1, 64, 64
2, 128600, Note_off_c, 1, 72, 0
2, 128604, Control_c, 1, 64, 80
2, 128608, Note_off_c, 1, 64, 0
2, 128608, Control_c, 1, 64, 127
2, 128616, Note_off_c, 1, 58, 0
2, 128616, Control_c, 1, 64, 127
2, 128620, Control_c, 1, 64, 127
2, 128620, Control_c, 1, 64, 127
2, 128628, Control_c, 1, 64, 127
2, 128804, Control_c, 1, 64, 127
2, 128812, Note_on_c, 1, 72, 62
2, 128812, Note_on_c, 1, 63, 55
2, 128812, Note_on_c, 1, 67, 60
2, 128820, Note_on_c, 1, 57, 57
2, 128828, Control_c, 1, 64, 127
2, 128828, Control_c, 1, 64, 127
2, 128828, Control_c, 1, 64, 80
2, 128832, Note_on_c, 1, 41, 54
2, 128836, Control_c, 1, 64, 64
2, 128840, Control_c, 1, 64, 32
2, 128840, Control_c, 1, 64, 16
2, 128848, Control_c, 1, 64, 0
2, 128852, Control_c, 1, 64, 0
2, 128852, Control_c, 1, 64, 0
2, 128856, Control_c, 1, 64, 0
2, 128860, Control_c, 1, 64, 0
2, 128984, Control_c, 1, 64, 0
2, 128988, Control_c, 1, 64, 0
2, 128996, Control_c, 1, 64, 0
2, 129008, Control_c, 1, 64, 0
2, 129024, Control_c, 1, 64, 16
2, 129056, Control_c, 1, 64, 16
2, 129072, Control_c, 1, 64, 32
2, 129080, Control_c, 1, 64, 48
2, 129092, Control_c, 1, 64, 64
2, 129104, Control_c, 1, 64, 80
2, 129108, Control_c, 1, 64, 127
2, 129112, Control_c, 1, 64, 127
2, 129112, Control_c, 1, 64, 127
2, 129128, Control_c, 1, 64, 127
2, 129132, Control_c, 1, 64, 127
2, 129228, Note_on_c, 1, 73, 65
2, 129228, Control_c, 1, 64, 127
2, 129236, Control_c, 1, 64, 127
2, 129236, Control_c, 1, 64, 127
2, 129236, Control_c, 1, 64, 127
2, 129240, Control_c, 1, 64, 80
2, 129248, Control_c, 1, 64, 48
2, 129248, Control_c, 1, 64, 32
2, 129256, Control_c, 1, 64, 16
2, 129256, Control_c, 1, 64, 0
2, 129264, Note_off_c, 1, 72, 0
2, 129264, Control_c, 1, 64, 0
2, 129264, Control_c, 1, 64, 0
2, 129268, Control_c, 1, 64, 0
2, 129268, Control_c, 1, 64, 0
2, 129304, Control_c, 1, 64, 0
2, 129324, Control_c, 1, 64, 0
2, 129324, Control_c, 1, 64, 0
2, 129332, Note_off_c, 1, 73, 0
2, 129332, Control_c, 1, 64, 0
2, 129332, Control_c, 1, 64, 16
2, 129336, Control_c, 1, 64, 16
2, 129336, Control_c, 1, 64, 32
2, 129344, Control_c, 1, 64, 48
2, 129352, Control_c, 1, 64, 64
2, 129352, Control_c, 1, 64, 80
2, 129360, Control_c, 1, 64, 127
2, 129360, Control_c, 1, 64, 127
2, 129360, Control_c, 1, 64, 127
2, 129364, Control_c, 1, 64, 127
2, 129372, Control_c, 1, 64, 127
2, 129380, Note_on_c, 1, 72, 58
2, 129392, Note_off_c, 1, 41, 0
2, 129432, Note_off_c, 1, 67, 0
2, 129468, Note_off_c, 1, 72, 0
2, 129468, Note_off_c, 1, 63, 0
2, 129612, Note_off_c, 1, 57, 0
2, 129632, Note_on_c, 1, 72, 54
2, 129632, Note_on_c, 1, 56, 52
2, 129644, Note_on_c, 1, 46, 47
2, 129644, Note_on_c, 1, 66, 50
2, 129652, Note_on_c, 1, 62, 47
2, 129652, Control_c, 1, 64, 127
2, 129652, Control_c, 1, 64, 127
2, 129660, Control_c, 1, 64, 127
2, 129660, Control_c, 1, 64, 80
2, 129664, Control_c, 1, 64, 64
2, 129664, Control_c, 1, 64, 32
2, 129672, Control_c, 1, 64, 16
2, 129672, Control_c, 1, 64, 0
2, 129672, Control_c, 1, 64, 0
2, 129680, Control_c, 1, 64, 0
2, 129684, Control_c, 1, 64, 0
2, 129688, Control_c, 1, 64, 0
2, 129776, Control_c, 1, 64, 0
2, 129780, Control_c, 1, 64, 0
2, 129788, Control_c, 1, 64, 0
2, 129796, Control_c, 1, 64, 0
2, 129800, Control_c, 1, 64, 16
2, 129808, Control_c, 1, 64, 16
2, 129820, Control_c, 1, 64, 32
2, 129856, Control_c, 1, 64, 48
2, 129868, Control_c, 1, 64, 64
2, 129884, Control_c, 1, 64, 80
2, 129884, Control_c, 1, 64, 127
2, 129892, Control_c, 1, 64, 127
2, 129896, Control_c, 1, 64, 127
2, 129904, Control_c, 1, 64, 127
2, 129912, Control_c, 1, 64, 127
2, 130008, Note_off_c, 1, 72, 0
2, 130032, Note_on_c, 1, 73, 59
2, 130144, Note_off_c, 1, 73, 0
2, 130144, Note_off_c, 1, 56, 0
2, 130148, Note_off_c, 1, 46, 0
2, 130184, Note_on_c, 1, 72, 44
2, 130192, Note_off_c, 1, 66, 0
2, 130220, Note_off_c, 1, 62, 0
2, 130356, Note_off_c, 1, 72, 0
2, 130376, Control_c, 1, 64, 127
2, 130380, Control_c, 1, 64, 127
2, 130384, Control_c, 1, 64, 127
2, 130388, Control_c, 1, 64, 80
2, 130396, Control_c, 1, 64, 48
2, 130396, Control_c, 1, 64, 32
2, 130400, Control_c, 1, 64, 16
2, 130404, Control_c, 1, 64, 0
2, 130404, Control_c, 1, 64, 0
2, 130408, Control_c, 1, 64, 0
2, 130408, Control_c, 1, 64, 0
2, 130416, Control_c, 1, 64, 0
2, 130424, Note_on_c, 1, 39, 55
2, 130428, Note_on_c, 1, 72, 59
2, 130432, Note_on_c, 1, 55, 54
2, 130436, Note_on_c, 1, 65, 65
2, 130436, Note_on_c, 1, 61, 70
2, 130448, Control_c, 1, 64, 0
2, 130456, Control_c, 1, 64, 0
2, 130464, Control_c, 1, 64, 0
2, 130468, Control_c, 1, 64, 0
2, 130472, Control_c, 1, 64, 16
2, 130476, Control_c, 1, 64, 16
2, 130476, Control_c, 1, 64, 32
2, 130480, Control_c, 1, 64, 48
2, 130484, Control_c, 1, 64, 64
2, 130492, Control_c, 1, 64, 80
2, 130492, Control_c, 1, 64, 127
2, 130496, Control_c, 1, 64, 127
2, 130496, Control_c, 1, 64, 127
2, 130500, Control_c, 1, 64, 127
2, 130504, Control_c, 1, 64, 127
2, 130508, Note_off_c, 1, 61, 0
2, 130520, Note_off_c, 1, 65, 0
2, 130544, Note_off_c, 1, 72, 0
2, 130580, Note_off_c, 1, 39, 0
2, 130688, Note_on_c, 1, 73, 60
2, 130724, Note_off_c, 1, 55, 0
2, 130744, Note_off_c, 1, 73, 0
2, 130804, Note_on_c, 1, 74, 74
2, 130852, Control_c, 1, 67, 0
2, 130896, Note_off_c, 1, 74, 0
2, 130912, Control_c, 1, 67, 127
2, 130948, Note_on_c, 1, 75, 74
2, 130960, Control_c, 1, 64, 127
2, 130968, Control_c, 1, 64, 127
2, 130976, Control_c, 1, 64, 127
2, 130980, Control_c, 1, 64, 127
2, 130984, Control_c, 1, 64, 80
2, 130988, Control_c, 1, 64, 64
2, 130996, Control_c, 1, 64, 48
2, 131028, Control_c, 1, 64, 64
2, 131044, Control_c, 1, 64, 80
2, 131044, Control_c, 1, 64, 127
2, 131044, Control_c, 1, 64, 127
2, 131052, Control_c, 1, 64, 127
2, 131056, Control_c, 1, 64, 127
2, 131064, Control_c, 1, 64, 127
2, 131152, Note_off_c, 1, 75, 0
2, 131180, Note_on_c, 1, 77, 75
2, 131248, Note_off_c, 1, 77, 0
2, 131344, Control_c, 1, 64, 127
2, 131344, Control_c, 1, 64, 127
2, 131352, Control_c, 1, 64, 127
2, 131352, Control_c, 1, 64, 80
2, 131356, Note_on_c, 1, 72, 73
2, 131364, Control_c, 1, 64, 64
2, 131364, Control_c, 1, 64, 48
2, 131372, Control_c, 1, 64, 32
2, 131372, Control_c, 1, 64, 16
2, 131376, Control_c, 1, 64, 0
2, 131380, Control_c, 1, 64, 0
2, 131380, Control_c, 1, 64, 0
2, 131384, Control_c, 1, 64, 0
2, 131384, Control_c, 1, 64, 0
2, 131468, Control_c, 1, 64, 0
2, 131472, Control_c, 1, 64, 0
2, 131480, Control_c, 1, 64, 0
2, 131488, Control_c, 1, 64, 0
2, 131492, Control_c, 1, 64, 16
2, 131500, Control_c, 1, 64, 16
2, 131500, Control_c, 1, 64, 32
2, 131508, Control_c, 1, 64, 48
2, 131520, Control_c, 1, 64, 64
2, 131536, Note_off_c, 1, 72, 0
2, 131536, Control_c, 1, 64, 80
2, 131540, Control_c, 1, 64, 127
2, 131544, Control_c, 1, 64, 127
2, 131548, Control_c, 1, 64, 127
2, 131576, Note_on_c, 1, 60, 69
2, 131584, Note_on_c, 1, 75, 85
2, 131584, Note_on_c, 1, 54, 64
2, 131588, Control_c, 1, 64, 127
2, 131596, Control_c, 1, 64, 80
2, 131600, Control_c, 1, 64, 64
2, 131604, Control_c, 1, 64, 48
2, 131604, Control_c, 1, 64, 32
2, 131608, Control_c, 1, 64, 16
2, 131608, Control_c, 1, 64, 0
2, 131612, Control_c, 1, 64, 0
2, 131616, Control_c, 1, 64, 0
2, 131624, Control_c, 1, 64, 0
2, 131624, Control_c, 1, 64, 0
2, 131692, Control_c, 1, 64, 0
2, 131700, Control_c, 1, 64, 0
2, 131704, Control_c, 1, 64, 0
2, 131712, Control_c, 1, 64, 0
2, 131720, Control_c, 1, 64, 16
2, 131720, Control_c, 1, 64, 16
2, 131720, Control_c, 1, 64, 32
2, 131724, Control_c, 1, 64, 48
2, 131732, Control_c, 1, 64, 64
2, 131748, Control_c, 1, 64, 80
2, 131748, Control_c, 1, 64, 127
2, 131752, Control_c, 1, 64, 127
2, 131760, Control_c, 1, 64, 127
2, 131772, Control_c, 1, 64, 127
2, 131816, Note_off_c, 1, 60, 0
2, 131828, Note_off_c, 1, 75, 0
2, 131840, Control_c, 1, 64, 127
2, 131936, Note_off_c, 1, 54, 0
2, 131944, Control_c, 1, 64, 127
2, 131952, Control_c, 1, 64, 127
2, 131956, Control_c, 1, 64, 127
2, 131964, Control_c, 1, 64, 80
2, 131968, Control_c, 1, 64, 64
2, 131972, Note_on_c, 1, 74, 72
2, 131972, Control_c, 1, 64, 48
2, 131980, Control_c, 1, 64, 32
2, 131980, Note_on_c, 1, 69, 62
2, 131980, Note_on_c, 1, 65, 58
2, 131984, Note_on_c, 1, 59, 60
2, 131984, Control_c, 1, 64, 16
2, 131992, Note_on_c, 1, 53, 55
2, 131992, Control_c, 1, 64, 16
2, 131992, Control_c, 1, 64, 0
2, 132000, Note_on_c, 1, 43, 48
2, 132000, Control_c, 1, 64, 0
2, 132000, Control_c, 1, 64, 0
2, 132004, Control_c, 1, 64, 0
2, 132004, Control_c, 1, 64, 0
2, 132080, Control_c, 1, 64, 0
2, 132088, Control_c, 1, 64, 0
2, 132096, Control_c, 1, 64, 0
2, 132100, Control_c, 1, 64, 0
2, 132100, Control_c, 1, 64, 16
2, 132108, Control_c, 1, 64, 16
2, 132116, Control_c, 1, 64, 32
2, 132116, Control_c, 1, 64, 48
2, 132120, Control_c, 1, 64, 64
2, 132136, Control_c, 1, 64, 80
2, 132144, Control_c, 1, 64, 127
2, 132144, Control_c, 1, 64, 127
2, 132144, Control_c, 1, 64, 127
2, 132148, Note_off_c, 1, 59, 0
2, 132156, Control_c, 1, 64, 127
2, 132156, Control_c, 1, 64, 127
2, 132176, Note_off_c, 1, 43, 0
2, 132184, Note_off_c, 1, 65, 0
2, 132196, Note_off_c, 1, 53, 0
2, 132204, Note_off_c, 1, 69, 0
2, 132332, Note_off_c, 1, 74, 0
2, 132352, Control_c, 1, 64, 127
2, 132360, Control_c, 1, 64, 127
2, 132360, Control_c, 1, 64, 127
2, 132368, Control_c, 1, 64, 80
2, 132368, Control_c, 1, 64, 64
2, 132372, Control_c, 1, 64, 48
2, 132376, Control_c, 1, 64, 16
2, 132380, Note_on_c, 1, 73, 60
2, 132380, Note_on_c, 1, 58, 60
2, 132388, Control_c, 1, 64, 16
2, 132388, Note_on_c, 1, 64, 56
2, 132388, Note_on_c, 1, 68, 54
2, 132396, Control_c, 1, 64, 0
2, 132396, Note_on_c, 1, 42, 59
2, 132396, Control_c, 1, 64, 0
2, 132400, Control_c, 1, 64, 0
2, 132400, Control_c, 1, 64, 0
2, 132408, Control_c, 1, 64, 0
2, 132416, Note_on_c, 1, 70, 36
2, 132448, Control_c, 1, 64, 0
2, 132464, Note_off_c, 1, 70, 0
2, 132464, Control_c, 1, 64, 0
2, 132468, Control_c, 1, 64, 0
2, 132468, Control_c, 1, 64, 0
2, 132476, Control_c, 1, 64, 16
2, 132484, Control_c, 1, 64, 16
2, 132492, Note_off_c, 1, 73, 0
2, 132492, Control_c, 1, 64, 32
2, 132492, Control_c, 1, 64, 48
2, 132496, Note_off_c, 1, 64, 0
2, 132504, Control_c, 1, 64, 64
2, 132512, Note_off_c, 1, 68, 0
2, 132512, Control_c, 1, 64, 80
2, 132516, Note_off_c, 1, 58, 0
2, 132516, Control_c, 1, 64, 127
2, 132516, Control_c, 1, 64, 127
2, 132524, Control_c, 1, 64, 127
2, 132524, Control_c, 1, 64, 127
2, 132532, Control_c, 1, 64, 127
2, 132540, Note_off_c, 1, 42, 0
2, 132748, Control_c, 1, 64, 127
2, 132756, Control_c, 1, 64, 127
2, 132764, Control_c, 1, 64, 127
2, 132768, Note_on_c, 1, 41, 47
2, 132772, Note_on_c, 1, 57, 55
2, 132772, Note_on_c, 1, 72, 62
2, 132776, Control_c, 1, 64, 80
2, 132784, Control_c, 1, 64, 64
2, 132784, Control_c, 1, 64, 32
2, 132792, Note_on_c, 1, 67, 59
2, 132792, Control_c, 1, 64, 16
2, 132792, Control_c, 1, 64, 0
2, 132796, Note_on_c, 1, 63, 55
2, 132796, Control_c, 1, 64, 0
2, 132796, Control_c, 1, 64, 0
2, 132804, Control_c, 1, 64, 0
2, 132804, Control_c, 1, 64, 0
2, 132844, Control_c, 1, 64, 0
2, 132852, Control_c, 1, 64, 0
2, 132860, Control_c, 1, 64, 0
2, 132864, Control_c, 1, 64, 0
2, 132872, Control_c, 1, 64, 16
2, 132880, Control_c, 1, 64, 16
2, 132880, Control_c, 1, 64, 32
2, 132884, Note_off_c, 1, 63, 0
2, 132888, Control_c, 1, 64, 48
2, 132892, Note_off_c, 1, 67, 0
2, 132892, Control_c, 1, 64, 64
2, 132900, Control_c, 1, 64, 80
2, 132908, Control_c, 1, 64, 127
2, 132908, Control_c, 1, 64, 127
2, 132912, Control_c, 1, 64, 127
2, 132920, Note_off_c, 1, 72, 0
2, 132920, Note_off_c, 1, 57, 0
2, 132920, Control_c, 1, 64, 127
2, 132928, Control_c, 1, 64, 127
2, 132932, Note_off_c, 1, 41, 0
2, 133164, Control_c, 1, 64, 127
2, 133164, Control_c, 1, 64, 127
2, 133164, Control_c, 1, 64, 127
2, 133172, Note_on_c, 1, 50, 46
2, 133172, Control_c, 1, 64, 80
2, 133180, Control_c, 1, 64, 48
2, 133188, Note_on_c, 1, 71, 72
2, 133188, Control_c, 1, 64, 16
2, 133192, Note_on_c, 1, 73, 69
2, 133192, Note_on_c, 1, 66, 67
2, 133192, Control_c, 1, 64, 0
2, 133200, Note_on_c, 1, 78, 74
2, 133200, Control_c, 1, 64, 0
2, 133204, Control_c, 1, 64, 0
2, 133208, Note_on_c, 1, 56, 61
2, 133208, Control_c, 1, 64, 0
2, 133212, Control_c, 1, 64, 0
2, 133288, Note_off_c, 1, 73, 0
2, 133288, Note_off_c, 1, 71, 0
2, 133296, Note_off_c, 1, 66, 0
2, 133304, Note_off_c, 1, 78, 0
2, 133304, Control_c, 1, 64, 0
2, 133308, Control_c, 1, 64, 0
2, 133316, Control_c, 1, 64, 0
2, 133316, Control_c, 1, 64, 0
2, 133316, Control_c, 1, 64, 16
2, 133324, Control_c, 1, 64, 16
2, 133324, Control_c, 1, 64, 32
2, 133328, Control_c, 1, 64, 48
2, 133328, Control_c, 1, 64, 64
2, 133336, Control_c, 1, 64, 80
2, 133344, Control_c, 1, 64, 127
2, 133344, Control_c, 1, 64, 127
2, 133348, Control_c, 1, 64, 127
2, 133352, Control_c, 1, 64, 127
2, 133356, Note_off_c, 1, 56, 0
2, 133356, Control_c, 1, 64, 127
2, 133384, Note_off_c, 1, 50, 0
2, 133560, Control_c, 1, 64, 127
2, 133560, Control_c, 1, 64, 127
2, 133568, Control_c, 1, 64, 127
2, 133576, Control_c, 1, 64, 64
2, 133576, Control_c, 1, 64, 48
2, 133576, Control_c, 1, 64, 16
2, 133580, Control_c, 1, 64, 0
2, 133584, Control_c, 1, 64, 0
2, 133588, Control_c, 1, 64, 0
2, 133592, Note_on_c, 1, 39, 54
2, 133592, Note_on_c, 1, 75, 64
2, 133596, Control_c, 1, 64, 0
2, 133596, Control_c, 1, 64, 0
2, 133596, Note_on_c, 1, 67, 60
2, 133604, Note_on_c, 1, 49, 50
2, 133604, Note_on_c, 1, 72, 55
2, 133608, Note_on_c, 1, 63, 54
2, 133608, Note_on_c, 1, 55, 47
2, 133656, Control_c, 1, 64, 0
2, 133664, Control_c, 1, 64, 0
2, 133676, Control_c, 1, 64, 0
2, 133676, Control_c, 1, 64, 0
2, 133684, Control_c, 1, 64, 16
2, 133692, Control_c, 1, 64, 16
2, 133696, Control_c, 1, 64, 32
2, 133700, Note_off_c, 1, 72, 0
2, 133704, Note_off_c, 1, 39, 0
2, 133712, Note_off_c, 1, 49, 0
2, 133712, Control_c, 1, 64, 48
2, 133720, Note_off_c, 1, 67, 0
2, 133720, Note_off_c, 1, 75, 0
2, 133724, Control_c, 1, 64, 64
2, 133728, Control_c, 1, 64, 80
2, 133732, Control_c, 1, 64, 127
2, 133740, Note_off_c, 1, 63, 0
2, 133740, Control_c, 1, 64, 127
2, 133740, Control_c, 1, 64, 127
2, 133744, Note_off_c, 1, 55, 0
2, 133752, Control_c, 1, 64, 127
2, 133764, Control_c, 1, 64, 127
2, 133956, Control_c, 1, 64, 127
2, 133964, Control_c, 1, 64, 127
2, 133964, Control_c, 1, 64, 127
2, 133972, Control_c, 1, 64, 127
2, 133972, Control_c, 1, 64, 80
2, 133976, Control_c, 1, 64, 64
2, 133984, Control_c, 1, 64, 32
2, 133984, Control_c, 1, 64, 16
2, 133984, Control_c, 1, 64, 16
2, 133992, Control_c, 1, 64, 0
2, 133992, Control_c, 1, 64, 0
2, 133996, Control_c, 1, 64, 0
2, 134000, Note_on_c, 1, 72, 67
2, 134000, Control_c, 1, 64, 0
2, 134004, Note_on_c, 1, 69, 63
2, 134004, Note_on_c, 1, 64, 61
2, 134012, Note_on_c, 1, 61, 61
2, 134012, Note_on_c, 1, 55, 58
2, 134020, Note_on_c, 1, 45, 50
2, 134020, Control_c, 1, 64, 0
2, 134020, Note_on_c, 1, 67, 62
2, 134112, Control_c, 1, 64, 0
2, 134120, Control_c, 1, 64, 0
2, 134120, Control_c, 1, 64, 0
2, 134128, Control_c, 1, 64, 0
2, 134136, Control_c, 1, 64, 16
2, 134136, Control_c, 1, 64, 16
2, 134140, Control_c, 1, 64, 32
2, 134140, Control_c, 1, 64, 48
2, 134148, Note_off_c, 1, 72, 0
2, 134148, Control_c, 1, 64, 64
2, 134156, Control_c, 1, 64, 80
2, 134156, Control_c, 1, 64, 127
2, 134164, Note_off_c, 1, 69, 0
2, 134164, Control_c, 1, 64, 127
2, 134168, Note_off_c, 1, 64, 0
2, 134168, Control_c, 1, 64, 127
2, 134176, Note_off_c, 1, 67, 0
2, 134176, Control_c, 1, 64, 127
2, 134180, Control_c, 1, 64, 127
2, 134184, Note_off_c, 1, 45, 0
2, 134184, Note_off_c, 1, 61, 0
2, 134208, Note_off_c, 1, 55, 0
2, 134604, Control_c, 1, 64, 127
2, 134612, Control_c, 1, 64, 127
2, 134612, Control_c, 1, 64, 127
2, 134612, Control_c, 1, 64, 80
2, 134620, Control_c, 1, 64, 48
2, 134624, Control_c, 1, 64, 16
2, 134632, Control_c, 1, 64, 0
2, 134632, Control_c, 1, 64, 0
2, 134640, Control_c, 1, 64, 0
2, 134640, Control_c, 1, 64, 0
2, 134640, Control_c, 1, 64, 0
2, 134680, Note_on_c, 1, 61, 68
2, 134688, Note_on_c, 1, 57, 71
2, 134688, Note_on_c, 1, 64, 64
2, 134688, Note_on_c, 1, 68, 71
2, 134696, Note_on_c, 1, 56, 59
2, 134696, Note_on_c, 1, 44, 59
2, 134872, Control_c, 1, 64, 0
2, 134884, Control_c, 1, 64, 0
2, 134884, Control_c, 1, 64, 0
2, 134892, Control_c, 1, 64, 0
2, 134900, Control_c, 1, 64, 16
2, 134900, Control_c, 1, 64, 16
2, 134904, Control_c, 1, 64, 32
2, 134912, Control_c, 1, 64, 48
2, 134912, Control_c, 1, 64, 64
2, 134920, Control_c, 1, 64, 80
2, 134924, Control_c, 1, 64, 127
2, 134924, Control_c, 1, 64, 127
2, 134928, Control_c, 1, 64, 127
2, 134940, Control_c, 1, 64, 127
2, 134940, Control_c, 1, 64, 127
2, 135064, Note_off_c, 1, 57, 0
2, 135144, Note_off_c, 1, 61, 0
2, 135164, Note_off_c, 1, 64, 0
2, 135172, Note_on_c, 1, 57, 56
2, 135228, Note_off_c, 1, 57, 0
2, 135252, Note_on_c, 1, 61, 63
2, 135268, Note_off_c, 1, 68, 0
2, 135344, Note_on_c, 1, 64, 69
2, 135356, Note_off_c, 1, 61, 0
2, 135392, Note_off_c, 1, 64, 0
2, 135412, Note_on_c, 1, 68, 62
2, 135436, Note_off_c, 1, 68, 0
2, 135500, Note_on_c, 1, 69, 68
2, 135540, Note_off_c, 1, 69, 0
2, 135560, Note_on_c, 1, 73, 73
2, 135636, Note_on_c, 1, 76, 70
2, 135644, Note_off_c, 1, 73, 0
2, 135684, Note_off_c, 1, 76, 0
2, 135692, Note_on_c, 1, 80, 59
2, 135716, Note_off_c, 1, 80, 0
2, 135772, Note_on_c, 1, 81, 64
2, 135828, Note_off_c, 1, 81, 0
2, 135832, Note_on_c, 1, 85, 71
2, 135896, Note_off_c, 1, 85, 0
2, 135900, Note_on_c, 1, 88, 58
2, 135908, Note_off_c, 1, 88, 0
2, 135948, Note_on_c, 1, 92, 45
2, 135968, Note_off_c, 1, 92, 0
2, 135996, Note_on_c, 1, 93, 67
2, 136080, Note_on_c, 1, 97, 66
2, 136140, Note_on_c, 1, 100, 70
2, 136208, Note_on_c, 1, 104, 75
2, 136332, Note_off_c, 1, 44, 0
2, 136364, Note_off_c, 1, 104, 0
2, 136412, Note_off_c, 1, 100, 0
2, 136412, Note_off_c, 1, 97, 0
2, 136432, Note_off_c, 1, 93, 0
2, 136508, Note_off_c, 1, 56, 0
2, 136536, Note_on_c, 1, 44, 79
2, 136548, Control_c, 1, 64, 127
2, 136548, Control_c, 1, 64, 127
2, 136564, Control_c, 1, 64, 127
2, 136564, Control_c, 1, 64, 80
2, 136572, Control_c, 1, 64, 64
2, 136572, Control_c, 1, 64, 48
2, 136576, Control_c, 1, 64, 32
2, 136576, Control_c, 1, 64, 16
2, 136580, Control_c, 1, 64, 16
2, 136584, Control_c, 1, 64, 0
2, 136584, Control_c, 1, 64, 0
2, 136592, Control_c, 1, 64, 0
2, 136592, Control_c, 1, 64, 0
2, 136592, Control_c, 1, 64, 0
2, 136672, Control_c, 1, 64, 0
2, 136680, Control_c, 1, 64, 0
2, 136688, Control_c, 1, 64, 0
2, 136692, Control_c, 1, 64, 0
2, 136700, Control_c, 1, 64, 16
2, 136700, Control_c, 1, 64, 16
2, 136700, Control_c, 1, 64, 32
2, 136708, Control_c, 1, 64, 48
2, 136712, Control_c, 1, 64, 64
2, 136728, Control_c, 1, 64, 80
2, 136728, Control_c, 1, 64, 127
2, 136728, Control_c, 1, 64, 127
2, 136732, Control_c, 1, 64, 127
2, 136740, Control_c, 1, 64, 127
2, 136740, Control_c, 1, 64, 127
2, 136988, Note_on_c, 1, 51, 63
2, 136992, Note_on_c, 1, 55, 60
2, 137056, Control_c, 1, 64, 127
2, 137056, Note_on_c, 1, 60, 74
2, 137056, Note_on_c, 1, 65, 87
2, 137060, Control_c, 1, 64, 127
2, 137064, Note_on_c, 1, 74, 84
2, 137068, Note_on_c, 1, 70, 81
2, 137068, Control_c, 1, 64, 127
2, 137068, Control_c, 1, 64, 80
2, 137076, Control_c, 1, 64, 64
2, 137076, Control_c, 1, 64, 48
2, 137080, Control_c, 1, 64, 32
2, 137084, Control_c, 1, 64, 16
2, 137088, Control_c, 1, 64, 0
2, 137088, Control_c, 1, 64, 0
2, 137092, Control_c, 1, 64, 0
2, 137096, Control_c, 1, 64, 0
2, 137104, Control_c, 1, 64, 0
2, 137224, Control_c, 1, 64, 0
2, 137232, Control_c, 1, 64, 0
2, 137232, Control_c, 1, 64, 0
2, 137240, Control_c, 1, 64, 0
2, 137244, Control_c, 1, 64, 16
2, 137248, Control_c, 1, 64, 32
2, 137252, Control_c, 1, 64, 48
2, 137252, Control_c, 1, 64, 64
2, 137260, Control_c, 1, 64, 80
2, 137260, Control_c, 1, 64, 127
2, 137264, Control_c, 1, 64, 127
2, 137272, Control_c, 1, 64, 127
2, 137272, Control_c, 1, 64, 127
2, 137276, Control_c, 1, 64, 127
2, 137340, Note_off_c, 1, 74, 0
2, 137384, Note_off_c, 1, 70, 0
2, 137388, Note_off_c, 1, 65, 0
2, 137684, Note_on_c, 1, 62, 57
2, 137716, Note_off_c, 1, 62, 0
2, 137724, Note_on_c, 1, 63, 62
2, 137764, Note_off_c, 1, 63, 0
2, 137804, Note_on_c, 1, 64, 69
2, 137840, Control_c, 1, 64, 127
2, 137840, Control_c, 1, 64, 127
2, 137848, Control_c, 1, 64, 127
2, 137852, Control_c, 1, 64, 64
2, 137852, Control_c, 1, 64, 48
2, 137860, Control_c, 1, 64, 16
2, 137860, Control_c, 1, 64, 16
2, 137860, Control_c, 1, 64, 0
2, 137868, Control_c, 1, 64, 0
2, 137868, Control_c, 1, 64, 0
2, 137872, Control_c, 1, 64, 0
2, 137876, Note_on_c, 1, 67, 69
2, 137880, Control_c, 1, 64, 0
2, 137892, Note_off_c, 1, 64, 0
2, 137928, Note_on_c, 1, 64, 62
2, 137936, Control_c, 1, 64, 0
2, 137948, Control_c, 1, 64, 0
2, 137952, Note_off_c, 1, 67, 0
2, 137956, Control_c, 1, 64, 0
2, 137960, Control_c, 1, 64, 0
2, 137968, Control_c, 1, 64, 16
2, 137984, Note_on_c, 1, 65, 66
2, 137988, Control_c, 1, 64, 16
2, 138012, Note_off_c, 1, 64, 0
2, 138024, Control_c, 1, 64, 32
2, 138036, Note_off_c, 1, 65, 0
2, 138052, Control_c, 1, 64, 48
2, 138056, Note_on_c, 1, 70, 62
2, 138084, Control_c, 1, 64, 32
2, 138092, Note_off_c, 1, 70, 0
2, 138092, Control_c, 1, 64, 16
2, 138100, Control_c, 1, 64, 16
2, 138104, Control_c, 1, 64, 0
2, 138108, Control_c, 1, 64, 0
2, 138112, Control_c, 1, 64, 0
2, 138120, Note_on_c, 1, 67, 70
2, 138120, Control_c, 1, 64, 0
2, 138132, Control_c, 1, 64, 0
2, 138168, Note_off_c, 1, 67, 0
2, 138172, Note_on_c, 1, 68, 69
2, 138208, Note_off_c, 1, 68, 0
2, 138216, Note_on_c, 1, 70, 60
2, 138244, Note_off_c, 1, 70, 0
2, 138284, Note_on_c, 1, 72, 68
2, 138336, Note_on_c, 1, 73, 72
2, 138352, Note_off_c, 1, 72, 0
2, 138372, Note_on_c, 1, 74, 61
2, 138380, Note_off_c, 1, 73, 0
2, 138428, Note_off_c, 1, 74, 0
2, 138428, Note_on_c, 1, 77, 71
2, 138476, Note_off_c, 1, 77, 0
2, 138476, Note_on_c, 1, 72, 54
2, 138528, Note_on_c, 1, 74, 74
2, 138544, Note_off_c, 1, 72, 0
2, 138576, Control_c, 1, 64, 0
2, 138580, Note_off_c, 1, 74, 0
2, 138584, Control_c, 1, 64, 0
2, 138588, Control_c, 1, 64, 0
2, 138596, Note_on_c, 1, 75, 67
2, 138596, Control_c, 1, 64, 0
2, 138604, Control_c, 1, 64, 16
2, 138612, Control_c, 1, 64, 16
2, 138616, Note_off_c, 1, 75, 0
2, 138632, Control_c, 1, 64, 32
2, 138652, Control_c, 1, 64, 48
2, 138660, Note_on_c, 1, 77, 73
2, 138672, Control_c, 1, 64, 64
2, 138684, Control_c, 1, 64, 48
2, 138692, Control_c, 1, 64, 32
2, 138692, Control_c, 1, 64, 16
2, 138692, Control_c, 1, 64, 16
2, 138700, Note_on_c, 1, 79, 81
2, 138700, Control_c, 1, 64, 0
2, 138704, Control_c, 1, 64, 0
2, 138704, Control_c, 1, 64, 0
2, 138708, Control_c, 1, 64, 0
2, 138712, Control_c, 1, 64, 0
2, 138720, Note_off_c, 1, 77, 0
2, 138752, Note_on_c, 1, 80, 67
2, 138756, Note_off_c, 1, 79, 0
2, 138796, Note_on_c, 1, 82, 74
2, 138800, Note_off_c, 1, 80, 0
2, 138856, Note_off_c, 1, 82, 0
2, 138856, Note_on_c, 1, 79, 64
2, 138868, Note_on_c, 1, 81, 51
2, 138884, Note_off_c, 1, 81, 0
2, 138904, Note_off_c, 1, 79, 0
2, 138904, Note_on_c, 1, 80, 75
2, 138944, Note_off_c, 1, 80, 0
2, 138960, Note_on_c, 1, 82, 36
2, 138992, Note_off_c, 1, 82, 0
2, 139000, Note_on_c, 1, 84, 70
2, 139060, Note_on_c, 1, 85, 68
2, 139080, Note_off_c, 1, 84, 0
2, 139088, Note_on_c, 1, 86, 80
2, 139096, Note_off_c, 1, 85, 0
2, 139136, Note_off_c, 1, 86, 0
2, 139156, Note_on_c, 1, 89, 70
2, 139192, Note_on_c, 1, 84, 64
2, 139196, Note_off_c, 1, 89, 0
2, 139252, Note_on_c, 1, 86, 80
2, 139264, Note_off_c, 1, 84, 0
2, 139264, Control_c, 1, 64, 0
2, 139272, Control_c, 1, 64, 0
2, 139280, Control_c, 1, 64, 0
2, 139280, Control_c, 1, 64, 0
2, 139280, Control_c, 1, 64, 16
2, 139284, Control_c, 1, 64, 16
2, 139288, Control_c, 1, 64, 32
2, 139292, Control_c, 1, 64, 48
2, 139292, Control_c, 1, 64, 64
2, 139308, Note_off_c, 1, 86, 0
2, 139308, Control_c, 1, 64, 80
2, 139312, Control_c, 1, 64, 127
2, 139312, Control_c, 1, 64, 127
2, 139316, Control_c, 1, 64, 127
2, 139320, Control_c, 1, 64, 127
2, 139320, Note_on_c, 1, 87, 70
2, 139328, Note_off_c, 1, 87, 0
2, 139328, Control_c, 1, 64, 127
2, 139368, Note_on_c, 1, 89, 76
2, 139424, Note_on_c, 1, 91, 81
2, 139424, Control_c, 1, 64, 127
2, 139424, Control_c, 1, 64, 127
2, 139428, Control_c, 1, 64, 127
2, 139428, Control_c, 1, 64, 127
2, 139436, Note_off_c, 1, 89, 0
2, 139436, Control_c, 1, 64, 80
2, 139444, Control_c, 1, 64, 64
2, 139444, Control_c, 1, 64, 48
2, 139448, Control_c, 1, 64, 32
2, 139452, Control_c, 1, 64, 16
2, 139456, Control_c, 1, 64, 16
2, 139456, Control_c, 1, 64, 0
2, 139464, Note_on_c, 1, 92, 67
2, 139492, Note_off_c, 1, 91, 0
2, 139492, Control_c, 1, 64, 16
2, 139504, Control_c, 1, 64, 16
2, 139512, Control_c, 1, 64, 32
2, 139520, Note_on_c, 1, 94, 75
2, 139524, Control_c, 1, 64, 48
2, 139532, Note_off_c, 1, 92, 0
2, 139540, Control_c, 1, 64, 64
2, 139544, Control_c, 1, 64, 80
2, 139552, Control_c, 1, 64, 127
2, 139564, Control_c, 1, 64, 127
2, 139572, Note_on_c, 1, 91, 78
2, 139580, Note_off_c, 1, 94, 0
2, 139584, Control_c, 1, 64, 127
2, 139628, Note_on_c, 1, 92, 78
2, 139640, Note_off_c, 1, 91, 0
2, 139676, Note_off_c, 1, 92, 0
2, 139688, Note_on_c, 1, 94, 48
2, 139708, Note_off_c, 1, 94, 0
2, 140372, Note_on_c, 1, 32, 50
2, 140404, Note_off_c, 1, 32, 0
2, 141188, Note_on_c, 1, 68, 39
2, 141196, Note_on_c, 1, 75, 40
2, 141196, Note_on_c, 1, 77, 35
2, 141244, Note_on_c, 1, 89, 46
2, 141252, Note_on_c, 1, 79, 41
2, 141264, Note_on_c, 1, 94, 51
2, 141872, Note_off_c, 1, 94, 0
2, 141900, Note_off_c, 1, 89, 0
2, 141940, Note_off_c, 1, 77, 0
2, 141940, Note_off_c, 1, 68, 0
2, 142000, Note_off_c, 1, 75, 0
2, 142868, Control_c, 1, 64, 127
2, 142880, Control_c, 1, 64, 127
2, 142888, Control_c, 1, 64, 127
2, 142900, Control_c, 1, 64, 80
2, 142916, Control_c, 1, 64, 64
2, 142924, Control_c, 1, 64, 32
2, 142932, Control_c, 1, 64, 16
2, 142936, Control_c, 1, 64, 0
2, 142944, Control_c, 1, 64, 0
2, 142956, Control_c, 1, 64, 0
2, 142964, Control_c, 1, 64, 0
2, 142972, Control_c, 1, 64, 0
2, 144940, Control_c, 1, 64, 0
2, 144940, Control_c, 1, 66, 0
2, 144940, Control_c, 1, 67, 0
2, 144940, Pitch_bend_c, 1, 8192
2, 144960, Control_c, 1, 64, 0
2, 144960, Control_c, 1, 66, 0
2, 144960, Control_c, 1, 67, 0
2, 144960, Pitch_bend_c, 1, 8192
2, 144968, Control_c, 1, 64, 0
2, 144968, Control_c, 1, 66, 0
2, 144968, Control_c, 1, 67, 0
2, 144968, Pitch_bend_c, 1, 8192
2, 148656, Note_off_c, 1, 79, 0
2, 148656, Note_off_c, 1, 60, 0
2, 148656, Note_off_c, 1, 55, 0
2, 148656, Note_off_c, 1, 51, 0
2, 148656, Note_off_c, 1, 44, 0
2, 148656, End_track
3, 0, Start_track
3, 0, Title_t, "GS/RESET"
3, 0, System_exclusive, 10, 65, 16, 66, 18, 64, 0, 127, 0, 65, 247
3, 6144, End_track
0, 0, End_of_file
