0, 0, Header, 1, 16, 480
1, 0, Start_track
1, 0, System_exclusive, 5, 126, 127, 9, 1, 247
1, 0, Tempo, 465116
1, 0, Time_signature, 4, 2, 24, 8
1, 0, Key_signature, -1, "major"
1, 0, End_track
2, 0, Start_track
2, 0, Title_t, "Soft Karaoke"
2, 0, MIDI_port, 0
2, 0, End_track
3, 0, Start_track
3, 0, Title_t, "Words"
3, 0, MIDI_port, 0
3, 0, End_track
4, 0, Start_track
4, 0, Title_t, "Melody"
4, 0, MIDI_port, 0
4, 0, Channel_prefix, 0
4, 0, Control_c, 0, 7, 127
4, 0, Control_c, 0, 10, 64
4, 0, Program_c, 0, 73
4, 0, Control_c, 0, 91, 110
4, 0, Control_c, 0, 93, 100
4, 9595, Note_on_c, 0, 57, 72
4, 10075, Note_off_c, 0, 57, 64
4, 10075, Note_on_c, 0, 60, 73
4, 10250, Note_off_c, 0, 60, 64
4, 10315, Note_on_c, 0, 60, 74
4, 10500, Note_off_c, 0, 60, 64
4, 10555, Note_on_c, 0, 60, 71
4, 10940, Note_off_c, 0, 60, 64
4, 11035, Note_on_c, 0, 60, 75
4, 11190, Note_off_c, 0, 60, 64
4, 11275, Note_on_c, 0, 60, 76
4, 11505, Note_off_c, 0, 60, 64
4, 11515, Note_on_c, 0, 62, 93
4, 11755, Note_on_c, 0, 60, 85
4, 11785, Note_off_c, 0, 62, 64
4, 11960, Note_off_c, 0, 60, 64
4, 12000, Note_on_c, 0, 60, 90
4, 12475, Note_on_c, 0, 57, 70
4, 12490, Note_off_c, 0, 60, 64
4, 12715, Note_on_c, 0, 60, 79
4, 12750, Note_off_c, 0, 57, 64
4, 13445, Note_off_c, 0, 60, 64
4, 17275, Note_on_c, 0, 57, 76
4, 17755, Note_off_c, 0, 57, 64
4, 17755, Note_on_c, 0, 60, 72
4, 17975, Note_off_c, 0, 60, 64
4, 17995, Note_on_c, 0, 60, 74
4, 18170, Note_off_c, 0, 60, 64
4, 18235, Note_on_c, 0, 60, 75
4, 18870, Note_off_c, 0, 60, 64
4, 18955, Note_on_c, 0, 60, 81
4, 19195, Note_on_c, 0, 55, 64
4, 19205, Note_off_c, 0, 60, 64
4, 19340, Note_off_c, 0, 55, 64
4, 19435, Note_on_c, 0, 55, 73
4, 20110, Note_off_c, 0, 55, 64
4, 20155, Note_on_c, 0, 55, 81
4, 20640, Note_on_c, 0, 53, 70
4, 20650, Note_off_c, 0, 55, 64
4, 21110, Note_off_c, 0, 53, 64
4, 24475, Note_on_c, 0, 53, 73
4, 24625, Note_off_c, 0, 53, 64
4, 24715, Note_on_c, 0, 53, 66
4, 24955, Note_off_c, 0, 53, 64
4, 24955, Note_on_c, 0, 57, 75
4, 25100, Note_off_c, 0, 57, 64
4, 25195, Note_on_c, 0, 57, 72
4, 25415, Note_off_c, 0, 57, 64
4, 25435, Note_on_c, 0, 60, 79
4, 25785, Note_off_c, 0, 60, 64
4, 25915, Note_on_c, 0, 60, 73
4, 26085, Note_off_c, 0, 60, 64
4, 26155, Note_on_c, 0, 60, 76
4, 26605, Note_off_c, 0, 60, 64
4, 26645, Note_on_c, 0, 62, 93
4, 27260, Note_off_c, 0, 62, 64
4, 27355, Note_on_c, 0, 60, 79
4, 27775, Note_off_c, 0, 60, 64
4, 27840, Note_on_c, 0, 62, 98
4, 28185, Pitch_bend_c, 0, 8064
4, 28185, Pitch_bend_c, 0, 7936
4, 28205, Pitch_bend_c, 0, 7808
4, 28225, Pitch_bend_c, 0, 7680
4, 28245, Pitch_bend_c, 0, 7552
4, 28245, Pitch_bend_c, 0, 7424
4, 28270, Pitch_bend_c, 0, 7296
4, 28280, Pitch_bend_c, 0, 7168
4, 28280, Pitch_bend_c, 0, 7040
4, 28300, Pitch_bend_c, 0, 6912
4, 28300, Pitch_bend_c, 0, 6784
4, 28300, Pitch_bend_c, 0, 6656
4, 28310, Pitch_bend_c, 0, 6528
4, 28320, Pitch_bend_c, 0, 6400
4, 28320, Pitch_bend_c, 0, 6272
4, 28340, Pitch_bend_c, 0, 6144
4, 28350, Pitch_bend_c, 0, 6016
4, 28350, Pitch_bend_c, 0, 5888
4, 28370, Pitch_bend_c, 0, 5760
4, 28370, Pitch_bend_c, 0, 5632
4, 28370, Pitch_bend_c, 0, 5504
4, 28395, Pitch_bend_c, 0, 5376
4, 28395, Pitch_bend_c, 0, 5120
4, 28395, Pitch_bend_c, 0, 4992
4, 28405, Note_off_c, 0, 62, 64
4, 28405, Pitch_bend_c, 0, 4864
4, 28405, Pitch_bend_c, 0, 4736
4, 28405, Pitch_bend_c, 0, 4608
4, 28425, Pitch_bend_c, 0, 4480
4, 28425, Pitch_bend_c, 0, 4352
4, 28435, Pitch_bend_c, 0, 4224
4, 28445, Pitch_bend_c, 0, 4096
4, 28445, Pitch_bend_c, 0, 3968
4, 28465, Pitch_bend_c, 0, 3840
4, 28465, Pitch_bend_c, 0, 3712
4, 28465, Pitch_bend_c, 0, 3584
4, 28465, Pitch_bend_c, 0, 3456
4, 28485, Pitch_bend_c, 0, 3328
4, 28485, Pitch_bend_c, 0, 3200
4, 28485, Pitch_bend_c, 0, 3072
4, 28505, Pitch_bend_c, 0, 2944
4, 28570, Pitch_bend_c, 0, 3072
4, 28570, Pitch_bend_c, 0, 3200
4, 28580, Pitch_bend_c, 0, 3328
4, 28580, Pitch_bend_c, 0, 3456
4, 28580, Pitch_bend_c, 0, 3584
4, 28580, Pitch_bend_c, 0, 3712
4, 28600, Pitch_bend_c, 0, 3840
4, 28600, Pitch_bend_c, 0, 3968
4, 28600, Pitch_bend_c, 0, 4096
4, 28600, Pitch_bend_c, 0, 4352
4, 28620, Pitch_bend_c, 0, 4736
4, 28620, Pitch_bend_c, 0, 5120
4, 28620, Pitch_bend_c, 0, 5888
4, 28620, Pitch_bend_c, 0, 6400
4, 28620, Pitch_bend_c, 0, 7040
4, 28620, Pitch_bend_c, 0, 7680
4, 28620, Pitch_bend_c, 0, 8192
4, 31915, Note_on_c, 0, 53, 74
4, 32070, Note_off_c, 0, 53, 64
4, 32165, Note_on_c, 0, 53, 90
4, 32495, Note_off_c, 0, 53, 64
4, 33115, Note_on_c, 0, 55, 93
4, 33415, Note_off_c, 0, 55, 64
4, 33595, Note_on_c, 0, 55, 74
4, 34105, Note_off_c, 0, 55, 64
4, 34325, Note_on_c, 0, 55, 79
4, 34460, Note_off_c, 0, 55, 64
4, 34555, Note_on_c, 0, 55, 73
4, 34940, Note_off_c, 0, 55, 64
4, 35035, Note_on_c, 0, 55, 69
4, 35410, Note_off_c, 0, 55, 64
4, 35515, Note_on_c, 0, 55, 86
4, 36000, Note_on_c, 0, 53, 74
4, 36015, Note_off_c, 0, 55, 64
4, 36470, Note_off_c, 0, 53, 64
4, 39835, Note_on_c, 0, 65, 98
4, 39975, Note_off_c, 0, 65, 64
4, 40075, Note_on_c, 0, 65, 75
4, 40305, Note_off_c, 0, 65, 64
4, 40315, Note_on_c, 0, 68, 93
4, 40555, Note_on_c, 0, 67, 72
4, 40595, Note_off_c, 0, 68, 64
4, 40785, Note_off_c, 0, 67, 64
4, 40795, Note_on_c, 0, 65, 95
4, 41170, Note_off_c, 0, 65, 64
4, 41275, Note_on_c, 0, 65, 81
4, 41465, Note_off_c, 0, 65, 64
4, 41515, Note_on_c, 0, 65, 90
4, 42150, Note_off_c, 0, 65, 64
4, 42235, Note_on_c, 0, 65, 87
4, 42670, Note_off_c, 0, 65, 64
4, 42715, Note_on_c, 0, 65, 83
4, 43120, Note_off_c, 0, 65, 64
4, 43195, Note_on_c, 0, 65, 93
4, 43915, Note_off_c, 0, 65, 64
4, 47765, Note_on_c, 0, 53, 63
4, 47935, Note_off_c, 0, 53, 64
4, 47995, Note_on_c, 0, 57, 85
4, 48245, Note_on_c, 0, 60, 77
4, 48275, Note_off_c, 0, 57, 64
4, 48620, Note_off_c, 0, 60, 64
4, 48715, Note_on_c, 0, 60, 79
4, 49405, Note_off_c, 0, 60, 64
4, 49440, Note_on_c, 0, 60, 87
4, 49575, Note_off_c, 0, 60, 64
4, 49675, Note_on_c, 0, 60, 76
4, 49840, Note_off_c, 0, 60, 64
4, 49915, Note_on_c, 0, 55, 81
4, 50070, Note_off_c, 0, 55, 64
4, 50155, Note_on_c, 0, 55, 87
4, 50810, Note_off_c, 0, 55, 64
4, 50875, Note_on_c, 0, 55, 81
4, 51355, Note_on_c, 0, 53, 83
4, 51375, Note_off_c, 0, 55, 64
4, 51830, Note_off_c, 0, 53, 64
4, 55195, Note_on_c, 0, 60, 87
4, 55340, Note_off_c, 0, 60, 64
4, 55435, Note_on_c, 0, 60, 72
4, 55615, Note_off_c, 0, 60, 64
4, 55675, Note_on_c, 0, 60, 75
4, 55875, Note_off_c, 0, 60, 64
4, 55925, Note_on_c, 0, 60, 75
4, 56540, Note_off_c, 0, 60, 64
4, 56635, Note_on_c, 0, 60, 79
4, 56830, Note_off_c, 0, 60, 64
4, 56875, Note_on_c, 0, 60, 77
4, 57310, Note_off_c, 0, 60, 64
4, 57355, Note_on_c, 0, 67, 90
4, 57990, Note_off_c, 0, 67, 64
4, 58075, Note_on_c, 0, 67, 100
4, 58510, Note_off_c, 0, 67, 64
4, 58555, Note_on_c, 0, 63, 87
4, 58795, Note_on_c, 0, 62, 81
4, 58850, Note_off_c, 0, 63, 64
4, 59035, Note_on_c, 0, 60, 70
4, 59045, Note_off_c, 0, 62, 64
4, 59730, Note_off_c, 0, 60, 64
4, 62635, Note_on_c, 0, 65, 81
4, 62800, Note_off_c, 0, 65, 64
4, 62875, Note_on_c, 0, 65, 79
4, 63020, Note_off_c, 0, 65, 64
4, 63115, Note_on_c, 0, 65, 93
4, 63285, Note_off_c, 0, 65, 64
4, 63365, Note_on_c, 0, 65, 98
4, 63595, Note_on_c, 0, 64, 74
4, 63635, Note_off_c, 0, 65, 64
4, 63795, Note_off_c, 0, 64, 64
4, 63845, Note_on_c, 0, 64, 86
4, 63990, Note_off_c, 0, 64, 64
4, 64085, Note_on_c, 0, 64, 85
4, 64210, Note_off_c, 0, 64, 64
4, 64320, Note_on_c, 0, 64, 100
4, 64555, Note_on_c, 0, 62, 69
4, 64570, Note_off_c, 0, 64, 64
4, 64720, Note_off_c, 0, 62, 64
4, 64795, Note_on_c, 0, 62, 72
4, 64985, Note_off_c, 0, 62, 64
4, 65045, Note_on_c, 0, 62, 108
4, 67160, Note_off_c, 0, 62, 64
4, 70555, Note_on_c, 0, 60, 76
4, 70710, Note_off_c, 0, 60, 64
4, 70795, Note_on_c, 0, 60, 72
4, 70950, Note_off_c, 0, 60, 64
4, 71035, Note_on_c, 0, 60, 77
4, 71225, Note_off_c, 0, 60, 64
4, 71285, Note_on_c, 0, 60, 83
4, 71900, Note_off_c, 0, 60, 64
4, 71995, Note_on_c, 0, 60, 81
4, 72170, Note_off_c, 0, 60, 64
4, 72235, Note_on_c, 0, 60, 83
4, 72715, Note_on_c, 0, 67, 87
4, 72730, Note_off_c, 0, 60, 64
4, 73370, Note_off_c, 0, 67, 64
4, 73435, Note_on_c, 0, 67, 83
4, 73795, Note_off_c, 0, 67, 64
4, 73915, Note_on_c, 0, 63, 74
4, 74155, Note_off_c, 0, 63, 64
4, 74155, Note_on_c, 0, 62, 77
4, 74395, Note_on_c, 0, 60, 79
4, 74415, Note_off_c, 0, 62, 64
4, 75280, Note_off_c, 0, 60, 64
4, 78235, Note_on_c, 0, 65, 86
4, 78380, Note_off_c, 0, 65, 64
4, 78475, Note_on_c, 0, 65, 87
4, 78620, Note_off_c, 0, 65, 64
4, 78715, Note_on_c, 0, 65, 95
4, 78955, Note_on_c, 0, 64, 73
4, 78975, Note_off_c, 0, 65, 64
4, 79150, Note_off_c, 0, 64, 64
4, 79200, Note_on_c, 0, 64, 104
4, 79595, Note_off_c, 0, 64, 64
4, 79675, Note_on_c, 0, 64, 87
4, 79915, Note_on_c, 0, 62, 75
4, 79925, Note_off_c, 0, 64, 64
4, 80110, Note_off_c, 0, 62, 64
4, 80165, Note_on_c, 0, 62, 95
4, 80550, Note_off_c, 0, 62, 64
4, 80645, Note_on_c, 0, 62, 90
4, 80860, Note_off_c, 0, 62, 64
4, 80875, Note_on_c, 0, 60, 77
4, 82145, Note_off_c, 0, 60, 64
4, 85435, Note_on_c, 0, 58, 112
4, 85635, Note_off_c, 0, 58, 64
4, 85675, Note_on_c, 0, 57, 87
4, 86115, Note_off_c, 0, 57, 64
4, 86155, Note_on_c, 0, 58, 93
4, 86635, Note_on_c, 0, 57, 76
4, 86685, Note_off_c, 0, 58, 64
4, 86885, Note_on_c, 0, 53, 85
4, 86905, Note_off_c, 0, 57, 64
4, 88350, Note_off_c, 0, 53, 64
4, 93835, Note_on_c, 0, 53, 77
4, 94055, Note_off_c, 0, 53, 64
4, 94075, Note_on_c, 0, 57, 87
4, 94410, Note_off_c, 0, 57, 64
4, 94550, Note_on_c, 0, 60, 83
4, 94860, Note_off_c, 0, 60, 64
4, 95030, Note_on_c, 0, 60, 98
4, 95350, Note_off_c, 0, 60, 64
4, 95510, Note_on_c, 0, 60, 93
4, 95885, Note_off_c, 0, 60, 64
4, 95995, Note_on_c, 0, 62, 98
4, 96235, Note_on_c, 0, 60, 79
4, 96285, Note_off_c, 0, 62, 64
4, 96420, Note_off_c, 0, 60, 64
4, 96475, Note_on_c, 0, 60, 74
4, 96930, Note_off_c, 0, 60, 64
4, 96965, Note_on_c, 0, 62, 108
4, 97340, Pitch_bend_c, 0, 8064
4, 97355, Pitch_bend_c, 0, 7936
4, 97365, Pitch_bend_c, 0, 7808
4, 97375, Pitch_bend_c, 0, 7680
4, 97375, Pitch_bend_c, 0, 7552
4, 97395, Pitch_bend_c, 0, 7424
4, 97395, Pitch_bend_c, 0, 7296
4, 97405, Pitch_bend_c, 0, 7168
4, 97405, Pitch_bend_c, 0, 7040
4, 97405, Pitch_bend_c, 0, 6912
4, 97405, Pitch_bend_c, 0, 6784
4, 97405, Pitch_bend_c, 0, 6656
4, 97415, Pitch_bend_c, 0, 6528
4, 97425, Pitch_bend_c, 0, 6400
4, 97435, Pitch_bend_c, 0, 6272
4, 97435, Pitch_bend_c, 0, 6144
4, 97445, Pitch_bend_c, 0, 6016
4, 97445, Pitch_bend_c, 0, 5888
4, 97445, Pitch_bend_c, 0, 5760
4, 97445, Pitch_bend_c, 0, 5632
4, 97460, Note_off_c, 0, 62, 64
4, 97465, Pitch_bend_c, 0, 5504
4, 97465, Pitch_bend_c, 0, 5376
4, 97480, Pitch_bend_c, 0, 5120
4, 97480, Pitch_bend_c, 0, 4992
4, 97480, Pitch_bend_c, 0, 4864
4, 97500, Pitch_bend_c, 0, 4736
4, 97500, Pitch_bend_c, 0, 4608
4, 97500, Pitch_bend_c, 0, 4480
4, 97520, Pitch_bend_c, 0, 4352
4, 97520, Pitch_bend_c, 0, 4224
4, 97530, Pitch_bend_c, 0, 4096
4, 97540, Pitch_bend_c, 0, 3968
4, 97550, Pitch_bend_c, 0, 3840
4, 97550, Pitch_bend_c, 0, 3712
4, 97570, Pitch_bend_c, 0, 3584
4, 97625, Pitch_bend_c, 0, 3712
4, 97625, Pitch_bend_c, 0, 3840
4, 97635, Pitch_bend_c, 0, 4224
4, 97635, Pitch_bend_c, 0, 4480
4, 97635, Pitch_bend_c, 0, 4992
4, 97635, Pitch_bend_c, 0, 5632
4, 97645, Pitch_bend_c, 0, 6144
4, 97645, Pitch_bend_c, 0, 6784
4, 97645, Pitch_bend_c, 0, 7424
4, 97645, Pitch_bend_c, 0, 7936
4, 97645, Pitch_bend_c, 0, 8192
4, 101505, Note_on_c, 0, 53, 81
4, 101755, Note_on_c, 0, 57, 95
4, 101765, Note_off_c, 0, 53, 64
4, 102130, Note_off_c, 0, 57, 64
4, 102240, Note_on_c, 0, 60, 85
4, 102540, Note_off_c, 0, 60, 64
4, 102715, Note_on_c, 0, 60, 90
4, 103055, Note_off_c, 0, 60, 64
4, 103185, Note_on_c, 0, 60, 87
4, 103425, Note_off_c, 0, 60, 64
4, 103430, Note_on_c, 0, 57, 86
4, 103755, Note_off_c, 0, 57, 64
4, 104150, Note_on_c, 0, 57, 112
4, 104385, Note_off_c, 0, 57, 64
4, 104390, Note_on_c, 0, 55, 81
4, 104635, Note_on_c, 0, 56, 85
4, 104685, Note_off_c, 0, 55, 64
4, 104870, Note_on_c, 0, 55, 77
4, 104950, Note_off_c, 0, 56, 64
4, 105115, Note_on_c, 0, 53, 77
4, 105140, Note_off_c, 0, 55, 64
4, 105835, Note_off_c, 0, 53, 64
4, 109195, Note_on_c, 0, 53, 70
4, 109415, Note_off_c, 0, 53, 64
4, 109430, Note_on_c, 0, 57, 71
4, 109795, Note_off_c, 0, 57, 64
4, 109910, Note_on_c, 0, 60, 87
4, 110075, Note_off_c, 0, 60, 64
4, 110155, Note_on_c, 0, 60, 74
4, 110310, Note_off_c, 0, 60, 64
4, 110390, Note_on_c, 0, 60, 75
4, 110880, Note_off_c, 0, 60, 64
4, 111125, Note_on_c, 0, 60, 90
4, 111260, Note_off_c, 0, 60, 64
4, 111355, Note_on_c, 0, 62, 95
4, 111710, Note_off_c, 0, 62, 64
4, 111850, Note_on_c, 0, 60, 95
4, 112090, Note_off_c, 0, 60, 64
4, 112320, Note_on_c, 0, 62, 100
4, 112605, Pitch_bend_c, 0, 8064
4, 112615, Pitch_bend_c, 0, 7936
4, 112635, Pitch_bend_c, 0, 7808
4, 112635, Pitch_bend_c, 0, 7680
4, 112635, Pitch_bend_c, 0, 7552
4, 112655, Pitch_bend_c, 0, 7424
4, 112655, Pitch_bend_c, 0, 7296
4, 112665, Pitch_bend_c, 0, 7168
4, 112675, Pitch_bend_c, 0, 7040
4, 112685, Pitch_bend_c, 0, 6912
4, 112695, Pitch_bend_c, 0, 6784
4, 112705, Pitch_bend_c, 0, 6656
4, 112705, Pitch_bend_c, 0, 6528
4, 112730, Pitch_bend_c, 0, 6400
4, 112740, Pitch_bend_c, 0, 6272
4, 112740, Pitch_bend_c, 0, 6144
4, 112750, Pitch_bend_c, 0, 6016
4, 112760, Pitch_bend_c, 0, 5888
4, 112780, Pitch_bend_c, 0, 5760
4, 112780, Pitch_bend_c, 0, 5632
4, 112780, Pitch_bend_c, 0, 5504
4, 112800, Pitch_bend_c, 0, 5376
4, 112800, Pitch_bend_c, 0, 5120
4, 112820, Pitch_bend_c, 0, 4992
4, 112840, Pitch_bend_c, 0, 4864
4, 112865, Pitch_bend_c, 0, 4736
4, 112875, Note_off_c, 0, 62, 64
4, 112875, Pitch_bend_c, 0, 4608
4, 112925, Pitch_bend_c, 0, 4736
4, 112945, Pitch_bend_c, 0, 4864
4, 112945, Pitch_bend_c, 0, 4992
4, 112955, Pitch_bend_c, 0, 5120
4, 112955, Pitch_bend_c, 0, 5376
4, 112965, Pitch_bend_c, 0, 5504
4, 112965, Pitch_bend_c, 0, 5632
4, 112965, Pitch_bend_c, 0, 5760
4, 112965, Pitch_bend_c, 0, 5888
4, 112980, Pitch_bend_c, 0, 6016
4, 112980, Pitch_bend_c, 0, 6144
4, 112980, Pitch_bend_c, 0, 6400
4, 112980, Pitch_bend_c, 0, 6784
4, 112980, Pitch_bend_c, 0, 7040
4, 112990, Pitch_bend_c, 0, 7424
4, 112990, Pitch_bend_c, 0, 7936
4, 112990, Pitch_bend_c, 0, 8192
4, 116645, Note_on_c, 0, 65, 75
4, 116780, Note_off_c, 0, 65, 64
4, 116875, Note_on_c, 0, 65, 74
4, 117060, Note_off_c, 0, 65, 64
4, 117115, Note_on_c, 0, 68, 100
4, 117305, Note_off_c, 0, 68, 64
4, 117355, Note_on_c, 0, 68, 93
4, 117575, Note_off_c, 0, 68, 64
4, 117600, Note_on_c, 0, 67, 90
4, 117835, Note_on_c, 0, 65, 90
4, 117870, Note_off_c, 0, 67, 64
4, 118035, Note_off_c, 0, 65, 64
4, 118085, Note_on_c, 0, 65, 87
4, 118430, Note_off_c, 0, 65, 64
4, 118550, Note_on_c, 0, 65, 93
4, 118780, Note_off_c, 0, 65, 64
4, 118805, Note_on_c, 0, 68, 104
4, 119175, Note_off_c, 0, 68, 64
4, 119275, Note_on_c, 0, 67, 104
4, 119640, Note_off_c, 0, 67, 64
4, 119750, Note_on_c, 0, 65, 83
4, 119935, Note_off_c, 0, 65, 64
4, 120005, Note_on_c, 0, 67, 100
4, 120475, Note_on_c, 0, 65, 85
4, 120505, Note_off_c, 0, 67, 64
4, 121020, Note_off_c, 0, 65, 64
4, 124310, Note_on_c, 0, 60, 70
4, 124470, Note_off_c, 0, 60, 64
4, 124545, Note_on_c, 0, 60, 68
4, 124680, Note_off_c, 0, 60, 64
4, 124795, Note_on_c, 0, 60, 104
4, 124940, Note_off_c, 0, 60, 64
4, 125035, Note_on_c, 0, 60, 86
4, 125620, Note_off_c, 0, 60, 64
4, 125745, Note_on_c, 0, 60, 87
4, 125905, Note_off_c, 0, 60, 64
4, 125990, Note_on_c, 0, 60, 90
4, 126450, Note_off_c, 0, 60, 64
4, 126470, Note_on_c, 0, 67, 86
4, 127115, Note_off_c, 0, 67, 64
4, 127195, Note_on_c, 0, 67, 95
4, 127675, Note_on_c, 0, 63, 112
4, 127695, Note_off_c, 0, 67, 64
4, 127915, Note_on_c, 0, 62, 85
4, 127950, Note_off_c, 0, 63, 64
4, 128155, Note_off_c, 0, 62, 64
4, 128155, Note_on_c, 0, 60, 87
4, 129860, Note_off_c, 0, 60, 64
4, 131755, Note_on_c, 0, 65, 104
4, 131900, Note_off_c, 0, 65, 64
4, 131995, Note_on_c, 0, 65, 64
4, 132130, Note_off_c, 0, 65, 64
4, 132245, Note_on_c, 0, 65, 85
4, 132360, Note_off_c, 0, 65, 64
4, 132480, Note_on_c, 0, 65, 114
4, 132715, Note_on_c, 0, 64, 71
4, 132730, Note_off_c, 0, 65, 64
4, 132905, Note_off_c, 0, 64, 64
4, 132965, Note_on_c, 0, 64, 85
4, 133120, Note_off_c, 0, 64, 64
4, 133200, Note_on_c, 0, 64, 76
4, 133335, Note_off_c, 0, 64, 64
4, 133445, Note_on_c, 0, 64, 112
4, 133665, Note_off_c, 0, 64, 64
4, 133685, Note_on_c, 0, 62, 71
4, 133850, Note_off_c, 0, 62, 64
4, 133920, Note_on_c, 0, 62, 98
4, 134085, Note_off_c, 0, 62, 64
4, 134155, Note_on_c, 0, 62, 95
4, 135955, Note_off_c, 0, 62, 64
4, 139675, Note_on_c, 0, 60, 83
4, 139820, Note_off_c, 0, 60, 64
4, 139910, Note_on_c, 0, 60, 69
4, 140045, Note_off_c, 0, 60, 64
4, 140150, Note_on_c, 0, 60, 93
4, 140295, Note_off_c, 0, 60, 64
4, 140390, Note_on_c, 0, 60, 83
4, 140995, Note_off_c, 0, 60, 64
4, 141105, Note_on_c, 0, 60, 75
4, 141295, Note_off_c, 0, 60, 64
4, 141350, Note_on_c, 0, 60, 85
4, 141775, Note_off_c, 0, 60, 64
4, 141825, Note_on_c, 0, 67, 87
4, 142470, Note_off_c, 0, 67, 64
4, 142555, Note_on_c, 0, 67, 93
4, 143035, Note_on_c, 0, 63, 114
4, 143075, Note_off_c, 0, 67, 64
4, 143275, Note_on_c, 0, 62, 85
4, 143305, Note_off_c, 0, 63, 64
4, 143495, Note_off_c, 0, 62, 64
4, 143515, Note_on_c, 0, 60, 85
4, 144360, Note_off_c, 0, 60, 64
4, 147355, Note_on_c, 0, 65, 100
4, 147460, Note_off_c, 0, 65, 64
4, 147595, Note_on_c, 0, 65, 81
4, 147685, Note_off_c, 0, 65, 64
4, 147840, Note_on_c, 0, 65, 112
4, 148055, Note_off_c, 0, 65, 64
4, 148070, Note_on_c, 0, 64, 72
4, 148250, Note_off_c, 0, 64, 64
4, 148315, Note_on_c, 0, 64, 93
4, 148710, Note_off_c, 0, 64, 64
4, 148795, Note_on_c, 0, 64, 108
4, 149015, Note_off_c, 0, 64, 64
4, 149030, Note_on_c, 0, 62, 79
4, 149215, Note_off_c, 0, 62, 64
4, 149275, Note_on_c, 0, 62, 100
4, 149630, Note_off_c, 0, 62, 64
4, 149750, Note_on_c, 0, 62, 95
4, 149995, Note_on_c, 0, 60, 79
4, 150020, Note_off_c, 0, 62, 64
4, 151180, Note_off_c, 0, 60, 64
4, 154550, Note_on_c, 0, 58, 114
4, 154760, Note_off_c, 0, 58, 64
4, 154790, Note_on_c, 0, 57, 95
4, 155225, Note_off_c, 0, 57, 64
4, 155270, Note_on_c, 0, 58, 108
4, 155750, Note_on_c, 0, 57, 83
4, 155805, Note_off_c, 0, 58, 64
4, 156000, Note_off_c, 0, 57, 64
4, 156000, Note_on_c, 0, 53, 86
4, 157470, Note_off_c, 0, 53, 64
4, 185750, Note_on_c, 0, 65, 79
4, 185985, Note_on_c, 0, 67, 87
4, 186000, Note_off_c, 0, 65, 64
4, 186185, Note_off_c, 0, 67, 64
4, 186240, Note_on_c, 0, 67, 112
4, 186635, Note_off_c, 0, 67, 64
4, 186715, Note_on_c, 0, 67, 85
4, 187090, Note_off_c, 0, 67, 64
4, 187190, Note_on_c, 0, 67, 100
4, 187595, Note_off_c, 0, 67, 64
4, 187675, Note_on_c, 0, 67, 112
4, 188050, Note_off_c, 0, 67, 64
4, 188155, Note_on_c, 0, 67, 120
4, 188540, Note_off_c, 0, 67, 64
4, 188635, Note_on_c, 0, 67, 117
4, 189110, Note_on_c, 0, 63, 112
4, 189115, Note_off_c, 0, 67, 64
4, 189345, Note_on_c, 0, 62, 86
4, 189400, Note_off_c, 0, 63, 64
4, 189585, Note_on_c, 0, 60, 108
4, 189605, Note_off_c, 0, 62, 64
4, 191875, Note_off_c, 0, 60, 64
4, 193425, Note_on_c, 0, 62, 104
4, 193670, Note_on_c, 0, 64, 112
4, 193715, Note_off_c, 0, 62, 64
4, 193885, Note_off_c, 0, 64, 64
4, 193910, Note_on_c, 0, 65, 108
4, 194280, Note_off_c, 0, 65, 64
4, 194390, Note_on_c, 0, 65, 112
4, 194765, Note_off_c, 0, 65, 64
4, 194870, Note_on_c, 0, 65, 86
4, 195295, Note_off_c, 0, 65, 64
4, 195365, Note_on_c, 0, 65, 93
4, 195510, Note_off_c, 0, 65, 64
4, 195600, Note_on_c, 0, 65, 111
4, 195995, Note_off_c, 0, 65, 64
4, 196075, Note_on_c, 0, 65, 83
4, 196200, Note_off_c, 0, 65, 64
4, 196310, Note_on_c, 0, 65, 104
4, 196445, Note_off_c, 0, 65, 64
4, 196550, Note_on_c, 0, 65, 108
4, 196725, Note_off_c, 0, 65, 64
4, 196790, Note_on_c, 0, 60, 104
4, 197270, Note_on_c, 0, 58, 87
4, 197275, Note_off_c, 0, 60, 64
4, 199215, Note_off_c, 0, 58, 64
4, 200870, Note_on_c, 0, 65, 123
4, 201035, Note_off_c, 0, 65, 64
4, 201115, Note_on_c, 0, 65, 76
4, 201250, Note_off_c, 0, 65, 64
4, 201355, Note_on_c, 0, 65, 104
4, 201520, Note_off_c, 0, 65, 64
4, 201595, Note_on_c, 0, 67, 114
4, 201990, Note_off_c, 0, 67, 64
4, 202075, Note_on_c, 0, 67, 114
4, 202410, Note_off_c, 0, 67, 64
4, 202550, Note_on_c, 0, 67, 114
4, 205140, Note_off_c, 0, 67, 64
4, 205190, Note_on_c, 0, 69, 111
4, 205670, Note_on_c, 0, 67, 114
4, 205680, Note_off_c, 0, 69, 64
4, 206055, Note_off_c, 0, 67, 64
4, 206150, Note_on_c, 0, 67, 98
4, 206335, Note_off_c, 0, 67, 64
4, 206395, Note_on_c, 0, 67, 108
4, 208755, Note_off_c, 0, 67, 64
4, 208790, Note_on_c, 0, 65, 104
4, 209215, Note_off_c, 0, 65, 64
4, 209270, Note_on_c, 0, 65, 114
4, 209475, Note_off_c, 0, 65, 64
4, 209510, Note_on_c, 0, 64, 98
4, 209715, Note_off_c, 0, 64, 64
4, 209755, Note_on_c, 0, 64, 87
4, 210175, Note_off_c, 0, 64, 64
4, 210235, Note_on_c, 0, 64, 111
4, 210455, Note_off_c, 0, 64, 64
4, 210470, Note_on_c, 0, 62, 85
4, 210665, Note_off_c, 0, 62, 64
4, 210710, Note_on_c, 0, 62, 111
4, 211115, Note_off_c, 0, 62, 64
4, 211185, Note_on_c, 0, 62, 90
4, 211430, Note_on_c, 0, 60, 93
4, 211455, Note_off_c, 0, 62, 64
4, 212200, Note_off_c, 0, 60, 64
4, 212630, Note_on_c, 0, 57, 104
4, 212805, Note_off_c, 0, 57, 64
4, 212875, Note_on_c, 0, 57, 81
4, 213110, Note_on_c, 0, 58, 111
4, 213125, Note_off_c, 0, 57, 64
4, 213350, Note_on_c, 0, 57, 86
4, 213390, Note_off_c, 0, 58, 64
4, 214985, Note_off_c, 0, 57, 64
4, 215030, Note_on_c, 0, 58, 117
4, 216665, Note_off_c, 0, 58, 64
4, 216710, Note_on_c, 0, 57, 100
4, 216955, Note_on_c, 0, 58, 111
4, 217000, Note_off_c, 0, 57, 64
4, 217195, Note_on_c, 0, 57, 93
4, 217225, Note_off_c, 0, 58, 64
4, 217435, Note_off_c, 0, 57, 64
4, 217440, Note_on_c, 0, 53, 104
4, 219310, Note_off_c, 0, 53, 64
4, 220325, Note_on_c, 0, 60, 77
4, 220450, Note_off_c, 0, 60, 64
4, 220555, Note_on_c, 0, 60, 85
4, 220720, Note_off_c, 0, 60, 64
4, 220800, Note_on_c, 0, 60, 98
4, 220975, Note_off_c, 0, 60, 64
4, 221045, Note_on_c, 0, 60, 100
4, 221670, Note_off_c, 0, 60, 64
4, 221755, Note_on_c, 0, 60, 77
4, 221900, Note_off_c, 0, 60, 64
4, 221995, Note_on_c, 0, 60, 100
4, 222440, Note_off_c, 0, 60, 64
4, 222475, Note_on_c, 0, 67, 95
4, 223090, Note_off_c, 0, 67, 64
4, 223190, Note_on_c, 0, 67, 108
4, 223625, Note_off_c, 0, 67, 64
4, 223675, Note_on_c, 0, 63, 114
4, 223910, Note_on_c, 0, 62, 93
4, 223945, Note_off_c, 0, 63, 64
4, 224150, Note_on_c, 0, 60, 100
4, 224160, Note_off_c, 0, 62, 64
4, 225525, Note_off_c, 0, 60, 64
4, 227750, Note_on_c, 0, 65, 77
4, 227915, Note_off_c, 0, 65, 64
4, 227990, Note_on_c, 0, 65, 87
4, 228145, Note_off_c, 0, 65, 64
4, 228235, Note_on_c, 0, 65, 100
4, 228360, Note_off_c, 0, 65, 64
4, 228475, Note_on_c, 0, 65, 117
4, 228710, Note_on_c, 0, 64, 74
4, 228715, Note_off_c, 0, 65, 64
4, 228890, Note_off_c, 0, 64, 64
4, 228950, Note_on_c, 0, 64, 98
4, 229115, Note_off_c, 0, 64, 64
4, 229195, Note_on_c, 0, 64, 95
4, 229340, Note_off_c, 0, 64, 64
4, 229435, Note_on_c, 0, 64, 108
4, 229655, Note_off_c, 0, 64, 64
4, 229670, Note_on_c, 0, 62, 75
4, 229865, Note_off_c, 0, 62, 64
4, 229915, Note_on_c, 0, 62, 108
4, 230110, Note_off_c, 0, 62, 64
4, 230155, Note_on_c, 0, 62, 98
4, 231840, Note_off_c, 0, 62, 64
4, 235435, Note_on_c, 0, 65, 114
4, 235590, Note_off_c, 0, 65, 64
4, 235675, Note_on_c, 0, 65, 90
4, 235810, Note_off_c, 0, 65, 64
4, 235910, Note_on_c, 0, 65, 100
4, 236085, Note_off_c, 0, 65, 64
4, 236155, Note_on_c, 0, 67, 112
4, 236550, Note_off_c, 0, 67, 64
4, 236635, Note_on_c, 0, 67, 117
4, 237000, Note_off_c, 0, 67, 64
4, 237110, Note_on_c, 0, 67, 112
4, 239720, Note_off_c, 0, 67, 64
4, 239755, Note_on_c, 0, 69, 112
4, 240225, Note_off_c, 0, 69, 64
4, 240230, Note_on_c, 0, 67, 112
4, 240635, Note_off_c, 0, 67, 64
4, 240710, Note_on_c, 0, 67, 93
4, 240875, Note_off_c, 0, 67, 64
4, 240965, Note_on_c, 0, 67, 108
4, 243200, Note_off_c, 0, 67, 64
4, 243350, Note_on_c, 0, 65, 111
4, 243725, Note_off_c, 0, 65, 64
4, 243835, Note_on_c, 0, 65, 100
4, 244050, Note_off_c, 0, 65, 64
4, 244070, Note_on_c, 0, 64, 85
4, 244260, Note_off_c, 0, 64, 64
4, 244315, Note_on_c, 0, 64, 112
4, 244670, Note_off_c, 0, 64, 64
4, 244790, Note_on_c, 0, 64, 104
4, 244985, Note_off_c, 0, 64, 64
4, 245030, Note_on_c, 0, 62, 79
4, 245205, Note_off_c, 0, 62, 64
4, 245270, Note_on_c, 0, 62, 108
4, 245665, Note_off_c, 0, 62, 64
4, 245755, Note_on_c, 0, 62, 108
4, 245965, Note_off_c, 0, 62, 64
4, 245990, Note_on_c, 0, 60, 93
4, 246645, Note_off_c, 0, 60, 64
4, 247195, Note_on_c, 0, 57, 108
4, 247345, Note_off_c, 0, 57, 64
4, 247430, Note_on_c, 0, 57, 86
4, 247630, Note_off_c, 0, 57, 64
4, 247670, Note_on_c, 0, 58, 95
4, 247910, Note_on_c, 0, 57, 98
4, 247920, Note_off_c, 0, 58, 64
4, 249520, Note_off_c, 0, 57, 64
4, 249595, Note_on_c, 0, 58, 112
4, 251205, Note_off_c, 0, 58, 64
4, 251270, Note_on_c, 0, 57, 112
4, 251515, Note_on_c, 0, 58, 108
4, 251530, Note_off_c, 0, 57, 64
4, 251750, Note_on_c, 0, 57, 90
4, 251785, Note_off_c, 0, 58, 64
4, 251995, Note_on_c, 0, 53, 90
4, 252010, Note_off_c, 0, 57, 64
4, 253515, Note_off_c, 0, 53, 64
4, 253515, End_track
5, 0, Start_track
5, 0, Title_t, "Drums"
5, 0, MIDI_port, 0
5, 0, Channel_prefix, 9
5, 0, Control_c, 9, 7, 127
5, 0, Control_c, 9, 10, 64
5, 0, Program_c, 9, 0
5, 0, Control_c, 9, 91, 69
5, 0, Control_c, 9, 93, 0
5, 0, Note_on_c, 9, 42, 104
5, 70, Note_off_c, 9, 42, 64
5, 475, Note_on_c, 9, 42, 110
5, 575, Note_off_c, 9, 42, 64
5, 960, Note_on_c, 9, 40, 115
5, 960, Note_on_c, 9, 48, 86
5, 1035, Note_off_c, 9, 48, 64
5, 1185, Note_on_c, 9, 45, 79
5, 1195, Note_on_c, 9, 36, 86
5, 1265, Note_off_c, 9, 45, 64
5, 1275, Note_off_c, 9, 36, 64
5, 1430, Note_on_c, 9, 43, 63
5, 1435, Note_on_c, 9, 36, 101
5, 1490, Note_off_c, 9, 40, 64
5, 1515, Note_off_c, 9, 43, 64
5, 1600, Note_off_c, 9, 36, 64
5, 1665, Note_on_c, 9, 48, 71
5, 1670, Note_on_c, 9, 40, 101
5, 1725, Note_off_c, 9, 48, 64
5, 1890, Note_on_c, 9, 49, 57
5, 1920, Note_on_c, 9, 36, 88
5, 1920, Note_on_c, 9, 42, 92
5, 1925, Note_off_c, 9, 40, 64
5, 1940, Note_off_c, 9, 49, 64
5, 1980, Note_off_c, 9, 42, 64
5, 2145, Note_on_c, 9, 42, 54
5, 2190, Note_off_c, 9, 42, 64
5, 2380, Note_on_c, 9, 42, 72
5, 2400, Note_on_c, 9, 40, 103
5, 2410, Note_on_c, 9, 51, 45
5, 2460, Note_off_c, 9, 42, 64
5, 2490, Note_off_c, 9, 36, 64
5, 2615, Note_on_c, 9, 42, 62
5, 2640, Note_on_c, 9, 36, 88
5, 2680, Note_off_c, 9, 42, 64
5, 2735, Note_off_c, 9, 36, 64
5, 2870, Note_on_c, 9, 42, 72
5, 2880, Note_off_c, 9, 51, 64
5, 2880, Note_on_c, 9, 36, 86
5, 2950, Note_off_c, 9, 42, 64
5, 3105, Note_on_c, 9, 42, 54
5, 3160, Note_off_c, 9, 42, 64
5, 3210, Note_off_c, 9, 40, 64
5, 3340, Note_on_c, 9, 42, 81
5, 3350, Note_on_c, 9, 51, 45
5, 3360, Note_on_c, 9, 40, 101
5, 3430, Note_off_c, 9, 42, 64
5, 3495, Note_off_c, 9, 36, 64
5, 3585, Note_on_c, 9, 42, 56
5, 3600, Note_on_c, 9, 36, 63
5, 3660, Note_off_c, 9, 42, 64
5, 3720, Note_off_c, 9, 36, 64
5, 3825, Note_on_c, 9, 42, 72
5, 3840, Note_on_c, 9, 36, 76
5, 3915, Note_off_c, 9, 42, 64
5, 3995, Note_off_c, 9, 51, 64
5, 4065, Note_on_c, 9, 42, 62
5, 4105, Note_off_c, 9, 40, 64
5, 4130, Note_off_c, 9, 42, 64
5, 4300, Note_on_c, 9, 42, 75
5, 4310, Note_on_c, 9, 51, 54
5, 4320, Note_on_c, 9, 40, 108
5, 4390, Note_off_c, 9, 42, 64
5, 4445, Note_off_c, 9, 36, 64
5, 4550, Note_on_c, 9, 42, 59
5, 4560, Note_on_c, 9, 36, 64
5, 4620, Note_off_c, 9, 42, 64
5, 4705, Note_off_c, 9, 36, 64
5, 4800, Note_on_c, 9, 36, 84
5, 4800, Note_on_c, 9, 42, 72
5, 4885, Note_off_c, 9, 42, 64
5, 4990, Note_off_c, 9, 51, 64
5, 5040, Note_on_c, 9, 42, 52
5, 5095, Note_off_c, 9, 40, 64
5, 5100, Note_off_c, 9, 42, 64
5, 5275, Note_on_c, 9, 42, 72
5, 5280, Note_on_c, 9, 40, 108
5, 5280, Note_on_c, 9, 51, 48
5, 5365, Note_off_c, 9, 36, 64
5, 5365, Note_off_c, 9, 42, 64
5, 5510, Note_on_c, 9, 42, 59
5, 5520, Note_on_c, 9, 36, 91
5, 5585, Note_off_c, 9, 42, 64
5, 5635, Note_off_c, 9, 36, 64
5, 5755, Note_on_c, 9, 42, 75
5, 5760, Note_on_c, 9, 36, 86
5, 5850, Note_off_c, 9, 42, 64
5, 5995, Note_on_c, 9, 42, 54
5, 6005, Note_off_c, 9, 51, 64
5, 6060, Note_off_c, 9, 42, 64
5, 6070, Note_off_c, 9, 40, 64
5, 6240, Note_on_c, 9, 40, 103
5, 6245, Note_on_c, 9, 51, 56
5, 6250, Note_on_c, 9, 42, 72
5, 6320, Note_off_c, 9, 42, 64
5, 6335, Note_off_c, 9, 36, 64
5, 6480, Note_on_c, 9, 36, 76
5, 6495, Note_on_c, 9, 42, 64
5, 6555, Note_off_c, 9, 42, 64
5, 6605, Note_off_c, 9, 36, 64
5, 6720, Note_on_c, 9, 36, 81
5, 6725, Note_on_c, 9, 42, 72
5, 6805, Note_off_c, 9, 42, 64
5, 6960, Note_on_c, 9, 42, 59
5, 6965, Note_off_c, 9, 51, 64
5, 7005, Note_off_c, 9, 40, 64
5, 7035, Note_off_c, 9, 42, 64
5, 7190, Note_on_c, 9, 51, 52
5, 7195, Note_on_c, 9, 42, 69
5, 7200, Note_on_c, 9, 40, 108
5, 7270, Note_off_c, 9, 36, 64
5, 7280, Note_off_c, 9, 42, 64
5, 7435, Note_on_c, 9, 42, 54
5, 7440, Note_on_c, 9, 36, 76
5, 7505, Note_off_c, 9, 42, 64
5, 7540, Note_off_c, 9, 36, 64
5, 7670, Note_on_c, 9, 42, 64
5, 7680, Note_on_c, 9, 36, 74
5, 7755, Note_off_c, 9, 42, 64
5, 7915, Note_on_c, 9, 42, 50
5, 7960, Note_off_c, 9, 51, 64
5, 7960, Note_off_c, 9, 40, 64
5, 7975, Note_off_c, 9, 42, 64
5, 8160, Note_on_c, 9, 40, 108
5, 8160, Note_on_c, 9, 42, 75
5, 8175, Note_on_c, 9, 51, 56
5, 8245, Note_off_c, 9, 42, 64
5, 8270, Note_off_c, 9, 36, 64
5, 8400, Note_on_c, 9, 36, 84
5, 8400, Note_on_c, 9, 42, 62
5, 8480, Note_off_c, 9, 42, 64
5, 8500, Note_off_c, 9, 36, 64
5, 8640, Note_on_c, 9, 36, 78
5, 8640, Note_on_c, 9, 42, 75
5, 8725, Note_off_c, 9, 42, 64
5, 8875, Note_off_c, 9, 51, 64
5, 8885, Note_on_c, 9, 42, 59
5, 8945, Note_off_c, 9, 40, 64
5, 8950, Note_off_c, 9, 42, 64
5, 9120, Note_on_c, 9, 40, 106
5, 9125, Note_on_c, 9, 42, 72
5, 9130, Note_on_c, 9, 51, 52
5, 9190, Note_off_c, 9, 36, 64
5, 9205, Note_off_c, 9, 42, 64
5, 9360, Note_on_c, 9, 36, 74
5, 9365, Note_on_c, 9, 42, 59
5, 9435, Note_off_c, 9, 42, 64
5, 9480, Note_off_c, 9, 36, 64
5, 9600, Note_on_c, 9, 36, 88
5, 9600, Note_on_c, 9, 42, 92
5, 9660, Note_off_c, 9, 42, 64
5, 9700, Note_off_c, 9, 40, 64
5, 9775, Note_off_c, 9, 51, 64
5, 9825, Note_on_c, 9, 42, 54
5, 9870, Note_off_c, 9, 42, 64
5, 10055, Note_on_c, 9, 51, 50
5, 10060, Note_on_c, 9, 42, 72
5, 10080, Note_on_c, 9, 40, 103
5, 10140, Note_off_c, 9, 42, 64
5, 10170, Note_off_c, 9, 36, 64
5, 10295, Note_on_c, 9, 42, 62
5, 10320, Note_on_c, 9, 36, 88
5, 10360, Note_off_c, 9, 42, 64
5, 10415, Note_off_c, 9, 36, 64
5, 10550, Note_on_c, 9, 42, 72
5, 10560, Note_on_c, 9, 36, 86
5, 10630, Note_off_c, 9, 42, 64
5, 10785, Note_off_c, 9, 51, 64
5, 10785, Note_on_c, 9, 42, 54
5, 10840, Note_off_c, 9, 42, 64
5, 10890, Note_off_c, 9, 40, 64
5, 11020, Note_on_c, 9, 42, 81
5, 11035, Note_on_c, 9, 51, 54
5, 11040, Note_on_c, 9, 40, 101
5, 11110, Note_off_c, 9, 42, 64
5, 11175, Note_off_c, 9, 36, 64
5, 11265, Note_on_c, 9, 42, 56
5, 11280, Note_on_c, 9, 36, 63
5, 11340, Note_off_c, 9, 42, 64
5, 11400, Note_off_c, 9, 36, 64
5, 11505, Note_on_c, 9, 42, 72
5, 11520, Note_on_c, 9, 36, 76
5, 11595, Note_off_c, 9, 42, 64
5, 11710, Note_off_c, 9, 51, 64
5, 11745, Note_on_c, 9, 42, 62
5, 11785, Note_off_c, 9, 40, 64
5, 11810, Note_off_c, 9, 42, 64
5, 11980, Note_on_c, 9, 42, 75
5, 11990, Note_on_c, 9, 51, 59
5, 12000, Note_on_c, 9, 40, 108
5, 12070, Note_off_c, 9, 42, 64
5, 12125, Note_off_c, 9, 36, 64
5, 12230, Note_on_c, 9, 42, 59
5, 12240, Note_on_c, 9, 36, 64
5, 12300, Note_off_c, 9, 42, 64
5, 12385, Note_off_c, 9, 36, 64
5, 12480, Note_on_c, 9, 36, 84
5, 12480, Note_on_c, 9, 42, 72
5, 12565, Note_off_c, 9, 42, 64
5, 12695, Note_off_c, 9, 51, 64
5, 12720, Note_on_c, 9, 42, 52
5, 12775, Note_off_c, 9, 40, 64
5, 12780, Note_off_c, 9, 42, 64
5, 12955, Note_on_c, 9, 42, 72
5, 12960, Note_on_c, 9, 40, 108
5, 12975, Note_on_c, 9, 51, 45
5, 13045, Note_off_c, 9, 36, 64
5, 13045, Note_off_c, 9, 42, 64
5, 13190, Note_on_c, 9, 42, 59
5, 13200, Note_on_c, 9, 36, 91
5, 13265, Note_off_c, 9, 42, 64
5, 13315, Note_off_c, 9, 36, 64
5, 13435, Note_on_c, 9, 42, 75
5, 13440, Note_on_c, 9, 36, 86
5, 13530, Note_off_c, 9, 42, 64
5, 13640, Note_off_c, 9, 51, 64
5, 13675, Note_on_c, 9, 42, 54
5, 13740, Note_off_c, 9, 42, 64
5, 13750, Note_off_c, 9, 40, 64
5, 13910, Note_on_c, 9, 51, 45
5, 13920, Note_on_c, 9, 40, 103
5, 13930, Note_on_c, 9, 42, 72
5, 14000, Note_off_c, 9, 42, 64
5, 14015, Note_off_c, 9, 36, 64
5, 14160, Note_on_c, 9, 36, 76
5, 14175, Note_on_c, 9, 42, 64
5, 14235, Note_off_c, 9, 42, 64
5, 14285, Note_off_c, 9, 36, 64
5, 14400, Note_on_c, 9, 36, 81
5, 14405, Note_on_c, 9, 42, 72
5, 14485, Note_off_c, 9, 42, 64
5, 14560, Note_off_c, 9, 51, 64
5, 14640, Note_on_c, 9, 42, 59
5, 14685, Note_off_c, 9, 40, 64
5, 14715, Note_off_c, 9, 42, 64
5, 14875, Note_on_c, 9, 42, 69
5, 14880, Note_on_c, 9, 40, 108
5, 14890, Note_on_c, 9, 51, 52
5, 14950, Note_off_c, 9, 36, 64
5, 14960, Note_off_c, 9, 42, 64
5, 15115, Note_on_c, 9, 42, 54
5, 15120, Note_on_c, 9, 36, 76
5, 15185, Note_off_c, 9, 42, 64
5, 15220, Note_off_c, 9, 36, 64
5, 15350, Note_on_c, 9, 42, 64
5, 15360, Note_on_c, 9, 36, 74
5, 15435, Note_off_c, 9, 42, 64
5, 15530, Note_off_c, 9, 51, 64
5, 15595, Note_on_c, 9, 42, 50
5, 15640, Note_off_c, 9, 40, 64
5, 15655, Note_off_c, 9, 42, 64
5, 15840, Note_on_c, 9, 40, 108
5, 15840, Note_on_c, 9, 42, 75
5, 15845, Note_on_c, 9, 51, 52
5, 15925, Note_off_c, 9, 42, 64
5, 15950, Note_off_c, 9, 36, 64
5, 16080, Note_on_c, 9, 36, 84
5, 16080, Note_on_c, 9, 42, 62
5, 16160, Note_off_c, 9, 42, 64
5, 16180, Note_off_c, 9, 36, 64
5, 16320, Note_on_c, 9, 36, 78
5, 16320, Note_on_c, 9, 42, 75
5, 16405, Note_off_c, 9, 42, 64
5, 16495, Note_off_c, 9, 51, 64
5, 16565, Note_on_c, 9, 42, 59
5, 16625, Note_off_c, 9, 40, 64
5, 16630, Note_off_c, 9, 42, 64
5, 16800, Note_on_c, 9, 40, 106
5, 16805, Note_on_c, 9, 42, 72
5, 16815, Note_on_c, 9, 51, 54
5, 16870, Note_off_c, 9, 36, 64
5, 16885, Note_off_c, 9, 42, 64
5, 17040, Note_on_c, 9, 36, 74
5, 17045, Note_on_c, 9, 42, 59
5, 17115, Note_off_c, 9, 42, 64
5, 17160, Note_off_c, 9, 36, 64
5, 17280, Note_on_c, 9, 36, 88
5, 17280, Note_on_c, 9, 42, 92
5, 17340, Note_off_c, 9, 42, 64
5, 17380, Note_off_c, 9, 40, 64
5, 17440, Note_off_c, 9, 51, 64
5, 17505, Note_on_c, 9, 42, 54
5, 17550, Note_off_c, 9, 42, 64
5, 17740, Note_on_c, 9, 42, 72
5, 17760, Note_on_c, 9, 40, 103
5, 17765, Note_on_c, 9, 51, 54
5, 17820, Note_off_c, 9, 42, 64
5, 17850, Note_off_c, 9, 36, 64
5, 17975, Note_on_c, 9, 42, 62
5, 18000, Note_on_c, 9, 36, 88
5, 18040, Note_off_c, 9, 42, 64
5, 18095, Note_off_c, 9, 36, 64
5, 18230, Note_on_c, 9, 42, 72
5, 18240, Note_on_c, 9, 36, 86
5, 18310, Note_off_c, 9, 42, 64
5, 18395, Note_off_c, 9, 51, 64
5, 18465, Note_on_c, 9, 42, 54
5, 18520, Note_off_c, 9, 42, 64
5, 18570, Note_off_c, 9, 40, 64
5, 18700, Note_on_c, 9, 42, 81
5, 18720, Note_on_c, 9, 40, 101
5, 18720, Note_on_c, 9, 51, 52
5, 18790, Note_off_c, 9, 42, 64
5, 18855, Note_off_c, 9, 36, 64
5, 18945, Note_on_c, 9, 42, 56
5, 18960, Note_on_c, 9, 36, 63
5, 19020, Note_off_c, 9, 42, 64
5, 19080, Note_off_c, 9, 36, 64
5, 19185, Note_on_c, 9, 42, 72
5, 19200, Note_on_c, 9, 36, 76
5, 19275, Note_off_c, 9, 42, 64
5, 19340, Note_off_c, 9, 51, 64
5, 19425, Note_on_c, 9, 42, 62
5, 19465, Note_off_c, 9, 40, 64
5, 19490, Note_off_c, 9, 42, 64
5, 19660, Note_on_c, 9, 42, 75
5, 19680, Note_on_c, 9, 40, 108
5, 19685, Note_on_c, 9, 51, 45
5, 19750, Note_off_c, 9, 42, 64
5, 19805, Note_off_c, 9, 36, 64
5, 19910, Note_on_c, 9, 42, 59
5, 19920, Note_on_c, 9, 36, 64
5, 19980, Note_off_c, 9, 42, 64
5, 20065, Note_off_c, 9, 36, 64
5, 20160, Note_off_c, 9, 51, 64
5, 20160, Note_on_c, 9, 36, 84
5, 20160, Note_on_c, 9, 42, 72
5, 20245, Note_off_c, 9, 42, 64
5, 20400, Note_on_c, 9, 42, 52
5, 20455, Note_off_c, 9, 40, 64
5, 20460, Note_off_c, 9, 42, 64
5, 20635, Note_on_c, 9, 42, 72
5, 20640, Note_on_c, 9, 40, 108
5, 20650, Note_on_c, 9, 51, 47
5, 20725, Note_off_c, 9, 36, 64
5, 20725, Note_off_c, 9, 42, 64
5, 20870, Note_on_c, 9, 42, 59
5, 20880, Note_on_c, 9, 36, 91
5, 20945, Note_off_c, 9, 42, 64
5, 20995, Note_off_c, 9, 36, 64
5, 21115, Note_on_c, 9, 42, 75
5, 21120, Note_on_c, 9, 36, 86
5, 21175, Note_off_c, 9, 51, 64
5, 21210, Note_off_c, 9, 42, 64
5, 21355, Note_on_c, 9, 42, 54
5, 21420, Note_off_c, 9, 42, 64
5, 21430, Note_off_c, 9, 40, 64
5, 21600, Note_on_c, 9, 40, 103
5, 21610, Note_on_c, 9, 42, 72
5, 21610, Note_on_c, 9, 51, 45
5, 21680, Note_off_c, 9, 42, 64
5, 21695, Note_off_c, 9, 36, 64
5, 21840, Note_on_c, 9, 36, 76
5, 21855, Note_on_c, 9, 42, 64
5, 21915, Note_off_c, 9, 42, 64
5, 21965, Note_off_c, 9, 36, 64
5, 22080, Note_off_c, 9, 51, 64
5, 22080, Note_on_c, 9, 36, 81
5, 22085, Note_on_c, 9, 42, 72
5, 22165, Note_off_c, 9, 42, 64
5, 22320, Note_on_c, 9, 42, 59
5, 22365, Note_off_c, 9, 40, 64
5, 22395, Note_off_c, 9, 42, 64
5, 22550, Note_on_c, 9, 51, 45
5, 22555, Note_on_c, 9, 42, 69
5, 22560, Note_on_c, 9, 40, 108
5, 22630, Note_off_c, 9, 36, 64
5, 22640, Note_off_c, 9, 42, 64
5, 22795, Note_on_c, 9, 42, 54
5, 22800, Note_on_c, 9, 36, 76
5, 22865, Note_off_c, 9, 42, 64
5, 22900, Note_off_c, 9, 36, 64
5, 23030, Note_on_c, 9, 42, 64
5, 23040, Note_on_c, 9, 36, 74
5, 23115, Note_off_c, 9, 42, 64
5, 23195, Note_off_c, 9, 51, 64
5, 23275, Note_on_c, 9, 42, 50
5, 23320, Note_off_c, 9, 40, 64
5, 23335, Note_off_c, 9, 42, 64
5, 23510, Note_on_c, 9, 51, 54
5, 23520, Note_on_c, 9, 40, 108
5, 23520, Note_on_c, 9, 42, 75
5, 23605, Note_off_c, 9, 42, 64
5, 23630, Note_off_c, 9, 36, 64
5, 23760, Note_on_c, 9, 36, 84
5, 23760, Note_on_c, 9, 42, 62
5, 23840, Note_off_c, 9, 42, 64
5, 23860, Note_off_c, 9, 36, 64
5, 24000, Note_on_c, 9, 36, 78
5, 24000, Note_on_c, 9, 42, 75
5, 24085, Note_off_c, 9, 42, 64
5, 24190, Note_off_c, 9, 51, 64
5, 24245, Note_on_c, 9, 42, 59
5, 24305, Note_off_c, 9, 40, 64
5, 24310, Note_off_c, 9, 42, 64
5, 24480, Note_on_c, 9, 40, 106
5, 24480, Note_on_c, 9, 51, 48
5, 24485, Note_on_c, 9, 42, 72
5, 24550, Note_off_c, 9, 36, 64
5, 24565, Note_off_c, 9, 42, 64
5, 24720, Note_on_c, 9, 36, 74
5, 24725, Note_on_c, 9, 42, 59
5, 24795, Note_off_c, 9, 42, 64
5, 24840, Note_off_c, 9, 36, 64
5, 24960, Note_on_c, 9, 36, 88
5, 24960, Note_on_c, 9, 42, 92
5, 25020, Note_off_c, 9, 42, 64
5, 25060, Note_off_c, 9, 40, 64
5, 25185, Note_on_c, 9, 42, 54
5, 25205, Note_off_c, 9, 51, 64
5, 25230, Note_off_c, 9, 42, 64
5, 25420, Note_on_c, 9, 42, 72
5, 25440, Note_on_c, 9, 40, 103
5, 25445, Note_on_c, 9, 51, 56
5, 25500, Note_off_c, 9, 42, 64
5, 25530, Note_off_c, 9, 36, 64
5, 25655, Note_on_c, 9, 42, 62
5, 25680, Note_on_c, 9, 36, 88
5, 25720, Note_off_c, 9, 42, 64
5, 25775, Note_off_c, 9, 36, 64
5, 25910, Note_on_c, 9, 42, 72
5, 25920, Note_on_c, 9, 36, 86
5, 25990, Note_off_c, 9, 42, 64
5, 26145, Note_on_c, 9, 42, 54
5, 26165, Note_off_c, 9, 51, 64
5, 26200, Note_off_c, 9, 42, 64
5, 26250, Note_off_c, 9, 40, 64
5, 26380, Note_on_c, 9, 42, 81
5, 26390, Note_on_c, 9, 51, 52
5, 26400, Note_on_c, 9, 40, 101
5, 26470, Note_off_c, 9, 42, 64
5, 26535, Note_off_c, 9, 36, 64
5, 26625, Note_on_c, 9, 42, 56
5, 26640, Note_on_c, 9, 36, 63
5, 26700, Note_off_c, 9, 42, 64
5, 26760, Note_off_c, 9, 36, 64
5, 26865, Note_on_c, 9, 42, 72
5, 26880, Note_on_c, 9, 36, 76
5, 26955, Note_off_c, 9, 42, 64
5, 27105, Note_on_c, 9, 42, 62
5, 27145, Note_off_c, 9, 40, 64
5, 27160, Note_off_c, 9, 51, 64
5, 27170, Note_off_c, 9, 42, 64
5, 27340, Note_on_c, 9, 42, 75
5, 27360, Note_on_c, 9, 40, 108
5, 27375, Note_on_c, 9, 51, 56
5, 27430, Note_off_c, 9, 42, 64
5, 27485, Note_off_c, 9, 36, 64
5, 27590, Note_on_c, 9, 42, 59
5, 27600, Note_on_c, 9, 36, 64
5, 27660, Note_off_c, 9, 42, 64
5, 27745, Note_off_c, 9, 36, 64
5, 27840, Note_on_c, 9, 36, 84
5, 27840, Note_on_c, 9, 42, 72
5, 27925, Note_off_c, 9, 42, 64
5, 28075, Note_off_c, 9, 51, 64
5, 28080, Note_on_c, 9, 42, 52
5, 28135, Note_off_c, 9, 40, 64
5, 28140, Note_off_c, 9, 42, 64
5, 28315, Note_on_c, 9, 42, 72
5, 28320, Note_on_c, 9, 40, 108
5, 28330, Note_on_c, 9, 51, 52
5, 28405, Note_off_c, 9, 36, 64
5, 28405, Note_off_c, 9, 42, 64
5, 28550, Note_on_c, 9, 42, 59
5, 28560, Note_on_c, 9, 36, 91
5, 28625, Note_off_c, 9, 42, 64
5, 28675, Note_off_c, 9, 36, 64
5, 28795, Note_on_c, 9, 42, 75
5, 28800, Note_on_c, 9, 36, 86
5, 28890, Note_off_c, 9, 42, 64
5, 28975, Note_off_c, 9, 51, 64
5, 29035, Note_on_c, 9, 42, 54
5, 29100, Note_off_c, 9, 42, 64
5, 29110, Note_off_c, 9, 40, 64
5, 29255, Note_on_c, 9, 51, 50
5, 29280, Note_on_c, 9, 40, 103
5, 29290, Note_on_c, 9, 42, 72
5, 29360, Note_off_c, 9, 42, 64
5, 29375, Note_off_c, 9, 36, 64
5, 29520, Note_on_c, 9, 36, 76
5, 29535, Note_on_c, 9, 42, 64
5, 29595, Note_off_c, 9, 42, 64
5, 29645, Note_off_c, 9, 36, 64
5, 29760, Note_on_c, 9, 36, 81
5, 29765, Note_on_c, 9, 42, 72
5, 29845, Note_off_c, 9, 42, 64
5, 29985, Note_off_c, 9, 51, 64
5, 30000, Note_on_c, 9, 42, 59
5, 30045, Note_off_c, 9, 40, 64
5, 30075, Note_off_c, 9, 42, 64
5, 30235, Note_on_c, 9, 42, 69
5, 30235, Note_on_c, 9, 51, 54
5, 30240, Note_on_c, 9, 40, 108
5, 30310, Note_off_c, 9, 36, 64
5, 30320, Note_off_c, 9, 42, 64
5, 30475, Note_on_c, 9, 42, 54
5, 30480, Note_on_c, 9, 36, 76
5, 30545, Note_off_c, 9, 42, 64
5, 30580, Note_off_c, 9, 36, 64
5, 30710, Note_on_c, 9, 42, 64
5, 30720, Note_on_c, 9, 36, 74
5, 30795, Note_off_c, 9, 42, 64
5, 30910, Note_off_c, 9, 51, 64
5, 30955, Note_on_c, 9, 42, 50
5, 31000, Note_off_c, 9, 40, 64
5, 31015, Note_off_c, 9, 42, 64
5, 31190, Note_on_c, 9, 51, 59
5, 31200, Note_on_c, 9, 40, 108
5, 31200, Note_on_c, 9, 42, 75
5, 31285, Note_off_c, 9, 42, 64
5, 31310, Note_off_c, 9, 36, 64
5, 31440, Note_on_c, 9, 36, 84
5, 31440, Note_on_c, 9, 42, 62
5, 31520, Note_off_c, 9, 42, 64
5, 31540, Note_off_c, 9, 36, 64
5, 31680, Note_on_c, 9, 36, 78
5, 31680, Note_on_c, 9, 42, 75
5, 31765, Note_off_c, 9, 42, 64
5, 31895, Note_off_c, 9, 51, 64
5, 31925, Note_on_c, 9, 42, 59
5, 31985, Note_off_c, 9, 40, 64
5, 31990, Note_off_c, 9, 42, 64
5, 32160, Note_on_c, 9, 40, 106
5, 32165, Note_on_c, 9, 42, 72
5, 32175, Note_on_c, 9, 51, 45
5, 32230, Note_off_c, 9, 36, 64
5, 32245, Note_off_c, 9, 42, 64
5, 32400, Note_on_c, 9, 36, 74
5, 32405, Note_on_c, 9, 42, 59
5, 32475, Note_off_c, 9, 42, 64
5, 32520, Note_off_c, 9, 36, 64
5, 32640, Note_on_c, 9, 36, 88
5, 32640, Note_on_c, 9, 42, 92
5, 32700, Note_off_c, 9, 42, 64
5, 32740, Note_off_c, 9, 40, 64
5, 32840, Note_off_c, 9, 51, 64
5, 32865, Note_on_c, 9, 42, 54
5, 32910, Note_off_c, 9, 42, 64
5, 33100, Note_on_c, 9, 42, 72
5, 33110, Note_on_c, 9, 51, 45
5, 33120, Note_on_c, 9, 40, 103
5, 33180, Note_off_c, 9, 42, 64
5, 33210, Note_off_c, 9, 36, 64
5, 33335, Note_on_c, 9, 42, 62
5, 33360, Note_on_c, 9, 36, 88
5, 33400, Note_off_c, 9, 42, 64
5, 33455, Note_off_c, 9, 36, 64
5, 33590, Note_on_c, 9, 42, 72
5, 33600, Note_on_c, 9, 36, 86
5, 33670, Note_off_c, 9, 42, 64
5, 33760, Note_off_c, 9, 51, 64
5, 33825, Note_on_c, 9, 42, 54
5, 33880, Note_off_c, 9, 42, 64
5, 33930, Note_off_c, 9, 40, 64
5, 34060, Note_on_c, 9, 42, 81
5, 34080, Note_on_c, 9, 40, 101
5, 34090, Note_on_c, 9, 51, 52
5, 34150, Note_off_c, 9, 42, 64
5, 34215, Note_off_c, 9, 36, 64
5, 34305, Note_on_c, 9, 42, 56
5, 34320, Note_on_c, 9, 36, 63
5, 34380, Note_off_c, 9, 42, 64
5, 34440, Note_off_c, 9, 36, 64
5, 34545, Note_on_c, 9, 42, 72
5, 34560, Note_on_c, 9, 36, 76
5, 34635, Note_off_c, 9, 42, 64
5, 34730, Note_off_c, 9, 51, 64
5, 34785, Note_on_c, 9, 42, 62
5, 34825, Note_off_c, 9, 40, 64
5, 34850, Note_off_c, 9, 42, 64
5, 35020, Note_on_c, 9, 42, 75
5, 35040, Note_on_c, 9, 40, 108
5, 35045, Note_on_c, 9, 51, 52
5, 35110, Note_off_c, 9, 42, 64
5, 35165, Note_off_c, 9, 36, 64
5, 35270, Note_on_c, 9, 42, 59
5, 35280, Note_on_c, 9, 36, 64
5, 35340, Note_off_c, 9, 42, 64
5, 35425, Note_off_c, 9, 36, 64
5, 35520, Note_on_c, 9, 36, 84
5, 35520, Note_on_c, 9, 42, 72
5, 35605, Note_off_c, 9, 42, 64
5, 35695, Note_off_c, 9, 51, 64
5, 35760, Note_on_c, 9, 42, 52
5, 35815, Note_off_c, 9, 40, 64
5, 35820, Note_off_c, 9, 42, 64
5, 35995, Note_on_c, 9, 42, 72
5, 36000, Note_on_c, 9, 40, 108
5, 36015, Note_on_c, 9, 51, 54
5, 36085, Note_off_c, 9, 36, 64
5, 36085, Note_off_c, 9, 42, 64
5, 36230, Note_on_c, 9, 42, 59
5, 36240, Note_on_c, 9, 36, 91
5, 36305, Note_off_c, 9, 42, 64
5, 36355, Note_off_c, 9, 36, 64
5, 36475, Note_on_c, 9, 42, 75
5, 36480, Note_on_c, 9, 36, 86
5, 36570, Note_off_c, 9, 42, 64
5, 36640, Note_off_c, 9, 51, 64
5, 36715, Note_on_c, 9, 42, 54
5, 36780, Note_off_c, 9, 42, 64
5, 36790, Note_off_c, 9, 40, 64
5, 36960, Note_on_c, 9, 40, 103
5, 36965, Note_on_c, 9, 51, 54
5, 36970, Note_on_c, 9, 42, 72
5, 37040, Note_off_c, 9, 42, 64
5, 37055, Note_off_c, 9, 36, 64
5, 37200, Note_on_c, 9, 36, 76
5, 37215, Note_on_c, 9, 42, 64
5, 37275, Note_off_c, 9, 42, 64
5, 37325, Note_off_c, 9, 36, 64
5, 37440, Note_on_c, 9, 36, 81
5, 37445, Note_on_c, 9, 42, 72
5, 37525, Note_off_c, 9, 42, 64
5, 37595, Note_off_c, 9, 51, 64
5, 37680, Note_on_c, 9, 42, 59
5, 37725, Note_off_c, 9, 40, 64
5, 37755, Note_off_c, 9, 42, 64
5, 37915, Note_on_c, 9, 42, 69
5, 37920, Note_on_c, 9, 40, 108
5, 37920, Note_on_c, 9, 51, 52
5, 37990, Note_off_c, 9, 36, 64
5, 38000, Note_off_c, 9, 42, 64
5, 38155, Note_on_c, 9, 42, 54
5, 38160, Note_on_c, 9, 36, 76
5, 38225, Note_off_c, 9, 42, 64
5, 38260, Note_off_c, 9, 36, 64
5, 38390, Note_on_c, 9, 42, 64
5, 38400, Note_on_c, 9, 36, 74
5, 38475, Note_off_c, 9, 42, 64
5, 38540, Note_off_c, 9, 51, 64
5, 38635, Note_on_c, 9, 42, 50
5, 38680, Note_off_c, 9, 40, 64
5, 38695, Note_off_c, 9, 42, 64
5, 38880, Note_on_c, 9, 40, 108
5, 38880, Note_on_c, 9, 42, 75
5, 38885, Note_on_c, 9, 51, 45
5, 38965, Note_off_c, 9, 42, 64
5, 38990, Note_off_c, 9, 36, 64
5, 39120, Note_on_c, 9, 36, 84
5, 39120, Note_on_c, 9, 42, 62
5, 39200, Note_off_c, 9, 42, 64
5, 39220, Note_off_c, 9, 36, 64
5, 39360, Note_off_c, 9, 51, 64
5, 39360, Note_on_c, 9, 36, 78
5, 39360, Note_on_c, 9, 42, 75
5, 39445, Note_off_c, 9, 42, 64
5, 39605, Note_on_c, 9, 42, 59
5, 39665, Note_off_c, 9, 40, 64
5, 39670, Note_off_c, 9, 42, 64
5, 39840, Note_on_c, 9, 40, 106
5, 39845, Note_on_c, 9, 42, 72
5, 39850, Note_on_c, 9, 51, 47
5, 39910, Note_off_c, 9, 36, 64
5, 39925, Note_off_c, 9, 42, 64
5, 40080, Note_on_c, 9, 36, 74
5, 40085, Note_on_c, 9, 42, 59
5, 40155, Note_off_c, 9, 42, 64
5, 40200, Note_off_c, 9, 36, 64
5, 40320, Note_on_c, 9, 36, 88
5, 40320, Note_on_c, 9, 42, 92
5, 40375, Note_off_c, 9, 51, 64
5, 40380, Note_off_c, 9, 42, 64
5, 40420, Note_off_c, 9, 40, 64
5, 40545, Note_on_c, 9, 42, 54
5, 40590, Note_off_c, 9, 42, 64
5, 40780, Note_on_c, 9, 42, 72
5, 40800, Note_on_c, 9, 40, 103
5, 40810, Note_on_c, 9, 51, 45
5, 40860, Note_off_c, 9, 42, 64
5, 40890, Note_off_c, 9, 36, 64
5, 41015, Note_on_c, 9, 42, 62
5, 41040, Note_on_c, 9, 36, 88
5, 41080, Note_off_c, 9, 42, 64
5, 41135, Note_off_c, 9, 36, 64
5, 41270, Note_on_c, 9, 42, 72
5, 41280, Note_off_c, 9, 51, 64
5, 41280, Note_on_c, 9, 36, 86
5, 41350, Note_off_c, 9, 42, 64
5, 41505, Note_on_c, 9, 42, 54
5, 41560, Note_off_c, 9, 42, 64
5, 41610, Note_off_c, 9, 40, 64
5, 41740, Note_on_c, 9, 42, 81
5, 41750, Note_on_c, 9, 51, 45
5, 41760, Note_on_c, 9, 40, 101
5, 41830, Note_off_c, 9, 42, 64
5, 41895, Note_off_c, 9, 36, 64
5, 41985, Note_on_c, 9, 42, 56
5, 42000, Note_on_c, 9, 36, 63
5, 42060, Note_off_c, 9, 42, 64
5, 42120, Note_off_c, 9, 36, 64
5, 42225, Note_on_c, 9, 42, 72
5, 42240, Note_on_c, 9, 36, 76
5, 42315, Note_off_c, 9, 42, 64
5, 42395, Note_off_c, 9, 51, 64
5, 42465, Note_on_c, 9, 42, 62
5, 42505, Note_off_c, 9, 40, 64
5, 42530, Note_off_c, 9, 42, 64
5, 42700, Note_on_c, 9, 42, 75
5, 42710, Note_on_c, 9, 51, 54
5, 42720, Note_on_c, 9, 40, 108
5, 42790, Note_off_c, 9, 42, 64
5, 42845, Note_off_c, 9, 36, 64
5, 42950, Note_on_c, 9, 42, 59
5, 42960, Note_on_c, 9, 36, 64
5, 43020, Note_off_c, 9, 42, 64
5, 43105, Note_off_c, 9, 36, 64
5, 43200, Note_on_c, 9, 36, 84
5, 43200, Note_on_c, 9, 42, 72
5, 43285, Note_off_c, 9, 42, 64
5, 43390, Note_off_c, 9, 51, 64
5, 43440, Note_on_c, 9, 42, 52
5, 43495, Note_off_c, 9, 40, 64
5, 43500, Note_off_c, 9, 42, 64
5, 43675, Note_on_c, 9, 42, 72
5, 43680, Note_on_c, 9, 40, 108
5, 43680, Note_on_c, 9, 51, 48
5, 43765, Note_off_c, 9, 36, 64
5, 43765, Note_off_c, 9, 42, 64
5, 43910, Note_on_c, 9, 42, 59
5, 43920, Note_on_c, 9, 36, 91
5, 43985, Note_off_c, 9, 42, 64
5, 44035, Note_off_c, 9, 36, 64
5, 44155, Note_on_c, 9, 42, 75
5, 44160, Note_on_c, 9, 36, 86
5, 44250, Note_off_c, 9, 42, 64
5, 44395, Note_on_c, 9, 42, 54
5, 44405, Note_off_c, 9, 51, 64
5, 44460, Note_off_c, 9, 42, 64
5, 44470, Note_off_c, 9, 40, 64
5, 44640, Note_on_c, 9, 40, 103
5, 44645, Note_on_c, 9, 51, 56
5, 44650, Note_on_c, 9, 42, 72
5, 44720, Note_off_c, 9, 42, 64
5, 44735, Note_off_c, 9, 36, 64
5, 44880, Note_on_c, 9, 36, 76
5, 44895, Note_on_c, 9, 42, 64
5, 44955, Note_off_c, 9, 42, 64
5, 45005, Note_off_c, 9, 36, 64
5, 45120, Note_on_c, 9, 36, 81
5, 45125, Note_on_c, 9, 42, 72
5, 45205, Note_off_c, 9, 42, 64
5, 45360, Note_on_c, 9, 42, 59
5, 45365, Note_off_c, 9, 51, 64
5, 45405, Note_off_c, 9, 40, 64
5, 45435, Note_off_c, 9, 42, 64
5, 45590, Note_on_c, 9, 51, 52
5, 45595, Note_on_c, 9, 42, 69
5, 45600, Note_on_c, 9, 40, 108
5, 45670, Note_off_c, 9, 36, 64
5, 45680, Note_off_c, 9, 42, 64
5, 45835, Note_on_c, 9, 42, 54
5, 45840, Note_on_c, 9, 36, 76
5, 45905, Note_off_c, 9, 42, 64
5, 45940, Note_off_c, 9, 36, 64
5, 46070, Note_on_c, 9, 42, 64
5, 46080, Note_on_c, 9, 36, 74
5, 46155, Note_off_c, 9, 42, 64
5, 46315, Note_on_c, 9, 42, 50
5, 46360, Note_off_c, 9, 51, 64
5, 46360, Note_off_c, 9, 40, 64
5, 46375, Note_off_c, 9, 42, 64
5, 46560, Note_on_c, 9, 40, 108
5, 46560, Note_on_c, 9, 42, 75
5, 46575, Note_on_c, 9, 51, 56
5, 46645, Note_off_c, 9, 42, 64
5, 46670, Note_off_c, 9, 36, 64
5, 46800, Note_on_c, 9, 36, 84
5, 46800, Note_on_c, 9, 42, 62
5, 46880, Note_off_c, 9, 42, 64
5, 46900, Note_off_c, 9, 36, 64
5, 47040, Note_on_c, 9, 36, 78
5, 47040, Note_on_c, 9, 42, 75
5, 47125, Note_off_c, 9, 42, 64
5, 47275, Note_off_c, 9, 51, 64
5, 47285, Note_on_c, 9, 42, 59
5, 47345, Note_off_c, 9, 40, 64
5, 47350, Note_off_c, 9, 42, 64
5, 47520, Note_on_c, 9, 40, 106
5, 47525, Note_on_c, 9, 42, 72
5, 47530, Note_on_c, 9, 51, 52
5, 47590, Note_off_c, 9, 36, 64
5, 47605, Note_off_c, 9, 42, 64
5, 47760, Note_on_c, 9, 36, 74
5, 47765, Note_on_c, 9, 42, 59
5, 47835, Note_off_c, 9, 42, 64
5, 47880, Note_off_c, 9, 36, 64
5, 48000, Note_on_c, 9, 36, 88
5, 48000, Note_on_c, 9, 42, 92
5, 48060, Note_off_c, 9, 42, 64
5, 48100, Note_off_c, 9, 40, 64
5, 48175, Note_off_c, 9, 51, 64
5, 48225, Note_on_c, 9, 42, 54
5, 48270, Note_off_c, 9, 42, 64
5, 48455, Note_on_c, 9, 51, 50
5, 48460, Note_on_c, 9, 42, 72
5, 48480, Note_on_c, 9, 40, 103
5, 48540, Note_off_c, 9, 42, 64
5, 48570, Note_off_c, 9, 36, 64
5, 48695, Note_on_c, 9, 42, 62
5, 48720, Note_on_c, 9, 36, 88
5, 48760, Note_off_c, 9, 42, 64
5, 48815, Note_off_c, 9, 36, 64
5, 48950, Note_on_c, 9, 42, 72
5, 48960, Note_on_c, 9, 36, 86
5, 49030, Note_off_c, 9, 42, 64
5, 49185, Note_off_c, 9, 51, 64
5, 49185, Note_on_c, 9, 42, 54
5, 49240, Note_off_c, 9, 42, 64
5, 49290, Note_off_c, 9, 40, 64
5, 49420, Note_on_c, 9, 42, 81
5, 49435, Note_on_c, 9, 51, 54
5, 49440, Note_on_c, 9, 40, 101
5, 49510, Note_off_c, 9, 42, 64
5, 49575, Note_off_c, 9, 36, 64
5, 49665, Note_on_c, 9, 42, 56
5, 49680, Note_on_c, 9, 36, 63
5, 49740, Note_off_c, 9, 42, 64
5, 49800, Note_off_c, 9, 36, 64
5, 49905, Note_on_c, 9, 42, 72
5, 49920, Note_on_c, 9, 36, 76
5, 49995, Note_off_c, 9, 42, 64
5, 50110, Note_off_c, 9, 51, 64
5, 50145, Note_on_c, 9, 42, 62
5, 50185, Note_off_c, 9, 40, 64
5, 50210, Note_off_c, 9, 42, 64
5, 50380, Note_on_c, 9, 42, 75
5, 50390, Note_on_c, 9, 51, 59
5, 50400, Note_on_c, 9, 40, 108
5, 50470, Note_off_c, 9, 42, 64
5, 50525, Note_off_c, 9, 36, 64
5, 50630, Note_on_c, 9, 42, 59
5, 50640, Note_on_c, 9, 36, 64
5, 50700, Note_off_c, 9, 42, 64
5, 50785, Note_off_c, 9, 36, 64
5, 50880, Note_on_c, 9, 36, 84
5, 50880, Note_on_c, 9, 42, 72
5, 50965, Note_off_c, 9, 42, 64
5, 51095, Note_off_c, 9, 51, 64
5, 51120, Note_on_c, 9, 42, 52
5, 51175, Note_off_c, 9, 40, 64
5, 51180, Note_off_c, 9, 42, 64
5, 51355, Note_on_c, 9, 42, 72
5, 51360, Note_on_c, 9, 40, 108
5, 51375, Note_on_c, 9, 51, 45
5, 51445, Note_off_c, 9, 36, 64
5, 51445, Note_off_c, 9, 42, 64
5, 51590, Note_on_c, 9, 42, 59
5, 51600, Note_on_c, 9, 36, 91
5, 51665, Note_off_c, 9, 42, 64
5, 51715, Note_off_c, 9, 36, 64
5, 51835, Note_on_c, 9, 42, 75
5, 51840, Note_on_c, 9, 36, 86
5, 51930, Note_off_c, 9, 42, 64
5, 52040, Note_off_c, 9, 51, 64
5, 52075, Note_on_c, 9, 42, 54
5, 52140, Note_off_c, 9, 42, 64
5, 52150, Note_off_c, 9, 40, 64
5, 52310, Note_on_c, 9, 51, 45
5, 52320, Note_on_c, 9, 40, 103
5, 52330, Note_on_c, 9, 42, 72
5, 52400, Note_off_c, 9, 42, 64
5, 52415, Note_off_c, 9, 36, 64
5, 52560, Note_on_c, 9, 36, 76
5, 52575, Note_on_c, 9, 42, 64
5, 52635, Note_off_c, 9, 42, 64
5, 52685, Note_off_c, 9, 36, 64
5, 52800, Note_on_c, 9, 36, 81
5, 52805, Note_on_c, 9, 42, 72
5, 52885, Note_off_c, 9, 42, 64
5, 52960, Note_off_c, 9, 51, 64
5, 53040, Note_on_c, 9, 42, 59
5, 53085, Note_off_c, 9, 40, 64
5, 53115, Note_off_c, 9, 42, 64
5, 53275, Note_on_c, 9, 42, 69
5, 53280, Note_on_c, 9, 40, 108
5, 53290, Note_on_c, 9, 51, 52
5, 53350, Note_off_c, 9, 36, 64
5, 53360, Note_off_c, 9, 42, 64
5, 53515, Note_on_c, 9, 42, 54
5, 53520, Note_on_c, 9, 36, 76
5, 53585, Note_off_c, 9, 42, 64
5, 53620, Note_off_c, 9, 36, 64
5, 53750, Note_on_c, 9, 42, 64
5, 53760, Note_on_c, 9, 36, 74
5, 53835, Note_off_c, 9, 42, 64
5, 53930, Note_off_c, 9, 51, 64
5, 53995, Note_on_c, 9, 42, 50
5, 54040, Note_off_c, 9, 40, 64
5, 54055, Note_off_c, 9, 42, 64
5, 54240, Note_on_c, 9, 40, 108
5, 54240, Note_on_c, 9, 42, 75
5, 54245, Note_on_c, 9, 51, 52
5, 54325, Note_off_c, 9, 42, 64
5, 54350, Note_off_c, 9, 36, 64
5, 54480, Note_on_c, 9, 36, 84
5, 54480, Note_on_c, 9, 42, 62
5, 54560, Note_off_c, 9, 42, 64
5, 54580, Note_off_c, 9, 36, 64
5, 54720, Note_on_c, 9, 36, 78
5, 54720, Note_on_c, 9, 42, 75
5, 54805, Note_off_c, 9, 42, 64
5, 54895, Note_off_c, 9, 51, 64
5, 54945, Note_on_c, 9, 45, 78
5, 54945, Note_on_c, 9, 48, 72
5, 54965, Note_on_c, 9, 42, 59
5, 55020, Note_off_c, 9, 48, 64
5, 55025, Note_off_c, 9, 40, 64
5, 55025, Note_off_c, 9, 45, 64
5, 55030, Note_off_c, 9, 42, 64
5, 55200, Note_on_c, 9, 40, 106
5, 55205, Note_on_c, 9, 42, 72
5, 55210, Note_on_c, 9, 48, 101
5, 55215, Note_on_c, 9, 51, 54
5, 55215, Note_on_c, 9, 45, 93
5, 55270, Note_off_c, 9, 36, 64
5, 55285, Note_off_c, 9, 42, 64
5, 55305, Note_off_c, 9, 48, 64
5, 55305, Note_off_c, 9, 45, 64
5, 55440, Note_on_c, 9, 36, 74
5, 55445, Note_on_c, 9, 42, 59
5, 55515, Note_off_c, 9, 42, 64
5, 55560, Note_off_c, 9, 36, 64
5, 55680, Note_on_c, 9, 36, 88
5, 55680, Note_on_c, 9, 42, 92
5, 55700, Note_on_c, 9, 49, 81
5, 55740, Note_off_c, 9, 42, 64
5, 55780, Note_off_c, 9, 40, 64
5, 55840, Note_off_c, 9, 51, 64
5, 55905, Note_on_c, 9, 42, 54
5, 55950, Note_off_c, 9, 42, 64
5, 56140, Note_on_c, 9, 42, 72
5, 56160, Note_on_c, 9, 40, 103
5, 56165, Note_on_c, 9, 51, 54
5, 56220, Note_off_c, 9, 42, 64
5, 56250, Note_off_c, 9, 36, 64
5, 56375, Note_on_c, 9, 42, 62
5, 56400, Note_on_c, 9, 36, 88
5, 56440, Note_off_c, 9, 42, 64
5, 56495, Note_off_c, 9, 36, 64
5, 56630, Note_on_c, 9, 42, 72
5, 56640, Note_on_c, 9, 36, 86
5, 56710, Note_off_c, 9, 42, 64
5, 56795, Note_off_c, 9, 51, 64
5, 56865, Note_on_c, 9, 42, 54
5, 56920, Note_off_c, 9, 42, 64
5, 56970, Note_off_c, 9, 40, 64
5, 57100, Note_on_c, 9, 42, 81
5, 57120, Note_on_c, 9, 40, 101
5, 57120, Note_on_c, 9, 51, 52
5, 57190, Note_off_c, 9, 42, 64
5, 57210, Note_off_c, 9, 49, 64
5, 57255, Note_off_c, 9, 36, 64
5, 57345, Note_on_c, 9, 42, 56
5, 57360, Note_on_c, 9, 36, 63
5, 57420, Note_off_c, 9, 42, 64
5, 57480, Note_off_c, 9, 36, 64
5, 57585, Note_on_c, 9, 42, 72
5, 57600, Note_on_c, 9, 36, 76
5, 57675, Note_off_c, 9, 42, 64
5, 57740, Note_off_c, 9, 51, 64
5, 57825, Note_on_c, 9, 42, 62
5, 57865, Note_off_c, 9, 40, 64
5, 57890, Note_off_c, 9, 42, 64
5, 58060, Note_on_c, 9, 42, 75
5, 58080, Note_on_c, 9, 40, 108
5, 58085, Note_on_c, 9, 51, 45
5, 58150, Note_off_c, 9, 42, 64
5, 58205, Note_off_c, 9, 36, 64
5, 58310, Note_on_c, 9, 42, 59
5, 58320, Note_on_c, 9, 36, 64
5, 58380, Note_off_c, 9, 42, 64
5, 58465, Note_off_c, 9, 36, 64
5, 58560, Note_off_c, 9, 51, 64
5, 58560, Note_on_c, 9, 36, 84
5, 58560, Note_on_c, 9, 42, 72
5, 58645, Note_off_c, 9, 42, 64
5, 58800, Note_on_c, 9, 42, 52
5, 58855, Note_off_c, 9, 40, 64
5, 58860, Note_off_c, 9, 42, 64
5, 59035, Note_on_c, 9, 42, 72
5, 59040, Note_on_c, 9, 40, 108
5, 59050, Note_on_c, 9, 51, 47
5, 59125, Note_off_c, 9, 36, 64
5, 59125, Note_off_c, 9, 42, 64
5, 59270, Note_on_c, 9, 42, 59
5, 59280, Note_on_c, 9, 36, 91
5, 59345, Note_off_c, 9, 42, 64
5, 59395, Note_off_c, 9, 36, 64
5, 59515, Note_on_c, 9, 42, 75
5, 59520, Note_on_c, 9, 36, 86
5, 59575, Note_off_c, 9, 51, 64
5, 59610, Note_off_c, 9, 42, 64
5, 59755, Note_on_c, 9, 42, 54
5, 59820, Note_off_c, 9, 42, 64
5, 59830, Note_off_c, 9, 40, 64
5, 60000, Note_on_c, 9, 40, 103
5, 60010, Note_on_c, 9, 42, 72
5, 60010, Note_on_c, 9, 51, 45
5, 60080, Note_off_c, 9, 42, 64
5, 60095, Note_off_c, 9, 36, 64
5, 60240, Note_on_c, 9, 36, 76
5, 60255, Note_on_c, 9, 42, 64
5, 60315, Note_off_c, 9, 42, 64
5, 60365, Note_off_c, 9, 36, 64
5, 60480, Note_off_c, 9, 51, 64
5, 60480, Note_on_c, 9, 36, 81
5, 60485, Note_on_c, 9, 42, 72
5, 60565, Note_off_c, 9, 42, 64
5, 60720, Note_on_c, 9, 42, 59
5, 60765, Note_off_c, 9, 40, 64
5, 60795, Note_off_c, 9, 42, 64
5, 60950, Note_on_c, 9, 51, 45
5, 60955, Note_on_c, 9, 42, 69
5, 60960, Note_on_c, 9, 40, 108
5, 61030, Note_off_c, 9, 36, 64
5, 61040, Note_off_c, 9, 42, 64
5, 61195, Note_on_c, 9, 42, 54
5, 61200, Note_on_c, 9, 36, 76
5, 61265, Note_off_c, 9, 42, 64
5, 61300, Note_off_c, 9, 36, 64
5, 61430, Note_on_c, 9, 42, 64
5, 61440, Note_on_c, 9, 36, 74
5, 61515, Note_off_c, 9, 42, 64
5, 61595, Note_off_c, 9, 51, 64
5, 61675, Note_on_c, 9, 42, 50
5, 61720, Note_off_c, 9, 40, 64
5, 61735, Note_off_c, 9, 42, 64
5, 61910, Note_on_c, 9, 51, 54
5, 61920, Note_on_c, 9, 40, 108
5, 61920, Note_on_c, 9, 42, 75
5, 62005, Note_off_c, 9, 42, 64
5, 62030, Note_off_c, 9, 36, 64
5, 62160, Note_on_c, 9, 36, 84
5, 62160, Note_on_c, 9, 42, 62
5, 62240, Note_off_c, 9, 42, 64
5, 62260, Note_off_c, 9, 36, 64
5, 62400, Note_on_c, 9, 36, 78
5, 62400, Note_on_c, 9, 42, 75
5, 62485, Note_off_c, 9, 42, 64
5, 62590, Note_off_c, 9, 51, 64
5, 62645, Note_on_c, 9, 42, 59
5, 62705, Note_off_c, 9, 40, 64
5, 62710, Note_off_c, 9, 42, 64
5, 62880, Note_on_c, 9, 40, 106
5, 62880, Note_on_c, 9, 51, 48
5, 62885, Note_on_c, 9, 42, 72
5, 62950, Note_off_c, 9, 36, 64
5, 62965, Note_off_c, 9, 42, 64
5, 63120, Note_on_c, 9, 36, 74
5, 63125, Note_on_c, 9, 42, 59
5, 63195, Note_off_c, 9, 42, 64
5, 63240, Note_off_c, 9, 36, 64
5, 63360, Note_on_c, 9, 36, 88
5, 63360, Note_on_c, 9, 42, 92
5, 63375, Note_on_c, 9, 49, 75
5, 63420, Note_off_c, 9, 42, 64
5, 63460, Note_off_c, 9, 40, 64
5, 63585, Note_on_c, 9, 42, 54
5, 63605, Note_off_c, 9, 51, 64
5, 63630, Note_off_c, 9, 42, 64
5, 63820, Note_on_c, 9, 42, 72
5, 63840, Note_on_c, 9, 40, 103
5, 63845, Note_on_c, 9, 51, 56
5, 63900, Note_off_c, 9, 42, 64
5, 63930, Note_off_c, 9, 36, 64
5, 64055, Note_on_c, 9, 42, 62
5, 64080, Note_on_c, 9, 36, 88
5, 64120, Note_off_c, 9, 42, 64
5, 64175, Note_off_c, 9, 36, 64
5, 64310, Note_on_c, 9, 42, 72
5, 64320, Note_on_c, 9, 36, 86
5, 64390, Note_off_c, 9, 42, 64
5, 64545, Note_on_c, 9, 42, 54
5, 64565, Note_off_c, 9, 51, 64
5, 64600, Note_off_c, 9, 42, 64
5, 64650, Note_off_c, 9, 40, 64
5, 64780, Note_on_c, 9, 42, 81
5, 64790, Note_on_c, 9, 51, 52
5, 64800, Note_on_c, 9, 40, 101
5, 64870, Note_off_c, 9, 42, 64
5, 64875, Note_off_c, 9, 49, 64
5, 64935, Note_off_c, 9, 36, 64
5, 65025, Note_on_c, 9, 42, 56
5, 65040, Note_on_c, 9, 36, 63
5, 65100, Note_off_c, 9, 42, 64
5, 65160, Note_off_c, 9, 36, 64
5, 65265, Note_on_c, 9, 42, 72
5, 65280, Note_on_c, 9, 36, 76
5, 65355, Note_off_c, 9, 42, 64
5, 65505, Note_on_c, 9, 42, 62
5, 65545, Note_off_c, 9, 40, 64
5, 65560, Note_off_c, 9, 51, 64
5, 65570, Note_off_c, 9, 42, 64
5, 65740, Note_on_c, 9, 42, 75
5, 65760, Note_on_c, 9, 40, 108
5, 65775, Note_on_c, 9, 51, 56
5, 65830, Note_off_c, 9, 42, 64
5, 65885, Note_off_c, 9, 36, 64
5, 65990, Note_on_c, 9, 42, 59
5, 66000, Note_on_c, 9, 36, 64
5, 66060, Note_off_c, 9, 42, 64
5, 66145, Note_off_c, 9, 36, 64
5, 66240, Note_on_c, 9, 36, 84
5, 66240, Note_on_c, 9, 42, 72
5, 66325, Note_off_c, 9, 42, 64
5, 66475, Note_off_c, 9, 51, 64
5, 66480, Note_on_c, 9, 42, 52
5, 66535, Note_off_c, 9, 40, 64
5, 66540, Note_off_c, 9, 42, 64
5, 66715, Note_on_c, 9, 42, 72
5, 66720, Note_on_c, 9, 40, 108
5, 66730, Note_on_c, 9, 51, 52
5, 66805, Note_off_c, 9, 36, 64
5, 66805, Note_off_c, 9, 42, 64
5, 66950, Note_on_c, 9, 42, 59
5, 66960, Note_on_c, 9, 36, 91
5, 67025, Note_off_c, 9, 42, 64
5, 67075, Note_off_c, 9, 36, 64
5, 67195, Note_on_c, 9, 42, 75
5, 67200, Note_on_c, 9, 36, 86
5, 67290, Note_off_c, 9, 42, 64
5, 67375, Note_off_c, 9, 51, 64
5, 67435, Note_on_c, 9, 42, 54
5, 67500, Note_off_c, 9, 42, 64
5, 67510, Note_off_c, 9, 40, 64
5, 67655, Note_on_c, 9, 51, 50
5, 67680, Note_on_c, 9, 40, 103
5, 67690, Note_on_c, 9, 42, 72
5, 67760, Note_off_c, 9, 42, 64
5, 67775, Note_off_c, 9, 36, 64
5, 67920, Note_on_c, 9, 36, 76
5, 67935, Note_on_c, 9, 42, 64
5, 67995, Note_off_c, 9, 42, 64
5, 68045, Note_off_c, 9, 36, 64
5, 68160, Note_on_c, 9, 36, 81
5, 68165, Note_on_c, 9, 42, 72
5, 68245, Note_off_c, 9, 42, 64
5, 68385, Note_off_c, 9, 51, 64
5, 68400, Note_on_c, 9, 42, 59
5, 68445, Note_off_c, 9, 40, 64
5, 68475, Note_off_c, 9, 42, 64
5, 68635, Note_on_c, 9, 42, 69
5, 68635, Note_on_c, 9, 51, 54
5, 68640, Note_on_c, 9, 40, 108
5, 68710, Note_off_c, 9, 36, 64
5, 68720, Note_off_c, 9, 42, 64
5, 68875, Note_on_c, 9, 42, 54
5, 68880, Note_on_c, 9, 36, 76
5, 68945, Note_off_c, 9, 42, 64
5, 68980, Note_off_c, 9, 36, 64
5, 69110, Note_on_c, 9, 42, 64
5, 69120, Note_on_c, 9, 36, 74
5, 69195, Note_off_c, 9, 42, 64
5, 69310, Note_off_c, 9, 51, 64
5, 69355, Note_on_c, 9, 42, 50
5, 69400, Note_off_c, 9, 40, 64
5, 69415, Note_off_c, 9, 42, 64
5, 69590, Note_on_c, 9, 51, 59
5, 69600, Note_on_c, 9, 40, 108
5, 69600, Note_on_c, 9, 42, 75
5, 69685, Note_off_c, 9, 42, 64
5, 69710, Note_off_c, 9, 36, 64
5, 69840, Note_on_c, 9, 36, 84
5, 69840, Note_on_c, 9, 42, 62
5, 69920, Note_off_c, 9, 42, 64
5, 69940, Note_off_c, 9, 36, 64
5, 70080, Note_on_c, 9, 36, 78
5, 70080, Note_on_c, 9, 42, 75
5, 70165, Note_off_c, 9, 42, 64
5, 70295, Note_off_c, 9, 51, 64
5, 70325, Note_on_c, 9, 42, 59
5, 70385, Note_off_c, 9, 40, 64
5, 70390, Note_off_c, 9, 42, 64
5, 70560, Note_on_c, 9, 40, 106
5, 70565, Note_on_c, 9, 42, 72
5, 70575, Note_on_c, 9, 51, 45
5, 70630, Note_off_c, 9, 36, 64
5, 70645, Note_off_c, 9, 42, 64
5, 70800, Note_on_c, 9, 36, 74
5, 70805, Note_on_c, 9, 42, 59
5, 70875, Note_off_c, 9, 42, 64
5, 70920, Note_off_c, 9, 36, 64
5, 71040, Note_on_c, 9, 36, 88
5, 71040, Note_on_c, 9, 42, 92
5, 71045, Note_on_c, 9, 49, 81
5, 71100, Note_off_c, 9, 42, 64
5, 71140, Note_off_c, 9, 40, 64
5, 71240, Note_off_c, 9, 51, 64
5, 71265, Note_on_c, 9, 42, 54
5, 71310, Note_off_c, 9, 42, 64
5, 71500, Note_on_c, 9, 42, 72
5, 71510, Note_on_c, 9, 51, 45
5, 71520, Note_on_c, 9, 40, 103
5, 71580, Note_off_c, 9, 42, 64
5, 71610, Note_off_c, 9, 36, 64
5, 71735, Note_on_c, 9, 42, 62
5, 71760, Note_on_c, 9, 36, 88
5, 71800, Note_off_c, 9, 42, 64
5, 71855, Note_off_c, 9, 36, 64
5, 71990, Note_on_c, 9, 42, 72
5, 72000, Note_on_c, 9, 36, 86
5, 72070, Note_off_c, 9, 42, 64
5, 72160, Note_off_c, 9, 51, 64
5, 72225, Note_on_c, 9, 42, 54
5, 72280, Note_off_c, 9, 42, 64
5, 72330, Note_off_c, 9, 40, 64
5, 72430, Note_off_c, 9, 49, 64
5, 72460, Note_on_c, 9, 42, 81
5, 72480, Note_on_c, 9, 40, 101
5, 72490, Note_on_c, 9, 51, 52
5, 72550, Note_off_c, 9, 42, 64
5, 72615, Note_off_c, 9, 36, 64
5, 72705, Note_on_c, 9, 42, 56
5, 72720, Note_on_c, 9, 36, 63
5, 72780, Note_off_c, 9, 42, 64
5, 72840, Note_off_c, 9, 36, 64
5, 72945, Note_on_c, 9, 42, 72
5, 72960, Note_on_c, 9, 36, 76
5, 73035, Note_off_c, 9, 42, 64
5, 73130, Note_off_c, 9, 51, 64
5, 73185, Note_on_c, 9, 42, 62
5, 73225, Note_off_c, 9, 40, 64
5, 73250, Note_off_c, 9, 42, 64
5, 73420, Note_on_c, 9, 42, 75
5, 73440, Note_on_c, 9, 40, 108
5, 73445, Note_on_c, 9, 51, 52
5, 73510, Note_off_c, 9, 42, 64
5, 73565, Note_off_c, 9, 36, 64
5, 73670, Note_on_c, 9, 42, 59
5, 73680, Note_on_c, 9, 36, 64
5, 73740, Note_off_c, 9, 42, 64
5, 73825, Note_off_c, 9, 36, 64
5, 73920, Note_on_c, 9, 36, 84
5, 73920, Note_on_c, 9, 42, 72
5, 74005, Note_off_c, 9, 42, 64
5, 74095, Note_off_c, 9, 51, 64
5, 74160, Note_on_c, 9, 42, 52
5, 74215, Note_off_c, 9, 40, 64
5, 74220, Note_off_c, 9, 42, 64
5, 74395, Note_on_c, 9, 42, 72
5, 74400, Note_on_c, 9, 40, 108
5, 74415, Note_on_c, 9, 51, 54
5, 74485, Note_off_c, 9, 36, 64
5, 74485, Note_off_c, 9, 42, 64
5, 74630, Note_on_c, 9, 42, 59
5, 74640, Note_on_c, 9, 36, 91
5, 74705, Note_off_c, 9, 42, 64
5, 74755, Note_off_c, 9, 36, 64
5, 74875, Note_on_c, 9, 42, 75
5, 74880, Note_on_c, 9, 36, 86
5, 74970, Note_off_c, 9, 42, 64
5, 75040, Note_off_c, 9, 51, 64
5, 75115, Note_on_c, 9, 42, 54
5, 75180, Note_off_c, 9, 42, 64
5, 75190, Note_off_c, 9, 40, 64
5, 75360, Note_on_c, 9, 40, 103
5, 75365, Note_on_c, 9, 51, 54
5, 75370, Note_on_c, 9, 42, 72
5, 75440, Note_off_c, 9, 42, 64
5, 75455, Note_off_c, 9, 36, 64
5, 75600, Note_on_c, 9, 36, 76
5, 75615, Note_on_c, 9, 42, 64
5, 75675, Note_off_c, 9, 42, 64
5, 75725, Note_off_c, 9, 36, 64
5, 75840, Note_on_c, 9, 36, 81
5, 75845, Note_on_c, 9, 42, 72
5, 75925, Note_off_c, 9, 42, 64
5, 75995, Note_off_c, 9, 51, 64
5, 76080, Note_on_c, 9, 42, 59
5, 76125, Note_off_c, 9, 40, 64
5, 76155, Note_off_c, 9, 42, 64
5, 76315, Note_on_c, 9, 42, 69
5, 76320, Note_on_c, 9, 40, 108
5, 76320, Note_on_c, 9, 51, 52
5, 76390, Note_off_c, 9, 36, 64
5, 76400, Note_off_c, 9, 42, 64
5, 76555, Note_on_c, 9, 42, 54
5, 76560, Note_on_c, 9, 36, 76
5, 76625, Note_off_c, 9, 42, 64
5, 76660, Note_off_c, 9, 36, 64
5, 76790, Note_on_c, 9, 42, 64
5, 76800, Note_on_c, 9, 36, 74
5, 76875, Note_off_c, 9, 42, 64
5, 76940, Note_off_c, 9, 51, 64
5, 77035, Note_on_c, 9, 42, 50
5, 77080, Note_off_c, 9, 40, 64
5, 77095, Note_off_c, 9, 42, 64
5, 77280, Note_on_c, 9, 40, 108
5, 77280, Note_on_c, 9, 42, 75
5, 77285, Note_on_c, 9, 51, 45
5, 77365, Note_off_c, 9, 42, 64
5, 77390, Note_off_c, 9, 36, 64
5, 77520, Note_on_c, 9, 36, 84
5, 77520, Note_on_c, 9, 42, 62
5, 77600, Note_off_c, 9, 42, 64
5, 77620, Note_off_c, 9, 36, 64
5, 77760, Note_off_c, 9, 51, 64
5, 77760, Note_on_c, 9, 36, 78
5, 77760, Note_on_c, 9, 42, 75
5, 77845, Note_off_c, 9, 42, 64
5, 78005, Note_on_c, 9, 42, 59
5, 78065, Note_off_c, 9, 40, 64
5, 78070, Note_off_c, 9, 42, 64
5, 78240, Note_on_c, 9, 40, 106
5, 78245, Note_on_c, 9, 42, 72
5, 78250, Note_on_c, 9, 51, 47
5, 78310, Note_off_c, 9, 36, 64
5, 78325, Note_off_c, 9, 42, 64
5, 78480, Note_on_c, 9, 36, 74
5, 78485, Note_on_c, 9, 42, 59
5, 78555, Note_off_c, 9, 42, 64
5, 78600, Note_off_c, 9, 36, 64
5, 78720, Note_on_c, 9, 36, 88
5, 78720, Note_on_c, 9, 42, 92
5, 78775, Note_off_c, 9, 51, 64
5, 78780, Note_off_c, 9, 42, 64
5, 78820, Note_off_c, 9, 40, 64
5, 78945, Note_on_c, 9, 42, 54
5, 78990, Note_off_c, 9, 42, 64
5, 79180, Note_on_c, 9, 42, 72
5, 79200, Note_on_c, 9, 40, 103
5, 79210, Note_on_c, 9, 51, 45
5, 79260, Note_off_c, 9, 42, 64
5, 79290, Note_off_c, 9, 36, 64
5, 79415, Note_on_c, 9, 42, 62
5, 79440, Note_on_c, 9, 36, 88
5, 79480, Note_off_c, 9, 42, 64
5, 79535, Note_off_c, 9, 36, 64
5, 79670, Note_on_c, 9, 42, 72
5, 79680, Note_off_c, 9, 51, 64
5, 79680, Note_on_c, 9, 36, 86
5, 79750, Note_off_c, 9, 42, 64
5, 79905, Note_on_c, 9, 42, 54
5, 79960, Note_off_c, 9, 42, 64
5, 80010, Note_off_c, 9, 40, 64
5, 80140, Note_on_c, 9, 42, 81
5, 80150, Note_on_c, 9, 51, 45
5, 80160, Note_on_c, 9, 40, 101
5, 80230, Note_off_c, 9, 42, 64
5, 80295, Note_off_c, 9, 36, 64
5, 80385, Note_on_c, 9, 42, 56
5, 80400, Note_on_c, 9, 36, 63
5, 80460, Note_off_c, 9, 42, 64
5, 80520, Note_off_c, 9, 36, 64
5, 80625, Note_on_c, 9, 42, 72
5, 80640, Note_on_c, 9, 36, 88
5, 80640, Note_on_c, 9, 42, 92
5, 80700, Note_off_c, 9, 42, 64
5, 80715, Note_off_c, 9, 42, 64
5, 80795, Note_off_c, 9, 51, 64
5, 80865, Note_on_c, 9, 42, 54
5, 80905, Note_off_c, 9, 40, 64
5, 80910, Note_off_c, 9, 42, 64
5, 81100, Note_on_c, 9, 42, 72
5, 81120, Note_on_c, 9, 40, 103
5, 81130, Note_on_c, 9, 51, 45
5, 81180, Note_off_c, 9, 42, 64
5, 81210, Note_off_c, 9, 36, 64
5, 81335, Note_on_c, 9, 42, 62
5, 81360, Note_on_c, 9, 36, 88
5, 81400, Note_off_c, 9, 42, 64
5, 81455, Note_off_c, 9, 36, 64
5, 81590, Note_on_c, 9, 42, 72
5, 81600, Note_off_c, 9, 51, 64
5, 81600, Note_on_c, 9, 36, 86
5, 81670, Note_off_c, 9, 42, 64
5, 81825, Note_on_c, 9, 42, 54
5, 81880, Note_off_c, 9, 42, 64
5, 81930, Note_off_c, 9, 40, 64
5, 82060, Note_on_c, 9, 42, 81
5, 82070, Note_on_c, 9, 51, 45
5, 82080, Note_on_c, 9, 40, 101
5, 82150, Note_off_c, 9, 42, 64
5, 82215, Note_off_c, 9, 36, 64
5, 82305, Note_on_c, 9, 42, 56
5, 82320, Note_on_c, 9, 36, 63
5, 82380, Note_off_c, 9, 42, 64
5, 82440, Note_off_c, 9, 36, 64
5, 82545, Note_on_c, 9, 42, 72
5, 82560, Note_on_c, 9, 36, 76
5, 82635, Note_off_c, 9, 42, 64
5, 82715, Note_off_c, 9, 51, 64
5, 82785, Note_on_c, 9, 42, 62
5, 82825, Note_off_c, 9, 40, 64
5, 82850, Note_off_c, 9, 42, 64
5, 83020, Note_on_c, 9, 42, 75
5, 83030, Note_on_c, 9, 51, 54
5, 83040, Note_on_c, 9, 40, 108
5, 83110, Note_off_c, 9, 42, 64
5, 83165, Note_off_c, 9, 36, 64
5, 83270, Note_on_c, 9, 42, 59
5, 83280, Note_on_c, 9, 36, 64
5, 83340, Note_off_c, 9, 42, 64
5, 83425, Note_off_c, 9, 36, 64
5, 83520, Note_on_c, 9, 36, 84
5, 83520, Note_on_c, 9, 42, 72
5, 83605, Note_off_c, 9, 42, 64
5, 83710, Note_off_c, 9, 51, 64
5, 83760, Note_on_c, 9, 42, 52
5, 83815, Note_off_c, 9, 40, 64
5, 83820, Note_off_c, 9, 42, 64
5, 83995, Note_on_c, 9, 42, 72
5, 84000, Note_on_c, 9, 40, 108
5, 84000, Note_on_c, 9, 51, 48
5, 84085, Note_off_c, 9, 36, 64
5, 84085, Note_off_c, 9, 42, 64
5, 84230, Note_on_c, 9, 42, 59
5, 84240, Note_on_c, 9, 36, 91
5, 84305, Note_off_c, 9, 42, 64
5, 84355, Note_off_c, 9, 36, 64
5, 84475, Note_on_c, 9, 42, 75
5, 84480, Note_on_c, 9, 36, 86
5, 84570, Note_off_c, 9, 42, 64
5, 84715, Note_on_c, 9, 42, 54
5, 84725, Note_off_c, 9, 51, 64
5, 84780, Note_off_c, 9, 42, 64
5, 84790, Note_off_c, 9, 40, 64
5, 84960, Note_on_c, 9, 40, 103
5, 84965, Note_on_c, 9, 51, 56
5, 84970, Note_on_c, 9, 42, 72
5, 85040, Note_off_c, 9, 42, 64
5, 85055, Note_off_c, 9, 36, 64
5, 85200, Note_on_c, 9, 36, 76
5, 85215, Note_on_c, 9, 42, 64
5, 85275, Note_off_c, 9, 42, 64
5, 85325, Note_off_c, 9, 36, 64
5, 85440, Note_on_c, 9, 36, 81
5, 85445, Note_on_c, 9, 42, 72
5, 85525, Note_off_c, 9, 42, 64
5, 85680, Note_on_c, 9, 42, 59
5, 85685, Note_off_c, 9, 51, 64
5, 85695, Note_on_c, 9, 48, 76
5, 85700, Note_on_c, 9, 45, 78
5, 85725, Note_off_c, 9, 40, 64
5, 85755, Note_off_c, 9, 42, 64
5, 85770, Note_off_c, 9, 45, 64
5, 85780, Note_off_c, 9, 48, 64
5, 85910, Note_on_c, 9, 51, 52
5, 85915, Note_on_c, 9, 42, 69
5, 85920, Note_on_c, 9, 40, 108
5, 85925, Note_on_c, 9, 48, 93
5, 85930, Note_on_c, 9, 45, 96
5, 85990, Note_off_c, 9, 36, 64
5, 86000, Note_off_c, 9, 42, 64
5, 86120, Note_off_c, 9, 45, 64
5, 86150, Note_off_c, 9, 48, 64
5, 86155, Note_on_c, 9, 42, 54
5, 86160, Note_on_c, 9, 36, 76
5, 86225, Note_off_c, 9, 42, 64
5, 86260, Note_off_c, 9, 36, 64
5, 86390, Note_on_c, 9, 42, 64
5, 86400, Note_on_c, 9, 36, 88
5, 86400, Note_on_c, 9, 42, 92
5, 86460, Note_off_c, 9, 42, 64
5, 86475, Note_off_c, 9, 42, 64
5, 86625, Note_on_c, 9, 42, 54
5, 86670, Note_off_c, 9, 42, 64
5, 86680, Note_off_c, 9, 51, 64
5, 86680, Note_off_c, 9, 40, 64
5, 86860, Note_on_c, 9, 42, 72
5, 86880, Note_on_c, 9, 40, 103
5, 86890, Note_on_c, 9, 51, 45
5, 86940, Note_off_c, 9, 42, 64
5, 86970, Note_off_c, 9, 36, 64
5, 87095, Note_on_c, 9, 42, 62
5, 87120, Note_on_c, 9, 36, 88
5, 87160, Note_off_c, 9, 42, 64
5, 87215, Note_off_c, 9, 36, 64
5, 87350, Note_on_c, 9, 42, 72
5, 87360, Note_off_c, 9, 51, 64
5, 87360, Note_on_c, 9, 36, 86
5, 87430, Note_off_c, 9, 42, 64
5, 87585, Note_on_c, 9, 42, 54
5, 87640, Note_off_c, 9, 42, 64
5, 87690, Note_off_c, 9, 40, 64
5, 87820, Note_on_c, 9, 42, 81
5, 87830, Note_on_c, 9, 51, 45
5, 87840, Note_on_c, 9, 40, 101
5, 87910, Note_off_c, 9, 42, 64
5, 87975, Note_off_c, 9, 36, 64
5, 88065, Note_on_c, 9, 42, 56
5, 88080, Note_on_c, 9, 36, 63
5, 88140, Note_off_c, 9, 42, 64
5, 88200, Note_off_c, 9, 36, 64
5, 88305, Note_on_c, 9, 42, 72
5, 88320, Note_on_c, 9, 36, 76
5, 88395, Note_off_c, 9, 42, 64
5, 88475, Note_off_c, 9, 51, 64
5, 88545, Note_on_c, 9, 42, 62
5, 88585, Note_off_c, 9, 40, 64
5, 88610, Note_off_c, 9, 42, 64
5, 88780, Note_on_c, 9, 42, 75
5, 88790, Note_on_c, 9, 51, 54
5, 88800, Note_on_c, 9, 40, 108
5, 88870, Note_off_c, 9, 42, 64
5, 88925, Note_off_c, 9, 36, 64
5, 89030, Note_on_c, 9, 42, 59
5, 89040, Note_on_c, 9, 36, 64
5, 89100, Note_off_c, 9, 42, 64
5, 89185, Note_off_c, 9, 36, 64
5, 89280, Note_on_c, 9, 36, 84
5, 89280, Note_on_c, 9, 42, 72
5, 89365, Note_off_c, 9, 42, 64
5, 89470, Note_off_c, 9, 51, 64
5, 89520, Note_on_c, 9, 42, 52
5, 89575, Note_off_c, 9, 40, 64
5, 89580, Note_off_c, 9, 42, 64
5, 89755, Note_on_c, 9, 42, 72
5, 89760, Note_on_c, 9, 40, 108
5, 89760, Note_on_c, 9, 51, 48
5, 89845, Note_off_c, 9, 36, 64
5, 89845, Note_off_c, 9, 42, 64
5, 89990, Note_on_c, 9, 42, 59
5, 90000, Note_on_c, 9, 36, 91
5, 90065, Note_off_c, 9, 42, 64
5, 90115, Note_off_c, 9, 36, 64
5, 90235, Note_on_c, 9, 42, 75
5, 90240, Note_on_c, 9, 36, 86
5, 90330, Note_off_c, 9, 42, 64
5, 90475, Note_on_c, 9, 42, 54
5, 90485, Note_off_c, 9, 51, 64
5, 90540, Note_off_c, 9, 42, 64
5, 90550, Note_off_c, 9, 40, 64
5, 90720, Note_on_c, 9, 40, 103
5, 90725, Note_on_c, 9, 51, 56
5, 90730, Note_on_c, 9, 42, 72
5, 90800, Note_off_c, 9, 42, 64
5, 90815, Note_off_c, 9, 36, 64
5, 90960, Note_on_c, 9, 36, 76
5, 90975, Note_on_c, 9, 42, 64
5, 91035, Note_off_c, 9, 42, 64
5, 91085, Note_off_c, 9, 36, 64
5, 91200, Note_on_c, 9, 36, 81
5, 91205, Note_on_c, 9, 42, 72
5, 91285, Note_off_c, 9, 42, 64
5, 91440, Note_on_c, 9, 42, 59
5, 91445, Note_off_c, 9, 51, 64
5, 91485, Note_off_c, 9, 40, 64
5, 91515, Note_off_c, 9, 42, 64
5, 91670, Note_on_c, 9, 51, 52
5, 91675, Note_on_c, 9, 42, 69
5, 91680, Note_on_c, 9, 40, 108
5, 91750, Note_off_c, 9, 36, 64
5, 91760, Note_off_c, 9, 42, 64
5, 91915, Note_on_c, 9, 42, 54
5, 91920, Note_on_c, 9, 36, 76
5, 91985, Note_off_c, 9, 42, 64
5, 92020, Note_off_c, 9, 36, 64
5, 92150, Note_on_c, 9, 42, 64
5, 92160, Note_on_c, 9, 36, 74
5, 92235, Note_off_c, 9, 42, 64
5, 92395, Note_on_c, 9, 42, 50
5, 92440, Note_off_c, 9, 51, 64
5, 92440, Note_off_c, 9, 40, 64
5, 92455, Note_off_c, 9, 42, 64
5, 92640, Note_on_c, 9, 40, 108
5, 92640, Note_on_c, 9, 42, 75
5, 92655, Note_on_c, 9, 51, 56
5, 92725, Note_off_c, 9, 42, 64
5, 92750, Note_off_c, 9, 36, 64
5, 92880, Note_on_c, 9, 36, 84
5, 92880, Note_on_c, 9, 42, 62
5, 92960, Note_off_c, 9, 42, 64
5, 92980, Note_off_c, 9, 36, 64
5, 93120, Note_on_c, 9, 36, 78
5, 93120, Note_on_c, 9, 42, 75
5, 93205, Note_off_c, 9, 42, 64
5, 93355, Note_off_c, 9, 51, 64
5, 93365, Note_on_c, 9, 42, 59
5, 93425, Note_off_c, 9, 40, 64
5, 93430, Note_off_c, 9, 42, 64
5, 93600, Note_on_c, 9, 40, 106
5, 93605, Note_on_c, 9, 42, 72
5, 93610, Note_on_c, 9, 51, 52
5, 93670, Note_off_c, 9, 36, 64
5, 93685, Note_off_c, 9, 42, 64
5, 93840, Note_on_c, 9, 36, 74
5, 93845, Note_on_c, 9, 42, 59
5, 93915, Note_off_c, 9, 42, 64
5, 93960, Note_off_c, 9, 36, 64
5, 94080, Note_on_c, 9, 36, 88
5, 94080, Note_on_c, 9, 42, 92
5, 94140, Note_off_c, 9, 42, 64
5, 94180, Note_off_c, 9, 40, 64
5, 94255, Note_off_c, 9, 51, 64
5, 94305, Note_on_c, 9, 42, 54
5, 94350, Note_off_c, 9, 42, 64
5, 94540, Note_on_c, 9, 42, 72
5, 94560, Note_on_c, 9, 40, 103
5, 94565, Note_on_c, 9, 51, 56
5, 94620, Note_off_c, 9, 42, 64
5, 94650, Note_off_c, 9, 36, 64
5, 94775, Note_on_c, 9, 42, 62
5, 94800, Note_on_c, 9, 36, 88
5, 94840, Note_off_c, 9, 42, 64
5, 94895, Note_off_c, 9, 36, 64
5, 95030, Note_on_c, 9, 42, 72
5, 95040, Note_on_c, 9, 36, 86
5, 95110, Note_off_c, 9, 42, 64
5, 95265, Note_on_c, 9, 42, 54
5, 95285, Note_off_c, 9, 51, 64
5, 95320, Note_off_c, 9, 42, 64
5, 95370, Note_off_c, 9, 40, 64
5, 95500, Note_on_c, 9, 42, 81
5, 95510, Note_on_c, 9, 51, 52
5, 95520, Note_on_c, 9, 40, 101
5, 95590, Note_off_c, 9, 42, 64
5, 95655, Note_off_c, 9, 36, 64
5, 95745, Note_on_c, 9, 42, 56
5, 95760, Note_on_c, 9, 36, 63
5, 95820, Note_off_c, 9, 42, 64
5, 95880, Note_off_c, 9, 36, 64
5, 95985, Note_on_c, 9, 42, 72
5, 96000, Note_on_c, 9, 36, 76
5, 96075, Note_off_c, 9, 42, 64
5, 96225, Note_on_c, 9, 42, 62
5, 96265, Note_off_c, 9, 40, 64
5, 96280, Note_off_c, 9, 51, 64
5, 96290, Note_off_c, 9, 42, 64
5, 96460, Note_on_c, 9, 42, 75
5, 96480, Note_on_c, 9, 40, 108
5, 96495, Note_on_c, 9, 51, 56
5, 96550, Note_off_c, 9, 42, 64
5, 96605, Note_off_c, 9, 36, 64
5, 96710, Note_on_c, 9, 42, 59
5, 96720, Note_on_c, 9, 36, 64
5, 96780, Note_off_c, 9, 42, 64
5, 96865, Note_off_c, 9, 36, 64
5, 96960, Note_on_c, 9, 36, 84
5, 96960, Note_on_c, 9, 42, 72
5, 97045, Note_off_c, 9, 42, 64
5, 97195, Note_off_c, 9, 51, 64
5, 97200, Note_on_c, 9, 42, 52
5, 97255, Note_off_c, 9, 40, 64
5, 97260, Note_off_c, 9, 42, 64
5, 97435, Note_on_c, 9, 42, 72
5, 97440, Note_on_c, 9, 40, 108
5, 97450, Note_on_c, 9, 51, 52
5, 97525, Note_off_c, 9, 36, 64
5, 97525, Note_off_c, 9, 42, 64
5, 97670, Note_on_c, 9, 42, 59
5, 97680, Note_on_c, 9, 36, 91
5, 97745, Note_off_c, 9, 42, 64
5, 97795, Note_off_c, 9, 36, 64
5, 97915, Note_on_c, 9, 42, 75
5, 97920, Note_on_c, 9, 36, 86
5, 98010, Note_off_c, 9, 42, 64
5, 98095, Note_off_c, 9, 51, 64
5, 98155, Note_on_c, 9, 42, 54
5, 98220, Note_off_c, 9, 42, 64
5, 98230, Note_off_c, 9, 40, 64
5, 98375, Note_on_c, 9, 51, 50
5, 98400, Note_on_c, 9, 40, 103
5, 98410, Note_on_c, 9, 42, 72
5, 98480, Note_off_c, 9, 42, 64
5, 98495, Note_off_c, 9, 36, 64
5, 98640, Note_on_c, 9, 36, 76
5, 98655, Note_on_c, 9, 42, 64
5, 98715, Note_off_c, 9, 42, 64
5, 98765, Note_off_c, 9, 36, 64
5, 98880, Note_on_c, 9, 36, 81
5, 98885, Note_on_c, 9, 42, 72
5, 98965, Note_off_c, 9, 42, 64
5, 99105, Note_off_c, 9, 51, 64
5, 99120, Note_on_c, 9, 42, 59
5, 99165, Note_off_c, 9, 40, 64
5, 99195, Note_off_c, 9, 42, 64
5, 99355, Note_on_c, 9, 42, 69
5, 99355, Note_on_c, 9, 51, 54
5, 99360, Note_on_c, 9, 40, 108
5, 99430, Note_off_c, 9, 36, 64
5, 99440, Note_off_c, 9, 42, 64
5, 99595, Note_on_c, 9, 42, 54
5, 99600, Note_on_c, 9, 36, 76
5, 99665, Note_off_c, 9, 42, 64
5, 99700, Note_off_c, 9, 36, 64
5, 99830, Note_on_c, 9, 42, 64
5, 99840, Note_on_c, 9, 36, 74
5, 99915, Note_off_c, 9, 42, 64
5, 100030, Note_off_c, 9, 51, 64
5, 100075, Note_on_c, 9, 42, 50
5, 100120, Note_off_c, 9, 40, 64
5, 100135, Note_off_c, 9, 42, 64
5, 100310, Note_on_c, 9, 51, 59
5, 100320, Note_on_c, 9, 40, 108
5, 100320, Note_on_c, 9, 42, 75
5, 100405, Note_off_c, 9, 42, 64
5, 100430, Note_off_c, 9, 36, 64
5, 100560, Note_on_c, 9, 36, 84
5, 100560, Note_on_c, 9, 42, 62
5, 100640, Note_off_c, 9, 42, 64
5, 100660, Note_off_c, 9, 36, 64
5, 100800, Note_on_c, 9, 36, 78
5, 100800, Note_on_c, 9, 42, 75
5, 100885, Note_off_c, 9, 42, 64
5, 101015, Note_off_c, 9, 51, 64
5, 101045, Note_on_c, 9, 42, 59
5, 101105, Note_off_c, 9, 40, 64
5, 101110, Note_off_c, 9, 42, 64
5, 101280, Note_on_c, 9, 40, 106
5, 101285, Note_on_c, 9, 42, 72
5, 101295, Note_on_c, 9, 51, 45
5, 101350, Note_off_c, 9, 36, 64
5, 101365, Note_off_c, 9, 42, 64
5, 101520, Note_on_c, 9, 36, 74
5, 101525, Note_on_c, 9, 42, 59
5, 101595, Note_off_c, 9, 42, 64
5, 101640, Note_off_c, 9, 36, 64
5, 101760, Note_on_c, 9, 36, 88
5, 101760, Note_on_c, 9, 42, 92
5, 101820, Note_off_c, 9, 42, 64
5, 101860, Note_off_c, 9, 40, 64
5, 101960, Note_off_c, 9, 51, 64
5, 101985, Note_on_c, 9, 42, 54
5, 102030, Note_off_c, 9, 42, 64
5, 102220, Note_on_c, 9, 42, 72
5, 102230, Note_on_c, 9, 51, 45
5, 102240, Note_on_c, 9, 40, 103
5, 102300, Note_off_c, 9, 42, 64
5, 102330, Note_off_c, 9, 36, 64
5, 102455, Note_on_c, 9, 42, 62
5, 102480, Note_on_c, 9, 36, 88
5, 102520, Note_off_c, 9, 42, 64
5, 102575, Note_off_c, 9, 36, 64
5, 102710, Note_on_c, 9, 42, 72
5, 102720, Note_on_c, 9, 36, 86
5, 102790, Note_off_c, 9, 42, 64
5, 102880, Note_off_c, 9, 51, 64
5, 102945, Note_on_c, 9, 42, 54
5, 103000, Note_off_c, 9, 42, 64
5, 103050, Note_off_c, 9, 40, 64
5, 103180, Note_on_c, 9, 42, 81
5, 103200, Note_on_c, 9, 40, 101
5, 103210, Note_on_c, 9, 51, 52
5, 103270, Note_off_c, 9, 42, 64
5, 103335, Note_off_c, 9, 36, 64
5, 103425, Note_on_c, 9, 42, 56
5, 103440, Note_on_c, 9, 36, 63
5, 103500, Note_off_c, 9, 42, 64
5, 103560, Note_off_c, 9, 36, 64
5, 103665, Note_on_c, 9, 42, 72
5, 103680, Note_on_c, 9, 36, 76
5, 103755, Note_off_c, 9, 42, 64
5, 103850, Note_off_c, 9, 51, 64
5, 103905, Note_on_c, 9, 42, 62
5, 103945, Note_off_c, 9, 40, 64
5, 103970, Note_off_c, 9, 42, 64
5, 104140, Note_on_c, 9, 42, 75
5, 104160, Note_on_c, 9, 40, 108
5, 104165, Note_on_c, 9, 51, 52
5, 104230, Note_off_c, 9, 42, 64
5, 104285, Note_off_c, 9, 36, 64
5, 104390, Note_on_c, 9, 42, 59
5, 104400, Note_on_c, 9, 36, 64
5, 104460, Note_off_c, 9, 42, 64
5, 104545, Note_off_c, 9, 36, 64
5, 104640, Note_on_c, 9, 36, 84
5, 104640, Note_on_c, 9, 42, 72
5, 104725, Note_off_c, 9, 42, 64
5, 104815, Note_off_c, 9, 51, 64
5, 104880, Note_on_c, 9, 42, 52
5, 104935, Note_off_c, 9, 40, 64
5, 104940, Note_off_c, 9, 42, 64
5, 105115, Note_on_c, 9, 42, 72
5, 105120, Note_on_c, 9, 40, 108
5, 105135, Note_on_c, 9, 51, 54
5, 105205, Note_off_c, 9, 36, 64
5, 105205, Note_off_c, 9, 42, 64
5, 105350, Note_on_c, 9, 42, 59
5, 105360, Note_on_c, 9, 36, 91
5, 105425, Note_off_c, 9, 42, 64
5, 105475, Note_off_c, 9, 36, 64
5, 105595, Note_on_c, 9, 42, 75
5, 105600, Note_on_c, 9, 36, 86
5, 105690, Note_off_c, 9, 42, 64
5, 105760, Note_off_c, 9, 51, 64
5, 105835, Note_on_c, 9, 42, 54
5, 105900, Note_off_c, 9, 42, 64
5, 105910, Note_off_c, 9, 40, 64
5, 106080, Note_on_c, 9, 40, 103
5, 106085, Note_on_c, 9, 51, 54
5, 106090, Note_on_c, 9, 42, 72
5, 106160, Note_off_c, 9, 42, 64
5, 106175, Note_off_c, 9, 36, 64
5, 106320, Note_on_c, 9, 36, 76
5, 106335, Note_on_c, 9, 42, 64
5, 106395, Note_off_c, 9, 42, 64
5, 106445, Note_off_c, 9, 36, 64
5, 106560, Note_on_c, 9, 36, 81
5, 106565, Note_on_c, 9, 42, 72
5, 106645, Note_off_c, 9, 42, 64
5, 106715, Note_off_c, 9, 51, 64
5, 106800, Note_on_c, 9, 42, 59
5, 106845, Note_off_c, 9, 40, 64
5, 106875, Note_off_c, 9, 42, 64
5, 107035, Note_on_c, 9, 42, 69
5, 107040, Note_on_c, 9, 40, 108
5, 107040, Note_on_c, 9, 51, 52
5, 107110, Note_off_c, 9, 36, 64
5, 107120, Note_off_c, 9, 42, 64
5, 107275, Note_on_c, 9, 42, 54
5, 107280, Note_on_c, 9, 36, 76
5, 107345, Note_off_c, 9, 42, 64
5, 107380, Note_off_c, 9, 36, 64
5, 107510, Note_on_c, 9, 42, 64
5, 107520, Note_on_c, 9, 36, 74
5, 107595, Note_off_c, 9, 42, 64
5, 107660, Note_off_c, 9, 51, 64
5, 107755, Note_on_c, 9, 42, 50
5, 107800, Note_off_c, 9, 40, 64
5, 107815, Note_off_c, 9, 42, 64
5, 108000, Note_on_c, 9, 40, 108
5, 108000, Note_on_c, 9, 42, 75
5, 108005, Note_on_c, 9, 51, 45
5, 108085, Note_off_c, 9, 42, 64
5, 108110, Note_off_c, 9, 36, 64
5, 108240, Note_on_c, 9, 36, 84
5, 108240, Note_on_c, 9, 42, 62
5, 108320, Note_off_c, 9, 42, 64
5, 108340, Note_off_c, 9, 36, 64
5, 108480, Note_off_c, 9, 51, 64
5, 108480, Note_on_c, 9, 36, 78
5, 108480, Note_on_c, 9, 42, 75
5, 108565, Note_off_c, 9, 42, 64
5, 108725, Note_on_c, 9, 42, 59
5, 108785, Note_off_c, 9, 40, 64
5, 108790, Note_off_c, 9, 42, 64
5, 108960, Note_on_c, 9, 40, 106
5, 108965, Note_on_c, 9, 42, 72
5, 108970, Note_on_c, 9, 51, 47
5, 109030, Note_off_c, 9, 36, 64
5, 109045, Note_off_c, 9, 42, 64
5, 109200, Note_on_c, 9, 36, 74
5, 109205, Note_on_c, 9, 42, 59
5, 109275, Note_off_c, 9, 42, 64
5, 109320, Note_off_c, 9, 36, 64
5, 109440, Note_on_c, 9, 36, 88
5, 109440, Note_on_c, 9, 42, 92
5, 109495, Note_off_c, 9, 51, 64
5, 109500, Note_off_c, 9, 42, 64
5, 109540, Note_off_c, 9, 40, 64
5, 109665, Note_on_c, 9, 42, 54
5, 109710, Note_off_c, 9, 42, 64
5, 109900, Note_on_c, 9, 42, 72
5, 109920, Note_on_c, 9, 40, 103
5, 109930, Note_on_c, 9, 51, 45
5, 109980, Note_off_c, 9, 42, 64
5, 110010, Note_off_c, 9, 36, 64
5, 110135, Note_on_c, 9, 42, 62
5, 110160, Note_on_c, 9, 36, 88
5, 110200, Note_off_c, 9, 42, 64
5, 110255, Note_off_c, 9, 36, 64
5, 110390, Note_on_c, 9, 42, 72
5, 110400, Note_off_c, 9, 51, 64
5, 110400, Note_on_c, 9, 36, 86
5, 110470, Note_off_c, 9, 42, 64
5, 110625, Note_on_c, 9, 42, 54
5, 110680, Note_off_c, 9, 42, 64
5, 110730, Note_off_c, 9, 40, 64
5, 110860, Note_on_c, 9, 42, 81
5, 110870, Note_on_c, 9, 51, 45
5, 110880, Note_on_c, 9, 40, 101
5, 110950, Note_off_c, 9, 42, 64
5, 111015, Note_off_c, 9, 36, 64
5, 111105, Note_on_c, 9, 42, 56
5, 111120, Note_on_c, 9, 36, 63
5, 111180, Note_off_c, 9, 42, 64
5, 111240, Note_off_c, 9, 36, 64
5, 111345, Note_on_c, 9, 42, 72
5, 111360, Note_on_c, 9, 36, 76
5, 111435, Note_off_c, 9, 42, 64
5, 111515, Note_off_c, 9, 51, 64
5, 111585, Note_on_c, 9, 42, 62
5, 111625, Note_off_c, 9, 40, 64
5, 111650, Note_off_c, 9, 42, 64
5, 111820, Note_on_c, 9, 42, 75
5, 111830, Note_on_c, 9, 51, 54
5, 111840, Note_on_c, 9, 40, 108
5, 111910, Note_off_c, 9, 42, 64
5, 111965, Note_off_c, 9, 36, 64
5, 112070, Note_on_c, 9, 42, 59
5, 112080, Note_on_c, 9, 36, 64
5, 112140, Note_off_c, 9, 42, 64
5, 112225, Note_off_c, 9, 36, 64
5, 112320, Note_on_c, 9, 36, 84
5, 112320, Note_on_c, 9, 42, 72
5, 112405, Note_off_c, 9, 42, 64
5, 112510, Note_off_c, 9, 51, 64
5, 112560, Note_on_c, 9, 42, 52
5, 112615, Note_off_c, 9, 40, 64
5, 112620, Note_off_c, 9, 42, 64
5, 112795, Note_on_c, 9, 42, 72
5, 112800, Note_on_c, 9, 40, 108
5, 112800, Note_on_c, 9, 51, 48
5, 112885, Note_off_c, 9, 36, 64
5, 112885, Note_off_c, 9, 42, 64
5, 113030, Note_on_c, 9, 42, 59
5, 113040, Note_on_c, 9, 36, 91
5, 113105, Note_off_c, 9, 42, 64
5, 113155, Note_off_c, 9, 36, 64
5, 113275, Note_on_c, 9, 42, 75
5, 113280, Note_on_c, 9, 36, 86
5, 113370, Note_off_c, 9, 42, 64
5, 113515, Note_on_c, 9, 42, 54
5, 113525, Note_off_c, 9, 51, 64
5, 113580, Note_off_c, 9, 42, 64
5, 113590, Note_off_c, 9, 40, 64
5, 113760, Note_on_c, 9, 40, 103
5, 113765, Note_on_c, 9, 51, 56
5, 113770, Note_on_c, 9, 42, 72
5, 113840, Note_off_c, 9, 42, 64
5, 113855, Note_off_c, 9, 36, 64
5, 114000, Note_on_c, 9, 36, 76
5, 114015, Note_on_c, 9, 42, 64
5, 114075, Note_off_c, 9, 42, 64
5, 114125, Note_off_c, 9, 36, 64
5, 114240, Note_on_c, 9, 36, 81
5, 114245, Note_on_c, 9, 42, 72
5, 114325, Note_off_c, 9, 42, 64
5, 114480, Note_on_c, 9, 42, 59
5, 114485, Note_off_c, 9, 51, 64
5, 114525, Note_off_c, 9, 40, 64
5, 114555, Note_off_c, 9, 42, 64
5, 114710, Note_on_c, 9, 51, 52
5, 114715, Note_on_c, 9, 42, 69
5, 114720, Note_on_c, 9, 40, 108
5, 114790, Note_off_c, 9, 36, 64
5, 114800, Note_off_c, 9, 42, 64
5, 114955, Note_on_c, 9, 42, 54
5, 114960, Note_on_c, 9, 36, 76
5, 115025, Note_off_c, 9, 42, 64
5, 115060, Note_off_c, 9, 36, 64
5, 115190, Note_on_c, 9, 42, 64
5, 115200, Note_on_c, 9, 36, 74
5, 115275, Note_off_c, 9, 42, 64
5, 115435, Note_on_c, 9, 42, 50
5, 115480, Note_off_c, 9, 51, 64
5, 115480, Note_off_c, 9, 40, 64
5, 115495, Note_off_c, 9, 42, 64
5, 115680, Note_on_c, 9, 40, 108
5, 115680, Note_on_c, 9, 42, 75
5, 115695, Note_on_c, 9, 51, 56
5, 115765, Note_off_c, 9, 42, 64
5, 115790, Note_off_c, 9, 36, 64
5, 115920, Note_on_c, 9, 36, 84
5, 115920, Note_on_c, 9, 42, 62
5, 116000, Note_off_c, 9, 42, 64
5, 116020, Note_off_c, 9, 36, 64
5, 116160, Note_on_c, 9, 36, 78
5, 116160, Note_on_c, 9, 42, 75
5, 116245, Note_off_c, 9, 42, 64
5, 116395, Note_off_c, 9, 51, 64
5, 116405, Note_on_c, 9, 42, 59
5, 116465, Note_off_c, 9, 40, 64
5, 116470, Note_off_c, 9, 42, 64
5, 116640, Note_on_c, 9, 40, 106
5, 116645, Note_on_c, 9, 42, 72
5, 116650, Note_on_c, 9, 51, 52
5, 116710, Note_off_c, 9, 36, 64
5, 116725, Note_off_c, 9, 42, 64
5, 116880, Note_on_c, 9, 36, 74
5, 116885, Note_on_c, 9, 42, 59
5, 116955, Note_off_c, 9, 42, 64
5, 117000, Note_off_c, 9, 36, 64
5, 117120, Note_on_c, 9, 36, 88
5, 117120, Note_on_c, 9, 42, 92
5, 117180, Note_off_c, 9, 42, 64
5, 117220, Note_off_c, 9, 40, 64
5, 117295, Note_off_c, 9, 51, 64
5, 117345, Note_on_c, 9, 42, 54
5, 117390, Note_off_c, 9, 42, 64
5, 117575, Note_on_c, 9, 51, 50
5, 117580, Note_on_c, 9, 42, 72
5, 117600, Note_on_c, 9, 40, 103
5, 117660, Note_off_c, 9, 42, 64
5, 117690, Note_off_c, 9, 36, 64
5, 117815, Note_on_c, 9, 42, 62
5, 117840, Note_on_c, 9, 36, 88
5, 117880, Note_off_c, 9, 42, 64
5, 117935, Note_off_c, 9, 36, 64
5, 118070, Note_on_c, 9, 42, 72
5, 118080, Note_on_c, 9, 36, 86
5, 118150, Note_off_c, 9, 42, 64
5, 118305, Note_off_c, 9, 51, 64
5, 118305, Note_on_c, 9, 42, 54
5, 118360, Note_off_c, 9, 42, 64
5, 118410, Note_off_c, 9, 40, 64
5, 118540, Note_on_c, 9, 42, 81
5, 118555, Note_on_c, 9, 51, 54
5, 118560, Note_on_c, 9, 40, 101
5, 118630, Note_off_c, 9, 42, 64
5, 118695, Note_off_c, 9, 36, 64
5, 118785, Note_on_c, 9, 42, 56
5, 118800, Note_on_c, 9, 36, 63
5, 118860, Note_off_c, 9, 42, 64
5, 118920, Note_off_c, 9, 36, 64
5, 119025, Note_on_c, 9, 42, 72
5, 119040, Note_on_c, 9, 36, 76
5, 119115, Note_off_c, 9, 42, 64
5, 119230, Note_off_c, 9, 51, 64
5, 119265, Note_on_c, 9, 42, 62
5, 119305, Note_off_c, 9, 40, 64
5, 119330, Note_off_c, 9, 42, 64
5, 119500, Note_on_c, 9, 42, 75
5, 119510, Note_on_c, 9, 51, 59
5, 119520, Note_on_c, 9, 40, 108
5, 119590, Note_off_c, 9, 42, 64
5, 119645, Note_off_c, 9, 36, 64
5, 119750, Note_on_c, 9, 42, 59
5, 119760, Note_on_c, 9, 36, 64
5, 119820, Note_off_c, 9, 42, 64
5, 119905, Note_off_c, 9, 36, 64
5, 120000, Note_on_c, 9, 36, 84
5, 120000, Note_on_c, 9, 42, 72
5, 120085, Note_off_c, 9, 42, 64
5, 120215, Note_off_c, 9, 51, 64
5, 120240, Note_on_c, 9, 42, 52
5, 120295, Note_off_c, 9, 40, 64
5, 120300, Note_off_c, 9, 42, 64
5, 120475, Note_on_c, 9, 42, 72
5, 120480, Note_on_c, 9, 40, 108
5, 120495, Note_on_c, 9, 51, 45
5, 120565, Note_off_c, 9, 36, 64
5, 120565, Note_off_c, 9, 42, 64
5, 120710, Note_on_c, 9, 42, 59
5, 120720, Note_on_c, 9, 36, 91
5, 120785, Note_off_c, 9, 42, 64
5, 120835, Note_off_c, 9, 36, 64
5, 120955, Note_on_c, 9, 42, 75
5, 120960, Note_on_c, 9, 36, 86
5, 121050, Note_off_c, 9, 42, 64
5, 121160, Note_off_c, 9, 51, 64
5, 121195, Note_on_c, 9, 42, 54
5, 121260, Note_off_c, 9, 42, 64
5, 121270, Note_off_c, 9, 40, 64
5, 121430, Note_on_c, 9, 51, 45
5, 121440, Note_on_c, 9, 40, 103
5, 121450, Note_on_c, 9, 42, 72
5, 121520, Note_off_c, 9, 42, 64
5, 121535, Note_off_c, 9, 36, 64
5, 121680, Note_on_c, 9, 36, 76
5, 121695, Note_on_c, 9, 42, 64
5, 121755, Note_off_c, 9, 42, 64
5, 121805, Note_off_c, 9, 36, 64
5, 121920, Note_on_c, 9, 36, 81
5, 121925, Note_on_c, 9, 42, 72
5, 122005, Note_off_c, 9, 42, 64
5, 122080, Note_off_c, 9, 51, 64
5, 122160, Note_on_c, 9, 42, 59
5, 122205, Note_off_c, 9, 40, 64
5, 122235, Note_off_c, 9, 42, 64
5, 122395, Note_on_c, 9, 42, 69
5, 122400, Note_on_c, 9, 40, 108
5, 122410, Note_on_c, 9, 51, 52
5, 122470, Note_off_c, 9, 36, 64
5, 122480, Note_off_c, 9, 42, 64
5, 122635, Note_on_c, 9, 42, 54
5, 122640, Note_on_c, 9, 36, 76
5, 122705, Note_off_c, 9, 42, 64
5, 122740, Note_off_c, 9, 36, 64
5, 122870, Note_on_c, 9, 42, 64
5, 122880, Note_on_c, 9, 36, 74
5, 122955, Note_off_c, 9, 42, 64
5, 123050, Note_off_c, 9, 51, 64
5, 123115, Note_on_c, 9, 42, 50
5, 123160, Note_off_c, 9, 40, 64
5, 123175, Note_off_c, 9, 42, 64
5, 123360, Note_on_c, 9, 40, 108
5, 123360, Note_on_c, 9, 42, 75
5, 123365, Note_on_c, 9, 51, 52
5, 123445, Note_off_c, 9, 42, 64
5, 123470, Note_off_c, 9, 36, 64
5, 123600, Note_on_c, 9, 36, 84
5, 123600, Note_on_c, 9, 42, 62
5, 123680, Note_off_c, 9, 42, 64
5, 123700, Note_off_c, 9, 36, 64
5, 123840, Note_on_c, 9, 36, 78
5, 123840, Note_on_c, 9, 42, 75
5, 123925, Note_off_c, 9, 42, 64
5, 124015, Note_off_c, 9, 51, 64
5, 124065, Note_on_c, 9, 45, 78
5, 124065, Note_on_c, 9, 48, 72
5, 124085, Note_on_c, 9, 42, 59
5, 124140, Note_off_c, 9, 48, 64
5, 124145, Note_off_c, 9, 40, 64
5, 124145, Note_off_c, 9, 45, 64
5, 124150, Note_off_c, 9, 42, 64
5, 124320, Note_on_c, 9, 40, 106
5, 124325, Note_on_c, 9, 42, 72
5, 124330, Note_on_c, 9, 48, 101
5, 124335, Note_on_c, 9, 51, 54
5, 124335, Note_on_c, 9, 45, 93
5, 124390, Note_off_c, 9, 36, 64
5, 124405, Note_off_c, 9, 42, 64
5, 124425, Note_off_c, 9, 48, 64
5, 124425, Note_off_c, 9, 45, 64
5, 124560, Note_on_c, 9, 36, 74
5, 124565, Note_on_c, 9, 42, 59
5, 124635, Note_off_c, 9, 42, 64
5, 124680, Note_off_c, 9, 36, 64
5, 124800, Note_on_c, 9, 36, 88
5, 124800, Note_on_c, 9, 42, 92
5, 124820, Note_on_c, 9, 49, 81
5, 124860, Note_off_c, 9, 42, 64
5, 124900, Note_off_c, 9, 40, 64
5, 124960, Note_off_c, 9, 51, 64
5, 125025, Note_on_c, 9, 42, 54
5, 125070, Note_off_c, 9, 42, 64
5, 125260, Note_on_c, 9, 42, 72
5, 125280, Note_on_c, 9, 40, 103
5, 125285, Note_on_c, 9, 51, 54
5, 125340, Note_off_c, 9, 42, 64
5, 125370, Note_off_c, 9, 36, 64
5, 125495, Note_on_c, 9, 42, 62
5, 125520, Note_on_c, 9, 36, 88
5, 125560, Note_off_c, 9, 42, 64
5, 125615, Note_off_c, 9, 36, 64
5, 125750, Note_on_c, 9, 42, 72
5, 125760, Note_on_c, 9, 36, 86
5, 125830, Note_off_c, 9, 42, 64
5, 125915, Note_off_c, 9, 51, 64
5, 125985, Note_on_c, 9, 42, 54
5, 126040, Note_off_c, 9, 42, 64
5, 126090, Note_off_c, 9, 40, 64
5, 126220, Note_on_c, 9, 42, 81
5, 126240, Note_on_c, 9, 40, 101
5, 126240, Note_on_c, 9, 51, 52
5, 126310, Note_off_c, 9, 42, 64
5, 126330, Note_off_c, 9, 49, 64
5, 126375, Note_off_c, 9, 36, 64
5, 126465, Note_on_c, 9, 42, 56
5, 126480, Note_on_c, 9, 36, 63
5, 126540, Note_off_c, 9, 42, 64
5, 126600, Note_off_c, 9, 36, 64
5, 126705, Note_on_c, 9, 42, 72
5, 126720, Note_on_c, 9, 36, 76
5, 126795, Note_off_c, 9, 42, 64
5, 126860, Note_off_c, 9, 51, 64
5, 126945, Note_on_c, 9, 42, 62
5, 126985, Note_off_c, 9, 40, 64
5, 127010, Note_off_c, 9, 42, 64
5, 127180, Note_on_c, 9, 42, 75
5, 127200, Note_on_c, 9, 40, 108
5, 127205, Note_on_c, 9, 51, 45
5, 127270, Note_off_c, 9, 42, 64
5, 127325, Note_off_c, 9, 36, 64
5, 127430, Note_on_c, 9, 42, 59
5, 127440, Note_on_c, 9, 36, 64
5, 127500, Note_off_c, 9, 42, 64
5, 127585, Note_off_c, 9, 36, 64
5, 127680, Note_off_c, 9, 51, 64
5, 127680, Note_on_c, 9, 36, 84
5, 127680, Note_on_c, 9, 42, 72
5, 127765, Note_off_c, 9, 42, 64
5, 127920, Note_on_c, 9, 42, 52
5, 127975, Note_off_c, 9, 40, 64
5, 127980, Note_off_c, 9, 42, 64
5, 128155, Note_on_c, 9, 42, 72
5, 128160, Note_on_c, 9, 40, 108
5, 128170, Note_on_c, 9, 51, 47
5, 128245, Note_off_c, 9, 36, 64
5, 128245, Note_off_c, 9, 42, 64
5, 128390, Note_on_c, 9, 42, 59
5, 128400, Note_on_c, 9, 36, 91
5, 128465, Note_off_c, 9, 42, 64
5, 128515, Note_off_c, 9, 36, 64
5, 128635, Note_on_c, 9, 42, 75
5, 128640, Note_on_c, 9, 36, 86
5, 128695, Note_off_c, 9, 51, 64
5, 128730, Note_off_c, 9, 42, 64
5, 128875, Note_on_c, 9, 42, 54
5, 128940, Note_off_c, 9, 42, 64
5, 128950, Note_off_c, 9, 40, 64
5, 129120, Note_on_c, 9, 40, 103
5, 129130, Note_on_c, 9, 42, 72
5, 129130, Note_on_c, 9, 51, 45
5, 129200, Note_off_c, 9, 42, 64
5, 129215, Note_off_c, 9, 36, 64
5, 129360, Note_on_c, 9, 36, 76
5, 129375, Note_on_c, 9, 42, 64
5, 129435, Note_off_c, 9, 42, 64
5, 129485, Note_off_c, 9, 36, 64
5, 129600, Note_off_c, 9, 51, 64
5, 129600, Note_on_c, 9, 36, 81
5, 129605, Note_on_c, 9, 42, 72
5, 129685, Note_off_c, 9, 42, 64
5, 129840, Note_on_c, 9, 42, 59
5, 129885, Note_off_c, 9, 40, 64
5, 129915, Note_off_c, 9, 42, 64
5, 130070, Note_on_c, 9, 51, 45
5, 130075, Note_on_c, 9, 42, 69
5, 130080, Note_on_c, 9, 40, 108
5, 130150, Note_off_c, 9, 36, 64
5, 130160, Note_off_c, 9, 42, 64
5, 130315, Note_on_c, 9, 42, 54
5, 130320, Note_on_c, 9, 36, 76
5, 130385, Note_off_c, 9, 42, 64
5, 130420, Note_off_c, 9, 36, 64
5, 130550, Note_on_c, 9, 42, 64
5, 130560, Note_on_c, 9, 36, 74
5, 130635, Note_off_c, 9, 42, 64
5, 130715, Note_off_c, 9, 51, 64
5, 130795, Note_on_c, 9, 42, 50
5, 130840, Note_off_c, 9, 40, 64
5, 130855, Note_off_c, 9, 42, 64
5, 131030, Note_on_c, 9, 51, 54
5, 131040, Note_on_c, 9, 40, 108
5, 131040, Note_on_c, 9, 42, 75
5, 131125, Note_off_c, 9, 42, 64
5, 131150, Note_off_c, 9, 36, 64
5, 131280, Note_on_c, 9, 36, 84
5, 131280, Note_on_c, 9, 42, 62
5, 131360, Note_off_c, 9, 42, 64
5, 131380, Note_off_c, 9, 36, 64
5, 131520, Note_on_c, 9, 36, 78
5, 131520, Note_on_c, 9, 42, 75
5, 131605, Note_off_c, 9, 42, 64
5, 131710, Note_off_c, 9, 51, 64
5, 131765, Note_on_c, 9, 42, 59
5, 131825, Note_off_c, 9, 40, 64
5, 131830, Note_off_c, 9, 42, 64
5, 132000, Note_on_c, 9, 40, 106
5, 132000, Note_on_c, 9, 51, 48
5, 132005, Note_on_c, 9, 42, 72
5, 132070, Note_off_c, 9, 36, 64
5, 132085, Note_off_c, 9, 42, 64
5, 132240, Note_on_c, 9, 36, 74
5, 132245, Note_on_c, 9, 42, 59
5, 132315, Note_off_c, 9, 42, 64
5, 132360, Note_off_c, 9, 36, 64
5, 132480, Note_on_c, 9, 36, 88
5, 132480, Note_on_c, 9, 42, 92
5, 132495, Note_on_c, 9, 49, 75
5, 132540, Note_off_c, 9, 42, 64
5, 132580, Note_off_c, 9, 40, 64
5, 132705, Note_on_c, 9, 42, 54
5, 132725, Note_off_c, 9, 51, 64
5, 132750, Note_off_c, 9, 42, 64
5, 132940, Note_on_c, 9, 42, 72
5, 132960, Note_on_c, 9, 40, 103
5, 132965, Note_on_c, 9, 51, 56
5, 133020, Note_off_c, 9, 42, 64
5, 133050, Note_off_c, 9, 36, 64
5, 133175, Note_on_c, 9, 42, 62
5, 133200, Note_on_c, 9, 36, 88
5, 133240, Note_off_c, 9, 42, 64
5, 133295, Note_off_c, 9, 36, 64
5, 133430, Note_on_c, 9, 42, 72
5, 133440, Note_on_c, 9, 36, 86
5, 133510, Note_off_c, 9, 42, 64
5, 133665, Note_on_c, 9, 42, 54
5, 133685, Note_off_c, 9, 51, 64
5, 133720, Note_off_c, 9, 42, 64
5, 133770, Note_off_c, 9, 40, 64
5, 133900, Note_on_c, 9, 42, 81
5, 133910, Note_on_c, 9, 51, 52
5, 133920, Note_on_c, 9, 40, 101
5, 133990, Note_off_c, 9, 42, 64
5, 133995, Note_off_c, 9, 49, 64
5, 134055, Note_off_c, 9, 36, 64
5, 134145, Note_on_c, 9, 42, 56
5, 134160, Note_on_c, 9, 36, 63
5, 134220, Note_off_c, 9, 42, 64
5, 134280, Note_off_c, 9, 36, 64
5, 134385, Note_on_c, 9, 42, 72
5, 134400, Note_on_c, 9, 36, 76
5, 134475, Note_off_c, 9, 42, 64
5, 134625, Note_on_c, 9, 42, 62
5, 134665, Note_off_c, 9, 40, 64
5, 134680, Note_off_c, 9, 51, 64
5, 134690, Note_off_c, 9, 42, 64
5, 134860, Note_on_c, 9, 42, 75
5, 134880, Note_on_c, 9, 40, 108
5, 134895, Note_on_c, 9, 51, 56
5, 134950, Note_off_c, 9, 42, 64
5, 135005, Note_off_c, 9, 36, 64
5, 135110, Note_on_c, 9, 42, 59
5, 135120, Note_on_c, 9, 36, 64
5, 135180, Note_off_c, 9, 42, 64
5, 135265, Note_off_c, 9, 36, 64
5, 135360, Note_on_c, 9, 36, 84
5, 135360, Note_on_c, 9, 42, 72
5, 135445, Note_off_c, 9, 42, 64
5, 135595, Note_off_c, 9, 51, 64
5, 135600, Note_on_c, 9, 42, 52
5, 135655, Note_off_c, 9, 40, 64
5, 135660, Note_off_c, 9, 42, 64
5, 135835, Note_on_c, 9, 42, 72
5, 135840, Note_on_c, 9, 40, 108
5, 135850, Note_on_c, 9, 51, 52
5, 135925, Note_off_c, 9, 36, 64
5, 135925, Note_off_c, 9, 42, 64
5, 136070, Note_on_c, 9, 42, 59
5, 136080, Note_on_c, 9, 36, 91
5, 136145, Note_off_c, 9, 42, 64
5, 136195, Note_off_c, 9, 36, 64
5, 136315, Note_on_c, 9, 42, 75
5, 136320, Note_on_c, 9, 36, 86
5, 136410, Note_off_c, 9, 42, 64
5, 136495, Note_off_c, 9, 51, 64
5, 136555, Note_on_c, 9, 42, 54
5, 136620, Note_off_c, 9, 42, 64
5, 136630, Note_off_c, 9, 40, 64
5, 136775, Note_on_c, 9, 51, 50
5, 136800, Note_on_c, 9, 40, 103
5, 136810, Note_on_c, 9, 42, 72
5, 136880, Note_off_c, 9, 42, 64
5, 136895, Note_off_c, 9, 36, 64
5, 137040, Note_on_c, 9, 36, 76
5, 137055, Note_on_c, 9, 42, 64
5, 137115, Note_off_c, 9, 42, 64
5, 137165, Note_off_c, 9, 36, 64
5, 137280, Note_on_c, 9, 36, 81
5, 137285, Note_on_c, 9, 42, 72
5, 137365, Note_off_c, 9, 42, 64
5, 137505, Note_off_c, 9, 51, 64
5, 137520, Note_on_c, 9, 42, 59
5, 137565, Note_off_c, 9, 40, 64
5, 137595, Note_off_c, 9, 42, 64
5, 137755, Note_on_c, 9, 42, 69
5, 137755, Note_on_c, 9, 51, 54
5, 137760, Note_on_c, 9, 40, 108
5, 137830, Note_off_c, 9, 36, 64
5, 137840, Note_off_c, 9, 42, 64
5, 137995, Note_on_c, 9, 42, 54
5, 138000, Note_on_c, 9, 36, 76
5, 138065, Note_off_c, 9, 42, 64
5, 138100, Note_off_c, 9, 36, 64
5, 138230, Note_on_c, 9, 42, 64
5, 138240, Note_on_c, 9, 36, 74
5, 138315, Note_off_c, 9, 42, 64
5, 138430, Note_off_c, 9, 51, 64
5, 138475, Note_on_c, 9, 42, 50
5, 138520, Note_off_c, 9, 40, 64
5, 138535, Note_off_c, 9, 42, 64
5, 138710, Note_on_c, 9, 51, 59
5, 138720, Note_on_c, 9, 40, 108
5, 138720, Note_on_c, 9, 42, 75
5, 138805, Note_off_c, 9, 42, 64
5, 138830, Note_off_c, 9, 36, 64
5, 138960, Note_on_c, 9, 36, 84
5, 138960, Note_on_c, 9, 42, 62
5, 139040, Note_off_c, 9, 42, 64
5, 139060, Note_off_c, 9, 36, 64
5, 139200, Note_on_c, 9, 36, 78
5, 139200, Note_on_c, 9, 42, 75
5, 139285, Note_off_c, 9, 42, 64
5, 139415, Note_off_c, 9, 51, 64
5, 139445, Note_on_c, 9, 42, 59
5, 139505, Note_off_c, 9, 40, 64
5, 139510, Note_off_c, 9, 42, 64
5, 139680, Note_on_c, 9, 40, 106
5, 139685, Note_on_c, 9, 42, 72
5, 139695, Note_on_c, 9, 51, 45
5, 139750, Note_off_c, 9, 36, 64
5, 139765, Note_off_c, 9, 42, 64
5, 139920, Note_on_c, 9, 36, 74
5, 139925, Note_on_c, 9, 42, 59
5, 139995, Note_off_c, 9, 42, 64
5, 140040, Note_off_c, 9, 36, 64
5, 140160, Note_on_c, 9, 36, 88
5, 140160, Note_on_c, 9, 42, 92
5, 140165, Note_on_c, 9, 49, 81
5, 140220, Note_off_c, 9, 42, 64
5, 140260, Note_off_c, 9, 40, 64
5, 140360, Note_off_c, 9, 51, 64
5, 140385, Note_on_c, 9, 42, 54
5, 140430, Note_off_c, 9, 42, 64
5, 140620, Note_on_c, 9, 42, 72
5, 140630, Note_on_c, 9, 51, 45
5, 140640, Note_on_c, 9, 40, 103
5, 140700, Note_off_c, 9, 42, 64
5, 140730, Note_off_c, 9, 36, 64
5, 140855, Note_on_c, 9, 42, 62
5, 140880, Note_on_c, 9, 36, 88
5, 140920, Note_off_c, 9, 42, 64
5, 140975, Note_off_c, 9, 36, 64
5, 141110, Note_on_c, 9, 42, 72
5, 141120, Note_on_c, 9, 36, 86
5, 141190, Note_off_c, 9, 42, 64
5, 141280, Note_off_c, 9, 51, 64
5, 141345, Note_on_c, 9, 42, 54
5, 141400, Note_off_c, 9, 42, 64
5, 141450, Note_off_c, 9, 40, 64
5, 141550, Note_off_c, 9, 49, 64
5, 141580, Note_on_c, 9, 42, 81
5, 141600, Note_on_c, 9, 40, 101
5, 141610, Note_on_c, 9, 51, 52
5, 141670, Note_off_c, 9, 42, 64
5, 141735, Note_off_c, 9, 36, 64
5, 141825, Note_on_c, 9, 42, 56
5, 141840, Note_on_c, 9, 36, 63
5, 141900, Note_off_c, 9, 42, 64
5, 141960, Note_off_c, 9, 36, 64
5, 142065, Note_on_c, 9, 42, 72
5, 142080, Note_on_c, 9, 36, 76
5, 142155, Note_off_c, 9, 42, 64
5, 142250, Note_off_c, 9, 51, 64
5, 142305, Note_on_c, 9, 42, 62
5, 142345, Note_off_c, 9, 40, 64
5, 142370, Note_off_c, 9, 42, 64
5, 142540, Note_on_c, 9, 42, 75
5, 142560, Note_on_c, 9, 40, 108
5, 142565, Note_on_c, 9, 51, 52
5, 142630, Note_off_c, 9, 42, 64
5, 142685, Note_off_c, 9, 36, 64
5, 142790, Note_on_c, 9, 42, 59
5, 142800, Note_on_c, 9, 36, 64
5, 142860, Note_off_c, 9, 42, 64
5, 142945, Note_off_c, 9, 36, 64
5, 143040, Note_on_c, 9, 36, 84
5, 143040, Note_on_c, 9, 42, 72
5, 143125, Note_off_c, 9, 42, 64
5, 143215, Note_off_c, 9, 51, 64
5, 143280, Note_on_c, 9, 42, 52
5, 143335, Note_off_c, 9, 40, 64
5, 143340, Note_off_c, 9, 42, 64
5, 143515, Note_on_c, 9, 42, 72
5, 143520, Note_on_c, 9, 40, 108
5, 143535, Note_on_c, 9, 51, 54
5, 143605, Note_off_c, 9, 36, 64
5, 143605, Note_off_c, 9, 42, 64
5, 143750, Note_on_c, 9, 42, 59
5, 143760, Note_on_c, 9, 36, 91
5, 143825, Note_off_c, 9, 42, 64
5, 143875, Note_off_c, 9, 36, 64
5, 143995, Note_on_c, 9, 42, 75
5, 144000, Note_on_c, 9, 36, 86
5, 144090, Note_off_c, 9, 42, 64
5, 144160, Note_off_c, 9, 51, 64
5, 144235, Note_on_c, 9, 42, 54
5, 144300, Note_off_c, 9, 42, 64
5, 144310, Note_off_c, 9, 40, 64
5, 144480, Note_on_c, 9, 40, 103
5, 144485, Note_on_c, 9, 51, 54
5, 144490, Note_on_c, 9, 42, 72
5, 144560, Note_off_c, 9, 42, 64
5, 144575, Note_off_c, 9, 36, 64
5, 144720, Note_on_c, 9, 36, 76
5, 144735, Note_on_c, 9, 42, 64
5, 144795, Note_off_c, 9, 42, 64
5, 144845, Note_off_c, 9, 36, 64
5, 144960, Note_on_c, 9, 36, 81
5, 144965, Note_on_c, 9, 42, 72
5, 145045, Note_off_c, 9, 42, 64
5, 145115, Note_off_c, 9, 51, 64
5, 145200, Note_on_c, 9, 42, 59
5, 145245, Note_off_c, 9, 40, 64
5, 145275, Note_off_c, 9, 42, 64
5, 145435, Note_on_c, 9, 42, 69
5, 145440, Note_on_c, 9, 40, 108
5, 145440, Note_on_c, 9, 51, 52
5, 145510, Note_off_c, 9, 36, 64
5, 145520, Note_off_c, 9, 42, 64
5, 145675, Note_on_c, 9, 42, 54
5, 145680, Note_on_c, 9, 36, 76
5, 145745, Note_off_c, 9, 42, 64
5, 145780, Note_off_c, 9, 36, 64
5, 145910, Note_on_c, 9, 42, 64
5, 145920, Note_on_c, 9, 36, 74
5, 145995, Note_off_c, 9, 42, 64
5, 146060, Note_off_c, 9, 51, 64
5, 146155, Note_on_c, 9, 42, 50
5, 146200, Note_off_c, 9, 40, 64
5, 146215, Note_off_c, 9, 42, 64
5, 146400, Note_on_c, 9, 40, 108
5, 146400, Note_on_c, 9, 42, 75
5, 146405, Note_on_c, 9, 51, 45
5, 146485, Note_off_c, 9, 42, 64
5, 146510, Note_off_c, 9, 36, 64
5, 146640, Note_on_c, 9, 36, 84
5, 146640, Note_on_c, 9, 42, 62
5, 146720, Note_off_c, 9, 42, 64
5, 146740, Note_off_c, 9, 36, 64
5, 146880, Note_off_c, 9, 51, 64
5, 146880, Note_on_c, 9, 36, 78
5, 146880, Note_on_c, 9, 42, 75
5, 146965, Note_off_c, 9, 42, 64
5, 147125, Note_on_c, 9, 42, 59
5, 147185, Note_off_c, 9, 40, 64
5, 147190, Note_off_c, 9, 42, 64
5, 147360, Note_on_c, 9, 40, 106
5, 147365, Note_on_c, 9, 42, 72
5, 147370, Note_on_c, 9, 51, 47
5, 147430, Note_off_c, 9, 36, 64
5, 147445, Note_off_c, 9, 42, 64
5, 147600, Note_on_c, 9, 36, 74
5, 147605, Note_on_c, 9, 42, 59
5, 147675, Note_off_c, 9, 42, 64
5, 147720, Note_off_c, 9, 36, 64
5, 147840, Note_on_c, 9, 36, 88
5, 147840, Note_on_c, 9, 42, 92
5, 147895, Note_off_c, 9, 51, 64
5, 147900, Note_off_c, 9, 42, 64
5, 147940, Note_off_c, 9, 40, 64
5, 148065, Note_on_c, 9, 42, 54
5, 148110, Note_off_c, 9, 42, 64
5, 148300, Note_on_c, 9, 42, 72
5, 148320, Note_on_c, 9, 40, 103
5, 148330, Note_on_c, 9, 51, 45
5, 148380, Note_off_c, 9, 42, 64
5, 148410, Note_off_c, 9, 36, 64
5, 148535, Note_on_c, 9, 42, 62
5, 148560, Note_on_c, 9, 36, 88
5, 148600, Note_off_c, 9, 42, 64
5, 148655, Note_off_c, 9, 36, 64
5, 148790, Note_on_c, 9, 42, 72
5, 148800, Note_off_c, 9, 51, 64
5, 148800, Note_on_c, 9, 36, 86
5, 148870, Note_off_c, 9, 42, 64
5, 149025, Note_on_c, 9, 42, 54
5, 149080, Note_off_c, 9, 42, 64
5, 149130, Note_off_c, 9, 40, 64
5, 149260, Note_on_c, 9, 42, 81
5, 149270, Note_on_c, 9, 51, 45
5, 149280, Note_on_c, 9, 40, 101
5, 149350, Note_off_c, 9, 42, 64
5, 149415, Note_off_c, 9, 36, 64
5, 149505, Note_on_c, 9, 42, 56
5, 149520, Note_on_c, 9, 36, 63
5, 149580, Note_off_c, 9, 42, 64
5, 149640, Note_off_c, 9, 36, 64
5, 149745, Note_on_c, 9, 42, 72
5, 149760, Note_on_c, 9, 36, 88
5, 149760, Note_on_c, 9, 42, 92
5, 149820, Note_off_c, 9, 42, 64
5, 149835, Note_off_c, 9, 42, 64
5, 149915, Note_off_c, 9, 51, 64
5, 149985, Note_on_c, 9, 42, 54
5, 150025, Note_off_c, 9, 40, 64
5, 150030, Note_off_c, 9, 42, 64
5, 150220, Note_on_c, 9, 42, 72
5, 150240, Note_on_c, 9, 40, 103
5, 150250, Note_on_c, 9, 51, 45
5, 150300, Note_off_c, 9, 42, 64
5, 150330, Note_off_c, 9, 36, 64
5, 150455, Note_on_c, 9, 42, 62
5, 150480, Note_on_c, 9, 36, 88
5, 150520, Note_off_c, 9, 42, 64
5, 150575, Note_off_c, 9, 36, 64
5, 150710, Note_on_c, 9, 42, 72
5, 150720, Note_off_c, 9, 51, 64
5, 150720, Note_on_c, 9, 36, 86
5, 150790, Note_off_c, 9, 42, 64
5, 150945, Note_on_c, 9, 42, 54
5, 151000, Note_off_c, 9, 42, 64
5, 151050, Note_off_c, 9, 40, 64
5, 151180, Note_on_c, 9, 42, 81
5, 151190, Note_on_c, 9, 51, 45
5, 151200, Note_on_c, 9, 40, 101
5, 151270, Note_off_c, 9, 42, 64
5, 151335, Note_off_c, 9, 36, 64
5, 151425, Note_on_c, 9, 42, 56
5, 151440, Note_on_c, 9, 36, 63
5, 151500, Note_off_c, 9, 42, 64
5, 151560, Note_off_c, 9, 36, 64
5, 151665, Note_on_c, 9, 42, 72
5, 151680, Note_on_c, 9, 36, 76
5, 151755, Note_off_c, 9, 42, 64
5, 151835, Note_off_c, 9, 51, 64
5, 151905, Note_on_c, 9, 42, 62
5, 151945, Note_off_c, 9, 40, 64
5, 151970, Note_off_c, 9, 42, 64
5, 152140, Note_on_c, 9, 42, 75
5, 152150, Note_on_c, 9, 51, 54
5, 152160, Note_on_c, 9, 40, 108
5, 152230, Note_off_c, 9, 42, 64
5, 152285, Note_off_c, 9, 36, 64
5, 152390, Note_on_c, 9, 42, 59
5, 152400, Note_on_c, 9, 36, 64
5, 152460, Note_off_c, 9, 42, 64
5, 152545, Note_off_c, 9, 36, 64
5, 152640, Note_on_c, 9, 36, 84
5, 152640, Note_on_c, 9, 42, 72
5, 152725, Note_off_c, 9, 42, 64
5, 152830, Note_off_c, 9, 51, 64
5, 152880, Note_on_c, 9, 42, 52
5, 152935, Note_off_c, 9, 40, 64
5, 152940, Note_off_c, 9, 42, 64
5, 153115, Note_on_c, 9, 42, 72
5, 153120, Note_on_c, 9, 40, 108
5, 153120, Note_on_c, 9, 51, 48
5, 153205, Note_off_c, 9, 36, 64
5, 153205, Note_off_c, 9, 42, 64
5, 153350, Note_on_c, 9, 42, 59
5, 153360, Note_on_c, 9, 36, 91
5, 153425, Note_off_c, 9, 42, 64
5, 153475, Note_off_c, 9, 36, 64
5, 153595, Note_on_c, 9, 42, 75
5, 153600, Note_on_c, 9, 36, 86
5, 153690, Note_off_c, 9, 42, 64
5, 153835, Note_on_c, 9, 42, 54
5, 153845, Note_off_c, 9, 51, 64
5, 153900, Note_off_c, 9, 42, 64
5, 153910, Note_off_c, 9, 40, 64
5, 154080, Note_on_c, 9, 40, 103
5, 154085, Note_on_c, 9, 51, 56
5, 154090, Note_on_c, 9, 42, 72
5, 154160, Note_off_c, 9, 42, 64
5, 154175, Note_off_c, 9, 36, 64
5, 154320, Note_on_c, 9, 36, 76
5, 154335, Note_on_c, 9, 42, 64
5, 154395, Note_off_c, 9, 42, 64
5, 154445, Note_off_c, 9, 36, 64
5, 154560, Note_on_c, 9, 36, 81
5, 154565, Note_on_c, 9, 42, 72
5, 154645, Note_off_c, 9, 42, 64
5, 154800, Note_on_c, 9, 42, 59
5, 154805, Note_off_c, 9, 51, 64
5, 154815, Note_on_c, 9, 48, 76
5, 154820, Note_on_c, 9, 45, 78
5, 154845, Note_off_c, 9, 40, 64
5, 154875, Note_off_c, 9, 42, 64
5, 154890, Note_off_c, 9, 45, 64
5, 154900, Note_off_c, 9, 48, 64
5, 155030, Note_on_c, 9, 51, 52
5, 155035, Note_on_c, 9, 42, 69
5, 155040, Note_on_c, 9, 40, 108
5, 155045, Note_on_c, 9, 48, 93
5, 155050, Note_on_c, 9, 45, 96
5, 155110, Note_off_c, 9, 36, 64
5, 155120, Note_off_c, 9, 42, 64
5, 155240, Note_off_c, 9, 45, 64
5, 155270, Note_off_c, 9, 48, 64
5, 155275, Note_on_c, 9, 42, 54
5, 155280, Note_on_c, 9, 36, 76
5, 155345, Note_off_c, 9, 42, 64
5, 155380, Note_off_c, 9, 36, 64
5, 155510, Note_on_c, 9, 42, 64
5, 155520, Note_on_c, 9, 36, 88
5, 155520, Note_on_c, 9, 42, 92
5, 155580, Note_off_c, 9, 42, 64
5, 155595, Note_off_c, 9, 42, 64
5, 155745, Note_on_c, 9, 42, 54
5, 155790, Note_off_c, 9, 42, 64
5, 155800, Note_off_c, 9, 51, 64
5, 155800, Note_off_c, 9, 40, 64
5, 155980, Note_on_c, 9, 42, 72
5, 156000, Note_on_c, 9, 40, 103
5, 156010, Note_on_c, 9, 51, 45
5, 156060, Note_off_c, 9, 42, 64
5, 156090, Note_off_c, 9, 36, 64
5, 156215, Note_on_c, 9, 42, 62
5, 156240, Note_on_c, 9, 36, 88
5, 156280, Note_off_c, 9, 42, 64
5, 156335, Note_off_c, 9, 36, 64
5, 156470, Note_on_c, 9, 42, 72
5, 156480, Note_off_c, 9, 51, 64
5, 156480, Note_on_c, 9, 36, 86
5, 156550, Note_off_c, 9, 42, 64
5, 156705, Note_on_c, 9, 42, 54
5, 156760, Note_off_c, 9, 42, 64
5, 156810, Note_off_c, 9, 40, 64
5, 156940, Note_on_c, 9, 42, 81
5, 156950, Note_on_c, 9, 51, 45
5, 156960, Note_on_c, 9, 40, 101
5, 157030, Note_off_c, 9, 42, 64
5, 157095, Note_off_c, 9, 36, 64
5, 157185, Note_on_c, 9, 42, 56
5, 157200, Note_on_c, 9, 36, 63
5, 157260, Note_off_c, 9, 42, 64
5, 157320, Note_off_c, 9, 36, 64
5, 157425, Note_on_c, 9, 42, 72
5, 157440, Note_on_c, 9, 36, 76
5, 157515, Note_off_c, 9, 42, 64
5, 157595, Note_off_c, 9, 51, 64
5, 157665, Note_on_c, 9, 42, 62
5, 157705, Note_off_c, 9, 40, 64
5, 157730, Note_off_c, 9, 42, 64
5, 157900, Note_on_c, 9, 42, 75
5, 157910, Note_on_c, 9, 51, 54
5, 157920, Note_on_c, 9, 40, 108
5, 157990, Note_off_c, 9, 42, 64
5, 158045, Note_off_c, 9, 36, 64
5, 158150, Note_on_c, 9, 42, 59
5, 158160, Note_on_c, 9, 36, 64
5, 158220, Note_off_c, 9, 42, 64
5, 158305, Note_off_c, 9, 36, 64
5, 158400, Note_on_c, 9, 36, 84
5, 158400, Note_on_c, 9, 42, 72
5, 158485, Note_off_c, 9, 42, 64
5, 158590, Note_off_c, 9, 51, 64
5, 158640, Note_on_c, 9, 42, 52
5, 158695, Note_off_c, 9, 40, 64
5, 158700, Note_off_c, 9, 42, 64
5, 158875, Note_on_c, 9, 42, 72
5, 158880, Note_on_c, 9, 40, 108
5, 158880, Note_on_c, 9, 51, 48
5, 158965, Note_off_c, 9, 36, 64
5, 158965, Note_off_c, 9, 42, 64
5, 159110, Note_on_c, 9, 42, 59
5, 159120, Note_on_c, 9, 36, 91
5, 159185, Note_off_c, 9, 42, 64
5, 159235, Note_off_c, 9, 36, 64
5, 159355, Note_on_c, 9, 42, 75
5, 159360, Note_on_c, 9, 36, 86
5, 159450, Note_off_c, 9, 42, 64
5, 159595, Note_on_c, 9, 42, 54
5, 159605, Note_off_c, 9, 51, 64
5, 159660, Note_off_c, 9, 42, 64
5, 159670, Note_off_c, 9, 40, 64
5, 159840, Note_on_c, 9, 40, 103
5, 159845, Note_on_c, 9, 51, 56
5, 159850, Note_on_c, 9, 42, 72
5, 159920, Note_off_c, 9, 42, 64
5, 159935, Note_off_c, 9, 36, 64
5, 160080, Note_on_c, 9, 36, 76
5, 160095, Note_on_c, 9, 42, 64
5, 160155, Note_off_c, 9, 42, 64
5, 160205, Note_off_c, 9, 36, 64
5, 160320, Note_on_c, 9, 36, 81
5, 160325, Note_on_c, 9, 42, 72
5, 160405, Note_off_c, 9, 42, 64
5, 160560, Note_on_c, 9, 42, 59
5, 160565, Note_off_c, 9, 51, 64
5, 160605, Note_off_c, 9, 40, 64
5, 160635, Note_off_c, 9, 42, 64
5, 160790, Note_on_c, 9, 51, 52
5, 160795, Note_on_c, 9, 42, 69
5, 160800, Note_on_c, 9, 40, 108
5, 160870, Note_off_c, 9, 36, 64
5, 160880, Note_off_c, 9, 42, 64
5, 161035, Note_on_c, 9, 42, 54
5, 161040, Note_on_c, 9, 36, 76
5, 161105, Note_off_c, 9, 42, 64
5, 161140, Note_off_c, 9, 36, 64
5, 161270, Note_on_c, 9, 42, 64
5, 161280, Note_on_c, 9, 36, 74
5, 161355, Note_off_c, 9, 42, 64
5, 161515, Note_on_c, 9, 42, 50
5, 161560, Note_off_c, 9, 51, 64
5, 161560, Note_off_c, 9, 40, 64
5, 161575, Note_off_c, 9, 42, 64
5, 161760, Note_on_c, 9, 40, 108
5, 161760, Note_on_c, 9, 42, 75
5, 161775, Note_on_c, 9, 51, 56
5, 161845, Note_off_c, 9, 42, 64
5, 161870, Note_off_c, 9, 36, 64
5, 162000, Note_on_c, 9, 36, 84
5, 162000, Note_on_c, 9, 42, 62
5, 162080, Note_off_c, 9, 42, 64
5, 162100, Note_off_c, 9, 36, 64
5, 162240, Note_on_c, 9, 36, 78
5, 162240, Note_on_c, 9, 42, 75
5, 162325, Note_off_c, 9, 42, 64
5, 162475, Note_off_c, 9, 51, 64
5, 162475, Note_on_c, 9, 48, 81
5, 162485, Note_on_c, 9, 42, 59
5, 162490, Note_on_c, 9, 45, 64
5, 162545, Note_off_c, 9, 40, 64
5, 162550, Note_off_c, 9, 42, 64
5, 162550, Note_off_c, 9, 45, 64
5, 162560, Note_off_c, 9, 48, 64
5, 162720, Note_on_c, 9, 40, 106
5, 162725, Note_on_c, 9, 42, 72
5, 162730, Note_on_c, 9, 51, 52
5, 162730, Note_on_c, 9, 48, 98
5, 162740, Note_on_c, 9, 45, 91
5, 162790, Note_off_c, 9, 36, 64
5, 162805, Note_off_c, 9, 42, 64
5, 162915, Note_off_c, 9, 45, 64
5, 162945, Note_off_c, 9, 48, 64
5, 162960, Note_on_c, 9, 36, 74
5, 162965, Note_on_c, 9, 42, 59
5, 163035, Note_off_c, 9, 42, 64
5, 163080, Note_off_c, 9, 36, 64
5, 163185, Note_on_c, 9, 49, 85
5, 163200, Note_on_c, 9, 36, 88
5, 163200, Note_on_c, 9, 42, 92
5, 163255, Note_off_c, 9, 49, 64
5, 163260, Note_off_c, 9, 42, 64
5, 163300, Note_off_c, 9, 40, 64
5, 163375, Note_off_c, 9, 51, 64
5, 163425, Note_on_c, 9, 42, 54
5, 163470, Note_off_c, 9, 42, 64
5, 163660, Note_on_c, 9, 42, 72
5, 163680, Note_on_c, 9, 40, 103
5, 163690, Note_on_c, 9, 51, 45
5, 163740, Note_off_c, 9, 42, 64
5, 163770, Note_off_c, 9, 36, 64
5, 163895, Note_on_c, 9, 42, 62
5, 163920, Note_on_c, 9, 36, 88
5, 163960, Note_off_c, 9, 42, 64
5, 164015, Note_off_c, 9, 36, 64
5, 164150, Note_on_c, 9, 42, 72
5, 164160, Note_off_c, 9, 51, 64
5, 164160, Note_on_c, 9, 36, 86
5, 164165, Note_on_c, 9, 51, 66
5, 164210, Note_off_c, 9, 51, 64
5, 164230, Note_off_c, 9, 42, 64
5, 164385, Note_on_c, 9, 42, 54
5, 164440, Note_off_c, 9, 42, 64
5, 164490, Note_off_c, 9, 40, 64
5, 164620, Note_on_c, 9, 42, 81
5, 164630, Note_on_c, 9, 51, 45
5, 164640, Note_on_c, 9, 40, 101
5, 164640, Note_on_c, 9, 51, 56
5, 164685, Note_off_c, 9, 51, 64
5, 164710, Note_off_c, 9, 42, 64
5, 164775, Note_off_c, 9, 36, 64
5, 164865, Note_on_c, 9, 42, 56
5, 164880, Note_on_c, 9, 36, 63
5, 164940, Note_off_c, 9, 42, 64
5, 165000, Note_off_c, 9, 36, 64
5, 165105, Note_on_c, 9, 42, 72
5, 165120, Note_on_c, 9, 36, 76
5, 165125, Note_on_c, 9, 51, 72
5, 165185, Note_off_c, 9, 51, 64
5, 165195, Note_off_c, 9, 42, 64
5, 165275, Note_off_c, 9, 51, 64
5, 165345, Note_on_c, 9, 42, 62
5, 165385, Note_off_c, 9, 40, 64
5, 165410, Note_off_c, 9, 42, 64
5, 165580, Note_on_c, 9, 42, 75
5, 165590, Note_on_c, 9, 51, 54
5, 165600, Note_on_c, 9, 40, 108
5, 165610, Note_on_c, 9, 51, 72
5, 165665, Note_off_c, 9, 51, 64
5, 165670, Note_off_c, 9, 42, 64
5, 165725, Note_off_c, 9, 36, 64
5, 165830, Note_on_c, 9, 42, 59
5, 165840, Note_on_c, 9, 36, 64
5, 165900, Note_off_c, 9, 42, 64
5, 165985, Note_off_c, 9, 36, 64
5, 166080, Note_on_c, 9, 36, 84
5, 166080, Note_on_c, 9, 42, 72
5, 166085, Note_on_c, 9, 51, 72
5, 166150, Note_off_c, 9, 51, 64
5, 166165, Note_off_c, 9, 42, 64
5, 166270, Note_off_c, 9, 51, 64
5, 166320, Note_on_c, 9, 42, 52
5, 166375, Note_off_c, 9, 40, 64
5, 166380, Note_off_c, 9, 42, 64
5, 166555, Note_on_c, 9, 42, 72
5, 166555, Note_on_c, 9, 51, 75
5, 166560, Note_on_c, 9, 40, 108
5, 166560, Note_on_c, 9, 51, 48
5, 166620, Note_off_c, 9, 51, 64
5, 166645, Note_off_c, 9, 36, 64
5, 166645, Note_off_c, 9, 42, 64
5, 166790, Note_on_c, 9, 42, 59
5, 166800, Note_on_c, 9, 36, 91
5, 166865, Note_off_c, 9, 42, 64
5, 166915, Note_off_c, 9, 36, 64
5, 167035, Note_on_c, 9, 42, 75
5, 167040, Note_on_c, 9, 36, 86
5, 167045, Note_on_c, 9, 51, 62
5, 167100, Note_off_c, 9, 51, 64
5, 167130, Note_off_c, 9, 42, 64
5, 167275, Note_on_c, 9, 42, 54
5, 167285, Note_off_c, 9, 51, 64
5, 167340, Note_off_c, 9, 42, 64
5, 167350, Note_off_c, 9, 40, 64
5, 167520, Note_on_c, 9, 40, 103
5, 167520, Note_on_c, 9, 51, 72
5, 167525, Note_on_c, 9, 51, 56
5, 167530, Note_on_c, 9, 42, 72
5, 167575, Note_off_c, 9, 51, 64
5, 167600, Note_off_c, 9, 42, 64
5, 167615, Note_off_c, 9, 36, 64
5, 167760, Note_on_c, 9, 36, 76
5, 167775, Note_on_c, 9, 42, 64
5, 167835, Note_off_c, 9, 42, 64
5, 167885, Note_off_c, 9, 36, 64
5, 168000, Note_on_c, 9, 36, 81
5, 168000, Note_on_c, 9, 51, 72
5, 168005, Note_on_c, 9, 42, 72
5, 168060, Note_off_c, 9, 51, 64
5, 168085, Note_off_c, 9, 42, 64
5, 168240, Note_on_c, 9, 42, 59
5, 168245, Note_off_c, 9, 51, 64
5, 168285, Note_off_c, 9, 40, 64
5, 168315, Note_off_c, 9, 42, 64
5, 168470, Note_on_c, 9, 51, 52
5, 168475, Note_on_c, 9, 42, 69
5, 168475, Note_on_c, 9, 51, 75
5, 168480, Note_on_c, 9, 40, 108
5, 168540, Note_off_c, 9, 51, 64
5, 168550, Note_off_c, 9, 36, 64
5, 168560, Note_off_c, 9, 42, 64
5, 168715, Note_on_c, 9, 42, 54
5, 168720, Note_on_c, 9, 36, 76
5, 168785, Note_off_c, 9, 42, 64
5, 168820, Note_off_c, 9, 36, 64
5, 168950, Note_on_c, 9, 42, 64
5, 168960, Note_on_c, 9, 36, 74
5, 168965, Note_on_c, 9, 51, 62
5, 169020, Note_off_c, 9, 51, 64
5, 169035, Note_off_c, 9, 42, 64
5, 169195, Note_on_c, 9, 42, 50
5, 169240, Note_off_c, 9, 40, 64
5, 169240, Note_off_c, 9, 51, 64
5, 169255, Note_off_c, 9, 42, 64
5, 169440, Note_on_c, 9, 40, 108
5, 169440, Note_on_c, 9, 42, 75
5, 169440, Note_on_c, 9, 51, 75
5, 169455, Note_on_c, 9, 51, 56
5, 169500, Note_off_c, 9, 51, 64
5, 169525, Note_off_c, 9, 42, 64
5, 169550, Note_off_c, 9, 36, 64
5, 169680, Note_on_c, 9, 36, 84
5, 169680, Note_on_c, 9, 42, 62
5, 169760, Note_off_c, 9, 42, 64
5, 169780, Note_off_c, 9, 36, 64
5, 169920, Note_on_c, 9, 36, 78
5, 169920, Note_on_c, 9, 42, 75
5, 169940, Note_on_c, 9, 51, 54
5, 169985, Note_off_c, 9, 51, 64
5, 170005, Note_off_c, 9, 42, 64
5, 170155, Note_off_c, 9, 51, 64
5, 170165, Note_on_c, 9, 42, 59
5, 170225, Note_off_c, 9, 40, 64
5, 170230, Note_off_c, 9, 42, 64
5, 170390, Note_on_c, 9, 51, 85
5, 170400, Note_on_c, 9, 40, 106
5, 170405, Note_on_c, 9, 42, 72
5, 170410, Note_on_c, 9, 51, 52
5, 170460, Note_off_c, 9, 51, 64
5, 170470, Note_off_c, 9, 36, 64
5, 170485, Note_off_c, 9, 42, 64
5, 170640, Note_on_c, 9, 36, 74
5, 170645, Note_on_c, 9, 42, 59
5, 170715, Note_off_c, 9, 42, 64
5, 170760, Note_off_c, 9, 36, 64
5, 170865, Note_on_c, 9, 49, 66
5, 170880, Note_on_c, 9, 36, 88
5, 170880, Note_on_c, 9, 42, 92
5, 170920, Note_off_c, 9, 49, 64
5, 170940, Note_off_c, 9, 42, 64
5, 170980, Note_off_c, 9, 40, 64
5, 171055, Note_off_c, 9, 51, 64
5, 171105, Note_on_c, 9, 42, 54
5, 171150, Note_off_c, 9, 42, 64
5, 171340, Note_on_c, 9, 42, 72
5, 171355, Note_on_c, 9, 51, 77
5, 171360, Note_on_c, 9, 40, 103
5, 171370, Note_on_c, 9, 51, 45
5, 171410, Note_off_c, 9, 51, 64
5, 171420, Note_off_c, 9, 42, 64
5, 171450, Note_off_c, 9, 36, 64
5, 171575, Note_on_c, 9, 42, 62
5, 171600, Note_on_c, 9, 36, 88
5, 171640, Note_off_c, 9, 42, 64
5, 171695, Note_off_c, 9, 36, 64
5, 171830, Note_on_c, 9, 42, 72
5, 171840, Note_off_c, 9, 51, 64
5, 171840, Note_on_c, 9, 36, 86
5, 171840, Note_on_c, 9, 51, 75
5, 171900, Note_off_c, 9, 51, 64
5, 171910, Note_off_c, 9, 42, 64
5, 172065, Note_on_c, 9, 42, 54
5, 172120, Note_off_c, 9, 42, 64
5, 172170, Note_off_c, 9, 40, 64
5, 172300, Note_on_c, 9, 42, 81
5, 172310, Note_on_c, 9, 51, 45
5, 172320, Note_on_c, 9, 40, 101
5, 172320, Note_on_c, 9, 51, 66
5, 172380, Note_off_c, 9, 51, 64
5, 172390, Note_off_c, 9, 42, 64
5, 172455, Note_off_c, 9, 36, 64
5, 172545, Note_on_c, 9, 42, 56
5, 172560, Note_on_c, 9, 36, 63
5, 172620, Note_off_c, 9, 42, 64
5, 172680, Note_off_c, 9, 36, 64
5, 172785, Note_on_c, 9, 42, 72
5, 172795, Note_on_c, 9, 51, 66
5, 172800, Note_on_c, 9, 36, 76
5, 172850, Note_off_c, 9, 51, 64
5, 172875, Note_off_c, 9, 42, 64
5, 172955, Note_off_c, 9, 51, 64
5, 173025, Note_on_c, 9, 42, 62
5, 173065, Note_off_c, 9, 40, 64
5, 173090, Note_off_c, 9, 42, 64
5, 173260, Note_on_c, 9, 42, 75
5, 173270, Note_on_c, 9, 51, 54
5, 173270, Note_on_c, 9, 51, 72
5, 173280, Note_on_c, 9, 40, 108
5, 173335, Note_off_c, 9, 51, 64
5, 173350, Note_off_c, 9, 42, 64
5, 173405, Note_off_c, 9, 36, 64
5, 173510, Note_on_c, 9, 42, 59
5, 173520, Note_on_c, 9, 36, 64
5, 173580, Note_off_c, 9, 42, 64
5, 173665, Note_off_c, 9, 36, 64
5, 173760, Note_on_c, 9, 36, 84
5, 173760, Note_on_c, 9, 42, 72
5, 173775, Note_on_c, 9, 51, 56
5, 173820, Note_off_c, 9, 51, 64
5, 173845, Note_off_c, 9, 42, 64
5, 173950, Note_off_c, 9, 51, 64
5, 174000, Note_on_c, 9, 42, 52
5, 174055, Note_off_c, 9, 40, 64
5, 174060, Note_off_c, 9, 42, 64
5, 174235, Note_on_c, 9, 42, 72
5, 174240, Note_on_c, 9, 40, 108
5, 174240, Note_on_c, 9, 51, 48
5, 174260, Note_on_c, 9, 51, 69
5, 174310, Note_off_c, 9, 51, 64
5, 174325, Note_off_c, 9, 36, 64
5, 174325, Note_off_c, 9, 42, 64
5, 174470, Note_on_c, 9, 42, 59
5, 174480, Note_on_c, 9, 36, 91
5, 174545, Note_off_c, 9, 42, 64
5, 174595, Note_off_c, 9, 36, 64
5, 174715, Note_on_c, 9, 42, 75
5, 174720, Note_on_c, 9, 36, 86
5, 174745, Note_on_c, 9, 51, 75
5, 174800, Note_off_c, 9, 51, 64
5, 174810, Note_off_c, 9, 42, 64
5, 174955, Note_on_c, 9, 42, 54
5, 174965, Note_off_c, 9, 51, 64
5, 175020, Note_off_c, 9, 42, 64
5, 175030, Note_off_c, 9, 40, 64
5, 175200, Note_on_c, 9, 40, 103
5, 175205, Note_on_c, 9, 51, 56
5, 175210, Note_on_c, 9, 42, 72
5, 175230, Note_on_c, 9, 51, 81
5, 175280, Note_off_c, 9, 42, 64
5, 175295, Note_off_c, 9, 36, 64
5, 175295, Note_off_c, 9, 51, 64
5, 175440, Note_on_c, 9, 36, 76
5, 175455, Note_on_c, 9, 42, 64
5, 175515, Note_off_c, 9, 42, 64
5, 175565, Note_off_c, 9, 36, 64
5, 175680, Note_on_c, 9, 36, 81
5, 175685, Note_on_c, 9, 42, 72
5, 175700, Note_on_c, 9, 51, 75
5, 175750, Note_off_c, 9, 51, 64
5, 175765, Note_off_c, 9, 42, 64
5, 175920, Note_on_c, 9, 42, 59
5, 175925, Note_off_c, 9, 51, 64
5, 175965, Note_off_c, 9, 40, 64
5, 175995, Note_off_c, 9, 42, 64
5, 176150, Note_on_c, 9, 51, 52
5, 176155, Note_on_c, 9, 42, 69
5, 176160, Note_on_c, 9, 40, 108
5, 176175, Note_on_c, 9, 51, 69
5, 176230, Note_off_c, 9, 36, 64
5, 176230, Note_off_c, 9, 51, 64
5, 176240, Note_off_c, 9, 42, 64
5, 176395, Note_on_c, 9, 42, 54
5, 176400, Note_on_c, 9, 36, 76
5, 176465, Note_off_c, 9, 42, 64
5, 176500, Note_off_c, 9, 36, 64
5, 176630, Note_on_c, 9, 42, 64
5, 176640, Note_on_c, 9, 36, 74
5, 176645, Note_on_c, 9, 51, 69
5, 176700, Note_off_c, 9, 51, 64
5, 176715, Note_off_c, 9, 42, 64
5, 176875, Note_on_c, 9, 42, 50
5, 176920, Note_off_c, 9, 40, 64
5, 176920, Note_off_c, 9, 51, 64
5, 176935, Note_off_c, 9, 42, 64
5, 177115, Note_on_c, 9, 51, 81
5, 177120, Note_on_c, 9, 40, 108
5, 177120, Note_on_c, 9, 42, 75
5, 177135, Note_on_c, 9, 51, 56
5, 177180, Note_off_c, 9, 51, 64
5, 177205, Note_off_c, 9, 42, 64
5, 177230, Note_off_c, 9, 36, 64
5, 177360, Note_on_c, 9, 36, 84
5, 177360, Note_on_c, 9, 42, 62
5, 177440, Note_off_c, 9, 42, 64
5, 177460, Note_off_c, 9, 36, 64
5, 177585, Note_on_c, 9, 51, 85
5, 177600, Note_on_c, 9, 36, 78
5, 177600, Note_on_c, 9, 42, 75
5, 177650, Note_off_c, 9, 51, 64
5, 177685, Note_off_c, 9, 42, 64
5, 177835, Note_off_c, 9, 51, 64
5, 177845, Note_on_c, 9, 42, 59
5, 177905, Note_off_c, 9, 40, 64
5, 177910, Note_off_c, 9, 42, 64
5, 178075, Note_on_c, 9, 51, 81
5, 178080, Note_on_c, 9, 40, 106
5, 178085, Note_on_c, 9, 42, 72
5, 178090, Note_on_c, 9, 51, 52
5, 178135, Note_off_c, 9, 51, 64
5, 178150, Note_off_c, 9, 36, 64
5, 178165, Note_off_c, 9, 42, 64
5, 178310, Note_on_c, 9, 51, 59
5, 178320, Note_on_c, 9, 36, 74
5, 178325, Note_on_c, 9, 42, 59
5, 178355, Note_off_c, 9, 51, 64
5, 178395, Note_off_c, 9, 42, 64
5, 178440, Note_off_c, 9, 36, 64
5, 178560, Note_on_c, 9, 36, 88
5, 178560, Note_on_c, 9, 42, 92
5, 178560, Note_on_c, 9, 49, 50
5, 178585, Note_off_c, 9, 49, 64
5, 178620, Note_off_c, 9, 42, 64
5, 178660, Note_off_c, 9, 40, 64
5, 178735, Note_off_c, 9, 51, 64
5, 178785, Note_on_c, 9, 42, 54
5, 178830, Note_off_c, 9, 42, 64
5, 179020, Note_on_c, 9, 42, 72
5, 179040, Note_on_c, 9, 40, 103
5, 179050, Note_on_c, 9, 51, 45
5, 179050, Note_on_c, 9, 51, 77
5, 179100, Note_off_c, 9, 42, 64
5, 179105, Note_off_c, 9, 51, 64
5, 179130, Note_off_c, 9, 36, 64
5, 179255, Note_on_c, 9, 42, 62
5, 179280, Note_on_c, 9, 36, 88
5, 179320, Note_off_c, 9, 42, 64
5, 179375, Note_off_c, 9, 36, 64
5, 179510, Note_on_c, 9, 42, 72
5, 179520, Note_off_c, 9, 51, 64
5, 179520, Note_on_c, 9, 36, 86
5, 179520, Note_on_c, 9, 51, 72
5, 179575, Note_off_c, 9, 51, 64
5, 179590, Note_off_c, 9, 42, 64
5, 179745, Note_on_c, 9, 42, 54
5, 179800, Note_off_c, 9, 42, 64
5, 179850, Note_off_c, 9, 40, 64
5, 179980, Note_on_c, 9, 42, 81
5, 179985, Note_on_c, 9, 51, 81
5, 179990, Note_on_c, 9, 51, 45
5, 180000, Note_on_c, 9, 40, 101
5, 180045, Note_off_c, 9, 51, 64
5, 180070, Note_off_c, 9, 42, 64
5, 180135, Note_off_c, 9, 36, 64
5, 180225, Note_on_c, 9, 42, 56
5, 180240, Note_on_c, 9, 36, 63
5, 180300, Note_off_c, 9, 42, 64
5, 180360, Note_off_c, 9, 36, 64
5, 180465, Note_on_c, 9, 42, 72
5, 180470, Note_on_c, 9, 51, 85
5, 180480, Note_on_c, 9, 36, 76
5, 180535, Note_off_c, 9, 51, 64
5, 180555, Note_off_c, 9, 42, 64
5, 180635, Note_off_c, 9, 51, 64
5, 180705, Note_on_c, 9, 42, 62
5, 180745, Note_off_c, 9, 40, 64
5, 180770, Note_off_c, 9, 42, 64
5, 180940, Note_on_c, 9, 42, 75
5, 180950, Note_on_c, 9, 51, 54
5, 180950, Note_on_c, 9, 51, 77
5, 180960, Note_on_c, 9, 40, 108
5, 181015, Note_off_c, 9, 51, 64
5, 181030, Note_off_c, 9, 42, 64
5, 181085, Note_off_c, 9, 36, 64
5, 181190, Note_on_c, 9, 42, 59
5, 181200, Note_on_c, 9, 36, 64
5, 181260, Note_off_c, 9, 42, 64
5, 181345, Note_off_c, 9, 36, 64
5, 181440, Note_on_c, 9, 36, 84
5, 181440, Note_on_c, 9, 42, 72
5, 181445, Note_on_c, 9, 51, 77
5, 181500, Note_off_c, 9, 51, 64
5, 181525, Note_off_c, 9, 42, 64
5, 181630, Note_off_c, 9, 51, 64
5, 181680, Note_on_c, 9, 42, 52
5, 181735, Note_off_c, 9, 40, 64
5, 181740, Note_off_c, 9, 42, 64
5, 181915, Note_on_c, 9, 42, 72
5, 181920, Note_on_c, 9, 40, 108
5, 181920, Note_on_c, 9, 51, 48
5, 181920, Note_on_c, 9, 51, 81
5, 181980, Note_off_c, 9, 51, 64
5, 182005, Note_off_c, 9, 36, 64
5, 182005, Note_off_c, 9, 42, 64
5, 182150, Note_on_c, 9, 42, 59
5, 182160, Note_on_c, 9, 36, 91
5, 182225, Note_off_c, 9, 42, 64
5, 182275, Note_off_c, 9, 36, 64
5, 182395, Note_on_c, 9, 42, 75
5, 182400, Note_on_c, 9, 36, 86
5, 182400, Note_on_c, 9, 51, 81
5, 182465, Note_off_c, 9, 51, 64
5, 182490, Note_off_c, 9, 42, 64
5, 182635, Note_on_c, 9, 42, 54
5, 182645, Note_off_c, 9, 51, 64
5, 182700, Note_off_c, 9, 42, 64
5, 182710, Note_off_c, 9, 40, 64
5, 182880, Note_on_c, 9, 40, 103
5, 182885, Note_on_c, 9, 51, 56
5, 182890, Note_on_c, 9, 42, 72
5, 182890, Note_on_c, 9, 51, 75
5, 182950, Note_off_c, 9, 51, 64
5, 182960, Note_off_c, 9, 42, 64
5, 182975, Note_off_c, 9, 36, 64
5, 183120, Note_on_c, 9, 36, 76
5, 183135, Note_on_c, 9, 42, 64
5, 183195, Note_off_c, 9, 42, 64
5, 183245, Note_off_c, 9, 36, 64
5, 183360, Note_on_c, 9, 36, 81
5, 183360, Note_on_c, 9, 51, 77
5, 183365, Note_on_c, 9, 42, 72
5, 183420, Note_off_c, 9, 51, 64
5, 183445, Note_off_c, 9, 42, 64
5, 183600, Note_on_c, 9, 42, 59
5, 183605, Note_off_c, 9, 51, 64
5, 183645, Note_off_c, 9, 40, 64
5, 183675, Note_off_c, 9, 42, 64
5, 183830, Note_on_c, 9, 51, 52
5, 183835, Note_on_c, 9, 42, 69
5, 183840, Note_on_c, 9, 40, 108
5, 183845, Note_on_c, 9, 51, 75
5, 183900, Note_off_c, 9, 51, 64
5, 183910, Note_off_c, 9, 36, 64
5, 183920, Note_off_c, 9, 42, 64
5, 184075, Note_on_c, 9, 42, 54
5, 184080, Note_on_c, 9, 36, 76
5, 184145, Note_off_c, 9, 42, 64
5, 184180, Note_off_c, 9, 36, 64
5, 184310, Note_on_c, 9, 42, 64
5, 184320, Note_on_c, 9, 36, 74
5, 184320, Note_on_c, 9, 51, 77
5, 184380, Note_off_c, 9, 51, 64
5, 184395, Note_off_c, 9, 42, 64
5, 184555, Note_on_c, 9, 42, 50
5, 184600, Note_off_c, 9, 40, 64
5, 184600, Note_off_c, 9, 51, 64
5, 184615, Note_off_c, 9, 42, 64
5, 184800, Note_on_c, 9, 40, 108
5, 184800, Note_on_c, 9, 42, 75
5, 184805, Note_on_c, 9, 51, 66
5, 184815, Note_on_c, 9, 51, 56
5, 184855, Note_off_c, 9, 51, 64
5, 184885, Note_off_c, 9, 42, 64
5, 184910, Note_off_c, 9, 36, 64
5, 185040, Note_on_c, 9, 36, 84
5, 185040, Note_on_c, 9, 42, 62
5, 185120, Note_off_c, 9, 42, 64
5, 185140, Note_off_c, 9, 36, 64
5, 185280, Note_on_c, 9, 36, 78
5, 185280, Note_on_c, 9, 42, 75
5, 185285, Note_on_c, 9, 51, 72
5, 185350, Note_off_c, 9, 51, 64
5, 185365, Note_off_c, 9, 42, 64
5, 185500, Note_on_c, 9, 48, 91
5, 185505, Note_on_c, 9, 45, 88
5, 185515, Note_off_c, 9, 51, 64
5, 185525, Note_on_c, 9, 42, 59
5, 185560, Note_off_c, 9, 45, 64
5, 185570, Note_off_c, 9, 48, 64
5, 185585, Note_off_c, 9, 40, 64
5, 185590, Note_off_c, 9, 42, 64
5, 185750, Note_on_c, 9, 45, 101
5, 185755, Note_on_c, 9, 48, 101
5, 185760, Note_on_c, 9, 40, 106
5, 185765, Note_on_c, 9, 42, 72
5, 185770, Note_on_c, 9, 51, 52
5, 185830, Note_off_c, 9, 36, 64
5, 185845, Note_off_c, 9, 42, 64
5, 185860, Note_off_c, 9, 48, 64
5, 185870, Note_off_c, 9, 45, 64
5, 186000, Note_on_c, 9, 36, 74
5, 186005, Note_on_c, 9, 42, 59
5, 186075, Note_off_c, 9, 42, 64
5, 186120, Note_off_c, 9, 36, 64
5, 186240, Note_on_c, 9, 36, 88
5, 186240, Note_on_c, 9, 42, 92
5, 186250, Note_on_c, 9, 49, 67
5, 186300, Note_off_c, 9, 42, 64
5, 186320, Note_off_c, 9, 49, 64
5, 186340, Note_off_c, 9, 40, 64
5, 186415, Note_off_c, 9, 51, 64
5, 186470, Note_on_c, 9, 42, 54
5, 186515, Note_off_c, 9, 42, 64
5, 186705, Note_on_c, 9, 42, 72
5, 186720, Note_on_c, 9, 40, 103
5, 186730, Note_on_c, 9, 51, 45
5, 186745, Note_on_c, 9, 54, 59
5, 186785, Note_off_c, 9, 42, 64
5, 186810, Note_off_c, 9, 36, 64
5, 186940, Note_on_c, 9, 42, 62
5, 186960, Note_on_c, 9, 36, 88
5, 187005, Note_off_c, 9, 42, 64
5, 187055, Note_off_c, 9, 36, 64
5, 187190, Note_on_c, 9, 42, 72
5, 187200, Note_off_c, 9, 51, 64
5, 187200, Note_on_c, 9, 36, 86
5, 187270, Note_off_c, 9, 42, 64
5, 187350, Note_off_c, 9, 54, 64
5, 187430, Note_on_c, 9, 42, 54
5, 187485, Note_off_c, 9, 42, 64
5, 187530, Note_off_c, 9, 40, 64
5, 187665, Note_on_c, 9, 42, 81
5, 187670, Note_on_c, 9, 51, 45
5, 187680, Note_on_c, 9, 40, 101
5, 187690, Note_on_c, 9, 54, 62
5, 187755, Note_off_c, 9, 42, 64
5, 187815, Note_off_c, 9, 36, 64
5, 187910, Note_on_c, 9, 42, 56
5, 187920, Note_on_c, 9, 36, 63
5, 187985, Note_off_c, 9, 42, 64
5, 188040, Note_off_c, 9, 36, 64
5, 188150, Note_on_c, 9, 42, 72
5, 188160, Note_on_c, 9, 36, 76
5, 188240, Note_off_c, 9, 42, 64
5, 188280, Note_off_c, 9, 54, 64
5, 188315, Note_off_c, 9, 51, 64
5, 188390, Note_on_c, 9, 42, 62
5, 188425, Note_off_c, 9, 40, 64
5, 188455, Note_off_c, 9, 42, 64
5, 188625, Note_on_c, 9, 42, 75
5, 188625, Note_on_c, 9, 54, 64
5, 188630, Note_on_c, 9, 51, 54
5, 188640, Note_on_c, 9, 40, 108
5, 188715, Note_off_c, 9, 42, 64
5, 188765, Note_off_c, 9, 36, 64
5, 188870, Note_on_c, 9, 42, 59
5, 188880, Note_on_c, 9, 36, 64
5, 188940, Note_off_c, 9, 42, 64
5, 189025, Note_off_c, 9, 36, 64
5, 189120, Note_on_c, 9, 36, 84
5, 189120, Note_on_c, 9, 42, 72
5, 189205, Note_off_c, 9, 42, 64
5, 189280, Note_off_c, 9, 54, 64
5, 189310, Note_off_c, 9, 51, 64
5, 189360, Note_on_c, 9, 42, 52
5, 189415, Note_off_c, 9, 40, 64
5, 189420, Note_off_c, 9, 42, 64
5, 189595, Note_on_c, 9, 42, 72
5, 189600, Note_on_c, 9, 40, 108
5, 189600, Note_on_c, 9, 51, 48
5, 189610, Note_on_c, 9, 54, 64
5, 189685, Note_off_c, 9, 36, 64
5, 189685, Note_off_c, 9, 42, 64
5, 189830, Note_on_c, 9, 42, 59
5, 189840, Note_on_c, 9, 36, 91
5, 189905, Note_off_c, 9, 42, 64
5, 189955, Note_off_c, 9, 36, 64
5, 190075, Note_on_c, 9, 42, 75
5, 190080, Note_on_c, 9, 36, 86
5, 190170, Note_off_c, 9, 42, 64
5, 190275, Note_off_c, 9, 54, 64
5, 190315, Note_on_c, 9, 42, 54
5, 190325, Note_off_c, 9, 51, 64
5, 190380, Note_off_c, 9, 42, 64
5, 190390, Note_off_c, 9, 40, 64
5, 190560, Note_on_c, 9, 40, 103
5, 190565, Note_on_c, 9, 51, 56
5, 190570, Note_on_c, 9, 42, 72
5, 190570, Note_on_c, 9, 54, 56
5, 190640, Note_off_c, 9, 42, 64
5, 190655, Note_off_c, 9, 36, 64
5, 190800, Note_on_c, 9, 36, 76
5, 190810, Note_on_c, 9, 42, 64
5, 190870, Note_off_c, 9, 42, 64
5, 190925, Note_off_c, 9, 36, 64
5, 191040, Note_on_c, 9, 36, 81
5, 191045, Note_on_c, 9, 42, 72
5, 191125, Note_off_c, 9, 42, 64
5, 191265, Note_off_c, 9, 54, 64
5, 191280, Note_on_c, 9, 42, 59
5, 191285, Note_off_c, 9, 51, 64
5, 191325, Note_off_c, 9, 40, 64
5, 191355, Note_off_c, 9, 42, 64
5, 191510, Note_on_c, 9, 51, 52
5, 191515, Note_on_c, 9, 42, 69
5, 191520, Note_on_c, 9, 40, 108
5, 191535, Note_on_c, 9, 54, 56
5, 191590, Note_off_c, 9, 36, 64
5, 191600, Note_off_c, 9, 42, 64
5, 191755, Note_on_c, 9, 42, 54
5, 191760, Note_on_c, 9, 36, 76
5, 191825, Note_off_c, 9, 42, 64
5, 191860, Note_off_c, 9, 36, 64
5, 191990, Note_on_c, 9, 42, 64
5, 192000, Note_on_c, 9, 36, 74
5, 192075, Note_off_c, 9, 42, 64
5, 192225, Note_off_c, 9, 54, 64
5, 192235, Note_on_c, 9, 42, 50
5, 192280, Note_off_c, 9, 51, 64
5, 192280, Note_off_c, 9, 40, 64
5, 192295, Note_off_c, 9, 42, 64
5, 192480, Note_on_c, 9, 40, 108
5, 192480, Note_on_c, 9, 42, 75
5, 192490, Note_on_c, 9, 51, 56
5, 192490, Note_on_c, 9, 54, 59
5, 192565, Note_off_c, 9, 42, 64
5, 192590, Note_off_c, 9, 36, 64
5, 192720, Note_on_c, 9, 36, 84
5, 192720, Note_on_c, 9, 42, 62
5, 192800, Note_off_c, 9, 42, 64
5, 192820, Note_off_c, 9, 36, 64
5, 192960, Note_on_c, 9, 36, 78
5, 192960, Note_on_c, 9, 42, 75
5, 193045, Note_off_c, 9, 42, 64
5, 193190, Note_off_c, 9, 51, 64
5, 193190, Note_on_c, 9, 45, 86
5, 193195, Note_on_c, 9, 48, 81
5, 193205, Note_on_c, 9, 42, 59
5, 193215, Note_off_c, 9, 54, 64
5, 193265, Note_off_c, 9, 40, 64
5, 193270, Note_off_c, 9, 42, 64
5, 193295, Note_off_c, 9, 45, 64
5, 193305, Note_off_c, 9, 48, 64
5, 193430, Note_on_c, 9, 48, 83
5, 193440, Note_on_c, 9, 40, 106
5, 193440, Note_on_c, 9, 45, 83
5, 193445, Note_on_c, 9, 42, 72
5, 193450, Note_on_c, 9, 51, 52
5, 193455, Note_on_c, 9, 54, 59
5, 193510, Note_off_c, 9, 36, 64
5, 193525, Note_off_c, 9, 42, 64
5, 193560, Note_off_c, 9, 45, 64
5, 193575, Note_off_c, 9, 48, 64
5, 193680, Note_on_c, 9, 36, 74
5, 193685, Note_on_c, 9, 42, 59
5, 193755, Note_off_c, 9, 42, 64
5, 193800, Note_off_c, 9, 36, 64
5, 193920, Note_on_c, 9, 36, 88
5, 193920, Note_on_c, 9, 42, 92
5, 193920, Note_on_c, 9, 49, 72
5, 193980, Note_off_c, 9, 49, 64
5, 193980, Note_off_c, 9, 42, 64
5, 194020, Note_off_c, 9, 40, 64
5, 194095, Note_off_c, 9, 51, 64
5, 194105, Note_off_c, 9, 54, 64
5, 194150, Note_on_c, 9, 42, 54
5, 194195, Note_off_c, 9, 42, 64
5, 194385, Note_on_c, 9, 42, 72
5, 194400, Note_on_c, 9, 40, 103
5, 194410, Note_on_c, 9, 51, 45
5, 194425, Note_on_c, 9, 54, 53
5, 194465, Note_off_c, 9, 42, 64
5, 194490, Note_off_c, 9, 36, 64
5, 194620, Note_on_c, 9, 42, 62
5, 194640, Note_on_c, 9, 36, 88
5, 194685, Note_off_c, 9, 42, 64
5, 194735, Note_off_c, 9, 36, 64
5, 194870, Note_on_c, 9, 42, 72
5, 194880, Note_off_c, 9, 51, 64
5, 194880, Note_on_c, 9, 36, 86
5, 194950, Note_off_c, 9, 42, 64
5, 195080, Note_off_c, 9, 54, 64
5, 195110, Note_on_c, 9, 42, 54
5, 195165, Note_off_c, 9, 42, 64
5, 195210, Note_off_c, 9, 40, 64
5, 195345, Note_on_c, 9, 42, 81
5, 195350, Note_on_c, 9, 51, 45
5, 195360, Note_on_c, 9, 40, 101
5, 195370, Note_on_c, 9, 54, 46
5, 195435, Note_off_c, 9, 42, 64
5, 195495, Note_off_c, 9, 36, 64
5, 195590, Note_on_c, 9, 42, 56
5, 195600, Note_on_c, 9, 36, 63
5, 195665, Note_off_c, 9, 42, 64
5, 195720, Note_off_c, 9, 36, 64
5, 195830, Note_on_c, 9, 42, 72
5, 195840, Note_on_c, 9, 36, 76
5, 195920, Note_off_c, 9, 42, 64
5, 195995, Note_off_c, 9, 51, 64
5, 196035, Note_off_c, 9, 54, 64
5, 196070, Note_on_c, 9, 42, 62
5, 196105, Note_off_c, 9, 40, 64
5, 196135, Note_off_c, 9, 42, 64
5, 196305, Note_on_c, 9, 42, 75
5, 196310, Note_on_c, 9, 51, 54
5, 196320, Note_on_c, 9, 40, 108
5, 196335, Note_on_c, 9, 54, 64
5, 196395, Note_off_c, 9, 42, 64
5, 196445, Note_off_c, 9, 36, 64
5, 196550, Note_on_c, 9, 42, 59
5, 196560, Note_on_c, 9, 36, 64
5, 196620, Note_off_c, 9, 42, 64
5, 196705, Note_off_c, 9, 36, 64
5, 196800, Note_on_c, 9, 36, 84
5, 196800, Note_on_c, 9, 42, 72
5, 196885, Note_off_c, 9, 42, 64
5, 196980, Note_off_c, 9, 54, 64
5, 196990, Note_off_c, 9, 51, 64
5, 197040, Note_on_c, 9, 42, 52
5, 197095, Note_off_c, 9, 40, 64
5, 197100, Note_off_c, 9, 42, 64
5, 197275, Note_on_c, 9, 42, 72
5, 197280, Note_on_c, 9, 40, 108
5, 197280, Note_on_c, 9, 51, 48
5, 197290, Note_on_c, 9, 54, 59
5, 197365, Note_off_c, 9, 36, 64
5, 197365, Note_off_c, 9, 42, 64
5, 197510, Note_on_c, 9, 42, 59
5, 197520, Note_on_c, 9, 36, 91
5, 197585, Note_off_c, 9, 42, 64
5, 197635, Note_off_c, 9, 36, 64
5, 197755, Note_on_c, 9, 42, 75
5, 197760, Note_on_c, 9, 36, 86
5, 197850, Note_off_c, 9, 42, 64
5, 197965, Note_off_c, 9, 54, 64
5, 197995, Note_on_c, 9, 42, 54
5, 198005, Note_off_c, 9, 51, 64
5, 198060, Note_off_c, 9, 42, 64
5, 198070, Note_off_c, 9, 40, 64
5, 198240, Note_on_c, 9, 40, 103
5, 198245, Note_on_c, 9, 51, 56
5, 198250, Note_on_c, 9, 42, 72
5, 198250, Note_on_c, 9, 54, 51
5, 198320, Note_off_c, 9, 42, 64
5, 198335, Note_off_c, 9, 36, 64
5, 198480, Note_on_c, 9, 36, 76
5, 198490, Note_on_c, 9, 42, 64
5, 198550, Note_off_c, 9, 42, 64
5, 198605, Note_off_c, 9, 36, 64
5, 198720, Note_on_c, 9, 36, 81
5, 198725, Note_on_c, 9, 42, 72
5, 198805, Note_off_c, 9, 42, 64
5, 198910, Note_off_c, 9, 54, 64
5, 198960, Note_on_c, 9, 42, 59
5, 198965, Note_off_c, 9, 51, 64
5, 199005, Note_off_c, 9, 40, 64
5, 199035, Note_off_c, 9, 42, 64
5, 199190, Note_on_c, 9, 51, 52
5, 199195, Note_on_c, 9, 42, 69
5, 199200, Note_on_c, 9, 40, 108
5, 199205, Note_on_c, 9, 54, 59
5, 199270, Note_off_c, 9, 36, 64
5, 199280, Note_off_c, 9, 42, 64
5, 199435, Note_on_c, 9, 42, 54
5, 199440, Note_on_c, 9, 36, 76
5, 199505, Note_off_c, 9, 42, 64
5, 199540, Note_off_c, 9, 36, 64
5, 199670, Note_on_c, 9, 42, 64
5, 199680, Note_on_c, 9, 36, 74
5, 199755, Note_off_c, 9, 42, 64
5, 199870, Note_off_c, 9, 54, 64
5, 199915, Note_on_c, 9, 42, 50
5, 199960, Note_off_c, 9, 51, 64
5, 199960, Note_off_c, 9, 40, 64
5, 199975, Note_off_c, 9, 42, 64
5, 200150, Note_on_c, 9, 54, 56
5, 200160, Note_on_c, 9, 40, 108
5, 200160, Note_on_c, 9, 42, 75
5, 200170, Note_on_c, 9, 51, 56
5, 200245, Note_off_c, 9, 42, 64
5, 200270, Note_off_c, 9, 36, 64
5, 200400, Note_on_c, 9, 36, 84
5, 200400, Note_on_c, 9, 42, 62
5, 200480, Note_off_c, 9, 42, 64
5, 200500, Note_off_c, 9, 36, 64
5, 200640, Note_on_c, 9, 36, 78
5, 200640, Note_on_c, 9, 42, 75
5, 200725, Note_off_c, 9, 42, 64
5, 200825, Note_off_c, 9, 54, 64
5, 200870, Note_off_c, 9, 51, 64
5, 200885, Note_on_c, 9, 42, 59
5, 200915, Note_on_c, 9, 48, 79
5, 200945, Note_off_c, 9, 40, 64
5, 200950, Note_off_c, 9, 42, 64
5, 201030, Note_on_c, 9, 47, 81
5, 201095, Note_off_c, 9, 48, 64
5, 201120, Note_on_c, 9, 40, 106
5, 201125, Note_on_c, 9, 42, 72
5, 201125, Note_on_c, 9, 45, 88
5, 201130, Note_on_c, 9, 51, 52
5, 201130, Note_on_c, 9, 54, 56
5, 201155, Note_off_c, 9, 47, 64
5, 201190, Note_off_c, 9, 36, 64
5, 201205, Note_off_c, 9, 42, 64
5, 201250, Note_off_c, 9, 45, 64
5, 201360, Note_on_c, 9, 36, 74
5, 201365, Note_on_c, 9, 42, 59
5, 201435, Note_off_c, 9, 42, 64
5, 201480, Note_off_c, 9, 36, 64
5, 201600, Note_on_c, 9, 36, 88
5, 201600, Note_on_c, 9, 42, 92
5, 201625, Note_on_c, 9, 49, 93
5, 201660, Note_off_c, 9, 42, 64
5, 201700, Note_off_c, 9, 40, 64
5, 201735, Note_off_c, 9, 54, 64
5, 201775, Note_off_c, 9, 51, 64
5, 201830, Note_on_c, 9, 42, 54
5, 201875, Note_off_c, 9, 42, 64
5, 202015, Note_off_c, 9, 49, 64
5, 202065, Note_on_c, 9, 42, 72
5, 202080, Note_on_c, 9, 40, 103
5, 202085, Note_on_c, 9, 54, 53
5, 202090, Note_on_c, 9, 51, 45
5, 202145, Note_off_c, 9, 42, 64
5, 202170, Note_off_c, 9, 36, 64
5, 202300, Note_on_c, 9, 42, 62
5, 202320, Note_on_c, 9, 36, 88
5, 202365, Note_off_c, 9, 42, 64
5, 202415, Note_off_c, 9, 36, 64
5, 202550, Note_on_c, 9, 42, 72
5, 202560, Note_off_c, 9, 51, 64
5, 202560, Note_on_c, 9, 36, 86
5, 202630, Note_off_c, 9, 42, 64
5, 202695, Note_off_c, 9, 54, 64
5, 202790, Note_on_c, 9, 42, 54
5, 202845, Note_off_c, 9, 42, 64
5, 202890, Note_off_c, 9, 40, 64
5, 203025, Note_on_c, 9, 42, 81
5, 203030, Note_on_c, 9, 51, 45
5, 203030, Note_on_c, 9, 54, 51
5, 203040, Note_on_c, 9, 40, 101
5, 203115, Note_off_c, 9, 42, 64
5, 203175, Note_off_c, 9, 36, 64
5, 203270, Note_on_c, 9, 42, 56
5, 203280, Note_on_c, 9, 36, 63
5, 203345, Note_off_c, 9, 42, 64
5, 203400, Note_off_c, 9, 36, 64
5, 203510, Note_on_c, 9, 42, 72
5, 203520, Note_on_c, 9, 36, 76
5, 203600, Note_off_c, 9, 42, 64
5, 203675, Note_off_c, 9, 51, 64
5, 203680, Note_off_c, 9, 54, 64
5, 203750, Note_on_c, 9, 42, 62
5, 203785, Note_off_c, 9, 40, 64
5, 203815, Note_off_c, 9, 42, 64
5, 203985, Note_on_c, 9, 42, 75
5, 203990, Note_on_c, 9, 51, 54
5, 203995, Note_on_c, 9, 54, 49
5, 204000, Note_on_c, 9, 40, 108
5, 204075, Note_off_c, 9, 42, 64
5, 204125, Note_off_c, 9, 36, 64
5, 204230, Note_on_c, 9, 42, 59
5, 204240, Note_on_c, 9, 36, 64
5, 204300, Note_off_c, 9, 42, 64
5, 204385, Note_off_c, 9, 36, 64
5, 204480, Note_on_c, 9, 36, 84
5, 204480, Note_on_c, 9, 42, 72
5, 204565, Note_off_c, 9, 42, 64
5, 204620, Note_off_c, 9, 54, 64
5, 204670, Note_off_c, 9, 51, 64
5, 204720, Note_on_c, 9, 42, 52
5, 204775, Note_off_c, 9, 40, 64
5, 204780, Note_off_c, 9, 42, 64
5, 204950, Note_on_c, 9, 54, 53
5, 204955, Note_on_c, 9, 42, 72
5, 204960, Note_on_c, 9, 40, 108
5, 204960, Note_on_c, 9, 51, 48
5, 205045, Note_off_c, 9, 42, 64
5, 205045, Note_off_c, 9, 36, 64
5, 205190, Note_on_c, 9, 42, 59
5, 205200, Note_on_c, 9, 36, 91
5, 205265, Note_off_c, 9, 42, 64
5, 205315, Note_off_c, 9, 36, 64
5, 205435, Note_on_c, 9, 42, 75
5, 205440, Note_on_c, 9, 36, 86
5, 205530, Note_off_c, 9, 42, 64
5, 205585, Note_off_c, 9, 54, 64
5, 205675, Note_on_c, 9, 42, 54
5, 205685, Note_off_c, 9, 51, 64
5, 205740, Note_off_c, 9, 42, 64
5, 205750, Note_off_c, 9, 40, 64
5, 205910, Note_on_c, 9, 54, 59
5, 205920, Note_on_c, 9, 40, 103
5, 205925, Note_on_c, 9, 51, 56
5, 205930, Note_on_c, 9, 42, 72
5, 206000, Note_off_c, 9, 42, 64
5, 206015, Note_off_c, 9, 36, 64
5, 206160, Note_on_c, 9, 36, 76
5, 206170, Note_on_c, 9, 42, 64
5, 206230, Note_off_c, 9, 42, 64
5, 206285, Note_off_c, 9, 36, 64
5, 206400, Note_on_c, 9, 36, 81
5, 206405, Note_on_c, 9, 42, 72
5, 206485, Note_off_c, 9, 42, 64
5, 206585, Note_off_c, 9, 54, 64
5, 206640, Note_on_c, 9, 42, 59
5, 206645, Note_off_c, 9, 51, 64
5, 206685, Note_off_c, 9, 40, 64
5, 206715, Note_off_c, 9, 42, 64
5, 206870, Note_on_c, 9, 51, 52
5, 206875, Note_on_c, 9, 42, 69
5, 206880, Note_on_c, 9, 40, 108
5, 206895, Note_on_c, 9, 54, 46
5, 206950, Note_off_c, 9, 36, 64
5, 206960, Note_off_c, 9, 42, 64
5, 207115, Note_on_c, 9, 42, 54
5, 207120, Note_on_c, 9, 36, 76
5, 207185, Note_off_c, 9, 42, 64
5, 207220, Note_off_c, 9, 36, 64
5, 207350, Note_on_c, 9, 42, 64
5, 207360, Note_on_c, 9, 36, 74
5, 207435, Note_off_c, 9, 42, 64
5, 207555, Note_off_c, 9, 54, 64
5, 207595, Note_on_c, 9, 42, 50
5, 207640, Note_off_c, 9, 51, 64
5, 207640, Note_off_c, 9, 40, 64
5, 207655, Note_off_c, 9, 42, 64
5, 207840, Note_on_c, 9, 40, 108
5, 207840, Note_on_c, 9, 42, 75
5, 207850, Note_on_c, 9, 51, 56
5, 207850, Note_on_c, 9, 54, 59
5, 207925, Note_off_c, 9, 42, 64
5, 207950, Note_off_c, 9, 36, 64
5, 208080, Note_on_c, 9, 36, 84
5, 208080, Note_on_c, 9, 42, 62
5, 208160, Note_off_c, 9, 42, 64
5, 208180, Note_off_c, 9, 36, 64
5, 208320, Note_on_c, 9, 36, 78
5, 208320, Note_on_c, 9, 42, 75
5, 208405, Note_off_c, 9, 42, 64
5, 208545, Note_on_c, 9, 45, 71
5, 208545, Note_on_c, 9, 48, 86
5, 208550, Note_off_c, 9, 51, 64
5, 208560, Note_off_c, 9, 54, 64
5, 208565, Note_on_c, 9, 42, 59
5, 208625, Note_off_c, 9, 40, 64
5, 208630, Note_off_c, 9, 42, 64
5, 208640, Note_off_c, 9, 48, 64
5, 208650, Note_off_c, 9, 45, 64
5, 208780, Note_on_c, 9, 45, 81
5, 208780, Note_on_c, 9, 48, 96
5, 208800, Note_on_c, 9, 40, 106
5, 208805, Note_on_c, 9, 42, 72
5, 208810, Note_on_c, 9, 51, 52
5, 208810, Note_on_c, 9, 54, 62
5, 208870, Note_off_c, 9, 36, 64
5, 208885, Note_off_c, 9, 48, 64
5, 208885, Note_off_c, 9, 42, 64
5, 208900, Note_off_c, 9, 45, 64
5, 209040, Note_on_c, 9, 36, 74
5, 209045, Note_on_c, 9, 42, 59
5, 209115, Note_off_c, 9, 42, 64
5, 209160, Note_off_c, 9, 36, 64
5, 209270, Note_on_c, 9, 49, 72
5, 209280, Note_on_c, 9, 36, 88
5, 209280, Note_on_c, 9, 42, 92
5, 209340, Note_off_c, 9, 42, 64
5, 209360, Note_off_c, 9, 49, 64
5, 209380, Note_off_c, 9, 40, 64
5, 209455, Note_off_c, 9, 51, 64
5, 209470, Note_off_c, 9, 54, 64
5, 209510, Note_on_c, 9, 42, 54
5, 209555, Note_off_c, 9, 42, 64
5, 209745, Note_on_c, 9, 42, 72
5, 209760, Note_on_c, 9, 40, 103
5, 209770, Note_on_c, 9, 51, 45
5, 209770, Note_on_c, 9, 54, 49
5, 209825, Note_off_c, 9, 42, 64
5, 209850, Note_off_c, 9, 36, 64
5, 209980, Note_on_c, 9, 42, 62
5, 210000, Note_on_c, 9, 36, 88
5, 210045, Note_off_c, 9, 42, 64
5, 210095, Note_off_c, 9, 36, 64
5, 210230, Note_on_c, 9, 42, 72
5, 210240, Note_off_c, 9, 51, 64
5, 210240, Note_on_c, 9, 36, 86
5, 210310, Note_off_c, 9, 42, 64
5, 210420, Note_off_c, 9, 54, 64
5, 210470, Note_on_c, 9, 42, 54
5, 210525, Note_off_c, 9, 42, 64
5, 210570, Note_off_c, 9, 40, 64
5, 210705, Note_on_c, 9, 42, 81
5, 210710, Note_on_c, 9, 51, 45
5, 210715, Note_on_c, 9, 54, 56
5, 210720, Note_on_c, 9, 40, 101
5, 210795, Note_off_c, 9, 42, 64
5, 210855, Note_off_c, 9, 36, 64
5, 210950, Note_on_c, 9, 42, 56
5, 210960, Note_on_c, 9, 36, 63
5, 211025, Note_off_c, 9, 42, 64
5, 211080, Note_off_c, 9, 36, 64
5, 211190, Note_on_c, 9, 42, 72
5, 211200, Note_on_c, 9, 36, 76
5, 211280, Note_off_c, 9, 42, 64
5, 211355, Note_off_c, 9, 51, 64
5, 211355, Note_off_c, 9, 54, 64
5, 211430, Note_on_c, 9, 42, 62
5, 211465, Note_off_c, 9, 40, 64
5, 211495, Note_off_c, 9, 42, 64
5, 211665, Note_on_c, 9, 42, 75
5, 211670, Note_on_c, 9, 51, 54
5, 211680, Note_on_c, 9, 40, 108
5, 211680, Note_on_c, 9, 54, 53
5, 211755, Note_off_c, 9, 42, 64
5, 211805, Note_off_c, 9, 36, 64
5, 211910, Note_on_c, 9, 42, 59
5, 211920, Note_on_c, 9, 36, 64
5, 211980, Note_off_c, 9, 42, 64
5, 212065, Note_off_c, 9, 36, 64
5, 212160, Note_on_c, 9, 36, 84
5, 212160, Note_on_c, 9, 42, 72
5, 212245, Note_off_c, 9, 42, 64
5, 212350, Note_off_c, 9, 51, 64
5, 212360, Note_off_c, 9, 54, 64
5, 212400, Note_on_c, 9, 42, 52
5, 212455, Note_off_c, 9, 40, 64
5, 212460, Note_off_c, 9, 42, 64
5, 212635, Note_on_c, 9, 42, 72
5, 212640, Note_on_c, 9, 40, 108
5, 212640, Note_on_c, 9, 51, 48
5, 212650, Note_on_c, 9, 54, 56
5, 212725, Note_off_c, 9, 36, 64
5, 212725, Note_off_c, 9, 42, 64
5, 212870, Note_on_c, 9, 42, 59
5, 212880, Note_on_c, 9, 36, 91
5, 212945, Note_off_c, 9, 42, 64
5, 212995, Note_off_c, 9, 36, 64
5, 213115, Note_on_c, 9, 42, 75
5, 213120, Note_on_c, 9, 36, 86
5, 213210, Note_off_c, 9, 42, 64
5, 213270, Note_off_c, 9, 54, 64
5, 213355, Note_on_c, 9, 42, 54
5, 213365, Note_off_c, 9, 51, 64
5, 213420, Note_off_c, 9, 42, 64
5, 213430, Note_off_c, 9, 40, 64
5, 213595, Note_on_c, 9, 54, 59
5, 213600, Note_on_c, 9, 40, 103
5, 213605, Note_on_c, 9, 51, 56
5, 213610, Note_on_c, 9, 42, 72
5, 213680, Note_off_c, 9, 42, 64
5, 213695, Note_off_c, 9, 36, 64
5, 213840, Note_on_c, 9, 36, 76
5, 213850, Note_on_c, 9, 42, 64
5, 213910, Note_off_c, 9, 42, 64
5, 213965, Note_off_c, 9, 36, 64
5, 214080, Note_on_c, 9, 36, 81
5, 214085, Note_on_c, 9, 42, 72
5, 214165, Note_off_c, 9, 42, 64
5, 214310, Note_off_c, 9, 54, 64
5, 214320, Note_on_c, 9, 42, 59
5, 214325, Note_off_c, 9, 51, 64
5, 214365, Note_off_c, 9, 40, 64
5, 214395, Note_off_c, 9, 42, 64
5, 214550, Note_on_c, 9, 51, 52
5, 214555, Note_on_c, 9, 42, 69
5, 214560, Note_on_c, 9, 40, 108
5, 214590, Note_on_c, 9, 54, 64
5, 214630, Note_off_c, 9, 36, 64
5, 214640, Note_off_c, 9, 42, 64
5, 214795, Note_on_c, 9, 42, 54
5, 214800, Note_on_c, 9, 36, 76
5, 214865, Note_off_c, 9, 42, 64
5, 214900, Note_off_c, 9, 36, 64
5, 215030, Note_on_c, 9, 42, 64
5, 215040, Note_on_c, 9, 36, 74
5, 215115, Note_off_c, 9, 42, 64
5, 215210, Note_off_c, 9, 54, 64
5, 215275, Note_on_c, 9, 42, 50
5, 215320, Note_off_c, 9, 51, 64
5, 215320, Note_off_c, 9, 40, 64
5, 215335, Note_off_c, 9, 42, 64
5, 215510, Note_on_c, 9, 54, 59
5, 215520, Note_on_c, 9, 40, 108
5, 215520, Note_on_c, 9, 42, 75
5, 215530, Note_on_c, 9, 51, 56
5, 215605, Note_off_c, 9, 42, 64
5, 215630, Note_off_c, 9, 36, 64
5, 215760, Note_on_c, 9, 36, 84
5, 215760, Note_on_c, 9, 42, 62
5, 215840, Note_off_c, 9, 42, 64
5, 215860, Note_off_c, 9, 36, 64
5, 216000, Note_on_c, 9, 36, 78
5, 216000, Note_on_c, 9, 42, 75
5, 216040, Note_off_c, 9, 54, 64
5, 216085, Note_off_c, 9, 42, 64
5, 216230, Note_off_c, 9, 51, 64
5, 216245, Note_on_c, 9, 42, 59
5, 216250, Note_on_c, 9, 48, 76
5, 216250, Note_on_c, 9, 45, 69
5, 216260, Note_on_c, 9, 54, 56
5, 216305, Note_off_c, 9, 40, 64
5, 216310, Note_off_c, 9, 42, 64
5, 216330, Note_off_c, 9, 48, 64
5, 216330, Note_off_c, 9, 54, 64
5, 216340, Note_off_c, 9, 45, 64
5, 216480, Note_on_c, 9, 40, 106
5, 216485, Note_on_c, 9, 42, 72
5, 216485, Note_on_c, 9, 48, 91
5, 216490, Note_on_c, 9, 51, 52
5, 216490, Note_on_c, 9, 45, 76
5, 216500, Note_on_c, 9, 54, 53
5, 216550, Note_off_c, 9, 36, 64
5, 216565, Note_off_c, 9, 42, 64
5, 216585, Note_off_c, 9, 48, 64
5, 216590, Note_off_c, 9, 45, 64
5, 216720, Note_on_c, 9, 36, 74
5, 216725, Note_on_c, 9, 42, 59
5, 216795, Note_off_c, 9, 42, 64
5, 216840, Note_off_c, 9, 36, 64
5, 216960, Note_on_c, 9, 36, 88
5, 216960, Note_on_c, 9, 42, 92
5, 216965, Note_on_c, 9, 49, 76
5, 217020, Note_off_c, 9, 42, 64
5, 217030, Note_off_c, 9, 49, 64
5, 217060, Note_off_c, 9, 40, 64
5, 217135, Note_off_c, 9, 51, 64
5, 217140, Note_off_c, 9, 54, 64
5, 217190, Note_on_c, 9, 42, 54
5, 217235, Note_off_c, 9, 42, 64
5, 217420, Note_on_c, 9, 54, 59
5, 217425, Note_on_c, 9, 42, 72
5, 217440, Note_on_c, 9, 40, 103
5, 217450, Note_on_c, 9, 51, 45
5, 217505, Note_off_c, 9, 42, 64
5, 217530, Note_off_c, 9, 36, 64
5, 217660, Note_on_c, 9, 42, 62
5, 217680, Note_on_c, 9, 36, 88
5, 217725, Note_off_c, 9, 42, 64
5, 217775, Note_off_c, 9, 36, 64
5, 217910, Note_on_c, 9, 42, 72
5, 217920, Note_off_c, 9, 51, 64
5, 217920, Note_on_c, 9, 36, 86
5, 217990, Note_off_c, 9, 42, 64
5, 218130, Note_off_c, 9, 54, 64
5, 218150, Note_on_c, 9, 42, 54
5, 218205, Note_off_c, 9, 42, 64
5, 218250, Note_off_c, 9, 40, 64
5, 218385, Note_on_c, 9, 42, 81
5, 218390, Note_on_c, 9, 51, 45
5, 218400, Note_on_c, 9, 40, 101
5, 218405, Note_on_c, 9, 54, 59
5, 218475, Note_off_c, 9, 42, 64
5, 218535, Note_off_c, 9, 36, 64
5, 218630, Note_on_c, 9, 42, 56
5, 218640, Note_on_c, 9, 36, 63
5, 218705, Note_off_c, 9, 42, 64
5, 218760, Note_off_c, 9, 36, 64
5, 218870, Note_on_c, 9, 42, 72
5, 218880, Note_on_c, 9, 36, 76
5, 218960, Note_off_c, 9, 42, 64
5, 219035, Note_off_c, 9, 51, 64
5, 219100, Note_off_c, 9, 54, 64
5, 219110, Note_on_c, 9, 42, 62
5, 219145, Note_off_c, 9, 40, 64
5, 219175, Note_off_c, 9, 42, 64
5, 219345, Note_on_c, 9, 42, 75
5, 219350, Note_on_c, 9, 51, 54
5, 219355, Note_on_c, 9, 54, 62
5, 219360, Note_on_c, 9, 40, 108
5, 219435, Note_off_c, 9, 42, 64
5, 219485, Note_off_c, 9, 36, 64
5, 219590, Note_on_c, 9, 42, 59
5, 219600, Note_on_c, 9, 36, 64
5, 219600, Note_on_c, 9, 48, 83
5, 219600, Note_on_c, 9, 45, 73
5, 219660, Note_off_c, 9, 42, 64
5, 219680, Note_off_c, 9, 48, 64
5, 219690, Note_off_c, 9, 45, 64
5, 219745, Note_off_c, 9, 36, 64
5, 219840, Note_on_c, 9, 36, 84
5, 219840, Note_on_c, 9, 42, 72
5, 219840, Note_on_c, 9, 48, 83
5, 219845, Note_on_c, 9, 45, 67
5, 219925, Note_off_c, 9, 42, 64
5, 219930, Note_off_c, 9, 48, 64
5, 219935, Note_off_c, 9, 45, 64
5, 220030, Note_off_c, 9, 51, 64
5, 220065, Note_off_c, 9, 54, 64
5, 220080, Note_on_c, 9, 42, 52
5, 220135, Note_off_c, 9, 40, 64
5, 220140, Note_off_c, 9, 42, 64
5, 220310, Note_on_c, 9, 54, 53
5, 220315, Note_on_c, 9, 42, 72
5, 220320, Note_on_c, 9, 40, 108
5, 220320, Note_on_c, 9, 51, 48
5, 220330, Note_on_c, 9, 45, 67
5, 220330, Note_on_c, 9, 48, 81
5, 220405, Note_off_c, 9, 42, 64
5, 220405, Note_off_c, 9, 36, 64
5, 220415, Note_off_c, 9, 48, 64
5, 220430, Note_off_c, 9, 45, 64
5, 220550, Note_on_c, 9, 42, 59
5, 220560, Note_on_c, 9, 36, 91
5, 220625, Note_off_c, 9, 42, 64
5, 220675, Note_off_c, 9, 36, 64
5, 220790, Note_on_c, 9, 49, 76
5, 220795, Note_on_c, 9, 42, 75
5, 220800, Note_on_c, 9, 36, 86
5, 220855, Note_off_c, 9, 49, 64
5, 220890, Note_off_c, 9, 42, 64
5, 220920, Note_off_c, 9, 54, 64
5, 221035, Note_on_c, 9, 42, 54
5, 221045, Note_off_c, 9, 51, 64
5, 221100, Note_off_c, 9, 42, 64
5, 221110, Note_off_c, 9, 40, 64
5, 221265, Note_on_c, 9, 54, 62
5, 221280, Note_on_c, 9, 40, 103
5, 221285, Note_on_c, 9, 51, 56
5, 221290, Note_on_c, 9, 42, 72
5, 221360, Note_off_c, 9, 42, 64
5, 221375, Note_off_c, 9, 36, 64
5, 221520, Note_on_c, 9, 36, 76
5, 221530, Note_on_c, 9, 42, 64
5, 221590, Note_off_c, 9, 42, 64
5, 221645, Note_off_c, 9, 36, 64
5, 221760, Note_on_c, 9, 36, 81
5, 221765, Note_on_c, 9, 42, 72
5, 221845, Note_off_c, 9, 42, 64
5, 221950, Note_off_c, 9, 54, 64
5, 222000, Note_on_c, 9, 42, 59
5, 222005, Note_off_c, 9, 51, 64
5, 222045, Note_off_c, 9, 40, 64
5, 222075, Note_off_c, 9, 42, 64
5, 222230, Note_on_c, 9, 51, 52
5, 222235, Note_on_c, 9, 42, 69
5, 222240, Note_on_c, 9, 40, 108
5, 222240, Note_on_c, 9, 54, 68
5, 222310, Note_off_c, 9, 36, 64
5, 222320, Note_off_c, 9, 42, 64
5, 222475, Note_on_c, 9, 42, 54
5, 222480, Note_on_c, 9, 36, 76
5, 222545, Note_off_c, 9, 42, 64
5, 222580, Note_off_c, 9, 36, 64
5, 222710, Note_on_c, 9, 42, 64
5, 222720, Note_on_c, 9, 36, 74
5, 222795, Note_off_c, 9, 42, 64
5, 222940, Note_off_c, 9, 54, 64
5, 222955, Note_on_c, 9, 42, 50
5, 223000, Note_off_c, 9, 51, 64
5, 223000, Note_off_c, 9, 40, 64
5, 223015, Note_off_c, 9, 42, 64
5, 223200, Note_on_c, 9, 40, 108
5, 223200, Note_on_c, 9, 42, 75
5, 223210, Note_on_c, 9, 51, 56
5, 223210, Note_on_c, 9, 54, 68
5, 223285, Note_off_c, 9, 42, 64
5, 223310, Note_off_c, 9, 36, 64
5, 223440, Note_on_c, 9, 36, 84
5, 223440, Note_on_c, 9, 42, 62
5, 223520, Note_off_c, 9, 42, 64
5, 223540, Note_off_c, 9, 36, 64
5, 223680, Note_on_c, 9, 36, 78
5, 223680, Note_on_c, 9, 42, 75
5, 223765, Note_off_c, 9, 42, 64
5, 223910, Note_off_c, 9, 51, 64
5, 223920, Note_off_c, 9, 54, 64
5, 223925, Note_on_c, 9, 42, 59
5, 223985, Note_off_c, 9, 40, 64
5, 223990, Note_off_c, 9, 42, 64
5, 224160, Note_on_c, 9, 40, 106
5, 224165, Note_on_c, 9, 42, 72
5, 224170, Note_on_c, 9, 51, 52
5, 224185, Note_on_c, 9, 54, 62
5, 224230, Note_off_c, 9, 36, 64
5, 224245, Note_off_c, 9, 42, 64
5, 224400, Note_on_c, 9, 36, 74
5, 224405, Note_on_c, 9, 42, 59
5, 224475, Note_off_c, 9, 42, 64
5, 224520, Note_off_c, 9, 36, 64
5, 224640, Note_on_c, 9, 36, 88
5, 224640, Note_on_c, 9, 42, 92
5, 224700, Note_off_c, 9, 42, 64
5, 224740, Note_off_c, 9, 40, 64
5, 224815, Note_off_c, 9, 51, 64
5, 224850, Note_off_c, 9, 54, 64
5, 224870, Note_on_c, 9, 42, 54
5, 224915, Note_off_c, 9, 42, 64
5, 225105, Note_on_c, 9, 42, 72
5, 225120, Note_on_c, 9, 40, 103
5, 225130, Note_on_c, 9, 51, 45
5, 225150, Note_on_c, 9, 54, 62
5, 225185, Note_off_c, 9, 42, 64
5, 225210, Note_off_c, 9, 36, 64
5, 225340, Note_on_c, 9, 42, 62
5, 225360, Note_on_c, 9, 36, 88
5, 225405, Note_off_c, 9, 42, 64
5, 225455, Note_off_c, 9, 36, 64
5, 225590, Note_on_c, 9, 42, 72
5, 225600, Note_off_c, 9, 51, 64
5, 225600, Note_on_c, 9, 36, 86
5, 225670, Note_off_c, 9, 42, 64
5, 225755, Note_off_c, 9, 54, 64
5, 225830, Note_on_c, 9, 42, 54
5, 225885, Note_off_c, 9, 42, 64
5, 225930, Note_off_c, 9, 40, 64
5, 226065, Note_on_c, 9, 42, 81
5, 226070, Note_on_c, 9, 51, 45
5, 226080, Note_on_c, 9, 40, 101
5, 226080, Note_on_c, 9, 54, 68
5, 226155, Note_off_c, 9, 42, 64
5, 226215, Note_off_c, 9, 36, 64
5, 226310, Note_on_c, 9, 42, 56
5, 226320, Note_on_c, 9, 36, 63
5, 226385, Note_off_c, 9, 42, 64
5, 226440, Note_off_c, 9, 36, 64
5, 226550, Note_on_c, 9, 42, 72
5, 226560, Note_on_c, 9, 36, 76
5, 226640, Note_off_c, 9, 42, 64
5, 226700, Note_off_c, 9, 54, 64
5, 226715, Note_off_c, 9, 51, 64
5, 226790, Note_on_c, 9, 42, 62
5, 226825, Note_off_c, 9, 40, 64
5, 226855, Note_off_c, 9, 42, 64
5, 227025, Note_on_c, 9, 42, 75
5, 227030, Note_on_c, 9, 51, 54
5, 227030, Note_on_c, 9, 54, 68
5, 227040, Note_on_c, 9, 40, 108
5, 227115, Note_off_c, 9, 42, 64
5, 227165, Note_off_c, 9, 36, 64
5, 227270, Note_on_c, 9, 42, 59
5, 227280, Note_on_c, 9, 36, 64
5, 227340, Note_off_c, 9, 42, 64
5, 227425, Note_off_c, 9, 36, 64
5, 227520, Note_on_c, 9, 36, 84
5, 227520, Note_on_c, 9, 42, 72
5, 227605, Note_off_c, 9, 42, 64
5, 227680, Note_off_c, 9, 54, 64
5, 227710, Note_off_c, 9, 51, 64
5, 227760, Note_on_c, 9, 42, 52
5, 227760, Note_on_c, 9, 48, 73
5, 227765, Note_on_c, 9, 45, 54
5, 227815, Note_off_c, 9, 40, 64
5, 227820, Note_off_c, 9, 42, 64
5, 227840, Note_off_c, 9, 48, 64
5, 227840, Note_off_c, 9, 45, 64
5, 227985, Note_on_c, 9, 48, 88
5, 227985, Note_on_c, 9, 54, 72
5, 227990, Note_on_c, 9, 45, 76
5, 227995, Note_on_c, 9, 42, 72
5, 228000, Note_on_c, 9, 40, 108
5, 228000, Note_on_c, 9, 51, 48
5, 228085, Note_off_c, 9, 42, 64
5, 228085, Note_off_c, 9, 45, 64
5, 228085, Note_off_c, 9, 36, 64
5, 228090, Note_off_c, 9, 48, 64
5, 228230, Note_on_c, 9, 42, 59
5, 228240, Note_on_c, 9, 36, 91
5, 228305, Note_off_c, 9, 42, 64
5, 228355, Note_off_c, 9, 36, 64
5, 228470, Note_on_c, 9, 49, 80
5, 228475, Note_on_c, 9, 42, 75
5, 228480, Note_on_c, 9, 36, 86
5, 228535, Note_off_c, 9, 49, 64
5, 228570, Note_off_c, 9, 42, 64
5, 228605, Note_off_c, 9, 54, 64
5, 228715, Note_on_c, 9, 42, 54
5, 228725, Note_off_c, 9, 51, 64
5, 228780, Note_off_c, 9, 42, 64
5, 228790, Note_off_c, 9, 40, 64
5, 228950, Note_on_c, 9, 54, 68
5, 228960, Note_on_c, 9, 40, 103
5, 228965, Note_on_c, 9, 51, 56
5, 228970, Note_on_c, 9, 42, 72
5, 229040, Note_off_c, 9, 42, 64
5, 229055, Note_off_c, 9, 36, 64
5, 229200, Note_on_c, 9, 36, 76
5, 229210, Note_on_c, 9, 42, 64
5, 229270, Note_off_c, 9, 42, 64
5, 229325, Note_off_c, 9, 36, 64
5, 229440, Note_on_c, 9, 36, 81
5, 229445, Note_on_c, 9, 42, 72
5, 229525, Note_off_c, 9, 42, 64
5, 229585, Note_off_c, 9, 54, 64
5, 229680, Note_on_c, 9, 42, 59
5, 229685, Note_off_c, 9, 51, 64
5, 229725, Note_off_c, 9, 40, 64
5, 229755, Note_off_c, 9, 42, 64
5, 229910, Note_on_c, 9, 51, 52
5, 229915, Note_on_c, 9, 42, 69
5, 229920, Note_on_c, 9, 40, 108
5, 229920, Note_on_c, 9, 54, 68
5, 229990, Note_off_c, 9, 36, 64
5, 230000, Note_off_c, 9, 42, 64
5, 230155, Note_on_c, 9, 42, 54
5, 230160, Note_on_c, 9, 36, 76
5, 230225, Note_off_c, 9, 42, 64
5, 230260, Note_off_c, 9, 36, 64
5, 230390, Note_on_c, 9, 42, 64
5, 230400, Note_on_c, 9, 36, 74
5, 230475, Note_off_c, 9, 42, 64
5, 230520, Note_off_c, 9, 54, 64
5, 230635, Note_on_c, 9, 42, 50
5, 230680, Note_off_c, 9, 51, 64
5, 230680, Note_off_c, 9, 40, 64
5, 230695, Note_off_c, 9, 42, 64
5, 230875, Note_on_c, 9, 54, 72
5, 230880, Note_on_c, 9, 40, 108
5, 230880, Note_on_c, 9, 42, 75
5, 230890, Note_on_c, 9, 51, 56
5, 230965, Note_off_c, 9, 42, 64
5, 230990, Note_off_c, 9, 36, 64
5, 231120, Note_on_c, 9, 36, 84
5, 231120, Note_on_c, 9, 42, 62
5, 231200, Note_off_c, 9, 42, 64
5, 231220, Note_off_c, 9, 36, 64
5, 231360, Note_on_c, 9, 36, 78
5, 231360, Note_on_c, 9, 42, 75
5, 231445, Note_off_c, 9, 42, 64
5, 231550, Note_off_c, 9, 54, 64
5, 231590, Note_off_c, 9, 51, 64
5, 231605, Note_on_c, 9, 42, 59
5, 231665, Note_off_c, 9, 40, 64
5, 231670, Note_off_c, 9, 42, 64
5, 231840, Note_on_c, 9, 40, 106
5, 231845, Note_on_c, 9, 42, 72
5, 231850, Note_on_c, 9, 51, 52
5, 231865, Note_on_c, 9, 54, 64
5, 231910, Note_off_c, 9, 36, 64
5, 231925, Note_off_c, 9, 42, 64
5, 232080, Note_on_c, 9, 36, 74
5, 232085, Note_on_c, 9, 42, 59
5, 232155, Note_off_c, 9, 42, 64
5, 232200, Note_off_c, 9, 36, 64
5, 232320, Note_on_c, 9, 36, 88
5, 232320, Note_on_c, 9, 42, 92
5, 232380, Note_off_c, 9, 42, 64
5, 232420, Note_off_c, 9, 40, 64
5, 232485, Note_off_c, 9, 54, 64
5, 232495, Note_off_c, 9, 51, 64
5, 232550, Note_on_c, 9, 42, 54
5, 232595, Note_off_c, 9, 42, 64
5, 232785, Note_on_c, 9, 42, 72
5, 232800, Note_on_c, 9, 40, 103
5, 232810, Note_on_c, 9, 51, 45
5, 232810, Note_on_c, 9, 54, 68
5, 232865, Note_off_c, 9, 42, 64
5, 232890, Note_off_c, 9, 36, 64
5, 233020, Note_on_c, 9, 42, 62
5, 233040, Note_on_c, 9, 36, 88
5, 233085, Note_off_c, 9, 42, 64
5, 233135, Note_off_c, 9, 36, 64
5, 233270, Note_on_c, 9, 42, 72
5, 233280, Note_off_c, 9, 51, 64
5, 233280, Note_on_c, 9, 36, 86
5, 233350, Note_off_c, 9, 42, 64
5, 233445, Note_off_c, 9, 54, 64
5, 233510, Note_on_c, 9, 42, 54
5, 233565, Note_off_c, 9, 42, 64
5, 233610, Note_off_c, 9, 40, 64
5, 233745, Note_on_c, 9, 42, 81
5, 233750, Note_on_c, 9, 51, 45
5, 233760, Note_on_c, 9, 40, 101
5, 233760, Note_on_c, 9, 54, 72
5, 233835, Note_off_c, 9, 42, 64
5, 233895, Note_off_c, 9, 36, 64
5, 233990, Note_on_c, 9, 42, 56
5, 234000, Note_on_c, 9, 36, 63
5, 234065, Note_off_c, 9, 42, 64
5, 234120, Note_off_c, 9, 36, 64
5, 234230, Note_on_c, 9, 42, 72
5, 234240, Note_on_c, 9, 36, 76
5, 234320, Note_off_c, 9, 42, 64
5, 234385, Note_off_c, 9, 54, 64
5, 234395, Note_off_c, 9, 51, 64
5, 234470, Note_on_c, 9, 42, 62
5, 234505, Note_off_c, 9, 40, 64
5, 234535, Note_off_c, 9, 42, 64
5, 234705, Note_on_c, 9, 42, 75
5, 234710, Note_on_c, 9, 51, 54
5, 234710, Note_on_c, 9, 54, 68
5, 234720, Note_on_c, 9, 40, 108
5, 234795, Note_off_c, 9, 42, 64
5, 234845, Note_off_c, 9, 36, 64
5, 234950, Note_on_c, 9, 42, 59
5, 234960, Note_on_c, 9, 36, 64
5, 235020, Note_off_c, 9, 42, 64
5, 235105, Note_off_c, 9, 36, 64
5, 235200, Note_on_c, 9, 36, 84
5, 235200, Note_on_c, 9, 42, 72
5, 235285, Note_off_c, 9, 42, 64
5, 235360, Note_off_c, 9, 54, 64
5, 235390, Note_off_c, 9, 51, 64
5, 235415, Note_on_c, 9, 48, 86
5, 235420, Note_on_c, 9, 45, 71
5, 235440, Note_on_c, 9, 42, 52
5, 235495, Note_off_c, 9, 40, 64
5, 235500, Note_off_c, 9, 42, 64
5, 235505, Note_off_c, 9, 48, 64
5, 235525, Note_off_c, 9, 45, 64
5, 235675, Note_on_c, 9, 42, 72
5, 235675, Note_on_c, 9, 45, 79
5, 235675, Note_on_c, 9, 48, 91
5, 235680, Note_on_c, 9, 40, 108
5, 235680, Note_on_c, 9, 51, 48
5, 235685, Note_on_c, 9, 54, 62
5, 235765, Note_off_c, 9, 36, 64
5, 235765, Note_off_c, 9, 42, 64
5, 235775, Note_off_c, 9, 48, 64
5, 235780, Note_off_c, 9, 45, 64
5, 235910, Note_on_c, 9, 42, 59
5, 235920, Note_on_c, 9, 36, 91
5, 235985, Note_off_c, 9, 42, 64
5, 236035, Note_off_c, 9, 36, 64
5, 236150, Note_on_c, 9, 49, 89
5, 236155, Note_on_c, 9, 42, 75
5, 236160, Note_on_c, 9, 36, 86
5, 236225, Note_off_c, 9, 49, 64
5, 236245, Note_off_c, 9, 54, 64
5, 236250, Note_off_c, 9, 42, 64
5, 236395, Note_on_c, 9, 42, 54
5, 236405, Note_off_c, 9, 51, 64
5, 236460, Note_off_c, 9, 42, 64
5, 236470, Note_off_c, 9, 40, 64
5, 236640, Note_on_c, 9, 40, 103
5, 236645, Note_on_c, 9, 51, 56
5, 236650, Note_on_c, 9, 42, 72
5, 236650, Note_on_c, 9, 54, 72
5, 236720, Note_off_c, 9, 42, 64
5, 236735, Note_off_c, 9, 36, 64
5, 236880, Note_on_c, 9, 36, 76
5, 236890, Note_on_c, 9, 42, 64
5, 236950, Note_off_c, 9, 42, 64
5, 237005, Note_off_c, 9, 36, 64
5, 237120, Note_on_c, 9, 36, 81
5, 237125, Note_on_c, 9, 42, 72
5, 237205, Note_off_c, 9, 42, 64
5, 237210, Note_off_c, 9, 54, 64
5, 237360, Note_on_c, 9, 42, 59
5, 237365, Note_off_c, 9, 51, 64
5, 237405, Note_off_c, 9, 40, 64
5, 237435, Note_off_c, 9, 42, 64
5, 237590, Note_on_c, 9, 51, 52
5, 237595, Note_on_c, 9, 42, 69
5, 237595, Note_on_c, 9, 54, 62
5, 237600, Note_on_c, 9, 40, 108
5, 237670, Note_off_c, 9, 36, 64
5, 237680, Note_off_c, 9, 42, 64
5, 237835, Note_on_c, 9, 42, 54
5, 237840, Note_on_c, 9, 36, 76
5, 237905, Note_off_c, 9, 42, 64
5, 237940, Note_off_c, 9, 36, 64
5, 238070, Note_on_c, 9, 42, 64
5, 238080, Note_on_c, 9, 36, 74
5, 238155, Note_off_c, 9, 42, 64
5, 238250, Note_off_c, 9, 54, 64
5, 238315, Note_on_c, 9, 42, 50
5, 238360, Note_off_c, 9, 51, 64
5, 238360, Note_off_c, 9, 40, 64
5, 238375, Note_off_c, 9, 42, 64
5, 238560, Note_on_c, 9, 40, 108
5, 238560, Note_on_c, 9, 42, 75
5, 238570, Note_on_c, 9, 51, 56
5, 238575, Note_on_c, 9, 54, 72
5, 238645, Note_off_c, 9, 42, 64
5, 238670, Note_off_c, 9, 36, 64
5, 238800, Note_on_c, 9, 36, 84
5, 238800, Note_on_c, 9, 42, 62
5, 238880, Note_off_c, 9, 42, 64
5, 238900, Note_off_c, 9, 36, 64
5, 239040, Note_on_c, 9, 36, 78
5, 239040, Note_on_c, 9, 42, 75
5, 239125, Note_off_c, 9, 42, 64
5, 239205, Note_off_c, 9, 54, 64
5, 239270, Note_off_c, 9, 51, 64
5, 239285, Note_on_c, 9, 42, 59
5, 239345, Note_off_c, 9, 40, 64
5, 239350, Note_off_c, 9, 42, 64
5, 239520, Note_on_c, 9, 40, 106
5, 239525, Note_on_c, 9, 42, 72
5, 239530, Note_on_c, 9, 51, 52
5, 239550, Note_on_c, 9, 54, 59
5, 239590, Note_off_c, 9, 36, 64
5, 239605, Note_off_c, 9, 42, 64
5, 239760, Note_on_c, 9, 36, 74
5, 239765, Note_on_c, 9, 42, 59
5, 239835, Note_off_c, 9, 42, 64
5, 239880, Note_off_c, 9, 36, 64
5, 240000, Note_on_c, 9, 36, 88
5, 240000, Note_on_c, 9, 42, 92
5, 240060, Note_off_c, 9, 42, 64
5, 240100, Note_off_c, 9, 40, 64
5, 240135, Note_off_c, 9, 54, 64
5, 240175, Note_off_c, 9, 51, 64
5, 240230, Note_on_c, 9, 42, 54
5, 240275, Note_off_c, 9, 42, 64
5, 240465, Note_on_c, 9, 42, 72
5, 240480, Note_on_c, 9, 40, 103
5, 240490, Note_on_c, 9, 51, 45
5, 240490, Note_on_c, 9, 54, 59
5, 240545, Note_off_c, 9, 42, 64
5, 240570, Note_off_c, 9, 36, 64
5, 240700, Note_on_c, 9, 42, 62
5, 240720, Note_on_c, 9, 36, 88
5, 240765, Note_off_c, 9, 42, 64
5, 240815, Note_off_c, 9, 36, 64
5, 240950, Note_on_c, 9, 42, 72
5, 240960, Note_off_c, 9, 51, 64
5, 240960, Note_on_c, 9, 36, 86
5, 241030, Note_off_c, 9, 42, 64
5, 241145, Note_off_c, 9, 54, 64
5, 241190, Note_on_c, 9, 42, 54
5, 241245, Note_off_c, 9, 42, 64
5, 241290, Note_off_c, 9, 40, 64
5, 241425, Note_on_c, 9, 42, 81
5, 241430, Note_on_c, 9, 51, 45
5, 241430, Note_on_c, 9, 54, 62
5, 241440, Note_on_c, 9, 40, 101
5, 241515, Note_off_c, 9, 42, 64
5, 241575, Note_off_c, 9, 36, 64
5, 241670, Note_on_c, 9, 42, 56
5, 241680, Note_on_c, 9, 36, 63
5, 241745, Note_off_c, 9, 42, 64
5, 241800, Note_off_c, 9, 36, 64
5, 241910, Note_on_c, 9, 42, 72
5, 241920, Note_on_c, 9, 36, 76
5, 242000, Note_off_c, 9, 42, 64
5, 242075, Note_off_c, 9, 51, 64
5, 242095, Note_off_c, 9, 54, 64
5, 242150, Note_on_c, 9, 42, 62
5, 242185, Note_off_c, 9, 40, 64
5, 242215, Note_off_c, 9, 42, 64
5, 242385, Note_on_c, 9, 42, 75
5, 242390, Note_on_c, 9, 51, 54
5, 242400, Note_on_c, 9, 40, 108
5, 242410, Note_on_c, 9, 54, 59
5, 242475, Note_off_c, 9, 42, 64
5, 242525, Note_off_c, 9, 36, 64
5, 242630, Note_on_c, 9, 42, 59
5, 242640, Note_on_c, 9, 36, 64
5, 242700, Note_off_c, 9, 42, 64
5, 242785, Note_off_c, 9, 36, 64
5, 242880, Note_on_c, 9, 36, 84
5, 242880, Note_on_c, 9, 42, 72
5, 242965, Note_off_c, 9, 42, 64
5, 243045, Note_off_c, 9, 54, 64
5, 243070, Note_off_c, 9, 51, 64
5, 243110, Note_on_c, 9, 45, 79
5, 243115, Note_on_c, 9, 48, 88
5, 243120, Note_on_c, 9, 42, 52
5, 243175, Note_off_c, 9, 40, 64
5, 243180, Note_off_c, 9, 42, 64
5, 243190, Note_off_c, 9, 48, 64
5, 243200, Note_off_c, 9, 45, 64
5, 243350, Note_on_c, 9, 45, 81
5, 243350, Note_on_c, 9, 48, 88
5, 243355, Note_on_c, 9, 42, 72
5, 243360, Note_on_c, 9, 40, 108
5, 243360, Note_on_c, 9, 51, 48
5, 243365, Note_on_c, 9, 54, 56
5, 243440, Note_off_c, 9, 48, 64
5, 243445, Note_off_c, 9, 36, 64
5, 243445, Note_off_c, 9, 42, 64
5, 243450, Note_off_c, 9, 45, 64
5, 243590, Note_on_c, 9, 42, 59
5, 243600, Note_on_c, 9, 36, 91
5, 243665, Note_off_c, 9, 42, 64
5, 243715, Note_off_c, 9, 36, 64
5, 243835, Note_on_c, 9, 42, 75
5, 243840, Note_on_c, 9, 36, 86
5, 243840, Note_on_c, 9, 49, 80
5, 243905, Note_off_c, 9, 49, 64
5, 243930, Note_off_c, 9, 42, 64
5, 243950, Note_off_c, 9, 54, 64
5, 244075, Note_on_c, 9, 42, 54
5, 244085, Note_off_c, 9, 51, 64
5, 244140, Note_off_c, 9, 42, 64
5, 244150, Note_off_c, 9, 40, 64
5, 244320, Note_on_c, 9, 40, 103
5, 244325, Note_on_c, 9, 51, 56
5, 244330, Note_on_c, 9, 42, 72
5, 244335, Note_on_c, 9, 54, 59
5, 244400, Note_off_c, 9, 42, 64
5, 244415, Note_off_c, 9, 36, 64
5, 244560, Note_on_c, 9, 36, 76
5, 244570, Note_on_c, 9, 42, 64
5, 244630, Note_off_c, 9, 42, 64
5, 244685, Note_off_c, 9, 36, 64
5, 244800, Note_on_c, 9, 36, 81
5, 244805, Note_on_c, 9, 42, 72
5, 244885, Note_off_c, 9, 42, 64
5, 245000, Note_off_c, 9, 54, 64
5, 245040, Note_on_c, 9, 42, 59
5, 245045, Note_off_c, 9, 51, 64
5, 245085, Note_off_c, 9, 40, 64
5, 245115, Note_off_c, 9, 42, 64
5, 245270, Note_on_c, 9, 51, 52
5, 245275, Note_on_c, 9, 42, 69
5, 245280, Note_on_c, 9, 40, 108
5, 245310, Note_on_c, 9, 54, 56
5, 245350, Note_off_c, 9, 36, 64
5, 245360, Note_off_c, 9, 42, 64
5, 245515, Note_on_c, 9, 42, 54
5, 245520, Note_on_c, 9, 36, 76
5, 245585, Note_off_c, 9, 42, 64
5, 245620, Note_off_c, 9, 36, 64
5, 245750, Note_on_c, 9, 42, 64
5, 245760, Note_on_c, 9, 36, 74
5, 245835, Note_off_c, 9, 42, 64
5, 245935, Note_off_c, 9, 54, 64
5, 245995, Note_on_c, 9, 42, 50
5, 246040, Note_off_c, 9, 51, 64
5, 246040, Note_off_c, 9, 40, 64
5, 246055, Note_off_c, 9, 42, 64
5, 246240, Note_on_c, 9, 40, 108
5, 246240, Note_on_c, 9, 42, 75
5, 246250, Note_on_c, 9, 51, 56
5, 246270, Note_on_c, 9, 54, 59
5, 246325, Note_off_c, 9, 42, 64
5, 246350, Note_off_c, 9, 36, 64
5, 246480, Note_on_c, 9, 36, 84
5, 246480, Note_on_c, 9, 42, 62
5, 246560, Note_off_c, 9, 42, 64
5, 246580, Note_off_c, 9, 36, 64
5, 246720, Note_on_c, 9, 36, 78
5, 246720, Note_on_c, 9, 42, 75
5, 246805, Note_off_c, 9, 42, 64
5, 246845, Note_off_c, 9, 54, 64
5, 246950, Note_off_c, 9, 51, 64
5, 246965, Note_on_c, 9, 42, 59
5, 247025, Note_off_c, 9, 40, 64
5, 247030, Note_off_c, 9, 42, 64
5, 247195, Note_on_c, 9, 54, 62
5, 247200, Note_on_c, 9, 40, 106
5, 247205, Note_on_c, 9, 42, 72
5, 247210, Note_on_c, 9, 51, 52
5, 247270, Note_off_c, 9, 36, 64
5, 247285, Note_off_c, 9, 42, 64
5, 247440, Note_on_c, 9, 36, 74
5, 247445, Note_on_c, 9, 42, 59
5, 247515, Note_off_c, 9, 42, 64
5, 247560, Note_off_c, 9, 36, 64
5, 247680, Note_on_c, 9, 36, 88
5, 247680, Note_on_c, 9, 42, 92
5, 247740, Note_off_c, 9, 42, 64
5, 247780, Note_off_c, 9, 40, 64
5, 247810, Note_off_c, 9, 54, 64
5, 247855, Note_off_c, 9, 51, 64
5, 247910, Note_on_c, 9, 42, 54
5, 247955, Note_off_c, 9, 42, 64
5, 248145, Note_on_c, 9, 42, 72
5, 248160, Note_on_c, 9, 40, 103
5, 248160, Note_on_c, 9, 54, 53
5, 248170, Note_on_c, 9, 51, 45
5, 248225, Note_off_c, 9, 42, 64
5, 248250, Note_off_c, 9, 36, 64
5, 248380, Note_on_c, 9, 42, 62
5, 248400, Note_on_c, 9, 36, 88
5, 248445, Note_off_c, 9, 42, 64
5, 248495, Note_off_c, 9, 36, 64
5, 248630, Note_on_c, 9, 42, 72
5, 248640, Note_off_c, 9, 51, 64
5, 248640, Note_on_c, 9, 36, 86
5, 248710, Note_off_c, 9, 42, 64
5, 248735, Note_off_c, 9, 54, 64
5, 248870, Note_on_c, 9, 42, 54
5, 248925, Note_off_c, 9, 42, 64
5, 248970, Note_off_c, 9, 40, 64
5, 249105, Note_on_c, 9, 42, 81
5, 249110, Note_on_c, 9, 51, 45
5, 249120, Note_on_c, 9, 40, 101
5, 249120, Note_on_c, 9, 54, 59
5, 249195, Note_off_c, 9, 42, 64
5, 249255, Note_off_c, 9, 36, 64
5, 249350, Note_on_c, 9, 42, 56
5, 249360, Note_on_c, 9, 36, 63
5, 249425, Note_off_c, 9, 42, 64
5, 249480, Note_off_c, 9, 36, 64
5, 249590, Note_on_c, 9, 42, 72
5, 249600, Note_on_c, 9, 36, 76
5, 249670, Note_off_c, 9, 54, 64
5, 249680, Note_off_c, 9, 42, 64
5, 249755, Note_off_c, 9, 51, 64
5, 249830, Note_on_c, 9, 42, 62
5, 249865, Note_off_c, 9, 40, 64
5, 249895, Note_off_c, 9, 42, 64
5, 250065, Note_on_c, 9, 42, 75
5, 250070, Note_on_c, 9, 51, 54
5, 250075, Note_on_c, 9, 54, 72
5, 250080, Note_on_c, 9, 40, 108
5, 250155, Note_off_c, 9, 42, 64
5, 250205, Note_off_c, 9, 36, 64
5, 250310, Note_on_c, 9, 42, 59
5, 250320, Note_on_c, 9, 36, 64
5, 250380, Note_off_c, 9, 42, 64
5, 250465, Note_off_c, 9, 36, 64
5, 250560, Note_on_c, 9, 36, 84
5, 250560, Note_on_c, 9, 42, 72
5, 250585, Note_off_c, 9, 54, 64
5, 250645, Note_off_c, 9, 42, 64
5, 250750, Note_off_c, 9, 51, 64
5, 250800, Note_on_c, 9, 42, 52
5, 250810, Note_on_c, 9, 54, 49
5, 250820, Note_on_c, 9, 48, 93
5, 250820, Note_on_c, 9, 45, 86
5, 250855, Note_off_c, 9, 40, 64
5, 250860, Note_off_c, 9, 42, 64
5, 250875, Note_off_c, 9, 54, 64
5, 250895, Note_off_c, 9, 48, 64
5, 250900, Note_off_c, 9, 45, 64
5, 251035, Note_on_c, 9, 42, 72
5, 251040, Note_on_c, 9, 40, 108
5, 251040, Note_on_c, 9, 51, 48
5, 251050, Note_on_c, 9, 54, 64
5, 251060, Note_on_c, 9, 45, 81
5, 251060, Note_on_c, 9, 48, 91
5, 251125, Note_off_c, 9, 36, 64
5, 251125, Note_off_c, 9, 42, 64
5, 251140, Note_off_c, 9, 48, 64
5, 251145, Note_off_c, 9, 45, 64
5, 251270, Note_on_c, 9, 42, 59
5, 251280, Note_on_c, 9, 36, 91
5, 251345, Note_off_c, 9, 42, 64
5, 251395, Note_off_c, 9, 36, 64
5, 251515, Note_on_c, 9, 42, 75
5, 251520, Note_on_c, 9, 36, 86
5, 251520, Note_on_c, 9, 49, 87
5, 251585, Note_off_c, 9, 49, 64
5, 251610, Note_off_c, 9, 42, 64
5, 251665, Note_off_c, 9, 54, 64
5, 251755, Note_on_c, 9, 42, 54
5, 251765, Note_off_c, 9, 51, 64
5, 251820, Note_off_c, 9, 42, 64
5, 251830, Note_off_c, 9, 40, 64
5, 252000, Note_on_c, 9, 40, 103
5, 252000, Note_on_c, 9, 54, 72
5, 252005, Note_on_c, 9, 51, 56
5, 252010, Note_on_c, 9, 42, 72
5, 252080, Note_off_c, 9, 42, 64
5, 252095, Note_off_c, 9, 36, 64
5, 252240, Note_on_c, 9, 36, 76
5, 252250, Note_on_c, 9, 42, 64
5, 252310, Note_off_c, 9, 42, 64
5, 252365, Note_off_c, 9, 36, 64
5, 252480, Note_on_c, 9, 36, 81
5, 252485, Note_on_c, 9, 42, 72
5, 252565, Note_off_c, 9, 42, 64
5, 252685, Note_off_c, 9, 54, 64
5, 252720, Note_on_c, 9, 42, 59
5, 252725, Note_off_c, 9, 51, 64
5, 252765, Note_off_c, 9, 40, 64
5, 252795, Note_off_c, 9, 42, 64
5, 252950, Note_on_c, 9, 51, 52
5, 252955, Note_on_c, 9, 42, 69
5, 252960, Note_on_c, 9, 40, 108
5, 252970, Note_on_c, 9, 54, 72
5, 253030, Note_off_c, 9, 36, 64
5, 253040, Note_off_c, 9, 42, 64
5, 253195, Note_on_c, 9, 42, 54
5, 253200, Note_on_c, 9, 36, 76
5, 253265, Note_off_c, 9, 42, 64
5, 253300, Note_off_c, 9, 36, 64
5, 253430, Note_on_c, 9, 42, 64
5, 253440, Note_on_c, 9, 36, 74
5, 253515, Note_off_c, 9, 42, 64
5, 253640, Note_off_c, 9, 54, 64
5, 253675, Note_on_c, 9, 42, 50
5, 253720, Note_off_c, 9, 51, 64
5, 253720, Note_off_c, 9, 40, 64
5, 253735, Note_off_c, 9, 42, 64
5, 253920, Note_on_c, 9, 40, 108
5, 253920, Note_on_c, 9, 42, 75
5, 253930, Note_on_c, 9, 51, 56
5, 253940, Note_on_c, 9, 54, 62
5, 254005, Note_off_c, 9, 42, 64
5, 254030, Note_off_c, 9, 36, 64
5, 254145, Note_on_c, 9, 48, 79
5, 254150, Note_on_c, 9, 45, 56
5, 254160, Note_on_c, 9, 36, 84
5, 254160, Note_on_c, 9, 42, 62
5, 254215, Note_off_c, 9, 45, 64
5, 254225, Note_off_c, 9, 48, 64
5, 254240, Note_off_c, 9, 42, 64
5, 254260, Note_off_c, 9, 36, 64
5, 254390, Note_on_c, 9, 48, 73
5, 254395, Note_on_c, 9, 45, 58
5, 254400, Note_on_c, 9, 36, 78
5, 254400, Note_on_c, 9, 42, 75
5, 254455, Note_off_c, 9, 45, 64
5, 254460, Note_off_c, 9, 48, 64
5, 254485, Note_off_c, 9, 42, 64
5, 254630, Note_off_c, 9, 51, 64
5, 254630, Note_off_c, 9, 54, 64
5, 254635, Note_on_c, 9, 48, 65
5, 254645, Note_on_c, 9, 42, 59
5, 254650, Note_on_c, 9, 45, 27
5, 254685, Note_off_c, 9, 48, 64
5, 254690, Note_off_c, 9, 45, 64
5, 254705, Note_off_c, 9, 40, 64
5, 254710, Note_off_c, 9, 42, 64
5, 254880, Note_on_c, 9, 40, 106
5, 254885, Note_on_c, 9, 42, 72
5, 254885, Note_on_c, 9, 45, 71
5, 254890, Note_on_c, 9, 51, 52
5, 254890, Note_on_c, 9, 48, 71
5, 254900, Note_on_c, 9, 54, 62
5, 254945, Note_off_c, 9, 48, 64
5, 254950, Note_off_c, 9, 36, 64
5, 254960, Note_off_c, 9, 45, 64
5, 254965, Note_off_c, 9, 42, 64
5, 255120, Note_on_c, 9, 36, 74
5, 255125, Note_on_c, 9, 42, 59
5, 255125, Note_on_c, 9, 45, 61
5, 255130, Note_on_c, 9, 48, 58
5, 255185, Note_off_c, 9, 48, 64
5, 255190, Note_off_c, 9, 45, 64
5, 255195, Note_off_c, 9, 42, 64
5, 255240, Note_off_c, 9, 36, 64
5, 255355, Note_on_c, 9, 49, 87
5, 255360, Note_on_c, 9, 36, 88
5, 255360, Note_on_c, 9, 42, 92
5, 255410, Note_off_c, 9, 49, 64
5, 255420, Note_off_c, 9, 42, 64
5, 255460, Note_off_c, 9, 40, 64
5, 255495, Note_off_c, 9, 54, 64
5, 255535, Note_off_c, 9, 51, 64
5, 255590, Note_on_c, 9, 42, 54
5, 255635, Note_off_c, 9, 42, 64
5, 255825, Note_on_c, 9, 42, 72
5, 255840, Note_on_c, 9, 40, 103
5, 255840, Note_on_c, 9, 54, 72
5, 255850, Note_on_c, 9, 51, 45
5, 255905, Note_off_c, 9, 42, 64
5, 255930, Note_off_c, 9, 36, 64
5, 256060, Note_on_c, 9, 42, 62
5, 256080, Note_on_c, 9, 36, 88
5, 256125, Note_off_c, 9, 42, 64
5, 256175, Note_off_c, 9, 36, 64
5, 256310, Note_on_c, 9, 42, 72
5, 256320, Note_off_c, 9, 51, 64
5, 256320, Note_on_c, 9, 36, 86
5, 256390, Note_off_c, 9, 42, 64
5, 256505, Note_off_c, 9, 54, 64
5, 256550, Note_on_c, 9, 42, 54
5, 256605, Note_off_c, 9, 42, 64
5, 256650, Note_off_c, 9, 40, 64
5, 256785, Note_on_c, 9, 42, 81
5, 256790, Note_on_c, 9, 51, 45
5, 256800, Note_on_c, 9, 40, 101
5, 256815, Note_on_c, 9, 54, 64
5, 256875, Note_off_c, 9, 42, 64
5, 256935, Note_off_c, 9, 36, 64
5, 257030, Note_on_c, 9, 42, 56
5, 257040, Note_on_c, 9, 36, 63
5, 257105, Note_off_c, 9, 42, 64
5, 257160, Note_off_c, 9, 36, 64
5, 257270, Note_on_c, 9, 42, 72
5, 257280, Note_on_c, 9, 36, 76
5, 257360, Note_off_c, 9, 42, 64
5, 257435, Note_off_c, 9, 51, 64
5, 257455, Note_off_c, 9, 54, 64
5, 257510, Note_on_c, 9, 42, 62
5, 257545, Note_off_c, 9, 40, 64
5, 257575, Note_off_c, 9, 42, 64
5, 257745, Note_on_c, 9, 42, 75
5, 257750, Note_on_c, 9, 51, 54
5, 257760, Note_on_c, 9, 40, 108
5, 257770, Note_on_c, 9, 54, 72
5, 257835, Note_off_c, 9, 42, 64
5, 257885, Note_off_c, 9, 36, 64
5, 257990, Note_on_c, 9, 42, 59
5, 258000, Note_on_c, 9, 36, 64
5, 258060, Note_off_c, 9, 42, 64
5, 258145, Note_off_c, 9, 36, 64
5, 258240, Note_on_c, 9, 36, 84
5, 258240, Note_on_c, 9, 42, 72
5, 258325, Note_off_c, 9, 42, 64
5, 258430, Note_off_c, 9, 51, 64
5, 258465, Note_off_c, 9, 54, 64
5, 258480, Note_on_c, 9, 42, 52
5, 258535, Note_off_c, 9, 40, 64
5, 258540, Note_off_c, 9, 42, 64
5, 258715, Note_on_c, 9, 42, 72
5, 258720, Note_on_c, 9, 40, 108
5, 258720, Note_on_c, 9, 51, 48
5, 258720, Note_on_c, 9, 54, 72
5, 258805, Note_off_c, 9, 36, 64
5, 258805, Note_off_c, 9, 42, 64
5, 258950, Note_on_c, 9, 42, 59
5, 258960, Note_on_c, 9, 36, 91
5, 259025, Note_off_c, 9, 42, 64
5, 259075, Note_off_c, 9, 36, 64
5, 259195, Note_on_c, 9, 42, 75
5, 259200, Note_on_c, 9, 36, 86
5, 259290, Note_off_c, 9, 42, 64
5, 259400, Note_off_c, 9, 54, 64
5, 259435, Note_on_c, 9, 42, 54
5, 259445, Note_off_c, 9, 51, 64
5, 259500, Note_off_c, 9, 42, 64
5, 259510, Note_off_c, 9, 40, 64
5, 259680, Note_on_c, 9, 40, 103
5, 259685, Note_on_c, 9, 51, 56
5, 259685, Note_on_c, 9, 54, 64
5, 259690, Note_on_c, 9, 42, 72
5, 259760, Note_off_c, 9, 42, 64
5, 259775, Note_off_c, 9, 36, 64
5, 259920, Note_on_c, 9, 36, 76
5, 259930, Note_on_c, 9, 42, 64
5, 259990, Note_off_c, 9, 42, 64
5, 260045, Note_off_c, 9, 36, 64
5, 260160, Note_on_c, 9, 36, 81
5, 260165, Note_on_c, 9, 42, 72
5, 260245, Note_off_c, 9, 42, 64
5, 260340, Note_off_c, 9, 54, 64
5, 260400, Note_on_c, 9, 42, 59
5, 260405, Note_off_c, 9, 51, 64
5, 260445, Note_off_c, 9, 40, 64
5, 260475, Note_off_c, 9, 42, 64
5, 260630, Note_on_c, 9, 51, 52
5, 260635, Note_on_c, 9, 42, 69
5, 260640, Note_on_c, 9, 40, 108
5, 260645, Note_on_c, 9, 54, 62
5, 260710, Note_off_c, 9, 36, 64
5, 260720, Note_off_c, 9, 42, 64
5, 260875, Note_on_c, 9, 42, 54
5, 260880, Note_on_c, 9, 36, 76
5, 260945, Note_off_c, 9, 42, 64
5, 260950, Control_c, 9, 11, 125
5, 260980, Note_off_c, 9, 36, 64
5, 261010, Control_c, 9, 11, 124
5, 261110, Note_on_c, 9, 42, 64
5, 261120, Note_on_c, 9, 36, 74
5, 261195, Note_off_c, 9, 42, 64
5, 261290, Note_off_c, 9, 54, 64
5, 261330, Control_c, 9, 11, 123
5, 261355, Note_on_c, 9, 42, 50
5, 261365, Control_c, 9, 11, 122
5, 261395, Control_c, 9, 11, 121
5, 261400, Note_off_c, 9, 51, 64
5, 261400, Note_off_c, 9, 40, 64
5, 261415, Note_off_c, 9, 42, 64
5, 261580, Control_c, 9, 11, 119
5, 261600, Note_on_c, 9, 40, 108
5, 261600, Note_on_c, 9, 42, 75
5, 261610, Note_on_c, 9, 51, 56
5, 261615, Note_on_c, 9, 54, 75
5, 261630, Control_c, 9, 11, 117
5, 261685, Note_off_c, 9, 42, 64
5, 261710, Note_off_c, 9, 36, 64
5, 261840, Note_on_c, 9, 36, 84
5, 261840, Note_on_c, 9, 42, 62
5, 261920, Note_off_c, 9, 42, 64
5, 261940, Note_off_c, 9, 36, 64
5, 262080, Note_on_c, 9, 36, 78
5, 262080, Note_on_c, 9, 42, 75
5, 262115, Control_c, 9, 11, 115
5, 262145, Control_c, 9, 11, 114
5, 262165, Note_off_c, 9, 42, 64
5, 262175, Control_c, 9, 11, 113
5, 262250, Note_off_c, 9, 54, 64
5, 262310, Note_off_c, 9, 51, 64
5, 262325, Note_on_c, 9, 42, 59
5, 262325, Note_on_c, 9, 48, 83
5, 262330, Note_on_c, 9, 45, 67
5, 262385, Note_off_c, 9, 40, 64
5, 262390, Note_off_c, 9, 42, 64
5, 262405, Note_off_c, 9, 48, 64
5, 262410, Note_off_c, 9, 45, 64
5, 262560, Note_on_c, 9, 40, 106
5, 262560, Note_on_c, 9, 48, 71
5, 262565, Note_on_c, 9, 42, 72
5, 262565, Note_on_c, 9, 45, 61
5, 262570, Note_on_c, 9, 51, 52
5, 262570, Note_on_c, 9, 54, 53
5, 262630, Note_off_c, 9, 36, 64
5, 262635, Note_off_c, 9, 45, 64
5, 262640, Note_off_c, 9, 48, 64
5, 262645, Note_off_c, 9, 42, 64
5, 262800, Note_on_c, 9, 36, 74
5, 262805, Note_on_c, 9, 42, 59
5, 262875, Note_off_c, 9, 42, 64
5, 262920, Note_off_c, 9, 36, 64
5, 262940, Control_c, 9, 11, 112
5, 263040, Note_on_c, 9, 36, 88
5, 263040, Note_on_c, 9, 42, 92
5, 263045, Note_on_c, 9, 49, 76
5, 263090, Note_off_c, 9, 49, 64
5, 263100, Note_off_c, 9, 42, 64
5, 263140, Note_off_c, 9, 40, 64
5, 263180, Note_off_c, 9, 54, 64
5, 263205, Control_c, 9, 11, 111
5, 263215, Note_off_c, 9, 51, 64
5, 263270, Note_on_c, 9, 42, 54
5, 263270, Control_c, 9, 11, 109
5, 263315, Note_off_c, 9, 42, 64
5, 263505, Note_on_c, 9, 42, 72
5, 263520, Note_on_c, 9, 40, 103
5, 263530, Note_on_c, 9, 51, 45
5, 263530, Note_on_c, 9, 54, 68
5, 263585, Note_off_c, 9, 42, 64
5, 263610, Note_off_c, 9, 36, 64
5, 263740, Note_on_c, 9, 42, 62
5, 263760, Note_on_c, 9, 36, 88
5, 263780, Control_c, 9, 11, 108
5, 263805, Note_off_c, 9, 42, 64
5, 263845, Control_c, 9, 11, 107
5, 263855, Note_off_c, 9, 36, 64
5, 263990, Note_on_c, 9, 42, 72
5, 264000, Note_off_c, 9, 51, 64
5, 264000, Note_on_c, 9, 36, 86
5, 264070, Note_off_c, 9, 42, 64
5, 264100, Control_c, 9, 11, 106
5, 264125, Note_off_c, 9, 54, 64
5, 264125, Control_c, 9, 11, 105
5, 264160, Control_c, 9, 11, 104
5, 264230, Note_on_c, 9, 42, 54
5, 264285, Note_off_c, 9, 42, 64
5, 264330, Note_off_c, 9, 40, 64
5, 264465, Note_on_c, 9, 42, 81
5, 264470, Note_on_c, 9, 51, 45
5, 264480, Note_on_c, 9, 40, 101
5, 264490, Note_on_c, 9, 54, 75
5, 264555, Note_off_c, 9, 42, 64
5, 264615, Note_off_c, 9, 36, 64
5, 264670, Control_c, 9, 11, 103
5, 264710, Note_on_c, 9, 42, 56
5, 264720, Note_on_c, 9, 36, 63
5, 264785, Note_off_c, 9, 42, 64
5, 264840, Note_off_c, 9, 36, 64
5, 264865, Control_c, 9, 11, 102
5, 264925, Control_c, 9, 11, 100
5, 264950, Note_on_c, 9, 42, 72
5, 264955, Control_c, 9, 11, 99
5, 264960, Note_on_c, 9, 36, 76
5, 265000, Control_c, 9, 11, 97
5, 265040, Note_off_c, 9, 42, 64
5, 265115, Note_off_c, 9, 51, 64
5, 265140, Note_off_c, 9, 54, 64
5, 265190, Note_on_c, 9, 42, 62
5, 265225, Note_off_c, 9, 40, 64
5, 265255, Note_off_c, 9, 42, 64
5, 265425, Note_on_c, 9, 42, 75
5, 265430, Note_on_c, 9, 51, 54
5, 265440, Note_on_c, 9, 40, 108
5, 265445, Note_on_c, 9, 54, 62
5, 265515, Note_off_c, 9, 42, 64
5, 265565, Note_off_c, 9, 36, 64
5, 265640, Control_c, 9, 11, 96
5, 265670, Note_on_c, 9, 42, 59
5, 265680, Note_on_c, 9, 36, 64
5, 265740, Note_off_c, 9, 42, 64
5, 265825, Note_off_c, 9, 36, 64
5, 265835, Control_c, 9, 11, 95
5, 265870, Control_c, 9, 11, 94
5, 265920, Note_on_c, 9, 36, 84
5, 265920, Note_on_c, 9, 42, 72
5, 266005, Note_off_c, 9, 42, 64
5, 266060, Note_off_c, 9, 54, 64
5, 266110, Note_off_c, 9, 51, 64
5, 266160, Note_on_c, 9, 42, 52
5, 266215, Note_off_c, 9, 40, 64
5, 266220, Note_off_c, 9, 42, 64
5, 266255, Control_c, 9, 11, 93
5, 266395, Note_on_c, 9, 42, 72
5, 266400, Note_on_c, 9, 40, 108
5, 266400, Note_on_c, 9, 51, 48
5, 266400, Note_on_c, 9, 54, 64
5, 266420, Control_c, 9, 11, 92
5, 266445, Control_c, 9, 11, 91
5, 266475, Control_c, 9, 11, 90
5, 266485, Note_off_c, 9, 42, 64
5, 266485, Note_off_c, 9, 36, 64
5, 266505, Control_c, 9, 11, 88
5, 266630, Note_on_c, 9, 42, 59
5, 266640, Note_on_c, 9, 36, 91
5, 266705, Note_off_c, 9, 42, 64
5, 266755, Note_off_c, 9, 36, 64
5, 266875, Note_on_c, 9, 42, 75
5, 266880, Note_on_c, 9, 36, 86
5, 266925, Control_c, 9, 11, 87
5, 266965, Control_c, 9, 11, 86
5, 266970, Note_off_c, 9, 42, 64
5, 266995, Control_c, 9, 11, 84
5, 267015, Note_off_c, 9, 54, 64
5, 267030, Control_c, 9, 11, 82
5, 267115, Note_on_c, 9, 42, 54
5, 267125, Note_off_c, 9, 51, 64
5, 267180, Note_off_c, 9, 42, 64
5, 267190, Note_off_c, 9, 40, 64
5, 267360, Note_on_c, 9, 40, 103
5, 267365, Note_on_c, 9, 51, 56
5, 267370, Note_on_c, 9, 42, 72
5, 267370, Note_on_c, 9, 54, 68
5, 267425, Control_c, 9, 11, 81
5, 267440, Note_off_c, 9, 42, 64
5, 267455, Note_off_c, 9, 36, 64
5, 267600, Note_on_c, 9, 36, 76
5, 267610, Note_on_c, 9, 42, 64
5, 267670, Note_off_c, 9, 42, 64
5, 267720, Control_c, 9, 11, 80
5, 267725, Note_off_c, 9, 36, 64
5, 267750, Control_c, 9, 11, 79
5, 267780, Control_c, 9, 11, 78
5, 267840, Note_on_c, 9, 36, 81
5, 267845, Note_on_c, 9, 42, 72
5, 267920, Control_c, 9, 11, 77
5, 267925, Note_off_c, 9, 42, 64
5, 267950, Control_c, 9, 11, 75
5, 267985, Control_c, 9, 11, 73
5, 268000, Note_off_c, 9, 54, 64
5, 268015, Control_c, 9, 11, 72
5, 268080, Note_on_c, 9, 42, 59
5, 268085, Note_off_c, 9, 51, 64
5, 268125, Note_off_c, 9, 40, 64
5, 268155, Note_off_c, 9, 42, 64
5, 268175, Control_c, 9, 11, 71
5, 268235, Control_c, 9, 11, 69
5, 268265, Control_c, 9, 11, 67
5, 268300, Control_c, 9, 11, 66
5, 268310, Note_on_c, 9, 51, 52
5, 268315, Note_on_c, 9, 42, 69
5, 268320, Note_on_c, 9, 40, 108
5, 268320, Note_on_c, 9, 54, 56
5, 268335, Control_c, 9, 11, 64
5, 268390, Note_off_c, 9, 36, 64
5, 268400, Note_off_c, 9, 42, 64
5, 268555, Note_on_c, 9, 42, 54
5, 268560, Note_on_c, 9, 36, 76
5, 268620, Control_c, 9, 11, 63
5, 268625, Note_off_c, 9, 42, 64
5, 268645, Control_c, 9, 11, 61
5, 268660, Note_off_c, 9, 36, 64
5, 268680, Control_c, 9, 11, 60
5, 268710, Control_c, 9, 11, 58
5, 268790, Note_on_c, 9, 42, 64
5, 268800, Note_on_c, 9, 36, 74
5, 268875, Note_off_c, 9, 42, 64
5, 268910, Control_c, 9, 11, 57
5, 268955, Note_off_c, 9, 54, 64
5, 268975, Control_c, 9, 11, 55
5, 269010, Control_c, 9, 11, 54
5, 269035, Note_on_c, 9, 42, 50
5, 269045, Control_c, 9, 11, 53
5, 269080, Note_off_c, 9, 51, 64
5, 269080, Note_off_c, 9, 40, 64
5, 269095, Note_off_c, 9, 42, 64
5, 269275, Note_on_c, 9, 54, 62
5, 269280, Note_on_c, 9, 40, 108
5, 269280, Note_on_c, 9, 42, 75
5, 269290, Note_on_c, 9, 51, 56
5, 269330, Control_c, 9, 11, 52
5, 269355, Control_c, 9, 11, 51
5, 269365, Note_off_c, 9, 42, 64
5, 269385, Control_c, 9, 11, 50
5, 269390, Note_off_c, 9, 36, 64
5, 269450, Control_c, 9, 11, 49
5, 269520, Note_on_c, 9, 36, 84
5, 269520, Note_on_c, 9, 42, 62
5, 269600, Note_off_c, 9, 42, 64
5, 269620, Note_off_c, 9, 36, 64
5, 269640, Control_c, 9, 11, 48
5, 269670, Control_c, 9, 11, 47
5, 269700, Control_c, 9, 11, 46
5, 269760, Note_on_c, 9, 36, 78
5, 269760, Note_on_c, 9, 42, 75
5, 269770, Control_c, 9, 11, 45
5, 269845, Note_off_c, 9, 42, 64
5, 269850, Note_off_c, 9, 54, 64
5, 269990, Note_off_c, 9, 51, 64
5, 270000, Note_on_c, 9, 54, 53
5, 270005, Note_on_c, 9, 42, 59
5, 270010, Note_on_c, 9, 45, 69
5, 270015, Note_on_c, 9, 48, 71
5, 270055, Note_off_c, 9, 48, 64
5, 270060, Note_off_c, 9, 45, 64
5, 270065, Note_off_c, 9, 40, 64
5, 270070, Note_off_c, 9, 54, 64
5, 270070, Note_off_c, 9, 42, 64
5, 270070, Control_c, 9, 11, 42
5, 270105, Control_c, 9, 11, 41
5, 270235, Note_on_c, 9, 45, 79
5, 270235, Note_on_c, 9, 48, 83
5, 270240, Note_on_c, 9, 40, 106
5, 270240, Note_on_c, 9, 54, 53
5, 270245, Note_on_c, 9, 42, 72
5, 270250, Note_on_c, 9, 51, 52
5, 270290, Note_off_c, 9, 45, 64
5, 270290, Control_c, 9, 11, 40
5, 270295, Note_off_c, 9, 48, 64
5, 270310, Note_off_c, 9, 36, 64
5, 270320, Control_c, 9, 11, 39
5, 270325, Note_off_c, 9, 42, 64
5, 270380, Control_c, 9, 11, 37
5, 270480, Note_on_c, 9, 36, 74
5, 270485, Note_on_c, 9, 42, 59
5, 270540, Control_c, 9, 11, 36
5, 270555, Note_off_c, 9, 42, 64
5, 270570, Control_c, 9, 11, 35
5, 270600, Note_off_c, 9, 36, 64
5, 270605, Control_c, 9, 11, 34
5, 270715, Note_on_c, 9, 49, 72
5, 270720, Note_on_c, 9, 36, 88
5, 270720, Note_on_c, 9, 42, 92
5, 270755, Note_off_c, 9, 49, 64
5, 270780, Note_off_c, 9, 42, 64
5, 270815, Control_c, 9, 11, 33
5, 270820, Note_off_c, 9, 40, 64
5, 270845, Control_c, 9, 11, 32
5, 270880, Control_c, 9, 11, 31
5, 270895, Note_off_c, 9, 51, 64
5, 270910, Note_off_c, 9, 54, 64
5, 270950, Note_on_c, 9, 42, 54
5, 270970, Control_c, 9, 11, 30
5, 270995, Note_off_c, 9, 42, 64
5, 271185, Note_on_c, 9, 42, 72
5, 271200, Note_on_c, 9, 40, 103
5, 271210, Note_on_c, 9, 51, 45
5, 271210, Note_on_c, 9, 54, 64
5, 271260, Control_c, 9, 11, 29
5, 271265, Note_off_c, 9, 42, 64
5, 271285, Control_c, 9, 11, 28
5, 271290, Note_off_c, 9, 36, 64
5, 271320, Control_c, 9, 11, 27
5, 271420, Note_on_c, 9, 42, 62
5, 271440, Note_on_c, 9, 36, 88
5, 271485, Note_off_c, 9, 42, 64
5, 271510, Control_c, 9, 11, 26
5, 271535, Note_off_c, 9, 36, 64
5, 271540, Control_c, 9, 11, 25
5, 271570, Control_c, 9, 11, 24
5, 271600, Control_c, 9, 11, 23
5, 271635, Control_c, 9, 11, 22
5, 271670, Note_on_c, 9, 42, 72
5, 271680, Note_off_c, 9, 51, 64
5, 271680, Note_on_c, 9, 36, 86
5, 271705, Control_c, 9, 11, 21
5, 271750, Note_off_c, 9, 42, 64
5, 271795, Control_c, 9, 11, 20
5, 271895, Control_c, 9, 11, 19
5, 271905, Note_off_c, 9, 54, 64
5, 271910, Note_on_c, 9, 42, 54
5, 271960, Control_c, 9, 11, 17
5, 271965, Note_off_c, 9, 42, 64
5, 271990, Control_c, 9, 11, 16
5, 272010, Note_off_c, 9, 40, 64
5, 272020, Control_c, 9, 11, 15
5, 272050, Control_c, 9, 11, 14
5, 272085, Control_c, 9, 11, 13
5, 272145, Note_on_c, 9, 42, 81
5, 272145, Control_c, 9, 11, 12
5, 272150, Note_on_c, 9, 51, 45
5, 272160, Note_on_c, 9, 40, 101
5, 272175, Note_on_c, 9, 54, 59
5, 272235, Note_off_c, 9, 42, 64
5, 272295, Note_off_c, 9, 36, 64
5, 272300, Control_c, 9, 11, 11
5, 272330, Control_c, 9, 11, 10
5, 272360, Control_c, 9, 11, 9
5, 272390, Note_on_c, 9, 42, 56
5, 272400, Note_on_c, 9, 36, 63
5, 272435, Control_c, 9, 11, 8
5, 272465, Note_off_c, 9, 42, 64
5, 272520, Note_off_c, 9, 36, 64
5, 272580, Control_c, 9, 11, 7
5, 272630, Note_on_c, 9, 42, 72
5, 272640, Note_on_c, 9, 36, 76
5, 272645, Control_c, 9, 11, 5
5, 272685, Control_c, 9, 11, 3
5, 272720, Note_off_c, 9, 42, 64
5, 272795, Note_off_c, 9, 51, 64
5, 272850, Note_off_c, 9, 54, 64
5, 272870, Note_on_c, 9, 42, 62
5, 272905, Note_off_c, 9, 40, 64
5, 272935, Note_off_c, 9, 42, 64
5, 272960, Control_c, 9, 11, 2
5, 273105, Note_on_c, 9, 42, 75
5, 273110, Note_on_c, 9, 51, 54
5, 273120, Note_on_c, 9, 40, 108
5, 273130, Note_on_c, 9, 54, 64
5, 273195, Note_off_c, 9, 42, 64
5, 273240, Control_c, 9, 11, 1
5, 273245, Note_off_c, 9, 36, 64
5, 273350, Note_on_c, 9, 42, 59
5, 273360, Note_on_c, 9, 36, 64
5, 273420, Note_off_c, 9, 42, 64
5, 273505, Note_off_c, 9, 36, 64
5, 273600, Note_on_c, 9, 36, 84
5, 273600, Note_on_c, 9, 42, 72
5, 273685, Note_off_c, 9, 42, 64
5, 273790, Note_off_c, 9, 51, 64
5, 273800, Note_off_c, 9, 54, 64
5, 273840, Note_on_c, 9, 42, 52
5, 273880, Control_c, 9, 11, 0
5, 273895, Note_off_c, 9, 40, 64
5, 273900, Note_off_c, 9, 42, 64
5, 274075, Note_on_c, 9, 42, 72
5, 274080, Note_on_c, 9, 40, 108
5, 274080, Note_on_c, 9, 51, 48
5, 274100, Note_on_c, 9, 54, 62
5, 274165, Note_off_c, 9, 36, 64
5, 274165, Note_off_c, 9, 42, 64
5, 274310, Note_on_c, 9, 42, 59
5, 274320, Note_on_c, 9, 36, 91
5, 274385, Note_off_c, 9, 42, 64
5, 274435, Note_off_c, 9, 36, 64
5, 274555, Note_on_c, 9, 42, 75
5, 274650, Note_off_c, 9, 42, 64
5, 274715, Note_off_c, 9, 54, 64
5, 274805, Note_off_c, 9, 51, 64
5, 274870, Note_off_c, 9, 40, 64
5, 275050, Note_on_c, 9, 54, 59
5, 275925, Note_off_c, 9, 54, 64
5, 275925, End_track
6, 0, Start_track
6, 0, Title_t, "Bass"
6, 0, MIDI_port, 0
6, 0, Channel_prefix, 1
6, 0, Control_c, 1, 7, 127
6, 0, Control_c, 1, 10, 64
6, 0, Program_c, 1, 33
6, 0, Control_c, 1, 11, 127
6, 0, Control_c, 1, 91, 0
6, 0, Control_c, 1, 93, 0
6, 1920, Note_on_c, 1, 29, 101
6, 2055, Note_off_c, 1, 29, 64
6, 2175, Note_on_c, 1, 29, 57
6, 2295, Note_off_c, 1, 29, 64
6, 2430, Note_on_c, 1, 29, 84
6, 2580, Note_off_c, 1, 29, 64
6, 2650, Note_on_c, 1, 29, 52
6, 2775, Note_off_c, 1, 29, 64
6, 2880, Note_on_c, 1, 29, 78
6, 3010, Note_off_c, 1, 29, 64
6, 3125, Note_on_c, 1, 29, 67
6, 3265, Note_off_c, 1, 29, 64
6, 3360, Note_on_c, 1, 29, 74
6, 3490, Note_off_c, 1, 29, 64
6, 3600, Note_on_c, 1, 29, 66
6, 3740, Note_off_c, 1, 29, 64
6, 3835, Note_on_c, 1, 29, 76
6, 3975, Note_off_c, 1, 29, 64
6, 4070, Note_on_c, 1, 29, 78
6, 4225, Note_off_c, 1, 29, 64
6, 4305, Note_on_c, 1, 29, 74
6, 4470, Note_off_c, 1, 29, 64
6, 4575, Note_on_c, 1, 29, 52
6, 4710, Note_off_c, 1, 29, 64
6, 4815, Note_on_c, 1, 29, 72
6, 4940, Note_off_c, 1, 29, 64
6, 5055, Note_on_c, 1, 29, 69
6, 5185, Note_off_c, 1, 29, 64
6, 5290, Note_on_c, 1, 36, 104
6, 5500, Note_off_c, 1, 36, 64
6, 5525, Note_on_c, 1, 41, 86
6, 5760, Note_off_c, 1, 41, 64
6, 5780, Note_on_c, 1, 29, 80
6, 5925, Note_off_c, 1, 29, 64
6, 6015, Note_on_c, 1, 29, 51
6, 6175, Note_off_c, 1, 29, 64
6, 6255, Note_on_c, 1, 29, 89
6, 6405, Note_off_c, 1, 29, 64
6, 6495, Note_on_c, 1, 29, 72
6, 6650, Note_off_c, 1, 29, 64
6, 6715, Note_on_c, 1, 29, 66
6, 6860, Note_off_c, 1, 29, 64
6, 6960, Note_on_c, 1, 29, 66
6, 7100, Note_off_c, 1, 29, 64
6, 7195, Note_on_c, 1, 29, 69
6, 7355, Note_off_c, 1, 29, 64
6, 7430, Note_on_c, 1, 29, 66
6, 7575, Note_off_c, 1, 29, 64
6, 7685, Note_on_c, 1, 29, 71
6, 7840, Note_off_c, 1, 29, 64
6, 7925, Note_on_c, 1, 29, 76
6, 8070, Note_off_c, 1, 29, 64
6, 8175, Note_on_c, 1, 29, 69
6, 8310, Note_off_c, 1, 29, 64
6, 8410, Note_on_c, 1, 29, 63
6, 8525, Note_off_c, 1, 29, 64
6, 8635, Note_on_c, 1, 29, 72
6, 8765, Note_off_c, 1, 29, 64
6, 8865, Note_on_c, 1, 29, 78
6, 9020, Note_off_c, 1, 29, 64
6, 9060, Pitch_bend_c, 1, 7969
6, 9075, Pitch_bend_c, 1, 5469
6, 9085, Pitch_bend_c, 1, 2469
6, 9095, Pitch_bend_c, 1, 0
6, 9110, Note_on_c, 1, 36, 99
6, 9185, Pitch_bend_c, 1, 161
6, 9195, Pitch_bend_c, 1, 1608
6, 9205, Pitch_bend_c, 1, 3465
6, 9215, Pitch_bend_c, 1, 5733
6, 9225, Pitch_bend_c, 1, 7751
6, 9235, Pitch_bend_c, 1, 8192
6, 9385, Control_c, 1, 1, 76
6, 9600, Control_c, 1, 1, 0
6, 9605, Note_on_c, 1, 29, 82
6, 9610, Note_off_c, 1, 36, 64
6, 9735, Note_off_c, 1, 29, 64
6, 9845, Note_on_c, 1, 29, 55
6, 9970, Note_off_c, 1, 29, 64
6, 10080, Note_on_c, 1, 29, 74
6, 10210, Note_off_c, 1, 29, 64
6, 10310, Note_on_c, 1, 29, 56
6, 10445, Note_off_c, 1, 29, 64
6, 10555, Note_on_c, 1, 29, 76
6, 10710, Note_off_c, 1, 29, 64
6, 10805, Note_on_c, 1, 29, 67
6, 10940, Note_off_c, 1, 29, 64
6, 11045, Note_on_c, 1, 29, 80
6, 11195, Note_off_c, 1, 29, 64
6, 11285, Note_on_c, 1, 29, 78
6, 11420, Note_off_c, 1, 29, 64
6, 11515, Note_on_c, 1, 29, 76
6, 11665, Note_off_c, 1, 29, 64
6, 11770, Note_on_c, 1, 29, 57
6, 11890, Note_off_c, 1, 29, 64
6, 11995, Note_on_c, 1, 29, 82
6, 12140, Note_off_c, 1, 29, 64
6, 12240, Note_on_c, 1, 29, 71
6, 12360, Note_off_c, 1, 29, 64
6, 12475, Note_on_c, 1, 29, 82
6, 12590, Note_off_c, 1, 29, 64
6, 12715, Note_on_c, 1, 29, 84
6, 12865, Note_off_c, 1, 29, 64
6, 12905, Pitch_bend_c, 1, 7916
6, 12915, Pitch_bend_c, 1, 6041
6, 12925, Pitch_bend_c, 1, 3326
6, 12935, Pitch_bend_c, 1, 541
6, 12945, Pitch_bend_c, 1, 0
6, 12955, Note_on_c, 1, 36, 104
6, 13035, Pitch_bend_c, 1, 679
6, 13045, Pitch_bend_c, 1, 1929
6, 13055, Pitch_bend_c, 1, 3393
6, 13065, Pitch_bend_c, 1, 5036
6, 13075, Pitch_bend_c, 1, 6608
6, 13090, Pitch_bend_c, 1, 8001
6, 13100, Pitch_bend_c, 1, 8192
6, 13170, Note_off_c, 1, 36, 64
6, 13215, Note_on_c, 1, 41, 99
6, 13430, Note_off_c, 1, 41, 64
6, 13450, Note_on_c, 1, 29, 56
6, 13575, Note_off_c, 1, 29, 64
6, 13680, Note_on_c, 1, 29, 60
6, 13835, Note_off_c, 1, 29, 64
6, 13860, Control_c, 1, 11, 125
6, 13940, Note_on_c, 1, 29, 78
6, 14080, Note_off_c, 1, 29, 64
6, 14175, Note_on_c, 1, 29, 71
6, 14220, Control_c, 1, 11, 124
6, 14250, Control_c, 1, 11, 123
6, 14310, Note_off_c, 1, 29, 64
6, 14395, Note_on_c, 1, 29, 80
6, 14540, Note_off_c, 1, 29, 64
6, 14635, Note_on_c, 1, 29, 69
6, 14770, Note_off_c, 1, 29, 64
6, 14880, Note_on_c, 1, 29, 80
6, 15020, Note_off_c, 1, 29, 64
6, 15120, Note_on_c, 1, 29, 69
6, 15260, Note_off_c, 1, 29, 64
6, 15360, Note_on_c, 1, 29, 80
6, 15500, Note_off_c, 1, 29, 64
6, 15600, Note_on_c, 1, 29, 72
6, 15735, Note_off_c, 1, 29, 64
6, 15840, Note_on_c, 1, 29, 82
6, 15985, Note_off_c, 1, 29, 64
6, 16085, Note_on_c, 1, 29, 78
6, 16230, Note_off_c, 1, 29, 64
6, 16320, Note_on_c, 1, 29, 76
6, 16455, Note_off_c, 1, 29, 64
6, 16560, Note_on_c, 1, 29, 86
6, 16705, Note_off_c, 1, 29, 64
6, 16815, Note_on_c, 1, 36, 104
6, 16995, Note_off_c, 1, 36, 64
6, 17010, Note_on_c, 1, 29, 78
6, 17110, Note_off_c, 1, 29, 64
6, 17280, Note_on_c, 1, 29, 94
6, 17415, Note_off_c, 1, 29, 64
6, 17525, Note_on_c, 1, 29, 66
6, 17650, Note_off_c, 1, 29, 64
6, 17765, Note_on_c, 1, 29, 84
6, 17900, Note_off_c, 1, 29, 64
6, 18000, Note_on_c, 1, 29, 67
6, 18130, Note_off_c, 1, 29, 64
6, 18240, Note_on_c, 1, 29, 74
6, 18385, Note_off_c, 1, 29, 64
6, 18485, Note_on_c, 1, 29, 67
6, 18610, Note_off_c, 1, 29, 64
6, 18715, Note_on_c, 1, 29, 76
6, 18850, Note_off_c, 1, 29, 64
6, 18955, Note_on_c, 1, 29, 80
6, 19090, Note_off_c, 1, 29, 64
6, 19195, Note_on_c, 1, 29, 80
6, 19340, Note_off_c, 1, 29, 64
6, 19440, Note_on_c, 1, 29, 67
6, 19580, Note_off_c, 1, 29, 64
6, 19680, Note_on_c, 1, 29, 76
6, 19810, Note_off_c, 1, 29, 64
6, 19920, Note_on_c, 1, 29, 86
6, 20045, Note_off_c, 1, 29, 64
6, 20160, Note_on_c, 1, 29, 94
6, 20280, Note_off_c, 1, 29, 64
6, 20400, Note_on_c, 1, 29, 94
6, 20540, Note_off_c, 1, 29, 64
6, 20585, Pitch_bend_c, 1, 8148
6, 20595, Pitch_bend_c, 1, 6541
6, 20605, Pitch_bend_c, 1, 3916
6, 20615, Pitch_bend_c, 1, 1041
6, 20630, Pitch_bend_c, 1, 0
6, 20645, Note_on_c, 1, 36, 101
6, 20695, Pitch_bend_c, 1, 286
6, 20710, Pitch_bend_c, 1, 1536
6, 20720, Pitch_bend_c, 1, 3001
6, 20730, Pitch_bend_c, 1, 4590
6, 20740, Pitch_bend_c, 1, 6304
6, 20750, Pitch_bend_c, 1, 7965
6, 20755, Control_c, 1, 11, 121
6, 20760, Pitch_bend_c, 1, 8192
6, 20785, Control_c, 1, 11, 120
6, 20830, Note_off_c, 1, 36, 64
6, 20875, Note_on_c, 1, 41, 104
6, 20990, Note_off_c, 1, 41, 64
6, 21035, Control_c, 1, 11, 119
6, 21115, Note_on_c, 1, 29, 96
6, 21185, Control_c, 1, 11, 118
6, 21255, Note_off_c, 1, 29, 64
6, 21360, Note_on_c, 1, 29, 63
6, 21485, Note_off_c, 1, 29, 64
6, 21600, Note_on_c, 1, 29, 72
6, 21755, Note_off_c, 1, 29, 64
6, 21845, Note_on_c, 1, 29, 67
6, 21980, Note_off_c, 1, 29, 64
6, 22075, Note_on_c, 1, 29, 76
6, 22210, Note_off_c, 1, 29, 64
6, 22315, Note_on_c, 1, 29, 69
6, 22440, Note_off_c, 1, 29, 64
6, 22545, Note_on_c, 1, 29, 89
6, 22690, Note_off_c, 1, 29, 64
6, 22800, Note_on_c, 1, 29, 76
6, 22930, Note_off_c, 1, 29, 64
6, 23030, Note_on_c, 1, 29, 76
6, 23170, Note_off_c, 1, 29, 64
6, 23265, Note_on_c, 1, 29, 67
6, 23405, Note_off_c, 1, 29, 64
6, 23505, Note_on_c, 1, 29, 80
6, 23650, Note_off_c, 1, 29, 64
6, 23745, Note_on_c, 1, 29, 78
6, 23885, Note_off_c, 1, 29, 64
6, 23990, Note_on_c, 1, 29, 92
6, 24120, Note_off_c, 1, 29, 64
6, 24230, Note_on_c, 1, 29, 94
6, 24365, Note_off_c, 1, 29, 64
6, 24490, Note_on_c, 1, 36, 101
6, 24505, Pitch_bend_c, 1, 8077
6, 24515, Pitch_bend_c, 1, 7344
6, 24525, Pitch_bend_c, 1, 6563
6, 24540, Pitch_bend_c, 1, 6023
6, 24550, Pitch_bend_c, 1, 5898
6, 24560, Pitch_bend_c, 1, 5911
6, 24570, Pitch_bend_c, 1, 6318
6, 24575, Control_c, 1, 1, 76
6, 24580, Pitch_bend_c, 1, 7036
6, 24590, Pitch_bend_c, 1, 7710
6, 24605, Pitch_bend_c, 1, 8090
6, 24615, Pitch_bend_c, 1, 8099
6, 24730, Pitch_bend_c, 1, 8108
6, 24855, Pitch_bend_c, 1, 8067
6, 24865, Pitch_bend_c, 1, 8192
6, 24890, Control_c, 1, 1, 0
6, 24940, Note_off_c, 1, 36, 64
6, 24955, Note_on_c, 1, 29, 96
6, 25070, Note_off_c, 1, 29, 64
6, 25185, Note_on_c, 1, 29, 72
6, 25320, Note_off_c, 1, 29, 64
6, 25430, Note_on_c, 1, 29, 80
6, 25550, Control_c, 1, 11, 117
6, 25560, Note_off_c, 1, 29, 64
6, 25675, Note_on_c, 1, 29, 67
6, 25795, Note_off_c, 1, 29, 64
6, 25900, Note_on_c, 1, 29, 67
6, 26035, Note_off_c, 1, 29, 64
6, 26150, Note_on_c, 1, 29, 59
6, 26280, Note_off_c, 1, 29, 64
6, 26395, Note_on_c, 1, 29, 80
6, 26550, Note_off_c, 1, 29, 64
6, 26635, Note_on_c, 1, 29, 66
6, 26760, Note_off_c, 1, 29, 64
6, 26865, Note_on_c, 1, 29, 82
6, 27005, Note_off_c, 1, 29, 64
6, 27110, Note_on_c, 1, 29, 67
6, 27240, Note_off_c, 1, 29, 64
6, 27350, Note_on_c, 1, 29, 82
6, 27490, Note_off_c, 1, 29, 64
6, 27600, Note_on_c, 1, 29, 76
6, 27725, Note_off_c, 1, 29, 64
6, 27840, Note_on_c, 1, 29, 92
6, 27965, Note_off_c, 1, 29, 64
6, 28085, Note_on_c, 1, 29, 86
6, 28220, Note_off_c, 1, 29, 64
6, 28270, Pitch_bend_c, 1, 6898
6, 28285, Pitch_bend_c, 1, 4541
6, 28295, Pitch_bend_c, 1, 1755
6, 28305, Pitch_bend_c, 1, 0
6, 28325, Note_on_c, 1, 36, 104
6, 28400, Pitch_bend_c, 1, 733
6, 28415, Pitch_bend_c, 1, 2179
6, 28425, Pitch_bend_c, 1, 3893
6, 28435, Pitch_bend_c, 1, 5644
6, 28445, Pitch_bend_c, 1, 7322
6, 28455, Pitch_bend_c, 1, 8192
6, 28495, Note_off_c, 1, 36, 64
6, 28550, Note_on_c, 1, 41, 94
6, 28680, Note_off_c, 1, 41, 64
6, 28780, Note_on_c, 1, 29, 76
6, 28920, Note_off_c, 1, 29, 64
6, 29025, Note_on_c, 1, 29, 62
6, 29180, Note_off_c, 1, 29, 64
6, 29270, Note_on_c, 1, 29, 82
6, 29425, Note_off_c, 1, 29, 64
6, 29525, Note_on_c, 1, 29, 57
6, 29650, Note_off_c, 1, 29, 64
6, 29750, Note_on_c, 1, 29, 84
6, 29895, Note_off_c, 1, 29, 64
6, 30000, Note_on_c, 1, 29, 69
6, 30130, Note_off_c, 1, 29, 64
6, 30235, Note_on_c, 1, 29, 76
6, 30380, Note_off_c, 1, 29, 64
6, 30470, Note_on_c, 1, 29, 78
6, 30615, Note_off_c, 1, 29, 64
6, 30720, Note_on_c, 1, 29, 84
6, 30855, Note_off_c, 1, 29, 64
6, 30960, Note_on_c, 1, 29, 78
6, 31095, Note_off_c, 1, 29, 64
6, 31205, Note_on_c, 1, 29, 82
6, 31330, Note_off_c, 1, 29, 64
6, 31445, Note_on_c, 1, 29, 82
6, 31570, Note_off_c, 1, 29, 64
6, 31680, Note_on_c, 1, 29, 84
6, 31805, Note_off_c, 1, 29, 64
6, 31920, Note_on_c, 1, 29, 86
6, 32075, Note_off_c, 1, 29, 64
6, 32180, Note_on_c, 1, 36, 104
6, 32325, Note_off_c, 1, 36, 64
6, 32405, Note_on_c, 1, 29, 94
6, 32540, Note_off_c, 1, 29, 64
6, 32635, Note_on_c, 1, 29, 72
6, 32775, Note_off_c, 1, 29, 64
6, 32895, Note_on_c, 1, 29, 66
6, 33025, Note_off_c, 1, 29, 64
6, 33130, Note_on_c, 1, 29, 82
6, 33280, Note_off_c, 1, 29, 64
6, 33355, Note_on_c, 1, 29, 67
6, 33495, Note_off_c, 1, 29, 64
6, 33590, Note_on_c, 1, 29, 80
6, 33725, Note_off_c, 1, 29, 64
6, 33840, Note_on_c, 1, 29, 71
6, 33965, Note_off_c, 1, 29, 64
6, 34070, Note_on_c, 1, 29, 84
6, 34220, Note_off_c, 1, 29, 64
6, 34310, Note_on_c, 1, 29, 74
6, 34435, Note_off_c, 1, 29, 64
6, 34545, Note_on_c, 1, 29, 80
6, 34685, Note_off_c, 1, 29, 64
6, 34790, Note_on_c, 1, 29, 74
6, 34915, Note_off_c, 1, 29, 64
6, 35020, Note_on_c, 1, 29, 69
6, 35160, Note_off_c, 1, 29, 64
6, 35265, Note_on_c, 1, 29, 66
6, 35405, Note_off_c, 1, 29, 64
6, 35505, Note_on_c, 1, 29, 80
6, 35650, Note_off_c, 1, 29, 64
6, 35755, Note_on_c, 1, 29, 80
6, 35870, Note_off_c, 1, 29, 64
6, 35985, Note_on_c, 1, 29, 86
6, 36140, Note_off_c, 1, 29, 64
6, 36230, Note_on_c, 1, 36, 101
6, 36365, Note_off_c, 1, 36, 64
6, 36470, Note_on_c, 1, 29, 84
6, 36620, Note_off_c, 1, 29, 64
6, 36715, Note_on_c, 1, 29, 71
6, 36865, Note_off_c, 1, 29, 64
6, 36965, Note_on_c, 1, 29, 82
6, 37105, Note_off_c, 1, 29, 64
6, 37205, Note_on_c, 1, 29, 71
6, 37340, Note_off_c, 1, 29, 64
6, 37430, Note_on_c, 1, 29, 78
6, 37575, Note_off_c, 1, 29, 64
6, 37670, Note_on_c, 1, 29, 69
6, 37800, Note_off_c, 1, 29, 64
6, 37910, Note_on_c, 1, 29, 78
6, 38045, Note_off_c, 1, 29, 64
6, 38150, Note_on_c, 1, 29, 63
6, 38280, Note_off_c, 1, 29, 64
6, 38385, Note_on_c, 1, 29, 71
6, 38520, Note_off_c, 1, 29, 64
6, 38625, Note_on_c, 1, 29, 71
6, 38755, Note_off_c, 1, 29, 64
6, 38870, Note_on_c, 1, 29, 78
6, 39000, Note_off_c, 1, 29, 64
6, 39115, Note_on_c, 1, 29, 80
6, 39245, Note_off_c, 1, 29, 64
6, 39360, Note_on_c, 1, 29, 89
6, 39480, Note_off_c, 1, 29, 64
6, 39600, Note_on_c, 1, 29, 86
6, 39750, Note_off_c, 1, 29, 64
6, 39800, Pitch_bend_c, 1, 6844
6, 39810, Pitch_bend_c, 1, 4469
6, 39825, Pitch_bend_c, 1, 1720
6, 39835, Pitch_bend_c, 1, 0
6, 39850, Note_on_c, 1, 36, 92
6, 39930, Pitch_bend_c, 1, 1108
6, 39940, Pitch_bend_c, 1, 2572
6, 39955, Pitch_bend_c, 1, 4215
6, 39965, Pitch_bend_c, 1, 5858
6, 39975, Pitch_bend_c, 1, 7420
6, 39985, Pitch_bend_c, 1, 8188
6, 39995, Pitch_bend_c, 1, 8192
6, 40085, Note_off_c, 1, 36, 64
6, 40095, Note_on_c, 1, 41, 96
6, 40220, Note_off_c, 1, 41, 64
6, 40325, Note_on_c, 1, 29, 96
6, 40460, Note_off_c, 1, 29, 64
6, 40560, Note_on_c, 1, 29, 60
6, 40705, Note_off_c, 1, 29, 64
6, 40805, Note_on_c, 1, 29, 80
6, 40950, Note_off_c, 1, 29, 64
6, 41040, Note_on_c, 1, 29, 71
6, 41165, Note_off_c, 1, 29, 64
6, 41265, Note_on_c, 1, 29, 71
6, 41405, Note_off_c, 1, 29, 64
6, 41510, Note_on_c, 1, 29, 74
6, 41645, Note_off_c, 1, 29, 64
6, 41750, Note_on_c, 1, 29, 80
6, 41900, Note_off_c, 1, 29, 64
6, 41995, Note_on_c, 1, 29, 71
6, 42135, Note_off_c, 1, 29, 64
6, 42240, Note_on_c, 1, 29, 80
6, 42385, Note_off_c, 1, 29, 64
6, 42470, Note_on_c, 1, 29, 78
6, 42610, Note_off_c, 1, 29, 64
6, 42710, Note_on_c, 1, 29, 78
6, 42840, Note_off_c, 1, 29, 64
6, 42955, Note_on_c, 1, 29, 69
6, 43075, Note_off_c, 1, 29, 64
6, 43195, Note_on_c, 1, 29, 84
6, 43320, Note_off_c, 1, 29, 64
6, 43440, Note_on_c, 1, 29, 86
6, 43585, Note_off_c, 1, 29, 64
6, 43635, Pitch_bend_c, 1, 7648
6, 43645, Pitch_bend_c, 1, 5720
6, 43655, Pitch_bend_c, 1, 3398
6, 43665, Pitch_bend_c, 1, 1041
6, 43675, Pitch_bend_c, 1, 0
6, 43685, Note_on_c, 1, 36, 104
6, 43755, Pitch_bend_c, 1, 144
6, 43765, Pitch_bend_c, 1, 1519
6, 43775, Pitch_bend_c, 1, 3108
6, 43785, Pitch_bend_c, 1, 4983
6, 43800, Pitch_bend_c, 1, 6787
6, 43810, Pitch_bend_c, 1, 8134
6, 43820, Pitch_bend_c, 1, 8192
6, 43870, Note_off_c, 1, 36, 64
6, 43915, Note_on_c, 1, 41, 94
6, 44040, Note_off_c, 1, 41, 64
6, 44150, Note_on_c, 1, 29, 92
6, 44285, Note_off_c, 1, 29, 64
6, 44385, Note_on_c, 1, 29, 55
6, 44530, Note_off_c, 1, 29, 64
6, 44630, Note_on_c, 1, 29, 71
6, 44775, Note_off_c, 1, 29, 64
6, 44885, Note_on_c, 1, 29, 57
6, 45005, Note_off_c, 1, 29, 64
6, 45120, Note_on_c, 1, 29, 71
6, 45260, Note_off_c, 1, 29, 64
6, 45360, Note_on_c, 1, 29, 69
6, 45495, Note_off_c, 1, 29, 64
6, 45590, Note_on_c, 1, 29, 71
6, 45730, Note_off_c, 1, 29, 64
6, 45845, Note_on_c, 1, 29, 71
6, 45970, Note_off_c, 1, 29, 64
6, 46070, Note_on_c, 1, 29, 76
6, 46210, Note_off_c, 1, 29, 64
6, 46315, Note_on_c, 1, 29, 78
6, 46445, Note_off_c, 1, 29, 64
6, 46545, Note_on_c, 1, 29, 82
6, 46680, Note_off_c, 1, 29, 64
6, 46800, Note_on_c, 1, 29, 78
6, 46935, Note_off_c, 1, 29, 64
6, 47040, Note_on_c, 1, 29, 82
6, 47175, Note_off_c, 1, 29, 64
6, 47280, Note_on_c, 1, 29, 92
6, 47435, Note_off_c, 1, 29, 64
6, 47475, Pitch_bend_c, 1, 7469
6, 47485, Pitch_bend_c, 1, 4826
6, 47495, Pitch_bend_c, 1, 1898
6, 47505, Pitch_bend_c, 1, 0
6, 47520, Note_on_c, 1, 36, 101
6, 47615, Pitch_bend_c, 1, 1108
6, 47625, Pitch_bend_c, 1, 2644
6, 47635, Pitch_bend_c, 1, 4287
6, 47650, Pitch_bend_c, 1, 5893
6, 47660, Pitch_bend_c, 1, 7429
6, 47670, Pitch_bend_c, 1, 8184
6, 47680, Pitch_bend_c, 1, 8192
6, 47780, Control_c, 1, 1, 76
6, 47975, Control_c, 1, 1, 0
6, 47975, Note_on_c, 1, 29, 99
6, 47990, Note_off_c, 1, 36, 64
6, 48110, Note_off_c, 1, 29, 64
6, 48215, Note_on_c, 1, 29, 63
6, 48360, Note_off_c, 1, 29, 64
6, 48470, Note_on_c, 1, 29, 71
6, 48620, Note_off_c, 1, 29, 64
6, 48710, Note_on_c, 1, 29, 66
6, 48855, Note_off_c, 1, 29, 64
6, 48950, Note_on_c, 1, 29, 72
6, 49090, Note_off_c, 1, 29, 64
6, 49190, Note_on_c, 1, 29, 71
6, 49330, Note_off_c, 1, 29, 64
6, 49440, Note_on_c, 1, 29, 76
6, 49580, Note_off_c, 1, 29, 64
6, 49675, Note_on_c, 1, 29, 67
6, 49795, Note_off_c, 1, 29, 64
6, 49905, Note_on_c, 1, 29, 80
6, 50035, Note_off_c, 1, 29, 64
6, 50145, Note_on_c, 1, 29, 74
6, 50280, Note_off_c, 1, 29, 64
6, 50385, Note_on_c, 1, 29, 80
6, 50520, Note_off_c, 1, 29, 64
6, 50625, Note_on_c, 1, 29, 63
6, 50750, Note_off_c, 1, 29, 64
6, 50870, Note_on_c, 1, 29, 71
6, 51005, Note_off_c, 1, 29, 64
6, 51110, Note_on_c, 1, 29, 69
6, 51240, Note_off_c, 1, 29, 64
6, 51345, Note_on_c, 1, 29, 80
6, 51470, Note_off_c, 1, 29, 64
6, 51585, Note_on_c, 1, 29, 69
6, 51710, Note_off_c, 1, 29, 64
6, 51835, Note_on_c, 1, 29, 86
6, 51970, Note_off_c, 1, 29, 64
6, 52080, Note_on_c, 1, 29, 56
6, 52205, Note_off_c, 1, 29, 64
6, 52330, Note_on_c, 1, 29, 69
6, 52465, Note_off_c, 1, 29, 64
6, 52570, Note_on_c, 1, 29, 69
6, 52695, Note_off_c, 1, 29, 64
6, 52810, Note_on_c, 1, 29, 71
6, 52940, Note_off_c, 1, 29, 64
6, 53050, Note_on_c, 1, 29, 80
6, 53175, Note_off_c, 1, 29, 64
6, 53295, Note_on_c, 1, 29, 78
6, 53425, Note_off_c, 1, 29, 64
6, 53530, Note_on_c, 1, 29, 74
6, 53650, Note_off_c, 1, 29, 64
6, 53760, Note_on_c, 1, 29, 82
6, 53885, Note_off_c, 1, 29, 64
6, 53990, Note_on_c, 1, 29, 72
6, 54115, Note_off_c, 1, 29, 64
6, 54235, Note_on_c, 1, 29, 74
6, 54360, Note_off_c, 1, 29, 64
6, 54470, Note_on_c, 1, 29, 80
6, 54590, Note_off_c, 1, 29, 64
6, 54710, Note_on_c, 1, 29, 76
6, 54830, Note_off_c, 1, 29, 64
6, 54950, Note_on_c, 1, 29, 76
6, 55075, Note_off_c, 1, 29, 64
6, 55205, Note_on_c, 1, 29, 94
6, 55400, Note_off_c, 1, 29, 64
6, 55680, Note_on_c, 1, 36, 114
6, 55800, Note_off_c, 1, 36, 64
6, 55915, Note_on_c, 1, 36, 89
6, 55975, Control_c, 1, 11, 115
6, 56010, Control_c, 1, 11, 113
6, 56035, Control_c, 1, 11, 111
6, 56040, Note_off_c, 1, 36, 64
6, 56070, Control_c, 1, 11, 110
6, 56160, Note_on_c, 1, 36, 104
6, 56310, Note_off_c, 1, 36, 64
6, 56405, Note_on_c, 1, 36, 89
6, 56515, Note_off_c, 1, 36, 64
6, 56605, Control_c, 1, 11, 108
6, 56635, Note_on_c, 1, 36, 101
6, 56650, Control_c, 1, 11, 106
6, 56680, Control_c, 1, 11, 104
6, 56780, Note_off_c, 1, 36, 64
6, 56875, Note_on_c, 1, 36, 84
6, 57000, Note_off_c, 1, 36, 64
6, 57115, Note_on_c, 1, 36, 101
6, 57255, Note_off_c, 1, 36, 64
6, 57350, Note_on_c, 1, 36, 86
6, 57460, Note_off_c, 1, 36, 64
6, 57585, Note_on_c, 1, 36, 117
6, 57720, Note_off_c, 1, 36, 64
6, 57830, Note_on_c, 1, 36, 84
6, 57940, Note_off_c, 1, 36, 64
6, 58060, Note_on_c, 1, 36, 106
6, 58200, Note_off_c, 1, 36, 64
6, 58305, Note_on_c, 1, 36, 84
6, 58420, Note_off_c, 1, 36, 64
6, 58555, Note_on_c, 1, 36, 101
6, 58685, Note_off_c, 1, 36, 64
6, 58795, Note_on_c, 1, 36, 84
6, 58915, Note_off_c, 1, 36, 64
6, 59035, Note_on_c, 1, 36, 111
6, 59160, Note_off_c, 1, 36, 64
6, 59275, Note_on_c, 1, 36, 86
6, 59385, Note_off_c, 1, 36, 64
6, 59515, Note_on_c, 1, 36, 114
6, 59580, Control_c, 1, 11, 105
6, 59655, Note_off_c, 1, 36, 64
6, 59760, Note_on_c, 1, 36, 82
6, 59870, Note_off_c, 1, 36, 64
6, 59995, Note_on_c, 1, 36, 106
6, 60130, Note_off_c, 1, 36, 64
6, 60240, Note_on_c, 1, 36, 86
6, 60350, Note_off_c, 1, 36, 64
6, 60475, Note_on_c, 1, 36, 101
6, 60600, Note_off_c, 1, 36, 64
6, 60715, Note_on_c, 1, 36, 94
6, 60825, Note_off_c, 1, 36, 64
6, 60960, Note_on_c, 1, 36, 109
6, 61080, Note_off_c, 1, 36, 64
6, 61195, Note_on_c, 1, 36, 89
6, 61300, Note_off_c, 1, 36, 64
6, 61430, Note_on_c, 1, 36, 109
6, 61570, Note_off_c, 1, 36, 64
6, 61670, Note_on_c, 1, 36, 84
6, 61785, Note_off_c, 1, 36, 64
6, 61920, Note_on_c, 1, 36, 104
6, 62040, Note_off_c, 1, 36, 64
6, 62160, Note_on_c, 1, 36, 96
6, 62270, Note_off_c, 1, 36, 64
6, 62405, Note_on_c, 1, 36, 104
6, 62525, Note_off_c, 1, 36, 64
6, 62645, Note_on_c, 1, 36, 84
6, 62760, Note_off_c, 1, 36, 64
6, 62885, Note_on_c, 1, 36, 104
6, 63015, Note_off_c, 1, 36, 64
6, 63115, Note_on_c, 1, 36, 96
6, 63240, Note_off_c, 1, 36, 64
6, 63370, Note_on_c, 1, 34, 114
6, 63480, Note_off_c, 1, 34, 64
6, 63600, Note_on_c, 1, 34, 85
6, 63710, Note_off_c, 1, 34, 64
6, 63845, Note_on_c, 1, 34, 114
6, 63965, Note_off_c, 1, 34, 64
6, 64075, Note_on_c, 1, 34, 83
6, 64195, Note_off_c, 1, 34, 64
6, 64320, Note_on_c, 1, 34, 106
6, 64445, Note_off_c, 1, 34, 64
6, 64555, Note_on_c, 1, 34, 96
6, 64675, Note_off_c, 1, 34, 64
6, 64800, Note_on_c, 1, 34, 106
6, 64930, Note_off_c, 1, 34, 64
6, 65035, Note_on_c, 1, 34, 85
6, 65160, Note_off_c, 1, 34, 64
6, 65285, Note_on_c, 1, 34, 114
6, 65420, Note_off_c, 1, 34, 64
6, 65525, Note_on_c, 1, 34, 85
6, 65630, Note_off_c, 1, 34, 64
6, 65765, Note_on_c, 1, 34, 110
6, 65895, Note_off_c, 1, 34, 64
6, 66005, Note_on_c, 1, 34, 83
6, 66115, Note_off_c, 1, 34, 64
6, 66245, Note_on_c, 1, 34, 106
6, 66365, Note_off_c, 1, 34, 64
6, 66475, Note_on_c, 1, 34, 85
6, 66600, Note_off_c, 1, 34, 64
6, 66725, Note_on_c, 1, 34, 106
6, 66840, Note_off_c, 1, 34, 64
6, 66955, Note_on_c, 1, 34, 96
6, 67060, Note_off_c, 1, 34, 64
6, 67205, Note_on_c, 1, 34, 114
6, 67335, Note_off_c, 1, 34, 64
6, 67445, Note_on_c, 1, 34, 89
6, 67565, Note_off_c, 1, 34, 64
6, 67685, Note_on_c, 1, 34, 102
6, 67810, Note_off_c, 1, 34, 64
6, 67925, Note_on_c, 1, 34, 102
6, 68035, Note_off_c, 1, 34, 64
6, 68155, Note_on_c, 1, 34, 85
6, 68290, Note_off_c, 1, 34, 64
6, 68400, Note_on_c, 1, 34, 89
6, 68515, Note_off_c, 1, 34, 64
6, 68650, Note_on_c, 1, 34, 110
6, 68785, Note_off_c, 1, 34, 64
6, 68885, Note_on_c, 1, 34, 93
6, 68995, Note_off_c, 1, 34, 64
6, 69125, Note_on_c, 1, 34, 110
6, 69260, Note_off_c, 1, 34, 64
6, 69360, Note_on_c, 1, 34, 89
6, 69470, Note_off_c, 1, 34, 64
6, 69595, Note_on_c, 1, 34, 110
6, 69725, Note_off_c, 1, 34, 64
6, 69835, Note_on_c, 1, 34, 93
6, 69935, Note_off_c, 1, 34, 64
6, 70070, Note_on_c, 1, 34, 114
6, 70200, Note_off_c, 1, 34, 64
6, 70310, Note_on_c, 1, 34, 106
6, 70430, Note_off_c, 1, 34, 64
6, 70550, Note_on_c, 1, 34, 114
6, 70670, Note_off_c, 1, 34, 64
6, 70790, Note_on_c, 1, 34, 102
6, 70930, Note_off_c, 1, 34, 64
6, 71045, Note_on_c, 1, 36, 101
6, 71180, Note_off_c, 1, 36, 64
6, 71280, Note_on_c, 1, 36, 82
6, 71395, Note_off_c, 1, 36, 64
6, 71520, Note_on_c, 1, 36, 99
6, 71650, Note_off_c, 1, 36, 64
6, 71765, Note_on_c, 1, 36, 86
6, 71865, Note_off_c, 1, 36, 64
6, 72000, Note_on_c, 1, 36, 89
6, 72135, Note_off_c, 1, 36, 64
6, 72245, Note_on_c, 1, 36, 89
6, 72360, Note_off_c, 1, 36, 64
6, 72485, Note_on_c, 1, 36, 96
6, 72610, Note_off_c, 1, 36, 64
6, 72720, Note_on_c, 1, 36, 84
6, 72825, Note_off_c, 1, 36, 64
6, 72965, Note_on_c, 1, 36, 101
6, 73095, Note_off_c, 1, 36, 64
6, 73200, Note_on_c, 1, 36, 82
6, 73300, Note_off_c, 1, 36, 64
6, 73435, Note_on_c, 1, 36, 104
6, 73565, Note_off_c, 1, 36, 64
6, 73675, Note_on_c, 1, 36, 86
6, 73780, Note_off_c, 1, 36, 64
6, 73925, Note_on_c, 1, 36, 104
6, 74040, Note_off_c, 1, 36, 64
6, 74160, Note_on_c, 1, 36, 89
6, 74270, Note_off_c, 1, 36, 64
6, 74400, Note_on_c, 1, 36, 99
6, 74510, Note_off_c, 1, 36, 64
6, 74635, Note_on_c, 1, 36, 86
6, 74725, Note_off_c, 1, 36, 64
6, 74890, Note_on_c, 1, 36, 114
6, 75540, Note_off_c, 1, 36, 64
6, 75610, Note_on_c, 1, 34, 123
6, 76220, Control_c, 1, 11, 103
6, 76360, Note_on_c, 1, 33, 117
6, 76395, Note_off_c, 1, 34, 64
6, 76960, Note_off_c, 1, 33, 64
6, 77005, Control_c, 1, 11, 102
6, 77035, Control_c, 1, 11, 101
6, 77050, Note_on_c, 1, 29, 101
6, 77070, Control_c, 1, 11, 100
6, 77185, Note_off_c, 1, 29, 64
6, 77285, Note_on_c, 1, 29, 109
6, 77580, Note_off_c, 1, 29, 64
6, 77755, Note_on_c, 1, 29, 104
6, 78585, Note_off_c, 1, 29, 64
6, 78725, Note_on_c, 1, 34, 117
6, 79085, Note_off_c, 1, 34, 64
6, 79200, Note_on_c, 1, 34, 93
6, 79315, Note_off_c, 1, 34, 64
6, 79435, Note_on_c, 1, 34, 77
6, 79545, Note_off_c, 1, 34, 64
6, 79675, Note_on_c, 1, 34, 100
6, 79800, Note_off_c, 1, 34, 64
6, 79915, Note_on_c, 1, 34, 93
6, 80030, Note_off_c, 1, 34, 64
6, 80165, Note_on_c, 1, 34, 110
6, 80300, Note_off_c, 1, 34, 64
6, 80390, Note_on_c, 1, 34, 85
6, 80525, Note_off_c, 1, 34, 64
6, 80645, Note_on_c, 1, 34, 117
6, 81005, Note_off_c, 1, 34, 64
6, 81120, Note_on_c, 1, 34, 93
6, 81235, Note_off_c, 1, 34, 64
6, 81355, Note_on_c, 1, 34, 77
6, 81465, Note_off_c, 1, 34, 64
6, 81595, Note_on_c, 1, 34, 100
6, 81720, Note_off_c, 1, 34, 64
6, 81835, Note_on_c, 1, 34, 93
6, 81950, Note_off_c, 1, 34, 64
6, 82085, Note_on_c, 1, 34, 110
6, 82220, Note_off_c, 1, 34, 64
6, 82310, Note_on_c, 1, 34, 85
6, 82445, Note_off_c, 1, 34, 64
6, 82570, Note_on_c, 1, 33, 106
6, 82700, Note_off_c, 1, 33, 64
6, 82805, Note_on_c, 1, 33, 86
6, 82925, Note_off_c, 1, 33, 64
6, 83040, Note_on_c, 1, 33, 109
6, 83165, Note_off_c, 1, 33, 64
6, 83270, Note_on_c, 1, 33, 84
6, 83380, Note_off_c, 1, 33, 64
6, 83510, Note_on_c, 1, 33, 106
6, 83630, Note_off_c, 1, 33, 64
6, 83755, Note_on_c, 1, 33, 92
6, 83870, Note_off_c, 1, 33, 64
6, 84000, Note_on_c, 1, 33, 104
6, 84120, Note_off_c, 1, 33, 64
6, 84235, Note_on_c, 1, 33, 94
6, 84370, Note_off_c, 1, 33, 64
6, 84480, Note_on_c, 1, 31, 111
6, 84540, Control_c, 1, 64, 127
6, 84625, Note_off_c, 1, 31, 64
6, 86350, Control_c, 1, 64, 0
6, 86400, Note_on_c, 1, 29, 101
6, 86535, Note_off_c, 1, 29, 64
6, 86655, Note_on_c, 1, 29, 57
6, 86775, Note_off_c, 1, 29, 64
6, 86910, Note_on_c, 1, 29, 84
6, 87060, Note_off_c, 1, 29, 64
6, 87130, Note_on_c, 1, 29, 52
6, 87255, Note_off_c, 1, 29, 64
6, 87360, Note_on_c, 1, 29, 78
6, 87490, Note_off_c, 1, 29, 64
6, 87605, Note_on_c, 1, 29, 67
6, 87740, Control_c, 1, 11, 103
6, 87745, Note_off_c, 1, 29, 64
6, 87770, Control_c, 1, 11, 104
6, 87840, Note_on_c, 1, 29, 74
6, 87970, Note_off_c, 1, 29, 64
6, 88080, Note_on_c, 1, 29, 66
6, 88220, Note_off_c, 1, 29, 64
6, 88315, Note_on_c, 1, 29, 76
6, 88455, Note_off_c, 1, 29, 64
6, 88550, Note_on_c, 1, 29, 78
6, 88600, Control_c, 1, 11, 105
6, 88705, Note_off_c, 1, 29, 64
6, 88765, Control_c, 1, 11, 107
6, 88785, Note_on_c, 1, 29, 74
6, 88800, Control_c, 1, 11, 108
6, 88950, Note_off_c, 1, 29, 64
6, 89055, Note_on_c, 1, 29, 52
6, 89190, Note_off_c, 1, 29, 64
6, 89295, Note_on_c, 1, 29, 72
6, 89420, Note_off_c, 1, 29, 64
6, 89535, Note_on_c, 1, 29, 69
6, 89590, Control_c, 1, 11, 109
6, 89665, Note_off_c, 1, 29, 64
6, 89770, Note_on_c, 1, 36, 104
6, 89980, Note_off_c, 1, 36, 64
6, 90005, Note_on_c, 1, 41, 86
6, 90240, Note_off_c, 1, 41, 64
6, 90260, Note_on_c, 1, 29, 80
6, 90405, Note_off_c, 1, 29, 64
6, 90495, Note_on_c, 1, 29, 51
6, 90655, Note_off_c, 1, 29, 64
6, 90735, Note_on_c, 1, 29, 89
6, 90885, Note_off_c, 1, 29, 64
6, 90975, Note_on_c, 1, 29, 72
6, 91130, Note_off_c, 1, 29, 64
6, 91195, Note_on_c, 1, 29, 66
6, 91340, Note_off_c, 1, 29, 64
6, 91440, Note_on_c, 1, 29, 66
6, 91580, Note_off_c, 1, 29, 64
6, 91675, Note_on_c, 1, 29, 69
6, 91835, Note_off_c, 1, 29, 64
6, 91910, Note_on_c, 1, 29, 66
6, 92055, Note_off_c, 1, 29, 64
6, 92165, Note_on_c, 1, 29, 71
6, 92185, Control_c, 1, 11, 110
6, 92215, Control_c, 1, 11, 111
6, 92320, Note_off_c, 1, 29, 64
6, 92405, Note_on_c, 1, 29, 76
6, 92550, Note_off_c, 1, 29, 64
6, 92655, Note_on_c, 1, 29, 69
6, 92790, Note_off_c, 1, 29, 64
6, 92890, Note_on_c, 1, 29, 63
6, 92910, Control_c, 1, 11, 113
6, 92940, Control_c, 1, 11, 115
6, 93000, Control_c, 1, 11, 116
6, 93005, Note_off_c, 1, 29, 64
6, 93115, Note_on_c, 1, 29, 72
6, 93245, Note_off_c, 1, 29, 64
6, 93345, Note_on_c, 1, 29, 78
6, 93500, Note_off_c, 1, 29, 64
6, 93540, Pitch_bend_c, 1, 7969
6, 93555, Pitch_bend_c, 1, 5469
6, 93565, Pitch_bend_c, 1, 2469
6, 93575, Pitch_bend_c, 1, 0
6, 93590, Note_on_c, 1, 36, 99
6, 93665, Pitch_bend_c, 1, 161
6, 93675, Pitch_bend_c, 1, 1608
6, 93685, Pitch_bend_c, 1, 3465
6, 93695, Pitch_bend_c, 1, 5733
6, 93705, Pitch_bend_c, 1, 7751
6, 93715, Pitch_bend_c, 1, 8192
6, 93865, Control_c, 1, 1, 76
6, 94090, Note_off_c, 1, 36, 64
6, 94305, Note_on_c, 1, 29, 72
6, 94440, Note_off_c, 1, 29, 64
6, 94550, Note_on_c, 1, 29, 80
6, 94680, Note_off_c, 1, 29, 64
6, 94795, Note_on_c, 1, 29, 67
6, 94915, Note_off_c, 1, 29, 64
6, 95020, Note_on_c, 1, 29, 67
6, 95155, Note_off_c, 1, 29, 64
6, 95270, Note_on_c, 1, 29, 59
6, 95400, Note_off_c, 1, 29, 64
6, 95515, Note_on_c, 1, 29, 80
6, 95670, Note_off_c, 1, 29, 64
6, 95755, Note_on_c, 1, 29, 66
6, 95880, Note_off_c, 1, 29, 64
6, 95985, Note_on_c, 1, 29, 82
6, 96125, Note_off_c, 1, 29, 64
6, 96230, Note_on_c, 1, 29, 67
6, 96360, Note_off_c, 1, 29, 64
6, 96470, Note_on_c, 1, 29, 82
6, 96610, Note_off_c, 1, 29, 64
6, 96720, Note_on_c, 1, 29, 76
6, 96845, Note_off_c, 1, 29, 64
6, 96960, Note_on_c, 1, 29, 92
6, 97085, Note_off_c, 1, 29, 64
6, 97205, Note_on_c, 1, 29, 86
6, 97340, Note_off_c, 1, 29, 64
6, 97390, Pitch_bend_c, 1, 6898
6, 97405, Pitch_bend_c, 1, 4541
6, 97415, Pitch_bend_c, 1, 1755
6, 97425, Pitch_bend_c, 1, 0
6, 97445, Note_on_c, 1, 36, 104
6, 97520, Pitch_bend_c, 1, 733
6, 97535, Pitch_bend_c, 1, 2179
6, 97545, Pitch_bend_c, 1, 3893
6, 97555, Pitch_bend_c, 1, 5644
6, 97565, Pitch_bend_c, 1, 7322
6, 97575, Pitch_bend_c, 1, 8192
6, 97615, Note_off_c, 1, 36, 64
6, 97670, Note_on_c, 1, 41, 94
6, 97800, Note_off_c, 1, 41, 64
6, 97900, Note_on_c, 1, 29, 76
6, 98040, Note_off_c, 1, 29, 64
6, 98145, Note_on_c, 1, 29, 62
6, 98300, Note_off_c, 1, 29, 64
6, 98390, Note_on_c, 1, 29, 82
6, 98545, Note_off_c, 1, 29, 64
6, 98645, Note_on_c, 1, 29, 57
6, 98770, Note_off_c, 1, 29, 64
6, 98870, Note_on_c, 1, 29, 84
6, 99015, Note_off_c, 1, 29, 64
6, 99120, Note_on_c, 1, 29, 69
6, 99250, Note_off_c, 1, 29, 64
6, 99355, Note_on_c, 1, 29, 76
6, 99500, Note_off_c, 1, 29, 64
6, 99590, Note_on_c, 1, 29, 78
6, 99735, Note_off_c, 1, 29, 64
6, 99840, Note_on_c, 1, 29, 84
6, 99975, Note_off_c, 1, 29, 64
6, 100080, Note_on_c, 1, 29, 78
6, 100215, Note_off_c, 1, 29, 64
6, 100325, Note_on_c, 1, 29, 82
6, 100450, Note_off_c, 1, 29, 64
6, 100565, Note_on_c, 1, 29, 82
6, 100690, Note_off_c, 1, 29, 64
6, 100800, Note_on_c, 1, 29, 84
6, 100925, Note_off_c, 1, 29, 64
6, 101040, Note_on_c, 1, 29, 86
6, 101195, Note_off_c, 1, 29, 64
6, 101300, Note_on_c, 1, 36, 104
6, 101445, Note_off_c, 1, 36, 64
6, 101525, Note_on_c, 1, 29, 94
6, 101660, Note_off_c, 1, 29, 64
6, 101755, Note_on_c, 1, 29, 72
6, 101895, Note_off_c, 1, 29, 64
6, 102015, Note_on_c, 1, 29, 66
6, 102145, Note_off_c, 1, 29, 64
6, 102250, Note_on_c, 1, 29, 82
6, 102400, Note_off_c, 1, 29, 64
6, 102475, Note_on_c, 1, 29, 67
6, 102615, Note_off_c, 1, 29, 64
6, 102710, Note_on_c, 1, 29, 80
6, 102845, Note_off_c, 1, 29, 64
6, 102960, Note_on_c, 1, 29, 71
6, 103085, Note_off_c, 1, 29, 64
6, 103190, Note_on_c, 1, 29, 84
6, 103340, Note_off_c, 1, 29, 64
6, 103430, Note_on_c, 1, 29, 74
6, 103555, Note_off_c, 1, 29, 64
6, 103665, Note_on_c, 1, 29, 80
6, 103805, Note_off_c, 1, 29, 64
6, 103910, Note_on_c, 1, 29, 74
6, 104035, Note_off_c, 1, 29, 64
6, 104140, Note_on_c, 1, 29, 69
6, 104280, Note_off_c, 1, 29, 64
6, 104385, Note_on_c, 1, 29, 66
6, 104525, Note_off_c, 1, 29, 64
6, 104625, Note_on_c, 1, 29, 80
6, 104770, Note_off_c, 1, 29, 64
6, 104875, Note_on_c, 1, 29, 80
6, 104990, Note_off_c, 1, 29, 64
6, 105105, Note_on_c, 1, 29, 86
6, 105260, Note_off_c, 1, 29, 64
6, 105350, Note_on_c, 1, 36, 101
6, 105485, Note_off_c, 1, 36, 64
6, 105590, Note_on_c, 1, 29, 84
6, 105740, Note_off_c, 1, 29, 64
6, 105835, Note_on_c, 1, 29, 71
6, 105985, Note_off_c, 1, 29, 64
6, 106085, Note_on_c, 1, 29, 82
6, 106225, Note_off_c, 1, 29, 64
6, 106325, Note_on_c, 1, 29, 71
6, 106460, Note_off_c, 1, 29, 64
6, 106550, Note_on_c, 1, 29, 78
6, 106695, Note_off_c, 1, 29, 64
6, 106790, Note_on_c, 1, 29, 69
6, 106920, Note_off_c, 1, 29, 64
6, 107030, Note_on_c, 1, 29, 78
6, 107165, Note_off_c, 1, 29, 64
6, 107270, Note_on_c, 1, 29, 63
6, 107400, Note_off_c, 1, 29, 64
6, 107505, Note_on_c, 1, 29, 71
6, 107640, Note_off_c, 1, 29, 64
6, 107745, Note_on_c, 1, 29, 71
6, 107875, Note_off_c, 1, 29, 64
6, 107990, Note_on_c, 1, 29, 78
6, 108120, Note_off_c, 1, 29, 64
6, 108235, Note_on_c, 1, 29, 80
6, 108365, Note_off_c, 1, 29, 64
6, 108480, Note_on_c, 1, 29, 89
6, 108600, Note_off_c, 1, 29, 64
6, 108720, Note_on_c, 1, 29, 86
6, 108870, Note_off_c, 1, 29, 64
6, 108920, Pitch_bend_c, 1, 6844
6, 108930, Pitch_bend_c, 1, 4469
6, 108945, Pitch_bend_c, 1, 1720
6, 108955, Pitch_bend_c, 1, 0
6, 108970, Note_on_c, 1, 36, 92
6, 109050, Pitch_bend_c, 1, 1108
6, 109060, Pitch_bend_c, 1, 2572
6, 109075, Pitch_bend_c, 1, 4215
6, 109085, Pitch_bend_c, 1, 5858
6, 109095, Pitch_bend_c, 1, 7420
6, 109105, Pitch_bend_c, 1, 8188
6, 109115, Pitch_bend_c, 1, 8192
6, 109205, Note_off_c, 1, 36, 64
6, 109215, Note_on_c, 1, 41, 96
6, 109340, Note_off_c, 1, 41, 64
6, 109445, Note_on_c, 1, 29, 96
6, 109580, Note_off_c, 1, 29, 64
6, 109680, Note_on_c, 1, 29, 60
6, 109825, Note_off_c, 1, 29, 64
6, 109925, Note_on_c, 1, 29, 80
6, 110070, Note_off_c, 1, 29, 64
6, 110160, Note_on_c, 1, 29, 71
6, 110285, Note_off_c, 1, 29, 64
6, 110385, Note_on_c, 1, 29, 71
6, 110525, Note_off_c, 1, 29, 64
6, 110630, Note_on_c, 1, 29, 74
6, 110765, Note_off_c, 1, 29, 64
6, 110870, Note_on_c, 1, 29, 80
6, 111020, Note_off_c, 1, 29, 64
6, 111115, Note_on_c, 1, 29, 71
6, 111255, Note_off_c, 1, 29, 64
6, 111360, Note_on_c, 1, 29, 80
6, 111505, Note_off_c, 1, 29, 64
6, 111590, Note_on_c, 1, 29, 78
6, 111730, Note_off_c, 1, 29, 64
6, 111830, Note_on_c, 1, 29, 78
6, 111960, Note_off_c, 1, 29, 64
6, 112075, Note_on_c, 1, 29, 69
6, 112195, Note_off_c, 1, 29, 64
6, 112315, Note_on_c, 1, 29, 84
6, 112440, Note_off_c, 1, 29, 64
6, 112560, Note_on_c, 1, 29, 86
6, 112705, Note_off_c, 1, 29, 64
6, 112755, Pitch_bend_c, 1, 7648
6, 112765, Pitch_bend_c, 1, 5720
6, 112775, Pitch_bend_c, 1, 3398
6, 112785, Pitch_bend_c, 1, 1041
6, 112795, Pitch_bend_c, 1, 0
6, 112805, Note_on_c, 1, 36, 104
6, 112875, Pitch_bend_c, 1, 144
6, 112885, Pitch_bend_c, 1, 1519
6, 112895, Pitch_bend_c, 1, 3108
6, 112905, Pitch_bend_c, 1, 4983
6, 112920, Pitch_bend_c, 1, 6787
6, 112930, Pitch_bend_c, 1, 8134
6, 112940, Pitch_bend_c, 1, 8192
6, 112990, Note_off_c, 1, 36, 64
6, 113035, Note_on_c, 1, 41, 94
6, 113160, Note_off_c, 1, 41, 64
6, 113270, Note_on_c, 1, 29, 92
6, 113405, Note_off_c, 1, 29, 64
6, 113505, Note_on_c, 1, 29, 55
6, 113650, Note_off_c, 1, 29, 64
6, 113750, Note_on_c, 1, 29, 71
6, 113895, Note_off_c, 1, 29, 64
6, 114005, Note_on_c, 1, 29, 57
6, 114125, Note_off_c, 1, 29, 64
6, 114240, Note_on_c, 1, 29, 71
6, 114380, Note_off_c, 1, 29, 64
6, 114480, Note_on_c, 1, 29, 69
6, 114615, Note_off_c, 1, 29, 64
6, 114710, Note_on_c, 1, 29, 71
6, 114850, Note_off_c, 1, 29, 64
6, 114965, Note_on_c, 1, 29, 71
6, 115090, Note_off_c, 1, 29, 64
6, 115190, Note_on_c, 1, 29, 76
6, 115330, Note_off_c, 1, 29, 64
6, 115435, Note_on_c, 1, 29, 78
6, 115565, Note_off_c, 1, 29, 64
6, 115665, Note_on_c, 1, 29, 82
6, 115800, Note_off_c, 1, 29, 64
6, 115920, Note_on_c, 1, 29, 78
6, 116055, Note_off_c, 1, 29, 64
6, 116160, Note_on_c, 1, 29, 82
6, 116295, Note_off_c, 1, 29, 64
6, 116400, Note_on_c, 1, 29, 92
6, 116555, Note_off_c, 1, 29, 64
6, 116595, Pitch_bend_c, 1, 7469
6, 116605, Pitch_bend_c, 1, 4826
6, 116615, Pitch_bend_c, 1, 1898
6, 116625, Pitch_bend_c, 1, 0
6, 116640, Note_on_c, 1, 36, 101
6, 116735, Pitch_bend_c, 1, 1108
6, 116745, Pitch_bend_c, 1, 2644
6, 116755, Pitch_bend_c, 1, 4287
6, 116770, Pitch_bend_c, 1, 5893
6, 116780, Pitch_bend_c, 1, 7429
6, 116790, Pitch_bend_c, 1, 8184
6, 116800, Pitch_bend_c, 1, 8192
6, 116900, Control_c, 1, 1, 76
6, 117095, Control_c, 1, 1, 0
6, 117095, Note_on_c, 1, 29, 99
6, 117110, Note_off_c, 1, 36, 64
6, 117230, Note_off_c, 1, 29, 64
6, 117335, Note_on_c, 1, 29, 63
6, 117480, Note_off_c, 1, 29, 64
6, 117590, Note_on_c, 1, 29, 71
6, 117740, Note_off_c, 1, 29, 64
6, 117830, Note_on_c, 1, 29, 66
6, 117975, Note_off_c, 1, 29, 64
6, 118070, Note_on_c, 1, 29, 72
6, 118210, Note_off_c, 1, 29, 64
6, 118310, Note_on_c, 1, 29, 71
6, 118450, Note_off_c, 1, 29, 64
6, 118560, Note_on_c, 1, 29, 76
6, 118700, Note_off_c, 1, 29, 64
6, 118795, Note_on_c, 1, 29, 67
6, 118915, Note_off_c, 1, 29, 64
6, 119025, Note_on_c, 1, 29, 80
6, 119155, Note_off_c, 1, 29, 64
6, 119265, Note_on_c, 1, 29, 74
6, 119400, Note_off_c, 1, 29, 64
6, 119505, Note_on_c, 1, 29, 80
6, 119640, Note_off_c, 1, 29, 64
6, 119745, Note_on_c, 1, 29, 63
6, 119870, Note_off_c, 1, 29, 64
6, 119990, Note_on_c, 1, 29, 71
6, 120125, Note_off_c, 1, 29, 64
6, 120230, Note_on_c, 1, 29, 69
6, 120360, Note_off_c, 1, 29, 64
6, 120465, Note_on_c, 1, 29, 80
6, 120590, Note_off_c, 1, 29, 64
6, 120705, Note_on_c, 1, 29, 69
6, 120830, Note_off_c, 1, 29, 64
6, 120955, Note_on_c, 1, 29, 86
6, 121090, Note_off_c, 1, 29, 64
6, 121200, Note_on_c, 1, 29, 56
6, 121325, Note_off_c, 1, 29, 64
6, 121450, Note_on_c, 1, 29, 69
6, 121585, Note_off_c, 1, 29, 64
6, 121690, Note_on_c, 1, 29, 69
6, 121815, Note_off_c, 1, 29, 64
6, 121930, Note_on_c, 1, 29, 71
6, 122060, Note_off_c, 1, 29, 64
6, 122170, Note_on_c, 1, 29, 80
6, 122295, Note_off_c, 1, 29, 64
6, 122415, Note_on_c, 1, 29, 78
6, 122545, Note_off_c, 1, 29, 64
6, 122650, Note_on_c, 1, 29, 74
6, 122770, Note_off_c, 1, 29, 64
6, 122880, Note_on_c, 1, 29, 82
6, 123005, Note_off_c, 1, 29, 64
6, 123110, Note_on_c, 1, 29, 72
6, 123235, Note_off_c, 1, 29, 64
6, 123355, Note_on_c, 1, 29, 74
6, 123480, Note_off_c, 1, 29, 64
6, 123590, Note_on_c, 1, 29, 80
6, 123710, Note_off_c, 1, 29, 64
6, 123830, Note_on_c, 1, 29, 76
6, 123950, Note_off_c, 1, 29, 64
6, 124070, Note_on_c, 1, 29, 76
6, 124195, Note_off_c, 1, 29, 64
6, 124325, Note_on_c, 1, 29, 94
6, 124520, Note_off_c, 1, 29, 64
6, 124800, Note_on_c, 1, 36, 114
6, 124920, Note_off_c, 1, 36, 64
6, 125035, Note_on_c, 1, 36, 89
6, 125160, Note_off_c, 1, 36, 64
6, 125280, Note_on_c, 1, 36, 104
6, 125430, Note_off_c, 1, 36, 64
6, 125525, Note_on_c, 1, 36, 89
6, 125635, Note_off_c, 1, 36, 64
6, 125755, Note_on_c, 1, 36, 101
6, 125900, Note_off_c, 1, 36, 64
6, 125995, Note_on_c, 1, 36, 84
6, 126120, Note_off_c, 1, 36, 64
6, 126235, Note_on_c, 1, 36, 101
6, 126375, Note_off_c, 1, 36, 64
6, 126470, Note_on_c, 1, 36, 86
6, 126580, Note_off_c, 1, 36, 64
6, 126705, Note_on_c, 1, 36, 117
6, 126840, Note_off_c, 1, 36, 64
6, 126950, Note_on_c, 1, 36, 84
6, 127060, Note_off_c, 1, 36, 64
6, 127180, Note_on_c, 1, 36, 106
6, 127320, Note_off_c, 1, 36, 64
6, 127425, Note_on_c, 1, 36, 84
6, 127540, Note_off_c, 1, 36, 64
6, 127675, Note_on_c, 1, 36, 101
6, 127805, Note_off_c, 1, 36, 64
6, 127915, Note_on_c, 1, 36, 84
6, 128035, Note_off_c, 1, 36, 64
6, 128155, Note_on_c, 1, 36, 111
6, 128280, Note_off_c, 1, 36, 64
6, 128395, Note_on_c, 1, 36, 86
6, 128445, Control_c, 1, 11, 114
6, 128475, Control_c, 1, 11, 113
6, 128505, Note_off_c, 1, 36, 64
6, 128635, Note_on_c, 1, 36, 114
6, 128775, Note_off_c, 1, 36, 64
6, 128880, Note_on_c, 1, 36, 82
6, 128990, Note_off_c, 1, 36, 64
6, 129115, Note_on_c, 1, 36, 106
6, 129150, Control_c, 1, 11, 111
6, 129180, Control_c, 1, 11, 109
6, 129215, Control_c, 1, 11, 108
6, 129250, Note_off_c, 1, 36, 64
6, 129360, Note_on_c, 1, 36, 86
6, 129470, Note_off_c, 1, 36, 64
6, 129595, Note_on_c, 1, 36, 101
6, 129720, Note_off_c, 1, 36, 64
6, 129835, Note_on_c, 1, 36, 94
6, 129945, Note_off_c, 1, 36, 64
6, 130080, Note_on_c, 1, 36, 109
6, 130200, Note_off_c, 1, 36, 64
6, 130315, Note_on_c, 1, 36, 89
6, 130360, Control_c, 1, 11, 109
6, 130420, Note_off_c, 1, 36, 64
6, 130550, Note_on_c, 1, 36, 109
6, 130690, Note_off_c, 1, 36, 64
6, 130790, Note_on_c, 1, 36, 84
6, 130905, Note_off_c, 1, 36, 64
6, 131040, Note_on_c, 1, 36, 104
6, 131160, Note_off_c, 1, 36, 64
6, 131280, Note_on_c, 1, 36, 96
6, 131390, Note_off_c, 1, 36, 64
6, 131525, Note_on_c, 1, 36, 104
6, 131645, Note_off_c, 1, 36, 64
6, 131765, Note_on_c, 1, 36, 84
6, 131880, Note_off_c, 1, 36, 64
6, 132005, Note_on_c, 1, 36, 104
6, 132135, Note_off_c, 1, 36, 64
6, 132235, Note_on_c, 1, 36, 96
6, 132360, Note_off_c, 1, 36, 64
6, 132490, Note_on_c, 1, 34, 114
6, 132600, Note_off_c, 1, 34, 64
6, 132720, Note_on_c, 1, 34, 85
6, 132830, Note_off_c, 1, 34, 64
6, 132965, Note_on_c, 1, 34, 114
6, 133085, Note_off_c, 1, 34, 64
6, 133195, Note_on_c, 1, 34, 83
6, 133315, Note_off_c, 1, 34, 64
6, 133440, Note_on_c, 1, 34, 106
6, 133565, Note_off_c, 1, 34, 64
6, 133675, Note_on_c, 1, 34, 96
6, 133795, Note_off_c, 1, 34, 64
6, 133920, Note_on_c, 1, 34, 106
6, 134050, Note_off_c, 1, 34, 64
6, 134155, Note_on_c, 1, 34, 85
6, 134280, Note_off_c, 1, 34, 64
6, 134405, Note_on_c, 1, 34, 114
6, 134540, Note_off_c, 1, 34, 64
6, 134645, Note_on_c, 1, 34, 85
6, 134750, Note_off_c, 1, 34, 64
6, 134885, Note_on_c, 1, 34, 110
6, 135015, Note_off_c, 1, 34, 64
6, 135125, Note_on_c, 1, 34, 83
6, 135235, Note_off_c, 1, 34, 64
6, 135365, Note_on_c, 1, 34, 106
6, 135485, Note_off_c, 1, 34, 64
6, 135595, Note_on_c, 1, 34, 85
6, 135720, Note_off_c, 1, 34, 64
6, 135845, Note_on_c, 1, 34, 106
6, 135960, Note_off_c, 1, 34, 64
6, 136075, Note_on_c, 1, 34, 96
6, 136180, Note_off_c, 1, 34, 64
6, 136325, Note_on_c, 1, 34, 114
6, 136455, Note_off_c, 1, 34, 64
6, 136565, Note_on_c, 1, 34, 89
6, 136685, Note_off_c, 1, 34, 64
6, 136805, Note_on_c, 1, 34, 102
6, 136930, Note_off_c, 1, 34, 64
6, 137045, Note_on_c, 1, 34, 102
6, 137155, Note_off_c, 1, 34, 64
6, 137275, Note_on_c, 1, 34, 85
6, 137410, Note_off_c, 1, 34, 64
6, 137520, Note_on_c, 1, 34, 89
6, 137635, Note_off_c, 1, 34, 64
6, 137705, Control_c, 1, 11, 110
6, 137770, Note_on_c, 1, 34, 110
6, 137905, Note_off_c, 1, 34, 64
6, 138005, Note_on_c, 1, 34, 93
6, 138115, Note_off_c, 1, 34, 64
6, 138245, Note_on_c, 1, 34, 110
6, 138380, Note_off_c, 1, 34, 64
6, 138480, Note_on_c, 1, 34, 89
6, 138590, Note_off_c, 1, 34, 64
6, 138715, Note_on_c, 1, 34, 110
6, 138845, Note_off_c, 1, 34, 64
6, 138955, Note_on_c, 1, 34, 93
6, 139055, Note_off_c, 1, 34, 64
6, 139190, Note_on_c, 1, 34, 114
6, 139320, Note_off_c, 1, 34, 64
6, 139430, Note_on_c, 1, 34, 106
6, 139550, Note_off_c, 1, 34, 64
6, 139670, Note_on_c, 1, 34, 114
6, 139790, Note_off_c, 1, 34, 64
6, 139910, Note_on_c, 1, 34, 102
6, 140050, Note_off_c, 1, 34, 64
6, 140165, Note_on_c, 1, 36, 101
6, 140300, Note_off_c, 1, 36, 64
6, 140400, Note_on_c, 1, 36, 82
6, 140515, Note_off_c, 1, 36, 64
6, 140640, Note_on_c, 1, 36, 99
6, 140770, Note_off_c, 1, 36, 64
6, 140885, Note_on_c, 1, 36, 86
6, 140985, Note_off_c, 1, 36, 64
6, 141120, Note_on_c, 1, 36, 89
6, 141255, Note_off_c, 1, 36, 64
6, 141365, Note_on_c, 1, 36, 89
6, 141480, Note_off_c, 1, 36, 64
6, 141605, Note_on_c, 1, 36, 96
6, 141730, Note_off_c, 1, 36, 64
6, 141840, Note_on_c, 1, 36, 84
6, 141945, Note_off_c, 1, 36, 64
6, 142085, Note_on_c, 1, 36, 101
6, 142215, Note_off_c, 1, 36, 64
6, 142320, Note_on_c, 1, 36, 82
6, 142420, Note_off_c, 1, 36, 64
6, 142555, Note_on_c, 1, 36, 104
6, 142685, Note_off_c, 1, 36, 64
6, 142795, Note_on_c, 1, 36, 86
6, 142900, Note_off_c, 1, 36, 64
6, 143045, Note_on_c, 1, 36, 104
6, 143160, Note_off_c, 1, 36, 64
6, 143280, Note_on_c, 1, 36, 89
6, 143390, Note_off_c, 1, 36, 64
6, 143520, Note_on_c, 1, 36, 99
6, 143630, Note_off_c, 1, 36, 64
6, 143755, Note_on_c, 1, 36, 86
6, 143845, Note_off_c, 1, 36, 64
6, 144010, Note_on_c, 1, 36, 114
6, 144660, Note_off_c, 1, 36, 64
6, 144730, Note_on_c, 1, 34, 123
6, 145480, Note_on_c, 1, 33, 117
6, 145515, Note_off_c, 1, 34, 64
6, 146080, Note_off_c, 1, 33, 64
6, 146170, Note_on_c, 1, 29, 101
6, 146305, Note_off_c, 1, 29, 64
6, 146405, Note_on_c, 1, 29, 109
6, 146700, Note_off_c, 1, 29, 64
6, 146875, Note_on_c, 1, 29, 104
6, 147705, Note_off_c, 1, 29, 64
6, 147845, Note_on_c, 1, 34, 117
6, 148205, Note_off_c, 1, 34, 64
6, 148320, Note_on_c, 1, 34, 93
6, 148435, Note_off_c, 1, 34, 64
6, 148555, Note_on_c, 1, 34, 77
6, 148665, Note_off_c, 1, 34, 64
6, 148795, Note_on_c, 1, 34, 100
6, 148920, Note_off_c, 1, 34, 64
6, 149035, Note_on_c, 1, 34, 93
6, 149150, Note_off_c, 1, 34, 64
6, 149285, Note_on_c, 1, 34, 110
6, 149420, Note_off_c, 1, 34, 64
6, 149510, Note_on_c, 1, 34, 85
6, 149645, Note_off_c, 1, 34, 64
6, 149765, Note_on_c, 1, 34, 117
6, 150125, Note_off_c, 1, 34, 64
6, 150240, Note_on_c, 1, 34, 93
6, 150355, Note_off_c, 1, 34, 64
6, 150475, Note_on_c, 1, 34, 77
6, 150585, Note_off_c, 1, 34, 64
6, 150715, Note_on_c, 1, 34, 100
6, 150840, Note_off_c, 1, 34, 64
6, 150955, Note_on_c, 1, 34, 93
6, 151070, Note_off_c, 1, 34, 64
6, 151205, Note_on_c, 1, 34, 110
6, 151340, Note_off_c, 1, 34, 64
6, 151430, Note_on_c, 1, 34, 85
6, 151565, Note_off_c, 1, 34, 64
6, 151690, Note_on_c, 1, 33, 106
6, 151820, Note_off_c, 1, 33, 64
6, 151925, Note_on_c, 1, 33, 86
6, 152045, Note_off_c, 1, 33, 64
6, 152160, Note_on_c, 1, 33, 109
6, 152285, Note_off_c, 1, 33, 64
6, 152390, Note_on_c, 1, 33, 84
6, 152500, Note_off_c, 1, 33, 64
6, 152630, Note_on_c, 1, 33, 106
6, 152750, Note_off_c, 1, 33, 64
6, 152875, Note_on_c, 1, 33, 92
6, 152990, Note_off_c, 1, 33, 64
6, 153120, Note_on_c, 1, 33, 104
6, 153240, Note_off_c, 1, 33, 64
6, 153355, Note_on_c, 1, 33, 94
6, 153490, Note_off_c, 1, 33, 64
6, 153600, Note_on_c, 1, 31, 111
6, 153660, Control_c, 1, 64, 127
6, 153745, Note_off_c, 1, 31, 64
6, 155470, Control_c, 1, 64, 0
6, 155520, Note_on_c, 1, 29, 101
6, 155655, Note_off_c, 1, 29, 64
6, 155775, Note_on_c, 1, 29, 57
6, 155895, Note_off_c, 1, 29, 64
6, 156030, Note_on_c, 1, 29, 84
6, 156180, Note_off_c, 1, 29, 64
6, 156250, Note_on_c, 1, 29, 52
6, 156375, Note_off_c, 1, 29, 64
6, 156480, Note_on_c, 1, 29, 78
6, 156610, Note_off_c, 1, 29, 64
6, 156725, Note_on_c, 1, 29, 67
6, 156865, Note_off_c, 1, 29, 64
6, 156960, Note_on_c, 1, 29, 74
6, 157090, Note_off_c, 1, 29, 64
6, 157200, Note_on_c, 1, 29, 66
6, 157340, Note_off_c, 1, 29, 64
6, 157435, Note_on_c, 1, 29, 76
6, 157575, Note_off_c, 1, 29, 64
6, 157670, Note_on_c, 1, 29, 78
6, 157825, Note_off_c, 1, 29, 64
6, 157905, Note_on_c, 1, 29, 74
6, 158070, Note_off_c, 1, 29, 64
6, 158175, Note_on_c, 1, 29, 52
6, 158310, Note_off_c, 1, 29, 64
6, 158415, Note_on_c, 1, 29, 72
6, 158540, Note_off_c, 1, 29, 64
6, 158655, Note_on_c, 1, 29, 69
6, 158785, Note_off_c, 1, 29, 64
6, 158890, Note_on_c, 1, 36, 104
6, 159100, Note_off_c, 1, 36, 64
6, 159125, Note_on_c, 1, 41, 86
6, 159360, Note_off_c, 1, 41, 64
6, 159380, Note_on_c, 1, 29, 80
6, 159525, Note_off_c, 1, 29, 64
6, 159615, Note_on_c, 1, 29, 51
6, 159775, Note_off_c, 1, 29, 64
6, 159855, Note_on_c, 1, 29, 89
6, 160005, Note_off_c, 1, 29, 64
6, 160095, Note_on_c, 1, 29, 72
6, 160250, Note_off_c, 1, 29, 64
6, 160315, Note_on_c, 1, 29, 66
6, 160460, Note_off_c, 1, 29, 64
6, 160560, Note_on_c, 1, 29, 66
6, 160700, Note_off_c, 1, 29, 64
6, 160795, Note_on_c, 1, 29, 69
6, 160955, Note_off_c, 1, 29, 64
6, 161030, Note_on_c, 1, 29, 66
6, 161175, Note_off_c, 1, 29, 64
6, 161285, Note_on_c, 1, 29, 71
6, 161440, Note_off_c, 1, 29, 64
6, 161525, Note_on_c, 1, 29, 76
6, 161670, Note_off_c, 1, 29, 64
6, 161775, Note_on_c, 1, 29, 69
6, 161910, Note_off_c, 1, 29, 64
6, 162010, Note_on_c, 1, 29, 63
6, 162125, Note_off_c, 1, 29, 64
6, 162235, Note_on_c, 1, 29, 72
6, 162365, Note_off_c, 1, 29, 64
6, 162465, Note_on_c, 1, 29, 78
6, 162620, Note_off_c, 1, 29, 64
6, 162660, Pitch_bend_c, 1, 7969
6, 162675, Pitch_bend_c, 1, 5469
6, 162685, Pitch_bend_c, 1, 2469
6, 162695, Pitch_bend_c, 1, 0
6, 162710, Note_on_c, 1, 36, 99
6, 162785, Pitch_bend_c, 1, 161
6, 162795, Pitch_bend_c, 1, 1608
6, 162805, Pitch_bend_c, 1, 3465
6, 162815, Pitch_bend_c, 1, 5733
6, 162825, Pitch_bend_c, 1, 7751
6, 162835, Pitch_bend_c, 1, 8192
6, 162985, Control_c, 1, 1, 76
6, 163200, Note_on_c, 1, 34, 117
6, 163210, Note_off_c, 1, 36, 64
6, 163295, Note_off_c, 1, 34, 64
6, 163405, Note_on_c, 1, 34, 102
6, 163495, Note_off_c, 1, 34, 64
6, 163665, Note_on_c, 1, 34, 106
6, 163780, Note_off_c, 1, 34, 64
6, 163900, Note_on_c, 1, 34, 89
6, 163995, Note_off_c, 1, 34, 64
6, 164155, Note_on_c, 1, 34, 110
6, 164285, Note_off_c, 1, 34, 64
6, 164395, Note_on_c, 1, 34, 89
6, 164510, Note_off_c, 1, 34, 64
6, 164620, Control_c, 1, 1, 76
6, 164640, Note_on_c, 1, 34, 110
6, 164780, Note_off_c, 1, 34, 64
6, 164860, Note_on_c, 1, 34, 85
6, 164945, Control_c, 1, 1, 0
6, 165000, Note_off_c, 1, 34, 64
6, 165115, Note_on_c, 1, 34, 114
6, 165265, Note_off_c, 1, 34, 64
6, 165345, Note_on_c, 1, 34, 93
6, 165445, Control_c, 1, 11, 114
6, 165475, Control_c, 1, 11, 119
6, 165485, Note_off_c, 1, 34, 64
6, 165600, Note_on_c, 1, 34, 110
6, 165750, Note_off_c, 1, 34, 64
6, 165850, Note_on_c, 1, 34, 83
6, 165980, Note_off_c, 1, 34, 64
6, 166085, Note_on_c, 1, 34, 114
6, 166220, Note_off_c, 1, 34, 64
6, 166320, Note_on_c, 1, 34, 93
6, 166450, Note_off_c, 1, 34, 64
6, 166560, Note_on_c, 1, 34, 110
6, 166710, Note_off_c, 1, 34, 64
6, 166795, Note_on_c, 1, 34, 89
6, 166930, Note_off_c, 1, 34, 64
6, 167025, Note_on_c, 1, 34, 110
6, 167180, Note_off_c, 1, 34, 64
6, 167260, Note_on_c, 1, 34, 89
6, 167400, Note_off_c, 1, 34, 64
6, 167520, Note_on_c, 1, 34, 110
6, 167670, Note_off_c, 1, 34, 64
6, 167765, Note_on_c, 1, 34, 85
6, 167900, Note_off_c, 1, 34, 64
6, 168000, Note_on_c, 1, 34, 106
6, 168150, Note_off_c, 1, 34, 64
6, 168245, Note_on_c, 1, 34, 96
6, 168390, Note_off_c, 1, 34, 64
6, 168490, Note_on_c, 1, 34, 114
6, 168650, Note_off_c, 1, 34, 64
6, 168725, Note_on_c, 1, 34, 100
6, 168875, Note_off_c, 1, 34, 64
6, 168960, Note_on_c, 1, 34, 110
6, 169115, Note_off_c, 1, 34, 64
6, 169200, Note_on_c, 1, 34, 100
6, 169350, Note_off_c, 1, 34, 64
6, 169435, Note_on_c, 1, 34, 102
6, 169580, Note_off_c, 1, 34, 64
6, 169665, Note_on_c, 1, 34, 100
6, 169800, Note_off_c, 1, 34, 64
6, 169900, Note_on_c, 1, 34, 102
6, 170030, Note_off_c, 1, 34, 64
6, 170140, Note_on_c, 1, 34, 100
6, 170255, Note_off_c, 1, 34, 64
6, 170390, Note_on_c, 1, 34, 117
6, 170595, Note_off_c, 1, 34, 64
6, 170615, Note_on_c, 1, 36, 104
6, 170845, Note_off_c, 1, 36, 64
6, 170885, Note_on_c, 1, 29, 99
6, 171065, Note_off_c, 1, 29, 64
6, 171140, Note_on_c, 1, 29, 76
6, 171290, Note_off_c, 1, 29, 64
6, 171370, Note_on_c, 1, 29, 99
6, 171525, Note_off_c, 1, 29, 64
6, 171610, Note_on_c, 1, 29, 92
6, 171745, Note_off_c, 1, 29, 64
6, 171845, Note_on_c, 1, 29, 99
6, 171970, Note_off_c, 1, 29, 64
6, 172065, Note_on_c, 1, 29, 94
6, 172210, Note_off_c, 1, 29, 64
6, 172320, Note_on_c, 1, 29, 104
6, 172460, Note_off_c, 1, 29, 64
6, 172550, Note_on_c, 1, 29, 96
6, 172685, Note_off_c, 1, 29, 64
6, 172785, Note_on_c, 1, 29, 109
6, 172920, Note_off_c, 1, 29, 64
6, 173020, Note_on_c, 1, 29, 94
6, 173165, Note_off_c, 1, 29, 64
6, 173270, Note_on_c, 1, 29, 104
6, 173410, Note_off_c, 1, 29, 64
6, 173510, Note_on_c, 1, 29, 96
6, 173655, Note_off_c, 1, 29, 64
6, 173750, Note_on_c, 1, 29, 99
6, 173885, Note_off_c, 1, 29, 64
6, 173940, Control_c, 1, 11, 117
6, 173980, Note_on_c, 1, 29, 96
6, 174125, Note_off_c, 1, 29, 64
6, 174235, Note_on_c, 1, 29, 101
6, 174370, Note_off_c, 1, 29, 64
6, 174480, Note_on_c, 1, 29, 99
6, 174605, Note_off_c, 1, 29, 64
6, 174710, Note_on_c, 1, 29, 104
6, 174860, Note_off_c, 1, 29, 64
6, 174970, Note_on_c, 1, 29, 89
6, 175115, Note_off_c, 1, 29, 64
6, 175210, Note_on_c, 1, 29, 104
6, 175365, Note_off_c, 1, 29, 64
6, 175445, Note_on_c, 1, 29, 94
6, 175590, Note_off_c, 1, 29, 64
6, 175680, Note_on_c, 1, 29, 94
6, 175820, Note_off_c, 1, 29, 64
6, 175930, Note_on_c, 1, 29, 99
6, 176065, Note_off_c, 1, 29, 64
6, 176170, Note_on_c, 1, 29, 101
6, 176305, Note_off_c, 1, 29, 64
6, 176395, Note_on_c, 1, 29, 96
6, 176525, Note_off_c, 1, 29, 64
6, 176630, Note_on_c, 1, 29, 101
6, 176780, Note_off_c, 1, 29, 64
6, 176880, Note_on_c, 1, 29, 99
6, 177020, Note_off_c, 1, 29, 64
6, 177120, Note_on_c, 1, 29, 101
6, 177260, Note_off_c, 1, 29, 64
6, 177355, Note_on_c, 1, 29, 99
6, 177495, Note_off_c, 1, 29, 64
6, 177590, Note_on_c, 1, 29, 96
6, 177725, Note_off_c, 1, 29, 64
6, 177840, Note_on_c, 1, 29, 96
6, 177960, Note_off_c, 1, 29, 64
6, 178085, Note_on_c, 1, 29, 101
6, 178305, Note_off_c, 1, 29, 64
6, 178310, Note_on_c, 1, 36, 101
6, 178515, Note_off_c, 1, 36, 64
6, 178575, Note_on_c, 1, 34, 110
6, 178720, Note_off_c, 1, 34, 64
6, 178810, Note_on_c, 1, 34, 85
6, 178945, Note_off_c, 1, 34, 64
6, 179045, Note_on_c, 1, 34, 102
6, 179190, Note_off_c, 1, 34, 64
6, 179285, Note_on_c, 1, 34, 89
6, 179415, Note_off_c, 1, 34, 64
6, 179525, Note_on_c, 1, 34, 110
6, 179670, Note_off_c, 1, 34, 64
6, 179780, Note_on_c, 1, 34, 106
6, 179910, Note_off_c, 1, 34, 64
6, 180025, Note_on_c, 1, 34, 110
6, 180155, Note_off_c, 1, 34, 64
6, 180260, Note_on_c, 1, 34, 102
6, 180395, Note_off_c, 1, 34, 64
6, 180495, Note_on_c, 1, 33, 114
6, 180635, Note_off_c, 1, 33, 64
6, 180735, Note_on_c, 1, 33, 94
6, 180865, Note_off_c, 1, 33, 64
6, 180980, Note_on_c, 1, 33, 109
6, 181110, Note_off_c, 1, 33, 64
6, 181200, Note_on_c, 1, 33, 99
6, 181325, Note_off_c, 1, 33, 64
6, 181440, Note_on_c, 1, 33, 109
6, 181565, Note_off_c, 1, 33, 64
6, 181670, Note_on_c, 1, 33, 109
6, 181795, Note_off_c, 1, 33, 64
6, 181920, Note_on_c, 1, 33, 104
6, 182045, Note_off_c, 1, 33, 64
6, 182160, Note_on_c, 1, 33, 99
6, 182330, Note_off_c, 1, 33, 64
6, 182390, Note_on_c, 1, 31, 125
6, 182530, Note_off_c, 1, 31, 64
6, 182630, Note_on_c, 1, 31, 99
6, 182755, Note_off_c, 1, 31, 64
6, 182865, Note_on_c, 1, 31, 109
6, 182990, Note_off_c, 1, 31, 64
6, 183065, Control_c, 1, 11, 115
6, 183100, Note_on_c, 1, 31, 101
6, 183105, Control_c, 1, 11, 114
6, 183135, Control_c, 1, 11, 113
6, 183230, Note_off_c, 1, 31, 64
6, 183345, Note_on_c, 1, 31, 106
6, 183465, Note_off_c, 1, 31, 64
6, 183590, Note_on_c, 1, 31, 101
6, 183705, Note_off_c, 1, 31, 64
6, 183830, Note_on_c, 1, 31, 104
6, 183955, Note_off_c, 1, 31, 64
6, 184070, Note_on_c, 1, 31, 94
6, 184180, Note_off_c, 1, 31, 64
6, 184320, Note_on_c, 1, 31, 114
6, 185155, Note_off_c, 1, 31, 64
6, 185280, Note_on_c, 1, 31, 114
6, 185975, Note_off_c, 1, 31, 64
6, 186235, Note_on_c, 1, 36, 114
6, 186355, Note_off_c, 1, 36, 64
6, 186490, Note_on_c, 1, 36, 101
6, 186600, Note_off_c, 1, 36, 64
6, 186730, Note_on_c, 1, 36, 117
6, 186870, Note_off_c, 1, 36, 64
6, 186960, Note_on_c, 1, 36, 99
6, 187080, Note_off_c, 1, 36, 64
6, 187190, Note_on_c, 1, 36, 117
6, 187325, Note_off_c, 1, 36, 64
6, 187420, Note_on_c, 1, 36, 101
6, 187545, Note_off_c, 1, 36, 64
6, 187670, Note_on_c, 1, 36, 117
6, 187810, Note_off_c, 1, 36, 64
6, 187890, Note_on_c, 1, 36, 99
6, 188025, Note_off_c, 1, 36, 64
6, 188135, Note_on_c, 1, 36, 122
6, 188290, Note_off_c, 1, 36, 64
6, 188370, Note_on_c, 1, 36, 96
6, 188510, Note_off_c, 1, 36, 64
6, 188620, Note_on_c, 1, 36, 114
6, 188770, Note_off_c, 1, 36, 64
6, 188860, Note_on_c, 1, 36, 89
6, 189010, Note_off_c, 1, 36, 64
6, 189110, Note_on_c, 1, 36, 111
6, 189260, Note_off_c, 1, 36, 64
6, 189345, Note_on_c, 1, 36, 101
6, 189475, Note_off_c, 1, 36, 64
6, 189590, Note_on_c, 1, 36, 117
6, 189740, Note_off_c, 1, 36, 64
6, 189830, Note_on_c, 1, 36, 92
6, 189970, Note_off_c, 1, 36, 64
6, 190075, Note_on_c, 1, 36, 106
6, 190225, Note_off_c, 1, 36, 64
6, 190310, Note_on_c, 1, 36, 99
6, 190445, Note_off_c, 1, 36, 64
6, 190560, Note_on_c, 1, 36, 117
6, 190715, Note_off_c, 1, 36, 64
6, 190790, Note_on_c, 1, 36, 99
6, 190925, Note_off_c, 1, 36, 64
6, 191040, Note_on_c, 1, 36, 106
6, 191185, Note_off_c, 1, 36, 64
6, 191280, Note_on_c, 1, 36, 96
6, 191420, Note_off_c, 1, 36, 64
6, 191530, Note_on_c, 1, 36, 117
6, 191695, Note_off_c, 1, 36, 64
6, 191760, Note_on_c, 1, 36, 96
6, 191910, Note_off_c, 1, 36, 64
6, 192005, Note_on_c, 1, 36, 101
6, 192160, Note_off_c, 1, 36, 64
6, 192240, Note_on_c, 1, 36, 101
6, 192380, Note_off_c, 1, 36, 64
6, 192475, Note_on_c, 1, 36, 106
6, 192625, Note_off_c, 1, 36, 64
6, 192710, Note_on_c, 1, 36, 101
6, 192850, Note_off_c, 1, 36, 64
6, 192950, Note_on_c, 1, 36, 101
6, 193105, Note_off_c, 1, 36, 64
6, 193195, Note_on_c, 1, 36, 92
6, 193350, Note_off_c, 1, 36, 64
6, 193445, Note_on_c, 1, 36, 104
6, 193600, Note_off_c, 1, 36, 64
6, 193690, Note_on_c, 1, 36, 101
6, 193825, Note_off_c, 1, 36, 64
6, 193930, Note_on_c, 1, 34, 117
6, 194090, Note_off_c, 1, 34, 64
6, 194160, Note_on_c, 1, 34, 89
6, 194295, Note_off_c, 1, 34, 64
6, 194400, Note_on_c, 1, 34, 110
6, 194540, Note_off_c, 1, 34, 64
6, 194640, Note_on_c, 1, 34, 80
6, 194775, Note_off_c, 1, 34, 64
6, 194870, Note_on_c, 1, 34, 102
6, 195015, Note_off_c, 1, 34, 64
6, 195110, Note_on_c, 1, 34, 89
6, 195250, Note_off_c, 1, 34, 64
6, 195350, Note_on_c, 1, 34, 114
6, 195515, Note_off_c, 1, 34, 64
6, 195595, Note_on_c, 1, 34, 89
6, 195735, Note_off_c, 1, 34, 64
6, 195830, Note_on_c, 1, 34, 96
6, 195975, Note_off_c, 1, 34, 64
6, 196070, Note_on_c, 1, 34, 85
6, 196225, Note_off_c, 1, 34, 64
6, 196310, Note_on_c, 1, 34, 100
6, 196450, Note_off_c, 1, 34, 64
6, 196550, Note_on_c, 1, 34, 80
6, 196700, Note_off_c, 1, 34, 64
6, 196790, Note_on_c, 1, 34, 100
6, 196930, Note_off_c, 1, 34, 64
6, 197030, Note_on_c, 1, 34, 85
6, 197170, Note_off_c, 1, 34, 64
6, 197270, Note_on_c, 1, 34, 110
6, 197415, Note_off_c, 1, 34, 64
6, 197510, Note_on_c, 1, 34, 80
6, 197660, Note_off_c, 1, 34, 64
6, 197750, Note_on_c, 1, 34, 96
6, 197910, Note_off_c, 1, 34, 64
6, 197995, Note_on_c, 1, 34, 83
6, 198140, Note_off_c, 1, 34, 64
6, 198245, Note_on_c, 1, 34, 117
6, 198395, Note_off_c, 1, 34, 64
6, 198475, Note_on_c, 1, 34, 83
6, 198615, Note_off_c, 1, 34, 64
6, 198715, Note_on_c, 1, 34, 96
6, 198860, Note_off_c, 1, 34, 64
6, 198955, Note_on_c, 1, 34, 85
6, 199085, Note_off_c, 1, 34, 64
6, 199205, Note_on_c, 1, 34, 114
6, 199350, Note_off_c, 1, 34, 64
6, 199435, Note_on_c, 1, 34, 80
6, 199575, Note_off_c, 1, 34, 64
6, 199675, Note_on_c, 1, 34, 89
6, 199830, Note_off_c, 1, 34, 64
6, 199925, Note_on_c, 1, 34, 85
6, 200055, Note_off_c, 1, 34, 64
6, 200170, Note_on_c, 1, 34, 106
6, 200315, Note_off_c, 1, 34, 64
6, 200405, Note_on_c, 1, 34, 85
6, 200545, Note_off_c, 1, 34, 64
6, 200640, Note_on_c, 1, 34, 102
6, 200790, Note_off_c, 1, 34, 64
6, 200890, Note_on_c, 1, 34, 93
6, 201030, Note_off_c, 1, 34, 64
6, 201130, Note_on_c, 1, 34, 100
6, 201265, Note_off_c, 1, 34, 64
6, 201360, Note_on_c, 1, 34, 80
6, 201505, Note_off_c, 1, 34, 64
6, 201600, Note_on_c, 1, 36, 114
6, 201750, Note_off_c, 1, 36, 64
6, 201845, Note_on_c, 1, 36, 86
6, 201980, Note_off_c, 1, 36, 64
6, 202080, Note_on_c, 1, 36, 106
6, 202235, Note_off_c, 1, 36, 64
6, 202325, Note_on_c, 1, 36, 94
6, 202455, Note_off_c, 1, 36, 64
6, 202560, Note_on_c, 1, 36, 106
6, 202705, Note_off_c, 1, 36, 64
6, 202790, Note_on_c, 1, 36, 99
6, 202930, Note_off_c, 1, 36, 64
6, 203030, Note_on_c, 1, 36, 104
6, 203180, Note_off_c, 1, 36, 64
6, 203270, Note_on_c, 1, 36, 89
6, 203415, Note_off_c, 1, 36, 64
6, 203510, Note_on_c, 1, 36, 104
6, 203665, Note_off_c, 1, 36, 64
6, 203750, Note_on_c, 1, 36, 96
6, 203880, Note_off_c, 1, 36, 64
6, 203990, Note_on_c, 1, 36, 101
6, 204135, Note_off_c, 1, 36, 64
6, 204220, Note_on_c, 1, 36, 86
6, 204365, Note_off_c, 1, 36, 64
6, 204465, Note_on_c, 1, 36, 104
6, 204605, Note_off_c, 1, 36, 64
6, 204710, Note_on_c, 1, 36, 96
6, 204835, Note_off_c, 1, 36, 64
6, 204950, Note_on_c, 1, 36, 104
6, 205095, Note_off_c, 1, 36, 64
6, 205190, Note_on_c, 1, 36, 99
6, 205335, Note_off_c, 1, 36, 64
6, 205435, Note_on_c, 1, 36, 104
6, 205585, Note_off_c, 1, 36, 64
6, 205670, Note_on_c, 1, 36, 99
6, 205805, Note_off_c, 1, 36, 64
6, 205915, Note_on_c, 1, 36, 106
6, 206060, Note_off_c, 1, 36, 64
6, 206150, Note_on_c, 1, 36, 86
6, 206290, Note_off_c, 1, 36, 64
6, 206395, Note_on_c, 1, 36, 106
6, 206540, Note_off_c, 1, 36, 64
6, 206640, Note_on_c, 1, 36, 86
6, 206775, Note_off_c, 1, 36, 64
6, 206875, Note_on_c, 1, 36, 101
6, 207015, Note_off_c, 1, 36, 64
6, 207115, Note_on_c, 1, 36, 86
6, 207260, Note_off_c, 1, 36, 64
6, 207350, Note_on_c, 1, 36, 101
6, 207500, Note_off_c, 1, 36, 64
6, 207590, Note_on_c, 1, 36, 94
6, 207735, Note_off_c, 1, 36, 64
6, 207830, Note_on_c, 1, 36, 101
6, 207990, Note_off_c, 1, 36, 64
6, 208075, Note_on_c, 1, 36, 92
6, 208225, Note_off_c, 1, 36, 64
6, 208320, Note_on_c, 1, 36, 101
6, 208470, Note_off_c, 1, 36, 64
6, 208555, Note_on_c, 1, 36, 99
6, 208700, Note_off_c, 1, 36, 64
6, 208795, Note_on_c, 1, 36, 99
6, 208940, Note_off_c, 1, 36, 64
6, 209040, Note_on_c, 1, 36, 86
6, 209180, Note_off_c, 1, 36, 64
6, 209285, Note_on_c, 1, 34, 114
6, 209460, Note_off_c, 1, 34, 64
6, 209525, Note_on_c, 1, 34, 83
6, 209670, Note_off_c, 1, 34, 64
6, 209760, Note_on_c, 1, 34, 100
6, 209905, Note_off_c, 1, 34, 64
6, 210005, Note_on_c, 1, 34, 80
6, 210140, Note_off_c, 1, 34, 64
6, 210245, Note_on_c, 1, 34, 89
6, 210380, Note_off_c, 1, 34, 64
6, 210485, Note_on_c, 1, 34, 80
6, 210630, Note_off_c, 1, 34, 64
6, 210720, Note_on_c, 1, 34, 89
6, 210855, Note_off_c, 1, 34, 64
6, 210965, Note_on_c, 1, 34, 80
6, 211100, Note_off_c, 1, 34, 64
6, 211205, Note_on_c, 1, 34, 106
6, 211350, Note_off_c, 1, 34, 64
6, 211440, Note_on_c, 1, 34, 83
6, 211575, Note_off_c, 1, 34, 64
6, 211675, Note_on_c, 1, 34, 89
6, 211810, Note_off_c, 1, 34, 64
6, 211915, Note_on_c, 1, 34, 83
6, 212055, Note_off_c, 1, 34, 64
6, 212155, Note_on_c, 1, 34, 85
6, 212285, Note_off_c, 1, 34, 64
6, 212395, Note_on_c, 1, 34, 89
6, 212530, Note_off_c, 1, 34, 64
6, 212645, Note_on_c, 1, 34, 96
6, 212780, Note_off_c, 1, 34, 64
6, 212880, Note_on_c, 1, 34, 85
6, 213040, Note_off_c, 1, 34, 64
6, 213125, Note_on_c, 1, 33, 101
6, 213320, Note_off_c, 1, 33, 64
6, 213375, Note_on_c, 1, 33, 84
6, 213510, Note_off_c, 1, 33, 64
6, 213605, Note_on_c, 1, 33, 92
6, 213765, Note_off_c, 1, 33, 64
6, 213845, Note_on_c, 1, 33, 96
6, 213985, Note_off_c, 1, 33, 64
6, 214085, Note_on_c, 1, 33, 104
6, 214210, Note_off_c, 1, 33, 64
6, 214315, Note_on_c, 1, 33, 104
6, 214440, Note_off_c, 1, 33, 64
6, 214550, Note_on_c, 1, 33, 101
6, 214675, Note_off_c, 1, 33, 64
6, 214790, Note_on_c, 1, 33, 106
6, 214945, Note_off_c, 1, 33, 64
6, 215030, Note_on_c, 1, 31, 106
6, 215160, Note_off_c, 1, 31, 64
6, 215270, Note_on_c, 1, 31, 86
6, 215395, Note_off_c, 1, 31, 64
6, 215510, Note_on_c, 1, 31, 99
6, 215645, Note_off_c, 1, 31, 64
6, 215750, Note_on_c, 1, 31, 99
6, 215880, Note_off_c, 1, 31, 64
6, 216000, Note_on_c, 1, 31, 101
6, 216140, Note_off_c, 1, 31, 64
6, 216230, Note_on_c, 1, 31, 86
6, 216365, Note_off_c, 1, 31, 64
6, 216480, Note_on_c, 1, 31, 104
6, 216605, Note_off_c, 1, 31, 64
6, 216720, Note_on_c, 1, 31, 101
6, 216875, Note_off_c, 1, 31, 64
6, 216960, Note_on_c, 1, 29, 111
6, 217120, Note_off_c, 1, 29, 64
6, 217215, Note_on_c, 1, 29, 89
6, 217335, Note_off_c, 1, 29, 64
6, 217440, Note_on_c, 1, 29, 94
6, 217580, Note_off_c, 1, 29, 64
6, 217670, Note_on_c, 1, 29, 92
6, 217820, Note_off_c, 1, 29, 64
6, 217905, Note_on_c, 1, 29, 94
6, 218035, Note_off_c, 1, 29, 64
6, 218145, Note_on_c, 1, 29, 92
6, 218275, Note_off_c, 1, 29, 64
6, 218385, Note_on_c, 1, 29, 99
6, 218525, Note_off_c, 1, 29, 64
6, 218615, Note_on_c, 1, 29, 92
6, 218760, Note_off_c, 1, 29, 64
6, 218865, Note_on_c, 1, 29, 104
6, 219005, Note_off_c, 1, 29, 64
6, 219100, Note_on_c, 1, 29, 89
6, 219225, Note_off_c, 1, 29, 64
6, 219340, Note_on_c, 1, 29, 96
6, 219480, Note_off_c, 1, 29, 64
6, 219590, Note_on_c, 1, 29, 99
6, 219720, Note_off_c, 1, 29, 64
6, 219830, Note_on_c, 1, 29, 101
6, 219970, Note_off_c, 1, 29, 64
6, 220065, Note_on_c, 1, 29, 96
6, 220210, Note_off_c, 1, 29, 64
6, 220315, Note_on_c, 1, 29, 101
6, 220435, Note_off_c, 1, 29, 64
6, 220555, Note_on_c, 1, 29, 104
6, 220725, Note_off_c, 1, 29, 64
6, 220800, Note_on_c, 1, 36, 114
6, 220950, Note_off_c, 1, 36, 64
6, 221040, Note_on_c, 1, 36, 99
6, 221175, Note_off_c, 1, 36, 64
6, 221280, Note_on_c, 1, 36, 106
6, 221425, Note_off_c, 1, 36, 64
6, 221525, Note_on_c, 1, 36, 99
6, 221650, Note_off_c, 1, 36, 64
6, 221760, Note_on_c, 1, 36, 104
6, 221895, Note_off_c, 1, 36, 64
6, 221995, Note_on_c, 1, 36, 101
6, 222135, Note_off_c, 1, 36, 64
6, 222245, Note_on_c, 1, 36, 104
6, 222390, Note_off_c, 1, 36, 64
6, 222480, Note_on_c, 1, 36, 96
6, 222615, Note_off_c, 1, 36, 64
6, 222725, Note_on_c, 1, 36, 109
6, 222865, Note_off_c, 1, 36, 64
6, 222950, Note_on_c, 1, 36, 92
6, 223085, Note_off_c, 1, 36, 64
6, 223195, Note_on_c, 1, 36, 101
6, 223330, Note_off_c, 1, 36, 64
6, 223430, Note_on_c, 1, 36, 86
6, 223570, Note_off_c, 1, 36, 64
6, 223670, Note_on_c, 1, 36, 99
6, 223805, Note_off_c, 1, 36, 64
6, 223910, Note_on_c, 1, 36, 96
6, 224045, Note_off_c, 1, 36, 64
6, 224155, Note_on_c, 1, 36, 104
6, 224290, Note_off_c, 1, 36, 64
6, 224390, Note_on_c, 1, 36, 89
6, 224520, Note_off_c, 1, 36, 64
6, 224630, Note_on_c, 1, 36, 109
6, 224645, Note_on_c, 1, 36, 101
6, 224765, Note_off_c, 1, 36, 64
6, 225510, Note_off_c, 1, 36, 64
6, 225600, Note_on_c, 1, 34, 96
6, 226445, Note_off_c, 1, 34, 64
6, 226535, Note_on_c, 1, 33, 101
6, 227460, Note_off_c, 1, 33, 64
6, 227510, Note_on_c, 1, 29, 96
6, 228340, Note_off_c, 1, 29, 64
6, 228475, Note_on_c, 1, 34, 102
6, 228595, Note_off_c, 1, 34, 64
6, 228725, Note_on_c, 1, 34, 74
6, 228845, Note_off_c, 1, 34, 64
6, 228945, Note_on_c, 1, 34, 96
6, 229100, Note_off_c, 1, 34, 64
6, 229195, Note_on_c, 1, 34, 83
6, 229335, Note_off_c, 1, 34, 64
6, 229445, Note_on_c, 1, 34, 110
6, 229585, Note_off_c, 1, 34, 64
6, 229685, Note_on_c, 1, 34, 85
6, 229825, Note_off_c, 1, 34, 64
6, 229925, Note_on_c, 1, 34, 110
6, 230075, Note_off_c, 1, 34, 64
6, 230165, Note_on_c, 1, 34, 85
6, 230295, Note_off_c, 1, 34, 64
6, 230405, Note_on_c, 1, 34, 100
6, 230555, Note_off_c, 1, 34, 64
6, 230650, Note_on_c, 1, 34, 89
6, 230800, Note_off_c, 1, 34, 64
6, 230900, Note_on_c, 1, 34, 110
6, 231050, Note_off_c, 1, 34, 64
6, 231140, Note_on_c, 1, 34, 85
6, 231265, Note_off_c, 1, 34, 64
6, 231365, Note_on_c, 1, 34, 100
6, 231510, Note_off_c, 1, 34, 64
6, 231600, Note_on_c, 1, 34, 89
6, 231740, Note_off_c, 1, 34, 64
6, 231850, Note_on_c, 1, 34, 100
6, 232000, Note_off_c, 1, 34, 64
6, 232095, Note_on_c, 1, 34, 93
6, 232225, Note_off_c, 1, 34, 64
6, 232325, Note_on_c, 1, 34, 110
6, 232475, Note_off_c, 1, 34, 64
6, 232570, Note_on_c, 1, 34, 80
6, 232695, Note_off_c, 1, 34, 64
6, 232805, Note_on_c, 1, 34, 100
6, 232950, Note_off_c, 1, 34, 64
6, 233050, Note_on_c, 1, 34, 80
6, 233175, Note_off_c, 1, 34, 64
6, 233290, Note_on_c, 1, 34, 110
6, 233425, Note_off_c, 1, 34, 64
6, 233530, Note_on_c, 1, 34, 100
6, 233660, Note_off_c, 1, 34, 64
6, 233760, Note_on_c, 1, 34, 110
6, 233905, Note_off_c, 1, 34, 64
6, 233995, Note_on_c, 1, 34, 93
6, 234120, Note_off_c, 1, 34, 64
6, 234230, Note_on_c, 1, 34, 106
6, 234380, Note_off_c, 1, 34, 64
6, 234475, Note_on_c, 1, 34, 83
6, 234605, Note_off_c, 1, 34, 64
6, 234710, Note_on_c, 1, 34, 102
6, 234850, Note_off_c, 1, 34, 64
6, 234950, Note_on_c, 1, 34, 93
6, 235080, Note_off_c, 1, 34, 64
6, 235195, Note_on_c, 1, 34, 102
6, 235335, Note_off_c, 1, 34, 64
6, 235435, Note_on_c, 1, 34, 93
6, 235570, Note_off_c, 1, 34, 64
6, 235680, Note_on_c, 1, 34, 110
6, 235800, Note_off_c, 1, 34, 64
6, 235915, Note_on_c, 1, 34, 102
6, 236060, Note_off_c, 1, 34, 64
6, 236150, Note_on_c, 1, 36, 111
6, 236290, Note_off_c, 1, 36, 64
6, 236390, Note_on_c, 1, 36, 96
6, 236535, Note_off_c, 1, 36, 64
6, 236630, Note_on_c, 1, 36, 96
6, 236785, Note_off_c, 1, 36, 64
6, 236880, Note_on_c, 1, 36, 89
6, 237010, Note_off_c, 1, 36, 64
6, 237120, Note_on_c, 1, 36, 101
6, 237260, Note_off_c, 1, 36, 64
6, 237360, Note_on_c, 1, 36, 94
6, 237505, Note_off_c, 1, 36, 64
6, 237605, Note_on_c, 1, 36, 104
6, 237745, Note_off_c, 1, 36, 64
6, 237840, Note_on_c, 1, 36, 92
6, 237980, Note_off_c, 1, 36, 64
6, 238070, Note_on_c, 1, 36, 92
6, 238205, Note_off_c, 1, 36, 64
6, 238310, Note_on_c, 1, 36, 94
6, 238435, Note_off_c, 1, 36, 64
6, 238565, Note_on_c, 1, 36, 111
6, 238710, Note_off_c, 1, 36, 64
6, 238795, Note_on_c, 1, 36, 94
6, 238910, Note_off_c, 1, 36, 64
6, 239040, Note_on_c, 1, 36, 104
6, 239185, Note_off_c, 1, 36, 64
6, 239275, Note_on_c, 1, 36, 89
6, 239400, Note_off_c, 1, 36, 64
6, 239510, Note_on_c, 1, 36, 101
6, 239655, Note_off_c, 1, 36, 64
6, 239765, Note_on_c, 1, 36, 92
6, 239895, Note_off_c, 1, 36, 64
6, 240005, Note_on_c, 1, 36, 109
6, 240145, Note_off_c, 1, 36, 64
6, 240245, Note_on_c, 1, 36, 99
6, 240380, Note_off_c, 1, 36, 64
6, 240485, Note_on_c, 1, 36, 104
6, 240620, Note_off_c, 1, 36, 64
6, 240720, Note_on_c, 1, 36, 99
6, 240845, Note_off_c, 1, 36, 64
6, 240960, Note_on_c, 1, 36, 104
6, 241100, Note_off_c, 1, 36, 64
6, 241190, Note_on_c, 1, 36, 86
6, 241320, Note_off_c, 1, 36, 64
6, 241430, Note_on_c, 1, 36, 104
6, 241565, Note_off_c, 1, 36, 64
6, 241670, Note_on_c, 1, 36, 92
6, 241785, Note_off_c, 1, 36, 64
6, 241905, Note_on_c, 1, 36, 101
6, 242055, Note_off_c, 1, 36, 64
6, 242150, Note_on_c, 1, 36, 99
6, 242285, Note_off_c, 1, 36, 64
6, 242390, Note_on_c, 1, 36, 109
6, 242535, Note_off_c, 1, 36, 64
6, 242630, Note_on_c, 1, 36, 99
6, 242760, Note_off_c, 1, 36, 64
6, 242870, Note_on_c, 1, 36, 101
6, 243020, Note_off_c, 1, 36, 64
6, 243110, Note_on_c, 1, 36, 89
6, 243255, Note_off_c, 1, 36, 64
6, 243360, Note_on_c, 1, 36, 106
6, 243515, Note_off_c, 1, 36, 64
6, 243610, Note_on_c, 1, 36, 99
6, 243745, Note_off_c, 1, 36, 64
6, 243840, Note_on_c, 1, 34, 117
6, 244005, Note_off_c, 1, 34, 64
6, 244085, Note_on_c, 1, 34, 83
6, 244205, Note_off_c, 1, 34, 64
6, 244310, Note_on_c, 1, 34, 100
6, 244450, Note_off_c, 1, 34, 64
6, 244555, Note_on_c, 1, 34, 80
6, 244695, Note_off_c, 1, 34, 64
6, 244810, Note_on_c, 1, 34, 89
6, 244940, Note_off_c, 1, 34, 64
6, 245045, Note_on_c, 1, 34, 100
6, 245175, Note_off_c, 1, 34, 64
6, 245290, Note_on_c, 1, 34, 102
6, 245420, Note_off_c, 1, 34, 64
6, 245520, Note_on_c, 1, 34, 89
6, 245650, Note_off_c, 1, 34, 64
6, 245765, Note_on_c, 1, 34, 102
6, 245905, Note_off_c, 1, 34, 64
6, 246005, Note_on_c, 1, 34, 83
6, 246145, Note_off_c, 1, 34, 64
6, 246250, Note_on_c, 1, 34, 89
6, 246385, Note_off_c, 1, 34, 64
6, 246485, Note_on_c, 1, 34, 89
6, 246615, Note_off_c, 1, 34, 64
6, 246730, Note_on_c, 1, 34, 106
6, 246865, Note_off_c, 1, 34, 64
6, 246970, Note_on_c, 1, 34, 89
6, 247100, Note_off_c, 1, 34, 64
6, 247210, Note_on_c, 1, 34, 102
6, 247350, Note_off_c, 1, 34, 64
6, 247450, Note_on_c, 1, 34, 89
6, 247595, Note_off_c, 1, 34, 64
6, 247690, Note_on_c, 1, 33, 101
6, 247860, Note_off_c, 1, 33, 64
6, 247925, Note_on_c, 1, 33, 76
6, 248060, Note_off_c, 1, 33, 64
6, 248155, Note_on_c, 1, 33, 99
6, 248295, Note_off_c, 1, 33, 64
6, 248400, Note_on_c, 1, 33, 86
6, 248535, Note_off_c, 1, 33, 64
6, 248645, Note_on_c, 1, 33, 106
6, 248785, Note_off_c, 1, 33, 64
6, 248875, Note_on_c, 1, 33, 99
6, 249000, Note_off_c, 1, 33, 64
6, 249110, Note_on_c, 1, 33, 106
6, 249235, Note_off_c, 1, 33, 64
6, 249345, Note_on_c, 1, 33, 101
6, 249475, Note_off_c, 1, 33, 64
6, 249590, Note_on_c, 1, 31, 109
6, 249720, Note_off_c, 1, 31, 64
6, 249830, Note_on_c, 1, 31, 96
6, 249945, Note_off_c, 1, 31, 64
6, 250080, Note_on_c, 1, 31, 104
6, 250190, Note_off_c, 1, 31, 64
6, 250310, Note_on_c, 1, 31, 92
6, 250415, Note_off_c, 1, 31, 64
6, 250555, Note_on_c, 1, 31, 109
6, 250950, Note_off_c, 1, 31, 64
6, 251030, Note_on_c, 1, 31, 104
6, 251460, Note_off_c, 1, 31, 64
6, 251510, Note_on_c, 1, 29, 111
6, 251670, Note_off_c, 1, 29, 64
6, 251755, Note_on_c, 1, 29, 92
6, 251890, Note_off_c, 1, 29, 64
6, 251990, Note_on_c, 1, 29, 101
6, 252130, Note_off_c, 1, 29, 64
6, 252230, Note_on_c, 1, 29, 86
6, 252370, Note_off_c, 1, 29, 64
6, 252475, Note_on_c, 1, 29, 99
6, 252605, Note_off_c, 1, 29, 64
6, 252705, Note_on_c, 1, 29, 84
6, 252840, Note_off_c, 1, 29, 64
6, 252950, Note_on_c, 1, 29, 101
6, 253100, Note_off_c, 1, 29, 64
6, 253185, Note_on_c, 1, 29, 96
6, 253330, Note_off_c, 1, 29, 64
6, 253435, Note_on_c, 1, 29, 94
6, 253575, Note_off_c, 1, 29, 64
6, 253670, Note_on_c, 1, 29, 96
6, 253805, Note_off_c, 1, 29, 64
6, 253910, Note_on_c, 1, 29, 99
6, 254045, Note_off_c, 1, 29, 64
6, 254145, Note_on_c, 1, 29, 94
6, 254285, Note_off_c, 1, 29, 64
6, 254385, Note_on_c, 1, 29, 99
6, 254530, Note_off_c, 1, 29, 64
6, 254630, Note_on_c, 1, 29, 96
6, 254770, Note_off_c, 1, 29, 64
6, 254880, Note_on_c, 1, 29, 104
6, 255010, Note_off_c, 1, 29, 64
6, 255120, Note_on_c, 1, 29, 104
6, 255270, Note_off_c, 1, 29, 64
6, 255365, Note_on_c, 1, 36, 117
6, 255500, Note_off_c, 1, 36, 64
6, 255605, Note_on_c, 1, 36, 101
6, 255735, Note_off_c, 1, 36, 64
6, 255845, Note_on_c, 1, 36, 114
6, 255980, Note_off_c, 1, 36, 64
6, 256075, Note_on_c, 1, 36, 94
6, 256205, Note_off_c, 1, 36, 64
6, 256285, Control_c, 1, 11, 111
6, 256310, Note_on_c, 1, 36, 104
6, 256445, Note_off_c, 1, 36, 64
6, 256550, Note_on_c, 1, 36, 96
6, 256680, Note_off_c, 1, 36, 64
6, 256795, Note_on_c, 1, 36, 114
6, 256930, Note_off_c, 1, 36, 64
6, 257030, Note_on_c, 1, 36, 89
6, 257165, Note_off_c, 1, 36, 64
6, 257270, Note_on_c, 1, 36, 99
6, 257405, Note_off_c, 1, 36, 64
6, 257510, Note_on_c, 1, 36, 89
6, 257640, Note_off_c, 1, 36, 64
6, 257750, Note_on_c, 1, 36, 106
6, 257885, Note_off_c, 1, 36, 64
6, 257985, Note_on_c, 1, 36, 89
6, 258115, Note_off_c, 1, 36, 64
6, 258230, Note_on_c, 1, 36, 106
6, 258365, Note_off_c, 1, 36, 64
6, 258460, Note_on_c, 1, 36, 92
6, 258600, Note_off_c, 1, 36, 64
6, 258710, Note_on_c, 1, 36, 101
6, 258845, Note_off_c, 1, 36, 64
6, 258950, Note_on_c, 1, 36, 89
6, 259085, Note_off_c, 1, 36, 64
6, 259195, Note_on_c, 1, 36, 104
6, 259340, Note_off_c, 1, 36, 64
6, 259435, Note_on_c, 1, 36, 89
6, 259570, Note_off_c, 1, 36, 64
6, 259680, Note_on_c, 1, 36, 106
6, 259820, Note_off_c, 1, 36, 64
6, 259915, Note_on_c, 1, 36, 86
6, 260055, Note_off_c, 1, 36, 64
6, 260165, Note_on_c, 1, 36, 92
6, 260300, Note_off_c, 1, 36, 64
6, 260405, Note_on_c, 1, 36, 92
6, 260540, Note_off_c, 1, 36, 64
6, 260655, Note_on_c, 1, 36, 104
6, 260780, Note_off_c, 1, 36, 64
6, 260885, Note_on_c, 1, 36, 84
6, 260950, Control_c, 1, 11, 125
6, 261010, Control_c, 1, 11, 124
6, 261015, Note_off_c, 1, 36, 64
6, 261125, Note_on_c, 1, 36, 89
6, 261265, Control_c, 1, 11, 112
6, 261270, Note_off_c, 1, 36, 64
6, 261330, Control_c, 1, 11, 123
6, 261365, Note_on_c, 1, 36, 89
6, 261365, Control_c, 1, 11, 122
6, 261395, Control_c, 1, 11, 121
6, 261450, Control_c, 1, 11, 113
6, 261490, Note_off_c, 1, 36, 64
6, 261580, Control_c, 1, 11, 119
6, 261600, Note_on_c, 1, 36, 104
6, 261630, Control_c, 1, 11, 117
6, 261740, Note_off_c, 1, 36, 64
6, 261835, Note_on_c, 1, 36, 92
6, 261950, Note_off_c, 1, 36, 64
6, 262070, Note_on_c, 1, 36, 101
6, 262115, Control_c, 1, 11, 115
6, 262145, Control_c, 1, 11, 114
6, 262175, Control_c, 1, 11, 113
6, 262220, Note_off_c, 1, 36, 64
6, 262315, Note_on_c, 1, 36, 92
6, 262445, Note_off_c, 1, 36, 64
6, 262560, Note_on_c, 1, 36, 104
6, 262690, Note_off_c, 1, 36, 64
6, 262790, Note_on_c, 1, 36, 99
6, 262940, Control_c, 1, 11, 112
6, 262965, Note_off_c, 1, 36, 64
6, 263045, Note_on_c, 1, 34, 110
6, 263185, Note_off_c, 1, 34, 64
6, 263205, Control_c, 1, 11, 111
6, 263270, Control_c, 1, 11, 109
6, 263280, Note_on_c, 1, 34, 80
6, 263410, Note_off_c, 1, 34, 64
6, 263525, Note_on_c, 1, 34, 102
6, 263660, Note_off_c, 1, 34, 64
6, 263680, Control_c, 1, 11, 112
6, 263755, Note_on_c, 1, 34, 83
6, 263780, Control_c, 1, 11, 108
6, 263845, Control_c, 1, 11, 107
6, 263880, Note_off_c, 1, 34, 64
6, 264010, Note_on_c, 1, 34, 96
6, 264100, Control_c, 1, 11, 106
6, 264125, Control_c, 1, 11, 105
6, 264135, Note_off_c, 1, 34, 64
6, 264160, Control_c, 1, 11, 104
6, 264245, Note_on_c, 1, 34, 80
6, 264375, Note_off_c, 1, 34, 64
6, 264490, Note_on_c, 1, 34, 96
6, 264620, Note_off_c, 1, 34, 64
6, 264670, Control_c, 1, 11, 103
6, 264715, Note_on_c, 1, 34, 83
6, 264845, Note_off_c, 1, 34, 64
6, 264865, Control_c, 1, 11, 102
6, 264925, Control_c, 1, 11, 100
6, 264955, Note_on_c, 1, 34, 85
6, 264955, Control_c, 1, 11, 99
6, 265000, Control_c, 1, 11, 97
6, 265090, Note_off_c, 1, 34, 64
6, 265190, Note_on_c, 1, 34, 85
6, 265325, Note_off_c, 1, 34, 64
6, 265430, Note_on_c, 1, 34, 96
6, 265575, Note_off_c, 1, 34, 64
6, 265640, Control_c, 1, 11, 96
6, 265675, Note_on_c, 1, 34, 83
6, 265800, Note_off_c, 1, 34, 64
6, 265835, Control_c, 1, 11, 95
6, 265870, Control_c, 1, 11, 94
6, 265910, Note_on_c, 1, 34, 85
6, 266055, Note_off_c, 1, 34, 64
6, 266150, Note_on_c, 1, 34, 85
6, 266255, Control_c, 1, 11, 93
6, 266285, Note_off_c, 1, 34, 64
6, 266395, Note_on_c, 1, 34, 96
6, 266420, Control_c, 1, 11, 92
6, 266445, Control_c, 1, 11, 91
6, 266475, Control_c, 1, 11, 90
6, 266505, Control_c, 1, 11, 88
6, 266550, Note_off_c, 1, 34, 64
6, 266635, Note_on_c, 1, 34, 85
6, 266790, Note_off_c, 1, 34, 64
6, 266880, Note_on_c, 1, 34, 89
6, 266925, Control_c, 1, 11, 87
6, 266965, Control_c, 1, 11, 86
6, 266995, Control_c, 1, 11, 84
6, 267020, Note_off_c, 1, 34, 64
6, 267030, Control_c, 1, 11, 82
6, 267120, Note_on_c, 1, 34, 83
6, 267270, Note_off_c, 1, 34, 64
6, 267370, Note_on_c, 1, 34, 93
6, 267425, Control_c, 1, 11, 81
6, 267515, Note_off_c, 1, 34, 64
6, 267600, Note_on_c, 1, 34, 85
6, 267720, Control_c, 1, 11, 80
6, 267740, Note_off_c, 1, 34, 64
6, 267750, Control_c, 1, 11, 79
6, 267780, Control_c, 1, 11, 78
6, 267835, Note_on_c, 1, 34, 89
6, 267920, Control_c, 1, 11, 77
6, 267950, Control_c, 1, 11, 75
6, 267970, Note_off_c, 1, 34, 64
6, 267985, Control_c, 1, 11, 73
6, 268015, Control_c, 1, 11, 72
6, 268080, Note_on_c, 1, 34, 80
6, 268175, Control_c, 1, 11, 71
6, 268215, Note_off_c, 1, 34, 64
6, 268235, Control_c, 1, 11, 69
6, 268265, Control_c, 1, 11, 67
6, 268300, Control_c, 1, 11, 66
6, 268325, Note_on_c, 1, 34, 83
6, 268335, Control_c, 1, 11, 64
6, 268485, Note_off_c, 1, 34, 64
6, 268565, Note_on_c, 1, 34, 80
6, 268620, Control_c, 1, 11, 63
6, 268645, Control_c, 1, 11, 61
6, 268680, Control_c, 1, 11, 60
6, 268700, Note_off_c, 1, 34, 64
6, 268710, Control_c, 1, 11, 58
6, 268805, Note_on_c, 1, 34, 89
6, 268910, Control_c, 1, 11, 57
6, 268945, Note_off_c, 1, 34, 64
6, 268975, Control_c, 1, 11, 55
6, 269010, Control_c, 1, 11, 54
6, 269040, Note_on_c, 1, 34, 85
6, 269045, Control_c, 1, 11, 53
6, 269180, Note_off_c, 1, 34, 64
6, 269285, Note_on_c, 1, 34, 93
6, 269330, Control_c, 1, 11, 52
6, 269355, Control_c, 1, 11, 51
6, 269385, Control_c, 1, 11, 50
6, 269420, Note_off_c, 1, 34, 64
6, 269450, Control_c, 1, 11, 49
6, 269515, Note_on_c, 1, 34, 80
6, 269640, Control_c, 1, 11, 48
6, 269660, Note_off_c, 1, 34, 64
6, 269670, Control_c, 1, 11, 47
6, 269700, Control_c, 1, 11, 46
6, 269755, Note_on_c, 1, 34, 96
6, 269770, Control_c, 1, 11, 45
6, 269910, Note_off_c, 1, 34, 64
6, 270005, Note_on_c, 1, 34, 80
6, 270070, Control_c, 1, 11, 42
6, 270105, Control_c, 1, 11, 41
6, 270145, Note_off_c, 1, 34, 64
6, 270245, Note_on_c, 1, 34, 89
6, 270290, Control_c, 1, 11, 40
6, 270320, Control_c, 1, 11, 39
6, 270380, Note_off_c, 1, 34, 64
6, 270380, Control_c, 1, 11, 37
6, 270485, Note_on_c, 1, 34, 85
6, 270540, Control_c, 1, 11, 36
6, 270570, Control_c, 1, 11, 35
6, 270605, Control_c, 1, 11, 34
6, 270645, Note_off_c, 1, 34, 64
6, 270730, Note_on_c, 1, 36, 114
6, 270815, Control_c, 1, 11, 33
6, 270845, Control_c, 1, 11, 32
6, 270880, Control_c, 1, 11, 31
6, 270885, Note_off_c, 1, 36, 64
6, 270970, Note_on_c, 1, 36, 92
6, 270970, Control_c, 1, 11, 30
6, 271125, Note_off_c, 1, 36, 64
6, 271210, Note_on_c, 1, 36, 101
6, 271260, Control_c, 1, 11, 29
6, 271285, Control_c, 1, 11, 28
6, 271320, Control_c, 1, 11, 27
6, 271360, Note_off_c, 1, 36, 64
6, 271450, Note_on_c, 1, 36, 99
6, 271510, Control_c, 1, 11, 26
6, 271540, Control_c, 1, 11, 25
6, 271570, Control_c, 1, 11, 24
6, 271590, Note_off_c, 1, 36, 64
6, 271600, Control_c, 1, 11, 23
6, 271635, Control_c, 1, 11, 22
6, 271680, Note_on_c, 1, 36, 89
6, 271705, Control_c, 1, 11, 21
6, 271795, Control_c, 1, 11, 20
6, 271830, Note_off_c, 1, 36, 64
6, 271895, Control_c, 1, 11, 19
6, 271915, Note_on_c, 1, 36, 94
6, 271960, Control_c, 1, 11, 17
6, 271990, Control_c, 1, 11, 16
6, 272020, Control_c, 1, 11, 15
6, 272050, Control_c, 1, 11, 14
6, 272060, Note_off_c, 1, 36, 64
6, 272085, Control_c, 1, 11, 13
6, 272145, Control_c, 1, 11, 12
6, 272160, Note_on_c, 1, 36, 109
6, 272300, Control_c, 1, 11, 11
6, 272305, Note_off_c, 1, 36, 64
6, 272330, Control_c, 1, 11, 10
6, 272360, Control_c, 1, 11, 9
6, 272390, Note_on_c, 1, 36, 89
6, 272435, Control_c, 1, 11, 8
6, 272540, Note_off_c, 1, 36, 64
6, 272580, Control_c, 1, 11, 7
6, 272625, Note_on_c, 1, 36, 101
6, 272645, Control_c, 1, 11, 5
6, 272685, Control_c, 1, 11, 3
6, 272770, Note_off_c, 1, 36, 64
6, 272870, Note_on_c, 1, 36, 99
6, 272960, Control_c, 1, 11, 2
6, 273000, Note_off_c, 1, 36, 64
6, 273110, Note_on_c, 1, 36, 101
6, 273240, Control_c, 1, 11, 1
6, 273255, Note_off_c, 1, 36, 64
6, 273350, Note_on_c, 1, 36, 86
6, 273490, Note_off_c, 1, 36, 64
6, 273590, Note_on_c, 1, 36, 104
6, 273730, Note_off_c, 1, 36, 64
6, 273830, Note_on_c, 1, 36, 89
6, 273880, Control_c, 1, 11, 0
6, 273965, Note_off_c, 1, 36, 64
6, 274070, Note_on_c, 1, 36, 101
6, 274205, Note_off_c, 1, 36, 64
6, 274310, Note_on_c, 1, 36, 94
6, 274450, Note_off_c, 1, 36, 64
6, 274555, Note_on_c, 1, 36, 101
6, 274700, Note_off_c, 1, 36, 64
6, 274795, Note_on_c, 1, 36, 89
6, 274930, Note_off_c, 1, 36, 64
6, 275040, Note_on_c, 1, 36, 106
6, 277355, Note_off_c, 1, 36, 64
6, 277355, End_track
7, 0, Start_track
7, 0, Title_t, "Keyboard 1"
7, 0, MIDI_port, 0
7, 0, Channel_prefix, 2
7, 0, Control_c, 2, 7, 60
7, 0, Control_c, 2, 10, 64
7, 0, Program_c, 2, 100
7, 0, Control_c, 2, 91, 100
7, 0, Control_c, 2, 93, 95
7, 9555, Control_c, 2, 64, 127
7, 9595, Note_on_c, 2, 84, 76
7, 9600, Note_on_c, 2, 89, 81
7, 9670, Note_off_c, 2, 89, 64
7, 9670, Note_off_c, 2, 84, 64
7, 13445, Note_on_c, 2, 84, 86
7, 13535, Note_off_c, 2, 84, 64
7, 13920, Note_on_c, 2, 89, 88
7, 14005, Note_off_c, 2, 89, 64
7, 14400, Note_on_c, 2, 84, 91
7, 14485, Note_off_c, 2, 84, 64
7, 14865, Note_on_c, 2, 89, 86
7, 14935, Note_off_c, 2, 89, 64
7, 15360, Note_on_c, 2, 84, 93
7, 15440, Note_off_c, 2, 84, 64
7, 15820, Note_on_c, 2, 89, 86
7, 15890, Note_off_c, 2, 89, 64
7, 16325, Note_on_c, 2, 84, 81
7, 16390, Note_off_c, 2, 84, 64
7, 16805, Note_on_c, 2, 89, 88
7, 16880, Note_off_c, 2, 89, 64
7, 17270, Note_on_c, 2, 84, 83
7, 17310, Note_off_c, 2, 84, 64
7, 20935, Control_c, 2, 64, 0
7, 21040, Control_c, 2, 64, 127
7, 21135, Note_on_c, 2, 84, 69
7, 21205, Note_off_c, 2, 84, 64
7, 21630, Note_on_c, 2, 89, 65
7, 21685, Note_off_c, 2, 89, 64
7, 22090, Note_on_c, 2, 84, 88
7, 22175, Note_off_c, 2, 84, 64
7, 22555, Note_on_c, 2, 89, 76
7, 22630, Note_off_c, 2, 89, 64
7, 23055, Note_on_c, 2, 84, 81
7, 23135, Note_off_c, 2, 84, 64
7, 23515, Note_on_c, 2, 89, 79
7, 23590, Note_off_c, 2, 89, 64
7, 24020, Note_on_c, 2, 84, 76
7, 24090, Note_off_c, 2, 84, 64
7, 24490, Note_on_c, 2, 89, 76
7, 24565, Note_off_c, 2, 89, 64
7, 24955, Note_on_c, 2, 84, 88
7, 25000, Note_off_c, 2, 84, 64
7, 28800, Note_on_c, 2, 84, 76
7, 28890, Note_off_c, 2, 84, 64
7, 29285, Note_on_c, 2, 89, 88
7, 29370, Note_off_c, 2, 89, 64
7, 29745, Note_on_c, 2, 84, 88
7, 29835, Note_off_c, 2, 84, 64
7, 30220, Note_on_c, 2, 89, 91
7, 30290, Note_off_c, 2, 89, 64
7, 30715, Note_on_c, 2, 84, 83
7, 30790, Note_off_c, 2, 84, 64
7, 31185, Note_on_c, 2, 89, 86
7, 31265, Note_off_c, 2, 89, 64
7, 31675, Note_on_c, 2, 84, 71
7, 31740, Note_off_c, 2, 84, 64
7, 32160, Note_on_c, 2, 89, 88
7, 32240, Note_off_c, 2, 89, 64
7, 32635, Note_on_c, 2, 84, 86
7, 32700, Note_off_c, 2, 84, 64
7, 36475, Note_on_c, 2, 84, 59
7, 36545, Note_off_c, 2, 84, 64
7, 36965, Note_on_c, 2, 89, 83
7, 37040, Note_off_c, 2, 89, 64
7, 37940, Note_on_c, 2, 89, 81
7, 38035, Note_off_c, 2, 89, 64
7, 38850, Note_on_c, 2, 89, 81
7, 38945, Note_off_c, 2, 89, 64
7, 39330, Note_on_c, 2, 84, 81
7, 39420, Note_off_c, 2, 84, 64
7, 39800, Note_on_c, 2, 89, 76
7, 39895, Note_off_c, 2, 89, 64
7, 40290, Note_on_c, 2, 84, 69
7, 40350, Note_off_c, 2, 84, 64
7, 44185, Note_on_c, 2, 84, 81
7, 44275, Note_off_c, 2, 84, 64
7, 44640, Note_on_c, 2, 89, 86
7, 44735, Note_off_c, 2, 89, 64
7, 45110, Note_on_c, 2, 84, 88
7, 45195, Note_off_c, 2, 84, 64
7, 45575, Note_on_c, 2, 89, 83
7, 45655, Note_off_c, 2, 89, 64
7, 46075, Note_on_c, 2, 84, 83
7, 46150, Note_off_c, 2, 84, 64
7, 46545, Note_on_c, 2, 89, 83
7, 46625, Note_off_c, 2, 89, 64
7, 47040, Note_on_c, 2, 84, 73
7, 47110, Note_off_c, 2, 84, 64
7, 47525, Note_on_c, 2, 89, 88
7, 47605, Note_off_c, 2, 89, 64
7, 48000, Note_on_c, 2, 84, 79
7, 48050, Note_off_c, 2, 84, 64
7, 51835, Note_on_c, 2, 84, 83
7, 51915, Note_off_c, 2, 84, 64
7, 52320, Note_on_c, 2, 89, 81
7, 52405, Note_off_c, 2, 89, 64
7, 52805, Note_on_c, 2, 84, 71
7, 52885, Note_off_c, 2, 84, 64
7, 53275, Note_on_c, 2, 89, 69
7, 53360, Note_off_c, 2, 89, 64
7, 53765, Note_on_c, 2, 84, 71
7, 53860, Note_off_c, 2, 84, 64
7, 54230, Note_on_c, 2, 89, 67
7, 54320, Note_off_c, 2, 89, 64
7, 54705, Note_on_c, 2, 84, 65
7, 54775, Note_off_c, 2, 84, 64
7, 55520, Control_c, 2, 64, 0
7, 59500, Note_on_c, 2, 84, 109
7, 59520, Note_on_c, 2, 72, 96
7, 60395, Note_off_c, 2, 72, 64
7, 60425, Note_off_c, 2, 84, 64
7, 60475, Note_on_c, 2, 70, 87
7, 60475, Note_on_c, 2, 82, 101
7, 61375, Note_off_c, 2, 82, 64
7, 61380, Note_off_c, 2, 70, 64
7, 61440, Note_on_c, 2, 81, 98
7, 61445, Note_on_c, 2, 69, 71
7, 62325, Note_off_c, 2, 69, 64
7, 62355, Note_off_c, 2, 81, 64
7, 62380, Note_on_c, 2, 77, 104
7, 62385, Note_on_c, 2, 65, 81
7, 63230, Note_off_c, 2, 65, 64
7, 63260, Note_off_c, 2, 77, 64
7, 63345, Note_on_c, 2, 82, 104
7, 63375, Note_on_c, 2, 70, 89
7, 65785, Note_off_c, 2, 70, 64
7, 65805, Note_off_c, 2, 82, 64
7, 69125, Note_on_c, 2, 81, 88
7, 69130, Note_on_c, 2, 69, 76
7, 70965, Note_off_c, 2, 69, 64
7, 70980, Note_off_c, 2, 81, 64
7, 74850, Note_on_c, 2, 84, 101
7, 74855, Note_on_c, 2, 72, 86
7, 75745, Note_off_c, 2, 72, 64
7, 75770, Note_off_c, 2, 84, 64
7, 75820, Note_on_c, 2, 70, 89
7, 75830, Note_on_c, 2, 82, 101
7, 76710, Note_off_c, 2, 82, 64
7, 76720, Note_off_c, 2, 70, 64
7, 76780, Note_on_c, 2, 81, 98
7, 76785, Note_on_c, 2, 69, 71
7, 77670, Note_off_c, 2, 69, 64
7, 77710, Note_off_c, 2, 81, 64
7, 77740, Note_on_c, 2, 77, 101
7, 77750, Note_on_c, 2, 65, 42
7, 78560, Note_off_c, 2, 65, 64
7, 78580, Note_off_c, 2, 77, 64
7, 78720, Note_on_c, 2, 70, 76
7, 78725, Note_on_c, 2, 82, 97
7, 80340, Note_off_c, 2, 82, 64
7, 80345, Note_off_c, 2, 70, 64
7, 82555, Note_on_c, 2, 69, 86
7, 82560, Note_on_c, 2, 81, 96
7, 84410, Note_off_c, 2, 69, 64
7, 84425, Note_off_c, 2, 81, 64
7, 84465, Note_on_c, 2, 79, 109
7, 84470, Note_on_c, 2, 67, 73
7, 86310, Note_off_c, 2, 67, 64
7, 86320, Note_off_c, 2, 79, 64
7, 94035, Control_c, 2, 64, 127
7, 94075, Note_on_c, 2, 84, 76
7, 94150, Note_off_c, 2, 84, 64
7, 97920, Note_on_c, 2, 84, 76
7, 98010, Note_off_c, 2, 84, 64
7, 98405, Note_on_c, 2, 89, 88
7, 98490, Note_off_c, 2, 89, 64
7, 98865, Note_on_c, 2, 84, 88
7, 98955, Note_off_c, 2, 84, 64
7, 99340, Note_on_c, 2, 89, 91
7, 99410, Note_off_c, 2, 89, 64
7, 99835, Note_on_c, 2, 84, 83
7, 99910, Note_off_c, 2, 84, 64
7, 100305, Note_on_c, 2, 89, 86
7, 100385, Note_off_c, 2, 89, 64
7, 100795, Note_on_c, 2, 84, 71
7, 100860, Note_off_c, 2, 84, 64
7, 101280, Note_on_c, 2, 89, 88
7, 101360, Note_off_c, 2, 89, 64
7, 101755, Note_on_c, 2, 84, 86
7, 101820, Note_off_c, 2, 84, 64
7, 105595, Note_on_c, 2, 84, 59
7, 105665, Note_off_c, 2, 84, 64
7, 106085, Note_on_c, 2, 89, 83
7, 106160, Note_off_c, 2, 89, 64
7, 107060, Note_on_c, 2, 89, 81
7, 107155, Note_off_c, 2, 89, 64
7, 107970, Note_on_c, 2, 89, 81
7, 108065, Note_off_c, 2, 89, 64
7, 108450, Note_on_c, 2, 84, 81
7, 108540, Note_off_c, 2, 84, 64
7, 108920, Note_on_c, 2, 89, 76
7, 109015, Note_off_c, 2, 89, 64
7, 109410, Note_on_c, 2, 84, 69
7, 109470, Note_off_c, 2, 84, 64
7, 113305, Note_on_c, 2, 84, 81
7, 113395, Note_off_c, 2, 84, 64
7, 113760, Note_on_c, 2, 89, 86
7, 113855, Note_off_c, 2, 89, 64
7, 114230, Note_on_c, 2, 84, 88
7, 114315, Note_off_c, 2, 84, 64
7, 114695, Note_on_c, 2, 89, 83
7, 114775, Note_off_c, 2, 89, 64
7, 115195, Note_on_c, 2, 84, 83
7, 115270, Note_off_c, 2, 84, 64
7, 115665, Note_on_c, 2, 89, 83
7, 115745, Note_off_c, 2, 89, 64
7, 116160, Note_on_c, 2, 84, 73
7, 116230, Note_off_c, 2, 84, 64
7, 116645, Note_on_c, 2, 89, 88
7, 116725, Note_off_c, 2, 89, 64
7, 117120, Note_on_c, 2, 84, 79
7, 117170, Note_off_c, 2, 84, 64
7, 120955, Note_on_c, 2, 84, 83
7, 121035, Note_off_c, 2, 84, 64
7, 121440, Note_on_c, 2, 89, 81
7, 121525, Note_off_c, 2, 89, 64
7, 121925, Note_on_c, 2, 84, 71
7, 122005, Note_off_c, 2, 84, 64
7, 122395, Note_on_c, 2, 89, 69
7, 122480, Note_off_c, 2, 89, 64
7, 122885, Note_on_c, 2, 84, 71
7, 122980, Note_off_c, 2, 84, 64
7, 123350, Note_on_c, 2, 89, 67
7, 123440, Note_off_c, 2, 89, 64
7, 123825, Note_on_c, 2, 84, 65
7, 123895, Note_off_c, 2, 84, 64
7, 124640, Control_c, 2, 64, 0
7, 128620, Note_on_c, 2, 84, 109
7, 128640, Note_on_c, 2, 72, 96
7, 129515, Note_off_c, 2, 72, 64
7, 129545, Note_off_c, 2, 84, 64
7, 129595, Note_on_c, 2, 70, 87
7, 129595, Note_on_c, 2, 82, 101
7, 130495, Note_off_c, 2, 82, 64
7, 130500, Note_off_c, 2, 70, 64
7, 130560, Note_on_c, 2, 81, 98
7, 130565, Note_on_c, 2, 69, 71
7, 131445, Note_off_c, 2, 69, 64
7, 131475, Note_off_c, 2, 81, 64
7, 131500, Note_on_c, 2, 77, 104
7, 131505, Note_on_c, 2, 65, 81
7, 132350, Note_off_c, 2, 65, 64
7, 132380, Note_off_c, 2, 77, 64
7, 132465, Note_on_c, 2, 82, 104
7, 132495, Note_on_c, 2, 70, 89
7, 134905, Note_off_c, 2, 70, 64
7, 134925, Note_off_c, 2, 82, 64
7, 138245, Note_on_c, 2, 81, 88
7, 138250, Note_on_c, 2, 69, 76
7, 140085, Note_off_c, 2, 69, 64
7, 140100, Note_off_c, 2, 81, 64
7, 143970, Note_on_c, 2, 84, 101
7, 143975, Note_on_c, 2, 72, 86
7, 144865, Note_off_c, 2, 72, 64
7, 144890, Note_off_c, 2, 84, 64
7, 144940, Note_on_c, 2, 70, 89
7, 144950, Note_on_c, 2, 82, 101
7, 145830, Note_off_c, 2, 82, 64
7, 145840, Note_off_c, 2, 70, 64
7, 145900, Note_on_c, 2, 81, 98
7, 145905, Note_on_c, 2, 69, 71
7, 146790, Note_off_c, 2, 69, 64
7, 146830, Note_off_c, 2, 81, 64
7, 146860, Note_on_c, 2, 77, 101
7, 146870, Note_on_c, 2, 65, 42
7, 147680, Note_off_c, 2, 65, 64
7, 147700, Note_off_c, 2, 77, 64
7, 147840, Note_on_c, 2, 70, 76
7, 147845, Note_on_c, 2, 82, 97
7, 149460, Note_off_c, 2, 82, 64
7, 149465, Note_off_c, 2, 70, 64
7, 151675, Note_on_c, 2, 69, 86
7, 151680, Note_on_c, 2, 81, 96
7, 153530, Note_off_c, 2, 69, 64
7, 153545, Note_off_c, 2, 81, 64
7, 153585, Note_on_c, 2, 79, 109
7, 153590, Note_on_c, 2, 67, 73
7, 155430, Note_off_c, 2, 67, 64
7, 155440, Note_off_c, 2, 79, 64
7, 163155, Control_c, 2, 64, 127
7, 163200, Note_on_c, 2, 82, 97
7, 164860, Note_off_c, 2, 82, 64
7, 165120, Note_on_c, 2, 82, 89
7, 166780, Note_off_c, 2, 82, 64
7, 167035, Note_on_c, 2, 82, 83
7, 168410, Note_off_c, 2, 82, 64
7, 168470, Note_on_c, 2, 89, 79
7, 168905, Note_off_c, 2, 89, 64
7, 168990, Note_on_c, 2, 82, 80
7, 170455, Note_off_c, 2, 82, 64
7, 170870, Note_on_c, 2, 77, 98
7, 172575, Note_off_c, 2, 77, 64
7, 172800, Note_on_c, 2, 77, 93
7, 174440, Note_off_c, 2, 77, 64
7, 174730, Note_on_c, 2, 77, 96
7, 176425, Note_off_c, 2, 77, 64
7, 176660, Note_on_c, 2, 77, 91
7, 178055, Note_off_c, 2, 77, 64
7, 178560, Note_on_c, 2, 82, 93
7, 180155, Note_off_c, 2, 82, 64
7, 180470, Note_on_c, 2, 81, 93
7, 182180, Note_off_c, 2, 81, 64
7, 182400, Note_on_c, 2, 79, 109
7, 184105, Note_off_c, 2, 79, 64
7, 184315, Note_on_c, 2, 79, 91
7, 185875, Note_off_c, 2, 79, 64
7, 224640, Note_on_c, 2, 72, 93
7, 225595, Note_off_c, 2, 72, 64
7, 225615, Note_on_c, 2, 70, 87
7, 226465, Note_off_c, 2, 70, 64
7, 226550, Note_on_c, 2, 69, 86
7, 227455, Note_off_c, 2, 69, 64
7, 227510, Note_on_c, 2, 65, 98
7, 228365, Note_off_c, 2, 65, 64
7, 228470, Note_on_c, 2, 70, 93
7, 230215, Note_off_c, 2, 70, 64
7, 230410, Note_on_c, 2, 70, 89
7, 232120, Note_off_c, 2, 70, 64
7, 232325, Note_on_c, 2, 70, 83
7, 234005, Note_off_c, 2, 70, 64
7, 234225, Note_on_c, 2, 70, 87
7, 235885, Note_off_c, 2, 70, 64
7, 236145, Note_on_c, 2, 72, 88
7, 237840, Note_off_c, 2, 72, 64
7, 238090, Note_on_c, 2, 72, 93
7, 239760, Note_off_c, 2, 72, 64
7, 239990, Note_on_c, 2, 72, 83
7, 241625, Note_off_c, 2, 72, 64
7, 241910, Note_on_c, 2, 72, 88
7, 243770, Note_off_c, 2, 72, 64
7, 243845, Note_on_c, 2, 70, 83
7, 245610, Note_off_c, 2, 70, 64
7, 245745, Note_on_c, 2, 77, 96
7, 246585, Note_off_c, 2, 77, 64
7, 246680, Note_on_c, 2, 70, 93
7, 247620, Note_off_c, 2, 70, 64
7, 247675, Note_on_c, 2, 69, 67
7, 249540, Note_off_c, 2, 69, 64
7, 249595, Note_on_c, 2, 67, 91
7, 251440, Note_off_c, 2, 67, 64
7, 251525, Note_on_c, 2, 65, 93
7, 253245, Note_off_c, 2, 65, 64
7, 253445, Note_on_c, 2, 65, 96
7, 255190, Note_off_c, 2, 65, 64
7, 255365, Note_on_c, 2, 72, 93
7, 257085, Note_off_c, 2, 72, 64
7, 257285, Note_on_c, 2, 72, 86
7, 258945, Note_off_c, 2, 72, 64
7, 259190, Note_on_c, 2, 72, 91
7, 260105, Note_off_c, 2, 72, 64
7, 260170, Note_on_c, 2, 70, 87
7, 260950, Control_c, 2, 11, 63
7, 260990, Note_off_c, 2, 70, 64
7, 261010, Control_c, 2, 11, 62
7, 261110, Note_on_c, 2, 69, 81
7, 261330, Control_c, 2, 11, 62
7, 261365, Control_c, 2, 11, 61
7, 261395, Control_c, 2, 11, 61
7, 261580, Control_c, 2, 11, 60
7, 261630, Control_c, 2, 11, 59
7, 262020, Note_off_c, 2, 69, 64
7, 262060, Note_on_c, 2, 65, 88
7, 262115, Control_c, 2, 11, 58
7, 262145, Control_c, 2, 11, 57
7, 262175, Control_c, 2, 11, 57
7, 262940, Control_c, 2, 11, 56
7, 262945, Note_off_c, 2, 65, 64
7, 263040, Note_on_c, 2, 70, 93
7, 263205, Control_c, 2, 11, 56
7, 263270, Control_c, 2, 11, 55
7, 263780, Control_c, 2, 11, 54
7, 263845, Control_c, 2, 11, 54
7, 264100, Control_c, 2, 11, 53
7, 264125, Control_c, 2, 11, 53
7, 264160, Control_c, 2, 11, 52
7, 264670, Control_c, 2, 11, 52
7, 264865, Control_c, 2, 11, 51
7, 264925, Control_c, 2, 11, 50
7, 264955, Control_c, 2, 11, 50
7, 265000, Control_c, 2, 11, 49
7, 265640, Control_c, 2, 11, 48
7, 265835, Control_c, 2, 11, 48
7, 265870, Control_c, 2, 11, 47
7, 266255, Control_c, 2, 11, 47
7, 266420, Control_c, 2, 11, 46
7, 266445, Control_c, 2, 11, 46
7, 266475, Control_c, 2, 11, 45
7, 266505, Control_c, 2, 11, 44
7, 266620, Note_off_c, 2, 70, 64
7, 266860, Note_on_c, 2, 70, 87
7, 266925, Control_c, 2, 11, 44
7, 266965, Control_c, 2, 11, 43
7, 266995, Control_c, 2, 11, 42
7, 267030, Control_c, 2, 11, 41
7, 267425, Control_c, 2, 11, 41
7, 267720, Control_c, 2, 11, 40
7, 267750, Control_c, 2, 11, 40
7, 267780, Control_c, 2, 11, 39
7, 267920, Control_c, 2, 11, 39
7, 267950, Control_c, 2, 11, 38
7, 267985, Control_c, 2, 11, 37
7, 268015, Control_c, 2, 11, 36
7, 268175, Control_c, 2, 11, 36
7, 268235, Control_c, 2, 11, 35
7, 268265, Control_c, 2, 11, 34
7, 268300, Control_c, 2, 11, 33
7, 268335, Control_c, 2, 11, 32
7, 268600, Note_off_c, 2, 70, 64
7, 268620, Control_c, 2, 11, 32
7, 268645, Control_c, 2, 11, 31
7, 268680, Control_c, 2, 11, 30
7, 268710, Control_c, 2, 11, 29
7, 268805, Note_on_c, 2, 70, 83
7, 268910, Control_c, 2, 11, 29
7, 268975, Control_c, 2, 11, 28
7, 269010, Control_c, 2, 11, 27
7, 269045, Control_c, 2, 11, 27
7, 269330, Control_c, 2, 11, 26
7, 269355, Control_c, 2, 11, 26
7, 269385, Control_c, 2, 11, 25
7, 269450, Control_c, 2, 11, 25
7, 269640, Control_c, 2, 11, 24
7, 269670, Control_c, 2, 11, 24
7, 269700, Control_c, 2, 11, 23
7, 269770, Control_c, 2, 11, 23
7, 270070, Control_c, 2, 11, 21
7, 270105, Control_c, 2, 11, 21
7, 270290, Control_c, 2, 11, 20
7, 270320, Control_c, 2, 11, 20
7, 270380, Control_c, 2, 11, 19
7, 270480, Note_off_c, 2, 70, 64
7, 270540, Control_c, 2, 11, 18
7, 270570, Control_c, 2, 11, 18
7, 270605, Control_c, 2, 11, 17
7, 270725, Note_on_c, 2, 72, 91
7, 270815, Control_c, 2, 11, 17
7, 270845, Control_c, 2, 11, 16
7, 270880, Control_c, 2, 11, 16
7, 270970, Control_c, 2, 11, 15
7, 271260, Control_c, 2, 11, 15
7, 271285, Control_c, 2, 11, 14
7, 271320, Control_c, 2, 11, 14
7, 271510, Control_c, 2, 11, 13
7, 271540, Control_c, 2, 11, 13
7, 271570, Control_c, 2, 11, 12
7, 271600, Control_c, 2, 11, 12
7, 271635, Control_c, 2, 11, 11
7, 271705, Control_c, 2, 11, 11
7, 271795, Control_c, 2, 11, 10
7, 271895, Control_c, 2, 11, 10
7, 271960, Control_c, 2, 11, 9
7, 271990, Control_c, 2, 11, 8
7, 272020, Control_c, 2, 11, 8
7, 272050, Control_c, 2, 11, 7
7, 272085, Control_c, 2, 11, 7
7, 272145, Control_c, 2, 11, 6
7, 272300, Control_c, 2, 11, 6
7, 272330, Control_c, 2, 11, 5
7, 272355, Note_off_c, 2, 72, 64
7, 272360, Control_c, 2, 11, 5
7, 272435, Control_c, 2, 11, 4
7, 272580, Control_c, 2, 11, 4
7, 272645, Note_on_c, 2, 72, 86
7, 272645, Control_c, 2, 11, 3
7, 272685, Control_c, 2, 11, 2
7, 272960, Control_c, 2, 11, 1
7, 273240, Control_c, 2, 11, 1
7, 273880, Control_c, 2, 11, 0
7, 274275, Note_off_c, 2, 72, 64
7, 274570, Note_on_c, 2, 72, 83
7, 279580, Note_off_c, 2, 72, 64
7, 280320, Control_c, 2, 64, 0
7, 280320, End_track
8, 0, Start_track
8, 0, Title_t, "Keyboard 2"
8, 0, MIDI_port, 0
8, 0, Channel_prefix, 3
8, 0, Control_c, 3, 7, 96
8, 0, Control_c, 3, 10, 62
8, 0, Program_c, 3, 81
8, 0, Control_c, 3, 91, 127
8, 0, Control_c, 3, 93, 0
8, 162745, Note_on_c, 3, 70, 110
8, 162845, Note_off_c, 3, 70, 64
8, 162965, Note_on_c, 3, 70, 104
8, 163085, Note_off_c, 3, 70, 64
8, 163180, Pitch_bend_c, 3, 8103
8, 163195, Pitch_bend_c, 3, 5898
8, 163205, Pitch_bend_c, 3, 2844
8, 163210, Note_on_c, 3, 74, 109
8, 163215, Pitch_bend_c, 3, 0
8, 163320, Pitch_bend_c, 3, 813
8, 163330, Pitch_bend_c, 3, 1965
8, 163340, Pitch_bend_c, 3, 3161
8, 163350, Pitch_bend_c, 3, 4304
8, 163365, Pitch_bend_c, 3, 5376
8, 163375, Pitch_bend_c, 3, 6313
8, 163385, Pitch_bend_c, 3, 7001
8, 163395, Pitch_bend_c, 3, 7572
8, 163405, Pitch_bend_c, 3, 8081
8, 163420, Pitch_bend_c, 3, 8121
8, 163430, Pitch_bend_c, 3, 8192
8, 163585, Note_off_c, 3, 74, 64
8, 163680, Note_on_c, 3, 77, 115
8, 163995, Control_c, 3, 1, 76
8, 164535, Note_off_c, 3, 77, 64
8, 164590, Control_c, 3, 1, 0
8, 164655, Note_on_c, 3, 77, 115
8, 165040, Note_off_c, 3, 77, 64
8, 165115, Note_on_c, 3, 79, 109
8, 165290, Note_off_c, 3, 79, 64
8, 165345, Note_on_c, 3, 77, 101
8, 165460, Note_off_c, 3, 77, 64
8, 165585, Note_on_c, 3, 77, 104
8, 165875, Control_c, 3, 1, 76
8, 166000, Note_off_c, 3, 77, 64
8, 166090, Note_on_c, 3, 77, 112
8, 166105, Control_c, 3, 1, 0
8, 166455, Note_off_c, 3, 77, 64
8, 166575, Note_on_c, 3, 70, 104
8, 166650, Note_off_c, 3, 70, 64
8, 166780, Note_on_c, 3, 70, 101
8, 166930, Note_off_c, 3, 70, 64
8, 167020, Pitch_bend_c, 3, 7469
8, 167030, Pitch_bend_c, 3, 4505
8, 167040, Pitch_bend_c, 3, 1326
8, 167045, Note_on_c, 3, 74, 101
8, 167050, Pitch_bend_c, 3, 0
8, 167140, Pitch_bend_c, 3, 393
8, 167150, Pitch_bend_c, 3, 1608
8, 167160, Pitch_bend_c, 3, 2929
8, 167170, Pitch_bend_c, 3, 4215
8, 167180, Pitch_bend_c, 3, 5456
8, 167190, Pitch_bend_c, 3, 6429
8, 167205, Pitch_bend_c, 3, 7304
8, 167215, Pitch_bend_c, 3, 8063
8, 167225, Pitch_bend_c, 3, 8192
8, 167400, Note_off_c, 3, 74, 64
8, 167500, Note_on_c, 3, 77, 115
8, 167770, Pitch_bend_c, 3, 8153
8, 167780, Pitch_bend_c, 3, 8112
8, 167790, Pitch_bend_c, 3, 8081
8, 167805, Pitch_bend_c, 3, 8050
8, 167815, Pitch_bend_c, 3, 8001
8, 167820, Control_c, 3, 1, 76
8, 167835, Pitch_bend_c, 3, 8010
8, 167970, Pitch_bend_c, 3, 8019
8, 168360, Note_off_c, 3, 77, 64
8, 168440, Pitch_bend_c, 3, 8063
8, 168450, Pitch_bend_c, 3, 8192
8, 168465, Note_on_c, 3, 77, 115
8, 168485, Control_c, 3, 1, 0
8, 168875, Note_off_c, 3, 77, 64
8, 168955, Note_on_c, 3, 79, 104
8, 169135, Note_off_c, 3, 79, 64
8, 169195, Note_on_c, 3, 77, 98
8, 169305, Note_off_c, 3, 77, 64
8, 169435, Note_on_c, 3, 77, 101
8, 169805, Note_off_c, 3, 77, 64
8, 169925, Note_on_c, 3, 77, 104
8, 170250, Note_off_c, 3, 77, 64
8, 170405, Note_on_c, 3, 65, 104
8, 170525, Note_off_c, 3, 65, 64
8, 170635, Note_on_c, 3, 65, 101
8, 170820, Note_off_c, 3, 65, 64
8, 170835, Pitch_bend_c, 3, 7791
8, 170845, Pitch_bend_c, 3, 4898
8, 170860, Pitch_bend_c, 3, 1791
8, 170870, Pitch_bend_c, 3, 0
8, 170880, Note_on_c, 3, 69, 104
8, 170945, Pitch_bend_c, 3, 206
8, 170955, Pitch_bend_c, 3, 1608
8, 170970, Pitch_bend_c, 3, 3233
8, 170980, Pitch_bend_c, 3, 5161
8, 170985, Pitch_bend_c, 3, 7001
8, 170995, Pitch_bend_c, 3, 8153
8, 171005, Pitch_bend_c, 3, 8192
8, 171280, Note_off_c, 3, 69, 64
8, 171365, Note_on_c, 3, 72, 112
8, 172205, Note_off_c, 3, 72, 64
8, 172280, Pitch_bend_c, 3, 7184
8, 172290, Pitch_bend_c, 3, 4184
8, 172295, Note_on_c, 3, 74, 109
8, 172300, Pitch_bend_c, 3, 612
8, 172310, Pitch_bend_c, 3, 0
8, 172410, Pitch_bend_c, 3, 938
8, 172420, Pitch_bend_c, 3, 2125
8, 172430, Pitch_bend_c, 3, 3358
8, 172445, Pitch_bend_c, 3, 4661
8, 172455, Pitch_bend_c, 3, 5965
8, 172465, Pitch_bend_c, 3, 7036
8, 172475, Pitch_bend_c, 3, 8072
8, 172485, Pitch_bend_c, 3, 8192
8, 172570, Note_off_c, 3, 74, 64
8, 172770, Note_on_c, 3, 69, 101
8, 172995, Note_off_c, 3, 69, 64
8, 173035, Note_on_c, 3, 67, 98
8, 173205, Note_off_c, 3, 67, 64
8, 173265, Note_on_c, 3, 65, 109
8, 173645, Note_off_c, 3, 65, 64
8, 173760, Note_on_c, 3, 65, 101
8, 174110, Note_off_c, 3, 65, 64
8, 174250, Note_on_c, 3, 65, 98
8, 174360, Note_off_c, 3, 65, 64
8, 174470, Note_on_c, 3, 65, 96
8, 174635, Note_off_c, 3, 65, 64
8, 174690, Pitch_bend_c, 3, 7327
8, 174700, Pitch_bend_c, 3, 4184
8, 174710, Pitch_bend_c, 3, 844
8, 174715, Note_on_c, 3, 69, 112
8, 174720, Pitch_bend_c, 3, 0
8, 174805, Pitch_bend_c, 3, 715
8, 174815, Pitch_bend_c, 3, 2251
8, 174825, Pitch_bend_c, 3, 3893
8, 174835, Pitch_bend_c, 3, 5501
8, 174850, Pitch_bend_c, 3, 6894
8, 174860, Pitch_bend_c, 3, 8108
8, 174870, Pitch_bend_c, 3, 8192
8, 175115, Note_off_c, 3, 69, 64
8, 175200, Note_on_c, 3, 72, 118
8, 175565, Control_c, 3, 1, 76
8, 176060, Control_c, 3, 1, 0
8, 176085, Note_off_c, 3, 72, 64
8, 176165, Note_on_c, 3, 74, 109
8, 176390, Note_off_c, 3, 74, 64
8, 176555, Pitch_bend_c, 3, 7184
8, 176565, Pitch_bend_c, 3, 4469
8, 176575, Pitch_bend_c, 3, 1648
8, 176585, Pitch_bend_c, 3, 0
8, 176625, Note_on_c, 3, 69, 104
8, 176675, Pitch_bend_c, 3, 1108
8, 176685, Pitch_bend_c, 3, 2465
8, 176695, Pitch_bend_c, 3, 3893
8, 176705, Pitch_bend_c, 3, 5393
8, 176720, Pitch_bend_c, 3, 6751
8, 176730, Pitch_bend_c, 3, 8001
8, 176740, Pitch_bend_c, 3, 8192
8, 176865, Note_off_c, 3, 69, 64
8, 176870, Note_on_c, 3, 67, 101
8, 177025, Note_off_c, 3, 67, 64
8, 177110, Note_on_c, 3, 65, 98
8, 177485, Note_off_c, 3, 65, 64
8, 177600, Note_on_c, 3, 65, 101
8, 177930, Note_off_c, 3, 65, 64
8, 178080, Note_on_c, 3, 70, 101
8, 178175, Note_off_c, 3, 70, 64
8, 178305, Note_on_c, 3, 70, 101
8, 178465, Note_off_c, 3, 70, 64
8, 178530, Pitch_bend_c, 3, 6630
8, 178540, Pitch_bend_c, 3, 3612
8, 178550, Pitch_bend_c, 3, 326
8, 178560, Pitch_bend_c, 3, 0
8, 178565, Note_on_c, 3, 74, 109
8, 178650, Pitch_bend_c, 3, 251
8, 178660, Pitch_bend_c, 3, 1465
8, 178670, Pitch_bend_c, 3, 2733
8, 178680, Pitch_bend_c, 3, 3983
8, 178690, Pitch_bend_c, 3, 5251
8, 178700, Pitch_bend_c, 3, 6429
8, 178715, Pitch_bend_c, 3, 7527
8, 178725, Pitch_bend_c, 3, 8144
8, 178730, Pitch_bend_c, 3, 8192
8, 178925, Note_off_c, 3, 74, 64
8, 179025, Note_on_c, 3, 77, 112
8, 179410, Note_off_c, 3, 77, 64
8, 179495, Note_on_c, 3, 77, 104
8, 179860, Note_off_c, 3, 77, 64
8, 179985, Note_on_c, 3, 77, 109
8, 180410, Note_off_c, 3, 77, 64
8, 180475, Note_on_c, 3, 79, 98
8, 180685, Note_on_c, 3, 77, 93
8, 180735, Note_off_c, 3, 79, 64
8, 180805, Note_off_c, 3, 77, 64
8, 180945, Note_on_c, 3, 77, 104
8, 181320, Note_off_c, 3, 77, 64
8, 181440, Note_on_c, 3, 77, 109
8, 181840, Note_off_c, 3, 77, 64
8, 181920, Note_on_c, 3, 74, 101
8, 182070, Note_off_c, 3, 74, 64
8, 182150, Note_on_c, 3, 77, 104
8, 182300, Note_off_c, 3, 77, 64
8, 182385, Note_on_c, 3, 79, 109
8, 182590, Note_off_c, 3, 79, 64
8, 182625, Note_on_c, 3, 77, 101
8, 182765, Note_off_c, 3, 77, 64
8, 182880, Note_on_c, 3, 77, 109
8, 183225, Note_off_c, 3, 77, 64
8, 183360, Note_on_c, 3, 77, 118
8, 183705, Note_off_c, 3, 77, 64
8, 183860, Note_on_c, 3, 77, 115
8, 184260, Control_c, 3, 1, 76
8, 184680, Note_off_c, 3, 77, 64
8, 184730, Control_c, 3, 1, 0
8, 184780, Note_on_c, 3, 77, 104
8, 185150, Note_off_c, 3, 77, 64
8, 185260, Note_on_c, 3, 77, 112
8, 185470, Note_off_c, 3, 77, 64
8, 185515, Note_on_c, 3, 79, 109
8, 185980, Note_off_c, 3, 79, 64
8, 185980, End_track
9, 0, Start_track
9, 0, Title_t, "Guitar 1"
9, 0, MIDI_port, 0
9, 0, Channel_prefix, 4
9, 0, Control_c, 4, 7, 127
9, 0, Control_c, 4, 10, 64
9, 0, Program_c, 4, 25
9, 0, Control_c, 4, 91, 120
9, 0, Control_c, 4, 93, 46
9, 1920, Note_on_c, 4, 57, 101
9, 1920, Note_on_c, 4, 69, 81
9, 1960, Control_c, 4, 64, 127
9, 1960, Control_c, 4, 64, 127
9, 2145, Note_on_c, 4, 48, 71
9, 2145, Note_on_c, 4, 60, 51
9, 2195, Note_off_c, 4, 69, 64
9, 2195, Note_off_c, 4, 57, 64
9, 2390, Note_off_c, 4, 48, 64
9, 2390, Note_off_c, 4, 60, 64
9, 2395, Note_on_c, 4, 53, 79
9, 2395, Note_on_c, 4, 65, 59
9, 2600, Note_off_c, 4, 65, 64
9, 2600, Note_off_c, 4, 53, 64
9, 2645, Note_on_c, 4, 58, 93
9, 2645, Note_on_c, 4, 70, 73
9, 3120, Note_on_c, 4, 48, 69
9, 3120, Note_on_c, 4, 60, 49
9, 3145, Note_off_c, 4, 70, 64
9, 3145, Note_off_c, 4, 58, 64
9, 3365, Note_on_c, 4, 53, 73
9, 3365, Note_on_c, 4, 65, 53
9, 3490, Note_off_c, 4, 48, 64
9, 3490, Note_off_c, 4, 60, 64
9, 3575, Note_off_c, 4, 53, 64
9, 3575, Note_off_c, 4, 65, 64
9, 3580, Note_on_c, 4, 58, 89
9, 3580, Note_on_c, 4, 70, 69
9, 3740, Note_off_c, 4, 70, 64
9, 3740, Note_off_c, 4, 58, 64
9, 3760, Control_c, 4, 64, 0
9, 3830, Note_on_c, 4, 57, 93
9, 3830, Note_on_c, 4, 69, 73
9, 4055, Note_on_c, 4, 48, 71
9, 4055, Note_on_c, 4, 60, 51
9, 4115, Note_off_c, 4, 69, 64
9, 4115, Note_off_c, 4, 57, 64
9, 4145, Control_c, 4, 64, 127
9, 4145, Control_c, 4, 64, 127
9, 4290, Note_on_c, 4, 53, 73
9, 4290, Note_on_c, 4, 65, 53
9, 4480, Note_off_c, 4, 48, 64
9, 4480, Note_off_c, 4, 60, 64
9, 4485, Note_off_c, 4, 53, 64
9, 4485, Note_off_c, 4, 65, 64
9, 4555, Note_on_c, 4, 55, 98
9, 4555, Note_on_c, 4, 67, 78
9, 4995, Note_off_c, 4, 67, 64
9, 4995, Note_off_c, 4, 55, 64
9, 5020, Note_on_c, 4, 57, 88
9, 5020, Note_on_c, 4, 69, 68
9, 5245, Note_off_c, 4, 69, 64
9, 5245, Note_off_c, 4, 57, 64
9, 5275, Note_on_c, 4, 55, 79
9, 5275, Note_on_c, 4, 67, 59
9, 5465, Note_off_c, 4, 67, 64
9, 5465, Note_off_c, 4, 55, 64
9, 5510, Note_on_c, 4, 53, 41
9, 5510, Note_on_c, 4, 65, 21
9, 5640, Control_c, 4, 64, 0
9, 5660, Note_off_c, 4, 65, 64
9, 5660, Note_off_c, 4, 53, 64
9, 5745, Note_on_c, 4, 57, 98
9, 5745, Note_on_c, 4, 69, 78
9, 5970, Note_on_c, 4, 48, 50
9, 5970, Note_on_c, 4, 60, 30
9, 6040, Note_off_c, 4, 69, 64
9, 6040, Note_off_c, 4, 57, 64
9, 6100, Control_c, 4, 64, 127
9, 6100, Control_c, 4, 64, 127
9, 6245, Note_on_c, 4, 53, 69
9, 6245, Note_on_c, 4, 65, 49
9, 6325, Note_off_c, 4, 48, 64
9, 6325, Note_off_c, 4, 60, 64
9, 6465, Note_off_c, 4, 53, 64
9, 6465, Note_off_c, 4, 65, 64
9, 6480, Note_on_c, 4, 58, 97
9, 6480, Note_on_c, 4, 70, 77
9, 6965, Note_on_c, 4, 48, 71
9, 6965, Note_on_c, 4, 60, 51
9, 6995, Note_off_c, 4, 70, 64
9, 6995, Note_off_c, 4, 58, 64
9, 7210, Note_on_c, 4, 53, 76
9, 7210, Note_on_c, 4, 65, 56
9, 7365, Note_off_c, 4, 48, 64
9, 7365, Note_off_c, 4, 60, 64
9, 7410, Note_off_c, 4, 53, 64
9, 7410, Note_off_c, 4, 65, 64
9, 7430, Note_on_c, 4, 58, 87
9, 7430, Note_on_c, 4, 70, 67
9, 7580, Note_off_c, 4, 70, 64
9, 7580, Note_off_c, 4, 58, 64
9, 7585, Control_c, 4, 64, 0
9, 7680, Note_on_c, 4, 57, 91
9, 7680, Note_on_c, 4, 69, 71
9, 7910, Note_on_c, 4, 48, 61
9, 7910, Note_on_c, 4, 60, 41
9, 7955, Note_off_c, 4, 69, 64
9, 7955, Note_off_c, 4, 57, 64
9, 7985, Control_c, 4, 64, 127
9, 7985, Control_c, 4, 64, 127
9, 8160, Note_on_c, 4, 53, 79
9, 8160, Note_on_c, 4, 65, 59
9, 8370, Note_off_c, 4, 65, 64
9, 8370, Note_off_c, 4, 53, 64
9, 8370, Note_off_c, 4, 48, 64
9, 8370, Note_off_c, 4, 60, 64
9, 8410, Note_on_c, 4, 55, 88
9, 8410, Note_on_c, 4, 67, 68
9, 8470, Control_c, 4, 64, 0
9, 8880, Note_on_c, 4, 57, 91
9, 8880, Note_on_c, 4, 69, 71
9, 8925, Note_off_c, 4, 67, 64
9, 8925, Note_off_c, 4, 55, 64
9, 9135, Note_on_c, 4, 55, 86
9, 9135, Note_on_c, 4, 67, 66
9, 9175, Note_off_c, 4, 57, 64
9, 9175, Note_off_c, 4, 69, 64
9, 9360, Note_on_c, 4, 53, 88
9, 9360, Note_on_c, 4, 65, 68
9, 9395, Note_off_c, 4, 55, 64
9, 9395, Note_off_c, 4, 67, 64
9, 10030, Pitch_bend_c, 4, 7612
9, 10040, Pitch_bend_c, 4, 6201
9, 10050, Pitch_bend_c, 4, 4898
9, 10060, Pitch_bend_c, 4, 3791
9, 10070, Pitch_bend_c, 4, 3148
9, 10080, Pitch_bend_c, 4, 2956
9, 10095, Pitch_bend_c, 4, 2947
9, 10115, Pitch_bend_c, 4, 2956
9, 10125, Pitch_bend_c, 4, 3184
9, 10135, Pitch_bend_c, 4, 3625
9, 10145, Pitch_bend_c, 4, 4206
9, 10155, Pitch_bend_c, 4, 5134
9, 10170, Pitch_bend_c, 4, 6393
9, 10180, Pitch_bend_c, 4, 7894
9, 10190, Pitch_bend_c, 4, 8192
9, 10475, Pitch_bend_c, 4, 8019
9, 10490, Pitch_bend_c, 4, 6077
9, 10500, Pitch_bend_c, 4, 3916
9, 10510, Pitch_bend_c, 4, 1898
9, 10520, Pitch_bend_c, 4, 469
9, 10530, Pitch_bend_c, 4, 0
9, 10570, Pitch_bend_c, 4, 474
9, 10580, Pitch_bend_c, 4, 1090
9, 10595, Pitch_bend_c, 4, 1849
9, 10605, Pitch_bend_c, 4, 2849
9, 10615, Pitch_bend_c, 4, 4090
9, 10625, Pitch_bend_c, 4, 5715
9, 10635, Pitch_bend_c, 4, 7447
9, 10645, Pitch_bend_c, 4, 8192
9, 10965, Pitch_bend_c, 4, 7612
9, 10975, Pitch_bend_c, 4, 5666
9, 10985, Pitch_bend_c, 4, 3469
9, 11000, Pitch_bend_c, 4, 1184
9, 11005, Pitch_bend_c, 4, 0
9, 11065, Pitch_bend_c, 4, 215
9, 11080, Pitch_bend_c, 4, 1090
9, 11090, Pitch_bend_c, 4, 2134
9, 11100, Pitch_bend_c, 4, 3536
9, 11110, Pitch_bend_c, 4, 5251
9, 11120, Pitch_bend_c, 4, 6983
9, 11130, Pitch_bend_c, 4, 8184
9, 11140, Pitch_bend_c, 4, 8192
9, 11450, Pitch_bend_c, 4, 7505
9, 11460, Pitch_bend_c, 4, 5773
9, 11470, Pitch_bend_c, 4, 3755
9, 11480, Pitch_bend_c, 4, 1898
9, 11495, Pitch_bend_c, 4, 362
9, 11505, Pitch_bend_c, 4, 0
9, 11545, Pitch_bend_c, 4, 108
9, 11555, Pitch_bend_c, 4, 938
9, 11565, Pitch_bend_c, 4, 1947
9, 11575, Pitch_bend_c, 4, 3322
9, 11585, Pitch_bend_c, 4, 5108
9, 11595, Pitch_bend_c, 4, 7036
9, 11605, Pitch_bend_c, 4, 8192
9, 12485, Control_c, 4, 64, 127
9, 12485, Control_c, 4, 64, 127
9, 12595, Note_off_c, 4, 53, 64
9, 12595, Note_off_c, 4, 65, 64
9, 13330, Control_c, 4, 64, 0
9, 13455, Note_on_c, 4, 57, 98
9, 13455, Note_on_c, 4, 69, 78
9, 13675, Note_on_c, 4, 48, 69
9, 13675, Note_on_c, 4, 60, 49
9, 13740, Control_c, 4, 64, 127
9, 13740, Control_c, 4, 64, 127
9, 13745, Note_off_c, 4, 69, 64
9, 13745, Note_off_c, 4, 57, 64
9, 13915, Note_on_c, 4, 53, 73
9, 13915, Note_on_c, 4, 65, 53
9, 14015, Note_off_c, 4, 48, 64
9, 14015, Note_off_c, 4, 60, 64
9, 14135, Note_off_c, 4, 53, 64
9, 14135, Note_off_c, 4, 65, 64
9, 14150, Control_c, 4, 64, 0
9, 14175, Note_on_c, 4, 58, 93
9, 14175, Note_on_c, 4, 70, 73
9, 14570, Control_c, 4, 64, 127
9, 14570, Control_c, 4, 64, 127
9, 14645, Note_on_c, 4, 48, 73
9, 14645, Note_on_c, 4, 60, 53
9, 14690, Note_off_c, 4, 70, 64
9, 14690, Note_off_c, 4, 58, 64
9, 14895, Note_on_c, 4, 53, 71
9, 14895, Note_on_c, 4, 65, 51
9, 15010, Note_off_c, 4, 48, 64
9, 15010, Note_off_c, 4, 60, 64
9, 15110, Note_off_c, 4, 53, 64
9, 15110, Note_off_c, 4, 65, 64
9, 15115, Note_on_c, 4, 58, 89
9, 15115, Note_on_c, 4, 70, 69
9, 15250, Control_c, 4, 64, 0
9, 15275, Note_off_c, 4, 70, 64
9, 15275, Note_off_c, 4, 58, 64
9, 15360, Note_on_c, 4, 57, 93
9, 15360, Note_on_c, 4, 69, 73
9, 15590, Note_on_c, 4, 48, 67
9, 15590, Note_on_c, 4, 60, 47
9, 15635, Note_off_c, 4, 69, 64
9, 15635, Note_off_c, 4, 57, 64
9, 15730, Control_c, 4, 64, 127
9, 15730, Control_c, 4, 64, 127
9, 15835, Note_on_c, 4, 53, 83
9, 15835, Note_on_c, 4, 65, 63
9, 16050, Note_off_c, 4, 65, 64
9, 16050, Note_off_c, 4, 53, 64
9, 16075, Note_off_c, 4, 48, 64
9, 16075, Note_off_c, 4, 60, 64
9, 16080, Note_on_c, 4, 55, 91
9, 16080, Note_on_c, 4, 67, 71
9, 16205, Control_c, 4, 64, 0
9, 16560, Note_on_c, 4, 57, 86
9, 16560, Note_on_c, 4, 69, 66
9, 16630, Note_off_c, 4, 67, 64
9, 16630, Note_off_c, 4, 55, 64
9, 16800, Note_on_c, 4, 55, 86
9, 16800, Note_on_c, 4, 67, 66
9, 16860, Note_off_c, 4, 57, 64
9, 16860, Note_off_c, 4, 69, 64
9, 17040, Note_on_c, 4, 53, 91
9, 17040, Note_on_c, 4, 65, 71
9, 17070, Note_off_c, 4, 55, 64
9, 17070, Note_off_c, 4, 67, 64
9, 17350, Control_c, 4, 1, 76
9, 18945, Control_c, 4, 1, 0
9, 20055, Control_c, 4, 64, 127
9, 20055, Control_c, 4, 64, 127
9, 20355, Note_off_c, 4, 53, 64
9, 20355, Note_off_c, 4, 65, 64
9, 21000, Control_c, 4, 64, 0
9, 21130, Note_on_c, 4, 57, 98
9, 21130, Note_on_c, 4, 69, 78
9, 21355, Note_on_c, 4, 48, 65
9, 21355, Note_on_c, 4, 60, 45
9, 21415, Note_off_c, 4, 69, 64
9, 21415, Note_off_c, 4, 57, 64
9, 21540, Control_c, 4, 64, 127
9, 21540, Control_c, 4, 64, 127
9, 21590, Note_on_c, 4, 53, 71
9, 21590, Note_on_c, 4, 65, 51
9, 21715, Note_off_c, 4, 48, 64
9, 21715, Note_off_c, 4, 60, 64
9, 21840, Note_off_c, 4, 53, 64
9, 21840, Note_off_c, 4, 65, 64
9, 21850, Note_on_c, 4, 58, 89
9, 21850, Note_on_c, 4, 70, 69
9, 22320, Note_on_c, 4, 48, 65
9, 22320, Note_on_c, 4, 60, 45
9, 22350, Note_off_c, 4, 70, 64
9, 22350, Note_off_c, 4, 58, 64
9, 22570, Note_on_c, 4, 53, 73
9, 22570, Note_on_c, 4, 65, 53
9, 22720, Note_off_c, 4, 48, 64
9, 22720, Note_off_c, 4, 60, 64
9, 22800, Note_off_c, 4, 53, 64
9, 22800, Note_off_c, 4, 65, 64
9, 22805, Note_on_c, 4, 58, 87
9, 22805, Note_on_c, 4, 70, 67
9, 22960, Note_off_c, 4, 70, 64
9, 22960, Note_off_c, 4, 58, 64
9, 22975, Control_c, 4, 64, 0
9, 23040, Note_on_c, 4, 57, 93
9, 23040, Note_on_c, 4, 69, 73
9, 23260, Note_on_c, 4, 48, 69
9, 23260, Note_on_c, 4, 60, 49
9, 23320, Note_off_c, 4, 69, 64
9, 23320, Note_off_c, 4, 57, 64
9, 23435, Control_c, 4, 64, 127
9, 23435, Control_c, 4, 64, 127
9, 23515, Note_on_c, 4, 53, 76
9, 23515, Note_on_c, 4, 65, 56
9, 23715, Note_off_c, 4, 48, 64
9, 23715, Note_off_c, 4, 60, 64
9, 23720, Note_off_c, 4, 53, 64
9, 23720, Note_off_c, 4, 65, 64
9, 23780, Note_on_c, 4, 55, 88
9, 23780, Note_on_c, 4, 67, 68
9, 23815, Control_c, 4, 64, 0
9, 24235, Note_on_c, 4, 57, 88
9, 24235, Note_on_c, 4, 69, 68
9, 24290, Note_off_c, 4, 67, 64
9, 24290, Note_off_c, 4, 55, 64
9, 24470, Note_on_c, 4, 55, 81
9, 24470, Note_on_c, 4, 67, 61
9, 24535, Note_off_c, 4, 57, 64
9, 24535, Note_off_c, 4, 69, 64
9, 24710, Note_on_c, 4, 53, 91
9, 24710, Note_on_c, 4, 65, 71
9, 24740, Note_off_c, 4, 55, 64
9, 24740, Note_off_c, 4, 67, 64
9, 24900, Pitch_bend_c, 4, 7827
9, 24910, Pitch_bend_c, 4, 6327
9, 24920, Pitch_bend_c, 4, 4505
9, 24935, Pitch_bend_c, 4, 2684
9, 24945, Pitch_bend_c, 4, 1081
9, 24955, Pitch_bend_c, 4, 184
9, 24965, Pitch_bend_c, 4, 0
9, 25015, Pitch_bend_c, 4, 393
9, 25025, Pitch_bend_c, 4, 1179
9, 25035, Pitch_bend_c, 4, 2108
9, 25045, Pitch_bend_c, 4, 3215
9, 25055, Pitch_bend_c, 4, 4608
9, 25070, Pitch_bend_c, 4, 6251
9, 25080, Pitch_bend_c, 4, 8019
9, 25090, Pitch_bend_c, 4, 8192
9, 25395, Pitch_bend_c, 4, 7773
9, 25410, Pitch_bend_c, 4, 6201
9, 25420, Pitch_bend_c, 4, 4398
9, 25430, Pitch_bend_c, 4, 2755
9, 25440, Pitch_bend_c, 4, 1612
9, 25450, Pitch_bend_c, 4, 1273
9, 25465, Pitch_bend_c, 4, 1264
9, 25475, Pitch_bend_c, 4, 1273
9, 25485, Pitch_bend_c, 4, 1456
9, 25495, Pitch_bend_c, 4, 1876
9, 25505, Pitch_bend_c, 4, 2554
9, 25515, Pitch_bend_c, 4, 3349
9, 25525, Pitch_bend_c, 4, 4483
9, 25540, Pitch_bend_c, 4, 5893
9, 25550, Pitch_bend_c, 4, 7429
9, 25560, Pitch_bend_c, 4, 8192
9, 25880, Pitch_bend_c, 4, 8050
9, 25890, Pitch_bend_c, 4, 6630
9, 25900, Pitch_bend_c, 4, 4934
9, 25910, Pitch_bend_c, 4, 3398
9, 25920, Pitch_bend_c, 4, 2309
9, 25930, Pitch_bend_c, 4, 1666
9, 25940, Pitch_bend_c, 4, 1434
9, 25955, Pitch_bend_c, 4, 1407
9, 25975, Pitch_bend_c, 4, 1501
9, 25985, Pitch_bend_c, 4, 1844
9, 25995, Pitch_bend_c, 4, 2465
9, 26005, Pitch_bend_c, 4, 3277
9, 26015, Pitch_bend_c, 4, 4465
9, 26030, Pitch_bend_c, 4, 5893
9, 26040, Pitch_bend_c, 4, 7394
9, 26050, Pitch_bend_c, 4, 8184
9, 26060, Pitch_bend_c, 4, 8192
9, 26400, Pitch_bend_c, 4, 7630
9, 26410, Pitch_bend_c, 4, 6184
9, 26420, Pitch_bend_c, 4, 4559
9, 26430, Pitch_bend_c, 4, 3148
9, 26440, Pitch_bend_c, 4, 2228
9, 26450, Pitch_bend_c, 4, 1840
9, 26465, Pitch_bend_c, 4, 1755
9, 26495, Pitch_bend_c, 4, 1777
9, 26505, Pitch_bend_c, 4, 2077
9, 26515, Pitch_bend_c, 4, 2661
9, 26525, Pitch_bend_c, 4, 3340
9, 26535, Pitch_bend_c, 4, 4429
9, 26550, Pitch_bend_c, 4, 5804
9, 26560, Pitch_bend_c, 4, 7228
9, 26570, Pitch_bend_c, 4, 8086
9, 26580, Pitch_bend_c, 4, 8139
9, 26600, Pitch_bend_c, 4, 8192
9, 26610, Pitch_bend_c, 4, 8148
9, 26620, Pitch_bend_c, 4, 8192
9, 26635, Pitch_bend_c, 4, 8184
9, 26640, Pitch_bend_c, 4, 8192
9, 26655, Pitch_bend_c, 4, 8184
9, 26665, Pitch_bend_c, 4, 8192
9, 26905, Pitch_bend_c, 4, 8134
9, 26915, Pitch_bend_c, 4, 7612
9, 26925, Pitch_bend_c, 4, 6541
9, 26940, Pitch_bend_c, 4, 5291
9, 26950, Pitch_bend_c, 4, 3969
9, 26960, Pitch_bend_c, 4, 2844
9, 26970, Pitch_bend_c, 4, 2184
9, 26980, Pitch_bend_c, 4, 1826
9, 26990, Pitch_bend_c, 4, 1675
9, 27000, Pitch_bend_c, 4, 1625
9, 27035, Pitch_bend_c, 4, 1670
9, 27045, Pitch_bend_c, 4, 2036
9, 27055, Pitch_bend_c, 4, 2653
9, 27065, Pitch_bend_c, 4, 3393
9, 27080, Pitch_bend_c, 4, 4134
9, 27090, Pitch_bend_c, 4, 4452
9, 27100, Pitch_bend_c, 4, 4545
9, 27110, Pitch_bend_c, 4, 4639
9, 27120, Pitch_bend_c, 4, 4706
9, 27130, Pitch_bend_c, 4, 4733
9, 27150, Pitch_bend_c, 4, 4755
9, 27175, Pitch_bend_c, 4, 4804
9, 27185, Pitch_bend_c, 4, 4822
9, 27250, Pitch_bend_c, 4, 4858
9, 27260, Pitch_bend_c, 4, 4978
9, 27270, Pitch_bend_c, 4, 5264
9, 27280, Pitch_bend_c, 4, 5483
9, 27290, Pitch_bend_c, 4, 5782
9, 27300, Pitch_bend_c, 4, 6242
9, 27315, Pitch_bend_c, 4, 6876
9, 27325, Pitch_bend_c, 4, 7519
9, 27335, Pitch_bend_c, 4, 7706
9, 27345, Pitch_bend_c, 4, 7715
9, 27365, Pitch_bend_c, 4, 7724
9, 27380, Pitch_bend_c, 4, 7818
9, 27390, Pitch_bend_c, 4, 8081
9, 27400, Pitch_bend_c, 4, 8144
9, 27410, Pitch_bend_c, 4, 8192
9, 27925, Note_off_c, 4, 53, 64
9, 27925, Note_off_c, 4, 65, 64
9, 28800, Note_on_c, 4, 57, 98
9, 28800, Note_on_c, 4, 69, 78
9, 28930, Control_c, 4, 64, 127
9, 28930, Control_c, 4, 64, 127
9, 29035, Note_on_c, 4, 48, 65
9, 29035, Note_on_c, 4, 60, 45
9, 29075, Note_off_c, 4, 69, 64
9, 29075, Note_off_c, 4, 57, 64
9, 29275, Note_on_c, 4, 53, 81
9, 29275, Note_on_c, 4, 65, 61
9, 29375, Note_off_c, 4, 48, 64
9, 29375, Note_off_c, 4, 60, 64
9, 29480, Note_off_c, 4, 53, 64
9, 29480, Note_off_c, 4, 65, 64
9, 29490, Control_c, 4, 64, 0
9, 29500, Note_on_c, 4, 58, 97
9, 29500, Note_on_c, 4, 70, 77
9, 29960, Control_c, 4, 64, 127
9, 29960, Control_c, 4, 64, 127
9, 30020, Note_on_c, 4, 48, 50
9, 30020, Note_on_c, 4, 60, 30
9, 30075, Note_off_c, 4, 70, 64
9, 30075, Note_off_c, 4, 58, 64
9, 30240, Note_on_c, 4, 53, 76
9, 30240, Note_on_c, 4, 65, 56
9, 30375, Note_off_c, 4, 48, 64
9, 30375, Note_off_c, 4, 60, 64
9, 30465, Note_off_c, 4, 53, 64
9, 30465, Note_off_c, 4, 65, 64
9, 30475, Note_on_c, 4, 58, 89
9, 30475, Note_on_c, 4, 70, 69
9, 30630, Note_off_c, 4, 70, 64
9, 30630, Note_off_c, 4, 58, 64
9, 30720, Note_on_c, 4, 57, 93
9, 30720, Note_on_c, 4, 69, 73
9, 30725, Control_c, 4, 64, 0
9, 30950, Note_on_c, 4, 48, 71
9, 30950, Note_on_c, 4, 60, 51
9, 30995, Note_off_c, 4, 69, 64
9, 30995, Note_off_c, 4, 57, 64
9, 31195, Control_c, 4, 64, 127
9, 31195, Control_c, 4, 64, 127
9, 31205, Note_on_c, 4, 53, 81
9, 31205, Note_on_c, 4, 65, 61
9, 31405, Note_off_c, 4, 48, 64
9, 31405, Note_off_c, 4, 60, 64
9, 31410, Note_off_c, 4, 53, 64
9, 31410, Note_off_c, 4, 65, 64
9, 31445, Note_on_c, 4, 55, 88
9, 31445, Note_on_c, 4, 67, 68
9, 31545, Control_c, 4, 64, 0
9, 31915, Note_on_c, 4, 57, 83
9, 31915, Note_on_c, 4, 69, 63
9, 31945, Note_off_c, 4, 67, 64
9, 31945, Note_off_c, 4, 55, 64
9, 32150, Note_on_c, 4, 55, 76
9, 32150, Note_on_c, 4, 67, 56
9, 32210, Note_off_c, 4, 57, 64
9, 32210, Note_off_c, 4, 69, 64
9, 32405, Note_on_c, 4, 53, 91
9, 32405, Note_on_c, 4, 65, 71
9, 32435, Note_off_c, 4, 55, 64
9, 32435, Note_off_c, 4, 67, 64
9, 32905, Control_c, 4, 1, 76
9, 34165, Control_c, 4, 1, 0
9, 35085, Note_off_c, 4, 53, 64
9, 35085, Note_off_c, 4, 65, 64
9, 36470, Note_on_c, 4, 57, 93
9, 36470, Note_on_c, 4, 69, 73
9, 36585, Control_c, 4, 64, 127
9, 36585, Control_c, 4, 64, 127
9, 36710, Note_on_c, 4, 48, 61
9, 36710, Note_on_c, 4, 60, 41
9, 36750, Note_off_c, 4, 69, 64
9, 36750, Note_off_c, 4, 57, 64
9, 36945, Note_on_c, 4, 53, 79
9, 36945, Note_on_c, 4, 65, 59
9, 37060, Note_off_c, 4, 48, 64
9, 37060, Note_off_c, 4, 60, 64
9, 37170, Note_off_c, 4, 53, 64
9, 37170, Note_off_c, 4, 65, 64
9, 37190, Note_on_c, 4, 58, 93
9, 37190, Note_on_c, 4, 70, 73
9, 37195, Control_c, 4, 64, 0
9, 37675, Note_on_c, 4, 48, 73
9, 37675, Note_on_c, 4, 60, 53
9, 37745, Note_off_c, 4, 70, 64
9, 37745, Note_off_c, 4, 58, 64
9, 37770, Control_c, 4, 64, 127
9, 37770, Control_c, 4, 64, 127
9, 37920, Note_on_c, 4, 53, 81
9, 37920, Note_on_c, 4, 65, 61
9, 38050, Note_off_c, 4, 48, 64
9, 38050, Note_off_c, 4, 60, 64
9, 38145, Note_off_c, 4, 53, 64
9, 38145, Note_off_c, 4, 65, 64
9, 38145, Note_on_c, 4, 58, 93
9, 38145, Note_on_c, 4, 70, 73
9, 38305, Note_off_c, 4, 70, 64
9, 38305, Note_off_c, 4, 58, 64
9, 38315, Control_c, 4, 64, 0
9, 38395, Note_on_c, 4, 57, 91
9, 38395, Note_on_c, 4, 69, 71
9, 38630, Note_on_c, 4, 48, 73
9, 38630, Note_on_c, 4, 60, 53
9, 38665, Note_off_c, 4, 69, 64
9, 38665, Note_off_c, 4, 57, 64
9, 38865, Note_on_c, 4, 53, 83
9, 38865, Note_on_c, 4, 65, 63
9, 38900, Control_c, 4, 64, 127
9, 38900, Control_c, 4, 64, 127
9, 39045, Note_off_c, 4, 48, 64
9, 39045, Note_off_c, 4, 60, 64
9, 39075, Note_off_c, 4, 53, 64
9, 39075, Note_off_c, 4, 65, 64
9, 39120, Note_on_c, 4, 55, 96
9, 39120, Note_on_c, 4, 67, 76
9, 39185, Control_c, 4, 64, 0
9, 39590, Note_on_c, 4, 57, 88
9, 39590, Note_on_c, 4, 69, 68
9, 39670, Note_off_c, 4, 67, 64
9, 39670, Note_off_c, 4, 55, 64
9, 39835, Note_on_c, 4, 55, 83
9, 39835, Note_on_c, 4, 67, 63
9, 39880, Note_off_c, 4, 57, 64
9, 39880, Note_off_c, 4, 69, 64
9, 40060, Note_on_c, 4, 53, 86
9, 40060, Note_on_c, 4, 65, 66
9, 40090, Note_off_c, 4, 55, 64
9, 40090, Note_off_c, 4, 67, 64
9, 40770, Pitch_bend_c, 4, 8144
9, 40780, Pitch_bend_c, 4, 7327
9, 40790, Pitch_bend_c, 4, 5898
9, 40800, Pitch_bend_c, 4, 4326
9, 40810, Pitch_bend_c, 4, 3112
9, 40820, Pitch_bend_c, 4, 2380
9, 40835, Pitch_bend_c, 4, 2050
9, 40845, Pitch_bend_c, 4, 1969
9, 40855, Pitch_bend_c, 4, 1960
9, 40865, Pitch_bend_c, 4, 1974
9, 40875, Pitch_bend_c, 4, 2287
9, 40890, Pitch_bend_c, 4, 2893
9, 40900, Pitch_bend_c, 4, 3644
9, 40910, Pitch_bend_c, 4, 4554
9, 40920, Pitch_bend_c, 4, 5661
9, 40930, Pitch_bend_c, 4, 6813
9, 40940, Pitch_bend_c, 4, 8059
9, 40950, Pitch_bend_c, 4, 8192
9, 41220, Pitch_bend_c, 4, 8050
9, 41230, Pitch_bend_c, 4, 6621
9, 41245, Pitch_bend_c, 4, 4934
9, 41255, Pitch_bend_c, 4, 3148
9, 41265, Pitch_bend_c, 4, 1577
9, 41275, Pitch_bend_c, 4, 728
9, 41285, Pitch_bend_c, 4, 536
9, 41295, Pitch_bend_c, 4, 545
9, 41310, Pitch_bend_c, 4, 692
9, 41320, Pitch_bend_c, 4, 1054
9, 41330, Pitch_bend_c, 4, 1625
9, 41340, Pitch_bend_c, 4, 2313
9, 41350, Pitch_bend_c, 4, 3206
9, 41360, Pitch_bend_c, 4, 4251
9, 41375, Pitch_bend_c, 4, 5608
9, 41385, Pitch_bend_c, 4, 6835
9, 41395, Pitch_bend_c, 4, 8019
9, 41405, Pitch_bend_c, 4, 8192
9, 41730, Pitch_bend_c, 4, 8036
9, 41745, Pitch_bend_c, 4, 6541
9, 41755, Pitch_bend_c, 4, 4898
9, 41765, Pitch_bend_c, 4, 3184
9, 41775, Pitch_bend_c, 4, 1612
9, 41785, Pitch_bend_c, 4, 782
9, 41795, Pitch_bend_c, 4, 692
9, 41820, Pitch_bend_c, 4, 786
9, 41830, Pitch_bend_c, 4, 1121
9, 41840, Pitch_bend_c, 4, 1590
9, 41850, Pitch_bend_c, 4, 2264
9, 41860, Pitch_bend_c, 4, 3108
9, 41870, Pitch_bend_c, 4, 4179
9, 41885, Pitch_bend_c, 4, 5456
9, 41895, Pitch_bend_c, 4, 6787
9, 41905, Pitch_bend_c, 4, 8054
9, 41915, Pitch_bend_c, 4, 8192
9, 42285, Note_off_c, 4, 53, 64
9, 42285, Note_off_c, 4, 65, 64
9, 44165, Note_on_c, 4, 57, 98
9, 44165, Note_on_c, 4, 69, 78
9, 44285, Control_c, 4, 64, 127
9, 44285, Control_c, 4, 64, 127
9, 44400, Note_on_c, 4, 48, 61
9, 44400, Note_on_c, 4, 60, 41
9, 44425, Note_off_c, 4, 69, 64
9, 44425, Note_off_c, 4, 57, 64
9, 44635, Note_on_c, 4, 53, 81
9, 44635, Note_on_c, 4, 65, 61
9, 44730, Note_off_c, 4, 48, 64
9, 44730, Note_off_c, 4, 60, 64
9, 44855, Note_off_c, 4, 53, 64
9, 44855, Note_off_c, 4, 65, 64
9, 44875, Control_c, 4, 64, 0
9, 44880, Note_on_c, 4, 58, 93
9, 44880, Note_on_c, 4, 70, 73
9, 45365, Note_on_c, 4, 48, 67
9, 45365, Note_on_c, 4, 60, 47
9, 45440, Note_off_c, 4, 70, 64
9, 45440, Note_off_c, 4, 58, 64
9, 45535, Control_c, 4, 64, 127
9, 45535, Control_c, 4, 64, 127
9, 45605, Note_on_c, 4, 53, 73
9, 45605, Note_on_c, 4, 65, 53
9, 45770, Note_off_c, 4, 48, 64
9, 45770, Note_off_c, 4, 60, 64
9, 45830, Note_on_c, 4, 58, 89
9, 45830, Note_on_c, 4, 70, 69
9, 45845, Note_off_c, 4, 53, 64
9, 45845, Note_off_c, 4, 65, 64
9, 46000, Note_off_c, 4, 58, 64
9, 46000, Note_off_c, 4, 70, 64
9, 46070, Control_c, 4, 64, 0
9, 46095, Note_on_c, 4, 57, 88
9, 46095, Note_on_c, 4, 69, 68
9, 46330, Note_on_c, 4, 48, 67
9, 46330, Note_on_c, 4, 60, 47
9, 46360, Note_off_c, 4, 69, 64
9, 46360, Note_off_c, 4, 57, 64
9, 46565, Note_on_c, 4, 53, 65
9, 46565, Note_on_c, 4, 65, 45
9, 46760, Note_off_c, 4, 48, 64
9, 46760, Note_off_c, 4, 60, 64
9, 46775, Note_off_c, 4, 53, 64
9, 46775, Note_off_c, 4, 65, 64
9, 46810, Note_on_c, 4, 55, 93
9, 46810, Note_on_c, 4, 67, 73
9, 47275, Note_on_c, 4, 57, 86
9, 47275, Note_on_c, 4, 69, 66
9, 47305, Note_off_c, 4, 67, 64
9, 47305, Note_off_c, 4, 55, 64
9, 47525, Note_on_c, 4, 55, 86
9, 47525, Note_on_c, 4, 67, 66
9, 47595, Note_off_c, 4, 57, 64
9, 47595, Note_off_c, 4, 69, 64
9, 47760, Note_on_c, 4, 53, 91
9, 47760, Note_on_c, 4, 65, 71
9, 47795, Note_off_c, 4, 55, 64
9, 47795, Note_off_c, 4, 67, 64
9, 47985, Pitch_bend_c, 4, 7184
9, 47995, Pitch_bend_c, 4, 5326
9, 48005, Pitch_bend_c, 4, 3326
9, 48015, Pitch_bend_c, 4, 1898
9, 48025, Pitch_bend_c, 4, 1295
9, 48035, Pitch_bend_c, 4, 1112
9, 48050, Pitch_bend_c, 4, 1103
9, 48060, Pitch_bend_c, 4, 1121
9, 48070, Pitch_bend_c, 4, 1358
9, 48080, Pitch_bend_c, 4, 1844
9, 48090, Pitch_bend_c, 4, 2465
9, 48100, Pitch_bend_c, 4, 3242
9, 48115, Pitch_bend_c, 4, 4206
9, 48125, Pitch_bend_c, 4, 5536
9, 48135, Pitch_bend_c, 4, 6894
9, 48145, Pitch_bend_c, 4, 8139
9, 48155, Pitch_bend_c, 4, 8192
9, 48465, Pitch_bend_c, 4, 7612
9, 48475, Pitch_bend_c, 4, 5648
9, 48485, Pitch_bend_c, 4, 3666
9, 48495, Pitch_bend_c, 4, 1969
9, 48505, Pitch_bend_c, 4, 1295
9, 48515, Pitch_bend_c, 4, 1228
9, 48530, Pitch_bend_c, 4, 1237
9, 48540, Pitch_bend_c, 4, 1398
9, 48550, Pitch_bend_c, 4, 1840
9, 48560, Pitch_bend_c, 4, 2491
9, 48570, Pitch_bend_c, 4, 3300
9, 48580, Pitch_bend_c, 4, 4393
9, 48595, Pitch_bend_c, 4, 5804
9, 48605, Pitch_bend_c, 4, 7394
9, 48615, Pitch_bend_c, 4, 8192
9, 48940, Pitch_bend_c, 4, 7827
9, 48955, Pitch_bend_c, 4, 5969
9, 48965, Pitch_bend_c, 4, 3684
9, 48975, Pitch_bend_c, 4, 1791
9, 48985, Pitch_bend_c, 4, 938
9, 48995, Pitch_bend_c, 4, 777
9, 49005, Pitch_bend_c, 4, 764
9, 49030, Pitch_bend_c, 4, 782
9, 49040, Pitch_bend_c, 4, 1251
9, 49050, Pitch_bend_c, 4, 2179
9, 49060, Pitch_bend_c, 4, 3349
9, 49070, Pitch_bend_c, 4, 4858
9, 49080, Pitch_bend_c, 4, 6536
9, 49095, Pitch_bend_c, 4, 8072
9, 49105, Pitch_bend_c, 4, 8192
9, 49410, Pitch_bend_c, 4, 8086
9, 49420, Pitch_bend_c, 4, 6541
9, 49430, Pitch_bend_c, 4, 4559
9, 49445, Pitch_bend_c, 4, 2755
9, 49455, Pitch_bend_c, 4, 1577
9, 49465, Pitch_bend_c, 4, 1242
9, 49495, Pitch_bend_c, 4, 1501
9, 49510, Pitch_bend_c, 4, 2090
9, 49520, Pitch_bend_c, 4, 2893
9, 49530, Pitch_bend_c, 4, 3929
9, 49540, Pitch_bend_c, 4, 5287
9, 49550, Pitch_bend_c, 4, 6787
9, 49560, Pitch_bend_c, 4, 8126
9, 49570, Pitch_bend_c, 4, 8192
9, 49860, Note_off_c, 4, 53, 64
9, 49860, Note_off_c, 4, 65, 64
9, 49900, Pitch_bend_c, 4, 7934
9, 49910, Pitch_bend_c, 4, 6130
9, 49920, Pitch_bend_c, 4, 4469
9, 49930, Pitch_bend_c, 4, 3077
9, 49945, Pitch_bend_c, 4, 2313
9, 49955, Pitch_bend_c, 4, 2228
9, 49965, Pitch_bend_c, 4, 2277
9, 49975, Pitch_bend_c, 4, 2608
9, 49985, Pitch_bend_c, 4, 3179
9, 50000, Pitch_bend_c, 4, 4019
9, 50010, Pitch_bend_c, 4, 4965
9, 50020, Pitch_bend_c, 4, 6215
9, 50030, Pitch_bend_c, 4, 7688
9, 50040, Pitch_bend_c, 4, 8192
9, 50380, Pitch_bend_c, 4, 7220
9, 50390, Pitch_bend_c, 4, 5469
9, 50400, Pitch_bend_c, 4, 3398
9, 50410, Pitch_bend_c, 4, 1612
9, 50420, Pitch_bend_c, 4, 398
9, 50430, Pitch_bend_c, 4, 67
9, 50450, Pitch_bend_c, 4, 295
9, 50465, Pitch_bend_c, 4, 885
9, 50475, Pitch_bend_c, 4, 1608
9, 50485, Pitch_bend_c, 4, 2465
9, 50495, Pitch_bend_c, 4, 3590
9, 50505, Pitch_bend_c, 4, 4965
9, 50520, Pitch_bend_c, 4, 6608
9, 50530, Pitch_bend_c, 4, 8108
9, 50540, Pitch_bend_c, 4, 8192
9, 51845, Note_on_c, 4, 57, 101
9, 51845, Note_on_c, 4, 69, 81
9, 52080, Note_on_c, 4, 48, 58
9, 52080, Note_on_c, 4, 60, 38
9, 52125, Note_off_c, 4, 69, 64
9, 52125, Note_off_c, 4, 57, 64
9, 52205, Control_c, 4, 64, 127
9, 52205, Control_c, 4, 64, 127
9, 52325, Note_on_c, 4, 53, 73
9, 52325, Note_on_c, 4, 65, 53
9, 52430, Note_off_c, 4, 48, 64
9, 52430, Note_off_c, 4, 60, 64
9, 52535, Note_off_c, 4, 53, 64
9, 52535, Note_off_c, 4, 65, 64
9, 52565, Note_on_c, 4, 58, 101
9, 52565, Note_on_c, 4, 70, 81
9, 52620, Control_c, 4, 64, 0
9, 53045, Note_on_c, 4, 48, 73
9, 53045, Note_on_c, 4, 60, 53
9, 53115, Note_off_c, 4, 70, 64
9, 53115, Note_off_c, 4, 58, 64
9, 53285, Note_on_c, 4, 53, 81
9, 53285, Note_on_c, 4, 65, 61
9, 53450, Note_off_c, 4, 48, 64
9, 53450, Note_off_c, 4, 60, 64
9, 53510, Note_on_c, 4, 58, 89
9, 53510, Note_on_c, 4, 70, 69
9, 53540, Note_off_c, 4, 53, 64
9, 53540, Note_off_c, 4, 65, 64
9, 53690, Note_off_c, 4, 58, 64
9, 53690, Note_off_c, 4, 70, 64
9, 53765, Note_on_c, 4, 57, 93
9, 53765, Note_on_c, 4, 69, 73
9, 53995, Note_on_c, 4, 48, 65
9, 53995, Note_on_c, 4, 60, 45
9, 54045, Note_off_c, 4, 69, 64
9, 54045, Note_off_c, 4, 57, 64
9, 54230, Note_on_c, 4, 53, 83
9, 54230, Note_on_c, 4, 65, 63
9, 54475, Note_on_c, 4, 55, 88
9, 54475, Note_on_c, 4, 67, 68
9, 54480, Note_off_c, 4, 65, 64
9, 54480, Note_off_c, 4, 53, 64
9, 54500, Note_off_c, 4, 48, 64
9, 54500, Note_off_c, 4, 60, 64
9, 54960, Note_on_c, 4, 57, 86
9, 54960, Note_on_c, 4, 69, 66
9, 54995, Note_off_c, 4, 55, 64
9, 54995, Note_off_c, 4, 67, 64
9, 55185, Note_on_c, 4, 55, 83
9, 55185, Note_on_c, 4, 67, 63
9, 55250, Note_off_c, 4, 57, 64
9, 55250, Note_off_c, 4, 69, 64
9, 55425, Note_on_c, 4, 53, 73
9, 55425, Note_on_c, 4, 65, 53
9, 55475, Note_off_c, 4, 55, 64
9, 55475, Note_off_c, 4, 67, 64
9, 55680, Note_on_c, 4, 60, 104
9, 55680, Note_on_c, 4, 55, 88
9, 55680, Note_on_c, 4, 64, 98
9, 55805, Note_off_c, 4, 53, 64
9, 55805, Note_off_c, 4, 65, 64
9, 56090, Control_c, 4, 64, 127
9, 56115, Note_off_c, 4, 55, 64
9, 56125, Note_off_c, 4, 64, 64
9, 56140, Note_off_c, 4, 60, 64
9, 56410, Note_on_c, 4, 55, 93
9, 57055, Note_off_c, 4, 55, 64
9, 57105, Note_on_c, 4, 55, 19
9, 57130, Note_on_c, 4, 60, 91
9, 57225, Note_off_c, 4, 55, 64
9, 57235, Note_off_c, 4, 60, 64
9, 57605, Note_on_c, 4, 64, 93
9, 57610, Note_on_c, 4, 60, 98
9, 57615, Note_on_c, 4, 55, 86
9, 58010, Note_off_c, 4, 64, 64
9, 58020, Note_off_c, 4, 60, 64
9, 58040, Note_off_c, 4, 55, 64
9, 58325, Note_on_c, 4, 60, 98
9, 58330, Note_on_c, 4, 55, 88
9, 58330, Note_on_c, 4, 64, 96
9, 58905, Note_off_c, 4, 55, 64
9, 59020, Note_off_c, 4, 64, 64
9, 59035, Note_off_c, 4, 60, 64
9, 59525, Note_on_c, 4, 60, 101
9, 59530, Note_on_c, 4, 64, 96
9, 59535, Note_on_c, 4, 55, 88
9, 59940, Note_off_c, 4, 64, 64
9, 59980, Note_off_c, 4, 60, 64
9, 59985, Note_off_c, 4, 55, 64
9, 60220, Control_c, 4, 64, 0
9, 60480, Note_on_c, 4, 58, 104
9, 60485, Note_on_c, 4, 62, 96
9, 60875, Control_c, 4, 64, 127
9, 60965, Note_off_c, 4, 58, 64
9, 60970, Note_off_c, 4, 62, 64
9, 61440, Note_on_c, 4, 57, 104
9, 61440, Note_on_c, 4, 60, 101
9, 62215, Control_c, 4, 64, 0
9, 62395, Note_on_c, 4, 53, 98
9, 62800, Control_c, 4, 64, 127
9, 62830, Note_off_c, 4, 53, 64
9, 62835, Note_off_c, 4, 57, 64
9, 62855, Note_off_c, 4, 60, 64
9, 63200, Control_c, 4, 64, 0
9, 63365, Note_on_c, 4, 58, 89
9, 63370, Note_on_c, 4, 62, 91
9, 63380, Note_on_c, 4, 65, 93
9, 63860, Note_off_c, 4, 58, 64
9, 63875, Control_c, 4, 64, 127
9, 64050, Note_off_c, 4, 65, 64
9, 64070, Note_on_c, 4, 58, 110
9, 64105, Note_on_c, 4, 65, 56
9, 64135, Note_off_c, 4, 62, 64
9, 64715, Note_off_c, 4, 65, 64
9, 64815, Note_on_c, 4, 62, 88
9, 64950, Note_off_c, 4, 58, 64
9, 64995, Note_off_c, 4, 62, 64
9, 65270, Note_on_c, 4, 58, 83
9, 65275, Note_on_c, 4, 62, 86
9, 65280, Note_on_c, 4, 65, 88
9, 65715, Note_off_c, 4, 58, 64
9, 65720, Note_off_c, 4, 65, 64
9, 65765, Note_off_c, 4, 62, 64
9, 65995, Note_on_c, 4, 58, 97
9, 66000, Note_on_c, 4, 62, 91
9, 66010, Note_on_c, 4, 65, 91
9, 66415, Note_off_c, 4, 58, 64
9, 66680, Note_off_c, 4, 65, 64
9, 66705, Note_off_c, 4, 62, 64
9, 66720, Note_on_c, 4, 58, 89
9, 66780, Note_off_c, 4, 58, 64
9, 67090, Control_c, 4, 64, 0
9, 67195, Note_on_c, 4, 58, 93
9, 67195, Note_on_c, 4, 62, 91
9, 67610, Control_c, 4, 64, 127
9, 67915, Note_on_c, 4, 53, 86
9, 68330, Note_off_c, 4, 58, 64
9, 68640, Note_on_c, 4, 58, 101
9, 68770, Note_off_c, 4, 62, 64
9, 68855, Note_off_c, 4, 58, 64
9, 68870, Note_off_c, 4, 53, 64
9, 69120, Note_on_c, 4, 62, 93
9, 69120, Note_on_c, 4, 53, 81
9, 69125, Note_on_c, 4, 58, 93
9, 69610, Note_off_c, 4, 53, 64
9, 69730, Note_off_c, 4, 58, 64
9, 69745, Note_off_c, 4, 62, 64
9, 69845, Note_on_c, 4, 53, 96
9, 70575, Note_on_c, 4, 58, 93
9, 70635, Note_off_c, 4, 53, 64
9, 70660, Note_off_c, 4, 58, 64
9, 70950, Control_c, 4, 64, 0
9, 71025, Note_on_c, 4, 55, 81
9, 71035, Note_on_c, 4, 60, 96
9, 71040, Note_on_c, 4, 64, 91
9, 71545, Note_off_c, 4, 55, 64
9, 71575, Note_off_c, 4, 64, 64
9, 71580, Note_off_c, 4, 60, 64
9, 71695, Control_c, 4, 64, 127
9, 71770, Note_on_c, 4, 64, 98
9, 71780, Note_on_c, 4, 55, 96
9, 71780, Note_on_c, 4, 60, 96
9, 72585, Note_off_c, 4, 55, 64
9, 72635, Note_off_c, 4, 64, 64
9, 72640, Note_off_c, 4, 60, 64
9, 72965, Note_on_c, 4, 60, 101
9, 72970, Note_on_c, 4, 64, 93
9, 72975, Note_on_c, 4, 55, 88
9, 73415, Note_off_c, 4, 55, 64
9, 73425, Note_off_c, 4, 64, 64
9, 73430, Note_off_c, 4, 60, 64
9, 73655, Note_on_c, 4, 55, 83
9, 73655, Note_on_c, 4, 60, 98
9, 73660, Note_on_c, 4, 64, 91
9, 74440, Note_off_c, 4, 55, 64
9, 74540, Note_off_c, 4, 64, 64
9, 74545, Note_off_c, 4, 60, 64
9, 74570, Control_c, 4, 64, 0
9, 74875, Note_on_c, 4, 60, 109
9, 74875, Note_on_c, 4, 64, 98
9, 74880, Note_on_c, 4, 55, 91
9, 75205, Control_c, 4, 64, 127
9, 75325, Note_off_c, 4, 64, 64
9, 75370, Note_off_c, 4, 55, 64
9, 75375, Note_off_c, 4, 60, 64
9, 75635, Control_c, 4, 64, 0
9, 75845, Note_on_c, 4, 58, 104
9, 75850, Note_on_c, 4, 62, 96
9, 76190, Control_c, 4, 64, 127
9, 76295, Note_off_c, 4, 58, 64
9, 76305, Note_off_c, 4, 62, 64
9, 76670, Control_c, 4, 64, 0
9, 76805, Note_on_c, 4, 60, 104
9, 76810, Note_on_c, 4, 57, 104
9, 77120, Control_c, 4, 64, 127
9, 77755, Note_on_c, 4, 53, 98
9, 77920, Note_off_c, 4, 57, 64
9, 77930, Note_off_c, 4, 53, 64
9, 77935, Note_off_c, 4, 60, 64
9, 78430, Control_c, 4, 64, 0
9, 78705, Note_on_c, 4, 58, 97
9, 78715, Note_on_c, 4, 62, 88
9, 78720, Note_on_c, 4, 65, 86
9, 79165, Note_off_c, 4, 58, 64
9, 79200, Control_c, 4, 64, 127
9, 79410, Note_off_c, 4, 65, 64
9, 79435, Note_on_c, 4, 58, 110
9, 79450, Note_on_c, 4, 65, 25
9, 79500, Note_off_c, 4, 62, 64
9, 80115, Note_off_c, 4, 65, 64
9, 80165, Note_on_c, 4, 62, 83
9, 80335, Note_off_c, 4, 58, 64
9, 80385, Note_off_c, 4, 62, 64
9, 80625, Note_on_c, 4, 62, 88
9, 80630, Note_on_c, 4, 58, 72
9, 80635, Note_on_c, 4, 65, 91
9, 81045, Note_off_c, 4, 58, 64
9, 81250, Note_off_c, 4, 65, 64
9, 81270, Note_off_c, 4, 62, 64
9, 81355, Note_on_c, 4, 58, 110
9, 81790, Note_on_c, 4, 62, 46
9, 81935, Note_off_c, 4, 62, 64
9, 82050, Note_on_c, 4, 65, 86
9, 82055, Note_on_c, 4, 62, 59
9, 82085, Note_off_c, 4, 58, 64
9, 82100, Note_off_c, 4, 62, 64
9, 82140, Note_off_c, 4, 65, 64
9, 82460, Control_c, 4, 64, 0
9, 82550, Note_on_c, 4, 57, 101
9, 82555, Note_on_c, 4, 60, 101
9, 82560, Note_on_c, 4, 53, 73
9, 83050, Note_off_c, 4, 53, 64
9, 83170, Control_c, 4, 64, 127
9, 83255, Note_off_c, 4, 57, 64
9, 83270, Note_on_c, 4, 53, 98
9, 83705, Note_off_c, 4, 60, 64
9, 83780, Note_on_c, 4, 57, 91
9, 83935, Note_off_c, 4, 57, 64
9, 84000, Note_on_c, 4, 60, 73
9, 84005, Note_on_c, 4, 57, 56
9, 84085, Note_off_c, 4, 53, 64
9, 84095, Note_off_c, 4, 57, 64
9, 84260, Control_c, 4, 64, 0
9, 84305, Note_off_c, 4, 60, 64
9, 84475, Note_on_c, 4, 55, 109
9, 84480, Note_on_c, 4, 60, 104
9, 84485, Note_on_c, 4, 53, 88
9, 86005, Note_off_c, 4, 53, 64
9, 86090, Note_off_c, 4, 55, 64
9, 86100, Note_off_c, 4, 60, 64
9, 86400, Note_on_c, 4, 57, 101
9, 86400, Note_on_c, 4, 69, 81
9, 86440, Control_c, 4, 64, 127
9, 86440, Control_c, 4, 64, 127
9, 86625, Note_on_c, 4, 48, 71
9, 86625, Note_on_c, 4, 60, 51
9, 86675, Note_off_c, 4, 69, 64
9, 86675, Note_off_c, 4, 57, 64
9, 86870, Note_off_c, 4, 48, 64
9, 86870, Note_off_c, 4, 60, 64
9, 86875, Note_on_c, 4, 53, 79
9, 86875, Note_on_c, 4, 65, 59
9, 87080, Note_off_c, 4, 65, 64
9, 87080, Note_off_c, 4, 53, 64
9, 87125, Note_on_c, 4, 58, 93
9, 87125, Note_on_c, 4, 70, 73
9, 87510, Control_c, 4, 64, 0
9, 87600, Note_on_c, 4, 48, 69
9, 87600, Note_on_c, 4, 60, 49
9, 87625, Note_off_c, 4, 70, 64
9, 87625, Note_off_c, 4, 58, 64
9, 87845, Note_on_c, 4, 53, 73
9, 87845, Note_on_c, 4, 65, 53
9, 87970, Note_off_c, 4, 48, 64
9, 87970, Note_off_c, 4, 60, 64
9, 88055, Note_off_c, 4, 53, 64
9, 88055, Note_off_c, 4, 65, 64
9, 88060, Note_on_c, 4, 58, 89
9, 88060, Note_on_c, 4, 70, 69
9, 88220, Note_off_c, 4, 70, 64
9, 88220, Note_off_c, 4, 58, 64
9, 88310, Note_on_c, 4, 57, 93
9, 88310, Note_on_c, 4, 69, 73
9, 88535, Note_on_c, 4, 48, 71
9, 88535, Note_on_c, 4, 60, 51
9, 88595, Note_off_c, 4, 69, 64
9, 88595, Note_off_c, 4, 57, 64
9, 88625, Control_c, 4, 64, 127
9, 88625, Control_c, 4, 64, 127
9, 88770, Note_on_c, 4, 53, 73
9, 88770, Note_on_c, 4, 65, 53
9, 88960, Note_off_c, 4, 48, 64
9, 88960, Note_off_c, 4, 60, 64
9, 88965, Note_off_c, 4, 53, 64
9, 88965, Note_off_c, 4, 65, 64
9, 89035, Note_on_c, 4, 55, 98
9, 89035, Note_on_c, 4, 67, 78
9, 89475, Note_off_c, 4, 67, 64
9, 89475, Note_off_c, 4, 55, 64
9, 89500, Note_on_c, 4, 57, 88
9, 89500, Note_on_c, 4, 69, 68
9, 89725, Note_off_c, 4, 69, 64
9, 89725, Note_off_c, 4, 57, 64
9, 89755, Note_on_c, 4, 55, 79
9, 89755, Note_on_c, 4, 67, 59
9, 89945, Note_off_c, 4, 67, 64
9, 89945, Note_off_c, 4, 55, 64
9, 89990, Note_on_c, 4, 53, 41
9, 89990, Note_on_c, 4, 65, 21
9, 90120, Control_c, 4, 64, 0
9, 90140, Note_off_c, 4, 65, 64
9, 90140, Note_off_c, 4, 53, 64
9, 90225, Note_on_c, 4, 57, 98
9, 90225, Note_on_c, 4, 69, 78
9, 90450, Note_on_c, 4, 48, 50
9, 90450, Note_on_c, 4, 60, 30
9, 90520, Note_off_c, 4, 69, 64
9, 90520, Note_off_c, 4, 57, 64
9, 90580, Control_c, 4, 64, 127
9, 90580, Control_c, 4, 64, 127
9, 90725, Note_on_c, 4, 53, 69
9, 90725, Note_on_c, 4, 65, 49
9, 90805, Note_off_c, 4, 48, 64
9, 90805, Note_off_c, 4, 60, 64
9, 90945, Note_off_c, 4, 53, 64
9, 90945, Note_off_c, 4, 65, 64
9, 90960, Note_on_c, 4, 58, 97
9, 90960, Note_on_c, 4, 70, 77
9, 91445, Note_on_c, 4, 48, 71
9, 91445, Note_on_c, 4, 60, 51
9, 91475, Note_off_c, 4, 70, 64
9, 91475, Note_off_c, 4, 58, 64
9, 91690, Note_on_c, 4, 53, 76
9, 91690, Note_on_c, 4, 65, 56
9, 91845, Note_off_c, 4, 48, 64
9, 91845, Note_off_c, 4, 60, 64
9, 91890, Note_off_c, 4, 53, 64
9, 91890, Note_off_c, 4, 65, 64
9, 91910, Note_on_c, 4, 58, 87
9, 91910, Note_on_c, 4, 70, 67
9, 92060, Note_off_c, 4, 70, 64
9, 92060, Note_off_c, 4, 58, 64
9, 92065, Control_c, 4, 64, 0
9, 92160, Note_on_c, 4, 57, 91
9, 92160, Note_on_c, 4, 69, 71
9, 92390, Note_on_c, 4, 48, 61
9, 92390, Note_on_c, 4, 60, 41
9, 92435, Note_off_c, 4, 69, 64
9, 92435, Note_off_c, 4, 57, 64
9, 92465, Control_c, 4, 64, 127
9, 92465, Control_c, 4, 64, 127
9, 92640, Note_on_c, 4, 53, 79
9, 92640, Note_on_c, 4, 65, 59
9, 92850, Note_off_c, 4, 65, 64
9, 92850, Note_off_c, 4, 53, 64
9, 92850, Note_off_c, 4, 48, 64
9, 92850, Note_off_c, 4, 60, 64
9, 92890, Note_on_c, 4, 55, 88
9, 92890, Note_on_c, 4, 67, 68
9, 92950, Control_c, 4, 64, 0
9, 93360, Note_on_c, 4, 57, 91
9, 93360, Note_on_c, 4, 69, 71
9, 93405, Note_off_c, 4, 67, 64
9, 93405, Note_off_c, 4, 55, 64
9, 93615, Note_on_c, 4, 55, 86
9, 93615, Note_on_c, 4, 67, 66
9, 93655, Note_off_c, 4, 57, 64
9, 93655, Note_off_c, 4, 69, 64
9, 93840, Note_on_c, 4, 53, 88
9, 93840, Note_on_c, 4, 65, 68
9, 93875, Note_off_c, 4, 55, 64
9, 93875, Note_off_c, 4, 67, 64
9, 94085, Pitch_bend_c, 4, 0
9, 94135, Pitch_bend_c, 4, 393
9, 94145, Pitch_bend_c, 4, 1179
9, 94155, Pitch_bend_c, 4, 2108
9, 94165, Pitch_bend_c, 4, 3215
9, 94175, Pitch_bend_c, 4, 4608
9, 94190, Pitch_bend_c, 4, 6251
9, 94200, Pitch_bend_c, 4, 8019
9, 94210, Pitch_bend_c, 4, 8192
9, 94515, Pitch_bend_c, 4, 7773
9, 94530, Pitch_bend_c, 4, 6201
9, 94540, Pitch_bend_c, 4, 4398
9, 94550, Pitch_bend_c, 4, 2755
9, 94560, Pitch_bend_c, 4, 1612
9, 94570, Pitch_bend_c, 4, 1273
9, 94585, Pitch_bend_c, 4, 1264
9, 94595, Pitch_bend_c, 4, 1273
9, 94605, Pitch_bend_c, 4, 1456
9, 94615, Pitch_bend_c, 4, 1876
9, 94625, Pitch_bend_c, 4, 2554
9, 94635, Pitch_bend_c, 4, 3349
9, 94645, Pitch_bend_c, 4, 4483
9, 94660, Pitch_bend_c, 4, 5893
9, 94670, Pitch_bend_c, 4, 7429
9, 94680, Pitch_bend_c, 4, 8192
9, 95000, Pitch_bend_c, 4, 8050
9, 95010, Pitch_bend_c, 4, 6630
9, 95020, Pitch_bend_c, 4, 4934
9, 95030, Pitch_bend_c, 4, 3398
9, 95040, Pitch_bend_c, 4, 2309
9, 95050, Pitch_bend_c, 4, 1666
9, 95060, Pitch_bend_c, 4, 1434
9, 95075, Pitch_bend_c, 4, 1407
9, 95095, Pitch_bend_c, 4, 1501
9, 95105, Pitch_bend_c, 4, 1844
9, 95115, Pitch_bend_c, 4, 2465
9, 95125, Pitch_bend_c, 4, 3277
9, 95135, Pitch_bend_c, 4, 4465
9, 95150, Pitch_bend_c, 4, 5893
9, 95160, Pitch_bend_c, 4, 7394
9, 95170, Pitch_bend_c, 4, 8184
9, 95180, Pitch_bend_c, 4, 8192
9, 95520, Pitch_bend_c, 4, 7630
9, 95530, Pitch_bend_c, 4, 6184
9, 95540, Pitch_bend_c, 4, 4559
9, 95550, Pitch_bend_c, 4, 3148
9, 95560, Pitch_bend_c, 4, 2228
9, 95570, Pitch_bend_c, 4, 1840
9, 95585, Pitch_bend_c, 4, 1755
9, 95615, Pitch_bend_c, 4, 1777
9, 95625, Pitch_bend_c, 4, 2077
9, 95635, Pitch_bend_c, 4, 2661
9, 95645, Pitch_bend_c, 4, 3340
9, 95655, Pitch_bend_c, 4, 4429
9, 95670, Pitch_bend_c, 4, 5804
9, 95680, Pitch_bend_c, 4, 7228
9, 95690, Pitch_bend_c, 4, 8086
9, 95700, Pitch_bend_c, 4, 8139
9, 95720, Pitch_bend_c, 4, 8192
9, 95730, Pitch_bend_c, 4, 8148
9, 95740, Pitch_bend_c, 4, 8192
9, 95755, Pitch_bend_c, 4, 8184
9, 95760, Pitch_bend_c, 4, 8192
9, 95775, Pitch_bend_c, 4, 8184
9, 95785, Pitch_bend_c, 4, 8192
9, 96025, Pitch_bend_c, 4, 8134
9, 96035, Pitch_bend_c, 4, 7612
9, 96045, Pitch_bend_c, 4, 6541
9, 96060, Pitch_bend_c, 4, 5291
9, 96070, Pitch_bend_c, 4, 3969
9, 96080, Pitch_bend_c, 4, 2844
9, 96090, Pitch_bend_c, 4, 2184
9, 96100, Pitch_bend_c, 4, 1826
9, 96110, Pitch_bend_c, 4, 1675
9, 96120, Pitch_bend_c, 4, 1625
9, 96155, Pitch_bend_c, 4, 1670
9, 96165, Pitch_bend_c, 4, 2036
9, 96175, Pitch_bend_c, 4, 2653
9, 96185, Pitch_bend_c, 4, 3393
9, 96200, Pitch_bend_c, 4, 4134
9, 96210, Pitch_bend_c, 4, 4452
9, 96220, Pitch_bend_c, 4, 4545
9, 96230, Pitch_bend_c, 4, 4639
9, 96240, Pitch_bend_c, 4, 4706
9, 96250, Pitch_bend_c, 4, 4733
9, 96270, Pitch_bend_c, 4, 4755
9, 96295, Pitch_bend_c, 4, 4804
9, 96305, Pitch_bend_c, 4, 4822
9, 96370, Pitch_bend_c, 4, 4858
9, 96380, Pitch_bend_c, 4, 4978
9, 96390, Pitch_bend_c, 4, 5264
9, 96400, Pitch_bend_c, 4, 5483
9, 96410, Pitch_bend_c, 4, 5782
9, 96420, Pitch_bend_c, 4, 6242
9, 96435, Pitch_bend_c, 4, 6876
9, 96445, Pitch_bend_c, 4, 7519
9, 96455, Pitch_bend_c, 4, 7706
9, 96465, Pitch_bend_c, 4, 7715
9, 96485, Pitch_bend_c, 4, 7724
9, 96500, Pitch_bend_c, 4, 7818
9, 96510, Pitch_bend_c, 4, 8081
9, 96520, Pitch_bend_c, 4, 8144
9, 96530, Pitch_bend_c, 4, 8192
9, 97075, Note_off_c, 4, 53, 64
9, 97075, Note_off_c, 4, 65, 64
9, 97920, Note_on_c, 4, 57, 98
9, 97920, Note_on_c, 4, 69, 78
9, 98050, Control_c, 4, 64, 127
9, 98050, Control_c, 4, 64, 127
9, 98155, Note_on_c, 4, 48, 65
9, 98155, Note_on_c, 4, 60, 45
9, 98195, Note_off_c, 4, 69, 64
9, 98195, Note_off_c, 4, 57, 64
9, 98395, Note_on_c, 4, 53, 81
9, 98395, Note_on_c, 4, 65, 61
9, 98495, Note_off_c, 4, 48, 64
9, 98495, Note_off_c, 4, 60, 64
9, 98600, Note_off_c, 4, 53, 64
9, 98600, Note_off_c, 4, 65, 64
9, 98610, Control_c, 4, 64, 0
9, 98620, Note_on_c, 4, 58, 97
9, 98620, Note_on_c, 4, 70, 77
9, 99080, Control_c, 4, 64, 127
9, 99080, Control_c, 4, 64, 127
9, 99140, Note_on_c, 4, 48, 50
9, 99140, Note_on_c, 4, 60, 30
9, 99195, Note_off_c, 4, 70, 64
9, 99195, Note_off_c, 4, 58, 64
9, 99360, Note_on_c, 4, 53, 76
9, 99360, Note_on_c, 4, 65, 56
9, 99495, Note_off_c, 4, 48, 64
9, 99495, Note_off_c, 4, 60, 64
9, 99585, Note_off_c, 4, 53, 64
9, 99585, Note_off_c, 4, 65, 64
9, 99595, Note_on_c, 4, 58, 89
9, 99595, Note_on_c, 4, 70, 69
9, 99750, Note_off_c, 4, 70, 64
9, 99750, Note_off_c, 4, 58, 64
9, 99840, Note_on_c, 4, 57, 93
9, 99840, Note_on_c, 4, 69, 73
9, 99845, Control_c, 4, 64, 0
9, 100070, Note_on_c, 4, 48, 71
9, 100070, Note_on_c, 4, 60, 51
9, 100115, Note_off_c, 4, 69, 64
9, 100115, Note_off_c, 4, 57, 64
9, 100315, Control_c, 4, 64, 127
9, 100315, Control_c, 4, 64, 127
9, 100325, Note_on_c, 4, 53, 81
9, 100325, Note_on_c, 4, 65, 61
9, 100525, Note_off_c, 4, 48, 64
9, 100525, Note_off_c, 4, 60, 64
9, 100530, Note_off_c, 4, 53, 64
9, 100530, Note_off_c, 4, 65, 64
9, 100565, Note_on_c, 4, 55, 88
9, 100565, Note_on_c, 4, 67, 68
9, 100665, Control_c, 4, 64, 0
9, 101035, Note_on_c, 4, 57, 83
9, 101035, Note_on_c, 4, 69, 63
9, 101065, Note_off_c, 4, 67, 64
9, 101065, Note_off_c, 4, 55, 64
9, 101270, Note_on_c, 4, 55, 76
9, 101270, Note_on_c, 4, 67, 56
9, 101330, Note_off_c, 4, 57, 64
9, 101330, Note_off_c, 4, 69, 64
9, 101525, Note_on_c, 4, 53, 91
9, 101525, Note_on_c, 4, 65, 71
9, 101555, Note_off_c, 4, 55, 64
9, 101555, Note_off_c, 4, 67, 64
9, 102025, Control_c, 4, 1, 76
9, 103285, Control_c, 4, 1, 0
9, 104205, Note_off_c, 4, 53, 64
9, 104205, Note_off_c, 4, 65, 64
9, 105590, Note_on_c, 4, 57, 93
9, 105590, Note_on_c, 4, 69, 73
9, 105705, Control_c, 4, 64, 127
9, 105705, Control_c, 4, 64, 127
9, 105830, Note_on_c, 4, 48, 61
9, 105830, Note_on_c, 4, 60, 41
9, 105870, Note_off_c, 4, 69, 64
9, 105870, Note_off_c, 4, 57, 64
9, 106065, Note_on_c, 4, 53, 79
9, 106065, Note_on_c, 4, 65, 59
9, 106180, Note_off_c, 4, 48, 64
9, 106180, Note_off_c, 4, 60, 64
9, 106290, Note_off_c, 4, 53, 64
9, 106290, Note_off_c, 4, 65, 64
9, 106310, Note_on_c, 4, 58, 93
9, 106310, Note_on_c, 4, 70, 73
9, 106315, Control_c, 4, 64, 0
9, 106795, Note_on_c, 4, 48, 73
9, 106795, Note_on_c, 4, 60, 53
9, 106865, Note_off_c, 4, 70, 64
9, 106865, Note_off_c, 4, 58, 64
9, 106890, Control_c, 4, 64, 127
9, 106890, Control_c, 4, 64, 127
9, 107040, Note_on_c, 4, 53, 81
9, 107040, Note_on_c, 4, 65, 61
9, 107170, Note_off_c, 4, 48, 64
9, 107170, Note_off_c, 4, 60, 64
9, 107265, Note_off_c, 4, 53, 64
9, 107265, Note_off_c, 4, 65, 64
9, 107265, Note_on_c, 4, 58, 93
9, 107265, Note_on_c, 4, 70, 73
9, 107425, Note_off_c, 4, 70, 64
9, 107425, Note_off_c, 4, 58, 64
9, 107435, Control_c, 4, 64, 0
9, 107515, Note_on_c, 4, 57, 91
9, 107515, Note_on_c, 4, 69, 71
9, 107750, Note_on_c, 4, 48, 73
9, 107750, Note_on_c, 4, 60, 53
9, 107785, Note_off_c, 4, 69, 64
9, 107785, Note_off_c, 4, 57, 64
9, 107985, Note_on_c, 4, 53, 83
9, 107985, Note_on_c, 4, 65, 63
9, 108020, Control_c, 4, 64, 127
9, 108020, Control_c, 4, 64, 127
9, 108165, Note_off_c, 4, 48, 64
9, 108165, Note_off_c, 4, 60, 64
9, 108195, Note_off_c, 4, 53, 64
9, 108195, Note_off_c, 4, 65, 64
9, 108240, Note_on_c, 4, 55, 96
9, 108240, Note_on_c, 4, 67, 76
9, 108305, Control_c, 4, 64, 0
9, 108710, Note_on_c, 4, 57, 88
9, 108710, Note_on_c, 4, 69, 68
9, 108790, Note_off_c, 4, 67, 64
9, 108790, Note_off_c, 4, 55, 64
9, 108955, Note_on_c, 4, 55, 83
9, 108955, Note_on_c, 4, 67, 63
9, 109000, Note_off_c, 4, 57, 64
9, 109000, Note_off_c, 4, 69, 64
9, 109180, Note_on_c, 4, 53, 86
9, 109180, Note_on_c, 4, 65, 66
9, 109210, Note_off_c, 4, 55, 64
9, 109210, Note_off_c, 4, 67, 64
9, 109890, Pitch_bend_c, 4, 8144
9, 109900, Pitch_bend_c, 4, 7327
9, 109910, Pitch_bend_c, 4, 5898
9, 109920, Pitch_bend_c, 4, 4326
9, 109930, Pitch_bend_c, 4, 3112
9, 109940, Pitch_bend_c, 4, 2380
9, 109955, Pitch_bend_c, 4, 2050
9, 109965, Pitch_bend_c, 4, 1969
9, 109975, Pitch_bend_c, 4, 1960
9, 109985, Pitch_bend_c, 4, 1974
9, 109995, Pitch_bend_c, 4, 2287
9, 110010, Pitch_bend_c, 4, 2893
9, 110020, Pitch_bend_c, 4, 3644
9, 110030, Pitch_bend_c, 4, 4554
9, 110040, Pitch_bend_c, 4, 5661
9, 110050, Pitch_bend_c, 4, 6813
9, 110060, Pitch_bend_c, 4, 8059
9, 110070, Pitch_bend_c, 4, 8192
9, 110340, Pitch_bend_c, 4, 8050
9, 110350, Pitch_bend_c, 4, 6621
9, 110365, Pitch_bend_c, 4, 4934
9, 110375, Pitch_bend_c, 4, 3148
9, 110385, Pitch_bend_c, 4, 1577
9, 110395, Pitch_bend_c, 4, 728
9, 110405, Pitch_bend_c, 4, 536
9, 110415, Pitch_bend_c, 4, 545
9, 110430, Pitch_bend_c, 4, 692
9, 110440, Pitch_bend_c, 4, 1054
9, 110450, Pitch_bend_c, 4, 1625
9, 110460, Pitch_bend_c, 4, 2313
9, 110470, Pitch_bend_c, 4, 3206
9, 110480, Pitch_bend_c, 4, 4251
9, 110495, Pitch_bend_c, 4, 5608
9, 110505, Pitch_bend_c, 4, 6835
9, 110515, Pitch_bend_c, 4, 8019
9, 110525, Pitch_bend_c, 4, 8192
9, 110850, Pitch_bend_c, 4, 8036
9, 110865, Pitch_bend_c, 4, 6541
9, 110875, Pitch_bend_c, 4, 4898
9, 110885, Pitch_bend_c, 4, 3184
9, 110895, Pitch_bend_c, 4, 1612
9, 110905, Pitch_bend_c, 4, 782
9, 110915, Pitch_bend_c, 4, 692
9, 110940, Pitch_bend_c, 4, 786
9, 110950, Pitch_bend_c, 4, 1121
9, 110960, Pitch_bend_c, 4, 1590
9, 110970, Pitch_bend_c, 4, 2264
9, 110980, Pitch_bend_c, 4, 3108
9, 110990, Pitch_bend_c, 4, 4179
9, 111005, Pitch_bend_c, 4, 5456
9, 111015, Pitch_bend_c, 4, 6787
9, 111025, Pitch_bend_c, 4, 8054
9, 111035, Pitch_bend_c, 4, 8192
9, 111405, Note_off_c, 4, 53, 64
9, 111405, Note_off_c, 4, 65, 64
9, 113285, Note_on_c, 4, 57, 98
9, 113285, Note_on_c, 4, 69, 78
9, 113405, Control_c, 4, 64, 127
9, 113405, Control_c, 4, 64, 127
9, 113520, Note_on_c, 4, 48, 61
9, 113520, Note_on_c, 4, 60, 41
9, 113545, Note_off_c, 4, 69, 64
9, 113545, Note_off_c, 4, 57, 64
9, 113755, Note_on_c, 4, 53, 81
9, 113755, Note_on_c, 4, 65, 61
9, 113850, Note_off_c, 4, 48, 64
9, 113850, Note_off_c, 4, 60, 64
9, 113975, Note_off_c, 4, 53, 64
9, 113975, Note_off_c, 4, 65, 64
9, 113995, Control_c, 4, 64, 0
9, 114000, Note_on_c, 4, 58, 93
9, 114000, Note_on_c, 4, 70, 73
9, 114485, Note_on_c, 4, 48, 67
9, 114485, Note_on_c, 4, 60, 47
9, 114560, Note_off_c, 4, 70, 64
9, 114560, Note_off_c, 4, 58, 64
9, 114655, Control_c, 4, 64, 127
9, 114655, Control_c, 4, 64, 127
9, 114725, Note_on_c, 4, 53, 73
9, 114725, Note_on_c, 4, 65, 53
9, 114890, Note_off_c, 4, 48, 64
9, 114890, Note_off_c, 4, 60, 64
9, 114950, Note_on_c, 4, 58, 89
9, 114950, Note_on_c, 4, 70, 69
9, 114965, Note_off_c, 4, 53, 64
9, 114965, Note_off_c, 4, 65, 64
9, 115120, Note_off_c, 4, 58, 64
9, 115120, Note_off_c, 4, 70, 64
9, 115190, Control_c, 4, 64, 0
9, 115215, Note_on_c, 4, 57, 88
9, 115215, Note_on_c, 4, 69, 68
9, 115450, Note_on_c, 4, 48, 67
9, 115450, Note_on_c, 4, 60, 47
9, 115480, Note_off_c, 4, 69, 64
9, 115480, Note_off_c, 4, 57, 64
9, 115685, Note_on_c, 4, 53, 65
9, 115685, Note_on_c, 4, 65, 45
9, 115880, Note_off_c, 4, 48, 64
9, 115880, Note_off_c, 4, 60, 64
9, 115895, Note_off_c, 4, 53, 64
9, 115895, Note_off_c, 4, 65, 64
9, 115930, Note_on_c, 4, 55, 93
9, 115930, Note_on_c, 4, 67, 73
9, 116395, Note_on_c, 4, 57, 86
9, 116395, Note_on_c, 4, 69, 66
9, 116425, Note_off_c, 4, 67, 64
9, 116425, Note_off_c, 4, 55, 64
9, 116645, Note_on_c, 4, 55, 86
9, 116645, Note_on_c, 4, 67, 66
9, 116715, Note_off_c, 4, 57, 64
9, 116715, Note_off_c, 4, 69, 64
9, 116880, Note_on_c, 4, 53, 91
9, 116880, Note_on_c, 4, 65, 71
9, 116915, Note_off_c, 4, 55, 64
9, 116915, Note_off_c, 4, 67, 64
9, 117105, Pitch_bend_c, 4, 7184
9, 117115, Pitch_bend_c, 4, 5326
9, 117125, Pitch_bend_c, 4, 3326
9, 117135, Pitch_bend_c, 4, 1898
9, 117145, Pitch_bend_c, 4, 1295
9, 117155, Pitch_bend_c, 4, 1112
9, 117170, Pitch_bend_c, 4, 1103
9, 117180, Pitch_bend_c, 4, 1121
9, 117190, Pitch_bend_c, 4, 1358
9, 117200, Pitch_bend_c, 4, 1844
9, 117210, Pitch_bend_c, 4, 2465
9, 117220, Pitch_bend_c, 4, 3242
9, 117235, Pitch_bend_c, 4, 4206
9, 117245, Pitch_bend_c, 4, 5536
9, 117255, Pitch_bend_c, 4, 6894
9, 117265, Pitch_bend_c, 4, 8139
9, 117275, Pitch_bend_c, 4, 8192
9, 117585, Pitch_bend_c, 4, 7612
9, 117595, Pitch_bend_c, 4, 5648
9, 117605, Pitch_bend_c, 4, 3666
9, 117615, Pitch_bend_c, 4, 1969
9, 117625, Pitch_bend_c, 4, 1295
9, 117635, Pitch_bend_c, 4, 1228
9, 117650, Pitch_bend_c, 4, 1237
9, 117660, Pitch_bend_c, 4, 1398
9, 117670, Pitch_bend_c, 4, 1840
9, 117680, Pitch_bend_c, 4, 2491
9, 117690, Pitch_bend_c, 4, 3300
9, 117700, Pitch_bend_c, 4, 4393
9, 117715, Pitch_bend_c, 4, 5804
9, 117725, Pitch_bend_c, 4, 7394
9, 117735, Pitch_bend_c, 4, 8192
9, 118060, Pitch_bend_c, 4, 7827
9, 118075, Pitch_bend_c, 4, 5969
9, 118085, Pitch_bend_c, 4, 3684
9, 118095, Pitch_bend_c, 4, 1791
9, 118105, Pitch_bend_c, 4, 938
9, 118115, Pitch_bend_c, 4, 777
9, 118125, Pitch_bend_c, 4, 764
9, 118150, Pitch_bend_c, 4, 782
9, 118160, Pitch_bend_c, 4, 1251
9, 118170, Pitch_bend_c, 4, 2179
9, 118180, Pitch_bend_c, 4, 3349
9, 118190, Pitch_bend_c, 4, 4858
9, 118200, Pitch_bend_c, 4, 6536
9, 118215, Pitch_bend_c, 4, 8072
9, 118225, Pitch_bend_c, 4, 8192
9, 118530, Pitch_bend_c, 4, 8086
9, 118540, Pitch_bend_c, 4, 6541
9, 118550, Pitch_bend_c, 4, 4559
9, 118565, Pitch_bend_c, 4, 2755
9, 118575, Pitch_bend_c, 4, 1577
9, 118585, Pitch_bend_c, 4, 1242
9, 118615, Pitch_bend_c, 4, 1501
9, 118630, Pitch_bend_c, 4, 2090
9, 118640, Pitch_bend_c, 4, 2893
9, 118650, Pitch_bend_c, 4, 3929
9, 118660, Pitch_bend_c, 4, 5287
9, 118670, Pitch_bend_c, 4, 6787
9, 118680, Pitch_bend_c, 4, 8126
9, 118690, Pitch_bend_c, 4, 8192
9, 118980, Note_off_c, 4, 53, 64
9, 118980, Note_off_c, 4, 65, 64
9, 119020, Pitch_bend_c, 4, 7934
9, 119030, Pitch_bend_c, 4, 6130
9, 119040, Pitch_bend_c, 4, 4469
9, 119050, Pitch_bend_c, 4, 3077
9, 119065, Pitch_bend_c, 4, 2313
9, 119075, Pitch_bend_c, 4, 2228
9, 119085, Pitch_bend_c, 4, 2277
9, 119095, Pitch_bend_c, 4, 2608
9, 119105, Pitch_bend_c, 4, 3179
9, 119120, Pitch_bend_c, 4, 4019
9, 119130, Pitch_bend_c, 4, 4965
9, 119140, Pitch_bend_c, 4, 6215
9, 119150, Pitch_bend_c, 4, 7688
9, 119160, Pitch_bend_c, 4, 8192
9, 119500, Pitch_bend_c, 4, 7220
9, 119510, Pitch_bend_c, 4, 5469
9, 119520, Pitch_bend_c, 4, 3398
9, 119530, Pitch_bend_c, 4, 1612
9, 119540, Pitch_bend_c, 4, 398
9, 119550, Pitch_bend_c, 4, 67
9, 119570, Pitch_bend_c, 4, 295
9, 119585, Pitch_bend_c, 4, 885
9, 119595, Pitch_bend_c, 4, 1608
9, 119605, Pitch_bend_c, 4, 2465
9, 119615, Pitch_bend_c, 4, 3590
9, 119625, Pitch_bend_c, 4, 4965
9, 119640, Pitch_bend_c, 4, 6608
9, 119650, Pitch_bend_c, 4, 8108
9, 119660, Pitch_bend_c, 4, 8192
9, 120965, Note_on_c, 4, 57, 101
9, 120965, Note_on_c, 4, 69, 81
9, 121200, Note_on_c, 4, 48, 58
9, 121200, Note_on_c, 4, 60, 38
9, 121245, Note_off_c, 4, 69, 64
9, 121245, Note_off_c, 4, 57, 64
9, 121325, Control_c, 4, 64, 127
9, 121325, Control_c, 4, 64, 127
9, 121445, Note_on_c, 4, 53, 73
9, 121445, Note_on_c, 4, 65, 53
9, 121550, Note_off_c, 4, 48, 64
9, 121550, Note_off_c, 4, 60, 64
9, 121655, Note_off_c, 4, 53, 64
9, 121655, Note_off_c, 4, 65, 64
9, 121685, Note_on_c, 4, 58, 101
9, 121685, Note_on_c, 4, 70, 81
9, 121740, Control_c, 4, 64, 0
9, 122165, Note_on_c, 4, 48, 73
9, 122165, Note_on_c, 4, 60, 53
9, 122235, Note_off_c, 4, 70, 64
9, 122235, Note_off_c, 4, 58, 64
9, 122405, Note_on_c, 4, 53, 81
9, 122405, Note_on_c, 4, 65, 61
9, 122570, Note_off_c, 4, 48, 64
9, 122570, Note_off_c, 4, 60, 64
9, 122630, Note_on_c, 4, 58, 89
9, 122630, Note_on_c, 4, 70, 69
9, 122660, Note_off_c, 4, 53, 64
9, 122660, Note_off_c, 4, 65, 64
9, 122810, Note_off_c, 4, 58, 64
9, 122810, Note_off_c, 4, 70, 64
9, 122885, Note_on_c, 4, 57, 93
9, 122885, Note_on_c, 4, 69, 73
9, 123115, Note_on_c, 4, 48, 65
9, 123115, Note_on_c, 4, 60, 45
9, 123165, Note_off_c, 4, 69, 64
9, 123165, Note_off_c, 4, 57, 64
9, 123350, Note_on_c, 4, 53, 83
9, 123350, Note_on_c, 4, 65, 63
9, 123595, Note_on_c, 4, 55, 88
9, 123595, Note_on_c, 4, 67, 68
9, 123600, Note_off_c, 4, 65, 64
9, 123600, Note_off_c, 4, 53, 64
9, 123620, Note_off_c, 4, 48, 64
9, 123620, Note_off_c, 4, 60, 64
9, 124080, Note_on_c, 4, 57, 86
9, 124080, Note_on_c, 4, 69, 66
9, 124115, Note_off_c, 4, 55, 64
9, 124115, Note_off_c, 4, 67, 64
9, 124305, Note_on_c, 4, 55, 83
9, 124305, Note_on_c, 4, 67, 63
9, 124370, Note_off_c, 4, 57, 64
9, 124370, Note_off_c, 4, 69, 64
9, 124545, Note_on_c, 4, 53, 73
9, 124545, Note_on_c, 4, 65, 53
9, 124595, Note_off_c, 4, 55, 64
9, 124595, Note_off_c, 4, 67, 64
9, 124800, Note_on_c, 4, 60, 104
9, 124800, Note_on_c, 4, 55, 88
9, 124800, Note_on_c, 4, 64, 98
9, 124925, Note_off_c, 4, 53, 64
9, 124925, Note_off_c, 4, 65, 64
9, 125210, Control_c, 4, 64, 127
9, 125235, Note_off_c, 4, 55, 64
9, 125245, Note_off_c, 4, 64, 64
9, 125260, Note_off_c, 4, 60, 64
9, 125530, Note_on_c, 4, 55, 93
9, 126175, Note_off_c, 4, 55, 64
9, 126225, Note_on_c, 4, 55, 19
9, 126250, Note_on_c, 4, 60, 91
9, 126345, Note_off_c, 4, 55, 64
9, 126355, Note_off_c, 4, 60, 64
9, 126725, Note_on_c, 4, 64, 93
9, 126730, Note_on_c, 4, 60, 98
9, 126735, Note_on_c, 4, 55, 86
9, 127130, Note_off_c, 4, 64, 64
9, 127140, Note_off_c, 4, 60, 64
9, 127160, Note_off_c, 4, 55, 64
9, 127445, Note_on_c, 4, 60, 98
9, 127450, Note_on_c, 4, 55, 88
9, 127450, Note_on_c, 4, 64, 96
9, 128025, Note_off_c, 4, 55, 64
9, 128140, Note_off_c, 4, 64, 64
9, 128155, Note_off_c, 4, 60, 64
9, 128645, Note_on_c, 4, 60, 101
9, 128650, Note_on_c, 4, 64, 96
9, 128655, Note_on_c, 4, 55, 88
9, 129060, Note_off_c, 4, 64, 64
9, 129100, Note_off_c, 4, 60, 64
9, 129105, Note_off_c, 4, 55, 64
9, 129340, Control_c, 4, 64, 0
9, 129600, Note_on_c, 4, 58, 104
9, 129605, Note_on_c, 4, 62, 96
9, 129995, Control_c, 4, 64, 127
9, 130085, Note_off_c, 4, 58, 64
9, 130090, Note_off_c, 4, 62, 64
9, 130560, Note_on_c, 4, 57, 104
9, 130560, Note_on_c, 4, 60, 101
9, 131335, Control_c, 4, 64, 0
9, 131515, Note_on_c, 4, 53, 98
9, 131920, Control_c, 4, 64, 127
9, 131950, Note_off_c, 4, 53, 64
9, 131955, Note_off_c, 4, 57, 64
9, 131975, Note_off_c, 4, 60, 64
9, 132320, Control_c, 4, 64, 0
9, 132485, Note_on_c, 4, 58, 89
9, 132490, Note_on_c, 4, 62, 91
9, 132500, Note_on_c, 4, 65, 93
9, 132980, Note_off_c, 4, 58, 64
9, 132995, Control_c, 4, 64, 127
9, 133170, Note_off_c, 4, 65, 64
9, 133190, Note_on_c, 4, 58, 110
9, 133225, Note_on_c, 4, 65, 56
9, 133255, Note_off_c, 4, 62, 64
9, 133835, Note_off_c, 4, 65, 64
9, 133935, Note_on_c, 4, 62, 88
9, 134070, Note_off_c, 4, 58, 64
9, 134115, Note_off_c, 4, 62, 64
9, 134390, Note_on_c, 4, 58, 83
9, 134395, Note_on_c, 4, 62, 86
9, 134400, Note_on_c, 4, 65, 88
9, 134835, Note_off_c, 4, 58, 64
9, 134840, Note_off_c, 4, 65, 64
9, 134885, Note_off_c, 4, 62, 64
9, 135115, Note_on_c, 4, 58, 97
9, 135120, Note_on_c, 4, 62, 91
9, 135130, Note_on_c, 4, 65, 91
9, 135535, Note_off_c, 4, 58, 64
9, 135800, Note_off_c, 4, 65, 64
9, 135825, Note_off_c, 4, 62, 64
9, 135840, Note_on_c, 4, 58, 89
9, 135900, Note_off_c, 4, 58, 64
9, 136210, Control_c, 4, 64, 0
9, 136315, Note_on_c, 4, 58, 93
9, 136315, Note_on_c, 4, 62, 91
9, 136730, Control_c, 4, 64, 127
9, 137035, Note_on_c, 4, 53, 86
9, 137450, Note_off_c, 4, 58, 64
9, 137760, Note_on_c, 4, 58, 101
9, 137890, Note_off_c, 4, 62, 64
9, 137975, Note_off_c, 4, 58, 64
9, 137990, Note_off_c, 4, 53, 64
9, 138240, Note_on_c, 4, 62, 93
9, 138240, Note_on_c, 4, 53, 81
9, 138245, Note_on_c, 4, 58, 93
9, 138730, Note_off_c, 4, 53, 64
9, 138850, Note_off_c, 4, 58, 64
9, 138865, Note_off_c, 4, 62, 64
9, 138965, Note_on_c, 4, 53, 96
9, 139695, Note_on_c, 4, 58, 93
9, 139755, Note_off_c, 4, 53, 64
9, 139780, Note_off_c, 4, 58, 64
9, 140070, Control_c, 4, 64, 0
9, 140145, Note_on_c, 4, 55, 81
9, 140155, Note_on_c, 4, 60, 96
9, 140160, Note_on_c, 4, 64, 91
9, 140665, Note_off_c, 4, 55, 64
9, 140695, Note_off_c, 4, 64, 64
9, 140700, Note_off_c, 4, 60, 64
9, 140815, Control_c, 4, 64, 127
9, 140890, Note_on_c, 4, 64, 98
9, 140900, Note_on_c, 4, 55, 96
9, 140900, Note_on_c, 4, 60, 96
9, 141705, Note_off_c, 4, 55, 64
9, 141755, Note_off_c, 4, 64, 64
9, 141760, Note_off_c, 4, 60, 64
9, 142085, Note_on_c, 4, 60, 101
9, 142090, Note_on_c, 4, 64, 93
9, 142095, Note_on_c, 4, 55, 88
9, 142535, Note_off_c, 4, 55, 64
9, 142545, Note_off_c, 4, 64, 64
9, 142550, Note_off_c, 4, 60, 64
9, 142775, Note_on_c, 4, 55, 83
9, 142775, Note_on_c, 4, 60, 98
9, 142780, Note_on_c, 4, 64, 91
9, 143560, Note_off_c, 4, 55, 64
9, 143660, Note_off_c, 4, 64, 64
9, 143665, Note_off_c, 4, 60, 64
9, 143690, Control_c, 4, 64, 0
9, 143995, Note_on_c, 4, 60, 109
9, 143995, Note_on_c, 4, 64, 98
9, 144000, Note_on_c, 4, 55, 91
9, 144325, Control_c, 4, 64, 127
9, 144445, Note_off_c, 4, 64, 64
9, 144490, Note_off_c, 4, 55, 64
9, 144495, Note_off_c, 4, 60, 64
9, 144755, Control_c, 4, 64, 0
9, 144965, Note_on_c, 4, 58, 104
9, 144970, Note_on_c, 4, 62, 96
9, 145310, Control_c, 4, 64, 127
9, 145415, Note_off_c, 4, 58, 64
9, 145425, Note_off_c, 4, 62, 64
9, 145790, Control_c, 4, 64, 0
9, 145925, Note_on_c, 4, 60, 104
9, 145930, Note_on_c, 4, 57, 104
9, 146240, Control_c, 4, 64, 127
9, 146875, Note_on_c, 4, 53, 98
9, 147040, Note_off_c, 4, 57, 64
9, 147050, Note_off_c, 4, 53, 64
9, 147055, Note_off_c, 4, 60, 64
9, 147550, Control_c, 4, 64, 0
9, 147825, Note_on_c, 4, 58, 97
9, 147835, Note_on_c, 4, 62, 88
9, 147840, Note_on_c, 4, 65, 86
9, 148285, Note_off_c, 4, 58, 64
9, 148320, Control_c, 4, 64, 127
9, 148530, Note_off_c, 4, 65, 64
9, 148555, Note_on_c, 4, 58, 110
9, 148570, Note_on_c, 4, 65, 25
9, 148620, Note_off_c, 4, 62, 64
9, 149235, Note_off_c, 4, 65, 64
9, 149285, Note_on_c, 4, 62, 83
9, 149455, Note_off_c, 4, 58, 64
9, 149505, Note_off_c, 4, 62, 64
9, 149745, Note_on_c, 4, 62, 88
9, 149750, Note_on_c, 4, 58, 72
9, 149755, Note_on_c, 4, 65, 91
9, 150165, Note_off_c, 4, 58, 64
9, 150370, Note_off_c, 4, 65, 64
9, 150390, Note_off_c, 4, 62, 64
9, 150475, Note_on_c, 4, 58, 110
9, 150910, Note_on_c, 4, 62, 46
9, 151055, Note_off_c, 4, 62, 64
9, 151170, Note_on_c, 4, 65, 86
9, 151175, Note_on_c, 4, 62, 59
9, 151205, Note_off_c, 4, 58, 64
9, 151220, Note_off_c, 4, 62, 64
9, 151260, Note_off_c, 4, 65, 64
9, 151580, Control_c, 4, 64, 0
9, 151670, Note_on_c, 4, 57, 101
9, 151675, Note_on_c, 4, 60, 101
9, 151680, Note_on_c, 4, 53, 73
9, 152170, Note_off_c, 4, 53, 64
9, 152290, Control_c, 4, 64, 127
9, 152375, Note_off_c, 4, 57, 64
9, 152390, Note_on_c, 4, 53, 98
9, 152825, Note_off_c, 4, 60, 64
9, 152900, Note_on_c, 4, 57, 91
9, 153055, Note_off_c, 4, 57, 64
9, 153120, Note_on_c, 4, 60, 73
9, 153125, Note_on_c, 4, 57, 56
9, 153205, Note_off_c, 4, 53, 64
9, 153215, Note_off_c, 4, 57, 64
9, 153380, Control_c, 4, 64, 0
9, 153425, Note_off_c, 4, 60, 64
9, 153595, Note_on_c, 4, 55, 109
9, 153600, Note_on_c, 4, 60, 104
9, 153605, Note_on_c, 4, 53, 88
9, 155125, Note_off_c, 4, 53, 64
9, 155210, Note_off_c, 4, 55, 64
9, 155220, Note_off_c, 4, 60, 64
9, 155520, Note_on_c, 4, 57, 101
9, 155520, Note_on_c, 4, 69, 81
9, 155560, Control_c, 4, 64, 127
9, 155560, Control_c, 4, 64, 127
9, 155745, Note_on_c, 4, 48, 71
9, 155745, Note_on_c, 4, 60, 51
9, 155795, Note_off_c, 4, 69, 64
9, 155795, Note_off_c, 4, 57, 64
9, 155990, Note_off_c, 4, 48, 64
9, 155990, Note_off_c, 4, 60, 64
9, 155995, Note_on_c, 4, 53, 79
9, 155995, Note_on_c, 4, 65, 59
9, 156200, Note_off_c, 4, 65, 64
9, 156200, Note_off_c, 4, 53, 64
9, 156245, Note_on_c, 4, 58, 93
9, 156245, Note_on_c, 4, 70, 73
9, 156630, Control_c, 4, 64, 0
9, 156720, Note_on_c, 4, 48, 69
9, 156720, Note_on_c, 4, 60, 49
9, 156745, Note_off_c, 4, 70, 64
9, 156745, Note_off_c, 4, 58, 64
9, 156965, Note_on_c, 4, 53, 73
9, 156965, Note_on_c, 4, 65, 53
9, 157090, Note_off_c, 4, 48, 64
9, 157090, Note_off_c, 4, 60, 64
9, 157175, Note_off_c, 4, 53, 64
9, 157175, Note_off_c, 4, 65, 64
9, 157180, Note_on_c, 4, 58, 89
9, 157180, Note_on_c, 4, 70, 69
9, 157340, Note_off_c, 4, 70, 64
9, 157340, Note_off_c, 4, 58, 64
9, 157430, Note_on_c, 4, 57, 93
9, 157430, Note_on_c, 4, 69, 73
9, 157655, Note_on_c, 4, 48, 71
9, 157655, Note_on_c, 4, 60, 51
9, 157715, Note_off_c, 4, 69, 64
9, 157715, Note_off_c, 4, 57, 64
9, 157745, Control_c, 4, 64, 127
9, 157745, Control_c, 4, 64, 127
9, 157890, Note_on_c, 4, 53, 73
9, 157890, Note_on_c, 4, 65, 53
9, 158080, Note_off_c, 4, 48, 64
9, 158080, Note_off_c, 4, 60, 64
9, 158085, Note_off_c, 4, 53, 64
9, 158085, Note_off_c, 4, 65, 64
9, 158155, Note_on_c, 4, 55, 98
9, 158155, Note_on_c, 4, 67, 78
9, 158595, Note_off_c, 4, 67, 64
9, 158595, Note_off_c, 4, 55, 64
9, 158620, Note_on_c, 4, 57, 88
9, 158620, Note_on_c, 4, 69, 68
9, 158845, Note_off_c, 4, 69, 64
9, 158845, Note_off_c, 4, 57, 64
9, 158875, Note_on_c, 4, 55, 79
9, 158875, Note_on_c, 4, 67, 59
9, 159065, Note_off_c, 4, 67, 64
9, 159065, Note_off_c, 4, 55, 64
9, 159110, Note_on_c, 4, 53, 41
9, 159110, Note_on_c, 4, 65, 21
9, 159240, Control_c, 4, 64, 0
9, 159260, Note_off_c, 4, 65, 64
9, 159260, Note_off_c, 4, 53, 64
9, 159345, Note_on_c, 4, 57, 98
9, 159345, Note_on_c, 4, 69, 78
9, 159570, Note_on_c, 4, 48, 50
9, 159570, Note_on_c, 4, 60, 30
9, 159640, Note_off_c, 4, 69, 64
9, 159640, Note_off_c, 4, 57, 64
9, 159700, Control_c, 4, 64, 127
9, 159700, Control_c, 4, 64, 127
9, 159845, Note_on_c, 4, 53, 69
9, 159845, Note_on_c, 4, 65, 49
9, 159925, Note_off_c, 4, 48, 64
9, 159925, Note_off_c, 4, 60, 64
9, 160065, Note_off_c, 4, 53, 64
9, 160065, Note_off_c, 4, 65, 64
9, 160080, Note_on_c, 4, 58, 97
9, 160080, Note_on_c, 4, 70, 77
9, 160565, Note_on_c, 4, 48, 71
9, 160565, Note_on_c, 4, 60, 51
9, 160595, Note_off_c, 4, 70, 64
9, 160595, Note_off_c, 4, 58, 64
9, 160810, Note_on_c, 4, 53, 76
9, 160810, Note_on_c, 4, 65, 56
9, 160965, Note_off_c, 4, 48, 64
9, 160965, Note_off_c, 4, 60, 64
9, 161010, Note_off_c, 4, 53, 64
9, 161010, Note_off_c, 4, 65, 64
9, 161030, Note_on_c, 4, 58, 87
9, 161030, Note_on_c, 4, 70, 67
9, 161180, Note_off_c, 4, 70, 64
9, 161180, Note_off_c, 4, 58, 64
9, 161185, Control_c, 4, 64, 0
9, 161280, Note_on_c, 4, 57, 91
9, 161280, Note_on_c, 4, 69, 71
9, 161510, Note_on_c, 4, 48, 61
9, 161510, Note_on_c, 4, 60, 41
9, 161555, Note_off_c, 4, 69, 64
9, 161555, Note_off_c, 4, 57, 64
9, 161585, Control_c, 4, 64, 127
9, 161585, Control_c, 4, 64, 127
9, 161760, Note_on_c, 4, 53, 79
9, 161760, Note_on_c, 4, 65, 59
9, 161970, Note_off_c, 4, 65, 64
9, 161970, Note_off_c, 4, 53, 64
9, 161970, Note_off_c, 4, 48, 64
9, 161970, Note_off_c, 4, 60, 64
9, 162010, Note_on_c, 4, 55, 88
9, 162010, Note_on_c, 4, 67, 68
9, 162070, Control_c, 4, 64, 0
9, 162480, Note_on_c, 4, 57, 91
9, 162480, Note_on_c, 4, 69, 71
9, 162525, Note_off_c, 4, 67, 64
9, 162525, Note_off_c, 4, 55, 64
9, 162735, Note_on_c, 4, 55, 86
9, 162735, Note_on_c, 4, 67, 66
9, 162775, Note_off_c, 4, 57, 64
9, 162775, Note_off_c, 4, 69, 64
9, 162960, Note_on_c, 4, 53, 88
9, 162960, Note_on_c, 4, 65, 68
9, 162995, Note_off_c, 4, 55, 64
9, 162995, Note_off_c, 4, 67, 64
9, 163215, Note_on_c, 4, 46, 101
9, 163455, Note_on_c, 4, 58, 93
9, 163510, Note_off_c, 4, 53, 64
9, 163510, Note_off_c, 4, 65, 64
9, 163565, Control_c, 4, 64, 127
9, 163685, Note_on_c, 4, 62, 86
9, 163895, Note_on_c, 4, 65, 86
9, 163975, Note_off_c, 4, 62, 64
9, 164000, Note_off_c, 4, 58, 64
9, 164140, Note_on_c, 4, 62, 79
9, 164385, Note_on_c, 4, 58, 97
9, 164410, Note_off_c, 4, 62, 64
9, 164560, Note_off_c, 4, 65, 64
9, 164635, Note_on_c, 4, 62, 88
9, 164860, Note_on_c, 4, 65, 73
9, 164920, Note_off_c, 4, 58, 64
9, 164940, Note_off_c, 4, 62, 64
9, 165100, Note_off_c, 4, 65, 64
9, 165115, Note_on_c, 4, 70, 83
9, 165300, Note_off_c, 4, 70, 64
9, 165330, Note_on_c, 4, 65, 79
9, 165595, Note_on_c, 4, 62, 91
9, 165820, Note_on_c, 4, 58, 93
9, 165860, Note_off_c, 4, 62, 64
9, 166055, Note_on_c, 4, 62, 83
9, 166100, Note_off_c, 4, 58, 64
9, 166315, Note_on_c, 4, 58, 97
9, 166355, Note_off_c, 4, 62, 64
9, 166420, Note_off_c, 4, 46, 64
9, 166570, Note_on_c, 4, 46, 104
9, 166610, Note_off_c, 4, 58, 64
9, 166625, Note_off_c, 4, 65, 64
9, 166795, Note_on_c, 4, 58, 97
9, 166960, Note_off_c, 4, 46, 64
9, 167045, Note_on_c, 4, 46, 101
9, 167095, Note_off_c, 4, 58, 64
9, 167285, Note_on_c, 4, 58, 93
9, 167525, Note_on_c, 4, 62, 96
9, 167615, Note_off_c, 4, 58, 64
9, 167745, Note_on_c, 4, 58, 87
9, 167780, Note_off_c, 4, 62, 64
9, 167985, Note_on_c, 4, 62, 86
9, 168115, Note_off_c, 4, 58, 64
9, 168210, Note_off_c, 4, 62, 64
9, 168230, Note_on_c, 4, 65, 79
9, 168485, Note_on_c, 4, 58, 101
9, 168705, Note_on_c, 4, 62, 71
9, 168720, Note_off_c, 4, 65, 64
9, 168875, Note_off_c, 4, 58, 64
9, 168895, Note_off_c, 4, 62, 64
9, 168955, Note_on_c, 4, 65, 96
9, 169180, Note_on_c, 4, 62, 73
9, 169350, Note_off_c, 4, 65, 64
9, 169425, Note_on_c, 4, 58, 104
9, 169445, Note_on_c, 4, 65, 44
9, 169505, Note_off_c, 4, 62, 64
9, 169580, Note_off_c, 4, 65, 64
9, 169645, Note_on_c, 4, 62, 76
9, 169810, Note_off_c, 4, 58, 64
9, 169850, Note_off_c, 4, 62, 64
9, 169900, Note_on_c, 4, 65, 93
9, 169910, Note_off_c, 4, 46, 64
9, 169925, Note_on_c, 4, 58, 54
9, 169985, Note_off_c, 4, 58, 64
9, 170125, Note_on_c, 4, 62, 81
9, 170255, Note_off_c, 4, 65, 64
9, 170380, Note_off_c, 4, 62, 64
9, 170390, Note_on_c, 4, 58, 104
9, 170410, Note_on_c, 4, 65, 56
9, 170615, Note_on_c, 4, 62, 69
9, 170620, Note_off_c, 4, 58, 64
9, 170625, Note_off_c, 4, 65, 64
9, 170715, Note_off_c, 4, 62, 64
9, 170795, Control_c, 4, 64, 0
9, 170875, Note_on_c, 4, 41, 101
9, 171110, Note_on_c, 4, 53, 81
9, 171355, Note_on_c, 4, 57, 98
9, 171370, Control_c, 4, 64, 127
9, 171595, Note_on_c, 4, 60, 88
9, 171655, Note_off_c, 4, 57, 64
9, 171760, Note_off_c, 4, 53, 64
9, 171845, Note_on_c, 4, 57, 88
9, 171920, Note_off_c, 4, 60, 64
9, 172065, Note_on_c, 4, 53, 86
9, 172110, Note_off_c, 4, 57, 64
9, 172245, Note_off_c, 4, 53, 64
9, 172335, Note_on_c, 4, 57, 104
9, 172340, Note_on_c, 4, 53, 50
9, 172455, Note_off_c, 4, 53, 64
9, 172505, Note_off_c, 4, 57, 64
9, 172545, Note_on_c, 4, 60, 88
9, 172690, Note_off_c, 4, 60, 64
9, 172790, Note_on_c, 4, 57, 93
9, 172990, Note_off_c, 4, 57, 64
9, 173030, Note_on_c, 4, 53, 83
9, 173205, Note_off_c, 4, 53, 64
9, 173285, Note_on_c, 4, 53, 56
9, 173295, Note_on_c, 4, 57, 101
9, 173405, Note_off_c, 4, 53, 64
9, 173430, Note_off_c, 4, 57, 64
9, 173505, Note_on_c, 4, 60, 86
9, 173625, Note_off_c, 4, 60, 64
9, 173775, Note_on_c, 4, 60, 104
9, 173780, Note_on_c, 4, 53, 86
9, 173990, Note_on_c, 4, 57, 81
9, 174005, Note_off_c, 4, 60, 64
9, 174025, Note_off_c, 4, 53, 64
9, 174125, Note_off_c, 4, 57, 64
9, 174250, Note_on_c, 4, 53, 86
9, 174480, Note_on_c, 4, 57, 88
9, 174560, Note_off_c, 4, 53, 64
9, 174605, Note_off_c, 4, 57, 64
9, 174725, Note_on_c, 4, 60, 98
9, 174900, Note_off_c, 4, 60, 64
9, 174955, Note_on_c, 4, 53, 71
9, 175095, Note_off_c, 4, 53, 64
9, 175205, Note_on_c, 4, 57, 109
9, 175365, Note_off_c, 4, 57, 64
9, 175450, Note_on_c, 4, 60, 88
9, 175590, Note_off_c, 4, 60, 64
9, 175700, Note_on_c, 4, 53, 79
9, 175840, Note_off_c, 4, 53, 64
9, 175925, Note_on_c, 4, 57, 93
9, 176035, Note_off_c, 4, 57, 64
9, 176185, Note_on_c, 4, 60, 104
9, 176345, Note_off_c, 4, 60, 64
9, 176405, Note_on_c, 4, 53, 83
9, 176550, Note_off_c, 4, 53, 64
9, 176635, Note_on_c, 4, 57, 93
9, 176745, Note_off_c, 4, 57, 64
9, 176880, Note_on_c, 4, 60, 86
9, 177025, Note_off_c, 4, 60, 64
9, 177115, Note_on_c, 4, 53, 91
9, 177330, Note_on_c, 4, 57, 93
9, 177405, Note_off_c, 4, 53, 64
9, 177450, Note_off_c, 4, 57, 64
9, 177605, Note_on_c, 4, 60, 101
9, 177760, Note_off_c, 4, 60, 64
9, 177840, Note_on_c, 4, 53, 88
9, 177975, Note_off_c, 4, 53, 64
9, 178080, Note_on_c, 4, 57, 98
9, 178215, Note_off_c, 4, 57, 64
9, 178310, Note_on_c, 4, 60, 53
9, 178420, Note_off_c, 4, 60, 64
9, 178460, Control_c, 4, 64, 0
9, 178560, Note_on_c, 4, 46, 115
9, 178605, Note_off_c, 4, 41, 64
9, 178815, Note_on_c, 4, 58, 93
9, 178965, Control_c, 4, 64, 127
9, 179010, Note_off_c, 4, 58, 64
9, 179035, Note_on_c, 4, 58, 36
9, 179045, Note_on_c, 4, 62, 96
9, 179230, Note_off_c, 4, 58, 64
9, 179280, Note_on_c, 4, 58, 17
9, 179285, Note_on_c, 4, 65, 93
9, 179360, Note_off_c, 4, 62, 64
9, 179375, Note_off_c, 4, 58, 64
9, 179510, Note_on_c, 4, 62, 86
9, 179760, Note_on_c, 4, 58, 93
9, 179805, Note_off_c, 4, 62, 64
9, 179965, Note_off_c, 4, 58, 64
9, 180010, Note_on_c, 4, 62, 93
9, 180065, Note_off_c, 4, 65, 64
9, 180100, Note_off_c, 4, 62, 64
9, 180360, Note_off_c, 4, 46, 64
9, 180385, Control_c, 4, 64, 0
9, 180465, Note_on_c, 4, 45, 98
9, 180695, Note_on_c, 4, 53, 79
9, 180860, Note_off_c, 4, 53, 64
9, 180945, Note_on_c, 4, 57, 101
9, 180970, Control_c, 4, 64, 127
9, 180975, Note_on_c, 4, 53, 43
9, 181045, Note_off_c, 4, 53, 64
9, 181105, Note_off_c, 4, 57, 64
9, 181200, Note_on_c, 4, 60, 88
9, 181335, Note_off_c, 4, 60, 64
9, 181450, Note_on_c, 4, 57, 96
9, 181625, Note_off_c, 4, 57, 64
9, 181675, Note_on_c, 4, 53, 83
9, 181850, Note_off_c, 4, 53, 64
9, 181925, Note_on_c, 4, 53, 54
9, 181930, Note_on_c, 4, 57, 98
9, 182040, Note_off_c, 4, 53, 64
9, 182070, Note_off_c, 4, 57, 64
9, 182150, Note_on_c, 4, 60, 88
9, 182180, Note_on_c, 4, 53, 39
9, 182180, Note_on_c, 4, 57, 43
9, 182240, Control_c, 4, 64, 0
9, 182315, Note_off_c, 4, 57, 64
9, 182320, Note_off_c, 4, 45, 64
9, 182365, Note_off_c, 4, 60, 64
9, 182390, Note_on_c, 4, 43, 98
9, 182400, Note_off_c, 4, 53, 64
9, 182600, Note_on_c, 4, 53, 79
9, 182820, Control_c, 4, 64, 127
9, 182850, Note_on_c, 4, 55, 93
9, 182980, Note_off_c, 4, 55, 64
9, 182985, Note_off_c, 4, 53, 64
9, 183100, Note_on_c, 4, 58, 93
9, 183205, Note_off_c, 4, 58, 64
9, 183360, Note_on_c, 4, 55, 76
9, 183475, Note_off_c, 4, 55, 64
9, 183585, Note_on_c, 4, 53, 67
9, 183715, Note_off_c, 4, 53, 64
9, 183865, Note_on_c, 4, 55, 88
9, 183985, Note_off_c, 4, 55, 64
9, 184080, Note_on_c, 4, 58, 101
9, 184200, Note_off_c, 4, 58, 64
9, 184310, Note_on_c, 4, 55, 59
9, 184400, Note_off_c, 4, 55, 64
9, 184540, Note_on_c, 4, 53, 67
9, 184660, Note_off_c, 4, 53, 64
9, 184815, Note_on_c, 4, 55, 93
9, 184925, Note_off_c, 4, 55, 64
9, 185020, Note_on_c, 4, 58, 93
9, 185175, Note_off_c, 4, 58, 64
9, 185265, Note_on_c, 4, 55, 79
9, 185435, Control_c, 4, 64, 0
9, 185490, Note_on_c, 4, 53, 67
9, 185755, Note_off_c, 4, 53, 64
9, 185765, Note_off_c, 4, 55, 64
9, 185805, Note_off_c, 4, 43, 64
9, 186230, Note_on_c, 4, 48, 101
9, 186720, Note_on_c, 4, 60, 101
9, 186720, Note_on_c, 4, 67, 101
9, 187075, Note_off_c, 4, 48, 64
9, 187220, Note_on_c, 4, 48, 73
9, 187265, Note_off_c, 4, 60, 64
9, 187265, Note_off_c, 4, 67, 64
9, 187425, Note_on_c, 4, 60, 91
9, 187430, Note_on_c, 4, 67, 86
9, 187455, Note_off_c, 4, 48, 64
9, 187660, Note_on_c, 4, 48, 73
9, 187720, Note_off_c, 4, 60, 64
9, 187905, Note_on_c, 4, 60, 93
9, 187985, Note_off_c, 4, 48, 64
9, 188135, Note_off_c, 4, 67, 64
9, 188150, Note_on_c, 4, 48, 96
9, 188180, Note_off_c, 4, 60, 64
9, 188635, Note_on_c, 4, 55, 96
9, 188640, Note_on_c, 4, 60, 104
9, 188640, Note_on_c, 4, 64, 104
9, 188995, Note_off_c, 4, 48, 64
9, 189140, Note_on_c, 4, 48, 91
9, 189205, Note_off_c, 4, 55, 64
9, 189205, Note_off_c, 4, 64, 64
9, 189215, Note_off_c, 4, 60, 64
9, 189360, Note_on_c, 4, 55, 88
9, 189365, Note_on_c, 4, 60, 101
9, 189370, Note_on_c, 4, 64, 98
9, 189405, Note_off_c, 4, 48, 64
9, 189590, Note_on_c, 4, 48, 79
9, 189600, Note_off_c, 4, 55, 64
9, 189805, Note_off_c, 4, 64, 64
9, 189815, Note_on_c, 4, 55, 91
9, 189880, Note_off_c, 4, 48, 64
9, 189890, Note_off_c, 4, 60, 64
9, 190010, Note_off_c, 4, 55, 64
9, 190050, Note_on_c, 4, 48, 93
9, 190345, Control_c, 4, 64, 127
9, 190545, Note_on_c, 4, 60, 96
9, 190550, Note_on_c, 4, 64, 98
9, 190875, Note_off_c, 4, 60, 64
9, 190890, Note_off_c, 4, 64, 64
9, 190905, Note_off_c, 4, 48, 64
9, 191050, Note_on_c, 4, 48, 69
9, 191270, Note_on_c, 4, 60, 91
9, 191270, Note_on_c, 4, 67, 93
9, 191285, Note_off_c, 4, 48, 64
9, 191510, Note_on_c, 4, 48, 88
9, 191565, Note_off_c, 4, 60, 64
9, 191745, Note_on_c, 4, 60, 88
9, 191795, Note_off_c, 4, 67, 64
9, 191795, Note_off_c, 4, 48, 64
9, 191885, Note_off_c, 4, 60, 64
9, 191975, Note_on_c, 4, 48, 88
9, 192475, Note_on_c, 4, 55, 93
9, 192475, Note_on_c, 4, 64, 98
9, 192480, Note_on_c, 4, 60, 101
9, 192760, Note_off_c, 4, 48, 64
9, 192960, Note_off_c, 4, 55, 64
9, 192965, Note_off_c, 4, 64, 64
9, 192970, Note_off_c, 4, 60, 64
9, 192975, Note_on_c, 4, 48, 79
9, 193200, Note_on_c, 4, 60, 98
9, 193205, Note_on_c, 4, 64, 101
9, 193245, Note_off_c, 4, 48, 64
9, 193435, Note_on_c, 4, 48, 91
9, 193530, Note_off_c, 4, 60, 64
9, 193570, Note_off_c, 4, 64, 64
9, 193600, Control_c, 4, 64, 0
9, 193815, Note_off_c, 4, 48, 64
9, 193925, Note_on_c, 4, 46, 115
9, 194410, Note_on_c, 4, 58, 89
9, 194415, Note_on_c, 4, 62, 88
9, 194415, Note_on_c, 4, 65, 91
9, 194750, Note_off_c, 4, 46, 64
9, 194830, Control_c, 4, 64, 127
9, 194890, Note_on_c, 4, 46, 80
9, 194935, Note_off_c, 4, 58, 64
9, 194935, Note_off_c, 4, 65, 64
9, 194975, Note_off_c, 4, 62, 64
9, 195120, Note_on_c, 4, 58, 101
9, 195130, Note_on_c, 4, 65, 91
9, 195155, Note_on_c, 4, 62, 35
9, 195180, Note_off_c, 4, 46, 64
9, 195190, Note_off_c, 4, 62, 64
9, 195350, Note_on_c, 4, 46, 89
9, 195390, Note_off_c, 4, 58, 64
9, 195545, Control_c, 4, 64, 0
9, 195575, Note_on_c, 4, 58, 89
9, 195705, Note_off_c, 4, 65, 64
9, 195760, Note_off_c, 4, 46, 64
9, 195840, Note_on_c, 4, 46, 89
9, 195915, Note_off_c, 4, 58, 64
9, 196265, Control_c, 4, 64, 127
9, 196305, Note_on_c, 4, 58, 101
9, 196310, Note_on_c, 4, 65, 96
9, 196610, Note_off_c, 4, 46, 64
9, 196630, Note_off_c, 4, 58, 64
9, 196795, Note_on_c, 4, 46, 76
9, 196800, Note_off_c, 4, 65, 64
9, 196985, Note_off_c, 4, 46, 64
9, 197045, Note_on_c, 4, 60, 91
9, 197050, Note_on_c, 4, 65, 101
9, 197155, Note_off_c, 4, 60, 64
9, 197170, Note_off_c, 4, 65, 64
9, 197270, Note_on_c, 4, 46, 76
9, 197515, Note_on_c, 4, 58, 80
9, 197565, Note_off_c, 4, 46, 64
9, 197575, Control_c, 4, 64, 0
9, 197760, Note_on_c, 4, 46, 110
9, 197895, Note_off_c, 4, 58, 64
9, 198240, Note_on_c, 4, 58, 101
9, 198245, Note_on_c, 4, 62, 91
9, 198250, Note_on_c, 4, 65, 88
9, 198495, Control_c, 4, 64, 127
9, 198540, Note_off_c, 4, 46, 64
9, 198715, Note_on_c, 4, 46, 80
9, 198735, Note_off_c, 4, 58, 64
9, 198735, Note_off_c, 4, 65, 64
9, 198775, Note_off_c, 4, 62, 64
9, 198915, Note_off_c, 4, 46, 64
9, 198945, Note_on_c, 4, 58, 89
9, 198950, Note_on_c, 4, 62, 86
9, 198955, Note_on_c, 4, 65, 88
9, 199190, Note_off_c, 4, 58, 64
9, 199190, Note_on_c, 4, 46, 76
9, 199310, Note_off_c, 4, 65, 64
9, 199350, Note_off_c, 4, 62, 64
9, 199425, Note_on_c, 4, 58, 80
9, 199500, Note_off_c, 4, 46, 64
9, 199600, Control_c, 4, 64, 0
9, 199685, Note_on_c, 4, 46, 93
9, 199805, Note_off_c, 4, 58, 64
9, 200150, Note_on_c, 4, 58, 89
9, 200150, Note_on_c, 4, 62, 88
9, 200155, Note_on_c, 4, 65, 91
9, 200495, Note_off_c, 4, 46, 64
9, 200645, Note_on_c, 4, 46, 89
9, 200660, Note_off_c, 4, 65, 64
9, 200670, Note_off_c, 4, 58, 64
9, 200690, Note_off_c, 4, 62, 64
9, 200880, Note_on_c, 4, 58, 89
9, 200885, Note_on_c, 4, 62, 88
9, 200885, Note_on_c, 4, 65, 88
9, 200920, Note_off_c, 4, 46, 64
9, 200995, Control_c, 4, 64, 127
9, 201120, Note_on_c, 4, 46, 93
9, 201145, Note_off_c, 4, 65, 64
9, 201155, Note_off_c, 4, 58, 64
9, 201160, Note_off_c, 4, 62, 64
9, 201350, Note_on_c, 4, 55, 56
9, 201355, Note_on_c, 4, 57, 59
9, 201360, Control_c, 4, 64, 0
9, 201475, Note_off_c, 4, 57, 64
9, 201485, Note_off_c, 4, 46, 64
9, 201500, Note_off_c, 4, 55, 64
9, 201605, Note_on_c, 4, 48, 104
9, 202085, Note_on_c, 4, 55, 98
9, 202090, Note_on_c, 4, 60, 109
9, 202090, Note_on_c, 4, 64, 101
9, 202375, Note_off_c, 4, 48, 64
9, 202555, Note_on_c, 4, 48, 86
9, 202580, Note_off_c, 4, 64, 64
9, 202585, Note_off_c, 4, 55, 64
9, 202595, Note_off_c, 4, 60, 64
9, 202790, Note_on_c, 4, 60, 93
9, 202795, Note_on_c, 4, 55, 86
9, 202795, Note_on_c, 4, 64, 91
9, 202800, Note_off_c, 4, 48, 64
9, 203015, Note_on_c, 4, 48, 81
9, 203050, Note_off_c, 4, 55, 64
9, 203090, Note_off_c, 4, 64, 64
9, 203120, Note_off_c, 4, 60, 64
9, 203270, Note_on_c, 4, 55, 81
9, 203315, Note_on_c, 4, 60, 20
9, 203355, Note_off_c, 4, 48, 64
9, 203370, Note_on_c, 4, 64, 22
9, 203430, Note_off_c, 4, 60, 64
9, 203435, Note_off_c, 4, 64, 64
9, 203525, Note_on_c, 4, 48, 96
9, 203675, Note_off_c, 4, 55, 64
9, 203990, Note_on_c, 4, 55, 98
9, 203995, Note_on_c, 4, 60, 101
9, 204000, Note_on_c, 4, 64, 98
9, 204290, Note_off_c, 4, 48, 64
9, 204455, Note_on_c, 4, 48, 79
9, 204470, Note_off_c, 4, 55, 64
9, 204475, Note_off_c, 4, 64, 64
9, 204490, Note_off_c, 4, 60, 64
9, 204690, Note_off_c, 4, 48, 64
9, 204710, Note_on_c, 4, 55, 98
9, 204715, Note_on_c, 4, 60, 93
9, 204720, Note_on_c, 4, 64, 91
9, 204935, Note_off_c, 4, 55, 64
9, 204945, Note_on_c, 4, 48, 81
9, 205060, Note_off_c, 4, 64, 64
9, 205185, Note_on_c, 4, 55, 98
9, 205280, Note_off_c, 4, 48, 64
9, 205295, Note_off_c, 4, 60, 64
9, 205445, Note_on_c, 4, 48, 96
9, 205650, Note_off_c, 4, 55, 64
9, 205920, Note_on_c, 4, 55, 93
9, 205925, Note_on_c, 4, 60, 101
9, 205930, Note_on_c, 4, 64, 96
9, 206210, Note_off_c, 4, 48, 64
9, 206405, Note_on_c, 4, 48, 83
9, 206425, Note_off_c, 4, 64, 64
9, 206440, Note_off_c, 4, 60, 64
9, 206445, Note_off_c, 4, 55, 64
9, 206650, Note_off_c, 4, 48, 64
9, 206655, Note_on_c, 4, 55, 96
9, 206655, Note_on_c, 4, 60, 98
9, 206660, Note_on_c, 4, 64, 98
9, 206890, Note_on_c, 4, 48, 86
9, 206905, Note_off_c, 4, 55, 64
9, 206985, Note_off_c, 4, 64, 64
9, 207035, Note_off_c, 4, 60, 64
9, 207110, Note_on_c, 4, 55, 91
9, 207175, Note_off_c, 4, 48, 64
9, 207350, Note_on_c, 4, 48, 93
9, 207450, Note_off_c, 4, 55, 64
9, 207830, Note_on_c, 4, 60, 96
9, 207830, Note_on_c, 4, 55, 91
9, 207830, Note_on_c, 4, 64, 96
9, 208095, Note_off_c, 4, 48, 64
9, 208250, Note_off_c, 4, 55, 64
9, 208270, Note_off_c, 4, 64, 64
9, 208290, Note_off_c, 4, 60, 64
9, 208290, Note_on_c, 4, 48, 83
9, 208345, Control_c, 4, 64, 127
9, 208545, Note_on_c, 4, 64, 96
9, 208545, Note_on_c, 4, 60, 98
9, 208600, Note_off_c, 4, 48, 64
9, 208785, Note_on_c, 4, 48, 88
9, 208990, Note_off_c, 4, 64, 64
9, 208995, Note_off_c, 4, 60, 64
9, 209160, Control_c, 4, 64, 0
9, 209195, Note_off_c, 4, 48, 64
9, 209270, Note_on_c, 4, 46, 110
9, 209755, Note_on_c, 4, 58, 97
9, 209760, Note_on_c, 4, 62, 88
9, 209765, Note_on_c, 4, 65, 93
9, 210035, Note_off_c, 4, 46, 64
9, 210090, Control_c, 4, 64, 127
9, 210230, Note_off_c, 4, 58, 64
9, 210230, Note_on_c, 4, 46, 80
9, 210275, Note_off_c, 4, 65, 64
9, 210290, Note_off_c, 4, 62, 64
9, 210470, Note_on_c, 4, 58, 89
9, 210470, Note_on_c, 4, 62, 88
9, 210470, Note_on_c, 4, 65, 83
9, 210500, Note_off_c, 4, 46, 64
9, 210695, Note_off_c, 4, 58, 64
9, 210695, Note_on_c, 4, 46, 87
9, 210805, Note_off_c, 4, 65, 64
9, 210880, Note_off_c, 4, 62, 64
9, 210940, Note_on_c, 4, 58, 89
9, 211030, Note_off_c, 4, 46, 64
9, 211185, Note_on_c, 4, 46, 97
9, 211435, Note_off_c, 4, 58, 64
9, 211670, Note_on_c, 4, 58, 101
9, 211675, Note_on_c, 4, 62, 91
9, 211680, Note_on_c, 4, 65, 93
9, 211985, Note_off_c, 4, 46, 64
9, 212150, Note_off_c, 4, 65, 64
9, 212150, Note_on_c, 4, 46, 83
9, 212180, Note_off_c, 4, 58, 64
9, 212225, Note_off_c, 4, 62, 64
9, 212400, Note_on_c, 4, 58, 89
9, 212405, Note_on_c, 4, 62, 91
9, 212410, Note_on_c, 4, 65, 91
9, 212490, Note_off_c, 4, 46, 64
9, 212640, Note_on_c, 4, 46, 97
9, 212645, Note_off_c, 4, 65, 64
9, 212660, Note_off_c, 4, 62, 64
9, 212675, Note_off_c, 4, 58, 64
9, 212915, Control_c, 4, 64, 0
9, 212985, Note_off_c, 4, 46, 64
9, 213115, Note_on_c, 4, 45, 96
9, 213590, Note_on_c, 4, 57, 109
9, 213595, Note_on_c, 4, 60, 101
9, 213600, Note_on_c, 4, 53, 93
9, 213620, Control_c, 4, 64, 127
9, 213850, Note_off_c, 4, 45, 64
9, 214065, Note_on_c, 4, 45, 71
9, 214080, Note_off_c, 4, 60, 64
9, 214090, Note_off_c, 4, 53, 64
9, 214105, Note_off_c, 4, 57, 64
9, 214325, Note_on_c, 4, 60, 104
9, 214330, Note_on_c, 4, 57, 101
9, 214330, Note_on_c, 4, 53, 86
9, 214355, Note_off_c, 4, 45, 64
9, 214560, Note_on_c, 4, 45, 73
9, 214580, Note_off_c, 4, 60, 64
9, 214585, Note_off_c, 4, 53, 64
9, 214640, Note_off_c, 4, 57, 64
9, 214725, Note_on_c, 4, 53, 53
9, 214800, Control_c, 4, 64, 0
9, 214840, Note_off_c, 4, 53, 64
9, 214905, Note_off_c, 4, 45, 64
9, 215025, Note_on_c, 4, 58, 110
9, 215030, Note_on_c, 4, 53, 86
9, 215030, Note_on_c, 4, 43, 71
9, 215030, Note_on_c, 4, 55, 98
9, 215340, Note_off_c, 4, 43, 64
9, 215420, Control_c, 4, 64, 127
9, 215515, Note_off_c, 4, 53, 64
9, 215520, Note_off_c, 4, 58, 64
9, 215520, Note_on_c, 4, 43, 83
9, 215525, Note_off_c, 4, 55, 64
9, 215755, Note_on_c, 4, 58, 110
9, 215765, Note_on_c, 4, 53, 88
9, 215770, Note_on_c, 4, 55, 104
9, 215790, Note_off_c, 4, 43, 64
9, 215980, Note_off_c, 4, 53, 64
9, 216015, Note_on_c, 4, 43, 30
9, 216225, Note_on_c, 4, 53, 98
9, 216235, Note_off_c, 4, 43, 64
9, 216265, Note_off_c, 4, 55, 64
9, 216470, Note_off_c, 4, 58, 64
9, 216485, Note_on_c, 4, 43, 59
9, 216555, Note_off_c, 4, 53, 64
9, 216640, Note_off_c, 4, 43, 64
9, 216730, Note_on_c, 4, 53, 83
9, 216865, Control_c, 4, 64, 0
9, 216980, Note_on_c, 4, 41, 101
9, 217040, Note_off_c, 4, 53, 64
9, 217440, Note_on_c, 4, 53, 88
9, 217445, Note_on_c, 4, 57, 101
9, 217450, Note_on_c, 4, 60, 93
9, 217690, Note_off_c, 4, 41, 64
9, 217905, Note_off_c, 4, 53, 64
9, 217915, Note_off_c, 4, 60, 64
9, 217920, Note_off_c, 4, 57, 64
9, 217930, Note_on_c, 4, 41, 86
9, 218135, Note_off_c, 4, 41, 64
9, 218150, Note_on_c, 4, 57, 91
9, 218150, Note_on_c, 4, 60, 88
9, 218155, Control_c, 4, 64, 127
9, 218160, Note_on_c, 4, 53, 73
9, 218390, Note_on_c, 4, 41, 86
9, 218395, Note_off_c, 4, 53, 64
9, 218630, Note_on_c, 4, 53, 81
9, 218675, Note_off_c, 4, 41, 64
9, 218885, Note_on_c, 4, 41, 101
9, 218910, Note_off_c, 4, 60, 64
9, 218935, Note_off_c, 4, 57, 64
9, 218935, Note_off_c, 4, 53, 64
9, 219275, Control_c, 4, 64, 0
9, 219345, Note_on_c, 4, 53, 88
9, 219350, Note_on_c, 4, 57, 104
9, 219350, Note_on_c, 4, 60, 98
9, 219690, Note_off_c, 4, 41, 64
9, 219830, Note_on_c, 4, 41, 88
9, 219860, Note_off_c, 4, 60, 64
9, 219865, Note_off_c, 4, 53, 64
9, 219880, Note_off_c, 4, 57, 64
9, 219940, Control_c, 4, 64, 127
9, 220070, Note_on_c, 4, 57, 101
9, 220070, Note_on_c, 4, 60, 93
9, 220070, Note_on_c, 4, 53, 88
9, 220105, Note_off_c, 4, 41, 64
9, 220285, Note_off_c, 4, 53, 64
9, 220300, Note_on_c, 4, 41, 91
9, 220505, Control_c, 4, 64, 0
9, 220545, Note_on_c, 4, 53, 83
9, 220710, Note_off_c, 4, 57, 64
9, 220715, Note_off_c, 4, 53, 64
9, 220730, Note_off_c, 4, 41, 64
9, 220750, Note_off_c, 4, 60, 64
9, 220790, Note_on_c, 4, 48, 91
9, 221265, Note_on_c, 4, 60, 96
9, 221265, Note_on_c, 4, 64, 101
9, 221270, Note_on_c, 4, 67, 96
9, 221485, Control_c, 4, 64, 127
9, 221575, Note_off_c, 4, 48, 64
9, 221755, Note_on_c, 4, 48, 71
9, 221760, Note_off_c, 4, 60, 64
9, 221775, Note_off_c, 4, 64, 64
9, 221780, Note_off_c, 4, 67, 64
9, 221990, Note_on_c, 4, 60, 91
9, 221990, Note_on_c, 4, 64, 101
9, 221990, Note_on_c, 4, 67, 91
9, 222015, Note_off_c, 4, 48, 64
9, 222235, Note_on_c, 4, 48, 65
9, 222245, Note_off_c, 4, 60, 64
9, 222450, Note_on_c, 4, 60, 79
9, 222495, Note_off_c, 4, 48, 64
9, 222550, Control_c, 4, 64, 0
9, 222720, Note_on_c, 4, 48, 93
9, 222845, Note_off_c, 4, 67, 64
9, 222855, Note_off_c, 4, 60, 64
9, 222860, Note_off_c, 4, 64, 64
9, 223190, Note_on_c, 4, 64, 98
9, 223195, Note_on_c, 4, 60, 93
9, 223195, Note_on_c, 4, 67, 86
9, 223350, Control_c, 4, 64, 127
9, 223505, Note_off_c, 4, 48, 64
9, 223690, Note_off_c, 4, 60, 64
9, 223690, Note_on_c, 4, 48, 76
9, 223705, Note_off_c, 4, 67, 64
9, 223720, Note_off_c, 4, 64, 64
9, 223915, Note_on_c, 4, 64, 96
9, 223920, Note_on_c, 4, 67, 86
9, 223925, Note_on_c, 4, 60, 86
9, 223940, Note_off_c, 4, 48, 64
9, 224150, Note_on_c, 4, 48, 79
9, 224165, Note_off_c, 4, 60, 64
9, 224325, Control_c, 4, 64, 0
9, 224390, Note_on_c, 4, 60, 91
9, 224475, Note_off_c, 4, 48, 64
9, 224645, Note_on_c, 4, 48, 88
9, 224940, Note_off_c, 4, 60, 64
9, 224950, Note_off_c, 4, 64, 64
9, 224950, Note_off_c, 4, 67, 64
9, 225110, Note_on_c, 4, 60, 96
9, 225115, Note_on_c, 4, 64, 98
9, 225120, Note_on_c, 4, 67, 91
9, 225230, Control_c, 4, 64, 127
9, 225415, Note_off_c, 4, 48, 64
9, 225585, Note_on_c, 4, 48, 71
9, 225625, Note_off_c, 4, 60, 64
9, 225645, Note_off_c, 4, 67, 64
9, 225650, Note_off_c, 4, 64, 64
9, 225830, Note_on_c, 4, 64, 91
9, 225830, Note_on_c, 4, 60, 86
9, 225840, Note_off_c, 4, 48, 64
9, 225840, Note_on_c, 4, 67, 81
9, 226060, Note_on_c, 4, 48, 76
9, 226075, Note_off_c, 4, 60, 64
9, 226270, Control_c, 4, 64, 0
9, 226300, Note_on_c, 4, 60, 76
9, 226370, Note_off_c, 4, 48, 64
9, 226555, Note_on_c, 4, 48, 88
9, 226705, Note_off_c, 4, 67, 64
9, 226725, Note_off_c, 4, 60, 64
9, 226770, Note_off_c, 4, 64, 64
9, 227020, Note_on_c, 4, 64, 98
9, 227025, Note_on_c, 4, 60, 93
9, 227025, Note_on_c, 4, 67, 88
9, 227315, Control_c, 4, 64, 127
9, 227325, Note_off_c, 4, 48, 64
9, 227500, Note_on_c, 4, 48, 73
9, 227540, Note_off_c, 4, 60, 64
9, 227540, Note_off_c, 4, 67, 64
9, 227555, Note_off_c, 4, 64, 64
9, 227755, Note_on_c, 4, 60, 91
9, 227755, Note_on_c, 4, 64, 101
9, 227760, Note_on_c, 4, 67, 91
9, 227800, Note_off_c, 4, 48, 64
9, 227980, Note_on_c, 4, 48, 79
9, 227995, Note_off_c, 4, 60, 64
9, 228145, Control_c, 4, 64, 0
9, 228185, Note_off_c, 4, 67, 64
9, 228205, Note_off_c, 4, 64, 64
9, 228210, Note_on_c, 4, 60, 73
9, 228350, Note_off_c, 4, 48, 64
9, 228395, Note_off_c, 4, 60, 64
9, 228470, Note_on_c, 4, 46, 104
9, 228955, Note_on_c, 4, 58, 97
9, 228960, Note_on_c, 4, 62, 88
9, 228960, Note_on_c, 4, 65, 91
9, 229150, Control_c, 4, 64, 127
9, 229265, Note_off_c, 4, 46, 64
9, 229440, Note_on_c, 4, 46, 80
9, 229465, Note_off_c, 4, 58, 64
9, 229515, Note_off_c, 4, 65, 64
9, 229535, Note_off_c, 4, 62, 64
9, 229680, Note_on_c, 4, 58, 93
9, 229690, Note_on_c, 4, 62, 88
9, 229690, Note_on_c, 4, 65, 88
9, 229705, Note_off_c, 4, 46, 64
9, 229910, Note_on_c, 4, 46, 87
9, 229925, Note_off_c, 4, 58, 64
9, 230050, Control_c, 4, 64, 0
9, 230065, Note_off_c, 4, 65, 64
9, 230135, Note_on_c, 4, 58, 101
9, 230235, Note_off_c, 4, 46, 64
9, 230395, Note_on_c, 4, 46, 97
9, 230455, Note_off_c, 4, 62, 64
9, 230720, Note_off_c, 4, 58, 64
9, 230760, Control_c, 4, 64, 127
9, 230895, Note_on_c, 4, 58, 93
9, 230900, Note_on_c, 4, 62, 91
9, 230900, Note_on_c, 4, 65, 91
9, 231135, Note_off_c, 4, 46, 64
9, 231345, Note_on_c, 4, 46, 80
9, 231380, Note_off_c, 4, 58, 64
9, 231400, Note_off_c, 4, 65, 64
9, 231430, Note_off_c, 4, 62, 64
9, 231580, Note_off_c, 4, 46, 64
9, 231605, Note_on_c, 4, 58, 83
9, 231610, Note_on_c, 4, 62, 86
9, 231615, Note_on_c, 4, 65, 88
9, 231790, Control_c, 4, 64, 0
9, 231830, Note_on_c, 4, 46, 83
9, 231845, Note_off_c, 4, 58, 64
9, 232075, Note_on_c, 4, 58, 87
9, 232145, Note_off_c, 4, 46, 64
9, 232190, Note_off_c, 4, 65, 64
9, 232315, Note_on_c, 4, 46, 97
9, 232425, Note_off_c, 4, 58, 64
9, 232455, Note_off_c, 4, 62, 64
9, 232810, Note_on_c, 4, 58, 93
9, 232810, Note_on_c, 4, 62, 86
9, 232815, Note_on_c, 4, 65, 86
9, 233060, Note_off_c, 4, 46, 64
9, 233260, Note_on_c, 4, 46, 64
9, 233285, Note_off_c, 4, 58, 64
9, 233310, Note_off_c, 4, 65, 64
9, 233355, Note_off_c, 4, 62, 64
9, 233495, Note_off_c, 4, 46, 64
9, 233515, Note_on_c, 4, 58, 89
9, 233520, Note_on_c, 4, 65, 86
9, 233525, Note_on_c, 4, 62, 79
9, 233745, Note_off_c, 4, 58, 64
9, 233745, Note_on_c, 4, 46, 76
9, 233825, Control_c, 4, 64, 127
9, 233830, Control_c, 4, 64, 0
9, 233960, Note_off_c, 4, 65, 64
9, 233985, Note_on_c, 4, 58, 93
9, 234065, Note_off_c, 4, 46, 64
9, 234235, Note_on_c, 4, 46, 97
9, 234375, Note_off_c, 4, 58, 64
9, 234380, Note_off_c, 4, 62, 64
9, 234700, Control_c, 4, 64, 127
9, 234710, Note_on_c, 4, 58, 89
9, 234710, Note_on_c, 4, 62, 88
9, 234715, Note_on_c, 4, 65, 86
9, 235040, Note_off_c, 4, 46, 64
9, 235195, Note_on_c, 4, 46, 64
9, 235260, Note_off_c, 4, 58, 64
9, 235290, Note_off_c, 4, 65, 64
9, 235310, Note_off_c, 4, 62, 64
9, 235430, Note_on_c, 4, 58, 101
9, 235435, Note_on_c, 4, 62, 88
9, 235435, Note_on_c, 4, 65, 76
9, 235485, Note_off_c, 4, 46, 64
9, 235670, Note_on_c, 4, 46, 97
9, 235690, Note_off_c, 4, 58, 64
9, 235865, Control_c, 4, 64, 0
9, 236060, Note_off_c, 4, 46, 64
9, 236150, Note_on_c, 4, 48, 91
9, 236155, Note_off_c, 4, 65, 64
9, 236180, Note_off_c, 4, 62, 64
9, 236640, Note_on_c, 4, 60, 91
9, 236640, Note_on_c, 4, 64, 101
9, 236645, Note_on_c, 4, 67, 91
9, 236820, Control_c, 4, 64, 127
9, 236890, Note_off_c, 4, 48, 64
9, 237105, Note_off_c, 4, 60, 64
9, 237120, Note_on_c, 4, 48, 79
9, 237145, Note_off_c, 4, 64, 64
9, 237145, Note_off_c, 4, 67, 64
9, 237355, Note_off_c, 4, 48, 64
9, 237365, Note_on_c, 4, 64, 98
9, 237370, Note_on_c, 4, 67, 88
9, 237370, Note_on_c, 4, 60, 91
9, 237600, Note_off_c, 4, 60, 64
9, 237600, Note_on_c, 4, 48, 76
9, 237750, Note_off_c, 4, 67, 64
9, 237770, Note_off_c, 4, 64, 64
9, 237830, Note_on_c, 4, 60, 88
9, 237850, Note_on_c, 4, 64, 26
9, 237875, Note_on_c, 4, 67, 25
9, 237880, Note_off_c, 4, 48, 64
9, 237880, Control_c, 4, 64, 0
9, 238055, Note_off_c, 4, 67, 64
9, 238080, Note_on_c, 4, 48, 88
9, 238110, Note_off_c, 4, 64, 64
9, 238190, Note_off_c, 4, 60, 64
9, 238550, Note_on_c, 4, 60, 93
9, 238555, Note_on_c, 4, 64, 96
9, 238560, Note_on_c, 4, 67, 83
9, 238800, Note_off_c, 4, 48, 64
9, 239040, Note_on_c, 4, 48, 76
9, 239060, Note_off_c, 4, 60, 64
9, 239070, Note_off_c, 4, 67, 64
9, 239075, Note_off_c, 4, 64, 64
9, 239285, Note_off_c, 4, 48, 64
9, 239290, Note_on_c, 4, 60, 91
9, 239290, Note_on_c, 4, 64, 98
9, 239295, Note_on_c, 4, 67, 91
9, 239515, Note_on_c, 4, 48, 83
9, 239530, Note_off_c, 4, 60, 64
9, 239735, Note_on_c, 4, 60, 91
9, 239800, Note_off_c, 4, 48, 64
9, 240005, Note_on_c, 4, 48, 93
9, 240135, Note_off_c, 4, 60, 64
9, 240270, Note_off_c, 4, 64, 64
9, 240275, Note_off_c, 4, 67, 64
9, 240355, Control_c, 4, 64, 127
9, 240475, Note_on_c, 4, 64, 98
9, 240480, Note_on_c, 4, 60, 93
9, 240485, Note_on_c, 4, 67, 91
9, 240735, Note_off_c, 4, 48, 64
9, 240950, Note_on_c, 4, 48, 88
9, 240980, Note_off_c, 4, 60, 64
9, 240985, Note_off_c, 4, 67, 64
9, 241000, Note_off_c, 4, 64, 64
9, 241195, Note_on_c, 4, 60, 88
9, 241200, Note_on_c, 4, 64, 96
9, 241200, Note_on_c, 4, 67, 91
9, 241215, Note_off_c, 4, 48, 64
9, 241425, Note_on_c, 4, 48, 88
9, 241445, Note_off_c, 4, 60, 64
9, 241580, Control_c, 4, 64, 0
9, 241650, Note_on_c, 4, 60, 86
9, 241710, Note_off_c, 4, 48, 64
9, 241920, Note_on_c, 4, 48, 93
9, 242060, Note_off_c, 4, 60, 64
9, 242135, Note_off_c, 4, 67, 64
9, 242140, Note_off_c, 4, 64, 64
9, 242390, Note_on_c, 4, 64, 96
9, 242390, Note_on_c, 4, 67, 93
9, 242395, Note_on_c, 4, 60, 93
9, 242650, Note_off_c, 4, 48, 64
9, 242870, Note_off_c, 4, 60, 64
9, 242880, Note_on_c, 4, 48, 83
9, 242885, Note_off_c, 4, 67, 64
9, 242895, Note_off_c, 4, 64, 64
9, 243115, Note_on_c, 4, 64, 98
9, 243120, Note_on_c, 4, 67, 91
9, 243120, Note_on_c, 4, 60, 91
9, 243170, Note_off_c, 4, 48, 64
9, 243365, Note_on_c, 4, 48, 93
9, 243415, Note_off_c, 4, 67, 64
9, 243415, Note_off_c, 4, 60, 64
9, 243445, Note_off_c, 4, 64, 64
9, 243730, Note_off_c, 4, 48, 64
9, 243840, Note_on_c, 4, 46, 104
9, 244310, Note_on_c, 4, 58, 93
9, 244320, Note_on_c, 4, 62, 88
9, 244320, Note_on_c, 4, 65, 91
9, 244510, Control_c, 4, 64, 127
9, 244605, Note_off_c, 4, 46, 64
9, 244810, Note_on_c, 4, 46, 89
9, 244860, Note_off_c, 4, 65, 64
9, 244875, Note_off_c, 4, 58, 64
9, 244900, Note_off_c, 4, 62, 64
9, 245050, Note_on_c, 4, 62, 91
9, 245050, Note_on_c, 4, 58, 87
9, 245050, Note_on_c, 4, 65, 88
9, 245125, Note_off_c, 4, 46, 64
9, 245275, Note_on_c, 4, 46, 93
9, 245380, Note_off_c, 4, 58, 64
9, 245500, Note_on_c, 4, 58, 67
9, 245590, Note_off_c, 4, 46, 64
9, 245690, Control_c, 4, 64, 0
9, 245745, Note_off_c, 4, 65, 64
9, 245745, Note_on_c, 4, 46, 97
9, 245750, Note_off_c, 4, 58, 64
9, 245790, Note_off_c, 4, 62, 64
9, 246240, Note_on_c, 4, 58, 93
9, 246245, Note_on_c, 4, 62, 88
9, 246250, Note_on_c, 4, 65, 91
9, 246400, Control_c, 4, 64, 127
9, 246560, Note_off_c, 4, 46, 64
9, 246720, Note_on_c, 4, 46, 89
9, 246735, Note_off_c, 4, 58, 64
9, 246765, Note_off_c, 4, 65, 64
9, 246790, Note_off_c, 4, 62, 64
9, 246950, Note_on_c, 4, 58, 89
9, 246950, Note_on_c, 4, 62, 93
9, 246955, Note_on_c, 4, 65, 93
9, 247030, Note_off_c, 4, 46, 64
9, 247150, Note_off_c, 4, 65, 64
9, 247170, Note_off_c, 4, 62, 64
9, 247190, Note_on_c, 4, 46, 89
9, 247220, Note_off_c, 4, 58, 64
9, 247415, Control_c, 4, 64, 0
9, 247430, Note_on_c, 4, 53, 59
9, 247510, Note_off_c, 4, 46, 64
9, 247675, Note_on_c, 4, 45, 96
9, 247710, Note_off_c, 4, 53, 64
9, 248155, Note_on_c, 4, 57, 109
9, 248160, Note_on_c, 4, 60, 101
9, 248165, Note_on_c, 4, 53, 91
9, 248395, Control_c, 4, 64, 127
9, 248405, Note_off_c, 4, 45, 64
9, 248640, Note_on_c, 4, 45, 79
9, 248645, Note_off_c, 4, 60, 64
9, 248655, Note_off_c, 4, 53, 64
9, 248660, Note_off_c, 4, 57, 64
9, 248870, Note_on_c, 4, 57, 104
9, 248875, Note_on_c, 4, 60, 98
9, 248875, Note_on_c, 4, 53, 91
9, 248915, Note_off_c, 4, 45, 64
9, 249110, Note_off_c, 4, 53, 64
9, 249110, Note_on_c, 4, 45, 79
9, 249195, Note_off_c, 4, 60, 64
9, 249250, Control_c, 4, 64, 0
9, 249255, Note_off_c, 4, 57, 64
9, 249285, Note_on_c, 4, 53, 43
9, 249410, Note_off_c, 4, 53, 64
9, 249485, Note_off_c, 4, 45, 64
9, 249580, Note_on_c, 4, 43, 71
9, 249580, Note_on_c, 4, 58, 110
9, 249585, Note_on_c, 4, 53, 86
9, 249590, Note_on_c, 4, 55, 98
9, 249875, Note_off_c, 4, 43, 64
9, 250060, Note_off_c, 4, 58, 64
9, 250060, Note_off_c, 4, 53, 64
9, 250065, Note_off_c, 4, 55, 64
9, 250070, Note_on_c, 4, 43, 76
9, 250090, Control_c, 4, 64, 127
9, 250305, Note_on_c, 4, 58, 110
9, 250310, Note_on_c, 4, 53, 83
9, 250310, Note_on_c, 4, 55, 98
9, 250320, Note_off_c, 4, 43, 64
9, 250550, Note_on_c, 4, 43, 79
9, 250590, Note_off_c, 4, 53, 64
9, 250715, Note_off_c, 4, 43, 64
9, 250790, Note_on_c, 4, 53, 71
9, 250805, Note_off_c, 4, 55, 64
9, 251050, Note_on_c, 4, 55, 88
9, 251085, Note_off_c, 4, 53, 64
9, 251280, Note_on_c, 4, 53, 81
9, 251310, Note_off_c, 4, 55, 64
9, 251325, Control_c, 4, 64, 0
9, 251345, Note_off_c, 4, 58, 64
9, 251530, Note_on_c, 4, 41, 98
9, 251600, Note_off_c, 4, 53, 64
9, 251995, Note_on_c, 4, 60, 98
9, 252000, Note_on_c, 4, 57, 104
9, 252000, Note_on_c, 4, 53, 91
9, 252200, Control_c, 4, 64, 127
9, 252315, Note_off_c, 4, 41, 64
9, 252440, Note_off_c, 4, 53, 64
9, 252450, Note_on_c, 4, 41, 81
9, 252465, Note_off_c, 4, 60, 64
9, 252475, Note_off_c, 4, 57, 64
9, 252695, Note_on_c, 4, 57, 98
9, 252700, Note_on_c, 4, 60, 91
9, 252705, Note_on_c, 4, 53, 86
9, 252745, Note_off_c, 4, 41, 64
9, 252940, Note_on_c, 4, 41, 86
9, 252955, Note_off_c, 4, 53, 64
9, 253180, Control_c, 4, 64, 0
9, 253195, Note_on_c, 4, 53, 67
9, 253260, Note_off_c, 4, 41, 64
9, 253455, Note_on_c, 4, 41, 101
9, 253675, Note_off_c, 4, 53, 64
9, 253690, Note_off_c, 4, 57, 64
9, 253715, Note_off_c, 4, 60, 64
9, 253925, Note_on_c, 4, 53, 93
9, 253930, Note_on_c, 4, 57, 109
9, 253930, Note_on_c, 4, 60, 101
9, 253970, Control_c, 4, 64, 127
9, 254160, Note_off_c, 4, 41, 64
9, 254380, Note_off_c, 4, 53, 64
9, 254395, Note_off_c, 4, 60, 64
9, 254410, Note_on_c, 4, 41, 91
9, 254415, Note_off_c, 4, 57, 64
9, 254640, Note_on_c, 4, 57, 101
9, 254645, Note_on_c, 4, 60, 96
9, 254645, Note_on_c, 4, 53, 91
9, 254685, Note_off_c, 4, 41, 64
9, 254845, Note_off_c, 4, 53, 64
9, 254870, Note_on_c, 4, 41, 91
9, 255075, Control_c, 4, 64, 0
9, 255120, Note_on_c, 4, 53, 86
9, 255260, Note_off_c, 4, 57, 64
9, 255265, Note_off_c, 4, 53, 64
9, 255270, Note_off_c, 4, 41, 64
9, 255300, Note_off_c, 4, 60, 64
9, 255365, Note_on_c, 4, 48, 93
9, 255845, Note_on_c, 4, 60, 96
9, 255850, Note_on_c, 4, 64, 104
9, 255850, Note_on_c, 4, 67, 96
9, 255900, Control_c, 4, 64, 127
9, 256100, Note_off_c, 4, 67, 64
9, 256135, Note_off_c, 4, 64, 64
9, 256140, Note_off_c, 4, 48, 64
9, 256160, Note_off_c, 4, 60, 64
9, 256330, Note_on_c, 4, 48, 81
9, 256535, Control_c, 4, 64, 0
9, 256560, Note_on_c, 4, 55, 98
9, 256560, Note_on_c, 4, 60, 101
9, 256565, Note_on_c, 4, 64, 98
9, 256590, Note_off_c, 4, 48, 64
9, 256795, Note_on_c, 4, 48, 91
9, 256855, Note_off_c, 4, 55, 64
9, 257030, Note_on_c, 4, 55, 93
9, 257100, Note_off_c, 4, 48, 64
9, 257270, Note_on_c, 4, 48, 96
9, 257330, Note_off_c, 4, 55, 64
9, 257405, Note_off_c, 4, 60, 64
9, 257430, Note_off_c, 4, 64, 64
9, 257495, Control_c, 4, 64, 127
9, 257735, Note_on_c, 4, 60, 101
9, 257740, Note_on_c, 4, 64, 96
9, 257740, Note_on_c, 4, 55, 98
9, 257920, Note_off_c, 4, 48, 64
9, 258210, Note_on_c, 4, 48, 81
9, 258220, Note_off_c, 4, 55, 64
9, 258260, Note_off_c, 4, 60, 64
9, 258260, Note_off_c, 4, 64, 64
9, 258465, Note_on_c, 4, 60, 98
9, 258470, Note_on_c, 4, 55, 91
9, 258470, Note_on_c, 4, 64, 91
9, 258475, Note_off_c, 4, 48, 64
9, 258685, Control_c, 4, 64, 0
9, 258690, Note_on_c, 4, 48, 96
9, 258730, Note_off_c, 4, 55, 64
9, 258930, Note_on_c, 4, 55, 88
9, 259020, Note_off_c, 4, 48, 64
9, 259190, Note_on_c, 4, 48, 93
9, 259310, Note_off_c, 4, 55, 64
9, 259395, Note_off_c, 4, 60, 64
9, 259405, Note_off_c, 4, 64, 64
9, 259675, Note_on_c, 4, 60, 101
9, 259675, Note_on_c, 4, 64, 98
9, 259680, Note_on_c, 4, 67, 93
9, 259905, Note_off_c, 4, 48, 64
9, 260140, Note_off_c, 4, 67, 64
9, 260150, Note_on_c, 4, 48, 81
9, 260175, Note_off_c, 4, 64, 64
9, 260195, Note_off_c, 4, 60, 64
9, 260200, Control_c, 4, 64, 127
9, 260400, Note_on_c, 4, 60, 96
9, 260405, Note_on_c, 4, 64, 91
9, 260410, Note_on_c, 4, 55, 88
9, 260420, Note_off_c, 4, 48, 64
9, 260455, Control_c, 4, 64, 0
9, 260645, Note_on_c, 4, 48, 88
9, 260700, Note_off_c, 4, 55, 64
9, 260870, Note_on_c, 4, 55, 86
9, 260945, Note_off_c, 4, 48, 64
9, 260950, Control_c, 4, 11, 125
9, 261010, Control_c, 4, 11, 124
9, 261110, Note_on_c, 4, 48, 98
9, 261235, Note_off_c, 4, 55, 64
9, 261330, Control_c, 4, 11, 123
9, 261365, Control_c, 4, 11, 122
9, 261375, Note_off_c, 4, 64, 64
9, 261385, Note_off_c, 4, 60, 64
9, 261395, Control_c, 4, 11, 121
9, 261580, Control_c, 4, 11, 119
9, 261590, Note_on_c, 4, 60, 98
9, 261590, Note_on_c, 4, 55, 98
9, 261590, Note_on_c, 4, 64, 96
9, 261630, Control_c, 4, 11, 117
9, 261845, Note_off_c, 4, 48, 64
9, 262065, Note_off_c, 4, 55, 64
9, 262085, Note_on_c, 4, 48, 79
9, 262090, Control_c, 4, 64, 127
9, 262115, Control_c, 4, 11, 115
9, 262125, Note_off_c, 4, 64, 64
9, 262135, Note_off_c, 4, 60, 64
9, 262145, Control_c, 4, 11, 114
9, 262175, Control_c, 4, 11, 113
9, 262330, Note_on_c, 4, 60, 98
9, 262330, Note_on_c, 4, 64, 98
9, 262330, Note_on_c, 4, 55, 96
9, 262390, Note_off_c, 4, 48, 64
9, 262565, Note_off_c, 4, 55, 64
9, 262565, Note_on_c, 4, 48, 83
9, 262795, Note_on_c, 4, 55, 93
9, 262830, Control_c, 4, 64, 0
9, 262910, Note_off_c, 4, 48, 64
9, 262940, Control_c, 4, 11, 112
9, 262965, Note_off_c, 4, 55, 64
9, 262990, Note_off_c, 4, 60, 64
9, 262995, Note_off_c, 4, 64, 64
9, 263030, Note_on_c, 4, 46, 104
9, 263205, Control_c, 4, 11, 111
9, 263270, Control_c, 4, 11, 109
9, 263525, Note_on_c, 4, 58, 97
9, 263530, Note_on_c, 4, 62, 91
9, 263530, Note_on_c, 4, 65, 91
9, 263780, Control_c, 4, 11, 108
9, 263835, Note_off_c, 4, 46, 64
9, 263845, Control_c, 4, 11, 107
9, 263900, Control_c, 4, 64, 127
9, 263985, Note_off_c, 4, 58, 64
9, 264010, Note_on_c, 4, 46, 83
9, 264090, Note_off_c, 4, 62, 64
9, 264100, Control_c, 4, 11, 106
9, 264110, Note_off_c, 4, 65, 64
9, 264125, Control_c, 4, 11, 105
9, 264160, Control_c, 4, 11, 104
9, 264240, Note_on_c, 4, 58, 97
9, 264250, Note_on_c, 4, 62, 91
9, 264250, Note_on_c, 4, 65, 93
9, 264265, Note_off_c, 4, 46, 64
9, 264475, Note_on_c, 4, 46, 93
9, 264485, Note_off_c, 4, 58, 64
9, 264555, Control_c, 4, 64, 0
9, 264670, Control_c, 4, 11, 103
9, 264705, Note_on_c, 4, 58, 93
9, 264805, Note_off_c, 4, 46, 64
9, 264865, Control_c, 4, 11, 102
9, 264925, Control_c, 4, 11, 100
9, 264955, Note_on_c, 4, 46, 104
9, 264955, Control_c, 4, 11, 99
9, 265000, Control_c, 4, 11, 97
9, 265060, Note_off_c, 4, 58, 64
9, 265080, Note_off_c, 4, 65, 64
9, 265135, Note_off_c, 4, 62, 64
9, 265445, Note_on_c, 4, 58, 93
9, 265450, Note_on_c, 4, 62, 91
9, 265450, Note_on_c, 4, 65, 93
9, 265640, Control_c, 4, 11, 96
9, 265760, Note_off_c, 4, 46, 64
9, 265835, Control_c, 4, 11, 95
9, 265870, Control_c, 4, 11, 94
9, 265915, Note_on_c, 4, 46, 89
9, 265935, Note_off_c, 4, 58, 64
9, 265980, Note_off_c, 4, 65, 64
9, 266005, Note_off_c, 4, 62, 64
9, 266155, Note_on_c, 4, 58, 93
9, 266160, Note_on_c, 4, 62, 91
9, 266165, Note_on_c, 4, 65, 86
9, 266215, Note_off_c, 4, 46, 64
9, 266255, Control_c, 4, 11, 93
9, 266390, Note_on_c, 4, 46, 93
9, 266405, Note_off_c, 4, 58, 64
9, 266420, Control_c, 4, 11, 92
9, 266445, Control_c, 4, 11, 91
9, 266475, Control_c, 4, 11, 90
9, 266505, Control_c, 4, 11, 88
9, 266635, Note_on_c, 4, 58, 97
9, 266730, Note_off_c, 4, 46, 64
9, 266800, Note_off_c, 4, 65, 64
9, 266875, Note_on_c, 4, 46, 97
9, 266925, Control_c, 4, 11, 87
9, 266960, Note_off_c, 4, 58, 64
9, 266965, Control_c, 4, 11, 86
9, 266995, Control_c, 4, 11, 84
9, 267010, Note_off_c, 4, 62, 64
9, 267030, Control_c, 4, 11, 82
9, 267350, Note_on_c, 4, 58, 93
9, 267360, Note_on_c, 4, 62, 91
9, 267360, Note_on_c, 4, 65, 93
9, 267425, Control_c, 4, 11, 81
9, 267660, Note_off_c, 4, 46, 64
9, 267720, Control_c, 4, 11, 80
9, 267750, Control_c, 4, 11, 79
9, 267780, Control_c, 4, 11, 78
9, 267835, Note_on_c, 4, 46, 93
9, 267840, Note_off_c, 4, 58, 64
9, 267895, Note_off_c, 4, 65, 64
9, 267920, Control_c, 4, 11, 77
9, 267940, Note_off_c, 4, 62, 64
9, 267950, Control_c, 4, 11, 75
9, 267985, Control_c, 4, 11, 73
9, 268015, Control_c, 4, 11, 72
9, 268065, Note_on_c, 4, 58, 89
9, 268070, Note_on_c, 4, 62, 88
9, 268070, Note_on_c, 4, 65, 93
9, 268100, Note_off_c, 4, 46, 64
9, 268175, Control_c, 4, 11, 71
9, 268235, Control_c, 4, 11, 69
9, 268265, Control_c, 4, 11, 67
9, 268300, Control_c, 4, 11, 66
9, 268305, Note_on_c, 4, 46, 89
9, 268315, Note_off_c, 4, 58, 64
9, 268335, Control_c, 4, 11, 64
9, 268515, Note_off_c, 4, 65, 64
9, 268535, Note_on_c, 4, 58, 89
9, 268580, Note_on_c, 4, 65, 10
9, 268610, Note_off_c, 4, 46, 64
9, 268620, Control_c, 4, 11, 63
9, 268645, Control_c, 4, 11, 61
9, 268680, Control_c, 4, 11, 60
9, 268710, Control_c, 4, 11, 58
9, 268790, Note_on_c, 4, 46, 101
9, 268815, Note_off_c, 4, 65, 64
9, 268825, Note_off_c, 4, 58, 64
9, 268885, Note_off_c, 4, 62, 64
9, 268910, Control_c, 4, 11, 57
9, 268975, Control_c, 4, 11, 55
9, 269010, Control_c, 4, 11, 54
9, 269045, Control_c, 4, 11, 53
9, 269260, Note_on_c, 4, 58, 93
9, 269260, Note_on_c, 4, 62, 91
9, 269265, Note_on_c, 4, 65, 91
9, 269330, Control_c, 4, 11, 52
9, 269355, Control_c, 4, 11, 51
9, 269385, Control_c, 4, 11, 50
9, 269450, Control_c, 4, 11, 49
9, 269575, Note_off_c, 4, 46, 64
9, 269640, Control_c, 4, 11, 48
9, 269670, Control_c, 4, 11, 47
9, 269700, Control_c, 4, 11, 46
9, 269720, Note_off_c, 4, 58, 64
9, 269770, Control_c, 4, 11, 45
9, 269775, Note_on_c, 4, 46, 70
9, 269895, Note_off_c, 4, 65, 64
9, 269925, Note_off_c, 4, 62, 64
9, 270010, Note_on_c, 4, 62, 88
9, 270010, Note_on_c, 4, 58, 97
9, 270015, Note_on_c, 4, 65, 96
9, 270045, Note_off_c, 4, 46, 64
9, 270070, Control_c, 4, 11, 42
9, 270105, Control_c, 4, 11, 41
9, 270235, Note_off_c, 4, 58, 64
9, 270245, Note_on_c, 4, 46, 93
9, 270290, Control_c, 4, 11, 40
9, 270320, Control_c, 4, 11, 39
9, 270380, Control_c, 4, 11, 37
9, 270540, Control_c, 4, 11, 36
9, 270570, Control_c, 4, 11, 35
9, 270595, Note_off_c, 4, 65, 64
9, 270605, Note_off_c, 4, 62, 64
9, 270605, Control_c, 4, 11, 34
9, 270625, Note_off_c, 4, 46, 64
9, 270725, Note_on_c, 4, 48, 98
9, 270815, Control_c, 4, 11, 33
9, 270845, Control_c, 4, 11, 32
9, 270880, Control_c, 4, 11, 31
9, 270970, Control_c, 4, 11, 30
9, 271200, Note_on_c, 4, 60, 101
9, 271205, Note_on_c, 4, 55, 96
9, 271210, Note_on_c, 4, 64, 98
9, 271260, Control_c, 4, 11, 29
9, 271285, Control_c, 4, 11, 28
9, 271320, Control_c, 4, 11, 27
9, 271480, Note_off_c, 4, 48, 64
9, 271510, Control_c, 4, 11, 26
9, 271540, Control_c, 4, 11, 25
9, 271570, Control_c, 4, 11, 24
9, 271600, Control_c, 4, 11, 23
9, 271635, Control_c, 4, 11, 22
9, 271690, Note_on_c, 4, 48, 81
9, 271695, Note_off_c, 4, 55, 64
9, 271705, Control_c, 4, 11, 21
9, 271725, Note_off_c, 4, 64, 64
9, 271730, Note_off_c, 4, 60, 64
9, 271795, Control_c, 4, 11, 20
9, 271895, Control_c, 4, 11, 19
9, 271915, Note_on_c, 4, 60, 93
9, 271920, Note_on_c, 4, 55, 93
9, 271920, Note_on_c, 4, 64, 98
9, 271945, Note_off_c, 4, 48, 64
9, 271960, Control_c, 4, 11, 17
9, 271990, Control_c, 4, 11, 16
9, 272020, Control_c, 4, 11, 15
9, 272050, Control_c, 4, 11, 14
9, 272085, Control_c, 4, 11, 13
9, 272145, Control_c, 4, 11, 12
9, 272160, Note_on_c, 4, 48, 88
9, 272170, Note_off_c, 4, 55, 64
9, 272300, Control_c, 4, 11, 11
9, 272330, Control_c, 4, 11, 10
9, 272360, Control_c, 4, 11, 9
9, 272390, Note_on_c, 4, 55, 98
9, 272435, Control_c, 4, 11, 8
9, 272455, Note_off_c, 4, 48, 64
9, 272580, Control_c, 4, 11, 7
9, 272640, Note_on_c, 4, 48, 93
9, 272645, Control_c, 4, 11, 5
9, 272685, Control_c, 4, 11, 3
9, 272745, Note_off_c, 4, 55, 64
9, 272865, Note_off_c, 4, 60, 64
9, 272880, Note_off_c, 4, 64, 64
9, 272960, Control_c, 4, 11, 2
9, 273110, Note_on_c, 4, 60, 93
9, 273115, Note_on_c, 4, 55, 98
9, 273120, Note_on_c, 4, 64, 91
9, 273240, Control_c, 4, 11, 1
9, 273385, Note_off_c, 4, 48, 64
9, 273590, Note_on_c, 4, 48, 79
9, 273610, Note_off_c, 4, 55, 64
9, 273630, Note_off_c, 4, 64, 64
9, 273635, Note_off_c, 4, 60, 64
9, 273835, Note_on_c, 4, 55, 98
9, 273835, Note_on_c, 4, 60, 101
9, 273840, Note_on_c, 4, 64, 96
9, 273855, Note_off_c, 4, 48, 64
9, 273880, Control_c, 4, 11, 0
9, 274065, Note_on_c, 4, 48, 91
9, 274090, Note_off_c, 4, 55, 64
9, 274320, Note_on_c, 4, 55, 96
9, 274395, Note_off_c, 4, 48, 64
9, 274565, Note_on_c, 4, 48, 98
9, 274705, Note_off_c, 4, 55, 64
9, 274795, Note_off_c, 4, 64, 64
9, 274815, Note_off_c, 4, 60, 64
9, 275050, Note_on_c, 4, 60, 98
9, 275050, Note_on_c, 4, 64, 93
9, 275055, Note_on_c, 4, 55, 93
9, 275490, Control_c, 4, 64, 127
9, 276340, Control_c, 4, 64, 0
9, 277580, Note_off_c, 4, 55, 64
9, 277750, Note_off_c, 4, 48, 64
9, 277800, Note_off_c, 4, 60, 64
9, 277805, Note_off_c, 4, 64, 64
9, 277805, End_track
10, 0, Start_track
10, 0, Title_t, "Guitar 2"
10, 0, MIDI_port, 0
10, 0, Channel_prefix, 5
10, 0, Control_c, 5, 7, 120
10, 0, Control_c, 5, 10, 74
10, 0, Program_c, 5, 30
10, 0, Control_c, 5, 91, 127
10, 0, Control_c, 5, 93, 20
10, 40075, Note_on_c, 5, 41, 93
10, 40080, Note_on_c, 5, 48, 86
10, 40150, Note_off_c, 5, 48, 64
10, 40155, Note_off_c, 5, 41, 64
10, 40175, Note_on_c, 5, 41, 93
10, 40250, Note_off_c, 5, 41, 64
10, 40315, Note_on_c, 5, 41, 88
10, 40315, Note_on_c, 5, 48, 96
10, 41740, Pitch_bend_c, 5, 8050
10, 41750, Pitch_bend_c, 5, 6844
10, 41760, Pitch_bend_c, 5, 6148
10, 41775, Pitch_bend_c, 5, 5978
10, 41785, Pitch_bend_c, 5, 5987
10, 41795, Pitch_bend_c, 5, 6081
10, 41805, Pitch_bend_c, 5, 6465
10, 41815, Pitch_bend_c, 5, 6947
10, 41825, Pitch_bend_c, 5, 7572
10, 41835, Pitch_bend_c, 5, 8157
10, 41850, Pitch_bend_c, 5, 8192
10, 42220, Pitch_bend_c, 5, 7273
10, 42230, Pitch_bend_c, 5, 4826
10, 42240, Pitch_bend_c, 5, 2612
10, 42250, Pitch_bend_c, 5, 1255
10, 42265, Pitch_bend_c, 5, 1045
10, 42275, Pitch_bend_c, 5, 1144
10, 42285, Pitch_bend_c, 5, 1751
10, 42295, Pitch_bend_c, 5, 2768
10, 42305, Pitch_bend_c, 5, 3885
10, 42315, Pitch_bend_c, 5, 5393
10, 42330, Pitch_bend_c, 5, 7536
10, 42340, Pitch_bend_c, 5, 8192
10, 42695, Pitch_bend_c, 5, 7505
10, 42705, Pitch_bend_c, 5, 5041
10, 42715, Pitch_bend_c, 5, 2469
10, 42725, Pitch_bend_c, 5, 541
10, 42735, Pitch_bend_c, 5, 0
10, 42775, Pitch_bend_c, 5, 644
10, 42785, Pitch_bend_c, 5, 1983
10, 42795, Pitch_bend_c, 5, 3893
10, 42805, Pitch_bend_c, 5, 6465
10, 42815, Pitch_bend_c, 5, 8192
10, 43160, Pitch_bend_c, 5, 8121
10, 43170, Pitch_bend_c, 5, 6255
10, 43185, Pitch_bend_c, 5, 4077
10, 43195, Pitch_bend_c, 5, 2925
10, 43205, Pitch_bend_c, 5, 2840
10, 43215, Pitch_bend_c, 5, 3144
10, 43225, Pitch_bend_c, 5, 3688
10, 43235, Pitch_bend_c, 5, 4385
10, 43245, Pitch_bend_c, 5, 5376
10, 43255, Pitch_bend_c, 5, 6751
10, 43265, Pitch_bend_c, 5, 8192
10, 43640, Pitch_bend_c, 5, 8059
10, 43650, Pitch_bend_c, 5, 6112
10, 43665, Pitch_bend_c, 5, 4041
10, 43675, Pitch_bend_c, 5, 2755
10, 43685, Pitch_bend_c, 5, 2287
10, 43705, Pitch_bend_c, 5, 2402
10, 43715, Pitch_bend_c, 5, 3108
10, 43725, Pitch_bend_c, 5, 4027
10, 43735, Pitch_bend_c, 5, 5376
10, 43745, Pitch_bend_c, 5, 7322
10, 43760, Pitch_bend_c, 5, 8192
10, 44135, Note_off_c, 5, 48, 64
10, 44140, Note_off_c, 5, 41, 64
10, 47765, Note_on_c, 5, 41, 101
10, 47770, Note_on_c, 5, 48, 96
10, 47855, Note_off_c, 5, 48, 64
10, 47855, Note_off_c, 5, 41, 64
10, 47875, Note_on_c, 5, 41, 96
10, 47945, Note_off_c, 5, 41, 64
10, 47995, Note_on_c, 5, 41, 83
10, 48000, Note_on_c, 5, 48, 93
10, 49415, Pitch_bend_c, 5, 6862
10, 49425, Pitch_bend_c, 5, 3755
10, 49435, Pitch_bend_c, 5, 41
10, 49445, Pitch_bend_c, 5, 0
10, 49525, Pitch_bend_c, 5, 804
10, 49535, Pitch_bend_c, 5, 2001
10, 49545, Pitch_bend_c, 5, 3465
10, 49555, Pitch_bend_c, 5, 5251
10, 49565, Pitch_bend_c, 5, 6894
10, 49575, Pitch_bend_c, 5, 8148
10, 49585, Pitch_bend_c, 5, 8192
10, 49875, Pitch_bend_c, 5, 7184
10, 49885, Pitch_bend_c, 5, 4612
10, 49895, Pitch_bend_c, 5, 2112
10, 49905, Pitch_bend_c, 5, 648
10, 49915, Pitch_bend_c, 5, 0
10, 49955, Pitch_bend_c, 5, 121
10, 49965, Pitch_bend_c, 5, 1027
10, 49980, Pitch_bend_c, 5, 1947
10, 49990, Pitch_bend_c, 5, 3090
10, 50000, Pitch_bend_c, 5, 4322
10, 50010, Pitch_bend_c, 5, 5787
10, 50020, Pitch_bend_c, 5, 7358
10, 50030, Pitch_bend_c, 5, 8192
10, 50335, Pitch_bend_c, 5, 6755
10, 50350, Pitch_bend_c, 5, 4541
10, 50360, Pitch_bend_c, 5, 3041
10, 50370, Pitch_bend_c, 5, 1487
10, 50380, Pitch_bend_c, 5, 612
10, 50390, Pitch_bend_c, 5, 273
10, 50400, Pitch_bend_c, 5, 291
10, 50410, Pitch_bend_c, 5, 572
10, 50425, Pitch_bend_c, 5, 1108
10, 50435, Pitch_bend_c, 5, 1777
10, 50445, Pitch_bend_c, 5, 2536
10, 50455, Pitch_bend_c, 5, 3358
10, 50465, Pitch_bend_c, 5, 4393
10, 50475, Pitch_bend_c, 5, 5572
10, 50485, Pitch_bend_c, 5, 6831
10, 50500, Pitch_bend_c, 5, 8139
10, 50510, Pitch_bend_c, 5, 8192
10, 50825, Pitch_bend_c, 5, 6684
10, 50835, Pitch_bend_c, 5, 4630
10, 50845, Pitch_bend_c, 5, 2969
10, 50855, Pitch_bend_c, 5, 1621
10, 50865, Pitch_bend_c, 5, 791
10, 50880, Pitch_bend_c, 5, 487
10, 50890, Pitch_bend_c, 5, 505
10, 50900, Pitch_bend_c, 5, 710
10, 50910, Pitch_bend_c, 5, 1108
10, 50920, Pitch_bend_c, 5, 1634
10, 50930, Pitch_bend_c, 5, 2246
10, 50940, Pitch_bend_c, 5, 2996
10, 50955, Pitch_bend_c, 5, 3858
10, 50965, Pitch_bend_c, 5, 4893
10, 50975, Pitch_bend_c, 5, 6179
10, 50985, Pitch_bend_c, 5, 7697
10, 50995, Pitch_bend_c, 5, 8192
10, 51255, Pitch_bend_c, 5, 7666
10, 51265, Pitch_bend_c, 5, 5469
10, 51275, Pitch_bend_c, 5, 3398
10, 51285, Pitch_bend_c, 5, 2201
10, 51295, Pitch_bend_c, 5, 1041
10, 51305, Pitch_bend_c, 5, 380
10, 51320, Pitch_bend_c, 5, 264
10, 51330, Pitch_bend_c, 5, 309
10, 51340, Pitch_bend_c, 5, 911
10, 51350, Pitch_bend_c, 5, 1688
10, 51360, Pitch_bend_c, 5, 2603
10, 51370, Pitch_bend_c, 5, 3608
10, 51385, Pitch_bend_c, 5, 4822
10, 51395, Pitch_bend_c, 5, 6179
10, 51405, Pitch_bend_c, 5, 7751
10, 51415, Pitch_bend_c, 5, 8192
10, 51715, Control_c, 5, 1, 76
10, 51820, Note_off_c, 5, 48, 64
10, 51825, Note_off_c, 5, 41, 64
10, 51850, Control_c, 5, 1, 0
10, 55665, Note_on_c, 5, 55, 101
10, 55670, Note_on_c, 5, 48, 88
10, 57865, Control_c, 5, 1, 76
10, 58915, Control_c, 5, 1, 0
10, 59065, Note_off_c, 5, 55, 64
10, 59110, Note_off_c, 5, 48, 64
10, 59530, Note_on_c, 5, 48, 109
10, 60410, Note_off_c, 5, 48, 64
10, 60465, Note_on_c, 5, 46, 104
10, 61410, Note_off_c, 5, 46, 64
10, 61430, Note_on_c, 5, 45, 93
10, 62340, Note_off_c, 5, 45, 64
10, 62380, Note_on_c, 5, 41, 101
10, 63310, Note_off_c, 5, 41, 64
10, 63355, Note_on_c, 5, 46, 97
10, 65250, Note_on_c, 5, 53, 88
10, 67035, Note_off_c, 5, 53, 64
10, 67050, Note_off_c, 5, 46, 64
10, 67160, Note_on_c, 5, 46, 80
10, 67170, Note_on_c, 5, 53, 86
10, 70450, Note_off_c, 5, 46, 64
10, 70505, Note_off_c, 5, 53, 64
10, 71020, Note_on_c, 5, 48, 91
10, 71025, Note_on_c, 5, 55, 98
10, 74545, Note_off_c, 5, 55, 64
10, 74600, Note_off_c, 5, 48, 64
10, 74860, Note_on_c, 5, 48, 112
10, 75735, Note_off_c, 5, 48, 64
10, 75815, Note_on_c, 5, 46, 101
10, 76760, Note_off_c, 5, 46, 64
10, 76780, Note_on_c, 5, 45, 96
10, 77720, Note_off_c, 5, 45, 64
10, 77745, Note_on_c, 5, 41, 101
10, 78725, Note_on_c, 5, 46, 93
10, 78730, Note_off_c, 5, 41, 64
10, 80160, Note_on_c, 5, 53, 76
10, 82465, Note_off_c, 5, 46, 64
10, 82480, Note_off_c, 5, 53, 64
10, 82540, Note_on_c, 5, 45, 98
10, 84435, Note_off_c, 5, 45, 64
10, 84480, Note_on_c, 5, 43, 91
10, 86305, Note_off_c, 5, 43, 64
10, 93935, Pitch_bend_c, 5, 8086
10, 93945, Pitch_bend_c, 5, 6791
10, 93960, Pitch_bend_c, 5, 5077
10, 93970, Pitch_bend_c, 5, 3184
10, 93980, Pitch_bend_c, 5, 1112
10, 93990, Pitch_bend_c, 5, 0
10, 94060, Note_on_c, 5, 41, 83
10, 94070, Note_on_c, 5, 48, 86
10, 94085, Pitch_bend_c, 5, 286
10, 94095, Pitch_bend_c, 5, 1947
10, 94110, Pitch_bend_c, 5, 3893
10, 94120, Pitch_bend_c, 5, 6393
10, 94130, Pitch_bend_c, 5, 8192
10, 96410, Pitch_bend_c, 5, 7898
10, 96425, Pitch_bend_c, 5, 5898
10, 96435, Pitch_bend_c, 5, 3684
10, 96445, Pitch_bend_c, 5, 1701
10, 96455, Pitch_bend_c, 5, 300
10, 96465, Pitch_bend_c, 5, 0
10, 96495, Pitch_bend_c, 5, 447
10, 96505, Pitch_bend_c, 5, 1465
10, 96515, Pitch_bend_c, 5, 2465
10, 96525, Pitch_bend_c, 5, 3608
10, 96540, Pitch_bend_c, 5, 5036
10, 96550, Pitch_bend_c, 5, 6822
10, 96560, Pitch_bend_c, 5, 8192
10, 96885, Pitch_bend_c, 5, 8077
10, 96895, Pitch_bend_c, 5, 6077
10, 96905, Pitch_bend_c, 5, 3701
10, 96915, Pitch_bend_c, 5, 1666
10, 96925, Pitch_bend_c, 5, 586
10, 96940, Pitch_bend_c, 5, 510
10, 96950, Pitch_bend_c, 5, 572
10, 96960, Pitch_bend_c, 5, 1215
10, 96970, Pitch_bend_c, 5, 2376
10, 96980, Pitch_bend_c, 5, 3608
10, 96990, Pitch_bend_c, 5, 4920
10, 97005, Pitch_bend_c, 5, 6447
10, 97015, Pitch_bend_c, 5, 8134
10, 97020, Pitch_bend_c, 5, 8192
10, 97375, Pitch_bend_c, 5, 7612
10, 97390, Pitch_bend_c, 5, 5434
10, 97400, Pitch_bend_c, 5, 3326
10, 97410, Pitch_bend_c, 5, 2005
10, 97420, Pitch_bend_c, 5, 1505
10, 97430, Pitch_bend_c, 5, 1456
10, 97440, Pitch_bend_c, 5, 1599
10, 97450, Pitch_bend_c, 5, 2215
10, 97465, Pitch_bend_c, 5, 3072
10, 97475, Pitch_bend_c, 5, 4072
10, 97485, Pitch_bend_c, 5, 5465
10, 97495, Pitch_bend_c, 5, 7322
10, 97505, Pitch_bend_c, 5, 8192
10, 97890, Note_off_c, 5, 48, 64
10, 97890, Note_off_c, 5, 41, 64
10, 101520, Note_on_c, 5, 41, 93
10, 101520, Note_on_c, 5, 48, 86
10, 101605, Note_off_c, 5, 48, 64
10, 101610, Note_off_c, 5, 41, 64
10, 101625, Note_on_c, 5, 41, 93
10, 101710, Note_off_c, 5, 41, 64
10, 101760, Note_on_c, 5, 41, 83
10, 101765, Note_on_c, 5, 48, 91
10, 105600, Note_off_c, 5, 41, 64
10, 105610, Note_off_c, 5, 48, 64
10, 109205, Note_on_c, 5, 41, 96
10, 109210, Note_on_c, 5, 48, 88
10, 109280, Note_off_c, 5, 48, 64
10, 109290, Note_off_c, 5, 41, 64
10, 109315, Note_on_c, 5, 41, 96
10, 109395, Note_off_c, 5, 41, 64
10, 109425, Note_on_c, 5, 41, 96
10, 109435, Note_on_c, 5, 48, 88
10, 110855, Pitch_bend_c, 5, 7255
10, 110865, Pitch_bend_c, 5, 4648
10, 110875, Pitch_bend_c, 5, 2344
10, 110885, Pitch_bend_c, 5, 1264
10, 110895, Pitch_bend_c, 5, 1103
10, 110905, Pitch_bend_c, 5, 1255
10, 110920, Pitch_bend_c, 5, 1867
10, 110930, Pitch_bend_c, 5, 2751
10, 110940, Pitch_bend_c, 5, 3679
10, 110950, Pitch_bend_c, 5, 4992
10, 110960, Pitch_bend_c, 5, 6733
10, 110970, Pitch_bend_c, 5, 8192
10, 111325, Pitch_bend_c, 5, 8126
10, 111335, Pitch_bend_c, 5, 5630
10, 111345, Pitch_bend_c, 5, 2791
10, 111355, Pitch_bend_c, 5, 612
10, 111365, Pitch_bend_c, 5, 0
10, 111405, Pitch_bend_c, 5, 286
10, 111420, Pitch_bend_c, 5, 1393
10, 111430, Pitch_bend_c, 5, 2644
10, 111440, Pitch_bend_c, 5, 4251
10, 111450, Pitch_bend_c, 5, 6465
10, 111460, Pitch_bend_c, 5, 8192
10, 111815, Pitch_bend_c, 5, 7755
10, 111825, Pitch_bend_c, 5, 5077
10, 111835, Pitch_bend_c, 5, 2362
10, 111845, Pitch_bend_c, 5, 0
10, 111905, Pitch_bend_c, 5, 1108
10, 111915, Pitch_bend_c, 5, 2590
10, 111925, Pitch_bend_c, 5, 4358
10, 111935, Pitch_bend_c, 5, 6608
10, 111945, Pitch_bend_c, 5, 8192
10, 112275, Pitch_bend_c, 5, 7755
10, 112285, Pitch_bend_c, 5, 5541
10, 112295, Pitch_bend_c, 5, 3041
10, 112305, Pitch_bend_c, 5, 755
10, 112315, Pitch_bend_c, 5, 0
10, 112355, Pitch_bend_c, 5, 429
10, 112365, Pitch_bend_c, 5, 1572
10, 112375, Pitch_bend_c, 5, 2822
10, 112385, Pitch_bend_c, 5, 4304
10, 112395, Pitch_bend_c, 5, 6144
10, 112410, Pitch_bend_c, 5, 8130
10, 112420, Pitch_bend_c, 5, 8192
10, 112760, Pitch_bend_c, 5, 8112
10, 112775, Pitch_bend_c, 5, 5720
10, 112785, Pitch_bend_c, 5, 3612
10, 112795, Pitch_bend_c, 5, 2541
10, 112805, Pitch_bend_c, 5, 2220
10, 112815, Pitch_bend_c, 5, 2358
10, 112825, Pitch_bend_c, 5, 3144
10, 112835, Pitch_bend_c, 5, 4121
10, 112850, Pitch_bend_c, 5, 5304
10, 112860, Pitch_bend_c, 5, 6679
10, 112870, Pitch_bend_c, 5, 8192
10, 113225, Note_off_c, 5, 48, 64
10, 113240, Note_off_c, 5, 41, 64
10, 116900, Note_on_c, 5, 41, 83
10, 116905, Note_on_c, 5, 48, 83
10, 116980, Note_off_c, 5, 48, 64
10, 117085, Note_on_c, 5, 48, 88
10, 118515, Pitch_bend_c, 5, 7255
10, 118525, Pitch_bend_c, 5, 4826
10, 118535, Pitch_bend_c, 5, 2469
10, 118545, Pitch_bend_c, 5, 416
10, 118560, Pitch_bend_c, 5, 0
10, 118585, Pitch_bend_c, 5, 90
10, 118600, Pitch_bend_c, 5, 1179
10, 118610, Pitch_bend_c, 5, 2393
10, 118620, Pitch_bend_c, 5, 3822
10, 118630, Pitch_bend_c, 5, 5733
10, 118640, Pitch_bend_c, 5, 8036
10, 118650, Pitch_bend_c, 5, 8192
10, 119005, Pitch_bend_c, 5, 7969
10, 119015, Pitch_bend_c, 5, 5041
10, 119025, Pitch_bend_c, 5, 2398
10, 119035, Pitch_bend_c, 5, 541
10, 119045, Pitch_bend_c, 5, 0
10, 119075, Pitch_bend_c, 5, 349
10, 119090, Pitch_bend_c, 5, 1268
10, 119100, Pitch_bend_c, 5, 2197
10, 119110, Pitch_bend_c, 5, 3179
10, 119120, Pitch_bend_c, 5, 4608
10, 119130, Pitch_bend_c, 5, 6429
10, 119140, Pitch_bend_c, 5, 8192
10, 119495, Pitch_bend_c, 5, 7327
10, 119505, Pitch_bend_c, 5, 5041
10, 119515, Pitch_bend_c, 5, 2826
10, 119525, Pitch_bend_c, 5, 791
10, 119535, Pitch_bend_c, 5, 0
10, 119575, Pitch_bend_c, 5, 965
10, 119590, Pitch_bend_c, 5, 2322
10, 119600, Pitch_bend_c, 5, 4001
10, 119610, Pitch_bend_c, 5, 6036
10, 119620, Pitch_bend_c, 5, 8126
10, 119630, Pitch_bend_c, 5, 8192
10, 119965, Pitch_bend_c, 5, 8036
10, 119975, Pitch_bend_c, 5, 6041
10, 119985, Pitch_bend_c, 5, 3755
10, 119995, Pitch_bend_c, 5, 1541
10, 120010, Pitch_bend_c, 5, 184
10, 120020, Pitch_bend_c, 5, 0
10, 120040, Pitch_bend_c, 5, 206
10, 120050, Pitch_bend_c, 5, 1072
10, 120060, Pitch_bend_c, 5, 2081
10, 120070, Pitch_bend_c, 5, 3170
10, 120080, Pitch_bend_c, 5, 4465
10, 120090, Pitch_bend_c, 5, 6036
10, 120100, Pitch_bend_c, 5, 8036
10, 120110, Pitch_bend_c, 5, 8192
10, 120460, Pitch_bend_c, 5, 8112
10, 120470, Pitch_bend_c, 5, 7715
10, 120480, Pitch_bend_c, 5, 7706
10, 120490, Pitch_bend_c, 5, 7720
10, 120500, Pitch_bend_c, 5, 8081
10, 120505, Control_c, 5, 1, 76
10, 120510, Pitch_bend_c, 5, 8192
10, 120820, Control_c, 5, 1, 0
10, 120840, Note_off_c, 5, 48, 64
10, 120850, Note_off_c, 5, 41, 64
10, 124785, Note_on_c, 5, 55, 101
10, 124790, Note_on_c, 5, 48, 88
10, 126985, Control_c, 5, 1, 76
10, 128035, Control_c, 5, 1, 0
10, 128185, Note_off_c, 5, 55, 64
10, 128230, Note_off_c, 5, 48, 64
10, 128650, Note_on_c, 5, 48, 109
10, 129530, Note_off_c, 5, 48, 64
10, 129585, Note_on_c, 5, 46, 104
10, 130530, Note_off_c, 5, 46, 64
10, 130550, Note_on_c, 5, 45, 93
10, 131460, Note_off_c, 5, 45, 64
10, 131500, Note_on_c, 5, 41, 101
10, 132430, Note_off_c, 5, 41, 64
10, 132475, Note_on_c, 5, 46, 97
10, 134370, Note_on_c, 5, 53, 88
10, 136155, Note_off_c, 5, 53, 64
10, 136170, Note_off_c, 5, 46, 64
10, 136280, Note_on_c, 5, 46, 80
10, 136290, Note_on_c, 5, 53, 86
10, 139570, Note_off_c, 5, 46, 64
10, 139625, Note_off_c, 5, 53, 64
10, 140140, Note_on_c, 5, 48, 91
10, 140145, Note_on_c, 5, 55, 98
10, 143665, Note_off_c, 5, 55, 64
10, 143720, Note_off_c, 5, 48, 64
10, 143980, Note_on_c, 5, 48, 112
10, 144855, Note_off_c, 5, 48, 64
10, 144935, Note_on_c, 5, 46, 101
10, 145880, Note_off_c, 5, 46, 64
10, 145900, Note_on_c, 5, 45, 96
10, 146840, Note_off_c, 5, 45, 64
10, 146865, Note_on_c, 5, 41, 101
10, 147845, Note_on_c, 5, 46, 93
10, 147850, Note_off_c, 5, 41, 64
10, 149280, Note_on_c, 5, 53, 76
10, 151585, Note_off_c, 5, 46, 64
10, 151600, Note_off_c, 5, 53, 64
10, 151660, Note_on_c, 5, 45, 98
10, 153555, Note_off_c, 5, 45, 64
10, 153600, Note_on_c, 5, 43, 91
10, 155425, Note_off_c, 5, 43, 64
10, 162715, Note_on_c, 5, 70, 87
10, 162715, Note_on_c, 5, 58, 91
10, 162815, Note_off_c, 5, 58, 64
10, 162815, Note_off_c, 5, 70, 64
10, 162955, Note_on_c, 5, 70, 87
10, 162955, Note_on_c, 5, 58, 91
10, 163100, Note_off_c, 5, 58, 64
10, 163100, Note_off_c, 5, 70, 64
10, 163150, Pitch_bend_c, 5, 7273
10, 163150, Pitch_bend_c, 5, 7273
10, 163160, Pitch_bend_c, 5, 3898
10, 163160, Pitch_bend_c, 5, 3898
10, 163175, Pitch_bend_c, 5, 0
10, 163175, Pitch_bend_c, 5, 0
10, 163200, Note_on_c, 5, 74, 93
10, 163200, Note_on_c, 5, 62, 97
10, 163290, Pitch_bend_c, 5, 179
10, 163290, Pitch_bend_c, 5, 179
10, 163300, Pitch_bend_c, 5, 1572
10, 163300, Pitch_bend_c, 5, 1572
10, 163310, Pitch_bend_c, 5, 2893
10, 163310, Pitch_bend_c, 5, 2893
10, 163325, Pitch_bend_c, 5, 4287
10, 163325, Pitch_bend_c, 5, 4287
10, 163335, Pitch_bend_c, 5, 5536
10, 163335, Pitch_bend_c, 5, 5536
10, 163345, Pitch_bend_c, 5, 6644
10, 163345, Pitch_bend_c, 5, 6644
10, 163355, Pitch_bend_c, 5, 7608
10, 163355, Pitch_bend_c, 5, 7608
10, 163365, Pitch_bend_c, 5, 8139
10, 163365, Pitch_bend_c, 5, 8139
10, 163375, Pitch_bend_c, 5, 8192
10, 163375, Pitch_bend_c, 5, 8192
10, 163585, Note_off_c, 5, 62, 64
10, 163585, Note_off_c, 5, 74, 64
10, 163650, Note_on_c, 5, 77, 85
10, 163650, Note_on_c, 5, 65, 89
10, 163910, Control_c, 5, 1, 76
10, 163910, Control_c, 5, 1, 76
10, 164530, Note_off_c, 5, 65, 64
10, 164530, Note_off_c, 5, 77, 64
10, 164575, Control_c, 5, 1, 0
10, 164575, Control_c, 5, 1, 0
10, 164635, Note_on_c, 5, 77, 93
10, 164635, Note_on_c, 5, 65, 97
10, 165060, Note_off_c, 5, 65, 64
10, 165060, Note_off_c, 5, 77, 64
10, 165115, Note_on_c, 5, 79, 93
10, 165115, Note_on_c, 5, 67, 97
10, 165340, Note_off_c, 5, 67, 64
10, 165340, Note_off_c, 5, 79, 64
10, 165355, Note_on_c, 5, 77, 67
10, 165355, Note_on_c, 5, 65, 71
10, 165465, Note_off_c, 5, 65, 64
10, 165465, Note_off_c, 5, 77, 64
10, 165580, Note_on_c, 5, 77, 75
10, 165580, Note_on_c, 5, 65, 79
10, 165810, Control_c, 5, 1, 76
10, 165810, Control_c, 5, 1, 76
10, 165935, Note_off_c, 5, 65, 64
10, 165935, Note_off_c, 5, 77, 64
10, 166065, Note_on_c, 5, 77, 93
10, 166065, Note_on_c, 5, 65, 97
10, 166120, Control_c, 5, 1, 0
10, 166120, Control_c, 5, 1, 0
10, 166480, Note_off_c, 5, 65, 64
10, 166480, Note_off_c, 5, 77, 64
10, 166575, Note_on_c, 5, 70, 81
10, 166575, Note_on_c, 5, 58, 85
10, 166655, Note_off_c, 5, 58, 64
10, 166655, Note_off_c, 5, 70, 64
10, 166785, Note_on_c, 5, 70, 71
10, 166785, Note_on_c, 5, 58, 75
10, 166970, Note_off_c, 5, 58, 64
10, 166970, Note_off_c, 5, 70, 64
10, 167005, Pitch_bend_c, 5, 7255
10, 167005, Pitch_bend_c, 5, 7255
10, 167015, Pitch_bend_c, 5, 4255
10, 167015, Pitch_bend_c, 5, 4255
10, 167025, Pitch_bend_c, 5, 755
10, 167025, Pitch_bend_c, 5, 755
10, 167035, Pitch_bend_c, 5, 0
10, 167035, Pitch_bend_c, 5, 0
10, 167045, Note_on_c, 5, 74, 93
10, 167045, Note_on_c, 5, 62, 97
10, 167115, Pitch_bend_c, 5, 286
10, 167115, Pitch_bend_c, 5, 286
10, 167125, Pitch_bend_c, 5, 1519
10, 167125, Pitch_bend_c, 5, 1519
10, 167135, Pitch_bend_c, 5, 2893
10, 167135, Pitch_bend_c, 5, 2893
10, 167150, Pitch_bend_c, 5, 4447
10, 167150, Pitch_bend_c, 5, 4447
10, 167160, Pitch_bend_c, 5, 5965
10, 167160, Pitch_bend_c, 5, 5965
10, 167170, Pitch_bend_c, 5, 7394
10, 167170, Pitch_bend_c, 5, 7394
10, 167180, Pitch_bend_c, 5, 8184
10, 167180, Pitch_bend_c, 5, 8184
10, 167190, Pitch_bend_c, 5, 8192
10, 167190, Pitch_bend_c, 5, 8192
10, 167435, Note_off_c, 5, 62, 64
10, 167435, Note_off_c, 5, 74, 64
10, 167505, Note_on_c, 5, 77, 80
10, 167505, Note_on_c, 5, 65, 84
10, 167720, Control_c, 5, 1, 76
10, 167720, Control_c, 5, 1, 76
10, 168370, Note_off_c, 5, 65, 64
10, 168370, Note_off_c, 5, 77, 64
10, 168420, Control_c, 5, 1, 0
10, 168420, Control_c, 5, 1, 0
10, 168480, Note_on_c, 5, 77, 80
10, 168480, Note_on_c, 5, 65, 84
10, 168875, Note_off_c, 5, 65, 64
10, 168875, Note_off_c, 5, 77, 64
10, 168960, Note_on_c, 5, 79, 84
10, 168960, Note_on_c, 5, 67, 85
10, 169160, Note_off_c, 5, 67, 64
10, 169160, Note_off_c, 5, 79, 64
10, 169195, Note_on_c, 5, 77, 78
10, 169195, Note_on_c, 5, 65, 69
10, 169300, Note_off_c, 5, 65, 64
10, 169300, Note_off_c, 5, 77, 64
10, 169435, Note_on_c, 5, 77, 76
10, 169435, Note_on_c, 5, 65, 79
10, 169820, Note_off_c, 5, 65, 64
10, 169820, Note_off_c, 5, 77, 64
10, 169910, Note_on_c, 5, 77, 79
10, 169910, Note_on_c, 5, 65, 79
10, 170270, Note_off_c, 5, 65, 64
10, 170270, Note_off_c, 5, 77, 64
10, 170410, Note_on_c, 5, 77, 80
10, 170410, Note_on_c, 5, 65, 84
10, 170520, Note_off_c, 5, 65, 64
10, 170520, Note_off_c, 5, 77, 64
10, 170620, Note_on_c, 5, 77, 72
10, 170620, Note_on_c, 5, 65, 76
10, 170775, Note_off_c, 5, 65, 64
10, 170775, Note_off_c, 5, 77, 64
10, 170815, Pitch_bend_c, 5, 7184
10, 170815, Pitch_bend_c, 5, 7184
10, 170825, Pitch_bend_c, 5, 3398
10, 170825, Pitch_bend_c, 5, 3398
10, 170835, Pitch_bend_c, 5, 0
10, 170835, Pitch_bend_c, 5, 0
10, 170860, Note_on_c, 5, 69, 85
10, 170860, Note_on_c, 5, 57, 89
10, 170965, Pitch_bend_c, 5, 1465
10, 170965, Pitch_bend_c, 5, 1465
10, 170975, Pitch_bend_c, 5, 3108
10, 170975, Pitch_bend_c, 5, 3108
10, 170985, Pitch_bend_c, 5, 4751
10, 170985, Pitch_bend_c, 5, 4751
10, 170995, Pitch_bend_c, 5, 6251
10, 170995, Pitch_bend_c, 5, 6251
10, 171010, Pitch_bend_c, 5, 7429
10, 171010, Pitch_bend_c, 5, 7429
10, 171020, Pitch_bend_c, 5, 8126
10, 171020, Pitch_bend_c, 5, 8126
10, 171030, Pitch_bend_c, 5, 8192
10, 171030, Pitch_bend_c, 5, 8192
10, 171305, Note_off_c, 5, 57, 64
10, 171305, Note_off_c, 5, 69, 64
10, 171350, Note_on_c, 5, 72, 85
10, 171350, Note_on_c, 5, 60, 89
10, 171585, Control_c, 5, 1, 76
10, 171585, Control_c, 5, 1, 76
10, 172055, Control_c, 5, 1, 0
10, 172055, Control_c, 5, 1, 0
10, 172200, Note_off_c, 5, 60, 64
10, 172200, Note_off_c, 5, 72, 64
10, 172265, Pitch_bend_c, 5, 6612
10, 172265, Pitch_bend_c, 5, 6612
10, 172275, Pitch_bend_c, 5, 1612
10, 172275, Pitch_bend_c, 5, 1612
10, 172285, Pitch_bend_c, 5, 0
10, 172285, Pitch_bend_c, 5, 0
10, 172295, Note_on_c, 5, 74, 88
10, 172295, Note_on_c, 5, 62, 92
10, 172390, Pitch_bend_c, 5, 822
10, 172390, Pitch_bend_c, 5, 822
10, 172405, Pitch_bend_c, 5, 2787
10, 172405, Pitch_bend_c, 5, 2787
10, 172415, Pitch_bend_c, 5, 4804
10, 172415, Pitch_bend_c, 5, 4804
10, 172425, Pitch_bend_c, 5, 6608
10, 172425, Pitch_bend_c, 5, 6608
10, 172435, Pitch_bend_c, 5, 8072
10, 172435, Pitch_bend_c, 5, 8072
10, 172445, Pitch_bend_c, 5, 8192
10, 172445, Pitch_bend_c, 5, 8192
10, 172650, Note_off_c, 5, 62, 64
10, 172650, Note_off_c, 5, 74, 64
10, 172775, Note_on_c, 5, 69, 77
10, 172775, Note_on_c, 5, 57, 81
10, 172960, Note_off_c, 5, 57, 64
10, 172960, Note_off_c, 5, 69, 64
10, 172995, Note_on_c, 5, 67, 63
10, 172995, Note_on_c, 5, 55, 67
10, 173230, Note_off_c, 5, 55, 64
10, 173230, Note_off_c, 5, 67, 64
10, 173260, Note_on_c, 5, 65, 80
10, 173260, Note_on_c, 5, 53, 84
10, 173665, Note_off_c, 5, 53, 64
10, 173665, Note_off_c, 5, 65, 64
10, 173750, Note_on_c, 5, 65, 80
10, 173750, Note_on_c, 5, 53, 84
10, 174205, Pitch_bend_c, 5, 8144
10, 174205, Pitch_bend_c, 5, 8144
10, 174215, Pitch_bend_c, 5, 8094
10, 174215, Pitch_bend_c, 5, 8094
10, 174220, Control_c, 5, 1, 76
10, 174220, Control_c, 5, 1, 76
10, 174240, Pitch_bend_c, 5, 8103
10, 174240, Pitch_bend_c, 5, 8103
10, 174290, Pitch_bend_c, 5, 8112
10, 174290, Pitch_bend_c, 5, 8112
10, 174605, Pitch_bend_c, 5, 8099
10, 174605, Pitch_bend_c, 5, 8099
10, 174615, Pitch_bend_c, 5, 8121
10, 174615, Pitch_bend_c, 5, 8121
10, 174620, Control_c, 5, 1, 0
10, 174620, Control_c, 5, 1, 0
10, 174625, Pitch_bend_c, 5, 8192
10, 174625, Pitch_bend_c, 5, 8192
10, 174680, Note_off_c, 5, 53, 64
10, 174680, Note_off_c, 5, 65, 64
10, 174695, Pitch_bend_c, 5, 6469
10, 174695, Pitch_bend_c, 5, 6469
10, 174705, Pitch_bend_c, 5, 2469
10, 174705, Pitch_bend_c, 5, 2469
10, 174710, Pitch_bend_c, 5, 0
10, 174710, Pitch_bend_c, 5, 0
10, 174720, Note_on_c, 5, 69, 80
10, 174720, Note_on_c, 5, 57, 84
10, 174805, Pitch_bend_c, 5, 393
10, 174805, Pitch_bend_c, 5, 393
10, 174815, Pitch_bend_c, 5, 2679
10, 174815, Pitch_bend_c, 5, 2679
10, 174825, Pitch_bend_c, 5, 4965
10, 174825, Pitch_bend_c, 5, 4965
10, 174835, Pitch_bend_c, 5, 7036
10, 174835, Pitch_bend_c, 5, 7036
10, 174845, Pitch_bend_c, 5, 8192
10, 174845, Pitch_bend_c, 5, 8192
10, 175170, Note_off_c, 5, 57, 64
10, 175170, Note_off_c, 5, 69, 64
10, 175200, Note_on_c, 5, 72, 85
10, 175200, Note_on_c, 5, 60, 89
10, 175415, Control_c, 5, 1, 76
10, 175415, Control_c, 5, 1, 76
10, 175905, Control_c, 5, 1, 0
10, 175905, Control_c, 5, 1, 0
10, 176045, Note_off_c, 5, 60, 64
10, 176045, Note_off_c, 5, 72, 64
10, 176130, Pitch_bend_c, 5, 8130
10, 176130, Pitch_bend_c, 5, 8130
10, 176140, Pitch_bend_c, 5, 4041
10, 176140, Pitch_bend_c, 5, 4041
10, 176150, Pitch_bend_c, 5, 0
10, 176150, Pitch_bend_c, 5, 0
10, 176165, Note_on_c, 5, 74, 80
10, 176165, Note_on_c, 5, 62, 84
10, 176265, Pitch_bend_c, 5, 1072
10, 176265, Pitch_bend_c, 5, 1072
10, 176280, Pitch_bend_c, 5, 2787
10, 176280, Pitch_bend_c, 5, 2787
10, 176290, Pitch_bend_c, 5, 4536
10, 176290, Pitch_bend_c, 5, 4536
10, 176300, Pitch_bend_c, 5, 6322
10, 176300, Pitch_bend_c, 5, 6322
10, 176310, Pitch_bend_c, 5, 7822
10, 176310, Pitch_bend_c, 5, 7822
10, 176320, Pitch_bend_c, 5, 8192
10, 176320, Pitch_bend_c, 5, 8192
10, 176440, Note_off_c, 5, 62, 64
10, 176440, Note_off_c, 5, 74, 64
10, 176620, Note_on_c, 5, 69, 77
10, 176620, Note_on_c, 5, 57, 81
10, 176845, Note_off_c, 5, 57, 64
10, 176845, Note_off_c, 5, 69, 64
10, 176860, Note_on_c, 5, 67, 65
10, 176860, Note_on_c, 5, 55, 69
10, 177020, Note_off_c, 5, 55, 64
10, 177020, Note_off_c, 5, 67, 64
10, 177100, Note_on_c, 5, 65, 67
10, 177100, Note_on_c, 5, 53, 71
10, 177435, Note_off_c, 5, 53, 64
10, 177435, Note_off_c, 5, 65, 64
10, 177585, Note_on_c, 5, 65, 70
10, 177585, Note_on_c, 5, 53, 74
10, 177945, Note_off_c, 5, 53, 64
10, 177945, Note_off_c, 5, 65, 64
10, 178075, Note_on_c, 5, 70, 77
10, 178075, Note_on_c, 5, 58, 81
10, 178160, Note_off_c, 5, 58, 64
10, 178160, Note_off_c, 5, 70, 64
10, 178290, Note_on_c, 5, 70, 77
10, 178290, Note_on_c, 5, 58, 81
10, 178470, Note_off_c, 5, 58, 64
10, 178470, Note_off_c, 5, 70, 64
10, 178500, Pitch_bend_c, 5, 7041
10, 178500, Pitch_bend_c, 5, 7041
10, 178510, Pitch_bend_c, 5, 3755
10, 178510, Pitch_bend_c, 5, 3755
10, 178525, Pitch_bend_c, 5, 184
10, 178525, Pitch_bend_c, 5, 184
10, 178535, Pitch_bend_c, 5, 0
10, 178535, Pitch_bend_c, 5, 0
10, 178555, Note_on_c, 5, 70, 12
10, 178555, Note_on_c, 5, 58, 16
10, 178565, Note_on_c, 5, 74, 82
10, 178565, Note_on_c, 5, 62, 86
10, 178600, Note_off_c, 5, 58, 64
10, 178600, Note_off_c, 5, 70, 64
10, 178655, Pitch_bend_c, 5, 929
10, 178655, Pitch_bend_c, 5, 929
10, 178665, Pitch_bend_c, 5, 2554
10, 178665, Pitch_bend_c, 5, 2554
10, 178675, Pitch_bend_c, 5, 4108
10, 178675, Pitch_bend_c, 5, 4108
10, 178685, Pitch_bend_c, 5, 5715
10, 178685, Pitch_bend_c, 5, 5715
10, 178695, Pitch_bend_c, 5, 7036
10, 178695, Pitch_bend_c, 5, 7036
10, 178710, Pitch_bend_c, 5, 8099
10, 178710, Pitch_bend_c, 5, 8099
10, 178720, Pitch_bend_c, 5, 8192
10, 178720, Pitch_bend_c, 5, 8192
10, 178925, Note_off_c, 5, 74, 64
10, 178925, Note_off_c, 5, 62, 64
10, 179010, Note_on_c, 5, 77, 82
10, 179010, Note_on_c, 5, 65, 86
10, 179395, Note_off_c, 5, 65, 64
10, 179395, Note_off_c, 5, 77, 64
10, 179500, Note_on_c, 5, 77, 75
10, 179500, Note_on_c, 5, 65, 79
10, 179925, Note_off_c, 5, 65, 64
10, 179925, Note_off_c, 5, 77, 64
10, 180000, Note_on_c, 5, 77, 85
10, 180000, Note_on_c, 5, 65, 89
10, 180260, Control_c, 5, 1, 76
10, 180260, Control_c, 5, 1, 76
10, 180410, Note_off_c, 5, 65, 64
10, 180410, Note_off_c, 5, 77, 64
10, 180465, Note_on_c, 5, 79, 82
10, 180465, Note_on_c, 5, 67, 86
10, 180475, Control_c, 5, 1, 0
10, 180475, Control_c, 5, 1, 0
10, 180645, Note_off_c, 5, 67, 64
10, 180645, Note_off_c, 5, 79, 64
10, 180695, Note_on_c, 5, 77, 72
10, 180695, Note_on_c, 5, 65, 76
10, 180825, Note_off_c, 5, 65, 64
10, 180825, Note_off_c, 5, 77, 64
10, 180940, Note_on_c, 5, 77, 85
10, 180940, Note_on_c, 5, 65, 89
10, 181140, Control_c, 5, 1, 76
10, 181140, Control_c, 5, 1, 76
10, 181295, Note_off_c, 5, 65, 64
10, 181295, Note_off_c, 5, 77, 64
10, 181405, Note_on_c, 5, 77, 82
10, 181405, Note_on_c, 5, 65, 86
10, 181855, Note_off_c, 5, 65, 64
10, 181855, Note_off_c, 5, 77, 64
10, 181895, Note_on_c, 5, 74, 70
10, 181895, Note_on_c, 5, 62, 74
10, 182005, Control_c, 5, 1, 0
10, 182005, Control_c, 5, 1, 0
10, 182090, Note_off_c, 5, 62, 64
10, 182090, Note_off_c, 5, 74, 64
10, 182120, Note_on_c, 5, 77, 75
10, 182120, Note_on_c, 5, 65, 79
10, 182295, Note_off_c, 5, 65, 64
10, 182295, Note_off_c, 5, 77, 64
10, 182370, Note_on_c, 5, 79, 82
10, 182370, Note_on_c, 5, 67, 86
10, 182605, Note_off_c, 5, 67, 64
10, 182605, Note_off_c, 5, 79, 64
10, 182620, Note_on_c, 5, 77, 72
10, 182620, Note_on_c, 5, 65, 76
10, 182725, Note_off_c, 5, 65, 64
10, 182725, Note_off_c, 5, 77, 64
10, 182870, Note_on_c, 5, 77, 80
10, 182870, Note_on_c, 5, 65, 84
10, 183085, Control_c, 5, 1, 76
10, 183085, Control_c, 5, 1, 76
10, 183260, Note_off_c, 5, 65, 64
10, 183260, Note_off_c, 5, 77, 64
10, 183365, Note_on_c, 5, 77, 88
10, 183365, Note_on_c, 5, 65, 92
10, 183375, Control_c, 5, 1, 0
10, 183375, Control_c, 5, 1, 0
10, 183760, Note_off_c, 5, 65, 64
10, 183760, Note_off_c, 5, 77, 64
10, 183855, Note_on_c, 5, 77, 85
10, 183855, Note_on_c, 5, 65, 89
10, 184055, Control_c, 5, 1, 76
10, 184055, Control_c, 5, 1, 76
10, 184700, Note_off_c, 5, 65, 64
10, 184700, Note_off_c, 5, 77, 64
10, 184785, Note_on_c, 5, 77, 85
10, 184785, Note_on_c, 5, 65, 89
10, 184790, Control_c, 5, 1, 0
10, 184790, Control_c, 5, 1, 0
10, 185030, Control_c, 5, 1, 76
10, 185030, Control_c, 5, 1, 76
10, 185180, Note_off_c, 5, 65, 64
10, 185180, Note_off_c, 5, 77, 64
10, 185250, Note_on_c, 5, 77, 80
10, 185250, Note_on_c, 5, 65, 84
10, 185280, Control_c, 5, 1, 0
10, 185280, Control_c, 5, 1, 0
10, 185490, Note_on_c, 5, 79, 75
10, 185490, Note_on_c, 5, 67, 79
10, 185500, Note_off_c, 5, 65, 64
10, 185500, Note_off_c, 5, 77, 64
10, 185655, Control_c, 5, 1, 76
10, 185655, Control_c, 5, 1, 76
10, 186035, Note_off_c, 5, 79, 64
10, 186035, Note_off_c, 5, 67, 64
10, 186065, Control_c, 5, 1, 0
10, 186065, Control_c, 5, 1, 0
10, 186230, Note_on_c, 5, 48, 93
10, 186235, Note_on_c, 5, 55, 91
10, 189875, Note_off_c, 5, 48, 64
10, 189880, Note_off_c, 5, 55, 64
10, 190070, Note_on_c, 5, 48, 91
10, 190075, Note_on_c, 5, 55, 86
10, 193395, Note_off_c, 5, 55, 64
10, 193415, Note_off_c, 5, 48, 64
10, 193930, Note_on_c, 5, 46, 87
10, 193940, Note_on_c, 5, 53, 86
10, 197570, Note_off_c, 5, 53, 64
10, 197570, Note_off_c, 5, 46, 64
10, 197760, Note_on_c, 5, 46, 83
10, 197765, Note_on_c, 5, 53, 71
10, 200945, Note_off_c, 5, 46, 64
10, 201045, Note_off_c, 5, 53, 64
10, 201605, Note_on_c, 5, 55, 96
10, 201610, Note_on_c, 5, 48, 86
10, 205250, Note_off_c, 5, 48, 64
10, 205270, Note_off_c, 5, 55, 64
10, 205400, Pitch_bend_c, 5, 7587
10, 205410, Pitch_bend_c, 5, 5565
10, 205420, Pitch_bend_c, 5, 3195
10, 205430, Pitch_bend_c, 5, 985
10, 205440, Pitch_bend_c, 5, 0
10, 205445, Note_on_c, 5, 48, 81
10, 205450, Note_on_c, 5, 55, 88
10, 205490, Pitch_bend_c, 5, 268
10, 205500, Pitch_bend_c, 5, 1498
10, 205510, Pitch_bend_c, 5, 2745
10, 205520, Pitch_bend_c, 5, 4170
10, 205535, Pitch_bend_c, 5, 5827
10, 205545, Pitch_bend_c, 5, 7609
10, 205555, Pitch_bend_c, 5, 8192
10, 208530, Note_off_c, 5, 55, 64
10, 208565, Note_off_c, 5, 48, 64
10, 209270, Note_on_c, 5, 46, 87
10, 209280, Note_on_c, 5, 53, 86
10, 212735, Note_off_c, 5, 53, 64
10, 212775, Note_off_c, 5, 46, 64
10, 213115, Note_on_c, 5, 45, 88
10, 214965, Note_off_c, 5, 45, 64
10, 215040, Note_on_c, 5, 43, 93
10, 216615, Note_off_c, 5, 43, 64
10, 216970, Note_on_c, 5, 48, 86
10, 216975, Note_on_c, 5, 41, 88
10, 219375, Note_off_c, 5, 41, 64
10, 220250, Note_off_c, 5, 48, 64
10, 220785, Note_on_c, 5, 55, 83
10, 220785, Note_on_c, 5, 48, 81
10, 224390, Note_off_c, 5, 48, 64
10, 224405, Note_off_c, 5, 55, 64
10, 224640, Note_on_c, 5, 48, 76
10, 224640, Note_on_c, 5, 55, 86
10, 227735, Note_off_c, 5, 55, 64
10, 227780, Note_off_c, 5, 48, 64
10, 228475, Note_on_c, 5, 46, 89
10, 228485, Note_on_c, 5, 53, 88
10, 232180, Note_off_c, 5, 46, 64
10, 232195, Note_off_c, 5, 53, 64
10, 232270, Pitch_bend_c, 5, 7329
10, 232280, Pitch_bend_c, 5, 5404
10, 232290, Pitch_bend_c, 5, 3444
10, 232300, Pitch_bend_c, 5, 2001
10, 232315, Pitch_bend_c, 5, 1382
10, 232320, Note_on_c, 5, 46, 76
10, 232325, Pitch_bend_c, 5, 1315
10, 232330, Note_on_c, 5, 53, 79
10, 232335, Pitch_bend_c, 5, 1408
10, 232345, Pitch_bend_c, 5, 1907
10, 232355, Pitch_bend_c, 5, 2691
10, 232370, Pitch_bend_c, 5, 3404
10, 232380, Pitch_bend_c, 5, 4313
10, 232390, Pitch_bend_c, 5, 5382
10, 232400, Pitch_bend_c, 5, 6571
10, 232410, Pitch_bend_c, 5, 7734
10, 232420, Pitch_bend_c, 5, 8192
10, 235400, Note_off_c, 5, 46, 64
10, 235740, Note_off_c, 5, 53, 64
10, 236155, Note_on_c, 5, 55, 91
10, 236160, Note_on_c, 5, 48, 79
10, 239740, Note_off_c, 5, 48, 64
10, 239755, Note_off_c, 5, 55, 64
10, 239990, Note_on_c, 5, 48, 79
10, 239995, Note_on_c, 5, 55, 86
10, 243155, Note_off_c, 5, 55, 64
10, 243345, Note_off_c, 5, 48, 64
10, 243850, Note_on_c, 5, 46, 83
10, 243860, Note_on_c, 5, 53, 83
10, 247490, Note_off_c, 5, 53, 64
10, 247515, Note_off_c, 5, 46, 64
10, 247665, Note_on_c, 5, 45, 88
10, 249565, Note_off_c, 5, 45, 64
10, 249590, Note_on_c, 5, 43, 91
10, 251230, Note_off_c, 5, 43, 64
10, 251520, Note_on_c, 5, 48, 83
10, 251525, Note_on_c, 5, 41, 88
10, 254425, Note_off_c, 5, 41, 64
10, 255130, Note_off_c, 5, 48, 64
10, 255345, Note_on_c, 5, 48, 83
10, 255345, Note_on_c, 5, 55, 86
10, 258965, Note_off_c, 5, 55, 64
10, 258970, Note_off_c, 5, 48, 64
10, 259170, Note_on_c, 5, 48, 88
10, 259180, Note_on_c, 5, 55, 83
10, 260950, Control_c, 5, 11, 125
10, 261010, Control_c, 5, 11, 124
10, 261330, Control_c, 5, 11, 123
10, 261365, Control_c, 5, 11, 122
10, 261395, Control_c, 5, 11, 121
10, 261580, Control_c, 5, 11, 119
10, 261630, Control_c, 5, 11, 117
10, 262115, Control_c, 5, 11, 115
10, 262145, Control_c, 5, 11, 114
10, 262160, Note_off_c, 5, 55, 64
10, 262175, Control_c, 5, 11, 113
10, 262930, Note_off_c, 5, 48, 64
10, 262940, Control_c, 5, 11, 112
10, 263030, Note_on_c, 5, 46, 76
10, 263030, Note_on_c, 5, 53, 88
10, 263205, Control_c, 5, 11, 111
10, 263270, Control_c, 5, 11, 109
10, 263780, Control_c, 5, 11, 108
10, 263845, Control_c, 5, 11, 107
10, 264100, Control_c, 5, 11, 106
10, 264125, Control_c, 5, 11, 105
10, 264160, Control_c, 5, 11, 104
10, 264670, Control_c, 5, 11, 103
10, 264865, Control_c, 5, 11, 102
10, 264925, Control_c, 5, 11, 100
10, 264955, Control_c, 5, 11, 99
10, 265000, Control_c, 5, 11, 97
10, 265640, Control_c, 5, 11, 96
10, 265835, Control_c, 5, 11, 95
10, 265870, Control_c, 5, 11, 94
10, 266255, Control_c, 5, 11, 93
10, 266420, Control_c, 5, 11, 92
10, 266445, Control_c, 5, 11, 91
10, 266475, Control_c, 5, 11, 90
10, 266505, Control_c, 5, 11, 88
10, 266655, Note_off_c, 5, 46, 64
10, 266705, Note_off_c, 5, 53, 64
10, 266860, Note_on_c, 5, 46, 54
10, 266865, Note_on_c, 5, 53, 86
10, 266925, Control_c, 5, 11, 87
10, 266965, Control_c, 5, 11, 86
10, 266995, Control_c, 5, 11, 84
10, 267030, Control_c, 5, 11, 82
10, 267425, Control_c, 5, 11, 81
10, 267720, Control_c, 5, 11, 80
10, 267750, Control_c, 5, 11, 79
10, 267780, Control_c, 5, 11, 78
10, 267920, Control_c, 5, 11, 77
10, 267950, Control_c, 5, 11, 75
10, 267985, Control_c, 5, 11, 73
10, 268015, Control_c, 5, 11, 72
10, 268175, Control_c, 5, 11, 71
10, 268235, Control_c, 5, 11, 69
10, 268265, Control_c, 5, 11, 67
10, 268300, Control_c, 5, 11, 66
10, 268335, Control_c, 5, 11, 64
10, 268620, Control_c, 5, 11, 63
10, 268645, Control_c, 5, 11, 61
10, 268680, Control_c, 5, 11, 60
10, 268710, Control_c, 5, 11, 58
10, 268910, Control_c, 5, 11, 57
10, 268975, Control_c, 5, 11, 55
10, 269010, Control_c, 5, 11, 54
10, 269045, Control_c, 5, 11, 53
10, 269330, Control_c, 5, 11, 52
10, 269355, Control_c, 5, 11, 51
10, 269385, Control_c, 5, 11, 50
10, 269450, Control_c, 5, 11, 49
10, 269640, Control_c, 5, 11, 48
10, 269670, Control_c, 5, 11, 47
10, 269700, Control_c, 5, 11, 46
10, 269770, Control_c, 5, 11, 45
10, 270070, Control_c, 5, 11, 42
10, 270105, Control_c, 5, 11, 41
10, 270120, Note_off_c, 5, 46, 64
10, 270290, Control_c, 5, 11, 40
10, 270320, Control_c, 5, 11, 39
10, 270380, Control_c, 5, 11, 37
10, 270540, Control_c, 5, 11, 36
10, 270570, Control_c, 5, 11, 35
10, 270605, Control_c, 5, 11, 34
10, 270650, Note_off_c, 5, 53, 64
10, 270725, Note_on_c, 5, 48, 69
10, 270730, Note_on_c, 5, 55, 81
10, 270815, Control_c, 5, 11, 33
10, 270845, Control_c, 5, 11, 32
10, 270880, Control_c, 5, 11, 31
10, 270970, Control_c, 5, 11, 30
10, 271260, Control_c, 5, 11, 29
10, 271285, Control_c, 5, 11, 28
10, 271320, Control_c, 5, 11, 27
10, 271510, Control_c, 5, 11, 26
10, 271540, Control_c, 5, 11, 25
10, 271570, Control_c, 5, 11, 24
10, 271600, Control_c, 5, 11, 23
10, 271635, Control_c, 5, 11, 22
10, 271705, Control_c, 5, 11, 21
10, 271795, Control_c, 5, 11, 20
10, 271895, Control_c, 5, 11, 19
10, 271960, Control_c, 5, 11, 17
10, 271990, Control_c, 5, 11, 16
10, 272020, Control_c, 5, 11, 15
10, 272050, Control_c, 5, 11, 14
10, 272085, Control_c, 5, 11, 13
10, 272145, Control_c, 5, 11, 12
10, 272300, Control_c, 5, 11, 11
10, 272330, Control_c, 5, 11, 10
10, 272360, Control_c, 5, 11, 9
10, 272435, Control_c, 5, 11, 8
10, 272580, Control_c, 5, 11, 7
10, 272645, Control_c, 5, 11, 5
10, 272685, Control_c, 5, 11, 3
10, 272960, Control_c, 5, 11, 2
10, 273240, Control_c, 5, 11, 1
10, 273880, Control_c, 5, 11, 0
10, 274315, Note_off_c, 5, 48, 64
10, 274320, Note_off_c, 5, 55, 64
10, 274550, Note_on_c, 5, 48, 81
10, 274555, Note_on_c, 5, 55, 93
10, 277135, Pitch_bend_c, 5, 7970
10, 277145, Pitch_bend_c, 5, 6705
10, 277155, Pitch_bend_c, 5, 5636
10, 277165, Pitch_bend_c, 5, 5021
10, 277175, Pitch_bend_c, 5, 4843
10, 277190, Pitch_bend_c, 5, 4816
10, 277210, Pitch_bend_c, 5, 4910
10, 277220, Pitch_bend_c, 5, 5133
10, 277230, Pitch_bend_c, 5, 5466
10, 277240, Pitch_bend_c, 5, 5859
10, 277250, Pitch_bend_c, 5, 6416
10, 277265, Pitch_bend_c, 5, 7110
10, 277275, Pitch_bend_c, 5, 8037
10, 277285, Pitch_bend_c, 5, 8192
10, 277545, Pitch_bend_c, 5, 8041
10, 277555, Pitch_bend_c, 5, 6117
10, 277565, Pitch_bend_c, 5, 4335
10, 277575, Pitch_bend_c, 5, 3622
10, 277585, Pitch_bend_c, 5, 3573
10, 277595, Pitch_bend_c, 5, 3640
10, 277605, Pitch_bend_c, 5, 3983
10, 277620, Pitch_bend_c, 5, 4562
10, 277630, Pitch_bend_c, 5, 5222
10, 277640, Pitch_bend_c, 5, 5917
10, 277650, Pitch_bend_c, 5, 7039
10, 277660, Pitch_bend_c, 5, 8184
10, 277670, Pitch_bend_c, 5, 8192
10, 277920, Pitch_bend_c, 5, 7685
10, 277930, Pitch_bend_c, 5, 5689
10, 277940, Pitch_bend_c, 5, 3408
10, 277950, Pitch_bend_c, 5, 1591
10, 277960, Pitch_bend_c, 5, 736
10, 277975, Pitch_bend_c, 5, 704
10, 277985, Pitch_bend_c, 5, 771
10, 277995, Pitch_bend_c, 5, 1257
10, 278005, Pitch_bend_c, 5, 2112
10, 278015, Pitch_bend_c, 5, 2976
10, 278025, Pitch_bend_c, 5, 3974
10, 278040, Pitch_bend_c, 5, 5079
10, 278050, Pitch_bend_c, 5, 6433
10, 278060, Pitch_bend_c, 5, 7894
10, 278070, Pitch_bend_c, 5, 8192
10, 278355, Pitch_bend_c, 5, 7400
10, 278365, Pitch_bend_c, 5, 5048
10, 278380, Pitch_bend_c, 5, 2589
10, 278390, Pitch_bend_c, 5, 771
10, 278400, Pitch_bend_c, 5, 468
10, 278410, Pitch_bend_c, 5, 611
10, 278420, Pitch_bend_c, 5, 1043
10, 278430, Pitch_bend_c, 5, 1809
10, 278445, Pitch_bend_c, 5, 2682
10, 278455, Pitch_bend_c, 5, 3475
10, 278465, Pitch_bend_c, 5, 4509
10, 278475, Pitch_bend_c, 5, 5988
10, 278485, Pitch_bend_c, 5, 7823
10, 278495, Pitch_bend_c, 5, 8192
10, 278985, Control_c, 5, 1, 76
10, 279420, Control_c, 5, 1, 0
10, 279870, Note_off_c, 5, 48, 64
10, 279890, Note_off_c, 5, 55, 64
10, 279890, End_track
11, 0, Start_track
11, 0, Title_t, "Guitar 3"
11, 0, MIDI_port, 0
11, 0, Channel_prefix, 6
11, 0, Control_c, 6, 7, 109
11, 0, Control_c, 6, 10, 64
11, 0, Program_c, 6, 27
11, 0, Control_c, 6, 91, 100
11, 0, Control_c, 6, 93, 25
11, 1920, Note_on_c, 6, 57, 93
11, 2005, Control_c, 6, 64, 127
11, 2145, Note_on_c, 6, 48, 69
11, 2185, Note_off_c, 6, 57, 64
11, 2405, Note_on_c, 6, 53, 61
11, 2480, Note_off_c, 6, 48, 64
11, 2610, Note_off_c, 6, 53, 64
11, 2655, Note_on_c, 6, 58, 72
11, 3065, Note_off_c, 6, 58, 64
11, 3140, Note_on_c, 6, 48, 61
11, 3385, Note_off_c, 6, 48, 64
11, 3385, Note_on_c, 6, 53, 67
11, 3585, Note_on_c, 6, 58, 64
11, 3600, Note_off_c, 6, 53, 64
11, 3730, Note_off_c, 6, 58, 64
11, 3810, Control_c, 6, 64, 0
11, 3840, Note_on_c, 6, 57, 93
11, 4070, Note_on_c, 6, 48, 61
11, 4135, Control_c, 6, 64, 127
11, 4140, Note_off_c, 6, 57, 64
11, 4305, Note_on_c, 6, 53, 61
11, 4540, Note_off_c, 6, 48, 64
11, 4550, Note_off_c, 6, 53, 64
11, 4560, Note_on_c, 6, 55, 86
11, 5010, Note_off_c, 6, 55, 64
11, 5035, Note_on_c, 6, 57, 81
11, 5285, Note_on_c, 6, 55, 71
11, 5330, Note_off_c, 6, 57, 64
11, 5455, Note_off_c, 6, 55, 64
11, 5555, Note_on_c, 6, 53, 27
11, 5685, Note_off_c, 6, 53, 64
11, 5730, Control_c, 6, 64, 0
11, 5765, Note_on_c, 6, 57, 91
11, 6005, Note_on_c, 6, 48, 53
11, 6055, Note_off_c, 6, 57, 64
11, 6070, Control_c, 6, 64, 127
11, 6260, Note_on_c, 6, 53, 56
11, 6410, Note_off_c, 6, 48, 64
11, 6470, Note_off_c, 6, 53, 64
11, 6485, Note_on_c, 6, 58, 93
11, 6885, Control_c, 6, 1, 76
11, 7000, Note_on_c, 6, 48, 63
11, 7035, Control_c, 6, 1, 0
11, 7115, Note_off_c, 6, 58, 64
11, 7220, Note_on_c, 6, 53, 65
11, 7380, Note_off_c, 6, 48, 64
11, 7430, Note_off_c, 6, 53, 64
11, 7450, Note_on_c, 6, 58, 70
11, 7620, Note_off_c, 6, 58, 64
11, 7690, Control_c, 6, 64, 0
11, 7695, Note_on_c, 6, 57, 96
11, 7905, Control_c, 6, 64, 127
11, 7930, Note_on_c, 6, 48, 71
11, 7950, Note_off_c, 6, 57, 64
11, 8165, Note_on_c, 6, 53, 71
11, 8385, Note_off_c, 6, 48, 64
11, 8410, Note_on_c, 6, 55, 69
11, 8420, Note_off_c, 6, 53, 64
11, 8880, Note_on_c, 6, 57, 76
11, 8885, Note_off_c, 6, 55, 64
11, 9120, Note_on_c, 6, 55, 61
11, 9150, Note_off_c, 6, 57, 64
11, 9385, Note_on_c, 6, 53, 81
11, 9425, Note_off_c, 6, 55, 64
11, 9455, Control_c, 6, 64, 0
11, 12040, Control_c, 6, 64, 127
11, 12365, Note_off_c, 6, 53, 64
11, 13375, Control_c, 6, 64, 0
11, 13440, Note_on_c, 6, 57, 96
11, 13670, Note_on_c, 6, 48, 59
11, 13675, Control_c, 6, 64, 127
11, 13730, Note_off_c, 6, 57, 64
11, 13915, Note_on_c, 6, 53, 63
11, 14055, Note_off_c, 6, 48, 64
11, 14155, Note_on_c, 6, 58, 89
11, 14160, Note_off_c, 6, 53, 64
11, 14655, Note_on_c, 6, 48, 69
11, 14675, Note_off_c, 6, 58, 64
11, 14900, Note_on_c, 6, 53, 65
11, 15060, Note_off_c, 6, 48, 64
11, 15120, Note_off_c, 6, 53, 64
11, 15125, Note_on_c, 6, 58, 67
11, 15295, Note_off_c, 6, 58, 64
11, 15345, Control_c, 6, 64, 0
11, 15365, Note_on_c, 6, 57, 93
11, 15595, Note_on_c, 6, 48, 63
11, 15635, Note_off_c, 6, 57, 64
11, 15675, Control_c, 6, 64, 127
11, 15845, Note_on_c, 6, 53, 71
11, 16050, Note_off_c, 6, 53, 64
11, 16085, Note_on_c, 6, 55, 76
11, 16100, Note_off_c, 6, 48, 64
11, 16535, Note_off_c, 6, 55, 64
11, 16565, Note_on_c, 6, 57, 81
11, 16780, Note_off_c, 6, 57, 64
11, 16805, Note_on_c, 6, 55, 71
11, 17050, Note_on_c, 6, 53, 81
11, 17055, Note_off_c, 6, 55, 64
11, 17055, Control_c, 6, 64, 0
11, 17335, Control_c, 6, 64, 127
11, 17495, Control_c, 6, 64, 0
11, 20665, Note_off_c, 6, 53, 64
11, 21025, Control_c, 6, 64, 127
11, 21130, Note_on_c, 6, 57, 96
11, 21345, Note_off_c, 6, 57, 64
11, 21345, Note_on_c, 6, 48, 65
11, 21585, Note_on_c, 6, 53, 73
11, 21695, Note_off_c, 6, 48, 64
11, 21825, Note_off_c, 6, 53, 64
11, 21855, Note_on_c, 6, 58, 87
11, 21870, Control_c, 6, 64, 0
11, 22110, Control_c, 6, 64, 127
11, 22300, Note_on_c, 6, 48, 38
11, 22365, Note_off_c, 6, 58, 64
11, 22555, Note_on_c, 6, 53, 65
11, 22800, Note_off_c, 6, 53, 64
11, 22800, Note_on_c, 6, 58, 72
11, 22895, Note_off_c, 6, 48, 64
11, 22945, Note_off_c, 6, 58, 64
11, 23040, Note_on_c, 6, 57, 91
11, 23250, Note_off_c, 6, 57, 64
11, 23265, Note_on_c, 6, 48, 58
11, 23520, Note_off_c, 6, 48, 64
11, 23525, Note_on_c, 6, 57, 59
11, 23680, Note_off_c, 6, 57, 64
11, 23770, Note_on_c, 6, 55, 86
11, 24240, Note_on_c, 6, 57, 83
11, 24245, Note_off_c, 6, 55, 64
11, 24480, Note_on_c, 6, 55, 69
11, 24560, Note_off_c, 6, 57, 64
11, 24645, Control_c, 6, 64, 0
11, 24725, Note_on_c, 6, 53, 83
11, 24755, Note_off_c, 6, 55, 64
11, 27465, Note_off_c, 6, 53, 64
11, 28800, Note_on_c, 6, 57, 96
11, 28825, Control_c, 6, 64, 127
11, 29020, Note_off_c, 6, 57, 64
11, 29025, Note_on_c, 6, 48, 65
11, 29265, Note_on_c, 6, 53, 69
11, 29375, Note_off_c, 6, 48, 64
11, 29515, Note_off_c, 6, 53, 64
11, 29515, Note_on_c, 6, 58, 93
11, 30000, Note_off_c, 6, 58, 64
11, 30000, Note_on_c, 6, 48, 71
11, 30240, Note_on_c, 6, 53, 67
11, 30430, Note_off_c, 6, 48, 64
11, 30480, Note_on_c, 6, 58, 64
11, 30505, Note_off_c, 6, 53, 64
11, 30645, Note_off_c, 6, 58, 64
11, 30645, Control_c, 6, 64, 0
11, 30715, Note_on_c, 6, 57, 93
11, 30970, Note_on_c, 6, 48, 61
11, 31005, Note_off_c, 6, 57, 64
11, 31010, Control_c, 6, 64, 127
11, 31210, Note_on_c, 6, 53, 86
11, 31450, Note_on_c, 6, 55, 81
11, 31455, Note_off_c, 6, 48, 64
11, 31470, Note_off_c, 6, 53, 64
11, 31910, Note_off_c, 6, 55, 64
11, 31920, Note_on_c, 6, 57, 86
11, 32165, Note_on_c, 6, 55, 81
11, 32175, Note_off_c, 6, 57, 64
11, 32380, Control_c, 6, 64, 0
11, 32400, Note_on_c, 6, 53, 81
11, 32435, Note_off_c, 6, 55, 64
11, 35180, Note_off_c, 6, 53, 64
11, 36485, Note_on_c, 6, 57, 93
11, 36585, Control_c, 6, 64, 127
11, 36705, Note_on_c, 6, 48, 69
11, 36710, Note_off_c, 6, 57, 64
11, 36925, Note_on_c, 6, 53, 69
11, 37030, Note_off_c, 6, 48, 64
11, 37150, Note_off_c, 6, 53, 64
11, 37205, Note_on_c, 6, 58, 89
11, 37575, Note_off_c, 6, 58, 64
11, 37655, Note_on_c, 6, 48, 67
11, 37915, Note_on_c, 6, 53, 56
11, 38065, Note_off_c, 6, 48, 64
11, 38150, Note_off_c, 6, 53, 64
11, 38155, Note_on_c, 6, 58, 64
11, 38295, Note_off_c, 6, 58, 64
11, 38395, Note_on_c, 6, 57, 88
11, 38430, Control_c, 6, 64, 0
11, 38580, Control_c, 6, 64, 127
11, 38640, Note_on_c, 6, 48, 54
11, 38690, Note_off_c, 6, 57, 64
11, 38880, Note_on_c, 6, 53, 58
11, 39075, Note_off_c, 6, 48, 64
11, 39090, Note_off_c, 6, 53, 64
11, 39120, Note_on_c, 6, 55, 91
11, 39585, Note_off_c, 6, 55, 64
11, 39605, Note_on_c, 6, 57, 79
11, 39855, Note_off_c, 6, 57, 64
11, 39855, Note_on_c, 6, 55, 76
11, 40105, Note_on_c, 6, 53, 73
11, 40110, Control_c, 6, 64, 0
11, 40155, Note_off_c, 6, 55, 64
11, 41450, Note_off_c, 6, 53, 64
11, 44185, Note_on_c, 6, 57, 98
11, 44340, Control_c, 6, 64, 127
11, 44390, Note_on_c, 6, 48, 61
11, 44415, Note_off_c, 6, 57, 64
11, 44625, Note_on_c, 6, 53, 67
11, 44735, Note_off_c, 6, 48, 64
11, 44880, Note_off_c, 6, 53, 64
11, 44880, Note_on_c, 6, 58, 93
11, 45310, Note_on_c, 6, 48, 61
11, 45335, Note_off_c, 6, 58, 64
11, 45595, Note_on_c, 6, 53, 65
11, 45800, Note_off_c, 6, 48, 64
11, 45830, Note_off_c, 6, 53, 64
11, 45835, Note_on_c, 6, 58, 80
11, 46000, Note_off_c, 6, 58, 64
11, 46095, Note_on_c, 6, 57, 83
11, 46330, Note_on_c, 6, 48, 50
11, 46350, Note_off_c, 6, 57, 64
11, 46575, Note_on_c, 6, 53, 76
11, 46760, Note_off_c, 6, 53, 64
11, 46770, Note_off_c, 6, 48, 64
11, 46820, Note_on_c, 6, 55, 88
11, 46900, Control_c, 6, 64, 0
11, 47290, Note_on_c, 6, 57, 86
11, 47360, Note_off_c, 6, 55, 64
11, 47525, Note_on_c, 6, 55, 81
11, 47590, Note_off_c, 6, 57, 64
11, 47775, Note_on_c, 6, 53, 81
11, 47830, Note_off_c, 6, 55, 64
11, 50185, Note_off_c, 6, 53, 64
11, 51855, Note_on_c, 6, 57, 83
11, 51860, Control_c, 6, 64, 127
11, 52065, Note_off_c, 6, 57, 64
11, 52090, Note_on_c, 6, 48, 61
11, 52320, Note_on_c, 6, 53, 56
11, 52465, Note_off_c, 6, 48, 64
11, 52495, Note_off_c, 6, 53, 64
11, 52570, Note_on_c, 6, 58, 93
11, 52855, Note_off_c, 6, 58, 64
11, 53025, Note_on_c, 6, 48, 54
11, 53275, Note_off_c, 6, 48, 64
11, 53315, Note_on_c, 6, 53, 58
11, 53480, Note_off_c, 6, 53, 64
11, 53515, Note_on_c, 6, 58, 64
11, 53660, Note_off_c, 6, 58, 64
11, 53740, Control_c, 6, 64, 0
11, 53755, Note_on_c, 6, 57, 83
11, 53990, Note_on_c, 6, 48, 63
11, 54040, Note_off_c, 6, 57, 64
11, 54080, Control_c, 6, 64, 127
11, 54225, Note_on_c, 6, 53, 71
11, 54420, Note_off_c, 6, 53, 64
11, 54480, Note_on_c, 6, 55, 86
11, 54615, Control_c, 6, 64, 0
11, 54955, Note_on_c, 6, 57, 81
11, 54980, Note_off_c, 6, 55, 64
11, 55195, Note_on_c, 6, 55, 69
11, 55260, Note_off_c, 6, 57, 64
11, 55430, Note_on_c, 6, 53, 76
11, 55510, Note_off_c, 6, 55, 64
11, 55755, Note_off_c, 6, 48, 64
11, 55760, Note_off_c, 6, 53, 64
11, 56150, Note_on_c, 6, 64, 102
11, 56155, Note_on_c, 6, 55, 97
11, 56160, Note_on_c, 6, 60, 102
11, 56265, Note_off_c, 6, 55, 64
11, 56275, Note_off_c, 6, 60, 64
11, 56280, Note_off_c, 6, 64, 64
11, 57105, Note_on_c, 6, 55, 94
11, 57110, Note_on_c, 6, 60, 97
11, 57115, Note_on_c, 6, 64, 102
11, 57300, Note_off_c, 6, 64, 64
11, 57310, Note_off_c, 6, 60, 64
11, 57310, Note_off_c, 6, 55, 64
11, 58075, Note_on_c, 6, 55, 94
11, 58080, Note_on_c, 6, 60, 97
11, 58085, Note_on_c, 6, 64, 102
11, 58220, Note_off_c, 6, 55, 64
11, 58245, Note_off_c, 6, 64, 64
11, 58250, Note_off_c, 6, 60, 64
11, 59035, Note_on_c, 6, 55, 89
11, 59040, Note_on_c, 6, 60, 102
11, 59045, Note_on_c, 6, 64, 97
11, 59205, Note_off_c, 6, 64, 64
11, 59205, Note_off_c, 6, 55, 64
11, 59210, Note_off_c, 6, 60, 64
11, 59435, Control_c, 6, 64, 127
11, 59515, Note_on_c, 6, 55, 81
11, 59525, Note_on_c, 6, 64, 97
11, 59990, Note_off_c, 6, 64, 64
11, 60005, Note_on_c, 6, 60, 60
11, 60050, Note_off_c, 6, 55, 64
11, 60050, Note_off_c, 6, 60, 64
11, 60445, Control_c, 6, 64, 0
11, 60490, Note_on_c, 6, 58, 108
11, 60500, Note_on_c, 6, 62, 94
11, 60745, Control_c, 6, 64, 127
11, 60845, Note_off_c, 6, 58, 64
11, 60890, Note_off_c, 6, 62, 64
11, 61395, Control_c, 6, 64, 0
11, 61435, Note_on_c, 6, 60, 97
11, 61440, Note_on_c, 6, 57, 102
11, 62290, Control_c, 6, 64, 127
11, 62415, Note_on_c, 6, 53, 91
11, 62475, Note_off_c, 6, 57, 64
11, 62485, Note_off_c, 6, 60, 64
11, 62750, Note_off_c, 6, 53, 64
11, 63235, Control_c, 6, 64, 0
11, 63855, Note_on_c, 6, 58, 86
11, 63860, Note_on_c, 6, 62, 89
11, 63865, Note_on_c, 6, 65, 89
11, 64070, Note_off_c, 6, 65, 64
11, 64075, Note_off_c, 6, 58, 64
11, 64120, Note_off_c, 6, 62, 64
11, 64800, Note_on_c, 6, 58, 86
11, 64805, Note_on_c, 6, 62, 94
11, 64810, Note_on_c, 6, 65, 91
11, 65000, Note_off_c, 6, 65, 64
11, 65025, Note_off_c, 6, 58, 64
11, 65090, Note_off_c, 6, 62, 64
11, 65755, Note_on_c, 6, 62, 86
11, 65760, Note_on_c, 6, 58, 86
11, 65760, Note_on_c, 6, 65, 86
11, 65960, Note_off_c, 6, 65, 64
11, 65970, Note_off_c, 6, 58, 64
11, 65995, Note_off_c, 6, 62, 64
11, 66730, Note_on_c, 6, 58, 82
11, 66735, Note_on_c, 6, 62, 84
11, 66740, Note_on_c, 6, 65, 89
11, 66930, Note_off_c, 6, 58, 64
11, 66940, Note_off_c, 6, 65, 64
11, 66995, Note_off_c, 6, 62, 64
11, 67685, Note_on_c, 6, 62, 86
11, 67690, Note_on_c, 6, 58, 82
11, 67695, Note_on_c, 6, 65, 91
11, 67850, Note_off_c, 6, 58, 64
11, 67885, Note_off_c, 6, 65, 64
11, 67975, Note_off_c, 6, 62, 64
11, 68650, Note_on_c, 6, 58, 90
11, 68655, Note_on_c, 6, 62, 91
11, 68660, Note_on_c, 6, 65, 91
11, 68845, Note_off_c, 6, 58, 64
11, 68865, Note_off_c, 6, 65, 64
11, 68975, Note_off_c, 6, 62, 64
11, 69595, Note_on_c, 6, 58, 86
11, 69600, Note_on_c, 6, 62, 86
11, 69605, Note_on_c, 6, 65, 91
11, 69775, Note_off_c, 6, 65, 64
11, 69800, Note_off_c, 6, 58, 64
11, 69840, Note_off_c, 6, 62, 64
11, 70550, Note_on_c, 6, 58, 82
11, 70550, Note_on_c, 6, 62, 91
11, 70555, Note_on_c, 6, 65, 91
11, 70700, Note_off_c, 6, 58, 64
11, 70805, Note_off_c, 6, 65, 64
11, 70845, Note_off_c, 6, 62, 64
11, 71515, Note_on_c, 6, 64, 97
11, 71520, Note_on_c, 6, 67, 91
11, 71525, Note_on_c, 6, 60, 94
11, 71740, Note_off_c, 6, 60, 64
11, 71750, Note_off_c, 6, 67, 64
11, 71770, Note_off_c, 6, 64, 64
11, 72485, Note_on_c, 6, 64, 97
11, 72490, Note_on_c, 6, 60, 94
11, 72495, Note_on_c, 6, 67, 89
11, 72700, Note_off_c, 6, 67, 64
11, 72710, Note_off_c, 6, 64, 64
11, 72720, Note_off_c, 6, 60, 64
11, 73425, Note_on_c, 6, 64, 94
11, 73430, Note_on_c, 6, 55, 89
11, 73435, Note_on_c, 6, 60, 97
11, 73630, Note_off_c, 6, 55, 64
11, 73650, Note_off_c, 6, 64, 64
11, 73665, Note_off_c, 6, 60, 64
11, 74385, Note_on_c, 6, 60, 94
11, 74385, Note_on_c, 6, 64, 89
11, 74390, Note_on_c, 6, 55, 79
11, 74580, Note_off_c, 6, 55, 64
11, 74585, Note_off_c, 6, 64, 64
11, 74590, Note_off_c, 6, 60, 64
11, 74850, Note_on_c, 6, 55, 84
11, 74860, Note_on_c, 6, 64, 97
11, 74925, Control_c, 6, 64, 127
11, 75305, Note_off_c, 6, 64, 64
11, 75355, Note_on_c, 6, 60, 42
11, 75375, Note_off_c, 6, 55, 64
11, 75400, Note_off_c, 6, 60, 64
11, 75705, Control_c, 6, 64, 0
11, 75855, Note_on_c, 6, 58, 103
11, 75860, Note_on_c, 6, 62, 97
11, 76005, Control_c, 6, 64, 127
11, 76165, Note_off_c, 6, 58, 64
11, 76200, Note_off_c, 6, 62, 64
11, 76660, Control_c, 6, 64, 0
11, 76805, Note_on_c, 6, 60, 94
11, 76810, Note_on_c, 6, 57, 97
11, 76900, Control_c, 6, 64, 127
11, 77765, Note_on_c, 6, 53, 86
11, 77865, Note_off_c, 6, 57, 64
11, 77865, Note_off_c, 6, 60, 64
11, 77915, Note_off_c, 6, 53, 64
11, 78565, Control_c, 6, 64, 0
11, 79200, Note_on_c, 6, 58, 94
11, 79200, Note_on_c, 6, 62, 86
11, 79205, Note_on_c, 6, 65, 89
11, 79425, Note_off_c, 6, 65, 64
11, 79425, Note_off_c, 6, 58, 64
11, 79470, Note_off_c, 6, 62, 64
11, 80160, Note_on_c, 6, 58, 86
11, 80160, Note_on_c, 6, 62, 86
11, 80165, Note_on_c, 6, 65, 89
11, 80375, Note_off_c, 6, 65, 64
11, 80375, Note_off_c, 6, 58, 64
11, 80430, Note_off_c, 6, 62, 64
11, 81110, Note_on_c, 6, 58, 82
11, 81115, Note_on_c, 6, 62, 86
11, 81120, Note_on_c, 6, 65, 86
11, 81595, Control_c, 6, 64, 127
11, 81680, Note_off_c, 6, 58, 64
11, 82035, Note_off_c, 6, 65, 64
11, 82045, Note_off_c, 6, 62, 64
11, 82060, Note_on_c, 6, 58, 63
11, 82130, Note_off_c, 6, 58, 64
11, 82490, Control_c, 6, 64, 0
11, 82540, Note_on_c, 6, 60, 97
11, 82870, Control_c, 6, 64, 127
11, 83035, Note_on_c, 6, 53, 74
11, 83080, Note_off_c, 6, 60, 64
11, 83285, Note_on_c, 6, 57, 94
11, 83690, Note_off_c, 6, 57, 64
11, 83760, Note_on_c, 6, 57, 52
11, 83765, Note_on_c, 6, 60, 81
11, 83810, Note_off_c, 6, 53, 64
11, 83885, Note_off_c, 6, 57, 64
11, 83980, Note_off_c, 6, 60, 64
11, 84000, Note_on_c, 6, 53, 51
11, 84025, Note_on_c, 6, 60, 7
11, 84235, Control_c, 6, 64, 0
11, 84320, Note_off_c, 6, 60, 64
11, 84325, Note_off_c, 6, 53, 64
11, 84465, Note_on_c, 6, 60, 97
11, 84465, Note_on_c, 6, 53, 91
11, 84470, Note_on_c, 6, 55, 97
11, 85410, Control_c, 6, 1, 76
11, 85955, Note_off_c, 6, 53, 64
11, 86290, Note_off_c, 6, 55, 64
11, 86290, Control_c, 6, 1, 0
11, 86325, Note_off_c, 6, 60, 64
11, 86400, Note_on_c, 6, 57, 93
11, 86485, Control_c, 6, 64, 127
11, 86625, Note_on_c, 6, 48, 69
11, 86665, Note_off_c, 6, 57, 64
11, 86885, Note_on_c, 6, 53, 61
11, 86960, Note_off_c, 6, 48, 64
11, 87090, Note_off_c, 6, 53, 64
11, 87135, Note_on_c, 6, 58, 72
11, 87545, Note_off_c, 6, 58, 64
11, 87620, Note_on_c, 6, 48, 61
11, 87865, Note_off_c, 6, 48, 64
11, 87865, Note_on_c, 6, 53, 67
11, 88065, Note_on_c, 6, 58, 64
11, 88080, Note_off_c, 6, 53, 64
11, 88210, Note_off_c, 6, 58, 64
11, 88290, Control_c, 6, 64, 0
11, 88320, Note_on_c, 6, 57, 93
11, 88550, Note_on_c, 6, 48, 61
11, 88615, Control_c, 6, 64, 127
11, 88620, Note_off_c, 6, 57, 64
11, 88785, Note_on_c, 6, 53, 61
11, 89020, Note_off_c, 6, 48, 64
11, 89030, Note_off_c, 6, 53, 64
11, 89040, Note_on_c, 6, 55, 86
11, 89490, Note_off_c, 6, 55, 64
11, 89515, Note_on_c, 6, 57, 81
11, 89765, Note_on_c, 6, 55, 71
11, 89810, Note_off_c, 6, 57, 64
11, 89935, Note_off_c, 6, 55, 64
11, 90035, Note_on_c, 6, 53, 27
11, 90165, Note_off_c, 6, 53, 64
11, 90210, Control_c, 6, 64, 0
11, 90245, Note_on_c, 6, 57, 91
11, 90485, Note_on_c, 6, 48, 53
11, 90535, Note_off_c, 6, 57, 64
11, 90550, Control_c, 6, 64, 127
11, 90740, Note_on_c, 6, 53, 56
11, 90890, Note_off_c, 6, 48, 64
11, 90950, Note_off_c, 6, 53, 64
11, 90965, Note_on_c, 6, 58, 93
11, 91365, Control_c, 6, 1, 76
11, 91480, Note_on_c, 6, 48, 63
11, 91515, Control_c, 6, 1, 0
11, 91595, Note_off_c, 6, 58, 64
11, 91700, Note_on_c, 6, 53, 65
11, 91860, Note_off_c, 6, 48, 64
11, 91910, Note_off_c, 6, 53, 64
11, 91930, Note_on_c, 6, 58, 70
11, 92100, Note_off_c, 6, 58, 64
11, 92170, Control_c, 6, 64, 0
11, 92175, Note_on_c, 6, 57, 96
11, 92385, Control_c, 6, 64, 127
11, 92410, Note_on_c, 6, 48, 71
11, 92430, Note_off_c, 6, 57, 64
11, 92645, Note_on_c, 6, 53, 71
11, 92865, Note_off_c, 6, 48, 64
11, 92890, Note_on_c, 6, 55, 69
11, 92900, Note_off_c, 6, 53, 64
11, 93360, Note_on_c, 6, 57, 76
11, 93365, Note_off_c, 6, 55, 64
11, 93600, Note_on_c, 6, 55, 61
11, 93630, Note_off_c, 6, 57, 64
11, 93865, Note_on_c, 6, 53, 81
11, 93905, Note_off_c, 6, 55, 64
11, 93935, Control_c, 6, 64, 0
11, 96845, Note_off_c, 6, 53, 64
11, 97920, Note_on_c, 6, 57, 96
11, 97945, Control_c, 6, 64, 127
11, 98140, Note_off_c, 6, 57, 64
11, 98145, Note_on_c, 6, 48, 65
11, 98385, Note_on_c, 6, 53, 69
11, 98495, Note_off_c, 6, 48, 64
11, 98635, Note_off_c, 6, 53, 64
11, 98635, Note_on_c, 6, 58, 93
11, 99120, Note_off_c, 6, 58, 64
11, 99120, Note_on_c, 6, 48, 71
11, 99360, Note_on_c, 6, 53, 67
11, 99550, Note_off_c, 6, 48, 64
11, 99600, Note_on_c, 6, 58, 64
11, 99625, Note_off_c, 6, 53, 64
11, 99765, Note_off_c, 6, 58, 64
11, 99765, Control_c, 6, 64, 0
11, 99835, Note_on_c, 6, 57, 93
11, 100090, Note_on_c, 6, 48, 61
11, 100125, Note_off_c, 6, 57, 64
11, 100130, Control_c, 6, 64, 127
11, 100330, Note_on_c, 6, 53, 86
11, 100570, Note_on_c, 6, 55, 81
11, 100575, Note_off_c, 6, 48, 64
11, 100590, Note_off_c, 6, 53, 64
11, 101030, Note_off_c, 6, 55, 64
11, 101040, Note_on_c, 6, 57, 86
11, 101285, Note_on_c, 6, 55, 81
11, 101295, Note_off_c, 6, 57, 64
11, 101500, Control_c, 6, 64, 0
11, 101520, Note_on_c, 6, 53, 81
11, 101555, Note_off_c, 6, 55, 64
11, 104300, Note_off_c, 6, 53, 64
11, 105605, Note_on_c, 6, 57, 93
11, 105705, Control_c, 6, 64, 127
11, 105825, Note_on_c, 6, 48, 69
11, 105830, Note_off_c, 6, 57, 64
11, 106045, Note_on_c, 6, 53, 69
11, 106150, Note_off_c, 6, 48, 64
11, 106270, Note_off_c, 6, 53, 64
11, 106325, Note_on_c, 6, 58, 89
11, 106695, Note_off_c, 6, 58, 64
11, 106775, Note_on_c, 6, 48, 67
11, 107035, Note_on_c, 6, 53, 56
11, 107185, Note_off_c, 6, 48, 64
11, 107270, Note_off_c, 6, 53, 64
11, 107275, Note_on_c, 6, 58, 64
11, 107415, Note_off_c, 6, 58, 64
11, 107515, Note_on_c, 6, 57, 88
11, 107550, Control_c, 6, 64, 0
11, 107700, Control_c, 6, 64, 127
11, 107760, Note_on_c, 6, 48, 54
11, 107810, Note_off_c, 6, 57, 64
11, 108000, Note_on_c, 6, 53, 58
11, 108195, Note_off_c, 6, 48, 64
11, 108210, Note_off_c, 6, 53, 64
11, 108240, Note_on_c, 6, 55, 91
11, 108705, Note_off_c, 6, 55, 64
11, 108725, Note_on_c, 6, 57, 79
11, 108975, Note_off_c, 6, 57, 64
11, 108975, Note_on_c, 6, 55, 76
11, 109225, Note_on_c, 6, 53, 73
11, 109230, Control_c, 6, 64, 0
11, 109275, Note_off_c, 6, 55, 64
11, 110570, Note_off_c, 6, 53, 64
11, 113305, Note_on_c, 6, 57, 98
11, 113460, Control_c, 6, 64, 127
11, 113510, Note_on_c, 6, 48, 61
11, 113535, Note_off_c, 6, 57, 64
11, 113745, Note_on_c, 6, 53, 67
11, 113855, Note_off_c, 6, 48, 64
11, 114000, Note_off_c, 6, 53, 64
11, 114000, Note_on_c, 6, 58, 93
11, 114430, Note_on_c, 6, 48, 61
11, 114455, Note_off_c, 6, 58, 64
11, 114715, Note_on_c, 6, 53, 65
11, 114920, Note_off_c, 6, 48, 64
11, 114950, Note_off_c, 6, 53, 64
11, 114955, Note_on_c, 6, 58, 80
11, 115120, Note_off_c, 6, 58, 64
11, 115215, Note_on_c, 6, 57, 83
11, 115450, Note_on_c, 6, 48, 50
11, 115470, Note_off_c, 6, 57, 64
11, 115695, Note_on_c, 6, 53, 76
11, 115880, Note_off_c, 6, 53, 64
11, 115890, Note_off_c, 6, 48, 64
11, 115940, Note_on_c, 6, 55, 88
11, 116020, Control_c, 6, 64, 0
11, 116410, Note_on_c, 6, 57, 86
11, 116480, Note_off_c, 6, 55, 64
11, 116645, Note_on_c, 6, 55, 81
11, 116710, Note_off_c, 6, 57, 64
11, 116895, Note_on_c, 6, 53, 81
11, 116950, Note_off_c, 6, 55, 64
11, 119305, Note_off_c, 6, 53, 64
11, 120975, Note_on_c, 6, 57, 83
11, 120980, Control_c, 6, 64, 127
11, 121185, Note_off_c, 6, 57, 64
11, 121210, Note_on_c, 6, 48, 61
11, 121440, Note_on_c, 6, 53, 56
11, 121585, Note_off_c, 6, 48, 64
11, 121615, Note_off_c, 6, 53, 64
11, 121690, Note_on_c, 6, 58, 93
11, 121975, Note_off_c, 6, 58, 64
11, 122145, Note_on_c, 6, 48, 54
11, 122395, Note_off_c, 6, 48, 64
11, 122435, Note_on_c, 6, 53, 58
11, 122600, Note_off_c, 6, 53, 64
11, 122635, Note_on_c, 6, 58, 64
11, 122780, Note_off_c, 6, 58, 64
11, 122860, Control_c, 6, 64, 0
11, 122875, Note_on_c, 6, 57, 83
11, 123110, Note_on_c, 6, 48, 63
11, 123160, Note_off_c, 6, 57, 64
11, 123200, Control_c, 6, 64, 127
11, 123345, Note_on_c, 6, 53, 71
11, 123540, Note_off_c, 6, 53, 64
11, 123600, Note_on_c, 6, 55, 86
11, 123735, Control_c, 6, 64, 0
11, 124075, Note_on_c, 6, 57, 81
11, 124100, Note_off_c, 6, 55, 64
11, 124315, Note_on_c, 6, 55, 69
11, 124380, Note_off_c, 6, 57, 64
11, 124550, Note_on_c, 6, 53, 76
11, 124630, Note_off_c, 6, 55, 64
11, 124875, Note_off_c, 6, 48, 64
11, 124880, Note_off_c, 6, 53, 64
11, 125270, Note_on_c, 6, 64, 102
11, 125275, Note_on_c, 6, 55, 97
11, 125280, Note_on_c, 6, 60, 102
11, 125385, Note_off_c, 6, 55, 64
11, 125395, Note_off_c, 6, 60, 64
11, 125400, Note_off_c, 6, 64, 64
11, 126225, Note_on_c, 6, 55, 94
11, 126230, Note_on_c, 6, 60, 97
11, 126235, Note_on_c, 6, 64, 102
11, 126420, Note_off_c, 6, 64, 64
11, 126430, Note_off_c, 6, 60, 64
11, 126430, Note_off_c, 6, 55, 64
11, 127195, Note_on_c, 6, 55, 94
11, 127200, Note_on_c, 6, 60, 97
11, 127205, Note_on_c, 6, 64, 102
11, 127340, Note_off_c, 6, 55, 64
11, 127365, Note_off_c, 6, 64, 64
11, 127370, Note_off_c, 6, 60, 64
11, 128155, Note_on_c, 6, 55, 89
11, 128160, Note_on_c, 6, 60, 102
11, 128165, Note_on_c, 6, 64, 97
11, 128325, Note_off_c, 6, 64, 64
11, 128325, Note_off_c, 6, 55, 64
11, 128330, Note_off_c, 6, 60, 64
11, 128555, Control_c, 6, 64, 127
11, 128635, Note_on_c, 6, 55, 81
11, 128645, Note_on_c, 6, 64, 97
11, 129110, Note_off_c, 6, 64, 64
11, 129125, Note_on_c, 6, 60, 60
11, 129170, Note_off_c, 6, 55, 64
11, 129170, Note_off_c, 6, 60, 64
11, 129565, Control_c, 6, 64, 0
11, 129610, Note_on_c, 6, 58, 108
11, 129620, Note_on_c, 6, 62, 94
11, 129865, Control_c, 6, 64, 127
11, 129965, Note_off_c, 6, 58, 64
11, 130010, Note_off_c, 6, 62, 64
11, 130515, Control_c, 6, 64, 0
11, 130555, Note_on_c, 6, 60, 97
11, 130560, Note_on_c, 6, 57, 102
11, 131410, Control_c, 6, 64, 127
11, 131535, Note_on_c, 6, 53, 91
11, 131595, Note_off_c, 6, 57, 64
11, 131605, Note_off_c, 6, 60, 64
11, 131870, Note_off_c, 6, 53, 64
11, 132355, Control_c, 6, 64, 0
11, 132975, Note_on_c, 6, 58, 86
11, 132980, Note_on_c, 6, 62, 89
11, 132985, Note_on_c, 6, 65, 89
11, 133190, Note_off_c, 6, 65, 64
11, 133195, Note_off_c, 6, 58, 64
11, 133240, Note_off_c, 6, 62, 64
11, 133920, Note_on_c, 6, 58, 86
11, 133925, Note_on_c, 6, 62, 94
11, 133930, Note_on_c, 6, 65, 91
11, 134120, Note_off_c, 6, 65, 64
11, 134145, Note_off_c, 6, 58, 64
11, 134210, Note_off_c, 6, 62, 64
11, 134875, Note_on_c, 6, 62, 86
11, 134880, Note_on_c, 6, 58, 86
11, 134880, Note_on_c, 6, 65, 86
11, 135080, Note_off_c, 6, 65, 64
11, 135090, Note_off_c, 6, 58, 64
11, 135115, Note_off_c, 6, 62, 64
11, 135850, Note_on_c, 6, 58, 82
11, 135855, Note_on_c, 6, 62, 84
11, 135860, Note_on_c, 6, 65, 89
11, 136050, Note_off_c, 6, 58, 64
11, 136060, Note_off_c, 6, 65, 64
11, 136115, Note_off_c, 6, 62, 64
11, 136805, Note_on_c, 6, 62, 86
11, 136810, Note_on_c, 6, 58, 82
11, 136815, Note_on_c, 6, 65, 91
11, 136970, Note_off_c, 6, 58, 64
11, 137005, Note_off_c, 6, 65, 64
11, 137095, Note_off_c, 6, 62, 64
11, 137770, Note_on_c, 6, 58, 90
11, 137775, Note_on_c, 6, 62, 91
11, 137780, Note_on_c, 6, 65, 91
11, 137965, Note_off_c, 6, 58, 64
11, 137985, Note_off_c, 6, 65, 64
11, 138095, Note_off_c, 6, 62, 64
11, 138715, Note_on_c, 6, 58, 86
11, 138720, Note_on_c, 6, 62, 86
11, 138725, Note_on_c, 6, 65, 91
11, 138895, Note_off_c, 6, 65, 64
11, 138920, Note_off_c, 6, 58, 64
11, 138960, Note_off_c, 6, 62, 64
11, 139670, Note_on_c, 6, 58, 82
11, 139670, Note_on_c, 6, 62, 91
11, 139675, Note_on_c, 6, 65, 91
11, 139820, Note_off_c, 6, 58, 64
11, 139925, Note_off_c, 6, 65, 64
11, 139965, Note_off_c, 6, 62, 64
11, 140635, Note_on_c, 6, 64, 97
11, 140640, Note_on_c, 6, 67, 91
11, 140645, Note_on_c, 6, 60, 94
11, 140860, Note_off_c, 6, 60, 64
11, 140870, Note_off_c, 6, 67, 64
11, 140890, Note_off_c, 6, 64, 64
11, 141605, Note_on_c, 6, 64, 97
11, 141610, Note_on_c, 6, 60, 94
11, 141615, Note_on_c, 6, 67, 89
11, 141820, Note_off_c, 6, 67, 64
11, 141830, Note_off_c, 6, 64, 64
11, 141840, Note_off_c, 6, 60, 64
11, 142545, Note_on_c, 6, 64, 94
11, 142550, Note_on_c, 6, 55, 89
11, 142555, Note_on_c, 6, 60, 97
11, 142750, Note_off_c, 6, 55, 64
11, 142770, Note_off_c, 6, 64, 64
11, 142785, Note_off_c, 6, 60, 64
11, 143505, Note_on_c, 6, 60, 94
11, 143505, Note_on_c, 6, 64, 89
11, 143510, Note_on_c, 6, 55, 79
11, 143700, Note_off_c, 6, 55, 64
11, 143705, Note_off_c, 6, 64, 64
11, 143710, Note_off_c, 6, 60, 64
11, 143970, Note_on_c, 6, 55, 84
11, 143980, Note_on_c, 6, 64, 97
11, 144045, Control_c, 6, 64, 127
11, 144425, Note_off_c, 6, 64, 64
11, 144475, Note_on_c, 6, 60, 42
11, 144495, Note_off_c, 6, 55, 64
11, 144520, Note_off_c, 6, 60, 64
11, 144825, Control_c, 6, 64, 0
11, 144975, Note_on_c, 6, 58, 103
11, 144980, Note_on_c, 6, 62, 97
11, 145125, Control_c, 6, 64, 127
11, 145285, Note_off_c, 6, 58, 64
11, 145320, Note_off_c, 6, 62, 64
11, 145780, Control_c, 6, 64, 0
11, 145925, Note_on_c, 6, 60, 94
11, 145930, Note_on_c, 6, 57, 97
11, 146020, Control_c, 6, 64, 127
11, 146885, Note_on_c, 6, 53, 86
11, 146985, Note_off_c, 6, 57, 64
11, 146985, Note_off_c, 6, 60, 64
11, 147035, Note_off_c, 6, 53, 64
11, 147685, Control_c, 6, 64, 0
11, 148320, Note_on_c, 6, 58, 94
11, 148320, Note_on_c, 6, 62, 86
11, 148325, Note_on_c, 6, 65, 89
11, 148545, Note_off_c, 6, 65, 64
11, 148545, Note_off_c, 6, 58, 64
11, 148590, Note_off_c, 6, 62, 64
11, 149280, Note_on_c, 6, 58, 86
11, 149280, Note_on_c, 6, 62, 86
11, 149285, Note_on_c, 6, 65, 89
11, 149495, Note_off_c, 6, 65, 64
11, 149495, Note_off_c, 6, 58, 64
11, 149550, Note_off_c, 6, 62, 64
11, 150230, Note_on_c, 6, 58, 82
11, 150235, Note_on_c, 6, 62, 86
11, 150240, Note_on_c, 6, 65, 86
11, 150715, Control_c, 6, 64, 127
11, 150800, Note_off_c, 6, 58, 64
11, 151155, Note_off_c, 6, 65, 64
11, 151165, Note_off_c, 6, 62, 64
11, 151180, Note_on_c, 6, 58, 63
11, 151250, Note_off_c, 6, 58, 64
11, 151610, Control_c, 6, 64, 0
11, 151660, Note_on_c, 6, 60, 97
11, 151990, Control_c, 6, 64, 127
11, 152155, Note_on_c, 6, 53, 74
11, 152200, Note_off_c, 6, 60, 64
11, 152405, Note_on_c, 6, 57, 94
11, 152810, Note_off_c, 6, 57, 64
11, 152880, Note_on_c, 6, 57, 52
11, 152885, Note_on_c, 6, 60, 81
11, 152930, Note_off_c, 6, 53, 64
11, 153005, Note_off_c, 6, 57, 64
11, 153100, Note_off_c, 6, 60, 64
11, 153120, Note_on_c, 6, 53, 51
11, 153145, Note_on_c, 6, 60, 7
11, 153355, Control_c, 6, 64, 0
11, 153440, Note_off_c, 6, 60, 64
11, 153445, Note_off_c, 6, 53, 64
11, 153585, Note_on_c, 6, 60, 97
11, 153585, Note_on_c, 6, 53, 91
11, 153590, Note_on_c, 6, 55, 97
11, 154530, Control_c, 6, 1, 76
11, 155075, Note_off_c, 6, 53, 64
11, 155410, Note_off_c, 6, 55, 64
11, 155410, Control_c, 6, 1, 0
11, 155445, Note_off_c, 6, 60, 64
11, 155520, Note_on_c, 6, 57, 93
11, 155605, Control_c, 6, 64, 127
11, 155745, Note_on_c, 6, 48, 69
11, 155785, Note_off_c, 6, 57, 64
11, 156005, Note_on_c, 6, 53, 61
11, 156080, Note_off_c, 6, 48, 64
11, 156210, Note_off_c, 6, 53, 64
11, 156255, Note_on_c, 6, 58, 72
11, 156665, Note_off_c, 6, 58, 64
11, 156740, Note_on_c, 6, 48, 61
11, 156985, Note_off_c, 6, 48, 64
11, 156985, Note_on_c, 6, 53, 67
11, 157185, Note_on_c, 6, 58, 64
11, 157200, Note_off_c, 6, 53, 64
11, 157330, Note_off_c, 6, 58, 64
11, 157410, Control_c, 6, 64, 0
11, 157440, Note_on_c, 6, 57, 93
11, 157670, Note_on_c, 6, 48, 61
11, 157735, Control_c, 6, 64, 127
11, 157740, Note_off_c, 6, 57, 64
11, 157905, Note_on_c, 6, 53, 61
11, 158140, Note_off_c, 6, 48, 64
11, 158150, Note_off_c, 6, 53, 64
11, 158160, Note_on_c, 6, 55, 86
11, 158610, Note_off_c, 6, 55, 64
11, 158635, Note_on_c, 6, 57, 81
11, 158885, Note_on_c, 6, 55, 71
11, 158930, Note_off_c, 6, 57, 64
11, 159055, Note_off_c, 6, 55, 64
11, 159155, Note_on_c, 6, 53, 27
11, 159285, Note_off_c, 6, 53, 64
11, 159330, Control_c, 6, 64, 0
11, 159365, Note_on_c, 6, 57, 91
11, 159605, Note_on_c, 6, 48, 53
11, 159655, Note_off_c, 6, 57, 64
11, 159670, Control_c, 6, 64, 127
11, 159860, Note_on_c, 6, 53, 56
11, 160010, Note_off_c, 6, 48, 64
11, 160070, Note_off_c, 6, 53, 64
11, 160085, Note_on_c, 6, 58, 93
11, 160485, Control_c, 6, 1, 76
11, 160600, Note_on_c, 6, 48, 63
11, 160635, Control_c, 6, 1, 0
11, 160715, Note_off_c, 6, 58, 64
11, 160820, Note_on_c, 6, 53, 65
11, 160980, Note_off_c, 6, 48, 64
11, 161030, Note_off_c, 6, 53, 64
11, 161050, Note_on_c, 6, 58, 70
11, 161220, Note_off_c, 6, 58, 64
11, 161290, Control_c, 6, 64, 0
11, 161295, Note_on_c, 6, 57, 96
11, 161505, Control_c, 6, 64, 127
11, 161530, Note_on_c, 6, 48, 71
11, 161550, Note_off_c, 6, 57, 64
11, 161765, Note_on_c, 6, 53, 71
11, 161985, Note_off_c, 6, 48, 64
11, 162010, Note_on_c, 6, 55, 69
11, 162020, Note_off_c, 6, 53, 64
11, 162480, Note_on_c, 6, 57, 76
11, 162485, Note_off_c, 6, 55, 64
11, 162720, Note_on_c, 6, 55, 61
11, 162750, Note_off_c, 6, 57, 64
11, 162985, Note_on_c, 6, 53, 81
11, 163025, Note_off_c, 6, 55, 64
11, 163055, Control_c, 6, 64, 0
11, 163315, Note_off_c, 6, 53, 64
11, 216965, Note_on_c, 6, 69, 91
11, 217185, Note_off_c, 6, 69, 64
11, 217200, Control_c, 6, 64, 127
11, 217210, Note_on_c, 6, 60, 59
11, 217430, Note_on_c, 6, 65, 65
11, 217530, Note_off_c, 6, 60, 64
11, 217600, Note_off_c, 6, 65, 64
11, 217680, Note_on_c, 6, 70, 80
11, 218150, Note_off_c, 6, 70, 64
11, 218170, Note_on_c, 6, 60, 73
11, 218395, Note_on_c, 6, 65, 71
11, 218590, Note_off_c, 6, 65, 64
11, 218610, Note_off_c, 6, 60, 64
11, 218630, Note_on_c, 6, 70, 76
11, 218745, Note_off_c, 6, 70, 64
11, 218875, Note_on_c, 6, 69, 88
11, 218905, Control_c, 6, 64, 0
11, 219065, Control_c, 6, 64, 127
11, 219110, Note_on_c, 6, 60, 76
11, 219235, Note_off_c, 6, 69, 64
11, 219370, Note_on_c, 6, 65, 31
11, 219475, Note_off_c, 6, 65, 64
11, 219600, Note_on_c, 6, 67, 83
11, 219720, Control_c, 6, 64, 0
11, 219910, Note_off_c, 6, 60, 64
11, 220075, Note_on_c, 6, 60, 73
11, 220310, Note_on_c, 6, 65, 81
11, 220745, Note_off_c, 6, 60, 64
11, 220750, Note_off_c, 6, 65, 64
11, 220760, Note_off_c, 6, 67, 64
11, 251510, Control_c, 6, 64, 127
11, 251525, Note_on_c, 6, 69, 88
11, 251740, Note_off_c, 6, 69, 64
11, 251765, Note_on_c, 6, 60, 73
11, 251990, Note_on_c, 6, 65, 81
11, 252055, Note_off_c, 6, 60, 64
11, 252160, Note_off_c, 6, 65, 64
11, 252250, Note_on_c, 6, 70, 93
11, 252585, Note_off_c, 6, 70, 64
11, 252720, Note_on_c, 6, 60, 79
11, 252870, Note_off_c, 6, 60, 64
11, 252955, Note_on_c, 6, 65, 67
11, 253095, Note_off_c, 6, 65, 64
11, 253185, Note_on_c, 6, 70, 80
11, 253280, Note_off_c, 6, 70, 64
11, 253445, Note_on_c, 6, 69, 83
11, 253675, Note_on_c, 6, 60, 63
11, 253685, Note_off_c, 6, 69, 64
11, 253910, Note_on_c, 6, 65, 67
11, 254055, Note_off_c, 6, 65, 64
11, 254165, Note_on_c, 6, 67, 83
11, 254280, Control_c, 6, 64, 0
11, 254485, Note_off_c, 6, 60, 64
11, 254630, Note_on_c, 6, 60, 76
11, 254870, Note_off_c, 6, 67, 64
11, 254870, Note_off_c, 6, 60, 64
11, 254870, Note_on_c, 6, 65, 83
11, 254871, Note_off_c, 6, 65, 64
11, 254871, End_track
12, 0, Start_track
12, 0, Title_t, "Guitar 4"
12, 0, MIDI_port, 0
12, 0, Channel_prefix, 7
12, 0, Control_c, 7, 7, 127
12, 0, Control_c, 7, 10, 64
12, 0, Program_c, 7, 29
12, 0, Control_c, 7, 91, 115
12, 0, Control_c, 7, 93, 48
12, 222710, Note_on_c, 7, 67, 73
12, 223180, Control_c, 7, 1, 76
12, 223930, Control_c, 7, 1, 0
12, 224010, Note_off_c, 7, 67, 64
12, 224575, Pitch_bend_c, 7, 6755
12, 224585, Pitch_bend_c, 7, 4184
12, 224595, Pitch_bend_c, 7, 1505
12, 224605, Pitch_bend_c, 7, 0
12, 224625, Note_on_c, 7, 64, 98
12, 224630, Note_on_c, 7, 52, 83
12, 224685, Pitch_bend_c, 7, 456
12, 224695, Pitch_bend_c, 7, 1367
12, 224705, Pitch_bend_c, 7, 2429
12, 224715, Pitch_bend_c, 7, 3536
12, 224730, Pitch_bend_c, 7, 4692
12, 224740, Pitch_bend_c, 7, 5858
12, 224750, Pitch_bend_c, 7, 6894
12, 224760, Pitch_bend_c, 7, 7894
12, 224770, Pitch_bend_c, 7, 8192
12, 224845, Note_off_c, 7, 52, 64
12, 224855, Note_on_c, 7, 65, 73
12, 224860, Note_off_c, 7, 64, 64
12, 224880, Note_on_c, 7, 53, 65
12, 225035, Note_off_c, 7, 53, 64
12, 225050, Note_off_c, 7, 65, 64
12, 225115, Note_on_c, 7, 67, 93
12, 225125, Note_on_c, 7, 55, 86
12, 225490, Note_off_c, 7, 55, 64
12, 225500, Note_off_c, 7, 67, 64
12, 225580, Note_on_c, 7, 55, 76
12, 225585, Note_on_c, 7, 67, 93
12, 226005, Note_off_c, 7, 67, 64
12, 226005, Note_off_c, 7, 55, 64
12, 226050, Note_on_c, 7, 69, 86
12, 226055, Note_on_c, 7, 57, 79
12, 226275, Note_off_c, 7, 57, 64
12, 226290, Note_on_c, 7, 55, 73
12, 226300, Note_on_c, 7, 67, 83
12, 226415, Note_off_c, 7, 69, 64
12, 226485, Note_off_c, 7, 67, 64
12, 226495, Note_off_c, 7, 55, 64
12, 226530, Note_on_c, 7, 52, 83
12, 226545, Note_on_c, 7, 64, 93
12, 226765, Note_off_c, 7, 64, 64
12, 226780, Note_on_c, 7, 50, 88
12, 226785, Note_off_c, 7, 52, 64
12, 226785, Note_on_c, 7, 62, 93
12, 227025, Note_off_c, 7, 50, 64
12, 227030, Note_on_c, 7, 48, 81
12, 227035, Note_on_c, 7, 60, 91
12, 227075, Note_off_c, 7, 62, 64
12, 227370, Note_off_c, 7, 48, 64
12, 227380, Note_off_c, 7, 60, 64
12, 227490, Note_on_c, 7, 48, 73
12, 227510, Note_on_c, 7, 60, 98
12, 227885, Control_c, 7, 1, 76
12, 227945, Control_c, 7, 1, 76
12, 228385, Control_c, 7, 1, 0
12, 228435, Note_off_c, 7, 48, 64
12, 228460, Control_c, 7, 1, 0
12, 228465, Note_off_c, 7, 60, 64
12, 228490, Note_on_c, 7, 58, 89
12, 228490, Note_on_c, 7, 62, 88
12, 229660, Note_off_c, 7, 58, 64
12, 229665, Note_off_c, 7, 62, 64
12, 230400, Note_on_c, 7, 62, 91
12, 230640, Note_on_c, 7, 53, 50
12, 230645, Note_off_c, 7, 62, 64
12, 230870, Note_on_c, 7, 58, 67
12, 230935, Note_off_c, 7, 53, 64
12, 231120, Note_on_c, 7, 63, 83
12, 231135, Note_off_c, 7, 58, 64
12, 231610, Note_on_c, 7, 53, 65
12, 231710, Note_off_c, 7, 63, 64
12, 231835, Note_on_c, 7, 58, 76
12, 231970, Note_off_c, 7, 53, 64
12, 232085, Note_on_c, 7, 63, 47
12, 232200, Note_off_c, 7, 63, 64
12, 232205, Note_off_c, 7, 58, 64
12, 232310, Note_on_c, 7, 62, 88
12, 232575, Note_on_c, 7, 53, 69
12, 232595, Note_off_c, 7, 62, 64
12, 232865, Note_off_c, 7, 53, 64
12, 233040, Note_on_c, 7, 63, 89
12, 233510, Note_on_c, 7, 53, 65
12, 233585, Note_off_c, 7, 63, 64
12, 233980, Note_off_c, 7, 53, 64
12, 234210, Note_on_c, 7, 62, 88
12, 234470, Note_on_c, 7, 53, 61
12, 234485, Note_off_c, 7, 62, 64
12, 234700, Note_on_c, 7, 58, 67
12, 234765, Note_off_c, 7, 53, 64
12, 234930, Note_on_c, 7, 63, 89
12, 235150, Note_off_c, 7, 58, 64
12, 235710, Note_off_c, 7, 63, 64
12, 236150, Note_on_c, 7, 60, 91
12, 236155, Note_on_c, 7, 55, 83
12, 237385, Control_c, 7, 1, 76
12, 239080, Control_c, 7, 1, 0
12, 239125, Note_off_c, 7, 55, 64
12, 239215, Note_off_c, 7, 60, 64
12, 239930, Pitch_bend_c, 7, 7827
12, 239940, Pitch_bend_c, 7, 5326
12, 239950, Pitch_bend_c, 7, 2469
12, 239960, Pitch_bend_c, 7, 0
12, 239995, Note_on_c, 7, 67, 83
12, 240040, Pitch_bend_c, 7, 527
12, 240050, Pitch_bend_c, 7, 1358
12, 240060, Pitch_bend_c, 7, 2411
12, 240070, Pitch_bend_c, 7, 3715
12, 240080, Pitch_bend_c, 7, 5251
12, 240095, Pitch_bend_c, 7, 6679
12, 240105, Pitch_bend_c, 7, 8036
12, 240115, Pitch_bend_c, 7, 8192
12, 240265, Note_off_c, 7, 67, 64
12, 240390, Pitch_bend_c, 7, 8041
12, 240405, Pitch_bend_c, 7, 6148
12, 240415, Pitch_bend_c, 7, 4086
12, 240425, Pitch_bend_c, 7, 2255
12, 240435, Pitch_bend_c, 7, 1157
12, 240445, Pitch_bend_c, 7, 1063
12, 240455, Pitch_bend_c, 7, 1112
12, 240465, Pitch_bend_c, 7, 1460
12, 240480, Pitch_bend_c, 7, 2179
12, 240485, Note_on_c, 7, 67, 86
12, 240490, Pitch_bend_c, 7, 3072
12, 240495, Pitch_bend_c, 7, 4019
12, 240510, Pitch_bend_c, 7, 5027
12, 240520, Pitch_bend_c, 7, 6287
12, 240530, Pitch_bend_c, 7, 7608
12, 240540, Pitch_bend_c, 7, 8192
12, 240740, Note_off_c, 7, 67, 64
12, 240955, Note_on_c, 7, 67, 88
12, 241385, Note_off_c, 7, 67, 64
12, 241410, Note_on_c, 7, 69, 76
12, 241650, Note_on_c, 7, 67, 69
12, 241695, Note_off_c, 7, 69, 64
12, 241905, Note_off_c, 7, 67, 64
12, 241910, Note_on_c, 7, 64, 76
12, 242140, Note_on_c, 7, 62, 76
12, 242165, Note_off_c, 7, 64, 64
12, 242395, Note_on_c, 7, 60, 88
12, 242430, Note_off_c, 7, 62, 64
12, 242600, Note_off_c, 7, 60, 64
12, 242870, Note_on_c, 7, 60, 91
12, 243290, Control_c, 7, 1, 76
12, 243675, Note_off_c, 7, 60, 64
12, 243680, Control_c, 7, 1, 0
12, 243845, Note_on_c, 7, 62, 81
12, 243850, Note_on_c, 7, 58, 83
12, 247525, Note_off_c, 7, 58, 64
12, 247605, Note_off_c, 7, 62, 64
12, 247685, Note_on_c, 7, 57, 96
12, 249515, Note_off_c, 7, 57, 64
12, 249570, Note_on_c, 7, 62, 86
12, 250285, Control_c, 7, 1, 76
12, 251415, Control_c, 7, 1, 0
12, 251505, Note_off_c, 7, 62, 64
12, 251525, Note_on_c, 7, 53, 81
12, 254725, Note_off_c, 7, 53, 64
12, 255310, Pitch_bend_c, 7, 8023
12, 255320, Pitch_bend_c, 7, 6469
12, 255330, Pitch_bend_c, 7, 5077
12, 255340, Pitch_bend_c, 7, 4063
12, 255355, Pitch_bend_c, 7, 3688
12, 255355, Note_on_c, 7, 67, 86
12, 255365, Pitch_bend_c, 7, 3706
12, 255370, Pitch_bend_c, 7, 4054
12, 255385, Pitch_bend_c, 7, 4661
12, 255395, Pitch_bend_c, 7, 5322
12, 255405, Pitch_bend_c, 7, 5893
12, 255420, Pitch_bend_c, 7, 6496
12, 255430, Pitch_bend_c, 7, 7340
12, 255440, Pitch_bend_c, 7, 8144
12, 255450, Pitch_bend_c, 7, 8192
12, 255605, Note_off_c, 7, 67, 64
12, 255850, Note_on_c, 7, 67, 91
12, 256100, Note_off_c, 7, 67, 64
12, 256325, Note_on_c, 7, 67, 91
12, 256735, Note_off_c, 7, 67, 64
12, 256785, Note_on_c, 7, 69, 83
12, 257015, Note_on_c, 7, 67, 79
12, 257040, Note_off_c, 7, 69, 64
12, 257245, Note_off_c, 7, 67, 64
12, 257270, Note_on_c, 7, 64, 83
12, 257495, Note_on_c, 7, 62, 89
12, 257505, Note_off_c, 7, 64, 64
12, 257715, Note_off_c, 7, 62, 64
12, 257745, Note_on_c, 7, 60, 96
12, 257995, Note_off_c, 7, 60, 64
12, 258205, Note_on_c, 7, 60, 98
12, 259620, Pitch_bend_c, 7, 7362
12, 259630, Pitch_bend_c, 7, 4862
12, 259640, Pitch_bend_c, 7, 2077
12, 259650, Pitch_bend_c, 7, 0
12, 259665, Note_off_c, 7, 60, 64
12, 259670, Note_on_c, 7, 72, 96
12, 259720, Pitch_bend_c, 7, 1036
12, 259730, Pitch_bend_c, 7, 2215
12, 259740, Pitch_bend_c, 7, 3679
12, 259755, Pitch_bend_c, 7, 5385
12, 259765, Pitch_bend_c, 7, 7179
12, 259775, Pitch_bend_c, 7, 8192
12, 260645, Control_c, 7, 1, 76
12, 260950, Control_c, 7, 11, 125
12, 261010, Control_c, 7, 11, 124
12, 261330, Control_c, 7, 11, 123
12, 261365, Control_c, 7, 11, 122
12, 261395, Control_c, 7, 11, 121
12, 261580, Control_c, 7, 11, 119
12, 261630, Control_c, 7, 11, 117
12, 262025, Control_c, 7, 1, 0
12, 262105, Note_off_c, 7, 72, 64
12, 262115, Control_c, 7, 11, 115
12, 262145, Control_c, 7, 11, 114
12, 262175, Control_c, 7, 11, 113
12, 262270, Pitch_bend_c, 7, 6112
12, 262280, Pitch_bend_c, 7, 2469
12, 262290, Pitch_bend_c, 7, 0
12, 262320, Note_on_c, 7, 81, 106
12, 262380, Pitch_bend_c, 7, 36
12, 262390, Pitch_bend_c, 7, 1233
12, 262400, Pitch_bend_c, 7, 2751
12, 262410, Pitch_bend_c, 7, 4608
12, 262425, Pitch_bend_c, 7, 6661
12, 262430, Note_off_c, 7, 81, 64
12, 262435, Pitch_bend_c, 7, 8192
12, 262520, Pitch_bend_c, 7, 8112
12, 262530, Pitch_bend_c, 7, 6469
12, 262540, Pitch_bend_c, 7, 4541
12, 262550, Pitch_bend_c, 7, 3612
12, 262555, Note_on_c, 7, 81, 91
12, 262565, Pitch_bend_c, 7, 3527
12, 262570, Pitch_bend_c, 7, 3612
12, 262580, Pitch_bend_c, 7, 4103
12, 262595, Pitch_bend_c, 7, 4925
12, 262605, Pitch_bend_c, 7, 5787
12, 262615, Pitch_bend_c, 7, 6733
12, 262630, Pitch_bend_c, 7, 7894
12, 262640, Pitch_bend_c, 7, 8192
12, 262670, Note_off_c, 7, 81, 64
12, 262755, Pitch_bend_c, 7, 7684
12, 262765, Pitch_bend_c, 7, 5398
12, 262775, Pitch_bend_c, 7, 2755
12, 262785, Pitch_bend_c, 7, 898
12, 262790, Note_on_c, 7, 81, 96
12, 262795, Pitch_bend_c, 7, 326
12, 262805, Pitch_bend_c, 7, 179
12, 262820, Pitch_bend_c, 7, 201
12, 262830, Pitch_bend_c, 7, 501
12, 262840, Pitch_bend_c, 7, 1268
12, 262850, Pitch_bend_c, 7, 2287
12, 262860, Pitch_bend_c, 7, 3572
12, 262875, Pitch_bend_c, 7, 5215
12, 262885, Note_off_c, 7, 81, 64
12, 262885, Pitch_bend_c, 7, 7179
12, 262895, Pitch_bend_c, 7, 8192
12, 262940, Control_c, 7, 11, 112
12, 263010, Pitch_bend_c, 7, 7291
12, 263020, Pitch_bend_c, 7, 4362
12, 263030, Pitch_bend_c, 7, 1612
12, 263035, Note_on_c, 7, 81, 96
12, 263040, Pitch_bend_c, 7, 0
12, 263100, Pitch_bend_c, 7, 1036
12, 263110, Pitch_bend_c, 7, 2322
12, 263120, Pitch_bend_c, 7, 4019
12, 263130, Pitch_bend_c, 7, 5965
12, 263140, Pitch_bend_c, 7, 8099
12, 263150, Pitch_bend_c, 7, 8192
12, 263205, Control_c, 7, 11, 111
12, 263270, Control_c, 7, 11, 109
12, 263385, Control_c, 7, 1, 76
12, 263450, Note_off_c, 7, 81, 64
12, 263455, Control_c, 7, 1, 0
12, 263510, Note_on_c, 7, 79, 96
12, 263635, Note_off_c, 7, 79, 64
12, 263780, Control_c, 7, 11, 108
12, 263845, Control_c, 7, 11, 107
12, 264100, Control_c, 7, 11, 106
12, 264125, Control_c, 7, 11, 105
12, 264160, Control_c, 7, 11, 104
12, 264165, Pitch_bend_c, 7, 8005
12, 264180, Pitch_bend_c, 7, 5112
12, 264190, Pitch_bend_c, 7, 2184
12, 264200, Pitch_bend_c, 7, 0
12, 264230, Note_on_c, 7, 76, 108
12, 264265, Pitch_bend_c, 7, 670
12, 264280, Pitch_bend_c, 7, 2304
12, 264290, Pitch_bend_c, 7, 4099
12, 264300, Pitch_bend_c, 7, 5893
12, 264310, Pitch_bend_c, 7, 7670
12, 264320, Pitch_bend_c, 7, 8192
12, 264670, Control_c, 7, 11, 103
12, 264865, Control_c, 7, 11, 102
12, 264900, Note_off_c, 7, 76, 64
12, 264925, Control_c, 7, 11, 100
12, 264950, Note_on_c, 7, 74, 96
12, 264955, Control_c, 7, 11, 99
12, 265000, Control_c, 7, 11, 97
12, 265465, Control_c, 7, 1, 76
12, 265600, Note_off_c, 7, 74, 64
12, 265625, Control_c, 7, 1, 0
12, 265640, Control_c, 7, 11, 96
12, 265650, Note_on_c, 7, 72, 106
12, 265785, Note_off_c, 7, 72, 64
12, 265835, Control_c, 7, 11, 95
12, 265870, Control_c, 7, 11, 94
12, 266080, Pitch_bend_c, 7, 6827
12, 266090, Pitch_bend_c, 7, 3077
12, 266100, Pitch_bend_c, 7, 0
12, 266130, Note_on_c, 7, 67, 98
12, 266240, Pitch_bend_c, 7, 786
12, 266250, Pitch_bend_c, 7, 2358
12, 266255, Control_c, 7, 11, 93
12, 266260, Pitch_bend_c, 7, 4179
12, 266270, Pitch_bend_c, 7, 6179
12, 266280, Pitch_bend_c, 7, 8036
12, 266290, Pitch_bend_c, 7, 8192
12, 266395, Note_on_c, 7, 72, 93
12, 266420, Control_c, 7, 11, 92
12, 266445, Control_c, 7, 11, 91
12, 266475, Control_c, 7, 11, 90
12, 266505, Control_c, 7, 11, 88
12, 266925, Control_c, 7, 11, 87
12, 266965, Control_c, 7, 11, 86
12, 266995, Control_c, 7, 11, 84
12, 267030, Control_c, 7, 11, 82
12, 267425, Control_c, 7, 11, 81
12, 267440, Note_off_c, 7, 67, 64
12, 267460, Note_off_c, 7, 72, 64
12, 267535, Pitch_bend_c, 7, 6255
12, 267545, Pitch_bend_c, 7, 1684
12, 267555, Pitch_bend_c, 7, 0
12, 267600, Note_on_c, 7, 67, 106
12, 267670, Pitch_bend_c, 7, 1251
12, 267685, Pitch_bend_c, 7, 2876
12, 267695, Pitch_bend_c, 7, 4554
12, 267705, Pitch_bend_c, 7, 6358
12, 267715, Pitch_bend_c, 7, 8036
12, 267720, Control_c, 7, 11, 80
12, 267725, Pitch_bend_c, 7, 8192
12, 267750, Control_c, 7, 11, 79
12, 267780, Control_c, 7, 11, 78
12, 267830, Note_on_c, 7, 72, 96
12, 267840, Note_off_c, 7, 67, 64
12, 267920, Control_c, 7, 11, 77
12, 267945, Note_off_c, 7, 72, 64
12, 267950, Control_c, 7, 11, 75
12, 267985, Control_c, 7, 11, 73
12, 268015, Pitch_bend_c, 7, 7969
12, 268015, Control_c, 7, 11, 72
12, 268025, Pitch_bend_c, 7, 3755
12, 268035, Pitch_bend_c, 7, 0
12, 268070, Note_on_c, 7, 67, 111
12, 268140, Pitch_bend_c, 7, 72
12, 268150, Pitch_bend_c, 7, 1697
12, 268165, Pitch_bend_c, 7, 3465
12, 268175, Pitch_bend_c, 7, 5590
12, 268175, Control_c, 7, 11, 71
12, 268185, Pitch_bend_c, 7, 7679
12, 268195, Pitch_bend_c, 7, 8192
12, 268235, Control_c, 7, 11, 69
12, 268265, Control_c, 7, 11, 67
12, 268300, Note_on_c, 7, 72, 96
12, 268300, Control_c, 7, 11, 66
12, 268315, Note_off_c, 7, 67, 64
12, 268335, Control_c, 7, 11, 64
12, 268420, Note_off_c, 7, 72, 64
12, 268500, Pitch_bend_c, 7, 5969
12, 268515, Pitch_bend_c, 7, 2684
12, 268525, Pitch_bend_c, 7, 0
12, 268530, Note_on_c, 7, 67, 93
12, 268620, Control_c, 7, 11, 63
12, 268630, Pitch_bend_c, 7, 608
12, 268640, Pitch_bend_c, 7, 2108
12, 268645, Control_c, 7, 11, 61
12, 268650, Pitch_bend_c, 7, 3661
12, 268660, Pitch_bend_c, 7, 5322
12, 268670, Pitch_bend_c, 7, 6929
12, 268680, Control_c, 7, 11, 60
12, 268685, Pitch_bend_c, 7, 8157
12, 268695, Pitch_bend_c, 7, 8192
12, 268710, Control_c, 7, 11, 58
12, 268750, Note_on_c, 7, 72, 83
12, 268755, Note_off_c, 7, 67, 64
12, 268910, Control_c, 7, 11, 57
12, 268915, Note_off_c, 7, 72, 64
12, 268975, Control_c, 7, 11, 55
12, 268980, Pitch_bend_c, 7, 8077
12, 268995, Pitch_bend_c, 7, 4898
12, 269005, Pitch_bend_c, 7, 755
12, 269010, Note_on_c, 7, 67, 106
12, 269010, Control_c, 7, 11, 54
12, 269015, Pitch_bend_c, 7, 0
12, 269045, Control_c, 7, 11, 53
12, 269150, Pitch_bend_c, 7, 161
12, 269160, Pitch_bend_c, 7, 2019
12, 269170, Pitch_bend_c, 7, 4179
12, 269180, Pitch_bend_c, 7, 6608
12, 269190, Pitch_bend_c, 7, 8192
12, 269275, Note_on_c, 7, 72, 93
12, 269330, Control_c, 7, 11, 52
12, 269335, Note_off_c, 7, 67, 64
12, 269355, Control_c, 7, 11, 51
12, 269385, Control_c, 7, 11, 50
12, 269415, Note_off_c, 7, 72, 64
12, 269450, Control_c, 7, 11, 49
12, 269505, Note_on_c, 7, 67, 79
12, 269640, Control_c, 7, 11, 48
12, 269650, Note_off_c, 7, 67, 64
12, 269670, Control_c, 7, 11, 47
12, 269700, Control_c, 7, 11, 46
12, 269740, Note_on_c, 7, 72, 103
12, 269770, Control_c, 7, 11, 45
12, 269990, Note_off_c, 7, 72, 64
12, 269995, Note_on_c, 7, 67, 77
12, 270070, Control_c, 7, 11, 42
12, 270105, Control_c, 7, 11, 41
12, 270115, Note_off_c, 7, 67, 64
12, 270230, Note_on_c, 7, 74, 96
12, 270290, Control_c, 7, 11, 40
12, 270320, Control_c, 7, 11, 39
12, 270380, Control_c, 7, 11, 37
12, 270540, Control_c, 7, 1, 76
12, 270540, Control_c, 7, 11, 36
12, 270570, Control_c, 7, 11, 35
12, 270605, Control_c, 7, 11, 34
12, 270815, Control_c, 7, 11, 33
12, 270845, Control_c, 7, 11, 32
12, 270880, Control_c, 7, 11, 31
12, 270970, Control_c, 7, 11, 30
12, 271150, Control_c, 7, 1, 0
12, 271185, Note_off_c, 7, 74, 64
12, 271200, Note_on_c, 7, 72, 96
12, 271260, Control_c, 7, 11, 29
12, 271285, Control_c, 7, 11, 28
12, 271320, Control_c, 7, 11, 27
12, 271345, Note_off_c, 7, 72, 64
12, 271510, Control_c, 7, 11, 26
12, 271540, Control_c, 7, 11, 25
12, 271570, Control_c, 7, 11, 24
12, 271600, Control_c, 7, 11, 23
12, 271635, Control_c, 7, 11, 22
12, 271705, Control_c, 7, 11, 21
12, 271795, Control_c, 7, 11, 20
12, 271865, Pitch_bend_c, 7, 6220
12, 271875, Pitch_bend_c, 7, 2898
12, 271885, Pitch_bend_c, 7, 0
12, 271895, Control_c, 7, 11, 19
12, 271910, Note_on_c, 7, 76, 108
12, 271960, Control_c, 7, 11, 17
12, 271985, Pitch_bend_c, 7, 313
12, 271990, Control_c, 7, 11, 16
12, 271995, Pitch_bend_c, 7, 1751
12, 272005, Pitch_bend_c, 7, 3233
12, 272015, Pitch_bend_c, 7, 4876
12, 272020, Control_c, 7, 11, 15
12, 272025, Pitch_bend_c, 7, 6536
12, 272035, Pitch_bend_c, 7, 8072
12, 272045, Pitch_bend_c, 7, 8192
12, 272050, Control_c, 7, 11, 14
12, 272080, Note_off_c, 7, 76, 64
12, 272085, Control_c, 7, 11, 13
12, 272145, Control_c, 7, 11, 12
12, 272150, Note_on_c, 7, 79, 79
12, 272300, Control_c, 7, 11, 11
12, 272330, Control_c, 7, 11, 10
12, 272360, Control_c, 7, 11, 9
12, 272435, Control_c, 7, 11, 8
12, 272500, Control_c, 7, 1, 76
12, 272580, Control_c, 7, 11, 7
12, 272645, Control_c, 7, 11, 5
12, 272685, Control_c, 7, 11, 3
12, 272960, Control_c, 7, 11, 2
12, 273240, Control_c, 7, 11, 1
12, 273610, Control_c, 7, 1, 0
12, 273685, Note_off_c, 7, 79, 64
12, 273790, Pitch_bend_c, 7, 5755
12, 273800, Pitch_bend_c, 7, 2469
12, 273810, Pitch_bend_c, 7, 0
12, 273835, Note_on_c, 7, 76, 111
12, 273880, Control_c, 7, 11, 0
12, 273910, Pitch_bend_c, 7, 1108
12, 273920, Pitch_bend_c, 7, 2501
12, 273930, Pitch_bend_c, 7, 4036
12, 273940, Pitch_bend_c, 7, 5742
12, 273950, Pitch_bend_c, 7, 7358
12, 273960, Pitch_bend_c, 7, 8192
12, 274050, Note_off_c, 7, 76, 64
12, 274425, Note_on_c, 7, 76, 79
12, 275065, Note_off_c, 7, 76, 64
12, 275065, Note_on_c, 7, 74, 66
12, 275066, Note_off_c, 7, 74, 64
12, 275066, End_track
13, 0, Start_track
13, 0, Title_t, "Guitar 5"
13, 0, MIDI_port, 0
13, 0, Channel_prefix, 8
13, 0, Control_c, 8, 7, 127
13, 0, Control_c, 8, 10, 94
13, 0, Program_c, 8, 28
13, 0, Control_c, 8, 91, 50
13, 0, Control_c, 8, 93, 0
13, 9625, Note_on_c, 8, 41, 81
13, 9715, Note_off_c, 8, 41, 64
13, 9855, Note_on_c, 8, 41, 96
13, 9960, Note_off_c, 8, 41, 64
13, 10105, Note_on_c, 8, 41, 96
13, 10225, Note_off_c, 8, 41, 64
13, 10325, Note_on_c, 8, 41, 76
13, 10435, Note_off_c, 8, 41, 64
13, 10560, Note_on_c, 8, 41, 81
13, 10680, Note_off_c, 8, 41, 64
13, 10815, Note_on_c, 8, 41, 73
13, 10920, Note_off_c, 8, 41, 64
13, 11050, Note_on_c, 8, 41, 86
13, 11160, Note_off_c, 8, 41, 64
13, 11270, Note_on_c, 8, 41, 73
13, 11380, Note_off_c, 8, 41, 64
13, 11525, Note_on_c, 8, 41, 86
13, 11640, Note_off_c, 8, 41, 64
13, 11765, Note_on_c, 8, 41, 88
13, 11870, Note_off_c, 8, 41, 64
13, 11995, Note_on_c, 8, 41, 81
13, 12115, Note_off_c, 8, 41, 64
13, 12245, Note_on_c, 8, 41, 56
13, 12345, Note_off_c, 8, 41, 64
13, 12485, Note_on_c, 8, 41, 76
13, 12595, Note_off_c, 8, 41, 64
13, 12715, Note_on_c, 8, 41, 69
13, 12825, Note_off_c, 8, 41, 64
13, 12955, Note_on_c, 8, 41, 76
13, 13070, Note_off_c, 8, 41, 64
13, 13195, Note_on_c, 8, 41, 67
13, 13310, Note_off_c, 8, 41, 64
13, 13425, Note_on_c, 8, 41, 69
13, 13545, Note_off_c, 8, 41, 64
13, 13670, Note_on_c, 8, 41, 69
13, 13780, Note_off_c, 8, 41, 64
13, 13905, Note_on_c, 8, 41, 79
13, 14025, Note_off_c, 8, 41, 64
13, 14155, Note_on_c, 8, 41, 73
13, 14270, Note_off_c, 8, 41, 64
13, 14390, Note_on_c, 8, 41, 71
13, 14505, Note_off_c, 8, 41, 64
13, 14635, Note_on_c, 8, 41, 71
13, 14740, Note_off_c, 8, 41, 64
13, 14875, Note_on_c, 8, 41, 83
13, 15000, Note_off_c, 8, 41, 64
13, 15120, Note_on_c, 8, 41, 73
13, 15235, Note_off_c, 8, 41, 64
13, 15360, Note_on_c, 8, 41, 81
13, 15475, Note_off_c, 8, 41, 64
13, 15600, Note_on_c, 8, 41, 71
13, 15705, Note_off_c, 8, 41, 64
13, 15845, Note_on_c, 8, 41, 86
13, 15955, Note_off_c, 8, 41, 64
13, 16080, Note_on_c, 8, 41, 79
13, 16195, Note_off_c, 8, 41, 64
13, 16320, Note_on_c, 8, 41, 79
13, 16435, Note_off_c, 8, 41, 64
13, 16555, Note_on_c, 8, 41, 71
13, 16670, Note_off_c, 8, 41, 64
13, 16800, Note_on_c, 8, 41, 79
13, 16910, Note_off_c, 8, 41, 64
13, 17040, Note_on_c, 8, 41, 76
13, 17155, Note_off_c, 8, 41, 64
13, 17285, Note_on_c, 8, 41, 71
13, 17400, Note_off_c, 8, 41, 64
13, 17530, Note_on_c, 8, 41, 71
13, 17630, Note_off_c, 8, 41, 64
13, 17770, Note_on_c, 8, 41, 81
13, 17885, Note_off_c, 8, 41, 64
13, 18000, Note_on_c, 8, 41, 67
13, 18110, Note_off_c, 8, 41, 64
13, 18230, Note_on_c, 8, 41, 79
13, 18350, Note_off_c, 8, 41, 64
13, 18475, Note_on_c, 8, 41, 69
13, 18590, Note_off_c, 8, 41, 64
13, 18720, Note_on_c, 8, 41, 81
13, 18840, Note_off_c, 8, 41, 64
13, 18960, Note_on_c, 8, 41, 71
13, 19075, Note_off_c, 8, 41, 64
13, 19195, Note_on_c, 8, 41, 81
13, 19325, Note_off_c, 8, 41, 64
13, 19440, Note_on_c, 8, 41, 59
13, 19565, Note_off_c, 8, 41, 64
13, 19680, Note_on_c, 8, 41, 79
13, 19805, Note_off_c, 8, 41, 64
13, 19915, Note_on_c, 8, 41, 67
13, 20030, Note_off_c, 8, 41, 64
13, 20150, Note_on_c, 8, 41, 86
13, 20275, Note_off_c, 8, 41, 64
13, 20395, Note_on_c, 8, 41, 65
13, 20515, Note_off_c, 8, 41, 64
13, 20645, Note_on_c, 8, 41, 86
13, 20765, Note_off_c, 8, 41, 64
13, 20880, Note_on_c, 8, 41, 79
13, 20995, Note_off_c, 8, 41, 64
13, 21120, Note_on_c, 8, 41, 86
13, 21245, Note_off_c, 8, 41, 64
13, 21370, Note_on_c, 8, 41, 69
13, 21475, Note_off_c, 8, 41, 64
13, 21605, Note_on_c, 8, 41, 88
13, 21720, Note_off_c, 8, 41, 64
13, 21845, Note_on_c, 8, 41, 81
13, 21955, Note_off_c, 8, 41, 64
13, 22070, Note_on_c, 8, 41, 79
13, 22180, Note_off_c, 8, 41, 64
13, 22310, Note_on_c, 8, 41, 83
13, 22420, Note_off_c, 8, 41, 64
13, 22560, Note_on_c, 8, 41, 88
13, 22675, Note_off_c, 8, 41, 64
13, 22805, Note_on_c, 8, 41, 83
13, 22920, Note_off_c, 8, 41, 64
13, 23045, Note_on_c, 8, 41, 86
13, 23155, Note_off_c, 8, 41, 64
13, 23275, Note_on_c, 8, 41, 76
13, 23390, Note_off_c, 8, 41, 64
13, 23515, Note_on_c, 8, 41, 86
13, 23635, Note_off_c, 8, 41, 64
13, 23765, Note_on_c, 8, 41, 81
13, 23880, Note_off_c, 8, 41, 64
13, 24010, Note_on_c, 8, 41, 83
13, 24125, Note_off_c, 8, 41, 64
13, 24250, Note_on_c, 8, 41, 79
13, 24360, Note_off_c, 8, 41, 64
13, 24480, Note_on_c, 8, 41, 81
13, 24590, Note_off_c, 8, 41, 64
13, 24715, Note_on_c, 8, 41, 76
13, 24825, Note_off_c, 8, 41, 64
13, 24960, Note_on_c, 8, 41, 86
13, 25075, Note_off_c, 8, 41, 64
13, 25195, Note_on_c, 8, 41, 69
13, 25305, Note_off_c, 8, 41, 64
13, 25445, Note_on_c, 8, 41, 86
13, 25560, Note_off_c, 8, 41, 64
13, 25690, Note_on_c, 8, 41, 71
13, 25790, Note_off_c, 8, 41, 64
13, 25920, Note_on_c, 8, 41, 86
13, 26035, Note_off_c, 8, 41, 64
13, 26170, Note_on_c, 8, 41, 81
13, 26275, Note_off_c, 8, 41, 64
13, 26410, Note_on_c, 8, 41, 86
13, 26525, Note_off_c, 8, 41, 64
13, 26650, Note_on_c, 8, 41, 79
13, 26745, Note_off_c, 8, 41, 64
13, 26875, Note_on_c, 8, 41, 86
13, 26990, Note_off_c, 8, 41, 64
13, 27115, Note_on_c, 8, 41, 69
13, 27220, Note_off_c, 8, 41, 64
13, 27355, Note_on_c, 8, 41, 86
13, 27480, Note_off_c, 8, 41, 64
13, 27595, Note_on_c, 8, 41, 79
13, 27705, Note_off_c, 8, 41, 64
13, 27825, Note_on_c, 8, 41, 76
13, 27940, Note_off_c, 8, 41, 64
13, 28070, Note_on_c, 8, 41, 76
13, 28180, Note_off_c, 8, 41, 64
13, 28320, Note_on_c, 8, 41, 88
13, 28440, Note_off_c, 8, 41, 64
13, 28560, Note_on_c, 8, 41, 76
13, 28675, Note_off_c, 8, 41, 64
13, 28800, Note_on_c, 8, 41, 88
13, 28915, Note_off_c, 8, 41, 64
13, 29030, Note_on_c, 8, 41, 65
13, 29145, Note_off_c, 8, 41, 64
13, 29275, Note_on_c, 8, 41, 86
13, 29400, Note_off_c, 8, 41, 64
13, 29520, Note_on_c, 8, 41, 79
13, 29640, Note_off_c, 8, 41, 64
13, 29760, Note_on_c, 8, 41, 83
13, 29875, Note_off_c, 8, 41, 64
13, 29995, Note_on_c, 8, 41, 81
13, 30115, Note_off_c, 8, 41, 64
13, 30240, Note_on_c, 8, 41, 88
13, 30360, Note_off_c, 8, 41, 64
13, 30480, Note_on_c, 8, 41, 79
13, 30595, Note_off_c, 8, 41, 64
13, 30710, Note_on_c, 8, 41, 81
13, 30830, Note_off_c, 8, 41, 64
13, 30950, Note_on_c, 8, 41, 81
13, 31065, Note_off_c, 8, 41, 64
13, 31195, Note_on_c, 8, 41, 91
13, 31305, Note_off_c, 8, 41, 64
13, 31430, Note_on_c, 8, 41, 86
13, 31550, Note_off_c, 8, 41, 64
13, 31670, Note_on_c, 8, 41, 83
13, 31785, Note_off_c, 8, 41, 64
13, 31900, Note_on_c, 8, 41, 83
13, 32020, Note_off_c, 8, 41, 64
13, 32135, Note_on_c, 8, 41, 81
13, 32255, Note_off_c, 8, 41, 64
13, 32385, Note_on_c, 8, 41, 88
13, 32500, Note_off_c, 8, 41, 64
13, 32610, Note_on_c, 8, 41, 81
13, 32735, Note_off_c, 8, 41, 64
13, 32855, Note_on_c, 8, 41, 73
13, 32965, Note_off_c, 8, 41, 64
13, 33105, Note_on_c, 8, 41, 88
13, 33225, Note_off_c, 8, 41, 64
13, 33345, Note_on_c, 8, 41, 79
13, 33445, Note_off_c, 8, 41, 64
13, 33585, Note_on_c, 8, 41, 83
13, 33700, Note_off_c, 8, 41, 64
13, 33835, Note_on_c, 8, 41, 73
13, 33945, Note_off_c, 8, 41, 64
13, 34080, Note_on_c, 8, 41, 88
13, 34190, Note_off_c, 8, 41, 64
13, 34305, Note_on_c, 8, 41, 73
13, 34405, Note_off_c, 8, 41, 64
13, 34535, Note_on_c, 8, 41, 88
13, 34650, Note_off_c, 8, 41, 64
13, 34770, Note_on_c, 8, 41, 71
13, 34890, Note_off_c, 8, 41, 64
13, 35025, Note_on_c, 8, 41, 88
13, 35145, Note_off_c, 8, 41, 64
13, 35260, Note_on_c, 8, 41, 73
13, 35370, Note_off_c, 8, 41, 64
13, 35500, Note_on_c, 8, 41, 86
13, 35615, Note_off_c, 8, 41, 64
13, 35750, Note_on_c, 8, 41, 81
13, 35865, Note_off_c, 8, 41, 64
13, 36005, Note_on_c, 8, 41, 101
13, 36125, Note_off_c, 8, 41, 64
13, 36240, Note_on_c, 8, 41, 86
13, 36345, Note_off_c, 8, 41, 64
13, 36475, Note_on_c, 8, 41, 88
13, 36580, Note_off_c, 8, 41, 64
13, 36715, Note_on_c, 8, 41, 86
13, 36815, Note_off_c, 8, 41, 64
13, 36965, Note_on_c, 8, 41, 98
13, 37075, Note_off_c, 8, 41, 64
13, 37200, Note_on_c, 8, 41, 86
13, 37305, Note_off_c, 8, 41, 64
13, 37430, Note_on_c, 8, 41, 86
13, 37535, Note_off_c, 8, 41, 64
13, 37670, Note_on_c, 8, 41, 83
13, 37775, Note_off_c, 8, 41, 64
13, 37915, Note_on_c, 8, 41, 101
13, 38025, Note_off_c, 8, 41, 64
13, 38170, Note_on_c, 8, 41, 88
13, 38260, Note_off_c, 8, 41, 64
13, 38400, Note_on_c, 8, 41, 88
13, 38495, Note_off_c, 8, 41, 64
13, 38635, Note_on_c, 8, 41, 86
13, 38720, Note_off_c, 8, 41, 64
13, 38875, Note_on_c, 8, 41, 98
13, 38975, Note_off_c, 8, 41, 64
13, 39115, Note_on_c, 8, 41, 88
13, 39205, Note_off_c, 8, 41, 64
13, 39345, Note_on_c, 8, 41, 86
13, 39445, Note_off_c, 8, 41, 64
13, 39595, Note_on_c, 8, 41, 86
13, 39680, Note_off_c, 8, 41, 64
13, 39835, Note_on_c, 8, 41, 86
13, 39925, Note_off_c, 8, 41, 64
13, 40070, Note_on_c, 8, 41, 86
13, 40170, Note_off_c, 8, 41, 64
13, 40310, Note_on_c, 8, 41, 86
13, 40405, Note_off_c, 8, 41, 64
13, 40555, Note_on_c, 8, 41, 83
13, 40640, Note_off_c, 8, 41, 64
13, 40805, Note_on_c, 8, 41, 86
13, 40895, Note_off_c, 8, 41, 64
13, 41030, Note_on_c, 8, 41, 83
13, 41125, Note_off_c, 8, 41, 64
13, 41280, Note_on_c, 8, 41, 83
13, 41380, Note_off_c, 8, 41, 64
13, 41525, Note_on_c, 8, 41, 76
13, 41620, Note_off_c, 8, 41, 64
13, 41775, Note_on_c, 8, 41, 88
13, 41885, Note_off_c, 8, 41, 64
13, 42015, Note_on_c, 8, 41, 81
13, 42100, Note_off_c, 8, 41, 64
13, 42235, Note_on_c, 8, 41, 86
13, 42335, Note_off_c, 8, 41, 64
13, 42475, Note_on_c, 8, 41, 81
13, 42575, Note_off_c, 8, 41, 64
13, 42730, Note_on_c, 8, 41, 88
13, 42835, Note_off_c, 8, 41, 64
13, 42950, Note_on_c, 8, 41, 73
13, 43050, Note_off_c, 8, 41, 64
13, 43190, Note_on_c, 8, 41, 86
13, 43295, Note_off_c, 8, 41, 64
13, 43430, Note_on_c, 8, 41, 83
13, 43525, Note_off_c, 8, 41, 64
13, 43680, Note_on_c, 8, 41, 88
13, 43790, Note_off_c, 8, 41, 64
13, 43915, Note_on_c, 8, 41, 73
13, 44015, Note_off_c, 8, 41, 64
13, 44155, Note_on_c, 8, 41, 88
13, 44260, Note_off_c, 8, 41, 64
13, 44395, Note_on_c, 8, 41, 83
13, 44490, Note_off_c, 8, 41, 64
13, 44635, Note_on_c, 8, 41, 88
13, 44740, Note_off_c, 8, 41, 64
13, 44880, Note_on_c, 8, 41, 86
13, 44985, Note_off_c, 8, 41, 64
13, 45125, Note_on_c, 8, 41, 86
13, 45230, Note_off_c, 8, 41, 64
13, 45365, Note_on_c, 8, 41, 86
13, 45465, Note_off_c, 8, 41, 64
13, 45600, Note_on_c, 8, 41, 86
13, 45705, Note_off_c, 8, 41, 64
13, 45845, Note_on_c, 8, 41, 86
13, 45940, Note_off_c, 8, 41, 64
13, 46075, Note_on_c, 8, 41, 88
13, 46180, Note_off_c, 8, 41, 64
13, 46320, Note_on_c, 8, 41, 83
13, 46415, Note_off_c, 8, 41, 64
13, 46565, Note_on_c, 8, 41, 91
13, 46665, Note_off_c, 8, 41, 64
13, 46795, Note_on_c, 8, 41, 83
13, 46895, Note_off_c, 8, 41, 64
13, 47035, Note_on_c, 8, 41, 86
13, 47140, Note_off_c, 8, 41, 64
13, 47270, Note_on_c, 8, 41, 83
13, 47375, Note_off_c, 8, 41, 64
13, 47510, Note_on_c, 8, 41, 91
13, 47615, Note_off_c, 8, 41, 64
13, 47750, Note_on_c, 8, 41, 83
13, 47845, Note_off_c, 8, 41, 64
13, 47985, Note_on_c, 8, 41, 88
13, 48085, Note_off_c, 8, 41, 64
13, 48210, Note_on_c, 8, 41, 83
13, 48320, Note_off_c, 8, 41, 64
13, 48480, Note_on_c, 8, 41, 91
13, 48590, Note_off_c, 8, 41, 64
13, 48730, Note_on_c, 8, 41, 79
13, 48815, Note_off_c, 8, 41, 64
13, 48960, Note_on_c, 8, 41, 88
13, 49065, Note_off_c, 8, 41, 64
13, 49200, Note_on_c, 8, 41, 83
13, 49290, Note_off_c, 8, 41, 64
13, 49445, Note_on_c, 8, 41, 91
13, 49540, Note_off_c, 8, 41, 64
13, 49695, Note_on_c, 8, 41, 83
13, 49775, Note_off_c, 8, 41, 64
13, 49910, Note_on_c, 8, 41, 86
13, 50015, Note_off_c, 8, 41, 64
13, 50150, Note_on_c, 8, 41, 81
13, 50245, Note_off_c, 8, 41, 64
13, 50400, Note_on_c, 8, 41, 88
13, 50510, Note_off_c, 8, 41, 64
13, 50640, Note_on_c, 8, 41, 79
13, 50730, Note_off_c, 8, 41, 64
13, 50875, Note_on_c, 8, 41, 88
13, 50980, Note_off_c, 8, 41, 64
13, 51120, Note_on_c, 8, 41, 86
13, 51215, Note_off_c, 8, 41, 64
13, 51360, Note_on_c, 8, 41, 88
13, 51465, Note_off_c, 8, 41, 64
13, 51590, Note_on_c, 8, 41, 73
13, 51690, Note_off_c, 8, 41, 64
13, 51825, Note_on_c, 8, 41, 86
13, 51925, Note_off_c, 8, 41, 64
13, 52065, Note_on_c, 8, 41, 86
13, 52170, Note_off_c, 8, 41, 64
13, 52310, Note_on_c, 8, 41, 88
13, 52420, Note_off_c, 8, 41, 64
13, 52560, Note_on_c, 8, 41, 86
13, 52660, Note_off_c, 8, 41, 64
13, 52795, Note_on_c, 8, 41, 86
13, 52895, Note_off_c, 8, 41, 64
13, 53045, Note_on_c, 8, 41, 79
13, 53130, Note_off_c, 8, 41, 64
13, 53275, Note_on_c, 8, 41, 86
13, 53375, Note_off_c, 8, 41, 64
13, 53520, Note_on_c, 8, 41, 88
13, 53615, Note_off_c, 8, 41, 64
13, 53755, Note_on_c, 8, 41, 91
13, 53855, Note_off_c, 8, 41, 64
13, 53985, Note_on_c, 8, 41, 79
13, 54080, Note_off_c, 8, 41, 64
13, 54225, Note_on_c, 8, 41, 86
13, 54325, Note_off_c, 8, 41, 64
13, 54470, Note_on_c, 8, 41, 88
13, 54565, Note_off_c, 8, 41, 64
13, 54710, Note_on_c, 8, 41, 88
13, 54805, Note_off_c, 8, 41, 64
13, 54945, Note_on_c, 8, 41, 86
13, 55040, Note_off_c, 8, 41, 64
13, 55195, Note_on_c, 8, 41, 88
13, 55290, Note_off_c, 8, 41, 64
13, 55435, Note_on_c, 8, 41, 81
13, 55540, Note_off_c, 8, 41, 64
13, 86405, Note_on_c, 8, 41, 88
13, 86500, Note_off_c, 8, 41, 64
13, 86625, Note_on_c, 8, 41, 76
13, 86720, Note_off_c, 8, 41, 64
13, 86880, Note_on_c, 8, 41, 76
13, 86990, Note_off_c, 8, 41, 64
13, 87120, Note_on_c, 8, 41, 79
13, 87220, Note_off_c, 8, 41, 64
13, 87360, Note_on_c, 8, 41, 76
13, 87470, Note_off_c, 8, 41, 64
13, 87590, Note_on_c, 8, 41, 67
13, 87695, Note_off_c, 8, 41, 64
13, 87850, Note_on_c, 8, 41, 83
13, 87955, Note_off_c, 8, 41, 64
13, 88075, Note_on_c, 8, 41, 73
13, 88190, Note_off_c, 8, 41, 64
13, 88320, Note_on_c, 8, 41, 86
13, 88435, Note_off_c, 8, 41, 64
13, 88560, Note_on_c, 8, 41, 73
13, 88665, Note_off_c, 8, 41, 64
13, 88800, Note_on_c, 8, 41, 88
13, 88910, Note_off_c, 8, 41, 64
13, 89025, Note_on_c, 8, 41, 76
13, 89130, Note_off_c, 8, 41, 64
13, 89275, Note_on_c, 8, 41, 86
13, 89385, Note_off_c, 8, 41, 64
13, 89520, Note_on_c, 8, 41, 71
13, 89615, Note_off_c, 8, 41, 64
13, 89755, Note_on_c, 8, 41, 86
13, 89865, Note_off_c, 8, 41, 64
13, 89990, Note_on_c, 8, 41, 79
13, 90095, Note_off_c, 8, 41, 64
13, 90240, Note_on_c, 8, 41, 86
13, 90360, Note_off_c, 8, 41, 64
13, 90485, Note_on_c, 8, 41, 73
13, 90585, Note_off_c, 8, 41, 64
13, 90725, Note_on_c, 8, 41, 88
13, 90840, Note_off_c, 8, 41, 64
13, 90975, Note_on_c, 8, 41, 86
13, 91080, Note_off_c, 8, 41, 64
13, 91220, Note_on_c, 8, 41, 86
13, 91325, Note_off_c, 8, 41, 64
13, 91460, Note_on_c, 8, 41, 88
13, 91565, Note_off_c, 8, 41, 64
13, 91680, Note_on_c, 8, 41, 81
13, 91795, Note_off_c, 8, 41, 64
13, 91915, Note_on_c, 8, 41, 79
13, 92020, Note_off_c, 8, 41, 64
13, 92155, Note_on_c, 8, 41, 91
13, 92265, Note_off_c, 8, 41, 64
13, 92395, Note_on_c, 8, 41, 81
13, 92495, Note_off_c, 8, 41, 64
13, 92635, Note_on_c, 8, 41, 86
13, 92745, Note_off_c, 8, 41, 64
13, 92880, Note_on_c, 8, 41, 83
13, 92980, Note_off_c, 8, 41, 64
13, 93120, Note_on_c, 8, 41, 88
13, 93215, Note_off_c, 8, 41, 64
13, 93360, Note_on_c, 8, 41, 86
13, 93460, Note_off_c, 8, 41, 64
13, 93600, Note_on_c, 8, 41, 88
13, 93705, Note_off_c, 8, 41, 64
13, 93835, Note_on_c, 8, 41, 83
13, 93935, Note_off_c, 8, 41, 64
13, 94075, Note_on_c, 8, 41, 88
13, 94185, Note_off_c, 8, 41, 64
13, 94305, Note_on_c, 8, 41, 76
13, 94405, Note_off_c, 8, 41, 64
13, 94555, Note_on_c, 8, 41, 88
13, 94665, Note_off_c, 8, 41, 64
13, 94780, Note_on_c, 8, 41, 73
13, 94885, Note_off_c, 8, 41, 64
13, 95025, Note_on_c, 8, 41, 86
13, 95140, Note_off_c, 8, 41, 64
13, 95275, Note_on_c, 8, 41, 83
13, 95365, Note_off_c, 8, 41, 64
13, 95510, Note_on_c, 8, 41, 88
13, 95615, Note_off_c, 8, 41, 64
13, 95745, Note_on_c, 8, 41, 76
13, 95845, Note_off_c, 8, 41, 64
13, 95990, Note_on_c, 8, 41, 86
13, 96100, Note_off_c, 8, 41, 64
13, 96225, Note_on_c, 8, 41, 79
13, 96330, Note_off_c, 8, 41, 64
13, 96470, Note_on_c, 8, 41, 91
13, 96585, Note_off_c, 8, 41, 64
13, 96695, Note_on_c, 8, 41, 71
13, 96795, Note_off_c, 8, 41, 64
13, 96935, Note_on_c, 8, 41, 88
13, 97045, Note_off_c, 8, 41, 64
13, 97180, Note_on_c, 8, 41, 76
13, 97275, Note_off_c, 8, 41, 64
13, 97435, Note_on_c, 8, 41, 101
13, 97545, Note_off_c, 8, 41, 64
13, 97670, Note_on_c, 8, 41, 88
13, 97785, Note_off_c, 8, 41, 64
13, 97900, Note_on_c, 8, 41, 79
13, 98000, Note_off_c, 8, 41, 64
13, 98145, Note_on_c, 8, 41, 83
13, 98240, Note_off_c, 8, 41, 64
13, 98400, Note_on_c, 8, 41, 109
13, 98510, Note_off_c, 8, 41, 64
13, 98620, Note_on_c, 8, 41, 86
13, 98725, Note_off_c, 8, 41, 64
13, 98860, Note_on_c, 8, 41, 81
13, 98955, Note_off_c, 8, 41, 64
13, 99095, Note_on_c, 8, 41, 88
13, 99190, Note_off_c, 8, 41, 64
13, 99365, Note_on_c, 8, 41, 112
13, 99475, Note_off_c, 8, 41, 64
13, 99595, Note_on_c, 8, 41, 88
13, 99690, Note_off_c, 8, 41, 64
13, 99830, Note_on_c, 8, 41, 83
13, 99925, Note_off_c, 8, 41, 64
13, 100065, Note_on_c, 8, 41, 83
13, 100155, Note_off_c, 8, 41, 64
13, 100325, Note_on_c, 8, 41, 101
13, 100440, Note_off_c, 8, 41, 64
13, 100560, Note_on_c, 8, 41, 79
13, 100665, Note_off_c, 8, 41, 64
13, 100800, Note_on_c, 8, 41, 88
13, 100900, Note_off_c, 8, 41, 64
13, 101035, Note_on_c, 8, 41, 81
13, 101130, Note_off_c, 8, 41, 64
13, 101285, Note_on_c, 8, 41, 101
13, 101400, Note_off_c, 8, 41, 64
13, 101520, Note_on_c, 8, 41, 83
13, 101620, Note_off_c, 8, 41, 64
13, 101740, Note_on_c, 8, 41, 69
13, 101850, Note_off_c, 8, 41, 64
13, 101980, Note_on_c, 8, 41, 71
13, 102085, Note_off_c, 8, 41, 64
13, 102245, Note_on_c, 8, 41, 109
13, 102370, Note_off_c, 8, 41, 64
13, 102475, Note_on_c, 8, 41, 83
13, 102580, Note_off_c, 8, 41, 64
13, 102710, Note_on_c, 8, 41, 73
13, 102805, Note_off_c, 8, 41, 64
13, 102955, Note_on_c, 8, 41, 79
13, 103045, Note_off_c, 8, 41, 64
13, 103220, Note_on_c, 8, 41, 109
13, 103335, Note_off_c, 8, 41, 64
13, 103435, Note_on_c, 8, 41, 76
13, 103535, Note_off_c, 8, 41, 64
13, 103665, Note_on_c, 8, 41, 69
13, 103770, Note_off_c, 8, 41, 64
13, 103900, Note_on_c, 8, 41, 81
13, 104000, Note_off_c, 8, 41, 64
13, 104155, Note_on_c, 8, 41, 98
13, 104265, Note_off_c, 8, 41, 64
13, 104395, Note_on_c, 8, 41, 91
13, 104500, Note_off_c, 8, 41, 64
13, 104620, Note_on_c, 8, 41, 71
13, 104700, Note_off_c, 8, 41, 64
13, 104860, Note_on_c, 8, 41, 104
13, 104985, Note_off_c, 8, 41, 64
13, 105090, Note_on_c, 8, 41, 73
13, 105175, Note_off_c, 8, 41, 64
13, 105345, Note_on_c, 8, 41, 93
13, 105465, Note_off_c, 8, 41, 64
13, 105590, Note_on_c, 8, 41, 61
13, 105675, Note_off_c, 8, 41, 64
13, 105835, Note_on_c, 8, 41, 79
13, 105920, Note_off_c, 8, 41, 64
13, 106085, Note_on_c, 8, 41, 104
13, 106210, Note_off_c, 8, 41, 64
13, 106310, Note_on_c, 8, 41, 79
13, 106410, Note_off_c, 8, 41, 64
13, 106550, Note_on_c, 8, 41, 86
13, 106640, Note_off_c, 8, 41, 64
13, 106785, Note_on_c, 8, 41, 83
13, 106870, Note_off_c, 8, 41, 64
13, 107035, Note_on_c, 8, 41, 104
13, 107140, Note_off_c, 8, 41, 64
13, 107265, Note_on_c, 8, 41, 83
13, 107365, Note_off_c, 8, 41, 64
13, 107510, Note_on_c, 8, 41, 91
13, 107615, Note_off_c, 8, 41, 64
13, 107745, Note_on_c, 8, 41, 86
13, 107830, Note_off_c, 8, 41, 64
13, 107995, Note_on_c, 8, 41, 109
13, 108120, Note_off_c, 8, 41, 64
13, 108230, Note_on_c, 8, 41, 88
13, 108325, Note_off_c, 8, 41, 64
13, 108465, Note_on_c, 8, 41, 86
13, 108560, Note_off_c, 8, 41, 64
13, 108705, Note_on_c, 8, 41, 88
13, 108800, Note_off_c, 8, 41, 64
13, 108950, Note_on_c, 8, 41, 101
13, 109075, Note_off_c, 8, 41, 64
13, 109195, Note_on_c, 8, 41, 86
13, 109300, Note_off_c, 8, 41, 64
13, 109430, Note_on_c, 8, 41, 83
13, 109530, Note_off_c, 8, 41, 64
13, 109670, Note_on_c, 8, 41, 81
13, 109755, Note_off_c, 8, 41, 64
13, 109930, Note_on_c, 8, 41, 104
13, 110045, Note_off_c, 8, 41, 64
13, 110155, Note_on_c, 8, 41, 83
13, 110250, Note_off_c, 8, 41, 64
13, 110385, Note_on_c, 8, 41, 81
13, 110490, Note_off_c, 8, 41, 64
13, 110635, Note_on_c, 8, 41, 81
13, 110725, Note_off_c, 8, 41, 64
13, 110880, Note_on_c, 8, 41, 109
13, 111000, Note_off_c, 8, 41, 64
13, 111105, Note_on_c, 8, 41, 88
13, 111205, Note_off_c, 8, 41, 64
13, 111345, Note_on_c, 8, 41, 88
13, 111450, Note_off_c, 8, 41, 64
13, 111585, Note_on_c, 8, 41, 79
13, 111675, Note_off_c, 8, 41, 64
13, 111840, Note_on_c, 8, 41, 109
13, 111955, Note_off_c, 8, 41, 64
13, 112060, Note_on_c, 8, 41, 86
13, 112160, Note_off_c, 8, 41, 64
13, 112295, Note_on_c, 8, 41, 88
13, 112400, Note_off_c, 8, 41, 64
13, 112540, Note_on_c, 8, 41, 91
13, 112640, Note_off_c, 8, 41, 64
13, 112795, Note_on_c, 8, 41, 101
13, 112900, Note_off_c, 8, 41, 64
13, 113025, Note_on_c, 8, 41, 88
13, 113125, Note_off_c, 8, 41, 64
13, 113270, Note_on_c, 8, 41, 93
13, 113375, Note_off_c, 8, 41, 64
13, 113510, Note_on_c, 8, 41, 86
13, 113605, Note_off_c, 8, 41, 64
13, 113750, Note_on_c, 8, 41, 104
13, 113870, Note_off_c, 8, 41, 64
13, 113995, Note_on_c, 8, 41, 86
13, 114100, Note_off_c, 8, 41, 64
13, 114240, Note_on_c, 8, 41, 88
13, 114335, Note_off_c, 8, 41, 64
13, 114475, Note_on_c, 8, 41, 88
13, 114570, Note_off_c, 8, 41, 64
13, 114720, Note_on_c, 8, 41, 104
13, 114835, Note_off_c, 8, 41, 64
13, 114960, Note_on_c, 8, 41, 88
13, 115065, Note_off_c, 8, 41, 64
13, 115195, Note_on_c, 8, 41, 91
13, 115300, Note_off_c, 8, 41, 64
13, 115430, Note_on_c, 8, 41, 88
13, 115525, Note_off_c, 8, 41, 64
13, 115675, Note_on_c, 8, 41, 109
13, 115795, Note_off_c, 8, 41, 64
13, 115900, Note_on_c, 8, 41, 88
13, 116010, Note_off_c, 8, 41, 64
13, 116145, Note_on_c, 8, 41, 88
13, 116245, Note_off_c, 8, 41, 64
13, 116385, Note_on_c, 8, 41, 93
13, 116485, Note_off_c, 8, 41, 64
13, 116630, Note_on_c, 8, 41, 101
13, 116740, Note_off_c, 8, 41, 64
13, 116875, Note_on_c, 8, 41, 93
13, 116980, Note_off_c, 8, 41, 64
13, 117110, Note_on_c, 8, 41, 93
13, 117220, Note_off_c, 8, 41, 64
13, 117355, Note_on_c, 8, 41, 88
13, 117450, Note_off_c, 8, 41, 64
13, 117605, Note_on_c, 8, 41, 101
13, 117715, Note_off_c, 8, 41, 64
13, 117835, Note_on_c, 8, 41, 86
13, 117930, Note_off_c, 8, 41, 64
13, 118065, Note_on_c, 8, 41, 91
13, 118165, Note_off_c, 8, 41, 64
13, 118290, Note_on_c, 8, 41, 88
13, 118385, Note_off_c, 8, 41, 64
13, 118540, Note_on_c, 8, 41, 101
13, 118650, Note_off_c, 8, 41, 64
13, 118785, Note_on_c, 8, 41, 86
13, 118875, Note_off_c, 8, 41, 64
13, 119030, Note_on_c, 8, 41, 91
13, 119130, Note_off_c, 8, 41, 64
13, 119270, Note_on_c, 8, 41, 93
13, 119360, Note_off_c, 8, 41, 64
13, 119510, Note_on_c, 8, 41, 101
13, 119620, Note_off_c, 8, 41, 64
13, 119740, Note_on_c, 8, 41, 86
13, 119835, Note_off_c, 8, 41, 64
13, 119980, Note_on_c, 8, 41, 96
13, 120075, Note_off_c, 8, 41, 64
13, 120220, Note_on_c, 8, 41, 88
13, 120310, Note_off_c, 8, 41, 64
13, 120475, Note_on_c, 8, 41, 104
13, 120585, Note_off_c, 8, 41, 64
13, 120705, Note_on_c, 8, 41, 91
13, 120815, Note_off_c, 8, 41, 64
13, 120950, Note_on_c, 8, 41, 91
13, 121055, Note_off_c, 8, 41, 64
13, 121195, Note_on_c, 8, 41, 91
13, 121290, Note_off_c, 8, 41, 64
13, 121435, Note_on_c, 8, 41, 101
13, 121545, Note_off_c, 8, 41, 64
13, 121675, Note_on_c, 8, 41, 91
13, 121780, Note_off_c, 8, 41, 64
13, 121925, Note_on_c, 8, 41, 93
13, 122025, Note_off_c, 8, 41, 64
13, 122160, Note_on_c, 8, 41, 91
13, 122255, Note_off_c, 8, 41, 64
13, 122400, Note_on_c, 8, 41, 101
13, 122520, Note_off_c, 8, 41, 64
13, 122645, Note_on_c, 8, 41, 88
13, 122750, Note_off_c, 8, 41, 64
13, 122880, Note_on_c, 8, 41, 91
13, 122990, Note_off_c, 8, 41, 64
13, 123115, Note_on_c, 8, 41, 88
13, 123215, Note_off_c, 8, 41, 64
13, 123360, Note_on_c, 8, 41, 98
13, 123475, Note_off_c, 8, 41, 64
13, 123600, Note_on_c, 8, 41, 91
13, 123705, Note_off_c, 8, 41, 64
13, 123830, Note_on_c, 8, 41, 88
13, 123940, Note_off_c, 8, 41, 64
13, 124065, Note_on_c, 8, 41, 91
13, 124170, Note_off_c, 8, 41, 64
13, 124305, Note_on_c, 8, 41, 93
13, 124420, Note_off_c, 8, 41, 64
13, 124560, Note_on_c, 8, 41, 91
13, 124685, Note_off_c, 8, 41, 64
13, 155525, Note_on_c, 8, 41, 101
13, 155630, Note_off_c, 8, 41, 64
13, 155760, Note_on_c, 8, 41, 83
13, 155840, Note_off_c, 8, 41, 64
13, 155990, Note_on_c, 8, 41, 96
13, 156100, Note_off_c, 8, 41, 64
13, 156215, Note_on_c, 8, 41, 76
13, 156320, Note_off_c, 8, 41, 64
13, 156485, Note_on_c, 8, 41, 86
13, 156600, Note_off_c, 8, 41, 64
13, 156720, Note_on_c, 8, 41, 73
13, 156815, Note_off_c, 8, 41, 64
13, 156950, Note_on_c, 8, 41, 88
13, 157060, Note_off_c, 8, 41, 64
13, 157195, Note_on_c, 8, 41, 73
13, 157295, Note_off_c, 8, 41, 64
13, 157435, Note_on_c, 8, 41, 93
13, 157545, Note_off_c, 8, 41, 64
13, 157660, Note_on_c, 8, 41, 83
13, 157755, Note_off_c, 8, 41, 64
13, 157915, Note_on_c, 8, 41, 104
13, 158025, Note_off_c, 8, 41, 64
13, 158145, Note_on_c, 8, 41, 88
13, 158245, Note_off_c, 8, 41, 64
13, 158385, Note_on_c, 8, 41, 91
13, 158490, Note_off_c, 8, 41, 64
13, 158635, Note_on_c, 8, 41, 86
13, 158730, Note_off_c, 8, 41, 64
13, 158870, Note_on_c, 8, 41, 98
13, 158980, Note_off_c, 8, 41, 64
13, 159110, Note_on_c, 8, 41, 81
13, 159215, Note_off_c, 8, 41, 64
13, 159350, Note_on_c, 8, 41, 93
13, 159460, Note_off_c, 8, 41, 64
13, 159595, Note_on_c, 8, 41, 83
13, 159690, Note_off_c, 8, 41, 64
13, 159840, Note_on_c, 8, 41, 93
13, 159950, Note_off_c, 8, 41, 64
13, 160085, Note_on_c, 8, 41, 91
13, 160185, Note_off_c, 8, 41, 64
13, 160330, Note_on_c, 8, 41, 96
13, 160435, Note_off_c, 8, 41, 64
13, 160575, Note_on_c, 8, 41, 91
13, 160680, Note_off_c, 8, 41, 64
13, 160810, Note_on_c, 8, 41, 91
13, 160920, Note_off_c, 8, 41, 64
13, 161045, Note_on_c, 8, 41, 91
13, 161150, Note_off_c, 8, 41, 64
13, 161280, Note_on_c, 8, 41, 98
13, 161390, Note_off_c, 8, 41, 64
13, 161510, Note_on_c, 8, 41, 88
13, 161610, Note_off_c, 8, 41, 64
13, 161750, Note_on_c, 8, 41, 93
13, 161855, Note_off_c, 8, 41, 64
13, 161995, Note_on_c, 8, 41, 91
13, 162105, Note_off_c, 8, 41, 64
13, 162240, Note_on_c, 8, 41, 91
13, 162340, Note_off_c, 8, 41, 64
13, 162470, Note_on_c, 8, 41, 86
13, 162575, Note_off_c, 8, 41, 64
13, 162710, Note_on_c, 8, 41, 91
13, 162815, Note_off_c, 8, 41, 64
13, 162940, Note_on_c, 8, 41, 86
13, 163080, Note_off_c, 8, 41, 64
13, 163080, End_track
14, 0, Start_track
14, 0, Title_t, "Guitar 6"
14, 0, MIDI_port, 0
14, 0, Channel_prefix, 10
14, 0, Control_c, 10, 7, 120
14, 0, Control_c, 10, 10, 59
14, 0, Program_c, 10, 26
14, 0, Control_c, 10, 11, 127
14, 0, Control_c, 10, 91, 80
14, 0, Control_c, 10, 93, 50
14, 161760, Control_c, 10, 11, 118
14, 161820, Control_c, 10, 11, 115
14, 161845, Control_c, 10, 11, 114
14, 162055, Control_c, 10, 11, 112
14, 162085, Control_c, 10, 11, 111
14, 162720, Note_on_c, 10, 70, 87
14, 162720, Note_on_c, 10, 58, 91
14, 162815, Note_off_c, 10, 58, 64
14, 162815, Note_off_c, 10, 70, 64
14, 162960, Note_on_c, 10, 70, 87
14, 162960, Note_on_c, 10, 58, 91
14, 163000, Control_c, 10, 11, 110
14, 163105, Note_off_c, 10, 58, 64
14, 163105, Note_off_c, 10, 70, 64
14, 163155, Pitch_bend_c, 10, 7273
14, 163155, Pitch_bend_c, 10, 7273
14, 163165, Pitch_bend_c, 10, 3898
14, 163165, Pitch_bend_c, 10, 3898
14, 163175, Pitch_bend_c, 10, 0
14, 163175, Pitch_bend_c, 10, 0
14, 163200, Note_on_c, 10, 62, 109
14, 163200, Note_on_c, 10, 50, 113
14, 163290, Pitch_bend_c, 10, 179
14, 163290, Pitch_bend_c, 10, 179
14, 163305, Pitch_bend_c, 10, 1572
14, 163305, Pitch_bend_c, 10, 1572
14, 163315, Pitch_bend_c, 10, 2893
14, 163315, Pitch_bend_c, 10, 2893
14, 163325, Pitch_bend_c, 10, 4287
14, 163325, Pitch_bend_c, 10, 4287
14, 163335, Pitch_bend_c, 10, 5536
14, 163335, Pitch_bend_c, 10, 5536
14, 163345, Pitch_bend_c, 10, 6644
14, 163345, Pitch_bend_c, 10, 6644
14, 163360, Pitch_bend_c, 10, 7608
14, 163360, Pitch_bend_c, 10, 7608
14, 163370, Pitch_bend_c, 10, 8139
14, 163370, Pitch_bend_c, 10, 8139
14, 163380, Pitch_bend_c, 10, 8192
14, 163380, Pitch_bend_c, 10, 8192
14, 163395, Control_c, 10, 11, 108
14, 163425, Control_c, 10, 11, 106
14, 163460, Control_c, 10, 11, 104
14, 163490, Control_c, 10, 11, 103
14, 163585, Note_off_c, 10, 50, 64
14, 163585, Note_off_c, 10, 62, 64
14, 163655, Note_on_c, 10, 65, 101
14, 163655, Note_on_c, 10, 53, 105
14, 163870, Control_c, 10, 11, 102
14, 163910, Control_c, 10, 1, 76
14, 163910, Control_c, 10, 1, 76
14, 164530, Note_off_c, 10, 53, 64
14, 164530, Note_off_c, 10, 65, 64
14, 164580, Control_c, 10, 1, 0
14, 164580, Control_c, 10, 1, 0
14, 164640, Note_on_c, 10, 65, 109
14, 164640, Note_on_c, 10, 53, 113
14, 165060, Note_off_c, 10, 53, 64
14, 165060, Note_off_c, 10, 65, 64
14, 165120, Note_on_c, 10, 67, 109
14, 165120, Note_on_c, 10, 55, 113
14, 165340, Note_off_c, 10, 55, 64
14, 165340, Note_off_c, 10, 67, 64
14, 165360, Note_on_c, 10, 65, 83
14, 165360, Note_on_c, 10, 53, 87
14, 165470, Note_off_c, 10, 53, 64
14, 165470, Note_off_c, 10, 65, 64
14, 165580, Note_on_c, 10, 65, 91
14, 165580, Note_on_c, 10, 53, 95
14, 165815, Control_c, 10, 1, 76
14, 165815, Control_c, 10, 1, 76
14, 165940, Note_off_c, 10, 53, 64
14, 165940, Note_off_c, 10, 65, 64
14, 166070, Note_on_c, 10, 65, 109
14, 166070, Note_on_c, 10, 53, 113
14, 166120, Control_c, 10, 1, 0
14, 166120, Control_c, 10, 1, 0
14, 166480, Note_off_c, 10, 53, 64
14, 166480, Note_off_c, 10, 65, 64
14, 166575, Note_on_c, 10, 58, 97
14, 166575, Note_on_c, 10, 46, 101
14, 166660, Note_off_c, 10, 46, 64
14, 166660, Note_off_c, 10, 58, 64
14, 166790, Note_on_c, 10, 58, 87
14, 166790, Note_on_c, 10, 46, 91
14, 166890, Control_c, 10, 11, 101
14, 166975, Note_off_c, 10, 46, 64
14, 166975, Note_off_c, 10, 58, 64
14, 167005, Pitch_bend_c, 10, 7255
14, 167005, Pitch_bend_c, 10, 7255
14, 167015, Pitch_bend_c, 10, 4255
14, 167015, Pitch_bend_c, 10, 4255
14, 167030, Pitch_bend_c, 10, 755
14, 167030, Pitch_bend_c, 10, 755
14, 167040, Pitch_bend_c, 10, 0
14, 167040, Pitch_bend_c, 10, 0
14, 167050, Note_on_c, 10, 62, 109
14, 167050, Note_on_c, 10, 50, 113
14, 167115, Pitch_bend_c, 10, 286
14, 167115, Pitch_bend_c, 10, 286
14, 167130, Pitch_bend_c, 10, 1519
14, 167130, Pitch_bend_c, 10, 1519
14, 167140, Pitch_bend_c, 10, 2893
14, 167140, Pitch_bend_c, 10, 2893
14, 167150, Pitch_bend_c, 10, 4447
14, 167150, Pitch_bend_c, 10, 4447
14, 167160, Pitch_bend_c, 10, 5965
14, 167160, Pitch_bend_c, 10, 5965
14, 167170, Pitch_bend_c, 10, 7394
14, 167170, Pitch_bend_c, 10, 7394
14, 167185, Pitch_bend_c, 10, 8184
14, 167185, Pitch_bend_c, 10, 8184
14, 167195, Pitch_bend_c, 10, 8192
14, 167195, Pitch_bend_c, 10, 8192
14, 167440, Note_off_c, 10, 50, 64
14, 167440, Note_off_c, 10, 62, 64
14, 167505, Note_on_c, 10, 65, 96
14, 167505, Note_on_c, 10, 53, 100
14, 167680, Control_c, 10, 11, 100
14, 167725, Control_c, 10, 1, 76
14, 167725, Control_c, 10, 1, 76
14, 168370, Note_off_c, 10, 53, 64
14, 168370, Note_off_c, 10, 65, 64
14, 168420, Control_c, 10, 1, 0
14, 168420, Control_c, 10, 1, 0
14, 168485, Note_on_c, 10, 65, 96
14, 168485, Note_on_c, 10, 53, 100
14, 168880, Note_off_c, 10, 53, 64
14, 168880, Note_off_c, 10, 65, 64
14, 168965, Note_on_c, 10, 67, 104
14, 168965, Note_on_c, 10, 55, 108
14, 169025, Control_c, 10, 11, 101
14, 169160, Note_off_c, 10, 55, 64
14, 169160, Note_off_c, 10, 67, 64
14, 169200, Note_on_c, 10, 65, 88
14, 169200, Note_on_c, 10, 53, 92
14, 169300, Note_off_c, 10, 53, 64
14, 169300, Note_off_c, 10, 65, 64
14, 169440, Note_on_c, 10, 65, 96
14, 169440, Note_on_c, 10, 53, 100
14, 169820, Note_off_c, 10, 53, 64
14, 169820, Note_off_c, 10, 65, 64
14, 169915, Note_on_c, 10, 65, 91
14, 169915, Note_on_c, 10, 53, 95
14, 170275, Note_off_c, 10, 53, 64
14, 170275, Note_off_c, 10, 65, 64
14, 170415, Note_on_c, 10, 65, 96
14, 170415, Note_on_c, 10, 53, 100
14, 170525, Note_off_c, 10, 53, 64
14, 170525, Note_off_c, 10, 65, 64
14, 170625, Note_on_c, 10, 65, 88
14, 170625, Note_on_c, 10, 53, 92
14, 170780, Note_off_c, 10, 53, 64
14, 170780, Note_off_c, 10, 65, 64
14, 170820, Pitch_bend_c, 10, 7184
14, 170820, Pitch_bend_c, 10, 7184
14, 170830, Pitch_bend_c, 10, 3398
14, 170830, Pitch_bend_c, 10, 3398
14, 170840, Pitch_bend_c, 10, 0
14, 170840, Pitch_bend_c, 10, 0
14, 170865, Note_on_c, 10, 57, 101
14, 170865, Note_on_c, 10, 45, 105
14, 170965, Pitch_bend_c, 10, 1465
14, 170965, Pitch_bend_c, 10, 1465
14, 170975, Pitch_bend_c, 10, 3108
14, 170975, Pitch_bend_c, 10, 3108
14, 170990, Pitch_bend_c, 10, 4751
14, 170990, Pitch_bend_c, 10, 4751
14, 171000, Pitch_bend_c, 10, 6251
14, 171000, Pitch_bend_c, 10, 6251
14, 171010, Pitch_bend_c, 10, 7429
14, 171010, Pitch_bend_c, 10, 7429
14, 171020, Pitch_bend_c, 10, 8126
14, 171020, Pitch_bend_c, 10, 8126
14, 171030, Pitch_bend_c, 10, 8192
14, 171030, Pitch_bend_c, 10, 8192
14, 171305, Note_off_c, 10, 45, 64
14, 171305, Note_off_c, 10, 57, 64
14, 171355, Note_on_c, 10, 60, 101
14, 171355, Note_on_c, 10, 48, 105
14, 171590, Control_c, 10, 1, 76
14, 171590, Control_c, 10, 1, 76
14, 172060, Control_c, 10, 1, 0
14, 172060, Control_c, 10, 1, 0
14, 172205, Note_off_c, 10, 48, 64
14, 172205, Note_off_c, 10, 60, 64
14, 172265, Pitch_bend_c, 10, 6612
14, 172265, Pitch_bend_c, 10, 6612
14, 172275, Pitch_bend_c, 10, 1612
14, 172275, Pitch_bend_c, 10, 1612
14, 172285, Pitch_bend_c, 10, 0
14, 172285, Pitch_bend_c, 10, 0
14, 172300, Note_on_c, 10, 62, 104
14, 172300, Note_on_c, 10, 50, 108
14, 172395, Pitch_bend_c, 10, 822
14, 172395, Pitch_bend_c, 10, 822
14, 172405, Pitch_bend_c, 10, 2787
14, 172405, Pitch_bend_c, 10, 2787
14, 172415, Pitch_bend_c, 10, 4804
14, 172415, Pitch_bend_c, 10, 4804
14, 172430, Pitch_bend_c, 10, 6608
14, 172430, Pitch_bend_c, 10, 6608
14, 172440, Pitch_bend_c, 10, 8072
14, 172440, Pitch_bend_c, 10, 8072
14, 172450, Pitch_bend_c, 10, 8192
14, 172450, Pitch_bend_c, 10, 8192
14, 172655, Note_off_c, 10, 50, 64
14, 172655, Note_off_c, 10, 62, 64
14, 172775, Note_on_c, 10, 57, 93
14, 172775, Note_on_c, 10, 45, 97
14, 172965, Note_off_c, 10, 45, 64
14, 172965, Note_off_c, 10, 57, 64
14, 173000, Note_on_c, 10, 55, 79
14, 173000, Note_on_c, 10, 43, 83
14, 173235, Note_off_c, 10, 43, 64
14, 173235, Note_off_c, 10, 55, 64
14, 173265, Note_on_c, 10, 53, 96
14, 173265, Note_on_c, 10, 41, 100
14, 173665, Note_off_c, 10, 41, 64
14, 173665, Note_off_c, 10, 53, 64
14, 173755, Note_on_c, 10, 53, 96
14, 173755, Note_on_c, 10, 41, 100
14, 174210, Pitch_bend_c, 10, 8144
14, 174210, Pitch_bend_c, 10, 8144
14, 174220, Pitch_bend_c, 10, 8094
14, 174220, Pitch_bend_c, 10, 8094
14, 174225, Control_c, 10, 1, 76
14, 174225, Control_c, 10, 1, 76
14, 174245, Pitch_bend_c, 10, 8103
14, 174245, Pitch_bend_c, 10, 8103
14, 174295, Pitch_bend_c, 10, 8112
14, 174295, Pitch_bend_c, 10, 8112
14, 174605, Pitch_bend_c, 10, 8099
14, 174605, Pitch_bend_c, 10, 8099
14, 174615, Pitch_bend_c, 10, 8121
14, 174615, Pitch_bend_c, 10, 8121
14, 174625, Control_c, 10, 1, 0
14, 174625, Control_c, 10, 1, 0
14, 174630, Pitch_bend_c, 10, 8192
14, 174630, Pitch_bend_c, 10, 8192
14, 174685, Note_off_c, 10, 41, 64
14, 174685, Note_off_c, 10, 53, 64
14, 174700, Pitch_bend_c, 10, 6469
14, 174700, Pitch_bend_c, 10, 6469
14, 174705, Pitch_bend_c, 10, 2469
14, 174705, Pitch_bend_c, 10, 2469
14, 174715, Pitch_bend_c, 10, 0
14, 174715, Pitch_bend_c, 10, 0
14, 174725, Note_on_c, 10, 57, 96
14, 174725, Note_on_c, 10, 45, 100
14, 174805, Pitch_bend_c, 10, 393
14, 174805, Pitch_bend_c, 10, 393
14, 174820, Pitch_bend_c, 10, 2679
14, 174820, Pitch_bend_c, 10, 2679
14, 174830, Pitch_bend_c, 10, 4965
14, 174830, Pitch_bend_c, 10, 4965
14, 174840, Pitch_bend_c, 10, 7036
14, 174840, Pitch_bend_c, 10, 7036
14, 174850, Pitch_bend_c, 10, 8192
14, 174850, Pitch_bend_c, 10, 8192
14, 175170, Note_off_c, 10, 45, 64
14, 175170, Note_off_c, 10, 57, 64
14, 175200, Note_on_c, 10, 60, 101
14, 175200, Note_on_c, 10, 48, 105
14, 175420, Control_c, 10, 1, 76
14, 175420, Control_c, 10, 1, 76
14, 175905, Control_c, 10, 1, 0
14, 175905, Control_c, 10, 1, 0
14, 176050, Note_off_c, 10, 48, 64
14, 176050, Note_off_c, 10, 60, 64
14, 176130, Pitch_bend_c, 10, 8130
14, 176130, Pitch_bend_c, 10, 8130
14, 176140, Pitch_bend_c, 10, 4041
14, 176140, Pitch_bend_c, 10, 4041
14, 176150, Pitch_bend_c, 10, 0
14, 176150, Pitch_bend_c, 10, 0
14, 176170, Note_on_c, 10, 62, 96
14, 176170, Note_on_c, 10, 50, 100
14, 176270, Pitch_bend_c, 10, 1072
14, 176270, Pitch_bend_c, 10, 1072
14, 176280, Pitch_bend_c, 10, 2787
14, 176280, Pitch_bend_c, 10, 2787
14, 176290, Pitch_bend_c, 10, 4536
14, 176290, Pitch_bend_c, 10, 4536
14, 176300, Pitch_bend_c, 10, 6322
14, 176300, Pitch_bend_c, 10, 6322
14, 176315, Pitch_bend_c, 10, 7822
14, 176315, Pitch_bend_c, 10, 7822
14, 176325, Pitch_bend_c, 10, 8192
14, 176325, Pitch_bend_c, 10, 8192
14, 176445, Note_off_c, 10, 50, 64
14, 176445, Note_off_c, 10, 62, 64
14, 176620, Note_on_c, 10, 57, 93
14, 176620, Note_on_c, 10, 45, 97
14, 176845, Note_off_c, 10, 45, 64
14, 176845, Note_off_c, 10, 57, 64
14, 176865, Note_on_c, 10, 55, 81
14, 176865, Note_on_c, 10, 43, 85
14, 177025, Note_off_c, 10, 43, 64
14, 177025, Note_off_c, 10, 55, 64
14, 177100, Note_on_c, 10, 53, 83
14, 177100, Note_on_c, 10, 41, 87
14, 177435, Note_off_c, 10, 41, 64
14, 177435, Note_off_c, 10, 53, 64
14, 177590, Note_on_c, 10, 53, 86
14, 177590, Note_on_c, 10, 41, 90
14, 177950, Note_off_c, 10, 41, 64
14, 177950, Note_off_c, 10, 53, 64
14, 178075, Note_on_c, 10, 58, 93
14, 178075, Note_on_c, 10, 46, 97
14, 178165, Note_off_c, 10, 46, 64
14, 178165, Note_off_c, 10, 58, 64
14, 178295, Note_on_c, 10, 58, 93
14, 178295, Note_on_c, 10, 46, 97
14, 178470, Note_off_c, 10, 46, 64
14, 178470, Note_off_c, 10, 58, 64
14, 178505, Pitch_bend_c, 10, 7041
14, 178505, Pitch_bend_c, 10, 7041
14, 178515, Pitch_bend_c, 10, 3755
14, 178515, Pitch_bend_c, 10, 3755
14, 178530, Pitch_bend_c, 10, 184
14, 178530, Pitch_bend_c, 10, 184
14, 178535, Pitch_bend_c, 10, 0
14, 178535, Pitch_bend_c, 10, 0
14, 178555, Note_on_c, 10, 58, 28
14, 178555, Note_on_c, 10, 46, 32
14, 178570, Note_on_c, 10, 62, 98
14, 178570, Note_on_c, 10, 50, 102
14, 178605, Note_off_c, 10, 46, 64
14, 178605, Note_off_c, 10, 58, 64
14, 178655, Pitch_bend_c, 10, 929
14, 178655, Pitch_bend_c, 10, 929
14, 178670, Pitch_bend_c, 10, 2554
14, 178670, Pitch_bend_c, 10, 2554
14, 178675, Pitch_bend_c, 10, 4108
14, 178675, Pitch_bend_c, 10, 4108
14, 178690, Pitch_bend_c, 10, 5715
14, 178690, Pitch_bend_c, 10, 5715
14, 178700, Pitch_bend_c, 10, 7036
14, 178700, Pitch_bend_c, 10, 7036
14, 178710, Pitch_bend_c, 10, 8099
14, 178710, Pitch_bend_c, 10, 8099
14, 178720, Pitch_bend_c, 10, 8192
14, 178720, Pitch_bend_c, 10, 8192
14, 178930, Note_off_c, 10, 62, 64
14, 178930, Note_off_c, 10, 50, 64
14, 179015, Note_on_c, 10, 65, 98
14, 179015, Note_on_c, 10, 53, 102
14, 179400, Note_off_c, 10, 53, 64
14, 179400, Note_off_c, 10, 65, 64
14, 179505, Note_on_c, 10, 65, 91
14, 179505, Note_on_c, 10, 53, 95
14, 179925, Note_off_c, 10, 53, 64
14, 179925, Note_off_c, 10, 65, 64
14, 180000, Note_on_c, 10, 65, 101
14, 180000, Note_on_c, 10, 53, 105
14, 180260, Control_c, 10, 1, 76
14, 180260, Control_c, 10, 1, 76
14, 180410, Note_off_c, 10, 53, 64
14, 180410, Note_off_c, 10, 65, 64
14, 180470, Note_on_c, 10, 67, 98
14, 180470, Note_on_c, 10, 55, 102
14, 180475, Control_c, 10, 1, 0
14, 180475, Control_c, 10, 1, 0
14, 180645, Note_off_c, 10, 55, 64
14, 180645, Note_off_c, 10, 67, 64
14, 180700, Note_on_c, 10, 65, 88
14, 180700, Note_on_c, 10, 53, 92
14, 180830, Note_off_c, 10, 53, 64
14, 180830, Note_off_c, 10, 65, 64
14, 180940, Note_on_c, 10, 65, 101
14, 180940, Note_on_c, 10, 53, 105
14, 181145, Control_c, 10, 1, 76
14, 181145, Control_c, 10, 1, 76
14, 181295, Note_off_c, 10, 53, 64
14, 181295, Note_off_c, 10, 65, 64
14, 181410, Note_on_c, 10, 65, 98
14, 181410, Note_on_c, 10, 53, 102
14, 181855, Note_off_c, 10, 53, 64
14, 181855, Note_off_c, 10, 65, 64
14, 181900, Note_on_c, 10, 62, 86
14, 181900, Note_on_c, 10, 50, 90
14, 182005, Control_c, 10, 1, 0
14, 182005, Control_c, 10, 1, 0
14, 182095, Note_off_c, 10, 50, 64
14, 182095, Note_off_c, 10, 62, 64
14, 182125, Note_on_c, 10, 65, 91
14, 182125, Note_on_c, 10, 53, 95
14, 182300, Note_off_c, 10, 53, 64
14, 182300, Note_off_c, 10, 65, 64
14, 182370, Note_on_c, 10, 67, 98
14, 182370, Note_on_c, 10, 55, 102
14, 182605, Note_off_c, 10, 55, 64
14, 182605, Note_off_c, 10, 67, 64
14, 182620, Note_on_c, 10, 65, 88
14, 182620, Note_on_c, 10, 53, 92
14, 182730, Note_off_c, 10, 53, 64
14, 182730, Note_off_c, 10, 65, 64
14, 182875, Note_on_c, 10, 65, 96
14, 182875, Note_on_c, 10, 53, 100
14, 183090, Control_c, 10, 1, 76
14, 183090, Control_c, 10, 1, 76
14, 183260, Note_off_c, 10, 53, 64
14, 183260, Note_off_c, 10, 65, 64
14, 183370, Note_on_c, 10, 65, 104
14, 183370, Note_on_c, 10, 53, 108
14, 183375, Control_c, 10, 1, 0
14, 183375, Control_c, 10, 1, 0
14, 183760, Note_off_c, 10, 53, 64
14, 183760, Note_off_c, 10, 65, 64
14, 183860, Note_on_c, 10, 65, 101
14, 183860, Note_on_c, 10, 53, 105
14, 184055, Control_c, 10, 1, 76
14, 184055, Control_c, 10, 1, 76
14, 184700, Note_off_c, 10, 53, 64
14, 184700, Note_off_c, 10, 65, 64
14, 184785, Note_on_c, 10, 65, 101
14, 184785, Note_on_c, 10, 53, 105
14, 184795, Control_c, 10, 1, 0
14, 184795, Control_c, 10, 1, 0
14, 185030, Control_c, 10, 1, 76
14, 185030, Control_c, 10, 1, 76
14, 185180, Note_off_c, 10, 53, 64
14, 185180, Note_off_c, 10, 65, 64
14, 185255, Note_on_c, 10, 65, 96
14, 185255, Note_on_c, 10, 53, 100
14, 185280, Control_c, 10, 1, 0
14, 185280, Control_c, 10, 1, 0
14, 185495, Note_on_c, 10, 67, 91
14, 185495, Note_on_c, 10, 55, 95
14, 185500, Note_off_c, 10, 53, 64
14, 185500, Note_off_c, 10, 65, 64
14, 185655, Control_c, 10, 1, 76
14, 185655, Control_c, 10, 1, 76
14, 186040, Note_off_c, 10, 67, 64
14, 186040, Note_off_c, 10, 55, 64
14, 186070, Control_c, 10, 1, 0
14, 186070, Control_c, 10, 1, 0
14, 186320, Control_c, 10, 11, 105
14, 186350, Control_c, 10, 11, 107
14, 186380, Control_c, 10, 11, 110
14, 186440, Control_c, 10, 11, 111
14, 187330, Control_c, 10, 11, 113
14, 187370, Control_c, 10, 11, 114
14, 187440, Control_c, 10, 11, 115
14, 187530, Control_c, 10, 11, 116
14, 187570, Control_c, 10, 11, 118
14, 187950, Control_c, 10, 11, 119
14, 187975, Control_c, 10, 11, 121
14, 188010, Control_c, 10, 11, 123
14, 189135, Control_c, 10, 11, 122
14, 189165, Control_c, 10, 11, 121
14, 189880, Control_c, 10, 11, 120
14, 192860, Control_c, 10, 11, 119
14, 196665, Control_c, 10, 11, 121
14, 197810, Control_c, 10, 11, 120
14, 216970, Note_on_c, 10, 69, 91
14, 217190, Note_off_c, 10, 69, 64
14, 217205, Control_c, 10, 64, 127
14, 217210, Note_on_c, 10, 60, 59
14, 217435, Note_on_c, 10, 65, 65
14, 217535, Note_off_c, 10, 60, 64
14, 217605, Note_off_c, 10, 65, 64
14, 217680, Note_on_c, 10, 70, 80
14, 218155, Note_off_c, 10, 70, 64
14, 218170, Note_on_c, 10, 60, 73
14, 218400, Note_on_c, 10, 65, 71
14, 218595, Note_off_c, 10, 65, 64
14, 218605, Note_off_c, 10, 60, 64
14, 218630, Note_on_c, 10, 70, 76
14, 218740, Note_off_c, 10, 70, 64
14, 218880, Note_on_c, 10, 69, 88
14, 218910, Control_c, 10, 64, 0
14, 219070, Control_c, 10, 64, 127
14, 219115, Note_on_c, 10, 60, 76
14, 219235, Note_off_c, 10, 69, 64
14, 219370, Note_on_c, 10, 65, 31
14, 219475, Note_off_c, 10, 65, 64
14, 219600, Note_on_c, 10, 67, 83
14, 219725, Control_c, 10, 64, 0
14, 219910, Note_off_c, 10, 60, 64
14, 220080, Note_on_c, 10, 60, 73
14, 220315, Note_on_c, 10, 65, 81
14, 220745, Note_off_c, 10, 60, 64
14, 220755, Note_off_c, 10, 65, 64
14, 220760, Note_off_c, 10, 67, 64
14, 251515, Control_c, 10, 64, 127
14, 251530, Note_on_c, 10, 69, 88
14, 251740, Note_off_c, 10, 69, 64
14, 251765, Note_on_c, 10, 60, 73
14, 251990, Note_on_c, 10, 65, 81
14, 252060, Note_off_c, 10, 60, 64
14, 252155, Note_off_c, 10, 65, 64
14, 252250, Note_on_c, 10, 70, 93
14, 252585, Note_off_c, 10, 70, 64
14, 252720, Note_on_c, 10, 60, 79
14, 252870, Note_off_c, 10, 60, 64
14, 252960, Note_on_c, 10, 65, 67
14, 253100, Note_off_c, 10, 65, 64
14, 253190, Note_on_c, 10, 70, 80
14, 253285, Note_off_c, 10, 70, 64
14, 253450, Note_on_c, 10, 69, 83
14, 253680, Note_on_c, 10, 60, 63
14, 253690, Note_off_c, 10, 69, 64
14, 253910, Note_on_c, 10, 65, 67
14, 254055, Note_off_c, 10, 65, 64
14, 254170, Note_on_c, 10, 67, 83
14, 254285, Control_c, 10, 64, 0
14, 254485, Note_off_c, 10, 60, 64
14, 254635, Note_on_c, 10, 60, 76
14, 254870, Note_off_c, 10, 67, 64
14, 254870, Note_off_c, 10, 60, 64
14, 254870, Note_on_c, 10, 65, 83
14, 254871, Note_off_c, 10, 65, 64
14, 254871, End_track
15, 0, Start_track
15, 0, Title_t, "Vocals"
15, 0, MIDI_port, 0
15, 0, Channel_prefix, 11
15, 0, Control_c, 11, 7, 90
15, 0, Control_c, 11, 10, 64
15, 0, Program_c, 11, 52
15, 0, Control_c, 11, 91, 127
15, 0, Control_c, 11, 93, 33
15, 24480, Note_on_c, 11, 60, 104
15, 24580, Note_off_c, 11, 60, 64
15, 24705, Note_on_c, 11, 60, 104
15, 24855, Note_off_c, 11, 60, 64
15, 24940, Note_on_c, 11, 65, 96
15, 25080, Note_off_c, 11, 65, 64
15, 25185, Note_on_c, 11, 65, 96
15, 25305, Note_off_c, 11, 65, 64
15, 25420, Note_on_c, 11, 65, 96
15, 25655, Note_off_c, 11, 65, 64
15, 25880, Note_on_c, 11, 65, 104
15, 26015, Note_off_c, 11, 65, 64
15, 26130, Note_on_c, 11, 65, 96
15, 26420, Note_off_c, 11, 65, 64
15, 26615, Note_on_c, 11, 67, 98
15, 27290, Note_off_c, 11, 67, 64
15, 27325, Note_on_c, 11, 65, 96
15, 27520, Note_off_c, 11, 65, 64
15, 27550, Note_on_c, 11, 62, 88
15, 27685, Note_off_c, 11, 62, 64
15, 27805, Note_on_c, 11, 67, 96
15, 28580, Note_off_c, 11, 67, 64
15, 48005, Note_on_c, 11, 60, 104
15, 48160, Note_off_c, 11, 60, 64
15, 48245, Note_on_c, 11, 60, 96
15, 48405, Note_off_c, 11, 60, 64
15, 48485, Note_on_c, 11, 60, 112
15, 48755, Note_off_c, 11, 60, 64
15, 48955, Note_on_c, 11, 60, 109
15, 49295, Note_off_c, 11, 60, 64
15, 49430, Note_on_c, 11, 60, 101
15, 49560, Note_off_c, 11, 60, 64
15, 49655, Note_on_c, 11, 60, 93
15, 49790, Note_off_c, 11, 60, 64
15, 49910, Note_on_c, 11, 60, 109
15, 50055, Note_off_c, 11, 60, 64
15, 50150, Note_on_c, 11, 60, 93
15, 50450, Note_off_c, 11, 60, 64
15, 50645, Note_on_c, 11, 60, 104
15, 51320, Note_off_c, 11, 60, 64
15, 51365, Note_on_c, 11, 57, 104
15, 52110, Note_off_c, 11, 57, 64
15, 59515, Note_on_c, 11, 72, 115
15, 59520, Note_on_c, 11, 60, 104
15, 59715, Note_off_c, 11, 72, 64
15, 59740, Note_off_c, 11, 60, 64
15, 59985, Note_on_c, 11, 72, 115
15, 59995, Note_on_c, 11, 60, 109
15, 60215, Note_off_c, 11, 72, 64
15, 60240, Note_off_c, 11, 60, 64
15, 60440, Note_on_c, 11, 72, 109
15, 60445, Note_on_c, 11, 60, 109
15, 60580, Note_off_c, 11, 60, 64
15, 60585, Note_off_c, 11, 72, 64
15, 60690, Note_on_c, 11, 72, 88
15, 60700, Note_on_c, 11, 60, 104
15, 60820, Note_off_c, 11, 60, 64
15, 60825, Note_off_c, 11, 72, 64
15, 60945, Note_on_c, 11, 72, 104
15, 60950, Note_on_c, 11, 60, 104
15, 61055, Note_off_c, 11, 60, 64
15, 61065, Note_off_c, 11, 72, 64
15, 61175, Note_on_c, 11, 60, 96
15, 61175, Note_on_c, 11, 72, 101
15, 61310, Note_off_c, 11, 72, 64
15, 61340, Note_off_c, 11, 60, 64
15, 61420, Note_on_c, 11, 62, 104
15, 61440, Note_on_c, 11, 74, 104
15, 61720, Note_off_c, 11, 62, 64
15, 61775, Note_off_c, 11, 74, 64
15, 61860, Note_on_c, 11, 57, 96
15, 61875, Note_on_c, 11, 69, 101
15, 62055, Note_off_c, 11, 69, 64
15, 62075, Note_off_c, 11, 57, 64
15, 62135, Note_on_c, 11, 60, 104
15, 62150, Note_on_c, 11, 72, 109
15, 62960, Note_off_c, 11, 72, 64
15, 62965, Note_off_c, 11, 60, 64
15, 67200, Note_on_c, 11, 77, 115
15, 67395, Note_off_c, 11, 77, 64
15, 67395, Note_on_c, 11, 76, 86
15, 67560, Note_off_c, 11, 76, 64
15, 67670, Note_on_c, 11, 76, 112
15, 67920, Note_off_c, 11, 76, 64
15, 68130, Note_on_c, 11, 76, 112
15, 68355, Note_off_c, 11, 76, 64
15, 68380, Note_on_c, 11, 74, 109
15, 68705, Note_off_c, 11, 74, 64
15, 68860, Note_on_c, 11, 77, 112
15, 69275, Note_off_c, 11, 77, 64
15, 69335, Note_on_c, 11, 76, 104
15, 69475, Note_off_c, 11, 76, 64
15, 69590, Note_on_c, 11, 76, 112
15, 69840, Note_off_c, 11, 76, 64
15, 70065, Note_on_c, 11, 74, 109
15, 70850, Note_off_c, 11, 74, 64
15, 71010, Note_on_c, 11, 60, 91
15, 71015, Note_on_c, 11, 64, 91
15, 74695, Note_off_c, 11, 60, 64
15, 74710, Note_off_c, 11, 64, 64
15, 74880, Note_on_c, 11, 72, 104
15, 74885, Note_on_c, 11, 60, 101
15, 75095, Note_off_c, 11, 72, 64
15, 75120, Note_off_c, 11, 60, 64
15, 75325, Note_on_c, 11, 72, 104
15, 75330, Note_on_c, 11, 60, 101
15, 75605, Note_off_c, 11, 72, 64
15, 75610, Note_off_c, 11, 60, 64
15, 75795, Note_on_c, 11, 72, 104
15, 75800, Note_on_c, 11, 60, 104
15, 75935, Note_off_c, 11, 72, 64
15, 75945, Note_off_c, 11, 60, 64
15, 76040, Note_on_c, 11, 72, 101
15, 76050, Note_on_c, 11, 60, 104
15, 76170, Note_off_c, 11, 72, 64
15, 76175, Note_off_c, 11, 60, 64
15, 76290, Note_on_c, 11, 72, 104
15, 76290, Note_on_c, 11, 60, 101
15, 76415, Note_off_c, 11, 60, 64
15, 76415, Note_off_c, 11, 72, 64
15, 76525, Note_on_c, 11, 72, 101
15, 76530, Note_on_c, 11, 60, 91
15, 76710, Note_off_c, 11, 60, 64
15, 76715, Note_off_c, 11, 72, 64
15, 76765, Note_on_c, 11, 62, 88
15, 76795, Note_on_c, 11, 74, 98
15, 77155, Note_off_c, 11, 62, 64
15, 77190, Note_off_c, 11, 74, 64
15, 77245, Note_on_c, 11, 57, 86
15, 77245, Note_on_c, 11, 69, 96
15, 77420, Note_off_c, 11, 69, 64
15, 77450, Note_off_c, 11, 57, 64
15, 77500, Note_on_c, 11, 60, 101
15, 77510, Note_on_c, 11, 72, 109
15, 78245, Note_off_c, 11, 60, 64
15, 78270, Note_off_c, 11, 72, 64
15, 82530, Note_on_c, 11, 77, 101
15, 82535, Note_on_c, 11, 65, 96
15, 82935, Note_off_c, 11, 65, 64
15, 82965, Note_off_c, 11, 77, 64
15, 83010, Note_on_c, 11, 64, 88
15, 83015, Note_on_c, 11, 76, 98
15, 83320, Note_off_c, 11, 76, 64
15, 83340, Note_off_c, 11, 64, 64
15, 83480, Note_on_c, 11, 64, 73
15, 83485, Note_on_c, 11, 76, 101
15, 83920, Note_off_c, 11, 64, 64
15, 83945, Note_off_c, 11, 76, 64
15, 83970, Note_on_c, 11, 62, 86
15, 83970, Note_on_c, 11, 74, 101
15, 84225, Note_off_c, 11, 74, 64
15, 84265, Note_off_c, 11, 62, 64
15, 84420, Note_on_c, 11, 62, 81
15, 84435, Note_on_c, 11, 74, 98
15, 84630, Note_off_c, 11, 62, 64
15, 84650, Note_off_c, 11, 74, 64
15, 84655, Note_on_c, 11, 60, 61
15, 84680, Note_on_c, 11, 72, 91
15, 86210, Note_off_c, 11, 72, 64
15, 86240, Note_off_c, 11, 60, 64
15, 93825, Note_on_c, 11, 65, 96
15, 93930, Note_off_c, 11, 65, 64
15, 94060, Note_on_c, 11, 65, 104
15, 94385, Note_off_c, 11, 65, 64
15, 94535, Note_on_c, 11, 65, 104
15, 94875, Note_off_c, 11, 65, 64
15, 95010, Note_on_c, 11, 65, 109
15, 95360, Note_off_c, 11, 65, 64
15, 95485, Note_on_c, 11, 65, 101
15, 95840, Note_off_c, 11, 65, 64
15, 95965, Note_on_c, 11, 65, 101
15, 96315, Note_off_c, 11, 65, 64
15, 96430, Note_on_c, 11, 65, 104
15, 96550, Note_off_c, 11, 65, 64
15, 96665, Note_on_c, 11, 65, 96
15, 96765, Note_off_c, 11, 65, 64
15, 96920, Note_on_c, 11, 65, 101
15, 97975, Note_off_c, 11, 65, 64
15, 109190, Note_on_c, 11, 65, 104
15, 109300, Note_off_c, 11, 65, 64
15, 109425, Note_on_c, 11, 65, 101
15, 109740, Note_off_c, 11, 65, 64
15, 109915, Note_on_c, 11, 65, 109
15, 110210, Note_off_c, 11, 65, 64
15, 110385, Note_on_c, 11, 65, 104
15, 110955, Note_off_c, 11, 65, 64
15, 111125, Note_on_c, 11, 65, 98
15, 111240, Note_off_c, 11, 65, 64
15, 111345, Note_on_c, 11, 65, 98
15, 111680, Note_off_c, 11, 65, 64
15, 111825, Note_on_c, 11, 65, 109
15, 111950, Note_off_c, 11, 65, 64
15, 112065, Note_on_c, 11, 65, 101
15, 112165, Note_off_c, 11, 65, 64
15, 112310, Note_on_c, 11, 65, 104
15, 113375, Note_off_c, 11, 65, 64
15, 128635, Note_on_c, 11, 72, 115
15, 128640, Note_on_c, 11, 60, 104
15, 128835, Note_off_c, 11, 72, 64
15, 128860, Note_off_c, 11, 60, 64
15, 129105, Note_on_c, 11, 72, 115
15, 129115, Note_on_c, 11, 60, 109
15, 129335, Note_off_c, 11, 72, 64
15, 129360, Note_off_c, 11, 60, 64
15, 129560, Note_on_c, 11, 72, 109
15, 129565, Note_on_c, 11, 60, 109
15, 129700, Note_off_c, 11, 60, 64
15, 129705, Note_off_c, 11, 72, 64
15, 129810, Note_on_c, 11, 72, 88
15, 129820, Note_on_c, 11, 60, 104
15, 129940, Note_off_c, 11, 60, 64
15, 129945, Note_off_c, 11, 72, 64
15, 130065, Note_on_c, 11, 72, 104
15, 130070, Note_on_c, 11, 60, 104
15, 130175, Note_off_c, 11, 60, 64
15, 130185, Note_off_c, 11, 72, 64
15, 130295, Note_on_c, 11, 60, 96
15, 130295, Note_on_c, 11, 72, 101
15, 130430, Note_off_c, 11, 72, 64
15, 130460, Note_off_c, 11, 60, 64
15, 130540, Note_on_c, 11, 62, 104
15, 130560, Note_on_c, 11, 74, 104
15, 130840, Note_off_c, 11, 62, 64
15, 130895, Note_off_c, 11, 74, 64
15, 130980, Note_on_c, 11, 57, 96
15, 130995, Note_on_c, 11, 69, 101
15, 131175, Note_off_c, 11, 69, 64
15, 131195, Note_off_c, 11, 57, 64
15, 131255, Note_on_c, 11, 60, 104
15, 131270, Note_on_c, 11, 72, 109
15, 132080, Note_off_c, 11, 72, 64
15, 132085, Note_off_c, 11, 60, 64
15, 136320, Note_on_c, 11, 77, 115
15, 136515, Note_off_c, 11, 77, 64
15, 136515, Note_on_c, 11, 76, 86
15, 136680, Note_off_c, 11, 76, 64
15, 136790, Note_on_c, 11, 76, 112
15, 137040, Note_off_c, 11, 76, 64
15, 137250, Note_on_c, 11, 76, 112
15, 137475, Note_off_c, 11, 76, 64
15, 137500, Note_on_c, 11, 74, 109
15, 137825, Note_off_c, 11, 74, 64
15, 137980, Note_on_c, 11, 77, 112
15, 138395, Note_off_c, 11, 77, 64
15, 138455, Note_on_c, 11, 76, 104
15, 138595, Note_off_c, 11, 76, 64
15, 138710, Note_on_c, 11, 76, 112
15, 138960, Note_off_c, 11, 76, 64
15, 139185, Note_on_c, 11, 74, 109
15, 139970, Note_off_c, 11, 74, 64
15, 140130, Note_on_c, 11, 60, 91
15, 140135, Note_on_c, 11, 64, 91
15, 143815, Note_off_c, 11, 60, 64
15, 143830, Note_off_c, 11, 64, 64
15, 144000, Note_on_c, 11, 72, 104
15, 144005, Note_on_c, 11, 60, 101
15, 144215, Note_off_c, 11, 72, 64
15, 144240, Note_off_c, 11, 60, 64
15, 144445, Note_on_c, 11, 72, 104
15, 144450, Note_on_c, 11, 60, 101
15, 144725, Note_off_c, 11, 72, 64
15, 144730, Note_off_c, 11, 60, 64
15, 144915, Note_on_c, 11, 72, 104
15, 144920, Note_on_c, 11, 60, 104
15, 145055, Note_off_c, 11, 72, 64
15, 145065, Note_off_c, 11, 60, 64
15, 145160, Note_on_c, 11, 72, 101
15, 145170, Note_on_c, 11, 60, 104
15, 145290, Note_off_c, 11, 72, 64
15, 145295, Note_off_c, 11, 60, 64
15, 145410, Note_on_c, 11, 72, 104
15, 145410, Note_on_c, 11, 60, 101
15, 145535, Note_off_c, 11, 60, 64
15, 145535, Note_off_c, 11, 72, 64
15, 145645, Note_on_c, 11, 72, 101
15, 145650, Note_on_c, 11, 60, 91
15, 145830, Note_off_c, 11, 60, 64
15, 145835, Note_off_c, 11, 72, 64
15, 145885, Note_on_c, 11, 62, 88
15, 145915, Note_on_c, 11, 74, 98
15, 146275, Note_off_c, 11, 62, 64
15, 146310, Note_off_c, 11, 74, 64
15, 146365, Note_on_c, 11, 57, 86
15, 146365, Note_on_c, 11, 69, 96
15, 146540, Note_off_c, 11, 69, 64
15, 146570, Note_off_c, 11, 57, 64
15, 146620, Note_on_c, 11, 60, 101
15, 146630, Note_on_c, 11, 72, 109
15, 147365, Note_off_c, 11, 60, 64
15, 147390, Note_off_c, 11, 72, 64
15, 151650, Note_on_c, 11, 77, 101
15, 151655, Note_on_c, 11, 65, 96
15, 152055, Note_off_c, 11, 65, 64
15, 152085, Note_off_c, 11, 77, 64
15, 152130, Note_on_c, 11, 64, 88
15, 152135, Note_on_c, 11, 76, 98
15, 152440, Note_off_c, 11, 76, 64
15, 152460, Note_off_c, 11, 64, 64
15, 152600, Note_on_c, 11, 64, 73
15, 152605, Note_on_c, 11, 76, 101
15, 153040, Note_off_c, 11, 64, 64
15, 153065, Note_off_c, 11, 76, 64
15, 153090, Note_on_c, 11, 62, 86
15, 153090, Note_on_c, 11, 74, 101
15, 153345, Note_off_c, 11, 74, 64
15, 153385, Note_off_c, 11, 62, 64
15, 153540, Note_on_c, 11, 62, 81
15, 153555, Note_on_c, 11, 74, 98
15, 153750, Note_off_c, 11, 62, 64
15, 153770, Note_off_c, 11, 74, 64
15, 153775, Note_on_c, 11, 60, 61
15, 153800, Note_on_c, 11, 72, 91
15, 155330, Note_off_c, 11, 72, 64
15, 155360, Note_off_c, 11, 60, 64
15, 186240, Note_on_c, 11, 60, 91
15, 186245, Note_on_c, 11, 55, 83
15, 188070, Note_off_c, 11, 60, 64
15, 188125, Note_on_c, 11, 62, 86
15, 188830, Note_on_c, 11, 60, 83
15, 188835, Note_off_c, 11, 62, 64
15, 191050, Note_on_c, 11, 58, 93
15, 191860, Note_off_c, 11, 58, 64
15, 192000, Note_on_c, 11, 57, 93
15, 192750, Note_off_c, 11, 55, 64
15, 192905, Note_off_c, 11, 57, 64
15, 192950, Note_on_c, 11, 55, 96
15, 193765, Note_off_c, 11, 60, 64
15, 193850, Note_off_c, 11, 55, 64
15, 193910, Note_on_c, 11, 58, 87
15, 193910, Note_on_c, 11, 62, 83
15, 199630, Note_on_c, 11, 65, 81
15, 201275, Note_off_c, 11, 58, 64
15, 201480, Note_off_c, 11, 62, 64
15, 201525, Note_off_c, 11, 65, 64
15, 201585, Note_on_c, 11, 60, 88
15, 201590, Note_on_c, 11, 55, 81
15, 203510, Note_on_c, 11, 58, 89
15, 204335, Note_off_c, 11, 58, 64
15, 204490, Note_on_c, 11, 57, 93
15, 205250, Note_off_c, 11, 55, 64
15, 205410, Note_off_c, 11, 57, 64
15, 205435, Note_on_c, 11, 55, 81
15, 208795, Note_on_c, 11, 60, 118
15, 208910, Note_off_c, 11, 60, 64
15, 209015, Note_on_c, 11, 60, 104
15, 209150, Note_off_c, 11, 60, 64
15, 209155, Note_off_c, 11, 60, 64
15, 209190, Note_off_c, 11, 55, 64
15, 209255, Note_on_c, 11, 58, 89
15, 209255, Note_on_c, 11, 60, 104
15, 209260, Note_on_c, 11, 62, 86
15, 209655, Note_off_c, 11, 60, 64
15, 209745, Note_on_c, 11, 60, 104
15, 210130, Note_off_c, 11, 60, 64
15, 210225, Note_on_c, 11, 60, 101
15, 210610, Note_off_c, 11, 60, 64
15, 210720, Note_on_c, 11, 60, 109
15, 211045, Note_off_c, 11, 60, 64
15, 211175, Note_on_c, 11, 60, 112
15, 211330, Note_off_c, 11, 60, 64
15, 211360, Note_on_c, 11, 57, 104
15, 212545, Note_off_c, 11, 57, 64
15, 212605, Note_on_c, 11, 53, 88
15, 212755, Note_off_c, 11, 53, 64
15, 212835, Note_on_c, 11, 53, 98
15, 212980, Note_off_c, 11, 58, 64
15, 212980, Note_off_c, 11, 53, 64
15, 213060, Note_off_c, 11, 62, 64
15, 213075, Note_on_c, 11, 53, 96
15, 213080, Note_on_c, 11, 57, 91
15, 213085, Note_on_c, 11, 60, 76
15, 214625, Note_off_c, 11, 57, 64
15, 214980, Note_off_c, 11, 60, 64
15, 214985, Note_off_c, 11, 53, 64
15, 215025, Note_on_c, 11, 58, 93
15, 215030, Note_on_c, 11, 55, 71
15, 215045, Note_on_c, 11, 55, 109
15, 216750, Note_off_c, 11, 55, 64
15, 216750, Note_off_c, 11, 55, 64
15, 216820, Note_off_c, 11, 58, 64
15, 216935, Note_on_c, 11, 57, 96
15, 216965, Note_on_c, 11, 53, 71
15, 219700, Note_off_c, 11, 57, 64
15, 220540, Note_off_c, 11, 53, 64
15, 232310, Note_on_c, 11, 77, 104
15, 232315, Note_on_c, 11, 65, 104
15, 232555, Note_off_c, 11, 65, 64
15, 232560, Note_on_c, 11, 76, 83
15, 232560, Note_on_c, 11, 64, 88
15, 232590, Note_off_c, 11, 77, 64
15, 232700, Note_off_c, 11, 76, 64
15, 232705, Note_off_c, 11, 64, 64
15, 232800, Note_on_c, 11, 64, 93
15, 232805, Note_on_c, 11, 76, 98
15, 232980, Note_off_c, 11, 64, 64
15, 233065, Note_off_c, 11, 76, 64
15, 233260, Note_on_c, 11, 64, 96
15, 233270, Note_on_c, 11, 76, 98
15, 233490, Note_on_c, 11, 62, 88
15, 233495, Note_on_c, 11, 74, 93
15, 233505, Note_off_c, 11, 76, 64
15, 233505, Note_off_c, 11, 64, 64
15, 233670, Note_off_c, 11, 62, 64
15, 233700, Note_off_c, 11, 74, 64
15, 233990, Note_on_c, 11, 77, 109
15, 233995, Note_on_c, 11, 65, 101
15, 234375, Note_off_c, 11, 65, 64
15, 234380, Note_off_c, 11, 77, 64
15, 234435, Note_on_c, 11, 76, 91
15, 234435, Note_on_c, 11, 64, 93
15, 234565, Note_off_c, 11, 76, 64
15, 234595, Note_off_c, 11, 64, 64
15, 234675, Note_on_c, 11, 76, 101
15, 234680, Note_on_c, 11, 64, 91
15, 234820, Note_off_c, 11, 76, 64
15, 234845, Note_off_c, 11, 64, 64
15, 235160, Note_on_c, 11, 62, 93
15, 235185, Note_on_c, 11, 74, 93
15, 235695, Note_off_c, 11, 74, 64
15, 235705, Note_off_c, 11, 62, 64
15, 243365, Note_on_c, 11, 62, 101
15, 243610, Note_off_c, 11, 62, 64
15, 243820, Note_on_c, 11, 62, 98
15, 244170, Note_off_c, 11, 62, 64
15, 244310, Note_on_c, 11, 62, 93
15, 244615, Note_off_c, 11, 62, 64
15, 244770, Note_on_c, 11, 62, 91
15, 245090, Note_off_c, 11, 62, 64
15, 245255, Note_on_c, 11, 62, 91
15, 245560, Note_off_c, 11, 62, 64
15, 245715, Note_on_c, 11, 62, 91
15, 245860, Note_off_c, 11, 62, 64
15, 245990, Note_on_c, 11, 62, 88
15, 247090, Note_off_c, 11, 62, 64
15, 247185, Note_on_c, 11, 60, 91
15, 247330, Note_off_c, 11, 60, 64
15, 247415, Note_on_c, 11, 60, 88
15, 247555, Note_off_c, 11, 60, 64
15, 247650, Note_on_c, 11, 60, 93
15, 249460, Note_off_c, 11, 60, 64
15, 249565, Note_on_c, 11, 62, 91
15, 251160, Note_off_c, 11, 62, 64
15, 251245, Note_on_c, 11, 62, 88
15, 251390, Note_off_c, 11, 62, 64
15, 251485, Note_on_c, 11, 62, 88
15, 251685, Note_off_c, 11, 62, 64
15, 251720, Note_on_c, 11, 57, 98
15, 251870, Note_off_c, 11, 57, 64
15, 251960, Note_on_c, 11, 57, 88
15, 251961, Note_off_c, 11, 57, 64
15, 251961, End_track
16, 0, Start_track
16, 0, Title_t, "Woodblock"
16, 0, MIDI_port, 0
16, 0, Channel_prefix, 12
16, 0, Control_c, 12, 7, 80
16, 0, Control_c, 12, 10, 49
16, 0, Program_c, 12, 115
16, 0, Control_c, 12, 91, 127
16, 0, Control_c, 12, 93, 0
16, 5535, Note_on_c, 12, 93, 115
16, 5575, Note_off_c, 12, 93, 64
16, 5645, Note_on_c, 12, 93, 112
16, 5680, Note_off_c, 12, 93, 64
16, 5745, Note_on_c, 12, 93, 109
16, 5795, Note_off_c, 12, 93, 64
16, 9375, Note_on_c, 12, 93, 98
16, 9410, Note_off_c, 12, 93, 64
16, 9480, Note_on_c, 12, 93, 93
16, 9515, Note_off_c, 12, 93, 64
16, 9580, Note_on_c, 12, 93, 101
16, 9635, Note_off_c, 12, 93, 64
16, 17070, Note_on_c, 12, 93, 115
16, 17140, Note_off_c, 12, 93, 64
16, 17175, Note_on_c, 12, 93, 101
16, 17235, Note_off_c, 12, 93, 64
16, 17305, Note_on_c, 12, 93, 115
16, 17435, Note_off_c, 12, 93, 64
16, 24745, Note_on_c, 12, 93, 98
16, 24785, Note_off_c, 12, 93, 64
16, 24840, Note_on_c, 12, 93, 96
16, 24890, Note_off_c, 12, 93, 64
16, 24965, Note_on_c, 12, 93, 109
16, 25035, Note_off_c, 12, 93, 64
16, 32410, Note_on_c, 12, 93, 127
16, 32450, Note_off_c, 12, 93, 64
16, 32525, Note_on_c, 12, 93, 101
16, 32565, Note_off_c, 12, 93, 64
16, 32650, Note_on_c, 12, 93, 121
16, 32710, Note_off_c, 12, 93, 64
16, 40085, Note_on_c, 12, 93, 98
16, 40125, Note_off_c, 12, 93, 64
16, 40205, Note_on_c, 12, 93, 98
16, 40250, Note_off_c, 12, 93, 64
16, 40325, Note_on_c, 12, 93, 118
16, 40385, Note_off_c, 12, 93, 64
16, 47785, Note_on_c, 12, 93, 115
16, 47835, Note_off_c, 12, 93, 64
16, 47900, Note_on_c, 12, 93, 109
16, 47945, Note_off_c, 12, 93, 64
16, 48015, Note_on_c, 12, 93, 115
16, 48070, Note_off_c, 12, 93, 64
16, 55440, Note_on_c, 12, 93, 98
16, 55490, Note_off_c, 12, 93, 64
16, 55560, Note_on_c, 12, 93, 104
16, 55610, Note_off_c, 12, 93, 64
16, 55675, Note_on_c, 12, 93, 109
16, 55740, Note_off_c, 12, 93, 64
16, 90015, Note_on_c, 12, 93, 115
16, 90055, Note_off_c, 12, 93, 64
16, 90125, Note_on_c, 12, 93, 112
16, 90160, Note_off_c, 12, 93, 64
16, 90225, Note_on_c, 12, 93, 109
16, 90275, Note_off_c, 12, 93, 64
16, 93855, Note_on_c, 12, 93, 98
16, 93890, Note_off_c, 12, 93, 64
16, 93960, Note_on_c, 12, 93, 93
16, 93995, Note_off_c, 12, 93, 64
16, 94060, Note_on_c, 12, 93, 101
16, 94085, Note_on_c, 12, 93, 109
16, 94115, Note_off_c, 12, 93, 64
16, 94155, Note_off_c, 12, 93, 64
16, 101530, Note_on_c, 12, 93, 127
16, 101570, Note_off_c, 12, 93, 64
16, 101645, Note_on_c, 12, 93, 101
16, 101685, Note_off_c, 12, 93, 64
16, 101770, Note_on_c, 12, 93, 121
16, 101830, Note_off_c, 12, 93, 64
16, 109205, Note_on_c, 12, 93, 98
16, 109245, Note_off_c, 12, 93, 64
16, 109325, Note_on_c, 12, 93, 98
16, 109370, Note_off_c, 12, 93, 64
16, 109445, Note_on_c, 12, 93, 118
16, 109505, Note_off_c, 12, 93, 64
16, 116905, Note_on_c, 12, 93, 115
16, 116955, Note_off_c, 12, 93, 64
16, 117020, Note_on_c, 12, 93, 109
16, 117065, Note_off_c, 12, 93, 64
16, 117135, Note_on_c, 12, 93, 115
16, 117190, Note_off_c, 12, 93, 64
16, 124560, Note_on_c, 12, 93, 98
16, 124610, Note_off_c, 12, 93, 64
16, 124680, Note_on_c, 12, 93, 104
16, 124730, Note_off_c, 12, 93, 64
16, 124795, Note_on_c, 12, 93, 109
16, 124860, Note_off_c, 12, 93, 64
16, 159135, Note_on_c, 12, 93, 115
16, 159175, Note_off_c, 12, 93, 64
16, 159245, Note_on_c, 12, 93, 112
16, 159280, Note_off_c, 12, 93, 64
16, 159345, Note_on_c, 12, 93, 109
16, 159395, Note_off_c, 12, 93, 64
16, 162975, Note_on_c, 12, 93, 98
16, 163010, Note_off_c, 12, 93, 64
16, 163080, Note_on_c, 12, 93, 93
16, 163115, Note_off_c, 12, 93, 64
16, 163180, Note_on_c, 12, 93, 101
16, 163181, Note_off_c, 12, 93, 64
16, 163181, End_track
0, 0, End_of_file
