0, 0, Header, 0, 1, 96
1, 0, Start_track
1, 0, SMPTE_offset, 96, 0, 3, 0, 0
1, 0, MIDI_port, 0
1, 0, System_exclusive, 5, 126, 127, 9, 1, 247
1, 0, MIDI_port, 0
1, 0, Time_signature, 4, 2, 24, 8
1, 0, Key_signature, -1, "major"
1, 0, Tempo, 983607
1, 98, Program_c, 0, 0
1, 99, Control_c, 0, 7, 100
1, 99, Control_c, 0, 10, 40
1, 99, Control_c, 0, 11, 127
1, 100, Control_c, 0, 91, 67
1, 100, Control_c, 0, 93, 10
1, 103, Program_c, 1, 33
1, 104, Control_c, 1, 7, 105
1, 104, Control_c, 1, 10, 64
1, 104, Control_c, 1, 11, 127
1, 105, Control_c, 1, 93, 10
1, 105, Control_c, 1, 91, 25
1, 108, Program_c, 2, 49
1, 109, Control_c, 2, 7, 100
1, 109, Control_c, 2, 10, 30
1, 109, Control_c, 2, 11, 24
1, 110, Control_c, 2, 91, 60
1, 110, Control_c, 2, 93, 10
1, 113, Program_c, 3, 24
1, 114, Control_c, 3, 7, 100
1, 114, Control_c, 3, 10, 64
1, 114, Control_c, 3, 11, 127
1, 115, Control_c, 3, 93, 10
1, 115, Control_c, 3, 91, 60
1, 118, Program_c, 4, 75
1, 119, Control_c, 4, 7, 60
1, 119, Control_c, 4, 10, 64
1, 119, Control_c, 4, 11, 127
1, 120, Control_c, 4, 91, 60
1, 120, Control_c, 4, 93, 0
1, 123, Program_c, 5, 4
1, 124, Control_c, 5, 7, 100
1, 124, Control_c, 5, 10, 80
1, 124, Control_c, 5, 11, 127
1, 125, Control_c, 5, 91, 70
1, 125, Control_c, 5, 93, 64
1, 128, Program_c, 6, 48
1, 129, Control_c, 6, 7, 100
1, 129, Control_c, 6, 10, 40
1, 129, Control_c, 6, 11, 52
1, 130, Control_c, 6, 93, 10
1, 130, Control_c, 6, 91, 60
1, 133, Program_c, 7, 56
1, 134, Control_c, 7, 7, 100
1, 134, Control_c, 7, 10, 100
1, 134, Control_c, 7, 11, 127
1, 135, Control_c, 7, 93, 7
1, 135, Control_c, 7, 91, 65
1, 138, Program_c, 8, 57
1, 139, Control_c, 8, 7, 100
1, 139, Control_c, 8, 10, 20
1, 139, Control_c, 8, 11, 127
1, 140, Control_c, 8, 91, 65
1, 140, Control_c, 8, 93, 0
1, 144, Control_c, 9, 7, 105
1, 144, Control_c, 9, 11, 127
1, 145, Control_c, 9, 93, 0
1, 145, Control_c, 9, 91, 60
1, 148, Program_c, 10, 61
1, 149, Control_c, 10, 7, 105
1, 149, Control_c, 10, 10, 75
1, 149, Control_c, 10, 11, 127
1, 150, Control_c, 10, 91, 65
1, 150, Control_c, 10, 93, 0
1, 153, Program_c, 11, 65
1, 154, Control_c, 11, 7, 110
1, 154, Control_c, 11, 10, 64
1, 154, Control_c, 11, 11, 127
1, 155, Control_c, 11, 93, 7
1, 155, Control_c, 11, 91, 70
1, 158, Program_c, 12, 80
1, 159, Control_c, 12, 7, 100
1, 159, Control_c, 12, 10, 95
1, 159, Control_c, 12, 11, 127
1, 160, Control_c, 12, 93, 50
1, 160, Control_c, 12, 91, 70
1, 163, Program_c, 13, 60
1, 164, Control_c, 13, 7, 100
1, 164, Control_c, 13, 10, 25
1, 164, Control_c, 13, 11, 127
1, 165, Control_c, 13, 91, 70
1, 165, Control_c, 13, 93, 35
1, 396, Control_c, 12, 101, 0
1, 398, Control_c, 12, 100, 0
1, 400, Control_c, 12, 6, 1
1, 769, Note_on_c, 0, 57, 76
1, 769, Note_on_c, 0, 53, 61
1, 769, Note_on_c, 0, 60, 73
1, 769, Note_on_c, 0, 41, 61
1, 769, Note_on_c, 0, 48, 61
1, 769, Note_on_c, 5, 84, 45
1, 769, Note_on_c, 5, 81, 45
1, 769, Note_on_c, 5, 77, 45
1, 770, Pitch_bend_c, 0, 8192
1, 770, Control_c, 0, 1, 0
1, 770, Pitch_bend_c, 5, 8192
1, 770, Control_c, 5, 1, 0
1, 828, Control_c, 5, 64, 127
1, 888, Note_on_c, 0, 77, 126
1, 912, Note_on_c, 0, 76, 94
1, 934, Note_on_c, 0, 77, 0
1, 935, Note_on_c, 0, 77, 124
1, 953, Note_on_c, 0, 60, 0
1, 953, Note_on_c, 0, 76, 0
1, 953, Note_on_c, 0, 41, 0
1, 953, Note_on_c, 0, 57, 0
1, 953, Note_on_c, 0, 48, 0
1, 953, Note_on_c, 0, 53, 0
1, 958, Note_on_c, 5, 81, 0
1, 959, Note_on_c, 0, 45, 61
1, 959, Note_on_c, 0, 53, 61
1, 960, Note_on_c, 5, 79, 45
1, 961, Note_on_c, 0, 72, 94
1, 961, Note_on_c, 0, 57, 94
1, 961, Note_on_c, 0, 60, 84
1, 970, Note_on_c, 0, 77, 0
1, 1004, Note_on_c, 0, 72, 0
1, 1007, Note_on_c, 0, 72, 101
1, 1030, Note_on_c, 0, 72, 0
1, 1031, Note_on_c, 0, 69, 95
1, 1038, Note_on_c, 5, 77, 0
1, 1038, Note_on_c, 5, 84, 0
1, 1041, Note_on_c, 5, 79, 0
1, 1054, Note_on_c, 0, 53, 0
1, 1057, Note_on_c, 0, 53, 51
1, 1080, Note_on_c, 0, 53, 0
1, 1081, Note_on_c, 0, 53, 50
1, 1100, Note_on_c, 0, 69, 0
1, 1103, Note_on_c, 0, 65, 88
1, 1127, Note_on_c, 0, 74, 112
1, 1137, Note_on_c, 5, 77, 52
1, 1144, Note_on_c, 5, 74, 60
1, 1151, Control_c, 5, 64, 0
1, 1152, Note_on_c, 0, 53, 0
1, 1152, Note_on_c, 0, 60, 0
1, 1152, Note_on_c, 5, 70, 60
1, 1153, Note_on_c, 0, 53, 70
1, 1153, Note_on_c, 0, 60, 81
1, 1153, Note_on_c, 0, 46, 75
1, 1153, Note_on_c, 5, 60, 76
1, 1155, Note_on_c, 0, 65, 0
1, 1155, Note_on_c, 0, 57, 0
1, 1155, Note_on_c, 0, 45, 0
1, 1164, Note_on_c, 0, 53, 0
1, 1177, Note_on_c, 0, 53, 66
1, 1201, Note_on_c, 0, 57, 80
1, 1224, Note_on_c, 5, 60, 0
1, 1225, Note_on_c, 0, 58, 72
1, 1225, Note_on_c, 5, 58, 69
1, 1271, Note_on_c, 0, 72, 91
1, 1295, Note_on_c, 0, 70, 96
1, 1305, Note_on_c, 5, 70, 0
1, 1318, Note_on_c, 0, 72, 0
1, 1319, Note_on_c, 0, 72, 102
1, 1323, Note_on_c, 5, 74, 0
1, 1328, Note_on_c, 5, 77, 0
1, 1343, Note_on_c, 0, 58, 0
1, 1343, Note_on_c, 0, 48, 67
1, 1343, Control_c, 2, 11, 26
1, 1343, Note_on_c, 2, 58, 70
1, 1343, Note_on_c, 2, 57, 70
1, 1343, Note_on_c, 2, 36, 67
1, 1343, Note_on_c, 2, 65, 76
1, 1343, Note_on_c, 5, 77, 58
1, 1343, Note_on_c, 5, 74, 56
1, 1344, Note_on_c, 0, 46, 0
1, 1344, Note_on_c, 0, 57, 0
1, 1344, Note_on_c, 0, 74, 0
1, 1344, Note_on_c, 0, 60, 0
1, 1344, Note_on_c, 0, 70, 0
1, 1344, Note_on_c, 0, 53, 0
1, 1344, Note_on_c, 0, 58, 68
1, 1344, Note_on_c, 0, 62, 68
1, 1344, Note_on_c, 0, 55, 74
1, 1344, Pitch_bend_c, 2, 8192
1, 1344, Control_c, 2, 1, 0
1, 1344, Note_on_c, 5, 70, 46
1, 1345, Note_on_c, 0, 65, 66
1, 1346, Control_c, 2, 11, 29
1, 1349, Control_c, 2, 11, 31
1, 1351, Control_c, 2, 11, 33
1, 1353, Control_c, 2, 11, 34
1, 1354, Control_c, 2, 11, 36
1, 1356, Note_on_c, 5, 58, 0
1, 1356, Control_c, 2, 11, 37
1, 1357, Control_c, 2, 11, 39
1, 1358, Control_c, 2, 11, 41
1, 1360, Control_c, 2, 11, 42
1, 1362, Control_c, 2, 11, 44
1, 1363, Control_c, 2, 11, 46
1, 1365, Control_c, 2, 11, 48
1, 1366, Control_c, 2, 11, 49
1, 1368, Control_c, 2, 11, 51
1, 1369, Control_c, 2, 11, 52
1, 1371, Control_c, 2, 11, 54
1, 1372, Control_c, 2, 11, 55
1, 1374, Control_c, 2, 11, 57
1, 1377, Control_c, 2, 11, 59
1, 1378, Control_c, 2, 11, 61
1, 1381, Control_c, 2, 11, 63
1, 1383, Control_c, 2, 11, 65
1, 1385, Control_c, 2, 11, 66
1, 1386, Control_c, 2, 11, 68
1, 1388, Control_c, 2, 11, 69
1, 1389, Note_on_c, 0, 72, 0
1, 1389, Control_c, 2, 11, 71
1, 1391, Note_on_c, 0, 74, 94
1, 1392, Control_c, 2, 11, 73
1, 1397, Control_c, 2, 11, 76
1, 1403, Control_c, 2, 11, 79
1, 1404, Note_on_c, 0, 65, 0
1, 1409, Control_c, 2, 11, 81
1, 1413, Note_on_c, 0, 74, 0
1, 1415, Note_on_c, 5, 74, 0
1, 1415, Note_on_c, 0, 65, 96
1, 1415, Control_c, 2, 11, 84
1, 1416, Note_on_c, 5, 77, 0
1, 1418, Note_on_c, 5, 70, 0
1, 1420, Control_c, 2, 11, 86
1, 1424, Control_c, 2, 11, 89
1, 1429, Control_c, 2, 11, 92
1, 1435, Control_c, 2, 11, 95
1, 1440, Note_on_c, 5, 60, 49
1, 1440, Note_on_c, 5, 69, 49
1, 1440, Note_on_c, 12, 69, 25
1, 1441, Control_c, 2, 11, 98
1, 1441, Pitch_bend_c, 12, 8192
1, 1441, Control_c, 12, 1, 0
1, 1447, Control_c, 2, 11, 101
1, 1448, Note_on_c, 5, 70, 51
1, 1448, Note_on_c, 5, 62, 51
1, 1448, Note_on_c, 12, 70, 26
1, 1452, Control_c, 2, 11, 103
1, 1453, Note_on_c, 12, 69, 0
1, 1455, Note_on_c, 5, 60, 0
1, 1455, Note_on_c, 5, 69, 0
1, 1456, Note_on_c, 5, 64, 52
1, 1456, Note_on_c, 5, 72, 52
1, 1456, Note_on_c, 12, 72, 27
1, 1458, Control_c, 2, 11, 106
1, 1461, Note_on_c, 12, 70, 0
1, 1463, Note_on_c, 5, 62, 0
1, 1463, Note_on_c, 5, 70, 0
1, 1463, Note_on_c, 0, 70, 106
1, 1464, Control_c, 2, 11, 108
1, 1464, Note_on_c, 5, 65, 53
1, 1464, Note_on_c, 5, 74, 53
1, 1464, Note_on_c, 12, 74, 30
1, 1469, Note_on_c, 12, 72, 0
1, 1471, Note_on_c, 5, 72, 0
1, 1471, Note_on_c, 5, 64, 0
1, 1472, Note_on_c, 5, 76, 55
1, 1472, Note_on_c, 5, 67, 55
1, 1472, Note_on_c, 12, 76, 33
1, 1475, Control_c, 2, 11, 111
1, 1477, Note_on_c, 12, 74, 0
1, 1479, Note_on_c, 5, 65, 0
1, 1479, Note_on_c, 5, 74, 0
1, 1480, Note_on_c, 5, 69, 57
1, 1480, Note_on_c, 5, 77, 57
1, 1480, Note_on_c, 12, 77, 34
1, 1481, Control_c, 2, 11, 113
1, 1485, Note_on_c, 12, 76, 0
1, 1487, Note_on_c, 5, 67, 0
1, 1487, Note_on_c, 5, 76, 0
1, 1487, Control_c, 2, 11, 116
1, 1488, Note_on_c, 5, 79, 59
1, 1488, Note_on_c, 5, 70, 59
1, 1488, Note_on_c, 12, 79, 36
1, 1492, Control_c, 2, 11, 119
1, 1493, Note_on_c, 12, 77, 0
1, 1495, Note_on_c, 5, 77, 0
1, 1495, Note_on_c, 5, 69, 0
1, 1496, Control_c, 2, 11, 122
1, 1496, Note_on_c, 5, 81, 62
1, 1496, Note_on_c, 5, 72, 62
1, 1496, Note_on_c, 12, 81, 39
1, 1501, Note_on_c, 12, 79, 0
1, 1502, Control_c, 2, 11, 125
1, 1503, Note_on_c, 5, 70, 0
1, 1503, Note_on_c, 5, 79, 0
1, 1504, Note_on_c, 5, 82, 65
1, 1504, Note_on_c, 5, 74, 65
1, 1504, Note_on_c, 12, 82, 40
1, 1509, Note_on_c, 12, 81, 0
1, 1511, Note_on_c, 5, 72, 0
1, 1511, Note_on_c, 5, 81, 0
1, 1511, Note_on_c, 0, 69, 95
1, 1512, Note_on_c, 5, 84, 68
1, 1512, Note_on_c, 5, 76, 68
1, 1512, Note_on_c, 12, 84, 41
1, 1517, Note_on_c, 12, 82, 0
1, 1519, Note_on_c, 5, 74, 0
1, 1519, Note_on_c, 5, 82, 0
1, 1519, Control_c, 2, 11, 127
1, 1520, Note_on_c, 5, 86, 70
1, 1520, Note_on_c, 5, 77, 70
1, 1520, Note_on_c, 12, 86, 42
1, 1525, Note_on_c, 12, 84, 0
1, 1527, Note_on_c, 5, 76, 0
1, 1527, Note_on_c, 5, 84, 0
1, 1528, Note_on_c, 5, 79, 73
1, 1528, Note_on_c, 5, 88, 73
1, 1528, Note_on_c, 12, 88, 44
1, 1533, Note_on_c, 12, 86, 0
1, 1533, Note_on_c, 0, 65, 0
1, 1533, Note_on_c, 0, 62, 0
1, 1533, Note_on_c, 0, 48, 0
1, 1533, Note_on_c, 0, 70, 0
1, 1533, Note_on_c, 0, 55, 0
1, 1533, Note_on_c, 0, 58, 0
1, 1534, Note_on_c, 2, 58, 0
1, 1534, Note_on_c, 5, 88, 0
1, 1534, Note_on_c, 2, 36, 0
1, 1534, Note_on_c, 2, 65, 0
1, 1534, Note_on_c, 2, 57, 0
1, 1534, Note_on_c, 5, 79, 0
1, 1535, Note_on_c, 5, 86, 0
1, 1535, Note_on_c, 5, 77, 0
1, 1535, Note_on_c, 0, 48, 73
1, 1535, Note_on_c, 0, 53, 73
1, 1535, Note_on_c, 0, 60, 73
1, 1535, Note_on_c, 0, 57, 73
1, 1535, Note_on_c, 0, 41, 73
1, 1537, Note_on_c, 2, 57, 72
1, 1537, Note_on_c, 2, 41, 78
1, 1537, Note_on_c, 5, 81, 84
1, 1537, Note_on_c, 5, 89, 84
1, 1538, Note_on_c, 5, 57, 68
1, 1538, Note_on_c, 5, 53, 71
1, 1538, Control_c, 5, 64, 127
1, 1538, Note_on_c, 12, 89, 45
1, 1539, Note_on_c, 2, 65, 54
1, 1541, Note_on_c, 12, 88, 0
1, 1541, Control_c, 5, 64, 0
1, 1626, Note_on_c, 2, 41, 0
1, 1626, Note_on_c, 0, 60, 0
1, 1626, Note_on_c, 0, 53, 0
1, 1626, Note_on_c, 0, 41, 0
1, 1626, Note_on_c, 0, 48, 0
1, 1626, Note_on_c, 0, 57, 0
1, 1629, Note_on_c, 5, 53, 0
1, 1630, Note_on_c, 2, 57, 0
1, 1630, Note_on_c, 5, 57, 0
1, 1631, Note_on_c, 0, 55, 74
1, 1631, Note_on_c, 0, 43, 74
1, 1631, Note_on_c, 0, 58, 74
1, 1631, Note_on_c, 0, 50, 74
1, 1631, Note_on_c, 0, 53, 74
1, 1631, Note_on_c, 2, 58, 82
1, 1631, Note_on_c, 2, 43, 77
1, 1633, Note_on_c, 5, 55, 73
1, 1633, Note_on_c, 5, 58, 67
1, 1639, Note_on_c, 12, 89, 0
1, 1649, Note_on_c, 0, 69, 0
1, 1655, Note_on_c, 12, 88, 61
1, 1656, Note_on_c, 0, 77, 127
1, 1658, Pitch_bend_c, 12, 9245
1, 1660, Pitch_bend_c, 12, 13691
1, 1661, Pitch_bend_c, 12, 16382
1, 1663, Pitch_bend_c, 12, 16383
1, 1678, Pitch_bend_c, 12, 16148
1, 1679, Note_on_c, 0, 76, 104
1, 1680, Pitch_bend_c, 12, 14042
1, 1681, Pitch_bend_c, 12, 9596
1, 1683, Pitch_bend_c, 12, 8192
1, 1702, Note_on_c, 0, 77, 0
1, 1703, Note_on_c, 0, 77, 127
1, 1703, Pitch_bend_c, 12, 12638
1, 1704, Pitch_bend_c, 12, 16383
1, 1724, Note_on_c, 0, 43, 0
1, 1724, Note_on_c, 0, 58, 0
1, 1724, Note_on_c, 0, 55, 0
1, 1724, Note_on_c, 0, 53, 0
1, 1724, Note_on_c, 0, 76, 0
1, 1724, Note_on_c, 0, 50, 0
1, 1725, Note_on_c, 5, 58, 0
1, 1725, Note_on_c, 5, 55, 0
1, 1726, Note_on_c, 2, 43, 0
1, 1726, Note_on_c, 2, 58, 0
1, 1727, Note_on_c, 0, 57, 74
1, 1727, Note_on_c, 0, 60, 74
1, 1727, Note_on_c, 0, 53, 74
1, 1727, Note_on_c, 0, 45, 74
1, 1727, Note_on_c, 2, 60, 70
1, 1727, Note_on_c, 2, 45, 73
1, 1728, Note_on_c, 5, 81, 0
1, 1728, Note_on_c, 5, 89, 0
1, 1729, Note_on_c, 5, 57, 71
1, 1729, Note_on_c, 5, 60, 70
1, 1762, Note_on_c, 12, 88, 0
1, 1766, Pitch_bend_c, 12, 15563
1, 1767, Pitch_bend_c, 12, 11585
1, 1768, Pitch_bend_c, 12, 8192
1, 1776, Note_on_c, 12, 84, 60
1, 1798, Note_on_c, 12, 84, 0
1, 1800, Note_on_c, 12, 81, 58
1, 1822, Note_on_c, 0, 53, 0
1, 1823, Note_on_c, 0, 53, 122
1, 1846, Note_on_c, 0, 57, 0
1, 1847, Note_on_c, 12, 81, 0
1, 1847, Note_on_c, 0, 57, 122
1, 1847, Note_on_c, 12, 95, 65
1, 1854, Pitch_bend_c, 12, 14393
1, 1856, Pitch_bend_c, 12, 16383
1, 1870, Note_on_c, 0, 60, 0
1, 1871, Note_on_c, 0, 60, 121
1, 1873, Note_on_c, 12, 93, 57
1, 1876, Pitch_bend_c, 12, 14393
1, 1877, Note_on_c, 12, 95, 0
1, 1877, Pitch_bend_c, 12, 8192
1, 1894, Note_on_c, 12, 93, 0
1, 1895, Note_on_c, 0, 62, 119
1, 1897, Note_on_c, 12, 89, 52
1, 1913, Note_on_c, 5, 57, 0
1, 1917, Note_on_c, 2, 60, 0
1, 1918, Note_on_c, 0, 57, 0
1, 1918, Note_on_c, 0, 53, 0
1, 1918, Note_on_c, 0, 77, 0
1, 1918, Note_on_c, 0, 45, 0
1, 1918, Note_on_c, 5, 60, 0
1, 1918, Note_on_c, 0, 60, 0
1, 1918, Note_on_c, 2, 45, 0
1, 1919, Note_on_c, 0, 46, 81
1, 1919, Note_on_c, 0, 53, 70
1, 1919, Note_on_c, 0, 57, 71
1, 1919, Note_on_c, 2, 62, 58
1, 1919, Note_on_c, 2, 46, 70
1, 1919, Note_on_c, 2, 57, 57
1, 1921, Note_on_c, 5, 62, 59
1, 1921, Note_on_c, 5, 57, 63
1, 1945, Control_c, 12, 1, 27
1, 1947, Control_c, 12, 1, 68
1, 1948, Control_c, 12, 1, 92
1, 1951, Control_c, 12, 1, 79
1, 1953, Control_c, 12, 1, 64
1, 1954, Control_c, 12, 1, 55
1, 1956, Control_c, 12, 1, 43
1, 1958, Control_c, 12, 1, 23
1, 1959, Control_c, 12, 1, 1
1, 1961, Control_c, 12, 1, 0
1, 1962, Control_c, 12, 1, 4
1, 1964, Control_c, 12, 1, 39
1, 1965, Control_c, 12, 1, 66
1, 1967, Control_c, 12, 1, 87
1, 1968, Control_c, 12, 1, 95
1, 1971, Control_c, 12, 1, 79
1, 1973, Control_c, 12, 1, 55
1, 1974, Control_c, 12, 1, 5
1, 1976, Control_c, 12, 1, 0
1, 1983, Control_c, 12, 1, 5
1, 1985, Control_c, 12, 1, 45
1, 1986, Control_c, 12, 1, 77
1, 1988, Control_c, 12, 1, 95
1, 1991, Control_c, 12, 1, 90
1, 1993, Control_c, 12, 1, 75
1, 1994, Control_c, 12, 1, 20
1, 1996, Control_c, 12, 1, 1
1, 1997, Control_c, 12, 1, 0
1, 2003, Control_c, 12, 1, 24
1, 2005, Control_c, 12, 1, 75
1, 2006, Control_c, 12, 1, 95
1, 2009, Control_c, 12, 1, 87
1, 2011, Control_c, 12, 1, 70
1, 2013, Control_c, 12, 1, 22
1, 2014, Control_c, 12, 1, 1
1, 2016, Control_c, 12, 1, 0
1, 2020, Control_c, 12, 1, 2
1, 2022, Control_c, 12, 1, 58
1, 2023, Control_c, 12, 1, 101
1, 2025, Control_c, 12, 1, 107
1, 2026, Control_c, 12, 1, 101
1, 2028, Note_on_c, 12, 89, 0
1, 2028, Control_c, 12, 1, 82
1, 2029, Control_c, 12, 1, 21
1, 2031, Control_c, 12, 1, 1
1, 2032, Control_c, 12, 1, 0
1, 2039, Note_on_c, 0, 69, 94
1, 2041, Note_on_c, 12, 81, 52
1, 2064, Note_on_c, 12, 81, 0
1, 2064, Note_on_c, 0, 70, 84
1, 2064, Note_on_c, 12, 82, 56
1, 2087, Note_on_c, 12, 82, 0
1, 2087, Note_on_c, 12, 83, 59
1, 2088, Note_on_c, 0, 72, 99
1, 2091, Pitch_bend_c, 12, 9830
1, 2093, Pitch_bend_c, 12, 13925
1, 2094, Pitch_bend_c, 12, 16382
1, 2096, Pitch_bend_c, 12, 16383
1, 2107, Note_on_c, 5, 62, 0
1, 2108, Note_on_c, 5, 57, 0
1, 2110, Note_on_c, 0, 62, 0
1, 2110, Note_on_c, 0, 69, 0
1, 2110, Note_on_c, 2, 57, 0
1, 2111, Note_on_c, 0, 58, 63
1, 2111, Note_on_c, 0, 69, 63
1, 2111, Note_on_c, 0, 62, 63
1, 2111, Note_on_c, 2, 58, 60
1, 2112, Note_on_c, 0, 46, 0
1, 2112, Note_on_c, 0, 53, 0
1, 2112, Note_on_c, 0, 57, 0
1, 2112, Note_on_c, 0, 70, 0
1, 2112, Note_on_c, 0, 43, 63
1, 2112, Note_on_c, 0, 65, 63
1, 2112, Note_on_c, 2, 43, 57
1, 2112, Note_on_c, 5, 62, 55
1, 2112, Note_on_c, 5, 69, 55
1, 2112, Note_on_c, 5, 58, 57
1, 2114, Note_on_c, 2, 46, 0
1, 2126, Control_c, 12, 1, 1
1, 2127, Control_c, 12, 1, 21
1, 2129, Control_c, 12, 1, 11
1, 2130, Control_c, 12, 1, 1
1, 2132, Control_c, 12, 1, 0
1, 2139, Control_c, 12, 1, 13
1, 2141, Control_c, 12, 1, 77
1, 2142, Control_c, 12, 1, 101
1, 2145, Control_c, 12, 1, 84
1, 2146, Note_on_c, 12, 83, 0
1, 2147, Control_c, 12, 1, 66
1, 2149, Control_c, 12, 1, 58
1, 2149, Pitch_bend_c, 12, 16265
1, 2150, Control_c, 12, 1, 50
1, 2151, Pitch_bend_c, 12, 13457
1, 2152, Pitch_bend_c, 12, 8192
1, 2152, Control_c, 12, 1, 32
1, 2153, Control_c, 12, 1, 2
1, 2155, Control_c, 12, 1, 0
1, 2159, Note_on_c, 12, 86, 50
1, 2182, Note_on_c, 12, 86, 0
1, 2184, Note_on_c, 12, 81, 46
1, 2197, Note_on_c, 2, 58, 0
1, 2198, Note_on_c, 2, 65, 0
1, 2204, Note_on_c, 0, 58, 0
1, 2204, Note_on_c, 0, 43, 0
1, 2204, Note_on_c, 0, 65, 0
1, 2204, Note_on_c, 0, 62, 0
1, 2204, Note_on_c, 0, 69, 0
1, 2207, Note_on_c, 5, 62, 0
1, 2207, Note_on_c, 5, 69, 0
1, 2207, Note_on_c, 0, 72, 0
1, 2207, Note_on_c, 5, 58, 0
1, 2207, Note_on_c, 0, 48, 64
1, 2207, Note_on_c, 0, 70, 65
1, 2207, Note_on_c, 0, 62, 64
1, 2207, Note_on_c, 0, 58, 64
1, 2207, Note_on_c, 2, 58, 86
1, 2208, Note_on_c, 0, 65, 64
1, 2210, Note_on_c, 5, 62, 57
1, 2210, Note_on_c, 5, 58, 57
1, 2210, Note_on_c, 5, 69, 57
1, 2228, Note_on_c, 12, 81, 0
1, 2231, Note_on_c, 12, 72, 42
1, 2233, Note_on_c, 3, 60, 71
1, 2233, Note_on_c, 4, 48, 50
1, 2234, Control_c, 3, 1, 0
1, 2234, Pitch_bend_c, 3, 8192
1, 2234, Control_c, 4, 1, 0
1, 2234, Pitch_bend_c, 4, 8192
1, 2254, Note_on_c, 12, 72, 0
1, 2255, Note_on_c, 12, 74, 42
1, 2257, Note_on_c, 4, 48, 0
1, 2257, Note_on_c, 3, 62, 86
1, 2257, Note_on_c, 4, 50, 65
1, 2260, Note_on_c, 3, 60, 0
1, 2277, Control_c, 12, 1, 13
1, 2279, Control_c, 12, 1, 25
1, 2280, Control_c, 12, 1, 3
1, 2281, Note_on_c, 4, 50, 0
1, 2281, Note_on_c, 3, 69, 86
1, 2281, Note_on_c, 4, 57, 65
1, 2282, Control_c, 12, 1, 0
1, 2284, Note_on_c, 3, 62, 0
1, 2290, Note_on_c, 12, 74, 0
1, 2291, Note_on_c, 0, 48, 0
1, 2291, Note_on_c, 0, 65, 0
1, 2291, Note_on_c, 0, 58, 0
1, 2291, Note_on_c, 0, 62, 0
1, 2302, Note_on_c, 2, 62, 0
1, 2302, Note_on_c, 2, 58, 0
1, 2302, Note_on_c, 0, 70, 0
1, 2302, Control_c, 12, 1, 18
1, 2303, Note_on_c, 2, 43, 0
1, 2303, Note_on_c, 5, 57, 70
1, 2303, Control_c, 12, 1, 21
1, 2303, Note_on_c, 12, 76, 33
1, 2304, Note_on_c, 5, 53, 68
1, 2304, Note_on_c, 5, 60, 64
1, 2305, Note_on_c, 5, 69, 0
1, 2305, Note_on_c, 5, 62, 0
1, 2305, Note_on_c, 5, 58, 0
1, 2305, Note_on_c, 0, 60, 84
1, 2305, Note_on_c, 0, 57, 84
1, 2305, Note_on_c, 0, 53, 84
1, 2305, Note_on_c, 0, 69, 62
1, 2305, Note_on_c, 0, 41, 84
1, 2305, Note_on_c, 0, 65, 84
1, 2305, Note_on_c, 2, 57, 55
1, 2305, Note_on_c, 2, 41, 57
1, 2305, Note_on_c, 2, 60, 51
1, 2305, Note_on_c, 5, 41, 66
1, 2305, Control_c, 12, 1, 2
1, 2306, Control_c, 12, 1, 0
1, 2313, Pitch_bend_c, 12, 9830
1, 2314, Pitch_bend_c, 12, 14042
1, 2316, Pitch_bend_c, 12, 16382
1, 2318, Pitch_bend_c, 12, 16383
1, 2338, Control_c, 2, 11, 124
1, 2350, Control_c, 2, 11, 121
1, 2353, Control_c, 12, 11, 124
1, 2355, Control_c, 12, 11, 122
1, 2356, Control_c, 2, 11, 118
1, 2356, Control_c, 12, 11, 121
1, 2358, Note_on_c, 3, 69, 0
1, 2358, Control_c, 12, 11, 119
1, 2359, Control_c, 2, 11, 115
1, 2359, Control_c, 12, 11, 118
1, 2361, Control_c, 2, 11, 113
1, 2363, Control_c, 2, 11, 112
1, 2364, Control_c, 2, 11, 110
1, 2364, Control_c, 12, 11, 115
1, 2366, Control_c, 2, 11, 108
1, 2367, Control_c, 2, 11, 107
1, 2369, Control_c, 2, 11, 105
1, 2369, Control_c, 12, 1, 35
1, 2369, Control_c, 12, 11, 112
1, 2370, Control_c, 2, 11, 103
1, 2370, Control_c, 12, 1, 92
1, 2372, Control_c, 12, 1, 101
1, 2373, Control_c, 2, 11, 101
1, 2373, Control_c, 12, 1, 87
1, 2373, Control_c, 12, 11, 110
1, 2375, Control_c, 2, 11, 99
1, 2375, Control_c, 12, 1, 47
1, 2376, Control_c, 12, 1, 3
1, 2376, Control_c, 12, 11, 107
1, 2378, Control_c, 12, 11, 106
1, 2378, Control_c, 12, 1, 0
1, 2379, Control_c, 2, 11, 96
1, 2379, Control_c, 12, 11, 104
1, 2381, Control_c, 12, 11, 102
1, 2382, Control_c, 12, 11, 99
1, 2384, Control_c, 12, 11, 97
1, 2385, Control_c, 12, 11, 95
1, 2386, Control_c, 2, 11, 94
1, 2387, Control_c, 12, 11, 92
1, 2389, Control_c, 12, 11, 90
1, 2390, Control_c, 12, 11, 87
1, 2391, Control_c, 12, 11, 85
1, 2392, Control_c, 12, 1, 2
1, 2393, Control_c, 2, 11, 91
1, 2393, Control_c, 12, 1, 27
1, 2393, Control_c, 12, 11, 84
1, 2395, Control_c, 12, 11, 82
1, 2395, Control_c, 12, 1, 25
1, 2396, Control_c, 12, 1, 3
1, 2396, Control_c, 12, 11, 80
1, 2398, Control_c, 12, 11, 78
1, 2398, Control_c, 12, 1, 0
1, 2399, Control_c, 2, 11, 88
1, 2399, Control_c, 12, 11, 76
1, 2401, Control_c, 12, 11, 74
1, 2402, Control_c, 12, 11, 71
1, 2404, Control_c, 2, 11, 86
1, 2404, Control_c, 12, 11, 69
1, 2405, Control_c, 12, 11, 67
1, 2407, Control_c, 12, 11, 65
1, 2408, Control_c, 12, 11, 62
1, 2409, Control_c, 2, 11, 83
1, 2410, Control_c, 12, 11, 60
1, 2411, Control_c, 12, 11, 58
1, 2413, Control_c, 2, 11, 80
1, 2413, Control_c, 12, 11, 57
1, 2414, Control_c, 12, 11, 55
1, 2416, Control_c, 12, 11, 53
1, 2418, Control_c, 2, 11, 78
1, 2418, Control_c, 12, 11, 51
1, 2419, Control_c, 12, 11, 49
1, 2421, Control_c, 12, 11, 47
1, 2422, Control_c, 2, 11, 75
1, 2422, Control_c, 12, 11, 45
1, 2424, Control_c, 12, 11, 43
1, 2425, Control_c, 12, 11, 41
1, 2427, Control_c, 2, 11, 73
1, 2427, Control_c, 12, 11, 39
1, 2428, Control_c, 12, 11, 37
1, 2430, Control_c, 12, 11, 35
1, 2431, Control_c, 2, 11, 70
1, 2431, Control_c, 12, 11, 34
1, 2433, Control_c, 12, 11, 32
1, 2434, Control_c, 12, 11, 30
1, 2436, Control_c, 2, 11, 67
1, 2436, Control_c, 12, 11, 28
1, 2437, Control_c, 12, 11, 27
1, 2439, Control_c, 12, 11, 24
1, 2440, Control_c, 2, 11, 64
1, 2441, Control_c, 12, 11, 22
1, 2442, Control_c, 2, 11, 63
1, 2442, Control_c, 12, 11, 20
1, 2443, Control_c, 12, 11, 18
1, 2445, Control_c, 12, 11, 16
1, 2447, Control_c, 2, 11, 60
1, 2447, Control_c, 12, 11, 14
1, 2448, Control_c, 12, 11, 11
1, 2449, Control_c, 12, 11, 9
1, 2451, Control_c, 12, 11, 6
1, 2453, Control_c, 2, 11, 57
1, 2453, Control_c, 12, 11, 3
1, 2454, Control_c, 12, 11, 1
1, 2459, Control_c, 2, 11, 55
1, 2463, Pitch_bend_c, 12, 15095
1, 2464, Pitch_bend_c, 12, 9479
1, 2465, Control_c, 2, 11, 52
1, 2465, Pitch_bend_c, 12, 8192
1, 2470, Note_on_c, 12, 76, 0
1, 2470, Control_c, 2, 11, 49
1, 2472, Note_on_c, 4, 57, 0
1, 2472, Note_on_c, 3, 60, 70
1, 2472, Note_on_c, 4, 48, 49
1, 2474, Control_c, 2, 11, 47
1, 2479, Note_on_c, 2, 57, 0
1, 2479, Control_c, 2, 11, 44
1, 2480, Note_on_c, 2, 41, 0
1, 2480, Control_c, 2, 11, 42
1, 2482, Note_on_c, 2, 60, 0
1, 2482, Control_c, 2, 11, 41
1, 2483, Control_c, 2, 11, 39
1, 2485, Control_c, 12, 11, 7
1, 2486, Control_c, 2, 11, 37
1, 2486, Control_c, 12, 11, 13
1, 2488, Note_on_c, 0, 53, 0
1, 2488, Note_on_c, 0, 57, 0
1, 2488, Note_on_c, 0, 41, 0
1, 2488, Note_on_c, 5, 60, 0
1, 2488, Note_on_c, 0, 65, 0
1, 2488, Note_on_c, 0, 60, 0
1, 2488, Control_c, 12, 11, 21
1, 2489, Control_c, 12, 11, 30
1, 2491, Control_c, 2, 11, 33
1, 2491, Control_c, 12, 11, 41
1, 2492, Control_c, 12, 11, 54
1, 2494, Note_on_c, 5, 57, 0
1, 2494, Control_c, 12, 11, 71
1, 2495, Note_on_c, 5, 53, 0
1, 2495, Note_on_c, 3, 60, 0
1, 2495, Note_on_c, 0, 61, 83
1, 2495, Note_on_c, 0, 53, 83
1, 2495, Note_on_c, 0, 65, 83
1, 2495, Note_on_c, 0, 58, 83
1, 2495, Note_on_c, 0, 41, 83
1, 2495, Note_on_c, 0, 63, 83
1, 2495, Note_on_c, 5, 61, 71
1, 2495, Note_on_c, 5, 63, 65
1, 2495, Note_on_c, 5, 58, 62
1, 2496, Control_c, 2, 11, 31
1, 2496, Note_on_c, 5, 53, 77
1, 2496, Control_c, 12, 11, 93
1, 2497, Note_on_c, 4, 48, 0
1, 2497, Note_on_c, 3, 72, 77
1, 2497, Note_on_c, 4, 60, 56
1, 2497, Control_c, 12, 11, 127
1, 2500, Control_c, 2, 11, 28
1, 2505, Control_c, 2, 11, 24
1, 2509, Control_c, 2, 11, 21
1, 2514, Control_c, 2, 11, 18
1, 2519, Control_c, 2, 11, 15
1, 2523, Control_c, 2, 11, 12
1, 2528, Control_c, 2, 11, 8
1, 2529, Control_c, 2, 11, 6
1, 2531, Control_c, 2, 11, 4
1, 2532, Control_c, 2, 11, 2
1, 2537, Note_on_c, 3, 72, 0
1, 2541, Note_on_c, 0, 69, 0
1, 2542, Note_on_c, 4, 60, 0
1, 2543, Note_on_c, 3, 72, 88
1, 2543, Note_on_c, 4, 60, 67
1, 2551, Control_c, 2, 11, 5
1, 2552, Control_c, 2, 11, 8
1, 2554, Control_c, 2, 11, 12
1, 2555, Control_c, 2, 11, 17
1, 2557, Control_c, 2, 11, 22
1, 2558, Control_c, 2, 11, 28
1, 2560, Control_c, 2, 11, 35
1, 2561, Control_c, 2, 11, 44
1, 2563, Note_on_c, 3, 72, 0
1, 2563, Control_c, 2, 11, 54
1, 2564, Control_c, 2, 11, 68
1, 2566, Control_c, 2, 11, 91
1, 2567, Control_c, 2, 11, 126
1, 2568, Note_on_c, 4, 60, 0
1, 2568, Note_on_c, 3, 70, 84
1, 2568, Note_on_c, 4, 58, 63
1, 2617, Note_on_c, 4, 58, 0
1, 2617, Note_on_c, 3, 65, 59
1, 2617, Note_on_c, 4, 53, 38
1, 2621, Note_on_c, 3, 70, 0
1, 2640, Note_on_c, 3, 65, 0
1, 2641, Note_on_c, 4, 53, 0
1, 2641, Note_on_c, 3, 67, 64
1, 2641, Note_on_c, 4, 55, 43
1, 2662, Note_on_c, 3, 67, 0
1, 2665, Note_on_c, 4, 55, 0
1, 2665, Note_on_c, 3, 69, 79
1, 2665, Note_on_c, 4, 57, 58
1, 2675, Note_on_c, 5, 53, 0
1, 2686, Note_on_c, 5, 63, 0
1, 2686, Note_on_c, 0, 53, 0
1, 2686, Note_on_c, 5, 61, 0
1, 2686, Note_on_c, 0, 41, 0
1, 2686, Note_on_c, 5, 58, 0
1, 2686, Note_on_c, 0, 65, 0
1, 2687, Note_on_c, 0, 63, 0
1, 2687, Note_on_c, 0, 61, 0
1, 2687, Note_on_c, 0, 58, 0
1, 2687, Note_on_c, 0, 53, 86
1, 2687, Note_on_c, 0, 60, 86
1, 2687, Note_on_c, 0, 65, 86
1, 2687, Note_on_c, 0, 41, 86
1, 2687, Note_on_c, 0, 57, 86
1, 2689, Note_on_c, 5, 57, 71
1, 2689, Note_on_c, 5, 60, 75
1, 2689, Note_on_c, 5, 53, 76
1, 2710, Note_on_c, 3, 69, 0
1, 2831, Note_on_c, 4, 57, 0
1, 2831, Note_on_c, 3, 60, 75
1, 2831, Note_on_c, 4, 48, 54
1, 2849, Note_on_c, 3, 60, 0
1, 2854, Note_on_c, 4, 48, 0
1, 2855, Note_on_c, 3, 60, 85
1, 2855, Note_on_c, 4, 48, 64
1, 2873, Note_on_c, 5, 60, 0
1, 2876, Note_on_c, 0, 60, 0
1, 2876, Note_on_c, 0, 53, 0
1, 2876, Note_on_c, 0, 57, 0
1, 2876, Note_on_c, 0, 41, 0
1, 2876, Note_on_c, 0, 65, 0
1, 2879, Note_on_c, 3, 60, 0
1, 2879, Note_on_c, 0, 60, 95
1, 2879, Note_on_c, 0, 49, 95
1, 2879, Note_on_c, 0, 55, 95
1, 2879, Note_on_c, 0, 45, 95
1, 2879, Note_on_c, 5, 55, 86
1, 2879, Note_on_c, 5, 60, 86
1, 2880, Note_on_c, 5, 57, 0
1, 2880, Note_on_c, 5, 53, 0
1, 2880, Note_on_c, 5, 41, 0
1, 2880, Note_on_c, 5, 45, 80
1, 2881, Note_on_c, 4, 48, 0
1, 2881, Note_on_c, 3, 69, 89
1, 2881, Note_on_c, 4, 57, 68
1, 2903, Note_on_c, 4, 57, 0
1, 2903, Note_on_c, 3, 69, 0
1, 2903, Note_on_c, 3, 70, 75
1, 2903, Note_on_c, 4, 58, 54
1, 2925, Note_on_c, 3, 70, 0
1, 2927, Note_on_c, 4, 58, 0
1, 2927, Note_on_c, 3, 72, 69
1, 2927, Note_on_c, 4, 60, 48
1, 2951, Note_on_c, 4, 60, 0
1, 2951, Note_on_c, 3, 74, 74
1, 2951, Note_on_c, 4, 62, 53
1, 2955, Note_on_c, 3, 72, 0
1, 2971, Note_on_c, 5, 60, 0
1, 2974, Note_on_c, 0, 60, 0
1, 2974, Note_on_c, 0, 55, 0
1, 2975, Note_on_c, 5, 55, 0
1, 2975, Note_on_c, 0, 58, 96
1, 2975, Note_on_c, 5, 53, 81
1, 2975, Note_on_c, 5, 58, 68
1, 2976, Note_on_c, 0, 53, 93
1, 2999, Note_on_c, 4, 62, 0
1, 2999, Note_on_c, 3, 72, 81
1, 2999, Note_on_c, 4, 60, 60
1, 3005, Note_on_c, 3, 74, 0
1, 3023, Note_on_c, 4, 60, 0
1, 3023, Note_on_c, 3, 70, 75
1, 3023, Note_on_c, 4, 58, 54
1, 3024, Note_on_c, 3, 72, 0
1, 3047, Note_on_c, 4, 58, 0
1, 3047, Note_on_c, 3, 69, 71
1, 3047, Note_on_c, 4, 57, 50
1, 3051, Note_on_c, 3, 70, 0
1, 3059, Note_on_c, 4, 57, 0
1, 3059, Note_on_c, 3, 70, 64
1, 3059, Note_on_c, 4, 58, 43
1, 3062, Note_on_c, 3, 69, 0
1, 3068, Note_on_c, 5, 45, 0
1, 3069, Note_on_c, 5, 58, 0
1, 3069, Note_on_c, 5, 53, 0
1, 3071, Note_on_c, 4, 58, 0
1, 3071, Note_on_c, 3, 69, 62
1, 3071, Note_on_c, 4, 57, 41
1, 3071, Note_on_c, 5, 57, 78
1, 3071, Note_on_c, 5, 38, 79
1, 3073, Note_on_c, 0, 60, 84
1, 3073, Note_on_c, 0, 64, 84
1, 3073, Note_on_c, 0, 50, 84
1, 3073, Note_on_c, 0, 57, 84
1, 3073, Note_on_c, 0, 65, 84
1, 3074, Note_on_c, 5, 60, 55
1, 3074, Note_on_c, 5, 64, 53
1, 3074, Note_on_c, 5, 65, 53
1, 3075, Note_on_c, 0, 58, 0
1, 3075, Note_on_c, 0, 45, 0
1, 3075, Note_on_c, 3, 70, 0
1, 3075, Note_on_c, 0, 53, 0
1, 3075, Note_on_c, 0, 49, 0
1, 3084, Note_on_c, 4, 57, 0
1, 3084, Note_on_c, 3, 67, 58
1, 3084, Note_on_c, 4, 55, 37
1, 3085, Note_on_c, 3, 69, 0
1, 3097, Note_on_c, 4, 55, 0
1, 3097, Note_on_c, 3, 65, 55
1, 3097, Note_on_c, 4, 53, 34
1, 3100, Note_on_c, 3, 67, 0
1, 3122, Note_on_c, 3, 65, 0
1, 3145, Note_on_c, 0, 62, 103
1, 3168, Note_on_c, 5, 88, 68
1, 3190, Note_on_c, 4, 53, 0
1, 3191, Note_on_c, 3, 65, 76
1, 3191, Note_on_c, 4, 53, 55
1, 3192, Note_on_c, 0, 64, 0
1, 3193, Note_on_c, 0, 64, 101
1, 3215, Note_on_c, 3, 65, 0
1, 3217, Note_on_c, 4, 53, 0
1, 3217, Note_on_c, 3, 67, 71
1, 3217, Note_on_c, 4, 55, 50
1, 3240, Note_on_c, 0, 65, 0
1, 3241, Note_on_c, 4, 55, 0
1, 3241, Note_on_c, 0, 65, 84
1, 3241, Note_on_c, 3, 69, 74
1, 3241, Note_on_c, 4, 57, 53
1, 3242, Note_on_c, 3, 67, 0
1, 3250, Note_on_c, 5, 57, 0
1, 3261, Note_on_c, 5, 65, 0
1, 3261, Note_on_c, 5, 64, 0
1, 3262, Note_on_c, 5, 38, 0
1, 3264, Note_on_c, 0, 57, 0
1, 3264, Note_on_c, 0, 62, 0
1, 3265, Note_on_c, 5, 60, 0
1, 3265, Note_on_c, 0, 53, 80
1, 3265, Note_on_c, 0, 62, 86
1, 3265, Note_on_c, 0, 46, 77
1, 3265, Note_on_c, 0, 57, 87
1, 3265, Note_on_c, 5, 58, 67
1, 3265, Note_on_c, 5, 53, 70
1, 3265, Note_on_c, 5, 46, 80
1, 3265, Note_on_c, 5, 62, 73
1, 3265, Note_on_c, 5, 57, 77
1, 3268, Note_on_c, 0, 65, 0
1, 3268, Note_on_c, 0, 50, 0
1, 3268, Note_on_c, 0, 60, 0
1, 3268, Note_on_c, 0, 64, 0
1, 3284, Note_on_c, 0, 53, 0
1, 3289, Note_on_c, 5, 88, 0
1, 3312, Note_on_c, 0, 57, 0
1, 3312, Note_on_c, 3, 69, 0
1, 3313, Note_on_c, 0, 57, 69
1, 3359, Note_on_c, 0, 46, 0
1, 3360, Note_on_c, 0, 46, 65
1, 3383, Note_on_c, 4, 57, 0
1, 3383, Note_on_c, 3, 65, 71
1, 3383, Note_on_c, 4, 53, 50
1, 3401, Note_on_c, 3, 65, 0
1, 3407, Note_on_c, 4, 53, 0
1, 3407, Note_on_c, 3, 67, 72
1, 3407, Note_on_c, 4, 55, 51
1, 3409, Note_on_c, 0, 67, 98
1, 3427, Note_on_c, 3, 67, 0
1, 3431, Note_on_c, 4, 55, 0
1, 3431, Note_on_c, 3, 69, 82
1, 3431, Note_on_c, 4, 57, 61
1, 3433, Note_on_c, 0, 60, 95
1, 3448, Note_on_c, 5, 58, 0
1, 3448, Note_on_c, 5, 62, 0
1, 3449, Note_on_c, 5, 53, 0
1, 3450, Note_on_c, 5, 57, 0
1, 3455, Note_on_c, 5, 58, 67
1, 3455, Note_on_c, 5, 62, 68
1, 3455, Note_on_c, 5, 55, 78
1, 3455, Note_on_c, 5, 39, 78
1, 3456, Note_on_c, 5, 46, 0
1, 3456, Note_on_c, 0, 46, 0
1, 3456, Note_on_c, 0, 55, 78
1, 3457, Note_on_c, 0, 46, 89
1, 3457, Note_on_c, 0, 39, 82
1, 3459, Note_on_c, 0, 57, 0
1, 3459, Note_on_c, 0, 62, 0
1, 3503, Note_on_c, 4, 57, 0
1, 3503, Note_on_c, 3, 67, 64
1, 3503, Note_on_c, 4, 55, 43
1, 3504, Note_on_c, 0, 55, 0
1, 3505, Note_on_c, 0, 55, 102
1, 3507, Note_on_c, 3, 69, 0
1, 3520, Note_on_c, 3, 67, 0
1, 3528, Note_on_c, 4, 55, 0
1, 3529, Note_on_c, 0, 65, 110
1, 3529, Note_on_c, 3, 67, 71
1, 3529, Note_on_c, 4, 55, 50
1, 3554, Pitch_bend_c, 3, 5968
1, 3554, Pitch_bend_c, 4, 5968
1, 3555, Pitch_bend_c, 3, 3511
1, 3555, Pitch_bend_c, 4, 3511
1, 3557, Pitch_bend_c, 3, 1405
1, 3557, Pitch_bend_c, 4, 1405
1, 3558, Pitch_bend_c, 3, 0
1, 3558, Pitch_bend_c, 4, 0
1, 3578, Note_on_c, 3, 67, 0
1, 3586, Pitch_bend_c, 3, 352
1, 3586, Pitch_bend_c, 4, 352
1, 3588, Pitch_bend_c, 3, 2809
1, 3588, Pitch_bend_c, 4, 2809
1, 3589, Pitch_bend_c, 3, 6202
1, 3589, Pitch_bend_c, 4, 6202
1, 3591, Pitch_bend_c, 3, 8192
1, 3591, Pitch_bend_c, 4, 8192
1, 3600, Note_on_c, 4, 55, 0
1, 3601, Note_on_c, 3, 67, 76
1, 3601, Note_on_c, 4, 55, 55
1, 3618, Note_on_c, 3, 67, 0
1, 3622, Note_on_c, 0, 60, 0
1, 3623, Note_on_c, 0, 60, 115
1, 3624, Note_on_c, 4, 55, 0
1, 3624, Note_on_c, 3, 69, 77
1, 3624, Note_on_c, 4, 57, 56
1, 3634, Note_on_c, 5, 62, 0
1, 3634, Note_on_c, 5, 58, 0
1, 3646, Note_on_c, 5, 55, 0
1, 3646, Note_on_c, 5, 39, 0
1, 3647, Note_on_c, 0, 55, 0
1, 3647, Note_on_c, 0, 48, 83
1, 3647, Note_on_c, 5, 58, 67
1, 3647, Note_on_c, 5, 65, 73
1, 3647, Note_on_c, 5, 36, 79
1, 3647, Note_on_c, 5, 62, 79
1, 3648, Note_on_c, 0, 55, 90
1, 3648, Note_on_c, 0, 53, 81
1, 3648, Note_on_c, 0, 58, 74
1, 3650, Note_on_c, 0, 46, 0
1, 3650, Note_on_c, 0, 39, 0
1, 3650, Note_on_c, 0, 65, 0
1, 3650, Note_on_c, 0, 67, 0
1, 3667, Note_on_c, 0, 53, 0
1, 3669, Note_on_c, 3, 69, 0
1, 3671, Note_on_c, 4, 57, 0
1, 3671, Note_on_c, 3, 72, 68
1, 3671, Note_on_c, 4, 60, 47
1, 3673, Note_on_c, 0, 53, 66
1, 3686, Note_on_c, 3, 72, 0
1, 3694, Note_on_c, 4, 60, 0
1, 3695, Note_on_c, 3, 72, 85
1, 3695, Note_on_c, 4, 60, 64
1, 3696, Note_on_c, 0, 53, 0
1, 3697, Note_on_c, 0, 53, 62
1, 3719, Note_on_c, 4, 60, 0
1, 3719, Note_on_c, 3, 69, 74
1, 3719, Note_on_c, 4, 57, 53
1, 3720, Note_on_c, 3, 72, 0
1, 3721, Note_on_c, 0, 52, 60
1, 3741, Note_on_c, 5, 65, 0
1, 3744, Note_on_c, 0, 52, 0
1, 3744, Note_on_c, 0, 36, 71
1, 3744, Note_on_c, 0, 64, 106
1, 3744, Note_on_c, 5, 60, 73
1, 3745, Note_on_c, 0, 52, 84
1, 3745, Note_on_c, 5, 64, 69
1, 3747, Note_on_c, 5, 62, 0
1, 3748, Note_on_c, 0, 60, 0
1, 3748, Note_on_c, 0, 48, 0
1, 3748, Note_on_c, 0, 53, 0
1, 3748, Note_on_c, 0, 58, 0
1, 3748, Note_on_c, 0, 55, 0
1, 3749, Note_on_c, 0, 52, 0
1, 3752, Note_on_c, 3, 69, 0
1, 3769, Note_on_c, 4, 57, 0
1, 3769, Note_on_c, 3, 72, 70
1, 3769, Note_on_c, 4, 60, 49
1, 3787, Note_on_c, 3, 72, 0
1, 3792, Note_on_c, 4, 60, 0
1, 3792, Note_on_c, 0, 55, 61
1, 3793, Note_on_c, 3, 72, 71
1, 3793, Note_on_c, 4, 60, 50
1, 3809, Note_on_c, 3, 72, 0
1, 3816, Note_on_c, 4, 60, 0
1, 3817, Note_on_c, 3, 72, 83
1, 3817, Note_on_c, 4, 60, 62
1, 3827, Note_on_c, 5, 60, 0
1, 3833, Note_on_c, 0, 36, 0
1, 3833, Note_on_c, 0, 55, 0
1, 3833, Note_on_c, 0, 64, 0
1, 3837, Note_on_c, 5, 36, 0
1, 3838, Note_on_c, 5, 58, 0
1, 3839, Note_on_c, 0, 55, 88
1, 3839, Note_on_c, 0, 60, 88
1, 3839, Note_on_c, 0, 57, 88
1, 3839, Note_on_c, 0, 48, 80
1, 3839, Note_on_c, 0, 41, 80
1, 3839, Note_on_c, 5, 57, 83
1, 3840, Note_on_c, 5, 64, 0
1, 3841, Note_on_c, 5, 55, 87
1, 3841, Note_on_c, 5, 60, 87
1, 3841, Note_on_c, 5, 41, 80
1, 3863, Note_on_c, 4, 60, 0
1, 3863, Note_on_c, 3, 69, 69
1, 3863, Note_on_c, 4, 57, 48
1, 3864, Note_on_c, 3, 72, 0
1, 3886, Pitch_bend_c, 3, 6319
1, 3886, Pitch_bend_c, 4, 6319
1, 3888, Pitch_bend_c, 3, 2107
1, 3888, Pitch_bend_c, 4, 2107
1, 3889, Pitch_bend_c, 3, 0
1, 3889, Pitch_bend_c, 4, 0
1, 3895, Pitch_bend_c, 3, 586
1, 3895, Pitch_bend_c, 4, 586
1, 3897, Pitch_bend_c, 3, 4330
1, 3897, Pitch_bend_c, 4, 4330
1, 3898, Pitch_bend_c, 3, 8192
1, 3898, Pitch_bend_c, 4, 8192
1, 3932, Note_on_c, 3, 69, 0
1, 3934, Note_on_c, 0, 55, 0
1, 3935, Note_on_c, 0, 53, 70
1, 3935, Note_on_c, 5, 53, 68
1, 3937, Note_on_c, 5, 55, 0
1, 3955, Control_c, 5, 64, 127
1, 3976, Note_on_c, 5, 53, 0
1, 3979, Note_on_c, 5, 57, 0
1, 3985, Note_on_c, 5, 60, 0
1, 4005, Note_on_c, 4, 57, 0
1, 4005, Note_on_c, 3, 60, 71
1, 4005, Note_on_c, 4, 48, 50
1, 4027, Control_c, 5, 64, 0
1, 4029, Note_on_c, 0, 48, 0
1, 4029, Note_on_c, 0, 60, 0
1, 4029, Note_on_c, 0, 41, 0
1, 4029, Note_on_c, 0, 53, 0
1, 4029, Note_on_c, 0, 57, 0
1, 4030, Note_on_c, 4, 48, 0
1, 4030, Note_on_c, 3, 72, 85
1, 4030, Note_on_c, 4, 60, 64
1, 4031, Note_on_c, 3, 60, 0
1, 4031, Note_on_c, 0, 58, 85
1, 4031, Note_on_c, 0, 61, 85
1, 4031, Note_on_c, 0, 53, 92
1, 4031, Note_on_c, 0, 65, 98
1, 4031, Note_on_c, 0, 41, 92
1, 4031, Note_on_c, 5, 53, 85
1, 4031, Note_on_c, 5, 58, 78
1, 4031, Note_on_c, 5, 61, 78
1, 4031, Note_on_c, 5, 77, 94
1, 4031, Note_on_c, 5, 70, 72
1, 4066, Control_c, 5, 64, 127
1, 4069, Note_on_c, 3, 72, 0
1, 4077, Note_on_c, 4, 60, 0
1, 4078, Note_on_c, 3, 72, 86
1, 4078, Note_on_c, 4, 60, 65
1, 4080, Note_on_c, 5, 70, 0
1, 4087, Note_on_c, 5, 77, 0
1, 4097, Note_on_c, 3, 72, 0
1, 4103, Note_on_c, 4, 60, 0
1, 4103, Note_on_c, 3, 70, 82
1, 4103, Note_on_c, 4, 58, 61
1, 4127, Note_on_c, 5, 89, 100
1, 4127, Note_on_c, 5, 82, 75
1, 4138, Note_on_c, 3, 70, 0
1, 4144, Note_on_c, 5, 89, 0
1, 4148, Note_on_c, 5, 82, 0
1, 4151, Note_on_c, 4, 58, 0
1, 4151, Note_on_c, 3, 65, 71
1, 4151, Note_on_c, 4, 53, 50
1, 4151, Note_on_c, 5, 75, 79
1, 4158, Note_on_c, 5, 75, 0
1, 4171, Note_on_c, 3, 65, 0
1, 4175, Note_on_c, 4, 53, 0
1, 4175, Note_on_c, 3, 67, 74
1, 4175, Note_on_c, 4, 55, 53
1, 4178, Note_on_c, 5, 58, 0
1, 4179, Note_on_c, 5, 53, 0
1, 4180, Note_on_c, 5, 61, 0
1, 4195, Note_on_c, 3, 67, 0
1, 4199, Note_on_c, 5, 72, 84
1, 4200, Note_on_c, 4, 55, 0
1, 4200, Note_on_c, 3, 69, 86
1, 4200, Note_on_c, 4, 57, 65
1, 4204, Note_on_c, 5, 79, 79
1, 4208, Note_on_c, 5, 72, 0
1, 4209, Note_on_c, 5, 76, 61
1, 4214, Note_on_c, 5, 74, 74
1, 4217, Note_on_c, 0, 61, 0
1, 4217, Note_on_c, 0, 58, 0
1, 4217, Note_on_c, 0, 41, 0
1, 4217, Note_on_c, 0, 65, 0
1, 4217, Note_on_c, 0, 53, 0
1, 4218, Note_on_c, 5, 41, 0
1, 4219, Note_on_c, 5, 72, 86
1, 4223, Note_on_c, 0, 41, 91
1, 4223, Note_on_c, 0, 60, 92
1, 4223, Note_on_c, 0, 57, 90
1, 4223, Note_on_c, 0, 55, 91
1, 4223, Note_on_c, 0, 48, 80
1, 4223, Control_c, 5, 64, 0
1, 4224, Note_on_c, 5, 69, 98
1, 4225, Note_on_c, 5, 60, 97
1, 4225, Note_on_c, 5, 53, 92
1, 4225, Note_on_c, 5, 41, 84
1, 4243, Note_on_c, 3, 69, 0
1, 4325, Control_c, 5, 64, 127
1, 4333, Note_on_c, 5, 41, 0
1, 4335, Note_on_c, 5, 79, 0
1, 4336, Note_on_c, 5, 76, 0
1, 4337, Note_on_c, 5, 74, 0
1, 4337, Note_on_c, 5, 60, 0
1, 4337, Note_on_c, 5, 72, 0
1, 4337, Note_on_c, 5, 53, 0
1, 4341, Note_on_c, 5, 69, 0
1, 4344, Note_on_c, 0, 55, 0
1, 4344, Note_on_c, 0, 48, 0
1, 4344, Note_on_c, 0, 41, 0
1, 4344, Note_on_c, 0, 57, 0
1, 4344, Note_on_c, 0, 60, 0
1, 4348, Note_on_c, 0, 31, 109
1, 4349, Note_on_c, 0, 43, 109
1, 4349, Note_on_c, 0, 53, 109
1, 4349, Note_on_c, 0, 58, 109
1, 4350, Note_on_c, 5, 43, 85
1, 4376, Note_on_c, 5, 43, 0
1, 4377, Note_on_c, 0, 43, 0
1, 4377, Note_on_c, 0, 58, 0
1, 4378, Note_on_c, 0, 53, 0
1, 4383, Note_on_c, 0, 31, 0
1, 4383, Note_on_c, 0, 59, 109
1, 4383, Note_on_c, 0, 32, 109
1, 4383, Note_on_c, 5, 44, 78
1, 4384, Note_on_c, 0, 44, 109
1, 4384, Note_on_c, 0, 54, 109
1, 4393, Note_on_c, 4, 57, 0
1, 4393, Note_on_c, 3, 60, 75
1, 4393, Note_on_c, 4, 48, 54
1, 4408, Note_on_c, 5, 44, 0
1, 4412, Note_on_c, 3, 60, 0
1, 4413, Note_on_c, 0, 32, 0
1, 4413, Note_on_c, 0, 44, 0
1, 4413, Note_on_c, 0, 59, 0
1, 4413, Note_on_c, 0, 54, 0
1, 4415, Note_on_c, 5, 60, 76
1, 4415, Note_on_c, 5, 49, 79
1, 4415, Control_c, 5, 64, 0
1, 4415, Note_on_c, 5, 45, 79
1, 4415, Note_on_c, 5, 55, 69
1, 4416, Note_on_c, 0, 45, 99
1, 4416, Note_on_c, 0, 60, 99
1, 4416, Note_on_c, 0, 55, 99
1, 4416, Note_on_c, 0, 33, 99
1, 4416, Note_on_c, 5, 65, 79
1, 4417, Note_on_c, 4, 48, 0
1, 4417, Note_on_c, 3, 69, 79
1, 4417, Note_on_c, 4, 57, 58
1, 4438, Note_on_c, 3, 69, 0
1, 4440, Note_on_c, 4, 57, 0
1, 4440, Note_on_c, 3, 70, 76
1, 4440, Note_on_c, 4, 58, 55
1, 4459, Note_on_c, 3, 70, 0
1, 4464, Note_on_c, 4, 58, 0
1, 4464, Note_on_c, 3, 72, 80
1, 4464, Note_on_c, 4, 60, 59
1, 4486, Note_on_c, 3, 72, 0
1, 4487, Note_on_c, 4, 60, 0
1, 4487, Note_on_c, 3, 74, 80
1, 4487, Note_on_c, 4, 62, 59
1, 4511, Note_on_c, 5, 65, 0
1, 4511, Note_on_c, 0, 58, 93
1, 4512, Note_on_c, 0, 53, 94
1, 4512, Note_on_c, 5, 53, 80
1, 4513, Note_on_c, 0, 55, 0
1, 4513, Note_on_c, 0, 60, 0
1, 4513, Note_on_c, 5, 58, 67
1, 4516, Note_on_c, 5, 55, 0
1, 4522, Note_on_c, 5, 60, 0
1, 4529, Note_on_c, 3, 74, 0
1, 4540, Note_on_c, 4, 62, 0
1, 4540, Note_on_c, 3, 72, 83
1, 4540, Note_on_c, 4, 60, 62
1, 4564, Control_c, 5, 64, 127
1, 4570, Note_on_c, 5, 58, 0
1, 4573, Note_on_c, 5, 49, 0
1, 4574, Note_on_c, 3, 72, 0
1, 4575, Note_on_c, 4, 60, 0
1, 4575, Note_on_c, 3, 70, 76
1, 4575, Note_on_c, 4, 58, 55
1, 4583, Note_on_c, 5, 53, 0
1, 4605, Control_c, 5, 64, 0
1, 4606, Note_on_c, 3, 70, 0
1, 4607, Note_on_c, 5, 50, 66
1, 4607, Note_on_c, 5, 65, 61
1, 4607, Note_on_c, 5, 60, 73
1, 4607, Note_on_c, 5, 38, 82
1, 4607, Note_on_c, 5, 57, 68
1, 4607, Note_on_c, 5, 64, 70
1, 4608, Note_on_c, 5, 45, 0
1, 4609, Note_on_c, 4, 58, 0
1, 4609, Note_on_c, 0, 64, 81
1, 4609, Note_on_c, 0, 65, 76
1, 4609, Note_on_c, 0, 38, 102
1, 4609, Note_on_c, 0, 60, 87
1, 4609, Note_on_c, 0, 50, 90
1, 4609, Note_on_c, 0, 57, 86
1, 4609, Note_on_c, 3, 69, 79
1, 4609, Note_on_c, 4, 57, 58
1, 4611, Note_on_c, 0, 45, 0
1, 4611, Note_on_c, 0, 53, 0
1, 4611, Note_on_c, 0, 58, 0
1, 4611, Note_on_c, 0, 33, 0
1, 4621, Note_on_c, 4, 57, 0
1, 4621, Note_on_c, 3, 70, 56
1, 4621, Note_on_c, 4, 58, 35
1, 4623, Note_on_c, 3, 69, 0
1, 4633, Note_on_c, 4, 58, 0
1, 4633, Note_on_c, 3, 69, 51
1, 4633, Note_on_c, 4, 57, 30
1, 4636, Note_on_c, 3, 70, 0
1, 4637, Control_c, 5, 64, 127
1, 4645, Note_on_c, 4, 57, 0
1, 4645, Note_on_c, 3, 67, 48
1, 4645, Note_on_c, 4, 55, 27
1, 4646, Note_on_c, 3, 69, 0
1, 4652, Note_on_c, 5, 57, 0
1, 4652, Note_on_c, 5, 50, 0
1, 4653, Note_on_c, 5, 60, 0
1, 4654, Note_on_c, 5, 64, 0
1, 4658, Note_on_c, 4, 55, 0
1, 4658, Note_on_c, 3, 65, 44
1, 4658, Note_on_c, 4, 53, 23
1, 4660, Note_on_c, 3, 67, 0
1, 4660, Note_on_c, 5, 65, 0
1, 4681, Note_on_c, 0, 62, 98
1, 4704, Note_on_c, 5, 64, 68
1, 4705, Note_on_c, 5, 65, 64
1, 4705, Note_on_c, 5, 72, 65
1, 4705, Note_on_c, 5, 69, 68
1, 4711, Note_on_c, 3, 65, 0
1, 4718, Control_c, 2, 11, 124
1, 4719, Note_on_c, 0, 64, 0
1, 4719, Note_on_c, 0, 65, 0
1, 4719, Note_on_c, 0, 60, 0
1, 4726, Note_on_c, 0, 62, 0
1, 4727, Note_on_c, 4, 53, 0
1, 4728, Note_on_c, 3, 65, 81
1, 4728, Note_on_c, 4, 53, 60
1, 4729, Note_on_c, 0, 64, 91
1, 4743, Control_c, 2, 11, 121
1, 4754, Control_c, 2, 11, 119
1, 4759, Note_on_c, 3, 65, 0
1, 4762, Note_on_c, 5, 69, 0
1, 4762, Note_on_c, 5, 72, 0
1, 4763, Note_on_c, 5, 65, 0
1, 4763, Note_on_c, 4, 53, 0
1, 4763, Note_on_c, 3, 67, 78
1, 4763, Note_on_c, 4, 55, 57
1, 4766, Note_on_c, 5, 64, 0
1, 4775, Note_on_c, 0, 65, 94
1, 4776, Control_c, 2, 11, 116
1, 4792, Note_on_c, 3, 67, 0
1, 4794, Control_c, 2, 11, 114
1, 4797, Note_on_c, 4, 55, 0
1, 4798, Note_on_c, 5, 38, 0
1, 4798, Note_on_c, 3, 67, 77
1, 4798, Note_on_c, 4, 55, 56
1, 4799, Control_c, 5, 64, 0
1, 4800, Note_on_c, 0, 57, 0
1, 4800, Note_on_c, 0, 62, 98
1, 4801, Note_on_c, 0, 57, 87
1, 4801, Note_on_c, 0, 34, 93
1, 4801, Note_on_c, 0, 46, 110
1, 4801, Note_on_c, 5, 65, 70
1, 4801, Note_on_c, 5, 57, 70
1, 4801, Note_on_c, 5, 46, 82
1, 4801, Note_on_c, 5, 58, 65
1, 4801, Note_on_c, 5, 62, 71
1, 4802, Note_on_c, 0, 50, 0
1, 4802, Note_on_c, 0, 65, 0
1, 4802, Note_on_c, 0, 64, 0
1, 4802, Note_on_c, 0, 38, 0
1, 4810, Control_c, 2, 11, 111
1, 4817, Note_on_c, 3, 67, 0
1, 4827, Control_c, 2, 11, 109
1, 4863, Control_c, 2, 11, 106
1, 4871, Note_on_c, 0, 64, 104
1, 4893, Control_c, 2, 11, 104
1, 4909, Control_c, 2, 11, 101
1, 4917, Control_c, 5, 64, 127
1, 4918, Note_on_c, 0, 62, 0
1, 4919, Note_on_c, 0, 62, 95
1, 4928, Control_c, 2, 11, 99
1, 4936, Control_c, 2, 11, 96
1, 4943, Note_on_c, 4, 55, 0
1, 4943, Note_on_c, 3, 65, 76
1, 4943, Note_on_c, 4, 53, 55
1, 4944, Note_on_c, 5, 58, 0
1, 4944, Note_on_c, 5, 65, 0
1, 4945, Note_on_c, 5, 62, 0
1, 4945, Note_on_c, 5, 57, 0
1, 4952, Control_c, 2, 11, 94
1, 4961, Control_c, 2, 11, 91
1, 4967, Note_on_c, 4, 53, 0
1, 4967, Note_on_c, 0, 60, 102
1, 4967, Note_on_c, 3, 67, 75
1, 4967, Note_on_c, 4, 55, 54
1, 4968, Control_c, 2, 11, 89
1, 4969, Note_on_c, 3, 65, 0
1, 4977, Control_c, 2, 11, 86
1, 4985, Control_c, 5, 64, 0
1, 4987, Note_on_c, 3, 67, 0
1, 4991, Note_on_c, 0, 64, 0
1, 4991, Note_on_c, 0, 34, 0
1, 4991, Note_on_c, 0, 57, 0
1, 4991, Note_on_c, 0, 62, 0
1, 4991, Note_on_c, 4, 55, 0
1, 4991, Note_on_c, 0, 46, 0
1, 4991, Note_on_c, 0, 36, 78
1, 4991, Note_on_c, 0, 48, 67
1, 4991, Note_on_c, 0, 53, 79
1, 4991, Note_on_c, 0, 58, 67
1, 4991, Note_on_c, 0, 55, 86
1, 4991, Note_on_c, 3, 69, 75
1, 4991, Note_on_c, 4, 57, 54
1, 4991, Note_on_c, 5, 62, 80
1, 4991, Note_on_c, 5, 58, 73
1, 4991, Note_on_c, 5, 65, 80
1, 4992, Note_on_c, 5, 46, 0
1, 4993, Control_c, 2, 11, 84
1, 4993, Note_on_c, 5, 36, 80
1, 5002, Control_c, 2, 11, 81
1, 5010, Control_c, 2, 11, 79
1, 5026, Control_c, 2, 11, 76
1, 5039, Note_on_c, 4, 57, 0
1, 5039, Note_on_c, 3, 67, 65
1, 5039, Note_on_c, 4, 55, 44
1, 5040, Note_on_c, 3, 69, 0
1, 5040, Control_c, 2, 11, 74
1, 5051, Control_c, 5, 64, 127
1, 5053, Control_c, 2, 11, 71
1, 5057, Note_on_c, 3, 67, 0
1, 5062, Note_on_c, 0, 48, 0
1, 5062, Note_on_c, 4, 55, 0
1, 5062, Control_c, 2, 11, 69
1, 5063, Note_on_c, 0, 48, 67
1, 5063, Note_on_c, 3, 67, 75
1, 5063, Note_on_c, 4, 55, 54
1, 5070, Control_c, 2, 11, 66
1, 5081, Control_c, 2, 11, 64
1, 5083, Pitch_bend_c, 3, 7840
1, 5083, Pitch_bend_c, 4, 7840
1, 5085, Pitch_bend_c, 3, 5149
1, 5085, Pitch_bend_c, 4, 5149
1, 5086, Pitch_bend_c, 3, 2107
1, 5086, Pitch_bend_c, 4, 2107
1, 5088, Note_on_c, 0, 48, 0
1, 5088, Note_on_c, 0, 53, 0
1, 5088, Note_on_c, 0, 55, 0
1, 5088, Note_on_c, 0, 58, 0
1, 5088, Pitch_bend_c, 3, 0
1, 5088, Pitch_bend_c, 4, 0
1, 5089, Note_on_c, 0, 48, 64
1, 5089, Note_on_c, 0, 55, 70
1, 5089, Note_on_c, 0, 53, 68
1, 5089, Note_on_c, 0, 58, 52
1, 5096, Note_on_c, 5, 62, 0
1, 5096, Note_on_c, 5, 58, 0
1, 5096, Control_c, 2, 11, 61
1, 5098, Note_on_c, 5, 65, 0
1, 5121, Control_c, 2, 11, 59
1, 5126, Pitch_bend_c, 3, 937
1, 5126, Pitch_bend_c, 4, 937
1, 5127, Note_on_c, 3, 67, 0
1, 5128, Pitch_bend_c, 3, 4798
1, 5128, Pitch_bend_c, 4, 4798
1, 5129, Pitch_bend_c, 3, 8192
1, 5129, Pitch_bend_c, 4, 8192
1, 5135, Note_on_c, 4, 55, 0
1, 5136, Control_c, 2, 11, 56
1, 5136, Note_on_c, 3, 67, 72
1, 5136, Note_on_c, 4, 55, 51
1, 5149, Control_c, 2, 11, 54
1, 5155, Note_on_c, 3, 67, 0
1, 5160, Note_on_c, 4, 55, 0
1, 5160, Note_on_c, 0, 36, 0
1, 5160, Note_on_c, 3, 69, 74
1, 5160, Note_on_c, 4, 57, 53
1, 5161, Note_on_c, 0, 36, 62
1, 5162, Control_c, 2, 11, 51
1, 5184, Note_on_c, 0, 36, 0
1, 5184, Note_on_c, 0, 48, 0
1, 5185, Note_on_c, 0, 36, 98
1, 5185, Note_on_c, 0, 52, 100
1, 5185, Note_on_c, 0, 48, 108
1, 5185, Note_on_c, 5, 60, 84
1, 5185, Note_on_c, 5, 67, 66
1, 5185, Note_on_c, 5, 64, 78
1, 5185, Note_on_c, 5, 58, 57
1, 5186, Control_c, 2, 11, 49
1, 5190, Note_on_c, 0, 53, 0
1, 5190, Control_c, 5, 64, 0
1, 5205, Note_on_c, 3, 69, 0
1, 5207, Note_on_c, 4, 57, 0
1, 5207, Note_on_c, 3, 72, 77
1, 5207, Note_on_c, 4, 60, 56
1, 5208, Control_c, 2, 11, 46
1, 5228, Note_on_c, 3, 72, 0
1, 5231, Note_on_c, 4, 60, 0
1, 5231, Note_on_c, 3, 74, 78
1, 5231, Note_on_c, 4, 62, 57
1, 5248, Tempo, 967742
1, 5256, Note_on_c, 9, 47, 52
1, 5257, Note_on_c, 9, 47, 0
1, 5257, Control_c, 9, 1, 0
1, 5257, Pitch_bend_c, 9, 8192
1, 5280, Note_on_c, 0, 67, 127
1, 5280, Note_on_c, 9, 47, 115
1, 5281, Note_on_c, 9, 47, 0
1, 5285, Control_c, 2, 11, 49
1, 5302, Note_on_c, 3, 74, 0
1, 5304, Note_on_c, 4, 62, 0
1, 5304, Note_on_c, 3, 67, 65
1, 5304, Note_on_c, 4, 55, 44
1, 5318, Note_on_c, 4, 55, 0
1, 5318, Note_on_c, 3, 69, 61
1, 5318, Note_on_c, 4, 57, 40
1, 5319, Note_on_c, 3, 67, 0
1, 5328, Note_on_c, 9, 45, 115
1, 5329, Note_on_c, 9, 45, 0
1, 5329, Note_on_c, 4, 57, 0
1, 5329, Note_on_c, 3, 65, 61
1, 5329, Note_on_c, 4, 53, 40
1, 5333, Note_on_c, 3, 69, 0
1, 5342, Control_c, 2, 11, 51
1, 5353, Note_on_c, 0, 36, 0
1, 5353, Note_on_c, 0, 48, 0
1, 5353, Note_on_c, 0, 52, 0
1, 5353, Note_on_c, 0, 58, 0
1, 5353, Note_on_c, 0, 55, 0
1, 5353, Note_on_c, 0, 60, 0
1, 5353, Note_on_c, 0, 67, 0
1, 5358, Control_c, 2, 11, 54
1, 5361, Note_on_c, 5, 60, 0
1, 5363, Note_on_c, 5, 64, 0
1, 5363, Note_on_c, 5, 58, 0
1, 5364, Note_on_c, 3, 65, 0
1, 5365, Note_on_c, 5, 67, 0
1, 5368, Tempo, 952381
1, 5375, Note_on_c, 4, 53, 0
1, 5376, Note_on_c, 5, 36, 0
1, 5376, Note_on_c, 0, 62, 90
1, 5376, Note_on_c, 0, 58, 85
1, 5376, Note_on_c, 0, 53, 92
1, 5376, Note_on_c, 0, 57, 85
1, 5376, Note_on_c, 0, 46, 89
1, 5376, Note_on_c, 1, 34, 97
1, 5376, Note_on_c, 3, 53, 97
1, 5376, Note_on_c, 4, 53, 76
1, 5376, Note_on_c, 9, 35, 98
1, 5376, Note_on_c, 9, 42, 49
1, 5377, Note_on_c, 9, 42, 0
1, 5377, Note_on_c, 9, 35, 0
1, 5377, Control_c, 1, 1, 0
1, 5377, Pitch_bend_c, 1, 8192
1, 5377, Note_on_c, 2, 57, 73
1, 5377, Note_on_c, 2, 65, 73
1, 5377, Note_on_c, 2, 62, 73
1, 5378, Note_on_c, 5, 69, 70
1, 5378, Note_on_c, 5, 70, 79
1, 5378, Note_on_c, 5, 74, 74
1, 5378, Note_on_c, 5, 77, 75
1, 5395, Note_on_c, 1, 34, 0
1, 5399, Note_on_c, 3, 53, 0
1, 5400, Note_on_c, 1, 34, 97
1, 5400, Note_on_c, 9, 42, 37
1, 5401, Note_on_c, 9, 42, 0
1, 5419, Note_on_c, 1, 34, 0
1, 5422, Note_on_c, 4, 53, 0
1, 5423, Note_on_c, 3, 53, 105
1, 5423, Note_on_c, 4, 53, 84
1, 5424, Note_on_c, 9, 42, 39
1, 5424, Note_on_c, 9, 35, 90
1, 5425, Note_on_c, 9, 35, 0
1, 5425, Note_on_c, 9, 42, 0
1, 5432, Control_c, 2, 11, 56
1, 5448, Note_on_c, 3, 53, 0
1, 5448, Note_on_c, 9, 42, 44
1, 5449, Note_on_c, 9, 42, 0
1, 5471, Note_on_c, 4, 53, 0
1, 5472, Note_on_c, 3, 53, 99
1, 5472, Note_on_c, 4, 53, 78
1, 5472, Note_on_c, 9, 37, 115
1, 5472, Note_on_c, 9, 42, 73
1, 5473, Note_on_c, 9, 42, 0
1, 5473, Note_on_c, 9, 37, 0
1, 5480, Control_c, 2, 11, 59
1, 5492, Note_on_c, 3, 53, 0
1, 5495, Note_on_c, 4, 53, 0
1, 5495, Note_on_c, 3, 48, 82
1, 5495, Note_on_c, 4, 48, 61
1, 5496, Note_on_c, 9, 42, 43
1, 5497, Note_on_c, 9, 42, 0
1, 5517, Note_on_c, 3, 48, 0
1, 5519, Note_on_c, 4, 48, 0
1, 5519, Note_on_c, 3, 50, 95
1, 5519, Note_on_c, 4, 50, 74
1, 5520, Note_on_c, 9, 42, 46
1, 5521, Note_on_c, 9, 42, 0
1, 5536, Control_c, 2, 11, 61
1, 5537, Note_on_c, 3, 50, 0
1, 5543, Note_on_c, 4, 50, 0
1, 5543, Note_on_c, 3, 53, 95
1, 5543, Note_on_c, 4, 53, 74
1, 5544, Note_on_c, 9, 42, 44
1, 5544, Note_on_c, 9, 35, 71
1, 5545, Note_on_c, 9, 35, 0
1, 5545, Note_on_c, 9, 42, 0
1, 5557, Note_on_c, 5, 77, 0
1, 5559, Note_on_c, 5, 69, 0
1, 5561, Note_on_c, 0, 57, 0
1, 5561, Note_on_c, 0, 62, 0
1, 5561, Note_on_c, 0, 53, 0
1, 5561, Note_on_c, 0, 58, 0
1, 5561, Note_on_c, 0, 46, 0
1, 5567, Note_on_c, 0, 60, 90
1, 5567, Note_on_c, 0, 53, 96
1, 5567, Note_on_c, 0, 57, 85
1, 5567, Note_on_c, 0, 65, 98
1, 5567, Note_on_c, 0, 45, 87
1, 5567, Note_on_c, 2, 60, 74
1, 5567, Note_on_c, 5, 69, 77
1, 5567, Note_on_c, 5, 72, 78
1, 5567, Note_on_c, 5, 77, 76
1, 5568, Note_on_c, 1, 33, 103
1, 5568, Note_on_c, 9, 35, 113
1, 5568, Note_on_c, 9, 42, 66
1, 5569, Note_on_c, 9, 42, 0
1, 5569, Note_on_c, 9, 35, 0
1, 5569, Note_on_c, 5, 74, 0
1, 5569, Note_on_c, 5, 70, 0
1, 5573, Note_on_c, 2, 62, 0
1, 5586, Note_on_c, 1, 33, 0
1, 5587, Note_on_c, 3, 53, 0
1, 5589, Control_c, 2, 11, 64
1, 5591, Note_on_c, 4, 53, 0
1, 5591, Note_on_c, 3, 55, 103
1, 5591, Note_on_c, 4, 55, 82
1, 5592, Note_on_c, 1, 33, 103
1, 5592, Note_on_c, 9, 42, 44
1, 5593, Note_on_c, 9, 42, 0
1, 5615, Note_on_c, 3, 55, 0
1, 5616, Note_on_c, 4, 55, 0
1, 5616, Note_on_c, 3, 57, 86
1, 5616, Note_on_c, 4, 57, 65
1, 5616, Note_on_c, 9, 42, 56
1, 5617, Note_on_c, 9, 42, 0
1, 5617, Note_on_c, 1, 33, 0
1, 5633, Note_on_c, 3, 57, 0
1, 5634, Control_c, 2, 11, 66
1, 5639, Note_on_c, 4, 57, 0
1, 5640, Note_on_c, 3, 57, 93
1, 5640, Note_on_c, 4, 57, 72
1, 5640, Note_on_c, 9, 42, 39
1, 5641, Note_on_c, 9, 42, 0
1, 5653, Note_on_c, 5, 77, 0
1, 5655, Note_on_c, 5, 72, 0
1, 5656, Note_on_c, 5, 69, 0
1, 5661, Note_on_c, 0, 65, 0
1, 5661, Note_on_c, 0, 60, 0
1, 5661, Note_on_c, 0, 53, 0
1, 5661, Note_on_c, 0, 57, 0
1, 5661, Note_on_c, 0, 45, 0
1, 5663, Note_on_c, 3, 57, 0
1, 5663, Note_on_c, 0, 62, 88
1, 5663, Note_on_c, 0, 60, 98
1, 5663, Note_on_c, 0, 57, 100
1, 5663, Note_on_c, 0, 65, 100
1, 5663, Note_on_c, 0, 50, 96
1, 5663, Note_on_c, 2, 62, 79
1, 5663, Note_on_c, 5, 77, 73
1, 5663, Note_on_c, 5, 74, 76
1, 5663, Note_on_c, 5, 69, 79
1, 5663, Note_on_c, 5, 72, 71
1, 5664, Note_on_c, 1, 38, 101
1, 5664, Note_on_c, 9, 42, 75
1, 5664, Note_on_c, 9, 37, 115
1, 5665, Note_on_c, 9, 37, 0
1, 5665, Note_on_c, 9, 42, 0
1, 5666, Note_on_c, 2, 60, 0
1, 5680, Note_on_c, 1, 38, 0
1, 5688, Note_on_c, 1, 38, 102
1, 5688, Note_on_c, 9, 42, 49
1, 5689, Note_on_c, 9, 42, 0
1, 5712, Note_on_c, 9, 42, 55
1, 5713, Note_on_c, 9, 42, 0
1, 5718, Note_on_c, 1, 38, 0
1, 5736, Note_on_c, 9, 35, 71
1, 5736, Note_on_c, 9, 42, 47
1, 5737, Note_on_c, 9, 42, 0
1, 5737, Note_on_c, 9, 35, 0
1, 5737, Note_on_c, 4, 57, 0
1, 5737, Control_c, 2, 11, 69
1, 5737, Note_on_c, 3, 48, 97
1, 5737, Note_on_c, 4, 48, 76
1, 5748, Note_on_c, 2, 57, 0
1, 5751, Note_on_c, 5, 77, 0
1, 5754, Note_on_c, 5, 74, 0
1, 5756, Note_on_c, 3, 48, 0
1, 5758, Note_on_c, 5, 69, 0
1, 5758, Note_on_c, 5, 72, 0
1, 5759, Note_on_c, 0, 50, 0
1, 5759, Note_on_c, 0, 65, 0
1, 5759, Note_on_c, 0, 62, 0
1, 5759, Note_on_c, 0, 57, 0
1, 5759, Note_on_c, 0, 60, 0
1, 5759, Note_on_c, 2, 58, 79
1, 5759, Note_on_c, 2, 55, 79
1, 5759, Note_on_c, 5, 70, 78
1, 5759, Note_on_c, 5, 74, 73
1, 5759, Note_on_c, 5, 67, 85
1, 5760, Note_on_c, 0, 58, 94
1, 5760, Note_on_c, 0, 43, 96
1, 5760, Note_on_c, 0, 53, 104
1, 5760, Note_on_c, 0, 50, 102
1, 5760, Note_on_c, 0, 55, 104
1, 5760, Note_on_c, 0, 62, 104
1, 5760, Note_on_c, 1, 31, 106
1, 5760, Note_on_c, 5, 77, 72
1, 5760, Note_on_c, 9, 42, 69
1, 5760, Note_on_c, 9, 35, 102
1, 5761, Note_on_c, 9, 35, 0
1, 5761, Note_on_c, 9, 42, 0
1, 5761, Note_on_c, 4, 48, 0
1, 5761, Note_on_c, 3, 53, 101
1, 5761, Note_on_c, 4, 53, 80
1, 5776, Note_on_c, 1, 31, 0
1, 5783, Note_on_c, 3, 53, 0
1, 5784, Note_on_c, 1, 31, 106
1, 5784, Note_on_c, 9, 42, 49
1, 5785, Note_on_c, 9, 42, 0
1, 5785, Note_on_c, 4, 53, 0
1, 5785, Note_on_c, 3, 50, 77
1, 5785, Note_on_c, 4, 50, 56
1, 5803, Note_on_c, 3, 50, 0
1, 5808, Note_on_c, 1, 31, 0
1, 5808, Note_on_c, 9, 35, 113
1, 5808, Note_on_c, 9, 42, 49
1, 5809, Note_on_c, 9, 42, 0
1, 5809, Note_on_c, 9, 35, 0
1, 5809, Note_on_c, 4, 50, 0
1, 5809, Note_on_c, 3, 53, 97
1, 5809, Note_on_c, 4, 53, 76
1, 5832, Note_on_c, 9, 42, 40
1, 5833, Note_on_c, 9, 42, 0
1, 5833, Note_on_c, 4, 53, 0
1, 5833, Note_on_c, 3, 53, 0
1, 5833, Note_on_c, 3, 50, 91
1, 5833, Note_on_c, 4, 50, 70
1, 5841, Control_c, 2, 11, 71
1, 5850, Note_on_c, 3, 50, 0
1, 5856, Note_on_c, 9, 42, 77
1, 5856, Note_on_c, 9, 37, 115
1, 5857, Note_on_c, 9, 37, 0
1, 5857, Note_on_c, 9, 42, 0
1, 5857, Note_on_c, 4, 50, 0
1, 5857, Note_on_c, 3, 53, 99
1, 5857, Note_on_c, 4, 53, 78
1, 5875, Control_c, 2, 11, 74
1, 5880, Note_on_c, 4, 53, 0
1, 5880, Note_on_c, 3, 55, 83
1, 5880, Note_on_c, 4, 55, 62
1, 5880, Note_on_c, 9, 42, 44
1, 5881, Note_on_c, 9, 42, 0
1, 5882, Note_on_c, 3, 53, 0
1, 5903, Note_on_c, 3, 55, 0
1, 5904, Note_on_c, 4, 55, 0
1, 5904, Note_on_c, 3, 57, 91
1, 5904, Note_on_c, 4, 57, 70
1, 5904, Note_on_c, 9, 42, 60
1, 5905, Note_on_c, 9, 42, 0
1, 5922, Note_on_c, 3, 57, 0
1, 5928, Note_on_c, 4, 57, 0
1, 5928, Note_on_c, 1, 31, 92
1, 5928, Note_on_c, 9, 35, 78
1, 5928, Note_on_c, 9, 42, 46
1, 5929, Note_on_c, 9, 42, 0
1, 5929, Note_on_c, 9, 35, 0
1, 5929, Note_on_c, 3, 57, 99
1, 5929, Note_on_c, 4, 57, 78
1, 5931, Control_c, 2, 11, 76
1, 5942, Note_on_c, 5, 67, 0
1, 5944, Note_on_c, 2, 62, 0
1, 5947, Note_on_c, 1, 31, 0
1, 5948, Note_on_c, 2, 65, 0
1, 5949, Note_on_c, 3, 57, 0
1, 5950, Note_on_c, 0, 50, 0
1, 5950, Note_on_c, 2, 58, 0
1, 5950, Note_on_c, 0, 43, 0
1, 5950, Note_on_c, 0, 62, 0
1, 5950, Note_on_c, 0, 58, 0
1, 5950, Note_on_c, 0, 53, 0
1, 5950, Note_on_c, 5, 74, 0
1, 5950, Note_on_c, 5, 70, 0
1, 5950, Note_on_c, 0, 55, 0
1, 5950, Control_c, 2, 11, 79
1, 5951, Note_on_c, 5, 77, 0
1, 5951, Note_on_c, 0, 48, 98
1, 5951, Note_on_c, 0, 57, 104
1, 5951, Note_on_c, 0, 41, 96
1, 5951, Note_on_c, 0, 55, 102
1, 5951, Note_on_c, 0, 60, 107
1, 5951, Note_on_c, 2, 60, 79
1, 5951, Note_on_c, 5, 72, 80
1, 5951, Note_on_c, 5, 69, 80
1, 5951, Note_on_c, 5, 67, 73
1, 5951, Note_on_c, 5, 65, 80
1, 5952, Note_on_c, 1, 29, 112
1, 5952, Note_on_c, 2, 57, 79
1, 5952, Note_on_c, 9, 35, 115
1, 5952, Note_on_c, 9, 42, 75
1, 5953, Note_on_c, 9, 42, 0
1, 5953, Note_on_c, 9, 35, 0
1, 5967, Note_on_c, 1, 29, 0
1, 5970, Control_c, 2, 11, 82
1, 5974, Control_c, 2, 11, 84
1, 5976, Note_on_c, 1, 29, 108
1, 5976, Note_on_c, 9, 42, 49
1, 5977, Note_on_c, 9, 42, 0
1, 5999, Note_on_c, 1, 29, 0
1, 6000, Note_on_c, 9, 42, 69
1, 6001, Note_on_c, 9, 42, 0
1, 6024, Note_on_c, 9, 42, 73
1, 6025, Note_on_c, 9, 42, 0
1, 6031, Note_on_c, 0, 41, 0
1, 6031, Note_on_c, 0, 48, 0
1, 6031, Note_on_c, 0, 57, 0
1, 6031, Note_on_c, 0, 55, 0
1, 6031, Note_on_c, 0, 60, 0
1, 6031, Control_c, 2, 11, 87
1, 6037, Control_c, 2, 11, 89
1, 6046, Note_on_c, 2, 60, 0
1, 6046, Note_on_c, 5, 65, 0
1, 6046, Note_on_c, 5, 67, 0
1, 6046, Note_on_c, 5, 72, 0
1, 6046, Note_on_c, 5, 69, 0
1, 6046, Note_on_c, 2, 55, 0
1, 6047, Note_on_c, 2, 57, 0
1, 6047, Note_on_c, 2, 64, 77
1, 6047, Note_on_c, 2, 61, 77
1, 6047, Note_on_c, 2, 71, 77
1, 6047, Note_on_c, 2, 68, 77
1, 6048, Note_on_c, 1, 35, 112
1, 6048, Note_on_c, 5, 64, 117
1, 6048, Note_on_c, 5, 68, 91
1, 6048, Note_on_c, 5, 71, 94
1, 6048, Note_on_c, 9, 46, 111
1, 6048, Note_on_c, 9, 35, 115
1, 6048, Note_on_c, 9, 40, 115
1, 6049, Note_on_c, 9, 40, 0
1, 6049, Note_on_c, 9, 46, 0
1, 6049, Note_on_c, 9, 35, 0
1, 6049, Note_on_c, 0, 71, 112
1, 6049, Note_on_c, 0, 57, 117
1, 6049, Note_on_c, 0, 64, 115
1, 6049, Note_on_c, 0, 61, 117
1, 6049, Note_on_c, 0, 47, 117
1, 6049, Note_on_c, 0, 68, 103
1, 6049, Note_on_c, 5, 61, 113
1, 6049, Note_on_c, 9, 49, 92
1, 6050, Note_on_c, 9, 49, 0
1, 6054, Note_on_c, 4, 57, 0
1, 6130, Note_on_c, 0, 61, 0
1, 6131, Note_on_c, 0, 57, 0
1, 6131, Note_on_c, 0, 64, 0
1, 6131, Note_on_c, 0, 47, 0
1, 6134, Note_on_c, 5, 68, 0
1, 6135, Note_on_c, 5, 71, 0
1, 6136, Note_on_c, 5, 64, 0
1, 6137, Note_on_c, 5, 61, 0
1, 6138, Note_on_c, 0, 68, 0
1, 6140, Note_on_c, 0, 71, 0
1, 6141, Note_on_c, 1, 35, 0
1, 6142, Note_on_c, 2, 71, 0
1, 6142, Note_on_c, 2, 61, 0
1, 6142, Note_on_c, 2, 64, 0
1, 6143, Note_on_c, 2, 68, 0
1, 6143, Note_on_c, 0, 63, 103
1, 6143, Note_on_c, 0, 68, 106
1, 6143, Note_on_c, 0, 66, 103
1, 6143, Note_on_c, 0, 59, 107
1, 6143, Note_on_c, 3, 59, 105
1, 6143, Note_on_c, 5, 66, 85
1, 6143, Note_on_c, 5, 63, 91
1, 6143, Note_on_c, 5, 71, 90
1, 6143, Note_on_c, 5, 68, 88
1, 6144, Note_on_c, 0, 52, 90
1, 6144, Note_on_c, 1, 28, 117
1, 6144, Note_on_c, 4, 59, 84
1, 6144, Note_on_c, 4, 71, 84
1, 6144, Note_on_c, 9, 35, 115
1, 6144, Note_on_c, 9, 42, 77
1, 6145, Note_on_c, 9, 42, 0
1, 6145, Note_on_c, 9, 35, 0
1, 6145, Note_on_c, 2, 63, 76
1, 6145, Note_on_c, 2, 59, 76
1, 6145, Note_on_c, 2, 66, 76
1, 6145, Note_on_c, 2, 68, 76
1, 6154, Control_c, 2, 11, 87
1, 6161, Note_on_c, 1, 28, 0
1, 6168, Note_on_c, 1, 28, 108
1, 6168, Note_on_c, 9, 42, 46
1, 6169, Note_on_c, 9, 42, 0
1, 6169, Note_on_c, 3, 59, 0
1, 6176, Control_c, 2, 11, 89
1, 6191, Note_on_c, 4, 59, 0
1, 6191, Note_on_c, 4, 71, 0
1, 6192, Note_on_c, 3, 59, 118
1, 6192, Note_on_c, 4, 59, 70
1, 6192, Note_on_c, 4, 71, 70
1, 6192, Note_on_c, 9, 35, 115
1, 6192, Note_on_c, 9, 42, 39
1, 6193, Note_on_c, 9, 42, 0
1, 6193, Note_on_c, 9, 35, 0
1, 6194, Note_on_c, 1, 28, 0
1, 6215, Note_on_c, 3, 59, 0
1, 6216, Note_on_c, 9, 42, 51
1, 6217, Note_on_c, 9, 42, 0
1, 6237, Control_c, 2, 11, 92
1, 6239, Note_on_c, 4, 59, 0
1, 6239, Note_on_c, 4, 71, 0
1, 6239, Note_on_c, 3, 59, 113
1, 6240, Note_on_c, 4, 59, 70
1, 6240, Note_on_c, 4, 71, 70
1, 6240, Note_on_c, 9, 42, 89
1, 6240, Note_on_c, 9, 40, 115
1, 6241, Note_on_c, 9, 40, 0
1, 6241, Note_on_c, 9, 42, 0
1, 6252, Control_c, 2, 11, 94
1, 6263, Note_on_c, 3, 54, 86
1, 6264, Note_on_c, 4, 71, 0
1, 6264, Note_on_c, 4, 59, 0
1, 6264, Note_on_c, 4, 54, 70
1, 6264, Note_on_c, 4, 66, 70
1, 6264, Note_on_c, 9, 42, 47
1, 6265, Note_on_c, 9, 42, 0
1, 6266, Note_on_c, 3, 59, 0
1, 6287, Note_on_c, 3, 56, 90
1, 6288, Note_on_c, 4, 66, 0
1, 6288, Note_on_c, 4, 54, 0
1, 6288, Note_on_c, 1, 35, 102
1, 6288, Note_on_c, 4, 56, 70
1, 6288, Note_on_c, 4, 68, 70
1, 6288, Note_on_c, 9, 42, 63
1, 6289, Note_on_c, 9, 42, 0
1, 6289, Note_on_c, 3, 54, 0
1, 6306, Note_on_c, 3, 56, 0
1, 6308, Control_c, 2, 11, 97
1, 6311, Note_on_c, 1, 35, 0
1, 6311, Note_on_c, 3, 59, 103
1, 6312, Note_on_c, 4, 56, 0
1, 6312, Note_on_c, 4, 68, 0
1, 6312, Note_on_c, 1, 40, 103
1, 6312, Note_on_c, 4, 71, 70
1, 6312, Note_on_c, 4, 59, 70
1, 6312, Note_on_c, 9, 35, 88
1, 6312, Note_on_c, 9, 42, 46
1, 6313, Note_on_c, 9, 42, 0
1, 6313, Note_on_c, 9, 35, 0
1, 6316, Control_c, 2, 11, 99
1, 6324, Note_on_c, 2, 66, 0
1, 6324, Note_on_c, 2, 59, 0
1, 6328, Note_on_c, 5, 71, 0
1, 6328, Note_on_c, 5, 66, 0
1, 6328, Note_on_c, 5, 63, 0
1, 6328, Note_on_c, 2, 63, 0
1, 6332, Note_on_c, 0, 59, 0
1, 6332, Note_on_c, 0, 52, 0
1, 6332, Note_on_c, 0, 66, 0
1, 6332, Note_on_c, 2, 68, 0
1, 6332, Note_on_c, 0, 63, 0
1, 6332, Note_on_c, 5, 68, 0
1, 6332, Note_on_c, 0, 68, 0
1, 6334, Note_on_c, 1, 40, 0
1, 6335, Note_on_c, 0, 66, 91
1, 6335, Note_on_c, 0, 51, 85
1, 6335, Note_on_c, 0, 61, 100
1, 6335, Note_on_c, 0, 59, 98
1, 6335, Note_on_c, 0, 63, 94
1, 6335, Note_on_c, 2, 66, 79
1, 6335, Note_on_c, 2, 63, 79
1, 6335, Note_on_c, 2, 59, 79
1, 6335, Note_on_c, 5, 71, 88
1, 6335, Note_on_c, 5, 63, 97
1, 6335, Note_on_c, 5, 66, 91
1, 6336, Note_on_c, 1, 39, 103
1, 6336, Note_on_c, 9, 35, 115
1, 6336, Note_on_c, 9, 42, 75
1, 6337, Note_on_c, 9, 42, 0
1, 6337, Note_on_c, 9, 35, 0
1, 6354, Note_on_c, 1, 39, 0
1, 6360, Note_on_c, 4, 59, 0
1, 6360, Note_on_c, 4, 71, 0
1, 6360, Note_on_c, 1, 39, 103
1, 6360, Note_on_c, 3, 61, 98
1, 6360, Note_on_c, 4, 61, 69
1, 6360, Note_on_c, 4, 73, 69
1, 6360, Note_on_c, 9, 42, 40
1, 6361, Note_on_c, 9, 42, 0
1, 6362, Note_on_c, 3, 59, 0
1, 6380, Note_on_c, 1, 39, 0
1, 6382, Note_on_c, 3, 61, 0
1, 6384, Note_on_c, 4, 73, 0
1, 6384, Note_on_c, 4, 61, 0
1, 6384, Note_on_c, 3, 63, 92
1, 6384, Note_on_c, 4, 75, 68
1, 6384, Note_on_c, 4, 63, 68
1, 6384, Note_on_c, 9, 42, 63
1, 6385, Note_on_c, 9, 42, 0
1, 6402, Note_on_c, 3, 63, 0
1, 6406, Note_on_c, 2, 59, 0
1, 6407, Note_on_c, 4, 75, 0
1, 6407, Note_on_c, 4, 63, 0
1, 6408, Note_on_c, 4, 63, 67
1, 6408, Note_on_c, 4, 75, 67
1, 6408, Note_on_c, 9, 42, 44
1, 6409, Note_on_c, 9, 42, 0
1, 6409, Note_on_c, 2, 59, 79
1, 6409, Note_on_c, 3, 63, 114
1, 6424, Note_on_c, 5, 71, 0
1, 6427, Note_on_c, 0, 66, 0
1, 6427, Note_on_c, 0, 59, 0
1, 6427, Note_on_c, 0, 61, 0
1, 6427, Note_on_c, 0, 51, 0
1, 6427, Note_on_c, 0, 63, 0
1, 6430, Note_on_c, 5, 63, 0
1, 6430, Note_on_c, 5, 66, 0
1, 6431, Note_on_c, 0, 56, 103
1, 6431, Note_on_c, 0, 66, 94
1, 6431, Note_on_c, 0, 51, 100
1, 6431, Note_on_c, 0, 63, 94
1, 6431, Note_on_c, 0, 44, 91
1, 6431, Note_on_c, 0, 59, 102
1, 6431, Note_on_c, 2, 56, 79
1, 6431, Note_on_c, 5, 68, 110
1, 6431, Note_on_c, 5, 71, 110
1, 6432, Note_on_c, 3, 63, 0
1, 6432, Note_on_c, 1, 32, 113
1, 6432, Note_on_c, 5, 63, 104
1, 6432, Note_on_c, 9, 42, 87
1, 6432, Note_on_c, 9, 40, 115
1, 6433, Note_on_c, 9, 40, 0
1, 6433, Note_on_c, 9, 42, 0
1, 6456, Note_on_c, 9, 42, 50
1, 6457, Note_on_c, 9, 42, 0
1, 6462, Note_on_c, 1, 32, 0
1, 6480, Note_on_c, 4, 63, 0
1, 6480, Note_on_c, 4, 75, 0
1, 6480, Note_on_c, 1, 39, 99
1, 6480, Note_on_c, 9, 42, 63
1, 6481, Note_on_c, 9, 42, 0
1, 6502, Note_on_c, 1, 39, 0
1, 6503, Note_on_c, 3, 56, 104
1, 6503, Note_on_c, 4, 56, 67
1, 6504, Note_on_c, 1, 38, 95
1, 6504, Note_on_c, 9, 42, 50
1, 6504, Note_on_c, 9, 35, 80
1, 6505, Note_on_c, 9, 35, 0
1, 6505, Note_on_c, 9, 42, 0
1, 6516, Note_on_c, 2, 59, 0
1, 6520, Note_on_c, 5, 63, 0
1, 6520, Note_on_c, 2, 63, 0
1, 6521, Note_on_c, 5, 71, 0
1, 6522, Note_on_c, 5, 68, 0
1, 6523, Note_on_c, 0, 56, 0
1, 6523, Note_on_c, 0, 63, 0
1, 6523, Note_on_c, 0, 51, 0
1, 6523, Note_on_c, 0, 44, 0
1, 6523, Note_on_c, 0, 66, 0
1, 6523, Note_on_c, 0, 59, 0
1, 6524, Note_on_c, 2, 56, 0
1, 6524, Note_on_c, 1, 38, 0
1, 6526, Note_on_c, 2, 66, 0
1, 6526, Note_on_c, 3, 56, 0
1, 6527, Note_on_c, 4, 56, 0
1, 6527, Note_on_c, 0, 61, 89
1, 6527, Note_on_c, 2, 56, 83
1, 6527, Note_on_c, 2, 59, 83
1, 6527, Note_on_c, 2, 61, 83
1, 6527, Note_on_c, 3, 59, 97
1, 6527, Note_on_c, 4, 59, 65
1, 6527, Note_on_c, 5, 64, 102
1, 6527, Note_on_c, 5, 71, 97
1, 6527, Note_on_c, 5, 61, 113
1, 6527, Note_on_c, 5, 68, 97
1, 6528, Note_on_c, 0, 64, 104
1, 6528, Note_on_c, 0, 56, 97
1, 6528, Note_on_c, 0, 49, 103
1, 6528, Note_on_c, 0, 59, 92
1, 6528, Note_on_c, 1, 37, 119
1, 6528, Note_on_c, 2, 64, 83
1, 6528, Note_on_c, 9, 35, 115
1, 6528, Note_on_c, 9, 42, 85
1, 6529, Note_on_c, 9, 42, 0
1, 6529, Note_on_c, 9, 35, 0
1, 6551, Note_on_c, 4, 59, 0
1, 6551, Note_on_c, 3, 56, 86
1, 6551, Note_on_c, 4, 56, 65
1, 6552, Note_on_c, 3, 59, 0
1, 6552, Note_on_c, 9, 42, 55
1, 6553, Note_on_c, 9, 42, 0
1, 6575, Note_on_c, 4, 56, 0
1, 6575, Note_on_c, 3, 59, 86
1, 6575, Note_on_c, 4, 59, 65
1, 6576, Note_on_c, 3, 56, 0
1, 6576, Control_c, 2, 11, 102
1, 6576, Note_on_c, 9, 35, 90
1, 6576, Note_on_c, 9, 42, 75
1, 6577, Note_on_c, 9, 42, 0
1, 6577, Note_on_c, 9, 35, 0
1, 6600, Note_on_c, 4, 59, 0
1, 6600, Note_on_c, 3, 56, 92
1, 6600, Note_on_c, 4, 56, 71
1, 6600, Note_on_c, 9, 42, 52
1, 6601, Note_on_c, 9, 42, 0
1, 6602, Note_on_c, 3, 59, 0
1, 6622, Note_on_c, 3, 56, 0
1, 6623, Note_on_c, 4, 56, 0
1, 6623, Note_on_c, 3, 59, 99
1, 6623, Note_on_c, 4, 59, 78
1, 6624, Note_on_c, 9, 40, 115
1, 6624, Note_on_c, 9, 42, 75
1, 6625, Note_on_c, 9, 42, 0
1, 6625, Note_on_c, 9, 40, 0
1, 6647, Note_on_c, 4, 59, 0
1, 6647, Note_on_c, 3, 61, 84
1, 6647, Note_on_c, 4, 61, 63
1, 6648, Note_on_c, 3, 59, 0
1, 6648, Note_on_c, 9, 42, 49
1, 6649, Note_on_c, 9, 42, 0
1, 6666, Note_on_c, 3, 61, 0
1, 6671, Note_on_c, 4, 61, 0
1, 6671, Note_on_c, 3, 63, 90
1, 6671, Note_on_c, 4, 63, 69
1, 6672, Note_on_c, 9, 42, 70
1, 6673, Note_on_c, 9, 42, 0
1, 6688, Note_on_c, 3, 63, 0
1, 6691, Control_c, 2, 11, 104
1, 6694, Note_on_c, 4, 63, 0
1, 6695, Note_on_c, 1, 49, 71
1, 6695, Note_on_c, 3, 63, 114
1, 6695, Note_on_c, 4, 63, 93
1, 6696, Note_on_c, 9, 42, 70
1, 6697, Note_on_c, 9, 42, 0
1, 6701, Note_on_c, 1, 37, 0
1, 6701, Note_on_c, 9, 57, 25
1, 6702, Note_on_c, 9, 57, 0
1, 6707, Note_on_c, 9, 49, 35
1, 6708, Note_on_c, 9, 49, 0
1, 6709, Note_on_c, 0, 64, 0
1, 6709, Note_on_c, 0, 61, 0
1, 6709, Note_on_c, 0, 49, 0
1, 6709, Note_on_c, 0, 56, 0
1, 6709, Note_on_c, 0, 59, 0
1, 6709, Note_on_c, 1, 47, 94
1, 6711, Note_on_c, 1, 49, 0
1, 6712, Note_on_c, 2, 59, 0
1, 6712, Note_on_c, 9, 57, 50
1, 6713, Note_on_c, 9, 57, 0
1, 6714, Note_on_c, 5, 71, 0
1, 6716, Note_on_c, 9, 49, 62
1, 6717, Note_on_c, 9, 49, 0
1, 6718, Note_on_c, 5, 68, 0
1, 6718, Note_on_c, 2, 61, 0
1, 6718, Note_on_c, 5, 61, 0
1, 6718, Note_on_c, 2, 56, 0
1, 6718, Note_on_c, 5, 64, 0
1, 6719, Note_on_c, 2, 64, 0
1, 6719, Note_on_c, 2, 59, 82
1, 6719, Note_on_c, 2, 63, 82
1, 6719, Note_on_c, 2, 54, 82
1, 6719, Note_on_c, 2, 58, 82
1, 6719, Note_on_c, 5, 70, 74
1, 6719, Note_on_c, 5, 75, 82
1, 6719, Note_on_c, 5, 66, 87
1, 6719, Note_on_c, 5, 71, 70
1, 6720, Note_on_c, 0, 54, 97
1, 6720, Note_on_c, 0, 58, 91
1, 6720, Note_on_c, 0, 63, 94
1, 6720, Note_on_c, 0, 47, 102
1, 6720, Note_on_c, 0, 59, 96
1, 6720, Note_on_c, 0, 61, 94
1, 6720, Note_on_c, 9, 35, 86
1, 6720, Note_on_c, 9, 40, 86
1, 6721, Note_on_c, 9, 40, 0
1, 6721, Note_on_c, 9, 35, 0
1, 6721, Note_on_c, 1, 47, 0
1, 6721, Note_on_c, 1, 35, 125
1, 6721, Note_on_c, 9, 57, 76
1, 6722, Note_on_c, 9, 57, 0
1, 6743, Note_on_c, 0, 70, 85
1, 6768, Note_on_c, 0, 66, 75
1, 6790, Note_on_c, 0, 63, 0
1, 6791, Note_on_c, 0, 63, 83
1, 6814, Note_on_c, 0, 61, 0
1, 6815, Note_on_c, 0, 61, 79
1, 6816, Note_on_c, 9, 42, 95
1, 6817, Note_on_c, 9, 42, 0
1, 6838, Note_on_c, 0, 59, 0
1, 6839, Note_on_c, 0, 59, 62
1, 6850, Control_c, 2, 11, 107
1, 6862, Note_on_c, 0, 58, 0
1, 6863, Note_on_c, 0, 58, 72
1, 6878, Control_c, 2, 11, 109
1, 6886, Note_on_c, 0, 54, 0
1, 6887, Note_on_c, 0, 54, 64
1, 6887, Note_on_c, 5, 87, 81
1, 6905, Control_c, 2, 11, 112
1, 6911, Note_on_c, 0, 51, 62
1, 6911, Note_on_c, 5, 82, 70
1, 6912, Time_signature, 2, 2, 24, 8
1, 6914, Control_c, 2, 11, 114
1, 6924, Control_c, 2, 11, 117
1, 6933, Note_on_c, 9, 47, 92
1, 6934, Note_on_c, 9, 47, 0
1, 6936, Note_on_c, 5, 78, 49
1, 6936, Note_on_c, 9, 47, 115
1, 6937, Note_on_c, 9, 47, 0
1, 6941, Control_c, 2, 11, 119
1, 6952, Control_c, 2, 11, 122
1, 6960, Control_c, 2, 11, 124
1, 6978, Control_c, 2, 11, 127
1, 6984, Note_on_c, 9, 47, 115
1, 6985, Note_on_c, 9, 47, 0
1, 6994, Tempo, 937500
1, 6994, Note_on_c, 3, 63, 0
1, 7008, Note_on_c, 9, 45, 115
1, 7009, Note_on_c, 9, 45, 0
1, 7032, Note_on_c, 9, 45, 115
1, 7033, Note_on_c, 9, 45, 0
1, 7044, Note_on_c, 9, 45, 115
1, 7045, Note_on_c, 9, 45, 0
1, 7054, Note_on_c, 4, 63, 0
1, 7055, Note_on_c, 3, 63, 109
1, 7055, Note_on_c, 4, 63, 88
1, 7056, Note_on_c, 9, 41, 115
1, 7057, Note_on_c, 9, 41, 0
1, 7078, Note_on_c, 0, 70, 0
1, 7078, Note_on_c, 0, 58, 0
1, 7078, Note_on_c, 0, 59, 0
1, 7078, Note_on_c, 0, 51, 0
1, 7078, Note_on_c, 0, 54, 0
1, 7078, Note_on_c, 0, 61, 0
1, 7078, Note_on_c, 0, 66, 0
1, 7078, Note_on_c, 0, 63, 0
1, 7078, Note_on_c, 0, 47, 0
1, 7080, Note_on_c, 1, 35, 0
1, 7080, Note_on_c, 9, 41, 115
1, 7081, Note_on_c, 9, 41, 0
1, 7090, Note_on_c, 2, 59, 0
1, 7090, Note_on_c, 2, 63, 0
1, 7090, Note_on_c, 5, 87, 0
1, 7090, Note_on_c, 2, 54, 0
1, 7090, Note_on_c, 2, 58, 0
1, 7096, Note_on_c, 3, 63, 0
1, 7102, Note_on_c, 4, 63, 0
1, 7102, Note_on_c, 5, 66, 0
1, 7102, Note_on_c, 5, 75, 0
1, 7102, Note_on_c, 5, 71, 0
1, 7102, Note_on_c, 5, 70, 0
1, 7102, Note_on_c, 5, 82, 0
1, 7103, Note_on_c, 5, 78, 0
1, 7103, Note_on_c, 3, 63, 107
1, 7103, Note_on_c, 4, 63, 86
1, 7104, Time_signature, 4, 2, 24, 8
1, 7104, Note_on_c, 0, 60, 104
1, 7104, Note_on_c, 1, 36, 117
1, 7104, Note_on_c, 9, 35, 115
1, 7105, Note_on_c, 9, 35, 0
1, 7105, Note_on_c, 0, 63, 110
1, 7105, Note_on_c, 0, 55, 102
1, 7105, Note_on_c, 0, 58, 95
1, 7105, Note_on_c, 2, 63, 81
1, 7105, Note_on_c, 2, 58, 71
1, 7105, Note_on_c, 2, 55, 76
1, 7105, Note_on_c, 9, 57, 80
1, 7106, Note_on_c, 9, 57, 0
1, 7120, Note_on_c, 1, 36, 0
1, 7128, Note_on_c, 1, 36, 118
1, 7131, Note_on_c, 7, 62, 94
1, 7131, Note_on_c, 8, 62, 94
1, 7132, Control_c, 7, 1, 0
1, 7132, Pitch_bend_c, 7, 8192
1, 7132, Control_c, 8, 1, 0
1, 7132, Pitch_bend_c, 8, 8192
1, 7150, Note_on_c, 7, 62, 0
1, 7150, Note_on_c, 1, 36, 0
1, 7152, Note_on_c, 9, 42, 55
1, 7153, Note_on_c, 9, 42, 0
1, 7155, Note_on_c, 8, 62, 0
1, 7156, Note_on_c, 3, 63, 0
1, 7176, Note_on_c, 9, 42, 42
1, 7177, Note_on_c, 9, 42, 0
1, 7178, Note_on_c, 7, 63, 101
1, 7178, Note_on_c, 8, 63, 101
1, 7199, Note_on_c, 8, 63, 0
1, 7199, Note_on_c, 7, 63, 0
1, 7200, Note_on_c, 9, 40, 115
1, 7200, Note_on_c, 9, 42, 107
1, 7201, Note_on_c, 9, 42, 0
1, 7201, Note_on_c, 9, 40, 0
1, 7223, Note_on_c, 7, 72, 72
1, 7223, Note_on_c, 8, 72, 72
1, 7224, Note_on_c, 9, 42, 46
1, 7225, Note_on_c, 9, 42, 0
1, 7231, Note_on_c, 7, 74, 80
1, 7231, Note_on_c, 8, 74, 80
1, 7236, Note_on_c, 8, 72, 0
1, 7236, Note_on_c, 7, 72, 0
1, 7248, Note_on_c, 9, 42, 73
1, 7249, Note_on_c, 9, 42, 0
1, 7249, Note_on_c, 7, 74, 0
1, 7250, Note_on_c, 8, 74, 0
1, 7272, Note_on_c, 1, 27, 123
1, 7272, Note_on_c, 9, 42, 65
1, 7272, Note_on_c, 9, 35, 89
1, 7273, Note_on_c, 9, 35, 0
1, 7273, Note_on_c, 9, 42, 0
1, 7274, Note_on_c, 7, 70, 91
1, 7274, Note_on_c, 8, 70, 91
1, 7290, Note_on_c, 1, 27, 0
1, 7292, Note_on_c, 0, 60, 0
1, 7292, Note_on_c, 0, 58, 0
1, 7292, Note_on_c, 0, 63, 0
1, 7292, Note_on_c, 0, 55, 0
1, 7295, Note_on_c, 4, 63, 0
1, 7295, Note_on_c, 0, 60, 108
1, 7295, Note_on_c, 0, 63, 113
1, 7295, Note_on_c, 0, 65, 97
1, 7295, Note_on_c, 0, 56, 97
1, 7295, Note_on_c, 3, 70, 98
1, 7295, Note_on_c, 4, 70, 64
1, 7296, Note_on_c, 2, 58, 0
1, 7296, Note_on_c, 1, 29, 117
1, 7296, Note_on_c, 9, 35, 115
1, 7296, Note_on_c, 9, 42, 111
1, 7297, Note_on_c, 9, 42, 0
1, 7297, Note_on_c, 9, 35, 0
1, 7297, Note_on_c, 2, 65, 71
1, 7298, Note_on_c, 2, 55, 0
1, 7298, Note_on_c, 2, 60, 70
1, 7298, Note_on_c, 2, 56, 74
1, 7299, Note_on_c, 2, 63, 0
1, 7309, Control_c, 7, 11, 126
1, 7309, Control_c, 8, 11, 126
1, 7313, Note_on_c, 1, 29, 0
1, 7314, Note_on_c, 3, 70, 0
1, 7316, Control_c, 7, 11, 124
1, 7316, Control_c, 8, 11, 124
1, 7317, Note_on_c, 4, 70, 0
1, 7318, Note_on_c, 4, 70, 63
1, 7319, Note_on_c, 3, 70, 100
1, 7320, Note_on_c, 1, 29, 122
1, 7320, Control_c, 7, 11, 121
1, 7320, Control_c, 8, 11, 121
1, 7320, Note_on_c, 9, 42, 58
1, 7321, Note_on_c, 9, 42, 0
1, 7322, Control_c, 7, 11, 119
1, 7322, Control_c, 8, 11, 119
1, 7327, Control_c, 7, 11, 116
1, 7327, Control_c, 8, 11, 116
1, 7332, Control_c, 7, 11, 113
1, 7332, Control_c, 8, 11, 113
1, 7333, Note_on_c, 3, 70, 0
1, 7337, Control_c, 7, 11, 110
1, 7337, Control_c, 8, 11, 110
1, 7340, Note_on_c, 4, 70, 0
1, 7341, Note_on_c, 1, 29, 0
1, 7341, Note_on_c, 4, 70, 63
1, 7342, Control_c, 7, 11, 108
1, 7342, Control_c, 8, 11, 108
1, 7343, Note_on_c, 3, 70, 88
1, 7344, Note_on_c, 9, 42, 66
1, 7345, Note_on_c, 9, 42, 0
1, 7347, Control_c, 7, 11, 105
1, 7347, Control_c, 8, 11, 105
1, 7352, Control_c, 7, 11, 102
1, 7352, Control_c, 8, 11, 102
1, 7357, Control_c, 7, 11, 99
1, 7357, Control_c, 8, 11, 99
1, 7358, Control_c, 7, 11, 98
1, 7358, Control_c, 8, 11, 98
1, 7361, Note_on_c, 3, 70, 0
1, 7363, Control_c, 7, 11, 94
1, 7363, Control_c, 8, 11, 94
1, 7365, Note_on_c, 4, 70, 0
1, 7365, Note_on_c, 4, 68, 62
1, 7366, Control_c, 7, 11, 92
1, 7366, Control_c, 8, 11, 92
1, 7367, Note_on_c, 3, 68, 104
1, 7368, Control_c, 7, 11, 90
1, 7368, Control_c, 8, 11, 90
1, 7368, Note_on_c, 9, 42, 53
1, 7369, Note_on_c, 9, 42, 0
1, 7373, Control_c, 7, 11, 87
1, 7373, Control_c, 8, 11, 87
1, 7378, Control_c, 7, 11, 84
1, 7378, Control_c, 8, 11, 84
1, 7383, Control_c, 7, 11, 81
1, 7383, Control_c, 8, 11, 81
1, 7388, Control_c, 7, 11, 78
1, 7388, Control_c, 8, 11, 78
1, 7392, Note_on_c, 9, 42, 101
1, 7392, Note_on_c, 9, 40, 115
1, 7393, Note_on_c, 9, 40, 0
1, 7393, Note_on_c, 9, 42, 0
1, 7393, Control_c, 7, 11, 74
1, 7393, Control_c, 8, 11, 74
1, 7397, Control_c, 7, 11, 71
1, 7397, Control_c, 8, 11, 71
1, 7402, Control_c, 7, 11, 68
1, 7402, Control_c, 8, 11, 68
1, 7407, Control_c, 7, 11, 65
1, 7407, Control_c, 8, 11, 65
1, 7410, Control_c, 7, 11, 62
1, 7410, Control_c, 8, 11, 62
1, 7414, Control_c, 7, 11, 60
1, 7414, Control_c, 8, 11, 60
1, 7415, Control_c, 7, 11, 58
1, 7415, Control_c, 8, 11, 58
1, 7416, Note_on_c, 1, 29, 117
1, 7416, Note_on_c, 9, 35, 113
1, 7416, Note_on_c, 9, 42, 51
1, 7417, Note_on_c, 9, 42, 0
1, 7417, Note_on_c, 9, 35, 0
1, 7417, Control_c, 7, 11, 56
1, 7417, Control_c, 8, 11, 56
1, 7419, Control_c, 7, 11, 54
1, 7419, Control_c, 8, 11, 54
1, 7420, Control_c, 7, 11, 52
1, 7420, Control_c, 8, 11, 52
1, 7422, Control_c, 7, 11, 50
1, 7422, Control_c, 8, 11, 50
1, 7424, Control_c, 7, 11, 47
1, 7424, Control_c, 8, 11, 47
1, 7425, Control_c, 7, 11, 45
1, 7425, Control_c, 8, 11, 45
1, 7427, Control_c, 7, 11, 42
1, 7427, Control_c, 8, 11, 42
1, 7428, Control_c, 7, 11, 39
1, 7428, Control_c, 8, 11, 39
1, 7430, Control_c, 7, 11, 36
1, 7430, Control_c, 8, 11, 36
1, 7432, Control_c, 7, 11, 34
1, 7432, Control_c, 8, 11, 34
1, 7433, Control_c, 7, 11, 31
1, 7433, Control_c, 8, 11, 31
1, 7435, Control_c, 7, 11, 28
1, 7435, Control_c, 8, 11, 28
1, 7437, Note_on_c, 3, 68, 0
1, 7437, Control_c, 7, 11, 25
1, 7437, Control_c, 8, 11, 25
1, 7438, Note_on_c, 1, 29, 0
1, 7438, Control_c, 7, 11, 22
1, 7438, Control_c, 8, 11, 22
1, 7439, Note_on_c, 4, 68, 0
1, 7439, Note_on_c, 4, 60, 62
1, 7440, Note_on_c, 1, 36, 117
1, 7440, Note_on_c, 3, 60, 99
1, 7440, Control_c, 7, 11, 19
1, 7440, Control_c, 8, 11, 19
1, 7440, Note_on_c, 9, 42, 98
1, 7441, Note_on_c, 9, 42, 0
1, 7441, Control_c, 7, 11, 15
1, 7441, Control_c, 8, 11, 15
1, 7443, Control_c, 7, 11, 12
1, 7443, Control_c, 8, 11, 12
1, 7445, Control_c, 7, 11, 7
1, 7445, Control_c, 8, 11, 7
1, 7446, Control_c, 7, 11, 1
1, 7446, Control_c, 8, 11, 1
1, 7457, Note_on_c, 8, 70, 0
1, 7457, Note_on_c, 7, 70, 0
1, 7459, Note_on_c, 1, 36, 0
1, 7461, Note_on_c, 4, 60, 0
1, 7461, Note_on_c, 4, 61, 62
1, 7462, Control_c, 7, 11, 5
1, 7462, Control_c, 8, 11, 5
1, 7464, Note_on_c, 3, 60, 0
1, 7464, Note_on_c, 1, 32, 117
1, 7464, Control_c, 7, 11, 11
1, 7464, Control_c, 8, 11, 11
1, 7464, Note_on_c, 9, 35, 90
1, 7464, Note_on_c, 9, 46, 70
1, 7465, Note_on_c, 9, 46, 0
1, 7465, Note_on_c, 9, 35, 0
1, 7465, Note_on_c, 3, 61, 98
1, 7466, Control_c, 7, 11, 19
1, 7466, Control_c, 8, 11, 19
1, 7468, Control_c, 7, 11, 26
1, 7468, Control_c, 8, 11, 26
1, 7469, Control_c, 7, 11, 36
1, 7469, Control_c, 8, 11, 36
1, 7471, Control_c, 7, 11, 45
1, 7471, Control_c, 8, 11, 45
1, 7472, Control_c, 7, 11, 55
1, 7472, Control_c, 8, 11, 55
1, 7474, Control_c, 7, 11, 65
1, 7474, Control_c, 8, 11, 65
1, 7476, Control_c, 7, 11, 76
1, 7476, Control_c, 8, 11, 76
1, 7477, Control_c, 7, 11, 89
1, 7477, Control_c, 8, 11, 89
1, 7479, Control_c, 7, 11, 102
1, 7479, Control_c, 8, 11, 102
1, 7481, Control_c, 7, 11, 123
1, 7481, Control_c, 8, 11, 123
1, 7482, Control_c, 7, 11, 127
1, 7482, Control_c, 8, 11, 127
1, 7483, Note_on_c, 0, 60, 0
1, 7483, Note_on_c, 0, 56, 0
1, 7483, Note_on_c, 0, 65, 0
1, 7483, Note_on_c, 0, 63, 0
1, 7486, Note_on_c, 1, 32, 0
1, 7487, Note_on_c, 0, 65, 104
1, 7487, Note_on_c, 0, 61, 95
1, 7487, Note_on_c, 0, 58, 85
1, 7487, Note_on_c, 0, 56, 101
1, 7488, Note_on_c, 1, 34, 119
1, 7488, Note_on_c, 9, 42, 77
1, 7488, Note_on_c, 9, 35, 115
1, 7489, Note_on_c, 9, 35, 0
1, 7489, Note_on_c, 9, 42, 0
1, 7490, Note_on_c, 2, 56, 0
1, 7490, Note_on_c, 2, 58, 64
1, 7490, Note_on_c, 2, 61, 72
1, 7491, Note_on_c, 2, 60, 0
1, 7501, Note_on_c, 3, 61, 0
1, 7503, Note_on_c, 1, 34, 0
1, 7512, Note_on_c, 1, 34, 119
1, 7512, Note_on_c, 9, 42, 38
1, 7513, Note_on_c, 9, 42, 0
1, 7514, Note_on_c, 7, 60, 94
1, 7514, Note_on_c, 8, 60, 94
1, 7530, Note_on_c, 1, 34, 0
1, 7534, Note_on_c, 7, 60, 0
1, 7536, Note_on_c, 9, 42, 56
1, 7537, Note_on_c, 9, 42, 0
1, 7539, Note_on_c, 8, 60, 0
1, 7560, Note_on_c, 9, 42, 63
1, 7561, Note_on_c, 9, 42, 0
1, 7561, Note_on_c, 7, 61, 96
1, 7561, Note_on_c, 8, 61, 96
1, 7582, Note_on_c, 8, 61, 0
1, 7582, Note_on_c, 7, 61, 0
1, 7584, Note_on_c, 9, 42, 104
1, 7584, Note_on_c, 9, 40, 115
1, 7585, Note_on_c, 9, 40, 0
1, 7585, Note_on_c, 9, 42, 0
1, 7594, Note_on_c, 4, 61, 0
1, 7607, Note_on_c, 7, 70, 64
1, 7607, Note_on_c, 8, 70, 74
1, 7608, Note_on_c, 9, 42, 38
1, 7609, Note_on_c, 9, 42, 0
1, 7611, Note_on_c, 7, 72, 87
1, 7611, Note_on_c, 8, 72, 87
1, 7618, Note_on_c, 8, 70, 0
1, 7618, Note_on_c, 7, 70, 0
1, 7629, Note_on_c, 7, 72, 0
1, 7630, Note_on_c, 8, 72, 0
1, 7632, Note_on_c, 9, 42, 85
1, 7633, Note_on_c, 9, 42, 0
1, 7655, Note_on_c, 7, 68, 85
1, 7655, Note_on_c, 8, 68, 85
1, 7656, Note_on_c, 1, 34, 127
1, 7656, Note_on_c, 9, 42, 59
1, 7656, Note_on_c, 9, 35, 89
1, 7657, Note_on_c, 9, 35, 0
1, 7657, Note_on_c, 9, 42, 0
1, 7675, Note_on_c, 0, 58, 0
1, 7675, Note_on_c, 0, 56, 0
1, 7675, Note_on_c, 0, 61, 0
1, 7675, Note_on_c, 0, 65, 0
1, 7676, Note_on_c, 1, 34, 0
1, 7677, Note_on_c, 2, 56, 74
1, 7679, Note_on_c, 0, 65, 98
1, 7679, Note_on_c, 3, 72, 103
1, 7680, Note_on_c, 0, 56, 107
1, 7680, Note_on_c, 0, 61, 95
1, 7680, Note_on_c, 1, 39, 116
1, 7680, Note_on_c, 4, 72, 82
1, 7680, Note_on_c, 4, 68, 45
1, 7680, Note_on_c, 4, 65, 48
1, 7680, Note_on_c, 9, 35, 112
1, 7680, Note_on_c, 9, 42, 98
1, 7681, Note_on_c, 9, 42, 0
1, 7681, Note_on_c, 9, 35, 0
1, 7681, Note_on_c, 2, 58, 0
1, 7696, Note_on_c, 1, 39, 0
1, 7697, Note_on_c, 3, 72, 0
1, 7703, Note_on_c, 4, 68, 0
1, 7703, Note_on_c, 4, 72, 0
1, 7703, Note_on_c, 4, 65, 0
1, 7704, Note_on_c, 1, 39, 113
1, 7704, Note_on_c, 3, 72, 104
1, 7704, Note_on_c, 4, 65, 48
1, 7704, Note_on_c, 4, 68, 38
1, 7704, Note_on_c, 4, 72, 83
1, 7704, Note_on_c, 9, 42, 50
1, 7705, Note_on_c, 9, 42, 0
1, 7721, Note_on_c, 1, 39, 0
1, 7721, Note_on_c, 3, 72, 0
1, 7727, Note_on_c, 4, 65, 0
1, 7727, Note_on_c, 4, 68, 0
1, 7727, Note_on_c, 4, 72, 0
1, 7728, Note_on_c, 4, 65, 49
1, 7728, Note_on_c, 4, 68, 51
1, 7728, Note_on_c, 4, 72, 85
1, 7728, Note_on_c, 9, 42, 70
1, 7729, Note_on_c, 9, 42, 0
1, 7729, Note_on_c, 3, 72, 106
1, 7749, Note_on_c, 3, 72, 0
1, 7750, Note_on_c, 7, 68, 0
1, 7750, Note_on_c, 8, 68, 0
1, 7750, Note_on_c, 7, 67, 70
1, 7750, Note_on_c, 8, 67, 70
1, 7752, Note_on_c, 4, 65, 0
1, 7752, Note_on_c, 4, 72, 0
1, 7752, Note_on_c, 4, 68, 0
1, 7752, Note_on_c, 3, 70, 107
1, 7752, Note_on_c, 4, 70, 86
1, 7752, Note_on_c, 4, 67, 54
1, 7752, Note_on_c, 4, 63, 49
1, 7752, Note_on_c, 9, 42, 56
1, 7753, Note_on_c, 9, 42, 0
1, 7761, Note_on_c, 7, 68, 64
1, 7761, Note_on_c, 8, 68, 64
1, 7765, Note_on_c, 8, 67, 0
1, 7765, Note_on_c, 7, 67, 0
1, 7772, Note_on_c, 2, 56, 0
1, 7772, Note_on_c, 0, 56, 0
1, 7772, Note_on_c, 0, 65, 0
1, 7772, Note_on_c, 0, 61, 0
1, 7772, Note_on_c, 7, 67, 76
1, 7772, Note_on_c, 8, 67, 76
1, 7774, Note_on_c, 2, 65, 0
1, 7774, Note_on_c, 2, 58, 69
1, 7775, Note_on_c, 2, 61, 0
1, 7775, Note_on_c, 0, 61, 101
1, 7775, Note_on_c, 0, 58, 97
1, 7775, Note_on_c, 0, 63, 99
1, 7775, Note_on_c, 0, 67, 100
1, 7776, Note_on_c, 7, 68, 0
1, 7776, Note_on_c, 8, 68, 0
1, 7776, Note_on_c, 9, 42, 101
1, 7776, Note_on_c, 9, 40, 115
1, 7777, Note_on_c, 9, 40, 0
1, 7777, Note_on_c, 9, 42, 0
1, 7778, Note_on_c, 2, 67, 72
1, 7778, Note_on_c, 2, 63, 75
1, 7800, Note_on_c, 1, 30, 127
1, 7800, Note_on_c, 9, 35, 105
1, 7800, Note_on_c, 9, 42, 49
1, 7801, Note_on_c, 9, 42, 0
1, 7801, Note_on_c, 9, 35, 0
1, 7824, Note_on_c, 4, 67, 0
1, 7824, Note_on_c, 4, 63, 0
1, 7824, Note_on_c, 3, 70, 0
1, 7824, Note_on_c, 4, 70, 0
1, 7824, Note_on_c, 4, 68, 74
1, 7824, Note_on_c, 4, 65, 47
1, 7824, Note_on_c, 4, 61, 51
1, 7824, Note_on_c, 9, 42, 98
1, 7825, Note_on_c, 9, 42, 0
1, 7825, Note_on_c, 3, 68, 95
1, 7829, Note_on_c, 1, 30, 0
1, 7848, Note_on_c, 4, 68, 0
1, 7848, Note_on_c, 4, 65, 0
1, 7848, Note_on_c, 4, 61, 0
1, 7848, Note_on_c, 1, 30, 123
1, 7848, Note_on_c, 4, 70, 77
1, 7848, Note_on_c, 4, 66, 37
1, 7848, Note_on_c, 4, 63, 51
1, 7848, Note_on_c, 9, 46, 69
1, 7848, Note_on_c, 9, 35, 88
1, 7849, Note_on_c, 9, 35, 0
1, 7849, Note_on_c, 9, 46, 0
1, 7849, Note_on_c, 3, 68, 0
1, 7849, Note_on_c, 3, 70, 98
1, 7860, Note_on_c, 2, 63, 0
1, 7866, Note_on_c, 1, 30, 0
1, 7866, Note_on_c, 0, 63, 0
1, 7866, Note_on_c, 0, 58, 0
1, 7866, Note_on_c, 0, 67, 0
1, 7866, Note_on_c, 0, 61, 0
1, 7867, Note_on_c, 7, 67, 0
1, 7867, Note_on_c, 8, 67, 0
1, 7868, Note_on_c, 2, 58, 0
1, 7870, Note_on_c, 2, 67, 0
1, 7871, Note_on_c, 2, 63, 64
1, 7872, Note_on_c, 0, 63, 97
1, 7872, Note_on_c, 0, 56, 107
1, 7872, Note_on_c, 0, 66, 93
1, 7872, Note_on_c, 0, 59, 98
1, 7872, Note_on_c, 1, 32, 116
1, 7872, Note_on_c, 9, 42, 79
1, 7872, Note_on_c, 9, 35, 115
1, 7873, Note_on_c, 9, 35, 0
1, 7873, Note_on_c, 9, 42, 0
1, 7873, Note_on_c, 2, 56, 84
1, 7873, Note_on_c, 7, 66, 67
1, 7873, Note_on_c, 8, 66, 67
1, 7874, Note_on_c, 2, 66, 64
1, 7879, Note_on_c, 3, 70, 0
1, 7888, Note_on_c, 1, 32, 0
1, 7896, Note_on_c, 1, 32, 119
1, 7896, Note_on_c, 9, 42, 50
1, 7897, Note_on_c, 9, 42, 0
1, 7917, Note_on_c, 1, 32, 0
1, 7920, Note_on_c, 7, 66, 0
1, 7920, Note_on_c, 7, 73, 66
1, 7920, Note_on_c, 9, 42, 69
1, 7921, Note_on_c, 9, 42, 0
1, 7921, Note_on_c, 8, 73, 70
1, 7939, Note_on_c, 7, 73, 0
1, 7941, Note_on_c, 8, 73, 0
1, 7944, Note_on_c, 9, 42, 73
1, 7945, Note_on_c, 9, 42, 0
1, 7946, Note_on_c, 7, 70, 62
1, 7947, Note_on_c, 8, 70, 72
1, 7962, Note_on_c, 7, 70, 0
1, 7968, Note_on_c, 4, 70, 0
1, 7968, Note_on_c, 4, 63, 0
1, 7968, Note_on_c, 4, 66, 0
1, 7968, Note_on_c, 9, 42, 107
1, 7968, Note_on_c, 9, 40, 115
1, 7969, Note_on_c, 9, 40, 0
1, 7969, Note_on_c, 9, 42, 0
1, 7972, Note_on_c, 8, 70, 0
1, 7992, Note_on_c, 9, 42, 60
1, 7993, Note_on_c, 9, 42, 0
1, 7995, Note_on_c, 7, 66, 61
1, 8016, Note_on_c, 1, 34, 123
1, 8016, Note_on_c, 9, 42, 83
1, 8017, Note_on_c, 9, 42, 0
1, 8037, Note_on_c, 1, 34, 0
1, 8039, Note_on_c, 3, 61, 88
1, 8040, Note_on_c, 1, 35, 98
1, 8040, Note_on_c, 4, 61, 67
1, 8040, Note_on_c, 9, 35, 89
1, 8040, Note_on_c, 9, 42, 73
1, 8041, Note_on_c, 9, 42, 0
1, 8041, Note_on_c, 9, 35, 0
1, 8057, Note_on_c, 0, 59, 0
1, 8057, Note_on_c, 0, 66, 0
1, 8057, Note_on_c, 0, 56, 0
1, 8057, Note_on_c, 0, 63, 0
1, 8058, Note_on_c, 3, 61, 0
1, 8063, Note_on_c, 3, 70, 104
1, 8064, Note_on_c, 2, 56, 0
1, 8064, Note_on_c, 1, 35, 0
1, 8064, Note_on_c, 4, 61, 0
1, 8064, Note_on_c, 0, 66, 95
1, 8064, Note_on_c, 0, 54, 107
1, 8064, Note_on_c, 0, 59, 106
1, 8064, Note_on_c, 0, 63, 95
1, 8064, Note_on_c, 1, 37, 113
1, 8064, Note_on_c, 2, 59, 77
1, 8064, Note_on_c, 4, 70, 83
1, 8064, Note_on_c, 4, 66, 47
1, 8064, Note_on_c, 4, 63, 47
1, 8064, Note_on_c, 9, 35, 115
1, 8064, Note_on_c, 9, 42, 101
1, 8065, Note_on_c, 9, 42, 0
1, 8065, Note_on_c, 9, 35, 0
1, 8077, Note_on_c, 1, 37, 0
1, 8083, Note_on_c, 3, 70, 0
1, 8087, Note_on_c, 4, 66, 0
1, 8087, Note_on_c, 4, 70, 0
1, 8087, Note_on_c, 4, 63, 0
1, 8088, Note_on_c, 1, 37, 116
1, 8088, Note_on_c, 3, 70, 89
1, 8088, Note_on_c, 4, 70, 68
1, 8088, Note_on_c, 4, 66, 47
1, 8088, Note_on_c, 4, 63, 47
1, 8088, Note_on_c, 9, 42, 65
1, 8089, Note_on_c, 9, 42, 0
1, 8104, Note_on_c, 3, 70, 0
1, 8106, Note_on_c, 1, 37, 0
1, 8111, Note_on_c, 4, 66, 0
1, 8111, Note_on_c, 4, 70, 0
1, 8111, Note_on_c, 4, 63, 0
1, 8112, Note_on_c, 4, 70, 70
1, 8112, Note_on_c, 4, 66, 47
1, 8112, Note_on_c, 4, 63, 47
1, 8112, Note_on_c, 9, 42, 77
1, 8113, Note_on_c, 9, 42, 0
1, 8113, Note_on_c, 3, 70, 91
1, 8129, Note_on_c, 3, 70, 0
1, 8135, Note_on_c, 3, 68, 90
1, 8136, Note_on_c, 4, 66, 0
1, 8136, Note_on_c, 4, 70, 0
1, 8136, Note_on_c, 4, 63, 0
1, 8136, Note_on_c, 4, 61, 47
1, 8136, Note_on_c, 4, 68, 69
1, 8136, Note_on_c, 4, 65, 47
1, 8136, Note_on_c, 9, 42, 55
1, 8137, Note_on_c, 9, 42, 0
1, 8149, Note_on_c, 7, 66, 0
1, 8152, Note_on_c, 0, 59, 0
1, 8152, Note_on_c, 0, 63, 0
1, 8152, Note_on_c, 0, 66, 0
1, 8152, Note_on_c, 0, 54, 0
1, 8156, Note_on_c, 2, 66, 0
1, 8158, Note_on_c, 2, 65, 80
1, 8159, Note_on_c, 2, 63, 0
1, 8159, Note_on_c, 0, 56, 99
1, 8159, Note_on_c, 0, 59, 95
1, 8159, Note_on_c, 0, 65, 98
1, 8159, Note_on_c, 0, 61, 95
1, 8159, Note_on_c, 2, 56, 81
1, 8160, Note_on_c, 8, 66, 0
1, 8160, Note_on_c, 9, 42, 79
1, 8160, Note_on_c, 9, 40, 115
1, 8161, Note_on_c, 9, 40, 0
1, 8161, Note_on_c, 9, 42, 0
1, 8161, Note_on_c, 8, 65, 73
1, 8184, Note_on_c, 1, 32, 119
1, 8184, Note_on_c, 9, 35, 108
1, 8184, Note_on_c, 9, 42, 52
1, 8185, Note_on_c, 9, 42, 0
1, 8185, Note_on_c, 9, 35, 0
1, 8206, Note_on_c, 1, 32, 0
1, 8208, Note_on_c, 3, 68, 0
1, 8208, Note_on_c, 4, 68, 0
1, 8208, Note_on_c, 4, 61, 0
1, 8208, Note_on_c, 4, 65, 0
1, 8208, Note_on_c, 1, 37, 123
1, 8208, Note_on_c, 4, 63, 45
1, 8208, Note_on_c, 4, 59, 45
1, 8208, Note_on_c, 4, 66, 65
1, 8208, Note_on_c, 9, 42, 81
1, 8209, Note_on_c, 9, 42, 0
1, 8209, Note_on_c, 3, 66, 86
1, 8227, Note_on_c, 1, 37, 0
1, 8228, Note_on_c, 3, 66, 0
1, 8232, Note_on_c, 4, 59, 0
1, 8232, Note_on_c, 4, 63, 0
1, 8232, Note_on_c, 4, 66, 0
1, 8232, Note_on_c, 1, 25, 104
1, 8232, Note_on_c, 4, 68, 71
1, 8232, Note_on_c, 4, 61, 44
1, 8232, Note_on_c, 4, 65, 44
1, 8232, Note_on_c, 9, 46, 77
1, 8232, Note_on_c, 9, 35, 96
1, 8233, Note_on_c, 9, 35, 0
1, 8233, Note_on_c, 9, 46, 0
1, 8233, Note_on_c, 3, 68, 92
1, 8246, Note_on_c, 0, 56, 0
1, 8246, Note_on_c, 0, 61, 0
1, 8246, Note_on_c, 0, 65, 0
1, 8251, Note_on_c, 2, 59, 0
1, 8253, Note_on_c, 8, 65, 0
1, 8254, Note_on_c, 0, 59, 0
1, 8254, Note_on_c, 2, 56, 0
1, 8254, Note_on_c, 2, 54, 72
1, 8255, Note_on_c, 0, 54, 104
1, 8255, Note_on_c, 0, 61, 93
1, 8255, Note_on_c, 0, 58, 87
1, 8255, Note_on_c, 0, 65, 95
1, 8255, Note_on_c, 2, 58, 59
1, 8256, Note_on_c, 1, 30, 107
1, 8256, Note_on_c, 9, 42, 70
1, 8256, Note_on_c, 9, 35, 115
1, 8257, Note_on_c, 9, 35, 0
1, 8257, Note_on_c, 9, 42, 0
1, 8257, Note_on_c, 1, 25, 0
1, 8257, Note_on_c, 8, 61, 68
1, 8271, Note_on_c, 1, 30, 0
1, 8280, Note_on_c, 1, 30, 89
1, 8280, Note_on_c, 9, 42, 42
1, 8281, Note_on_c, 9, 42, 0
1, 8294, Note_on_c, 1, 30, 0
1, 8304, Note_on_c, 1, 30, 87
1, 8304, Note_on_c, 9, 42, 56
1, 8305, Note_on_c, 9, 42, 0
1, 8317, Note_on_c, 1, 30, 0
1, 8328, Note_on_c, 1, 30, 87
1, 8328, Note_on_c, 9, 42, 49
1, 8329, Note_on_c, 9, 42, 0
1, 8342, Note_on_c, 1, 30, 0
1, 8352, Note_on_c, 1, 30, 127
1, 8352, Note_on_c, 9, 40, 115
1, 8352, Note_on_c, 9, 42, 104
1, 8353, Note_on_c, 9, 42, 0
1, 8353, Note_on_c, 9, 40, 0
1, 8365, Note_on_c, 1, 30, 0
1, 8376, Note_on_c, 1, 30, 110
1, 8376, Note_on_c, 9, 42, 73
1, 8377, Note_on_c, 9, 42, 0
1, 8388, Note_on_c, 1, 30, 0
1, 8392, Note_on_c, 3, 68, 0
1, 8400, Note_on_c, 1, 30, 127
1, 8400, Note_on_c, 9, 42, 104
1, 8400, Note_on_c, 9, 45, 102
1, 8401, Note_on_c, 9, 45, 0
1, 8401, Note_on_c, 9, 42, 0
1, 8411, Note_on_c, 1, 30, 0
1, 8424, Note_on_c, 1, 30, 123
1, 8424, Note_on_c, 9, 45, 106
1, 8425, Note_on_c, 9, 45, 0
1, 8441, Note_on_c, 1, 30, 0
1, 8445, Note_on_c, 2, 65, 0
1, 8445, Note_on_c, 2, 54, 0
1, 8445, Note_on_c, 2, 59, 83
1, 8446, Note_on_c, 2, 58, 0
1, 8446, Note_on_c, 2, 56, 94
1, 8446, Note_on_c, 2, 63, 78
1, 8447, Note_on_c, 0, 66, 107
1, 8447, Note_on_c, 0, 56, 107
1, 8447, Note_on_c, 0, 59, 108
1, 8447, Note_on_c, 0, 63, 99
1, 8448, Note_on_c, 4, 65, 0
1, 8448, Note_on_c, 0, 61, 0
1, 8448, Note_on_c, 4, 68, 0
1, 8448, Note_on_c, 0, 54, 0
1, 8448, Note_on_c, 0, 65, 0
1, 8448, Note_on_c, 4, 61, 0
1, 8448, Note_on_c, 0, 58, 0
1, 8448, Note_on_c, 8, 61, 0
1, 8448, Note_on_c, 1, 32, 116
1, 8448, Note_on_c, 4, 59, 42
1, 8448, Note_on_c, 4, 63, 42
1, 8448, Note_on_c, 4, 66, 74
1, 8448, Note_on_c, 8, 63, 91
1, 8448, Note_on_c, 8, 59, 88
1, 8448, Note_on_c, 9, 35, 115
1, 8449, Note_on_c, 9, 35, 0
1, 8449, Note_on_c, 3, 66, 95
1, 8449, Note_on_c, 9, 49, 69
1, 8450, Note_on_c, 9, 49, 0
1, 8495, Note_on_c, 1, 32, 0
1, 8496, Note_on_c, 1, 30, 127
1, 8519, Note_on_c, 1, 30, 0
1, 8520, Note_on_c, 1, 32, 116
1, 8536, Note_on_c, 3, 66, 0
1, 8540, Note_on_c, 2, 59, 0
1, 8540, Note_on_c, 2, 56, 0
1, 8540, Note_on_c, 8, 63, 0
1, 8541, Note_on_c, 0, 66, 0
1, 8541, Note_on_c, 0, 59, 0
1, 8541, Note_on_c, 2, 63, 0
1, 8541, Note_on_c, 0, 63, 0
1, 8541, Note_on_c, 0, 56, 0
1, 8541, Note_on_c, 2, 61, 86
1, 8541, Note_on_c, 2, 58, 79
1, 8541, Note_on_c, 2, 65, 77
1, 8542, Note_on_c, 1, 32, 0
1, 8543, Note_on_c, 8, 59, 0
1, 8543, Note_on_c, 0, 65, 97
1, 8543, Note_on_c, 0, 61, 104
1, 8544, Note_on_c, 4, 59, 0
1, 8544, Note_on_c, 4, 66, 0
1, 8544, Note_on_c, 4, 63, 0
1, 8544, Note_on_c, 0, 58, 101
1, 8544, Note_on_c, 0, 56, 110
1, 8544, Note_on_c, 1, 34, 127
1, 8544, Note_on_c, 4, 61, 47
1, 8544, Note_on_c, 4, 65, 48
1, 8544, Note_on_c, 4, 68, 93
1, 8544, Note_on_c, 8, 65, 95
1, 8544, Note_on_c, 8, 61, 95
1, 8544, Note_on_c, 9, 35, 115
1, 8545, Note_on_c, 9, 35, 0
1, 8545, Note_on_c, 3, 68, 114
1, 8545, Note_on_c, 9, 57, 74
1, 8546, Note_on_c, 9, 57, 0
1, 8569, Note_on_c, 2, 77, 124
1, 8580, Note_on_c, 2, 79, 124
1, 8584, Note_on_c, 2, 77, 0
1, 8587, Note_on_c, 1, 34, 0
1, 8591, Note_on_c, 2, 81, 124
1, 8592, Note_on_c, 1, 32, 113
1, 8594, Note_on_c, 2, 79, 0
1, 8604, Note_on_c, 2, 82, 124
1, 8606, Note_on_c, 2, 81, 0
1, 8613, Note_on_c, 1, 32, 0
1, 8616, Note_on_c, 1, 34, 127
1, 8617, Note_on_c, 2, 84, 124
1, 8619, Note_on_c, 2, 82, 0
1, 8625, Note_on_c, 3, 68, 0
1, 8628, Note_on_c, 2, 86, 124
1, 8632, Note_on_c, 2, 84, 0
1, 8633, Note_on_c, 2, 65, 0
1, 8633, Note_on_c, 2, 61, 0
1, 8636, Note_on_c, 2, 58, 0
1, 8636, Note_on_c, 1, 34, 0
1, 8637, Note_on_c, 2, 86, 0
1, 8639, Note_on_c, 8, 65, 0
1, 8639, Note_on_c, 8, 61, 0
1, 8639, Note_on_c, 3, 70, 110
1, 8640, Note_on_c, 4, 65, 0
1, 8640, Note_on_c, 4, 61, 0
1, 8640, Note_on_c, 4, 68, 0
1, 8640, Note_on_c, 0, 58, 0
1, 8640, Note_on_c, 1, 36, 127
1, 8640, Note_on_c, 4, 70, 89
1, 8640, Note_on_c, 4, 67, 58
1, 8640, Note_on_c, 4, 63, 58
1, 8640, Note_on_c, 9, 35, 115
1, 8641, Note_on_c, 9, 35, 0
1, 8641, Note_on_c, 0, 67, 108
1, 8641, Note_on_c, 0, 58, 97
1, 8641, Note_on_c, 0, 63, 87
1, 8641, Note_on_c, 0, 55, 108
1, 8641, Note_on_c, 0, 60, 108
1, 8641, Note_on_c, 8, 67, 80
1, 8641, Note_on_c, 9, 49, 92
1, 8642, Note_on_c, 9, 49, 0
1, 8642, Note_on_c, 8, 63, 81
1, 8643, Note_on_c, 0, 61, 0
1, 8643, Note_on_c, 0, 56, 0
1, 8643, Note_on_c, 0, 65, 0
1, 8643, Note_on_c, 2, 55, 99
1, 8643, Note_on_c, 2, 63, 67
1, 8645, Note_on_c, 2, 60, 77
1, 8645, Note_on_c, 2, 87, 84
1, 8662, Note_on_c, 8, 67, 0
1, 8666, Note_on_c, 8, 63, 0
1, 8667, Note_on_c, 7, 62, 90
1, 8667, Note_on_c, 8, 62, 90
1, 8687, Note_on_c, 7, 62, 0
1, 8688, Note_on_c, 8, 62, 0
1, 8688, Note_on_c, 9, 42, 60
1, 8689, Note_on_c, 9, 42, 0
1, 8695, Note_on_c, 3, 70, 0
1, 8699, Note_on_c, 1, 36, 0
1, 8712, Note_on_c, 9, 42, 43
1, 8713, Note_on_c, 9, 42, 0
1, 8716, Note_on_c, 7, 63, 95
1, 8716, Note_on_c, 8, 63, 95
1, 8735, Note_on_c, 4, 63, 0
1, 8735, Note_on_c, 4, 70, 0
1, 8735, Note_on_c, 4, 67, 0
1, 8736, Note_on_c, 9, 42, 115
1, 8736, Note_on_c, 9, 40, 115
1, 8737, Note_on_c, 9, 40, 0
1, 8737, Note_on_c, 9, 42, 0
1, 8737, Note_on_c, 7, 63, 0
1, 8739, Note_on_c, 8, 63, 0
1, 8759, Note_on_c, 7, 72, 77
1, 8759, Note_on_c, 8, 72, 77
1, 8760, Note_on_c, 9, 42, 65
1, 8761, Note_on_c, 9, 42, 0
1, 8763, Note_on_c, 7, 74, 83
1, 8765, Note_on_c, 8, 74, 83
1, 8771, Note_on_c, 7, 72, 0
1, 8771, Note_on_c, 8, 72, 0
1, 8781, Note_on_c, 7, 74, 0
1, 8784, Note_on_c, 9, 42, 89
1, 8785, Note_on_c, 9, 42, 0
1, 8786, Note_on_c, 8, 74, 0
1, 8808, Note_on_c, 1, 27, 123
1, 8808, Note_on_c, 7, 70, 72
1, 8808, Note_on_c, 8, 70, 72
1, 8808, Note_on_c, 9, 35, 94
1, 8808, Note_on_c, 9, 42, 72
1, 8809, Note_on_c, 9, 42, 0
1, 8809, Note_on_c, 9, 35, 0
1, 8812, Note_on_c, 2, 60, 0
1, 8827, Note_on_c, 0, 58, 0
1, 8827, Note_on_c, 0, 67, 0
1, 8827, Note_on_c, 0, 55, 0
1, 8827, Note_on_c, 0, 63, 0
1, 8827, Note_on_c, 0, 60, 0
1, 8828, Note_on_c, 1, 27, 0
1, 8830, Note_on_c, 2, 55, 0
1, 8830, Note_on_c, 2, 65, 84
1, 8831, Note_on_c, 0, 63, 104
1, 8831, Note_on_c, 0, 56, 97
1, 8831, Note_on_c, 0, 65, 95
1, 8831, Note_on_c, 0, 60, 104
1, 8832, Note_on_c, 1, 29, 117
1, 8832, Note_on_c, 3, 70, 118
1, 8832, Note_on_c, 4, 70, 49
1, 8832, Note_on_c, 9, 42, 107
1, 8832, Note_on_c, 9, 35, 115
1, 8833, Note_on_c, 9, 35, 0
1, 8833, Note_on_c, 9, 42, 0
1, 8833, Note_on_c, 2, 63, 0
1, 8834, Note_on_c, 2, 60, 77
1, 8834, Note_on_c, 2, 56, 90
1, 8849, Note_on_c, 3, 70, 0
1, 8849, Control_c, 7, 11, 126
1, 8849, Control_c, 8, 11, 126
1, 8852, Control_c, 7, 11, 123
1, 8852, Control_c, 8, 11, 123
1, 8854, Control_c, 7, 11, 121
1, 8854, Control_c, 8, 11, 121
1, 8855, Note_on_c, 4, 70, 0
1, 8856, Note_on_c, 4, 70, 49
1, 8856, Control_c, 7, 11, 120
1, 8856, Control_c, 8, 11, 120
1, 8856, Note_on_c, 9, 42, 54
1, 8857, Note_on_c, 9, 42, 0
1, 8857, Note_on_c, 3, 70, 94
1, 8857, Control_c, 7, 11, 118
1, 8857, Control_c, 8, 11, 118
1, 8859, Control_c, 7, 11, 117
1, 8859, Control_c, 8, 11, 117
1, 8861, Control_c, 7, 11, 115
1, 8861, Control_c, 8, 11, 115
1, 8862, Control_c, 7, 11, 114
1, 8862, Control_c, 8, 11, 114
1, 8864, Control_c, 7, 11, 112
1, 8864, Control_c, 8, 11, 112
1, 8865, Control_c, 7, 11, 111
1, 8865, Control_c, 8, 11, 111
1, 8867, Note_on_c, 1, 29, 0
1, 8867, Control_c, 7, 11, 109
1, 8867, Control_c, 8, 11, 109
1, 8869, Control_c, 7, 11, 108
1, 8869, Control_c, 8, 11, 108
1, 8870, Control_c, 7, 11, 106
1, 8870, Control_c, 8, 11, 106
1, 8872, Note_on_c, 3, 70, 0
1, 8872, Control_c, 7, 11, 104
1, 8872, Control_c, 8, 11, 104
1, 8874, Control_c, 7, 11, 102
1, 8874, Control_c, 8, 11, 102
1, 8875, Control_c, 7, 11, 100
1, 8875, Control_c, 8, 11, 100
1, 8877, Control_c, 7, 11, 98
1, 8877, Control_c, 8, 11, 98
1, 8878, Control_c, 7, 11, 95
1, 8878, Control_c, 8, 11, 95
1, 8879, Note_on_c, 4, 70, 0
1, 8880, Note_on_c, 4, 70, 49
1, 8880, Control_c, 7, 11, 93
1, 8880, Control_c, 8, 11, 93
1, 8880, Note_on_c, 9, 42, 66
1, 8881, Note_on_c, 9, 42, 0
1, 8881, Note_on_c, 3, 70, 101
1, 8882, Control_c, 7, 11, 91
1, 8882, Control_c, 8, 11, 91
1, 8884, Control_c, 7, 11, 89
1, 8884, Control_c, 8, 11, 89
1, 8885, Control_c, 7, 11, 87
1, 8885, Control_c, 8, 11, 87
1, 8887, Control_c, 7, 11, 85
1, 8887, Control_c, 8, 11, 85
1, 8888, Control_c, 7, 11, 83
1, 8888, Control_c, 8, 11, 83
1, 8890, Control_c, 7, 11, 82
1, 8890, Control_c, 8, 11, 82
1, 8892, Control_c, 7, 11, 80
1, 8892, Control_c, 8, 11, 80
1, 8893, Control_c, 7, 11, 78
1, 8893, Control_c, 8, 11, 78
1, 8895, Control_c, 7, 11, 76
1, 8895, Control_c, 8, 11, 76
1, 8896, Control_c, 7, 11, 74
1, 8896, Control_c, 8, 11, 74
1, 8897, Note_on_c, 3, 70, 0
1, 8898, Control_c, 7, 11, 73
1, 8898, Control_c, 8, 11, 73
1, 8899, Control_c, 7, 11, 71
1, 8899, Control_c, 8, 11, 71
1, 8901, Control_c, 7, 11, 69
1, 8901, Control_c, 8, 11, 69
1, 8903, Control_c, 7, 11, 67
1, 8903, Control_c, 8, 11, 67
1, 8904, Note_on_c, 4, 70, 0
1, 8904, Note_on_c, 4, 68, 49
1, 8904, Note_on_c, 9, 42, 72
1, 8905, Note_on_c, 9, 42, 0
1, 8905, Note_on_c, 3, 68, 107
1, 8905, Control_c, 7, 11, 65
1, 8905, Control_c, 8, 11, 65
1, 8906, Control_c, 7, 11, 63
1, 8906, Control_c, 8, 11, 63
1, 8908, Control_c, 7, 11, 61
1, 8908, Control_c, 8, 11, 61
1, 8910, Control_c, 7, 11, 59
1, 8910, Control_c, 8, 11, 59
1, 8911, Control_c, 7, 11, 57
1, 8911, Control_c, 8, 11, 57
1, 8913, Control_c, 7, 11, 55
1, 8913, Control_c, 8, 11, 55
1, 8914, Control_c, 7, 11, 53
1, 8914, Control_c, 8, 11, 53
1, 8916, Control_c, 7, 11, 50
1, 8916, Control_c, 8, 11, 50
1, 8918, Control_c, 7, 11, 48
1, 8918, Control_c, 8, 11, 48
1, 8919, Control_c, 7, 11, 45
1, 8919, Control_c, 8, 11, 45
1, 8921, Control_c, 7, 11, 43
1, 8921, Control_c, 8, 11, 43
1, 8922, Control_c, 7, 11, 40
1, 8922, Control_c, 8, 11, 40
1, 8924, Control_c, 7, 11, 38
1, 8924, Control_c, 8, 11, 38
1, 8926, Control_c, 7, 11, 36
1, 8926, Control_c, 8, 11, 36
1, 8927, Control_c, 7, 11, 34
1, 8927, Control_c, 8, 11, 34
1, 8928, Note_on_c, 9, 40, 115
1, 8928, Note_on_c, 9, 42, 115
1, 8929, Note_on_c, 9, 42, 0
1, 8929, Note_on_c, 9, 40, 0
1, 8929, Control_c, 7, 11, 32
1, 8929, Control_c, 8, 11, 32
1, 8931, Control_c, 7, 11, 30
1, 8931, Control_c, 8, 11, 30
1, 8932, Control_c, 7, 11, 29
1, 8932, Control_c, 8, 11, 29
1, 8934, Control_c, 7, 11, 27
1, 8934, Control_c, 8, 11, 27
1, 8936, Control_c, 7, 11, 26
1, 8936, Control_c, 8, 11, 26
1, 8937, Control_c, 7, 11, 24
1, 8937, Control_c, 8, 11, 24
1, 8939, Control_c, 7, 11, 23
1, 8939, Control_c, 8, 11, 23
1, 8940, Control_c, 7, 11, 21
1, 8940, Control_c, 8, 11, 21
1, 8942, Control_c, 7, 11, 19
1, 8942, Control_c, 8, 11, 19
1, 8944, Control_c, 7, 11, 18
1, 8944, Control_c, 8, 11, 18
1, 8945, Control_c, 7, 11, 16
1, 8945, Control_c, 8, 11, 16
1, 8949, Control_c, 7, 11, 14
1, 8949, Control_c, 8, 11, 14
1, 8952, Note_on_c, 1, 29, 122
1, 8952, Control_c, 7, 11, 11
1, 8952, Control_c, 8, 11, 11
1, 8952, Note_on_c, 9, 42, 55
1, 8952, Note_on_c, 9, 35, 102
1, 8953, Note_on_c, 9, 35, 0
1, 8953, Note_on_c, 9, 42, 0
1, 8954, Control_c, 7, 11, 10
1, 8954, Control_c, 8, 11, 10
1, 8955, Control_c, 7, 11, 8
1, 8955, Control_c, 8, 11, 8
1, 8957, Note_on_c, 8, 70, 0
1, 8957, Note_on_c, 7, 70, 0
1, 8957, Control_c, 7, 11, 7
1, 8957, Control_c, 8, 11, 7
1, 8970, Note_on_c, 3, 68, 0
1, 8970, Control_c, 7, 11, 10
1, 8970, Control_c, 8, 11, 10
1, 8971, Control_c, 7, 11, 14
1, 8971, Control_c, 8, 11, 14
1, 8973, Control_c, 7, 11, 19
1, 8973, Control_c, 8, 11, 19
1, 8974, Control_c, 7, 11, 25
1, 8974, Control_c, 8, 11, 25
1, 8975, Note_on_c, 3, 60, 95
1, 8976, Note_on_c, 4, 68, 0
1, 8976, Note_on_c, 1, 29, 0
1, 8976, Note_on_c, 1, 36, 112
1, 8976, Note_on_c, 4, 60, 47
1, 8976, Control_c, 7, 11, 32
1, 8976, Control_c, 8, 11, 32
1, 8976, Note_on_c, 9, 42, 101
1, 8977, Note_on_c, 9, 42, 0
1, 8978, Control_c, 7, 11, 41
1, 8978, Control_c, 8, 11, 41
1, 8980, Control_c, 7, 11, 51
1, 8980, Control_c, 8, 11, 51
1, 8981, Control_c, 7, 11, 61
1, 8981, Control_c, 8, 11, 61
1, 8983, Control_c, 7, 11, 74
1, 8983, Control_c, 8, 11, 74
1, 8984, Control_c, 7, 11, 90
1, 8984, Control_c, 8, 11, 90
1, 8986, Control_c, 7, 11, 105
1, 8986, Control_c, 8, 11, 105
1, 8988, Control_c, 7, 11, 125
1, 8988, Control_c, 8, 11, 125
1, 8989, Control_c, 7, 11, 127
1, 8989, Control_c, 8, 11, 127
1, 8994, Note_on_c, 1, 36, 0
1, 8998, Note_on_c, 3, 60, 0
1, 9000, Note_on_c, 4, 60, 0
1, 9000, Note_on_c, 1, 35, 127
1, 9000, Note_on_c, 3, 61, 101
1, 9000, Note_on_c, 4, 61, 47
1, 9000, Note_on_c, 9, 46, 73
1, 9000, Note_on_c, 9, 35, 82
1, 9001, Note_on_c, 9, 35, 0
1, 9001, Note_on_c, 9, 46, 0
1, 9016, Note_on_c, 0, 65, 0
1, 9016, Note_on_c, 0, 63, 0
1, 9016, Note_on_c, 0, 60, 0
1, 9016, Note_on_c, 0, 56, 0
1, 9021, Note_on_c, 2, 60, 0
1, 9021, Note_on_c, 1, 35, 0
1, 9022, Note_on_c, 2, 61, 79
1, 9022, Note_on_c, 2, 58, 72
1, 9023, Note_on_c, 2, 56, 0
1, 9023, Note_on_c, 0, 58, 87
1, 9023, Note_on_c, 0, 61, 97
1, 9023, Note_on_c, 0, 56, 99
1, 9023, Note_on_c, 0, 65, 92
1, 9024, Note_on_c, 1, 34, 99
1, 9024, Note_on_c, 9, 42, 66
1, 9024, Note_on_c, 9, 35, 115
1, 9025, Note_on_c, 9, 35, 0
1, 9025, Note_on_c, 9, 42, 0
1, 9041, Note_on_c, 3, 61, 0
1, 9048, Note_on_c, 9, 42, 58
1, 9049, Note_on_c, 9, 42, 0
1, 9051, Note_on_c, 7, 60, 81
1, 9051, Note_on_c, 8, 60, 81
1, 9071, Note_on_c, 7, 60, 0
1, 9072, Note_on_c, 9, 42, 81
1, 9073, Note_on_c, 9, 42, 0
1, 9073, Note_on_c, 8, 60, 0
1, 9077, Note_on_c, 1, 34, 0
1, 9096, Note_on_c, 9, 42, 72
1, 9097, Note_on_c, 9, 42, 0
1, 9099, Note_on_c, 8, 61, 84
1, 9100, Note_on_c, 7, 61, 84
1, 9120, Note_on_c, 4, 61, 0
1, 9120, Note_on_c, 9, 42, 111
1, 9120, Note_on_c, 9, 40, 115
1, 9121, Note_on_c, 9, 40, 0
1, 9121, Note_on_c, 7, 61, 0
1, 9121, Note_on_c, 9, 42, 0
1, 9125, Note_on_c, 8, 61, 0
1, 9144, Note_on_c, 9, 42, 65
1, 9145, Note_on_c, 9, 42, 0
1, 9145, Note_on_c, 7, 70, 77
1, 9146, Note_on_c, 8, 70, 77
1, 9150, Note_on_c, 7, 72, 80
1, 9152, Note_on_c, 8, 72, 80
1, 9154, Note_on_c, 7, 70, 0
1, 9155, Note_on_c, 8, 70, 0
1, 9168, Note_on_c, 7, 72, 0
1, 9168, Note_on_c, 9, 42, 89
1, 9169, Note_on_c, 9, 42, 0
1, 9171, Note_on_c, 8, 72, 0
1, 9191, Note_on_c, 3, 61, 95
1, 9191, Note_on_c, 8, 68, 84
1, 9192, Note_on_c, 1, 34, 114
1, 9192, Note_on_c, 4, 61, 74
1, 9192, Note_on_c, 9, 35, 68
1, 9192, Note_on_c, 9, 42, 75
1, 9193, Note_on_c, 9, 42, 0
1, 9193, Note_on_c, 9, 35, 0
1, 9193, Note_on_c, 7, 68, 84
1, 9209, Note_on_c, 0, 56, 0
1, 9209, Note_on_c, 0, 61, 0
1, 9209, Note_on_c, 0, 65, 0
1, 9209, Note_on_c, 0, 58, 0
1, 9210, Note_on_c, 3, 61, 0
1, 9212, Note_on_c, 1, 34, 0
1, 9213, Note_on_c, 2, 58, 0
1, 9213, Note_on_c, 2, 56, 86
1, 9215, Note_on_c, 0, 56, 107
1, 9215, Note_on_c, 0, 61, 104
1, 9215, Note_on_c, 0, 65, 98
1, 9215, Note_on_c, 3, 72, 95
1, 9216, Note_on_c, 4, 61, 0
1, 9216, Note_on_c, 1, 39, 114
1, 9216, Note_on_c, 4, 65, 44
1, 9216, Note_on_c, 4, 68, 44
1, 9216, Note_on_c, 4, 72, 74
1, 9216, Note_on_c, 9, 42, 115
1, 9216, Note_on_c, 9, 35, 115
1, 9217, Note_on_c, 9, 35, 0
1, 9217, Note_on_c, 9, 42, 0
1, 9233, Note_on_c, 3, 72, 0
1, 9239, Note_on_c, 4, 68, 0
1, 9239, Note_on_c, 4, 65, 0
1, 9239, Note_on_c, 4, 72, 0
1, 9240, Note_on_c, 4, 68, 45
1, 9240, Note_on_c, 4, 65, 45
1, 9240, Note_on_c, 4, 72, 72
1, 9240, Note_on_c, 9, 42, 62
1, 9241, Note_on_c, 9, 42, 0
1, 9241, Note_on_c, 3, 72, 93
1, 9253, Note_on_c, 3, 72, 0
1, 9257, Note_on_c, 1, 39, 0
1, 9263, Note_on_c, 4, 68, 0
1, 9263, Note_on_c, 4, 72, 0
1, 9263, Note_on_c, 4, 65, 0
1, 9263, Note_on_c, 3, 72, 95
1, 9264, Note_on_c, 4, 68, 45
1, 9264, Note_on_c, 4, 65, 45
1, 9264, Note_on_c, 4, 72, 74
1, 9264, Note_on_c, 9, 42, 89
1, 9265, Note_on_c, 9, 42, 0
1, 9283, Note_on_c, 3, 72, 0
1, 9286, Note_on_c, 8, 68, 0
1, 9287, Note_on_c, 3, 70, 110
1, 9287, Note_on_c, 7, 67, 66
1, 9287, Note_on_c, 8, 67, 66
1, 9288, Note_on_c, 4, 68, 0
1, 9288, Note_on_c, 7, 68, 0
1, 9288, Note_on_c, 4, 65, 0
1, 9288, Note_on_c, 4, 72, 0
1, 9288, Note_on_c, 4, 63, 46
1, 9288, Note_on_c, 4, 67, 46
1, 9288, Note_on_c, 4, 70, 89
1, 9288, Note_on_c, 9, 42, 56
1, 9289, Note_on_c, 9, 42, 0
1, 9299, Note_on_c, 7, 68, 58
1, 9299, Note_on_c, 8, 68, 58
1, 9304, Note_on_c, 8, 67, 0
1, 9304, Note_on_c, 7, 67, 0
1, 9308, Note_on_c, 2, 87, 0
1, 9309, Note_on_c, 0, 65, 0
1, 9309, Note_on_c, 0, 56, 0
1, 9309, Note_on_c, 0, 61, 0
1, 9309, Note_on_c, 2, 65, 0
1, 9309, Note_on_c, 2, 61, 0
1, 9309, Note_on_c, 2, 58, 72
1, 9310, Note_on_c, 2, 67, 73
1, 9311, Note_on_c, 2, 56, 0
1, 9311, Note_on_c, 0, 63, 99
1, 9311, Note_on_c, 0, 61, 104
1, 9311, Note_on_c, 0, 67, 100
1, 9311, Note_on_c, 0, 58, 95
1, 9311, Note_on_c, 2, 63, 75
1, 9312, Note_on_c, 9, 40, 115
1, 9312, Note_on_c, 9, 42, 111
1, 9313, Note_on_c, 9, 42, 0
1, 9313, Note_on_c, 9, 40, 0
1, 9313, Note_on_c, 7, 67, 75
1, 9313, Note_on_c, 8, 67, 75
1, 9315, Note_on_c, 2, 87, 79
1, 9316, Note_on_c, 8, 68, 0
1, 9316, Note_on_c, 7, 68, 0
1, 9336, Note_on_c, 1, 27, 106
1, 9336, Note_on_c, 9, 42, 58
1, 9336, Note_on_c, 9, 35, 115
1, 9337, Note_on_c, 9, 35, 0
1, 9337, Note_on_c, 9, 42, 0
1, 9356, Note_on_c, 1, 27, 0
1, 9356, Note_on_c, 3, 70, 0
1, 9359, Note_on_c, 3, 68, 100
1, 9360, Note_on_c, 4, 67, 0
1, 9360, Note_on_c, 4, 63, 0
1, 9360, Note_on_c, 4, 70, 0
1, 9360, Note_on_c, 1, 29, 108
1, 9360, Note_on_c, 4, 65, 45
1, 9360, Note_on_c, 4, 68, 79
1, 9360, Note_on_c, 4, 61, 45
1, 9360, Note_on_c, 9, 42, 101
1, 9361, Note_on_c, 9, 42, 0
1, 9383, Note_on_c, 3, 68, 0
1, 9384, Note_on_c, 4, 65, 0
1, 9384, Note_on_c, 4, 61, 0
1, 9384, Note_on_c, 4, 68, 0
1, 9384, Note_on_c, 1, 30, 107
1, 9384, Note_on_c, 4, 70, 89
1, 9384, Note_on_c, 4, 63, 45
1, 9384, Note_on_c, 4, 66, 45
1, 9384, Note_on_c, 9, 35, 102
1, 9384, Note_on_c, 9, 46, 70
1, 9385, Note_on_c, 9, 46, 0
1, 9385, Note_on_c, 9, 35, 0
1, 9385, Note_on_c, 3, 70, 110
1, 9386, Note_on_c, 1, 29, 0
1, 9396, Note_on_c, 2, 63, 0
1, 9402, Note_on_c, 2, 58, 0
1, 9403, Note_on_c, 2, 67, 0
1, 9405, Note_on_c, 0, 63, 0
1, 9405, Note_on_c, 0, 61, 0
1, 9405, Note_on_c, 0, 67, 0
1, 9405, Note_on_c, 1, 30, 0
1, 9405, Note_on_c, 0, 58, 0
1, 9406, Note_on_c, 2, 66, 79
1, 9406, Note_on_c, 2, 56, 96
1, 9406, Note_on_c, 2, 63, 84
1, 9408, Note_on_c, 8, 67, 0
1, 9408, Note_on_c, 7, 67, 0
1, 9408, Note_on_c, 0, 63, 97
1, 9408, Note_on_c, 0, 66, 95
1, 9408, Note_on_c, 1, 32, 111
1, 9408, Note_on_c, 9, 42, 77
1, 9408, Note_on_c, 9, 35, 115
1, 9409, Note_on_c, 9, 35, 0
1, 9409, Note_on_c, 9, 42, 0
1, 9409, Note_on_c, 0, 59, 106
1, 9409, Note_on_c, 0, 56, 107
1, 9409, Note_on_c, 7, 66, 65
1, 9409, Note_on_c, 8, 66, 65
1, 9410, Note_on_c, 3, 70, 0
1, 9432, Note_on_c, 9, 42, 59
1, 9433, Note_on_c, 9, 42, 0
1, 9453, Note_on_c, 1, 32, 0
1, 9456, Note_on_c, 7, 66, 0
1, 9456, Note_on_c, 7, 73, 67
1, 9456, Note_on_c, 8, 73, 67
1, 9456, Note_on_c, 9, 42, 62
1, 9457, Note_on_c, 9, 42, 0
1, 9473, Note_on_c, 7, 73, 0
1, 9477, Note_on_c, 8, 73, 0
1, 9480, Note_on_c, 9, 42, 65
1, 9481, Note_on_c, 9, 42, 0
1, 9482, Note_on_c, 7, 70, 74
1, 9482, Note_on_c, 8, 70, 70
1, 9499, Note_on_c, 8, 70, 0
1, 9501, Note_on_c, 7, 70, 0
1, 9503, Note_on_c, 4, 70, 0
1, 9503, Note_on_c, 4, 66, 0
1, 9503, Note_on_c, 4, 63, 0
1, 9504, Note_on_c, 9, 42, 107
1, 9504, Note_on_c, 9, 40, 115
1, 9505, Note_on_c, 9, 40, 0
1, 9505, Note_on_c, 9, 42, 0
1, 9528, Note_on_c, 1, 32, 112
1, 9528, Note_on_c, 9, 42, 75
1, 9529, Note_on_c, 9, 42, 0
1, 9531, Note_on_c, 7, 66, 64
1, 9552, Note_on_c, 1, 32, 0
1, 9552, Note_on_c, 1, 34, 115
1, 9552, Note_on_c, 9, 42, 95
1, 9553, Note_on_c, 9, 42, 0
1, 9573, Note_on_c, 1, 34, 0
1, 9575, Note_on_c, 3, 61, 101
1, 9576, Note_on_c, 1, 35, 115
1, 9576, Note_on_c, 4, 54, 44
1, 9576, Note_on_c, 4, 61, 80
1, 9576, Note_on_c, 4, 66, 44
1, 9576, Note_on_c, 9, 35, 103
1, 9576, Note_on_c, 9, 42, 81
1, 9577, Note_on_c, 9, 42, 0
1, 9577, Note_on_c, 9, 35, 0
1, 9590, Note_on_c, 3, 61, 0
1, 9594, Note_on_c, 2, 56, 0
1, 9597, Note_on_c, 0, 66, 0
1, 9597, Note_on_c, 0, 59, 0
1, 9597, Note_on_c, 0, 63, 0
1, 9597, Note_on_c, 0, 56, 0
1, 9598, Note_on_c, 2, 59, 82
1, 9599, Note_on_c, 4, 66, 0
1, 9599, Note_on_c, 0, 66, 99
1, 9599, Note_on_c, 0, 54, 110
1, 9599, Note_on_c, 0, 59, 98
1, 9599, Note_on_c, 0, 63, 99
1, 9599, Note_on_c, 3, 70, 110
1, 9600, Note_on_c, 4, 61, 0
1, 9600, Note_on_c, 4, 54, 0
1, 9600, Note_on_c, 1, 37, 115
1, 9600, Note_on_c, 4, 66, 43
1, 9600, Note_on_c, 4, 63, 44
1, 9600, Note_on_c, 4, 70, 89
1, 9600, Note_on_c, 9, 42, 104
1, 9600, Note_on_c, 9, 35, 115
1, 9601, Note_on_c, 9, 35, 0
1, 9601, Note_on_c, 9, 42, 0
1, 9602, Note_on_c, 1, 35, 0
1, 9624, Note_on_c, 9, 42, 59
1, 9625, Note_on_c, 9, 42, 0
1, 9638, Note_on_c, 3, 70, 0
1, 9647, Note_on_c, 4, 70, 0
1, 9647, Note_on_c, 4, 63, 0
1, 9647, Note_on_c, 4, 66, 0
1, 9647, Note_on_c, 3, 70, 107
1, 9648, Note_on_c, 4, 70, 86
1, 9648, Note_on_c, 4, 66, 43
1, 9648, Note_on_c, 4, 63, 43
1, 9648, Note_on_c, 9, 35, 115
1, 9648, Note_on_c, 9, 40, 115
1, 9649, Note_on_c, 9, 40, 0
1, 9649, Note_on_c, 9, 35, 0
1, 9649, Note_on_c, 9, 52, 115
1, 9649, Note_on_c, 9, 46, 115
1, 9650, Note_on_c, 9, 46, 0
1, 9650, Note_on_c, 9, 52, 0
1, 9663, Note_on_c, 1, 37, 0
1, 9666, Note_on_c, 3, 70, 0
1, 9671, Note_on_c, 3, 68, 107
1, 9672, Note_on_c, 4, 66, 0
1, 9672, Note_on_c, 4, 70, 0
1, 9672, Note_on_c, 4, 63, 0
1, 9672, Note_on_c, 1, 37, 118
1, 9672, Note_on_c, 4, 65, 42
1, 9672, Note_on_c, 4, 68, 86
1, 9672, Note_on_c, 4, 61, 42
1, 9686, Note_on_c, 2, 63, 0
1, 9687, Note_on_c, 1, 37, 0
1, 9691, Note_on_c, 2, 66, 0
1, 9692, Note_on_c, 0, 59, 0
1, 9692, Note_on_c, 0, 54, 0
1, 9692, Note_on_c, 0, 66, 0
1, 9692, Note_on_c, 8, 66, 0
1, 9692, Note_on_c, 0, 63, 0
1, 9692, Note_on_c, 2, 65, 76
1, 9694, Note_on_c, 2, 56, 72
1, 9696, Note_on_c, 0, 56, 107
1, 9696, Note_on_c, 0, 61, 93
1, 9696, Note_on_c, 0, 59, 97
1, 9696, Note_on_c, 0, 65, 95
1, 9696, Note_on_c, 1, 37, 111
1, 9696, Note_on_c, 9, 47, 115
1, 9697, Note_on_c, 9, 47, 0
1, 9697, Note_on_c, 7, 65, 70
1, 9697, Note_on_c, 8, 65, 70
1, 9698, Note_on_c, 7, 66, 0
1, 9719, Note_on_c, 1, 37, 0
1, 9720, Note_on_c, 1, 35, 111
1, 9720, Note_on_c, 9, 45, 102
1, 9721, Note_on_c, 9, 45, 0
1, 9732, Note_on_c, 9, 45, 109
1, 9733, Note_on_c, 9, 45, 0
1, 9740, Note_on_c, 1, 35, 0
1, 9740, Note_on_c, 3, 68, 0
1, 9744, Note_on_c, 4, 65, 0
1, 9744, Note_on_c, 4, 61, 0
1, 9744, Note_on_c, 4, 68, 0
1, 9744, Note_on_c, 1, 34, 111
1, 9744, Note_on_c, 3, 66, 90
1, 9744, Note_on_c, 4, 63, 37
1, 9744, Note_on_c, 4, 59, 37
1, 9744, Note_on_c, 4, 66, 69
1, 9744, Note_on_c, 9, 41, 115
1, 9745, Note_on_c, 9, 41, 0
1, 9746, Note_on_c, 0, 56, 0
1, 9764, Note_on_c, 1, 34, 0
1, 9766, Note_on_c, 3, 66, 0
1, 9768, Note_on_c, 4, 59, 0
1, 9768, Note_on_c, 4, 63, 0
1, 9768, Note_on_c, 4, 66, 0
1, 9768, Note_on_c, 1, 32, 112
1, 9768, Note_on_c, 4, 68, 86
1, 9768, Note_on_c, 4, 61, 33
1, 9768, Note_on_c, 4, 65, 33
1, 9769, Note_on_c, 3, 68, 107
1, 9786, Note_on_c, 2, 56, 0
1, 9786, Note_on_c, 2, 59, 0
1, 9788, Note_on_c, 1, 32, 0
1, 9788, Note_on_c, 8, 65, 0
1, 9788, Note_on_c, 2, 58, 48
1, 9789, Note_on_c, 2, 54, 59
1, 9790, Note_on_c, 2, 87, 0
1, 9791, Note_on_c, 0, 61, 0
1, 9791, Note_on_c, 0, 65, 0
1, 9791, Note_on_c, 0, 59, 0
1, 9792, Note_on_c, 7, 65, 0
1, 9792, Note_on_c, 0, 54, 85
1, 9792, Note_on_c, 0, 58, 74
1, 9792, Note_on_c, 0, 65, 83
1, 9792, Note_on_c, 0, 61, 81
1, 9792, Note_on_c, 1, 30, 107
1, 9792, Note_on_c, 7, 61, 58
1, 9792, Note_on_c, 9, 49, 69
1, 9792, Note_on_c, 9, 35, 115
1, 9792, Note_on_c, 9, 57, 62
1, 9793, Note_on_c, 9, 57, 0
1, 9793, Note_on_c, 9, 35, 0
1, 9793, Note_on_c, 9, 49, 0
1, 9793, Note_on_c, 2, 73, 60
1, 9794, Note_on_c, 8, 54, 63
1, 9794, Note_on_c, 8, 58, 63
1, 9794, Note_on_c, 8, 65, 63
1, 9794, Note_on_c, 8, 42, 66
1, 9870, Control_c, 4, 11, 126
1, 9876, Note_on_c, 3, 68, 0
1, 9877, Control_c, 4, 11, 124
1, 9879, Note_on_c, 2, 58, 0
1, 9880, Note_on_c, 2, 65, 0
1, 9882, Note_on_c, 2, 54, 0
1, 9882, Control_c, 4, 11, 120
1, 9884, Note_on_c, 0, 54, 0
1, 9884, Note_on_c, 0, 58, 0
1, 9884, Note_on_c, 0, 65, 0
1, 9884, Note_on_c, 0, 61, 0
1, 9886, Note_on_c, 2, 59, 51
1, 9886, Note_on_c, 2, 64, 62
1, 9886, Note_on_c, 2, 56, 63
1, 9887, Note_on_c, 8, 54, 0
1, 9887, Control_c, 4, 11, 117
1, 9888, Note_on_c, 4, 61, 0
1, 9888, Note_on_c, 4, 65, 0
1, 9888, Note_on_c, 0, 59, 75
1, 9888, Note_on_c, 0, 54, 71
1, 9888, Note_on_c, 0, 64, 73
1, 9888, Note_on_c, 0, 56, 67
1, 9888, Note_on_c, 9, 51, 55
1, 9889, Note_on_c, 9, 51, 0
1, 9889, Note_on_c, 8, 65, 0
1, 9889, Note_on_c, 8, 58, 0
1, 9889, Note_on_c, 4, 68, 0
1, 9889, Note_on_c, 8, 56, 68
1, 9889, Note_on_c, 8, 64, 68
1, 9889, Note_on_c, 8, 59, 68
1, 9890, Control_c, 4, 11, 115
1, 9893, Control_c, 4, 11, 112
1, 9896, Control_c, 4, 11, 110
1, 9898, Control_c, 4, 11, 108
1, 9900, Control_c, 4, 11, 107
1, 9901, Control_c, 4, 11, 105
1, 9903, Control_c, 4, 11, 104
1, 9905, Control_c, 4, 11, 102
1, 9906, Control_c, 4, 11, 100
1, 9908, Control_c, 4, 11, 98
1, 9909, Control_c, 4, 11, 97
1, 9911, Control_c, 4, 11, 94
1, 9913, Control_c, 4, 11, 92
1, 9914, Control_c, 4, 11, 90
1, 9916, Control_c, 4, 11, 87
1, 9917, Control_c, 4, 11, 85
1, 9919, Control_c, 4, 11, 82
1, 9921, Control_c, 4, 11, 80
1, 9922, Control_c, 4, 11, 77
1, 9924, Control_c, 4, 11, 75
1, 9926, Control_c, 4, 11, 72
1, 9928, Control_c, 4, 11, 69
1, 9929, Control_c, 4, 11, 67
1, 9931, Control_c, 4, 11, 64
1, 9932, Control_c, 4, 11, 61
1, 9933, Control_c, 4, 11, 59
1, 9936, Control_c, 4, 11, 56
1, 9937, Control_c, 4, 11, 52
1, 9939, Control_c, 4, 11, 49
1, 9940, Control_c, 4, 11, 45
1, 9942, Control_c, 4, 11, 42
1, 9943, Control_c, 4, 11, 39
1, 9945, Control_c, 4, 11, 37
1, 9947, Control_c, 4, 11, 35
1, 9952, Control_c, 4, 11, 32
1, 9974, Note_on_c, 2, 59, 0
1, 9975, Control_c, 4, 11, 35
1, 9976, Control_c, 4, 11, 37
1, 9977, Note_on_c, 0, 56, 0
1, 9977, Note_on_c, 0, 59, 0
1, 9977, Note_on_c, 0, 54, 0
1, 9977, Note_on_c, 0, 64, 0
1, 9978, Control_c, 4, 11, 40
1, 9980, Note_on_c, 2, 56, 0
1, 9980, Control_c, 4, 11, 43
1, 9981, Note_on_c, 2, 73, 0
1, 9981, Note_on_c, 2, 64, 0
1, 9981, Note_on_c, 8, 59, 0
1, 9981, Control_c, 4, 11, 46
1, 9982, Note_on_c, 2, 58, 60
1, 9982, Note_on_c, 2, 62, 53
1, 9983, Note_on_c, 8, 42, 0
1, 9983, Note_on_c, 8, 64, 0
1, 9983, Note_on_c, 1, 30, 0
1, 9983, Note_on_c, 0, 48, 64
1, 9983, Note_on_c, 0, 62, 71
1, 9983, Note_on_c, 0, 58, 59
1, 9983, Note_on_c, 0, 65, 59
1, 9983, Control_c, 4, 11, 51
1, 9984, Note_on_c, 8, 56, 0
1, 9984, Note_on_c, 1, 36, 98
1, 9984, Control_c, 4, 11, 56
1, 9984, Note_on_c, 9, 51, 98
1, 9985, Note_on_c, 9, 51, 0
1, 9985, Note_on_c, 7, 62, 44
1, 9985, Note_on_c, 8, 65, 54
1, 9985, Note_on_c, 8, 36, 73
1, 9985, Note_on_c, 8, 62, 54
1, 9986, Note_on_c, 2, 72, 62
1, 9986, Control_c, 4, 11, 62
1, 9986, Note_on_c, 8, 58, 54
1, 9987, Note_on_c, 7, 61, 0
1, 9988, Control_c, 4, 11, 69
1, 9989, Control_c, 4, 11, 77
1, 9991, Control_c, 4, 11, 89
1, 9992, Control_c, 4, 11, 103
1, 9994, Control_c, 4, 11, 124
1, 9996, Control_c, 4, 11, 127
1, 10070, Note_on_c, 1, 36, 0
1, 10074, Tempo, 967742
1, 10077, Note_on_c, 2, 62, 0
1, 10078, Note_on_c, 0, 65, 0
1, 10078, Note_on_c, 0, 58, 0
1, 10078, Note_on_c, 0, 62, 0
1, 10078, Note_on_c, 2, 61, 46
1, 10079, Note_on_c, 8, 65, 0
1, 10079, Note_on_c, 0, 58, 41
1, 10079, Note_on_c, 0, 64, 60
1, 10079, Note_on_c, 0, 61, 63
1, 10080, Note_on_c, 7, 62, 0
1, 10080, Note_on_c, 8, 62, 0
1, 10080, Note_on_c, 1, 36, 94
1, 10080, Note_on_c, 9, 51, 92
1, 10081, Note_on_c, 9, 51, 0
1, 10081, Note_on_c, 7, 61, 33
1, 10082, Note_on_c, 8, 64, 43
1, 10082, Note_on_c, 8, 61, 44
1, 10103, Note_on_c, 3, 72, 103
1, 10103, Note_on_c, 4, 60, 82
1, 10129, Note_on_c, 4, 60, 0
1, 10129, Note_on_c, 3, 70, 70
1, 10129, Note_on_c, 4, 58, 49
1, 10131, Note_on_c, 3, 72, 0
1, 10149, Note_on_c, 3, 70, 0
1, 10152, Note_on_c, 4, 58, 0
1, 10152, Note_on_c, 3, 74, 88
1, 10152, Note_on_c, 4, 62, 67
1, 10159, Control_c, 2, 11, 126
1, 10169, Note_on_c, 8, 36, 0
1, 10173, Note_on_c, 2, 61, 0
1, 10173, Note_on_c, 2, 58, 0
1, 10174, Note_on_c, 0, 58, 0
1, 10174, Note_on_c, 0, 61, 0
1, 10174, Note_on_c, 0, 48, 0
1, 10174, Note_on_c, 0, 64, 0
1, 10174, Note_on_c, 2, 60, 60
1, 10175, Note_on_c, 1, 36, 0
1, 10176, Note_on_c, 7, 61, 0
1, 10176, Note_on_c, 1, 29, 96
1, 10176, Note_on_c, 9, 35, 92
1, 10177, Note_on_c, 9, 35, 0
1, 10177, Note_on_c, 8, 58, 0
1, 10177, Note_on_c, 8, 61, 0
1, 10177, Note_on_c, 8, 64, 0
1, 10177, Note_on_c, 0, 48, 64
1, 10177, Note_on_c, 0, 60, 81
1, 10177, Note_on_c, 0, 55, 66
1, 10177, Note_on_c, 0, 57, 70
1, 10177, Note_on_c, 0, 41, 68
1, 10177, Note_on_c, 0, 53, 64
1, 10177, Note_on_c, 5, 48, 75
1, 10177, Note_on_c, 5, 55, 85
1, 10177, Note_on_c, 5, 60, 83
1, 10177, Note_on_c, 5, 41, 77
1, 10177, Note_on_c, 5, 53, 80
1, 10177, Note_on_c, 7, 60, 26
1, 10184, Control_c, 2, 11, 123
1, 10190, Control_c, 2, 11, 120
1, 10197, Control_c, 2, 11, 118
1, 10201, Note_on_c, 4, 62, 0
1, 10201, Note_on_c, 3, 69, 88
1, 10201, Note_on_c, 4, 57, 67
1, 10203, Note_on_c, 3, 74, 0
1, 10203, Control_c, 2, 11, 115
1, 10208, Control_c, 2, 11, 113
1, 10210, Control_c, 2, 11, 111
1, 10213, Control_c, 7, 11, 126
1, 10215, Control_c, 2, 11, 108
1, 10220, Control_c, 2, 11, 106
1, 10220, Control_c, 7, 11, 124
1, 10222, Control_c, 7, 11, 122
1, 10223, Control_c, 7, 11, 121
1, 10225, Control_c, 7, 11, 119
1, 10226, Control_c, 2, 11, 103
1, 10226, Control_c, 7, 11, 118
1, 10228, Control_c, 7, 11, 116
1, 10230, Control_c, 7, 11, 115
1, 10231, Control_c, 7, 11, 113
1, 10233, Control_c, 7, 11, 112
1, 10234, Control_c, 2, 11, 101
1, 10236, Control_c, 7, 11, 109
1, 10237, Note_on_c, 4, 57, 0
1, 10237, Note_on_c, 3, 67, 56
1, 10237, Note_on_c, 4, 55, 35
1, 10239, Note_on_c, 3, 69, 0
1, 10239, Control_c, 7, 11, 107
1, 10241, Control_c, 7, 11, 105
1, 10242, Control_c, 2, 11, 98
1, 10243, Control_c, 7, 11, 103
1, 10244, Control_c, 7, 11, 101
1, 10246, Control_c, 7, 11, 99
1, 10248, Control_c, 7, 11, 97
1, 10249, Control_c, 7, 11, 95
1, 10251, Note_on_c, 4, 55, 0
1, 10251, Control_c, 2, 11, 96
1, 10251, Note_on_c, 3, 69, 71
1, 10251, Note_on_c, 4, 57, 50
1, 10251, Control_c, 7, 11, 92
1, 10253, Control_c, 7, 11, 90
1, 10254, Note_on_c, 3, 67, 0
1, 10254, Control_c, 7, 11, 88
1, 10255, Control_c, 2, 11, 93
1, 10256, Control_c, 7, 11, 86
1, 10257, Control_c, 7, 11, 84
1, 10259, Control_c, 7, 11, 81
1, 10260, Note_on_c, 7, 60, 0
1, 10260, Control_c, 7, 11, 79
1, 10262, Control_c, 2, 11, 90
1, 10262, Control_c, 7, 11, 76
1, 10264, Control_c, 7, 11, 74
1, 10265, Control_c, 7, 11, 71
1, 10267, Control_c, 7, 11, 69
1, 10269, Control_c, 7, 11, 66
1, 10270, Control_c, 2, 11, 88
1, 10271, Control_c, 7, 11, 64
1, 10272, Control_c, 7, 11, 61
1, 10272, Note_on_c, 9, 42, 95
1, 10273, Note_on_c, 9, 42, 0
1, 10274, Control_c, 7, 11, 58
1, 10275, Control_c, 7, 11, 56
1, 10277, Control_c, 7, 11, 53
1, 10278, Control_c, 2, 11, 85
1, 10279, Control_c, 7, 11, 50
1, 10280, Control_c, 7, 11, 48
1, 10282, Control_c, 7, 11, 45
1, 10284, Note_on_c, 3, 69, 0
1, 10284, Control_c, 7, 11, 42
1, 10285, Control_c, 7, 11, 39
1, 10287, Control_c, 7, 11, 36
1, 10288, Control_c, 7, 11, 33
1, 10290, Control_c, 2, 11, 83
1, 10290, Control_c, 7, 11, 30
1, 10292, Control_c, 7, 11, 25
1, 10293, Control_c, 7, 11, 21
1, 10295, Control_c, 7, 11, 15
1, 10297, Control_c, 7, 11, 8
1, 10298, Control_c, 7, 11, 1
1, 10300, Control_c, 7, 11, 0
1, 10305, Control_c, 2, 11, 80
1, 10317, Control_c, 2, 11, 78
1, 10317, Control_c, 5, 64, 127
1, 10323, Control_c, 7, 11, 1
1, 10324, Control_c, 7, 11, 6
1, 10326, Control_c, 2, 11, 75
1, 10326, Control_c, 7, 11, 13
1, 10328, Control_c, 7, 11, 21
1, 10329, Control_c, 7, 11, 31
1, 10331, Control_c, 7, 11, 42
1, 10332, Control_c, 2, 11, 72
1, 10332, Control_c, 7, 11, 54
1, 10334, Note_on_c, 5, 60, 0
1, 10334, Control_c, 7, 11, 67
1, 10336, Note_on_c, 5, 55, 0
1, 10336, Control_c, 7, 11, 85
1, 10337, Control_c, 7, 11, 117
1, 10338, Note_on_c, 5, 53, 0
1, 10339, Note_on_c, 5, 48, 0
1, 10339, Control_c, 7, 11, 127
1, 10340, Control_c, 2, 11, 70
1, 10342, Note_on_c, 5, 41, 0
1, 10345, Note_on_c, 4, 57, 0
1, 10345, Note_on_c, 3, 60, 74
1, 10345, Note_on_c, 4, 48, 53
1, 10350, Control_c, 2, 11, 67
1, 10357, Control_c, 2, 11, 64
1, 10361, Control_c, 2, 11, 61
1, 10365, Note_on_c, 0, 57, 0
1, 10365, Note_on_c, 0, 60, 0
1, 10365, Note_on_c, 0, 53, 0
1, 10365, Note_on_c, 0, 41, 0
1, 10365, Note_on_c, 0, 48, 0
1, 10365, Note_on_c, 0, 55, 0
1, 10366, Control_c, 2, 11, 58
1, 10367, Note_on_c, 3, 60, 0
1, 10367, Note_on_c, 0, 58, 75
1, 10367, Note_on_c, 0, 63, 87
1, 10367, Note_on_c, 0, 56, 95
1, 10367, Note_on_c, 0, 53, 92
1, 10367, Note_on_c, 0, 41, 81
1, 10368, Note_on_c, 9, 35, 95
1, 10369, Note_on_c, 9, 35, 0
1, 10369, Note_on_c, 5, 53, 88
1, 10369, Note_on_c, 5, 41, 80
1, 10369, Note_on_c, 5, 63, 89
1, 10369, Note_on_c, 5, 56, 87
1, 10369, Note_on_c, 5, 58, 72
1, 10370, Note_on_c, 4, 48, 0
1, 10370, Note_on_c, 3, 72, 92
1, 10370, Note_on_c, 4, 60, 71
1, 10373, Control_c, 2, 11, 55
1, 10376, Control_c, 5, 64, 0
1, 10378, Control_c, 2, 11, 52
1, 10383, Control_c, 2, 11, 50
1, 10386, Control_c, 2, 11, 47
1, 10389, Control_c, 2, 11, 45
1, 10393, Control_c, 2, 11, 42
1, 10396, Control_c, 2, 11, 40
1, 10401, Control_c, 2, 11, 37
1, 10405, Note_on_c, 3, 72, 0
1, 10407, Control_c, 2, 11, 35
1, 10413, Note_on_c, 2, 60, 0
1, 10415, Note_on_c, 4, 60, 0
1, 10415, Control_c, 2, 11, 32
1, 10416, Note_on_c, 3, 72, 88
1, 10416, Note_on_c, 4, 60, 67
1, 10422, Control_c, 2, 11, 29
1, 10427, Control_c, 2, 11, 26
1, 10432, Control_c, 2, 11, 24
1, 10437, Control_c, 2, 11, 21
1, 10438, Note_on_c, 2, 72, 0
1, 10439, Note_on_c, 3, 72, 0
1, 10441, Note_on_c, 4, 60, 0
1, 10441, Note_on_c, 3, 70, 86
1, 10441, Note_on_c, 4, 58, 65
1, 10442, Control_c, 2, 11, 18
1, 10445, Control_c, 2, 11, 15
1, 10446, Control_c, 2, 11, 14
1, 10450, Control_c, 2, 11, 11
1, 10456, Control_c, 2, 11, 9
1, 10458, Control_c, 2, 11, 7
1, 10459, Control_c, 2, 11, 5
1, 10461, Control_c, 2, 11, 2
1, 10464, Note_on_c, 9, 42, 95
1, 10465, Note_on_c, 9, 42, 0
1, 10484, Control_c, 2, 11, 4
1, 10485, Control_c, 2, 11, 7
1, 10487, Control_c, 2, 11, 10
1, 10488, Note_on_c, 4, 58, 0
1, 10488, Note_on_c, 3, 65, 66
1, 10488, Note_on_c, 4, 53, 45
1, 10489, Note_on_c, 3, 70, 0
1, 10489, Control_c, 2, 11, 14
1, 10490, Control_c, 2, 11, 18
1, 10492, Control_c, 2, 11, 22
1, 10494, Control_c, 2, 11, 26
1, 10495, Control_c, 2, 11, 29
1, 10497, Control_c, 2, 11, 33
1, 10498, Control_c, 2, 11, 37
1, 10500, Control_c, 2, 11, 41
1, 10502, Control_c, 2, 11, 46
1, 10503, Control_c, 2, 11, 51
1, 10505, Control_c, 2, 11, 55
1, 10506, Control_c, 2, 11, 60
1, 10508, Note_on_c, 1, 29, 0
1, 10508, Control_c, 2, 11, 65
1, 10510, Control_c, 2, 11, 70
1, 10511, Note_on_c, 5, 53, 0
1, 10511, Control_c, 2, 11, 75
1, 10512, Note_on_c, 3, 65, 0
1, 10512, Note_on_c, 4, 53, 0
1, 10512, Note_on_c, 1, 36, 95
1, 10512, Note_on_c, 3, 67, 77
1, 10512, Note_on_c, 4, 55, 56
1, 10513, Note_on_c, 5, 56, 0
1, 10513, Note_on_c, 5, 58, 0
1, 10513, Control_c, 2, 11, 84
1, 10513, Control_c, 5, 64, 127
1, 10515, Control_c, 2, 11, 95
1, 10516, Control_c, 2, 11, 106
1, 10517, Note_on_c, 5, 63, 0
1, 10518, Control_c, 2, 11, 123
1, 10520, Control_c, 2, 11, 127
1, 10521, Note_on_c, 5, 41, 0
1, 10533, Note_on_c, 3, 67, 0
1, 10536, Note_on_c, 4, 55, 0
1, 10536, Note_on_c, 1, 39, 97
1, 10536, Note_on_c, 3, 69, 54
1, 10536, Note_on_c, 4, 57, 33
1, 10536, Note_on_c, 5, 81, 66
1, 10540, Note_on_c, 1, 36, 0
1, 10543, Note_on_c, 5, 76, 73
1, 10549, Note_on_c, 5, 74, 85
1, 10556, Note_on_c, 5, 72, 77
1, 10557, Note_on_c, 0, 41, 0
1, 10557, Note_on_c, 0, 56, 0
1, 10557, Note_on_c, 0, 58, 0
1, 10557, Note_on_c, 0, 63, 0
1, 10557, Note_on_c, 0, 53, 0
1, 10559, Note_on_c, 0, 55, 80
1, 10559, Note_on_c, 0, 57, 80
1, 10559, Note_on_c, 0, 48, 83
1, 10559, Note_on_c, 0, 53, 78
1, 10559, Note_on_c, 0, 41, 79
1, 10560, Note_on_c, 1, 29, 97
1, 10560, Note_on_c, 9, 35, 95
1, 10561, Note_on_c, 9, 35, 0
1, 10561, Note_on_c, 1, 39, 0
1, 10561, Note_on_c, 0, 60, 83
1, 10562, Note_on_c, 5, 48, 54
1, 10562, Note_on_c, 5, 41, 74
1, 10562, Note_on_c, 5, 69, 88
1, 10566, Control_c, 5, 64, 0
1, 10587, Note_on_c, 3, 69, 0
1, 10656, Note_on_c, 9, 42, 95
1, 10657, Note_on_c, 9, 42, 0
1, 10674, Control_c, 5, 64, 127
1, 10692, Note_on_c, 5, 81, 0
1, 10692, Note_on_c, 5, 76, 0
1, 10697, Note_on_c, 5, 74, 0
1, 10700, Note_on_c, 5, 72, 0
1, 10702, Note_on_c, 5, 69, 0
1, 10703, Note_on_c, 4, 57, 0
1, 10703, Note_on_c, 3, 60, 59
1, 10703, Note_on_c, 4, 48, 38
1, 10708, Note_on_c, 5, 48, 0
1, 10711, Note_on_c, 5, 41, 0
1, 10720, Note_on_c, 3, 60, 0
1, 10721, Note_on_c, 0, 45, 73
1, 10727, Note_on_c, 4, 48, 0
1, 10728, Note_on_c, 3, 60, 66
1, 10728, Note_on_c, 4, 48, 45
1, 10736, Note_on_c, 0, 49, 99
1, 10741, Note_on_c, 0, 57, 0
1, 10741, Note_on_c, 0, 41, 0
1, 10741, Note_on_c, 0, 55, 0
1, 10741, Note_on_c, 0, 48, 0
1, 10741, Note_on_c, 0, 53, 0
1, 10741, Note_on_c, 0, 60, 0
1, 10747, Note_on_c, 3, 60, 0
1, 10751, Note_on_c, 4, 48, 0
1, 10751, Note_on_c, 1, 29, 0
1, 10751, Note_on_c, 0, 60, 106
1, 10751, Note_on_c, 0, 65, 106
1, 10751, Note_on_c, 0, 55, 95
1, 10751, Note_on_c, 3, 69, 76
1, 10751, Note_on_c, 4, 57, 55
1, 10751, Control_c, 5, 64, 0
1, 10751, Note_on_c, 5, 55, 97
1, 10751, Note_on_c, 5, 61, 87
1, 10751, Note_on_c, 5, 65, 90
1, 10751, Note_on_c, 5, 45, 79
1, 10752, Note_on_c, 1, 33, 100
1, 10752, Note_on_c, 9, 35, 94
1, 10753, Note_on_c, 9, 35, 0
1, 10776, Note_on_c, 4, 57, 0
1, 10776, Note_on_c, 3, 70, 86
1, 10776, Note_on_c, 4, 58, 65
1, 10777, Note_on_c, 3, 69, 0
1, 10799, Note_on_c, 4, 58, 0
1, 10799, Note_on_c, 3, 72, 91
1, 10799, Note_on_c, 4, 60, 70
1, 10802, Note_on_c, 3, 70, 0
1, 10823, Note_on_c, 4, 60, 0
1, 10823, Note_on_c, 3, 74, 86
1, 10823, Note_on_c, 4, 62, 65
1, 10834, Note_on_c, 3, 72, 0
1, 10844, Note_on_c, 1, 48, 75
1, 10845, Note_on_c, 0, 55, 0
1, 10846, Note_on_c, 0, 60, 0
1, 10847, Note_on_c, 1, 33, 0
1, 10847, Note_on_c, 0, 58, 87
1, 10847, Note_on_c, 0, 53, 102
1, 10848, Note_on_c, 1, 49, 79
1, 10848, Note_on_c, 9, 42, 94
1, 10849, Note_on_c, 9, 42, 0
1, 10856, Note_on_c, 1, 48, 0
1, 10892, Note_on_c, 0, 45, 0
1, 10894, Note_on_c, 3, 74, 0
1, 10895, Note_on_c, 1, 49, 0
1, 10896, Note_on_c, 1, 21, 92
1, 10897, Note_on_c, 4, 62, 0
1, 10897, Note_on_c, 3, 72, 85
1, 10897, Note_on_c, 4, 60, 64
1, 10901, Control_c, 5, 64, 127
1, 10909, Note_on_c, 5, 55, 0
1, 10910, Note_on_c, 5, 65, 0
1, 10911, Note_on_c, 5, 45, 0
1, 10914, Note_on_c, 5, 61, 0
1, 10920, Note_on_c, 1, 24, 98
1, 10924, Note_on_c, 1, 21, 0
1, 10942, Note_on_c, 0, 49, 0
1, 10942, Note_on_c, 0, 65, 0
1, 10942, Note_on_c, 0, 53, 0
1, 10942, Note_on_c, 0, 58, 0
1, 10943, Note_on_c, 1, 24, 0
1, 10943, Note_on_c, 0, 65, 73
1, 10943, Note_on_c, 0, 64, 80
1, 10943, Note_on_c, 0, 57, 81
1, 10943, Note_on_c, 0, 50, 77
1, 10943, Note_on_c, 0, 60, 86
1, 10943, Note_on_c, 5, 60, 79
1, 10943, Note_on_c, 5, 65, 70
1, 10943, Note_on_c, 5, 57, 73
1, 10943, Note_on_c, 5, 64, 78
1, 10944, Note_on_c, 1, 26, 104
1, 10944, Note_on_c, 9, 35, 96
1, 10945, Note_on_c, 9, 35, 0
1, 10945, Control_c, 5, 64, 0
1, 10945, Note_on_c, 5, 50, 68
1, 10959, Note_on_c, 3, 72, 0
1, 10961, Note_on_c, 4, 60, 0
1, 10961, Note_on_c, 3, 70, 90
1, 10961, Note_on_c, 4, 58, 69
1, 10990, Note_on_c, 3, 70, 0
1, 10992, Note_on_c, 4, 58, 0
1, 10992, Note_on_c, 3, 69, 70
1, 10992, Note_on_c, 4, 57, 49
1, 11015, Control_c, 5, 64, 127
1, 11024, Note_on_c, 5, 57, 0
1, 11027, Note_on_c, 5, 60, 0
1, 11030, Note_on_c, 5, 64, 0
1, 11033, Note_on_c, 5, 65, 0
1, 11040, Note_on_c, 9, 42, 96
1, 11041, Note_on_c, 9, 42, 0
1, 11043, Note_on_c, 5, 50, 0
1, 11052, Note_on_c, 3, 69, 0
1, 11063, Note_on_c, 4, 57, 0
1, 11063, Note_on_c, 3, 65, 89
1, 11063, Note_on_c, 4, 53, 68
1, 11065, Note_on_c, 5, 74, 95
1, 11089, Note_on_c, 5, 77, 86
1, 11089, Note_on_c, 5, 81, 106
1, 11092, Note_on_c, 3, 65, 0
1, 11099, Note_on_c, 4, 53, 0
1, 11099, Note_on_c, 3, 67, 78
1, 11099, Note_on_c, 4, 55, 57
1, 11116, Note_on_c, 5, 77, 0
1, 11118, Note_on_c, 5, 81, 0
1, 11123, Note_on_c, 5, 74, 0
1, 11127, Note_on_c, 3, 67, 0
1, 11134, Note_on_c, 0, 57, 0
1, 11134, Note_on_c, 0, 65, 0
1, 11134, Control_c, 5, 64, 0
1, 11135, Note_on_c, 4, 55, 0
1, 11135, Note_on_c, 0, 57, 92
1, 11135, Note_on_c, 0, 62, 91
1, 11135, Note_on_c, 0, 53, 80
1, 11135, Note_on_c, 0, 46, 71
1, 11135, Note_on_c, 0, 58, 87
1, 11135, Note_on_c, 0, 65, 86
1, 11135, Note_on_c, 5, 69, 100
1, 11135, Note_on_c, 5, 53, 88
1, 11135, Note_on_c, 5, 74, 86
1, 11135, Note_on_c, 5, 77, 79
1, 11135, Note_on_c, 5, 46, 81
1, 11136, Note_on_c, 1, 26, 0
1, 11136, Note_on_c, 1, 34, 107
1, 11136, Note_on_c, 3, 67, 59
1, 11136, Note_on_c, 4, 55, 38
1, 11136, Note_on_c, 9, 35, 96
1, 11137, Note_on_c, 9, 35, 0
1, 11137, Note_on_c, 0, 50, 0
1, 11137, Note_on_c, 0, 64, 0
1, 11137, Note_on_c, 0, 60, 0
1, 11160, Note_on_c, 3, 67, 0
1, 11207, Note_on_c, 0, 69, 108
1, 11232, Note_on_c, 9, 42, 96
1, 11233, Note_on_c, 9, 42, 0
1, 11235, Control_c, 5, 64, 127
1, 11239, Note_on_c, 5, 46, 0
1, 11241, Note_on_c, 5, 53, 0
1, 11243, Note_on_c, 5, 74, 0
1, 11244, Note_on_c, 5, 77, 0
1, 11247, Note_on_c, 5, 69, 0
1, 11279, Note_on_c, 4, 55, 0
1, 11279, Note_on_c, 3, 65, 90
1, 11279, Note_on_c, 4, 53, 69
1, 11280, Note_on_c, 0, 65, 0
1, 11281, Note_on_c, 0, 65, 88
1, 11296, Note_on_c, 1, 34, 0
1, 11303, Note_on_c, 4, 53, 0
1, 11303, Note_on_c, 3, 67, 72
1, 11303, Note_on_c, 4, 55, 51
1, 11304, Note_on_c, 3, 65, 0
1, 11304, Note_on_c, 1, 34, 97
1, 11321, Note_on_c, 3, 67, 0
1, 11325, Control_c, 5, 64, 0
1, 11327, Note_on_c, 5, 58, 81
1, 11327, Note_on_c, 5, 62, 86
1, 11327, Note_on_c, 5, 65, 80
1, 11328, Note_on_c, 0, 65, 0
1, 11328, Note_on_c, 0, 46, 0
1, 11328, Note_on_c, 0, 58, 0
1, 11328, Note_on_c, 4, 55, 0
1, 11328, Note_on_c, 0, 62, 0
1, 11328, Note_on_c, 1, 27, 84
1, 11328, Note_on_c, 3, 69, 77
1, 11328, Note_on_c, 4, 57, 56
1, 11328, Note_on_c, 9, 35, 97
1, 11329, Note_on_c, 9, 35, 0
1, 11329, Note_on_c, 0, 65, 86
1, 11329, Note_on_c, 0, 55, 85
1, 11329, Note_on_c, 0, 46, 81
1, 11329, Note_on_c, 0, 39, 78
1, 11329, Note_on_c, 0, 58, 81
1, 11329, Note_on_c, 0, 62, 87
1, 11329, Note_on_c, 5, 51, 82
1, 11330, Note_on_c, 0, 69, 0
1, 11330, Note_on_c, 1, 34, 0
1, 11330, Note_on_c, 0, 57, 0
1, 11330, Note_on_c, 0, 53, 0
1, 11372, Note_on_c, 3, 69, 0
1, 11377, Note_on_c, 4, 57, 0
1, 11377, Note_on_c, 3, 67, 86
1, 11377, Note_on_c, 4, 55, 65
1, 11392, Note_on_c, 3, 67, 0
1, 11400, Note_on_c, 4, 55, 0
1, 11401, Note_on_c, 3, 67, 93
1, 11401, Note_on_c, 4, 55, 72
1, 11424, Note_on_c, 9, 42, 97
1, 11425, Note_on_c, 9, 42, 0
1, 11426, Pitch_bend_c, 3, 7021
1, 11426, Pitch_bend_c, 4, 7021
1, 11428, Pitch_bend_c, 3, 3628
1, 11428, Pitch_bend_c, 4, 3628
1, 11429, Pitch_bend_c, 3, 352
1, 11429, Pitch_bend_c, 4, 352
1, 11431, Pitch_bend_c, 3, 0
1, 11431, Pitch_bend_c, 4, 0
1, 11436, Control_c, 5, 64, 127
1, 11450, Note_on_c, 0, 65, 0
1, 11450, Note_on_c, 0, 62, 0
1, 11450, Note_on_c, 0, 58, 0
1, 11452, Note_on_c, 5, 58, 0
1, 11455, Note_on_c, 3, 67, 0
1, 11456, Note_on_c, 5, 62, 0
1, 11457, Note_on_c, 5, 65, 0
1, 11458, Note_on_c, 5, 51, 0
1, 11464, Pitch_bend_c, 3, 352
1, 11464, Pitch_bend_c, 4, 352
1, 11466, Pitch_bend_c, 3, 3394
1, 11466, Pitch_bend_c, 4, 3394
1, 11468, Pitch_bend_c, 3, 8192
1, 11468, Pitch_bend_c, 4, 8192
1, 11470, Note_on_c, 4, 55, 0
1, 11471, Note_on_c, 3, 67, 91
1, 11471, Note_on_c, 4, 55, 70
1, 11484, Note_on_c, 0, 53, 66
1, 11486, Note_on_c, 1, 27, 0
1, 11489, Note_on_c, 3, 67, 0
1, 11495, Note_on_c, 0, 55, 0
1, 11495, Note_on_c, 4, 55, 0
1, 11495, Note_on_c, 3, 69, 67
1, 11495, Note_on_c, 4, 57, 46
1, 11496, Note_on_c, 0, 55, 73
1, 11496, Note_on_c, 1, 22, 74
1, 11507, Note_on_c, 0, 58, 95
1, 11508, Note_on_c, 1, 23, 80
1, 11513, Control_c, 5, 64, 0
1, 11515, Note_on_c, 1, 22, 0
1, 11516, Note_on_c, 0, 58, 0
1, 11516, Note_on_c, 0, 39, 0
1, 11516, Note_on_c, 0, 46, 0
1, 11516, Note_on_c, 0, 53, 0
1, 11516, Note_on_c, 0, 55, 0
1, 11518, Note_on_c, 0, 55, 110
1, 11518, Note_on_c, 0, 48, 95
1, 11518, Note_on_c, 0, 36, 90
1, 11519, Note_on_c, 5, 58, 81
1, 11519, Note_on_c, 5, 62, 97
1, 11520, Note_on_c, 0, 53, 108
1, 11520, Note_on_c, 1, 24, 95
1, 11520, Note_on_c, 9, 35, 96
1, 11521, Note_on_c, 9, 35, 0
1, 11521, Note_on_c, 0, 60, 100
1, 11521, Note_on_c, 5, 48, 76
1, 11522, Note_on_c, 0, 58, 60
1, 11523, Note_on_c, 1, 23, 0
1, 11535, Note_on_c, 3, 69, 0
1, 11543, Note_on_c, 4, 57, 0
1, 11543, Note_on_c, 3, 65, 85
1, 11543, Note_on_c, 4, 53, 64
1, 11560, Note_on_c, 3, 65, 0
1, 11566, Note_on_c, 4, 53, 0
1, 11567, Note_on_c, 3, 65, 95
1, 11567, Note_on_c, 4, 53, 74
1, 11581, Control_c, 5, 64, 127
1, 11589, Note_on_c, 3, 65, 0
1, 11591, Note_on_c, 4, 53, 0
1, 11591, Note_on_c, 0, 64, 89
1, 11591, Note_on_c, 3, 62, 79
1, 11591, Note_on_c, 4, 50, 58
1, 11604, Note_on_c, 5, 58, 0
1, 11608, Note_on_c, 5, 62, 0
1, 11610, Note_on_c, 3, 62, 0
1, 11612, Note_on_c, 0, 48, 0
1, 11612, Note_on_c, 0, 53, 0
1, 11612, Note_on_c, 0, 64, 0
1, 11612, Note_on_c, 0, 36, 0
1, 11612, Control_c, 5, 64, 0
1, 11615, Note_on_c, 0, 36, 100
1, 11616, Note_on_c, 5, 60, 77
1, 11616, Note_on_c, 5, 55, 79
1, 11616, Note_on_c, 9, 42, 96
1, 11617, Note_on_c, 9, 42, 0
1, 11617, Note_on_c, 0, 64, 95
1, 11638, Note_on_c, 1, 24, 0
1, 11640, Note_on_c, 4, 50, 0
1, 11640, Note_on_c, 1, 36, 97
1, 11640, Note_on_c, 3, 72, 83
1, 11640, Note_on_c, 4, 60, 62
1, 11661, Note_on_c, 3, 72, 0
1, 11662, Note_on_c, 0, 36, 0
1, 11663, Note_on_c, 4, 60, 0
1, 11663, Note_on_c, 0, 36, 97
1, 11663, Note_on_c, 0, 48, 90
1, 11663, Note_on_c, 3, 69, 70
1, 11663, Note_on_c, 4, 57, 49
1, 11664, Note_on_c, 1, 36, 0
1, 11664, Note_on_c, 1, 31, 92
1, 11677, Note_on_c, 3, 69, 0
1, 11685, Note_on_c, 1, 31, 0
1, 11688, Note_on_c, 5, 55, 0
1, 11688, Note_on_c, 4, 57, 0
1, 11688, Note_on_c, 1, 24, 100
1, 11688, Note_on_c, 3, 72, 85
1, 11688, Note_on_c, 4, 60, 64
1, 11689, Note_on_c, 5, 60, 0
1, 11699, Note_on_c, 5, 48, 0
1, 11709, Note_on_c, 1, 24, 0
1, 11709, Note_on_c, 0, 55, 0
1, 11710, Note_on_c, 0, 36, 0
1, 11710, Note_on_c, 0, 48, 0
1, 11712, Note_on_c, 0, 64, 0
1, 11712, Note_on_c, 0, 60, 0
1, 11712, Note_on_c, 4, 60, 0
1, 11712, Note_on_c, 0, 41, 60
1, 11712, Note_on_c, 0, 48, 78
1, 11712, Note_on_c, 1, 29, 106
1, 11712, Note_on_c, 3, 69, 71
1, 11712, Note_on_c, 4, 57, 50
1, 11712, Note_on_c, 5, 57, 69
1, 11712, Note_on_c, 5, 60, 68
1, 11712, Note_on_c, 5, 55, 63
1, 11712, Note_on_c, 5, 62, 64
1, 11712, Note_on_c, 9, 35, 95
1, 11713, Note_on_c, 9, 35, 0
1, 11713, Note_on_c, 0, 58, 0
1, 11713, Note_on_c, 0, 57, 84
1, 11713, Note_on_c, 0, 55, 68
1, 11713, Note_on_c, 0, 60, 94
1, 11713, Note_on_c, 0, 65, 80
1, 11715, Note_on_c, 3, 72, 0
1, 11729, Note_on_c, 4, 57, 0
1, 11729, Note_on_c, 3, 67, 61
1, 11729, Note_on_c, 4, 55, 40
1, 11733, Note_on_c, 3, 69, 0
1, 11745, Note_on_c, 3, 67, 0
1, 11746, Note_on_c, 4, 55, 0
1, 11746, Note_on_c, 3, 69, 54
1, 11746, Note_on_c, 4, 57, 33
1, 11785, Note_on_c, 5, 81, 56
1, 11793, Note_on_c, 3, 69, 0
1, 11794, Note_on_c, 5, 84, 58
1, 11799, Note_on_c, 5, 88, 59
1, 11806, Note_on_c, 0, 55, 0
1, 11806, Note_on_c, 5, 93, 61
1, 11807, Note_on_c, 0, 55, 67
1, 11808, Note_on_c, 9, 42, 95
1, 11809, Note_on_c, 9, 42, 0
1, 11830, Note_on_c, 0, 60, 0
1, 11831, Note_on_c, 0, 60, 110
1, 11831, Note_on_c, 6, 60, 64
1, 11831, Note_on_c, 6, 48, 64
1, 11832, Note_on_c, 6, 64, 65
1, 11832, Control_c, 6, 1, 0
1, 11832, Control_c, 6, 11, 54
1, 11832, Pitch_bend_c, 6, 8192
1, 11834, Control_c, 6, 11, 56
1, 11836, Control_c, 6, 11, 57
1, 11838, Control_c, 6, 11, 59
1, 11839, Control_c, 6, 11, 60
1, 11841, Control_c, 6, 11, 62
1, 11842, Control_c, 6, 11, 63
1, 11844, Control_c, 6, 11, 65
1, 11846, Control_c, 6, 11, 67
1, 11847, Control_c, 6, 11, 68
1, 11850, Control_c, 6, 11, 71
1, 11852, Control_c, 6, 11, 72
1, 11853, Control_c, 6, 11, 74
1, 11854, Note_on_c, 6, 48, 0
1, 11854, Note_on_c, 6, 60, 0
1, 11855, Note_on_c, 6, 64, 0
1, 11855, Note_on_c, 0, 62, 122
1, 11855, Note_on_c, 6, 50, 67
1, 11855, Note_on_c, 6, 62, 67
1, 11855, Note_on_c, 6, 65, 67
1, 11855, Control_c, 6, 11, 75
1, 11857, Control_c, 6, 11, 77
1, 11860, Control_c, 6, 11, 79
1, 11862, Control_c, 6, 11, 81
1, 11863, Control_c, 6, 11, 82
1, 11865, Control_c, 6, 11, 84
1, 11866, Control_c, 6, 11, 86
1, 11868, Control_c, 6, 11, 87
1, 11870, Control_c, 6, 11, 89
1, 11871, Control_c, 6, 11, 91
1, 11873, Control_c, 6, 11, 93
1, 11876, Control_c, 6, 11, 95
1, 11877, Note_on_c, 5, 84, 0
1, 11877, Control_c, 6, 11, 97
1, 11878, Note_on_c, 6, 65, 0
1, 11878, Note_on_c, 6, 50, 0
1, 11878, Note_on_c, 6, 62, 0
1, 11879, Note_on_c, 5, 57, 0
1, 11879, Note_on_c, 5, 55, 0
1, 11879, Note_on_c, 5, 60, 0
1, 11879, Note_on_c, 5, 62, 0
1, 11879, Note_on_c, 0, 64, 104
1, 11879, Note_on_c, 6, 67, 70
1, 11879, Note_on_c, 6, 64, 70
1, 11879, Note_on_c, 6, 52, 70
1, 11880, Note_on_c, 5, 81, 0
1, 11880, Note_on_c, 5, 87, 67
1, 11881, Note_on_c, 4, 57, 0
1, 11881, Note_on_c, 3, 60, 62
1, 11881, Note_on_c, 4, 48, 41
1, 11882, Note_on_c, 5, 88, 0
1, 11882, Control_c, 6, 11, 100
1, 11884, Control_c, 6, 11, 101
1, 11888, Note_on_c, 5, 82, 63
1, 11889, Note_on_c, 5, 93, 0
1, 11889, Control_c, 6, 11, 104
1, 11892, Note_on_c, 5, 80, 59
1, 11894, Control_c, 6, 11, 106
1, 11896, Note_on_c, 5, 77, 59
1, 11899, Note_on_c, 5, 75, 58
1, 11899, Control_c, 6, 11, 109
1, 11902, Note_on_c, 0, 65, 0
1, 11902, Note_on_c, 0, 41, 0
1, 11903, Note_on_c, 6, 52, 0
1, 11903, Note_on_c, 4, 48, 0
1, 11903, Note_on_c, 3, 60, 0
1, 11903, Note_on_c, 6, 67, 0
1, 11903, Note_on_c, 6, 64, 0
1, 11903, Note_on_c, 0, 41, 72
1, 11903, Note_on_c, 0, 51, 61
1, 11903, Note_on_c, 0, 56, 91
1, 11903, Note_on_c, 0, 63, 87
1, 11903, Note_on_c, 0, 65, 95
1, 11903, Note_on_c, 0, 58, 87
1, 11903, Note_on_c, 3, 72, 82
1, 11903, Note_on_c, 4, 60, 61
1, 11903, Note_on_c, 6, 53, 66
1, 11903, Note_on_c, 6, 68, 66
1, 11903, Note_on_c, 6, 65, 66
1, 11904, Note_on_c, 0, 60, 0
1, 11904, Note_on_c, 1, 29, 0
1, 11904, Note_on_c, 0, 48, 0
1, 11904, Note_on_c, 0, 55, 0
1, 11904, Note_on_c, 0, 57, 0
1, 11904, Note_on_c, 0, 64, 0
1, 11904, Note_on_c, 0, 62, 0
1, 11904, Note_on_c, 1, 41, 98
1, 11904, Note_on_c, 9, 35, 95
1, 11905, Note_on_c, 9, 35, 0
1, 11905, Control_c, 6, 11, 111
1, 11917, Note_on_c, 5, 70, 67
1, 11926, Note_on_c, 5, 68, 67
1, 11931, Control_c, 6, 11, 109
1, 11932, Control_c, 6, 11, 107
1, 11936, Note_on_c, 5, 65, 65
1, 11936, Control_c, 6, 11, 105
1, 11939, Note_on_c, 5, 80, 0
1, 11939, Control_c, 6, 11, 102
1, 11943, Note_on_c, 5, 77, 0
1, 11944, Control_c, 6, 11, 99
1, 11945, Control_c, 6, 11, 98
1, 11946, Note_on_c, 3, 72, 0
1, 11947, Note_on_c, 5, 82, 0
1, 11950, Control_c, 6, 11, 95
1, 11952, Note_on_c, 4, 60, 0
1, 11953, Note_on_c, 3, 72, 81
1, 11953, Note_on_c, 4, 60, 60
1, 11955, Control_c, 6, 11, 93
1, 11959, Control_c, 6, 11, 90
1, 11963, Note_on_c, 5, 87, 0
1, 11966, Control_c, 6, 11, 87
1, 11974, Control_c, 6, 11, 84
1, 11978, Note_on_c, 4, 60, 0
1, 11978, Note_on_c, 3, 72, 0
1, 11978, Note_on_c, 3, 70, 72
1, 11978, Note_on_c, 4, 58, 51
1, 11980, Control_c, 6, 11, 82
1, 11990, Control_c, 6, 11, 79
1, 11998, Control_c, 6, 11, 77
1, 12000, Note_on_c, 9, 42, 95
1, 12001, Note_on_c, 9, 42, 0
1, 12004, Control_c, 6, 11, 74
1, 12011, Control_c, 6, 11, 72
1, 12016, Control_c, 6, 11, 69
1, 12021, Control_c, 6, 11, 66
1, 12024, Control_c, 6, 11, 64
1, 12025, Note_on_c, 0, 67, 104
1, 12028, Note_on_c, 4, 58, 0
1, 12028, Note_on_c, 3, 70, 0
1, 12028, Note_on_c, 3, 65, 64
1, 12028, Note_on_c, 4, 53, 43
1, 12029, Control_c, 6, 11, 61
1, 12033, Control_c, 6, 11, 58
1, 12034, Note_on_c, 6, 68, 0
1, 12034, Note_on_c, 6, 53, 0
1, 12034, Note_on_c, 6, 65, 0
1, 12035, Note_on_c, 1, 41, 0
1, 12038, Control_c, 6, 11, 56
1, 12043, Control_c, 6, 11, 53
1, 12048, Note_on_c, 3, 65, 0
1, 12048, Note_on_c, 1, 41, 100
1, 12048, Control_c, 6, 11, 50
1, 12051, Note_on_c, 4, 53, 0
1, 12051, Note_on_c, 3, 67, 74
1, 12051, Note_on_c, 4, 55, 53
1, 12053, Control_c, 6, 11, 47
1, 12054, Note_on_c, 5, 75, 0
1, 12054, Control_c, 6, 11, 45
1, 12055, Note_on_c, 5, 65, 0
1, 12057, Note_on_c, 5, 68, 0
1, 12059, Control_c, 6, 11, 42
1, 12060, Note_on_c, 5, 70, 0
1, 12060, Control_c, 6, 11, 40
1, 12062, Control_c, 6, 11, 39
1, 12064, Control_c, 6, 11, 37
1, 12071, Note_on_c, 0, 69, 81
1, 12072, Note_on_c, 3, 67, 0
1, 12074, Control_c, 6, 11, 40
1, 12075, Note_on_c, 4, 55, 0
1, 12075, Note_on_c, 3, 69, 82
1, 12075, Note_on_c, 4, 57, 61
1, 12075, Control_c, 6, 11, 45
1, 12077, Control_c, 6, 11, 51
1, 12078, Control_c, 6, 11, 56
1, 12080, Control_c, 6, 11, 62
1, 12082, Control_c, 6, 11, 68
1, 12083, Control_c, 6, 11, 74
1, 12085, Control_c, 6, 11, 84
1, 12087, Control_c, 6, 11, 97
1, 12088, Note_on_c, 1, 41, 0
1, 12088, Control_c, 6, 11, 111
1, 12090, Control_c, 6, 11, 127
1, 12094, Note_on_c, 0, 41, 0
1, 12095, Note_on_c, 0, 67, 0
1, 12095, Note_on_c, 0, 63, 0
1, 12095, Note_on_c, 0, 51, 0
1, 12095, Note_on_c, 0, 56, 0
1, 12095, Note_on_c, 0, 58, 0
1, 12095, Note_on_c, 0, 65, 0
1, 12095, Note_on_c, 0, 60, 80
1, 12095, Note_on_c, 0, 41, 72
1, 12095, Note_on_c, 0, 48, 69
1, 12096, Note_on_c, 0, 65, 79
1, 12096, Note_on_c, 1, 29, 102
1, 12096, Note_on_c, 9, 35, 95
1, 12097, Note_on_c, 9, 35, 0
1, 12097, Note_on_c, 0, 55, 60
1, 12097, Note_on_c, 0, 57, 72
1, 12097, Note_on_c, 5, 60, 66
1, 12097, Note_on_c, 5, 55, 66
1, 12097, Note_on_c, 5, 41, 66
1, 12097, Note_on_c, 5, 53, 66
1, 12098, Note_on_c, 5, 48, 66
1, 12112, Note_on_c, 3, 69, 0
1, 12120, Note_on_c, 0, 60, 0
1, 12121, Note_on_c, 0, 60, 65
1, 12142, Note_on_c, 0, 57, 0
1, 12143, Note_on_c, 0, 57, 60
1, 12166, Note_on_c, 0, 41, 0
1, 12167, Note_on_c, 0, 41, 57
1, 12168, Control_c, 5, 64, 127
1, 12185, Note_on_c, 5, 55, 0
1, 12186, Note_on_c, 5, 41, 0
1, 12186, Note_on_c, 5, 53, 0
1, 12189, Note_on_c, 5, 60, 0
1, 12190, Note_on_c, 5, 48, 0
1, 12192, Note_on_c, 9, 42, 95
1, 12193, Note_on_c, 9, 42, 0
1, 12210, Control_c, 5, 64, 0
1, 12212, Note_on_c, 0, 60, 0
1, 12212, Note_on_c, 0, 48, 0
1, 12212, Note_on_c, 0, 69, 0
1, 12212, Note_on_c, 0, 41, 0
1, 12212, Note_on_c, 0, 57, 0
1, 12212, Note_on_c, 0, 55, 0
1, 12212, Note_on_c, 0, 65, 0
1, 12215, Note_on_c, 4, 57, 0
1, 12215, Note_on_c, 1, 29, 0
1, 12215, Note_on_c, 3, 77, 99
1, 12215, Note_on_c, 4, 65, 78
1, 12219, Note_on_c, 6, 70, 56
1, 12220, Note_on_c, 1, 31, 106
1, 12220, Note_on_c, 2, 67, 81
1, 12220, Note_on_c, 2, 70, 81
1, 12220, Note_on_c, 6, 65, 56
1, 12220, Note_on_c, 6, 55, 56
1, 12221, Note_on_c, 0, 62, 114
1, 12221, Note_on_c, 0, 58, 99
1, 12221, Note_on_c, 0, 43, 102
1, 12221, Note_on_c, 0, 53, 104
1, 12221, Note_on_c, 5, 43, 86
1, 12221, Note_on_c, 5, 58, 79
1, 12221, Note_on_c, 5, 62, 90
1, 12221, Note_on_c, 5, 53, 86
1, 12243, Note_on_c, 5, 43, 0
1, 12244, Note_on_c, 2, 70, 0
1, 12245, Note_on_c, 2, 67, 0
1, 12246, Note_on_c, 5, 53, 0
1, 12248, Note_on_c, 5, 58, 0
1, 12249, Note_on_c, 5, 62, 0
1, 12252, Note_on_c, 6, 65, 0
1, 12252, Note_on_c, 6, 55, 0
1, 12253, Note_on_c, 1, 31, 0
1, 12254, Note_on_c, 0, 54, 101
1, 12254, Note_on_c, 1, 32, 116
1, 12255, Note_on_c, 0, 62, 0
1, 12255, Note_on_c, 0, 58, 0
1, 12255, Note_on_c, 0, 43, 0
1, 12255, Note_on_c, 0, 53, 0
1, 12255, Note_on_c, 0, 59, 110
1, 12255, Note_on_c, 0, 63, 93
1, 12255, Note_on_c, 0, 44, 87
1, 12255, Note_on_c, 2, 71, 85
1, 12255, Note_on_c, 2, 68, 85
1, 12255, Note_on_c, 5, 54, 85
1, 12255, Note_on_c, 5, 44, 84
1, 12255, Note_on_c, 5, 59, 77
1, 12255, Note_on_c, 6, 56, 59
1, 12255, Note_on_c, 6, 71, 59
1, 12256, Note_on_c, 5, 63, 87
1, 12256, Note_on_c, 6, 66, 59
1, 12266, Note_on_c, 6, 70, 0
1, 12279, Note_on_c, 5, 63, 0
1, 12279, Note_on_c, 5, 54, 0
1, 12279, Note_on_c, 5, 44, 0
1, 12280, Note_on_c, 5, 59, 0
1, 12286, Note_on_c, 2, 68, 0
1, 12286, Note_on_c, 2, 71, 0
1, 12286, Note_on_c, 3, 77, 0
1, 12287, Note_on_c, 6, 66, 0
1, 12288, Note_on_c, 6, 71, 0
1, 12288, Note_on_c, 1, 33, 114
1, 12288, Note_on_c, 6, 72, 62
1, 12288, Note_on_c, 9, 35, 95
1, 12289, Note_on_c, 9, 35, 0
1, 12289, Note_on_c, 4, 65, 0
1, 12289, Note_on_c, 1, 32, 0
1, 12289, Note_on_c, 0, 60, 84
1, 12289, Note_on_c, 0, 49, 77
1, 12289, Note_on_c, 0, 55, 98
1, 12289, Note_on_c, 0, 65, 88
1, 12289, Note_on_c, 2, 69, 89
1, 12289, Note_on_c, 2, 72, 89
1, 12289, Note_on_c, 3, 76, 94
1, 12289, Note_on_c, 4, 64, 73
1, 12289, Note_on_c, 5, 60, 73
1, 12289, Note_on_c, 5, 55, 85
1, 12289, Note_on_c, 5, 45, 86
1, 12289, Note_on_c, 5, 65, 85
1, 12289, Note_on_c, 6, 67, 62
1, 12289, Note_on_c, 6, 57, 62
1, 12290, Note_on_c, 6, 56, 0
1, 12290, Note_on_c, 0, 45, 88
1, 12291, Note_on_c, 0, 63, 0
1, 12291, Note_on_c, 0, 59, 0
1, 12291, Note_on_c, 0, 44, 0
1, 12291, Note_on_c, 0, 54, 0
1, 12319, Note_on_c, 4, 64, 0
1, 12319, Note_on_c, 3, 74, 78
1, 12319, Note_on_c, 4, 62, 57
1, 12320, Note_on_c, 3, 76, 0
1, 12348, Note_on_c, 4, 62, 0
1, 12348, Note_on_c, 3, 72, 72
1, 12348, Note_on_c, 4, 60, 51
1, 12350, Note_on_c, 3, 74, 0
1, 12371, Note_on_c, 4, 60, 0
1, 12371, Note_on_c, 3, 72, 0
1, 12371, Note_on_c, 3, 69, 86
1, 12371, Note_on_c, 4, 57, 65
1, 12378, Note_on_c, 6, 67, 0
1, 12381, Note_on_c, 0, 55, 0
1, 12382, Note_on_c, 6, 72, 0
1, 12383, Note_on_c, 0, 53, 81
1, 12383, Note_on_c, 0, 58, 68
1, 12384, Note_on_c, 3, 69, 0
1, 12384, Note_on_c, 2, 72, 0
1, 12384, Note_on_c, 2, 69, 0
1, 12384, Note_on_c, 9, 42, 95
1, 12385, Note_on_c, 9, 42, 0
1, 12385, Note_on_c, 4, 57, 0
1, 12385, Note_on_c, 2, 76, 82
1, 12385, Note_on_c, 3, 74, 80
1, 12385, Note_on_c, 4, 62, 59
1, 12385, Note_on_c, 6, 67, 62
1, 12385, Note_on_c, 6, 76, 62
1, 12396, Note_on_c, 6, 57, 0
1, 12400, Note_on_c, 2, 77, 82
1, 12403, Note_on_c, 2, 76, 0
1, 12413, Note_on_c, 1, 48, 70
1, 12414, Note_on_c, 1, 33, 0
1, 12417, Note_on_c, 6, 65, 65
1, 12418, Note_on_c, 6, 67, 0
1, 12418, Note_on_c, 2, 76, 81
1, 12418, Note_on_c, 6, 74, 65
1, 12419, Note_on_c, 1, 49, 80
1, 12420, Note_on_c, 6, 76, 0
1, 12424, Note_on_c, 1, 48, 0
1, 12424, Control_c, 5, 64, 127
1, 12427, Note_on_c, 2, 77, 0
1, 12433, Note_on_c, 2, 74, 80
1, 12433, Note_on_c, 6, 72, 66
1, 12433, Note_on_c, 6, 64, 66
1, 12435, Note_on_c, 2, 76, 0
1, 12438, Note_on_c, 6, 65, 0
1, 12440, Note_on_c, 6, 74, 0
1, 12442, Note_on_c, 3, 74, 0
1, 12444, Note_on_c, 4, 62, 0
1, 12444, Note_on_c, 3, 69, 76
1, 12444, Note_on_c, 4, 57, 55
1, 12445, Note_on_c, 5, 65, 0
1, 12447, Note_on_c, 5, 45, 0
1, 12447, Note_on_c, 2, 65, 78
1, 12449, Note_on_c, 6, 62, 67
1, 12449, Note_on_c, 6, 71, 67
1, 12453, Note_on_c, 2, 74, 0
1, 12453, Note_on_c, 6, 72, 0
1, 12453, Note_on_c, 5, 55, 0
1, 12453, Note_on_c, 5, 60, 0
1, 12454, Note_on_c, 6, 64, 0
1, 12454, Note_on_c, 1, 49, 0
1, 12456, Note_on_c, 1, 21, 90
1, 12464, Note_on_c, 2, 65, 0
1, 12464, Note_on_c, 2, 67, 77
1, 12466, Note_on_c, 6, 64, 67
1, 12467, Note_on_c, 6, 69, 67
1, 12468, Note_on_c, 1, 24, 100
1, 12470, Note_on_c, 1, 21, 0
1, 12471, Note_on_c, 6, 71, 0
1, 12472, Note_on_c, 6, 62, 0
1, 12477, Note_on_c, 0, 53, 0
1, 12477, Note_on_c, 0, 45, 0
1, 12477, Note_on_c, 0, 65, 0
1, 12477, Note_on_c, 0, 49, 0
1, 12477, Note_on_c, 0, 60, 0
1, 12477, Note_on_c, 0, 58, 0
1, 12478, Note_on_c, 6, 69, 0
1, 12479, Note_on_c, 4, 57, 0
1, 12479, Note_on_c, 3, 69, 0
1, 12479, Note_on_c, 2, 67, 0
1, 12479, Note_on_c, 0, 60, 67
1, 12479, Note_on_c, 0, 64, 68
1, 12479, Note_on_c, 0, 57, 65
1, 12479, Note_on_c, 0, 50, 69
1, 12479, Note_on_c, 0, 65, 61
1, 12479, Note_on_c, 3, 67, 72
1, 12479, Note_on_c, 4, 55, 51
1, 12480, Note_on_c, 1, 26, 112
1, 12480, Note_on_c, 9, 35, 95
1, 12481, Note_on_c, 9, 35, 0
1, 12481, Note_on_c, 2, 69, 67
1, 12481, Note_on_c, 5, 62, 66
1, 12481, Note_on_c, 5, 57, 58
1, 12481, Note_on_c, 5, 50, 66
1, 12481, Note_on_c, 5, 65, 59
1, 12482, Note_on_c, 2, 62, 68
1, 12482, Note_on_c, 2, 65, 68
1, 12482, Note_on_c, 6, 65, 57
1, 12482, Note_on_c, 6, 69, 58
1, 12483, Note_on_c, 1, 24, 0
1, 12484, Note_on_c, 6, 64, 0
1, 12488, Control_c, 5, 64, 0
1, 12503, Note_on_c, 4, 55, 0
1, 12503, Note_on_c, 3, 65, 67
1, 12503, Note_on_c, 4, 53, 46
1, 12507, Note_on_c, 3, 67, 0
1, 12530, Note_on_c, 3, 65, 0
1, 12537, Control_c, 5, 64, 127
1, 12560, Note_on_c, 5, 57, 0
1, 12567, Note_on_c, 5, 62, 0
1, 12567, Note_on_c, 5, 50, 0
1, 12572, Note_on_c, 5, 65, 0
1, 12576, Note_on_c, 9, 42, 93
1, 12577, Note_on_c, 9, 42, 0
1, 12607, Note_on_c, 5, 76, 76
1, 12622, Note_on_c, 4, 53, 0
1, 12622, Note_on_c, 3, 50, 1
1, 12622, Note_on_c, 4, 50, 1
1, 12637, Note_on_c, 5, 76, 0
1, 12638, Note_on_c, 3, 50, 0
1, 12639, Note_on_c, 5, 74, 72
1, 12645, Note_on_c, 4, 50, 0
1, 12646, Note_on_c, 3, 50, 1
1, 12646, Note_on_c, 4, 50, 1
1, 12664, Note_on_c, 3, 50, 0
1, 12669, Note_on_c, 2, 62, 0
1, 12669, Note_on_c, 0, 60, 0
1, 12669, Note_on_c, 2, 69, 0
1, 12669, Note_on_c, 0, 57, 0
1, 12669, Note_on_c, 0, 64, 0
1, 12669, Note_on_c, 0, 65, 0
1, 12669, Note_on_c, 0, 50, 0
1, 12670, Note_on_c, 2, 65, 0
1, 12670, Note_on_c, 4, 50, 0
1, 12671, Note_on_c, 5, 74, 0
1, 12671, Note_on_c, 1, 26, 0
1, 12671, Note_on_c, 0, 57, 80
1, 12671, Note_on_c, 0, 46, 67
1, 12671, Note_on_c, 0, 65, 85
1, 12671, Note_on_c, 0, 58, 75
1, 12671, Note_on_c, 0, 62, 87
1, 12671, Note_on_c, 0, 53, 78
1, 12671, Note_on_c, 3, 50, 1
1, 12671, Note_on_c, 4, 50, 1
1, 12672, Note_on_c, 1, 34, 105
1, 12672, Note_on_c, 9, 35, 94
1, 12673, Note_on_c, 9, 35, 0
1, 12673, Note_on_c, 6, 65, 0
1, 12673, Note_on_c, 6, 69, 0
1, 12673, Note_on_c, 5, 65, 67
1, 12673, Note_on_c, 5, 72, 77
1, 12673, Note_on_c, 5, 57, 74
1, 12674, Note_on_c, 2, 62, 55
1, 12674, Note_on_c, 2, 60, 47
1, 12674, Note_on_c, 5, 46, 72
1, 12674, Note_on_c, 6, 60, 33
1, 12674, Note_on_c, 6, 72, 42
1, 12683, Control_c, 5, 64, 0
1, 12697, Note_on_c, 3, 50, 0
1, 12768, Note_on_c, 4, 50, 0
1, 12768, Note_on_c, 9, 42, 94
1, 12769, Note_on_c, 9, 42, 0
1, 12816, Note_on_c, 3, 65, 71
1, 12816, Note_on_c, 4, 53, 50
1, 12816, Control_c, 5, 64, 127
1, 12830, Note_on_c, 5, 57, 0
1, 12832, Note_on_c, 5, 46, 0
1, 12840, Note_on_c, 4, 53, 0
1, 12840, Note_on_c, 3, 65, 0
1, 12840, Note_on_c, 3, 67, 78
1, 12840, Note_on_c, 4, 55, 57
1, 12841, Note_on_c, 5, 72, 0
1, 12842, Note_on_c, 5, 65, 0
1, 12856, Control_c, 6, 11, 126
1, 12859, Note_on_c, 2, 62, 0
1, 12859, Note_on_c, 2, 60, 0
1, 12861, Note_on_c, 1, 34, 0
1, 12862, Note_on_c, 0, 57, 0
1, 12862, Note_on_c, 0, 65, 0
1, 12862, Note_on_c, 0, 53, 0
1, 12862, Note_on_c, 0, 58, 0
1, 12862, Note_on_c, 0, 62, 0
1, 12862, Note_on_c, 0, 46, 0
1, 12863, Note_on_c, 0, 55, 92
1, 12863, Note_on_c, 0, 58, 78
1, 12863, Note_on_c, 0, 62, 87
1, 12863, Note_on_c, 0, 65, 77
1, 12863, Note_on_c, 0, 48, 77
1, 12864, Note_on_c, 4, 55, 0
1, 12864, Note_on_c, 3, 67, 0
1, 12864, Note_on_c, 1, 36, 110
1, 12864, Note_on_c, 3, 69, 78
1, 12864, Note_on_c, 4, 57, 57
1, 12864, Note_on_c, 9, 35, 92
1, 12865, Note_on_c, 9, 35, 0
1, 12865, Note_on_c, 5, 48, 68
1, 12865, Note_on_c, 5, 72, 69
1, 12865, Note_on_c, 5, 62, 70
1, 12865, Note_on_c, 5, 58, 53
1, 12866, Note_on_c, 2, 65, 48
1, 12868, Note_on_c, 2, 62, 48
1, 12868, Control_c, 6, 11, 124
1, 12869, Control_c, 5, 64, 0
1, 12875, Control_c, 6, 11, 121
1, 12881, Control_c, 6, 11, 118
1, 12886, Control_c, 6, 11, 116
1, 12893, Control_c, 6, 11, 113
1, 12901, Control_c, 6, 11, 111
1, 12909, Control_c, 6, 11, 108
1, 12912, Note_on_c, 4, 57, 0
1, 12912, Note_on_c, 3, 69, 0
1, 12912, Note_on_c, 3, 67, 64
1, 12912, Note_on_c, 4, 55, 43
1, 12915, Control_c, 6, 11, 106
1, 12922, Control_c, 6, 11, 103
1, 12926, Control_c, 6, 11, 101
1, 12933, Note_on_c, 3, 67, 0
1, 12933, Control_c, 6, 11, 98
1, 12935, Note_on_c, 4, 55, 0
1, 12936, Note_on_c, 3, 67, 81
1, 12936, Note_on_c, 4, 55, 60
1, 12939, Control_c, 6, 11, 95
1, 12944, Control_c, 6, 11, 93
1, 12950, Control_c, 6, 11, 90
1, 12958, Control_c, 6, 11, 87
1, 12960, Note_on_c, 9, 42, 98
1, 12961, Note_on_c, 9, 42, 0
1, 12963, Pitch_bend_c, 3, 6904
1, 12963, Pitch_bend_c, 4, 6904
1, 12964, Pitch_bend_c, 3, 4681
1, 12964, Pitch_bend_c, 4, 4681
1, 12966, Pitch_bend_c, 3, 2458
1, 12966, Pitch_bend_c, 4, 2458
1, 12967, Control_c, 6, 11, 85
1, 12968, Pitch_bend_c, 3, 0
1, 12968, Pitch_bend_c, 4, 0
1, 12973, Control_c, 6, 11, 82
1, 12979, Control_c, 6, 11, 79
1, 12984, Note_on_c, 3, 67, 0
1, 12984, Control_c, 6, 11, 77
1, 12990, Control_c, 6, 11, 74
1, 12998, Pitch_bend_c, 3, 118
1, 12998, Pitch_bend_c, 4, 118
1, 13000, Pitch_bend_c, 3, 3394
1, 13000, Pitch_bend_c, 4, 3394
1, 13000, Control_c, 6, 11, 72
1, 13001, Pitch_bend_c, 3, 8192
1, 13001, Pitch_bend_c, 4, 8192
1, 13007, Note_on_c, 4, 55, 0
1, 13008, Note_on_c, 3, 67, 65
1, 13008, Note_on_c, 4, 55, 44
1, 13013, Control_c, 6, 11, 69
1, 13021, Control_c, 6, 11, 67
1, 13032, Note_on_c, 4, 55, 0
1, 13032, Note_on_c, 3, 67, 0
1, 13032, Note_on_c, 3, 69, 82
1, 13032, Note_on_c, 4, 57, 61
1, 13034, Control_c, 6, 11, 64
1, 13050, Control_c, 6, 11, 62
1, 13054, Note_on_c, 0, 55, 0
1, 13054, Note_on_c, 0, 65, 0
1, 13054, Note_on_c, 0, 58, 0
1, 13054, Note_on_c, 0, 62, 0
1, 13055, Note_on_c, 1, 36, 0
1, 13055, Note_on_c, 5, 62, 0
1, 13055, Note_on_c, 0, 55, 76
1, 13055, Note_on_c, 0, 60, 78
1, 13055, Note_on_c, 0, 64, 80
1, 13055, Note_on_c, 0, 58, 67
1, 13056, Note_on_c, 1, 24, 112
1, 13056, Note_on_c, 9, 35, 98
1, 13057, Note_on_c, 9, 35, 0
1, 13057, Note_on_c, 2, 65, 0
1, 13057, Note_on_c, 2, 64, 46
1, 13057, Note_on_c, 2, 60, 46
1, 13057, Note_on_c, 5, 67, 64
1, 13057, Note_on_c, 5, 64, 65
1, 13059, Note_on_c, 2, 62, 0
1, 13064, Control_c, 6, 11, 59
1, 13074, Control_c, 6, 11, 56
1, 13080, Note_on_c, 4, 57, 0
1, 13080, Note_on_c, 3, 69, 0
1, 13080, Note_on_c, 3, 72, 75
1, 13080, Note_on_c, 4, 60, 54
1, 13082, Note_on_c, 0, 55, 0
1, 13082, Note_on_c, 0, 58, 0
1, 13082, Control_c, 6, 11, 54
1, 13088, Control_c, 6, 11, 51
1, 13097, Control_c, 6, 11, 49
1, 13104, Note_on_c, 4, 60, 0
1, 13104, Note_on_c, 3, 72, 0
1, 13104, Note_on_c, 3, 74, 71
1, 13104, Note_on_c, 4, 62, 50
1, 13105, Control_c, 6, 11, 46
1, 13111, Control_c, 6, 11, 44
1, 13121, Control_c, 6, 11, 41
1, 13127, Control_c, 6, 11, 38
1, 13132, Control_c, 6, 11, 35
1, 13133, Control_c, 6, 11, 34
1, 13138, Control_c, 6, 11, 31
1, 13140, Tempo, 952381
1, 13141, Control_c, 6, 11, 28
1, 13145, Control_c, 6, 11, 26
1, 13146, Control_c, 6, 11, 24
1, 13150, Control_c, 6, 11, 22
1, 13151, Control_c, 6, 11, 20
1, 13152, Note_on_c, 1, 24, 0
1, 13152, Note_on_c, 0, 64, 0
1, 13152, Note_on_c, 0, 48, 0
1, 13152, Note_on_c, 0, 60, 0
1, 13152, Note_on_c, 1, 36, 112
1, 13152, Note_on_c, 9, 47, 98
1, 13153, Note_on_c, 9, 47, 0
1, 13153, Note_on_c, 0, 58, 89
1, 13153, Note_on_c, 0, 48, 90
1, 13153, Note_on_c, 0, 64, 98
1, 13153, Note_on_c, 0, 72, 104
1, 13153, Control_c, 6, 11, 19
1, 13154, Control_c, 6, 11, 17
1, 13156, Control_c, 6, 11, 15
1, 13158, Control_c, 6, 11, 14
1, 13159, Control_c, 6, 11, 12
1, 13161, Control_c, 6, 11, 11
1, 13162, Control_c, 6, 11, 9
1, 13164, Control_c, 6, 11, 7
1, 13165, Control_c, 6, 11, 5
1, 13167, Control_c, 6, 11, 2
1, 13169, Control_c, 6, 11, 1
1, 13171, Note_on_c, 6, 60, 0
1, 13172, Note_on_c, 6, 72, 0
1, 13195, Control_c, 6, 11, 4
1, 13196, Control_c, 6, 11, 9
1, 13198, Control_c, 6, 11, 15
1, 13199, Control_c, 6, 11, 21
1, 13200, Note_on_c, 3, 74, 0
1, 13200, Note_on_c, 9, 45, 93
1, 13201, Note_on_c, 9, 45, 0
1, 13201, Control_c, 6, 11, 27
1, 13203, Control_c, 6, 11, 34
1, 13204, Control_c, 6, 11, 42
1, 13206, Control_c, 6, 11, 51
1, 13207, Control_c, 6, 11, 60
1, 13209, Control_c, 6, 11, 69
1, 13210, Control_c, 6, 11, 80
1, 13212, Control_c, 6, 11, 93
1, 13214, Control_c, 6, 11, 106
1, 13215, Control_c, 6, 11, 122
1, 13217, Control_c, 6, 11, 127
1, 13226, Note_on_c, 0, 48, 0
1, 13226, Note_on_c, 0, 72, 0
1, 13226, Note_on_c, 0, 58, 0
1, 13226, Note_on_c, 0, 64, 0
1, 13229, Note_on_c, 5, 48, 0
1, 13229, Note_on_c, 5, 58, 0
1, 13233, Note_on_c, 5, 64, 0
1, 13235, Note_on_c, 5, 67, 0
1, 13237, Note_on_c, 5, 72, 0
1, 13247, Note_on_c, 4, 62, 0
1, 13247, Note_on_c, 1, 36, 0
1, 13247, Note_on_c, 3, 53, 93
1, 13247, Note_on_c, 4, 53, 72
1, 13248, Note_on_c, 2, 64, 0
1, 13248, Note_on_c, 2, 60, 0
1, 13248, Note_on_c, 1, 34, 123
1, 13248, Note_on_c, 9, 35, 113
1, 13248, Note_on_c, 9, 42, 70
1, 13249, Note_on_c, 9, 42, 0
1, 13249, Note_on_c, 9, 35, 0
1, 13249, Note_on_c, 0, 65, 81
1, 13249, Note_on_c, 0, 58, 79
1, 13249, Note_on_c, 0, 62, 85
1, 13250, Note_on_c, 0, 57, 83
1, 13250, Note_on_c, 0, 46, 84
1, 13250, Note_on_c, 5, 74, 66
1, 13250, Note_on_c, 5, 69, 64
1, 13250, Note_on_c, 5, 77, 62
1, 13264, Note_on_c, 1, 34, 0
1, 13271, Note_on_c, 3, 53, 0
1, 13271, Note_on_c, 12, 48, 49
1, 13272, Note_on_c, 1, 34, 116
1, 13272, Note_on_c, 9, 42, 36
1, 13273, Note_on_c, 9, 42, 0
1, 13277, Note_on_c, 12, 48, 0
1, 13293, Note_on_c, 1, 34, 0
1, 13295, Note_on_c, 4, 53, 0
1, 13295, Note_on_c, 12, 50, 53
1, 13296, Note_on_c, 3, 53, 95
1, 13296, Note_on_c, 4, 53, 74
1, 13296, Note_on_c, 9, 42, 49
1, 13297, Note_on_c, 9, 42, 0
1, 13301, Note_on_c, 12, 50, 0
1, 13318, Note_on_c, 3, 53, 0
1, 13319, Note_on_c, 12, 53, 57
1, 13320, Note_on_c, 9, 42, 34
1, 13321, Note_on_c, 9, 42, 0
1, 13326, Note_on_c, 12, 53, 0
1, 13342, Note_on_c, 4, 53, 0
1, 13343, Note_on_c, 3, 53, 95
1, 13343, Note_on_c, 4, 53, 74
1, 13344, Note_on_c, 9, 42, 98
1, 13344, Note_on_c, 9, 37, 115
1, 13345, Note_on_c, 9, 37, 0
1, 13345, Note_on_c, 9, 42, 0
1, 13367, Note_on_c, 12, 48, 51
1, 13368, Note_on_c, 3, 53, 0
1, 13368, Note_on_c, 9, 42, 40
1, 13369, Note_on_c, 9, 42, 0
1, 13369, Note_on_c, 4, 53, 0
1, 13369, Note_on_c, 3, 48, 71
1, 13369, Note_on_c, 4, 48, 50
1, 13374, Note_on_c, 12, 48, 0
1, 13390, Note_on_c, 3, 48, 0
1, 13392, Note_on_c, 9, 42, 41
1, 13393, Note_on_c, 9, 42, 0
1, 13393, Note_on_c, 4, 48, 0
1, 13393, Note_on_c, 3, 50, 97
1, 13393, Note_on_c, 4, 50, 76
1, 13393, Note_on_c, 12, 50, 32
1, 13396, Note_on_c, 12, 50, 0
1, 13410, Note_on_c, 3, 50, 0
1, 13416, Note_on_c, 4, 50, 0
1, 13416, Note_on_c, 3, 53, 95
1, 13416, Note_on_c, 4, 53, 74
1, 13416, Note_on_c, 9, 35, 65
1, 13416, Note_on_c, 9, 42, 49
1, 13417, Note_on_c, 9, 42, 0
1, 13417, Note_on_c, 9, 35, 0
1, 13425, Note_on_c, 0, 65, 0
1, 13428, Note_on_c, 0, 58, 0
1, 13428, Note_on_c, 0, 62, 0
1, 13429, Note_on_c, 5, 74, 0
1, 13430, Note_on_c, 5, 69, 0
1, 13430, Note_on_c, 0, 57, 0
1, 13433, Note_on_c, 0, 46, 0
1, 13435, Note_on_c, 5, 77, 0
1, 13439, Note_on_c, 0, 57, 90
1, 13439, Note_on_c, 0, 65, 88
1, 13439, Note_on_c, 0, 60, 88
1, 13439, Note_on_c, 5, 69, 66
1, 13439, Note_on_c, 5, 72, 80
1, 13439, Note_on_c, 5, 77, 68
1, 13440, Note_on_c, 0, 45, 91
1, 13440, Note_on_c, 1, 33, 108
1, 13440, Note_on_c, 9, 35, 100
1, 13440, Note_on_c, 9, 42, 92
1, 13441, Note_on_c, 9, 42, 0
1, 13441, Note_on_c, 9, 35, 0
1, 13457, Note_on_c, 1, 33, 0
1, 13463, Note_on_c, 3, 53, 0
1, 13464, Note_on_c, 4, 53, 0
1, 13464, Note_on_c, 1, 33, 106
1, 13464, Note_on_c, 3, 55, 95
1, 13464, Note_on_c, 4, 55, 74
1, 13464, Note_on_c, 9, 42, 46
1, 13464, Note_on_c, 12, 48, 55
1, 13465, Note_on_c, 9, 42, 0
1, 13469, Note_on_c, 12, 48, 0
1, 13487, Note_on_c, 3, 55, 0
1, 13488, Note_on_c, 1, 33, 0
1, 13488, Note_on_c, 4, 55, 0
1, 13488, Note_on_c, 3, 57, 86
1, 13488, Note_on_c, 4, 57, 65
1, 13488, Note_on_c, 9, 42, 58
1, 13488, Note_on_c, 12, 50, 51
1, 13489, Note_on_c, 9, 42, 0
1, 13492, Note_on_c, 12, 50, 0
1, 13508, Note_on_c, 3, 57, 0
1, 13511, Note_on_c, 4, 57, 0
1, 13512, Note_on_c, 3, 57, 78
1, 13512, Note_on_c, 4, 57, 57
1, 13512, Note_on_c, 9, 42, 46
1, 13512, Note_on_c, 12, 53, 45
1, 13513, Note_on_c, 9, 42, 0
1, 13515, Note_on_c, 12, 53, 0
1, 13521, Note_on_c, 5, 69, 0
1, 13527, Note_on_c, 0, 65, 0
1, 13528, Note_on_c, 0, 57, 0
1, 13529, Note_on_c, 0, 60, 0
1, 13534, Note_on_c, 0, 45, 0
1, 13535, Note_on_c, 0, 50, 86
1, 13535, Note_on_c, 0, 62, 88
1, 13535, Note_on_c, 0, 57, 90
1, 13535, Note_on_c, 0, 60, 81
1, 13535, Note_on_c, 0, 65, 80
1, 13536, Note_on_c, 5, 72, 0
1, 13536, Note_on_c, 3, 57, 0
1, 13536, Note_on_c, 1, 38, 104
1, 13536, Note_on_c, 5, 74, 71
1, 13536, Note_on_c, 5, 65, 70
1, 13536, Note_on_c, 9, 42, 95
1, 13536, Note_on_c, 9, 37, 115
1, 13537, Note_on_c, 9, 37, 0
1, 13537, Note_on_c, 5, 77, 0
1, 13537, Note_on_c, 9, 42, 0
1, 13537, Note_on_c, 5, 69, 64
1, 13554, Note_on_c, 1, 38, 0
1, 13559, Note_on_c, 12, 48, 55
1, 13560, Note_on_c, 1, 38, 101
1, 13560, Note_on_c, 9, 42, 44
1, 13561, Note_on_c, 9, 42, 0
1, 13566, Note_on_c, 12, 48, 0
1, 13583, Note_on_c, 4, 57, 0
1, 13584, Note_on_c, 9, 42, 60
1, 13584, Note_on_c, 12, 50, 52
1, 13585, Note_on_c, 9, 42, 0
1, 13589, Note_on_c, 12, 50, 0
1, 13590, Note_on_c, 1, 38, 0
1, 13608, Note_on_c, 4, 48, 44
1, 13608, Note_on_c, 9, 42, 66
1, 13609, Note_on_c, 9, 42, 0
1, 13623, Note_on_c, 0, 60, 0
1, 13623, Note_on_c, 0, 57, 0
1, 13625, Note_on_c, 0, 62, 0
1, 13625, Note_on_c, 5, 74, 0
1, 13625, Note_on_c, 0, 65, 0
1, 13627, Note_on_c, 5, 69, 0
1, 13627, Note_on_c, 5, 65, 0
1, 13631, Note_on_c, 4, 48, 0
1, 13631, Note_on_c, 0, 50, 0
1, 13631, Note_on_c, 0, 62, 74
1, 13631, Note_on_c, 0, 43, 92
1, 13631, Note_on_c, 0, 58, 82
1, 13631, Note_on_c, 3, 53, 105
1, 13631, Note_on_c, 4, 53, 84
1, 13631, Note_on_c, 5, 74, 62
1, 13631, Note_on_c, 5, 67, 70
1, 13632, Note_on_c, 0, 65, 78
1, 13632, Note_on_c, 0, 55, 88
1, 13632, Note_on_c, 1, 31, 110
1, 13632, Note_on_c, 5, 70, 74
1, 13632, Note_on_c, 9, 42, 92
1, 13632, Note_on_c, 9, 35, 115
1, 13633, Note_on_c, 9, 35, 0
1, 13633, Note_on_c, 9, 42, 0
1, 13649, Note_on_c, 1, 31, 0
1, 13655, Note_on_c, 3, 53, 0
1, 13655, Note_on_c, 12, 48, 52
1, 13656, Note_on_c, 4, 53, 0
1, 13656, Note_on_c, 1, 31, 106
1, 13656, Note_on_c, 3, 50, 82
1, 13656, Note_on_c, 4, 50, 61
1, 13656, Note_on_c, 9, 42, 50
1, 13657, Note_on_c, 9, 42, 0
1, 13660, Note_on_c, 12, 48, 0
1, 13676, Note_on_c, 3, 50, 0
1, 13680, Note_on_c, 1, 31, 0
1, 13680, Note_on_c, 4, 50, 0
1, 13680, Note_on_c, 3, 53, 91
1, 13680, Note_on_c, 4, 53, 70
1, 13680, Note_on_c, 9, 42, 58
1, 13680, Note_on_c, 12, 50, 52
1, 13681, Note_on_c, 9, 42, 0
1, 13685, Note_on_c, 12, 50, 0
1, 13703, Note_on_c, 4, 53, 0
1, 13703, Note_on_c, 3, 50, 79
1, 13703, Note_on_c, 4, 50, 58
1, 13704, Note_on_c, 3, 53, 0
1, 13704, Note_on_c, 9, 42, 52
1, 13704, Note_on_c, 12, 53, 56
1, 13705, Note_on_c, 9, 42, 0
1, 13709, Note_on_c, 12, 53, 0
1, 13725, Note_on_c, 3, 50, 0
1, 13728, Note_on_c, 9, 42, 89
1, 13728, Note_on_c, 9, 37, 111
1, 13729, Note_on_c, 9, 37, 0
1, 13729, Note_on_c, 9, 42, 0
1, 13729, Note_on_c, 4, 50, 0
1, 13729, Note_on_c, 3, 53, 88
1, 13729, Note_on_c, 4, 53, 67
1, 13752, Note_on_c, 9, 42, 47
1, 13752, Note_on_c, 12, 48, 55
1, 13753, Note_on_c, 9, 42, 0
1, 13758, Note_on_c, 12, 48, 0
1, 13765, Note_on_c, 3, 53, 0
1, 13776, Note_on_c, 9, 42, 59
1, 13776, Note_on_c, 12, 50, 58
1, 13777, Note_on_c, 9, 42, 0
1, 13777, Note_on_c, 4, 53, 0
1, 13777, Note_on_c, 3, 50, 75
1, 13777, Note_on_c, 4, 50, 54
1, 13782, Note_on_c, 12, 50, 0
1, 13790, Note_on_c, 3, 50, 0
1, 13800, Note_on_c, 4, 50, 0
1, 13800, Note_on_c, 9, 35, 66
1, 13800, Note_on_c, 9, 42, 58
1, 13801, Note_on_c, 9, 42, 0
1, 13801, Note_on_c, 9, 35, 0
1, 13801, Note_on_c, 3, 50, 97
1, 13801, Note_on_c, 4, 50, 76
1, 13801, Note_on_c, 12, 53, 52
1, 13806, Note_on_c, 12, 53, 0
1, 13811, Note_on_c, 0, 55, 0
1, 13817, Note_on_c, 0, 58, 0
1, 13818, Note_on_c, 5, 70, 0
1, 13819, Note_on_c, 5, 67, 0
1, 13819, Note_on_c, 5, 74, 0
1, 13822, Note_on_c, 0, 62, 0
1, 13822, Note_on_c, 0, 43, 0
1, 13823, Note_on_c, 0, 65, 0
1, 13823, Note_on_c, 0, 57, 80
1, 13823, Note_on_c, 0, 41, 88
1, 13823, Note_on_c, 0, 53, 83
1, 13823, Note_on_c, 0, 60, 86
1, 13823, Note_on_c, 0, 55, 85
1, 13823, Note_on_c, 5, 65, 69
1, 13823, Note_on_c, 5, 69, 66
1, 13823, Note_on_c, 5, 72, 70
1, 13824, Note_on_c, 1, 29, 120
1, 13824, Note_on_c, 9, 35, 100
1, 13824, Note_on_c, 9, 42, 92
1, 13825, Note_on_c, 9, 42, 0
1, 13825, Note_on_c, 9, 35, 0
1, 13828, Pitch_bend_c, 3, 6787
1, 13828, Pitch_bend_c, 4, 6787
1, 13829, Pitch_bend_c, 3, 4096
1, 13829, Pitch_bend_c, 4, 4096
1, 13831, Pitch_bend_c, 3, 1054
1, 13831, Pitch_bend_c, 4, 1054
1, 13833, Pitch_bend_c, 3, 0
1, 13833, Pitch_bend_c, 4, 0
1, 13842, Note_on_c, 1, 29, 0
1, 13847, Note_on_c, 8, 71, 84
1, 13847, Note_on_c, 12, 48, 40
1, 13848, Note_on_c, 1, 29, 122
1, 13848, Note_on_c, 7, 71, 93
1, 13848, Note_on_c, 9, 42, 38
1, 13848, Note_on_c, 13, 71, 83
1, 13849, Note_on_c, 9, 42, 0
1, 13849, Pitch_bend_c, 8, 9011
1, 13849, Control_c, 13, 1, 0
1, 13849, Pitch_bend_c, 13, 8192
1, 13850, Pitch_bend_c, 7, 9011
1, 13850, Pitch_bend_c, 8, 9713
1, 13850, Pitch_bend_c, 13, 9011
1, 13851, Pitch_bend_c, 7, 9713
1, 13851, Pitch_bend_c, 13, 9713
1, 13852, Pitch_bend_c, 8, 10415
1, 13853, Pitch_bend_c, 7, 10415
1, 13853, Pitch_bend_c, 8, 11692
1, 13853, Pitch_bend_c, 13, 10415
1, 13854, Pitch_bend_c, 7, 11692
1, 13854, Pitch_bend_c, 13, 11692
1, 13855, Note_on_c, 12, 48, 0
1, 13858, Note_on_c, 3, 50, 0
1, 13861, Pitch_bend_c, 8, 12192
1, 13862, Pitch_bend_c, 7, 12192
1, 13862, Pitch_bend_c, 13, 12192
1, 13869, Pitch_bend_c, 8, 12288
1, 13870, Note_on_c, 8, 71, 0
1, 13870, Pitch_bend_c, 7, 12288
1, 13870, Pitch_bend_c, 13, 12288
1, 13871, Note_on_c, 13, 71, 0
1, 13871, Note_on_c, 7, 71, 0
1, 13871, Pitch_bend_c, 8, 10532
1, 13871, Note_on_c, 12, 50, 52
1, 13872, Pitch_bend_c, 7, 10532
1, 13872, Note_on_c, 9, 42, 53
1, 13872, Pitch_bend_c, 13, 10532
1, 13873, Note_on_c, 9, 42, 0
1, 13873, Note_on_c, 1, 29, 0
1, 13873, Pitch_bend_c, 8, 9713
1, 13874, Pitch_bend_c, 7, 9713
1, 13874, Pitch_bend_c, 8, 8192
1, 13874, Pitch_bend_c, 13, 9713
1, 13875, Pitch_bend_c, 7, 8192
1, 13875, Pitch_bend_c, 13, 8192
1, 13878, Note_on_c, 12, 50, 0
1, 13879, Pitch_bend_c, 3, 703
1, 13879, Pitch_bend_c, 4, 703
1, 13881, Pitch_bend_c, 3, 8192
1, 13881, Pitch_bend_c, 4, 8192
1, 13895, Note_on_c, 8, 69, 81
1, 13896, Note_on_c, 7, 69, 93
1, 13896, Note_on_c, 9, 42, 63
1, 13896, Note_on_c, 13, 69, 83
1, 13897, Note_on_c, 9, 42, 0
1, 13911, Note_on_c, 5, 69, 0
1, 13912, Note_on_c, 5, 65, 0
1, 13912, Note_on_c, 0, 57, 0
1, 13918, Note_on_c, 0, 41, 0
1, 13918, Note_on_c, 0, 53, 0
1, 13918, Note_on_c, 8, 69, 0
1, 13918, Note_on_c, 0, 55, 0
1, 13918, Note_on_c, 5, 72, 0
1, 13918, Note_on_c, 0, 60, 0
1, 13919, Note_on_c, 13, 69, 0
1, 13919, Note_on_c, 7, 69, 0
1, 13919, Note_on_c, 0, 61, 99
1, 13919, Note_on_c, 0, 57, 97
1, 13919, Note_on_c, 0, 47, 106
1, 13919, Note_on_c, 5, 73, 81
1, 13919, Note_on_c, 5, 65, 88
1, 13919, Note_on_c, 5, 69, 84
1, 13920, Note_on_c, 0, 65, 100
1, 13920, Note_on_c, 1, 35, 118
1, 13920, Note_on_c, 9, 46, 63
1, 13921, Note_on_c, 9, 46, 0
1, 13943, Note_on_c, 8, 62, 75
1, 13944, Note_on_c, 7, 62, 92
1, 13944, Note_on_c, 12, 48, 44
1, 13944, Note_on_c, 13, 62, 82
1, 13948, Note_on_c, 12, 48, 0
1, 13966, Note_on_c, 8, 62, 0
1, 13967, Note_on_c, 7, 62, 0
1, 13967, Note_on_c, 13, 62, 0
1, 13967, Note_on_c, 12, 50, 54
1, 13968, Note_on_c, 4, 50, 0
1, 13971, Note_on_c, 12, 50, 0
1, 13991, Note_on_c, 8, 65, 71
1, 13991, Note_on_c, 12, 53, 56
1, 13992, Note_on_c, 7, 65, 90
1, 13992, Note_on_c, 13, 65, 80
1, 13996, Note_on_c, 12, 53, 0
1, 14004, Tempo, 937500
1, 14007, Note_on_c, 5, 65, 0
1, 14009, Note_on_c, 0, 65, 0
1, 14011, Note_on_c, 5, 69, 0
1, 14012, Note_on_c, 5, 73, 0
1, 14012, Note_on_c, 0, 61, 0
1, 14012, Note_on_c, 0, 57, 0
1, 14015, Note_on_c, 1, 35, 0
1, 14015, Note_on_c, 3, 53, 111
1, 14015, Note_on_c, 4, 53, 90
1, 14016, Note_on_c, 0, 47, 0
1, 14016, Note_on_c, 1, 34, 108
1, 14016, Note_on_c, 5, 69, 75
1, 14016, Note_on_c, 9, 42, 81
1, 14016, Note_on_c, 9, 35, 100
1, 14017, Note_on_c, 9, 35, 0
1, 14017, Note_on_c, 9, 42, 0
1, 14017, Note_on_c, 0, 57, 85
1, 14017, Note_on_c, 0, 46, 97
1, 14017, Note_on_c, 0, 58, 84
1, 14017, Note_on_c, 0, 62, 92
1, 14017, Note_on_c, 0, 65, 80
1, 14017, Note_on_c, 5, 77, 81
1, 14017, Note_on_c, 5, 74, 79
1, 14032, Note_on_c, 1, 34, 0
1, 14035, Note_on_c, 3, 53, 0
1, 14040, Note_on_c, 1, 34, 110
1, 14040, Note_on_c, 9, 42, 51
1, 14041, Note_on_c, 9, 42, 0
1, 14041, Note_on_c, 12, 48, 51
1, 14046, Note_on_c, 12, 48, 0
1, 14061, Note_on_c, 1, 34, 0
1, 14062, Note_on_c, 4, 53, 0
1, 14063, Note_on_c, 3, 53, 101
1, 14063, Note_on_c, 4, 53, 80
1, 14063, Note_on_c, 12, 50, 58
1, 14064, Note_on_c, 9, 42, 46
1, 14065, Note_on_c, 9, 42, 0
1, 14069, Note_on_c, 12, 50, 0
1, 14085, Note_on_c, 3, 53, 0
1, 14087, Note_on_c, 12, 53, 58
1, 14088, Note_on_c, 9, 42, 49
1, 14089, Note_on_c, 9, 42, 0
1, 14094, Note_on_c, 12, 53, 0
1, 14111, Note_on_c, 4, 53, 0
1, 14112, Note_on_c, 3, 53, 99
1, 14112, Note_on_c, 4, 53, 78
1, 14112, Note_on_c, 9, 42, 95
1, 14112, Note_on_c, 9, 37, 115
1, 14113, Note_on_c, 9, 37, 0
1, 14113, Note_on_c, 9, 42, 0
1, 14133, Note_on_c, 3, 53, 0
1, 14135, Note_on_c, 12, 48, 54
1, 14136, Note_on_c, 9, 42, 46
1, 14137, Note_on_c, 9, 42, 0
1, 14137, Note_on_c, 4, 53, 0
1, 14137, Note_on_c, 3, 48, 85
1, 14137, Note_on_c, 4, 48, 64
1, 14141, Note_on_c, 12, 48, 0
1, 14156, Note_on_c, 3, 48, 0
1, 14159, Note_on_c, 12, 50, 52
1, 14160, Note_on_c, 4, 48, 0
1, 14160, Note_on_c, 3, 50, 99
1, 14160, Note_on_c, 4, 50, 78
1, 14160, Note_on_c, 9, 42, 67
1, 14161, Note_on_c, 9, 42, 0
1, 14164, Note_on_c, 12, 50, 0
1, 14177, Note_on_c, 3, 50, 0
1, 14183, Note_on_c, 4, 50, 0
1, 14183, Note_on_c, 3, 53, 95
1, 14183, Note_on_c, 4, 53, 74
1, 14184, Note_on_c, 9, 35, 72
1, 14184, Note_on_c, 9, 42, 70
1, 14185, Note_on_c, 9, 42, 0
1, 14185, Note_on_c, 9, 35, 0
1, 14197, Note_on_c, 0, 57, 0
1, 14197, Note_on_c, 0, 65, 0
1, 14198, Note_on_c, 5, 77, 0
1, 14198, Control_c, 8, 11, 126
1, 14199, Control_c, 7, 11, 126
1, 14199, Control_c, 13, 11, 126
1, 14202, Note_on_c, 0, 46, 0
1, 14202, Control_c, 8, 11, 123
1, 14203, Note_on_c, 5, 69, 0
1, 14203, Control_c, 7, 11, 123
1, 14203, Control_c, 8, 11, 121
1, 14203, Control_c, 13, 11, 123
1, 14204, Note_on_c, 5, 74, 0
1, 14204, Control_c, 7, 11, 121
1, 14204, Control_c, 13, 11, 121
1, 14205, Control_c, 8, 11, 120
1, 14206, Control_c, 7, 11, 120
1, 14206, Control_c, 13, 11, 120
1, 14207, Note_on_c, 0, 57, 97
1, 14207, Note_on_c, 0, 45, 77
1, 14207, Note_on_c, 0, 60, 94
1, 14207, Note_on_c, 0, 65, 84
1, 14207, Control_c, 8, 11, 118
1, 14208, Note_on_c, 0, 58, 0
1, 14208, Note_on_c, 0, 62, 0
1, 14208, Note_on_c, 1, 33, 107
1, 14208, Control_c, 7, 11, 118
1, 14208, Note_on_c, 9, 35, 115
1, 14208, Note_on_c, 9, 42, 92
1, 14208, Control_c, 13, 11, 118
1, 14209, Note_on_c, 9, 42, 0
1, 14209, Note_on_c, 9, 35, 0
1, 14209, Note_on_c, 5, 77, 73
1, 14209, Note_on_c, 5, 72, 84
1, 14209, Note_on_c, 5, 69, 75
1, 14213, Control_c, 8, 11, 115
1, 14214, Control_c, 7, 11, 115
1, 14214, Control_c, 13, 11, 115
1, 14217, Control_c, 8, 11, 112
1, 14218, Control_c, 7, 11, 112
1, 14218, Control_c, 13, 11, 112
1, 14222, Control_c, 8, 11, 109
1, 14223, Control_c, 7, 11, 109
1, 14223, Control_c, 13, 11, 109
1, 14224, Note_on_c, 1, 33, 0
1, 14226, Note_on_c, 3, 53, 0
1, 14226, Control_c, 8, 11, 107
1, 14227, Control_c, 7, 11, 107
1, 14227, Control_c, 8, 11, 105
1, 14227, Control_c, 13, 11, 107
1, 14228, Control_c, 7, 11, 105
1, 14228, Control_c, 13, 11, 105
1, 14229, Control_c, 8, 11, 103
1, 14230, Control_c, 7, 11, 103
1, 14230, Control_c, 13, 11, 103
1, 14231, Note_on_c, 4, 53, 0
1, 14231, Note_on_c, 3, 55, 85
1, 14231, Note_on_c, 4, 55, 64
1, 14231, Control_c, 8, 11, 102
1, 14231, Note_on_c, 12, 48, 58
1, 14232, Note_on_c, 1, 33, 111
1, 14232, Control_c, 7, 11, 102
1, 14232, Control_c, 8, 11, 100
1, 14232, Note_on_c, 9, 42, 55
1, 14232, Control_c, 13, 11, 102
1, 14233, Note_on_c, 9, 42, 0
1, 14233, Control_c, 7, 11, 100
1, 14233, Control_c, 13, 11, 100
1, 14235, Control_c, 8, 11, 98
1, 14236, Control_c, 7, 11, 98
1, 14236, Control_c, 13, 11, 98
1, 14237, Note_on_c, 12, 48, 0
1, 14240, Control_c, 8, 11, 95
1, 14241, Control_c, 7, 11, 95
1, 14241, Control_c, 13, 11, 95
1, 14242, Control_c, 8, 11, 93
1, 14243, Control_c, 7, 11, 93
1, 14243, Control_c, 8, 11, 92
1, 14243, Control_c, 13, 11, 93
1, 14244, Control_c, 7, 11, 92
1, 14244, Control_c, 13, 11, 92
1, 14246, Control_c, 8, 11, 89
1, 14247, Control_c, 7, 11, 89
1, 14247, Control_c, 13, 11, 89
1, 14251, Note_on_c, 3, 55, 0
1, 14252, Control_c, 8, 11, 86
1, 14253, Control_c, 7, 11, 86
1, 14253, Control_c, 13, 11, 86
1, 14255, Note_on_c, 4, 55, 0
1, 14255, Note_on_c, 3, 57, 93
1, 14255, Note_on_c, 4, 57, 72
1, 14255, Note_on_c, 12, 50, 59
1, 14256, Note_on_c, 1, 33, 0
1, 14256, Control_c, 8, 11, 83
1, 14256, Note_on_c, 9, 42, 73
1, 14257, Note_on_c, 9, 42, 0
1, 14257, Control_c, 7, 11, 83
1, 14257, Control_c, 13, 11, 83
1, 14260, Note_on_c, 12, 50, 0
1, 14262, Control_c, 8, 11, 81
1, 14263, Control_c, 7, 11, 81
1, 14263, Control_c, 13, 11, 81
1, 14269, Control_c, 8, 11, 78
1, 14270, Control_c, 7, 11, 78
1, 14270, Control_c, 13, 11, 78
1, 14273, Note_on_c, 3, 57, 0
1, 14274, Control_c, 8, 11, 75
1, 14275, Control_c, 7, 11, 75
1, 14275, Control_c, 13, 11, 75
1, 14279, Control_c, 8, 11, 73
1, 14279, Note_on_c, 12, 53, 61
1, 14280, Note_on_c, 4, 57, 0
1, 14280, Control_c, 7, 11, 73
1, 14280, Note_on_c, 9, 42, 50
1, 14280, Control_c, 13, 11, 73
1, 14281, Note_on_c, 9, 42, 0
1, 14281, Note_on_c, 3, 57, 95
1, 14281, Note_on_c, 4, 57, 74
1, 14282, Control_c, 8, 11, 70
1, 14283, Control_c, 7, 11, 70
1, 14283, Control_c, 13, 11, 70
1, 14285, Control_c, 8, 11, 68
1, 14286, Note_on_c, 12, 53, 0
1, 14286, Control_c, 7, 11, 68
1, 14286, Control_c, 13, 11, 68
1, 14287, Control_c, 8, 11, 66
1, 14288, Note_on_c, 8, 65, 0
1, 14288, Control_c, 7, 11, 66
1, 14288, Control_c, 8, 11, 65
1, 14288, Control_c, 13, 11, 66
1, 14289, Note_on_c, 7, 65, 0
1, 14289, Note_on_c, 13, 65, 0
1, 14289, Control_c, 7, 11, 65
1, 14289, Control_c, 13, 11, 65
1, 14290, Control_c, 8, 11, 62
1, 14291, Note_on_c, 0, 65, 0
1, 14291, Control_c, 7, 11, 62
1, 14291, Control_c, 8, 11, 60
1, 14291, Control_c, 13, 11, 62
1, 14292, Note_on_c, 0, 57, 0
1, 14292, Note_on_c, 5, 69, 0
1, 14292, Control_c, 7, 11, 60
1, 14292, Control_c, 13, 11, 60
1, 14293, Control_c, 8, 11, 57
1, 14294, Note_on_c, 0, 60, 0
1, 14294, Control_c, 7, 11, 57
1, 14294, Control_c, 13, 11, 57
1, 14295, Control_c, 8, 11, 55
1, 14296, Control_c, 7, 11, 55
1, 14296, Control_c, 8, 11, 53
1, 14296, Control_c, 13, 11, 55
1, 14297, Control_c, 7, 11, 53
1, 14297, Control_c, 13, 11, 53
1, 14300, Note_on_c, 0, 45, 0
1, 14300, Note_on_c, 5, 72, 0
1, 14301, Note_on_c, 5, 77, 0
1, 14303, Note_on_c, 3, 57, 0
1, 14303, Note_on_c, 0, 65, 80
1, 14303, Note_on_c, 0, 50, 86
1, 14303, Note_on_c, 0, 57, 88
1, 14303, Note_on_c, 0, 60, 83
1, 14303, Note_on_c, 0, 62, 90
1, 14303, Note_on_c, 5, 74, 76
1, 14303, Note_on_c, 5, 69, 70
1, 14303, Note_on_c, 5, 65, 80
1, 14304, Note_on_c, 1, 38, 114
1, 14304, Note_on_c, 9, 42, 111
1, 14304, Note_on_c, 9, 37, 111
1, 14305, Note_on_c, 9, 37, 0
1, 14305, Note_on_c, 9, 42, 0
1, 14308, Control_c, 8, 11, 56
1, 14309, Control_c, 7, 11, 56
1, 14309, Control_c, 8, 11, 60
1, 14309, Control_c, 13, 11, 56
1, 14310, Control_c, 7, 11, 60
1, 14310, Control_c, 13, 11, 60
1, 14311, Control_c, 8, 11, 64
1, 14312, Control_c, 7, 11, 64
1, 14312, Control_c, 8, 11, 69
1, 14312, Control_c, 13, 11, 64
1, 14313, Control_c, 7, 11, 69
1, 14313, Control_c, 13, 11, 69
1, 14314, Control_c, 8, 11, 73
1, 14315, Control_c, 7, 11, 73
1, 14315, Control_c, 13, 11, 73
1, 14316, Control_c, 8, 11, 77
1, 14317, Control_c, 7, 11, 77
1, 14317, Control_c, 8, 11, 81
1, 14317, Control_c, 13, 11, 77
1, 14318, Control_c, 7, 11, 81
1, 14318, Control_c, 13, 11, 81
1, 14319, Control_c, 8, 11, 87
1, 14320, Control_c, 7, 11, 87
1, 14320, Control_c, 8, 11, 93
1, 14320, Control_c, 13, 11, 87
1, 14321, Note_on_c, 1, 38, 0
1, 14321, Control_c, 7, 11, 93
1, 14321, Control_c, 13, 11, 93
1, 14322, Control_c, 8, 11, 100
1, 14323, Control_c, 7, 11, 100
1, 14323, Control_c, 13, 11, 100
1, 14324, Control_c, 8, 11, 106
1, 14325, Control_c, 7, 11, 106
1, 14325, Control_c, 8, 11, 111
1, 14325, Control_c, 13, 11, 106
1, 14326, Control_c, 7, 11, 111
1, 14326, Control_c, 13, 11, 111
1, 14327, Control_c, 8, 11, 117
1, 14327, Note_on_c, 12, 48, 56
1, 14328, Note_on_c, 1, 38, 114
1, 14328, Control_c, 7, 11, 117
1, 14328, Note_on_c, 9, 42, 44
1, 14328, Control_c, 13, 11, 117
1, 14329, Note_on_c, 9, 42, 0
1, 14329, Control_c, 8, 11, 123
1, 14330, Control_c, 7, 11, 123
1, 14330, Control_c, 8, 11, 127
1, 14330, Control_c, 13, 11, 123
1, 14331, Control_c, 7, 11, 127
1, 14331, Control_c, 13, 11, 127
1, 14335, Note_on_c, 12, 48, 0
1, 14351, Note_on_c, 12, 50, 62
1, 14352, Note_on_c, 4, 57, 0
1, 14352, Note_on_c, 9, 42, 66
1, 14353, Note_on_c, 9, 42, 0
1, 14359, Note_on_c, 12, 50, 0
1, 14360, Note_on_c, 1, 38, 0
1, 14372, Note_on_c, 3, 48, 101
1, 14375, Note_on_c, 12, 53, 63
1, 14376, Note_on_c, 9, 42, 59
1, 14377, Note_on_c, 9, 42, 0
1, 14382, Note_on_c, 12, 53, 0
1, 14390, Note_on_c, 0, 57, 0
1, 14391, Note_on_c, 3, 48, 0
1, 14392, Note_on_c, 0, 65, 0
1, 14393, Note_on_c, 0, 62, 0
1, 14394, Note_on_c, 0, 60, 0
1, 14395, Note_on_c, 5, 65, 0
1, 14396, Note_on_c, 5, 74, 0
1, 14397, Note_on_c, 5, 69, 0
1, 14398, Note_on_c, 0, 50, 0
1, 14399, Note_on_c, 0, 55, 98
1, 14399, Note_on_c, 0, 62, 80
1, 14399, Note_on_c, 0, 65, 79
1, 14399, Note_on_c, 0, 58, 82
1, 14399, Note_on_c, 0, 43, 91
1, 14399, Note_on_c, 5, 74, 83
1, 14399, Note_on_c, 5, 67, 73
1, 14400, Note_on_c, 1, 31, 116
1, 14400, Note_on_c, 5, 70, 73
1, 14400, Note_on_c, 9, 35, 115
1, 14400, Note_on_c, 9, 42, 83
1, 14401, Note_on_c, 9, 42, 0
1, 14401, Note_on_c, 9, 35, 0
1, 14401, Note_on_c, 3, 53, 101
1, 14401, Note_on_c, 4, 53, 80
1, 14418, Note_on_c, 1, 31, 0
1, 14420, Note_on_c, 3, 53, 0
1, 14424, Note_on_c, 1, 31, 116
1, 14424, Note_on_c, 9, 42, 47
1, 14424, Note_on_c, 12, 48, 54
1, 14425, Note_on_c, 9, 42, 0
1, 14425, Note_on_c, 4, 53, 0
1, 14425, Note_on_c, 3, 55, 91
1, 14425, Note_on_c, 4, 55, 70
1, 14430, Note_on_c, 12, 48, 0
1, 14445, Note_on_c, 3, 55, 0
1, 14447, Note_on_c, 4, 55, 0
1, 14447, Note_on_c, 3, 57, 93
1, 14447, Note_on_c, 4, 57, 72
1, 14448, Note_on_c, 9, 42, 55
1, 14448, Note_on_c, 12, 50, 48
1, 14449, Note_on_c, 9, 42, 0
1, 14450, Note_on_c, 1, 31, 0
1, 14453, Note_on_c, 12, 50, 0
1, 14465, Note_on_c, 3, 57, 0
1, 14471, Note_on_c, 4, 57, 0
1, 14471, Note_on_c, 3, 58, 101
1, 14471, Note_on_c, 4, 58, 80
1, 14472, Note_on_c, 9, 42, 50
1, 14473, Note_on_c, 9, 42, 0
1, 14496, Note_on_c, 9, 37, 111
1, 14496, Note_on_c, 9, 42, 87
1, 14497, Note_on_c, 9, 42, 0
1, 14497, Note_on_c, 9, 37, 0
1, 14506, Note_on_c, 3, 58, 0
1, 14519, Note_on_c, 12, 48, 54
1, 14520, Note_on_c, 9, 42, 55
1, 14521, Note_on_c, 9, 42, 0
1, 14521, Note_on_c, 4, 58, 0
1, 14521, Note_on_c, 3, 57, 103
1, 14521, Note_on_c, 4, 57, 82
1, 14525, Note_on_c, 12, 48, 0
1, 14541, Note_on_c, 3, 57, 0
1, 14543, Note_on_c, 4, 57, 0
1, 14543, Note_on_c, 3, 55, 87
1, 14543, Note_on_c, 4, 55, 66
1, 14543, Note_on_c, 12, 50, 56
1, 14544, Note_on_c, 9, 42, 61
1, 14545, Note_on_c, 9, 42, 0
1, 14547, Note_on_c, 12, 50, 0
1, 14564, Note_on_c, 3, 55, 0
1, 14567, Note_on_c, 4, 55, 0
1, 14567, Note_on_c, 3, 58, 101
1, 14567, Note_on_c, 4, 58, 80
1, 14567, Note_on_c, 12, 53, 64
1, 14568, Note_on_c, 9, 42, 65
1, 14569, Note_on_c, 9, 42, 0
1, 14575, Note_on_c, 12, 53, 0
1, 14580, Note_on_c, 0, 55, 0
1, 14585, Note_on_c, 5, 70, 0
1, 14585, Note_on_c, 5, 67, 0
1, 14588, Note_on_c, 5, 74, 0
1, 14589, Note_on_c, 0, 43, 0
1, 14590, Note_on_c, 0, 62, 0
1, 14590, Note_on_c, 0, 58, 0
1, 14590, Note_on_c, 0, 65, 0
1, 14591, Note_on_c, 0, 55, 86
1, 14591, Note_on_c, 0, 41, 80
1, 14591, Note_on_c, 0, 60, 85
1, 14591, Note_on_c, 0, 53, 86
1, 14591, Note_on_c, 0, 57, 81
1, 14592, Note_on_c, 1, 29, 120
1, 14592, Note_on_c, 5, 72, 76
1, 14592, Note_on_c, 9, 42, 85
1, 14592, Note_on_c, 9, 35, 108
1, 14593, Note_on_c, 9, 35, 0
1, 14593, Note_on_c, 9, 42, 0
1, 14593, Note_on_c, 5, 67, 73
1, 14593, Note_on_c, 5, 69, 73
1, 14593, Note_on_c, 5, 65, 76
1, 14594, Pitch_bend_c, 3, 7372
1, 14594, Pitch_bend_c, 4, 7372
1, 14595, Pitch_bend_c, 3, 5851
1, 14595, Pitch_bend_c, 4, 5851
1, 14597, Pitch_bend_c, 3, 4681
1, 14597, Pitch_bend_c, 4, 4681
1, 14599, Pitch_bend_c, 3, 4096
1, 14599, Pitch_bend_c, 4, 4096
1, 14615, Note_on_c, 8, 75, 88
1, 14616, Note_on_c, 7, 75, 95
1, 14616, Note_on_c, 9, 42, 52
1, 14616, Note_on_c, 13, 75, 85
1, 14617, Note_on_c, 9, 42, 0
1, 14617, Pitch_bend_c, 8, 8660
1, 14618, Pitch_bend_c, 7, 8660
1, 14618, Pitch_bend_c, 8, 9947
1, 14618, Pitch_bend_c, 13, 8660
1, 14619, Pitch_bend_c, 7, 9947
1, 14619, Pitch_bend_c, 13, 9947
1, 14620, Pitch_bend_c, 8, 11000
1, 14621, Pitch_bend_c, 7, 11000
1, 14621, Pitch_bend_c, 8, 12192
1, 14621, Pitch_bend_c, 13, 11000
1, 14622, Pitch_bend_c, 7, 12192
1, 14622, Pitch_bend_c, 13, 12192
1, 14623, Pitch_bend_c, 8, 12288
1, 14624, Pitch_bend_c, 7, 12288
1, 14624, Pitch_bend_c, 13, 12288
1, 14633, Pitch_bend_c, 8, 11234
1, 14634, Note_on_c, 1, 29, 0
1, 14634, Note_on_c, 3, 58, 0
1, 14634, Pitch_bend_c, 7, 11234
1, 14634, Pitch_bend_c, 8, 11000
1, 14634, Pitch_bend_c, 13, 11234
1, 14635, Pitch_bend_c, 7, 11000
1, 14635, Pitch_bend_c, 13, 11000
1, 14636, Pitch_bend_c, 8, 10298
1, 14637, Pitch_bend_c, 7, 10298
1, 14637, Pitch_bend_c, 8, 9128
1, 14637, Pitch_bend_c, 13, 10298
1, 14638, Note_on_c, 8, 75, 0
1, 14638, Pitch_bend_c, 7, 9128
1, 14638, Pitch_bend_c, 13, 9128
1, 14639, Note_on_c, 13, 75, 0
1, 14639, Note_on_c, 7, 75, 0
1, 14639, Pitch_bend_c, 8, 8192
1, 14640, Pitch_bend_c, 7, 8192
1, 14640, Note_on_c, 9, 42, 48
1, 14640, Pitch_bend_c, 13, 8192
1, 14641, Note_on_c, 9, 42, 0
1, 14642, Pitch_bend_c, 3, 4213
1, 14644, Pitch_bend_c, 3, 5149
1, 14645, Pitch_bend_c, 3, 7840
1, 14647, Pitch_bend_c, 3, 8192
1, 14661, Note_on_c, 9, 40, 14
1, 14662, Note_on_c, 9, 40, 0
1, 14662, Note_on_c, 8, 73, 86
1, 14663, Note_on_c, 7, 73, 95
1, 14663, Note_on_c, 13, 73, 85
1, 14669, Note_on_c, 9, 40, 40
1, 14670, Note_on_c, 9, 40, 0
1, 14674, Note_on_c, 0, 57, 0
1, 14676, Note_on_c, 5, 69, 0
1, 14676, Note_on_c, 9, 40, 66
1, 14677, Note_on_c, 9, 40, 0
1, 14678, Note_on_c, 5, 72, 0
1, 14682, Note_on_c, 9, 40, 88
1, 14683, Note_on_c, 9, 40, 0
1, 14686, Note_on_c, 0, 60, 0
1, 14686, Note_on_c, 0, 55, 0
1, 14686, Note_on_c, 0, 53, 0
1, 14686, Note_on_c, 0, 41, 0
1, 14687, Note_on_c, 0, 66, 74
1, 14687, Note_on_c, 0, 64, 98
1, 14687, Note_on_c, 0, 47, 102
1, 14687, Note_on_c, 0, 61, 99
1, 14687, Note_on_c, 0, 57, 98
1, 14687, Note_on_c, 0, 69, 95
1, 14687, Note_on_c, 5, 66, 85
1, 14687, Note_on_c, 5, 73, 93
1, 14687, Note_on_c, 5, 69, 86
1, 14688, Note_on_c, 5, 67, 0
1, 14688, Note_on_c, 5, 65, 0
1, 14688, Note_on_c, 1, 35, 117
1, 14688, Note_on_c, 9, 40, 115
1, 14688, Note_on_c, 9, 46, 104
1, 14689, Note_on_c, 9, 46, 0
1, 14689, Note_on_c, 9, 40, 0
1, 14689, Note_on_c, 8, 73, 0
1, 14689, Note_on_c, 9, 49, 50
1, 14690, Note_on_c, 9, 49, 0
1, 14690, Note_on_c, 13, 73, 0
1, 14690, Note_on_c, 7, 73, 0
1, 14690, Note_on_c, 2, 61, 78
1, 14690, Note_on_c, 2, 64, 74
1, 14710, Note_on_c, 8, 68, 85
1, 14711, Note_on_c, 7, 68, 92
1, 14711, Note_on_c, 12, 52, 55
1, 14711, Note_on_c, 13, 68, 82
1, 14714, Pitch_bend_c, 4, 4213
1, 14716, Note_on_c, 12, 52, 0
1, 14735, Note_on_c, 8, 68, 0
1, 14735, Note_on_c, 12, 54, 68
1, 14736, Note_on_c, 13, 68, 0
1, 14736, Note_on_c, 7, 68, 0
1, 14741, Note_on_c, 12, 54, 0
1, 14752, Note_on_c, 4, 58, 0
1, 14759, Note_on_c, 8, 71, 85
1, 14759, Note_on_c, 12, 57, 55
1, 14760, Note_on_c, 7, 71, 92
1, 14760, Note_on_c, 13, 71, 82
1, 14763, Note_on_c, 12, 57, 0
1, 14770, Note_on_c, 0, 66, 0
1, 14771, Note_on_c, 1, 35, 0
1, 14777, Note_on_c, 5, 66, 0
1, 14780, Pitch_bend_c, 4, 5149
1, 14781, Note_on_c, 2, 64, 0
1, 14782, Note_on_c, 0, 64, 0
1, 14782, Note_on_c, 0, 57, 0
1, 14782, Note_on_c, 0, 61, 0
1, 14782, Note_on_c, 5, 73, 0
1, 14782, Note_on_c, 0, 47, 0
1, 14782, Note_on_c, 5, 69, 0
1, 14782, Note_on_c, 2, 61, 0
1, 14782, Note_on_c, 0, 69, 0
1, 14782, Pitch_bend_c, 4, 8192
1, 14783, Note_on_c, 0, 66, 95
1, 14783, Note_on_c, 0, 59, 112
1, 14783, Note_on_c, 0, 68, 99
1, 14783, Note_on_c, 0, 63, 101
1, 14783, Note_on_c, 0, 52, 94
1, 14783, Note_on_c, 3, 71, 116
1, 14783, Note_on_c, 5, 71, 80
1, 14783, Note_on_c, 5, 68, 78
1, 14783, Note_on_c, 5, 63, 84
1, 14783, Note_on_c, 5, 66, 73
1, 14784, Note_on_c, 1, 28, 116
1, 14784, Note_on_c, 4, 71, 95
1, 14784, Note_on_c, 4, 59, 95
1, 14784, Note_on_c, 9, 42, 104
1, 14784, Note_on_c, 9, 35, 115
1, 14785, Note_on_c, 9, 35, 0
1, 14785, Note_on_c, 9, 42, 0
1, 14786, Note_on_c, 2, 59, 70
1, 14786, Note_on_c, 2, 83, 54
1, 14786, Note_on_c, 2, 63, 70
1, 14787, Note_on_c, 2, 71, 72
1, 14800, Note_on_c, 1, 28, 0
1, 14807, Note_on_c, 12, 54, 51
1, 14808, Note_on_c, 1, 28, 114
1, 14808, Note_on_c, 9, 42, 55
1, 14809, Note_on_c, 9, 42, 0
1, 14809, Note_on_c, 3, 71, 0
1, 14811, Note_on_c, 12, 54, 0
1, 14831, Note_on_c, 4, 59, 0
1, 14831, Note_on_c, 4, 71, 0
1, 14831, Note_on_c, 3, 71, 111
1, 14831, Note_on_c, 12, 56, 63
1, 14832, Note_on_c, 4, 59, 90
1, 14832, Note_on_c, 4, 71, 90
1, 14832, Note_on_c, 9, 42, 63
1, 14833, Note_on_c, 9, 42, 0
1, 14835, Note_on_c, 1, 28, 0
1, 14837, Note_on_c, 12, 56, 0
1, 14855, Note_on_c, 12, 59, 66
1, 14856, Note_on_c, 9, 42, 62
1, 14857, Note_on_c, 9, 42, 0
1, 14858, Note_on_c, 3, 71, 0
1, 14861, Note_on_c, 12, 59, 0
1, 14879, Note_on_c, 4, 71, 0
1, 14879, Note_on_c, 4, 59, 0
1, 14879, Note_on_c, 3, 71, 108
1, 14880, Note_on_c, 4, 71, 87
1, 14880, Note_on_c, 4, 59, 90
1, 14880, Note_on_c, 9, 42, 115
1, 14880, Note_on_c, 9, 40, 115
1, 14881, Note_on_c, 9, 40, 0
1, 14881, Note_on_c, 9, 42, 0
1, 14902, Note_on_c, 3, 71, 0
1, 14903, Note_on_c, 12, 54, 54
1, 14904, Note_on_c, 4, 71, 0
1, 14904, Note_on_c, 4, 59, 0
1, 14904, Note_on_c, 4, 66, 71
1, 14904, Note_on_c, 4, 54, 71
1, 14904, Note_on_c, 9, 42, 59
1, 14905, Note_on_c, 9, 42, 0
1, 14905, Note_on_c, 3, 66, 92
1, 14909, Note_on_c, 12, 54, 0
1, 14927, Note_on_c, 3, 68, 86
1, 14927, Note_on_c, 12, 56, 57
1, 14928, Note_on_c, 3, 66, 0
1, 14928, Note_on_c, 4, 66, 0
1, 14928, Note_on_c, 4, 54, 0
1, 14928, Note_on_c, 4, 56, 71
1, 14928, Note_on_c, 4, 68, 65
1, 14928, Note_on_c, 9, 42, 53
1, 14929, Note_on_c, 9, 42, 0
1, 14934, Note_on_c, 12, 56, 0
1, 14943, Note_on_c, 3, 68, 0
1, 14951, Note_on_c, 3, 71, 108
1, 14951, Note_on_c, 12, 59, 65
1, 14952, Note_on_c, 4, 56, 0
1, 14952, Note_on_c, 4, 68, 0
1, 14952, Note_on_c, 4, 59, 71
1, 14952, Note_on_c, 4, 71, 87
1, 14952, Note_on_c, 9, 35, 67
1, 14952, Note_on_c, 9, 42, 77
1, 14953, Note_on_c, 9, 42, 0
1, 14953, Note_on_c, 9, 35, 0
1, 14957, Note_on_c, 12, 59, 0
1, 14966, Note_on_c, 5, 71, 0
1, 14967, Note_on_c, 0, 59, 0
1, 14967, Note_on_c, 5, 66, 0
1, 14968, Note_on_c, 0, 63, 0
1, 14969, Note_on_c, 0, 66, 0
1, 14969, Note_on_c, 5, 63, 0
1, 14971, Note_on_c, 5, 68, 0
1, 14974, Note_on_c, 0, 52, 0
1, 14974, Note_on_c, 0, 68, 0
1, 14975, Note_on_c, 0, 59, 87
1, 14975, Note_on_c, 0, 63, 99
1, 14975, Note_on_c, 0, 66, 110
1, 14975, Note_on_c, 0, 51, 99
1, 14975, Note_on_c, 5, 63, 87
1, 14975, Note_on_c, 5, 71, 83
1, 14975, Note_on_c, 5, 66, 79
1, 14976, Note_on_c, 1, 39, 110
1, 14976, Note_on_c, 9, 42, 111
1, 14976, Note_on_c, 9, 35, 110
1, 14977, Note_on_c, 9, 35, 0
1, 14977, Note_on_c, 9, 42, 0
1, 14989, Control_c, 8, 11, 126
1, 14990, Control_c, 7, 11, 126
1, 14990, Control_c, 13, 11, 126
1, 14996, Note_on_c, 1, 39, 0
1, 14998, Note_on_c, 3, 71, 0
1, 14999, Note_on_c, 12, 54, 41
1, 15000, Note_on_c, 4, 71, 0
1, 15000, Note_on_c, 4, 59, 0
1, 15000, Note_on_c, 1, 39, 110
1, 15000, Note_on_c, 4, 61, 71
1, 15000, Note_on_c, 4, 73, 80
1, 15000, Note_on_c, 9, 42, 59
1, 15001, Note_on_c, 9, 42, 0
1, 15001, Note_on_c, 3, 73, 101
1, 15002, Control_c, 8, 11, 124
1, 15003, Control_c, 7, 11, 124
1, 15003, Control_c, 13, 11, 124
1, 15004, Note_on_c, 12, 54, 0
1, 15008, Control_c, 8, 11, 121
1, 15009, Control_c, 7, 11, 121
1, 15009, Control_c, 13, 11, 121
1, 15019, Note_on_c, 3, 73, 0
1, 15020, Control_c, 8, 11, 118
1, 15021, Control_c, 7, 11, 118
1, 15021, Control_c, 13, 11, 118
1, 15023, Note_on_c, 12, 56, 53
1, 15024, Note_on_c, 4, 73, 0
1, 15024, Note_on_c, 4, 61, 0
1, 15024, Note_on_c, 3, 75, 107
1, 15024, Note_on_c, 4, 75, 86
1, 15024, Note_on_c, 4, 63, 86
1, 15024, Note_on_c, 9, 42, 69
1, 15025, Note_on_c, 9, 42, 0
1, 15026, Control_c, 8, 11, 116
1, 15027, Control_c, 7, 11, 116
1, 15027, Control_c, 13, 11, 116
1, 15029, Note_on_c, 1, 39, 0
1, 15032, Note_on_c, 12, 56, 0
1, 15032, Control_c, 8, 11, 113
1, 15033, Control_c, 7, 11, 113
1, 15033, Control_c, 13, 11, 113
1, 15037, Control_c, 8, 11, 110
1, 15038, Control_c, 7, 11, 110
1, 15038, Control_c, 13, 11, 110
1, 15043, Note_on_c, 3, 75, 0
1, 15043, Control_c, 8, 11, 108
1, 15044, Control_c, 7, 11, 108
1, 15044, Control_c, 13, 11, 108
1, 15047, Note_on_c, 3, 76, 101
1, 15048, Note_on_c, 4, 75, 0
1, 15048, Note_on_c, 4, 63, 0
1, 15048, Note_on_c, 4, 76, 80
1, 15048, Note_on_c, 4, 64, 86
1, 15048, Note_on_c, 9, 42, 61
1, 15049, Note_on_c, 9, 42, 0
1, 15053, Control_c, 8, 11, 105
1, 15054, Control_c, 7, 11, 105
1, 15054, Control_c, 13, 11, 105
1, 15061, Control_c, 8, 11, 103
1, 15062, Control_c, 7, 11, 103
1, 15062, Control_c, 13, 11, 103
1, 15063, Note_on_c, 0, 66, 0
1, 15063, Note_on_c, 0, 63, 0
1, 15064, Note_on_c, 5, 71, 0
1, 15064, Note_on_c, 0, 59, 0
1, 15066, Note_on_c, 5, 63, 0
1, 15068, Note_on_c, 5, 66, 0
1, 15069, Control_c, 8, 11, 100
1, 15070, Note_on_c, 3, 76, 0
1, 15070, Control_c, 7, 11, 100
1, 15070, Control_c, 13, 11, 100
1, 15072, Note_on_c, 4, 76, 0
1, 15072, Note_on_c, 4, 64, 0
1, 15072, Note_on_c, 1, 32, 111
1, 15072, Note_on_c, 3, 66, 116
1, 15072, Note_on_c, 4, 66, 95
1, 15072, Note_on_c, 4, 75, 80
1, 15072, Note_on_c, 5, 68, 78
1, 15072, Note_on_c, 5, 71, 88
1, 15072, Note_on_c, 9, 40, 115
1, 15072, Note_on_c, 9, 42, 89
1, 15073, Note_on_c, 9, 42, 0
1, 15073, Note_on_c, 9, 40, 0
1, 15073, Note_on_c, 0, 66, 74
1, 15073, Note_on_c, 0, 63, 68
1, 15073, Note_on_c, 0, 44, 91
1, 15073, Note_on_c, 0, 59, 90
1, 15073, Note_on_c, 0, 56, 113
1, 15073, Note_on_c, 5, 63, 87
1, 15074, Note_on_c, 0, 51, 0
1, 15074, Control_c, 8, 11, 98
1, 15075, Control_c, 7, 11, 98
1, 15075, Control_c, 13, 11, 98
1, 15079, Control_c, 8, 11, 95
1, 15080, Control_c, 7, 11, 95
1, 15080, Control_c, 13, 11, 95
1, 15084, Control_c, 8, 11, 93
1, 15085, Control_c, 7, 11, 93
1, 15085, Control_c, 13, 11, 93
1, 15088, Control_c, 8, 11, 90
1, 15089, Control_c, 7, 11, 90
1, 15089, Control_c, 13, 11, 90
1, 15093, Control_c, 8, 11, 87
1, 15094, Control_c, 7, 11, 87
1, 15094, Control_c, 13, 11, 87
1, 15095, Note_on_c, 4, 75, 0
1, 15095, Control_c, 8, 11, 86
1, 15095, Note_on_c, 12, 54, 47
1, 15096, Control_c, 7, 11, 86
1, 15096, Note_on_c, 9, 42, 62
1, 15096, Control_c, 13, 11, 86
1, 15097, Note_on_c, 9, 42, 0
1, 15100, Note_on_c, 12, 54, 0
1, 15100, Control_c, 8, 11, 83
1, 15101, Control_c, 7, 11, 83
1, 15101, Control_c, 13, 11, 83
1, 15106, Control_c, 8, 11, 80
1, 15107, Control_c, 7, 11, 80
1, 15107, Control_c, 13, 11, 80
1, 15108, Note_on_c, 1, 32, 0
1, 15114, Control_c, 8, 11, 77
1, 15115, Control_c, 7, 11, 77
1, 15115, Control_c, 13, 11, 77
1, 15119, Note_on_c, 12, 56, 46
1, 15120, Note_on_c, 1, 39, 111
1, 15120, Note_on_c, 9, 42, 67
1, 15121, Note_on_c, 9, 42, 0
1, 15121, Control_c, 8, 11, 74
1, 15122, Control_c, 7, 11, 74
1, 15122, Control_c, 13, 11, 74
1, 15125, Control_c, 8, 11, 72
1, 15126, Note_on_c, 12, 56, 0
1, 15126, Control_c, 7, 11, 72
1, 15126, Control_c, 13, 11, 72
1, 15138, Control_c, 8, 11, 69
1, 15139, Control_c, 7, 11, 69
1, 15139, Control_c, 13, 11, 69
1, 15143, Note_on_c, 12, 59, 47
1, 15144, Note_on_c, 1, 39, 0
1, 15144, Note_on_c, 1, 38, 111
1, 15144, Note_on_c, 9, 42, 77
1, 15145, Note_on_c, 9, 42, 0
1, 15147, Note_on_c, 12, 59, 0
1, 15154, Note_on_c, 0, 56, 0
1, 15155, Note_on_c, 0, 59, 0
1, 15155, Note_on_c, 3, 66, 0
1, 15156, Tempo, 923077
1, 15160, Note_on_c, 0, 44, 0
1, 15160, Note_on_c, 5, 68, 0
1, 15162, Note_on_c, 5, 71, 0
1, 15163, Note_on_c, 5, 63, 0
1, 15165, Note_on_c, 1, 38, 0
1, 15165, Note_on_c, 4, 66, 0
1, 15165, Note_on_c, 2, 59, 0
1, 15165, Note_on_c, 2, 63, 0
1, 15167, Note_on_c, 3, 66, 110
1, 15167, Note_on_c, 4, 66, 89
1, 15167, Control_c, 8, 11, 72
1, 15168, Note_on_c, 0, 63, 0
1, 15168, Note_on_c, 0, 66, 0
1, 15168, Note_on_c, 0, 61, 93
1, 15168, Note_on_c, 0, 49, 107
1, 15168, Note_on_c, 1, 37, 111
1, 15168, Note_on_c, 5, 61, 101
1, 15168, Note_on_c, 5, 68, 89
1, 15168, Note_on_c, 5, 64, 95
1, 15168, Control_c, 7, 11, 72
1, 15168, Note_on_c, 9, 35, 115
1, 15168, Note_on_c, 9, 42, 95
1, 15168, Control_c, 13, 11, 72
1, 15169, Note_on_c, 9, 42, 0
1, 15169, Note_on_c, 9, 35, 0
1, 15169, Note_on_c, 0, 59, 100
1, 15169, Note_on_c, 0, 64, 104
1, 15169, Note_on_c, 0, 56, 104
1, 15170, Note_on_c, 2, 64, 67
1, 15171, Note_on_c, 2, 61, 69
1, 15174, Control_c, 8, 11, 74
1, 15175, Control_c, 7, 11, 74
1, 15175, Control_c, 13, 11, 74
1, 15183, Control_c, 8, 11, 77
1, 15184, Control_c, 7, 11, 77
1, 15184, Control_c, 13, 11, 77
1, 15187, Note_on_c, 3, 66, 0
1, 15191, Note_on_c, 4, 66, 0
1, 15191, Note_on_c, 3, 63, 104
1, 15191, Note_on_c, 4, 63, 83
1, 15192, Note_on_c, 9, 42, 62
1, 15193, Note_on_c, 9, 42, 0
1, 15193, Note_on_c, 12, 54, 33
1, 15195, Control_c, 8, 11, 79
1, 15196, Control_c, 7, 11, 79
1, 15196, Control_c, 13, 11, 79
1, 15197, Note_on_c, 12, 54, 0
1, 15204, Control_c, 8, 11, 82
1, 15205, Control_c, 7, 11, 82
1, 15205, Control_c, 13, 11, 82
1, 15208, Note_on_c, 3, 63, 0
1, 15214, Control_c, 8, 11, 84
1, 15215, Note_on_c, 4, 63, 0
1, 15215, Note_on_c, 3, 61, 90
1, 15215, Note_on_c, 4, 61, 69
1, 15215, Control_c, 7, 11, 84
1, 15215, Note_on_c, 12, 56, 48
1, 15215, Control_c, 13, 11, 84
1, 15216, Note_on_c, 9, 42, 77
1, 15217, Note_on_c, 9, 42, 0
1, 15222, Note_on_c, 12, 56, 0
1, 15223, Control_c, 8, 11, 87
1, 15224, Control_c, 7, 11, 87
1, 15224, Control_c, 13, 11, 87
1, 15230, Control_c, 8, 11, 89
1, 15231, Control_c, 7, 11, 89
1, 15231, Control_c, 13, 11, 89
1, 15235, Control_c, 8, 11, 92
1, 15236, Control_c, 7, 11, 92
1, 15236, Control_c, 13, 11, 92
1, 15237, Note_on_c, 3, 61, 0
1, 15240, Note_on_c, 4, 61, 0
1, 15240, Note_on_c, 3, 59, 103
1, 15240, Note_on_c, 4, 59, 82
1, 15240, Note_on_c, 9, 42, 56
1, 15241, Note_on_c, 9, 42, 0
1, 15241, Control_c, 8, 11, 95
1, 15242, Control_c, 7, 11, 95
1, 15242, Control_c, 13, 11, 95
1, 15248, Control_c, 8, 11, 97
1, 15249, Control_c, 7, 11, 97
1, 15249, Control_c, 13, 11, 97
1, 15254, Control_c, 8, 11, 100
1, 15255, Control_c, 7, 11, 100
1, 15255, Control_c, 13, 11, 100
1, 15257, Note_on_c, 3, 59, 0
1, 15262, Control_c, 8, 11, 102
1, 15263, Control_c, 7, 11, 102
1, 15263, Control_c, 13, 11, 102
1, 15264, Note_on_c, 4, 59, 0
1, 15264, Note_on_c, 9, 40, 115
1, 15264, Note_on_c, 9, 42, 95
1, 15265, Note_on_c, 9, 42, 0
1, 15265, Note_on_c, 9, 40, 0
1, 15265, Note_on_c, 3, 59, 111
1, 15265, Note_on_c, 4, 59, 90
1, 15273, Control_c, 8, 11, 105
1, 15274, Control_c, 7, 11, 105
1, 15274, Control_c, 13, 11, 105
1, 15283, Control_c, 8, 11, 107
1, 15284, Control_c, 7, 11, 107
1, 15284, Control_c, 13, 11, 107
1, 15287, Note_on_c, 3, 59, 0
1, 15287, Note_on_c, 12, 54, 43
1, 15288, Note_on_c, 9, 42, 63
1, 15289, Note_on_c, 9, 42, 0
1, 15289, Note_on_c, 4, 59, 0
1, 15289, Note_on_c, 3, 61, 104
1, 15289, Note_on_c, 4, 61, 83
1, 15292, Control_c, 8, 11, 110
1, 15293, Note_on_c, 12, 54, 0
1, 15293, Control_c, 7, 11, 110
1, 15293, Control_c, 13, 11, 110
1, 15305, Control_c, 8, 11, 112
1, 15306, Control_c, 7, 11, 112
1, 15306, Control_c, 13, 11, 112
1, 15310, Note_on_c, 3, 61, 0
1, 15311, Note_on_c, 12, 56, 46
1, 15312, Note_on_c, 4, 61, 0
1, 15312, Note_on_c, 3, 63, 98
1, 15312, Note_on_c, 4, 63, 77
1, 15312, Note_on_c, 9, 42, 85
1, 15313, Note_on_c, 9, 42, 0
1, 15316, Control_c, 8, 11, 115
1, 15317, Control_c, 7, 11, 115
1, 15317, Control_c, 13, 11, 115
1, 15318, Note_on_c, 12, 56, 0
1, 15326, Control_c, 8, 11, 121
1, 15327, Note_on_c, 3, 63, 0
1, 15327, Control_c, 7, 11, 120
1, 15327, Control_c, 13, 11, 120
1, 15334, Note_on_c, 4, 63, 0
1, 15335, Note_on_c, 3, 63, 98
1, 15335, Note_on_c, 4, 63, 77
1, 15335, Note_on_c, 12, 59, 64
1, 15336, Note_on_c, 9, 42, 73
1, 15337, Note_on_c, 9, 42, 0
1, 15341, Control_c, 8, 11, 127
1, 15342, Note_on_c, 12, 59, 0
1, 15342, Control_c, 7, 11, 127
1, 15342, Control_c, 13, 11, 127
1, 15347, Note_on_c, 1, 37, 0
1, 15350, Note_on_c, 0, 49, 0
1, 15353, Note_on_c, 0, 59, 0
1, 15355, Note_on_c, 0, 61, 0
1, 15355, Note_on_c, 0, 56, 0
1, 15355, Note_on_c, 0, 64, 0
1, 15358, Note_on_c, 2, 83, 0
1, 15358, Note_on_c, 8, 71, 0
1, 15359, Note_on_c, 5, 61, 0
1, 15359, Note_on_c, 5, 64, 0
1, 15359, Note_on_c, 2, 64, 0
1, 15359, Note_on_c, 13, 71, 0
1, 15359, Note_on_c, 5, 68, 0
1, 15359, Note_on_c, 7, 71, 0
1, 15359, Note_on_c, 5, 75, 84
1, 15359, Note_on_c, 5, 70, 81
1, 15359, Note_on_c, 8, 66, 68
1, 15360, Note_on_c, 2, 71, 0
1, 15360, Note_on_c, 2, 61, 0
1, 15360, Note_on_c, 0, 54, 104
1, 15360, Note_on_c, 0, 63, 97
1, 15360, Note_on_c, 0, 59, 97
1, 15360, Note_on_c, 0, 47, 102
1, 15360, Note_on_c, 1, 35, 117
1, 15360, Note_on_c, 2, 70, 64
1, 15360, Note_on_c, 5, 66, 84
1, 15360, Note_on_c, 7, 75, 63
1, 15360, Note_on_c, 9, 35, 115
1, 15360, Note_on_c, 9, 46, 115
1, 15360, Note_on_c, 13, 75, 53
1, 15361, Note_on_c, 9, 46, 0
1, 15361, Note_on_c, 9, 35, 0
1, 15361, Note_on_c, 0, 58, 89
1, 15361, Note_on_c, 9, 49, 53
1, 15361, Note_on_c, 9, 57, 56
1, 15362, Note_on_c, 9, 57, 0
1, 15362, Note_on_c, 9, 49, 0
1, 15362, Note_on_c, 2, 63, 67
1, 15362, Note_on_c, 2, 85, 60
1, 15362, Note_on_c, 2, 59, 60
1, 15383, Note_on_c, 12, 73, 48
1, 15388, Note_on_c, 12, 73, 0
1, 15409, Note_on_c, 12, 71, 39
1, 15414, Note_on_c, 12, 71, 0
1, 15431, Note_on_c, 12, 70, 52
1, 15438, Note_on_c, 12, 70, 0
1, 15455, Note_on_c, 12, 66, 57
1, 15461, Note_on_c, 12, 66, 0
1, 15479, Note_on_c, 12, 63, 61
1, 15483, Note_on_c, 12, 63, 0
1, 15504, Note_on_c, 12, 61, 35
1, 15508, Note_on_c, 12, 61, 0
1, 15527, Note_on_c, 12, 59, 48
1, 15536, Note_on_c, 12, 59, 0
1, 15538, Note_on_c, 3, 63, 0
1, 15551, Note_on_c, 12, 58, 41
1, 15552, Time_signature, 2, 2, 24, 8
1, 15572, Note_on_c, 9, 47, 88
1, 15573, Note_on_c, 9, 47, 0
1, 15576, Note_on_c, 9, 47, 115
1, 15577, Note_on_c, 9, 47, 0
1, 15585, Note_on_c, 12, 58, 0
1, 15599, Note_on_c, 12, 56, 52
1, 15605, Note_on_c, 12, 56, 0
1, 15623, Note_on_c, 12, 54, 64
1, 15624, Note_on_c, 9, 47, 101
1, 15625, Note_on_c, 9, 47, 0
1, 15630, Note_on_c, 12, 54, 0
1, 15647, Note_on_c, 12, 52, 59
1, 15648, Note_on_c, 9, 45, 106
1, 15649, Note_on_c, 9, 45, 0
1, 15655, Note_on_c, 12, 52, 0
1, 15671, Note_on_c, 12, 51, 58
1, 15672, Note_on_c, 9, 45, 109
1, 15673, Note_on_c, 9, 45, 0
1, 15680, Note_on_c, 12, 51, 0
1, 15692, Note_on_c, 9, 41, 87
1, 15693, Note_on_c, 9, 41, 0
1, 15694, Note_on_c, 4, 63, 0
1, 15695, Note_on_c, 3, 63, 118
1, 15695, Note_on_c, 4, 63, 97
1, 15695, Note_on_c, 12, 49, 48
1, 15696, Note_on_c, 9, 41, 113
1, 15697, Note_on_c, 9, 41, 0
1, 15700, Note_on_c, 12, 49, 0
1, 15719, Note_on_c, 5, 66, 0
1, 15719, Note_on_c, 12, 47, 52
1, 15720, Note_on_c, 9, 41, 115
1, 15721, Note_on_c, 9, 41, 0
1, 15724, Note_on_c, 12, 47, 0
1, 15726, Control_c, 12, 101, 0
1, 15727, Control_c, 12, 100, 0
1, 15728, Control_c, 12, 6, 2
1, 15728, Control_c, 12, 101, 127
1, 15728, Control_c, 12, 100, 127
1, 15730, Note_on_c, 5, 75, 0
1, 15730, Note_on_c, 5, 70, 0
1, 15731, Note_on_c, 0, 59, 0
1, 15731, Note_on_c, 1, 35, 0
1, 15731, Note_on_c, 0, 54, 0
1, 15731, Note_on_c, 0, 63, 0
1, 15732, Note_on_c, 0, 58, 0
1, 15737, Note_on_c, 3, 63, 0
1, 15742, Note_on_c, 8, 66, 0
1, 15742, Note_on_c, 4, 63, 0
1, 15743, Note_on_c, 2, 70, 0
1, 15743, Note_on_c, 13, 75, 0
1, 15743, Note_on_c, 0, 47, 0
1, 15743, Note_on_c, 7, 75, 0
1, 15743, Note_on_c, 3, 63, 104
1, 15743, Note_on_c, 4, 63, 83
1, 15744, Time_signature, 4, 2, 24, 8
1, 15744, Note_on_c, 2, 63, 0
1, 15744, Note_on_c, 1, 36, 117
1, 15744, Note_on_c, 9, 35, 115
1, 15745, Note_on_c, 9, 35, 0
1, 15745, Note_on_c, 2, 59, 0
1, 15745, Note_on_c, 2, 85, 0
1, 15745, Note_on_c, 0, 58, 97
1, 15745, Note_on_c, 0, 60, 104
1, 15745, Note_on_c, 0, 48, 114
1, 15745, Note_on_c, 0, 55, 120
1, 15745, Note_on_c, 0, 63, 104
1, 15745, Note_on_c, 2, 55, 76
1, 15745, Note_on_c, 2, 63, 81
1, 15745, Note_on_c, 2, 58, 71
1, 15745, Note_on_c, 9, 57, 68
1, 15746, Note_on_c, 9, 57, 0
1, 15760, Note_on_c, 1, 36, 0
1, 15768, Note_on_c, 1, 36, 117
1, 15771, Note_on_c, 7, 62, 94
1, 15771, Note_on_c, 8, 62, 94
1, 15786, Note_on_c, 3, 63, 0
1, 15790, Note_on_c, 7, 62, 0
1, 15792, Note_on_c, 9, 42, 75
1, 15793, Note_on_c, 9, 42, 0
1, 15793, Note_on_c, 1, 36, 0
1, 15795, Note_on_c, 8, 62, 0
1, 15816, Note_on_c, 9, 42, 47
1, 15817, Note_on_c, 9, 42, 0
1, 15818, Note_on_c, 7, 63, 101
1, 15818, Note_on_c, 8, 63, 101
1, 15839, Note_on_c, 8, 63, 0
1, 15839, Note_on_c, 7, 63, 0
1, 15840, Note_on_c, 9, 42, 115
1, 15840, Note_on_c, 9, 40, 113
1, 15841, Note_on_c, 9, 40, 0
1, 15841, Note_on_c, 9, 42, 0
1, 15863, Note_on_c, 7, 72, 72
1, 15863, Note_on_c, 8, 72, 72
1, 15864, Note_on_c, 9, 42, 63
1, 15865, Note_on_c, 9, 42, 0
1, 15871, Note_on_c, 7, 74, 80
1, 15871, Note_on_c, 8, 74, 80
1, 15876, Note_on_c, 7, 72, 0
1, 15876, Note_on_c, 8, 72, 0
1, 15888, Note_on_c, 9, 42, 87
1, 15889, Note_on_c, 9, 42, 0
1, 15889, Note_on_c, 7, 74, 0
1, 15890, Note_on_c, 8, 74, 0
1, 15912, Note_on_c, 1, 27, 119
1, 15912, Note_on_c, 9, 42, 85
1, 15912, Note_on_c, 9, 35, 94
1, 15913, Note_on_c, 9, 35, 0
1, 15913, Note_on_c, 9, 42, 0
1, 15914, Note_on_c, 7, 70, 91
1, 15914, Note_on_c, 8, 70, 91
1, 15930, Note_on_c, 1, 27, 0
1, 15930, Note_on_c, 4, 63, 0
1, 15934, Note_on_c, 0, 63, 0
1, 15935, Note_on_c, 0, 60, 0
1, 15935, Note_on_c, 0, 48, 0
1, 15935, Note_on_c, 0, 56, 107
1, 15935, Note_on_c, 0, 63, 95
1, 15935, Note_on_c, 4, 70, 64
1, 15936, Note_on_c, 0, 58, 0
1, 15936, Note_on_c, 2, 58, 0
1, 15936, Note_on_c, 0, 55, 0
1, 15936, Note_on_c, 0, 41, 91
1, 15936, Note_on_c, 0, 60, 106
1, 15936, Note_on_c, 0, 53, 106
1, 15936, Note_on_c, 0, 48, 84
1, 15936, Note_on_c, 1, 29, 117
1, 15936, Note_on_c, 9, 35, 115
1, 15936, Note_on_c, 9, 42, 111
1, 15937, Note_on_c, 9, 42, 0
1, 15937, Note_on_c, 9, 35, 0
1, 15937, Note_on_c, 2, 65, 71
1, 15937, Note_on_c, 3, 70, 118
1, 15938, Note_on_c, 2, 55, 0
1, 15938, Note_on_c, 2, 60, 70
1, 15938, Note_on_c, 2, 56, 74
1, 15939, Note_on_c, 2, 63, 0
1, 15949, Control_c, 7, 11, 126
1, 15949, Control_c, 8, 11, 126
1, 15953, Note_on_c, 1, 29, 0
1, 15955, Note_on_c, 3, 70, 0
1, 15956, Control_c, 7, 11, 124
1, 15956, Control_c, 8, 11, 124
1, 15957, Note_on_c, 4, 70, 0
1, 15958, Note_on_c, 4, 70, 63
1, 15960, Note_on_c, 1, 29, 117
1, 15960, Control_c, 7, 11, 121
1, 15960, Control_c, 8, 11, 121
1, 15960, Note_on_c, 9, 42, 49
1, 15961, Note_on_c, 9, 42, 0
1, 15961, Note_on_c, 3, 70, 86
1, 15962, Control_c, 7, 11, 119
1, 15962, Control_c, 8, 11, 119
1, 15967, Control_c, 7, 11, 116
1, 15967, Control_c, 8, 11, 116
1, 15972, Control_c, 7, 11, 113
1, 15972, Control_c, 8, 11, 113
1, 15975, Note_on_c, 3, 70, 0
1, 15977, Control_c, 7, 11, 110
1, 15977, Control_c, 8, 11, 110
1, 15980, Note_on_c, 4, 70, 0
1, 15981, Note_on_c, 4, 70, 63
1, 15982, Control_c, 7, 11, 108
1, 15982, Control_c, 8, 11, 108
1, 15984, Note_on_c, 9, 42, 92
1, 15985, Note_on_c, 9, 42, 0
1, 15985, Note_on_c, 1, 29, 0
1, 15985, Note_on_c, 3, 70, 98
1, 15987, Control_c, 7, 11, 105
1, 15987, Control_c, 8, 11, 105
1, 15992, Control_c, 7, 11, 102
1, 15992, Control_c, 8, 11, 102
1, 15997, Control_c, 7, 11, 99
1, 15997, Control_c, 8, 11, 99
1, 15998, Control_c, 7, 11, 98
1, 15998, Control_c, 8, 11, 98
1, 16003, Note_on_c, 3, 70, 0
1, 16003, Control_c, 7, 11, 94
1, 16003, Control_c, 8, 11, 94
1, 16005, Note_on_c, 4, 70, 0
1, 16005, Note_on_c, 4, 68, 62
1, 16006, Control_c, 7, 11, 92
1, 16006, Control_c, 8, 11, 92
1, 16008, Note_on_c, 3, 68, 101
1, 16008, Control_c, 7, 11, 90
1, 16008, Control_c, 8, 11, 90
1, 16008, Note_on_c, 9, 42, 63
1, 16009, Note_on_c, 9, 42, 0
1, 16013, Control_c, 7, 11, 87
1, 16013, Control_c, 8, 11, 87
1, 16018, Control_c, 7, 11, 84
1, 16018, Control_c, 8, 11, 84
1, 16023, Control_c, 7, 11, 81
1, 16023, Control_c, 8, 11, 81
1, 16028, Control_c, 7, 11, 78
1, 16028, Control_c, 8, 11, 78
1, 16032, Note_on_c, 9, 42, 111
1, 16032, Note_on_c, 9, 40, 115
1, 16033, Note_on_c, 9, 40, 0
1, 16033, Note_on_c, 9, 42, 0
1, 16033, Control_c, 7, 11, 74
1, 16033, Control_c, 8, 11, 74
1, 16037, Control_c, 7, 11, 71
1, 16037, Control_c, 8, 11, 71
1, 16042, Control_c, 7, 11, 68
1, 16042, Control_c, 8, 11, 68
1, 16047, Control_c, 7, 11, 65
1, 16047, Control_c, 8, 11, 65
1, 16050, Control_c, 7, 11, 62
1, 16050, Control_c, 8, 11, 62
1, 16054, Control_c, 7, 11, 60
1, 16054, Control_c, 8, 11, 60
1, 16055, Control_c, 7, 11, 58
1, 16055, Control_c, 8, 11, 58
1, 16056, Note_on_c, 1, 29, 115
1, 16056, Note_on_c, 9, 35, 115
1, 16056, Note_on_c, 9, 42, 52
1, 16057, Note_on_c, 9, 42, 0
1, 16057, Note_on_c, 9, 35, 0
1, 16057, Control_c, 7, 11, 56
1, 16057, Control_c, 8, 11, 56
1, 16059, Control_c, 7, 11, 54
1, 16059, Control_c, 8, 11, 54
1, 16060, Control_c, 7, 11, 52
1, 16060, Control_c, 8, 11, 52
1, 16062, Control_c, 7, 11, 50
1, 16062, Control_c, 8, 11, 50
1, 16064, Control_c, 7, 11, 47
1, 16064, Control_c, 8, 11, 47
1, 16065, Control_c, 7, 11, 45
1, 16065, Control_c, 8, 11, 45
1, 16067, Control_c, 7, 11, 42
1, 16067, Control_c, 8, 11, 42
1, 16068, Control_c, 7, 11, 39
1, 16068, Control_c, 8, 11, 39
1, 16070, Control_c, 7, 11, 36
1, 16070, Control_c, 8, 11, 36
1, 16072, Control_c, 7, 11, 34
1, 16072, Control_c, 8, 11, 34
1, 16073, Control_c, 7, 11, 31
1, 16073, Control_c, 8, 11, 31
1, 16075, Control_c, 7, 11, 28
1, 16075, Control_c, 8, 11, 28
1, 16076, Note_on_c, 1, 29, 0
1, 16077, Control_c, 7, 11, 25
1, 16077, Control_c, 8, 11, 25
1, 16078, Control_c, 7, 11, 22
1, 16078, Control_c, 8, 11, 22
1, 16079, Note_on_c, 3, 68, 0
1, 16079, Note_on_c, 4, 68, 0
1, 16079, Note_on_c, 4, 60, 62
1, 16080, Note_on_c, 1, 36, 116
1, 16080, Control_c, 7, 11, 19
1, 16080, Control_c, 8, 11, 19
1, 16080, Note_on_c, 9, 42, 107
1, 16081, Note_on_c, 9, 42, 0
1, 16081, Note_on_c, 3, 60, 105
1, 16081, Control_c, 7, 11, 15
1, 16081, Control_c, 8, 11, 15
1, 16083, Control_c, 7, 11, 12
1, 16083, Control_c, 8, 11, 12
1, 16085, Control_c, 7, 11, 7
1, 16085, Control_c, 8, 11, 7
1, 16086, Control_c, 7, 11, 1
1, 16086, Control_c, 8, 11, 1
1, 16097, Note_on_c, 7, 70, 0
1, 16097, Note_on_c, 8, 70, 0
1, 16098, Note_on_c, 1, 36, 0
1, 16101, Note_on_c, 4, 60, 0
1, 16101, Note_on_c, 3, 60, 0
1, 16101, Note_on_c, 4, 61, 62
1, 16102, Control_c, 7, 11, 5
1, 16102, Control_c, 8, 11, 5
1, 16104, Note_on_c, 1, 32, 116
1, 16104, Control_c, 7, 11, 11
1, 16104, Control_c, 8, 11, 11
1, 16104, Note_on_c, 9, 35, 75
1, 16104, Note_on_c, 9, 46, 77
1, 16105, Note_on_c, 9, 46, 0
1, 16105, Note_on_c, 9, 35, 0
1, 16105, Note_on_c, 3, 61, 98
1, 16106, Control_c, 7, 11, 19
1, 16106, Control_c, 8, 11, 19
1, 16108, Control_c, 7, 11, 26
1, 16108, Control_c, 8, 11, 26
1, 16109, Control_c, 7, 11, 36
1, 16109, Control_c, 8, 11, 36
1, 16111, Control_c, 7, 11, 45
1, 16111, Control_c, 8, 11, 45
1, 16112, Control_c, 7, 11, 55
1, 16112, Control_c, 8, 11, 55
1, 16114, Control_c, 7, 11, 65
1, 16114, Control_c, 8, 11, 65
1, 16116, Control_c, 7, 11, 76
1, 16116, Control_c, 8, 11, 76
1, 16117, Control_c, 7, 11, 89
1, 16117, Control_c, 8, 11, 89
1, 16119, Control_c, 7, 11, 102
1, 16119, Control_c, 8, 11, 102
1, 16121, Control_c, 7, 11, 123
1, 16121, Control_c, 8, 11, 123
1, 16122, Control_c, 7, 11, 127
1, 16122, Control_c, 8, 11, 127
1, 16123, Note_on_c, 0, 63, 0
1, 16123, Note_on_c, 0, 56, 0
1, 16123, Note_on_c, 0, 41, 0
1, 16123, Note_on_c, 0, 53, 0
1, 16123, Note_on_c, 0, 48, 0
1, 16123, Note_on_c, 0, 60, 0
1, 16127, Note_on_c, 0, 46, 91
1, 16128, Note_on_c, 1, 34, 117
1, 16128, Note_on_c, 9, 42, 101
1, 16128, Note_on_c, 9, 35, 115
1, 16129, Note_on_c, 9, 35, 0
1, 16129, Note_on_c, 9, 42, 0
1, 16129, Note_on_c, 1, 32, 0
1, 16130, Note_on_c, 3, 61, 0
1, 16130, Note_on_c, 2, 56, 0
1, 16130, Note_on_c, 2, 61, 72
1, 16130, Note_on_c, 2, 58, 64
1, 16131, Note_on_c, 2, 60, 0
1, 16143, Note_on_c, 0, 46, 0
1, 16146, Note_on_c, 1, 34, 0
1, 16151, Note_on_c, 0, 61, 120
1, 16151, Note_on_c, 0, 65, 120
1, 16151, Note_on_c, 0, 58, 120
1, 16151, Note_on_c, 0, 56, 120
1, 16152, Note_on_c, 1, 34, 116
1, 16152, Note_on_c, 9, 42, 44
1, 16153, Note_on_c, 9, 42, 0
1, 16154, Note_on_c, 7, 60, 94
1, 16154, Note_on_c, 8, 60, 94
1, 16166, Note_on_c, 0, 61, 0
1, 16167, Note_on_c, 0, 58, 0
1, 16167, Note_on_c, 0, 65, 0
1, 16169, Note_on_c, 0, 56, 0
1, 16172, Note_on_c, 1, 34, 0
1, 16174, Note_on_c, 7, 60, 0
1, 16175, Note_on_c, 0, 63, 79
1, 16175, Note_on_c, 0, 58, 66
1, 16175, Note_on_c, 0, 55, 70
1, 16175, Note_on_c, 0, 60, 75
1, 16176, Note_on_c, 9, 42, 75
1, 16177, Note_on_c, 9, 42, 0
1, 16179, Note_on_c, 8, 60, 0
1, 16187, Note_on_c, 0, 60, 0
1, 16188, Note_on_c, 0, 55, 0
1, 16188, Note_on_c, 0, 58, 0
1, 16189, Note_on_c, 0, 63, 0
1, 16196, Note_on_c, 4, 61, 0
1, 16199, Note_on_c, 0, 46, 74
1, 16200, Note_on_c, 9, 42, 73
1, 16201, Note_on_c, 9, 42, 0
1, 16201, Note_on_c, 7, 61, 96
1, 16201, Note_on_c, 8, 61, 96
1, 16204, Note_on_c, 0, 46, 0
1, 16222, Note_on_c, 7, 61, 0
1, 16222, Note_on_c, 8, 61, 0
1, 16223, Note_on_c, 0, 61, 119
1, 16223, Note_on_c, 0, 56, 119
1, 16224, Note_on_c, 0, 65, 119
1, 16224, Note_on_c, 0, 58, 119
1, 16224, Note_on_c, 9, 42, 115
1, 16224, Note_on_c, 9, 40, 115
1, 16225, Note_on_c, 9, 40, 0
1, 16225, Note_on_c, 9, 42, 0
1, 16241, Note_on_c, 0, 61, 0
1, 16245, Note_on_c, 0, 65, 0
1, 16246, Note_on_c, 0, 58, 0
1, 16247, Note_on_c, 0, 46, 79
1, 16247, Note_on_c, 7, 70, 64
1, 16247, Note_on_c, 8, 70, 74
1, 16248, Note_on_c, 0, 56, 0
1, 16248, Note_on_c, 9, 42, 60
1, 16249, Note_on_c, 9, 42, 0
1, 16251, Note_on_c, 0, 46, 0
1, 16251, Note_on_c, 7, 72, 87
1, 16251, Note_on_c, 8, 72, 87
1, 16258, Note_on_c, 7, 70, 0
1, 16258, Note_on_c, 8, 70, 0
1, 16269, Note_on_c, 7, 72, 0
1, 16270, Note_on_c, 8, 72, 0
1, 16271, Note_on_c, 0, 58, 67
1, 16271, Note_on_c, 0, 55, 80
1, 16271, Note_on_c, 0, 63, 78
1, 16271, Note_on_c, 0, 60, 84
1, 16272, Note_on_c, 1, 34, 116
1, 16272, Note_on_c, 9, 42, 95
1, 16273, Note_on_c, 9, 42, 0
1, 16283, Note_on_c, 0, 60, 0
1, 16285, Note_on_c, 0, 55, 0
1, 16288, Note_on_c, 0, 58, 0
1, 16289, Note_on_c, 0, 63, 0
1, 16293, Note_on_c, 1, 34, 0
1, 16295, Note_on_c, 7, 68, 85
1, 16295, Note_on_c, 8, 68, 85
1, 16296, Note_on_c, 1, 37, 116
1, 16296, Note_on_c, 9, 42, 62
1, 16296, Note_on_c, 9, 35, 86
1, 16297, Note_on_c, 9, 35, 0
1, 16297, Note_on_c, 9, 42, 0
1, 16297, Note_on_c, 0, 56, 110
1, 16297, Note_on_c, 0, 61, 110
1, 16297, Note_on_c, 0, 58, 110
1, 16297, Note_on_c, 0, 65, 110
1, 16307, Note_on_c, 0, 58, 0
1, 16308, Note_on_c, 0, 61, 0
1, 16310, Note_on_c, 0, 65, 0
1, 16311, Note_on_c, 0, 56, 0
1, 16317, Note_on_c, 2, 56, 74
1, 16319, Note_on_c, 0, 39, 77
1, 16320, Note_on_c, 1, 39, 118
1, 16320, Note_on_c, 3, 72, 118
1, 16320, Note_on_c, 4, 72, 82
1, 16320, Note_on_c, 4, 68, 45
1, 16320, Note_on_c, 4, 65, 48
1, 16320, Note_on_c, 9, 42, 111
1, 16320, Note_on_c, 9, 35, 115
1, 16321, Note_on_c, 9, 35, 0
1, 16321, Note_on_c, 2, 58, 0
1, 16321, Note_on_c, 9, 42, 0
1, 16321, Note_on_c, 1, 37, 0
1, 16336, Note_on_c, 1, 39, 0
1, 16338, Note_on_c, 3, 72, 0
1, 16343, Note_on_c, 4, 72, 0
1, 16343, Note_on_c, 4, 68, 0
1, 16343, Note_on_c, 4, 65, 0
1, 16344, Note_on_c, 0, 65, 72
1, 16344, Note_on_c, 0, 61, 72
1, 16344, Note_on_c, 0, 51, 72
1, 16344, Note_on_c, 0, 58, 72
1, 16344, Note_on_c, 0, 56, 72
1, 16344, Note_on_c, 1, 39, 118
1, 16344, Note_on_c, 3, 72, 99
1, 16344, Note_on_c, 4, 68, 38
1, 16344, Note_on_c, 4, 72, 83
1, 16344, Note_on_c, 4, 65, 48
1, 16344, Note_on_c, 9, 42, 69
1, 16345, Note_on_c, 9, 42, 0
1, 16359, Note_on_c, 3, 72, 0
1, 16367, Note_on_c, 4, 65, 0
1, 16367, Note_on_c, 1, 39, 0
1, 16367, Note_on_c, 4, 72, 0
1, 16367, Note_on_c, 4, 68, 0
1, 16367, Note_on_c, 3, 72, 101
1, 16368, Note_on_c, 4, 72, 85
1, 16368, Note_on_c, 4, 68, 51
1, 16368, Note_on_c, 4, 65, 49
1, 16368, Note_on_c, 9, 42, 98
1, 16369, Note_on_c, 9, 42, 0
1, 16388, Note_on_c, 3, 72, 0
1, 16390, Note_on_c, 7, 68, 0
1, 16390, Note_on_c, 8, 68, 0
1, 16390, Note_on_c, 7, 67, 70
1, 16390, Note_on_c, 8, 67, 70
1, 16391, Note_on_c, 3, 70, 118
1, 16392, Note_on_c, 0, 39, 0
1, 16392, Note_on_c, 4, 68, 0
1, 16392, Note_on_c, 4, 72, 0
1, 16392, Note_on_c, 4, 65, 0
1, 16392, Note_on_c, 4, 70, 86
1, 16392, Note_on_c, 4, 67, 54
1, 16392, Note_on_c, 4, 63, 49
1, 16392, Note_on_c, 9, 42, 66
1, 16393, Note_on_c, 9, 42, 0
1, 16393, Note_on_c, 0, 39, 52
1, 16401, Note_on_c, 7, 68, 64
1, 16401, Note_on_c, 8, 68, 64
1, 16405, Note_on_c, 7, 67, 0
1, 16405, Note_on_c, 8, 67, 0
1, 16412, Note_on_c, 2, 56, 0
1, 16412, Note_on_c, 7, 67, 76
1, 16412, Note_on_c, 8, 67, 76
1, 16414, Note_on_c, 2, 65, 0
1, 16414, Note_on_c, 2, 58, 69
1, 16415, Note_on_c, 0, 61, 0
1, 16415, Note_on_c, 2, 61, 0
1, 16415, Note_on_c, 0, 51, 0
1, 16415, Note_on_c, 0, 65, 0
1, 16415, Note_on_c, 0, 58, 0
1, 16415, Note_on_c, 0, 56, 0
1, 16415, Note_on_c, 0, 39, 0
1, 16416, Note_on_c, 8, 68, 0
1, 16416, Note_on_c, 7, 68, 0
1, 16416, Note_on_c, 0, 63, 68
1, 16416, Note_on_c, 0, 51, 68
1, 16416, Note_on_c, 0, 55, 68
1, 16416, Note_on_c, 0, 58, 68
1, 16416, Note_on_c, 0, 39, 68
1, 16416, Note_on_c, 0, 61, 68
1, 16416, Note_on_c, 9, 42, 111
1, 16416, Note_on_c, 9, 40, 115
1, 16417, Note_on_c, 9, 40, 0
1, 16417, Note_on_c, 9, 42, 0
1, 16418, Note_on_c, 2, 67, 72
1, 16418, Note_on_c, 2, 63, 75
1, 16440, Note_on_c, 1, 27, 118
1, 16440, Note_on_c, 9, 35, 110
1, 16440, Note_on_c, 9, 42, 56
1, 16441, Note_on_c, 9, 42, 0
1, 16441, Note_on_c, 9, 35, 0
1, 16454, Note_on_c, 0, 58, 0
1, 16454, Note_on_c, 0, 61, 0
1, 16455, Note_on_c, 0, 55, 0
1, 16455, Note_on_c, 1, 27, 0
1, 16455, Note_on_c, 0, 63, 0
1, 16457, Note_on_c, 3, 70, 0
1, 16463, Note_on_c, 0, 63, 71
1, 16463, Note_on_c, 3, 68, 104
1, 16464, Note_on_c, 4, 70, 0
1, 16464, Note_on_c, 4, 67, 0
1, 16464, Note_on_c, 4, 63, 0
1, 16464, Note_on_c, 0, 55, 70
1, 16464, Note_on_c, 0, 61, 67
1, 16464, Note_on_c, 0, 58, 64
1, 16464, Note_on_c, 1, 29, 118
1, 16464, Note_on_c, 4, 65, 47
1, 16464, Note_on_c, 4, 61, 51
1, 16464, Note_on_c, 4, 68, 74
1, 16464, Note_on_c, 9, 42, 115
1, 16465, Note_on_c, 9, 42, 0
1, 16484, Note_on_c, 3, 68, 0
1, 16485, Note_on_c, 1, 29, 0
1, 16487, Note_on_c, 0, 51, 0
1, 16487, Note_on_c, 3, 70, 107
1, 16488, Note_on_c, 4, 68, 0
1, 16488, Note_on_c, 4, 61, 0
1, 16488, Note_on_c, 4, 65, 0
1, 16488, Note_on_c, 0, 51, 93
1, 16488, Note_on_c, 1, 31, 118
1, 16488, Note_on_c, 4, 66, 37
1, 16488, Note_on_c, 4, 63, 51
1, 16488, Note_on_c, 4, 70, 77
1, 16488, Note_on_c, 9, 46, 66
1, 16488, Note_on_c, 9, 35, 85
1, 16489, Note_on_c, 9, 35, 0
1, 16489, Note_on_c, 9, 46, 0
1, 16500, Note_on_c, 2, 63, 0
1, 16506, Note_on_c, 0, 39, 0
1, 16506, Note_on_c, 0, 61, 0
1, 16506, Note_on_c, 0, 63, 0
1, 16506, Note_on_c, 0, 55, 0
1, 16506, Note_on_c, 0, 51, 0
1, 16506, Note_on_c, 0, 58, 0
1, 16507, Note_on_c, 7, 67, 0
1, 16507, Note_on_c, 8, 67, 0
1, 16508, Note_on_c, 2, 58, 0
1, 16510, Note_on_c, 2, 67, 0
1, 16511, Note_on_c, 0, 44, 101
1, 16511, Note_on_c, 2, 63, 64
1, 16512, Note_on_c, 1, 31, 0
1, 16512, Note_on_c, 1, 32, 118
1, 16512, Note_on_c, 9, 42, 95
1, 16512, Note_on_c, 9, 35, 115
1, 16513, Note_on_c, 9, 35, 0
1, 16513, Note_on_c, 9, 42, 0
1, 16513, Note_on_c, 2, 56, 84
1, 16513, Note_on_c, 7, 66, 67
1, 16513, Note_on_c, 8, 66, 67
1, 16514, Note_on_c, 2, 66, 64
1, 16519, Note_on_c, 0, 44, 0
1, 16520, Note_on_c, 3, 70, 0
1, 16528, Note_on_c, 1, 32, 0
1, 16535, Note_on_c, 0, 63, 120
1, 16535, Note_on_c, 0, 56, 120
1, 16535, Note_on_c, 0, 54, 120
1, 16535, Note_on_c, 0, 59, 120
1, 16536, Note_on_c, 1, 32, 118
1, 16536, Note_on_c, 9, 42, 46
1, 16537, Note_on_c, 9, 42, 0
1, 16546, Note_on_c, 0, 59, 0
1, 16548, Note_on_c, 0, 56, 0
1, 16552, Note_on_c, 0, 54, 0
1, 16552, Note_on_c, 0, 63, 0
1, 16559, Note_on_c, 0, 61, 78
1, 16559, Note_on_c, 0, 58, 67
1, 16559, Note_on_c, 0, 53, 78
1, 16559, Note_on_c, 0, 56, 65
1, 16560, Note_on_c, 7, 66, 0
1, 16560, Note_on_c, 1, 32, 0
1, 16560, Note_on_c, 7, 73, 66
1, 16560, Note_on_c, 9, 42, 98
1, 16561, Note_on_c, 9, 42, 0
1, 16561, Note_on_c, 8, 73, 70
1, 16569, Note_on_c, 0, 58, 0
1, 16572, Note_on_c, 0, 56, 0
1, 16573, Note_on_c, 0, 61, 0
1, 16574, Note_on_c, 0, 53, 0
1, 16579, Note_on_c, 7, 73, 0
1, 16581, Note_on_c, 8, 73, 0
1, 16583, Note_on_c, 0, 44, 75
1, 16584, Note_on_c, 9, 42, 75
1, 16585, Note_on_c, 9, 42, 0
1, 16586, Note_on_c, 7, 70, 62
1, 16587, Note_on_c, 0, 44, 0
1, 16587, Note_on_c, 8, 70, 72
1, 16602, Note_on_c, 7, 70, 0
1, 16608, Note_on_c, 4, 70, 0
1, 16608, Note_on_c, 4, 66, 0
1, 16608, Note_on_c, 4, 63, 0
1, 16608, Note_on_c, 0, 63, 122
1, 16608, Note_on_c, 0, 54, 122
1, 16608, Note_on_c, 0, 56, 122
1, 16608, Note_on_c, 0, 59, 122
1, 16608, Note_on_c, 9, 42, 115
1, 16608, Note_on_c, 9, 40, 115
1, 16609, Note_on_c, 9, 40, 0
1, 16609, Note_on_c, 9, 42, 0
1, 16612, Note_on_c, 8, 70, 0
1, 16623, Note_on_c, 0, 59, 0
1, 16628, Note_on_c, 0, 56, 0
1, 16629, Note_on_c, 0, 54, 0
1, 16632, Note_on_c, 0, 44, 61
1, 16632, Note_on_c, 1, 32, 119
1, 16632, Note_on_c, 9, 42, 66
1, 16633, Note_on_c, 9, 42, 0
1, 16634, Note_on_c, 0, 44, 0
1, 16635, Note_on_c, 0, 63, 0
1, 16635, Note_on_c, 7, 66, 61
1, 16655, Note_on_c, 0, 56, 97
1, 16656, Note_on_c, 0, 61, 97
1, 16656, Note_on_c, 0, 58, 91
1, 16656, Note_on_c, 1, 34, 119
1, 16656, Note_on_c, 9, 42, 104
1, 16657, Note_on_c, 9, 42, 0
1, 16657, Note_on_c, 0, 53, 95
1, 16660, Note_on_c, 1, 32, 0
1, 16669, Note_on_c, 0, 53, 0
1, 16671, Note_on_c, 0, 56, 0
1, 16672, Note_on_c, 0, 61, 0
1, 16674, Note_on_c, 0, 58, 0
1, 16677, Note_on_c, 1, 34, 0
1, 16679, Note_on_c, 3, 61, 97
1, 16680, Note_on_c, 1, 35, 119
1, 16680, Note_on_c, 4, 61, 67
1, 16680, Note_on_c, 9, 35, 83
1, 16680, Note_on_c, 9, 42, 55
1, 16681, Note_on_c, 9, 42, 0
1, 16681, Note_on_c, 9, 35, 0
1, 16681, Note_on_c, 0, 54, 110
1, 16681, Note_on_c, 0, 59, 110
1, 16681, Note_on_c, 0, 63, 110
1, 16681, Note_on_c, 0, 56, 110
1, 16693, Note_on_c, 0, 59, 0
1, 16694, Note_on_c, 0, 56, 0
1, 16696, Note_on_c, 0, 54, 0
1, 16697, Note_on_c, 3, 61, 0
1, 16699, Note_on_c, 0, 63, 0
1, 16703, Note_on_c, 3, 70, 114
1, 16704, Note_on_c, 4, 61, 0
1, 16704, Note_on_c, 2, 56, 0
1, 16704, Note_on_c, 0, 37, 79
1, 16704, Note_on_c, 1, 37, 119
1, 16704, Note_on_c, 2, 59, 77
1, 16704, Note_on_c, 4, 70, 83
1, 16704, Note_on_c, 4, 66, 47
1, 16704, Note_on_c, 4, 63, 47
1, 16704, Note_on_c, 9, 42, 111
1, 16704, Note_on_c, 9, 35, 115
1, 16705, Note_on_c, 9, 35, 0
1, 16705, Note_on_c, 9, 42, 0
1, 16706, Note_on_c, 1, 35, 0
1, 16719, Note_on_c, 1, 37, 0
1, 16723, Note_on_c, 3, 70, 0
1, 16727, Note_on_c, 4, 70, 0
1, 16727, Note_on_c, 4, 66, 0
1, 16727, Note_on_c, 4, 63, 0
1, 16727, Note_on_c, 0, 54, 73
1, 16727, Note_on_c, 0, 49, 73
1, 16727, Note_on_c, 0, 63, 73
1, 16727, Note_on_c, 0, 59, 73
1, 16727, Note_on_c, 0, 56, 73
1, 16727, Note_on_c, 3, 70, 90
1, 16728, Note_on_c, 1, 37, 119
1, 16728, Note_on_c, 4, 66, 47
1, 16728, Note_on_c, 4, 63, 47
1, 16728, Note_on_c, 4, 70, 68
1, 16728, Note_on_c, 9, 42, 70
1, 16729, Note_on_c, 9, 42, 0
1, 16743, Note_on_c, 3, 70, 0
1, 16751, Note_on_c, 4, 70, 0
1, 16751, Note_on_c, 4, 63, 0
1, 16751, Note_on_c, 4, 66, 0
1, 16752, Note_on_c, 3, 70, 104
1, 16752, Note_on_c, 4, 70, 70
1, 16752, Note_on_c, 4, 66, 47
1, 16752, Note_on_c, 4, 63, 47
1, 16752, Note_on_c, 9, 42, 92
1, 16753, Note_on_c, 9, 42, 0
1, 16753, Note_on_c, 1, 37, 0
1, 16770, Note_on_c, 3, 70, 0
1, 16775, Note_on_c, 3, 68, 107
1, 16776, Note_on_c, 4, 70, 0
1, 16776, Note_on_c, 4, 63, 0
1, 16776, Note_on_c, 0, 37, 0
1, 16776, Note_on_c, 4, 66, 0
1, 16776, Note_on_c, 4, 68, 69
1, 16776, Note_on_c, 4, 65, 47
1, 16776, Note_on_c, 4, 61, 47
1, 16776, Note_on_c, 9, 42, 58
1, 16777, Note_on_c, 9, 42, 0
1, 16777, Note_on_c, 0, 37, 67
1, 16789, Note_on_c, 7, 66, 0
1, 16796, Note_on_c, 2, 66, 0
1, 16798, Note_on_c, 2, 65, 80
1, 16799, Note_on_c, 0, 63, 0
1, 16799, Note_on_c, 2, 63, 0
1, 16799, Note_on_c, 0, 49, 0
1, 16799, Note_on_c, 0, 56, 0
1, 16799, Note_on_c, 0, 59, 0
1, 16799, Note_on_c, 0, 37, 0
1, 16799, Note_on_c, 0, 54, 0
1, 16799, Note_on_c, 2, 56, 81
1, 16800, Note_on_c, 8, 66, 0
1, 16800, Note_on_c, 9, 42, 107
1, 16800, Note_on_c, 9, 40, 115
1, 16801, Note_on_c, 9, 40, 0
1, 16801, Note_on_c, 9, 42, 0
1, 16801, Note_on_c, 0, 61, 77
1, 16801, Note_on_c, 0, 56, 77
1, 16801, Note_on_c, 0, 49, 77
1, 16801, Note_on_c, 0, 59, 77
1, 16801, Note_on_c, 0, 37, 77
1, 16801, Note_on_c, 0, 53, 77
1, 16801, Note_on_c, 8, 65, 73
1, 16824, Note_on_c, 1, 37, 119
1, 16824, Note_on_c, 9, 35, 115
1, 16824, Note_on_c, 9, 42, 52
1, 16825, Note_on_c, 9, 42, 0
1, 16825, Note_on_c, 9, 35, 0
1, 16840, Note_on_c, 3, 68, 0
1, 16847, Note_on_c, 3, 66, 104
1, 16848, Note_on_c, 4, 68, 0
1, 16848, Note_on_c, 1, 37, 0
1, 16848, Note_on_c, 4, 65, 0
1, 16848, Note_on_c, 4, 61, 0
1, 16848, Note_on_c, 1, 32, 119
1, 16848, Note_on_c, 4, 59, 45
1, 16848, Note_on_c, 4, 63, 45
1, 16848, Note_on_c, 4, 66, 65
1, 16848, Note_on_c, 9, 42, 98
1, 16849, Note_on_c, 9, 42, 0
1, 16868, Note_on_c, 1, 32, 0
1, 16869, Note_on_c, 3, 66, 0
1, 16872, Note_on_c, 4, 63, 0
1, 16872, Note_on_c, 4, 59, 0
1, 16872, Note_on_c, 4, 66, 0
1, 16872, Note_on_c, 1, 29, 119
1, 16872, Note_on_c, 3, 68, 110
1, 16872, Note_on_c, 4, 68, 71
1, 16872, Note_on_c, 4, 61, 44
1, 16872, Note_on_c, 4, 65, 44
1, 16872, Note_on_c, 9, 35, 110
1, 16872, Note_on_c, 9, 46, 75
1, 16873, Note_on_c, 9, 46, 0
1, 16873, Note_on_c, 9, 35, 0
1, 16891, Note_on_c, 2, 59, 0
1, 16893, Note_on_c, 8, 65, 0
1, 16894, Note_on_c, 2, 56, 0
1, 16894, Note_on_c, 2, 54, 72
1, 16895, Note_on_c, 0, 61, 0
1, 16895, Note_on_c, 0, 49, 0
1, 16895, Note_on_c, 0, 56, 0
1, 16895, Note_on_c, 0, 59, 0
1, 16895, Note_on_c, 0, 53, 0
1, 16895, Note_on_c, 0, 37, 0
1, 16895, Note_on_c, 2, 58, 59
1, 16896, Note_on_c, 1, 29, 0
1, 16896, Note_on_c, 0, 49, 92
1, 16896, Note_on_c, 0, 61, 92
1, 16896, Note_on_c, 0, 65, 92
1, 16896, Note_on_c, 0, 58, 92
1, 16896, Note_on_c, 0, 42, 92
1, 16896, Note_on_c, 0, 56, 92
1, 16896, Note_on_c, 1, 30, 119
1, 16896, Note_on_c, 9, 35, 115
1, 16896, Note_on_c, 9, 42, 107
1, 16897, Note_on_c, 9, 42, 0
1, 16897, Note_on_c, 9, 35, 0
1, 16897, Note_on_c, 8, 61, 68
1, 16909, Note_on_c, 1, 30, 0
1, 16920, Note_on_c, 1, 30, 119
1, 16920, Note_on_c, 9, 42, 56
1, 16921, Note_on_c, 9, 42, 0
1, 16934, Note_on_c, 1, 30, 0
1, 16944, Note_on_c, 1, 30, 119
1, 16944, Note_on_c, 9, 42, 65
1, 16945, Note_on_c, 9, 42, 0
1, 16960, Note_on_c, 1, 30, 0
1, 16968, Note_on_c, 1, 30, 119
1, 16968, Note_on_c, 9, 42, 66
1, 16969, Note_on_c, 9, 42, 0
1, 16984, Note_on_c, 1, 30, 0
1, 16990, Note_on_c, 0, 65, 0
1, 16990, Note_on_c, 0, 61, 0
1, 16990, Note_on_c, 0, 58, 0
1, 16990, Note_on_c, 0, 56, 0
1, 16991, Note_on_c, 4, 61, 0
1, 16991, Note_on_c, 4, 68, 0
1, 16991, Note_on_c, 4, 65, 0
1, 16991, Note_on_c, 0, 56, 96
1, 16991, Note_on_c, 0, 58, 96
1, 16991, Note_on_c, 0, 61, 96
1, 16991, Note_on_c, 0, 65, 96
1, 16992, Note_on_c, 1, 30, 119
1, 16992, Note_on_c, 9, 42, 98
1, 16992, Note_on_c, 9, 40, 115
1, 16993, Note_on_c, 9, 40, 0
1, 16993, Note_on_c, 9, 42, 0
1, 17006, Note_on_c, 1, 30, 0
1, 17016, Note_on_c, 1, 30, 119
1, 17016, Note_on_c, 9, 42, 83
1, 17016, Note_on_c, 9, 47, 74
1, 17017, Note_on_c, 9, 47, 0
1, 17017, Note_on_c, 9, 42, 0
1, 17021, Note_on_c, 3, 68, 0
1, 17027, Note_on_c, 1, 30, 0
1, 17028, Note_on_c, 9, 45, 92
1, 17029, Note_on_c, 9, 45, 0
1, 17040, Note_on_c, 1, 30, 119
1, 17040, Note_on_c, 9, 46, 98
1, 17041, Note_on_c, 9, 46, 0
1, 17041, Note_on_c, 9, 41, 115
1, 17042, Note_on_c, 9, 41, 0
1, 17051, Note_on_c, 1, 30, 0
1, 17064, Note_on_c, 1, 30, 119
1, 17082, Note_on_c, 1, 30, 0
1, 17085, Note_on_c, 2, 54, 0
1, 17085, Note_on_c, 2, 65, 0
1, 17085, Note_on_c, 2, 59, 83
1, 17086, Note_on_c, 0, 56, 0
1, 17086, Note_on_c, 0, 61, 0
1, 17086, Note_on_c, 0, 58, 0
1, 17086, Note_on_c, 2, 58, 0
1, 17086, Note_on_c, 0, 49, 0
1, 17086, Note_on_c, 0, 65, 0
1, 17086, Note_on_c, 0, 42, 0
1, 17086, Note_on_c, 2, 56, 94
1, 17086, Note_on_c, 2, 63, 78
1, 17088, Note_on_c, 8, 61, 0
1, 17088, Note_on_c, 0, 51, 96
1, 17088, Note_on_c, 0, 54, 96
1, 17088, Note_on_c, 0, 63, 96
1, 17088, Note_on_c, 0, 44, 96
1, 17088, Note_on_c, 0, 59, 96
1, 17088, Note_on_c, 0, 56, 96
1, 17088, Note_on_c, 1, 32, 120
1, 17088, Note_on_c, 3, 66, 110
1, 17088, Note_on_c, 4, 63, 42
1, 17088, Note_on_c, 4, 66, 74
1, 17088, Note_on_c, 4, 59, 42
1, 17088, Note_on_c, 8, 59, 88
1, 17088, Note_on_c, 8, 63, 91
1, 17088, Note_on_c, 9, 35, 115
1, 17089, Note_on_c, 9, 35, 0
1, 17089, Note_on_c, 9, 49, 79
1, 17090, Note_on_c, 9, 49, 0
1, 17132, Note_on_c, 1, 32, 0
1, 17136, Note_on_c, 1, 30, 120
1, 17160, Note_on_c, 1, 32, 120
1, 17163, Note_on_c, 1, 30, 0
1, 17174, Note_on_c, 3, 66, 0
1, 17180, Note_on_c, 8, 63, 0
1, 17180, Note_on_c, 2, 59, 0
1, 17180, Note_on_c, 2, 56, 0
1, 17181, Note_on_c, 2, 63, 0
1, 17181, Note_on_c, 2, 61, 86
1, 17181, Note_on_c, 2, 58, 79
1, 17181, Note_on_c, 2, 65, 77
1, 17182, Note_on_c, 1, 32, 0
1, 17183, Note_on_c, 8, 59, 0
1, 17183, Note_on_c, 3, 68, 118
1, 17184, Note_on_c, 4, 63, 0
1, 17184, Note_on_c, 0, 56, 0
1, 17184, Note_on_c, 4, 59, 0
1, 17184, Note_on_c, 4, 66, 0
1, 17184, Note_on_c, 0, 61, 96
1, 17184, Note_on_c, 1, 34, 120
1, 17184, Note_on_c, 4, 65, 48
1, 17184, Note_on_c, 4, 68, 93
1, 17184, Note_on_c, 4, 61, 47
1, 17184, Note_on_c, 8, 61, 95
1, 17184, Note_on_c, 8, 65, 95
1, 17184, Note_on_c, 9, 35, 115
1, 17185, Note_on_c, 9, 35, 0
1, 17185, Note_on_c, 0, 63, 0
1, 17185, Note_on_c, 0, 59, 0
1, 17185, Note_on_c, 0, 54, 0
1, 17185, Note_on_c, 0, 51, 0
1, 17185, Note_on_c, 0, 44, 0
1, 17185, Note_on_c, 0, 58, 96
1, 17185, Note_on_c, 0, 65, 96
1, 17185, Note_on_c, 0, 46, 96
1, 17185, Note_on_c, 0, 56, 96
1, 17185, Note_on_c, 9, 57, 76
1, 17186, Note_on_c, 9, 57, 0
1, 17209, Note_on_c, 2, 77, 124
1, 17220, Note_on_c, 2, 79, 124
1, 17221, Note_on_c, 1, 34, 0
1, 17224, Note_on_c, 2, 77, 0
1, 17231, Note_on_c, 2, 81, 124
1, 17232, Note_on_c, 1, 32, 120
1, 17234, Note_on_c, 2, 79, 0
1, 17244, Note_on_c, 2, 82, 124
1, 17246, Note_on_c, 2, 81, 0
1, 17252, Note_on_c, 1, 32, 0
1, 17256, Note_on_c, 1, 34, 120
1, 17257, Note_on_c, 2, 84, 124
1, 17259, Note_on_c, 2, 82, 0
1, 17264, Note_on_c, 2, 61, 0
1, 17264, Note_on_c, 2, 58, 0
1, 17264, Note_on_c, 2, 65, 0
1, 17267, Note_on_c, 3, 68, 0
1, 17268, Note_on_c, 2, 86, 124
1, 17272, Note_on_c, 2, 84, 0
1, 17276, Note_on_c, 0, 58, 0
1, 17276, Note_on_c, 0, 61, 0
1, 17276, Note_on_c, 0, 46, 0
1, 17276, Note_on_c, 0, 65, 0
1, 17276, Note_on_c, 0, 56, 0
1, 17277, Note_on_c, 2, 86, 0
1, 17278, Note_on_c, 1, 34, 0
1, 17279, Note_on_c, 8, 61, 0
1, 17279, Note_on_c, 8, 65, 0
1, 17279, Note_on_c, 0, 48, 87
1, 17279, Note_on_c, 3, 70, 114
1, 17280, Note_on_c, 4, 61, 0
1, 17280, Note_on_c, 4, 65, 0
1, 17280, Note_on_c, 4, 68, 0
1, 17280, Note_on_c, 0, 58, 61
1, 17280, Note_on_c, 0, 60, 80
1, 17280, Note_on_c, 0, 67, 78
1, 17280, Note_on_c, 1, 36, 120
1, 17280, Note_on_c, 4, 70, 89
1, 17280, Note_on_c, 4, 67, 58
1, 17280, Note_on_c, 4, 63, 58
1, 17280, Note_on_c, 9, 35, 113
1, 17281, Note_on_c, 9, 35, 0
1, 17281, Note_on_c, 0, 63, 47
1, 17281, Note_on_c, 8, 67, 80
1, 17281, Note_on_c, 9, 49, 75
1, 17282, Note_on_c, 9, 49, 0
1, 17282, Note_on_c, 8, 63, 81
1, 17283, Note_on_c, 0, 63, 0
1, 17284, Note_on_c, 0, 58, 0
1, 17284, Note_on_c, 0, 67, 0
1, 17284, Note_on_c, 0, 60, 0
1, 17286, Note_on_c, 2, 63, 67
1, 17287, Note_on_c, 2, 87, 84
1, 17302, Note_on_c, 8, 67, 0
1, 17304, Note_on_c, 0, 48, 0
1, 17304, Note_on_c, 0, 60, 119
1, 17304, Note_on_c, 0, 58, 119
1, 17304, Note_on_c, 0, 63, 119
1, 17304, Note_on_c, 0, 67, 119
1, 17304, Note_on_c, 2, 60, 99
1, 17306, Note_on_c, 8, 63, 0
1, 17307, Note_on_c, 7, 62, 90
1, 17307, Note_on_c, 8, 62, 90
1, 17318, Note_on_c, 0, 60, 0
1, 17318, Note_on_c, 3, 70, 0
1, 17318, Note_on_c, 0, 67, 0
1, 17319, Note_on_c, 0, 63, 0
1, 17320, Note_on_c, 0, 58, 0
1, 17324, Note_on_c, 1, 36, 0
1, 17327, Note_on_c, 7, 62, 0
1, 17328, Note_on_c, 8, 62, 0
1, 17328, Note_on_c, 9, 42, 75
1, 17329, Note_on_c, 9, 42, 0
1, 17329, Note_on_c, 0, 57, 75
1, 17329, Note_on_c, 0, 62, 83
1, 17329, Note_on_c, 0, 60, 73
1, 17329, Note_on_c, 0, 65, 74
1, 17339, Note_on_c, 0, 60, 0
1, 17340, Note_on_c, 0, 62, 0
1, 17340, Note_on_c, 2, 55, 79
1, 17341, Note_on_c, 0, 57, 0
1, 17343, Note_on_c, 0, 65, 0
1, 17351, Note_on_c, 0, 48, 77
1, 17352, Note_on_c, 9, 42, 67
1, 17353, Note_on_c, 9, 42, 0
1, 17356, Note_on_c, 7, 63, 95
1, 17356, Note_on_c, 8, 63, 95
1, 17357, Note_on_c, 0, 48, 0
1, 17375, Note_on_c, 4, 63, 0
1, 17375, Note_on_c, 4, 70, 0
1, 17375, Note_on_c, 4, 67, 0
1, 17376, Note_on_c, 0, 58, 121
1, 17376, Note_on_c, 0, 60, 121
1, 17376, Note_on_c, 0, 67, 121
1, 17376, Note_on_c, 0, 63, 121
1, 17376, Note_on_c, 9, 40, 115
1, 17376, Note_on_c, 9, 42, 107
1, 17377, Note_on_c, 9, 42, 0
1, 17377, Note_on_c, 7, 63, 0
1, 17377, Note_on_c, 9, 40, 0
1, 17379, Note_on_c, 8, 63, 0
1, 17399, Note_on_c, 0, 48, 62
1, 17399, Note_on_c, 7, 72, 77
1, 17399, Note_on_c, 8, 72, 77
1, 17400, Note_on_c, 0, 63, 0
1, 17400, Note_on_c, 9, 42, 72
1, 17401, Note_on_c, 9, 42, 0
1, 17401, Note_on_c, 0, 60, 0
1, 17401, Note_on_c, 0, 67, 0
1, 17401, Note_on_c, 0, 58, 0
1, 17403, Note_on_c, 7, 74, 83
1, 17405, Note_on_c, 8, 74, 83
1, 17406, Note_on_c, 0, 48, 0
1, 17411, Note_on_c, 7, 72, 0
1, 17411, Note_on_c, 8, 72, 0
1, 17421, Note_on_c, 7, 74, 0
1, 17424, Note_on_c, 0, 60, 95
1, 17424, Note_on_c, 0, 65, 92
1, 17424, Note_on_c, 0, 57, 100
1, 17424, Note_on_c, 9, 42, 101
1, 17425, Note_on_c, 9, 42, 0
1, 17425, Note_on_c, 0, 62, 102
1, 17426, Note_on_c, 8, 74, 0
1, 17437, Note_on_c, 0, 57, 0
1, 17439, Note_on_c, 0, 62, 0
1, 17440, Note_on_c, 0, 60, 0
1, 17440, Note_on_c, 0, 65, 0
1, 17448, Note_on_c, 1, 27, 120
1, 17448, Note_on_c, 7, 70, 72
1, 17448, Note_on_c, 8, 70, 72
1, 17448, Note_on_c, 9, 35, 92
1, 17448, Note_on_c, 9, 42, 83
1, 17449, Note_on_c, 9, 42, 0
1, 17449, Note_on_c, 9, 35, 0
1, 17449, Note_on_c, 0, 60, 114
1, 17449, Note_on_c, 0, 58, 114
1, 17449, Note_on_c, 0, 67, 114
1, 17449, Note_on_c, 0, 63, 114
1, 17459, Note_on_c, 2, 60, 0
1, 17466, Note_on_c, 0, 67, 0
1, 17466, Note_on_c, 0, 60, 0
1, 17467, Note_on_c, 0, 63, 0
1, 17468, Note_on_c, 2, 63, 0
1, 17468, Note_on_c, 2, 56, 90
1, 17469, Note_on_c, 0, 58, 0
1, 17470, Note_on_c, 2, 60, 77
1, 17470, Note_on_c, 2, 65, 84
1, 17471, Note_on_c, 2, 55, 0
1, 17471, Note_on_c, 1, 27, 0
1, 17472, Note_on_c, 1, 29, 120
1, 17472, Note_on_c, 3, 70, 110
1, 17472, Note_on_c, 4, 70, 49
1, 17472, Note_on_c, 9, 35, 115
1, 17472, Note_on_c, 9, 42, 111
1, 17473, Note_on_c, 9, 42, 0
1, 17473, Note_on_c, 9, 35, 0
1, 17473, Note_on_c, 0, 41, 80
1, 17489, Note_on_c, 3, 70, 0
1, 17489, Control_c, 7, 11, 126
1, 17489, Control_c, 8, 11, 126
1, 17490, Note_on_c, 1, 29, 0
1, 17492, Control_c, 7, 11, 123
1, 17492, Control_c, 8, 11, 123
1, 17494, Control_c, 7, 11, 121
1, 17494, Control_c, 8, 11, 121
1, 17495, Note_on_c, 4, 70, 0
1, 17495, Note_on_c, 3, 70, 80
1, 17496, Note_on_c, 0, 56, 66
1, 17496, Note_on_c, 1, 29, 121
1, 17496, Note_on_c, 4, 70, 49
1, 17496, Control_c, 7, 11, 120
1, 17496, Control_c, 8, 11, 120
1, 17496, Note_on_c, 9, 42, 65
1, 17497, Note_on_c, 9, 42, 0
1, 17497, Note_on_c, 0, 53, 68
1, 17497, Note_on_c, 0, 65, 58
1, 17497, Note_on_c, 0, 60, 66
1, 17497, Note_on_c, 0, 63, 44
1, 17497, Control_c, 7, 11, 118
1, 17497, Control_c, 8, 11, 118
1, 17499, Control_c, 7, 11, 117
1, 17499, Control_c, 8, 11, 117
1, 17501, Control_c, 7, 11, 115
1, 17501, Control_c, 8, 11, 115
1, 17502, Control_c, 7, 11, 114
1, 17502, Control_c, 8, 11, 114
1, 17504, Control_c, 7, 11, 112
1, 17504, Control_c, 8, 11, 112
1, 17505, Control_c, 7, 11, 111
1, 17505, Control_c, 8, 11, 111
1, 17507, Control_c, 7, 11, 109
1, 17507, Control_c, 8, 11, 109
1, 17509, Control_c, 7, 11, 108
1, 17509, Control_c, 8, 11, 108
1, 17510, Control_c, 7, 11, 106
1, 17510, Control_c, 8, 11, 106
1, 17511, Note_on_c, 3, 70, 0
1, 17512, Control_c, 7, 11, 104
1, 17512, Control_c, 8, 11, 104
1, 17514, Control_c, 7, 11, 102
1, 17514, Control_c, 8, 11, 102
1, 17515, Control_c, 7, 11, 100
1, 17515, Control_c, 8, 11, 100
1, 17517, Control_c, 7, 11, 98
1, 17517, Control_c, 8, 11, 98
1, 17518, Control_c, 7, 11, 95
1, 17518, Control_c, 8, 11, 95
1, 17519, Note_on_c, 4, 70, 0
1, 17519, Note_on_c, 3, 70, 104
1, 17520, Note_on_c, 4, 70, 49
1, 17520, Control_c, 7, 11, 93
1, 17520, Control_c, 8, 11, 93
1, 17520, Note_on_c, 9, 42, 89
1, 17521, Note_on_c, 9, 42, 0
1, 17521, Note_on_c, 1, 29, 0
1, 17522, Control_c, 7, 11, 91
1, 17522, Control_c, 8, 11, 91
1, 17524, Control_c, 7, 11, 89
1, 17524, Control_c, 8, 11, 89
1, 17525, Control_c, 7, 11, 87
1, 17525, Control_c, 8, 11, 87
1, 17527, Control_c, 7, 11, 85
1, 17527, Control_c, 8, 11, 85
1, 17528, Control_c, 7, 11, 83
1, 17528, Control_c, 8, 11, 83
1, 17530, Control_c, 7, 11, 82
1, 17530, Control_c, 8, 11, 82
1, 17532, Control_c, 7, 11, 80
1, 17532, Control_c, 8, 11, 80
1, 17533, Control_c, 7, 11, 78
1, 17533, Control_c, 8, 11, 78
1, 17535, Control_c, 7, 11, 76
1, 17535, Control_c, 8, 11, 76
1, 17536, Note_on_c, 3, 70, 0
1, 17536, Control_c, 7, 11, 74
1, 17536, Control_c, 8, 11, 74
1, 17538, Control_c, 7, 11, 73
1, 17538, Control_c, 8, 11, 73
1, 17539, Control_c, 7, 11, 71
1, 17539, Control_c, 8, 11, 71
1, 17541, Control_c, 7, 11, 69
1, 17541, Control_c, 8, 11, 69
1, 17543, Note_on_c, 0, 65, 0
1, 17543, Note_on_c, 0, 56, 0
1, 17543, Note_on_c, 0, 63, 0
1, 17543, Note_on_c, 0, 60, 0
1, 17543, Note_on_c, 3, 68, 114
1, 17543, Control_c, 7, 11, 67
1, 17543, Control_c, 8, 11, 67
1, 17544, Note_on_c, 4, 70, 0
1, 17544, Note_on_c, 0, 60, 70
1, 17544, Note_on_c, 0, 56, 70
1, 17544, Note_on_c, 0, 65, 70
1, 17544, Note_on_c, 0, 63, 70
1, 17544, Note_on_c, 4, 68, 49
1, 17544, Note_on_c, 9, 42, 65
1, 17545, Note_on_c, 9, 42, 0
1, 17545, Control_c, 7, 11, 65
1, 17545, Control_c, 8, 11, 65
1, 17546, Control_c, 7, 11, 63
1, 17546, Control_c, 8, 11, 63
1, 17548, Control_c, 7, 11, 61
1, 17548, Control_c, 8, 11, 61
1, 17550, Control_c, 7, 11, 59
1, 17550, Control_c, 8, 11, 59
1, 17551, Control_c, 7, 11, 57
1, 17551, Control_c, 8, 11, 57
1, 17553, Control_c, 7, 11, 55
1, 17553, Control_c, 8, 11, 55
1, 17554, Note_on_c, 0, 53, 0
1, 17554, Control_c, 7, 11, 53
1, 17554, Control_c, 8, 11, 53
1, 17556, Control_c, 7, 11, 50
1, 17556, Control_c, 8, 11, 50
1, 17558, Control_c, 7, 11, 48
1, 17558, Control_c, 8, 11, 48
1, 17559, Control_c, 7, 11, 45
1, 17559, Control_c, 8, 11, 45
1, 17561, Control_c, 7, 11, 43
1, 17561, Control_c, 8, 11, 43
1, 17562, Control_c, 7, 11, 40
1, 17562, Control_c, 8, 11, 40
1, 17564, Control_c, 7, 11, 38
1, 17564, Control_c, 8, 11, 38
1, 17566, Control_c, 7, 11, 36
1, 17566, Control_c, 8, 11, 36
1, 17567, Control_c, 7, 11, 34
1, 17567, Control_c, 8, 11, 34
1, 17568, Note_on_c, 9, 40, 115
1, 17568, Note_on_c, 9, 42, 115
1, 17569, Note_on_c, 9, 42, 0
1, 17569, Note_on_c, 9, 40, 0
1, 17569, Control_c, 7, 11, 32
1, 17569, Control_c, 8, 11, 32
1, 17571, Control_c, 7, 11, 30
1, 17571, Control_c, 8, 11, 30
1, 17572, Control_c, 7, 11, 29
1, 17572, Control_c, 8, 11, 29
1, 17574, Control_c, 7, 11, 27
1, 17574, Control_c, 8, 11, 27
1, 17576, Control_c, 7, 11, 26
1, 17576, Control_c, 8, 11, 26
1, 17577, Control_c, 7, 11, 24
1, 17577, Control_c, 8, 11, 24
1, 17579, Control_c, 7, 11, 23
1, 17579, Control_c, 8, 11, 23
1, 17580, Control_c, 7, 11, 21
1, 17580, Control_c, 8, 11, 21
1, 17582, Control_c, 7, 11, 19
1, 17582, Control_c, 8, 11, 19
1, 17584, Control_c, 7, 11, 18
1, 17584, Control_c, 8, 11, 18
1, 17585, Control_c, 7, 11, 16
1, 17585, Control_c, 8, 11, 16
1, 17589, Control_c, 7, 11, 14
1, 17589, Control_c, 8, 11, 14
1, 17592, Note_on_c, 0, 53, 91
1, 17592, Note_on_c, 1, 36, 121
1, 17592, Control_c, 7, 11, 11
1, 17592, Control_c, 8, 11, 11
1, 17592, Note_on_c, 9, 35, 115
1, 17592, Note_on_c, 9, 42, 46
1, 17593, Note_on_c, 9, 42, 0
1, 17593, Note_on_c, 9, 35, 0
1, 17594, Control_c, 7, 11, 10
1, 17594, Control_c, 8, 11, 10
1, 17595, Control_c, 7, 11, 8
1, 17595, Control_c, 8, 11, 8
1, 17597, Note_on_c, 8, 70, 0
1, 17597, Note_on_c, 7, 70, 0
1, 17597, Control_c, 7, 11, 7
1, 17597, Control_c, 8, 11, 7
1, 17610, Control_c, 7, 11, 10
1, 17610, Control_c, 8, 11, 10
1, 17611, Control_c, 7, 11, 14
1, 17611, Control_c, 8, 11, 14
1, 17613, Note_on_c, 3, 68, 0
1, 17613, Control_c, 7, 11, 19
1, 17613, Control_c, 8, 11, 19
1, 17614, Note_on_c, 0, 60, 0
1, 17614, Note_on_c, 0, 56, 0
1, 17614, Note_on_c, 0, 63, 0
1, 17614, Note_on_c, 0, 65, 0
1, 17614, Control_c, 7, 11, 25
1, 17614, Control_c, 8, 11, 25
1, 17615, Note_on_c, 0, 63, 72
1, 17615, Note_on_c, 0, 65, 72
1, 17615, Note_on_c, 0, 60, 72
1, 17615, Note_on_c, 0, 56, 72
1, 17616, Note_on_c, 4, 68, 0
1, 17616, Note_on_c, 1, 36, 0
1, 17616, Note_on_c, 1, 35, 121
1, 17616, Note_on_c, 3, 60, 105
1, 17616, Note_on_c, 4, 60, 47
1, 17616, Control_c, 7, 11, 32
1, 17616, Control_c, 8, 11, 32
1, 17616, Note_on_c, 9, 42, 107
1, 17617, Note_on_c, 9, 42, 0
1, 17618, Control_c, 7, 11, 41
1, 17618, Control_c, 8, 11, 41
1, 17620, Control_c, 7, 11, 51
1, 17620, Control_c, 8, 11, 51
1, 17621, Control_c, 7, 11, 61
1, 17621, Control_c, 8, 11, 61
1, 17623, Control_c, 7, 11, 74
1, 17623, Control_c, 8, 11, 74
1, 17624, Control_c, 7, 11, 90
1, 17624, Control_c, 8, 11, 90
1, 17626, Control_c, 7, 11, 105
1, 17626, Control_c, 8, 11, 105
1, 17628, Control_c, 7, 11, 125
1, 17628, Control_c, 8, 11, 125
1, 17629, Control_c, 7, 11, 127
1, 17629, Control_c, 8, 11, 127
1, 17636, Note_on_c, 3, 60, 0
1, 17638, Note_on_c, 0, 53, 0
1, 17639, Note_on_c, 0, 53, 73
1, 17640, Note_on_c, 1, 35, 0
1, 17640, Note_on_c, 4, 60, 0
1, 17640, Note_on_c, 1, 32, 121
1, 17640, Note_on_c, 3, 61, 107
1, 17640, Note_on_c, 4, 61, 47
1, 17640, Note_on_c, 9, 35, 83
1, 17640, Note_on_c, 9, 46, 77
1, 17641, Note_on_c, 9, 46, 0
1, 17641, Note_on_c, 9, 35, 0
1, 17655, Note_on_c, 0, 63, 0
1, 17655, Note_on_c, 0, 41, 0
1, 17655, Note_on_c, 0, 65, 0
1, 17655, Note_on_c, 0, 56, 0
1, 17655, Note_on_c, 0, 53, 0
1, 17655, Note_on_c, 0, 60, 0
1, 17657, Note_on_c, 2, 56, 0
1, 17657, Note_on_c, 2, 60, 0
1, 17662, Note_on_c, 2, 61, 79
1, 17662, Note_on_c, 2, 58, 72
1, 17664, Note_on_c, 1, 32, 0
1, 17664, Note_on_c, 0, 46, 113
1, 17664, Note_on_c, 1, 34, 121
1, 17664, Note_on_c, 9, 42, 104
1, 17664, Note_on_c, 9, 35, 115
1, 17665, Note_on_c, 9, 35, 0
1, 17665, Note_on_c, 9, 42, 0
1, 17671, Note_on_c, 3, 61, 0
1, 17678, Note_on_c, 1, 34, 0
1, 17687, Note_on_c, 0, 58, 121
1, 17687, Note_on_c, 0, 61, 121
1, 17688, Note_on_c, 0, 56, 122
1, 17688, Note_on_c, 0, 65, 122
1, 17688, Note_on_c, 1, 34, 121
1, 17688, Note_on_c, 9, 42, 67
1, 17689, Note_on_c, 9, 42, 0
1, 17690, Note_on_c, 0, 46, 0
1, 17691, Note_on_c, 7, 60, 81
1, 17691, Note_on_c, 8, 60, 81
1, 17701, Note_on_c, 0, 61, 0
1, 17701, Note_on_c, 0, 58, 0
1, 17702, Note_on_c, 0, 65, 0
1, 17704, Note_on_c, 0, 56, 0
1, 17711, Note_on_c, 7, 60, 0
1, 17712, Note_on_c, 0, 63, 70
1, 17712, Note_on_c, 0, 58, 53
1, 17712, Note_on_c, 9, 42, 89
1, 17713, Note_on_c, 9, 42, 0
1, 17713, Note_on_c, 8, 60, 0
1, 17713, Note_on_c, 0, 60, 76
1, 17713, Note_on_c, 0, 55, 68
1, 17714, Note_on_c, 1, 34, 0
1, 17722, Note_on_c, 0, 58, 0
1, 17723, Note_on_c, 0, 60, 0
1, 17725, Note_on_c, 0, 63, 0
1, 17727, Note_on_c, 0, 55, 0
1, 17735, Note_on_c, 0, 46, 70
1, 17736, Note_on_c, 9, 42, 59
1, 17737, Note_on_c, 9, 42, 0
1, 17739, Note_on_c, 8, 61, 84
1, 17740, Note_on_c, 0, 46, 0
1, 17740, Note_on_c, 7, 61, 84
1, 17760, Note_on_c, 4, 61, 0
1, 17760, Note_on_c, 0, 65, 119
1, 17760, Note_on_c, 0, 58, 119
1, 17760, Note_on_c, 0, 56, 119
1, 17760, Note_on_c, 0, 61, 119
1, 17760, Note_on_c, 9, 42, 115
1, 17760, Note_on_c, 9, 40, 115
1, 17761, Note_on_c, 9, 40, 0
1, 17761, Note_on_c, 7, 61, 0
1, 17761, Note_on_c, 9, 42, 0
1, 17765, Note_on_c, 8, 61, 0
1, 17780, Note_on_c, 0, 61, 0
1, 17783, Note_on_c, 0, 46, 101
1, 17784, Note_on_c, 9, 42, 67
1, 17785, Note_on_c, 9, 42, 0
1, 17785, Note_on_c, 7, 70, 77
1, 17786, Note_on_c, 8, 70, 77
1, 17787, Note_on_c, 0, 65, 0
1, 17789, Note_on_c, 0, 56, 0
1, 17790, Note_on_c, 7, 72, 80
1, 17792, Note_on_c, 0, 58, 0
1, 17792, Note_on_c, 8, 72, 80
1, 17794, Note_on_c, 7, 70, 0
1, 17795, Note_on_c, 8, 70, 0
1, 17807, Note_on_c, 0, 63, 74
1, 17807, Note_on_c, 0, 58, 71
1, 17807, Note_on_c, 0, 55, 87
1, 17808, Note_on_c, 7, 72, 0
1, 17808, Note_on_c, 1, 34, 118
1, 17808, Note_on_c, 9, 42, 111
1, 17809, Note_on_c, 9, 42, 0
1, 17809, Note_on_c, 0, 60, 76
1, 17811, Note_on_c, 8, 72, 0
1, 17817, Note_on_c, 0, 46, 0
1, 17818, Note_on_c, 0, 55, 0
1, 17819, Note_on_c, 0, 60, 0
1, 17821, Note_on_c, 0, 58, 0
1, 17823, Note_on_c, 0, 63, 0
1, 17831, Note_on_c, 3, 61, 104
1, 17831, Note_on_c, 8, 68, 84
1, 17832, Note_on_c, 0, 61, 112
1, 17832, Note_on_c, 0, 58, 112
1, 17832, Note_on_c, 0, 65, 112
1, 17832, Note_on_c, 0, 56, 112
1, 17832, Note_on_c, 1, 37, 118
1, 17832, Note_on_c, 4, 61, 74
1, 17832, Note_on_c, 9, 35, 96
1, 17832, Note_on_c, 9, 42, 75
1, 17833, Note_on_c, 9, 42, 0
1, 17833, Note_on_c, 9, 35, 0
1, 17833, Note_on_c, 1, 34, 0
1, 17833, Note_on_c, 7, 68, 84
1, 17844, Note_on_c, 0, 58, 0
1, 17846, Note_on_c, 0, 61, 0
1, 17847, Note_on_c, 0, 56, 0
1, 17847, Note_on_c, 0, 65, 0
1, 17852, Note_on_c, 2, 87, 0
1, 17853, Note_on_c, 2, 58, 0
1, 17853, Note_on_c, 3, 61, 0
1, 17853, Note_on_c, 2, 56, 86
1, 17856, Note_on_c, 4, 61, 0
1, 17856, Note_on_c, 1, 37, 0
1, 17856, Note_on_c, 0, 39, 89
1, 17856, Note_on_c, 1, 39, 118
1, 17856, Note_on_c, 3, 72, 108
1, 17856, Note_on_c, 4, 65, 44
1, 17856, Note_on_c, 4, 72, 74
1, 17856, Note_on_c, 4, 68, 44
1, 17856, Note_on_c, 9, 42, 115
1, 17856, Note_on_c, 9, 35, 115
1, 17857, Note_on_c, 9, 35, 0
1, 17857, Note_on_c, 9, 42, 0
1, 17859, Note_on_c, 2, 87, 74
1, 17874, Note_on_c, 1, 39, 0
1, 17875, Note_on_c, 3, 72, 0
1, 17879, Note_on_c, 4, 72, 0
1, 17879, Note_on_c, 4, 65, 0
1, 17879, Note_on_c, 4, 68, 0
1, 17879, Note_on_c, 0, 58, 83
1, 17879, Note_on_c, 0, 65, 83
1, 17879, Note_on_c, 0, 51, 83
1, 17879, Note_on_c, 0, 61, 83
1, 17879, Note_on_c, 0, 56, 83
1, 17880, Note_on_c, 1, 39, 118
1, 17880, Note_on_c, 4, 65, 45
1, 17880, Note_on_c, 4, 72, 72
1, 17880, Note_on_c, 4, 68, 45
1, 17880, Note_on_c, 9, 42, 61
1, 17881, Note_on_c, 9, 42, 0
1, 17881, Note_on_c, 3, 72, 108
1, 17895, Note_on_c, 3, 72, 0
1, 17902, Note_on_c, 1, 39, 0
1, 17903, Note_on_c, 4, 68, 0
1, 17903, Note_on_c, 4, 72, 0
1, 17903, Note_on_c, 4, 65, 0
1, 17904, Note_on_c, 4, 72, 74
1, 17904, Note_on_c, 4, 65, 45
1, 17904, Note_on_c, 4, 68, 45
1, 17904, Note_on_c, 9, 42, 115
1, 17905, Note_on_c, 9, 42, 0
1, 17905, Note_on_c, 3, 72, 97
1, 17925, Note_on_c, 3, 72, 0
1, 17926, Note_on_c, 8, 68, 0
1, 17927, Note_on_c, 7, 67, 66
1, 17927, Note_on_c, 8, 67, 66
1, 17928, Note_on_c, 4, 72, 0
1, 17928, Note_on_c, 7, 68, 0
1, 17928, Note_on_c, 4, 68, 0
1, 17928, Note_on_c, 0, 39, 0
1, 17928, Note_on_c, 4, 65, 0
1, 17928, Note_on_c, 3, 70, 118
1, 17928, Note_on_c, 4, 63, 46
1, 17928, Note_on_c, 4, 70, 89
1, 17928, Note_on_c, 4, 67, 46
1, 17928, Note_on_c, 9, 42, 73
1, 17929, Note_on_c, 9, 42, 0
1, 17929, Note_on_c, 0, 39, 74
1, 17939, Note_on_c, 7, 68, 58
1, 17939, Note_on_c, 8, 68, 58
1, 17944, Note_on_c, 8, 67, 0
1, 17944, Note_on_c, 7, 67, 0
1, 17949, Note_on_c, 0, 39, 0
1, 17949, Note_on_c, 2, 61, 0
1, 17949, Note_on_c, 0, 65, 0
1, 17949, Note_on_c, 0, 58, 0
1, 17949, Note_on_c, 0, 61, 0
1, 17949, Note_on_c, 2, 65, 0
1, 17949, Note_on_c, 0, 51, 0
1, 17949, Note_on_c, 0, 56, 0
1, 17949, Note_on_c, 2, 58, 72
1, 17950, Note_on_c, 2, 67, 73
1, 17951, Note_on_c, 2, 56, 0
1, 17951, Note_on_c, 0, 61, 85
1, 17951, Note_on_c, 2, 63, 75
1, 17952, Note_on_c, 0, 55, 85
1, 17952, Note_on_c, 0, 58, 85
1, 17952, Note_on_c, 0, 51, 85
1, 17952, Note_on_c, 0, 63, 85
1, 17952, Note_on_c, 0, 39, 85
1, 17952, Note_on_c, 9, 40, 115
1, 17952, Note_on_c, 9, 42, 107
1, 17953, Note_on_c, 9, 42, 0
1, 17953, Note_on_c, 9, 40, 0
1, 17953, Note_on_c, 2, 87, 0
1, 17953, Note_on_c, 7, 67, 75
1, 17953, Note_on_c, 8, 67, 75
1, 17955, Note_on_c, 2, 87, 74
1, 17956, Note_on_c, 7, 68, 0
1, 17956, Note_on_c, 8, 68, 0
1, 17976, Note_on_c, 1, 29, 117
1, 17976, Note_on_c, 9, 35, 115
1, 17976, Note_on_c, 9, 42, 67
1, 17977, Note_on_c, 9, 42, 0
1, 17977, Note_on_c, 9, 35, 0
1, 17990, Note_on_c, 0, 61, 0
1, 17990, Note_on_c, 0, 58, 0
1, 17991, Note_on_c, 0, 55, 0
1, 17991, Note_on_c, 0, 63, 0
1, 17993, Note_on_c, 3, 70, 0
1, 17999, Note_on_c, 1, 29, 0
1, 17999, Note_on_c, 0, 58, 71
1, 17999, Note_on_c, 0, 61, 68
1, 17999, Note_on_c, 0, 63, 75
1, 17999, Note_on_c, 0, 55, 73
1, 17999, Note_on_c, 3, 68, 107
1, 18000, Note_on_c, 4, 67, 0
1, 18000, Note_on_c, 4, 63, 0
1, 18000, Note_on_c, 4, 70, 0
1, 18000, Note_on_c, 1, 30, 117
1, 18000, Note_on_c, 4, 61, 45
1, 18000, Note_on_c, 4, 65, 45
1, 18000, Note_on_c, 4, 68, 79
1, 18000, Note_on_c, 9, 42, 107
1, 18001, Note_on_c, 9, 42, 0
1, 18020, Note_on_c, 3, 68, 0
1, 18022, Note_on_c, 0, 51, 0
1, 18023, Note_on_c, 1, 30, 0
1, 18023, Note_on_c, 0, 51, 95
1, 18023, Note_on_c, 3, 70, 107
1, 18024, Note_on_c, 4, 65, 0
1, 18024, Note_on_c, 4, 68, 0
1, 18024, Note_on_c, 4, 61, 0
1, 18024, Note_on_c, 1, 31, 117
1, 18024, Note_on_c, 4, 63, 45
1, 18024, Note_on_c, 4, 70, 89
1, 18024, Note_on_c, 4, 66, 45
1, 18024, Note_on_c, 9, 35, 94
1, 18024, Note_on_c, 9, 46, 70
1, 18025, Note_on_c, 9, 46, 0
1, 18025, Note_on_c, 9, 35, 0
1, 18036, Note_on_c, 2, 63, 0
1, 18040, Note_on_c, 0, 55, 0
1, 18040, Note_on_c, 0, 39, 0
1, 18040, Note_on_c, 0, 63, 0
1, 18040, Note_on_c, 0, 61, 0
1, 18040, Note_on_c, 0, 58, 0
1, 18040, Note_on_c, 0, 51, 0
1, 18042, Note_on_c, 2, 58, 0
1, 18043, Note_on_c, 2, 67, 0
1, 18046, Note_on_c, 2, 56, 96
1, 18046, Note_on_c, 2, 66, 79
1, 18046, Note_on_c, 2, 63, 84
1, 18047, Note_on_c, 0, 44, 107
1, 18048, Note_on_c, 7, 67, 0
1, 18048, Note_on_c, 8, 67, 0
1, 18048, Note_on_c, 1, 32, 117
1, 18048, Note_on_c, 9, 42, 95
1, 18048, Note_on_c, 9, 35, 115
1, 18049, Note_on_c, 9, 35, 0
1, 18049, Note_on_c, 9, 42, 0
1, 18049, Note_on_c, 3, 70, 0
1, 18049, Note_on_c, 7, 66, 65
1, 18049, Note_on_c, 8, 66, 65
1, 18053, Note_on_c, 1, 31, 0
1, 18064, Note_on_c, 1, 32, 0
1, 18071, Note_on_c, 0, 59, 123
1, 18071, Note_on_c, 0, 63, 123
1, 18071, Note_on_c, 0, 56, 123
1, 18071, Note_on_c, 0, 54, 123
1, 18072, Note_on_c, 1, 32, 117
1, 18072, Note_on_c, 9, 42, 53
1, 18073, Note_on_c, 9, 42, 0
1, 18074, Note_on_c, 0, 59, 0
1, 18075, Note_on_c, 0, 44, 0
1, 18083, Note_on_c, 0, 56, 0
1, 18084, Note_on_c, 0, 54, 0
1, 18087, Note_on_c, 0, 63, 0
1, 18094, Note_on_c, 1, 32, 0
1, 18095, Note_on_c, 0, 61, 77
1, 18095, Note_on_c, 0, 56, 65
1, 18095, Note_on_c, 0, 58, 63
1, 18096, Note_on_c, 7, 66, 0
1, 18096, Note_on_c, 0, 53, 79
1, 18096, Note_on_c, 7, 73, 67
1, 18096, Note_on_c, 8, 73, 67
1, 18096, Note_on_c, 9, 42, 98
1, 18097, Note_on_c, 9, 42, 0
1, 18107, Note_on_c, 0, 58, 0
1, 18109, Note_on_c, 0, 56, 0
1, 18110, Note_on_c, 0, 61, 0
1, 18113, Note_on_c, 0, 53, 0
1, 18113, Note_on_c, 7, 73, 0
1, 18117, Note_on_c, 8, 73, 0
1, 18119, Note_on_c, 0, 44, 87
1, 18120, Note_on_c, 9, 42, 79
1, 18121, Note_on_c, 9, 42, 0
1, 18122, Note_on_c, 7, 70, 74
1, 18122, Note_on_c, 8, 70, 70
1, 18126, Note_on_c, 0, 44, 0
1, 18139, Note_on_c, 8, 70, 0
1, 18141, Note_on_c, 7, 70, 0
1, 18143, Note_on_c, 4, 63, 0
1, 18143, Note_on_c, 4, 70, 0
1, 18143, Note_on_c, 4, 66, 0
1, 18144, Note_on_c, 0, 54, 122
1, 18144, Note_on_c, 0, 63, 122
1, 18144, Note_on_c, 0, 59, 122
1, 18144, Note_on_c, 0, 56, 122
1, 18144, Note_on_c, 9, 40, 115
1, 18144, Note_on_c, 9, 42, 115
1, 18145, Note_on_c, 9, 42, 0
1, 18145, Note_on_c, 9, 40, 0
1, 18159, Note_on_c, 0, 59, 0
1, 18168, Note_on_c, 1, 32, 117
1, 18168, Note_on_c, 9, 42, 75
1, 18169, Note_on_c, 9, 42, 0
1, 18169, Note_on_c, 0, 54, 0
1, 18169, Note_on_c, 0, 44, 73
1, 18171, Note_on_c, 7, 66, 64
1, 18172, Note_on_c, 0, 63, 0
1, 18174, Note_on_c, 0, 44, 0
1, 18178, Note_on_c, 0, 56, 0
1, 18191, Note_on_c, 0, 61, 85
1, 18191, Note_on_c, 0, 56, 89
1, 18192, Note_on_c, 1, 32, 0
1, 18192, Note_on_c, 0, 58, 70
1, 18192, Note_on_c, 0, 53, 92
1, 18192, Note_on_c, 1, 34, 117
1, 18192, Note_on_c, 9, 42, 98
1, 18193, Note_on_c, 9, 42, 0
1, 18205, Note_on_c, 0, 53, 0
1, 18206, Note_on_c, 0, 58, 0
1, 18210, Note_on_c, 0, 61, 0
1, 18210, Note_on_c, 0, 56, 0
1, 18214, Note_on_c, 1, 34, 0
1, 18215, Note_on_c, 3, 61, 92
1, 18216, Note_on_c, 1, 35, 117
1, 18216, Note_on_c, 4, 66, 44
1, 18216, Note_on_c, 4, 61, 80
1, 18216, Note_on_c, 4, 54, 44
1, 18216, Note_on_c, 9, 42, 73
1, 18216, Note_on_c, 9, 35, 90
1, 18217, Note_on_c, 9, 35, 0
1, 18217, Note_on_c, 9, 42, 0
1, 18217, Note_on_c, 0, 54, 112
1, 18217, Note_on_c, 0, 59, 112
1, 18217, Note_on_c, 0, 56, 112
1, 18217, Note_on_c, 0, 63, 112
1, 18229, Note_on_c, 0, 59, 0
1, 18230, Note_on_c, 0, 56, 0
1, 18232, Note_on_c, 3, 61, 0
1, 18233, Note_on_c, 0, 54, 0
1, 18233, Note_on_c, 0, 63, 0
1, 18234, Note_on_c, 2, 56, 0
1, 18238, Note_on_c, 2, 59, 82
1, 18239, Note_on_c, 4, 66, 0
1, 18239, Note_on_c, 3, 70, 118
1, 18240, Note_on_c, 4, 54, 0
1, 18240, Note_on_c, 4, 61, 0
1, 18240, Note_on_c, 0, 37, 84
1, 18240, Note_on_c, 1, 37, 117
1, 18240, Note_on_c, 4, 70, 89
1, 18240, Note_on_c, 4, 66, 43
1, 18240, Note_on_c, 4, 63, 44
1, 18240, Note_on_c, 9, 42, 111
1, 18240, Note_on_c, 9, 35, 115
1, 18241, Note_on_c, 9, 35, 0
1, 18241, Note_on_c, 9, 42, 0
1, 18243, Note_on_c, 1, 35, 0
1, 18258, Note_on_c, 1, 37, 0
1, 18263, Note_on_c, 0, 54, 72
1, 18263, Note_on_c, 0, 63, 72
1, 18263, Note_on_c, 0, 59, 72
1, 18263, Note_on_c, 0, 56, 72
1, 18264, Note_on_c, 0, 49, 73
1, 18264, Note_on_c, 1, 37, 117
1, 18264, Note_on_c, 9, 42, 67
1, 18265, Note_on_c, 9, 42, 0
1, 18278, Note_on_c, 3, 70, 0
1, 18285, Note_on_c, 1, 37, 0
1, 18287, Note_on_c, 4, 70, 0
1, 18287, Note_on_c, 4, 66, 0
1, 18287, Note_on_c, 4, 63, 0
1, 18287, Note_on_c, 3, 70, 107
1, 18288, Note_on_c, 4, 66, 43
1, 18288, Note_on_c, 4, 70, 86
1, 18288, Note_on_c, 4, 63, 43
1, 18288, Note_on_c, 9, 42, 98
1, 18289, Note_on_c, 9, 42, 0
1, 18303, Note_on_c, 3, 70, 0
1, 18312, Note_on_c, 4, 63, 0
1, 18312, Note_on_c, 0, 37, 0
1, 18312, Note_on_c, 4, 70, 0
1, 18312, Note_on_c, 4, 66, 0
1, 18312, Note_on_c, 3, 68, 107
1, 18312, Note_on_c, 4, 61, 42
1, 18312, Note_on_c, 4, 68, 86
1, 18312, Note_on_c, 4, 65, 42
1, 18312, Note_on_c, 9, 42, 55
1, 18313, Note_on_c, 9, 42, 0
1, 18313, Note_on_c, 0, 37, 68
1, 18326, Note_on_c, 2, 63, 0
1, 18331, Note_on_c, 2, 66, 0
1, 18332, Note_on_c, 8, 66, 0
1, 18332, Note_on_c, 2, 65, 76
1, 18333, Note_on_c, 0, 49, 0
1, 18333, Note_on_c, 0, 37, 0
1, 18333, Note_on_c, 0, 63, 0
1, 18333, Note_on_c, 0, 54, 0
1, 18333, Note_on_c, 0, 59, 0
1, 18333, Note_on_c, 0, 56, 0
1, 18334, Note_on_c, 2, 56, 72
1, 18335, Note_on_c, 0, 56, 76
1, 18335, Note_on_c, 0, 59, 76
1, 18335, Note_on_c, 0, 61, 76
1, 18335, Note_on_c, 0, 53, 76
1, 18335, Note_on_c, 0, 49, 76
1, 18335, Note_on_c, 0, 37, 76
1, 18336, Note_on_c, 9, 40, 115
1, 18336, Note_on_c, 9, 42, 104
1, 18337, Note_on_c, 9, 42, 0
1, 18337, Note_on_c, 9, 40, 0
1, 18337, Note_on_c, 2, 87, 0
1, 18337, Note_on_c, 7, 65, 70
1, 18337, Note_on_c, 8, 65, 70
1, 18338, Note_on_c, 7, 66, 0
1, 18338, Note_on_c, 2, 87, 74
1, 18360, Note_on_c, 1, 37, 117
1, 18360, Note_on_c, 9, 42, 67
1, 18360, Note_on_c, 9, 35, 115
1, 18361, Note_on_c, 9, 35, 0
1, 18361, Note_on_c, 9, 42, 0
1, 18378, Note_on_c, 3, 68, 0
1, 18383, Note_on_c, 1, 37, 0
1, 18383, Note_on_c, 3, 66, 98
1, 18384, Note_on_c, 4, 68, 0
1, 18384, Note_on_c, 4, 65, 0
1, 18384, Note_on_c, 4, 61, 0
1, 18384, Note_on_c, 1, 32, 117
1, 18384, Note_on_c, 4, 63, 37
1, 18384, Note_on_c, 4, 66, 69
1, 18384, Note_on_c, 4, 59, 37
1, 18384, Note_on_c, 9, 42, 107
1, 18385, Note_on_c, 9, 42, 0
1, 18402, Note_on_c, 3, 66, 0
1, 18405, Note_on_c, 1, 32, 0
1, 18408, Note_on_c, 4, 59, 0
1, 18408, Note_on_c, 4, 66, 0
1, 18408, Note_on_c, 4, 63, 0
1, 18408, Note_on_c, 1, 29, 117
1, 18408, Note_on_c, 3, 68, 110
1, 18408, Note_on_c, 4, 68, 86
1, 18408, Note_on_c, 4, 61, 33
1, 18408, Note_on_c, 4, 65, 33
1, 18408, Note_on_c, 9, 46, 70
1, 18408, Note_on_c, 9, 35, 115
1, 18409, Note_on_c, 9, 35, 0
1, 18409, Note_on_c, 9, 46, 0
1, 18421, Note_on_c, 2, 65, 0
1, 18423, Note_on_c, 2, 56, 0
1, 18425, Note_on_c, 2, 59, 0
1, 18428, Note_on_c, 8, 65, 0
1, 18429, Note_on_c, 0, 49, 0
1, 18429, Note_on_c, 0, 56, 0
1, 18429, Note_on_c, 0, 59, 0
1, 18429, Note_on_c, 0, 53, 0
1, 18429, Note_on_c, 0, 61, 0
1, 18429, Note_on_c, 0, 37, 0
1, 18430, Note_on_c, 2, 54, 84
1, 18430, Note_on_c, 2, 58, 76
1, 18430, Note_on_c, 2, 65, 84
1, 18431, Note_on_c, 0, 42, 74
1, 18431, Note_on_c, 0, 56, 74
1, 18431, Note_on_c, 0, 49, 74
1, 18431, Note_on_c, 0, 65, 74
1, 18431, Note_on_c, 0, 58, 74
1, 18431, Note_on_c, 0, 61, 74
1, 18432, Note_on_c, 1, 30, 117
1, 18432, Note_on_c, 8, 61, 70
1, 18432, Note_on_c, 9, 42, 111
1, 18432, Note_on_c, 9, 35, 115
1, 18433, Note_on_c, 9, 35, 0
1, 18433, Note_on_c, 9, 42, 0
1, 18433, Note_on_c, 2, 87, 0
1, 18434, Note_on_c, 2, 85, 70
1, 18435, Note_on_c, 1, 29, 0
1, 18448, Note_on_c, 1, 30, 0
1, 18456, Note_on_c, 1, 30, 117
1, 18456, Note_on_c, 9, 42, 70
1, 18457, Note_on_c, 9, 42, 0
1, 18479, Note_on_c, 1, 30, 0
1, 18480, Note_on_c, 1, 30, 117
1, 18480, Note_on_c, 9, 42, 101
1, 18481, Note_on_c, 9, 42, 0
1, 18491, Note_on_c, 1, 30, 0
1, 18504, Note_on_c, 1, 30, 115
1, 18504, Note_on_c, 9, 42, 79
1, 18505, Note_on_c, 9, 42, 0
1, 18515, Note_on_c, 1, 30, 0
1, 18528, Note_on_c, 0, 61, 0
1, 18528, Note_on_c, 0, 58, 0
1, 18528, Note_on_c, 0, 65, 0
1, 18528, Note_on_c, 0, 56, 0
1, 18528, Note_on_c, 1, 30, 116
1, 18528, Note_on_c, 9, 42, 95
1, 18528, Note_on_c, 9, 40, 115
1, 18529, Note_on_c, 9, 40, 0
1, 18529, Note_on_c, 9, 42, 0
1, 18529, Note_on_c, 0, 65, 95
1, 18529, Note_on_c, 0, 61, 82
1, 18529, Note_on_c, 0, 58, 89
1, 18529, Note_on_c, 0, 56, 107
1, 18546, Note_on_c, 1, 30, 0
1, 18552, Note_on_c, 1, 30, 116
1, 18552, Note_on_c, 9, 47, 94
1, 18552, Note_on_c, 9, 42, 75
1, 18553, Note_on_c, 9, 42, 0
1, 18553, Note_on_c, 9, 47, 0
1, 18564, Note_on_c, 9, 45, 107
1, 18565, Note_on_c, 9, 45, 0
1, 18566, Note_on_c, 1, 30, 0
1, 18572, Note_on_c, 3, 68, 0
1, 18574, Note_on_c, 0, 49, 0
1, 18575, Note_on_c, 4, 68, 0
1, 18575, Note_on_c, 4, 65, 0
1, 18575, Note_on_c, 4, 61, 0
1, 18575, Note_on_c, 0, 49, 67
1, 18576, Note_on_c, 1, 30, 116
1, 18576, Note_on_c, 9, 45, 114
1, 18576, Note_on_c, 9, 46, 96
1, 18577, Note_on_c, 9, 46, 0
1, 18577, Note_on_c, 9, 45, 0
1, 18586, Note_on_c, 1, 30, 0
1, 18600, Note_on_c, 1, 30, 116
1, 18614, Note_on_c, 2, 58, 0
1, 18615, Note_on_c, 1, 30, 0
1, 18617, Note_on_c, 2, 65, 0
1, 18621, Note_on_c, 0, 42, 0
1, 18621, Note_on_c, 0, 56, 0
1, 18621, Note_on_c, 0, 65, 0
1, 18621, Note_on_c, 0, 49, 0
1, 18621, Note_on_c, 0, 61, 0
1, 18621, Note_on_c, 0, 58, 0
1, 18622, Note_on_c, 2, 54, 0
1, 18622, Note_on_c, 2, 56, 90
1, 18622, Note_on_c, 2, 63, 81
1, 18623, Note_on_c, 8, 61, 0
1, 18623, Note_on_c, 0, 59, 96
1, 18623, Note_on_c, 0, 51, 96
1, 18623, Note_on_c, 0, 56, 96
1, 18623, Note_on_c, 0, 63, 96
1, 18623, Note_on_c, 0, 44, 96
1, 18623, Note_on_c, 0, 54, 96
1, 18623, Note_on_c, 2, 59, 91
1, 18623, Note_on_c, 3, 66, 118
1, 18624, Note_on_c, 7, 65, 0
1, 18624, Note_on_c, 1, 32, 116
1, 18624, Note_on_c, 4, 63, 44
1, 18624, Note_on_c, 4, 66, 97
1, 18624, Note_on_c, 4, 59, 44
1, 18624, Note_on_c, 9, 35, 115
1, 18625, Note_on_c, 9, 35, 0
1, 18625, Note_on_c, 2, 85, 0
1, 18625, Note_on_c, 9, 49, 87
1, 18626, Note_on_c, 9, 49, 0
1, 18668, Note_on_c, 1, 32, 0
1, 18672, Note_on_c, 1, 30, 111
1, 18696, Note_on_c, 1, 30, 0
1, 18696, Note_on_c, 1, 32, 114
1, 18705, Note_on_c, 3, 66, 0
1, 18714, Note_on_c, 2, 59, 0
1, 18717, Note_on_c, 1, 32, 0
1, 18718, Note_on_c, 2, 61, 84
1, 18718, Note_on_c, 2, 58, 94
1, 18718, Note_on_c, 2, 65, 87
1, 18719, Note_on_c, 0, 56, 0
1, 18719, Note_on_c, 0, 44, 0
1, 18719, Note_on_c, 0, 63, 0
1, 18719, Note_on_c, 0, 59, 0
1, 18719, Note_on_c, 0, 54, 0
1, 18719, Note_on_c, 0, 51, 0
1, 18720, Note_on_c, 4, 59, 0
1, 18720, Note_on_c, 4, 66, 0
1, 18720, Note_on_c, 4, 63, 0
1, 18720, Note_on_c, 0, 56, 102
1, 18720, Note_on_c, 0, 58, 102
1, 18720, Note_on_c, 0, 61, 102
1, 18720, Note_on_c, 0, 65, 102
1, 18720, Note_on_c, 0, 46, 102
1, 18720, Note_on_c, 1, 34, 114
1, 18720, Note_on_c, 3, 68, 118
1, 18720, Note_on_c, 4, 65, 54
1, 18720, Note_on_c, 4, 68, 97
1, 18720, Note_on_c, 4, 61, 54
1, 18720, Note_on_c, 9, 35, 115
1, 18721, Note_on_c, 9, 35, 0
1, 18721, Note_on_c, 2, 56, 0
1, 18721, Note_on_c, 2, 63, 0
1, 18721, Note_on_c, 9, 57, 82
1, 18722, Note_on_c, 9, 57, 0
1, 18802, Note_on_c, 3, 68, 0
1, 18808, Note_on_c, 1, 34, 0
1, 18809, Note_on_c, 2, 61, 0
1, 18813, Note_on_c, 2, 65, 0
1, 18815, Note_on_c, 0, 58, 0
1, 18815, Note_on_c, 2, 66, 88
1, 18815, Note_on_c, 3, 70, 110
1, 18816, Time_signature, 3, 2, 24, 8
1, 18816, Note_on_c, 4, 65, 0
1, 18816, Note_on_c, 4, 61, 0
1, 18816, Note_on_c, 4, 68, 0
1, 18816, Note_on_c, 0, 63, 108
1, 18816, Note_on_c, 0, 58, 108
1, 18816, Note_on_c, 1, 35, 118
1, 18816, Note_on_c, 2, 61, 92
1, 18816, Note_on_c, 4, 63, 56
1, 18816, Note_on_c, 4, 70, 89
1, 18816, Note_on_c, 4, 66, 56
1, 18816, Note_on_c, 9, 35, 115
1, 18817, Note_on_c, 9, 35, 0
1, 18817, Note_on_c, 0, 61, 0
1, 18817, Note_on_c, 0, 65, 0
1, 18817, Note_on_c, 0, 46, 0
1, 18817, Note_on_c, 0, 56, 0
1, 18817, Note_on_c, 0, 59, 108
1, 18817, Note_on_c, 0, 54, 108
1, 18817, Note_on_c, 0, 47, 108
1, 18817, Note_on_c, 9, 49, 88
1, 18818, Note_on_c, 9, 49, 0
1, 18896, Note_on_c, 3, 70, 0
1, 18900, Note_on_c, 2, 61, 0
1, 18902, Note_on_c, 2, 66, 0
1, 18909, Note_on_c, 2, 58, 0
1, 18910, Note_on_c, 2, 64, 99
1, 18911, Note_on_c, 2, 56, 116
1, 18911, Note_on_c, 2, 61, 96
1, 18911, Note_on_c, 3, 71, 116
1, 18912, Note_on_c, 4, 66, 0
1, 18912, Note_on_c, 0, 59, 0
1, 18912, Note_on_c, 4, 63, 0
1, 18912, Note_on_c, 4, 70, 0
1, 18912, Note_on_c, 1, 37, 123
1, 18912, Note_on_c, 4, 71, 95
1, 18912, Note_on_c, 4, 64, 60
1, 18912, Note_on_c, 4, 68, 60
1, 18912, Note_on_c, 9, 35, 115
1, 18913, Note_on_c, 9, 35, 0
1, 18913, Note_on_c, 0, 63, 0
1, 18913, Note_on_c, 0, 58, 0
1, 18913, Note_on_c, 0, 54, 0
1, 18913, Note_on_c, 0, 47, 0
1, 18913, Note_on_c, 0, 56, 117
1, 18913, Note_on_c, 0, 61, 117
1, 18913, Note_on_c, 0, 64, 117
1, 18913, Note_on_c, 0, 59, 117
1, 18913, Note_on_c, 0, 49, 117
1, 18913, Note_on_c, 9, 49, 83
1, 18914, Note_on_c, 9, 49, 0
1, 18914, Note_on_c, 1, 35, 0
1, 18999, Note_on_c, 3, 71, 0
1, 19004, Note_on_c, 2, 64, 0
1, 19006, Note_on_c, 2, 61, 0
1, 19006, Note_on_c, 2, 56, 0
1, 19006, Note_on_c, 2, 63, 86
1, 19007, Note_on_c, 1, 37, 0
1, 19007, Note_on_c, 2, 66, 94
1, 19007, Note_on_c, 2, 58, 113
1, 19007, Note_on_c, 3, 73, 118
1, 19008, Note_on_c, 0, 56, 0
1, 19008, Note_on_c, 0, 64, 0
1, 19008, Note_on_c, 4, 64, 0
1, 19008, Note_on_c, 4, 68, 0
1, 19008, Note_on_c, 4, 71, 0
1, 19008, Note_on_c, 0, 61, 0
1, 19008, Note_on_c, 0, 49, 0
1, 19008, Note_on_c, 0, 59, 0
1, 19008, Note_on_c, 0, 51, 122
1, 19008, Note_on_c, 1, 39, 123
1, 19008, Note_on_c, 4, 66, 64
1, 19008, Note_on_c, 4, 70, 64
1, 19008, Note_on_c, 4, 73, 97
1, 19008, Note_on_c, 9, 35, 115
1, 19009, Note_on_c, 9, 35, 0
1, 19009, Note_on_c, 0, 61, 122
1, 19009, Note_on_c, 0, 66, 122
1, 19009, Note_on_c, 0, 58, 122
1, 19009, Note_on_c, 0, 63, 122
1, 19009, Note_on_c, 9, 57, 92
1, 19010, Note_on_c, 9, 57, 0
1, 19077, Note_on_c, 0, 58, 0
1, 19078, Note_on_c, 0, 61, 0
1, 19079, Note_on_c, 0, 66, 0
1, 19079, Note_on_c, 0, 63, 0
1, 19080, Note_on_c, 0, 51, 0
1, 19091, Note_on_c, 3, 73, 0
1, 19091, Note_on_c, 1, 39, 0
1, 19101, Note_on_c, 2, 63, 0
1, 19102, Note_on_c, 2, 66, 0
1, 19102, Note_on_c, 2, 58, 0
1, 19104, Time_signature, 4, 2, 24, 8
1, 19104, Note_on_c, 4, 66, 0
1, 19104, Note_on_c, 4, 73, 0
1, 19104, Note_on_c, 4, 70, 0
1, 19104, Note_on_c, 0, 41, 90
1, 19104, Note_on_c, 1, 41, 120
1, 19104, Note_on_c, 4, 68, 69
1, 19104, Note_on_c, 4, 72, 69
1, 19104, Note_on_c, 4, 75, 97
1, 19104, Note_on_c, 9, 35, 108
1, 19105, Note_on_c, 9, 35, 0
1, 19105, Note_on_c, 3, 75, 118
1, 19105, Note_on_c, 9, 55, 108
1, 19106, Note_on_c, 9, 55, 0
1, 19106, Note_on_c, 2, 56, 84
1, 19106, Note_on_c, 2, 65, 81
1, 19106, Note_on_c, 2, 60, 81
1, 19106, Note_on_c, 2, 92, 82
1, 19126, Note_on_c, 13, 67, 96
1, 19128, Note_on_c, 0, 60, 109
1, 19128, Note_on_c, 0, 68, 109
1, 19128, Note_on_c, 9, 42, 69
1, 19129, Note_on_c, 9, 42, 0
1, 19129, Note_on_c, 0, 63, 109
1, 19129, Note_on_c, 0, 65, 109
1, 19129, Note_on_c, 7, 67, 90
1, 19143, Note_on_c, 0, 63, 0
1, 19143, Note_on_c, 0, 68, 0
1, 19143, Note_on_c, 0, 60, 0
1, 19144, Note_on_c, 3, 75, 0
1, 19152, Note_on_c, 1, 41, 0
1, 19152, Note_on_c, 0, 67, 69
1, 19152, Note_on_c, 9, 42, 89
1, 19153, Note_on_c, 9, 42, 0
1, 19153, Note_on_c, 0, 63, 78
1, 19153, Note_on_c, 0, 58, 75
1, 19154, Note_on_c, 13, 67, 0
1, 19155, Note_on_c, 0, 65, 0
1, 19157, Note_on_c, 7, 67, 0
1, 19166, Note_on_c, 0, 63, 0
1, 19168, Note_on_c, 0, 58, 0
1, 19170, Note_on_c, 0, 67, 0
1, 19174, Note_on_c, 0, 41, 0
1, 19175, Note_on_c, 0, 53, 70
1, 19175, Note_on_c, 13, 68, 98
1, 19176, Note_on_c, 9, 42, 67
1, 19177, Note_on_c, 9, 42, 0
1, 19178, Note_on_c, 7, 68, 95
1, 19194, Note_on_c, 13, 68, 0
1, 19197, Note_on_c, 7, 68, 0
1, 19198, Note_on_c, 2, 92, 0
1, 19199, Note_on_c, 0, 63, 111
1, 19199, Note_on_c, 0, 68, 111
1, 19199, Note_on_c, 0, 65, 111
1, 19199, Note_on_c, 0, 60, 111
1, 19200, Note_on_c, 4, 72, 0
1, 19200, Note_on_c, 4, 75, 0
1, 19200, Note_on_c, 4, 68, 0
1, 19200, Note_on_c, 9, 42, 111
1, 19200, Note_on_c, 9, 40, 115
1, 19201, Note_on_c, 9, 40, 0
1, 19201, Note_on_c, 9, 42, 0
1, 19202, Note_on_c, 2, 92, 82
1, 19214, Note_on_c, 0, 63, 0
1, 19216, Note_on_c, 0, 65, 0
1, 19219, Note_on_c, 0, 68, 0
1, 19220, Note_on_c, 13, 77, 100
1, 19222, Note_on_c, 0, 60, 0
1, 19223, Note_on_c, 0, 53, 0
1, 19223, Note_on_c, 7, 77, 68
1, 19224, Note_on_c, 1, 44, 114
1, 19224, Note_on_c, 9, 42, 56
1, 19225, Note_on_c, 9, 42, 0
1, 19225, Note_on_c, 0, 41, 94
1, 19226, Note_on_c, 13, 79, 100
1, 19229, Note_on_c, 13, 77, 0
1, 19229, Note_on_c, 7, 79, 79
1, 19232, Note_on_c, 7, 77, 0
1, 19246, Note_on_c, 13, 79, 0
1, 19247, Note_on_c, 0, 67, 91
1, 19247, Note_on_c, 0, 63, 87
1, 19248, Note_on_c, 1, 44, 0
1, 19248, Note_on_c, 0, 58, 104
1, 19248, Note_on_c, 1, 41, 114
1, 19248, Note_on_c, 9, 42, 104
1, 19249, Note_on_c, 9, 42, 0
1, 19249, Note_on_c, 7, 79, 0
1, 19265, Note_on_c, 0, 58, 0
1, 19266, Note_on_c, 0, 67, 0
1, 19267, Note_on_c, 0, 63, 0
1, 19268, Note_on_c, 1, 41, 0
1, 19271, Note_on_c, 13, 75, 101
1, 19272, Note_on_c, 1, 32, 114
1, 19272, Note_on_c, 9, 42, 89
1, 19272, Note_on_c, 9, 35, 88
1, 19273, Note_on_c, 9, 35, 0
1, 19273, Note_on_c, 9, 42, 0
1, 19273, Note_on_c, 0, 68, 99
1, 19273, Note_on_c, 0, 60, 99
1, 19273, Note_on_c, 0, 63, 99
1, 19273, Note_on_c, 0, 65, 99
1, 19274, Note_on_c, 7, 75, 83
1, 19275, Note_on_c, 0, 41, 0
1, 19284, Note_on_c, 0, 65, 0
1, 19284, Note_on_c, 0, 63, 0
1, 19287, Note_on_c, 0, 68, 0
1, 19287, Note_on_c, 2, 56, 0
1, 19287, Note_on_c, 0, 60, 0
1, 19287, Note_on_c, 2, 60, 0
1, 19292, Control_c, 13, 11, 126
1, 19295, Note_on_c, 2, 92, 0
1, 19295, Note_on_c, 3, 75, 118
1, 19295, Control_c, 7, 11, 126
1, 19296, Note_on_c, 1, 34, 114
1, 19296, Note_on_c, 4, 68, 74
1, 19296, Note_on_c, 4, 63, 42
1, 19296, Note_on_c, 4, 72, 42
1, 19296, Note_on_c, 4, 75, 97
1, 19296, Note_on_c, 9, 42, 111
1, 19296, Note_on_c, 9, 35, 115
1, 19297, Note_on_c, 9, 35, 0
1, 19297, Note_on_c, 9, 42, 0
1, 19298, Note_on_c, 1, 32, 0
1, 19298, Note_on_c, 2, 92, 83
1, 19298, Control_c, 13, 11, 124
1, 19301, Note_on_c, 2, 61, 84
1, 19301, Note_on_c, 2, 58, 85
1, 19301, Control_c, 7, 11, 124
1, 19304, Control_c, 13, 11, 121
1, 19307, Control_c, 7, 11, 121
1, 19309, Control_c, 13, 11, 118
1, 19312, Control_c, 7, 11, 118
1, 19313, Note_on_c, 1, 34, 0
1, 19314, Note_on_c, 3, 75, 0
1, 19314, Control_c, 13, 11, 116
1, 19317, Control_c, 7, 11, 116
1, 19319, Note_on_c, 4, 72, 0
1, 19319, Note_on_c, 4, 63, 0
1, 19319, Note_on_c, 4, 75, 0
1, 19319, Note_on_c, 4, 68, 0
1, 19319, Note_on_c, 3, 75, 92
1, 19319, Control_c, 13, 11, 113
1, 19320, Note_on_c, 1, 34, 114
1, 19320, Note_on_c, 4, 68, 74
1, 19320, Note_on_c, 4, 63, 43
1, 19320, Note_on_c, 4, 75, 71
1, 19320, Note_on_c, 4, 72, 43
1, 19320, Note_on_c, 9, 42, 56
1, 19321, Note_on_c, 9, 42, 0
1, 19322, Control_c, 7, 11, 113
1, 19324, Control_c, 13, 11, 110
1, 19327, Control_c, 7, 11, 110
1, 19327, Control_c, 13, 11, 108
1, 19330, Control_c, 7, 11, 108
1, 19332, Control_c, 13, 11, 105
1, 19333, Note_on_c, 3, 75, 0
1, 19335, Control_c, 7, 11, 105
1, 19337, Control_c, 13, 11, 102
1, 19339, Control_c, 13, 11, 101
1, 19340, Control_c, 7, 11, 102
1, 19342, Control_c, 7, 11, 101
1, 19343, Note_on_c, 4, 75, 0
1, 19343, Note_on_c, 4, 68, 0
1, 19343, Note_on_c, 1, 34, 0
1, 19343, Note_on_c, 4, 63, 0
1, 19343, Note_on_c, 4, 72, 0
1, 19343, Note_on_c, 3, 75, 95
1, 19344, Note_on_c, 4, 63, 43
1, 19344, Note_on_c, 4, 72, 43
1, 19344, Note_on_c, 4, 68, 74
1, 19344, Note_on_c, 4, 75, 74
1, 19344, Note_on_c, 9, 42, 101
1, 19344, Control_c, 13, 11, 97
1, 19345, Note_on_c, 9, 42, 0
1, 19346, Control_c, 13, 11, 96
1, 19347, Control_c, 7, 11, 97
1, 19349, Control_c, 7, 11, 96
1, 19349, Control_c, 13, 11, 93
1, 19351, Control_c, 13, 11, 91
1, 19352, Control_c, 7, 11, 93
1, 19352, Control_c, 13, 11, 90
1, 19354, Control_c, 7, 11, 91
1, 19354, Control_c, 13, 11, 88
1, 19355, Control_c, 7, 11, 90
1, 19356, Control_c, 13, 11, 86
1, 19357, Control_c, 7, 11, 88
1, 19357, Control_c, 13, 11, 84
1, 19359, Control_c, 7, 11, 86
1, 19359, Control_c, 13, 11, 83
1, 19360, Control_c, 7, 11, 84
1, 19361, Control_c, 13, 11, 81
1, 19362, Control_c, 7, 11, 83
1, 19362, Control_c, 13, 11, 79
1, 19364, Control_c, 7, 11, 81
1, 19364, Control_c, 13, 11, 78
1, 19365, Note_on_c, 3, 75, 0
1, 19365, Control_c, 7, 11, 79
1, 19366, Control_c, 13, 11, 76
1, 19367, Note_on_c, 0, 46, 62
1, 19367, Note_on_c, 3, 73, 111
1, 19367, Control_c, 7, 11, 78
1, 19367, Control_c, 13, 11, 74
1, 19368, Note_on_c, 4, 72, 0
1, 19368, Note_on_c, 4, 75, 0
1, 19368, Note_on_c, 4, 63, 0
1, 19368, Note_on_c, 4, 68, 0
1, 19368, Note_on_c, 4, 61, 43
1, 19368, Note_on_c, 4, 65, 74
1, 19368, Note_on_c, 4, 73, 90
1, 19368, Note_on_c, 4, 70, 43
1, 19368, Note_on_c, 9, 42, 47
1, 19369, Note_on_c, 9, 42, 0
1, 19369, Control_c, 7, 11, 76
1, 19369, Control_c, 13, 11, 72
1, 19370, Control_c, 7, 11, 74
1, 19371, Control_c, 13, 11, 70
1, 19372, Control_c, 7, 11, 72
1, 19373, Control_c, 13, 11, 68
1, 19374, Control_c, 7, 11, 70
1, 19374, Control_c, 13, 11, 67
1, 19376, Control_c, 7, 11, 68
1, 19376, Control_c, 13, 11, 65
1, 19377, Control_c, 7, 11, 67
1, 19378, Control_c, 13, 11, 63
1, 19379, Control_c, 7, 11, 65
1, 19379, Control_c, 13, 11, 61
1, 19381, Control_c, 7, 11, 63
1, 19381, Control_c, 13, 11, 59
1, 19382, Control_c, 7, 11, 61
1, 19383, Control_c, 13, 11, 57
1, 19384, Control_c, 7, 11, 59
1, 19384, Control_c, 13, 11, 55
1, 19386, Control_c, 7, 11, 57
1, 19386, Control_c, 13, 11, 54
1, 19387, Control_c, 7, 11, 55
1, 19388, Control_c, 13, 11, 52
1, 19389, Note_on_c, 13, 75, 0
1, 19389, Control_c, 7, 11, 54
1, 19389, Control_c, 13, 11, 50
1, 19391, Note_on_c, 2, 92, 0
1, 19391, Control_c, 7, 11, 52
1, 19391, Control_c, 13, 11, 48
1, 19392, Note_on_c, 7, 75, 0
1, 19392, Note_on_c, 0, 61, 73
1, 19392, Note_on_c, 0, 65, 73
1, 19392, Note_on_c, 0, 58, 73
1, 19392, Note_on_c, 0, 68, 73
1, 19392, Control_c, 7, 11, 50
1, 19392, Note_on_c, 9, 40, 115
1, 19392, Note_on_c, 9, 42, 104
1, 19393, Note_on_c, 9, 42, 0
1, 19393, Note_on_c, 9, 40, 0
1, 19393, Control_c, 13, 11, 45
1, 19394, Note_on_c, 2, 92, 84
1, 19394, Control_c, 7, 11, 48
1, 19394, Control_c, 13, 11, 43
1, 19396, Control_c, 7, 11, 45
1, 19396, Control_c, 13, 11, 41
1, 19397, Control_c, 7, 11, 43
1, 19398, Control_c, 13, 11, 39
1, 19399, Control_c, 7, 11, 41
1, 19399, Control_c, 13, 11, 37
1, 19401, Control_c, 7, 11, 39
1, 19401, Control_c, 13, 11, 35
1, 19402, Control_c, 7, 11, 37
1, 19403, Control_c, 13, 11, 33
1, 19404, Control_c, 7, 11, 35
1, 19404, Control_c, 13, 11, 30
1, 19405, Note_on_c, 0, 46, 0
1, 19406, Control_c, 7, 11, 33
1, 19406, Control_c, 13, 11, 28
1, 19407, Control_c, 7, 11, 30
1, 19408, Control_c, 13, 11, 26
1, 19409, Control_c, 7, 11, 28
1, 19410, Control_c, 13, 11, 24
1, 19411, Control_c, 7, 11, 26
1, 19413, Control_c, 7, 11, 24
1, 19416, Note_on_c, 0, 46, 74
1, 19416, Note_on_c, 1, 34, 114
1, 19416, Note_on_c, 9, 42, 69
1, 19417, Note_on_c, 9, 42, 0
1, 19420, Control_c, 13, 11, 29
1, 19421, Control_c, 13, 11, 32
1, 19423, Control_c, 7, 11, 29
1, 19423, Control_c, 13, 11, 36
1, 19424, Control_c, 7, 11, 32
1, 19425, Control_c, 13, 11, 41
1, 19426, Note_on_c, 0, 65, 0
1, 19426, Note_on_c, 0, 61, 0
1, 19426, Note_on_c, 3, 73, 0
1, 19426, Note_on_c, 0, 58, 0
1, 19426, Control_c, 7, 11, 36
1, 19426, Control_c, 13, 11, 47
1, 19427, Note_on_c, 0, 68, 0
1, 19428, Control_c, 7, 11, 41
1, 19428, Control_c, 13, 11, 53
1, 19429, Control_c, 7, 11, 47
1, 19430, Control_c, 13, 11, 59
1, 19431, Control_c, 7, 11, 53
1, 19432, Control_c, 13, 11, 66
1, 19433, Control_c, 7, 11, 59
1, 19433, Control_c, 13, 11, 73
1, 19435, Control_c, 7, 11, 66
1, 19435, Control_c, 13, 11, 82
1, 19436, Control_c, 7, 11, 73
1, 19436, Control_c, 13, 11, 92
1, 19438, Control_c, 7, 11, 82
1, 19438, Control_c, 13, 11, 103
1, 19439, Note_on_c, 0, 68, 69
1, 19439, Note_on_c, 0, 58, 69
1, 19439, Note_on_c, 3, 75, 118
1, 19439, Control_c, 7, 11, 92
1, 19440, Note_on_c, 4, 65, 0
1, 19440, Note_on_c, 4, 61, 0
1, 19440, Note_on_c, 4, 70, 0
1, 19440, Note_on_c, 4, 73, 0
1, 19440, Note_on_c, 0, 61, 69
1, 19440, Note_on_c, 0, 65, 69
1, 19440, Note_on_c, 1, 37, 114
1, 19440, Note_on_c, 4, 72, 41
1, 19440, Note_on_c, 4, 75, 97
1, 19440, Note_on_c, 4, 63, 41
1, 19440, Note_on_c, 4, 68, 74
1, 19440, Note_on_c, 9, 42, 98
1, 19440, Control_c, 13, 11, 125
1, 19441, Note_on_c, 9, 42, 0
1, 19441, Control_c, 7, 11, 103
1, 19441, Control_c, 13, 11, 127
1, 19442, Note_on_c, 1, 34, 0
1, 19442, Note_on_c, 0, 46, 0
1, 19443, Control_c, 7, 11, 125
1, 19444, Control_c, 7, 11, 127
1, 19459, Note_on_c, 3, 75, 0
1, 19463, Note_on_c, 1, 37, 0
1, 19463, Note_on_c, 0, 46, 69
1, 19463, Note_on_c, 3, 77, 108
1, 19464, Note_on_c, 4, 68, 0
1, 19464, Note_on_c, 4, 75, 0
1, 19464, Note_on_c, 4, 72, 0
1, 19464, Note_on_c, 4, 63, 0
1, 19464, Note_on_c, 1, 44, 114
1, 19464, Note_on_c, 4, 77, 87
1, 19464, Note_on_c, 4, 73, 41
1, 19464, Note_on_c, 4, 65, 41
1, 19464, Note_on_c, 4, 70, 74
1, 19464, Note_on_c, 9, 46, 83
1, 19464, Note_on_c, 9, 35, 73
1, 19465, Note_on_c, 9, 35, 0
1, 19465, Note_on_c, 9, 46, 0
1, 19467, Note_on_c, 0, 65, 0
1, 19467, Note_on_c, 0, 68, 0
1, 19469, Note_on_c, 0, 46, 0
1, 19471, Note_on_c, 0, 58, 0
1, 19471, Note_on_c, 0, 61, 0
1, 19483, Note_on_c, 2, 65, 0
1, 19485, Note_on_c, 2, 92, 0
1, 19487, Note_on_c, 2, 61, 0
1, 19488, Note_on_c, 2, 58, 0
1, 19488, Note_on_c, 3, 77, 0
1, 19488, Note_on_c, 1, 39, 114
1, 19488, Note_on_c, 9, 42, 87
1, 19488, Note_on_c, 9, 35, 115
1, 19489, Note_on_c, 9, 35, 0
1, 19489, Note_on_c, 9, 42, 0
1, 19489, Note_on_c, 0, 39, 76
1, 19489, Note_on_c, 2, 54, 81
1, 19490, Note_on_c, 1, 44, 0
1, 19490, Note_on_c, 2, 92, 83
1, 19490, Note_on_c, 2, 65, 82
1, 19491, Note_on_c, 2, 58, 89
1, 19507, Note_on_c, 1, 39, 0
1, 19510, Note_on_c, 13, 65, 105
1, 19512, Note_on_c, 0, 63, 110
1, 19512, Note_on_c, 0, 58, 110
1, 19512, Note_on_c, 0, 66, 110
1, 19512, Note_on_c, 1, 39, 105
1, 19512, Note_on_c, 9, 42, 60
1, 19513, Note_on_c, 9, 42, 0
1, 19513, Note_on_c, 0, 61, 110
1, 19513, Note_on_c, 7, 65, 95
1, 19522, Note_on_c, 0, 61, 0
1, 19527, Note_on_c, 0, 66, 0
1, 19527, Note_on_c, 0, 58, 0
1, 19529, Note_on_c, 0, 63, 0
1, 19532, Note_on_c, 13, 65, 0
1, 19535, Note_on_c, 7, 65, 0
1, 19536, Note_on_c, 0, 61, 81
1, 19536, Note_on_c, 9, 42, 72
1, 19537, Note_on_c, 9, 42, 0
1, 19537, Note_on_c, 0, 39, 0
1, 19537, Note_on_c, 1, 39, 0
1, 19537, Note_on_c, 0, 65, 76
1, 19537, Note_on_c, 0, 56, 85
1, 19546, Note_on_c, 0, 61, 0
1, 19548, Note_on_c, 0, 56, 0
1, 19549, Note_on_c, 0, 65, 0
1, 19559, Note_on_c, 0, 51, 95
1, 19559, Note_on_c, 13, 66, 103
1, 19560, Note_on_c, 9, 42, 55
1, 19561, Note_on_c, 9, 42, 0
1, 19562, Note_on_c, 7, 66, 101
1, 19570, Note_on_c, 0, 51, 0
1, 19582, Note_on_c, 2, 92, 0
1, 19582, Note_on_c, 13, 66, 0
1, 19584, Note_on_c, 4, 70, 0
1, 19584, Note_on_c, 4, 73, 0
1, 19584, Note_on_c, 4, 77, 0
1, 19584, Note_on_c, 4, 65, 0
1, 19584, Note_on_c, 0, 66, 109
1, 19584, Note_on_c, 0, 61, 109
1, 19584, Note_on_c, 0, 58, 109
1, 19584, Note_on_c, 0, 63, 109
1, 19584, Note_on_c, 9, 42, 107
1, 19584, Note_on_c, 9, 40, 115
1, 19585, Note_on_c, 9, 40, 0
1, 19585, Note_on_c, 9, 42, 0
1, 19585, Note_on_c, 7, 66, 0
1, 19586, Note_on_c, 2, 92, 83
1, 19599, Note_on_c, 0, 63, 0
1, 19599, Note_on_c, 0, 61, 0
1, 19601, Note_on_c, 0, 58, 0
1, 19603, Note_on_c, 0, 66, 0
1, 19603, Note_on_c, 13, 75, 100
1, 19606, Note_on_c, 7, 75, 68
1, 19608, Note_on_c, 0, 39, 91
1, 19608, Note_on_c, 1, 27, 114
1, 19608, Note_on_c, 9, 42, 56
1, 19609, Note_on_c, 9, 42, 0
1, 19609, Note_on_c, 13, 77, 100
1, 19612, Note_on_c, 7, 77, 84
1, 19615, Note_on_c, 13, 75, 0
1, 19618, Note_on_c, 7, 75, 0
1, 19631, Note_on_c, 0, 60, 89
1, 19631, Note_on_c, 0, 68, 89
1, 19632, Note_on_c, 1, 27, 0
1, 19632, Note_on_c, 0, 63, 88
1, 19632, Note_on_c, 1, 29, 114
1, 19632, Note_on_c, 9, 42, 98
1, 19633, Note_on_c, 9, 42, 0
1, 19633, Note_on_c, 0, 51, 88
1, 19635, Note_on_c, 13, 77, 0
1, 19636, Note_on_c, 0, 63, 0
1, 19638, Note_on_c, 7, 77, 0
1, 19646, Note_on_c, 0, 60, 0
1, 19647, Note_on_c, 0, 68, 0
1, 19654, Note_on_c, 0, 39, 0
1, 19655, Note_on_c, 3, 68, 110
1, 19655, Note_on_c, 13, 73, 99
1, 19656, Note_on_c, 0, 58, 91
1, 19656, Note_on_c, 0, 66, 91
1, 19656, Note_on_c, 0, 61, 91
1, 19656, Note_on_c, 1, 30, 114
1, 19656, Note_on_c, 4, 68, 89
1, 19656, Note_on_c, 9, 42, 72
1, 19656, Note_on_c, 9, 35, 75
1, 19657, Note_on_c, 9, 35, 0
1, 19657, Note_on_c, 9, 42, 0
1, 19657, Note_on_c, 0, 51, 0
1, 19658, Note_on_c, 1, 29, 0
1, 19658, Note_on_c, 7, 73, 78
1, 19674, Note_on_c, 0, 58, 0
1, 19674, Note_on_c, 3, 68, 0
1, 19677, Note_on_c, 0, 61, 0
1, 19677, Note_on_c, 0, 66, 0
1, 19678, Note_on_c, 1, 30, 0
1, 19679, Note_on_c, 2, 92, 0
1, 19679, Note_on_c, 0, 44, 85
1, 19679, Note_on_c, 2, 61, 86
1, 19679, Note_on_c, 3, 77, 113
1, 19680, Note_on_c, 4, 68, 0
1, 19680, Note_on_c, 1, 32, 114
1, 19680, Note_on_c, 4, 70, 89
1, 19680, Note_on_c, 4, 73, 52
1, 19680, Note_on_c, 4, 65, 52
1, 19680, Note_on_c, 4, 77, 92
1, 19680, Note_on_c, 9, 42, 104
1, 19680, Note_on_c, 9, 35, 113
1, 19681, Note_on_c, 9, 35, 0
1, 19681, Note_on_c, 9, 42, 0
1, 19682, Note_on_c, 2, 65, 0
1, 19682, Note_on_c, 2, 92, 84
1, 19697, Note_on_c, 3, 77, 0
1, 19702, Note_on_c, 1, 32, 0
1, 19703, Note_on_c, 4, 73, 0
1, 19703, Note_on_c, 4, 70, 0
1, 19703, Note_on_c, 4, 65, 0
1, 19703, Note_on_c, 4, 77, 0
1, 19703, Note_on_c, 0, 58, 68
1, 19703, Note_on_c, 0, 66, 68
1, 19703, Note_on_c, 0, 61, 68
1, 19703, Note_on_c, 3, 77, 85
1, 19704, Note_on_c, 1, 32, 114
1, 19704, Note_on_c, 4, 73, 52
1, 19704, Note_on_c, 4, 70, 89
1, 19704, Note_on_c, 4, 77, 64
1, 19704, Note_on_c, 4, 65, 52
1, 19704, Note_on_c, 9, 42, 51
1, 19705, Note_on_c, 9, 42, 0
1, 19719, Note_on_c, 3, 77, 0
1, 19727, Note_on_c, 4, 65, 0
1, 19727, Note_on_c, 4, 73, 0
1, 19727, Note_on_c, 4, 77, 0
1, 19727, Note_on_c, 4, 70, 0
1, 19727, Note_on_c, 3, 77, 118
1, 19728, Note_on_c, 0, 44, 0
1, 19728, Note_on_c, 4, 77, 97
1, 19728, Note_on_c, 4, 73, 52
1, 19728, Note_on_c, 4, 70, 89
1, 19728, Note_on_c, 4, 65, 52
1, 19728, Note_on_c, 9, 42, 95
1, 19729, Note_on_c, 9, 42, 0
1, 19733, Note_on_c, 1, 32, 0
1, 19750, Note_on_c, 3, 77, 0
1, 19751, Note_on_c, 0, 44, 67
1, 19751, Note_on_c, 3, 75, 118
1, 19752, Note_on_c, 4, 70, 0
1, 19752, Note_on_c, 4, 73, 0
1, 19752, Note_on_c, 4, 77, 0
1, 19752, Note_on_c, 4, 65, 0
1, 19752, Note_on_c, 4, 68, 89
1, 19752, Note_on_c, 4, 63, 52
1, 19752, Note_on_c, 4, 72, 52
1, 19752, Note_on_c, 4, 75, 97
1, 19752, Note_on_c, 9, 42, 69
1, 19753, Note_on_c, 9, 42, 0
1, 19758, Note_on_c, 0, 58, 0
1, 19762, Note_on_c, 0, 66, 0
1, 19762, Note_on_c, 0, 61, 0
1, 19766, Note_on_c, 2, 58, 0
1, 19774, Note_on_c, 13, 73, 0
1, 19774, Note_on_c, 2, 92, 0
1, 19774, Note_on_c, 13, 72, 96
1, 19775, Note_on_c, 0, 56, 67
1, 19775, Note_on_c, 0, 60, 67
1, 19775, Note_on_c, 0, 63, 67
1, 19775, Note_on_c, 0, 66, 67
1, 19776, Note_on_c, 2, 61, 0
1, 19776, Note_on_c, 9, 42, 104
1, 19776, Note_on_c, 9, 40, 115
1, 19777, Note_on_c, 9, 40, 0
1, 19777, Note_on_c, 9, 42, 0
1, 19777, Note_on_c, 7, 73, 0
1, 19777, Note_on_c, 2, 63, 80
1, 19777, Note_on_c, 2, 60, 84
1, 19777, Note_on_c, 2, 56, 80
1, 19777, Note_on_c, 7, 72, 60
1, 19778, Note_on_c, 2, 54, 0
1, 19778, Note_on_c, 2, 92, 84
1, 19789, Note_on_c, 0, 44, 0
1, 19799, Note_on_c, 0, 44, 66
1, 19800, Note_on_c, 1, 32, 114
1, 19800, Note_on_c, 9, 42, 65
1, 19801, Note_on_c, 9, 42, 0
1, 19807, Note_on_c, 0, 63, 0
1, 19809, Note_on_c, 0, 56, 0
1, 19809, Note_on_c, 0, 60, 0
1, 19811, Note_on_c, 0, 66, 0
1, 19816, Note_on_c, 3, 75, 0
1, 19823, Note_on_c, 0, 63, 66
1, 19823, Note_on_c, 0, 66, 66
1, 19823, Note_on_c, 0, 56, 66
1, 19823, Note_on_c, 0, 60, 66
1, 19824, Note_on_c, 0, 44, 0
1, 19824, Note_on_c, 4, 63, 0
1, 19824, Note_on_c, 4, 68, 0
1, 19824, Note_on_c, 4, 72, 0
1, 19824, Note_on_c, 4, 75, 0
1, 19824, Note_on_c, 1, 34, 114
1, 19824, Note_on_c, 3, 73, 114
1, 19824, Note_on_c, 4, 66, 89
1, 19824, Note_on_c, 4, 73, 93
1, 19824, Note_on_c, 4, 70, 49
1, 19824, Note_on_c, 4, 61, 49
1, 19824, Note_on_c, 9, 42, 98
1, 19825, Note_on_c, 9, 42, 0
1, 19827, Note_on_c, 1, 32, 0
1, 19843, Note_on_c, 3, 73, 0
1, 19843, Note_on_c, 0, 56, 0
1, 19845, Note_on_c, 0, 63, 0
1, 19845, Note_on_c, 1, 34, 0
1, 19847, Note_on_c, 0, 60, 0
1, 19847, Note_on_c, 0, 44, 66
1, 19847, Note_on_c, 3, 75, 110
1, 19848, Note_on_c, 4, 70, 0
1, 19848, Note_on_c, 4, 61, 0
1, 19848, Note_on_c, 4, 66, 0
1, 19848, Note_on_c, 4, 73, 0
1, 19848, Note_on_c, 1, 35, 114
1, 19848, Note_on_c, 4, 63, 49
1, 19848, Note_on_c, 4, 71, 49
1, 19848, Note_on_c, 4, 68, 89
1, 19848, Note_on_c, 4, 75, 89
1, 19848, Note_on_c, 9, 46, 75
1, 19848, Note_on_c, 9, 35, 74
1, 19849, Note_on_c, 9, 35, 0
1, 19849, Note_on_c, 9, 46, 0
1, 19852, Note_on_c, 0, 66, 0
1, 19853, Note_on_c, 0, 44, 0
1, 19860, Note_on_c, 2, 60, 0
1, 19861, Note_on_c, 2, 56, 0
1, 19863, Note_on_c, 2, 63, 0
1, 19869, Note_on_c, 13, 72, 0
1, 19869, Note_on_c, 2, 64, 82
1, 19870, Note_on_c, 3, 75, 0
1, 19871, Note_on_c, 2, 92, 0
1, 19871, Note_on_c, 1, 35, 0
1, 19871, Note_on_c, 13, 71, 57
1, 19872, Note_on_c, 7, 72, 0
1, 19872, Note_on_c, 0, 37, 68
1, 19872, Note_on_c, 1, 37, 114
1, 19872, Note_on_c, 9, 35, 115
1, 19872, Note_on_c, 9, 42, 70
1, 19873, Note_on_c, 9, 42, 0
1, 19873, Note_on_c, 9, 35, 0
1, 19874, Note_on_c, 2, 92, 83
1, 19874, Note_on_c, 2, 61, 80
1, 19874, Note_on_c, 2, 56, 82
1, 19874, Note_on_c, 7, 71, 54
1, 19889, Note_on_c, 1, 37, 0
1, 19895, Note_on_c, 0, 68, 112
1, 19895, Note_on_c, 0, 59, 112
1, 19895, Note_on_c, 0, 64, 112
1, 19896, Note_on_c, 1, 37, 114
1, 19896, Note_on_c, 9, 42, 61
1, 19897, Note_on_c, 9, 42, 0
1, 19905, Note_on_c, 0, 59, 0
1, 19912, Note_on_c, 0, 68, 0
1, 19913, Note_on_c, 0, 64, 0
1, 19919, Note_on_c, 0, 63, 65
1, 19919, Note_on_c, 0, 66, 65
1, 19919, Note_on_c, 0, 58, 65
1, 19920, Note_on_c, 9, 42, 98
1, 19921, Note_on_c, 9, 42, 0
1, 19921, Note_on_c, 1, 37, 0
1, 19933, Note_on_c, 0, 63, 0
1, 19934, Note_on_c, 0, 58, 0
1, 19939, Note_on_c, 0, 37, 0
1, 19939, Note_on_c, 0, 66, 0
1, 19943, Note_on_c, 0, 49, 69
1, 19944, Note_on_c, 9, 42, 69
1, 19945, Note_on_c, 9, 42, 0
1, 19967, Note_on_c, 2, 92, 0
1, 19967, Note_on_c, 0, 64, 110
1, 19967, Note_on_c, 0, 59, 104
1, 19967, Note_on_c, 0, 68, 99
1, 19968, Note_on_c, 4, 63, 0
1, 19968, Note_on_c, 4, 71, 0
1, 19968, Note_on_c, 4, 68, 0
1, 19968, Note_on_c, 4, 75, 0
1, 19968, Note_on_c, 9, 42, 115
1, 19968, Note_on_c, 9, 40, 115
1, 19969, Note_on_c, 9, 40, 0
1, 19969, Note_on_c, 9, 42, 0
1, 19970, Note_on_c, 2, 92, 82
1, 19984, Note_on_c, 0, 64, 0
1, 19986, Note_on_c, 0, 68, 0
1, 19987, Note_on_c, 0, 59, 0
1, 19991, Note_on_c, 0, 49, 0
1, 19991, Note_on_c, 0, 37, 87
1, 19992, Note_on_c, 9, 42, 69
1, 19993, Note_on_c, 9, 42, 0
1, 19996, Tempo, 909091
1, 20015, Note_on_c, 0, 63, 88
1, 20015, Note_on_c, 0, 66, 88
1, 20015, Note_on_c, 0, 58, 88
1, 20016, Note_on_c, 9, 42, 104
1, 20017, Note_on_c, 9, 42, 0
1, 20031, Note_on_c, 0, 63, 0
1, 20033, Note_on_c, 0, 58, 0
1, 20034, Note_on_c, 0, 66, 0
1, 20039, Note_on_c, 0, 49, 108
1, 20039, Note_on_c, 0, 64, 108
1, 20039, Note_on_c, 3, 66, 107
1, 20040, Note_on_c, 0, 37, 0
1, 20040, Note_on_c, 0, 68, 110
1, 20040, Note_on_c, 0, 59, 110
1, 20040, Note_on_c, 1, 37, 115
1, 20040, Note_on_c, 4, 54, 47
1, 20040, Note_on_c, 4, 66, 86
1, 20040, Note_on_c, 9, 35, 69
1, 20040, Note_on_c, 9, 42, 77
1, 20041, Note_on_c, 9, 42, 0
1, 20041, Note_on_c, 9, 35, 0
1, 20042, Note_on_c, 0, 49, 0
1, 20052, Note_on_c, 0, 64, 0
1, 20055, Note_on_c, 0, 59, 0
1, 20056, Note_on_c, 3, 66, 0
1, 20059, Note_on_c, 0, 68, 0
1, 20062, Note_on_c, 2, 61, 0
1, 20062, Note_on_c, 2, 59, 83
1, 20063, Note_on_c, 2, 92, 0
1, 20063, Note_on_c, 1, 37, 0
1, 20063, Note_on_c, 0, 42, 81
1, 20063, Note_on_c, 3, 75, 118
1, 20064, Note_on_c, 4, 54, 0
1, 20064, Note_on_c, 4, 66, 0
1, 20064, Note_on_c, 1, 30, 115
1, 20064, Note_on_c, 4, 71, 48
1, 20064, Note_on_c, 4, 63, 48
1, 20064, Note_on_c, 4, 75, 97
1, 20064, Note_on_c, 4, 68, 48
1, 20064, Note_on_c, 9, 42, 101
1, 20064, Note_on_c, 9, 35, 115
1, 20065, Note_on_c, 9, 35, 0
1, 20065, Note_on_c, 9, 42, 0
1, 20066, Note_on_c, 2, 92, 82
1, 20087, Note_on_c, 0, 68, 81
1, 20087, Note_on_c, 0, 64, 81
1, 20087, Note_on_c, 0, 59, 81
1, 20088, Note_on_c, 9, 42, 59
1, 20089, Note_on_c, 9, 42, 0
1, 20104, Note_on_c, 3, 75, 0
1, 20104, Note_on_c, 1, 30, 0
1, 20111, Note_on_c, 4, 71, 0
1, 20111, Note_on_c, 4, 75, 0
1, 20111, Note_on_c, 4, 63, 0
1, 20111, Note_on_c, 4, 68, 0
1, 20111, Note_on_c, 3, 75, 118
1, 20112, Note_on_c, 4, 75, 97
1, 20112, Note_on_c, 4, 71, 48
1, 20112, Note_on_c, 4, 63, 48
1, 20112, Note_on_c, 4, 68, 48
1, 20112, Note_on_c, 9, 42, 95
1, 20113, Note_on_c, 9, 42, 0
1, 20121, Note_on_c, 0, 42, 0
1, 20129, Note_on_c, 3, 75, 0
1, 20135, Note_on_c, 0, 42, 80
1, 20135, Note_on_c, 3, 73, 118
1, 20136, Note_on_c, 4, 71, 0
1, 20136, Note_on_c, 4, 68, 0
1, 20136, Note_on_c, 4, 75, 0
1, 20136, Note_on_c, 4, 63, 0
1, 20136, Note_on_c, 4, 66, 48
1, 20136, Note_on_c, 4, 70, 48
1, 20136, Note_on_c, 4, 61, 48
1, 20136, Note_on_c, 4, 73, 97
1, 20136, Note_on_c, 9, 42, 70
1, 20137, Note_on_c, 9, 42, 0
1, 20145, Note_on_c, 0, 59, 0
1, 20149, Note_on_c, 0, 68, 0
1, 20149, Note_on_c, 0, 64, 0
1, 20152, Note_on_c, 13, 71, 0
1, 20155, Note_on_c, 7, 71, 0
1, 20156, Note_on_c, 2, 64, 0
1, 20157, Note_on_c, 2, 59, 0
1, 20158, Note_on_c, 13, 70, 55
1, 20159, Note_on_c, 2, 92, 0
1, 20159, Note_on_c, 0, 58, 80
1, 20159, Note_on_c, 0, 66, 80
1, 20159, Note_on_c, 0, 61, 80
1, 20160, Note_on_c, 2, 54, 81
1, 20160, Note_on_c, 9, 40, 115
1, 20160, Note_on_c, 9, 42, 107
1, 20161, Note_on_c, 9, 42, 0
1, 20161, Note_on_c, 9, 40, 0
1, 20161, Note_on_c, 2, 56, 0
1, 20161, Note_on_c, 2, 58, 80
1, 20161, Note_on_c, 7, 70, 56
1, 20162, Note_on_c, 2, 94, 82
1, 20162, Note_on_c, 2, 61, 84
1, 20178, Note_on_c, 0, 42, 0
1, 20184, Note_on_c, 1, 30, 115
1, 20184, Note_on_c, 9, 42, 47
1, 20185, Note_on_c, 9, 42, 0
1, 20200, Note_on_c, 3, 73, 0
1, 20207, Note_on_c, 3, 71, 113
1, 20208, Note_on_c, 4, 66, 0
1, 20208, Note_on_c, 4, 70, 0
1, 20208, Note_on_c, 4, 73, 0
1, 20208, Note_on_c, 1, 30, 0
1, 20208, Note_on_c, 4, 61, 0
1, 20208, Note_on_c, 1, 37, 115
1, 20208, Note_on_c, 4, 71, 92
1, 20208, Note_on_c, 4, 59, 49
1, 20208, Note_on_c, 4, 68, 49
1, 20208, Note_on_c, 4, 64, 48
1, 20208, Note_on_c, 9, 42, 95
1, 20209, Note_on_c, 9, 42, 0
1, 20209, Note_on_c, 0, 42, 80
1, 20212, Note_on_c, 0, 61, 0
1, 20213, Note_on_c, 0, 66, 0
1, 20216, Note_on_c, 0, 58, 0
1, 20227, Note_on_c, 3, 71, 0
1, 20232, Note_on_c, 4, 59, 0
1, 20232, Note_on_c, 4, 64, 0
1, 20232, Note_on_c, 4, 71, 0
1, 20232, Note_on_c, 4, 68, 0
1, 20232, Note_on_c, 1, 36, 115
1, 20232, Note_on_c, 3, 73, 118
1, 20232, Note_on_c, 4, 70, 49
1, 20232, Note_on_c, 4, 66, 48
1, 20232, Note_on_c, 4, 73, 97
1, 20232, Note_on_c, 4, 61, 49
1, 20232, Note_on_c, 9, 35, 64
1, 20232, Note_on_c, 9, 46, 79
1, 20233, Note_on_c, 9, 46, 0
1, 20233, Note_on_c, 9, 35, 0
1, 20233, Note_on_c, 1, 37, 0
1, 20252, Note_on_c, 13, 70, 0
1, 20253, Note_on_c, 0, 42, 0
1, 20253, Note_on_c, 2, 63, 83
1, 20254, Note_on_c, 2, 61, 0
1, 20254, Note_on_c, 13, 66, 55
1, 20255, Note_on_c, 1, 36, 0
1, 20255, Note_on_c, 7, 70, 0
1, 20255, Note_on_c, 0, 58, 85
1, 20255, Note_on_c, 0, 63, 85
1, 20255, Note_on_c, 0, 59, 85
1, 20255, Note_on_c, 0, 54, 85
1, 20255, Note_on_c, 2, 90, 83
1, 20256, Note_on_c, 0, 47, 85
1, 20256, Note_on_c, 1, 35, 115
1, 20256, Note_on_c, 9, 35, 115
1, 20256, Note_on_c, 9, 42, 75
1, 20257, Note_on_c, 9, 42, 0
1, 20257, Note_on_c, 9, 35, 0
1, 20257, Note_on_c, 2, 94, 0
1, 20257, Note_on_c, 7, 66, 56
1, 20270, Note_on_c, 3, 73, 0
1, 20279, Note_on_c, 4, 70, 0
1, 20279, Note_on_c, 4, 66, 0
1, 20279, Note_on_c, 4, 61, 0
1, 20280, Note_on_c, 4, 73, 0
1, 20280, Note_on_c, 3, 70, 101
1, 20280, Note_on_c, 4, 70, 80
1, 20280, Note_on_c, 4, 58, 49
1, 20280, Note_on_c, 4, 61, 49
1, 20280, Note_on_c, 4, 66, 49
1, 20280, Note_on_c, 9, 42, 60
1, 20281, Note_on_c, 9, 42, 0
1, 20303, Note_on_c, 1, 35, 0
1, 20304, Note_on_c, 1, 46, 115
1, 20304, Note_on_c, 9, 42, 79
1, 20305, Note_on_c, 9, 42, 0
1, 20314, Note_on_c, 3, 70, 0
1, 20327, Note_on_c, 4, 66, 0
1, 20327, Note_on_c, 4, 61, 0
1, 20327, Note_on_c, 4, 58, 0
1, 20327, Note_on_c, 3, 66, 114
1, 20328, Note_on_c, 4, 70, 0
1, 20328, Note_on_c, 1, 49, 116
1, 20328, Note_on_c, 4, 66, 93
1, 20328, Note_on_c, 4, 58, 49
1, 20328, Note_on_c, 4, 54, 49
1, 20328, Note_on_c, 4, 61, 49
1, 20328, Note_on_c, 9, 42, 56
1, 20329, Note_on_c, 9, 42, 0
1, 20330, Note_on_c, 1, 46, 0
1, 20341, Note_on_c, 0, 54, 0
1, 20342, Note_on_c, 0, 63, 0
1, 20343, Note_on_c, 0, 59, 0
1, 20343, Note_on_c, 0, 58, 0
1, 20349, Note_on_c, 1, 49, 0
1, 20351, Note_on_c, 0, 58, 79
1, 20351, Note_on_c, 0, 63, 72
1, 20352, Note_on_c, 0, 59, 92
1, 20352, Note_on_c, 0, 54, 91
1, 20352, Note_on_c, 1, 47, 116
1, 20352, Note_on_c, 9, 40, 115
1, 20352, Note_on_c, 9, 42, 63
1, 20353, Note_on_c, 9, 42, 0
1, 20353, Note_on_c, 9, 40, 0
1, 20376, Note_on_c, 1, 37, 116
1, 20376, Note_on_c, 9, 42, 72
1, 20377, Note_on_c, 9, 42, 0
1, 20377, Note_on_c, 1, 47, 0
1, 20377, Note_on_c, 3, 66, 0
1, 20389, Note_on_c, 0, 47, 0
1, 20400, Note_on_c, 1, 36, 116
1, 20400, Note_on_c, 9, 46, 85
1, 20400, Note_on_c, 9, 45, 115
1, 20401, Note_on_c, 9, 45, 0
1, 20401, Note_on_c, 9, 46, 0
1, 20403, Note_on_c, 1, 37, 0
1, 20404, Note_on_c, 13, 66, 0
1, 20407, Note_on_c, 0, 54, 0
1, 20407, Note_on_c, 7, 66, 0
1, 20407, Note_on_c, 0, 59, 0
1, 20410, Note_on_c, 0, 58, 0
1, 20414, Note_on_c, 0, 63, 0
1, 20421, Note_on_c, 1, 36, 0
1, 20424, Note_on_c, 1, 35, 116
1, 20424, Note_on_c, 9, 41, 115
1, 20425, Note_on_c, 9, 41, 0
1, 20436, Note_on_c, 2, 63, 0
1, 20436, Note_on_c, 2, 54, 0
1, 20443, Note_on_c, 2, 58, 0
1, 20445, Note_on_c, 2, 90, 0
1, 20446, Note_on_c, 2, 88, 89
1, 20447, Note_on_c, 0, 59, 108
1, 20447, Note_on_c, 0, 49, 116
1, 20447, Note_on_c, 0, 56, 110
1, 20447, Note_on_c, 0, 37, 107
1, 20447, Note_on_c, 0, 61, 101
1, 20447, Note_on_c, 0, 64, 110
1, 20447, Note_on_c, 2, 56, 85
1, 20447, Note_on_c, 2, 61, 84
1, 20447, Note_on_c, 3, 71, 118
1, 20448, Note_on_c, 4, 61, 0
1, 20448, Note_on_c, 4, 54, 0
1, 20448, Note_on_c, 4, 66, 0
1, 20448, Note_on_c, 4, 58, 0
1, 20448, Note_on_c, 1, 37, 116
1, 20448, Note_on_c, 2, 52, 85
1, 20448, Note_on_c, 4, 71, 97
1, 20448, Note_on_c, 4, 68, 47
1, 20448, Note_on_c, 4, 64, 47
1, 20448, Note_on_c, 9, 35, 115
1, 20448, Note_on_c, 9, 49, 83
1, 20449, Note_on_c, 9, 49, 0
1, 20449, Note_on_c, 9, 35, 0
1, 20453, Note_on_c, 1, 35, 0
1, 20483, Note_on_c, 3, 71, 0
1, 20492, Note_on_c, 1, 37, 0
1, 20495, Note_on_c, 3, 70, 83
1, 20496, Note_on_c, 4, 64, 0
1, 20496, Note_on_c, 4, 71, 0
1, 20496, Note_on_c, 4, 68, 0
1, 20496, Note_on_c, 1, 35, 117
1, 20496, Note_on_c, 4, 63, 48
1, 20496, Note_on_c, 4, 70, 62
1, 20496, Note_on_c, 4, 66, 48
1, 20515, Note_on_c, 3, 70, 0
1, 20519, Note_on_c, 3, 71, 103
1, 20520, Note_on_c, 4, 63, 0
1, 20520, Note_on_c, 4, 66, 0
1, 20520, Note_on_c, 4, 70, 0
1, 20520, Note_on_c, 1, 37, 117
1, 20520, Note_on_c, 4, 68, 47
1, 20520, Note_on_c, 4, 71, 82
1, 20520, Note_on_c, 4, 64, 47
1, 20522, Note_on_c, 1, 35, 0
1, 20529, Note_on_c, 0, 37, 0
1, 20531, Note_on_c, 0, 56, 0
1, 20532, Note_on_c, 0, 59, 0
1, 20534, Note_on_c, 0, 64, 0
1, 20535, Note_on_c, 0, 49, 0
1, 20536, Note_on_c, 2, 56, 0
1, 20536, Note_on_c, 2, 61, 0
1, 20539, Note_on_c, 0, 61, 0
1, 20540, Note_on_c, 2, 52, 0
1, 20540, Note_on_c, 3, 71, 0
1, 20541, Note_on_c, 2, 88, 0
1, 20542, Note_on_c, 2, 58, 83
1, 20543, Note_on_c, 2, 54, 81
1, 20543, Note_on_c, 2, 63, 82
1, 20543, Note_on_c, 3, 73, 118
1, 20544, Note_on_c, 4, 68, 0
1, 20544, Note_on_c, 1, 37, 0
1, 20544, Note_on_c, 4, 71, 0
1, 20544, Note_on_c, 4, 64, 0
1, 20544, Note_on_c, 0, 39, 91
1, 20544, Note_on_c, 1, 39, 117
1, 20544, Note_on_c, 4, 73, 97
1, 20544, Note_on_c, 4, 66, 47
1, 20544, Note_on_c, 4, 70, 47
1, 20544, Note_on_c, 9, 57, 75
1, 20544, Note_on_c, 9, 35, 115
1, 20545, Note_on_c, 9, 35, 0
1, 20545, Note_on_c, 9, 57, 0
1, 20545, Note_on_c, 0, 51, 113
1, 20545, Note_on_c, 0, 61, 113
1, 20545, Note_on_c, 0, 58, 97
1, 20545, Note_on_c, 0, 63, 107
1, 20545, Note_on_c, 0, 66, 107
1, 20547, Note_on_c, 2, 90, 86
1, 20577, Note_on_c, 3, 73, 0
1, 20590, Note_on_c, 1, 39, 0
1, 20591, Note_on_c, 3, 71, 95
1, 20592, Note_on_c, 4, 66, 0
1, 20592, Note_on_c, 4, 70, 0
1, 20592, Note_on_c, 4, 73, 0
1, 20592, Note_on_c, 1, 37, 111
1, 20592, Note_on_c, 4, 71, 74
1, 20592, Note_on_c, 4, 68, 50
1, 20592, Note_on_c, 4, 64, 50
1, 20615, Note_on_c, 3, 73, 110
1, 20616, Note_on_c, 4, 64, 0
1, 20616, Note_on_c, 4, 68, 0
1, 20616, Note_on_c, 4, 71, 0
1, 20616, Note_on_c, 1, 39, 117
1, 20616, Note_on_c, 4, 73, 89
1, 20616, Note_on_c, 4, 70, 50
1, 20616, Note_on_c, 4, 66, 50
1, 20618, Note_on_c, 3, 71, 0
1, 20618, Note_on_c, 1, 37, 0
1, 20631, Note_on_c, 0, 58, 0
1, 20632, Note_on_c, 0, 39, 0
1, 20632, Note_on_c, 0, 51, 0
1, 20632, Note_on_c, 0, 61, 0
1, 20633, Note_on_c, 0, 63, 0
1, 20634, Note_on_c, 3, 73, 0
1, 20634, Note_on_c, 2, 58, 0
1, 20634, Note_on_c, 2, 54, 0
1, 20635, Note_on_c, 2, 63, 0
1, 20636, Note_on_c, 0, 66, 0
1, 20637, Note_on_c, 1, 39, 0
1, 20638, Note_on_c, 0, 41, 86
1, 20639, Note_on_c, 2, 56, 84
1, 20639, Note_on_c, 3, 75, 118
1, 20640, Note_on_c, 4, 70, 0
1, 20640, Note_on_c, 4, 73, 0
1, 20640, Note_on_c, 4, 66, 0
1, 20640, Note_on_c, 1, 41, 117
1, 20640, Note_on_c, 2, 65, 83
1, 20640, Note_on_c, 2, 60, 83
1, 20640, Note_on_c, 4, 68, 69
1, 20640, Note_on_c, 4, 75, 97
1, 20640, Note_on_c, 4, 72, 69
1, 20640, Note_on_c, 9, 35, 115
1, 20640, Note_on_c, 9, 49, 83
1, 20641, Note_on_c, 9, 49, 0
1, 20641, Note_on_c, 9, 35, 0
1, 20642, Note_on_c, 2, 90, 0
1, 20642, Note_on_c, 2, 92, 82
1, 20661, Note_on_c, 0, 41, 0
1, 20663, Note_on_c, 0, 63, 117
1, 20663, Note_on_c, 0, 65, 117
1, 20663, Note_on_c, 0, 68, 117
1, 20663, Note_on_c, 0, 60, 117
1, 20663, Note_on_c, 8, 60, 104
1, 20663, Note_on_c, 8, 65, 106
1, 20663, Note_on_c, 8, 68, 91
1, 20673, Note_on_c, 3, 75, 0
1, 20677, Note_on_c, 1, 41, 0
1, 20678, Note_on_c, 8, 60, 0
1, 20678, Note_on_c, 0, 60, 0
1, 20679, Note_on_c, 0, 63, 0
1, 20681, Note_on_c, 8, 68, 0
1, 20682, Note_on_c, 0, 68, 0
1, 20683, Note_on_c, 0, 65, 0
1, 20684, Note_on_c, 8, 65, 0
1, 20687, Note_on_c, 0, 67, 81
1, 20687, Note_on_c, 0, 58, 104
1, 20687, Note_on_c, 0, 63, 71
1, 20687, Note_on_c, 8, 67, 92
1, 20687, Note_on_c, 8, 58, 89
1, 20687, Note_on_c, 8, 63, 93
1, 20688, Note_on_c, 9, 42, 87
1, 20689, Note_on_c, 9, 42, 0
1, 20699, Note_on_c, 8, 58, 0
1, 20699, Note_on_c, 0, 63, 0
1, 20701, Note_on_c, 8, 67, 0
1, 20701, Note_on_c, 0, 58, 0
1, 20702, Note_on_c, 8, 63, 0
1, 20703, Note_on_c, 0, 67, 0
1, 20712, Note_on_c, 9, 42, 42
1, 20713, Note_on_c, 9, 42, 0
1, 20713, Note_on_c, 0, 41, 88
1, 20734, Note_on_c, 2, 92, 0
1, 20735, Note_on_c, 4, 72, 0
1, 20735, Note_on_c, 4, 68, 0
1, 20735, Note_on_c, 4, 75, 0
1, 20736, Note_on_c, 8, 60, 110
1, 20736, Note_on_c, 8, 56, 99
1, 20736, Note_on_c, 8, 65, 102
1, 20736, Note_on_c, 9, 42, 111
1, 20736, Note_on_c, 9, 40, 115
1, 20737, Note_on_c, 9, 40, 0
1, 20737, Note_on_c, 9, 42, 0
1, 20737, Note_on_c, 0, 68, 119
1, 20737, Note_on_c, 0, 63, 119
1, 20737, Note_on_c, 0, 60, 119
1, 20737, Note_on_c, 0, 65, 119
1, 20738, Note_on_c, 2, 92, 83
1, 20751, Note_on_c, 0, 65, 0
1, 20752, Note_on_c, 0, 63, 0
1, 20752, Note_on_c, 0, 41, 0
1, 20754, Note_on_c, 8, 60, 0
1, 20755, Note_on_c, 8, 65, 0
1, 20757, Note_on_c, 8, 56, 0
1, 20758, Note_on_c, 0, 60, 0
1, 20760, Note_on_c, 0, 68, 0
1, 20760, Note_on_c, 1, 41, 115
1, 20760, Note_on_c, 9, 42, 47
1, 20761, Note_on_c, 9, 42, 0
1, 20761, Note_on_c, 0, 53, 80
1, 20761, Note_on_c, 0, 41, 65
1, 20783, Note_on_c, 0, 63, 74
1, 20783, Note_on_c, 0, 67, 85
1, 20783, Note_on_c, 0, 58, 95
1, 20783, Note_on_c, 8, 63, 93
1, 20783, Note_on_c, 8, 67, 95
1, 20783, Note_on_c, 8, 58, 107
1, 20784, Note_on_c, 1, 39, 116
1, 20784, Note_on_c, 9, 42, 81
1, 20785, Note_on_c, 9, 42, 0
1, 20786, Note_on_c, 0, 41, 0
1, 20787, Note_on_c, 1, 41, 0
1, 20789, Note_on_c, 0, 53, 0
1, 20798, Note_on_c, 0, 58, 0
1, 20799, Note_on_c, 0, 63, 0
1, 20801, Note_on_c, 0, 67, 0
1, 20803, Note_on_c, 8, 67, 0
1, 20804, Note_on_c, 8, 63, 0
1, 20804, Note_on_c, 1, 39, 0
1, 20806, Note_on_c, 8, 58, 0
1, 20807, Note_on_c, 8, 65, 108
1, 20807, Note_on_c, 8, 68, 95
1, 20807, Note_on_c, 8, 60, 110
1, 20808, Note_on_c, 1, 32, 116
1, 20808, Note_on_c, 9, 42, 60
1, 20808, Note_on_c, 9, 35, 85
1, 20809, Note_on_c, 9, 35, 0
1, 20809, Note_on_c, 9, 42, 0
1, 20809, Note_on_c, 0, 68, 110
1, 20809, Note_on_c, 0, 63, 110
1, 20809, Note_on_c, 0, 65, 110
1, 20809, Note_on_c, 0, 60, 110
1, 20821, Note_on_c, 8, 65, 0
1, 20822, Note_on_c, 0, 63, 0
1, 20822, Note_on_c, 8, 60, 0
1, 20822, Note_on_c, 8, 68, 0
1, 20823, Note_on_c, 2, 65, 0
1, 20825, Note_on_c, 0, 65, 0
1, 20825, Note_on_c, 2, 60, 0
1, 20826, Note_on_c, 0, 60, 0
1, 20827, Note_on_c, 1, 32, 0
1, 20828, Note_on_c, 0, 68, 0
1, 20829, Note_on_c, 2, 56, 0
1, 20831, Note_on_c, 2, 92, 0
1, 20831, Note_on_c, 2, 61, 80
1, 20831, Note_on_c, 2, 65, 84
1, 20831, Note_on_c, 2, 58, 83
1, 20831, Note_on_c, 3, 75, 118
1, 20832, Note_on_c, 1, 34, 116
1, 20832, Note_on_c, 4, 68, 74
1, 20832, Note_on_c, 4, 72, 42
1, 20832, Note_on_c, 4, 63, 42
1, 20832, Note_on_c, 4, 75, 97
1, 20832, Note_on_c, 9, 35, 115
1, 20832, Note_on_c, 9, 42, 101
1, 20833, Note_on_c, 9, 42, 0
1, 20833, Note_on_c, 9, 35, 0
1, 20833, Note_on_c, 0, 46, 107
1, 20834, Note_on_c, 2, 92, 82
1, 20842, Note_on_c, 0, 46, 0
1, 20848, Note_on_c, 1, 34, 0
1, 20851, Note_on_c, 3, 75, 0
1, 20855, Note_on_c, 4, 75, 0
1, 20855, Note_on_c, 4, 63, 0
1, 20855, Note_on_c, 4, 68, 0
1, 20855, Note_on_c, 4, 72, 0
1, 20855, Note_on_c, 3, 75, 92
1, 20856, Note_on_c, 0, 46, 99
1, 20856, Note_on_c, 1, 34, 116
1, 20856, Note_on_c, 4, 68, 74
1, 20856, Note_on_c, 4, 72, 43
1, 20856, Note_on_c, 4, 63, 43
1, 20856, Note_on_c, 4, 75, 71
1, 20856, Note_on_c, 9, 42, 55
1, 20857, Note_on_c, 9, 42, 0
1, 20861, Note_on_c, 0, 46, 0
1, 20873, Note_on_c, 3, 75, 0
1, 20876, Note_on_c, 1, 34, 0
1, 20879, Note_on_c, 4, 75, 0
1, 20879, Note_on_c, 4, 68, 0
1, 20879, Note_on_c, 4, 63, 0
1, 20879, Note_on_c, 4, 72, 0
1, 20879, Note_on_c, 3, 75, 107
1, 20880, Note_on_c, 4, 68, 74
1, 20880, Note_on_c, 4, 75, 74
1, 20880, Note_on_c, 4, 72, 43
1, 20880, Note_on_c, 4, 63, 43
1, 20880, Note_on_c, 9, 42, 81
1, 20881, Note_on_c, 9, 42, 0
1, 20899, Note_on_c, 3, 75, 0
1, 20903, Note_on_c, 0, 46, 82
1, 20903, Note_on_c, 3, 73, 114
1, 20904, Note_on_c, 4, 72, 0
1, 20904, Note_on_c, 4, 63, 0
1, 20904, Note_on_c, 4, 75, 0
1, 20904, Note_on_c, 4, 68, 0
1, 20904, Note_on_c, 1, 34, 115
1, 20904, Note_on_c, 4, 65, 74
1, 20904, Note_on_c, 4, 73, 90
1, 20904, Note_on_c, 4, 70, 43
1, 20904, Note_on_c, 4, 61, 43
1, 20904, Note_on_c, 9, 42, 73
1, 20905, Note_on_c, 9, 42, 0
1, 20910, Note_on_c, 0, 46, 0
1, 20926, Note_on_c, 2, 92, 0
1, 20928, Note_on_c, 9, 40, 115
1, 20928, Note_on_c, 9, 42, 101
1, 20929, Note_on_c, 9, 42, 0
1, 20929, Note_on_c, 9, 40, 0
1, 20930, Note_on_c, 2, 92, 82
1, 20932, Note_on_c, 1, 34, 0
1, 20951, Note_on_c, 0, 46, 119
1, 20951, Note_on_c, 0, 68, 116
1, 20951, Note_on_c, 0, 61, 119
1, 20951, Note_on_c, 0, 58, 123
1, 20951, Note_on_c, 0, 65, 127
1, 20952, Note_on_c, 1, 34, 115
1, 20952, Note_on_c, 9, 35, 115
1, 20952, Note_on_c, 9, 46, 95
1, 20953, Note_on_c, 9, 46, 0
1, 20953, Note_on_c, 9, 35, 0
1, 20959, Note_on_c, 0, 46, 0
1, 20966, Note_on_c, 0, 65, 0
1, 20968, Note_on_c, 3, 73, 0
1, 20974, Note_on_c, 0, 61, 0
1, 20975, Note_on_c, 0, 68, 0
1, 20975, Note_on_c, 3, 75, 118
1, 20976, Note_on_c, 4, 73, 0
1, 20976, Note_on_c, 4, 65, 0
1, 20976, Note_on_c, 4, 61, 0
1, 20976, Note_on_c, 4, 70, 0
1, 20976, Note_on_c, 0, 58, 0
1, 20976, Note_on_c, 4, 68, 74
1, 20976, Note_on_c, 4, 72, 41
1, 20976, Note_on_c, 4, 75, 97
1, 20976, Note_on_c, 4, 63, 41
1, 20976, Note_on_c, 9, 42, 85
1, 20977, Note_on_c, 9, 42, 0
1, 20982, Note_on_c, 1, 34, 0
1, 20995, Note_on_c, 3, 75, 0
1, 20999, Note_on_c, 0, 66, 123
1, 20999, Note_on_c, 0, 58, 116
1, 20999, Note_on_c, 0, 61, 119
1, 20999, Note_on_c, 3, 77, 113
1, 21000, Note_on_c, 4, 75, 0
1, 21000, Note_on_c, 4, 72, 0
1, 21000, Note_on_c, 4, 63, 0
1, 21000, Note_on_c, 4, 68, 0
1, 21000, Note_on_c, 0, 39, 89
1, 21000, Note_on_c, 0, 51, 107
1, 21000, Note_on_c, 1, 39, 115
1, 21000, Note_on_c, 4, 73, 41
1, 21000, Note_on_c, 4, 70, 74
1, 21000, Note_on_c, 4, 77, 87
1, 21000, Note_on_c, 4, 65, 41
1, 21000, Note_on_c, 9, 46, 97
1, 21000, Note_on_c, 9, 35, 85
1, 21001, Note_on_c, 9, 35, 0
1, 21001, Note_on_c, 9, 46, 0
1, 21018, Note_on_c, 0, 61, 0
1, 21019, Note_on_c, 2, 61, 0
1, 21020, Note_on_c, 0, 39, 0
1, 21020, Note_on_c, 0, 66, 0
1, 21020, Note_on_c, 0, 58, 0
1, 21022, Note_on_c, 2, 92, 0
1, 21024, Note_on_c, 0, 51, 0
1, 21024, Note_on_c, 9, 35, 115
1, 21024, Note_on_c, 9, 42, 79
1, 21025, Note_on_c, 9, 42, 0
1, 21025, Note_on_c, 9, 35, 0
1, 21025, Note_on_c, 2, 54, 92
1, 21026, Note_on_c, 1, 39, 0
1, 21026, Note_on_c, 2, 92, 81
1, 21027, Note_on_c, 3, 77, 0
1, 21047, Note_on_c, 0, 58, 107
1, 21047, Note_on_c, 0, 66, 119
1, 21047, Note_on_c, 0, 61, 113
1, 21048, Note_on_c, 8, 58, 116
1, 21048, Note_on_c, 9, 42, 63
1, 21049, Note_on_c, 9, 42, 0
1, 21049, Note_on_c, 8, 66, 119
1, 21049, Note_on_c, 8, 63, 116
1, 21061, Note_on_c, 0, 58, 0
1, 21061, Note_on_c, 0, 61, 0
1, 21063, Note_on_c, 0, 66, 0
1, 21063, Note_on_c, 8, 58, 0
1, 21065, Note_on_c, 8, 66, 0
1, 21065, Note_on_c, 8, 63, 0
1, 21072, Note_on_c, 8, 65, 97
1, 21072, Note_on_c, 9, 42, 107
1, 21073, Note_on_c, 9, 42, 0
1, 21073, Note_on_c, 0, 61, 95
1, 21073, Note_on_c, 0, 65, 106
1, 21073, Note_on_c, 0, 56, 107
1, 21073, Note_on_c, 8, 61, 85
1, 21073, Note_on_c, 8, 56, 95
1, 21085, Note_on_c, 0, 61, 0
1, 21087, Note_on_c, 0, 65, 0
1, 21088, Note_on_c, 0, 56, 0
1, 21090, Note_on_c, 8, 65, 0
1, 21090, Note_on_c, 8, 61, 0
1, 21090, Note_on_c, 8, 56, 0
1, 21096, Note_on_c, 1, 34, 114
1, 21096, Note_on_c, 9, 42, 72
1, 21097, Note_on_c, 9, 42, 0
1, 21097, Note_on_c, 0, 39, 85
1, 21103, Note_on_c, 0, 39, 0
1, 21115, Note_on_c, 1, 34, 0
1, 21119, Note_on_c, 2, 92, 0
1, 21119, Note_on_c, 8, 54, 97
1, 21119, Note_on_c, 8, 58, 97
1, 21119, Note_on_c, 8, 63, 101
1, 21120, Note_on_c, 4, 77, 0
1, 21120, Note_on_c, 4, 65, 0
1, 21120, Note_on_c, 4, 73, 0
1, 21120, Note_on_c, 4, 70, 0
1, 21120, Note_on_c, 1, 39, 114
1, 21120, Note_on_c, 9, 46, 101
1, 21120, Note_on_c, 9, 40, 115
1, 21121, Note_on_c, 9, 40, 0
1, 21121, Note_on_c, 9, 46, 0
1, 21121, Note_on_c, 0, 66, 127
1, 21121, Note_on_c, 0, 61, 127
1, 21121, Note_on_c, 0, 58, 119
1, 21121, Note_on_c, 9, 55, 115
1, 21122, Note_on_c, 9, 55, 0
1, 21122, Note_on_c, 2, 92, 84
1, 21135, Note_on_c, 0, 61, 0
1, 21135, Note_on_c, 8, 58, 0
1, 21136, Note_on_c, 0, 58, 0
1, 21138, Note_on_c, 8, 63, 0
1, 21139, Note_on_c, 0, 66, 0
1, 21139, Note_on_c, 1, 39, 0
1, 21141, Note_on_c, 8, 54, 0
1, 21144, Note_on_c, 0, 39, 85
1, 21144, Note_on_c, 1, 27, 114
1, 21165, Note_on_c, 1, 27, 0
1, 21165, Note_on_c, 0, 39, 0
1, 21167, Note_on_c, 0, 68, 107
1, 21167, Note_on_c, 0, 65, 106
1, 21167, Note_on_c, 0, 61, 110
1, 21167, Note_on_c, 8, 61, 93
1, 21168, Note_on_c, 1, 29, 116
1, 21168, Note_on_c, 8, 65, 100
1, 21168, Note_on_c, 8, 56, 113
1, 21168, Note_on_c, 9, 42, 72
1, 21169, Note_on_c, 9, 42, 0
1, 21169, Note_on_c, 0, 51, 104
1, 21179, Note_on_c, 0, 51, 0
1, 21182, Note_on_c, 0, 65, 0
1, 21183, Note_on_c, 8, 65, 0
1, 21183, Note_on_c, 0, 61, 0
1, 21185, Note_on_c, 0, 68, 0
1, 21189, Note_on_c, 8, 61, 0
1, 21190, Note_on_c, 8, 56, 0
1, 21192, Note_on_c, 1, 30, 116
1, 21192, Note_on_c, 3, 68, 101
1, 21192, Note_on_c, 4, 68, 89
1, 21192, Note_on_c, 9, 42, 73
1, 21192, Note_on_c, 9, 35, 86
1, 21193, Note_on_c, 9, 35, 0
1, 21193, Note_on_c, 9, 42, 0
1, 21193, Note_on_c, 0, 58, 107
1, 21193, Note_on_c, 0, 44, 78
1, 21193, Note_on_c, 0, 66, 95
1, 21193, Note_on_c, 0, 61, 104
1, 21193, Note_on_c, 8, 58, 99
1, 21193, Note_on_c, 8, 63, 91
1, 21193, Note_on_c, 8, 66, 101
1, 21195, Note_on_c, 1, 29, 0
1, 21203, Note_on_c, 0, 44, 0
1, 21207, Note_on_c, 8, 63, 0
1, 21207, Note_on_c, 8, 58, 0
1, 21208, Note_on_c, 8, 66, 0
1, 21209, Note_on_c, 3, 68, 0
1, 21209, Note_on_c, 2, 65, 0
1, 21210, Note_on_c, 0, 61, 0
1, 21211, Note_on_c, 0, 66, 0
1, 21213, Note_on_c, 0, 58, 0
1, 21214, Note_on_c, 1, 30, 0
1, 21215, Note_on_c, 2, 92, 0
1, 21215, Note_on_c, 3, 77, 118
1, 21216, Note_on_c, 4, 68, 0
1, 21216, Note_on_c, 1, 32, 116
1, 21216, Note_on_c, 4, 70, 89
1, 21216, Note_on_c, 4, 77, 92
1, 21216, Note_on_c, 4, 73, 52
1, 21216, Note_on_c, 4, 65, 52
1, 21216, Note_on_c, 9, 35, 115
1, 21216, Note_on_c, 9, 42, 115
1, 21217, Note_on_c, 9, 42, 0
1, 21217, Note_on_c, 9, 35, 0
1, 21217, Note_on_c, 2, 61, 81
1, 21218, Note_on_c, 2, 92, 82
1, 21225, Control_c, 7, 11, 126
1, 21230, Control_c, 7, 11, 123
1, 21232, Control_c, 7, 11, 122
1, 21233, Note_on_c, 3, 77, 0
1, 21233, Control_c, 7, 11, 120
1, 21235, Control_c, 7, 11, 118
1, 21236, Note_on_c, 1, 32, 0
1, 21237, Control_c, 7, 11, 116
1, 21238, Control_c, 7, 11, 115
1, 21239, Note_on_c, 4, 65, 0
1, 21239, Note_on_c, 4, 70, 0
1, 21239, Note_on_c, 4, 77, 0
1, 21239, Note_on_c, 4, 73, 0
1, 21239, Note_on_c, 3, 77, 89
1, 21240, Note_on_c, 4, 73, 52
1, 21240, Note_on_c, 4, 65, 52
1, 21240, Note_on_c, 4, 70, 89
1, 21240, Note_on_c, 4, 77, 64
1, 21240, Control_c, 7, 11, 113
1, 21240, Note_on_c, 9, 42, 69
1, 21241, Note_on_c, 9, 42, 0
1, 21241, Note_on_c, 0, 66, 97
1, 21241, Note_on_c, 0, 58, 85
1, 21241, Note_on_c, 0, 61, 89
1, 21242, Control_c, 7, 11, 112
1, 21247, Control_c, 7, 11, 109
1, 21248, Note_on_c, 0, 61, 0
1, 21252, Control_c, 7, 11, 106
1, 21253, Note_on_c, 0, 66, 0
1, 21253, Note_on_c, 0, 58, 0
1, 21255, Note_on_c, 3, 77, 0
1, 21258, Control_c, 7, 11, 103
1, 21263, Note_on_c, 4, 77, 0
1, 21263, Note_on_c, 4, 70, 0
1, 21263, Note_on_c, 4, 73, 0
1, 21263, Note_on_c, 4, 65, 0
1, 21263, Control_c, 7, 11, 100
1, 21264, Note_on_c, 3, 77, 113
1, 21264, Note_on_c, 4, 73, 52
1, 21264, Note_on_c, 4, 70, 89
1, 21264, Note_on_c, 4, 65, 52
1, 21264, Note_on_c, 4, 77, 97
1, 21264, Note_on_c, 9, 42, 107
1, 21265, Note_on_c, 9, 42, 0
1, 21268, Control_c, 7, 11, 97
1, 21274, Control_c, 7, 11, 95
1, 21279, Control_c, 7, 11, 92
1, 21281, Note_on_c, 3, 77, 0
1, 21284, Control_c, 7, 11, 89
1, 21287, Note_on_c, 3, 75, 118
1, 21288, Note_on_c, 4, 65, 0
1, 21288, Note_on_c, 4, 77, 0
1, 21288, Note_on_c, 4, 70, 0
1, 21288, Note_on_c, 4, 73, 0
1, 21288, Note_on_c, 1, 32, 114
1, 21288, Note_on_c, 4, 72, 52
1, 21288, Note_on_c, 4, 63, 52
1, 21288, Note_on_c, 4, 68, 89
1, 21288, Note_on_c, 4, 75, 97
1, 21288, Note_on_c, 9, 42, 72
1, 21289, Note_on_c, 9, 42, 0
1, 21289, Note_on_c, 0, 44, 107
1, 21290, Control_c, 7, 11, 87
1, 21293, Note_on_c, 0, 44, 0
1, 21297, Control_c, 7, 11, 84
1, 21302, Note_on_c, 1, 32, 0
1, 21309, Control_c, 7, 11, 82
1, 21310, Note_on_c, 2, 92, 0
1, 21311, Note_on_c, 0, 58, 97
1, 21311, Note_on_c, 0, 66, 107
1, 21311, Note_on_c, 0, 61, 97
1, 21312, Note_on_c, 2, 61, 0
1, 21312, Note_on_c, 2, 54, 0
1, 21312, Note_on_c, 1, 32, 114
1, 21312, Note_on_c, 9, 40, 115
1, 21312, Note_on_c, 9, 42, 101
1, 21313, Note_on_c, 9, 42, 0
1, 21313, Note_on_c, 9, 40, 0
1, 21313, Note_on_c, 0, 44, 101
1, 21313, Note_on_c, 2, 60, 81
1, 21314, Note_on_c, 2, 58, 0
1, 21314, Note_on_c, 2, 63, 81
1, 21314, Note_on_c, 2, 92, 81
1, 21314, Note_on_c, 2, 56, 83
1, 21317, Note_on_c, 0, 44, 0
1, 21317, Note_on_c, 0, 61, 0
1, 21318, Note_on_c, 0, 66, 0
1, 21319, Note_on_c, 0, 58, 0
1, 21321, Control_c, 7, 11, 79
1, 21331, Note_on_c, 1, 32, 0
1, 21336, Note_on_c, 1, 32, 114
1, 21336, Note_on_c, 9, 35, 115
1, 21336, Note_on_c, 9, 46, 94
1, 21337, Note_on_c, 9, 46, 0
1, 21337, Note_on_c, 9, 35, 0
1, 21337, Note_on_c, 0, 61, 123
1, 21337, Note_on_c, 0, 66, 127
1, 21337, Note_on_c, 0, 58, 119
1, 21337, Note_on_c, 0, 44, 101
1, 21343, Note_on_c, 0, 44, 0
1, 21348, Note_on_c, 3, 75, 0
1, 21351, Note_on_c, 0, 61, 0
1, 21351, Control_c, 7, 11, 77
1, 21356, Note_on_c, 0, 58, 0
1, 21357, Note_on_c, 0, 66, 0
1, 21359, Note_on_c, 3, 73, 114
1, 21360, Note_on_c, 4, 75, 0
1, 21360, Note_on_c, 4, 68, 0
1, 21360, Note_on_c, 4, 63, 0
1, 21360, Note_on_c, 4, 72, 0
1, 21360, Note_on_c, 4, 70, 49
1, 21360, Note_on_c, 4, 61, 49
1, 21360, Note_on_c, 4, 73, 93
1, 21360, Note_on_c, 4, 66, 89
1, 21360, Note_on_c, 9, 42, 83
1, 21361, Note_on_c, 9, 42, 0
1, 21365, Note_on_c, 1, 32, 0
1, 21380, Note_on_c, 3, 73, 0
1, 21380, Note_on_c, 2, 60, 0
1, 21380, Control_c, 7, 11, 74
1, 21381, Note_on_c, 2, 63, 0
1, 21382, Note_on_c, 2, 61, 84
1, 21382, Note_on_c, 2, 64, 83
1, 21383, Note_on_c, 0, 68, 101
1, 21383, Note_on_c, 0, 59, 106
1, 21383, Note_on_c, 0, 37, 89
1, 21383, Note_on_c, 0, 64, 110
1, 21384, Note_on_c, 4, 61, 0
1, 21384, Note_on_c, 4, 73, 0
1, 21384, Note_on_c, 4, 66, 0
1, 21384, Note_on_c, 4, 70, 0
1, 21384, Note_on_c, 1, 37, 113
1, 21384, Note_on_c, 4, 71, 49
1, 21384, Note_on_c, 4, 63, 49
1, 21384, Note_on_c, 4, 68, 89
1, 21384, Note_on_c, 4, 75, 89
1, 21384, Note_on_c, 9, 35, 113
1, 21384, Note_on_c, 9, 46, 97
1, 21385, Note_on_c, 9, 46, 0
1, 21385, Note_on_c, 9, 35, 0
1, 21385, Note_on_c, 0, 49, 99
1, 21385, Note_on_c, 3, 75, 114
1, 21390, Note_on_c, 0, 49, 0
1, 21391, Note_on_c, 0, 37, 0
1, 21396, Control_c, 7, 11, 72
1, 21401, Note_on_c, 0, 64, 0
1, 21404, Note_on_c, 0, 68, 0
1, 21405, Note_on_c, 0, 59, 0
1, 21406, Note_on_c, 2, 92, 0
1, 21408, Note_on_c, 9, 42, 73
1, 21408, Note_on_c, 9, 35, 113
1, 21409, Note_on_c, 9, 35, 0
1, 21409, Note_on_c, 9, 42, 0
1, 21409, Note_on_c, 3, 75, 0
1, 21410, Note_on_c, 2, 92, 83
1, 21411, Note_on_c, 1, 37, 0
1, 21432, Note_on_c, 0, 64, 120
1, 21432, Note_on_c, 0, 59, 108
1, 21432, Note_on_c, 8, 56, 113
1, 21432, Note_on_c, 9, 42, 70
1, 21433, Note_on_c, 9, 42, 0
1, 21433, Note_on_c, 0, 68, 116
1, 21433, Note_on_c, 0, 37, 85
1, 21433, Note_on_c, 0, 49, 99
1, 21433, Note_on_c, 8, 61, 77
1, 21433, Note_on_c, 8, 64, 112
1, 21433, Note_on_c, 8, 59, 112
1, 21434, Note_on_c, 8, 61, 0
1, 21438, Note_on_c, 0, 49, 0
1, 21438, Note_on_c, 0, 37, 0
1, 21444, Note_on_c, 0, 59, 0
1, 21445, Note_on_c, 8, 59, 0
1, 21446, Note_on_c, 8, 56, 0
1, 21448, Note_on_c, 0, 68, 0
1, 21450, Note_on_c, 0, 64, 0
1, 21452, Note_on_c, 8, 64, 0
1, 21456, Note_on_c, 0, 58, 113
1, 21456, Note_on_c, 0, 66, 87
1, 21456, Note_on_c, 0, 63, 97
1, 21456, Note_on_c, 1, 32, 112
1, 21456, Note_on_c, 8, 63, 87
1, 21456, Note_on_c, 8, 58, 89
1, 21456, Note_on_c, 8, 54, 99
1, 21456, Note_on_c, 9, 42, 98
1, 21457, Note_on_c, 9, 42, 0
1, 21474, Note_on_c, 0, 63, 0
1, 21475, Note_on_c, 0, 58, 0
1, 21475, Note_on_c, 8, 54, 0
1, 21475, Note_on_c, 8, 63, 0
1, 21476, Note_on_c, 0, 66, 0
1, 21478, Note_on_c, 8, 58, 0
1, 21479, Note_on_c, 0, 37, 85
1, 21480, Note_on_c, 1, 32, 0
1, 21480, Note_on_c, 1, 35, 112
1, 21480, Note_on_c, 9, 42, 87
1, 21481, Note_on_c, 9, 42, 0
1, 21486, Note_on_c, 0, 37, 0
1, 21501, Note_on_c, 1, 35, 0
1, 21502, Note_on_c, 2, 92, 0
1, 21503, Note_on_c, 8, 56, 104
1, 21503, Note_on_c, 8, 61, 99
1, 21503, Note_on_c, 8, 52, 94
1, 21504, Note_on_c, 4, 75, 0
1, 21504, Note_on_c, 4, 68, 0
1, 21504, Note_on_c, 4, 71, 0
1, 21504, Note_on_c, 4, 63, 0
1, 21504, Note_on_c, 0, 64, 122
1, 21504, Note_on_c, 0, 59, 114
1, 21504, Note_on_c, 0, 68, 116
1, 21504, Note_on_c, 1, 37, 112
1, 21504, Note_on_c, 9, 40, 115
1, 21504, Note_on_c, 9, 55, 115
1, 21505, Note_on_c, 9, 55, 0
1, 21505, Note_on_c, 9, 40, 0
1, 21506, Note_on_c, 2, 92, 84
1, 21522, Note_on_c, 8, 56, 0
1, 21525, Note_on_c, 8, 61, 0
1, 21526, Note_on_c, 0, 64, 0
1, 21527, Note_on_c, 8, 52, 0
1, 21527, Note_on_c, 0, 37, 95
1, 21528, Note_on_c, 0, 59, 0
1, 21530, Note_on_c, 1, 37, 0
1, 21531, Note_on_c, 0, 68, 0
1, 21550, Note_on_c, 0, 37, 0
1, 21551, Note_on_c, 0, 58, 110
1, 21551, Note_on_c, 8, 58, 99
1, 21551, Note_on_c, 8, 63, 97
1, 21551, Note_on_c, 8, 54, 107
1, 21552, Note_on_c, 0, 63, 113
1, 21552, Note_on_c, 0, 66, 99
1, 21552, Note_on_c, 1, 32, 112
1, 21552, Note_on_c, 9, 42, 85
1, 21553, Note_on_c, 9, 42, 0
1, 21553, Note_on_c, 0, 49, 99
1, 21563, Note_on_c, 0, 49, 0
1, 21570, Note_on_c, 0, 63, 0
1, 21571, Note_on_c, 1, 32, 0
1, 21571, Note_on_c, 8, 63, 0
1, 21571, Note_on_c, 8, 58, 0
1, 21571, Note_on_c, 0, 58, 0
1, 21572, Note_on_c, 0, 66, 0
1, 21576, Note_on_c, 8, 54, 0
1, 21576, Note_on_c, 1, 25, 112
1, 21576, Note_on_c, 3, 66, 110
1, 21576, Note_on_c, 4, 54, 47
1, 21576, Note_on_c, 4, 66, 86
1, 21576, Note_on_c, 9, 35, 82
1, 21576, Note_on_c, 9, 42, 83
1, 21577, Note_on_c, 9, 42, 0
1, 21577, Note_on_c, 9, 35, 0
1, 21577, Note_on_c, 0, 64, 104
1, 21577, Note_on_c, 0, 59, 104
1, 21577, Note_on_c, 0, 68, 104
1, 21577, Note_on_c, 8, 64, 91
1, 21577, Note_on_c, 8, 59, 91
1, 21577, Note_on_c, 8, 56, 101
1, 21591, Note_on_c, 3, 66, 0
1, 21594, Note_on_c, 8, 56, 0
1, 21594, Note_on_c, 8, 64, 0
1, 21595, Note_on_c, 8, 59, 0
1, 21597, Note_on_c, 2, 61, 0
1, 21598, Note_on_c, 2, 92, 0
1, 21599, Note_on_c, 0, 64, 0
1, 21599, Note_on_c, 0, 68, 0
1, 21599, Note_on_c, 3, 75, 118
1, 21600, Note_on_c, 4, 66, 0
1, 21600, Note_on_c, 4, 54, 0
1, 21600, Note_on_c, 1, 30, 112
1, 21600, Note_on_c, 4, 63, 48
1, 21600, Note_on_c, 4, 75, 97
1, 21600, Note_on_c, 4, 68, 48
1, 21600, Note_on_c, 4, 71, 48
1, 21600, Note_on_c, 9, 42, 115
1, 21600, Note_on_c, 9, 35, 115
1, 21601, Note_on_c, 9, 35, 0
1, 21601, Note_on_c, 0, 59, 0
1, 21601, Note_on_c, 9, 42, 0
1, 21601, Note_on_c, 0, 42, 119
1, 21601, Note_on_c, 2, 59, 85
1, 21602, Note_on_c, 2, 92, 84
1, 21603, Note_on_c, 1, 25, 0
1, 21624, Note_on_c, 9, 42, 55
1, 21625, Note_on_c, 9, 42, 0
1, 21625, Note_on_c, 0, 68, 81
1, 21625, Note_on_c, 0, 64, 97
1, 21625, Note_on_c, 0, 59, 92
1, 21632, Note_on_c, 1, 30, 0
1, 21635, Note_on_c, 3, 75, 0
1, 21647, Note_on_c, 4, 68, 0
1, 21647, Note_on_c, 4, 75, 0
1, 21647, Note_on_c, 4, 71, 0
1, 21647, Note_on_c, 4, 63, 0
1, 21647, Note_on_c, 3, 75, 118
1, 21648, Note_on_c, 4, 63, 48
1, 21648, Note_on_c, 4, 75, 97
1, 21648, Note_on_c, 4, 71, 48
1, 21648, Note_on_c, 4, 68, 48
1, 21648, Note_on_c, 9, 42, 83
1, 21649, Note_on_c, 9, 42, 0
1, 21664, Note_on_c, 3, 75, 0
1, 21665, Note_on_c, 0, 59, 0
1, 21665, Note_on_c, 0, 64, 0
1, 21666, Note_on_c, 0, 68, 0
1, 21672, Note_on_c, 4, 63, 0
1, 21672, Note_on_c, 4, 71, 0
1, 21672, Note_on_c, 4, 75, 0
1, 21672, Note_on_c, 4, 68, 0
1, 21672, Note_on_c, 1, 30, 113
1, 21672, Note_on_c, 3, 73, 118
1, 21672, Note_on_c, 4, 61, 48
1, 21672, Note_on_c, 4, 70, 48
1, 21672, Note_on_c, 4, 66, 48
1, 21672, Note_on_c, 4, 73, 97
1, 21672, Note_on_c, 9, 42, 83
1, 21673, Note_on_c, 9, 42, 0
1, 21673, Note_on_c, 0, 42, 0
1, 21673, Note_on_c, 0, 64, 80
1, 21673, Note_on_c, 0, 59, 61
1, 21673, Note_on_c, 0, 54, 79
1, 21673, Note_on_c, 0, 68, 59
1, 21681, Note_on_c, 0, 59, 0
1, 21682, Note_on_c, 0, 54, 0
1, 21684, Note_on_c, 1, 30, 0
1, 21686, Note_on_c, 0, 68, 0
1, 21688, Note_on_c, 0, 64, 0
1, 21693, Note_on_c, 2, 92, 0
1, 21693, Note_on_c, 2, 64, 0
1, 21695, Note_on_c, 2, 94, 75
1, 21696, Note_on_c, 2, 59, 0
1, 21696, Note_on_c, 1, 30, 113
1, 21696, Note_on_c, 9, 42, 101
1, 21696, Note_on_c, 9, 40, 115
1, 21697, Note_on_c, 9, 40, 0
1, 21697, Note_on_c, 9, 42, 0
1, 21697, Note_on_c, 2, 56, 0
1, 21697, Note_on_c, 0, 66, 101
1, 21697, Note_on_c, 0, 42, 113
1, 21697, Note_on_c, 0, 61, 107
1, 21697, Note_on_c, 0, 64, 104
1, 21697, Note_on_c, 0, 58, 116
1, 21697, Note_on_c, 2, 54, 83
1, 21697, Note_on_c, 2, 61, 81
1, 21697, Note_on_c, 2, 58, 81
1, 21715, Note_on_c, 1, 30, 0
1, 21719, Note_on_c, 8, 42, 119
1, 21720, Note_on_c, 1, 37, 113
1, 21720, Note_on_c, 9, 35, 115
1, 21720, Note_on_c, 9, 46, 83
1, 21721, Note_on_c, 9, 46, 0
1, 21721, Note_on_c, 9, 35, 0
1, 21727, Note_on_c, 3, 73, 0
1, 21739, Note_on_c, 8, 42, 0
1, 21743, Note_on_c, 3, 71, 113
1, 21744, Note_on_c, 4, 61, 0
1, 21744, Note_on_c, 4, 66, 0
1, 21744, Note_on_c, 4, 73, 0
1, 21744, Note_on_c, 4, 70, 0
1, 21744, Note_on_c, 4, 64, 48
1, 21744, Note_on_c, 4, 71, 92
1, 21744, Note_on_c, 4, 59, 49
1, 21744, Note_on_c, 4, 68, 49
1, 21744, Note_on_c, 9, 42, 89
1, 21745, Note_on_c, 9, 42, 0
1, 21745, Note_on_c, 0, 54, 119
1, 21746, Note_on_c, 1, 37, 0
1, 21748, Note_on_c, 0, 64, 0
1, 21750, Note_on_c, 0, 66, 0
1, 21751, Note_on_c, 0, 61, 0
1, 21755, Note_on_c, 0, 58, 0
1, 21764, Note_on_c, 3, 71, 0
1, 21767, Note_on_c, 8, 35, 112
1, 21768, Note_on_c, 4, 59, 0
1, 21768, Note_on_c, 4, 64, 0
1, 21768, Note_on_c, 4, 71, 0
1, 21768, Note_on_c, 4, 68, 0
1, 21768, Note_on_c, 1, 35, 114
1, 21768, Note_on_c, 4, 70, 49
1, 21768, Note_on_c, 4, 66, 48
1, 21768, Note_on_c, 4, 73, 97
1, 21768, Note_on_c, 4, 61, 49
1, 21768, Note_on_c, 9, 35, 81
1, 21768, Note_on_c, 9, 46, 92
1, 21769, Note_on_c, 9, 46, 0
1, 21769, Note_on_c, 9, 35, 0
1, 21769, Note_on_c, 3, 73, 110
1, 21780, Note_on_c, 0, 54, 0
1, 21786, Note_on_c, 0, 42, 0
1, 21789, Note_on_c, 2, 94, 0
1, 21790, Note_on_c, 8, 35, 0
1, 21791, Note_on_c, 0, 58, 101
1, 21791, Note_on_c, 0, 54, 116
1, 21791, Note_on_c, 0, 63, 107
1, 21791, Note_on_c, 0, 59, 98
1, 21791, Note_on_c, 0, 47, 97
1, 21791, Note_on_c, 2, 90, 83
1, 21792, Note_on_c, 2, 61, 0
1, 21792, Note_on_c, 9, 35, 115
1, 21792, Note_on_c, 9, 42, 77
1, 21793, Note_on_c, 9, 42, 0
1, 21793, Note_on_c, 9, 35, 0
1, 21793, Note_on_c, 2, 63, 82
1, 21802, Note_on_c, 3, 73, 0
1, 21815, Note_on_c, 4, 66, 0
1, 21815, Note_on_c, 4, 70, 0
1, 21815, Note_on_c, 4, 61, 0
1, 21816, Note_on_c, 4, 73, 0
1, 21816, Note_on_c, 3, 70, 118
1, 21816, Note_on_c, 4, 61, 49
1, 21816, Note_on_c, 4, 66, 49
1, 21816, Note_on_c, 4, 58, 49
1, 21816, Note_on_c, 4, 70, 80
1, 21816, Note_on_c, 9, 42, 81
1, 21817, Note_on_c, 9, 42, 0
1, 21840, Note_on_c, 9, 42, 95
1, 21841, Note_on_c, 9, 42, 0
1, 21846, Note_on_c, 3, 70, 0
1, 21853, Note_on_c, 1, 35, 0
1, 21863, Note_on_c, 4, 58, 0
1, 21863, Note_on_c, 4, 61, 0
1, 21863, Note_on_c, 4, 66, 0
1, 21864, Note_on_c, 4, 70, 0
1, 21864, Note_on_c, 1, 35, 79
1, 21864, Note_on_c, 4, 66, 93
1, 21864, Note_on_c, 4, 54, 49
1, 21864, Note_on_c, 4, 61, 49
1, 21864, Note_on_c, 4, 58, 49
1, 21864, Note_on_c, 9, 42, 66
1, 21865, Note_on_c, 9, 42, 0
1, 21865, Note_on_c, 3, 66, 118
1, 21879, Note_on_c, 1, 35, 0
1, 21882, Control_c, 7, 11, 69
1, 21888, Note_on_c, 1, 35, 89
1, 21888, Note_on_c, 9, 42, 115
1, 21888, Note_on_c, 9, 40, 115
1, 21889, Note_on_c, 9, 40, 0
1, 21889, Note_on_c, 9, 42, 0
1, 21894, Control_c, 7, 11, 67
1, 21905, Note_on_c, 1, 35, 0
1, 21912, Note_on_c, 1, 35, 97
1, 21912, Note_on_c, 9, 47, 98
1, 21912, Note_on_c, 9, 42, 85
1, 21913, Note_on_c, 9, 42, 0
1, 21913, Note_on_c, 9, 47, 0
1, 21916, Control_c, 7, 11, 64
1, 21918, Note_on_c, 3, 66, 0
1, 21924, Note_on_c, 9, 45, 99
1, 21925, Note_on_c, 9, 45, 0
1, 21926, Control_c, 7, 11, 61
1, 21928, Note_on_c, 1, 35, 0
1, 21936, Note_on_c, 1, 35, 104
1, 21936, Note_on_c, 9, 41, 105
1, 21936, Note_on_c, 9, 46, 72
1, 21937, Note_on_c, 9, 46, 0
1, 21937, Note_on_c, 9, 41, 0
1, 21938, Control_c, 7, 11, 59
1, 21941, Note_on_c, 0, 54, 0
1, 21942, Note_on_c, 0, 58, 0
1, 21942, Note_on_c, 0, 59, 0
1, 21943, Note_on_c, 0, 47, 0
1, 21944, Note_on_c, 0, 63, 0
1, 21945, Control_c, 7, 11, 56
1, 21950, Note_on_c, 1, 35, 0
1, 21952, Control_c, 7, 11, 54
1, 21960, Note_on_c, 1, 35, 109
1, 21973, Note_on_c, 2, 54, 0
1, 21973, Control_c, 7, 11, 57
1, 21976, Note_on_c, 2, 58, 0
1, 21978, Note_on_c, 1, 35, 0
1, 21982, Note_on_c, 2, 90, 0
1, 21982, Control_c, 7, 11, 60
1, 21983, Note_on_c, 2, 88, 94
1, 21984, Note_on_c, 4, 54, 0
1, 21984, Note_on_c, 4, 61, 0
1, 21984, Note_on_c, 4, 58, 0
1, 21984, Note_on_c, 2, 63, 0
1, 21984, Note_on_c, 4, 66, 0
1, 21984, Note_on_c, 0, 37, 97
1, 21984, Note_on_c, 0, 64, 117
1, 21984, Note_on_c, 0, 49, 116
1, 21984, Note_on_c, 0, 61, 104
1, 21984, Note_on_c, 0, 56, 119
1, 21984, Note_on_c, 1, 37, 115
1, 21984, Note_on_c, 2, 56, 84
1, 21984, Note_on_c, 2, 61, 84
1, 21984, Note_on_c, 3, 71, 118
1, 21984, Note_on_c, 4, 68, 47
1, 21984, Note_on_c, 4, 71, 97
1, 21984, Note_on_c, 4, 64, 47
1, 21984, Note_on_c, 7, 80, 116
1, 21984, Note_on_c, 9, 35, 115
1, 21984, Note_on_c, 9, 49, 92
1, 21985, Note_on_c, 9, 49, 0
1, 21985, Note_on_c, 9, 35, 0
1, 21985, Note_on_c, 0, 59, 110
1, 21985, Note_on_c, 2, 52, 83
1, 21985, Control_c, 7, 11, 62
1, 21985, Note_on_c, 8, 52, 102
1, 21987, Note_on_c, 7, 76, 108
1, 21988, Control_c, 7, 11, 65
1, 21991, Note_on_c, 10, 76, 97
1, 21991, Note_on_c, 10, 80, 108
1, 21992, Pitch_bend_c, 10, 8192
1, 21992, Control_c, 10, 1, 0
1, 21994, Control_c, 7, 11, 68
1, 22002, Control_c, 7, 11, 70
1, 22010, Control_c, 7, 11, 73
1, 22017, Control_c, 7, 11, 76
1, 22024, Control_c, 7, 11, 78
1, 22025, Note_on_c, 3, 71, 0
1, 22027, Note_on_c, 1, 37, 0
1, 22032, Note_on_c, 4, 68, 0
1, 22032, Note_on_c, 4, 71, 0
1, 22032, Note_on_c, 4, 64, 0
1, 22032, Note_on_c, 1, 35, 120
1, 22032, Note_on_c, 3, 70, 114
1, 22032, Note_on_c, 4, 66, 48
1, 22032, Note_on_c, 4, 70, 62
1, 22032, Note_on_c, 4, 63, 48
1, 22034, Control_c, 7, 11, 81
1, 22044, Control_c, 7, 11, 84
1, 22049, Control_c, 7, 11, 86
1, 22053, Note_on_c, 3, 70, 0
1, 22054, Control_c, 7, 11, 89
1, 22055, Note_on_c, 1, 35, 0
1, 22056, Note_on_c, 4, 70, 0
1, 22056, Note_on_c, 4, 66, 0
1, 22056, Note_on_c, 4, 63, 0
1, 22056, Note_on_c, 1, 37, 112
1, 22056, Note_on_c, 3, 71, 95
1, 22056, Note_on_c, 4, 68, 47
1, 22056, Note_on_c, 4, 71, 82
1, 22056, Note_on_c, 4, 64, 47
1, 22057, Control_c, 7, 11, 92
1, 22059, Control_c, 7, 11, 93
1, 22063, Note_on_c, 0, 56, 0
1, 22063, Note_on_c, 0, 59, 0
1, 22064, Control_c, 7, 11, 96
1, 22066, Note_on_c, 0, 37, 0
1, 22067, Note_on_c, 0, 64, 0
1, 22069, Note_on_c, 10, 76, 0
1, 22069, Note_on_c, 0, 49, 0
1, 22069, Note_on_c, 0, 61, 0
1, 22069, Control_c, 7, 11, 99
1, 22070, Note_on_c, 10, 80, 0
1, 22073, Note_on_c, 2, 61, 0
1, 22073, Note_on_c, 7, 80, 0
1, 22074, Control_c, 7, 11, 101
1, 22075, Note_on_c, 2, 88, 0
1, 22075, Note_on_c, 3, 71, 0
1, 22076, Note_on_c, 8, 52, 0
1, 22076, Note_on_c, 2, 56, 0
1, 22078, Note_on_c, 1, 37, 0
1, 22078, Note_on_c, 7, 76, 0
1, 22079, Note_on_c, 2, 90, 93
1, 22080, Note_on_c, 2, 52, 0
1, 22080, Note_on_c, 4, 68, 0
1, 22080, Note_on_c, 4, 71, 0
1, 22080, Note_on_c, 4, 64, 0
1, 22080, Note_on_c, 1, 39, 112
1, 22080, Note_on_c, 2, 63, 94
1, 22080, Note_on_c, 2, 54, 90
1, 22080, Note_on_c, 2, 58, 81
1, 22080, Note_on_c, 4, 70, 47
1, 22080, Note_on_c, 4, 66, 47
1, 22080, Note_on_c, 4, 73, 97
1, 22080, Note_on_c, 9, 57, 79
1, 22080, Note_on_c, 9, 35, 115
1, 22081, Note_on_c, 9, 35, 0
1, 22081, Note_on_c, 9, 57, 0
1, 22081, Note_on_c, 0, 61, 127
1, 22081, Note_on_c, 0, 58, 113
1, 22081, Note_on_c, 0, 39, 97
1, 22081, Note_on_c, 0, 51, 119
1, 22081, Note_on_c, 0, 63, 116
1, 22081, Note_on_c, 0, 66, 113
1, 22081, Note_on_c, 3, 73, 118
1, 22081, Note_on_c, 7, 82, 119
1, 22081, Note_on_c, 8, 54, 113
1, 22083, Note_on_c, 7, 78, 116
1, 22087, Note_on_c, 10, 82, 105
1, 22087, Note_on_c, 10, 78, 111
1, 22088, Control_c, 7, 11, 104
1, 22094, Control_c, 7, 11, 106
1, 22101, Control_c, 7, 11, 109
1, 22104, Note_on_c, 9, 45, 104
1, 22105, Note_on_c, 9, 45, 0
1, 22111, Control_c, 7, 11, 112
1, 22119, Note_on_c, 3, 73, 0
1, 22121, Control_c, 7, 11, 114
1, 22127, Note_on_c, 1, 39, 0
1, 22128, Note_on_c, 4, 73, 0
1, 22128, Note_on_c, 4, 66, 0
1, 22128, Note_on_c, 4, 70, 0
1, 22128, Note_on_c, 1, 37, 112
1, 22128, Note_on_c, 4, 71, 74
1, 22128, Note_on_c, 4, 64, 50
1, 22128, Note_on_c, 4, 68, 50
1, 22128, Note_on_c, 9, 41, 98
1, 22129, Note_on_c, 9, 41, 0
1, 22129, Note_on_c, 3, 71, 113
1, 22130, Control_c, 7, 11, 117
1, 22137, Control_c, 7, 11, 120
1, 22142, Control_c, 7, 11, 123
1, 22147, Note_on_c, 3, 71, 0
1, 22147, Control_c, 7, 11, 126
1, 22149, Note_on_c, 1, 37, 0
1, 22152, Note_on_c, 4, 71, 0
1, 22152, Note_on_c, 4, 64, 0
1, 22152, Note_on_c, 4, 68, 0
1, 22152, Note_on_c, 1, 39, 110
1, 22152, Note_on_c, 3, 73, 114
1, 22152, Note_on_c, 4, 66, 50
1, 22152, Note_on_c, 4, 70, 50
1, 22152, Note_on_c, 4, 73, 89
1, 22153, Note_on_c, 0, 58, 0
1, 22153, Note_on_c, 0, 61, 0
1, 22154, Note_on_c, 0, 51, 0
1, 22155, Note_on_c, 0, 63, 0
1, 22156, Note_on_c, 10, 78, 0
1, 22156, Note_on_c, 0, 39, 0
1, 22157, Note_on_c, 10, 82, 0
1, 22160, Note_on_c, 0, 66, 0
1, 22169, Note_on_c, 3, 73, 0
1, 22170, Note_on_c, 7, 82, 0
1, 22171, Note_on_c, 2, 58, 0
1, 22171, Note_on_c, 2, 63, 0
1, 22171, Note_on_c, 2, 54, 0
1, 22172, Note_on_c, 8, 54, 0
1, 22174, Note_on_c, 7, 78, 0
1, 22174, Note_on_c, 2, 90, 0
1, 22175, Note_on_c, 1, 39, 0
1, 22175, Note_on_c, 7, 84, 117
1, 22176, Note_on_c, 4, 73, 0
1, 22176, Note_on_c, 4, 70, 0
1, 22176, Note_on_c, 4, 66, 0
1, 22176, Note_on_c, 1, 41, 117
1, 22176, Note_on_c, 9, 49, 83
1, 22176, Note_on_c, 9, 35, 115
1, 22177, Note_on_c, 9, 35, 0
1, 22177, Note_on_c, 9, 49, 0
1, 22177, Note_on_c, 3, 75, 118
1, 22177, Note_on_c, 4, 72, 69
1, 22177, Note_on_c, 4, 68, 69
1, 22177, Note_on_c, 4, 75, 97
1, 22177, Note_on_c, 7, 80, 107
1, 22178, Note_on_c, 2, 92, 82
1, 22178, Note_on_c, 2, 60, 81
1, 22178, Note_on_c, 2, 56, 84
1, 22178, Note_on_c, 2, 65, 81
1, 22182, Note_on_c, 10, 80, 118
1, 22183, Note_on_c, 10, 84, 117
1, 22199, Note_on_c, 0, 68, 117
1, 22199, Note_on_c, 0, 63, 117
1, 22199, Note_on_c, 0, 60, 117
1, 22199, Note_on_c, 0, 65, 117
1, 22199, Note_on_c, 8, 60, 114
1, 22199, Note_on_c, 8, 65, 114
1, 22199, Note_on_c, 8, 68, 104
1, 22200, Note_on_c, 7, 80, 0
1, 22200, Note_on_c, 7, 79, 85
1, 22202, Note_on_c, 7, 83, 78
1, 22203, Note_on_c, 7, 84, 0
1, 22203, Note_on_c, 7, 81, 108
1, 22205, Note_on_c, 7, 83, 0
1, 22206, Note_on_c, 3, 75, 0
1, 22207, Note_on_c, 7, 79, 0
1, 22210, Note_on_c, 7, 81, 0
1, 22211, Note_on_c, 10, 84, 0
1, 22211, Note_on_c, 10, 80, 0
1, 22211, Note_on_c, 7, 77, 90
1, 22213, Note_on_c, 1, 41, 0
1, 22214, Note_on_c, 8, 60, 0
1, 22214, Note_on_c, 0, 60, 0
1, 22215, Note_on_c, 0, 63, 0
1, 22215, Note_on_c, 7, 76, 84
1, 22217, Note_on_c, 7, 77, 0
1, 22218, Note_on_c, 0, 68, 0
1, 22219, Note_on_c, 0, 65, 0
1, 22219, Note_on_c, 8, 68, 0
1, 22219, Note_on_c, 7, 74, 90
1, 22220, Note_on_c, 8, 65, 0
1, 22221, Note_on_c, 7, 76, 0
1, 22222, Note_on_c, 7, 72, 90
1, 22223, Note_on_c, 0, 58, 104
1, 22223, Note_on_c, 0, 67, 81
1, 22223, Note_on_c, 0, 63, 71
1, 22223, Note_on_c, 8, 63, 99
1, 22223, Note_on_c, 8, 58, 101
1, 22223, Note_on_c, 8, 67, 90
1, 22224, Note_on_c, 7, 74, 0
1, 22224, Note_on_c, 9, 42, 87
1, 22225, Note_on_c, 9, 42, 0
1, 22226, Note_on_c, 7, 71, 84
1, 22227, Note_on_c, 7, 72, 0
1, 22230, Note_on_c, 7, 71, 0
1, 22230, Note_on_c, 7, 69, 76
1, 22233, Note_on_c, 7, 69, 0
1, 22233, Note_on_c, 7, 67, 75
1, 22235, Note_on_c, 0, 63, 0
1, 22236, Note_on_c, 7, 67, 0
1, 22236, Note_on_c, 7, 65, 73
1, 22237, Note_on_c, 0, 58, 0
1, 22239, Note_on_c, 0, 67, 0
1, 22239, Note_on_c, 7, 65, 0
1, 22240, Note_on_c, 8, 63, 0
1, 22240, Note_on_c, 7, 64, 80
1, 22241, Note_on_c, 8, 67, 0
1, 22243, Note_on_c, 7, 64, 0
1, 22244, Note_on_c, 8, 58, 0
1, 22248, Note_on_c, 9, 42, 42
1, 22249, Note_on_c, 9, 42, 0
1, 22249, Note_on_c, 0, 41, 88
1, 22270, Note_on_c, 2, 92, 0
1, 22271, Note_on_c, 8, 60, 112
1, 22271, Note_on_c, 8, 56, 113
1, 22271, Note_on_c, 8, 65, 100
1, 22272, Note_on_c, 4, 72, 0
1, 22272, Note_on_c, 4, 68, 0
1, 22272, Note_on_c, 4, 75, 0
1, 22272, Note_on_c, 9, 40, 115
1, 22272, Note_on_c, 9, 42, 111
1, 22273, Note_on_c, 9, 42, 0
1, 22273, Note_on_c, 9, 40, 0
1, 22273, Note_on_c, 0, 63, 119
1, 22273, Note_on_c, 0, 60, 119
1, 22273, Note_on_c, 0, 65, 119
1, 22273, Note_on_c, 0, 68, 119
1, 22274, Note_on_c, 2, 92, 82
1, 22287, Note_on_c, 0, 65, 0
1, 22288, Note_on_c, 0, 63, 0
1, 22288, Note_on_c, 0, 41, 0
1, 22291, Note_on_c, 8, 60, 0
1, 22292, Note_on_c, 8, 65, 0
1, 22294, Note_on_c, 0, 60, 0
1, 22294, Note_on_c, 8, 56, 0
1, 22296, Note_on_c, 0, 68, 0
1, 22296, Note_on_c, 1, 41, 115
1, 22296, Note_on_c, 9, 42, 47
1, 22297, Note_on_c, 9, 42, 0
1, 22297, Note_on_c, 0, 53, 80
1, 22297, Note_on_c, 0, 41, 65
1, 22319, Note_on_c, 0, 67, 85
1, 22319, Note_on_c, 0, 58, 95
1, 22319, Note_on_c, 0, 63, 74
1, 22319, Note_on_c, 8, 67, 104
1, 22319, Note_on_c, 8, 63, 104
1, 22319, Note_on_c, 8, 58, 127
1, 22320, Note_on_c, 1, 39, 116
1, 22320, Note_on_c, 9, 42, 81
1, 22321, Note_on_c, 9, 42, 0
1, 22322, Note_on_c, 0, 41, 0
1, 22323, Note_on_c, 1, 41, 0
1, 22325, Note_on_c, 0, 53, 0
1, 22334, Note_on_c, 0, 58, 0
1, 22335, Note_on_c, 0, 63, 0
1, 22337, Note_on_c, 0, 67, 0
1, 22340, Note_on_c, 8, 67, 0
1, 22340, Note_on_c, 1, 39, 0
1, 22341, Note_on_c, 8, 63, 0
1, 22342, Note_on_c, 8, 58, 0
1, 22343, Note_on_c, 8, 65, 108
1, 22343, Note_on_c, 8, 68, 101
1, 22343, Note_on_c, 8, 60, 122
1, 22344, Note_on_c, 1, 32, 116
1, 22344, Note_on_c, 9, 42, 60
1, 22344, Note_on_c, 9, 35, 85
1, 22345, Note_on_c, 9, 35, 0
1, 22345, Note_on_c, 9, 42, 0
1, 22345, Note_on_c, 0, 60, 110
1, 22345, Note_on_c, 0, 63, 110
1, 22345, Note_on_c, 0, 68, 110
1, 22345, Note_on_c, 0, 65, 110
1, 22358, Note_on_c, 0, 63, 0
1, 22358, Note_on_c, 8, 65, 0
1, 22359, Note_on_c, 2, 56, 0
1, 22359, Note_on_c, 2, 60, 0
1, 22359, Note_on_c, 8, 60, 0
1, 22360, Note_on_c, 8, 68, 0
1, 22361, Note_on_c, 0, 65, 0
1, 22362, Note_on_c, 0, 60, 0
1, 22363, Note_on_c, 1, 32, 0
1, 22364, Note_on_c, 0, 68, 0
1, 22367, Note_on_c, 2, 92, 0
1, 22367, Note_on_c, 3, 75, 118
1, 22368, Note_on_c, 1, 34, 116
1, 22368, Note_on_c, 9, 35, 115
1, 22368, Note_on_c, 9, 42, 101
1, 22369, Note_on_c, 9, 42, 0
1, 22369, Note_on_c, 9, 35, 0
1, 22369, Note_on_c, 0, 46, 107
1, 22369, Note_on_c, 4, 63, 42
1, 22369, Note_on_c, 4, 68, 74
1, 22369, Note_on_c, 4, 75, 97
1, 22369, Note_on_c, 4, 72, 42
1, 22370, Note_on_c, 2, 92, 83
1, 22373, Note_on_c, 2, 61, 84
1, 22373, Note_on_c, 2, 58, 85
1, 22378, Note_on_c, 0, 46, 0
1, 22384, Note_on_c, 1, 34, 0
1, 22386, Note_on_c, 3, 75, 0
1, 22392, Note_on_c, 4, 72, 0
1, 22392, Note_on_c, 4, 63, 0
1, 22392, Note_on_c, 4, 75, 0
1, 22392, Note_on_c, 4, 68, 0
1, 22392, Note_on_c, 0, 46, 99
1, 22392, Note_on_c, 1, 34, 116
1, 22392, Note_on_c, 3, 75, 92
1, 22392, Note_on_c, 9, 42, 55
1, 22393, Note_on_c, 9, 42, 0
1, 22393, Note_on_c, 4, 72, 43
1, 22393, Note_on_c, 4, 63, 43
1, 22393, Note_on_c, 4, 68, 74
1, 22393, Note_on_c, 4, 75, 71
1, 22397, Note_on_c, 0, 46, 0
1, 22408, Note_on_c, 3, 75, 0
1, 22412, Note_on_c, 1, 34, 0
1, 22415, Note_on_c, 3, 75, 114
1, 22416, Note_on_c, 4, 75, 0
1, 22416, Note_on_c, 4, 72, 0
1, 22416, Note_on_c, 4, 68, 0
1, 22416, Note_on_c, 4, 63, 0
1, 22416, Note_on_c, 9, 42, 81
1, 22417, Note_on_c, 9, 42, 0
1, 22417, Note_on_c, 4, 72, 43
1, 22417, Note_on_c, 4, 75, 74
1, 22417, Note_on_c, 4, 63, 43
1, 22417, Note_on_c, 4, 68, 74
1, 22435, Note_on_c, 3, 75, 0
1, 22439, Note_on_c, 0, 46, 82
1, 22439, Note_on_c, 3, 73, 110
1, 22440, Note_on_c, 1, 34, 115
1, 22440, Note_on_c, 9, 42, 73
1, 22441, Note_on_c, 9, 42, 0
1, 22441, Note_on_c, 4, 63, 0
1, 22441, Note_on_c, 4, 68, 0
1, 22441, Note_on_c, 4, 75, 0
1, 22441, Note_on_c, 4, 72, 0
1, 22441, Note_on_c, 4, 73, 90
1, 22441, Note_on_c, 4, 61, 43
1, 22441, Note_on_c, 4, 65, 74
1, 22441, Note_on_c, 4, 70, 43
1, 22446, Note_on_c, 0, 46, 0
1, 22463, Note_on_c, 2, 92, 0
1, 22464, Note_on_c, 9, 42, 101
1, 22464, Note_on_c, 9, 40, 115
1, 22465, Note_on_c, 9, 40, 0
1, 22465, Note_on_c, 9, 42, 0
1, 22466, Note_on_c, 2, 92, 84
1, 22468, Note_on_c, 1, 34, 0
1, 22487, Note_on_c, 0, 61, 119
1, 22487, Note_on_c, 0, 46, 119
1, 22487, Note_on_c, 0, 68, 116
1, 22487, Note_on_c, 0, 58, 123
1, 22487, Note_on_c, 0, 65, 127
1, 22488, Note_on_c, 1, 34, 115
1, 22488, Note_on_c, 9, 35, 115
1, 22488, Note_on_c, 9, 46, 95
1, 22489, Note_on_c, 9, 46, 0
1, 22489, Note_on_c, 9, 35, 0
1, 22495, Note_on_c, 0, 46, 0
1, 22500, Note_on_c, 3, 73, 0
1, 22502, Note_on_c, 0, 65, 0
1, 22510, Note_on_c, 0, 61, 0
1, 22511, Note_on_c, 0, 68, 0
1, 22511, Note_on_c, 3, 75, 118
1, 22512, Note_on_c, 0, 58, 0
1, 22512, Note_on_c, 9, 42, 85
1, 22513, Note_on_c, 9, 42, 0
1, 22513, Note_on_c, 4, 65, 0
1, 22513, Note_on_c, 4, 61, 0
1, 22513, Note_on_c, 4, 73, 0
1, 22513, Note_on_c, 4, 70, 0
1, 22513, Note_on_c, 4, 72, 41
1, 22513, Note_on_c, 4, 63, 41
1, 22513, Note_on_c, 4, 75, 97
1, 22513, Note_on_c, 4, 68, 74
1, 22518, Note_on_c, 1, 34, 0
1, 22530, Note_on_c, 3, 75, 0
1, 22535, Note_on_c, 0, 66, 123
1, 22535, Note_on_c, 0, 61, 119
1, 22535, Note_on_c, 0, 58, 116
1, 22536, Note_on_c, 0, 39, 89
1, 22536, Note_on_c, 0, 51, 107
1, 22536, Note_on_c, 1, 39, 115
1, 22536, Note_on_c, 9, 46, 97
1, 22536, Note_on_c, 9, 35, 85
1, 22536, Note_on_c, 10, 73, 111
1, 22536, Note_on_c, 10, 77, 122
1, 22537, Note_on_c, 9, 35, 0
1, 22537, Note_on_c, 9, 46, 0
1, 22537, Note_on_c, 4, 63, 0
1, 22537, Note_on_c, 4, 68, 0
1, 22537, Note_on_c, 4, 75, 0
1, 22537, Note_on_c, 4, 72, 0
1, 22537, Note_on_c, 3, 77, 118
1, 22537, Note_on_c, 4, 77, 87
1, 22537, Note_on_c, 4, 65, 41
1, 22537, Note_on_c, 4, 70, 74
1, 22537, Note_on_c, 4, 73, 41
1, 22551, Note_on_c, 10, 73, 0
1, 22552, Note_on_c, 10, 77, 0
1, 22554, Note_on_c, 0, 61, 0
1, 22555, Note_on_c, 2, 65, 0
1, 22556, Note_on_c, 0, 66, 0
1, 22556, Note_on_c, 0, 58, 0
1, 22556, Note_on_c, 0, 39, 0
1, 22557, Note_on_c, 2, 92, 0
1, 22559, Note_on_c, 2, 61, 0
1, 22560, Note_on_c, 0, 51, 0
1, 22560, Note_on_c, 2, 58, 0
1, 22560, Note_on_c, 9, 35, 115
1, 22560, Note_on_c, 9, 42, 79
1, 22561, Note_on_c, 9, 42, 0
1, 22561, Note_on_c, 9, 35, 0
1, 22561, Note_on_c, 3, 77, 0
1, 22561, Note_on_c, 2, 54, 81
1, 22562, Note_on_c, 1, 39, 0
1, 22562, Note_on_c, 2, 65, 82
1, 22562, Note_on_c, 2, 92, 83
1, 22563, Note_on_c, 2, 58, 89
1, 22583, Note_on_c, 0, 58, 107
1, 22583, Note_on_c, 0, 66, 119
1, 22583, Note_on_c, 0, 61, 113
1, 22583, Note_on_c, 8, 63, 110
1, 22583, Note_on_c, 8, 58, 119
1, 22583, Note_on_c, 8, 66, 110
1, 22584, Note_on_c, 9, 42, 63
1, 22585, Note_on_c, 9, 42, 0
1, 22596, Note_on_c, 8, 63, 0
1, 22597, Note_on_c, 0, 58, 0
1, 22597, Note_on_c, 0, 61, 0
1, 22598, Note_on_c, 8, 66, 0
1, 22599, Note_on_c, 0, 66, 0
1, 22599, Note_on_c, 8, 58, 0
1, 22607, Note_on_c, 8, 56, 110
1, 22607, Note_on_c, 8, 65, 97
1, 22607, Note_on_c, 8, 61, 97
1, 22608, Note_on_c, 9, 42, 107
1, 22609, Note_on_c, 9, 42, 0
1, 22609, Note_on_c, 0, 65, 106
1, 22609, Note_on_c, 0, 61, 95
1, 22609, Note_on_c, 0, 56, 107
1, 22621, Note_on_c, 0, 61, 0
1, 22623, Note_on_c, 0, 65, 0
1, 22624, Note_on_c, 0, 56, 0
1, 22625, Note_on_c, 8, 61, 0
1, 22628, Note_on_c, 8, 65, 0
1, 22628, Note_on_c, 8, 56, 0
1, 22632, Note_on_c, 1, 34, 114
1, 22632, Note_on_c, 9, 42, 72
1, 22633, Note_on_c, 9, 42, 0
1, 22633, Note_on_c, 0, 39, 85
1, 22639, Note_on_c, 0, 39, 0
1, 22651, Note_on_c, 1, 34, 0
1, 22654, Note_on_c, 2, 92, 0
1, 22655, Note_on_c, 8, 63, 104
1, 22655, Note_on_c, 8, 58, 104
1, 22655, Note_on_c, 8, 54, 104
1, 22656, Note_on_c, 1, 39, 114
1, 22656, Note_on_c, 9, 42, 76
1, 22656, Note_on_c, 9, 40, 115
1, 22657, Note_on_c, 9, 40, 0
1, 22657, Note_on_c, 4, 77, 0
1, 22657, Note_on_c, 4, 65, 0
1, 22657, Note_on_c, 9, 42, 0
1, 22657, Note_on_c, 4, 73, 0
1, 22657, Note_on_c, 4, 70, 0
1, 22657, Note_on_c, 0, 58, 119
1, 22657, Note_on_c, 0, 66, 127
1, 22657, Note_on_c, 0, 61, 127
1, 22658, Note_on_c, 2, 92, 83
1, 22671, Note_on_c, 0, 61, 0
1, 22672, Note_on_c, 0, 58, 0
1, 22674, Note_on_c, 8, 58, 0
1, 22675, Note_on_c, 0, 66, 0
1, 22675, Note_on_c, 1, 39, 0
1, 22676, Note_on_c, 8, 63, 0
1, 22680, Note_on_c, 0, 39, 85
1, 22680, Note_on_c, 1, 27, 114
1, 22680, Note_on_c, 9, 42, 70
1, 22681, Note_on_c, 9, 42, 0
1, 22685, Note_on_c, 8, 54, 0
1, 22701, Note_on_c, 0, 39, 0
1, 22701, Note_on_c, 1, 27, 0
1, 22703, Note_on_c, 0, 68, 107
1, 22703, Note_on_c, 0, 61, 110
1, 22703, Note_on_c, 0, 65, 106
1, 22703, Note_on_c, 8, 65, 114
1, 22703, Note_on_c, 8, 56, 119
1, 22703, Note_on_c, 8, 61, 110
1, 22704, Note_on_c, 1, 29, 116
1, 22704, Note_on_c, 9, 42, 72
1, 22705, Note_on_c, 9, 42, 0
1, 22705, Note_on_c, 0, 51, 104
1, 22715, Note_on_c, 0, 51, 0
1, 22716, Note_on_c, 8, 61, 0
1, 22718, Note_on_c, 0, 65, 0
1, 22719, Note_on_c, 0, 61, 0
1, 22721, Note_on_c, 0, 68, 0
1, 22724, Note_on_c, 8, 65, 0
1, 22727, Note_on_c, 3, 68, 104
1, 22728, Note_on_c, 1, 30, 116
1, 22728, Note_on_c, 8, 63, 95
1, 22728, Note_on_c, 8, 66, 104
1, 22728, Note_on_c, 9, 42, 73
1, 22728, Note_on_c, 9, 35, 86
1, 22729, Note_on_c, 9, 35, 0
1, 22729, Note_on_c, 9, 42, 0
1, 22729, Note_on_c, 0, 58, 107
1, 22729, Note_on_c, 0, 44, 78
1, 22729, Note_on_c, 0, 66, 95
1, 22729, Note_on_c, 0, 61, 104
1, 22729, Note_on_c, 4, 68, 89
1, 22729, Note_on_c, 8, 58, 113
1, 22731, Note_on_c, 1, 29, 0
1, 22733, Note_on_c, 8, 56, 0
1, 22739, Note_on_c, 0, 44, 0
1, 22741, Note_on_c, 8, 58, 0
1, 22742, Note_on_c, 8, 63, 0
1, 22742, Note_on_c, 8, 66, 0
1, 22746, Note_on_c, 3, 68, 0
1, 22746, Note_on_c, 0, 61, 0
1, 22747, Note_on_c, 0, 66, 0
1, 22749, Note_on_c, 0, 58, 0
1, 22750, Note_on_c, 1, 30, 0
1, 22751, Note_on_c, 2, 92, 0
1, 22751, Note_on_c, 2, 61, 86
1, 22751, Note_on_c, 3, 77, 118
1, 22752, Note_on_c, 1, 32, 116
1, 22752, Note_on_c, 9, 42, 115
1, 22752, Note_on_c, 9, 35, 115
1, 22753, Note_on_c, 9, 35, 0
1, 22753, Note_on_c, 9, 42, 0
1, 22753, Note_on_c, 4, 68, 0
1, 22753, Note_on_c, 4, 65, 52
1, 22753, Note_on_c, 4, 70, 89
1, 22753, Note_on_c, 4, 73, 52
1, 22753, Note_on_c, 4, 77, 92
1, 22754, Note_on_c, 2, 65, 0
1, 22754, Note_on_c, 2, 92, 84
1, 22771, Note_on_c, 3, 77, 0
1, 22772, Note_on_c, 1, 32, 0
1, 22776, Note_on_c, 4, 73, 0
1, 22776, Note_on_c, 4, 70, 0
1, 22776, Note_on_c, 4, 77, 0
1, 22776, Note_on_c, 4, 65, 0
1, 22776, Note_on_c, 3, 77, 86
1, 22776, Note_on_c, 9, 42, 69
1, 22777, Note_on_c, 9, 42, 0
1, 22777, Note_on_c, 0, 66, 97
1, 22777, Note_on_c, 0, 58, 85
1, 22777, Note_on_c, 0, 61, 89
1, 22777, Note_on_c, 4, 70, 89
1, 22777, Note_on_c, 4, 77, 64
1, 22777, Note_on_c, 4, 73, 52
1, 22777, Note_on_c, 4, 65, 52
1, 22784, Note_on_c, 0, 61, 0
1, 22789, Note_on_c, 0, 58, 0
1, 22789, Note_on_c, 0, 66, 0
1, 22792, Note_on_c, 3, 77, 0
1, 22800, Note_on_c, 4, 70, 0
1, 22800, Note_on_c, 4, 73, 0
1, 22800, Note_on_c, 4, 77, 0
1, 22800, Note_on_c, 4, 65, 0
1, 22800, Note_on_c, 3, 77, 118
1, 22800, Note_on_c, 9, 42, 107
1, 22801, Note_on_c, 9, 42, 0
1, 22801, Note_on_c, 4, 77, 97
1, 22801, Note_on_c, 4, 65, 52
1, 22801, Note_on_c, 4, 70, 89
1, 22801, Note_on_c, 4, 73, 52
1, 22819, Note_on_c, 3, 77, 0
1, 22823, Note_on_c, 3, 75, 118
1, 22824, Note_on_c, 1, 32, 114
1, 22824, Note_on_c, 9, 42, 72
1, 22825, Note_on_c, 9, 42, 0
1, 22825, Note_on_c, 4, 73, 0
1, 22825, Note_on_c, 4, 70, 0
1, 22825, Note_on_c, 4, 65, 0
1, 22825, Note_on_c, 4, 77, 0
1, 22825, Note_on_c, 0, 44, 107
1, 22825, Note_on_c, 4, 63, 52
1, 22825, Note_on_c, 4, 68, 89
1, 22825, Note_on_c, 4, 72, 52
1, 22825, Note_on_c, 4, 75, 97
1, 22829, Note_on_c, 0, 44, 0
1, 22838, Note_on_c, 1, 32, 0
1, 22838, Note_on_c, 2, 58, 0
1, 22846, Note_on_c, 2, 92, 0
1, 22847, Note_on_c, 0, 61, 97
1, 22847, Note_on_c, 0, 66, 107
1, 22847, Note_on_c, 0, 58, 97
1, 22848, Note_on_c, 2, 61, 0
1, 22848, Note_on_c, 1, 32, 114
1, 22848, Note_on_c, 9, 42, 101
1, 22848, Note_on_c, 9, 40, 115
1, 22849, Note_on_c, 9, 40, 0
1, 22849, Note_on_c, 9, 42, 0
1, 22849, Note_on_c, 0, 44, 101
1, 22849, Note_on_c, 2, 60, 84
1, 22849, Note_on_c, 2, 63, 80
1, 22849, Note_on_c, 2, 56, 80
1, 22850, Note_on_c, 2, 54, 0
1, 22850, Note_on_c, 2, 92, 84
1, 22853, Note_on_c, 0, 44, 0
1, 22853, Note_on_c, 0, 61, 0
1, 22854, Note_on_c, 0, 66, 0
1, 22855, Note_on_c, 0, 58, 0
1, 22867, Note_on_c, 1, 32, 0
1, 22872, Note_on_c, 1, 32, 114
1, 22872, Note_on_c, 9, 35, 115
1, 22872, Note_on_c, 9, 46, 94
1, 22873, Note_on_c, 9, 46, 0
1, 22873, Note_on_c, 9, 35, 0
1, 22873, Note_on_c, 0, 61, 123
1, 22873, Note_on_c, 0, 44, 101
1, 22873, Note_on_c, 0, 66, 127
1, 22873, Note_on_c, 0, 58, 119
1, 22875, Note_on_c, 10, 70, 111
1, 22875, Note_on_c, 10, 73, 114
1, 22879, Note_on_c, 0, 44, 0
1, 22884, Note_on_c, 10, 70, 0
1, 22886, Note_on_c, 3, 75, 0
1, 22887, Note_on_c, 0, 61, 0
1, 22892, Note_on_c, 0, 58, 0
1, 22893, Note_on_c, 0, 66, 0
1, 22894, Note_on_c, 10, 73, 0
1, 22896, Note_on_c, 9, 42, 83
1, 22897, Note_on_c, 9, 42, 0
1, 22897, Note_on_c, 4, 75, 0
1, 22897, Note_on_c, 4, 68, 0
1, 22897, Note_on_c, 4, 63, 0
1, 22897, Note_on_c, 4, 72, 0
1, 22897, Note_on_c, 3, 73, 107
1, 22897, Note_on_c, 4, 73, 93
1, 22897, Note_on_c, 4, 70, 49
1, 22897, Note_on_c, 4, 66, 89
1, 22897, Note_on_c, 4, 61, 49
1, 22901, Note_on_c, 1, 32, 0
1, 22915, Note_on_c, 2, 56, 0
1, 22915, Note_on_c, 3, 73, 0
1, 22918, Note_on_c, 2, 56, 82
1, 22918, Note_on_c, 2, 64, 82
1, 22918, Note_on_c, 2, 61, 80
1, 22919, Note_on_c, 0, 68, 101
1, 22919, Note_on_c, 0, 37, 89
1, 22919, Note_on_c, 0, 64, 110
1, 22919, Note_on_c, 0, 59, 106
1, 22920, Note_on_c, 2, 60, 0
1, 22920, Note_on_c, 2, 63, 0
1, 22920, Note_on_c, 1, 37, 113
1, 22920, Note_on_c, 9, 46, 97
1, 22920, Note_on_c, 9, 35, 113
1, 22921, Note_on_c, 9, 35, 0
1, 22921, Note_on_c, 4, 66, 0
1, 22921, Note_on_c, 4, 73, 0
1, 22921, Note_on_c, 4, 61, 0
1, 22921, Note_on_c, 9, 46, 0
1, 22921, Note_on_c, 4, 70, 0
1, 22921, Note_on_c, 0, 49, 99
1, 22921, Note_on_c, 3, 75, 118
1, 22921, Note_on_c, 4, 71, 49
1, 22921, Note_on_c, 4, 68, 89
1, 22921, Note_on_c, 4, 75, 89
1, 22921, Note_on_c, 4, 63, 49
1, 22922, Note_on_c, 10, 75, 118
1, 22922, Note_on_c, 10, 71, 105
1, 22926, Note_on_c, 0, 49, 0
1, 22927, Note_on_c, 0, 37, 0
1, 22937, Note_on_c, 0, 64, 0
1, 22940, Note_on_c, 10, 75, 0
1, 22940, Note_on_c, 0, 68, 0
1, 22940, Note_on_c, 3, 75, 0
1, 22941, Note_on_c, 0, 59, 0
1, 22943, Note_on_c, 10, 71, 0
1, 22943, Note_on_c, 2, 92, 0
1, 22944, Note_on_c, 9, 35, 113
1, 22944, Note_on_c, 9, 42, 73
1, 22945, Note_on_c, 9, 42, 0
1, 22945, Note_on_c, 9, 35, 0
1, 22946, Note_on_c, 2, 92, 83
1, 22947, Note_on_c, 1, 37, 0
1, 22967, Note_on_c, 8, 64, 112
1, 22967, Note_on_c, 8, 56, 102
1, 22968, Note_on_c, 0, 59, 108
1, 22968, Note_on_c, 0, 64, 120
1, 22968, Note_on_c, 8, 61, 87
1, 22968, Note_on_c, 9, 42, 70
1, 22969, Note_on_c, 9, 42, 0
1, 22969, Note_on_c, 0, 68, 116
1, 22969, Note_on_c, 0, 37, 85
1, 22969, Note_on_c, 0, 49, 99
1, 22970, Note_on_c, 8, 61, 0
1, 22974, Note_on_c, 0, 49, 0
1, 22974, Note_on_c, 0, 37, 0
1, 22980, Note_on_c, 8, 56, 0
1, 22980, Note_on_c, 0, 59, 0
1, 22984, Note_on_c, 8, 64, 0
1, 22984, Note_on_c, 0, 68, 0
1, 22986, Note_on_c, 0, 64, 0
1, 22991, Note_on_c, 8, 63, 95
1, 22991, Note_on_c, 8, 58, 95
1, 22991, Note_on_c, 8, 54, 97
1, 22992, Note_on_c, 0, 58, 113
1, 22992, Note_on_c, 0, 66, 87
1, 22992, Note_on_c, 0, 63, 97
1, 22992, Note_on_c, 1, 32, 112
1, 22992, Note_on_c, 9, 42, 98
1, 22993, Note_on_c, 9, 42, 0
1, 23009, Note_on_c, 8, 58, 0
1, 23009, Note_on_c, 8, 63, 0
1, 23010, Note_on_c, 0, 63, 0
1, 23011, Note_on_c, 0, 58, 0
1, 23012, Note_on_c, 0, 66, 0
1, 23014, Note_on_c, 8, 54, 0
1, 23015, Note_on_c, 0, 37, 85
1, 23016, Note_on_c, 1, 32, 0
1, 23016, Note_on_c, 1, 35, 112
1, 23016, Note_on_c, 9, 42, 87
1, 23017, Note_on_c, 9, 42, 0
1, 23022, Note_on_c, 0, 37, 0
1, 23037, Note_on_c, 1, 35, 0
1, 23039, Note_on_c, 2, 92, 0
1, 23039, Note_on_c, 8, 61, 110
1, 23039, Note_on_c, 8, 52, 108
1, 23039, Note_on_c, 8, 56, 113
1, 23040, Note_on_c, 0, 59, 114
1, 23040, Note_on_c, 0, 68, 116
1, 23040, Note_on_c, 0, 64, 122
1, 23040, Note_on_c, 1, 37, 112
1, 23040, Note_on_c, 9, 40, 115
1, 23040, Note_on_c, 9, 42, 72
1, 23041, Note_on_c, 9, 42, 0
1, 23041, Note_on_c, 9, 40, 0
1, 23042, Note_on_c, 2, 92, 82
1, 23056, Note_on_c, 8, 61, 0
1, 23056, Note_on_c, 8, 56, 0
1, 23062, Note_on_c, 0, 64, 0
1, 23063, Note_on_c, 8, 52, 0
1, 23063, Note_on_c, 0, 37, 95
1, 23064, Note_on_c, 0, 59, 0
1, 23064, Note_on_c, 9, 42, 60
1, 23065, Note_on_c, 9, 42, 0
1, 23065, Note_on_c, 4, 75, 0
1, 23065, Note_on_c, 4, 71, 0
1, 23065, Note_on_c, 4, 68, 0
1, 23065, Note_on_c, 4, 63, 0
1, 23066, Note_on_c, 1, 37, 0
1, 23067, Note_on_c, 0, 68, 0
1, 23086, Note_on_c, 0, 37, 0
1, 23087, Note_on_c, 0, 58, 110
1, 23087, Note_on_c, 8, 54, 116
1, 23087, Note_on_c, 8, 58, 110
1, 23087, Note_on_c, 8, 63, 107
1, 23088, Note_on_c, 0, 63, 113
1, 23088, Note_on_c, 0, 66, 99
1, 23088, Note_on_c, 1, 32, 112
1, 23088, Note_on_c, 9, 42, 85
1, 23089, Note_on_c, 9, 42, 0
1, 23089, Note_on_c, 0, 49, 99
1, 23099, Note_on_c, 0, 49, 0
1, 23106, Note_on_c, 0, 63, 0
1, 23107, Note_on_c, 1, 32, 0
1, 23107, Note_on_c, 0, 58, 0
1, 23108, Note_on_c, 8, 63, 0
1, 23108, Note_on_c, 0, 66, 0
1, 23109, Note_on_c, 8, 58, 0
1, 23111, Note_on_c, 8, 54, 0
1, 23112, Note_on_c, 1, 25, 112
1, 23112, Note_on_c, 3, 66, 107
1, 23112, Note_on_c, 9, 35, 82
1, 23112, Note_on_c, 9, 42, 83
1, 23113, Note_on_c, 9, 42, 0
1, 23113, Note_on_c, 9, 35, 0
1, 23113, Note_on_c, 0, 59, 104
1, 23113, Note_on_c, 0, 68, 104
1, 23113, Note_on_c, 0, 64, 104
1, 23113, Note_on_c, 4, 66, 86
1, 23113, Note_on_c, 4, 54, 47
1, 23113, Note_on_c, 8, 59, 106
1, 23113, Note_on_c, 8, 56, 113
1, 23113, Note_on_c, 8, 64, 112
1, 23125, Note_on_c, 3, 66, 0
1, 23128, Note_on_c, 8, 56, 0
1, 23128, Note_on_c, 8, 59, 0
1, 23129, Note_on_c, 8, 64, 0
1, 23133, Note_on_c, 2, 61, 0
1, 23134, Note_on_c, 2, 59, 83
1, 23135, Note_on_c, 0, 64, 0
1, 23135, Note_on_c, 0, 68, 0
1, 23135, Note_on_c, 2, 92, 0
1, 23135, Note_on_c, 3, 75, 118
1, 23136, Note_on_c, 1, 30, 112
1, 23136, Note_on_c, 9, 35, 115
1, 23136, Note_on_c, 9, 42, 115
1, 23137, Note_on_c, 9, 42, 0
1, 23137, Note_on_c, 9, 35, 0
1, 23137, Note_on_c, 4, 54, 0
1, 23137, Note_on_c, 4, 66, 0
1, 23137, Note_on_c, 0, 59, 0
1, 23137, Note_on_c, 0, 42, 119
1, 23137, Note_on_c, 4, 68, 48
1, 23137, Note_on_c, 4, 71, 48
1, 23137, Note_on_c, 4, 75, 97
1, 23137, Note_on_c, 4, 63, 48
1, 23138, Note_on_c, 2, 92, 82
1, 23139, Note_on_c, 1, 25, 0
1, 23160, Note_on_c, 9, 42, 55
1, 23161, Note_on_c, 9, 42, 0
1, 23161, Note_on_c, 0, 64, 97
1, 23161, Note_on_c, 0, 59, 92
1, 23161, Note_on_c, 0, 68, 81
1, 23168, Note_on_c, 1, 30, 0
1, 23172, Note_on_c, 3, 75, 0
1, 23184, Note_on_c, 4, 71, 0
1, 23184, Note_on_c, 4, 68, 0
1, 23184, Note_on_c, 4, 63, 0
1, 23184, Note_on_c, 4, 75, 0
1, 23184, Note_on_c, 3, 75, 118
1, 23184, Note_on_c, 9, 42, 83
1, 23185, Note_on_c, 9, 42, 0
1, 23185, Note_on_c, 4, 63, 48
1, 23185, Note_on_c, 4, 75, 97
1, 23185, Note_on_c, 4, 68, 48
1, 23185, Note_on_c, 4, 71, 48
1, 23201, Note_on_c, 3, 75, 0
1, 23201, Note_on_c, 0, 59, 0
1, 23201, Note_on_c, 0, 64, 0
1, 23202, Note_on_c, 0, 68, 0
1, 23208, Note_on_c, 1, 30, 113
1, 23208, Note_on_c, 3, 73, 118
1, 23208, Note_on_c, 9, 42, 83
1, 23209, Note_on_c, 9, 42, 0
1, 23209, Note_on_c, 4, 71, 0
1, 23209, Note_on_c, 0, 42, 0
1, 23209, Note_on_c, 4, 75, 0
1, 23209, Note_on_c, 4, 68, 0
1, 23209, Note_on_c, 4, 63, 0
1, 23209, Note_on_c, 0, 59, 61
1, 23209, Note_on_c, 0, 64, 80
1, 23209, Note_on_c, 0, 54, 79
1, 23209, Note_on_c, 0, 68, 59
1, 23209, Note_on_c, 4, 66, 48
1, 23209, Note_on_c, 4, 61, 48
1, 23209, Note_on_c, 4, 73, 97
1, 23209, Note_on_c, 4, 70, 48
1, 23217, Note_on_c, 0, 59, 0
1, 23218, Note_on_c, 0, 54, 0
1, 23220, Note_on_c, 1, 30, 0
1, 23222, Note_on_c, 0, 68, 0
1, 23224, Note_on_c, 0, 64, 0
1, 23229, Note_on_c, 2, 56, 0
1, 23229, Note_on_c, 2, 59, 0
1, 23229, Note_on_c, 2, 64, 0
1, 23231, Note_on_c, 2, 92, 0
1, 23232, Note_on_c, 1, 30, 113
1, 23232, Note_on_c, 2, 54, 81
1, 23232, Note_on_c, 9, 42, 101
1, 23232, Note_on_c, 9, 40, 115
1, 23233, Note_on_c, 9, 40, 0
1, 23233, Note_on_c, 9, 42, 0
1, 23233, Note_on_c, 0, 42, 113
1, 23233, Note_on_c, 0, 66, 101
1, 23233, Note_on_c, 0, 61, 107
1, 23233, Note_on_c, 0, 58, 116
1, 23233, Note_on_c, 0, 64, 104
1, 23233, Note_on_c, 2, 58, 80
1, 23234, Note_on_c, 2, 94, 82
1, 23234, Note_on_c, 2, 61, 84
1, 23251, Note_on_c, 1, 30, 0
1, 23256, Note_on_c, 1, 37, 113
1, 23256, Note_on_c, 8, 42, 127
1, 23256, Note_on_c, 9, 35, 115
1, 23256, Note_on_c, 9, 46, 83
1, 23256, Note_on_c, 10, 68, 114
1, 23256, Note_on_c, 10, 71, 109
1, 23257, Note_on_c, 9, 46, 0
1, 23257, Note_on_c, 9, 35, 0
1, 23266, Note_on_c, 3, 73, 0
1, 23272, Note_on_c, 10, 68, 0
1, 23274, Note_on_c, 8, 42, 0
1, 23275, Note_on_c, 10, 71, 0
1, 23279, Note_on_c, 3, 71, 116
1, 23280, Note_on_c, 9, 42, 89
1, 23281, Note_on_c, 9, 42, 0
1, 23281, Note_on_c, 4, 70, 0
1, 23281, Note_on_c, 4, 73, 0
1, 23281, Note_on_c, 4, 61, 0
1, 23281, Note_on_c, 4, 66, 0
1, 23281, Note_on_c, 0, 54, 119
1, 23281, Note_on_c, 4, 64, 48
1, 23281, Note_on_c, 4, 59, 49
1, 23281, Note_on_c, 4, 71, 92
1, 23281, Note_on_c, 4, 68, 49
1, 23282, Note_on_c, 1, 37, 0
1, 23284, Note_on_c, 0, 64, 0
1, 23286, Note_on_c, 0, 66, 0
1, 23287, Note_on_c, 0, 61, 0
1, 23291, Note_on_c, 0, 58, 0
1, 23299, Note_on_c, 3, 71, 0
1, 23303, Note_on_c, 8, 35, 123
1, 23304, Note_on_c, 1, 35, 114
1, 23304, Note_on_c, 3, 73, 114
1, 23304, Note_on_c, 9, 46, 92
1, 23304, Note_on_c, 9, 35, 81
1, 23305, Note_on_c, 9, 35, 0
1, 23305, Note_on_c, 4, 64, 0
1, 23305, Note_on_c, 4, 71, 0
1, 23305, Note_on_c, 4, 59, 0
1, 23305, Note_on_c, 9, 46, 0
1, 23305, Note_on_c, 4, 68, 0
1, 23305, Note_on_c, 4, 73, 97
1, 23305, Note_on_c, 4, 66, 48
1, 23305, Note_on_c, 4, 70, 49
1, 23305, Note_on_c, 4, 61, 49
1, 23305, Note_on_c, 10, 73, 111
1, 23305, Note_on_c, 10, 70, 114
1, 23316, Note_on_c, 0, 54, 0
1, 23319, Note_on_c, 10, 70, 0
1, 23321, Note_on_c, 8, 35, 0
1, 23321, Note_on_c, 10, 73, 0
1, 23322, Note_on_c, 0, 42, 0
1, 23325, Note_on_c, 2, 63, 83
1, 23326, Note_on_c, 2, 61, 0
1, 23327, Note_on_c, 0, 54, 116
1, 23327, Note_on_c, 0, 47, 97
1, 23327, Note_on_c, 0, 58, 101
1, 23327, Note_on_c, 0, 59, 98
1, 23327, Note_on_c, 0, 63, 107
1, 23327, Note_on_c, 2, 90, 83
1, 23328, Note_on_c, 9, 35, 110
1, 23328, Note_on_c, 9, 42, 77
1, 23329, Note_on_c, 9, 42, 0
1, 23329, Note_on_c, 9, 35, 0
1, 23329, Note_on_c, 2, 94, 0
1, 23337, Note_on_c, 3, 73, 0
1, 23352, Note_on_c, 4, 66, 0
1, 23352, Note_on_c, 4, 70, 0
1, 23352, Note_on_c, 4, 61, 0
1, 23352, Note_on_c, 9, 46, 110
1, 23352, Note_on_c, 9, 40, 96
1, 23353, Note_on_c, 9, 40, 0
1, 23353, Note_on_c, 9, 46, 0
1, 23353, Note_on_c, 4, 73, 0
1, 23353, Note_on_c, 3, 70, 118
1, 23353, Note_on_c, 4, 58, 49
1, 23353, Note_on_c, 4, 61, 49
1, 23353, Note_on_c, 4, 70, 80
1, 23353, Note_on_c, 4, 66, 49
1, 23376, Note_on_c, 9, 40, 115
1, 23377, Note_on_c, 9, 40, 0
1, 23381, Note_on_c, 3, 70, 0
1, 23389, Note_on_c, 1, 35, 0
1, 23399, Note_on_c, 3, 66, 118
1, 23400, Note_on_c, 4, 66, 0
1, 23400, Note_on_c, 4, 58, 0
1, 23400, Note_on_c, 4, 61, 0
1, 23400, Note_on_c, 1, 35, 79
1, 23400, Note_on_c, 9, 40, 86
1, 23401, Note_on_c, 9, 40, 0
1, 23401, Note_on_c, 4, 70, 0
1, 23401, Note_on_c, 4, 61, 49
1, 23401, Note_on_c, 4, 58, 49
1, 23401, Note_on_c, 4, 54, 49
1, 23401, Note_on_c, 4, 66, 93
1, 23412, Note_on_c, 9, 40, 115
1, 23413, Note_on_c, 9, 40, 0
1, 23415, Note_on_c, 1, 35, 0
1, 23424, Note_on_c, 1, 35, 89
1, 23424, Note_on_c, 9, 47, 110
1, 23425, Note_on_c, 9, 47, 0
1, 23441, Note_on_c, 1, 35, 0
1, 23448, Note_on_c, 1, 35, 97
1, 23448, Note_on_c, 9, 45, 115
1, 23449, Note_on_c, 9, 45, 0
1, 23459, Note_on_c, 3, 66, 0
1, 23464, Note_on_c, 1, 35, 0
1, 23472, Note_on_c, 1, 35, 104
1, 23472, Note_on_c, 9, 45, 115
1, 23473, Note_on_c, 9, 45, 0
1, 23477, Note_on_c, 0, 54, 0
1, 23478, Note_on_c, 0, 58, 0
1, 23478, Note_on_c, 0, 59, 0
1, 23479, Note_on_c, 0, 47, 0
1, 23480, Note_on_c, 0, 63, 0
1, 23486, Note_on_c, 1, 35, 0
1, 23496, Note_on_c, 1, 35, 109
1, 23496, Note_on_c, 9, 41, 115
1, 23497, Note_on_c, 9, 41, 0
1, 23508, Note_on_c, 2, 54, 0
1, 23508, Note_on_c, 2, 63, 0
1, 23514, Note_on_c, 1, 35, 0
1, 23515, Note_on_c, 2, 58, 0
1, 23517, Note_on_c, 2, 90, 0
1, 23518, Note_on_c, 2, 88, 89
1, 23519, Note_on_c, 2, 61, 84
1, 23519, Note_on_c, 2, 56, 85
1, 23520, Note_on_c, 0, 56, 119
1, 23520, Note_on_c, 0, 37, 97
1, 23520, Note_on_c, 0, 61, 104
1, 23520, Note_on_c, 0, 49, 116
1, 23520, Note_on_c, 0, 64, 117
1, 23520, Note_on_c, 1, 37, 115
1, 23520, Note_on_c, 2, 52, 85
1, 23520, Note_on_c, 3, 71, 118
1, 23520, Note_on_c, 7, 76, 108
1, 23520, Note_on_c, 9, 35, 115
1, 23521, Note_on_c, 9, 35, 0
1, 23521, Note_on_c, 4, 54, 0
1, 23521, Note_on_c, 4, 66, 0
1, 23521, Note_on_c, 4, 58, 0
1, 23521, Note_on_c, 4, 61, 0
1, 23521, Note_on_c, 0, 59, 110
1, 23521, Note_on_c, 4, 71, 97
1, 23521, Note_on_c, 4, 64, 47
1, 23521, Note_on_c, 4, 68, 47
1, 23521, Note_on_c, 9, 49, 77
1, 23522, Note_on_c, 9, 49, 0
1, 23522, Note_on_c, 7, 80, 105
1, 23522, Note_on_c, 8, 37, 113
1, 23527, Note_on_c, 10, 64, 107
1, 23558, Note_on_c, 3, 71, 0
1, 23563, Note_on_c, 1, 37, 0
1, 23567, Note_on_c, 3, 70, 110
1, 23568, Note_on_c, 1, 35, 120
1, 23568, Note_on_c, 9, 42, 91
1, 23569, Note_on_c, 9, 42, 0
1, 23569, Note_on_c, 4, 68, 0
1, 23569, Note_on_c, 4, 64, 0
1, 23569, Note_on_c, 4, 71, 0
1, 23569, Note_on_c, 4, 66, 48
1, 23569, Note_on_c, 4, 70, 62
1, 23569, Note_on_c, 4, 63, 48
1, 23589, Note_on_c, 3, 70, 0
1, 23591, Note_on_c, 1, 35, 0
1, 23592, Note_on_c, 1, 37, 112
1, 23593, Note_on_c, 4, 66, 0
1, 23593, Note_on_c, 4, 63, 0
1, 23593, Note_on_c, 4, 70, 0
1, 23593, Note_on_c, 3, 71, 116
1, 23593, Note_on_c, 4, 64, 47
1, 23593, Note_on_c, 4, 68, 47
1, 23593, Note_on_c, 4, 71, 82
1, 23599, Note_on_c, 0, 56, 0
1, 23599, Note_on_c, 0, 59, 0
1, 23602, Note_on_c, 0, 37, 0
1, 23603, Note_on_c, 0, 64, 0
1, 23605, Note_on_c, 0, 49, 0
1, 23605, Note_on_c, 0, 61, 0
1, 23608, Note_on_c, 2, 61, 0
1, 23608, Note_on_c, 2, 56, 0
1, 23611, Note_on_c, 7, 76, 0
1, 23612, Note_on_c, 10, 64, 0
1, 23612, Note_on_c, 7, 80, 0
1, 23612, Note_on_c, 2, 52, 0
1, 23613, Note_on_c, 8, 37, 0
1, 23613, Note_on_c, 2, 88, 0
1, 23614, Note_on_c, 3, 71, 0
1, 23614, Note_on_c, 1, 37, 0
1, 23614, Note_on_c, 2, 58, 83
1, 23615, Note_on_c, 2, 63, 82
1, 23615, Note_on_c, 2, 54, 81
1, 23616, Note_on_c, 1, 39, 112
1, 23616, Note_on_c, 9, 35, 115
1, 23617, Note_on_c, 9, 35, 0
1, 23617, Note_on_c, 4, 64, 0
1, 23617, Note_on_c, 4, 71, 0
1, 23617, Note_on_c, 4, 68, 0
1, 23617, Note_on_c, 0, 63, 116
1, 23617, Note_on_c, 0, 51, 119
1, 23617, Note_on_c, 0, 39, 97
1, 23617, Note_on_c, 0, 61, 127
1, 23617, Note_on_c, 0, 66, 113
1, 23617, Note_on_c, 0, 58, 113
1, 23617, Note_on_c, 3, 73, 118
1, 23617, Note_on_c, 4, 73, 97
1, 23617, Note_on_c, 4, 70, 47
1, 23617, Note_on_c, 4, 66, 47
1, 23617, Note_on_c, 7, 78, 104
1, 23617, Note_on_c, 9, 57, 77
1, 23618, Note_on_c, 9, 57, 0
1, 23618, Note_on_c, 7, 82, 117
1, 23618, Note_on_c, 8, 39, 127
1, 23619, Note_on_c, 2, 90, 86
1, 23623, Note_on_c, 10, 66, 110
1, 23653, Note_on_c, 3, 73, 0
1, 23663, Note_on_c, 1, 39, 0
1, 23664, Note_on_c, 1, 37, 112
1, 23664, Note_on_c, 9, 42, 89
1, 23665, Note_on_c, 9, 42, 0
1, 23665, Note_on_c, 4, 66, 0
1, 23665, Note_on_c, 4, 73, 0
1, 23665, Note_on_c, 4, 70, 0
1, 23665, Note_on_c, 3, 71, 108
1, 23665, Note_on_c, 4, 71, 74
1, 23665, Note_on_c, 4, 64, 50
1, 23665, Note_on_c, 4, 68, 50
1, 23685, Note_on_c, 1, 37, 0
1, 23687, Note_on_c, 3, 71, 0
1, 23688, Note_on_c, 1, 39, 114
1, 23688, Note_on_c, 3, 73, 110
1, 23689, Note_on_c, 4, 71, 0
1, 23689, Note_on_c, 4, 68, 0
1, 23689, Note_on_c, 0, 58, 0
1, 23689, Note_on_c, 4, 64, 0
1, 23689, Note_on_c, 0, 61, 0
1, 23689, Note_on_c, 4, 73, 89
1, 23689, Note_on_c, 4, 66, 50
1, 23689, Note_on_c, 4, 70, 50
1, 23690, Note_on_c, 0, 51, 0
1, 23691, Note_on_c, 0, 63, 0
1, 23692, Note_on_c, 0, 39, 0
1, 23696, Note_on_c, 0, 66, 0
1, 23706, Note_on_c, 2, 58, 0
1, 23706, Note_on_c, 2, 54, 0
1, 23707, Note_on_c, 7, 82, 0
1, 23707, Note_on_c, 2, 63, 0
1, 23708, Note_on_c, 10, 66, 0
1, 23711, Note_on_c, 1, 39, 0
1, 23711, Note_on_c, 3, 73, 0
1, 23711, Note_on_c, 2, 56, 84
1, 23712, Note_on_c, 7, 78, 0
1, 23712, Note_on_c, 1, 41, 116
1, 23712, Note_on_c, 2, 60, 83
1, 23712, Note_on_c, 2, 65, 83
1, 23712, Note_on_c, 3, 75, 114
1, 23712, Note_on_c, 9, 49, 83
1, 23712, Note_on_c, 9, 35, 115
1, 23713, Note_on_c, 9, 35, 0
1, 23713, Note_on_c, 4, 66, 0
1, 23713, Note_on_c, 4, 70, 0
1, 23713, Note_on_c, 8, 39, 0
1, 23713, Note_on_c, 9, 49, 0
1, 23713, Note_on_c, 4, 73, 0
1, 23713, Note_on_c, 4, 68, 69
1, 23713, Note_on_c, 4, 75, 97
1, 23713, Note_on_c, 4, 72, 69
1, 23714, Note_on_c, 2, 90, 0
1, 23714, Note_on_c, 2, 92, 82
1, 23714, Note_on_c, 7, 80, 127
1, 23714, Note_on_c, 7, 84, 122
1, 23714, Note_on_c, 8, 41, 127
1, 23719, Note_on_c, 10, 68, 112
1, 23735, Note_on_c, 0, 63, 117
1, 23735, Note_on_c, 0, 60, 117
1, 23735, Note_on_c, 0, 68, 117
1, 23735, Note_on_c, 0, 65, 117
1, 23738, Note_on_c, 3, 75, 0
1, 23741, Note_on_c, 11, 72, 127
1, 23742, Control_c, 11, 1, 0
1, 23742, Pitch_bend_c, 11, 8192
1, 23745, Note_on_c, 7, 80, 0
1, 23747, Note_on_c, 8, 41, 0
1, 23750, Note_on_c, 0, 60, 0
1, 23751, Note_on_c, 7, 84, 0
1, 23751, Note_on_c, 10, 68, 0
1, 23751, Note_on_c, 0, 63, 0
1, 23752, Note_on_c, 11, 72, 0
1, 23754, Note_on_c, 0, 68, 0
1, 23755, Note_on_c, 0, 65, 0
1, 23759, Note_on_c, 1, 41, 0
1, 23759, Note_on_c, 0, 63, 71
1, 23759, Note_on_c, 0, 67, 81
1, 23759, Note_on_c, 0, 58, 104
1, 23760, Note_on_c, 9, 42, 87
1, 23761, Note_on_c, 9, 42, 0
1, 23761, Note_on_c, 11, 75, 127
1, 23771, Note_on_c, 0, 63, 0
1, 23773, Note_on_c, 0, 58, 0
1, 23775, Note_on_c, 0, 67, 0
1, 23781, Note_on_c, 11, 75, 0
1, 23784, Note_on_c, 9, 42, 42
1, 23784, Note_on_c, 11, 75, 120
1, 23785, Note_on_c, 9, 42, 0
1, 23785, Note_on_c, 0, 41, 88
1, 23804, Note_on_c, 11, 75, 0
1, 23806, Note_on_c, 2, 92, 0
1, 23808, Note_on_c, 4, 75, 0
1, 23808, Note_on_c, 4, 68, 0
1, 23808, Note_on_c, 4, 72, 0
1, 23808, Note_on_c, 9, 40, 115
1, 23808, Note_on_c, 9, 42, 111
1, 23809, Note_on_c, 9, 42, 0
1, 23809, Note_on_c, 9, 40, 0
1, 23809, Note_on_c, 0, 63, 119
1, 23809, Note_on_c, 0, 68, 119
1, 23809, Note_on_c, 0, 65, 119
1, 23809, Note_on_c, 0, 60, 119
1, 23809, Note_on_c, 11, 72, 113
1, 23810, Note_on_c, 2, 92, 83
1, 23823, Note_on_c, 0, 65, 0
1, 23824, Note_on_c, 0, 41, 0
1, 23824, Note_on_c, 0, 63, 0
1, 23830, Note_on_c, 0, 60, 0
1, 23832, Note_on_c, 0, 68, 0
1, 23832, Note_on_c, 9, 42, 47
1, 23833, Note_on_c, 9, 42, 0
1, 23833, Note_on_c, 0, 41, 65
1, 23833, Note_on_c, 0, 53, 80
1, 23851, Note_on_c, 11, 72, 0
1, 23855, Note_on_c, 0, 63, 74
1, 23855, Note_on_c, 0, 67, 85
1, 23855, Note_on_c, 0, 58, 95
1, 23856, Note_on_c, 9, 42, 81
1, 23857, Note_on_c, 9, 42, 0
1, 23857, Note_on_c, 11, 68, 117
1, 23858, Note_on_c, 0, 41, 0
1, 23861, Note_on_c, 0, 53, 0
1, 23870, Note_on_c, 0, 58, 0
1, 23871, Note_on_c, 0, 63, 0
1, 23873, Note_on_c, 0, 67, 0
1, 23879, Note_on_c, 11, 68, 0
1, 23880, Note_on_c, 1, 32, 120
1, 23880, Note_on_c, 9, 35, 85
1, 23880, Note_on_c, 9, 42, 60
1, 23881, Note_on_c, 9, 42, 0
1, 23881, Note_on_c, 9, 35, 0
1, 23881, Note_on_c, 0, 63, 110
1, 23881, Note_on_c, 0, 60, 110
1, 23881, Note_on_c, 0, 65, 110
1, 23881, Note_on_c, 0, 68, 110
1, 23882, Note_on_c, 11, 65, 99
1, 23894, Note_on_c, 0, 63, 0
1, 23895, Note_on_c, 2, 65, 0
1, 23897, Note_on_c, 0, 65, 0
1, 23897, Note_on_c, 2, 60, 0
1, 23898, Note_on_c, 0, 60, 0
1, 23900, Note_on_c, 0, 68, 0
1, 23900, Note_on_c, 1, 32, 0
1, 23900, Note_on_c, 11, 70, 96
1, 23901, Note_on_c, 2, 56, 0
1, 23902, Note_on_c, 11, 65, 0
1, 23903, Note_on_c, 2, 92, 0
1, 23903, Note_on_c, 2, 65, 84
1, 23903, Note_on_c, 2, 61, 80
1, 23903, Note_on_c, 2, 58, 83
1, 23904, Note_on_c, 1, 34, 120
1, 23904, Note_on_c, 9, 42, 101
1, 23904, Note_on_c, 9, 35, 115
1, 23905, Note_on_c, 9, 35, 0
1, 23905, Note_on_c, 9, 42, 0
1, 23905, Note_on_c, 0, 46, 107
1, 23906, Note_on_c, 2, 92, 82
1, 23907, Note_on_c, 11, 70, 0
1, 23907, Note_on_c, 11, 72, 127
1, 23914, Note_on_c, 0, 46, 0
1, 23926, Note_on_c, 1, 34, 0
1, 23928, Note_on_c, 0, 46, 99
1, 23928, Note_on_c, 9, 42, 55
1, 23929, Note_on_c, 9, 42, 0
1, 23933, Note_on_c, 0, 46, 0
1, 23947, Note_on_c, 11, 72, 0
1, 23952, Note_on_c, 1, 34, 120
1, 23952, Note_on_c, 9, 42, 81
1, 23952, Note_on_c, 11, 68, 120
1, 23953, Note_on_c, 9, 42, 0
1, 23971, Note_on_c, 1, 34, 0
1, 23975, Note_on_c, 11, 68, 0
1, 23975, Note_on_c, 0, 46, 82
1, 23975, Note_on_c, 11, 70, 102
1, 23976, Note_on_c, 1, 34, 121
1, 23976, Note_on_c, 9, 42, 73
1, 23977, Note_on_c, 9, 42, 0
1, 23982, Note_on_c, 0, 46, 0
1, 23998, Note_on_c, 2, 92, 0
1, 23998, Note_on_c, 1, 34, 0
1, 24000, Note_on_c, 9, 42, 101
1, 24000, Note_on_c, 9, 40, 115
1, 24001, Note_on_c, 9, 40, 0
1, 24001, Note_on_c, 9, 42, 0
1, 24002, Note_on_c, 2, 92, 82
1, 24023, Note_on_c, 0, 61, 119
1, 24023, Note_on_c, 0, 65, 127
1, 24023, Note_on_c, 0, 46, 119
1, 24023, Note_on_c, 0, 68, 116
1, 24023, Note_on_c, 0, 58, 123
1, 24024, Note_on_c, 1, 34, 121
1, 24024, Note_on_c, 9, 35, 115
1, 24024, Note_on_c, 9, 46, 95
1, 24025, Note_on_c, 9, 46, 0
1, 24025, Note_on_c, 9, 35, 0
1, 24031, Note_on_c, 0, 46, 0
1, 24038, Note_on_c, 0, 65, 0
1, 24046, Note_on_c, 1, 34, 0
1, 24046, Note_on_c, 0, 61, 0
1, 24046, Note_on_c, 11, 70, 0
1, 24047, Note_on_c, 0, 68, 0
1, 24048, Note_on_c, 0, 58, 0
1, 24048, Note_on_c, 9, 42, 85
1, 24049, Note_on_c, 9, 42, 0
1, 24071, Note_on_c, 0, 58, 116
1, 24071, Note_on_c, 0, 66, 123
1, 24071, Note_on_c, 0, 61, 119
1, 24072, Note_on_c, 0, 51, 107
1, 24072, Note_on_c, 0, 39, 89
1, 24072, Note_on_c, 1, 39, 119
1, 24072, Note_on_c, 9, 35, 85
1, 24072, Note_on_c, 9, 46, 97
1, 24073, Note_on_c, 9, 46, 0
1, 24073, Note_on_c, 9, 35, 0
1, 24090, Note_on_c, 0, 61, 0
1, 24091, Note_on_c, 2, 61, 0
1, 24092, Note_on_c, 0, 58, 0
1, 24092, Note_on_c, 0, 39, 0
1, 24092, Note_on_c, 0, 66, 0
1, 24094, Note_on_c, 2, 92, 0
1, 24096, Note_on_c, 0, 51, 0
1, 24096, Note_on_c, 9, 35, 115
1, 24096, Note_on_c, 9, 42, 79
1, 24097, Note_on_c, 9, 42, 0
1, 24097, Note_on_c, 9, 35, 0
1, 24097, Note_on_c, 2, 54, 92
1, 24098, Note_on_c, 2, 92, 81
1, 24103, Note_on_c, 1, 39, 0
1, 24119, Note_on_c, 0, 58, 107
1, 24119, Note_on_c, 0, 66, 119
1, 24119, Note_on_c, 0, 61, 113
1, 24119, Note_on_c, 8, 63, 110
1, 24119, Note_on_c, 8, 66, 110
1, 24119, Note_on_c, 8, 58, 119
1, 24120, Note_on_c, 9, 42, 63
1, 24121, Note_on_c, 9, 42, 0
1, 24123, Note_on_c, 11, 73, 127
1, 24132, Note_on_c, 8, 63, 0
1, 24133, Note_on_c, 0, 61, 0
1, 24133, Note_on_c, 0, 58, 0
1, 24134, Note_on_c, 8, 66, 0
1, 24135, Note_on_c, 8, 58, 0
1, 24135, Note_on_c, 0, 66, 0
1, 24143, Note_on_c, 8, 61, 97
1, 24143, Note_on_c, 8, 65, 97
1, 24143, Note_on_c, 8, 56, 110
1, 24143, Note_on_c, 11, 70, 127
1, 24144, Note_on_c, 11, 73, 0
1, 24144, Note_on_c, 1, 34, 120
1, 24144, Note_on_c, 9, 42, 107
1, 24145, Note_on_c, 9, 42, 0
1, 24145, Note_on_c, 0, 65, 106
1, 24145, Note_on_c, 0, 56, 107
1, 24145, Note_on_c, 0, 61, 95
1, 24157, Note_on_c, 0, 61, 0
1, 24159, Note_on_c, 0, 65, 0
1, 24160, Note_on_c, 0, 56, 0
1, 24161, Note_on_c, 8, 61, 0
1, 24164, Note_on_c, 8, 56, 0
1, 24164, Note_on_c, 8, 65, 0
1, 24167, Note_on_c, 1, 34, 0
1, 24168, Note_on_c, 1, 30, 120
1, 24168, Note_on_c, 9, 42, 72
1, 24169, Note_on_c, 9, 42, 0
1, 24169, Note_on_c, 0, 39, 85
1, 24171, Note_on_c, 11, 70, 0
1, 24175, Note_on_c, 0, 39, 0
1, 24188, Note_on_c, 1, 30, 0
1, 24191, Note_on_c, 2, 92, 0
1, 24191, Note_on_c, 8, 54, 104
1, 24191, Note_on_c, 8, 58, 104
1, 24191, Note_on_c, 8, 63, 104
1, 24191, Note_on_c, 11, 73, 127
1, 24192, Note_on_c, 1, 39, 120
1, 24192, Note_on_c, 9, 42, 76
1, 24192, Note_on_c, 9, 40, 115
1, 24193, Note_on_c, 9, 40, 0
1, 24193, Note_on_c, 9, 42, 0
1, 24193, Note_on_c, 0, 58, 119
1, 24193, Note_on_c, 0, 61, 127
1, 24193, Note_on_c, 0, 66, 127
1, 24194, Note_on_c, 2, 92, 84
1, 24207, Note_on_c, 0, 61, 0
1, 24208, Note_on_c, 0, 58, 0
1, 24210, Note_on_c, 8, 58, 0
1, 24211, Note_on_c, 0, 66, 0
1, 24212, Note_on_c, 8, 63, 0
1, 24214, Note_on_c, 1, 39, 0
1, 24216, Note_on_c, 0, 39, 85
1, 24216, Note_on_c, 9, 42, 70
1, 24217, Note_on_c, 9, 42, 0
1, 24221, Note_on_c, 8, 54, 0
1, 24237, Note_on_c, 0, 39, 0
1, 24237, Note_on_c, 11, 70, 108
1, 24239, Note_on_c, 11, 73, 0
1, 24239, Note_on_c, 0, 68, 107
1, 24239, Note_on_c, 0, 65, 106
1, 24239, Note_on_c, 0, 61, 110
1, 24239, Note_on_c, 8, 65, 114
1, 24239, Note_on_c, 8, 56, 119
1, 24239, Note_on_c, 8, 61, 110
1, 24240, Note_on_c, 1, 30, 120
1, 24240, Note_on_c, 9, 42, 72
1, 24241, Note_on_c, 9, 42, 0
1, 24241, Note_on_c, 0, 51, 104
1, 24251, Note_on_c, 0, 51, 0
1, 24252, Note_on_c, 8, 61, 0
1, 24254, Note_on_c, 0, 65, 0
1, 24255, Note_on_c, 0, 61, 0
1, 24257, Note_on_c, 1, 30, 0
1, 24257, Note_on_c, 0, 68, 0
1, 24260, Note_on_c, 8, 65, 0
1, 24263, Note_on_c, 11, 66, 126
1, 24264, Note_on_c, 1, 31, 120
1, 24264, Note_on_c, 8, 63, 95
1, 24264, Note_on_c, 8, 66, 104
1, 24264, Note_on_c, 9, 42, 73
1, 24264, Note_on_c, 9, 35, 86
1, 24265, Note_on_c, 9, 35, 0
1, 24265, Note_on_c, 11, 70, 0
1, 24265, Note_on_c, 9, 42, 0
1, 24265, Note_on_c, 0, 61, 104
1, 24265, Note_on_c, 0, 58, 107
1, 24265, Note_on_c, 0, 44, 78
1, 24265, Note_on_c, 0, 66, 95
1, 24265, Note_on_c, 8, 58, 113
1, 24269, Note_on_c, 8, 56, 0
1, 24275, Note_on_c, 0, 44, 0
1, 24277, Note_on_c, 8, 58, 0
1, 24278, Note_on_c, 8, 63, 0
1, 24278, Note_on_c, 8, 66, 0
1, 24281, Note_on_c, 2, 65, 0
1, 24282, Note_on_c, 0, 61, 0
1, 24283, Note_on_c, 0, 66, 0
1, 24285, Note_on_c, 0, 58, 0
1, 24287, Note_on_c, 2, 92, 0
1, 24287, Note_on_c, 11, 65, 102
1, 24288, Note_on_c, 1, 31, 0
1, 24288, Note_on_c, 1, 32, 121
1, 24288, Note_on_c, 9, 35, 115
1, 24288, Note_on_c, 9, 42, 115
1, 24289, Note_on_c, 9, 42, 0
1, 24289, Note_on_c, 9, 35, 0
1, 24289, Note_on_c, 2, 61, 81
1, 24290, Note_on_c, 11, 66, 0
1, 24290, Note_on_c, 2, 92, 82
1, 24312, Note_on_c, 9, 42, 69
1, 24313, Note_on_c, 9, 42, 0
1, 24313, Note_on_c, 0, 66, 97
1, 24313, Note_on_c, 0, 61, 89
1, 24313, Note_on_c, 0, 58, 85
1, 24314, Note_on_c, 11, 66, 81
1, 24316, Note_on_c, 1, 32, 0
1, 24318, Note_on_c, 11, 65, 0
1, 24320, Note_on_c, 0, 61, 0
1, 24322, Note_on_c, 11, 68, 120
1, 24325, Note_on_c, 0, 58, 0
1, 24325, Note_on_c, 0, 66, 0
1, 24328, Note_on_c, 11, 66, 0
1, 24336, Note_on_c, 1, 32, 121
1, 24336, Note_on_c, 9, 42, 107
1, 24337, Note_on_c, 9, 42, 0
1, 24353, Note_on_c, 11, 66, 108
1, 24354, Note_on_c, 1, 32, 0
1, 24357, Note_on_c, 11, 68, 0
1, 24360, Note_on_c, 1, 32, 120
1, 24360, Note_on_c, 9, 42, 72
1, 24361, Note_on_c, 9, 42, 0
1, 24361, Note_on_c, 0, 44, 107
1, 24365, Note_on_c, 0, 44, 0
1, 24382, Note_on_c, 1, 32, 0
1, 24382, Note_on_c, 11, 66, 0
1, 24382, Note_on_c, 2, 92, 0
1, 24383, Note_on_c, 0, 61, 97
1, 24383, Note_on_c, 0, 58, 97
1, 24383, Note_on_c, 0, 66, 107
1, 24384, Note_on_c, 2, 54, 0
1, 24384, Note_on_c, 2, 61, 0
1, 24384, Note_on_c, 9, 42, 101
1, 24384, Note_on_c, 9, 40, 115
1, 24385, Note_on_c, 9, 40, 0
1, 24385, Note_on_c, 9, 42, 0
1, 24385, Note_on_c, 0, 44, 101
1, 24385, Note_on_c, 2, 60, 81
1, 24386, Note_on_c, 2, 58, 0
1, 24386, Note_on_c, 2, 92, 81
1, 24386, Note_on_c, 2, 63, 81
1, 24386, Note_on_c, 2, 56, 83
1, 24386, Note_on_c, 11, 63, 106
1, 24389, Note_on_c, 0, 44, 0
1, 24389, Note_on_c, 0, 61, 0
1, 24390, Note_on_c, 0, 66, 0
1, 24391, Note_on_c, 0, 58, 0
1, 24408, Note_on_c, 1, 32, 120
1, 24408, Note_on_c, 9, 35, 115
1, 24408, Note_on_c, 9, 46, 94
1, 24408, Note_on_c, 10, 70, 111
1, 24408, Note_on_c, 10, 73, 114
1, 24409, Note_on_c, 9, 46, 0
1, 24409, Note_on_c, 9, 35, 0
1, 24409, Note_on_c, 0, 61, 123
1, 24409, Note_on_c, 0, 58, 119
1, 24409, Note_on_c, 0, 44, 101
1, 24409, Note_on_c, 0, 66, 127
1, 24415, Note_on_c, 0, 44, 0
1, 24417, Note_on_c, 10, 70, 0
1, 24421, Note_on_c, 11, 63, 0
1, 24423, Note_on_c, 0, 61, 0
1, 24427, Note_on_c, 10, 73, 0
1, 24428, Note_on_c, 0, 58, 0
1, 24429, Note_on_c, 0, 66, 0
1, 24432, Note_on_c, 9, 42, 83
1, 24433, Note_on_c, 9, 42, 0
1, 24434, Note_on_c, 1, 32, 0
1, 24452, Note_on_c, 2, 60, 0
1, 24453, Note_on_c, 2, 63, 0
1, 24454, Note_on_c, 2, 64, 83
1, 24454, Note_on_c, 2, 61, 84
1, 24455, Note_on_c, 0, 59, 106
1, 24455, Note_on_c, 0, 68, 101
1, 24455, Note_on_c, 0, 37, 89
1, 24455, Note_on_c, 0, 64, 110
1, 24455, Note_on_c, 10, 71, 105
1, 24455, Note_on_c, 10, 75, 118
1, 24456, Note_on_c, 1, 37, 120
1, 24456, Note_on_c, 9, 35, 113
1, 24456, Note_on_c, 9, 46, 97
1, 24457, Note_on_c, 9, 46, 0
1, 24457, Note_on_c, 9, 35, 0
1, 24457, Note_on_c, 0, 49, 99
1, 24462, Note_on_c, 0, 49, 0
1, 24463, Note_on_c, 0, 37, 0
1, 24473, Note_on_c, 10, 75, 0
1, 24473, Note_on_c, 0, 64, 0
1, 24476, Note_on_c, 10, 71, 0
1, 24476, Note_on_c, 0, 68, 0
1, 24477, Note_on_c, 0, 59, 0
1, 24478, Note_on_c, 2, 92, 0
1, 24480, Note_on_c, 9, 35, 113
1, 24480, Note_on_c, 9, 42, 73
1, 24481, Note_on_c, 9, 42, 0
1, 24481, Note_on_c, 9, 35, 0
1, 24482, Note_on_c, 2, 92, 83
1, 24485, Note_on_c, 1, 37, 0
1, 24503, Note_on_c, 8, 56, 102
1, 24503, Note_on_c, 8, 64, 112
1, 24503, Note_on_c, 11, 61, 106
1, 24504, Note_on_c, 0, 64, 120
1, 24504, Note_on_c, 0, 59, 108
1, 24504, Note_on_c, 8, 61, 87
1, 24504, Note_on_c, 9, 42, 70
1, 24505, Note_on_c, 9, 42, 0
1, 24505, Note_on_c, 0, 37, 85
1, 24505, Note_on_c, 0, 49, 99
1, 24505, Note_on_c, 0, 68, 116
1, 24506, Note_on_c, 8, 61, 0
1, 24510, Note_on_c, 0, 37, 0
1, 24510, Note_on_c, 0, 49, 0
1, 24516, Note_on_c, 8, 56, 0
1, 24516, Note_on_c, 0, 59, 0
1, 24520, Note_on_c, 8, 64, 0
1, 24520, Note_on_c, 0, 68, 0
1, 24522, Note_on_c, 0, 64, 0
1, 24527, Note_on_c, 8, 63, 95
1, 24527, Note_on_c, 8, 58, 95
1, 24527, Note_on_c, 8, 54, 97
1, 24527, Note_on_c, 11, 63, 120
1, 24528, Note_on_c, 0, 58, 113
1, 24528, Note_on_c, 0, 66, 87
1, 24528, Note_on_c, 0, 63, 97
1, 24528, Note_on_c, 1, 32, 120
1, 24528, Note_on_c, 9, 42, 98
1, 24529, Note_on_c, 9, 42, 0
1, 24530, Note_on_c, 11, 61, 0
1, 24545, Note_on_c, 8, 63, 0
1, 24545, Note_on_c, 8, 58, 0
1, 24546, Note_on_c, 0, 63, 0
1, 24547, Note_on_c, 0, 58, 0
1, 24548, Note_on_c, 0, 66, 0
1, 24550, Note_on_c, 8, 54, 0
1, 24550, Note_on_c, 11, 63, 0
1, 24551, Note_on_c, 0, 37, 85
1, 24552, Note_on_c, 1, 35, 120
1, 24552, Note_on_c, 9, 42, 87
1, 24552, Note_on_c, 11, 64, 111
1, 24553, Note_on_c, 9, 42, 0
1, 24553, Note_on_c, 1, 32, 0
1, 24558, Note_on_c, 0, 37, 0
1, 24574, Note_on_c, 2, 92, 0
1, 24574, Note_on_c, 1, 35, 0
1, 24575, Note_on_c, 8, 52, 108
1, 24575, Note_on_c, 8, 56, 113
1, 24575, Note_on_c, 8, 61, 110
1, 24576, Note_on_c, 0, 68, 116
1, 24576, Note_on_c, 0, 64, 122
1, 24576, Note_on_c, 0, 59, 114
1, 24576, Note_on_c, 1, 37, 120
1, 24576, Note_on_c, 9, 42, 72
1, 24576, Note_on_c, 9, 40, 115
1, 24577, Note_on_c, 9, 40, 0
1, 24577, Note_on_c, 9, 42, 0
1, 24577, Note_on_c, 11, 68, 127
1, 24578, Note_on_c, 2, 92, 84
1, 24580, Note_on_c, 11, 64, 0
1, 24592, Note_on_c, 8, 61, 0
1, 24592, Note_on_c, 8, 56, 0
1, 24598, Note_on_c, 0, 64, 0
1, 24599, Note_on_c, 8, 52, 0
1, 24599, Note_on_c, 0, 37, 95
1, 24600, Note_on_c, 0, 59, 0
1, 24600, Note_on_c, 1, 37, 0
1, 24600, Note_on_c, 9, 42, 60
1, 24600, Note_on_c, 11, 70, 114
1, 24601, Note_on_c, 9, 42, 0
1, 24603, Note_on_c, 0, 68, 0
1, 24603, Note_on_c, 11, 68, 0
1, 24622, Note_on_c, 0, 37, 0
1, 24623, Note_on_c, 11, 70, 0
1, 24623, Note_on_c, 0, 58, 110
1, 24623, Note_on_c, 8, 54, 116
1, 24623, Note_on_c, 8, 58, 110
1, 24623, Note_on_c, 8, 63, 107
1, 24624, Note_on_c, 0, 63, 113
1, 24624, Note_on_c, 0, 66, 99
1, 24624, Note_on_c, 1, 32, 119
1, 24624, Note_on_c, 9, 42, 85
1, 24624, Note_on_c, 11, 71, 124
1, 24625, Note_on_c, 9, 42, 0
1, 24625, Note_on_c, 0, 49, 99
1, 24635, Note_on_c, 0, 49, 0
1, 24640, Note_on_c, 1, 32, 0
1, 24642, Note_on_c, 0, 63, 0
1, 24643, Note_on_c, 0, 58, 0
1, 24644, Note_on_c, 8, 63, 0
1, 24644, Note_on_c, 0, 66, 0
1, 24645, Note_on_c, 8, 58, 0
1, 24646, Note_on_c, 11, 73, 126
1, 24647, Note_on_c, 8, 54, 0
1, 24648, Note_on_c, 1, 29, 119
1, 24648, Note_on_c, 9, 42, 83
1, 24648, Note_on_c, 9, 35, 82
1, 24649, Note_on_c, 9, 35, 0
1, 24649, Note_on_c, 9, 42, 0
1, 24649, Note_on_c, 0, 68, 104
1, 24649, Note_on_c, 0, 64, 104
1, 24649, Note_on_c, 0, 59, 104
1, 24649, Note_on_c, 8, 64, 112
1, 24649, Note_on_c, 8, 56, 113
1, 24649, Note_on_c, 8, 59, 106
1, 24650, Note_on_c, 11, 71, 0
1, 24664, Note_on_c, 1, 29, 0
1, 24664, Note_on_c, 8, 59, 0
1, 24664, Note_on_c, 8, 56, 0
1, 24665, Note_on_c, 8, 64, 0
1, 24667, Note_on_c, 11, 73, 0
1, 24667, Note_on_c, 11, 68, 108
1, 24669, Note_on_c, 2, 61, 0
1, 24670, Note_on_c, 2, 92, 0
1, 24671, Note_on_c, 0, 68, 0
1, 24671, Note_on_c, 0, 64, 0
1, 24672, Note_on_c, 1, 30, 119
1, 24672, Note_on_c, 9, 42, 115
1, 24672, Note_on_c, 9, 35, 115
1, 24673, Note_on_c, 9, 35, 0
1, 24673, Note_on_c, 0, 59, 0
1, 24673, Note_on_c, 9, 42, 0
1, 24673, Note_on_c, 0, 42, 119
1, 24673, Note_on_c, 2, 59, 85
1, 24674, Note_on_c, 2, 92, 84
1, 24676, Note_on_c, 11, 70, 106
1, 24679, Note_on_c, 11, 68, 0
1, 24696, Note_on_c, 9, 42, 55
1, 24697, Note_on_c, 9, 42, 0
1, 24697, Note_on_c, 0, 64, 97
1, 24697, Note_on_c, 0, 68, 81
1, 24697, Note_on_c, 0, 59, 92
1, 24700, Note_on_c, 1, 30, 0
1, 24720, Note_on_c, 1, 30, 119
1, 24720, Note_on_c, 9, 42, 83
1, 24721, Note_on_c, 9, 42, 0
1, 24735, Note_on_c, 1, 30, 0
1, 24737, Note_on_c, 0, 64, 0
1, 24737, Note_on_c, 0, 59, 0
1, 24738, Note_on_c, 0, 68, 0
1, 24740, Note_on_c, 11, 70, 0
1, 24744, Note_on_c, 1, 30, 119
1, 24744, Note_on_c, 9, 42, 83
1, 24744, Note_on_c, 11, 68, 106
1, 24745, Note_on_c, 9, 42, 0
1, 24745, Note_on_c, 0, 42, 0
1, 24745, Note_on_c, 0, 54, 79
1, 24745, Note_on_c, 0, 64, 80
1, 24745, Note_on_c, 0, 59, 61
1, 24745, Note_on_c, 0, 68, 59
1, 24753, Note_on_c, 0, 59, 0
1, 24754, Note_on_c, 0, 54, 0
1, 24758, Note_on_c, 0, 68, 0
1, 24760, Note_on_c, 0, 64, 0
1, 24765, Note_on_c, 2, 92, 0
1, 24765, Note_on_c, 2, 64, 0
1, 24766, Note_on_c, 1, 30, 0
1, 24767, Note_on_c, 2, 94, 75
1, 24768, Note_on_c, 2, 59, 0
1, 24768, Note_on_c, 9, 40, 115
1, 24768, Note_on_c, 9, 42, 101
1, 24769, Note_on_c, 9, 42, 0
1, 24769, Note_on_c, 2, 56, 0
1, 24769, Note_on_c, 9, 40, 0
1, 24769, Note_on_c, 0, 58, 116
1, 24769, Note_on_c, 0, 61, 107
1, 24769, Note_on_c, 0, 64, 104
1, 24769, Note_on_c, 0, 42, 113
1, 24769, Note_on_c, 0, 66, 101
1, 24769, Note_on_c, 2, 58, 81
1, 24769, Note_on_c, 2, 54, 83
1, 24769, Note_on_c, 2, 61, 81
1, 24792, Note_on_c, 1, 37, 119
1, 24792, Note_on_c, 8, 42, 127
1, 24792, Note_on_c, 9, 46, 83
1, 24792, Note_on_c, 9, 35, 115
1, 24792, Note_on_c, 10, 68, 114
1, 24792, Note_on_c, 10, 71, 109
1, 24793, Note_on_c, 9, 35, 0
1, 24793, Note_on_c, 9, 46, 0
1, 24808, Note_on_c, 10, 68, 0
1, 24810, Note_on_c, 8, 42, 0
1, 24811, Note_on_c, 10, 71, 0
1, 24815, Note_on_c, 1, 37, 0
1, 24816, Note_on_c, 9, 42, 89
1, 24817, Note_on_c, 9, 42, 0
1, 24817, Note_on_c, 0, 54, 119
1, 24820, Note_on_c, 0, 64, 0
1, 24822, Note_on_c, 0, 66, 0
1, 24823, Note_on_c, 0, 61, 0
1, 24827, Note_on_c, 0, 58, 0
1, 24839, Note_on_c, 11, 68, 0
1, 24839, Note_on_c, 8, 35, 123
1, 24839, Note_on_c, 11, 66, 106
1, 24840, Note_on_c, 1, 35, 119
1, 24840, Note_on_c, 9, 35, 81
1, 24840, Note_on_c, 9, 46, 92
1, 24841, Note_on_c, 9, 46, 0
1, 24841, Note_on_c, 9, 35, 0
1, 24841, Note_on_c, 10, 73, 111
1, 24841, Note_on_c, 10, 70, 114
1, 24852, Note_on_c, 0, 54, 0
1, 24855, Note_on_c, 10, 70, 0
1, 24857, Note_on_c, 10, 73, 0
1, 24857, Note_on_c, 8, 35, 0
1, 24858, Note_on_c, 0, 42, 0
1, 24861, Note_on_c, 11, 66, 0
1, 24861, Note_on_c, 2, 94, 0
1, 24863, Note_on_c, 0, 59, 98
1, 24863, Note_on_c, 0, 54, 116
1, 24863, Note_on_c, 0, 47, 97
1, 24863, Note_on_c, 0, 58, 101
1, 24863, Note_on_c, 0, 63, 107
1, 24863, Note_on_c, 2, 90, 83
1, 24864, Note_on_c, 2, 61, 0
1, 24864, Note_on_c, 9, 42, 77
1, 24864, Note_on_c, 9, 35, 115
1, 24865, Note_on_c, 9, 35, 0
1, 24865, Note_on_c, 9, 42, 0
1, 24865, Note_on_c, 2, 63, 82
1, 24865, Note_on_c, 11, 66, 95
1, 24869, Note_on_c, 1, 35, 0
1, 24888, Note_on_c, 9, 46, 110
1, 24889, Note_on_c, 9, 46, 0
1, 24891, Note_on_c, 9, 40, 92
1, 24892, Note_on_c, 9, 40, 0
1, 24901, Note_on_c, 9, 40, 105
1, 24902, Note_on_c, 9, 40, 0
1, 24912, Note_on_c, 1, 30, 119
1, 24912, Note_on_c, 9, 40, 115
1, 24913, Note_on_c, 9, 40, 0
1, 24936, Note_on_c, 1, 32, 118
1, 24936, Note_on_c, 9, 40, 112
1, 24937, Note_on_c, 9, 40, 0
1, 24937, Note_on_c, 1, 30, 0
1, 24955, Note_on_c, 1, 32, 0
1, 24960, Note_on_c, 1, 35, 118
1, 24960, Note_on_c, 9, 47, 115
1, 24961, Note_on_c, 9, 47, 0
1, 24975, Note_on_c, 11, 66, 0
1, 24984, Note_on_c, 9, 45, 115
1, 24985, Note_on_c, 9, 45, 0
1, 24996, Note_on_c, 1, 35, 0
1, 25008, Note_on_c, 1, 35, 118
1, 25008, Note_on_c, 9, 40, 115
1, 25009, Note_on_c, 9, 40, 0
1, 25013, Note_on_c, 0, 54, 0
1, 25014, Note_on_c, 0, 59, 0
1, 25014, Note_on_c, 0, 58, 0
1, 25015, Note_on_c, 0, 47, 0
1, 25016, Note_on_c, 0, 63, 0
1, 25021, Note_on_c, 1, 35, 0
1, 25032, Note_on_c, 1, 35, 118
1, 25032, Note_on_c, 9, 35, 115
1, 25033, Note_on_c, 9, 35, 0
1, 25045, Note_on_c, 2, 54, 0
1, 25045, Note_on_c, 1, 35, 0
1, 25048, Note_on_c, 2, 58, 0
1, 25054, Note_on_c, 2, 90, 0
1, 25055, Note_on_c, 2, 88, 94
1, 25056, Note_on_c, 2, 63, 0
1, 25056, Note_on_c, 0, 49, 116
1, 25056, Note_on_c, 0, 61, 104
1, 25056, Note_on_c, 0, 37, 97
1, 25056, Note_on_c, 0, 64, 117
1, 25056, Note_on_c, 0, 56, 119
1, 25056, Note_on_c, 1, 37, 118
1, 25056, Note_on_c, 2, 56, 84
1, 25056, Note_on_c, 2, 61, 84
1, 25056, Note_on_c, 3, 71, 118
1, 25056, Note_on_c, 4, 68, 47
1, 25056, Note_on_c, 4, 71, 97
1, 25056, Note_on_c, 4, 64, 47
1, 25056, Note_on_c, 7, 76, 114
1, 25056, Note_on_c, 9, 35, 115
1, 25057, Note_on_c, 9, 35, 0
1, 25057, Note_on_c, 0, 59, 110
1, 25057, Note_on_c, 2, 52, 83
1, 25057, Note_on_c, 9, 49, 77
1, 25058, Note_on_c, 9, 49, 0
1, 25058, Note_on_c, 7, 80, 105
1, 25058, Note_on_c, 8, 37, 113
1, 25093, Note_on_c, 1, 37, 0
1, 25098, Note_on_c, 3, 71, 0
1, 25104, Note_on_c, 4, 68, 0
1, 25104, Note_on_c, 4, 71, 0
1, 25104, Note_on_c, 4, 64, 0
1, 25104, Note_on_c, 1, 35, 119
1, 25104, Note_on_c, 3, 70, 104
1, 25104, Note_on_c, 4, 66, 48
1, 25104, Note_on_c, 4, 63, 48
1, 25104, Note_on_c, 4, 70, 62
1, 25104, Note_on_c, 9, 42, 91
1, 25104, Note_on_c, 9, 35, 78
1, 25105, Note_on_c, 9, 35, 0
1, 25105, Note_on_c, 9, 42, 0
1, 25124, Note_on_c, 3, 70, 0
1, 25126, Note_on_c, 1, 35, 0
1, 25128, Note_on_c, 4, 66, 0
1, 25128, Note_on_c, 4, 70, 0
1, 25128, Note_on_c, 4, 63, 0
1, 25128, Note_on_c, 1, 37, 119
1, 25128, Note_on_c, 4, 68, 47
1, 25128, Note_on_c, 4, 64, 47
1, 25128, Note_on_c, 4, 71, 82
1, 25128, Note_on_c, 9, 35, 94
1, 25129, Note_on_c, 9, 35, 0
1, 25129, Note_on_c, 3, 71, 101
1, 25135, Note_on_c, 0, 56, 0
1, 25135, Note_on_c, 0, 59, 0
1, 25138, Note_on_c, 0, 37, 0
1, 25139, Note_on_c, 0, 64, 0
1, 25141, Note_on_c, 0, 61, 0
1, 25141, Note_on_c, 0, 49, 0
1, 25145, Note_on_c, 2, 61, 0
1, 25147, Note_on_c, 2, 88, 0
1, 25148, Note_on_c, 7, 80, 0
1, 25148, Note_on_c, 2, 56, 0
1, 25149, Note_on_c, 8, 37, 0
1, 25149, Note_on_c, 7, 76, 0
1, 25151, Note_on_c, 2, 90, 93
1, 25152, Note_on_c, 1, 37, 0
1, 25152, Note_on_c, 4, 68, 0
1, 25152, Note_on_c, 4, 71, 0
1, 25152, Note_on_c, 4, 64, 0
1, 25152, Note_on_c, 3, 71, 0
1, 25152, Note_on_c, 2, 52, 0
1, 25152, Note_on_c, 1, 39, 119
1, 25152, Note_on_c, 2, 54, 90
1, 25152, Note_on_c, 2, 63, 94
1, 25152, Note_on_c, 2, 58, 81
1, 25152, Note_on_c, 4, 73, 97
1, 25152, Note_on_c, 4, 66, 47
1, 25152, Note_on_c, 4, 70, 47
1, 25152, Note_on_c, 9, 35, 115
1, 25153, Note_on_c, 9, 35, 0
1, 25153, Note_on_c, 0, 39, 97
1, 25153, Note_on_c, 0, 63, 116
1, 25153, Note_on_c, 0, 58, 113
1, 25153, Note_on_c, 0, 61, 127
1, 25153, Note_on_c, 0, 51, 119
1, 25153, Note_on_c, 0, 66, 113
1, 25153, Note_on_c, 3, 73, 114
1, 25153, Note_on_c, 9, 57, 77
1, 25154, Note_on_c, 9, 57, 0
1, 25154, Note_on_c, 7, 82, 117
1, 25154, Note_on_c, 8, 39, 127
1, 25156, Note_on_c, 7, 78, 127
1, 25195, Note_on_c, 3, 73, 0
1, 25200, Note_on_c, 4, 66, 0
1, 25200, Note_on_c, 4, 70, 0
1, 25200, Note_on_c, 4, 73, 0
1, 25200, Note_on_c, 1, 37, 119
1, 25200, Note_on_c, 4, 68, 50
1, 25200, Note_on_c, 4, 64, 50
1, 25200, Note_on_c, 4, 71, 74
1, 25200, Note_on_c, 9, 42, 89
1, 25200, Note_on_c, 9, 35, 94
1, 25201, Note_on_c, 9, 35, 0
1, 25201, Note_on_c, 9, 42, 0
1, 25201, Note_on_c, 3, 71, 108
1, 25203, Note_on_c, 1, 39, 0
1, 25223, Note_on_c, 1, 37, 0
1, 25224, Note_on_c, 4, 68, 0
1, 25224, Note_on_c, 4, 71, 0
1, 25224, Note_on_c, 4, 64, 0
1, 25224, Note_on_c, 1, 39, 119
1, 25224, Note_on_c, 4, 66, 50
1, 25224, Note_on_c, 4, 73, 89
1, 25224, Note_on_c, 4, 70, 50
1, 25224, Note_on_c, 9, 35, 115
1, 25225, Note_on_c, 9, 35, 0
1, 25225, Note_on_c, 0, 58, 0
1, 25225, Note_on_c, 0, 61, 0
1, 25225, Note_on_c, 3, 73, 104
1, 25226, Note_on_c, 0, 51, 0
1, 25227, Note_on_c, 0, 63, 0
1, 25227, Note_on_c, 3, 71, 0
1, 25228, Note_on_c, 0, 39, 0
1, 25232, Note_on_c, 0, 66, 0
1, 25239, Note_on_c, 7, 78, 0
1, 25243, Note_on_c, 7, 82, 0
1, 25243, Note_on_c, 2, 63, 0
1, 25243, Note_on_c, 2, 58, 0
1, 25243, Note_on_c, 2, 54, 0
1, 25246, Note_on_c, 1, 39, 0
1, 25246, Note_on_c, 2, 90, 0
1, 25247, Note_on_c, 3, 73, 0
1, 25248, Note_on_c, 4, 70, 0
1, 25248, Note_on_c, 4, 73, 0
1, 25248, Note_on_c, 4, 66, 0
1, 25248, Note_on_c, 1, 41, 117
1, 25248, Note_on_c, 7, 84, 121
1, 25248, Note_on_c, 7, 80, 100
1, 25248, Note_on_c, 9, 35, 115
1, 25248, Note_on_c, 9, 49, 83
1, 25249, Note_on_c, 9, 49, 0
1, 25249, Note_on_c, 8, 39, 0
1, 25249, Note_on_c, 9, 35, 0
1, 25249, Note_on_c, 3, 75, 114
1, 25249, Note_on_c, 4, 72, 69
1, 25249, Note_on_c, 4, 75, 97
1, 25249, Note_on_c, 4, 68, 69
1, 25250, Note_on_c, 2, 92, 82
1, 25250, Note_on_c, 2, 60, 81
1, 25250, Note_on_c, 2, 56, 84
1, 25250, Note_on_c, 2, 65, 81
1, 25271, Note_on_c, 7, 84, 0
1, 25271, Note_on_c, 7, 80, 0
1, 25271, Note_on_c, 0, 65, 117
1, 25271, Note_on_c, 0, 68, 117
1, 25271, Note_on_c, 0, 60, 117
1, 25271, Note_on_c, 0, 63, 117
1, 25271, Note_on_c, 8, 60, 114
1, 25271, Note_on_c, 8, 65, 114
1, 25271, Note_on_c, 8, 68, 104
1, 25273, Note_on_c, 11, 67, 120
1, 25274, Note_on_c, 7, 83, 78
1, 25275, Note_on_c, 7, 81, 108
1, 25277, Note_on_c, 7, 83, 0
1, 25279, Note_on_c, 7, 79, 85
1, 25279, Note_on_c, 11, 68, 120
1, 25280, Note_on_c, 3, 75, 0
1, 25282, Note_on_c, 7, 81, 0
1, 25283, Note_on_c, 11, 67, 0
1, 25283, Note_on_c, 7, 77, 90
1, 25285, Note_on_c, 1, 41, 0
1, 25286, Note_on_c, 7, 79, 0
1, 25286, Note_on_c, 8, 60, 0
1, 25286, Note_on_c, 0, 60, 0
1, 25287, Note_on_c, 0, 63, 0
1, 25287, Note_on_c, 7, 76, 84
1, 25289, Note_on_c, 7, 77, 0
1, 25290, Note_on_c, 0, 68, 0
1, 25291, Note_on_c, 8, 68, 0
1, 25291, Note_on_c, 0, 65, 0
1, 25291, Note_on_c, 7, 74, 90
1, 25292, Note_on_c, 8, 65, 0
1, 25293, Note_on_c, 7, 76, 0
1, 25294, Note_on_c, 7, 72, 90
1, 25295, Note_on_c, 0, 63, 71
1, 25295, Note_on_c, 0, 67, 81
1, 25295, Note_on_c, 0, 58, 104
1, 25295, Note_on_c, 8, 67, 90
1, 25295, Note_on_c, 8, 58, 101
1, 25295, Note_on_c, 8, 63, 99
1, 25296, Note_on_c, 7, 74, 0
1, 25296, Note_on_c, 9, 42, 87
1, 25297, Note_on_c, 9, 42, 0
1, 25297, Note_on_c, 11, 60, 120
1, 25298, Note_on_c, 7, 71, 84
1, 25299, Note_on_c, 7, 72, 0
1, 25301, Note_on_c, 11, 68, 0
1, 25302, Note_on_c, 7, 71, 0
1, 25302, Note_on_c, 7, 69, 76
1, 25305, Note_on_c, 7, 69, 0
1, 25305, Note_on_c, 7, 67, 75
1, 25307, Note_on_c, 0, 63, 0
1, 25308, Note_on_c, 7, 67, 0
1, 25308, Note_on_c, 7, 65, 73
1, 25309, Note_on_c, 0, 58, 0
1, 25309, Note_on_c, 11, 67, 112
1, 25310, Note_on_c, 11, 60, 0
1, 25311, Note_on_c, 7, 65, 0
1, 25311, Note_on_c, 0, 67, 0
1, 25312, Note_on_c, 8, 63, 0
1, 25312, Note_on_c, 7, 64, 80
1, 25313, Note_on_c, 8, 67, 0
1, 25315, Note_on_c, 7, 64, 0
1, 25316, Note_on_c, 8, 58, 0
1, 25320, Note_on_c, 9, 42, 42
1, 25321, Note_on_c, 9, 42, 0
1, 25321, Note_on_c, 0, 41, 88
1, 25321, Note_on_c, 11, 68, 127
1, 25322, Note_on_c, 11, 67, 0
1, 25333, Note_on_c, 11, 65, 116
1, 25336, Note_on_c, 11, 68, 0
1, 25342, Note_on_c, 2, 92, 0
1, 25343, Note_on_c, 8, 65, 100
1, 25343, Note_on_c, 8, 56, 113
1, 25343, Note_on_c, 8, 60, 112
1, 25344, Note_on_c, 9, 40, 115
1, 25344, Note_on_c, 9, 42, 111
1, 25345, Note_on_c, 9, 42, 0
1, 25345, Note_on_c, 9, 40, 0
1, 25345, Note_on_c, 0, 65, 119
1, 25345, Note_on_c, 0, 68, 119
1, 25345, Note_on_c, 0, 63, 119
1, 25345, Note_on_c, 0, 60, 119
1, 25345, Note_on_c, 11, 60, 124
1, 25346, Note_on_c, 11, 65, 0
1, 25346, Note_on_c, 2, 92, 82
1, 25359, Note_on_c, 0, 65, 0
1, 25360, Note_on_c, 11, 60, 0
1, 25360, Note_on_c, 0, 41, 0
1, 25360, Note_on_c, 0, 63, 0
1, 25363, Note_on_c, 8, 60, 0
1, 25364, Note_on_c, 8, 65, 0
1, 25366, Note_on_c, 8, 56, 0
1, 25366, Note_on_c, 0, 60, 0
1, 25368, Note_on_c, 0, 68, 0
1, 25368, Note_on_c, 1, 41, 115
1, 25368, Note_on_c, 9, 42, 47
1, 25368, Note_on_c, 11, 62, 127
1, 25369, Note_on_c, 9, 42, 0
1, 25369, Note_on_c, 0, 41, 65
1, 25369, Note_on_c, 0, 53, 80
1, 25380, Note_on_c, 11, 60, 116
1, 25382, Note_on_c, 11, 62, 0
1, 25391, Note_on_c, 0, 67, 85
1, 25391, Note_on_c, 0, 58, 95
1, 25391, Note_on_c, 0, 63, 74
1, 25391, Note_on_c, 8, 67, 104
1, 25391, Note_on_c, 8, 63, 104
1, 25391, Note_on_c, 8, 58, 127
1, 25392, Note_on_c, 1, 39, 116
1, 25392, Note_on_c, 9, 42, 81
1, 25392, Note_on_c, 11, 58, 115
1, 25393, Note_on_c, 9, 42, 0
1, 25394, Note_on_c, 0, 41, 0
1, 25394, Note_on_c, 11, 60, 0
1, 25395, Note_on_c, 1, 41, 0
1, 25397, Note_on_c, 0, 53, 0
1, 25404, Note_on_c, 11, 58, 0
1, 25404, Note_on_c, 11, 57, 113
1, 25406, Note_on_c, 0, 58, 0
1, 25407, Note_on_c, 0, 63, 0
1, 25409, Note_on_c, 0, 67, 0
1, 25412, Note_on_c, 1, 39, 0
1, 25412, Note_on_c, 8, 67, 0
1, 25413, Note_on_c, 8, 63, 0
1, 25414, Note_on_c, 8, 58, 0
1, 25415, Note_on_c, 8, 68, 101
1, 25415, Note_on_c, 8, 65, 108
1, 25415, Note_on_c, 8, 60, 122
1, 25416, Note_on_c, 1, 32, 116
1, 25416, Note_on_c, 9, 42, 60
1, 25416, Note_on_c, 9, 35, 85
1, 25416, Note_on_c, 11, 56, 115
1, 25417, Note_on_c, 9, 35, 0
1, 25417, Note_on_c, 9, 42, 0
1, 25417, Note_on_c, 0, 60, 110
1, 25417, Note_on_c, 0, 63, 110
1, 25417, Note_on_c, 0, 65, 110
1, 25417, Note_on_c, 0, 68, 110
1, 25418, Note_on_c, 11, 57, 0
1, 25429, Note_on_c, 11, 58, 118
1, 25430, Note_on_c, 8, 65, 0
1, 25430, Note_on_c, 0, 63, 0
1, 25431, Note_on_c, 8, 60, 0
1, 25431, Note_on_c, 2, 56, 0
1, 25431, Note_on_c, 2, 60, 0
1, 25431, Note_on_c, 11, 56, 0
1, 25432, Note_on_c, 8, 68, 0
1, 25433, Note_on_c, 0, 65, 0
1, 25434, Note_on_c, 0, 60, 0
1, 25435, Note_on_c, 1, 32, 0
1, 25436, Note_on_c, 0, 68, 0
1, 25439, Note_on_c, 2, 92, 0
1, 25439, Note_on_c, 3, 75, 118
1, 25440, Note_on_c, 4, 75, 0
1, 25440, Note_on_c, 4, 68, 0
1, 25440, Note_on_c, 4, 72, 0
1, 25440, Note_on_c, 1, 34, 116
1, 25440, Note_on_c, 9, 35, 115
1, 25440, Note_on_c, 9, 42, 101
1, 25440, Note_on_c, 11, 60, 108
1, 25441, Note_on_c, 9, 42, 0
1, 25441, Note_on_c, 9, 35, 0
1, 25441, Note_on_c, 0, 46, 107
1, 25441, Note_on_c, 4, 72, 42
1, 25441, Note_on_c, 4, 68, 74
1, 25441, Note_on_c, 4, 75, 97
1, 25441, Note_on_c, 4, 63, 42
1, 25442, Note_on_c, 2, 92, 83
1, 25444, Note_on_c, 11, 58, 0
1, 25445, Note_on_c, 2, 61, 84
1, 25445, Note_on_c, 2, 58, 85
1, 25450, Note_on_c, 0, 46, 0
1, 25455, Note_on_c, 11, 60, 0
1, 25456, Note_on_c, 1, 34, 0
1, 25458, Note_on_c, 3, 75, 0
1, 25462, Note_on_c, 11, 67, 123
1, 25463, Note_on_c, 3, 75, 90
1, 25464, Note_on_c, 4, 75, 0
1, 25464, Note_on_c, 4, 68, 0
1, 25464, Note_on_c, 4, 63, 0
1, 25464, Note_on_c, 4, 72, 0
1, 25464, Note_on_c, 0, 46, 99
1, 25464, Note_on_c, 1, 34, 116
1, 25464, Note_on_c, 9, 42, 55
1, 25465, Note_on_c, 9, 42, 0
1, 25465, Note_on_c, 4, 63, 43
1, 25465, Note_on_c, 4, 68, 74
1, 25465, Note_on_c, 4, 75, 71
1, 25465, Note_on_c, 4, 72, 43
1, 25469, Note_on_c, 0, 46, 0
1, 25475, Note_on_c, 11, 67, 0
1, 25477, Note_on_c, 11, 65, 102
1, 25479, Note_on_c, 3, 75, 0
1, 25484, Note_on_c, 1, 34, 0
1, 25487, Note_on_c, 3, 75, 95
1, 25488, Note_on_c, 4, 68, 0
1, 25488, Note_on_c, 4, 63, 0
1, 25488, Note_on_c, 4, 75, 0
1, 25488, Note_on_c, 4, 72, 0
1, 25488, Note_on_c, 9, 42, 81
1, 25488, Note_on_c, 11, 70, 117
1, 25489, Note_on_c, 9, 42, 0
1, 25489, Note_on_c, 11, 65, 0
1, 25489, Note_on_c, 4, 72, 43
1, 25489, Note_on_c, 4, 68, 74
1, 25489, Note_on_c, 4, 75, 74
1, 25489, Note_on_c, 4, 63, 43
1, 25502, Note_on_c, 11, 70, 0
1, 25504, Note_on_c, 11, 68, 114
1, 25508, Note_on_c, 3, 75, 0
1, 25511, Note_on_c, 0, 46, 82
1, 25511, Note_on_c, 3, 73, 107
1, 25512, Note_on_c, 1, 34, 115
1, 25512, Note_on_c, 9, 42, 73
1, 25513, Note_on_c, 9, 42, 0
1, 25513, Note_on_c, 4, 68, 0
1, 25513, Note_on_c, 4, 63, 0
1, 25513, Note_on_c, 4, 75, 0
1, 25513, Note_on_c, 4, 72, 0
1, 25513, Note_on_c, 4, 61, 43
1, 25513, Note_on_c, 4, 73, 90
1, 25513, Note_on_c, 4, 65, 74
1, 25513, Note_on_c, 4, 70, 43
1, 25518, Note_on_c, 0, 46, 0
1, 25535, Note_on_c, 2, 92, 0
1, 25536, Note_on_c, 9, 42, 101
1, 25536, Note_on_c, 9, 40, 115
1, 25537, Note_on_c, 9, 40, 0
1, 25537, Note_on_c, 9, 42, 0
1, 25538, Note_on_c, 2, 92, 84
1, 25540, Note_on_c, 1, 34, 0
1, 25542, Note_on_c, 11, 68, 0
1, 25559, Note_on_c, 0, 65, 127
1, 25559, Note_on_c, 0, 58, 123
1, 25559, Note_on_c, 0, 68, 116
1, 25559, Note_on_c, 0, 61, 119
1, 25559, Note_on_c, 0, 46, 119
1, 25560, Note_on_c, 1, 34, 115
1, 25560, Note_on_c, 9, 35, 115
1, 25560, Note_on_c, 9, 46, 95
1, 25561, Note_on_c, 9, 46, 0
1, 25561, Note_on_c, 9, 35, 0
1, 25566, Note_on_c, 3, 73, 0
1, 25567, Note_on_c, 0, 46, 0
1, 25574, Note_on_c, 0, 65, 0
1, 25582, Note_on_c, 0, 61, 0
1, 25583, Note_on_c, 0, 68, 0
1, 25584, Note_on_c, 0, 58, 0
1, 25584, Note_on_c, 3, 75, 118
1, 25584, Note_on_c, 9, 42, 85
1, 25585, Note_on_c, 9, 42, 0
1, 25585, Note_on_c, 4, 65, 0
1, 25585, Note_on_c, 4, 73, 0
1, 25585, Note_on_c, 4, 61, 0
1, 25585, Note_on_c, 4, 70, 0
1, 25585, Note_on_c, 4, 63, 41
1, 25585, Note_on_c, 4, 75, 97
1, 25585, Note_on_c, 4, 72, 41
1, 25585, Note_on_c, 4, 68, 74
1, 25590, Note_on_c, 1, 34, 0
1, 25603, Note_on_c, 3, 75, 0
1, 25607, Note_on_c, 0, 61, 119
1, 25607, Note_on_c, 0, 58, 116
1, 25607, Note_on_c, 0, 66, 123
1, 25608, Note_on_c, 0, 39, 89
1, 25608, Note_on_c, 0, 51, 107
1, 25608, Note_on_c, 1, 39, 115
1, 25608, Note_on_c, 3, 77, 113
1, 25608, Note_on_c, 9, 46, 97
1, 25608, Note_on_c, 9, 35, 85
1, 25608, Note_on_c, 10, 73, 111
1, 25608, Note_on_c, 10, 77, 122
1, 25609, Note_on_c, 9, 35, 0
1, 25609, Note_on_c, 9, 46, 0
1, 25609, Note_on_c, 4, 72, 0
1, 25609, Note_on_c, 4, 75, 0
1, 25609, Note_on_c, 4, 68, 0
1, 25609, Note_on_c, 4, 63, 0
1, 25609, Note_on_c, 4, 77, 87
1, 25609, Note_on_c, 4, 65, 41
1, 25609, Note_on_c, 4, 70, 74
1, 25609, Note_on_c, 4, 73, 41
1, 25623, Note_on_c, 10, 73, 0
1, 25624, Note_on_c, 10, 77, 0
1, 25626, Note_on_c, 0, 61, 0
1, 25627, Note_on_c, 2, 65, 0
1, 25628, Note_on_c, 0, 58, 0
1, 25628, Note_on_c, 0, 66, 0
1, 25628, Note_on_c, 0, 39, 0
1, 25629, Note_on_c, 2, 92, 0
1, 25631, Note_on_c, 2, 61, 0
1, 25631, Note_on_c, 3, 77, 0
1, 25632, Note_on_c, 0, 51, 0
1, 25632, Note_on_c, 2, 58, 0
1, 25632, Note_on_c, 9, 42, 79
1, 25632, Note_on_c, 9, 35, 115
1, 25633, Note_on_c, 9, 35, 0
1, 25633, Note_on_c, 9, 42, 0
1, 25633, Note_on_c, 2, 54, 81
1, 25634, Note_on_c, 1, 39, 0
1, 25634, Note_on_c, 2, 92, 83
1, 25634, Note_on_c, 2, 65, 82
1, 25635, Note_on_c, 2, 58, 89
1, 25645, Note_on_c, 11, 65, 127
1, 25654, Note_on_c, 11, 65, 0
1, 25655, Note_on_c, 0, 61, 113
1, 25655, Note_on_c, 0, 58, 107
1, 25655, Note_on_c, 0, 66, 119
1, 25655, Note_on_c, 8, 58, 119
1, 25655, Note_on_c, 8, 66, 110
1, 25655, Note_on_c, 8, 63, 110
1, 25655, Note_on_c, 11, 68, 126
1, 25656, Note_on_c, 9, 42, 63
1, 25657, Note_on_c, 9, 42, 0
1, 25665, Note_on_c, 11, 68, 0
1, 25668, Note_on_c, 8, 63, 0
1, 25668, Note_on_c, 11, 66, 111
1, 25669, Note_on_c, 0, 61, 0
1, 25669, Note_on_c, 0, 58, 0
1, 25670, Note_on_c, 8, 66, 0
1, 25671, Note_on_c, 0, 66, 0
1, 25671, Note_on_c, 8, 58, 0
1, 25679, Note_on_c, 8, 65, 97
1, 25679, Note_on_c, 8, 56, 110
1, 25679, Note_on_c, 8, 61, 97
1, 25680, Note_on_c, 11, 66, 0
1, 25680, Note_on_c, 9, 42, 107
1, 25681, Note_on_c, 9, 42, 0
1, 25681, Note_on_c, 0, 65, 106
1, 25681, Note_on_c, 0, 61, 95
1, 25681, Note_on_c, 0, 56, 107
1, 25682, Note_on_c, 11, 68, 98
1, 25692, Note_on_c, 11, 70, 108
1, 25693, Note_on_c, 0, 61, 0
1, 25694, Note_on_c, 11, 68, 0
1, 25695, Note_on_c, 0, 65, 0
1, 25696, Note_on_c, 0, 56, 0
1, 25697, Note_on_c, 8, 61, 0
1, 25700, Note_on_c, 11, 70, 0
1, 25700, Note_on_c, 8, 56, 0
1, 25700, Note_on_c, 8, 65, 0
1, 25702, Note_on_c, 11, 72, 117
1, 25704, Note_on_c, 1, 34, 114
1, 25704, Note_on_c, 9, 42, 72
1, 25705, Note_on_c, 9, 42, 0
1, 25705, Note_on_c, 0, 39, 85
1, 25711, Note_on_c, 0, 39, 0
1, 25712, Note_on_c, 11, 72, 0
1, 25715, Note_on_c, 11, 73, 126
1, 25723, Note_on_c, 1, 34, 0
1, 25726, Note_on_c, 11, 73, 0
1, 25726, Note_on_c, 2, 92, 0
1, 25727, Note_on_c, 8, 54, 104
1, 25727, Note_on_c, 8, 63, 104
1, 25727, Note_on_c, 8, 58, 104
1, 25727, Note_on_c, 11, 72, 113
1, 25728, Note_on_c, 1, 39, 114
1, 25728, Note_on_c, 9, 40, 115
1, 25728, Note_on_c, 9, 42, 76
1, 25729, Note_on_c, 9, 42, 0
1, 25729, Note_on_c, 4, 73, 0
1, 25729, Note_on_c, 4, 65, 0
1, 25729, Note_on_c, 9, 40, 0
1, 25729, Note_on_c, 4, 77, 0
1, 25729, Note_on_c, 4, 70, 0
1, 25729, Note_on_c, 0, 66, 127
1, 25729, Note_on_c, 0, 61, 127
1, 25729, Note_on_c, 0, 58, 119
1, 25730, Note_on_c, 2, 92, 83
1, 25736, Note_on_c, 11, 72, 0
1, 25738, Note_on_c, 11, 68, 111
1, 25743, Note_on_c, 0, 61, 0
1, 25744, Note_on_c, 0, 58, 0
1, 25746, Note_on_c, 8, 58, 0
1, 25747, Note_on_c, 0, 66, 0
1, 25747, Note_on_c, 1, 39, 0
1, 25748, Note_on_c, 8, 63, 0
1, 25748, Note_on_c, 11, 68, 0
1, 25750, Note_on_c, 11, 70, 117
1, 25752, Note_on_c, 0, 39, 85
1, 25752, Note_on_c, 1, 27, 114
1, 25752, Note_on_c, 9, 42, 70
1, 25753, Note_on_c, 9, 42, 0
1, 25757, Note_on_c, 8, 54, 0
1, 25763, Note_on_c, 11, 66, 111
1, 25766, Note_on_c, 11, 70, 0
1, 25773, Note_on_c, 11, 66, 0
1, 25773, Note_on_c, 1, 27, 0
1, 25773, Note_on_c, 0, 39, 0
1, 25775, Note_on_c, 0, 68, 107
1, 25775, Note_on_c, 0, 65, 106
1, 25775, Note_on_c, 0, 61, 110
1, 25775, Note_on_c, 8, 65, 114
1, 25775, Note_on_c, 8, 56, 119
1, 25775, Note_on_c, 8, 61, 110
1, 25776, Note_on_c, 1, 29, 116
1, 25776, Note_on_c, 9, 42, 72
1, 25776, Note_on_c, 11, 65, 105
1, 25777, Note_on_c, 9, 42, 0
1, 25777, Note_on_c, 0, 51, 104
1, 25787, Note_on_c, 0, 51, 0
1, 25788, Note_on_c, 8, 61, 0
1, 25790, Note_on_c, 0, 65, 0
1, 25791, Note_on_c, 0, 61, 0
1, 25793, Note_on_c, 0, 68, 0
1, 25796, Note_on_c, 8, 65, 0
1, 25799, Note_on_c, 3, 68, 86
1, 25800, Note_on_c, 1, 30, 116
1, 25800, Note_on_c, 8, 66, 104
1, 25800, Note_on_c, 8, 63, 95
1, 25800, Note_on_c, 9, 35, 86
1, 25800, Note_on_c, 9, 42, 73
1, 25801, Note_on_c, 9, 42, 0
1, 25801, Note_on_c, 9, 35, 0
1, 25801, Note_on_c, 0, 58, 107
1, 25801, Note_on_c, 0, 66, 95
1, 25801, Note_on_c, 0, 61, 104
1, 25801, Note_on_c, 0, 44, 78
1, 25801, Note_on_c, 4, 68, 89
1, 25801, Note_on_c, 8, 58, 113
1, 25802, Note_on_c, 11, 68, 101
1, 25803, Note_on_c, 1, 29, 0
1, 25805, Note_on_c, 8, 56, 0
1, 25807, Note_on_c, 11, 65, 0
1, 25811, Note_on_c, 0, 44, 0
1, 25812, Note_on_c, 3, 68, 0
1, 25813, Note_on_c, 8, 58, 0
1, 25814, Note_on_c, 8, 63, 0
1, 25814, Note_on_c, 8, 66, 0
1, 25818, Note_on_c, 0, 61, 0
1, 25819, Note_on_c, 0, 66, 0
1, 25821, Note_on_c, 0, 58, 0
1, 25822, Note_on_c, 1, 30, 0
1, 25823, Note_on_c, 2, 92, 0
1, 25823, Note_on_c, 2, 61, 86
1, 25823, Note_on_c, 3, 77, 118
1, 25824, Note_on_c, 1, 32, 116
1, 25824, Note_on_c, 9, 35, 115
1, 25824, Note_on_c, 9, 42, 115
1, 25825, Note_on_c, 9, 42, 0
1, 25825, Note_on_c, 9, 35, 0
1, 25825, Note_on_c, 4, 68, 0
1, 25825, Note_on_c, 4, 65, 52
1, 25825, Note_on_c, 4, 77, 92
1, 25825, Note_on_c, 4, 73, 52
1, 25825, Note_on_c, 4, 70, 89
1, 25826, Note_on_c, 2, 65, 0
1, 25826, Note_on_c, 2, 92, 84
1, 25839, Note_on_c, 11, 68, 0
1, 25842, Note_on_c, 3, 77, 0
1, 25844, Note_on_c, 1, 32, 0
1, 25848, Note_on_c, 4, 77, 0
1, 25848, Note_on_c, 4, 73, 0
1, 25848, Note_on_c, 4, 65, 0
1, 25848, Note_on_c, 4, 70, 0
1, 25848, Note_on_c, 3, 77, 103
1, 25848, Note_on_c, 9, 42, 69
1, 25849, Note_on_c, 9, 42, 0
1, 25849, Note_on_c, 0, 61, 89
1, 25849, Note_on_c, 0, 66, 97
1, 25849, Note_on_c, 0, 58, 85
1, 25849, Note_on_c, 4, 73, 52
1, 25849, Note_on_c, 4, 65, 52
1, 25849, Note_on_c, 4, 77, 64
1, 25849, Note_on_c, 4, 70, 89
1, 25856, Note_on_c, 0, 61, 0
1, 25861, Note_on_c, 0, 58, 0
1, 25861, Note_on_c, 0, 66, 0
1, 25863, Note_on_c, 3, 77, 0
1, 25872, Note_on_c, 4, 73, 0
1, 25872, Note_on_c, 4, 77, 0
1, 25872, Note_on_c, 4, 65, 0
1, 25872, Note_on_c, 4, 70, 0
1, 25872, Note_on_c, 3, 77, 103
1, 25872, Note_on_c, 9, 42, 107
1, 25873, Note_on_c, 9, 42, 0
1, 25873, Note_on_c, 4, 77, 97
1, 25873, Note_on_c, 4, 65, 52
1, 25873, Note_on_c, 4, 73, 52
1, 25873, Note_on_c, 4, 70, 89
1, 25891, Note_on_c, 3, 77, 0
1, 25896, Note_on_c, 1, 32, 114
1, 25896, Note_on_c, 3, 75, 114
1, 25896, Note_on_c, 9, 42, 72
1, 25897, Note_on_c, 9, 42, 0
1, 25897, Note_on_c, 4, 70, 0
1, 25897, Note_on_c, 4, 73, 0
1, 25897, Note_on_c, 4, 65, 0
1, 25897, Note_on_c, 4, 77, 0
1, 25897, Note_on_c, 0, 44, 107
1, 25897, Note_on_c, 4, 63, 52
1, 25897, Note_on_c, 4, 75, 97
1, 25897, Note_on_c, 4, 68, 89
1, 25897, Note_on_c, 4, 72, 52
1, 25901, Note_on_c, 0, 44, 0
1, 25910, Note_on_c, 2, 58, 0
1, 25910, Note_on_c, 1, 32, 0
1, 25918, Note_on_c, 2, 92, 0
1, 25919, Note_on_c, 0, 61, 97
1, 25919, Note_on_c, 0, 66, 107
1, 25919, Note_on_c, 0, 58, 97
1, 25920, Note_on_c, 2, 61, 0
1, 25920, Note_on_c, 1, 32, 114
1, 25920, Note_on_c, 9, 42, 101
1, 25920, Note_on_c, 9, 40, 115
1, 25921, Note_on_c, 9, 40, 0
1, 25921, Note_on_c, 9, 42, 0
1, 25921, Note_on_c, 0, 44, 101
1, 25921, Note_on_c, 2, 60, 84
1, 25921, Note_on_c, 2, 63, 80
1, 25921, Note_on_c, 2, 56, 80
1, 25922, Note_on_c, 2, 54, 0
1, 25922, Note_on_c, 2, 92, 84
1, 25925, Note_on_c, 0, 44, 0
1, 25925, Note_on_c, 0, 61, 0
1, 25926, Note_on_c, 0, 66, 0
1, 25927, Note_on_c, 0, 58, 0
1, 25939, Note_on_c, 1, 32, 0
1, 25944, Note_on_c, 1, 32, 114
1, 25944, Note_on_c, 9, 35, 115
1, 25944, Note_on_c, 9, 46, 94
1, 25945, Note_on_c, 9, 46, 0
1, 25945, Note_on_c, 9, 35, 0
1, 25945, Note_on_c, 0, 58, 119
1, 25945, Note_on_c, 0, 66, 127
1, 25945, Note_on_c, 0, 61, 123
1, 25945, Note_on_c, 0, 44, 101
1, 25947, Note_on_c, 10, 73, 122
1, 25947, Note_on_c, 10, 70, 122
1, 25951, Note_on_c, 0, 44, 0
1, 25954, Note_on_c, 3, 75, 0
1, 25956, Note_on_c, 10, 70, 0
1, 25959, Note_on_c, 0, 61, 0
1, 25964, Note_on_c, 0, 58, 0
1, 25965, Note_on_c, 0, 66, 0
1, 25966, Note_on_c, 10, 73, 0
1, 25968, Note_on_c, 3, 73, 107
1, 25968, Note_on_c, 9, 42, 83
1, 25969, Note_on_c, 9, 42, 0
1, 25969, Note_on_c, 4, 72, 0
1, 25969, Note_on_c, 4, 63, 0
1, 25969, Note_on_c, 4, 68, 0
1, 25969, Note_on_c, 4, 75, 0
1, 25969, Note_on_c, 4, 66, 89
1, 25969, Note_on_c, 4, 61, 49
1, 25969, Note_on_c, 4, 70, 49
1, 25969, Note_on_c, 4, 73, 93
1, 25973, Note_on_c, 1, 32, 0
1, 25986, Note_on_c, 3, 73, 0
1, 25988, Note_on_c, 2, 56, 0
1, 25990, Note_on_c, 2, 60, 0
1, 25990, Note_on_c, 2, 63, 0
1, 25990, Note_on_c, 2, 64, 82
1, 25990, Note_on_c, 2, 56, 82
1, 25991, Note_on_c, 0, 68, 101
1, 25991, Note_on_c, 0, 37, 89
1, 25991, Note_on_c, 0, 64, 110
1, 25991, Note_on_c, 0, 59, 106
1, 25991, Note_on_c, 2, 61, 80
1, 25992, Note_on_c, 1, 37, 113
1, 25992, Note_on_c, 9, 46, 97
1, 25992, Note_on_c, 9, 35, 113
1, 25993, Note_on_c, 9, 35, 0
1, 25993, Note_on_c, 4, 66, 0
1, 25993, Note_on_c, 4, 70, 0
1, 25993, Note_on_c, 4, 73, 0
1, 25993, Note_on_c, 9, 46, 0
1, 25993, Note_on_c, 4, 61, 0
1, 25993, Note_on_c, 0, 49, 99
1, 25993, Note_on_c, 3, 75, 107
1, 25993, Note_on_c, 4, 71, 49
1, 25993, Note_on_c, 4, 75, 89
1, 25993, Note_on_c, 4, 63, 49
1, 25993, Note_on_c, 4, 68, 89
1, 25994, Note_on_c, 10, 71, 122
1, 25994, Note_on_c, 10, 75, 122
1, 25998, Note_on_c, 0, 49, 0
1, 25999, Note_on_c, 0, 37, 0
1, 26009, Note_on_c, 0, 64, 0
1, 26012, Note_on_c, 10, 75, 0
1, 26012, Note_on_c, 0, 68, 0
1, 26013, Note_on_c, 0, 59, 0
1, 26014, Note_on_c, 3, 75, 0
1, 26015, Note_on_c, 2, 92, 0
1, 26015, Note_on_c, 10, 71, 0
1, 26016, Note_on_c, 9, 42, 73
1, 26016, Note_on_c, 9, 35, 113
1, 26017, Note_on_c, 9, 35, 0
1, 26017, Note_on_c, 9, 42, 0
1, 26018, Note_on_c, 2, 92, 83
1, 26019, Note_on_c, 1, 37, 0
1, 26039, Note_on_c, 8, 64, 112
1, 26039, Note_on_c, 8, 56, 102
1, 26040, Note_on_c, 0, 64, 120
1, 26040, Note_on_c, 0, 59, 108
1, 26040, Note_on_c, 8, 61, 87
1, 26040, Note_on_c, 9, 42, 70
1, 26040, Note_on_c, 11, 73, 102
1, 26041, Note_on_c, 9, 42, 0
1, 26041, Note_on_c, 0, 68, 116
1, 26041, Note_on_c, 0, 37, 85
1, 26041, Note_on_c, 0, 49, 99
1, 26042, Note_on_c, 8, 61, 0
1, 26046, Note_on_c, 0, 49, 0
1, 26046, Note_on_c, 0, 37, 0
1, 26050, Note_on_c, 11, 73, 0
1, 26051, Note_on_c, 11, 75, 106
1, 26052, Note_on_c, 8, 56, 0
1, 26052, Note_on_c, 0, 59, 0
1, 26056, Note_on_c, 8, 64, 0
1, 26056, Note_on_c, 0, 68, 0
1, 26058, Note_on_c, 0, 64, 0
1, 26063, Note_on_c, 11, 75, 0
1, 26063, Note_on_c, 8, 63, 95
1, 26063, Note_on_c, 8, 58, 95
1, 26063, Note_on_c, 8, 54, 97
1, 26063, Note_on_c, 11, 76, 120
1, 26064, Note_on_c, 0, 66, 87
1, 26064, Note_on_c, 0, 58, 113
1, 26064, Note_on_c, 0, 63, 97
1, 26064, Note_on_c, 1, 32, 112
1, 26064, Note_on_c, 9, 42, 98
1, 26065, Note_on_c, 9, 42, 0
1, 26077, Note_on_c, 11, 76, 0
1, 26080, Note_on_c, 11, 76, 114
1, 26081, Note_on_c, 8, 63, 0
1, 26081, Note_on_c, 8, 58, 0
1, 26082, Note_on_c, 0, 63, 0
1, 26083, Note_on_c, 0, 58, 0
1, 26084, Note_on_c, 0, 66, 0
1, 26086, Note_on_c, 8, 54, 0
1, 26087, Note_on_c, 0, 37, 85
1, 26088, Note_on_c, 1, 32, 0
1, 26088, Note_on_c, 1, 35, 112
1, 26088, Note_on_c, 9, 42, 87
1, 26089, Note_on_c, 9, 42, 0
1, 26090, Note_on_c, 11, 75, 104
1, 26093, Note_on_c, 11, 76, 0
1, 26094, Note_on_c, 0, 37, 0
1, 26098, Note_on_c, 11, 73, 106
1, 26103, Note_on_c, 11, 75, 0
1, 26109, Note_on_c, 1, 35, 0
1, 26111, Note_on_c, 2, 92, 0
1, 26111, Note_on_c, 8, 56, 113
1, 26111, Note_on_c, 8, 52, 108
1, 26111, Note_on_c, 8, 61, 110
1, 26112, Note_on_c, 11, 73, 0
1, 26112, Note_on_c, 0, 68, 116
1, 26112, Note_on_c, 0, 64, 122
1, 26112, Note_on_c, 0, 59, 114
1, 26112, Note_on_c, 1, 37, 112
1, 26112, Note_on_c, 9, 42, 72
1, 26112, Note_on_c, 9, 40, 115
1, 26112, Note_on_c, 11, 75, 114
1, 26113, Note_on_c, 9, 40, 0
1, 26113, Note_on_c, 9, 42, 0
1, 26113, Note_on_c, 4, 75, 0
1, 26113, Note_on_c, 4, 63, 0
1, 26113, Note_on_c, 4, 71, 0
1, 26113, Note_on_c, 4, 68, 0
1, 26114, Note_on_c, 2, 92, 82
1, 26128, Note_on_c, 8, 56, 0
1, 26128, Note_on_c, 8, 61, 0
1, 26134, Note_on_c, 0, 64, 0
1, 26135, Note_on_c, 8, 52, 0
1, 26135, Note_on_c, 0, 37, 95
1, 26136, Note_on_c, 0, 59, 0
1, 26136, Note_on_c, 9, 42, 60
1, 26137, Note_on_c, 9, 42, 0
1, 26138, Note_on_c, 1, 37, 0
1, 26139, Note_on_c, 0, 68, 0
1, 26158, Note_on_c, 0, 37, 0
1, 26159, Note_on_c, 0, 58, 110
1, 26159, Note_on_c, 8, 58, 110
1, 26159, Note_on_c, 8, 54, 116
1, 26159, Note_on_c, 8, 63, 107
1, 26160, Note_on_c, 0, 66, 99
1, 26160, Note_on_c, 0, 63, 113
1, 26160, Note_on_c, 1, 32, 112
1, 26160, Note_on_c, 9, 42, 85
1, 26161, Note_on_c, 9, 42, 0
1, 26161, Note_on_c, 0, 49, 99
1, 26171, Note_on_c, 0, 49, 0
1, 26178, Note_on_c, 0, 63, 0
1, 26179, Note_on_c, 0, 58, 0
1, 26179, Note_on_c, 1, 32, 0
1, 26180, Note_on_c, 0, 66, 0
1, 26180, Note_on_c, 8, 63, 0
1, 26181, Note_on_c, 8, 58, 0
1, 26183, Note_on_c, 8, 54, 0
1, 26183, Note_on_c, 3, 66, 84
1, 26184, Note_on_c, 1, 25, 112
1, 26184, Note_on_c, 9, 35, 82
1, 26184, Note_on_c, 9, 42, 83
1, 26185, Note_on_c, 9, 42, 0
1, 26185, Note_on_c, 9, 35, 0
1, 26185, Note_on_c, 0, 64, 104
1, 26185, Note_on_c, 0, 59, 104
1, 26185, Note_on_c, 0, 68, 104
1, 26185, Note_on_c, 4, 54, 47
1, 26185, Note_on_c, 4, 66, 86
1, 26185, Note_on_c, 8, 56, 113
1, 26185, Note_on_c, 8, 64, 112
1, 26185, Note_on_c, 8, 59, 106
1, 26189, Note_on_c, 11, 73, 105
1, 26190, Note_on_c, 11, 75, 0
1, 26196, Note_on_c, 3, 66, 0
1, 26198, Note_on_c, 11, 71, 103
1, 26200, Note_on_c, 8, 56, 0
1, 26200, Note_on_c, 8, 59, 0
1, 26201, Note_on_c, 11, 73, 0
1, 26201, Note_on_c, 8, 64, 0
1, 26206, Note_on_c, 2, 61, 0
1, 26206, Note_on_c, 2, 59, 83
1, 26207, Note_on_c, 0, 64, 0
1, 26207, Note_on_c, 0, 68, 0
1, 26207, Note_on_c, 2, 92, 0
1, 26207, Note_on_c, 3, 75, 118
1, 26207, Note_on_c, 11, 70, 99
1, 26208, Note_on_c, 1, 30, 112
1, 26208, Note_on_c, 9, 35, 115
1, 26208, Note_on_c, 9, 42, 115
1, 26209, Note_on_c, 9, 42, 0
1, 26209, Note_on_c, 4, 66, 0
1, 26209, Note_on_c, 4, 54, 0
1, 26209, Note_on_c, 9, 35, 0
1, 26209, Note_on_c, 0, 59, 0
1, 26209, Note_on_c, 0, 42, 119
1, 26209, Note_on_c, 4, 63, 48
1, 26209, Note_on_c, 4, 71, 48
1, 26209, Note_on_c, 4, 68, 48
1, 26209, Note_on_c, 4, 75, 97
1, 26210, Note_on_c, 2, 92, 82
1, 26211, Note_on_c, 1, 25, 0
1, 26213, Note_on_c, 11, 71, 0
1, 26232, Note_on_c, 9, 42, 55
1, 26233, Note_on_c, 9, 42, 0
1, 26233, Note_on_c, 0, 59, 92
1, 26233, Note_on_c, 0, 68, 81
1, 26233, Note_on_c, 0, 64, 97
1, 26234, Note_on_c, 11, 66, 90
1, 26240, Note_on_c, 1, 30, 0
1, 26241, Note_on_c, 3, 75, 0
1, 26242, Note_on_c, 11, 70, 0
1, 26255, Note_on_c, 3, 75, 114
1, 26256, Note_on_c, 4, 68, 0
1, 26256, Note_on_c, 4, 63, 0
1, 26256, Note_on_c, 4, 71, 0
1, 26256, Note_on_c, 4, 75, 0
1, 26256, Note_on_c, 9, 42, 83
1, 26257, Note_on_c, 9, 42, 0
1, 26257, Note_on_c, 4, 68, 48
1, 26257, Note_on_c, 4, 75, 97
1, 26257, Note_on_c, 4, 71, 48
1, 26257, Note_on_c, 4, 63, 48
1, 26272, Note_on_c, 3, 75, 0
1, 26273, Note_on_c, 0, 64, 0
1, 26273, Note_on_c, 0, 59, 0
1, 26274, Note_on_c, 0, 68, 0
1, 26280, Note_on_c, 1, 30, 113
1, 26280, Note_on_c, 3, 73, 118
1, 26280, Note_on_c, 9, 42, 83
1, 26281, Note_on_c, 9, 42, 0
1, 26281, Note_on_c, 4, 71, 0
1, 26281, Note_on_c, 4, 68, 0
1, 26281, Note_on_c, 0, 42, 0
1, 26281, Note_on_c, 4, 75, 0
1, 26281, Note_on_c, 4, 63, 0
1, 26281, Note_on_c, 0, 68, 59
1, 26281, Note_on_c, 0, 64, 80
1, 26281, Note_on_c, 0, 59, 61
1, 26281, Note_on_c, 0, 54, 79
1, 26281, Note_on_c, 4, 61, 48
1, 26281, Note_on_c, 4, 73, 97
1, 26281, Note_on_c, 4, 70, 48
1, 26281, Note_on_c, 4, 66, 48
1, 26282, Note_on_c, 11, 66, 0
1, 26289, Note_on_c, 0, 59, 0
1, 26290, Note_on_c, 0, 54, 0
1, 26292, Note_on_c, 1, 30, 0
1, 26294, Note_on_c, 0, 68, 0
1, 26296, Note_on_c, 0, 64, 0
1, 26301, Note_on_c, 2, 64, 0
1, 26301, Note_on_c, 2, 59, 0
1, 26301, Note_on_c, 2, 56, 0
1, 26303, Note_on_c, 2, 92, 0
1, 26304, Note_on_c, 1, 30, 113
1, 26304, Note_on_c, 2, 54, 81
1, 26304, Note_on_c, 9, 40, 115
1, 26304, Note_on_c, 9, 42, 101
1, 26305, Note_on_c, 9, 42, 0
1, 26305, Note_on_c, 9, 40, 0
1, 26305, Note_on_c, 0, 61, 107
1, 26305, Note_on_c, 0, 42, 113
1, 26305, Note_on_c, 0, 66, 101
1, 26305, Note_on_c, 0, 58, 116
1, 26305, Note_on_c, 0, 64, 104
1, 26305, Note_on_c, 2, 58, 80
1, 26306, Note_on_c, 2, 61, 84
1, 26306, Note_on_c, 2, 94, 82
1, 26323, Note_on_c, 1, 30, 0
1, 26328, Note_on_c, 1, 37, 113
1, 26328, Note_on_c, 8, 42, 127
1, 26328, Note_on_c, 9, 35, 115
1, 26328, Note_on_c, 9, 46, 83
1, 26328, Note_on_c, 10, 68, 122
1, 26328, Note_on_c, 10, 71, 122
1, 26329, Note_on_c, 9, 46, 0
1, 26329, Note_on_c, 9, 35, 0
1, 26333, Note_on_c, 3, 73, 0
1, 26341, Note_on_c, 11, 63, 90
1, 26344, Note_on_c, 10, 68, 0
1, 26346, Note_on_c, 8, 42, 0
1, 26347, Note_on_c, 10, 71, 0
1, 26351, Note_on_c, 3, 71, 105
1, 26352, Note_on_c, 9, 42, 89
1, 26353, Note_on_c, 9, 42, 0
1, 26353, Note_on_c, 4, 66, 0
1, 26353, Note_on_c, 4, 73, 0
1, 26353, Note_on_c, 4, 70, 0
1, 26353, Note_on_c, 4, 61, 0
1, 26353, Note_on_c, 0, 54, 119
1, 26353, Note_on_c, 4, 59, 49
1, 26353, Note_on_c, 4, 71, 92
1, 26353, Note_on_c, 4, 68, 49
1, 26353, Note_on_c, 4, 64, 48
1, 26353, Note_on_c, 11, 64, 92
1, 26354, Note_on_c, 1, 37, 0
1, 26355, Note_on_c, 11, 63, 0
1, 26356, Note_on_c, 0, 64, 0
1, 26358, Note_on_c, 0, 66, 0
1, 26359, Note_on_c, 0, 61, 0
1, 26363, Note_on_c, 0, 58, 0
1, 26365, Note_on_c, 11, 66, 95
1, 26368, Note_on_c, 11, 64, 0
1, 26369, Note_on_c, 3, 71, 0
1, 26375, Note_on_c, 8, 35, 123
1, 26376, Note_on_c, 1, 35, 114
1, 26376, Note_on_c, 3, 73, 110
1, 26376, Note_on_c, 9, 35, 97
1, 26376, Note_on_c, 9, 46, 92
1, 26377, Note_on_c, 9, 46, 0
1, 26377, Note_on_c, 9, 35, 0
1, 26377, Note_on_c, 4, 71, 0
1, 26377, Note_on_c, 4, 59, 0
1, 26377, Note_on_c, 4, 64, 0
1, 26377, Note_on_c, 4, 68, 0
1, 26377, Note_on_c, 4, 61, 49
1, 26377, Note_on_c, 4, 66, 48
1, 26377, Note_on_c, 4, 70, 49
1, 26377, Note_on_c, 4, 73, 97
1, 26377, Note_on_c, 10, 70, 122
1, 26377, Note_on_c, 10, 73, 122
1, 26377, Note_on_c, 11, 68, 100
1, 26380, Note_on_c, 11, 66, 0
1, 26388, Note_on_c, 0, 54, 0
1, 26388, Note_on_c, 11, 70, 104
1, 26391, Note_on_c, 11, 68, 0
1, 26391, Note_on_c, 10, 70, 0
1, 26393, Note_on_c, 10, 73, 0
1, 26393, Note_on_c, 8, 35, 0
1, 26394, Note_on_c, 0, 42, 0
1, 26397, Note_on_c, 2, 63, 83
1, 26398, Note_on_c, 2, 61, 0
1, 26399, Note_on_c, 0, 58, 101
1, 26399, Note_on_c, 0, 59, 98
1, 26399, Note_on_c, 0, 54, 116
1, 26399, Note_on_c, 0, 47, 97
1, 26399, Note_on_c, 0, 63, 107
1, 26399, Note_on_c, 2, 90, 83
1, 26400, Note_on_c, 9, 35, 105
1, 26400, Note_on_c, 9, 46, 91
1, 26401, Note_on_c, 9, 46, 0
1, 26401, Note_on_c, 9, 35, 0
1, 26401, Note_on_c, 2, 94, 0
1, 26401, Note_on_c, 11, 71, 110
1, 26402, Note_on_c, 11, 70, 0
1, 26407, Note_on_c, 3, 73, 0
1, 26412, Note_on_c, 11, 73, 114
1, 26415, Note_on_c, 11, 71, 0
1, 26423, Note_on_c, 3, 70, 118
1, 26424, Note_on_c, 4, 61, 0
1, 26424, Note_on_c, 4, 70, 0
1, 26424, Note_on_c, 4, 66, 0
1, 26424, Note_on_c, 9, 35, 106
1, 26424, Note_on_c, 9, 46, 98
1, 26425, Note_on_c, 9, 46, 0
1, 26425, Note_on_c, 9, 35, 0
1, 26425, Note_on_c, 4, 73, 0
1, 26425, Note_on_c, 4, 66, 49
1, 26425, Note_on_c, 4, 70, 80
1, 26425, Note_on_c, 4, 61, 49
1, 26425, Note_on_c, 4, 58, 49
1, 26425, Note_on_c, 11, 75, 120
1, 26428, Note_on_c, 11, 73, 0
1, 26435, Note_on_c, 11, 76, 124
1, 26440, Note_on_c, 11, 75, 0
1, 26446, Note_on_c, 3, 70, 0
1, 26447, Note_on_c, 11, 78, 127
1, 26448, Note_on_c, 9, 35, 107
1, 26448, Note_on_c, 9, 46, 106
1, 26449, Note_on_c, 9, 46, 0
1, 26449, Note_on_c, 9, 35, 0
1, 26449, Note_on_c, 11, 76, 0
1, 26461, Note_on_c, 1, 35, 0
1, 26472, Note_on_c, 4, 58, 0
1, 26472, Note_on_c, 4, 61, 0
1, 26472, Note_on_c, 4, 66, 0
1, 26472, Note_on_c, 1, 35, 79
1, 26472, Note_on_c, 9, 40, 86
1, 26473, Note_on_c, 9, 40, 0
1, 26473, Note_on_c, 4, 70, 0
1, 26473, Note_on_c, 3, 66, 118
1, 26473, Note_on_c, 4, 66, 93
1, 26473, Note_on_c, 4, 61, 49
1, 26473, Note_on_c, 4, 54, 49
1, 26473, Note_on_c, 4, 58, 49
1, 26484, Note_on_c, 9, 40, 113
1, 26485, Note_on_c, 9, 40, 0
1, 26487, Note_on_c, 1, 35, 0
1, 26494, Note_on_c, 11, 78, 0
1, 26495, Note_on_c, 11, 75, 126
1, 26496, Note_on_c, 1, 35, 89
1, 26496, Note_on_c, 9, 40, 115
1, 26497, Note_on_c, 9, 40, 0
1, 26513, Note_on_c, 1, 35, 0
1, 26514, Note_on_c, 3, 66, 0
1, 26520, Note_on_c, 1, 35, 97
1, 26536, Note_on_c, 1, 35, 0
1, 26544, Note_on_c, 1, 35, 104
1, 26544, Note_on_c, 9, 45, 108
1, 26545, Note_on_c, 9, 45, 0
1, 26549, Note_on_c, 0, 54, 0
1, 26550, Note_on_c, 0, 59, 0
1, 26550, Note_on_c, 0, 58, 0
1, 26551, Note_on_c, 0, 47, 0
1, 26551, Note_on_c, 11, 75, 0
1, 26552, Note_on_c, 0, 63, 0
1, 26558, Note_on_c, 1, 35, 0
1, 26568, Note_on_c, 1, 35, 109
1, 26568, Note_on_c, 9, 41, 110
1, 26569, Note_on_c, 9, 41, 0
1, 26580, Note_on_c, 2, 63, 0
1, 26580, Note_on_c, 2, 54, 0
1, 26586, Note_on_c, 1, 35, 0
1, 26587, Note_on_c, 2, 58, 0
1, 26589, Note_on_c, 2, 90, 0
1, 26590, Note_on_c, 2, 88, 89
1, 26591, Note_on_c, 2, 56, 85
1, 26591, Note_on_c, 2, 61, 84
1, 26592, Note_on_c, 0, 56, 119
1, 26592, Note_on_c, 0, 64, 117
1, 26592, Note_on_c, 0, 37, 97
1, 26592, Note_on_c, 0, 49, 116
1, 26592, Note_on_c, 0, 61, 104
1, 26592, Note_on_c, 1, 37, 115
1, 26592, Note_on_c, 2, 52, 85
1, 26592, Note_on_c, 3, 71, 118
1, 26592, Note_on_c, 4, 71, 97
1, 26592, Note_on_c, 4, 68, 47
1, 26592, Note_on_c, 4, 64, 47
1, 26592, Note_on_c, 9, 35, 115
1, 26593, Note_on_c, 9, 35, 0
1, 26593, Note_on_c, 4, 66, 0
1, 26593, Note_on_c, 4, 61, 0
1, 26593, Note_on_c, 4, 58, 0
1, 26593, Note_on_c, 4, 54, 0
1, 26593, Note_on_c, 0, 59, 110
1, 26593, Note_on_c, 9, 49, 77
1, 26594, Note_on_c, 9, 49, 0
1, 26594, Note_on_c, 7, 80, 105
1, 26594, Note_on_c, 8, 37, 113
1, 26595, Note_on_c, 7, 76, 125
1, 26596, Note_on_c, 10, 64, 107
1, 26616, Note_on_c, 9, 35, 107
1, 26616, Note_on_c, 9, 40, 107
1, 26617, Note_on_c, 9, 40, 0
1, 26617, Note_on_c, 9, 35, 0
1, 26628, Note_on_c, 3, 71, 0
1, 26628, Note_on_c, 9, 40, 109
1, 26629, Note_on_c, 9, 40, 0
1, 26635, Note_on_c, 1, 37, 0
1, 26639, Note_on_c, 3, 70, 98
1, 26640, Note_on_c, 4, 71, 0
1, 26640, Note_on_c, 4, 64, 0
1, 26640, Note_on_c, 4, 68, 0
1, 26640, Note_on_c, 1, 35, 120
1, 26640, Note_on_c, 4, 63, 48
1, 26640, Note_on_c, 4, 70, 62
1, 26640, Note_on_c, 4, 66, 48
1, 26640, Note_on_c, 9, 40, 111
1, 26640, Note_on_c, 9, 35, 111
1, 26641, Note_on_c, 9, 35, 0
1, 26641, Note_on_c, 9, 40, 0
1, 26661, Note_on_c, 3, 70, 0
1, 26663, Note_on_c, 1, 35, 0
1, 26663, Note_on_c, 3, 71, 116
1, 26664, Note_on_c, 4, 63, 0
1, 26664, Note_on_c, 4, 66, 0
1, 26664, Note_on_c, 4, 70, 0
1, 26664, Note_on_c, 1, 37, 112
1, 26664, Note_on_c, 4, 71, 82
1, 26664, Note_on_c, 4, 68, 47
1, 26664, Note_on_c, 4, 64, 47
1, 26664, Note_on_c, 9, 35, 115
1, 26664, Note_on_c, 9, 40, 115
1, 26665, Note_on_c, 9, 40, 0
1, 26665, Note_on_c, 9, 35, 0
1, 26671, Note_on_c, 0, 56, 0
1, 26671, Note_on_c, 0, 59, 0
1, 26674, Note_on_c, 0, 37, 0
1, 26675, Note_on_c, 0, 64, 0
1, 26677, Note_on_c, 0, 49, 0
1, 26677, Note_on_c, 0, 61, 0
1, 26680, Note_on_c, 2, 56, 0
1, 26680, Note_on_c, 2, 61, 0
1, 26681, Note_on_c, 10, 64, 0
1, 26684, Note_on_c, 7, 80, 0
1, 26684, Note_on_c, 2, 52, 0
1, 26685, Note_on_c, 8, 37, 0
1, 26685, Note_on_c, 3, 71, 0
1, 26685, Note_on_c, 2, 88, 0
1, 26686, Note_on_c, 1, 37, 0
1, 26686, Note_on_c, 2, 58, 83
1, 26687, Note_on_c, 2, 54, 81
1, 26687, Note_on_c, 2, 63, 82
1, 26688, Note_on_c, 4, 68, 0
1, 26688, Note_on_c, 4, 71, 0
1, 26688, Note_on_c, 4, 64, 0
1, 26688, Note_on_c, 1, 39, 112
1, 26688, Note_on_c, 3, 73, 107
1, 26688, Note_on_c, 4, 70, 47
1, 26688, Note_on_c, 4, 73, 97
1, 26688, Note_on_c, 4, 66, 47
1, 26688, Note_on_c, 9, 35, 115
1, 26689, Note_on_c, 9, 35, 0
1, 26689, Note_on_c, 0, 61, 127
1, 26689, Note_on_c, 0, 63, 116
1, 26689, Note_on_c, 0, 58, 113
1, 26689, Note_on_c, 0, 66, 113
1, 26689, Note_on_c, 0, 51, 119
1, 26689, Note_on_c, 0, 39, 97
1, 26689, Note_on_c, 7, 78, 127
1, 26689, Note_on_c, 9, 57, 77
1, 26690, Note_on_c, 9, 57, 0
1, 26690, Note_on_c, 7, 76, 0
1, 26690, Note_on_c, 7, 82, 117
1, 26690, Note_on_c, 8, 39, 127
1, 26691, Note_on_c, 2, 90, 86
1, 26692, Note_on_c, 10, 66, 110
1, 26711, Note_on_c, 11, 78, 127
1, 26713, Note_on_c, 9, 40, 99
1, 26714, Note_on_c, 9, 40, 0
1, 26724, Note_on_c, 9, 40, 104
1, 26725, Note_on_c, 9, 40, 0
1, 26734, Note_on_c, 3, 73, 0
1, 26735, Note_on_c, 11, 78, 0
1, 26735, Note_on_c, 1, 39, 0
1, 26736, Note_on_c, 4, 66, 0
1, 26736, Note_on_c, 4, 73, 0
1, 26736, Note_on_c, 0, 58, 0
1, 26736, Note_on_c, 4, 70, 0
1, 26736, Note_on_c, 1, 37, 112
1, 26736, Note_on_c, 4, 68, 50
1, 26736, Note_on_c, 4, 71, 74
1, 26736, Note_on_c, 4, 64, 50
1, 26736, Note_on_c, 9, 40, 111
1, 26737, Note_on_c, 9, 40, 0
1, 26737, Note_on_c, 3, 71, 101
1, 26737, Note_on_c, 11, 77, 115
1, 26748, Note_on_c, 0, 63, 0
1, 26748, Note_on_c, 0, 61, 0
1, 26748, Note_on_c, 0, 66, 0
1, 26748, Note_on_c, 0, 51, 0
1, 26755, Note_on_c, 3, 71, 0
1, 26757, Note_on_c, 1, 37, 0
1, 26760, Note_on_c, 4, 71, 0
1, 26760, Note_on_c, 4, 64, 0
1, 26760, Note_on_c, 4, 68, 0
1, 26760, Note_on_c, 1, 39, 114
1, 26760, Note_on_c, 3, 73, 107
1, 26760, Note_on_c, 4, 66, 50
1, 26760, Note_on_c, 4, 70, 50
1, 26760, Note_on_c, 4, 73, 89
1, 26760, Note_on_c, 9, 35, 115
1, 26760, Note_on_c, 11, 75, 127
1, 26761, Note_on_c, 9, 35, 0
1, 26762, Note_on_c, 11, 77, 0
1, 26764, Note_on_c, 0, 39, 0
1, 26777, Note_on_c, 10, 66, 0
1, 26778, Note_on_c, 2, 58, 0
1, 26778, Note_on_c, 2, 54, 0
1, 26779, Note_on_c, 7, 82, 0
1, 26779, Note_on_c, 2, 63, 0
1, 26782, Note_on_c, 3, 73, 0
1, 26783, Note_on_c, 11, 75, 0
1, 26783, Note_on_c, 1, 39, 0
1, 26783, Note_on_c, 2, 56, 84
1, 26784, Note_on_c, 4, 70, 0
1, 26784, Note_on_c, 4, 73, 0
1, 26784, Note_on_c, 4, 66, 0
1, 26784, Note_on_c, 1, 41, 116
1, 26784, Note_on_c, 2, 65, 83
1, 26784, Note_on_c, 2, 60, 83
1, 26784, Note_on_c, 3, 75, 114
1, 26784, Note_on_c, 9, 35, 115
1, 26784, Note_on_c, 9, 49, 83
1, 26785, Note_on_c, 9, 49, 0
1, 26785, Note_on_c, 9, 35, 0
1, 26785, Note_on_c, 8, 39, 0
1, 26785, Note_on_c, 4, 72, 69
1, 26785, Note_on_c, 4, 68, 69
1, 26785, Note_on_c, 4, 75, 97
1, 26786, Note_on_c, 2, 90, 0
1, 26786, Note_on_c, 2, 92, 82
1, 26786, Note_on_c, 7, 84, 122
1, 26786, Note_on_c, 7, 80, 116
1, 26786, Note_on_c, 8, 41, 127
1, 26788, Note_on_c, 10, 68, 112
1, 26789, Note_on_c, 7, 78, 0
1, 26791, Note_on_c, 11, 74, 118
1, 26807, Note_on_c, 0, 60, 117
1, 26807, Note_on_c, 0, 63, 117
1, 26807, Note_on_c, 0, 65, 117
1, 26807, Note_on_c, 0, 68, 117
1, 26808, Note_on_c, 3, 75, 0
1, 26818, Note_on_c, 7, 80, 0
1, 26819, Note_on_c, 8, 41, 0
1, 26820, Note_on_c, 10, 68, 0
1, 26822, Note_on_c, 0, 60, 0
1, 26823, Note_on_c, 0, 63, 0
1, 26823, Note_on_c, 7, 84, 0
1, 26826, Note_on_c, 0, 68, 0
1, 26827, Note_on_c, 0, 65, 0
1, 26831, Note_on_c, 1, 41, 0
1, 26831, Note_on_c, 0, 58, 104
1, 26831, Note_on_c, 0, 67, 81
1, 26831, Note_on_c, 0, 63, 71
1, 26832, Note_on_c, 9, 42, 87
1, 26833, Note_on_c, 9, 42, 0
1, 26843, Note_on_c, 0, 63, 0
1, 26845, Note_on_c, 0, 58, 0
1, 26847, Note_on_c, 0, 67, 0
1, 26855, Note_on_c, 11, 73, 127
1, 26856, Note_on_c, 9, 42, 42
1, 26857, Note_on_c, 9, 42, 0
1, 26857, Note_on_c, 0, 41, 88
1, 26862, Note_on_c, 11, 74, 0
1, 26876, Note_on_c, 11, 73, 0
1, 26878, Note_on_c, 2, 92, 0
1, 26880, Note_on_c, 9, 40, 115
1, 26880, Note_on_c, 9, 42, 111
1, 26881, Note_on_c, 9, 42, 0
1, 26881, Note_on_c, 9, 40, 0
1, 26881, Note_on_c, 0, 68, 119
1, 26881, Note_on_c, 0, 65, 119
1, 26881, Note_on_c, 0, 60, 119
1, 26881, Note_on_c, 0, 63, 119
1, 26881, Note_on_c, 11, 72, 111
1, 26882, Note_on_c, 2, 92, 83
1, 26895, Note_on_c, 0, 65, 0
1, 26896, Note_on_c, 0, 63, 0
1, 26896, Note_on_c, 0, 41, 0
1, 26902, Note_on_c, 0, 60, 0
1, 26904, Note_on_c, 0, 68, 0
1, 26904, Note_on_c, 11, 72, 0
1, 26904, Note_on_c, 9, 42, 47
1, 26904, Note_on_c, 11, 70, 127
1, 26905, Note_on_c, 9, 42, 0
1, 26905, Note_on_c, 0, 41, 65
1, 26905, Note_on_c, 0, 53, 80
1, 26927, Note_on_c, 11, 70, 0
1, 26927, Note_on_c, 0, 63, 74
1, 26927, Note_on_c, 0, 67, 85
1, 26927, Note_on_c, 0, 58, 95
1, 26928, Note_on_c, 9, 42, 81
1, 26929, Note_on_c, 9, 42, 0
1, 26930, Note_on_c, 0, 41, 0
1, 26932, Note_on_c, 11, 68, 104
1, 26933, Note_on_c, 0, 53, 0
1, 26942, Note_on_c, 0, 58, 0
1, 26943, Note_on_c, 0, 63, 0
1, 26945, Note_on_c, 0, 67, 0
1, 26949, Note_on_c, 11, 68, 0
1, 26952, Note_on_c, 1, 32, 120
1, 26952, Note_on_c, 9, 35, 85
1, 26952, Note_on_c, 9, 42, 60
1, 26953, Note_on_c, 9, 42, 0
1, 26953, Note_on_c, 9, 35, 0
1, 26953, Note_on_c, 0, 68, 110
1, 26953, Note_on_c, 0, 65, 110
1, 26953, Note_on_c, 0, 63, 110
1, 26953, Note_on_c, 0, 60, 110
1, 26956, Note_on_c, 11, 65, 99
1, 26966, Note_on_c, 0, 63, 0
1, 26967, Note_on_c, 2, 65, 0
1, 26969, Note_on_c, 0, 65, 0
1, 26969, Note_on_c, 2, 60, 0
1, 26970, Note_on_c, 0, 60, 0
1, 26972, Note_on_c, 0, 68, 0
1, 26972, Note_on_c, 1, 32, 0
1, 26973, Note_on_c, 2, 56, 0
1, 26975, Note_on_c, 2, 92, 0
1, 26975, Note_on_c, 2, 61, 80
1, 26975, Note_on_c, 2, 58, 83
1, 26975, Note_on_c, 2, 65, 84
1, 26976, Note_on_c, 4, 72, 0
1, 26976, Note_on_c, 4, 75, 0
1, 26976, Note_on_c, 4, 68, 0
1, 26976, Note_on_c, 1, 34, 120
1, 26976, Note_on_c, 9, 42, 101
1, 26976, Note_on_c, 9, 35, 115
1, 26977, Note_on_c, 9, 35, 0
1, 26977, Note_on_c, 9, 42, 0
1, 26977, Note_on_c, 0, 46, 107
1, 26977, Note_on_c, 3, 75, 118
1, 26977, Note_on_c, 4, 72, 42
1, 26977, Note_on_c, 4, 63, 42
1, 26977, Note_on_c, 4, 68, 74
1, 26977, Note_on_c, 4, 75, 97
1, 26977, Note_on_c, 11, 63, 127
1, 26978, Note_on_c, 2, 92, 82
1, 26979, Note_on_c, 11, 65, 0
1, 26986, Note_on_c, 0, 46, 0
1, 26997, Note_on_c, 3, 75, 0
1, 26998, Note_on_c, 1, 34, 0
1, 27000, Note_on_c, 4, 68, 0
1, 27000, Note_on_c, 4, 63, 0
1, 27000, Note_on_c, 4, 72, 0
1, 27000, Note_on_c, 4, 75, 0
1, 27000, Note_on_c, 11, 63, 0
1, 27000, Note_on_c, 0, 46, 99
1, 27000, Note_on_c, 9, 42, 55
1, 27000, Note_on_c, 11, 68, 120
1, 27001, Note_on_c, 9, 42, 0
1, 27001, Note_on_c, 3, 75, 88
1, 27001, Note_on_c, 4, 72, 43
1, 27001, Note_on_c, 4, 68, 74
1, 27001, Note_on_c, 4, 75, 71
1, 27001, Note_on_c, 4, 63, 43
1, 27005, Note_on_c, 0, 46, 0
1, 27017, Note_on_c, 3, 75, 0
1, 27023, Note_on_c, 11, 68, 0
1, 27024, Note_on_c, 4, 63, 0
1, 27024, Note_on_c, 4, 72, 0
1, 27024, Note_on_c, 4, 75, 0
1, 27024, Note_on_c, 4, 68, 0
1, 27024, Note_on_c, 1, 34, 120
1, 27024, Note_on_c, 9, 42, 81
1, 27024, Note_on_c, 11, 63, 109
1, 27025, Note_on_c, 9, 42, 0
1, 27025, Note_on_c, 3, 75, 110
1, 27025, Note_on_c, 4, 72, 43
1, 27025, Note_on_c, 4, 68, 74
1, 27025, Note_on_c, 4, 75, 74
1, 27025, Note_on_c, 4, 63, 43
1, 27033, Note_on_c, 11, 63, 0
1, 27043, Note_on_c, 1, 34, 0
1, 27045, Note_on_c, 3, 75, 0
1, 27047, Note_on_c, 0, 46, 82
1, 27048, Note_on_c, 1, 34, 121
1, 27048, Note_on_c, 9, 42, 73
1, 27049, Note_on_c, 9, 42, 0
1, 27049, Note_on_c, 4, 75, 0
1, 27049, Note_on_c, 4, 63, 0
1, 27049, Note_on_c, 4, 72, 0
1, 27049, Note_on_c, 4, 68, 0
1, 27049, Note_on_c, 3, 73, 107
1, 27049, Note_on_c, 4, 73, 90
1, 27049, Note_on_c, 4, 61, 43
1, 27049, Note_on_c, 4, 65, 74
1, 27049, Note_on_c, 4, 70, 43
1, 27049, Note_on_c, 11, 68, 108
1, 27054, Note_on_c, 0, 46, 0
1, 27070, Note_on_c, 2, 92, 0
1, 27070, Note_on_c, 1, 34, 0
1, 27070, Note_on_c, 11, 68, 0
1, 27072, Note_on_c, 9, 40, 115
1, 27072, Note_on_c, 9, 42, 101
1, 27073, Note_on_c, 9, 42, 0
1, 27073, Note_on_c, 9, 40, 0
1, 27073, Note_on_c, 11, 60, 102
1, 27074, Note_on_c, 2, 92, 82
1, 27093, Note_on_c, 11, 60, 0
1, 27095, Note_on_c, 0, 65, 127
1, 27095, Note_on_c, 0, 46, 119
1, 27095, Note_on_c, 0, 58, 123
1, 27095, Note_on_c, 0, 68, 116
1, 27095, Note_on_c, 0, 61, 119
1, 27096, Note_on_c, 1, 34, 121
1, 27096, Note_on_c, 9, 46, 95
1, 27096, Note_on_c, 9, 35, 115
1, 27097, Note_on_c, 9, 35, 0
1, 27097, Note_on_c, 9, 46, 0
1, 27102, Note_on_c, 3, 73, 0
1, 27103, Note_on_c, 0, 46, 0
1, 27110, Note_on_c, 0, 65, 0
1, 27118, Note_on_c, 1, 34, 0
1, 27118, Note_on_c, 0, 61, 0
1, 27119, Note_on_c, 0, 68, 0
1, 27119, Note_on_c, 3, 75, 118
1, 27120, Note_on_c, 0, 58, 0
1, 27120, Note_on_c, 9, 42, 85
1, 27121, Note_on_c, 9, 42, 0
1, 27121, Note_on_c, 4, 65, 0
1, 27121, Note_on_c, 4, 61, 0
1, 27121, Note_on_c, 4, 70, 0
1, 27121, Note_on_c, 4, 73, 0
1, 27121, Note_on_c, 4, 68, 74
1, 27121, Note_on_c, 4, 72, 41
1, 27121, Note_on_c, 4, 63, 41
1, 27121, Note_on_c, 4, 75, 97
1, 27138, Note_on_c, 3, 75, 0
1, 27143, Note_on_c, 0, 58, 116
1, 27143, Note_on_c, 0, 61, 119
1, 27143, Note_on_c, 0, 66, 123
1, 27143, Note_on_c, 3, 77, 113
1, 27144, Note_on_c, 0, 51, 107
1, 27144, Note_on_c, 0, 39, 89
1, 27144, Note_on_c, 1, 39, 119
1, 27144, Note_on_c, 9, 35, 85
1, 27144, Note_on_c, 9, 46, 97
1, 27145, Note_on_c, 9, 46, 0
1, 27145, Note_on_c, 9, 35, 0
1, 27145, Note_on_c, 4, 75, 0
1, 27145, Note_on_c, 4, 63, 0
1, 27145, Note_on_c, 4, 72, 0
1, 27145, Note_on_c, 4, 68, 0
1, 27145, Note_on_c, 4, 73, 41
1, 27145, Note_on_c, 4, 77, 87
1, 27145, Note_on_c, 4, 70, 74
1, 27145, Note_on_c, 4, 65, 41
1, 27162, Note_on_c, 0, 61, 0
1, 27163, Note_on_c, 2, 61, 0
1, 27164, Note_on_c, 0, 58, 0
1, 27164, Note_on_c, 0, 66, 0
1, 27164, Note_on_c, 0, 39, 0
1, 27166, Note_on_c, 2, 92, 0
1, 27168, Note_on_c, 0, 51, 0
1, 27168, Note_on_c, 9, 42, 79
1, 27168, Note_on_c, 9, 35, 115
1, 27169, Note_on_c, 9, 35, 0
1, 27169, Note_on_c, 9, 42, 0
1, 27169, Note_on_c, 2, 54, 92
1, 27170, Note_on_c, 3, 77, 0
1, 27170, Note_on_c, 2, 92, 81
1, 27175, Note_on_c, 1, 39, 0
1, 27191, Note_on_c, 0, 66, 119
1, 27191, Note_on_c, 0, 61, 113
1, 27191, Note_on_c, 0, 58, 107
1, 27191, Note_on_c, 8, 58, 119
1, 27191, Note_on_c, 8, 66, 110
1, 27191, Note_on_c, 8, 63, 110
1, 27192, Note_on_c, 9, 42, 63
1, 27193, Note_on_c, 9, 42, 0
1, 27204, Note_on_c, 8, 63, 0
1, 27205, Note_on_c, 0, 61, 0
1, 27205, Note_on_c, 0, 58, 0
1, 27206, Note_on_c, 8, 66, 0
1, 27207, Note_on_c, 0, 66, 0
1, 27207, Note_on_c, 8, 58, 0
1, 27215, Note_on_c, 8, 65, 97
1, 27215, Note_on_c, 8, 56, 110
1, 27215, Note_on_c, 8, 61, 97
1, 27216, Note_on_c, 1, 34, 120
1, 27216, Note_on_c, 9, 42, 107
1, 27217, Note_on_c, 9, 42, 0
1, 27217, Note_on_c, 0, 65, 106
1, 27217, Note_on_c, 0, 61, 95
1, 27217, Note_on_c, 0, 56, 107
1, 27229, Note_on_c, 0, 61, 0
1, 27231, Note_on_c, 0, 65, 0
1, 27232, Note_on_c, 0, 56, 0
1, 27233, Note_on_c, 8, 61, 0
1, 27236, Note_on_c, 8, 56, 0
1, 27236, Note_on_c, 8, 65, 0
1, 27239, Note_on_c, 1, 34, 0
1, 27240, Note_on_c, 1, 30, 120
1, 27240, Note_on_c, 9, 42, 72
1, 27240, Note_on_c, 11, 58, 127
1, 27241, Note_on_c, 9, 42, 0
1, 27241, Note_on_c, 0, 39, 85
1, 27247, Note_on_c, 0, 39, 0
1, 27250, Note_on_c, 11, 58, 0
1, 27252, Note_on_c, 11, 53, 109
1, 27260, Note_on_c, 1, 30, 0
1, 27263, Note_on_c, 11, 53, 0
1, 27263, Note_on_c, 2, 92, 0
1, 27263, Note_on_c, 8, 63, 104
1, 27263, Note_on_c, 8, 54, 104
1, 27263, Note_on_c, 8, 58, 104
1, 27263, Note_on_c, 11, 54, 123
1, 27264, Note_on_c, 1, 39, 120
1, 27264, Note_on_c, 9, 40, 115
1, 27264, Note_on_c, 9, 42, 76
1, 27265, Note_on_c, 9, 42, 0
1, 27265, Note_on_c, 4, 73, 0
1, 27265, Note_on_c, 4, 65, 0
1, 27265, Note_on_c, 9, 40, 0
1, 27265, Note_on_c, 4, 77, 0
1, 27265, Note_on_c, 4, 70, 0
1, 27265, Note_on_c, 0, 58, 119
1, 27265, Note_on_c, 0, 61, 127
1, 27265, Note_on_c, 0, 66, 127
1, 27266, Note_on_c, 2, 92, 84
1, 27276, Note_on_c, 11, 56, 120
1, 27278, Note_on_c, 11, 54, 0
1, 27279, Note_on_c, 0, 61, 0
1, 27280, Note_on_c, 0, 58, 0
1, 27282, Note_on_c, 8, 58, 0
1, 27283, Note_on_c, 0, 66, 0
1, 27284, Note_on_c, 8, 63, 0
1, 27286, Note_on_c, 1, 39, 0
1, 27287, Note_on_c, 11, 58, 96
1, 27288, Note_on_c, 0, 39, 85
1, 27288, Note_on_c, 9, 42, 70
1, 27289, Note_on_c, 9, 42, 0
1, 27290, Note_on_c, 11, 56, 0
1, 27293, Note_on_c, 8, 54, 0
1, 27298, Note_on_c, 11, 58, 0
1, 27300, Note_on_c, 11, 60, 121
1, 27309, Note_on_c, 11, 60, 0
1, 27309, Note_on_c, 0, 39, 0
1, 27311, Note_on_c, 0, 68, 107
1, 27311, Note_on_c, 0, 65, 106
1, 27311, Note_on_c, 0, 61, 110
1, 27311, Note_on_c, 8, 61, 110
1, 27311, Note_on_c, 8, 65, 114
1, 27311, Note_on_c, 8, 56, 119
1, 27311, Note_on_c, 11, 61, 117
1, 27312, Note_on_c, 1, 30, 120
1, 27312, Note_on_c, 9, 42, 72
1, 27313, Note_on_c, 9, 42, 0
1, 27313, Note_on_c, 0, 51, 104
1, 27323, Note_on_c, 0, 51, 0
1, 27323, Note_on_c, 11, 61, 0
1, 27323, Note_on_c, 11, 63, 127
1, 27324, Note_on_c, 8, 61, 0
1, 27326, Note_on_c, 0, 65, 0
1, 27327, Note_on_c, 0, 61, 0
1, 27329, Note_on_c, 1, 30, 0
1, 27329, Note_on_c, 0, 68, 0
1, 27331, Note_on_c, 11, 63, 0
1, 27332, Note_on_c, 8, 65, 0
1, 27335, Note_on_c, 11, 65, 119
1, 27336, Note_on_c, 1, 31, 120
1, 27336, Note_on_c, 8, 63, 95
1, 27336, Note_on_c, 8, 66, 104
1, 27336, Note_on_c, 9, 35, 86
1, 27336, Note_on_c, 9, 42, 73
1, 27337, Note_on_c, 9, 42, 0
1, 27337, Note_on_c, 9, 35, 0
1, 27337, Note_on_c, 0, 66, 95
1, 27337, Note_on_c, 0, 44, 78
1, 27337, Note_on_c, 0, 61, 104
1, 27337, Note_on_c, 0, 58, 107
1, 27337, Note_on_c, 3, 68, 104
1, 27337, Note_on_c, 4, 68, 89
1, 27337, Note_on_c, 8, 58, 113
1, 27341, Note_on_c, 8, 56, 0
1, 27343, Note_on_c, 11, 65, 0
1, 27347, Note_on_c, 0, 44, 0
1, 27347, Note_on_c, 3, 68, 0
1, 27347, Note_on_c, 11, 66, 114
1, 27349, Note_on_c, 8, 58, 0
1, 27350, Note_on_c, 8, 63, 0
1, 27350, Note_on_c, 8, 66, 0
1, 27353, Note_on_c, 2, 65, 0
1, 27354, Note_on_c, 0, 61, 0
1, 27355, Note_on_c, 0, 66, 0
1, 27357, Note_on_c, 0, 58, 0
1, 27359, Note_on_c, 2, 92, 0
1, 27359, Note_on_c, 11, 68, 104
1, 27360, Note_on_c, 1, 31, 0
1, 27360, Note_on_c, 1, 32, 121
1, 27360, Note_on_c, 9, 42, 115
1, 27360, Note_on_c, 9, 35, 115
1, 27361, Note_on_c, 9, 35, 0
1, 27361, Note_on_c, 9, 42, 0
1, 27361, Note_on_c, 4, 68, 0
1, 27361, Note_on_c, 11, 66, 0
1, 27361, Note_on_c, 2, 61, 81
1, 27361, Note_on_c, 3, 77, 113
1, 27361, Note_on_c, 4, 77, 92
1, 27361, Note_on_c, 4, 65, 52
1, 27361, Note_on_c, 4, 73, 52
1, 27361, Note_on_c, 4, 70, 89
1, 27362, Note_on_c, 2, 92, 82
1, 27371, Note_on_c, 11, 70, 104
1, 27372, Note_on_c, 11, 68, 0
1, 27380, Note_on_c, 3, 77, 0
1, 27383, Note_on_c, 11, 72, 111
1, 27384, Note_on_c, 4, 70, 0
1, 27384, Note_on_c, 4, 65, 0
1, 27384, Note_on_c, 4, 73, 0
1, 27384, Note_on_c, 4, 77, 0
1, 27384, Note_on_c, 9, 42, 69
1, 27385, Note_on_c, 9, 42, 0
1, 27385, Note_on_c, 0, 66, 97
1, 27385, Note_on_c, 0, 58, 85
1, 27385, Note_on_c, 0, 61, 89
1, 27385, Note_on_c, 3, 77, 79
1, 27385, Note_on_c, 4, 65, 52
1, 27385, Note_on_c, 4, 77, 64
1, 27385, Note_on_c, 4, 73, 52
1, 27385, Note_on_c, 4, 70, 89
1, 27386, Note_on_c, 11, 70, 0
1, 27388, Note_on_c, 1, 32, 0
1, 27392, Note_on_c, 0, 61, 0
1, 27395, Note_on_c, 11, 70, 80
1, 27397, Note_on_c, 0, 66, 0
1, 27397, Note_on_c, 0, 58, 0
1, 27399, Note_on_c, 11, 72, 0
1, 27401, Note_on_c, 3, 77, 0
1, 27407, Note_on_c, 11, 68, 126
1, 27408, Note_on_c, 4, 65, 0
1, 27408, Note_on_c, 4, 73, 0
1, 27408, Note_on_c, 4, 77, 0
1, 27408, Note_on_c, 4, 70, 0
1, 27408, Note_on_c, 1, 32, 121
1, 27408, Note_on_c, 9, 42, 107
1, 27409, Note_on_c, 9, 42, 0
1, 27409, Note_on_c, 3, 77, 105
1, 27409, Note_on_c, 4, 77, 97
1, 27409, Note_on_c, 4, 73, 52
1, 27409, Note_on_c, 4, 70, 89
1, 27409, Note_on_c, 4, 65, 52
1, 27414, Note_on_c, 11, 70, 0
1, 27426, Note_on_c, 1, 32, 0
1, 27427, Note_on_c, 3, 77, 0
1, 27430, Note_on_c, 11, 68, 0
1, 27432, Note_on_c, 1, 32, 120
1, 27432, Note_on_c, 9, 42, 72
1, 27433, Note_on_c, 9, 42, 0
1, 27433, Note_on_c, 4, 70, 0
1, 27433, Note_on_c, 4, 73, 0
1, 27433, Note_on_c, 4, 77, 0
1, 27433, Note_on_c, 4, 65, 0
1, 27433, Note_on_c, 0, 44, 107
1, 27433, Note_on_c, 3, 75, 118
1, 27433, Note_on_c, 4, 75, 97
1, 27433, Note_on_c, 4, 72, 52
1, 27433, Note_on_c, 4, 68, 89
1, 27433, Note_on_c, 4, 63, 52
1, 27437, Note_on_c, 0, 44, 0
1, 27454, Note_on_c, 2, 92, 0
1, 27454, Note_on_c, 1, 32, 0
1, 27455, Note_on_c, 0, 58, 97
1, 27455, Note_on_c, 0, 66, 107
1, 27455, Note_on_c, 0, 61, 97
1, 27456, Note_on_c, 2, 61, 0
1, 27456, Note_on_c, 2, 54, 0
1, 27456, Note_on_c, 9, 40, 115
1, 27456, Note_on_c, 9, 42, 101
1, 27457, Note_on_c, 9, 42, 0
1, 27457, Note_on_c, 9, 40, 0
1, 27457, Note_on_c, 0, 44, 101
1, 27457, Note_on_c, 2, 60, 81
1, 27458, Note_on_c, 2, 58, 0
1, 27458, Note_on_c, 2, 63, 81
1, 27458, Note_on_c, 2, 92, 81
1, 27458, Note_on_c, 2, 56, 83
1, 27461, Note_on_c, 0, 44, 0
1, 27461, Note_on_c, 0, 61, 0
1, 27462, Note_on_c, 0, 66, 0
1, 27463, Note_on_c, 0, 58, 0
1, 27480, Note_on_c, 1, 32, 120
1, 27480, Note_on_c, 9, 46, 94
1, 27480, Note_on_c, 9, 35, 115
1, 27481, Note_on_c, 9, 35, 0
1, 27481, Note_on_c, 9, 46, 0
1, 27481, Note_on_c, 0, 61, 123
1, 27481, Note_on_c, 0, 66, 127
1, 27481, Note_on_c, 0, 58, 119
1, 27481, Note_on_c, 0, 44, 101
1, 27483, Note_on_c, 10, 70, 116
1, 27483, Note_on_c, 10, 73, 116
1, 27487, Note_on_c, 0, 44, 0
1, 27489, Note_on_c, 3, 75, 0
1, 27492, Note_on_c, 10, 70, 0
1, 27495, Note_on_c, 0, 61, 0
1, 27500, Note_on_c, 0, 58, 0
1, 27501, Note_on_c, 0, 66, 0
1, 27502, Note_on_c, 10, 73, 0
1, 27504, Note_on_c, 9, 42, 83
1, 27505, Note_on_c, 9, 42, 0
1, 27505, Note_on_c, 4, 63, 0
1, 27505, Note_on_c, 4, 75, 0
1, 27505, Note_on_c, 4, 72, 0
1, 27505, Note_on_c, 4, 68, 0
1, 27505, Note_on_c, 3, 73, 110
1, 27505, Note_on_c, 4, 70, 49
1, 27505, Note_on_c, 4, 73, 93
1, 27505, Note_on_c, 4, 66, 89
1, 27505, Note_on_c, 4, 61, 49
1, 27506, Note_on_c, 1, 32, 0
1, 27524, Note_on_c, 2, 60, 0
1, 27525, Note_on_c, 2, 63, 0
1, 27526, Note_on_c, 3, 73, 0
1, 27526, Note_on_c, 2, 64, 83
1, 27526, Note_on_c, 2, 61, 84
1, 27527, Note_on_c, 0, 59, 106
1, 27527, Note_on_c, 0, 64, 110
1, 27527, Note_on_c, 0, 68, 101
1, 27527, Note_on_c, 0, 37, 89
1, 27528, Note_on_c, 1, 37, 120
1, 27528, Note_on_c, 9, 35, 113
1, 27528, Note_on_c, 9, 46, 97
1, 27529, Note_on_c, 9, 46, 0
1, 27529, Note_on_c, 4, 70, 0
1, 27529, Note_on_c, 4, 66, 0
1, 27529, Note_on_c, 4, 61, 0
1, 27529, Note_on_c, 9, 35, 0
1, 27529, Note_on_c, 4, 73, 0
1, 27529, Note_on_c, 0, 49, 99
1, 27529, Note_on_c, 3, 75, 114
1, 27529, Note_on_c, 4, 63, 49
1, 27529, Note_on_c, 4, 75, 89
1, 27529, Note_on_c, 4, 68, 89
1, 27529, Note_on_c, 4, 71, 49
1, 27530, Note_on_c, 10, 75, 116
1, 27530, Note_on_c, 10, 71, 116
1, 27534, Note_on_c, 0, 49, 0
1, 27535, Note_on_c, 0, 37, 0
1, 27545, Note_on_c, 0, 64, 0
1, 27548, Note_on_c, 10, 75, 0
1, 27548, Note_on_c, 0, 68, 0
1, 27549, Note_on_c, 0, 59, 0
1, 27550, Note_on_c, 2, 92, 0
1, 27551, Note_on_c, 10, 71, 0
1, 27552, Note_on_c, 9, 35, 113
1, 27552, Note_on_c, 9, 42, 73
1, 27553, Note_on_c, 9, 42, 0
1, 27553, Note_on_c, 9, 35, 0
1, 27553, Note_on_c, 3, 75, 0
1, 27554, Note_on_c, 2, 92, 83
1, 27557, Note_on_c, 1, 37, 0
1, 27575, Note_on_c, 8, 64, 112
1, 27575, Note_on_c, 8, 56, 102
1, 27575, Note_on_c, 11, 64, 127
1, 27576, Note_on_c, 0, 64, 120
1, 27576, Note_on_c, 0, 59, 108
1, 27576, Note_on_c, 8, 61, 87
1, 27576, Note_on_c, 9, 42, 70
1, 27577, Note_on_c, 9, 42, 0
1, 27577, Note_on_c, 0, 37, 85
1, 27577, Note_on_c, 0, 49, 99
1, 27577, Note_on_c, 0, 68, 116
1, 27578, Note_on_c, 8, 61, 0
1, 27582, Note_on_c, 0, 49, 0
1, 27582, Note_on_c, 0, 37, 0
1, 27587, Note_on_c, 11, 68, 114
1, 27588, Note_on_c, 8, 56, 0
1, 27588, Note_on_c, 0, 59, 0
1, 27591, Note_on_c, 11, 64, 0
1, 27592, Note_on_c, 0, 68, 0
1, 27592, Note_on_c, 8, 64, 0
1, 27594, Note_on_c, 0, 64, 0
1, 27599, Note_on_c, 8, 58, 95
1, 27599, Note_on_c, 8, 54, 97
1, 27599, Note_on_c, 8, 63, 95
1, 27599, Note_on_c, 11, 71, 98
1, 27600, Note_on_c, 11, 68, 0
1, 27600, Note_on_c, 0, 63, 97
1, 27600, Note_on_c, 0, 66, 87
1, 27600, Note_on_c, 0, 58, 113
1, 27600, Note_on_c, 1, 32, 120
1, 27600, Note_on_c, 9, 42, 98
1, 27601, Note_on_c, 9, 42, 0
1, 27611, Note_on_c, 11, 73, 91
1, 27614, Note_on_c, 11, 71, 0
1, 27617, Note_on_c, 8, 58, 0
1, 27617, Note_on_c, 8, 63, 0
1, 27618, Note_on_c, 0, 63, 0
1, 27619, Note_on_c, 0, 58, 0
1, 27620, Note_on_c, 0, 66, 0
1, 27622, Note_on_c, 11, 73, 0
1, 27622, Note_on_c, 8, 54, 0
1, 27623, Note_on_c, 0, 37, 85
1, 27623, Note_on_c, 11, 76, 103
1, 27624, Note_on_c, 1, 35, 120
1, 27624, Note_on_c, 9, 42, 87
1, 27625, Note_on_c, 9, 42, 0
1, 27625, Note_on_c, 1, 32, 0
1, 27630, Note_on_c, 0, 37, 0
1, 27635, Note_on_c, 11, 73, 96
1, 27640, Note_on_c, 11, 76, 0
1, 27646, Note_on_c, 2, 92, 0
1, 27646, Note_on_c, 1, 35, 0
1, 27647, Note_on_c, 8, 61, 110
1, 27647, Note_on_c, 8, 56, 113
1, 27647, Note_on_c, 8, 52, 108
1, 27647, Note_on_c, 11, 71, 109
1, 27648, Note_on_c, 0, 64, 122
1, 27648, Note_on_c, 0, 68, 116
1, 27648, Note_on_c, 0, 59, 114
1, 27648, Note_on_c, 1, 37, 120
1, 27648, Note_on_c, 9, 40, 115
1, 27648, Note_on_c, 9, 42, 72
1, 27649, Note_on_c, 9, 42, 0
1, 27649, Note_on_c, 9, 40, 0
1, 27649, Note_on_c, 4, 75, 0
1, 27649, Note_on_c, 4, 68, 0
1, 27649, Note_on_c, 4, 71, 0
1, 27649, Note_on_c, 4, 63, 0
1, 27650, Note_on_c, 11, 73, 0
1, 27650, Note_on_c, 2, 92, 84
1, 27659, Note_on_c, 11, 68, 106
1, 27663, Note_on_c, 11, 71, 0
1, 27664, Note_on_c, 8, 61, 0
1, 27664, Note_on_c, 8, 56, 0
1, 27670, Note_on_c, 11, 68, 0
1, 27670, Note_on_c, 0, 64, 0
1, 27671, Note_on_c, 8, 52, 0
1, 27671, Note_on_c, 0, 37, 95
1, 27671, Note_on_c, 11, 64, 94
1, 27672, Note_on_c, 1, 37, 0
1, 27672, Note_on_c, 0, 59, 0
1, 27672, Note_on_c, 9, 42, 60
1, 27673, Note_on_c, 9, 42, 0
1, 27675, Note_on_c, 0, 68, 0
1, 27683, Note_on_c, 11, 64, 0
1, 27684, Note_on_c, 11, 63, 108
1, 27694, Note_on_c, 11, 63, 0
1, 27694, Note_on_c, 0, 37, 0
1, 27695, Note_on_c, 0, 58, 110
1, 27695, Note_on_c, 8, 63, 107
1, 27695, Note_on_c, 8, 54, 116
1, 27695, Note_on_c, 8, 58, 110
1, 27696, Note_on_c, 0, 63, 113
1, 27696, Note_on_c, 0, 66, 99
1, 27696, Note_on_c, 1, 32, 119
1, 27696, Note_on_c, 9, 42, 85
1, 27696, Note_on_c, 11, 68, 126
1, 27697, Note_on_c, 9, 42, 0
1, 27697, Note_on_c, 0, 49, 99
1, 27707, Note_on_c, 0, 49, 0
1, 27708, Note_on_c, 11, 63, 96
1, 27710, Note_on_c, 11, 68, 0
1, 27712, Note_on_c, 1, 32, 0
1, 27714, Note_on_c, 0, 63, 0
1, 27715, Note_on_c, 0, 58, 0
1, 27716, Note_on_c, 0, 66, 0
1, 27716, Note_on_c, 8, 63, 0
1, 27716, Note_on_c, 11, 63, 0
1, 27717, Note_on_c, 8, 58, 0
1, 27719, Note_on_c, 8, 54, 0
1, 27719, Note_on_c, 11, 59, 107
1, 27720, Note_on_c, 1, 29, 119
1, 27720, Note_on_c, 9, 42, 83
1, 27720, Note_on_c, 9, 35, 82
1, 27721, Note_on_c, 9, 35, 0
1, 27721, Note_on_c, 9, 42, 0
1, 27721, Note_on_c, 0, 64, 104
1, 27721, Note_on_c, 0, 68, 104
1, 27721, Note_on_c, 0, 59, 104
1, 27721, Note_on_c, 3, 66, 107
1, 27721, Note_on_c, 4, 66, 86
1, 27721, Note_on_c, 4, 54, 47
1, 27721, Note_on_c, 8, 64, 112
1, 27721, Note_on_c, 8, 56, 113
1, 27721, Note_on_c, 8, 59, 106
1, 27727, Note_on_c, 11, 59, 0
1, 27731, Note_on_c, 11, 64, 113
1, 27735, Note_on_c, 3, 66, 0
1, 27736, Note_on_c, 1, 29, 0
1, 27736, Note_on_c, 8, 59, 0
1, 27736, Note_on_c, 8, 56, 0
1, 27737, Note_on_c, 8, 64, 0
1, 27741, Note_on_c, 2, 61, 0
1, 27742, Note_on_c, 2, 92, 0
1, 27743, Note_on_c, 0, 68, 0
1, 27743, Note_on_c, 0, 64, 0
1, 27743, Note_on_c, 11, 63, 126
1, 27744, Note_on_c, 1, 30, 119
1, 27744, Note_on_c, 9, 42, 115
1, 27744, Note_on_c, 9, 35, 115
1, 27745, Note_on_c, 9, 35, 0
1, 27745, Note_on_c, 9, 42, 0
1, 27745, Note_on_c, 4, 66, 0
1, 27745, Note_on_c, 0, 59, 0
1, 27745, Note_on_c, 4, 54, 0
1, 27745, Note_on_c, 0, 42, 119
1, 27745, Note_on_c, 2, 59, 85
1, 27745, Note_on_c, 3, 75, 118
1, 27745, Note_on_c, 4, 68, 48
1, 27745, Note_on_c, 4, 75, 97
1, 27745, Note_on_c, 4, 71, 48
1, 27745, Note_on_c, 4, 63, 48
1, 27746, Note_on_c, 2, 92, 84
1, 27747, Note_on_c, 11, 64, 0
1, 27752, Note_on_c, 11, 63, 0
1, 27755, Note_on_c, 11, 59, 87
1, 27767, Note_on_c, 11, 58, 123
1, 27768, Note_on_c, 11, 59, 0
1, 27768, Note_on_c, 9, 42, 55
1, 27769, Note_on_c, 9, 42, 0
1, 27769, Note_on_c, 0, 64, 97
1, 27769, Note_on_c, 0, 68, 81
1, 27769, Note_on_c, 0, 59, 92
1, 27772, Note_on_c, 1, 30, 0
1, 27779, Note_on_c, 11, 56, 123
1, 27780, Note_on_c, 3, 75, 0
1, 27782, Note_on_c, 11, 58, 0
1, 27792, Note_on_c, 4, 68, 0
1, 27792, Note_on_c, 4, 71, 0
1, 27792, Note_on_c, 4, 75, 0
1, 27792, Note_on_c, 4, 63, 0
1, 27792, Note_on_c, 1, 30, 119
1, 27792, Note_on_c, 9, 42, 83
1, 27793, Note_on_c, 9, 42, 0
1, 27793, Note_on_c, 3, 75, 118
1, 27793, Note_on_c, 4, 63, 48
1, 27793, Note_on_c, 4, 71, 48
1, 27793, Note_on_c, 4, 68, 48
1, 27793, Note_on_c, 4, 75, 97
1, 27807, Note_on_c, 1, 30, 0
1, 27809, Note_on_c, 0, 64, 0
1, 27809, Note_on_c, 0, 59, 0
1, 27810, Note_on_c, 3, 75, 0
1, 27810, Note_on_c, 0, 68, 0
1, 27816, Note_on_c, 1, 30, 119
1, 27816, Note_on_c, 3, 73, 118
1, 27816, Note_on_c, 9, 42, 83
1, 27817, Note_on_c, 9, 42, 0
1, 27817, Note_on_c, 4, 63, 0
1, 27817, Note_on_c, 4, 68, 0
1, 27817, Note_on_c, 0, 42, 0
1, 27817, Note_on_c, 4, 71, 0
1, 27817, Note_on_c, 4, 75, 0
1, 27817, Note_on_c, 0, 64, 80
1, 27817, Note_on_c, 0, 59, 61
1, 27817, Note_on_c, 0, 68, 59
1, 27817, Note_on_c, 0, 54, 79
1, 27817, Note_on_c, 4, 66, 48
1, 27817, Note_on_c, 4, 73, 97
1, 27817, Note_on_c, 4, 61, 48
1, 27817, Note_on_c, 4, 70, 48
1, 27825, Note_on_c, 0, 59, 0
1, 27826, Note_on_c, 0, 54, 0
1, 27830, Note_on_c, 0, 68, 0
1, 27832, Note_on_c, 0, 64, 0
1, 27837, Note_on_c, 2, 92, 0
1, 27837, Note_on_c, 2, 64, 0
1, 27838, Note_on_c, 1, 30, 0
1, 27839, Note_on_c, 2, 94, 75
1, 27840, Note_on_c, 2, 59, 0
1, 27840, Note_on_c, 9, 42, 101
1, 27840, Note_on_c, 9, 40, 115
1, 27841, Note_on_c, 9, 40, 0
1, 27841, Note_on_c, 9, 42, 0
1, 27841, Note_on_c, 2, 56, 0
1, 27841, Note_on_c, 0, 42, 113
1, 27841, Note_on_c, 0, 66, 101
1, 27841, Note_on_c, 0, 58, 116
1, 27841, Note_on_c, 0, 64, 104
1, 27841, Note_on_c, 0, 61, 107
1, 27841, Note_on_c, 2, 54, 83
1, 27841, Note_on_c, 2, 61, 81
1, 27841, Note_on_c, 2, 58, 81
1, 27857, Note_on_c, 11, 56, 0
1, 27863, Note_on_c, 11, 54, 123
1, 27864, Note_on_c, 1, 37, 119
1, 27864, Note_on_c, 8, 42, 127
1, 27864, Note_on_c, 9, 46, 83
1, 27864, Note_on_c, 9, 35, 115
1, 27865, Note_on_c, 9, 35, 0
1, 27865, Note_on_c, 9, 46, 0
1, 27867, Note_on_c, 10, 71, 122
1, 27867, Note_on_c, 10, 68, 122
1, 27873, Note_on_c, 3, 73, 0
1, 27882, Note_on_c, 8, 42, 0
1, 27883, Note_on_c, 10, 68, 0
1, 27886, Note_on_c, 10, 71, 0
1, 27887, Note_on_c, 1, 37, 0
1, 27888, Note_on_c, 9, 42, 89
1, 27889, Note_on_c, 9, 42, 0
1, 27889, Note_on_c, 4, 66, 0
1, 27889, Note_on_c, 4, 73, 0
1, 27889, Note_on_c, 4, 70, 0
1, 27889, Note_on_c, 4, 61, 0
1, 27889, Note_on_c, 0, 54, 119
1, 27889, Note_on_c, 3, 71, 113
1, 27889, Note_on_c, 4, 71, 92
1, 27889, Note_on_c, 4, 59, 49
1, 27889, Note_on_c, 4, 64, 48
1, 27889, Note_on_c, 4, 68, 49
1, 27892, Note_on_c, 11, 54, 0
1, 27892, Note_on_c, 0, 64, 0
1, 27894, Note_on_c, 0, 66, 0
1, 27895, Note_on_c, 0, 61, 0
1, 27899, Note_on_c, 0, 58, 0
1, 27909, Note_on_c, 3, 71, 0
1, 27911, Note_on_c, 8, 35, 123
1, 27912, Note_on_c, 1, 35, 119
1, 27912, Note_on_c, 9, 35, 81
1, 27912, Note_on_c, 9, 46, 92
1, 27913, Note_on_c, 9, 46, 0
1, 27913, Note_on_c, 4, 64, 0
1, 27913, Note_on_c, 4, 59, 0
1, 27913, Note_on_c, 9, 35, 0
1, 27913, Note_on_c, 4, 71, 0
1, 27913, Note_on_c, 4, 68, 0
1, 27913, Note_on_c, 3, 73, 107
1, 27913, Note_on_c, 4, 61, 49
1, 27913, Note_on_c, 4, 66, 48
1, 27913, Note_on_c, 4, 73, 97
1, 27913, Note_on_c, 4, 70, 49
1, 27916, Note_on_c, 10, 70, 122
1, 27916, Note_on_c, 10, 73, 122
1, 27924, Note_on_c, 0, 54, 0
1, 27929, Note_on_c, 8, 35, 0
1, 27930, Note_on_c, 0, 42, 0
1, 27930, Note_on_c, 10, 70, 0
1, 27932, Note_on_c, 10, 73, 0
1, 27933, Note_on_c, 2, 94, 0
1, 27935, Note_on_c, 0, 59, 98
1, 27935, Note_on_c, 0, 63, 107
1, 27935, Note_on_c, 0, 47, 97
1, 27935, Note_on_c, 0, 58, 101
1, 27935, Note_on_c, 0, 54, 116
1, 27935, Note_on_c, 2, 90, 83
1, 27936, Note_on_c, 2, 61, 0
1, 27936, Note_on_c, 9, 35, 115
1, 27936, Note_on_c, 9, 42, 77
1, 27937, Note_on_c, 9, 42, 0
1, 27937, Note_on_c, 9, 35, 0
1, 27937, Note_on_c, 2, 63, 82
1, 27941, Note_on_c, 1, 35, 0
1, 27948, Note_on_c, 3, 73, 0
1, 27960, Note_on_c, 4, 61, 0
1, 27960, Note_on_c, 4, 66, 0
1, 27960, Note_on_c, 4, 70, 0
1, 27960, Note_on_c, 9, 46, 110
1, 27961, Note_on_c, 9, 46, 0
1, 27961, Note_on_c, 4, 73, 0
1, 27961, Note_on_c, 3, 70, 107
1, 27961, Note_on_c, 4, 61, 49
1, 27961, Note_on_c, 4, 70, 80
1, 27961, Note_on_c, 4, 66, 49
1, 27961, Note_on_c, 4, 58, 49
1, 27963, Note_on_c, 9, 40, 92
1, 27964, Note_on_c, 9, 40, 0
1, 27973, Note_on_c, 9, 40, 105
1, 27974, Note_on_c, 9, 40, 0
1, 27984, Note_on_c, 1, 30, 119
1, 27984, Note_on_c, 9, 40, 115
1, 27985, Note_on_c, 9, 40, 0
1, 27986, Note_on_c, 3, 70, 0
1, 28007, Note_on_c, 11, 58, 127
1, 28008, Note_on_c, 4, 61, 0
1, 28008, Note_on_c, 4, 58, 0
1, 28008, Note_on_c, 4, 66, 0
1, 28008, Note_on_c, 1, 32, 118
1, 28008, Note_on_c, 9, 40, 112
1, 28009, Note_on_c, 9, 40, 0
1, 28009, Note_on_c, 1, 30, 0
1, 28009, Note_on_c, 4, 70, 0
1, 28009, Note_on_c, 3, 66, 118
1, 28009, Note_on_c, 4, 54, 49
1, 28009, Note_on_c, 4, 61, 49
1, 28009, Note_on_c, 4, 58, 49
1, 28009, Note_on_c, 4, 66, 93
1, 28027, Note_on_c, 1, 32, 0
1, 28030, Note_on_c, 11, 58, 0
1, 28032, Note_on_c, 1, 35, 118
1, 28032, Note_on_c, 9, 47, 115
1, 28033, Note_on_c, 9, 47, 0
1, 28033, Note_on_c, 11, 59, 112
1, 28055, Note_on_c, 11, 63, 120
1, 28056, Note_on_c, 11, 59, 0
1, 28056, Note_on_c, 9, 45, 115
1, 28057, Note_on_c, 9, 45, 0
1, 28068, Note_on_c, 1, 35, 0
1, 28070, Note_on_c, 3, 66, 0
1, 28077, Note_on_c, 11, 63, 0
1, 28080, Note_on_c, 1, 35, 118
1, 28080, Note_on_c, 9, 40, 115
1, 28080, Note_on_c, 11, 66, 126
1, 28081, Note_on_c, 9, 40, 0
1, 28085, Note_on_c, 0, 54, 0
1, 28086, Note_on_c, 0, 58, 0
1, 28086, Note_on_c, 0, 59, 0
1, 28087, Note_on_c, 0, 47, 0
1, 28088, Note_on_c, 0, 63, 0
1, 28093, Note_on_c, 1, 35, 0
1, 28104, Note_on_c, 1, 35, 118
1, 28104, Note_on_c, 9, 35, 115
1, 28105, Note_on_c, 9, 35, 0
1, 28109, Note_on_c, 11, 66, 0
1, 28117, Note_on_c, 2, 54, 0
1, 28117, Note_on_c, 1, 35, 0
1, 28120, Note_on_c, 2, 58, 0
1, 28126, Note_on_c, 2, 90, 0
1, 28127, Note_on_c, 2, 88, 94
1, 28128, Note_on_c, 2, 63, 0
1, 28128, Note_on_c, 0, 49, 116
1, 28128, Note_on_c, 0, 64, 117
1, 28128, Note_on_c, 0, 61, 104
1, 28128, Note_on_c, 0, 37, 97
1, 28128, Note_on_c, 0, 56, 119
1, 28128, Note_on_c, 1, 37, 118
1, 28128, Note_on_c, 2, 56, 84
1, 28128, Note_on_c, 2, 61, 84
1, 28128, Note_on_c, 3, 71, 118
1, 28128, Note_on_c, 4, 71, 97
1, 28128, Note_on_c, 4, 68, 47
1, 28128, Note_on_c, 4, 64, 47
1, 28128, Note_on_c, 7, 76, 127
1, 28128, Note_on_c, 9, 35, 115
1, 28129, Note_on_c, 9, 35, 0
1, 28129, Note_on_c, 4, 58, 0
1, 28129, Note_on_c, 4, 54, 0
1, 28129, Note_on_c, 4, 66, 0
1, 28129, Note_on_c, 4, 61, 0
1, 28129, Note_on_c, 0, 59, 110
1, 28129, Note_on_c, 2, 52, 83
1, 28129, Note_on_c, 9, 49, 77
1, 28130, Note_on_c, 9, 49, 0
1, 28130, Note_on_c, 7, 80, 105
1, 28130, Note_on_c, 8, 37, 113
1, 28132, Note_on_c, 10, 64, 107
1, 28165, Note_on_c, 1, 37, 0
1, 28169, Note_on_c, 3, 71, 0
1, 28176, Note_on_c, 4, 68, 0
1, 28176, Note_on_c, 4, 64, 0
1, 28176, Note_on_c, 4, 71, 0
1, 28176, Note_on_c, 1, 35, 119
1, 28176, Note_on_c, 4, 70, 62
1, 28176, Note_on_c, 4, 66, 48
1, 28176, Note_on_c, 4, 63, 48
1, 28176, Note_on_c, 9, 42, 91
1, 28176, Note_on_c, 9, 35, 78
1, 28177, Note_on_c, 9, 35, 0
1, 28177, Note_on_c, 9, 42, 0
1, 28177, Note_on_c, 3, 70, 114
1, 28198, Note_on_c, 1, 35, 0
1, 28199, Note_on_c, 3, 70, 0
1, 28200, Note_on_c, 4, 66, 0
1, 28200, Note_on_c, 4, 70, 0
1, 28200, Note_on_c, 4, 63, 0
1, 28200, Note_on_c, 1, 37, 119
1, 28200, Note_on_c, 4, 64, 47
1, 28200, Note_on_c, 4, 71, 82
1, 28200, Note_on_c, 4, 68, 47
1, 28200, Note_on_c, 9, 35, 94
1, 28201, Note_on_c, 9, 35, 0
1, 28201, Note_on_c, 3, 71, 99
1, 28207, Note_on_c, 0, 56, 0
1, 28207, Note_on_c, 0, 59, 0
1, 28210, Note_on_c, 0, 37, 0
1, 28211, Note_on_c, 0, 64, 0
1, 28213, Note_on_c, 0, 61, 0
1, 28213, Note_on_c, 0, 49, 0
1, 28217, Note_on_c, 10, 64, 0
1, 28217, Note_on_c, 2, 61, 0
1, 28219, Note_on_c, 2, 88, 0
1, 28220, Note_on_c, 7, 80, 0
1, 28220, Note_on_c, 2, 56, 0
1, 28221, Note_on_c, 8, 37, 0
1, 28222, Note_on_c, 3, 71, 0
1, 28223, Note_on_c, 2, 90, 93
1, 28224, Note_on_c, 4, 64, 0
1, 28224, Note_on_c, 1, 37, 0
1, 28224, Note_on_c, 4, 71, 0
1, 28224, Note_on_c, 4, 68, 0
1, 28224, Note_on_c, 2, 52, 0
1, 28224, Note_on_c, 1, 39, 119
1, 28224, Note_on_c, 2, 58, 81
1, 28224, Note_on_c, 2, 54, 90
1, 28224, Note_on_c, 2, 63, 94
1, 28224, Note_on_c, 4, 66, 47
1, 28224, Note_on_c, 4, 70, 47
1, 28224, Note_on_c, 4, 73, 97
1, 28224, Note_on_c, 9, 35, 115
1, 28225, Note_on_c, 9, 35, 0
1, 28225, Note_on_c, 0, 58, 113
1, 28225, Note_on_c, 0, 63, 116
1, 28225, Note_on_c, 0, 66, 113
1, 28225, Note_on_c, 0, 61, 127
1, 28225, Note_on_c, 0, 51, 119
1, 28225, Note_on_c, 0, 39, 97
1, 28225, Note_on_c, 3, 73, 114
1, 28225, Note_on_c, 9, 57, 77
1, 28226, Note_on_c, 9, 57, 0
1, 28226, Note_on_c, 7, 82, 117
1, 28226, Note_on_c, 8, 39, 127
1, 28227, Note_on_c, 7, 78, 116
1, 28228, Note_on_c, 7, 76, 0
1, 28228, Note_on_c, 10, 66, 110
1, 28266, Note_on_c, 3, 73, 0
1, 28272, Note_on_c, 4, 70, 0
1, 28272, Note_on_c, 4, 73, 0
1, 28272, Note_on_c, 4, 66, 0
1, 28272, Note_on_c, 1, 37, 119
1, 28272, Note_on_c, 3, 71, 99
1, 28272, Note_on_c, 4, 64, 50
1, 28272, Note_on_c, 4, 71, 74
1, 28272, Note_on_c, 4, 68, 50
1, 28272, Note_on_c, 9, 35, 94
1, 28272, Note_on_c, 9, 42, 89
1, 28273, Note_on_c, 9, 42, 0
1, 28273, Note_on_c, 9, 35, 0
1, 28275, Note_on_c, 1, 39, 0
1, 28293, Note_on_c, 3, 71, 0
1, 28295, Note_on_c, 1, 37, 0
1, 28295, Note_on_c, 3, 73, 104
1, 28296, Note_on_c, 4, 71, 0
1, 28296, Note_on_c, 4, 64, 0
1, 28296, Note_on_c, 4, 68, 0
1, 28296, Note_on_c, 1, 39, 119
1, 28296, Note_on_c, 4, 73, 89
1, 28296, Note_on_c, 4, 70, 50
1, 28296, Note_on_c, 4, 66, 50
1, 28296, Note_on_c, 9, 35, 115
1, 28297, Note_on_c, 9, 35, 0
1, 28297, Note_on_c, 0, 58, 0
1, 28297, Note_on_c, 0, 61, 0
1, 28298, Note_on_c, 0, 51, 0
1, 28299, Note_on_c, 0, 63, 0
1, 28300, Note_on_c, 0, 39, 0
1, 28304, Note_on_c, 0, 66, 0
1, 28313, Note_on_c, 10, 66, 0
1, 28315, Note_on_c, 7, 82, 0
1, 28315, Note_on_c, 2, 54, 0
1, 28315, Note_on_c, 2, 58, 0
1, 28315, Note_on_c, 2, 63, 0
1, 28317, Note_on_c, 3, 73, 0
1, 28318, Note_on_c, 1, 39, 0
1, 28318, Note_on_c, 2, 90, 0
1, 28319, Note_on_c, 3, 75, 118
1, 28320, Note_on_c, 4, 66, 0
1, 28320, Note_on_c, 7, 78, 0
1, 28320, Note_on_c, 4, 73, 0
1, 28320, Note_on_c, 4, 70, 0
1, 28320, Note_on_c, 1, 41, 117
1, 28320, Note_on_c, 4, 72, 69
1, 28320, Note_on_c, 4, 75, 97
1, 28320, Note_on_c, 4, 68, 69
1, 28320, Note_on_c, 7, 84, 122
1, 28320, Note_on_c, 7, 80, 116
1, 28320, Note_on_c, 9, 49, 83
1, 28320, Note_on_c, 9, 35, 115
1, 28321, Note_on_c, 9, 35, 0
1, 28321, Note_on_c, 9, 49, 0
1, 28321, Note_on_c, 8, 39, 0
1, 28322, Note_on_c, 2, 56, 84
1, 28322, Note_on_c, 2, 65, 81
1, 28322, Note_on_c, 2, 60, 81
1, 28322, Note_on_c, 2, 92, 82
1, 28323, Note_on_c, 10, 80, 118
1, 28324, Note_on_c, 10, 84, 117
1, 28343, Note_on_c, 7, 80, 0
1, 28343, Note_on_c, 7, 84, 0
1, 28343, Note_on_c, 0, 63, 117
1, 28343, Note_on_c, 0, 60, 117
1, 28343, Note_on_c, 0, 65, 117
1, 28343, Note_on_c, 0, 68, 117
1, 28343, Note_on_c, 8, 68, 104
1, 28343, Note_on_c, 8, 65, 114
1, 28343, Note_on_c, 8, 60, 114
1, 28346, Note_on_c, 7, 83, 78
1, 28347, Note_on_c, 3, 75, 0
1, 28347, Note_on_c, 7, 81, 108
1, 28349, Note_on_c, 7, 83, 0
1, 28351, Note_on_c, 7, 79, 85
1, 28352, Note_on_c, 10, 80, 0
1, 28352, Note_on_c, 10, 84, 0
1, 28354, Note_on_c, 7, 81, 0
1, 28355, Note_on_c, 7, 77, 90
1, 28357, Note_on_c, 1, 41, 0
1, 28358, Note_on_c, 7, 79, 0
1, 28358, Note_on_c, 8, 60, 0
1, 28358, Note_on_c, 0, 60, 0
1, 28359, Note_on_c, 0, 63, 0
1, 28359, Note_on_c, 7, 76, 84
1, 28361, Note_on_c, 7, 77, 0
1, 28362, Note_on_c, 0, 68, 0
1, 28363, Note_on_c, 8, 68, 0
1, 28363, Note_on_c, 0, 65, 0
1, 28363, Note_on_c, 7, 74, 90
1, 28364, Note_on_c, 8, 65, 0
1, 28365, Note_on_c, 7, 76, 0
1, 28366, Note_on_c, 7, 72, 90
1, 28367, Note_on_c, 0, 63, 71
1, 28367, Note_on_c, 0, 67, 81
1, 28367, Note_on_c, 0, 58, 104
1, 28367, Note_on_c, 8, 58, 101
1, 28367, Note_on_c, 8, 63, 99
1, 28367, Note_on_c, 8, 67, 90
1, 28368, Note_on_c, 7, 74, 0
1, 28368, Note_on_c, 9, 42, 87
1, 28369, Note_on_c, 9, 42, 0
1, 28370, Note_on_c, 7, 71, 84
1, 28371, Note_on_c, 7, 72, 0
1, 28374, Note_on_c, 7, 71, 0
1, 28374, Note_on_c, 7, 69, 76
1, 28377, Note_on_c, 7, 69, 0
1, 28377, Note_on_c, 7, 67, 75
1, 28379, Note_on_c, 0, 63, 0
1, 28380, Note_on_c, 7, 67, 0
1, 28380, Note_on_c, 7, 65, 73
1, 28381, Note_on_c, 0, 58, 0
1, 28383, Note_on_c, 0, 67, 0
1, 28383, Note_on_c, 7, 65, 0
1, 28384, Note_on_c, 8, 63, 0
1, 28384, Note_on_c, 7, 64, 80
1, 28385, Note_on_c, 8, 67, 0
1, 28387, Note_on_c, 7, 64, 0
1, 28388, Note_on_c, 8, 58, 0
1, 28392, Note_on_c, 9, 42, 42
1, 28392, Note_on_c, 11, 72, 124
1, 28393, Note_on_c, 9, 42, 0
1, 28393, Note_on_c, 0, 41, 88
1, 28402, Note_on_c, 11, 72, 0
1, 28403, Note_on_c, 11, 75, 127
1, 28413, Note_on_c, 11, 75, 0
1, 28414, Note_on_c, 2, 92, 0
1, 28415, Note_on_c, 8, 60, 112
1, 28415, Note_on_c, 8, 56, 113
1, 28415, Note_on_c, 8, 65, 100
1, 28416, Note_on_c, 9, 40, 115
1, 28416, Note_on_c, 9, 42, 111
1, 28416, Note_on_c, 11, 77, 127
1, 28417, Note_on_c, 9, 42, 0
1, 28417, Note_on_c, 9, 40, 0
1, 28417, Note_on_c, 0, 63, 119
1, 28417, Note_on_c, 0, 65, 119
1, 28417, Note_on_c, 0, 60, 119
1, 28417, Note_on_c, 0, 68, 119
1, 28418, Note_on_c, 2, 92, 82
1, 28429, Note_on_c, 11, 75, 126
1, 28431, Note_on_c, 0, 65, 0
1, 28432, Note_on_c, 0, 63, 0
1, 28432, Note_on_c, 0, 41, 0
1, 28433, Note_on_c, 11, 77, 0
1, 28435, Note_on_c, 8, 60, 0
1, 28436, Note_on_c, 8, 65, 0
1, 28438, Note_on_c, 8, 56, 0
1, 28438, Note_on_c, 0, 60, 0
1, 28439, Note_on_c, 11, 75, 0
1, 28440, Note_on_c, 4, 68, 0
1, 28440, Note_on_c, 4, 75, 0
1, 28440, Note_on_c, 0, 68, 0
1, 28440, Note_on_c, 4, 72, 0
1, 28440, Note_on_c, 1, 41, 115
1, 28440, Note_on_c, 9, 42, 47
1, 28440, Note_on_c, 11, 72, 102
1, 28441, Note_on_c, 9, 42, 0
1, 28441, Note_on_c, 0, 41, 65
1, 28441, Note_on_c, 0, 53, 80
1, 28451, Note_on_c, 11, 70, 114
1, 28453, Note_on_c, 11, 72, 0
1, 28460, Note_on_c, 11, 70, 0
1, 28463, Note_on_c, 0, 58, 95
1, 28463, Note_on_c, 0, 63, 74
1, 28463, Note_on_c, 0, 67, 85
1, 28463, Note_on_c, 8, 67, 104
1, 28463, Note_on_c, 8, 58, 127
1, 28463, Note_on_c, 8, 63, 104
1, 28464, Note_on_c, 1, 39, 116
1, 28464, Note_on_c, 9, 42, 81
1, 28465, Note_on_c, 9, 42, 0
1, 28465, Note_on_c, 11, 75, 127
1, 28466, Note_on_c, 0, 41, 0
1, 28467, Note_on_c, 1, 41, 0
1, 28469, Note_on_c, 0, 53, 0
1, 28475, Note_on_c, 11, 70, 100
1, 28478, Note_on_c, 0, 58, 0
1, 28479, Note_on_c, 0, 63, 0
1, 28480, Note_on_c, 11, 75, 0
1, 28481, Note_on_c, 0, 67, 0
1, 28484, Note_on_c, 8, 67, 0
1, 28484, Note_on_c, 1, 39, 0
1, 28485, Note_on_c, 8, 63, 0
1, 28485, Note_on_c, 11, 70, 0
1, 28486, Note_on_c, 8, 58, 0
1, 28487, Note_on_c, 8, 60, 122
1, 28487, Note_on_c, 8, 65, 108
1, 28487, Note_on_c, 8, 68, 101
1, 28487, Note_on_c, 11, 65, 115
1, 28488, Note_on_c, 1, 32, 116
1, 28488, Note_on_c, 9, 35, 85
1, 28488, Note_on_c, 9, 42, 60
1, 28489, Note_on_c, 9, 42, 0
1, 28489, Note_on_c, 9, 35, 0
1, 28489, Note_on_c, 0, 63, 110
1, 28489, Note_on_c, 0, 60, 110
1, 28489, Note_on_c, 0, 65, 110
1, 28489, Note_on_c, 0, 68, 110
1, 28496, Note_on_c, 11, 65, 0
1, 28500, Note_on_c, 11, 72, 127
1, 28502, Note_on_c, 0, 63, 0
1, 28502, Note_on_c, 8, 65, 0
1, 28503, Note_on_c, 2, 56, 0
1, 28503, Note_on_c, 2, 60, 0
1, 28503, Note_on_c, 8, 60, 0
1, 28504, Note_on_c, 8, 68, 0
1, 28505, Note_on_c, 0, 65, 0
1, 28506, Note_on_c, 0, 60, 0
1, 28507, Note_on_c, 1, 32, 0
1, 28508, Note_on_c, 0, 68, 0
1, 28511, Note_on_c, 2, 92, 0
1, 28512, Note_on_c, 1, 34, 116
1, 28512, Note_on_c, 9, 42, 101
1, 28512, Note_on_c, 9, 35, 115
1, 28512, Note_on_c, 11, 70, 123
1, 28513, Note_on_c, 9, 35, 0
1, 28513, Note_on_c, 9, 42, 0
1, 28513, Note_on_c, 0, 46, 107
1, 28514, Note_on_c, 11, 72, 0
1, 28514, Note_on_c, 2, 92, 83
1, 28517, Note_on_c, 2, 61, 84
1, 28517, Note_on_c, 2, 58, 85
1, 28522, Note_on_c, 0, 46, 0
1, 28523, Note_on_c, 11, 70, 0
1, 28524, Note_on_c, 11, 65, 104
1, 28528, Note_on_c, 1, 34, 0
1, 28535, Note_on_c, 11, 63, 120
1, 28536, Note_on_c, 0, 46, 99
1, 28536, Note_on_c, 1, 34, 116
1, 28536, Note_on_c, 9, 42, 55
1, 28537, Note_on_c, 9, 42, 0
1, 28537, Note_on_c, 11, 65, 0
1, 28541, Note_on_c, 0, 46, 0
1, 28545, Note_on_c, 11, 63, 0
1, 28548, Note_on_c, 11, 68, 126
1, 28556, Note_on_c, 1, 34, 0
1, 28559, Note_on_c, 11, 63, 104
1, 28560, Note_on_c, 9, 42, 81
1, 28561, Note_on_c, 9, 42, 0
1, 28562, Note_on_c, 11, 68, 0
1, 28571, Note_on_c, 11, 63, 0
1, 28571, Note_on_c, 11, 60, 101
1, 28583, Note_on_c, 0, 46, 82
1, 28583, Note_on_c, 11, 65, 117
1, 28584, Note_on_c, 1, 34, 115
1, 28584, Note_on_c, 9, 42, 73
1, 28585, Note_on_c, 9, 42, 0
1, 28586, Note_on_c, 11, 60, 0
1, 28590, Note_on_c, 0, 46, 0
1, 28595, Note_on_c, 11, 65, 0
1, 28595, Note_on_c, 11, 63, 127
1, 28607, Note_on_c, 2, 92, 0
1, 28607, Note_on_c, 11, 60, 104
1, 28608, Note_on_c, 11, 63, 0
1, 28608, Note_on_c, 9, 40, 115
1, 28608, Note_on_c, 9, 42, 101
1, 28609, Note_on_c, 9, 42, 0
1, 28609, Note_on_c, 9, 40, 0
1, 28610, Note_on_c, 2, 92, 84
1, 28612, Note_on_c, 1, 34, 0
1, 28625, Note_on_c, 11, 60, 0
1, 28631, Note_on_c, 0, 58, 123
1, 28631, Note_on_c, 0, 46, 119
1, 28631, Note_on_c, 0, 65, 127
1, 28631, Note_on_c, 0, 61, 119
1, 28631, Note_on_c, 0, 68, 116
1, 28632, Note_on_c, 1, 34, 115
1, 28632, Note_on_c, 9, 46, 95
1, 28632, Note_on_c, 9, 35, 115
1, 28633, Note_on_c, 9, 35, 0
1, 28633, Note_on_c, 9, 46, 0
1, 28639, Note_on_c, 0, 46, 0
1, 28646, Note_on_c, 0, 65, 0
1, 28654, Note_on_c, 0, 61, 0
1, 28655, Note_on_c, 0, 68, 0
1, 28656, Note_on_c, 0, 58, 0
1, 28656, Note_on_c, 9, 42, 85
1, 28657, Note_on_c, 9, 42, 0
1, 28662, Note_on_c, 1, 34, 0
1, 28679, Note_on_c, 0, 58, 116
1, 28679, Note_on_c, 0, 61, 119
1, 28679, Note_on_c, 0, 66, 123
1, 28680, Note_on_c, 0, 39, 89
1, 28680, Note_on_c, 0, 51, 107
1, 28680, Note_on_c, 1, 39, 115
1, 28680, Note_on_c, 9, 35, 85
1, 28680, Note_on_c, 9, 46, 97
1, 28680, Note_on_c, 10, 73, 111
1, 28680, Note_on_c, 10, 77, 122
1, 28681, Note_on_c, 9, 46, 0
1, 28681, Note_on_c, 9, 35, 0
1, 28695, Note_on_c, 10, 73, 0
1, 28696, Note_on_c, 10, 77, 0
1, 28698, Note_on_c, 0, 61, 0
1, 28699, Note_on_c, 2, 65, 0
1, 28700, Note_on_c, 0, 58, 0
1, 28700, Note_on_c, 0, 39, 0
1, 28700, Note_on_c, 0, 66, 0
1, 28701, Note_on_c, 2, 92, 0
1, 28703, Note_on_c, 2, 61, 0
1, 28704, Note_on_c, 2, 58, 0
1, 28704, Note_on_c, 0, 51, 0
1, 28704, Note_on_c, 9, 42, 79
1, 28704, Note_on_c, 9, 35, 115
1, 28705, Note_on_c, 9, 35, 0
1, 28705, Note_on_c, 9, 42, 0
1, 28705, Note_on_c, 2, 54, 81
1, 28706, Note_on_c, 1, 39, 0
1, 28706, Note_on_c, 2, 92, 83
1, 28706, Note_on_c, 2, 65, 82
1, 28707, Note_on_c, 2, 58, 89
1, 28727, Note_on_c, 0, 66, 119
1, 28727, Note_on_c, 0, 61, 113
1, 28727, Note_on_c, 0, 58, 107
1, 28727, Note_on_c, 8, 63, 110
1, 28727, Note_on_c, 8, 66, 110
1, 28727, Note_on_c, 8, 58, 119
1, 28728, Note_on_c, 9, 42, 63
1, 28729, Note_on_c, 9, 42, 0
1, 28740, Note_on_c, 8, 63, 0
1, 28741, Note_on_c, 0, 58, 0
1, 28741, Note_on_c, 0, 61, 0
1, 28742, Note_on_c, 8, 66, 0
1, 28743, Note_on_c, 8, 58, 0
1, 28743, Note_on_c, 0, 66, 0
1, 28751, Note_on_c, 8, 56, 110
1, 28751, Note_on_c, 8, 65, 97
1, 28751, Note_on_c, 8, 61, 97
1, 28752, Note_on_c, 9, 42, 107
1, 28753, Note_on_c, 9, 42, 0
1, 28753, Note_on_c, 0, 61, 95
1, 28753, Note_on_c, 0, 56, 107
1, 28753, Note_on_c, 0, 65, 106
1, 28765, Note_on_c, 0, 61, 0
1, 28767, Note_on_c, 0, 65, 0
1, 28768, Note_on_c, 0, 56, 0
1, 28769, Note_on_c, 8, 61, 0
1, 28772, Note_on_c, 8, 56, 0
1, 28772, Note_on_c, 8, 65, 0
1, 28775, Note_on_c, 11, 60, 127
1, 28776, Note_on_c, 1, 34, 114
1, 28776, Note_on_c, 9, 42, 72
1, 28777, Note_on_c, 9, 42, 0
1, 28777, Note_on_c, 0, 39, 85
1, 28783, Note_on_c, 0, 39, 0
1, 28786, Note_on_c, 11, 60, 0
1, 28787, Note_on_c, 11, 65, 111
1, 28795, Note_on_c, 1, 34, 0
1, 28798, Note_on_c, 2, 92, 0
1, 28799, Note_on_c, 8, 58, 104
1, 28799, Note_on_c, 8, 54, 104
1, 28799, Note_on_c, 8, 63, 104
1, 28800, Note_on_c, 1, 39, 114
1, 28800, Note_on_c, 9, 40, 115
1, 28800, Note_on_c, 9, 42, 76
1, 28800, Note_on_c, 11, 70, 126
1, 28801, Note_on_c, 9, 42, 0
1, 28801, Note_on_c, 9, 40, 0
1, 28801, Note_on_c, 11, 65, 0
1, 28801, Note_on_c, 0, 66, 127
1, 28801, Note_on_c, 0, 58, 119
1, 28801, Note_on_c, 0, 61, 127
1, 28802, Note_on_c, 2, 92, 83
1, 28812, Note_on_c, 11, 65, 121
1, 28813, Note_on_c, 11, 70, 0
1, 28815, Note_on_c, 0, 61, 0
1, 28816, Note_on_c, 0, 58, 0
1, 28818, Note_on_c, 8, 58, 0
1, 28819, Note_on_c, 0, 66, 0
1, 28819, Note_on_c, 1, 39, 0
1, 28820, Note_on_c, 8, 63, 0
1, 28823, Note_on_c, 11, 68, 111
1, 28824, Note_on_c, 11, 65, 0
1, 28824, Note_on_c, 0, 39, 85
1, 28824, Note_on_c, 1, 27, 114
1, 28824, Note_on_c, 9, 42, 70
1, 28825, Note_on_c, 9, 42, 0
1, 28829, Note_on_c, 8, 54, 0
1, 28834, Note_on_c, 11, 68, 0
1, 28835, Note_on_c, 11, 72, 98
1, 28845, Note_on_c, 1, 27, 0
1, 28845, Note_on_c, 0, 39, 0
1, 28847, Note_on_c, 0, 68, 107
1, 28847, Note_on_c, 0, 61, 110
1, 28847, Note_on_c, 0, 65, 106
1, 28847, Note_on_c, 8, 61, 110
1, 28847, Note_on_c, 8, 65, 114
1, 28847, Note_on_c, 8, 56, 119
1, 28847, Note_on_c, 11, 70, 123
1, 28848, Note_on_c, 1, 29, 116
1, 28848, Note_on_c, 9, 42, 72
1, 28849, Note_on_c, 9, 42, 0
1, 28849, Note_on_c, 0, 51, 104
1, 28850, Note_on_c, 11, 72, 0
1, 28859, Note_on_c, 0, 51, 0
1, 28860, Note_on_c, 8, 61, 0
1, 28860, Note_on_c, 11, 68, 108
1, 28862, Note_on_c, 0, 65, 0
1, 28863, Note_on_c, 0, 61, 0
1, 28864, Note_on_c, 11, 70, 0
1, 28865, Note_on_c, 0, 68, 0
1, 28868, Note_on_c, 8, 65, 0
1, 28870, Note_on_c, 11, 68, 0
1, 28871, Note_on_c, 11, 65, 99
1, 28872, Note_on_c, 1, 30, 116
1, 28872, Note_on_c, 8, 63, 95
1, 28872, Note_on_c, 8, 66, 104
1, 28872, Note_on_c, 9, 35, 86
1, 28872, Note_on_c, 9, 42, 73
1, 28873, Note_on_c, 9, 42, 0
1, 28873, Note_on_c, 9, 35, 0
1, 28873, Note_on_c, 0, 44, 78
1, 28873, Note_on_c, 0, 66, 95
1, 28873, Note_on_c, 0, 61, 104
1, 28873, Note_on_c, 0, 58, 107
1, 28873, Note_on_c, 8, 58, 113
1, 28875, Note_on_c, 1, 29, 0
1, 28877, Note_on_c, 8, 56, 0
1, 28882, Note_on_c, 11, 65, 0
1, 28883, Note_on_c, 0, 44, 0
1, 28885, Note_on_c, 8, 58, 0
1, 28885, Note_on_c, 11, 72, 127
1, 28886, Note_on_c, 8, 63, 0
1, 28886, Note_on_c, 8, 66, 0
1, 28890, Note_on_c, 0, 61, 0
1, 28891, Note_on_c, 0, 66, 0
1, 28893, Note_on_c, 0, 58, 0
1, 28894, Note_on_c, 1, 30, 0
1, 28895, Note_on_c, 2, 92, 0
1, 28895, Note_on_c, 2, 61, 86
1, 28896, Note_on_c, 1, 32, 116
1, 28896, Note_on_c, 9, 35, 115
1, 28896, Note_on_c, 9, 42, 115
1, 28896, Note_on_c, 11, 70, 91
1, 28897, Note_on_c, 9, 42, 0
1, 28897, Note_on_c, 9, 35, 0
1, 28898, Note_on_c, 2, 65, 0
1, 28898, Note_on_c, 2, 92, 84
1, 28902, Note_on_c, 11, 72, 0
1, 28907, Note_on_c, 11, 68, 120
1, 28910, Note_on_c, 11, 70, 0
1, 28916, Note_on_c, 1, 32, 0
1, 28919, Note_on_c, 11, 66, 108
1, 28920, Note_on_c, 9, 42, 69
1, 28921, Note_on_c, 9, 42, 0
1, 28921, Note_on_c, 11, 68, 0
1, 28921, Note_on_c, 0, 58, 85
1, 28921, Note_on_c, 0, 66, 97
1, 28921, Note_on_c, 0, 61, 89
1, 28928, Note_on_c, 0, 61, 0
1, 28931, Note_on_c, 11, 65, 101
1, 28932, Note_on_c, 11, 66, 0
1, 28933, Note_on_c, 0, 66, 0
1, 28933, Note_on_c, 0, 58, 0
1, 28940, Note_on_c, 11, 65, 0
1, 28944, Note_on_c, 9, 42, 107
1, 28944, Note_on_c, 11, 63, 127
1, 28945, Note_on_c, 9, 42, 0
1, 28957, Note_on_c, 11, 63, 0
1, 28957, Note_on_c, 11, 61, 114
1, 28967, Note_on_c, 11, 60, 98
1, 28968, Note_on_c, 11, 61, 0
1, 28968, Note_on_c, 1, 32, 114
1, 28968, Note_on_c, 9, 42, 72
1, 28969, Note_on_c, 9, 42, 0
1, 28969, Note_on_c, 0, 44, 107
1, 28973, Note_on_c, 0, 44, 0
1, 28975, Note_on_c, 11, 60, 0
1, 28980, Note_on_c, 11, 58, 114
1, 28982, Note_on_c, 2, 58, 0
1, 28982, Note_on_c, 1, 32, 0
1, 28990, Note_on_c, 2, 92, 0
1, 28991, Note_on_c, 0, 58, 97
1, 28991, Note_on_c, 0, 61, 97
1, 28991, Note_on_c, 0, 66, 107
1, 28991, Note_on_c, 11, 56, 127
1, 28992, Note_on_c, 2, 61, 0
1, 28992, Note_on_c, 1, 32, 114
1, 28992, Note_on_c, 9, 42, 101
1, 28992, Note_on_c, 9, 40, 115
1, 28993, Note_on_c, 9, 40, 0
1, 28993, Note_on_c, 9, 42, 0
1, 28993, Note_on_c, 11, 58, 0
1, 28993, Note_on_c, 0, 44, 101
1, 28993, Note_on_c, 2, 56, 80
1, 28993, Note_on_c, 2, 60, 84
1, 28993, Note_on_c, 2, 63, 80
1, 28994, Note_on_c, 2, 54, 0
1, 28994, Note_on_c, 2, 92, 84
1, 28997, Note_on_c, 0, 61, 0
1, 28997, Note_on_c, 0, 44, 0
1, 28998, Note_on_c, 0, 66, 0
1, 28999, Note_on_c, 0, 58, 0
1, 29011, Note_on_c, 1, 32, 0
1, 29014, Note_on_c, 11, 56, 0
1, 29016, Note_on_c, 1, 32, 114
1, 29016, Note_on_c, 9, 35, 115
1, 29016, Note_on_c, 9, 46, 94
1, 29016, Note_on_c, 10, 70, 122
1, 29016, Note_on_c, 10, 73, 122
1, 29017, Note_on_c, 9, 46, 0
1, 29017, Note_on_c, 9, 35, 0
1, 29017, Note_on_c, 0, 58, 119
1, 29017, Note_on_c, 0, 61, 123
1, 29017, Note_on_c, 0, 66, 127
1, 29017, Note_on_c, 0, 44, 101
1, 29023, Note_on_c, 0, 44, 0
1, 29025, Note_on_c, 10, 70, 0
1, 29031, Note_on_c, 0, 61, 0
1, 29035, Note_on_c, 10, 73, 0
1, 29036, Note_on_c, 0, 58, 0
1, 29037, Note_on_c, 0, 66, 0
1, 29040, Note_on_c, 9, 42, 83
1, 29041, Note_on_c, 9, 42, 0
1, 29045, Note_on_c, 1, 32, 0
1, 29059, Note_on_c, 2, 56, 0
1, 29062, Note_on_c, 2, 64, 82
1, 29062, Note_on_c, 2, 61, 80
1, 29063, Note_on_c, 0, 64, 110
1, 29063, Note_on_c, 0, 37, 89
1, 29063, Note_on_c, 0, 68, 101
1, 29063, Note_on_c, 0, 59, 106
1, 29063, Note_on_c, 2, 56, 82
1, 29063, Note_on_c, 10, 71, 122
1, 29063, Note_on_c, 10, 75, 122
1, 29064, Note_on_c, 2, 63, 0
1, 29064, Note_on_c, 2, 60, 0
1, 29064, Note_on_c, 1, 37, 113
1, 29064, Note_on_c, 9, 35, 113
1, 29064, Note_on_c, 9, 46, 97
1, 29065, Note_on_c, 9, 46, 0
1, 29065, Note_on_c, 9, 35, 0
1, 29065, Note_on_c, 0, 49, 99
1, 29070, Note_on_c, 0, 49, 0
1, 29071, Note_on_c, 0, 37, 0
1, 29081, Note_on_c, 10, 75, 0
1, 29081, Note_on_c, 0, 64, 0
1, 29084, Note_on_c, 10, 71, 0
1, 29084, Note_on_c, 0, 68, 0
1, 29085, Note_on_c, 0, 59, 0
1, 29087, Note_on_c, 2, 92, 0
1, 29088, Note_on_c, 9, 35, 113
1, 29088, Note_on_c, 9, 42, 73
1, 29089, Note_on_c, 9, 42, 0
1, 29089, Note_on_c, 9, 35, 0
1, 29090, Note_on_c, 2, 92, 83
1, 29091, Note_on_c, 1, 37, 0
1, 29111, Note_on_c, 8, 56, 102
1, 29111, Note_on_c, 8, 64, 112
1, 29112, Note_on_c, 0, 64, 120
1, 29112, Note_on_c, 0, 59, 108
1, 29112, Note_on_c, 8, 61, 87
1, 29112, Note_on_c, 9, 42, 70
1, 29113, Note_on_c, 9, 42, 0
1, 29113, Note_on_c, 0, 68, 116
1, 29113, Note_on_c, 0, 49, 99
1, 29113, Note_on_c, 0, 37, 85
1, 29114, Note_on_c, 8, 61, 0
1, 29118, Note_on_c, 0, 49, 0
1, 29118, Note_on_c, 0, 37, 0
1, 29124, Note_on_c, 8, 56, 0
1, 29124, Note_on_c, 0, 59, 0
1, 29128, Note_on_c, 0, 68, 0
1, 29128, Note_on_c, 8, 64, 0
1, 29130, Note_on_c, 0, 64, 0
1, 29135, Note_on_c, 8, 63, 95
1, 29135, Note_on_c, 8, 54, 97
1, 29135, Note_on_c, 8, 58, 95
1, 29136, Note_on_c, 0, 66, 87
1, 29136, Note_on_c, 0, 63, 97
1, 29136, Note_on_c, 0, 58, 113
1, 29136, Note_on_c, 1, 32, 112
1, 29136, Note_on_c, 9, 42, 98
1, 29137, Note_on_c, 9, 42, 0
1, 29153, Note_on_c, 8, 58, 0
1, 29153, Note_on_c, 8, 63, 0
1, 29154, Note_on_c, 0, 63, 0
1, 29155, Note_on_c, 0, 58, 0
1, 29156, Note_on_c, 0, 66, 0
1, 29158, Note_on_c, 8, 54, 0
1, 29159, Note_on_c, 0, 37, 85
1, 29160, Note_on_c, 1, 32, 0
1, 29160, Note_on_c, 1, 35, 112
1, 29160, Note_on_c, 9, 42, 87
1, 29160, Note_on_c, 11, 52, 121
1, 29161, Note_on_c, 9, 42, 0
1, 29166, Note_on_c, 0, 37, 0
1, 29169, Note_on_c, 11, 52, 0
1, 29172, Note_on_c, 11, 56, 126
1, 29181, Note_on_c, 11, 56, 0
1, 29181, Note_on_c, 1, 35, 0
1, 29183, Note_on_c, 2, 92, 0
1, 29183, Note_on_c, 8, 61, 110
1, 29183, Note_on_c, 8, 56, 113
1, 29183, Note_on_c, 8, 52, 108
1, 29184, Note_on_c, 0, 64, 122
1, 29184, Note_on_c, 0, 59, 114
1, 29184, Note_on_c, 0, 68, 116
1, 29184, Note_on_c, 1, 37, 112
1, 29184, Note_on_c, 9, 42, 72
1, 29184, Note_on_c, 9, 40, 115
1, 29185, Note_on_c, 9, 40, 0
1, 29185, Note_on_c, 9, 42, 0
1, 29185, Note_on_c, 11, 58, 127
1, 29186, Note_on_c, 2, 92, 82
1, 29200, Note_on_c, 8, 56, 0
1, 29200, Note_on_c, 8, 61, 0
1, 29206, Note_on_c, 0, 64, 0
1, 29207, Note_on_c, 11, 58, 0
1, 29207, Note_on_c, 8, 52, 0
1, 29207, Note_on_c, 0, 37, 95
1, 29208, Note_on_c, 0, 59, 0
1, 29208, Note_on_c, 9, 42, 60
1, 29209, Note_on_c, 9, 42, 0
1, 29209, Note_on_c, 11, 59, 115
1, 29210, Note_on_c, 1, 37, 0
1, 29211, Note_on_c, 0, 68, 0
1, 29227, Note_on_c, 11, 59, 0
1, 29230, Note_on_c, 0, 37, 0
1, 29231, Note_on_c, 0, 58, 110
1, 29231, Note_on_c, 8, 63, 107
1, 29231, Note_on_c, 8, 58, 110
1, 29231, Note_on_c, 8, 54, 116
1, 29232, Note_on_c, 0, 63, 113
1, 29232, Note_on_c, 0, 66, 99
1, 29232, Note_on_c, 1, 32, 112
1, 29232, Note_on_c, 9, 42, 85
1, 29233, Note_on_c, 9, 42, 0
1, 29233, Note_on_c, 0, 49, 99
1, 29233, Note_on_c, 11, 61, 126
1, 29242, Note_on_c, 11, 61, 0
1, 29243, Note_on_c, 0, 49, 0
1, 29245, Note_on_c, 11, 63, 127
1, 29250, Note_on_c, 0, 63, 0
1, 29251, Note_on_c, 1, 32, 0
1, 29251, Note_on_c, 0, 58, 0
1, 29252, Note_on_c, 0, 66, 0
1, 29252, Note_on_c, 8, 63, 0
1, 29253, Note_on_c, 8, 58, 0
1, 29255, Note_on_c, 8, 54, 0
1, 29256, Note_on_c, 1, 25, 112
1, 29256, Note_on_c, 9, 35, 82
1, 29256, Note_on_c, 9, 42, 83
1, 29257, Note_on_c, 9, 42, 0
1, 29257, Note_on_c, 9, 35, 0
1, 29257, Note_on_c, 0, 64, 104
1, 29257, Note_on_c, 0, 59, 104
1, 29257, Note_on_c, 0, 68, 104
1, 29257, Note_on_c, 8, 59, 106
1, 29257, Note_on_c, 8, 56, 113
1, 29257, Note_on_c, 8, 64, 112
1, 29258, Note_on_c, 11, 63, 0
1, 29266, Note_on_c, 11, 64, 121
1, 29272, Note_on_c, 8, 56, 0
1, 29272, Note_on_c, 8, 59, 0
1, 29273, Note_on_c, 8, 64, 0
1, 29277, Note_on_c, 2, 61, 0
1, 29278, Note_on_c, 2, 59, 83
1, 29279, Note_on_c, 0, 68, 0
1, 29279, Note_on_c, 2, 92, 0
1, 29279, Note_on_c, 0, 64, 0
1, 29279, Note_on_c, 11, 68, 126
1, 29280, Note_on_c, 1, 30, 112
1, 29280, Note_on_c, 9, 42, 115
1, 29280, Note_on_c, 9, 35, 115
1, 29281, Note_on_c, 9, 35, 0
1, 29281, Note_on_c, 9, 42, 0
1, 29281, Note_on_c, 0, 59, 0
1, 29281, Note_on_c, 11, 64, 0
1, 29281, Note_on_c, 0, 42, 119
1, 29282, Note_on_c, 2, 92, 82
1, 29283, Note_on_c, 1, 25, 0
1, 29291, Note_on_c, 11, 68, 0
1, 29296, Note_on_c, 11, 71, 115
1, 29304, Note_on_c, 9, 42, 55
1, 29305, Note_on_c, 9, 42, 0
1, 29305, Note_on_c, 0, 64, 97
1, 29305, Note_on_c, 0, 59, 92
1, 29305, Note_on_c, 0, 68, 81
1, 29312, Note_on_c, 1, 30, 0
1, 29313, Note_on_c, 11, 71, 0
1, 29314, Note_on_c, 11, 64, 124
1, 29328, Note_on_c, 9, 42, 83
1, 29328, Note_on_c, 11, 71, 113
1, 29329, Note_on_c, 9, 42, 0
1, 29330, Note_on_c, 11, 64, 0
1, 29343, Note_on_c, 11, 71, 0
1, 29343, Note_on_c, 11, 76, 127
1, 29345, Note_on_c, 0, 64, 0
1, 29345, Note_on_c, 0, 59, 0
1, 29346, Note_on_c, 0, 68, 0
1, 29352, Note_on_c, 1, 30, 113
1, 29352, Note_on_c, 9, 42, 83
1, 29353, Note_on_c, 9, 42, 0
1, 29353, Note_on_c, 0, 42, 0
1, 29353, Note_on_c, 0, 59, 61
1, 29353, Note_on_c, 0, 68, 59
1, 29353, Note_on_c, 0, 64, 80
1, 29353, Note_on_c, 0, 54, 79
1, 29359, Note_on_c, 11, 75, 114
1, 29361, Note_on_c, 0, 59, 0
1, 29362, Note_on_c, 0, 54, 0
1, 29363, Note_on_c, 11, 76, 0
1, 29364, Note_on_c, 1, 30, 0
1, 29366, Note_on_c, 0, 68, 0
1, 29368, Note_on_c, 0, 64, 0
1, 29373, Note_on_c, 2, 59, 0
1, 29373, Note_on_c, 2, 64, 0
1, 29374, Note_on_c, 2, 56, 0
1, 29375, Note_on_c, 2, 92, 0
1, 29376, Note_on_c, 1, 30, 113
1, 29376, Note_on_c, 2, 54, 81
1, 29376, Note_on_c, 9, 40, 115
1, 29376, Note_on_c, 9, 42, 101
1, 29376, Note_on_c, 11, 73, 126
1, 29377, Note_on_c, 9, 42, 0
1, 29377, Note_on_c, 9, 40, 0
1, 29377, Note_on_c, 0, 64, 104
1, 29377, Note_on_c, 0, 66, 101
1, 29377, Note_on_c, 0, 58, 116
1, 29377, Note_on_c, 0, 61, 107
1, 29377, Note_on_c, 0, 42, 113
1, 29377, Note_on_c, 2, 58, 80
1, 29378, Note_on_c, 11, 75, 0
1, 29378, Note_on_c, 2, 94, 82
1, 29378, Note_on_c, 2, 61, 84
1, 29395, Note_on_c, 1, 30, 0
1, 29400, Note_on_c, 1, 37, 113
1, 29400, Note_on_c, 8, 42, 127
1, 29400, Note_on_c, 9, 46, 83
1, 29400, Note_on_c, 9, 35, 115
1, 29400, Note_on_c, 10, 68, 122
1, 29400, Note_on_c, 10, 71, 122
1, 29401, Note_on_c, 9, 35, 0
1, 29401, Note_on_c, 9, 46, 0
1, 29416, Note_on_c, 10, 68, 0
1, 29418, Note_on_c, 8, 42, 0
1, 29419, Note_on_c, 10, 71, 0
1, 29424, Note_on_c, 9, 42, 89
1, 29425, Note_on_c, 9, 42, 0
1, 29425, Note_on_c, 11, 73, 0
1, 29425, Note_on_c, 0, 54, 119
1, 29425, Note_on_c, 11, 75, 117
1, 29426, Note_on_c, 1, 37, 0
1, 29428, Note_on_c, 0, 64, 0
1, 29430, Note_on_c, 0, 66, 0
1, 29431, Note_on_c, 0, 61, 0
1, 29435, Note_on_c, 0, 58, 0
1, 29447, Note_on_c, 8, 35, 123
1, 29448, Note_on_c, 1, 35, 114
1, 29448, Note_on_c, 9, 46, 92
1, 29448, Note_on_c, 9, 35, 81
1, 29449, Note_on_c, 9, 35, 0
1, 29449, Note_on_c, 9, 46, 0
1, 29449, Note_on_c, 10, 70, 122
1, 29449, Note_on_c, 10, 73, 122
1, 29451, Note_on_c, 11, 70, 106
1, 29452, Note_on_c, 11, 75, 0
1, 29460, Note_on_c, 0, 54, 0
1, 29463, Note_on_c, 10, 70, 0
1, 29465, Note_on_c, 8, 35, 0
1, 29465, Note_on_c, 10, 73, 0
1, 29466, Note_on_c, 0, 42, 0
1, 29469, Note_on_c, 2, 63, 83
1, 29470, Note_on_c, 2, 61, 0
1, 29471, Note_on_c, 0, 47, 97
1, 29471, Note_on_c, 0, 59, 98
1, 29471, Note_on_c, 0, 58, 101
1, 29471, Note_on_c, 0, 63, 107
1, 29471, Note_on_c, 0, 54, 116
1, 29471, Note_on_c, 2, 90, 83
1, 29472, Note_on_c, 9, 35, 110
1, 29472, Note_on_c, 9, 42, 77
1, 29473, Note_on_c, 9, 42, 0
1, 29473, Note_on_c, 9, 35, 0
1, 29473, Note_on_c, 2, 94, 0
1, 29496, Note_on_c, 9, 40, 96
1, 29496, Note_on_c, 9, 46, 110
1, 29497, Note_on_c, 9, 46, 0
1, 29497, Note_on_c, 9, 40, 0
1, 29520, Note_on_c, 9, 40, 115
1, 29521, Note_on_c, 9, 40, 0
1, 29533, Note_on_c, 1, 35, 0
1, 29544, Note_on_c, 1, 35, 79
1, 29544, Note_on_c, 9, 40, 86
1, 29545, Note_on_c, 9, 40, 0
1, 29556, Note_on_c, 9, 40, 115
1, 29557, Note_on_c, 9, 40, 0
1, 29558, Note_on_c, 11, 70, 0
1, 29559, Note_on_c, 1, 35, 0
1, 29568, Note_on_c, 1, 35, 89
1, 29568, Note_on_c, 9, 47, 110
1, 29569, Note_on_c, 9, 47, 0
1, 29585, Note_on_c, 1, 35, 0
1, 29592, Note_on_c, 1, 35, 97
1, 29592, Note_on_c, 9, 45, 115
1, 29593, Note_on_c, 9, 45, 0
1, 29608, Note_on_c, 1, 35, 0
1, 29616, Note_on_c, 1, 35, 104
1, 29616, Note_on_c, 9, 45, 115
1, 29617, Note_on_c, 9, 45, 0
1, 29621, Note_on_c, 0, 54, 0
1, 29622, Note_on_c, 0, 58, 0
1, 29622, Note_on_c, 0, 59, 0
1, 29623, Note_on_c, 0, 47, 0
1, 29624, Note_on_c, 0, 63, 0
1, 29630, Note_on_c, 1, 35, 0
1, 29640, Note_on_c, 1, 35, 109
1, 29640, Note_on_c, 9, 41, 115
1, 29641, Note_on_c, 9, 41, 0
1, 29652, Note_on_c, 2, 54, 0
1, 29652, Note_on_c, 2, 63, 0
1, 29658, Note_on_c, 1, 35, 0
1, 29659, Note_on_c, 2, 58, 0
1, 29661, Note_on_c, 2, 90, 0
1, 29662, Note_on_c, 2, 88, 89
1, 29663, Note_on_c, 2, 56, 85
1, 29663, Note_on_c, 2, 61, 84
1, 29664, Note_on_c, 0, 61, 104
1, 29664, Note_on_c, 0, 56, 119
1, 29664, Note_on_c, 0, 37, 97
1, 29664, Note_on_c, 0, 64, 117
1, 29664, Note_on_c, 0, 49, 116
1, 29664, Note_on_c, 1, 37, 115
1, 29664, Note_on_c, 2, 52, 85
1, 29664, Note_on_c, 9, 35, 115
1, 29665, Note_on_c, 9, 35, 0
1, 29665, Note_on_c, 0, 59, 110
1, 29665, Note_on_c, 9, 49, 77
1, 29666, Note_on_c, 9, 49, 0
1, 29666, Note_on_c, 7, 80, 105
1, 29666, Note_on_c, 8, 37, 113
1, 29667, Note_on_c, 7, 76, 114
1, 29668, Note_on_c, 10, 64, 107
1, 29707, Note_on_c, 1, 37, 0
1, 29712, Note_on_c, 1, 35, 120
1, 29712, Note_on_c, 9, 42, 91
1, 29713, Note_on_c, 9, 42, 0
1, 29735, Note_on_c, 1, 35, 0
1, 29736, Note_on_c, 1, 37, 112
1, 29743, Note_on_c, 0, 56, 0
1, 29743, Note_on_c, 0, 59, 0
1, 29746, Note_on_c, 0, 37, 0
1, 29747, Note_on_c, 0, 64, 0
1, 29749, Note_on_c, 0, 49, 0
1, 29749, Note_on_c, 0, 61, 0
1, 29752, Note_on_c, 2, 61, 0
1, 29752, Note_on_c, 2, 56, 0
1, 29753, Note_on_c, 10, 64, 0
1, 29755, Note_on_c, 7, 76, 0
1, 29756, Note_on_c, 2, 52, 0
1, 29756, Note_on_c, 7, 80, 0
1, 29757, Note_on_c, 2, 88, 0
1, 29757, Note_on_c, 8, 37, 0
1, 29758, Note_on_c, 1, 37, 0
1, 29758, Note_on_c, 2, 58, 83
1, 29758, Note_on_c, 7, 78, 127
1, 29759, Note_on_c, 2, 63, 82
1, 29759, Note_on_c, 2, 54, 81
1, 29760, Note_on_c, 1, 39, 112
1, 29760, Note_on_c, 9, 35, 115
1, 29761, Note_on_c, 9, 35, 0
1, 29761, Note_on_c, 0, 51, 119
1, 29761, Note_on_c, 0, 66, 113
1, 29761, Note_on_c, 0, 58, 113
1, 29761, Note_on_c, 0, 63, 116
1, 29761, Note_on_c, 0, 39, 97
1, 29761, Note_on_c, 0, 61, 127
1, 29761, Note_on_c, 9, 57, 77
1, 29762, Note_on_c, 9, 57, 0
1, 29762, Note_on_c, 7, 82, 117
1, 29762, Note_on_c, 8, 39, 127
1, 29763, Note_on_c, 2, 90, 86
1, 29764, Note_on_c, 10, 66, 110
1, 29807, Note_on_c, 1, 39, 0
1, 29808, Note_on_c, 1, 37, 112
1, 29808, Note_on_c, 9, 42, 89
1, 29809, Note_on_c, 9, 42, 0
1, 29829, Note_on_c, 1, 37, 0
1, 29832, Note_on_c, 1, 39, 114
1, 29833, Note_on_c, 0, 58, 0
1, 29833, Note_on_c, 0, 61, 0
1, 29834, Note_on_c, 0, 51, 0
1, 29835, Note_on_c, 0, 63, 0
1, 29836, Note_on_c, 0, 39, 0
1, 29840, Note_on_c, 0, 66, 0
1, 29849, Note_on_c, 10, 66, 0
1, 29850, Note_on_c, 2, 54, 0
1, 29850, Note_on_c, 2, 58, 0
1, 29851, Note_on_c, 7, 82, 0
1, 29851, Note_on_c, 2, 63, 0
1, 29853, Note_on_c, 7, 78, 0
1, 29855, Note_on_c, 1, 39, 0
1, 29855, Note_on_c, 2, 56, 84
1, 29856, Note_on_c, 1, 41, 116
1, 29856, Note_on_c, 2, 60, 83
1, 29856, Note_on_c, 2, 65, 83
1, 29856, Note_on_c, 7, 80, 113
1, 29856, Note_on_c, 9, 49, 83
1, 29856, Note_on_c, 9, 35, 115
1, 29857, Note_on_c, 9, 35, 0
1, 29857, Note_on_c, 9, 49, 0
1, 29857, Note_on_c, 8, 39, 0
1, 29858, Note_on_c, 2, 90, 0
1, 29858, Note_on_c, 2, 92, 82
1, 29858, Note_on_c, 7, 84, 122
1, 29858, Note_on_c, 8, 41, 127
1, 29860, Note_on_c, 10, 68, 112
1, 29879, Note_on_c, 0, 65, 117
1, 29879, Note_on_c, 0, 68, 117
1, 29879, Note_on_c, 0, 60, 117
1, 29879, Note_on_c, 0, 63, 117
1, 29891, Note_on_c, 8, 41, 0
1, 29892, Note_on_c, 10, 68, 0
1, 29892, Note_on_c, 7, 80, 0
1, 29894, Note_on_c, 0, 60, 0
1, 29895, Note_on_c, 7, 84, 0
1, 29895, Note_on_c, 0, 63, 0
1, 29898, Note_on_c, 0, 68, 0
1, 29899, Note_on_c, 0, 65, 0
1, 29903, Note_on_c, 1, 41, 0
1, 29903, Note_on_c, 0, 58, 104
1, 29903, Note_on_c, 0, 67, 81
1, 29903, Note_on_c, 0, 63, 71
1, 29904, Note_on_c, 9, 42, 87
1, 29905, Note_on_c, 9, 42, 0
1, 29915, Note_on_c, 0, 63, 0
1, 29917, Note_on_c, 0, 58, 0
1, 29919, Note_on_c, 0, 67, 0
1, 29928, Note_on_c, 9, 42, 42
1, 29929, Note_on_c, 9, 42, 0
1, 29929, Note_on_c, 0, 41, 88
1, 29950, Note_on_c, 2, 92, 0
1, 29952, Note_on_c, 9, 40, 115
1, 29952, Note_on_c, 9, 42, 111
1, 29953, Note_on_c, 9, 42, 0
1, 29953, Note_on_c, 9, 40, 0
1, 29953, Note_on_c, 0, 60, 119
1, 29953, Note_on_c, 0, 65, 119
1, 29953, Note_on_c, 0, 68, 119
1, 29953, Note_on_c, 0, 63, 119
1, 29954, Note_on_c, 2, 92, 83
1, 29967, Note_on_c, 0, 65, 0
1, 29968, Note_on_c, 0, 63, 0
1, 29968, Note_on_c, 0, 41, 0
1, 29974, Note_on_c, 0, 60, 0
1, 29976, Note_on_c, 0, 68, 0
1, 29976, Note_on_c, 9, 42, 47
1, 29977, Note_on_c, 9, 42, 0
1, 29977, Note_on_c, 0, 41, 65
1, 29977, Note_on_c, 0, 53, 80
1, 29977, Note_on_c, 11, 65, 127
1, 29996, Note_on_c, 11, 65, 0
1, 29999, Note_on_c, 0, 67, 85
1, 29999, Note_on_c, 0, 63, 74
1, 29999, Note_on_c, 0, 58, 95
1, 29999, Note_on_c, 11, 72, 127
1, 30000, Note_on_c, 9, 42, 81
1, 30001, Note_on_c, 9, 42, 0
1, 30002, Note_on_c, 0, 41, 0
1, 30005, Note_on_c, 0, 53, 0
1, 30014, Note_on_c, 0, 58, 0
1, 30015, Note_on_c, 0, 63, 0
1, 30017, Note_on_c, 0, 67, 0
1, 30020, Note_on_c, 11, 72, 0
1, 30024, Note_on_c, 1, 32, 120
1, 30024, Note_on_c, 9, 35, 85
1, 30024, Note_on_c, 9, 42, 60
1, 30024, Note_on_c, 11, 77, 127
1, 30025, Note_on_c, 9, 42, 0
1, 30025, Note_on_c, 9, 35, 0
1, 30025, Note_on_c, 0, 63, 110
1, 30025, Note_on_c, 0, 68, 110
1, 30025, Note_on_c, 0, 60, 110
1, 30025, Note_on_c, 0, 65, 110
1, 30038, Note_on_c, 0, 63, 0
1, 30039, Note_on_c, 2, 65, 0
1, 30041, Note_on_c, 0, 65, 0
1, 30041, Note_on_c, 2, 60, 0
1, 30042, Note_on_c, 0, 60, 0
1, 30044, Note_on_c, 0, 68, 0
1, 30044, Note_on_c, 1, 32, 0
1, 30045, Note_on_c, 2, 56, 0
1, 30046, Note_on_c, 11, 77, 0
1, 30047, Note_on_c, 2, 92, 0
1, 30047, Note_on_c, 2, 58, 83
1, 30047, Note_on_c, 2, 61, 80
1, 30047, Note_on_c, 2, 65, 84
1, 30048, Note_on_c, 1, 34, 120
1, 30048, Note_on_c, 9, 42, 101
1, 30048, Note_on_c, 9, 35, 115
1, 30049, Note_on_c, 9, 35, 0
1, 30049, Note_on_c, 9, 42, 0
1, 30049, Note_on_c, 0, 46, 107
1, 30049, Note_on_c, 11, 75, 96
1, 30050, Note_on_c, 2, 92, 82
1, 30058, Note_on_c, 0, 46, 0
1, 30070, Note_on_c, 1, 34, 0
1, 30072, Note_on_c, 11, 75, 0
1, 30072, Note_on_c, 0, 46, 99
1, 30072, Note_on_c, 9, 42, 55
1, 30073, Note_on_c, 9, 42, 0
1, 30077, Note_on_c, 0, 46, 0
1, 30096, Note_on_c, 1, 34, 120
1, 30096, Note_on_c, 9, 42, 81
1, 30097, Note_on_c, 9, 42, 0
1, 30115, Note_on_c, 1, 34, 0
1, 30119, Note_on_c, 0, 46, 82
1, 30119, Note_on_c, 11, 77, 127
1, 30120, Note_on_c, 1, 34, 121
1, 30120, Note_on_c, 9, 42, 73
1, 30121, Note_on_c, 9, 42, 0
1, 30126, Note_on_c, 0, 46, 0
1, 30142, Note_on_c, 2, 92, 0
1, 30142, Note_on_c, 1, 34, 0
1, 30144, Note_on_c, 9, 42, 101
1, 30144, Note_on_c, 9, 40, 115
1, 30144, Note_on_c, 11, 75, 79
1, 30145, Note_on_c, 9, 40, 0
1, 30145, Note_on_c, 9, 42, 0
1, 30146, Note_on_c, 11, 77, 0
1, 30146, Note_on_c, 2, 92, 82
1, 30167, Note_on_c, 11, 75, 0
1, 30167, Note_on_c, 0, 61, 119
1, 30167, Note_on_c, 0, 68, 116
1, 30167, Note_on_c, 0, 46, 119
1, 30167, Note_on_c, 0, 65, 127
1, 30167, Note_on_c, 0, 58, 123
1, 30168, Note_on_c, 1, 34, 121
1, 30168, Note_on_c, 9, 35, 115
1, 30168, Note_on_c, 9, 46, 95
1, 30169, Note_on_c, 9, 46, 0
1, 30169, Note_on_c, 9, 35, 0
1, 30169, Note_on_c, 11, 72, 111
1, 30175, Note_on_c, 0, 46, 0
1, 30182, Note_on_c, 0, 65, 0
1, 30184, Note_on_c, 11, 72, 0
1, 30190, Note_on_c, 1, 34, 0
1, 30190, Note_on_c, 0, 61, 0
1, 30191, Note_on_c, 0, 68, 0
1, 30192, Note_on_c, 0, 58, 0
1, 30192, Note_on_c, 9, 42, 85
1, 30192, Note_on_c, 11, 70, 80
1, 30193, Note_on_c, 9, 42, 0
1, 30215, Note_on_c, 0, 61, 119
1, 30215, Note_on_c, 0, 66, 123
1, 30215, Note_on_c, 0, 58, 116
1, 30216, Note_on_c, 11, 70, 0
1, 30216, Note_on_c, 0, 39, 89
1, 30216, Note_on_c, 0, 51, 107
1, 30216, Note_on_c, 1, 39, 119
1, 30216, Note_on_c, 9, 35, 85
1, 30216, Note_on_c, 9, 46, 97
1, 30217, Note_on_c, 9, 46, 0
1, 30217, Note_on_c, 9, 35, 0
1, 30234, Note_on_c, 0, 61, 0
1, 30235, Note_on_c, 2, 61, 0
1, 30236, Note_on_c, 0, 39, 0
1, 30236, Note_on_c, 0, 58, 0
1, 30236, Note_on_c, 0, 66, 0
1, 30238, Note_on_c, 2, 92, 0
1, 30240, Note_on_c, 0, 51, 0
1, 30240, Note_on_c, 9, 35, 115
1, 30240, Note_on_c, 9, 42, 79
1, 30241, Note_on_c, 9, 42, 0
1, 30241, Note_on_c, 9, 35, 0
1, 30241, Note_on_c, 2, 54, 92
1, 30242, Note_on_c, 2, 92, 81
1, 30247, Note_on_c, 1, 39, 0
1, 30263, Note_on_c, 0, 58, 107
1, 30263, Note_on_c, 0, 61, 113
1, 30263, Note_on_c, 0, 66, 119
1, 30263, Note_on_c, 8, 66, 110
1, 30263, Note_on_c, 8, 58, 119
1, 30263, Note_on_c, 8, 63, 110
1, 30264, Note_on_c, 9, 42, 63
1, 30265, Note_on_c, 9, 42, 0
1, 30276, Note_on_c, 8, 63, 0
1, 30277, Note_on_c, 0, 61, 0
1, 30277, Note_on_c, 0, 58, 0
1, 30278, Note_on_c, 8, 66, 0
1, 30279, Note_on_c, 8, 58, 0
1, 30279, Note_on_c, 0, 66, 0
1, 30287, Note_on_c, 8, 65, 97
1, 30287, Note_on_c, 8, 61, 97
1, 30287, Note_on_c, 8, 56, 110
1, 30288, Note_on_c, 1, 34, 120
1, 30288, Note_on_c, 9, 42, 107
1, 30289, Note_on_c, 9, 42, 0
1, 30289, Note_on_c, 0, 61, 95
1, 30289, Note_on_c, 0, 56, 107
1, 30289, Note_on_c, 0, 65, 106
1, 30301, Note_on_c, 0, 61, 0
1, 30303, Note_on_c, 0, 65, 0
1, 30304, Note_on_c, 0, 56, 0
1, 30305, Note_on_c, 8, 61, 0
1, 30308, Note_on_c, 8, 56, 0
1, 30308, Note_on_c, 8, 65, 0
1, 30311, Note_on_c, 1, 34, 0
1, 30311, Note_on_c, 11, 68, 127
1, 30312, Note_on_c, 1, 30, 120
1, 30312, Note_on_c, 9, 42, 72
1, 30313, Note_on_c, 9, 42, 0
1, 30313, Note_on_c, 0, 39, 85
1, 30319, Note_on_c, 0, 39, 0
1, 30332, Note_on_c, 1, 30, 0
1, 30332, Note_on_c, 11, 68, 0
1, 30335, Note_on_c, 2, 92, 0
1, 30335, Note_on_c, 8, 58, 104
1, 30335, Note_on_c, 8, 54, 104
1, 30335, Note_on_c, 8, 63, 104
1, 30335, Note_on_c, 11, 72, 127
1, 30336, Note_on_c, 1, 39, 120
1, 30336, Note_on_c, 9, 42, 76
1, 30336, Note_on_c, 9, 40, 115
1, 30337, Note_on_c, 9, 40, 0
1, 30337, Note_on_c, 9, 42, 0
1, 30337, Note_on_c, 0, 66, 127
1, 30337, Note_on_c, 0, 61, 127
1, 30337, Note_on_c, 0, 58, 119
1, 30338, Note_on_c, 2, 92, 84
1, 30351, Note_on_c, 0, 61, 0
1, 30352, Note_on_c, 0, 58, 0
1, 30354, Note_on_c, 8, 58, 0
1, 30355, Note_on_c, 0, 66, 0
1, 30356, Note_on_c, 11, 72, 0
1, 30356, Note_on_c, 8, 63, 0
1, 30358, Note_on_c, 1, 39, 0
1, 30360, Note_on_c, 0, 39, 85
1, 30360, Note_on_c, 9, 42, 70
1, 30361, Note_on_c, 9, 42, 0
1, 30361, Note_on_c, 11, 68, 68
1, 30365, Note_on_c, 8, 54, 0
1, 30371, Note_on_c, 11, 68, 0
1, 30381, Note_on_c, 0, 39, 0
1, 30383, Note_on_c, 0, 65, 106
1, 30383, Note_on_c, 0, 61, 110
1, 30383, Note_on_c, 0, 68, 107
1, 30383, Note_on_c, 8, 65, 114
1, 30383, Note_on_c, 8, 61, 110
1, 30383, Note_on_c, 8, 56, 119
1, 30383, Note_on_c, 11, 70, 126
1, 30384, Note_on_c, 1, 30, 120
1, 30384, Note_on_c, 9, 42, 72
1, 30385, Note_on_c, 9, 42, 0
1, 30385, Note_on_c, 0, 51, 104
1, 30395, Note_on_c, 0, 51, 0
1, 30396, Note_on_c, 8, 61, 0
1, 30398, Note_on_c, 0, 65, 0
1, 30399, Note_on_c, 0, 61, 0
1, 30401, Note_on_c, 1, 30, 0
1, 30401, Note_on_c, 0, 68, 0
1, 30404, Note_on_c, 8, 65, 0
1, 30405, Note_on_c, 11, 70, 0
1, 30408, Note_on_c, 1, 31, 120
1, 30408, Note_on_c, 8, 63, 95
1, 30408, Note_on_c, 8, 66, 104
1, 30408, Note_on_c, 9, 42, 73
1, 30408, Note_on_c, 9, 35, 86
1, 30409, Note_on_c, 9, 35, 0
1, 30409, Note_on_c, 9, 42, 0
1, 30409, Note_on_c, 0, 58, 107
1, 30409, Note_on_c, 0, 66, 95
1, 30409, Note_on_c, 0, 44, 78
1, 30409, Note_on_c, 0, 61, 104
1, 30409, Note_on_c, 8, 58, 113
1, 30409, Note_on_c, 11, 68, 69
1, 30413, Note_on_c, 8, 56, 0
1, 30418, Note_on_c, 11, 68, 0
1, 30419, Note_on_c, 0, 44, 0
1, 30421, Note_on_c, 8, 58, 0
1, 30422, Note_on_c, 8, 66, 0
1, 30422, Note_on_c, 8, 63, 0
1, 30425, Note_on_c, 2, 65, 0
1, 30426, Note_on_c, 0, 61, 0
1, 30427, Note_on_c, 0, 66, 0
1, 30429, Note_on_c, 0, 58, 0
1, 30431, Note_on_c, 2, 92, 0
1, 30432, Note_on_c, 1, 31, 0
1, 30432, Note_on_c, 1, 32, 121
1, 30432, Note_on_c, 9, 35, 115
1, 30432, Note_on_c, 9, 42, 115
1, 30433, Note_on_c, 9, 42, 0
1, 30433, Note_on_c, 9, 35, 0
1, 30433, Note_on_c, 2, 61, 81
1, 30434, Note_on_c, 2, 92, 82
1, 30456, Note_on_c, 9, 42, 69
1, 30457, Note_on_c, 9, 42, 0
1, 30457, Note_on_c, 0, 58, 85
1, 30457, Note_on_c, 0, 66, 97
1, 30457, Note_on_c, 0, 61, 89
1, 30457, Note_on_c, 11, 70, 127
1, 30460, Note_on_c, 1, 32, 0
1, 30464, Note_on_c, 0, 61, 0
1, 30469, Note_on_c, 0, 66, 0
1, 30469, Note_on_c, 0, 58, 0
1, 30478, Note_on_c, 11, 70, 0
1, 30480, Note_on_c, 1, 32, 121
1, 30480, Note_on_c, 9, 42, 107
1, 30481, Note_on_c, 9, 42, 0
1, 30481, Note_on_c, 11, 68, 56
1, 30498, Note_on_c, 11, 68, 0
1, 30498, Note_on_c, 1, 32, 0
1, 30504, Note_on_c, 1, 32, 120
1, 30504, Note_on_c, 9, 42, 72
1, 30505, Note_on_c, 9, 42, 0
1, 30505, Note_on_c, 0, 44, 107
1, 30505, Note_on_c, 11, 65, 80
1, 30509, Note_on_c, 0, 44, 0
1, 30519, Note_on_c, 11, 65, 0
1, 30526, Note_on_c, 1, 32, 0
1, 30526, Note_on_c, 2, 92, 0
1, 30527, Note_on_c, 0, 66, 107
1, 30527, Note_on_c, 0, 58, 97
1, 30527, Note_on_c, 0, 61, 97
1, 30528, Note_on_c, 2, 54, 0
1, 30528, Note_on_c, 2, 61, 0
1, 30528, Note_on_c, 9, 40, 115
1, 30528, Note_on_c, 9, 42, 101
1, 30529, Note_on_c, 9, 42, 0
1, 30529, Note_on_c, 9, 40, 0
1, 30529, Note_on_c, 0, 44, 101
1, 30529, Note_on_c, 2, 60, 81
1, 30529, Note_on_c, 11, 63, 127
1, 30530, Note_on_c, 2, 58, 0
1, 30530, Note_on_c, 2, 63, 81
1, 30530, Note_on_c, 2, 92, 81
1, 30530, Note_on_c, 2, 56, 83
1, 30533, Note_on_c, 0, 44, 0
1, 30533, Note_on_c, 0, 61, 0
1, 30534, Note_on_c, 0, 66, 0
1, 30535, Note_on_c, 0, 58, 0
1, 30551, Note_on_c, 11, 63, 0
1, 30552, Note_on_c, 1, 32, 120
1, 30552, Note_on_c, 9, 46, 94
1, 30552, Note_on_c, 9, 35, 115
1, 30552, Note_on_c, 10, 73, 122
1, 30552, Note_on_c, 10, 70, 122
1, 30553, Note_on_c, 9, 35, 0
1, 30553, Note_on_c, 9, 46, 0
1, 30553, Note_on_c, 0, 66, 127
1, 30553, Note_on_c, 0, 61, 123
1, 30553, Note_on_c, 0, 44, 101
1, 30553, Note_on_c, 0, 58, 119
1, 30553, Note_on_c, 11, 65, 109
1, 30559, Note_on_c, 0, 44, 0
1, 30561, Note_on_c, 10, 70, 0
1, 30567, Note_on_c, 0, 61, 0
1, 30571, Note_on_c, 10, 73, 0
1, 30572, Note_on_c, 0, 58, 0
1, 30573, Note_on_c, 0, 66, 0
1, 30575, Note_on_c, 11, 65, 0
1, 30576, Note_on_c, 9, 42, 83
1, 30577, Note_on_c, 9, 42, 0
1, 30578, Note_on_c, 1, 32, 0
1, 30596, Note_on_c, 2, 60, 0
1, 30597, Note_on_c, 2, 63, 0
1, 30598, Note_on_c, 2, 64, 83
1, 30598, Note_on_c, 2, 61, 84
1, 30599, Note_on_c, 0, 68, 101
1, 30599, Note_on_c, 0, 37, 89
1, 30599, Note_on_c, 0, 59, 106
1, 30599, Note_on_c, 0, 64, 110
1, 30599, Note_on_c, 10, 71, 122
1, 30599, Note_on_c, 10, 75, 122
1, 30600, Note_on_c, 1, 37, 120
1, 30600, Note_on_c, 9, 35, 113
1, 30600, Note_on_c, 9, 46, 97
1, 30601, Note_on_c, 9, 46, 0
1, 30601, Note_on_c, 9, 35, 0
1, 30601, Note_on_c, 0, 49, 99
1, 30606, Note_on_c, 0, 49, 0
1, 30607, Note_on_c, 0, 37, 0
1, 30617, Note_on_c, 10, 75, 0
1, 30617, Note_on_c, 0, 64, 0
1, 30620, Note_on_c, 10, 71, 0
1, 30620, Note_on_c, 0, 68, 0
1, 30621, Note_on_c, 0, 59, 0
1, 30622, Note_on_c, 2, 92, 0
1, 30624, Note_on_c, 9, 42, 73
1, 30624, Note_on_c, 9, 35, 113
1, 30625, Note_on_c, 9, 35, 0
1, 30625, Note_on_c, 9, 42, 0
1, 30626, Note_on_c, 2, 92, 83
1, 30629, Note_on_c, 1, 37, 0
1, 30647, Note_on_c, 8, 64, 112
1, 30647, Note_on_c, 8, 56, 102
1, 30648, Note_on_c, 0, 59, 108
1, 30648, Note_on_c, 0, 64, 120
1, 30648, Note_on_c, 8, 61, 87
1, 30648, Note_on_c, 9, 42, 70
1, 30649, Note_on_c, 9, 42, 0
1, 30649, Note_on_c, 0, 49, 99
1, 30649, Note_on_c, 0, 68, 116
1, 30649, Note_on_c, 0, 37, 85
1, 30650, Note_on_c, 8, 61, 0
1, 30654, Note_on_c, 0, 49, 0
1, 30654, Note_on_c, 0, 37, 0
1, 30660, Note_on_c, 0, 59, 0
1, 30660, Note_on_c, 8, 56, 0
1, 30664, Note_on_c, 0, 68, 0
1, 30664, Note_on_c, 8, 64, 0
1, 30666, Note_on_c, 0, 64, 0
1, 30671, Note_on_c, 8, 63, 95
1, 30671, Note_on_c, 8, 54, 97
1, 30671, Note_on_c, 8, 58, 95
1, 30672, Note_on_c, 0, 58, 113
1, 30672, Note_on_c, 0, 66, 87
1, 30672, Note_on_c, 0, 63, 97
1, 30672, Note_on_c, 1, 32, 120
1, 30672, Note_on_c, 9, 42, 98
1, 30673, Note_on_c, 9, 42, 0
1, 30689, Note_on_c, 8, 58, 0
1, 30689, Note_on_c, 8, 63, 0
1, 30690, Note_on_c, 0, 63, 0
1, 30691, Note_on_c, 0, 58, 0
1, 30692, Note_on_c, 0, 66, 0
1, 30694, Note_on_c, 8, 54, 0
1, 30695, Note_on_c, 0, 37, 85
1, 30696, Note_on_c, 1, 35, 120
1, 30696, Note_on_c, 9, 42, 87
1, 30697, Note_on_c, 9, 42, 0
1, 30697, Note_on_c, 1, 32, 0
1, 30697, Note_on_c, 11, 70, 127
1, 30702, Note_on_c, 0, 37, 0
1, 30711, Note_on_c, 11, 70, 0
1, 30718, Note_on_c, 2, 92, 0
1, 30718, Note_on_c, 1, 35, 0
1, 30719, Note_on_c, 8, 56, 113
1, 30719, Note_on_c, 8, 61, 110
1, 30719, Note_on_c, 8, 52, 108
1, 30719, Note_on_c, 11, 70, 120
1, 30720, Note_on_c, 0, 64, 122
1, 30720, Note_on_c, 0, 68, 116
1, 30720, Note_on_c, 0, 59, 114
1, 30720, Note_on_c, 1, 37, 120
1, 30720, Note_on_c, 9, 40, 115
1, 30720, Note_on_c, 9, 42, 72
1, 30720, Note_on_c, 11, 71, 127
1, 30721, Note_on_c, 9, 42, 0
1, 30721, Note_on_c, 9, 40, 0
1, 30722, Note_on_c, 2, 92, 84
1, 30729, Note_on_c, 11, 70, 0
1, 30736, Note_on_c, 8, 56, 0
1, 30736, Note_on_c, 8, 61, 0
1, 30742, Note_on_c, 0, 64, 0
1, 30743, Note_on_c, 8, 52, 0
1, 30743, Note_on_c, 0, 37, 95
1, 30744, Note_on_c, 0, 59, 0
1, 30744, Note_on_c, 1, 37, 0
1, 30744, Note_on_c, 9, 42, 60
1, 30744, Note_on_c, 11, 70, 126
1, 30745, Note_on_c, 9, 42, 0
1, 30747, Note_on_c, 0, 68, 0
1, 30748, Note_on_c, 11, 71, 0
1, 30761, Note_on_c, 11, 70, 0
1, 30766, Note_on_c, 0, 37, 0
1, 30767, Note_on_c, 0, 58, 110
1, 30767, Note_on_c, 8, 58, 110
1, 30767, Note_on_c, 8, 54, 116
1, 30767, Note_on_c, 8, 63, 107
1, 30767, Note_on_c, 11, 68, 123
1, 30768, Note_on_c, 0, 66, 99
1, 30768, Note_on_c, 0, 63, 113
1, 30768, Note_on_c, 1, 32, 119
1, 30768, Note_on_c, 9, 42, 85
1, 30769, Note_on_c, 9, 42, 0
1, 30769, Note_on_c, 0, 49, 99
1, 30779, Note_on_c, 0, 49, 0
1, 30784, Note_on_c, 1, 32, 0
1, 30786, Note_on_c, 0, 63, 0
1, 30787, Note_on_c, 0, 58, 0
1, 30788, Note_on_c, 8, 63, 0
1, 30788, Note_on_c, 0, 66, 0
1, 30789, Note_on_c, 8, 58, 0
1, 30790, Note_on_c, 11, 68, 0
1, 30791, Note_on_c, 8, 54, 0
1, 30792, Note_on_c, 1, 29, 119
1, 30792, Note_on_c, 9, 35, 82
1, 30792, Note_on_c, 9, 42, 83
1, 30793, Note_on_c, 9, 42, 0
1, 30793, Note_on_c, 9, 35, 0
1, 30793, Note_on_c, 0, 59, 104
1, 30793, Note_on_c, 0, 64, 104
1, 30793, Note_on_c, 0, 68, 104
1, 30793, Note_on_c, 8, 64, 112
1, 30793, Note_on_c, 8, 56, 113
1, 30793, Note_on_c, 8, 59, 106
1, 30794, Note_on_c, 11, 64, 80
1, 30808, Note_on_c, 8, 59, 0
1, 30808, Note_on_c, 8, 56, 0
1, 30808, Note_on_c, 1, 29, 0
1, 30809, Note_on_c, 8, 64, 0
1, 30812, Note_on_c, 11, 64, 0
1, 30813, Note_on_c, 2, 61, 0
1, 30814, Note_on_c, 2, 92, 0
1, 30815, Note_on_c, 0, 68, 0
1, 30815, Note_on_c, 0, 64, 0
1, 30816, Note_on_c, 1, 30, 119
1, 30816, Note_on_c, 9, 35, 115
1, 30816, Note_on_c, 9, 42, 115
1, 30816, Note_on_c, 11, 63, 127
1, 30817, Note_on_c, 9, 42, 0
1, 30817, Note_on_c, 0, 59, 0
1, 30817, Note_on_c, 9, 35, 0
1, 30817, Note_on_c, 0, 42, 119
1, 30817, Note_on_c, 2, 59, 85
1, 30818, Note_on_c, 2, 92, 84
1, 30840, Note_on_c, 9, 42, 55
1, 30840, Note_on_c, 11, 61, 98
1, 30841, Note_on_c, 9, 42, 0
1, 30841, Note_on_c, 11, 63, 0
1, 30841, Note_on_c, 0, 68, 81
1, 30841, Note_on_c, 0, 59, 92
1, 30841, Note_on_c, 0, 64, 97
1, 30844, Note_on_c, 1, 30, 0
1, 30859, Note_on_c, 11, 61, 0
1, 30863, Note_on_c, 11, 63, 127
1, 30864, Note_on_c, 1, 30, 119
1, 30864, Note_on_c, 9, 42, 83
1, 30865, Note_on_c, 9, 42, 0
1, 30867, Note_on_c, 11, 64, 127
1, 30868, Note_on_c, 11, 63, 0
1, 30879, Note_on_c, 1, 30, 0
1, 30881, Note_on_c, 0, 64, 0
1, 30881, Note_on_c, 0, 59, 0
1, 30882, Note_on_c, 0, 68, 0
1, 30887, Note_on_c, 11, 63, 127
1, 30888, Note_on_c, 11, 64, 0
1, 30888, Note_on_c, 1, 30, 119
1, 30888, Note_on_c, 9, 42, 83
1, 30889, Note_on_c, 9, 42, 0
1, 30889, Note_on_c, 0, 42, 0
1, 30889, Note_on_c, 0, 68, 59
1, 30889, Note_on_c, 0, 64, 80
1, 30889, Note_on_c, 0, 54, 79
1, 30889, Note_on_c, 0, 59, 61
1, 30891, Note_on_c, 11, 64, 127
1, 30892, Note_on_c, 11, 63, 0
1, 30897, Note_on_c, 0, 59, 0
1, 30898, Note_on_c, 0, 54, 0
1, 30902, Note_on_c, 0, 68, 0
1, 30904, Note_on_c, 0, 64, 0
1, 30904, Note_on_c, 11, 64, 0
1, 30909, Note_on_c, 2, 64, 0
1, 30909, Note_on_c, 2, 92, 0
1, 30910, Note_on_c, 1, 30, 0
1, 30911, Note_on_c, 2, 94, 75
1, 30912, Note_on_c, 2, 59, 0
1, 30912, Note_on_c, 9, 42, 101
1, 30912, Note_on_c, 9, 40, 115
1, 30912, Note_on_c, 11, 63, 127
1, 30913, Note_on_c, 9, 40, 0
1, 30913, Note_on_c, 9, 42, 0
1, 30913, Note_on_c, 2, 56, 0
1, 30913, Note_on_c, 0, 66, 101
1, 30913, Note_on_c, 0, 61, 107
1, 30913, Note_on_c, 0, 42, 113
1, 30913, Note_on_c, 0, 58, 116
1, 30913, Note_on_c, 0, 64, 104
1, 30913, Note_on_c, 2, 61, 81
1, 30913, Note_on_c, 2, 54, 83
1, 30913, Note_on_c, 2, 58, 81
1, 30936, Note_on_c, 1, 37, 119
1, 30936, Note_on_c, 8, 42, 127
1, 30936, Note_on_c, 9, 35, 115
1, 30936, Note_on_c, 9, 46, 83
1, 30936, Note_on_c, 10, 68, 118
1, 30936, Note_on_c, 10, 71, 118
1, 30936, Note_on_c, 11, 61, 120
1, 30937, Note_on_c, 9, 46, 0
1, 30937, Note_on_c, 9, 35, 0
1, 30937, Note_on_c, 11, 63, 0
1, 30952, Note_on_c, 10, 68, 0
1, 30954, Note_on_c, 8, 42, 0
1, 30955, Note_on_c, 10, 71, 0
1, 30956, Note_on_c, 11, 61, 0
1, 30959, Note_on_c, 1, 37, 0
1, 30959, Note_on_c, 11, 59, 111
1, 30960, Note_on_c, 9, 42, 89
1, 30961, Note_on_c, 9, 42, 0
1, 30961, Note_on_c, 0, 54, 119
1, 30964, Note_on_c, 0, 64, 0
1, 30966, Note_on_c, 0, 66, 0
1, 30967, Note_on_c, 0, 61, 0
1, 30971, Note_on_c, 0, 58, 0
1, 30983, Note_on_c, 8, 35, 123
1, 30984, Note_on_c, 1, 35, 119
1, 30984, Note_on_c, 9, 46, 92
1, 30984, Note_on_c, 9, 35, 81
1, 30984, Note_on_c, 11, 58, 126
1, 30985, Note_on_c, 9, 35, 0
1, 30985, Note_on_c, 9, 46, 0
1, 30985, Note_on_c, 11, 59, 0
1, 30985, Note_on_c, 10, 70, 121
1, 30985, Note_on_c, 10, 73, 121
1, 30996, Note_on_c, 0, 54, 0
1, 30999, Note_on_c, 10, 70, 0
1, 31001, Note_on_c, 8, 35, 0
1, 31001, Note_on_c, 10, 73, 0
1, 31002, Note_on_c, 0, 42, 0
1, 31005, Note_on_c, 2, 94, 0
1, 31007, Note_on_c, 0, 59, 98
1, 31007, Note_on_c, 0, 58, 101
1, 31007, Note_on_c, 0, 63, 107
1, 31007, Note_on_c, 0, 54, 116
1, 31007, Note_on_c, 0, 47, 97
1, 31007, Note_on_c, 2, 90, 83
1, 31008, Note_on_c, 2, 61, 0
1, 31008, Note_on_c, 9, 42, 77
1, 31008, Note_on_c, 9, 35, 115
1, 31009, Note_on_c, 9, 35, 0
1, 31009, Note_on_c, 9, 42, 0
1, 31009, Note_on_c, 2, 63, 82
1, 31013, Note_on_c, 1, 35, 0
1, 31032, Note_on_c, 9, 46, 110
1, 31033, Note_on_c, 9, 46, 0
1, 31035, Note_on_c, 9, 40, 92
1, 31036, Note_on_c, 9, 40, 0
1, 31045, Note_on_c, 9, 40, 105
1, 31046, Note_on_c, 9, 40, 0
1, 31056, Note_on_c, 1, 30, 119
1, 31056, Note_on_c, 9, 40, 115
1, 31057, Note_on_c, 9, 40, 0
1, 31076, Tempo, 952381
1, 31080, Note_on_c, 1, 32, 118
1, 31080, Note_on_c, 9, 40, 112
1, 31081, Note_on_c, 9, 40, 0
1, 31081, Note_on_c, 1, 30, 0
1, 31099, Note_on_c, 1, 32, 0
1, 31104, Note_on_c, 1, 35, 118
1, 31104, Note_on_c, 9, 47, 115
1, 31105, Note_on_c, 9, 47, 0
1, 31128, Note_on_c, 9, 45, 115
1, 31129, Note_on_c, 9, 45, 0
1, 31140, Tempo, 1016949
1, 31140, Note_on_c, 1, 35, 0
1, 31152, Note_on_c, 1, 35, 118
1, 31152, Note_on_c, 9, 40, 115
1, 31153, Note_on_c, 9, 40, 0
1, 31157, Note_on_c, 0, 54, 0
1, 31158, Note_on_c, 0, 58, 0
1, 31158, Note_on_c, 0, 59, 0
1, 31159, Note_on_c, 0, 47, 0
1, 31160, Note_on_c, 0, 63, 0
1, 31165, Note_on_c, 1, 35, 0
1, 31176, Note_on_c, 1, 35, 118
1, 31176, Note_on_c, 9, 35, 115
1, 31177, Note_on_c, 9, 35, 0
1, 31180, Tempo, 1052632
1, 31189, Note_on_c, 11, 58, 0
1, 31189, Note_on_c, 2, 54, 0
1, 31189, Note_on_c, 1, 35, 0
1, 31192, Note_on_c, 2, 58, 0
1, 31198, Note_on_c, 2, 90, 0
1, 31199, Note_on_c, 2, 88, 94
1, 31200, Note_on_c, 2, 63, 0
1, 31200, Note_on_c, 0, 64, 117
1, 31200, Note_on_c, 0, 56, 119
1, 31200, Note_on_c, 0, 37, 97
1, 31200, Note_on_c, 0, 49, 116
1, 31200, Note_on_c, 0, 61, 104
1, 31200, Note_on_c, 1, 37, 118
1, 31200, Note_on_c, 2, 61, 84
1, 31200, Note_on_c, 2, 56, 84
1, 31200, Note_on_c, 9, 35, 115
1, 31201, Note_on_c, 9, 35, 0
1, 31201, Note_on_c, 0, 59, 110
1, 31201, Note_on_c, 2, 52, 83
1, 31201, Note_on_c, 9, 49, 77
1, 31202, Note_on_c, 9, 49, 0
1, 31202, Note_on_c, 7, 68, 105
1, 31202, Note_on_c, 8, 37, 113
1, 31212, Tempo, 1090909
1, 31236, Tempo, 1153846
1, 31237, Note_on_c, 1, 37, 0
1, 31248, Note_on_c, 1, 35, 119
1, 31248, Note_on_c, 9, 42, 91
1, 31248, Note_on_c, 9, 35, 78
1, 31249, Note_on_c, 9, 35, 0
1, 31249, Note_on_c, 9, 42, 0
1, 31252, Tempo, 1224490
1, 31270, Note_on_c, 1, 35, 0
1, 31272, Note_on_c, 1, 37, 119
1, 31272, Note_on_c, 9, 35, 94
1, 31273, Note_on_c, 9, 35, 0
1, 31276, Tempo, 1395349
1, 31279, Note_on_c, 0, 56, 0
1, 31279, Note_on_c, 0, 59, 0
1, 31282, Note_on_c, 0, 37, 0
1, 31283, Note_on_c, 0, 64, 0
1, 31285, Note_on_c, 0, 49, 0
1, 31285, Note_on_c, 0, 61, 0
1, 31289, Note_on_c, 2, 61, 0
1, 31291, Note_on_c, 2, 88, 0
1, 31292, Note_on_c, 7, 68, 0
1, 31292, Note_on_c, 2, 56, 0
1, 31293, Note_on_c, 8, 37, 0
1, 31295, Note_on_c, 2, 90, 93
1, 31296, Note_on_c, 2, 52, 0
1, 31296, Note_on_c, 1, 37, 0
1, 31296, Note_on_c, 1, 39, 119
1, 31296, Note_on_c, 2, 58, 81
1, 31296, Note_on_c, 2, 63, 94
1, 31296, Note_on_c, 2, 54, 90
1, 31296, Note_on_c, 9, 35, 115
1, 31297, Note_on_c, 9, 35, 0
1, 31297, Note_on_c, 0, 63, 116
1, 31297, Note_on_c, 0, 58, 113
1, 31297, Note_on_c, 0, 61, 127
1, 31297, Note_on_c, 0, 39, 97
1, 31297, Note_on_c, 0, 51, 119
1, 31297, Note_on_c, 0, 66, 113
1, 31297, Note_on_c, 9, 57, 77
1, 31298, Note_on_c, 9, 57, 0
1, 31298, Note_on_c, 7, 70, 117
1, 31298, Note_on_c, 8, 39, 127
1, 31308, Tempo, 1621622
1, 31344, Note_on_c, 1, 37, 119
1, 31344, Note_on_c, 9, 35, 94
1, 31344, Note_on_c, 9, 42, 89
1, 31345, Note_on_c, 9, 42, 0
1, 31345, Note_on_c, 9, 35, 0
1, 31347, Note_on_c, 1, 39, 0
1, 31348, Tempo, 1935484
1, 31367, Note_on_c, 1, 37, 0
1, 31368, Note_on_c, 1, 39, 119
1, 31368, Note_on_c, 9, 35, 115
1, 31369, Note_on_c, 9, 35, 0
1, 31369, Note_on_c, 0, 61, 0
1, 31369, Note_on_c, 0, 58, 0
1, 31370, Note_on_c, 0, 51, 0
1, 31371, Note_on_c, 0, 63, 0
1, 31372, Note_on_c, 0, 39, 0
1, 31376, Note_on_c, 0, 66, 0
1, 31387, Note_on_c, 2, 54, 0
1, 31387, Note_on_c, 2, 58, 0
1, 31387, Note_on_c, 2, 63, 0
1, 31387, Note_on_c, 7, 70, 0
1, 31390, Note_on_c, 2, 90, 0
1, 31390, Note_on_c, 1, 39, 0
1, 31392, Note_on_c, 1, 34, 127
1, 31392, Note_on_c, 7, 65, 77
1, 31392, Note_on_c, 8, 50, 75
1, 31393, Note_on_c, 8, 39, 0
1, 31393, Note_on_c, 0, 60, 104
1, 31393, Note_on_c, 0, 46, 107
1, 31393, Note_on_c, 0, 58, 99
1, 31393, Note_on_c, 0, 65, 100
1, 31393, Note_on_c, 0, 69, 98
1, 31393, Note_on_c, 9, 35, 100
1, 31393, Note_on_c, 9, 46, 95
1, 31394, Note_on_c, 9, 46, 0
1, 31394, Note_on_c, 9, 35, 0
1, 31394, Note_on_c, 8, 34, 82
1, 31395, Note_on_c, 2, 84, 67
1, 31395, Note_on_c, 2, 62, 71
1, 31395, Note_on_c, 2, 57, 66
1, 31395, Note_on_c, 2, 65, 59
1, 31395, Note_on_c, 11, 57, 59
1, 31439, Note_on_c, 11, 58, 73
1, 31441, Note_on_c, 11, 57, 0
1, 31449, Note_on_c, 11, 58, 0
1, 31449, Note_on_c, 11, 57, 81
1, 31455, Note_on_c, 11, 57, 0
1, 31456, Note_on_c, 11, 58, 94
1, 31462, Note_on_c, 11, 58, 0
1, 31462, Note_on_c, 11, 57, 84
1, 31467, Note_on_c, 11, 57, 0
1, 31468, Note_on_c, 11, 58, 91
1, 31473, Note_on_c, 11, 58, 0
1, 31473, Note_on_c, 11, 57, 83
1, 31479, Note_on_c, 11, 57, 0
1, 31479, Note_on_c, 11, 58, 86
1, 31484, Note_on_c, 11, 58, 0
1, 31484, Note_on_c, 11, 57, 86
1, 31491, Note_on_c, 11, 58, 75
1, 31492, Note_on_c, 11, 57, 0
1, 31498, Note_on_c, 11, 58, 0
1, 31498, Note_on_c, 11, 57, 81
1, 31568, Note_on_c, 11, 53, 75
1, 31570, Note_on_c, 11, 57, 0
1, 31574, Note_on_c, 11, 53, 0
1, 31574, Note_on_c, 11, 50, 77
1, 31583, Note_on_c, 11, 50, 0
1, 31583, Note_on_c, 11, 45, 66
1, 31637, Note_on_c, 11, 45, 0
1, 31668, Tempo, 923077
1, 31763, Note_on_c, 2, 62, 0
1, 31763, Note_on_c, 2, 65, 0
1, 31763, Note_on_c, 2, 57, 0
1, 31765, Note_on_c, 2, 84, 0
1, 31769, Note_on_c, 8, 50, 0
1, 31771, Note_on_c, 0, 60, 0
1, 31771, Note_on_c, 0, 65, 0
1, 31773, Note_on_c, 8, 34, 0
1, 31774, Note_on_c, 0, 69, 0
1, 31774, Note_on_c, 0, 46, 0
1, 31774, Note_on_c, 0, 58, 0
1, 31775, Note_on_c, 1, 34, 0
1, 31775, Note_on_c, 7, 65, 0
1, 31775, End_track
0, 0, End_of_file
