0, 0, Header, 1, 6, 192
1, 0, Start_track
1, 0, Title_t, "After the rain has fallen"
1, 0, Text_t, "By sting"
1, 0, Copyright_t, "All Rights Reserved"
1, 0, Text_t, "Generated by NoteWorthy Composer"
1, 0, Tempo, 555555
1, 1536, Key_signature, -5, "major"
1, 68352, Key_signature, 0, "major"
1, 68352, Key_signature, 6, "major"
1, 68352, End_track
2, 0, Start_track
2, 0, MIDI_port, 0
2, 0, Title_t, "Staff"
2, 0, Program_c, 0, 18
2, 0, Control_c, 0, 7, 127
2, 0, Control_c, 0, 10, 64
2, 10848, Note_on_c, 0, 70, 110
2, 10942, Note_on_c, 0, 70, 0
2, 10944, Note_on_c, 0, 80, 110
2, 10990, Note_on_c, 0, 80, 0
2, 10992, Note_on_c, 0, 80, 110
2, 11086, Note_on_c, 0, 80, 0
2, 11088, Note_on_c, 0, 82, 110
2, 11296, Note_on_c, 0, 82, 0
2, 11328, Note_on_c, 0, 70, 110
2, 11488, Note_on_c, 0, 70, 0
2, 11712, Note_on_c, 0, 78, 110
2, 11854, Note_on_c, 0, 78, 0
2, 11856, Note_on_c, 0, 77, 110
2, 11950, Note_on_c, 0, 77, 0
2, 11952, Note_on_c, 0, 75, 110
2, 12256, Note_on_c, 0, 75, 0
2, 12384, Note_on_c, 0, 70, 110
2, 12478, Note_on_c, 0, 70, 0
2, 12480, Note_on_c, 0, 80, 110
2, 12640, Note_on_c, 0, 80, 0
2, 12672, Note_on_c, 0, 82, 110
2, 12832, Note_on_c, 0, 82, 0
2, 12864, Note_on_c, 0, 70, 110
2, 13024, Note_on_c, 0, 70, 0
2, 13248, Note_on_c, 0, 75, 110
2, 13294, Note_on_c, 0, 75, 0
2, 13296, Note_on_c, 0, 73, 110
2, 13390, Note_on_c, 0, 73, 0
2, 13392, Note_on_c, 0, 77, 110
2, 13600, Note_on_c, 0, 77, 0
2, 13920, Note_on_c, 0, 70, 110
2, 13966, Note_on_c, 0, 70, 0
2, 13968, Note_on_c, 0, 77, 110
2, 14014, Note_on_c, 0, 77, 0
2, 14016, Note_on_c, 0, 80, 110
2, 14110, Note_on_c, 0, 80, 0
2, 14112, Note_on_c, 0, 80, 110
2, 14206, Note_on_c, 0, 80, 0
2, 14208, Note_on_c, 0, 82, 110
2, 14368, Note_on_c, 0, 82, 0
2, 14400, Note_on_c, 0, 70, 110
2, 14494, Note_on_c, 0, 70, 0
2, 14496, Note_on_c, 0, 70, 110
2, 14590, Note_on_c, 0, 70, 0
2, 14784, Note_on_c, 0, 78, 110
2, 14878, Note_on_c, 0, 78, 0
2, 14880, Note_on_c, 0, 77, 110
2, 14926, Note_on_c, 0, 77, 0
2, 14928, Note_on_c, 0, 77, 110
2, 15070, Note_on_c, 0, 77, 0
2, 15072, Note_on_c, 0, 75, 110
2, 15214, Note_on_c, 0, 75, 0
2, 15216, Note_on_c, 0, 70, 110
2, 15358, Note_on_c, 0, 70, 0
2, 15552, Note_on_c, 0, 80, 110
2, 15646, Note_on_c, 0, 80, 0
2, 15648, Note_on_c, 0, 77, 110
2, 15742, Note_on_c, 0, 77, 0
2, 15744, Note_on_c, 0, 80, 110
2, 15838, Note_on_c, 0, 80, 0
2, 15840, Note_on_c, 0, 80, 110
2, 15934, Note_on_c, 0, 80, 0
2, 15936, Note_on_c, 0, 77, 110
2, 16030, Note_on_c, 0, 77, 0
2, 16032, Note_on_c, 0, 82, 110
2, 16222, Note_on_c, 0, 82, 0
2, 16224, Note_on_c, 0, 80, 110
2, 16384, Note_on_c, 0, 80, 0
2, 16416, Note_on_c, 0, 75, 110
2, 16606, Note_on_c, 0, 75, 0
2, 16608, Note_on_c, 0, 75, 110
2, 16768, Note_on_c, 0, 75, 0
2, 16800, Note_on_c, 0, 73, 110
2, 16848, Note_on_c, 0, 73, 0
2, 16848, Note_on_c, 0, 70, 110
2, 16894, Note_on_c, 0, 70, 0
2, 16992, Note_on_c, 0, 70, 110
2, 17086, Note_on_c, 0, 70, 0
2, 17088, Note_on_c, 0, 80, 110
2, 17248, Note_on_c, 0, 80, 0
2, 17280, Note_on_c, 0, 82, 110
2, 17440, Note_on_c, 0, 82, 0
2, 17856, Note_on_c, 0, 78, 110
2, 17950, Note_on_c, 0, 78, 0
2, 17952, Note_on_c, 0, 77, 110
2, 17998, Note_on_c, 0, 77, 0
2, 18000, Note_on_c, 0, 77, 110
2, 18094, Note_on_c, 0, 77, 0
2, 18096, Note_on_c, 0, 75, 110
2, 18238, Note_on_c, 0, 75, 0
2, 18624, Note_on_c, 0, 80, 110
2, 18784, Note_on_c, 0, 80, 0
2, 18816, Note_on_c, 0, 82, 110
2, 18862, Note_on_c, 0, 82, 0
2, 18864, Note_on_c, 0, 75, 110
2, 19006, Note_on_c, 0, 75, 0
2, 19008, Note_on_c, 0, 75, 110
2, 19102, Note_on_c, 0, 75, 0
2, 19392, Note_on_c, 0, 75, 110
2, 19486, Note_on_c, 0, 75, 0
2, 19488, Note_on_c, 0, 73, 110
2, 19534, Note_on_c, 0, 73, 0
2, 19536, Note_on_c, 0, 77, 110
2, 19744, Note_on_c, 0, 77, 0
2, 20064, Note_on_c, 0, 70, 110
2, 20158, Note_on_c, 0, 70, 0
2, 20160, Note_on_c, 0, 80, 110
2, 20254, Note_on_c, 0, 80, 0
2, 20256, Note_on_c, 0, 80, 110
2, 20350, Note_on_c, 0, 80, 0
2, 20352, Note_on_c, 0, 82, 110
2, 20512, Note_on_c, 0, 82, 0
2, 20544, Note_on_c, 0, 75, 110
2, 20638, Note_on_c, 0, 75, 0
2, 20640, Note_on_c, 0, 73, 110
2, 20734, Note_on_c, 0, 73, 0
2, 20928, Note_on_c, 0, 78, 110
2, 21022, Note_on_c, 0, 78, 0
2, 21024, Note_on_c, 0, 77, 110
2, 21070, Note_on_c, 0, 77, 0
2, 21072, Note_on_c, 0, 77, 110
2, 21214, Note_on_c, 0, 77, 0
2, 21216, Note_on_c, 0, 75, 110
2, 21472, Note_on_c, 0, 75, 0
2, 21600, Note_on_c, 0, 80, 110
2, 21694, Note_on_c, 0, 80, 0
2, 21696, Note_on_c, 0, 80, 110
2, 21790, Note_on_c, 0, 80, 0
2, 21792, Note_on_c, 0, 77, 110
2, 21886, Note_on_c, 0, 77, 0
2, 21888, Note_on_c, 0, 80, 110
2, 21982, Note_on_c, 0, 80, 0
2, 21984, Note_on_c, 0, 80, 110
2, 22078, Note_on_c, 0, 80, 0
2, 22080, Note_on_c, 0, 77, 110
2, 22174, Note_on_c, 0, 77, 0
2, 22176, Note_on_c, 0, 82, 110
2, 22366, Note_on_c, 0, 82, 0
2, 22368, Note_on_c, 0, 80, 110
2, 22528, Note_on_c, 0, 80, 0
2, 22560, Note_on_c, 0, 77, 110
2, 22608, Note_on_c, 0, 77, 0
2, 22608, Note_on_c, 0, 75, 110
2, 22750, Note_on_c, 0, 75, 0
2, 22752, Note_on_c, 0, 75, 110
2, 22912, Note_on_c, 0, 75, 0
2, 22944, Note_on_c, 0, 73, 110
2, 22992, Note_on_c, 0, 73, 0
2, 22992, Note_on_c, 0, 70, 110
2, 23038, Note_on_c, 0, 70, 0
2, 23232, Note_on_c, 0, 80, 110
2, 23326, Note_on_c, 0, 80, 0
2, 23328, Note_on_c, 0, 80, 110
2, 23422, Note_on_c, 0, 80, 0
2, 23424, Note_on_c, 0, 82, 110
2, 23470, Note_on_c, 0, 82, 0
2, 23472, Note_on_c, 0, 82, 110
2, 23614, Note_on_c, 0, 82, 0
2, 23904, Note_on_c, 0, 70, 110
2, 23998, Note_on_c, 0, 70, 0
2, 24000, Note_on_c, 0, 77, 110
2, 24046, Note_on_c, 0, 77, 0
2, 24048, Note_on_c, 0, 77, 110
2, 24142, Note_on_c, 0, 77, 0
2, 24144, Note_on_c, 0, 77, 110
2, 24238, Note_on_c, 0, 77, 0
2, 24240, Note_on_c, 0, 75, 110
2, 24382, Note_on_c, 0, 75, 0
2, 24672, Note_on_c, 0, 80, 110
2, 24766, Note_on_c, 0, 80, 0
2, 24768, Note_on_c, 0, 80, 110
2, 24862, Note_on_c, 0, 80, 0
2, 24864, Note_on_c, 0, 80, 110
2, 24958, Note_on_c, 0, 80, 0
2, 24960, Note_on_c, 0, 82, 110
2, 25120, Note_on_c, 0, 82, 0
2, 25152, Note_on_c, 0, 75, 110
2, 25200, Note_on_c, 0, 75, 0
2, 25200, Note_on_c, 0, 73, 110
2, 25342, Note_on_c, 0, 73, 0
2, 25536, Note_on_c, 0, 75, 110
2, 25630, Note_on_c, 0, 75, 0
2, 25632, Note_on_c, 0, 73, 110
2, 25678, Note_on_c, 0, 73, 0
2, 25680, Note_on_c, 0, 77, 110
2, 25888, Note_on_c, 0, 77, 0
2, 26208, Note_on_c, 0, 75, 110
2, 26254, Note_on_c, 0, 75, 0
2, 26256, Note_on_c, 0, 75, 110
2, 26302, Note_on_c, 0, 75, 0
2, 26304, Note_on_c, 0, 80, 110
2, 26464, Note_on_c, 0, 80, 0
2, 26496, Note_on_c, 0, 80, 110
2, 26542, Note_on_c, 0, 80, 0
2, 26544, Note_on_c, 0, 82, 110
2, 26686, Note_on_c, 0, 82, 0
2, 26976, Note_on_c, 0, 78, 110
2, 27070, Note_on_c, 0, 78, 0
2, 27072, Note_on_c, 0, 78, 110
2, 27118, Note_on_c, 0, 78, 0
2, 27120, Note_on_c, 0, 77, 110
2, 27214, Note_on_c, 0, 77, 0
2, 27216, Note_on_c, 0, 77, 110
2, 27310, Note_on_c, 0, 77, 0
2, 27312, Note_on_c, 0, 75, 110
2, 27454, Note_on_c, 0, 75, 0
2, 27744, Note_on_c, 0, 80, 110
2, 27838, Note_on_c, 0, 80, 0
2, 27840, Note_on_c, 0, 77, 110
2, 27934, Note_on_c, 0, 77, 0
2, 27936, Note_on_c, 0, 80, 110
2, 28030, Note_on_c, 0, 80, 0
2, 28128, Note_on_c, 0, 80, 110
2, 28222, Note_on_c, 0, 80, 0
2, 28224, Note_on_c, 0, 77, 110
2, 28318, Note_on_c, 0, 77, 0
2, 28320, Note_on_c, 0, 82, 110
2, 28510, Note_on_c, 0, 82, 0
2, 28512, Note_on_c, 0, 80, 110
2, 28672, Note_on_c, 0, 80, 0
2, 28704, Note_on_c, 0, 75, 110
2, 28894, Note_on_c, 0, 75, 0
2, 28896, Note_on_c, 0, 75, 110
2, 29344, Note_on_c, 0, 75, 0
2, 29568, Note_on_c, 0, 79, 110
2, 29662, Note_on_c, 0, 79, 0
2, 29664, Note_on_c, 0, 80, 110
2, 29758, Note_on_c, 0, 80, 0
2, 29760, Note_on_c, 0, 82, 110
2, 29854, Note_on_c, 0, 82, 0
2, 29856, Note_on_c, 0, 82, 110
2, 30112, Note_on_c, 0, 82, 0
2, 30144, Note_on_c, 0, 80, 110
2, 30238, Note_on_c, 0, 80, 0
2, 30240, Note_on_c, 0, 78, 110
2, 30288, Note_on_c, 0, 78, 0
2, 30288, Note_on_c, 0, 77, 110
2, 30336, Note_on_c, 0, 77, 0
2, 30336, Note_on_c, 0, 75, 110
2, 30430, Note_on_c, 0, 75, 0
2, 30432, Note_on_c, 0, 75, 110
2, 30526, Note_on_c, 0, 75, 0
2, 31104, Note_on_c, 0, 77, 110
2, 31198, Note_on_c, 0, 77, 0
2, 31200, Note_on_c, 0, 78, 110
2, 31294, Note_on_c, 0, 78, 0
2, 31296, Note_on_c, 0, 80, 110
2, 31390, Note_on_c, 0, 80, 0
2, 31392, Note_on_c, 0, 80, 110
2, 31648, Note_on_c, 0, 80, 0
2, 31680, Note_on_c, 0, 78, 110
2, 31774, Note_on_c, 0, 78, 0
2, 31776, Note_on_c, 0, 78, 110
2, 31966, Note_on_c, 0, 78, 0
2, 31968, Note_on_c, 0, 80, 110
2, 32128, Note_on_c, 0, 80, 0
2, 32160, Note_on_c, 0, 79, 110
2, 32254, Note_on_c, 0, 79, 0
2, 32544, Note_on_c, 0, 75, 110
2, 32638, Note_on_c, 0, 75, 0
2, 32640, Note_on_c, 0, 79, 110
2, 32734, Note_on_c, 0, 79, 0
2, 32736, Note_on_c, 0, 80, 110
2, 32830, Note_on_c, 0, 80, 0
2, 32832, Note_on_c, 0, 82, 110
2, 32926, Note_on_c, 0, 82, 0
2, 32928, Note_on_c, 0, 82, 110
2, 33184, Note_on_c, 0, 82, 0
2, 33216, Note_on_c, 0, 80, 110
2, 33310, Note_on_c, 0, 80, 0
2, 33312, Note_on_c, 0, 78, 110
2, 33358, Note_on_c, 0, 78, 0
2, 33360, Note_on_c, 0, 77, 110
2, 33454, Note_on_c, 0, 77, 0
2, 33456, Note_on_c, 0, 75, 110
2, 33598, Note_on_c, 0, 75, 0
2, 33696, Note_on_c, 0, 80, 110
2, 33886, Note_on_c, 0, 80, 0
2, 33888, Note_on_c, 0, 78, 110
2, 33982, Note_on_c, 0, 78, 0
2, 33984, Note_on_c, 0, 77, 110
2, 34078, Note_on_c, 0, 77, 0
2, 34080, Note_on_c, 0, 75, 110
2, 34270, Note_on_c, 0, 75, 0
2, 34272, Note_on_c, 0, 75, 110
2, 34366, Note_on_c, 0, 75, 0
2, 34368, Note_on_c, 0, 73, 110
2, 34462, Note_on_c, 0, 73, 0
2, 34464, Note_on_c, 0, 80, 110
2, 34654, Note_on_c, 0, 80, 0
2, 34656, Note_on_c, 0, 78, 110
2, 34750, Note_on_c, 0, 78, 0
2, 34752, Note_on_c, 0, 77, 110
2, 34846, Note_on_c, 0, 77, 0
2, 34848, Note_on_c, 0, 75, 110
2, 35328, Note_on_c, 0, 75, 0
2, 35328, Note_on_c, 0, 77, 110
2, 36048, Note_on_c, 0, 77, 0
2, 36576, Note_on_c, 0, 77, 110
2, 36718, Note_on_c, 0, 77, 0
2, 36720, Note_on_c, 0, 79, 110
2, 36862, Note_on_c, 0, 79, 0
2, 36960, Note_on_c, 0, 70, 110
2, 37054, Note_on_c, 0, 70, 0
2, 37056, Note_on_c, 0, 80, 110
2, 37216, Note_on_c, 0, 80, 0
2, 37248, Note_on_c, 0, 82, 110
2, 37408, Note_on_c, 0, 82, 0
2, 37824, Note_on_c, 0, 78, 110
2, 37918, Note_on_c, 0, 78, 0
2, 37920, Note_on_c, 0, 77, 110
2, 37966, Note_on_c, 0, 77, 0
2, 37968, Note_on_c, 0, 77, 110
2, 38062, Note_on_c, 0, 77, 0
2, 38064, Note_on_c, 0, 75, 110
2, 38206, Note_on_c, 0, 75, 0
2, 38592, Note_on_c, 0, 80, 110
2, 38752, Note_on_c, 0, 80, 0
2, 38784, Note_on_c, 0, 82, 110
2, 38830, Note_on_c, 0, 82, 0
2, 38832, Note_on_c, 0, 75, 110
2, 38974, Note_on_c, 0, 75, 0
2, 38976, Note_on_c, 0, 75, 110
2, 39070, Note_on_c, 0, 75, 0
2, 39360, Note_on_c, 0, 75, 110
2, 39454, Note_on_c, 0, 75, 0
2, 39456, Note_on_c, 0, 73, 110
2, 39502, Note_on_c, 0, 73, 0
2, 39504, Note_on_c, 0, 77, 110
2, 39712, Note_on_c, 0, 77, 0
2, 40032, Note_on_c, 0, 70, 110
2, 40126, Note_on_c, 0, 70, 0
2, 40128, Note_on_c, 0, 80, 110
2, 40222, Note_on_c, 0, 80, 0
2, 40224, Note_on_c, 0, 80, 110
2, 40318, Note_on_c, 0, 80, 0
2, 40320, Note_on_c, 0, 82, 110
2, 40480, Note_on_c, 0, 82, 0
2, 40512, Note_on_c, 0, 75, 110
2, 40606, Note_on_c, 0, 75, 0
2, 40608, Note_on_c, 0, 73, 110
2, 40702, Note_on_c, 0, 73, 0
2, 40896, Note_on_c, 0, 78, 110
2, 40990, Note_on_c, 0, 78, 0
2, 40992, Note_on_c, 0, 77, 110
2, 41038, Note_on_c, 0, 77, 0
2, 41040, Note_on_c, 0, 77, 110
2, 41182, Note_on_c, 0, 77, 0
2, 41184, Note_on_c, 0, 75, 110
2, 41440, Note_on_c, 0, 75, 0
2, 41568, Note_on_c, 0, 80, 110
2, 41662, Note_on_c, 0, 80, 0
2, 41664, Note_on_c, 0, 80, 110
2, 41758, Note_on_c, 0, 80, 0
2, 41760, Note_on_c, 0, 77, 110
2, 41854, Note_on_c, 0, 77, 0
2, 41856, Note_on_c, 0, 80, 110
2, 41950, Note_on_c, 0, 80, 0
2, 41952, Note_on_c, 0, 80, 110
2, 42046, Note_on_c, 0, 80, 0
2, 42048, Note_on_c, 0, 77, 110
2, 42142, Note_on_c, 0, 77, 0
2, 42144, Note_on_c, 0, 82, 110
2, 42334, Note_on_c, 0, 82, 0
2, 42336, Note_on_c, 0, 80, 110
2, 42496, Note_on_c, 0, 80, 0
2, 42528, Note_on_c, 0, 77, 110
2, 42576, Note_on_c, 0, 77, 0
2, 42576, Note_on_c, 0, 75, 110
2, 42718, Note_on_c, 0, 75, 0
2, 42720, Note_on_c, 0, 75, 110
2, 42880, Note_on_c, 0, 75, 0
2, 42912, Note_on_c, 0, 73, 110
2, 42960, Note_on_c, 0, 73, 0
2, 42960, Note_on_c, 0, 70, 110
2, 43006, Note_on_c, 0, 70, 0
2, 43200, Note_on_c, 0, 80, 110
2, 43294, Note_on_c, 0, 80, 0
2, 43296, Note_on_c, 0, 80, 110
2, 43390, Note_on_c, 0, 80, 0
2, 43392, Note_on_c, 0, 82, 110
2, 43438, Note_on_c, 0, 82, 0
2, 43440, Note_on_c, 0, 82, 110
2, 43582, Note_on_c, 0, 82, 0
2, 43872, Note_on_c, 0, 70, 110
2, 43966, Note_on_c, 0, 70, 0
2, 43968, Note_on_c, 0, 77, 110
2, 44014, Note_on_c, 0, 77, 0
2, 44016, Note_on_c, 0, 77, 110
2, 44110, Note_on_c, 0, 77, 0
2, 44112, Note_on_c, 0, 77, 110
2, 44206, Note_on_c, 0, 77, 0
2, 44208, Note_on_c, 0, 75, 110
2, 44350, Note_on_c, 0, 75, 0
2, 44640, Note_on_c, 0, 80, 110
2, 44734, Note_on_c, 0, 80, 0
2, 44736, Note_on_c, 0, 80, 110
2, 44830, Note_on_c, 0, 80, 0
2, 44832, Note_on_c, 0, 80, 110
2, 44926, Note_on_c, 0, 80, 0
2, 44928, Note_on_c, 0, 82, 110
2, 45088, Note_on_c, 0, 82, 0
2, 45120, Note_on_c, 0, 75, 110
2, 45168, Note_on_c, 0, 75, 0
2, 45168, Note_on_c, 0, 73, 110
2, 45310, Note_on_c, 0, 73, 0
2, 45504, Note_on_c, 0, 75, 110
2, 45598, Note_on_c, 0, 75, 0
2, 45600, Note_on_c, 0, 73, 110
2, 45646, Note_on_c, 0, 73, 0
2, 45648, Note_on_c, 0, 77, 110
2, 45856, Note_on_c, 0, 77, 0
2, 46176, Note_on_c, 0, 75, 110
2, 46222, Note_on_c, 0, 75, 0
2, 46224, Note_on_c, 0, 75, 110
2, 46270, Note_on_c, 0, 75, 0
2, 46272, Note_on_c, 0, 80, 110
2, 46432, Note_on_c, 0, 80, 0
2, 46464, Note_on_c, 0, 80, 110
2, 46510, Note_on_c, 0, 80, 0
2, 46512, Note_on_c, 0, 82, 110
2, 46654, Note_on_c, 0, 82, 0
2, 46944, Note_on_c, 0, 78, 110
2, 47038, Note_on_c, 0, 78, 0
2, 47040, Note_on_c, 0, 78, 110
2, 47086, Note_on_c, 0, 78, 0
2, 47088, Note_on_c, 0, 77, 110
2, 47182, Note_on_c, 0, 77, 0
2, 47184, Note_on_c, 0, 77, 110
2, 47278, Note_on_c, 0, 77, 0
2, 47280, Note_on_c, 0, 75, 110
2, 47422, Note_on_c, 0, 75, 0
2, 47712, Note_on_c, 0, 80, 110
2, 47806, Note_on_c, 0, 80, 0
2, 47808, Note_on_c, 0, 77, 110
2, 47902, Note_on_c, 0, 77, 0
2, 47904, Note_on_c, 0, 80, 110
2, 47998, Note_on_c, 0, 80, 0
2, 48096, Note_on_c, 0, 80, 110
2, 48190, Note_on_c, 0, 80, 0
2, 48192, Note_on_c, 0, 77, 110
2, 48286, Note_on_c, 0, 77, 0
2, 48288, Note_on_c, 0, 82, 110
2, 48478, Note_on_c, 0, 82, 0
2, 48480, Note_on_c, 0, 80, 110
2, 48640, Note_on_c, 0, 80, 0
2, 48672, Note_on_c, 0, 75, 110
2, 48862, Note_on_c, 0, 75, 0
2, 48864, Note_on_c, 0, 75, 110
2, 49312, Note_on_c, 0, 75, 0
2, 49536, Note_on_c, 0, 79, 110
2, 49630, Note_on_c, 0, 79, 0
2, 49632, Note_on_c, 0, 80, 110
2, 49726, Note_on_c, 0, 80, 0
2, 49728, Note_on_c, 0, 82, 110
2, 49822, Note_on_c, 0, 82, 0
2, 49824, Note_on_c, 0, 82, 110
2, 50080, Note_on_c, 0, 82, 0
2, 50112, Note_on_c, 0, 80, 110
2, 50206, Note_on_c, 0, 80, 0
2, 50208, Note_on_c, 0, 78, 110
2, 50256, Note_on_c, 0, 78, 0
2, 50256, Note_on_c, 0, 77, 110
2, 50304, Note_on_c, 0, 77, 0
2, 50304, Note_on_c, 0, 75, 110
2, 50398, Note_on_c, 0, 75, 0
2, 50400, Note_on_c, 0, 75, 110
2, 50494, Note_on_c, 0, 75, 0
2, 51072, Note_on_c, 0, 77, 110
2, 51166, Note_on_c, 0, 77, 0
2, 51168, Note_on_c, 0, 78, 110
2, 51262, Note_on_c, 0, 78, 0
2, 51264, Note_on_c, 0, 80, 110
2, 51358, Note_on_c, 0, 80, 0
2, 51360, Note_on_c, 0, 80, 110
2, 51616, Note_on_c, 0, 80, 0
2, 51648, Note_on_c, 0, 78, 110
2, 51742, Note_on_c, 0, 78, 0
2, 51744, Note_on_c, 0, 78, 110
2, 51934, Note_on_c, 0, 78, 0
2, 51936, Note_on_c, 0, 80, 110
2, 52096, Note_on_c, 0, 80, 0
2, 52128, Note_on_c, 0, 79, 110
2, 52222, Note_on_c, 0, 79, 0
2, 52512, Note_on_c, 0, 75, 110
2, 52606, Note_on_c, 0, 75, 0
2, 52608, Note_on_c, 0, 79, 110
2, 52702, Note_on_c, 0, 79, 0
2, 52704, Note_on_c, 0, 80, 110
2, 52798, Note_on_c, 0, 80, 0
2, 52800, Note_on_c, 0, 82, 110
2, 52894, Note_on_c, 0, 82, 0
2, 52896, Note_on_c, 0, 82, 110
2, 53152, Note_on_c, 0, 82, 0
2, 53184, Note_on_c, 0, 80, 110
2, 53278, Note_on_c, 0, 80, 0
2, 53280, Note_on_c, 0, 78, 110
2, 53326, Note_on_c, 0, 78, 0
2, 53328, Note_on_c, 0, 77, 110
2, 53422, Note_on_c, 0, 77, 0
2, 53424, Note_on_c, 0, 75, 110
2, 53566, Note_on_c, 0, 75, 0
2, 53664, Note_on_c, 0, 80, 110
2, 53854, Note_on_c, 0, 80, 0
2, 53856, Note_on_c, 0, 78, 110
2, 53950, Note_on_c, 0, 78, 0
2, 53952, Note_on_c, 0, 77, 110
2, 54046, Note_on_c, 0, 77, 0
2, 54048, Note_on_c, 0, 75, 110
2, 54238, Note_on_c, 0, 75, 0
2, 54240, Note_on_c, 0, 75, 110
2, 54334, Note_on_c, 0, 75, 0
2, 54336, Note_on_c, 0, 73, 110
2, 54430, Note_on_c, 0, 73, 0
2, 54432, Note_on_c, 0, 80, 110
2, 54622, Note_on_c, 0, 80, 0
2, 54624, Note_on_c, 0, 78, 110
2, 54718, Note_on_c, 0, 78, 0
2, 54720, Note_on_c, 0, 77, 110
2, 54814, Note_on_c, 0, 77, 0
2, 54816, Note_on_c, 0, 75, 110
2, 55456, Note_on_c, 0, 75, 0
2, 55680, Note_on_c, 0, 79, 110
2, 55774, Note_on_c, 0, 79, 0
2, 55776, Note_on_c, 0, 80, 110
2, 55870, Note_on_c, 0, 80, 0
2, 55872, Note_on_c, 0, 82, 110
2, 55966, Note_on_c, 0, 82, 0
2, 55968, Note_on_c, 0, 82, 110
2, 56224, Note_on_c, 0, 82, 0
2, 56256, Note_on_c, 0, 80, 110
2, 56350, Note_on_c, 0, 80, 0
2, 56352, Note_on_c, 0, 78, 110
2, 56398, Note_on_c, 0, 78, 0
2, 56400, Note_on_c, 0, 77, 110
2, 56494, Note_on_c, 0, 77, 0
2, 56496, Note_on_c, 0, 75, 110
2, 56544, Note_on_c, 0, 75, 0
2, 56544, Note_on_c, 0, 77, 110
2, 56638, Note_on_c, 0, 77, 0
2, 57216, Note_on_c, 0, 75, 110
2, 57310, Note_on_c, 0, 75, 0
2, 57312, Note_on_c, 0, 77, 110
2, 57406, Note_on_c, 0, 77, 0
2, 57408, Note_on_c, 0, 79, 110
2, 57502, Note_on_c, 0, 79, 0
2, 57504, Note_on_c, 0, 80, 110
2, 57598, Note_on_c, 0, 80, 0
2, 57696, Note_on_c, 0, 78, 110
2, 57790, Note_on_c, 0, 78, 0
2, 57888, Note_on_c, 0, 78, 110
2, 57982, Note_on_c, 0, 78, 0
2, 58080, Note_on_c, 0, 80, 110
2, 58174, Note_on_c, 0, 80, 0
2, 58272, Note_on_c, 0, 79, 110
2, 58366, Note_on_c, 0, 79, 0
2, 58752, Note_on_c, 0, 79, 110
2, 58846, Note_on_c, 0, 79, 0
2, 58848, Note_on_c, 0, 80, 110
2, 58942, Note_on_c, 0, 80, 0
2, 58944, Note_on_c, 0, 82, 110
2, 59038, Note_on_c, 0, 82, 0
2, 59040, Note_on_c, 0, 82, 110
2, 59296, Note_on_c, 0, 82, 0
2, 59328, Note_on_c, 0, 80, 110
2, 59422, Note_on_c, 0, 80, 0
2, 59424, Note_on_c, 0, 78, 110
2, 59470, Note_on_c, 0, 78, 0
2, 59472, Note_on_c, 0, 77, 110
2, 59566, Note_on_c, 0, 77, 0
2, 59568, Note_on_c, 0, 75, 110
2, 59710, Note_on_c, 0, 75, 0
2, 59808, Note_on_c, 0, 78, 110
2, 59902, Note_on_c, 0, 78, 0
2, 60000, Note_on_c, 0, 75, 110
2, 60096, Note_on_c, 0, 75, 0
2, 60096, Note_on_c, 0, 73, 110
2, 60190, Note_on_c, 0, 73, 0
2, 60192, Note_on_c, 0, 75, 110
2, 60382, Note_on_c, 0, 75, 0
2, 60384, Note_on_c, 0, 78, 110
2, 60478, Note_on_c, 0, 78, 0
2, 60480, Note_on_c, 0, 77, 110
2, 60574, Note_on_c, 0, 77, 0
2, 60576, Note_on_c, 0, 75, 110
2, 60832, Note_on_c, 0, 75, 0
2, 62064, Note_on_c, 0, 73, 110
2, 62110, Note_on_c, 0, 73, 0
2, 62112, Note_on_c, 0, 73, 110
2, 62206, Note_on_c, 0, 73, 0
2, 62208, Note_on_c, 0, 83, 110
2, 62270, Note_on_c, 0, 83, 0
2, 62272, Note_on_c, 0, 80, 110
2, 62334, Note_on_c, 0, 80, 0
2, 62336, Note_on_c, 0, 78, 110
2, 62398, Note_on_c, 0, 78, 0
2, 62400, Note_on_c, 0, 76, 110
2, 62462, Note_on_c, 0, 76, 0
2, 62464, Note_on_c, 0, 78, 110
2, 62526, Note_on_c, 0, 78, 0
2, 62528, Note_on_c, 0, 76, 110
2, 62590, Note_on_c, 0, 76, 0
2, 62592, Note_on_c, 0, 73, 110
2, 62752, Note_on_c, 0, 73, 0
2, 62880, Note_on_c, 0, 83, 110
2, 62974, Note_on_c, 0, 83, 0
2, 62976, Note_on_c, 0, 80, 110
2, 63038, Note_on_c, 0, 80, 0
2, 63040, Note_on_c, 0, 78, 110
2, 63102, Note_on_c, 0, 78, 0
2, 63104, Note_on_c, 0, 76, 110
2, 63166, Note_on_c, 0, 76, 0
2, 63168, Note_on_c, 0, 78, 110
2, 63294, Note_on_c, 0, 78, 0
2, 63296, Note_on_c, 0, 78, 110
2, 63358, Note_on_c, 0, 78, 0
2, 63360, Note_on_c, 0, 73, 110
2, 63520, Note_on_c, 0, 73, 0
2, 63744, Note_on_c, 0, 83, 110
2, 63806, Note_on_c, 0, 83, 0
2, 63808, Note_on_c, 0, 80, 110
2, 63870, Note_on_c, 0, 80, 0
2, 63872, Note_on_c, 0, 78, 110
2, 63934, Note_on_c, 0, 78, 0
2, 63936, Note_on_c, 0, 76, 110
2, 63998, Note_on_c, 0, 76, 0
2, 64000, Note_on_c, 0, 78, 110
2, 64126, Note_on_c, 0, 78, 0
2, 64128, Note_on_c, 0, 78, 110
2, 64288, Note_on_c, 0, 78, 0
2, 64416, Note_on_c, 0, 83, 110
2, 64510, Note_on_c, 0, 83, 0
2, 64512, Note_on_c, 0, 80, 110
2, 64574, Note_on_c, 0, 80, 0
2, 64576, Note_on_c, 0, 78, 110
2, 64638, Note_on_c, 0, 78, 0
2, 64640, Note_on_c, 0, 76, 110
2, 64702, Note_on_c, 0, 76, 0
2, 64704, Note_on_c, 0, 78, 110
2, 64798, Note_on_c, 0, 78, 0
2, 64800, Note_on_c, 0, 78, 110
2, 64990, Note_on_c, 0, 78, 0
2, 64992, Note_on_c, 0, 73, 110
2, 65152, Note_on_c, 0, 73, 0
2, 65280, Note_on_c, 0, 83, 110
2, 65342, Note_on_c, 0, 83, 0
2, 65344, Note_on_c, 0, 80, 110
2, 65406, Note_on_c, 0, 80, 0
2, 65408, Note_on_c, 0, 78, 110
2, 65470, Note_on_c, 0, 78, 0
2, 65472, Note_on_c, 0, 76, 110
2, 65534, Note_on_c, 0, 76, 0
2, 65536, Note_on_c, 0, 76, 110
2, 65662, Note_on_c, 0, 76, 0
2, 65664, Note_on_c, 0, 78, 110
2, 65758, Note_on_c, 0, 78, 0
2, 65856, Note_on_c, 0, 83, 110
2, 65918, Note_on_c, 0, 83, 0
2, 65920, Note_on_c, 0, 80, 110
2, 65982, Note_on_c, 0, 80, 0
2, 65984, Note_on_c, 0, 78, 110
2, 66046, Note_on_c, 0, 78, 0
2, 66048, Note_on_c, 0, 76, 110
2, 66110, Note_on_c, 0, 76, 0
2, 66112, Note_on_c, 0, 76, 110
2, 66174, Note_on_c, 0, 76, 0
2, 66176, Note_on_c, 0, 76, 110
2, 66238, Note_on_c, 0, 76, 0
2, 66240, Note_on_c, 0, 76, 110
2, 66400, Note_on_c, 0, 76, 0
2, 66528, Note_on_c, 0, 83, 110
2, 66622, Note_on_c, 0, 83, 0
2, 66624, Note_on_c, 0, 80, 110
2, 66686, Note_on_c, 0, 80, 0
2, 66688, Note_on_c, 0, 78, 110
2, 66750, Note_on_c, 0, 78, 0
2, 66752, Note_on_c, 0, 76, 110
2, 66814, Note_on_c, 0, 76, 0
2, 66816, Note_on_c, 0, 76, 110
2, 66976, Note_on_c, 0, 76, 0
2, 67104, Note_on_c, 0, 83, 110
2, 67198, Note_on_c, 0, 83, 0
2, 67200, Note_on_c, 0, 80, 110
2, 67262, Note_on_c, 0, 80, 0
2, 67264, Note_on_c, 0, 78, 110
2, 67326, Note_on_c, 0, 78, 0
2, 67328, Note_on_c, 0, 76, 110
2, 67390, Note_on_c, 0, 76, 0
2, 67392, Note_on_c, 0, 76, 110
2, 67486, Note_on_c, 0, 76, 0
2, 67488, Note_on_c, 0, 76, 110
2, 67582, Note_on_c, 0, 76, 0
2, 67584, Note_on_c, 0, 76, 110
2, 67678, Note_on_c, 0, 76, 0
2, 67680, Note_on_c, 0, 80, 110
2, 67774, Note_on_c, 0, 80, 0
2, 67776, Note_on_c, 0, 80, 110
2, 67870, Note_on_c, 0, 80, 0
2, 67872, Note_on_c, 0, 80, 110
2, 68304, Note_on_c, 0, 80, 0
2, 68736, Note_on_c, 0, 78, 110
2, 68830, Note_on_c, 0, 78, 0
2, 68832, Note_on_c, 0, 80, 110
2, 68926, Note_on_c, 0, 80, 0
2, 68928, Note_on_c, 0, 82, 110
2, 69022, Note_on_c, 0, 82, 0
2, 69024, Note_on_c, 0, 82, 110
2, 69280, Note_on_c, 0, 82, 0
2, 69312, Note_on_c, 0, 80, 110
2, 69406, Note_on_c, 0, 80, 0
2, 69408, Note_on_c, 0, 78, 110
2, 69598, Note_on_c, 0, 78, 0
2, 69600, Note_on_c, 0, 75, 110
2, 69648, Note_on_c, 0, 75, 0
2, 69648, Note_on_c, 0, 73, 110
2, 69694, Note_on_c, 0, 73, 0
2, 69694, End_track
3, 0, Start_track
3, 0, MIDI_port, 0
3, 0, Title_t, "Staff-1"
3, 0, Program_c, 1, 18
3, 0, Control_c, 1, 7, 75
3, 0, Control_c, 1, 10, 73
3, 0, Note_on_c, 1, 63, 110
3, 0, Note_on_c, 1, 70, 110
3, 1488, Note_on_c, 1, 63, 0
3, 1488, Note_on_c, 1, 70, 0
3, 1536, Note_on_c, 1, 61, 110
3, 1536, Note_on_c, 1, 65, 110
3, 1536, Note_on_c, 1, 68, 110
3, 1536, Note_on_c, 1, 70, 110
3, 1630, Note_on_c, 1, 61, 0
3, 1630, Note_on_c, 1, 65, 0
3, 1630, Note_on_c, 1, 68, 0
3, 1630, Note_on_c, 1, 70, 0
3, 1632, Note_on_c, 1, 58, 110
3, 1678, Note_on_c, 1, 58, 0
3, 1680, Note_on_c, 1, 58, 110
3, 1726, Note_on_c, 1, 58, 0
3, 1728, Note_on_c, 1, 58, 110
3, 1822, Note_on_c, 1, 58, 0
3, 1824, Note_on_c, 1, 60, 110
3, 1918, Note_on_c, 1, 60, 0
3, 1920, Note_on_c, 1, 61, 110
3, 2014, Note_on_c, 1, 61, 0
3, 2016, Note_on_c, 1, 60, 110
3, 2110, Note_on_c, 1, 60, 0
3, 2112, Note_on_c, 1, 58, 110
3, 2206, Note_on_c, 1, 58, 0
3, 2208, Note_on_c, 1, 56, 110
3, 2302, Note_on_c, 1, 56, 0
3, 2304, Note_on_c, 1, 63, 110
3, 2304, Note_on_c, 1, 68, 110
3, 2350, Note_on_c, 1, 63, 0
3, 2350, Note_on_c, 1, 68, 0
3, 2352, Note_on_c, 1, 65, 110
3, 2352, Note_on_c, 1, 70, 110
3, 2494, Note_on_c, 1, 65, 0
3, 2494, Note_on_c, 1, 70, 0
3, 2592, Note_on_c, 1, 65, 110
3, 2592, Note_on_c, 1, 70, 110
3, 2638, Note_on_c, 1, 65, 0
3, 2638, Note_on_c, 1, 70, 0
3, 2640, Note_on_c, 1, 65, 110
3, 2640, Note_on_c, 1, 70, 110
3, 2734, Note_on_c, 1, 65, 0
3, 2734, Note_on_c, 1, 70, 0
3, 2736, Note_on_c, 1, 65, 110
3, 2736, Note_on_c, 1, 70, 110
3, 2782, Note_on_c, 1, 65, 0
3, 2782, Note_on_c, 1, 70, 0
3, 2784, Note_on_c, 1, 65, 110
3, 2784, Note_on_c, 1, 70, 110
3, 2878, Note_on_c, 1, 65, 0
3, 2878, Note_on_c, 1, 70, 0
3, 2880, Note_on_c, 1, 66, 110
3, 2880, Note_on_c, 1, 71, 110
3, 2974, Note_on_c, 1, 66, 0
3, 2974, Note_on_c, 1, 71, 0
3, 2976, Note_on_c, 1, 66, 110
3, 2976, Note_on_c, 1, 71, 110
3, 3070, Note_on_c, 1, 66, 0
3, 3070, Note_on_c, 1, 71, 0
3, 3168, Note_on_c, 1, 61, 110
3, 3168, Note_on_c, 1, 68, 110
3, 3310, Note_on_c, 1, 61, 0
3, 3310, Note_on_c, 1, 68, 0
3, 3312, Note_on_c, 1, 61, 110
3, 3312, Note_on_c, 1, 67, 110
3, 3454, Note_on_c, 1, 61, 0
3, 3454, Note_on_c, 1, 67, 0
3, 3456, Note_on_c, 1, 63, 110
3, 3792, Note_on_c, 1, 63, 0
3, 3936, Note_on_c, 1, 61, 110
3, 3936, Note_on_c, 1, 68, 110
3, 4078, Note_on_c, 1, 61, 0
3, 4078, Note_on_c, 1, 68, 0
3, 4080, Note_on_c, 1, 61, 110
3, 4080, Note_on_c, 1, 67, 110
3, 4126, Note_on_c, 1, 61, 0
3, 4126, Note_on_c, 1, 67, 0
3, 4224, Note_on_c, 1, 61, 110
3, 4224, Note_on_c, 1, 65, 110
3, 4366, Note_on_c, 1, 61, 0
3, 4366, Note_on_c, 1, 65, 0
3, 4368, Note_on_c, 1, 61, 110
3, 4368, Note_on_c, 1, 67, 110
3, 4414, Note_on_c, 1, 61, 0
3, 4414, Note_on_c, 1, 67, 0
3, 4608, Note_on_c, 1, 61, 110
3, 4608, Note_on_c, 1, 65, 110
3, 4608, Note_on_c, 1, 68, 110
3, 4608, Note_on_c, 1, 70, 110
3, 4702, Note_on_c, 1, 61, 0
3, 4702, Note_on_c, 1, 65, 0
3, 4702, Note_on_c, 1, 68, 0
3, 4702, Note_on_c, 1, 70, 0
3, 4704, Note_on_c, 1, 58, 110
3, 4750, Note_on_c, 1, 58, 0
3, 4752, Note_on_c, 1, 58, 110
3, 4798, Note_on_c, 1, 58, 0
3, 4800, Note_on_c, 1, 58, 110
3, 4894, Note_on_c, 1, 58, 0
3, 4896, Note_on_c, 1, 60, 110
3, 4990, Note_on_c, 1, 60, 0
3, 4992, Note_on_c, 1, 61, 110
3, 5086, Note_on_c, 1, 61, 0
3, 5088, Note_on_c, 1, 60, 110
3, 5182, Note_on_c, 1, 60, 0
3, 5184, Note_on_c, 1, 58, 110
3, 5278, Note_on_c, 1, 58, 0
3, 5280, Note_on_c, 1, 56, 110
3, 5374, Note_on_c, 1, 56, 0
3, 5376, Note_on_c, 1, 63, 110
3, 5376, Note_on_c, 1, 68, 110
3, 5422, Note_on_c, 1, 63, 0
3, 5422, Note_on_c, 1, 68, 0
3, 5424, Note_on_c, 1, 65, 110
3, 5424, Note_on_c, 1, 70, 110
3, 5566, Note_on_c, 1, 65, 0
3, 5566, Note_on_c, 1, 70, 0
3, 5664, Note_on_c, 1, 65, 110
3, 5664, Note_on_c, 1, 70, 110
3, 5710, Note_on_c, 1, 65, 0
3, 5710, Note_on_c, 1, 70, 0
3, 5712, Note_on_c, 1, 65, 110
3, 5712, Note_on_c, 1, 70, 110
3, 5806, Note_on_c, 1, 65, 0
3, 5806, Note_on_c, 1, 70, 0
3, 5808, Note_on_c, 1, 65, 110
3, 5808, Note_on_c, 1, 70, 110
3, 5854, Note_on_c, 1, 65, 0
3, 5854, Note_on_c, 1, 70, 0
3, 5856, Note_on_c, 1, 65, 110
3, 5856, Note_on_c, 1, 70, 110
3, 5950, Note_on_c, 1, 65, 0
3, 5950, Note_on_c, 1, 70, 0
3, 5952, Note_on_c, 1, 66, 110
3, 5952, Note_on_c, 1, 71, 110
3, 6046, Note_on_c, 1, 66, 0
3, 6046, Note_on_c, 1, 71, 0
3, 6048, Note_on_c, 1, 66, 110
3, 6048, Note_on_c, 1, 71, 110
3, 6142, Note_on_c, 1, 66, 0
3, 6142, Note_on_c, 1, 71, 0
3, 6240, Note_on_c, 1, 61, 110
3, 6240, Note_on_c, 1, 68, 110
3, 6382, Note_on_c, 1, 61, 0
3, 6382, Note_on_c, 1, 68, 0
3, 6384, Note_on_c, 1, 61, 110
3, 6384, Note_on_c, 1, 67, 110
3, 6526, Note_on_c, 1, 61, 0
3, 6526, Note_on_c, 1, 67, 0
3, 6528, Note_on_c, 1, 63, 110
3, 6864, Note_on_c, 1, 63, 0
3, 7008, Note_on_c, 1, 61, 110
3, 7008, Note_on_c, 1, 68, 110
3, 7150, Note_on_c, 1, 61, 0
3, 7150, Note_on_c, 1, 68, 0
3, 7152, Note_on_c, 1, 61, 110
3, 7152, Note_on_c, 1, 67, 110
3, 7198, Note_on_c, 1, 61, 0
3, 7198, Note_on_c, 1, 67, 0
3, 7296, Note_on_c, 1, 61, 110
3, 7296, Note_on_c, 1, 65, 110
3, 7438, Note_on_c, 1, 61, 0
3, 7438, Note_on_c, 1, 65, 0
3, 7440, Note_on_c, 1, 61, 110
3, 7440, Note_on_c, 1, 67, 110
3, 7486, Note_on_c, 1, 61, 0
3, 7486, Note_on_c, 1, 67, 0
3, 7680, Note_on_c, 1, 65, 110
3, 7680, Note_on_c, 1, 68, 110
3, 7680, Note_on_c, 1, 70, 110
3, 7680, Note_on_c, 1, 73, 110
3, 7774, Note_on_c, 1, 65, 0
3, 7774, Note_on_c, 1, 68, 0
3, 7774, Note_on_c, 1, 70, 0
3, 7774, Note_on_c, 1, 73, 0
3, 7824, Note_on_c, 1, 68, 110
3, 7870, Note_on_c, 1, 68, 0
3, 7872, Note_on_c, 1, 68, 110
3, 8014, Note_on_c, 1, 68, 0
3, 8016, Note_on_c, 1, 68, 110
3, 8062, Note_on_c, 1, 68, 0
3, 8064, Note_on_c, 1, 68, 110
3, 8206, Note_on_c, 1, 68, 0
3, 8208, Note_on_c, 1, 68, 110
3, 8254, Note_on_c, 1, 68, 0
3, 8256, Note_on_c, 1, 68, 110
3, 8398, Note_on_c, 1, 68, 0
3, 8400, Note_on_c, 1, 68, 110
3, 8446, Note_on_c, 1, 68, 0
3, 8448, Note_on_c, 1, 68, 110
3, 8590, Note_on_c, 1, 68, 0
3, 8592, Note_on_c, 1, 68, 110
3, 8638, Note_on_c, 1, 68, 0
3, 8640, Note_on_c, 1, 68, 110
3, 8782, Note_on_c, 1, 68, 0
3, 8784, Note_on_c, 1, 68, 110
3, 8830, Note_on_c, 1, 68, 0
3, 8832, Note_on_c, 1, 68, 110
3, 8878, Note_on_c, 1, 68, 0
3, 8880, Note_on_c, 1, 70, 110
3, 8974, Note_on_c, 1, 70, 0
3, 8976, Note_on_c, 1, 72, 110
3, 9022, Note_on_c, 1, 72, 0
3, 9216, Note_on_c, 1, 65, 110
3, 9216, Note_on_c, 1, 68, 110
3, 9216, Note_on_c, 1, 70, 110
3, 9216, Note_on_c, 1, 73, 110
3, 9310, Note_on_c, 1, 65, 0
3, 9310, Note_on_c, 1, 68, 0
3, 9310, Note_on_c, 1, 70, 0
3, 9310, Note_on_c, 1, 73, 0
3, 9360, Note_on_c, 1, 68, 110
3, 9406, Note_on_c, 1, 68, 0
3, 9408, Note_on_c, 1, 68, 110
3, 9550, Note_on_c, 1, 68, 0
3, 9552, Note_on_c, 1, 68, 110
3, 9598, Note_on_c, 1, 68, 0
3, 9600, Note_on_c, 1, 68, 110
3, 9742, Note_on_c, 1, 68, 0
3, 9744, Note_on_c, 1, 68, 110
3, 9790, Note_on_c, 1, 68, 0
3, 9792, Note_on_c, 1, 68, 110
3, 9934, Note_on_c, 1, 68, 0
3, 9936, Note_on_c, 1, 68, 110
3, 9982, Note_on_c, 1, 68, 0
3, 9984, Note_on_c, 1, 68, 110
3, 10126, Note_on_c, 1, 68, 0
3, 10128, Note_on_c, 1, 68, 110
3, 10174, Note_on_c, 1, 68, 0
3, 10176, Note_on_c, 1, 68, 110
3, 10270, Note_on_c, 1, 68, 0
3, 10272, Note_on_c, 1, 68, 110
3, 10318, Note_on_c, 1, 68, 0
3, 10320, Note_on_c, 1, 68, 110
3, 10366, Note_on_c, 1, 68, 0
3, 10368, Note_on_c, 1, 68, 110
3, 10414, Note_on_c, 1, 68, 0
3, 10416, Note_on_c, 1, 67, 110
3, 10510, Note_on_c, 1, 67, 0
3, 10512, Note_on_c, 1, 65, 110
3, 10558, Note_on_c, 1, 65, 0
3, 10704, Note_on_c, 1, 68, 110
3, 10750, Note_on_c, 1, 68, 0
3, 10752, Note_on_c, 1, 65, 110
3, 10752, Note_on_c, 1, 68, 110
3, 10752, Note_on_c, 1, 70, 110
3, 10752, Note_on_c, 1, 73, 110
3, 10846, Note_on_c, 1, 65, 0
3, 10846, Note_on_c, 1, 68, 0
3, 10846, Note_on_c, 1, 70, 0
3, 10846, Note_on_c, 1, 73, 0
3, 10896, Note_on_c, 1, 68, 110
3, 10942, Note_on_c, 1, 68, 0
3, 10944, Note_on_c, 1, 68, 110
3, 11086, Note_on_c, 1, 68, 0
3, 11088, Note_on_c, 1, 68, 110
3, 11134, Note_on_c, 1, 68, 0
3, 11136, Note_on_c, 1, 68, 110
3, 11278, Note_on_c, 1, 68, 0
3, 11280, Note_on_c, 1, 68, 110
3, 11326, Note_on_c, 1, 68, 0
3, 11328, Note_on_c, 1, 68, 110
3, 11470, Note_on_c, 1, 68, 0
3, 11472, Note_on_c, 1, 68, 110
3, 11518, Note_on_c, 1, 68, 0
3, 11520, Note_on_c, 1, 68, 110
3, 11662, Note_on_c, 1, 68, 0
3, 11664, Note_on_c, 1, 68, 110
3, 11710, Note_on_c, 1, 68, 0
3, 11712, Note_on_c, 1, 68, 110
3, 11854, Note_on_c, 1, 68, 0
3, 11856, Note_on_c, 1, 68, 110
3, 11902, Note_on_c, 1, 68, 0
3, 11904, Note_on_c, 1, 68, 110
3, 11950, Note_on_c, 1, 68, 0
3, 11952, Note_on_c, 1, 70, 110
3, 12046, Note_on_c, 1, 70, 0
3, 12048, Note_on_c, 1, 72, 110
3, 12094, Note_on_c, 1, 72, 0
3, 12288, Note_on_c, 1, 65, 110
3, 12288, Note_on_c, 1, 68, 110
3, 12288, Note_on_c, 1, 70, 110
3, 12288, Note_on_c, 1, 73, 110
3, 12382, Note_on_c, 1, 65, 0
3, 12382, Note_on_c, 1, 68, 0
3, 12382, Note_on_c, 1, 70, 0
3, 12382, Note_on_c, 1, 73, 0
3, 12432, Note_on_c, 1, 68, 110
3, 12478, Note_on_c, 1, 68, 0
3, 12480, Note_on_c, 1, 68, 110
3, 12622, Note_on_c, 1, 68, 0
3, 12624, Note_on_c, 1, 68, 110
3, 12670, Note_on_c, 1, 68, 0
3, 12672, Note_on_c, 1, 68, 110
3, 12814, Note_on_c, 1, 68, 0
3, 12816, Note_on_c, 1, 68, 110
3, 12862, Note_on_c, 1, 68, 0
3, 12864, Note_on_c, 1, 68, 110
3, 13006, Note_on_c, 1, 68, 0
3, 13008, Note_on_c, 1, 68, 110
3, 13054, Note_on_c, 1, 68, 0
3, 13056, Note_on_c, 1, 68, 110
3, 13198, Note_on_c, 1, 68, 0
3, 13200, Note_on_c, 1, 68, 110
3, 13246, Note_on_c, 1, 68, 0
3, 13248, Note_on_c, 1, 68, 110
3, 13342, Note_on_c, 1, 68, 0
3, 13344, Note_on_c, 1, 68, 110
3, 13390, Note_on_c, 1, 68, 0
3, 13392, Note_on_c, 1, 68, 110
3, 13438, Note_on_c, 1, 68, 0
3, 13440, Note_on_c, 1, 68, 110
3, 13486, Note_on_c, 1, 68, 0
3, 13488, Note_on_c, 1, 67, 110
3, 13582, Note_on_c, 1, 67, 0
3, 13584, Note_on_c, 1, 65, 110
3, 13630, Note_on_c, 1, 65, 0
3, 13776, Note_on_c, 1, 68, 110
3, 13822, Note_on_c, 1, 68, 0
3, 13824, Note_on_c, 1, 65, 110
3, 13824, Note_on_c, 1, 68, 110
3, 13824, Note_on_c, 1, 70, 110
3, 13824, Note_on_c, 1, 73, 110
3, 13918, Note_on_c, 1, 65, 0
3, 13918, Note_on_c, 1, 68, 0
3, 13918, Note_on_c, 1, 70, 0
3, 13918, Note_on_c, 1, 73, 0
3, 13968, Note_on_c, 1, 68, 110
3, 14014, Note_on_c, 1, 68, 0
3, 14016, Note_on_c, 1, 68, 110
3, 14158, Note_on_c, 1, 68, 0
3, 14160, Note_on_c, 1, 68, 110
3, 14206, Note_on_c, 1, 68, 0
3, 14208, Note_on_c, 1, 68, 110
3, 14350, Note_on_c, 1, 68, 0
3, 14352, Note_on_c, 1, 68, 110
3, 14398, Note_on_c, 1, 68, 0
3, 14400, Note_on_c, 1, 68, 110
3, 14542, Note_on_c, 1, 68, 0
3, 14544, Note_on_c, 1, 68, 110
3, 14590, Note_on_c, 1, 68, 0
3, 14592, Note_on_c, 1, 68, 110
3, 14734, Note_on_c, 1, 68, 0
3, 14736, Note_on_c, 1, 68, 110
3, 14782, Note_on_c, 1, 68, 0
3, 14784, Note_on_c, 1, 68, 110
3, 14926, Note_on_c, 1, 68, 0
3, 14928, Note_on_c, 1, 68, 110
3, 14974, Note_on_c, 1, 68, 0
3, 14976, Note_on_c, 1, 68, 110
3, 15022, Note_on_c, 1, 68, 0
3, 15024, Note_on_c, 1, 70, 110
3, 15118, Note_on_c, 1, 70, 0
3, 15120, Note_on_c, 1, 72, 110
3, 15166, Note_on_c, 1, 72, 0
3, 15360, Note_on_c, 1, 65, 110
3, 15360, Note_on_c, 1, 68, 110
3, 15360, Note_on_c, 1, 70, 110
3, 15360, Note_on_c, 1, 73, 110
3, 15454, Note_on_c, 1, 65, 0
3, 15454, Note_on_c, 1, 68, 0
3, 15454, Note_on_c, 1, 70, 0
3, 15454, Note_on_c, 1, 73, 0
3, 15504, Note_on_c, 1, 68, 110
3, 15550, Note_on_c, 1, 68, 0
3, 15552, Note_on_c, 1, 68, 110
3, 15694, Note_on_c, 1, 68, 0
3, 15696, Note_on_c, 1, 68, 110
3, 15742, Note_on_c, 1, 68, 0
3, 15744, Note_on_c, 1, 68, 110
3, 15886, Note_on_c, 1, 68, 0
3, 15888, Note_on_c, 1, 68, 110
3, 15934, Note_on_c, 1, 68, 0
3, 15936, Note_on_c, 1, 68, 110
3, 16078, Note_on_c, 1, 68, 0
3, 16080, Note_on_c, 1, 68, 110
3, 16126, Note_on_c, 1, 68, 0
3, 16128, Note_on_c, 1, 68, 110
3, 16270, Note_on_c, 1, 68, 0
3, 16272, Note_on_c, 1, 68, 110
3, 16318, Note_on_c, 1, 68, 0
3, 16320, Note_on_c, 1, 68, 110
3, 16414, Note_on_c, 1, 68, 0
3, 16416, Note_on_c, 1, 68, 110
3, 16462, Note_on_c, 1, 68, 0
3, 16464, Note_on_c, 1, 68, 110
3, 16510, Note_on_c, 1, 68, 0
3, 16512, Note_on_c, 1, 68, 110
3, 16558, Note_on_c, 1, 68, 0
3, 16560, Note_on_c, 1, 67, 110
3, 16654, Note_on_c, 1, 67, 0
3, 16656, Note_on_c, 1, 65, 110
3, 16702, Note_on_c, 1, 65, 0
3, 16848, Note_on_c, 1, 68, 110
3, 16894, Note_on_c, 1, 68, 0
3, 16896, Note_on_c, 1, 65, 110
3, 16896, Note_on_c, 1, 68, 110
3, 16896, Note_on_c, 1, 70, 110
3, 16896, Note_on_c, 1, 73, 110
3, 16990, Note_on_c, 1, 65, 0
3, 16990, Note_on_c, 1, 68, 0
3, 16990, Note_on_c, 1, 70, 0
3, 16990, Note_on_c, 1, 73, 0
3, 17040, Note_on_c, 1, 68, 110
3, 17086, Note_on_c, 1, 68, 0
3, 17088, Note_on_c, 1, 68, 110
3, 17230, Note_on_c, 1, 68, 0
3, 17232, Note_on_c, 1, 68, 110
3, 17278, Note_on_c, 1, 68, 0
3, 17280, Note_on_c, 1, 68, 110
3, 17422, Note_on_c, 1, 68, 0
3, 17424, Note_on_c, 1, 68, 110
3, 17470, Note_on_c, 1, 68, 0
3, 17472, Note_on_c, 1, 68, 110
3, 17614, Note_on_c, 1, 68, 0
3, 17616, Note_on_c, 1, 68, 110
3, 17662, Note_on_c, 1, 68, 0
3, 17664, Note_on_c, 1, 68, 110
3, 17806, Note_on_c, 1, 68, 0
3, 17808, Note_on_c, 1, 68, 110
3, 17854, Note_on_c, 1, 68, 0
3, 17856, Note_on_c, 1, 68, 110
3, 17998, Note_on_c, 1, 68, 0
3, 18000, Note_on_c, 1, 68, 110
3, 18046, Note_on_c, 1, 68, 0
3, 18048, Note_on_c, 1, 68, 110
3, 18094, Note_on_c, 1, 68, 0
3, 18096, Note_on_c, 1, 70, 110
3, 18190, Note_on_c, 1, 70, 0
3, 18192, Note_on_c, 1, 72, 110
3, 18238, Note_on_c, 1, 72, 0
3, 18432, Note_on_c, 1, 65, 110
3, 18432, Note_on_c, 1, 68, 110
3, 18432, Note_on_c, 1, 70, 110
3, 18432, Note_on_c, 1, 73, 110
3, 18526, Note_on_c, 1, 65, 0
3, 18526, Note_on_c, 1, 68, 0
3, 18526, Note_on_c, 1, 70, 0
3, 18526, Note_on_c, 1, 73, 0
3, 18576, Note_on_c, 1, 68, 110
3, 18622, Note_on_c, 1, 68, 0
3, 18624, Note_on_c, 1, 68, 110
3, 18766, Note_on_c, 1, 68, 0
3, 18768, Note_on_c, 1, 68, 110
3, 18814, Note_on_c, 1, 68, 0
3, 18816, Note_on_c, 1, 68, 110
3, 18958, Note_on_c, 1, 68, 0
3, 18960, Note_on_c, 1, 68, 110
3, 19006, Note_on_c, 1, 68, 0
3, 19008, Note_on_c, 1, 68, 110
3, 19150, Note_on_c, 1, 68, 0
3, 19152, Note_on_c, 1, 68, 110
3, 19198, Note_on_c, 1, 68, 0
3, 19200, Note_on_c, 1, 68, 110
3, 19342, Note_on_c, 1, 68, 0
3, 19344, Note_on_c, 1, 68, 110
3, 19390, Note_on_c, 1, 68, 0
3, 19392, Note_on_c, 1, 68, 110
3, 19486, Note_on_c, 1, 68, 0
3, 19488, Note_on_c, 1, 68, 110
3, 19534, Note_on_c, 1, 68, 0
3, 19536, Note_on_c, 1, 68, 110
3, 19582, Note_on_c, 1, 68, 0
3, 19584, Note_on_c, 1, 68, 110
3, 19630, Note_on_c, 1, 68, 0
3, 19632, Note_on_c, 1, 67, 110
3, 19726, Note_on_c, 1, 67, 0
3, 19728, Note_on_c, 1, 65, 110
3, 19774, Note_on_c, 1, 65, 0
3, 19920, Note_on_c, 1, 68, 110
3, 19966, Note_on_c, 1, 68, 0
3, 19968, Note_on_c, 1, 65, 110
3, 19968, Note_on_c, 1, 68, 110
3, 19968, Note_on_c, 1, 70, 110
3, 19968, Note_on_c, 1, 73, 110
3, 20062, Note_on_c, 1, 65, 0
3, 20062, Note_on_c, 1, 68, 0
3, 20062, Note_on_c, 1, 70, 0
3, 20062, Note_on_c, 1, 73, 0
3, 20112, Note_on_c, 1, 68, 110
3, 20158, Note_on_c, 1, 68, 0
3, 20160, Note_on_c, 1, 68, 110
3, 20302, Note_on_c, 1, 68, 0
3, 20304, Note_on_c, 1, 68, 110
3, 20350, Note_on_c, 1, 68, 0
3, 20352, Note_on_c, 1, 68, 110
3, 20494, Note_on_c, 1, 68, 0
3, 20496, Note_on_c, 1, 68, 110
3, 20542, Note_on_c, 1, 68, 0
3, 20544, Note_on_c, 1, 68, 110
3, 20686, Note_on_c, 1, 68, 0
3, 20688, Note_on_c, 1, 68, 110
3, 20734, Note_on_c, 1, 68, 0
3, 20736, Note_on_c, 1, 68, 110
3, 20878, Note_on_c, 1, 68, 0
3, 20880, Note_on_c, 1, 68, 110
3, 20926, Note_on_c, 1, 68, 0
3, 20928, Note_on_c, 1, 68, 110
3, 21070, Note_on_c, 1, 68, 0
3, 21072, Note_on_c, 1, 68, 110
3, 21118, Note_on_c, 1, 68, 0
3, 21120, Note_on_c, 1, 68, 110
3, 21166, Note_on_c, 1, 68, 0
3, 21168, Note_on_c, 1, 70, 110
3, 21262, Note_on_c, 1, 70, 0
3, 21264, Note_on_c, 1, 72, 110
3, 21310, Note_on_c, 1, 72, 0
3, 21504, Note_on_c, 1, 61, 110
3, 21504, Note_on_c, 1, 68, 110
3, 22224, Note_on_c, 1, 61, 0
3, 22224, Note_on_c, 1, 68, 0
3, 22272, Note_on_c, 1, 60, 110
3, 22272, Note_on_c, 1, 63, 110
3, 22272, Note_on_c, 1, 65, 110
3, 22272, Note_on_c, 1, 68, 110
3, 22992, Note_on_c, 1, 60, 0
3, 22992, Note_on_c, 1, 63, 0
3, 22992, Note_on_c, 1, 65, 0
3, 22992, Note_on_c, 1, 68, 0
3, 23040, Note_on_c, 1, 63, 110
3, 23040, Note_on_c, 1, 68, 110
3, 23086, Note_on_c, 1, 63, 0
3, 23086, Note_on_c, 1, 68, 0
3, 23088, Note_on_c, 1, 65, 110
3, 23088, Note_on_c, 1, 70, 110
3, 23230, Note_on_c, 1, 65, 0
3, 23230, Note_on_c, 1, 70, 0
3, 23328, Note_on_c, 1, 65, 110
3, 23328, Note_on_c, 1, 70, 110
3, 23374, Note_on_c, 1, 65, 0
3, 23374, Note_on_c, 1, 70, 0
3, 23376, Note_on_c, 1, 65, 110
3, 23376, Note_on_c, 1, 70, 110
3, 23470, Note_on_c, 1, 65, 0
3, 23470, Note_on_c, 1, 70, 0
3, 23472, Note_on_c, 1, 65, 110
3, 23472, Note_on_c, 1, 70, 110
3, 23518, Note_on_c, 1, 65, 0
3, 23518, Note_on_c, 1, 70, 0
3, 23520, Note_on_c, 1, 65, 110
3, 23520, Note_on_c, 1, 70, 110
3, 23614, Note_on_c, 1, 65, 0
3, 23614, Note_on_c, 1, 70, 0
3, 23616, Note_on_c, 1, 66, 110
3, 23616, Note_on_c, 1, 71, 110
3, 23710, Note_on_c, 1, 66, 0
3, 23710, Note_on_c, 1, 71, 0
3, 23712, Note_on_c, 1, 66, 110
3, 23712, Note_on_c, 1, 71, 110
3, 23806, Note_on_c, 1, 66, 0
3, 23806, Note_on_c, 1, 71, 0
3, 23808, Note_on_c, 1, 63, 110
3, 23808, Note_on_c, 1, 68, 110
3, 23854, Note_on_c, 1, 63, 0
3, 23854, Note_on_c, 1, 68, 0
3, 23856, Note_on_c, 1, 65, 110
3, 23856, Note_on_c, 1, 70, 110
3, 23998, Note_on_c, 1, 65, 0
3, 23998, Note_on_c, 1, 70, 0
3, 24096, Note_on_c, 1, 65, 110
3, 24096, Note_on_c, 1, 70, 110
3, 24142, Note_on_c, 1, 65, 0
3, 24142, Note_on_c, 1, 70, 0
3, 24144, Note_on_c, 1, 65, 110
3, 24144, Note_on_c, 1, 70, 110
3, 24238, Note_on_c, 1, 65, 0
3, 24238, Note_on_c, 1, 70, 0
3, 24240, Note_on_c, 1, 65, 110
3, 24240, Note_on_c, 1, 70, 110
3, 24286, Note_on_c, 1, 65, 0
3, 24286, Note_on_c, 1, 70, 0
3, 24288, Note_on_c, 1, 65, 110
3, 24288, Note_on_c, 1, 70, 110
3, 24382, Note_on_c, 1, 65, 0
3, 24382, Note_on_c, 1, 70, 0
3, 24384, Note_on_c, 1, 66, 110
3, 24384, Note_on_c, 1, 71, 110
3, 24478, Note_on_c, 1, 66, 0
3, 24478, Note_on_c, 1, 71, 0
3, 24480, Note_on_c, 1, 66, 110
3, 24480, Note_on_c, 1, 71, 110
3, 24574, Note_on_c, 1, 66, 0
3, 24574, Note_on_c, 1, 71, 0
3, 24576, Note_on_c, 1, 63, 110
3, 24576, Note_on_c, 1, 68, 110
3, 24622, Note_on_c, 1, 63, 0
3, 24622, Note_on_c, 1, 68, 0
3, 24624, Note_on_c, 1, 65, 110
3, 24624, Note_on_c, 1, 70, 110
3, 24766, Note_on_c, 1, 65, 0
3, 24766, Note_on_c, 1, 70, 0
3, 24864, Note_on_c, 1, 65, 110
3, 24864, Note_on_c, 1, 70, 110
3, 24910, Note_on_c, 1, 65, 0
3, 24910, Note_on_c, 1, 70, 0
3, 24912, Note_on_c, 1, 65, 110
3, 24912, Note_on_c, 1, 70, 110
3, 25006, Note_on_c, 1, 65, 0
3, 25006, Note_on_c, 1, 70, 0
3, 25008, Note_on_c, 1, 65, 110
3, 25008, Note_on_c, 1, 70, 110
3, 25054, Note_on_c, 1, 65, 0
3, 25054, Note_on_c, 1, 70, 0
3, 25056, Note_on_c, 1, 65, 110
3, 25056, Note_on_c, 1, 70, 110
3, 25150, Note_on_c, 1, 65, 0
3, 25150, Note_on_c, 1, 70, 0
3, 25152, Note_on_c, 1, 66, 110
3, 25152, Note_on_c, 1, 71, 110
3, 25246, Note_on_c, 1, 66, 0
3, 25246, Note_on_c, 1, 71, 0
3, 25248, Note_on_c, 1, 66, 110
3, 25248, Note_on_c, 1, 71, 110
3, 25342, Note_on_c, 1, 66, 0
3, 25342, Note_on_c, 1, 71, 0
3, 25344, Note_on_c, 1, 63, 110
3, 25344, Note_on_c, 1, 68, 110
3, 25390, Note_on_c, 1, 63, 0
3, 25390, Note_on_c, 1, 68, 0
3, 25392, Note_on_c, 1, 65, 110
3, 25392, Note_on_c, 1, 70, 110
3, 25534, Note_on_c, 1, 65, 0
3, 25534, Note_on_c, 1, 70, 0
3, 25632, Note_on_c, 1, 65, 110
3, 25632, Note_on_c, 1, 70, 110
3, 25678, Note_on_c, 1, 65, 0
3, 25678, Note_on_c, 1, 70, 0
3, 25680, Note_on_c, 1, 65, 110
3, 25680, Note_on_c, 1, 70, 110
3, 25774, Note_on_c, 1, 65, 0
3, 25774, Note_on_c, 1, 70, 0
3, 25776, Note_on_c, 1, 65, 110
3, 25776, Note_on_c, 1, 70, 110
3, 25822, Note_on_c, 1, 65, 0
3, 25822, Note_on_c, 1, 70, 0
3, 25824, Note_on_c, 1, 65, 110
3, 25824, Note_on_c, 1, 70, 110
3, 25918, Note_on_c, 1, 65, 0
3, 25918, Note_on_c, 1, 70, 0
3, 25920, Note_on_c, 1, 66, 110
3, 25920, Note_on_c, 1, 71, 110
3, 26014, Note_on_c, 1, 66, 0
3, 26014, Note_on_c, 1, 71, 0
3, 26016, Note_on_c, 1, 66, 110
3, 26016, Note_on_c, 1, 71, 110
3, 26110, Note_on_c, 1, 66, 0
3, 26110, Note_on_c, 1, 71, 0
3, 26112, Note_on_c, 1, 63, 110
3, 26112, Note_on_c, 1, 68, 110
3, 26158, Note_on_c, 1, 63, 0
3, 26158, Note_on_c, 1, 68, 0
3, 26160, Note_on_c, 1, 65, 110
3, 26160, Note_on_c, 1, 70, 110
3, 26302, Note_on_c, 1, 65, 0
3, 26302, Note_on_c, 1, 70, 0
3, 26400, Note_on_c, 1, 65, 110
3, 26400, Note_on_c, 1, 70, 110
3, 26446, Note_on_c, 1, 65, 0
3, 26446, Note_on_c, 1, 70, 0
3, 26448, Note_on_c, 1, 65, 110
3, 26448, Note_on_c, 1, 70, 110
3, 26542, Note_on_c, 1, 65, 0
3, 26542, Note_on_c, 1, 70, 0
3, 26544, Note_on_c, 1, 65, 110
3, 26544, Note_on_c, 1, 70, 110
3, 26590, Note_on_c, 1, 65, 0
3, 26590, Note_on_c, 1, 70, 0
3, 26592, Note_on_c, 1, 65, 110
3, 26592, Note_on_c, 1, 70, 110
3, 26686, Note_on_c, 1, 65, 0
3, 26686, Note_on_c, 1, 70, 0
3, 26688, Note_on_c, 1, 66, 110
3, 26688, Note_on_c, 1, 71, 110
3, 26782, Note_on_c, 1, 66, 0
3, 26782, Note_on_c, 1, 71, 0
3, 26784, Note_on_c, 1, 66, 110
3, 26784, Note_on_c, 1, 71, 110
3, 26878, Note_on_c, 1, 66, 0
3, 26878, Note_on_c, 1, 71, 0
3, 26880, Note_on_c, 1, 63, 110
3, 26880, Note_on_c, 1, 68, 110
3, 26926, Note_on_c, 1, 63, 0
3, 26926, Note_on_c, 1, 68, 0
3, 26928, Note_on_c, 1, 65, 110
3, 26928, Note_on_c, 1, 70, 110
3, 27070, Note_on_c, 1, 65, 0
3, 27070, Note_on_c, 1, 70, 0
3, 27168, Note_on_c, 1, 65, 110
3, 27168, Note_on_c, 1, 70, 110
3, 27214, Note_on_c, 1, 65, 0
3, 27214, Note_on_c, 1, 70, 0
3, 27216, Note_on_c, 1, 65, 110
3, 27216, Note_on_c, 1, 70, 110
3, 27310, Note_on_c, 1, 65, 0
3, 27310, Note_on_c, 1, 70, 0
3, 27312, Note_on_c, 1, 65, 110
3, 27312, Note_on_c, 1, 70, 110
3, 27358, Note_on_c, 1, 65, 0
3, 27358, Note_on_c, 1, 70, 0
3, 27360, Note_on_c, 1, 65, 110
3, 27360, Note_on_c, 1, 70, 110
3, 27454, Note_on_c, 1, 65, 0
3, 27454, Note_on_c, 1, 70, 0
3, 27456, Note_on_c, 1, 66, 110
3, 27456, Note_on_c, 1, 71, 110
3, 27550, Note_on_c, 1, 66, 0
3, 27550, Note_on_c, 1, 71, 0
3, 27552, Note_on_c, 1, 66, 110
3, 27552, Note_on_c, 1, 71, 110
3, 27646, Note_on_c, 1, 66, 0
3, 27646, Note_on_c, 1, 71, 0
3, 27648, Note_on_c, 1, 60, 110
3, 27648, Note_on_c, 1, 63, 110
3, 27648, Note_on_c, 1, 65, 110
3, 27648, Note_on_c, 1, 68, 110
3, 28368, Note_on_c, 1, 60, 0
3, 28368, Note_on_c, 1, 63, 0
3, 28368, Note_on_c, 1, 65, 0
3, 28368, Note_on_c, 1, 68, 0
3, 28416, Note_on_c, 1, 60, 110
3, 28416, Note_on_c, 1, 63, 110
3, 28416, Note_on_c, 1, 65, 110
3, 28416, Note_on_c, 1, 68, 110
3, 29136, Note_on_c, 1, 60, 0
3, 29136, Note_on_c, 1, 63, 0
3, 29136, Note_on_c, 1, 65, 0
3, 29136, Note_on_c, 1, 68, 0
3, 29184, Note_on_c, 1, 58, 110
3, 29184, Note_on_c, 1, 63, 110
3, 29184, Note_on_c, 1, 67, 110
3, 29520, Note_on_c, 1, 58, 0
3, 29520, Note_on_c, 1, 63, 0
3, 29520, Note_on_c, 1, 67, 0
3, 29568, Note_on_c, 1, 58, 110
3, 29568, Note_on_c, 1, 63, 110
3, 29568, Note_on_c, 1, 67, 110
3, 29824, Note_on_c, 1, 58, 0
3, 29824, Note_on_c, 1, 63, 0
3, 29824, Note_on_c, 1, 67, 0
3, 29856, Note_on_c, 1, 56, 110
3, 29856, Note_on_c, 1, 60, 110
3, 29856, Note_on_c, 1, 63, 110
3, 29856, Note_on_c, 1, 67, 110
3, 30672, Note_on_c, 1, 56, 0
3, 30672, Note_on_c, 1, 60, 0
3, 30672, Note_on_c, 1, 63, 0
3, 30672, Note_on_c, 1, 66, 0
3, 30720, Note_on_c, 1, 61, 110
3, 30720, Note_on_c, 1, 63, 110
3, 30720, Note_on_c, 1, 65, 110
3, 30720, Note_on_c, 1, 68, 110
3, 31056, Note_on_c, 1, 61, 0
3, 31056, Note_on_c, 1, 63, 0
3, 31056, Note_on_c, 1, 65, 0
3, 31056, Note_on_c, 1, 68, 0
3, 31104, Note_on_c, 1, 61, 110
3, 31104, Note_on_c, 1, 63, 110
3, 31104, Note_on_c, 1, 65, 110
3, 31104, Note_on_c, 1, 68, 110
3, 31360, Note_on_c, 1, 61, 0
3, 31360, Note_on_c, 1, 63, 0
3, 31360, Note_on_c, 1, 65, 0
3, 31360, Note_on_c, 1, 68, 0
3, 31392, Note_on_c, 1, 59, 110
3, 31392, Note_on_c, 1, 63, 110
3, 31392, Note_on_c, 1, 66, 110
3, 31392, Note_on_c, 1, 68, 110
3, 31744, Note_on_c, 1, 60, 0
3, 31744, Note_on_c, 1, 63, 0
3, 31744, Note_on_c, 1, 66, 0
3, 31744, Note_on_c, 1, 68, 0
3, 31776, Note_on_c, 1, 58, 110
3, 31776, Note_on_c, 1, 61, 110
3, 31776, Note_on_c, 1, 65, 110
3, 31776, Note_on_c, 1, 68, 110
3, 31870, Note_on_c, 1, 58, 0
3, 31870, Note_on_c, 1, 61, 0
3, 31870, Note_on_c, 1, 65, 0
3, 31870, Note_on_c, 1, 68, 0
3, 31872, Note_on_c, 1, 58, 110
3, 31872, Note_on_c, 1, 61, 110
3, 31872, Note_on_c, 1, 65, 110
3, 31872, Note_on_c, 1, 68, 110
3, 32208, Note_on_c, 1, 58, 0
3, 32208, Note_on_c, 1, 61, 0
3, 32208, Note_on_c, 1, 65, 0
3, 32208, Note_on_c, 1, 68, 0
3, 32256, Note_on_c, 1, 58, 110
3, 32256, Note_on_c, 1, 63, 110
3, 32256, Note_on_c, 1, 67, 110
3, 32896, Note_on_c, 1, 58, 0
3, 32896, Note_on_c, 1, 63, 0
3, 32896, Note_on_c, 1, 67, 0
3, 32928, Note_on_c, 1, 56, 110
3, 32928, Note_on_c, 1, 60, 110
3, 32928, Note_on_c, 1, 63, 110
3, 32928, Note_on_c, 1, 67, 110
3, 33744, Note_on_c, 1, 56, 0
3, 33744, Note_on_c, 1, 60, 0
3, 33744, Note_on_c, 1, 63, 0
3, 33744, Note_on_c, 1, 66, 0
3, 33792, Note_on_c, 1, 61, 110
3, 33792, Note_on_c, 1, 63, 110
3, 33792, Note_on_c, 1, 65, 110
3, 33792, Note_on_c, 1, 68, 110
3, 34432, Note_on_c, 1, 61, 0
3, 34432, Note_on_c, 1, 63, 0
3, 34432, Note_on_c, 1, 65, 0
3, 34432, Note_on_c, 1, 68, 0
3, 34464, Note_on_c, 1, 61, 110
3, 34464, Note_on_c, 1, 63, 110
3, 34464, Note_on_c, 1, 65, 110
3, 34464, Note_on_c, 1, 68, 110
3, 34816, Note_on_c, 1, 61, 0
3, 34816, Note_on_c, 1, 63, 0
3, 34816, Note_on_c, 1, 65, 0
3, 34816, Note_on_c, 1, 68, 0
3, 34848, Note_on_c, 1, 59, 110
3, 34848, Note_on_c, 1, 63, 110
3, 34848, Note_on_c, 1, 66, 110
3, 34848, Note_on_c, 1, 68, 110
3, 35280, Note_on_c, 1, 59, 0
3, 35280, Note_on_c, 1, 63, 0
3, 35280, Note_on_c, 1, 66, 0
3, 35280, Note_on_c, 1, 68, 0
3, 35328, Note_on_c, 1, 58, 110
3, 35422, Note_on_c, 1, 58, 0
3, 35424, Note_on_c, 1, 65, 110
3, 35518, Note_on_c, 1, 65, 0
3, 35520, Note_on_c, 1, 68, 110
3, 35614, Note_on_c, 1, 68, 0
3, 35616, Note_on_c, 1, 65, 110
3, 35662, Note_on_c, 1, 65, 0
3, 35664, Note_on_c, 1, 68, 110
3, 35806, Note_on_c, 1, 68, 0
3, 35808, Note_on_c, 1, 70, 110
3, 35968, Note_on_c, 1, 70, 0
3, 36000, Note_on_c, 1, 70, 110
3, 36094, Note_on_c, 1, 70, 0
3, 36096, Note_on_c, 1, 68, 110
3, 36190, Note_on_c, 1, 68, 0
3, 36192, Note_on_c, 1, 65, 110
3, 36238, Note_on_c, 1, 65, 0
3, 36240, Note_on_c, 1, 68, 110
3, 36382, Note_on_c, 1, 68, 0
3, 36384, Note_on_c, 1, 70, 110
3, 36816, Note_on_c, 1, 70, 0
3, 36864, Note_on_c, 1, 65, 110
3, 36864, Note_on_c, 1, 68, 110
3, 36864, Note_on_c, 1, 70, 110
3, 36864, Note_on_c, 1, 73, 110
3, 36958, Note_on_c, 1, 65, 0
3, 36958, Note_on_c, 1, 68, 0
3, 36958, Note_on_c, 1, 70, 0
3, 36958, Note_on_c, 1, 73, 0
3, 37008, Note_on_c, 1, 68, 110
3, 37054, Note_on_c, 1, 68, 0
3, 37056, Note_on_c, 1, 68, 110
3, 37198, Note_on_c, 1, 68, 0
3, 37200, Note_on_c, 1, 68, 110
3, 37246, Note_on_c, 1, 68, 0
3, 37248, Note_on_c, 1, 68, 110
3, 37390, Note_on_c, 1, 68, 0
3, 37392, Note_on_c, 1, 68, 110
3, 37438, Note_on_c, 1, 68, 0
3, 37440, Note_on_c, 1, 68, 110
3, 37582, Note_on_c, 1, 68, 0
3, 37584, Note_on_c, 1, 68, 110
3, 37630, Note_on_c, 1, 68, 0
3, 37632, Note_on_c, 1, 68, 110
3, 37774, Note_on_c, 1, 68, 0
3, 37776, Note_on_c, 1, 68, 110
3, 37822, Note_on_c, 1, 68, 0
3, 37824, Note_on_c, 1, 68, 110
3, 37966, Note_on_c, 1, 68, 0
3, 37968, Note_on_c, 1, 68, 110
3, 38014, Note_on_c, 1, 68, 0
3, 38016, Note_on_c, 1, 68, 110
3, 38062, Note_on_c, 1, 68, 0
3, 38064, Note_on_c, 1, 70, 110
3, 38158, Note_on_c, 1, 70, 0
3, 38160, Note_on_c, 1, 72, 110
3, 38206, Note_on_c, 1, 72, 0
3, 38400, Note_on_c, 1, 65, 110
3, 38400, Note_on_c, 1, 68, 110
3, 38400, Note_on_c, 1, 70, 110
3, 38400, Note_on_c, 1, 73, 110
3, 38494, Note_on_c, 1, 65, 0
3, 38494, Note_on_c, 1, 68, 0
3, 38494, Note_on_c, 1, 70, 0
3, 38494, Note_on_c, 1, 73, 0
3, 38544, Note_on_c, 1, 68, 110
3, 38590, Note_on_c, 1, 68, 0
3, 38592, Note_on_c, 1, 68, 110
3, 38734, Note_on_c, 1, 68, 0
3, 38736, Note_on_c, 1, 68, 110
3, 38782, Note_on_c, 1, 68, 0
3, 38784, Note_on_c, 1, 68, 110
3, 38926, Note_on_c, 1, 68, 0
3, 38928, Note_on_c, 1, 68, 110
3, 38974, Note_on_c, 1, 68, 0
3, 38976, Note_on_c, 1, 68, 110
3, 39118, Note_on_c, 1, 68, 0
3, 39120, Note_on_c, 1, 68, 110
3, 39166, Note_on_c, 1, 68, 0
3, 39168, Note_on_c, 1, 68, 110
3, 39310, Note_on_c, 1, 68, 0
3, 39312, Note_on_c, 1, 68, 110
3, 39358, Note_on_c, 1, 68, 0
3, 39360, Note_on_c, 1, 68, 110
3, 39454, Note_on_c, 1, 68, 0
3, 39456, Note_on_c, 1, 68, 110
3, 39502, Note_on_c, 1, 68, 0
3, 39504, Note_on_c, 1, 68, 110
3, 39550, Note_on_c, 1, 68, 0
3, 39552, Note_on_c, 1, 68, 110
3, 39598, Note_on_c, 1, 68, 0
3, 39600, Note_on_c, 1, 67, 110
3, 39694, Note_on_c, 1, 67, 0
3, 39696, Note_on_c, 1, 65, 110
3, 39742, Note_on_c, 1, 65, 0
3, 39888, Note_on_c, 1, 68, 110
3, 39934, Note_on_c, 1, 68, 0
3, 39936, Note_on_c, 1, 65, 110
3, 39936, Note_on_c, 1, 68, 110
3, 39936, Note_on_c, 1, 70, 110
3, 39936, Note_on_c, 1, 73, 110
3, 40030, Note_on_c, 1, 65, 0
3, 40030, Note_on_c, 1, 68, 0
3, 40030, Note_on_c, 1, 70, 0
3, 40030, Note_on_c, 1, 73, 0
3, 40080, Note_on_c, 1, 68, 110
3, 40126, Note_on_c, 1, 68, 0
3, 40128, Note_on_c, 1, 68, 110
3, 40270, Note_on_c, 1, 68, 0
3, 40272, Note_on_c, 1, 68, 110
3, 40318, Note_on_c, 1, 68, 0
3, 40320, Note_on_c, 1, 68, 110
3, 40462, Note_on_c, 1, 68, 0
3, 40464, Note_on_c, 1, 68, 110
3, 40510, Note_on_c, 1, 68, 0
3, 40512, Note_on_c, 1, 68, 110
3, 40654, Note_on_c, 1, 68, 0
3, 40656, Note_on_c, 1, 68, 110
3, 40702, Note_on_c, 1, 68, 0
3, 40704, Note_on_c, 1, 68, 110
3, 40846, Note_on_c, 1, 68, 0
3, 40848, Note_on_c, 1, 68, 110
3, 40894, Note_on_c, 1, 68, 0
3, 40896, Note_on_c, 1, 68, 110
3, 41038, Note_on_c, 1, 68, 0
3, 41040, Note_on_c, 1, 68, 110
3, 41086, Note_on_c, 1, 68, 0
3, 41088, Note_on_c, 1, 68, 110
3, 41134, Note_on_c, 1, 68, 0
3, 41136, Note_on_c, 1, 70, 110
3, 41230, Note_on_c, 1, 70, 0
3, 41232, Note_on_c, 1, 72, 110
3, 41278, Note_on_c, 1, 72, 0
3, 41472, Note_on_c, 1, 61, 110
3, 41472, Note_on_c, 1, 68, 110
3, 42192, Note_on_c, 1, 61, 0
3, 42192, Note_on_c, 1, 68, 0
3, 42240, Note_on_c, 1, 60, 110
3, 42240, Note_on_c, 1, 63, 110
3, 42240, Note_on_c, 1, 65, 110
3, 42240, Note_on_c, 1, 68, 110
3, 42960, Note_on_c, 1, 60, 0
3, 42960, Note_on_c, 1, 63, 0
3, 42960, Note_on_c, 1, 65, 0
3, 42960, Note_on_c, 1, 68, 0
3, 43008, Note_on_c, 1, 63, 110
3, 43008, Note_on_c, 1, 68, 110
3, 43054, Note_on_c, 1, 63, 0
3, 43054, Note_on_c, 1, 68, 0
3, 43056, Note_on_c, 1, 65, 110
3, 43056, Note_on_c, 1, 70, 110
3, 43198, Note_on_c, 1, 65, 0
3, 43198, Note_on_c, 1, 70, 0
3, 43296, Note_on_c, 1, 65, 110
3, 43296, Note_on_c, 1, 70, 110
3, 43342, Note_on_c, 1, 65, 0
3, 43342, Note_on_c, 1, 70, 0
3, 43344, Note_on_c, 1, 65, 110
3, 43344, Note_on_c, 1, 70, 110
3, 43438, Note_on_c, 1, 65, 0
3, 43438, Note_on_c, 1, 70, 0
3, 43440, Note_on_c, 1, 65, 110
3, 43440, Note_on_c, 1, 70, 110
3, 43486, Note_on_c, 1, 65, 0
3, 43486, Note_on_c, 1, 70, 0
3, 43488, Note_on_c, 1, 65, 110
3, 43488, Note_on_c, 1, 70, 110
3, 43582, Note_on_c, 1, 65, 0
3, 43582, Note_on_c, 1, 70, 0
3, 43584, Note_on_c, 1, 66, 110
3, 43584, Note_on_c, 1, 71, 110
3, 43678, Note_on_c, 1, 66, 0
3, 43678, Note_on_c, 1, 71, 0
3, 43680, Note_on_c, 1, 66, 110
3, 43680, Note_on_c, 1, 71, 110
3, 43774, Note_on_c, 1, 66, 0
3, 43774, Note_on_c, 1, 71, 0
3, 43776, Note_on_c, 1, 63, 110
3, 43776, Note_on_c, 1, 68, 110
3, 43822, Note_on_c, 1, 63, 0
3, 43822, Note_on_c, 1, 68, 0
3, 43824, Note_on_c, 1, 65, 110
3, 43824, Note_on_c, 1, 70, 110
3, 43966, Note_on_c, 1, 65, 0
3, 43966, Note_on_c, 1, 70, 0
3, 44064, Note_on_c, 1, 65, 110
3, 44064, Note_on_c, 1, 70, 110
3, 44110, Note_on_c, 1, 65, 0
3, 44110, Note_on_c, 1, 70, 0
3, 44112, Note_on_c, 1, 65, 110
3, 44112, Note_on_c, 1, 70, 110
3, 44206, Note_on_c, 1, 65, 0
3, 44206, Note_on_c, 1, 70, 0
3, 44208, Note_on_c, 1, 65, 110
3, 44208, Note_on_c, 1, 70, 110
3, 44254, Note_on_c, 1, 65, 0
3, 44254, Note_on_c, 1, 70, 0
3, 44256, Note_on_c, 1, 65, 110
3, 44256, Note_on_c, 1, 70, 110
3, 44350, Note_on_c, 1, 65, 0
3, 44350, Note_on_c, 1, 70, 0
3, 44352, Note_on_c, 1, 66, 110
3, 44352, Note_on_c, 1, 71, 110
3, 44446, Note_on_c, 1, 66, 0
3, 44446, Note_on_c, 1, 71, 0
3, 44448, Note_on_c, 1, 66, 110
3, 44448, Note_on_c, 1, 71, 110
3, 44542, Note_on_c, 1, 66, 0
3, 44542, Note_on_c, 1, 71, 0
3, 44544, Note_on_c, 1, 63, 110
3, 44544, Note_on_c, 1, 68, 110
3, 44590, Note_on_c, 1, 63, 0
3, 44590, Note_on_c, 1, 68, 0
3, 44592, Note_on_c, 1, 65, 110
3, 44592, Note_on_c, 1, 70, 110
3, 44734, Note_on_c, 1, 65, 0
3, 44734, Note_on_c, 1, 70, 0
3, 44832, Note_on_c, 1, 65, 110
3, 44832, Note_on_c, 1, 70, 110
3, 44878, Note_on_c, 1, 65, 0
3, 44878, Note_on_c, 1, 70, 0
3, 44880, Note_on_c, 1, 65, 110
3, 44880, Note_on_c, 1, 70, 110
3, 44974, Note_on_c, 1, 65, 0
3, 44974, Note_on_c, 1, 70, 0
3, 44976, Note_on_c, 1, 65, 110
3, 44976, Note_on_c, 1, 70, 110
3, 45022, Note_on_c, 1, 65, 0
3, 45022, Note_on_c, 1, 70, 0
3, 45024, Note_on_c, 1, 65, 110
3, 45024, Note_on_c, 1, 70, 110
3, 45118, Note_on_c, 1, 65, 0
3, 45118, Note_on_c, 1, 70, 0
3, 45120, Note_on_c, 1, 66, 110
3, 45120, Note_on_c, 1, 71, 110
3, 45214, Note_on_c, 1, 66, 0
3, 45214, Note_on_c, 1, 71, 0
3, 45216, Note_on_c, 1, 66, 110
3, 45216, Note_on_c, 1, 71, 110
3, 45310, Note_on_c, 1, 66, 0
3, 45310, Note_on_c, 1, 71, 0
3, 45312, Note_on_c, 1, 63, 110
3, 45312, Note_on_c, 1, 68, 110
3, 45358, Note_on_c, 1, 63, 0
3, 45358, Note_on_c, 1, 68, 0
3, 45360, Note_on_c, 1, 65, 110
3, 45360, Note_on_c, 1, 70, 110
3, 45502, Note_on_c, 1, 65, 0
3, 45502, Note_on_c, 1, 70, 0
3, 45600, Note_on_c, 1, 65, 110
3, 45600, Note_on_c, 1, 70, 110
3, 45646, Note_on_c, 1, 65, 0
3, 45646, Note_on_c, 1, 70, 0
3, 45648, Note_on_c, 1, 65, 110
3, 45648, Note_on_c, 1, 70, 110
3, 45742, Note_on_c, 1, 65, 0
3, 45742, Note_on_c, 1, 70, 0
3, 45744, Note_on_c, 1, 65, 110
3, 45744, Note_on_c, 1, 70, 110
3, 45790, Note_on_c, 1, 65, 0
3, 45790, Note_on_c, 1, 70, 0
3, 45792, Note_on_c, 1, 65, 110
3, 45792, Note_on_c, 1, 70, 110
3, 45886, Note_on_c, 1, 65, 0
3, 45886, Note_on_c, 1, 70, 0
3, 45888, Note_on_c, 1, 66, 110
3, 45888, Note_on_c, 1, 71, 110
3, 45982, Note_on_c, 1, 66, 0
3, 45982, Note_on_c, 1, 71, 0
3, 45984, Note_on_c, 1, 66, 110
3, 45984, Note_on_c, 1, 71, 110
3, 46078, Note_on_c, 1, 66, 0
3, 46078, Note_on_c, 1, 71, 0
3, 46080, Note_on_c, 1, 63, 110
3, 46080, Note_on_c, 1, 68, 110
3, 46126, Note_on_c, 1, 63, 0
3, 46126, Note_on_c, 1, 68, 0
3, 46128, Note_on_c, 1, 65, 110
3, 46128, Note_on_c, 1, 70, 110
3, 46270, Note_on_c, 1, 65, 0
3, 46270, Note_on_c, 1, 70, 0
3, 46368, Note_on_c, 1, 65, 110
3, 46368, Note_on_c, 1, 70, 110
3, 46414, Note_on_c, 1, 65, 0
3, 46414, Note_on_c, 1, 70, 0
3, 46416, Note_on_c, 1, 65, 110
3, 46416, Note_on_c, 1, 70, 110
3, 46510, Note_on_c, 1, 65, 0
3, 46510, Note_on_c, 1, 70, 0
3, 46512, Note_on_c, 1, 65, 110
3, 46512, Note_on_c, 1, 70, 110
3, 46558, Note_on_c, 1, 65, 0
3, 46558, Note_on_c, 1, 70, 0
3, 46560, Note_on_c, 1, 65, 110
3, 46560, Note_on_c, 1, 70, 110
3, 46654, Note_on_c, 1, 65, 0
3, 46654, Note_on_c, 1, 70, 0
3, 46656, Note_on_c, 1, 66, 110
3, 46656, Note_on_c, 1, 71, 110
3, 46750, Note_on_c, 1, 66, 0
3, 46750, Note_on_c, 1, 71, 0
3, 46752, Note_on_c, 1, 66, 110
3, 46752, Note_on_c, 1, 71, 110
3, 46846, Note_on_c, 1, 66, 0
3, 46846, Note_on_c, 1, 71, 0
3, 46848, Note_on_c, 1, 63, 110
3, 46848, Note_on_c, 1, 68, 110
3, 46894, Note_on_c, 1, 63, 0
3, 46894, Note_on_c, 1, 68, 0
3, 46896, Note_on_c, 1, 65, 110
3, 46896, Note_on_c, 1, 70, 110
3, 47038, Note_on_c, 1, 65, 0
3, 47038, Note_on_c, 1, 70, 0
3, 47136, Note_on_c, 1, 65, 110
3, 47136, Note_on_c, 1, 70, 110
3, 47182, Note_on_c, 1, 65, 0
3, 47182, Note_on_c, 1, 70, 0
3, 47184, Note_on_c, 1, 65, 110
3, 47184, Note_on_c, 1, 70, 110
3, 47278, Note_on_c, 1, 65, 0
3, 47278, Note_on_c, 1, 70, 0
3, 47280, Note_on_c, 1, 65, 110
3, 47280, Note_on_c, 1, 70, 110
3, 47326, Note_on_c, 1, 65, 0
3, 47326, Note_on_c, 1, 70, 0
3, 47328, Note_on_c, 1, 65, 110
3, 47328, Note_on_c, 1, 70, 110
3, 47422, Note_on_c, 1, 65, 0
3, 47422, Note_on_c, 1, 70, 0
3, 47424, Note_on_c, 1, 66, 110
3, 47424, Note_on_c, 1, 71, 110
3, 47518, Note_on_c, 1, 66, 0
3, 47518, Note_on_c, 1, 71, 0
3, 47520, Note_on_c, 1, 66, 110
3, 47520, Note_on_c, 1, 71, 110
3, 47614, Note_on_c, 1, 66, 0
3, 47614, Note_on_c, 1, 71, 0
3, 47616, Note_on_c, 1, 60, 110
3, 47616, Note_on_c, 1, 63, 110
3, 47616, Note_on_c, 1, 65, 110
3, 47616, Note_on_c, 1, 68, 110
3, 48336, Note_on_c, 1, 60, 0
3, 48336, Note_on_c, 1, 63, 0
3, 48336, Note_on_c, 1, 65, 0
3, 48336, Note_on_c, 1, 68, 0
3, 48384, Note_on_c, 1, 60, 110
3, 48384, Note_on_c, 1, 63, 110
3, 48384, Note_on_c, 1, 65, 110
3, 48384, Note_on_c, 1, 68, 110
3, 49104, Note_on_c, 1, 60, 0
3, 49104, Note_on_c, 1, 63, 0
3, 49104, Note_on_c, 1, 65, 0
3, 49104, Note_on_c, 1, 68, 0
3, 49152, Note_on_c, 1, 58, 110
3, 49152, Note_on_c, 1, 63, 110
3, 49152, Note_on_c, 1, 67, 110
3, 49488, Note_on_c, 1, 58, 0
3, 49488, Note_on_c, 1, 63, 0
3, 49488, Note_on_c, 1, 67, 0
3, 49536, Note_on_c, 1, 58, 110
3, 49536, Note_on_c, 1, 63, 110
3, 49536, Note_on_c, 1, 67, 110
3, 49792, Note_on_c, 1, 58, 0
3, 49792, Note_on_c, 1, 63, 0
3, 49792, Note_on_c, 1, 67, 0
3, 49824, Note_on_c, 1, 56, 110
3, 49824, Note_on_c, 1, 60, 110
3, 49824, Note_on_c, 1, 63, 110
3, 49824, Note_on_c, 1, 67, 110
3, 50640, Note_on_c, 1, 56, 0
3, 50640, Note_on_c, 1, 60, 0
3, 50640, Note_on_c, 1, 63, 0
3, 50640, Note_on_c, 1, 66, 0
3, 50688, Note_on_c, 1, 61, 110
3, 50688, Note_on_c, 1, 63, 110
3, 50688, Note_on_c, 1, 65, 110
3, 50688, Note_on_c, 1, 68, 110
3, 51024, Note_on_c, 1, 61, 0
3, 51024, Note_on_c, 1, 63, 0
3, 51024, Note_on_c, 1, 65, 0
3, 51024, Note_on_c, 1, 68, 0
3, 51072, Note_on_c, 1, 61, 110
3, 51072, Note_on_c, 1, 63, 110
3, 51072, Note_on_c, 1, 65, 110
3, 51072, Note_on_c, 1, 68, 110
3, 51328, Note_on_c, 1, 61, 0
3, 51328, Note_on_c, 1, 63, 0
3, 51328, Note_on_c, 1, 65, 0
3, 51328, Note_on_c, 1, 68, 0
3, 51360, Note_on_c, 1, 59, 110
3, 51360, Note_on_c, 1, 63, 110
3, 51360, Note_on_c, 1, 66, 110
3, 51360, Note_on_c, 1, 68, 110
3, 51712, Note_on_c, 1, 60, 0
3, 51712, Note_on_c, 1, 63, 0
3, 51712, Note_on_c, 1, 66, 0
3, 51712, Note_on_c, 1, 68, 0
3, 51744, Note_on_c, 1, 58, 110
3, 51744, Note_on_c, 1, 61, 110
3, 51744, Note_on_c, 1, 65, 110
3, 51744, Note_on_c, 1, 68, 110
3, 51838, Note_on_c, 1, 58, 0
3, 51838, Note_on_c, 1, 61, 0
3, 51838, Note_on_c, 1, 65, 0
3, 51838, Note_on_c, 1, 68, 0
3, 51840, Note_on_c, 1, 58, 110
3, 51840, Note_on_c, 1, 61, 110
3, 51840, Note_on_c, 1, 65, 110
3, 51840, Note_on_c, 1, 68, 110
3, 52176, Note_on_c, 1, 58, 0
3, 52176, Note_on_c, 1, 61, 0
3, 52176, Note_on_c, 1, 65, 0
3, 52176, Note_on_c, 1, 68, 0
3, 52224, Note_on_c, 1, 58, 110
3, 52224, Note_on_c, 1, 63, 110
3, 52224, Note_on_c, 1, 67, 110
3, 52864, Note_on_c, 1, 58, 0
3, 52864, Note_on_c, 1, 63, 0
3, 52864, Note_on_c, 1, 67, 0
3, 52896, Note_on_c, 1, 56, 110
3, 52896, Note_on_c, 1, 60, 110
3, 52896, Note_on_c, 1, 63, 110
3, 52896, Note_on_c, 1, 67, 110
3, 53712, Note_on_c, 1, 56, 0
3, 53712, Note_on_c, 1, 60, 0
3, 53712, Note_on_c, 1, 63, 0
3, 53712, Note_on_c, 1, 66, 0
3, 53760, Note_on_c, 1, 61, 110
3, 53760, Note_on_c, 1, 63, 110
3, 53760, Note_on_c, 1, 65, 110
3, 53760, Note_on_c, 1, 68, 110
3, 54400, Note_on_c, 1, 61, 0
3, 54400, Note_on_c, 1, 63, 0
3, 54400, Note_on_c, 1, 65, 0
3, 54400, Note_on_c, 1, 68, 0
3, 54432, Note_on_c, 1, 61, 110
3, 54432, Note_on_c, 1, 63, 110
3, 54432, Note_on_c, 1, 65, 110
3, 54432, Note_on_c, 1, 68, 110
3, 54784, Note_on_c, 1, 61, 0
3, 54784, Note_on_c, 1, 63, 0
3, 54784, Note_on_c, 1, 65, 0
3, 54784, Note_on_c, 1, 68, 0
3, 54816, Note_on_c, 1, 59, 110
3, 54816, Note_on_c, 1, 63, 110
3, 54816, Note_on_c, 1, 66, 110
3, 54816, Note_on_c, 1, 68, 110
3, 55248, Note_on_c, 1, 59, 0
3, 55248, Note_on_c, 1, 63, 0
3, 55248, Note_on_c, 1, 66, 0
3, 55248, Note_on_c, 1, 68, 0
3, 55296, Note_on_c, 1, 58, 110
3, 55296, Note_on_c, 1, 63, 110
3, 55296, Note_on_c, 1, 67, 110
3, 55936, Note_on_c, 1, 58, 0
3, 55936, Note_on_c, 1, 63, 0
3, 55936, Note_on_c, 1, 67, 0
3, 55968, Note_on_c, 1, 60, 110
3, 55968, Note_on_c, 1, 63, 110
3, 55968, Note_on_c, 1, 67, 110
3, 55968, Note_on_c, 1, 70, 110
3, 56784, Note_on_c, 1, 60, 0
3, 56784, Note_on_c, 1, 63, 0
3, 56784, Note_on_c, 1, 66, 0
3, 56784, Note_on_c, 1, 70, 0
3, 56832, Note_on_c, 1, 58, 110
3, 56832, Note_on_c, 1, 63, 110
3, 56832, Note_on_c, 1, 67, 110
3, 57472, Note_on_c, 1, 58, 0
3, 57472, Note_on_c, 1, 63, 0
3, 57472, Note_on_c, 1, 67, 0
3, 57504, Note_on_c, 1, 59, 110
3, 57504, Note_on_c, 1, 63, 110
3, 57504, Note_on_c, 1, 66, 110
3, 57504, Note_on_c, 1, 68, 110
3, 57856, Note_on_c, 1, 60, 0
3, 57856, Note_on_c, 1, 63, 0
3, 57856, Note_on_c, 1, 66, 0
3, 57856, Note_on_c, 1, 68, 0
3, 57888, Note_on_c, 1, 58, 110
3, 57888, Note_on_c, 1, 61, 110
3, 57888, Note_on_c, 1, 65, 110
3, 57888, Note_on_c, 1, 68, 110
3, 58320, Note_on_c, 1, 58, 0
3, 58320, Note_on_c, 1, 61, 0
3, 58320, Note_on_c, 1, 65, 0
3, 58320, Note_on_c, 1, 68, 0
3, 58368, Note_on_c, 1, 63, 110
3, 58368, Note_on_c, 1, 65, 110
3, 58368, Note_on_c, 1, 67, 110
3, 58368, Note_on_c, 1, 70, 110
3, 59008, Note_on_c, 1, 63, 0
3, 59008, Note_on_c, 1, 65, 0
3, 59008, Note_on_c, 1, 67, 0
3, 59008, Note_on_c, 1, 70, 0
3, 59040, Note_on_c, 1, 60, 110
3, 59040, Note_on_c, 1, 63, 110
3, 59040, Note_on_c, 1, 67, 110
3, 59040, Note_on_c, 1, 70, 110
3, 59664, Note_on_c, 1, 60, 0
3, 59664, Note_on_c, 1, 63, 0
3, 59664, Note_on_c, 1, 66, 0
3, 59664, Note_on_c, 1, 70, 0
3, 59904, Program_c, 1, 6
3, 59904, Note_on_c, 1, 61, 110
3, 60064, Note_on_c, 1, 61, 0
3, 60096, Note_on_c, 1, 71, 110
3, 60190, Note_on_c, 1, 71, 0
3, 60192, Note_on_c, 1, 68, 110
3, 60286, Note_on_c, 1, 68, 0
3, 60288, Note_on_c, 1, 61, 110
3, 60382, Note_on_c, 1, 61, 0
3, 60384, Note_on_c, 1, 73, 110
3, 60478, Note_on_c, 1, 73, 0
3, 60480, Note_on_c, 1, 68, 110
3, 60574, Note_on_c, 1, 68, 0
3, 60576, Note_on_c, 1, 61, 110
3, 60670, Note_on_c, 1, 61, 0
3, 60672, Note_on_c, 1, 71, 110
3, 60766, Note_on_c, 1, 71, 0
3, 60768, Note_on_c, 1, 68, 110
3, 60862, Note_on_c, 1, 68, 0
3, 60864, Note_on_c, 1, 61, 110
3, 60958, Note_on_c, 1, 61, 0
3, 60960, Note_on_c, 1, 73, 110
3, 61054, Note_on_c, 1, 73, 0
3, 61056, Note_on_c, 1, 68, 110
3, 61150, Note_on_c, 1, 68, 0
3, 61152, Note_on_c, 1, 61, 110
3, 61246, Note_on_c, 1, 61, 0
3, 61248, Note_on_c, 1, 71, 110
3, 61342, Note_on_c, 1, 71, 0
3, 61344, Note_on_c, 1, 68, 110
3, 61438, Note_on_c, 1, 68, 0
3, 61440, Note_on_c, 1, 61, 110
3, 61534, Note_on_c, 1, 61, 0
3, 61536, Note_on_c, 1, 73, 110
3, 61630, Note_on_c, 1, 73, 0
3, 61632, Note_on_c, 1, 68, 110
3, 61726, Note_on_c, 1, 68, 0
3, 61728, Note_on_c, 1, 61, 110
3, 61822, Note_on_c, 1, 61, 0
3, 61824, Note_on_c, 1, 71, 110
3, 61918, Note_on_c, 1, 71, 0
3, 61920, Note_on_c, 1, 68, 110
3, 62014, Note_on_c, 1, 68, 0
3, 62016, Note_on_c, 1, 61, 110
3, 62110, Note_on_c, 1, 61, 0
3, 62112, Note_on_c, 1, 73, 110
3, 62206, Note_on_c, 1, 73, 0
3, 62208, Note_on_c, 1, 61, 110
3, 62368, Note_on_c, 1, 61, 0
3, 62400, Note_on_c, 1, 71, 110
3, 62494, Note_on_c, 1, 71, 0
3, 62496, Note_on_c, 1, 68, 110
3, 62590, Note_on_c, 1, 68, 0
3, 62592, Note_on_c, 1, 61, 110
3, 62686, Note_on_c, 1, 61, 0
3, 62688, Note_on_c, 1, 73, 110
3, 62782, Note_on_c, 1, 73, 0
3, 62784, Note_on_c, 1, 68, 110
3, 62878, Note_on_c, 1, 68, 0
3, 62880, Note_on_c, 1, 61, 110
3, 62974, Note_on_c, 1, 61, 0
3, 62976, Note_on_c, 1, 71, 110
3, 63070, Note_on_c, 1, 71, 0
3, 63072, Note_on_c, 1, 68, 110
3, 63166, Note_on_c, 1, 68, 0
3, 63168, Note_on_c, 1, 61, 110
3, 63262, Note_on_c, 1, 61, 0
3, 63264, Note_on_c, 1, 73, 110
3, 63358, Note_on_c, 1, 73, 0
3, 63360, Note_on_c, 1, 68, 110
3, 63454, Note_on_c, 1, 68, 0
3, 63456, Note_on_c, 1, 61, 110
3, 63550, Note_on_c, 1, 61, 0
3, 63552, Note_on_c, 1, 71, 110
3, 63646, Note_on_c, 1, 71, 0
3, 63648, Note_on_c, 1, 68, 110
3, 63742, Note_on_c, 1, 68, 0
3, 63744, Note_on_c, 1, 61, 110
3, 63838, Note_on_c, 1, 61, 0
3, 63840, Note_on_c, 1, 73, 110
3, 63934, Note_on_c, 1, 73, 0
3, 63936, Note_on_c, 1, 68, 110
3, 64030, Note_on_c, 1, 68, 0
3, 64032, Note_on_c, 1, 61, 110
3, 64126, Note_on_c, 1, 61, 0
3, 64128, Note_on_c, 1, 71, 110
3, 64222, Note_on_c, 1, 71, 0
3, 64224, Note_on_c, 1, 68, 110
3, 64318, Note_on_c, 1, 68, 0
3, 64320, Note_on_c, 1, 61, 110
3, 64414, Note_on_c, 1, 61, 0
3, 64416, Note_on_c, 1, 73, 110
3, 64510, Note_on_c, 1, 73, 0
3, 64512, Note_on_c, 1, 68, 110
3, 64606, Note_on_c, 1, 68, 0
3, 64608, Note_on_c, 1, 61, 110
3, 64702, Note_on_c, 1, 61, 0
3, 64704, Note_on_c, 1, 71, 110
3, 64798, Note_on_c, 1, 71, 0
3, 64800, Note_on_c, 1, 68, 110
3, 64894, Note_on_c, 1, 68, 0
3, 64896, Note_on_c, 1, 61, 110
3, 65056, Note_on_c, 1, 61, 0
3, 65088, Note_on_c, 1, 71, 110
3, 65248, Note_on_c, 1, 71, 0
3, 65280, Program_c, 1, 18
3, 65280, Control_c, 1, 7, 84
3, 65280, Note_on_c, 1, 59, 110
3, 65280, Note_on_c, 1, 62, 110
3, 65280, Note_on_c, 1, 66, 110
3, 65280, Note_on_c, 1, 69, 110
3, 66000, Note_on_c, 1, 59, 0
3, 66000, Note_on_c, 1, 62, 0
3, 66000, Note_on_c, 1, 66, 0
3, 66000, Note_on_c, 1, 69, 0
3, 66048, Note_on_c, 1, 59, 110
3, 66048, Note_on_c, 1, 62, 110
3, 66048, Note_on_c, 1, 66, 110
3, 66048, Note_on_c, 1, 69, 110
3, 66768, Note_on_c, 1, 59, 0
3, 66768, Note_on_c, 1, 62, 0
3, 66768, Note_on_c, 1, 66, 0
3, 66768, Note_on_c, 1, 69, 0
3, 66816, Note_on_c, 1, 59, 110
3, 66816, Note_on_c, 1, 62, 110
3, 66816, Note_on_c, 1, 64, 110
3, 66816, Note_on_c, 1, 68, 110
3, 67536, Note_on_c, 1, 59, 0
3, 67536, Note_on_c, 1, 62, 0
3, 67536, Note_on_c, 1, 64, 0
3, 67536, Note_on_c, 1, 68, 0
3, 67584, Note_on_c, 1, 59, 110
3, 67584, Note_on_c, 1, 62, 110
3, 67584, Note_on_c, 1, 64, 110
3, 67584, Note_on_c, 1, 68, 110
3, 67840, Note_on_c, 1, 68, 0
3, 67872, Note_on_c, 1, 68, 110
3, 67918, Note_on_c, 1, 68, 0
3, 67920, Note_on_c, 1, 69, 110
3, 67966, Note_on_c, 1, 69, 0
3, 67968, Note_on_c, 1, 71, 110
3, 68224, Note_on_c, 1, 71, 0
3, 68256, Note_on_c, 1, 69, 110
3, 68302, Note_on_c, 1, 69, 0
3, 68304, Note_on_c, 1, 59, 0
3, 68304, Note_on_c, 1, 62, 0
3, 68304, Note_on_c, 1, 64, 0
3, 68304, Note_on_c, 1, 68, 110
3, 68350, Note_on_c, 1, 68, 0
3, 68352, Program_c, 1, 48
3, 68352, Note_on_c, 1, 58, 110
3, 68352, Note_on_c, 1, 61, 110
3, 68352, Note_on_c, 1, 68, 110
3, 68512, Note_on_c, 1, 68, 0
3, 68544, Note_on_c, 1, 66, 110
3, 68688, Note_on_c, 1, 58, 0
3, 68688, Note_on_c, 1, 61, 0
3, 68736, Note_on_c, 1, 58, 110
3, 68736, Note_on_c, 1, 61, 110
3, 68992, Note_on_c, 1, 58, 0
3, 68992, Note_on_c, 1, 61, 0
3, 68992, Note_on_c, 1, 66, 0
3, 69024, Note_on_c, 1, 59, 110
3, 69024, Note_on_c, 1, 63, 110
3, 69024, Note_on_c, 1, 66, 110
3, 69024, Note_on_c, 1, 70, 110
3, 69840, Note_on_c, 1, 59, 0
3, 69840, Note_on_c, 1, 63, 0
3, 69840, Note_on_c, 1, 66, 0
3, 69840, Note_on_c, 1, 70, 0
3, 69840, End_track
4, 0, Start_track
4, 0, MIDI_port, 0
4, 0, Title_t, "Staff-2"
4, 0, Program_c, 2, 34
4, 0, Control_c, 2, 7, 88
4, 0, Control_c, 2, 10, 94
4, 0, Note_on_c, 2, 27, 110
4, 0, Note_on_c, 2, 34, 110
4, 0, Note_on_c, 2, 39, 110
4, 1488, Note_on_c, 2, 27, 0
4, 1488, Note_on_c, 2, 34, 0
4, 1488, Note_on_c, 2, 39, 0
4, 1536, Program_c, 2, 34
4, 1536, Note_on_c, 2, 34, 110
4, 1792, Note_on_c, 2, 34, 0
4, 1824, Note_on_c, 2, 34, 110
4, 2176, Note_on_c, 2, 34, 0
4, 2208, Note_on_c, 2, 34, 110
4, 2302, Note_on_c, 2, 34, 0
4, 2304, Note_on_c, 2, 34, 110
4, 2560, Note_on_c, 2, 34, 0
4, 2592, Note_on_c, 2, 37, 110
4, 2782, Note_on_c, 2, 37, 0
4, 2784, Note_on_c, 2, 37, 110
4, 3040, Note_on_c, 2, 37, 0
4, 3072, Note_on_c, 2, 34, 110
4, 3328, Note_on_c, 2, 34, 0
4, 3360, Note_on_c, 2, 34, 110
4, 3712, Note_on_c, 2, 34, 0
4, 3744, Note_on_c, 2, 34, 110
4, 3838, Note_on_c, 2, 34, 0
4, 3840, Note_on_c, 2, 34, 110
4, 4096, Note_on_c, 2, 34, 0
4, 4128, Note_on_c, 2, 37, 110
4, 4318, Note_on_c, 2, 37, 0
4, 4320, Note_on_c, 2, 37, 110
4, 4576, Note_on_c, 2, 37, 0
4, 4608, Note_on_c, 2, 34, 110
4, 4864, Note_on_c, 2, 34, 0
4, 4896, Note_on_c, 2, 34, 110
4, 5248, Note_on_c, 2, 34, 0
4, 5280, Note_on_c, 2, 34, 110
4, 5374, Note_on_c, 2, 34, 0
4, 5376, Note_on_c, 2, 34, 110
4, 5632, Note_on_c, 2, 34, 0
4, 5664, Note_on_c, 2, 37, 110
4, 5854, Note_on_c, 2, 37, 0
4, 5856, Note_on_c, 2, 37, 110
4, 6112, Note_on_c, 2, 37, 0
4, 6144, Note_on_c, 2, 34, 110
4, 6400, Note_on_c, 2, 34, 0
4, 6432, Note_on_c, 2, 34, 110
4, 6784, Note_on_c, 2, 34, 0
4, 6816, Note_on_c, 2, 34, 110
4, 6910, Note_on_c, 2, 34, 0
4, 6912, Note_on_c, 2, 34, 110
4, 7168, Note_on_c, 2, 34, 0
4, 7200, Note_on_c, 2, 37, 110
4, 7390, Note_on_c, 2, 37, 0
4, 7392, Note_on_c, 2, 37, 110
4, 7648, Note_on_c, 2, 37, 0
4, 7680, Note_on_c, 2, 32, 110
4, 7726, Note_on_c, 2, 32, 0
4, 7728, Note_on_c, 2, 34, 110
4, 7822, Note_on_c, 2, 34, 0
4, 7824, Note_on_c, 2, 34, 110
4, 7918, Note_on_c, 2, 34, 0
4, 7920, Note_on_c, 2, 34, 110
4, 7966, Note_on_c, 2, 34, 0
4, 7968, Note_on_c, 2, 29, 110
4, 8014, Note_on_c, 2, 29, 0
4, 8016, Note_on_c, 2, 34, 110
4, 8110, Note_on_c, 2, 34, 0
4, 8112, Note_on_c, 2, 29, 110
4, 8158, Note_on_c, 2, 29, 0
4, 8160, Note_on_c, 2, 34, 110
4, 8206, Note_on_c, 2, 34, 0
4, 8208, Note_on_c, 2, 29, 110
4, 8254, Note_on_c, 2, 29, 0
4, 8256, Note_on_c, 2, 32, 110
4, 8350, Note_on_c, 2, 32, 0
4, 8352, Note_on_c, 2, 34, 110
4, 8398, Note_on_c, 2, 34, 0
4, 8400, Note_on_c, 2, 34, 110
4, 8446, Note_on_c, 2, 34, 0
4, 8448, Note_on_c, 2, 32, 110
4, 8494, Note_on_c, 2, 32, 0
4, 8496, Note_on_c, 2, 34, 110
4, 8590, Note_on_c, 2, 34, 0
4, 8592, Note_on_c, 2, 34, 110
4, 8686, Note_on_c, 2, 34, 0
4, 8688, Note_on_c, 2, 34, 110
4, 8782, Note_on_c, 2, 34, 0
4, 8784, Note_on_c, 2, 34, 110
4, 8878, Note_on_c, 2, 34, 0
4, 8880, Note_on_c, 2, 29, 110
4, 8926, Note_on_c, 2, 29, 0
4, 8928, Note_on_c, 2, 34, 110
4, 9022, Note_on_c, 2, 34, 0
4, 9024, Note_on_c, 2, 37, 110
4, 9166, Note_on_c, 2, 37, 0
4, 9168, Note_on_c, 2, 34, 110
4, 9214, Note_on_c, 2, 34, 0
4, 9216, Note_on_c, 2, 32, 110
4, 9262, Note_on_c, 2, 32, 0
4, 9264, Note_on_c, 2, 34, 110
4, 9358, Note_on_c, 2, 34, 0
4, 9360, Note_on_c, 2, 34, 110
4, 9454, Note_on_c, 2, 34, 0
4, 9456, Note_on_c, 2, 34, 110
4, 9502, Note_on_c, 2, 34, 0
4, 9504, Note_on_c, 2, 29, 110
4, 9550, Note_on_c, 2, 29, 0
4, 9552, Note_on_c, 2, 34, 110
4, 9646, Note_on_c, 2, 34, 0
4, 9648, Note_on_c, 2, 29, 110
4, 9694, Note_on_c, 2, 29, 0
4, 9696, Note_on_c, 2, 34, 110
4, 9742, Note_on_c, 2, 34, 0
4, 9744, Note_on_c, 2, 29, 110
4, 9790, Note_on_c, 2, 29, 0
4, 9792, Note_on_c, 2, 32, 110
4, 9886, Note_on_c, 2, 32, 0
4, 9888, Note_on_c, 2, 34, 110
4, 9934, Note_on_c, 2, 34, 0
4, 9936, Note_on_c, 2, 34, 110
4, 9982, Note_on_c, 2, 34, 0
4, 9984, Note_on_c, 2, 32, 110
4, 10030, Note_on_c, 2, 32, 0
4, 10032, Note_on_c, 2, 34, 110
4, 10126, Note_on_c, 2, 34, 0
4, 10128, Note_on_c, 2, 34, 110
4, 10222, Note_on_c, 2, 34, 0
4, 10224, Note_on_c, 2, 34, 110
4, 10318, Note_on_c, 2, 34, 0
4, 10320, Note_on_c, 2, 34, 110
4, 10414, Note_on_c, 2, 34, 0
4, 10416, Note_on_c, 2, 32, 110
4, 10462, Note_on_c, 2, 32, 0
4, 10464, Note_on_c, 2, 34, 110
4, 10510, Note_on_c, 2, 34, 0
4, 10512, Note_on_c, 2, 34, 110
4, 10558, Note_on_c, 2, 34, 0
4, 10560, Note_on_c, 2, 39, 110
4, 10606, Note_on_c, 2, 39, 0
4, 10608, Note_on_c, 2, 37, 110
4, 10654, Note_on_c, 2, 37, 0
4, 10656, Note_on_c, 2, 34, 110
4, 10750, Note_on_c, 2, 34, 0
4, 10752, Note_on_c, 2, 32, 110
4, 10798, Note_on_c, 2, 32, 0
4, 10800, Note_on_c, 2, 34, 110
4, 10894, Note_on_c, 2, 34, 0
4, 10896, Note_on_c, 2, 34, 110
4, 10990, Note_on_c, 2, 34, 0
4, 10992, Note_on_c, 2, 34, 110
4, 11038, Note_on_c, 2, 34, 0
4, 11040, Note_on_c, 2, 29, 110
4, 11086, Note_on_c, 2, 29, 0
4, 11088, Note_on_c, 2, 34, 110
4, 11182, Note_on_c, 2, 34, 0
4, 11184, Note_on_c, 2, 29, 110
4, 11230, Note_on_c, 2, 29, 0
4, 11232, Note_on_c, 2, 34, 110
4, 11278, Note_on_c, 2, 34, 0
4, 11280, Note_on_c, 2, 29, 110
4, 11326, Note_on_c, 2, 29, 0
4, 11328, Note_on_c, 2, 32, 110
4, 11422, Note_on_c, 2, 32, 0
4, 11424, Note_on_c, 2, 34, 110
4, 11470, Note_on_c, 2, 34, 0
4, 11472, Note_on_c, 2, 34, 110
4, 11518, Note_on_c, 2, 34, 0
4, 11520, Note_on_c, 2, 32, 110
4, 11566, Note_on_c, 2, 32, 0
4, 11568, Note_on_c, 2, 34, 110
4, 11662, Note_on_c, 2, 34, 0
4, 11664, Note_on_c, 2, 34, 110
4, 11758, Note_on_c, 2, 34, 0
4, 11760, Note_on_c, 2, 34, 110
4, 11854, Note_on_c, 2, 34, 0
4, 11856, Note_on_c, 2, 34, 110
4, 11950, Note_on_c, 2, 34, 0
4, 11952, Note_on_c, 2, 29, 110
4, 11998, Note_on_c, 2, 29, 0
4, 12000, Note_on_c, 2, 34, 110
4, 12094, Note_on_c, 2, 34, 0
4, 12096, Note_on_c, 2, 37, 110
4, 12238, Note_on_c, 2, 37, 0
4, 12240, Note_on_c, 2, 34, 110
4, 12286, Note_on_c, 2, 34, 0
4, 12288, Note_on_c, 2, 32, 110
4, 12334, Note_on_c, 2, 32, 0
4, 12336, Note_on_c, 2, 34, 110
4, 12430, Note_on_c, 2, 34, 0
4, 12432, Note_on_c, 2, 34, 110
4, 12526, Note_on_c, 2, 34, 0
4, 12528, Note_on_c, 2, 34, 110
4, 12574, Note_on_c, 2, 34, 0
4, 12576, Note_on_c, 2, 29, 110
4, 12622, Note_on_c, 2, 29, 0
4, 12624, Note_on_c, 2, 34, 110
4, 12718, Note_on_c, 2, 34, 0
4, 12720, Note_on_c, 2, 29, 110
4, 12766, Note_on_c, 2, 29, 0
4, 12768, Note_on_c, 2, 34, 110
4, 12814, Note_on_c, 2, 34, 0
4, 12816, Note_on_c, 2, 29, 110
4, 12862, Note_on_c, 2, 29, 0
4, 12864, Note_on_c, 2, 32, 110
4, 12958, Note_on_c, 2, 32, 0
4, 12960, Note_on_c, 2, 34, 110
4, 13006, Note_on_c, 2, 34, 0
4, 13008, Note_on_c, 2, 34, 110
4, 13054, Note_on_c, 2, 34, 0
4, 13056, Note_on_c, 2, 32, 110
4, 13102, Note_on_c, 2, 32, 0
4, 13104, Note_on_c, 2, 34, 110
4, 13198, Note_on_c, 2, 34, 0
4, 13200, Note_on_c, 2, 34, 110
4, 13294, Note_on_c, 2, 34, 0
4, 13296, Note_on_c, 2, 34, 110
4, 13390, Note_on_c, 2, 34, 0
4, 13392, Note_on_c, 2, 34, 110
4, 13486, Note_on_c, 2, 34, 0
4, 13488, Note_on_c, 2, 32, 110
4, 13534, Note_on_c, 2, 32, 0
4, 13536, Note_on_c, 2, 34, 110
4, 13582, Note_on_c, 2, 34, 0
4, 13584, Note_on_c, 2, 34, 110
4, 13630, Note_on_c, 2, 34, 0
4, 13632, Note_on_c, 2, 39, 110
4, 13678, Note_on_c, 2, 39, 0
4, 13680, Note_on_c, 2, 37, 110
4, 13726, Note_on_c, 2, 37, 0
4, 13728, Note_on_c, 2, 34, 110
4, 13822, Note_on_c, 2, 34, 0
4, 13824, Note_on_c, 2, 32, 110
4, 13870, Note_on_c, 2, 32, 0
4, 13872, Note_on_c, 2, 34, 110
4, 13966, Note_on_c, 2, 34, 0
4, 13968, Note_on_c, 2, 34, 110
4, 14062, Note_on_c, 2, 34, 0
4, 14064, Note_on_c, 2, 34, 110
4, 14110, Note_on_c, 2, 34, 0
4, 14112, Note_on_c, 2, 29, 110
4, 14158, Note_on_c, 2, 29, 0
4, 14160, Note_on_c, 2, 34, 110
4, 14254, Note_on_c, 2, 34, 0
4, 14256, Note_on_c, 2, 29, 110
4, 14302, Note_on_c, 2, 29, 0
4, 14304, Note_on_c, 2, 34, 110
4, 14350, Note_on_c, 2, 34, 0
4, 14352, Note_on_c, 2, 29, 110
4, 14398, Note_on_c, 2, 29, 0
4, 14400, Note_on_c, 2, 32, 110
4, 14494, Note_on_c, 2, 32, 0
4, 14496, Note_on_c, 2, 34, 110
4, 14542, Note_on_c, 2, 34, 0
4, 14544, Note_on_c, 2, 34, 110
4, 14590, Note_on_c, 2, 34, 0
4, 14592, Note_on_c, 2, 32, 110
4, 14638, Note_on_c, 2, 32, 0
4, 14640, Note_on_c, 2, 34, 110
4, 14734, Note_on_c, 2, 34, 0
4, 14736, Note_on_c, 2, 34, 110
4, 14830, Note_on_c, 2, 34, 0
4, 14832, Note_on_c, 2, 34, 110
4, 14926, Note_on_c, 2, 34, 0
4, 14928, Note_on_c, 2, 34, 110
4, 15022, Note_on_c, 2, 34, 0
4, 15024, Note_on_c, 2, 29, 110
4, 15070, Note_on_c, 2, 29, 0
4, 15072, Note_on_c, 2, 34, 110
4, 15166, Note_on_c, 2, 34, 0
4, 15168, Note_on_c, 2, 37, 110
4, 15310, Note_on_c, 2, 37, 0
4, 15312, Note_on_c, 2, 34, 110
4, 15358, Note_on_c, 2, 34, 0
4, 15360, Note_on_c, 2, 32, 110
4, 15406, Note_on_c, 2, 32, 0
4, 15408, Note_on_c, 2, 34, 110
4, 15502, Note_on_c, 2, 34, 0
4, 15504, Note_on_c, 2, 34, 110
4, 15598, Note_on_c, 2, 34, 0
4, 15600, Note_on_c, 2, 34, 110
4, 15646, Note_on_c, 2, 34, 0
4, 15648, Note_on_c, 2, 29, 110
4, 15694, Note_on_c, 2, 29, 0
4, 15696, Note_on_c, 2, 34, 110
4, 15790, Note_on_c, 2, 34, 0
4, 15792, Note_on_c, 2, 29, 110
4, 15838, Note_on_c, 2, 29, 0
4, 15840, Note_on_c, 2, 34, 110
4, 15886, Note_on_c, 2, 34, 0
4, 15888, Note_on_c, 2, 29, 110
4, 15934, Note_on_c, 2, 29, 0
4, 15936, Note_on_c, 2, 32, 110
4, 16030, Note_on_c, 2, 32, 0
4, 16032, Note_on_c, 2, 34, 110
4, 16078, Note_on_c, 2, 34, 0
4, 16080, Note_on_c, 2, 34, 110
4, 16126, Note_on_c, 2, 34, 0
4, 16128, Note_on_c, 2, 32, 110
4, 16174, Note_on_c, 2, 32, 0
4, 16176, Note_on_c, 2, 34, 110
4, 16270, Note_on_c, 2, 34, 0
4, 16272, Note_on_c, 2, 34, 110
4, 16366, Note_on_c, 2, 34, 0
4, 16368, Note_on_c, 2, 34, 110
4, 16462, Note_on_c, 2, 34, 0
4, 16464, Note_on_c, 2, 34, 110
4, 16558, Note_on_c, 2, 34, 0
4, 16560, Note_on_c, 2, 32, 110
4, 16606, Note_on_c, 2, 32, 0
4, 16608, Note_on_c, 2, 34, 110
4, 16654, Note_on_c, 2, 34, 0
4, 16656, Note_on_c, 2, 34, 110
4, 16702, Note_on_c, 2, 34, 0
4, 16704, Note_on_c, 2, 39, 110
4, 16750, Note_on_c, 2, 39, 0
4, 16752, Note_on_c, 2, 37, 110
4, 16798, Note_on_c, 2, 37, 0
4, 16800, Note_on_c, 2, 34, 110
4, 16894, Note_on_c, 2, 34, 0
4, 16896, Note_on_c, 2, 32, 110
4, 16942, Note_on_c, 2, 32, 0
4, 16944, Note_on_c, 2, 34, 110
4, 17038, Note_on_c, 2, 34, 0
4, 17040, Note_on_c, 2, 34, 110
4, 17134, Note_on_c, 2, 34, 0
4, 17136, Note_on_c, 2, 34, 110
4, 17182, Note_on_c, 2, 34, 0
4, 17184, Note_on_c, 2, 29, 110
4, 17230, Note_on_c, 2, 29, 0
4, 17232, Note_on_c, 2, 34, 110
4, 17326, Note_on_c, 2, 34, 0
4, 17328, Note_on_c, 2, 29, 110
4, 17374, Note_on_c, 2, 29, 0
4, 17376, Note_on_c, 2, 34, 110
4, 17422, Note_on_c, 2, 34, 0
4, 17424, Note_on_c, 2, 29, 110
4, 17470, Note_on_c, 2, 29, 0
4, 17472, Note_on_c, 2, 32, 110
4, 17566, Note_on_c, 2, 32, 0
4, 17568, Note_on_c, 2, 34, 110
4, 17614, Note_on_c, 2, 34, 0
4, 17616, Note_on_c, 2, 34, 110
4, 17662, Note_on_c, 2, 34, 0
4, 17664, Note_on_c, 2, 32, 110
4, 17710, Note_on_c, 2, 32, 0
4, 17712, Note_on_c, 2, 34, 110
4, 17806, Note_on_c, 2, 34, 0
4, 17808, Note_on_c, 2, 34, 110
4, 17902, Note_on_c, 2, 34, 0
4, 17904, Note_on_c, 2, 34, 110
4, 17998, Note_on_c, 2, 34, 0
4, 18000, Note_on_c, 2, 34, 110
4, 18094, Note_on_c, 2, 34, 0
4, 18096, Note_on_c, 2, 29, 110
4, 18142, Note_on_c, 2, 29, 0
4, 18144, Note_on_c, 2, 34, 110
4, 18238, Note_on_c, 2, 34, 0
4, 18240, Note_on_c, 2, 37, 110
4, 18382, Note_on_c, 2, 37, 0
4, 18384, Note_on_c, 2, 34, 110
4, 18430, Note_on_c, 2, 34, 0
4, 18432, Note_on_c, 2, 32, 110
4, 18478, Note_on_c, 2, 32, 0
4, 18480, Note_on_c, 2, 34, 110
4, 18574, Note_on_c, 2, 34, 0
4, 18576, Note_on_c, 2, 34, 110
4, 18670, Note_on_c, 2, 34, 0
4, 18672, Note_on_c, 2, 34, 110
4, 18718, Note_on_c, 2, 34, 0
4, 18720, Note_on_c, 2, 29, 110
4, 18766, Note_on_c, 2, 29, 0
4, 18768, Note_on_c, 2, 34, 110
4, 18862, Note_on_c, 2, 34, 0
4, 18864, Note_on_c, 2, 29, 110
4, 18910, Note_on_c, 2, 29, 0
4, 18912, Note_on_c, 2, 34, 110
4, 18958, Note_on_c, 2, 34, 0
4, 18960, Note_on_c, 2, 29, 110
4, 19006, Note_on_c, 2, 29, 0
4, 19008, Note_on_c, 2, 32, 110
4, 19102, Note_on_c, 2, 32, 0
4, 19104, Note_on_c, 2, 34, 110
4, 19150, Note_on_c, 2, 34, 0
4, 19152, Note_on_c, 2, 34, 110
4, 19198, Note_on_c, 2, 34, 0
4, 19200, Note_on_c, 2, 32, 110
4, 19246, Note_on_c, 2, 32, 0
4, 19248, Note_on_c, 2, 34, 110
4, 19342, Note_on_c, 2, 34, 0
4, 19344, Note_on_c, 2, 34, 110
4, 19438, Note_on_c, 2, 34, 0
4, 19440, Note_on_c, 2, 34, 110
4, 19534, Note_on_c, 2, 34, 0
4, 19536, Note_on_c, 2, 34, 110
4, 19630, Note_on_c, 2, 34, 0
4, 19632, Note_on_c, 2, 32, 110
4, 19678, Note_on_c, 2, 32, 0
4, 19680, Note_on_c, 2, 34, 110
4, 19726, Note_on_c, 2, 34, 0
4, 19728, Note_on_c, 2, 34, 110
4, 19774, Note_on_c, 2, 34, 0
4, 19776, Note_on_c, 2, 39, 110
4, 19822, Note_on_c, 2, 39, 0
4, 19824, Note_on_c, 2, 37, 110
4, 19870, Note_on_c, 2, 37, 0
4, 19872, Note_on_c, 2, 34, 110
4, 19966, Note_on_c, 2, 34, 0
4, 19968, Note_on_c, 2, 32, 110
4, 20014, Note_on_c, 2, 32, 0
4, 20016, Note_on_c, 2, 34, 110
4, 20110, Note_on_c, 2, 34, 0
4, 20112, Note_on_c, 2, 34, 110
4, 20206, Note_on_c, 2, 34, 0
4, 20208, Note_on_c, 2, 34, 110
4, 20254, Note_on_c, 2, 34, 0
4, 20256, Note_on_c, 2, 29, 110
4, 20302, Note_on_c, 2, 29, 0
4, 20304, Note_on_c, 2, 34, 110
4, 20398, Note_on_c, 2, 34, 0
4, 20400, Note_on_c, 2, 29, 110
4, 20446, Note_on_c, 2, 29, 0
4, 20448, Note_on_c, 2, 34, 110
4, 20494, Note_on_c, 2, 34, 0
4, 20496, Note_on_c, 2, 29, 110
4, 20542, Note_on_c, 2, 29, 0
4, 20544, Note_on_c, 2, 32, 110
4, 20638, Note_on_c, 2, 32, 0
4, 20640, Note_on_c, 2, 34, 110
4, 20686, Note_on_c, 2, 34, 0
4, 20688, Note_on_c, 2, 34, 110
4, 20734, Note_on_c, 2, 34, 0
4, 20736, Note_on_c, 2, 32, 110
4, 20782, Note_on_c, 2, 32, 0
4, 20784, Note_on_c, 2, 34, 110
4, 20878, Note_on_c, 2, 34, 0
4, 20880, Note_on_c, 2, 34, 110
4, 20974, Note_on_c, 2, 34, 0
4, 20976, Note_on_c, 2, 34, 110
4, 21070, Note_on_c, 2, 34, 0
4, 21072, Note_on_c, 2, 34, 110
4, 21166, Note_on_c, 2, 34, 0
4, 21168, Note_on_c, 2, 29, 110
4, 21214, Note_on_c, 2, 29, 0
4, 21216, Note_on_c, 2, 34, 110
4, 21310, Note_on_c, 2, 34, 0
4, 21312, Note_on_c, 2, 37, 110
4, 21454, Note_on_c, 2, 37, 0
4, 21456, Note_on_c, 2, 34, 110
4, 21502, Note_on_c, 2, 34, 0
4, 21504, Note_on_c, 2, 25, 110
4, 21760, Note_on_c, 2, 25, 0
4, 21792, Note_on_c, 2, 25, 110
4, 21982, Note_on_c, 2, 25, 0
4, 21984, Note_on_c, 2, 25, 110
4, 22240, Note_on_c, 2, 25, 0
4, 22272, Note_on_c, 2, 29, 110
4, 22432, Note_on_c, 2, 29, 0
4, 22464, Note_on_c, 2, 29, 110
4, 22558, Note_on_c, 2, 29, 0
4, 22560, Note_on_c, 2, 29, 110
4, 22750, Note_on_c, 2, 29, 0
4, 22752, Note_on_c, 2, 29, 110
4, 22846, Note_on_c, 2, 29, 0
4, 22848, Note_on_c, 2, 29, 110
4, 22942, Note_on_c, 2, 29, 0
4, 22944, Note_on_c, 2, 29, 110
4, 23038, Note_on_c, 2, 29, 0
4, 23040, Note_on_c, 2, 32, 110
4, 23086, Note_on_c, 2, 32, 0
4, 23088, Note_on_c, 2, 34, 110
4, 23182, Note_on_c, 2, 34, 0
4, 23184, Note_on_c, 2, 34, 110
4, 23278, Note_on_c, 2, 34, 0
4, 23280, Note_on_c, 2, 34, 110
4, 23374, Note_on_c, 2, 34, 0
4, 23376, Note_on_c, 2, 34, 110
4, 23470, Note_on_c, 2, 34, 0
4, 23472, Note_on_c, 2, 32, 110
4, 23518, Note_on_c, 2, 32, 0
4, 23520, Note_on_c, 2, 34, 110
4, 23566, Note_on_c, 2, 34, 0
4, 23568, Note_on_c, 2, 34, 110
4, 23614, Note_on_c, 2, 34, 0
4, 23616, Note_on_c, 2, 39, 110
4, 23662, Note_on_c, 2, 39, 0
4, 23664, Note_on_c, 2, 37, 110
4, 23710, Note_on_c, 2, 37, 0
4, 23712, Note_on_c, 2, 34, 110
4, 23806, Note_on_c, 2, 34, 0
4, 23808, Note_on_c, 2, 32, 110
4, 23854, Note_on_c, 2, 32, 0
4, 23856, Note_on_c, 2, 34, 110
4, 23950, Note_on_c, 2, 34, 0
4, 23952, Note_on_c, 2, 34, 110
4, 24094, Note_on_c, 2, 34, 0
4, 24096, Note_on_c, 2, 34, 110
4, 24142, Note_on_c, 2, 34, 0
4, 24144, Note_on_c, 2, 34, 110
4, 24238, Note_on_c, 2, 34, 0
4, 24240, Note_on_c, 2, 34, 110
4, 24286, Note_on_c, 2, 34, 0
4, 24288, Note_on_c, 2, 34, 110
4, 24382, Note_on_c, 2, 34, 0
4, 24384, Note_on_c, 2, 32, 110
4, 24478, Note_on_c, 2, 32, 0
4, 24480, Note_on_c, 2, 34, 110
4, 24574, Note_on_c, 2, 34, 0
4, 24576, Note_on_c, 2, 27, 110
4, 24670, Note_on_c, 2, 27, 0
4, 24672, Note_on_c, 2, 27, 110
4, 24718, Note_on_c, 2, 27, 0
4, 24720, Note_on_c, 2, 27, 110
4, 24862, Note_on_c, 2, 27, 0
4, 24864, Note_on_c, 2, 27, 110
4, 24910, Note_on_c, 2, 27, 0
4, 24912, Note_on_c, 2, 27, 110
4, 25006, Note_on_c, 2, 27, 0
4, 25008, Note_on_c, 2, 25, 110
4, 25054, Note_on_c, 2, 25, 0
4, 25056, Note_on_c, 2, 27, 110
4, 25150, Note_on_c, 2, 27, 0
4, 25152, Note_on_c, 2, 25, 110
4, 25246, Note_on_c, 2, 25, 0
4, 25248, Note_on_c, 2, 27, 110
4, 25342, Note_on_c, 2, 27, 0
4, 25344, Note_on_c, 2, 25, 110
4, 25390, Note_on_c, 2, 25, 0
4, 25392, Note_on_c, 2, 27, 110
4, 25486, Note_on_c, 2, 27, 0
4, 25488, Note_on_c, 2, 27, 110
4, 25582, Note_on_c, 2, 27, 0
4, 25584, Note_on_c, 2, 27, 110
4, 25678, Note_on_c, 2, 27, 0
4, 25680, Note_on_c, 2, 27, 110
4, 25774, Note_on_c, 2, 27, 0
4, 25776, Note_on_c, 2, 25, 110
4, 25822, Note_on_c, 2, 25, 0
4, 25824, Note_on_c, 2, 27, 110
4, 25918, Note_on_c, 2, 27, 0
4, 25920, Note_on_c, 2, 25, 110
4, 26014, Note_on_c, 2, 25, 0
4, 26016, Note_on_c, 2, 27, 110
4, 26110, Note_on_c, 2, 27, 0
4, 26112, Note_on_c, 2, 25, 110
4, 26368, Note_on_c, 2, 25, 0
4, 26400, Note_on_c, 2, 25, 110
4, 26590, Note_on_c, 2, 25, 0
4, 26592, Note_on_c, 2, 25, 110
4, 26848, Note_on_c, 2, 25, 0
4, 26880, Note_on_c, 2, 25, 110
4, 27136, Note_on_c, 2, 25, 0
4, 27168, Note_on_c, 2, 25, 110
4, 27358, Note_on_c, 2, 25, 0
4, 27360, Note_on_c, 2, 27, 110
4, 27616, Note_on_c, 2, 27, 0
4, 27648, Note_on_c, 2, 29, 110
4, 28126, Note_on_c, 2, 29, 0
4, 28128, Note_on_c, 2, 29, 110
4, 28288, Note_on_c, 2, 29, 0
4, 28320, Note_on_c, 2, 29, 110
4, 28414, Note_on_c, 2, 29, 0
4, 28416, Note_on_c, 2, 29, 110
4, 28672, Note_on_c, 2, 29, 0
4, 28704, Note_on_c, 2, 29, 110
4, 28894, Note_on_c, 2, 29, 0
4, 28896, Note_on_c, 2, 24, 110
4, 28942, Note_on_c, 2, 24, 0
4, 28944, Note_on_c, 2, 25, 110
4, 28990, Note_on_c, 2, 25, 0
4, 28992, Note_on_c, 2, 29, 110
4, 29086, Note_on_c, 2, 29, 0
4, 29088, Note_on_c, 2, 29, 110
4, 29182, Note_on_c, 2, 29, 0
4, 29184, Note_on_c, 2, 51, 110
4, 29278, Note_on_c, 2, 51, 0
4, 29280, Note_on_c, 2, 51, 110
4, 29374, Note_on_c, 2, 51, 0
4, 29376, Note_on_c, 2, 49, 110
4, 29470, Note_on_c, 2, 49, 0
4, 29472, Note_on_c, 2, 48, 110
4, 29566, Note_on_c, 2, 48, 0
4, 29568, Note_on_c, 2, 46, 110
4, 29662, Note_on_c, 2, 46, 0
4, 29664, Note_on_c, 2, 48, 110
4, 29758, Note_on_c, 2, 48, 0
4, 29760, Note_on_c, 2, 48, 110
4, 29854, Note_on_c, 2, 48, 0
4, 29856, Note_on_c, 2, 44, 110
4, 29950, Note_on_c, 2, 44, 0
4, 29952, Note_on_c, 2, 44, 110
4, 30046, Note_on_c, 2, 44, 0
4, 30048, Note_on_c, 2, 44, 110
4, 30142, Note_on_c, 2, 44, 0
4, 30144, Note_on_c, 2, 44, 110
4, 30238, Note_on_c, 2, 44, 0
4, 30240, Note_on_c, 2, 41, 110
4, 30334, Note_on_c, 2, 41, 0
4, 30336, Note_on_c, 2, 41, 110
4, 30430, Note_on_c, 2, 41, 0
4, 30432, Note_on_c, 2, 41, 110
4, 30526, Note_on_c, 2, 41, 0
4, 30528, Note_on_c, 2, 41, 110
4, 30622, Note_on_c, 2, 41, 0
4, 30624, Note_on_c, 2, 41, 110
4, 30718, Note_on_c, 2, 41, 0
4, 30720, Note_on_c, 2, 49, 110
4, 30814, Note_on_c, 2, 49, 0
4, 30816, Note_on_c, 2, 49, 110
4, 30910, Note_on_c, 2, 49, 0
4, 30912, Note_on_c, 2, 47, 110
4, 31006, Note_on_c, 2, 47, 0
4, 31008, Note_on_c, 2, 46, 110
4, 31102, Note_on_c, 2, 46, 0
4, 31104, Note_on_c, 2, 44, 110
4, 31198, Note_on_c, 2, 44, 0
4, 31200, Note_on_c, 2, 42, 110
4, 31294, Note_on_c, 2, 42, 0
4, 31296, Note_on_c, 2, 41, 110
4, 31390, Note_on_c, 2, 41, 0
4, 31392, Note_on_c, 2, 47, 110
4, 31486, Note_on_c, 2, 47, 0
4, 31488, Note_on_c, 2, 48, 110
4, 31744, Note_on_c, 2, 48, 0
4, 31776, Note_on_c, 2, 46, 110
4, 31870, Note_on_c, 2, 46, 0
4, 31872, Note_on_c, 2, 46, 110
4, 32128, Note_on_c, 2, 46, 0
4, 32160, Note_on_c, 2, 46, 110
4, 32254, Note_on_c, 2, 46, 0
4, 32256, Note_on_c, 2, 46, 110
4, 32512, Note_on_c, 2, 46, 0
4, 32544, Note_on_c, 2, 46, 110
4, 32638, Note_on_c, 2, 46, 0
4, 32640, Note_on_c, 2, 46, 110
4, 32896, Note_on_c, 2, 46, 0
4, 32928, Note_on_c, 2, 46, 110
4, 33022, Note_on_c, 2, 46, 0
4, 33024, Note_on_c, 2, 51, 110
4, 33118, Note_on_c, 2, 51, 0
4, 33120, Note_on_c, 2, 51, 110
4, 33214, Note_on_c, 2, 51, 0
4, 33216, Note_on_c, 2, 49, 110
4, 33310, Note_on_c, 2, 49, 0
4, 33312, Note_on_c, 2, 48, 110
4, 33406, Note_on_c, 2, 48, 0
4, 33408, Note_on_c, 2, 46, 110
4, 33502, Note_on_c, 2, 46, 0
4, 33504, Note_on_c, 2, 48, 110
4, 33598, Note_on_c, 2, 48, 0
4, 33600, Note_on_c, 2, 48, 110
4, 33694, Note_on_c, 2, 48, 0
4, 33696, Note_on_c, 2, 44, 110
4, 33790, Note_on_c, 2, 44, 0
4, 33792, Note_on_c, 2, 44, 110
4, 33886, Note_on_c, 2, 44, 0
4, 33888, Note_on_c, 2, 44, 110
4, 33982, Note_on_c, 2, 44, 0
4, 33984, Note_on_c, 2, 44, 110
4, 34078, Note_on_c, 2, 44, 0
4, 34080, Note_on_c, 2, 41, 110
4, 34174, Note_on_c, 2, 41, 0
4, 34176, Note_on_c, 2, 41, 110
4, 34270, Note_on_c, 2, 41, 0
4, 34272, Note_on_c, 2, 41, 110
4, 34366, Note_on_c, 2, 41, 0
4, 34368, Note_on_c, 2, 41, 110
4, 34462, Note_on_c, 2, 41, 0
4, 34464, Note_on_c, 2, 41, 110
4, 34558, Note_on_c, 2, 41, 0
4, 34560, Note_on_c, 2, 49, 110
4, 34654, Note_on_c, 2, 49, 0
4, 34656, Note_on_c, 2, 49, 110
4, 34750, Note_on_c, 2, 49, 0
4, 34752, Note_on_c, 2, 49, 110
4, 34846, Note_on_c, 2, 49, 0
4, 34848, Note_on_c, 2, 47, 110
4, 35038, Note_on_c, 2, 47, 0
4, 35040, Note_on_c, 2, 47, 110
4, 35134, Note_on_c, 2, 47, 0
4, 35136, Note_on_c, 2, 47, 110
4, 35230, Note_on_c, 2, 47, 0
4, 35232, Note_on_c, 2, 47, 110
4, 35326, Note_on_c, 2, 47, 0
4, 35328, Note_on_c, 2, 22, 110
4, 36816, Note_on_c, 2, 22, 0
4, 36864, Note_on_c, 2, 32, 110
4, 36910, Note_on_c, 2, 32, 0
4, 36912, Note_on_c, 2, 34, 110
4, 37006, Note_on_c, 2, 34, 0
4, 37008, Note_on_c, 2, 34, 110
4, 37102, Note_on_c, 2, 34, 0
4, 37104, Note_on_c, 2, 34, 110
4, 37150, Note_on_c, 2, 34, 0
4, 37152, Note_on_c, 2, 29, 110
4, 37198, Note_on_c, 2, 29, 0
4, 37200, Note_on_c, 2, 34, 110
4, 37294, Note_on_c, 2, 34, 0
4, 37296, Note_on_c, 2, 29, 110
4, 37342, Note_on_c, 2, 29, 0
4, 37344, Note_on_c, 2, 34, 110
4, 37390, Note_on_c, 2, 34, 0
4, 37392, Note_on_c, 2, 29, 110
4, 37438, Note_on_c, 2, 29, 0
4, 37440, Note_on_c, 2, 32, 110
4, 37534, Note_on_c, 2, 32, 0
4, 37536, Note_on_c, 2, 34, 110
4, 37582, Note_on_c, 2, 34, 0
4, 37584, Note_on_c, 2, 34, 110
4, 37630, Note_on_c, 2, 34, 0
4, 37632, Note_on_c, 2, 32, 110
4, 37678, Note_on_c, 2, 32, 0
4, 37680, Note_on_c, 2, 34, 110
4, 37774, Note_on_c, 2, 34, 0
4, 37776, Note_on_c, 2, 34, 110
4, 37870, Note_on_c, 2, 34, 0
4, 37872, Note_on_c, 2, 34, 110
4, 37966, Note_on_c, 2, 34, 0
4, 37968, Note_on_c, 2, 34, 110
4, 38062, Note_on_c, 2, 34, 0
4, 38064, Note_on_c, 2, 29, 110
4, 38110, Note_on_c, 2, 29, 0
4, 38112, Note_on_c, 2, 34, 110
4, 38206, Note_on_c, 2, 34, 0
4, 38208, Note_on_c, 2, 37, 110
4, 38350, Note_on_c, 2, 37, 0
4, 38352, Note_on_c, 2, 34, 110
4, 38398, Note_on_c, 2, 34, 0
4, 38400, Note_on_c, 2, 32, 110
4, 38446, Note_on_c, 2, 32, 0
4, 38448, Note_on_c, 2, 34, 110
4, 38542, Note_on_c, 2, 34, 0
4, 38544, Note_on_c, 2, 34, 110
4, 38638, Note_on_c, 2, 34, 0
4, 38640, Note_on_c, 2, 34, 110
4, 38686, Note_on_c, 2, 34, 0
4, 38688, Note_on_c, 2, 29, 110
4, 38734, Note_on_c, 2, 29, 0
4, 38736, Note_on_c, 2, 34, 110
4, 38830, Note_on_c, 2, 34, 0
4, 38832, Note_on_c, 2, 29, 110
4, 38878, Note_on_c, 2, 29, 0
4, 38880, Note_on_c, 2, 34, 110
4, 38926, Note_on_c, 2, 34, 0
4, 38928, Note_on_c, 2, 29, 110
4, 38974, Note_on_c, 2, 29, 0
4, 38976, Note_on_c, 2, 32, 110
4, 39070, Note_on_c, 2, 32, 0
4, 39072, Note_on_c, 2, 34, 110
4, 39118, Note_on_c, 2, 34, 0
4, 39120, Note_on_c, 2, 34, 110
4, 39166, Note_on_c, 2, 34, 0
4, 39168, Note_on_c, 2, 32, 110
4, 39214, Note_on_c, 2, 32, 0
4, 39216, Note_on_c, 2, 34, 110
4, 39310, Note_on_c, 2, 34, 0
4, 39312, Note_on_c, 2, 34, 110
4, 39406, Note_on_c, 2, 34, 0
4, 39408, Note_on_c, 2, 34, 110
4, 39502, Note_on_c, 2, 34, 0
4, 39504, Note_on_c, 2, 34, 110
4, 39598, Note_on_c, 2, 34, 0
4, 39600, Note_on_c, 2, 32, 110
4, 39646, Note_on_c, 2, 32, 0
4, 39648, Note_on_c, 2, 34, 110
4, 39694, Note_on_c, 2, 34, 0
4, 39696, Note_on_c, 2, 34, 110
4, 39742, Note_on_c, 2, 34, 0
4, 39744, Note_on_c, 2, 39, 110
4, 39790, Note_on_c, 2, 39, 0
4, 39792, Note_on_c, 2, 37, 110
4, 39838, Note_on_c, 2, 37, 0
4, 39840, Note_on_c, 2, 34, 110
4, 39934, Note_on_c, 2, 34, 0
4, 39936, Note_on_c, 2, 32, 110
4, 39982, Note_on_c, 2, 32, 0
4, 39984, Note_on_c, 2, 34, 110
4, 40078, Note_on_c, 2, 34, 0
4, 40080, Note_on_c, 2, 34, 110
4, 40174, Note_on_c, 2, 34, 0
4, 40176, Note_on_c, 2, 34, 110
4, 40222, Note_on_c, 2, 34, 0
4, 40224, Note_on_c, 2, 29, 110
4, 40270, Note_on_c, 2, 29, 0
4, 40272, Note_on_c, 2, 34, 110
4, 40366, Note_on_c, 2, 34, 0
4, 40368, Note_on_c, 2, 29, 110
4, 40414, Note_on_c, 2, 29, 0
4, 40416, Note_on_c, 2, 34, 110
4, 40462, Note_on_c, 2, 34, 0
4, 40464, Note_on_c, 2, 29, 110
4, 40510, Note_on_c, 2, 29, 0
4, 40512, Note_on_c, 2, 32, 110
4, 40606, Note_on_c, 2, 32, 0
4, 40608, Note_on_c, 2, 34, 110
4, 40654, Note_on_c, 2, 34, 0
4, 40656, Note_on_c, 2, 34, 110
4, 40702, Note_on_c, 2, 34, 0
4, 40704, Note_on_c, 2, 32, 110
4, 40750, Note_on_c, 2, 32, 0
4, 40752, Note_on_c, 2, 34, 110
4, 40846, Note_on_c, 2, 34, 0
4, 40848, Note_on_c, 2, 34, 110
4, 40942, Note_on_c, 2, 34, 0
4, 40944, Note_on_c, 2, 34, 110
4, 41038, Note_on_c, 2, 34, 0
4, 41040, Note_on_c, 2, 34, 110
4, 41134, Note_on_c, 2, 34, 0
4, 41136, Note_on_c, 2, 29, 110
4, 41182, Note_on_c, 2, 29, 0
4, 41184, Note_on_c, 2, 34, 110
4, 41278, Note_on_c, 2, 34, 0
4, 41280, Note_on_c, 2, 37, 110
4, 41422, Note_on_c, 2, 37, 0
4, 41424, Note_on_c, 2, 34, 110
4, 41470, Note_on_c, 2, 34, 0
4, 41472, Note_on_c, 2, 25, 110
4, 41728, Note_on_c, 2, 25, 0
4, 41760, Note_on_c, 2, 25, 110
4, 41950, Note_on_c, 2, 25, 0
4, 41952, Note_on_c, 2, 25, 110
4, 42208, Note_on_c, 2, 25, 0
4, 42240, Note_on_c, 2, 29, 110
4, 42400, Note_on_c, 2, 29, 0
4, 42432, Note_on_c, 2, 29, 110
4, 42526, Note_on_c, 2, 29, 0
4, 42528, Note_on_c, 2, 29, 110
4, 42718, Note_on_c, 2, 29, 0
4, 42720, Note_on_c, 2, 29, 110
4, 42814, Note_on_c, 2, 29, 0
4, 42816, Note_on_c, 2, 29, 110
4, 42910, Note_on_c, 2, 29, 0
4, 42912, Note_on_c, 2, 29, 110
4, 43006, Note_on_c, 2, 29, 0
4, 43008, Note_on_c, 2, 32, 110
4, 43054, Note_on_c, 2, 32, 0
4, 43056, Note_on_c, 2, 34, 110
4, 43150, Note_on_c, 2, 34, 0
4, 43152, Note_on_c, 2, 34, 110
4, 43246, Note_on_c, 2, 34, 0
4, 43248, Note_on_c, 2, 34, 110
4, 43342, Note_on_c, 2, 34, 0
4, 43344, Note_on_c, 2, 34, 110
4, 43438, Note_on_c, 2, 34, 0
4, 43440, Note_on_c, 2, 32, 110
4, 43486, Note_on_c, 2, 32, 0
4, 43488, Note_on_c, 2, 34, 110
4, 43534, Note_on_c, 2, 34, 0
4, 43536, Note_on_c, 2, 34, 110
4, 43582, Note_on_c, 2, 34, 0
4, 43584, Note_on_c, 2, 39, 110
4, 43630, Note_on_c, 2, 39, 0
4, 43632, Note_on_c, 2, 37, 110
4, 43678, Note_on_c, 2, 37, 0
4, 43680, Note_on_c, 2, 34, 110
4, 43774, Note_on_c, 2, 34, 0
4, 43776, Note_on_c, 2, 32, 110
4, 43822, Note_on_c, 2, 32, 0
4, 43824, Note_on_c, 2, 34, 110
4, 43918, Note_on_c, 2, 34, 0
4, 43920, Note_on_c, 2, 34, 110
4, 44062, Note_on_c, 2, 34, 0
4, 44064, Note_on_c, 2, 34, 110
4, 44110, Note_on_c, 2, 34, 0
4, 44112, Note_on_c, 2, 34, 110
4, 44206, Note_on_c, 2, 34, 0
4, 44208, Note_on_c, 2, 34, 110
4, 44254, Note_on_c, 2, 34, 0
4, 44256, Note_on_c, 2, 34, 110
4, 44350, Note_on_c, 2, 34, 0
4, 44352, Note_on_c, 2, 32, 110
4, 44446, Note_on_c, 2, 32, 0
4, 44448, Note_on_c, 2, 34, 110
4, 44542, Note_on_c, 2, 34, 0
4, 44544, Note_on_c, 2, 27, 110
4, 44638, Note_on_c, 2, 27, 0
4, 44640, Note_on_c, 2, 27, 110
4, 44686, Note_on_c, 2, 27, 0
4, 44688, Note_on_c, 2, 27, 110
4, 44830, Note_on_c, 2, 27, 0
4, 44832, Note_on_c, 2, 27, 110
4, 44878, Note_on_c, 2, 27, 0
4, 44880, Note_on_c, 2, 27, 110
4, 44974, Note_on_c, 2, 27, 0
4, 44976, Note_on_c, 2, 25, 110
4, 45022, Note_on_c, 2, 25, 0
4, 45024, Note_on_c, 2, 27, 110
4, 45118, Note_on_c, 2, 27, 0
4, 45120, Note_on_c, 2, 25, 110
4, 45214, Note_on_c, 2, 25, 0
4, 45216, Note_on_c, 2, 27, 110
4, 45310, Note_on_c, 2, 27, 0
4, 45312, Note_on_c, 2, 25, 110
4, 45358, Note_on_c, 2, 25, 0
4, 45360, Note_on_c, 2, 27, 110
4, 45454, Note_on_c, 2, 27, 0
4, 45456, Note_on_c, 2, 27, 110
4, 45550, Note_on_c, 2, 27, 0
4, 45552, Note_on_c, 2, 27, 110
4, 45646, Note_on_c, 2, 27, 0
4, 45648, Note_on_c, 2, 27, 110
4, 45742, Note_on_c, 2, 27, 0
4, 45744, Note_on_c, 2, 25, 110
4, 45790, Note_on_c, 2, 25, 0
4, 45792, Note_on_c, 2, 27, 110
4, 45886, Note_on_c, 2, 27, 0
4, 45888, Note_on_c, 2, 25, 110
4, 45982, Note_on_c, 2, 25, 0
4, 45984, Note_on_c, 2, 27, 110
4, 46078, Note_on_c, 2, 27, 0
4, 46080, Note_on_c, 2, 25, 110
4, 46336, Note_on_c, 2, 25, 0
4, 46368, Note_on_c, 2, 25, 110
4, 46558, Note_on_c, 2, 25, 0
4, 46560, Note_on_c, 2, 25, 110
4, 46816, Note_on_c, 2, 25, 0
4, 46848, Note_on_c, 2, 25, 110
4, 47104, Note_on_c, 2, 25, 0
4, 47136, Note_on_c, 2, 25, 110
4, 47326, Note_on_c, 2, 25, 0
4, 47328, Note_on_c, 2, 27, 110
4, 47584, Note_on_c, 2, 27, 0
4, 47616, Note_on_c, 2, 29, 110
4, 48094, Note_on_c, 2, 29, 0
4, 48096, Note_on_c, 2, 29, 110
4, 48256, Note_on_c, 2, 29, 0
4, 48288, Note_on_c, 2, 29, 110
4, 48382, Note_on_c, 2, 29, 0
4, 48384, Note_on_c, 2, 29, 110
4, 48640, Note_on_c, 2, 29, 0
4, 48672, Note_on_c, 2, 29, 110
4, 48862, Note_on_c, 2, 29, 0
4, 48864, Note_on_c, 2, 24, 110
4, 48910, Note_on_c, 2, 24, 0
4, 48912, Note_on_c, 2, 25, 110
4, 48958, Note_on_c, 2, 25, 0
4, 48960, Note_on_c, 2, 29, 110
4, 49054, Note_on_c, 2, 29, 0
4, 49056, Note_on_c, 2, 29, 110
4, 49150, Note_on_c, 2, 29, 0
4, 49152, Note_on_c, 2, 51, 110
4, 49246, Note_on_c, 2, 51, 0
4, 49248, Note_on_c, 2, 51, 110
4, 49342, Note_on_c, 2, 51, 0
4, 49344, Note_on_c, 2, 49, 110
4, 49438, Note_on_c, 2, 49, 0
4, 49440, Note_on_c, 2, 48, 110
4, 49534, Note_on_c, 2, 48, 0
4, 49536, Note_on_c, 2, 46, 110
4, 49630, Note_on_c, 2, 46, 0
4, 49632, Note_on_c, 2, 48, 110
4, 49726, Note_on_c, 2, 48, 0
4, 49728, Note_on_c, 2, 48, 110
4, 49822, Note_on_c, 2, 48, 0
4, 49824, Note_on_c, 2, 44, 110
4, 49918, Note_on_c, 2, 44, 0
4, 49920, Note_on_c, 2, 44, 110
4, 50014, Note_on_c, 2, 44, 0
4, 50016, Note_on_c, 2, 44, 110
4, 50110, Note_on_c, 2, 44, 0
4, 50112, Note_on_c, 2, 44, 110
4, 50206, Note_on_c, 2, 44, 0
4, 50208, Note_on_c, 2, 41, 110
4, 50302, Note_on_c, 2, 41, 0
4, 50304, Note_on_c, 2, 41, 110
4, 50398, Note_on_c, 2, 41, 0
4, 50400, Note_on_c, 2, 41, 110
4, 50494, Note_on_c, 2, 41, 0
4, 50496, Note_on_c, 2, 41, 110
4, 50590, Note_on_c, 2, 41, 0
4, 50592, Note_on_c, 2, 41, 110
4, 50686, Note_on_c, 2, 41, 0
4, 50688, Note_on_c, 2, 49, 110
4, 50782, Note_on_c, 2, 49, 0
4, 50784, Note_on_c, 2, 49, 110
4, 50878, Note_on_c, 2, 49, 0
4, 50880, Note_on_c, 2, 47, 110
4, 50974, Note_on_c, 2, 47, 0
4, 50976, Note_on_c, 2, 46, 110
4, 51070, Note_on_c, 2, 46, 0
4, 51072, Note_on_c, 2, 44, 110
4, 51166, Note_on_c, 2, 44, 0
4, 51168, Note_on_c, 2, 42, 110
4, 51262, Note_on_c, 2, 42, 0
4, 51264, Note_on_c, 2, 41, 110
4, 51358, Note_on_c, 2, 41, 0
4, 51360, Note_on_c, 2, 47, 110
4, 51454, Note_on_c, 2, 47, 0
4, 51456, Note_on_c, 2, 48, 110
4, 51712, Note_on_c, 2, 48, 0
4, 51744, Note_on_c, 2, 46, 110
4, 51838, Note_on_c, 2, 46, 0
4, 51840, Note_on_c, 2, 46, 110
4, 52096, Note_on_c, 2, 46, 0
4, 52128, Note_on_c, 2, 46, 110
4, 52222, Note_on_c, 2, 46, 0
4, 52224, Note_on_c, 2, 46, 110
4, 52480, Note_on_c, 2, 46, 0
4, 52512, Note_on_c, 2, 46, 110
4, 52606, Note_on_c, 2, 46, 0
4, 52608, Note_on_c, 2, 46, 110
4, 52864, Note_on_c, 2, 46, 0
4, 52896, Note_on_c, 2, 46, 110
4, 52990, Note_on_c, 2, 46, 0
4, 52992, Note_on_c, 2, 51, 110
4, 53086, Note_on_c, 2, 51, 0
4, 53088, Note_on_c, 2, 51, 110
4, 53182, Note_on_c, 2, 51, 0
4, 53184, Note_on_c, 2, 49, 110
4, 53278, Note_on_c, 2, 49, 0
4, 53280, Note_on_c, 2, 48, 110
4, 53374, Note_on_c, 2, 48, 0
4, 53376, Note_on_c, 2, 46, 110
4, 53470, Note_on_c, 2, 46, 0
4, 53472, Note_on_c, 2, 48, 110
4, 53566, Note_on_c, 2, 48, 0
4, 53568, Note_on_c, 2, 48, 110
4, 53662, Note_on_c, 2, 48, 0
4, 53664, Note_on_c, 2, 44, 110
4, 53758, Note_on_c, 2, 44, 0
4, 53760, Note_on_c, 2, 44, 110
4, 53854, Note_on_c, 2, 44, 0
4, 53856, Note_on_c, 2, 44, 110
4, 53950, Note_on_c, 2, 44, 0
4, 53952, Note_on_c, 2, 44, 110
4, 54046, Note_on_c, 2, 44, 0
4, 54048, Note_on_c, 2, 41, 110
4, 54142, Note_on_c, 2, 41, 0
4, 54144, Note_on_c, 2, 41, 110
4, 54238, Note_on_c, 2, 41, 0
4, 54240, Note_on_c, 2, 41, 110
4, 54334, Note_on_c, 2, 41, 0
4, 54336, Note_on_c, 2, 41, 110
4, 54430, Note_on_c, 2, 41, 0
4, 54432, Note_on_c, 2, 41, 110
4, 54526, Note_on_c, 2, 41, 0
4, 54528, Note_on_c, 2, 49, 110
4, 54622, Note_on_c, 2, 49, 0
4, 54624, Note_on_c, 2, 49, 110
4, 54718, Note_on_c, 2, 49, 0
4, 54720, Note_on_c, 2, 49, 110
4, 54814, Note_on_c, 2, 49, 0
4, 54816, Note_on_c, 2, 47, 110
4, 55006, Note_on_c, 2, 47, 0
4, 55008, Note_on_c, 2, 47, 110
4, 55102, Note_on_c, 2, 47, 0
4, 55104, Note_on_c, 2, 47, 110
4, 55198, Note_on_c, 2, 47, 0
4, 55200, Note_on_c, 2, 47, 110
4, 55294, Note_on_c, 2, 47, 0
4, 55296, Note_on_c, 2, 51, 110
4, 55390, Note_on_c, 2, 51, 0
4, 55392, Note_on_c, 2, 51, 110
4, 55486, Note_on_c, 2, 51, 0
4, 55488, Note_on_c, 2, 49, 110
4, 55582, Note_on_c, 2, 49, 0
4, 55584, Note_on_c, 2, 48, 110
4, 55678, Note_on_c, 2, 48, 0
4, 55680, Note_on_c, 2, 46, 110
4, 55774, Note_on_c, 2, 46, 0
4, 55776, Note_on_c, 2, 48, 110
4, 55870, Note_on_c, 2, 48, 0
4, 55872, Note_on_c, 2, 48, 110
4, 55966, Note_on_c, 2, 48, 0
4, 55968, Note_on_c, 2, 41, 110
4, 56062, Note_on_c, 2, 41, 0
4, 56064, Note_on_c, 2, 41, 110
4, 56158, Note_on_c, 2, 41, 0
4, 56160, Note_on_c, 2, 41, 110
4, 56254, Note_on_c, 2, 41, 0
4, 56256, Note_on_c, 2, 41, 110
4, 56350, Note_on_c, 2, 41, 0
4, 56352, Note_on_c, 2, 41, 110
4, 56446, Note_on_c, 2, 41, 0
4, 56448, Note_on_c, 2, 41, 110
4, 56542, Note_on_c, 2, 41, 0
4, 56544, Note_on_c, 2, 44, 110
4, 56638, Note_on_c, 2, 44, 0
4, 56640, Note_on_c, 2, 44, 110
4, 56734, Note_on_c, 2, 44, 0
4, 56736, Note_on_c, 2, 48, 110
4, 56830, Note_on_c, 2, 48, 0
4, 56832, Note_on_c, 2, 48, 110
4, 56926, Note_on_c, 2, 48, 0
4, 56928, Note_on_c, 2, 48, 110
4, 57022, Note_on_c, 2, 48, 0
4, 57024, Note_on_c, 2, 48, 110
4, 57118, Note_on_c, 2, 48, 0
4, 57120, Note_on_c, 2, 48, 110
4, 57214, Note_on_c, 2, 48, 0
4, 57216, Note_on_c, 2, 48, 110
4, 57310, Note_on_c, 2, 48, 0
4, 57312, Note_on_c, 2, 48, 110
4, 57406, Note_on_c, 2, 48, 0
4, 57408, Note_on_c, 2, 48, 110
4, 57502, Note_on_c, 2, 48, 0
4, 57504, Note_on_c, 2, 47, 110
4, 57694, Note_on_c, 2, 48, 0
4, 57696, Note_on_c, 2, 47, 110
4, 57790, Note_on_c, 2, 47, 0
4, 57792, Note_on_c, 2, 47, 110
4, 57886, Note_on_c, 2, 47, 0
4, 57888, Note_on_c, 2, 46, 110
4, 58240, Note_on_c, 2, 46, 0
4, 58272, Note_on_c, 2, 46, 110
4, 58366, Note_on_c, 2, 46, 0
4, 58368, Note_on_c, 2, 51, 110
4, 58462, Note_on_c, 2, 51, 0
4, 58464, Note_on_c, 2, 51, 110
4, 58558, Note_on_c, 2, 51, 0
4, 58560, Note_on_c, 2, 46, 110
4, 58654, Note_on_c, 2, 46, 0
4, 58656, Note_on_c, 2, 43, 110
4, 58912, Note_on_c, 2, 43, 0
4, 58944, Note_on_c, 2, 43, 110
4, 59038, Note_on_c, 2, 43, 0
4, 59040, Note_on_c, 2, 44, 110
4, 59296, Note_on_c, 2, 44, 0
4, 59328, Note_on_c, 2, 44, 110
4, 59422, Note_on_c, 2, 44, 0
4, 59424, Note_on_c, 2, 46, 110
4, 59614, Note_on_c, 2, 46, 0
4, 59616, Note_on_c, 2, 44, 110
4, 59710, Note_on_c, 2, 44, 0
4, 59712, Note_on_c, 2, 46, 110
4, 59806, Note_on_c, 2, 46, 0
4, 60000, Note_on_c, 2, 49, 110
4, 60094, Note_on_c, 2, 49, 0
4, 60096, Note_on_c, 2, 49, 110
4, 60238, Note_on_c, 2, 49, 0
4, 60240, Note_on_c, 2, 49, 110
4, 60382, Note_on_c, 2, 49, 0
4, 60384, Note_on_c, 2, 49, 110
4, 60478, Note_on_c, 2, 49, 0
4, 60480, Note_on_c, 2, 49, 110
4, 60766, Note_on_c, 2, 49, 0
4, 60768, Note_on_c, 2, 49, 110
4, 61150, Note_on_c, 2, 49, 0
4, 61152, Note_on_c, 2, 49, 110
4, 61534, Note_on_c, 2, 49, 0
4, 61536, Note_on_c, 2, 49, 110
4, 62160, Note_on_c, 2, 49, 0
4, 62208, Note_on_c, 2, 49, 110
4, 62302, Note_on_c, 2, 49, 0
4, 62304, Note_on_c, 2, 49, 110
4, 62464, Note_on_c, 2, 49, 0
4, 62496, Note_on_c, 2, 49, 110
4, 62590, Note_on_c, 2, 49, 0
4, 62592, Note_on_c, 2, 49, 110
4, 62686, Note_on_c, 2, 49, 0
4, 62688, Note_on_c, 2, 49, 110
4, 62944, Note_on_c, 2, 49, 0
4, 62976, Note_on_c, 2, 49, 110
4, 63070, Note_on_c, 2, 49, 0
4, 63072, Note_on_c, 2, 49, 110
4, 63232, Note_on_c, 2, 49, 0
4, 63264, Note_on_c, 2, 49, 110
4, 63358, Note_on_c, 2, 49, 0
4, 63360, Note_on_c, 2, 49, 110
4, 63454, Note_on_c, 2, 49, 0
4, 63456, Note_on_c, 2, 49, 110
4, 63712, Note_on_c, 2, 49, 0
4, 63744, Note_on_c, 2, 42, 110
4, 63838, Note_on_c, 2, 42, 0
4, 63840, Note_on_c, 2, 42, 110
4, 64000, Note_on_c, 2, 42, 0
4, 64032, Note_on_c, 2, 42, 110
4, 64126, Note_on_c, 2, 42, 0
4, 64128, Note_on_c, 2, 42, 110
4, 64222, Note_on_c, 2, 42, 0
4, 64224, Note_on_c, 2, 42, 110
4, 64480, Note_on_c, 2, 42, 0
4, 64512, Note_on_c, 2, 42, 110
4, 64606, Note_on_c, 2, 42, 0
4, 64608, Note_on_c, 2, 42, 110
4, 64768, Note_on_c, 2, 42, 0
4, 64800, Note_on_c, 2, 42, 110
4, 64894, Note_on_c, 2, 42, 0
4, 64896, Note_on_c, 2, 42, 110
4, 64990, Note_on_c, 2, 42, 0
4, 64992, Note_on_c, 2, 42, 110
4, 65086, Note_on_c, 2, 42, 0
4, 65088, Note_on_c, 2, 44, 110
4, 65182, Note_on_c, 2, 44, 0
4, 65184, Note_on_c, 2, 46, 110
4, 65278, Note_on_c, 2, 46, 0
4, 65280, Note_on_c, 2, 47, 110
4, 65374, Note_on_c, 2, 47, 0
4, 65376, Note_on_c, 2, 47, 110
4, 65536, Note_on_c, 2, 47, 0
4, 65568, Note_on_c, 2, 47, 110
4, 65662, Note_on_c, 2, 47, 0
4, 65664, Note_on_c, 2, 47, 110
4, 65758, Note_on_c, 2, 47, 0
4, 65760, Note_on_c, 2, 47, 110
4, 66016, Note_on_c, 2, 47, 0
4, 66048, Note_on_c, 2, 47, 110
4, 66142, Note_on_c, 2, 47, 0
4, 66144, Note_on_c, 2, 47, 110
4, 66304, Note_on_c, 2, 47, 0
4, 66336, Note_on_c, 2, 47, 110
4, 66430, Note_on_c, 2, 47, 0
4, 66432, Note_on_c, 2, 47, 110
4, 66526, Note_on_c, 2, 47, 0
4, 66528, Note_on_c, 2, 47, 110
4, 66784, Note_on_c, 2, 47, 0
4, 66816, Note_on_c, 2, 52, 110
4, 66910, Note_on_c, 2, 52, 0
4, 66912, Note_on_c, 2, 52, 110
4, 67072, Note_on_c, 2, 52, 0
4, 67104, Note_on_c, 2, 52, 110
4, 67198, Note_on_c, 2, 52, 0
4, 67200, Note_on_c, 2, 52, 110
4, 67294, Note_on_c, 2, 52, 0
4, 67296, Note_on_c, 2, 52, 110
4, 67552, Note_on_c, 2, 52, 0
4, 67584, Note_on_c, 2, 52, 110
4, 67678, Note_on_c, 2, 52, 0
4, 67680, Note_on_c, 2, 52, 110
4, 67840, Note_on_c, 2, 52, 0
4, 67872, Note_on_c, 2, 52, 110
4, 67966, Note_on_c, 2, 52, 0
4, 67968, Note_on_c, 2, 52, 110
4, 68224, Note_on_c, 2, 52, 0
4, 68256, Note_on_c, 2, 52, 110
4, 68350, Note_on_c, 2, 52, 0
4, 68352, Note_on_c, 2, 54, 110
4, 68446, Note_on_c, 2, 54, 0
4, 68448, Note_on_c, 2, 54, 110
4, 68542, Note_on_c, 2, 54, 0
4, 68544, Note_on_c, 2, 52, 110
4, 68638, Note_on_c, 2, 52, 0
4, 68640, Note_on_c, 2, 51, 110
4, 68734, Note_on_c, 2, 51, 0
4, 68736, Note_on_c, 2, 49, 110
4, 68830, Note_on_c, 2, 49, 0
4, 68832, Note_on_c, 2, 51, 110
4, 68926, Note_on_c, 2, 51, 0
4, 68928, Note_on_c, 2, 51, 110
4, 69022, Note_on_c, 2, 51, 0
4, 69024, Note_on_c, 2, 47, 110
4, 69118, Note_on_c, 2, 47, 0
4, 69120, Note_on_c, 2, 47, 110
4, 69214, Note_on_c, 2, 47, 0
4, 69216, Note_on_c, 2, 47, 110
4, 69310, Note_on_c, 2, 47, 0
4, 69312, Note_on_c, 2, 47, 110
4, 69406, Note_on_c, 2, 47, 0
4, 69408, Note_on_c, 2, 44, 110
4, 69502, Note_on_c, 2, 44, 0
4, 69504, Note_on_c, 2, 44, 110
4, 69598, Note_on_c, 2, 44, 0
4, 69600, Note_on_c, 2, 44, 110
4, 69694, Note_on_c, 2, 44, 0
4, 69696, Note_on_c, 2, 44, 110
4, 69790, Note_on_c, 2, 44, 0
4, 69792, Note_on_c, 2, 44, 110
4, 69886, Note_on_c, 2, 44, 0
4, 69886, End_track
5, 0, Start_track
5, 0, MIDI_port, 0
5, 0, Title_t, "Staff-3"
5, 0, Program_c, 3, 38
5, 0, Control_c, 3, 7, 75
5, 0, Control_c, 3, 10, 64
5, 1536, Note_on_c, 3, 34, 110
5, 1792, Note_on_c, 3, 34, 0
5, 1824, Note_on_c, 3, 34, 110
5, 2176, Note_on_c, 3, 34, 0
5, 2208, Note_on_c, 3, 34, 110
5, 2302, Note_on_c, 3, 34, 0
5, 2304, Note_on_c, 3, 34, 110
5, 2560, Note_on_c, 3, 34, 0
5, 2592, Note_on_c, 3, 37, 110
5, 2782, Note_on_c, 3, 37, 0
5, 2784, Note_on_c, 3, 37, 110
5, 3040, Note_on_c, 3, 37, 0
5, 3072, Note_on_c, 3, 34, 110
5, 3328, Note_on_c, 3, 34, 0
5, 3360, Note_on_c, 3, 34, 110
5, 3712, Note_on_c, 3, 34, 0
5, 3744, Note_on_c, 3, 34, 110
5, 3838, Note_on_c, 3, 34, 0
5, 3840, Note_on_c, 3, 34, 110
5, 4096, Note_on_c, 3, 34, 0
5, 4128, Note_on_c, 3, 37, 110
5, 4318, Note_on_c, 3, 37, 0
5, 4320, Note_on_c, 3, 37, 110
5, 4576, Note_on_c, 3, 37, 0
5, 4608, Note_on_c, 3, 34, 110
5, 4864, Note_on_c, 3, 34, 0
5, 4896, Note_on_c, 3, 34, 110
5, 5248, Note_on_c, 3, 34, 0
5, 5280, Note_on_c, 3, 34, 110
5, 5374, Note_on_c, 3, 34, 0
5, 5376, Note_on_c, 3, 34, 110
5, 5632, Note_on_c, 3, 34, 0
5, 5664, Note_on_c, 3, 37, 110
5, 5854, Note_on_c, 3, 37, 0
5, 5856, Note_on_c, 3, 37, 110
5, 6112, Note_on_c, 3, 37, 0
5, 6144, Note_on_c, 3, 34, 110
5, 6400, Note_on_c, 3, 34, 0
5, 6432, Note_on_c, 3, 34, 110
5, 6784, Note_on_c, 3, 34, 0
5, 6816, Note_on_c, 3, 34, 110
5, 6910, Note_on_c, 3, 34, 0
5, 6912, Note_on_c, 3, 34, 110
5, 7168, Note_on_c, 3, 34, 0
5, 7200, Note_on_c, 3, 37, 110
5, 7390, Note_on_c, 3, 37, 0
5, 7392, Note_on_c, 3, 37, 110
5, 7648, Note_on_c, 3, 37, 0
5, 7680, Note_on_c, 3, 32, 110
5, 7726, Note_on_c, 3, 32, 0
5, 7728, Note_on_c, 3, 34, 110
5, 7822, Note_on_c, 3, 34, 0
5, 7824, Note_on_c, 3, 34, 110
5, 7918, Note_on_c, 3, 34, 0
5, 7920, Note_on_c, 3, 34, 110
5, 7966, Note_on_c, 3, 34, 0
5, 7968, Note_on_c, 3, 29, 110
5, 8014, Note_on_c, 3, 29, 0
5, 8016, Note_on_c, 3, 34, 110
5, 8110, Note_on_c, 3, 34, 0
5, 8112, Note_on_c, 3, 29, 110
5, 8158, Note_on_c, 3, 29, 0
5, 8160, Note_on_c, 3, 34, 110
5, 8206, Note_on_c, 3, 34, 0
5, 8208, Note_on_c, 3, 29, 110
5, 8254, Note_on_c, 3, 29, 0
5, 8256, Note_on_c, 3, 32, 110
5, 8350, Note_on_c, 3, 32, 0
5, 8352, Note_on_c, 3, 34, 110
5, 8398, Note_on_c, 3, 34, 0
5, 8400, Note_on_c, 3, 34, 110
5, 8446, Note_on_c, 3, 34, 0
5, 8448, Note_on_c, 3, 32, 110
5, 8494, Note_on_c, 3, 32, 0
5, 8496, Note_on_c, 3, 34, 110
5, 8590, Note_on_c, 3, 34, 0
5, 8592, Note_on_c, 3, 34, 110
5, 8686, Note_on_c, 3, 34, 0
5, 8688, Note_on_c, 3, 34, 110
5, 8782, Note_on_c, 3, 34, 0
5, 8784, Note_on_c, 3, 34, 110
5, 8878, Note_on_c, 3, 34, 0
5, 8880, Note_on_c, 3, 29, 110
5, 8926, Note_on_c, 3, 29, 0
5, 8928, Note_on_c, 3, 34, 110
5, 9022, Note_on_c, 3, 34, 0
5, 9024, Note_on_c, 3, 37, 110
5, 9166, Note_on_c, 3, 37, 0
5, 9168, Note_on_c, 3, 34, 110
5, 9214, Note_on_c, 3, 34, 0
5, 9216, Note_on_c, 3, 32, 110
5, 9262, Note_on_c, 3, 32, 0
5, 9264, Note_on_c, 3, 34, 110
5, 9358, Note_on_c, 3, 34, 0
5, 9360, Note_on_c, 3, 34, 110
5, 9454, Note_on_c, 3, 34, 0
5, 9456, Note_on_c, 3, 34, 110
5, 9502, Note_on_c, 3, 34, 0
5, 9504, Note_on_c, 3, 29, 110
5, 9550, Note_on_c, 3, 29, 0
5, 9552, Note_on_c, 3, 34, 110
5, 9646, Note_on_c, 3, 34, 0
5, 9648, Note_on_c, 3, 29, 110
5, 9694, Note_on_c, 3, 29, 0
5, 9696, Note_on_c, 3, 34, 110
5, 9742, Note_on_c, 3, 34, 0
5, 9744, Note_on_c, 3, 29, 110
5, 9790, Note_on_c, 3, 29, 0
5, 9792, Note_on_c, 3, 32, 110
5, 9886, Note_on_c, 3, 32, 0
5, 9888, Note_on_c, 3, 34, 110
5, 9934, Note_on_c, 3, 34, 0
5, 9936, Note_on_c, 3, 34, 110
5, 9982, Note_on_c, 3, 34, 0
5, 9984, Note_on_c, 3, 32, 110
5, 10030, Note_on_c, 3, 32, 0
5, 10032, Note_on_c, 3, 34, 110
5, 10126, Note_on_c, 3, 34, 0
5, 10128, Note_on_c, 3, 34, 110
5, 10222, Note_on_c, 3, 34, 0
5, 10224, Note_on_c, 3, 34, 110
5, 10318, Note_on_c, 3, 34, 0
5, 10320, Note_on_c, 3, 34, 110
5, 10414, Note_on_c, 3, 34, 0
5, 10416, Note_on_c, 3, 32, 110
5, 10462, Note_on_c, 3, 32, 0
5, 10464, Note_on_c, 3, 34, 110
5, 10510, Note_on_c, 3, 34, 0
5, 10512, Note_on_c, 3, 34, 110
5, 10558, Note_on_c, 3, 34, 0
5, 10560, Note_on_c, 3, 39, 110
5, 10606, Note_on_c, 3, 39, 0
5, 10608, Note_on_c, 3, 37, 110
5, 10654, Note_on_c, 3, 37, 0
5, 10656, Note_on_c, 3, 34, 110
5, 10750, Note_on_c, 3, 34, 0
5, 10752, Note_on_c, 3, 32, 110
5, 10798, Note_on_c, 3, 32, 0
5, 10800, Note_on_c, 3, 34, 110
5, 10894, Note_on_c, 3, 34, 0
5, 10896, Note_on_c, 3, 34, 110
5, 10990, Note_on_c, 3, 34, 0
5, 10992, Note_on_c, 3, 34, 110
5, 11038, Note_on_c, 3, 34, 0
5, 11040, Note_on_c, 3, 29, 110
5, 11086, Note_on_c, 3, 29, 0
5, 11088, Note_on_c, 3, 34, 110
5, 11182, Note_on_c, 3, 34, 0
5, 11184, Note_on_c, 3, 29, 110
5, 11230, Note_on_c, 3, 29, 0
5, 11232, Note_on_c, 3, 34, 110
5, 11278, Note_on_c, 3, 34, 0
5, 11280, Note_on_c, 3, 29, 110
5, 11326, Note_on_c, 3, 29, 0
5, 11328, Note_on_c, 3, 32, 110
5, 11422, Note_on_c, 3, 32, 0
5, 11424, Note_on_c, 3, 34, 110
5, 11470, Note_on_c, 3, 34, 0
5, 11472, Note_on_c, 3, 34, 110
5, 11518, Note_on_c, 3, 34, 0
5, 11520, Note_on_c, 3, 32, 110
5, 11566, Note_on_c, 3, 32, 0
5, 11568, Note_on_c, 3, 34, 110
5, 11662, Note_on_c, 3, 34, 0
5, 11664, Note_on_c, 3, 34, 110
5, 11758, Note_on_c, 3, 34, 0
5, 11760, Note_on_c, 3, 34, 110
5, 11854, Note_on_c, 3, 34, 0
5, 11856, Note_on_c, 3, 34, 110
5, 11950, Note_on_c, 3, 34, 0
5, 11952, Note_on_c, 3, 29, 110
5, 11998, Note_on_c, 3, 29, 0
5, 12000, Note_on_c, 3, 34, 110
5, 12094, Note_on_c, 3, 34, 0
5, 12096, Note_on_c, 3, 37, 110
5, 12238, Note_on_c, 3, 37, 0
5, 12240, Note_on_c, 3, 34, 110
5, 12286, Note_on_c, 3, 34, 0
5, 12288, Note_on_c, 3, 32, 110
5, 12334, Note_on_c, 3, 32, 0
5, 12336, Note_on_c, 3, 34, 110
5, 12430, Note_on_c, 3, 34, 0
5, 12432, Note_on_c, 3, 34, 110
5, 12526, Note_on_c, 3, 34, 0
5, 12528, Note_on_c, 3, 34, 110
5, 12574, Note_on_c, 3, 34, 0
5, 12576, Note_on_c, 3, 29, 110
5, 12622, Note_on_c, 3, 29, 0
5, 12624, Note_on_c, 3, 34, 110
5, 12718, Note_on_c, 3, 34, 0
5, 12720, Note_on_c, 3, 29, 110
5, 12766, Note_on_c, 3, 29, 0
5, 12768, Note_on_c, 3, 34, 110
5, 12814, Note_on_c, 3, 34, 0
5, 12816, Note_on_c, 3, 29, 110
5, 12862, Note_on_c, 3, 29, 0
5, 12864, Note_on_c, 3, 32, 110
5, 12958, Note_on_c, 3, 32, 0
5, 12960, Note_on_c, 3, 34, 110
5, 13006, Note_on_c, 3, 34, 0
5, 13008, Note_on_c, 3, 34, 110
5, 13054, Note_on_c, 3, 34, 0
5, 13056, Note_on_c, 3, 32, 110
5, 13102, Note_on_c, 3, 32, 0
5, 13104, Note_on_c, 3, 34, 110
5, 13198, Note_on_c, 3, 34, 0
5, 13200, Note_on_c, 3, 34, 110
5, 13294, Note_on_c, 3, 34, 0
5, 13296, Note_on_c, 3, 34, 110
5, 13390, Note_on_c, 3, 34, 0
5, 13392, Note_on_c, 3, 34, 110
5, 13486, Note_on_c, 3, 34, 0
5, 13488, Note_on_c, 3, 32, 110
5, 13534, Note_on_c, 3, 32, 0
5, 13536, Note_on_c, 3, 34, 110
5, 13582, Note_on_c, 3, 34, 0
5, 13584, Note_on_c, 3, 34, 110
5, 13630, Note_on_c, 3, 34, 0
5, 13632, Note_on_c, 3, 39, 110
5, 13678, Note_on_c, 3, 39, 0
5, 13680, Note_on_c, 3, 37, 110
5, 13726, Note_on_c, 3, 37, 0
5, 13728, Note_on_c, 3, 34, 110
5, 13822, Note_on_c, 3, 34, 0
5, 13824, Note_on_c, 3, 32, 110
5, 13870, Note_on_c, 3, 32, 0
5, 13872, Note_on_c, 3, 34, 110
5, 13966, Note_on_c, 3, 34, 0
5, 13968, Note_on_c, 3, 34, 110
5, 14062, Note_on_c, 3, 34, 0
5, 14064, Note_on_c, 3, 34, 110
5, 14110, Note_on_c, 3, 34, 0
5, 14112, Note_on_c, 3, 29, 110
5, 14158, Note_on_c, 3, 29, 0
5, 14160, Note_on_c, 3, 34, 110
5, 14254, Note_on_c, 3, 34, 0
5, 14256, Note_on_c, 3, 29, 110
5, 14302, Note_on_c, 3, 29, 0
5, 14304, Note_on_c, 3, 34, 110
5, 14350, Note_on_c, 3, 34, 0
5, 14352, Note_on_c, 3, 29, 110
5, 14398, Note_on_c, 3, 29, 0
5, 14400, Note_on_c, 3, 32, 110
5, 14494, Note_on_c, 3, 32, 0
5, 14496, Note_on_c, 3, 34, 110
5, 14542, Note_on_c, 3, 34, 0
5, 14544, Note_on_c, 3, 34, 110
5, 14590, Note_on_c, 3, 34, 0
5, 14592, Note_on_c, 3, 32, 110
5, 14638, Note_on_c, 3, 32, 0
5, 14640, Note_on_c, 3, 34, 110
5, 14734, Note_on_c, 3, 34, 0
5, 14736, Note_on_c, 3, 34, 110
5, 14830, Note_on_c, 3, 34, 0
5, 14832, Note_on_c, 3, 34, 110
5, 14926, Note_on_c, 3, 34, 0
5, 14928, Note_on_c, 3, 34, 110
5, 15022, Note_on_c, 3, 34, 0
5, 15024, Note_on_c, 3, 29, 110
5, 15070, Note_on_c, 3, 29, 0
5, 15072, Note_on_c, 3, 34, 110
5, 15166, Note_on_c, 3, 34, 0
5, 15168, Note_on_c, 3, 37, 110
5, 15310, Note_on_c, 3, 37, 0
5, 15312, Note_on_c, 3, 34, 110
5, 15358, Note_on_c, 3, 34, 0
5, 15360, Note_on_c, 3, 32, 110
5, 15406, Note_on_c, 3, 32, 0
5, 15408, Note_on_c, 3, 34, 110
5, 15502, Note_on_c, 3, 34, 0
5, 15504, Note_on_c, 3, 34, 110
5, 15598, Note_on_c, 3, 34, 0
5, 15600, Note_on_c, 3, 34, 110
5, 15646, Note_on_c, 3, 34, 0
5, 15648, Note_on_c, 3, 29, 110
5, 15694, Note_on_c, 3, 29, 0
5, 15696, Note_on_c, 3, 34, 110
5, 15790, Note_on_c, 3, 34, 0
5, 15792, Note_on_c, 3, 29, 110
5, 15838, Note_on_c, 3, 29, 0
5, 15840, Note_on_c, 3, 34, 110
5, 15886, Note_on_c, 3, 34, 0
5, 15888, Note_on_c, 3, 29, 110
5, 15934, Note_on_c, 3, 29, 0
5, 15936, Note_on_c, 3, 32, 110
5, 16030, Note_on_c, 3, 32, 0
5, 16032, Note_on_c, 3, 34, 110
5, 16078, Note_on_c, 3, 34, 0
5, 16080, Note_on_c, 3, 34, 110
5, 16126, Note_on_c, 3, 34, 0
5, 16128, Note_on_c, 3, 32, 110
5, 16174, Note_on_c, 3, 32, 0
5, 16176, Note_on_c, 3, 34, 110
5, 16270, Note_on_c, 3, 34, 0
5, 16272, Note_on_c, 3, 34, 110
5, 16366, Note_on_c, 3, 34, 0
5, 16368, Note_on_c, 3, 34, 110
5, 16462, Note_on_c, 3, 34, 0
5, 16464, Note_on_c, 3, 34, 110
5, 16558, Note_on_c, 3, 34, 0
5, 16560, Note_on_c, 3, 32, 110
5, 16606, Note_on_c, 3, 32, 0
5, 16608, Note_on_c, 3, 34, 110
5, 16654, Note_on_c, 3, 34, 0
5, 16656, Note_on_c, 3, 34, 110
5, 16702, Note_on_c, 3, 34, 0
5, 16704, Note_on_c, 3, 39, 110
5, 16750, Note_on_c, 3, 39, 0
5, 16752, Note_on_c, 3, 37, 110
5, 16798, Note_on_c, 3, 37, 0
5, 16800, Note_on_c, 3, 34, 110
5, 16894, Note_on_c, 3, 34, 0
5, 16896, Note_on_c, 3, 32, 110
5, 16942, Note_on_c, 3, 32, 0
5, 16944, Note_on_c, 3, 34, 110
5, 17038, Note_on_c, 3, 34, 0
5, 17040, Note_on_c, 3, 34, 110
5, 17134, Note_on_c, 3, 34, 0
5, 17136, Note_on_c, 3, 34, 110
5, 17182, Note_on_c, 3, 34, 0
5, 17184, Note_on_c, 3, 29, 110
5, 17230, Note_on_c, 3, 29, 0
5, 17232, Note_on_c, 3, 34, 110
5, 17326, Note_on_c, 3, 34, 0
5, 17328, Note_on_c, 3, 29, 110
5, 17374, Note_on_c, 3, 29, 0
5, 17376, Note_on_c, 3, 34, 110
5, 17422, Note_on_c, 3, 34, 0
5, 17424, Note_on_c, 3, 29, 110
5, 17470, Note_on_c, 3, 29, 0
5, 17472, Note_on_c, 3, 32, 110
5, 17566, Note_on_c, 3, 32, 0
5, 17568, Note_on_c, 3, 34, 110
5, 17614, Note_on_c, 3, 34, 0
5, 17616, Note_on_c, 3, 34, 110
5, 17662, Note_on_c, 3, 34, 0
5, 17664, Note_on_c, 3, 32, 110
5, 17710, Note_on_c, 3, 32, 0
5, 17712, Note_on_c, 3, 34, 110
5, 17806, Note_on_c, 3, 34, 0
5, 17808, Note_on_c, 3, 34, 110
5, 17902, Note_on_c, 3, 34, 0
5, 17904, Note_on_c, 3, 34, 110
5, 17998, Note_on_c, 3, 34, 0
5, 18000, Note_on_c, 3, 34, 110
5, 18094, Note_on_c, 3, 34, 0
5, 18096, Note_on_c, 3, 29, 110
5, 18142, Note_on_c, 3, 29, 0
5, 18144, Note_on_c, 3, 34, 110
5, 18238, Note_on_c, 3, 34, 0
5, 18240, Note_on_c, 3, 37, 110
5, 18382, Note_on_c, 3, 37, 0
5, 18384, Note_on_c, 3, 34, 110
5, 18430, Note_on_c, 3, 34, 0
5, 18432, Note_on_c, 3, 32, 110
5, 18478, Note_on_c, 3, 32, 0
5, 18480, Note_on_c, 3, 34, 110
5, 18574, Note_on_c, 3, 34, 0
5, 18576, Note_on_c, 3, 34, 110
5, 18670, Note_on_c, 3, 34, 0
5, 18672, Note_on_c, 3, 34, 110
5, 18718, Note_on_c, 3, 34, 0
5, 18720, Note_on_c, 3, 29, 110
5, 18766, Note_on_c, 3, 29, 0
5, 18768, Note_on_c, 3, 34, 110
5, 18862, Note_on_c, 3, 34, 0
5, 18864, Note_on_c, 3, 29, 110
5, 18910, Note_on_c, 3, 29, 0
5, 18912, Note_on_c, 3, 34, 110
5, 18958, Note_on_c, 3, 34, 0
5, 18960, Note_on_c, 3, 29, 110
5, 19006, Note_on_c, 3, 29, 0
5, 19008, Note_on_c, 3, 32, 110
5, 19102, Note_on_c, 3, 32, 0
5, 19104, Note_on_c, 3, 34, 110
5, 19150, Note_on_c, 3, 34, 0
5, 19152, Note_on_c, 3, 34, 110
5, 19198, Note_on_c, 3, 34, 0
5, 19200, Note_on_c, 3, 32, 110
5, 19246, Note_on_c, 3, 32, 0
5, 19248, Note_on_c, 3, 34, 110
5, 19342, Note_on_c, 3, 34, 0
5, 19344, Note_on_c, 3, 34, 110
5, 19438, Note_on_c, 3, 34, 0
5, 19440, Note_on_c, 3, 34, 110
5, 19534, Note_on_c, 3, 34, 0
5, 19536, Note_on_c, 3, 34, 110
5, 19630, Note_on_c, 3, 34, 0
5, 19632, Note_on_c, 3, 32, 110
5, 19678, Note_on_c, 3, 32, 0
5, 19680, Note_on_c, 3, 34, 110
5, 19726, Note_on_c, 3, 34, 0
5, 19728, Note_on_c, 3, 34, 110
5, 19774, Note_on_c, 3, 34, 0
5, 19776, Note_on_c, 3, 39, 110
5, 19822, Note_on_c, 3, 39, 0
5, 19824, Note_on_c, 3, 37, 110
5, 19870, Note_on_c, 3, 37, 0
5, 19872, Note_on_c, 3, 34, 110
5, 19966, Note_on_c, 3, 34, 0
5, 19968, Note_on_c, 3, 32, 110
5, 20014, Note_on_c, 3, 32, 0
5, 20016, Note_on_c, 3, 34, 110
5, 20110, Note_on_c, 3, 34, 0
5, 20112, Note_on_c, 3, 34, 110
5, 20206, Note_on_c, 3, 34, 0
5, 20208, Note_on_c, 3, 34, 110
5, 20254, Note_on_c, 3, 34, 0
5, 20256, Note_on_c, 3, 29, 110
5, 20302, Note_on_c, 3, 29, 0
5, 20304, Note_on_c, 3, 34, 110
5, 20398, Note_on_c, 3, 34, 0
5, 20400, Note_on_c, 3, 29, 110
5, 20446, Note_on_c, 3, 29, 0
5, 20448, Note_on_c, 3, 34, 110
5, 20494, Note_on_c, 3, 34, 0
5, 20496, Note_on_c, 3, 29, 110
5, 20542, Note_on_c, 3, 29, 0
5, 20544, Note_on_c, 3, 32, 110
5, 20638, Note_on_c, 3, 32, 0
5, 20640, Note_on_c, 3, 34, 110
5, 20686, Note_on_c, 3, 34, 0
5, 20688, Note_on_c, 3, 34, 110
5, 20734, Note_on_c, 3, 34, 0
5, 20736, Note_on_c, 3, 32, 110
5, 20782, Note_on_c, 3, 32, 0
5, 20784, Note_on_c, 3, 34, 110
5, 20878, Note_on_c, 3, 34, 0
5, 20880, Note_on_c, 3, 34, 110
5, 20974, Note_on_c, 3, 34, 0
5, 20976, Note_on_c, 3, 34, 110
5, 21070, Note_on_c, 3, 34, 0
5, 21072, Note_on_c, 3, 34, 110
5, 21166, Note_on_c, 3, 34, 0
5, 21168, Note_on_c, 3, 29, 110
5, 21214, Note_on_c, 3, 29, 0
5, 21216, Note_on_c, 3, 34, 110
5, 21310, Note_on_c, 3, 34, 0
5, 21312, Note_on_c, 3, 37, 110
5, 21454, Note_on_c, 3, 37, 0
5, 21456, Note_on_c, 3, 34, 110
5, 21502, Note_on_c, 3, 34, 0
5, 21504, Note_on_c, 3, 25, 110
5, 21760, Note_on_c, 3, 25, 0
5, 21792, Note_on_c, 3, 25, 110
5, 21982, Note_on_c, 3, 25, 0
5, 21984, Note_on_c, 3, 25, 110
5, 22240, Note_on_c, 3, 25, 0
5, 22272, Note_on_c, 3, 29, 110
5, 22432, Note_on_c, 3, 29, 0
5, 22464, Note_on_c, 3, 29, 110
5, 22558, Note_on_c, 3, 29, 0
5, 22560, Note_on_c, 3, 29, 110
5, 22750, Note_on_c, 3, 29, 0
5, 22752, Note_on_c, 3, 29, 110
5, 22846, Note_on_c, 3, 29, 0
5, 22848, Note_on_c, 3, 29, 110
5, 22942, Note_on_c, 3, 29, 0
5, 22944, Note_on_c, 3, 29, 110
5, 23038, Note_on_c, 3, 29, 0
5, 23040, Note_on_c, 3, 32, 110
5, 23086, Note_on_c, 3, 32, 0
5, 23088, Note_on_c, 3, 34, 110
5, 23182, Note_on_c, 3, 34, 0
5, 23184, Note_on_c, 3, 34, 110
5, 23278, Note_on_c, 3, 34, 0
5, 23280, Note_on_c, 3, 34, 110
5, 23374, Note_on_c, 3, 34, 0
5, 23376, Note_on_c, 3, 34, 110
5, 23470, Note_on_c, 3, 34, 0
5, 23472, Note_on_c, 3, 32, 110
5, 23518, Note_on_c, 3, 32, 0
5, 23520, Note_on_c, 3, 34, 110
5, 23566, Note_on_c, 3, 34, 0
5, 23568, Note_on_c, 3, 34, 110
5, 23614, Note_on_c, 3, 34, 0
5, 23616, Note_on_c, 3, 39, 110
5, 23662, Note_on_c, 3, 39, 0
5, 23664, Note_on_c, 3, 37, 110
5, 23710, Note_on_c, 3, 37, 0
5, 23712, Note_on_c, 3, 34, 110
5, 23806, Note_on_c, 3, 34, 0
5, 23808, Note_on_c, 3, 32, 110
5, 23854, Note_on_c, 3, 32, 0
5, 23856, Note_on_c, 3, 34, 110
5, 23950, Note_on_c, 3, 34, 0
5, 23952, Note_on_c, 3, 34, 110
5, 24094, Note_on_c, 3, 34, 0
5, 24096, Note_on_c, 3, 34, 110
5, 24142, Note_on_c, 3, 34, 0
5, 24144, Note_on_c, 3, 34, 110
5, 24238, Note_on_c, 3, 34, 0
5, 24240, Note_on_c, 3, 34, 110
5, 24286, Note_on_c, 3, 34, 0
5, 24288, Note_on_c, 3, 34, 110
5, 24382, Note_on_c, 3, 34, 0
5, 24384, Note_on_c, 3, 32, 110
5, 24478, Note_on_c, 3, 32, 0
5, 24480, Note_on_c, 3, 34, 110
5, 24574, Note_on_c, 3, 34, 0
5, 24576, Note_on_c, 3, 27, 110
5, 24670, Note_on_c, 3, 27, 0
5, 24672, Note_on_c, 3, 27, 110
5, 24718, Note_on_c, 3, 27, 0
5, 24720, Note_on_c, 3, 27, 110
5, 24862, Note_on_c, 3, 27, 0
5, 24864, Note_on_c, 3, 27, 110
5, 24910, Note_on_c, 3, 27, 0
5, 24912, Note_on_c, 3, 27, 110
5, 25006, Note_on_c, 3, 27, 0
5, 25008, Note_on_c, 3, 25, 110
5, 25054, Note_on_c, 3, 25, 0
5, 25056, Note_on_c, 3, 27, 110
5, 25150, Note_on_c, 3, 27, 0
5, 25152, Note_on_c, 3, 25, 110
5, 25246, Note_on_c, 3, 25, 0
5, 25248, Note_on_c, 3, 27, 110
5, 25342, Note_on_c, 3, 27, 0
5, 25344, Note_on_c, 3, 25, 110
5, 25390, Note_on_c, 3, 25, 0
5, 25392, Note_on_c, 3, 27, 110
5, 25486, Note_on_c, 3, 27, 0
5, 25488, Note_on_c, 3, 27, 110
5, 25582, Note_on_c, 3, 27, 0
5, 25584, Note_on_c, 3, 27, 110
5, 25678, Note_on_c, 3, 27, 0
5, 25680, Note_on_c, 3, 27, 110
5, 25774, Note_on_c, 3, 27, 0
5, 25776, Note_on_c, 3, 25, 110
5, 25822, Note_on_c, 3, 25, 0
5, 25824, Note_on_c, 3, 27, 110
5, 25918, Note_on_c, 3, 27, 0
5, 25920, Note_on_c, 3, 25, 110
5, 26014, Note_on_c, 3, 25, 0
5, 26016, Note_on_c, 3, 27, 110
5, 26110, Note_on_c, 3, 27, 0
5, 26112, Note_on_c, 3, 25, 110
5, 26368, Note_on_c, 3, 25, 0
5, 26400, Note_on_c, 3, 25, 110
5, 26590, Note_on_c, 3, 25, 0
5, 26592, Note_on_c, 3, 25, 110
5, 26848, Note_on_c, 3, 25, 0
5, 26880, Note_on_c, 3, 25, 110
5, 27136, Note_on_c, 3, 25, 0
5, 27168, Note_on_c, 3, 25, 110
5, 27358, Note_on_c, 3, 25, 0
5, 27360, Note_on_c, 3, 27, 110
5, 27616, Note_on_c, 3, 27, 0
5, 27648, Note_on_c, 3, 29, 110
5, 28126, Note_on_c, 3, 29, 0
5, 28128, Note_on_c, 3, 29, 110
5, 28288, Note_on_c, 3, 29, 0
5, 28320, Note_on_c, 3, 29, 110
5, 28414, Note_on_c, 3, 29, 0
5, 28416, Note_on_c, 3, 29, 110
5, 28672, Note_on_c, 3, 29, 0
5, 28704, Note_on_c, 3, 29, 110
5, 28894, Note_on_c, 3, 29, 0
5, 28896, Note_on_c, 3, 24, 110
5, 28942, Note_on_c, 3, 24, 0
5, 28944, Note_on_c, 3, 25, 110
5, 28990, Note_on_c, 3, 25, 0
5, 28992, Note_on_c, 3, 29, 110
5, 29086, Note_on_c, 3, 29, 0
5, 29088, Note_on_c, 3, 29, 110
5, 29182, Note_on_c, 3, 29, 0
5, 29184, Note_on_c, 3, 39, 110
5, 29278, Note_on_c, 3, 39, 0
5, 29280, Note_on_c, 3, 39, 110
5, 29374, Note_on_c, 3, 39, 0
5, 29376, Note_on_c, 3, 37, 110
5, 29470, Note_on_c, 3, 37, 0
5, 29472, Note_on_c, 3, 36, 110
5, 29566, Note_on_c, 3, 36, 0
5, 29568, Note_on_c, 3, 34, 110
5, 29662, Note_on_c, 3, 34, 0
5, 29664, Note_on_c, 3, 36, 110
5, 29758, Note_on_c, 3, 36, 0
5, 29760, Note_on_c, 3, 36, 110
5, 29854, Note_on_c, 3, 36, 0
5, 29856, Note_on_c, 3, 32, 110
5, 29950, Note_on_c, 3, 32, 0
5, 29952, Note_on_c, 3, 32, 110
5, 30046, Note_on_c, 3, 32, 0
5, 30048, Note_on_c, 3, 32, 110
5, 30142, Note_on_c, 3, 32, 0
5, 30144, Note_on_c, 3, 32, 110
5, 30238, Note_on_c, 3, 32, 0
5, 30240, Note_on_c, 3, 29, 110
5, 30334, Note_on_c, 3, 29, 0
5, 30336, Note_on_c, 3, 29, 110
5, 30430, Note_on_c, 3, 29, 0
5, 30432, Note_on_c, 3, 29, 110
5, 30526, Note_on_c, 3, 29, 0
5, 30528, Note_on_c, 3, 29, 110
5, 30622, Note_on_c, 3, 29, 0
5, 30624, Note_on_c, 3, 29, 110
5, 30718, Note_on_c, 3, 29, 0
5, 30720, Note_on_c, 3, 37, 110
5, 30814, Note_on_c, 3, 37, 0
5, 30816, Note_on_c, 3, 37, 110
5, 30910, Note_on_c, 3, 37, 0
5, 30912, Note_on_c, 3, 35, 110
5, 31006, Note_on_c, 3, 35, 0
5, 31008, Note_on_c, 3, 34, 110
5, 31102, Note_on_c, 3, 34, 0
5, 31104, Note_on_c, 3, 32, 110
5, 31198, Note_on_c, 3, 32, 0
5, 31200, Note_on_c, 3, 30, 110
5, 31294, Note_on_c, 3, 30, 0
5, 31296, Note_on_c, 3, 29, 110
5, 31390, Note_on_c, 3, 29, 0
5, 31392, Note_on_c, 3, 35, 110
5, 31744, Note_on_c, 3, 36, 0
5, 31776, Note_on_c, 3, 34, 110
5, 32128, Note_on_c, 3, 34, 0
5, 32160, Note_on_c, 3, 34, 110
5, 32512, Note_on_c, 3, 34, 0
5, 32544, Note_on_c, 3, 34, 110
5, 32896, Note_on_c, 3, 34, 0
5, 32928, Note_on_c, 3, 34, 110
5, 33022, Note_on_c, 3, 34, 0
5, 33024, Note_on_c, 3, 39, 110
5, 33118, Note_on_c, 3, 39, 0
5, 33120, Note_on_c, 3, 39, 110
5, 33214, Note_on_c, 3, 39, 0
5, 33216, Note_on_c, 3, 37, 110
5, 33310, Note_on_c, 3, 37, 0
5, 33312, Note_on_c, 3, 36, 110
5, 33406, Note_on_c, 3, 36, 0
5, 33408, Note_on_c, 3, 34, 110
5, 33502, Note_on_c, 3, 34, 0
5, 33504, Note_on_c, 3, 36, 110
5, 33598, Note_on_c, 3, 36, 0
5, 33600, Note_on_c, 3, 36, 110
5, 33694, Note_on_c, 3, 36, 0
5, 33696, Note_on_c, 3, 32, 110
5, 33790, Note_on_c, 3, 32, 0
5, 33792, Note_on_c, 3, 32, 110
5, 33886, Note_on_c, 3, 32, 0
5, 33888, Note_on_c, 3, 32, 110
5, 33982, Note_on_c, 3, 32, 0
5, 33984, Note_on_c, 3, 32, 110
5, 34078, Note_on_c, 3, 32, 0
5, 34080, Note_on_c, 3, 29, 110
5, 34174, Note_on_c, 3, 29, 0
5, 34176, Note_on_c, 3, 29, 110
5, 34270, Note_on_c, 3, 29, 0
5, 34272, Note_on_c, 3, 29, 110
5, 34366, Note_on_c, 3, 29, 0
5, 34368, Note_on_c, 3, 29, 110
5, 34462, Note_on_c, 3, 29, 0
5, 34464, Note_on_c, 3, 29, 110
5, 34558, Note_on_c, 3, 29, 0
5, 34560, Note_on_c, 3, 37, 110
5, 34654, Note_on_c, 3, 37, 0
5, 34656, Note_on_c, 3, 37, 110
5, 34750, Note_on_c, 3, 37, 0
5, 34752, Note_on_c, 3, 37, 110
5, 34846, Note_on_c, 3, 37, 0
5, 34848, Note_on_c, 3, 35, 110
5, 35038, Note_on_c, 3, 35, 0
5, 35040, Note_on_c, 3, 35, 110
5, 35134, Note_on_c, 3, 35, 0
5, 35136, Note_on_c, 3, 35, 110
5, 35230, Note_on_c, 3, 35, 0
5, 35232, Note_on_c, 3, 35, 110
5, 35326, Note_on_c, 3, 35, 0
5, 35328, Note_on_c, 3, 34, 110
5, 36816, Note_on_c, 3, 34, 0
5, 36864, Note_on_c, 3, 32, 110
5, 36910, Note_on_c, 3, 32, 0
5, 36912, Note_on_c, 3, 34, 110
5, 37006, Note_on_c, 3, 34, 0
5, 37008, Note_on_c, 3, 34, 110
5, 37102, Note_on_c, 3, 34, 0
5, 37104, Note_on_c, 3, 34, 110
5, 37150, Note_on_c, 3, 34, 0
5, 37152, Note_on_c, 3, 29, 110
5, 37198, Note_on_c, 3, 29, 0
5, 37200, Note_on_c, 3, 34, 110
5, 37294, Note_on_c, 3, 34, 0
5, 37296, Note_on_c, 3, 29, 110
5, 37342, Note_on_c, 3, 29, 0
5, 37344, Note_on_c, 3, 34, 110
5, 37390, Note_on_c, 3, 34, 0
5, 37392, Note_on_c, 3, 29, 110
5, 37438, Note_on_c, 3, 29, 0
5, 37440, Note_on_c, 3, 32, 110
5, 37534, Note_on_c, 3, 32, 0
5, 37536, Note_on_c, 3, 34, 110
5, 37582, Note_on_c, 3, 34, 0
5, 37584, Note_on_c, 3, 34, 110
5, 37630, Note_on_c, 3, 34, 0
5, 37632, Note_on_c, 3, 32, 110
5, 37678, Note_on_c, 3, 32, 0
5, 37680, Note_on_c, 3, 34, 110
5, 37774, Note_on_c, 3, 34, 0
5, 37776, Note_on_c, 3, 34, 110
5, 37870, Note_on_c, 3, 34, 0
5, 37872, Note_on_c, 3, 34, 110
5, 37966, Note_on_c, 3, 34, 0
5, 37968, Note_on_c, 3, 34, 110
5, 38062, Note_on_c, 3, 34, 0
5, 38064, Note_on_c, 3, 29, 110
5, 38110, Note_on_c, 3, 29, 0
5, 38112, Note_on_c, 3, 34, 110
5, 38206, Note_on_c, 3, 34, 0
5, 38208, Note_on_c, 3, 37, 110
5, 38350, Note_on_c, 3, 37, 0
5, 38352, Note_on_c, 3, 34, 110
5, 38398, Note_on_c, 3, 34, 0
5, 38400, Note_on_c, 3, 32, 110
5, 38446, Note_on_c, 3, 32, 0
5, 38448, Note_on_c, 3, 34, 110
5, 38542, Note_on_c, 3, 34, 0
5, 38544, Note_on_c, 3, 34, 110
5, 38638, Note_on_c, 3, 34, 0
5, 38640, Note_on_c, 3, 34, 110
5, 38686, Note_on_c, 3, 34, 0
5, 38688, Note_on_c, 3, 29, 110
5, 38734, Note_on_c, 3, 29, 0
5, 38736, Note_on_c, 3, 34, 110
5, 38830, Note_on_c, 3, 34, 0
5, 38832, Note_on_c, 3, 29, 110
5, 38878, Note_on_c, 3, 29, 0
5, 38880, Note_on_c, 3, 34, 110
5, 38926, Note_on_c, 3, 34, 0
5, 38928, Note_on_c, 3, 29, 110
5, 38974, Note_on_c, 3, 29, 0
5, 38976, Note_on_c, 3, 32, 110
5, 39070, Note_on_c, 3, 32, 0
5, 39072, Note_on_c, 3, 34, 110
5, 39118, Note_on_c, 3, 34, 0
5, 39120, Note_on_c, 3, 34, 110
5, 39166, Note_on_c, 3, 34, 0
5, 39168, Note_on_c, 3, 32, 110
5, 39214, Note_on_c, 3, 32, 0
5, 39216, Note_on_c, 3, 34, 110
5, 39310, Note_on_c, 3, 34, 0
5, 39312, Note_on_c, 3, 34, 110
5, 39406, Note_on_c, 3, 34, 0
5, 39408, Note_on_c, 3, 34, 110
5, 39502, Note_on_c, 3, 34, 0
5, 39504, Note_on_c, 3, 34, 110
5, 39598, Note_on_c, 3, 34, 0
5, 39600, Note_on_c, 3, 32, 110
5, 39646, Note_on_c, 3, 32, 0
5, 39648, Note_on_c, 3, 34, 110
5, 39694, Note_on_c, 3, 34, 0
5, 39696, Note_on_c, 3, 34, 110
5, 39742, Note_on_c, 3, 34, 0
5, 39744, Note_on_c, 3, 39, 110
5, 39790, Note_on_c, 3, 39, 0
5, 39792, Note_on_c, 3, 37, 110
5, 39838, Note_on_c, 3, 37, 0
5, 39840, Note_on_c, 3, 34, 110
5, 39934, Note_on_c, 3, 34, 0
5, 39936, Note_on_c, 3, 32, 110
5, 39982, Note_on_c, 3, 32, 0
5, 39984, Note_on_c, 3, 34, 110
5, 40078, Note_on_c, 3, 34, 0
5, 40080, Note_on_c, 3, 34, 110
5, 40174, Note_on_c, 3, 34, 0
5, 40176, Note_on_c, 3, 34, 110
5, 40222, Note_on_c, 3, 34, 0
5, 40224, Note_on_c, 3, 29, 110
5, 40270, Note_on_c, 3, 29, 0
5, 40272, Note_on_c, 3, 34, 110
5, 40366, Note_on_c, 3, 34, 0
5, 40368, Note_on_c, 3, 29, 110
5, 40414, Note_on_c, 3, 29, 0
5, 40416, Note_on_c, 3, 34, 110
5, 40462, Note_on_c, 3, 34, 0
5, 40464, Note_on_c, 3, 29, 110
5, 40510, Note_on_c, 3, 29, 0
5, 40512, Note_on_c, 3, 32, 110
5, 40606, Note_on_c, 3, 32, 0
5, 40608, Note_on_c, 3, 34, 110
5, 40654, Note_on_c, 3, 34, 0
5, 40656, Note_on_c, 3, 34, 110
5, 40702, Note_on_c, 3, 34, 0
5, 40704, Note_on_c, 3, 32, 110
5, 40750, Note_on_c, 3, 32, 0
5, 40752, Note_on_c, 3, 34, 110
5, 40846, Note_on_c, 3, 34, 0
5, 40848, Note_on_c, 3, 34, 110
5, 40942, Note_on_c, 3, 34, 0
5, 40944, Note_on_c, 3, 34, 110
5, 41038, Note_on_c, 3, 34, 0
5, 41040, Note_on_c, 3, 34, 110
5, 41134, Note_on_c, 3, 34, 0
5, 41136, Note_on_c, 3, 29, 110
5, 41182, Note_on_c, 3, 29, 0
5, 41184, Note_on_c, 3, 34, 110
5, 41278, Note_on_c, 3, 34, 0
5, 41280, Note_on_c, 3, 37, 110
5, 41422, Note_on_c, 3, 37, 0
5, 41424, Note_on_c, 3, 34, 110
5, 41470, Note_on_c, 3, 34, 0
5, 41472, Note_on_c, 3, 25, 110
5, 41728, Note_on_c, 3, 25, 0
5, 41760, Note_on_c, 3, 25, 110
5, 41950, Note_on_c, 3, 25, 0
5, 41952, Note_on_c, 3, 25, 110
5, 42208, Note_on_c, 3, 25, 0
5, 42240, Note_on_c, 3, 29, 110
5, 42400, Note_on_c, 3, 29, 0
5, 42432, Note_on_c, 3, 29, 110
5, 42526, Note_on_c, 3, 29, 0
5, 42528, Note_on_c, 3, 29, 110
5, 42718, Note_on_c, 3, 29, 0
5, 42720, Note_on_c, 3, 29, 110
5, 42814, Note_on_c, 3, 29, 0
5, 42816, Note_on_c, 3, 29, 110
5, 42910, Note_on_c, 3, 29, 0
5, 42912, Note_on_c, 3, 29, 110
5, 43006, Note_on_c, 3, 29, 0
5, 43008, Note_on_c, 3, 32, 110
5, 43054, Note_on_c, 3, 32, 0
5, 43056, Note_on_c, 3, 34, 110
5, 43150, Note_on_c, 3, 34, 0
5, 43152, Note_on_c, 3, 34, 110
5, 43246, Note_on_c, 3, 34, 0
5, 43248, Note_on_c, 3, 34, 110
5, 43342, Note_on_c, 3, 34, 0
5, 43344, Note_on_c, 3, 34, 110
5, 43438, Note_on_c, 3, 34, 0
5, 43440, Note_on_c, 3, 32, 110
5, 43486, Note_on_c, 3, 32, 0
5, 43488, Note_on_c, 3, 34, 110
5, 43534, Note_on_c, 3, 34, 0
5, 43536, Note_on_c, 3, 34, 110
5, 43582, Note_on_c, 3, 34, 0
5, 43584, Note_on_c, 3, 39, 110
5, 43630, Note_on_c, 3, 39, 0
5, 43632, Note_on_c, 3, 37, 110
5, 43678, Note_on_c, 3, 37, 0
5, 43680, Note_on_c, 3, 34, 110
5, 43774, Note_on_c, 3, 34, 0
5, 43776, Note_on_c, 3, 32, 110
5, 43822, Note_on_c, 3, 32, 0
5, 43824, Note_on_c, 3, 34, 110
5, 43918, Note_on_c, 3, 34, 0
5, 43920, Note_on_c, 3, 34, 110
5, 44062, Note_on_c, 3, 34, 0
5, 44064, Note_on_c, 3, 34, 110
5, 44110, Note_on_c, 3, 34, 0
5, 44112, Note_on_c, 3, 34, 110
5, 44206, Note_on_c, 3, 34, 0
5, 44208, Note_on_c, 3, 34, 110
5, 44254, Note_on_c, 3, 34, 0
5, 44256, Note_on_c, 3, 34, 110
5, 44350, Note_on_c, 3, 34, 0
5, 44352, Note_on_c, 3, 32, 110
5, 44446, Note_on_c, 3, 32, 0
5, 44448, Note_on_c, 3, 34, 110
5, 44542, Note_on_c, 3, 34, 0
5, 44544, Note_on_c, 3, 27, 110
5, 44638, Note_on_c, 3, 27, 0
5, 44640, Note_on_c, 3, 27, 110
5, 44686, Note_on_c, 3, 27, 0
5, 44688, Note_on_c, 3, 27, 110
5, 44830, Note_on_c, 3, 27, 0
5, 44832, Note_on_c, 3, 27, 110
5, 44878, Note_on_c, 3, 27, 0
5, 44880, Note_on_c, 3, 27, 110
5, 44974, Note_on_c, 3, 27, 0
5, 44976, Note_on_c, 3, 25, 110
5, 45022, Note_on_c, 3, 25, 0
5, 45024, Note_on_c, 3, 27, 110
5, 45118, Note_on_c, 3, 27, 0
5, 45120, Note_on_c, 3, 25, 110
5, 45214, Note_on_c, 3, 25, 0
5, 45216, Note_on_c, 3, 27, 110
5, 45310, Note_on_c, 3, 27, 0
5, 45312, Note_on_c, 3, 25, 110
5, 45358, Note_on_c, 3, 25, 0
5, 45360, Note_on_c, 3, 27, 110
5, 45454, Note_on_c, 3, 27, 0
5, 45456, Note_on_c, 3, 27, 110
5, 45550, Note_on_c, 3, 27, 0
5, 45552, Note_on_c, 3, 27, 110
5, 45646, Note_on_c, 3, 27, 0
5, 45648, Note_on_c, 3, 27, 110
5, 45742, Note_on_c, 3, 27, 0
5, 45744, Note_on_c, 3, 25, 110
5, 45790, Note_on_c, 3, 25, 0
5, 45792, Note_on_c, 3, 27, 110
5, 45886, Note_on_c, 3, 27, 0
5, 45888, Note_on_c, 3, 25, 110
5, 45982, Note_on_c, 3, 25, 0
5, 45984, Note_on_c, 3, 27, 110
5, 46078, Note_on_c, 3, 27, 0
5, 46080, Note_on_c, 3, 25, 110
5, 46336, Note_on_c, 3, 25, 0
5, 46368, Note_on_c, 3, 25, 110
5, 46558, Note_on_c, 3, 25, 0
5, 46560, Note_on_c, 3, 25, 110
5, 46816, Note_on_c, 3, 25, 0
5, 46848, Note_on_c, 3, 25, 110
5, 47104, Note_on_c, 3, 25, 0
5, 47136, Note_on_c, 3, 25, 110
5, 47326, Note_on_c, 3, 25, 0
5, 47328, Note_on_c, 3, 27, 110
5, 47584, Note_on_c, 3, 27, 0
5, 47616, Note_on_c, 3, 29, 110
5, 48094, Note_on_c, 3, 29, 0
5, 48096, Note_on_c, 3, 29, 110
5, 48256, Note_on_c, 3, 29, 0
5, 48288, Note_on_c, 3, 29, 110
5, 48382, Note_on_c, 3, 29, 0
5, 48384, Note_on_c, 3, 29, 110
5, 48640, Note_on_c, 3, 29, 0
5, 48672, Note_on_c, 3, 29, 110
5, 48862, Note_on_c, 3, 29, 0
5, 48864, Note_on_c, 3, 24, 110
5, 48910, Note_on_c, 3, 24, 0
5, 48912, Note_on_c, 3, 25, 110
5, 48958, Note_on_c, 3, 25, 0
5, 48960, Note_on_c, 3, 29, 110
5, 49054, Note_on_c, 3, 29, 0
5, 49056, Note_on_c, 3, 29, 110
5, 49150, Note_on_c, 3, 29, 0
5, 49152, Note_on_c, 3, 39, 110
5, 49246, Note_on_c, 3, 39, 0
5, 49248, Note_on_c, 3, 39, 110
5, 49342, Note_on_c, 3, 39, 0
5, 49344, Note_on_c, 3, 37, 110
5, 49438, Note_on_c, 3, 37, 0
5, 49440, Note_on_c, 3, 36, 110
5, 49534, Note_on_c, 3, 36, 0
5, 49536, Note_on_c, 3, 34, 110
5, 49630, Note_on_c, 3, 34, 0
5, 49632, Note_on_c, 3, 36, 110
5, 49726, Note_on_c, 3, 36, 0
5, 49728, Note_on_c, 3, 36, 110
5, 49822, Note_on_c, 3, 36, 0
5, 49824, Note_on_c, 3, 32, 110
5, 49918, Note_on_c, 3, 32, 0
5, 49920, Note_on_c, 3, 32, 110
5, 50014, Note_on_c, 3, 32, 0
5, 50016, Note_on_c, 3, 32, 110
5, 50110, Note_on_c, 3, 32, 0
5, 50112, Note_on_c, 3, 32, 110
5, 50206, Note_on_c, 3, 32, 0
5, 50208, Note_on_c, 3, 29, 110
5, 50302, Note_on_c, 3, 29, 0
5, 50304, Note_on_c, 3, 29, 110
5, 50398, Note_on_c, 3, 29, 0
5, 50400, Note_on_c, 3, 29, 110
5, 50494, Note_on_c, 3, 29, 0
5, 50496, Note_on_c, 3, 29, 110
5, 50590, Note_on_c, 3, 29, 0
5, 50592, Note_on_c, 3, 29, 110
5, 50686, Note_on_c, 3, 29, 0
5, 50688, Note_on_c, 3, 37, 110
5, 50782, Note_on_c, 3, 37, 0
5, 50784, Note_on_c, 3, 37, 110
5, 50878, Note_on_c, 3, 37, 0
5, 50880, Note_on_c, 3, 35, 110
5, 50974, Note_on_c, 3, 35, 0
5, 50976, Note_on_c, 3, 34, 110
5, 51070, Note_on_c, 3, 34, 0
5, 51072, Note_on_c, 3, 32, 110
5, 51166, Note_on_c, 3, 32, 0
5, 51168, Note_on_c, 3, 30, 110
5, 51262, Note_on_c, 3, 30, 0
5, 51264, Note_on_c, 3, 29, 110
5, 51358, Note_on_c, 3, 29, 0
5, 51360, Note_on_c, 3, 35, 110
5, 51712, Note_on_c, 3, 36, 0
5, 51744, Note_on_c, 3, 34, 110
5, 52096, Note_on_c, 3, 34, 0
5, 52128, Note_on_c, 3, 34, 110
5, 52480, Note_on_c, 3, 34, 0
5, 52512, Note_on_c, 3, 34, 110
5, 52864, Note_on_c, 3, 34, 0
5, 52896, Note_on_c, 3, 34, 110
5, 52990, Note_on_c, 3, 34, 0
5, 52992, Note_on_c, 3, 39, 110
5, 53086, Note_on_c, 3, 39, 0
5, 53088, Note_on_c, 3, 39, 110
5, 53182, Note_on_c, 3, 39, 0
5, 53184, Note_on_c, 3, 37, 110
5, 53278, Note_on_c, 3, 37, 0
5, 53280, Note_on_c, 3, 36, 110
5, 53374, Note_on_c, 3, 36, 0
5, 53376, Note_on_c, 3, 34, 110
5, 53470, Note_on_c, 3, 34, 0
5, 53472, Note_on_c, 3, 36, 110
5, 53566, Note_on_c, 3, 36, 0
5, 53568, Note_on_c, 3, 36, 110
5, 53662, Note_on_c, 3, 36, 0
5, 53664, Note_on_c, 3, 32, 110
5, 53758, Note_on_c, 3, 32, 0
5, 53760, Note_on_c, 3, 32, 110
5, 53854, Note_on_c, 3, 32, 0
5, 53856, Note_on_c, 3, 32, 110
5, 53950, Note_on_c, 3, 32, 0
5, 53952, Note_on_c, 3, 32, 110
5, 54046, Note_on_c, 3, 32, 0
5, 54048, Note_on_c, 3, 29, 110
5, 54142, Note_on_c, 3, 29, 0
5, 54144, Note_on_c, 3, 29, 110
5, 54238, Note_on_c, 3, 29, 0
5, 54240, Note_on_c, 3, 29, 110
5, 54334, Note_on_c, 3, 29, 0
5, 54336, Note_on_c, 3, 29, 110
5, 54430, Note_on_c, 3, 29, 0
5, 54432, Note_on_c, 3, 29, 110
5, 54526, Note_on_c, 3, 29, 0
5, 54528, Note_on_c, 3, 37, 110
5, 54622, Note_on_c, 3, 37, 0
5, 54624, Note_on_c, 3, 37, 110
5, 54718, Note_on_c, 3, 37, 0
5, 54720, Note_on_c, 3, 37, 110
5, 54814, Note_on_c, 3, 37, 0
5, 54816, Note_on_c, 3, 35, 110
5, 55006, Note_on_c, 3, 35, 0
5, 55008, Note_on_c, 3, 35, 110
5, 55102, Note_on_c, 3, 35, 0
5, 55104, Note_on_c, 3, 35, 110
5, 55198, Note_on_c, 3, 35, 0
5, 55200, Note_on_c, 3, 35, 110
5, 55294, Note_on_c, 3, 35, 0
5, 55296, Note_on_c, 3, 39, 110
5, 55390, Note_on_c, 3, 39, 0
5, 55392, Note_on_c, 3, 39, 110
5, 55486, Note_on_c, 3, 39, 0
5, 55488, Note_on_c, 3, 37, 110
5, 55582, Note_on_c, 3, 37, 0
5, 55584, Note_on_c, 3, 36, 110
5, 55678, Note_on_c, 3, 36, 0
5, 55680, Note_on_c, 3, 34, 110
5, 55774, Note_on_c, 3, 34, 0
5, 55776, Note_on_c, 3, 36, 110
5, 55870, Note_on_c, 3, 36, 0
5, 55872, Note_on_c, 3, 36, 110
5, 55966, Note_on_c, 3, 36, 0
5, 55968, Note_on_c, 3, 29, 110
5, 56062, Note_on_c, 3, 29, 0
5, 56064, Note_on_c, 3, 29, 110
5, 56158, Note_on_c, 3, 29, 0
5, 56160, Note_on_c, 3, 29, 110
5, 56254, Note_on_c, 3, 29, 0
5, 56256, Note_on_c, 3, 29, 110
5, 56350, Note_on_c, 3, 29, 0
5, 56352, Note_on_c, 3, 29, 110
5, 56446, Note_on_c, 3, 29, 0
5, 56448, Note_on_c, 3, 29, 110
5, 56542, Note_on_c, 3, 29, 0
5, 56544, Note_on_c, 3, 32, 110
5, 56638, Note_on_c, 3, 32, 0
5, 56640, Note_on_c, 3, 32, 110
5, 56734, Note_on_c, 3, 32, 0
5, 56736, Note_on_c, 3, 36, 110
5, 56830, Note_on_c, 3, 36, 0
5, 56832, Note_on_c, 3, 36, 110
5, 56926, Note_on_c, 3, 36, 0
5, 56928, Note_on_c, 3, 36, 110
5, 57022, Note_on_c, 3, 36, 0
5, 57024, Note_on_c, 3, 36, 110
5, 57118, Note_on_c, 3, 36, 0
5, 57120, Note_on_c, 3, 36, 110
5, 57214, Note_on_c, 3, 36, 0
5, 57216, Note_on_c, 3, 36, 110
5, 57310, Note_on_c, 3, 36, 0
5, 57312, Note_on_c, 3, 36, 110
5, 57406, Note_on_c, 3, 36, 0
5, 57408, Note_on_c, 3, 36, 110
5, 57502, Note_on_c, 3, 36, 0
5, 57504, Note_on_c, 3, 35, 110
5, 57694, Note_on_c, 3, 36, 0
5, 57696, Note_on_c, 3, 35, 110
5, 57790, Note_on_c, 3, 35, 0
5, 57792, Note_on_c, 3, 35, 110
5, 57886, Note_on_c, 3, 35, 0
5, 57888, Note_on_c, 3, 34, 110
5, 58240, Note_on_c, 3, 34, 0
5, 58272, Note_on_c, 3, 34, 110
5, 58366, Note_on_c, 3, 34, 0
5, 58368, Note_on_c, 3, 39, 110
5, 58462, Note_on_c, 3, 39, 0
5, 58464, Note_on_c, 3, 39, 110
5, 58558, Note_on_c, 3, 39, 0
5, 58560, Note_on_c, 3, 34, 110
5, 58654, Note_on_c, 3, 34, 0
5, 58656, Note_on_c, 3, 31, 110
5, 58912, Note_on_c, 3, 31, 0
5, 58944, Note_on_c, 3, 31, 110
5, 59038, Note_on_c, 3, 31, 0
5, 59040, Note_on_c, 3, 32, 110
5, 59296, Note_on_c, 3, 32, 0
5, 59328, Note_on_c, 3, 32, 110
5, 59422, Note_on_c, 3, 32, 0
5, 59424, Note_on_c, 3, 34, 110
5, 59614, Note_on_c, 3, 34, 0
5, 59616, Note_on_c, 3, 32, 110
5, 59710, Note_on_c, 3, 32, 0
5, 59712, Note_on_c, 3, 34, 110
5, 59806, Note_on_c, 3, 34, 0
5, 60000, Note_on_c, 3, 37, 110
5, 60094, Note_on_c, 3, 37, 0
5, 60096, Note_on_c, 3, 37, 110
5, 60238, Note_on_c, 3, 37, 0
5, 60240, Note_on_c, 3, 37, 110
5, 60382, Note_on_c, 3, 37, 0
5, 60384, Note_on_c, 3, 37, 110
5, 60478, Note_on_c, 3, 37, 0
5, 60480, Note_on_c, 3, 37, 110
5, 60766, Note_on_c, 3, 37, 0
5, 60768, Note_on_c, 3, 37, 110
5, 61150, Note_on_c, 3, 37, 0
5, 61152, Note_on_c, 3, 37, 110
5, 61534, Note_on_c, 3, 37, 0
5, 61536, Note_on_c, 3, 37, 110
5, 62160, Note_on_c, 3, 37, 0
5, 62208, Note_on_c, 3, 37, 110
5, 62302, Note_on_c, 3, 37, 0
5, 62304, Note_on_c, 3, 37, 110
5, 62464, Note_on_c, 3, 37, 0
5, 62496, Note_on_c, 3, 37, 110
5, 62590, Note_on_c, 3, 37, 0
5, 62592, Note_on_c, 3, 37, 110
5, 62686, Note_on_c, 3, 37, 0
5, 62688, Note_on_c, 3, 37, 110
5, 62944, Note_on_c, 3, 37, 0
5, 62976, Note_on_c, 3, 37, 110
5, 63070, Note_on_c, 3, 37, 0
5, 63072, Note_on_c, 3, 37, 110
5, 63232, Note_on_c, 3, 37, 0
5, 63264, Note_on_c, 3, 37, 110
5, 63358, Note_on_c, 3, 37, 0
5, 63360, Note_on_c, 3, 37, 110
5, 63454, Note_on_c, 3, 37, 0
5, 63456, Note_on_c, 3, 37, 110
5, 63712, Note_on_c, 3, 37, 0
5, 63744, Note_on_c, 3, 30, 110
5, 63838, Note_on_c, 3, 30, 0
5, 63840, Note_on_c, 3, 30, 110
5, 64000, Note_on_c, 3, 30, 0
5, 64032, Note_on_c, 3, 30, 110
5, 64126, Note_on_c, 3, 30, 0
5, 64128, Note_on_c, 3, 30, 110
5, 64222, Note_on_c, 3, 30, 0
5, 64224, Note_on_c, 3, 30, 110
5, 64480, Note_on_c, 3, 30, 0
5, 64512, Note_on_c, 3, 30, 110
5, 64606, Note_on_c, 3, 30, 0
5, 64608, Note_on_c, 3, 30, 110
5, 64768, Note_on_c, 3, 30, 0
5, 64800, Note_on_c, 3, 30, 110
5, 64894, Note_on_c, 3, 30, 0
5, 64896, Note_on_c, 3, 30, 110
5, 64990, Note_on_c, 3, 30, 0
5, 64992, Note_on_c, 3, 30, 110
5, 65086, Note_on_c, 3, 30, 0
5, 65088, Note_on_c, 3, 32, 110
5, 65182, Note_on_c, 3, 32, 0
5, 65184, Note_on_c, 3, 34, 110
5, 65278, Note_on_c, 3, 34, 0
5, 65280, Note_on_c, 3, 35, 110
5, 65374, Note_on_c, 3, 35, 0
5, 65376, Note_on_c, 3, 35, 110
5, 65536, Note_on_c, 3, 35, 0
5, 65568, Note_on_c, 3, 35, 110
5, 65662, Note_on_c, 3, 35, 0
5, 65664, Note_on_c, 3, 35, 110
5, 65758, Note_on_c, 3, 35, 0
5, 65760, Note_on_c, 3, 35, 110
5, 66016, Note_on_c, 3, 35, 0
5, 66048, Note_on_c, 3, 35, 110
5, 66142, Note_on_c, 3, 35, 0
5, 66144, Note_on_c, 3, 35, 110
5, 66304, Note_on_c, 3, 35, 0
5, 66336, Note_on_c, 3, 35, 110
5, 66430, Note_on_c, 3, 35, 0
5, 66432, Note_on_c, 3, 35, 110
5, 66526, Note_on_c, 3, 35, 0
5, 66528, Note_on_c, 3, 35, 110
5, 66784, Note_on_c, 3, 35, 0
5, 66816, Note_on_c, 3, 40, 110
5, 66910, Note_on_c, 3, 40, 0
5, 66912, Note_on_c, 3, 40, 110
5, 67072, Note_on_c, 3, 40, 0
5, 67104, Note_on_c, 3, 40, 110
5, 67198, Note_on_c, 3, 40, 0
5, 67200, Note_on_c, 3, 40, 110
5, 67294, Note_on_c, 3, 40, 0
5, 67296, Note_on_c, 3, 40, 110
5, 67552, Note_on_c, 3, 40, 0
5, 67584, Note_on_c, 3, 40, 110
5, 67678, Note_on_c, 3, 40, 0
5, 67680, Note_on_c, 3, 40, 110
5, 67840, Note_on_c, 3, 40, 0
5, 67872, Note_on_c, 3, 40, 110
5, 67966, Note_on_c, 3, 40, 0
5, 67968, Note_on_c, 3, 40, 110
5, 68224, Note_on_c, 3, 40, 0
5, 68256, Note_on_c, 3, 40, 110
5, 68350, Note_on_c, 3, 40, 0
5, 68352, Note_on_c, 3, 42, 110
5, 68446, Note_on_c, 3, 42, 0
5, 68448, Note_on_c, 3, 42, 110
5, 68542, Note_on_c, 3, 42, 0
5, 68544, Note_on_c, 3, 40, 110
5, 68638, Note_on_c, 3, 40, 0
5, 68640, Note_on_c, 3, 39, 110
5, 68734, Note_on_c, 3, 39, 0
5, 68736, Note_on_c, 3, 37, 110
5, 68830, Note_on_c, 3, 37, 0
5, 68832, Note_on_c, 3, 39, 110
5, 68926, Note_on_c, 3, 39, 0
5, 68928, Note_on_c, 3, 39, 110
5, 69022, Note_on_c, 3, 39, 0
5, 69024, Note_on_c, 3, 35, 110
5, 69118, Note_on_c, 3, 35, 0
5, 69120, Note_on_c, 3, 35, 110
5, 69214, Note_on_c, 3, 35, 0
5, 69216, Note_on_c, 3, 35, 110
5, 69310, Note_on_c, 3, 35, 0
5, 69312, Note_on_c, 3, 35, 110
5, 69406, Note_on_c, 3, 35, 0
5, 69408, Note_on_c, 3, 32, 110
5, 69502, Note_on_c, 3, 32, 0
5, 69504, Note_on_c, 3, 32, 110
5, 69598, Note_on_c, 3, 32, 0
5, 69600, Note_on_c, 3, 32, 110
5, 69694, Note_on_c, 3, 32, 0
5, 69696, Note_on_c, 3, 32, 110
5, 69790, Note_on_c, 3, 32, 0
5, 69792, Note_on_c, 3, 32, 110
5, 69886, Note_on_c, 3, 32, 0
5, 69886, End_track
6, 0, Start_track
6, 0, MIDI_port, 0
6, 0, Title_t, "Staff-4"
6, 0, Program_c, 4, 61
6, 0, Control_c, 4, 7, 60
6, 0, Control_c, 4, 10, 57
6, 0, Note_on_c, 4, 63, 110
6, 0, Note_on_c, 4, 70, 110
6, 1488, Note_on_c, 4, 63, 0
6, 1488, Note_on_c, 4, 70, 0
6, 1536, Note_on_c, 4, 61, 110
6, 1536, Note_on_c, 4, 65, 110
6, 1536, Note_on_c, 4, 68, 110
6, 1536, Note_on_c, 4, 70, 110
6, 1630, Note_on_c, 4, 61, 0
6, 1630, Note_on_c, 4, 65, 0
6, 1630, Note_on_c, 4, 68, 0
6, 1630, Note_on_c, 4, 70, 0
6, 1632, Note_on_c, 4, 58, 110
6, 1678, Note_on_c, 4, 58, 0
6, 1680, Note_on_c, 4, 58, 110
6, 1726, Note_on_c, 4, 58, 0
6, 1728, Note_on_c, 4, 58, 110
6, 1822, Note_on_c, 4, 58, 0
6, 1824, Note_on_c, 4, 60, 110
6, 1918, Note_on_c, 4, 60, 0
6, 1920, Note_on_c, 4, 61, 110
6, 2014, Note_on_c, 4, 61, 0
6, 2016, Note_on_c, 4, 60, 110
6, 2110, Note_on_c, 4, 60, 0
6, 2112, Note_on_c, 4, 58, 110
6, 2206, Note_on_c, 4, 58, 0
6, 2208, Note_on_c, 4, 56, 110
6, 2302, Note_on_c, 4, 56, 0
6, 2304, Note_on_c, 4, 63, 110
6, 2304, Note_on_c, 4, 68, 110
6, 2350, Note_on_c, 4, 63, 0
6, 2350, Note_on_c, 4, 68, 0
6, 2352, Note_on_c, 4, 65, 110
6, 2352, Note_on_c, 4, 70, 110
6, 2494, Note_on_c, 4, 65, 0
6, 2494, Note_on_c, 4, 70, 0
6, 2592, Note_on_c, 4, 65, 110
6, 2592, Note_on_c, 4, 70, 110
6, 2638, Note_on_c, 4, 65, 0
6, 2638, Note_on_c, 4, 70, 0
6, 2640, Note_on_c, 4, 65, 110
6, 2640, Note_on_c, 4, 70, 110
6, 2734, Note_on_c, 4, 65, 0
6, 2734, Note_on_c, 4, 70, 0
6, 2736, Note_on_c, 4, 65, 110
6, 2736, Note_on_c, 4, 70, 110
6, 2782, Note_on_c, 4, 65, 0
6, 2782, Note_on_c, 4, 70, 0
6, 2784, Note_on_c, 4, 65, 110
6, 2784, Note_on_c, 4, 70, 110
6, 2878, Note_on_c, 4, 65, 0
6, 2878, Note_on_c, 4, 70, 0
6, 2880, Note_on_c, 4, 66, 110
6, 2880, Note_on_c, 4, 71, 110
6, 2974, Note_on_c, 4, 66, 0
6, 2974, Note_on_c, 4, 71, 0
6, 2976, Note_on_c, 4, 66, 110
6, 2976, Note_on_c, 4, 71, 110
6, 3070, Note_on_c, 4, 66, 0
6, 3070, Note_on_c, 4, 71, 0
6, 3168, Note_on_c, 4, 61, 110
6, 3168, Note_on_c, 4, 68, 110
6, 3310, Note_on_c, 4, 61, 0
6, 3310, Note_on_c, 4, 68, 0
6, 3312, Note_on_c, 4, 61, 110
6, 3312, Note_on_c, 4, 67, 110
6, 3454, Note_on_c, 4, 61, 0
6, 3454, Note_on_c, 4, 67, 0
6, 3456, Note_on_c, 4, 63, 110
6, 3792, Note_on_c, 4, 63, 0
6, 3936, Note_on_c, 4, 61, 110
6, 3936, Note_on_c, 4, 68, 110
6, 4078, Note_on_c, 4, 61, 0
6, 4078, Note_on_c, 4, 68, 0
6, 4080, Note_on_c, 4, 61, 110
6, 4080, Note_on_c, 4, 67, 110
6, 4126, Note_on_c, 4, 61, 0
6, 4126, Note_on_c, 4, 67, 0
6, 4224, Note_on_c, 4, 61, 110
6, 4224, Note_on_c, 4, 65, 110
6, 4366, Note_on_c, 4, 61, 0
6, 4366, Note_on_c, 4, 65, 0
6, 4368, Note_on_c, 4, 61, 110
6, 4368, Note_on_c, 4, 67, 110
6, 4414, Note_on_c, 4, 61, 0
6, 4414, Note_on_c, 4, 67, 0
6, 4608, Note_on_c, 4, 61, 110
6, 4608, Note_on_c, 4, 65, 110
6, 4608, Note_on_c, 4, 68, 110
6, 4608, Note_on_c, 4, 70, 110
6, 4702, Note_on_c, 4, 61, 0
6, 4702, Note_on_c, 4, 65, 0
6, 4702, Note_on_c, 4, 68, 0
6, 4702, Note_on_c, 4, 70, 0
6, 4704, Note_on_c, 4, 58, 110
6, 4750, Note_on_c, 4, 58, 0
6, 4752, Note_on_c, 4, 58, 110
6, 4798, Note_on_c, 4, 58, 0
6, 4800, Note_on_c, 4, 58, 110
6, 4894, Note_on_c, 4, 58, 0
6, 4896, Note_on_c, 4, 60, 110
6, 4990, Note_on_c, 4, 60, 0
6, 4992, Note_on_c, 4, 61, 110
6, 5086, Note_on_c, 4, 61, 0
6, 5088, Note_on_c, 4, 60, 110
6, 5182, Note_on_c, 4, 60, 0
6, 5184, Note_on_c, 4, 58, 110
6, 5278, Note_on_c, 4, 58, 0
6, 5280, Note_on_c, 4, 56, 110
6, 5374, Note_on_c, 4, 56, 0
6, 5376, Note_on_c, 4, 63, 110
6, 5376, Note_on_c, 4, 68, 110
6, 5422, Note_on_c, 4, 63, 0
6, 5422, Note_on_c, 4, 68, 0
6, 5424, Note_on_c, 4, 65, 110
6, 5424, Note_on_c, 4, 70, 110
6, 5566, Note_on_c, 4, 65, 0
6, 5566, Note_on_c, 4, 70, 0
6, 5664, Note_on_c, 4, 65, 110
6, 5664, Note_on_c, 4, 70, 110
6, 5710, Note_on_c, 4, 65, 0
6, 5710, Note_on_c, 4, 70, 0
6, 5712, Note_on_c, 4, 65, 110
6, 5712, Note_on_c, 4, 70, 110
6, 5806, Note_on_c, 4, 65, 0
6, 5806, Note_on_c, 4, 70, 0
6, 5808, Note_on_c, 4, 65, 110
6, 5808, Note_on_c, 4, 70, 110
6, 5854, Note_on_c, 4, 65, 0
6, 5854, Note_on_c, 4, 70, 0
6, 5856, Note_on_c, 4, 65, 110
6, 5856, Note_on_c, 4, 70, 110
6, 5950, Note_on_c, 4, 65, 0
6, 5950, Note_on_c, 4, 70, 0
6, 5952, Note_on_c, 4, 66, 110
6, 5952, Note_on_c, 4, 71, 110
6, 6046, Note_on_c, 4, 66, 0
6, 6046, Note_on_c, 4, 71, 0
6, 6048, Note_on_c, 4, 66, 110
6, 6048, Note_on_c, 4, 71, 110
6, 6142, Note_on_c, 4, 66, 0
6, 6142, Note_on_c, 4, 71, 0
6, 6240, Note_on_c, 4, 61, 110
6, 6240, Note_on_c, 4, 68, 110
6, 6382, Note_on_c, 4, 61, 0
6, 6382, Note_on_c, 4, 68, 0
6, 6384, Note_on_c, 4, 61, 110
6, 6384, Note_on_c, 4, 67, 110
6, 6526, Note_on_c, 4, 61, 0
6, 6526, Note_on_c, 4, 67, 0
6, 6528, Note_on_c, 4, 63, 110
6, 6864, Note_on_c, 4, 63, 0
6, 7008, Note_on_c, 4, 61, 110
6, 7008, Note_on_c, 4, 68, 110
6, 7150, Note_on_c, 4, 61, 0
6, 7150, Note_on_c, 4, 68, 0
6, 7152, Note_on_c, 4, 61, 110
6, 7152, Note_on_c, 4, 67, 110
6, 7198, Note_on_c, 4, 61, 0
6, 7198, Note_on_c, 4, 67, 0
6, 7296, Note_on_c, 4, 61, 110
6, 7296, Note_on_c, 4, 65, 110
6, 7438, Note_on_c, 4, 61, 0
6, 7438, Note_on_c, 4, 65, 0
6, 7440, Note_on_c, 4, 61, 110
6, 7440, Note_on_c, 4, 67, 110
6, 7486, Note_on_c, 4, 61, 0
6, 7486, Note_on_c, 4, 67, 0
6, 7680, Control_c, 4, 7, 91
6, 7680, Note_on_c, 4, 65, 110
6, 7680, Note_on_c, 4, 68, 110
6, 7680, Note_on_c, 4, 70, 110
6, 7680, Note_on_c, 4, 73, 110
6, 7774, Note_on_c, 4, 65, 0
6, 7774, Note_on_c, 4, 68, 0
6, 7774, Note_on_c, 4, 70, 0
6, 7774, Note_on_c, 4, 73, 0
6, 7776, Control_c, 4, 7, 66
6, 7824, Note_on_c, 4, 68, 110
6, 7870, Note_on_c, 4, 68, 0
6, 7872, Note_on_c, 4, 68, 110
6, 8014, Note_on_c, 4, 68, 0
6, 8016, Note_on_c, 4, 68, 110
6, 8062, Note_on_c, 4, 68, 0
6, 8064, Note_on_c, 4, 68, 110
6, 8206, Note_on_c, 4, 68, 0
6, 8208, Note_on_c, 4, 68, 110
6, 8254, Note_on_c, 4, 68, 0
6, 8256, Note_on_c, 4, 68, 110
6, 8398, Note_on_c, 4, 68, 0
6, 8400, Note_on_c, 4, 68, 110
6, 8446, Note_on_c, 4, 68, 0
6, 8448, Note_on_c, 4, 68, 110
6, 8590, Note_on_c, 4, 68, 0
6, 8592, Note_on_c, 4, 68, 110
6, 8638, Note_on_c, 4, 68, 0
6, 8640, Note_on_c, 4, 68, 110
6, 8782, Note_on_c, 4, 68, 0
6, 8784, Note_on_c, 4, 68, 110
6, 8830, Note_on_c, 4, 68, 0
6, 8832, Note_on_c, 4, 68, 110
6, 8878, Note_on_c, 4, 68, 0
6, 8880, Note_on_c, 4, 70, 110
6, 8974, Note_on_c, 4, 70, 0
6, 8976, Note_on_c, 4, 72, 110
6, 9022, Note_on_c, 4, 72, 0
6, 9216, Control_c, 4, 7, 91
6, 9216, Note_on_c, 4, 65, 110
6, 9216, Note_on_c, 4, 68, 110
6, 9216, Note_on_c, 4, 70, 110
6, 9216, Note_on_c, 4, 73, 110
6, 9310, Note_on_c, 4, 65, 0
6, 9310, Note_on_c, 4, 68, 0
6, 9310, Note_on_c, 4, 70, 0
6, 9310, Note_on_c, 4, 73, 0
6, 9312, Control_c, 4, 7, 66
6, 9360, Note_on_c, 4, 68, 110
6, 9406, Note_on_c, 4, 68, 0
6, 9408, Note_on_c, 4, 68, 110
6, 9550, Note_on_c, 4, 68, 0
6, 9552, Note_on_c, 4, 68, 110
6, 9598, Note_on_c, 4, 68, 0
6, 9600, Note_on_c, 4, 68, 110
6, 9742, Note_on_c, 4, 68, 0
6, 9744, Note_on_c, 4, 68, 110
6, 9790, Note_on_c, 4, 68, 0
6, 9792, Note_on_c, 4, 68, 110
6, 9934, Note_on_c, 4, 68, 0
6, 9936, Note_on_c, 4, 68, 110
6, 9982, Note_on_c, 4, 68, 0
6, 9984, Note_on_c, 4, 68, 110
6, 10126, Note_on_c, 4, 68, 0
6, 10128, Note_on_c, 4, 68, 110
6, 10174, Note_on_c, 4, 68, 0
6, 10176, Note_on_c, 4, 68, 110
6, 10270, Note_on_c, 4, 68, 0
6, 10272, Note_on_c, 4, 68, 110
6, 10318, Note_on_c, 4, 68, 0
6, 10320, Note_on_c, 4, 68, 110
6, 10366, Note_on_c, 4, 68, 0
6, 10368, Note_on_c, 4, 68, 110
6, 10414, Note_on_c, 4, 68, 0
6, 10416, Note_on_c, 4, 67, 110
6, 10510, Note_on_c, 4, 67, 0
6, 10512, Note_on_c, 4, 65, 110
6, 10558, Note_on_c, 4, 65, 0
6, 10704, Note_on_c, 4, 68, 110
6, 10750, Note_on_c, 4, 68, 0
6, 10752, Control_c, 4, 7, 91
6, 10752, Note_on_c, 4, 65, 110
6, 10752, Note_on_c, 4, 68, 110
6, 10752, Note_on_c, 4, 70, 110
6, 10752, Note_on_c, 4, 73, 110
6, 10846, Note_on_c, 4, 65, 0
6, 10846, Note_on_c, 4, 68, 0
6, 10846, Note_on_c, 4, 70, 0
6, 10846, Note_on_c, 4, 73, 0
6, 10848, Control_c, 4, 7, 66
6, 10896, Note_on_c, 4, 68, 110
6, 10942, Note_on_c, 4, 68, 0
6, 10944, Note_on_c, 4, 68, 110
6, 11086, Note_on_c, 4, 68, 0
6, 11088, Note_on_c, 4, 68, 110
6, 11134, Note_on_c, 4, 68, 0
6, 11136, Note_on_c, 4, 68, 110
6, 11278, Note_on_c, 4, 68, 0
6, 11280, Note_on_c, 4, 68, 110
6, 11326, Note_on_c, 4, 68, 0
6, 11328, Note_on_c, 4, 68, 110
6, 11470, Note_on_c, 4, 68, 0
6, 11472, Note_on_c, 4, 68, 110
6, 11518, Note_on_c, 4, 68, 0
6, 11520, Note_on_c, 4, 68, 110
6, 11662, Note_on_c, 4, 68, 0
6, 11664, Note_on_c, 4, 68, 110
6, 11710, Note_on_c, 4, 68, 0
6, 11712, Note_on_c, 4, 68, 110
6, 11854, Note_on_c, 4, 68, 0
6, 11856, Note_on_c, 4, 68, 110
6, 11902, Note_on_c, 4, 68, 0
6, 11904, Note_on_c, 4, 68, 110
6, 11950, Note_on_c, 4, 68, 0
6, 11952, Note_on_c, 4, 70, 110
6, 12046, Note_on_c, 4, 70, 0
6, 12048, Note_on_c, 4, 72, 110
6, 12094, Note_on_c, 4, 72, 0
6, 12288, Control_c, 4, 7, 91
6, 12288, Note_on_c, 4, 65, 110
6, 12288, Note_on_c, 4, 68, 110
6, 12288, Note_on_c, 4, 70, 110
6, 12288, Note_on_c, 4, 73, 110
6, 12382, Note_on_c, 4, 65, 0
6, 12382, Note_on_c, 4, 68, 0
6, 12382, Note_on_c, 4, 70, 0
6, 12382, Note_on_c, 4, 73, 0
6, 12384, Control_c, 4, 7, 66
6, 12432, Note_on_c, 4, 68, 110
6, 12478, Note_on_c, 4, 68, 0
6, 12480, Note_on_c, 4, 68, 110
6, 12622, Note_on_c, 4, 68, 0
6, 12624, Note_on_c, 4, 68, 110
6, 12670, Note_on_c, 4, 68, 0
6, 12672, Note_on_c, 4, 68, 110
6, 12814, Note_on_c, 4, 68, 0
6, 12816, Note_on_c, 4, 68, 110
6, 12862, Note_on_c, 4, 68, 0
6, 12864, Note_on_c, 4, 68, 110
6, 13006, Note_on_c, 4, 68, 0
6, 13008, Note_on_c, 4, 68, 110
6, 13054, Note_on_c, 4, 68, 0
6, 13056, Note_on_c, 4, 68, 110
6, 13198, Note_on_c, 4, 68, 0
6, 13200, Note_on_c, 4, 68, 110
6, 13246, Note_on_c, 4, 68, 0
6, 13248, Note_on_c, 4, 68, 110
6, 13342, Note_on_c, 4, 68, 0
6, 13344, Note_on_c, 4, 68, 110
6, 13390, Note_on_c, 4, 68, 0
6, 13392, Note_on_c, 4, 68, 110
6, 13438, Note_on_c, 4, 68, 0
6, 13440, Note_on_c, 4, 68, 110
6, 13486, Note_on_c, 4, 68, 0
6, 13488, Note_on_c, 4, 67, 110
6, 13582, Note_on_c, 4, 67, 0
6, 13584, Note_on_c, 4, 65, 110
6, 13630, Note_on_c, 4, 65, 0
6, 13776, Note_on_c, 4, 68, 110
6, 13822, Note_on_c, 4, 68, 0
6, 13824, Control_c, 4, 7, 91
6, 13824, Note_on_c, 4, 65, 110
6, 13824, Note_on_c, 4, 68, 110
6, 13824, Note_on_c, 4, 70, 110
6, 13824, Note_on_c, 4, 73, 110
6, 13918, Note_on_c, 4, 65, 0
6, 13918, Note_on_c, 4, 68, 0
6, 13918, Note_on_c, 4, 70, 0
6, 13918, Note_on_c, 4, 73, 0
6, 13920, Control_c, 4, 7, 66
6, 13968, Note_on_c, 4, 68, 110
6, 14014, Note_on_c, 4, 68, 0
6, 14016, Note_on_c, 4, 68, 110
6, 14158, Note_on_c, 4, 68, 0
6, 14160, Note_on_c, 4, 68, 110
6, 14206, Note_on_c, 4, 68, 0
6, 14208, Note_on_c, 4, 68, 110
6, 14350, Note_on_c, 4, 68, 0
6, 14352, Note_on_c, 4, 68, 110
6, 14398, Note_on_c, 4, 68, 0
6, 14400, Note_on_c, 4, 68, 110
6, 14542, Note_on_c, 4, 68, 0
6, 14544, Note_on_c, 4, 68, 110
6, 14590, Note_on_c, 4, 68, 0
6, 14592, Note_on_c, 4, 68, 110
6, 14734, Note_on_c, 4, 68, 0
6, 14736, Note_on_c, 4, 68, 110
6, 14782, Note_on_c, 4, 68, 0
6, 14784, Note_on_c, 4, 68, 110
6, 14926, Note_on_c, 4, 68, 0
6, 14928, Note_on_c, 4, 68, 110
6, 14974, Note_on_c, 4, 68, 0
6, 14976, Note_on_c, 4, 68, 110
6, 15022, Note_on_c, 4, 68, 0
6, 15024, Note_on_c, 4, 70, 110
6, 15118, Note_on_c, 4, 70, 0
6, 15120, Note_on_c, 4, 72, 110
6, 15166, Note_on_c, 4, 72, 0
6, 15360, Control_c, 4, 7, 91
6, 15360, Note_on_c, 4, 65, 110
6, 15360, Note_on_c, 4, 68, 110
6, 15360, Note_on_c, 4, 70, 110
6, 15360, Note_on_c, 4, 73, 110
6, 15454, Note_on_c, 4, 65, 0
6, 15454, Note_on_c, 4, 68, 0
6, 15454, Note_on_c, 4, 70, 0
6, 15454, Note_on_c, 4, 73, 0
6, 15456, Control_c, 4, 7, 66
6, 15504, Note_on_c, 4, 68, 110
6, 15550, Note_on_c, 4, 68, 0
6, 15552, Note_on_c, 4, 68, 110
6, 15694, Note_on_c, 4, 68, 0
6, 15696, Note_on_c, 4, 68, 110
6, 15742, Note_on_c, 4, 68, 0
6, 15744, Note_on_c, 4, 68, 110
6, 15886, Note_on_c, 4, 68, 0
6, 15888, Note_on_c, 4, 68, 110
6, 15934, Note_on_c, 4, 68, 0
6, 15936, Note_on_c, 4, 68, 110
6, 16078, Note_on_c, 4, 68, 0
6, 16080, Note_on_c, 4, 68, 110
6, 16126, Note_on_c, 4, 68, 0
6, 16128, Note_on_c, 4, 68, 110
6, 16270, Note_on_c, 4, 68, 0
6, 16272, Note_on_c, 4, 68, 110
6, 16318, Note_on_c, 4, 68, 0
6, 16320, Note_on_c, 4, 68, 110
6, 16414, Note_on_c, 4, 68, 0
6, 16416, Note_on_c, 4, 68, 110
6, 16462, Note_on_c, 4, 68, 0
6, 16464, Note_on_c, 4, 68, 110
6, 16510, Note_on_c, 4, 68, 0
6, 16512, Note_on_c, 4, 68, 110
6, 16558, Note_on_c, 4, 68, 0
6, 16560, Note_on_c, 4, 67, 110
6, 16654, Note_on_c, 4, 67, 0
6, 16656, Note_on_c, 4, 65, 110
6, 16702, Note_on_c, 4, 65, 0
6, 16848, Note_on_c, 4, 68, 110
6, 16894, Note_on_c, 4, 68, 0
6, 16896, Control_c, 4, 7, 91
6, 16896, Note_on_c, 4, 65, 110
6, 16896, Note_on_c, 4, 68, 110
6, 16896, Note_on_c, 4, 70, 110
6, 16896, Note_on_c, 4, 73, 110
6, 16990, Note_on_c, 4, 65, 0
6, 16990, Note_on_c, 4, 68, 0
6, 16990, Note_on_c, 4, 70, 0
6, 16990, Note_on_c, 4, 73, 0
6, 16992, Control_c, 4, 7, 66
6, 17040, Note_on_c, 4, 68, 110
6, 17086, Note_on_c, 4, 68, 0
6, 17088, Note_on_c, 4, 68, 110
6, 17230, Note_on_c, 4, 68, 0
6, 17232, Note_on_c, 4, 68, 110
6, 17278, Note_on_c, 4, 68, 0
6, 17280, Note_on_c, 4, 68, 110
6, 17422, Note_on_c, 4, 68, 0
6, 17424, Note_on_c, 4, 68, 110
6, 17470, Note_on_c, 4, 68, 0
6, 17472, Note_on_c, 4, 68, 110
6, 17614, Note_on_c, 4, 68, 0
6, 17616, Note_on_c, 4, 68, 110
6, 17662, Note_on_c, 4, 68, 0
6, 17664, Note_on_c, 4, 68, 110
6, 17806, Note_on_c, 4, 68, 0
6, 17808, Note_on_c, 4, 68, 110
6, 17854, Note_on_c, 4, 68, 0
6, 17856, Note_on_c, 4, 68, 110
6, 17998, Note_on_c, 4, 68, 0
6, 18000, Note_on_c, 4, 68, 110
6, 18046, Note_on_c, 4, 68, 0
6, 18048, Note_on_c, 4, 68, 110
6, 18094, Note_on_c, 4, 68, 0
6, 18096, Note_on_c, 4, 70, 110
6, 18190, Note_on_c, 4, 70, 0
6, 18192, Note_on_c, 4, 72, 110
6, 18238, Note_on_c, 4, 72, 0
6, 18432, Control_c, 4, 7, 91
6, 18432, Note_on_c, 4, 65, 110
6, 18432, Note_on_c, 4, 68, 110
6, 18432, Note_on_c, 4, 70, 110
6, 18432, Note_on_c, 4, 73, 110
6, 18526, Note_on_c, 4, 65, 0
6, 18526, Note_on_c, 4, 68, 0
6, 18526, Note_on_c, 4, 70, 0
6, 18526, Note_on_c, 4, 73, 0
6, 18528, Control_c, 4, 7, 66
6, 18576, Note_on_c, 4, 68, 110
6, 18622, Note_on_c, 4, 68, 0
6, 18624, Note_on_c, 4, 68, 110
6, 18766, Note_on_c, 4, 68, 0
6, 18768, Note_on_c, 4, 68, 110
6, 18814, Note_on_c, 4, 68, 0
6, 18816, Note_on_c, 4, 68, 110
6, 18958, Note_on_c, 4, 68, 0
6, 18960, Note_on_c, 4, 68, 110
6, 19006, Note_on_c, 4, 68, 0
6, 19008, Note_on_c, 4, 68, 110
6, 19150, Note_on_c, 4, 68, 0
6, 19152, Note_on_c, 4, 68, 110
6, 19198, Note_on_c, 4, 68, 0
6, 19200, Note_on_c, 4, 68, 110
6, 19342, Note_on_c, 4, 68, 0
6, 19344, Note_on_c, 4, 68, 110
6, 19390, Note_on_c, 4, 68, 0
6, 19392, Note_on_c, 4, 68, 110
6, 19486, Note_on_c, 4, 68, 0
6, 19488, Note_on_c, 4, 68, 110
6, 19534, Note_on_c, 4, 68, 0
6, 19536, Note_on_c, 4, 68, 110
6, 19582, Note_on_c, 4, 68, 0
6, 19584, Note_on_c, 4, 68, 110
6, 19630, Note_on_c, 4, 68, 0
6, 19632, Note_on_c, 4, 67, 110
6, 19726, Note_on_c, 4, 67, 0
6, 19728, Note_on_c, 4, 65, 110
6, 19774, Note_on_c, 4, 65, 0
6, 19920, Note_on_c, 4, 68, 110
6, 19966, Note_on_c, 4, 68, 0
6, 19968, Control_c, 4, 7, 91
6, 19968, Note_on_c, 4, 65, 110
6, 19968, Note_on_c, 4, 68, 110
6, 19968, Note_on_c, 4, 70, 110
6, 19968, Note_on_c, 4, 73, 110
6, 20062, Note_on_c, 4, 65, 0
6, 20062, Note_on_c, 4, 68, 0
6, 20062, Note_on_c, 4, 70, 0
6, 20062, Note_on_c, 4, 73, 0
6, 20064, Control_c, 4, 7, 66
6, 20112, Note_on_c, 4, 68, 110
6, 20158, Note_on_c, 4, 68, 0
6, 20160, Note_on_c, 4, 68, 110
6, 20302, Note_on_c, 4, 68, 0
6, 20304, Note_on_c, 4, 68, 110
6, 20350, Note_on_c, 4, 68, 0
6, 20352, Note_on_c, 4, 68, 110
6, 20494, Note_on_c, 4, 68, 0
6, 20496, Note_on_c, 4, 68, 110
6, 20542, Note_on_c, 4, 68, 0
6, 20544, Note_on_c, 4, 68, 110
6, 20686, Note_on_c, 4, 68, 0
6, 20688, Note_on_c, 4, 68, 110
6, 20734, Note_on_c, 4, 68, 0
6, 20736, Note_on_c, 4, 68, 110
6, 20878, Note_on_c, 4, 68, 0
6, 20880, Note_on_c, 4, 68, 110
6, 20926, Note_on_c, 4, 68, 0
6, 20928, Note_on_c, 4, 68, 110
6, 21070, Note_on_c, 4, 68, 0
6, 21072, Note_on_c, 4, 68, 110
6, 21118, Note_on_c, 4, 68, 0
6, 21120, Note_on_c, 4, 68, 110
6, 21166, Note_on_c, 4, 68, 0
6, 21168, Note_on_c, 4, 70, 110
6, 21262, Note_on_c, 4, 70, 0
6, 21264, Note_on_c, 4, 72, 110
6, 21310, Note_on_c, 4, 72, 0
6, 21504, Note_on_c, 4, 63, 110
6, 21550, Note_on_c, 4, 63, 0
6, 21552, Note_on_c, 4, 65, 110
6, 22224, Note_on_c, 4, 65, 0
6, 22272, Note_on_c, 4, 60, 110
6, 22272, Note_on_c, 4, 63, 110
6, 22272, Note_on_c, 4, 65, 110
6, 22272, Note_on_c, 4, 68, 110
6, 22992, Note_on_c, 4, 60, 0
6, 22992, Note_on_c, 4, 63, 0
6, 22992, Note_on_c, 4, 65, 0
6, 22992, Note_on_c, 4, 68, 0
6, 23040, Note_on_c, 4, 63, 110
6, 23040, Note_on_c, 4, 68, 110
6, 23086, Note_on_c, 4, 63, 0
6, 23086, Note_on_c, 4, 68, 0
6, 23088, Note_on_c, 4, 65, 110
6, 23088, Note_on_c, 4, 70, 110
6, 23230, Note_on_c, 4, 65, 0
6, 23230, Note_on_c, 4, 70, 0
6, 23328, Note_on_c, 4, 65, 110
6, 23328, Note_on_c, 4, 70, 110
6, 23374, Note_on_c, 4, 65, 0
6, 23374, Note_on_c, 4, 70, 0
6, 23376, Note_on_c, 4, 65, 110
6, 23376, Note_on_c, 4, 70, 110
6, 23470, Note_on_c, 4, 65, 0
6, 23470, Note_on_c, 4, 70, 0
6, 23472, Note_on_c, 4, 65, 110
6, 23472, Note_on_c, 4, 70, 110
6, 23518, Note_on_c, 4, 65, 0
6, 23518, Note_on_c, 4, 70, 0
6, 23520, Note_on_c, 4, 65, 110
6, 23520, Note_on_c, 4, 70, 110
6, 23614, Note_on_c, 4, 65, 0
6, 23614, Note_on_c, 4, 70, 0
6, 23616, Note_on_c, 4, 66, 110
6, 23616, Note_on_c, 4, 71, 110
6, 23710, Note_on_c, 4, 66, 0
6, 23710, Note_on_c, 4, 71, 0
6, 23712, Note_on_c, 4, 66, 110
6, 23712, Note_on_c, 4, 71, 110
6, 23806, Note_on_c, 4, 66, 0
6, 23806, Note_on_c, 4, 71, 0
6, 23808, Note_on_c, 4, 63, 110
6, 23808, Note_on_c, 4, 68, 110
6, 23854, Note_on_c, 4, 63, 0
6, 23854, Note_on_c, 4, 68, 0
6, 23856, Note_on_c, 4, 65, 110
6, 23856, Note_on_c, 4, 70, 110
6, 23998, Note_on_c, 4, 65, 0
6, 23998, Note_on_c, 4, 70, 0
6, 24096, Note_on_c, 4, 65, 110
6, 24096, Note_on_c, 4, 70, 110
6, 24142, Note_on_c, 4, 65, 0
6, 24142, Note_on_c, 4, 70, 0
6, 24144, Note_on_c, 4, 65, 110
6, 24144, Note_on_c, 4, 70, 110
6, 24238, Note_on_c, 4, 65, 0
6, 24238, Note_on_c, 4, 70, 0
6, 24240, Note_on_c, 4, 65, 110
6, 24240, Note_on_c, 4, 70, 110
6, 24286, Note_on_c, 4, 65, 0
6, 24286, Note_on_c, 4, 70, 0
6, 24288, Note_on_c, 4, 65, 110
6, 24288, Note_on_c, 4, 70, 110
6, 24382, Note_on_c, 4, 65, 0
6, 24382, Note_on_c, 4, 70, 0
6, 24384, Note_on_c, 4, 66, 110
6, 24384, Note_on_c, 4, 71, 110
6, 24478, Note_on_c, 4, 66, 0
6, 24478, Note_on_c, 4, 71, 0
6, 24480, Note_on_c, 4, 66, 110
6, 24480, Note_on_c, 4, 71, 110
6, 24574, Note_on_c, 4, 66, 0
6, 24574, Note_on_c, 4, 71, 0
6, 24576, Note_on_c, 4, 63, 110
6, 24576, Note_on_c, 4, 68, 110
6, 24622, Note_on_c, 4, 63, 0
6, 24622, Note_on_c, 4, 68, 0
6, 24624, Note_on_c, 4, 65, 110
6, 24624, Note_on_c, 4, 70, 110
6, 24766, Note_on_c, 4, 65, 0
6, 24766, Note_on_c, 4, 70, 0
6, 24864, Note_on_c, 4, 65, 110
6, 24864, Note_on_c, 4, 70, 110
6, 24910, Note_on_c, 4, 65, 0
6, 24910, Note_on_c, 4, 70, 0
6, 24912, Note_on_c, 4, 65, 110
6, 24912, Note_on_c, 4, 70, 110
6, 25006, Note_on_c, 4, 65, 0
6, 25006, Note_on_c, 4, 70, 0
6, 25008, Note_on_c, 4, 65, 110
6, 25008, Note_on_c, 4, 70, 110
6, 25054, Note_on_c, 4, 65, 0
6, 25054, Note_on_c, 4, 70, 0
6, 25056, Note_on_c, 4, 65, 110
6, 25056, Note_on_c, 4, 70, 110
6, 25150, Note_on_c, 4, 65, 0
6, 25150, Note_on_c, 4, 70, 0
6, 25152, Note_on_c, 4, 66, 110
6, 25152, Note_on_c, 4, 71, 110
6, 25246, Note_on_c, 4, 66, 0
6, 25246, Note_on_c, 4, 71, 0
6, 25248, Note_on_c, 4, 66, 110
6, 25248, Note_on_c, 4, 71, 110
6, 25342, Note_on_c, 4, 66, 0
6, 25342, Note_on_c, 4, 71, 0
6, 25344, Note_on_c, 4, 63, 110
6, 25344, Note_on_c, 4, 68, 110
6, 25390, Note_on_c, 4, 63, 0
6, 25390, Note_on_c, 4, 68, 0
6, 25392, Note_on_c, 4, 65, 110
6, 25392, Note_on_c, 4, 70, 110
6, 25534, Note_on_c, 4, 65, 0
6, 25534, Note_on_c, 4, 70, 0
6, 25632, Note_on_c, 4, 65, 110
6, 25632, Note_on_c, 4, 70, 110
6, 25678, Note_on_c, 4, 65, 0
6, 25678, Note_on_c, 4, 70, 0
6, 25680, Note_on_c, 4, 65, 110
6, 25680, Note_on_c, 4, 70, 110
6, 25774, Note_on_c, 4, 65, 0
6, 25774, Note_on_c, 4, 70, 0
6, 25776, Note_on_c, 4, 65, 110
6, 25776, Note_on_c, 4, 70, 110
6, 25822, Note_on_c, 4, 65, 0
6, 25822, Note_on_c, 4, 70, 0
6, 25824, Note_on_c, 4, 65, 110
6, 25824, Note_on_c, 4, 70, 110
6, 25918, Note_on_c, 4, 65, 0
6, 25918, Note_on_c, 4, 70, 0
6, 25920, Note_on_c, 4, 66, 110
6, 25920, Note_on_c, 4, 71, 110
6, 26014, Note_on_c, 4, 66, 0
6, 26014, Note_on_c, 4, 71, 0
6, 26016, Note_on_c, 4, 66, 110
6, 26016, Note_on_c, 4, 71, 110
6, 26110, Note_on_c, 4, 66, 0
6, 26110, Note_on_c, 4, 71, 0
6, 26112, Note_on_c, 4, 63, 110
6, 26112, Note_on_c, 4, 68, 110
6, 26158, Note_on_c, 4, 63, 0
6, 26158, Note_on_c, 4, 68, 0
6, 26160, Note_on_c, 4, 65, 110
6, 26160, Note_on_c, 4, 70, 110
6, 26302, Note_on_c, 4, 65, 0
6, 26302, Note_on_c, 4, 70, 0
6, 26400, Note_on_c, 4, 65, 110
6, 26400, Note_on_c, 4, 70, 110
6, 26446, Note_on_c, 4, 65, 0
6, 26446, Note_on_c, 4, 70, 0
6, 26448, Note_on_c, 4, 65, 110
6, 26448, Note_on_c, 4, 70, 110
6, 26542, Note_on_c, 4, 65, 0
6, 26542, Note_on_c, 4, 70, 0
6, 26544, Note_on_c, 4, 65, 110
6, 26544, Note_on_c, 4, 70, 110
6, 26590, Note_on_c, 4, 65, 0
6, 26590, Note_on_c, 4, 70, 0
6, 26592, Note_on_c, 4, 65, 110
6, 26592, Note_on_c, 4, 70, 110
6, 26686, Note_on_c, 4, 65, 0
6, 26686, Note_on_c, 4, 70, 0
6, 26688, Note_on_c, 4, 66, 110
6, 26688, Note_on_c, 4, 71, 110
6, 26782, Note_on_c, 4, 66, 0
6, 26782, Note_on_c, 4, 71, 0
6, 26784, Note_on_c, 4, 66, 110
6, 26784, Note_on_c, 4, 71, 110
6, 26878, Note_on_c, 4, 66, 0
6, 26878, Note_on_c, 4, 71, 0
6, 26880, Note_on_c, 4, 63, 110
6, 26880, Note_on_c, 4, 68, 110
6, 26926, Note_on_c, 4, 63, 0
6, 26926, Note_on_c, 4, 68, 0
6, 26928, Note_on_c, 4, 65, 110
6, 26928, Note_on_c, 4, 70, 110
6, 27070, Note_on_c, 4, 65, 0
6, 27070, Note_on_c, 4, 70, 0
6, 27168, Note_on_c, 4, 65, 110
6, 27168, Note_on_c, 4, 70, 110
6, 27214, Note_on_c, 4, 65, 0
6, 27214, Note_on_c, 4, 70, 0
6, 27216, Note_on_c, 4, 65, 110
6, 27216, Note_on_c, 4, 70, 110
6, 27310, Note_on_c, 4, 65, 0
6, 27310, Note_on_c, 4, 70, 0
6, 27312, Note_on_c, 4, 65, 110
6, 27312, Note_on_c, 4, 70, 110
6, 27358, Note_on_c, 4, 65, 0
6, 27358, Note_on_c, 4, 70, 0
6, 27360, Note_on_c, 4, 65, 110
6, 27360, Note_on_c, 4, 70, 110
6, 27454, Note_on_c, 4, 65, 0
6, 27454, Note_on_c, 4, 70, 0
6, 27456, Note_on_c, 4, 66, 110
6, 27456, Note_on_c, 4, 71, 110
6, 27550, Note_on_c, 4, 66, 0
6, 27550, Note_on_c, 4, 71, 0
6, 27552, Note_on_c, 4, 66, 110
6, 27552, Note_on_c, 4, 71, 110
6, 27646, Note_on_c, 4, 66, 0
6, 27646, Note_on_c, 4, 71, 0
6, 27648, Note_on_c, 4, 60, 110
6, 27648, Note_on_c, 4, 63, 110
6, 27648, Note_on_c, 4, 65, 110
6, 27648, Note_on_c, 4, 68, 110
6, 28368, Note_on_c, 4, 60, 0
6, 28368, Note_on_c, 4, 63, 0
6, 28368, Note_on_c, 4, 65, 0
6, 28368, Note_on_c, 4, 68, 0
6, 28416, Note_on_c, 4, 60, 110
6, 28416, Note_on_c, 4, 63, 110
6, 28416, Note_on_c, 4, 65, 110
6, 28416, Note_on_c, 4, 68, 110
6, 29136, Note_on_c, 4, 60, 0
6, 29136, Note_on_c, 4, 63, 0
6, 29136, Note_on_c, 4, 65, 0
6, 29136, Note_on_c, 4, 68, 0
6, 29184, Note_on_c, 4, 58, 110
6, 29184, Note_on_c, 4, 63, 110
6, 29184, Note_on_c, 4, 67, 110
6, 29520, Note_on_c, 4, 58, 0
6, 29520, Note_on_c, 4, 63, 0
6, 29520, Note_on_c, 4, 67, 0
6, 29568, Note_on_c, 4, 58, 110
6, 29568, Note_on_c, 4, 63, 110
6, 29568, Note_on_c, 4, 67, 110
6, 29824, Note_on_c, 4, 58, 0
6, 29824, Note_on_c, 4, 63, 0
6, 29824, Note_on_c, 4, 67, 0
6, 29856, Note_on_c, 4, 56, 110
6, 29856, Note_on_c, 4, 60, 110
6, 29856, Note_on_c, 4, 63, 110
6, 29856, Note_on_c, 4, 67, 110
6, 30672, Note_on_c, 4, 56, 0
6, 30672, Note_on_c, 4, 60, 0
6, 30672, Note_on_c, 4, 63, 0
6, 30672, Note_on_c, 4, 66, 0
6, 30720, Note_on_c, 4, 61, 110
6, 30720, Note_on_c, 4, 63, 110
6, 30720, Note_on_c, 4, 65, 110
6, 30720, Note_on_c, 4, 68, 110
6, 31056, Note_on_c, 4, 61, 0
6, 31056, Note_on_c, 4, 63, 0
6, 31056, Note_on_c, 4, 65, 0
6, 31056, Note_on_c, 4, 68, 0
6, 31104, Note_on_c, 4, 61, 110
6, 31104, Note_on_c, 4, 63, 110
6, 31104, Note_on_c, 4, 65, 110
6, 31104, Note_on_c, 4, 68, 110
6, 31360, Note_on_c, 4, 61, 0
6, 31360, Note_on_c, 4, 63, 0
6, 31360, Note_on_c, 4, 65, 0
6, 31360, Note_on_c, 4, 68, 0
6, 31392, Note_on_c, 4, 59, 110
6, 31392, Note_on_c, 4, 63, 110
6, 31392, Note_on_c, 4, 66, 110
6, 31392, Note_on_c, 4, 68, 110
6, 31744, Note_on_c, 4, 60, 0
6, 31744, Note_on_c, 4, 63, 0
6, 31744, Note_on_c, 4, 66, 0
6, 31744, Note_on_c, 4, 68, 0
6, 31776, Note_on_c, 4, 58, 110
6, 31776, Note_on_c, 4, 61, 110
6, 31776, Note_on_c, 4, 65, 110
6, 31776, Note_on_c, 4, 68, 110
6, 31870, Note_on_c, 4, 58, 0
6, 31870, Note_on_c, 4, 61, 0
6, 31870, Note_on_c, 4, 65, 0
6, 31870, Note_on_c, 4, 68, 0
6, 31872, Note_on_c, 4, 58, 110
6, 31872, Note_on_c, 4, 61, 110
6, 31872, Note_on_c, 4, 65, 110
6, 31872, Note_on_c, 4, 68, 110
6, 32208, Note_on_c, 4, 58, 0
6, 32208, Note_on_c, 4, 61, 0
6, 32208, Note_on_c, 4, 65, 0
6, 32208, Note_on_c, 4, 68, 0
6, 32256, Note_on_c, 4, 58, 110
6, 32256, Note_on_c, 4, 63, 110
6, 32256, Note_on_c, 4, 67, 110
6, 32896, Note_on_c, 4, 58, 0
6, 32896, Note_on_c, 4, 63, 0
6, 32896, Note_on_c, 4, 67, 0
6, 32928, Note_on_c, 4, 56, 110
6, 32928, Note_on_c, 4, 60, 110
6, 32928, Note_on_c, 4, 63, 110
6, 32928, Note_on_c, 4, 67, 110
6, 33744, Note_on_c, 4, 56, 0
6, 33744, Note_on_c, 4, 60, 0
6, 33744, Note_on_c, 4, 63, 0
6, 33744, Note_on_c, 4, 66, 0
6, 33792, Note_on_c, 4, 61, 110
6, 33792, Note_on_c, 4, 63, 110
6, 33792, Note_on_c, 4, 65, 110
6, 33792, Note_on_c, 4, 68, 110
6, 34432, Note_on_c, 4, 61, 0
6, 34432, Note_on_c, 4, 63, 0
6, 34432, Note_on_c, 4, 65, 0
6, 34432, Note_on_c, 4, 68, 0
6, 34464, Note_on_c, 4, 61, 110
6, 34464, Note_on_c, 4, 63, 110
6, 34464, Note_on_c, 4, 65, 110
6, 34464, Note_on_c, 4, 68, 110
6, 34816, Note_on_c, 4, 61, 0
6, 34816, Note_on_c, 4, 63, 0
6, 34816, Note_on_c, 4, 65, 0
6, 34816, Note_on_c, 4, 68, 0
6, 34848, Note_on_c, 4, 59, 110
6, 34848, Note_on_c, 4, 63, 110
6, 34848, Note_on_c, 4, 66, 110
6, 34848, Note_on_c, 4, 68, 110
6, 35280, Note_on_c, 4, 59, 0
6, 35280, Note_on_c, 4, 63, 0
6, 35280, Note_on_c, 4, 66, 0
6, 35280, Note_on_c, 4, 68, 0
6, 35328, Note_on_c, 4, 58, 110
6, 35422, Note_on_c, 4, 58, 0
6, 35424, Note_on_c, 4, 65, 110
6, 35518, Note_on_c, 4, 65, 0
6, 35520, Note_on_c, 4, 68, 110
6, 35614, Note_on_c, 4, 68, 0
6, 35616, Note_on_c, 4, 65, 110
6, 35662, Note_on_c, 4, 65, 0
6, 35664, Note_on_c, 4, 68, 110
6, 35806, Note_on_c, 4, 68, 0
6, 35808, Note_on_c, 4, 70, 110
6, 35968, Note_on_c, 4, 70, 0
6, 36000, Note_on_c, 4, 70, 110
6, 36094, Note_on_c, 4, 70, 0
6, 36096, Note_on_c, 4, 68, 110
6, 36190, Note_on_c, 4, 68, 0
6, 36192, Note_on_c, 4, 65, 110
6, 36238, Note_on_c, 4, 65, 0
6, 36240, Note_on_c, 4, 68, 110
6, 36382, Note_on_c, 4, 68, 0
6, 36384, Note_on_c, 4, 70, 110
6, 36816, Note_on_c, 4, 70, 0
6, 36864, Control_c, 4, 7, 91
6, 36864, Note_on_c, 4, 65, 110
6, 36864, Note_on_c, 4, 68, 110
6, 36864, Note_on_c, 4, 70, 110
6, 36864, Note_on_c, 4, 73, 110
6, 36958, Note_on_c, 4, 65, 0
6, 36958, Note_on_c, 4, 68, 0
6, 36958, Note_on_c, 4, 70, 0
6, 36958, Note_on_c, 4, 73, 0
6, 36960, Control_c, 4, 7, 66
6, 37008, Note_on_c, 4, 68, 110
6, 37054, Note_on_c, 4, 68, 0
6, 37056, Note_on_c, 4, 68, 110
6, 37198, Note_on_c, 4, 68, 0
6, 37200, Note_on_c, 4, 68, 110
6, 37246, Note_on_c, 4, 68, 0
6, 37248, Note_on_c, 4, 68, 110
6, 37390, Note_on_c, 4, 68, 0
6, 37392, Note_on_c, 4, 68, 110
6, 37438, Note_on_c, 4, 68, 0
6, 37440, Note_on_c, 4, 68, 110
6, 37582, Note_on_c, 4, 68, 0
6, 37584, Note_on_c, 4, 68, 110
6, 37630, Note_on_c, 4, 68, 0
6, 37632, Note_on_c, 4, 68, 110
6, 37774, Note_on_c, 4, 68, 0
6, 37776, Note_on_c, 4, 68, 110
6, 37822, Note_on_c, 4, 68, 0
6, 37824, Note_on_c, 4, 68, 110
6, 37966, Note_on_c, 4, 68, 0
6, 37968, Note_on_c, 4, 68, 110
6, 38014, Note_on_c, 4, 68, 0
6, 38016, Note_on_c, 4, 68, 110
6, 38062, Note_on_c, 4, 68, 0
6, 38064, Note_on_c, 4, 70, 110
6, 38158, Note_on_c, 4, 70, 0
6, 38160, Note_on_c, 4, 72, 110
6, 38206, Note_on_c, 4, 72, 0
6, 38400, Control_c, 4, 7, 91
6, 38400, Note_on_c, 4, 65, 110
6, 38400, Note_on_c, 4, 68, 110
6, 38400, Note_on_c, 4, 70, 110
6, 38400, Note_on_c, 4, 73, 110
6, 38494, Note_on_c, 4, 65, 0
6, 38494, Note_on_c, 4, 68, 0
6, 38494, Note_on_c, 4, 70, 0
6, 38494, Note_on_c, 4, 73, 0
6, 38496, Control_c, 4, 7, 66
6, 38544, Note_on_c, 4, 68, 110
6, 38590, Note_on_c, 4, 68, 0
6, 38592, Note_on_c, 4, 68, 110
6, 38734, Note_on_c, 4, 68, 0
6, 38736, Note_on_c, 4, 68, 110
6, 38782, Note_on_c, 4, 68, 0
6, 38784, Note_on_c, 4, 68, 110
6, 38926, Note_on_c, 4, 68, 0
6, 38928, Note_on_c, 4, 68, 110
6, 38974, Note_on_c, 4, 68, 0
6, 38976, Note_on_c, 4, 68, 110
6, 39118, Note_on_c, 4, 68, 0
6, 39120, Note_on_c, 4, 68, 110
6, 39166, Note_on_c, 4, 68, 0
6, 39168, Note_on_c, 4, 68, 110
6, 39310, Note_on_c, 4, 68, 0
6, 39312, Note_on_c, 4, 68, 110
6, 39358, Note_on_c, 4, 68, 0
6, 39360, Note_on_c, 4, 68, 110
6, 39454, Note_on_c, 4, 68, 0
6, 39456, Note_on_c, 4, 68, 110
6, 39502, Note_on_c, 4, 68, 0
6, 39504, Note_on_c, 4, 68, 110
6, 39550, Note_on_c, 4, 68, 0
6, 39552, Note_on_c, 4, 68, 110
6, 39598, Note_on_c, 4, 68, 0
6, 39600, Note_on_c, 4, 67, 110
6, 39694, Note_on_c, 4, 67, 0
6, 39696, Note_on_c, 4, 65, 110
6, 39742, Note_on_c, 4, 65, 0
6, 39888, Note_on_c, 4, 68, 110
6, 39934, Note_on_c, 4, 68, 0
6, 39936, Control_c, 4, 7, 91
6, 39936, Note_on_c, 4, 65, 110
6, 39936, Note_on_c, 4, 68, 110
6, 39936, Note_on_c, 4, 70, 110
6, 39936, Note_on_c, 4, 73, 110
6, 40030, Note_on_c, 4, 65, 0
6, 40030, Note_on_c, 4, 68, 0
6, 40030, Note_on_c, 4, 70, 0
6, 40030, Note_on_c, 4, 73, 0
6, 40032, Control_c, 4, 7, 66
6, 40080, Note_on_c, 4, 68, 110
6, 40126, Note_on_c, 4, 68, 0
6, 40128, Note_on_c, 4, 68, 110
6, 40270, Note_on_c, 4, 68, 0
6, 40272, Note_on_c, 4, 68, 110
6, 40318, Note_on_c, 4, 68, 0
6, 40320, Note_on_c, 4, 68, 110
6, 40462, Note_on_c, 4, 68, 0
6, 40464, Note_on_c, 4, 68, 110
6, 40510, Note_on_c, 4, 68, 0
6, 40512, Note_on_c, 4, 68, 110
6, 40654, Note_on_c, 4, 68, 0
6, 40656, Note_on_c, 4, 68, 110
6, 40702, Note_on_c, 4, 68, 0
6, 40704, Note_on_c, 4, 68, 110
6, 40846, Note_on_c, 4, 68, 0
6, 40848, Note_on_c, 4, 68, 110
6, 40894, Note_on_c, 4, 68, 0
6, 40896, Note_on_c, 4, 68, 110
6, 41038, Note_on_c, 4, 68, 0
6, 41040, Note_on_c, 4, 68, 110
6, 41086, Note_on_c, 4, 68, 0
6, 41088, Note_on_c, 4, 68, 110
6, 41134, Note_on_c, 4, 68, 0
6, 41136, Note_on_c, 4, 70, 110
6, 41230, Note_on_c, 4, 70, 0
6, 41232, Note_on_c, 4, 72, 110
6, 41278, Note_on_c, 4, 72, 0
6, 41472, Note_on_c, 4, 63, 110
6, 41518, Note_on_c, 4, 63, 0
6, 41520, Note_on_c, 4, 65, 110
6, 42192, Note_on_c, 4, 65, 0
6, 42240, Note_on_c, 4, 60, 110
6, 42240, Note_on_c, 4, 63, 110
6, 42240, Note_on_c, 4, 65, 110
6, 42240, Note_on_c, 4, 68, 110
6, 42960, Note_on_c, 4, 60, 0
6, 42960, Note_on_c, 4, 63, 0
6, 42960, Note_on_c, 4, 65, 0
6, 42960, Note_on_c, 4, 68, 0
6, 43008, Note_on_c, 4, 63, 110
6, 43008, Note_on_c, 4, 68, 110
6, 43054, Note_on_c, 4, 63, 0
6, 43054, Note_on_c, 4, 68, 0
6, 43056, Note_on_c, 4, 65, 110
6, 43056, Note_on_c, 4, 70, 110
6, 43198, Note_on_c, 4, 65, 0
6, 43198, Note_on_c, 4, 70, 0
6, 43296, Note_on_c, 4, 65, 110
6, 43296, Note_on_c, 4, 70, 110
6, 43342, Note_on_c, 4, 65, 0
6, 43342, Note_on_c, 4, 70, 0
6, 43344, Note_on_c, 4, 65, 110
6, 43344, Note_on_c, 4, 70, 110
6, 43438, Note_on_c, 4, 65, 0
6, 43438, Note_on_c, 4, 70, 0
6, 43440, Note_on_c, 4, 65, 110
6, 43440, Note_on_c, 4, 70, 110
6, 43486, Note_on_c, 4, 65, 0
6, 43486, Note_on_c, 4, 70, 0
6, 43488, Note_on_c, 4, 65, 110
6, 43488, Note_on_c, 4, 70, 110
6, 43582, Note_on_c, 4, 65, 0
6, 43582, Note_on_c, 4, 70, 0
6, 43584, Note_on_c, 4, 66, 110
6, 43584, Note_on_c, 4, 71, 110
6, 43678, Note_on_c, 4, 66, 0
6, 43678, Note_on_c, 4, 71, 0
6, 43680, Note_on_c, 4, 66, 110
6, 43680, Note_on_c, 4, 71, 110
6, 43774, Note_on_c, 4, 66, 0
6, 43774, Note_on_c, 4, 71, 0
6, 43776, Note_on_c, 4, 63, 110
6, 43776, Note_on_c, 4, 68, 110
6, 43822, Note_on_c, 4, 63, 0
6, 43822, Note_on_c, 4, 68, 0
6, 43824, Note_on_c, 4, 65, 110
6, 43824, Note_on_c, 4, 70, 110
6, 43966, Note_on_c, 4, 65, 0
6, 43966, Note_on_c, 4, 70, 0
6, 44064, Note_on_c, 4, 65, 110
6, 44064, Note_on_c, 4, 70, 110
6, 44110, Note_on_c, 4, 65, 0
6, 44110, Note_on_c, 4, 70, 0
6, 44112, Note_on_c, 4, 65, 110
6, 44112, Note_on_c, 4, 70, 110
6, 44206, Note_on_c, 4, 65, 0
6, 44206, Note_on_c, 4, 70, 0
6, 44208, Note_on_c, 4, 65, 110
6, 44208, Note_on_c, 4, 70, 110
6, 44254, Note_on_c, 4, 65, 0
6, 44254, Note_on_c, 4, 70, 0
6, 44256, Note_on_c, 4, 65, 110
6, 44256, Note_on_c, 4, 70, 110
6, 44350, Note_on_c, 4, 65, 0
6, 44350, Note_on_c, 4, 70, 0
6, 44352, Note_on_c, 4, 66, 110
6, 44352, Note_on_c, 4, 71, 110
6, 44446, Note_on_c, 4, 66, 0
6, 44446, Note_on_c, 4, 71, 0
6, 44448, Note_on_c, 4, 66, 110
6, 44448, Note_on_c, 4, 71, 110
6, 44542, Note_on_c, 4, 66, 0
6, 44542, Note_on_c, 4, 71, 0
6, 44544, Note_on_c, 4, 63, 110
6, 44544, Note_on_c, 4, 68, 110
6, 44590, Note_on_c, 4, 63, 0
6, 44590, Note_on_c, 4, 68, 0
6, 44592, Note_on_c, 4, 65, 110
6, 44592, Note_on_c, 4, 70, 110
6, 44734, Note_on_c, 4, 65, 0
6, 44734, Note_on_c, 4, 70, 0
6, 44832, Note_on_c, 4, 65, 110
6, 44832, Note_on_c, 4, 70, 110
6, 44878, Note_on_c, 4, 65, 0
6, 44878, Note_on_c, 4, 70, 0
6, 44880, Note_on_c, 4, 65, 110
6, 44880, Note_on_c, 4, 70, 110
6, 44974, Note_on_c, 4, 65, 0
6, 44974, Note_on_c, 4, 70, 0
6, 44976, Note_on_c, 4, 65, 110
6, 44976, Note_on_c, 4, 70, 110
6, 45022, Note_on_c, 4, 65, 0
6, 45022, Note_on_c, 4, 70, 0
6, 45024, Note_on_c, 4, 65, 110
6, 45024, Note_on_c, 4, 70, 110
6, 45118, Note_on_c, 4, 65, 0
6, 45118, Note_on_c, 4, 70, 0
6, 45120, Note_on_c, 4, 66, 110
6, 45120, Note_on_c, 4, 71, 110
6, 45214, Note_on_c, 4, 66, 0
6, 45214, Note_on_c, 4, 71, 0
6, 45216, Note_on_c, 4, 66, 110
6, 45216, Note_on_c, 4, 71, 110
6, 45310, Note_on_c, 4, 66, 0
6, 45310, Note_on_c, 4, 71, 0
6, 45312, Note_on_c, 4, 63, 110
6, 45312, Note_on_c, 4, 68, 110
6, 45358, Note_on_c, 4, 63, 0
6, 45358, Note_on_c, 4, 68, 0
6, 45360, Note_on_c, 4, 65, 110
6, 45360, Note_on_c, 4, 70, 110
6, 45502, Note_on_c, 4, 65, 0
6, 45502, Note_on_c, 4, 70, 0
6, 45600, Note_on_c, 4, 65, 110
6, 45600, Note_on_c, 4, 70, 110
6, 45646, Note_on_c, 4, 65, 0
6, 45646, Note_on_c, 4, 70, 0
6, 45648, Note_on_c, 4, 65, 110
6, 45648, Note_on_c, 4, 70, 110
6, 45742, Note_on_c, 4, 65, 0
6, 45742, Note_on_c, 4, 70, 0
6, 45744, Note_on_c, 4, 65, 110
6, 45744, Note_on_c, 4, 70, 110
6, 45790, Note_on_c, 4, 65, 0
6, 45790, Note_on_c, 4, 70, 0
6, 45792, Note_on_c, 4, 65, 110
6, 45792, Note_on_c, 4, 70, 110
6, 45886, Note_on_c, 4, 65, 0
6, 45886, Note_on_c, 4, 70, 0
6, 45888, Note_on_c, 4, 66, 110
6, 45888, Note_on_c, 4, 71, 110
6, 45982, Note_on_c, 4, 66, 0
6, 45982, Note_on_c, 4, 71, 0
6, 45984, Note_on_c, 4, 66, 110
6, 45984, Note_on_c, 4, 71, 110
6, 46078, Note_on_c, 4, 66, 0
6, 46078, Note_on_c, 4, 71, 0
6, 46080, Note_on_c, 4, 63, 110
6, 46080, Note_on_c, 4, 68, 110
6, 46126, Note_on_c, 4, 63, 0
6, 46126, Note_on_c, 4, 68, 0
6, 46128, Note_on_c, 4, 65, 110
6, 46128, Note_on_c, 4, 70, 110
6, 46270, Note_on_c, 4, 65, 0
6, 46270, Note_on_c, 4, 70, 0
6, 46368, Note_on_c, 4, 65, 110
6, 46368, Note_on_c, 4, 70, 110
6, 46414, Note_on_c, 4, 65, 0
6, 46414, Note_on_c, 4, 70, 0
6, 46416, Note_on_c, 4, 65, 110
6, 46416, Note_on_c, 4, 70, 110
6, 46510, Note_on_c, 4, 65, 0
6, 46510, Note_on_c, 4, 70, 0
6, 46512, Note_on_c, 4, 65, 110
6, 46512, Note_on_c, 4, 70, 110
6, 46558, Note_on_c, 4, 65, 0
6, 46558, Note_on_c, 4, 70, 0
6, 46560, Note_on_c, 4, 65, 110
6, 46560, Note_on_c, 4, 70, 110
6, 46654, Note_on_c, 4, 65, 0
6, 46654, Note_on_c, 4, 70, 0
6, 46656, Note_on_c, 4, 66, 110
6, 46656, Note_on_c, 4, 71, 110
6, 46750, Note_on_c, 4, 66, 0
6, 46750, Note_on_c, 4, 71, 0
6, 46752, Note_on_c, 4, 66, 110
6, 46752, Note_on_c, 4, 71, 110
6, 46846, Note_on_c, 4, 66, 0
6, 46846, Note_on_c, 4, 71, 0
6, 46848, Note_on_c, 4, 63, 110
6, 46848, Note_on_c, 4, 68, 110
6, 46894, Note_on_c, 4, 63, 0
6, 46894, Note_on_c, 4, 68, 0
6, 46896, Note_on_c, 4, 65, 110
6, 46896, Note_on_c, 4, 70, 110
6, 47038, Note_on_c, 4, 65, 0
6, 47038, Note_on_c, 4, 70, 0
6, 47136, Note_on_c, 4, 65, 110
6, 47136, Note_on_c, 4, 70, 110
6, 47182, Note_on_c, 4, 65, 0
6, 47182, Note_on_c, 4, 70, 0
6, 47184, Note_on_c, 4, 65, 110
6, 47184, Note_on_c, 4, 70, 110
6, 47278, Note_on_c, 4, 65, 0
6, 47278, Note_on_c, 4, 70, 0
6, 47280, Note_on_c, 4, 65, 110
6, 47280, Note_on_c, 4, 70, 110
6, 47326, Note_on_c, 4, 65, 0
6, 47326, Note_on_c, 4, 70, 0
6, 47328, Note_on_c, 4, 65, 110
6, 47328, Note_on_c, 4, 70, 110
6, 47422, Note_on_c, 4, 65, 0
6, 47422, Note_on_c, 4, 70, 0
6, 47424, Note_on_c, 4, 66, 110
6, 47424, Note_on_c, 4, 71, 110
6, 47518, Note_on_c, 4, 66, 0
6, 47518, Note_on_c, 4, 71, 0
6, 47520, Note_on_c, 4, 66, 110
6, 47520, Note_on_c, 4, 71, 110
6, 47614, Note_on_c, 4, 66, 0
6, 47614, Note_on_c, 4, 71, 0
6, 47616, Note_on_c, 4, 60, 110
6, 47616, Note_on_c, 4, 63, 110
6, 47616, Note_on_c, 4, 65, 110
6, 47616, Note_on_c, 4, 68, 110
6, 48336, Note_on_c, 4, 60, 0
6, 48336, Note_on_c, 4, 63, 0
6, 48336, Note_on_c, 4, 65, 0
6, 48336, Note_on_c, 4, 68, 0
6, 48384, Note_on_c, 4, 60, 110
6, 48384, Note_on_c, 4, 63, 110
6, 48384, Note_on_c, 4, 65, 110
6, 48384, Note_on_c, 4, 68, 110
6, 49104, Note_on_c, 4, 60, 0
6, 49104, Note_on_c, 4, 63, 0
6, 49104, Note_on_c, 4, 65, 0
6, 49104, Note_on_c, 4, 68, 0
6, 49152, Note_on_c, 4, 58, 110
6, 49152, Note_on_c, 4, 63, 110
6, 49152, Note_on_c, 4, 67, 110
6, 49488, Note_on_c, 4, 58, 0
6, 49488, Note_on_c, 4, 63, 0
6, 49488, Note_on_c, 4, 67, 0
6, 49536, Note_on_c, 4, 58, 110
6, 49536, Note_on_c, 4, 63, 110
6, 49536, Note_on_c, 4, 67, 110
6, 49792, Note_on_c, 4, 58, 0
6, 49792, Note_on_c, 4, 63, 0
6, 49792, Note_on_c, 4, 67, 0
6, 49824, Note_on_c, 4, 56, 110
6, 49824, Note_on_c, 4, 60, 110
6, 49824, Note_on_c, 4, 63, 110
6, 49824, Note_on_c, 4, 67, 110
6, 50640, Note_on_c, 4, 56, 0
6, 50640, Note_on_c, 4, 60, 0
6, 50640, Note_on_c, 4, 63, 0
6, 50640, Note_on_c, 4, 66, 0
6, 50688, Note_on_c, 4, 61, 110
6, 50688, Note_on_c, 4, 63, 110
6, 50688, Note_on_c, 4, 65, 110
6, 50688, Note_on_c, 4, 68, 110
6, 51024, Note_on_c, 4, 61, 0
6, 51024, Note_on_c, 4, 63, 0
6, 51024, Note_on_c, 4, 65, 0
6, 51024, Note_on_c, 4, 68, 0
6, 51072, Note_on_c, 4, 61, 110
6, 51072, Note_on_c, 4, 63, 110
6, 51072, Note_on_c, 4, 65, 110
6, 51072, Note_on_c, 4, 68, 110
6, 51328, Note_on_c, 4, 61, 0
6, 51328, Note_on_c, 4, 63, 0
6, 51328, Note_on_c, 4, 65, 0
6, 51328, Note_on_c, 4, 68, 0
6, 51360, Note_on_c, 4, 59, 110
6, 51360, Note_on_c, 4, 63, 110
6, 51360, Note_on_c, 4, 66, 110
6, 51360, Note_on_c, 4, 68, 110
6, 51712, Note_on_c, 4, 60, 0
6, 51712, Note_on_c, 4, 63, 0
6, 51712, Note_on_c, 4, 66, 0
6, 51712, Note_on_c, 4, 68, 0
6, 51744, Note_on_c, 4, 58, 110
6, 51744, Note_on_c, 4, 61, 110
6, 51744, Note_on_c, 4, 65, 110
6, 51744, Note_on_c, 4, 68, 110
6, 51838, Note_on_c, 4, 58, 0
6, 51838, Note_on_c, 4, 61, 0
6, 51838, Note_on_c, 4, 65, 0
6, 51838, Note_on_c, 4, 68, 0
6, 51840, Note_on_c, 4, 58, 110
6, 51840, Note_on_c, 4, 61, 110
6, 51840, Note_on_c, 4, 65, 110
6, 51840, Note_on_c, 4, 68, 110
6, 52176, Note_on_c, 4, 58, 0
6, 52176, Note_on_c, 4, 61, 0
6, 52176, Note_on_c, 4, 65, 0
6, 52176, Note_on_c, 4, 68, 0
6, 52224, Note_on_c, 4, 58, 110
6, 52224, Note_on_c, 4, 63, 110
6, 52224, Note_on_c, 4, 67, 110
6, 52864, Note_on_c, 4, 58, 0
6, 52864, Note_on_c, 4, 63, 0
6, 52864, Note_on_c, 4, 67, 0
6, 52896, Note_on_c, 4, 56, 110
6, 52896, Note_on_c, 4, 60, 110
6, 52896, Note_on_c, 4, 63, 110
6, 52896, Note_on_c, 4, 67, 110
6, 53712, Note_on_c, 4, 56, 0
6, 53712, Note_on_c, 4, 60, 0
6, 53712, Note_on_c, 4, 63, 0
6, 53712, Note_on_c, 4, 66, 0
6, 53760, Note_on_c, 4, 61, 110
6, 53760, Note_on_c, 4, 63, 110
6, 53760, Note_on_c, 4, 65, 110
6, 53760, Note_on_c, 4, 68, 110
6, 54400, Note_on_c, 4, 61, 0
6, 54400, Note_on_c, 4, 63, 0
6, 54400, Note_on_c, 4, 65, 0
6, 54400, Note_on_c, 4, 68, 0
6, 54432, Note_on_c, 4, 61, 110
6, 54432, Note_on_c, 4, 63, 110
6, 54432, Note_on_c, 4, 65, 110
6, 54432, Note_on_c, 4, 68, 110
6, 54784, Note_on_c, 4, 61, 0
6, 54784, Note_on_c, 4, 63, 0
6, 54784, Note_on_c, 4, 65, 0
6, 54784, Note_on_c, 4, 68, 0
6, 54816, Note_on_c, 4, 59, 110
6, 54816, Note_on_c, 4, 63, 110
6, 54816, Note_on_c, 4, 66, 110
6, 54816, Note_on_c, 4, 68, 110
6, 55248, Note_on_c, 4, 59, 0
6, 55248, Note_on_c, 4, 63, 0
6, 55248, Note_on_c, 4, 66, 0
6, 55248, Note_on_c, 4, 68, 0
6, 55296, Note_on_c, 4, 58, 110
6, 55296, Note_on_c, 4, 63, 110
6, 55296, Note_on_c, 4, 67, 110
6, 55936, Note_on_c, 4, 58, 0
6, 55936, Note_on_c, 4, 63, 0
6, 55936, Note_on_c, 4, 67, 0
6, 55968, Note_on_c, 4, 60, 110
6, 55968, Note_on_c, 4, 63, 110
6, 55968, Note_on_c, 4, 67, 110
6, 55968, Note_on_c, 4, 70, 110
6, 56784, Note_on_c, 4, 60, 0
6, 56784, Note_on_c, 4, 63, 0
6, 56784, Note_on_c, 4, 66, 0
6, 56784, Note_on_c, 4, 70, 0
6, 56832, Note_on_c, 4, 58, 110
6, 56832, Note_on_c, 4, 63, 110
6, 56832, Note_on_c, 4, 67, 110
6, 57472, Note_on_c, 4, 58, 0
6, 57472, Note_on_c, 4, 63, 0
6, 57472, Note_on_c, 4, 67, 0
6, 57504, Note_on_c, 4, 59, 110
6, 57504, Note_on_c, 4, 63, 110
6, 57504, Note_on_c, 4, 66, 110
6, 57504, Note_on_c, 4, 68, 110
6, 57856, Note_on_c, 4, 60, 0
6, 57856, Note_on_c, 4, 63, 0
6, 57856, Note_on_c, 4, 66, 0
6, 57856, Note_on_c, 4, 68, 0
6, 57888, Note_on_c, 4, 58, 110
6, 57888, Note_on_c, 4, 61, 110
6, 57888, Note_on_c, 4, 65, 110
6, 57888, Note_on_c, 4, 68, 110
6, 58320, Note_on_c, 4, 58, 0
6, 58320, Note_on_c, 4, 61, 0
6, 58320, Note_on_c, 4, 65, 0
6, 58320, Note_on_c, 4, 68, 0
6, 58368, Note_on_c, 4, 63, 110
6, 58368, Note_on_c, 4, 65, 110
6, 58368, Note_on_c, 4, 67, 110
6, 58368, Note_on_c, 4, 70, 110
6, 59008, Note_on_c, 4, 63, 0
6, 59008, Note_on_c, 4, 65, 0
6, 59008, Note_on_c, 4, 67, 0
6, 59008, Note_on_c, 4, 70, 0
6, 59040, Note_on_c, 4, 60, 110
6, 59040, Note_on_c, 4, 63, 110
6, 59040, Note_on_c, 4, 67, 110
6, 59040, Note_on_c, 4, 70, 110
6, 59664, Note_on_c, 4, 60, 0
6, 59664, Note_on_c, 4, 63, 0
6, 59664, Note_on_c, 4, 66, 0
6, 59664, Note_on_c, 4, 70, 0
6, 59904, Note_on_c, 4, 61, 110
6, 60064, Note_on_c, 4, 61, 0
6, 60096, Note_on_c, 4, 71, 110
6, 60190, Note_on_c, 4, 71, 0
6, 60192, Note_on_c, 4, 68, 110
6, 60286, Note_on_c, 4, 68, 0
6, 60288, Note_on_c, 4, 61, 110
6, 60382, Note_on_c, 4, 61, 0
6, 60384, Note_on_c, 4, 73, 110
6, 60478, Note_on_c, 4, 73, 0
6, 60480, Note_on_c, 4, 68, 110
6, 60574, Note_on_c, 4, 68, 0
6, 60576, Note_on_c, 4, 61, 110
6, 60670, Note_on_c, 4, 61, 0
6, 60672, Note_on_c, 4, 71, 110
6, 60766, Note_on_c, 4, 71, 0
6, 60768, Note_on_c, 4, 68, 110
6, 60862, Note_on_c, 4, 68, 0
6, 60864, Note_on_c, 4, 61, 110
6, 60958, Note_on_c, 4, 61, 0
6, 60960, Note_on_c, 4, 73, 110
6, 61054, Note_on_c, 4, 73, 0
6, 61056, Note_on_c, 4, 68, 110
6, 61150, Note_on_c, 4, 68, 0
6, 61152, Note_on_c, 4, 61, 110
6, 61246, Note_on_c, 4, 61, 0
6, 61248, Note_on_c, 4, 71, 110
6, 61342, Note_on_c, 4, 71, 0
6, 61344, Note_on_c, 4, 68, 110
6, 61438, Note_on_c, 4, 68, 0
6, 61440, Note_on_c, 4, 61, 110
6, 61534, Note_on_c, 4, 61, 0
6, 61536, Note_on_c, 4, 73, 110
6, 61630, Note_on_c, 4, 73, 0
6, 61632, Note_on_c, 4, 68, 110
6, 61726, Note_on_c, 4, 68, 0
6, 61728, Note_on_c, 4, 61, 110
6, 61822, Note_on_c, 4, 61, 0
6, 61824, Note_on_c, 4, 71, 110
6, 61918, Note_on_c, 4, 71, 0
6, 61920, Note_on_c, 4, 68, 110
6, 62014, Note_on_c, 4, 68, 0
6, 62016, Note_on_c, 4, 61, 110
6, 62110, Note_on_c, 4, 61, 0
6, 62112, Note_on_c, 4, 73, 110
6, 62206, Note_on_c, 4, 73, 0
6, 62208, Note_on_c, 4, 61, 110
6, 62368, Note_on_c, 4, 61, 0
6, 62400, Note_on_c, 4, 71, 110
6, 62494, Note_on_c, 4, 71, 0
6, 62496, Note_on_c, 4, 68, 110
6, 62590, Note_on_c, 4, 68, 0
6, 62592, Note_on_c, 4, 61, 110
6, 62686, Note_on_c, 4, 61, 0
6, 62688, Note_on_c, 4, 73, 110
6, 62782, Note_on_c, 4, 73, 0
6, 62784, Note_on_c, 4, 68, 110
6, 62878, Note_on_c, 4, 68, 0
6, 62880, Note_on_c, 4, 61, 110
6, 62974, Note_on_c, 4, 61, 0
6, 62976, Note_on_c, 4, 71, 110
6, 63070, Note_on_c, 4, 71, 0
6, 63072, Note_on_c, 4, 68, 110
6, 63166, Note_on_c, 4, 68, 0
6, 63168, Note_on_c, 4, 61, 110
6, 63262, Note_on_c, 4, 61, 0
6, 63264, Note_on_c, 4, 73, 110
6, 63358, Note_on_c, 4, 73, 0
6, 63360, Note_on_c, 4, 68, 110
6, 63454, Note_on_c, 4, 68, 0
6, 63456, Note_on_c, 4, 61, 110
6, 63550, Note_on_c, 4, 61, 0
6, 63552, Note_on_c, 4, 71, 110
6, 63646, Note_on_c, 4, 71, 0
6, 63648, Note_on_c, 4, 68, 110
6, 63742, Note_on_c, 4, 68, 0
6, 63744, Note_on_c, 4, 61, 110
6, 63838, Note_on_c, 4, 61, 0
6, 63840, Note_on_c, 4, 73, 110
6, 63934, Note_on_c, 4, 73, 0
6, 63936, Note_on_c, 4, 68, 110
6, 64030, Note_on_c, 4, 68, 0
6, 64032, Note_on_c, 4, 61, 110
6, 64126, Note_on_c, 4, 61, 0
6, 64128, Note_on_c, 4, 71, 110
6, 64222, Note_on_c, 4, 71, 0
6, 64224, Note_on_c, 4, 68, 110
6, 64318, Note_on_c, 4, 68, 0
6, 64320, Note_on_c, 4, 61, 110
6, 64414, Note_on_c, 4, 61, 0
6, 64416, Note_on_c, 4, 73, 110
6, 64510, Note_on_c, 4, 73, 0
6, 64512, Note_on_c, 4, 68, 110
6, 64606, Note_on_c, 4, 68, 0
6, 64608, Note_on_c, 4, 61, 110
6, 64702, Note_on_c, 4, 61, 0
6, 64704, Note_on_c, 4, 71, 110
6, 64798, Note_on_c, 4, 71, 0
6, 64800, Note_on_c, 4, 68, 110
6, 64894, Note_on_c, 4, 68, 0
6, 64896, Note_on_c, 4, 61, 110
6, 65056, Note_on_c, 4, 61, 0
6, 65088, Note_on_c, 4, 71, 110
6, 65248, Note_on_c, 4, 71, 0
6, 65280, Note_on_c, 4, 59, 110
6, 65280, Note_on_c, 4, 62, 110
6, 65280, Note_on_c, 4, 66, 110
6, 65280, Note_on_c, 4, 69, 110
6, 66000, Note_on_c, 4, 59, 0
6, 66000, Note_on_c, 4, 62, 0
6, 66000, Note_on_c, 4, 66, 0
6, 66000, Note_on_c, 4, 69, 0
6, 66048, Note_on_c, 4, 59, 110
6, 66048, Note_on_c, 4, 62, 110
6, 66048, Note_on_c, 4, 66, 110
6, 66048, Note_on_c, 4, 69, 110
6, 66768, Note_on_c, 4, 59, 0
6, 66768, Note_on_c, 4, 62, 0
6, 66768, Note_on_c, 4, 66, 0
6, 66768, Note_on_c, 4, 69, 0
6, 66816, Note_on_c, 4, 59, 110
6, 66816, Note_on_c, 4, 62, 110
6, 66816, Note_on_c, 4, 64, 110
6, 66816, Note_on_c, 4, 68, 110
6, 67536, Note_on_c, 4, 59, 0
6, 67536, Note_on_c, 4, 62, 0
6, 67536, Note_on_c, 4, 64, 0
6, 67536, Note_on_c, 4, 68, 0
6, 67584, Note_on_c, 4, 59, 110
6, 67584, Note_on_c, 4, 62, 110
6, 67584, Note_on_c, 4, 64, 110
6, 67584, Note_on_c, 4, 68, 110
6, 67840, Note_on_c, 4, 68, 0
6, 67872, Note_on_c, 4, 68, 110
6, 67918, Note_on_c, 4, 68, 0
6, 67920, Note_on_c, 4, 69, 110
6, 67966, Note_on_c, 4, 69, 0
6, 67968, Note_on_c, 4, 71, 110
6, 68224, Note_on_c, 4, 71, 0
6, 68256, Note_on_c, 4, 69, 110
6, 68302, Note_on_c, 4, 69, 0
6, 68304, Note_on_c, 4, 59, 0
6, 68304, Note_on_c, 4, 62, 0
6, 68304, Note_on_c, 4, 64, 0
6, 68304, Note_on_c, 4, 68, 110
6, 68350, Note_on_c, 4, 68, 0
6, 68352, Note_on_c, 4, 58, 110
6, 68352, Note_on_c, 4, 61, 110
6, 68352, Note_on_c, 4, 68, 110
6, 68512, Note_on_c, 4, 68, 0
6, 68544, Note_on_c, 4, 66, 110
6, 68688, Note_on_c, 4, 58, 0
6, 68688, Note_on_c, 4, 61, 0
6, 68736, Note_on_c, 4, 58, 110
6, 68736, Note_on_c, 4, 61, 110
6, 68992, Note_on_c, 4, 58, 0
6, 68992, Note_on_c, 4, 61, 0
6, 68992, Note_on_c, 4, 66, 0
6, 69024, Note_on_c, 4, 59, 110
6, 69024, Note_on_c, 4, 63, 110
6, 69024, Note_on_c, 4, 66, 110
6, 69024, Note_on_c, 4, 70, 110
6, 69840, Note_on_c, 4, 59, 0
6, 69840, Note_on_c, 4, 63, 0
6, 69840, Note_on_c, 4, 66, 0
6, 69840, Note_on_c, 4, 70, 0
6, 69840, End_track
0, 0, End_of_file
