0, 0, Header, 1, 24, 120
1, 0, Start_track
1, 0, MIDI_port, 0
1, 0, System_exclusive, 5, 126, 127, 9, 1, 247
1, 0, MIDI_port, 0
1, 0, Time_signature, 4, 2, 24, 8
1, 0, Key_signature, 0, "major"
1, 0, Tempo, 618557
1, 15360, Marker_t, "2"
1, 24960, Marker_t, "br"
1, 24960, End_track
2, 0, Start_track
2, 0, MIDI_port, 0
2, 0, Program_c, 0, 34
2, 0, Control_c, 0, 7, 125
2, 0, Control_c, 0, 10, 64
2, 0, Control_c, 0, 1, 0
2, 10, Control_c, 0, 8, 64
2, 20, Control_c, 0, 11, 64
2, 120, Control_c, 0, 65, 0
2, 120, Control_c, 0, 67, 0
2, 120, Control_c, 0, 93, 0
2, 120, Control_c, 0, 91, 64
2, 120, Control_c, 0, 64, 0
2, 120, Pitch_bend_c, 0, 8192
2, 120, Control_c, 0, 68, 0
2, 720, Note_on_c, 0, 31, 120
2, 775, Note_on_c, 0, 31, 0
2, 780, Note_on_c, 0, 33, 120
2, 835, Note_on_c, 0, 33, 0
2, 840, Note_on_c, 0, 36, 120
2, 895, Note_on_c, 0, 36, 0
2, 900, Note_on_c, 0, 40, 120
2, 955, Note_on_c, 0, 40, 0
2, 960, Note_on_c, 0, 38, 120
2, 1320, Note_on_c, 0, 38, 0
2, 1380, Note_on_c, 0, 33, 120
2, 1403, Note_on_c, 0, 33, 0
2, 1410, Note_on_c, 0, 36, 120
2, 1433, Note_on_c, 0, 36, 0
2, 1440, Note_on_c, 0, 38, 120
2, 1680, Note_on_c, 0, 38, 0
2, 1680, Note_on_c, 0, 31, 120
2, 1735, Note_on_c, 0, 31, 0
2, 1740, Note_on_c, 0, 33, 120
2, 1795, Note_on_c, 0, 33, 0
2, 1800, Note_on_c, 0, 36, 120
2, 1855, Note_on_c, 0, 36, 0
2, 1860, Note_on_c, 0, 43, 120
2, 1915, Note_on_c, 0, 43, 0
2, 1920, Note_on_c, 0, 36, 120
2, 2280, Note_on_c, 0, 36, 0
2, 2340, Note_on_c, 0, 33, 120
2, 2580, Note_on_c, 0, 33, 0
2, 2640, Note_on_c, 0, 33, 120
2, 2730, Note_on_c, 0, 33, 0
2, 2730, Note_on_c, 0, 33, 120
2, 2785, Note_on_c, 0, 33, 0
2, 2790, Note_on_c, 0, 33, 120
2, 2815, Note_on_c, 0, 33, 0
2, 2820, Note_on_c, 0, 31, 120
2, 2875, Note_on_c, 0, 31, 0
2, 2880, Note_on_c, 0, 29, 120
2, 3060, Note_on_c, 0, 29, 0
2, 3090, Note_on_c, 0, 29, 120
2, 3110, Note_on_c, 0, 29, 0
2, 3120, Note_on_c, 0, 40, 120
2, 3200, Note_on_c, 0, 40, 0
2, 3210, Note_on_c, 0, 38, 120
2, 3265, Note_on_c, 0, 38, 0
2, 3300, Note_on_c, 0, 38, 120
2, 3540, Note_on_c, 0, 38, 0
2, 3570, Note_on_c, 0, 33, 120
2, 3595, Note_on_c, 0, 33, 0
2, 3600, Note_on_c, 0, 38, 120
2, 3655, Note_on_c, 0, 38, 0
2, 3660, Note_on_c, 0, 36, 120
2, 3690, Pitch_bend_c, 0, 16383
2, 3705, Pitch_bend_c, 0, 8192
2, 3715, Note_on_c, 0, 36, 0
2, 3720, Note_on_c, 0, 33, 120
2, 3775, Note_on_c, 0, 33, 0
2, 3780, Note_on_c, 0, 36, 120
2, 3800, Note_on_c, 0, 36, 0
2, 3810, Note_on_c, 0, 36, 120
2, 3830, Note_on_c, 0, 36, 0
2, 3840, Note_on_c, 0, 41, 120
2, 4020, Note_on_c, 0, 41, 0
2, 4050, Note_on_c, 0, 41, 120
2, 4070, Note_on_c, 0, 41, 0
2, 4080, Note_on_c, 0, 40, 120
2, 4160, Note_on_c, 0, 40, 0
2, 4170, Note_on_c, 0, 38, 120
2, 4225, Note_on_c, 0, 38, 0
2, 4260, Note_on_c, 0, 38, 120
2, 4500, Note_on_c, 0, 38, 0
2, 4530, Note_on_c, 0, 38, 120
2, 4550, Note_on_c, 0, 38, 0
2, 4560, Note_on_c, 0, 38, 120
2, 4580, Note_on_c, 0, 38, 0
2, 4590, Note_on_c, 0, 38, 120
2, 4645, Note_on_c, 0, 38, 0
2, 4650, Note_on_c, 0, 36, 120
2, 4705, Note_on_c, 0, 36, 0
2, 4710, Note_on_c, 0, 36, 120
2, 4730, Note_on_c, 0, 36, 0
2, 4740, Note_on_c, 0, 33, 120
2, 4795, Note_on_c, 0, 33, 0
2, 4800, Note_on_c, 0, 29, 120
2, 4980, Note_on_c, 0, 29, 0
2, 5010, Note_on_c, 0, 29, 120
2, 5030, Note_on_c, 0, 29, 0
2, 5040, Note_on_c, 0, 40, 120
2, 5120, Note_on_c, 0, 40, 0
2, 5130, Note_on_c, 0, 38, 120
2, 5185, Note_on_c, 0, 38, 0
2, 5220, Note_on_c, 0, 31, 120
2, 5460, Note_on_c, 0, 31, 0
2, 5460, Note_on_c, 0, 31, 120
2, 5515, Note_on_c, 0, 31, 0
2, 5520, Note_on_c, 0, 43, 120
2, 5620, Note_on_c, 0, 43, 0
2, 5640, Note_on_c, 0, 43, 120
2, 5695, Note_on_c, 0, 43, 0
2, 5700, Note_on_c, 0, 43, 120
2, 5755, Note_on_c, 0, 43, 0
2, 5760, Note_on_c, 0, 38, 120
2, 5940, Note_on_c, 0, 38, 0
2, 5970, Note_on_c, 0, 38, 120
2, 5985, Note_on_c, 0, 38, 0
2, 6000, Note_on_c, 0, 38, 120
2, 6055, Note_on_c, 0, 38, 0
2, 6060, Note_on_c, 0, 38, 120
2, 6140, Note_on_c, 0, 38, 0
2, 6150, Note_on_c, 0, 38, 120
2, 6170, Note_on_c, 0, 38, 0
2, 6180, Note_on_c, 0, 40, 120
2, 6240, Note_on_c, 0, 40, 0
2, 6240, Note_on_c, 0, 33, 120
2, 6420, Note_on_c, 0, 33, 0
2, 6450, Note_on_c, 0, 33, 120
2, 6465, Note_on_c, 0, 33, 0
2, 6480, Note_on_c, 0, 33, 120
2, 6535, Note_on_c, 0, 33, 0
2, 6540, Note_on_c, 0, 33, 120
2, 6620, Note_on_c, 0, 33, 0
2, 6630, Note_on_c, 0, 33, 120
2, 6650, Note_on_c, 0, 33, 0
2, 6660, Note_on_c, 0, 36, 120
2, 6720, Note_on_c, 0, 36, 0
2, 6720, Note_on_c, 0, 38, 120
2, 6900, Note_on_c, 0, 38, 0
2, 6930, Note_on_c, 0, 38, 120
2, 6945, Note_on_c, 0, 38, 0
2, 6960, Note_on_c, 0, 38, 120
2, 7015, Note_on_c, 0, 38, 0
2, 7020, Note_on_c, 0, 38, 120
2, 7100, Note_on_c, 0, 38, 0
2, 7110, Note_on_c, 0, 38, 120
2, 7135, Note_on_c, 0, 38, 0
2, 7140, Note_on_c, 0, 43, 120
2, 7200, Note_on_c, 0, 43, 0
2, 7200, Note_on_c, 0, 45, 120
2, 7380, Note_on_c, 0, 45, 0
2, 7410, Note_on_c, 0, 45, 120
2, 7425, Note_on_c, 0, 45, 0
2, 7440, Note_on_c, 0, 45, 120
2, 7495, Note_on_c, 0, 45, 0
2, 7500, Note_on_c, 0, 43, 120
2, 7555, Note_on_c, 0, 43, 0
2, 7560, Note_on_c, 0, 40, 120
2, 7615, Note_on_c, 0, 40, 0
2, 7620, Note_on_c, 0, 33, 120
2, 7680, Note_on_c, 0, 33, 0
2, 7680, Note_on_c, 0, 38, 120
2, 7860, Note_on_c, 0, 38, 0
2, 7890, Note_on_c, 0, 38, 120
2, 7905, Note_on_c, 0, 38, 0
2, 7920, Note_on_c, 0, 38, 120
2, 7975, Note_on_c, 0, 38, 0
2, 7980, Note_on_c, 0, 38, 120
2, 8080, Note_on_c, 0, 38, 0
2, 8100, Note_on_c, 0, 40, 120
2, 8160, Note_on_c, 0, 40, 0
2, 8160, Note_on_c, 0, 33, 120
2, 8340, Note_on_c, 0, 33, 0
2, 8370, Note_on_c, 0, 33, 120
2, 8385, Note_on_c, 0, 33, 0
2, 8400, Note_on_c, 0, 33, 120
2, 8455, Note_on_c, 0, 33, 0
2, 8460, Note_on_c, 0, 33, 120
2, 8540, Note_on_c, 0, 33, 0
2, 8550, Note_on_c, 0, 33, 120
2, 8570, Note_on_c, 0, 33, 0
2, 8580, Note_on_c, 0, 36, 120
2, 8640, Note_on_c, 0, 36, 0
2, 8640, Note_on_c, 0, 38, 120
2, 8820, Note_on_c, 0, 38, 0
2, 8850, Note_on_c, 0, 38, 120
2, 8865, Note_on_c, 0, 38, 0
2, 8880, Note_on_c, 0, 38, 120
2, 8935, Note_on_c, 0, 38, 0
2, 8940, Note_on_c, 0, 38, 120
2, 9020, Note_on_c, 0, 38, 0
2, 9030, Note_on_c, 0, 38, 120
2, 9050, Note_on_c, 0, 38, 0
2, 9060, Note_on_c, 0, 38, 120
2, 9120, Note_on_c, 0, 38, 0
2, 9120, Note_on_c, 0, 43, 120
2, 9300, Note_on_c, 0, 43, 0
2, 9300, Note_on_c, 0, 43, 120
2, 9355, Note_on_c, 0, 43, 0
2, 9360, Note_on_c, 0, 31, 120
2, 9415, Note_on_c, 0, 31, 0
2, 9420, Note_on_c, 0, 38, 120
2, 9475, Note_on_c, 0, 38, 0
2, 9480, Note_on_c, 0, 43, 120
2, 9535, Note_on_c, 0, 43, 0
2, 9540, Note_on_c, 0, 42, 120
2, 9595, Note_on_c, 0, 42, 0
2, 9600, Note_on_c, 0, 41, 120
2, 9780, Note_on_c, 0, 41, 0
2, 9810, Note_on_c, 0, 41, 120
2, 9830, Note_on_c, 0, 41, 0
2, 9840, Note_on_c, 0, 40, 120
2, 9895, Note_on_c, 0, 40, 0
2, 9900, Note_on_c, 0, 40, 120
2, 10020, Note_on_c, 0, 40, 0
2, 10020, Note_on_c, 0, 38, 120
2, 10140, Note_on_c, 0, 38, 0
2, 10140, Note_on_c, 0, 38, 120
2, 10180, Note_on_c, 0, 38, 0
2, 10290, Note_on_c, 0, 33, 120
2, 10310, Note_on_c, 0, 33, 0
2, 10320, Note_on_c, 0, 38, 120
2, 10375, Note_on_c, 0, 38, 0
2, 10380, Note_on_c, 0, 40, 120
2, 10435, Note_on_c, 0, 40, 0
2, 10440, Note_on_c, 0, 41, 120
2, 10465, Note_on_c, 0, 41, 0
2, 10470, Note_on_c, 0, 43, 120
2, 10490, Note_on_c, 0, 43, 0
2, 10500, Note_on_c, 0, 45, 120
2, 10560, Note_on_c, 0, 45, 0
2, 10560, Note_on_c, 0, 46, 120
2, 10735, Note_on_c, 0, 46, 0
2, 10740, Note_on_c, 0, 46, 120
2, 10795, Note_on_c, 0, 46, 0
2, 10800, Note_on_c, 0, 45, 120
2, 10855, Note_on_c, 0, 45, 0
2, 10860, Note_on_c, 0, 38, 120
2, 10915, Note_on_c, 0, 38, 0
2, 10920, Note_on_c, 0, 40, 120
2, 10945, Note_on_c, 0, 40, 0
2, 10980, Note_on_c, 0, 31, 120
2, 11100, Note_on_c, 0, 31, 0
2, 11100, Note_on_c, 0, 31, 120
2, 11155, Note_on_c, 0, 31, 0
2, 11160, Note_on_c, 0, 31, 120
2, 11215, Note_on_c, 0, 31, 0
2, 11220, Note_on_c, 0, 43, 120
2, 11240, Note_on_c, 0, 43, 0
2, 11250, Note_on_c, 0, 43, 120
2, 11270, Note_on_c, 0, 43, 0
2, 11280, Note_on_c, 0, 43, 120
2, 11340, Note_on_c, 0, 43, 0
2, 11340, Note_on_c, 0, 43, 120
2, 11360, Note_on_c, 0, 43, 0
2, 11370, Note_on_c, 0, 43, 120
2, 11390, Note_on_c, 0, 43, 0
2, 11400, Note_on_c, 0, 43, 120
2, 11425, Note_on_c, 0, 43, 0
2, 11430, Note_on_c, 0, 43, 120
2, 11455, Note_on_c, 0, 43, 0
2, 11460, Note_on_c, 0, 43, 120
2, 11485, Note_on_c, 0, 43, 0
2, 11490, Note_on_c, 0, 45, 120
2, 11515, Note_on_c, 0, 45, 0
2, 11520, Note_on_c, 0, 41, 120
2, 11700, Note_on_c, 0, 41, 0
2, 11700, Note_on_c, 0, 41, 120
2, 11720, Note_on_c, 0, 41, 0
2, 11730, Note_on_c, 0, 41, 120
2, 11750, Note_on_c, 0, 41, 0
2, 11760, Note_on_c, 0, 40, 120
2, 11840, Note_on_c, 0, 40, 0
2, 11850, Note_on_c, 0, 38, 120
2, 11905, Note_on_c, 0, 38, 0
2, 11940, Note_on_c, 0, 38, 120
2, 12060, Note_on_c, 0, 38, 0
2, 12060, Note_on_c, 0, 50, 120
2, 12080, Note_on_c, 0, 50, 0
2, 12090, Note_on_c, 0, 48, 120
2, 12110, Note_on_c, 0, 48, 0
2, 12120, Note_on_c, 0, 50, 120
2, 12200, Note_on_c, 0, 50, 0
2, 12210, Note_on_c, 0, 50, 120
2, 12230, Note_on_c, 0, 50, 0
2, 12240, Note_on_c, 0, 50, 120
2, 12280, Note_on_c, 0, 50, 0
2, 12300, Note_on_c, 0, 50, 120
2, 12325, Note_on_c, 0, 50, 0
2, 12330, Note_on_c, 0, 45, 120
2, 12385, Note_on_c, 0, 45, 0
2, 12390, Note_on_c, 0, 45, 120
2, 12410, Note_on_c, 0, 45, 0
2, 12420, Note_on_c, 0, 43, 120
2, 12480, Note_on_c, 0, 43, 0
2, 12480, Note_on_c, 0, 41, 120
2, 12660, Note_on_c, 0, 41, 0
2, 12660, Note_on_c, 0, 41, 120
2, 12680, Note_on_c, 0, 41, 0
2, 12690, Note_on_c, 0, 41, 120
2, 12710, Note_on_c, 0, 41, 0
2, 12720, Note_on_c, 0, 40, 120
2, 12800, Note_on_c, 0, 40, 0
2, 12810, Note_on_c, 0, 38, 120
2, 12865, Note_on_c, 0, 38, 0
2, 12900, Note_on_c, 0, 38, 120
2, 13020, Note_on_c, 0, 38, 0
2, 13020, Note_on_c, 0, 50, 120
2, 13040, Note_on_c, 0, 50, 0
2, 13050, Note_on_c, 0, 48, 120
2, 13070, Note_on_c, 0, 48, 0
2, 13080, Note_on_c, 0, 50, 120
2, 13160, Note_on_c, 0, 50, 0
2, 13170, Note_on_c, 0, 50, 120
2, 13190, Note_on_c, 0, 50, 0
2, 13200, Note_on_c, 0, 50, 120
2, 13240, Note_on_c, 0, 50, 0
2, 13260, Note_on_c, 0, 50, 120
2, 13285, Note_on_c, 0, 50, 0
2, 13290, Note_on_c, 0, 45, 120
2, 13345, Note_on_c, 0, 45, 0
2, 13350, Note_on_c, 0, 45, 120
2, 13370, Note_on_c, 0, 45, 0
2, 13380, Note_on_c, 0, 43, 120
2, 13440, Note_on_c, 0, 43, 0
2, 13440, Note_on_c, 0, 41, 120
2, 13620, Note_on_c, 0, 41, 0
2, 13650, Note_on_c, 0, 41, 120
2, 13670, Note_on_c, 0, 41, 0
2, 13680, Note_on_c, 0, 40, 120
2, 13760, Note_on_c, 0, 40, 0
2, 13770, Note_on_c, 0, 38, 120
2, 13825, Note_on_c, 0, 38, 0
2, 13860, Note_on_c, 0, 38, 120
2, 14100, Note_on_c, 0, 38, 0
2, 14130, Note_on_c, 0, 38, 120
2, 14150, Note_on_c, 0, 38, 0
2, 14160, Note_on_c, 0, 38, 120
2, 14180, Note_on_c, 0, 38, 0
2, 14190, Note_on_c, 0, 38, 120
2, 14245, Note_on_c, 0, 38, 0
2, 14250, Note_on_c, 0, 36, 120
2, 14305, Note_on_c, 0, 36, 0
2, 14310, Note_on_c, 0, 36, 120
2, 14330, Note_on_c, 0, 36, 0
2, 14340, Note_on_c, 0, 33, 120
2, 14395, Note_on_c, 0, 33, 0
2, 14400, Note_on_c, 0, 29, 120
2, 14580, Note_on_c, 0, 29, 0
2, 14610, Note_on_c, 0, 29, 120
2, 14630, Note_on_c, 0, 29, 0
2, 14640, Note_on_c, 0, 40, 120
2, 14720, Note_on_c, 0, 40, 0
2, 14730, Note_on_c, 0, 38, 120
2, 14785, Note_on_c, 0, 38, 0
2, 14820, Note_on_c, 0, 31, 120
2, 14940, Note_on_c, 0, 31, 0
2, 14940, Note_on_c, 0, 31, 120
2, 14990, Note_on_c, 0, 31, 0
2, 15000, Note_on_c, 0, 31, 120
2, 15050, Note_on_c, 0, 31, 0
2, 15060, Note_on_c, 0, 31, 120
2, 15110, Note_on_c, 0, 31, 0
2, 15120, Note_on_c, 0, 43, 120
2, 15220, Note_on_c, 0, 43, 0
2, 15240, Note_on_c, 0, 36, 120
2, 15295, Note_on_c, 0, 36, 0
2, 15300, Note_on_c, 0, 37, 120
2, 15355, Note_on_c, 0, 37, 0
2, 15360, Note_on_c, 0, 38, 120
2, 15540, Note_on_c, 0, 38, 0
2, 15570, Note_on_c, 0, 38, 120
2, 15585, Note_on_c, 0, 38, 0
2, 15600, Note_on_c, 0, 38, 120
2, 15655, Note_on_c, 0, 38, 0
2, 15660, Note_on_c, 0, 38, 120
2, 15740, Note_on_c, 0, 38, 0
2, 15750, Note_on_c, 0, 38, 120
2, 15770, Note_on_c, 0, 38, 0
2, 15780, Note_on_c, 0, 40, 120
2, 15840, Note_on_c, 0, 40, 0
2, 15840, Note_on_c, 0, 33, 120
2, 16020, Note_on_c, 0, 33, 0
2, 16050, Note_on_c, 0, 33, 120
2, 16065, Note_on_c, 0, 33, 0
2, 16080, Note_on_c, 0, 33, 120
2, 16135, Note_on_c, 0, 33, 0
2, 16140, Note_on_c, 0, 33, 120
2, 16220, Note_on_c, 0, 33, 0
2, 16230, Note_on_c, 0, 33, 120
2, 16250, Note_on_c, 0, 33, 0
2, 16260, Note_on_c, 0, 36, 120
2, 16320, Note_on_c, 0, 36, 0
2, 16320, Note_on_c, 0, 38, 120
2, 16500, Note_on_c, 0, 38, 0
2, 16530, Note_on_c, 0, 38, 120
2, 16545, Note_on_c, 0, 38, 0
2, 16560, Note_on_c, 0, 38, 120
2, 16615, Note_on_c, 0, 38, 0
2, 16620, Note_on_c, 0, 38, 120
2, 16700, Note_on_c, 0, 38, 0
2, 16710, Note_on_c, 0, 38, 120
2, 16735, Note_on_c, 0, 38, 0
2, 16740, Note_on_c, 0, 43, 120
2, 16800, Note_on_c, 0, 43, 0
2, 16800, Note_on_c, 0, 45, 120
2, 16980, Note_on_c, 0, 45, 0
2, 17010, Note_on_c, 0, 45, 120
2, 17025, Note_on_c, 0, 45, 0
2, 17040, Note_on_c, 0, 45, 120
2, 17095, Note_on_c, 0, 45, 0
2, 17100, Note_on_c, 0, 43, 120
2, 17155, Note_on_c, 0, 43, 0
2, 17160, Note_on_c, 0, 40, 120
2, 17215, Note_on_c, 0, 40, 0
2, 17220, Note_on_c, 0, 33, 120
2, 17280, Note_on_c, 0, 33, 0
2, 17280, Note_on_c, 0, 38, 120
2, 17460, Note_on_c, 0, 38, 0
2, 17490, Note_on_c, 0, 38, 120
2, 17505, Note_on_c, 0, 38, 0
2, 17520, Note_on_c, 0, 38, 120
2, 17575, Note_on_c, 0, 38, 0
2, 17580, Note_on_c, 0, 38, 120
2, 17680, Note_on_c, 0, 38, 0
2, 17700, Note_on_c, 0, 40, 120
2, 17760, Note_on_c, 0, 40, 0
2, 17760, Note_on_c, 0, 33, 120
2, 17940, Note_on_c, 0, 33, 0
2, 17970, Note_on_c, 0, 33, 120
2, 17985, Note_on_c, 0, 33, 0
2, 18000, Note_on_c, 0, 33, 120
2, 18055, Note_on_c, 0, 33, 0
2, 18060, Note_on_c, 0, 33, 120
2, 18140, Note_on_c, 0, 33, 0
2, 18150, Note_on_c, 0, 33, 120
2, 18170, Note_on_c, 0, 33, 0
2, 18180, Note_on_c, 0, 36, 120
2, 18240, Note_on_c, 0, 36, 0
2, 18240, Note_on_c, 0, 38, 120
2, 18420, Note_on_c, 0, 38, 0
2, 18450, Note_on_c, 0, 38, 120
2, 18465, Note_on_c, 0, 38, 0
2, 18480, Note_on_c, 0, 38, 120
2, 18535, Note_on_c, 0, 38, 0
2, 18540, Note_on_c, 0, 38, 120
2, 18620, Note_on_c, 0, 38, 0
2, 18630, Note_on_c, 0, 38, 120
2, 18650, Note_on_c, 0, 38, 0
2, 18660, Note_on_c, 0, 38, 120
2, 18720, Note_on_c, 0, 38, 0
2, 18720, Note_on_c, 0, 43, 120
2, 18900, Note_on_c, 0, 43, 0
2, 18900, Note_on_c, 0, 43, 120
2, 18955, Note_on_c, 0, 43, 0
2, 18960, Note_on_c, 0, 31, 120
2, 19015, Note_on_c, 0, 31, 0
2, 19020, Note_on_c, 0, 38, 120
2, 19075, Note_on_c, 0, 38, 0
2, 19080, Note_on_c, 0, 43, 120
2, 19135, Note_on_c, 0, 43, 0
2, 19140, Note_on_c, 0, 42, 120
2, 19195, Note_on_c, 0, 42, 0
2, 19200, Note_on_c, 0, 41, 120
2, 19380, Note_on_c, 0, 41, 0
2, 19410, Note_on_c, 0, 41, 120
2, 19430, Note_on_c, 0, 41, 0
2, 19440, Note_on_c, 0, 40, 120
2, 19495, Note_on_c, 0, 40, 0
2, 19500, Note_on_c, 0, 40, 120
2, 19620, Note_on_c, 0, 40, 0
2, 19620, Note_on_c, 0, 38, 120
2, 19740, Note_on_c, 0, 38, 0
2, 19740, Note_on_c, 0, 38, 120
2, 19780, Note_on_c, 0, 38, 0
2, 19890, Note_on_c, 0, 33, 120
2, 19910, Note_on_c, 0, 33, 0
2, 19920, Note_on_c, 0, 38, 120
2, 19975, Note_on_c, 0, 38, 0
2, 19980, Note_on_c, 0, 40, 120
2, 20035, Note_on_c, 0, 40, 0
2, 20040, Note_on_c, 0, 41, 120
2, 20065, Note_on_c, 0, 41, 0
2, 20070, Note_on_c, 0, 43, 120
2, 20090, Note_on_c, 0, 43, 0
2, 20100, Note_on_c, 0, 45, 120
2, 20160, Note_on_c, 0, 45, 0
2, 20160, Note_on_c, 0, 46, 120
2, 20335, Note_on_c, 0, 46, 0
2, 20340, Note_on_c, 0, 46, 120
2, 20395, Note_on_c, 0, 46, 0
2, 20400, Note_on_c, 0, 45, 120
2, 20455, Note_on_c, 0, 45, 0
2, 20460, Note_on_c, 0, 38, 120
2, 20515, Note_on_c, 0, 38, 0
2, 20520, Note_on_c, 0, 40, 120
2, 20545, Note_on_c, 0, 40, 0
2, 20580, Note_on_c, 0, 31, 120
2, 20700, Note_on_c, 0, 31, 0
2, 20700, Note_on_c, 0, 31, 120
2, 20755, Note_on_c, 0, 31, 0
2, 20760, Note_on_c, 0, 31, 120
2, 20815, Note_on_c, 0, 31, 0
2, 20820, Note_on_c, 0, 43, 120
2, 20840, Note_on_c, 0, 43, 0
2, 20850, Note_on_c, 0, 43, 120
2, 20870, Note_on_c, 0, 43, 0
2, 20880, Note_on_c, 0, 43, 120
2, 20940, Note_on_c, 0, 43, 0
2, 20940, Note_on_c, 0, 43, 120
2, 20960, Note_on_c, 0, 43, 0
2, 20970, Note_on_c, 0, 43, 120
2, 20990, Note_on_c, 0, 43, 0
2, 21000, Note_on_c, 0, 43, 120
2, 21025, Note_on_c, 0, 43, 0
2, 21030, Note_on_c, 0, 43, 120
2, 21055, Note_on_c, 0, 43, 0
2, 21060, Note_on_c, 0, 43, 120
2, 21085, Note_on_c, 0, 43, 0
2, 21090, Note_on_c, 0, 45, 120
2, 21115, Note_on_c, 0, 45, 0
2, 21120, Note_on_c, 0, 41, 120
2, 21300, Note_on_c, 0, 41, 0
2, 21300, Note_on_c, 0, 41, 120
2, 21320, Note_on_c, 0, 41, 0
2, 21330, Note_on_c, 0, 41, 120
2, 21350, Note_on_c, 0, 41, 0
2, 21360, Note_on_c, 0, 40, 120
2, 21440, Note_on_c, 0, 40, 0
2, 21450, Note_on_c, 0, 38, 120
2, 21505, Note_on_c, 0, 38, 0
2, 21540, Note_on_c, 0, 38, 120
2, 21660, Note_on_c, 0, 38, 0
2, 21660, Note_on_c, 0, 50, 120
2, 21680, Note_on_c, 0, 50, 0
2, 21690, Note_on_c, 0, 48, 120
2, 21710, Note_on_c, 0, 48, 0
2, 21720, Note_on_c, 0, 50, 120
2, 21800, Note_on_c, 0, 50, 0
2, 21810, Note_on_c, 0, 50, 120
2, 21830, Note_on_c, 0, 50, 0
2, 21840, Note_on_c, 0, 50, 120
2, 21880, Note_on_c, 0, 50, 0
2, 21900, Note_on_c, 0, 50, 120
2, 21925, Note_on_c, 0, 50, 0
2, 21930, Note_on_c, 0, 45, 120
2, 21985, Note_on_c, 0, 45, 0
2, 21990, Note_on_c, 0, 45, 120
2, 22010, Note_on_c, 0, 45, 0
2, 22020, Note_on_c, 0, 43, 120
2, 22080, Note_on_c, 0, 43, 0
2, 22080, Note_on_c, 0, 41, 120
2, 22260, Note_on_c, 0, 41, 0
2, 22260, Note_on_c, 0, 41, 120
2, 22280, Note_on_c, 0, 41, 0
2, 22290, Note_on_c, 0, 41, 120
2, 22310, Note_on_c, 0, 41, 0
2, 22320, Note_on_c, 0, 40, 120
2, 22400, Note_on_c, 0, 40, 0
2, 22410, Note_on_c, 0, 38, 120
2, 22465, Note_on_c, 0, 38, 0
2, 22500, Note_on_c, 0, 38, 120
2, 22620, Note_on_c, 0, 38, 0
2, 22620, Note_on_c, 0, 50, 120
2, 22640, Note_on_c, 0, 50, 0
2, 22650, Note_on_c, 0, 48, 120
2, 22670, Note_on_c, 0, 48, 0
2, 22680, Note_on_c, 0, 50, 120
2, 22760, Note_on_c, 0, 50, 0
2, 22770, Note_on_c, 0, 50, 120
2, 22790, Note_on_c, 0, 50, 0
2, 22800, Note_on_c, 0, 50, 120
2, 22840, Note_on_c, 0, 50, 0
2, 22860, Note_on_c, 0, 50, 120
2, 22885, Note_on_c, 0, 50, 0
2, 22890, Note_on_c, 0, 45, 120
2, 22945, Note_on_c, 0, 45, 0
2, 22950, Note_on_c, 0, 45, 120
2, 22970, Note_on_c, 0, 45, 0
2, 22980, Note_on_c, 0, 43, 120
2, 23040, Note_on_c, 0, 43, 0
2, 23040, Note_on_c, 0, 41, 120
2, 23220, Note_on_c, 0, 41, 0
2, 23250, Note_on_c, 0, 41, 120
2, 23270, Note_on_c, 0, 41, 0
2, 23280, Note_on_c, 0, 40, 120
2, 23360, Note_on_c, 0, 40, 0
2, 23370, Note_on_c, 0, 38, 120
2, 23425, Note_on_c, 0, 38, 0
2, 23460, Note_on_c, 0, 38, 120
2, 23700, Note_on_c, 0, 38, 0
2, 23730, Note_on_c, 0, 38, 120
2, 23750, Note_on_c, 0, 38, 0
2, 23760, Note_on_c, 0, 38, 120
2, 23780, Note_on_c, 0, 38, 0
2, 23790, Note_on_c, 0, 38, 120
2, 23845, Note_on_c, 0, 38, 0
2, 23850, Note_on_c, 0, 36, 120
2, 23905, Note_on_c, 0, 36, 0
2, 23910, Note_on_c, 0, 36, 120
2, 23930, Note_on_c, 0, 36, 0
2, 23940, Note_on_c, 0, 33, 120
2, 23995, Note_on_c, 0, 33, 0
2, 24000, Note_on_c, 0, 29, 120
2, 24180, Note_on_c, 0, 29, 0
2, 24210, Note_on_c, 0, 29, 120
2, 24230, Note_on_c, 0, 29, 0
2, 24240, Note_on_c, 0, 40, 120
2, 24320, Note_on_c, 0, 40, 0
2, 24330, Note_on_c, 0, 38, 120
2, 24385, Note_on_c, 0, 38, 0
2, 24420, Note_on_c, 0, 31, 120
2, 24540, Note_on_c, 0, 31, 0
2, 24540, Note_on_c, 0, 31, 120
2, 24590, Note_on_c, 0, 31, 0
2, 24600, Note_on_c, 0, 31, 120
2, 24650, Note_on_c, 0, 31, 0
2, 24660, Note_on_c, 0, 31, 120
2, 24710, Note_on_c, 0, 31, 0
2, 24720, Note_on_c, 0, 43, 120
2, 24820, Note_on_c, 0, 43, 0
2, 24840, Note_on_c, 0, 36, 120
2, 24895, Note_on_c, 0, 36, 0
2, 24900, Note_on_c, 0, 37, 120
2, 24955, Note_on_c, 0, 37, 0
2, 24960, Note_on_c, 0, 38, 120
2, 25140, Note_on_c, 0, 38, 0
2, 25170, Note_on_c, 0, 45, 120
2, 25190, Note_on_c, 0, 45, 0
2, 25200, Note_on_c, 0, 50, 120
2, 25255, Note_on_c, 0, 50, 0
2, 25260, Note_on_c, 0, 50, 120
2, 25360, Note_on_c, 0, 50, 0
2, 25380, Note_on_c, 0, 33, 120
2, 25403, Note_on_c, 0, 33, 0
2, 25410, Note_on_c, 0, 36, 120
2, 25433, Note_on_c, 0, 36, 0
2, 25440, Note_on_c, 0, 38, 120
2, 25495, Note_on_c, 0, 38, 0
2, 25500, Note_on_c, 0, 38, 120
2, 25600, Note_on_c, 0, 38, 0
2, 25620, Note_on_c, 0, 38, 120
2, 25640, Note_on_c, 0, 38, 0
2, 25650, Note_on_c, 0, 38, 120
2, 25670, Note_on_c, 0, 38, 0
2, 25680, Note_on_c, 0, 38, 120
2, 25735, Note_on_c, 0, 38, 0
2, 25740, Note_on_c, 0, 38, 120
2, 25795, Note_on_c, 0, 38, 0
2, 25800, Note_on_c, 0, 36, 120
2, 25855, Note_on_c, 0, 36, 0
2, 25860, Note_on_c, 0, 43, 120
2, 25915, Note_on_c, 0, 43, 0
2, 25920, Note_on_c, 0, 36, 120
2, 26100, Note_on_c, 0, 36, 0
2, 26130, Note_on_c, 0, 43, 120
2, 26150, Note_on_c, 0, 43, 0
2, 26160, Note_on_c, 0, 48, 120
2, 26215, Note_on_c, 0, 48, 0
2, 26220, Note_on_c, 0, 48, 120
2, 26320, Note_on_c, 0, 48, 0
2, 26340, Note_on_c, 0, 31, 120
2, 26363, Note_on_c, 0, 31, 0
2, 26370, Note_on_c, 0, 33, 120
2, 26393, Note_on_c, 0, 33, 0
2, 26400, Note_on_c, 0, 36, 120
2, 26455, Note_on_c, 0, 36, 0
2, 26460, Note_on_c, 0, 36, 120
2, 26560, Note_on_c, 0, 36, 0
2, 26580, Note_on_c, 0, 36, 120
2, 26600, Note_on_c, 0, 36, 0
2, 26610, Note_on_c, 0, 36, 120
2, 26630, Note_on_c, 0, 36, 0
2, 26640, Note_on_c, 0, 36, 120
2, 26695, Note_on_c, 0, 36, 0
2, 26700, Note_on_c, 0, 36, 120
2, 26755, Note_on_c, 0, 36, 0
2, 26760, Note_on_c, 0, 31, 120
2, 26815, Note_on_c, 0, 31, 0
2, 26820, Note_on_c, 0, 33, 120
2, 26875, Note_on_c, 0, 33, 0
2, 26880, Note_on_c, 0, 38, 120
2, 27060, Note_on_c, 0, 38, 0
2, 27090, Note_on_c, 0, 45, 120
2, 27110, Note_on_c, 0, 45, 0
2, 27120, Pitch_bend_c, 0, 8192
2, 27120, Note_on_c, 0, 48, 120
2, 27121, Pitch_bend_c, 0, 8602
2, 27122, Pitch_bend_c, 0, 9012
2, 27123, Pitch_bend_c, 0, 9421
2, 27124, Pitch_bend_c, 0, 9831
2, 27125, Pitch_bend_c, 0, 10240
2, 27126, Pitch_bend_c, 0, 10650
2, 27127, Pitch_bend_c, 0, 11059
2, 27128, Pitch_bend_c, 0, 11469
2, 27129, Pitch_bend_c, 0, 11878
2, 27130, Pitch_bend_c, 0, 12288
2, 27131, Pitch_bend_c, 0, 12698
2, 27132, Pitch_bend_c, 0, 13107
2, 27133, Pitch_bend_c, 0, 13517
2, 27134, Pitch_bend_c, 0, 13926
2, 27135, Pitch_bend_c, 0, 14336
2, 27136, Pitch_bend_c, 0, 14745
2, 27137, Pitch_bend_c, 0, 15155
2, 27138, Pitch_bend_c, 0, 15564
2, 27139, Pitch_bend_c, 0, 15974
2, 27140, Pitch_bend_c, 0, 16383
2, 27200, Note_on_c, 0, 48, 0
2, 27200, Pitch_bend_c, 0, 8192
2, 27200, Note_on_c, 0, 48, 120
2, 27280, Note_on_c, 0, 48, 0
2, 27280, Note_on_c, 0, 45, 120
2, 27360, Note_on_c, 0, 45, 0
2, 27360, Note_on_c, 0, 38, 120
2, 27415, Note_on_c, 0, 38, 0
2, 27420, Note_on_c, 0, 38, 120
2, 27520, Note_on_c, 0, 38, 0
2, 27540, Note_on_c, 0, 38, 120
2, 27560, Note_on_c, 0, 38, 0
2, 27570, Note_on_c, 0, 38, 120
2, 27590, Note_on_c, 0, 38, 0
2, 27600, Note_on_c, 0, 31, 120
2, 27655, Note_on_c, 0, 31, 0
2, 27660, Note_on_c, 0, 33, 120
2, 27715, Note_on_c, 0, 33, 0
2, 27720, Note_on_c, 0, 36, 120
2, 27775, Note_on_c, 0, 36, 0
2, 27780, Note_on_c, 0, 43, 120
2, 27835, Note_on_c, 0, 43, 0
2, 27840, Note_on_c, 0, 36, 120
2, 28020, Note_on_c, 0, 36, 0
2, 28050, Note_on_c, 0, 43, 120
2, 28080, Note_on_c, 0, 43, 0
2, 28080, Note_on_c, 0, 48, 120
2, 28135, Note_on_c, 0, 48, 0
2, 28140, Note_on_c, 0, 48, 120
2, 28200, Note_on_c, 0, 48, 0
2, 28260, Note_on_c, 0, 33, 120
2, 28500, Note_on_c, 0, 33, 0
2, 28560, Note_on_c, 0, 33, 120
2, 28650, Note_on_c, 0, 33, 0
2, 28650, Note_on_c, 0, 33, 120
2, 28705, Note_on_c, 0, 33, 0
2, 28710, Note_on_c, 0, 33, 120
2, 28735, Note_on_c, 0, 33, 0
2, 28740, Note_on_c, 0, 31, 120
2, 28795, Note_on_c, 0, 31, 0
2, 28800, Note_on_c, 0, 41, 120
2, 28980, Note_on_c, 0, 41, 0
2, 28980, Note_on_c, 0, 41, 120
2, 29000, Note_on_c, 0, 41, 0
2, 29010, Note_on_c, 0, 41, 120
2, 29030, Note_on_c, 0, 41, 0
2, 29040, Note_on_c, 0, 40, 120
2, 29120, Note_on_c, 0, 40, 0
2, 29130, Note_on_c, 0, 38, 120
2, 29185, Note_on_c, 0, 38, 0
2, 29220, Note_on_c, 0, 38, 120
2, 29340, Note_on_c, 0, 38, 0
2, 29340, Note_on_c, 0, 50, 120
2, 29360, Note_on_c, 0, 50, 0
2, 29370, Note_on_c, 0, 48, 120
2, 29390, Note_on_c, 0, 48, 0
2, 29400, Note_on_c, 0, 50, 120
2, 29480, Note_on_c, 0, 50, 0
2, 29490, Note_on_c, 0, 50, 120
2, 29510, Note_on_c, 0, 50, 0
2, 29520, Note_on_c, 0, 50, 120
2, 29560, Note_on_c, 0, 50, 0
2, 29580, Note_on_c, 0, 50, 120
2, 29605, Note_on_c, 0, 50, 0
2, 29610, Note_on_c, 0, 45, 120
2, 29665, Note_on_c, 0, 45, 0
2, 29670, Note_on_c, 0, 45, 120
2, 29690, Note_on_c, 0, 45, 0
2, 29700, Note_on_c, 0, 43, 120
2, 29760, Note_on_c, 0, 43, 0
2, 29760, Note_on_c, 0, 41, 120
2, 29940, Note_on_c, 0, 41, 0
2, 29940, Note_on_c, 0, 41, 120
2, 29960, Note_on_c, 0, 41, 0
2, 29970, Note_on_c, 0, 41, 120
2, 29990, Note_on_c, 0, 41, 0
2, 30000, Note_on_c, 0, 40, 120
2, 30080, Note_on_c, 0, 40, 0
2, 30090, Note_on_c, 0, 38, 120
2, 30145, Note_on_c, 0, 38, 0
2, 30180, Note_on_c, 0, 38, 120
2, 30300, Note_on_c, 0, 38, 0
2, 30300, Note_on_c, 0, 50, 120
2, 30320, Note_on_c, 0, 50, 0
2, 30330, Note_on_c, 0, 48, 120
2, 30350, Note_on_c, 0, 48, 0
2, 30360, Note_on_c, 0, 50, 120
2, 30440, Note_on_c, 0, 50, 0
2, 30450, Note_on_c, 0, 50, 120
2, 30470, Note_on_c, 0, 50, 0
2, 30480, Note_on_c, 0, 50, 120
2, 30520, Note_on_c, 0, 50, 0
2, 30540, Note_on_c, 0, 50, 120
2, 30565, Note_on_c, 0, 50, 0
2, 30570, Note_on_c, 0, 45, 120
2, 30625, Note_on_c, 0, 45, 0
2, 30630, Note_on_c, 0, 45, 120
2, 30650, Note_on_c, 0, 45, 0
2, 30660, Note_on_c, 0, 43, 120
2, 30720, Note_on_c, 0, 43, 0
2, 30720, Note_on_c, 0, 41, 120
2, 30900, Note_on_c, 0, 41, 0
2, 30930, Note_on_c, 0, 41, 120
2, 30950, Note_on_c, 0, 41, 0
2, 30960, Note_on_c, 0, 40, 120
2, 31040, Note_on_c, 0, 40, 0
2, 31050, Note_on_c, 0, 38, 120
2, 31105, Note_on_c, 0, 38, 0
2, 31140, Note_on_c, 0, 38, 120
2, 31380, Note_on_c, 0, 38, 0
2, 31410, Note_on_c, 0, 38, 120
2, 31430, Note_on_c, 0, 38, 0
2, 31440, Note_on_c, 0, 38, 120
2, 31460, Note_on_c, 0, 38, 0
2, 31470, Note_on_c, 0, 38, 120
2, 31525, Note_on_c, 0, 38, 0
2, 31530, Note_on_c, 0, 36, 120
2, 31585, Note_on_c, 0, 36, 0
2, 31590, Note_on_c, 0, 36, 120
2, 31610, Note_on_c, 0, 36, 0
2, 31620, Note_on_c, 0, 33, 120
2, 31675, Note_on_c, 0, 33, 0
2, 31680, Note_on_c, 0, 29, 120
2, 31860, Note_on_c, 0, 29, 0
2, 31890, Note_on_c, 0, 29, 120
2, 31910, Note_on_c, 0, 29, 0
2, 31920, Note_on_c, 0, 40, 120
2, 32000, Note_on_c, 0, 40, 0
2, 32010, Note_on_c, 0, 38, 120
2, 32065, Note_on_c, 0, 38, 0
2, 32100, Note_on_c, 0, 31, 120
2, 32220, Note_on_c, 0, 31, 0
2, 32220, Note_on_c, 0, 31, 120
2, 32270, Note_on_c, 0, 31, 0
2, 32280, Note_on_c, 0, 31, 120
2, 32330, Note_on_c, 0, 31, 0
2, 32340, Note_on_c, 0, 31, 120
2, 32390, Note_on_c, 0, 31, 0
2, 32400, Note_on_c, 0, 43, 120
2, 32500, Note_on_c, 0, 43, 0
2, 32520, Note_on_c, 0, 36, 120
2, 32575, Note_on_c, 0, 36, 0
2, 32580, Note_on_c, 0, 37, 120
2, 32635, Note_on_c, 0, 37, 0
2, 32640, Note_on_c, 0, 38, 120
2, 32820, Note_on_c, 0, 38, 0
2, 32850, Note_on_c, 0, 45, 120
2, 32870, Note_on_c, 0, 45, 0
2, 32880, Note_on_c, 0, 50, 120
2, 32935, Note_on_c, 0, 50, 0
2, 32940, Note_on_c, 0, 50, 120
2, 33040, Note_on_c, 0, 50, 0
2, 33060, Note_on_c, 0, 33, 120
2, 33083, Note_on_c, 0, 33, 0
2, 33090, Note_on_c, 0, 36, 120
2, 33113, Note_on_c, 0, 36, 0
2, 33120, Note_on_c, 0, 38, 120
2, 33175, Note_on_c, 0, 38, 0
2, 33180, Note_on_c, 0, 38, 120
2, 33280, Note_on_c, 0, 38, 0
2, 33300, Note_on_c, 0, 38, 120
2, 33320, Note_on_c, 0, 38, 0
2, 33330, Note_on_c, 0, 38, 120
2, 33350, Note_on_c, 0, 38, 0
2, 33360, Note_on_c, 0, 38, 120
2, 33415, Note_on_c, 0, 38, 0
2, 33420, Note_on_c, 0, 38, 120
2, 33475, Note_on_c, 0, 38, 0
2, 33480, Note_on_c, 0, 36, 120
2, 33535, Note_on_c, 0, 36, 0
2, 33540, Note_on_c, 0, 43, 120
2, 33595, Note_on_c, 0, 43, 0
2, 33600, Note_on_c, 0, 36, 120
2, 33780, Note_on_c, 0, 36, 0
2, 33810, Note_on_c, 0, 43, 120
2, 33840, Note_on_c, 0, 43, 0
2, 33840, Note_on_c, 0, 48, 120
2, 33895, Note_on_c, 0, 48, 0
2, 33900, Note_on_c, 0, 48, 120
2, 33960, Note_on_c, 0, 48, 0
2, 34020, Note_on_c, 0, 33, 120
2, 34260, Note_on_c, 0, 33, 0
2, 34320, Note_on_c, 0, 33, 120
2, 34410, Note_on_c, 0, 33, 0
2, 34410, Note_on_c, 0, 33, 120
2, 34465, Note_on_c, 0, 33, 0
2, 34470, Note_on_c, 0, 33, 120
2, 34495, Note_on_c, 0, 33, 0
2, 34500, Note_on_c, 0, 31, 120
2, 34555, Note_on_c, 0, 31, 0
2, 34560, Note_on_c, 0, 41, 120
2, 34740, Note_on_c, 0, 41, 0
2, 34740, Note_on_c, 0, 41, 112
2, 34760, Note_on_c, 0, 41, 0
2, 34770, Note_on_c, 0, 41, 111
2, 34790, Note_on_c, 0, 41, 0
2, 34800, Note_on_c, 0, 40, 110
2, 34880, Note_on_c, 0, 40, 0
2, 34890, Note_on_c, 0, 38, 106
2, 34945, Note_on_c, 0, 38, 0
2, 34980, Note_on_c, 0, 38, 103
2, 35100, Note_on_c, 0, 38, 0
2, 35100, Note_on_c, 0, 50, 98
2, 35120, Note_on_c, 0, 50, 0
2, 35130, Note_on_c, 0, 48, 97
2, 35150, Note_on_c, 0, 48, 0
2, 35160, Note_on_c, 0, 50, 96
2, 35240, Note_on_c, 0, 50, 0
2, 35250, Note_on_c, 0, 50, 92
2, 35270, Note_on_c, 0, 50, 0
2, 35280, Note_on_c, 0, 50, 90
2, 35320, Note_on_c, 0, 50, 0
2, 35340, Note_on_c, 0, 50, 87
2, 35365, Note_on_c, 0, 50, 0
2, 35370, Note_on_c, 0, 45, 86
2, 35425, Note_on_c, 0, 45, 0
2, 35430, Note_on_c, 0, 45, 84
2, 35450, Note_on_c, 0, 45, 0
2, 35460, Note_on_c, 0, 43, 82
2, 35520, Note_on_c, 0, 43, 0
2, 35520, Note_on_c, 0, 41, 80
2, 35700, Note_on_c, 0, 41, 0
2, 35700, Note_on_c, 0, 41, 73
2, 35720, Note_on_c, 0, 41, 0
2, 35730, Note_on_c, 0, 41, 72
2, 35750, Note_on_c, 0, 41, 0
2, 35760, Note_on_c, 0, 40, 70
2, 35840, Note_on_c, 0, 40, 0
2, 35850, Note_on_c, 0, 38, 67
2, 35905, Note_on_c, 0, 38, 0
2, 35940, Note_on_c, 0, 38, 63
2, 36060, Note_on_c, 0, 38, 0
2, 36060, Note_on_c, 0, 50, 57
2, 36080, Note_on_c, 0, 50, 0
2, 36090, Note_on_c, 0, 48, 56
2, 36110, Note_on_c, 0, 48, 0
2, 36120, Note_on_c, 0, 50, 55
2, 36200, Note_on_c, 0, 50, 0
2, 36210, Note_on_c, 0, 50, 51
2, 36230, Note_on_c, 0, 50, 0
2, 36240, Note_on_c, 0, 50, 50
2, 36280, Note_on_c, 0, 50, 0
2, 36300, Note_on_c, 0, 50, 48
2, 36325, Note_on_c, 0, 50, 0
2, 36330, Note_on_c, 0, 45, 46
2, 36385, Note_on_c, 0, 45, 0
2, 36390, Note_on_c, 0, 45, 44
2, 36410, Note_on_c, 0, 45, 0
2, 36420, Note_on_c, 0, 43, 43
2, 36480, Note_on_c, 0, 43, 0
2, 36480, Note_on_c, 0, 41, 40
2, 36660, Note_on_c, 0, 41, 0
2, 36690, Note_on_c, 0, 41, 32
2, 36710, Note_on_c, 0, 41, 0
2, 36720, Note_on_c, 0, 40, 30
2, 36800, Note_on_c, 0, 40, 0
2, 36810, Note_on_c, 0, 38, 26
2, 36865, Note_on_c, 0, 38, 0
2, 36900, Note_on_c, 0, 38, 22
2, 37140, Note_on_c, 0, 38, 0
2, 37170, Note_on_c, 0, 38, 12
2, 37190, Note_on_c, 0, 38, 0
2, 37200, Note_on_c, 0, 38, 10
2, 37220, Note_on_c, 0, 38, 0
2, 37230, Note_on_c, 0, 38, 9
2, 37285, Note_on_c, 0, 38, 0
2, 37290, Note_on_c, 0, 36, 7
2, 37345, Note_on_c, 0, 36, 0
2, 37350, Note_on_c, 0, 36, 4
2, 37370, Note_on_c, 0, 36, 0
2, 37380, Note_on_c, 0, 33, 3
2, 37435, Note_on_c, 0, 33, 0
2, 37680, Control_c, 0, 0, 0
2, 37680, End_track
3, 0, Start_track
3, 0, MIDI_port, 0
3, 0, Program_c, 1, 48
3, 0, Control_c, 1, 7, 70
3, 0, Control_c, 1, 10, 0
3, 0, Control_c, 1, 1, 0
3, 10, Control_c, 1, 8, 64
3, 20, Control_c, 1, 11, 64
3, 120, Control_c, 1, 65, 0
3, 120, Control_c, 1, 67, 0
3, 120, Control_c, 1, 93, 0
3, 120, Control_c, 1, 91, 64
3, 120, Control_c, 1, 64, 0
3, 120, Pitch_bend_c, 1, 8192
3, 120, Control_c, 1, 68, 0
3, 720, Note_on_c, 1, 67, 100
3, 775, Note_on_c, 1, 67, 0
3, 780, Note_on_c, 1, 69, 100
3, 835, Note_on_c, 1, 69, 0
3, 840, Note_on_c, 1, 72, 100
3, 895, Note_on_c, 1, 72, 0
3, 900, Note_on_c, 1, 76, 100
3, 955, Note_on_c, 1, 76, 0
3, 960, Note_on_c, 1, 74, 100
3, 1560, Note_on_c, 1, 74, 0
3, 1680, Note_on_c, 1, 67, 100
3, 1735, Note_on_c, 1, 67, 0
3, 1740, Note_on_c, 1, 69, 100
3, 1795, Note_on_c, 1, 69, 0
3, 1800, Note_on_c, 1, 72, 100
3, 1855, Note_on_c, 1, 72, 0
3, 1860, Note_on_c, 1, 79, 100
3, 1915, Note_on_c, 1, 79, 0
3, 1920, Note_on_c, 1, 76, 100
3, 2220, Note_on_c, 1, 76, 0
3, 2220, Note_on_c, 1, 76, 100
3, 2280, Note_on_c, 1, 76, 0
3, 2280, Note_on_c, 1, 79, 100
3, 2340, Note_on_c, 1, 79, 0
3, 2340, Note_on_c, 1, 81, 100
3, 2820, Note_on_c, 1, 81, 0
3, 19620, Note_on_c, 1, 57, 100
3, 19620, Note_on_c, 1, 60, 100
3, 19920, Note_on_c, 1, 60, 0
3, 19920, Note_on_c, 1, 57, 0
3, 20160, Note_on_c, 1, 63, 100
3, 20400, Note_on_c, 1, 63, 0
3, 20400, Note_on_c, 1, 62, 100
3, 20480, Note_on_c, 1, 62, 0
3, 20580, Note_on_c, 1, 60, 100
3, 20940, Note_on_c, 1, 60, 0
3, 21123, Note_on_c, 1, 84, 100
3, 21363, Note_on_c, 1, 84, 0
3, 21363, Note_on_c, 1, 83, 100
3, 21453, Note_on_c, 1, 83, 0
3, 21453, Note_on_c, 1, 81, 100
3, 21813, Note_on_c, 1, 81, 0
3, 22083, Note_on_c, 1, 88, 100
3, 22323, Note_on_c, 1, 88, 0
3, 22323, Note_on_c, 1, 86, 100
3, 22413, Note_on_c, 1, 86, 0
3, 22413, Note_on_c, 1, 84, 100
3, 22773, Note_on_c, 1, 84, 0
3, 23043, Note_on_c, 1, 84, 100
3, 23283, Note_on_c, 1, 84, 0
3, 23283, Note_on_c, 1, 83, 100
3, 23373, Note_on_c, 1, 83, 0
3, 23373, Note_on_c, 1, 81, 100
3, 23733, Note_on_c, 1, 81, 0
3, 24003, Note_on_c, 1, 88, 100
3, 24243, Note_on_c, 1, 88, 0
3, 24243, Note_on_c, 1, 86, 100
3, 24333, Note_on_c, 1, 86, 0
3, 24333, Note_on_c, 1, 84, 100
3, 24693, Note_on_c, 1, 84, 0
3, 24720, Note_on_c, 1, 67, 100
3, 24775, Note_on_c, 1, 67, 0
3, 24780, Note_on_c, 1, 69, 100
3, 24835, Note_on_c, 1, 69, 0
3, 24840, Note_on_c, 1, 72, 100
3, 24895, Note_on_c, 1, 72, 0
3, 24900, Note_on_c, 1, 76, 100
3, 24955, Note_on_c, 1, 76, 0
3, 24960, Note_on_c, 1, 74, 100
3, 25560, Note_on_c, 1, 74, 0
3, 25680, Note_on_c, 1, 67, 100
3, 25735, Note_on_c, 1, 67, 0
3, 25740, Note_on_c, 1, 69, 100
3, 25795, Note_on_c, 1, 69, 0
3, 25800, Note_on_c, 1, 72, 100
3, 25855, Note_on_c, 1, 72, 0
3, 25860, Note_on_c, 1, 79, 100
3, 25915, Note_on_c, 1, 79, 0
3, 25920, Note_on_c, 1, 76, 100
3, 25950, Note_on_c, 1, 76, 0
3, 25950, Note_on_c, 1, 77, 100
3, 25980, Note_on_c, 1, 77, 0
3, 25980, Note_on_c, 1, 76, 100
3, 26580, Note_on_c, 1, 76, 0
3, 26640, Note_on_c, 1, 79, 100
3, 26695, Note_on_c, 1, 79, 0
3, 26700, Note_on_c, 1, 81, 100
3, 26755, Note_on_c, 1, 81, 0
3, 26760, Note_on_c, 1, 84, 100
3, 26815, Note_on_c, 1, 84, 0
3, 26820, Note_on_c, 1, 88, 100
3, 26875, Note_on_c, 1, 88, 0
3, 26880, Note_on_c, 1, 86, 100
3, 27480, Note_on_c, 1, 86, 0
3, 27600, Note_on_c, 1, 79, 100
3, 27655, Note_on_c, 1, 79, 0
3, 27660, Note_on_c, 1, 81, 100
3, 27715, Note_on_c, 1, 81, 0
3, 27720, Note_on_c, 1, 84, 100
3, 27775, Note_on_c, 1, 84, 0
3, 27780, Note_on_c, 1, 91, 100
3, 27835, Note_on_c, 1, 91, 0
3, 27840, Note_on_c, 1, 88, 100
3, 28140, Note_on_c, 1, 88, 0
3, 28140, Note_on_c, 1, 88, 100
3, 28200, Note_on_c, 1, 88, 0
3, 28200, Note_on_c, 1, 91, 100
3, 28260, Note_on_c, 1, 91, 0
3, 28260, Note_on_c, 1, 93, 100
3, 28560, Note_on_c, 1, 81, 120
3, 28640, Note_on_c, 1, 81, 0
3, 28650, Note_on_c, 1, 81, 120
3, 28705, Note_on_c, 1, 81, 0
3, 28710, Note_on_c, 1, 81, 120
3, 28732, Note_on_c, 1, 81, 0
3, 28740, Note_on_c, 1, 93, 0
3, 28740, Note_on_c, 1, 79, 120
3, 28795, Note_on_c, 1, 79, 0
3, 28803, Note_on_c, 1, 84, 100
3, 29043, Note_on_c, 1, 84, 0
3, 29043, Note_on_c, 1, 83, 100
3, 29133, Note_on_c, 1, 83, 0
3, 29133, Note_on_c, 1, 81, 100
3, 29493, Note_on_c, 1, 81, 0
3, 29763, Note_on_c, 1, 88, 100
3, 30003, Note_on_c, 1, 88, 0
3, 30003, Note_on_c, 1, 86, 100
3, 30093, Note_on_c, 1, 86, 0
3, 30093, Note_on_c, 1, 84, 100
3, 30453, Note_on_c, 1, 84, 0
3, 30723, Note_on_c, 1, 84, 100
3, 30963, Note_on_c, 1, 84, 0
3, 30963, Note_on_c, 1, 83, 100
3, 31053, Note_on_c, 1, 83, 0
3, 31053, Note_on_c, 1, 81, 100
3, 31413, Note_on_c, 1, 81, 0
3, 31683, Note_on_c, 1, 88, 100
3, 31923, Note_on_c, 1, 88, 0
3, 31923, Note_on_c, 1, 86, 100
3, 32013, Note_on_c, 1, 86, 0
3, 32013, Note_on_c, 1, 84, 100
3, 32373, Note_on_c, 1, 84, 0
3, 32400, Note_on_c, 1, 67, 100
3, 32455, Note_on_c, 1, 67, 0
3, 32460, Note_on_c, 1, 69, 100
3, 32515, Note_on_c, 1, 69, 0
3, 32520, Note_on_c, 1, 72, 100
3, 32575, Note_on_c, 1, 72, 0
3, 32580, Note_on_c, 1, 76, 100
3, 32635, Note_on_c, 1, 76, 0
3, 32640, Note_on_c, 1, 74, 100
3, 33240, Note_on_c, 1, 74, 0
3, 33360, Note_on_c, 1, 67, 100
3, 33415, Note_on_c, 1, 67, 0
3, 33420, Note_on_c, 1, 69, 100
3, 33475, Note_on_c, 1, 69, 0
3, 33480, Note_on_c, 1, 72, 100
3, 33535, Note_on_c, 1, 72, 0
3, 33540, Note_on_c, 1, 79, 100
3, 33595, Note_on_c, 1, 79, 0
3, 33600, Note_on_c, 1, 76, 100
3, 33630, Pitch_bend_c, 1, 12192
3, 33660, Pitch_bend_c, 1, 8192
3, 33900, Note_on_c, 1, 76, 0
3, 33900, Note_on_c, 1, 76, 100
3, 33960, Note_on_c, 1, 76, 0
3, 33960, Note_on_c, 1, 79, 100
3, 34020, Note_on_c, 1, 79, 0
3, 34020, Note_on_c, 1, 81, 100
3, 34320, Note_on_c, 1, 81, 120
3, 34400, Note_on_c, 1, 81, 0
3, 34410, Note_on_c, 1, 81, 120
3, 34465, Note_on_c, 1, 81, 0
3, 34470, Note_on_c, 1, 81, 120
3, 34492, Note_on_c, 1, 81, 0
3, 34500, Note_on_c, 1, 81, 0
3, 34500, Note_on_c, 1, 79, 120
3, 34555, Note_on_c, 1, 79, 0
3, 34563, Note_on_c, 1, 84, 100
3, 34803, Note_on_c, 1, 84, 0
3, 34803, Note_on_c, 1, 83, 92
3, 34893, Note_on_c, 1, 83, 0
3, 34893, Note_on_c, 1, 81, 89
3, 35253, Note_on_c, 1, 81, 0
3, 35523, Note_on_c, 1, 88, 67
3, 35763, Note_on_c, 1, 88, 0
3, 35763, Note_on_c, 1, 86, 59
3, 35853, Note_on_c, 1, 86, 0
3, 35853, Note_on_c, 1, 84, 56
3, 36213, Note_on_c, 1, 84, 0
3, 36483, Note_on_c, 1, 84, 34
3, 36723, Note_on_c, 1, 84, 0
3, 36723, Note_on_c, 1, 83, 25
3, 36813, Note_on_c, 1, 83, 0
3, 36813, Note_on_c, 1, 81, 22
3, 37173, Note_on_c, 1, 81, 0
3, 37173, End_track
4, 0, Start_track
4, 0, MIDI_port, 0
4, 0, Program_c, 2, 48
4, 0, Control_c, 2, 7, 70
4, 0, Control_c, 2, 10, 127
4, 0, Control_c, 2, 1, 0
4, 10, Control_c, 2, 8, 64
4, 20, Control_c, 2, 11, 64
4, 120, Control_c, 2, 65, 0
4, 120, Control_c, 2, 67, 0
4, 120, Control_c, 2, 93, 0
4, 120, Control_c, 2, 91, 64
4, 120, Control_c, 2, 64, 0
4, 120, Pitch_bend_c, 2, 8192
4, 120, Control_c, 2, 68, 0
4, 723, Note_on_c, 2, 67, 100
4, 778, Note_on_c, 2, 67, 0
4, 783, Note_on_c, 2, 69, 100
4, 838, Note_on_c, 2, 69, 0
4, 843, Note_on_c, 2, 72, 100
4, 898, Note_on_c, 2, 72, 0
4, 903, Note_on_c, 2, 76, 100
4, 958, Note_on_c, 2, 76, 0
4, 960, Note_on_c, 2, 57, 100
4, 960, Note_on_c, 2, 62, 100
4, 960, Note_on_c, 2, 65, 100
4, 963, Note_on_c, 2, 74, 100
4, 1563, Note_on_c, 2, 74, 0
4, 1683, Note_on_c, 2, 67, 100
4, 1738, Note_on_c, 2, 67, 0
4, 1743, Note_on_c, 2, 69, 100
4, 1798, Note_on_c, 2, 69, 0
4, 1800, Note_on_c, 2, 57, 0
4, 1800, Note_on_c, 2, 62, 0
4, 1800, Note_on_c, 2, 65, 0
4, 1803, Note_on_c, 2, 72, 100
4, 1858, Note_on_c, 2, 72, 0
4, 1863, Note_on_c, 2, 79, 100
4, 1918, Note_on_c, 2, 79, 0
4, 1920, Note_on_c, 2, 55, 100
4, 1920, Note_on_c, 2, 67, 100
4, 1920, Note_on_c, 2, 59, 100
4, 1920, Note_on_c, 2, 64, 100
4, 1923, Note_on_c, 2, 76, 100
4, 2223, Note_on_c, 2, 76, 0
4, 2223, Note_on_c, 2, 76, 100
4, 2283, Note_on_c, 2, 76, 0
4, 2283, Note_on_c, 2, 79, 100
4, 2340, Note_on_c, 2, 64, 0
4, 2340, Note_on_c, 2, 59, 0
4, 2340, Note_on_c, 2, 55, 0
4, 2340, Note_on_c, 2, 67, 0
4, 2340, Note_on_c, 2, 57, 100
4, 2340, Note_on_c, 2, 61, 100
4, 2340, Note_on_c, 2, 64, 100
4, 2343, Note_on_c, 2, 79, 0
4, 2343, Note_on_c, 2, 81, 100
4, 2760, Note_on_c, 2, 57, 0
4, 2760, Note_on_c, 2, 64, 0
4, 2760, Note_on_c, 2, 61, 0
4, 2823, Note_on_c, 2, 81, 0
4, 19200, Note_on_c, 2, 72, 100
4, 19320, Note_on_c, 2, 72, 0
4, 19320, Note_on_c, 2, 79, 100
4, 19440, Note_on_c, 2, 79, 0
4, 19440, Note_on_c, 2, 71, 100
4, 19560, Note_on_c, 2, 71, 0
4, 19560, Note_on_c, 2, 79, 100
4, 19620, Note_on_c, 2, 79, 0
4, 19620, Note_on_c, 2, 72, 100
4, 19920, Note_on_c, 2, 72, 0
4, 19920, Note_on_c, 2, 74, 100
4, 19980, Note_on_c, 2, 74, 0
4, 19980, Note_on_c, 2, 76, 100
4, 20040, Note_on_c, 2, 76, 0
4, 20040, Note_on_c, 2, 77, 100
4, 20070, Note_on_c, 2, 77, 0
4, 20070, Note_on_c, 2, 79, 100
4, 20100, Note_on_c, 2, 79, 0
4, 20100, Note_on_c, 2, 81, 100
4, 20160, Note_on_c, 2, 81, 0
4, 20160, Note_on_c, 2, 82, 100
4, 20400, Note_on_c, 2, 82, 0
4, 20400, Note_on_c, 2, 81, 100
4, 20480, Note_on_c, 2, 81, 0
4, 20490, Note_on_c, 2, 81, 100
4, 20570, Note_on_c, 2, 81, 0
4, 20580, Note_on_c, 2, 79, 100
4, 20940, Note_on_c, 2, 79, 0
4, 21120, Note_on_c, 2, 84, 100
4, 21360, Note_on_c, 2, 84, 0
4, 21360, Note_on_c, 2, 83, 100
4, 21450, Note_on_c, 2, 83, 0
4, 21450, Note_on_c, 2, 81, 100
4, 21810, Note_on_c, 2, 81, 0
4, 22080, Note_on_c, 2, 88, 100
4, 22320, Note_on_c, 2, 88, 0
4, 22320, Note_on_c, 2, 86, 100
4, 22410, Note_on_c, 2, 86, 0
4, 22410, Note_on_c, 2, 84, 100
4, 22770, Note_on_c, 2, 84, 0
4, 23040, Note_on_c, 2, 84, 100
4, 23280, Note_on_c, 2, 84, 0
4, 23280, Note_on_c, 2, 83, 100
4, 23370, Note_on_c, 2, 83, 0
4, 23370, Note_on_c, 2, 81, 100
4, 23730, Note_on_c, 2, 81, 0
4, 24000, Note_on_c, 2, 88, 100
4, 24240, Note_on_c, 2, 88, 0
4, 24240, Note_on_c, 2, 86, 100
4, 24330, Note_on_c, 2, 86, 0
4, 24330, Note_on_c, 2, 84, 100
4, 24690, Note_on_c, 2, 84, 0
4, 24723, Note_on_c, 2, 67, 100
4, 24778, Note_on_c, 2, 67, 0
4, 24783, Note_on_c, 2, 69, 100
4, 24838, Note_on_c, 2, 69, 0
4, 24843, Note_on_c, 2, 72, 100
4, 24898, Note_on_c, 2, 72, 0
4, 24903, Note_on_c, 2, 76, 100
4, 24958, Note_on_c, 2, 76, 0
4, 24960, Note_on_c, 2, 57, 100
4, 24960, Note_on_c, 2, 65, 100
4, 24963, Note_on_c, 2, 74, 100
4, 25563, Note_on_c, 2, 74, 0
4, 25683, Note_on_c, 2, 67, 100
4, 25738, Note_on_c, 2, 67, 0
4, 25743, Note_on_c, 2, 69, 100
4, 25798, Note_on_c, 2, 69, 0
4, 25800, Note_on_c, 2, 65, 0
4, 25800, Note_on_c, 2, 57, 0
4, 25803, Note_on_c, 2, 72, 100
4, 25858, Note_on_c, 2, 72, 0
4, 25863, Note_on_c, 2, 79, 100
4, 25918, Note_on_c, 2, 79, 0
4, 25920, Note_on_c, 2, 67, 100
4, 25920, Note_on_c, 2, 59, 100
4, 25920, Note_on_c, 2, 64, 100
4, 25923, Note_on_c, 2, 76, 100
4, 25953, Note_on_c, 2, 76, 0
4, 25953, Note_on_c, 2, 77, 100
4, 25983, Note_on_c, 2, 77, 0
4, 25983, Note_on_c, 2, 76, 100
4, 26583, Note_on_c, 2, 76, 0
4, 26640, Note_on_c, 2, 67, 0
4, 26640, Note_on_c, 2, 59, 0
4, 26640, Note_on_c, 2, 64, 0
4, 26643, Note_on_c, 2, 79, 100
4, 26698, Note_on_c, 2, 79, 0
4, 26703, Note_on_c, 2, 81, 100
4, 26758, Note_on_c, 2, 81, 0
4, 26763, Note_on_c, 2, 84, 100
4, 26818, Note_on_c, 2, 84, 0
4, 26823, Note_on_c, 2, 88, 100
4, 26878, Note_on_c, 2, 88, 0
4, 26880, Note_on_c, 2, 57, 100
4, 26880, Note_on_c, 2, 65, 100
4, 26883, Note_on_c, 2, 86, 100
4, 27483, Note_on_c, 2, 86, 0
4, 27603, Note_on_c, 2, 79, 100
4, 27658, Note_on_c, 2, 79, 0
4, 27663, Note_on_c, 2, 81, 100
4, 27718, Note_on_c, 2, 81, 0
4, 27720, Note_on_c, 2, 65, 0
4, 27720, Note_on_c, 2, 57, 0
4, 27723, Note_on_c, 2, 84, 100
4, 27778, Note_on_c, 2, 84, 0
4, 27783, Note_on_c, 2, 91, 100
4, 27838, Note_on_c, 2, 91, 0
4, 27840, Note_on_c, 2, 55, 100
4, 27840, Note_on_c, 2, 67, 100
4, 27840, Note_on_c, 2, 59, 100
4, 27840, Note_on_c, 2, 64, 100
4, 27843, Note_on_c, 2, 88, 100
4, 28143, Note_on_c, 2, 88, 0
4, 28143, Note_on_c, 2, 88, 100
4, 28203, Note_on_c, 2, 88, 0
4, 28203, Note_on_c, 2, 91, 100
4, 28260, Note_on_c, 2, 64, 0
4, 28260, Note_on_c, 2, 59, 0
4, 28260, Note_on_c, 2, 55, 0
4, 28260, Note_on_c, 2, 67, 0
4, 28260, Note_on_c, 2, 57, 100
4, 28260, Note_on_c, 2, 61, 100
4, 28260, Note_on_c, 2, 64, 100
4, 28263, Note_on_c, 2, 91, 0
4, 28263, Note_on_c, 2, 93, 100
4, 28563, Note_on_c, 2, 81, 120
4, 28643, Note_on_c, 2, 81, 0
4, 28653, Note_on_c, 2, 81, 120
4, 28680, Note_on_c, 2, 64, 0
4, 28680, Note_on_c, 2, 57, 0
4, 28680, Note_on_c, 2, 61, 0
4, 28708, Note_on_c, 2, 81, 0
4, 28713, Note_on_c, 2, 81, 120
4, 28735, Note_on_c, 2, 81, 0
4, 28743, Note_on_c, 2, 93, 0
4, 28743, Note_on_c, 2, 79, 120
4, 28798, Note_on_c, 2, 79, 0
4, 28800, Note_on_c, 2, 84, 100
4, 29040, Note_on_c, 2, 84, 0
4, 29040, Note_on_c, 2, 83, 100
4, 29130, Note_on_c, 2, 83, 0
4, 29130, Note_on_c, 2, 81, 100
4, 29490, Note_on_c, 2, 81, 0
4, 29760, Note_on_c, 2, 88, 100
4, 30000, Note_on_c, 2, 88, 0
4, 30000, Note_on_c, 2, 86, 100
4, 30090, Note_on_c, 2, 86, 0
4, 30090, Note_on_c, 2, 84, 100
4, 30450, Note_on_c, 2, 84, 0
4, 30720, Note_on_c, 2, 84, 100
4, 30960, Note_on_c, 2, 84, 0
4, 30960, Note_on_c, 2, 83, 100
4, 31050, Note_on_c, 2, 83, 0
4, 31050, Note_on_c, 2, 81, 100
4, 31410, Note_on_c, 2, 81, 0
4, 31680, Note_on_c, 2, 88, 100
4, 31920, Note_on_c, 2, 88, 0
4, 31920, Note_on_c, 2, 86, 100
4, 32010, Note_on_c, 2, 86, 0
4, 32010, Note_on_c, 2, 84, 100
4, 32370, Note_on_c, 2, 84, 0
4, 32403, Note_on_c, 2, 67, 100
4, 32458, Note_on_c, 2, 67, 0
4, 32463, Note_on_c, 2, 69, 100
4, 32518, Note_on_c, 2, 69, 0
4, 32523, Note_on_c, 2, 72, 100
4, 32578, Note_on_c, 2, 72, 0
4, 32583, Note_on_c, 2, 76, 100
4, 32638, Note_on_c, 2, 76, 0
4, 32640, Note_on_c, 2, 57, 100
4, 32640, Note_on_c, 2, 65, 100
4, 32643, Note_on_c, 2, 74, 100
4, 33243, Note_on_c, 2, 74, 0
4, 33363, Note_on_c, 2, 67, 100
4, 33418, Note_on_c, 2, 67, 0
4, 33423, Note_on_c, 2, 69, 100
4, 33478, Note_on_c, 2, 69, 0
4, 33480, Note_on_c, 2, 65, 0
4, 33480, Note_on_c, 2, 57, 0
4, 33483, Note_on_c, 2, 72, 100
4, 33538, Note_on_c, 2, 72, 0
4, 33543, Note_on_c, 2, 79, 100
4, 33598, Note_on_c, 2, 79, 0
4, 33600, Note_on_c, 2, 55, 100
4, 33600, Note_on_c, 2, 67, 100
4, 33600, Note_on_c, 2, 59, 100
4, 33600, Note_on_c, 2, 64, 100
4, 33603, Note_on_c, 2, 76, 100
4, 33903, Note_on_c, 2, 76, 0
4, 33903, Note_on_c, 2, 76, 100
4, 33963, Note_on_c, 2, 76, 0
4, 33963, Note_on_c, 2, 79, 100
4, 34020, Note_on_c, 2, 64, 0
4, 34020, Note_on_c, 2, 59, 0
4, 34020, Note_on_c, 2, 55, 0
4, 34020, Note_on_c, 2, 67, 0
4, 34020, Note_on_c, 2, 57, 100
4, 34020, Note_on_c, 2, 61, 100
4, 34020, Note_on_c, 2, 64, 100
4, 34023, Note_on_c, 2, 79, 0
4, 34023, Note_on_c, 2, 81, 100
4, 34323, Note_on_c, 2, 81, 120
4, 34403, Note_on_c, 2, 81, 0
4, 34413, Note_on_c, 2, 81, 120
4, 34440, Note_on_c, 2, 64, 0
4, 34440, Note_on_c, 2, 57, 0
4, 34440, Note_on_c, 2, 61, 0
4, 34468, Note_on_c, 2, 81, 0
4, 34473, Note_on_c, 2, 81, 120
4, 34495, Note_on_c, 2, 81, 0
4, 34503, Note_on_c, 2, 81, 0
4, 34503, Note_on_c, 2, 79, 120
4, 34558, Note_on_c, 2, 79, 0
4, 34560, Note_on_c, 2, 84, 100
4, 34800, Note_on_c, 2, 84, 0
4, 34800, Note_on_c, 2, 83, 92
4, 34890, Note_on_c, 2, 83, 0
4, 34890, Note_on_c, 2, 81, 89
4, 35250, Note_on_c, 2, 81, 0
4, 35520, Note_on_c, 2, 88, 67
4, 35760, Note_on_c, 2, 88, 0
4, 35760, Note_on_c, 2, 86, 59
4, 35850, Note_on_c, 2, 86, 0
4, 35850, Note_on_c, 2, 84, 56
4, 36210, Note_on_c, 2, 84, 0
4, 36480, Note_on_c, 2, 84, 34
4, 36720, Note_on_c, 2, 84, 0
4, 36720, Note_on_c, 2, 83, 25
4, 36810, Note_on_c, 2, 83, 0
4, 36810, Note_on_c, 2, 81, 22
4, 37170, Note_on_c, 2, 81, 0
4, 37170, End_track
5, 0, Start_track
5, 0, MIDI_port, 0
5, 0, Program_c, 4, 5
5, 0, Control_c, 4, 7, 65
5, 0, Control_c, 4, 10, 94
5, 0, Control_c, 4, 1, 0
5, 10, Control_c, 4, 8, 64
5, 20, Control_c, 4, 11, 64
5, 120, Control_c, 4, 65, 0
5, 120, Control_c, 4, 67, 0
5, 120, Control_c, 4, 93, 0
5, 120, Control_c, 4, 91, 64
5, 120, Control_c, 4, 64, 0
5, 120, Pitch_bend_c, 4, 8192
5, 120, Control_c, 4, 68, 0
5, 1080, Note_on_c, 4, 57, 100
5, 1080, Note_on_c, 4, 65, 100
5, 1080, Note_on_c, 4, 60, 100
5, 1160, Note_on_c, 4, 60, 0
5, 1160, Note_on_c, 4, 65, 0
5, 1160, Note_on_c, 4, 57, 0
5, 1170, Note_on_c, 4, 57, 100
5, 1170, Note_on_c, 4, 65, 100
5, 1170, Note_on_c, 4, 60, 100
5, 1190, Note_on_c, 4, 60, 0
5, 1190, Note_on_c, 4, 65, 0
5, 1190, Note_on_c, 4, 57, 0
5, 1260, Note_on_c, 4, 57, 100
5, 1260, Note_on_c, 4, 65, 100
5, 1260, Note_on_c, 4, 60, 100
5, 1440, Note_on_c, 4, 60, 0
5, 1440, Note_on_c, 4, 65, 0
5, 1440, Note_on_c, 4, 57, 0
5, 1560, Note_on_c, 4, 57, 100
5, 1560, Note_on_c, 4, 65, 100
5, 1560, Note_on_c, 4, 60, 100
5, 1640, Note_on_c, 4, 60, 0
5, 1640, Note_on_c, 4, 65, 0
5, 1640, Note_on_c, 4, 57, 0
5, 1650, Note_on_c, 4, 57, 100
5, 1650, Note_on_c, 4, 65, 100
5, 1650, Note_on_c, 4, 60, 100
5, 1670, Note_on_c, 4, 60, 0
5, 1670, Note_on_c, 4, 65, 0
5, 1670, Note_on_c, 4, 57, 0
5, 1740, Note_on_c, 4, 57, 100
5, 1740, Note_on_c, 4, 65, 100
5, 1740, Note_on_c, 4, 60, 100
5, 1920, Note_on_c, 4, 60, 0
5, 1920, Note_on_c, 4, 65, 0
5, 1920, Note_on_c, 4, 57, 0
5, 2040, Note_on_c, 4, 67, 100
5, 2040, Note_on_c, 4, 64, 100
5, 2040, Note_on_c, 4, 59, 100
5, 2120, Note_on_c, 4, 59, 0
5, 2120, Note_on_c, 4, 64, 0
5, 2120, Note_on_c, 4, 67, 0
5, 2130, Note_on_c, 4, 67, 100
5, 2130, Note_on_c, 4, 64, 100
5, 2130, Note_on_c, 4, 59, 100
5, 2150, Note_on_c, 4, 59, 0
5, 2150, Note_on_c, 4, 64, 0
5, 2150, Note_on_c, 4, 67, 0
5, 2220, Note_on_c, 4, 59, 100
5, 2220, Note_on_c, 4, 64, 100
5, 2220, Note_on_c, 4, 67, 100
5, 2340, Note_on_c, 4, 67, 0
5, 2340, Note_on_c, 4, 64, 0
5, 2340, Note_on_c, 4, 59, 0
5, 2340, Note_on_c, 4, 64, 100
5, 2340, Note_on_c, 4, 61, 100
5, 2340, Note_on_c, 4, 69, 100
5, 2580, Note_on_c, 4, 69, 0
5, 2580, Note_on_c, 4, 61, 0
5, 2580, Note_on_c, 4, 64, 0
5, 2640, Note_on_c, 4, 64, 100
5, 2640, Note_on_c, 4, 69, 100
5, 2720, Note_on_c, 4, 69, 0
5, 2720, Note_on_c, 4, 64, 0
5, 2730, Note_on_c, 4, 64, 100
5, 2730, Note_on_c, 4, 69, 100
5, 2780, Note_on_c, 4, 69, 0
5, 2780, Note_on_c, 4, 64, 0
5, 2790, Note_on_c, 4, 64, 100
5, 2790, Note_on_c, 4, 69, 100
5, 2815, Note_on_c, 4, 69, 0
5, 2815, Note_on_c, 4, 64, 0
5, 2820, Note_on_c, 4, 59, 100
5, 2820, Note_on_c, 4, 62, 100
5, 2820, Note_on_c, 4, 67, 100
5, 2860, Note_on_c, 4, 67, 0
5, 2860, Note_on_c, 4, 62, 0
5, 2869, Note_on_c, 4, 59, 0
5, 2880, Note_on_c, 4, 53, 100
5, 2880, Note_on_c, 4, 69, 100
5, 2880, Note_on_c, 4, 60, 100
5, 2880, Note_on_c, 4, 64, 100
5, 3120, Note_on_c, 4, 64, 0
5, 3120, Note_on_c, 4, 53, 0
5, 3120, Note_on_c, 4, 69, 0
5, 3120, Note_on_c, 4, 60, 0
5, 3120, Note_on_c, 4, 62, 100
5, 3120, Note_on_c, 4, 59, 100
5, 3120, Note_on_c, 4, 67, 100
5, 3120, Note_on_c, 4, 52, 100
5, 3200, Note_on_c, 4, 52, 0
5, 3200, Note_on_c, 4, 62, 0
5, 3200, Note_on_c, 4, 59, 0
5, 3200, Note_on_c, 4, 67, 0
5, 3210, Note_on_c, 4, 57, 100
5, 3210, Note_on_c, 4, 65, 100
5, 3210, Note_on_c, 4, 60, 100
5, 3270, Note_on_c, 4, 60, 0
5, 3270, Note_on_c, 4, 65, 0
5, 3270, Note_on_c, 4, 57, 0
5, 3300, Note_on_c, 4, 65, 100
5, 3300, Note_on_c, 4, 57, 100
5, 3300, Note_on_c, 4, 60, 100
5, 3780, Note_on_c, 4, 60, 0
5, 3780, Note_on_c, 4, 57, 0
5, 3780, Note_on_c, 4, 65, 0
5, 3840, Note_on_c, 4, 53, 100
5, 3840, Note_on_c, 4, 69, 100
5, 3840, Note_on_c, 4, 60, 100
5, 3840, Note_on_c, 4, 64, 100
5, 4080, Note_on_c, 4, 64, 0
5, 4080, Note_on_c, 4, 53, 0
5, 4080, Note_on_c, 4, 69, 0
5, 4080, Note_on_c, 4, 60, 0
5, 4080, Note_on_c, 4, 62, 100
5, 4080, Note_on_c, 4, 59, 100
5, 4080, Note_on_c, 4, 67, 100
5, 4080, Note_on_c, 4, 52, 100
5, 4160, Note_on_c, 4, 52, 0
5, 4160, Note_on_c, 4, 62, 0
5, 4160, Note_on_c, 4, 59, 0
5, 4160, Note_on_c, 4, 67, 0
5, 4170, Note_on_c, 4, 57, 100
5, 4170, Note_on_c, 4, 65, 100
5, 4170, Note_on_c, 4, 60, 100
5, 4230, Note_on_c, 4, 60, 0
5, 4230, Note_on_c, 4, 65, 0
5, 4230, Note_on_c, 4, 57, 0
5, 4260, Note_on_c, 4, 65, 100
5, 4260, Note_on_c, 4, 57, 100
5, 4260, Note_on_c, 4, 60, 100
5, 4740, Note_on_c, 4, 60, 0
5, 4740, Note_on_c, 4, 57, 0
5, 4740, Note_on_c, 4, 65, 0
5, 4800, Note_on_c, 4, 53, 100
5, 4800, Note_on_c, 4, 69, 100
5, 4800, Note_on_c, 4, 60, 100
5, 4800, Note_on_c, 4, 64, 100
5, 5040, Note_on_c, 4, 64, 0
5, 5040, Note_on_c, 4, 53, 0
5, 5040, Note_on_c, 4, 69, 0
5, 5040, Note_on_c, 4, 60, 0
5, 5040, Note_on_c, 4, 62, 100
5, 5040, Note_on_c, 4, 59, 100
5, 5040, Note_on_c, 4, 67, 100
5, 5040, Note_on_c, 4, 52, 100
5, 5120, Note_on_c, 4, 52, 0
5, 5120, Note_on_c, 4, 62, 0
5, 5120, Note_on_c, 4, 59, 0
5, 5120, Note_on_c, 4, 67, 0
5, 5130, Note_on_c, 4, 57, 100
5, 5130, Note_on_c, 4, 65, 100
5, 5130, Note_on_c, 4, 60, 100
5, 5190, Note_on_c, 4, 60, 0
5, 5190, Note_on_c, 4, 65, 0
5, 5190, Note_on_c, 4, 57, 0
5, 5220, Note_on_c, 4, 55, 100
5, 5220, Note_on_c, 4, 65, 100
5, 5220, Note_on_c, 4, 57, 100
5, 5220, Note_on_c, 4, 60, 100
5, 5700, Note_on_c, 4, 60, 0
5, 5700, Note_on_c, 4, 55, 0
5, 5700, Note_on_c, 4, 65, 0
5, 5700, Note_on_c, 4, 57, 0
5, 5760, Note_on_c, 4, 65, 100
5, 5760, Note_on_c, 4, 57, 100
5, 5760, Note_on_c, 4, 62, 100
5, 5840, Note_on_c, 4, 62, 0
5, 5840, Note_on_c, 4, 57, 0
5, 5840, Note_on_c, 4, 65, 0
5, 5880, Note_on_c, 4, 65, 100
5, 5880, Note_on_c, 4, 57, 100
5, 5880, Note_on_c, 4, 62, 100
5, 5960, Note_on_c, 4, 62, 0
5, 5960, Note_on_c, 4, 57, 0
5, 5960, Note_on_c, 4, 65, 0
5, 6000, Note_on_c, 4, 65, 100
5, 6000, Note_on_c, 4, 57, 100
5, 6000, Note_on_c, 4, 62, 100
5, 6080, Note_on_c, 4, 62, 0
5, 6080, Note_on_c, 4, 57, 0
5, 6080, Note_on_c, 4, 65, 0
5, 6120, Note_on_c, 4, 65, 100
5, 6120, Note_on_c, 4, 57, 100
5, 6120, Note_on_c, 4, 62, 100
5, 6200, Note_on_c, 4, 62, 0
5, 6200, Note_on_c, 4, 57, 0
5, 6200, Note_on_c, 4, 65, 0
5, 6240, Note_on_c, 4, 64, 100
5, 6240, Note_on_c, 4, 57, 100
5, 6240, Note_on_c, 4, 60, 100
5, 6300, Note_on_c, 4, 45, 100
5, 6320, Note_on_c, 4, 60, 0
5, 6320, Note_on_c, 4, 64, 0
5, 6320, Note_on_c, 4, 57, 0
5, 6360, Note_on_c, 4, 64, 100
5, 6360, Note_on_c, 4, 57, 100
5, 6360, Note_on_c, 4, 60, 100
5, 6380, Note_on_c, 4, 45, 0
5, 6420, Note_on_c, 4, 45, 100
5, 6440, Note_on_c, 4, 64, 0
5, 6440, Note_on_c, 4, 60, 0
5, 6440, Note_on_c, 4, 57, 0
5, 6480, Note_on_c, 4, 64, 100
5, 6480, Note_on_c, 4, 57, 100
5, 6480, Note_on_c, 4, 60, 100
5, 6500, Note_on_c, 4, 45, 0
5, 6560, Note_on_c, 4, 64, 0
5, 6560, Note_on_c, 4, 57, 0
5, 6560, Note_on_c, 4, 60, 0
5, 6600, Note_on_c, 4, 64, 100
5, 6600, Note_on_c, 4, 57, 100
5, 6600, Note_on_c, 4, 60, 100
5, 6680, Note_on_c, 4, 60, 0
5, 6680, Note_on_c, 4, 57, 0
5, 6680, Note_on_c, 4, 64, 0
5, 6720, Note_on_c, 4, 65, 100
5, 6720, Note_on_c, 4, 57, 100
5, 6720, Note_on_c, 4, 62, 100
5, 6800, Note_on_c, 4, 62, 0
5, 6800, Note_on_c, 4, 57, 0
5, 6800, Note_on_c, 4, 65, 0
5, 6840, Note_on_c, 4, 65, 100
5, 6840, Note_on_c, 4, 57, 100
5, 6840, Note_on_c, 4, 62, 100
5, 6920, Note_on_c, 4, 62, 0
5, 6920, Note_on_c, 4, 57, 0
5, 6920, Note_on_c, 4, 65, 0
5, 6960, Note_on_c, 4, 65, 100
5, 6960, Note_on_c, 4, 57, 100
5, 6960, Note_on_c, 4, 62, 100
5, 7040, Note_on_c, 4, 62, 0
5, 7040, Note_on_c, 4, 57, 0
5, 7040, Note_on_c, 4, 65, 0
5, 7080, Note_on_c, 4, 65, 100
5, 7080, Note_on_c, 4, 57, 100
5, 7080, Note_on_c, 4, 62, 100
5, 7140, Note_on_c, 4, 43, 100
5, 7160, Note_on_c, 4, 62, 0
5, 7160, Note_on_c, 4, 65, 0
5, 7160, Note_on_c, 4, 57, 0
5, 7195, Note_on_c, 4, 43, 0
5, 7200, Note_on_c, 4, 45, 100
5, 7200, Note_on_c, 4, 64, 100
5, 7200, Note_on_c, 4, 57, 100
5, 7200, Note_on_c, 4, 60, 100
5, 7280, Note_on_c, 4, 60, 0
5, 7280, Note_on_c, 4, 45, 0
5, 7280, Note_on_c, 4, 64, 0
5, 7280, Note_on_c, 4, 57, 0
5, 7320, Note_on_c, 4, 64, 100
5, 7320, Note_on_c, 4, 57, 100
5, 7320, Note_on_c, 4, 60, 100
5, 7400, Note_on_c, 4, 60, 0
5, 7400, Note_on_c, 4, 57, 0
5, 7400, Note_on_c, 4, 64, 0
5, 7440, Note_on_c, 4, 64, 100
5, 7440, Note_on_c, 4, 57, 100
5, 7440, Note_on_c, 4, 60, 100
5, 7440, Note_on_c, 4, 45, 100
5, 7495, Note_on_c, 4, 45, 0
5, 7500, Note_on_c, 4, 43, 100
5, 7520, Note_on_c, 4, 64, 0
5, 7520, Note_on_c, 4, 60, 0
5, 7520, Note_on_c, 4, 57, 0
5, 7555, Note_on_c, 4, 43, 0
5, 7560, Note_on_c, 4, 64, 100
5, 7560, Note_on_c, 4, 57, 100
5, 7560, Note_on_c, 4, 60, 100
5, 7560, Note_on_c, 4, 40, 100
5, 7615, Note_on_c, 4, 40, 0
5, 7620, Note_on_c, 4, 33, 100
5, 7640, Note_on_c, 4, 64, 0
5, 7640, Note_on_c, 4, 60, 0
5, 7640, Note_on_c, 4, 57, 0
5, 7680, Note_on_c, 4, 33, 0
5, 7680, Note_on_c, 4, 65, 100
5, 7680, Note_on_c, 4, 57, 100
5, 7680, Note_on_c, 4, 62, 100
5, 7760, Note_on_c, 4, 62, 0
5, 7760, Note_on_c, 4, 57, 0
5, 7760, Note_on_c, 4, 65, 0
5, 7800, Note_on_c, 4, 65, 100
5, 7800, Note_on_c, 4, 57, 100
5, 7800, Note_on_c, 4, 62, 100
5, 7880, Note_on_c, 4, 62, 0
5, 7880, Note_on_c, 4, 57, 0
5, 7880, Note_on_c, 4, 65, 0
5, 7920, Note_on_c, 4, 65, 100
5, 7920, Note_on_c, 4, 57, 100
5, 7920, Note_on_c, 4, 62, 100
5, 8000, Note_on_c, 4, 62, 0
5, 8000, Note_on_c, 4, 57, 0
5, 8000, Note_on_c, 4, 65, 0
5, 8040, Note_on_c, 4, 65, 100
5, 8040, Note_on_c, 4, 57, 100
5, 8040, Note_on_c, 4, 62, 100
5, 8120, Note_on_c, 4, 62, 0
5, 8120, Note_on_c, 4, 57, 0
5, 8120, Note_on_c, 4, 65, 0
5, 8160, Note_on_c, 4, 64, 100
5, 8160, Note_on_c, 4, 57, 100
5, 8160, Note_on_c, 4, 60, 100
5, 8220, Note_on_c, 4, 45, 100
5, 8240, Note_on_c, 4, 60, 0
5, 8240, Note_on_c, 4, 64, 0
5, 8240, Note_on_c, 4, 57, 0
5, 8280, Note_on_c, 4, 64, 100
5, 8280, Note_on_c, 4, 57, 100
5, 8280, Note_on_c, 4, 60, 100
5, 8300, Note_on_c, 4, 45, 0
5, 8340, Note_on_c, 4, 45, 100
5, 8360, Note_on_c, 4, 64, 0
5, 8360, Note_on_c, 4, 60, 0
5, 8360, Note_on_c, 4, 57, 0
5, 8400, Note_on_c, 4, 64, 100
5, 8400, Note_on_c, 4, 57, 100
5, 8400, Note_on_c, 4, 60, 100
5, 8420, Note_on_c, 4, 45, 0
5, 8480, Note_on_c, 4, 64, 0
5, 8480, Note_on_c, 4, 57, 0
5, 8480, Note_on_c, 4, 60, 0
5, 8520, Note_on_c, 4, 64, 100
5, 8520, Note_on_c, 4, 57, 100
5, 8520, Note_on_c, 4, 60, 100
5, 8600, Note_on_c, 4, 60, 0
5, 8600, Note_on_c, 4, 57, 0
5, 8600, Note_on_c, 4, 64, 0
5, 8640, Note_on_c, 4, 65, 100
5, 8640, Note_on_c, 4, 57, 100
5, 8640, Note_on_c, 4, 62, 100
5, 8720, Note_on_c, 4, 62, 0
5, 8720, Note_on_c, 4, 57, 0
5, 8720, Note_on_c, 4, 65, 0
5, 8760, Note_on_c, 4, 65, 100
5, 8760, Note_on_c, 4, 57, 100
5, 8760, Note_on_c, 4, 62, 100
5, 8840, Note_on_c, 4, 62, 0
5, 8840, Note_on_c, 4, 57, 0
5, 8840, Note_on_c, 4, 65, 0
5, 8880, Note_on_c, 4, 65, 100
5, 8880, Note_on_c, 4, 57, 100
5, 8880, Note_on_c, 4, 62, 100
5, 8960, Note_on_c, 4, 62, 0
5, 8960, Note_on_c, 4, 57, 0
5, 8960, Note_on_c, 4, 65, 0
5, 9000, Note_on_c, 4, 65, 100
5, 9000, Note_on_c, 4, 57, 100
5, 9000, Note_on_c, 4, 62, 100
5, 9080, Note_on_c, 4, 62, 0
5, 9080, Note_on_c, 4, 57, 0
5, 9080, Note_on_c, 4, 65, 0
5, 9120, Note_on_c, 4, 62, 100
5, 9120, Note_on_c, 4, 67, 100
5, 9120, Note_on_c, 4, 71, 100
5, 9200, Note_on_c, 4, 71, 0
5, 9200, Note_on_c, 4, 67, 0
5, 9200, Note_on_c, 4, 62, 0
5, 9240, Note_on_c, 4, 62, 100
5, 9240, Note_on_c, 4, 71, 100
5, 9240, Note_on_c, 4, 67, 100
5, 9320, Note_on_c, 4, 67, 0
5, 9320, Note_on_c, 4, 71, 0
5, 9320, Note_on_c, 4, 62, 0
5, 9360, Note_on_c, 4, 62, 100
5, 9360, Note_on_c, 4, 67, 100
5, 9360, Note_on_c, 4, 71, 100
5, 9360, Note_on_c, 4, 31, 100
5, 9415, Note_on_c, 4, 31, 0
5, 9420, Note_on_c, 4, 38, 100
5, 9440, Note_on_c, 4, 62, 0
5, 9440, Note_on_c, 4, 71, 0
5, 9440, Note_on_c, 4, 67, 0
5, 9475, Note_on_c, 4, 38, 0
5, 9480, Note_on_c, 4, 67, 100
5, 9480, Note_on_c, 4, 71, 100
5, 9480, Note_on_c, 4, 62, 100
5, 9480, Note_on_c, 4, 43, 100
5, 9535, Note_on_c, 4, 43, 0
5, 9540, Note_on_c, 4, 42, 100
5, 9560, Note_on_c, 4, 67, 0
5, 9560, Note_on_c, 4, 62, 0
5, 9560, Note_on_c, 4, 71, 0
5, 9595, Note_on_c, 4, 42, 0
5, 9600, Note_on_c, 4, 64, 100
5, 9600, Note_on_c, 4, 53, 100
5, 9600, Note_on_c, 4, 57, 100
5, 9600, Note_on_c, 4, 60, 100
5, 9840, Note_on_c, 4, 60, 0
5, 9840, Note_on_c, 4, 64, 0
5, 9840, Note_on_c, 4, 53, 0
5, 9840, Note_on_c, 4, 57, 0
5, 9840, Note_on_c, 4, 62, 100
5, 9840, Note_on_c, 4, 59, 100
5, 9840, Note_on_c, 4, 55, 100
5, 9840, Note_on_c, 4, 52, 100
5, 10020, Note_on_c, 4, 52, 0
5, 10020, Note_on_c, 4, 62, 0
5, 10020, Note_on_c, 4, 59, 0
5, 10020, Note_on_c, 4, 55, 0
5, 10020, Note_on_c, 4, 53, 100
5, 10020, Note_on_c, 4, 57, 100
5, 10020, Note_on_c, 4, 60, 100
5, 10500, Note_on_c, 4, 60, 0
5, 10500, Note_on_c, 4, 57, 0
5, 10500, Note_on_c, 4, 53, 0
5, 10560, Note_on_c, 4, 63, 100
5, 10560, Note_on_c, 4, 60, 100
5, 10560, Note_on_c, 4, 56, 100
5, 10650, Note_on_c, 4, 56, 0
5, 10650, Note_on_c, 4, 60, 0
5, 10650, Note_on_c, 4, 63, 0
5, 10680, Note_on_c, 4, 60, 100
5, 10680, Note_on_c, 4, 63, 100
5, 10680, Note_on_c, 4, 56, 100
5, 10770, Note_on_c, 4, 56, 0
5, 10770, Note_on_c, 4, 63, 0
5, 10770, Note_on_c, 4, 60, 0
5, 10800, Note_on_c, 4, 62, 100
5, 10800, Note_on_c, 4, 55, 100
5, 10800, Note_on_c, 4, 59, 100
5, 10890, Note_on_c, 4, 59, 0
5, 10890, Note_on_c, 4, 55, 0
5, 10890, Note_on_c, 4, 62, 0
5, 10920, Note_on_c, 4, 59, 100
5, 10920, Note_on_c, 4, 55, 100
5, 10920, Note_on_c, 4, 62, 100
5, 10975, Note_on_c, 4, 62, 0
5, 10975, Note_on_c, 4, 55, 0
5, 10975, Note_on_c, 4, 59, 0
5, 10980, Note_on_c, 4, 60, 100
5, 10980, Note_on_c, 4, 57, 100
5, 10980, Note_on_c, 4, 53, 100
5, 11460, Note_on_c, 4, 53, 0
5, 11460, Note_on_c, 4, 57, 0
5, 11460, Note_on_c, 4, 60, 0
5, 11520, Note_on_c, 4, 53, 100
5, 11520, Note_on_c, 4, 57, 100
5, 11520, Note_on_c, 4, 60, 100
5, 11520, Note_on_c, 4, 64, 100
5, 11640, Note_on_c, 4, 64, 0
5, 11640, Note_on_c, 4, 53, 0
5, 11640, Note_on_c, 4, 57, 0
5, 11640, Note_on_c, 4, 60, 0
5, 11640, Note_on_c, 4, 53, 100
5, 11640, Note_on_c, 4, 57, 100
5, 11640, Note_on_c, 4, 60, 100
5, 11640, Note_on_c, 4, 64, 100
5, 11760, Note_on_c, 4, 64, 0
5, 11760, Note_on_c, 4, 53, 0
5, 11760, Note_on_c, 4, 57, 0
5, 11760, Note_on_c, 4, 60, 0
5, 11760, Note_on_c, 4, 62, 100
5, 11760, Note_on_c, 4, 59, 100
5, 11760, Note_on_c, 4, 55, 100
5, 11760, Note_on_c, 4, 52, 100
5, 11840, Note_on_c, 4, 52, 0
5, 11840, Note_on_c, 4, 62, 0
5, 11840, Note_on_c, 4, 59, 0
5, 11840, Note_on_c, 4, 55, 0
5, 11850, Note_on_c, 4, 57, 100
5, 11850, Note_on_c, 4, 53, 100
5, 11850, Note_on_c, 4, 60, 100
5, 11910, Note_on_c, 4, 60, 0
5, 11910, Note_on_c, 4, 53, 0
5, 11910, Note_on_c, 4, 57, 0
5, 11940, Note_on_c, 4, 53, 100
5, 11940, Note_on_c, 4, 57, 100
5, 11940, Note_on_c, 4, 60, 100
5, 11940, Note_on_c, 4, 60, 100
5, 12030, Note_on_c, 4, 60, 0
5, 12030, Note_on_c, 4, 53, 0
5, 12030, Note_on_c, 4, 57, 0
5, 12030, Note_on_c, 4, 60, 0
5, 12060, Note_on_c, 4, 53, 100
5, 12060, Note_on_c, 4, 57, 100
5, 12060, Note_on_c, 4, 60, 100
5, 12110, Note_on_c, 4, 60, 0
5, 12110, Note_on_c, 4, 57, 0
5, 12110, Note_on_c, 4, 53, 0
5, 12150, Note_on_c, 4, 67, 100
5, 12150, Note_on_c, 4, 71, 100
5, 12150, Note_on_c, 4, 62, 100
5, 12195, Note_on_c, 4, 62, 0
5, 12195, Note_on_c, 4, 71, 0
5, 12195, Note_on_c, 4, 67, 0
5, 12210, Note_on_c, 4, 53, 100
5, 12210, Note_on_c, 4, 57, 100
5, 12210, Note_on_c, 4, 60, 100
5, 12450, Note_on_c, 4, 60, 0
5, 12450, Note_on_c, 4, 57, 0
5, 12450, Note_on_c, 4, 53, 0
5, 12480, Note_on_c, 4, 53, 100
5, 12480, Note_on_c, 4, 57, 100
5, 12480, Note_on_c, 4, 60, 100
5, 12480, Note_on_c, 4, 64, 100
5, 12600, Note_on_c, 4, 64, 0
5, 12600, Note_on_c, 4, 53, 0
5, 12600, Note_on_c, 4, 57, 0
5, 12600, Note_on_c, 4, 60, 0
5, 12600, Note_on_c, 4, 53, 100
5, 12600, Note_on_c, 4, 57, 100
5, 12600, Note_on_c, 4, 60, 100
5, 12600, Note_on_c, 4, 64, 100
5, 12720, Note_on_c, 4, 64, 0
5, 12720, Note_on_c, 4, 53, 0
5, 12720, Note_on_c, 4, 57, 0
5, 12720, Note_on_c, 4, 60, 0
5, 12720, Note_on_c, 4, 62, 100
5, 12720, Note_on_c, 4, 59, 100
5, 12720, Note_on_c, 4, 55, 100
5, 12720, Note_on_c, 4, 52, 100
5, 12800, Note_on_c, 4, 52, 0
5, 12800, Note_on_c, 4, 62, 0
5, 12800, Note_on_c, 4, 59, 0
5, 12800, Note_on_c, 4, 55, 0
5, 12810, Note_on_c, 4, 57, 100
5, 12810, Note_on_c, 4, 53, 100
5, 12810, Note_on_c, 4, 60, 100
5, 12870, Note_on_c, 4, 60, 0
5, 12870, Note_on_c, 4, 53, 0
5, 12870, Note_on_c, 4, 57, 0
5, 12900, Note_on_c, 4, 53, 100
5, 12900, Note_on_c, 4, 57, 100
5, 12900, Note_on_c, 4, 60, 100
5, 12900, Note_on_c, 4, 60, 100
5, 12990, Note_on_c, 4, 60, 0
5, 12990, Note_on_c, 4, 53, 0
5, 12990, Note_on_c, 4, 57, 0
5, 12990, Note_on_c, 4, 60, 0
5, 13020, Note_on_c, 4, 53, 100
5, 13020, Note_on_c, 4, 57, 100
5, 13020, Note_on_c, 4, 60, 100
5, 13070, Note_on_c, 4, 60, 0
5, 13070, Note_on_c, 4, 57, 0
5, 13070, Note_on_c, 4, 53, 0
5, 13110, Note_on_c, 4, 67, 100
5, 13110, Note_on_c, 4, 71, 100
5, 13110, Note_on_c, 4, 62, 100
5, 13155, Note_on_c, 4, 62, 0
5, 13155, Note_on_c, 4, 71, 0
5, 13155, Note_on_c, 4, 67, 0
5, 13170, Note_on_c, 4, 53, 100
5, 13170, Note_on_c, 4, 57, 100
5, 13170, Note_on_c, 4, 60, 100
5, 13410, Note_on_c, 4, 60, 0
5, 13410, Note_on_c, 4, 57, 0
5, 13410, Note_on_c, 4, 53, 0
5, 13440, Note_on_c, 4, 53, 100
5, 13440, Note_on_c, 4, 57, 100
5, 13440, Note_on_c, 4, 60, 100
5, 13440, Note_on_c, 4, 64, 100
5, 13560, Note_on_c, 4, 64, 0
5, 13560, Note_on_c, 4, 53, 0
5, 13560, Note_on_c, 4, 57, 0
5, 13560, Note_on_c, 4, 60, 0
5, 13560, Note_on_c, 4, 53, 100
5, 13560, Note_on_c, 4, 57, 100
5, 13560, Note_on_c, 4, 60, 100
5, 13560, Note_on_c, 4, 64, 100
5, 13680, Note_on_c, 4, 64, 0
5, 13680, Note_on_c, 4, 53, 0
5, 13680, Note_on_c, 4, 57, 0
5, 13680, Note_on_c, 4, 60, 0
5, 13680, Note_on_c, 4, 62, 100
5, 13680, Note_on_c, 4, 59, 100
5, 13680, Note_on_c, 4, 55, 100
5, 13680, Note_on_c, 4, 52, 100
5, 13760, Note_on_c, 4, 52, 0
5, 13760, Note_on_c, 4, 62, 0
5, 13760, Note_on_c, 4, 59, 0
5, 13760, Note_on_c, 4, 55, 0
5, 13770, Note_on_c, 4, 57, 100
5, 13770, Note_on_c, 4, 53, 100
5, 13770, Note_on_c, 4, 60, 100
5, 13830, Note_on_c, 4, 60, 0
5, 13830, Note_on_c, 4, 53, 0
5, 13830, Note_on_c, 4, 57, 0
5, 13860, Note_on_c, 4, 53, 100
5, 13860, Note_on_c, 4, 57, 100
5, 13860, Note_on_c, 4, 60, 100
5, 13860, Note_on_c, 4, 60, 100
5, 13950, Note_on_c, 4, 60, 0
5, 13950, Note_on_c, 4, 53, 0
5, 13950, Note_on_c, 4, 57, 0
5, 13950, Note_on_c, 4, 60, 0
5, 13980, Note_on_c, 4, 53, 100
5, 13980, Note_on_c, 4, 57, 100
5, 13980, Note_on_c, 4, 60, 100
5, 14030, Note_on_c, 4, 60, 0
5, 14030, Note_on_c, 4, 57, 0
5, 14030, Note_on_c, 4, 53, 0
5, 14070, Note_on_c, 4, 67, 100
5, 14070, Note_on_c, 4, 71, 100
5, 14070, Note_on_c, 4, 62, 100
5, 14115, Note_on_c, 4, 62, 0
5, 14115, Note_on_c, 4, 71, 0
5, 14115, Note_on_c, 4, 67, 0
5, 14130, Note_on_c, 4, 53, 100
5, 14130, Note_on_c, 4, 57, 100
5, 14130, Note_on_c, 4, 60, 100
5, 14370, Note_on_c, 4, 60, 0
5, 14370, Note_on_c, 4, 57, 0
5, 14370, Note_on_c, 4, 53, 0
5, 14400, Note_on_c, 4, 53, 100
5, 14400, Note_on_c, 4, 57, 100
5, 14400, Note_on_c, 4, 60, 100
5, 14400, Note_on_c, 4, 64, 100
5, 14640, Note_on_c, 4, 64, 0
5, 14640, Note_on_c, 4, 53, 0
5, 14640, Note_on_c, 4, 57, 0
5, 14640, Note_on_c, 4, 60, 0
5, 14640, Note_on_c, 4, 62, 100
5, 14640, Note_on_c, 4, 59, 100
5, 14640, Note_on_c, 4, 55, 100
5, 14640, Note_on_c, 4, 52, 100
5, 14720, Note_on_c, 4, 52, 0
5, 14720, Note_on_c, 4, 62, 0
5, 14720, Note_on_c, 4, 59, 0
5, 14720, Note_on_c, 4, 55, 0
5, 14730, Note_on_c, 4, 57, 100
5, 14730, Note_on_c, 4, 53, 100
5, 14730, Note_on_c, 4, 60, 100
5, 14790, Note_on_c, 4, 60, 0
5, 14790, Note_on_c, 4, 53, 0
5, 14790, Note_on_c, 4, 57, 0
5, 14820, Note_on_c, 4, 55, 100
5, 14820, Note_on_c, 4, 65, 100
5, 14820, Note_on_c, 4, 57, 100
5, 14820, Note_on_c, 4, 60, 100
5, 15300, Note_on_c, 4, 60, 0
5, 15300, Note_on_c, 4, 55, 0
5, 15300, Note_on_c, 4, 65, 0
5, 15300, Note_on_c, 4, 57, 0
5, 15360, Note_on_c, 4, 65, 100
5, 15360, Note_on_c, 4, 57, 100
5, 15360, Note_on_c, 4, 62, 100
5, 15440, Note_on_c, 4, 62, 0
5, 15440, Note_on_c, 4, 57, 0
5, 15440, Note_on_c, 4, 65, 0
5, 15480, Note_on_c, 4, 65, 100
5, 15480, Note_on_c, 4, 57, 100
5, 15480, Note_on_c, 4, 62, 100
5, 15560, Note_on_c, 4, 62, 0
5, 15560, Note_on_c, 4, 57, 0
5, 15560, Note_on_c, 4, 65, 0
5, 15600, Note_on_c, 4, 65, 100
5, 15600, Note_on_c, 4, 57, 100
5, 15600, Note_on_c, 4, 62, 100
5, 15680, Note_on_c, 4, 62, 0
5, 15680, Note_on_c, 4, 57, 0
5, 15680, Note_on_c, 4, 65, 0
5, 15720, Note_on_c, 4, 65, 100
5, 15720, Note_on_c, 4, 57, 100
5, 15720, Note_on_c, 4, 62, 100
5, 15800, Note_on_c, 4, 62, 0
5, 15800, Note_on_c, 4, 57, 0
5, 15800, Note_on_c, 4, 65, 0
5, 15840, Note_on_c, 4, 64, 100
5, 15840, Note_on_c, 4, 57, 100
5, 15840, Note_on_c, 4, 60, 100
5, 15900, Note_on_c, 4, 45, 100
5, 15920, Note_on_c, 4, 60, 0
5, 15920, Note_on_c, 4, 64, 0
5, 15920, Note_on_c, 4, 57, 0
5, 15960, Note_on_c, 4, 64, 100
5, 15960, Note_on_c, 4, 57, 100
5, 15960, Note_on_c, 4, 60, 100
5, 15980, Note_on_c, 4, 45, 0
5, 16020, Note_on_c, 4, 45, 100
5, 16040, Note_on_c, 4, 64, 0
5, 16040, Note_on_c, 4, 60, 0
5, 16040, Note_on_c, 4, 57, 0
5, 16080, Note_on_c, 4, 64, 100
5, 16080, Note_on_c, 4, 57, 100
5, 16080, Note_on_c, 4, 60, 100
5, 16100, Note_on_c, 4, 45, 0
5, 16160, Note_on_c, 4, 64, 0
5, 16160, Note_on_c, 4, 57, 0
5, 16160, Note_on_c, 4, 60, 0
5, 16200, Note_on_c, 4, 64, 100
5, 16200, Note_on_c, 4, 57, 100
5, 16200, Note_on_c, 4, 60, 100
5, 16280, Note_on_c, 4, 60, 0
5, 16280, Note_on_c, 4, 57, 0
5, 16280, Note_on_c, 4, 64, 0
5, 16320, Note_on_c, 4, 65, 100
5, 16320, Note_on_c, 4, 57, 100
5, 16320, Note_on_c, 4, 62, 100
5, 16400, Note_on_c, 4, 62, 0
5, 16400, Note_on_c, 4, 57, 0
5, 16400, Note_on_c, 4, 65, 0
5, 16440, Note_on_c, 4, 65, 100
5, 16440, Note_on_c, 4, 57, 100
5, 16440, Note_on_c, 4, 62, 100
5, 16520, Note_on_c, 4, 62, 0
5, 16520, Note_on_c, 4, 57, 0
5, 16520, Note_on_c, 4, 65, 0
5, 16560, Note_on_c, 4, 65, 100
5, 16560, Note_on_c, 4, 57, 100
5, 16560, Note_on_c, 4, 62, 100
5, 16640, Note_on_c, 4, 62, 0
5, 16640, Note_on_c, 4, 57, 0
5, 16640, Note_on_c, 4, 65, 0
5, 16680, Note_on_c, 4, 65, 100
5, 16680, Note_on_c, 4, 57, 100
5, 16680, Note_on_c, 4, 62, 100
5, 16740, Note_on_c, 4, 43, 100
5, 16760, Note_on_c, 4, 62, 0
5, 16760, Note_on_c, 4, 65, 0
5, 16760, Note_on_c, 4, 57, 0
5, 16795, Note_on_c, 4, 43, 0
5, 16800, Note_on_c, 4, 45, 100
5, 16800, Note_on_c, 4, 64, 100
5, 16800, Note_on_c, 4, 57, 100
5, 16800, Note_on_c, 4, 60, 100
5, 16880, Note_on_c, 4, 60, 0
5, 16880, Note_on_c, 4, 45, 0
5, 16880, Note_on_c, 4, 64, 0
5, 16880, Note_on_c, 4, 57, 0
5, 16920, Note_on_c, 4, 64, 100
5, 16920, Note_on_c, 4, 57, 100
5, 16920, Note_on_c, 4, 60, 100
5, 17000, Note_on_c, 4, 60, 0
5, 17000, Note_on_c, 4, 57, 0
5, 17000, Note_on_c, 4, 64, 0
5, 17040, Note_on_c, 4, 64, 100
5, 17040, Note_on_c, 4, 57, 100
5, 17040, Note_on_c, 4, 60, 100
5, 17040, Note_on_c, 4, 45, 100
5, 17095, Note_on_c, 4, 45, 0
5, 17100, Note_on_c, 4, 43, 100
5, 17120, Note_on_c, 4, 64, 0
5, 17120, Note_on_c, 4, 60, 0
5, 17120, Note_on_c, 4, 57, 0
5, 17155, Note_on_c, 4, 43, 0
5, 17160, Note_on_c, 4, 64, 100
5, 17160, Note_on_c, 4, 57, 100
5, 17160, Note_on_c, 4, 60, 100
5, 17160, Note_on_c, 4, 40, 100
5, 17215, Note_on_c, 4, 40, 0
5, 17220, Note_on_c, 4, 33, 100
5, 17240, Note_on_c, 4, 64, 0
5, 17240, Note_on_c, 4, 60, 0
5, 17240, Note_on_c, 4, 57, 0
5, 17280, Note_on_c, 4, 33, 0
5, 17280, Note_on_c, 4, 65, 100
5, 17280, Note_on_c, 4, 57, 100
5, 17280, Note_on_c, 4, 62, 100
5, 17360, Note_on_c, 4, 62, 0
5, 17360, Note_on_c, 4, 57, 0
5, 17360, Note_on_c, 4, 65, 0
5, 17400, Note_on_c, 4, 65, 100
5, 17400, Note_on_c, 4, 57, 100
5, 17400, Note_on_c, 4, 62, 100
5, 17480, Note_on_c, 4, 62, 0
5, 17480, Note_on_c, 4, 57, 0
5, 17480, Note_on_c, 4, 65, 0
5, 17520, Note_on_c, 4, 65, 100
5, 17520, Note_on_c, 4, 57, 100
5, 17520, Note_on_c, 4, 62, 100
5, 17600, Note_on_c, 4, 62, 0
5, 17600, Note_on_c, 4, 57, 0
5, 17600, Note_on_c, 4, 65, 0
5, 17640, Note_on_c, 4, 65, 100
5, 17640, Note_on_c, 4, 57, 100
5, 17640, Note_on_c, 4, 62, 100
5, 17720, Note_on_c, 4, 62, 0
5, 17720, Note_on_c, 4, 57, 0
5, 17720, Note_on_c, 4, 65, 0
5, 17760, Note_on_c, 4, 64, 100
5, 17760, Note_on_c, 4, 57, 100
5, 17760, Note_on_c, 4, 60, 100
5, 17820, Note_on_c, 4, 45, 100
5, 17840, Note_on_c, 4, 60, 0
5, 17840, Note_on_c, 4, 64, 0
5, 17840, Note_on_c, 4, 57, 0
5, 17880, Note_on_c, 4, 64, 100
5, 17880, Note_on_c, 4, 57, 100
5, 17880, Note_on_c, 4, 60, 100
5, 17900, Note_on_c, 4, 45, 0
5, 17940, Note_on_c, 4, 45, 100
5, 17960, Note_on_c, 4, 64, 0
5, 17960, Note_on_c, 4, 60, 0
5, 17960, Note_on_c, 4, 57, 0
5, 18000, Note_on_c, 4, 64, 100
5, 18000, Note_on_c, 4, 57, 100
5, 18000, Note_on_c, 4, 60, 100
5, 18020, Note_on_c, 4, 45, 0
5, 18080, Note_on_c, 4, 64, 0
5, 18080, Note_on_c, 4, 57, 0
5, 18080, Note_on_c, 4, 60, 0
5, 18120, Note_on_c, 4, 64, 100
5, 18120, Note_on_c, 4, 57, 100
5, 18120, Note_on_c, 4, 60, 100
5, 18200, Note_on_c, 4, 60, 0
5, 18200, Note_on_c, 4, 57, 0
5, 18200, Note_on_c, 4, 64, 0
5, 18240, Note_on_c, 4, 65, 100
5, 18240, Note_on_c, 4, 57, 100
5, 18240, Note_on_c, 4, 62, 100
5, 18320, Note_on_c, 4, 62, 0
5, 18320, Note_on_c, 4, 57, 0
5, 18320, Note_on_c, 4, 65, 0
5, 18360, Note_on_c, 4, 65, 100
5, 18360, Note_on_c, 4, 57, 100
5, 18360, Note_on_c, 4, 62, 100
5, 18440, Note_on_c, 4, 62, 0
5, 18440, Note_on_c, 4, 57, 0
5, 18440, Note_on_c, 4, 65, 0
5, 18480, Note_on_c, 4, 65, 100
5, 18480, Note_on_c, 4, 57, 100
5, 18480, Note_on_c, 4, 62, 100
5, 18560, Note_on_c, 4, 62, 0
5, 18560, Note_on_c, 4, 57, 0
5, 18560, Note_on_c, 4, 65, 0
5, 18600, Note_on_c, 4, 65, 100
5, 18600, Note_on_c, 4, 57, 100
5, 18600, Note_on_c, 4, 62, 100
5, 18680, Note_on_c, 4, 62, 0
5, 18680, Note_on_c, 4, 57, 0
5, 18680, Note_on_c, 4, 65, 0
5, 18720, Note_on_c, 4, 62, 100
5, 18720, Note_on_c, 4, 67, 100
5, 18720, Note_on_c, 4, 71, 100
5, 18800, Note_on_c, 4, 71, 0
5, 18800, Note_on_c, 4, 67, 0
5, 18800, Note_on_c, 4, 62, 0
5, 18840, Note_on_c, 4, 62, 100
5, 18840, Note_on_c, 4, 71, 100
5, 18840, Note_on_c, 4, 67, 100
5, 18920, Note_on_c, 4, 67, 0
5, 18920, Note_on_c, 4, 71, 0
5, 18920, Note_on_c, 4, 62, 0
5, 18960, Note_on_c, 4, 62, 100
5, 18960, Note_on_c, 4, 67, 100
5, 18960, Note_on_c, 4, 71, 100
5, 18960, Note_on_c, 4, 31, 100
5, 19015, Note_on_c, 4, 31, 0
5, 19020, Note_on_c, 4, 38, 100
5, 19040, Note_on_c, 4, 62, 0
5, 19040, Note_on_c, 4, 71, 0
5, 19040, Note_on_c, 4, 67, 0
5, 19075, Note_on_c, 4, 38, 0
5, 19080, Note_on_c, 4, 67, 100
5, 19080, Note_on_c, 4, 71, 100
5, 19080, Note_on_c, 4, 62, 100
5, 19080, Note_on_c, 4, 43, 100
5, 19135, Note_on_c, 4, 43, 0
5, 19140, Note_on_c, 4, 42, 100
5, 19160, Note_on_c, 4, 67, 0
5, 19160, Note_on_c, 4, 62, 0
5, 19160, Note_on_c, 4, 71, 0
5, 19195, Note_on_c, 4, 42, 0
5, 19200, Note_on_c, 4, 64, 100
5, 19200, Note_on_c, 4, 53, 100
5, 19200, Note_on_c, 4, 57, 100
5, 19200, Note_on_c, 4, 60, 100
5, 19440, Note_on_c, 4, 60, 0
5, 19440, Note_on_c, 4, 64, 0
5, 19440, Note_on_c, 4, 53, 0
5, 19440, Note_on_c, 4, 57, 0
5, 19440, Note_on_c, 4, 62, 100
5, 19440, Note_on_c, 4, 59, 100
5, 19440, Note_on_c, 4, 55, 100
5, 19440, Note_on_c, 4, 52, 100
5, 19620, Note_on_c, 4, 52, 0
5, 19620, Note_on_c, 4, 62, 0
5, 19620, Note_on_c, 4, 59, 0
5, 19620, Note_on_c, 4, 55, 0
5, 19620, Note_on_c, 4, 53, 100
5, 19620, Note_on_c, 4, 57, 100
5, 19620, Note_on_c, 4, 60, 100
5, 20100, Note_on_c, 4, 60, 0
5, 20100, Note_on_c, 4, 57, 0
5, 20100, Note_on_c, 4, 53, 0
5, 20160, Note_on_c, 4, 63, 100
5, 20160, Note_on_c, 4, 60, 100
5, 20160, Note_on_c, 4, 56, 100
5, 20250, Note_on_c, 4, 56, 0
5, 20250, Note_on_c, 4, 60, 0
5, 20250, Note_on_c, 4, 63, 0
5, 20280, Note_on_c, 4, 60, 100
5, 20280, Note_on_c, 4, 63, 100
5, 20280, Note_on_c, 4, 56, 100
5, 20370, Note_on_c, 4, 56, 0
5, 20370, Note_on_c, 4, 63, 0
5, 20370, Note_on_c, 4, 60, 0
5, 20400, Note_on_c, 4, 62, 100
5, 20400, Note_on_c, 4, 55, 100
5, 20400, Note_on_c, 4, 59, 100
5, 20490, Note_on_c, 4, 59, 0
5, 20490, Note_on_c, 4, 55, 0
5, 20490, Note_on_c, 4, 62, 0
5, 20520, Note_on_c, 4, 59, 100
5, 20520, Note_on_c, 4, 55, 100
5, 20520, Note_on_c, 4, 62, 100
5, 20575, Note_on_c, 4, 62, 0
5, 20575, Note_on_c, 4, 55, 0
5, 20575, Note_on_c, 4, 59, 0
5, 20580, Note_on_c, 4, 60, 100
5, 20580, Note_on_c, 4, 57, 100
5, 20580, Note_on_c, 4, 53, 100
5, 21060, Note_on_c, 4, 53, 0
5, 21060, Note_on_c, 4, 57, 0
5, 21060, Note_on_c, 4, 60, 0
5, 21120, Note_on_c, 4, 53, 100
5, 21120, Note_on_c, 4, 57, 100
5, 21120, Note_on_c, 4, 60, 100
5, 21120, Note_on_c, 4, 64, 100
5, 21240, Note_on_c, 4, 64, 0
5, 21240, Note_on_c, 4, 53, 0
5, 21240, Note_on_c, 4, 57, 0
5, 21240, Note_on_c, 4, 60, 0
5, 21240, Note_on_c, 4, 53, 100
5, 21240, Note_on_c, 4, 57, 100
5, 21240, Note_on_c, 4, 60, 100
5, 21240, Note_on_c, 4, 64, 100
5, 21360, Note_on_c, 4, 64, 0
5, 21360, Note_on_c, 4, 53, 0
5, 21360, Note_on_c, 4, 57, 0
5, 21360, Note_on_c, 4, 60, 0
5, 21360, Note_on_c, 4, 62, 100
5, 21360, Note_on_c, 4, 59, 100
5, 21360, Note_on_c, 4, 55, 100
5, 21360, Note_on_c, 4, 52, 100
5, 21440, Note_on_c, 4, 52, 0
5, 21440, Note_on_c, 4, 62, 0
5, 21440, Note_on_c, 4, 59, 0
5, 21440, Note_on_c, 4, 55, 0
5, 21450, Note_on_c, 4, 57, 100
5, 21450, Note_on_c, 4, 53, 100
5, 21450, Note_on_c, 4, 60, 100
5, 21510, Note_on_c, 4, 60, 0
5, 21510, Note_on_c, 4, 53, 0
5, 21510, Note_on_c, 4, 57, 0
5, 21540, Note_on_c, 4, 53, 100
5, 21540, Note_on_c, 4, 57, 100
5, 21540, Note_on_c, 4, 60, 100
5, 21540, Note_on_c, 4, 60, 100
5, 21630, Note_on_c, 4, 60, 0
5, 21630, Note_on_c, 4, 53, 0
5, 21630, Note_on_c, 4, 57, 0
5, 21630, Note_on_c, 4, 60, 0
5, 21660, Note_on_c, 4, 53, 100
5, 21660, Note_on_c, 4, 57, 100
5, 21660, Note_on_c, 4, 60, 100
5, 21710, Note_on_c, 4, 60, 0
5, 21710, Note_on_c, 4, 57, 0
5, 21710, Note_on_c, 4, 53, 0
5, 21750, Note_on_c, 4, 67, 100
5, 21750, Note_on_c, 4, 71, 100
5, 21750, Note_on_c, 4, 62, 100
5, 21795, Note_on_c, 4, 62, 0
5, 21795, Note_on_c, 4, 71, 0
5, 21795, Note_on_c, 4, 67, 0
5, 21810, Note_on_c, 4, 53, 100
5, 21810, Note_on_c, 4, 57, 100
5, 21810, Note_on_c, 4, 60, 100
5, 22050, Note_on_c, 4, 60, 0
5, 22050, Note_on_c, 4, 57, 0
5, 22050, Note_on_c, 4, 53, 0
5, 22080, Note_on_c, 4, 53, 100
5, 22080, Note_on_c, 4, 57, 100
5, 22080, Note_on_c, 4, 60, 100
5, 22080, Note_on_c, 4, 64, 100
5, 22200, Note_on_c, 4, 64, 0
5, 22200, Note_on_c, 4, 53, 0
5, 22200, Note_on_c, 4, 57, 0
5, 22200, Note_on_c, 4, 60, 0
5, 22200, Note_on_c, 4, 53, 100
5, 22200, Note_on_c, 4, 57, 100
5, 22200, Note_on_c, 4, 60, 100
5, 22200, Note_on_c, 4, 64, 100
5, 22320, Note_on_c, 4, 64, 0
5, 22320, Note_on_c, 4, 53, 0
5, 22320, Note_on_c, 4, 57, 0
5, 22320, Note_on_c, 4, 60, 0
5, 22320, Note_on_c, 4, 62, 100
5, 22320, Note_on_c, 4, 59, 100
5, 22320, Note_on_c, 4, 55, 100
5, 22320, Note_on_c, 4, 52, 100
5, 22400, Note_on_c, 4, 52, 0
5, 22400, Note_on_c, 4, 62, 0
5, 22400, Note_on_c, 4, 59, 0
5, 22400, Note_on_c, 4, 55, 0
5, 22410, Note_on_c, 4, 57, 100
5, 22410, Note_on_c, 4, 53, 100
5, 22410, Note_on_c, 4, 60, 100
5, 22470, Note_on_c, 4, 60, 0
5, 22470, Note_on_c, 4, 53, 0
5, 22470, Note_on_c, 4, 57, 0
5, 22500, Note_on_c, 4, 53, 100
5, 22500, Note_on_c, 4, 57, 100
5, 22500, Note_on_c, 4, 60, 100
5, 22500, Note_on_c, 4, 60, 100
5, 22590, Note_on_c, 4, 60, 0
5, 22590, Note_on_c, 4, 53, 0
5, 22590, Note_on_c, 4, 57, 0
5, 22590, Note_on_c, 4, 60, 0
5, 22620, Note_on_c, 4, 53, 100
5, 22620, Note_on_c, 4, 57, 100
5, 22620, Note_on_c, 4, 60, 100
5, 22670, Note_on_c, 4, 60, 0
5, 22670, Note_on_c, 4, 57, 0
5, 22670, Note_on_c, 4, 53, 0
5, 22710, Note_on_c, 4, 67, 100
5, 22710, Note_on_c, 4, 71, 100
5, 22710, Note_on_c, 4, 62, 100
5, 22755, Note_on_c, 4, 62, 0
5, 22755, Note_on_c, 4, 71, 0
5, 22755, Note_on_c, 4, 67, 0
5, 22770, Note_on_c, 4, 53, 100
5, 22770, Note_on_c, 4, 57, 100
5, 22770, Note_on_c, 4, 60, 100
5, 23010, Note_on_c, 4, 60, 0
5, 23010, Note_on_c, 4, 57, 0
5, 23010, Note_on_c, 4, 53, 0
5, 23040, Note_on_c, 4, 53, 100
5, 23040, Note_on_c, 4, 57, 100
5, 23040, Note_on_c, 4, 60, 100
5, 23040, Note_on_c, 4, 64, 100
5, 23160, Note_on_c, 4, 64, 0
5, 23160, Note_on_c, 4, 53, 0
5, 23160, Note_on_c, 4, 57, 0
5, 23160, Note_on_c, 4, 60, 0
5, 23160, Note_on_c, 4, 53, 100
5, 23160, Note_on_c, 4, 57, 100
5, 23160, Note_on_c, 4, 60, 100
5, 23160, Note_on_c, 4, 64, 100
5, 23280, Note_on_c, 4, 64, 0
5, 23280, Note_on_c, 4, 53, 0
5, 23280, Note_on_c, 4, 57, 0
5, 23280, Note_on_c, 4, 60, 0
5, 23280, Note_on_c, 4, 62, 100
5, 23280, Note_on_c, 4, 59, 100
5, 23280, Note_on_c, 4, 55, 100
5, 23280, Note_on_c, 4, 52, 100
5, 23360, Note_on_c, 4, 52, 0
5, 23360, Note_on_c, 4, 62, 0
5, 23360, Note_on_c, 4, 59, 0
5, 23360, Note_on_c, 4, 55, 0
5, 23370, Note_on_c, 4, 57, 100
5, 23370, Note_on_c, 4, 53, 100
5, 23370, Note_on_c, 4, 60, 100
5, 23430, Note_on_c, 4, 60, 0
5, 23430, Note_on_c, 4, 53, 0
5, 23430, Note_on_c, 4, 57, 0
5, 23460, Note_on_c, 4, 53, 100
5, 23460, Note_on_c, 4, 57, 100
5, 23460, Note_on_c, 4, 60, 100
5, 23460, Note_on_c, 4, 60, 100
5, 23550, Note_on_c, 4, 60, 0
5, 23550, Note_on_c, 4, 53, 0
5, 23550, Note_on_c, 4, 57, 0
5, 23550, Note_on_c, 4, 60, 0
5, 23580, Note_on_c, 4, 53, 100
5, 23580, Note_on_c, 4, 57, 100
5, 23580, Note_on_c, 4, 60, 100
5, 23630, Note_on_c, 4, 60, 0
5, 23630, Note_on_c, 4, 57, 0
5, 23630, Note_on_c, 4, 53, 0
5, 23670, Note_on_c, 4, 67, 100
5, 23670, Note_on_c, 4, 71, 100
5, 23670, Note_on_c, 4, 62, 100
5, 23715, Note_on_c, 4, 62, 0
5, 23715, Note_on_c, 4, 71, 0
5, 23715, Note_on_c, 4, 67, 0
5, 23730, Note_on_c, 4, 53, 100
5, 23730, Note_on_c, 4, 57, 100
5, 23730, Note_on_c, 4, 60, 100
5, 23970, Note_on_c, 4, 60, 0
5, 23970, Note_on_c, 4, 57, 0
5, 23970, Note_on_c, 4, 53, 0
5, 24000, Note_on_c, 4, 53, 100
5, 24000, Note_on_c, 4, 57, 100
5, 24000, Note_on_c, 4, 60, 100
5, 24000, Note_on_c, 4, 64, 100
5, 24240, Note_on_c, 4, 64, 0
5, 24240, Note_on_c, 4, 53, 0
5, 24240, Note_on_c, 4, 57, 0
5, 24240, Note_on_c, 4, 60, 0
5, 24240, Note_on_c, 4, 62, 100
5, 24240, Note_on_c, 4, 59, 100
5, 24240, Note_on_c, 4, 55, 100
5, 24240, Note_on_c, 4, 52, 100
5, 24320, Note_on_c, 4, 52, 0
5, 24320, Note_on_c, 4, 62, 0
5, 24320, Note_on_c, 4, 59, 0
5, 24320, Note_on_c, 4, 55, 0
5, 24330, Note_on_c, 4, 57, 100
5, 24330, Note_on_c, 4, 53, 100
5, 24330, Note_on_c, 4, 60, 100
5, 24390, Note_on_c, 4, 60, 0
5, 24390, Note_on_c, 4, 53, 0
5, 24390, Note_on_c, 4, 57, 0
5, 24420, Note_on_c, 4, 55, 100
5, 24420, Note_on_c, 4, 65, 100
5, 24420, Note_on_c, 4, 57, 100
5, 24420, Note_on_c, 4, 60, 100
5, 24900, Note_on_c, 4, 60, 0
5, 24900, Note_on_c, 4, 55, 0
5, 24900, Note_on_c, 4, 65, 0
5, 24900, Note_on_c, 4, 57, 0
5, 25080, Note_on_c, 4, 57, 100
5, 25080, Note_on_c, 4, 65, 100
5, 25080, Note_on_c, 4, 60, 100
5, 25160, Note_on_c, 4, 60, 0
5, 25160, Note_on_c, 4, 65, 0
5, 25160, Note_on_c, 4, 57, 0
5, 25170, Note_on_c, 4, 57, 100
5, 25170, Note_on_c, 4, 65, 100
5, 25170, Note_on_c, 4, 60, 100
5, 25190, Note_on_c, 4, 60, 0
5, 25190, Note_on_c, 4, 65, 0
5, 25190, Note_on_c, 4, 57, 0
5, 25260, Note_on_c, 4, 57, 100
5, 25260, Note_on_c, 4, 65, 100
5, 25260, Note_on_c, 4, 60, 100
5, 25440, Note_on_c, 4, 60, 0
5, 25440, Note_on_c, 4, 65, 0
5, 25440, Note_on_c, 4, 57, 0
5, 25560, Note_on_c, 4, 57, 100
5, 25560, Note_on_c, 4, 65, 100
5, 25560, Note_on_c, 4, 60, 100
5, 25640, Note_on_c, 4, 60, 0
5, 25640, Note_on_c, 4, 65, 0
5, 25640, Note_on_c, 4, 57, 0
5, 25650, Note_on_c, 4, 57, 100
5, 25650, Note_on_c, 4, 65, 100
5, 25650, Note_on_c, 4, 60, 100
5, 25670, Note_on_c, 4, 60, 0
5, 25670, Note_on_c, 4, 65, 0
5, 25670, Note_on_c, 4, 57, 0
5, 25740, Note_on_c, 4, 57, 100
5, 25740, Note_on_c, 4, 65, 100
5, 25740, Note_on_c, 4, 60, 100
5, 25920, Note_on_c, 4, 60, 0
5, 25920, Note_on_c, 4, 65, 0
5, 25920, Note_on_c, 4, 57, 0
5, 26040, Note_on_c, 4, 67, 100
5, 26040, Note_on_c, 4, 64, 100
5, 26040, Note_on_c, 4, 59, 100
5, 26120, Note_on_c, 4, 59, 0
5, 26120, Note_on_c, 4, 64, 0
5, 26120, Note_on_c, 4, 67, 0
5, 26130, Note_on_c, 4, 67, 100
5, 26130, Note_on_c, 4, 64, 100
5, 26130, Note_on_c, 4, 59, 100
5, 26150, Note_on_c, 4, 59, 0
5, 26150, Note_on_c, 4, 64, 0
5, 26150, Note_on_c, 4, 67, 0
5, 26220, Note_on_c, 4, 59, 100
5, 26220, Note_on_c, 4, 64, 100
5, 26220, Note_on_c, 4, 67, 100
5, 26400, Note_on_c, 4, 67, 0
5, 26400, Note_on_c, 4, 64, 0
5, 26400, Note_on_c, 4, 59, 0
5, 26520, Note_on_c, 4, 67, 100
5, 26520, Note_on_c, 4, 64, 100
5, 26520, Note_on_c, 4, 59, 100
5, 26600, Note_on_c, 4, 59, 0
5, 26600, Note_on_c, 4, 64, 0
5, 26600, Note_on_c, 4, 67, 0
5, 26610, Note_on_c, 4, 67, 100
5, 26610, Note_on_c, 4, 64, 100
5, 26610, Note_on_c, 4, 59, 100
5, 26630, Note_on_c, 4, 59, 0
5, 26630, Note_on_c, 4, 64, 0
5, 26630, Note_on_c, 4, 67, 0
5, 26700, Note_on_c, 4, 59, 100
5, 26700, Note_on_c, 4, 64, 100
5, 26700, Note_on_c, 4, 67, 100
5, 26880, Note_on_c, 4, 67, 0
5, 26880, Note_on_c, 4, 64, 0
5, 26880, Note_on_c, 4, 59, 0
5, 27000, Note_on_c, 4, 57, 100
5, 27000, Note_on_c, 4, 65, 100
5, 27000, Note_on_c, 4, 60, 100
5, 27080, Note_on_c, 4, 60, 0
5, 27080, Note_on_c, 4, 65, 0
5, 27080, Note_on_c, 4, 57, 0
5, 27090, Note_on_c, 4, 57, 100
5, 27090, Note_on_c, 4, 65, 100
5, 27090, Note_on_c, 4, 60, 100
5, 27110, Note_on_c, 4, 60, 0
5, 27110, Note_on_c, 4, 65, 0
5, 27110, Note_on_c, 4, 57, 0
5, 27180, Note_on_c, 4, 57, 100
5, 27180, Note_on_c, 4, 65, 100
5, 27180, Note_on_c, 4, 60, 100
5, 27360, Note_on_c, 4, 60, 0
5, 27360, Note_on_c, 4, 65, 0
5, 27360, Note_on_c, 4, 57, 0
5, 27480, Note_on_c, 4, 57, 100
5, 27480, Note_on_c, 4, 65, 100
5, 27480, Note_on_c, 4, 60, 100
5, 27560, Note_on_c, 4, 60, 0
5, 27560, Note_on_c, 4, 65, 0
5, 27560, Note_on_c, 4, 57, 0
5, 27570, Note_on_c, 4, 57, 100
5, 27570, Note_on_c, 4, 65, 100
5, 27570, Note_on_c, 4, 60, 100
5, 27590, Note_on_c, 4, 60, 0
5, 27590, Note_on_c, 4, 65, 0
5, 27590, Note_on_c, 4, 57, 0
5, 27660, Note_on_c, 4, 57, 100
5, 27660, Note_on_c, 4, 65, 100
5, 27660, Note_on_c, 4, 60, 100
5, 27840, Note_on_c, 4, 60, 0
5, 27840, Note_on_c, 4, 65, 0
5, 27840, Note_on_c, 4, 57, 0
5, 27960, Note_on_c, 4, 67, 100
5, 27960, Note_on_c, 4, 64, 100
5, 27960, Note_on_c, 4, 59, 100
5, 28040, Note_on_c, 4, 59, 0
5, 28040, Note_on_c, 4, 64, 0
5, 28040, Note_on_c, 4, 67, 0
5, 28050, Note_on_c, 4, 67, 100
5, 28050, Note_on_c, 4, 64, 100
5, 28050, Note_on_c, 4, 59, 100
5, 28070, Note_on_c, 4, 59, 0
5, 28070, Note_on_c, 4, 64, 0
5, 28070, Note_on_c, 4, 67, 0
5, 28140, Note_on_c, 4, 59, 100
5, 28140, Note_on_c, 4, 64, 100
5, 28140, Note_on_c, 4, 67, 100
5, 28260, Note_on_c, 4, 67, 0
5, 28260, Note_on_c, 4, 64, 0
5, 28260, Note_on_c, 4, 59, 0
5, 28260, Note_on_c, 4, 64, 100
5, 28260, Note_on_c, 4, 61, 100
5, 28260, Note_on_c, 4, 69, 100
5, 28500, Note_on_c, 4, 69, 0
5, 28500, Note_on_c, 4, 61, 0
5, 28500, Note_on_c, 4, 64, 0
5, 28560, Note_on_c, 4, 64, 100
5, 28560, Note_on_c, 4, 69, 100
5, 28640, Note_on_c, 4, 69, 0
5, 28640, Note_on_c, 4, 64, 0
5, 28650, Note_on_c, 4, 64, 100
5, 28650, Note_on_c, 4, 69, 100
5, 28700, Note_on_c, 4, 69, 0
5, 28700, Note_on_c, 4, 64, 0
5, 28710, Note_on_c, 4, 64, 100
5, 28710, Note_on_c, 4, 69, 100
5, 28735, Note_on_c, 4, 69, 0
5, 28735, Note_on_c, 4, 64, 0
5, 28740, Note_on_c, 4, 59, 100
5, 28740, Note_on_c, 4, 62, 100
5, 28740, Note_on_c, 4, 67, 100
5, 28780, Note_on_c, 4, 67, 0
5, 28780, Note_on_c, 4, 62, 0
5, 28789, Note_on_c, 4, 59, 0
5, 28800, Note_on_c, 4, 53, 100
5, 28800, Note_on_c, 4, 57, 100
5, 28800, Note_on_c, 4, 60, 100
5, 28800, Note_on_c, 4, 64, 100
5, 28920, Note_on_c, 4, 64, 0
5, 28920, Note_on_c, 4, 53, 0
5, 28920, Note_on_c, 4, 57, 0
5, 28920, Note_on_c, 4, 60, 0
5, 28920, Note_on_c, 4, 53, 100
5, 28920, Note_on_c, 4, 57, 100
5, 28920, Note_on_c, 4, 60, 100
5, 28920, Note_on_c, 4, 64, 100
5, 29040, Note_on_c, 4, 64, 0
5, 29040, Note_on_c, 4, 53, 0
5, 29040, Note_on_c, 4, 57, 0
5, 29040, Note_on_c, 4, 60, 0
5, 29040, Note_on_c, 4, 62, 100
5, 29040, Note_on_c, 4, 59, 100
5, 29040, Note_on_c, 4, 55, 100
5, 29040, Note_on_c, 4, 52, 100
5, 29120, Note_on_c, 4, 52, 0
5, 29120, Note_on_c, 4, 62, 0
5, 29120, Note_on_c, 4, 59, 0
5, 29120, Note_on_c, 4, 55, 0
5, 29130, Note_on_c, 4, 57, 100
5, 29130, Note_on_c, 4, 53, 100
5, 29130, Note_on_c, 4, 60, 100
5, 29190, Note_on_c, 4, 60, 0
5, 29190, Note_on_c, 4, 53, 0
5, 29190, Note_on_c, 4, 57, 0
5, 29220, Note_on_c, 4, 53, 100
5, 29220, Note_on_c, 4, 57, 100
5, 29220, Note_on_c, 4, 60, 100
5, 29220, Note_on_c, 4, 60, 100
5, 29310, Note_on_c, 4, 60, 0
5, 29310, Note_on_c, 4, 53, 0
5, 29310, Note_on_c, 4, 57, 0
5, 29310, Note_on_c, 4, 60, 0
5, 29340, Note_on_c, 4, 53, 100
5, 29340, Note_on_c, 4, 57, 100
5, 29340, Note_on_c, 4, 60, 100
5, 29390, Note_on_c, 4, 60, 0
5, 29390, Note_on_c, 4, 57, 0
5, 29390, Note_on_c, 4, 53, 0
5, 29430, Note_on_c, 4, 67, 100
5, 29430, Note_on_c, 4, 71, 100
5, 29430, Note_on_c, 4, 62, 100
5, 29475, Note_on_c, 4, 62, 0
5, 29475, Note_on_c, 4, 71, 0
5, 29475, Note_on_c, 4, 67, 0
5, 29490, Note_on_c, 4, 53, 100
5, 29490, Note_on_c, 4, 57, 100
5, 29490, Note_on_c, 4, 60, 100
5, 29730, Note_on_c, 4, 60, 0
5, 29730, Note_on_c, 4, 57, 0
5, 29730, Note_on_c, 4, 53, 0
5, 29760, Note_on_c, 4, 53, 100
5, 29760, Note_on_c, 4, 57, 100
5, 29760, Note_on_c, 4, 60, 100
5, 29760, Note_on_c, 4, 64, 100
5, 29880, Note_on_c, 4, 64, 0
5, 29880, Note_on_c, 4, 53, 0
5, 29880, Note_on_c, 4, 57, 0
5, 29880, Note_on_c, 4, 60, 0
5, 29880, Note_on_c, 4, 53, 100
5, 29880, Note_on_c, 4, 57, 100
5, 29880, Note_on_c, 4, 60, 100
5, 29880, Note_on_c, 4, 64, 100
5, 30000, Note_on_c, 4, 64, 0
5, 30000, Note_on_c, 4, 53, 0
5, 30000, Note_on_c, 4, 57, 0
5, 30000, Note_on_c, 4, 60, 0
5, 30000, Note_on_c, 4, 62, 100
5, 30000, Note_on_c, 4, 59, 100
5, 30000, Note_on_c, 4, 55, 100
5, 30000, Note_on_c, 4, 52, 100
5, 30080, Note_on_c, 4, 52, 0
5, 30080, Note_on_c, 4, 62, 0
5, 30080, Note_on_c, 4, 59, 0
5, 30080, Note_on_c, 4, 55, 0
5, 30090, Note_on_c, 4, 57, 100
5, 30090, Note_on_c, 4, 53, 100
5, 30090, Note_on_c, 4, 60, 100
5, 30150, Note_on_c, 4, 60, 0
5, 30150, Note_on_c, 4, 53, 0
5, 30150, Note_on_c, 4, 57, 0
5, 30180, Note_on_c, 4, 53, 100
5, 30180, Note_on_c, 4, 57, 100
5, 30180, Note_on_c, 4, 60, 100
5, 30180, Note_on_c, 4, 60, 100
5, 30270, Note_on_c, 4, 60, 0
5, 30270, Note_on_c, 4, 53, 0
5, 30270, Note_on_c, 4, 57, 0
5, 30270, Note_on_c, 4, 60, 0
5, 30300, Note_on_c, 4, 53, 100
5, 30300, Note_on_c, 4, 57, 100
5, 30300, Note_on_c, 4, 60, 100
5, 30350, Note_on_c, 4, 60, 0
5, 30350, Note_on_c, 4, 57, 0
5, 30350, Note_on_c, 4, 53, 0
5, 30390, Note_on_c, 4, 67, 100
5, 30390, Note_on_c, 4, 71, 100
5, 30390, Note_on_c, 4, 62, 100
5, 30435, Note_on_c, 4, 62, 0
5, 30435, Note_on_c, 4, 71, 0
5, 30435, Note_on_c, 4, 67, 0
5, 30450, Note_on_c, 4, 53, 100
5, 30450, Note_on_c, 4, 57, 100
5, 30450, Note_on_c, 4, 60, 100
5, 30690, Note_on_c, 4, 60, 0
5, 30690, Note_on_c, 4, 57, 0
5, 30690, Note_on_c, 4, 53, 0
5, 30720, Note_on_c, 4, 53, 100
5, 30720, Note_on_c, 4, 57, 100
5, 30720, Note_on_c, 4, 60, 100
5, 30720, Note_on_c, 4, 64, 100
5, 30840, Note_on_c, 4, 64, 0
5, 30840, Note_on_c, 4, 53, 0
5, 30840, Note_on_c, 4, 57, 0
5, 30840, Note_on_c, 4, 60, 0
5, 30840, Note_on_c, 4, 53, 100
5, 30840, Note_on_c, 4, 57, 100
5, 30840, Note_on_c, 4, 60, 100
5, 30840, Note_on_c, 4, 64, 100
5, 30960, Note_on_c, 4, 64, 0
5, 30960, Note_on_c, 4, 53, 0
5, 30960, Note_on_c, 4, 57, 0
5, 30960, Note_on_c, 4, 60, 0
5, 30960, Note_on_c, 4, 62, 100
5, 30960, Note_on_c, 4, 59, 100
5, 30960, Note_on_c, 4, 55, 100
5, 30960, Note_on_c, 4, 52, 100
5, 31040, Note_on_c, 4, 52, 0
5, 31040, Note_on_c, 4, 62, 0
5, 31040, Note_on_c, 4, 59, 0
5, 31040, Note_on_c, 4, 55, 0
5, 31050, Note_on_c, 4, 57, 100
5, 31050, Note_on_c, 4, 53, 100
5, 31050, Note_on_c, 4, 60, 100
5, 31110, Note_on_c, 4, 60, 0
5, 31110, Note_on_c, 4, 53, 0
5, 31110, Note_on_c, 4, 57, 0
5, 31140, Note_on_c, 4, 53, 100
5, 31140, Note_on_c, 4, 57, 100
5, 31140, Note_on_c, 4, 60, 100
5, 31140, Note_on_c, 4, 60, 100
5, 31230, Note_on_c, 4, 60, 0
5, 31230, Note_on_c, 4, 53, 0
5, 31230, Note_on_c, 4, 57, 0
5, 31230, Note_on_c, 4, 60, 0
5, 31260, Note_on_c, 4, 53, 100
5, 31260, Note_on_c, 4, 57, 100
5, 31260, Note_on_c, 4, 60, 100
5, 31310, Note_on_c, 4, 60, 0
5, 31310, Note_on_c, 4, 57, 0
5, 31310, Note_on_c, 4, 53, 0
5, 31350, Note_on_c, 4, 67, 100
5, 31350, Note_on_c, 4, 71, 100
5, 31350, Note_on_c, 4, 62, 100
5, 31395, Note_on_c, 4, 62, 0
5, 31395, Note_on_c, 4, 71, 0
5, 31395, Note_on_c, 4, 67, 0
5, 31410, Note_on_c, 4, 53, 100
5, 31410, Note_on_c, 4, 57, 100
5, 31410, Note_on_c, 4, 60, 100
5, 31650, Note_on_c, 4, 60, 0
5, 31650, Note_on_c, 4, 57, 0
5, 31650, Note_on_c, 4, 53, 0
5, 31680, Note_on_c, 4, 53, 100
5, 31680, Note_on_c, 4, 57, 100
5, 31680, Note_on_c, 4, 60, 100
5, 31680, Note_on_c, 4, 64, 100
5, 31920, Note_on_c, 4, 64, 0
5, 31920, Note_on_c, 4, 53, 0
5, 31920, Note_on_c, 4, 57, 0
5, 31920, Note_on_c, 4, 60, 0
5, 31920, Note_on_c, 4, 62, 100
5, 31920, Note_on_c, 4, 59, 100
5, 31920, Note_on_c, 4, 55, 100
5, 31920, Note_on_c, 4, 52, 100
5, 32000, Note_on_c, 4, 52, 0
5, 32000, Note_on_c, 4, 62, 0
5, 32000, Note_on_c, 4, 59, 0
5, 32000, Note_on_c, 4, 55, 0
5, 32010, Note_on_c, 4, 57, 100
5, 32010, Note_on_c, 4, 53, 100
5, 32010, Note_on_c, 4, 60, 100
5, 32070, Note_on_c, 4, 60, 0
5, 32070, Note_on_c, 4, 53, 0
5, 32070, Note_on_c, 4, 57, 0
5, 32100, Note_on_c, 4, 55, 100
5, 32100, Note_on_c, 4, 65, 100
5, 32100, Note_on_c, 4, 57, 100
5, 32100, Note_on_c, 4, 60, 100
5, 32580, Note_on_c, 4, 60, 0
5, 32580, Note_on_c, 4, 55, 0
5, 32580, Note_on_c, 4, 65, 0
5, 32580, Note_on_c, 4, 57, 0
5, 32760, Note_on_c, 4, 57, 100
5, 32760, Note_on_c, 4, 65, 100
5, 32760, Note_on_c, 4, 60, 100
5, 32840, Note_on_c, 4, 60, 0
5, 32840, Note_on_c, 4, 65, 0
5, 32840, Note_on_c, 4, 57, 0
5, 32850, Note_on_c, 4, 57, 100
5, 32850, Note_on_c, 4, 65, 100
5, 32850, Note_on_c, 4, 60, 100
5, 32870, Note_on_c, 4, 60, 0
5, 32870, Note_on_c, 4, 65, 0
5, 32870, Note_on_c, 4, 57, 0
5, 32940, Note_on_c, 4, 57, 100
5, 32940, Note_on_c, 4, 65, 100
5, 32940, Note_on_c, 4, 60, 100
5, 33120, Note_on_c, 4, 60, 0
5, 33120, Note_on_c, 4, 65, 0
5, 33120, Note_on_c, 4, 57, 0
5, 33240, Note_on_c, 4, 57, 100
5, 33240, Note_on_c, 4, 65, 100
5, 33240, Note_on_c, 4, 60, 100
5, 33320, Note_on_c, 4, 60, 0
5, 33320, Note_on_c, 4, 65, 0
5, 33320, Note_on_c, 4, 57, 0
5, 33330, Note_on_c, 4, 57, 100
5, 33330, Note_on_c, 4, 65, 100
5, 33330, Note_on_c, 4, 60, 100
5, 33350, Note_on_c, 4, 60, 0
5, 33350, Note_on_c, 4, 65, 0
5, 33350, Note_on_c, 4, 57, 0
5, 33420, Note_on_c, 4, 57, 100
5, 33420, Note_on_c, 4, 65, 100
5, 33420, Note_on_c, 4, 60, 100
5, 33600, Note_on_c, 4, 60, 0
5, 33600, Note_on_c, 4, 65, 0
5, 33600, Note_on_c, 4, 57, 0
5, 33720, Note_on_c, 4, 67, 100
5, 33720, Note_on_c, 4, 64, 100
5, 33720, Note_on_c, 4, 59, 100
5, 33800, Note_on_c, 4, 59, 0
5, 33800, Note_on_c, 4, 64, 0
5, 33800, Note_on_c, 4, 67, 0
5, 33810, Note_on_c, 4, 67, 100
5, 33810, Note_on_c, 4, 64, 100
5, 33810, Note_on_c, 4, 59, 100
5, 33830, Note_on_c, 4, 59, 0
5, 33830, Note_on_c, 4, 64, 0
5, 33830, Note_on_c, 4, 67, 0
5, 33900, Note_on_c, 4, 59, 100
5, 33900, Note_on_c, 4, 64, 100
5, 33900, Note_on_c, 4, 67, 100
5, 34020, Note_on_c, 4, 67, 0
5, 34020, Note_on_c, 4, 64, 0
5, 34020, Note_on_c, 4, 59, 0
5, 34020, Note_on_c, 4, 64, 100
5, 34020, Note_on_c, 4, 61, 100
5, 34020, Note_on_c, 4, 69, 100
5, 34260, Note_on_c, 4, 69, 0
5, 34260, Note_on_c, 4, 61, 0
5, 34260, Note_on_c, 4, 64, 0
5, 34320, Note_on_c, 4, 64, 100
5, 34320, Note_on_c, 4, 69, 100
5, 34400, Note_on_c, 4, 69, 0
5, 34400, Note_on_c, 4, 64, 0
5, 34410, Note_on_c, 4, 64, 100
5, 34410, Note_on_c, 4, 69, 100
5, 34460, Note_on_c, 4, 69, 0
5, 34460, Note_on_c, 4, 64, 0
5, 34470, Note_on_c, 4, 64, 100
5, 34470, Note_on_c, 4, 69, 100
5, 34495, Note_on_c, 4, 69, 0
5, 34495, Note_on_c, 4, 64, 0
5, 34500, Note_on_c, 4, 59, 100
5, 34500, Note_on_c, 4, 62, 100
5, 34500, Note_on_c, 4, 67, 100
5, 34540, Note_on_c, 4, 67, 0
5, 34540, Note_on_c, 4, 62, 0
5, 34549, Note_on_c, 4, 59, 0
5, 34560, Note_on_c, 4, 53, 100
5, 34560, Note_on_c, 4, 57, 100
5, 34560, Note_on_c, 4, 60, 100
5, 34560, Note_on_c, 4, 64, 100
5, 34680, Note_on_c, 4, 64, 0
5, 34680, Note_on_c, 4, 53, 0
5, 34680, Note_on_c, 4, 57, 0
5, 34680, Note_on_c, 4, 60, 0
5, 34680, Note_on_c, 4, 53, 96
5, 34680, Note_on_c, 4, 57, 96
5, 34680, Note_on_c, 4, 60, 96
5, 34680, Note_on_c, 4, 64, 96
5, 34800, Note_on_c, 4, 64, 0
5, 34800, Note_on_c, 4, 53, 0
5, 34800, Note_on_c, 4, 57, 0
5, 34800, Note_on_c, 4, 60, 0
5, 34800, Note_on_c, 4, 62, 92
5, 34800, Note_on_c, 4, 59, 92
5, 34800, Note_on_c, 4, 55, 92
5, 34800, Note_on_c, 4, 52, 92
5, 34880, Note_on_c, 4, 52, 0
5, 34880, Note_on_c, 4, 62, 0
5, 34880, Note_on_c, 4, 59, 0
5, 34880, Note_on_c, 4, 55, 0
5, 34890, Note_on_c, 4, 57, 89
5, 34890, Note_on_c, 4, 53, 89
5, 34890, Note_on_c, 4, 60, 89
5, 34950, Note_on_c, 4, 60, 0
5, 34950, Note_on_c, 4, 53, 0
5, 34950, Note_on_c, 4, 57, 0
5, 34980, Note_on_c, 4, 53, 86
5, 34980, Note_on_c, 4, 57, 86
5, 34980, Note_on_c, 4, 60, 86
5, 34980, Note_on_c, 4, 60, 86
5, 35070, Note_on_c, 4, 60, 0
5, 35070, Note_on_c, 4, 53, 0
5, 35070, Note_on_c, 4, 57, 0
5, 35070, Note_on_c, 4, 60, 0
5, 35100, Note_on_c, 4, 53, 82
5, 35100, Note_on_c, 4, 57, 82
5, 35100, Note_on_c, 4, 60, 82
5, 35150, Note_on_c, 4, 60, 0
5, 35150, Note_on_c, 4, 57, 0
5, 35150, Note_on_c, 4, 53, 0
5, 35190, Note_on_c, 4, 67, 79
5, 35190, Note_on_c, 4, 71, 79
5, 35190, Note_on_c, 4, 62, 79
5, 35235, Note_on_c, 4, 62, 0
5, 35235, Note_on_c, 4, 71, 0
5, 35235, Note_on_c, 4, 67, 0
5, 35250, Note_on_c, 4, 53, 77
5, 35250, Note_on_c, 4, 57, 77
5, 35250, Note_on_c, 4, 60, 77
5, 35490, Note_on_c, 4, 60, 0
5, 35490, Note_on_c, 4, 57, 0
5, 35490, Note_on_c, 4, 53, 0
5, 35520, Note_on_c, 4, 53, 67
5, 35520, Note_on_c, 4, 57, 67
5, 35520, Note_on_c, 4, 60, 67
5, 35520, Note_on_c, 4, 64, 67
5, 35640, Note_on_c, 4, 64, 0
5, 35640, Note_on_c, 4, 53, 0
5, 35640, Note_on_c, 4, 57, 0
5, 35640, Note_on_c, 4, 60, 0
5, 35640, Note_on_c, 4, 53, 63
5, 35640, Note_on_c, 4, 57, 63
5, 35640, Note_on_c, 4, 60, 63
5, 35640, Note_on_c, 4, 64, 63
5, 35760, Note_on_c, 4, 64, 0
5, 35760, Note_on_c, 4, 53, 0
5, 35760, Note_on_c, 4, 57, 0
5, 35760, Note_on_c, 4, 60, 0
5, 35760, Note_on_c, 4, 62, 59
5, 35760, Note_on_c, 4, 59, 59
5, 35760, Note_on_c, 4, 55, 59
5, 35760, Note_on_c, 4, 52, 59
5, 35840, Note_on_c, 4, 52, 0
5, 35840, Note_on_c, 4, 62, 0
5, 35840, Note_on_c, 4, 59, 0
5, 35840, Note_on_c, 4, 55, 0
5, 35850, Note_on_c, 4, 57, 56
5, 35850, Note_on_c, 4, 53, 56
5, 35850, Note_on_c, 4, 60, 56
5, 35910, Note_on_c, 4, 60, 0
5, 35910, Note_on_c, 4, 53, 0
5, 35910, Note_on_c, 4, 57, 0
5, 35940, Note_on_c, 4, 53, 53
5, 35940, Note_on_c, 4, 57, 53
5, 35940, Note_on_c, 4, 60, 53
5, 35940, Note_on_c, 4, 60, 53
5, 36030, Note_on_c, 4, 60, 0
5, 36030, Note_on_c, 4, 53, 0
5, 36030, Note_on_c, 4, 57, 0
5, 36030, Note_on_c, 4, 60, 0
5, 36060, Note_on_c, 4, 53, 48
5, 36060, Note_on_c, 4, 57, 48
5, 36060, Note_on_c, 4, 60, 48
5, 36110, Note_on_c, 4, 60, 0
5, 36110, Note_on_c, 4, 57, 0
5, 36110, Note_on_c, 4, 53, 0
5, 36150, Note_on_c, 4, 67, 45
5, 36150, Note_on_c, 4, 71, 45
5, 36150, Note_on_c, 4, 62, 45
5, 36195, Note_on_c, 4, 62, 0
5, 36195, Note_on_c, 4, 71, 0
5, 36195, Note_on_c, 4, 67, 0
5, 36210, Note_on_c, 4, 53, 43
5, 36210, Note_on_c, 4, 57, 43
5, 36210, Note_on_c, 4, 60, 43
5, 36450, Note_on_c, 4, 60, 0
5, 36450, Note_on_c, 4, 57, 0
5, 36450, Note_on_c, 4, 53, 0
5, 36480, Note_on_c, 4, 53, 34
5, 36480, Note_on_c, 4, 57, 34
5, 36480, Note_on_c, 4, 60, 34
5, 36480, Note_on_c, 4, 64, 34
5, 36600, Note_on_c, 4, 64, 0
5, 36600, Note_on_c, 4, 53, 0
5, 36600, Note_on_c, 4, 57, 0
5, 36600, Note_on_c, 4, 60, 0
5, 36600, Note_on_c, 4, 53, 30
5, 36600, Note_on_c, 4, 57, 30
5, 36600, Note_on_c, 4, 60, 30
5, 36600, Note_on_c, 4, 64, 30
5, 36720, Note_on_c, 4, 64, 0
5, 36720, Note_on_c, 4, 53, 0
5, 36720, Note_on_c, 4, 57, 0
5, 36720, Note_on_c, 4, 60, 0
5, 36720, Note_on_c, 4, 62, 25
5, 36720, Note_on_c, 4, 59, 25
5, 36720, Note_on_c, 4, 55, 25
5, 36720, Note_on_c, 4, 52, 25
5, 36800, Note_on_c, 4, 52, 0
5, 36800, Note_on_c, 4, 62, 0
5, 36800, Note_on_c, 4, 59, 0
5, 36800, Note_on_c, 4, 55, 0
5, 36810, Note_on_c, 4, 57, 22
5, 36810, Note_on_c, 4, 53, 22
5, 36810, Note_on_c, 4, 60, 22
5, 36870, Note_on_c, 4, 60, 0
5, 36870, Note_on_c, 4, 53, 0
5, 36870, Note_on_c, 4, 57, 0
5, 36900, Note_on_c, 4, 53, 19
5, 36900, Note_on_c, 4, 57, 19
5, 36900, Note_on_c, 4, 60, 19
5, 36900, Note_on_c, 4, 60, 19
5, 36990, Note_on_c, 4, 60, 0
5, 36990, Note_on_c, 4, 53, 0
5, 36990, Note_on_c, 4, 57, 0
5, 36990, Note_on_c, 4, 60, 0
5, 37020, Note_on_c, 4, 53, 15
5, 37020, Note_on_c, 4, 57, 15
5, 37020, Note_on_c, 4, 60, 15
5, 37070, Note_on_c, 4, 60, 0
5, 37070, Note_on_c, 4, 57, 0
5, 37070, Note_on_c, 4, 53, 0
5, 37110, Note_on_c, 4, 67, 12
5, 37110, Note_on_c, 4, 71, 12
5, 37110, Note_on_c, 4, 62, 12
5, 37155, Note_on_c, 4, 62, 0
5, 37155, Note_on_c, 4, 71, 0
5, 37155, Note_on_c, 4, 67, 0
5, 37170, Note_on_c, 4, 53, 10
5, 37170, Note_on_c, 4, 57, 10
5, 37170, Note_on_c, 4, 60, 10
5, 37410, Note_on_c, 4, 60, 0
5, 37410, Note_on_c, 4, 57, 0
5, 37410, Note_on_c, 4, 53, 0
5, 37410, End_track
6, 0, Start_track
6, 0, MIDI_port, 0
6, 0, Program_c, 5, 85
6, 0, Control_c, 5, 7, 70
6, 0, Control_c, 5, 10, 0
6, 0, Control_c, 5, 1, 0
6, 10, Control_c, 5, 8, 64
6, 20, Control_c, 5, 11, 64
6, 120, Control_c, 5, 65, 0
6, 120, Control_c, 5, 67, 0
6, 120, Control_c, 5, 93, 0
6, 120, Control_c, 5, 91, 64
6, 120, Control_c, 5, 64, 0
6, 120, Pitch_bend_c, 5, 8192
6, 120, Control_c, 5, 68, 0
6, 2880, Note_on_c, 5, 53, 100
6, 2935, Note_on_c, 5, 53, 0
6, 2940, Note_on_c, 5, 53, 100
6, 2995, Note_on_c, 5, 53, 0
6, 3000, Note_on_c, 5, 53, 100
6, 3025, Note_on_c, 5, 53, 0
6, 3030, Note_on_c, 5, 53, 100
6, 3055, Note_on_c, 5, 53, 0
6, 3060, Note_on_c, 5, 53, 100
6, 3085, Note_on_c, 5, 53, 0
6, 3090, Note_on_c, 5, 53, 100
6, 3115, Note_on_c, 5, 53, 0
6, 3120, Note_on_c, 5, 52, 100
6, 3145, Note_on_c, 5, 52, 0
6, 3150, Note_on_c, 5, 52, 100
6, 3205, Note_on_c, 5, 52, 0
6, 3210, Note_on_c, 5, 50, 100
6, 3280, Note_on_c, 5, 50, 0
6, 3840, Note_on_c, 5, 53, 100
6, 3895, Note_on_c, 5, 53, 0
6, 3900, Note_on_c, 5, 53, 100
6, 3955, Note_on_c, 5, 53, 0
6, 3960, Note_on_c, 5, 53, 100
6, 3985, Note_on_c, 5, 53, 0
6, 3990, Note_on_c, 5, 53, 100
6, 4015, Note_on_c, 5, 53, 0
6, 4020, Note_on_c, 5, 53, 100
6, 4045, Note_on_c, 5, 53, 0
6, 4050, Note_on_c, 5, 53, 100
6, 4075, Note_on_c, 5, 53, 0
6, 4080, Note_on_c, 5, 52, 100
6, 4105, Note_on_c, 5, 52, 0
6, 4110, Note_on_c, 5, 52, 100
6, 4165, Note_on_c, 5, 52, 0
6, 4170, Note_on_c, 5, 50, 100
6, 4240, Note_on_c, 5, 50, 0
6, 4800, Note_on_c, 5, 53, 100
6, 4855, Note_on_c, 5, 53, 0
6, 4860, Note_on_c, 5, 53, 100
6, 4915, Note_on_c, 5, 53, 0
6, 4920, Note_on_c, 5, 53, 100
6, 4945, Note_on_c, 5, 53, 0
6, 4950, Note_on_c, 5, 53, 100
6, 4975, Note_on_c, 5, 53, 0
6, 4980, Note_on_c, 5, 53, 100
6, 5005, Note_on_c, 5, 53, 0
6, 5010, Note_on_c, 5, 53, 100
6, 5035, Note_on_c, 5, 53, 0
6, 5040, Note_on_c, 5, 52, 100
6, 5065, Note_on_c, 5, 52, 0
6, 5070, Note_on_c, 5, 52, 100
6, 5125, Note_on_c, 5, 52, 0
6, 5130, Note_on_c, 5, 50, 100
6, 5200, Note_on_c, 5, 50, 0
6, 9600, Note_on_c, 5, 53, 100
6, 9840, Note_on_c, 5, 53, 0
6, 9840, Note_on_c, 5, 52, 100
6, 10020, Note_on_c, 5, 52, 0
6, 10020, Note_on_c, 5, 50, 100
6, 10380, Note_on_c, 5, 50, 0
6, 11520, Note_on_c, 5, 53, 100
6, 11575, Note_on_c, 5, 53, 0
6, 11580, Note_on_c, 5, 53, 100
6, 11635, Note_on_c, 5, 53, 0
6, 11640, Note_on_c, 5, 53, 100
6, 11665, Note_on_c, 5, 53, 0
6, 11670, Note_on_c, 5, 53, 100
6, 11695, Note_on_c, 5, 53, 0
6, 11700, Note_on_c, 5, 53, 100
6, 11725, Note_on_c, 5, 53, 0
6, 11730, Note_on_c, 5, 53, 100
6, 11755, Note_on_c, 5, 53, 0
6, 11760, Note_on_c, 5, 52, 100
6, 11785, Note_on_c, 5, 52, 0
6, 11790, Note_on_c, 5, 52, 100
6, 11845, Note_on_c, 5, 52, 0
6, 11850, Note_on_c, 5, 50, 100
6, 11920, Note_on_c, 5, 50, 0
6, 12480, Note_on_c, 5, 53, 100
6, 12535, Note_on_c, 5, 53, 0
6, 12540, Note_on_c, 5, 53, 100
6, 12595, Note_on_c, 5, 53, 0
6, 12600, Note_on_c, 5, 53, 100
6, 12625, Note_on_c, 5, 53, 0
6, 12630, Note_on_c, 5, 53, 100
6, 12655, Note_on_c, 5, 53, 0
6, 12660, Note_on_c, 5, 53, 100
6, 12685, Note_on_c, 5, 53, 0
6, 12690, Note_on_c, 5, 53, 100
6, 12715, Note_on_c, 5, 53, 0
6, 12720, Note_on_c, 5, 52, 100
6, 12745, Note_on_c, 5, 52, 0
6, 12750, Note_on_c, 5, 52, 100
6, 12805, Note_on_c, 5, 52, 0
6, 12810, Note_on_c, 5, 50, 100
6, 12880, Note_on_c, 5, 50, 0
6, 13440, Note_on_c, 5, 53, 100
6, 13495, Note_on_c, 5, 53, 0
6, 13500, Note_on_c, 5, 53, 100
6, 13555, Note_on_c, 5, 53, 0
6, 13560, Note_on_c, 5, 53, 100
6, 13585, Note_on_c, 5, 53, 0
6, 13590, Note_on_c, 5, 53, 100
6, 13615, Note_on_c, 5, 53, 0
6, 13620, Note_on_c, 5, 53, 100
6, 13645, Note_on_c, 5, 53, 0
6, 13650, Note_on_c, 5, 53, 100
6, 13675, Note_on_c, 5, 53, 0
6, 13680, Note_on_c, 5, 52, 100
6, 13705, Note_on_c, 5, 52, 0
6, 13710, Note_on_c, 5, 52, 100
6, 13765, Note_on_c, 5, 52, 0
6, 13770, Note_on_c, 5, 50, 100
6, 13840, Note_on_c, 5, 50, 0
6, 14400, Note_on_c, 5, 53, 100
6, 14455, Note_on_c, 5, 53, 0
6, 14460, Note_on_c, 5, 53, 100
6, 14515, Note_on_c, 5, 53, 0
6, 14520, Note_on_c, 5, 53, 100
6, 14545, Note_on_c, 5, 53, 0
6, 14550, Note_on_c, 5, 53, 100
6, 14575, Note_on_c, 5, 53, 0
6, 14580, Note_on_c, 5, 53, 100
6, 14605, Note_on_c, 5, 53, 0
6, 14610, Note_on_c, 5, 53, 100
6, 14635, Note_on_c, 5, 53, 0
6, 14640, Note_on_c, 5, 52, 100
6, 14665, Note_on_c, 5, 52, 0
6, 14670, Note_on_c, 5, 52, 100
6, 14725, Note_on_c, 5, 52, 0
6, 14730, Note_on_c, 5, 50, 100
6, 14800, Note_on_c, 5, 50, 0
6, 15960, Note_on_c, 5, 57, 100
6, 16015, Note_on_c, 5, 57, 0
6, 16020, Note_on_c, 5, 60, 100
6, 16105, Note_on_c, 5, 60, 0
6, 16110, Note_on_c, 5, 55, 100
6, 16140, Note_on_c, 5, 55, 0
6, 16140, Note_on_c, 5, 57, 100
6, 16260, Note_on_c, 5, 57, 0
6, 17880, Note_on_c, 5, 57, 100
6, 17935, Note_on_c, 5, 57, 0
6, 17940, Note_on_c, 5, 60, 100
6, 18025, Note_on_c, 5, 60, 0
6, 18030, Note_on_c, 5, 55, 100
6, 18060, Note_on_c, 5, 55, 0
6, 18060, Note_on_c, 5, 57, 100
6, 18180, Note_on_c, 5, 57, 0
6, 19200, Note_on_c, 5, 53, 100
6, 19440, Note_on_c, 5, 53, 0
6, 19440, Note_on_c, 5, 52, 100
6, 19620, Note_on_c, 5, 52, 0
6, 19620, Note_on_c, 5, 50, 100
6, 19980, Note_on_c, 5, 50, 0
6, 21120, Note_on_c, 5, 53, 100
6, 21175, Note_on_c, 5, 53, 0
6, 21180, Note_on_c, 5, 53, 100
6, 21235, Note_on_c, 5, 53, 0
6, 21240, Note_on_c, 5, 53, 100
6, 21265, Note_on_c, 5, 53, 0
6, 21270, Note_on_c, 5, 53, 100
6, 21295, Note_on_c, 5, 53, 0
6, 21300, Note_on_c, 5, 53, 100
6, 21325, Note_on_c, 5, 53, 0
6, 21330, Note_on_c, 5, 53, 100
6, 21355, Note_on_c, 5, 53, 0
6, 21360, Note_on_c, 5, 52, 100
6, 21385, Note_on_c, 5, 52, 0
6, 21390, Note_on_c, 5, 52, 100
6, 21445, Note_on_c, 5, 52, 0
6, 21450, Note_on_c, 5, 50, 100
6, 21520, Note_on_c, 5, 50, 0
6, 22080, Note_on_c, 5, 53, 100
6, 22135, Note_on_c, 5, 53, 0
6, 22140, Note_on_c, 5, 53, 100
6, 22195, Note_on_c, 5, 53, 0
6, 22200, Note_on_c, 5, 53, 100
6, 22225, Note_on_c, 5, 53, 0
6, 22230, Note_on_c, 5, 53, 100
6, 22255, Note_on_c, 5, 53, 0
6, 22260, Note_on_c, 5, 53, 100
6, 22285, Note_on_c, 5, 53, 0
6, 22290, Note_on_c, 5, 53, 100
6, 22315, Note_on_c, 5, 53, 0
6, 22320, Note_on_c, 5, 52, 100
6, 22345, Note_on_c, 5, 52, 0
6, 22350, Note_on_c, 5, 52, 100
6, 22405, Note_on_c, 5, 52, 0
6, 22410, Note_on_c, 5, 50, 100
6, 22480, Note_on_c, 5, 50, 0
6, 23040, Note_on_c, 5, 53, 100
6, 23095, Note_on_c, 5, 53, 0
6, 23100, Note_on_c, 5, 53, 100
6, 23155, Note_on_c, 5, 53, 0
6, 23160, Note_on_c, 5, 53, 100
6, 23185, Note_on_c, 5, 53, 0
6, 23190, Note_on_c, 5, 53, 100
6, 23215, Note_on_c, 5, 53, 0
6, 23220, Note_on_c, 5, 53, 100
6, 23245, Note_on_c, 5, 53, 0
6, 23250, Note_on_c, 5, 53, 100
6, 23275, Note_on_c, 5, 53, 0
6, 23280, Note_on_c, 5, 52, 100
6, 23305, Note_on_c, 5, 52, 0
6, 23310, Note_on_c, 5, 52, 100
6, 23365, Note_on_c, 5, 52, 0
6, 23370, Note_on_c, 5, 50, 100
6, 23440, Note_on_c, 5, 50, 0
6, 24000, Note_on_c, 5, 53, 100
6, 24055, Note_on_c, 5, 53, 0
6, 24060, Note_on_c, 5, 53, 100
6, 24115, Note_on_c, 5, 53, 0
6, 24120, Note_on_c, 5, 53, 100
6, 24145, Note_on_c, 5, 53, 0
6, 24150, Note_on_c, 5, 53, 100
6, 24175, Note_on_c, 5, 53, 0
6, 24180, Note_on_c, 5, 53, 100
6, 24205, Note_on_c, 5, 53, 0
6, 24210, Note_on_c, 5, 53, 100
6, 24235, Note_on_c, 5, 53, 0
6, 24240, Note_on_c, 5, 52, 100
6, 24265, Note_on_c, 5, 52, 0
6, 24270, Note_on_c, 5, 52, 100
6, 24325, Note_on_c, 5, 52, 0
6, 24330, Note_on_c, 5, 50, 100
6, 24400, Note_on_c, 5, 50, 0
6, 28800, Note_on_c, 5, 53, 100
6, 28855, Note_on_c, 5, 53, 0
6, 28860, Note_on_c, 5, 53, 100
6, 28915, Note_on_c, 5, 53, 0
6, 28920, Note_on_c, 5, 53, 100
6, 28945, Note_on_c, 5, 53, 0
6, 28950, Note_on_c, 5, 53, 100
6, 28975, Note_on_c, 5, 53, 0
6, 28980, Note_on_c, 5, 53, 100
6, 29005, Note_on_c, 5, 53, 0
6, 29010, Note_on_c, 5, 53, 100
6, 29035, Note_on_c, 5, 53, 0
6, 29040, Note_on_c, 5, 52, 100
6, 29065, Note_on_c, 5, 52, 0
6, 29070, Note_on_c, 5, 52, 100
6, 29125, Note_on_c, 5, 52, 0
6, 29130, Note_on_c, 5, 50, 100
6, 29200, Note_on_c, 5, 50, 0
6, 29760, Note_on_c, 5, 53, 100
6, 29815, Note_on_c, 5, 53, 0
6, 29820, Note_on_c, 5, 53, 100
6, 29875, Note_on_c, 5, 53, 0
6, 29880, Note_on_c, 5, 53, 100
6, 29905, Note_on_c, 5, 53, 0
6, 29910, Note_on_c, 5, 53, 100
6, 29935, Note_on_c, 5, 53, 0
6, 29940, Note_on_c, 5, 53, 100
6, 29965, Note_on_c, 5, 53, 0
6, 29970, Note_on_c, 5, 53, 100
6, 29995, Note_on_c, 5, 53, 0
6, 30000, Note_on_c, 5, 52, 100
6, 30025, Note_on_c, 5, 52, 0
6, 30030, Note_on_c, 5, 52, 100
6, 30085, Note_on_c, 5, 52, 0
6, 30090, Note_on_c, 5, 50, 100
6, 30160, Note_on_c, 5, 50, 0
6, 30720, Note_on_c, 5, 53, 100
6, 30775, Note_on_c, 5, 53, 0
6, 30780, Note_on_c, 5, 53, 100
6, 30835, Note_on_c, 5, 53, 0
6, 30840, Note_on_c, 5, 53, 100
6, 30865, Note_on_c, 5, 53, 0
6, 30870, Note_on_c, 5, 53, 100
6, 30895, Note_on_c, 5, 53, 0
6, 30900, Note_on_c, 5, 53, 100
6, 30925, Note_on_c, 5, 53, 0
6, 30930, Note_on_c, 5, 53, 100
6, 30955, Note_on_c, 5, 53, 0
6, 30960, Note_on_c, 5, 52, 100
6, 30985, Note_on_c, 5, 52, 0
6, 30990, Note_on_c, 5, 52, 100
6, 31045, Note_on_c, 5, 52, 0
6, 31050, Note_on_c, 5, 50, 100
6, 31120, Note_on_c, 5, 50, 0
6, 31680, Note_on_c, 5, 53, 100
6, 31735, Note_on_c, 5, 53, 0
6, 31740, Note_on_c, 5, 53, 100
6, 31795, Note_on_c, 5, 53, 0
6, 31800, Note_on_c, 5, 53, 100
6, 31825, Note_on_c, 5, 53, 0
6, 31830, Note_on_c, 5, 53, 100
6, 31855, Note_on_c, 5, 53, 0
6, 31860, Note_on_c, 5, 53, 100
6, 31885, Note_on_c, 5, 53, 0
6, 31890, Note_on_c, 5, 53, 100
6, 31915, Note_on_c, 5, 53, 0
6, 31920, Note_on_c, 5, 52, 100
6, 31945, Note_on_c, 5, 52, 0
6, 31950, Note_on_c, 5, 52, 100
6, 32005, Note_on_c, 5, 52, 0
6, 32010, Note_on_c, 5, 50, 100
6, 32080, Note_on_c, 5, 50, 0
6, 34560, Note_on_c, 5, 53, 100
6, 34615, Note_on_c, 5, 53, 0
6, 34620, Note_on_c, 5, 53, 98
6, 34675, Note_on_c, 5, 53, 0
6, 34680, Note_on_c, 5, 53, 96
6, 34705, Note_on_c, 5, 53, 0
6, 34710, Note_on_c, 5, 53, 95
6, 34735, Note_on_c, 5, 53, 0
6, 34740, Note_on_c, 5, 53, 94
6, 34765, Note_on_c, 5, 53, 0
6, 34770, Note_on_c, 5, 53, 93
6, 34795, Note_on_c, 5, 53, 0
6, 34800, Note_on_c, 5, 52, 92
6, 34825, Note_on_c, 5, 52, 0
6, 34830, Note_on_c, 5, 52, 91
6, 34885, Note_on_c, 5, 52, 0
6, 34890, Note_on_c, 5, 50, 89
6, 34960, Note_on_c, 5, 50, 0
6, 35520, Note_on_c, 5, 53, 67
6, 35575, Note_on_c, 5, 53, 0
6, 35580, Note_on_c, 5, 53, 65
6, 35635, Note_on_c, 5, 53, 0
6, 35640, Note_on_c, 5, 53, 63
6, 35665, Note_on_c, 5, 53, 0
6, 35670, Note_on_c, 5, 53, 62
6, 35695, Note_on_c, 5, 53, 0
6, 35700, Note_on_c, 5, 53, 61
6, 35725, Note_on_c, 5, 53, 0
6, 35730, Note_on_c, 5, 53, 60
6, 35755, Note_on_c, 5, 53, 0
6, 35760, Note_on_c, 5, 52, 59
6, 35785, Note_on_c, 5, 52, 0
6, 35790, Note_on_c, 5, 52, 58
6, 35845, Note_on_c, 5, 52, 0
6, 35850, Note_on_c, 5, 50, 56
6, 35920, Note_on_c, 5, 50, 0
6, 36480, Note_on_c, 5, 53, 34
6, 36535, Note_on_c, 5, 53, 0
6, 36540, Note_on_c, 5, 53, 32
6, 36595, Note_on_c, 5, 53, 0
6, 36600, Note_on_c, 5, 53, 30
6, 36625, Note_on_c, 5, 53, 0
6, 36630, Note_on_c, 5, 53, 29
6, 36655, Note_on_c, 5, 53, 0
6, 36660, Note_on_c, 5, 53, 28
6, 36685, Note_on_c, 5, 53, 0
6, 36690, Note_on_c, 5, 53, 27
6, 36715, Note_on_c, 5, 53, 0
6, 36720, Note_on_c, 5, 52, 25
6, 36745, Note_on_c, 5, 52, 0
6, 36750, Note_on_c, 5, 52, 24
6, 36805, Note_on_c, 5, 52, 0
6, 36810, Note_on_c, 5, 50, 22
6, 36880, Note_on_c, 5, 50, 0
6, 36880, End_track
7, 0, Start_track
7, 0, MIDI_port, 0
7, 0, Program_c, 6, 66
7, 0, Control_c, 6, 7, 123
7, 0, Control_c, 6, 10, 64
7, 0, Control_c, 6, 1, 0
7, 10, Control_c, 6, 8, 64
7, 20, Control_c, 6, 11, 64
7, 120, Control_c, 6, 65, 0
7, 120, Control_c, 6, 67, 0
7, 120, Control_c, 6, 93, 0
7, 120, Control_c, 6, 91, 64
7, 120, Control_c, 6, 64, 0
7, 120, Pitch_bend_c, 6, 8192
7, 120, Control_c, 6, 68, 0
7, 2880, Note_on_c, 6, 64, 125
7, 2935, Note_on_c, 6, 64, 0
7, 2940, Note_on_c, 6, 64, 125
7, 2995, Note_on_c, 6, 64, 0
7, 3000, Note_on_c, 6, 64, 125
7, 3025, Note_on_c, 6, 64, 0
7, 3030, Note_on_c, 6, 64, 125
7, 3055, Note_on_c, 6, 64, 0
7, 3060, Note_on_c, 6, 64, 125
7, 3085, Note_on_c, 6, 64, 0
7, 3090, Note_on_c, 6, 64, 125
7, 3115, Note_on_c, 6, 64, 0
7, 3120, Note_on_c, 6, 62, 125
7, 3145, Note_on_c, 6, 62, 0
7, 3150, Note_on_c, 6, 62, 125
7, 3205, Note_on_c, 6, 62, 0
7, 3210, Note_on_c, 6, 60, 125
7, 3280, Note_on_c, 6, 60, 0
7, 3840, Note_on_c, 6, 64, 125
7, 3895, Note_on_c, 6, 64, 0
7, 3900, Note_on_c, 6, 64, 125
7, 3955, Note_on_c, 6, 64, 0
7, 3960, Note_on_c, 6, 64, 125
7, 3985, Note_on_c, 6, 64, 0
7, 3990, Note_on_c, 6, 64, 125
7, 4015, Note_on_c, 6, 64, 0
7, 4020, Note_on_c, 6, 64, 125
7, 4045, Note_on_c, 6, 64, 0
7, 4050, Note_on_c, 6, 64, 125
7, 4075, Note_on_c, 6, 64, 0
7, 4080, Note_on_c, 6, 62, 125
7, 4105, Note_on_c, 6, 62, 0
7, 4110, Note_on_c, 6, 62, 125
7, 4165, Note_on_c, 6, 62, 0
7, 4170, Note_on_c, 6, 60, 125
7, 4240, Note_on_c, 6, 60, 0
7, 4800, Note_on_c, 6, 64, 125
7, 4855, Note_on_c, 6, 64, 0
7, 4860, Note_on_c, 6, 64, 125
7, 4915, Note_on_c, 6, 64, 0
7, 4920, Note_on_c, 6, 64, 125
7, 4945, Note_on_c, 6, 64, 0
7, 4950, Note_on_c, 6, 64, 125
7, 4975, Note_on_c, 6, 64, 0
7, 4980, Note_on_c, 6, 64, 125
7, 5005, Note_on_c, 6, 64, 0
7, 5010, Note_on_c, 6, 64, 125
7, 5035, Note_on_c, 6, 64, 0
7, 5040, Note_on_c, 6, 62, 125
7, 5065, Note_on_c, 6, 62, 0
7, 5070, Note_on_c, 6, 62, 125
7, 5125, Note_on_c, 6, 62, 0
7, 5130, Note_on_c, 6, 60, 125
7, 5200, Note_on_c, 6, 60, 0
7, 5520, Note_on_c, 6, 55, 125
7, 5575, Note_on_c, 6, 55, 0
7, 5580, Note_on_c, 6, 57, 125
7, 5635, Note_on_c, 6, 57, 0
7, 5640, Note_on_c, 6, 60, 125
7, 5695, Note_on_c, 6, 60, 0
7, 5700, Note_on_c, 6, 57, 125
7, 5755, Note_on_c, 6, 57, 0
7, 5760, Note_on_c, 6, 62, 125
7, 5880, Note_on_c, 6, 62, 0
7, 5940, Note_on_c, 6, 62, 125
7, 5970, Note_on_c, 6, 62, 0
7, 5970, Note_on_c, 6, 60, 125
7, 6000, Note_on_c, 6, 60, 0
7, 6000, Note_on_c, 6, 62, 125
7, 6100, Note_on_c, 6, 62, 0
7, 6120, Note_on_c, 6, 64, 125
7, 6180, Note_on_c, 6, 64, 0
7, 6180, Note_on_c, 6, 60, 125
7, 6280, Note_on_c, 6, 60, 0
7, 6300, Note_on_c, 6, 57, 125
7, 6390, Note_on_c, 6, 57, 0
7, 6480, Note_on_c, 6, 55, 125
7, 6535, Note_on_c, 6, 55, 0
7, 6540, Note_on_c, 6, 57, 125
7, 6595, Note_on_c, 6, 57, 0
7, 6600, Note_on_c, 6, 60, 125
7, 6655, Note_on_c, 6, 60, 0
7, 6660, Note_on_c, 6, 57, 125
7, 6715, Note_on_c, 6, 57, 0
7, 6720, Note_on_c, 6, 62, 125
7, 6840, Note_on_c, 6, 62, 0
7, 6900, Note_on_c, 6, 62, 125
7, 7000, Note_on_c, 6, 62, 0
7, 7020, Note_on_c, 6, 62, 125
7, 7075, Note_on_c, 6, 62, 0
7, 7080, Note_on_c, 6, 67, 125
7, 7140, Note_on_c, 6, 67, 0
7, 7140, Note_on_c, 6, 64, 125
7, 7170, Pitch_bend_c, 6, 1
7, 7200, Pitch_bend_c, 6, 8192
7, 7320, Note_on_c, 6, 64, 0
7, 7440, Note_on_c, 6, 55, 125
7, 7495, Note_on_c, 6, 55, 0
7, 7500, Note_on_c, 6, 57, 125
7, 7555, Note_on_c, 6, 57, 0
7, 7560, Note_on_c, 6, 60, 125
7, 7615, Note_on_c, 6, 60, 0
7, 7620, Note_on_c, 6, 57, 125
7, 7675, Note_on_c, 6, 57, 0
7, 7680, Note_on_c, 6, 62, 125
7, 7800, Note_on_c, 6, 62, 0
7, 7800, Note_on_c, 6, 62, 125
7, 7860, Note_on_c, 6, 62, 0
7, 7860, Note_on_c, 6, 60, 125
7, 7920, Note_on_c, 6, 60, 0
7, 7920, Note_on_c, 6, 62, 125
7, 8020, Note_on_c, 6, 62, 0
7, 8040, Note_on_c, 6, 64, 125
7, 8100, Note_on_c, 6, 64, 0
7, 8100, Note_on_c, 6, 60, 125
7, 8200, Note_on_c, 6, 60, 0
7, 8220, Note_on_c, 6, 57, 125
7, 8310, Note_on_c, 6, 57, 0
7, 8400, Note_on_c, 6, 55, 125
7, 8455, Note_on_c, 6, 55, 0
7, 8460, Note_on_c, 6, 57, 125
7, 8515, Note_on_c, 6, 57, 0
7, 8520, Note_on_c, 6, 60, 125
7, 8575, Note_on_c, 6, 60, 0
7, 8580, Note_on_c, 6, 57, 125
7, 8635, Note_on_c, 6, 57, 0
7, 8640, Note_on_c, 6, 62, 125
7, 8760, Note_on_c, 6, 62, 0
7, 8820, Note_on_c, 6, 62, 125
7, 8920, Note_on_c, 6, 62, 0
7, 8940, Note_on_c, 6, 62, 125
7, 8995, Note_on_c, 6, 62, 0
7, 9000, Note_on_c, 6, 60, 125
7, 9060, Note_on_c, 6, 60, 0
7, 9060, Note_on_c, 6, 62, 125
7, 9090, Pitch_bend_c, 6, 1
7, 9120, Pitch_bend_c, 6, 8192
7, 9240, Note_on_c, 6, 62, 0
7, 9420, Note_on_c, 6, 60, 125
7, 9475, Note_on_c, 6, 60, 0
7, 9480, Note_on_c, 6, 62, 125
7, 9535, Note_on_c, 6, 62, 0
7, 9540, Note_on_c, 6, 64, 125
7, 9720, Note_on_c, 6, 64, 0
7, 9780, Note_on_c, 6, 64, 125
7, 9835, Note_on_c, 6, 64, 0
7, 9840, Note_on_c, 6, 62, 125
7, 9940, Note_on_c, 6, 62, 0
7, 9960, Note_on_c, 6, 64, 125
7, 10015, Note_on_c, 6, 64, 0
7, 10020, Note_on_c, 6, 60, 125
7, 10120, Note_on_c, 6, 60, 0
7, 10140, Note_on_c, 6, 57, 125
7, 10260, Note_on_c, 6, 57, 0
7, 10500, Note_on_c, 6, 60, 125
7, 10555, Note_on_c, 6, 60, 0
7, 10560, Note_on_c, 6, 63, 125
7, 10635, Note_on_c, 6, 63, 0
7, 10640, Note_on_c, 6, 63, 125
7, 10715, Note_on_c, 6, 63, 0
7, 10720, Note_on_c, 6, 63, 125
7, 10760, Note_on_c, 6, 63, 0
7, 10760, Note_on_c, 6, 60, 125
7, 10800, Note_on_c, 6, 60, 0
7, 10800, Note_on_c, 6, 62, 125
7, 10900, Note_on_c, 6, 62, 0
7, 10920, Note_on_c, 6, 60, 125
7, 10975, Note_on_c, 6, 60, 0
7, 10980, Note_on_c, 6, 62, 125
7, 11010, Pitch_bend_c, 6, 1
7, 11040, Note_on_c, 6, 62, 0
7, 11040, Pitch_bend_c, 6, 8192
7, 11040, Note_on_c, 6, 64, 125
7, 11100, Note_on_c, 6, 64, 0
7, 11100, Note_on_c, 6, 60, 125
7, 11160, Note_on_c, 6, 60, 0
7, 11160, Note_on_c, 6, 57, 125
7, 11250, Note_on_c, 6, 57, 0
7, 11340, Note_on_c, 6, 69, 125
7, 11460, Note_on_c, 6, 69, 0
7, 11460, Note_on_c, 6, 64, 125
7, 11520, Note_on_c, 6, 64, 0
7, 11520, Note_on_c, 6, 64, 125
7, 11575, Note_on_c, 6, 64, 0
7, 11580, Note_on_c, 6, 64, 125
7, 11635, Note_on_c, 6, 64, 0
7, 11640, Note_on_c, 6, 64, 125
7, 11665, Note_on_c, 6, 64, 0
7, 11670, Note_on_c, 6, 64, 125
7, 11695, Note_on_c, 6, 64, 0
7, 11700, Note_on_c, 6, 64, 125
7, 11725, Note_on_c, 6, 64, 0
7, 11730, Note_on_c, 6, 64, 125
7, 11755, Note_on_c, 6, 64, 0
7, 11760, Note_on_c, 6, 62, 125
7, 11785, Note_on_c, 6, 62, 0
7, 11790, Note_on_c, 6, 64, 125
7, 11845, Note_on_c, 6, 64, 0
7, 11850, Note_on_c, 6, 60, 125
7, 11920, Note_on_c, 6, 60, 0
7, 12480, Note_on_c, 6, 64, 125
7, 12535, Note_on_c, 6, 64, 0
7, 12540, Note_on_c, 6, 64, 125
7, 12595, Note_on_c, 6, 64, 0
7, 12600, Note_on_c, 6, 64, 125
7, 12625, Note_on_c, 6, 64, 0
7, 12630, Note_on_c, 6, 64, 125
7, 12655, Note_on_c, 6, 64, 0
7, 12660, Note_on_c, 6, 64, 125
7, 12685, Note_on_c, 6, 64, 0
7, 12690, Note_on_c, 6, 64, 125
7, 12715, Note_on_c, 6, 64, 0
7, 12720, Note_on_c, 6, 62, 125
7, 12745, Note_on_c, 6, 62, 0
7, 12750, Note_on_c, 6, 64, 125
7, 12805, Note_on_c, 6, 64, 0
7, 12810, Note_on_c, 6, 60, 125
7, 12880, Note_on_c, 6, 60, 0
7, 13440, Note_on_c, 6, 64, 125
7, 13495, Note_on_c, 6, 64, 0
7, 13500, Note_on_c, 6, 64, 125
7, 13555, Note_on_c, 6, 64, 0
7, 13560, Note_on_c, 6, 64, 125
7, 13585, Note_on_c, 6, 64, 0
7, 13590, Note_on_c, 6, 64, 125
7, 13615, Note_on_c, 6, 64, 0
7, 13620, Note_on_c, 6, 64, 125
7, 13645, Note_on_c, 6, 64, 0
7, 13650, Note_on_c, 6, 64, 125
7, 13675, Note_on_c, 6, 64, 0
7, 13680, Note_on_c, 6, 62, 125
7, 13705, Note_on_c, 6, 62, 0
7, 13710, Note_on_c, 6, 64, 125
7, 13765, Note_on_c, 6, 64, 0
7, 13770, Note_on_c, 6, 60, 125
7, 13840, Note_on_c, 6, 60, 0
7, 14400, Note_on_c, 6, 64, 125
7, 14455, Note_on_c, 6, 64, 0
7, 14460, Note_on_c, 6, 64, 125
7, 14515, Note_on_c, 6, 64, 0
7, 14520, Note_on_c, 6, 64, 125
7, 14545, Note_on_c, 6, 64, 0
7, 14550, Note_on_c, 6, 64, 125
7, 14575, Note_on_c, 6, 64, 0
7, 14580, Note_on_c, 6, 64, 125
7, 14605, Note_on_c, 6, 64, 0
7, 14610, Note_on_c, 6, 64, 125
7, 14635, Note_on_c, 6, 64, 0
7, 14640, Note_on_c, 6, 62, 125
7, 14665, Note_on_c, 6, 62, 0
7, 14670, Note_on_c, 6, 64, 125
7, 14725, Note_on_c, 6, 64, 0
7, 14730, Note_on_c, 6, 60, 125
7, 14800, Note_on_c, 6, 60, 0
7, 15120, Note_on_c, 6, 55, 125
7, 15175, Note_on_c, 6, 55, 0
7, 15180, Note_on_c, 6, 57, 125
7, 15235, Note_on_c, 6, 57, 0
7, 15240, Note_on_c, 6, 67, 125
7, 15360, Note_on_c, 6, 67, 0
7, 15360, Note_on_c, 6, 69, 125
7, 15390, Note_on_c, 6, 69, 0
7, 15390, Note_on_c, 6, 64, 125
7, 15405, Pitch_bend_c, 6, 1
7, 15420, Pitch_bend_c, 6, 8192
7, 15480, Note_on_c, 6, 64, 0
7, 15540, Note_on_c, 6, 62, 125
7, 15570, Note_on_c, 6, 62, 0
7, 15570, Note_on_c, 6, 60, 125
7, 15600, Note_on_c, 6, 60, 0
7, 15600, Note_on_c, 6, 62, 125
7, 15700, Note_on_c, 6, 62, 0
7, 15720, Note_on_c, 6, 64, 125
7, 15780, Note_on_c, 6, 64, 0
7, 15780, Note_on_c, 6, 60, 125
7, 15880, Note_on_c, 6, 60, 0
7, 15900, Note_on_c, 6, 57, 125
7, 15990, Note_on_c, 6, 57, 0
7, 16080, Note_on_c, 6, 55, 125
7, 16135, Note_on_c, 6, 55, 0
7, 16140, Note_on_c, 6, 57, 125
7, 16195, Note_on_c, 6, 57, 0
7, 16200, Note_on_c, 6, 60, 125
7, 16255, Note_on_c, 6, 60, 0
7, 16260, Note_on_c, 6, 57, 125
7, 16315, Note_on_c, 6, 57, 0
7, 16320, Note_on_c, 6, 62, 125
7, 16420, Note_on_c, 6, 62, 0
7, 16440, Note_on_c, 6, 62, 125
7, 16495, Note_on_c, 6, 62, 0
7, 16500, Note_on_c, 6, 62, 125
7, 16600, Note_on_c, 6, 62, 0
7, 16620, Note_on_c, 6, 67, 125
7, 16720, Note_on_c, 6, 67, 0
7, 16740, Note_on_c, 6, 64, 125
7, 16770, Pitch_bend_c, 6, 1
7, 16800, Pitch_bend_c, 6, 8192
7, 16920, Note_on_c, 6, 64, 0
7, 17040, Note_on_c, 6, 55, 125
7, 17095, Note_on_c, 6, 55, 0
7, 17100, Note_on_c, 6, 57, 125
7, 17155, Note_on_c, 6, 57, 0
7, 17160, Note_on_c, 6, 60, 125
7, 17215, Note_on_c, 6, 60, 0
7, 17220, Note_on_c, 6, 57, 125
7, 17275, Note_on_c, 6, 57, 0
7, 17280, Note_on_c, 6, 62, 125
7, 17400, Note_on_c, 6, 62, 0
7, 17400, Note_on_c, 6, 62, 125
7, 17460, Note_on_c, 6, 62, 0
7, 17460, Note_on_c, 6, 60, 125
7, 17520, Note_on_c, 6, 60, 0
7, 17520, Note_on_c, 6, 62, 125
7, 17620, Note_on_c, 6, 62, 0
7, 17640, Note_on_c, 6, 64, 125
7, 17700, Note_on_c, 6, 64, 0
7, 17700, Note_on_c, 6, 60, 125
7, 17800, Note_on_c, 6, 60, 0
7, 17820, Note_on_c, 6, 57, 125
7, 17910, Note_on_c, 6, 57, 0
7, 18000, Note_on_c, 6, 55, 125
7, 18055, Note_on_c, 6, 55, 0
7, 18060, Note_on_c, 6, 57, 125
7, 18115, Note_on_c, 6, 57, 0
7, 18120, Note_on_c, 6, 60, 125
7, 18175, Note_on_c, 6, 60, 0
7, 18180, Note_on_c, 6, 57, 125
7, 18235, Note_on_c, 6, 57, 0
7, 18240, Note_on_c, 6, 62, 125
7, 18295, Note_on_c, 6, 62, 0
7, 18300, Note_on_c, 6, 62, 125
7, 18355, Note_on_c, 6, 62, 0
7, 18420, Note_on_c, 6, 62, 125
7, 18520, Note_on_c, 6, 62, 0
7, 18540, Note_on_c, 6, 62, 125
7, 18595, Note_on_c, 6, 62, 0
7, 18600, Note_on_c, 6, 60, 125
7, 18660, Note_on_c, 6, 60, 0
7, 18660, Note_on_c, 6, 62, 125
7, 18690, Pitch_bend_c, 6, 1
7, 18720, Pitch_bend_c, 6, 8192
7, 18840, Note_on_c, 6, 62, 0
7, 19020, Note_on_c, 6, 60, 125
7, 19075, Note_on_c, 6, 60, 0
7, 19080, Note_on_c, 6, 62, 125
7, 19135, Note_on_c, 6, 62, 0
7, 19140, Note_on_c, 6, 64, 125
7, 19320, Note_on_c, 6, 64, 0
7, 19380, Note_on_c, 6, 64, 125
7, 19435, Note_on_c, 6, 64, 0
7, 19440, Note_on_c, 6, 62, 125
7, 19540, Note_on_c, 6, 62, 0
7, 19560, Note_on_c, 6, 64, 125
7, 19615, Note_on_c, 6, 64, 0
7, 19620, Note_on_c, 6, 60, 125
7, 19720, Note_on_c, 6, 60, 0
7, 19740, Note_on_c, 6, 57, 125
7, 19860, Note_on_c, 6, 57, 0
7, 19980, Note_on_c, 6, 62, 125
7, 20010, Note_on_c, 6, 62, 0
7, 20010, Note_on_c, 6, 62, 125
7, 20065, Note_on_c, 6, 62, 0
7, 20100, Note_on_c, 6, 62, 125
7, 20130, Pitch_bend_c, 6, 1
7, 20160, Note_on_c, 6, 62, 0
7, 20160, Pitch_bend_c, 6, 8192
7, 20160, Note_on_c, 6, 63, 125
7, 20190, Pitch_bend_c, 6, 4192
7, 20220, Note_on_c, 6, 63, 0
7, 20220, Pitch_bend_c, 6, 8192
7, 20220, Note_on_c, 6, 60, 125
7, 20310, Note_on_c, 6, 60, 0
7, 20340, Note_on_c, 6, 69, 125
7, 20370, Pitch_bend_c, 6, 1
7, 20400, Note_on_c, 6, 69, 0
7, 20400, Pitch_bend_c, 6, 8192
7, 20400, Note_on_c, 6, 72, 125
7, 20455, Note_on_c, 6, 72, 0
7, 20460, Note_on_c, 6, 69, 125
7, 20515, Note_on_c, 6, 69, 0
7, 20520, Note_on_c, 6, 69, 125
7, 20575, Note_on_c, 6, 69, 0
7, 20580, Note_on_c, 6, 64, 125
7, 20610, Pitch_bend_c, 6, 1
7, 20640, Note_on_c, 6, 64, 0
7, 20640, Pitch_bend_c, 6, 8192
7, 20640, Note_on_c, 6, 60, 125
7, 20760, Note_on_c, 6, 60, 0
7, 20940, Note_on_c, 6, 72, 125
7, 20995, Note_on_c, 6, 72, 0
7, 21000, Note_on_c, 6, 69, 125
7, 21060, Note_on_c, 6, 69, 0
7, 21060, Note_on_c, 6, 64, 125
7, 21120, Note_on_c, 6, 64, 0
7, 21120, Note_on_c, 6, 64, 125
7, 21175, Note_on_c, 6, 64, 0
7, 21180, Note_on_c, 6, 64, 125
7, 21235, Note_on_c, 6, 64, 0
7, 21240, Note_on_c, 6, 64, 125
7, 21265, Note_on_c, 6, 64, 0
7, 21270, Note_on_c, 6, 64, 125
7, 21295, Note_on_c, 6, 64, 0
7, 21300, Note_on_c, 6, 64, 125
7, 21325, Note_on_c, 6, 64, 0
7, 21330, Note_on_c, 6, 64, 125
7, 21355, Note_on_c, 6, 64, 0
7, 21360, Note_on_c, 6, 62, 125
7, 21385, Note_on_c, 6, 62, 0
7, 21390, Note_on_c, 6, 64, 125
7, 21445, Note_on_c, 6, 64, 0
7, 21450, Note_on_c, 6, 60, 125
7, 21520, Note_on_c, 6, 60, 0
7, 22050, Note_on_c, 6, 64, 125
7, 22080, Note_on_c, 6, 64, 0
7, 22080, Note_on_c, 6, 67, 125
7, 22135, Note_on_c, 6, 67, 0
7, 22140, Note_on_c, 6, 64, 125
7, 22170, Note_on_c, 6, 64, 0
7, 22170, Note_on_c, 6, 67, 125
7, 22225, Note_on_c, 6, 67, 0
7, 22230, Note_on_c, 6, 64, 125
7, 22255, Note_on_c, 6, 64, 0
7, 22260, Note_on_c, 6, 67, 125
7, 22285, Note_on_c, 6, 67, 0
7, 22290, Note_on_c, 6, 64, 125
7, 22315, Note_on_c, 6, 64, 0
7, 22320, Note_on_c, 6, 69, 125
7, 22375, Note_on_c, 6, 69, 0
7, 22380, Note_on_c, 6, 69, 125
7, 22410, Note_on_c, 6, 69, 0
7, 22410, Note_on_c, 6, 64, 125
7, 22440, Note_on_c, 6, 64, 0
7, 22440, Note_on_c, 6, 62, 125
7, 22470, Note_on_c, 6, 62, 0
7, 22470, Note_on_c, 6, 60, 125
7, 22530, Note_on_c, 6, 60, 0
7, 23040, Note_on_c, 6, 64, 125
7, 23095, Note_on_c, 6, 64, 0
7, 23100, Note_on_c, 6, 62, 125
7, 23130, Note_on_c, 6, 62, 0
7, 23130, Note_on_c, 6, 62, 125
7, 23190, Note_on_c, 6, 62, 0
7, 23190, Note_on_c, 6, 60, 125
7, 23215, Note_on_c, 6, 60, 0
7, 23220, Note_on_c, 6, 62, 125
7, 23245, Note_on_c, 6, 62, 0
7, 23250, Note_on_c, 6, 60, 125
7, 23275, Note_on_c, 6, 60, 0
7, 23280, Note_on_c, 6, 67, 125
7, 23340, Note_on_c, 6, 67, 0
7, 23340, Note_on_c, 6, 69, 125
7, 23400, Note_on_c, 6, 69, 0
7, 23400, Note_on_c, 6, 72, 125
7, 23460, Note_on_c, 6, 72, 0
7, 24000, Note_on_c, 6, 64, 125
7, 24055, Note_on_c, 6, 64, 0
7, 24060, Note_on_c, 6, 64, 125
7, 24115, Note_on_c, 6, 64, 0
7, 24120, Note_on_c, 6, 64, 125
7, 24145, Note_on_c, 6, 64, 0
7, 24150, Note_on_c, 6, 64, 125
7, 24175, Note_on_c, 6, 64, 0
7, 24180, Note_on_c, 6, 64, 125
7, 24205, Note_on_c, 6, 64, 0
7, 24210, Note_on_c, 6, 64, 125
7, 24235, Note_on_c, 6, 64, 0
7, 24240, Note_on_c, 6, 62, 125
7, 24265, Note_on_c, 6, 62, 0
7, 24270, Note_on_c, 6, 64, 125
7, 24325, Note_on_c, 6, 64, 0
7, 24330, Note_on_c, 6, 60, 125
7, 24400, Note_on_c, 6, 60, 0
7, 25380, Note_on_c, 6, 60, 125
7, 25405, Note_on_c, 6, 60, 0
7, 25410, Note_on_c, 6, 57, 125
7, 25435, Note_on_c, 6, 57, 0
7, 25440, Note_on_c, 6, 64, 125
7, 25495, Note_on_c, 6, 64, 0
7, 25500, Note_on_c, 6, 64, 125
7, 25555, Note_on_c, 6, 64, 0
7, 25560, Note_on_c, 6, 64, 125
7, 25588, Note_on_c, 6, 64, 0
7, 25590, Note_on_c, 6, 64, 125
7, 25645, Note_on_c, 6, 64, 0
7, 25650, Note_on_c, 6, 62, 125
7, 25710, Note_on_c, 6, 62, 0
7, 26340, Note_on_c, 6, 55, 125
7, 26400, Note_on_c, 6, 55, 0
7, 26400, Note_on_c, 6, 64, 125
7, 26500, Note_on_c, 6, 64, 0
7, 26520, Note_on_c, 6, 55, 125
7, 26580, Note_on_c, 6, 55, 0
7, 26580, Note_on_c, 6, 64, 125
7, 26640, Note_on_c, 6, 64, 0
7, 26700, Note_on_c, 6, 64, 125
7, 26760, Note_on_c, 6, 64, 0
7, 26760, Note_on_c, 6, 62, 125
7, 26820, Note_on_c, 6, 62, 0
7, 26820, Note_on_c, 6, 60, 125
7, 26880, Note_on_c, 6, 60, 0
7, 28800, Note_on_c, 6, 64, 125
7, 28855, Note_on_c, 6, 64, 0
7, 28860, Note_on_c, 6, 64, 125
7, 28915, Note_on_c, 6, 64, 0
7, 28920, Note_on_c, 6, 64, 125
7, 28945, Note_on_c, 6, 64, 0
7, 28950, Note_on_c, 6, 64, 125
7, 28975, Note_on_c, 6, 64, 0
7, 28980, Note_on_c, 6, 64, 125
7, 29005, Note_on_c, 6, 64, 0
7, 29010, Note_on_c, 6, 64, 125
7, 29035, Note_on_c, 6, 64, 0
7, 29040, Note_on_c, 6, 62, 125
7, 29065, Note_on_c, 6, 62, 0
7, 29070, Note_on_c, 6, 64, 125
7, 29125, Note_on_c, 6, 64, 0
7, 29130, Note_on_c, 6, 60, 125
7, 29200, Note_on_c, 6, 60, 0
7, 29730, Note_on_c, 6, 64, 125
7, 29760, Note_on_c, 6, 64, 0
7, 29760, Note_on_c, 6, 67, 125
7, 29815, Note_on_c, 6, 67, 0
7, 29820, Note_on_c, 6, 64, 125
7, 29850, Note_on_c, 6, 64, 0
7, 29850, Note_on_c, 6, 67, 125
7, 29905, Note_on_c, 6, 67, 0
7, 29910, Note_on_c, 6, 64, 125
7, 29935, Note_on_c, 6, 64, 0
7, 29940, Note_on_c, 6, 67, 125
7, 29965, Note_on_c, 6, 67, 0
7, 29970, Note_on_c, 6, 64, 125
7, 29995, Note_on_c, 6, 64, 0
7, 30000, Note_on_c, 6, 69, 125
7, 30055, Note_on_c, 6, 69, 0
7, 30060, Note_on_c, 6, 69, 125
7, 30090, Note_on_c, 6, 69, 0
7, 30090, Note_on_c, 6, 64, 125
7, 30120, Note_on_c, 6, 64, 0
7, 30120, Note_on_c, 6, 62, 125
7, 30150, Note_on_c, 6, 62, 0
7, 30150, Note_on_c, 6, 60, 125
7, 30210, Note_on_c, 6, 60, 0
7, 30720, Note_on_c, 6, 64, 125
7, 30775, Note_on_c, 6, 64, 0
7, 30780, Note_on_c, 6, 62, 125
7, 30810, Note_on_c, 6, 62, 0
7, 30810, Note_on_c, 6, 62, 125
7, 30870, Note_on_c, 6, 62, 0
7, 30870, Note_on_c, 6, 60, 125
7, 30895, Note_on_c, 6, 60, 0
7, 30900, Note_on_c, 6, 62, 125
7, 30925, Note_on_c, 6, 62, 0
7, 30930, Note_on_c, 6, 60, 125
7, 30955, Note_on_c, 6, 60, 0
7, 30960, Note_on_c, 6, 67, 125
7, 31020, Note_on_c, 6, 67, 0
7, 31020, Note_on_c, 6, 69, 125
7, 31080, Note_on_c, 6, 69, 0
7, 31080, Note_on_c, 6, 72, 125
7, 31140, Note_on_c, 6, 72, 0
7, 31680, Note_on_c, 6, 64, 125
7, 31735, Note_on_c, 6, 64, 0
7, 31740, Note_on_c, 6, 64, 125
7, 31795, Note_on_c, 6, 64, 0
7, 31800, Note_on_c, 6, 64, 125
7, 31825, Note_on_c, 6, 64, 0
7, 31830, Note_on_c, 6, 64, 125
7, 31855, Note_on_c, 6, 64, 0
7, 31860, Note_on_c, 6, 64, 125
7, 31885, Note_on_c, 6, 64, 0
7, 31890, Note_on_c, 6, 64, 125
7, 31915, Note_on_c, 6, 64, 0
7, 31920, Note_on_c, 6, 62, 125
7, 31945, Note_on_c, 6, 62, 0
7, 31950, Note_on_c, 6, 64, 125
7, 32005, Note_on_c, 6, 64, 0
7, 32010, Note_on_c, 6, 60, 125
7, 32080, Note_on_c, 6, 60, 0
7, 34560, Note_on_c, 6, 64, 125
7, 34615, Note_on_c, 6, 64, 0
7, 34620, Note_on_c, 6, 64, 122
7, 34675, Note_on_c, 6, 64, 0
7, 34680, Note_on_c, 6, 64, 120
7, 34705, Note_on_c, 6, 64, 0
7, 34710, Note_on_c, 6, 64, 118
7, 34735, Note_on_c, 6, 64, 0
7, 34740, Note_on_c, 6, 64, 117
7, 34765, Note_on_c, 6, 64, 0
7, 34770, Note_on_c, 6, 64, 116
7, 34795, Note_on_c, 6, 64, 0
7, 34800, Note_on_c, 6, 62, 115
7, 34825, Note_on_c, 6, 62, 0
7, 34830, Note_on_c, 6, 64, 113
7, 34885, Note_on_c, 6, 64, 0
7, 34890, Note_on_c, 6, 60, 111
7, 34960, Note_on_c, 6, 60, 0
7, 35490, Note_on_c, 6, 64, 85
7, 35520, Note_on_c, 6, 64, 0
7, 35520, Note_on_c, 6, 67, 83
7, 35575, Note_on_c, 6, 67, 0
7, 35580, Note_on_c, 6, 64, 81
7, 35610, Note_on_c, 6, 64, 0
7, 35610, Note_on_c, 6, 67, 80
7, 35665, Note_on_c, 6, 67, 0
7, 35670, Note_on_c, 6, 64, 77
7, 35695, Note_on_c, 6, 64, 0
7, 35700, Note_on_c, 6, 67, 76
7, 35725, Note_on_c, 6, 67, 0
7, 35730, Note_on_c, 6, 64, 75
7, 35755, Note_on_c, 6, 64, 0
7, 35760, Note_on_c, 6, 69, 73
7, 35815, Note_on_c, 6, 69, 0
7, 35820, Note_on_c, 6, 69, 71
7, 35850, Note_on_c, 6, 69, 0
7, 35850, Note_on_c, 6, 64, 70
7, 35880, Note_on_c, 6, 64, 0
7, 35880, Note_on_c, 6, 62, 68
7, 35910, Note_on_c, 6, 62, 0
7, 35910, Note_on_c, 6, 60, 67
7, 35970, Note_on_c, 6, 60, 0
7, 36480, Note_on_c, 6, 64, 42
7, 36535, Note_on_c, 6, 64, 0
7, 36540, Note_on_c, 6, 62, 40
7, 36570, Note_on_c, 6, 62, 0
7, 36570, Note_on_c, 6, 62, 38
7, 36630, Note_on_c, 6, 62, 0
7, 36630, Note_on_c, 6, 60, 36
7, 36655, Note_on_c, 6, 60, 0
7, 36660, Note_on_c, 6, 62, 35
7, 36685, Note_on_c, 6, 62, 0
7, 36690, Note_on_c, 6, 60, 33
7, 36715, Note_on_c, 6, 60, 0
7, 36720, Note_on_c, 6, 67, 31
7, 36780, Note_on_c, 6, 67, 0
7, 36780, Note_on_c, 6, 69, 28
7, 36840, Note_on_c, 6, 69, 0
7, 36840, Note_on_c, 6, 72, 26
7, 36900, Note_on_c, 6, 72, 0
7, 36900, End_track
8, 0, Start_track
8, 0, MIDI_port, 0
8, 0, Program_c, 7, 85
8, 0, Control_c, 7, 7, 70
8, 0, Control_c, 7, 10, 127
8, 0, Control_c, 7, 1, 0
8, 10, Control_c, 7, 8, 64
8, 20, Control_c, 7, 11, 64
8, 120, Control_c, 7, 65, 0
8, 120, Control_c, 7, 67, 0
8, 120, Control_c, 7, 93, 0
8, 120, Control_c, 7, 91, 64
8, 120, Control_c, 7, 64, 0
8, 120, Pitch_bend_c, 7, 8192
8, 120, Control_c, 7, 68, 0
8, 2880, Note_on_c, 7, 57, 100
8, 2935, Note_on_c, 7, 57, 0
8, 2940, Note_on_c, 7, 57, 100
8, 2995, Note_on_c, 7, 57, 0
8, 3000, Note_on_c, 7, 57, 100
8, 3025, Note_on_c, 7, 57, 0
8, 3030, Note_on_c, 7, 57, 100
8, 3055, Note_on_c, 7, 57, 0
8, 3060, Note_on_c, 7, 57, 100
8, 3085, Note_on_c, 7, 57, 0
8, 3090, Note_on_c, 7, 57, 100
8, 3115, Note_on_c, 7, 57, 0
8, 3120, Note_on_c, 7, 55, 100
8, 3145, Note_on_c, 7, 55, 0
8, 3150, Note_on_c, 7, 55, 100
8, 3205, Note_on_c, 7, 55, 0
8, 3210, Note_on_c, 7, 53, 100
8, 3280, Note_on_c, 7, 53, 0
8, 3840, Note_on_c, 7, 57, 100
8, 3895, Note_on_c, 7, 57, 0
8, 3900, Note_on_c, 7, 57, 100
8, 3955, Note_on_c, 7, 57, 0
8, 3960, Note_on_c, 7, 57, 100
8, 3985, Note_on_c, 7, 57, 0
8, 3990, Note_on_c, 7, 57, 100
8, 4015, Note_on_c, 7, 57, 0
8, 4020, Note_on_c, 7, 57, 100
8, 4045, Note_on_c, 7, 57, 0
8, 4050, Note_on_c, 7, 57, 100
8, 4075, Note_on_c, 7, 57, 0
8, 4080, Note_on_c, 7, 55, 100
8, 4105, Note_on_c, 7, 55, 0
8, 4110, Note_on_c, 7, 55, 100
8, 4165, Note_on_c, 7, 55, 0
8, 4170, Note_on_c, 7, 53, 100
8, 4240, Note_on_c, 7, 53, 0
8, 4800, Note_on_c, 7, 57, 100
8, 4855, Note_on_c, 7, 57, 0
8, 4860, Note_on_c, 7, 57, 100
8, 4915, Note_on_c, 7, 57, 0
8, 4920, Note_on_c, 7, 57, 100
8, 4945, Note_on_c, 7, 57, 0
8, 4950, Note_on_c, 7, 57, 100
8, 4975, Note_on_c, 7, 57, 0
8, 4980, Note_on_c, 7, 57, 100
8, 5005, Note_on_c, 7, 57, 0
8, 5010, Note_on_c, 7, 57, 100
8, 5035, Note_on_c, 7, 57, 0
8, 5040, Note_on_c, 7, 55, 100
8, 5065, Note_on_c, 7, 55, 0
8, 5070, Note_on_c, 7, 55, 100
8, 5125, Note_on_c, 7, 55, 0
8, 5130, Note_on_c, 7, 53, 100
8, 5200, Note_on_c, 7, 53, 0
8, 9600, Note_on_c, 7, 64, 100
8, 9600, Note_on_c, 7, 69, 100
8, 9840, Note_on_c, 7, 69, 0
8, 9840, Note_on_c, 7, 64, 0
8, 9840, Note_on_c, 7, 62, 100
8, 9840, Note_on_c, 7, 67, 100
8, 10020, Note_on_c, 7, 67, 0
8, 10020, Note_on_c, 7, 62, 0
8, 10020, Note_on_c, 7, 60, 100
8, 10020, Note_on_c, 7, 65, 100
8, 10380, Note_on_c, 7, 65, 0
8, 10380, Note_on_c, 7, 60, 0
8, 11520, Note_on_c, 7, 57, 100
8, 11575, Note_on_c, 7, 57, 0
8, 11580, Note_on_c, 7, 57, 100
8, 11635, Note_on_c, 7, 57, 0
8, 11640, Note_on_c, 7, 57, 100
8, 11665, Note_on_c, 7, 57, 0
8, 11670, Note_on_c, 7, 57, 100
8, 11695, Note_on_c, 7, 57, 0
8, 11700, Note_on_c, 7, 57, 100
8, 11725, Note_on_c, 7, 57, 0
8, 11730, Note_on_c, 7, 57, 100
8, 11755, Note_on_c, 7, 57, 0
8, 11760, Note_on_c, 7, 55, 100
8, 11785, Note_on_c, 7, 55, 0
8, 11790, Note_on_c, 7, 55, 100
8, 11845, Note_on_c, 7, 55, 0
8, 11850, Note_on_c, 7, 53, 100
8, 11920, Note_on_c, 7, 53, 0
8, 12480, Note_on_c, 7, 57, 100
8, 12535, Note_on_c, 7, 57, 0
8, 12540, Note_on_c, 7, 57, 100
8, 12595, Note_on_c, 7, 57, 0
8, 12600, Note_on_c, 7, 57, 100
8, 12625, Note_on_c, 7, 57, 0
8, 12630, Note_on_c, 7, 57, 100
8, 12655, Note_on_c, 7, 57, 0
8, 12660, Note_on_c, 7, 57, 100
8, 12685, Note_on_c, 7, 57, 0
8, 12690, Note_on_c, 7, 57, 100
8, 12715, Note_on_c, 7, 57, 0
8, 12720, Note_on_c, 7, 55, 100
8, 12745, Note_on_c, 7, 55, 0
8, 12750, Note_on_c, 7, 55, 100
8, 12805, Note_on_c, 7, 55, 0
8, 12810, Note_on_c, 7, 53, 100
8, 12880, Note_on_c, 7, 53, 0
8, 13440, Note_on_c, 7, 57, 100
8, 13495, Note_on_c, 7, 57, 0
8, 13500, Note_on_c, 7, 57, 100
8, 13555, Note_on_c, 7, 57, 0
8, 13560, Note_on_c, 7, 57, 100
8, 13585, Note_on_c, 7, 57, 0
8, 13590, Note_on_c, 7, 57, 100
8, 13615, Note_on_c, 7, 57, 0
8, 13620, Note_on_c, 7, 57, 100
8, 13645, Note_on_c, 7, 57, 0
8, 13650, Note_on_c, 7, 57, 100
8, 13675, Note_on_c, 7, 57, 0
8, 13680, Note_on_c, 7, 55, 100
8, 13705, Note_on_c, 7, 55, 0
8, 13710, Note_on_c, 7, 55, 100
8, 13765, Note_on_c, 7, 55, 0
8, 13770, Note_on_c, 7, 53, 100
8, 13840, Note_on_c, 7, 53, 0
8, 14400, Note_on_c, 7, 57, 100
8, 14455, Note_on_c, 7, 57, 0
8, 14460, Note_on_c, 7, 57, 100
8, 14515, Note_on_c, 7, 57, 0
8, 14520, Note_on_c, 7, 57, 100
8, 14545, Note_on_c, 7, 57, 0
8, 14550, Note_on_c, 7, 57, 100
8, 14575, Note_on_c, 7, 57, 0
8, 14580, Note_on_c, 7, 57, 100
8, 14605, Note_on_c, 7, 57, 0
8, 14610, Note_on_c, 7, 57, 100
8, 14635, Note_on_c, 7, 57, 0
8, 14640, Note_on_c, 7, 55, 100
8, 14665, Note_on_c, 7, 55, 0
8, 14670, Note_on_c, 7, 55, 100
8, 14725, Note_on_c, 7, 55, 0
8, 14730, Note_on_c, 7, 53, 100
8, 14800, Note_on_c, 7, 53, 0
8, 15963, Note_on_c, 7, 57, 100
8, 16018, Note_on_c, 7, 57, 0
8, 16023, Note_on_c, 7, 60, 100
8, 16108, Note_on_c, 7, 60, 0
8, 16113, Note_on_c, 7, 55, 100
8, 16143, Note_on_c, 7, 55, 0
8, 16143, Note_on_c, 7, 57, 100
8, 16263, Note_on_c, 7, 57, 0
8, 17883, Note_on_c, 7, 57, 100
8, 17938, Note_on_c, 7, 57, 0
8, 17943, Note_on_c, 7, 60, 100
8, 18028, Note_on_c, 7, 60, 0
8, 18033, Note_on_c, 7, 55, 100
8, 18063, Note_on_c, 7, 55, 0
8, 18063, Note_on_c, 7, 57, 100
8, 18183, Note_on_c, 7, 57, 0
8, 19200, Note_on_c, 7, 64, 100
8, 19200, Note_on_c, 7, 69, 100
8, 19440, Note_on_c, 7, 69, 0
8, 19440, Note_on_c, 7, 64, 0
8, 19440, Note_on_c, 7, 62, 100
8, 19440, Note_on_c, 7, 67, 100
8, 19620, Note_on_c, 7, 67, 0
8, 19620, Note_on_c, 7, 62, 0
8, 19620, Note_on_c, 7, 60, 100
8, 19620, Note_on_c, 7, 65, 100
8, 19980, Note_on_c, 7, 65, 0
8, 19980, Note_on_c, 7, 60, 0
8, 21120, Note_on_c, 7, 57, 100
8, 21175, Note_on_c, 7, 57, 0
8, 21180, Note_on_c, 7, 57, 100
8, 21235, Note_on_c, 7, 57, 0
8, 21240, Note_on_c, 7, 57, 100
8, 21265, Note_on_c, 7, 57, 0
8, 21270, Note_on_c, 7, 57, 100
8, 21295, Note_on_c, 7, 57, 0
8, 21300, Note_on_c, 7, 57, 100
8, 21325, Note_on_c, 7, 57, 0
8, 21330, Note_on_c, 7, 57, 100
8, 21355, Note_on_c, 7, 57, 0
8, 21360, Note_on_c, 7, 55, 100
8, 21385, Note_on_c, 7, 55, 0
8, 21390, Note_on_c, 7, 55, 100
8, 21445, Note_on_c, 7, 55, 0
8, 21450, Note_on_c, 7, 53, 100
8, 21520, Note_on_c, 7, 53, 0
8, 22080, Note_on_c, 7, 57, 100
8, 22135, Note_on_c, 7, 57, 0
8, 22140, Note_on_c, 7, 57, 100
8, 22195, Note_on_c, 7, 57, 0
8, 22200, Note_on_c, 7, 57, 100
8, 22225, Note_on_c, 7, 57, 0
8, 22230, Note_on_c, 7, 57, 100
8, 22255, Note_on_c, 7, 57, 0
8, 22260, Note_on_c, 7, 57, 100
8, 22285, Note_on_c, 7, 57, 0
8, 22290, Note_on_c, 7, 57, 100
8, 22315, Note_on_c, 7, 57, 0
8, 22320, Note_on_c, 7, 55, 100
8, 22345, Note_on_c, 7, 55, 0
8, 22350, Note_on_c, 7, 55, 100
8, 22405, Note_on_c, 7, 55, 0
8, 22410, Note_on_c, 7, 53, 100
8, 22480, Note_on_c, 7, 53, 0
8, 23040, Note_on_c, 7, 57, 100
8, 23095, Note_on_c, 7, 57, 0
8, 23100, Note_on_c, 7, 57, 100
8, 23155, Note_on_c, 7, 57, 0
8, 23160, Note_on_c, 7, 57, 100
8, 23185, Note_on_c, 7, 57, 0
8, 23190, Note_on_c, 7, 57, 100
8, 23215, Note_on_c, 7, 57, 0
8, 23220, Note_on_c, 7, 57, 100
8, 23245, Note_on_c, 7, 57, 0
8, 23250, Note_on_c, 7, 57, 100
8, 23275, Note_on_c, 7, 57, 0
8, 23280, Note_on_c, 7, 55, 100
8, 23305, Note_on_c, 7, 55, 0
8, 23310, Note_on_c, 7, 55, 100
8, 23365, Note_on_c, 7, 55, 0
8, 23370, Note_on_c, 7, 53, 100
8, 23440, Note_on_c, 7, 53, 0
8, 24000, Note_on_c, 7, 57, 100
8, 24055, Note_on_c, 7, 57, 0
8, 24060, Note_on_c, 7, 57, 100
8, 24115, Note_on_c, 7, 57, 0
8, 24120, Note_on_c, 7, 57, 100
8, 24145, Note_on_c, 7, 57, 0
8, 24150, Note_on_c, 7, 57, 100
8, 24175, Note_on_c, 7, 57, 0
8, 24180, Note_on_c, 7, 57, 100
8, 24205, Note_on_c, 7, 57, 0
8, 24210, Note_on_c, 7, 57, 100
8, 24235, Note_on_c, 7, 57, 0
8, 24240, Note_on_c, 7, 55, 100
8, 24265, Note_on_c, 7, 55, 0
8, 24270, Note_on_c, 7, 55, 100
8, 24325, Note_on_c, 7, 55, 0
8, 24330, Note_on_c, 7, 53, 100
8, 24400, Note_on_c, 7, 53, 0
8, 28800, Note_on_c, 7, 57, 100
8, 28855, Note_on_c, 7, 57, 0
8, 28860, Note_on_c, 7, 57, 100
8, 28915, Note_on_c, 7, 57, 0
8, 28920, Note_on_c, 7, 57, 100
8, 28945, Note_on_c, 7, 57, 0
8, 28950, Note_on_c, 7, 57, 100
8, 28975, Note_on_c, 7, 57, 0
8, 28980, Note_on_c, 7, 57, 100
8, 29005, Note_on_c, 7, 57, 0
8, 29010, Note_on_c, 7, 57, 100
8, 29035, Note_on_c, 7, 57, 0
8, 29040, Note_on_c, 7, 55, 100
8, 29065, Note_on_c, 7, 55, 0
8, 29070, Note_on_c, 7, 55, 100
8, 29125, Note_on_c, 7, 55, 0
8, 29130, Note_on_c, 7, 53, 100
8, 29200, Note_on_c, 7, 53, 0
8, 29760, Note_on_c, 7, 57, 100
8, 29815, Note_on_c, 7, 57, 0
8, 29820, Note_on_c, 7, 57, 100
8, 29875, Note_on_c, 7, 57, 0
8, 29880, Note_on_c, 7, 57, 100
8, 29905, Note_on_c, 7, 57, 0
8, 29910, Note_on_c, 7, 57, 100
8, 29935, Note_on_c, 7, 57, 0
8, 29940, Note_on_c, 7, 57, 100
8, 29965, Note_on_c, 7, 57, 0
8, 29970, Note_on_c, 7, 57, 100
8, 29995, Note_on_c, 7, 57, 0
8, 30000, Note_on_c, 7, 55, 100
8, 30025, Note_on_c, 7, 55, 0
8, 30030, Note_on_c, 7, 55, 100
8, 30085, Note_on_c, 7, 55, 0
8, 30090, Note_on_c, 7, 53, 100
8, 30160, Note_on_c, 7, 53, 0
8, 30720, Note_on_c, 7, 57, 100
8, 30775, Note_on_c, 7, 57, 0
8, 30780, Note_on_c, 7, 57, 100
8, 30835, Note_on_c, 7, 57, 0
8, 30840, Note_on_c, 7, 57, 100
8, 30865, Note_on_c, 7, 57, 0
8, 30870, Note_on_c, 7, 57, 100
8, 30895, Note_on_c, 7, 57, 0
8, 30900, Note_on_c, 7, 57, 100
8, 30925, Note_on_c, 7, 57, 0
8, 30930, Note_on_c, 7, 57, 100
8, 30955, Note_on_c, 7, 57, 0
8, 30960, Note_on_c, 7, 55, 100
8, 30985, Note_on_c, 7, 55, 0
8, 30990, Note_on_c, 7, 55, 100
8, 31045, Note_on_c, 7, 55, 0
8, 31050, Note_on_c, 7, 53, 100
8, 31120, Note_on_c, 7, 53, 0
8, 31680, Note_on_c, 7, 57, 100
8, 31735, Note_on_c, 7, 57, 0
8, 31740, Note_on_c, 7, 57, 100
8, 31795, Note_on_c, 7, 57, 0
8, 31800, Note_on_c, 7, 57, 100
8, 31825, Note_on_c, 7, 57, 0
8, 31830, Note_on_c, 7, 57, 100
8, 31855, Note_on_c, 7, 57, 0
8, 31860, Note_on_c, 7, 57, 100
8, 31885, Note_on_c, 7, 57, 0
8, 31890, Note_on_c, 7, 57, 100
8, 31915, Note_on_c, 7, 57, 0
8, 31920, Note_on_c, 7, 55, 100
8, 31945, Note_on_c, 7, 55, 0
8, 31950, Note_on_c, 7, 55, 100
8, 32005, Note_on_c, 7, 55, 0
8, 32010, Note_on_c, 7, 53, 100
8, 32080, Note_on_c, 7, 53, 0
8, 34560, Note_on_c, 7, 57, 100
8, 34615, Note_on_c, 7, 57, 0
8, 34620, Note_on_c, 7, 57, 98
8, 34675, Note_on_c, 7, 57, 0
8, 34680, Note_on_c, 7, 57, 96
8, 34705, Note_on_c, 7, 57, 0
8, 34710, Note_on_c, 7, 57, 95
8, 34735, Note_on_c, 7, 57, 0
8, 34740, Note_on_c, 7, 57, 94
8, 34765, Note_on_c, 7, 57, 0
8, 34770, Note_on_c, 7, 57, 93
8, 34795, Note_on_c, 7, 57, 0
8, 34800, Note_on_c, 7, 55, 92
8, 34825, Note_on_c, 7, 55, 0
8, 34830, Note_on_c, 7, 55, 91
8, 34885, Note_on_c, 7, 55, 0
8, 34890, Note_on_c, 7, 53, 89
8, 34960, Note_on_c, 7, 53, 0
8, 35520, Note_on_c, 7, 57, 67
8, 35575, Note_on_c, 7, 57, 0
8, 35580, Note_on_c, 7, 57, 65
8, 35635, Note_on_c, 7, 57, 0
8, 35640, Note_on_c, 7, 57, 63
8, 35665, Note_on_c, 7, 57, 0
8, 35670, Note_on_c, 7, 57, 62
8, 35695, Note_on_c, 7, 57, 0
8, 35700, Note_on_c, 7, 57, 61
8, 35725, Note_on_c, 7, 57, 0
8, 35730, Note_on_c, 7, 57, 60
8, 35755, Note_on_c, 7, 57, 0
8, 35760, Note_on_c, 7, 55, 59
8, 35785, Note_on_c, 7, 55, 0
8, 35790, Note_on_c, 7, 55, 58
8, 35845, Note_on_c, 7, 55, 0
8, 35850, Note_on_c, 7, 53, 56
8, 35920, Note_on_c, 7, 53, 0
8, 36480, Note_on_c, 7, 57, 34
8, 36535, Note_on_c, 7, 57, 0
8, 36540, Note_on_c, 7, 57, 32
8, 36595, Note_on_c, 7, 57, 0
8, 36600, Note_on_c, 7, 57, 30
8, 36625, Note_on_c, 7, 57, 0
8, 36630, Note_on_c, 7, 57, 29
8, 36655, Note_on_c, 7, 57, 0
8, 36660, Note_on_c, 7, 57, 28
8, 36685, Note_on_c, 7, 57, 0
8, 36690, Note_on_c, 7, 57, 27
8, 36715, Note_on_c, 7, 57, 0
8, 36720, Note_on_c, 7, 55, 25
8, 36745, Note_on_c, 7, 55, 0
8, 36750, Note_on_c, 7, 55, 24
8, 36805, Note_on_c, 7, 55, 0
8, 36810, Note_on_c, 7, 53, 22
8, 36880, Note_on_c, 7, 53, 0
8, 36880, End_track
9, 0, Start_track
9, 0, MIDI_port, 0
9, 0, Program_c, 8, 70
9, 0, Control_c, 8, 7, 115
9, 0, Control_c, 8, 10, 64
9, 0, Control_c, 8, 1, 0
9, 10, Control_c, 8, 8, 64
9, 20, Control_c, 8, 11, 64
9, 120, Control_c, 8, 65, 0
9, 120, Control_c, 8, 67, 0
9, 120, Control_c, 8, 93, 0
9, 120, Control_c, 8, 91, 64
9, 120, Control_c, 8, 64, 0
9, 120, Pitch_bend_c, 8, 8192
9, 120, Control_c, 8, 68, 0
9, 11940, Note_on_c, 8, 57, 100
9, 11995, Note_on_c, 8, 57, 0
9, 12000, Note_on_c, 8, 60, 100
9, 12055, Note_on_c, 8, 60, 0
9, 12060, Note_on_c, 8, 57, 100
9, 12115, Note_on_c, 8, 57, 0
9, 12120, Note_on_c, 8, 60, 100
9, 12175, Note_on_c, 8, 60, 0
9, 12180, Note_on_c, 8, 57, 100
9, 12235, Note_on_c, 8, 57, 0
9, 12240, Note_on_c, 8, 62, 100
9, 12320, Note_on_c, 8, 62, 0
9, 12330, Note_on_c, 8, 57, 100
9, 12420, Note_on_c, 8, 57, 0
9, 12870, Note_on_c, 8, 60, 100
9, 12895, Note_on_c, 8, 60, 0
9, 12900, Note_on_c, 8, 60, 100
9, 12925, Note_on_c, 8, 60, 0
9, 12960, Note_on_c, 8, 60, 100
9, 13015, Note_on_c, 8, 60, 0
9, 13020, Note_on_c, 8, 57, 100
9, 13045, Note_on_c, 8, 57, 0
9, 13050, Note_on_c, 8, 52, 100
9, 13120, Note_on_c, 8, 52, 0
9, 13140, Note_on_c, 8, 52, 100
9, 13195, Note_on_c, 8, 52, 0
9, 13200, Note_on_c, 8, 50, 100
9, 13255, Note_on_c, 8, 50, 0
9, 13260, Note_on_c, 8, 48, 100
9, 13315, Note_on_c, 8, 48, 0
9, 13320, Note_on_c, 8, 48, 100
9, 13395, Note_on_c, 8, 48, 0
9, 13860, Note_on_c, 8, 57, 100
9, 13915, Note_on_c, 8, 57, 0
9, 13920, Note_on_c, 8, 60, 100
9, 13975, Note_on_c, 8, 60, 0
9, 13980, Note_on_c, 8, 57, 100
9, 14035, Note_on_c, 8, 57, 0
9, 14040, Note_on_c, 8, 60, 100
9, 14095, Note_on_c, 8, 60, 0
9, 14100, Note_on_c, 8, 57, 100
9, 14155, Note_on_c, 8, 57, 0
9, 14160, Note_on_c, 8, 62, 100
9, 14240, Note_on_c, 8, 62, 0
9, 14250, Note_on_c, 8, 57, 100
9, 14340, Note_on_c, 8, 57, 0
9, 21540, Note_on_c, 8, 64, 100
9, 21570, Note_on_c, 8, 64, 0
9, 21570, Note_on_c, 8, 64, 100
9, 21600, Note_on_c, 8, 64, 0
9, 21600, Note_on_c, 8, 64, 100
9, 21655, Note_on_c, 8, 64, 0
9, 21660, Note_on_c, 8, 64, 100
9, 21715, Note_on_c, 8, 64, 0
9, 21720, Note_on_c, 8, 64, 100
9, 21775, Note_on_c, 8, 64, 0
9, 21780, Note_on_c, 8, 64, 100
9, 21835, Note_on_c, 8, 64, 0
9, 21840, Note_on_c, 8, 64, 100
9, 21920, Note_on_c, 8, 64, 0
9, 21930, Note_on_c, 8, 62, 100
9, 21990, Note_on_c, 8, 62, 0
9, 21990, Note_on_c, 8, 60, 100
9, 22050, Note_on_c, 8, 60, 0
9, 22470, Note_on_c, 8, 60, 100
9, 22495, Note_on_c, 8, 60, 0
9, 22500, Note_on_c, 8, 60, 100
9, 22525, Note_on_c, 8, 60, 0
9, 22560, Note_on_c, 8, 60, 100
9, 22615, Note_on_c, 8, 60, 0
9, 22620, Note_on_c, 8, 57, 100
9, 22645, Note_on_c, 8, 57, 0
9, 22650, Note_on_c, 8, 52, 100
9, 22720, Note_on_c, 8, 52, 0
9, 22740, Note_on_c, 8, 52, 100
9, 22795, Note_on_c, 8, 52, 0
9, 22800, Note_on_c, 8, 50, 100
9, 22855, Note_on_c, 8, 50, 0
9, 22860, Note_on_c, 8, 48, 100
9, 22915, Note_on_c, 8, 48, 0
9, 22920, Note_on_c, 8, 48, 100
9, 22995, Note_on_c, 8, 48, 0
9, 23460, Note_on_c, 8, 57, 100
9, 23515, Note_on_c, 8, 57, 0
9, 23520, Note_on_c, 8, 60, 100
9, 23575, Note_on_c, 8, 60, 0
9, 23580, Note_on_c, 8, 57, 100
9, 23635, Note_on_c, 8, 57, 0
9, 23640, Note_on_c, 8, 60, 100
9, 23695, Note_on_c, 8, 60, 0
9, 23700, Note_on_c, 8, 57, 100
9, 23755, Note_on_c, 8, 57, 0
9, 23760, Note_on_c, 8, 62, 100
9, 23840, Note_on_c, 8, 62, 0
9, 23850, Note_on_c, 8, 57, 100
9, 23940, Note_on_c, 8, 57, 0
9, 29220, Note_on_c, 8, 64, 100
9, 29250, Note_on_c, 8, 64, 0
9, 29250, Note_on_c, 8, 64, 100
9, 29280, Note_on_c, 8, 64, 0
9, 29280, Note_on_c, 8, 64, 100
9, 29335, Note_on_c, 8, 64, 0
9, 29340, Note_on_c, 8, 64, 100
9, 29395, Note_on_c, 8, 64, 0
9, 29400, Note_on_c, 8, 64, 100
9, 29455, Note_on_c, 8, 64, 0
9, 29460, Note_on_c, 8, 64, 100
9, 29515, Note_on_c, 8, 64, 0
9, 29520, Note_on_c, 8, 64, 100
9, 29600, Note_on_c, 8, 64, 0
9, 29610, Note_on_c, 8, 62, 100
9, 29670, Note_on_c, 8, 62, 0
9, 29670, Note_on_c, 8, 60, 100
9, 29730, Note_on_c, 8, 60, 0
9, 30150, Note_on_c, 8, 60, 100
9, 30175, Note_on_c, 8, 60, 0
9, 30180, Note_on_c, 8, 60, 100
9, 30205, Note_on_c, 8, 60, 0
9, 30240, Note_on_c, 8, 60, 100
9, 30295, Note_on_c, 8, 60, 0
9, 30300, Note_on_c, 8, 57, 100
9, 30325, Note_on_c, 8, 57, 0
9, 30330, Note_on_c, 8, 52, 100
9, 30400, Note_on_c, 8, 52, 0
9, 30420, Note_on_c, 8, 52, 100
9, 30475, Note_on_c, 8, 52, 0
9, 30480, Note_on_c, 8, 50, 100
9, 30535, Note_on_c, 8, 50, 0
9, 30540, Note_on_c, 8, 48, 100
9, 30595, Note_on_c, 8, 48, 0
9, 30600, Note_on_c, 8, 48, 100
9, 30675, Note_on_c, 8, 48, 0
9, 31140, Note_on_c, 8, 57, 100
9, 31195, Note_on_c, 8, 57, 0
9, 31200, Note_on_c, 8, 60, 100
9, 31255, Note_on_c, 8, 60, 0
9, 31260, Note_on_c, 8, 57, 100
9, 31315, Note_on_c, 8, 57, 0
9, 31320, Note_on_c, 8, 60, 100
9, 31375, Note_on_c, 8, 60, 0
9, 31380, Note_on_c, 8, 57, 100
9, 31435, Note_on_c, 8, 57, 0
9, 31440, Note_on_c, 8, 62, 100
9, 31520, Note_on_c, 8, 62, 0
9, 31530, Note_on_c, 8, 57, 100
9, 31620, Note_on_c, 8, 57, 0
9, 34980, Note_on_c, 8, 64, 86
9, 35010, Note_on_c, 8, 64, 0
9, 35010, Note_on_c, 8, 64, 85
9, 35040, Note_on_c, 8, 64, 0
9, 35040, Note_on_c, 8, 64, 84
9, 35095, Note_on_c, 8, 64, 0
9, 35100, Note_on_c, 8, 64, 82
9, 35155, Note_on_c, 8, 64, 0
9, 35160, Note_on_c, 8, 64, 80
9, 35215, Note_on_c, 8, 64, 0
9, 35220, Note_on_c, 8, 64, 78
9, 35275, Note_on_c, 8, 64, 0
9, 35280, Note_on_c, 8, 64, 75
9, 35360, Note_on_c, 8, 64, 0
9, 35370, Note_on_c, 8, 62, 72
9, 35430, Note_on_c, 8, 62, 0
9, 35430, Note_on_c, 8, 60, 70
9, 35490, Note_on_c, 8, 60, 0
9, 35910, Note_on_c, 8, 60, 54
9, 35935, Note_on_c, 8, 60, 0
9, 35940, Note_on_c, 8, 60, 53
9, 35965, Note_on_c, 8, 60, 0
9, 36000, Note_on_c, 8, 60, 50
9, 36055, Note_on_c, 8, 60, 0
9, 36060, Note_on_c, 8, 57, 48
9, 36085, Note_on_c, 8, 57, 0
9, 36090, Note_on_c, 8, 52, 47
9, 36160, Note_on_c, 8, 52, 0
9, 36180, Note_on_c, 8, 52, 44
9, 36235, Note_on_c, 8, 52, 0
9, 36240, Note_on_c, 8, 50, 42
9, 36295, Note_on_c, 8, 50, 0
9, 36300, Note_on_c, 8, 48, 40
9, 36355, Note_on_c, 8, 48, 0
9, 36360, Note_on_c, 8, 48, 38
9, 36435, Note_on_c, 8, 48, 0
9, 36900, Note_on_c, 8, 57, 19
9, 36955, Note_on_c, 8, 57, 0
9, 36960, Note_on_c, 8, 60, 17
9, 37015, Note_on_c, 8, 60, 0
9, 37020, Note_on_c, 8, 57, 15
9, 37075, Note_on_c, 8, 57, 0
9, 37080, Note_on_c, 8, 60, 13
9, 37135, Note_on_c, 8, 60, 0
9, 37140, Note_on_c, 8, 57, 11
9, 37195, Note_on_c, 8, 57, 0
9, 37200, Note_on_c, 8, 62, 9
9, 37280, Note_on_c, 8, 62, 0
9, 37290, Note_on_c, 8, 57, 6
9, 37380, Note_on_c, 8, 57, 0
9, 37380, End_track
10, 0, Start_track
10, 0, MIDI_port, 0
10, 0, Control_c, 9, 7, 125
10, 0, Control_c, 9, 10, 64
10, 0, Control_c, 9, 1, 0
10, 10, Control_c, 9, 8, 64
10, 20, Control_c, 9, 11, 64
10, 120, Control_c, 9, 65, 0
10, 120, Control_c, 9, 67, 0
10, 120, Control_c, 9, 93, 0
10, 120, Control_c, 9, 91, 64
10, 120, Control_c, 9, 64, 0
10, 120, Pitch_bend_c, 9, 8192
10, 120, Control_c, 9, 68, 0
10, 960, Note_on_c, 9, 36, 120
10, 1080, Note_on_c, 9, 36, 0
10, 1080, Note_on_c, 9, 37, 120
10, 1200, Note_on_c, 9, 37, 0
10, 1200, Note_on_c, 9, 36, 120
10, 1260, Note_on_c, 9, 36, 120
10, 1320, Note_on_c, 9, 36, 0
10, 1320, Note_on_c, 9, 37, 120
10, 1380, Note_on_c, 9, 36, 0
10, 1410, Note_on_c, 9, 36, 120
10, 1440, Note_on_c, 9, 37, 0
10, 1440, Note_on_c, 9, 36, 120
10, 1530, Note_on_c, 9, 36, 0
10, 1560, Note_on_c, 9, 36, 0
10, 1560, Note_on_c, 9, 37, 120
10, 1680, Note_on_c, 9, 37, 0
10, 1680, Note_on_c, 9, 36, 120
10, 1740, Note_on_c, 9, 36, 120
10, 1800, Note_on_c, 9, 36, 0
10, 1800, Note_on_c, 9, 37, 120
10, 1860, Note_on_c, 9, 36, 0
10, 1890, Note_on_c, 9, 36, 120
10, 1920, Note_on_c, 9, 37, 0
10, 1920, Note_on_c, 9, 36, 120
10, 2010, Note_on_c, 9, 36, 0
10, 2040, Note_on_c, 9, 36, 0
10, 2040, Note_on_c, 9, 37, 120
10, 2130, Note_on_c, 9, 36, 120
10, 2160, Note_on_c, 9, 37, 0
10, 2160, Note_on_c, 9, 36, 120
10, 2220, Note_on_c, 9, 36, 120
10, 2250, Note_on_c, 9, 36, 0
10, 2280, Note_on_c, 9, 36, 0
10, 2280, Note_on_c, 9, 37, 120
10, 2340, Note_on_c, 9, 36, 0
10, 2340, Note_on_c, 9, 36, 120
10, 2400, Note_on_c, 9, 37, 0
10, 2460, Note_on_c, 9, 36, 0
10, 2460, Note_on_c, 9, 36, 120
10, 2520, Note_on_c, 9, 37, 120
10, 2580, Note_on_c, 9, 36, 0
10, 2610, Note_on_c, 9, 37, 120
10, 2610, Note_on_c, 9, 36, 120
10, 2640, Note_on_c, 9, 37, 0
10, 2640, Note_on_c, 9, 37, 120
10, 2640, Note_on_c, 9, 36, 120
10, 2670, Note_on_c, 9, 37, 120
10, 2730, Note_on_c, 9, 37, 0
10, 2730, Note_on_c, 9, 36, 0
10, 2730, Note_on_c, 9, 37, 120
10, 2760, Note_on_c, 9, 37, 0
10, 2760, Note_on_c, 9, 36, 0
10, 2760, Note_on_c, 9, 37, 120
10, 2790, Note_on_c, 9, 37, 0
10, 2820, Note_on_c, 9, 36, 120
10, 2850, Note_on_c, 9, 37, 0
10, 2850, Note_on_c, 9, 36, 120
10, 2880, Note_on_c, 9, 37, 0
10, 2880, Note_on_c, 9, 36, 120
10, 2940, Note_on_c, 9, 36, 0
10, 2970, Note_on_c, 9, 36, 0
10, 3000, Note_on_c, 9, 36, 0
10, 3000, Note_on_c, 9, 37, 120
10, 3090, Note_on_c, 9, 36, 120
10, 3120, Note_on_c, 9, 37, 0
10, 3120, Note_on_c, 9, 42, 100
10, 3120, Note_on_c, 9, 36, 120
10, 3180, Note_on_c, 9, 42, 100
10, 3180, Note_on_c, 9, 36, 120
10, 3210, Note_on_c, 9, 36, 0
10, 3240, Note_on_c, 9, 36, 0
10, 3240, Note_on_c, 9, 42, 0
10, 3240, Note_on_c, 9, 37, 120
10, 3300, Note_on_c, 9, 42, 0
10, 3300, Note_on_c, 9, 36, 0
10, 3360, Note_on_c, 9, 37, 0
10, 3480, Note_on_c, 9, 37, 120
10, 3570, Note_on_c, 9, 36, 120
10, 3600, Note_on_c, 9, 37, 0
10, 3600, Note_on_c, 9, 42, 100
10, 3600, Note_on_c, 9, 36, 120
10, 3660, Note_on_c, 9, 42, 100
10, 3660, Note_on_c, 9, 36, 120
10, 3690, Note_on_c, 9, 36, 0
10, 3720, Note_on_c, 9, 36, 0
10, 3720, Note_on_c, 9, 42, 0
10, 3720, Note_on_c, 9, 36, 120
10, 3720, Note_on_c, 9, 37, 120
10, 3750, Note_on_c, 9, 36, 120
10, 3780, Note_on_c, 9, 36, 0
10, 3780, Note_on_c, 9, 42, 0
10, 3840, Note_on_c, 9, 37, 0
10, 3840, Note_on_c, 9, 36, 0
10, 3840, Note_on_c, 9, 36, 120
10, 3870, Note_on_c, 9, 36, 0
10, 3960, Note_on_c, 9, 36, 0
10, 3960, Note_on_c, 9, 37, 120
10, 4050, Note_on_c, 9, 36, 120
10, 4080, Note_on_c, 9, 37, 0
10, 4080, Note_on_c, 9, 42, 100
10, 4080, Note_on_c, 9, 36, 120
10, 4140, Note_on_c, 9, 42, 100
10, 4140, Note_on_c, 9, 36, 120
10, 4170, Note_on_c, 9, 36, 0
10, 4200, Note_on_c, 9, 36, 0
10, 4200, Note_on_c, 9, 42, 0
10, 4200, Note_on_c, 9, 37, 120
10, 4260, Note_on_c, 9, 42, 0
10, 4260, Note_on_c, 9, 36, 0
10, 4320, Note_on_c, 9, 37, 0
10, 4440, Note_on_c, 9, 37, 120
10, 4530, Note_on_c, 9, 36, 120
10, 4560, Note_on_c, 9, 37, 0
10, 4560, Note_on_c, 9, 42, 100
10, 4560, Note_on_c, 9, 36, 120
10, 4620, Note_on_c, 9, 42, 100
10, 4620, Note_on_c, 9, 36, 120
10, 4650, Note_on_c, 9, 36, 0
10, 4680, Note_on_c, 9, 36, 0
10, 4680, Note_on_c, 9, 42, 0
10, 4680, Note_on_c, 9, 36, 120
10, 4680, Note_on_c, 9, 37, 120
10, 4710, Note_on_c, 9, 36, 120
10, 4740, Note_on_c, 9, 36, 0
10, 4740, Note_on_c, 9, 42, 0
10, 4800, Note_on_c, 9, 37, 0
10, 4800, Note_on_c, 9, 36, 0
10, 4800, Note_on_c, 9, 36, 120
10, 4830, Note_on_c, 9, 36, 0
10, 4920, Note_on_c, 9, 36, 0
10, 4920, Note_on_c, 9, 37, 120
10, 5010, Note_on_c, 9, 36, 120
10, 5040, Note_on_c, 9, 37, 0
10, 5040, Note_on_c, 9, 42, 100
10, 5040, Note_on_c, 9, 36, 120
10, 5100, Note_on_c, 9, 42, 100
10, 5100, Note_on_c, 9, 36, 120
10, 5130, Note_on_c, 9, 36, 0
10, 5160, Note_on_c, 9, 36, 0
10, 5160, Note_on_c, 9, 42, 0
10, 5160, Note_on_c, 9, 37, 120
10, 5220, Note_on_c, 9, 42, 0
10, 5220, Note_on_c, 9, 36, 0
10, 5280, Note_on_c, 9, 37, 0
10, 5400, Note_on_c, 9, 36, 120
10, 5520, Note_on_c, 9, 36, 0
10, 5520, Note_on_c, 9, 42, 100
10, 5520, Note_on_c, 9, 36, 120
10, 5580, Note_on_c, 9, 42, 100
10, 5580, Note_on_c, 9, 36, 120
10, 5640, Note_on_c, 9, 36, 0
10, 5640, Note_on_c, 9, 42, 0
10, 5640, Note_on_c, 9, 40, 120
10, 5670, Note_on_c, 9, 40, 120
10, 5700, Note_on_c, 9, 36, 0
10, 5700, Note_on_c, 9, 42, 0
10, 5760, Note_on_c, 9, 40, 0
10, 5760, Note_on_c, 9, 36, 120
10, 5790, Note_on_c, 9, 40, 0
10, 5880, Note_on_c, 9, 36, 0
10, 5880, Note_on_c, 9, 37, 120
10, 5970, Note_on_c, 9, 36, 120
10, 6000, Note_on_c, 9, 37, 0
10, 6000, Note_on_c, 9, 36, 120
10, 6060, Note_on_c, 9, 36, 120
10, 6090, Note_on_c, 9, 36, 0
10, 6120, Note_on_c, 9, 36, 0
10, 6120, Note_on_c, 9, 37, 120
10, 6150, Note_on_c, 9, 36, 120
10, 6180, Note_on_c, 9, 36, 0
10, 6180, Note_on_c, 9, 36, 120
10, 6210, Note_on_c, 9, 36, 120
10, 6240, Note_on_c, 9, 37, 0
10, 6240, Note_on_c, 9, 36, 120
10, 6270, Note_on_c, 9, 36, 0
10, 6300, Note_on_c, 9, 36, 0
10, 6330, Note_on_c, 9, 36, 0
10, 6360, Note_on_c, 9, 36, 0
10, 6360, Note_on_c, 9, 37, 120
10, 6450, Note_on_c, 9, 36, 120
10, 6480, Note_on_c, 9, 37, 0
10, 6480, Note_on_c, 9, 36, 120
10, 6540, Note_on_c, 9, 36, 120
10, 6570, Note_on_c, 9, 36, 0
10, 6600, Note_on_c, 9, 36, 0
10, 6600, Note_on_c, 9, 37, 120
10, 6630, Note_on_c, 9, 36, 120
10, 6660, Note_on_c, 9, 36, 0
10, 6660, Note_on_c, 9, 36, 120
10, 6690, Note_on_c, 9, 36, 120
10, 6720, Note_on_c, 9, 37, 0
10, 6720, Note_on_c, 9, 36, 120
10, 6750, Note_on_c, 9, 36, 0
10, 6780, Note_on_c, 9, 36, 0
10, 6810, Note_on_c, 9, 36, 0
10, 6840, Note_on_c, 9, 36, 0
10, 6840, Note_on_c, 9, 37, 120
10, 6930, Note_on_c, 9, 36, 120
10, 6960, Note_on_c, 9, 37, 0
10, 6960, Note_on_c, 9, 36, 120
10, 7020, Note_on_c, 9, 36, 120
10, 7050, Note_on_c, 9, 36, 0
10, 7080, Note_on_c, 9, 36, 0
10, 7080, Note_on_c, 9, 37, 120
10, 7110, Note_on_c, 9, 36, 120
10, 7140, Note_on_c, 9, 36, 0
10, 7140, Note_on_c, 9, 36, 120
10, 7170, Note_on_c, 9, 36, 120
10, 7200, Note_on_c, 9, 37, 0
10, 7200, Note_on_c, 9, 36, 120
10, 7230, Note_on_c, 9, 36, 0
10, 7260, Note_on_c, 9, 36, 0
10, 7290, Note_on_c, 9, 36, 0
10, 7320, Note_on_c, 9, 36, 0
10, 7320, Note_on_c, 9, 37, 120
10, 7410, Note_on_c, 9, 36, 120
10, 7440, Note_on_c, 9, 37, 0
10, 7440, Note_on_c, 9, 36, 120
10, 7500, Note_on_c, 9, 36, 120
10, 7530, Note_on_c, 9, 36, 0
10, 7560, Note_on_c, 9, 36, 0
10, 7560, Note_on_c, 9, 37, 120
10, 7590, Note_on_c, 9, 36, 120
10, 7620, Note_on_c, 9, 36, 0
10, 7620, Note_on_c, 9, 36, 120
10, 7650, Note_on_c, 9, 36, 120
10, 7680, Note_on_c, 9, 37, 0
10, 7680, Note_on_c, 9, 36, 120
10, 7710, Note_on_c, 9, 36, 0
10, 7740, Note_on_c, 9, 36, 0
10, 7770, Note_on_c, 9, 36, 0
10, 7800, Note_on_c, 9, 36, 0
10, 7800, Note_on_c, 9, 37, 120
10, 7890, Note_on_c, 9, 36, 120
10, 7920, Note_on_c, 9, 37, 0
10, 7920, Note_on_c, 9, 36, 120
10, 7980, Note_on_c, 9, 36, 120
10, 8010, Note_on_c, 9, 36, 0
10, 8040, Note_on_c, 9, 36, 0
10, 8040, Note_on_c, 9, 37, 120
10, 8070, Note_on_c, 9, 36, 120
10, 8100, Note_on_c, 9, 36, 0
10, 8100, Note_on_c, 9, 36, 120
10, 8130, Note_on_c, 9, 36, 120
10, 8160, Note_on_c, 9, 37, 0
10, 8160, Note_on_c, 9, 36, 120
10, 8190, Note_on_c, 9, 36, 0
10, 8220, Note_on_c, 9, 36, 0
10, 8250, Note_on_c, 9, 36, 0
10, 8280, Note_on_c, 9, 36, 0
10, 8280, Note_on_c, 9, 37, 120
10, 8370, Note_on_c, 9, 36, 120
10, 8400, Note_on_c, 9, 37, 0
10, 8400, Note_on_c, 9, 36, 120
10, 8460, Note_on_c, 9, 36, 120
10, 8490, Note_on_c, 9, 36, 0
10, 8520, Note_on_c, 9, 36, 0
10, 8520, Note_on_c, 9, 37, 120
10, 8550, Note_on_c, 9, 36, 120
10, 8580, Note_on_c, 9, 36, 0
10, 8580, Note_on_c, 9, 36, 120
10, 8610, Note_on_c, 9, 36, 120
10, 8640, Note_on_c, 9, 37, 0
10, 8640, Note_on_c, 9, 36, 120
10, 8670, Note_on_c, 9, 36, 0
10, 8700, Note_on_c, 9, 36, 0
10, 8730, Note_on_c, 9, 36, 0
10, 8760, Note_on_c, 9, 36, 0
10, 8760, Note_on_c, 9, 37, 120
10, 8850, Note_on_c, 9, 36, 120
10, 8880, Note_on_c, 9, 37, 0
10, 8880, Note_on_c, 9, 36, 120
10, 8940, Note_on_c, 9, 36, 120
10, 8970, Note_on_c, 9, 36, 0
10, 9000, Note_on_c, 9, 36, 0
10, 9000, Note_on_c, 9, 37, 120
10, 9030, Note_on_c, 9, 36, 120
10, 9060, Note_on_c, 9, 36, 0
10, 9060, Note_on_c, 9, 36, 120
10, 9090, Note_on_c, 9, 36, 120
10, 9120, Note_on_c, 9, 37, 0
10, 9120, Note_on_c, 9, 36, 120
10, 9150, Note_on_c, 9, 36, 0
10, 9180, Note_on_c, 9, 36, 0
10, 9210, Note_on_c, 9, 36, 0
10, 9240, Note_on_c, 9, 36, 0
10, 9240, Note_on_c, 9, 37, 120
10, 9330, Note_on_c, 9, 36, 120
10, 9360, Note_on_c, 9, 37, 0
10, 9360, Note_on_c, 9, 36, 120
10, 9420, Note_on_c, 9, 40, 120
10, 9450, Note_on_c, 9, 36, 0
10, 9480, Note_on_c, 9, 36, 0
10, 9480, Note_on_c, 9, 40, 120
10, 9510, Note_on_c, 9, 40, 120
10, 9540, Note_on_c, 9, 40, 0
10, 9540, Note_on_c, 9, 40, 120
10, 9570, Note_on_c, 9, 36, 120
10, 9600, Note_on_c, 9, 40, 0
10, 9600, Note_on_c, 9, 36, 120
10, 9630, Note_on_c, 9, 40, 0
10, 9660, Note_on_c, 9, 40, 0
10, 9690, Note_on_c, 9, 36, 0
10, 9720, Note_on_c, 9, 36, 0
10, 9720, Note_on_c, 9, 37, 120
10, 9810, Note_on_c, 9, 36, 120
10, 9840, Note_on_c, 9, 37, 0
10, 9840, Note_on_c, 9, 42, 100
10, 9840, Note_on_c, 9, 36, 120
10, 9900, Note_on_c, 9, 42, 100
10, 9900, Note_on_c, 9, 36, 120
10, 9930, Note_on_c, 9, 36, 0
10, 9960, Note_on_c, 9, 36, 0
10, 9960, Note_on_c, 9, 42, 0
10, 9960, Note_on_c, 9, 37, 120
10, 10020, Note_on_c, 9, 42, 0
10, 10020, Note_on_c, 9, 36, 0
10, 10080, Note_on_c, 9, 37, 0
10, 10200, Note_on_c, 9, 37, 120
10, 10290, Note_on_c, 9, 36, 120
10, 10320, Note_on_c, 9, 37, 0
10, 10320, Note_on_c, 9, 42, 100
10, 10320, Note_on_c, 9, 36, 120
10, 10380, Note_on_c, 9, 42, 100
10, 10380, Note_on_c, 9, 36, 120
10, 10410, Note_on_c, 9, 36, 0
10, 10440, Note_on_c, 9, 36, 0
10, 10440, Note_on_c, 9, 42, 0
10, 10440, Note_on_c, 9, 36, 120
10, 10440, Note_on_c, 9, 37, 120
10, 10470, Note_on_c, 9, 36, 120
10, 10500, Note_on_c, 9, 36, 0
10, 10500, Note_on_c, 9, 42, 0
10, 10560, Note_on_c, 9, 37, 0
10, 10560, Note_on_c, 9, 36, 0
10, 10560, Note_on_c, 9, 36, 120
10, 10590, Note_on_c, 9, 36, 0
10, 10680, Note_on_c, 9, 36, 0
10, 10680, Note_on_c, 9, 37, 120
10, 10800, Note_on_c, 9, 37, 0
10, 10860, Note_on_c, 9, 40, 120
10, 10920, Note_on_c, 9, 40, 120
10, 10980, Note_on_c, 9, 40, 0
10, 11040, Note_on_c, 9, 40, 0
10, 11160, Note_on_c, 9, 36, 120
10, 11280, Note_on_c, 9, 36, 0
10, 11280, Note_on_c, 9, 36, 120
10, 11340, Note_on_c, 9, 36, 120
10, 11400, Note_on_c, 9, 36, 0
10, 11400, Note_on_c, 9, 40, 120
10, 11430, Note_on_c, 9, 40, 120
10, 11460, Note_on_c, 9, 36, 0
10, 11520, Note_on_c, 9, 40, 0
10, 11520, Note_on_c, 9, 36, 120
10, 11550, Note_on_c, 9, 40, 0
10, 11640, Note_on_c, 9, 36, 0
10, 11640, Note_on_c, 9, 40, 120
10, 11730, Note_on_c, 9, 36, 120
10, 11760, Note_on_c, 9, 40, 0
10, 11760, Note_on_c, 9, 42, 100
10, 11760, Note_on_c, 9, 36, 120
10, 11820, Note_on_c, 9, 42, 100
10, 11820, Note_on_c, 9, 36, 120
10, 11850, Note_on_c, 9, 36, 0
10, 11880, Note_on_c, 9, 36, 0
10, 11880, Note_on_c, 9, 42, 0
10, 11880, Note_on_c, 9, 40, 120
10, 11940, Note_on_c, 9, 42, 0
10, 11940, Note_on_c, 9, 36, 0
10, 12000, Note_on_c, 9, 40, 0
10, 12120, Note_on_c, 9, 40, 120
10, 12210, Note_on_c, 9, 36, 120
10, 12240, Note_on_c, 9, 40, 0
10, 12240, Note_on_c, 9, 42, 100
10, 12240, Note_on_c, 9, 36, 120
10, 12300, Note_on_c, 9, 42, 100
10, 12300, Note_on_c, 9, 36, 120
10, 12330, Note_on_c, 9, 36, 0
10, 12360, Note_on_c, 9, 36, 0
10, 12360, Note_on_c, 9, 42, 0
10, 12360, Note_on_c, 9, 36, 120
10, 12360, Note_on_c, 9, 40, 120
10, 12390, Note_on_c, 9, 36, 120
10, 12420, Note_on_c, 9, 36, 0
10, 12420, Note_on_c, 9, 42, 0
10, 12480, Note_on_c, 9, 40, 0
10, 12480, Note_on_c, 9, 36, 0
10, 12480, Note_on_c, 9, 36, 120
10, 12510, Note_on_c, 9, 36, 0
10, 12600, Note_on_c, 9, 36, 0
10, 12600, Note_on_c, 9, 40, 120
10, 12690, Note_on_c, 9, 36, 120
10, 12720, Note_on_c, 9, 40, 0
10, 12720, Note_on_c, 9, 42, 100
10, 12720, Note_on_c, 9, 36, 120
10, 12780, Note_on_c, 9, 42, 100
10, 12780, Note_on_c, 9, 36, 120
10, 12810, Note_on_c, 9, 36, 0
10, 12840, Note_on_c, 9, 36, 0
10, 12840, Note_on_c, 9, 42, 0
10, 12840, Note_on_c, 9, 40, 120
10, 12900, Note_on_c, 9, 42, 0
10, 12900, Note_on_c, 9, 36, 0
10, 12960, Note_on_c, 9, 40, 0
10, 13080, Note_on_c, 9, 40, 120
10, 13170, Note_on_c, 9, 36, 120
10, 13200, Note_on_c, 9, 40, 0
10, 13200, Note_on_c, 9, 42, 100
10, 13200, Note_on_c, 9, 36, 120
10, 13260, Note_on_c, 9, 42, 100
10, 13260, Note_on_c, 9, 36, 120
10, 13290, Note_on_c, 9, 36, 0
10, 13320, Note_on_c, 9, 36, 0
10, 13320, Note_on_c, 9, 42, 0
10, 13320, Note_on_c, 9, 36, 120
10, 13320, Note_on_c, 9, 40, 120
10, 13350, Note_on_c, 9, 36, 120
10, 13380, Note_on_c, 9, 36, 0
10, 13380, Note_on_c, 9, 42, 0
10, 13440, Note_on_c, 9, 40, 0
10, 13440, Note_on_c, 9, 36, 0
10, 13440, Note_on_c, 9, 36, 120
10, 13470, Note_on_c, 9, 36, 0
10, 13560, Note_on_c, 9, 36, 0
10, 13560, Note_on_c, 9, 40, 120
10, 13650, Note_on_c, 9, 36, 120
10, 13680, Note_on_c, 9, 40, 0
10, 13680, Note_on_c, 9, 42, 100
10, 13680, Note_on_c, 9, 36, 120
10, 13740, Note_on_c, 9, 42, 100
10, 13740, Note_on_c, 9, 36, 120
10, 13770, Note_on_c, 9, 36, 0
10, 13800, Note_on_c, 9, 36, 0
10, 13800, Note_on_c, 9, 42, 0
10, 13800, Note_on_c, 9, 40, 120
10, 13860, Note_on_c, 9, 42, 0
10, 13860, Note_on_c, 9, 36, 0
10, 13920, Note_on_c, 9, 40, 0
10, 14040, Note_on_c, 9, 40, 120
10, 14130, Note_on_c, 9, 36, 120
10, 14160, Note_on_c, 9, 40, 0
10, 14160, Note_on_c, 9, 42, 100
10, 14160, Note_on_c, 9, 36, 120
10, 14220, Note_on_c, 9, 42, 100
10, 14220, Note_on_c, 9, 36, 120
10, 14250, Note_on_c, 9, 36, 0
10, 14280, Note_on_c, 9, 36, 0
10, 14280, Note_on_c, 9, 42, 0
10, 14280, Note_on_c, 9, 36, 120
10, 14280, Note_on_c, 9, 40, 120
10, 14310, Note_on_c, 9, 36, 120
10, 14340, Note_on_c, 9, 36, 0
10, 14340, Note_on_c, 9, 42, 0
10, 14400, Note_on_c, 9, 40, 0
10, 14400, Note_on_c, 9, 36, 0
10, 14400, Note_on_c, 9, 36, 120
10, 14430, Note_on_c, 9, 36, 0
10, 14520, Note_on_c, 9, 36, 0
10, 14520, Note_on_c, 9, 40, 120
10, 14610, Note_on_c, 9, 36, 120
10, 14640, Note_on_c, 9, 40, 0
10, 14640, Note_on_c, 9, 42, 100
10, 14640, Note_on_c, 9, 36, 120
10, 14700, Note_on_c, 9, 42, 100
10, 14700, Note_on_c, 9, 36, 120
10, 14730, Note_on_c, 9, 36, 0
10, 14760, Note_on_c, 9, 36, 0
10, 14760, Note_on_c, 9, 42, 0
10, 14760, Note_on_c, 9, 40, 120
10, 14820, Note_on_c, 9, 42, 0
10, 14820, Note_on_c, 9, 36, 0
10, 14880, Note_on_c, 9, 40, 0
10, 15000, Note_on_c, 9, 36, 120
10, 15120, Note_on_c, 9, 36, 0
10, 15120, Note_on_c, 9, 42, 100
10, 15120, Note_on_c, 9, 36, 120
10, 15180, Note_on_c, 9, 42, 100
10, 15180, Note_on_c, 9, 40, 120
10, 15210, Note_on_c, 9, 40, 120
10, 15225, Note_on_c, 9, 40, 120
10, 15240, Note_on_c, 9, 42, 0
10, 15240, Note_on_c, 9, 36, 0
10, 15240, Note_on_c, 9, 40, 120
10, 15300, Note_on_c, 9, 40, 0
10, 15300, Note_on_c, 9, 42, 0
10, 15330, Note_on_c, 9, 40, 0
10, 15345, Note_on_c, 9, 40, 0
10, 15360, Note_on_c, 9, 40, 0
10, 15360, Note_on_c, 9, 36, 120
10, 15480, Note_on_c, 9, 36, 0
10, 15480, Note_on_c, 9, 37, 120
10, 15570, Note_on_c, 9, 36, 120
10, 15600, Note_on_c, 9, 37, 0
10, 15600, Note_on_c, 9, 36, 120
10, 15660, Note_on_c, 9, 36, 120
10, 15690, Note_on_c, 9, 36, 0
10, 15720, Note_on_c, 9, 36, 0
10, 15720, Note_on_c, 9, 37, 120
10, 15750, Note_on_c, 9, 36, 120
10, 15780, Note_on_c, 9, 36, 0
10, 15780, Note_on_c, 9, 36, 120
10, 15810, Note_on_c, 9, 36, 120
10, 15840, Note_on_c, 9, 37, 0
10, 15840, Note_on_c, 9, 36, 120
10, 15870, Note_on_c, 9, 36, 0
10, 15900, Note_on_c, 9, 36, 0
10, 15930, Note_on_c, 9, 36, 0
10, 15960, Note_on_c, 9, 36, 0
10, 15960, Note_on_c, 9, 37, 120
10, 16050, Note_on_c, 9, 36, 120
10, 16080, Note_on_c, 9, 37, 0
10, 16080, Note_on_c, 9, 36, 120
10, 16140, Note_on_c, 9, 36, 120
10, 16170, Note_on_c, 9, 36, 0
10, 16200, Note_on_c, 9, 36, 0
10, 16200, Note_on_c, 9, 37, 120
10, 16230, Note_on_c, 9, 36, 120
10, 16260, Note_on_c, 9, 36, 0
10, 16260, Note_on_c, 9, 36, 120
10, 16290, Note_on_c, 9, 36, 120
10, 16320, Note_on_c, 9, 37, 0
10, 16320, Note_on_c, 9, 36, 120
10, 16350, Note_on_c, 9, 36, 0
10, 16380, Note_on_c, 9, 36, 0
10, 16410, Note_on_c, 9, 36, 0
10, 16440, Note_on_c, 9, 36, 0
10, 16440, Note_on_c, 9, 37, 120
10, 16530, Note_on_c, 9, 36, 120
10, 16560, Note_on_c, 9, 37, 0
10, 16560, Note_on_c, 9, 36, 120
10, 16620, Note_on_c, 9, 36, 120
10, 16650, Note_on_c, 9, 36, 0
10, 16680, Note_on_c, 9, 36, 0
10, 16680, Note_on_c, 9, 37, 120
10, 16710, Note_on_c, 9, 36, 120
10, 16740, Note_on_c, 9, 36, 0
10, 16740, Note_on_c, 9, 36, 120
10, 16770, Note_on_c, 9, 36, 120
10, 16800, Note_on_c, 9, 37, 0
10, 16800, Note_on_c, 9, 36, 120
10, 16830, Note_on_c, 9, 36, 0
10, 16860, Note_on_c, 9, 36, 0
10, 16890, Note_on_c, 9, 36, 0
10, 16920, Note_on_c, 9, 36, 0
10, 16920, Note_on_c, 9, 37, 120
10, 17010, Note_on_c, 9, 36, 120
10, 17040, Note_on_c, 9, 37, 0
10, 17040, Note_on_c, 9, 36, 120
10, 17100, Note_on_c, 9, 36, 120
10, 17130, Note_on_c, 9, 36, 0
10, 17160, Note_on_c, 9, 36, 0
10, 17160, Note_on_c, 9, 37, 120
10, 17190, Note_on_c, 9, 36, 120
10, 17220, Note_on_c, 9, 36, 0
10, 17220, Note_on_c, 9, 36, 120
10, 17250, Note_on_c, 9, 36, 120
10, 17280, Note_on_c, 9, 37, 0
10, 17280, Note_on_c, 9, 36, 120
10, 17310, Note_on_c, 9, 36, 0
10, 17340, Note_on_c, 9, 36, 0
10, 17370, Note_on_c, 9, 36, 0
10, 17400, Note_on_c, 9, 36, 0
10, 17400, Note_on_c, 9, 37, 120
10, 17490, Note_on_c, 9, 36, 120
10, 17520, Note_on_c, 9, 37, 0
10, 17520, Note_on_c, 9, 36, 120
10, 17580, Note_on_c, 9, 36, 120
10, 17610, Note_on_c, 9, 36, 0
10, 17640, Note_on_c, 9, 36, 0
10, 17640, Note_on_c, 9, 37, 120
10, 17670, Note_on_c, 9, 36, 120
10, 17700, Note_on_c, 9, 36, 0
10, 17700, Note_on_c, 9, 36, 120
10, 17730, Note_on_c, 9, 36, 120
10, 17760, Note_on_c, 9, 37, 0
10, 17760, Note_on_c, 9, 36, 120
10, 17790, Note_on_c, 9, 36, 0
10, 17820, Note_on_c, 9, 36, 0
10, 17850, Note_on_c, 9, 36, 0
10, 17880, Note_on_c, 9, 36, 0
10, 17880, Note_on_c, 9, 37, 120
10, 17970, Note_on_c, 9, 36, 120
10, 18000, Note_on_c, 9, 37, 0
10, 18000, Note_on_c, 9, 36, 120
10, 18060, Note_on_c, 9, 36, 120
10, 18090, Note_on_c, 9, 36, 0
10, 18120, Note_on_c, 9, 36, 0
10, 18120, Note_on_c, 9, 37, 120
10, 18150, Note_on_c, 9, 36, 120
10, 18180, Note_on_c, 9, 36, 0
10, 18180, Note_on_c, 9, 36, 120
10, 18210, Note_on_c, 9, 36, 120
10, 18240, Note_on_c, 9, 37, 0
10, 18240, Note_on_c, 9, 36, 120
10, 18270, Note_on_c, 9, 36, 0
10, 18300, Note_on_c, 9, 36, 0
10, 18330, Note_on_c, 9, 36, 0
10, 18360, Note_on_c, 9, 36, 0
10, 18360, Note_on_c, 9, 37, 120
10, 18450, Note_on_c, 9, 36, 120
10, 18480, Note_on_c, 9, 37, 0
10, 18480, Note_on_c, 9, 36, 120
10, 18540, Note_on_c, 9, 36, 120
10, 18570, Note_on_c, 9, 36, 0
10, 18600, Note_on_c, 9, 36, 0
10, 18600, Note_on_c, 9, 37, 120
10, 18630, Note_on_c, 9, 36, 120
10, 18660, Note_on_c, 9, 36, 0
10, 18660, Note_on_c, 9, 36, 120
10, 18690, Note_on_c, 9, 36, 120
10, 18720, Note_on_c, 9, 37, 0
10, 18720, Note_on_c, 9, 36, 120
10, 18750, Note_on_c, 9, 36, 0
10, 18780, Note_on_c, 9, 36, 0
10, 18810, Note_on_c, 9, 36, 0
10, 18840, Note_on_c, 9, 36, 0
10, 18840, Note_on_c, 9, 37, 120
10, 18930, Note_on_c, 9, 36, 120
10, 18960, Note_on_c, 9, 37, 0
10, 18960, Note_on_c, 9, 36, 120
10, 19020, Note_on_c, 9, 40, 120
10, 19050, Note_on_c, 9, 36, 0
10, 19080, Note_on_c, 9, 36, 0
10, 19080, Note_on_c, 9, 40, 120
10, 19110, Note_on_c, 9, 40, 120
10, 19140, Note_on_c, 9, 40, 0
10, 19140, Note_on_c, 9, 40, 120
10, 19170, Note_on_c, 9, 36, 120
10, 19200, Note_on_c, 9, 40, 0
10, 19200, Note_on_c, 9, 36, 120
10, 19230, Note_on_c, 9, 40, 0
10, 19260, Note_on_c, 9, 40, 0
10, 19290, Note_on_c, 9, 36, 0
10, 19320, Note_on_c, 9, 36, 0
10, 19320, Note_on_c, 9, 37, 120
10, 19410, Note_on_c, 9, 36, 120
10, 19440, Note_on_c, 9, 37, 0
10, 19440, Note_on_c, 9, 42, 100
10, 19440, Note_on_c, 9, 36, 120
10, 19500, Note_on_c, 9, 42, 100
10, 19500, Note_on_c, 9, 36, 120
10, 19530, Note_on_c, 9, 36, 0
10, 19560, Note_on_c, 9, 36, 0
10, 19560, Note_on_c, 9, 42, 0
10, 19560, Note_on_c, 9, 37, 120
10, 19620, Note_on_c, 9, 42, 0
10, 19620, Note_on_c, 9, 36, 0
10, 19680, Note_on_c, 9, 37, 0
10, 19800, Note_on_c, 9, 37, 120
10, 19890, Note_on_c, 9, 36, 120
10, 19920, Note_on_c, 9, 37, 0
10, 19920, Note_on_c, 9, 42, 100
10, 19920, Note_on_c, 9, 36, 120
10, 19980, Note_on_c, 9, 42, 100
10, 19980, Note_on_c, 9, 36, 120
10, 20010, Note_on_c, 9, 36, 0
10, 20040, Note_on_c, 9, 36, 0
10, 20040, Note_on_c, 9, 42, 0
10, 20040, Note_on_c, 9, 36, 120
10, 20040, Note_on_c, 9, 37, 120
10, 20070, Note_on_c, 9, 36, 120
10, 20100, Note_on_c, 9, 36, 0
10, 20100, Note_on_c, 9, 42, 0
10, 20160, Note_on_c, 9, 37, 0
10, 20160, Note_on_c, 9, 36, 0
10, 20160, Note_on_c, 9, 36, 120
10, 20190, Note_on_c, 9, 36, 0
10, 20280, Note_on_c, 9, 36, 0
10, 20280, Note_on_c, 9, 37, 120
10, 20400, Note_on_c, 9, 37, 0
10, 20460, Note_on_c, 9, 40, 120
10, 20520, Note_on_c, 9, 40, 120
10, 20580, Note_on_c, 9, 40, 0
10, 20640, Note_on_c, 9, 40, 0
10, 20760, Note_on_c, 9, 36, 120
10, 20880, Note_on_c, 9, 36, 0
10, 20880, Note_on_c, 9, 36, 120
10, 20940, Note_on_c, 9, 36, 120
10, 21000, Note_on_c, 9, 36, 0
10, 21000, Note_on_c, 9, 40, 120
10, 21030, Note_on_c, 9, 40, 120
10, 21060, Note_on_c, 9, 36, 0
10, 21120, Note_on_c, 9, 40, 0
10, 21120, Note_on_c, 9, 36, 120
10, 21150, Note_on_c, 9, 40, 0
10, 21240, Note_on_c, 9, 36, 0
10, 21240, Note_on_c, 9, 40, 120
10, 21330, Note_on_c, 9, 36, 120
10, 21360, Note_on_c, 9, 40, 0
10, 21360, Note_on_c, 9, 42, 100
10, 21360, Note_on_c, 9, 36, 120
10, 21420, Note_on_c, 9, 42, 100
10, 21420, Note_on_c, 9, 36, 120
10, 21450, Note_on_c, 9, 36, 0
10, 21480, Note_on_c, 9, 36, 0
10, 21480, Note_on_c, 9, 42, 0
10, 21480, Note_on_c, 9, 40, 120
10, 21540, Note_on_c, 9, 42, 0
10, 21540, Note_on_c, 9, 36, 0
10, 21600, Note_on_c, 9, 40, 0
10, 21720, Note_on_c, 9, 40, 120
10, 21810, Note_on_c, 9, 36, 120
10, 21840, Note_on_c, 9, 40, 0
10, 21840, Note_on_c, 9, 42, 100
10, 21840, Note_on_c, 9, 36, 120
10, 21900, Note_on_c, 9, 42, 100
10, 21900, Note_on_c, 9, 36, 120
10, 21930, Note_on_c, 9, 36, 0
10, 21960, Note_on_c, 9, 36, 0
10, 21960, Note_on_c, 9, 42, 0
10, 21960, Note_on_c, 9, 36, 120
10, 21960, Note_on_c, 9, 40, 120
10, 21990, Note_on_c, 9, 36, 120
10, 22020, Note_on_c, 9, 36, 0
10, 22020, Note_on_c, 9, 42, 0
10, 22080, Note_on_c, 9, 40, 0
10, 22080, Note_on_c, 9, 36, 0
10, 22080, Note_on_c, 9, 36, 120
10, 22110, Note_on_c, 9, 36, 0
10, 22200, Note_on_c, 9, 36, 0
10, 22200, Note_on_c, 9, 40, 120
10, 22290, Note_on_c, 9, 36, 120
10, 22320, Note_on_c, 9, 40, 0
10, 22320, Note_on_c, 9, 42, 100
10, 22320, Note_on_c, 9, 36, 120
10, 22380, Note_on_c, 9, 42, 100
10, 22380, Note_on_c, 9, 36, 120
10, 22410, Note_on_c, 9, 36, 0
10, 22440, Note_on_c, 9, 36, 0
10, 22440, Note_on_c, 9, 42, 0
10, 22440, Note_on_c, 9, 40, 120
10, 22500, Note_on_c, 9, 42, 0
10, 22500, Note_on_c, 9, 36, 0
10, 22560, Note_on_c, 9, 40, 0
10, 22680, Note_on_c, 9, 40, 120
10, 22770, Note_on_c, 9, 36, 120
10, 22800, Note_on_c, 9, 40, 0
10, 22800, Note_on_c, 9, 42, 100
10, 22800, Note_on_c, 9, 36, 120
10, 22860, Note_on_c, 9, 42, 100
10, 22860, Note_on_c, 9, 36, 120
10, 22890, Note_on_c, 9, 36, 0
10, 22920, Note_on_c, 9, 36, 0
10, 22920, Note_on_c, 9, 42, 0
10, 22920, Note_on_c, 9, 36, 120
10, 22920, Note_on_c, 9, 40, 120
10, 22950, Note_on_c, 9, 36, 120
10, 22980, Note_on_c, 9, 36, 0
10, 22980, Note_on_c, 9, 42, 0
10, 23040, Note_on_c, 9, 40, 0
10, 23040, Note_on_c, 9, 36, 0
10, 23040, Note_on_c, 9, 36, 120
10, 23070, Note_on_c, 9, 36, 0
10, 23160, Note_on_c, 9, 36, 0
10, 23160, Note_on_c, 9, 40, 120
10, 23250, Note_on_c, 9, 36, 120
10, 23280, Note_on_c, 9, 40, 0
10, 23280, Note_on_c, 9, 42, 100
10, 23280, Note_on_c, 9, 36, 120
10, 23340, Note_on_c, 9, 42, 100
10, 23340, Note_on_c, 9, 36, 120
10, 23370, Note_on_c, 9, 36, 0
10, 23400, Note_on_c, 9, 36, 0
10, 23400, Note_on_c, 9, 42, 0
10, 23400, Note_on_c, 9, 40, 120
10, 23460, Note_on_c, 9, 42, 0
10, 23460, Note_on_c, 9, 36, 0
10, 23520, Note_on_c, 9, 40, 0
10, 23640, Note_on_c, 9, 40, 120
10, 23730, Note_on_c, 9, 36, 120
10, 23760, Note_on_c, 9, 40, 0
10, 23760, Note_on_c, 9, 42, 100
10, 23760, Note_on_c, 9, 36, 120
10, 23820, Note_on_c, 9, 42, 100
10, 23820, Note_on_c, 9, 36, 120
10, 23850, Note_on_c, 9, 36, 0
10, 23880, Note_on_c, 9, 36, 0
10, 23880, Note_on_c, 9, 42, 0
10, 23880, Note_on_c, 9, 36, 120
10, 23880, Note_on_c, 9, 40, 120
10, 23910, Note_on_c, 9, 36, 120
10, 23940, Note_on_c, 9, 36, 0
10, 23940, Note_on_c, 9, 42, 0
10, 24000, Note_on_c, 9, 40, 0
10, 24000, Note_on_c, 9, 36, 0
10, 24000, Note_on_c, 9, 36, 120
10, 24030, Note_on_c, 9, 36, 0
10, 24120, Note_on_c, 9, 36, 0
10, 24120, Note_on_c, 9, 40, 120
10, 24210, Note_on_c, 9, 36, 120
10, 24240, Note_on_c, 9, 40, 0
10, 24240, Note_on_c, 9, 42, 100
10, 24240, Note_on_c, 9, 36, 120
10, 24300, Note_on_c, 9, 42, 100
10, 24300, Note_on_c, 9, 36, 120
10, 24330, Note_on_c, 9, 36, 0
10, 24360, Note_on_c, 9, 36, 0
10, 24360, Note_on_c, 9, 42, 0
10, 24360, Note_on_c, 9, 40, 120
10, 24420, Note_on_c, 9, 42, 0
10, 24420, Note_on_c, 9, 36, 0
10, 24480, Note_on_c, 9, 40, 0
10, 24600, Note_on_c, 9, 36, 120
10, 24720, Note_on_c, 9, 36, 0
10, 24720, Note_on_c, 9, 42, 100
10, 24720, Note_on_c, 9, 36, 120
10, 24780, Note_on_c, 9, 42, 100
10, 24780, Note_on_c, 9, 40, 120
10, 24810, Note_on_c, 9, 40, 120
10, 24825, Note_on_c, 9, 40, 120
10, 24840, Note_on_c, 9, 42, 0
10, 24840, Note_on_c, 9, 36, 0
10, 24840, Note_on_c, 9, 40, 120
10, 24900, Note_on_c, 9, 40, 0
10, 24900, Note_on_c, 9, 42, 0
10, 24930, Note_on_c, 9, 40, 0
10, 24945, Note_on_c, 9, 40, 0
10, 24960, Note_on_c, 9, 40, 0
10, 24960, Note_on_c, 9, 53, 100
10, 24960, Note_on_c, 9, 36, 120
10, 25020, Note_on_c, 9, 53, 100
10, 25050, Note_on_c, 9, 53, 100
10, 25080, Note_on_c, 9, 53, 0
10, 25080, Note_on_c, 9, 36, 0
10, 25080, Note_on_c, 9, 53, 100
10, 25080, Note_on_c, 9, 40, 120
10, 25140, Note_on_c, 9, 53, 0
10, 25140, Note_on_c, 9, 53, 100
10, 25170, Note_on_c, 9, 53, 0
10, 25170, Note_on_c, 9, 53, 100
10, 25200, Note_on_c, 9, 53, 0
10, 25200, Note_on_c, 9, 40, 0
10, 25200, Note_on_c, 9, 36, 120
10, 25200, Note_on_c, 9, 53, 100
10, 25260, Note_on_c, 9, 53, 0
10, 25260, Note_on_c, 9, 36, 120
10, 25260, Note_on_c, 9, 53, 100
10, 25290, Note_on_c, 9, 53, 0
10, 25290, Note_on_c, 9, 53, 100
10, 25320, Note_on_c, 9, 53, 0
10, 25320, Note_on_c, 9, 36, 0
10, 25320, Note_on_c, 9, 40, 120
10, 25320, Note_on_c, 9, 53, 100
10, 25380, Note_on_c, 9, 53, 0
10, 25380, Note_on_c, 9, 36, 0
10, 25380, Note_on_c, 9, 53, 100
10, 25410, Note_on_c, 9, 53, 0
10, 25410, Note_on_c, 9, 36, 120
10, 25410, Note_on_c, 9, 53, 100
10, 25440, Note_on_c, 9, 53, 0
10, 25440, Note_on_c, 9, 40, 0
10, 25440, Note_on_c, 9, 53, 100
10, 25440, Note_on_c, 9, 36, 120
10, 25500, Note_on_c, 9, 53, 0
10, 25500, Note_on_c, 9, 53, 100
10, 25530, Note_on_c, 9, 53, 0
10, 25530, Note_on_c, 9, 36, 0
10, 25530, Note_on_c, 9, 53, 100
10, 25560, Note_on_c, 9, 53, 0
10, 25560, Note_on_c, 9, 36, 0
10, 25560, Note_on_c, 9, 53, 100
10, 25560, Note_on_c, 9, 40, 120
10, 25620, Note_on_c, 9, 53, 0
10, 25620, Note_on_c, 9, 53, 100
10, 25650, Note_on_c, 9, 53, 0
10, 25650, Note_on_c, 9, 53, 100
10, 25680, Note_on_c, 9, 53, 0
10, 25680, Note_on_c, 9, 40, 0
10, 25680, Note_on_c, 9, 36, 120
10, 25680, Note_on_c, 9, 53, 100
10, 25740, Note_on_c, 9, 53, 0
10, 25740, Note_on_c, 9, 36, 120
10, 25740, Note_on_c, 9, 53, 100
10, 25770, Note_on_c, 9, 53, 0
10, 25770, Note_on_c, 9, 53, 100
10, 25800, Note_on_c, 9, 53, 0
10, 25800, Note_on_c, 9, 36, 0
10, 25800, Note_on_c, 9, 40, 120
10, 25800, Note_on_c, 9, 53, 100
10, 25860, Note_on_c, 9, 53, 0
10, 25860, Note_on_c, 9, 36, 0
10, 25860, Note_on_c, 9, 53, 100
10, 25890, Note_on_c, 9, 53, 0
10, 25890, Note_on_c, 9, 36, 120
10, 25890, Note_on_c, 9, 53, 100
10, 25920, Note_on_c, 9, 53, 0
10, 25920, Note_on_c, 9, 40, 0
10, 25920, Note_on_c, 9, 53, 100
10, 25920, Note_on_c, 9, 36, 120
10, 25980, Note_on_c, 9, 53, 0
10, 25980, Note_on_c, 9, 53, 100
10, 26010, Note_on_c, 9, 53, 0
10, 26010, Note_on_c, 9, 36, 0
10, 26010, Note_on_c, 9, 53, 100
10, 26040, Note_on_c, 9, 53, 0
10, 26040, Note_on_c, 9, 36, 0
10, 26040, Note_on_c, 9, 53, 100
10, 26040, Note_on_c, 9, 40, 120
10, 26100, Note_on_c, 9, 53, 0
10, 26100, Note_on_c, 9, 53, 100
10, 26130, Note_on_c, 9, 53, 0
10, 26130, Note_on_c, 9, 53, 100
10, 26160, Note_on_c, 9, 53, 0
10, 26160, Note_on_c, 9, 40, 0
10, 26160, Note_on_c, 9, 36, 120
10, 26160, Note_on_c, 9, 53, 100
10, 26220, Note_on_c, 9, 53, 0
10, 26220, Note_on_c, 9, 36, 120
10, 26220, Note_on_c, 9, 53, 100
10, 26250, Note_on_c, 9, 53, 0
10, 26250, Note_on_c, 9, 53, 100
10, 26280, Note_on_c, 9, 53, 0
10, 26280, Note_on_c, 9, 36, 0
10, 26280, Note_on_c, 9, 40, 120
10, 26280, Note_on_c, 9, 53, 100
10, 26340, Note_on_c, 9, 53, 0
10, 26340, Note_on_c, 9, 36, 0
10, 26340, Note_on_c, 9, 53, 100
10, 26370, Note_on_c, 9, 53, 0
10, 26370, Note_on_c, 9, 36, 120
10, 26370, Note_on_c, 9, 53, 100
10, 26400, Note_on_c, 9, 53, 0
10, 26400, Note_on_c, 9, 40, 0
10, 26400, Note_on_c, 9, 53, 100
10, 26400, Note_on_c, 9, 36, 120
10, 26460, Note_on_c, 9, 53, 0
10, 26460, Note_on_c, 9, 53, 100
10, 26490, Note_on_c, 9, 53, 0
10, 26490, Note_on_c, 9, 36, 0
10, 26490, Note_on_c, 9, 53, 100
10, 26520, Note_on_c, 9, 53, 0
10, 26520, Note_on_c, 9, 36, 0
10, 26520, Note_on_c, 9, 53, 100
10, 26520, Note_on_c, 9, 40, 120
10, 26580, Note_on_c, 9, 53, 0
10, 26580, Note_on_c, 9, 53, 100
10, 26610, Note_on_c, 9, 53, 0
10, 26610, Note_on_c, 9, 53, 100
10, 26640, Note_on_c, 9, 53, 0
10, 26640, Note_on_c, 9, 40, 0
10, 26640, Note_on_c, 9, 36, 120
10, 26640, Note_on_c, 9, 53, 100
10, 26700, Note_on_c, 9, 53, 0
10, 26700, Note_on_c, 9, 36, 120
10, 26700, Note_on_c, 9, 53, 100
10, 26730, Note_on_c, 9, 53, 0
10, 26730, Note_on_c, 9, 53, 100
10, 26760, Note_on_c, 9, 53, 0
10, 26760, Note_on_c, 9, 36, 0
10, 26760, Note_on_c, 9, 40, 120
10, 26760, Note_on_c, 9, 53, 100
10, 26820, Note_on_c, 9, 53, 0
10, 26820, Note_on_c, 9, 36, 0
10, 26820, Note_on_c, 9, 53, 100
10, 26850, Note_on_c, 9, 53, 0
10, 26850, Note_on_c, 9, 36, 120
10, 26850, Note_on_c, 9, 53, 100
10, 26880, Note_on_c, 9, 53, 0
10, 26880, Note_on_c, 9, 40, 0
10, 26880, Note_on_c, 9, 53, 100
10, 26880, Note_on_c, 9, 36, 120
10, 26940, Note_on_c, 9, 53, 0
10, 26940, Note_on_c, 9, 53, 100
10, 26970, Note_on_c, 9, 53, 0
10, 26970, Note_on_c, 9, 36, 0
10, 26970, Note_on_c, 9, 53, 100
10, 27000, Note_on_c, 9, 53, 0
10, 27000, Note_on_c, 9, 36, 0
10, 27000, Note_on_c, 9, 53, 100
10, 27000, Note_on_c, 9, 40, 120
10, 27060, Note_on_c, 9, 53, 0
10, 27060, Note_on_c, 9, 53, 100
10, 27090, Note_on_c, 9, 53, 0
10, 27090, Note_on_c, 9, 53, 100
10, 27120, Note_on_c, 9, 53, 0
10, 27120, Note_on_c, 9, 40, 0
10, 27120, Note_on_c, 9, 36, 120
10, 27120, Note_on_c, 9, 53, 100
10, 27180, Note_on_c, 9, 53, 0
10, 27180, Note_on_c, 9, 36, 120
10, 27180, Note_on_c, 9, 53, 100
10, 27210, Note_on_c, 9, 53, 0
10, 27210, Note_on_c, 9, 53, 100
10, 27240, Note_on_c, 9, 53, 0
10, 27240, Note_on_c, 9, 36, 0
10, 27240, Note_on_c, 9, 40, 120
10, 27240, Note_on_c, 9, 53, 100
10, 27300, Note_on_c, 9, 53, 0
10, 27300, Note_on_c, 9, 36, 0
10, 27300, Note_on_c, 9, 53, 100
10, 27330, Note_on_c, 9, 53, 0
10, 27330, Note_on_c, 9, 36, 120
10, 27330, Note_on_c, 9, 53, 100
10, 27360, Note_on_c, 9, 53, 0
10, 27360, Note_on_c, 9, 40, 0
10, 27360, Note_on_c, 9, 53, 100
10, 27360, Note_on_c, 9, 36, 120
10, 27420, Note_on_c, 9, 53, 0
10, 27420, Note_on_c, 9, 53, 100
10, 27450, Note_on_c, 9, 53, 0
10, 27450, Note_on_c, 9, 36, 0
10, 27450, Note_on_c, 9, 53, 100
10, 27480, Note_on_c, 9, 53, 0
10, 27480, Note_on_c, 9, 36, 0
10, 27480, Note_on_c, 9, 53, 100
10, 27480, Note_on_c, 9, 40, 120
10, 27540, Note_on_c, 9, 53, 0
10, 27540, Note_on_c, 9, 53, 100
10, 27570, Note_on_c, 9, 53, 0
10, 27570, Note_on_c, 9, 53, 100
10, 27600, Note_on_c, 9, 53, 0
10, 27600, Note_on_c, 9, 40, 0
10, 27600, Note_on_c, 9, 36, 120
10, 27600, Note_on_c, 9, 53, 100
10, 27660, Note_on_c, 9, 53, 0
10, 27660, Note_on_c, 9, 36, 120
10, 27660, Note_on_c, 9, 53, 100
10, 27690, Note_on_c, 9, 53, 0
10, 27690, Note_on_c, 9, 53, 100
10, 27720, Note_on_c, 9, 53, 0
10, 27720, Note_on_c, 9, 36, 0
10, 27720, Note_on_c, 9, 40, 120
10, 27720, Note_on_c, 9, 53, 100
10, 27780, Note_on_c, 9, 53, 0
10, 27780, Note_on_c, 9, 36, 0
10, 27780, Note_on_c, 9, 53, 100
10, 27810, Note_on_c, 9, 53, 0
10, 27810, Note_on_c, 9, 36, 120
10, 27810, Note_on_c, 9, 53, 100
10, 27840, Note_on_c, 9, 53, 0
10, 27840, Note_on_c, 9, 40, 0
10, 27840, Note_on_c, 9, 53, 100
10, 27840, Note_on_c, 9, 36, 120
10, 27900, Note_on_c, 9, 53, 0
10, 27900, Note_on_c, 9, 53, 100
10, 27930, Note_on_c, 9, 53, 0
10, 27930, Note_on_c, 9, 36, 0
10, 27930, Note_on_c, 9, 53, 100
10, 27960, Note_on_c, 9, 53, 0
10, 27960, Note_on_c, 9, 36, 0
10, 27960, Note_on_c, 9, 53, 100
10, 27960, Note_on_c, 9, 40, 120
10, 28020, Note_on_c, 9, 53, 0
10, 28020, Note_on_c, 9, 53, 100
10, 28050, Note_on_c, 9, 53, 0
10, 28050, Note_on_c, 9, 53, 100
10, 28080, Note_on_c, 9, 53, 0
10, 28080, Note_on_c, 9, 40, 0
10, 28080, Note_on_c, 9, 36, 120
10, 28080, Note_on_c, 9, 53, 100
10, 28140, Note_on_c, 9, 53, 0
10, 28140, Note_on_c, 9, 36, 120
10, 28140, Note_on_c, 9, 53, 100
10, 28170, Note_on_c, 9, 53, 0
10, 28170, Note_on_c, 9, 53, 100
10, 28200, Note_on_c, 9, 53, 0
10, 28200, Note_on_c, 9, 36, 0
10, 28200, Note_on_c, 9, 40, 120
10, 28200, Note_on_c, 9, 53, 100
10, 28260, Note_on_c, 9, 53, 0
10, 28260, Note_on_c, 9, 36, 0
10, 28260, Note_on_c, 9, 36, 100
10, 28260, Note_on_c, 9, 49, 100
10, 28290, Note_on_c, 9, 49, 0
10, 28290, Note_on_c, 9, 36, 0
10, 28320, Note_on_c, 9, 40, 0
10, 28380, Note_on_c, 9, 36, 120
10, 28380, Note_on_c, 9, 42, 100
10, 28410, Note_on_c, 9, 42, 0
10, 28440, Note_on_c, 9, 42, 100
10, 28440, Note_on_c, 9, 40, 120
10, 28470, Note_on_c, 9, 36, 0
10, 28500, Note_on_c, 9, 42, 0
10, 28500, Note_on_c, 9, 42, 100
10, 28530, Note_on_c, 9, 42, 0
10, 28560, Note_on_c, 9, 40, 0
10, 28560, Note_on_c, 9, 45, 120
10, 28560, Note_on_c, 9, 40, 120
10, 28620, Note_on_c, 9, 53, 0
10, 28650, Note_on_c, 9, 53, 0
10, 28650, Note_on_c, 9, 45, 0
10, 28650, Note_on_c, 9, 40, 0
10, 28650, Note_on_c, 9, 45, 120
10, 28650, Note_on_c, 9, 40, 120
10, 28705, Note_on_c, 9, 40, 0
10, 28705, Note_on_c, 9, 45, 0
10, 28710, Note_on_c, 9, 45, 120
10, 28710, Note_on_c, 9, 40, 120
10, 28735, Note_on_c, 9, 40, 0
10, 28735, Note_on_c, 9, 45, 0
10, 28740, Note_on_c, 9, 45, 120
10, 28740, Note_on_c, 9, 40, 120
10, 28795, Note_on_c, 9, 40, 0
10, 28795, Note_on_c, 9, 45, 0
10, 28800, Note_on_c, 9, 36, 120
10, 28920, Note_on_c, 9, 36, 0
10, 28920, Note_on_c, 9, 40, 120
10, 29010, Note_on_c, 9, 36, 120
10, 29040, Note_on_c, 9, 40, 0
10, 29040, Note_on_c, 9, 42, 100
10, 29040, Note_on_c, 9, 36, 120
10, 29100, Note_on_c, 9, 42, 100
10, 29100, Note_on_c, 9, 36, 120
10, 29130, Note_on_c, 9, 36, 0
10, 29160, Note_on_c, 9, 36, 0
10, 29160, Note_on_c, 9, 42, 0
10, 29160, Note_on_c, 9, 40, 120
10, 29220, Note_on_c, 9, 42, 0
10, 29220, Note_on_c, 9, 36, 0
10, 29280, Note_on_c, 9, 40, 0
10, 29400, Note_on_c, 9, 40, 120
10, 29490, Note_on_c, 9, 36, 120
10, 29520, Note_on_c, 9, 40, 0
10, 29520, Note_on_c, 9, 42, 100
10, 29520, Note_on_c, 9, 36, 120
10, 29580, Note_on_c, 9, 42, 100
10, 29580, Note_on_c, 9, 36, 120
10, 29610, Note_on_c, 9, 36, 0
10, 29640, Note_on_c, 9, 36, 0
10, 29640, Note_on_c, 9, 42, 0
10, 29640, Note_on_c, 9, 36, 120
10, 29640, Note_on_c, 9, 40, 120
10, 29670, Note_on_c, 9, 36, 120
10, 29700, Note_on_c, 9, 36, 0
10, 29700, Note_on_c, 9, 42, 0
10, 29760, Note_on_c, 9, 40, 0
10, 29760, Note_on_c, 9, 36, 0
10, 29760, Note_on_c, 9, 36, 120
10, 29790, Note_on_c, 9, 36, 0
10, 29880, Note_on_c, 9, 36, 0
10, 29880, Note_on_c, 9, 40, 120
10, 29970, Note_on_c, 9, 36, 120
10, 30000, Note_on_c, 9, 40, 0
10, 30000, Note_on_c, 9, 42, 100
10, 30000, Note_on_c, 9, 36, 120
10, 30060, Note_on_c, 9, 42, 100
10, 30060, Note_on_c, 9, 36, 120
10, 30090, Note_on_c, 9, 36, 0
10, 30120, Note_on_c, 9, 36, 0
10, 30120, Note_on_c, 9, 42, 0
10, 30120, Note_on_c, 9, 40, 120
10, 30180, Note_on_c, 9, 42, 0
10, 30180, Note_on_c, 9, 36, 0
10, 30240, Note_on_c, 9, 40, 0
10, 30360, Note_on_c, 9, 40, 120
10, 30450, Note_on_c, 9, 36, 120
10, 30480, Note_on_c, 9, 40, 0
10, 30480, Note_on_c, 9, 42, 100
10, 30480, Note_on_c, 9, 36, 120
10, 30540, Note_on_c, 9, 42, 100
10, 30540, Note_on_c, 9, 36, 120
10, 30570, Note_on_c, 9, 36, 0
10, 30600, Note_on_c, 9, 36, 0
10, 30600, Note_on_c, 9, 42, 0
10, 30600, Note_on_c, 9, 36, 120
10, 30600, Note_on_c, 9, 40, 120
10, 30630, Note_on_c, 9, 36, 120
10, 30660, Note_on_c, 9, 36, 0
10, 30660, Note_on_c, 9, 42, 0
10, 30720, Note_on_c, 9, 40, 0
10, 30720, Note_on_c, 9, 36, 0
10, 30720, Note_on_c, 9, 36, 120
10, 30750, Note_on_c, 9, 36, 0
10, 30840, Note_on_c, 9, 36, 0
10, 30840, Note_on_c, 9, 40, 120
10, 30930, Note_on_c, 9, 36, 120
10, 30960, Note_on_c, 9, 40, 0
10, 30960, Note_on_c, 9, 42, 100
10, 30960, Note_on_c, 9, 36, 120
10, 31020, Note_on_c, 9, 42, 100
10, 31020, Note_on_c, 9, 36, 120
10, 31050, Note_on_c, 9, 36, 0
10, 31080, Note_on_c, 9, 36, 0
10, 31080, Note_on_c, 9, 42, 0
10, 31080, Note_on_c, 9, 40, 120
10, 31140, Note_on_c, 9, 42, 0
10, 31140, Note_on_c, 9, 36, 0
10, 31200, Note_on_c, 9, 40, 0
10, 31320, Note_on_c, 9, 40, 120
10, 31410, Note_on_c, 9, 36, 120
10, 31440, Note_on_c, 9, 40, 0
10, 31440, Note_on_c, 9, 42, 100
10, 31440, Note_on_c, 9, 36, 120
10, 31500, Note_on_c, 9, 42, 100
10, 31500, Note_on_c, 9, 36, 120
10, 31530, Note_on_c, 9, 36, 0
10, 31560, Note_on_c, 9, 36, 0
10, 31560, Note_on_c, 9, 42, 0
10, 31560, Note_on_c, 9, 36, 120
10, 31560, Note_on_c, 9, 40, 120
10, 31590, Note_on_c, 9, 36, 120
10, 31620, Note_on_c, 9, 36, 0
10, 31620, Note_on_c, 9, 42, 0
10, 31680, Note_on_c, 9, 40, 0
10, 31680, Note_on_c, 9, 36, 0
10, 31680, Note_on_c, 9, 36, 120
10, 31710, Note_on_c, 9, 36, 0
10, 31800, Note_on_c, 9, 36, 0
10, 31800, Note_on_c, 9, 40, 120
10, 31890, Note_on_c, 9, 36, 120
10, 31920, Note_on_c, 9, 40, 0
10, 31920, Note_on_c, 9, 42, 100
10, 31920, Note_on_c, 9, 36, 120
10, 31980, Note_on_c, 9, 42, 100
10, 31980, Note_on_c, 9, 36, 120
10, 32010, Note_on_c, 9, 36, 0
10, 32040, Note_on_c, 9, 36, 0
10, 32040, Note_on_c, 9, 42, 0
10, 32040, Note_on_c, 9, 40, 120
10, 32100, Note_on_c, 9, 42, 0
10, 32100, Note_on_c, 9, 36, 0
10, 32160, Note_on_c, 9, 40, 0
10, 32280, Note_on_c, 9, 36, 120
10, 32400, Note_on_c, 9, 36, 0
10, 32400, Note_on_c, 9, 42, 100
10, 32400, Note_on_c, 9, 36, 120
10, 32460, Note_on_c, 9, 42, 100
10, 32460, Note_on_c, 9, 40, 120
10, 32490, Note_on_c, 9, 40, 120
10, 32505, Note_on_c, 9, 40, 120
10, 32520, Note_on_c, 9, 42, 0
10, 32520, Note_on_c, 9, 36, 0
10, 32520, Note_on_c, 9, 40, 120
10, 32580, Note_on_c, 9, 40, 0
10, 32580, Note_on_c, 9, 42, 0
10, 32610, Note_on_c, 9, 40, 0
10, 32625, Note_on_c, 9, 40, 0
10, 32640, Note_on_c, 9, 40, 0
10, 32640, Note_on_c, 9, 53, 100
10, 32640, Note_on_c, 9, 36, 120
10, 32700, Note_on_c, 9, 53, 100
10, 32730, Note_on_c, 9, 53, 100
10, 32760, Note_on_c, 9, 53, 0
10, 32760, Note_on_c, 9, 36, 0
10, 32760, Note_on_c, 9, 53, 100
10, 32760, Note_on_c, 9, 40, 120
10, 32820, Note_on_c, 9, 53, 0
10, 32820, Note_on_c, 9, 53, 100
10, 32850, Note_on_c, 9, 53, 0
10, 32850, Note_on_c, 9, 53, 100
10, 32880, Note_on_c, 9, 53, 0
10, 32880, Note_on_c, 9, 40, 0
10, 32880, Note_on_c, 9, 36, 120
10, 32880, Note_on_c, 9, 53, 100
10, 32940, Note_on_c, 9, 53, 0
10, 32940, Note_on_c, 9, 36, 120
10, 32940, Note_on_c, 9, 53, 100
10, 32970, Note_on_c, 9, 53, 0
10, 32970, Note_on_c, 9, 53, 100
10, 33000, Note_on_c, 9, 53, 0
10, 33000, Note_on_c, 9, 36, 0
10, 33000, Note_on_c, 9, 40, 120
10, 33000, Note_on_c, 9, 53, 100
10, 33060, Note_on_c, 9, 53, 0
10, 33060, Note_on_c, 9, 36, 0
10, 33060, Note_on_c, 9, 53, 100
10, 33090, Note_on_c, 9, 53, 0
10, 33090, Note_on_c, 9, 36, 120
10, 33090, Note_on_c, 9, 53, 100
10, 33120, Note_on_c, 9, 53, 0
10, 33120, Note_on_c, 9, 40, 0
10, 33120, Note_on_c, 9, 53, 100
10, 33120, Note_on_c, 9, 36, 120
10, 33180, Note_on_c, 9, 53, 0
10, 33180, Note_on_c, 9, 53, 100
10, 33210, Note_on_c, 9, 53, 0
10, 33210, Note_on_c, 9, 36, 0
10, 33210, Note_on_c, 9, 53, 100
10, 33240, Note_on_c, 9, 53, 0
10, 33240, Note_on_c, 9, 36, 0
10, 33240, Note_on_c, 9, 53, 100
10, 33240, Note_on_c, 9, 40, 120
10, 33300, Note_on_c, 9, 53, 0
10, 33300, Note_on_c, 9, 53, 100
10, 33330, Note_on_c, 9, 53, 0
10, 33330, Note_on_c, 9, 53, 100
10, 33360, Note_on_c, 9, 53, 0
10, 33360, Note_on_c, 9, 40, 0
10, 33360, Note_on_c, 9, 36, 120
10, 33360, Note_on_c, 9, 53, 100
10, 33420, Note_on_c, 9, 53, 0
10, 33420, Note_on_c, 9, 36, 120
10, 33420, Note_on_c, 9, 53, 100
10, 33450, Note_on_c, 9, 53, 0
10, 33450, Note_on_c, 9, 53, 100
10, 33480, Note_on_c, 9, 53, 0
10, 33480, Note_on_c, 9, 36, 0
10, 33480, Note_on_c, 9, 40, 120
10, 33480, Note_on_c, 9, 53, 100
10, 33540, Note_on_c, 9, 53, 0
10, 33540, Note_on_c, 9, 36, 0
10, 33540, Note_on_c, 9, 53, 100
10, 33570, Note_on_c, 9, 53, 0
10, 33570, Note_on_c, 9, 36, 120
10, 33570, Note_on_c, 9, 53, 100
10, 33600, Note_on_c, 9, 53, 0
10, 33600, Note_on_c, 9, 40, 0
10, 33600, Note_on_c, 9, 53, 100
10, 33600, Note_on_c, 9, 36, 120
10, 33660, Note_on_c, 9, 53, 0
10, 33660, Note_on_c, 9, 53, 100
10, 33690, Note_on_c, 9, 53, 0
10, 33690, Note_on_c, 9, 36, 0
10, 33690, Note_on_c, 9, 53, 100
10, 33720, Note_on_c, 9, 53, 0
10, 33720, Note_on_c, 9, 36, 0
10, 33720, Note_on_c, 9, 53, 100
10, 33720, Note_on_c, 9, 40, 120
10, 33780, Note_on_c, 9, 53, 0
10, 33780, Note_on_c, 9, 53, 100
10, 33810, Note_on_c, 9, 53, 0
10, 33810, Note_on_c, 9, 53, 100
10, 33840, Note_on_c, 9, 53, 0
10, 33840, Note_on_c, 9, 40, 0
10, 33840, Note_on_c, 9, 36, 120
10, 33840, Note_on_c, 9, 53, 100
10, 33900, Note_on_c, 9, 53, 0
10, 33900, Note_on_c, 9, 36, 120
10, 33900, Note_on_c, 9, 53, 100
10, 33930, Note_on_c, 9, 53, 0
10, 33930, Note_on_c, 9, 53, 100
10, 33960, Note_on_c, 9, 53, 0
10, 33960, Note_on_c, 9, 36, 0
10, 33960, Note_on_c, 9, 40, 120
10, 33960, Note_on_c, 9, 53, 100
10, 34020, Note_on_c, 9, 53, 0
10, 34020, Note_on_c, 9, 36, 0
10, 34020, Note_on_c, 9, 36, 100
10, 34020, Note_on_c, 9, 49, 100
10, 34050, Note_on_c, 9, 49, 0
10, 34050, Note_on_c, 9, 36, 0
10, 34080, Note_on_c, 9, 40, 0
10, 34140, Note_on_c, 9, 36, 120
10, 34140, Note_on_c, 9, 42, 100
10, 34170, Note_on_c, 9, 42, 0
10, 34200, Note_on_c, 9, 42, 100
10, 34200, Note_on_c, 9, 40, 120
10, 34230, Note_on_c, 9, 36, 0
10, 34260, Note_on_c, 9, 42, 0
10, 34260, Note_on_c, 9, 42, 100
10, 34290, Note_on_c, 9, 42, 0
10, 34320, Note_on_c, 9, 40, 0
10, 34320, Note_on_c, 9, 45, 120
10, 34320, Note_on_c, 9, 40, 120
10, 34380, Note_on_c, 9, 53, 0
10, 34410, Note_on_c, 9, 53, 0
10, 34410, Note_on_c, 9, 45, 0
10, 34410, Note_on_c, 9, 40, 0
10, 34410, Note_on_c, 9, 45, 120
10, 34410, Note_on_c, 9, 40, 120
10, 34465, Note_on_c, 9, 40, 0
10, 34465, Note_on_c, 9, 45, 0
10, 34470, Note_on_c, 9, 45, 120
10, 34470, Note_on_c, 9, 40, 120
10, 34495, Note_on_c, 9, 40, 0
10, 34495, Note_on_c, 9, 45, 0
10, 34500, Note_on_c, 9, 45, 120
10, 34500, Note_on_c, 9, 40, 120
10, 34555, Note_on_c, 9, 40, 0
10, 34555, Note_on_c, 9, 45, 0
10, 34560, Note_on_c, 9, 36, 120
10, 34680, Note_on_c, 9, 36, 0
10, 34680, Note_on_c, 9, 40, 115
10, 34770, Note_on_c, 9, 36, 111
10, 34800, Note_on_c, 9, 40, 0
10, 34800, Note_on_c, 9, 42, 92
10, 34800, Note_on_c, 9, 36, 110
10, 34860, Note_on_c, 9, 42, 90
10, 34860, Note_on_c, 9, 36, 108
10, 34890, Note_on_c, 9, 36, 0
10, 34920, Note_on_c, 9, 36, 0
10, 34920, Note_on_c, 9, 42, 0
10, 34920, Note_on_c, 9, 40, 105
10, 34980, Note_on_c, 9, 42, 0
10, 34980, Note_on_c, 9, 36, 0
10, 35040, Note_on_c, 9, 40, 0
10, 35160, Note_on_c, 9, 40, 96
10, 35250, Note_on_c, 9, 36, 92
10, 35280, Note_on_c, 9, 40, 0
10, 35280, Note_on_c, 9, 42, 75
10, 35280, Note_on_c, 9, 36, 90
10, 35340, Note_on_c, 9, 42, 73
10, 35340, Note_on_c, 9, 36, 87
10, 35370, Note_on_c, 9, 36, 0
10, 35400, Note_on_c, 9, 36, 0
10, 35400, Note_on_c, 9, 42, 0
10, 35400, Note_on_c, 9, 36, 85
10, 35400, Note_on_c, 9, 40, 85
10, 35430, Note_on_c, 9, 36, 84
10, 35460, Note_on_c, 9, 36, 0
10, 35460, Note_on_c, 9, 42, 0
10, 35520, Note_on_c, 9, 40, 0
10, 35520, Note_on_c, 9, 36, 0
10, 35520, Note_on_c, 9, 36, 80
10, 35550, Note_on_c, 9, 36, 0
10, 35640, Note_on_c, 9, 36, 0
10, 35640, Note_on_c, 9, 40, 75
10, 35730, Note_on_c, 9, 36, 72
10, 35760, Note_on_c, 9, 40, 0
10, 35760, Note_on_c, 9, 42, 59
10, 35760, Note_on_c, 9, 36, 70
10, 35820, Note_on_c, 9, 42, 57
10, 35820, Note_on_c, 9, 36, 68
10, 35850, Note_on_c, 9, 36, 0
10, 35880, Note_on_c, 9, 36, 0
10, 35880, Note_on_c, 9, 42, 0
10, 35880, Note_on_c, 9, 40, 66
10, 35940, Note_on_c, 9, 42, 0
10, 35940, Note_on_c, 9, 36, 0
10, 36000, Note_on_c, 9, 40, 0
10, 36120, Note_on_c, 9, 40, 55
10, 36210, Note_on_c, 9, 36, 51
10, 36240, Note_on_c, 9, 40, 0
10, 36240, Note_on_c, 9, 42, 42
10, 36240, Note_on_c, 9, 36, 50
10, 36300, Note_on_c, 9, 42, 40
10, 36300, Note_on_c, 9, 36, 48
10, 36330, Note_on_c, 9, 36, 0
10, 36360, Note_on_c, 9, 36, 0
10, 36360, Note_on_c, 9, 42, 0
10, 36360, Note_on_c, 9, 36, 45
10, 36360, Note_on_c, 9, 40, 45
10, 36390, Note_on_c, 9, 36, 44
10, 36420, Note_on_c, 9, 36, 0
10, 36420, Note_on_c, 9, 42, 0
10, 36480, Note_on_c, 9, 40, 0
10, 36480, Note_on_c, 9, 36, 0
10, 36480, Note_on_c, 9, 36, 40
10, 36510, Note_on_c, 9, 36, 0
10, 36600, Note_on_c, 9, 36, 0
10, 36600, Note_on_c, 9, 40, 36
10, 36690, Note_on_c, 9, 36, 32
10, 36720, Note_on_c, 9, 40, 0
10, 36720, Note_on_c, 9, 42, 25
10, 36720, Note_on_c, 9, 36, 30
10, 36780, Note_on_c, 9, 42, 23
10, 36780, Note_on_c, 9, 36, 27
10, 36810, Note_on_c, 9, 36, 0
10, 36840, Note_on_c, 9, 36, 0
10, 36840, Note_on_c, 9, 42, 0
10, 36840, Note_on_c, 9, 40, 25
10, 36900, Note_on_c, 9, 42, 0
10, 36900, Note_on_c, 9, 36, 0
10, 36960, Note_on_c, 9, 40, 0
10, 37080, Note_on_c, 9, 40, 15
10, 37170, Note_on_c, 9, 36, 12
10, 37200, Note_on_c, 9, 40, 0
10, 37200, Note_on_c, 9, 42, 9
10, 37200, Note_on_c, 9, 36, 10
10, 37260, Note_on_c, 9, 42, 7
10, 37260, Note_on_c, 9, 36, 8
10, 37290, Note_on_c, 9, 36, 0
10, 37320, Note_on_c, 9, 36, 0
10, 37320, Note_on_c, 9, 42, 0
10, 37320, Note_on_c, 9, 36, 6
10, 37320, Note_on_c, 9, 40, 6
10, 37350, Note_on_c, 9, 36, 4
10, 37380, Note_on_c, 9, 36, 0
10, 37380, Note_on_c, 9, 42, 0
10, 37440, Note_on_c, 9, 40, 0
10, 37440, Note_on_c, 9, 36, 0
10, 37560, Note_on_c, 9, 36, 0
10, 37560, End_track
11, 0, Start_track
11, 0, MIDI_port, 0
11, 0, Control_c, 9, 7, 125
11, 0, Control_c, 9, 10, 64
11, 960, Note_on_c, 9, 53, 100
11, 1080, Note_on_c, 9, 53, 0
11, 1080, Note_on_c, 9, 42, 100
11, 1140, Note_on_c, 9, 42, 100
11, 1200, Note_on_c, 9, 42, 0
11, 1260, Note_on_c, 9, 42, 0
11, 1320, Note_on_c, 9, 42, 100
11, 1380, Note_on_c, 9, 42, 100
11, 1440, Note_on_c, 9, 42, 0
11, 1440, Note_on_c, 9, 42, 100
11, 1500, Note_on_c, 9, 42, 0
11, 1500, Note_on_c, 9, 42, 100
11, 1560, Note_on_c, 9, 42, 0
11, 1560, Note_on_c, 9, 42, 100
11, 1620, Note_on_c, 9, 42, 0
11, 1620, Note_on_c, 9, 42, 100
11, 1680, Note_on_c, 9, 42, 0
11, 1680, Note_on_c, 9, 42, 100
11, 1740, Note_on_c, 9, 42, 0
11, 1740, Note_on_c, 9, 42, 100
11, 1800, Note_on_c, 9, 42, 0
11, 1800, Note_on_c, 9, 42, 100
11, 1860, Note_on_c, 9, 42, 0
11, 1860, Note_on_c, 9, 42, 100
11, 1920, Note_on_c, 9, 42, 0
11, 1920, Note_on_c, 9, 42, 100
11, 1980, Note_on_c, 9, 42, 0
11, 1980, Note_on_c, 9, 42, 100
11, 2040, Note_on_c, 9, 42, 0
11, 2040, Note_on_c, 9, 42, 100
11, 2100, Note_on_c, 9, 42, 0
11, 2100, Note_on_c, 9, 42, 100
11, 2160, Note_on_c, 9, 42, 0
11, 2160, Note_on_c, 9, 42, 100
11, 2220, Note_on_c, 9, 42, 0
11, 2220, Note_on_c, 9, 42, 100
11, 2280, Note_on_c, 9, 42, 0
11, 2280, Note_on_c, 9, 42, 100
11, 2340, Note_on_c, 9, 42, 0
11, 2340, Note_on_c, 9, 46, 100
11, 2400, Note_on_c, 9, 42, 0
11, 2460, Note_on_c, 9, 46, 0
11, 2460, Note_on_c, 9, 42, 100
11, 2520, Note_on_c, 9, 42, 100
11, 2580, Note_on_c, 9, 42, 0
11, 2580, Note_on_c, 9, 42, 100
11, 2640, Note_on_c, 9, 42, 0
11, 2640, Note_on_c, 9, 42, 100
11, 2700, Note_on_c, 9, 42, 0
11, 2700, Note_on_c, 9, 42, 100
11, 2760, Note_on_c, 9, 42, 0
11, 2760, Note_on_c, 9, 42, 100
11, 2820, Note_on_c, 9, 42, 0
11, 2820, Note_on_c, 9, 42, 100
11, 2880, Note_on_c, 9, 42, 0
11, 2880, Note_on_c, 9, 46, 100
11, 2940, Note_on_c, 9, 42, 0
11, 2940, Note_on_c, 9, 42, 100
11, 3000, Note_on_c, 9, 46, 0
11, 3000, Note_on_c, 9, 42, 100
11, 3060, Note_on_c, 9, 42, 0
11, 3060, Note_on_c, 9, 42, 100
11, 3120, Note_on_c, 9, 42, 0
11, 3180, Note_on_c, 9, 42, 0
11, 3240, Note_on_c, 9, 42, 100
11, 3300, Note_on_c, 9, 36, 120
11, 3300, Note_on_c, 9, 46, 100
11, 3360, Note_on_c, 9, 42, 0
11, 3360, Note_on_c, 9, 42, 100
11, 3420, Note_on_c, 9, 46, 0
11, 3420, Note_on_c, 9, 36, 0
11, 3420, Note_on_c, 9, 42, 100
11, 3480, Note_on_c, 9, 42, 0
11, 3480, Note_on_c, 9, 42, 100
11, 3540, Note_on_c, 9, 42, 0
11, 3540, Note_on_c, 9, 42, 100
11, 3600, Note_on_c, 9, 42, 0
11, 3660, Note_on_c, 9, 42, 0
11, 3720, Note_on_c, 9, 42, 100
11, 3780, Note_on_c, 9, 42, 100
11, 3810, Note_on_c, 9, 36, 120
11, 3840, Note_on_c, 9, 42, 0
11, 3840, Note_on_c, 9, 46, 100
11, 3900, Note_on_c, 9, 42, 0
11, 3900, Note_on_c, 9, 42, 100
11, 3930, Note_on_c, 9, 36, 0
11, 3960, Note_on_c, 9, 46, 0
11, 3960, Note_on_c, 9, 42, 100
11, 4020, Note_on_c, 9, 42, 0
11, 4020, Note_on_c, 9, 42, 100
11, 4080, Note_on_c, 9, 42, 0
11, 4140, Note_on_c, 9, 42, 0
11, 4200, Note_on_c, 9, 42, 100
11, 4260, Note_on_c, 9, 36, 120
11, 4260, Note_on_c, 9, 46, 100
11, 4320, Note_on_c, 9, 42, 0
11, 4320, Note_on_c, 9, 42, 100
11, 4380, Note_on_c, 9, 46, 0
11, 4380, Note_on_c, 9, 36, 0
11, 4380, Note_on_c, 9, 42, 100
11, 4440, Note_on_c, 9, 42, 0
11, 4440, Note_on_c, 9, 42, 100
11, 4500, Note_on_c, 9, 42, 0
11, 4500, Note_on_c, 9, 42, 100
11, 4560, Note_on_c, 9, 42, 0
11, 4620, Note_on_c, 9, 42, 0
11, 4680, Note_on_c, 9, 42, 100
11, 4740, Note_on_c, 9, 42, 100
11, 4770, Note_on_c, 9, 36, 120
11, 4800, Note_on_c, 9, 42, 0
11, 4800, Note_on_c, 9, 46, 100
11, 4860, Note_on_c, 9, 42, 0
11, 4860, Note_on_c, 9, 42, 100
11, 4890, Note_on_c, 9, 36, 0
11, 4920, Note_on_c, 9, 46, 0
11, 4920, Note_on_c, 9, 42, 100
11, 4980, Note_on_c, 9, 42, 0
11, 4980, Note_on_c, 9, 42, 100
11, 5040, Note_on_c, 9, 42, 0
11, 5100, Note_on_c, 9, 42, 0
11, 5160, Note_on_c, 9, 42, 100
11, 5220, Note_on_c, 9, 36, 120
11, 5220, Note_on_c, 9, 46, 100
11, 5280, Note_on_c, 9, 42, 0
11, 5280, Note_on_c, 9, 42, 100
11, 5340, Note_on_c, 9, 46, 0
11, 5340, Note_on_c, 9, 36, 0
11, 5340, Note_on_c, 9, 36, 120
11, 5340, Note_on_c, 9, 42, 100
11, 5400, Note_on_c, 9, 42, 0
11, 5400, Note_on_c, 9, 46, 100
11, 5460, Note_on_c, 9, 36, 0
11, 5460, Note_on_c, 9, 42, 0
11, 5460, Note_on_c, 9, 36, 120
11, 5460, Note_on_c, 9, 46, 100
11, 5520, Note_on_c, 9, 46, 0
11, 5520, Note_on_c, 9, 46, 100
11, 5580, Note_on_c, 9, 46, 0
11, 5580, Note_on_c, 9, 36, 0
11, 5580, Note_on_c, 9, 46, 100
11, 5640, Note_on_c, 9, 46, 0
11, 5640, Note_on_c, 9, 46, 100
11, 5700, Note_on_c, 9, 46, 0
11, 5700, Note_on_c, 9, 40, 120
11, 5760, Note_on_c, 9, 46, 0
11, 5760, Note_on_c, 9, 42, 100
11, 5820, Note_on_c, 9, 40, 0
11, 5820, Note_on_c, 9, 42, 100
11, 5880, Note_on_c, 9, 42, 0
11, 5880, Note_on_c, 9, 42, 100
11, 5940, Note_on_c, 9, 42, 0
11, 5940, Note_on_c, 9, 42, 100
11, 6000, Note_on_c, 9, 42, 0
11, 6000, Note_on_c, 9, 42, 100
11, 6060, Note_on_c, 9, 42, 0
11, 6060, Note_on_c, 9, 42, 100
11, 6120, Note_on_c, 9, 42, 0
11, 6120, Note_on_c, 9, 42, 100
11, 6180, Note_on_c, 9, 42, 0
11, 6180, Note_on_c, 9, 42, 100
11, 6240, Note_on_c, 9, 42, 0
11, 6240, Note_on_c, 9, 42, 100
11, 6300, Note_on_c, 9, 42, 0
11, 6300, Note_on_c, 9, 42, 100
11, 6360, Note_on_c, 9, 42, 0
11, 6360, Note_on_c, 9, 42, 100
11, 6420, Note_on_c, 9, 42, 0
11, 6420, Note_on_c, 9, 42, 100
11, 6480, Note_on_c, 9, 42, 0
11, 6480, Note_on_c, 9, 42, 100
11, 6540, Note_on_c, 9, 42, 0
11, 6540, Note_on_c, 9, 42, 100
11, 6600, Note_on_c, 9, 42, 0
11, 6600, Note_on_c, 9, 42, 100
11, 6660, Note_on_c, 9, 42, 0
11, 6660, Note_on_c, 9, 42, 100
11, 6720, Note_on_c, 9, 42, 0
11, 6720, Note_on_c, 9, 42, 100
11, 6780, Note_on_c, 9, 42, 0
11, 6780, Note_on_c, 9, 42, 100
11, 6840, Note_on_c, 9, 42, 0
11, 6840, Note_on_c, 9, 42, 100
11, 6900, Note_on_c, 9, 42, 0
11, 6900, Note_on_c, 9, 42, 100
11, 6960, Note_on_c, 9, 42, 0
11, 6960, Note_on_c, 9, 42, 100
11, 7020, Note_on_c, 9, 42, 0
11, 7020, Note_on_c, 9, 42, 100
11, 7080, Note_on_c, 9, 42, 0
11, 7080, Note_on_c, 9, 42, 100
11, 7140, Note_on_c, 9, 42, 0
11, 7140, Note_on_c, 9, 42, 100
11, 7200, Note_on_c, 9, 42, 0
11, 7200, Note_on_c, 9, 42, 100
11, 7260, Note_on_c, 9, 42, 0
11, 7260, Note_on_c, 9, 42, 100
11, 7320, Note_on_c, 9, 42, 0
11, 7320, Note_on_c, 9, 42, 100
11, 7380, Note_on_c, 9, 42, 0
11, 7380, Note_on_c, 9, 42, 100
11, 7440, Note_on_c, 9, 42, 0
11, 7440, Note_on_c, 9, 42, 100
11, 7500, Note_on_c, 9, 42, 0
11, 7500, Note_on_c, 9, 42, 100
11, 7560, Note_on_c, 9, 42, 0
11, 7560, Note_on_c, 9, 42, 100
11, 7620, Note_on_c, 9, 42, 0
11, 7620, Note_on_c, 9, 42, 100
11, 7680, Note_on_c, 9, 42, 0
11, 7680, Note_on_c, 9, 42, 100
11, 7740, Note_on_c, 9, 42, 0
11, 7740, Note_on_c, 9, 42, 100
11, 7800, Note_on_c, 9, 42, 0
11, 7800, Note_on_c, 9, 42, 100
11, 7860, Note_on_c, 9, 42, 0
11, 7860, Note_on_c, 9, 42, 100
11, 7920, Note_on_c, 9, 42, 0
11, 7920, Note_on_c, 9, 42, 100
11, 7980, Note_on_c, 9, 42, 0
11, 7980, Note_on_c, 9, 42, 100
11, 8040, Note_on_c, 9, 42, 0
11, 8040, Note_on_c, 9, 42, 100
11, 8100, Note_on_c, 9, 42, 0
11, 8100, Note_on_c, 9, 42, 100
11, 8160, Note_on_c, 9, 42, 0
11, 8160, Note_on_c, 9, 42, 100
11, 8220, Note_on_c, 9, 42, 0
11, 8220, Note_on_c, 9, 42, 100
11, 8280, Note_on_c, 9, 42, 0
11, 8280, Note_on_c, 9, 42, 100
11, 8340, Note_on_c, 9, 42, 0
11, 8340, Note_on_c, 9, 42, 100
11, 8400, Note_on_c, 9, 42, 0
11, 8400, Note_on_c, 9, 42, 100
11, 8460, Note_on_c, 9, 42, 0
11, 8460, Note_on_c, 9, 42, 100
11, 8520, Note_on_c, 9, 42, 0
11, 8520, Note_on_c, 9, 42, 100
11, 8580, Note_on_c, 9, 42, 0
11, 8580, Note_on_c, 9, 42, 100
11, 8640, Note_on_c, 9, 42, 0
11, 8640, Note_on_c, 9, 42, 100
11, 8700, Note_on_c, 9, 42, 0
11, 8700, Note_on_c, 9, 42, 100
11, 8760, Note_on_c, 9, 42, 0
11, 8760, Note_on_c, 9, 42, 100
11, 8820, Note_on_c, 9, 42, 0
11, 8820, Note_on_c, 9, 42, 100
11, 8880, Note_on_c, 9, 42, 0
11, 8880, Note_on_c, 9, 42, 100
11, 8940, Note_on_c, 9, 42, 0
11, 8940, Note_on_c, 9, 42, 100
11, 9000, Note_on_c, 9, 42, 0
11, 9000, Note_on_c, 9, 42, 100
11, 9060, Note_on_c, 9, 42, 0
11, 9060, Note_on_c, 9, 42, 100
11, 9120, Note_on_c, 9, 42, 0
11, 9120, Note_on_c, 9, 42, 100
11, 9180, Note_on_c, 9, 42, 0
11, 9180, Note_on_c, 9, 42, 100
11, 9240, Note_on_c, 9, 42, 0
11, 9240, Note_on_c, 9, 42, 100
11, 9300, Note_on_c, 9, 42, 0
11, 9300, Note_on_c, 9, 42, 100
11, 9360, Note_on_c, 9, 42, 0
11, 9360, Note_on_c, 9, 42, 100
11, 9420, Note_on_c, 9, 42, 0
11, 9420, Note_on_c, 9, 42, 100
11, 9480, Note_on_c, 9, 42, 0
11, 9480, Note_on_c, 9, 42, 100
11, 9540, Note_on_c, 9, 42, 0
11, 9540, Note_on_c, 9, 42, 100
11, 9600, Note_on_c, 9, 42, 0
11, 9600, Note_on_c, 9, 46, 100
11, 9660, Note_on_c, 9, 42, 0
11, 9660, Note_on_c, 9, 42, 100
11, 9720, Note_on_c, 9, 46, 0
11, 9720, Note_on_c, 9, 42, 100
11, 9780, Note_on_c, 9, 42, 0
11, 9780, Note_on_c, 9, 42, 100
11, 9840, Note_on_c, 9, 42, 0
11, 9900, Note_on_c, 9, 42, 0
11, 9960, Note_on_c, 9, 42, 100
11, 10020, Note_on_c, 9, 36, 120
11, 10020, Note_on_c, 9, 46, 100
11, 10080, Note_on_c, 9, 42, 0
11, 10080, Note_on_c, 9, 42, 100
11, 10140, Note_on_c, 9, 46, 0
11, 10140, Note_on_c, 9, 36, 0
11, 10140, Note_on_c, 9, 42, 100
11, 10200, Note_on_c, 9, 42, 0
11, 10200, Note_on_c, 9, 42, 100
11, 10260, Note_on_c, 9, 42, 0
11, 10260, Note_on_c, 9, 42, 100
11, 10320, Note_on_c, 9, 42, 0
11, 10380, Note_on_c, 9, 42, 0
11, 10440, Note_on_c, 9, 42, 100
11, 10500, Note_on_c, 9, 42, 100
11, 10530, Note_on_c, 9, 36, 120
11, 10560, Note_on_c, 9, 42, 0
11, 10560, Note_on_c, 9, 55, 100
11, 10620, Note_on_c, 9, 42, 0
11, 10620, Note_on_c, 9, 42, 100
11, 10650, Note_on_c, 9, 36, 0
11, 10680, Note_on_c, 9, 55, 0
11, 10680, Note_on_c, 9, 42, 100
11, 10740, Note_on_c, 9, 42, 0
11, 10740, Note_on_c, 9, 36, 120
11, 10740, Note_on_c, 9, 55, 100
11, 10800, Note_on_c, 9, 42, 0
11, 10860, Note_on_c, 9, 55, 0
11, 10860, Note_on_c, 9, 36, 0
11, 10980, Note_on_c, 9, 49, 100
11, 10980, Note_on_c, 9, 36, 120
11, 11100, Note_on_c, 9, 36, 0
11, 11100, Note_on_c, 9, 49, 0
11, 11100, Note_on_c, 9, 36, 120
11, 11100, Note_on_c, 9, 46, 100
11, 11160, Note_on_c, 9, 46, 100
11, 11220, Note_on_c, 9, 46, 0
11, 11220, Note_on_c, 9, 36, 0
11, 11220, Note_on_c, 9, 36, 120
11, 11220, Note_on_c, 9, 46, 100
11, 11280, Note_on_c, 9, 46, 0
11, 11280, Note_on_c, 9, 46, 100
11, 11340, Note_on_c, 9, 46, 0
11, 11340, Note_on_c, 9, 36, 0
11, 11340, Note_on_c, 9, 46, 100
11, 11400, Note_on_c, 9, 46, 0
11, 11460, Note_on_c, 9, 46, 0
11, 11460, Note_on_c, 9, 40, 120
11, 11520, Note_on_c, 9, 42, 100
11, 11580, Note_on_c, 9, 40, 0
11, 11580, Note_on_c, 9, 42, 100
11, 11640, Note_on_c, 9, 42, 0
11, 11640, Note_on_c, 9, 42, 100
11, 11700, Note_on_c, 9, 42, 0
11, 11700, Note_on_c, 9, 42, 100
11, 11760, Note_on_c, 9, 42, 0
11, 11820, Note_on_c, 9, 42, 0
11, 11880, Note_on_c, 9, 42, 100
11, 11940, Note_on_c, 9, 36, 120
11, 11940, Note_on_c, 9, 46, 100
11, 12000, Note_on_c, 9, 42, 0
11, 12000, Note_on_c, 9, 40, 120
11, 12000, Note_on_c, 9, 42, 100
11, 12060, Note_on_c, 9, 46, 0
11, 12060, Note_on_c, 9, 36, 0
11, 12060, Note_on_c, 9, 42, 100
11, 12120, Note_on_c, 9, 42, 0
11, 12120, Note_on_c, 9, 40, 0
11, 12120, Note_on_c, 9, 42, 100
11, 12180, Note_on_c, 9, 42, 0
11, 12180, Note_on_c, 9, 42, 100
11, 12240, Note_on_c, 9, 42, 0
11, 12300, Note_on_c, 9, 42, 0
11, 12360, Note_on_c, 9, 42, 100
11, 12420, Note_on_c, 9, 42, 100
11, 12450, Note_on_c, 9, 36, 120
11, 12480, Note_on_c, 9, 42, 0
11, 12480, Note_on_c, 9, 42, 100
11, 12540, Note_on_c, 9, 42, 0
11, 12540, Note_on_c, 9, 42, 100
11, 12570, Note_on_c, 9, 36, 0
11, 12600, Note_on_c, 9, 42, 0
11, 12600, Note_on_c, 9, 42, 100
11, 12660, Note_on_c, 9, 42, 0
11, 12660, Note_on_c, 9, 42, 100
11, 12720, Note_on_c, 9, 42, 0
11, 12780, Note_on_c, 9, 42, 0
11, 12840, Note_on_c, 9, 42, 100
11, 12900, Note_on_c, 9, 36, 120
11, 12900, Note_on_c, 9, 46, 100
11, 12960, Note_on_c, 9, 42, 0
11, 12960, Note_on_c, 9, 40, 120
11, 12960, Note_on_c, 9, 42, 100
11, 13020, Note_on_c, 9, 46, 0
11, 13020, Note_on_c, 9, 36, 0
11, 13020, Note_on_c, 9, 42, 100
11, 13080, Note_on_c, 9, 42, 0
11, 13080, Note_on_c, 9, 40, 0
11, 13080, Note_on_c, 9, 42, 100
11, 13140, Note_on_c, 9, 42, 0
11, 13140, Note_on_c, 9, 42, 100
11, 13200, Note_on_c, 9, 42, 0
11, 13260, Note_on_c, 9, 42, 0
11, 13320, Note_on_c, 9, 42, 100
11, 13380, Note_on_c, 9, 42, 100
11, 13410, Note_on_c, 9, 36, 120
11, 13440, Note_on_c, 9, 42, 0
11, 13440, Note_on_c, 9, 42, 100
11, 13500, Note_on_c, 9, 42, 0
11, 13500, Note_on_c, 9, 42, 100
11, 13530, Note_on_c, 9, 36, 0
11, 13560, Note_on_c, 9, 42, 0
11, 13560, Note_on_c, 9, 42, 100
11, 13620, Note_on_c, 9, 42, 0
11, 13620, Note_on_c, 9, 42, 100
11, 13680, Note_on_c, 9, 42, 0
11, 13740, Note_on_c, 9, 42, 0
11, 13800, Note_on_c, 9, 42, 100
11, 13860, Note_on_c, 9, 36, 120
11, 13860, Note_on_c, 9, 46, 100
11, 13920, Note_on_c, 9, 42, 0
11, 13920, Note_on_c, 9, 40, 120
11, 13920, Note_on_c, 9, 42, 100
11, 13980, Note_on_c, 9, 46, 0
11, 13980, Note_on_c, 9, 36, 0
11, 13980, Note_on_c, 9, 42, 100
11, 14040, Note_on_c, 9, 42, 0
11, 14040, Note_on_c, 9, 40, 0
11, 14040, Note_on_c, 9, 42, 100
11, 14100, Note_on_c, 9, 42, 0
11, 14100, Note_on_c, 9, 42, 100
11, 14160, Note_on_c, 9, 42, 0
11, 14220, Note_on_c, 9, 42, 0
11, 14280, Note_on_c, 9, 42, 100
11, 14340, Note_on_c, 9, 42, 100
11, 14370, Note_on_c, 9, 36, 120
11, 14400, Note_on_c, 9, 42, 0
11, 14400, Note_on_c, 9, 42, 100
11, 14460, Note_on_c, 9, 42, 0
11, 14460, Note_on_c, 9, 42, 100
11, 14490, Note_on_c, 9, 36, 0
11, 14520, Note_on_c, 9, 42, 0
11, 14520, Note_on_c, 9, 42, 100
11, 14580, Note_on_c, 9, 42, 0
11, 14580, Note_on_c, 9, 42, 100
11, 14640, Note_on_c, 9, 42, 0
11, 14700, Note_on_c, 9, 42, 0
11, 14760, Note_on_c, 9, 42, 100
11, 14820, Note_on_c, 9, 36, 120
11, 14820, Note_on_c, 9, 49, 100
11, 14880, Note_on_c, 9, 42, 0
11, 14940, Note_on_c, 9, 49, 0
11, 14940, Note_on_c, 9, 36, 0
11, 14940, Note_on_c, 9, 36, 120
11, 14940, Note_on_c, 9, 42, 100
11, 15000, Note_on_c, 9, 42, 100
11, 15060, Note_on_c, 9, 42, 0
11, 15060, Note_on_c, 9, 36, 0
11, 15060, Note_on_c, 9, 36, 120
11, 15060, Note_on_c, 9, 42, 100
11, 15120, Note_on_c, 9, 42, 0
11, 15180, Note_on_c, 9, 36, 0
11, 15180, Note_on_c, 9, 42, 0
11, 15240, Note_on_c, 9, 42, 100
11, 15300, Note_on_c, 9, 46, 100
11, 15360, Note_on_c, 9, 42, 0
11, 15360, Note_on_c, 9, 42, 100
11, 15420, Note_on_c, 9, 46, 0
11, 15420, Note_on_c, 9, 42, 100
11, 15480, Note_on_c, 9, 42, 0
11, 15480, Note_on_c, 9, 42, 100
11, 15540, Note_on_c, 9, 42, 0
11, 15540, Note_on_c, 9, 42, 100
11, 15600, Note_on_c, 9, 42, 0
11, 15600, Note_on_c, 9, 42, 100
11, 15660, Note_on_c, 9, 42, 0
11, 15660, Note_on_c, 9, 42, 100
11, 15720, Note_on_c, 9, 42, 0
11, 15720, Note_on_c, 9, 42, 100
11, 15780, Note_on_c, 9, 42, 0
11, 15780, Note_on_c, 9, 42, 100
11, 15840, Note_on_c, 9, 42, 0
11, 15840, Note_on_c, 9, 42, 100
11, 15900, Note_on_c, 9, 42, 0
11, 15900, Note_on_c, 9, 42, 100
11, 15960, Note_on_c, 9, 42, 0
11, 15960, Note_on_c, 9, 42, 100
11, 16020, Note_on_c, 9, 42, 0
11, 16020, Note_on_c, 9, 42, 100
11, 16080, Note_on_c, 9, 42, 0
11, 16080, Note_on_c, 9, 42, 100
11, 16140, Note_on_c, 9, 42, 0
11, 16140, Note_on_c, 9, 42, 100
11, 16200, Note_on_c, 9, 42, 0
11, 16200, Note_on_c, 9, 42, 100
11, 16260, Note_on_c, 9, 42, 0
11, 16260, Note_on_c, 9, 42, 100
11, 16320, Note_on_c, 9, 42, 0
11, 16320, Note_on_c, 9, 42, 100
11, 16380, Note_on_c, 9, 42, 0
11, 16380, Note_on_c, 9, 42, 100
11, 16440, Note_on_c, 9, 42, 0
11, 16440, Note_on_c, 9, 42, 100
11, 16500, Note_on_c, 9, 42, 0
11, 16500, Note_on_c, 9, 42, 100
11, 16560, Note_on_c, 9, 42, 0
11, 16560, Note_on_c, 9, 42, 100
11, 16620, Note_on_c, 9, 42, 0
11, 16620, Note_on_c, 9, 42, 100
11, 16680, Note_on_c, 9, 42, 0
11, 16680, Note_on_c, 9, 42, 100
11, 16740, Note_on_c, 9, 42, 0
11, 16740, Note_on_c, 9, 42, 100
11, 16800, Note_on_c, 9, 42, 0
11, 16800, Note_on_c, 9, 42, 100
11, 16860, Note_on_c, 9, 42, 0
11, 16860, Note_on_c, 9, 42, 100
11, 16920, Note_on_c, 9, 42, 0
11, 16920, Note_on_c, 9, 42, 100
11, 16980, Note_on_c, 9, 42, 0
11, 16980, Note_on_c, 9, 42, 100
11, 17040, Note_on_c, 9, 42, 0
11, 17040, Note_on_c, 9, 42, 100
11, 17100, Note_on_c, 9, 42, 0
11, 17100, Note_on_c, 9, 42, 100
11, 17160, Note_on_c, 9, 42, 0
11, 17160, Note_on_c, 9, 42, 100
11, 17220, Note_on_c, 9, 42, 0
11, 17220, Note_on_c, 9, 42, 100
11, 17280, Note_on_c, 9, 42, 0
11, 17280, Note_on_c, 9, 42, 100
11, 17340, Note_on_c, 9, 42, 0
11, 17340, Note_on_c, 9, 42, 100
11, 17400, Note_on_c, 9, 42, 0
11, 17400, Note_on_c, 9, 42, 100
11, 17460, Note_on_c, 9, 42, 0
11, 17460, Note_on_c, 9, 42, 100
11, 17520, Note_on_c, 9, 42, 0
11, 17520, Note_on_c, 9, 42, 100
11, 17580, Note_on_c, 9, 42, 0
11, 17580, Note_on_c, 9, 42, 100
11, 17640, Note_on_c, 9, 42, 0
11, 17640, Note_on_c, 9, 42, 100
11, 17700, Note_on_c, 9, 42, 0
11, 17700, Note_on_c, 9, 42, 100
11, 17760, Note_on_c, 9, 42, 0
11, 17760, Note_on_c, 9, 42, 100
11, 17820, Note_on_c, 9, 42, 0
11, 17820, Note_on_c, 9, 42, 100
11, 17880, Note_on_c, 9, 42, 0
11, 17880, Note_on_c, 9, 42, 100
11, 17940, Note_on_c, 9, 42, 0
11, 17940, Note_on_c, 9, 42, 100
11, 18000, Note_on_c, 9, 42, 0
11, 18000, Note_on_c, 9, 42, 100
11, 18060, Note_on_c, 9, 42, 0
11, 18060, Note_on_c, 9, 42, 100
11, 18120, Note_on_c, 9, 42, 0
11, 18120, Note_on_c, 9, 42, 100
11, 18180, Note_on_c, 9, 42, 0
11, 18180, Note_on_c, 9, 42, 100
11, 18240, Note_on_c, 9, 42, 0
11, 18240, Note_on_c, 9, 42, 100
11, 18300, Note_on_c, 9, 42, 0
11, 18300, Note_on_c, 9, 42, 100
11, 18360, Note_on_c, 9, 42, 0
11, 18360, Note_on_c, 9, 42, 100
11, 18420, Note_on_c, 9, 42, 0
11, 18420, Note_on_c, 9, 42, 100
11, 18480, Note_on_c, 9, 42, 0
11, 18480, Note_on_c, 9, 42, 100
11, 18540, Note_on_c, 9, 42, 0
11, 18540, Note_on_c, 9, 42, 100
11, 18600, Note_on_c, 9, 42, 0
11, 18600, Note_on_c, 9, 42, 100
11, 18660, Note_on_c, 9, 42, 0
11, 18660, Note_on_c, 9, 42, 100
11, 18720, Note_on_c, 9, 42, 0
11, 18720, Note_on_c, 9, 42, 100
11, 18780, Note_on_c, 9, 42, 0
11, 18780, Note_on_c, 9, 42, 100
11, 18840, Note_on_c, 9, 42, 0
11, 18840, Note_on_c, 9, 42, 100
11, 18900, Note_on_c, 9, 42, 0
11, 18900, Note_on_c, 9, 42, 100
11, 18960, Note_on_c, 9, 42, 0
11, 18960, Note_on_c, 9, 42, 100
11, 19020, Note_on_c, 9, 42, 0
11, 19020, Note_on_c, 9, 42, 100
11, 19080, Note_on_c, 9, 42, 0
11, 19080, Note_on_c, 9, 42, 100
11, 19140, Note_on_c, 9, 42, 0
11, 19140, Note_on_c, 9, 42, 100
11, 19200, Note_on_c, 9, 42, 0
11, 19200, Note_on_c, 9, 46, 100
11, 19260, Note_on_c, 9, 42, 0
11, 19260, Note_on_c, 9, 42, 100
11, 19320, Note_on_c, 9, 46, 0
11, 19320, Note_on_c, 9, 42, 100
11, 19380, Note_on_c, 9, 42, 0
11, 19380, Note_on_c, 9, 42, 100
11, 19440, Note_on_c, 9, 42, 0
11, 19500, Note_on_c, 9, 42, 0
11, 19560, Note_on_c, 9, 42, 100
11, 19620, Note_on_c, 9, 36, 120
11, 19620, Note_on_c, 9, 46, 100
11, 19680, Note_on_c, 9, 42, 0
11, 19680, Note_on_c, 9, 42, 100
11, 19740, Note_on_c, 9, 46, 0
11, 19740, Note_on_c, 9, 36, 0
11, 19740, Note_on_c, 9, 42, 100
11, 19800, Note_on_c, 9, 42, 0
11, 19800, Note_on_c, 9, 42, 100
11, 19860, Note_on_c, 9, 42, 0
11, 19860, Note_on_c, 9, 42, 100
11, 19920, Note_on_c, 9, 42, 0
11, 19980, Note_on_c, 9, 42, 0
11, 20040, Note_on_c, 9, 42, 100
11, 20100, Note_on_c, 9, 42, 100
11, 20130, Note_on_c, 9, 36, 120
11, 20160, Note_on_c, 9, 42, 0
11, 20160, Note_on_c, 9, 55, 100
11, 20220, Note_on_c, 9, 42, 0
11, 20220, Note_on_c, 9, 42, 100
11, 20250, Note_on_c, 9, 36, 0
11, 20280, Note_on_c, 9, 55, 0
11, 20280, Note_on_c, 9, 42, 100
11, 20340, Note_on_c, 9, 42, 0
11, 20340, Note_on_c, 9, 36, 120
11, 20340, Note_on_c, 9, 55, 100
11, 20400, Note_on_c, 9, 42, 0
11, 20460, Note_on_c, 9, 55, 0
11, 20460, Note_on_c, 9, 36, 0
11, 20580, Note_on_c, 9, 49, 100
11, 20580, Note_on_c, 9, 36, 120
11, 20700, Note_on_c, 9, 36, 0
11, 20700, Note_on_c, 9, 49, 0
11, 20700, Note_on_c, 9, 36, 120
11, 20700, Note_on_c, 9, 46, 100
11, 20760, Note_on_c, 9, 46, 100
11, 20820, Note_on_c, 9, 46, 0
11, 20820, Note_on_c, 9, 36, 0
11, 20820, Note_on_c, 9, 36, 120
11, 20820, Note_on_c, 9, 46, 100
11, 20880, Note_on_c, 9, 46, 0
11, 20880, Note_on_c, 9, 46, 100
11, 20940, Note_on_c, 9, 46, 0
11, 20940, Note_on_c, 9, 36, 0
11, 20940, Note_on_c, 9, 46, 100
11, 21000, Note_on_c, 9, 46, 0
11, 21060, Note_on_c, 9, 46, 0
11, 21060, Note_on_c, 9, 40, 120
11, 21120, Note_on_c, 9, 42, 100
11, 21180, Note_on_c, 9, 40, 0
11, 21180, Note_on_c, 9, 42, 100
11, 21240, Note_on_c, 9, 42, 0
11, 21240, Note_on_c, 9, 42, 100
11, 21300, Note_on_c, 9, 42, 0
11, 21300, Note_on_c, 9, 42, 100
11, 21360, Note_on_c, 9, 42, 0
11, 21420, Note_on_c, 9, 42, 0
11, 21480, Note_on_c, 9, 42, 100
11, 21540, Note_on_c, 9, 36, 120
11, 21540, Note_on_c, 9, 46, 100
11, 21600, Note_on_c, 9, 42, 0
11, 21600, Note_on_c, 9, 40, 120
11, 21600, Note_on_c, 9, 42, 100
11, 21660, Note_on_c, 9, 46, 0
11, 21660, Note_on_c, 9, 36, 0
11, 21660, Note_on_c, 9, 42, 100
11, 21720, Note_on_c, 9, 42, 0
11, 21720, Note_on_c, 9, 40, 0
11, 21720, Note_on_c, 9, 42, 100
11, 21780, Note_on_c, 9, 42, 0
11, 21780, Note_on_c, 9, 42, 100
11, 21840, Note_on_c, 9, 42, 0
11, 21900, Note_on_c, 9, 42, 0
11, 21960, Note_on_c, 9, 42, 100
11, 22020, Note_on_c, 9, 42, 100
11, 22050, Note_on_c, 9, 36, 120
11, 22080, Note_on_c, 9, 42, 0
11, 22080, Note_on_c, 9, 42, 100
11, 22140, Note_on_c, 9, 42, 0
11, 22140, Note_on_c, 9, 42, 100
11, 22170, Note_on_c, 9, 36, 0
11, 22200, Note_on_c, 9, 42, 0
11, 22200, Note_on_c, 9, 42, 100
11, 22260, Note_on_c, 9, 42, 0
11, 22260, Note_on_c, 9, 42, 100
11, 22320, Note_on_c, 9, 42, 0
11, 22380, Note_on_c, 9, 42, 0
11, 22440, Note_on_c, 9, 42, 100
11, 22500, Note_on_c, 9, 36, 120
11, 22500, Note_on_c, 9, 46, 100
11, 22560, Note_on_c, 9, 42, 0
11, 22560, Note_on_c, 9, 40, 120
11, 22560, Note_on_c, 9, 42, 100
11, 22620, Note_on_c, 9, 46, 0
11, 22620, Note_on_c, 9, 36, 0
11, 22620, Note_on_c, 9, 42, 100
11, 22680, Note_on_c, 9, 42, 0
11, 22680, Note_on_c, 9, 40, 0
11, 22680, Note_on_c, 9, 42, 100
11, 22740, Note_on_c, 9, 42, 0
11, 22740, Note_on_c, 9, 42, 100
11, 22800, Note_on_c, 9, 42, 0
11, 22860, Note_on_c, 9, 42, 0
11, 22920, Note_on_c, 9, 42, 100
11, 22980, Note_on_c, 9, 42, 100
11, 23010, Note_on_c, 9, 36, 120
11, 23040, Note_on_c, 9, 42, 0
11, 23040, Note_on_c, 9, 42, 100
11, 23100, Note_on_c, 9, 42, 0
11, 23100, Note_on_c, 9, 42, 100
11, 23130, Note_on_c, 9, 36, 0
11, 23160, Note_on_c, 9, 42, 0
11, 23160, Note_on_c, 9, 42, 100
11, 23220, Note_on_c, 9, 42, 0
11, 23220, Note_on_c, 9, 42, 100
11, 23280, Note_on_c, 9, 42, 0
11, 23340, Note_on_c, 9, 42, 0
11, 23400, Note_on_c, 9, 42, 100
11, 23460, Note_on_c, 9, 36, 120
11, 23460, Note_on_c, 9, 46, 100
11, 23520, Note_on_c, 9, 42, 0
11, 23520, Note_on_c, 9, 40, 120
11, 23520, Note_on_c, 9, 42, 100
11, 23580, Note_on_c, 9, 46, 0
11, 23580, Note_on_c, 9, 36, 0
11, 23580, Note_on_c, 9, 42, 100
11, 23640, Note_on_c, 9, 42, 0
11, 23640, Note_on_c, 9, 40, 0
11, 23640, Note_on_c, 9, 42, 100
11, 23700, Note_on_c, 9, 42, 0
11, 23700, Note_on_c, 9, 42, 100
11, 23760, Note_on_c, 9, 42, 0
11, 23820, Note_on_c, 9, 42, 0
11, 23880, Note_on_c, 9, 42, 100
11, 23940, Note_on_c, 9, 42, 100
11, 23970, Note_on_c, 9, 36, 120
11, 24000, Note_on_c, 9, 42, 0
11, 24000, Note_on_c, 9, 42, 100
11, 24060, Note_on_c, 9, 42, 0
11, 24060, Note_on_c, 9, 42, 100
11, 24090, Note_on_c, 9, 36, 0
11, 24120, Note_on_c, 9, 42, 0
11, 24120, Note_on_c, 9, 42, 100
11, 24180, Note_on_c, 9, 42, 0
11, 24180, Note_on_c, 9, 42, 100
11, 24240, Note_on_c, 9, 42, 0
11, 24300, Note_on_c, 9, 42, 0
11, 24360, Note_on_c, 9, 42, 100
11, 24420, Note_on_c, 9, 36, 120
11, 24420, Note_on_c, 9, 49, 100
11, 24480, Note_on_c, 9, 42, 0
11, 24540, Note_on_c, 9, 49, 0
11, 24540, Note_on_c, 9, 36, 0
11, 24540, Note_on_c, 9, 36, 120
11, 24540, Note_on_c, 9, 42, 100
11, 24600, Note_on_c, 9, 42, 100
11, 24660, Note_on_c, 9, 42, 0
11, 24660, Note_on_c, 9, 36, 0
11, 24660, Note_on_c, 9, 36, 120
11, 24660, Note_on_c, 9, 42, 100
11, 24720, Note_on_c, 9, 42, 0
11, 24780, Note_on_c, 9, 36, 0
11, 24780, Note_on_c, 9, 42, 0
11, 24840, Note_on_c, 9, 42, 100
11, 24900, Note_on_c, 9, 46, 100
11, 24960, Note_on_c, 9, 42, 0
11, 24960, Note_on_c, 9, 53, 100
11, 25020, Note_on_c, 9, 46, 0
11, 25080, Note_on_c, 9, 53, 0
11, 25200, Note_on_c, 9, 53, 100
11, 25320, Note_on_c, 9, 53, 0
11, 25440, Note_on_c, 9, 53, 100
11, 25560, Note_on_c, 9, 53, 0
11, 25680, Note_on_c, 9, 53, 100
11, 25800, Note_on_c, 9, 53, 0
11, 25920, Note_on_c, 9, 53, 100
11, 26040, Note_on_c, 9, 53, 0
11, 26160, Note_on_c, 9, 53, 100
11, 26280, Note_on_c, 9, 53, 0
11, 26400, Note_on_c, 9, 53, 100
11, 26520, Note_on_c, 9, 53, 0
11, 26640, Note_on_c, 9, 53, 100
11, 26760, Note_on_c, 9, 53, 0
11, 26880, Note_on_c, 9, 53, 100
11, 27000, Note_on_c, 9, 53, 0
11, 27120, Note_on_c, 9, 53, 100
11, 27240, Note_on_c, 9, 53, 0
11, 27360, Note_on_c, 9, 53, 100
11, 27480, Note_on_c, 9, 53, 0
11, 27600, Note_on_c, 9, 53, 100
11, 27720, Note_on_c, 9, 53, 0
11, 27840, Note_on_c, 9, 53, 100
11, 27960, Note_on_c, 9, 53, 0
11, 28080, Note_on_c, 9, 53, 100
11, 28200, Note_on_c, 9, 53, 0
11, 28800, Note_on_c, 9, 49, 100
11, 28860, Note_on_c, 9, 42, 100
11, 28920, Note_on_c, 9, 49, 0
11, 28920, Note_on_c, 9, 42, 100
11, 28980, Note_on_c, 9, 42, 0
11, 28980, Note_on_c, 9, 42, 100
11, 29040, Note_on_c, 9, 42, 0
11, 29100, Note_on_c, 9, 42, 0
11, 29160, Note_on_c, 9, 42, 100
11, 29220, Note_on_c, 9, 36, 120
11, 29220, Note_on_c, 9, 46, 100
11, 29280, Note_on_c, 9, 42, 0
11, 29280, Note_on_c, 9, 40, 120
11, 29280, Note_on_c, 9, 42, 100
11, 29340, Note_on_c, 9, 46, 0
11, 29340, Note_on_c, 9, 36, 0
11, 29340, Note_on_c, 9, 42, 100
11, 29400, Note_on_c, 9, 42, 0
11, 29400, Note_on_c, 9, 40, 0
11, 29400, Note_on_c, 9, 42, 100
11, 29460, Note_on_c, 9, 42, 0
11, 29460, Note_on_c, 9, 42, 100
11, 29520, Note_on_c, 9, 42, 0
11, 29580, Note_on_c, 9, 42, 0
11, 29640, Note_on_c, 9, 42, 100
11, 29700, Note_on_c, 9, 42, 100
11, 29730, Note_on_c, 9, 36, 120
11, 29760, Note_on_c, 9, 42, 0
11, 29760, Note_on_c, 9, 42, 100
11, 29820, Note_on_c, 9, 42, 0
11, 29820, Note_on_c, 9, 42, 100
11, 29850, Note_on_c, 9, 36, 0
11, 29880, Note_on_c, 9, 42, 0
11, 29880, Note_on_c, 9, 42, 100
11, 29940, Note_on_c, 9, 42, 0
11, 29940, Note_on_c, 9, 42, 100
11, 30000, Note_on_c, 9, 42, 0
11, 30060, Note_on_c, 9, 42, 0
11, 30120, Note_on_c, 9, 42, 100
11, 30180, Note_on_c, 9, 36, 120
11, 30180, Note_on_c, 9, 46, 100
11, 30240, Note_on_c, 9, 42, 0
11, 30240, Note_on_c, 9, 40, 120
11, 30240, Note_on_c, 9, 42, 100
11, 30300, Note_on_c, 9, 46, 0
11, 30300, Note_on_c, 9, 36, 0
11, 30300, Note_on_c, 9, 42, 100
11, 30360, Note_on_c, 9, 42, 0
11, 30360, Note_on_c, 9, 40, 0
11, 30360, Note_on_c, 9, 42, 100
11, 30420, Note_on_c, 9, 42, 0
11, 30420, Note_on_c, 9, 42, 100
11, 30480, Note_on_c, 9, 42, 0
11, 30540, Note_on_c, 9, 42, 0
11, 30600, Note_on_c, 9, 42, 100
11, 30660, Note_on_c, 9, 42, 100
11, 30690, Note_on_c, 9, 36, 120
11, 30720, Note_on_c, 9, 42, 0
11, 30720, Note_on_c, 9, 42, 100
11, 30780, Note_on_c, 9, 42, 0
11, 30780, Note_on_c, 9, 42, 100
11, 30810, Note_on_c, 9, 36, 0
11, 30840, Note_on_c, 9, 42, 0
11, 30840, Note_on_c, 9, 42, 100
11, 30900, Note_on_c, 9, 42, 0
11, 30900, Note_on_c, 9, 42, 100
11, 30960, Note_on_c, 9, 42, 0
11, 31020, Note_on_c, 9, 42, 0
11, 31080, Note_on_c, 9, 42, 100
11, 31140, Note_on_c, 9, 36, 120
11, 31140, Note_on_c, 9, 46, 100
11, 31200, Note_on_c, 9, 42, 0
11, 31200, Note_on_c, 9, 40, 120
11, 31200, Note_on_c, 9, 42, 100
11, 31260, Note_on_c, 9, 46, 0
11, 31260, Note_on_c, 9, 36, 0
11, 31260, Note_on_c, 9, 42, 100
11, 31320, Note_on_c, 9, 42, 0
11, 31320, Note_on_c, 9, 40, 0
11, 31320, Note_on_c, 9, 42, 100
11, 31380, Note_on_c, 9, 42, 0
11, 31380, Note_on_c, 9, 42, 100
11, 31440, Note_on_c, 9, 42, 0
11, 31500, Note_on_c, 9, 42, 0
11, 31560, Note_on_c, 9, 42, 100
11, 31620, Note_on_c, 9, 42, 100
11, 31650, Note_on_c, 9, 36, 120
11, 31680, Note_on_c, 9, 42, 0
11, 31680, Note_on_c, 9, 42, 100
11, 31740, Note_on_c, 9, 42, 0
11, 31740, Note_on_c, 9, 42, 100
11, 31770, Note_on_c, 9, 36, 0
11, 31800, Note_on_c, 9, 42, 0
11, 31800, Note_on_c, 9, 42, 100
11, 31860, Note_on_c, 9, 42, 0
11, 31860, Note_on_c, 9, 42, 100
11, 31920, Note_on_c, 9, 42, 0
11, 31980, Note_on_c, 9, 42, 0
11, 32040, Note_on_c, 9, 42, 100
11, 32100, Note_on_c, 9, 36, 120
11, 32100, Note_on_c, 9, 49, 100
11, 32160, Note_on_c, 9, 42, 0
11, 32220, Note_on_c, 9, 49, 0
11, 32220, Note_on_c, 9, 36, 0
11, 32220, Note_on_c, 9, 36, 120
11, 32220, Note_on_c, 9, 42, 100
11, 32280, Note_on_c, 9, 42, 100
11, 32340, Note_on_c, 9, 42, 0
11, 32340, Note_on_c, 9, 36, 0
11, 32340, Note_on_c, 9, 36, 120
11, 32340, Note_on_c, 9, 42, 100
11, 32400, Note_on_c, 9, 42, 0
11, 32460, Note_on_c, 9, 36, 0
11, 32460, Note_on_c, 9, 42, 0
11, 32520, Note_on_c, 9, 42, 100
11, 32580, Note_on_c, 9, 46, 100
11, 32640, Note_on_c, 9, 42, 0
11, 32640, Note_on_c, 9, 53, 100
11, 32700, Note_on_c, 9, 46, 0
11, 32760, Note_on_c, 9, 53, 0
11, 32880, Note_on_c, 9, 53, 100
11, 33000, Note_on_c, 9, 53, 0
11, 33120, Note_on_c, 9, 53, 100
11, 33240, Note_on_c, 9, 53, 0
11, 33360, Note_on_c, 9, 53, 100
11, 33480, Note_on_c, 9, 53, 0
11, 33600, Note_on_c, 9, 53, 100
11, 33720, Note_on_c, 9, 53, 0
11, 33840, Note_on_c, 9, 53, 100
11, 33960, Note_on_c, 9, 53, 0
11, 34560, Note_on_c, 9, 49, 100
11, 34620, Note_on_c, 9, 42, 98
11, 34680, Note_on_c, 9, 49, 0
11, 34680, Note_on_c, 9, 42, 96
11, 34740, Note_on_c, 9, 42, 0
11, 34740, Note_on_c, 9, 42, 94
11, 34800, Note_on_c, 9, 42, 0
11, 34860, Note_on_c, 9, 42, 0
11, 34920, Note_on_c, 9, 42, 88
11, 34980, Note_on_c, 9, 36, 103
11, 34980, Note_on_c, 9, 46, 86
11, 35040, Note_on_c, 9, 42, 0
11, 35040, Note_on_c, 9, 40, 100
11, 35040, Note_on_c, 9, 42, 84
11, 35100, Note_on_c, 9, 46, 0
11, 35100, Note_on_c, 9, 36, 0
11, 35100, Note_on_c, 9, 42, 82
11, 35160, Note_on_c, 9, 42, 0
11, 35160, Note_on_c, 9, 40, 0
11, 35160, Note_on_c, 9, 42, 80
11, 35220, Note_on_c, 9, 42, 0
11, 35220, Note_on_c, 9, 42, 78
11, 35280, Note_on_c, 9, 42, 0
11, 35340, Note_on_c, 9, 42, 0
11, 35400, Note_on_c, 9, 42, 71
11, 35460, Note_on_c, 9, 42, 69
11, 35490, Note_on_c, 9, 36, 81
11, 35520, Note_on_c, 9, 42, 0
11, 35520, Note_on_c, 9, 42, 67
11, 35580, Note_on_c, 9, 42, 0
11, 35580, Note_on_c, 9, 42, 65
11, 35610, Note_on_c, 9, 36, 0
11, 35640, Note_on_c, 9, 42, 0
11, 35640, Note_on_c, 9, 42, 63
11, 35700, Note_on_c, 9, 42, 0
11, 35700, Note_on_c, 9, 42, 61
11, 35760, Note_on_c, 9, 42, 0
11, 35820, Note_on_c, 9, 42, 0
11, 35880, Note_on_c, 9, 42, 55
11, 35940, Note_on_c, 9, 36, 63
11, 35940, Note_on_c, 9, 46, 53
11, 36000, Note_on_c, 9, 42, 0
11, 36000, Note_on_c, 9, 40, 60
11, 36000, Note_on_c, 9, 42, 50
11, 36060, Note_on_c, 9, 46, 0
11, 36060, Note_on_c, 9, 36, 0
11, 36060, Note_on_c, 9, 42, 48
11, 36120, Note_on_c, 9, 42, 0
11, 36120, Note_on_c, 9, 40, 0
11, 36120, Note_on_c, 9, 42, 46
11, 36180, Note_on_c, 9, 42, 0
11, 36180, Note_on_c, 9, 42, 44
11, 36240, Note_on_c, 9, 42, 0
11, 36300, Note_on_c, 9, 42, 0
11, 36360, Note_on_c, 9, 42, 38
11, 36420, Note_on_c, 9, 42, 36
11, 36450, Note_on_c, 9, 36, 42
11, 36480, Note_on_c, 9, 42, 0
11, 36480, Note_on_c, 9, 42, 34
11, 36540, Note_on_c, 9, 42, 0
11, 36540, Note_on_c, 9, 42, 32
11, 36570, Note_on_c, 9, 36, 0
11, 36600, Note_on_c, 9, 42, 0
11, 36600, Note_on_c, 9, 42, 30
11, 36660, Note_on_c, 9, 42, 0
11, 36660, Note_on_c, 9, 42, 28
11, 36720, Note_on_c, 9, 42, 0
11, 36780, Note_on_c, 9, 42, 0
11, 36840, Note_on_c, 9, 42, 21
11, 36900, Note_on_c, 9, 36, 22
11, 36900, Note_on_c, 9, 46, 19
11, 36960, Note_on_c, 9, 42, 0
11, 36960, Note_on_c, 9, 40, 20
11, 36960, Note_on_c, 9, 42, 17
11, 37020, Note_on_c, 9, 46, 0
11, 37020, Note_on_c, 9, 36, 0
11, 37020, Note_on_c, 9, 42, 15
11, 37080, Note_on_c, 9, 42, 0
11, 37080, Note_on_c, 9, 40, 0
11, 37080, Note_on_c, 9, 42, 13
11, 37140, Note_on_c, 9, 42, 0
11, 37140, Note_on_c, 9, 42, 11
11, 37200, Note_on_c, 9, 42, 0
11, 37260, Note_on_c, 9, 42, 0
11, 37320, Note_on_c, 9, 42, 5
11, 37380, Note_on_c, 9, 42, 3
11, 37410, Note_on_c, 9, 36, 2
11, 37440, Note_on_c, 9, 42, 0
11, 37530, Note_on_c, 9, 36, 0
11, 37740, Note_on_c, 9, 42, 0
11, 37740, End_track
12, 0, Start_track
12, 0, MIDI_port, 0
12, 0, Control_c, 9, 7, 125
12, 0, Control_c, 9, 10, 64
12, 2880, Note_on_c, 9, 62, 100
12, 3000, Note_on_c, 9, 62, 0
12, 3000, Note_on_c, 9, 62, 100
12, 3060, Note_on_c, 9, 62, 100
12, 3090, Note_on_c, 9, 62, 100
12, 3120, Note_on_c, 9, 62, 0
12, 3120, Note_on_c, 9, 62, 100
12, 3180, Note_on_c, 9, 62, 0
12, 3180, Note_on_c, 9, 62, 100
12, 3210, Note_on_c, 9, 62, 0
12, 3240, Note_on_c, 9, 62, 0
12, 3240, Note_on_c, 9, 61, 100
12, 3300, Note_on_c, 9, 62, 0
12, 3300, Note_on_c, 9, 61, 100
12, 3360, Note_on_c, 9, 61, 0
12, 3360, Note_on_c, 9, 62, 100
12, 3420, Note_on_c, 9, 61, 0
12, 3480, Note_on_c, 9, 62, 0
12, 3480, Note_on_c, 9, 62, 100
12, 3540, Note_on_c, 9, 62, 100
12, 3570, Note_on_c, 9, 62, 100
12, 3600, Note_on_c, 9, 62, 0
12, 3600, Note_on_c, 9, 62, 100
12, 3630, Note_on_c, 9, 62, 100
12, 3660, Note_on_c, 9, 62, 0
12, 3660, Note_on_c, 9, 62, 100
12, 3690, Note_on_c, 9, 62, 0
12, 3690, Note_on_c, 9, 62, 100
12, 3720, Note_on_c, 9, 62, 0
12, 3720, Note_on_c, 9, 61, 100
12, 3750, Note_on_c, 9, 62, 0
12, 3780, Note_on_c, 9, 62, 0
12, 3780, Note_on_c, 9, 61, 100
12, 3810, Note_on_c, 9, 62, 0
12, 3810, Note_on_c, 9, 61, 100
12, 3840, Note_on_c, 9, 61, 0
12, 3840, Note_on_c, 9, 62, 100
12, 3900, Note_on_c, 9, 61, 0
12, 3930, Note_on_c, 9, 61, 0
12, 3960, Note_on_c, 9, 62, 0
12, 3960, Note_on_c, 9, 62, 100
12, 4020, Note_on_c, 9, 62, 100
12, 4050, Note_on_c, 9, 62, 100
12, 4080, Note_on_c, 9, 62, 0
12, 4080, Note_on_c, 9, 62, 100
12, 4140, Note_on_c, 9, 62, 0
12, 4140, Note_on_c, 9, 62, 100
12, 4170, Note_on_c, 9, 62, 0
12, 4200, Note_on_c, 9, 62, 0
12, 4200, Note_on_c, 9, 61, 100
12, 4260, Note_on_c, 9, 62, 0
12, 4260, Note_on_c, 9, 61, 100
12, 4320, Note_on_c, 9, 61, 0
12, 4320, Note_on_c, 9, 62, 100
12, 4380, Note_on_c, 9, 61, 0
12, 4440, Note_on_c, 9, 62, 0
12, 4440, Note_on_c, 9, 62, 100
12, 4500, Note_on_c, 9, 62, 100
12, 4530, Note_on_c, 9, 62, 100
12, 4560, Note_on_c, 9, 62, 0
12, 4560, Note_on_c, 9, 62, 100
12, 4590, Note_on_c, 9, 62, 100
12, 4620, Note_on_c, 9, 62, 0
12, 4620, Note_on_c, 9, 62, 100
12, 4650, Note_on_c, 9, 62, 0
12, 4650, Note_on_c, 9, 62, 100
12, 4680, Note_on_c, 9, 62, 0
12, 4680, Note_on_c, 9, 61, 100
12, 4710, Note_on_c, 9, 62, 0
12, 4740, Note_on_c, 9, 62, 0
12, 4740, Note_on_c, 9, 61, 100
12, 4770, Note_on_c, 9, 62, 0
12, 4770, Note_on_c, 9, 61, 100
12, 4800, Note_on_c, 9, 61, 0
12, 4800, Note_on_c, 9, 62, 100
12, 4860, Note_on_c, 9, 61, 0
12, 4890, Note_on_c, 9, 61, 0
12, 4920, Note_on_c, 9, 62, 0
12, 4920, Note_on_c, 9, 62, 100
12, 4980, Note_on_c, 9, 62, 100
12, 5010, Note_on_c, 9, 62, 100
12, 5040, Note_on_c, 9, 62, 0
12, 5040, Note_on_c, 9, 62, 100
12, 5100, Note_on_c, 9, 62, 0
12, 5100, Note_on_c, 9, 62, 100
12, 5130, Note_on_c, 9, 62, 0
12, 5160, Note_on_c, 9, 62, 0
12, 5160, Note_on_c, 9, 61, 100
12, 5220, Note_on_c, 9, 62, 0
12, 5220, Note_on_c, 9, 61, 100
12, 5280, Note_on_c, 9, 61, 0
12, 5340, Note_on_c, 9, 61, 0
12, 5760, Note_on_c, 9, 62, 100
12, 5880, Note_on_c, 9, 62, 0
12, 5880, Note_on_c, 9, 62, 100
12, 5940, Note_on_c, 9, 62, 100
12, 5970, Note_on_c, 9, 62, 100
12, 6000, Note_on_c, 9, 62, 0
12, 6000, Note_on_c, 9, 62, 100
12, 6060, Note_on_c, 9, 62, 0
12, 6060, Note_on_c, 9, 62, 100
12, 6090, Note_on_c, 9, 62, 0
12, 6120, Note_on_c, 9, 62, 0
12, 6120, Note_on_c, 9, 61, 100
12, 6180, Note_on_c, 9, 62, 0
12, 6180, Note_on_c, 9, 61, 100
12, 6240, Note_on_c, 9, 61, 0
12, 6240, Note_on_c, 9, 62, 100
12, 6300, Note_on_c, 9, 61, 0
12, 6360, Note_on_c, 9, 62, 0
12, 6360, Note_on_c, 9, 62, 100
12, 6420, Note_on_c, 9, 62, 100
12, 6450, Note_on_c, 9, 62, 100
12, 6480, Note_on_c, 9, 62, 0
12, 6480, Note_on_c, 9, 62, 100
12, 6510, Note_on_c, 9, 62, 100
12, 6540, Note_on_c, 9, 62, 0
12, 6540, Note_on_c, 9, 62, 100
12, 6570, Note_on_c, 9, 62, 0
12, 6570, Note_on_c, 9, 62, 100
12, 6600, Note_on_c, 9, 62, 0
12, 6600, Note_on_c, 9, 61, 100
12, 6630, Note_on_c, 9, 62, 0
12, 6660, Note_on_c, 9, 62, 0
12, 6660, Note_on_c, 9, 61, 100
12, 6690, Note_on_c, 9, 62, 0
12, 6690, Note_on_c, 9, 61, 100
12, 6720, Note_on_c, 9, 61, 0
12, 6720, Note_on_c, 9, 62, 100
12, 6780, Note_on_c, 9, 61, 0
12, 6810, Note_on_c, 9, 61, 0
12, 6840, Note_on_c, 9, 62, 0
12, 6840, Note_on_c, 9, 62, 100
12, 6900, Note_on_c, 9, 62, 100
12, 6930, Note_on_c, 9, 62, 100
12, 6960, Note_on_c, 9, 62, 0
12, 6960, Note_on_c, 9, 62, 100
12, 7020, Note_on_c, 9, 62, 0
12, 7020, Note_on_c, 9, 62, 100
12, 7050, Note_on_c, 9, 62, 0
12, 7080, Note_on_c, 9, 62, 0
12, 7080, Note_on_c, 9, 61, 100
12, 7140, Note_on_c, 9, 62, 0
12, 7140, Note_on_c, 9, 61, 100
12, 7200, Note_on_c, 9, 61, 0
12, 7200, Note_on_c, 9, 62, 100
12, 7260, Note_on_c, 9, 61, 0
12, 7320, Note_on_c, 9, 62, 0
12, 7320, Note_on_c, 9, 62, 100
12, 7380, Note_on_c, 9, 62, 100
12, 7410, Note_on_c, 9, 62, 100
12, 7440, Note_on_c, 9, 62, 0
12, 7440, Note_on_c, 9, 62, 100
12, 7470, Note_on_c, 9, 62, 100
12, 7500, Note_on_c, 9, 62, 0
12, 7500, Note_on_c, 9, 62, 100
12, 7530, Note_on_c, 9, 62, 0
12, 7530, Note_on_c, 9, 62, 100
12, 7560, Note_on_c, 9, 62, 0
12, 7560, Note_on_c, 9, 61, 100
12, 7590, Note_on_c, 9, 62, 0
12, 7620, Note_on_c, 9, 62, 0
12, 7620, Note_on_c, 9, 61, 100
12, 7650, Note_on_c, 9, 62, 0
12, 7650, Note_on_c, 9, 61, 100
12, 7680, Note_on_c, 9, 61, 0
12, 7680, Note_on_c, 9, 62, 100
12, 7740, Note_on_c, 9, 61, 0
12, 7770, Note_on_c, 9, 61, 0
12, 7800, Note_on_c, 9, 62, 0
12, 7800, Note_on_c, 9, 62, 100
12, 7860, Note_on_c, 9, 62, 100
12, 7890, Note_on_c, 9, 62, 100
12, 7920, Note_on_c, 9, 62, 0
12, 7920, Note_on_c, 9, 62, 100
12, 7980, Note_on_c, 9, 62, 0
12, 7980, Note_on_c, 9, 62, 100
12, 8010, Note_on_c, 9, 62, 0
12, 8040, Note_on_c, 9, 62, 0
12, 8040, Note_on_c, 9, 61, 100
12, 8100, Note_on_c, 9, 62, 0
12, 8100, Note_on_c, 9, 61, 100
12, 8160, Note_on_c, 9, 61, 0
12, 8160, Note_on_c, 9, 62, 100
12, 8220, Note_on_c, 9, 61, 0
12, 8280, Note_on_c, 9, 62, 0
12, 8280, Note_on_c, 9, 62, 100
12, 8340, Note_on_c, 9, 62, 100
12, 8370, Note_on_c, 9, 62, 100
12, 8400, Note_on_c, 9, 62, 0
12, 8400, Note_on_c, 9, 62, 100
12, 8430, Note_on_c, 9, 62, 100
12, 8460, Note_on_c, 9, 62, 0
12, 8460, Note_on_c, 9, 62, 100
12, 8490, Note_on_c, 9, 62, 0
12, 8490, Note_on_c, 9, 62, 100
12, 8520, Note_on_c, 9, 62, 0
12, 8520, Note_on_c, 9, 61, 100
12, 8550, Note_on_c, 9, 62, 0
12, 8580, Note_on_c, 9, 62, 0
12, 8580, Note_on_c, 9, 61, 100
12, 8610, Note_on_c, 9, 62, 0
12, 8610, Note_on_c, 9, 61, 100
12, 8640, Note_on_c, 9, 61, 0
12, 8640, Note_on_c, 9, 62, 100
12, 8700, Note_on_c, 9, 61, 0
12, 8730, Note_on_c, 9, 61, 0
12, 8760, Note_on_c, 9, 62, 0
12, 8760, Note_on_c, 9, 62, 100
12, 8820, Note_on_c, 9, 62, 100
12, 8850, Note_on_c, 9, 62, 100
12, 8880, Note_on_c, 9, 62, 0
12, 8880, Note_on_c, 9, 62, 100
12, 8940, Note_on_c, 9, 62, 0
12, 8940, Note_on_c, 9, 62, 100
12, 8970, Note_on_c, 9, 62, 0
12, 9000, Note_on_c, 9, 62, 0
12, 9000, Note_on_c, 9, 61, 100
12, 9060, Note_on_c, 9, 62, 0
12, 9060, Note_on_c, 9, 61, 100
12, 9120, Note_on_c, 9, 61, 0
12, 9120, Note_on_c, 9, 62, 100
12, 9180, Note_on_c, 9, 61, 0
12, 9240, Note_on_c, 9, 62, 0
12, 9240, Note_on_c, 9, 62, 100
12, 9300, Note_on_c, 9, 62, 100
12, 9330, Note_on_c, 9, 62, 100
12, 9360, Note_on_c, 9, 62, 0
12, 9360, Note_on_c, 9, 62, 100
12, 9390, Note_on_c, 9, 62, 100
12, 9420, Note_on_c, 9, 62, 0
12, 9420, Note_on_c, 9, 62, 100
12, 9450, Note_on_c, 9, 62, 0
12, 9450, Note_on_c, 9, 62, 100
12, 9480, Note_on_c, 9, 62, 0
12, 9480, Note_on_c, 9, 61, 100
12, 9510, Note_on_c, 9, 62, 0
12, 9540, Note_on_c, 9, 62, 0
12, 9540, Note_on_c, 9, 61, 100
12, 9570, Note_on_c, 9, 62, 0
12, 9570, Note_on_c, 9, 61, 100
12, 9600, Note_on_c, 9, 61, 0
12, 9600, Note_on_c, 9, 62, 100
12, 9660, Note_on_c, 9, 61, 0
12, 9690, Note_on_c, 9, 61, 0
12, 9720, Note_on_c, 9, 62, 0
12, 9720, Note_on_c, 9, 62, 100
12, 9780, Note_on_c, 9, 62, 100
12, 9810, Note_on_c, 9, 62, 100
12, 9840, Note_on_c, 9, 62, 0
12, 9840, Note_on_c, 9, 62, 100
12, 9900, Note_on_c, 9, 62, 0
12, 9900, Note_on_c, 9, 62, 100
12, 9930, Note_on_c, 9, 62, 0
12, 9960, Note_on_c, 9, 62, 0
12, 9960, Note_on_c, 9, 61, 100
12, 10020, Note_on_c, 9, 62, 0
12, 10020, Note_on_c, 9, 61, 100
12, 10080, Note_on_c, 9, 61, 0
12, 10080, Note_on_c, 9, 62, 100
12, 10140, Note_on_c, 9, 61, 0
12, 10200, Note_on_c, 9, 62, 0
12, 10200, Note_on_c, 9, 62, 100
12, 10260, Note_on_c, 9, 62, 100
12, 10290, Note_on_c, 9, 62, 100
12, 10320, Note_on_c, 9, 62, 0
12, 10320, Note_on_c, 9, 62, 100
12, 10350, Note_on_c, 9, 62, 100
12, 10380, Note_on_c, 9, 62, 0
12, 10380, Note_on_c, 9, 62, 100
12, 10410, Note_on_c, 9, 62, 0
12, 10410, Note_on_c, 9, 62, 100
12, 10440, Note_on_c, 9, 62, 0
12, 10440, Note_on_c, 9, 61, 100
12, 10470, Note_on_c, 9, 62, 0
12, 10500, Note_on_c, 9, 62, 0
12, 10500, Note_on_c, 9, 61, 100
12, 10530, Note_on_c, 9, 62, 0
12, 10530, Note_on_c, 9, 61, 100
12, 10560, Note_on_c, 9, 61, 0
12, 10560, Note_on_c, 9, 62, 100
12, 10620, Note_on_c, 9, 61, 0
12, 10650, Note_on_c, 9, 61, 0
12, 10680, Note_on_c, 9, 62, 0
12, 10680, Note_on_c, 9, 62, 100
12, 10740, Note_on_c, 9, 62, 100
12, 10770, Note_on_c, 9, 62, 100
12, 10800, Note_on_c, 9, 62, 0
12, 10800, Note_on_c, 9, 62, 100
12, 10860, Note_on_c, 9, 62, 0
12, 10860, Note_on_c, 9, 62, 100
12, 10890, Note_on_c, 9, 62, 0
12, 10920, Note_on_c, 9, 62, 0
12, 10920, Note_on_c, 9, 61, 100
12, 10980, Note_on_c, 9, 62, 0
12, 10980, Note_on_c, 9, 61, 100
12, 11040, Note_on_c, 9, 61, 0
12, 11040, Note_on_c, 9, 62, 100
12, 11100, Note_on_c, 9, 61, 0
12, 11160, Note_on_c, 9, 62, 0
12, 11160, Note_on_c, 9, 62, 100
12, 11220, Note_on_c, 9, 62, 100
12, 11250, Note_on_c, 9, 62, 100
12, 11280, Note_on_c, 9, 62, 0
12, 11280, Note_on_c, 9, 62, 100
12, 11310, Note_on_c, 9, 62, 100
12, 11340, Note_on_c, 9, 62, 0
12, 11340, Note_on_c, 9, 62, 100
12, 11370, Note_on_c, 9, 62, 0
12, 11370, Note_on_c, 9, 62, 100
12, 11400, Note_on_c, 9, 62, 0
12, 11400, Note_on_c, 9, 61, 100
12, 11430, Note_on_c, 9, 62, 0
12, 11460, Note_on_c, 9, 62, 0
12, 11460, Note_on_c, 9, 61, 100
12, 11490, Note_on_c, 9, 62, 0
12, 11490, Note_on_c, 9, 61, 100
12, 11520, Note_on_c, 9, 61, 0
12, 11520, Note_on_c, 9, 62, 100
12, 11580, Note_on_c, 9, 61, 0
12, 11610, Note_on_c, 9, 61, 0
12, 11640, Note_on_c, 9, 62, 0
12, 11640, Note_on_c, 9, 62, 100
12, 11700, Note_on_c, 9, 62, 100
12, 11730, Note_on_c, 9, 62, 100
12, 11760, Note_on_c, 9, 62, 0
12, 11760, Note_on_c, 9, 62, 100
12, 11820, Note_on_c, 9, 62, 0
12, 11820, Note_on_c, 9, 62, 100
12, 11850, Note_on_c, 9, 62, 0
12, 11880, Note_on_c, 9, 62, 0
12, 11880, Note_on_c, 9, 61, 100
12, 11940, Note_on_c, 9, 62, 0
12, 11940, Note_on_c, 9, 61, 100
12, 12000, Note_on_c, 9, 61, 0
12, 12000, Note_on_c, 9, 62, 100
12, 12060, Note_on_c, 9, 61, 0
12, 12120, Note_on_c, 9, 62, 0
12, 12120, Note_on_c, 9, 62, 100
12, 12180, Note_on_c, 9, 62, 100
12, 12210, Note_on_c, 9, 62, 100
12, 12240, Note_on_c, 9, 62, 0
12, 12240, Note_on_c, 9, 62, 100
12, 12270, Note_on_c, 9, 62, 100
12, 12300, Note_on_c, 9, 62, 0
12, 12300, Note_on_c, 9, 62, 100
12, 12330, Note_on_c, 9, 62, 0
12, 12330, Note_on_c, 9, 62, 100
12, 12360, Note_on_c, 9, 62, 0
12, 12360, Note_on_c, 9, 61, 100
12, 12390, Note_on_c, 9, 62, 0
12, 12420, Note_on_c, 9, 62, 0
12, 12420, Note_on_c, 9, 61, 100
12, 12450, Note_on_c, 9, 62, 0
12, 12450, Note_on_c, 9, 61, 100
12, 12480, Note_on_c, 9, 61, 0
12, 12480, Note_on_c, 9, 62, 100
12, 12540, Note_on_c, 9, 61, 0
12, 12570, Note_on_c, 9, 61, 0
12, 12600, Note_on_c, 9, 62, 0
12, 12600, Note_on_c, 9, 62, 100
12, 12660, Note_on_c, 9, 62, 100
12, 12690, Note_on_c, 9, 62, 100
12, 12720, Note_on_c, 9, 62, 0
12, 12720, Note_on_c, 9, 62, 100
12, 12780, Note_on_c, 9, 62, 0
12, 12780, Note_on_c, 9, 62, 100
12, 12810, Note_on_c, 9, 62, 0
12, 12840, Note_on_c, 9, 62, 0
12, 12840, Note_on_c, 9, 61, 100
12, 12900, Note_on_c, 9, 62, 0
12, 12900, Note_on_c, 9, 61, 100
12, 12960, Note_on_c, 9, 61, 0
12, 12960, Note_on_c, 9, 62, 100
12, 13020, Note_on_c, 9, 61, 0
12, 13080, Note_on_c, 9, 62, 0
12, 13080, Note_on_c, 9, 62, 100
12, 13140, Note_on_c, 9, 62, 100
12, 13170, Note_on_c, 9, 62, 100
12, 13200, Note_on_c, 9, 62, 0
12, 13200, Note_on_c, 9, 62, 100
12, 13230, Note_on_c, 9, 62, 100
12, 13260, Note_on_c, 9, 62, 0
12, 13260, Note_on_c, 9, 62, 100
12, 13290, Note_on_c, 9, 62, 0
12, 13290, Note_on_c, 9, 62, 100
12, 13320, Note_on_c, 9, 62, 0
12, 13320, Note_on_c, 9, 61, 100
12, 13350, Note_on_c, 9, 62, 0
12, 13380, Note_on_c, 9, 62, 0
12, 13380, Note_on_c, 9, 61, 100
12, 13410, Note_on_c, 9, 62, 0
12, 13410, Note_on_c, 9, 61, 100
12, 13440, Note_on_c, 9, 61, 0
12, 13440, Note_on_c, 9, 62, 100
12, 13500, Note_on_c, 9, 61, 0
12, 13530, Note_on_c, 9, 61, 0
12, 13560, Note_on_c, 9, 62, 0
12, 13560, Note_on_c, 9, 62, 100
12, 13620, Note_on_c, 9, 62, 100
12, 13650, Note_on_c, 9, 62, 100
12, 13680, Note_on_c, 9, 62, 0
12, 13680, Note_on_c, 9, 62, 100
12, 13740, Note_on_c, 9, 62, 0
12, 13740, Note_on_c, 9, 62, 100
12, 13770, Note_on_c, 9, 62, 0
12, 13800, Note_on_c, 9, 62, 0
12, 13800, Note_on_c, 9, 61, 100
12, 13860, Note_on_c, 9, 62, 0
12, 13860, Note_on_c, 9, 61, 100
12, 13920, Note_on_c, 9, 61, 0
12, 13920, Note_on_c, 9, 62, 100
12, 13980, Note_on_c, 9, 61, 0
12, 14040, Note_on_c, 9, 62, 0
12, 14040, Note_on_c, 9, 62, 100
12, 14100, Note_on_c, 9, 62, 100
12, 14130, Note_on_c, 9, 62, 100
12, 14160, Note_on_c, 9, 62, 0
12, 14160, Note_on_c, 9, 62, 100
12, 14190, Note_on_c, 9, 62, 100
12, 14220, Note_on_c, 9, 62, 0
12, 14220, Note_on_c, 9, 62, 100
12, 14250, Note_on_c, 9, 62, 0
12, 14250, Note_on_c, 9, 62, 100
12, 14280, Note_on_c, 9, 62, 0
12, 14280, Note_on_c, 9, 61, 100
12, 14310, Note_on_c, 9, 62, 0
12, 14340, Note_on_c, 9, 62, 0
12, 14340, Note_on_c, 9, 61, 100
12, 14370, Note_on_c, 9, 62, 0
12, 14370, Note_on_c, 9, 61, 100
12, 14400, Note_on_c, 9, 61, 0
12, 14400, Note_on_c, 9, 62, 100
12, 14460, Note_on_c, 9, 61, 0
12, 14490, Note_on_c, 9, 61, 0
12, 14520, Note_on_c, 9, 62, 0
12, 14520, Note_on_c, 9, 62, 100
12, 14580, Note_on_c, 9, 62, 100
12, 14610, Note_on_c, 9, 62, 100
12, 14640, Note_on_c, 9, 62, 0
12, 14640, Note_on_c, 9, 62, 100
12, 14700, Note_on_c, 9, 62, 0
12, 14700, Note_on_c, 9, 62, 100
12, 14730, Note_on_c, 9, 62, 0
12, 14760, Note_on_c, 9, 62, 0
12, 14760, Note_on_c, 9, 61, 100
12, 14820, Note_on_c, 9, 62, 0
12, 14820, Note_on_c, 9, 61, 100
12, 14880, Note_on_c, 9, 61, 0
12, 14880, Note_on_c, 9, 62, 100
12, 14940, Note_on_c, 9, 61, 0
12, 15000, Note_on_c, 9, 62, 0
12, 15000, Note_on_c, 9, 62, 100
12, 15060, Note_on_c, 9, 62, 100
12, 15090, Note_on_c, 9, 62, 100
12, 15120, Note_on_c, 9, 62, 0
12, 15120, Note_on_c, 9, 62, 100
12, 15150, Note_on_c, 9, 62, 100
12, 15180, Note_on_c, 9, 62, 0
12, 15180, Note_on_c, 9, 62, 100
12, 15210, Note_on_c, 9, 62, 0
12, 15210, Note_on_c, 9, 62, 100
12, 15240, Note_on_c, 9, 62, 0
12, 15240, Note_on_c, 9, 61, 100
12, 15270, Note_on_c, 9, 62, 0
12, 15300, Note_on_c, 9, 62, 0
12, 15300, Note_on_c, 9, 61, 100
12, 15330, Note_on_c, 9, 62, 0
12, 15330, Note_on_c, 9, 61, 100
12, 15360, Note_on_c, 9, 61, 0
12, 15360, Note_on_c, 9, 62, 100
12, 15420, Note_on_c, 9, 61, 0
12, 15450, Note_on_c, 9, 61, 0
12, 15480, Note_on_c, 9, 62, 0
12, 15480, Note_on_c, 9, 62, 100
12, 15540, Note_on_c, 9, 62, 100
12, 15570, Note_on_c, 9, 62, 100
12, 15600, Note_on_c, 9, 62, 0
12, 15600, Note_on_c, 9, 62, 100
12, 15660, Note_on_c, 9, 62, 0
12, 15660, Note_on_c, 9, 62, 100
12, 15690, Note_on_c, 9, 62, 0
12, 15720, Note_on_c, 9, 62, 0
12, 15720, Note_on_c, 9, 61, 100
12, 15780, Note_on_c, 9, 62, 0
12, 15780, Note_on_c, 9, 61, 100
12, 15840, Note_on_c, 9, 61, 0
12, 15840, Note_on_c, 9, 62, 100
12, 15900, Note_on_c, 9, 61, 0
12, 15960, Note_on_c, 9, 62, 0
12, 15960, Note_on_c, 9, 62, 100
12, 16020, Note_on_c, 9, 62, 100
12, 16050, Note_on_c, 9, 62, 100
12, 16080, Note_on_c, 9, 62, 0
12, 16080, Note_on_c, 9, 62, 100
12, 16110, Note_on_c, 9, 62, 100
12, 16140, Note_on_c, 9, 62, 0
12, 16140, Note_on_c, 9, 62, 100
12, 16170, Note_on_c, 9, 62, 0
12, 16170, Note_on_c, 9, 62, 100
12, 16200, Note_on_c, 9, 62, 0
12, 16200, Note_on_c, 9, 61, 100
12, 16230, Note_on_c, 9, 62, 0
12, 16260, Note_on_c, 9, 62, 0
12, 16260, Note_on_c, 9, 61, 100
12, 16290, Note_on_c, 9, 62, 0
12, 16290, Note_on_c, 9, 61, 100
12, 16320, Note_on_c, 9, 61, 0
12, 16320, Note_on_c, 9, 62, 100
12, 16380, Note_on_c, 9, 61, 0
12, 16410, Note_on_c, 9, 61, 0
12, 16440, Note_on_c, 9, 62, 0
12, 16440, Note_on_c, 9, 62, 100
12, 16500, Note_on_c, 9, 62, 100
12, 16530, Note_on_c, 9, 62, 100
12, 16560, Note_on_c, 9, 62, 0
12, 16560, Note_on_c, 9, 62, 100
12, 16620, Note_on_c, 9, 62, 0
12, 16620, Note_on_c, 9, 62, 100
12, 16650, Note_on_c, 9, 62, 0
12, 16680, Note_on_c, 9, 62, 0
12, 16680, Note_on_c, 9, 61, 100
12, 16740, Note_on_c, 9, 62, 0
12, 16740, Note_on_c, 9, 61, 100
12, 16800, Note_on_c, 9, 61, 0
12, 16800, Note_on_c, 9, 62, 100
12, 16860, Note_on_c, 9, 61, 0
12, 16920, Note_on_c, 9, 62, 0
12, 16920, Note_on_c, 9, 62, 100
12, 16980, Note_on_c, 9, 62, 100
12, 17010, Note_on_c, 9, 62, 100
12, 17040, Note_on_c, 9, 62, 0
12, 17040, Note_on_c, 9, 62, 100
12, 17070, Note_on_c, 9, 62, 100
12, 17100, Note_on_c, 9, 62, 0
12, 17100, Note_on_c, 9, 62, 100
12, 17130, Note_on_c, 9, 62, 0
12, 17130, Note_on_c, 9, 62, 100
12, 17160, Note_on_c, 9, 62, 0
12, 17160, Note_on_c, 9, 61, 100
12, 17190, Note_on_c, 9, 62, 0
12, 17220, Note_on_c, 9, 62, 0
12, 17220, Note_on_c, 9, 61, 100
12, 17250, Note_on_c, 9, 62, 0
12, 17250, Note_on_c, 9, 61, 100
12, 17280, Note_on_c, 9, 61, 0
12, 17280, Note_on_c, 9, 62, 100
12, 17340, Note_on_c, 9, 61, 0
12, 17370, Note_on_c, 9, 61, 0
12, 17400, Note_on_c, 9, 62, 0
12, 17400, Note_on_c, 9, 62, 100
12, 17460, Note_on_c, 9, 62, 100
12, 17490, Note_on_c, 9, 62, 100
12, 17520, Note_on_c, 9, 62, 0
12, 17520, Note_on_c, 9, 62, 100
12, 17580, Note_on_c, 9, 62, 0
12, 17580, Note_on_c, 9, 62, 100
12, 17610, Note_on_c, 9, 62, 0
12, 17640, Note_on_c, 9, 62, 0
12, 17640, Note_on_c, 9, 61, 100
12, 17700, Note_on_c, 9, 62, 0
12, 17700, Note_on_c, 9, 61, 100
12, 17760, Note_on_c, 9, 61, 0
12, 17760, Note_on_c, 9, 62, 100
12, 17820, Note_on_c, 9, 61, 0
12, 17880, Note_on_c, 9, 62, 0
12, 17880, Note_on_c, 9, 62, 100
12, 17940, Note_on_c, 9, 62, 100
12, 17970, Note_on_c, 9, 62, 100
12, 18000, Note_on_c, 9, 62, 0
12, 18000, Note_on_c, 9, 62, 100
12, 18030, Note_on_c, 9, 62, 100
12, 18060, Note_on_c, 9, 62, 0
12, 18060, Note_on_c, 9, 62, 100
12, 18090, Note_on_c, 9, 62, 0
12, 18090, Note_on_c, 9, 62, 100
12, 18120, Note_on_c, 9, 62, 0
12, 18120, Note_on_c, 9, 61, 100
12, 18150, Note_on_c, 9, 62, 0
12, 18180, Note_on_c, 9, 62, 0
12, 18180, Note_on_c, 9, 61, 100
12, 18210, Note_on_c, 9, 62, 0
12, 18210, Note_on_c, 9, 61, 100
12, 18240, Note_on_c, 9, 61, 0
12, 18240, Note_on_c, 9, 62, 100
12, 18300, Note_on_c, 9, 61, 0
12, 18330, Note_on_c, 9, 61, 0
12, 18360, Note_on_c, 9, 62, 0
12, 18360, Note_on_c, 9, 62, 100
12, 18420, Note_on_c, 9, 62, 100
12, 18450, Note_on_c, 9, 62, 100
12, 18480, Note_on_c, 9, 62, 0
12, 18480, Note_on_c, 9, 62, 100
12, 18540, Note_on_c, 9, 62, 0
12, 18540, Note_on_c, 9, 62, 100
12, 18570, Note_on_c, 9, 62, 0
12, 18600, Note_on_c, 9, 62, 0
12, 18600, Note_on_c, 9, 61, 100
12, 18660, Note_on_c, 9, 62, 0
12, 18660, Note_on_c, 9, 61, 100
12, 18720, Note_on_c, 9, 61, 0
12, 18720, Note_on_c, 9, 62, 100
12, 18780, Note_on_c, 9, 61, 0
12, 18840, Note_on_c, 9, 62, 0
12, 18840, Note_on_c, 9, 62, 100
12, 18900, Note_on_c, 9, 62, 100
12, 18930, Note_on_c, 9, 62, 100
12, 18960, Note_on_c, 9, 62, 0
12, 18960, Note_on_c, 9, 62, 100
12, 18990, Note_on_c, 9, 62, 100
12, 19020, Note_on_c, 9, 62, 0
12, 19020, Note_on_c, 9, 62, 100
12, 19050, Note_on_c, 9, 62, 0
12, 19050, Note_on_c, 9, 62, 100
12, 19080, Note_on_c, 9, 62, 0
12, 19080, Note_on_c, 9, 61, 100
12, 19110, Note_on_c, 9, 62, 0
12, 19140, Note_on_c, 9, 62, 0
12, 19140, Note_on_c, 9, 61, 100
12, 19170, Note_on_c, 9, 62, 0
12, 19170, Note_on_c, 9, 61, 100
12, 19200, Note_on_c, 9, 61, 0
12, 19200, Note_on_c, 9, 62, 100
12, 19260, Note_on_c, 9, 61, 0
12, 19290, Note_on_c, 9, 61, 0
12, 19320, Note_on_c, 9, 62, 0
12, 19320, Note_on_c, 9, 62, 100
12, 19380, Note_on_c, 9, 62, 100
12, 19410, Note_on_c, 9, 62, 100
12, 19440, Note_on_c, 9, 62, 0
12, 19440, Note_on_c, 9, 62, 100
12, 19500, Note_on_c, 9, 62, 0
12, 19500, Note_on_c, 9, 62, 100
12, 19530, Note_on_c, 9, 62, 0
12, 19560, Note_on_c, 9, 62, 0
12, 19560, Note_on_c, 9, 61, 100
12, 19620, Note_on_c, 9, 62, 0
12, 19620, Note_on_c, 9, 61, 100
12, 19680, Note_on_c, 9, 61, 0
12, 19680, Note_on_c, 9, 62, 100
12, 19740, Note_on_c, 9, 61, 0
12, 19800, Note_on_c, 9, 62, 0
12, 19800, Note_on_c, 9, 62, 100
12, 19860, Note_on_c, 9, 62, 100
12, 19890, Note_on_c, 9, 62, 100
12, 19920, Note_on_c, 9, 62, 0
12, 19920, Note_on_c, 9, 62, 100
12, 19950, Note_on_c, 9, 62, 100
12, 19980, Note_on_c, 9, 62, 0
12, 19980, Note_on_c, 9, 62, 100
12, 20010, Note_on_c, 9, 62, 0
12, 20010, Note_on_c, 9, 62, 100
12, 20040, Note_on_c, 9, 62, 0
12, 20040, Note_on_c, 9, 61, 100
12, 20070, Note_on_c, 9, 62, 0
12, 20100, Note_on_c, 9, 62, 0
12, 20100, Note_on_c, 9, 61, 100
12, 20130, Note_on_c, 9, 62, 0
12, 20130, Note_on_c, 9, 61, 100
12, 20160, Note_on_c, 9, 61, 0
12, 20160, Note_on_c, 9, 62, 100
12, 20220, Note_on_c, 9, 61, 0
12, 20250, Note_on_c, 9, 61, 0
12, 20280, Note_on_c, 9, 62, 0
12, 20280, Note_on_c, 9, 62, 100
12, 20340, Note_on_c, 9, 62, 100
12, 20370, Note_on_c, 9, 62, 100
12, 20400, Note_on_c, 9, 62, 0
12, 20400, Note_on_c, 9, 62, 100
12, 20460, Note_on_c, 9, 62, 0
12, 20460, Note_on_c, 9, 62, 100
12, 20490, Note_on_c, 9, 62, 0
12, 20520, Note_on_c, 9, 62, 0
12, 20520, Note_on_c, 9, 61, 100
12, 20580, Note_on_c, 9, 62, 0
12, 20580, Note_on_c, 9, 61, 100
12, 20640, Note_on_c, 9, 61, 0
12, 20640, Note_on_c, 9, 62, 100
12, 20700, Note_on_c, 9, 61, 0
12, 20760, Note_on_c, 9, 62, 0
12, 20760, Note_on_c, 9, 62, 100
12, 20820, Note_on_c, 9, 62, 100
12, 20850, Note_on_c, 9, 62, 100
12, 20880, Note_on_c, 9, 62, 0
12, 20880, Note_on_c, 9, 62, 100
12, 20910, Note_on_c, 9, 62, 100
12, 20940, Note_on_c, 9, 62, 0
12, 20940, Note_on_c, 9, 62, 100
12, 20970, Note_on_c, 9, 62, 0
12, 20970, Note_on_c, 9, 62, 100
12, 21000, Note_on_c, 9, 62, 0
12, 21000, Note_on_c, 9, 61, 100
12, 21030, Note_on_c, 9, 62, 0
12, 21060, Note_on_c, 9, 62, 0
12, 21060, Note_on_c, 9, 61, 100
12, 21090, Note_on_c, 9, 62, 0
12, 21090, Note_on_c, 9, 61, 100
12, 21120, Note_on_c, 9, 61, 0
12, 21120, Note_on_c, 9, 62, 100
12, 21180, Note_on_c, 9, 61, 0
12, 21210, Note_on_c, 9, 61, 0
12, 21240, Note_on_c, 9, 62, 0
12, 21240, Note_on_c, 9, 62, 100
12, 21300, Note_on_c, 9, 62, 100
12, 21330, Note_on_c, 9, 62, 100
12, 21360, Note_on_c, 9, 62, 0
12, 21360, Note_on_c, 9, 62, 100
12, 21420, Note_on_c, 9, 62, 0
12, 21420, Note_on_c, 9, 62, 100
12, 21450, Note_on_c, 9, 62, 0
12, 21480, Note_on_c, 9, 62, 0
12, 21480, Note_on_c, 9, 61, 100
12, 21540, Note_on_c, 9, 62, 0
12, 21540, Note_on_c, 9, 61, 100
12, 21600, Note_on_c, 9, 61, 0
12, 21600, Note_on_c, 9, 62, 100
12, 21660, Note_on_c, 9, 61, 0
12, 21720, Note_on_c, 9, 62, 0
12, 21720, Note_on_c, 9, 62, 100
12, 21780, Note_on_c, 9, 62, 100
12, 21810, Note_on_c, 9, 62, 100
12, 21840, Note_on_c, 9, 62, 0
12, 21840, Note_on_c, 9, 62, 100
12, 21870, Note_on_c, 9, 62, 100
12, 21900, Note_on_c, 9, 62, 0
12, 21900, Note_on_c, 9, 62, 100
12, 21930, Note_on_c, 9, 62, 0
12, 21930, Note_on_c, 9, 62, 100
12, 21960, Note_on_c, 9, 62, 0
12, 21960, Note_on_c, 9, 61, 100
12, 21990, Note_on_c, 9, 62, 0
12, 22020, Note_on_c, 9, 62, 0
12, 22020, Note_on_c, 9, 61, 100
12, 22050, Note_on_c, 9, 62, 0
12, 22050, Note_on_c, 9, 61, 100
12, 22080, Note_on_c, 9, 61, 0
12, 22080, Note_on_c, 9, 62, 100
12, 22140, Note_on_c, 9, 61, 0
12, 22170, Note_on_c, 9, 61, 0
12, 22200, Note_on_c, 9, 62, 0
12, 22200, Note_on_c, 9, 62, 100
12, 22260, Note_on_c, 9, 62, 100
12, 22290, Note_on_c, 9, 62, 100
12, 22320, Note_on_c, 9, 62, 0
12, 22320, Note_on_c, 9, 62, 100
12, 22380, Note_on_c, 9, 62, 0
12, 22380, Note_on_c, 9, 62, 100
12, 22410, Note_on_c, 9, 62, 0
12, 22440, Note_on_c, 9, 62, 0
12, 22440, Note_on_c, 9, 61, 100
12, 22500, Note_on_c, 9, 62, 0
12, 22500, Note_on_c, 9, 61, 100
12, 22560, Note_on_c, 9, 61, 0
12, 22560, Note_on_c, 9, 62, 100
12, 22620, Note_on_c, 9, 61, 0
12, 22680, Note_on_c, 9, 62, 0
12, 22680, Note_on_c, 9, 62, 100
12, 22740, Note_on_c, 9, 62, 100
12, 22770, Note_on_c, 9, 62, 100
12, 22800, Note_on_c, 9, 62, 0
12, 22800, Note_on_c, 9, 62, 100
12, 22830, Note_on_c, 9, 62, 100
12, 22860, Note_on_c, 9, 62, 0
12, 22860, Note_on_c, 9, 62, 100
12, 22890, Note_on_c, 9, 62, 0
12, 22890, Note_on_c, 9, 62, 100
12, 22920, Note_on_c, 9, 62, 0
12, 22920, Note_on_c, 9, 61, 100
12, 22950, Note_on_c, 9, 62, 0
12, 22980, Note_on_c, 9, 62, 0
12, 22980, Note_on_c, 9, 61, 100
12, 23010, Note_on_c, 9, 62, 0
12, 23010, Note_on_c, 9, 61, 100
12, 23040, Note_on_c, 9, 61, 0
12, 23040, Note_on_c, 9, 62, 100
12, 23100, Note_on_c, 9, 61, 0
12, 23130, Note_on_c, 9, 61, 0
12, 23160, Note_on_c, 9, 62, 0
12, 23160, Note_on_c, 9, 62, 100
12, 23220, Note_on_c, 9, 62, 100
12, 23250, Note_on_c, 9, 62, 100
12, 23280, Note_on_c, 9, 62, 0
12, 23280, Note_on_c, 9, 62, 100
12, 23340, Note_on_c, 9, 62, 0
12, 23340, Note_on_c, 9, 62, 100
12, 23370, Note_on_c, 9, 62, 0
12, 23400, Note_on_c, 9, 62, 0
12, 23400, Note_on_c, 9, 61, 100
12, 23460, Note_on_c, 9, 62, 0
12, 23460, Note_on_c, 9, 61, 100
12, 23520, Note_on_c, 9, 61, 0
12, 23520, Note_on_c, 9, 62, 100
12, 23580, Note_on_c, 9, 61, 0
12, 23640, Note_on_c, 9, 62, 0
12, 23640, Note_on_c, 9, 62, 100
12, 23700, Note_on_c, 9, 62, 100
12, 23730, Note_on_c, 9, 62, 100
12, 23760, Note_on_c, 9, 62, 0
12, 23760, Note_on_c, 9, 62, 100
12, 23790, Note_on_c, 9, 62, 100
12, 23820, Note_on_c, 9, 62, 0
12, 23820, Note_on_c, 9, 62, 100
12, 23850, Note_on_c, 9, 62, 0
12, 23850, Note_on_c, 9, 62, 100
12, 23880, Note_on_c, 9, 62, 0
12, 23880, Note_on_c, 9, 61, 100
12, 23910, Note_on_c, 9, 62, 0
12, 23940, Note_on_c, 9, 62, 0
12, 23940, Note_on_c, 9, 61, 100
12, 23970, Note_on_c, 9, 62, 0
12, 23970, Note_on_c, 9, 61, 100
12, 24000, Note_on_c, 9, 61, 0
12, 24000, Note_on_c, 9, 62, 100
12, 24060, Note_on_c, 9, 61, 0
12, 24090, Note_on_c, 9, 61, 0
12, 24120, Note_on_c, 9, 62, 0
12, 24120, Note_on_c, 9, 62, 100
12, 24180, Note_on_c, 9, 62, 100
12, 24210, Note_on_c, 9, 62, 100
12, 24240, Note_on_c, 9, 62, 0
12, 24240, Note_on_c, 9, 62, 100
12, 24300, Note_on_c, 9, 62, 0
12, 24300, Note_on_c, 9, 62, 100
12, 24330, Note_on_c, 9, 62, 0
12, 24360, Note_on_c, 9, 62, 0
12, 24360, Note_on_c, 9, 61, 100
12, 24420, Note_on_c, 9, 62, 0
12, 24420, Note_on_c, 9, 61, 100
12, 24480, Note_on_c, 9, 61, 0
12, 24540, Note_on_c, 9, 61, 0
12, 24720, Note_on_c, 9, 61, 100
12, 24750, Note_on_c, 9, 61, 100
12, 24780, Note_on_c, 9, 61, 100
12, 24810, Note_on_c, 9, 61, 100
12, 24840, Note_on_c, 9, 61, 0
12, 24840, Note_on_c, 9, 61, 100
12, 24870, Note_on_c, 9, 61, 0
12, 24870, Note_on_c, 9, 62, 100
12, 24900, Note_on_c, 9, 61, 0
12, 24900, Note_on_c, 9, 61, 100
12, 24930, Note_on_c, 9, 61, 0
12, 24960, Note_on_c, 9, 61, 0
12, 24960, Note_on_c, 9, 62, 100
12, 24990, Note_on_c, 9, 62, 0
12, 25020, Note_on_c, 9, 61, 0
12, 25080, Note_on_c, 9, 62, 0
12, 25080, Note_on_c, 9, 62, 100
12, 25140, Note_on_c, 9, 62, 100
12, 25170, Note_on_c, 9, 62, 100
12, 25200, Note_on_c, 9, 62, 0
12, 25200, Note_on_c, 9, 62, 100
12, 25260, Note_on_c, 9, 62, 0
12, 25260, Note_on_c, 9, 62, 100
12, 25290, Note_on_c, 9, 62, 0
12, 25320, Note_on_c, 9, 62, 0
12, 25320, Note_on_c, 9, 61, 100
12, 25380, Note_on_c, 9, 62, 0
12, 25380, Note_on_c, 9, 61, 100
12, 25440, Note_on_c, 9, 61, 0
12, 25440, Note_on_c, 9, 62, 100
12, 25500, Note_on_c, 9, 61, 0
12, 25560, Note_on_c, 9, 62, 0
12, 25560, Note_on_c, 9, 62, 100
12, 25620, Note_on_c, 9, 62, 100
12, 25650, Note_on_c, 9, 62, 100
12, 25680, Note_on_c, 9, 62, 0
12, 25680, Note_on_c, 9, 62, 100
12, 25710, Note_on_c, 9, 62, 100
12, 25740, Note_on_c, 9, 62, 0
12, 25740, Note_on_c, 9, 62, 100
12, 25770, Note_on_c, 9, 62, 0
12, 25770, Note_on_c, 9, 62, 100
12, 25800, Note_on_c, 9, 62, 0
12, 25800, Note_on_c, 9, 61, 100
12, 25830, Note_on_c, 9, 62, 0
12, 25860, Note_on_c, 9, 62, 0
12, 25860, Note_on_c, 9, 61, 100
12, 25890, Note_on_c, 9, 62, 0
12, 25890, Note_on_c, 9, 61, 100
12, 25920, Note_on_c, 9, 61, 0
12, 25920, Note_on_c, 9, 62, 100
12, 25980, Note_on_c, 9, 61, 0
12, 26010, Note_on_c, 9, 61, 0
12, 26040, Note_on_c, 9, 62, 0
12, 26040, Note_on_c, 9, 62, 100
12, 26100, Note_on_c, 9, 62, 100
12, 26130, Note_on_c, 9, 62, 100
12, 26160, Note_on_c, 9, 62, 0
12, 26160, Note_on_c, 9, 62, 100
12, 26220, Note_on_c, 9, 62, 0
12, 26220, Note_on_c, 9, 62, 100
12, 26250, Note_on_c, 9, 62, 0
12, 26280, Note_on_c, 9, 62, 0
12, 26280, Note_on_c, 9, 61, 100
12, 26340, Note_on_c, 9, 62, 0
12, 26340, Note_on_c, 9, 61, 100
12, 26400, Note_on_c, 9, 61, 0
12, 26400, Note_on_c, 9, 62, 100
12, 26460, Note_on_c, 9, 61, 0
12, 26520, Note_on_c, 9, 62, 0
12, 26520, Note_on_c, 9, 62, 100
12, 26580, Note_on_c, 9, 62, 100
12, 26610, Note_on_c, 9, 62, 100
12, 26640, Note_on_c, 9, 62, 0
12, 26640, Note_on_c, 9, 62, 100
12, 26670, Note_on_c, 9, 62, 100
12, 26700, Note_on_c, 9, 62, 0
12, 26700, Note_on_c, 9, 62, 100
12, 26730, Note_on_c, 9, 62, 0
12, 26730, Note_on_c, 9, 62, 100
12, 26760, Note_on_c, 9, 62, 0
12, 26760, Note_on_c, 9, 61, 100
12, 26790, Note_on_c, 9, 62, 0
12, 26820, Note_on_c, 9, 62, 0
12, 26820, Note_on_c, 9, 61, 100
12, 26850, Note_on_c, 9, 62, 0
12, 26850, Note_on_c, 9, 61, 100
12, 26880, Note_on_c, 9, 61, 0
12, 26880, Note_on_c, 9, 62, 100
12, 26940, Note_on_c, 9, 61, 0
12, 26970, Note_on_c, 9, 61, 0
12, 27000, Note_on_c, 9, 62, 0
12, 27000, Note_on_c, 9, 62, 100
12, 27060, Note_on_c, 9, 62, 100
12, 27090, Note_on_c, 9, 62, 100
12, 27120, Note_on_c, 9, 62, 0
12, 27120, Note_on_c, 9, 60, 100
12, 27150, Note_on_c, 9, 60, 100
12, 27180, Note_on_c, 9, 62, 0
12, 27210, Note_on_c, 9, 62, 0
12, 27210, Note_on_c, 9, 60, 100
12, 27240, Note_on_c, 9, 60, 0
12, 27240, Note_on_c, 9, 61, 100
12, 27270, Note_on_c, 9, 60, 0
12, 27300, Note_on_c, 9, 61, 100
12, 27330, Note_on_c, 9, 60, 0
12, 27360, Note_on_c, 9, 61, 0
12, 27360, Note_on_c, 9, 62, 100
12, 27420, Note_on_c, 9, 61, 0
12, 27480, Note_on_c, 9, 62, 0
12, 27480, Note_on_c, 9, 62, 100
12, 27540, Note_on_c, 9, 62, 100
12, 27570, Note_on_c, 9, 62, 100
12, 27600, Note_on_c, 9, 62, 0
12, 27600, Note_on_c, 9, 62, 100
12, 27630, Note_on_c, 9, 62, 100
12, 27660, Note_on_c, 9, 62, 0
12, 27660, Note_on_c, 9, 62, 100
12, 27690, Note_on_c, 9, 62, 0
12, 27690, Note_on_c, 9, 62, 100
12, 27720, Note_on_c, 9, 62, 0
12, 27720, Note_on_c, 9, 61, 100
12, 27750, Note_on_c, 9, 62, 0
12, 27780, Note_on_c, 9, 62, 0
12, 27780, Note_on_c, 9, 61, 100
12, 27810, Note_on_c, 9, 62, 0
12, 27810, Note_on_c, 9, 61, 100
12, 27840, Note_on_c, 9, 61, 0
12, 27840, Note_on_c, 9, 62, 100
12, 27900, Note_on_c, 9, 61, 0
12, 27930, Note_on_c, 9, 61, 0
12, 27960, Note_on_c, 9, 62, 0
12, 27960, Note_on_c, 9, 62, 100
12, 28020, Note_on_c, 9, 62, 100
12, 28050, Note_on_c, 9, 62, 100
12, 28080, Note_on_c, 9, 62, 0
12, 28080, Note_on_c, 9, 62, 100
12, 28140, Note_on_c, 9, 62, 0
12, 28140, Note_on_c, 9, 62, 100
12, 28170, Note_on_c, 9, 62, 0
12, 28200, Note_on_c, 9, 62, 0
12, 28200, Note_on_c, 9, 61, 100
12, 28260, Note_on_c, 9, 62, 0
12, 28260, Note_on_c, 9, 61, 100
12, 28320, Note_on_c, 9, 61, 0
12, 28380, Note_on_c, 9, 61, 0
12, 28560, Note_on_c, 9, 61, 120
12, 28650, Note_on_c, 9, 61, 0
12, 28650, Note_on_c, 9, 61, 120
12, 28705, Note_on_c, 9, 61, 0
12, 28710, Note_on_c, 9, 61, 120
12, 28735, Note_on_c, 9, 61, 0
12, 28740, Note_on_c, 9, 61, 120
12, 28795, Note_on_c, 9, 61, 0
12, 28800, Note_on_c, 9, 62, 100
12, 28920, Note_on_c, 9, 62, 0
12, 28920, Note_on_c, 9, 62, 100
12, 28980, Note_on_c, 9, 62, 100
12, 29010, Note_on_c, 9, 62, 100
12, 29040, Note_on_c, 9, 62, 0
12, 29040, Note_on_c, 9, 62, 100
12, 29100, Note_on_c, 9, 62, 0
12, 29100, Note_on_c, 9, 62, 100
12, 29130, Note_on_c, 9, 62, 0
12, 29160, Note_on_c, 9, 62, 0
12, 29160, Note_on_c, 9, 61, 100
12, 29220, Note_on_c, 9, 62, 0
12, 29220, Note_on_c, 9, 61, 100
12, 29280, Note_on_c, 9, 61, 0
12, 29280, Note_on_c, 9, 62, 100
12, 29340, Note_on_c, 9, 61, 0
12, 29400, Note_on_c, 9, 62, 0
12, 29400, Note_on_c, 9, 62, 100
12, 29460, Note_on_c, 9, 62, 100
12, 29490, Note_on_c, 9, 62, 100
12, 29520, Note_on_c, 9, 62, 0
12, 29520, Note_on_c, 9, 62, 100
12, 29550, Note_on_c, 9, 62, 100
12, 29580, Note_on_c, 9, 62, 0
12, 29580, Note_on_c, 9, 62, 100
12, 29610, Note_on_c, 9, 62, 0
12, 29610, Note_on_c, 9, 62, 100
12, 29640, Note_on_c, 9, 62, 0
12, 29640, Note_on_c, 9, 61, 100
12, 29670, Note_on_c, 9, 62, 0
12, 29700, Note_on_c, 9, 62, 0
12, 29700, Note_on_c, 9, 61, 100
12, 29730, Note_on_c, 9, 62, 0
12, 29730, Note_on_c, 9, 61, 100
12, 29760, Note_on_c, 9, 61, 0
12, 29760, Note_on_c, 9, 62, 100
12, 29820, Note_on_c, 9, 61, 0
12, 29850, Note_on_c, 9, 61, 0
12, 29880, Note_on_c, 9, 62, 0
12, 29880, Note_on_c, 9, 62, 100
12, 29940, Note_on_c, 9, 62, 100
12, 29970, Note_on_c, 9, 62, 100
12, 30000, Note_on_c, 9, 62, 0
12, 30000, Note_on_c, 9, 62, 100
12, 30060, Note_on_c, 9, 62, 0
12, 30060, Note_on_c, 9, 62, 100
12, 30090, Note_on_c, 9, 62, 0
12, 30120, Note_on_c, 9, 62, 0
12, 30120, Note_on_c, 9, 61, 100
12, 30180, Note_on_c, 9, 62, 0
12, 30180, Note_on_c, 9, 61, 100
12, 30240, Note_on_c, 9, 61, 0
12, 30240, Note_on_c, 9, 62, 100
12, 30300, Note_on_c, 9, 61, 0
12, 30360, Note_on_c, 9, 62, 0
12, 30360, Note_on_c, 9, 62, 100
12, 30420, Note_on_c, 9, 62, 100
12, 30450, Note_on_c, 9, 62, 100
12, 30480, Note_on_c, 9, 62, 0
12, 30480, Note_on_c, 9, 62, 100
12, 30510, Note_on_c, 9, 62, 100
12, 30540, Note_on_c, 9, 62, 0
12, 30540, Note_on_c, 9, 62, 100
12, 30570, Note_on_c, 9, 62, 0
12, 30570, Note_on_c, 9, 62, 100
12, 30600, Note_on_c, 9, 62, 0
12, 30600, Note_on_c, 9, 61, 100
12, 30630, Note_on_c, 9, 62, 0
12, 30660, Note_on_c, 9, 62, 0
12, 30660, Note_on_c, 9, 61, 100
12, 30690, Note_on_c, 9, 62, 0
12, 30690, Note_on_c, 9, 61, 100
12, 30720, Note_on_c, 9, 61, 0
12, 30720, Note_on_c, 9, 62, 100
12, 30780, Note_on_c, 9, 61, 0
12, 30810, Note_on_c, 9, 61, 0
12, 30840, Note_on_c, 9, 62, 0
12, 30840, Note_on_c, 9, 62, 100
12, 30900, Note_on_c, 9, 62, 100
12, 30930, Note_on_c, 9, 62, 100
12, 30960, Note_on_c, 9, 62, 0
12, 30960, Note_on_c, 9, 62, 100
12, 31020, Note_on_c, 9, 62, 0
12, 31020, Note_on_c, 9, 62, 100
12, 31050, Note_on_c, 9, 62, 0
12, 31080, Note_on_c, 9, 62, 0
12, 31080, Note_on_c, 9, 61, 100
12, 31140, Note_on_c, 9, 62, 0
12, 31140, Note_on_c, 9, 61, 100
12, 31200, Note_on_c, 9, 61, 0
12, 31200, Note_on_c, 9, 62, 100
12, 31260, Note_on_c, 9, 61, 0
12, 31320, Note_on_c, 9, 62, 0
12, 31320, Note_on_c, 9, 62, 100
12, 31380, Note_on_c, 9, 62, 100
12, 31410, Note_on_c, 9, 62, 100
12, 31440, Note_on_c, 9, 62, 0
12, 31440, Note_on_c, 9, 62, 100
12, 31470, Note_on_c, 9, 62, 100
12, 31500, Note_on_c, 9, 62, 0
12, 31500, Note_on_c, 9, 62, 100
12, 31530, Note_on_c, 9, 62, 0
12, 31530, Note_on_c, 9, 62, 100
12, 31560, Note_on_c, 9, 62, 0
12, 31560, Note_on_c, 9, 61, 100
12, 31590, Note_on_c, 9, 62, 0
12, 31620, Note_on_c, 9, 62, 0
12, 31620, Note_on_c, 9, 61, 100
12, 31650, Note_on_c, 9, 62, 0
12, 31650, Note_on_c, 9, 61, 100
12, 31680, Note_on_c, 9, 61, 0
12, 31680, Note_on_c, 9, 62, 100
12, 31740, Note_on_c, 9, 61, 0
12, 31770, Note_on_c, 9, 61, 0
12, 31800, Note_on_c, 9, 62, 0
12, 31800, Note_on_c, 9, 62, 100
12, 31860, Note_on_c, 9, 62, 100
12, 31890, Note_on_c, 9, 62, 100
12, 31920, Note_on_c, 9, 62, 0
12, 31920, Note_on_c, 9, 62, 100
12, 31980, Note_on_c, 9, 62, 0
12, 31980, Note_on_c, 9, 62, 100
12, 32010, Note_on_c, 9, 62, 0
12, 32040, Note_on_c, 9, 62, 0
12, 32040, Note_on_c, 9, 61, 100
12, 32100, Note_on_c, 9, 62, 0
12, 32100, Note_on_c, 9, 61, 100
12, 32160, Note_on_c, 9, 61, 0
12, 32220, Note_on_c, 9, 61, 0
12, 32400, Note_on_c, 9, 61, 100
12, 32430, Note_on_c, 9, 61, 100
12, 32460, Note_on_c, 9, 61, 100
12, 32490, Note_on_c, 9, 61, 100
12, 32520, Note_on_c, 9, 61, 0
12, 32520, Note_on_c, 9, 61, 100
12, 32550, Note_on_c, 9, 61, 0
12, 32550, Note_on_c, 9, 62, 100
12, 32580, Note_on_c, 9, 61, 0
12, 32580, Note_on_c, 9, 61, 100
12, 32610, Note_on_c, 9, 61, 0
12, 32640, Note_on_c, 9, 61, 0
12, 32640, Note_on_c, 9, 62, 100
12, 32670, Note_on_c, 9, 62, 0
12, 32700, Note_on_c, 9, 61, 0
12, 32760, Note_on_c, 9, 62, 0
12, 32760, Note_on_c, 9, 62, 100
12, 32820, Note_on_c, 9, 62, 100
12, 32850, Note_on_c, 9, 62, 100
12, 32880, Note_on_c, 9, 62, 0
12, 32880, Note_on_c, 9, 60, 100
12, 32910, Note_on_c, 9, 60, 100
12, 32940, Note_on_c, 9, 62, 0
12, 32970, Note_on_c, 9, 62, 0
12, 32970, Note_on_c, 9, 60, 100
12, 33000, Note_on_c, 9, 60, 0
12, 33000, Note_on_c, 9, 61, 100
12, 33030, Note_on_c, 9, 60, 0
12, 33060, Note_on_c, 9, 61, 100
12, 33090, Note_on_c, 9, 60, 0
12, 33120, Note_on_c, 9, 61, 0
12, 33120, Note_on_c, 9, 62, 100
12, 33180, Note_on_c, 9, 61, 0
12, 33240, Note_on_c, 9, 62, 0
12, 33240, Note_on_c, 9, 62, 100
12, 33300, Note_on_c, 9, 62, 100
12, 33330, Note_on_c, 9, 62, 100
12, 33360, Note_on_c, 9, 62, 0
12, 33360, Note_on_c, 9, 62, 100
12, 33390, Note_on_c, 9, 62, 100
12, 33420, Note_on_c, 9, 62, 0
12, 33420, Note_on_c, 9, 62, 100
12, 33450, Note_on_c, 9, 62, 0
12, 33450, Note_on_c, 9, 62, 100
12, 33480, Note_on_c, 9, 62, 0
12, 33480, Note_on_c, 9, 61, 100
12, 33510, Note_on_c, 9, 62, 0
12, 33540, Note_on_c, 9, 62, 0
12, 33540, Note_on_c, 9, 61, 100
12, 33570, Note_on_c, 9, 62, 0
12, 33570, Note_on_c, 9, 61, 100
12, 33600, Note_on_c, 9, 61, 0
12, 33600, Note_on_c, 9, 62, 100
12, 33660, Note_on_c, 9, 61, 0
12, 33690, Note_on_c, 9, 61, 0
12, 33720, Note_on_c, 9, 62, 0
12, 33720, Note_on_c, 9, 62, 100
12, 33780, Note_on_c, 9, 62, 100
12, 33810, Note_on_c, 9, 62, 100
12, 33840, Note_on_c, 9, 62, 0
12, 33840, Note_on_c, 9, 62, 100
12, 33900, Note_on_c, 9, 62, 0
12, 33900, Note_on_c, 9, 62, 100
12, 33930, Note_on_c, 9, 62, 0
12, 33960, Note_on_c, 9, 62, 0
12, 33960, Note_on_c, 9, 61, 100
12, 34020, Note_on_c, 9, 62, 0
12, 34020, Note_on_c, 9, 61, 100
12, 34080, Note_on_c, 9, 61, 0
12, 34140, Note_on_c, 9, 61, 0
12, 34320, Note_on_c, 9, 61, 120
12, 34410, Note_on_c, 9, 61, 0
12, 34410, Note_on_c, 9, 61, 120
12, 34465, Note_on_c, 9, 61, 0
12, 34470, Note_on_c, 9, 61, 120
12, 34495, Note_on_c, 9, 61, 0
12, 34500, Note_on_c, 9, 61, 120
12, 34555, Note_on_c, 9, 61, 0
12, 34560, Note_on_c, 9, 62, 100
12, 34680, Note_on_c, 9, 62, 0
12, 34680, Note_on_c, 9, 62, 96
12, 34740, Note_on_c, 9, 62, 94
12, 34770, Note_on_c, 9, 62, 93
12, 34800, Note_on_c, 9, 62, 0
12, 34800, Note_on_c, 9, 62, 92
12, 34860, Note_on_c, 9, 62, 0
12, 34860, Note_on_c, 9, 62, 90
12, 34890, Note_on_c, 9, 62, 0
12, 34920, Note_on_c, 9, 62, 0
12, 34920, Note_on_c, 9, 61, 88
12, 34980, Note_on_c, 9, 62, 0
12, 34980, Note_on_c, 9, 61, 86
12, 35040, Note_on_c, 9, 61, 0
12, 35040, Note_on_c, 9, 62, 84
12, 35100, Note_on_c, 9, 61, 0
12, 35160, Note_on_c, 9, 62, 0
12, 35160, Note_on_c, 9, 62, 80
12, 35220, Note_on_c, 9, 62, 78
12, 35250, Note_on_c, 9, 62, 77
12, 35280, Note_on_c, 9, 62, 0
12, 35280, Note_on_c, 9, 62, 75
12, 35310, Note_on_c, 9, 62, 74
12, 35340, Note_on_c, 9, 62, 0
12, 35340, Note_on_c, 9, 62, 73
12, 35370, Note_on_c, 9, 62, 0
12, 35370, Note_on_c, 9, 62, 72
12, 35400, Note_on_c, 9, 62, 0
12, 35400, Note_on_c, 9, 61, 71
12, 35430, Note_on_c, 9, 62, 0
12, 35460, Note_on_c, 9, 62, 0
12, 35460, Note_on_c, 9, 61, 69
12, 35490, Note_on_c, 9, 62, 0
12, 35490, Note_on_c, 9, 61, 68
12, 35520, Note_on_c, 9, 61, 0
12, 35520, Note_on_c, 9, 62, 67
12, 35580, Note_on_c, 9, 61, 0
12, 35610, Note_on_c, 9, 61, 0
12, 35640, Note_on_c, 9, 62, 0
12, 35640, Note_on_c, 9, 62, 63
12, 35700, Note_on_c, 9, 62, 61
12, 35730, Note_on_c, 9, 62, 60
12, 35760, Note_on_c, 9, 62, 0
12, 35760, Note_on_c, 9, 62, 59
12, 35820, Note_on_c, 9, 62, 0
12, 35820, Note_on_c, 9, 62, 57
12, 35850, Note_on_c, 9, 62, 0
12, 35880, Note_on_c, 9, 62, 0
12, 35880, Note_on_c, 9, 61, 55
12, 35940, Note_on_c, 9, 62, 0
12, 35940, Note_on_c, 9, 61, 53
12, 36000, Note_on_c, 9, 61, 0
12, 36000, Note_on_c, 9, 62, 50
12, 36060, Note_on_c, 9, 61, 0
12, 36120, Note_on_c, 9, 62, 0
12, 36120, Note_on_c, 9, 62, 46
12, 36180, Note_on_c, 9, 62, 44
12, 36210, Note_on_c, 9, 62, 43
12, 36240, Note_on_c, 9, 62, 0
12, 36240, Note_on_c, 9, 62, 42
12, 36270, Note_on_c, 9, 62, 41
12, 36300, Note_on_c, 9, 62, 0
12, 36300, Note_on_c, 9, 62, 40
12, 36330, Note_on_c, 9, 62, 0
12, 36330, Note_on_c, 9, 62, 39
12, 36360, Note_on_c, 9, 62, 0
12, 36360, Note_on_c, 9, 61, 38
12, 36390, Note_on_c, 9, 62, 0
12, 36420, Note_on_c, 9, 62, 0
12, 36420, Note_on_c, 9, 61, 36
12, 36450, Note_on_c, 9, 62, 0
12, 36450, Note_on_c, 9, 61, 35
12, 36480, Note_on_c, 9, 61, 0
12, 36480, Note_on_c, 9, 62, 34
12, 36540, Note_on_c, 9, 61, 0
12, 36570, Note_on_c, 9, 61, 0
12, 36600, Note_on_c, 9, 62, 0
12, 36600, Note_on_c, 9, 62, 30
12, 36660, Note_on_c, 9, 62, 28
12, 36690, Note_on_c, 9, 62, 27
12, 36720, Note_on_c, 9, 62, 0
12, 36720, Note_on_c, 9, 62, 25
12, 36780, Note_on_c, 9, 62, 0
12, 36780, Note_on_c, 9, 62, 23
12, 36810, Note_on_c, 9, 62, 0
12, 36840, Note_on_c, 9, 62, 0
12, 36840, Note_on_c, 9, 61, 21
12, 36900, Note_on_c, 9, 62, 0
12, 36900, Note_on_c, 9, 61, 19
12, 36960, Note_on_c, 9, 61, 0
12, 36960, Note_on_c, 9, 62, 17
12, 37020, Note_on_c, 9, 61, 0
12, 37080, Note_on_c, 9, 62, 0
12, 37080, Note_on_c, 9, 62, 13
12, 37140, Note_on_c, 9, 62, 11
12, 37170, Note_on_c, 9, 62, 10
12, 37200, Note_on_c, 9, 62, 0
12, 37200, Note_on_c, 9, 62, 9
12, 37230, Note_on_c, 9, 62, 8
12, 37260, Note_on_c, 9, 62, 0
12, 37260, Note_on_c, 9, 62, 7
12, 37290, Note_on_c, 9, 62, 0
12, 37290, Note_on_c, 9, 62, 6
12, 37320, Note_on_c, 9, 62, 0
12, 37320, Note_on_c, 9, 61, 5
12, 37350, Note_on_c, 9, 62, 0
12, 37380, Note_on_c, 9, 62, 0
12, 37380, Note_on_c, 9, 61, 3
12, 37410, Note_on_c, 9, 62, 0
12, 37410, Note_on_c, 9, 61, 2
12, 37440, Note_on_c, 9, 61, 0
12, 37500, Note_on_c, 9, 61, 0
12, 37530, Note_on_c, 9, 61, 0
12, 37530, End_track
13, 0, Start_track
13, 0, MIDI_port, 0
13, 0, Program_c, 10, 72
13, 0, Control_c, 10, 7, 70
13, 0, Control_c, 10, 10, 127
13, 0, Control_c, 10, 1, 0
13, 10, Control_c, 10, 8, 64
13, 20, Control_c, 10, 11, 64
13, 120, Control_c, 10, 65, 0
13, 120, Control_c, 10, 67, 0
13, 120, Control_c, 10, 93, 0
13, 120, Control_c, 10, 91, 64
13, 120, Control_c, 10, 64, 0
13, 120, Pitch_bend_c, 10, 8192
13, 120, Control_c, 10, 68, 0
13, 16920, Note_on_c, 10, 71, 100
13, 16920, Note_on_c, 10, 74, 100
13, 16980, Note_on_c, 10, 74, 0
13, 16980, Note_on_c, 10, 71, 0
13, 16980, Note_on_c, 10, 69, 100
13, 16980, Note_on_c, 10, 72, 100
13, 17040, Note_on_c, 10, 72, 0
13, 17040, Note_on_c, 10, 69, 0
13, 25260, Note_on_c, 10, 79, 100
13, 25380, Note_on_c, 10, 79, 0
13, 25380, Note_on_c, 10, 77, 100
13, 25410, Note_on_c, 10, 77, 0
13, 25410, Note_on_c, 10, 76, 100
13, 25440, Note_on_c, 10, 76, 0
13, 25440, Note_on_c, 10, 77, 100
13, 25740, Note_on_c, 10, 77, 0
13, 26220, Note_on_c, 10, 76, 100
13, 26310, Note_on_c, 10, 76, 0
13, 26310, Note_on_c, 10, 74, 100
13, 26400, Note_on_c, 10, 74, 0
13, 26400, Note_on_c, 10, 69, 100
13, 26490, Note_on_c, 10, 69, 0
13, 26490, Note_on_c, 10, 67, 100
13, 26730, Note_on_c, 10, 67, 0
13, 27180, Note_on_c, 10, 91, 100
13, 27300, Note_on_c, 10, 91, 0
13, 27300, Note_on_c, 10, 89, 100
13, 27330, Note_on_c, 10, 89, 0
13, 27330, Note_on_c, 10, 88, 100
13, 27360, Note_on_c, 10, 88, 0
13, 27360, Note_on_c, 10, 89, 100
13, 27660, Note_on_c, 10, 89, 0
13, 28140, Note_on_c, 10, 88, 100
13, 28200, Note_on_c, 10, 88, 0
13, 28200, Note_on_c, 10, 86, 100
13, 28260, Note_on_c, 10, 86, 0
13, 28260, Note_on_c, 10, 85, 100
13, 28740, Note_on_c, 10, 85, 0
13, 32940, Note_on_c, 10, 91, 100
13, 33060, Note_on_c, 10, 91, 0
13, 33060, Note_on_c, 10, 89, 100
13, 33090, Note_on_c, 10, 89, 0
13, 33090, Note_on_c, 10, 88, 100
13, 33120, Note_on_c, 10, 88, 0
13, 33120, Note_on_c, 10, 89, 100
13, 33420, Note_on_c, 10, 89, 0
13, 33900, Note_on_c, 10, 88, 100
13, 33960, Note_on_c, 10, 88, 0
13, 33960, Note_on_c, 10, 86, 100
13, 34020, Note_on_c, 10, 86, 0
13, 34020, Note_on_c, 10, 85, 100
13, 34500, Note_on_c, 10, 85, 0
13, 34500, End_track
14, 0, Start_track
14, 0, MIDI_port, 0
14, 0, Program_c, 11, 27
14, 0, Control_c, 11, 7, 90
14, 0, Control_c, 11, 10, 0
14, 0, Control_c, 11, 1, 0
14, 10, Control_c, 11, 8, 64
14, 20, Control_c, 11, 11, 64
14, 120, Control_c, 11, 65, 0
14, 120, Control_c, 11, 67, 0
14, 120, Control_c, 11, 93, 0
14, 120, Control_c, 11, 91, 64
14, 120, Control_c, 11, 64, 0
14, 120, Pitch_bend_c, 11, 8192
14, 120, Control_c, 11, 68, 0
14, 3300, Pitch_bend_c, 11, 8192
14, 3300, Note_on_c, 11, 72, 100
14, 3300, Note_on_c, 11, 67, 100
14, 3301, Pitch_bend_c, 11, 8466
14, 3302, Pitch_bend_c, 11, 8739
14, 3303, Pitch_bend_c, 11, 9012
14, 3304, Pitch_bend_c, 11, 9285
14, 3305, Pitch_bend_c, 11, 9558
14, 3306, Pitch_bend_c, 11, 9831
14, 3307, Pitch_bend_c, 11, 10104
14, 3308, Pitch_bend_c, 11, 10377
14, 3309, Pitch_bend_c, 11, 10650
14, 3310, Pitch_bend_c, 11, 10923
14, 3311, Pitch_bend_c, 11, 11196
14, 3312, Pitch_bend_c, 11, 11469
14, 3313, Pitch_bend_c, 11, 11742
14, 3314, Pitch_bend_c, 11, 12015
14, 3315, Pitch_bend_c, 11, 12288
14, 3316, Pitch_bend_c, 11, 12561
14, 3317, Pitch_bend_c, 11, 12834
14, 3318, Pitch_bend_c, 11, 13107
14, 3319, Pitch_bend_c, 11, 13380
14, 3320, Pitch_bend_c, 11, 13653
14, 3321, Pitch_bend_c, 11, 13926
14, 3322, Pitch_bend_c, 11, 14199
14, 3323, Pitch_bend_c, 11, 14472
14, 3324, Pitch_bend_c, 11, 14745
14, 3325, Pitch_bend_c, 11, 15018
14, 3326, Pitch_bend_c, 11, 15291
14, 3327, Pitch_bend_c, 11, 15564
14, 3328, Pitch_bend_c, 11, 15837
14, 3329, Pitch_bend_c, 11, 16110
14, 3330, Pitch_bend_c, 11, 16383
14, 3480, Pitch_bend_c, 11, 8192
14, 3540, Note_on_c, 11, 67, 0
14, 3540, Note_on_c, 11, 72, 0
14, 3600, Note_on_c, 11, 72, 100
14, 3605, Note_on_c, 11, 72, 0
14, 3630, Note_on_c, 11, 72, 100
14, 3635, Note_on_c, 11, 72, 0
14, 3690, Note_on_c, 11, 65, 100
14, 3720, Pitch_bend_c, 11, 16383
14, 3770, Note_on_c, 11, 65, 0
14, 4230, Pitch_bend_c, 11, 8192
14, 4230, Note_on_c, 11, 70, 100
14, 4230, Note_on_c, 11, 74, 100
14, 4231, Pitch_bend_c, 11, 8466
14, 4232, Pitch_bend_c, 11, 8739
14, 4233, Pitch_bend_c, 11, 9012
14, 4234, Pitch_bend_c, 11, 9285
14, 4235, Pitch_bend_c, 11, 9558
14, 4236, Pitch_bend_c, 11, 9831
14, 4237, Pitch_bend_c, 11, 10104
14, 4238, Pitch_bend_c, 11, 10377
14, 4239, Pitch_bend_c, 11, 10650
14, 4240, Pitch_bend_c, 11, 10923
14, 4241, Pitch_bend_c, 11, 11196
14, 4242, Pitch_bend_c, 11, 11469
14, 4243, Pitch_bend_c, 11, 11742
14, 4244, Pitch_bend_c, 11, 12015
14, 4245, Pitch_bend_c, 11, 12288
14, 4246, Pitch_bend_c, 11, 12561
14, 4247, Pitch_bend_c, 11, 12834
14, 4248, Pitch_bend_c, 11, 13107
14, 4249, Pitch_bend_c, 11, 13380
14, 4250, Pitch_bend_c, 11, 13653
14, 4251, Pitch_bend_c, 11, 13926
14, 4252, Pitch_bend_c, 11, 14199
14, 4253, Pitch_bend_c, 11, 14472
14, 4254, Pitch_bend_c, 11, 14745
14, 4255, Pitch_bend_c, 11, 15018
14, 4256, Pitch_bend_c, 11, 15291
14, 4257, Pitch_bend_c, 11, 15564
14, 4258, Pitch_bend_c, 11, 15837
14, 4259, Pitch_bend_c, 11, 16110
14, 4260, Pitch_bend_c, 11, 16383
14, 4350, Note_on_c, 11, 74, 0
14, 4350, Note_on_c, 11, 70, 0
14, 4380, Pitch_bend_c, 11, 8192
14, 4380, Note_on_c, 11, 79, 100
14, 4430, Note_on_c, 11, 79, 0
14, 4440, Note_on_c, 11, 76, 100
14, 4470, Note_on_c, 11, 76, 0
14, 4470, Note_on_c, 11, 74, 100
14, 4500, Note_on_c, 11, 74, 0
14, 4500, Note_on_c, 11, 69, 100
14, 4530, Note_on_c, 11, 69, 0
14, 4560, Note_on_c, 11, 74, 100
14, 4590, Note_on_c, 11, 74, 0
14, 4620, Note_on_c, 11, 72, 100
14, 4680, Note_on_c, 11, 69, 100
14, 4740, Note_on_c, 11, 72, 0
14, 4800, Note_on_c, 11, 69, 0
14, 5220, Control_c, 11, 7, 0
14, 5220, Note_on_c, 11, 79, 100
14, 5221, Control_c, 11, 7, 4
14, 5222, Control_c, 11, 7, 7
14, 5223, Control_c, 11, 7, 10
14, 5224, Control_c, 11, 7, 14
14, 5225, Control_c, 11, 7, 17
14, 5226, Control_c, 11, 7, 20
14, 5227, Control_c, 11, 7, 24
14, 5228, Control_c, 11, 7, 27
14, 5229, Control_c, 11, 7, 30
14, 5230, Control_c, 11, 7, 34
14, 5231, Control_c, 11, 7, 37
14, 5232, Control_c, 11, 7, 40
14, 5233, Control_c, 11, 7, 44
14, 5234, Control_c, 11, 7, 47
14, 5235, Control_c, 11, 7, 50
14, 5236, Control_c, 11, 7, 54
14, 5237, Control_c, 11, 7, 57
14, 5238, Control_c, 11, 7, 60
14, 5239, Control_c, 11, 7, 64
14, 5240, Control_c, 11, 7, 67
14, 5241, Control_c, 11, 7, 70
14, 5242, Control_c, 11, 7, 74
14, 5243, Control_c, 11, 7, 77
14, 5244, Control_c, 11, 7, 80
14, 5245, Control_c, 11, 7, 84
14, 5246, Control_c, 11, 7, 87
14, 5247, Control_c, 11, 7, 90
14, 5248, Control_c, 11, 7, 94
14, 5249, Control_c, 11, 7, 97
14, 5250, Control_c, 11, 7, 100
14, 5400, Note_on_c, 11, 79, 0
14, 5400, Note_on_c, 11, 76, 100
14, 5430, Note_on_c, 11, 76, 0
14, 5430, Note_on_c, 11, 79, 100
14, 5460, Note_on_c, 11, 79, 0
14, 5460, Note_on_c, 11, 76, 100
14, 5640, Note_on_c, 11, 76, 0
14, 10980, Note_on_c, 11, 57, 100
14, 10980, Note_on_c, 11, 65, 100
14, 10980, Note_on_c, 11, 60, 100
14, 11460, Note_on_c, 11, 60, 0
14, 11460, Note_on_c, 11, 65, 0
14, 11460, Note_on_c, 11, 57, 0
14, 11940, Pitch_bend_c, 11, 8192
14, 11940, Note_on_c, 11, 72, 100
14, 11940, Note_on_c, 11, 67, 100
14, 11941, Pitch_bend_c, 11, 8466
14, 11942, Pitch_bend_c, 11, 8739
14, 11943, Pitch_bend_c, 11, 9012
14, 11944, Pitch_bend_c, 11, 9285
14, 11945, Pitch_bend_c, 11, 9558
14, 11946, Pitch_bend_c, 11, 9831
14, 11947, Pitch_bend_c, 11, 10104
14, 11948, Pitch_bend_c, 11, 10377
14, 11949, Pitch_bend_c, 11, 10650
14, 11950, Pitch_bend_c, 11, 10923
14, 11951, Pitch_bend_c, 11, 11196
14, 11952, Pitch_bend_c, 11, 11469
14, 11953, Pitch_bend_c, 11, 11742
14, 11954, Pitch_bend_c, 11, 12015
14, 11955, Pitch_bend_c, 11, 12288
14, 11956, Pitch_bend_c, 11, 12561
14, 11957, Pitch_bend_c, 11, 12834
14, 11958, Pitch_bend_c, 11, 13107
14, 11959, Pitch_bend_c, 11, 13380
14, 11960, Pitch_bend_c, 11, 13653
14, 11961, Pitch_bend_c, 11, 13926
14, 11962, Pitch_bend_c, 11, 14199
14, 11963, Pitch_bend_c, 11, 14472
14, 11964, Pitch_bend_c, 11, 14745
14, 11965, Pitch_bend_c, 11, 15018
14, 11966, Pitch_bend_c, 11, 15291
14, 11967, Pitch_bend_c, 11, 15564
14, 11968, Pitch_bend_c, 11, 15837
14, 11969, Pitch_bend_c, 11, 16110
14, 11970, Pitch_bend_c, 11, 16383
14, 12120, Pitch_bend_c, 11, 8192
14, 12180, Note_on_c, 11, 67, 0
14, 12180, Note_on_c, 11, 72, 0
14, 12240, Note_on_c, 11, 72, 101
14, 12245, Note_on_c, 11, 72, 0
14, 12270, Note_on_c, 11, 69, 100
14, 12275, Note_on_c, 11, 69, 0
14, 12330, Note_on_c, 11, 69, 100
14, 12330, Note_on_c, 11, 65, 100
14, 12510, Note_on_c, 11, 65, 0
14, 12510, Note_on_c, 11, 69, 0
14, 12870, Note_on_c, 11, 70, 100
14, 12870, Note_on_c, 11, 74, 100
14, 12871, Pitch_bend_c, 11, 8466
14, 12872, Pitch_bend_c, 11, 8739
14, 12873, Pitch_bend_c, 11, 9012
14, 12874, Pitch_bend_c, 11, 9285
14, 12875, Pitch_bend_c, 11, 9558
14, 12876, Pitch_bend_c, 11, 9831
14, 12877, Pitch_bend_c, 11, 10104
14, 12878, Pitch_bend_c, 11, 10377
14, 12879, Pitch_bend_c, 11, 10650
14, 12880, Pitch_bend_c, 11, 10923
14, 12881, Pitch_bend_c, 11, 11196
14, 12882, Pitch_bend_c, 11, 11469
14, 12883, Pitch_bend_c, 11, 11742
14, 12884, Pitch_bend_c, 11, 12015
14, 12885, Pitch_bend_c, 11, 12288
14, 12886, Pitch_bend_c, 11, 12561
14, 12887, Pitch_bend_c, 11, 12834
14, 12888, Pitch_bend_c, 11, 13107
14, 12889, Pitch_bend_c, 11, 13380
14, 12890, Pitch_bend_c, 11, 13653
14, 12891, Pitch_bend_c, 11, 13926
14, 12892, Pitch_bend_c, 11, 14199
14, 12893, Pitch_bend_c, 11, 14472
14, 12894, Pitch_bend_c, 11, 14745
14, 12895, Pitch_bend_c, 11, 15018
14, 12896, Pitch_bend_c, 11, 15291
14, 12897, Pitch_bend_c, 11, 15564
14, 12898, Pitch_bend_c, 11, 15837
14, 12899, Pitch_bend_c, 11, 16110
14, 12900, Pitch_bend_c, 11, 16383
14, 12990, Note_on_c, 11, 74, 0
14, 12990, Note_on_c, 11, 70, 0
14, 13020, Pitch_bend_c, 11, 8192
14, 13020, Note_on_c, 11, 79, 100
14, 13070, Note_on_c, 11, 79, 0
14, 13080, Note_on_c, 11, 76, 100
14, 13110, Note_on_c, 11, 76, 0
14, 13110, Note_on_c, 11, 74, 100
14, 13140, Note_on_c, 11, 74, 0
14, 13140, Note_on_c, 11, 69, 100
14, 13170, Note_on_c, 11, 69, 0
14, 13200, Note_on_c, 11, 74, 100
14, 13230, Note_on_c, 11, 74, 0
14, 13260, Note_on_c, 11, 72, 100
14, 13320, Note_on_c, 11, 69, 100
14, 13380, Note_on_c, 11, 72, 0
14, 13440, Note_on_c, 11, 69, 0
14, 13860, Pitch_bend_c, 11, 8192
14, 13860, Note_on_c, 11, 79, 100
14, 13860, Note_on_c, 11, 67, 100
14, 13861, Pitch_bend_c, 11, 8466
14, 13862, Pitch_bend_c, 11, 8739
14, 13863, Pitch_bend_c, 11, 9012
14, 13864, Pitch_bend_c, 11, 9285
14, 13865, Pitch_bend_c, 11, 9558
14, 13866, Pitch_bend_c, 11, 9831
14, 13867, Pitch_bend_c, 11, 10104
14, 13868, Pitch_bend_c, 11, 10377
14, 13869, Pitch_bend_c, 11, 10650
14, 13870, Pitch_bend_c, 11, 10923
14, 13871, Pitch_bend_c, 11, 11196
14, 13872, Pitch_bend_c, 11, 11469
14, 13873, Pitch_bend_c, 11, 11742
14, 13874, Pitch_bend_c, 11, 12015
14, 13875, Pitch_bend_c, 11, 12288
14, 13876, Pitch_bend_c, 11, 12561
14, 13877, Pitch_bend_c, 11, 12834
14, 13878, Pitch_bend_c, 11, 13107
14, 13879, Pitch_bend_c, 11, 13380
14, 13880, Pitch_bend_c, 11, 13653
14, 13881, Pitch_bend_c, 11, 13926
14, 13882, Pitch_bend_c, 11, 14199
14, 13883, Pitch_bend_c, 11, 14472
14, 13884, Pitch_bend_c, 11, 14745
14, 13885, Pitch_bend_c, 11, 15018
14, 13886, Pitch_bend_c, 11, 15291
14, 13887, Pitch_bend_c, 11, 15564
14, 13888, Pitch_bend_c, 11, 15837
14, 13889, Pitch_bend_c, 11, 16110
14, 13890, Pitch_bend_c, 11, 16383
14, 14010, Note_on_c, 11, 67, 0
14, 14010, Note_on_c, 11, 79, 0
14, 14040, Pitch_bend_c, 11, 8192
14, 14040, Note_on_c, 11, 67, 100
14, 14048, Note_on_c, 11, 67, 0
14, 14100, Note_on_c, 11, 69, 100
14, 14108, Note_on_c, 11, 69, 0
14, 14160, Note_on_c, 11, 64, 100
14, 14168, Note_on_c, 11, 64, 0
14, 14280, Note_on_c, 11, 64, 100
14, 14288, Note_on_c, 11, 64, 0
14, 14340, Note_on_c, 11, 60, 100
14, 14380, Note_on_c, 11, 60, 0
14, 14820, Control_c, 11, 7, 0
14, 14820, Note_on_c, 11, 79, 100
14, 14821, Control_c, 11, 7, 4
14, 14822, Control_c, 11, 7, 7
14, 14823, Control_c, 11, 7, 10
14, 14824, Control_c, 11, 7, 14
14, 14825, Control_c, 11, 7, 17
14, 14826, Control_c, 11, 7, 20
14, 14827, Control_c, 11, 7, 24
14, 14828, Control_c, 11, 7, 27
14, 14829, Control_c, 11, 7, 30
14, 14830, Control_c, 11, 7, 34
14, 14831, Control_c, 11, 7, 37
14, 14832, Control_c, 11, 7, 40
14, 14833, Control_c, 11, 7, 44
14, 14834, Control_c, 11, 7, 47
14, 14835, Control_c, 11, 7, 50
14, 14836, Control_c, 11, 7, 54
14, 14837, Control_c, 11, 7, 57
14, 14838, Control_c, 11, 7, 60
14, 14839, Control_c, 11, 7, 64
14, 14840, Control_c, 11, 7, 67
14, 14841, Control_c, 11, 7, 70
14, 14842, Control_c, 11, 7, 74
14, 14843, Control_c, 11, 7, 77
14, 14844, Control_c, 11, 7, 80
14, 14845, Control_c, 11, 7, 84
14, 14846, Control_c, 11, 7, 87
14, 14847, Control_c, 11, 7, 90
14, 14848, Control_c, 11, 7, 94
14, 14849, Control_c, 11, 7, 97
14, 14850, Control_c, 11, 7, 100
14, 15000, Note_on_c, 11, 79, 0
14, 15000, Note_on_c, 11, 76, 100
14, 15030, Note_on_c, 11, 76, 0
14, 15030, Note_on_c, 11, 79, 100
14, 15060, Note_on_c, 11, 79, 0
14, 15060, Note_on_c, 11, 76, 100
14, 15240, Note_on_c, 11, 76, 0
14, 15960, Pitch_bend_c, 11, 8192
14, 15960, Note_on_c, 11, 74, 100
14, 15990, Pitch_bend_c, 11, 1
14, 16018, Note_on_c, 11, 74, 0
14, 16020, Pitch_bend_c, 11, 8192
14, 16020, Note_on_c, 11, 71, 100
14, 16080, Pitch_bend_c, 11, 12192
14, 16260, Note_on_c, 11, 71, 0
14, 16920, Pitch_bend_c, 11, 8192
14, 16920, Note_on_c, 11, 72, 100
14, 16921, Pitch_bend_c, 11, 8466
14, 16922, Pitch_bend_c, 11, 8739
14, 16923, Pitch_bend_c, 11, 9012
14, 16924, Pitch_bend_c, 11, 9285
14, 16925, Pitch_bend_c, 11, 9558
14, 16926, Pitch_bend_c, 11, 9831
14, 16927, Pitch_bend_c, 11, 10104
14, 16928, Pitch_bend_c, 11, 10377
14, 16929, Pitch_bend_c, 11, 10650
14, 16930, Pitch_bend_c, 11, 10923
14, 16931, Pitch_bend_c, 11, 11196
14, 16932, Pitch_bend_c, 11, 11469
14, 16933, Pitch_bend_c, 11, 11742
14, 16934, Pitch_bend_c, 11, 12015
14, 16935, Pitch_bend_c, 11, 12288
14, 16936, Pitch_bend_c, 11, 12561
14, 16937, Pitch_bend_c, 11, 12834
14, 16938, Pitch_bend_c, 11, 13107
14, 16939, Pitch_bend_c, 11, 13380
14, 16940, Pitch_bend_c, 11, 13653
14, 16941, Pitch_bend_c, 11, 13926
14, 16942, Pitch_bend_c, 11, 14199
14, 16943, Pitch_bend_c, 11, 14472
14, 16944, Pitch_bend_c, 11, 14745
14, 16945, Pitch_bend_c, 11, 15018
14, 16946, Pitch_bend_c, 11, 15291
14, 16947, Pitch_bend_c, 11, 15564
14, 16948, Pitch_bend_c, 11, 15837
14, 16949, Pitch_bend_c, 11, 16110
14, 16950, Pitch_bend_c, 11, 16383
14, 16980, Note_on_c, 11, 72, 0
14, 16980, Pitch_bend_c, 11, 8192
14, 16980, Note_on_c, 11, 69, 100
14, 16980, Note_on_c, 11, 72, 100
14, 17025, Note_on_c, 11, 72, 0
14, 17025, Note_on_c, 11, 69, 0
14, 17880, Note_on_c, 11, 79, 100
14, 17910, Note_on_c, 11, 79, 0
14, 17910, Note_on_c, 11, 76, 100
14, 17940, Note_on_c, 11, 76, 0
14, 17940, Note_on_c, 11, 72, 100
14, 17974, Note_on_c, 11, 72, 0
14, 18000, Note_on_c, 11, 74, 100
14, 18030, Pitch_bend_c, 11, 16383
14, 18060, Note_on_c, 11, 74, 0
14, 18060, Pitch_bend_c, 11, 8192
14, 18060, Note_on_c, 11, 72, 100
14, 18120, Note_on_c, 11, 72, 0
14, 18120, Note_on_c, 11, 74, 100
14, 18240, Note_on_c, 11, 74, 0
14, 21540, Pitch_bend_c, 11, 8192
14, 21540, Note_on_c, 11, 72, 100
14, 21540, Note_on_c, 11, 67, 100
14, 21541, Pitch_bend_c, 11, 8466
14, 21542, Pitch_bend_c, 11, 8739
14, 21543, Pitch_bend_c, 11, 9012
14, 21544, Pitch_bend_c, 11, 9285
14, 21545, Pitch_bend_c, 11, 9558
14, 21546, Pitch_bend_c, 11, 9831
14, 21547, Pitch_bend_c, 11, 10104
14, 21548, Pitch_bend_c, 11, 10377
14, 21549, Pitch_bend_c, 11, 10650
14, 21550, Pitch_bend_c, 11, 10923
14, 21551, Pitch_bend_c, 11, 11196
14, 21552, Pitch_bend_c, 11, 11469
14, 21553, Pitch_bend_c, 11, 11742
14, 21554, Pitch_bend_c, 11, 12015
14, 21555, Pitch_bend_c, 11, 12288
14, 21556, Pitch_bend_c, 11, 12561
14, 21557, Pitch_bend_c, 11, 12834
14, 21558, Pitch_bend_c, 11, 13107
14, 21559, Pitch_bend_c, 11, 13380
14, 21560, Pitch_bend_c, 11, 13653
14, 21561, Pitch_bend_c, 11, 13926
14, 21562, Pitch_bend_c, 11, 14199
14, 21563, Pitch_bend_c, 11, 14472
14, 21564, Pitch_bend_c, 11, 14745
14, 21565, Pitch_bend_c, 11, 15018
14, 21566, Pitch_bend_c, 11, 15291
14, 21567, Pitch_bend_c, 11, 15564
14, 21568, Pitch_bend_c, 11, 15837
14, 21569, Pitch_bend_c, 11, 16110
14, 21570, Pitch_bend_c, 11, 16383
14, 21720, Pitch_bend_c, 11, 8192
14, 21780, Note_on_c, 11, 67, 0
14, 21780, Note_on_c, 11, 72, 0
14, 21840, Note_on_c, 11, 72, 101
14, 21845, Note_on_c, 11, 72, 0
14, 21870, Note_on_c, 11, 69, 100
14, 21875, Note_on_c, 11, 69, 0
14, 21930, Note_on_c, 11, 69, 100
14, 21930, Note_on_c, 11, 65, 100
14, 22110, Note_on_c, 11, 65, 0
14, 22110, Note_on_c, 11, 69, 0
14, 22500, Control_c, 11, 7, 0
14, 22500, Note_on_c, 11, 84, 100
14, 22501, Control_c, 11, 7, 3
14, 22502, Control_c, 11, 7, 6
14, 22503, Control_c, 11, 7, 9
14, 22504, Control_c, 11, 7, 12
14, 22505, Control_c, 11, 7, 15
14, 22506, Control_c, 11, 7, 18
14, 22507, Control_c, 11, 7, 21
14, 22508, Control_c, 11, 7, 24
14, 22509, Control_c, 11, 7, 27
14, 22510, Control_c, 11, 7, 30
14, 22511, Control_c, 11, 7, 33
14, 22512, Control_c, 11, 7, 36
14, 22513, Control_c, 11, 7, 39
14, 22514, Control_c, 11, 7, 42
14, 22515, Control_c, 11, 7, 45
14, 22516, Control_c, 11, 7, 48
14, 22517, Control_c, 11, 7, 51
14, 22518, Control_c, 11, 7, 54
14, 22519, Control_c, 11, 7, 57
14, 22520, Control_c, 11, 7, 60
14, 22521, Control_c, 11, 7, 63
14, 22522, Control_c, 11, 7, 66
14, 22523, Control_c, 11, 7, 69
14, 22524, Control_c, 11, 7, 72
14, 22525, Control_c, 11, 7, 75
14, 22526, Control_c, 11, 7, 78
14, 22527, Control_c, 11, 7, 81
14, 22528, Control_c, 11, 7, 84
14, 22529, Control_c, 11, 7, 87
14, 22530, Control_c, 11, 7, 90
14, 22680, Note_on_c, 11, 84, 0
14, 22740, Note_on_c, 11, 79, 100
14, 22795, Note_on_c, 11, 79, 0
14, 22800, Note_on_c, 11, 79, 100
14, 23040, Note_on_c, 11, 79, 0
14, 23460, Note_on_c, 11, 79, 100
14, 23460, Note_on_c, 11, 67, 100
14, 23461, Pitch_bend_c, 11, 8466
14, 23462, Pitch_bend_c, 11, 8739
14, 23463, Pitch_bend_c, 11, 9012
14, 23464, Pitch_bend_c, 11, 9285
14, 23465, Pitch_bend_c, 11, 9558
14, 23466, Pitch_bend_c, 11, 9831
14, 23467, Pitch_bend_c, 11, 10104
14, 23468, Pitch_bend_c, 11, 10377
14, 23469, Pitch_bend_c, 11, 10650
14, 23470, Pitch_bend_c, 11, 10923
14, 23471, Pitch_bend_c, 11, 11196
14, 23472, Pitch_bend_c, 11, 11469
14, 23473, Pitch_bend_c, 11, 11742
14, 23474, Pitch_bend_c, 11, 12015
14, 23475, Pitch_bend_c, 11, 12288
14, 23476, Pitch_bend_c, 11, 12561
14, 23477, Pitch_bend_c, 11, 12834
14, 23478, Pitch_bend_c, 11, 13107
14, 23479, Pitch_bend_c, 11, 13380
14, 23480, Pitch_bend_c, 11, 13653
14, 23481, Pitch_bend_c, 11, 13926
14, 23482, Pitch_bend_c, 11, 14199
14, 23483, Pitch_bend_c, 11, 14472
14, 23484, Pitch_bend_c, 11, 14745
14, 23485, Pitch_bend_c, 11, 15018
14, 23486, Pitch_bend_c, 11, 15291
14, 23487, Pitch_bend_c, 11, 15564
14, 23488, Pitch_bend_c, 11, 15837
14, 23489, Pitch_bend_c, 11, 16110
14, 23490, Pitch_bend_c, 11, 16383
14, 23610, Note_on_c, 11, 67, 0
14, 23610, Note_on_c, 11, 79, 0
14, 23640, Pitch_bend_c, 11, 8192
14, 23640, Note_on_c, 11, 67, 100
14, 23648, Note_on_c, 11, 67, 0
14, 23700, Note_on_c, 11, 69, 100
14, 23708, Note_on_c, 11, 69, 0
14, 23760, Note_on_c, 11, 64, 100
14, 23768, Note_on_c, 11, 64, 0
14, 23880, Note_on_c, 11, 64, 100
14, 23888, Note_on_c, 11, 64, 0
14, 23940, Note_on_c, 11, 60, 100
14, 23980, Note_on_c, 11, 60, 0
14, 24420, Control_c, 11, 7, 0
14, 24420, Note_on_c, 11, 79, 100
14, 24421, Control_c, 11, 7, 3
14, 24422, Control_c, 11, 7, 6
14, 24423, Control_c, 11, 7, 9
14, 24424, Control_c, 11, 7, 12
14, 24425, Control_c, 11, 7, 15
14, 24426, Control_c, 11, 7, 18
14, 24427, Control_c, 11, 7, 21
14, 24428, Control_c, 11, 7, 24
14, 24429, Control_c, 11, 7, 27
14, 24430, Control_c, 11, 7, 30
14, 24431, Control_c, 11, 7, 33
14, 24432, Control_c, 11, 7, 36
14, 24433, Control_c, 11, 7, 39
14, 24434, Control_c, 11, 7, 42
14, 24435, Control_c, 11, 7, 45
14, 24436, Control_c, 11, 7, 48
14, 24437, Control_c, 11, 7, 51
14, 24438, Control_c, 11, 7, 54
14, 24439, Control_c, 11, 7, 57
14, 24440, Control_c, 11, 7, 60
14, 24441, Control_c, 11, 7, 63
14, 24442, Control_c, 11, 7, 66
14, 24443, Control_c, 11, 7, 69
14, 24444, Control_c, 11, 7, 72
14, 24445, Control_c, 11, 7, 75
14, 24446, Control_c, 11, 7, 78
14, 24447, Control_c, 11, 7, 81
14, 24448, Control_c, 11, 7, 84
14, 24449, Control_c, 11, 7, 87
14, 24450, Control_c, 11, 7, 90
14, 24600, Note_on_c, 11, 79, 0
14, 24600, Note_on_c, 11, 76, 100
14, 24630, Note_on_c, 11, 76, 0
14, 24630, Note_on_c, 11, 79, 100
14, 24660, Note_on_c, 11, 79, 0
14, 24660, Note_on_c, 11, 76, 100
14, 24840, Note_on_c, 11, 76, 0
14, 29220, Pitch_bend_c, 11, 8192
14, 29220, Note_on_c, 11, 72, 100
14, 29220, Note_on_c, 11, 67, 100
14, 29221, Pitch_bend_c, 11, 8466
14, 29222, Pitch_bend_c, 11, 8739
14, 29223, Pitch_bend_c, 11, 9012
14, 29224, Pitch_bend_c, 11, 9285
14, 29225, Pitch_bend_c, 11, 9558
14, 29226, Pitch_bend_c, 11, 9831
14, 29227, Pitch_bend_c, 11, 10104
14, 29228, Pitch_bend_c, 11, 10377
14, 29229, Pitch_bend_c, 11, 10650
14, 29230, Pitch_bend_c, 11, 10923
14, 29231, Pitch_bend_c, 11, 11196
14, 29232, Pitch_bend_c, 11, 11469
14, 29233, Pitch_bend_c, 11, 11742
14, 29234, Pitch_bend_c, 11, 12015
14, 29235, Pitch_bend_c, 11, 12288
14, 29236, Pitch_bend_c, 11, 12561
14, 29237, Pitch_bend_c, 11, 12834
14, 29238, Pitch_bend_c, 11, 13107
14, 29239, Pitch_bend_c, 11, 13380
14, 29240, Pitch_bend_c, 11, 13653
14, 29241, Pitch_bend_c, 11, 13926
14, 29242, Pitch_bend_c, 11, 14199
14, 29243, Pitch_bend_c, 11, 14472
14, 29244, Pitch_bend_c, 11, 14745
14, 29245, Pitch_bend_c, 11, 15018
14, 29246, Pitch_bend_c, 11, 15291
14, 29247, Pitch_bend_c, 11, 15564
14, 29248, Pitch_bend_c, 11, 15837
14, 29249, Pitch_bend_c, 11, 16110
14, 29250, Pitch_bend_c, 11, 16383
14, 29400, Pitch_bend_c, 11, 8192
14, 29460, Note_on_c, 11, 67, 0
14, 29460, Note_on_c, 11, 72, 0
14, 29520, Note_on_c, 11, 72, 101
14, 29525, Note_on_c, 11, 72, 0
14, 29550, Note_on_c, 11, 69, 100
14, 29555, Note_on_c, 11, 69, 0
14, 29610, Note_on_c, 11, 69, 100
14, 29610, Note_on_c, 11, 65, 100
14, 29790, Note_on_c, 11, 65, 0
14, 29790, Note_on_c, 11, 69, 0
14, 30180, Control_c, 11, 7, 0
14, 30180, Note_on_c, 11, 84, 100
14, 30181, Control_c, 11, 7, 3
14, 30182, Control_c, 11, 7, 6
14, 30183, Control_c, 11, 7, 9
14, 30184, Control_c, 11, 7, 12
14, 30185, Control_c, 11, 7, 15
14, 30186, Control_c, 11, 7, 18
14, 30187, Control_c, 11, 7, 21
14, 30188, Control_c, 11, 7, 24
14, 30189, Control_c, 11, 7, 27
14, 30190, Control_c, 11, 7, 30
14, 30191, Control_c, 11, 7, 33
14, 30192, Control_c, 11, 7, 36
14, 30193, Control_c, 11, 7, 39
14, 30194, Control_c, 11, 7, 42
14, 30195, Control_c, 11, 7, 45
14, 30196, Control_c, 11, 7, 48
14, 30197, Control_c, 11, 7, 51
14, 30198, Control_c, 11, 7, 54
14, 30199, Control_c, 11, 7, 57
14, 30200, Control_c, 11, 7, 60
14, 30201, Control_c, 11, 7, 63
14, 30202, Control_c, 11, 7, 66
14, 30203, Control_c, 11, 7, 69
14, 30204, Control_c, 11, 7, 72
14, 30205, Control_c, 11, 7, 75
14, 30206, Control_c, 11, 7, 78
14, 30207, Control_c, 11, 7, 81
14, 30208, Control_c, 11, 7, 84
14, 30209, Control_c, 11, 7, 87
14, 30210, Control_c, 11, 7, 90
14, 30360, Note_on_c, 11, 84, 0
14, 30420, Note_on_c, 11, 79, 100
14, 30475, Note_on_c, 11, 79, 0
14, 30480, Note_on_c, 11, 79, 100
14, 30720, Note_on_c, 11, 79, 0
14, 31140, Note_on_c, 11, 79, 100
14, 31140, Note_on_c, 11, 67, 100
14, 31141, Pitch_bend_c, 11, 8466
14, 31142, Pitch_bend_c, 11, 8739
14, 31143, Pitch_bend_c, 11, 9012
14, 31144, Pitch_bend_c, 11, 9285
14, 31145, Pitch_bend_c, 11, 9558
14, 31146, Pitch_bend_c, 11, 9831
14, 31147, Pitch_bend_c, 11, 10104
14, 31148, Pitch_bend_c, 11, 10377
14, 31149, Pitch_bend_c, 11, 10650
14, 31150, Pitch_bend_c, 11, 10923
14, 31151, Pitch_bend_c, 11, 11196
14, 31152, Pitch_bend_c, 11, 11469
14, 31153, Pitch_bend_c, 11, 11742
14, 31154, Pitch_bend_c, 11, 12015
14, 31155, Pitch_bend_c, 11, 12288
14, 31156, Pitch_bend_c, 11, 12561
14, 31157, Pitch_bend_c, 11, 12834
14, 31158, Pitch_bend_c, 11, 13107
14, 31159, Pitch_bend_c, 11, 13380
14, 31160, Pitch_bend_c, 11, 13653
14, 31161, Pitch_bend_c, 11, 13926
14, 31162, Pitch_bend_c, 11, 14199
14, 31163, Pitch_bend_c, 11, 14472
14, 31164, Pitch_bend_c, 11, 14745
14, 31165, Pitch_bend_c, 11, 15018
14, 31166, Pitch_bend_c, 11, 15291
14, 31167, Pitch_bend_c, 11, 15564
14, 31168, Pitch_bend_c, 11, 15837
14, 31169, Pitch_bend_c, 11, 16110
14, 31170, Pitch_bend_c, 11, 16383
14, 31290, Note_on_c, 11, 67, 0
14, 31290, Note_on_c, 11, 79, 0
14, 31320, Pitch_bend_c, 11, 8192
14, 31320, Note_on_c, 11, 67, 100
14, 31328, Note_on_c, 11, 67, 0
14, 31380, Note_on_c, 11, 69, 100
14, 31388, Note_on_c, 11, 69, 0
14, 31440, Note_on_c, 11, 64, 100
14, 31448, Note_on_c, 11, 64, 0
14, 31560, Note_on_c, 11, 64, 100
14, 31568, Note_on_c, 11, 64, 0
14, 31620, Note_on_c, 11, 60, 100
14, 31660, Note_on_c, 11, 60, 0
14, 32100, Control_c, 11, 7, 0
14, 32100, Note_on_c, 11, 79, 100
14, 32101, Control_c, 11, 7, 3
14, 32102, Control_c, 11, 7, 6
14, 32103, Control_c, 11, 7, 9
14, 32104, Control_c, 11, 7, 12
14, 32105, Control_c, 11, 7, 15
14, 32106, Control_c, 11, 7, 18
14, 32107, Control_c, 11, 7, 21
14, 32108, Control_c, 11, 7, 24
14, 32109, Control_c, 11, 7, 27
14, 32110, Control_c, 11, 7, 30
14, 32111, Control_c, 11, 7, 33
14, 32112, Control_c, 11, 7, 36
14, 32113, Control_c, 11, 7, 39
14, 32114, Control_c, 11, 7, 42
14, 32115, Control_c, 11, 7, 45
14, 32116, Control_c, 11, 7, 48
14, 32117, Control_c, 11, 7, 51
14, 32118, Control_c, 11, 7, 54
14, 32119, Control_c, 11, 7, 57
14, 32120, Control_c, 11, 7, 60
14, 32121, Control_c, 11, 7, 63
14, 32122, Control_c, 11, 7, 66
14, 32123, Control_c, 11, 7, 69
14, 32124, Control_c, 11, 7, 72
14, 32125, Control_c, 11, 7, 75
14, 32126, Control_c, 11, 7, 78
14, 32127, Control_c, 11, 7, 81
14, 32128, Control_c, 11, 7, 84
14, 32129, Control_c, 11, 7, 87
14, 32130, Control_c, 11, 7, 90
14, 32280, Note_on_c, 11, 79, 0
14, 32280, Note_on_c, 11, 76, 100
14, 32310, Note_on_c, 11, 76, 0
14, 32310, Note_on_c, 11, 79, 100
14, 32340, Note_on_c, 11, 79, 0
14, 32340, Note_on_c, 11, 76, 100
14, 32520, Note_on_c, 11, 76, 0
14, 34980, Pitch_bend_c, 11, 8192
14, 34980, Note_on_c, 11, 72, 86
14, 34980, Note_on_c, 11, 67, 86
14, 34981, Pitch_bend_c, 11, 8466
14, 34982, Pitch_bend_c, 11, 8739
14, 34983, Pitch_bend_c, 11, 9012
14, 34984, Pitch_bend_c, 11, 9285
14, 34985, Pitch_bend_c, 11, 9558
14, 34986, Pitch_bend_c, 11, 9831
14, 34987, Pitch_bend_c, 11, 10104
14, 34988, Pitch_bend_c, 11, 10377
14, 34989, Pitch_bend_c, 11, 10650
14, 34990, Pitch_bend_c, 11, 10923
14, 34991, Pitch_bend_c, 11, 11196
14, 34992, Pitch_bend_c, 11, 11469
14, 34993, Pitch_bend_c, 11, 11742
14, 34994, Pitch_bend_c, 11, 12015
14, 34995, Pitch_bend_c, 11, 12288
14, 34996, Pitch_bend_c, 11, 12561
14, 34997, Pitch_bend_c, 11, 12834
14, 34998, Pitch_bend_c, 11, 13107
14, 34999, Pitch_bend_c, 11, 13380
14, 35000, Pitch_bend_c, 11, 13653
14, 35001, Pitch_bend_c, 11, 13926
14, 35002, Pitch_bend_c, 11, 14199
14, 35003, Pitch_bend_c, 11, 14472
14, 35004, Pitch_bend_c, 11, 14745
14, 35005, Pitch_bend_c, 11, 15018
14, 35006, Pitch_bend_c, 11, 15291
14, 35007, Pitch_bend_c, 11, 15564
14, 35008, Pitch_bend_c, 11, 15837
14, 35009, Pitch_bend_c, 11, 16110
14, 35010, Pitch_bend_c, 11, 16383
14, 35160, Pitch_bend_c, 11, 8192
14, 35220, Note_on_c, 11, 67, 0
14, 35220, Note_on_c, 11, 72, 0
14, 35280, Note_on_c, 11, 72, 75
14, 35285, Note_on_c, 11, 72, 0
14, 35310, Note_on_c, 11, 69, 74
14, 35315, Note_on_c, 11, 69, 0
14, 35370, Note_on_c, 11, 69, 72
14, 35370, Note_on_c, 11, 65, 72
14, 35550, Note_on_c, 11, 65, 0
14, 35550, Note_on_c, 11, 69, 0
14, 35940, Control_c, 11, 7, 0
14, 35940, Note_on_c, 11, 84, 53
14, 35941, Control_c, 11, 7, 3
14, 35942, Control_c, 11, 7, 6
14, 35943, Control_c, 11, 7, 9
14, 35944, Control_c, 11, 7, 12
14, 35945, Control_c, 11, 7, 15
14, 35946, Control_c, 11, 7, 18
14, 35947, Control_c, 11, 7, 21
14, 35948, Control_c, 11, 7, 24
14, 35949, Control_c, 11, 7, 27
14, 35950, Control_c, 11, 7, 30
14, 35951, Control_c, 11, 7, 33
14, 35952, Control_c, 11, 7, 36
14, 35953, Control_c, 11, 7, 39
14, 35954, Control_c, 11, 7, 42
14, 35955, Control_c, 11, 7, 45
14, 35956, Control_c, 11, 7, 48
14, 35957, Control_c, 11, 7, 51
14, 35958, Control_c, 11, 7, 54
14, 35959, Control_c, 11, 7, 57
14, 35960, Control_c, 11, 7, 60
14, 35961, Control_c, 11, 7, 63
14, 35962, Control_c, 11, 7, 66
14, 35963, Control_c, 11, 7, 69
14, 35964, Control_c, 11, 7, 72
14, 35965, Control_c, 11, 7, 75
14, 35966, Control_c, 11, 7, 78
14, 35967, Control_c, 11, 7, 81
14, 35968, Control_c, 11, 7, 84
14, 35969, Control_c, 11, 7, 87
14, 35970, Control_c, 11, 7, 90
14, 36120, Note_on_c, 11, 84, 0
14, 36180, Note_on_c, 11, 79, 44
14, 36235, Note_on_c, 11, 79, 0
14, 36240, Note_on_c, 11, 79, 42
14, 36480, Note_on_c, 11, 79, 0
14, 36900, Note_on_c, 11, 79, 19
14, 36900, Note_on_c, 11, 67, 19
14, 36901, Pitch_bend_c, 11, 8466
14, 36902, Pitch_bend_c, 11, 8739
14, 36903, Pitch_bend_c, 11, 9012
14, 36904, Pitch_bend_c, 11, 9285
14, 36905, Pitch_bend_c, 11, 9558
14, 36906, Pitch_bend_c, 11, 9831
14, 36907, Pitch_bend_c, 11, 10104
14, 36908, Pitch_bend_c, 11, 10377
14, 36909, Pitch_bend_c, 11, 10650
14, 36910, Pitch_bend_c, 11, 10923
14, 36911, Pitch_bend_c, 11, 11196
14, 36912, Pitch_bend_c, 11, 11469
14, 36913, Pitch_bend_c, 11, 11742
14, 36914, Pitch_bend_c, 11, 12015
14, 36915, Pitch_bend_c, 11, 12288
14, 36916, Pitch_bend_c, 11, 12561
14, 36917, Pitch_bend_c, 11, 12834
14, 36918, Pitch_bend_c, 11, 13107
14, 36919, Pitch_bend_c, 11, 13380
14, 36920, Pitch_bend_c, 11, 13653
14, 36921, Pitch_bend_c, 11, 13926
14, 36922, Pitch_bend_c, 11, 14199
14, 36923, Pitch_bend_c, 11, 14472
14, 36924, Pitch_bend_c, 11, 14745
14, 36925, Pitch_bend_c, 11, 15018
14, 36926, Pitch_bend_c, 11, 15291
14, 36927, Pitch_bend_c, 11, 15564
14, 36928, Pitch_bend_c, 11, 15837
14, 36929, Pitch_bend_c, 11, 16110
14, 36930, Pitch_bend_c, 11, 16383
14, 37050, Note_on_c, 11, 67, 0
14, 37050, Note_on_c, 11, 79, 0
14, 37080, Pitch_bend_c, 11, 8192
14, 37080, Note_on_c, 11, 67, 13
14, 37088, Note_on_c, 11, 67, 0
14, 37140, Note_on_c, 11, 69, 11
14, 37148, Note_on_c, 11, 69, 0
14, 37200, Note_on_c, 11, 64, 9
14, 37208, Note_on_c, 11, 64, 0
14, 37320, Note_on_c, 11, 64, 5
14, 37328, Note_on_c, 11, 64, 0
14, 37380, Note_on_c, 11, 60, 3
14, 37420, Note_on_c, 11, 60, 0
14, 37420, End_track
15, 0, Start_track
15, 0, MIDI_port, 0
15, 0, Program_c, 12, 27
15, 0, Control_c, 12, 7, 80
15, 0, Control_c, 12, 10, 0
15, 0, Control_c, 12, 1, 0
15, 10, Control_c, 12, 8, 64
15, 20, Control_c, 12, 11, 64
15, 120, Control_c, 12, 65, 0
15, 120, Control_c, 12, 67, 0
15, 120, Control_c, 12, 93, 0
15, 120, Control_c, 12, 91, 64
15, 120, Control_c, 12, 64, 0
15, 120, Pitch_bend_c, 12, 8192
15, 120, Control_c, 12, 68, 0
15, 5880, Note_on_c, 12, 62, 80
15, 5881, Note_on_c, 12, 65, 80
15, 5882, Note_on_c, 12, 69, 80
15, 5905, Note_on_c, 12, 69, 0
15, 5905, Note_on_c, 12, 65, 0
15, 5905, Note_on_c, 12, 62, 0
15, 6120, Note_on_c, 12, 62, 80
15, 6121, Note_on_c, 12, 65, 80
15, 6122, Note_on_c, 12, 69, 80
15, 6145, Note_on_c, 12, 69, 0
15, 6145, Note_on_c, 12, 65, 0
15, 6145, Note_on_c, 12, 62, 0
15, 6360, Note_on_c, 12, 60, 80
15, 6361, Note_on_c, 12, 64, 80
15, 6362, Note_on_c, 12, 69, 80
15, 6385, Note_on_c, 12, 69, 0
15, 6385, Note_on_c, 12, 64, 0
15, 6385, Note_on_c, 12, 60, 0
15, 6600, Note_on_c, 12, 60, 80
15, 6601, Note_on_c, 12, 64, 80
15, 6602, Note_on_c, 12, 69, 80
15, 6625, Note_on_c, 12, 69, 0
15, 6625, Note_on_c, 12, 64, 0
15, 6625, Note_on_c, 12, 60, 0
15, 6840, Note_on_c, 12, 62, 80
15, 6841, Note_on_c, 12, 65, 80
15, 6842, Note_on_c, 12, 69, 80
15, 6865, Note_on_c, 12, 69, 0
15, 6865, Note_on_c, 12, 65, 0
15, 6865, Note_on_c, 12, 62, 0
15, 7080, Note_on_c, 12, 62, 80
15, 7081, Note_on_c, 12, 65, 80
15, 7082, Note_on_c, 12, 69, 80
15, 7105, Note_on_c, 12, 69, 0
15, 7105, Note_on_c, 12, 65, 0
15, 7105, Note_on_c, 12, 62, 0
15, 7320, Note_on_c, 12, 60, 80
15, 7321, Note_on_c, 12, 64, 80
15, 7322, Note_on_c, 12, 69, 80
15, 7345, Note_on_c, 12, 69, 0
15, 7345, Note_on_c, 12, 64, 0
15, 7345, Note_on_c, 12, 60, 0
15, 7560, Note_on_c, 12, 60, 80
15, 7561, Note_on_c, 12, 64, 80
15, 7562, Note_on_c, 12, 69, 80
15, 7585, Note_on_c, 12, 69, 0
15, 7585, Note_on_c, 12, 64, 0
15, 7585, Note_on_c, 12, 60, 0
15, 7800, Note_on_c, 12, 62, 80
15, 7801, Note_on_c, 12, 65, 80
15, 7802, Note_on_c, 12, 69, 80
15, 7825, Note_on_c, 12, 69, 0
15, 7825, Note_on_c, 12, 65, 0
15, 7825, Note_on_c, 12, 62, 0
15, 8040, Note_on_c, 12, 62, 80
15, 8041, Note_on_c, 12, 65, 80
15, 8042, Note_on_c, 12, 69, 80
15, 8065, Note_on_c, 12, 69, 0
15, 8065, Note_on_c, 12, 65, 0
15, 8065, Note_on_c, 12, 62, 0
15, 8280, Note_on_c, 12, 60, 80
15, 8281, Note_on_c, 12, 64, 80
15, 8282, Note_on_c, 12, 69, 80
15, 8305, Note_on_c, 12, 69, 0
15, 8305, Note_on_c, 12, 64, 0
15, 8305, Note_on_c, 12, 60, 0
15, 8520, Note_on_c, 12, 60, 80
15, 8521, Note_on_c, 12, 64, 80
15, 8522, Note_on_c, 12, 69, 80
15, 8545, Note_on_c, 12, 69, 0
15, 8545, Note_on_c, 12, 64, 0
15, 8545, Note_on_c, 12, 60, 0
15, 8760, Note_on_c, 12, 62, 80
15, 8761, Note_on_c, 12, 65, 80
15, 8762, Note_on_c, 12, 69, 80
15, 8785, Note_on_c, 12, 69, 0
15, 8785, Note_on_c, 12, 65, 0
15, 8785, Note_on_c, 12, 62, 0
15, 9000, Note_on_c, 12, 62, 80
15, 9001, Note_on_c, 12, 65, 80
15, 9002, Note_on_c, 12, 69, 80
15, 9025, Note_on_c, 12, 69, 0
15, 9025, Note_on_c, 12, 65, 0
15, 9025, Note_on_c, 12, 62, 0
15, 9240, Note_on_c, 12, 59, 80
15, 9241, Note_on_c, 12, 62, 80
15, 9242, Note_on_c, 12, 67, 80
15, 9265, Note_on_c, 12, 67, 0
15, 9265, Note_on_c, 12, 62, 0
15, 9265, Note_on_c, 12, 59, 0
15, 9480, Note_on_c, 12, 59, 80
15, 9481, Note_on_c, 12, 62, 80
15, 9482, Note_on_c, 12, 67, 80
15, 9505, Note_on_c, 12, 67, 0
15, 9505, Note_on_c, 12, 62, 0
15, 9505, Note_on_c, 12, 59, 0
15, 15480, Note_on_c, 12, 62, 80
15, 15481, Note_on_c, 12, 65, 80
15, 15482, Note_on_c, 12, 69, 80
15, 15505, Note_on_c, 12, 69, 0
15, 15505, Note_on_c, 12, 65, 0
15, 15505, Note_on_c, 12, 62, 0
15, 15720, Note_on_c, 12, 62, 80
15, 15721, Note_on_c, 12, 65, 80
15, 15722, Note_on_c, 12, 69, 80
15, 15745, Note_on_c, 12, 69, 0
15, 15745, Note_on_c, 12, 65, 0
15, 15745, Note_on_c, 12, 62, 0
15, 15960, Note_on_c, 12, 60, 80
15, 15961, Note_on_c, 12, 64, 80
15, 15962, Note_on_c, 12, 69, 80
15, 15985, Note_on_c, 12, 69, 0
15, 15985, Note_on_c, 12, 64, 0
15, 15985, Note_on_c, 12, 60, 0
15, 16200, Note_on_c, 12, 60, 80
15, 16201, Note_on_c, 12, 64, 80
15, 16202, Note_on_c, 12, 69, 80
15, 16225, Note_on_c, 12, 69, 0
15, 16225, Note_on_c, 12, 64, 0
15, 16225, Note_on_c, 12, 60, 0
15, 16440, Note_on_c, 12, 62, 80
15, 16441, Note_on_c, 12, 65, 80
15, 16442, Note_on_c, 12, 69, 80
15, 16465, Note_on_c, 12, 69, 0
15, 16465, Note_on_c, 12, 65, 0
15, 16465, Note_on_c, 12, 62, 0
15, 16680, Note_on_c, 12, 62, 80
15, 16681, Note_on_c, 12, 65, 80
15, 16682, Note_on_c, 12, 69, 80
15, 16705, Note_on_c, 12, 69, 0
15, 16705, Note_on_c, 12, 65, 0
15, 16705, Note_on_c, 12, 62, 0
15, 16920, Note_on_c, 12, 60, 80
15, 16921, Note_on_c, 12, 64, 80
15, 16922, Note_on_c, 12, 69, 80
15, 16945, Note_on_c, 12, 69, 0
15, 16945, Note_on_c, 12, 64, 0
15, 16945, Note_on_c, 12, 60, 0
15, 17160, Note_on_c, 12, 60, 80
15, 17161, Note_on_c, 12, 64, 80
15, 17162, Note_on_c, 12, 69, 80
15, 17185, Note_on_c, 12, 69, 0
15, 17185, Note_on_c, 12, 64, 0
15, 17185, Note_on_c, 12, 60, 0
15, 17400, Note_on_c, 12, 62, 80
15, 17401, Note_on_c, 12, 65, 80
15, 17402, Note_on_c, 12, 69, 80
15, 17425, Note_on_c, 12, 69, 0
15, 17425, Note_on_c, 12, 65, 0
15, 17425, Note_on_c, 12, 62, 0
15, 17640, Note_on_c, 12, 62, 80
15, 17641, Note_on_c, 12, 65, 80
15, 17642, Note_on_c, 12, 69, 80
15, 17665, Note_on_c, 12, 69, 0
15, 17665, Note_on_c, 12, 65, 0
15, 17665, Note_on_c, 12, 62, 0
15, 17880, Note_on_c, 12, 60, 80
15, 17881, Note_on_c, 12, 64, 80
15, 17882, Note_on_c, 12, 69, 80
15, 17905, Note_on_c, 12, 69, 0
15, 17905, Note_on_c, 12, 64, 0
15, 17905, Note_on_c, 12, 60, 0
15, 18120, Note_on_c, 12, 60, 80
15, 18121, Note_on_c, 12, 64, 80
15, 18122, Note_on_c, 12, 69, 80
15, 18145, Note_on_c, 12, 69, 0
15, 18145, Note_on_c, 12, 64, 0
15, 18145, Note_on_c, 12, 60, 0
15, 18360, Note_on_c, 12, 62, 80
15, 18361, Note_on_c, 12, 65, 80
15, 18362, Note_on_c, 12, 69, 80
15, 18385, Note_on_c, 12, 69, 0
15, 18385, Note_on_c, 12, 65, 0
15, 18385, Note_on_c, 12, 62, 0
15, 18600, Note_on_c, 12, 62, 80
15, 18601, Note_on_c, 12, 65, 80
15, 18602, Note_on_c, 12, 69, 80
15, 18625, Note_on_c, 12, 69, 0
15, 18625, Note_on_c, 12, 65, 0
15, 18625, Note_on_c, 12, 62, 0
15, 18840, Note_on_c, 12, 59, 80
15, 18841, Note_on_c, 12, 62, 80
15, 18842, Note_on_c, 12, 67, 80
15, 18865, Note_on_c, 12, 67, 0
15, 18865, Note_on_c, 12, 62, 0
15, 18865, Note_on_c, 12, 59, 0
15, 19080, Note_on_c, 12, 59, 80
15, 19081, Note_on_c, 12, 62, 80
15, 19082, Note_on_c, 12, 67, 80
15, 19105, Note_on_c, 12, 67, 0
15, 19105, Note_on_c, 12, 62, 0
15, 19105, Note_on_c, 12, 59, 0
15, 25080, Note_on_c, 12, 62, 100
15, 25081, Note_on_c, 12, 65, 100
15, 25082, Note_on_c, 12, 69, 100
15, 25105, Note_on_c, 12, 69, 0
15, 25105, Note_on_c, 12, 65, 0
15, 25105, Note_on_c, 12, 62, 0
15, 25320, Note_on_c, 12, 62, 100
15, 25321, Note_on_c, 12, 65, 100
15, 25322, Note_on_c, 12, 69, 100
15, 25345, Note_on_c, 12, 69, 0
15, 25345, Note_on_c, 12, 65, 0
15, 25345, Note_on_c, 12, 62, 0
15, 25560, Note_on_c, 12, 62, 100
15, 25561, Note_on_c, 12, 65, 100
15, 25562, Note_on_c, 12, 69, 100
15, 25585, Note_on_c, 12, 69, 0
15, 25585, Note_on_c, 12, 65, 0
15, 25585, Note_on_c, 12, 62, 0
15, 25800, Note_on_c, 12, 62, 100
15, 25801, Note_on_c, 12, 65, 100
15, 25802, Note_on_c, 12, 69, 100
15, 25825, Note_on_c, 12, 69, 0
15, 25825, Note_on_c, 12, 65, 0
15, 25825, Note_on_c, 12, 62, 0
15, 26040, Note_on_c, 12, 59, 100
15, 26041, Note_on_c, 12, 64, 100
15, 26042, Note_on_c, 12, 67, 100
15, 26065, Note_on_c, 12, 67, 0
15, 26065, Note_on_c, 12, 64, 0
15, 26065, Note_on_c, 12, 59, 0
15, 26280, Note_on_c, 12, 59, 100
15, 26281, Note_on_c, 12, 64, 100
15, 26282, Note_on_c, 12, 67, 100
15, 26305, Note_on_c, 12, 67, 0
15, 26305, Note_on_c, 12, 64, 0
15, 26305, Note_on_c, 12, 59, 0
15, 26520, Note_on_c, 12, 59, 100
15, 26521, Note_on_c, 12, 64, 100
15, 26522, Note_on_c, 12, 67, 100
15, 26545, Note_on_c, 12, 67, 0
15, 26545, Note_on_c, 12, 64, 0
15, 26545, Note_on_c, 12, 59, 0
15, 26760, Note_on_c, 12, 59, 100
15, 26761, Note_on_c, 12, 64, 100
15, 26762, Note_on_c, 12, 67, 100
15, 26785, Note_on_c, 12, 67, 0
15, 26785, Note_on_c, 12, 64, 0
15, 26785, Note_on_c, 12, 59, 0
15, 27000, Note_on_c, 12, 62, 100
15, 27001, Note_on_c, 12, 65, 100
15, 27002, Note_on_c, 12, 69, 100
15, 27025, Note_on_c, 12, 69, 0
15, 27025, Note_on_c, 12, 65, 0
15, 27025, Note_on_c, 12, 62, 0
15, 27240, Note_on_c, 12, 62, 100
15, 27241, Note_on_c, 12, 65, 100
15, 27242, Note_on_c, 12, 69, 100
15, 27265, Note_on_c, 12, 69, 0
15, 27265, Note_on_c, 12, 65, 0
15, 27265, Note_on_c, 12, 62, 0
15, 27480, Note_on_c, 12, 62, 100
15, 27481, Note_on_c, 12, 65, 100
15, 27482, Note_on_c, 12, 69, 100
15, 27505, Note_on_c, 12, 69, 0
15, 27505, Note_on_c, 12, 65, 0
15, 27505, Note_on_c, 12, 62, 0
15, 27720, Note_on_c, 12, 62, 100
15, 27721, Note_on_c, 12, 65, 100
15, 27722, Note_on_c, 12, 69, 100
15, 27745, Note_on_c, 12, 69, 0
15, 27745, Note_on_c, 12, 65, 0
15, 27745, Note_on_c, 12, 62, 0
15, 27960, Note_on_c, 12, 59, 100
15, 27961, Note_on_c, 12, 64, 100
15, 27962, Note_on_c, 12, 67, 100
15, 27985, Note_on_c, 12, 67, 0
15, 27985, Note_on_c, 12, 64, 0
15, 27985, Note_on_c, 12, 59, 0
15, 28200, Note_on_c, 12, 59, 100
15, 28201, Note_on_c, 12, 64, 100
15, 28202, Note_on_c, 12, 67, 100
15, 28225, Note_on_c, 12, 67, 0
15, 28225, Note_on_c, 12, 64, 0
15, 28225, Note_on_c, 12, 59, 0
15, 32760, Note_on_c, 12, 62, 100
15, 32761, Note_on_c, 12, 65, 100
15, 32762, Note_on_c, 12, 69, 100
15, 32785, Note_on_c, 12, 69, 0
15, 32785, Note_on_c, 12, 65, 0
15, 32785, Note_on_c, 12, 62, 0
15, 33000, Note_on_c, 12, 62, 100
15, 33001, Note_on_c, 12, 65, 100
15, 33002, Note_on_c, 12, 69, 100
15, 33025, Note_on_c, 12, 69, 0
15, 33025, Note_on_c, 12, 65, 0
15, 33025, Note_on_c, 12, 62, 0
15, 33240, Note_on_c, 12, 62, 100
15, 33241, Note_on_c, 12, 65, 100
15, 33242, Note_on_c, 12, 69, 100
15, 33265, Note_on_c, 12, 69, 0
15, 33265, Note_on_c, 12, 65, 0
15, 33265, Note_on_c, 12, 62, 0
15, 33480, Note_on_c, 12, 62, 100
15, 33481, Note_on_c, 12, 65, 100
15, 33482, Note_on_c, 12, 69, 100
15, 33505, Note_on_c, 12, 69, 0
15, 33505, Note_on_c, 12, 65, 0
15, 33505, Note_on_c, 12, 62, 0
15, 33720, Note_on_c, 12, 59, 100
15, 33721, Note_on_c, 12, 64, 100
15, 33722, Note_on_c, 12, 67, 100
15, 33745, Note_on_c, 12, 67, 0
15, 33745, Note_on_c, 12, 64, 0
15, 33745, Note_on_c, 12, 59, 0
15, 33960, Note_on_c, 12, 59, 100
15, 33961, Note_on_c, 12, 64, 100
15, 33962, Note_on_c, 12, 67, 100
15, 33985, Note_on_c, 12, 67, 0
15, 33985, Note_on_c, 12, 64, 0
15, 33985, Note_on_c, 12, 59, 0
15, 33985, End_track
16, 0, Start_track
16, 0, MIDI_port, 0
16, 0, Title_t, "Aint No Woman Like The One I Got"
16, 0, End_track
17, 0, Start_track
17, 0, MIDI_port, 0
17, 0, Title_t, "The Four Tops"
17, 0, End_track
18, 0, Start_track
18, 0, MIDI_port, 0
18, 0, Title_t, "Copyright   2000 VJ Miele"
18, 0, Control_c, 15, 1, 0
18, 10, Control_c, 15, 8, 64
18, 20, Control_c, 15, 11, 64
18, 120, Control_c, 15, 65, 0
18, 120, Control_c, 15, 67, 0
18, 120, Control_c, 15, 93, 0
18, 120, Control_c, 15, 91, 64
18, 120, Control_c, 15, 64, 0
18, 120, Pitch_bend_c, 15, 8192
18, 120, Control_c, 15, 68, 0
18, 120, End_track
19, 0, Start_track
19, 0, MIDI_port, 0
19, 0, Title_t, "the MidiStation"
19, 0, End_track
20, 0, Start_track
20, 0, MIDI_port, 0
20, 0, Title_t, "home of the best & worst of midi"
20, 0, End_track
21, 0, Start_track
21, 0, MIDI_port, 0
21, 0, Title_t, "http://members.xoom.com/flash100/index.htm"
21, 0, End_track
22, 0, Start_track
22, 0, MIDI_port, 0
22, 0, Title_t, "flash100@prodigy.net"
22, 0, End_track
23, 0, Start_track
23, 0, MIDI_port, 0
23, 0, Title_t, "Distributed freely provided"
23, 0, End_track
24, 0, Start_track
24, 0, MIDI_port, 0
24, 0, Title_t, "no alterations are made."
24, 0, End_track
0, 0, End_of_file
