0, 0, Header, 1, 5, 960
1, 0, Start_track
1, 0, Control_c, 0, 101, 0
1, 0, Control_c, 0, 100, 0
1, 0, Control_c, 0, 6, 12
1, 0, Control_c, 0, 38, 0
1, 0, Control_c, 1, 101, 0
1, 0, Control_c, 1, 100, 0
1, 0, Control_c, 1, 6, 12
1, 0, Control_c, 1, 38, 0
1, 0, Control_c, 2, 101, 0
1, 0, Control_c, 2, 100, 0
1, 0, Control_c, 2, 6, 12
1, 0, Control_c, 2, 38, 0
1, 0, Control_c, 3, 101, 0
1, 0, Control_c, 3, 100, 0
1, 0, Control_c, 3, 6, 12
1, 0, Control_c, 3, 38, 0
1, 0, Control_c, 4, 101, 0
1, 0, Control_c, 4, 100, 0
1, 0, Control_c, 4, 6, 12
1, 0, Control_c, 4, 38, 0
1, 0, Control_c, 5, 101, 0
1, 0, Control_c, 5, 100, 0
1, 0, Control_c, 5, 6, 12
1, 0, Control_c, 5, 38, 0
1, 0, Control_c, 6, 101, 0
1, 0, Control_c, 6, 100, 0
1, 0, Control_c, 6, 6, 12
1, 0, Control_c, 6, 38, 0
1, 0, Control_c, 7, 101, 0
1, 0, Control_c, 7, 100, 0
1, 0, Control_c, 7, 6, 12
1, 0, Control_c, 7, 38, 0
1, 0, Control_c, 8, 101, 0
1, 0, Control_c, 8, 100, 0
1, 0, Control_c, 8, 6, 12
1, 0, Control_c, 8, 38, 0
1, 0, Control_c, 9, 101, 0
1, 0, Control_c, 9, 100, 0
1, 0, Control_c, 9, 6, 12
1, 0, Control_c, 9, 38, 0
1, 0, Control_c, 10, 101, 0
1, 0, Control_c, 10, 100, 0
1, 0, Control_c, 10, 6, 12
1, 0, Control_c, 10, 38, 0
1, 0, Control_c, 11, 101, 0
1, 0, Control_c, 11, 100, 0
1, 0, Control_c, 11, 6, 12
1, 0, Control_c, 11, 38, 0
1, 0, Control_c, 12, 101, 0
1, 0, Control_c, 12, 100, 0
1, 0, Control_c, 12, 6, 12
1, 0, Control_c, 12, 38, 0
1, 0, Control_c, 13, 101, 0
1, 0, Control_c, 13, 100, 0
1, 0, Control_c, 13, 6, 12
1, 0, Control_c, 13, 38, 0
1, 0, Control_c, 14, 101, 0
1, 0, Control_c, 14, 100, 0
1, 0, Control_c, 14, 6, 12
1, 0, Control_c, 14, 38, 0
1, 0, Control_c, 15, 101, 0
1, 0, Control_c, 15, 100, 0
1, 0, Control_c, 15, 6, 12
1, 0, Control_c, 15, 38, 0
1, 0, Time_signature, 12, 3, 12, 8
1, 0, Tempo, 500000
1, 0, End_track
2, 0, Start_track
2, 0, Pitch_bend_c, 0, 8192
2, 0, Control_c, 0, 7, 127
2, 0, Control_c, 0, 10, 63
2, 0, Control_c, 0, 93, 0
2, 0, Control_c, 0, 91, 0
2, 0, Control_c, 0, 95, 0
2, 0, Control_c, 0, 92, 0
2, 0, Control_c, 0, 11, 127
2, 0, Program_c, 0, 24
2, 0, Control_c, 1, 7, 127
2, 0, Control_c, 1, 10, 63
2, 0, Control_c, 1, 93, 0
2, 0, Control_c, 1, 91, 0
2, 0, Control_c, 1, 95, 0
2, 0, Control_c, 1, 92, 0
2, 0, Control_c, 1, 11, 127
2, 0, Program_c, 1, 24
2, 1440, Note_on_c, 0, 40, 95
2, 2400, Note_off_c, 0, 40, 95
2, 2400, Note_on_c, 0, 40, 95
2, 2880, Note_off_c, 0, 40, 95
2, 2880, Note_on_c, 0, 41, 95
2, 3840, Note_off_c, 0, 41, 95
2, 3840, Note_on_c, 0, 41, 95
2, 4320, Note_off_c, 0, 41, 95
2, 4320, Note_on_c, 0, 42, 95
2, 5280, Note_off_c, 0, 42, 95
2, 5280, Note_on_c, 0, 64, 95
2, 5280, Note_on_c, 0, 59, 95
2, 5280, Note_on_c, 0, 55, 95
2, 5280, Note_on_c, 0, 50, 95
2, 5760, Note_off_c, 0, 64, 95
2, 5760, Note_off_c, 0, 59, 95
2, 5760, Note_off_c, 0, 55, 95
2, 5760, Note_off_c, 0, 50, 95
2, 5760, Note_on_c, 0, 64, 95
2, 5760, Note_on_c, 0, 60, 95
2, 5760, Note_on_c, 0, 55, 95
2, 5760, Note_on_c, 0, 52, 95
2, 5760, Note_on_c, 0, 48, 95
2, 6720, Note_off_c, 0, 64, 95
2, 6720, Note_off_c, 0, 60, 95
2, 6720, Note_off_c, 0, 55, 95
2, 6720, Note_off_c, 0, 52, 95
2, 6720, Note_off_c, 0, 48, 95
2, 6720, Note_on_c, 0, 52, 95
2, 6720, Note_on_c, 0, 48, 95
2, 7200, Note_off_c, 0, 52, 95
2, 7200, Note_off_c, 0, 48, 95
2, 7200, Note_on_c, 0, 64, 95
2, 7200, Note_on_c, 0, 60, 95
2, 7200, Note_on_c, 0, 55, 95
2, 7200, Note_on_c, 0, 52, 47
2, 7680, Note_off_c, 0, 64, 95
2, 7680, Note_off_c, 0, 60, 95
2, 7680, Note_off_c, 0, 55, 95
2, 7680, Note_off_c, 0, 52, 47
2, 7680, Note_on_c, 0, 64, 95
2, 7680, Note_on_c, 0, 60, 95
2, 7680, Note_on_c, 0, 55, 95
2, 7680, Note_on_c, 0, 52, 47
2, 8160, Note_off_c, 0, 64, 95
2, 8160, Note_off_c, 0, 60, 95
2, 8160, Note_off_c, 0, 55, 95
2, 8160, Note_off_c, 0, 52, 47
2, 8160, Note_on_c, 0, 64, 95
2, 8160, Note_on_c, 0, 60, 95
2, 8160, Note_on_c, 0, 55, 95
2, 8160, Note_on_c, 0, 52, 47
2, 8640, Note_off_c, 0, 64, 95
2, 8640, Note_off_c, 0, 60, 95
2, 8640, Note_off_c, 0, 55, 95
2, 8640, Note_off_c, 0, 52, 47
2, 8640, Note_on_c, 0, 64, 95
2, 8640, Note_on_c, 0, 60, 95
2, 8640, Note_on_c, 0, 55, 95
2, 8640, Note_on_c, 0, 52, 95
2, 8640, Note_on_c, 0, 48, 95
2, 9120, Note_off_c, 0, 64, 95
2, 9120, Note_off_c, 0, 60, 95
2, 9120, Note_off_c, 0, 55, 95
2, 9120, Note_off_c, 0, 52, 95
2, 9120, Note_off_c, 0, 48, 95
2, 9120, Note_on_c, 0, 64, 95
2, 9120, Note_on_c, 0, 60, 95
2, 9120, Note_on_c, 0, 55, 95
2, 9120, Note_on_c, 0, 52, 47
2, 9600, Note_off_c, 0, 64, 95
2, 9600, Note_off_c, 0, 60, 95
2, 9600, Note_off_c, 0, 55, 95
2, 9600, Note_off_c, 0, 52, 47
2, 9600, Note_on_c, 0, 64, 95
2, 9600, Note_on_c, 0, 60, 95
2, 9600, Note_on_c, 0, 55, 95
2, 9600, Note_on_c, 0, 52, 95
2, 9600, Note_on_c, 0, 48, 95
2, 10080, Note_off_c, 0, 64, 95
2, 10080, Note_off_c, 0, 60, 95
2, 10080, Note_off_c, 0, 55, 95
2, 10080, Note_off_c, 0, 52, 95
2, 10080, Note_off_c, 0, 48, 95
2, 10080, Note_on_c, 0, 64, 95
2, 10080, Note_on_c, 0, 60, 95
2, 10080, Note_on_c, 0, 55, 95
2, 10080, Note_on_c, 0, 52, 95
2, 10080, Note_on_c, 0, 48, 95
2, 10560, Note_off_c, 0, 64, 95
2, 10560, Note_off_c, 0, 60, 95
2, 10560, Note_off_c, 0, 55, 95
2, 10560, Note_off_c, 0, 52, 95
2, 10560, Note_off_c, 0, 48, 95
2, 10560, Note_on_c, 0, 64, 95
2, 10560, Note_on_c, 0, 60, 95
2, 10560, Note_on_c, 0, 55, 95
2, 10560, Note_on_c, 0, 47, 95
2, 11040, Note_off_c, 0, 64, 95
2, 11040, Note_off_c, 0, 60, 95
2, 11040, Note_off_c, 0, 55, 95
2, 11040, Note_off_c, 0, 47, 95
2, 11040, Note_on_c, 0, 59, 95
2, 11040, Note_on_c, 0, 55, 95
2, 11040, Note_on_c, 0, 50, 95
2, 11040, Note_on_c, 0, 45, 95
2, 11520, Note_off_c, 0, 59, 95
2, 11520, Note_off_c, 0, 55, 95
2, 11520, Note_off_c, 0, 50, 95
2, 11520, Note_off_c, 0, 45, 95
2, 11520, Note_on_c, 0, 55, 95
2, 11520, Note_on_c, 0, 50, 95
2, 11520, Note_on_c, 0, 47, 95
2, 11520, Note_on_c, 0, 43, 95
2, 12000, Note_off_c, 0, 55, 95
2, 12000, Note_off_c, 0, 50, 95
2, 12000, Note_off_c, 0, 47, 95
2, 12000, Note_off_c, 0, 43, 95
2, 12000, Note_on_c, 0, 67, 95
2, 12000, Note_on_c, 0, 59, 95
2, 12000, Note_on_c, 0, 55, 95
2, 12000, Note_on_c, 0, 50, 95
2, 12480, Note_off_c, 0, 67, 95
2, 12480, Note_off_c, 0, 59, 95
2, 12480, Note_off_c, 0, 55, 95
2, 12480, Note_off_c, 0, 50, 95
2, 12480, Note_on_c, 0, 67, 95
2, 12480, Note_on_c, 0, 59, 95
2, 12480, Note_on_c, 0, 55, 95
2, 12480, Note_on_c, 0, 50, 95
2, 12840, Note_on_c, 1, 45, 95
2, 12960, Note_off_c, 0, 67, 95
2, 12960, Note_off_c, 0, 59, 95
2, 12960, Note_off_c, 0, 55, 95
2, 12960, Note_off_c, 0, 50, 95
2, 12960, Note_off_c, 1, 45, 95
2, 12960, Note_on_c, 1, 47, 95
2, 13440, Note_off_c, 1, 47, 95
2, 13440, Note_on_c, 0, 50, 95
2, 13920, Note_off_c, 0, 50, 95
2, 13920, Note_on_c, 0, 50, 95
2, 14280, Note_on_c, 1, 50, 95
2, 14400, Note_off_c, 0, 50, 95
2, 14400, Note_off_c, 1, 50, 95
2, 14400, Note_on_c, 1, 52, 95
2, 14880, Note_off_c, 1, 52, 95
2, 14880, Note_on_c, 0, 55, 95
2, 15360, Note_off_c, 0, 55, 95
2, 15360, Note_on_c, 0, 52, 95
2, 15840, Note_off_c, 0, 52, 95
2, 15840, Note_on_c, 0, 55, 95
2, 16320, Note_off_c, 0, 55, 95
2, 16320, Note_on_c, 0, 52, 95
2, 16800, Note_off_c, 0, 52, 95
2, 16800, Note_on_c, 0, 55, 95
2, 16800, Note_on_c, 0, 50, 95
2, 17280, Note_off_c, 0, 55, 95
2, 17280, Note_off_c, 0, 50, 95
2, 17280, Note_on_c, 0, 64, 95
2, 17280, Note_on_c, 0, 60, 95
2, 17280, Note_on_c, 0, 55, 95
2, 17280, Note_on_c, 0, 52, 95
2, 17280, Note_on_c, 0, 48, 95
2, 18240, Note_off_c, 0, 64, 95
2, 18240, Note_off_c, 0, 60, 95
2, 18240, Note_off_c, 0, 55, 95
2, 18240, Note_off_c, 0, 52, 95
2, 18240, Note_off_c, 0, 48, 95
2, 18240, Note_on_c, 0, 64, 95
2, 18240, Note_on_c, 0, 60, 95
2, 18240, Note_on_c, 0, 55, 95
2, 18240, Note_on_c, 0, 52, 95
2, 18240, Note_on_c, 0, 48, 95
2, 18720, Note_off_c, 0, 64, 95
2, 18720, Note_off_c, 0, 60, 95
2, 18720, Note_off_c, 0, 55, 95
2, 18720, Note_off_c, 0, 52, 95
2, 18720, Note_off_c, 0, 48, 95
2, 18720, Note_on_c, 0, 64, 95
2, 18720, Note_on_c, 0, 60, 95
2, 18720, Note_on_c, 0, 55, 95
2, 18720, Note_on_c, 0, 52, 95
2, 18720, Note_on_c, 0, 48, 95
2, 19200, Note_off_c, 0, 64, 95
2, 19200, Note_off_c, 0, 60, 95
2, 19200, Note_off_c, 0, 55, 95
2, 19200, Note_off_c, 0, 52, 95
2, 19200, Note_off_c, 0, 48, 95
2, 19200, Note_on_c, 0, 64, 95
2, 19200, Note_on_c, 0, 60, 95
2, 19200, Note_on_c, 0, 55, 95
2, 19200, Note_on_c, 0, 47, 95
2, 19680, Note_off_c, 0, 64, 95
2, 19680, Note_off_c, 0, 60, 95
2, 19680, Note_off_c, 0, 55, 95
2, 19680, Note_off_c, 0, 47, 95
2, 19680, Note_on_c, 0, 59, 95
2, 19680, Note_on_c, 0, 55, 95
2, 19680, Note_on_c, 0, 50, 95
2, 19680, Note_on_c, 0, 45, 95
2, 20160, Note_off_c, 0, 59, 95
2, 20160, Note_off_c, 0, 55, 95
2, 20160, Note_off_c, 0, 50, 95
2, 20160, Note_off_c, 0, 45, 95
2, 20160, Note_on_c, 0, 59, 95
2, 20160, Note_on_c, 0, 55, 95
2, 20160, Note_on_c, 0, 50, 95
2, 20160, Note_on_c, 0, 47, 95
2, 20160, Note_on_c, 0, 43, 95
2, 20640, Note_off_c, 0, 59, 95
2, 20640, Note_off_c, 0, 55, 95
2, 20640, Note_off_c, 0, 50, 95
2, 20640, Note_off_c, 0, 47, 95
2, 20640, Note_off_c, 0, 43, 95
2, 20640, Note_on_c, 0, 67, 95
2, 20640, Note_on_c, 0, 59, 95
2, 20640, Note_on_c, 0, 55, 95
2, 20640, Note_on_c, 0, 50, 95
2, 21120, Note_off_c, 0, 67, 95
2, 21120, Note_off_c, 0, 59, 95
2, 21120, Note_off_c, 0, 55, 95
2, 21120, Note_off_c, 0, 50, 95
2, 21120, Note_on_c, 0, 67, 95
2, 21120, Note_on_c, 0, 59, 95
2, 21120, Note_on_c, 0, 55, 95
2, 21120, Note_on_c, 0, 50, 95
2, 21600, Note_off_c, 0, 67, 95
2, 21600, Note_off_c, 0, 59, 95
2, 21600, Note_off_c, 0, 55, 95
2, 21600, Note_off_c, 0, 50, 95
2, 21600, Note_on_c, 0, 43, 95
2, 22080, Note_off_c, 0, 43, 95
2, 22080, Note_on_c, 0, 45, 95
2, 22560, Note_off_c, 0, 45, 95
2, 22560, Note_on_c, 0, 47, 95
2, 23040, Note_off_c, 0, 47, 95
2, 23040, Note_on_c, 0, 48, 95
2, 24000, Note_off_c, 0, 48, 95
2, 24000, Note_on_c, 0, 64, 95
2, 24000, Note_on_c, 0, 60, 95
2, 24360, Note_on_c, 1, 50, 95
2, 24480, Note_off_c, 0, 64, 95
2, 24480, Note_off_c, 0, 60, 95
2, 24480, Note_on_c, 0, 60, 47
2, 24480, Note_on_c, 0, 55, 95
2, 24480, Note_off_c, 1, 50, 95
2, 24480, Note_on_c, 1, 52, 95
2, 25440, Note_off_c, 0, 60, 47
2, 25440, Note_off_c, 0, 55, 95
2, 25440, Note_off_c, 1, 52, 95
2, 25440, Note_on_c, 0, 52, 95
2, 25440, Note_on_c, 0, 48, 95
2, 25920, Note_off_c, 0, 52, 95
2, 25920, Note_off_c, 0, 48, 95
2, 25920, Note_on_c, 0, 60, 95
2, 25920, Note_on_c, 0, 58, 95
2, 25920, Note_on_c, 0, 52, 95
2, 26880, Note_off_c, 0, 60, 95
2, 26880, Note_off_c, 0, 58, 95
2, 26880, Note_off_c, 0, 52, 95
2, 26880, Note_on_c, 0, 60, 95
2, 26880, Note_on_c, 0, 58, 95
2, 26880, Note_on_c, 0, 50, 95
2, 26880, Note_on_c, 0, 48, 95
2, 27840, Note_off_c, 0, 60, 95
2, 27840, Note_off_c, 0, 58, 95
2, 27840, Note_off_c, 0, 50, 95
2, 27840, Note_off_c, 0, 48, 95
2, 27840, Note_on_c, 0, 48, 95
2, 28320, Note_off_c, 0, 48, 95
2, 28320, Note_on_c, 0, 46, 95
2, 28800, Note_off_c, 0, 46, 95
2, 28800, Note_on_c, 0, 41, 95
2, 29760, Note_off_c, 0, 41, 95
2, 29760, Note_on_c, 0, 65, 95
2, 29760, Note_on_c, 0, 60, 95
2, 29760, Note_on_c, 0, 57, 95
2, 29760, Note_on_c, 0, 53, 95
2, 30240, Note_off_c, 0, 65, 95
2, 30240, Note_off_c, 0, 60, 95
2, 30240, Note_off_c, 0, 57, 95
2, 30240, Note_off_c, 0, 53, 95
2, 30240, Note_on_c, 0, 65, 95
2, 30240, Note_on_c, 0, 60, 95
2, 30240, Note_on_c, 0, 57, 95
2, 30240, Note_on_c, 0, 53, 95
2, 30240, Note_on_c, 0, 41, 95
2, 30720, Note_off_c, 0, 65, 95
2, 30720, Note_off_c, 0, 60, 95
2, 30720, Note_off_c, 0, 57, 95
2, 30720, Note_off_c, 0, 53, 95
2, 30720, Note_off_c, 0, 41, 95
2, 30720, Note_on_c, 0, 65, 95
2, 30720, Note_on_c, 0, 60, 95
2, 30720, Note_on_c, 0, 57, 95
2, 30720, Note_on_c, 0, 53, 95
2, 30720, Note_on_c, 0, 41, 47
2, 31200, Note_off_c, 0, 65, 95
2, 31200, Note_off_c, 0, 60, 95
2, 31200, Note_off_c, 0, 57, 95
2, 31200, Note_off_c, 0, 53, 95
2, 31200, Note_off_c, 0, 41, 47
2, 31200, Note_on_c, 0, 65, 95
2, 31200, Note_on_c, 0, 60, 95
2, 31200, Note_on_c, 0, 57, 95
2, 31200, Note_on_c, 0, 53, 95
2, 31200, Note_on_c, 0, 41, 47
2, 31680, Note_off_c, 0, 65, 95
2, 31680, Note_off_c, 0, 60, 95
2, 31680, Note_off_c, 0, 57, 95
2, 31680, Note_off_c, 0, 53, 95
2, 31680, Note_off_c, 0, 41, 47
2, 31680, Note_on_c, 0, 65, 95
2, 31680, Note_on_c, 0, 60, 95
2, 31680, Note_on_c, 0, 57, 95
2, 31680, Note_on_c, 0, 53, 95
2, 31680, Note_on_c, 0, 41, 95
2, 32160, Note_off_c, 0, 65, 95
2, 32160, Note_off_c, 0, 60, 95
2, 32160, Note_off_c, 0, 57, 95
2, 32160, Note_off_c, 0, 53, 95
2, 32160, Note_off_c, 0, 41, 95
2, 32160, Note_on_c, 0, 65, 95
2, 32160, Note_on_c, 0, 60, 95
2, 32160, Note_on_c, 0, 57, 95
2, 32160, Note_on_c, 0, 53, 95
2, 32160, Note_on_c, 0, 41, 47
2, 32640, Note_off_c, 0, 65, 95
2, 32640, Note_off_c, 0, 60, 95
2, 32640, Note_off_c, 0, 57, 95
2, 32640, Note_off_c, 0, 53, 95
2, 32640, Note_off_c, 0, 41, 47
2, 32640, Note_on_c, 0, 65, 95
2, 32640, Note_on_c, 0, 60, 95
2, 32640, Note_on_c, 0, 57, 95
2, 32640, Note_on_c, 0, 53, 95
2, 32640, Note_on_c, 0, 41, 47
2, 33120, Note_off_c, 0, 65, 95
2, 33120, Note_off_c, 0, 60, 95
2, 33120, Note_off_c, 0, 57, 95
2, 33120, Note_off_c, 0, 53, 95
2, 33120, Note_off_c, 0, 41, 47
2, 33120, Note_on_c, 0, 65, 95
2, 33120, Note_on_c, 0, 60, 95
2, 33120, Note_on_c, 0, 57, 95
2, 33120, Note_on_c, 0, 53, 95
2, 33120, Note_on_c, 0, 41, 95
2, 33600, Note_off_c, 0, 65, 95
2, 33600, Note_off_c, 0, 60, 95
2, 33600, Note_off_c, 0, 57, 95
2, 33600, Note_off_c, 0, 53, 95
2, 33600, Note_off_c, 0, 41, 95
2, 33600, Note_on_c, 0, 65, 95
2, 33600, Note_on_c, 0, 60, 95
2, 33600, Note_on_c, 0, 57, 95
2, 33600, Note_on_c, 0, 53, 95
2, 33600, Note_on_c, 0, 41, 47
2, 34080, Note_off_c, 0, 65, 95
2, 34080, Note_off_c, 0, 60, 95
2, 34080, Note_off_c, 0, 57, 95
2, 34080, Note_off_c, 0, 53, 95
2, 34080, Note_off_c, 0, 41, 47
2, 34080, Note_on_c, 0, 65, 95
2, 34080, Note_on_c, 0, 60, 95
2, 34080, Note_on_c, 0, 57, 95
2, 34080, Note_on_c, 0, 53, 95
2, 34080, Note_on_c, 0, 41, 47
2, 34560, Note_off_c, 0, 65, 95
2, 34560, Note_off_c, 0, 60, 95
2, 34560, Note_off_c, 0, 57, 95
2, 34560, Note_off_c, 0, 53, 95
2, 34560, Note_off_c, 0, 41, 47
2, 34560, Note_on_c, 0, 65, 95
2, 34560, Note_on_c, 0, 60, 95
2, 34560, Note_on_c, 0, 57, 95
2, 34560, Note_on_c, 0, 53, 95
2, 34560, Note_on_c, 0, 41, 95
2, 35040, Note_off_c, 0, 65, 95
2, 35040, Note_off_c, 0, 60, 95
2, 35040, Note_off_c, 0, 57, 95
2, 35040, Note_off_c, 0, 53, 95
2, 35040, Note_off_c, 0, 41, 95
2, 35040, Note_on_c, 0, 65, 95
2, 35040, Note_on_c, 0, 60, 95
2, 35040, Note_on_c, 0, 57, 95
2, 35040, Note_on_c, 0, 53, 95
2, 35040, Note_on_c, 0, 41, 47
2, 35520, Note_off_c, 0, 65, 95
2, 35520, Note_off_c, 0, 60, 95
2, 35520, Note_off_c, 0, 57, 95
2, 35520, Note_off_c, 0, 53, 95
2, 35520, Note_off_c, 0, 41, 47
2, 35520, Note_on_c, 0, 65, 95
2, 35520, Note_on_c, 0, 60, 95
2, 35520, Note_on_c, 0, 57, 95
2, 35520, Note_on_c, 0, 53, 95
2, 35520, Note_on_c, 0, 41, 47
2, 36000, Note_off_c, 0, 65, 95
2, 36000, Note_off_c, 0, 60, 95
2, 36000, Note_off_c, 0, 57, 95
2, 36000, Note_off_c, 0, 53, 95
2, 36000, Note_off_c, 0, 41, 47
2, 36000, Note_on_c, 0, 65, 95
2, 36000, Note_on_c, 0, 60, 95
2, 36000, Note_on_c, 0, 57, 95
2, 36000, Note_on_c, 0, 53, 95
2, 36000, Note_on_c, 0, 41, 95
2, 36480, Note_off_c, 0, 65, 95
2, 36480, Note_off_c, 0, 60, 95
2, 36480, Note_off_c, 0, 57, 95
2, 36480, Note_off_c, 0, 53, 95
2, 36480, Note_off_c, 0, 41, 95
2, 36480, Note_on_c, 0, 65, 95
2, 36480, Note_on_c, 0, 60, 95
2, 36480, Note_on_c, 0, 57, 95
2, 36480, Note_on_c, 0, 53, 95
2, 36480, Note_on_c, 0, 41, 47
2, 36960, Note_off_c, 0, 65, 95
2, 36960, Note_off_c, 0, 60, 95
2, 36960, Note_off_c, 0, 57, 95
2, 36960, Note_off_c, 0, 53, 95
2, 36960, Note_off_c, 0, 41, 47
2, 36960, Note_on_c, 0, 65, 95
2, 36960, Note_on_c, 0, 60, 95
2, 36960, Note_on_c, 0, 57, 95
2, 36960, Note_on_c, 0, 53, 95
2, 36960, Note_on_c, 0, 41, 47
2, 37440, Note_off_c, 0, 65, 95
2, 37440, Note_off_c, 0, 60, 95
2, 37440, Note_off_c, 0, 57, 95
2, 37440, Note_off_c, 0, 53, 95
2, 37440, Note_off_c, 0, 41, 47
2, 37440, Note_on_c, 0, 65, 95
2, 37440, Note_on_c, 0, 60, 95
2, 37440, Note_on_c, 0, 57, 95
2, 37440, Note_on_c, 0, 53, 95
2, 37440, Note_on_c, 0, 41, 95
2, 37920, Note_off_c, 0, 65, 95
2, 37920, Note_off_c, 0, 60, 95
2, 37920, Note_off_c, 0, 57, 95
2, 37920, Note_off_c, 0, 53, 95
2, 37920, Note_off_c, 0, 41, 95
2, 37920, Note_on_c, 0, 65, 95
2, 37920, Note_on_c, 0, 60, 95
2, 37920, Note_on_c, 0, 57, 95
2, 37920, Note_on_c, 0, 53, 95
2, 37920, Note_on_c, 0, 41, 47
2, 38880, Note_off_c, 0, 65, 95
2, 38880, Note_off_c, 0, 60, 95
2, 38880, Note_off_c, 0, 57, 95
2, 38880, Note_off_c, 0, 53, 95
2, 38880, Note_off_c, 0, 41, 47
2, 38880, Note_on_c, 0, 65, 95
2, 38880, Note_on_c, 0, 60, 95
2, 38880, Note_on_c, 0, 57, 95
2, 38880, Note_on_c, 0, 53, 95
2, 38880, Note_on_c, 0, 41, 95
2, 39360, Note_off_c, 0, 65, 95
2, 39360, Note_off_c, 0, 60, 95
2, 39360, Note_off_c, 0, 57, 95
2, 39360, Note_off_c, 0, 53, 95
2, 39360, Note_off_c, 0, 41, 95
2, 39360, Note_on_c, 0, 65, 95
2, 39360, Note_on_c, 0, 60, 95
2, 39360, Note_on_c, 0, 57, 95
2, 39360, Note_on_c, 0, 53, 95
2, 39360, Note_on_c, 0, 41, 47
2, 39840, Note_off_c, 0, 65, 95
2, 39840, Note_off_c, 0, 60, 95
2, 39840, Note_off_c, 0, 57, 95
2, 39840, Note_off_c, 0, 53, 95
2, 39840, Note_off_c, 0, 41, 47
2, 39840, Note_on_c, 0, 64, 95
2, 39840, Note_on_c, 0, 59, 95
2, 39840, Note_on_c, 0, 55, 95
2, 39840, Note_on_c, 0, 50, 95
2, 40320, Note_off_c, 0, 64, 95
2, 40320, Note_off_c, 0, 59, 95
2, 40320, Note_off_c, 0, 55, 95
2, 40320, Note_off_c, 0, 50, 95
2, 40320, Note_on_c, 0, 64, 95
2, 40320, Note_on_c, 0, 60, 95
2, 40320, Note_on_c, 0, 55, 95
2, 40320, Note_on_c, 0, 52, 95
2, 40320, Note_on_c, 0, 48, 95
2, 41280, Note_off_c, 0, 64, 95
2, 41280, Note_off_c, 0, 60, 95
2, 41280, Note_off_c, 0, 55, 95
2, 41280, Note_off_c, 0, 52, 95
2, 41280, Note_off_c, 0, 48, 95
2, 41280, Note_on_c, 0, 64, 95
2, 41280, Note_on_c, 0, 60, 95
2, 41280, Note_on_c, 0, 55, 95
2, 41280, Note_on_c, 0, 52, 95
2, 41280, Note_on_c, 0, 48, 95
2, 41760, Note_off_c, 0, 64, 95
2, 41760, Note_off_c, 0, 60, 95
2, 41760, Note_off_c, 0, 55, 95
2, 41760, Note_off_c, 0, 52, 95
2, 41760, Note_off_c, 0, 48, 95
2, 41760, Note_on_c, 0, 48, 95
2, 42240, Note_off_c, 0, 48, 95
2, 42240, Note_on_c, 0, 47, 95
2, 42720, Note_off_c, 0, 47, 95
2, 42720, Note_on_c, 0, 45, 95
2, 43200, Note_off_c, 0, 45, 95
2, 43200, Note_on_c, 0, 43, 95
2, 44160, Note_off_c, 0, 43, 95
2, 44160, Note_on_c, 0, 67, 95
2, 44160, Note_on_c, 0, 59, 95
2, 44160, Note_on_c, 0, 55, 95
2, 44160, Note_on_c, 0, 50, 95
2, 44640, Note_off_c, 0, 67, 95
2, 44640, Note_off_c, 0, 59, 95
2, 44640, Note_off_c, 0, 55, 95
2, 44640, Note_off_c, 0, 50, 95
2, 44640, Note_on_c, 0, 43, 95
2, 45120, Note_off_c, 0, 43, 95
2, 45120, Note_on_c, 0, 45, 95
2, 45600, Note_off_c, 0, 45, 95
2, 45600, Note_on_c, 0, 47, 95
2, 46080, Note_off_c, 0, 47, 95
2, 46080, Note_on_c, 0, 48, 95
2, 47040, Note_off_c, 0, 48, 95
2, 47040, Note_on_c, 0, 64, 95
2, 47040, Note_on_c, 0, 60, 95
2, 47400, Note_on_c, 1, 50, 95
2, 47520, Note_off_c, 0, 64, 95
2, 47520, Note_off_c, 0, 60, 95
2, 47520, Note_off_c, 1, 50, 95
2, 47520, Note_on_c, 1, 52, 95
2, 48480, Note_off_c, 1, 52, 95
2, 48480, Note_on_c, 0, 55, 95
2, 48840, Note_on_c, 1, 55, 95
2, 48960, Note_off_c, 0, 55, 95
2, 48960, Note_off_c, 1, 55, 95
2, 48960, Note_on_c, 1, 57, 95
2, 49920, Note_off_c, 1, 57, 95
2, 49920, Note_on_c, 0, 55, 95
2, 50880, Note_off_c, 0, 55, 95
2, 50880, Note_on_c, 0, 50, 95
2, 51120, Note_off_c, 0, 50, 95
2, 51120, Note_on_c, 0, 52, 70
2, 51360, Note_off_c, 0, 52, 70
2, 51360, Note_on_c, 0, 55, 95
2, 51840, Note_off_c, 0, 55, 95
2, 51840, Note_on_c, 0, 55, 95
2, 51840, Note_on_c, 0, 50, 95
2, 51840, Note_on_c, 0, 47, 95
2, 51840, Note_on_c, 0, 43, 95
2, 52800, Note_off_c, 0, 55, 95
2, 52800, Note_off_c, 0, 50, 95
2, 52800, Note_off_c, 0, 47, 95
2, 52800, Note_off_c, 0, 43, 95
2, 52800, Note_on_c, 0, 67, 95
2, 52800, Note_on_c, 0, 59, 95
2, 52800, Note_on_c, 0, 55, 95
2, 52800, Note_on_c, 0, 50, 95
2, 53280, Note_off_c, 0, 67, 95
2, 53280, Note_off_c, 0, 59, 95
2, 53280, Note_off_c, 0, 55, 95
2, 53280, Note_off_c, 0, 50, 95
2, 53280, Note_on_c, 0, 67, 95
2, 53280, Note_on_c, 0, 59, 95
2, 53280, Note_on_c, 0, 55, 95
2, 53280, Note_on_c, 0, 50, 95
2, 53280, Note_on_c, 0, 47, 95
2, 53280, Note_on_c, 0, 43, 95
2, 53760, Note_off_c, 0, 67, 95
2, 53760, Note_off_c, 0, 59, 95
2, 53760, Note_off_c, 0, 55, 95
2, 53760, Note_off_c, 0, 50, 95
2, 53760, Note_off_c, 0, 47, 95
2, 53760, Note_off_c, 0, 43, 95
2, 53760, Note_on_c, 0, 67, 95
2, 53760, Note_on_c, 0, 59, 95
2, 53760, Note_on_c, 0, 55, 95
2, 53760, Note_on_c, 0, 50, 95
2, 53760, Note_on_c, 0, 47, 95
2, 53760, Note_on_c, 0, 43, 95
2, 54240, Note_off_c, 0, 67, 95
2, 54240, Note_off_c, 0, 59, 95
2, 54240, Note_off_c, 0, 55, 95
2, 54240, Note_off_c, 0, 50, 95
2, 54240, Note_off_c, 0, 47, 95
2, 54240, Note_off_c, 0, 43, 95
2, 54240, Note_on_c, 0, 67, 95
2, 54240, Note_on_c, 0, 59, 95
2, 54240, Note_on_c, 0, 55, 95
2, 54240, Note_on_c, 0, 50, 95
2, 54240, Note_on_c, 0, 47, 95
2, 54240, Note_on_c, 0, 43, 95
2, 54720, Note_off_c, 0, 67, 95
2, 54720, Note_off_c, 0, 59, 95
2, 54720, Note_off_c, 0, 55, 95
2, 54720, Note_off_c, 0, 50, 95
2, 54720, Note_off_c, 0, 47, 95
2, 54720, Note_off_c, 0, 43, 95
2, 54720, Note_on_c, 0, 67, 95
2, 54720, Note_on_c, 0, 59, 95
2, 54720, Note_on_c, 0, 55, 95
2, 54720, Note_on_c, 0, 50, 95
2, 54720, Note_on_c, 0, 47, 95
2, 54720, Note_on_c, 0, 43, 95
2, 55200, Note_off_c, 0, 67, 95
2, 55200, Note_off_c, 0, 59, 95
2, 55200, Note_off_c, 0, 55, 95
2, 55200, Note_off_c, 0, 50, 95
2, 55200, Note_off_c, 0, 47, 95
2, 55200, Note_off_c, 0, 43, 95
2, 55200, Note_on_c, 0, 67, 95
2, 55200, Note_on_c, 0, 59, 95
2, 55200, Note_on_c, 0, 55, 95
2, 55200, Note_on_c, 0, 50, 95
2, 55200, Note_on_c, 0, 47, 95
2, 55200, Note_on_c, 0, 43, 95
2, 55680, Note_off_c, 0, 67, 95
2, 55680, Note_off_c, 0, 59, 95
2, 55680, Note_off_c, 0, 55, 95
2, 55680, Note_off_c, 0, 50, 95
2, 55680, Note_off_c, 0, 47, 95
2, 55680, Note_off_c, 0, 43, 95
2, 55680, Note_on_c, 0, 67, 95
2, 55680, Note_on_c, 0, 59, 95
2, 55680, Note_on_c, 0, 55, 95
2, 55680, Note_on_c, 0, 50, 95
2, 55680, Note_on_c, 0, 47, 95
2, 55680, Note_on_c, 0, 43, 95
2, 56160, Note_off_c, 0, 67, 95
2, 56160, Note_off_c, 0, 59, 95
2, 56160, Note_off_c, 0, 55, 95
2, 56160, Note_off_c, 0, 50, 95
2, 56160, Note_off_c, 0, 47, 95
2, 56160, Note_off_c, 0, 43, 95
2, 56160, Note_on_c, 0, 67, 95
2, 56160, Note_on_c, 0, 59, 95
2, 56160, Note_on_c, 0, 55, 95
2, 56160, Note_on_c, 0, 50, 95
2, 56160, Note_on_c, 0, 47, 95
2, 56160, Note_on_c, 0, 43, 95
2, 56640, Note_off_c, 0, 67, 95
2, 56640, Note_off_c, 0, 59, 95
2, 56640, Note_off_c, 0, 55, 95
2, 56640, Note_off_c, 0, 50, 95
2, 56640, Note_off_c, 0, 47, 95
2, 56640, Note_off_c, 0, 43, 95
2, 56640, Note_on_c, 0, 67, 95
2, 56640, Note_on_c, 0, 59, 95
2, 56640, Note_on_c, 0, 55, 95
2, 56640, Note_on_c, 0, 50, 95
2, 56640, Note_on_c, 0, 47, 95
2, 56640, Note_on_c, 0, 43, 95
2, 57120, Note_off_c, 0, 67, 95
2, 57120, Note_off_c, 0, 59, 95
2, 57120, Note_off_c, 0, 55, 95
2, 57120, Note_off_c, 0, 50, 95
2, 57120, Note_off_c, 0, 47, 95
2, 57120, Note_off_c, 0, 43, 95
2, 57120, Note_on_c, 0, 67, 95
2, 57120, Note_on_c, 0, 59, 95
2, 57120, Note_on_c, 0, 55, 95
2, 57120, Note_on_c, 0, 50, 95
2, 57120, Note_on_c, 0, 47, 95
2, 57120, Note_on_c, 0, 43, 95
2, 57600, Note_off_c, 0, 67, 95
2, 57600, Note_off_c, 0, 59, 95
2, 57600, Note_off_c, 0, 55, 95
2, 57600, Note_off_c, 0, 50, 95
2, 57600, Note_off_c, 0, 47, 95
2, 57600, Note_off_c, 0, 43, 95
2, 57600, Note_on_c, 0, 67, 95
2, 57600, Note_on_c, 0, 59, 95
2, 57600, Note_on_c, 0, 55, 95
2, 57600, Note_on_c, 0, 50, 95
2, 57600, Note_on_c, 0, 47, 95
2, 57600, Note_on_c, 0, 43, 95
2, 58080, Note_off_c, 0, 67, 95
2, 58080, Note_off_c, 0, 59, 95
2, 58080, Note_off_c, 0, 55, 95
2, 58080, Note_off_c, 0, 50, 95
2, 58080, Note_off_c, 0, 47, 95
2, 58080, Note_off_c, 0, 43, 95
2, 58080, Note_on_c, 0, 67, 95
2, 58080, Note_on_c, 0, 59, 95
2, 58080, Note_on_c, 0, 55, 95
2, 58080, Note_on_c, 0, 50, 95
2, 58080, Note_on_c, 0, 47, 95
2, 58080, Note_on_c, 0, 43, 95
2, 58560, Note_off_c, 0, 67, 95
2, 58560, Note_off_c, 0, 59, 95
2, 58560, Note_off_c, 0, 55, 95
2, 58560, Note_off_c, 0, 50, 95
2, 58560, Note_off_c, 0, 47, 95
2, 58560, Note_off_c, 0, 43, 95
2, 58560, Note_on_c, 0, 67, 95
2, 58560, Note_on_c, 0, 59, 95
2, 58560, Note_on_c, 0, 55, 95
2, 58560, Note_on_c, 0, 50, 95
2, 58560, Note_on_c, 0, 47, 95
2, 58560, Note_on_c, 0, 43, 95
2, 59040, Note_off_c, 0, 67, 95
2, 59040, Note_off_c, 0, 59, 95
2, 59040, Note_off_c, 0, 55, 95
2, 59040, Note_off_c, 0, 50, 95
2, 59040, Note_off_c, 0, 47, 95
2, 59040, Note_off_c, 0, 43, 95
2, 59040, Note_on_c, 0, 67, 95
2, 59040, Note_on_c, 0, 59, 95
2, 59040, Note_on_c, 0, 55, 95
2, 59040, Note_on_c, 0, 50, 95
2, 59040, Note_on_c, 0, 47, 95
2, 59040, Note_on_c, 0, 43, 95
2, 59520, Note_off_c, 0, 67, 95
2, 59520, Note_off_c, 0, 59, 95
2, 59520, Note_off_c, 0, 55, 95
2, 59520, Note_off_c, 0, 50, 95
2, 59520, Note_off_c, 0, 47, 95
2, 59520, Note_off_c, 0, 43, 95
2, 59520, Note_on_c, 0, 50, 95
2, 60000, Note_off_c, 0, 50, 95
2, 60000, Note_on_c, 0, 50, 95
2, 60360, Note_on_c, 1, 50, 95
2, 60480, Note_off_c, 0, 50, 95
2, 60480, Note_off_c, 1, 50, 95
2, 60480, Note_on_c, 1, 52, 95
2, 60960, Note_off_c, 1, 52, 95
2, 60960, Note_on_c, 0, 55, 95
2, 61440, Note_off_c, 0, 55, 95
2, 61440, Note_on_c, 0, 57, 95
2, 61800, Note_on_c, 1, 50, 95
2, 61920, Note_off_c, 0, 57, 95
2, 61920, Note_off_c, 1, 50, 95
2, 61920, Note_on_c, 1, 51, 95
2, 62400, Note_off_c, 1, 51, 95
2, 62400, Note_on_c, 0, 48, 95
2, 62880, Note_off_c, 0, 48, 95
2, 62880, Note_on_c, 0, 45, 95
2, 63360, Note_off_c, 0, 45, 95
2, 63360, Note_on_c, 0, 48, 95
2, 64320, Note_off_c, 0, 48, 95
2, 64320, Note_on_c, 0, 64, 95
2, 64320, Note_on_c, 0, 60, 95
2, 64320, Note_on_c, 0, 55, 95
2, 64320, Note_on_c, 0, 52, 95
2, 64800, Note_off_c, 0, 64, 95
2, 64800, Note_off_c, 0, 60, 95
2, 64800, Note_off_c, 0, 55, 95
2, 64800, Note_off_c, 0, 52, 95
2, 64800, Note_on_c, 0, 48, 95
2, 65280, Note_off_c, 0, 48, 95
2, 65280, Note_on_c, 0, 50, 95
2, 65760, Note_off_c, 0, 50, 95
2, 65760, Note_on_c, 0, 52, 95
2, 66240, Note_off_c, 0, 52, 95
2, 66240, Note_on_c, 0, 65, 95
2, 66240, Note_on_c, 0, 60, 95
2, 66240, Note_on_c, 0, 57, 95
2, 66240, Note_on_c, 0, 53, 95
2, 66720, Note_off_c, 0, 65, 95
2, 66720, Note_off_c, 0, 60, 95
2, 66720, Note_off_c, 0, 57, 95
2, 66720, Note_off_c, 0, 53, 95
2, 66720, Note_on_c, 0, 65, 95
2, 66720, Note_on_c, 0, 60, 95
2, 66720, Note_on_c, 0, 57, 95
2, 66720, Note_on_c, 0, 53, 95
2, 67200, Note_off_c, 0, 65, 95
2, 67200, Note_off_c, 0, 60, 95
2, 67200, Note_off_c, 0, 57, 95
2, 67200, Note_off_c, 0, 53, 95
2, 67200, Note_on_c, 0, 65, 95
2, 67200, Note_on_c, 0, 60, 95
2, 67200, Note_on_c, 0, 57, 95
2, 67200, Note_on_c, 0, 53, 95
2, 67680, Note_off_c, 0, 65, 95
2, 67680, Note_off_c, 0, 60, 95
2, 67680, Note_off_c, 0, 57, 95
2, 67680, Note_off_c, 0, 53, 95
2, 67680, Note_on_c, 0, 65, 95
2, 67680, Note_on_c, 0, 60, 95
2, 67680, Note_on_c, 0, 56, 95
2, 67680, Note_on_c, 0, 53, 95
2, 68160, Note_off_c, 0, 65, 95
2, 68160, Note_off_c, 0, 60, 95
2, 68160, Note_off_c, 0, 56, 95
2, 68160, Note_off_c, 0, 53, 95
2, 68160, Note_on_c, 0, 65, 95
2, 68160, Note_on_c, 0, 60, 95
2, 68160, Note_on_c, 0, 56, 95
2, 68160, Note_on_c, 0, 53, 95
2, 68640, Note_off_c, 0, 65, 95
2, 68640, Note_off_c, 0, 60, 95
2, 68640, Note_off_c, 0, 56, 95
2, 68640, Note_off_c, 0, 53, 95
2, 68640, Note_on_c, 0, 65, 95
2, 68640, Note_on_c, 0, 60, 95
2, 68640, Note_on_c, 0, 56, 95
2, 68640, Note_on_c, 0, 53, 95
2, 69120, Note_off_c, 0, 65, 95
2, 69120, Note_off_c, 0, 60, 95
2, 69120, Note_off_c, 0, 56, 95
2, 69120, Note_off_c, 0, 53, 95
2, 69120, Note_on_c, 0, 64, 95
2, 69120, Note_on_c, 0, 60, 95
2, 69120, Note_on_c, 0, 55, 95
2, 69120, Note_on_c, 0, 52, 95
2, 69120, Note_on_c, 0, 48, 95
2, 69600, Note_off_c, 0, 64, 95
2, 69600, Note_off_c, 0, 60, 95
2, 69600, Note_off_c, 0, 55, 95
2, 69600, Note_off_c, 0, 52, 95
2, 69600, Note_off_c, 0, 48, 95
2, 70560, Note_on_c, 0, 40, 95
2, 72000, Note_off_c, 0, 40, 95
2, 72000, Note_on_c, 0, 41, 95
2, 72960, Note_off_c, 0, 41, 95
2, 72960, Note_on_c, 0, 41, 95
2, 73440, Note_off_c, 0, 41, 95
2, 73440, Note_on_c, 0, 42, 95
2, 73920, Note_off_c, 0, 42, 95
2, 74400, Note_on_c, 0, 60, 95
2, 74400, Note_on_c, 0, 55, 95
2, 74400, Note_on_c, 0, 52, 95
2, 74880, Note_off_c, 0, 60, 95
2, 74880, Note_off_c, 0, 55, 95
2, 74880, Note_off_c, 0, 52, 95
2, 74880, Note_on_c, 0, 64, 95
2, 74880, Note_on_c, 0, 60, 95
2, 74880, Note_on_c, 0, 55, 95
2, 74880, Note_on_c, 0, 52, 95
2, 74880, Note_on_c, 0, 48, 95
2, 75840, Note_off_c, 0, 64, 95
2, 75840, Note_off_c, 0, 60, 95
2, 75840, Note_off_c, 0, 55, 95
2, 75840, Note_off_c, 0, 52, 95
2, 75840, Note_off_c, 0, 48, 95
2, 75840, Note_on_c, 0, 64, 95
2, 75840, Note_on_c, 0, 60, 95
2, 75840, Note_on_c, 0, 55, 95
2, 75840, Note_on_c, 0, 52, 95
2, 75840, Note_on_c, 0, 48, 95
2, 76320, Note_off_c, 0, 64, 95
2, 76320, Note_off_c, 0, 60, 95
2, 76320, Note_off_c, 0, 55, 95
2, 76320, Note_off_c, 0, 52, 95
2, 76320, Note_off_c, 0, 48, 95
2, 76320, Note_on_c, 0, 64, 95
2, 76320, Note_on_c, 0, 60, 95
2, 76320, Note_on_c, 0, 55, 95
2, 76320, Note_on_c, 0, 52, 95
2, 76320, Note_on_c, 0, 48, 95
2, 76800, Note_off_c, 0, 64, 95
2, 76800, Note_off_c, 0, 60, 95
2, 76800, Note_off_c, 0, 55, 95
2, 76800, Note_off_c, 0, 52, 95
2, 76800, Note_off_c, 0, 48, 95
2, 76800, Note_on_c, 0, 64, 95
2, 76800, Note_on_c, 0, 60, 95
2, 76800, Note_on_c, 0, 55, 95
2, 76800, Note_on_c, 0, 52, 47
2, 77280, Note_off_c, 0, 64, 95
2, 77280, Note_off_c, 0, 60, 95
2, 77280, Note_off_c, 0, 55, 95
2, 77280, Note_off_c, 0, 52, 47
2, 77280, Note_on_c, 0, 64, 95
2, 77280, Note_on_c, 0, 60, 95
2, 77280, Note_on_c, 0, 55, 95
2, 77280, Note_on_c, 0, 52, 95
2, 77280, Note_on_c, 0, 48, 95
2, 77760, Note_off_c, 0, 64, 95
2, 77760, Note_off_c, 0, 60, 95
2, 77760, Note_off_c, 0, 55, 95
2, 77760, Note_off_c, 0, 52, 95
2, 77760, Note_off_c, 0, 48, 95
2, 77760, Note_on_c, 0, 64, 95
2, 77760, Note_on_c, 0, 60, 95
2, 77760, Note_on_c, 0, 55, 95
2, 77760, Note_on_c, 0, 52, 95
2, 77760, Note_on_c, 0, 48, 95
2, 78240, Note_off_c, 0, 64, 95
2, 78240, Note_off_c, 0, 60, 95
2, 78240, Note_off_c, 0, 55, 95
2, 78240, Note_off_c, 0, 52, 95
2, 78240, Note_off_c, 0, 48, 95
2, 78240, Note_on_c, 0, 64, 95
2, 78240, Note_on_c, 0, 60, 95
2, 78240, Note_on_c, 0, 55, 95
2, 78240, Note_on_c, 0, 52, 47
2, 78720, Note_off_c, 0, 64, 95
2, 78720, Note_off_c, 0, 60, 95
2, 78720, Note_off_c, 0, 55, 95
2, 78720, Note_off_c, 0, 52, 47
2, 78720, Note_on_c, 0, 64, 95
2, 78720, Note_on_c, 0, 60, 95
2, 78720, Note_on_c, 0, 55, 95
2, 78720, Note_on_c, 0, 52, 95
2, 78720, Note_on_c, 0, 48, 95
2, 79200, Note_off_c, 0, 64, 95
2, 79200, Note_off_c, 0, 60, 95
2, 79200, Note_off_c, 0, 55, 95
2, 79200, Note_off_c, 0, 52, 95
2, 79200, Note_off_c, 0, 48, 95
2, 79200, Note_on_c, 0, 64, 95
2, 79200, Note_on_c, 0, 60, 95
2, 79200, Note_on_c, 0, 55, 95
2, 79200, Note_on_c, 0, 52, 95
2, 79200, Note_on_c, 0, 48, 95
2, 79680, Note_off_c, 0, 64, 95
2, 79680, Note_off_c, 0, 60, 95
2, 79680, Note_off_c, 0, 55, 95
2, 79680, Note_off_c, 0, 52, 95
2, 79680, Note_off_c, 0, 48, 95
2, 79680, Note_on_c, 0, 64, 95
2, 79680, Note_on_c, 0, 60, 95
2, 79680, Note_on_c, 0, 55, 95
2, 79680, Note_on_c, 0, 52, 95
2, 79680, Note_on_c, 0, 48, 95
2, 80160, Note_off_c, 0, 64, 95
2, 80160, Note_off_c, 0, 60, 95
2, 80160, Note_off_c, 0, 55, 95
2, 80160, Note_off_c, 0, 52, 95
2, 80160, Note_off_c, 0, 48, 95
2, 80160, Note_on_c, 0, 64, 95
2, 80160, Note_on_c, 0, 60, 95
2, 80160, Note_on_c, 0, 55, 95
2, 80160, Note_on_c, 0, 52, 95
2, 80160, Note_on_c, 0, 48, 95
2, 80640, Note_off_c, 0, 64, 95
2, 80640, Note_off_c, 0, 60, 95
2, 80640, Note_off_c, 0, 55, 95
2, 80640, Note_off_c, 0, 52, 95
2, 80640, Note_off_c, 0, 48, 95
2, 80640, Note_on_c, 0, 67, 95
2, 80640, Note_on_c, 0, 59, 95
2, 80640, Note_on_c, 0, 55, 95
2, 80640, Note_on_c, 0, 50, 95
2, 80640, Note_on_c, 0, 47, 95
2, 80640, Note_on_c, 0, 43, 95
2, 81120, Note_off_c, 0, 67, 95
2, 81120, Note_off_c, 0, 59, 95
2, 81120, Note_off_c, 0, 55, 95
2, 81120, Note_off_c, 0, 50, 95
2, 81120, Note_off_c, 0, 47, 95
2, 81120, Note_off_c, 0, 43, 95
2, 81120, Note_on_c, 0, 67, 95
2, 81120, Note_on_c, 0, 59, 95
2, 81120, Note_on_c, 0, 55, 95
2, 81120, Note_on_c, 0, 50, 95
2, 81600, Note_off_c, 0, 67, 95
2, 81600, Note_off_c, 0, 59, 95
2, 81600, Note_off_c, 0, 55, 95
2, 81600, Note_off_c, 0, 50, 95
2, 81600, Note_on_c, 0, 67, 95
2, 81600, Note_on_c, 0, 59, 95
2, 81600, Note_on_c, 0, 55, 95
2, 81600, Note_on_c, 0, 50, 95
2, 82080, Note_off_c, 0, 67, 95
2, 82080, Note_off_c, 0, 59, 95
2, 82080, Note_off_c, 0, 55, 95
2, 82080, Note_off_c, 0, 50, 95
2, 82080, Note_on_c, 0, 67, 95
2, 82080, Note_on_c, 0, 59, 95
2, 82080, Note_on_c, 0, 55, 95
2, 82080, Note_on_c, 0, 50, 95
2, 82080, Note_on_c, 0, 47, 95
2, 82080, Note_on_c, 0, 43, 95
2, 83040, Note_off_c, 0, 67, 95
2, 83040, Note_off_c, 0, 59, 95
2, 83040, Note_off_c, 0, 55, 95
2, 83040, Note_off_c, 0, 50, 95
2, 83040, Note_off_c, 0, 47, 95
2, 83040, Note_off_c, 0, 43, 95
2, 83040, Note_on_c, 0, 67, 95
2, 83040, Note_on_c, 0, 59, 95
2, 83040, Note_on_c, 0, 55, 95
2, 83040, Note_on_c, 0, 50, 95
2, 83040, Note_on_c, 0, 47, 95
2, 83040, Note_on_c, 0, 43, 95
2, 83520, Note_off_c, 0, 67, 95
2, 83520, Note_off_c, 0, 59, 95
2, 83520, Note_off_c, 0, 55, 95
2, 83520, Note_off_c, 0, 50, 95
2, 83520, Note_off_c, 0, 47, 95
2, 83520, Note_off_c, 0, 43, 95
2, 83520, Note_on_c, 0, 67, 95
2, 83520, Note_on_c, 0, 59, 95
2, 83520, Note_on_c, 0, 55, 95
2, 83520, Note_on_c, 0, 50, 95
2, 83520, Note_on_c, 0, 47, 95
2, 83520, Note_on_c, 0, 43, 95
2, 84480, Note_off_c, 0, 67, 95
2, 84480, Note_off_c, 0, 59, 95
2, 84480, Note_off_c, 0, 55, 95
2, 84480, Note_off_c, 0, 50, 95
2, 84480, Note_off_c, 0, 47, 95
2, 84480, Note_off_c, 0, 43, 95
2, 84480, Note_on_c, 0, 67, 95
2, 84480, Note_on_c, 0, 59, 95
2, 84480, Note_on_c, 0, 55, 95
2, 84480, Note_on_c, 0, 50, 95
2, 84480, Note_on_c, 0, 47, 95
2, 84480, Note_on_c, 0, 43, 95
2, 84960, Note_off_c, 0, 67, 95
2, 84960, Note_off_c, 0, 59, 95
2, 84960, Note_off_c, 0, 55, 95
2, 84960, Note_off_c, 0, 50, 95
2, 84960, Note_off_c, 0, 47, 95
2, 84960, Note_off_c, 0, 43, 95
2, 84960, Note_on_c, 0, 67, 95
2, 84960, Note_on_c, 0, 59, 95
2, 84960, Note_on_c, 0, 55, 95
2, 84960, Note_on_c, 0, 50, 95
2, 84960, Note_on_c, 0, 47, 95
2, 84960, Note_on_c, 0, 43, 95
2, 85920, Note_off_c, 0, 67, 95
2, 85920, Note_off_c, 0, 59, 95
2, 85920, Note_off_c, 0, 55, 95
2, 85920, Note_off_c, 0, 50, 95
2, 85920, Note_off_c, 0, 47, 95
2, 85920, Note_off_c, 0, 43, 95
2, 85920, Note_on_c, 0, 64, 95
2, 85920, Note_on_c, 0, 60, 95
2, 85920, Note_on_c, 0, 55, 95
2, 85920, Note_on_c, 0, 52, 95
2, 86400, Note_off_c, 0, 64, 95
2, 86400, Note_off_c, 0, 60, 95
2, 86400, Note_off_c, 0, 55, 95
2, 86400, Note_off_c, 0, 52, 95
2, 86400, Note_on_c, 0, 64, 95
2, 86400, Note_on_c, 0, 60, 95
2, 86400, Note_on_c, 0, 55, 95
2, 86400, Note_on_c, 0, 52, 95
2, 86400, Note_on_c, 0, 48, 95
2, 87360, Note_off_c, 0, 64, 95
2, 87360, Note_off_c, 0, 60, 95
2, 87360, Note_off_c, 0, 55, 95
2, 87360, Note_off_c, 0, 52, 95
2, 87360, Note_off_c, 0, 48, 95
2, 87360, Note_on_c, 0, 64, 95
2, 87360, Note_on_c, 0, 60, 95
2, 87360, Note_on_c, 0, 55, 95
2, 87360, Note_on_c, 0, 52, 95
2, 87360, Note_on_c, 0, 48, 95
2, 87840, Note_off_c, 0, 64, 95
2, 87840, Note_off_c, 0, 60, 95
2, 87840, Note_off_c, 0, 55, 95
2, 87840, Note_off_c, 0, 52, 95
2, 87840, Note_off_c, 0, 48, 95
2, 87840, Note_on_c, 0, 64, 95
2, 87840, Note_on_c, 0, 60, 95
2, 87840, Note_on_c, 0, 55, 95
2, 87840, Note_on_c, 0, 52, 95
2, 87840, Note_on_c, 0, 48, 95
2, 88800, Note_off_c, 0, 64, 95
2, 88800, Note_off_c, 0, 60, 95
2, 88800, Note_off_c, 0, 55, 95
2, 88800, Note_off_c, 0, 52, 95
2, 88800, Note_off_c, 0, 48, 95
2, 88800, Note_on_c, 0, 64, 95
2, 88800, Note_on_c, 0, 60, 95
2, 88800, Note_on_c, 0, 55, 95
2, 88800, Note_on_c, 0, 52, 95
2, 88800, Note_on_c, 0, 48, 95
2, 89280, Note_off_c, 0, 64, 95
2, 89280, Note_off_c, 0, 60, 95
2, 89280, Note_off_c, 0, 55, 95
2, 89280, Note_off_c, 0, 52, 95
2, 89280, Note_off_c, 0, 48, 95
2, 89280, Note_on_c, 0, 67, 95
2, 89280, Note_on_c, 0, 59, 95
2, 89280, Note_on_c, 0, 55, 95
2, 89280, Note_on_c, 0, 50, 95
2, 89280, Note_on_c, 0, 47, 95
2, 89280, Note_on_c, 0, 43, 95
2, 90240, Note_off_c, 0, 67, 95
2, 90240, Note_off_c, 0, 59, 95
2, 90240, Note_off_c, 0, 55, 95
2, 90240, Note_off_c, 0, 50, 95
2, 90240, Note_off_c, 0, 47, 95
2, 90240, Note_off_c, 0, 43, 95
2, 90240, Note_on_c, 0, 67, 95
2, 90240, Note_on_c, 0, 59, 95
2, 90240, Note_on_c, 0, 55, 95
2, 90240, Note_on_c, 0, 50, 95
2, 90720, Note_off_c, 0, 67, 95
2, 90720, Note_off_c, 0, 59, 95
2, 90720, Note_off_c, 0, 55, 95
2, 90720, Note_off_c, 0, 50, 95
2, 90720, Note_on_c, 0, 67, 95
2, 90720, Note_on_c, 0, 59, 95
2, 90720, Note_on_c, 0, 55, 95
2, 90720, Note_on_c, 0, 50, 95
2, 90720, Note_on_c, 0, 47, 95
2, 90720, Note_on_c, 0, 43, 95
2, 91200, Note_off_c, 0, 67, 95
2, 91200, Note_off_c, 0, 59, 95
2, 91200, Note_off_c, 0, 55, 95
2, 91200, Note_off_c, 0, 50, 95
2, 91200, Note_off_c, 0, 47, 95
2, 91200, Note_off_c, 0, 43, 95
2, 91200, Note_on_c, 0, 45, 95
2, 91680, Note_off_c, 0, 45, 95
2, 91680, Note_on_c, 0, 47, 95
2, 92160, Note_off_c, 0, 47, 95
2, 92160, Note_on_c, 0, 48, 95
2, 93120, Note_off_c, 0, 48, 95
2, 93120, Note_on_c, 0, 64, 95
2, 93120, Note_on_c, 0, 60, 95
2, 93120, Note_on_c, 0, 55, 95
2, 93120, Note_on_c, 0, 52, 95
2, 93600, Note_off_c, 0, 64, 95
2, 93600, Note_off_c, 0, 60, 95
2, 93600, Note_off_c, 0, 55, 95
2, 93600, Note_off_c, 0, 52, 95
2, 93600, Note_on_c, 0, 64, 95
2, 93600, Note_on_c, 0, 60, 95
2, 93600, Note_on_c, 0, 55, 95
2, 93600, Note_on_c, 0, 52, 95
2, 93600, Note_on_c, 0, 48, 95
2, 94560, Note_off_c, 0, 64, 95
2, 94560, Note_off_c, 0, 60, 95
2, 94560, Note_off_c, 0, 55, 95
2, 94560, Note_off_c, 0, 52, 95
2, 94560, Note_off_c, 0, 48, 95
2, 94560, Note_on_c, 0, 64, 95
2, 94560, Note_on_c, 0, 60, 95
2, 94560, Note_on_c, 0, 55, 95
2, 94560, Note_on_c, 0, 52, 95
2, 94560, Note_on_c, 0, 48, 95
2, 95040, Note_off_c, 0, 64, 95
2, 95040, Note_off_c, 0, 60, 95
2, 95040, Note_off_c, 0, 55, 95
2, 95040, Note_off_c, 0, 52, 95
2, 95040, Note_off_c, 0, 48, 95
2, 95040, Note_on_c, 0, 64, 95
2, 95040, Note_on_c, 0, 60, 95
2, 95040, Note_on_c, 0, 55, 95
2, 95040, Note_on_c, 0, 52, 95
2, 95040, Note_on_c, 0, 48, 95
2, 96000, Note_off_c, 0, 64, 95
2, 96000, Note_off_c, 0, 60, 95
2, 96000, Note_off_c, 0, 55, 95
2, 96000, Note_off_c, 0, 52, 95
2, 96000, Note_off_c, 0, 48, 95
2, 96000, Note_on_c, 0, 64, 95
2, 96000, Note_on_c, 0, 60, 95
2, 96000, Note_on_c, 0, 55, 95
2, 96000, Note_on_c, 0, 52, 95
2, 96000, Note_on_c, 0, 48, 95
2, 96480, Note_off_c, 0, 64, 95
2, 96480, Note_off_c, 0, 60, 95
2, 96480, Note_off_c, 0, 55, 95
2, 96480, Note_off_c, 0, 52, 95
2, 96480, Note_off_c, 0, 48, 95
2, 96480, Note_on_c, 0, 64, 95
2, 96480, Note_on_c, 0, 60, 95
2, 96480, Note_on_c, 0, 55, 95
2, 96480, Note_on_c, 0, 52, 95
2, 96480, Note_on_c, 0, 48, 95
2, 97440, Note_off_c, 0, 64, 95
2, 97440, Note_off_c, 0, 60, 95
2, 97440, Note_off_c, 0, 55, 95
2, 97440, Note_off_c, 0, 52, 95
2, 97440, Note_off_c, 0, 48, 95
2, 97440, Note_on_c, 0, 64, 95
2, 97440, Note_on_c, 0, 60, 95
2, 97440, Note_on_c, 0, 55, 95
2, 97440, Note_on_c, 0, 52, 95
2, 97440, Note_on_c, 0, 48, 95
2, 97920, Note_off_c, 0, 64, 95
2, 97920, Note_off_c, 0, 60, 95
2, 97920, Note_off_c, 0, 55, 95
2, 97920, Note_off_c, 0, 52, 95
2, 97920, Note_off_c, 0, 48, 95
2, 97920, Note_on_c, 0, 65, 95
2, 97920, Note_on_c, 0, 60, 95
2, 97920, Note_on_c, 0, 57, 95
2, 97920, Note_on_c, 0, 53, 95
2, 97920, Note_on_c, 0, 41, 95
2, 98880, Note_off_c, 0, 65, 95
2, 98880, Note_off_c, 0, 60, 95
2, 98880, Note_off_c, 0, 57, 95
2, 98880, Note_off_c, 0, 53, 95
2, 98880, Note_off_c, 0, 41, 95
2, 98880, Note_on_c, 0, 65, 95
2, 98880, Note_on_c, 0, 60, 95
2, 98880, Note_on_c, 0, 57, 95
2, 98880, Note_on_c, 0, 53, 95
2, 99360, Note_off_c, 0, 65, 95
2, 99360, Note_off_c, 0, 60, 95
2, 99360, Note_off_c, 0, 57, 95
2, 99360, Note_off_c, 0, 53, 95
2, 99360, Note_on_c, 0, 65, 95
2, 99360, Note_on_c, 0, 60, 95
2, 99360, Note_on_c, 0, 57, 95
2, 99360, Note_on_c, 0, 53, 95
2, 99360, Note_on_c, 0, 41, 95
2, 100320, Note_off_c, 0, 65, 95
2, 100320, Note_off_c, 0, 60, 95
2, 100320, Note_off_c, 0, 57, 95
2, 100320, Note_off_c, 0, 53, 95
2, 100320, Note_off_c, 0, 41, 95
2, 100320, Note_on_c, 0, 65, 95
2, 100320, Note_on_c, 0, 60, 95
2, 100320, Note_on_c, 0, 57, 95
2, 100320, Note_on_c, 0, 53, 95
2, 100320, Note_on_c, 0, 41, 47
2, 100800, Note_off_c, 0, 65, 95
2, 100800, Note_off_c, 0, 60, 95
2, 100800, Note_off_c, 0, 57, 95
2, 100800, Note_off_c, 0, 53, 95
2, 100800, Note_off_c, 0, 41, 47
2, 100800, Note_on_c, 0, 65, 95
2, 100800, Note_on_c, 0, 60, 95
2, 100800, Note_on_c, 0, 57, 95
2, 100800, Note_on_c, 0, 53, 95
2, 100800, Note_on_c, 0, 41, 95
2, 101760, Note_off_c, 0, 65, 95
2, 101760, Note_off_c, 0, 60, 95
2, 101760, Note_off_c, 0, 57, 95
2, 101760, Note_off_c, 0, 53, 95
2, 101760, Note_off_c, 0, 41, 95
2, 101760, Note_on_c, 0, 65, 95
2, 101760, Note_on_c, 0, 60, 95
2, 101760, Note_on_c, 0, 57, 95
2, 101760, Note_on_c, 0, 53, 95
2, 101760, Note_on_c, 0, 41, 47
2, 102240, Note_off_c, 0, 65, 95
2, 102240, Note_off_c, 0, 60, 95
2, 102240, Note_off_c, 0, 57, 95
2, 102240, Note_off_c, 0, 53, 95
2, 102240, Note_off_c, 0, 41, 47
2, 102240, Note_on_c, 0, 65, 95
2, 102240, Note_on_c, 0, 60, 95
2, 102240, Note_on_c, 0, 57, 95
2, 102240, Note_on_c, 0, 53, 95
2, 102240, Note_on_c, 0, 41, 95
2, 102720, Note_off_c, 0, 65, 95
2, 102720, Note_off_c, 0, 60, 95
2, 102720, Note_off_c, 0, 57, 95
2, 102720, Note_off_c, 0, 53, 95
2, 102720, Note_off_c, 0, 41, 95
2, 102720, Note_on_c, 0, 65, 95
2, 102720, Note_on_c, 0, 60, 95
2, 102720, Note_on_c, 0, 57, 95
2, 102720, Note_on_c, 0, 53, 95
2, 102720, Note_on_c, 0, 41, 47
2, 103200, Note_off_c, 0, 65, 95
2, 103200, Note_off_c, 0, 60, 95
2, 103200, Note_off_c, 0, 57, 95
2, 103200, Note_off_c, 0, 53, 95
2, 103200, Note_off_c, 0, 41, 47
2, 103200, Note_on_c, 0, 65, 95
2, 103200, Note_on_c, 0, 60, 95
2, 103200, Note_on_c, 0, 57, 95
2, 103200, Note_on_c, 0, 53, 95
2, 103200, Note_on_c, 0, 41, 47
2, 103680, Note_off_c, 0, 65, 95
2, 103680, Note_off_c, 0, 60, 95
2, 103680, Note_off_c, 0, 57, 95
2, 103680, Note_off_c, 0, 53, 95
2, 103680, Note_off_c, 0, 41, 47
2, 103680, Note_on_c, 0, 65, 95
2, 103680, Note_on_c, 0, 60, 95
2, 103680, Note_on_c, 0, 57, 95
2, 103680, Note_on_c, 0, 53, 95
2, 103680, Note_on_c, 0, 41, 95
2, 105120, Note_off_c, 0, 65, 95
2, 105120, Note_off_c, 0, 60, 95
2, 105120, Note_off_c, 0, 57, 95
2, 105120, Note_off_c, 0, 53, 95
2, 105120, Note_off_c, 0, 41, 95
2, 105120, Note_on_c, 0, 65, 95
2, 105120, Note_on_c, 0, 60, 95
2, 105120, Note_on_c, 0, 57, 95
2, 105120, Note_on_c, 0, 53, 95
2, 105120, Note_on_c, 0, 41, 95
2, 106560, Note_off_c, 0, 65, 95
2, 106560, Note_off_c, 0, 60, 95
2, 106560, Note_off_c, 0, 57, 95
2, 106560, Note_off_c, 0, 53, 95
2, 106560, Note_off_c, 0, 41, 95
2, 106560, Note_on_c, 0, 65, 95
2, 106560, Note_on_c, 0, 60, 95
2, 106560, Note_on_c, 0, 57, 95
2, 106560, Note_on_c, 0, 53, 95
2, 106560, Note_on_c, 0, 41, 95
2, 107520, Note_off_c, 0, 65, 95
2, 107520, Note_off_c, 0, 60, 95
2, 107520, Note_off_c, 0, 57, 95
2, 107520, Note_off_c, 0, 53, 95
2, 107520, Note_off_c, 0, 41, 95
2, 107520, Note_on_c, 0, 65, 95
2, 107520, Note_on_c, 0, 60, 95
2, 107520, Note_on_c, 0, 57, 95
2, 107520, Note_on_c, 0, 53, 95
2, 107520, Note_on_c, 0, 41, 47
2, 108000, Note_off_c, 0, 65, 95
2, 108000, Note_off_c, 0, 60, 95
2, 108000, Note_off_c, 0, 57, 95
2, 108000, Note_off_c, 0, 53, 95
2, 108000, Note_off_c, 0, 41, 47
2, 108000, Note_on_c, 0, 65, 95
2, 108000, Note_on_c, 0, 60, 95
2, 108000, Note_on_c, 0, 57, 95
2, 108000, Note_on_c, 0, 53, 95
2, 108000, Note_on_c, 0, 41, 95
2, 108960, Note_off_c, 0, 65, 95
2, 108960, Note_off_c, 0, 60, 95
2, 108960, Note_off_c, 0, 57, 95
2, 108960, Note_off_c, 0, 53, 95
2, 108960, Note_off_c, 0, 41, 95
2, 108960, Note_on_c, 0, 64, 95
2, 108960, Note_on_c, 0, 60, 95
2, 108960, Note_on_c, 0, 55, 95
2, 108960, Note_on_c, 0, 52, 95
2, 109440, Note_off_c, 0, 64, 95
2, 109440, Note_off_c, 0, 60, 95
2, 109440, Note_off_c, 0, 55, 95
2, 109440, Note_off_c, 0, 52, 95
2, 109440, Note_on_c, 0, 64, 95
2, 109440, Note_on_c, 0, 60, 95
2, 109440, Note_on_c, 0, 55, 95
2, 109440, Note_on_c, 0, 52, 95
2, 109440, Note_on_c, 0, 48, 95
2, 110400, Note_off_c, 0, 64, 95
2, 110400, Note_off_c, 0, 60, 95
2, 110400, Note_off_c, 0, 55, 95
2, 110400, Note_off_c, 0, 52, 95
2, 110400, Note_off_c, 0, 48, 95
2, 110400, Note_on_c, 0, 64, 95
2, 110400, Note_on_c, 0, 60, 95
2, 110400, Note_on_c, 0, 55, 95
2, 110400, Note_on_c, 0, 52, 47
2, 110880, Note_off_c, 0, 64, 95
2, 110880, Note_off_c, 0, 60, 95
2, 110880, Note_off_c, 0, 55, 95
2, 110880, Note_off_c, 0, 52, 47
2, 110880, Note_on_c, 0, 64, 95
2, 110880, Note_on_c, 0, 60, 95
2, 110880, Note_on_c, 0, 55, 95
2, 110880, Note_on_c, 0, 52, 95
2, 110880, Note_on_c, 0, 48, 95
2, 111360, Note_off_c, 0, 64, 95
2, 111360, Note_off_c, 0, 60, 95
2, 111360, Note_off_c, 0, 55, 95
2, 111360, Note_off_c, 0, 52, 95
2, 111360, Note_off_c, 0, 48, 95
2, 111360, Note_on_c, 0, 47, 95
2, 111840, Note_off_c, 0, 47, 95
2, 111840, Note_on_c, 0, 45, 95
2, 112320, Note_off_c, 0, 45, 95
2, 112320, Note_on_c, 0, 43, 95
2, 113280, Note_off_c, 0, 43, 95
2, 113280, Note_on_c, 0, 67, 95
2, 113280, Note_on_c, 0, 59, 95
2, 113280, Note_on_c, 0, 55, 95
2, 113280, Note_on_c, 0, 50, 95
2, 113760, Note_off_c, 0, 67, 95
2, 113760, Note_off_c, 0, 59, 95
2, 113760, Note_off_c, 0, 55, 95
2, 113760, Note_off_c, 0, 50, 95
2, 113760, Note_on_c, 0, 67, 95
2, 113760, Note_on_c, 0, 59, 95
2, 113760, Note_on_c, 0, 55, 95
2, 113760, Note_on_c, 0, 50, 95
2, 113760, Note_on_c, 0, 47, 95
2, 113760, Note_on_c, 0, 43, 95
2, 114240, Note_off_c, 0, 67, 95
2, 114240, Note_off_c, 0, 59, 95
2, 114240, Note_off_c, 0, 55, 95
2, 114240, Note_off_c, 0, 50, 95
2, 114240, Note_off_c, 0, 47, 95
2, 114240, Note_off_c, 0, 43, 95
2, 114240, Note_on_c, 0, 45, 95
2, 114720, Note_off_c, 0, 45, 95
2, 114720, Note_on_c, 0, 47, 95
2, 115200, Note_off_c, 0, 47, 95
2, 115200, Note_on_c, 0, 60, 95
2, 115200, Note_on_c, 0, 55, 95
2, 115200, Note_on_c, 0, 52, 95
2, 115200, Note_on_c, 0, 48, 95
2, 116160, Note_off_c, 0, 60, 95
2, 116160, Note_off_c, 0, 55, 95
2, 116160, Note_off_c, 0, 52, 95
2, 116160, Note_off_c, 0, 48, 95
2, 116160, Note_on_c, 0, 64, 95
2, 116160, Note_on_c, 0, 60, 95
2, 116160, Note_on_c, 0, 55, 95
2, 116640, Note_off_c, 0, 64, 95
2, 116640, Note_off_c, 0, 60, 95
2, 116640, Note_off_c, 0, 55, 95
2, 116640, Note_on_c, 0, 64, 95
2, 116640, Note_on_c, 0, 60, 95
2, 116640, Note_on_c, 0, 55, 95
2, 116640, Note_on_c, 0, 52, 95
2, 116640, Note_on_c, 0, 48, 95
2, 117120, Note_off_c, 0, 64, 95
2, 117120, Note_off_c, 0, 60, 95
2, 117120, Note_off_c, 0, 55, 95
2, 117120, Note_off_c, 0, 52, 95
2, 117120, Note_off_c, 0, 48, 95
2, 117120, Note_on_c, 0, 64, 95
2, 117120, Note_on_c, 0, 60, 95
2, 117120, Note_on_c, 0, 55, 95
2, 117120, Note_on_c, 0, 52, 95
2, 117120, Note_on_c, 0, 48, 95
2, 117600, Note_off_c, 0, 64, 95
2, 117600, Note_off_c, 0, 60, 95
2, 117600, Note_off_c, 0, 55, 95
2, 117600, Note_off_c, 0, 52, 95
2, 117600, Note_off_c, 0, 48, 95
2, 117600, Note_on_c, 0, 64, 95
2, 117600, Note_on_c, 0, 60, 95
2, 117600, Note_on_c, 0, 55, 95
2, 117600, Note_on_c, 0, 52, 95
2, 117600, Note_on_c, 0, 48, 95
2, 118080, Note_off_c, 0, 64, 95
2, 118080, Note_off_c, 0, 60, 95
2, 118080, Note_off_c, 0, 55, 95
2, 118080, Note_off_c, 0, 52, 95
2, 118080, Note_off_c, 0, 48, 95
2, 118080, Note_on_c, 0, 64, 95
2, 118080, Note_on_c, 0, 60, 95
2, 118080, Note_on_c, 0, 55, 95
2, 118080, Note_on_c, 0, 52, 95
2, 118080, Note_on_c, 0, 48, 95
2, 119040, Note_off_c, 0, 64, 95
2, 119040, Note_off_c, 0, 60, 95
2, 119040, Note_off_c, 0, 55, 95
2, 119040, Note_off_c, 0, 52, 95
2, 119040, Note_off_c, 0, 48, 95
2, 119040, Note_on_c, 0, 64, 95
2, 119040, Note_on_c, 0, 60, 95
2, 119040, Note_on_c, 0, 55, 95
2, 119040, Note_on_c, 0, 52, 95
2, 119040, Note_on_c, 0, 48, 95
2, 119520, Note_off_c, 0, 64, 95
2, 119520, Note_off_c, 0, 60, 95
2, 119520, Note_off_c, 0, 55, 95
2, 119520, Note_off_c, 0, 52, 95
2, 119520, Note_off_c, 0, 48, 95
2, 119520, Note_on_c, 0, 64, 95
2, 119520, Note_on_c, 0, 60, 95
2, 119520, Note_on_c, 0, 55, 95
2, 119520, Note_on_c, 0, 52, 95
2, 119520, Note_on_c, 0, 48, 95
2, 120480, Note_off_c, 0, 64, 95
2, 120480, Note_off_c, 0, 60, 95
2, 120480, Note_off_c, 0, 55, 95
2, 120480, Note_off_c, 0, 52, 95
2, 120480, Note_off_c, 0, 48, 95
2, 120480, Note_on_c, 0, 64, 95
2, 120480, Note_on_c, 0, 60, 95
2, 120480, Note_on_c, 0, 55, 95
2, 120480, Note_on_c, 0, 52, 95
2, 120480, Note_on_c, 0, 48, 95
2, 120960, Note_off_c, 0, 64, 95
2, 120960, Note_off_c, 0, 60, 95
2, 120960, Note_off_c, 0, 55, 95
2, 120960, Note_off_c, 0, 52, 95
2, 120960, Note_off_c, 0, 48, 95
2, 120960, Note_on_c, 0, 67, 95
2, 120960, Note_on_c, 0, 59, 95
2, 120960, Note_on_c, 0, 55, 95
2, 120960, Note_on_c, 0, 50, 95
2, 120960, Note_on_c, 0, 47, 95
2, 120960, Note_on_c, 0, 43, 95
2, 121920, Note_off_c, 0, 67, 95
2, 121920, Note_off_c, 0, 59, 95
2, 121920, Note_off_c, 0, 55, 95
2, 121920, Note_off_c, 0, 50, 95
2, 121920, Note_off_c, 0, 47, 95
2, 121920, Note_off_c, 0, 43, 95
2, 121920, Note_on_c, 0, 67, 95
2, 121920, Note_on_c, 0, 59, 95
2, 121920, Note_on_c, 0, 55, 95
2, 121920, Note_on_c, 0, 50, 95
2, 122400, Note_off_c, 0, 67, 95
2, 122400, Note_off_c, 0, 59, 95
2, 122400, Note_off_c, 0, 55, 95
2, 122400, Note_off_c, 0, 50, 95
2, 122400, Note_on_c, 0, 67, 95
2, 122400, Note_on_c, 0, 59, 95
2, 122400, Note_on_c, 0, 55, 95
2, 122400, Note_on_c, 0, 50, 95
2, 122400, Note_on_c, 0, 47, 95
2, 122400, Note_on_c, 0, 43, 95
2, 123360, Note_off_c, 0, 67, 95
2, 123360, Note_off_c, 0, 59, 95
2, 123360, Note_off_c, 0, 55, 95
2, 123360, Note_off_c, 0, 50, 95
2, 123360, Note_off_c, 0, 47, 95
2, 123360, Note_off_c, 0, 43, 95
2, 123360, Note_on_c, 0, 67, 95
2, 123360, Note_on_c, 0, 59, 95
2, 123360, Note_on_c, 0, 55, 95
2, 123360, Note_on_c, 0, 50, 95
2, 123360, Note_on_c, 0, 47, 95
2, 123360, Note_on_c, 0, 43, 95
2, 124800, Note_off_c, 0, 67, 95
2, 124800, Note_off_c, 0, 59, 95
2, 124800, Note_off_c, 0, 55, 95
2, 124800, Note_off_c, 0, 50, 95
2, 124800, Note_off_c, 0, 47, 95
2, 124800, Note_off_c, 0, 43, 95
2, 124800, Note_on_c, 0, 67, 95
2, 124800, Note_on_c, 0, 59, 95
2, 124800, Note_on_c, 0, 55, 95
2, 124800, Note_on_c, 0, 50, 95
2, 124800, Note_on_c, 0, 47, 95
2, 124800, Note_on_c, 0, 43, 95
2, 125280, Note_off_c, 0, 67, 95
2, 125280, Note_off_c, 0, 59, 95
2, 125280, Note_off_c, 0, 55, 95
2, 125280, Note_off_c, 0, 50, 95
2, 125280, Note_off_c, 0, 47, 95
2, 125280, Note_off_c, 0, 43, 95
2, 125280, Note_on_c, 0, 67, 95
2, 125280, Note_on_c, 0, 59, 95
2, 125280, Note_on_c, 0, 55, 95
2, 125280, Note_on_c, 0, 50, 95
2, 125280, Note_on_c, 0, 47, 95
2, 125280, Note_on_c, 0, 43, 95
2, 125760, Note_off_c, 0, 67, 95
2, 125760, Note_off_c, 0, 59, 95
2, 125760, Note_off_c, 0, 55, 95
2, 125760, Note_off_c, 0, 50, 95
2, 125760, Note_off_c, 0, 47, 95
2, 125760, Note_off_c, 0, 43, 95
2, 125760, Note_on_c, 0, 67, 95
2, 125760, Note_on_c, 0, 59, 95
2, 125760, Note_on_c, 0, 55, 95
2, 125760, Note_on_c, 0, 50, 95
2, 125760, Note_on_c, 0, 47, 95
2, 125760, Note_on_c, 0, 43, 95
2, 126240, Note_off_c, 0, 67, 95
2, 126240, Note_off_c, 0, 59, 95
2, 126240, Note_off_c, 0, 55, 95
2, 126240, Note_off_c, 0, 50, 95
2, 126240, Note_off_c, 0, 47, 95
2, 126240, Note_off_c, 0, 43, 95
2, 126240, Note_on_c, 0, 67, 95
2, 126240, Note_on_c, 0, 59, 95
2, 126240, Note_on_c, 0, 55, 95
2, 126240, Note_on_c, 0, 50, 95
2, 126240, Note_on_c, 0, 47, 95
2, 126240, Note_on_c, 0, 43, 95
2, 126720, Note_off_c, 0, 67, 95
2, 126720, Note_off_c, 0, 59, 95
2, 126720, Note_off_c, 0, 55, 95
2, 126720, Note_off_c, 0, 50, 95
2, 126720, Note_off_c, 0, 47, 95
2, 126720, Note_off_c, 0, 43, 95
2, 126720, Note_on_c, 0, 55, 95
2, 126720, Note_on_c, 0, 50, 95
2, 126720, Note_on_c, 0, 47, 95
2, 126720, Note_on_c, 0, 43, 95
2, 127680, Note_off_c, 0, 55, 95
2, 127680, Note_off_c, 0, 50, 95
2, 127680, Note_off_c, 0, 47, 95
2, 127680, Note_off_c, 0, 43, 95
2, 127680, Note_on_c, 0, 67, 95
2, 127680, Note_on_c, 0, 59, 95
2, 127680, Note_on_c, 0, 55, 95
2, 127680, Note_on_c, 0, 50, 95
2, 128160, Note_off_c, 0, 67, 95
2, 128160, Note_off_c, 0, 59, 95
2, 128160, Note_off_c, 0, 55, 95
2, 128160, Note_off_c, 0, 50, 95
2, 128160, Note_on_c, 0, 67, 95
2, 128160, Note_on_c, 0, 59, 95
2, 128160, Note_on_c, 0, 55, 95
2, 128160, Note_on_c, 0, 50, 95
2, 128160, Note_on_c, 0, 47, 95
2, 128160, Note_on_c, 0, 43, 95
2, 129600, Note_off_c, 0, 67, 95
2, 129600, Note_off_c, 0, 59, 95
2, 129600, Note_off_c, 0, 55, 95
2, 129600, Note_off_c, 0, 50, 95
2, 129600, Note_off_c, 0, 47, 95
2, 129600, Note_off_c, 0, 43, 95
2, 129600, Note_on_c, 0, 67, 95
2, 129600, Note_on_c, 0, 59, 95
2, 129600, Note_on_c, 0, 55, 95
2, 129600, Note_on_c, 0, 50, 95
2, 129600, Note_on_c, 0, 47, 95
2, 129600, Note_on_c, 0, 43, 95
2, 131040, Note_off_c, 0, 67, 95
2, 131040, Note_off_c, 0, 59, 95
2, 131040, Note_off_c, 0, 55, 95
2, 131040, Note_off_c, 0, 50, 95
2, 131040, Note_off_c, 0, 47, 95
2, 131040, Note_off_c, 0, 43, 95
2, 131040, Note_on_c, 0, 67, 95
2, 131040, Note_on_c, 0, 59, 95
2, 131040, Note_on_c, 0, 55, 95
2, 131040, Note_on_c, 0, 50, 95
2, 131040, Note_on_c, 0, 47, 95
2, 131040, Note_on_c, 0, 43, 95
2, 132000, Note_off_c, 0, 67, 95
2, 132000, Note_off_c, 0, 59, 95
2, 132000, Note_off_c, 0, 55, 95
2, 132000, Note_off_c, 0, 50, 95
2, 132000, Note_off_c, 0, 47, 95
2, 132000, Note_off_c, 0, 43, 95
2, 132000, Note_on_c, 0, 60, 95
2, 132000, Note_on_c, 0, 55, 95
2, 132000, Note_on_c, 0, 52, 95
2, 132000, Note_on_c, 0, 48, 95
2, 132480, Note_off_c, 0, 60, 95
2, 132480, Note_off_c, 0, 55, 95
2, 132480, Note_off_c, 0, 52, 95
2, 132480, Note_off_c, 0, 48, 95
2, 132480, Note_on_c, 0, 64, 95
2, 132480, Note_on_c, 0, 60, 95
2, 132480, Note_on_c, 0, 55, 95
2, 132480, Note_on_c, 0, 52, 95
2, 132480, Note_on_c, 0, 48, 95
2, 133440, Note_off_c, 0, 64, 95
2, 133440, Note_off_c, 0, 60, 95
2, 133440, Note_off_c, 0, 55, 95
2, 133440, Note_off_c, 0, 52, 95
2, 133440, Note_off_c, 0, 48, 95
2, 133440, Note_on_c, 0, 64, 95
2, 133440, Note_on_c, 0, 60, 95
2, 133440, Note_on_c, 0, 55, 95
2, 133440, Note_on_c, 0, 52, 95
2, 133440, Note_on_c, 0, 48, 95
2, 133920, Note_off_c, 0, 64, 95
2, 133920, Note_off_c, 0, 60, 95
2, 133920, Note_off_c, 0, 55, 95
2, 133920, Note_off_c, 0, 52, 95
2, 133920, Note_off_c, 0, 48, 95
2, 133920, Note_on_c, 0, 64, 95
2, 133920, Note_on_c, 0, 60, 95
2, 133920, Note_on_c, 0, 55, 95
2, 133920, Note_on_c, 0, 52, 95
2, 133920, Note_on_c, 0, 48, 95
2, 134400, Note_off_c, 0, 64, 95
2, 134400, Note_off_c, 0, 60, 95
2, 134400, Note_off_c, 0, 55, 95
2, 134400, Note_off_c, 0, 52, 95
2, 134400, Note_off_c, 0, 48, 95
2, 134400, Note_on_c, 0, 64, 95
2, 134400, Note_on_c, 0, 60, 95
2, 134400, Note_on_c, 0, 55, 95
2, 134400, Note_on_c, 0, 52, 95
2, 134400, Note_on_c, 0, 48, 95
2, 134880, Note_off_c, 0, 64, 95
2, 134880, Note_off_c, 0, 60, 95
2, 134880, Note_off_c, 0, 55, 95
2, 134880, Note_off_c, 0, 52, 95
2, 134880, Note_off_c, 0, 48, 95
2, 134880, Note_on_c, 0, 64, 95
2, 134880, Note_on_c, 0, 60, 95
2, 134880, Note_on_c, 0, 55, 95
2, 134880, Note_on_c, 0, 52, 95
2, 134880, Note_on_c, 0, 48, 95
2, 135360, Note_off_c, 0, 64, 95
2, 135360, Note_off_c, 0, 60, 95
2, 135360, Note_off_c, 0, 55, 95
2, 135360, Note_off_c, 0, 52, 95
2, 135360, Note_off_c, 0, 48, 95
2, 135360, Note_on_c, 0, 65, 95
2, 135360, Note_on_c, 0, 60, 95
2, 135360, Note_on_c, 0, 57, 95
2, 135360, Note_on_c, 0, 53, 95
2, 135840, Note_off_c, 0, 65, 95
2, 135840, Note_off_c, 0, 60, 95
2, 135840, Note_off_c, 0, 57, 95
2, 135840, Note_off_c, 0, 53, 95
2, 135840, Note_on_c, 0, 65, 95
2, 135840, Note_on_c, 0, 60, 95
2, 135840, Note_on_c, 0, 57, 95
2, 135840, Note_on_c, 0, 53, 95
2, 136320, Note_off_c, 0, 65, 95
2, 136320, Note_off_c, 0, 60, 95
2, 136320, Note_off_c, 0, 57, 95
2, 136320, Note_off_c, 0, 53, 95
2, 136320, Note_on_c, 0, 65, 95
2, 136320, Note_on_c, 0, 60, 95
2, 136320, Note_on_c, 0, 57, 95
2, 136320, Note_on_c, 0, 53, 95
2, 136800, Note_off_c, 0, 65, 95
2, 136800, Note_off_c, 0, 60, 95
2, 136800, Note_off_c, 0, 57, 95
2, 136800, Note_off_c, 0, 53, 95
2, 136800, Note_on_c, 0, 65, 95
2, 136800, Note_on_c, 0, 60, 95
2, 136800, Note_on_c, 0, 56, 95
2, 136800, Note_on_c, 0, 53, 95
2, 137280, Note_off_c, 0, 65, 95
2, 137280, Note_off_c, 0, 60, 95
2, 137280, Note_off_c, 0, 56, 95
2, 137280, Note_off_c, 0, 53, 95
2, 137280, Note_on_c, 0, 65, 95
2, 137280, Note_on_c, 0, 60, 95
2, 137280, Note_on_c, 0, 56, 95
2, 137280, Note_on_c, 0, 53, 95
2, 137760, Note_off_c, 0, 65, 95
2, 137760, Note_off_c, 0, 60, 95
2, 137760, Note_off_c, 0, 56, 95
2, 137760, Note_off_c, 0, 53, 95
2, 137760, Note_on_c, 0, 65, 95
2, 137760, Note_on_c, 0, 60, 95
2, 137760, Note_on_c, 0, 56, 95
2, 137760, Note_on_c, 0, 53, 95
2, 138240, Note_off_c, 0, 65, 95
2, 138240, Note_off_c, 0, 60, 95
2, 138240, Note_off_c, 0, 56, 95
2, 138240, Note_off_c, 0, 53, 95
2, 138240, Note_on_c, 0, 64, 95
2, 138240, Note_on_c, 0, 60, 95
2, 138240, Note_on_c, 0, 55, 95
2, 138240, Note_on_c, 0, 52, 95
2, 138240, Note_on_c, 0, 48, 95
2, 138720, Note_off_c, 0, 64, 95
2, 138720, Note_off_c, 0, 60, 95
2, 138720, Note_off_c, 0, 55, 95
2, 138720, Note_off_c, 0, 52, 95
2, 138720, Note_off_c, 0, 48, 95
2, 139680, Note_on_c, 0, 40, 95
2, 141120, Note_off_c, 0, 40, 95
2, 141120, Note_on_c, 0, 41, 95
2, 142080, Note_off_c, 0, 41, 95
2, 142080, Note_on_c, 0, 41, 95
2, 142560, Note_off_c, 0, 41, 95
2, 142560, Note_on_c, 0, 42, 95
2, 143520, Note_off_c, 0, 42, 95
2, 143520, Note_on_c, 0, 60, 95
2, 143520, Note_on_c, 0, 55, 95
2, 143520, Note_on_c, 0, 52, 95
2, 144000, Note_off_c, 0, 60, 95
2, 144000, Note_off_c, 0, 55, 95
2, 144000, Note_off_c, 0, 52, 95
2, 144000, Note_on_c, 0, 64, 95
2, 144000, Note_on_c, 0, 60, 95
2, 144000, Note_on_c, 0, 55, 95
2, 144000, Note_on_c, 0, 52, 95
2, 144000, Note_on_c, 0, 48, 95
2, 144960, Note_off_c, 0, 64, 95
2, 144960, Note_off_c, 0, 60, 95
2, 144960, Note_off_c, 0, 55, 95
2, 144960, Note_off_c, 0, 52, 95
2, 144960, Note_off_c, 0, 48, 95
2, 144960, Note_on_c, 0, 64, 95
2, 144960, Note_on_c, 0, 60, 95
2, 144960, Note_on_c, 0, 55, 95
2, 144960, Note_on_c, 0, 52, 95
2, 144960, Note_on_c, 0, 48, 95
2, 145440, Note_off_c, 0, 64, 95
2, 145440, Note_off_c, 0, 60, 95
2, 145440, Note_off_c, 0, 55, 95
2, 145440, Note_off_c, 0, 52, 95
2, 145440, Note_off_c, 0, 48, 95
2, 145440, Note_on_c, 0, 64, 95
2, 145440, Note_on_c, 0, 60, 95
2, 145440, Note_on_c, 0, 55, 95
2, 145440, Note_on_c, 0, 52, 95
2, 145440, Note_on_c, 0, 48, 95
2, 145920, Note_off_c, 0, 64, 95
2, 145920, Note_off_c, 0, 60, 95
2, 145920, Note_off_c, 0, 55, 95
2, 145920, Note_off_c, 0, 52, 95
2, 145920, Note_off_c, 0, 48, 95
2, 145920, Note_on_c, 0, 64, 95
2, 145920, Note_on_c, 0, 60, 95
2, 145920, Note_on_c, 0, 55, 95
2, 145920, Note_on_c, 0, 52, 47
2, 146400, Note_off_c, 0, 64, 95
2, 146400, Note_off_c, 0, 60, 95
2, 146400, Note_off_c, 0, 55, 95
2, 146400, Note_off_c, 0, 52, 47
2, 146400, Note_on_c, 0, 64, 95
2, 146400, Note_on_c, 0, 60, 95
2, 146400, Note_on_c, 0, 55, 95
2, 146400, Note_on_c, 0, 52, 95
2, 146400, Note_on_c, 0, 48, 95
2, 146880, Note_off_c, 0, 64, 95
2, 146880, Note_off_c, 0, 60, 95
2, 146880, Note_off_c, 0, 55, 95
2, 146880, Note_off_c, 0, 52, 95
2, 146880, Note_off_c, 0, 48, 95
2, 146880, Note_on_c, 0, 64, 95
2, 146880, Note_on_c, 0, 60, 95
2, 146880, Note_on_c, 0, 55, 95
2, 146880, Note_on_c, 0, 52, 95
2, 146880, Note_on_c, 0, 48, 95
2, 147360, Note_off_c, 0, 64, 95
2, 147360, Note_off_c, 0, 60, 95
2, 147360, Note_off_c, 0, 55, 95
2, 147360, Note_off_c, 0, 52, 95
2, 147360, Note_off_c, 0, 48, 95
2, 147360, Note_on_c, 0, 64, 95
2, 147360, Note_on_c, 0, 60, 95
2, 147360, Note_on_c, 0, 55, 95
2, 147360, Note_on_c, 0, 52, 47
2, 147840, Note_off_c, 0, 64, 95
2, 147840, Note_off_c, 0, 60, 95
2, 147840, Note_off_c, 0, 55, 95
2, 147840, Note_off_c, 0, 52, 47
2, 147840, Note_on_c, 0, 64, 95
2, 147840, Note_on_c, 0, 60, 95
2, 147840, Note_on_c, 0, 55, 95
2, 147840, Note_on_c, 0, 52, 95
2, 147840, Note_on_c, 0, 48, 95
2, 148320, Note_off_c, 0, 64, 95
2, 148320, Note_off_c, 0, 60, 95
2, 148320, Note_off_c, 0, 55, 95
2, 148320, Note_off_c, 0, 52, 95
2, 148320, Note_off_c, 0, 48, 95
2, 148320, Note_on_c, 0, 64, 95
2, 148320, Note_on_c, 0, 60, 95
2, 148320, Note_on_c, 0, 55, 95
2, 148320, Note_on_c, 0, 52, 95
2, 148320, Note_on_c, 0, 48, 95
2, 148800, Note_off_c, 0, 64, 95
2, 148800, Note_off_c, 0, 60, 95
2, 148800, Note_off_c, 0, 55, 95
2, 148800, Note_off_c, 0, 52, 95
2, 148800, Note_off_c, 0, 48, 95
2, 148800, Note_on_c, 0, 64, 95
2, 148800, Note_on_c, 0, 60, 95
2, 148800, Note_on_c, 0, 55, 95
2, 148800, Note_on_c, 0, 52, 95
2, 148800, Note_on_c, 0, 48, 95
2, 149280, Note_off_c, 0, 64, 95
2, 149280, Note_off_c, 0, 60, 95
2, 149280, Note_off_c, 0, 55, 95
2, 149280, Note_off_c, 0, 52, 95
2, 149280, Note_off_c, 0, 48, 95
2, 149280, Note_on_c, 0, 64, 95
2, 149280, Note_on_c, 0, 60, 95
2, 149280, Note_on_c, 0, 55, 95
2, 149280, Note_on_c, 0, 52, 95
2, 149280, Note_on_c, 0, 48, 95
2, 149760, Note_off_c, 0, 64, 95
2, 149760, Note_off_c, 0, 60, 95
2, 149760, Note_off_c, 0, 55, 95
2, 149760, Note_off_c, 0, 52, 95
2, 149760, Note_off_c, 0, 48, 95
2, 149760, Note_on_c, 0, 67, 95
2, 149760, Note_on_c, 0, 59, 95
2, 149760, Note_on_c, 0, 55, 95
2, 149760, Note_on_c, 0, 50, 95
2, 149760, Note_on_c, 0, 47, 95
2, 149760, Note_on_c, 0, 43, 95
2, 150240, Note_off_c, 0, 67, 95
2, 150240, Note_off_c, 0, 59, 95
2, 150240, Note_off_c, 0, 55, 95
2, 150240, Note_off_c, 0, 50, 95
2, 150240, Note_off_c, 0, 47, 95
2, 150240, Note_off_c, 0, 43, 95
2, 150240, Note_on_c, 0, 67, 95
2, 150240, Note_on_c, 0, 59, 95
2, 150240, Note_on_c, 0, 55, 95
2, 150240, Note_on_c, 0, 50, 95
2, 150720, Note_off_c, 0, 67, 95
2, 150720, Note_off_c, 0, 59, 95
2, 150720, Note_off_c, 0, 55, 95
2, 150720, Note_off_c, 0, 50, 95
2, 150720, Note_on_c, 0, 67, 95
2, 150720, Note_on_c, 0, 59, 95
2, 150720, Note_on_c, 0, 55, 95
2, 150720, Note_on_c, 0, 50, 95
2, 151200, Note_off_c, 0, 67, 95
2, 151200, Note_off_c, 0, 59, 95
2, 151200, Note_off_c, 0, 55, 95
2, 151200, Note_off_c, 0, 50, 95
2, 151200, Note_on_c, 0, 67, 95
2, 151200, Note_on_c, 0, 59, 95
2, 151200, Note_on_c, 0, 55, 95
2, 151200, Note_on_c, 0, 50, 95
2, 151200, Note_on_c, 0, 47, 95
2, 151200, Note_on_c, 0, 43, 95
2, 152160, Note_off_c, 0, 67, 95
2, 152160, Note_off_c, 0, 59, 95
2, 152160, Note_off_c, 0, 55, 95
2, 152160, Note_off_c, 0, 50, 95
2, 152160, Note_off_c, 0, 47, 95
2, 152160, Note_off_c, 0, 43, 95
2, 152160, Note_on_c, 0, 67, 95
2, 152160, Note_on_c, 0, 59, 95
2, 152160, Note_on_c, 0, 55, 95
2, 152160, Note_on_c, 0, 50, 95
2, 152160, Note_on_c, 0, 47, 95
2, 152160, Note_on_c, 0, 43, 95
2, 152640, Note_off_c, 0, 67, 95
2, 152640, Note_off_c, 0, 59, 95
2, 152640, Note_off_c, 0, 55, 95
2, 152640, Note_off_c, 0, 50, 95
2, 152640, Note_off_c, 0, 47, 95
2, 152640, Note_off_c, 0, 43, 95
2, 152640, Note_on_c, 0, 67, 95
2, 152640, Note_on_c, 0, 59, 95
2, 152640, Note_on_c, 0, 55, 95
2, 152640, Note_on_c, 0, 50, 95
2, 152640, Note_on_c, 0, 47, 95
2, 152640, Note_on_c, 0, 43, 95
2, 153600, Note_off_c, 0, 67, 95
2, 153600, Note_off_c, 0, 59, 95
2, 153600, Note_off_c, 0, 55, 95
2, 153600, Note_off_c, 0, 50, 95
2, 153600, Note_off_c, 0, 47, 95
2, 153600, Note_off_c, 0, 43, 95
2, 153600, Note_on_c, 0, 67, 95
2, 153600, Note_on_c, 0, 59, 95
2, 153600, Note_on_c, 0, 55, 95
2, 153600, Note_on_c, 0, 50, 95
2, 153600, Note_on_c, 0, 47, 95
2, 153600, Note_on_c, 0, 43, 95
2, 154080, Note_off_c, 0, 67, 95
2, 154080, Note_off_c, 0, 59, 95
2, 154080, Note_off_c, 0, 55, 95
2, 154080, Note_off_c, 0, 50, 95
2, 154080, Note_off_c, 0, 47, 95
2, 154080, Note_off_c, 0, 43, 95
2, 154080, Note_on_c, 0, 67, 95
2, 154080, Note_on_c, 0, 59, 95
2, 154080, Note_on_c, 0, 55, 95
2, 154080, Note_on_c, 0, 50, 95
2, 154080, Note_on_c, 0, 47, 95
2, 154080, Note_on_c, 0, 43, 95
2, 155040, Note_off_c, 0, 67, 95
2, 155040, Note_off_c, 0, 59, 95
2, 155040, Note_off_c, 0, 55, 95
2, 155040, Note_off_c, 0, 50, 95
2, 155040, Note_off_c, 0, 47, 95
2, 155040, Note_off_c, 0, 43, 95
2, 155040, Note_on_c, 0, 64, 95
2, 155040, Note_on_c, 0, 60, 95
2, 155040, Note_on_c, 0, 55, 95
2, 155040, Note_on_c, 0, 52, 95
2, 155520, Note_off_c, 0, 64, 95
2, 155520, Note_off_c, 0, 60, 95
2, 155520, Note_off_c, 0, 55, 95
2, 155520, Note_off_c, 0, 52, 95
2, 155520, Note_on_c, 0, 64, 95
2, 155520, Note_on_c, 0, 60, 95
2, 155520, Note_on_c, 0, 55, 95
2, 155520, Note_on_c, 0, 52, 95
2, 155520, Note_on_c, 0, 48, 95
2, 156480, Note_off_c, 0, 64, 95
2, 156480, Note_off_c, 0, 60, 95
2, 156480, Note_off_c, 0, 55, 95
2, 156480, Note_off_c, 0, 52, 95
2, 156480, Note_off_c, 0, 48, 95
2, 156480, Note_on_c, 0, 64, 95
2, 156480, Note_on_c, 0, 60, 95
2, 156480, Note_on_c, 0, 55, 95
2, 156480, Note_on_c, 0, 52, 95
2, 156480, Note_on_c, 0, 48, 95
2, 156960, Note_off_c, 0, 64, 95
2, 156960, Note_off_c, 0, 60, 95
2, 156960, Note_off_c, 0, 55, 95
2, 156960, Note_off_c, 0, 52, 95
2, 156960, Note_off_c, 0, 48, 95
2, 156960, Note_on_c, 0, 64, 95
2, 156960, Note_on_c, 0, 60, 95
2, 156960, Note_on_c, 0, 55, 95
2, 156960, Note_on_c, 0, 52, 95
2, 156960, Note_on_c, 0, 48, 95
2, 157920, Note_off_c, 0, 64, 95
2, 157920, Note_off_c, 0, 60, 95
2, 157920, Note_off_c, 0, 55, 95
2, 157920, Note_off_c, 0, 52, 95
2, 157920, Note_off_c, 0, 48, 95
2, 157920, Note_on_c, 0, 64, 95
2, 157920, Note_on_c, 0, 60, 95
2, 157920, Note_on_c, 0, 55, 95
2, 157920, Note_on_c, 0, 52, 95
2, 157920, Note_on_c, 0, 48, 95
2, 158400, Note_off_c, 0, 64, 95
2, 158400, Note_off_c, 0, 60, 95
2, 158400, Note_off_c, 0, 55, 95
2, 158400, Note_off_c, 0, 52, 95
2, 158400, Note_off_c, 0, 48, 95
2, 158400, Note_on_c, 0, 67, 95
2, 158400, Note_on_c, 0, 59, 95
2, 158400, Note_on_c, 0, 55, 95
2, 158400, Note_on_c, 0, 50, 95
2, 158400, Note_on_c, 0, 47, 95
2, 158400, Note_on_c, 0, 43, 95
2, 159360, Note_off_c, 0, 67, 95
2, 159360, Note_off_c, 0, 59, 95
2, 159360, Note_off_c, 0, 55, 95
2, 159360, Note_off_c, 0, 50, 95
2, 159360, Note_off_c, 0, 47, 95
2, 159360, Note_off_c, 0, 43, 95
2, 159360, Note_on_c, 0, 67, 95
2, 159360, Note_on_c, 0, 59, 95
2, 159360, Note_on_c, 0, 55, 95
2, 159360, Note_on_c, 0, 50, 95
2, 159840, Note_off_c, 0, 67, 95
2, 159840, Note_off_c, 0, 59, 95
2, 159840, Note_off_c, 0, 55, 95
2, 159840, Note_off_c, 0, 50, 95
2, 159840, Note_on_c, 0, 67, 95
2, 159840, Note_on_c, 0, 59, 95
2, 159840, Note_on_c, 0, 55, 95
2, 159840, Note_on_c, 0, 50, 95
2, 159840, Note_on_c, 0, 47, 95
2, 159840, Note_on_c, 0, 43, 95
2, 160320, Note_off_c, 0, 67, 95
2, 160320, Note_off_c, 0, 59, 95
2, 160320, Note_off_c, 0, 55, 95
2, 160320, Note_off_c, 0, 50, 95
2, 160320, Note_off_c, 0, 47, 95
2, 160320, Note_off_c, 0, 43, 95
2, 160320, Note_on_c, 0, 45, 95
2, 160800, Note_off_c, 0, 45, 95
2, 160800, Note_on_c, 0, 47, 95
2, 161280, Note_off_c, 0, 47, 95
2, 161280, Note_on_c, 0, 48, 95
2, 162240, Note_off_c, 0, 48, 95
2, 162240, Note_on_c, 0, 64, 95
2, 162240, Note_on_c, 0, 60, 95
2, 162240, Note_on_c, 0, 55, 95
2, 162240, Note_on_c, 0, 52, 95
2, 162720, Note_off_c, 0, 64, 95
2, 162720, Note_off_c, 0, 60, 95
2, 162720, Note_off_c, 0, 55, 95
2, 162720, Note_off_c, 0, 52, 95
2, 162720, Note_on_c, 0, 64, 95
2, 162720, Note_on_c, 0, 60, 95
2, 162720, Note_on_c, 0, 55, 95
2, 162720, Note_on_c, 0, 52, 95
2, 162720, Note_on_c, 0, 48, 95
2, 163680, Note_off_c, 0, 64, 95
2, 163680, Note_off_c, 0, 60, 95
2, 163680, Note_off_c, 0, 55, 95
2, 163680, Note_off_c, 0, 52, 95
2, 163680, Note_off_c, 0, 48, 95
2, 163680, Note_on_c, 0, 64, 95
2, 163680, Note_on_c, 0, 60, 95
2, 163680, Note_on_c, 0, 55, 95
2, 163680, Note_on_c, 0, 52, 95
2, 163680, Note_on_c, 0, 48, 95
2, 164160, Note_off_c, 0, 64, 95
2, 164160, Note_off_c, 0, 60, 95
2, 164160, Note_off_c, 0, 55, 95
2, 164160, Note_off_c, 0, 52, 95
2, 164160, Note_off_c, 0, 48, 95
2, 164160, Note_on_c, 0, 64, 95
2, 164160, Note_on_c, 0, 60, 95
2, 164160, Note_on_c, 0, 55, 95
2, 164160, Note_on_c, 0, 52, 95
2, 164160, Note_on_c, 0, 48, 95
2, 165120, Note_off_c, 0, 64, 95
2, 165120, Note_off_c, 0, 60, 95
2, 165120, Note_off_c, 0, 55, 95
2, 165120, Note_off_c, 0, 52, 95
2, 165120, Note_off_c, 0, 48, 95
2, 165120, Note_on_c, 0, 64, 95
2, 165120, Note_on_c, 0, 60, 95
2, 165120, Note_on_c, 0, 55, 95
2, 165120, Note_on_c, 0, 52, 95
2, 165120, Note_on_c, 0, 48, 95
2, 165600, Note_off_c, 0, 64, 95
2, 165600, Note_off_c, 0, 60, 95
2, 165600, Note_off_c, 0, 55, 95
2, 165600, Note_off_c, 0, 52, 95
2, 165600, Note_off_c, 0, 48, 95
2, 165600, Note_on_c, 0, 64, 95
2, 165600, Note_on_c, 0, 60, 95
2, 165600, Note_on_c, 0, 55, 95
2, 165600, Note_on_c, 0, 52, 95
2, 165600, Note_on_c, 0, 48, 95
2, 166560, Note_off_c, 0, 64, 95
2, 166560, Note_off_c, 0, 60, 95
2, 166560, Note_off_c, 0, 55, 95
2, 166560, Note_off_c, 0, 52, 95
2, 166560, Note_off_c, 0, 48, 95
2, 166560, Note_on_c, 0, 64, 95
2, 166560, Note_on_c, 0, 60, 95
2, 166560, Note_on_c, 0, 55, 95
2, 166560, Note_on_c, 0, 52, 95
2, 166560, Note_on_c, 0, 48, 95
2, 167040, Note_off_c, 0, 64, 95
2, 167040, Note_off_c, 0, 60, 95
2, 167040, Note_off_c, 0, 55, 95
2, 167040, Note_off_c, 0, 52, 95
2, 167040, Note_off_c, 0, 48, 95
2, 167040, Note_on_c, 0, 65, 95
2, 167040, Note_on_c, 0, 60, 95
2, 167040, Note_on_c, 0, 57, 95
2, 167040, Note_on_c, 0, 53, 95
2, 167040, Note_on_c, 0, 41, 95
2, 168000, Note_off_c, 0, 65, 95
2, 168000, Note_off_c, 0, 60, 95
2, 168000, Note_off_c, 0, 57, 95
2, 168000, Note_off_c, 0, 53, 95
2, 168000, Note_off_c, 0, 41, 95
2, 168000, Note_on_c, 0, 65, 95
2, 168000, Note_on_c, 0, 60, 95
2, 168000, Note_on_c, 0, 57, 95
2, 168000, Note_on_c, 0, 53, 95
2, 168480, Note_off_c, 0, 65, 95
2, 168480, Note_off_c, 0, 60, 95
2, 168480, Note_off_c, 0, 57, 95
2, 168480, Note_off_c, 0, 53, 95
2, 168480, Note_on_c, 0, 65, 95
2, 168480, Note_on_c, 0, 60, 95
2, 168480, Note_on_c, 0, 57, 95
2, 168480, Note_on_c, 0, 53, 95
2, 168480, Note_on_c, 0, 41, 95
2, 169440, Note_off_c, 0, 65, 95
2, 169440, Note_off_c, 0, 60, 95
2, 169440, Note_off_c, 0, 57, 95
2, 169440, Note_off_c, 0, 53, 95
2, 169440, Note_off_c, 0, 41, 95
2, 169440, Note_on_c, 0, 65, 95
2, 169440, Note_on_c, 0, 60, 95
2, 169440, Note_on_c, 0, 57, 95
2, 169440, Note_on_c, 0, 53, 95
2, 169440, Note_on_c, 0, 41, 47
2, 169920, Note_off_c, 0, 65, 95
2, 169920, Note_off_c, 0, 60, 95
2, 169920, Note_off_c, 0, 57, 95
2, 169920, Note_off_c, 0, 53, 95
2, 169920, Note_off_c, 0, 41, 47
2, 169920, Note_on_c, 0, 65, 95
2, 169920, Note_on_c, 0, 60, 95
2, 169920, Note_on_c, 0, 57, 95
2, 169920, Note_on_c, 0, 53, 95
2, 169920, Note_on_c, 0, 41, 95
2, 170880, Note_off_c, 0, 65, 95
2, 170880, Note_off_c, 0, 60, 95
2, 170880, Note_off_c, 0, 57, 95
2, 170880, Note_off_c, 0, 53, 95
2, 170880, Note_off_c, 0, 41, 95
2, 170880, Note_on_c, 0, 65, 95
2, 170880, Note_on_c, 0, 60, 95
2, 170880, Note_on_c, 0, 57, 95
2, 170880, Note_on_c, 0, 53, 95
2, 170880, Note_on_c, 0, 41, 47
2, 171360, Note_off_c, 0, 65, 95
2, 171360, Note_off_c, 0, 60, 95
2, 171360, Note_off_c, 0, 57, 95
2, 171360, Note_off_c, 0, 53, 95
2, 171360, Note_off_c, 0, 41, 47
2, 171360, Note_on_c, 0, 65, 95
2, 171360, Note_on_c, 0, 60, 95
2, 171360, Note_on_c, 0, 57, 95
2, 171360, Note_on_c, 0, 53, 95
2, 171360, Note_on_c, 0, 41, 95
2, 171840, Note_off_c, 0, 65, 95
2, 171840, Note_off_c, 0, 60, 95
2, 171840, Note_off_c, 0, 57, 95
2, 171840, Note_off_c, 0, 53, 95
2, 171840, Note_off_c, 0, 41, 95
2, 171840, Note_on_c, 0, 65, 95
2, 171840, Note_on_c, 0, 60, 95
2, 171840, Note_on_c, 0, 57, 95
2, 171840, Note_on_c, 0, 53, 95
2, 171840, Note_on_c, 0, 41, 47
2, 172320, Note_off_c, 0, 65, 95
2, 172320, Note_off_c, 0, 60, 95
2, 172320, Note_off_c, 0, 57, 95
2, 172320, Note_off_c, 0, 53, 95
2, 172320, Note_off_c, 0, 41, 47
2, 172320, Note_on_c, 0, 65, 95
2, 172320, Note_on_c, 0, 60, 95
2, 172320, Note_on_c, 0, 57, 95
2, 172320, Note_on_c, 0, 53, 95
2, 172320, Note_on_c, 0, 41, 47
2, 172800, Note_off_c, 0, 65, 95
2, 172800, Note_off_c, 0, 60, 95
2, 172800, Note_off_c, 0, 57, 95
2, 172800, Note_off_c, 0, 53, 95
2, 172800, Note_off_c, 0, 41, 47
2, 172800, Note_on_c, 0, 65, 95
2, 172800, Note_on_c, 0, 60, 95
2, 172800, Note_on_c, 0, 57, 95
2, 172800, Note_on_c, 0, 53, 95
2, 172800, Note_on_c, 0, 41, 95
2, 174240, Note_off_c, 0, 65, 95
2, 174240, Note_off_c, 0, 60, 95
2, 174240, Note_off_c, 0, 57, 95
2, 174240, Note_off_c, 0, 53, 95
2, 174240, Note_off_c, 0, 41, 95
2, 174240, Note_on_c, 0, 65, 95
2, 174240, Note_on_c, 0, 60, 95
2, 174240, Note_on_c, 0, 57, 95
2, 174240, Note_on_c, 0, 53, 95
2, 174240, Note_on_c, 0, 41, 95
2, 175680, Note_off_c, 0, 65, 95
2, 175680, Note_off_c, 0, 60, 95
2, 175680, Note_off_c, 0, 57, 95
2, 175680, Note_off_c, 0, 53, 95
2, 175680, Note_off_c, 0, 41, 95
2, 175680, Note_on_c, 0, 65, 95
2, 175680, Note_on_c, 0, 60, 95
2, 175680, Note_on_c, 0, 57, 95
2, 175680, Note_on_c, 0, 53, 95
2, 175680, Note_on_c, 0, 41, 95
2, 176640, Note_off_c, 0, 65, 95
2, 176640, Note_off_c, 0, 60, 95
2, 176640, Note_off_c, 0, 57, 95
2, 176640, Note_off_c, 0, 53, 95
2, 176640, Note_off_c, 0, 41, 95
2, 176640, Note_on_c, 0, 65, 95
2, 176640, Note_on_c, 0, 60, 95
2, 176640, Note_on_c, 0, 57, 95
2, 176640, Note_on_c, 0, 53, 95
2, 176640, Note_on_c, 0, 41, 47
2, 177120, Note_off_c, 0, 65, 95
2, 177120, Note_off_c, 0, 60, 95
2, 177120, Note_off_c, 0, 57, 95
2, 177120, Note_off_c, 0, 53, 95
2, 177120, Note_off_c, 0, 41, 47
2, 177120, Note_on_c, 0, 65, 95
2, 177120, Note_on_c, 0, 60, 95
2, 177120, Note_on_c, 0, 57, 95
2, 177120, Note_on_c, 0, 53, 95
2, 177120, Note_on_c, 0, 41, 95
2, 178080, Note_off_c, 0, 65, 95
2, 178080, Note_off_c, 0, 60, 95
2, 178080, Note_off_c, 0, 57, 95
2, 178080, Note_off_c, 0, 53, 95
2, 178080, Note_off_c, 0, 41, 95
2, 178080, Note_on_c, 0, 64, 95
2, 178080, Note_on_c, 0, 60, 95
2, 178080, Note_on_c, 0, 55, 95
2, 178080, Note_on_c, 0, 52, 95
2, 178560, Note_off_c, 0, 64, 95
2, 178560, Note_off_c, 0, 60, 95
2, 178560, Note_off_c, 0, 55, 95
2, 178560, Note_off_c, 0, 52, 95
2, 178560, Note_on_c, 0, 64, 95
2, 178560, Note_on_c, 0, 60, 95
2, 178560, Note_on_c, 0, 55, 95
2, 178560, Note_on_c, 0, 52, 95
2, 178560, Note_on_c, 0, 48, 95
2, 179520, Note_off_c, 0, 64, 95
2, 179520, Note_off_c, 0, 60, 95
2, 179520, Note_off_c, 0, 55, 95
2, 179520, Note_off_c, 0, 52, 95
2, 179520, Note_off_c, 0, 48, 95
2, 179520, Note_on_c, 0, 64, 95
2, 179520, Note_on_c, 0, 60, 95
2, 179520, Note_on_c, 0, 55, 95
2, 179520, Note_on_c, 0, 52, 47
2, 180000, Note_off_c, 0, 64, 95
2, 180000, Note_off_c, 0, 60, 95
2, 180000, Note_off_c, 0, 55, 95
2, 180000, Note_off_c, 0, 52, 47
2, 180000, Note_on_c, 0, 64, 95
2, 180000, Note_on_c, 0, 60, 95
2, 180000, Note_on_c, 0, 55, 95
2, 180000, Note_on_c, 0, 52, 95
2, 180000, Note_on_c, 0, 48, 95
2, 180480, Note_off_c, 0, 64, 95
2, 180480, Note_off_c, 0, 60, 95
2, 180480, Note_off_c, 0, 55, 95
2, 180480, Note_off_c, 0, 52, 95
2, 180480, Note_off_c, 0, 48, 95
2, 180480, Note_on_c, 0, 47, 95
2, 180960, Note_off_c, 0, 47, 95
2, 180960, Note_on_c, 0, 45, 95
2, 181440, Note_off_c, 0, 45, 95
2, 181440, Note_on_c, 0, 43, 95
2, 182400, Note_off_c, 0, 43, 95
2, 182400, Note_on_c, 0, 67, 95
2, 182400, Note_on_c, 0, 59, 95
2, 182400, Note_on_c, 0, 55, 95
2, 182400, Note_on_c, 0, 50, 95
2, 182880, Note_off_c, 0, 67, 95
2, 182880, Note_off_c, 0, 59, 95
2, 182880, Note_off_c, 0, 55, 95
2, 182880, Note_off_c, 0, 50, 95
2, 182880, Note_on_c, 0, 67, 95
2, 182880, Note_on_c, 0, 59, 95
2, 182880, Note_on_c, 0, 55, 95
2, 182880, Note_on_c, 0, 50, 95
2, 182880, Note_on_c, 0, 47, 95
2, 182880, Note_on_c, 0, 43, 95
2, 183360, Note_off_c, 0, 67, 95
2, 183360, Note_off_c, 0, 59, 95
2, 183360, Note_off_c, 0, 55, 95
2, 183360, Note_off_c, 0, 50, 95
2, 183360, Note_off_c, 0, 47, 95
2, 183360, Note_off_c, 0, 43, 95
2, 183360, Note_on_c, 0, 45, 95
2, 183840, Note_off_c, 0, 45, 95
2, 183840, Note_on_c, 0, 47, 95
2, 184320, Note_off_c, 0, 47, 95
2, 184320, Note_on_c, 0, 60, 95
2, 184320, Note_on_c, 0, 55, 95
2, 184320, Note_on_c, 0, 52, 95
2, 184320, Note_on_c, 0, 48, 95
2, 185280, Note_off_c, 0, 60, 95
2, 185280, Note_off_c, 0, 55, 95
2, 185280, Note_off_c, 0, 52, 95
2, 185280, Note_off_c, 0, 48, 95
2, 185280, Note_on_c, 0, 64, 95
2, 185280, Note_on_c, 0, 60, 95
2, 185280, Note_on_c, 0, 55, 95
2, 185760, Note_off_c, 0, 64, 95
2, 185760, Note_off_c, 0, 60, 95
2, 185760, Note_off_c, 0, 55, 95
2, 185760, Note_on_c, 0, 64, 95
2, 185760, Note_on_c, 0, 60, 95
2, 185760, Note_on_c, 0, 55, 95
2, 185760, Note_on_c, 0, 52, 95
2, 185760, Note_on_c, 0, 48, 95
2, 186240, Note_off_c, 0, 64, 95
2, 186240, Note_off_c, 0, 60, 95
2, 186240, Note_off_c, 0, 55, 95
2, 186240, Note_off_c, 0, 52, 95
2, 186240, Note_off_c, 0, 48, 95
2, 186240, Note_on_c, 0, 64, 95
2, 186240, Note_on_c, 0, 60, 95
2, 186240, Note_on_c, 0, 55, 95
2, 186240, Note_on_c, 0, 52, 95
2, 186240, Note_on_c, 0, 48, 95
2, 186720, Note_off_c, 0, 64, 95
2, 186720, Note_off_c, 0, 60, 95
2, 186720, Note_off_c, 0, 55, 95
2, 186720, Note_off_c, 0, 52, 95
2, 186720, Note_off_c, 0, 48, 95
2, 186720, Note_on_c, 0, 64, 95
2, 186720, Note_on_c, 0, 60, 95
2, 186720, Note_on_c, 0, 55, 95
2, 186720, Note_on_c, 0, 52, 95
2, 186720, Note_on_c, 0, 48, 95
2, 187200, Note_off_c, 0, 64, 95
2, 187200, Note_off_c, 0, 60, 95
2, 187200, Note_off_c, 0, 55, 95
2, 187200, Note_off_c, 0, 52, 95
2, 187200, Note_off_c, 0, 48, 95
2, 187200, Note_on_c, 0, 64, 95
2, 187200, Note_on_c, 0, 60, 95
2, 187200, Note_on_c, 0, 55, 95
2, 187200, Note_on_c, 0, 52, 95
2, 187200, Note_on_c, 0, 48, 95
2, 188160, Note_off_c, 0, 64, 95
2, 188160, Note_off_c, 0, 60, 95
2, 188160, Note_off_c, 0, 55, 95
2, 188160, Note_off_c, 0, 52, 95
2, 188160, Note_off_c, 0, 48, 95
2, 188160, Note_on_c, 0, 64, 95
2, 188160, Note_on_c, 0, 60, 95
2, 188160, Note_on_c, 0, 55, 95
2, 188160, Note_on_c, 0, 52, 95
2, 188160, Note_on_c, 0, 48, 95
2, 188640, Note_off_c, 0, 64, 95
2, 188640, Note_off_c, 0, 60, 95
2, 188640, Note_off_c, 0, 55, 95
2, 188640, Note_off_c, 0, 52, 95
2, 188640, Note_off_c, 0, 48, 95
2, 188640, Note_on_c, 0, 64, 95
2, 188640, Note_on_c, 0, 60, 95
2, 188640, Note_on_c, 0, 55, 95
2, 188640, Note_on_c, 0, 52, 95
2, 188640, Note_on_c, 0, 48, 95
2, 189600, Note_off_c, 0, 64, 95
2, 189600, Note_off_c, 0, 60, 95
2, 189600, Note_off_c, 0, 55, 95
2, 189600, Note_off_c, 0, 52, 95
2, 189600, Note_off_c, 0, 48, 95
2, 189600, Note_on_c, 0, 64, 95
2, 189600, Note_on_c, 0, 60, 95
2, 189600, Note_on_c, 0, 55, 95
2, 189600, Note_on_c, 0, 52, 95
2, 189600, Note_on_c, 0, 48, 95
2, 190080, Note_off_c, 0, 64, 95
2, 190080, Note_off_c, 0, 60, 95
2, 190080, Note_off_c, 0, 55, 95
2, 190080, Note_off_c, 0, 52, 95
2, 190080, Note_off_c, 0, 48, 95
2, 190080, Note_on_c, 0, 67, 95
2, 190080, Note_on_c, 0, 59, 95
2, 190080, Note_on_c, 0, 55, 95
2, 190080, Note_on_c, 0, 50, 95
2, 190080, Note_on_c, 0, 47, 95
2, 190080, Note_on_c, 0, 43, 95
2, 191040, Note_off_c, 0, 67, 95
2, 191040, Note_off_c, 0, 59, 95
2, 191040, Note_off_c, 0, 55, 95
2, 191040, Note_off_c, 0, 50, 95
2, 191040, Note_off_c, 0, 47, 95
2, 191040, Note_off_c, 0, 43, 95
2, 191040, Note_on_c, 0, 67, 95
2, 191040, Note_on_c, 0, 59, 95
2, 191040, Note_on_c, 0, 55, 95
2, 191040, Note_on_c, 0, 50, 95
2, 191520, Note_off_c, 0, 67, 95
2, 191520, Note_off_c, 0, 59, 95
2, 191520, Note_off_c, 0, 55, 95
2, 191520, Note_off_c, 0, 50, 95
2, 191520, Note_on_c, 0, 67, 95
2, 191520, Note_on_c, 0, 59, 95
2, 191520, Note_on_c, 0, 55, 95
2, 191520, Note_on_c, 0, 50, 95
2, 191520, Note_on_c, 0, 47, 95
2, 191520, Note_on_c, 0, 43, 95
2, 192480, Note_off_c, 0, 67, 95
2, 192480, Note_off_c, 0, 59, 95
2, 192480, Note_off_c, 0, 55, 95
2, 192480, Note_off_c, 0, 50, 95
2, 192480, Note_off_c, 0, 47, 95
2, 192480, Note_off_c, 0, 43, 95
2, 192480, Note_on_c, 0, 67, 95
2, 192480, Note_on_c, 0, 59, 95
2, 192480, Note_on_c, 0, 55, 95
2, 192480, Note_on_c, 0, 50, 95
2, 192480, Note_on_c, 0, 47, 95
2, 192480, Note_on_c, 0, 43, 95
2, 193920, Note_off_c, 0, 67, 95
2, 193920, Note_off_c, 0, 59, 95
2, 193920, Note_off_c, 0, 55, 95
2, 193920, Note_off_c, 0, 50, 95
2, 193920, Note_off_c, 0, 47, 95
2, 193920, Note_off_c, 0, 43, 95
2, 193920, Note_on_c, 0, 67, 95
2, 193920, Note_on_c, 0, 59, 95
2, 193920, Note_on_c, 0, 55, 95
2, 193920, Note_on_c, 0, 50, 95
2, 193920, Note_on_c, 0, 47, 95
2, 193920, Note_on_c, 0, 43, 95
2, 194400, Note_off_c, 0, 67, 95
2, 194400, Note_off_c, 0, 59, 95
2, 194400, Note_off_c, 0, 55, 95
2, 194400, Note_off_c, 0, 50, 95
2, 194400, Note_off_c, 0, 47, 95
2, 194400, Note_off_c, 0, 43, 95
2, 194400, Note_on_c, 0, 67, 95
2, 194400, Note_on_c, 0, 59, 95
2, 194400, Note_on_c, 0, 55, 95
2, 194400, Note_on_c, 0, 50, 95
2, 194400, Note_on_c, 0, 47, 95
2, 194400, Note_on_c, 0, 43, 95
2, 194880, Note_off_c, 0, 67, 95
2, 194880, Note_off_c, 0, 59, 95
2, 194880, Note_off_c, 0, 55, 95
2, 194880, Note_off_c, 0, 50, 95
2, 194880, Note_off_c, 0, 47, 95
2, 194880, Note_off_c, 0, 43, 95
2, 194880, Note_on_c, 0, 67, 95
2, 194880, Note_on_c, 0, 59, 95
2, 194880, Note_on_c, 0, 55, 95
2, 194880, Note_on_c, 0, 50, 95
2, 194880, Note_on_c, 0, 47, 95
2, 194880, Note_on_c, 0, 43, 95
2, 195360, Note_off_c, 0, 67, 95
2, 195360, Note_off_c, 0, 59, 95
2, 195360, Note_off_c, 0, 55, 95
2, 195360, Note_off_c, 0, 50, 95
2, 195360, Note_off_c, 0, 47, 95
2, 195360, Note_off_c, 0, 43, 95
2, 195360, Note_on_c, 0, 67, 95
2, 195360, Note_on_c, 0, 59, 95
2, 195360, Note_on_c, 0, 55, 95
2, 195360, Note_on_c, 0, 50, 95
2, 195360, Note_on_c, 0, 47, 95
2, 195360, Note_on_c, 0, 43, 95
2, 195840, Note_off_c, 0, 67, 95
2, 195840, Note_off_c, 0, 59, 95
2, 195840, Note_off_c, 0, 55, 95
2, 195840, Note_off_c, 0, 50, 95
2, 195840, Note_off_c, 0, 47, 95
2, 195840, Note_off_c, 0, 43, 95
2, 195840, Note_on_c, 0, 55, 95
2, 195840, Note_on_c, 0, 50, 95
2, 195840, Note_on_c, 0, 47, 95
2, 195840, Note_on_c, 0, 43, 95
2, 196800, Note_off_c, 0, 55, 95
2, 196800, Note_off_c, 0, 50, 95
2, 196800, Note_off_c, 0, 47, 95
2, 196800, Note_off_c, 0, 43, 95
2, 196800, Note_on_c, 0, 67, 95
2, 196800, Note_on_c, 0, 59, 95
2, 196800, Note_on_c, 0, 55, 95
2, 196800, Note_on_c, 0, 50, 95
2, 197280, Note_off_c, 0, 67, 95
2, 197280, Note_off_c, 0, 59, 95
2, 197280, Note_off_c, 0, 55, 95
2, 197280, Note_off_c, 0, 50, 95
2, 197280, Note_on_c, 0, 67, 95
2, 197280, Note_on_c, 0, 59, 95
2, 197280, Note_on_c, 0, 55, 95
2, 197280, Note_on_c, 0, 50, 95
2, 197280, Note_on_c, 0, 47, 95
2, 197280, Note_on_c, 0, 43, 95
2, 198720, Note_off_c, 0, 67, 95
2, 198720, Note_off_c, 0, 59, 95
2, 198720, Note_off_c, 0, 55, 95
2, 198720, Note_off_c, 0, 50, 95
2, 198720, Note_off_c, 0, 47, 95
2, 198720, Note_off_c, 0, 43, 95
2, 198720, Note_on_c, 0, 67, 95
2, 198720, Note_on_c, 0, 59, 95
2, 198720, Note_on_c, 0, 55, 95
2, 198720, Note_on_c, 0, 50, 95
2, 198720, Note_on_c, 0, 47, 95
2, 198720, Note_on_c, 0, 43, 95
2, 200160, Note_off_c, 0, 67, 95
2, 200160, Note_off_c, 0, 59, 95
2, 200160, Note_off_c, 0, 55, 95
2, 200160, Note_off_c, 0, 50, 95
2, 200160, Note_off_c, 0, 47, 95
2, 200160, Note_off_c, 0, 43, 95
2, 200160, Note_on_c, 0, 67, 95
2, 200160, Note_on_c, 0, 59, 95
2, 200160, Note_on_c, 0, 55, 95
2, 200160, Note_on_c, 0, 50, 95
2, 200160, Note_on_c, 0, 47, 95
2, 200160, Note_on_c, 0, 43, 95
2, 201120, Note_off_c, 0, 67, 95
2, 201120, Note_off_c, 0, 59, 95
2, 201120, Note_off_c, 0, 55, 95
2, 201120, Note_off_c, 0, 50, 95
2, 201120, Note_off_c, 0, 47, 95
2, 201120, Note_off_c, 0, 43, 95
2, 201120, Note_on_c, 0, 60, 95
2, 201120, Note_on_c, 0, 55, 95
2, 201120, Note_on_c, 0, 52, 95
2, 201120, Note_on_c, 0, 48, 95
2, 201600, Note_off_c, 0, 60, 95
2, 201600, Note_off_c, 0, 55, 95
2, 201600, Note_off_c, 0, 52, 95
2, 201600, Note_off_c, 0, 48, 95
2, 201600, Note_on_c, 0, 64, 95
2, 201600, Note_on_c, 0, 60, 95
2, 201600, Note_on_c, 0, 55, 95
2, 201600, Note_on_c, 0, 52, 95
2, 201600, Note_on_c, 0, 48, 95
2, 202560, Note_off_c, 0, 64, 95
2, 202560, Note_off_c, 0, 60, 95
2, 202560, Note_off_c, 0, 55, 95
2, 202560, Note_off_c, 0, 52, 95
2, 202560, Note_off_c, 0, 48, 95
2, 202560, Note_on_c, 0, 64, 95
2, 202560, Note_on_c, 0, 60, 95
2, 202560, Note_on_c, 0, 55, 95
2, 202560, Note_on_c, 0, 52, 95
2, 202560, Note_on_c, 0, 48, 95
2, 203040, Note_off_c, 0, 64, 95
2, 203040, Note_off_c, 0, 60, 95
2, 203040, Note_off_c, 0, 55, 95
2, 203040, Note_off_c, 0, 52, 95
2, 203040, Note_off_c, 0, 48, 95
2, 203040, Note_on_c, 0, 64, 95
2, 203040, Note_on_c, 0, 60, 95
2, 203040, Note_on_c, 0, 55, 95
2, 203040, Note_on_c, 0, 52, 95
2, 203040, Note_on_c, 0, 48, 95
2, 203520, Note_off_c, 0, 64, 95
2, 203520, Note_off_c, 0, 60, 95
2, 203520, Note_off_c, 0, 55, 95
2, 203520, Note_off_c, 0, 52, 95
2, 203520, Note_off_c, 0, 48, 95
2, 203520, Note_on_c, 0, 64, 95
2, 203520, Note_on_c, 0, 60, 95
2, 203520, Note_on_c, 0, 55, 95
2, 203520, Note_on_c, 0, 52, 95
2, 203520, Note_on_c, 0, 48, 95
2, 204000, Note_off_c, 0, 64, 95
2, 204000, Note_off_c, 0, 60, 95
2, 204000, Note_off_c, 0, 55, 95
2, 204000, Note_off_c, 0, 52, 95
2, 204000, Note_off_c, 0, 48, 95
2, 204000, Note_on_c, 0, 64, 95
2, 204000, Note_on_c, 0, 60, 95
2, 204000, Note_on_c, 0, 55, 95
2, 204000, Note_on_c, 0, 52, 95
2, 204000, Note_on_c, 0, 48, 95
2, 204480, Note_off_c, 0, 64, 95
2, 204480, Note_off_c, 0, 60, 95
2, 204480, Note_off_c, 0, 55, 95
2, 204480, Note_off_c, 0, 52, 95
2, 204480, Note_off_c, 0, 48, 95
2, 204480, Note_on_c, 0, 65, 95
2, 204480, Note_on_c, 0, 60, 95
2, 204480, Note_on_c, 0, 57, 95
2, 204480, Note_on_c, 0, 53, 95
2, 204960, Note_off_c, 0, 65, 95
2, 204960, Note_off_c, 0, 60, 95
2, 204960, Note_off_c, 0, 57, 95
2, 204960, Note_off_c, 0, 53, 95
2, 204960, Note_on_c, 0, 65, 95
2, 204960, Note_on_c, 0, 60, 95
2, 204960, Note_on_c, 0, 57, 95
2, 204960, Note_on_c, 0, 53, 95
2, 205440, Note_off_c, 0, 65, 95
2, 205440, Note_off_c, 0, 60, 95
2, 205440, Note_off_c, 0, 57, 95
2, 205440, Note_off_c, 0, 53, 95
2, 205440, Note_on_c, 0, 65, 95
2, 205440, Note_on_c, 0, 60, 95
2, 205440, Note_on_c, 0, 57, 95
2, 205440, Note_on_c, 0, 53, 95
2, 205920, Note_off_c, 0, 65, 95
2, 205920, Note_off_c, 0, 60, 95
2, 205920, Note_off_c, 0, 57, 95
2, 205920, Note_off_c, 0, 53, 95
2, 205920, Note_on_c, 0, 65, 95
2, 205920, Note_on_c, 0, 60, 95
2, 205920, Note_on_c, 0, 56, 95
2, 205920, Note_on_c, 0, 53, 95
2, 206400, Note_off_c, 0, 65, 95
2, 206400, Note_off_c, 0, 60, 95
2, 206400, Note_off_c, 0, 56, 95
2, 206400, Note_off_c, 0, 53, 95
2, 206400, Note_on_c, 0, 65, 95
2, 206400, Note_on_c, 0, 60, 95
2, 206400, Note_on_c, 0, 56, 95
2, 206400, Note_on_c, 0, 53, 95
2, 206880, Note_off_c, 0, 65, 95
2, 206880, Note_off_c, 0, 60, 95
2, 206880, Note_off_c, 0, 56, 95
2, 206880, Note_off_c, 0, 53, 95
2, 206880, Note_on_c, 0, 65, 95
2, 206880, Note_on_c, 0, 60, 95
2, 206880, Note_on_c, 0, 56, 95
2, 206880, Note_on_c, 0, 53, 95
2, 207360, Note_off_c, 0, 65, 95
2, 207360, Note_off_c, 0, 60, 95
2, 207360, Note_off_c, 0, 56, 95
2, 207360, Note_off_c, 0, 53, 95
2, 207360, Note_on_c, 0, 64, 95
2, 207360, Note_on_c, 0, 60, 95
2, 207360, Note_on_c, 0, 55, 95
2, 207360, Note_on_c, 0, 52, 95
2, 207360, Note_on_c, 0, 48, 95
2, 207840, Note_off_c, 0, 64, 95
2, 207840, Note_off_c, 0, 60, 95
2, 207840, Note_off_c, 0, 55, 95
2, 207840, Note_off_c, 0, 52, 95
2, 207840, Note_off_c, 0, 48, 95
2, 208800, Note_on_c, 0, 40, 95
2, 209760, Note_off_c, 0, 40, 95
2, 209760, Note_on_c, 0, 40, 95
2, 210240, Note_off_c, 0, 40, 95
2, 210240, Note_on_c, 0, 41, 95
2, 211200, Note_off_c, 0, 41, 95
2, 211200, Note_on_c, 0, 41, 95
2, 211680, Note_off_c, 0, 41, 95
2, 211680, Note_on_c, 0, 42, 95
2, 212640, Note_off_c, 0, 42, 95
2, 212640, Note_on_c, 0, 55, 95
2, 212640, Note_on_c, 0, 52, 95
2, 212640, Note_on_c, 0, 48, 95
2, 213120, Note_off_c, 0, 55, 95
2, 213120, Note_off_c, 0, 52, 95
2, 213120, Note_off_c, 0, 48, 95
2, 213120, Note_on_c, 0, 64, 95
2, 213120, Note_on_c, 0, 60, 95
2, 213120, Note_on_c, 0, 55, 95
2, 213120, Note_on_c, 0, 52, 95
2, 213120, Note_on_c, 0, 48, 95
2, 214560, Note_off_c, 0, 64, 95
2, 214560, Note_off_c, 0, 60, 95
2, 214560, Note_off_c, 0, 55, 95
2, 214560, Note_off_c, 0, 52, 95
2, 214560, Note_off_c, 0, 48, 95
2, 214560, Note_on_c, 0, 64, 95
2, 214560, Note_on_c, 0, 60, 95
2, 214560, Note_on_c, 0, 55, 95
2, 214560, Note_on_c, 0, 52, 95
2, 214560, Note_on_c, 0, 48, 95
2, 215520, Note_off_c, 0, 64, 95
2, 215520, Note_off_c, 0, 60, 95
2, 215520, Note_off_c, 0, 55, 95
2, 215520, Note_off_c, 0, 52, 95
2, 215520, Note_off_c, 0, 48, 95
2, 215520, Note_on_c, 0, 64, 95
2, 215520, Note_on_c, 0, 60, 95
2, 215520, Note_on_c, 0, 55, 95
2, 215520, Note_on_c, 0, 52, 95
2, 215520, Note_on_c, 0, 48, 95
2, 216960, Note_off_c, 0, 64, 95
2, 216960, Note_off_c, 0, 60, 95
2, 216960, Note_off_c, 0, 55, 95
2, 216960, Note_off_c, 0, 52, 95
2, 216960, Note_off_c, 0, 48, 95
2, 216960, Note_on_c, 0, 64, 95
2, 216960, Note_on_c, 0, 60, 95
2, 216960, Note_on_c, 0, 55, 95
2, 216960, Note_on_c, 0, 52, 95
2, 216960, Note_on_c, 0, 48, 95
2, 217440, Note_off_c, 0, 64, 95
2, 217440, Note_off_c, 0, 60, 95
2, 217440, Note_off_c, 0, 55, 95
2, 217440, Note_off_c, 0, 52, 95
2, 217440, Note_off_c, 0, 48, 95
2, 217440, Note_on_c, 0, 64, 95
2, 217440, Note_on_c, 0, 60, 95
2, 217440, Note_on_c, 0, 55, 95
2, 217440, Note_on_c, 0, 52, 95
2, 217440, Note_on_c, 0, 48, 95
2, 217920, Note_off_c, 0, 64, 95
2, 217920, Note_off_c, 0, 60, 95
2, 217920, Note_off_c, 0, 55, 95
2, 217920, Note_off_c, 0, 52, 95
2, 217920, Note_off_c, 0, 48, 95
2, 217920, Note_on_c, 0, 64, 95
2, 217920, Note_on_c, 0, 60, 95
2, 217920, Note_on_c, 0, 55, 95
2, 217920, Note_on_c, 0, 52, 95
2, 217920, Note_on_c, 0, 48, 95
2, 218400, Note_off_c, 0, 64, 95
2, 218400, Note_off_c, 0, 60, 95
2, 218400, Note_off_c, 0, 55, 95
2, 218400, Note_off_c, 0, 52, 95
2, 218400, Note_off_c, 0, 48, 95
2, 218400, Note_on_c, 0, 42, 95
2, 218880, Note_off_c, 0, 42, 95
2, 218880, Note_on_c, 0, 43, 95
2, 219840, Note_off_c, 0, 43, 95
2, 219840, Note_on_c, 0, 67, 95
2, 219840, Note_on_c, 0, 59, 95
2, 219840, Note_on_c, 0, 55, 95
2, 219840, Note_on_c, 0, 50, 95
2, 219840, Note_on_c, 0, 47, 47
2, 220320, Note_off_c, 0, 67, 95
2, 220320, Note_off_c, 0, 59, 95
2, 220320, Note_off_c, 0, 55, 95
2, 220320, Note_off_c, 0, 50, 95
2, 220320, Note_off_c, 0, 47, 47
2, 220320, Note_on_c, 0, 67, 95
2, 220320, Note_on_c, 0, 59, 95
2, 220320, Note_on_c, 0, 55, 95
2, 220320, Note_on_c, 0, 50, 95
2, 220320, Note_on_c, 0, 47, 95
2, 220320, Note_on_c, 0, 43, 95
2, 220800, Note_off_c, 0, 67, 95
2, 220800, Note_off_c, 0, 59, 95
2, 220800, Note_off_c, 0, 55, 95
2, 220800, Note_off_c, 0, 50, 95
2, 220800, Note_off_c, 0, 47, 95
2, 220800, Note_off_c, 0, 43, 95
2, 220800, Note_on_c, 0, 55, 95
2, 221280, Note_off_c, 0, 55, 95
2, 221280, Note_on_c, 0, 55, 95
2, 221640, Note_on_c, 1, 55, 95
2, 221760, Note_off_c, 0, 55, 95
2, 221760, Note_off_c, 1, 55, 95
2, 221760, Note_on_c, 1, 57, 95
2, 222240, Note_off_c, 1, 57, 95
2, 222240, Note_on_c, 0, 55, 95
2, 222720, Note_off_c, 0, 55, 95
2, 222720, Note_on_c, 0, 57, 95
2, 223200, Note_off_c, 0, 57, 95
2, 223200, Note_on_c, 0, 55, 95
2, 223560, Note_on_c, 1, 50, 95
2, 223680, Note_off_c, 0, 55, 95
2, 223680, Note_off_c, 1, 50, 95
2, 223680, Note_on_c, 1, 52, 95
2, 224160, Note_off_c, 1, 52, 95
2, 224160, Note_on_c, 0, 55, 95
2, 224640, Note_off_c, 0, 55, 95
2, 224640, Note_on_c, 0, 60, 95
2, 224640, Note_on_c, 0, 55, 95
2, 224640, Note_on_c, 0, 52, 95
2, 224640, Note_on_c, 0, 48, 95
2, 225600, Note_off_c, 0, 60, 95
2, 225600, Note_off_c, 0, 55, 95
2, 225600, Note_off_c, 0, 52, 95
2, 225600, Note_off_c, 0, 48, 95
2, 225600, Note_on_c, 0, 60, 95
2, 225600, Note_on_c, 0, 55, 95
2, 225600, Note_on_c, 0, 52, 95
2, 225600, Note_on_c, 0, 48, 95
2, 226080, Note_off_c, 0, 60, 95
2, 226080, Note_off_c, 0, 55, 95
2, 226080, Note_off_c, 0, 52, 95
2, 226080, Note_off_c, 0, 48, 95
2, 226080, Note_on_c, 0, 64, 95
2, 226080, Note_on_c, 0, 60, 95
2, 226080, Note_on_c, 0, 55, 95
2, 226080, Note_on_c, 0, 52, 95
2, 226080, Note_on_c, 0, 48, 95
2, 227040, Note_off_c, 0, 64, 95
2, 227040, Note_off_c, 0, 60, 95
2, 227040, Note_off_c, 0, 55, 95
2, 227040, Note_off_c, 0, 52, 95
2, 227040, Note_off_c, 0, 48, 95
2, 227040, Note_on_c, 0, 64, 95
2, 227040, Note_on_c, 0, 59, 95
2, 227040, Note_on_c, 0, 55, 95
2, 227040, Note_on_c, 0, 50, 95
2, 227520, Note_off_c, 0, 64, 95
2, 227520, Note_off_c, 0, 59, 95
2, 227520, Note_off_c, 0, 55, 95
2, 227520, Note_off_c, 0, 50, 95
2, 227520, Note_on_c, 0, 67, 95
2, 227520, Note_on_c, 0, 59, 95
2, 227520, Note_on_c, 0, 55, 95
2, 227520, Note_on_c, 0, 50, 95
2, 227520, Note_on_c, 0, 47, 95
2, 227520, Note_on_c, 0, 43, 95
2, 228480, Note_off_c, 0, 67, 95
2, 228480, Note_off_c, 0, 59, 95
2, 228480, Note_off_c, 0, 55, 95
2, 228480, Note_off_c, 0, 50, 95
2, 228480, Note_off_c, 0, 47, 95
2, 228480, Note_off_c, 0, 43, 95
2, 228480, Note_on_c, 0, 67, 95
2, 228480, Note_on_c, 0, 59, 95
2, 228480, Note_on_c, 0, 55, 95
2, 228480, Note_on_c, 0, 50, 95
2, 228480, Note_on_c, 0, 47, 95
2, 228480, Note_on_c, 0, 43, 95
2, 228960, Note_off_c, 0, 67, 95
2, 228960, Note_off_c, 0, 59, 95
2, 228960, Note_off_c, 0, 55, 95
2, 228960, Note_off_c, 0, 50, 95
2, 228960, Note_off_c, 0, 47, 95
2, 228960, Note_off_c, 0, 43, 95
2, 228960, Note_on_c, 0, 43, 95
2, 229440, Note_off_c, 0, 43, 95
2, 229440, Note_on_c, 0, 45, 95
2, 229920, Note_off_c, 0, 45, 95
2, 229920, Note_on_c, 0, 47, 95
2, 230400, Note_off_c, 0, 47, 95
2, 230400, Note_on_c, 0, 48, 95
2, 231360, Note_off_c, 0, 48, 95
2, 231360, Note_on_c, 0, 64, 95
2, 231360, Note_on_c, 0, 60, 95
2, 231360, Note_on_c, 0, 55, 95
2, 231360, Note_on_c, 0, 52, 95
2, 231840, Note_off_c, 0, 64, 95
2, 231840, Note_off_c, 0, 60, 95
2, 231840, Note_off_c, 0, 55, 95
2, 231840, Note_off_c, 0, 52, 95
2, 231840, Note_on_c, 0, 64, 95
2, 231840, Note_on_c, 0, 60, 95
2, 231840, Note_on_c, 0, 55, 95
2, 231840, Note_on_c, 0, 52, 95
2, 232800, Note_off_c, 0, 64, 95
2, 232800, Note_off_c, 0, 60, 95
2, 232800, Note_off_c, 0, 55, 95
2, 232800, Note_off_c, 0, 52, 95
2, 232800, Note_on_c, 0, 64, 95
2, 232800, Note_on_c, 0, 60, 95
2, 232800, Note_on_c, 0, 55, 95
2, 232800, Note_on_c, 0, 52, 95
2, 232800, Note_on_c, 0, 48, 95
2, 233760, Note_off_c, 0, 64, 95
2, 233760, Note_off_c, 0, 60, 95
2, 233760, Note_off_c, 0, 55, 95
2, 233760, Note_off_c, 0, 52, 95
2, 233760, Note_off_c, 0, 48, 95
2, 233760, Note_on_c, 0, 55, 95
2, 234240, Note_off_c, 0, 55, 95
2, 234240, Note_on_c, 0, 57, 95
2, 235080, Note_on_c, 1, 50, 95
2, 235200, Note_off_c, 0, 57, 95
2, 235200, Note_off_c, 1, 50, 95
2, 235200, Note_on_c, 1, 52, 95
2, 235680, Note_off_c, 1, 52, 95
2, 235680, Note_on_c, 0, 50, 95
2, 236160, Note_off_c, 0, 50, 95
2, 236160, Note_on_c, 0, 41, 95
2, 237120, Note_off_c, 0, 41, 95
2, 237120, Note_on_c, 0, 65, 95
2, 237120, Note_on_c, 0, 60, 95
2, 237120, Note_on_c, 0, 57, 95
2, 237120, Note_on_c, 0, 53, 95
2, 237600, Note_off_c, 0, 65, 95
2, 237600, Note_off_c, 0, 60, 95
2, 237600, Note_off_c, 0, 57, 95
2, 237600, Note_off_c, 0, 53, 95
2, 237600, Note_on_c, 0, 65, 95
2, 237600, Note_on_c, 0, 60, 95
2, 237600, Note_on_c, 0, 57, 95
2, 237600, Note_on_c, 0, 53, 95
2, 237600, Note_on_c, 0, 41, 95
2, 238080, Note_off_c, 0, 65, 95
2, 238080, Note_off_c, 0, 60, 95
2, 238080, Note_off_c, 0, 57, 95
2, 238080, Note_off_c, 0, 53, 95
2, 238080, Note_off_c, 0, 41, 95
2, 238080, Note_on_c, 0, 65, 95
2, 238080, Note_on_c, 0, 60, 95
2, 238080, Note_on_c, 0, 57, 95
2, 238080, Note_on_c, 0, 53, 95
2, 238080, Note_on_c, 0, 41, 47
2, 238560, Note_off_c, 0, 65, 95
2, 238560, Note_off_c, 0, 60, 95
2, 238560, Note_off_c, 0, 57, 95
2, 238560, Note_off_c, 0, 53, 95
2, 238560, Note_off_c, 0, 41, 47
2, 238560, Note_on_c, 0, 65, 95
2, 238560, Note_on_c, 0, 60, 95
2, 238560, Note_on_c, 0, 57, 95
2, 238560, Note_on_c, 0, 53, 95
2, 238560, Note_on_c, 0, 41, 47
2, 239040, Note_off_c, 0, 65, 95
2, 239040, Note_off_c, 0, 60, 95
2, 239040, Note_off_c, 0, 57, 95
2, 239040, Note_off_c, 0, 53, 95
2, 239040, Note_off_c, 0, 41, 47
2, 239040, Note_on_c, 0, 65, 95
2, 239040, Note_on_c, 0, 60, 95
2, 239040, Note_on_c, 0, 57, 95
2, 239040, Note_on_c, 0, 53, 95
2, 239040, Note_on_c, 0, 41, 95
2, 240000, Note_off_c, 0, 65, 95
2, 240000, Note_off_c, 0, 60, 95
2, 240000, Note_off_c, 0, 57, 95
2, 240000, Note_off_c, 0, 53, 95
2, 240000, Note_off_c, 0, 41, 95
2, 240000, Note_on_c, 0, 65, 95
2, 240000, Note_on_c, 0, 60, 95
2, 240000, Note_on_c, 0, 57, 95
2, 240000, Note_on_c, 0, 53, 95
2, 240000, Note_on_c, 0, 41, 47
2, 240480, Note_off_c, 0, 65, 95
2, 240480, Note_off_c, 0, 60, 95
2, 240480, Note_off_c, 0, 57, 95
2, 240480, Note_off_c, 0, 53, 95
2, 240480, Note_off_c, 0, 41, 47
2, 240480, Note_on_c, 0, 65, 95
2, 240480, Note_on_c, 0, 60, 95
2, 240480, Note_on_c, 0, 57, 95
2, 240480, Note_on_c, 0, 53, 95
2, 240480, Note_on_c, 0, 41, 95
2, 240960, Note_off_c, 0, 65, 95
2, 240960, Note_off_c, 0, 60, 95
2, 240960, Note_off_c, 0, 57, 95
2, 240960, Note_off_c, 0, 53, 95
2, 240960, Note_off_c, 0, 41, 95
2, 240960, Note_on_c, 0, 65, 95
2, 240960, Note_on_c, 0, 60, 95
2, 240960, Note_on_c, 0, 57, 95
2, 240960, Note_on_c, 0, 53, 95
2, 240960, Note_on_c, 0, 41, 47
2, 241440, Note_off_c, 0, 65, 95
2, 241440, Note_off_c, 0, 60, 95
2, 241440, Note_off_c, 0, 57, 95
2, 241440, Note_off_c, 0, 53, 95
2, 241440, Note_off_c, 0, 41, 47
2, 241440, Note_on_c, 0, 65, 95
2, 241440, Note_on_c, 0, 60, 95
2, 241440, Note_on_c, 0, 57, 95
2, 241440, Note_on_c, 0, 53, 95
2, 241440, Note_on_c, 0, 41, 47
2, 241920, Note_off_c, 0, 65, 95
2, 241920, Note_off_c, 0, 60, 95
2, 241920, Note_off_c, 0, 57, 95
2, 241920, Note_off_c, 0, 53, 95
2, 241920, Note_off_c, 0, 41, 47
2, 241920, Note_on_c, 0, 65, 95
2, 241920, Note_on_c, 0, 60, 95
2, 241920, Note_on_c, 0, 57, 95
2, 241920, Note_on_c, 0, 53, 95
2, 241920, Note_on_c, 0, 41, 95
2, 242400, Note_off_c, 0, 65, 95
2, 242400, Note_off_c, 0, 60, 95
2, 242400, Note_off_c, 0, 57, 95
2, 242400, Note_off_c, 0, 53, 95
2, 242400, Note_off_c, 0, 41, 95
2, 242400, Note_on_c, 0, 65, 95
2, 242400, Note_on_c, 0, 60, 95
2, 242400, Note_on_c, 0, 57, 95
2, 242400, Note_on_c, 0, 53, 95
2, 242400, Note_on_c, 0, 41, 47
2, 242880, Note_off_c, 0, 65, 95
2, 242880, Note_off_c, 0, 60, 95
2, 242880, Note_off_c, 0, 57, 95
2, 242880, Note_off_c, 0, 53, 95
2, 242880, Note_off_c, 0, 41, 47
2, 242880, Note_on_c, 0, 65, 95
2, 242880, Note_on_c, 0, 60, 95
2, 242880, Note_on_c, 0, 57, 95
2, 242880, Note_on_c, 0, 53, 95
2, 242880, Note_on_c, 0, 41, 47
2, 243360, Note_off_c, 0, 65, 95
2, 243360, Note_off_c, 0, 60, 95
2, 243360, Note_off_c, 0, 57, 95
2, 243360, Note_off_c, 0, 53, 95
2, 243360, Note_off_c, 0, 41, 47
2, 243360, Note_on_c, 0, 65, 95
2, 243360, Note_on_c, 0, 60, 95
2, 243360, Note_on_c, 0, 57, 95
2, 243360, Note_on_c, 0, 53, 95
2, 243360, Note_on_c, 0, 41, 95
2, 243840, Note_off_c, 0, 65, 95
2, 243840, Note_off_c, 0, 60, 95
2, 243840, Note_off_c, 0, 57, 95
2, 243840, Note_off_c, 0, 53, 95
2, 243840, Note_off_c, 0, 41, 95
2, 243840, Note_on_c, 0, 65, 95
2, 243840, Note_on_c, 0, 60, 95
2, 243840, Note_on_c, 0, 57, 95
2, 243840, Note_on_c, 0, 53, 95
2, 243840, Note_on_c, 0, 41, 47
2, 244320, Note_off_c, 0, 65, 95
2, 244320, Note_off_c, 0, 60, 95
2, 244320, Note_off_c, 0, 57, 95
2, 244320, Note_off_c, 0, 53, 95
2, 244320, Note_off_c, 0, 41, 47
2, 244320, Note_on_c, 0, 65, 95
2, 244320, Note_on_c, 0, 60, 95
2, 244320, Note_on_c, 0, 57, 95
2, 244320, Note_on_c, 0, 53, 95
2, 244320, Note_on_c, 0, 41, 47
2, 244800, Note_off_c, 0, 65, 95
2, 244800, Note_off_c, 0, 60, 95
2, 244800, Note_off_c, 0, 57, 95
2, 244800, Note_off_c, 0, 53, 95
2, 244800, Note_off_c, 0, 41, 47
2, 244800, Note_on_c, 0, 65, 95
2, 244800, Note_on_c, 0, 60, 95
2, 244800, Note_on_c, 0, 57, 95
2, 244800, Note_on_c, 0, 53, 95
2, 244800, Note_on_c, 0, 41, 95
2, 245280, Note_off_c, 0, 65, 95
2, 245280, Note_off_c, 0, 60, 95
2, 245280, Note_off_c, 0, 57, 95
2, 245280, Note_off_c, 0, 53, 95
2, 245280, Note_off_c, 0, 41, 95
2, 245760, Note_on_c, 0, 65, 95
2, 245760, Note_on_c, 0, 60, 95
2, 245760, Note_on_c, 0, 57, 95
2, 245760, Note_on_c, 0, 53, 95
2, 245760, Note_on_c, 0, 41, 47
2, 246240, Note_off_c, 0, 65, 95
2, 246240, Note_off_c, 0, 60, 95
2, 246240, Note_off_c, 0, 57, 95
2, 246240, Note_off_c, 0, 53, 95
2, 246240, Note_off_c, 0, 41, 47
2, 246720, Note_on_c, 0, 65, 95
2, 246720, Note_on_c, 0, 60, 95
2, 246720, Note_on_c, 0, 57, 95
2, 246720, Note_on_c, 0, 53, 95
2, 246720, Note_on_c, 0, 41, 95
2, 247200, Note_off_c, 0, 65, 95
2, 247200, Note_off_c, 0, 60, 95
2, 247200, Note_off_c, 0, 57, 95
2, 247200, Note_off_c, 0, 53, 95
2, 247200, Note_off_c, 0, 41, 95
2, 247200, Note_on_c, 0, 64, 95
2, 247200, Note_on_c, 0, 59, 95
2, 247200, Note_on_c, 0, 55, 95
2, 247200, Note_on_c, 0, 50, 95
2, 247200, Note_on_c, 0, 40, 95
2, 247260, Note_off_c, 0, 64, 95
2, 247260, Note_off_c, 0, 59, 95
2, 247260, Note_off_c, 0, 55, 95
2, 247260, Note_off_c, 0, 50, 95
2, 247260, Note_off_c, 0, 40, 95
2, 247680, Note_on_c, 0, 64, 95
2, 247680, Note_on_c, 0, 60, 95
2, 247680, Note_on_c, 0, 55, 95
2, 247680, Note_on_c, 0, 52, 95
2, 247680, Note_on_c, 0, 48, 95
2, 248640, Note_off_c, 0, 64, 95
2, 248640, Note_off_c, 0, 60, 95
2, 248640, Note_off_c, 0, 55, 95
2, 248640, Note_off_c, 0, 52, 95
2, 248640, Note_off_c, 0, 48, 95
2, 248640, Note_on_c, 0, 64, 95
2, 248640, Note_on_c, 0, 60, 95
2, 248640, Note_on_c, 0, 55, 95
2, 248640, Note_on_c, 0, 52, 95
2, 248640, Note_on_c, 0, 48, 95
2, 249120, Note_off_c, 0, 64, 95
2, 249120, Note_off_c, 0, 60, 95
2, 249120, Note_off_c, 0, 55, 95
2, 249120, Note_off_c, 0, 52, 95
2, 249120, Note_off_c, 0, 48, 95
2, 249120, Note_on_c, 0, 64, 47
2, 249120, Note_on_c, 0, 60, 95
2, 249120, Note_on_c, 0, 55, 95
2, 249120, Note_on_c, 0, 52, 95
2, 249120, Note_on_c, 0, 48, 95
2, 249600, Note_off_c, 0, 64, 47
2, 249600, Note_off_c, 0, 60, 95
2, 249600, Note_off_c, 0, 55, 95
2, 249600, Note_off_c, 0, 52, 95
2, 249600, Note_off_c, 0, 48, 95
2, 249600, Note_on_c, 0, 47, 95
2, 250080, Note_off_c, 0, 47, 95
2, 250080, Note_on_c, 0, 45, 95
2, 250560, Note_off_c, 0, 45, 95
2, 250560, Note_on_c, 0, 55, 95
2, 250560, Note_on_c, 0, 50, 95
2, 250560, Note_on_c, 0, 47, 95
2, 250560, Note_on_c, 0, 43, 95
2, 251520, Note_off_c, 0, 55, 95
2, 251520, Note_off_c, 0, 50, 95
2, 251520, Note_off_c, 0, 47, 95
2, 251520, Note_off_c, 0, 43, 95
2, 251520, Note_on_c, 0, 67, 95
2, 251520, Note_on_c, 0, 59, 95
2, 251520, Note_on_c, 0, 55, 95
2, 251520, Note_on_c, 0, 50, 95
2, 252000, Note_off_c, 0, 67, 95
2, 252000, Note_off_c, 0, 59, 95
2, 252000, Note_off_c, 0, 55, 95
2, 252000, Note_off_c, 0, 50, 95
2, 252000, Note_on_c, 0, 64, 95
2, 252000, Note_on_c, 0, 59, 95
2, 252000, Note_on_c, 0, 55, 95
2, 252000, Note_on_c, 0, 50, 95
2, 252060, Note_off_c, 0, 64, 95
2, 252060, Note_off_c, 0, 59, 95
2, 252060, Note_off_c, 0, 55, 95
2, 252060, Note_off_c, 0, 50, 95
2, 252480, Note_on_c, 0, 45, 95
2, 252960, Note_off_c, 0, 45, 95
2, 252960, Note_on_c, 0, 47, 95
2, 253440, Note_off_c, 0, 47, 95
2, 253440, Note_on_c, 0, 48, 95
2, 254760, Note_on_c, 1, 50, 95
2, 254880, Note_off_c, 0, 48, 95
2, 254880, Note_off_c, 1, 50, 95
2, 254880, Note_on_c, 1, 52, 95
2, 255360, Note_off_c, 1, 52, 95
2, 255360, Note_on_c, 0, 55, 95
2, 255840, Note_off_c, 0, 55, 95
2, 255840, Note_on_c, 0, 50, 95
2, 256200, Note_on_c, 1, 55, 95
2, 256320, Note_off_c, 0, 50, 95
2, 256320, Note_off_c, 1, 55, 95
2, 256320, Note_on_c, 1, 57, 95
2, 256800, Note_off_c, 1, 57, 95
2, 256800, Note_on_c, 0, 55, 95
2, 257280, Note_off_c, 0, 55, 95
2, 257280, Note_on_c, 0, 52, 95
2, 257640, Note_on_c, 1, 55, 95
2, 257760, Note_off_c, 0, 52, 95
2, 257760, Note_off_c, 1, 55, 95
2, 257760, Note_on_c, 1, 57, 95
2, 258240, Note_off_c, 1, 57, 95
2, 258240, Note_on_c, 0, 55, 95
2, 258720, Note_off_c, 0, 55, 95
2, 258720, Note_on_c, 0, 52, 95
2, 259200, Note_off_c, 0, 52, 95
2, 259200, Note_on_c, 0, 55, 95
2, 259200, Note_on_c, 0, 50, 95
2, 259200, Note_on_c, 0, 47, 95
2, 259200, Note_on_c, 0, 43, 95
2, 260160, Note_off_c, 0, 55, 95
2, 260160, Note_off_c, 0, 50, 95
2, 260160, Note_off_c, 0, 47, 95
2, 260160, Note_off_c, 0, 43, 95
2, 260160, Note_on_c, 0, 67, 95
2, 260160, Note_on_c, 0, 59, 95
2, 260160, Note_on_c, 0, 55, 95
2, 260160, Note_on_c, 0, 50, 95
2, 260640, Note_off_c, 0, 67, 95
2, 260640, Note_off_c, 0, 59, 95
2, 260640, Note_off_c, 0, 55, 95
2, 260640, Note_off_c, 0, 50, 95
2, 260640, Note_on_c, 0, 67, 95
2, 260640, Note_on_c, 0, 59, 95
2, 260640, Note_on_c, 0, 55, 95
2, 260640, Note_on_c, 0, 50, 95
2, 260640, Note_on_c, 0, 47, 95
2, 260640, Note_on_c, 0, 43, 95
2, 261120, Note_off_c, 0, 67, 95
2, 261120, Note_off_c, 0, 59, 95
2, 261120, Note_off_c, 0, 55, 95
2, 261120, Note_off_c, 0, 50, 95
2, 261120, Note_off_c, 0, 47, 95
2, 261120, Note_off_c, 0, 43, 95
2, 261120, Note_on_c, 0, 67, 95
2, 261120, Note_on_c, 0, 59, 95
2, 261120, Note_on_c, 0, 55, 95
2, 261120, Note_on_c, 0, 50, 95
2, 261120, Note_on_c, 0, 47, 95
2, 261120, Note_on_c, 0, 43, 95
2, 261600, Note_off_c, 0, 67, 95
2, 261600, Note_off_c, 0, 59, 95
2, 261600, Note_off_c, 0, 55, 95
2, 261600, Note_off_c, 0, 50, 95
2, 261600, Note_off_c, 0, 47, 95
2, 261600, Note_off_c, 0, 43, 95
2, 261600, Note_on_c, 0, 67, 95
2, 261600, Note_on_c, 0, 59, 95
2, 261600, Note_on_c, 0, 55, 95
2, 261600, Note_on_c, 0, 50, 95
2, 261600, Note_on_c, 0, 47, 95
2, 261600, Note_on_c, 0, 43, 95
2, 262080, Note_off_c, 0, 67, 95
2, 262080, Note_off_c, 0, 59, 95
2, 262080, Note_off_c, 0, 55, 95
2, 262080, Note_off_c, 0, 50, 95
2, 262080, Note_off_c, 0, 47, 95
2, 262080, Note_off_c, 0, 43, 95
2, 262080, Note_on_c, 0, 67, 95
2, 262080, Note_on_c, 0, 59, 95
2, 262080, Note_on_c, 0, 55, 95
2, 262080, Note_on_c, 0, 50, 95
2, 262080, Note_on_c, 0, 47, 95
2, 262080, Note_on_c, 0, 43, 95
2, 263040, Note_off_c, 0, 67, 95
2, 263040, Note_off_c, 0, 59, 95
2, 263040, Note_off_c, 0, 55, 95
2, 263040, Note_off_c, 0, 50, 95
2, 263040, Note_off_c, 0, 47, 95
2, 263040, Note_off_c, 0, 43, 95
2, 263040, Note_on_c, 0, 67, 95
2, 263040, Note_on_c, 0, 59, 95
2, 263040, Note_on_c, 0, 55, 95
2, 263040, Note_on_c, 0, 50, 95
2, 263040, Note_on_c, 0, 47, 95
2, 263040, Note_on_c, 0, 43, 95
2, 263520, Note_off_c, 0, 67, 95
2, 263520, Note_off_c, 0, 59, 95
2, 263520, Note_off_c, 0, 55, 95
2, 263520, Note_off_c, 0, 50, 95
2, 263520, Note_off_c, 0, 47, 95
2, 263520, Note_off_c, 0, 43, 95
2, 263520, Note_on_c, 0, 67, 95
2, 263520, Note_on_c, 0, 59, 95
2, 263520, Note_on_c, 0, 55, 95
2, 263520, Note_on_c, 0, 50, 95
2, 263520, Note_on_c, 0, 47, 95
2, 263520, Note_on_c, 0, 43, 95
2, 264000, Note_off_c, 0, 67, 95
2, 264000, Note_off_c, 0, 59, 95
2, 264000, Note_off_c, 0, 55, 95
2, 264000, Note_off_c, 0, 50, 95
2, 264000, Note_off_c, 0, 47, 95
2, 264000, Note_off_c, 0, 43, 95
2, 264000, Note_on_c, 0, 67, 95
2, 264000, Note_on_c, 0, 59, 95
2, 264000, Note_on_c, 0, 55, 95
2, 264000, Note_on_c, 0, 50, 95
2, 264000, Note_on_c, 0, 47, 95
2, 264000, Note_on_c, 0, 43, 95
2, 264480, Note_off_c, 0, 67, 95
2, 264480, Note_off_c, 0, 59, 95
2, 264480, Note_off_c, 0, 55, 95
2, 264480, Note_off_c, 0, 50, 95
2, 264480, Note_off_c, 0, 47, 95
2, 264480, Note_off_c, 0, 43, 95
2, 264480, Note_on_c, 0, 67, 95
2, 264480, Note_on_c, 0, 59, 95
2, 264480, Note_on_c, 0, 55, 95
2, 264480, Note_on_c, 0, 50, 95
2, 264480, Note_on_c, 0, 47, 95
2, 264480, Note_on_c, 0, 43, 95
2, 264960, Note_off_c, 0, 67, 95
2, 264960, Note_off_c, 0, 59, 95
2, 264960, Note_off_c, 0, 55, 95
2, 264960, Note_off_c, 0, 50, 95
2, 264960, Note_off_c, 0, 47, 95
2, 264960, Note_off_c, 0, 43, 95
2, 264960, Note_on_c, 0, 67, 95
2, 264960, Note_on_c, 0, 59, 95
2, 264960, Note_on_c, 0, 55, 95
2, 264960, Note_on_c, 0, 50, 95
2, 264960, Note_on_c, 0, 47, 95
2, 264960, Note_on_c, 0, 43, 95
2, 265440, Note_off_c, 0, 67, 95
2, 265440, Note_off_c, 0, 59, 95
2, 265440, Note_off_c, 0, 55, 95
2, 265440, Note_off_c, 0, 50, 95
2, 265440, Note_off_c, 0, 47, 95
2, 265440, Note_off_c, 0, 43, 95
2, 265440, Note_on_c, 0, 67, 95
2, 265440, Note_on_c, 0, 59, 95
2, 265440, Note_on_c, 0, 55, 95
2, 265440, Note_on_c, 0, 50, 95
2, 265440, Note_on_c, 0, 47, 95
2, 265440, Note_on_c, 0, 43, 95
2, 265920, Note_off_c, 0, 67, 95
2, 265920, Note_off_c, 0, 59, 95
2, 265920, Note_off_c, 0, 55, 95
2, 265920, Note_off_c, 0, 50, 95
2, 265920, Note_off_c, 0, 47, 95
2, 265920, Note_off_c, 0, 43, 95
2, 265920, Note_on_c, 0, 67, 95
2, 265920, Note_on_c, 0, 59, 95
2, 265920, Note_on_c, 0, 55, 95
2, 265920, Note_on_c, 0, 50, 95
2, 265920, Note_on_c, 0, 47, 95
2, 265920, Note_on_c, 0, 43, 95
2, 266400, Note_off_c, 0, 67, 95
2, 266400, Note_off_c, 0, 59, 95
2, 266400, Note_off_c, 0, 55, 95
2, 266400, Note_off_c, 0, 50, 95
2, 266400, Note_off_c, 0, 47, 95
2, 266400, Note_off_c, 0, 43, 95
2, 266400, Note_on_c, 0, 67, 95
2, 266400, Note_on_c, 0, 59, 95
2, 266400, Note_on_c, 0, 55, 95
2, 266400, Note_on_c, 0, 50, 95
2, 266400, Note_on_c, 0, 47, 95
2, 266400, Note_on_c, 0, 43, 95
2, 266880, Note_off_c, 0, 67, 95
2, 266880, Note_off_c, 0, 59, 95
2, 266880, Note_off_c, 0, 55, 95
2, 266880, Note_off_c, 0, 50, 95
2, 266880, Note_off_c, 0, 47, 95
2, 266880, Note_off_c, 0, 43, 95
2, 266880, Note_on_c, 0, 67, 95
2, 266880, Note_on_c, 0, 59, 95
2, 266880, Note_on_c, 0, 55, 95
2, 266880, Note_on_c, 0, 50, 95
2, 266880, Note_on_c, 0, 47, 95
2, 266880, Note_on_c, 0, 43, 95
2, 267360, Note_off_c, 0, 67, 95
2, 267360, Note_off_c, 0, 59, 95
2, 267360, Note_off_c, 0, 55, 95
2, 267360, Note_off_c, 0, 50, 95
2, 267360, Note_off_c, 0, 47, 95
2, 267360, Note_off_c, 0, 43, 95
2, 267360, Note_on_c, 0, 67, 95
2, 267360, Note_on_c, 0, 59, 95
2, 267360, Note_on_c, 0, 55, 95
2, 267360, Note_on_c, 0, 50, 95
2, 267360, Note_on_c, 0, 47, 95
2, 267360, Note_on_c, 0, 43, 95
2, 267840, Note_off_c, 0, 67, 95
2, 267840, Note_off_c, 0, 59, 95
2, 267840, Note_off_c, 0, 55, 95
2, 267840, Note_off_c, 0, 50, 95
2, 267840, Note_off_c, 0, 47, 95
2, 267840, Note_off_c, 0, 43, 95
2, 267840, Note_on_c, 0, 67, 95
2, 267840, Note_on_c, 0, 59, 95
2, 267840, Note_on_c, 0, 55, 95
2, 267840, Note_on_c, 0, 50, 95
2, 267840, Note_on_c, 0, 47, 95
2, 267840, Note_on_c, 0, 43, 95
2, 268320, Note_off_c, 0, 67, 95
2, 268320, Note_off_c, 0, 59, 95
2, 268320, Note_off_c, 0, 55, 95
2, 268320, Note_off_c, 0, 50, 95
2, 268320, Note_off_c, 0, 47, 95
2, 268320, Note_off_c, 0, 43, 95
2, 268320, Note_on_c, 0, 67, 95
2, 268320, Note_on_c, 0, 59, 95
2, 268320, Note_on_c, 0, 55, 95
2, 268320, Note_on_c, 0, 50, 95
2, 268320, Note_on_c, 0, 47, 95
2, 268320, Note_on_c, 0, 43, 95
2, 268800, Note_off_c, 0, 67, 95
2, 268800, Note_off_c, 0, 59, 95
2, 268800, Note_off_c, 0, 55, 95
2, 268800, Note_off_c, 0, 50, 95
2, 268800, Note_off_c, 0, 47, 95
2, 268800, Note_off_c, 0, 43, 95
2, 268800, Note_on_c, 0, 67, 95
2, 268800, Note_on_c, 0, 59, 95
2, 268800, Note_on_c, 0, 55, 95
2, 268800, Note_on_c, 0, 50, 95
2, 268800, Note_on_c, 0, 47, 95
2, 268800, Note_on_c, 0, 43, 95
2, 269280, Note_off_c, 0, 67, 95
2, 269280, Note_off_c, 0, 59, 95
2, 269280, Note_off_c, 0, 55, 95
2, 269280, Note_off_c, 0, 50, 95
2, 269280, Note_off_c, 0, 47, 95
2, 269280, Note_off_c, 0, 43, 95
2, 269280, Note_on_c, 0, 67, 95
2, 269280, Note_on_c, 0, 59, 95
2, 269280, Note_on_c, 0, 55, 95
2, 269280, Note_on_c, 0, 50, 95
2, 269280, Note_on_c, 0, 47, 95
2, 269280, Note_on_c, 0, 43, 95
2, 269760, Note_off_c, 0, 67, 95
2, 269760, Note_off_c, 0, 59, 95
2, 269760, Note_off_c, 0, 55, 95
2, 269760, Note_off_c, 0, 50, 95
2, 269760, Note_off_c, 0, 47, 95
2, 269760, Note_off_c, 0, 43, 95
2, 269760, Note_on_c, 0, 67, 95
2, 269760, Note_on_c, 0, 59, 95
2, 269760, Note_on_c, 0, 55, 95
2, 269760, Note_on_c, 0, 50, 95
2, 269760, Note_on_c, 0, 47, 95
2, 269760, Note_on_c, 0, 43, 95
2, 270240, Note_off_c, 0, 67, 95
2, 270240, Note_off_c, 0, 59, 95
2, 270240, Note_off_c, 0, 55, 95
2, 270240, Note_off_c, 0, 50, 95
2, 270240, Note_off_c, 0, 47, 95
2, 270240, Note_off_c, 0, 43, 95
2, 270240, Note_on_c, 0, 67, 95
2, 270240, Note_on_c, 0, 59, 95
2, 270240, Note_on_c, 0, 55, 95
2, 270240, Note_on_c, 0, 50, 95
2, 270240, Note_on_c, 0, 47, 95
2, 270240, Note_on_c, 0, 43, 95
2, 270720, Note_off_c, 0, 67, 95
2, 270720, Note_off_c, 0, 59, 95
2, 270720, Note_off_c, 0, 55, 95
2, 270720, Note_off_c, 0, 50, 95
2, 270720, Note_off_c, 0, 47, 95
2, 270720, Note_off_c, 0, 43, 95
2, 270720, Note_on_c, 0, 64, 95
2, 270720, Note_on_c, 0, 60, 95
2, 270720, Note_on_c, 0, 55, 95
2, 270720, Note_on_c, 0, 52, 95
2, 270720, Note_on_c, 0, 48, 95
2, 271680, Note_off_c, 0, 64, 95
2, 271680, Note_off_c, 0, 60, 95
2, 271680, Note_off_c, 0, 55, 95
2, 271680, Note_off_c, 0, 52, 95
2, 271680, Note_off_c, 0, 48, 95
2, 271680, Note_on_c, 0, 64, 95
2, 271680, Note_on_c, 0, 60, 95
2, 271680, Note_on_c, 0, 55, 95
2, 271680, Note_on_c, 0, 52, 95
2, 271680, Note_on_c, 0, 48, 95
2, 272160, Note_off_c, 0, 64, 95
2, 272160, Note_off_c, 0, 60, 95
2, 272160, Note_off_c, 0, 55, 95
2, 272160, Note_off_c, 0, 52, 95
2, 272160, Note_off_c, 0, 48, 95
2, 272160, Note_on_c, 0, 64, 95
2, 272160, Note_on_c, 0, 60, 95
2, 272160, Note_on_c, 0, 55, 95
2, 272160, Note_on_c, 0, 52, 95
2, 272160, Note_on_c, 0, 48, 95
2, 272640, Note_off_c, 0, 64, 95
2, 272640, Note_off_c, 0, 60, 95
2, 272640, Note_off_c, 0, 55, 95
2, 272640, Note_off_c, 0, 52, 95
2, 272640, Note_off_c, 0, 48, 95
2, 272640, Note_on_c, 0, 64, 95
2, 272640, Note_on_c, 0, 60, 95
2, 272640, Note_on_c, 0, 55, 95
2, 272640, Note_on_c, 0, 52, 95
2, 272640, Note_on_c, 0, 48, 95
2, 273120, Note_off_c, 0, 64, 95
2, 273120, Note_off_c, 0, 60, 95
2, 273120, Note_off_c, 0, 55, 95
2, 273120, Note_off_c, 0, 52, 95
2, 273120, Note_off_c, 0, 48, 95
2, 273120, Note_on_c, 0, 64, 95
2, 273120, Note_on_c, 0, 60, 95
2, 273120, Note_on_c, 0, 55, 95
2, 273120, Note_on_c, 0, 52, 95
2, 273120, Note_on_c, 0, 48, 95
2, 273600, Note_off_c, 0, 64, 95
2, 273600, Note_off_c, 0, 60, 95
2, 273600, Note_off_c, 0, 55, 95
2, 273600, Note_off_c, 0, 52, 95
2, 273600, Note_off_c, 0, 48, 95
2, 273600, Note_on_c, 0, 65, 95
2, 273600, Note_on_c, 0, 60, 95
2, 273600, Note_on_c, 0, 57, 95
2, 273600, Note_on_c, 0, 53, 95
2, 274080, Note_off_c, 0, 65, 95
2, 274080, Note_off_c, 0, 60, 95
2, 274080, Note_off_c, 0, 57, 95
2, 274080, Note_off_c, 0, 53, 95
2, 274080, Note_on_c, 0, 65, 95
2, 274080, Note_on_c, 0, 60, 95
2, 274080, Note_on_c, 0, 57, 95
2, 274080, Note_on_c, 0, 53, 95
2, 274560, Note_off_c, 0, 65, 95
2, 274560, Note_off_c, 0, 60, 95
2, 274560, Note_off_c, 0, 57, 95
2, 274560, Note_off_c, 0, 53, 95
2, 274560, Note_on_c, 0, 65, 95
2, 274560, Note_on_c, 0, 60, 95
2, 274560, Note_on_c, 0, 57, 95
2, 274560, Note_on_c, 0, 53, 95
2, 275040, Note_off_c, 0, 65, 95
2, 275040, Note_off_c, 0, 60, 95
2, 275040, Note_off_c, 0, 57, 95
2, 275040, Note_off_c, 0, 53, 95
2, 275040, Note_on_c, 0, 65, 95
2, 275040, Note_on_c, 0, 60, 95
2, 275040, Note_on_c, 0, 56, 95
2, 275040, Note_on_c, 0, 53, 95
2, 275520, Note_off_c, 0, 65, 95
2, 275520, Note_off_c, 0, 60, 95
2, 275520, Note_off_c, 0, 56, 95
2, 275520, Note_off_c, 0, 53, 95
2, 275520, Note_on_c, 0, 65, 95
2, 275520, Note_on_c, 0, 60, 95
2, 275520, Note_on_c, 0, 56, 95
2, 275520, Note_on_c, 0, 53, 95
2, 276000, Note_off_c, 0, 65, 95
2, 276000, Note_off_c, 0, 60, 95
2, 276000, Note_off_c, 0, 56, 95
2, 276000, Note_off_c, 0, 53, 95
2, 276000, Note_on_c, 0, 65, 95
2, 276000, Note_on_c, 0, 60, 95
2, 276000, Note_on_c, 0, 56, 95
2, 276000, Note_on_c, 0, 53, 95
2, 276480, Note_off_c, 0, 65, 95
2, 276480, Note_off_c, 0, 60, 95
2, 276480, Note_off_c, 0, 56, 95
2, 276480, Note_off_c, 0, 53, 95
2, 276480, Note_on_c, 0, 64, 95
2, 276480, Note_on_c, 0, 60, 95
2, 276480, Note_on_c, 0, 55, 95
2, 276480, Note_on_c, 0, 52, 95
2, 276480, Note_on_c, 0, 48, 95
2, 276960, Note_off_c, 0, 64, 95
2, 276960, Note_off_c, 0, 60, 95
2, 276960, Note_off_c, 0, 55, 95
2, 276960, Note_off_c, 0, 52, 95
2, 276960, Note_off_c, 0, 48, 95
2, 277920, Note_on_c, 0, 40, 95
2, 278880, Note_off_c, 0, 40, 95
2, 278880, Note_on_c, 0, 40, 95
2, 279360, Note_off_c, 0, 40, 95
2, 279360, Note_on_c, 0, 41, 95
2, 280320, Note_off_c, 0, 41, 95
2, 280320, Note_on_c, 0, 41, 95
2, 280800, Note_off_c, 0, 41, 95
2, 280800, Note_on_c, 0, 42, 95
2, 281280, Note_off_c, 0, 42, 95
2, 281760, Note_on_c, 0, 60, 95
2, 281760, Note_on_c, 0, 55, 95
2, 281760, Note_on_c, 0, 52, 95
2, 282240, Note_off_c, 0, 60, 95
2, 282240, Note_off_c, 0, 55, 95
2, 282240, Note_off_c, 0, 52, 95
2, 282240, Note_on_c, 0, 64, 95
2, 282240, Note_on_c, 0, 60, 95
2, 282240, Note_on_c, 0, 55, 95
2, 282240, Note_on_c, 0, 52, 95
2, 282240, Note_on_c, 0, 48, 95
2, 283200, Note_off_c, 0, 64, 95
2, 283200, Note_off_c, 0, 60, 95
2, 283200, Note_off_c, 0, 55, 95
2, 283200, Note_off_c, 0, 52, 95
2, 283200, Note_off_c, 0, 48, 95
2, 283200, Note_on_c, 0, 64, 95
2, 283200, Note_on_c, 0, 60, 95
2, 283200, Note_on_c, 0, 55, 95
2, 283200, Note_on_c, 0, 52, 95
2, 283200, Note_on_c, 0, 48, 95
2, 283680, Note_off_c, 0, 64, 95
2, 283680, Note_off_c, 0, 60, 95
2, 283680, Note_off_c, 0, 55, 95
2, 283680, Note_off_c, 0, 52, 95
2, 283680, Note_off_c, 0, 48, 95
2, 283680, Note_on_c, 0, 64, 95
2, 283680, Note_on_c, 0, 60, 95
2, 283680, Note_on_c, 0, 55, 95
2, 283680, Note_on_c, 0, 52, 95
2, 283680, Note_on_c, 0, 48, 95
2, 284160, Note_off_c, 0, 64, 95
2, 284160, Note_off_c, 0, 60, 95
2, 284160, Note_off_c, 0, 55, 95
2, 284160, Note_off_c, 0, 52, 95
2, 284160, Note_off_c, 0, 48, 95
2, 284160, Note_on_c, 0, 64, 95
2, 284160, Note_on_c, 0, 60, 95
2, 284160, Note_on_c, 0, 55, 95
2, 284160, Note_on_c, 0, 52, 47
2, 284640, Note_off_c, 0, 64, 95
2, 284640, Note_off_c, 0, 60, 95
2, 284640, Note_off_c, 0, 55, 95
2, 284640, Note_off_c, 0, 52, 47
2, 284640, Note_on_c, 0, 64, 95
2, 284640, Note_on_c, 0, 60, 95
2, 284640, Note_on_c, 0, 55, 95
2, 284640, Note_on_c, 0, 52, 95
2, 284640, Note_on_c, 0, 48, 95
2, 285120, Note_off_c, 0, 64, 95
2, 285120, Note_off_c, 0, 60, 95
2, 285120, Note_off_c, 0, 55, 95
2, 285120, Note_off_c, 0, 52, 95
2, 285120, Note_off_c, 0, 48, 95
2, 285120, Note_on_c, 0, 64, 95
2, 285120, Note_on_c, 0, 60, 95
2, 285120, Note_on_c, 0, 55, 95
2, 285120, Note_on_c, 0, 52, 95
2, 285120, Note_on_c, 0, 48, 95
2, 285600, Note_off_c, 0, 64, 95
2, 285600, Note_off_c, 0, 60, 95
2, 285600, Note_off_c, 0, 55, 95
2, 285600, Note_off_c, 0, 52, 95
2, 285600, Note_off_c, 0, 48, 95
2, 285600, Note_on_c, 0, 64, 95
2, 285600, Note_on_c, 0, 60, 95
2, 285600, Note_on_c, 0, 55, 95
2, 285600, Note_on_c, 0, 52, 47
2, 286080, Note_off_c, 0, 64, 95
2, 286080, Note_off_c, 0, 60, 95
2, 286080, Note_off_c, 0, 55, 95
2, 286080, Note_off_c, 0, 52, 47
2, 286080, Note_on_c, 0, 64, 95
2, 286080, Note_on_c, 0, 60, 95
2, 286080, Note_on_c, 0, 55, 95
2, 286080, Note_on_c, 0, 52, 95
2, 286080, Note_on_c, 0, 48, 95
2, 286560, Note_off_c, 0, 64, 95
2, 286560, Note_off_c, 0, 60, 95
2, 286560, Note_off_c, 0, 55, 95
2, 286560, Note_off_c, 0, 52, 95
2, 286560, Note_off_c, 0, 48, 95
2, 286560, Note_on_c, 0, 64, 95
2, 286560, Note_on_c, 0, 60, 95
2, 286560, Note_on_c, 0, 55, 95
2, 286560, Note_on_c, 0, 52, 95
2, 286560, Note_on_c, 0, 48, 95
2, 287040, Note_off_c, 0, 64, 95
2, 287040, Note_off_c, 0, 60, 95
2, 287040, Note_off_c, 0, 55, 95
2, 287040, Note_off_c, 0, 52, 95
2, 287040, Note_off_c, 0, 48, 95
2, 287040, Note_on_c, 0, 64, 95
2, 287040, Note_on_c, 0, 60, 95
2, 287040, Note_on_c, 0, 55, 95
2, 287040, Note_on_c, 0, 52, 95
2, 287040, Note_on_c, 0, 48, 95
2, 287520, Note_off_c, 0, 64, 95
2, 287520, Note_off_c, 0, 60, 95
2, 287520, Note_off_c, 0, 55, 95
2, 287520, Note_off_c, 0, 52, 95
2, 287520, Note_off_c, 0, 48, 95
2, 287520, Note_on_c, 0, 64, 95
2, 287520, Note_on_c, 0, 60, 95
2, 287520, Note_on_c, 0, 55, 95
2, 287520, Note_on_c, 0, 52, 95
2, 287520, Note_on_c, 0, 48, 95
2, 288000, Note_off_c, 0, 64, 95
2, 288000, Note_off_c, 0, 60, 95
2, 288000, Note_off_c, 0, 55, 95
2, 288000, Note_off_c, 0, 52, 95
2, 288000, Note_off_c, 0, 48, 95
2, 288000, Note_on_c, 0, 67, 95
2, 288000, Note_on_c, 0, 59, 95
2, 288000, Note_on_c, 0, 55, 95
2, 288000, Note_on_c, 0, 50, 95
2, 288000, Note_on_c, 0, 47, 95
2, 288000, Note_on_c, 0, 43, 95
2, 288480, Note_off_c, 0, 67, 95
2, 288480, Note_off_c, 0, 59, 95
2, 288480, Note_off_c, 0, 55, 95
2, 288480, Note_off_c, 0, 50, 95
2, 288480, Note_off_c, 0, 47, 95
2, 288480, Note_off_c, 0, 43, 95
2, 288480, Note_on_c, 0, 67, 95
2, 288480, Note_on_c, 0, 59, 95
2, 288480, Note_on_c, 0, 55, 95
2, 288480, Note_on_c, 0, 50, 95
2, 288960, Note_off_c, 0, 67, 95
2, 288960, Note_off_c, 0, 59, 95
2, 288960, Note_off_c, 0, 55, 95
2, 288960, Note_off_c, 0, 50, 95
2, 288960, Note_on_c, 0, 67, 95
2, 288960, Note_on_c, 0, 59, 95
2, 288960, Note_on_c, 0, 55, 95
2, 288960, Note_on_c, 0, 50, 95
2, 289440, Note_off_c, 0, 67, 95
2, 289440, Note_off_c, 0, 59, 95
2, 289440, Note_off_c, 0, 55, 95
2, 289440, Note_off_c, 0, 50, 95
2, 289440, Note_on_c, 0, 67, 95
2, 289440, Note_on_c, 0, 59, 95
2, 289440, Note_on_c, 0, 55, 95
2, 289440, Note_on_c, 0, 50, 95
2, 289440, Note_on_c, 0, 47, 95
2, 289440, Note_on_c, 0, 43, 95
2, 290400, Note_off_c, 0, 67, 95
2, 290400, Note_off_c, 0, 59, 95
2, 290400, Note_off_c, 0, 55, 95
2, 290400, Note_off_c, 0, 50, 95
2, 290400, Note_off_c, 0, 47, 95
2, 290400, Note_off_c, 0, 43, 95
2, 290400, Note_on_c, 0, 67, 95
2, 290400, Note_on_c, 0, 59, 95
2, 290400, Note_on_c, 0, 55, 95
2, 290400, Note_on_c, 0, 50, 95
2, 290400, Note_on_c, 0, 47, 95
2, 290400, Note_on_c, 0, 43, 95
2, 290880, Note_off_c, 0, 67, 95
2, 290880, Note_off_c, 0, 59, 95
2, 290880, Note_off_c, 0, 55, 95
2, 290880, Note_off_c, 0, 50, 95
2, 290880, Note_off_c, 0, 47, 95
2, 290880, Note_off_c, 0, 43, 95
2, 290880, Note_on_c, 0, 67, 95
2, 290880, Note_on_c, 0, 59, 95
2, 290880, Note_on_c, 0, 55, 95
2, 290880, Note_on_c, 0, 50, 95
2, 290880, Note_on_c, 0, 47, 95
2, 290880, Note_on_c, 0, 43, 95
2, 291840, Note_off_c, 0, 67, 95
2, 291840, Note_off_c, 0, 59, 95
2, 291840, Note_off_c, 0, 55, 95
2, 291840, Note_off_c, 0, 50, 95
2, 291840, Note_off_c, 0, 47, 95
2, 291840, Note_off_c, 0, 43, 95
2, 291840, Note_on_c, 0, 67, 95
2, 291840, Note_on_c, 0, 59, 95
2, 291840, Note_on_c, 0, 55, 95
2, 291840, Note_on_c, 0, 50, 95
2, 291840, Note_on_c, 0, 47, 95
2, 291840, Note_on_c, 0, 43, 95
2, 292320, Note_off_c, 0, 67, 95
2, 292320, Note_off_c, 0, 59, 95
2, 292320, Note_off_c, 0, 55, 95
2, 292320, Note_off_c, 0, 50, 95
2, 292320, Note_off_c, 0, 47, 95
2, 292320, Note_off_c, 0, 43, 95
2, 292320, Note_on_c, 0, 67, 95
2, 292320, Note_on_c, 0, 59, 95
2, 292320, Note_on_c, 0, 55, 95
2, 292320, Note_on_c, 0, 50, 95
2, 292320, Note_on_c, 0, 47, 95
2, 292320, Note_on_c, 0, 43, 95
2, 293280, Note_off_c, 0, 67, 95
2, 293280, Note_off_c, 0, 59, 95
2, 293280, Note_off_c, 0, 55, 95
2, 293280, Note_off_c, 0, 50, 95
2, 293280, Note_off_c, 0, 47, 95
2, 293280, Note_off_c, 0, 43, 95
2, 293280, Note_on_c, 0, 64, 95
2, 293280, Note_on_c, 0, 60, 95
2, 293280, Note_on_c, 0, 55, 95
2, 293280, Note_on_c, 0, 52, 95
2, 293760, Note_off_c, 0, 64, 95
2, 293760, Note_off_c, 0, 60, 95
2, 293760, Note_off_c, 0, 55, 95
2, 293760, Note_off_c, 0, 52, 95
2, 293760, Note_on_c, 0, 64, 95
2, 293760, Note_on_c, 0, 60, 95
2, 293760, Note_on_c, 0, 55, 95
2, 293760, Note_on_c, 0, 52, 95
2, 293760, Note_on_c, 0, 48, 95
2, 294720, Note_off_c, 0, 64, 95
2, 294720, Note_off_c, 0, 60, 95
2, 294720, Note_off_c, 0, 55, 95
2, 294720, Note_off_c, 0, 52, 95
2, 294720, Note_off_c, 0, 48, 95
2, 294720, Note_on_c, 0, 64, 95
2, 294720, Note_on_c, 0, 60, 95
2, 294720, Note_on_c, 0, 55, 95
2, 294720, Note_on_c, 0, 52, 95
2, 294720, Note_on_c, 0, 48, 95
2, 295200, Note_off_c, 0, 64, 95
2, 295200, Note_off_c, 0, 60, 95
2, 295200, Note_off_c, 0, 55, 95
2, 295200, Note_off_c, 0, 52, 95
2, 295200, Note_off_c, 0, 48, 95
2, 295200, Note_on_c, 0, 64, 95
2, 295200, Note_on_c, 0, 60, 95
2, 295200, Note_on_c, 0, 55, 95
2, 295200, Note_on_c, 0, 52, 95
2, 295200, Note_on_c, 0, 48, 95
2, 296160, Note_off_c, 0, 64, 95
2, 296160, Note_off_c, 0, 60, 95
2, 296160, Note_off_c, 0, 55, 95
2, 296160, Note_off_c, 0, 52, 95
2, 296160, Note_off_c, 0, 48, 95
2, 296160, Note_on_c, 0, 64, 95
2, 296160, Note_on_c, 0, 60, 95
2, 296160, Note_on_c, 0, 55, 95
2, 296160, Note_on_c, 0, 52, 95
2, 296160, Note_on_c, 0, 48, 95
2, 296640, Note_off_c, 0, 64, 95
2, 296640, Note_off_c, 0, 60, 95
2, 296640, Note_off_c, 0, 55, 95
2, 296640, Note_off_c, 0, 52, 95
2, 296640, Note_off_c, 0, 48, 95
2, 296640, Note_on_c, 0, 67, 95
2, 296640, Note_on_c, 0, 59, 95
2, 296640, Note_on_c, 0, 55, 95
2, 296640, Note_on_c, 0, 50, 95
2, 296640, Note_on_c, 0, 47, 95
2, 296640, Note_on_c, 0, 43, 95
2, 297600, Note_off_c, 0, 67, 95
2, 297600, Note_off_c, 0, 59, 95
2, 297600, Note_off_c, 0, 55, 95
2, 297600, Note_off_c, 0, 50, 95
2, 297600, Note_off_c, 0, 47, 95
2, 297600, Note_off_c, 0, 43, 95
2, 297600, Note_on_c, 0, 67, 95
2, 297600, Note_on_c, 0, 59, 95
2, 297600, Note_on_c, 0, 55, 95
2, 297600, Note_on_c, 0, 50, 95
2, 298080, Note_off_c, 0, 67, 95
2, 298080, Note_off_c, 0, 59, 95
2, 298080, Note_off_c, 0, 55, 95
2, 298080, Note_off_c, 0, 50, 95
2, 298080, Note_on_c, 0, 67, 95
2, 298080, Note_on_c, 0, 59, 95
2, 298080, Note_on_c, 0, 55, 95
2, 298080, Note_on_c, 0, 50, 95
2, 298080, Note_on_c, 0, 47, 95
2, 298080, Note_on_c, 0, 43, 95
2, 298560, Note_off_c, 0, 67, 95
2, 298560, Note_off_c, 0, 59, 95
2, 298560, Note_off_c, 0, 55, 95
2, 298560, Note_off_c, 0, 50, 95
2, 298560, Note_off_c, 0, 47, 95
2, 298560, Note_off_c, 0, 43, 95
2, 298560, Note_on_c, 0, 45, 95
2, 299040, Note_off_c, 0, 45, 95
2, 299040, Note_on_c, 0, 47, 95
2, 299520, Note_off_c, 0, 47, 95
2, 299520, Note_on_c, 0, 48, 95
2, 300480, Note_off_c, 0, 48, 95
2, 300480, Note_on_c, 0, 64, 95
2, 300480, Note_on_c, 0, 60, 95
2, 300480, Note_on_c, 0, 55, 95
2, 300480, Note_on_c, 0, 52, 95
2, 300960, Note_off_c, 0, 64, 95
2, 300960, Note_off_c, 0, 60, 95
2, 300960, Note_off_c, 0, 55, 95
2, 300960, Note_off_c, 0, 52, 95
2, 300960, Note_on_c, 0, 64, 95
2, 300960, Note_on_c, 0, 60, 95
2, 300960, Note_on_c, 0, 55, 95
2, 300960, Note_on_c, 0, 52, 95
2, 300960, Note_on_c, 0, 48, 95
2, 301920, Note_off_c, 0, 64, 95
2, 301920, Note_off_c, 0, 60, 95
2, 301920, Note_off_c, 0, 55, 95
2, 301920, Note_off_c, 0, 52, 95
2, 301920, Note_off_c, 0, 48, 95
2, 301920, Note_on_c, 0, 64, 95
2, 301920, Note_on_c, 0, 60, 95
2, 301920, Note_on_c, 0, 55, 95
2, 301920, Note_on_c, 0, 52, 95
2, 301920, Note_on_c, 0, 48, 95
2, 302400, Note_off_c, 0, 64, 95
2, 302400, Note_off_c, 0, 60, 95
2, 302400, Note_off_c, 0, 55, 95
2, 302400, Note_off_c, 0, 52, 95
2, 302400, Note_off_c, 0, 48, 95
2, 302400, Note_on_c, 0, 64, 95
2, 302400, Note_on_c, 0, 60, 95
2, 302400, Note_on_c, 0, 55, 95
2, 302400, Note_on_c, 0, 52, 95
2, 302400, Note_on_c, 0, 48, 95
2, 303360, Note_off_c, 0, 64, 95
2, 303360, Note_off_c, 0, 60, 95
2, 303360, Note_off_c, 0, 55, 95
2, 303360, Note_off_c, 0, 52, 95
2, 303360, Note_off_c, 0, 48, 95
2, 303360, Note_on_c, 0, 64, 95
2, 303360, Note_on_c, 0, 60, 95
2, 303360, Note_on_c, 0, 55, 95
2, 303360, Note_on_c, 0, 52, 95
2, 303360, Note_on_c, 0, 48, 95
2, 303840, Note_off_c, 0, 64, 95
2, 303840, Note_off_c, 0, 60, 95
2, 303840, Note_off_c, 0, 55, 95
2, 303840, Note_off_c, 0, 52, 95
2, 303840, Note_off_c, 0, 48, 95
2, 303840, Note_on_c, 0, 64, 95
2, 303840, Note_on_c, 0, 60, 95
2, 303840, Note_on_c, 0, 55, 95
2, 303840, Note_on_c, 0, 52, 95
2, 303840, Note_on_c, 0, 48, 95
2, 304800, Note_off_c, 0, 64, 95
2, 304800, Note_off_c, 0, 60, 95
2, 304800, Note_off_c, 0, 55, 95
2, 304800, Note_off_c, 0, 52, 95
2, 304800, Note_off_c, 0, 48, 95
2, 304800, Note_on_c, 0, 64, 95
2, 304800, Note_on_c, 0, 60, 95
2, 304800, Note_on_c, 0, 55, 95
2, 304800, Note_on_c, 0, 52, 95
2, 304800, Note_on_c, 0, 48, 95
2, 305280, Note_off_c, 0, 64, 95
2, 305280, Note_off_c, 0, 60, 95
2, 305280, Note_off_c, 0, 55, 95
2, 305280, Note_off_c, 0, 52, 95
2, 305280, Note_off_c, 0, 48, 95
2, 305280, Note_on_c, 0, 65, 95
2, 305280, Note_on_c, 0, 60, 95
2, 305280, Note_on_c, 0, 57, 95
2, 305280, Note_on_c, 0, 53, 95
2, 305280, Note_on_c, 0, 41, 95
2, 306240, Note_off_c, 0, 65, 95
2, 306240, Note_off_c, 0, 60, 95
2, 306240, Note_off_c, 0, 57, 95
2, 306240, Note_off_c, 0, 53, 95
2, 306240, Note_off_c, 0, 41, 95
2, 306240, Note_on_c, 0, 65, 95
2, 306240, Note_on_c, 0, 60, 95
2, 306240, Note_on_c, 0, 57, 95
2, 306240, Note_on_c, 0, 53, 95
2, 306720, Note_off_c, 0, 65, 95
2, 306720, Note_off_c, 0, 60, 95
2, 306720, Note_off_c, 0, 57, 95
2, 306720, Note_off_c, 0, 53, 95
2, 306720, Note_on_c, 0, 65, 95
2, 306720, Note_on_c, 0, 60, 95
2, 306720, Note_on_c, 0, 57, 95
2, 306720, Note_on_c, 0, 53, 95
2, 306720, Note_on_c, 0, 41, 95
2, 307680, Note_off_c, 0, 65, 95
2, 307680, Note_off_c, 0, 60, 95
2, 307680, Note_off_c, 0, 57, 95
2, 307680, Note_off_c, 0, 53, 95
2, 307680, Note_off_c, 0, 41, 95
2, 307680, Note_on_c, 0, 65, 95
2, 307680, Note_on_c, 0, 60, 95
2, 307680, Note_on_c, 0, 57, 95
2, 307680, Note_on_c, 0, 53, 95
2, 307680, Note_on_c, 0, 41, 47
2, 308160, Note_off_c, 0, 65, 95
2, 308160, Note_off_c, 0, 60, 95
2, 308160, Note_off_c, 0, 57, 95
2, 308160, Note_off_c, 0, 53, 95
2, 308160, Note_off_c, 0, 41, 47
2, 308160, Note_on_c, 0, 65, 95
2, 308160, Note_on_c, 0, 60, 95
2, 308160, Note_on_c, 0, 57, 95
2, 308160, Note_on_c, 0, 53, 95
2, 308160, Note_on_c, 0, 41, 95
2, 309120, Note_off_c, 0, 65, 95
2, 309120, Note_off_c, 0, 60, 95
2, 309120, Note_off_c, 0, 57, 95
2, 309120, Note_off_c, 0, 53, 95
2, 309120, Note_off_c, 0, 41, 95
2, 309120, Note_on_c, 0, 65, 95
2, 309120, Note_on_c, 0, 60, 95
2, 309120, Note_on_c, 0, 57, 95
2, 309120, Note_on_c, 0, 53, 95
2, 309120, Note_on_c, 0, 41, 47
2, 309600, Note_off_c, 0, 65, 95
2, 309600, Note_off_c, 0, 60, 95
2, 309600, Note_off_c, 0, 57, 95
2, 309600, Note_off_c, 0, 53, 95
2, 309600, Note_off_c, 0, 41, 47
2, 309600, Note_on_c, 0, 65, 95
2, 309600, Note_on_c, 0, 60, 95
2, 309600, Note_on_c, 0, 57, 95
2, 309600, Note_on_c, 0, 53, 95
2, 309600, Note_on_c, 0, 41, 95
2, 310080, Note_off_c, 0, 65, 95
2, 310080, Note_off_c, 0, 60, 95
2, 310080, Note_off_c, 0, 57, 95
2, 310080, Note_off_c, 0, 53, 95
2, 310080, Note_off_c, 0, 41, 95
2, 310080, Note_on_c, 0, 65, 95
2, 310080, Note_on_c, 0, 60, 95
2, 310080, Note_on_c, 0, 57, 95
2, 310080, Note_on_c, 0, 53, 95
2, 310080, Note_on_c, 0, 41, 47
2, 310560, Note_off_c, 0, 65, 95
2, 310560, Note_off_c, 0, 60, 95
2, 310560, Note_off_c, 0, 57, 95
2, 310560, Note_off_c, 0, 53, 95
2, 310560, Note_off_c, 0, 41, 47
2, 310560, Note_on_c, 0, 65, 95
2, 310560, Note_on_c, 0, 60, 95
2, 310560, Note_on_c, 0, 57, 95
2, 310560, Note_on_c, 0, 53, 95
2, 310560, Note_on_c, 0, 41, 47
2, 311040, Note_off_c, 0, 65, 95
2, 311040, Note_off_c, 0, 60, 95
2, 311040, Note_off_c, 0, 57, 95
2, 311040, Note_off_c, 0, 53, 95
2, 311040, Note_off_c, 0, 41, 47
2, 311040, Note_on_c, 0, 65, 95
2, 311040, Note_on_c, 0, 60, 95
2, 311040, Note_on_c, 0, 57, 95
2, 311040, Note_on_c, 0, 53, 95
2, 311040, Note_on_c, 0, 41, 95
2, 312480, Note_off_c, 0, 65, 95
2, 312480, Note_off_c, 0, 60, 95
2, 312480, Note_off_c, 0, 57, 95
2, 312480, Note_off_c, 0, 53, 95
2, 312480, Note_off_c, 0, 41, 95
2, 312480, Note_on_c, 0, 65, 95
2, 312480, Note_on_c, 0, 60, 95
2, 312480, Note_on_c, 0, 57, 95
2, 312480, Note_on_c, 0, 53, 95
2, 312480, Note_on_c, 0, 41, 95
2, 313920, Note_off_c, 0, 65, 95
2, 313920, Note_off_c, 0, 60, 95
2, 313920, Note_off_c, 0, 57, 95
2, 313920, Note_off_c, 0, 53, 95
2, 313920, Note_off_c, 0, 41, 95
2, 313920, Note_on_c, 0, 65, 95
2, 313920, Note_on_c, 0, 60, 95
2, 313920, Note_on_c, 0, 57, 95
2, 313920, Note_on_c, 0, 53, 95
2, 313920, Note_on_c, 0, 41, 95
2, 314880, Note_off_c, 0, 65, 95
2, 314880, Note_off_c, 0, 60, 95
2, 314880, Note_off_c, 0, 57, 95
2, 314880, Note_off_c, 0, 53, 95
2, 314880, Note_off_c, 0, 41, 95
2, 314880, Note_on_c, 0, 65, 95
2, 314880, Note_on_c, 0, 60, 95
2, 314880, Note_on_c, 0, 57, 95
2, 314880, Note_on_c, 0, 53, 95
2, 314880, Note_on_c, 0, 41, 47
2, 315360, Note_off_c, 0, 65, 95
2, 315360, Note_off_c, 0, 60, 95
2, 315360, Note_off_c, 0, 57, 95
2, 315360, Note_off_c, 0, 53, 95
2, 315360, Note_off_c, 0, 41, 47
2, 315360, Note_on_c, 0, 65, 95
2, 315360, Note_on_c, 0, 60, 95
2, 315360, Note_on_c, 0, 57, 95
2, 315360, Note_on_c, 0, 53, 95
2, 315360, Note_on_c, 0, 41, 95
2, 316320, Note_off_c, 0, 65, 95
2, 316320, Note_off_c, 0, 60, 95
2, 316320, Note_off_c, 0, 57, 95
2, 316320, Note_off_c, 0, 53, 95
2, 316320, Note_off_c, 0, 41, 95
2, 316320, Note_on_c, 0, 64, 95
2, 316320, Note_on_c, 0, 60, 95
2, 316320, Note_on_c, 0, 55, 95
2, 316320, Note_on_c, 0, 52, 95
2, 316800, Note_off_c, 0, 64, 95
2, 316800, Note_off_c, 0, 60, 95
2, 316800, Note_off_c, 0, 55, 95
2, 316800, Note_off_c, 0, 52, 95
2, 316800, Note_on_c, 0, 64, 95
2, 316800, Note_on_c, 0, 60, 95
2, 316800, Note_on_c, 0, 55, 95
2, 316800, Note_on_c, 0, 52, 95
2, 316800, Note_on_c, 0, 48, 95
2, 317760, Note_off_c, 0, 64, 95
2, 317760, Note_off_c, 0, 60, 95
2, 317760, Note_off_c, 0, 55, 95
2, 317760, Note_off_c, 0, 52, 95
2, 317760, Note_off_c, 0, 48, 95
2, 317760, Note_on_c, 0, 64, 95
2, 317760, Note_on_c, 0, 60, 95
2, 317760, Note_on_c, 0, 55, 95
2, 317760, Note_on_c, 0, 52, 47
2, 318240, Note_off_c, 0, 64, 95
2, 318240, Note_off_c, 0, 60, 95
2, 318240, Note_off_c, 0, 55, 95
2, 318240, Note_off_c, 0, 52, 47
2, 318240, Note_on_c, 0, 64, 95
2, 318240, Note_on_c, 0, 60, 95
2, 318240, Note_on_c, 0, 55, 95
2, 318240, Note_on_c, 0, 52, 95
2, 318240, Note_on_c, 0, 48, 95
2, 318720, Note_off_c, 0, 64, 95
2, 318720, Note_off_c, 0, 60, 95
2, 318720, Note_off_c, 0, 55, 95
2, 318720, Note_off_c, 0, 52, 95
2, 318720, Note_off_c, 0, 48, 95
2, 318720, Note_on_c, 0, 47, 95
2, 319200, Note_off_c, 0, 47, 95
2, 319200, Note_on_c, 0, 45, 95
2, 319680, Note_off_c, 0, 45, 95
2, 319680, Note_on_c, 0, 43, 95
2, 320640, Note_off_c, 0, 43, 95
2, 320640, Note_on_c, 0, 67, 95
2, 320640, Note_on_c, 0, 59, 95
2, 320640, Note_on_c, 0, 55, 95
2, 320640, Note_on_c, 0, 50, 95
2, 321120, Note_off_c, 0, 67, 95
2, 321120, Note_off_c, 0, 59, 95
2, 321120, Note_off_c, 0, 55, 95
2, 321120, Note_off_c, 0, 50, 95
2, 321120, Note_on_c, 0, 67, 95
2, 321120, Note_on_c, 0, 59, 95
2, 321120, Note_on_c, 0, 55, 95
2, 321120, Note_on_c, 0, 50, 95
2, 321120, Note_on_c, 0, 47, 95
2, 321120, Note_on_c, 0, 43, 95
2, 321600, Note_off_c, 0, 67, 95
2, 321600, Note_off_c, 0, 59, 95
2, 321600, Note_off_c, 0, 55, 95
2, 321600, Note_off_c, 0, 50, 95
2, 321600, Note_off_c, 0, 47, 95
2, 321600, Note_off_c, 0, 43, 95
2, 321600, Note_on_c, 0, 45, 95
2, 322080, Note_off_c, 0, 45, 95
2, 322080, Note_on_c, 0, 47, 95
2, 322560, Note_off_c, 0, 47, 95
2, 322560, Note_on_c, 0, 60, 95
2, 322560, Note_on_c, 0, 55, 95
2, 322560, Note_on_c, 0, 52, 95
2, 322560, Note_on_c, 0, 48, 95
2, 323520, Note_off_c, 0, 60, 95
2, 323520, Note_off_c, 0, 55, 95
2, 323520, Note_off_c, 0, 52, 95
2, 323520, Note_off_c, 0, 48, 95
2, 323520, Note_on_c, 0, 64, 95
2, 323520, Note_on_c, 0, 60, 95
2, 323520, Note_on_c, 0, 55, 95
2, 324000, Note_off_c, 0, 64, 95
2, 324000, Note_off_c, 0, 60, 95
2, 324000, Note_off_c, 0, 55, 95
2, 324000, Note_on_c, 0, 64, 95
2, 324000, Note_on_c, 0, 60, 95
2, 324000, Note_on_c, 0, 55, 95
2, 324000, Note_on_c, 0, 52, 95
2, 324000, Note_on_c, 0, 48, 95
2, 324480, Note_off_c, 0, 64, 95
2, 324480, Note_off_c, 0, 60, 95
2, 324480, Note_off_c, 0, 55, 95
2, 324480, Note_off_c, 0, 52, 95
2, 324480, Note_off_c, 0, 48, 95
2, 324480, Note_on_c, 0, 64, 95
2, 324480, Note_on_c, 0, 60, 95
2, 324480, Note_on_c, 0, 55, 95
2, 324480, Note_on_c, 0, 52, 95
2, 324480, Note_on_c, 0, 48, 95
2, 324960, Note_off_c, 0, 64, 95
2, 324960, Note_off_c, 0, 60, 95
2, 324960, Note_off_c, 0, 55, 95
2, 324960, Note_off_c, 0, 52, 95
2, 324960, Note_off_c, 0, 48, 95
2, 324960, Note_on_c, 0, 64, 95
2, 324960, Note_on_c, 0, 60, 95
2, 324960, Note_on_c, 0, 55, 95
2, 324960, Note_on_c, 0, 52, 95
2, 324960, Note_on_c, 0, 48, 95
2, 325440, Note_off_c, 0, 64, 95
2, 325440, Note_off_c, 0, 60, 95
2, 325440, Note_off_c, 0, 55, 95
2, 325440, Note_off_c, 0, 52, 95
2, 325440, Note_off_c, 0, 48, 95
2, 325440, Note_on_c, 0, 64, 95
2, 325440, Note_on_c, 0, 60, 95
2, 325440, Note_on_c, 0, 55, 95
2, 325440, Note_on_c, 0, 52, 95
2, 325440, Note_on_c, 0, 48, 95
2, 326400, Note_off_c, 0, 64, 95
2, 326400, Note_off_c, 0, 60, 95
2, 326400, Note_off_c, 0, 55, 95
2, 326400, Note_off_c, 0, 52, 95
2, 326400, Note_off_c, 0, 48, 95
2, 326400, Note_on_c, 0, 64, 95
2, 326400, Note_on_c, 0, 60, 95
2, 326400, Note_on_c, 0, 55, 95
2, 326400, Note_on_c, 0, 52, 95
2, 326400, Note_on_c, 0, 48, 95
2, 326880, Note_off_c, 0, 64, 95
2, 326880, Note_off_c, 0, 60, 95
2, 326880, Note_off_c, 0, 55, 95
2, 326880, Note_off_c, 0, 52, 95
2, 326880, Note_off_c, 0, 48, 95
2, 326880, Note_on_c, 0, 64, 95
2, 326880, Note_on_c, 0, 60, 95
2, 326880, Note_on_c, 0, 55, 95
2, 326880, Note_on_c, 0, 52, 95
2, 326880, Note_on_c, 0, 48, 95
2, 327840, Note_off_c, 0, 64, 95
2, 327840, Note_off_c, 0, 60, 95
2, 327840, Note_off_c, 0, 55, 95
2, 327840, Note_off_c, 0, 52, 95
2, 327840, Note_off_c, 0, 48, 95
2, 327840, Note_on_c, 0, 64, 95
2, 327840, Note_on_c, 0, 60, 95
2, 327840, Note_on_c, 0, 55, 95
2, 327840, Note_on_c, 0, 52, 95
2, 327840, Note_on_c, 0, 48, 95
2, 328320, Note_off_c, 0, 64, 95
2, 328320, Note_off_c, 0, 60, 95
2, 328320, Note_off_c, 0, 55, 95
2, 328320, Note_off_c, 0, 52, 95
2, 328320, Note_off_c, 0, 48, 95
2, 328320, Note_on_c, 0, 67, 95
2, 328320, Note_on_c, 0, 59, 95
2, 328320, Note_on_c, 0, 55, 95
2, 328320, Note_on_c, 0, 50, 95
2, 328320, Note_on_c, 0, 47, 95
2, 328320, Note_on_c, 0, 43, 95
2, 329280, Note_off_c, 0, 67, 95
2, 329280, Note_off_c, 0, 59, 95
2, 329280, Note_off_c, 0, 55, 95
2, 329280, Note_off_c, 0, 50, 95
2, 329280, Note_off_c, 0, 47, 95
2, 329280, Note_off_c, 0, 43, 95
2, 329280, Note_on_c, 0, 67, 95
2, 329280, Note_on_c, 0, 59, 95
2, 329280, Note_on_c, 0, 55, 95
2, 329280, Note_on_c, 0, 50, 95
2, 329760, Note_off_c, 0, 67, 95
2, 329760, Note_off_c, 0, 59, 95
2, 329760, Note_off_c, 0, 55, 95
2, 329760, Note_off_c, 0, 50, 95
2, 329760, Note_on_c, 0, 67, 95
2, 329760, Note_on_c, 0, 59, 95
2, 329760, Note_on_c, 0, 55, 95
2, 329760, Note_on_c, 0, 50, 95
2, 329760, Note_on_c, 0, 47, 95
2, 329760, Note_on_c, 0, 43, 95
2, 330720, Note_off_c, 0, 67, 95
2, 330720, Note_off_c, 0, 59, 95
2, 330720, Note_off_c, 0, 55, 95
2, 330720, Note_off_c, 0, 50, 95
2, 330720, Note_off_c, 0, 47, 95
2, 330720, Note_off_c, 0, 43, 95
2, 330720, Note_on_c, 0, 67, 95
2, 330720, Note_on_c, 0, 59, 95
2, 330720, Note_on_c, 0, 55, 95
2, 330720, Note_on_c, 0, 50, 95
2, 330720, Note_on_c, 0, 47, 95
2, 330720, Note_on_c, 0, 43, 95
2, 332160, Note_off_c, 0, 67, 95
2, 332160, Note_off_c, 0, 59, 95
2, 332160, Note_off_c, 0, 55, 95
2, 332160, Note_off_c, 0, 50, 95
2, 332160, Note_off_c, 0, 47, 95
2, 332160, Note_off_c, 0, 43, 95
2, 332160, Note_on_c, 0, 67, 95
2, 332160, Note_on_c, 0, 59, 95
2, 332160, Note_on_c, 0, 55, 95
2, 332160, Note_on_c, 0, 50, 95
2, 332160, Note_on_c, 0, 47, 95
2, 332160, Note_on_c, 0, 43, 95
2, 332640, Note_off_c, 0, 67, 95
2, 332640, Note_off_c, 0, 59, 95
2, 332640, Note_off_c, 0, 55, 95
2, 332640, Note_off_c, 0, 50, 95
2, 332640, Note_off_c, 0, 47, 95
2, 332640, Note_off_c, 0, 43, 95
2, 332640, Note_on_c, 0, 67, 95
2, 332640, Note_on_c, 0, 59, 95
2, 332640, Note_on_c, 0, 55, 95
2, 332640, Note_on_c, 0, 50, 95
2, 332640, Note_on_c, 0, 47, 95
2, 332640, Note_on_c, 0, 43, 95
2, 333120, Note_off_c, 0, 67, 95
2, 333120, Note_off_c, 0, 59, 95
2, 333120, Note_off_c, 0, 55, 95
2, 333120, Note_off_c, 0, 50, 95
2, 333120, Note_off_c, 0, 47, 95
2, 333120, Note_off_c, 0, 43, 95
2, 333120, Note_on_c, 0, 67, 95
2, 333120, Note_on_c, 0, 59, 95
2, 333120, Note_on_c, 0, 55, 95
2, 333120, Note_on_c, 0, 50, 95
2, 333120, Note_on_c, 0, 47, 95
2, 333120, Note_on_c, 0, 43, 95
2, 333600, Note_off_c, 0, 67, 95
2, 333600, Note_off_c, 0, 59, 95
2, 333600, Note_off_c, 0, 55, 95
2, 333600, Note_off_c, 0, 50, 95
2, 333600, Note_off_c, 0, 47, 95
2, 333600, Note_off_c, 0, 43, 95
2, 333600, Note_on_c, 0, 67, 95
2, 333600, Note_on_c, 0, 59, 95
2, 333600, Note_on_c, 0, 55, 95
2, 333600, Note_on_c, 0, 50, 95
2, 333600, Note_on_c, 0, 47, 95
2, 333600, Note_on_c, 0, 43, 95
2, 334080, Note_off_c, 0, 67, 95
2, 334080, Note_off_c, 0, 59, 95
2, 334080, Note_off_c, 0, 55, 95
2, 334080, Note_off_c, 0, 50, 95
2, 334080, Note_off_c, 0, 47, 95
2, 334080, Note_off_c, 0, 43, 95
2, 334080, Note_on_c, 0, 55, 95
2, 334080, Note_on_c, 0, 50, 95
2, 334080, Note_on_c, 0, 47, 95
2, 334080, Note_on_c, 0, 43, 95
2, 335040, Note_off_c, 0, 55, 95
2, 335040, Note_off_c, 0, 50, 95
2, 335040, Note_off_c, 0, 47, 95
2, 335040, Note_off_c, 0, 43, 95
2, 335040, Note_on_c, 0, 67, 95
2, 335040, Note_on_c, 0, 59, 95
2, 335040, Note_on_c, 0, 55, 95
2, 335040, Note_on_c, 0, 50, 95
2, 335520, Note_off_c, 0, 67, 95
2, 335520, Note_off_c, 0, 59, 95
2, 335520, Note_off_c, 0, 55, 95
2, 335520, Note_off_c, 0, 50, 95
2, 335520, Note_on_c, 0, 67, 95
2, 335520, Note_on_c, 0, 59, 95
2, 335520, Note_on_c, 0, 55, 95
2, 335520, Note_on_c, 0, 50, 95
2, 335520, Note_on_c, 0, 47, 95
2, 335520, Note_on_c, 0, 43, 95
2, 336960, Note_off_c, 0, 67, 95
2, 336960, Note_off_c, 0, 59, 95
2, 336960, Note_off_c, 0, 55, 95
2, 336960, Note_off_c, 0, 50, 95
2, 336960, Note_off_c, 0, 47, 95
2, 336960, Note_off_c, 0, 43, 95
2, 336960, Note_on_c, 0, 67, 95
2, 336960, Note_on_c, 0, 59, 95
2, 336960, Note_on_c, 0, 55, 95
2, 336960, Note_on_c, 0, 50, 95
2, 336960, Note_on_c, 0, 47, 95
2, 336960, Note_on_c, 0, 43, 95
2, 338400, Note_off_c, 0, 67, 95
2, 338400, Note_off_c, 0, 59, 95
2, 338400, Note_off_c, 0, 55, 95
2, 338400, Note_off_c, 0, 50, 95
2, 338400, Note_off_c, 0, 47, 95
2, 338400, Note_off_c, 0, 43, 95
2, 338400, Note_on_c, 0, 67, 95
2, 338400, Note_on_c, 0, 59, 95
2, 338400, Note_on_c, 0, 55, 95
2, 338400, Note_on_c, 0, 50, 95
2, 338400, Note_on_c, 0, 47, 95
2, 338400, Note_on_c, 0, 43, 95
2, 339360, Note_off_c, 0, 67, 95
2, 339360, Note_off_c, 0, 59, 95
2, 339360, Note_off_c, 0, 55, 95
2, 339360, Note_off_c, 0, 50, 95
2, 339360, Note_off_c, 0, 47, 95
2, 339360, Note_off_c, 0, 43, 95
2, 339360, Note_on_c, 0, 60, 95
2, 339360, Note_on_c, 0, 55, 95
2, 339360, Note_on_c, 0, 52, 95
2, 339360, Note_on_c, 0, 48, 95
2, 339840, Note_off_c, 0, 60, 95
2, 339840, Note_off_c, 0, 55, 95
2, 339840, Note_off_c, 0, 52, 95
2, 339840, Note_off_c, 0, 48, 95
2, 339840, Note_on_c, 0, 64, 95
2, 339840, Note_on_c, 0, 60, 95
2, 339840, Note_on_c, 0, 55, 95
2, 339840, Note_on_c, 0, 52, 95
2, 339840, Note_on_c, 0, 48, 95
2, 340800, Note_off_c, 0, 64, 95
2, 340800, Note_off_c, 0, 60, 95
2, 340800, Note_off_c, 0, 55, 95
2, 340800, Note_off_c, 0, 52, 95
2, 340800, Note_off_c, 0, 48, 95
2, 340800, Note_on_c, 0, 64, 95
2, 340800, Note_on_c, 0, 60, 95
2, 340800, Note_on_c, 0, 55, 95
2, 340800, Note_on_c, 0, 52, 95
2, 340800, Note_on_c, 0, 48, 95
2, 341280, Note_off_c, 0, 64, 95
2, 341280, Note_off_c, 0, 60, 95
2, 341280, Note_off_c, 0, 55, 95
2, 341280, Note_off_c, 0, 52, 95
2, 341280, Note_off_c, 0, 48, 95
2, 341280, Note_on_c, 0, 64, 95
2, 341280, Note_on_c, 0, 60, 95
2, 341280, Note_on_c, 0, 55, 95
2, 341280, Note_on_c, 0, 52, 95
2, 341280, Note_on_c, 0, 48, 95
2, 341760, Note_off_c, 0, 64, 95
2, 341760, Note_off_c, 0, 60, 95
2, 341760, Note_off_c, 0, 55, 95
2, 341760, Note_off_c, 0, 52, 95
2, 341760, Note_off_c, 0, 48, 95
2, 341760, Note_on_c, 0, 64, 95
2, 341760, Note_on_c, 0, 60, 95
2, 341760, Note_on_c, 0, 55, 95
2, 341760, Note_on_c, 0, 52, 95
2, 341760, Note_on_c, 0, 48, 95
2, 342240, Note_off_c, 0, 64, 95
2, 342240, Note_off_c, 0, 60, 95
2, 342240, Note_off_c, 0, 55, 95
2, 342240, Note_off_c, 0, 52, 95
2, 342240, Note_off_c, 0, 48, 95
2, 342240, Note_on_c, 0, 64, 95
2, 342240, Note_on_c, 0, 60, 95
2, 342240, Note_on_c, 0, 55, 95
2, 342240, Note_on_c, 0, 52, 95
2, 342240, Note_on_c, 0, 48, 95
2, 342720, Note_off_c, 0, 64, 95
2, 342720, Note_off_c, 0, 60, 95
2, 342720, Note_off_c, 0, 55, 95
2, 342720, Note_off_c, 0, 52, 95
2, 342720, Note_off_c, 0, 48, 95
2, 342720, Note_on_c, 0, 65, 95
2, 342720, Note_on_c, 0, 60, 95
2, 342720, Note_on_c, 0, 57, 95
2, 342720, Note_on_c, 0, 53, 95
2, 343200, Note_off_c, 0, 65, 95
2, 343200, Note_off_c, 0, 60, 95
2, 343200, Note_off_c, 0, 57, 95
2, 343200, Note_off_c, 0, 53, 95
2, 343200, Note_on_c, 0, 65, 95
2, 343200, Note_on_c, 0, 60, 95
2, 343200, Note_on_c, 0, 57, 95
2, 343200, Note_on_c, 0, 53, 95
2, 343680, Note_off_c, 0, 65, 95
2, 343680, Note_off_c, 0, 60, 95
2, 343680, Note_off_c, 0, 57, 95
2, 343680, Note_off_c, 0, 53, 95
2, 343680, Note_on_c, 0, 65, 95
2, 343680, Note_on_c, 0, 60, 95
2, 343680, Note_on_c, 0, 57, 95
2, 343680, Note_on_c, 0, 53, 95
2, 344160, Note_off_c, 0, 65, 95
2, 344160, Note_off_c, 0, 60, 95
2, 344160, Note_off_c, 0, 57, 95
2, 344160, Note_off_c, 0, 53, 95
2, 344160, Note_on_c, 0, 65, 95
2, 344160, Note_on_c, 0, 60, 95
2, 344160, Note_on_c, 0, 56, 95
2, 344160, Note_on_c, 0, 53, 95
2, 344640, Note_off_c, 0, 65, 95
2, 344640, Note_off_c, 0, 60, 95
2, 344640, Note_off_c, 0, 56, 95
2, 344640, Note_off_c, 0, 53, 95
2, 344640, Note_on_c, 0, 65, 95
2, 344640, Note_on_c, 0, 60, 95
2, 344640, Note_on_c, 0, 56, 95
2, 344640, Note_on_c, 0, 53, 95
2, 345120, Note_off_c, 0, 65, 95
2, 345120, Note_off_c, 0, 60, 95
2, 345120, Note_off_c, 0, 56, 95
2, 345120, Note_off_c, 0, 53, 95
2, 345120, Note_on_c, 0, 65, 95
2, 345120, Note_on_c, 0, 60, 95
2, 345120, Note_on_c, 0, 56, 95
2, 345120, Note_on_c, 0, 53, 95
2, 345600, Note_off_c, 0, 65, 95
2, 345600, Note_off_c, 0, 60, 95
2, 345600, Note_off_c, 0, 56, 95
2, 345600, Note_off_c, 0, 53, 95
2, 345600, Note_on_c, 0, 64, 95
2, 345600, Note_on_c, 0, 60, 95
2, 345600, Note_on_c, 0, 55, 95
2, 345600, Note_on_c, 0, 52, 95
2, 345600, Note_on_c, 0, 48, 95
2, 346080, Note_off_c, 0, 64, 95
2, 346080, Note_off_c, 0, 60, 95
2, 346080, Note_off_c, 0, 55, 95
2, 346080, Note_off_c, 0, 52, 95
2, 346080, Note_off_c, 0, 48, 95
2, 347040, Note_on_c, 0, 40, 95
2, 348000, Note_off_c, 0, 40, 95
2, 348000, Note_on_c, 0, 40, 95
2, 348480, Note_off_c, 0, 40, 95
2, 348480, Note_on_c, 0, 41, 95
2, 349440, Note_off_c, 0, 41, 95
2, 349440, Note_on_c, 0, 41, 95
2, 349920, Note_off_c, 0, 41, 95
2, 349920, Note_on_c, 0, 42, 95
2, 350400, Note_off_c, 0, 42, 95
2, 350880, Note_on_c, 0, 60, 95
2, 350880, Note_on_c, 0, 55, 95
2, 350880, Note_on_c, 0, 52, 95
2, 351360, Note_off_c, 0, 60, 95
2, 351360, Note_off_c, 0, 55, 95
2, 351360, Note_off_c, 0, 52, 95
2, 351360, Note_on_c, 0, 64, 95
2, 351360, Note_on_c, 0, 60, 95
2, 351360, Note_on_c, 0, 55, 95
2, 351360, Note_on_c, 0, 52, 95
2, 351360, Note_on_c, 0, 48, 95
2, 352320, Note_off_c, 0, 64, 95
2, 352320, Note_off_c, 0, 60, 95
2, 352320, Note_off_c, 0, 55, 95
2, 352320, Note_off_c, 0, 52, 95
2, 352320, Note_off_c, 0, 48, 95
2, 352320, Note_on_c, 0, 64, 95
2, 352320, Note_on_c, 0, 60, 95
2, 352320, Note_on_c, 0, 55, 95
2, 352320, Note_on_c, 0, 52, 95
2, 352320, Note_on_c, 0, 48, 95
2, 352800, Note_off_c, 0, 64, 95
2, 352800, Note_off_c, 0, 60, 95
2, 352800, Note_off_c, 0, 55, 95
2, 352800, Note_off_c, 0, 52, 95
2, 352800, Note_off_c, 0, 48, 95
2, 352800, Note_on_c, 0, 64, 95
2, 352800, Note_on_c, 0, 60, 95
2, 352800, Note_on_c, 0, 55, 95
2, 352800, Note_on_c, 0, 52, 95
2, 352800, Note_on_c, 0, 48, 95
2, 353280, Note_off_c, 0, 64, 95
2, 353280, Note_off_c, 0, 60, 95
2, 353280, Note_off_c, 0, 55, 95
2, 353280, Note_off_c, 0, 52, 95
2, 353280, Note_off_c, 0, 48, 95
2, 353280, Note_on_c, 0, 64, 95
2, 353280, Note_on_c, 0, 60, 95
2, 353280, Note_on_c, 0, 55, 95
2, 353280, Note_on_c, 0, 52, 47
2, 353760, Note_off_c, 0, 64, 95
2, 353760, Note_off_c, 0, 60, 95
2, 353760, Note_off_c, 0, 55, 95
2, 353760, Note_off_c, 0, 52, 47
2, 353760, Note_on_c, 0, 64, 95
2, 353760, Note_on_c, 0, 60, 95
2, 353760, Note_on_c, 0, 55, 95
2, 353760, Note_on_c, 0, 52, 95
2, 353760, Note_on_c, 0, 48, 95
2, 354240, Note_off_c, 0, 64, 95
2, 354240, Note_off_c, 0, 60, 95
2, 354240, Note_off_c, 0, 55, 95
2, 354240, Note_off_c, 0, 52, 95
2, 354240, Note_off_c, 0, 48, 95
2, 354240, Note_on_c, 0, 64, 95
2, 354240, Note_on_c, 0, 60, 95
2, 354240, Note_on_c, 0, 55, 95
2, 354240, Note_on_c, 0, 52, 95
2, 354240, Note_on_c, 0, 48, 95
2, 354720, Note_off_c, 0, 64, 95
2, 354720, Note_off_c, 0, 60, 95
2, 354720, Note_off_c, 0, 55, 95
2, 354720, Note_off_c, 0, 52, 95
2, 354720, Note_off_c, 0, 48, 95
2, 354720, Note_on_c, 0, 64, 95
2, 354720, Note_on_c, 0, 60, 95
2, 354720, Note_on_c, 0, 55, 95
2, 354720, Note_on_c, 0, 52, 47
2, 355200, Note_off_c, 0, 64, 95
2, 355200, Note_off_c, 0, 60, 95
2, 355200, Note_off_c, 0, 55, 95
2, 355200, Note_off_c, 0, 52, 47
2, 355200, Note_on_c, 0, 64, 95
2, 355200, Note_on_c, 0, 60, 95
2, 355200, Note_on_c, 0, 55, 95
2, 355200, Note_on_c, 0, 52, 95
2, 355200, Note_on_c, 0, 48, 95
2, 355680, Note_off_c, 0, 64, 95
2, 355680, Note_off_c, 0, 60, 95
2, 355680, Note_off_c, 0, 55, 95
2, 355680, Note_off_c, 0, 52, 95
2, 355680, Note_off_c, 0, 48, 95
2, 355680, Note_on_c, 0, 64, 95
2, 355680, Note_on_c, 0, 60, 95
2, 355680, Note_on_c, 0, 55, 95
2, 355680, Note_on_c, 0, 52, 95
2, 355680, Note_on_c, 0, 48, 95
2, 356160, Note_off_c, 0, 64, 95
2, 356160, Note_off_c, 0, 60, 95
2, 356160, Note_off_c, 0, 55, 95
2, 356160, Note_off_c, 0, 52, 95
2, 356160, Note_off_c, 0, 48, 95
2, 356160, Note_on_c, 0, 64, 95
2, 356160, Note_on_c, 0, 60, 95
2, 356160, Note_on_c, 0, 55, 95
2, 356160, Note_on_c, 0, 52, 95
2, 356160, Note_on_c, 0, 48, 95
2, 356640, Note_off_c, 0, 64, 95
2, 356640, Note_off_c, 0, 60, 95
2, 356640, Note_off_c, 0, 55, 95
2, 356640, Note_off_c, 0, 52, 95
2, 356640, Note_off_c, 0, 48, 95
2, 356640, Note_on_c, 0, 64, 95
2, 356640, Note_on_c, 0, 60, 95
2, 356640, Note_on_c, 0, 55, 95
2, 356640, Note_on_c, 0, 52, 95
2, 356640, Note_on_c, 0, 48, 95
2, 357120, Note_off_c, 0, 64, 95
2, 357120, Note_off_c, 0, 60, 95
2, 357120, Note_off_c, 0, 55, 95
2, 357120, Note_off_c, 0, 52, 95
2, 357120, Note_off_c, 0, 48, 95
2, 357120, Note_on_c, 0, 67, 95
2, 357120, Note_on_c, 0, 59, 95
2, 357120, Note_on_c, 0, 55, 95
2, 357120, Note_on_c, 0, 50, 95
2, 357120, Note_on_c, 0, 47, 95
2, 357120, Note_on_c, 0, 43, 95
2, 357600, Note_off_c, 0, 67, 95
2, 357600, Note_off_c, 0, 59, 95
2, 357600, Note_off_c, 0, 55, 95
2, 357600, Note_off_c, 0, 50, 95
2, 357600, Note_off_c, 0, 47, 95
2, 357600, Note_off_c, 0, 43, 95
2, 357600, Note_on_c, 0, 67, 95
2, 357600, Note_on_c, 0, 59, 95
2, 357600, Note_on_c, 0, 55, 95
2, 357600, Note_on_c, 0, 50, 95
2, 358080, Note_off_c, 0, 67, 95
2, 358080, Note_off_c, 0, 59, 95
2, 358080, Note_off_c, 0, 55, 95
2, 358080, Note_off_c, 0, 50, 95
2, 358080, Note_on_c, 0, 67, 95
2, 358080, Note_on_c, 0, 59, 95
2, 358080, Note_on_c, 0, 55, 95
2, 358080, Note_on_c, 0, 50, 95
2, 358560, Note_off_c, 0, 67, 95
2, 358560, Note_off_c, 0, 59, 95
2, 358560, Note_off_c, 0, 55, 95
2, 358560, Note_off_c, 0, 50, 95
2, 358560, Note_on_c, 0, 67, 95
2, 358560, Note_on_c, 0, 59, 95
2, 358560, Note_on_c, 0, 55, 95
2, 358560, Note_on_c, 0, 50, 95
2, 358560, Note_on_c, 0, 47, 95
2, 358560, Note_on_c, 0, 43, 95
2, 359520, Note_off_c, 0, 67, 95
2, 359520, Note_off_c, 0, 59, 95
2, 359520, Note_off_c, 0, 55, 95
2, 359520, Note_off_c, 0, 50, 95
2, 359520, Note_off_c, 0, 47, 95
2, 359520, Note_off_c, 0, 43, 95
2, 359520, Note_on_c, 0, 67, 95
2, 359520, Note_on_c, 0, 59, 95
2, 359520, Note_on_c, 0, 55, 95
2, 359520, Note_on_c, 0, 50, 95
2, 359520, Note_on_c, 0, 47, 95
2, 359520, Note_on_c, 0, 43, 95
2, 360000, Note_off_c, 0, 67, 95
2, 360000, Note_off_c, 0, 59, 95
2, 360000, Note_off_c, 0, 55, 95
2, 360000, Note_off_c, 0, 50, 95
2, 360000, Note_off_c, 0, 47, 95
2, 360000, Note_off_c, 0, 43, 95
2, 360000, Note_on_c, 0, 67, 95
2, 360000, Note_on_c, 0, 59, 95
2, 360000, Note_on_c, 0, 55, 95
2, 360000, Note_on_c, 0, 50, 95
2, 360000, Note_on_c, 0, 47, 95
2, 360000, Note_on_c, 0, 43, 95
2, 360960, Note_off_c, 0, 67, 95
2, 360960, Note_off_c, 0, 59, 95
2, 360960, Note_off_c, 0, 55, 95
2, 360960, Note_off_c, 0, 50, 95
2, 360960, Note_off_c, 0, 47, 95
2, 360960, Note_off_c, 0, 43, 95
2, 360960, Note_on_c, 0, 67, 95
2, 360960, Note_on_c, 0, 59, 95
2, 360960, Note_on_c, 0, 55, 95
2, 360960, Note_on_c, 0, 50, 95
2, 360960, Note_on_c, 0, 47, 95
2, 360960, Note_on_c, 0, 43, 95
2, 361440, Note_off_c, 0, 67, 95
2, 361440, Note_off_c, 0, 59, 95
2, 361440, Note_off_c, 0, 55, 95
2, 361440, Note_off_c, 0, 50, 95
2, 361440, Note_off_c, 0, 47, 95
2, 361440, Note_off_c, 0, 43, 95
2, 361440, Note_on_c, 0, 67, 95
2, 361440, Note_on_c, 0, 59, 95
2, 361440, Note_on_c, 0, 55, 95
2, 361440, Note_on_c, 0, 50, 95
2, 361440, Note_on_c, 0, 47, 95
2, 361440, Note_on_c, 0, 43, 95
2, 362400, Note_off_c, 0, 67, 95
2, 362400, Note_off_c, 0, 59, 95
2, 362400, Note_off_c, 0, 55, 95
2, 362400, Note_off_c, 0, 50, 95
2, 362400, Note_off_c, 0, 47, 95
2, 362400, Note_off_c, 0, 43, 95
2, 362400, Note_on_c, 0, 64, 95
2, 362400, Note_on_c, 0, 60, 95
2, 362400, Note_on_c, 0, 55, 95
2, 362400, Note_on_c, 0, 52, 95
2, 362880, Note_off_c, 0, 64, 95
2, 362880, Note_off_c, 0, 60, 95
2, 362880, Note_off_c, 0, 55, 95
2, 362880, Note_off_c, 0, 52, 95
2, 362880, Note_on_c, 0, 64, 95
2, 362880, Note_on_c, 0, 60, 95
2, 362880, Note_on_c, 0, 55, 95
2, 362880, Note_on_c, 0, 52, 95
2, 362880, Note_on_c, 0, 48, 95
2, 363840, Note_off_c, 0, 64, 95
2, 363840, Note_off_c, 0, 60, 95
2, 363840, Note_off_c, 0, 55, 95
2, 363840, Note_off_c, 0, 52, 95
2, 363840, Note_off_c, 0, 48, 95
2, 363840, Note_on_c, 0, 64, 95
2, 363840, Note_on_c, 0, 60, 95
2, 363840, Note_on_c, 0, 55, 95
2, 363840, Note_on_c, 0, 52, 95
2, 363840, Note_on_c, 0, 48, 95
2, 364320, Note_off_c, 0, 64, 95
2, 364320, Note_off_c, 0, 60, 95
2, 364320, Note_off_c, 0, 55, 95
2, 364320, Note_off_c, 0, 52, 95
2, 364320, Note_off_c, 0, 48, 95
2, 364320, Note_on_c, 0, 64, 95
2, 364320, Note_on_c, 0, 60, 95
2, 364320, Note_on_c, 0, 55, 95
2, 364320, Note_on_c, 0, 52, 95
2, 364320, Note_on_c, 0, 48, 95
2, 365280, Note_off_c, 0, 64, 95
2, 365280, Note_off_c, 0, 60, 95
2, 365280, Note_off_c, 0, 55, 95
2, 365280, Note_off_c, 0, 52, 95
2, 365280, Note_off_c, 0, 48, 95
2, 365280, Note_on_c, 0, 64, 95
2, 365280, Note_on_c, 0, 60, 95
2, 365280, Note_on_c, 0, 55, 95
2, 365280, Note_on_c, 0, 52, 95
2, 365280, Note_on_c, 0, 48, 95
2, 365760, Note_off_c, 0, 64, 95
2, 365760, Note_off_c, 0, 60, 95
2, 365760, Note_off_c, 0, 55, 95
2, 365760, Note_off_c, 0, 52, 95
2, 365760, Note_off_c, 0, 48, 95
2, 365760, Note_on_c, 0, 67, 95
2, 365760, Note_on_c, 0, 59, 95
2, 365760, Note_on_c, 0, 55, 95
2, 365760, Note_on_c, 0, 50, 95
2, 365760, Note_on_c, 0, 47, 95
2, 365760, Note_on_c, 0, 43, 95
2, 366720, Note_off_c, 0, 67, 95
2, 366720, Note_off_c, 0, 59, 95
2, 366720, Note_off_c, 0, 55, 95
2, 366720, Note_off_c, 0, 50, 95
2, 366720, Note_off_c, 0, 47, 95
2, 366720, Note_off_c, 0, 43, 95
2, 366720, Note_on_c, 0, 67, 95
2, 366720, Note_on_c, 0, 59, 95
2, 366720, Note_on_c, 0, 55, 95
2, 366720, Note_on_c, 0, 50, 95
2, 367200, Note_off_c, 0, 67, 95
2, 367200, Note_off_c, 0, 59, 95
2, 367200, Note_off_c, 0, 55, 95
2, 367200, Note_off_c, 0, 50, 95
2, 367200, Note_on_c, 0, 67, 95
2, 367200, Note_on_c, 0, 59, 95
2, 367200, Note_on_c, 0, 55, 95
2, 367200, Note_on_c, 0, 50, 95
2, 367200, Note_on_c, 0, 47, 95
2, 367200, Note_on_c, 0, 43, 95
2, 367680, Note_off_c, 0, 67, 95
2, 367680, Note_off_c, 0, 59, 95
2, 367680, Note_off_c, 0, 55, 95
2, 367680, Note_off_c, 0, 50, 95
2, 367680, Note_off_c, 0, 47, 95
2, 367680, Note_off_c, 0, 43, 95
2, 367680, Note_on_c, 0, 45, 95
2, 368160, Note_off_c, 0, 45, 95
2, 368160, Note_on_c, 0, 47, 95
2, 368640, Note_off_c, 0, 47, 95
2, 368640, Note_on_c, 0, 48, 95
2, 369600, Note_off_c, 0, 48, 95
2, 369600, Note_on_c, 0, 64, 95
2, 369600, Note_on_c, 0, 60, 95
2, 369600, Note_on_c, 0, 55, 95
2, 369600, Note_on_c, 0, 52, 95
2, 370080, Note_off_c, 0, 64, 95
2, 370080, Note_off_c, 0, 60, 95
2, 370080, Note_off_c, 0, 55, 95
2, 370080, Note_off_c, 0, 52, 95
2, 370080, Note_on_c, 0, 64, 95
2, 370080, Note_on_c, 0, 60, 95
2, 370080, Note_on_c, 0, 55, 95
2, 370080, Note_on_c, 0, 52, 95
2, 370080, Note_on_c, 0, 48, 95
2, 371040, Note_off_c, 0, 64, 95
2, 371040, Note_off_c, 0, 60, 95
2, 371040, Note_off_c, 0, 55, 95
2, 371040, Note_off_c, 0, 52, 95
2, 371040, Note_off_c, 0, 48, 95
2, 371040, Note_on_c, 0, 64, 95
2, 371040, Note_on_c, 0, 60, 95
2, 371040, Note_on_c, 0, 55, 95
2, 371040, Note_on_c, 0, 52, 95
2, 371040, Note_on_c, 0, 48, 95
2, 371520, Note_off_c, 0, 64, 95
2, 371520, Note_off_c, 0, 60, 95
2, 371520, Note_off_c, 0, 55, 95
2, 371520, Note_off_c, 0, 52, 95
2, 371520, Note_off_c, 0, 48, 95
2, 371520, Note_on_c, 0, 64, 95
2, 371520, Note_on_c, 0, 60, 95
2, 371520, Note_on_c, 0, 55, 95
2, 371520, Note_on_c, 0, 52, 95
2, 371520, Note_on_c, 0, 48, 95
2, 372480, Note_off_c, 0, 64, 95
2, 372480, Note_off_c, 0, 60, 95
2, 372480, Note_off_c, 0, 55, 95
2, 372480, Note_off_c, 0, 52, 95
2, 372480, Note_off_c, 0, 48, 95
2, 372480, Note_on_c, 0, 64, 95
2, 372480, Note_on_c, 0, 60, 95
2, 372480, Note_on_c, 0, 55, 95
2, 372480, Note_on_c, 0, 52, 95
2, 372480, Note_on_c, 0, 48, 95
2, 372960, Note_off_c, 0, 64, 95
2, 372960, Note_off_c, 0, 60, 95
2, 372960, Note_off_c, 0, 55, 95
2, 372960, Note_off_c, 0, 52, 95
2, 372960, Note_off_c, 0, 48, 95
2, 372960, Note_on_c, 0, 64, 95
2, 372960, Note_on_c, 0, 60, 95
2, 372960, Note_on_c, 0, 55, 95
2, 372960, Note_on_c, 0, 52, 95
2, 372960, Note_on_c, 0, 48, 95
2, 373920, Note_off_c, 0, 64, 95
2, 373920, Note_off_c, 0, 60, 95
2, 373920, Note_off_c, 0, 55, 95
2, 373920, Note_off_c, 0, 52, 95
2, 373920, Note_off_c, 0, 48, 95
2, 373920, Note_on_c, 0, 64, 95
2, 373920, Note_on_c, 0, 60, 95
2, 373920, Note_on_c, 0, 55, 95
2, 373920, Note_on_c, 0, 52, 95
2, 373920, Note_on_c, 0, 48, 95
2, 374400, Note_off_c, 0, 64, 95
2, 374400, Note_off_c, 0, 60, 95
2, 374400, Note_off_c, 0, 55, 95
2, 374400, Note_off_c, 0, 52, 95
2, 374400, Note_off_c, 0, 48, 95
2, 374400, Note_on_c, 0, 65, 95
2, 374400, Note_on_c, 0, 60, 95
2, 374400, Note_on_c, 0, 57, 95
2, 374400, Note_on_c, 0, 53, 95
2, 374400, Note_on_c, 0, 41, 95
2, 375360, Note_off_c, 0, 65, 95
2, 375360, Note_off_c, 0, 60, 95
2, 375360, Note_off_c, 0, 57, 95
2, 375360, Note_off_c, 0, 53, 95
2, 375360, Note_off_c, 0, 41, 95
2, 375360, Note_on_c, 0, 65, 95
2, 375360, Note_on_c, 0, 60, 95
2, 375360, Note_on_c, 0, 57, 95
2, 375360, Note_on_c, 0, 53, 95
2, 375840, Note_off_c, 0, 65, 95
2, 375840, Note_off_c, 0, 60, 95
2, 375840, Note_off_c, 0, 57, 95
2, 375840, Note_off_c, 0, 53, 95
2, 375840, Note_on_c, 0, 65, 95
2, 375840, Note_on_c, 0, 60, 95
2, 375840, Note_on_c, 0, 57, 95
2, 375840, Note_on_c, 0, 53, 95
2, 375840, Note_on_c, 0, 41, 95
2, 376800, Note_off_c, 0, 65, 95
2, 376800, Note_off_c, 0, 60, 95
2, 376800, Note_off_c, 0, 57, 95
2, 376800, Note_off_c, 0, 53, 95
2, 376800, Note_off_c, 0, 41, 95
2, 376800, Note_on_c, 0, 65, 95
2, 376800, Note_on_c, 0, 60, 95
2, 376800, Note_on_c, 0, 57, 95
2, 376800, Note_on_c, 0, 53, 95
2, 376800, Note_on_c, 0, 41, 47
2, 377280, Note_off_c, 0, 65, 95
2, 377280, Note_off_c, 0, 60, 95
2, 377280, Note_off_c, 0, 57, 95
2, 377280, Note_off_c, 0, 53, 95
2, 377280, Note_off_c, 0, 41, 47
2, 377280, Note_on_c, 0, 65, 95
2, 377280, Note_on_c, 0, 60, 95
2, 377280, Note_on_c, 0, 57, 95
2, 377280, Note_on_c, 0, 53, 95
2, 377280, Note_on_c, 0, 41, 95
2, 378240, Note_off_c, 0, 65, 95
2, 378240, Note_off_c, 0, 60, 95
2, 378240, Note_off_c, 0, 57, 95
2, 378240, Note_off_c, 0, 53, 95
2, 378240, Note_off_c, 0, 41, 95
2, 378240, Note_on_c, 0, 65, 95
2, 378240, Note_on_c, 0, 60, 95
2, 378240, Note_on_c, 0, 57, 95
2, 378240, Note_on_c, 0, 53, 95
2, 378240, Note_on_c, 0, 41, 47
2, 378720, Note_off_c, 0, 65, 95
2, 378720, Note_off_c, 0, 60, 95
2, 378720, Note_off_c, 0, 57, 95
2, 378720, Note_off_c, 0, 53, 95
2, 378720, Note_off_c, 0, 41, 47
2, 378720, Note_on_c, 0, 65, 95
2, 378720, Note_on_c, 0, 60, 95
2, 378720, Note_on_c, 0, 57, 95
2, 378720, Note_on_c, 0, 53, 95
2, 378720, Note_on_c, 0, 41, 95
2, 379200, Note_off_c, 0, 65, 95
2, 379200, Note_off_c, 0, 60, 95
2, 379200, Note_off_c, 0, 57, 95
2, 379200, Note_off_c, 0, 53, 95
2, 379200, Note_off_c, 0, 41, 95
2, 379200, Note_on_c, 0, 65, 95
2, 379200, Note_on_c, 0, 60, 95
2, 379200, Note_on_c, 0, 57, 95
2, 379200, Note_on_c, 0, 53, 95
2, 379200, Note_on_c, 0, 41, 47
2, 379680, Note_off_c, 0, 65, 95
2, 379680, Note_off_c, 0, 60, 95
2, 379680, Note_off_c, 0, 57, 95
2, 379680, Note_off_c, 0, 53, 95
2, 379680, Note_off_c, 0, 41, 47
2, 379680, Note_on_c, 0, 65, 95
2, 379680, Note_on_c, 0, 60, 95
2, 379680, Note_on_c, 0, 57, 95
2, 379680, Note_on_c, 0, 53, 95
2, 379680, Note_on_c, 0, 41, 47
2, 380160, Note_off_c, 0, 65, 95
2, 380160, Note_off_c, 0, 60, 95
2, 380160, Note_off_c, 0, 57, 95
2, 380160, Note_off_c, 0, 53, 95
2, 380160, Note_off_c, 0, 41, 47
2, 380160, Note_on_c, 0, 65, 95
2, 380160, Note_on_c, 0, 60, 95
2, 380160, Note_on_c, 0, 57, 95
2, 380160, Note_on_c, 0, 53, 95
2, 380160, Note_on_c, 0, 41, 95
2, 381600, Note_off_c, 0, 65, 95
2, 381600, Note_off_c, 0, 60, 95
2, 381600, Note_off_c, 0, 57, 95
2, 381600, Note_off_c, 0, 53, 95
2, 381600, Note_off_c, 0, 41, 95
2, 381600, Note_on_c, 0, 65, 95
2, 381600, Note_on_c, 0, 60, 95
2, 381600, Note_on_c, 0, 57, 95
2, 381600, Note_on_c, 0, 53, 95
2, 381600, Note_on_c, 0, 41, 95
2, 383040, Note_off_c, 0, 65, 95
2, 383040, Note_off_c, 0, 60, 95
2, 383040, Note_off_c, 0, 57, 95
2, 383040, Note_off_c, 0, 53, 95
2, 383040, Note_off_c, 0, 41, 95
2, 383040, Note_on_c, 0, 65, 95
2, 383040, Note_on_c, 0, 60, 95
2, 383040, Note_on_c, 0, 57, 95
2, 383040, Note_on_c, 0, 53, 95
2, 383040, Note_on_c, 0, 41, 95
2, 384000, Note_off_c, 0, 65, 95
2, 384000, Note_off_c, 0, 60, 95
2, 384000, Note_off_c, 0, 57, 95
2, 384000, Note_off_c, 0, 53, 95
2, 384000, Note_off_c, 0, 41, 95
2, 384000, Note_on_c, 0, 65, 95
2, 384000, Note_on_c, 0, 60, 95
2, 384000, Note_on_c, 0, 57, 95
2, 384000, Note_on_c, 0, 53, 95
2, 384000, Note_on_c, 0, 41, 47
2, 384480, Note_off_c, 0, 65, 95
2, 384480, Note_off_c, 0, 60, 95
2, 384480, Note_off_c, 0, 57, 95
2, 384480, Note_off_c, 0, 53, 95
2, 384480, Note_off_c, 0, 41, 47
2, 384480, Note_on_c, 0, 65, 95
2, 384480, Note_on_c, 0, 60, 95
2, 384480, Note_on_c, 0, 57, 95
2, 384480, Note_on_c, 0, 53, 95
2, 384480, Note_on_c, 0, 41, 95
2, 385440, Note_off_c, 0, 65, 95
2, 385440, Note_off_c, 0, 60, 95
2, 385440, Note_off_c, 0, 57, 95
2, 385440, Note_off_c, 0, 53, 95
2, 385440, Note_off_c, 0, 41, 95
2, 385440, Note_on_c, 0, 64, 95
2, 385440, Note_on_c, 0, 60, 95
2, 385440, Note_on_c, 0, 55, 95
2, 385440, Note_on_c, 0, 52, 95
2, 385920, Note_off_c, 0, 64, 95
2, 385920, Note_off_c, 0, 60, 95
2, 385920, Note_off_c, 0, 55, 95
2, 385920, Note_off_c, 0, 52, 95
2, 385920, Note_on_c, 0, 64, 95
2, 385920, Note_on_c, 0, 60, 95
2, 385920, Note_on_c, 0, 55, 95
2, 385920, Note_on_c, 0, 52, 95
2, 385920, Note_on_c, 0, 48, 95
2, 386880, Note_off_c, 0, 64, 95
2, 386880, Note_off_c, 0, 60, 95
2, 386880, Note_off_c, 0, 55, 95
2, 386880, Note_off_c, 0, 52, 95
2, 386880, Note_off_c, 0, 48, 95
2, 386880, Note_on_c, 0, 64, 95
2, 386880, Note_on_c, 0, 60, 95
2, 386880, Note_on_c, 0, 55, 95
2, 386880, Note_on_c, 0, 52, 47
2, 387360, Note_off_c, 0, 64, 95
2, 387360, Note_off_c, 0, 60, 95
2, 387360, Note_off_c, 0, 55, 95
2, 387360, Note_off_c, 0, 52, 47
2, 387360, Note_on_c, 0, 64, 95
2, 387360, Note_on_c, 0, 60, 95
2, 387360, Note_on_c, 0, 55, 95
2, 387360, Note_on_c, 0, 52, 95
2, 387360, Note_on_c, 0, 48, 95
2, 387840, Note_off_c, 0, 64, 95
2, 387840, Note_off_c, 0, 60, 95
2, 387840, Note_off_c, 0, 55, 95
2, 387840, Note_off_c, 0, 52, 95
2, 387840, Note_off_c, 0, 48, 95
2, 387840, Note_on_c, 0, 47, 95
2, 388320, Note_off_c, 0, 47, 95
2, 388320, Note_on_c, 0, 45, 95
2, 388800, Note_off_c, 0, 45, 95
2, 388800, Note_on_c, 0, 43, 95
2, 389760, Note_off_c, 0, 43, 95
2, 389760, Note_on_c, 0, 67, 95
2, 389760, Note_on_c, 0, 59, 95
2, 389760, Note_on_c, 0, 55, 95
2, 389760, Note_on_c, 0, 50, 95
2, 390240, Note_off_c, 0, 67, 95
2, 390240, Note_off_c, 0, 59, 95
2, 390240, Note_off_c, 0, 55, 95
2, 390240, Note_off_c, 0, 50, 95
2, 390240, Note_on_c, 0, 67, 95
2, 390240, Note_on_c, 0, 59, 95
2, 390240, Note_on_c, 0, 55, 95
2, 390240, Note_on_c, 0, 50, 95
2, 390240, Note_on_c, 0, 47, 95
2, 390240, Note_on_c, 0, 43, 95
2, 390720, Note_off_c, 0, 67, 95
2, 390720, Note_off_c, 0, 59, 95
2, 390720, Note_off_c, 0, 55, 95
2, 390720, Note_off_c, 0, 50, 95
2, 390720, Note_off_c, 0, 47, 95
2, 390720, Note_off_c, 0, 43, 95
2, 390720, Note_on_c, 0, 45, 95
2, 391200, Note_off_c, 0, 45, 95
2, 391200, Note_on_c, 0, 47, 95
2, 391680, Note_off_c, 0, 47, 95
2, 391680, Note_on_c, 0, 60, 95
2, 391680, Note_on_c, 0, 55, 95
2, 391680, Note_on_c, 0, 52, 95
2, 391680, Note_on_c, 0, 48, 95
2, 392640, Note_off_c, 0, 60, 95
2, 392640, Note_off_c, 0, 55, 95
2, 392640, Note_off_c, 0, 52, 95
2, 392640, Note_off_c, 0, 48, 95
2, 392640, Note_on_c, 0, 64, 95
2, 392640, Note_on_c, 0, 60, 95
2, 392640, Note_on_c, 0, 55, 95
2, 393120, Note_off_c, 0, 64, 95
2, 393120, Note_off_c, 0, 60, 95
2, 393120, Note_off_c, 0, 55, 95
2, 393120, Note_on_c, 0, 64, 95
2, 393120, Note_on_c, 0, 60, 95
2, 393120, Note_on_c, 0, 55, 95
2, 393120, Note_on_c, 0, 52, 95
2, 393120, Note_on_c, 0, 48, 95
2, 393600, Note_off_c, 0, 64, 95
2, 393600, Note_off_c, 0, 60, 95
2, 393600, Note_off_c, 0, 55, 95
2, 393600, Note_off_c, 0, 52, 95
2, 393600, Note_off_c, 0, 48, 95
2, 393600, Note_on_c, 0, 64, 95
2, 393600, Note_on_c, 0, 60, 95
2, 393600, Note_on_c, 0, 55, 95
2, 393600, Note_on_c, 0, 52, 95
2, 393600, Note_on_c, 0, 48, 95
2, 394080, Note_off_c, 0, 64, 95
2, 394080, Note_off_c, 0, 60, 95
2, 394080, Note_off_c, 0, 55, 95
2, 394080, Note_off_c, 0, 52, 95
2, 394080, Note_off_c, 0, 48, 95
2, 394080, Note_on_c, 0, 64, 95
2, 394080, Note_on_c, 0, 60, 95
2, 394080, Note_on_c, 0, 55, 95
2, 394080, Note_on_c, 0, 52, 95
2, 394080, Note_on_c, 0, 48, 95
2, 394560, Note_off_c, 0, 64, 95
2, 394560, Note_off_c, 0, 60, 95
2, 394560, Note_off_c, 0, 55, 95
2, 394560, Note_off_c, 0, 52, 95
2, 394560, Note_off_c, 0, 48, 95
2, 394560, Note_on_c, 0, 64, 95
2, 394560, Note_on_c, 0, 60, 95
2, 394560, Note_on_c, 0, 55, 95
2, 394560, Note_on_c, 0, 52, 95
2, 394560, Note_on_c, 0, 48, 95
2, 395520, Note_off_c, 0, 64, 95
2, 395520, Note_off_c, 0, 60, 95
2, 395520, Note_off_c, 0, 55, 95
2, 395520, Note_off_c, 0, 52, 95
2, 395520, Note_off_c, 0, 48, 95
2, 395520, Note_on_c, 0, 64, 95
2, 395520, Note_on_c, 0, 60, 95
2, 395520, Note_on_c, 0, 55, 95
2, 395520, Note_on_c, 0, 52, 95
2, 395520, Note_on_c, 0, 48, 95
2, 396000, Note_off_c, 0, 64, 95
2, 396000, Note_off_c, 0, 60, 95
2, 396000, Note_off_c, 0, 55, 95
2, 396000, Note_off_c, 0, 52, 95
2, 396000, Note_off_c, 0, 48, 95
2, 396000, Note_on_c, 0, 64, 95
2, 396000, Note_on_c, 0, 60, 95
2, 396000, Note_on_c, 0, 55, 95
2, 396000, Note_on_c, 0, 52, 95
2, 396000, Note_on_c, 0, 48, 95
2, 396960, Note_off_c, 0, 64, 95
2, 396960, Note_off_c, 0, 60, 95
2, 396960, Note_off_c, 0, 55, 95
2, 396960, Note_off_c, 0, 52, 95
2, 396960, Note_off_c, 0, 48, 95
2, 396960, Note_on_c, 0, 64, 95
2, 396960, Note_on_c, 0, 60, 95
2, 396960, Note_on_c, 0, 55, 95
2, 396960, Note_on_c, 0, 52, 95
2, 396960, Note_on_c, 0, 48, 95
2, 397440, Note_off_c, 0, 64, 95
2, 397440, Note_off_c, 0, 60, 95
2, 397440, Note_off_c, 0, 55, 95
2, 397440, Note_off_c, 0, 52, 95
2, 397440, Note_off_c, 0, 48, 95
2, 397440, Note_on_c, 0, 67, 95
2, 397440, Note_on_c, 0, 59, 95
2, 397440, Note_on_c, 0, 55, 95
2, 397440, Note_on_c, 0, 50, 95
2, 397440, Note_on_c, 0, 47, 95
2, 397440, Note_on_c, 0, 43, 95
2, 398400, Note_off_c, 0, 67, 95
2, 398400, Note_off_c, 0, 59, 95
2, 398400, Note_off_c, 0, 55, 95
2, 398400, Note_off_c, 0, 50, 95
2, 398400, Note_off_c, 0, 47, 95
2, 398400, Note_off_c, 0, 43, 95
2, 398400, Note_on_c, 0, 67, 95
2, 398400, Note_on_c, 0, 59, 95
2, 398400, Note_on_c, 0, 55, 95
2, 398400, Note_on_c, 0, 50, 95
2, 398880, Note_off_c, 0, 67, 95
2, 398880, Note_off_c, 0, 59, 95
2, 398880, Note_off_c, 0, 55, 95
2, 398880, Note_off_c, 0, 50, 95
2, 398880, Note_on_c, 0, 67, 95
2, 398880, Note_on_c, 0, 59, 95
2, 398880, Note_on_c, 0, 55, 95
2, 398880, Note_on_c, 0, 50, 95
2, 398880, Note_on_c, 0, 47, 95
2, 398880, Note_on_c, 0, 43, 95
2, 399840, Note_off_c, 0, 67, 95
2, 399840, Note_off_c, 0, 59, 95
2, 399840, Note_off_c, 0, 55, 95
2, 399840, Note_off_c, 0, 50, 95
2, 399840, Note_off_c, 0, 47, 95
2, 399840, Note_off_c, 0, 43, 95
2, 399840, Note_on_c, 0, 67, 95
2, 399840, Note_on_c, 0, 59, 95
2, 399840, Note_on_c, 0, 55, 95
2, 399840, Note_on_c, 0, 50, 95
2, 399840, Note_on_c, 0, 47, 95
2, 399840, Note_on_c, 0, 43, 95
2, 401760, Note_off_c, 0, 67, 95
2, 401760, Note_off_c, 0, 59, 95
2, 401760, Note_off_c, 0, 55, 95
2, 401760, Note_off_c, 0, 50, 95
2, 401760, Note_off_c, 0, 47, 95
2, 401760, Note_off_c, 0, 43, 95
2, 401760, Note_on_c, 0, 67, 95
2, 401760, Note_on_c, 0, 59, 95
2, 401760, Note_on_c, 0, 55, 95
2, 401760, Note_on_c, 0, 50, 95
2, 401760, Note_on_c, 0, 47, 95
2, 401760, Note_on_c, 0, 43, 95
2, 402720, Note_off_c, 0, 67, 95
2, 402720, Note_off_c, 0, 59, 95
2, 402720, Note_off_c, 0, 55, 95
2, 402720, Note_off_c, 0, 50, 95
2, 402720, Note_off_c, 0, 47, 95
2, 402720, Note_off_c, 0, 43, 95
2, 402720, Note_on_c, 0, 64, 95
2, 402720, Note_on_c, 0, 60, 95
2, 402720, Note_on_c, 0, 55, 95
2, 402720, Note_on_c, 0, 52, 95
2, 402720, Note_on_c, 0, 48, 95
2, 403200, Note_off_c, 0, 64, 95
2, 403200, Note_off_c, 0, 60, 95
2, 403200, Note_off_c, 0, 55, 95
2, 403200, Note_off_c, 0, 52, 95
2, 403200, Note_off_c, 0, 48, 95
2, 403200, Note_on_c, 0, 64, 95
2, 403200, Note_on_c, 0, 60, 95
2, 403200, Note_on_c, 0, 55, 95
2, 403200, Note_on_c, 0, 52, 95
2, 403200, Note_on_c, 0, 48, 95
2, 404160, Note_off_c, 0, 64, 95
2, 404160, Note_off_c, 0, 60, 95
2, 404160, Note_off_c, 0, 55, 95
2, 404160, Note_off_c, 0, 52, 95
2, 404160, Note_off_c, 0, 48, 95
2, 404160, Note_on_c, 0, 64, 95
2, 404160, Note_on_c, 0, 60, 95
2, 404160, Note_on_c, 0, 55, 95
2, 404160, Note_on_c, 0, 52, 95
2, 404160, Note_on_c, 0, 48, 95
2, 404640, Note_off_c, 0, 64, 95
2, 404640, Note_off_c, 0, 60, 95
2, 404640, Note_off_c, 0, 55, 95
2, 404640, Note_off_c, 0, 52, 95
2, 404640, Note_off_c, 0, 48, 95
2, 404640, Note_on_c, 0, 64, 95
2, 404640, Note_on_c, 0, 60, 95
2, 404640, Note_on_c, 0, 55, 95
2, 404640, Note_on_c, 0, 52, 95
2, 404640, Note_on_c, 0, 48, 95
2, 405120, Note_off_c, 0, 64, 95
2, 405120, Note_off_c, 0, 60, 95
2, 405120, Note_off_c, 0, 55, 95
2, 405120, Note_off_c, 0, 52, 95
2, 405120, Note_off_c, 0, 48, 95
2, 405120, Note_on_c, 0, 64, 95
2, 405120, Note_on_c, 0, 60, 95
2, 405120, Note_on_c, 0, 55, 95
2, 405120, Note_on_c, 0, 52, 95
2, 405120, Note_on_c, 0, 48, 95
2, 405600, Note_off_c, 0, 64, 95
2, 405600, Note_off_c, 0, 60, 95
2, 405600, Note_off_c, 0, 55, 95
2, 405600, Note_off_c, 0, 52, 95
2, 405600, Note_off_c, 0, 48, 95
2, 405600, Note_on_c, 0, 64, 95
2, 405600, Note_on_c, 0, 60, 95
2, 405600, Note_on_c, 0, 55, 95
2, 405600, Note_on_c, 0, 52, 95
2, 405600, Note_on_c, 0, 48, 95
2, 406080, Note_off_c, 0, 64, 95
2, 406080, Note_off_c, 0, 60, 95
2, 406080, Note_off_c, 0, 55, 95
2, 406080, Note_off_c, 0, 52, 95
2, 406080, Note_off_c, 0, 48, 95
2, 406080, Note_on_c, 0, 65, 95
2, 406080, Note_on_c, 0, 60, 95
2, 406080, Note_on_c, 0, 57, 95
2, 406080, Note_on_c, 0, 53, 95
2, 406080, Note_on_c, 0, 48, 47
2, 406560, Note_off_c, 0, 65, 95
2, 406560, Note_off_c, 0, 60, 95
2, 406560, Note_off_c, 0, 57, 95
2, 406560, Note_off_c, 0, 53, 95
2, 406560, Note_off_c, 0, 48, 47
2, 406560, Note_on_c, 0, 65, 95
2, 406560, Note_on_c, 0, 60, 95
2, 406560, Note_on_c, 0, 57, 95
2, 406560, Note_on_c, 0, 53, 95
2, 406560, Note_on_c, 0, 48, 47
2, 407040, Note_off_c, 0, 65, 95
2, 407040, Note_off_c, 0, 60, 95
2, 407040, Note_off_c, 0, 57, 95
2, 407040, Note_off_c, 0, 53, 95
2, 407040, Note_off_c, 0, 48, 47
2, 407040, Note_on_c, 0, 65, 95
2, 407040, Note_on_c, 0, 60, 95
2, 407040, Note_on_c, 0, 57, 95
2, 407040, Note_on_c, 0, 53, 95
2, 407040, Note_on_c, 0, 48, 47
2, 407520, Note_off_c, 0, 65, 95
2, 407520, Note_off_c, 0, 60, 95
2, 407520, Note_off_c, 0, 57, 95
2, 407520, Note_off_c, 0, 53, 95
2, 407520, Note_off_c, 0, 48, 47
2, 407520, Note_on_c, 0, 65, 95
2, 407520, Note_on_c, 0, 60, 95
2, 407520, Note_on_c, 0, 56, 95
2, 407520, Note_on_c, 0, 53, 95
2, 407520, Note_on_c, 0, 48, 47
2, 408000, Note_off_c, 0, 65, 95
2, 408000, Note_off_c, 0, 60, 95
2, 408000, Note_off_c, 0, 56, 95
2, 408000, Note_off_c, 0, 53, 95
2, 408000, Note_off_c, 0, 48, 47
2, 408000, Note_on_c, 0, 65, 95
2, 408000, Note_on_c, 0, 60, 95
2, 408000, Note_on_c, 0, 56, 95
2, 408000, Note_on_c, 0, 53, 95
2, 408000, Note_on_c, 0, 48, 47
2, 408480, Note_off_c, 0, 65, 95
2, 408480, Note_off_c, 0, 60, 95
2, 408480, Note_off_c, 0, 56, 95
2, 408480, Note_off_c, 0, 53, 95
2, 408480, Note_off_c, 0, 48, 47
2, 408480, Note_on_c, 0, 65, 95
2, 408480, Note_on_c, 0, 60, 95
2, 408480, Note_on_c, 0, 56, 95
2, 408480, Note_on_c, 0, 53, 95
2, 408480, Note_on_c, 0, 48, 47
2, 408960, Note_off_c, 0, 65, 95
2, 408960, Note_off_c, 0, 60, 95
2, 408960, Note_off_c, 0, 56, 95
2, 408960, Note_off_c, 0, 53, 95
2, 408960, Note_off_c, 0, 48, 47
2, 408960, Note_on_c, 0, 64, 95
2, 408960, Note_on_c, 0, 60, 95
2, 408960, Note_on_c, 0, 55, 95
2, 408960, Note_on_c, 0, 52, 95
2, 408960, Note_on_c, 0, 48, 95
2, 409440, Note_off_c, 0, 64, 95
2, 409440, Note_off_c, 0, 60, 95
2, 409440, Note_off_c, 0, 55, 95
2, 409440, Note_off_c, 0, 52, 95
2, 409440, Note_off_c, 0, 48, 95
2, 410400, Note_on_c, 0, 67, 95
2, 410400, Note_on_c, 0, 59, 95
2, 410400, Note_on_c, 0, 55, 95
2, 410400, Note_on_c, 0, 50, 95
2, 410400, Note_on_c, 0, 47, 95
2, 410400, Note_on_c, 0, 43, 95
2, 410880, Note_off_c, 0, 67, 95
2, 410880, Note_off_c, 0, 59, 95
2, 410880, Note_off_c, 0, 55, 95
2, 410880, Note_off_c, 0, 50, 95
2, 410880, Note_off_c, 0, 47, 95
2, 410880, Note_off_c, 0, 43, 95
2, 411360, Note_on_c, 0, 64, 95
2, 411360, Note_on_c, 0, 60, 95
2, 411360, Note_on_c, 0, 55, 95
2, 411360, Note_on_c, 0, 52, 95
2, 411360, Note_on_c, 0, 48, 95
2, 414720, Note_off_c, 0, 64, 95
2, 414720, Note_off_c, 0, 60, 95
2, 414720, Note_off_c, 0, 55, 95
2, 414720, Note_off_c, 0, 52, 95
2, 414720, Note_off_c, 0, 48, 95
2, 414720, End_track
3, 0, Start_track
3, 0, Pitch_bend_c, 2, 8192
3, 0, Control_c, 2, 7, 111
3, 0, Control_c, 2, 10, 63
3, 0, Control_c, 2, 93, 0
3, 0, Control_c, 2, 91, 0
3, 0, Control_c, 2, 95, 0
3, 0, Control_c, 2, 92, 0
3, 0, Control_c, 2, 11, 127
3, 0, Program_c, 2, 1
3, 0, Control_c, 3, 7, 111
3, 0, Control_c, 3, 10, 63
3, 0, Control_c, 3, 93, 0
3, 0, Control_c, 3, 91, 0
3, 0, Control_c, 3, 95, 0
3, 0, Control_c, 3, 92, 0
3, 0, Control_c, 3, 11, 127
3, 0, Program_c, 3, 1
3, 25440, Note_on_c, 2, 60, 127
3, 25920, Note_off_c, 2, 60, 127
3, 25920, Note_on_c, 2, 79, 127
3, 25920, Note_on_c, 2, 72, 127
3, 25920, Note_on_c, 2, 71, 127
3, 25920, Note_on_c, 2, 60, 127
3, 26880, Note_off_c, 2, 79, 127
3, 26880, Note_off_c, 2, 72, 127
3, 26880, Note_off_c, 2, 71, 127
3, 26880, Note_off_c, 2, 60, 127
3, 26880, Note_on_c, 2, 79, 127
3, 26880, Note_on_c, 2, 72, 127
3, 26880, Note_on_c, 2, 71, 127
3, 28800, Note_off_c, 2, 79, 127
3, 28800, Note_off_c, 2, 72, 127
3, 28800, Note_off_c, 2, 71, 127
3, 28800, Note_on_c, 2, 53, 127
3, 31680, Note_off_c, 2, 53, 127
3, 32640, Note_on_c, 2, 77, 127
3, 32640, Note_on_c, 2, 74, 127
3, 32640, Note_on_c, 2, 69, 127
3, 33120, Note_off_c, 2, 77, 127
3, 33120, Note_off_c, 2, 74, 127
3, 33120, Note_off_c, 2, 69, 127
3, 33120, Note_on_c, 2, 70, 127
3, 33600, Note_off_c, 2, 70, 127
3, 33600, Note_on_c, 2, 71, 127
3, 34080, Note_off_c, 2, 71, 127
3, 34080, Note_on_c, 2, 89, 127
3, 34080, Note_on_c, 2, 84, 127
3, 34080, Note_on_c, 2, 72, 127
3, 34560, Note_off_c, 2, 89, 127
3, 34560, Note_off_c, 2, 84, 127
3, 34560, Note_off_c, 2, 72, 127
3, 34560, Note_on_c, 2, 89, 127
3, 34560, Note_on_c, 2, 84, 127
3, 35520, Note_off_c, 2, 89, 127
3, 35520, Note_off_c, 2, 84, 127
3, 35520, Note_on_c, 2, 72, 127
3, 36000, Note_off_c, 2, 72, 127
3, 36000, Note_on_c, 2, 75, 127
3, 36240, Note_off_c, 2, 75, 127
3, 36240, Note_on_c, 2, 76, 127
3, 36480, Note_off_c, 2, 76, 127
3, 36480, Note_on_c, 2, 79, 127
3, 36960, Note_off_c, 2, 79, 127
3, 36960, Note_on_c, 2, 81, 127
3, 37440, Note_off_c, 2, 81, 127
3, 37440, Note_on_c, 2, 84, 127
3, 37440, Note_on_c, 2, 79, 127
3, 38160, Note_off_c, 2, 84, 127
3, 38160, Note_off_c, 2, 79, 127
3, 38160, Note_on_c, 2, 81, 127
3, 38400, Note_off_c, 2, 81, 127
3, 38400, Note_on_c, 2, 79, 127
3, 38640, Note_off_c, 2, 79, 127
3, 38640, Note_on_c, 2, 76, 127
3, 38880, Note_off_c, 2, 76, 127
3, 38880, Note_on_c, 2, 81, 127
3, 38880, Note_on_c, 2, 74, 127
3, 39360, Note_off_c, 2, 81, 127
3, 39360, Note_off_c, 2, 74, 127
3, 39360, Note_on_c, 2, 72, 127
3, 39840, Note_off_c, 2, 72, 127
3, 39840, Note_on_c, 2, 69, 127
3, 40320, Note_off_c, 2, 69, 127
3, 40320, Note_on_c, 2, 75, 127
3, 40320, Note_on_c, 2, 60, 127
3, 40440, Note_off_c, 2, 75, 127
3, 40440, Note_off_c, 2, 60, 127
3, 40440, Note_on_c, 2, 76, 127
3, 40560, Note_off_c, 2, 76, 127
3, 40560, Note_on_c, 2, 75, 127
3, 40680, Note_off_c, 2, 75, 127
3, 40680, Note_on_c, 2, 76, 127
3, 40800, Note_off_c, 2, 76, 127
3, 40800, Note_on_c, 2, 75, 127
3, 40920, Note_off_c, 2, 75, 127
3, 40920, Note_on_c, 2, 76, 127
3, 41040, Note_off_c, 2, 76, 127
3, 41040, Note_on_c, 2, 75, 127
3, 41160, Note_off_c, 2, 75, 127
3, 41160, Note_on_c, 2, 76, 127
3, 41280, Note_off_c, 2, 76, 127
3, 41280, Note_on_c, 2, 75, 127
3, 41400, Note_off_c, 2, 75, 127
3, 41400, Note_on_c, 2, 76, 127
3, 41520, Note_off_c, 2, 76, 127
3, 41520, Note_on_c, 2, 75, 127
3, 41640, Note_off_c, 2, 75, 127
3, 41640, Note_on_c, 2, 76, 127
3, 41760, Note_off_c, 2, 76, 127
3, 41760, Note_on_c, 2, 75, 127
3, 41880, Note_off_c, 2, 75, 127
3, 41880, Note_on_c, 2, 76, 127
3, 42000, Note_off_c, 2, 76, 127
3, 42000, Note_on_c, 2, 75, 127
3, 42120, Note_off_c, 2, 75, 127
3, 42120, Note_on_c, 2, 76, 127
3, 42240, Note_off_c, 2, 76, 127
3, 42240, Note_on_c, 2, 75, 127
3, 42360, Note_off_c, 2, 75, 127
3, 42360, Note_on_c, 2, 76, 127
3, 42480, Note_off_c, 2, 76, 127
3, 42480, Note_on_c, 2, 75, 127
3, 42600, Note_off_c, 2, 75, 127
3, 42600, Note_on_c, 2, 76, 127
3, 42720, Note_off_c, 2, 76, 127
3, 42720, Note_on_c, 2, 75, 127
3, 42840, Note_off_c, 2, 75, 127
3, 42840, Note_on_c, 2, 76, 127
3, 42960, Note_off_c, 2, 76, 127
3, 42960, Note_on_c, 2, 75, 127
3, 43080, Note_off_c, 2, 75, 127
3, 43080, Note_on_c, 2, 76, 127
3, 43200, Note_off_c, 2, 76, 127
3, 43200, Note_on_c, 2, 55, 127
3, 44160, Note_off_c, 2, 55, 127
3, 44160, Note_on_c, 2, 74, 127
3, 44160, Note_on_c, 2, 71, 127
3, 44160, Note_on_c, 2, 67, 127
3, 44640, Note_off_c, 2, 74, 127
3, 44640, Note_off_c, 2, 71, 127
3, 44640, Note_off_c, 2, 67, 127
3, 44640, Note_on_c, 2, 74, 127
3, 44640, Note_on_c, 2, 71, 127
3, 44640, Note_on_c, 2, 67, 127
3, 45120, Note_off_c, 2, 74, 127
3, 45120, Note_off_c, 2, 71, 127
3, 45120, Note_off_c, 2, 67, 127
3, 45120, Note_on_c, 2, 74, 127
3, 45120, Note_on_c, 2, 71, 127
3, 45120, Note_on_c, 2, 67, 127
3, 45600, Note_off_c, 2, 74, 127
3, 45600, Note_off_c, 2, 71, 127
3, 45600, Note_off_c, 2, 67, 127
3, 45600, Note_on_c, 2, 74, 127
3, 45600, Note_on_c, 2, 71, 127
3, 45600, Note_on_c, 2, 67, 127
3, 46080, Note_off_c, 2, 74, 127
3, 46080, Note_off_c, 2, 71, 127
3, 46080, Note_off_c, 2, 67, 127
3, 46080, Note_on_c, 2, 76, 127
3, 46080, Note_on_c, 2, 72, 127
3, 46080, Note_on_c, 2, 67, 127
3, 46080, Note_on_c, 2, 60, 127
3, 47040, Note_off_c, 2, 76, 127
3, 47040, Note_off_c, 2, 72, 127
3, 47040, Note_off_c, 2, 67, 127
3, 47040, Note_off_c, 2, 60, 127
3, 47040, Note_on_c, 2, 60, 127
3, 47520, Note_off_c, 2, 60, 127
3, 47520, Note_on_c, 2, 81, 127
3, 48480, Note_off_c, 2, 81, 127
3, 48480, Note_on_c, 2, 60, 127
3, 48960, Note_off_c, 2, 60, 127
3, 48960, Note_on_c, 2, 79, 127
3, 48960, Note_on_c, 2, 76, 127
3, 49920, Note_off_c, 2, 79, 127
3, 49920, Note_off_c, 2, 76, 127
3, 49920, Note_on_c, 2, 78, 127
3, 49920, Note_on_c, 2, 76, 127
3, 50400, Note_off_c, 2, 78, 127
3, 50400, Note_off_c, 2, 76, 127
3, 50400, Note_on_c, 2, 55, 127
3, 50880, Note_off_c, 2, 55, 127
3, 50880, Note_on_c, 2, 78, 127
3, 50880, Note_on_c, 2, 76, 127
3, 51840, Note_off_c, 2, 78, 127
3, 51840, Note_off_c, 2, 76, 127
3, 51840, Note_on_c, 2, 55, 127
3, 53760, Note_off_c, 2, 55, 127
3, 53760, Note_on_c, 2, 86, 127
3, 54000, Note_off_c, 2, 86, 127
3, 54000, Note_on_c, 2, 83, 127
3, 54240, Note_off_c, 2, 83, 127
3, 54240, Note_on_c, 2, 81, 127
3, 54480, Note_off_c, 2, 81, 127
3, 54480, Note_on_c, 2, 79, 127
3, 54720, Note_off_c, 2, 79, 127
3, 54720, Note_on_c, 2, 81, 127
3, 54720, Note_on_c, 2, 50, 127
3, 55200, Note_off_c, 2, 81, 127
3, 55200, Note_off_c, 2, 50, 127
3, 55200, Note_on_c, 2, 83, 127
3, 55680, Note_off_c, 2, 83, 127
3, 55680, Note_on_c, 2, 79, 127
3, 56160, Note_off_c, 2, 79, 127
3, 56160, Note_on_c, 2, 74, 127
3, 57120, Note_off_c, 2, 74, 127
3, 57120, Note_on_c, 2, 79, 127
3, 57600, Note_off_c, 2, 79, 127
3, 57600, Note_on_c, 2, 55, 127
3, 58080, Note_off_c, 2, 55, 127
3, 58080, Note_on_c, 2, 80, 127
3, 58320, Note_off_c, 2, 80, 127
3, 58320, Note_on_c, 2, 82, 127
3, 58560, Note_off_c, 2, 82, 127
3, 58560, Note_on_c, 2, 84, 127
3, 59040, Note_off_c, 2, 84, 127
3, 59040, Note_on_c, 2, 87, 127
3, 59040, Note_on_c, 2, 79, 127
3, 59520, Note_off_c, 2, 87, 127
3, 59520, Note_off_c, 2, 79, 127
3, 60000, Note_on_c, 2, 86, 127
3, 60000, Note_on_c, 2, 77, 127
3, 60480, Note_off_c, 2, 86, 127
3, 60480, Note_off_c, 2, 77, 127
3, 60480, Note_on_c, 2, 84, 127
3, 60480, Note_on_c, 2, 76, 127
3, 60480, Note_on_c, 2, 57, 127
3, 61440, Note_off_c, 2, 84, 127
3, 61440, Note_off_c, 2, 76, 127
3, 61440, Note_off_c, 2, 57, 127
3, 61440, Note_on_c, 2, 83, 127
3, 61440, Note_on_c, 2, 74, 127
3, 61920, Note_off_c, 2, 83, 127
3, 61920, Note_off_c, 2, 74, 127
3, 61920, Note_on_c, 2, 81, 127
3, 61920, Note_on_c, 2, 72, 127
3, 61920, Note_on_c, 2, 59, 127
3, 62880, Note_off_c, 2, 81, 127
3, 62880, Note_off_c, 2, 72, 127
3, 62880, Note_off_c, 2, 59, 127
3, 62880, Note_on_c, 2, 79, 127
3, 62880, Note_on_c, 2, 69, 127
3, 63360, Note_off_c, 2, 79, 127
3, 63360, Note_off_c, 2, 69, 127
3, 63360, Note_on_c, 2, 60, 127
3, 64800, Note_off_c, 2, 60, 127
3, 64800, Note_on_c, 2, 72, 127
3, 65280, Note_off_c, 2, 72, 127
3, 65280, Note_on_c, 2, 74, 127
3, 65760, Note_off_c, 2, 74, 127
3, 65760, Note_on_c, 2, 76, 127
3, 66240, Note_off_c, 2, 76, 127
3, 66240, Note_on_c, 2, 81, 127
3, 66240, Note_on_c, 2, 77, 127
3, 66240, Note_on_c, 2, 72, 127
3, 66240, Note_on_c, 2, 65, 127
3, 67680, Note_off_c, 2, 81, 127
3, 67680, Note_off_c, 2, 77, 127
3, 67680, Note_off_c, 2, 72, 127
3, 67680, Note_off_c, 2, 65, 127
3, 67680, Note_on_c, 2, 80, 127
3, 67680, Note_on_c, 2, 77, 127
3, 67680, Note_on_c, 2, 72, 127
3, 67680, Note_on_c, 2, 65, 127
3, 69120, Note_off_c, 2, 80, 127
3, 69120, Note_off_c, 2, 77, 127
3, 69120, Note_off_c, 2, 72, 127
3, 69120, Note_off_c, 2, 65, 127
3, 69120, Note_on_c, 2, 79, 127
3, 69120, Note_on_c, 2, 76, 127
3, 69120, Note_on_c, 2, 72, 127
3, 69120, Note_on_c, 2, 60, 127
3, 70560, Note_off_c, 2, 79, 127
3, 70560, Note_off_c, 2, 76, 127
3, 70560, Note_off_c, 2, 72, 127
3, 70560, Note_off_c, 2, 60, 127
3, 70560, Note_on_c, 2, 52, 127
3, 72000, Note_off_c, 2, 52, 127
3, 72000, Note_on_c, 2, 53, 127
3, 73440, Note_off_c, 2, 53, 127
3, 73440, Note_on_c, 2, 54, 127
3, 74880, Note_off_c, 2, 54, 127
3, 74880, Note_on_c, 2, 60, 127
3, 75840, Note_off_c, 2, 60, 127
3, 75840, Note_on_c, 2, 79, 127
3, 75840, Note_on_c, 2, 70, 127
3, 77760, Note_off_c, 2, 79, 127
3, 77760, Note_off_c, 2, 70, 127
3, 79200, Note_on_c, 2, 65, 127
3, 79680, Note_off_c, 2, 65, 127
3, 79680, Note_on_c, 2, 66, 127
3, 80160, Note_off_c, 2, 66, 127
3, 80160, Note_on_c, 2, 67, 127
3, 80640, Note_off_c, 2, 67, 127
3, 80640, Note_on_c, 2, 55, 127
3, 83520, Note_off_c, 2, 55, 127
3, 83520, Note_on_c, 2, 72, 127
3, 83520, Note_on_c, 2, 67, 127
3, 84960, Note_off_c, 2, 72, 127
3, 84960, Note_off_c, 2, 67, 127
3, 84960, Note_on_c, 2, 72, 127
3, 84960, Note_on_c, 2, 65, 127
3, 86400, Note_off_c, 2, 72, 127
3, 86400, Note_off_c, 2, 65, 127
3, 86400, Note_on_c, 2, 60, 127
3, 87840, Note_off_c, 2, 60, 127
3, 87840, Note_on_c, 2, 88, 127
3, 88320, Note_off_c, 2, 88, 127
3, 88320, Note_on_c, 2, 91, 127
3, 88800, Note_off_c, 2, 91, 127
3, 88800, Note_on_c, 2, 93, 127
3, 88800, Note_on_c, 2, 84, 127
3, 89280, Note_off_c, 2, 93, 127
3, 89280, Note_off_c, 2, 84, 127
3, 89280, Note_on_c, 2, 88, 127
3, 89280, Note_on_c, 2, 79, 127
3, 89280, Note_on_c, 2, 55, 127
3, 90240, Note_off_c, 2, 88, 127
3, 90240, Note_off_c, 2, 79, 127
3, 90240, Note_off_c, 2, 55, 127
3, 90240, Note_on_c, 2, 86, 127
3, 90240, Note_on_c, 2, 79, 127
3, 90720, Note_off_c, 2, 86, 127
3, 90720, Note_off_c, 2, 79, 127
3, 90720, Note_on_c, 2, 84, 127
3, 90720, Note_on_c, 2, 79, 127
3, 91680, Note_off_c, 2, 84, 127
3, 91680, Note_off_c, 2, 79, 127
3, 91680, Note_on_c, 2, 79, 127
3, 91680, Note_on_c, 2, 77, 127
3, 92160, Note_off_c, 2, 79, 127
3, 92160, Note_off_c, 2, 77, 127
3, 92160, Note_on_c, 2, 60, 127
3, 93120, Note_off_c, 2, 60, 127
3, 93120, Note_on_c, 2, 87, 127
3, 93120, Note_on_c, 2, 79, 127
3, 93600, Note_off_c, 2, 87, 127
3, 93600, Note_off_c, 2, 79, 127
3, 93600, Note_on_c, 2, 86, 127
3, 93600, Note_on_c, 2, 76, 127
3, 94560, Note_off_c, 2, 86, 127
3, 94560, Note_off_c, 2, 76, 127
3, 94560, Note_on_c, 2, 84, 127
3, 94560, Note_on_c, 2, 75, 127
3, 96000, Note_off_c, 2, 84, 127
3, 96000, Note_off_c, 2, 75, 127
3, 96000, Note_on_c, 2, 82, 127
3, 96000, Note_on_c, 2, 74, 127
3, 96480, Note_off_c, 2, 82, 127
3, 96480, Note_off_c, 2, 74, 127
3, 96480, Note_on_c, 2, 81, 127
3, 96480, Note_on_c, 2, 72, 127
3, 97440, Note_off_c, 2, 81, 127
3, 97440, Note_off_c, 2, 72, 127
3, 97440, Note_on_c, 2, 79, 127
3, 97440, Note_on_c, 2, 70, 127
3, 97920, Note_off_c, 2, 79, 127
3, 97920, Note_off_c, 2, 70, 127
3, 97920, Note_on_c, 2, 67, 127
3, 98040, Note_off_c, 2, 67, 127
3, 98040, Note_on_c, 2, 69, 127
3, 98160, Note_off_c, 2, 69, 127
3, 98160, Note_on_c, 2, 67, 127
3, 98280, Note_off_c, 2, 67, 127
3, 98280, Note_on_c, 2, 69, 127
3, 98400, Note_off_c, 2, 69, 127
3, 98400, Note_on_c, 2, 67, 127
3, 98520, Note_off_c, 2, 67, 127
3, 98520, Note_on_c, 2, 69, 127
3, 98640, Note_off_c, 2, 69, 127
3, 98640, Note_on_c, 2, 67, 127
3, 98760, Note_off_c, 2, 67, 127
3, 98760, Note_on_c, 2, 69, 127
3, 98880, Note_off_c, 2, 69, 127
3, 98880, Note_on_c, 2, 67, 127
3, 99000, Note_off_c, 2, 67, 127
3, 99000, Note_on_c, 2, 69, 127
3, 99120, Note_off_c, 2, 69, 127
3, 99120, Note_on_c, 2, 67, 127
3, 99240, Note_off_c, 2, 67, 127
3, 99240, Note_on_c, 2, 69, 127
3, 99360, Note_off_c, 2, 69, 127
3, 99360, Note_on_c, 2, 67, 127
3, 99480, Note_off_c, 2, 67, 127
3, 99480, Note_on_c, 2, 69, 127
3, 99600, Note_off_c, 2, 69, 127
3, 99600, Note_on_c, 2, 67, 127
3, 99720, Note_off_c, 2, 67, 127
3, 99720, Note_on_c, 2, 69, 127
3, 99840, Note_off_c, 2, 69, 127
3, 99840, Note_on_c, 2, 67, 127
3, 99960, Note_off_c, 2, 67, 127
3, 99960, Note_on_c, 2, 69, 127
3, 100080, Note_off_c, 2, 69, 127
3, 100080, Note_on_c, 2, 67, 127
3, 100200, Note_off_c, 2, 67, 127
3, 100200, Note_on_c, 2, 69, 127
3, 100320, Note_off_c, 2, 69, 127
3, 100320, Note_on_c, 2, 81, 127
3, 100320, Note_on_c, 2, 77, 127
3, 100320, Note_on_c, 2, 72, 127
3, 100800, Note_off_c, 2, 81, 127
3, 100800, Note_off_c, 2, 77, 127
3, 100800, Note_off_c, 2, 72, 127
3, 100800, Note_on_c, 2, 84, 127
3, 100800, Note_on_c, 2, 81, 127
3, 100800, Note_on_c, 2, 77, 127
3, 101520, Note_off_c, 2, 84, 127
3, 101520, Note_off_c, 2, 81, 127
3, 101520, Note_off_c, 2, 77, 127
3, 101520, Note_on_c, 2, 81, 127
3, 101760, Note_off_c, 2, 81, 127
3, 101760, Note_on_c, 2, 77, 127
3, 102000, Note_off_c, 2, 77, 127
3, 102000, Note_on_c, 2, 72, 127
3, 102240, Note_off_c, 2, 72, 127
3, 102240, Note_on_c, 2, 84, 127
3, 102240, Note_on_c, 2, 81, 127
3, 102240, Note_on_c, 2, 77, 127
3, 102720, Note_off_c, 2, 84, 127
3, 102720, Note_off_c, 2, 81, 127
3, 102720, Note_off_c, 2, 77, 127
3, 102720, Note_on_c, 2, 86, 127
3, 102720, Note_on_c, 2, 83, 127
3, 102720, Note_on_c, 2, 77, 127
3, 103200, Note_off_c, 2, 86, 127
3, 103200, Note_off_c, 2, 83, 127
3, 103200, Note_off_c, 2, 77, 127
3, 103200, Note_on_c, 2, 84, 127
3, 103200, Note_on_c, 2, 81, 127
3, 103200, Note_on_c, 2, 77, 127
3, 103680, Note_off_c, 2, 84, 127
3, 103680, Note_off_c, 2, 81, 127
3, 103680, Note_off_c, 2, 77, 127
3, 103680, Note_on_c, 2, 84, 127
3, 103680, Note_on_c, 2, 81, 127
3, 103680, Note_on_c, 2, 77, 127
3, 104640, Note_off_c, 2, 84, 127
3, 104640, Note_off_c, 2, 81, 127
3, 104640, Note_off_c, 2, 77, 127
3, 104640, Note_on_c, 2, 60, 127
3, 105120, Note_off_c, 2, 60, 127
3, 105120, Note_on_c, 2, 84, 127
3, 105120, Note_on_c, 2, 81, 127
3, 105120, Note_on_c, 2, 77, 127
3, 105600, Note_off_c, 2, 84, 127
3, 105600, Note_off_c, 2, 81, 127
3, 105600, Note_off_c, 2, 77, 127
3, 105600, Note_on_c, 2, 60, 127
3, 106080, Note_off_c, 2, 60, 127
3, 106080, Note_on_c, 2, 84, 127
3, 106080, Note_on_c, 2, 81, 127
3, 106080, Note_on_c, 2, 77, 127
3, 108000, Note_off_c, 2, 84, 127
3, 108000, Note_off_c, 2, 81, 127
3, 108000, Note_off_c, 2, 77, 127
3, 108000, Note_on_c, 2, 81, 127
3, 108000, Note_on_c, 2, 77, 127
3, 108000, Note_on_c, 2, 72, 127
3, 109440, Note_off_c, 2, 81, 127
3, 109440, Note_off_c, 2, 77, 127
3, 109440, Note_off_c, 2, 72, 127
3, 109440, Note_on_c, 2, 60, 127
3, 110880, Note_off_c, 2, 60, 127
3, 110880, Note_on_c, 2, 76, 127
3, 110880, Note_on_c, 2, 72, 127
3, 110880, Note_on_c, 2, 67, 127
3, 111360, Note_off_c, 2, 76, 127
3, 111360, Note_off_c, 2, 72, 127
3, 111360, Note_off_c, 2, 67, 127
3, 111360, Note_on_c, 2, 79, 127
3, 111360, Note_on_c, 2, 76, 127
3, 111360, Note_on_c, 2, 72, 127
3, 112320, Note_off_c, 2, 79, 127
3, 112320, Note_off_c, 2, 76, 127
3, 112320, Note_off_c, 2, 72, 127
3, 112320, Note_on_c, 2, 55, 127
3, 113040, Note_off_c, 2, 55, 127
3, 113040, Note_on_c, 2, 67, 127
3, 113280, Note_off_c, 2, 67, 127
3, 113280, Note_on_c, 2, 71, 127
3, 113520, Note_off_c, 2, 71, 127
3, 113520, Note_on_c, 2, 74, 127
3, 113760, Note_off_c, 2, 74, 127
3, 113760, Note_on_c, 2, 69, 127
3, 114240, Note_off_c, 2, 69, 127
3, 114240, Note_on_c, 2, 72, 127
3, 114720, Note_off_c, 2, 72, 127
3, 114720, Note_on_c, 2, 74, 127
3, 115200, Note_off_c, 2, 74, 127
3, 115200, Note_on_c, 2, 76, 127
3, 115200, Note_on_c, 2, 72, 127
3, 115200, Note_on_c, 2, 67, 127
3, 115200, Note_on_c, 2, 60, 127
3, 116160, Note_off_c, 2, 76, 127
3, 116160, Note_off_c, 2, 72, 127
3, 116160, Note_off_c, 2, 67, 127
3, 116160, Note_off_c, 2, 60, 127
3, 116160, Note_on_c, 2, 60, 127
3, 116640, Note_off_c, 2, 60, 127
3, 116640, Note_on_c, 2, 79, 127
3, 116640, Note_on_c, 2, 76, 127
3, 116640, Note_on_c, 2, 72, 127
3, 117120, Note_off_c, 2, 79, 127
3, 117120, Note_off_c, 2, 76, 127
3, 117120, Note_off_c, 2, 72, 127
3, 117120, Note_on_c, 2, 60, 127
3, 119040, Note_off_c, 2, 60, 127
3, 119040, Note_on_c, 2, 78, 127
3, 119040, Note_on_c, 2, 72, 127
3, 119520, Note_off_c, 2, 78, 127
3, 119520, Note_off_c, 2, 72, 127
3, 119520, Note_on_c, 2, 77, 127
3, 119520, Note_on_c, 2, 72, 127
3, 119520, Note_on_c, 2, 55, 127
3, 120960, Note_off_c, 2, 77, 127
3, 120960, Note_off_c, 2, 72, 127
3, 120960, Note_off_c, 2, 55, 127
3, 120960, Note_on_c, 2, 76, 127
3, 120960, Note_on_c, 2, 55, 127
3, 121680, Note_off_c, 2, 76, 127
3, 121680, Note_off_c, 2, 55, 127
3, 121680, Note_on_c, 2, 86, 127
3, 121920, Note_off_c, 2, 86, 127
3, 121920, Note_on_c, 2, 83, 127
3, 122160, Note_off_c, 2, 83, 127
3, 122160, Note_on_c, 2, 79, 127
3, 122400, Note_off_c, 2, 79, 127
3, 122400, Note_on_c, 2, 77, 127
3, 122400, Note_on_c, 2, 74, 127
3, 122400, Note_on_c, 2, 71, 127
3, 122880, Note_off_c, 2, 77, 127
3, 122880, Note_off_c, 2, 74, 127
3, 122880, Note_off_c, 2, 71, 127
3, 122880, Note_on_c, 2, 77, 127
3, 122880, Note_on_c, 2, 74, 127
3, 122880, Note_on_c, 2, 71, 127
3, 123360, Note_off_c, 2, 77, 127
3, 123360, Note_off_c, 2, 74, 127
3, 123360, Note_off_c, 2, 71, 127
3, 123360, Note_on_c, 2, 88, 127
3, 123360, Note_on_c, 2, 79, 127
3, 123840, Note_off_c, 2, 88, 127
3, 123840, Note_off_c, 2, 79, 127
3, 123840, Note_on_c, 2, 50, 127
3, 124320, Note_off_c, 2, 50, 127
3, 124320, Note_on_c, 2, 86, 127
3, 124560, Note_off_c, 2, 86, 127
3, 124560, Note_on_c, 2, 83, 127
3, 124800, Note_off_c, 2, 83, 127
3, 124800, Note_on_c, 2, 79, 127
3, 125040, Note_off_c, 2, 79, 127
3, 125040, Note_on_c, 2, 74, 127
3, 125280, Note_off_c, 2, 74, 127
3, 125280, Note_on_c, 2, 79, 127
3, 125280, Note_on_c, 2, 72, 127
3, 125760, Note_off_c, 2, 79, 127
3, 125760, Note_off_c, 2, 72, 127
3, 125760, Note_on_c, 2, 70, 127
3, 126240, Note_off_c, 2, 70, 127
3, 126240, Note_on_c, 2, 71, 127
3, 126720, Note_off_c, 2, 71, 127
3, 126720, Note_on_c, 2, 55, 127
3, 126720, Note_on_c, 2, 71, 127
3, 128160, Note_off_c, 2, 55, 127
3, 128160, Note_off_c, 2, 71, 127
3, 128160, Note_on_c, 2, 67, 127
3, 128640, Note_off_c, 2, 67, 127
3, 128640, Note_on_c, 2, 69, 127
3, 129120, Note_off_c, 2, 69, 127
3, 129120, Note_on_c, 2, 72, 127
3, 129120, Note_on_c, 2, 67, 127
3, 129600, Note_off_c, 2, 72, 127
3, 129600, Note_off_c, 2, 67, 127
3, 129600, Note_on_c, 2, 72, 127
3, 129600, Note_on_c, 2, 67, 127
3, 129600, Note_on_c, 2, 57, 127
3, 130320, Note_off_c, 2, 72, 127
3, 130320, Note_off_c, 2, 67, 127
3, 130320, Note_off_c, 2, 57, 127
3, 130320, Note_on_c, 2, 72, 127
3, 130320, Note_on_c, 2, 67, 127
3, 130560, Note_off_c, 2, 72, 127
3, 130560, Note_off_c, 2, 67, 127
3, 130560, Note_on_c, 2, 65, 127
3, 130800, Note_off_c, 2, 65, 127
3, 130800, Note_on_c, 2, 64, 127
3, 131040, Note_off_c, 2, 64, 127
3, 131040, Note_on_c, 2, 72, 127
3, 131040, Note_on_c, 2, 69, 127
3, 131040, Note_on_c, 2, 65, 127
3, 131040, Note_on_c, 2, 59, 127
3, 132000, Note_off_c, 2, 72, 127
3, 132000, Note_off_c, 2, 69, 127
3, 132000, Note_off_c, 2, 65, 127
3, 132000, Note_off_c, 2, 59, 127
3, 132000, Note_on_c, 2, 64, 127
3, 132480, Note_off_c, 2, 64, 127
3, 132480, Note_on_c, 2, 60, 127
3, 133440, Note_off_c, 2, 60, 127
3, 133440, Note_on_c, 2, 79, 127
3, 133440, Note_on_c, 2, 76, 127
3, 133440, Note_on_c, 2, 72, 127
3, 133920, Note_off_c, 2, 79, 127
3, 133920, Note_off_c, 2, 76, 127
3, 133920, Note_off_c, 2, 72, 127
3, 133920, Note_on_c, 2, 76, 127
3, 134400, Note_off_c, 2, 76, 127
3, 134400, Note_on_c, 2, 79, 127
3, 134880, Note_off_c, 2, 79, 127
3, 134880, Note_on_c, 2, 81, 127
3, 135360, Note_off_c, 2, 81, 127
3, 135360, Note_on_c, 2, 81, 127
3, 135360, Note_on_c, 2, 65, 127
3, 136320, Note_off_c, 2, 81, 127
3, 136320, Note_off_c, 2, 65, 127
3, 136320, Note_on_c, 2, 84, 127
3, 136320, Note_on_c, 2, 77, 127
3, 136800, Note_off_c, 2, 84, 127
3, 136800, Note_off_c, 2, 77, 127
3, 136800, Note_on_c, 2, 81, 127
3, 136800, Note_on_c, 2, 77, 127
3, 136800, Note_on_c, 2, 72, 127
3, 136800, Note_on_c, 2, 65, 127
3, 138240, Note_off_c, 2, 81, 127
3, 138240, Note_off_c, 2, 77, 127
3, 138240, Note_off_c, 2, 72, 127
3, 138240, Note_off_c, 2, 65, 127
3, 138240, Note_on_c, 2, 79, 127
3, 138240, Note_on_c, 2, 76, 127
3, 138240, Note_on_c, 2, 72, 127
3, 138240, Note_on_c, 2, 60, 127
3, 139680, Note_off_c, 2, 79, 127
3, 139680, Note_off_c, 2, 76, 127
3, 139680, Note_off_c, 2, 72, 127
3, 139680, Note_off_c, 2, 60, 127
3, 139680, Note_on_c, 2, 52, 127
3, 141120, Note_off_c, 2, 52, 127
3, 141120, Note_on_c, 2, 53, 127
3, 142560, Note_off_c, 2, 53, 127
3, 142560, Note_on_c, 2, 54, 127
3, 143520, Note_off_c, 2, 54, 127
3, 143520, Note_on_c, 2, 84, 127
3, 143520, Note_on_c, 2, 79, 127
3, 143520, Note_on_c, 2, 76, 127
3, 144000, Note_off_c, 2, 84, 127
3, 144000, Note_off_c, 2, 79, 127
3, 144000, Note_off_c, 2, 76, 127
3, 144000, Note_on_c, 2, 60, 127
3, 144960, Note_off_c, 2, 60, 127
3, 144960, Note_on_c, 2, 79, 127
3, 144960, Note_on_c, 2, 70, 127
3, 146880, Note_off_c, 2, 79, 127
3, 146880, Note_off_c, 2, 70, 127
3, 148320, Note_on_c, 2, 65, 127
3, 148800, Note_off_c, 2, 65, 127
3, 148800, Note_on_c, 2, 66, 127
3, 149280, Note_off_c, 2, 66, 127
3, 149280, Note_on_c, 2, 67, 127
3, 149760, Note_off_c, 2, 67, 127
3, 149760, Note_on_c, 2, 55, 127
3, 152640, Note_off_c, 2, 55, 127
3, 152640, Note_on_c, 2, 72, 127
3, 152640, Note_on_c, 2, 67, 127
3, 154080, Note_off_c, 2, 72, 127
3, 154080, Note_off_c, 2, 67, 127
3, 154080, Note_on_c, 2, 72, 127
3, 154080, Note_on_c, 2, 65, 127
3, 155520, Note_off_c, 2, 72, 127
3, 155520, Note_off_c, 2, 65, 127
3, 155520, Note_on_c, 2, 60, 127
3, 156960, Note_off_c, 2, 60, 127
3, 156960, Note_on_c, 2, 88, 127
3, 157440, Note_off_c, 2, 88, 127
3, 157440, Note_on_c, 2, 91, 127
3, 157920, Note_off_c, 2, 91, 127
3, 157920, Note_on_c, 2, 93, 127
3, 157920, Note_on_c, 2, 84, 127
3, 158400, Note_off_c, 2, 93, 127
3, 158400, Note_off_c, 2, 84, 127
3, 158400, Note_on_c, 2, 88, 127
3, 158400, Note_on_c, 2, 79, 127
3, 158400, Note_on_c, 2, 55, 127
3, 159360, Note_off_c, 2, 88, 127
3, 159360, Note_off_c, 2, 79, 127
3, 159360, Note_off_c, 2, 55, 127
3, 159360, Note_on_c, 2, 86, 127
3, 159360, Note_on_c, 2, 79, 127
3, 159840, Note_off_c, 2, 86, 127
3, 159840, Note_off_c, 2, 79, 127
3, 159840, Note_on_c, 2, 84, 127
3, 159840, Note_on_c, 2, 79, 127
3, 160800, Note_off_c, 2, 84, 127
3, 160800, Note_off_c, 2, 79, 127
3, 160800, Note_on_c, 2, 79, 127
3, 160800, Note_on_c, 2, 77, 127
3, 161280, Note_off_c, 2, 79, 127
3, 161280, Note_off_c, 2, 77, 127
3, 161280, Note_on_c, 2, 60, 127
3, 162240, Note_off_c, 2, 60, 127
3, 162240, Note_on_c, 2, 87, 127
3, 162240, Note_on_c, 2, 79, 127
3, 162720, Note_off_c, 2, 87, 127
3, 162720, Note_off_c, 2, 79, 127
3, 162720, Note_on_c, 2, 86, 127
3, 162720, Note_on_c, 2, 76, 127
3, 163680, Note_off_c, 2, 86, 127
3, 163680, Note_off_c, 2, 76, 127
3, 163680, Note_on_c, 2, 84, 127
3, 163680, Note_on_c, 2, 75, 127
3, 165120, Note_off_c, 2, 84, 127
3, 165120, Note_off_c, 2, 75, 127
3, 165120, Note_on_c, 2, 82, 127
3, 165120, Note_on_c, 2, 74, 127
3, 165600, Note_off_c, 2, 82, 127
3, 165600, Note_off_c, 2, 74, 127
3, 165600, Note_on_c, 2, 81, 127
3, 165600, Note_on_c, 2, 72, 127
3, 166560, Note_off_c, 2, 81, 127
3, 166560, Note_off_c, 2, 72, 127
3, 166560, Note_on_c, 2, 79, 127
3, 166560, Note_on_c, 2, 70, 127
3, 167040, Note_off_c, 2, 79, 127
3, 167040, Note_off_c, 2, 70, 127
3, 167040, Note_on_c, 2, 67, 127
3, 167160, Note_off_c, 2, 67, 127
3, 167160, Note_on_c, 2, 69, 127
3, 167280, Note_off_c, 2, 69, 127
3, 167280, Note_on_c, 2, 67, 127
3, 167400, Note_off_c, 2, 67, 127
3, 167400, Note_on_c, 2, 69, 127
3, 167520, Note_off_c, 2, 69, 127
3, 167520, Note_on_c, 2, 67, 127
3, 167640, Note_off_c, 2, 67, 127
3, 167640, Note_on_c, 2, 69, 127
3, 167760, Note_off_c, 2, 69, 127
3, 167760, Note_on_c, 2, 67, 127
3, 167880, Note_off_c, 2, 67, 127
3, 167880, Note_on_c, 2, 69, 127
3, 168000, Note_off_c, 2, 69, 127
3, 168000, Note_on_c, 2, 67, 127
3, 168120, Note_off_c, 2, 67, 127
3, 168120, Note_on_c, 2, 69, 127
3, 168240, Note_off_c, 2, 69, 127
3, 168240, Note_on_c, 2, 67, 127
3, 168360, Note_off_c, 2, 67, 127
3, 168360, Note_on_c, 2, 69, 127
3, 168480, Note_off_c, 2, 69, 127
3, 168480, Note_on_c, 2, 67, 127
3, 168600, Note_off_c, 2, 67, 127
3, 168600, Note_on_c, 2, 69, 127
3, 168720, Note_off_c, 2, 69, 127
3, 168720, Note_on_c, 2, 67, 127
3, 168840, Note_off_c, 2, 67, 127
3, 168840, Note_on_c, 2, 69, 127
3, 168960, Note_off_c, 2, 69, 127
3, 168960, Note_on_c, 2, 67, 127
3, 169080, Note_off_c, 2, 67, 127
3, 169080, Note_on_c, 2, 69, 127
3, 169200, Note_off_c, 2, 69, 127
3, 169200, Note_on_c, 2, 67, 127
3, 169320, Note_off_c, 2, 67, 127
3, 169320, Note_on_c, 2, 69, 127
3, 169440, Note_off_c, 2, 69, 127
3, 169440, Note_on_c, 2, 81, 127
3, 169440, Note_on_c, 2, 77, 127
3, 169440, Note_on_c, 2, 72, 127
3, 169920, Note_off_c, 2, 81, 127
3, 169920, Note_off_c, 2, 77, 127
3, 169920, Note_off_c, 2, 72, 127
3, 169920, Note_on_c, 2, 84, 127
3, 169920, Note_on_c, 2, 81, 127
3, 169920, Note_on_c, 2, 77, 127
3, 170640, Note_off_c, 2, 84, 127
3, 170640, Note_off_c, 2, 81, 127
3, 170640, Note_off_c, 2, 77, 127
3, 170640, Note_on_c, 2, 81, 127
3, 170880, Note_off_c, 2, 81, 127
3, 170880, Note_on_c, 2, 77, 127
3, 171120, Note_off_c, 2, 77, 127
3, 171120, Note_on_c, 2, 72, 127
3, 171360, Note_off_c, 2, 72, 127
3, 171360, Note_on_c, 2, 84, 127
3, 171360, Note_on_c, 2, 81, 127
3, 171360, Note_on_c, 2, 77, 127
3, 171840, Note_off_c, 2, 84, 127
3, 171840, Note_off_c, 2, 81, 127
3, 171840, Note_off_c, 2, 77, 127
3, 171840, Note_on_c, 2, 86, 127
3, 171840, Note_on_c, 2, 83, 127
3, 171840, Note_on_c, 2, 77, 127
3, 172320, Note_off_c, 2, 86, 127
3, 172320, Note_off_c, 2, 83, 127
3, 172320, Note_off_c, 2, 77, 127
3, 172320, Note_on_c, 2, 84, 127
3, 172320, Note_on_c, 2, 81, 127
3, 172320, Note_on_c, 2, 77, 127
3, 172800, Note_off_c, 2, 84, 127
3, 172800, Note_off_c, 2, 81, 127
3, 172800, Note_off_c, 2, 77, 127
3, 172800, Note_on_c, 2, 84, 127
3, 172800, Note_on_c, 2, 81, 127
3, 172800, Note_on_c, 2, 77, 127
3, 173760, Note_off_c, 2, 84, 127
3, 173760, Note_off_c, 2, 81, 127
3, 173760, Note_off_c, 2, 77, 127
3, 173760, Note_on_c, 2, 60, 127
3, 174240, Note_off_c, 2, 60, 127
3, 174240, Note_on_c, 2, 84, 127
3, 174240, Note_on_c, 2, 81, 127
3, 174240, Note_on_c, 2, 77, 127
3, 174720, Note_off_c, 2, 84, 127
3, 174720, Note_off_c, 2, 81, 127
3, 174720, Note_off_c, 2, 77, 127
3, 174720, Note_on_c, 2, 60, 127
3, 175200, Note_off_c, 2, 60, 127
3, 175200, Note_on_c, 2, 84, 127
3, 175200, Note_on_c, 2, 81, 127
3, 175200, Note_on_c, 2, 77, 127
3, 177120, Note_off_c, 2, 84, 127
3, 177120, Note_off_c, 2, 81, 127
3, 177120, Note_off_c, 2, 77, 127
3, 177120, Note_on_c, 2, 81, 127
3, 177120, Note_on_c, 2, 77, 127
3, 177120, Note_on_c, 2, 72, 127
3, 178560, Note_off_c, 2, 81, 127
3, 178560, Note_off_c, 2, 77, 127
3, 178560, Note_off_c, 2, 72, 127
3, 178560, Note_on_c, 2, 60, 127
3, 180000, Note_off_c, 2, 60, 127
3, 180000, Note_on_c, 2, 76, 127
3, 180000, Note_on_c, 2, 72, 127
3, 180000, Note_on_c, 2, 67, 127
3, 180480, Note_off_c, 2, 76, 127
3, 180480, Note_off_c, 2, 72, 127
3, 180480, Note_off_c, 2, 67, 127
3, 180480, Note_on_c, 2, 79, 127
3, 180480, Note_on_c, 2, 76, 127
3, 180480, Note_on_c, 2, 72, 127
3, 181440, Note_off_c, 2, 79, 127
3, 181440, Note_off_c, 2, 76, 127
3, 181440, Note_off_c, 2, 72, 127
3, 181440, Note_on_c, 2, 55, 127
3, 182160, Note_off_c, 2, 55, 127
3, 182160, Note_on_c, 2, 67, 127
3, 182400, Note_off_c, 2, 67, 127
3, 182400, Note_on_c, 2, 71, 127
3, 182640, Note_off_c, 2, 71, 127
3, 182640, Note_on_c, 2, 74, 127
3, 182880, Note_off_c, 2, 74, 127
3, 182880, Note_on_c, 2, 69, 127
3, 183360, Note_off_c, 2, 69, 127
3, 183360, Note_on_c, 2, 72, 127
3, 183840, Note_off_c, 2, 72, 127
3, 183840, Note_on_c, 2, 74, 127
3, 184320, Note_off_c, 2, 74, 127
3, 184320, Note_on_c, 2, 76, 127
3, 184320, Note_on_c, 2, 72, 127
3, 184320, Note_on_c, 2, 67, 127
3, 184320, Note_on_c, 2, 60, 127
3, 185280, Note_off_c, 2, 76, 127
3, 185280, Note_off_c, 2, 72, 127
3, 185280, Note_off_c, 2, 67, 127
3, 185280, Note_off_c, 2, 60, 127
3, 185280, Note_on_c, 2, 60, 127
3, 185760, Note_off_c, 2, 60, 127
3, 185760, Note_on_c, 2, 79, 127
3, 185760, Note_on_c, 2, 76, 127
3, 185760, Note_on_c, 2, 72, 127
3, 186240, Note_off_c, 2, 79, 127
3, 186240, Note_off_c, 2, 76, 127
3, 186240, Note_off_c, 2, 72, 127
3, 186240, Note_on_c, 2, 60, 127
3, 188160, Note_off_c, 2, 60, 127
3, 188160, Note_on_c, 2, 78, 127
3, 188160, Note_on_c, 2, 72, 127
3, 188640, Note_off_c, 2, 78, 127
3, 188640, Note_off_c, 2, 72, 127
3, 188640, Note_on_c, 2, 77, 127
3, 188640, Note_on_c, 2, 72, 127
3, 188640, Note_on_c, 2, 55, 127
3, 190080, Note_off_c, 2, 77, 127
3, 190080, Note_off_c, 2, 72, 127
3, 190080, Note_off_c, 2, 55, 127
3, 190080, Note_on_c, 2, 76, 127
3, 190080, Note_on_c, 2, 55, 127
3, 190800, Note_off_c, 2, 76, 127
3, 190800, Note_off_c, 2, 55, 127
3, 190800, Note_on_c, 2, 86, 127
3, 191040, Note_off_c, 2, 86, 127
3, 191040, Note_on_c, 2, 83, 127
3, 191280, Note_off_c, 2, 83, 127
3, 191280, Note_on_c, 2, 79, 127
3, 191520, Note_off_c, 2, 79, 127
3, 191520, Note_on_c, 2, 77, 127
3, 191520, Note_on_c, 2, 74, 127
3, 191520, Note_on_c, 2, 71, 127
3, 192000, Note_off_c, 2, 77, 127
3, 192000, Note_off_c, 2, 74, 127
3, 192000, Note_off_c, 2, 71, 127
3, 192000, Note_on_c, 2, 77, 127
3, 192000, Note_on_c, 2, 74, 127
3, 192000, Note_on_c, 2, 71, 127
3, 192480, Note_off_c, 2, 77, 127
3, 192480, Note_off_c, 2, 74, 127
3, 192480, Note_off_c, 2, 71, 127
3, 192480, Note_on_c, 2, 88, 127
3, 192480, Note_on_c, 2, 79, 127
3, 192960, Note_off_c, 2, 88, 127
3, 192960, Note_off_c, 2, 79, 127
3, 192960, Note_on_c, 2, 50, 127
3, 193440, Note_off_c, 2, 50, 127
3, 193440, Note_on_c, 2, 86, 127
3, 193680, Note_off_c, 2, 86, 127
3, 193680, Note_on_c, 2, 83, 127
3, 193920, Note_off_c, 2, 83, 127
3, 193920, Note_on_c, 2, 79, 127
3, 194160, Note_off_c, 2, 79, 127
3, 194160, Note_on_c, 2, 74, 127
3, 194400, Note_off_c, 2, 74, 127
3, 194400, Note_on_c, 2, 79, 127
3, 194400, Note_on_c, 2, 72, 127
3, 194880, Note_off_c, 2, 79, 127
3, 194880, Note_off_c, 2, 72, 127
3, 194880, Note_on_c, 2, 70, 127
3, 195360, Note_off_c, 2, 70, 127
3, 195360, Note_on_c, 2, 71, 127
3, 195840, Note_off_c, 2, 71, 127
3, 195840, Note_on_c, 2, 55, 127
3, 195840, Note_on_c, 2, 71, 127
3, 197280, Note_off_c, 2, 55, 127
3, 197280, Note_off_c, 2, 71, 127
3, 197280, Note_on_c, 2, 67, 127
3, 197760, Note_off_c, 2, 67, 127
3, 197760, Note_on_c, 2, 69, 127
3, 198240, Note_off_c, 2, 69, 127
3, 198240, Note_on_c, 2, 72, 127
3, 198240, Note_on_c, 2, 67, 127
3, 198720, Note_off_c, 2, 72, 127
3, 198720, Note_off_c, 2, 67, 127
3, 198720, Note_on_c, 2, 72, 127
3, 198720, Note_on_c, 2, 67, 127
3, 198720, Note_on_c, 2, 57, 127
3, 199440, Note_off_c, 2, 72, 127
3, 199440, Note_off_c, 2, 67, 127
3, 199440, Note_off_c, 2, 57, 127
3, 199440, Note_on_c, 2, 72, 127
3, 199440, Note_on_c, 2, 67, 127
3, 199680, Note_off_c, 2, 72, 127
3, 199680, Note_off_c, 2, 67, 127
3, 199680, Note_on_c, 2, 65, 127
3, 199920, Note_off_c, 2, 65, 127
3, 199920, Note_on_c, 2, 64, 127
3, 200160, Note_off_c, 2, 64, 127
3, 200160, Note_on_c, 2, 72, 127
3, 200160, Note_on_c, 2, 69, 127
3, 200160, Note_on_c, 2, 65, 127
3, 200160, Note_on_c, 2, 59, 127
3, 201120, Note_off_c, 2, 72, 127
3, 201120, Note_off_c, 2, 69, 127
3, 201120, Note_off_c, 2, 65, 127
3, 201120, Note_off_c, 2, 59, 127
3, 201120, Note_on_c, 2, 64, 127
3, 201600, Note_off_c, 2, 64, 127
3, 201600, Note_on_c, 2, 60, 127
3, 202560, Note_off_c, 2, 60, 127
3, 202560, Note_on_c, 2, 79, 127
3, 202560, Note_on_c, 2, 76, 127
3, 202560, Note_on_c, 2, 72, 127
3, 203040, Note_off_c, 2, 79, 127
3, 203040, Note_off_c, 2, 76, 127
3, 203040, Note_off_c, 2, 72, 127
3, 203040, Note_on_c, 2, 76, 127
3, 203520, Note_off_c, 2, 76, 127
3, 203520, Note_on_c, 2, 79, 127
3, 204000, Note_off_c, 2, 79, 127
3, 204000, Note_on_c, 2, 81, 127
3, 204480, Note_off_c, 2, 81, 127
3, 204480, Note_on_c, 2, 81, 127
3, 204480, Note_on_c, 2, 65, 127
3, 205440, Note_off_c, 2, 81, 127
3, 205440, Note_off_c, 2, 65, 127
3, 205440, Note_on_c, 2, 84, 127
3, 205440, Note_on_c, 2, 77, 127
3, 205920, Note_off_c, 2, 84, 127
3, 205920, Note_off_c, 2, 77, 127
3, 205920, Note_on_c, 2, 81, 127
3, 205920, Note_on_c, 2, 77, 127
3, 205920, Note_on_c, 2, 72, 127
3, 205920, Note_on_c, 2, 65, 127
3, 207360, Note_off_c, 2, 81, 127
3, 207360, Note_off_c, 2, 77, 127
3, 207360, Note_off_c, 2, 72, 127
3, 207360, Note_off_c, 2, 65, 127
3, 207360, Note_on_c, 2, 79, 127
3, 207360, Note_on_c, 2, 76, 127
3, 207360, Note_on_c, 2, 72, 127
3, 207360, Note_on_c, 2, 60, 127
3, 208320, Note_off_c, 2, 79, 127
3, 208320, Note_off_c, 2, 76, 127
3, 208320, Note_off_c, 2, 72, 127
3, 208320, Note_off_c, 2, 60, 127
3, 208320, Note_on_c, 2, 91, 127
3, 208320, Note_on_c, 2, 88, 127
3, 208320, Note_on_c, 2, 84, 127
3, 208800, Note_off_c, 2, 91, 127
3, 208800, Note_off_c, 2, 88, 127
3, 208800, Note_off_c, 2, 84, 127
3, 208800, Note_on_c, 2, 91, 127
3, 209280, Note_off_c, 2, 91, 127
3, 209280, Note_on_c, 2, 93, 127
3, 209760, Note_off_c, 2, 93, 127
3, 209760, Note_on_c, 2, 91, 127
3, 210240, Note_off_c, 2, 91, 127
3, 210240, Note_on_c, 2, 91, 127
3, 210240, Note_on_c, 2, 88, 127
3, 210720, Note_off_c, 2, 91, 127
3, 210720, Note_off_c, 2, 88, 127
3, 210720, Note_on_c, 2, 79, 127
3, 211200, Note_off_c, 2, 79, 127
3, 211200, Note_on_c, 2, 88, 127
3, 211680, Note_off_c, 2, 88, 127
3, 211680, Note_on_c, 2, 86, 127
3, 212160, Note_off_c, 2, 86, 127
3, 212160, Note_on_c, 2, 79, 127
3, 212640, Note_off_c, 2, 79, 127
3, 212640, Note_on_c, 2, 80, 127
3, 213120, Note_off_c, 2, 80, 127
3, 213120, Note_on_c, 2, 81, 127
3, 213120, Note_on_c, 2, 60, 127
3, 213600, Note_off_c, 2, 81, 127
3, 213600, Note_off_c, 2, 60, 127
3, 213600, Note_on_c, 2, 84, 127
3, 214080, Note_off_c, 2, 84, 127
3, 214080, Note_on_c, 2, 86, 127
3, 214560, Note_off_c, 2, 86, 127
3, 214560, Note_on_c, 2, 88, 127
3, 214560, Note_on_c, 2, 84, 127
3, 215040, Note_off_c, 2, 88, 127
3, 215040, Note_off_c, 2, 84, 127
3, 215040, Note_on_c, 2, 79, 127
3, 215520, Note_off_c, 2, 79, 127
3, 215520, Note_on_c, 2, 93, 127
3, 216000, Note_off_c, 2, 93, 127
3, 216000, Note_on_c, 2, 91, 127
3, 216000, Note_on_c, 2, 88, 127
3, 216480, Note_off_c, 2, 91, 127
3, 216480, Note_off_c, 2, 88, 127
3, 216480, Note_on_c, 2, 91, 127
3, 216720, Note_off_c, 2, 91, 127
3, 216720, Note_on_c, 2, 88, 127
3, 216960, Note_off_c, 2, 88, 127
3, 216960, Note_on_c, 2, 84, 127
3, 217200, Note_off_c, 2, 84, 127
3, 217200, Note_on_c, 2, 79, 127
3, 217440, Note_off_c, 2, 79, 127
3, 217440, Note_on_c, 2, 87, 127
3, 217920, Note_off_c, 2, 87, 127
3, 217920, Note_on_c, 2, 79, 127
3, 218400, Note_off_c, 2, 79, 127
3, 218400, Note_on_c, 2, 89, 127
3, 218400, Note_on_c, 2, 84, 127
3, 218400, Note_on_c, 2, 53, 127
3, 218880, Note_off_c, 2, 89, 127
3, 218880, Note_off_c, 2, 84, 127
3, 218880, Note_off_c, 2, 53, 127
3, 218880, Note_on_c, 2, 55, 127
3, 220320, Note_off_c, 2, 55, 127
3, 220320, Note_on_c, 2, 79, 127
3, 221040, Note_off_c, 2, 79, 127
3, 221040, Note_on_c, 2, 81, 127
3, 221280, Note_off_c, 2, 81, 127
3, 221280, Note_on_c, 2, 84, 127
3, 221520, Note_off_c, 2, 84, 127
3, 221520, Note_on_c, 2, 86, 127
3, 221760, Note_off_c, 2, 86, 127
3, 221760, Note_on_c, 2, 87, 127
3, 221760, Note_on_c, 2, 57, 127
3, 222000, Note_off_c, 2, 87, 127
3, 222000, Note_off_c, 2, 57, 127
3, 222000, Note_on_c, 2, 86, 127
3, 222240, Note_off_c, 2, 86, 127
3, 222240, Note_on_c, 2, 84, 127
3, 222480, Note_off_c, 2, 84, 127
3, 222480, Note_on_c, 2, 81, 127
3, 222720, Note_off_c, 2, 81, 127
3, 222720, Note_on_c, 2, 79, 127
3, 222960, Note_off_c, 2, 79, 127
3, 222960, Note_on_c, 2, 84, 127
3, 222960, Note_on_c, 2, 79, 127
3, 223200, Note_off_c, 2, 84, 127
3, 223200, Note_off_c, 2, 79, 127
3, 223200, Note_on_c, 2, 78, 127
3, 223200, Note_on_c, 2, 59, 127
3, 223440, Note_off_c, 2, 78, 127
3, 223440, Note_off_c, 2, 59, 127
3, 223440, Note_on_c, 2, 77, 127
3, 223680, Note_off_c, 2, 77, 127
3, 223680, Note_on_c, 2, 76, 127
3, 223920, Note_off_c, 2, 76, 127
3, 223920, Note_on_c, 2, 77, 127
3, 224160, Note_off_c, 2, 77, 127
3, 224160, Note_on_c, 2, 78, 127
3, 224400, Note_off_c, 2, 78, 127
3, 224400, Note_on_c, 2, 79, 127
3, 224640, Note_off_c, 2, 79, 127
3, 224640, Note_on_c, 2, 79, 127
3, 224640, Note_on_c, 2, 60, 127
3, 224880, Note_off_c, 2, 79, 127
3, 224880, Note_off_c, 2, 60, 127
3, 224880, Note_on_c, 2, 77, 127
3, 225120, Note_off_c, 2, 77, 127
3, 225240, Note_on_c, 2, 76, 127
3, 225480, Note_off_c, 2, 76, 127
3, 225480, Note_on_c, 2, 74, 127
3, 225720, Note_off_c, 2, 74, 127
3, 225720, Note_on_c, 2, 76, 127
3, 225960, Note_off_c, 2, 76, 127
3, 226080, Note_on_c, 2, 77, 127
3, 226320, Note_off_c, 2, 77, 127
3, 226320, Note_on_c, 2, 79, 127
3, 226560, Note_off_c, 2, 79, 127
3, 226680, Note_on_c, 2, 77, 127
3, 226920, Note_off_c, 2, 77, 127
3, 226920, Note_on_c, 2, 76, 127
3, 227160, Note_off_c, 2, 76, 127
3, 227160, Note_on_c, 2, 74, 127
3, 227400, Note_off_c, 2, 74, 127
3, 227520, Note_on_c, 2, 72, 127
3, 227520, Note_on_c, 2, 55, 127
3, 227760, Note_off_c, 2, 72, 127
3, 227760, Note_off_c, 2, 55, 127
3, 227760, Note_on_c, 2, 81, 127
3, 228000, Note_off_c, 2, 81, 127
3, 228000, Note_on_c, 2, 77, 127
3, 228240, Note_off_c, 2, 77, 127
3, 228240, Note_on_c, 2, 74, 127
3, 228480, Note_off_c, 2, 74, 127
3, 228480, Note_on_c, 2, 71, 127
3, 228720, Note_off_c, 2, 71, 127
3, 228720, Note_on_c, 2, 67, 127
3, 229440, Note_off_c, 2, 67, 127
3, 229440, Note_on_c, 2, 66, 127
3, 229920, Note_off_c, 2, 66, 127
3, 229920, Note_on_c, 2, 65, 127
3, 230400, Note_off_c, 2, 65, 127
3, 230400, Note_on_c, 2, 64, 127
3, 231360, Note_off_c, 2, 64, 127
3, 231360, Note_on_c, 2, 60, 127
3, 231840, Note_off_c, 2, 60, 127
3, 231840, Note_on_c, 2, 72, 127
3, 232320, Note_off_c, 2, 72, 127
3, 232320, Note_on_c, 2, 74, 127
3, 232320, Note_on_c, 2, 72, 127
3, 232800, Note_off_c, 2, 74, 127
3, 232800, Note_off_c, 2, 72, 127
3, 232800, Note_on_c, 2, 75, 127
3, 232800, Note_on_c, 2, 72, 127
3, 233280, Note_off_c, 2, 75, 127
3, 233280, Note_off_c, 2, 72, 127
3, 233280, Note_on_c, 2, 76, 127
3, 233280, Note_on_c, 2, 71, 127
3, 233280, Note_on_c, 2, 60, 127
3, 233760, Note_off_c, 2, 76, 127
3, 233760, Note_off_c, 2, 71, 127
3, 233760, Note_off_c, 2, 60, 127
3, 233760, Note_on_c, 2, 79, 127
3, 233760, Note_on_c, 2, 71, 127
3, 234240, Note_off_c, 2, 79, 127
3, 234240, Note_off_c, 2, 71, 127
3, 234240, Note_on_c, 2, 81, 127
3, 234240, Note_on_c, 2, 71, 127
3, 234720, Note_off_c, 2, 81, 127
3, 234720, Note_off_c, 2, 71, 127
3, 234720, Note_on_c, 2, 84, 127
3, 234720, Note_on_c, 2, 71, 127
3, 235200, Note_off_c, 2, 84, 127
3, 235200, Note_off_c, 2, 71, 127
3, 235200, Note_on_c, 2, 79, 127
3, 235200, Note_on_c, 2, 71, 127
3, 235680, Note_off_c, 2, 79, 127
3, 235680, Note_off_c, 2, 71, 127
3, 235680, Note_on_c, 2, 81, 127
3, 235680, Note_on_c, 2, 71, 127
3, 236160, Note_off_c, 2, 81, 127
3, 236160, Note_off_c, 2, 71, 127
3, 236160, Note_on_c, 2, 79, 127
3, 236160, Note_on_c, 2, 53, 127
3, 236280, Note_off_c, 2, 79, 127
3, 236280, Note_off_c, 2, 53, 127
3, 236280, Note_on_c, 2, 81, 127
3, 236400, Note_off_c, 2, 81, 127
3, 236400, Note_on_c, 2, 79, 127
3, 236520, Note_off_c, 2, 79, 127
3, 236520, Note_on_c, 2, 81, 127
3, 236640, Note_off_c, 2, 81, 127
3, 236640, Note_on_c, 2, 79, 127
3, 236760, Note_off_c, 2, 79, 127
3, 236760, Note_on_c, 2, 81, 127
3, 236880, Note_off_c, 2, 81, 127
3, 236880, Note_on_c, 2, 79, 127
3, 237000, Note_off_c, 2, 79, 127
3, 237000, Note_on_c, 2, 81, 127
3, 237120, Note_off_c, 2, 81, 127
3, 237120, Note_on_c, 2, 79, 127
3, 237240, Note_off_c, 2, 79, 127
3, 237240, Note_on_c, 2, 81, 127
3, 237360, Note_off_c, 2, 81, 127
3, 237360, Note_on_c, 2, 79, 127
3, 237480, Note_off_c, 2, 79, 127
3, 237480, Note_on_c, 2, 81, 127
3, 237600, Note_off_c, 2, 81, 127
3, 237600, Note_on_c, 2, 79, 127
3, 237720, Note_off_c, 2, 79, 127
3, 237720, Note_on_c, 2, 81, 127
3, 237840, Note_off_c, 2, 81, 127
3, 237840, Note_on_c, 2, 79, 127
3, 237960, Note_off_c, 2, 79, 127
3, 237960, Note_on_c, 2, 81, 127
3, 238080, Note_off_c, 2, 81, 127
3, 238080, Note_on_c, 2, 79, 127
3, 238200, Note_off_c, 2, 79, 127
3, 238200, Note_on_c, 2, 81, 127
3, 238320, Note_off_c, 2, 81, 127
3, 238320, Note_on_c, 2, 79, 127
3, 238440, Note_off_c, 2, 79, 127
3, 238440, Note_on_c, 2, 81, 127
3, 238560, Note_off_c, 2, 81, 127
3, 238560, Note_on_c, 2, 79, 127
3, 238680, Note_off_c, 2, 79, 127
3, 238680, Note_on_c, 2, 81, 127
3, 238800, Note_off_c, 2, 81, 127
3, 238800, Note_on_c, 2, 79, 127
3, 238920, Note_off_c, 2, 79, 127
3, 238920, Note_on_c, 2, 81, 127
3, 239040, Note_off_c, 2, 81, 127
3, 239040, Note_on_c, 2, 84, 127
3, 240000, Note_off_c, 2, 84, 127
3, 240000, Note_on_c, 2, 84, 127
3, 240480, Note_off_c, 2, 84, 127
3, 240480, Note_on_c, 2, 87, 127
3, 240960, Note_off_c, 2, 87, 127
3, 240960, Note_on_c, 2, 86, 127
3, 241440, Note_off_c, 2, 86, 127
3, 241440, Note_on_c, 2, 84, 127
3, 241920, Note_off_c, 2, 84, 127
3, 241920, Note_on_c, 2, 93, 127
3, 241920, Note_on_c, 2, 53, 127
3, 242880, Note_off_c, 2, 93, 127
3, 242880, Note_off_c, 2, 53, 127
3, 242880, Note_on_c, 2, 91, 127
3, 243360, Note_off_c, 2, 91, 127
3, 243360, Note_on_c, 2, 87, 127
3, 243840, Note_off_c, 2, 87, 127
3, 243840, Note_on_c, 2, 86, 127
3, 244320, Note_off_c, 2, 86, 127
3, 244320, Note_on_c, 2, 84, 127
3, 244800, Note_off_c, 2, 84, 127
3, 244800, Note_on_c, 2, 79, 127
3, 245040, Note_off_c, 2, 79, 127
3, 245040, Note_on_c, 2, 81, 127
3, 245760, Note_off_c, 2, 81, 127
3, 245760, Note_on_c, 2, 79, 127
3, 246240, Note_off_c, 2, 79, 127
3, 246240, Note_on_c, 2, 74, 127
3, 246480, Note_off_c, 2, 74, 127
3, 246480, Note_on_c, 2, 76, 127
3, 247200, Note_off_c, 2, 76, 127
3, 247200, Note_on_c, 2, 72, 127
3, 247680, Note_off_c, 2, 72, 127
3, 247680, Note_on_c, 2, 84, 127
3, 247680, Note_on_c, 2, 60, 127
3, 247920, Note_off_c, 2, 84, 127
3, 247920, Note_off_c, 2, 60, 127
3, 247920, Note_on_c, 2, 79, 127
3, 248160, Note_off_c, 2, 79, 127
3, 248160, Note_on_c, 2, 76, 127
3, 248400, Note_off_c, 2, 76, 127
3, 248400, Note_on_c, 2, 72, 127
3, 248640, Note_off_c, 2, 72, 127
3, 248640, Note_on_c, 2, 84, 127
3, 248880, Note_off_c, 2, 84, 127
3, 248880, Note_on_c, 2, 79, 127
3, 249120, Note_off_c, 2, 79, 127
3, 249120, Note_on_c, 2, 76, 127
3, 249360, Note_off_c, 2, 76, 127
3, 249360, Note_on_c, 2, 72, 127
3, 249600, Note_off_c, 2, 72, 127
3, 249600, Note_on_c, 2, 84, 127
3, 249840, Note_off_c, 2, 84, 127
3, 249840, Note_on_c, 2, 79, 127
3, 250080, Note_off_c, 2, 79, 127
3, 250080, Note_on_c, 2, 76, 127
3, 250320, Note_off_c, 2, 76, 127
3, 250320, Note_on_c, 2, 72, 127
3, 250560, Note_off_c, 2, 72, 127
3, 250560, Note_on_c, 2, 55, 127
3, 250560, Note_on_c, 2, 67, 127
3, 252000, Note_off_c, 2, 55, 127
3, 252000, Note_off_c, 2, 67, 127
3, 252000, Note_on_c, 2, 67, 127
3, 252480, Note_off_c, 2, 67, 127
3, 252480, Note_on_c, 2, 69, 127
3, 252960, Note_off_c, 2, 69, 127
3, 252960, Note_on_c, 2, 72, 127
3, 253440, Note_off_c, 2, 72, 127
3, 253440, Note_on_c, 2, 74, 127
3, 253440, Note_on_c, 2, 60, 127
3, 253920, Note_off_c, 2, 74, 127
3, 253920, Note_off_c, 2, 60, 127
3, 253920, Note_on_c, 2, 75, 127
3, 254400, Note_off_c, 2, 75, 127
3, 254400, Note_on_c, 2, 76, 127
3, 254880, Note_off_c, 2, 76, 127
3, 254880, Note_on_c, 2, 77, 127
3, 255360, Note_off_c, 2, 77, 127
3, 255360, Note_on_c, 2, 78, 127
3, 255840, Note_off_c, 2, 78, 127
3, 255840, Note_on_c, 2, 79, 127
3, 256320, Note_off_c, 2, 79, 127
3, 256320, Note_on_c, 2, 81, 127
3, 256800, Note_off_c, 2, 81, 127
3, 256800, Note_on_c, 2, 84, 127
3, 257280, Note_off_c, 2, 84, 127
3, 257280, Note_on_c, 2, 86, 127
3, 257760, Note_off_c, 2, 86, 127
3, 257760, Note_on_c, 2, 88, 127
3, 257760, Note_on_c, 2, 84, 127
3, 258240, Note_off_c, 2, 88, 127
3, 258240, Note_off_c, 2, 84, 127
3, 258240, Note_on_c, 2, 79, 127
3, 258720, Note_off_c, 2, 79, 127
3, 258720, Note_on_c, 2, 87, 127
3, 258720, Note_on_c, 2, 84, 127
3, 259200, Note_off_c, 2, 87, 127
3, 259200, Note_off_c, 2, 84, 127
3, 259200, Note_on_c, 2, 55, 127
3, 259200, Note_on_c, 2, 74, 127
3, 259320, Note_off_c, 2, 55, 127
3, 259320, Note_off_c, 2, 74, 127
3, 259320, Note_on_c, 2, 77, 127
3, 259440, Note_off_c, 2, 77, 127
3, 259440, Note_on_c, 2, 74, 127
3, 259560, Note_off_c, 2, 74, 127
3, 259560, Note_on_c, 2, 77, 127
3, 259680, Note_off_c, 2, 77, 127
3, 259680, Note_on_c, 2, 74, 127
3, 259800, Note_off_c, 2, 74, 127
3, 259800, Note_on_c, 2, 77, 127
3, 259920, Note_off_c, 2, 77, 127
3, 259920, Note_on_c, 2, 74, 127
3, 260040, Note_off_c, 2, 74, 127
3, 260040, Note_on_c, 2, 77, 127
3, 260160, Note_off_c, 2, 77, 127
3, 260160, Note_on_c, 2, 74, 127
3, 260280, Note_off_c, 2, 74, 127
3, 260280, Note_on_c, 2, 77, 127
3, 260400, Note_off_c, 2, 77, 127
3, 260400, Note_on_c, 2, 74, 127
3, 260520, Note_off_c, 2, 74, 127
3, 260520, Note_on_c, 2, 77, 127
3, 260640, Note_off_c, 2, 77, 127
3, 260640, Note_on_c, 2, 77, 127
3, 260880, Note_off_c, 2, 77, 127
3, 260880, Note_on_c, 2, 74, 127
3, 261120, Note_off_c, 2, 74, 127
3, 261240, Note_on_c, 2, 72, 127
3, 261480, Note_off_c, 2, 72, 127
3, 261480, Note_on_c, 2, 69, 127
3, 261720, Note_off_c, 2, 69, 127
3, 261720, Note_on_c, 2, 72, 127
3, 261960, Note_off_c, 2, 72, 127
3, 262080, Note_on_c, 2, 77, 127
3, 262320, Note_off_c, 2, 77, 127
3, 262320, Note_on_c, 2, 76, 127
3, 262560, Note_off_c, 2, 76, 127
3, 262680, Note_on_c, 2, 74, 127
3, 262920, Note_off_c, 2, 74, 127
3, 262920, Note_on_c, 2, 77, 127
3, 263160, Note_off_c, 2, 77, 127
3, 263160, Note_on_c, 2, 79, 127
3, 263400, Note_off_c, 2, 79, 127
3, 263520, Note_on_c, 2, 76, 127
3, 264000, Note_off_c, 2, 76, 127
3, 264000, Note_on_c, 2, 72, 127
3, 264480, Note_off_c, 2, 72, 127
3, 264480, Note_on_c, 2, 71, 127
3, 264480, Note_on_c, 2, 65, 127
3, 264960, Note_off_c, 2, 71, 127
3, 264960, Note_off_c, 2, 65, 127
3, 264960, Note_on_c, 2, 71, 127
3, 264960, Note_on_c, 2, 67, 127
3, 264960, Note_on_c, 2, 55, 127
3, 265920, Note_off_c, 2, 71, 127
3, 265920, Note_off_c, 2, 67, 127
3, 265920, Note_off_c, 2, 55, 127
3, 265920, Note_on_c, 2, 81, 127
3, 265920, Note_on_c, 2, 72, 127
3, 266400, Note_off_c, 2, 81, 127
3, 266400, Note_off_c, 2, 72, 127
3, 266400, Note_on_c, 2, 87, 127
3, 266400, Note_on_c, 2, 77, 127
3, 267360, Note_off_c, 2, 87, 127
3, 267360, Note_off_c, 2, 77, 127
3, 267360, Note_on_c, 2, 87, 127
3, 267360, Note_on_c, 2, 77, 127
3, 267840, Note_off_c, 2, 87, 127
3, 267840, Note_off_c, 2, 77, 127
3, 267840, Note_on_c, 2, 86, 127
3, 267840, Note_on_c, 2, 77, 127
3, 267840, Note_on_c, 2, 57, 127
3, 268800, Note_off_c, 2, 86, 127
3, 268800, Note_off_c, 2, 77, 127
3, 268800, Note_off_c, 2, 57, 127
3, 268800, Note_on_c, 2, 86, 127
3, 268800, Note_on_c, 2, 77, 127
3, 269280, Note_off_c, 2, 86, 127
3, 269280, Note_off_c, 2, 77, 127
3, 269280, Note_on_c, 2, 84, 127
3, 269280, Note_on_c, 2, 59, 127
3, 269520, Note_off_c, 2, 84, 127
3, 269520, Note_off_c, 2, 59, 127
3, 269520, Note_on_c, 2, 86, 127
3, 269760, Note_off_c, 2, 86, 127
3, 269760, Note_on_c, 2, 81, 127
3, 270240, Note_off_c, 2, 81, 127
3, 270240, Note_on_c, 2, 86, 127
3, 270720, Note_off_c, 2, 86, 127
3, 270720, Note_on_c, 2, 84, 127
3, 270720, Note_on_c, 2, 76, 127
3, 270720, Note_on_c, 2, 60, 127
3, 271200, Note_off_c, 2, 84, 127
3, 271200, Note_off_c, 2, 76, 127
3, 271200, Note_off_c, 2, 60, 127
3, 271200, Note_on_c, 2, 84, 127
3, 271680, Note_off_c, 2, 84, 127
3, 271680, Note_on_c, 2, 84, 127
3, 272160, Note_off_c, 2, 84, 127
3, 272160, Note_on_c, 2, 84, 127
3, 272640, Note_off_c, 2, 84, 127
3, 272640, Note_on_c, 2, 81, 127
3, 273120, Note_off_c, 2, 81, 127
3, 273120, Note_on_c, 2, 79, 127
3, 273600, Note_off_c, 2, 79, 127
3, 273600, Note_on_c, 2, 72, 127
3, 273600, Note_on_c, 2, 53, 127
3, 274080, Note_off_c, 2, 72, 127
3, 274080, Note_off_c, 2, 53, 127
3, 274080, Note_on_c, 2, 72, 127
3, 274560, Note_off_c, 2, 72, 127
3, 274560, Note_on_c, 2, 72, 127
3, 275040, Note_off_c, 2, 72, 127
3, 275040, Note_on_c, 2, 72, 127
3, 275520, Note_off_c, 2, 72, 127
3, 275520, Note_on_c, 2, 69, 127
3, 276000, Note_off_c, 2, 69, 127
3, 276000, Note_on_c, 2, 67, 127
3, 276480, Note_off_c, 2, 67, 127
3, 276480, Note_on_c, 2, 72, 127
3, 276480, Note_on_c, 2, 67, 127
3, 276480, Note_on_c, 2, 64, 127
3, 276480, Note_on_c, 2, 60, 127
3, 277920, Note_off_c, 2, 72, 127
3, 277920, Note_off_c, 2, 67, 127
3, 277920, Note_off_c, 2, 64, 127
3, 277920, Note_off_c, 2, 60, 127
3, 277920, Note_on_c, 2, 52, 127
3, 279360, Note_off_c, 2, 52, 127
3, 279360, Note_on_c, 2, 53, 127
3, 280800, Note_off_c, 2, 53, 127
3, 280800, Note_on_c, 2, 53, 127
3, 281760, Note_off_c, 2, 53, 127
3, 281760, Note_on_c, 2, 79, 127
3, 281760, Note_on_c, 2, 76, 127
3, 281760, Note_on_c, 2, 72, 127
3, 282240, Note_off_c, 2, 79, 127
3, 282240, Note_off_c, 2, 76, 127
3, 282240, Note_off_c, 2, 72, 127
3, 282240, Note_on_c, 2, 60, 127
3, 283200, Note_off_c, 2, 60, 127
3, 283200, Note_on_c, 2, 79, 127
3, 283200, Note_on_c, 2, 70, 127
3, 285120, Note_off_c, 2, 79, 127
3, 285120, Note_off_c, 2, 70, 127
3, 286560, Note_on_c, 2, 65, 127
3, 287040, Note_off_c, 2, 65, 127
3, 287040, Note_on_c, 2, 66, 127
3, 287520, Note_off_c, 2, 66, 127
3, 287520, Note_on_c, 2, 67, 127
3, 288000, Note_off_c, 2, 67, 127
3, 288000, Note_on_c, 2, 55, 127
3, 290880, Note_off_c, 2, 55, 127
3, 290880, Note_on_c, 2, 72, 127
3, 290880, Note_on_c, 2, 67, 127
3, 292320, Note_off_c, 2, 72, 127
3, 292320, Note_off_c, 2, 67, 127
3, 292320, Note_on_c, 2, 72, 127
3, 292320, Note_on_c, 2, 65, 127
3, 293760, Note_off_c, 2, 72, 127
3, 293760, Note_off_c, 2, 65, 127
3, 293760, Note_on_c, 2, 60, 127
3, 295200, Note_off_c, 2, 60, 127
3, 295200, Note_on_c, 2, 88, 127
3, 295680, Note_off_c, 2, 88, 127
3, 295680, Note_on_c, 2, 91, 127
3, 296160, Note_off_c, 2, 91, 127
3, 296160, Note_on_c, 2, 93, 127
3, 296160, Note_on_c, 2, 84, 127
3, 296640, Note_off_c, 2, 93, 127
3, 296640, Note_off_c, 2, 84, 127
3, 296640, Note_on_c, 2, 88, 127
3, 296640, Note_on_c, 2, 79, 127
3, 296640, Note_on_c, 2, 55, 127
3, 297600, Note_off_c, 2, 88, 127
3, 297600, Note_off_c, 2, 79, 127
3, 297600, Note_off_c, 2, 55, 127
3, 297600, Note_on_c, 2, 86, 127
3, 297600, Note_on_c, 2, 79, 127
3, 298080, Note_off_c, 2, 86, 127
3, 298080, Note_off_c, 2, 79, 127
3, 298080, Note_on_c, 2, 84, 127
3, 298080, Note_on_c, 2, 79, 127
3, 299040, Note_off_c, 2, 84, 127
3, 299040, Note_off_c, 2, 79, 127
3, 299040, Note_on_c, 2, 79, 127
3, 299040, Note_on_c, 2, 77, 127
3, 299520, Note_off_c, 2, 79, 127
3, 299520, Note_off_c, 2, 77, 127
3, 299520, Note_on_c, 2, 60, 127
3, 300480, Note_off_c, 2, 60, 127
3, 300480, Note_on_c, 2, 87, 127
3, 300480, Note_on_c, 2, 79, 127
3, 300960, Note_off_c, 2, 87, 127
3, 300960, Note_off_c, 2, 79, 127
3, 300960, Note_on_c, 2, 86, 127
3, 300960, Note_on_c, 2, 76, 127
3, 301920, Note_off_c, 2, 86, 127
3, 301920, Note_off_c, 2, 76, 127
3, 301920, Note_on_c, 2, 84, 127
3, 301920, Note_on_c, 2, 75, 127
3, 303360, Note_off_c, 2, 84, 127
3, 303360, Note_off_c, 2, 75, 127
3, 303360, Note_on_c, 2, 82, 127
3, 303360, Note_on_c, 2, 74, 127
3, 303840, Note_off_c, 2, 82, 127
3, 303840, Note_off_c, 2, 74, 127
3, 303840, Note_on_c, 2, 81, 127
3, 303840, Note_on_c, 2, 72, 127
3, 304800, Note_off_c, 2, 81, 127
3, 304800, Note_off_c, 2, 72, 127
3, 304800, Note_on_c, 2, 79, 127
3, 304800, Note_on_c, 2, 70, 127
3, 305280, Note_off_c, 2, 79, 127
3, 305280, Note_off_c, 2, 70, 127
3, 305280, Note_on_c, 2, 67, 127
3, 305400, Note_off_c, 2, 67, 127
3, 305400, Note_on_c, 2, 69, 127
3, 305520, Note_off_c, 2, 69, 127
3, 305520, Note_on_c, 2, 67, 127
3, 305640, Note_off_c, 2, 67, 127
3, 305640, Note_on_c, 2, 69, 127
3, 305760, Note_off_c, 2, 69, 127
3, 305760, Note_on_c, 2, 67, 127
3, 305880, Note_off_c, 2, 67, 127
3, 305880, Note_on_c, 2, 69, 127
3, 306000, Note_off_c, 2, 69, 127
3, 306000, Note_on_c, 2, 67, 127
3, 306120, Note_off_c, 2, 67, 127
3, 306120, Note_on_c, 2, 69, 127
3, 306240, Note_off_c, 2, 69, 127
3, 306240, Note_on_c, 2, 67, 127
3, 306360, Note_off_c, 2, 67, 127
3, 306360, Note_on_c, 2, 69, 127
3, 306480, Note_off_c, 2, 69, 127
3, 306480, Note_on_c, 2, 67, 127
3, 306600, Note_off_c, 2, 67, 127
3, 306600, Note_on_c, 2, 69, 127
3, 306720, Note_off_c, 2, 69, 127
3, 306720, Note_on_c, 2, 67, 127
3, 306840, Note_off_c, 2, 67, 127
3, 306840, Note_on_c, 2, 69, 127
3, 306960, Note_off_c, 2, 69, 127
3, 306960, Note_on_c, 2, 67, 127
3, 307080, Note_off_c, 2, 67, 127
3, 307080, Note_on_c, 2, 69, 127
3, 307200, Note_off_c, 2, 69, 127
3, 307200, Note_on_c, 2, 67, 127
3, 307320, Note_off_c, 2, 67, 127
3, 307320, Note_on_c, 2, 69, 127
3, 307440, Note_off_c, 2, 69, 127
3, 307440, Note_on_c, 2, 67, 127
3, 307560, Note_off_c, 2, 67, 127
3, 307560, Note_on_c, 2, 69, 127
3, 307680, Note_off_c, 2, 69, 127
3, 307680, Note_on_c, 2, 81, 127
3, 307680, Note_on_c, 2, 77, 127
3, 307680, Note_on_c, 2, 72, 127
3, 308160, Note_off_c, 2, 81, 127
3, 308160, Note_off_c, 2, 77, 127
3, 308160, Note_off_c, 2, 72, 127
3, 308160, Note_on_c, 2, 84, 127
3, 308160, Note_on_c, 2, 81, 127
3, 308160, Note_on_c, 2, 77, 127
3, 308880, Note_off_c, 2, 84, 127
3, 308880, Note_off_c, 2, 81, 127
3, 308880, Note_off_c, 2, 77, 127
3, 308880, Note_on_c, 2, 81, 127
3, 309120, Note_off_c, 2, 81, 127
3, 309120, Note_on_c, 2, 77, 127
3, 309360, Note_off_c, 2, 77, 127
3, 309360, Note_on_c, 2, 72, 127
3, 309600, Note_off_c, 2, 72, 127
3, 309600, Note_on_c, 2, 84, 127
3, 309600, Note_on_c, 2, 81, 127
3, 309600, Note_on_c, 2, 77, 127
3, 310080, Note_off_c, 2, 84, 127
3, 310080, Note_off_c, 2, 81, 127
3, 310080, Note_off_c, 2, 77, 127
3, 310080, Note_on_c, 2, 86, 127
3, 310080, Note_on_c, 2, 83, 127
3, 310080, Note_on_c, 2, 77, 127
3, 310560, Note_off_c, 2, 86, 127
3, 310560, Note_off_c, 2, 83, 127
3, 310560, Note_off_c, 2, 77, 127
3, 310560, Note_on_c, 2, 84, 127
3, 310560, Note_on_c, 2, 81, 127
3, 310560, Note_on_c, 2, 77, 127
3, 311040, Note_off_c, 2, 84, 127
3, 311040, Note_off_c, 2, 81, 127
3, 311040, Note_off_c, 2, 77, 127
3, 311040, Note_on_c, 2, 84, 127
3, 311040, Note_on_c, 2, 81, 127
3, 311040, Note_on_c, 2, 77, 127
3, 312000, Note_off_c, 2, 84, 127
3, 312000, Note_off_c, 2, 81, 127
3, 312000, Note_off_c, 2, 77, 127
3, 312000, Note_on_c, 2, 60, 127
3, 312480, Note_off_c, 2, 60, 127
3, 312480, Note_on_c, 2, 84, 127
3, 312480, Note_on_c, 2, 81, 127
3, 312480, Note_on_c, 2, 77, 127
3, 312960, Note_off_c, 2, 84, 127
3, 312960, Note_off_c, 2, 81, 127
3, 312960, Note_off_c, 2, 77, 127
3, 312960, Note_on_c, 2, 60, 127
3, 313440, Note_off_c, 2, 60, 127
3, 313440, Note_on_c, 2, 84, 127
3, 313440, Note_on_c, 2, 81, 127
3, 313440, Note_on_c, 2, 77, 127
3, 315360, Note_off_c, 2, 84, 127
3, 315360, Note_off_c, 2, 81, 127
3, 315360, Note_off_c, 2, 77, 127
3, 315360, Note_on_c, 2, 81, 127
3, 315360, Note_on_c, 2, 77, 127
3, 315360, Note_on_c, 2, 72, 127
3, 316800, Note_off_c, 2, 81, 127
3, 316800, Note_off_c, 2, 77, 127
3, 316800, Note_off_c, 2, 72, 127
3, 316800, Note_on_c, 2, 60, 127
3, 318240, Note_off_c, 2, 60, 127
3, 318240, Note_on_c, 2, 76, 127
3, 318240, Note_on_c, 2, 72, 127
3, 318240, Note_on_c, 2, 67, 127
3, 318720, Note_off_c, 2, 76, 127
3, 318720, Note_off_c, 2, 72, 127
3, 318720, Note_off_c, 2, 67, 127
3, 318720, Note_on_c, 2, 79, 127
3, 318720, Note_on_c, 2, 76, 127
3, 318720, Note_on_c, 2, 72, 127
3, 319680, Note_off_c, 2, 79, 127
3, 319680, Note_off_c, 2, 76, 127
3, 319680, Note_off_c, 2, 72, 127
3, 319680, Note_on_c, 2, 55, 127
3, 320400, Note_off_c, 2, 55, 127
3, 320400, Note_on_c, 2, 67, 127
3, 320640, Note_off_c, 2, 67, 127
3, 320640, Note_on_c, 2, 71, 127
3, 320880, Note_off_c, 2, 71, 127
3, 320880, Note_on_c, 2, 74, 127
3, 321120, Note_off_c, 2, 74, 127
3, 321120, Note_on_c, 2, 69, 127
3, 321600, Note_off_c, 2, 69, 127
3, 321600, Note_on_c, 2, 72, 127
3, 322080, Note_off_c, 2, 72, 127
3, 322080, Note_on_c, 2, 74, 127
3, 322560, Note_off_c, 2, 74, 127
3, 322560, Note_on_c, 2, 76, 127
3, 322560, Note_on_c, 2, 72, 127
3, 322560, Note_on_c, 2, 67, 127
3, 322560, Note_on_c, 2, 60, 127
3, 323520, Note_off_c, 2, 76, 127
3, 323520, Note_off_c, 2, 72, 127
3, 323520, Note_off_c, 2, 67, 127
3, 323520, Note_off_c, 2, 60, 127
3, 323520, Note_on_c, 2, 60, 127
3, 324000, Note_off_c, 2, 60, 127
3, 324000, Note_on_c, 2, 79, 127
3, 324000, Note_on_c, 2, 76, 127
3, 324000, Note_on_c, 2, 72, 127
3, 324480, Note_off_c, 2, 79, 127
3, 324480, Note_off_c, 2, 76, 127
3, 324480, Note_off_c, 2, 72, 127
3, 324480, Note_on_c, 2, 60, 127
3, 326400, Note_off_c, 2, 60, 127
3, 326400, Note_on_c, 2, 78, 127
3, 326400, Note_on_c, 2, 72, 127
3, 326880, Note_off_c, 2, 78, 127
3, 326880, Note_off_c, 2, 72, 127
3, 326880, Note_on_c, 2, 77, 127
3, 326880, Note_on_c, 2, 72, 127
3, 326880, Note_on_c, 2, 55, 127
3, 328320, Note_off_c, 2, 77, 127
3, 328320, Note_off_c, 2, 72, 127
3, 328320, Note_off_c, 2, 55, 127
3, 328320, Note_on_c, 2, 76, 127
3, 328320, Note_on_c, 2, 55, 127
3, 329040, Note_off_c, 2, 76, 127
3, 329040, Note_off_c, 2, 55, 127
3, 329040, Note_on_c, 2, 86, 127
3, 329280, Note_off_c, 2, 86, 127
3, 329280, Note_on_c, 2, 83, 127
3, 329520, Note_off_c, 2, 83, 127
3, 329520, Note_on_c, 2, 79, 127
3, 329760, Note_off_c, 2, 79, 127
3, 329760, Note_on_c, 2, 77, 127
3, 329760, Note_on_c, 2, 74, 127
3, 329760, Note_on_c, 2, 71, 127
3, 330240, Note_off_c, 2, 77, 127
3, 330240, Note_off_c, 2, 74, 127
3, 330240, Note_off_c, 2, 71, 127
3, 330240, Note_on_c, 2, 77, 127
3, 330240, Note_on_c, 2, 74, 127
3, 330240, Note_on_c, 2, 71, 127
3, 330720, Note_off_c, 2, 77, 127
3, 330720, Note_off_c, 2, 74, 127
3, 330720, Note_off_c, 2, 71, 127
3, 330720, Note_on_c, 2, 88, 127
3, 330720, Note_on_c, 2, 79, 127
3, 331200, Note_off_c, 2, 88, 127
3, 331200, Note_off_c, 2, 79, 127
3, 331200, Note_on_c, 2, 50, 127
3, 331680, Note_off_c, 2, 50, 127
3, 331680, Note_on_c, 2, 86, 127
3, 331920, Note_off_c, 2, 86, 127
3, 331920, Note_on_c, 2, 83, 127
3, 332160, Note_off_c, 2, 83, 127
3, 332160, Note_on_c, 2, 79, 127
3, 332400, Note_off_c, 2, 79, 127
3, 332400, Note_on_c, 2, 74, 127
3, 332640, Note_off_c, 2, 74, 127
3, 332640, Note_on_c, 2, 79, 127
3, 332640, Note_on_c, 2, 72, 127
3, 333120, Note_off_c, 2, 79, 127
3, 333120, Note_off_c, 2, 72, 127
3, 333120, Note_on_c, 2, 70, 127
3, 333600, Note_off_c, 2, 70, 127
3, 333600, Note_on_c, 2, 71, 127
3, 334080, Note_off_c, 2, 71, 127
3, 334080, Note_on_c, 2, 55, 127
3, 334080, Note_on_c, 2, 71, 127
3, 335520, Note_off_c, 2, 55, 127
3, 335520, Note_off_c, 2, 71, 127
3, 335520, Note_on_c, 2, 67, 127
3, 336000, Note_off_c, 2, 67, 127
3, 336000, Note_on_c, 2, 69, 127
3, 336480, Note_off_c, 2, 69, 127
3, 336480, Note_on_c, 2, 72, 127
3, 336480, Note_on_c, 2, 67, 127
3, 336960, Note_off_c, 2, 72, 127
3, 336960, Note_off_c, 2, 67, 127
3, 336960, Note_on_c, 2, 72, 127
3, 336960, Note_on_c, 2, 67, 127
3, 336960, Note_on_c, 2, 57, 127
3, 337680, Note_off_c, 2, 72, 127
3, 337680, Note_off_c, 2, 67, 127
3, 337680, Note_off_c, 2, 57, 127
3, 337680, Note_on_c, 2, 72, 127
3, 337680, Note_on_c, 2, 67, 127
3, 337920, Note_off_c, 2, 72, 127
3, 337920, Note_off_c, 2, 67, 127
3, 337920, Note_on_c, 2, 65, 127
3, 338160, Note_off_c, 2, 65, 127
3, 338160, Note_on_c, 2, 64, 127
3, 338400, Note_off_c, 2, 64, 127
3, 338400, Note_on_c, 2, 72, 127
3, 338400, Note_on_c, 2, 69, 127
3, 338400, Note_on_c, 2, 65, 127
3, 338400, Note_on_c, 2, 59, 127
3, 339360, Note_off_c, 2, 72, 127
3, 339360, Note_off_c, 2, 69, 127
3, 339360, Note_off_c, 2, 65, 127
3, 339360, Note_off_c, 2, 59, 127
3, 339360, Note_on_c, 2, 64, 127
3, 339840, Note_off_c, 2, 64, 127
3, 339840, Note_on_c, 2, 60, 127
3, 340800, Note_off_c, 2, 60, 127
3, 340800, Note_on_c, 2, 79, 127
3, 340800, Note_on_c, 2, 76, 127
3, 340800, Note_on_c, 2, 72, 127
3, 341280, Note_off_c, 2, 79, 127
3, 341280, Note_off_c, 2, 76, 127
3, 341280, Note_off_c, 2, 72, 127
3, 341280, Note_on_c, 2, 76, 127
3, 341760, Note_off_c, 2, 76, 127
3, 341760, Note_on_c, 2, 79, 127
3, 342240, Note_off_c, 2, 79, 127
3, 342240, Note_on_c, 2, 81, 127
3, 342720, Note_off_c, 2, 81, 127
3, 342720, Note_on_c, 2, 81, 127
3, 342720, Note_on_c, 2, 65, 127
3, 343680, Note_off_c, 2, 81, 127
3, 343680, Note_off_c, 2, 65, 127
3, 343680, Note_on_c, 2, 84, 127
3, 343680, Note_on_c, 2, 77, 127
3, 344160, Note_off_c, 2, 84, 127
3, 344160, Note_off_c, 2, 77, 127
3, 344160, Note_on_c, 2, 81, 127
3, 344160, Note_on_c, 2, 77, 127
3, 344160, Note_on_c, 2, 72, 127
3, 344160, Note_on_c, 2, 65, 127
3, 345600, Note_off_c, 2, 81, 127
3, 345600, Note_off_c, 2, 77, 127
3, 345600, Note_off_c, 2, 72, 127
3, 345600, Note_off_c, 2, 65, 127
3, 345600, Note_on_c, 2, 79, 127
3, 345600, Note_on_c, 2, 76, 127
3, 345600, Note_on_c, 2, 72, 127
3, 345600, Note_on_c, 2, 60, 127
3, 347040, Note_off_c, 2, 79, 127
3, 347040, Note_off_c, 2, 76, 127
3, 347040, Note_off_c, 2, 72, 127
3, 347040, Note_off_c, 2, 60, 127
3, 347040, Note_on_c, 2, 52, 127
3, 348480, Note_off_c, 2, 52, 127
3, 348480, Note_on_c, 2, 53, 127
3, 349920, Note_off_c, 2, 53, 127
3, 349920, Note_on_c, 2, 54, 127
3, 350880, Note_off_c, 2, 54, 127
3, 350880, Note_on_c, 2, 84, 127
3, 350880, Note_on_c, 2, 79, 127
3, 350880, Note_on_c, 2, 76, 127
3, 351360, Note_off_c, 2, 84, 127
3, 351360, Note_off_c, 2, 79, 127
3, 351360, Note_off_c, 2, 76, 127
3, 351360, Note_on_c, 2, 60, 127
3, 352320, Note_off_c, 2, 60, 127
3, 352320, Note_on_c, 2, 79, 127
3, 352320, Note_on_c, 2, 70, 127
3, 354240, Note_off_c, 2, 79, 127
3, 354240, Note_off_c, 2, 70, 127
3, 355680, Note_on_c, 2, 65, 127
3, 356160, Note_off_c, 2, 65, 127
3, 356160, Note_on_c, 2, 66, 127
3, 356640, Note_off_c, 2, 66, 127
3, 356640, Note_on_c, 2, 67, 127
3, 357120, Note_off_c, 2, 67, 127
3, 357120, Note_on_c, 2, 55, 127
3, 360000, Note_off_c, 2, 55, 127
3, 360000, Note_on_c, 2, 72, 127
3, 360000, Note_on_c, 2, 67, 127
3, 361440, Note_off_c, 2, 72, 127
3, 361440, Note_off_c, 2, 67, 127
3, 361440, Note_on_c, 2, 72, 127
3, 361440, Note_on_c, 2, 65, 127
3, 362880, Note_off_c, 2, 72, 127
3, 362880, Note_off_c, 2, 65, 127
3, 362880, Note_on_c, 2, 60, 127
3, 364320, Note_off_c, 2, 60, 127
3, 364320, Note_on_c, 2, 88, 127
3, 364800, Note_off_c, 2, 88, 127
3, 364800, Note_on_c, 2, 91, 127
3, 365280, Note_off_c, 2, 91, 127
3, 365280, Note_on_c, 2, 93, 127
3, 365280, Note_on_c, 2, 84, 127
3, 365760, Note_off_c, 2, 93, 127
3, 365760, Note_off_c, 2, 84, 127
3, 365760, Note_on_c, 2, 88, 127
3, 365760, Note_on_c, 2, 79, 127
3, 365760, Note_on_c, 2, 55, 127
3, 366720, Note_off_c, 2, 88, 127
3, 366720, Note_off_c, 2, 79, 127
3, 366720, Note_off_c, 2, 55, 127
3, 366720, Note_on_c, 2, 86, 127
3, 366720, Note_on_c, 2, 79, 127
3, 367200, Note_off_c, 2, 86, 127
3, 367200, Note_off_c, 2, 79, 127
3, 367200, Note_on_c, 2, 84, 127
3, 367200, Note_on_c, 2, 79, 127
3, 368160, Note_off_c, 2, 84, 127
3, 368160, Note_off_c, 2, 79, 127
3, 368160, Note_on_c, 2, 79, 127
3, 368160, Note_on_c, 2, 77, 127
3, 368640, Note_off_c, 2, 79, 127
3, 368640, Note_off_c, 2, 77, 127
3, 368640, Note_on_c, 2, 60, 127
3, 369600, Note_off_c, 2, 60, 127
3, 369600, Note_on_c, 2, 87, 127
3, 369600, Note_on_c, 2, 79, 127
3, 370080, Note_off_c, 2, 87, 127
3, 370080, Note_off_c, 2, 79, 127
3, 370080, Note_on_c, 2, 86, 127
3, 370080, Note_on_c, 2, 76, 127
3, 371040, Note_off_c, 2, 86, 127
3, 371040, Note_off_c, 2, 76, 127
3, 371040, Note_on_c, 2, 84, 127
3, 371040, Note_on_c, 2, 75, 127
3, 372480, Note_off_c, 2, 84, 127
3, 372480, Note_off_c, 2, 75, 127
3, 372480, Note_on_c, 2, 82, 127
3, 372480, Note_on_c, 2, 74, 127
3, 372960, Note_off_c, 2, 82, 127
3, 372960, Note_off_c, 2, 74, 127
3, 372960, Note_on_c, 2, 81, 127
3, 372960, Note_on_c, 2, 72, 127
3, 373920, Note_off_c, 2, 81, 127
3, 373920, Note_off_c, 2, 72, 127
3, 373920, Note_on_c, 2, 79, 127
3, 373920, Note_on_c, 2, 70, 127
3, 374400, Note_off_c, 2, 79, 127
3, 374400, Note_off_c, 2, 70, 127
3, 374400, Note_on_c, 2, 67, 127
3, 374520, Note_off_c, 2, 67, 127
3, 374520, Note_on_c, 2, 69, 127
3, 374640, Note_off_c, 2, 69, 127
3, 374640, Note_on_c, 2, 67, 127
3, 374760, Note_off_c, 2, 67, 127
3, 374760, Note_on_c, 2, 69, 127
3, 374880, Note_off_c, 2, 69, 127
3, 374880, Note_on_c, 2, 67, 127
3, 375000, Note_off_c, 2, 67, 127
3, 375000, Note_on_c, 2, 69, 127
3, 375120, Note_off_c, 2, 69, 127
3, 375120, Note_on_c, 2, 67, 127
3, 375240, Note_off_c, 2, 67, 127
3, 375240, Note_on_c, 2, 69, 127
3, 375360, Note_off_c, 2, 69, 127
3, 375360, Note_on_c, 2, 67, 127
3, 375480, Note_off_c, 2, 67, 127
3, 375480, Note_on_c, 2, 69, 127
3, 375600, Note_off_c, 2, 69, 127
3, 375600, Note_on_c, 2, 67, 127
3, 375720, Note_off_c, 2, 67, 127
3, 375720, Note_on_c, 2, 69, 127
3, 375840, Note_off_c, 2, 69, 127
3, 375840, Note_on_c, 2, 67, 127
3, 375960, Note_off_c, 2, 67, 127
3, 375960, Note_on_c, 2, 69, 127
3, 376080, Note_off_c, 2, 69, 127
3, 376080, Note_on_c, 2, 67, 127
3, 376200, Note_off_c, 2, 67, 127
3, 376200, Note_on_c, 2, 69, 127
3, 376320, Note_off_c, 2, 69, 127
3, 376320, Note_on_c, 2, 67, 127
3, 376440, Note_off_c, 2, 67, 127
3, 376440, Note_on_c, 2, 69, 127
3, 376560, Note_off_c, 2, 69, 127
3, 376560, Note_on_c, 2, 67, 127
3, 376680, Note_off_c, 2, 67, 127
3, 376680, Note_on_c, 2, 69, 127
3, 376800, Note_off_c, 2, 69, 127
3, 376800, Note_on_c, 2, 81, 127
3, 376800, Note_on_c, 2, 77, 127
3, 376800, Note_on_c, 2, 72, 127
3, 377280, Note_off_c, 2, 81, 127
3, 377280, Note_off_c, 2, 77, 127
3, 377280, Note_off_c, 2, 72, 127
3, 377280, Note_on_c, 2, 84, 127
3, 377280, Note_on_c, 2, 81, 127
3, 377280, Note_on_c, 2, 77, 127
3, 378000, Note_off_c, 2, 84, 127
3, 378000, Note_off_c, 2, 81, 127
3, 378000, Note_off_c, 2, 77, 127
3, 378000, Note_on_c, 2, 81, 127
3, 378240, Note_off_c, 2, 81, 127
3, 378240, Note_on_c, 2, 77, 127
3, 378480, Note_off_c, 2, 77, 127
3, 378480, Note_on_c, 2, 72, 127
3, 378720, Note_off_c, 2, 72, 127
3, 378720, Note_on_c, 2, 84, 127
3, 378720, Note_on_c, 2, 81, 127
3, 378720, Note_on_c, 2, 77, 127
3, 379200, Note_off_c, 2, 84, 127
3, 379200, Note_off_c, 2, 81, 127
3, 379200, Note_off_c, 2, 77, 127
3, 379200, Note_on_c, 2, 86, 127
3, 379200, Note_on_c, 2, 83, 127
3, 379200, Note_on_c, 2, 77, 127
3, 379680, Note_off_c, 2, 86, 127
3, 379680, Note_off_c, 2, 83, 127
3, 379680, Note_off_c, 2, 77, 127
3, 379680, Note_on_c, 2, 84, 127
3, 379680, Note_on_c, 2, 81, 127
3, 379680, Note_on_c, 2, 77, 127
3, 380160, Note_off_c, 2, 84, 127
3, 380160, Note_off_c, 2, 81, 127
3, 380160, Note_off_c, 2, 77, 127
3, 380160, Note_on_c, 2, 84, 127
3, 380160, Note_on_c, 2, 81, 127
3, 380160, Note_on_c, 2, 77, 127
3, 381120, Note_off_c, 2, 84, 127
3, 381120, Note_off_c, 2, 81, 127
3, 381120, Note_off_c, 2, 77, 127
3, 381120, Note_on_c, 2, 60, 127
3, 381600, Note_off_c, 2, 60, 127
3, 381600, Note_on_c, 2, 84, 127
3, 381600, Note_on_c, 2, 81, 127
3, 381600, Note_on_c, 2, 77, 127
3, 382080, Note_off_c, 2, 84, 127
3, 382080, Note_off_c, 2, 81, 127
3, 382080, Note_off_c, 2, 77, 127
3, 382080, Note_on_c, 2, 60, 127
3, 382560, Note_off_c, 2, 60, 127
3, 382560, Note_on_c, 2, 84, 127
3, 382560, Note_on_c, 2, 81, 127
3, 382560, Note_on_c, 2, 77, 127
3, 384480, Note_off_c, 2, 84, 127
3, 384480, Note_off_c, 2, 81, 127
3, 384480, Note_off_c, 2, 77, 127
3, 384480, Note_on_c, 2, 81, 127
3, 384480, Note_on_c, 2, 77, 127
3, 384480, Note_on_c, 2, 72, 127
3, 385920, Note_off_c, 2, 81, 127
3, 385920, Note_off_c, 2, 77, 127
3, 385920, Note_off_c, 2, 72, 127
3, 385920, Note_on_c, 2, 60, 127
3, 387360, Note_off_c, 2, 60, 127
3, 387360, Note_on_c, 2, 76, 127
3, 387360, Note_on_c, 2, 72, 127
3, 387360, Note_on_c, 2, 67, 127
3, 387840, Note_off_c, 2, 76, 127
3, 387840, Note_off_c, 2, 72, 127
3, 387840, Note_off_c, 2, 67, 127
3, 387840, Note_on_c, 2, 79, 127
3, 387840, Note_on_c, 2, 76, 127
3, 387840, Note_on_c, 2, 72, 127
3, 388800, Note_off_c, 2, 79, 127
3, 388800, Note_off_c, 2, 76, 127
3, 388800, Note_off_c, 2, 72, 127
3, 388800, Note_on_c, 2, 55, 127
3, 389520, Note_off_c, 2, 55, 127
3, 389520, Note_on_c, 2, 67, 127
3, 389760, Note_off_c, 2, 67, 127
3, 389760, Note_on_c, 2, 71, 127
3, 390000, Note_off_c, 2, 71, 127
3, 390000, Note_on_c, 2, 74, 127
3, 390240, Note_off_c, 2, 74, 127
3, 390240, Note_on_c, 2, 69, 127
3, 390720, Note_off_c, 2, 69, 127
3, 390720, Note_on_c, 2, 72, 127
3, 391200, Note_off_c, 2, 72, 127
3, 391200, Note_on_c, 2, 74, 127
3, 391680, Note_off_c, 2, 74, 127
3, 391680, Note_on_c, 2, 76, 127
3, 391680, Note_on_c, 2, 72, 127
3, 391680, Note_on_c, 2, 67, 127
3, 391680, Note_on_c, 2, 60, 127
3, 392640, Note_off_c, 2, 76, 127
3, 392640, Note_off_c, 2, 72, 127
3, 392640, Note_off_c, 2, 67, 127
3, 392640, Note_off_c, 2, 60, 127
3, 392640, Note_on_c, 2, 60, 127
3, 393120, Note_off_c, 2, 60, 127
3, 393120, Note_on_c, 2, 79, 127
3, 393120, Note_on_c, 2, 76, 127
3, 393120, Note_on_c, 2, 72, 127
3, 393600, Note_off_c, 2, 79, 127
3, 393600, Note_off_c, 2, 76, 127
3, 393600, Note_off_c, 2, 72, 127
3, 393600, Note_on_c, 2, 60, 127
3, 395520, Note_off_c, 2, 60, 127
3, 395520, Note_on_c, 2, 78, 127
3, 395520, Note_on_c, 2, 72, 127
3, 396000, Note_off_c, 2, 78, 127
3, 396000, Note_off_c, 2, 72, 127
3, 396000, Note_on_c, 2, 77, 127
3, 396000, Note_on_c, 2, 72, 127
3, 396000, Note_on_c, 2, 55, 127
3, 397440, Note_off_c, 2, 77, 127
3, 397440, Note_off_c, 2, 72, 127
3, 397440, Note_off_c, 2, 55, 127
3, 397440, Note_on_c, 2, 76, 127
3, 397440, Note_on_c, 2, 55, 127
3, 398160, Note_off_c, 2, 76, 127
3, 398160, Note_off_c, 2, 55, 127
3, 398160, Note_on_c, 2, 86, 127
3, 398400, Note_off_c, 2, 86, 127
3, 398400, Note_on_c, 2, 83, 127
3, 398640, Note_off_c, 2, 83, 127
3, 398640, Note_on_c, 2, 79, 127
3, 398880, Note_off_c, 2, 79, 127
3, 398880, Note_on_c, 2, 77, 127
3, 398880, Note_on_c, 2, 74, 127
3, 398880, Note_on_c, 2, 71, 127
3, 399360, Note_off_c, 2, 77, 127
3, 399360, Note_off_c, 2, 74, 127
3, 399360, Note_off_c, 2, 71, 127
3, 399360, Note_on_c, 2, 77, 127
3, 399360, Note_on_c, 2, 74, 127
3, 399360, Note_on_c, 2, 71, 127
3, 399840, Note_off_c, 2, 77, 127
3, 399840, Note_off_c, 2, 74, 127
3, 399840, Note_off_c, 2, 71, 127
3, 399840, Note_on_c, 2, 88, 127
3, 399840, Note_on_c, 2, 79, 127
3, 400320, Note_off_c, 2, 88, 127
3, 400320, Note_off_c, 2, 79, 127
3, 400320, Note_on_c, 2, 50, 127
3, 400800, Note_off_c, 2, 50, 127
3, 400800, Note_on_c, 2, 86, 127
3, 401040, Note_off_c, 2, 86, 127
3, 401040, Note_on_c, 2, 83, 127
3, 401280, Note_off_c, 2, 83, 127
3, 401280, Note_on_c, 2, 79, 127
3, 401520, Note_off_c, 2, 79, 127
3, 401520, Note_on_c, 2, 74, 127
3, 401760, Note_off_c, 2, 74, 127
3, 401760, Note_on_c, 2, 79, 127
3, 401760, Note_on_c, 2, 72, 127
3, 402240, Note_off_c, 2, 79, 127
3, 402240, Note_off_c, 2, 72, 127
3, 402240, Note_on_c, 2, 70, 127
3, 402720, Note_off_c, 2, 70, 127
3, 402720, Note_on_c, 2, 71, 127
3, 403200, Note_off_c, 2, 71, 127
3, 403200, Note_on_c, 2, 60, 127
3, 404160, Note_off_c, 2, 60, 127
3, 404160, Note_on_c, 2, 79, 127
3, 404160, Note_on_c, 2, 76, 127
3, 404160, Note_on_c, 2, 72, 127
3, 404640, Note_off_c, 2, 79, 127
3, 404640, Note_off_c, 2, 76, 127
3, 404640, Note_off_c, 2, 72, 127
3, 404640, Note_on_c, 2, 76, 127
3, 405120, Note_off_c, 2, 76, 127
3, 405120, Note_on_c, 2, 79, 127
3, 405600, Note_off_c, 2, 79, 127
3, 405600, Note_on_c, 2, 81, 127
3, 406080, Note_off_c, 2, 81, 127
3, 406080, Note_on_c, 2, 81, 127
3, 406080, Note_on_c, 2, 65, 127
3, 407040, Note_off_c, 2, 81, 127
3, 407040, Note_off_c, 2, 65, 127
3, 407040, Note_on_c, 2, 84, 127
3, 407040, Note_on_c, 2, 77, 127
3, 407520, Note_off_c, 2, 84, 127
3, 407520, Note_off_c, 2, 77, 127
3, 407520, Note_on_c, 2, 81, 127
3, 407520, Note_on_c, 2, 77, 127
3, 407520, Note_on_c, 2, 72, 127
3, 407520, Note_on_c, 2, 65, 127
3, 408960, Note_off_c, 2, 81, 127
3, 408960, Note_off_c, 2, 77, 127
3, 408960, Note_off_c, 2, 72, 127
3, 408960, Note_off_c, 2, 65, 127
3, 408960, Note_on_c, 2, 79, 127
3, 408960, Note_on_c, 2, 76, 127
3, 408960, Note_on_c, 2, 72, 127
3, 408960, Note_on_c, 2, 60, 127
3, 410400, Note_off_c, 2, 79, 127
3, 410400, Note_off_c, 2, 76, 127
3, 410400, Note_off_c, 2, 72, 127
3, 410400, Note_off_c, 2, 60, 127
3, 410400, Note_on_c, 2, 79, 127
3, 410400, Note_on_c, 2, 74, 127
3, 410400, Note_on_c, 2, 71, 127
3, 410400, Note_on_c, 2, 55, 127
3, 411360, Note_off_c, 2, 79, 127
3, 411360, Note_off_c, 2, 74, 127
3, 411360, Note_off_c, 2, 71, 127
3, 411360, Note_off_c, 2, 55, 127
3, 411360, Note_on_c, 2, 79, 127
3, 411360, Note_on_c, 2, 76, 127
3, 411360, Note_on_c, 2, 72, 127
3, 411360, Note_on_c, 2, 60, 127
3, 420480, Note_off_c, 2, 79, 127
3, 420480, Note_off_c, 2, 76, 127
3, 420480, Note_off_c, 2, 72, 127
3, 420480, Note_off_c, 2, 60, 127
3, 420480, End_track
4, 0, Start_track
4, 0, Pitch_bend_c, 4, 8192
4, 0, Control_c, 4, 7, 111
4, 0, Control_c, 4, 10, 63
4, 0, Control_c, 4, 93, 0
4, 0, Control_c, 4, 91, 0
4, 0, Control_c, 4, 95, 0
4, 0, Control_c, 4, 92, 0
4, 0, Control_c, 4, 11, 127
4, 0, Program_c, 4, 0
4, 0, Control_c, 5, 7, 111
4, 0, Control_c, 5, 10, 63
4, 0, Control_c, 5, 93, 0
4, 0, Control_c, 5, 91, 0
4, 0, Control_c, 5, 95, 0
4, 0, Control_c, 5, 92, 0
4, 0, Control_c, 5, 11, 127
4, 0, Program_c, 5, 0
4, 208320, Note_on_c, 4, 91, 127
4, 208320, Note_on_c, 4, 88, 127
4, 208320, Note_on_c, 4, 84, 127
4, 208800, Note_off_c, 4, 91, 127
4, 208800, Note_off_c, 4, 88, 127
4, 208800, Note_off_c, 4, 84, 127
4, 208800, Note_on_c, 4, 91, 127
4, 209280, Note_off_c, 4, 91, 127
4, 209280, Note_on_c, 4, 93, 127
4, 209760, Note_off_c, 4, 93, 127
4, 209760, Note_on_c, 4, 91, 127
4, 210240, Note_off_c, 4, 91, 127
4, 210240, Note_on_c, 4, 91, 127
4, 210240, Note_on_c, 4, 88, 127
4, 210720, Note_off_c, 4, 91, 127
4, 210720, Note_off_c, 4, 88, 127
4, 210720, Note_on_c, 4, 79, 127
4, 211200, Note_off_c, 4, 79, 127
4, 211200, Note_on_c, 4, 88, 127
4, 211680, Note_off_c, 4, 88, 127
4, 211680, Note_on_c, 4, 86, 127
4, 212160, Note_off_c, 4, 86, 127
4, 212160, Note_on_c, 4, 79, 127
4, 212640, Note_off_c, 4, 79, 127
4, 212640, Note_on_c, 4, 80, 127
4, 213120, Note_off_c, 4, 80, 127
4, 213120, Note_on_c, 4, 81, 127
4, 213120, Note_on_c, 4, 60, 127
4, 213600, Note_off_c, 4, 81, 127
4, 213600, Note_off_c, 4, 60, 127
4, 213600, Note_on_c, 4, 84, 127
4, 214080, Note_off_c, 4, 84, 127
4, 214080, Note_on_c, 4, 86, 127
4, 214560, Note_off_c, 4, 86, 127
4, 214560, Note_on_c, 4, 88, 127
4, 214560, Note_on_c, 4, 84, 127
4, 215040, Note_off_c, 4, 88, 127
4, 215040, Note_off_c, 4, 84, 127
4, 215040, Note_on_c, 4, 79, 127
4, 215520, Note_off_c, 4, 79, 127
4, 215520, Note_on_c, 4, 93, 127
4, 216000, Note_off_c, 4, 93, 127
4, 216000, Note_on_c, 4, 91, 127
4, 216000, Note_on_c, 4, 88, 127
4, 216480, Note_off_c, 4, 91, 127
4, 216480, Note_off_c, 4, 88, 127
4, 216480, Note_on_c, 4, 91, 127
4, 216720, Note_off_c, 4, 91, 127
4, 216720, Note_on_c, 4, 88, 127
4, 216960, Note_off_c, 4, 88, 127
4, 216960, Note_on_c, 4, 84, 127
4, 217200, Note_off_c, 4, 84, 127
4, 217200, Note_on_c, 4, 79, 127
4, 217440, Note_off_c, 4, 79, 127
4, 217440, Note_on_c, 4, 87, 127
4, 217920, Note_off_c, 4, 87, 127
4, 217920, Note_on_c, 4, 79, 127
4, 218400, Note_off_c, 4, 79, 127
4, 218400, Note_on_c, 4, 89, 127
4, 218400, Note_on_c, 4, 84, 127
4, 218400, Note_on_c, 4, 53, 127
4, 218880, Note_off_c, 4, 89, 127
4, 218880, Note_off_c, 4, 84, 127
4, 218880, Note_off_c, 4, 53, 127
4, 218880, Note_on_c, 4, 55, 127
4, 220320, Note_off_c, 4, 55, 127
4, 220320, Note_on_c, 4, 79, 127
4, 221040, Note_off_c, 4, 79, 127
4, 221040, Note_on_c, 4, 81, 127
4, 221280, Note_off_c, 4, 81, 127
4, 221280, Note_on_c, 4, 84, 127
4, 221520, Note_off_c, 4, 84, 127
4, 221520, Note_on_c, 4, 86, 127
4, 221760, Note_off_c, 4, 86, 127
4, 221760, Note_on_c, 4, 87, 127
4, 221760, Note_on_c, 4, 57, 127
4, 222000, Note_off_c, 4, 87, 127
4, 222000, Note_off_c, 4, 57, 127
4, 222000, Note_on_c, 4, 86, 127
4, 222240, Note_off_c, 4, 86, 127
4, 222240, Note_on_c, 4, 84, 127
4, 222480, Note_off_c, 4, 84, 127
4, 222480, Note_on_c, 4, 81, 127
4, 222720, Note_off_c, 4, 81, 127
4, 222720, Note_on_c, 4, 79, 127
4, 222960, Note_off_c, 4, 79, 127
4, 222960, Note_on_c, 4, 84, 127
4, 222960, Note_on_c, 4, 79, 127
4, 223200, Note_off_c, 4, 84, 127
4, 223200, Note_off_c, 4, 79, 127
4, 223200, Note_on_c, 4, 78, 127
4, 223200, Note_on_c, 4, 59, 127
4, 223440, Note_off_c, 4, 78, 127
4, 223440, Note_off_c, 4, 59, 127
4, 223440, Note_on_c, 4, 77, 127
4, 223680, Note_off_c, 4, 77, 127
4, 223680, Note_on_c, 4, 76, 127
4, 223920, Note_off_c, 4, 76, 127
4, 223920, Note_on_c, 4, 77, 127
4, 224160, Note_off_c, 4, 77, 127
4, 224160, Note_on_c, 4, 78, 127
4, 224400, Note_off_c, 4, 78, 127
4, 224400, Note_on_c, 4, 79, 127
4, 224640, Note_off_c, 4, 79, 127
4, 224640, Note_on_c, 4, 79, 127
4, 224640, Note_on_c, 4, 60, 127
4, 224880, Note_off_c, 4, 79, 127
4, 224880, Note_off_c, 4, 60, 127
4, 224880, Note_on_c, 4, 77, 127
4, 225120, Note_off_c, 4, 77, 127
4, 225240, Note_on_c, 4, 76, 127
4, 225480, Note_off_c, 4, 76, 127
4, 225480, Note_on_c, 4, 74, 127
4, 225720, Note_off_c, 4, 74, 127
4, 225720, Note_on_c, 4, 76, 127
4, 225960, Note_off_c, 4, 76, 127
4, 226080, Note_on_c, 4, 77, 127
4, 226320, Note_off_c, 4, 77, 127
4, 226320, Note_on_c, 4, 79, 127
4, 226560, Note_off_c, 4, 79, 127
4, 226680, Note_on_c, 4, 77, 127
4, 226920, Note_off_c, 4, 77, 127
4, 226920, Note_on_c, 4, 76, 127
4, 227160, Note_off_c, 4, 76, 127
4, 227160, Note_on_c, 4, 74, 127
4, 227400, Note_off_c, 4, 74, 127
4, 227520, Note_on_c, 4, 72, 127
4, 227520, Note_on_c, 4, 55, 127
4, 227760, Note_off_c, 4, 72, 127
4, 227760, Note_off_c, 4, 55, 127
4, 227760, Note_on_c, 4, 81, 127
4, 228000, Note_off_c, 4, 81, 127
4, 228000, Note_on_c, 4, 77, 127
4, 228240, Note_off_c, 4, 77, 127
4, 228240, Note_on_c, 4, 74, 127
4, 228480, Note_off_c, 4, 74, 127
4, 228480, Note_on_c, 4, 71, 127
4, 228720, Note_off_c, 4, 71, 127
4, 228720, Note_on_c, 4, 67, 127
4, 229440, Note_off_c, 4, 67, 127
4, 229440, Note_on_c, 4, 66, 127
4, 229920, Note_off_c, 4, 66, 127
4, 229920, Note_on_c, 4, 65, 127
4, 230400, Note_off_c, 4, 65, 127
4, 230400, Note_on_c, 4, 64, 127
4, 231360, Note_off_c, 4, 64, 127
4, 231360, Note_on_c, 4, 60, 127
4, 231840, Note_off_c, 4, 60, 127
4, 231840, Note_on_c, 4, 72, 127
4, 232320, Note_off_c, 4, 72, 127
4, 232320, Note_on_c, 4, 74, 127
4, 232320, Note_on_c, 4, 72, 127
4, 232800, Note_off_c, 4, 74, 127
4, 232800, Note_off_c, 4, 72, 127
4, 232800, Note_on_c, 4, 75, 127
4, 232800, Note_on_c, 4, 72, 127
4, 233280, Note_off_c, 4, 75, 127
4, 233280, Note_off_c, 4, 72, 127
4, 233280, Note_on_c, 4, 76, 127
4, 233280, Note_on_c, 4, 71, 127
4, 233280, Note_on_c, 4, 60, 127
4, 233760, Note_off_c, 4, 76, 127
4, 233760, Note_off_c, 4, 71, 127
4, 233760, Note_off_c, 4, 60, 127
4, 233760, Note_on_c, 4, 79, 127
4, 233760, Note_on_c, 4, 71, 127
4, 234240, Note_off_c, 4, 79, 127
4, 234240, Note_off_c, 4, 71, 127
4, 234240, Note_on_c, 4, 81, 127
4, 234240, Note_on_c, 4, 71, 127
4, 234720, Note_off_c, 4, 81, 127
4, 234720, Note_off_c, 4, 71, 127
4, 234720, Note_on_c, 4, 84, 127
4, 234720, Note_on_c, 4, 71, 127
4, 235200, Note_off_c, 4, 84, 127
4, 235200, Note_off_c, 4, 71, 127
4, 235200, Note_on_c, 4, 79, 127
4, 235200, Note_on_c, 4, 71, 127
4, 235680, Note_off_c, 4, 79, 127
4, 235680, Note_off_c, 4, 71, 127
4, 235680, Note_on_c, 4, 81, 127
4, 235680, Note_on_c, 4, 71, 127
4, 236160, Note_off_c, 4, 81, 127
4, 236160, Note_off_c, 4, 71, 127
4, 236160, Note_on_c, 4, 79, 127
4, 236160, Note_on_c, 4, 53, 127
4, 236280, Note_off_c, 4, 79, 127
4, 236280, Note_off_c, 4, 53, 127
4, 236280, Note_on_c, 4, 81, 127
4, 236400, Note_off_c, 4, 81, 127
4, 236400, Note_on_c, 4, 79, 127
4, 236520, Note_off_c, 4, 79, 127
4, 236520, Note_on_c, 4, 81, 127
4, 236640, Note_off_c, 4, 81, 127
4, 236640, Note_on_c, 4, 79, 127
4, 236760, Note_off_c, 4, 79, 127
4, 236760, Note_on_c, 4, 81, 127
4, 236880, Note_off_c, 4, 81, 127
4, 236880, Note_on_c, 4, 79, 127
4, 237000, Note_off_c, 4, 79, 127
4, 237000, Note_on_c, 4, 81, 127
4, 237120, Note_off_c, 4, 81, 127
4, 237120, Note_on_c, 4, 79, 127
4, 237240, Note_off_c, 4, 79, 127
4, 237240, Note_on_c, 4, 81, 127
4, 237360, Note_off_c, 4, 81, 127
4, 237360, Note_on_c, 4, 79, 127
4, 237480, Note_off_c, 4, 79, 127
4, 237480, Note_on_c, 4, 81, 127
4, 237600, Note_off_c, 4, 81, 127
4, 237600, Note_on_c, 4, 79, 127
4, 237720, Note_off_c, 4, 79, 127
4, 237720, Note_on_c, 4, 81, 127
4, 237840, Note_off_c, 4, 81, 127
4, 237840, Note_on_c, 4, 79, 127
4, 237960, Note_off_c, 4, 79, 127
4, 237960, Note_on_c, 4, 81, 127
4, 238080, Note_off_c, 4, 81, 127
4, 238080, Note_on_c, 4, 79, 127
4, 238200, Note_off_c, 4, 79, 127
4, 238200, Note_on_c, 4, 81, 127
4, 238320, Note_off_c, 4, 81, 127
4, 238320, Note_on_c, 4, 79, 127
4, 238440, Note_off_c, 4, 79, 127
4, 238440, Note_on_c, 4, 81, 127
4, 238560, Note_off_c, 4, 81, 127
4, 238560, Note_on_c, 4, 79, 127
4, 238680, Note_off_c, 4, 79, 127
4, 238680, Note_on_c, 4, 81, 127
4, 238800, Note_off_c, 4, 81, 127
4, 238800, Note_on_c, 4, 79, 127
4, 238920, Note_off_c, 4, 79, 127
4, 238920, Note_on_c, 4, 81, 127
4, 239040, Note_off_c, 4, 81, 127
4, 239040, Note_on_c, 4, 84, 127
4, 240000, Note_off_c, 4, 84, 127
4, 240000, Note_on_c, 4, 84, 127
4, 240480, Note_off_c, 4, 84, 127
4, 240480, Note_on_c, 4, 87, 127
4, 240960, Note_off_c, 4, 87, 127
4, 240960, Note_on_c, 4, 86, 127
4, 241440, Note_off_c, 4, 86, 127
4, 241440, Note_on_c, 4, 84, 127
4, 241920, Note_off_c, 4, 84, 127
4, 241920, Note_on_c, 4, 93, 127
4, 241920, Note_on_c, 4, 53, 127
4, 242880, Note_off_c, 4, 93, 127
4, 242880, Note_off_c, 4, 53, 127
4, 242880, Note_on_c, 4, 91, 127
4, 243360, Note_off_c, 4, 91, 127
4, 243360, Note_on_c, 4, 87, 127
4, 243840, Note_off_c, 4, 87, 127
4, 243840, Note_on_c, 4, 86, 127
4, 244320, Note_off_c, 4, 86, 127
4, 244320, Note_on_c, 4, 84, 127
4, 244800, Note_off_c, 4, 84, 127
4, 244800, Note_on_c, 4, 79, 127
4, 245040, Note_off_c, 4, 79, 127
4, 245040, Note_on_c, 4, 81, 127
4, 245760, Note_off_c, 4, 81, 127
4, 245760, Note_on_c, 4, 79, 127
4, 246240, Note_off_c, 4, 79, 127
4, 246240, Note_on_c, 4, 74, 127
4, 246480, Note_off_c, 4, 74, 127
4, 246480, Note_on_c, 4, 76, 127
4, 247200, Note_off_c, 4, 76, 127
4, 247200, Note_on_c, 4, 72, 127
4, 247680, Note_off_c, 4, 72, 127
4, 247680, Note_on_c, 4, 84, 127
4, 247680, Note_on_c, 4, 60, 127
4, 247920, Note_off_c, 4, 84, 127
4, 247920, Note_off_c, 4, 60, 127
4, 247920, Note_on_c, 4, 79, 127
4, 248160, Note_off_c, 4, 79, 127
4, 248160, Note_on_c, 4, 76, 127
4, 248400, Note_off_c, 4, 76, 127
4, 248400, Note_on_c, 4, 72, 127
4, 248640, Note_off_c, 4, 72, 127
4, 248640, Note_on_c, 4, 84, 127
4, 248880, Note_off_c, 4, 84, 127
4, 248880, Note_on_c, 4, 79, 127
4, 249120, Note_off_c, 4, 79, 127
4, 249120, Note_on_c, 4, 76, 127
4, 249360, Note_off_c, 4, 76, 127
4, 249360, Note_on_c, 4, 72, 127
4, 249600, Note_off_c, 4, 72, 127
4, 249600, Note_on_c, 4, 84, 127
4, 249840, Note_off_c, 4, 84, 127
4, 249840, Note_on_c, 4, 79, 127
4, 250080, Note_off_c, 4, 79, 127
4, 250080, Note_on_c, 4, 76, 127
4, 250320, Note_off_c, 4, 76, 127
4, 250320, Note_on_c, 4, 72, 127
4, 250560, Note_off_c, 4, 72, 127
4, 250560, Note_on_c, 4, 55, 127
4, 250560, Note_on_c, 4, 67, 127
4, 252000, Note_off_c, 4, 55, 127
4, 252000, Note_off_c, 4, 67, 127
4, 252000, Note_on_c, 4, 67, 127
4, 252480, Note_off_c, 4, 67, 127
4, 252480, Note_on_c, 4, 69, 127
4, 252960, Note_off_c, 4, 69, 127
4, 252960, Note_on_c, 4, 72, 127
4, 253440, Note_off_c, 4, 72, 127
4, 253440, Note_on_c, 4, 74, 127
4, 253440, Note_on_c, 4, 60, 127
4, 253920, Note_off_c, 4, 74, 127
4, 253920, Note_off_c, 4, 60, 127
4, 253920, Note_on_c, 4, 75, 127
4, 254400, Note_off_c, 4, 75, 127
4, 254400, Note_on_c, 4, 76, 127
4, 254880, Note_off_c, 4, 76, 127
4, 254880, Note_on_c, 4, 77, 127
4, 255360, Note_off_c, 4, 77, 127
4, 255360, Note_on_c, 4, 78, 127
4, 255840, Note_off_c, 4, 78, 127
4, 255840, Note_on_c, 4, 79, 127
4, 256320, Note_off_c, 4, 79, 127
4, 256320, Note_on_c, 4, 81, 127
4, 256800, Note_off_c, 4, 81, 127
4, 256800, Note_on_c, 4, 84, 127
4, 257280, Note_off_c, 4, 84, 127
4, 257280, Note_on_c, 4, 86, 127
4, 257760, Note_off_c, 4, 86, 127
4, 257760, Note_on_c, 4, 88, 127
4, 257760, Note_on_c, 4, 84, 127
4, 258240, Note_off_c, 4, 88, 127
4, 258240, Note_off_c, 4, 84, 127
4, 258240, Note_on_c, 4, 79, 127
4, 258720, Note_off_c, 4, 79, 127
4, 258720, Note_on_c, 4, 87, 127
4, 258720, Note_on_c, 4, 84, 127
4, 259200, Note_off_c, 4, 87, 127
4, 259200, Note_off_c, 4, 84, 127
4, 259200, Note_on_c, 4, 55, 127
4, 259200, Note_on_c, 4, 74, 127
4, 259320, Note_off_c, 4, 55, 127
4, 259320, Note_off_c, 4, 74, 127
4, 259320, Note_on_c, 4, 77, 127
4, 259440, Note_off_c, 4, 77, 127
4, 259440, Note_on_c, 4, 74, 127
4, 259560, Note_off_c, 4, 74, 127
4, 259560, Note_on_c, 4, 77, 127
4, 259680, Note_off_c, 4, 77, 127
4, 259680, Note_on_c, 4, 74, 127
4, 259800, Note_off_c, 4, 74, 127
4, 259800, Note_on_c, 4, 77, 127
4, 259920, Note_off_c, 4, 77, 127
4, 259920, Note_on_c, 4, 74, 127
4, 260040, Note_off_c, 4, 74, 127
4, 260040, Note_on_c, 4, 77, 127
4, 260160, Note_off_c, 4, 77, 127
4, 260160, Note_on_c, 4, 74, 127
4, 260280, Note_off_c, 4, 74, 127
4, 260280, Note_on_c, 4, 77, 127
4, 260400, Note_off_c, 4, 77, 127
4, 260400, Note_on_c, 4, 74, 127
4, 260520, Note_off_c, 4, 74, 127
4, 260520, Note_on_c, 4, 77, 127
4, 260640, Note_off_c, 4, 77, 127
4, 260640, Note_on_c, 4, 77, 127
4, 260880, Note_off_c, 4, 77, 127
4, 260880, Note_on_c, 4, 74, 127
4, 261120, Note_off_c, 4, 74, 127
4, 261240, Note_on_c, 4, 72, 127
4, 261480, Note_off_c, 4, 72, 127
4, 261480, Note_on_c, 4, 69, 127
4, 261720, Note_off_c, 4, 69, 127
4, 261720, Note_on_c, 4, 72, 127
4, 261960, Note_off_c, 4, 72, 127
4, 262080, Note_on_c, 4, 77, 127
4, 262320, Note_off_c, 4, 77, 127
4, 262320, Note_on_c, 4, 76, 127
4, 262560, Note_off_c, 4, 76, 127
4, 262680, Note_on_c, 4, 74, 127
4, 262920, Note_off_c, 4, 74, 127
4, 262920, Note_on_c, 4, 77, 127
4, 263160, Note_off_c, 4, 77, 127
4, 263160, Note_on_c, 4, 79, 127
4, 263400, Note_off_c, 4, 79, 127
4, 263520, Note_on_c, 4, 76, 127
4, 264000, Note_off_c, 4, 76, 127
4, 264000, Note_on_c, 4, 72, 127
4, 264480, Note_off_c, 4, 72, 127
4, 264480, Note_on_c, 4, 71, 127
4, 264480, Note_on_c, 4, 65, 127
4, 264960, Note_off_c, 4, 71, 127
4, 264960, Note_off_c, 4, 65, 127
4, 264960, Note_on_c, 4, 71, 127
4, 264960, Note_on_c, 4, 67, 127
4, 264960, Note_on_c, 4, 55, 127
4, 265920, Note_off_c, 4, 71, 127
4, 265920, Note_off_c, 4, 67, 127
4, 265920, Note_off_c, 4, 55, 127
4, 265920, Note_on_c, 4, 81, 127
4, 265920, Note_on_c, 4, 72, 127
4, 266400, Note_off_c, 4, 81, 127
4, 266400, Note_off_c, 4, 72, 127
4, 266400, Note_on_c, 4, 87, 127
4, 266400, Note_on_c, 4, 77, 127
4, 267360, Note_off_c, 4, 87, 127
4, 267360, Note_off_c, 4, 77, 127
4, 267360, Note_on_c, 4, 87, 127
4, 267360, Note_on_c, 4, 77, 127
4, 267840, Note_off_c, 4, 87, 127
4, 267840, Note_off_c, 4, 77, 127
4, 267840, Note_on_c, 4, 86, 127
4, 267840, Note_on_c, 4, 77, 127
4, 267840, Note_on_c, 4, 57, 127
4, 268800, Note_off_c, 4, 86, 127
4, 268800, Note_off_c, 4, 77, 127
4, 268800, Note_off_c, 4, 57, 127
4, 268800, Note_on_c, 4, 86, 127
4, 268800, Note_on_c, 4, 77, 127
4, 269280, Note_off_c, 4, 86, 127
4, 269280, Note_off_c, 4, 77, 127
4, 269280, Note_on_c, 4, 84, 127
4, 269280, Note_on_c, 4, 59, 127
4, 269520, Note_off_c, 4, 84, 127
4, 269520, Note_off_c, 4, 59, 127
4, 269520, Note_on_c, 4, 86, 127
4, 269760, Note_off_c, 4, 86, 127
4, 269760, Note_on_c, 4, 81, 127
4, 270240, Note_off_c, 4, 81, 127
4, 270240, Note_on_c, 4, 86, 127
4, 270720, Note_off_c, 4, 86, 127
4, 270720, Note_on_c, 4, 84, 127
4, 270720, Note_on_c, 4, 76, 127
4, 270720, Note_on_c, 4, 60, 127
4, 271200, Note_off_c, 4, 84, 127
4, 271200, Note_off_c, 4, 76, 127
4, 271200, Note_off_c, 4, 60, 127
4, 271200, Note_on_c, 4, 84, 127
4, 271680, Note_off_c, 4, 84, 127
4, 271680, Note_on_c, 4, 84, 127
4, 272160, Note_off_c, 4, 84, 127
4, 272160, Note_on_c, 4, 84, 127
4, 272640, Note_off_c, 4, 84, 127
4, 272640, Note_on_c, 4, 81, 127
4, 273120, Note_off_c, 4, 81, 127
4, 273120, Note_on_c, 4, 79, 127
4, 273600, Note_off_c, 4, 79, 127
4, 273600, Note_on_c, 4, 72, 127
4, 273600, Note_on_c, 4, 53, 127
4, 274080, Note_off_c, 4, 72, 127
4, 274080, Note_off_c, 4, 53, 127
4, 274080, Note_on_c, 4, 72, 127
4, 274560, Note_off_c, 4, 72, 127
4, 274560, Note_on_c, 4, 72, 127
4, 275040, Note_off_c, 4, 72, 127
4, 275040, Note_on_c, 4, 72, 127
4, 275520, Note_off_c, 4, 72, 127
4, 275520, Note_on_c, 4, 69, 127
4, 276000, Note_off_c, 4, 69, 127
4, 276000, Note_on_c, 4, 67, 127
4, 276480, Note_off_c, 4, 67, 127
4, 276480, Note_on_c, 4, 72, 127
4, 276480, Note_on_c, 4, 67, 127
4, 276480, Note_on_c, 4, 64, 127
4, 276480, Note_on_c, 4, 60, 127
4, 277920, Note_off_c, 4, 72, 127
4, 277920, Note_off_c, 4, 67, 127
4, 277920, Note_off_c, 4, 64, 127
4, 277920, Note_off_c, 4, 60, 127
4, 277920, Note_on_c, 4, 52, 127
4, 279360, Note_off_c, 4, 52, 127
4, 279360, Note_on_c, 4, 53, 127
4, 280800, Note_off_c, 4, 53, 127
4, 280800, Note_on_c, 4, 53, 127
4, 281760, Note_off_c, 4, 53, 127
4, 281760, Note_on_c, 4, 79, 127
4, 281760, Note_on_c, 4, 76, 127
4, 281760, Note_on_c, 4, 72, 127
4, 282240, Note_off_c, 4, 79, 127
4, 282240, Note_off_c, 4, 76, 127
4, 282240, Note_off_c, 4, 72, 127
4, 282240, Note_on_c, 4, 60, 127
4, 283200, Note_off_c, 4, 60, 127
4, 283200, Note_on_c, 4, 79, 127
4, 283200, Note_on_c, 4, 70, 127
4, 285120, Note_off_c, 4, 79, 127
4, 285120, Note_off_c, 4, 70, 127
4, 286560, Note_on_c, 4, 65, 127
4, 287040, Note_off_c, 4, 65, 127
4, 287040, Note_on_c, 4, 66, 127
4, 287520, Note_off_c, 4, 66, 127
4, 287520, Note_on_c, 4, 67, 127
4, 288000, Note_off_c, 4, 67, 127
4, 288000, Note_on_c, 4, 55, 127
4, 290880, Note_off_c, 4, 55, 127
4, 290880, Note_on_c, 4, 72, 127
4, 290880, Note_on_c, 4, 67, 127
4, 292320, Note_off_c, 4, 72, 127
4, 292320, Note_off_c, 4, 67, 127
4, 292320, Note_on_c, 4, 72, 127
4, 292320, Note_on_c, 4, 65, 127
4, 293760, Note_off_c, 4, 72, 127
4, 293760, Note_off_c, 4, 65, 127
4, 293760, Note_on_c, 4, 60, 127
4, 295200, Note_off_c, 4, 60, 127
4, 295200, Note_on_c, 4, 88, 127
4, 295680, Note_off_c, 4, 88, 127
4, 295680, Note_on_c, 4, 91, 127
4, 296160, Note_off_c, 4, 91, 127
4, 296160, Note_on_c, 4, 93, 127
4, 296160, Note_on_c, 4, 84, 127
4, 296640, Note_off_c, 4, 93, 127
4, 296640, Note_off_c, 4, 84, 127
4, 296640, Note_on_c, 4, 88, 127
4, 296640, Note_on_c, 4, 79, 127
4, 296640, Note_on_c, 4, 55, 127
4, 297600, Note_off_c, 4, 88, 127
4, 297600, Note_off_c, 4, 79, 127
4, 297600, Note_off_c, 4, 55, 127
4, 297600, Note_on_c, 4, 86, 127
4, 297600, Note_on_c, 4, 79, 127
4, 298080, Note_off_c, 4, 86, 127
4, 298080, Note_off_c, 4, 79, 127
4, 298080, Note_on_c, 4, 84, 127
4, 298080, Note_on_c, 4, 79, 127
4, 299040, Note_off_c, 4, 84, 127
4, 299040, Note_off_c, 4, 79, 127
4, 299040, Note_on_c, 4, 79, 127
4, 299040, Note_on_c, 4, 77, 127
4, 299520, Note_off_c, 4, 79, 127
4, 299520, Note_off_c, 4, 77, 127
4, 299520, Note_on_c, 4, 60, 127
4, 300480, Note_off_c, 4, 60, 127
4, 300480, Note_on_c, 4, 87, 127
4, 300480, Note_on_c, 4, 79, 127
4, 300960, Note_off_c, 4, 87, 127
4, 300960, Note_off_c, 4, 79, 127
4, 300960, Note_on_c, 4, 86, 127
4, 300960, Note_on_c, 4, 76, 127
4, 301920, Note_off_c, 4, 86, 127
4, 301920, Note_off_c, 4, 76, 127
4, 301920, Note_on_c, 4, 84, 127
4, 301920, Note_on_c, 4, 75, 127
4, 303360, Note_off_c, 4, 84, 127
4, 303360, Note_off_c, 4, 75, 127
4, 303360, Note_on_c, 4, 82, 127
4, 303360, Note_on_c, 4, 74, 127
4, 303840, Note_off_c, 4, 82, 127
4, 303840, Note_off_c, 4, 74, 127
4, 303840, Note_on_c, 4, 81, 127
4, 303840, Note_on_c, 4, 72, 127
4, 304800, Note_off_c, 4, 81, 127
4, 304800, Note_off_c, 4, 72, 127
4, 304800, Note_on_c, 4, 79, 127
4, 304800, Note_on_c, 4, 70, 127
4, 305280, Note_off_c, 4, 79, 127
4, 305280, Note_off_c, 4, 70, 127
4, 305280, Note_on_c, 4, 67, 127
4, 305400, Note_off_c, 4, 67, 127
4, 305400, Note_on_c, 4, 69, 127
4, 305520, Note_off_c, 4, 69, 127
4, 305520, Note_on_c, 4, 67, 127
4, 305640, Note_off_c, 4, 67, 127
4, 305640, Note_on_c, 4, 69, 127
4, 305760, Note_off_c, 4, 69, 127
4, 305760, Note_on_c, 4, 67, 127
4, 305880, Note_off_c, 4, 67, 127
4, 305880, Note_on_c, 4, 69, 127
4, 306000, Note_off_c, 4, 69, 127
4, 306000, Note_on_c, 4, 67, 127
4, 306120, Note_off_c, 4, 67, 127
4, 306120, Note_on_c, 4, 69, 127
4, 306240, Note_off_c, 4, 69, 127
4, 306240, Note_on_c, 4, 67, 127
4, 306360, Note_off_c, 4, 67, 127
4, 306360, Note_on_c, 4, 69, 127
4, 306480, Note_off_c, 4, 69, 127
4, 306480, Note_on_c, 4, 67, 127
4, 306600, Note_off_c, 4, 67, 127
4, 306600, Note_on_c, 4, 69, 127
4, 306720, Note_off_c, 4, 69, 127
4, 306720, Note_on_c, 4, 67, 127
4, 306840, Note_off_c, 4, 67, 127
4, 306840, Note_on_c, 4, 69, 127
4, 306960, Note_off_c, 4, 69, 127
4, 306960, Note_on_c, 4, 67, 127
4, 307080, Note_off_c, 4, 67, 127
4, 307080, Note_on_c, 4, 69, 127
4, 307200, Note_off_c, 4, 69, 127
4, 307200, Note_on_c, 4, 67, 127
4, 307320, Note_off_c, 4, 67, 127
4, 307320, Note_on_c, 4, 69, 127
4, 307440, Note_off_c, 4, 69, 127
4, 307440, Note_on_c, 4, 67, 127
4, 307560, Note_off_c, 4, 67, 127
4, 307560, Note_on_c, 4, 69, 127
4, 307680, Note_off_c, 4, 69, 127
4, 307680, Note_on_c, 4, 81, 127
4, 307680, Note_on_c, 4, 77, 127
4, 307680, Note_on_c, 4, 72, 127
4, 308160, Note_off_c, 4, 81, 127
4, 308160, Note_off_c, 4, 77, 127
4, 308160, Note_off_c, 4, 72, 127
4, 308160, Note_on_c, 4, 84, 127
4, 308160, Note_on_c, 4, 81, 127
4, 308160, Note_on_c, 4, 77, 127
4, 308880, Note_off_c, 4, 84, 127
4, 308880, Note_off_c, 4, 81, 127
4, 308880, Note_off_c, 4, 77, 127
4, 308880, Note_on_c, 4, 81, 127
4, 309120, Note_off_c, 4, 81, 127
4, 309120, Note_on_c, 4, 77, 127
4, 309360, Note_off_c, 4, 77, 127
4, 309360, Note_on_c, 4, 72, 127
4, 309600, Note_off_c, 4, 72, 127
4, 309600, Note_on_c, 4, 84, 127
4, 309600, Note_on_c, 4, 81, 127
4, 309600, Note_on_c, 4, 77, 127
4, 310080, Note_off_c, 4, 84, 127
4, 310080, Note_off_c, 4, 81, 127
4, 310080, Note_off_c, 4, 77, 127
4, 310080, Note_on_c, 4, 86, 127
4, 310080, Note_on_c, 4, 83, 127
4, 310080, Note_on_c, 4, 77, 127
4, 310560, Note_off_c, 4, 86, 127
4, 310560, Note_off_c, 4, 83, 127
4, 310560, Note_off_c, 4, 77, 127
4, 310560, Note_on_c, 4, 84, 127
4, 310560, Note_on_c, 4, 81, 127
4, 310560, Note_on_c, 4, 77, 127
4, 311040, Note_off_c, 4, 84, 127
4, 311040, Note_off_c, 4, 81, 127
4, 311040, Note_off_c, 4, 77, 127
4, 311040, Note_on_c, 4, 84, 127
4, 311040, Note_on_c, 4, 81, 127
4, 311040, Note_on_c, 4, 77, 127
4, 312000, Note_off_c, 4, 84, 127
4, 312000, Note_off_c, 4, 81, 127
4, 312000, Note_off_c, 4, 77, 127
4, 312000, Note_on_c, 4, 60, 127
4, 312480, Note_off_c, 4, 60, 127
4, 312480, Note_on_c, 4, 84, 127
4, 312480, Note_on_c, 4, 81, 127
4, 312480, Note_on_c, 4, 77, 127
4, 312960, Note_off_c, 4, 84, 127
4, 312960, Note_off_c, 4, 81, 127
4, 312960, Note_off_c, 4, 77, 127
4, 312960, Note_on_c, 4, 60, 127
4, 313440, Note_off_c, 4, 60, 127
4, 313440, Note_on_c, 4, 84, 127
4, 313440, Note_on_c, 4, 81, 127
4, 313440, Note_on_c, 4, 77, 127
4, 315360, Note_off_c, 4, 84, 127
4, 315360, Note_off_c, 4, 81, 127
4, 315360, Note_off_c, 4, 77, 127
4, 315360, Note_on_c, 4, 81, 127
4, 315360, Note_on_c, 4, 77, 127
4, 315360, Note_on_c, 4, 72, 127
4, 316800, Note_off_c, 4, 81, 127
4, 316800, Note_off_c, 4, 77, 127
4, 316800, Note_off_c, 4, 72, 127
4, 316800, Note_on_c, 4, 60, 127
4, 318240, Note_off_c, 4, 60, 127
4, 318240, Note_on_c, 4, 76, 127
4, 318240, Note_on_c, 4, 72, 127
4, 318240, Note_on_c, 4, 67, 127
4, 318720, Note_off_c, 4, 76, 127
4, 318720, Note_off_c, 4, 72, 127
4, 318720, Note_off_c, 4, 67, 127
4, 318720, Note_on_c, 4, 79, 127
4, 318720, Note_on_c, 4, 76, 127
4, 318720, Note_on_c, 4, 72, 127
4, 319680, Note_off_c, 4, 79, 127
4, 319680, Note_off_c, 4, 76, 127
4, 319680, Note_off_c, 4, 72, 127
4, 319680, Note_on_c, 4, 55, 127
4, 320400, Note_off_c, 4, 55, 127
4, 320400, Note_on_c, 4, 67, 127
4, 320640, Note_off_c, 4, 67, 127
4, 320640, Note_on_c, 4, 71, 127
4, 320880, Note_off_c, 4, 71, 127
4, 320880, Note_on_c, 4, 74, 127
4, 321120, Note_off_c, 4, 74, 127
4, 321120, Note_on_c, 4, 69, 127
4, 321600, Note_off_c, 4, 69, 127
4, 321600, Note_on_c, 4, 72, 127
4, 322080, Note_off_c, 4, 72, 127
4, 322080, Note_on_c, 4, 74, 127
4, 322560, Note_off_c, 4, 74, 127
4, 322560, Note_on_c, 4, 76, 127
4, 322560, Note_on_c, 4, 72, 127
4, 322560, Note_on_c, 4, 67, 127
4, 322560, Note_on_c, 4, 60, 127
4, 323520, Note_off_c, 4, 76, 127
4, 323520, Note_off_c, 4, 72, 127
4, 323520, Note_off_c, 4, 67, 127
4, 323520, Note_off_c, 4, 60, 127
4, 323520, Note_on_c, 4, 60, 127
4, 324000, Note_off_c, 4, 60, 127
4, 324000, Note_on_c, 4, 79, 127
4, 324000, Note_on_c, 4, 76, 127
4, 324000, Note_on_c, 4, 72, 127
4, 324480, Note_off_c, 4, 79, 127
4, 324480, Note_off_c, 4, 76, 127
4, 324480, Note_off_c, 4, 72, 127
4, 324480, Note_on_c, 4, 60, 127
4, 326400, Note_off_c, 4, 60, 127
4, 326400, Note_on_c, 4, 78, 127
4, 326400, Note_on_c, 4, 72, 127
4, 326880, Note_off_c, 4, 78, 127
4, 326880, Note_off_c, 4, 72, 127
4, 326880, Note_on_c, 4, 77, 127
4, 326880, Note_on_c, 4, 72, 127
4, 326880, Note_on_c, 4, 55, 127
4, 328320, Note_off_c, 4, 77, 127
4, 328320, Note_off_c, 4, 72, 127
4, 328320, Note_off_c, 4, 55, 127
4, 328320, Note_on_c, 4, 76, 127
4, 328320, Note_on_c, 4, 55, 127
4, 329040, Note_off_c, 4, 76, 127
4, 329040, Note_off_c, 4, 55, 127
4, 329040, Note_on_c, 4, 86, 127
4, 329280, Note_off_c, 4, 86, 127
4, 329280, Note_on_c, 4, 83, 127
4, 329520, Note_off_c, 4, 83, 127
4, 329520, Note_on_c, 4, 79, 127
4, 329760, Note_off_c, 4, 79, 127
4, 329760, Note_on_c, 4, 77, 127
4, 329760, Note_on_c, 4, 74, 127
4, 329760, Note_on_c, 4, 71, 127
4, 330240, Note_off_c, 4, 77, 127
4, 330240, Note_off_c, 4, 74, 127
4, 330240, Note_off_c, 4, 71, 127
4, 330240, Note_on_c, 4, 77, 127
4, 330240, Note_on_c, 4, 74, 127
4, 330240, Note_on_c, 4, 71, 127
4, 330720, Note_off_c, 4, 77, 127
4, 330720, Note_off_c, 4, 74, 127
4, 330720, Note_off_c, 4, 71, 127
4, 330720, Note_on_c, 4, 88, 127
4, 330720, Note_on_c, 4, 79, 127
4, 331200, Note_off_c, 4, 88, 127
4, 331200, Note_off_c, 4, 79, 127
4, 331200, Note_on_c, 4, 50, 127
4, 331680, Note_off_c, 4, 50, 127
4, 331680, Note_on_c, 4, 86, 127
4, 331920, Note_off_c, 4, 86, 127
4, 331920, Note_on_c, 4, 83, 127
4, 332160, Note_off_c, 4, 83, 127
4, 332160, Note_on_c, 4, 79, 127
4, 332400, Note_off_c, 4, 79, 127
4, 332400, Note_on_c, 4, 74, 127
4, 332640, Note_off_c, 4, 74, 127
4, 332640, Note_on_c, 4, 79, 127
4, 332640, Note_on_c, 4, 72, 127
4, 333120, Note_off_c, 4, 79, 127
4, 333120, Note_off_c, 4, 72, 127
4, 333120, Note_on_c, 4, 70, 127
4, 333600, Note_off_c, 4, 70, 127
4, 333600, Note_on_c, 4, 71, 127
4, 334080, Note_off_c, 4, 71, 127
4, 334080, Note_on_c, 4, 55, 127
4, 334080, Note_on_c, 4, 71, 127
4, 335520, Note_off_c, 4, 55, 127
4, 335520, Note_off_c, 4, 71, 127
4, 335520, Note_on_c, 4, 67, 127
4, 336000, Note_off_c, 4, 67, 127
4, 336000, Note_on_c, 4, 69, 127
4, 336480, Note_off_c, 4, 69, 127
4, 336480, Note_on_c, 4, 72, 127
4, 336480, Note_on_c, 4, 67, 127
4, 336960, Note_off_c, 4, 72, 127
4, 336960, Note_off_c, 4, 67, 127
4, 336960, Note_on_c, 4, 72, 127
4, 336960, Note_on_c, 4, 67, 127
4, 336960, Note_on_c, 4, 57, 127
4, 337680, Note_off_c, 4, 72, 127
4, 337680, Note_off_c, 4, 67, 127
4, 337680, Note_off_c, 4, 57, 127
4, 337680, Note_on_c, 4, 72, 127
4, 337680, Note_on_c, 4, 67, 127
4, 337920, Note_off_c, 4, 72, 127
4, 337920, Note_off_c, 4, 67, 127
4, 337920, Note_on_c, 4, 65, 127
4, 338160, Note_off_c, 4, 65, 127
4, 338160, Note_on_c, 4, 64, 127
4, 338400, Note_off_c, 4, 64, 127
4, 338400, Note_on_c, 4, 72, 127
4, 338400, Note_on_c, 4, 69, 127
4, 338400, Note_on_c, 4, 65, 127
4, 338400, Note_on_c, 4, 59, 127
4, 339360, Note_off_c, 4, 72, 127
4, 339360, Note_off_c, 4, 69, 127
4, 339360, Note_off_c, 4, 65, 127
4, 339360, Note_off_c, 4, 59, 127
4, 339360, Note_on_c, 4, 64, 127
4, 339840, Note_off_c, 4, 64, 127
4, 339840, Note_on_c, 4, 60, 127
4, 340800, Note_off_c, 4, 60, 127
4, 340800, Note_on_c, 4, 79, 127
4, 340800, Note_on_c, 4, 76, 127
4, 340800, Note_on_c, 4, 72, 127
4, 341280, Note_off_c, 4, 79, 127
4, 341280, Note_off_c, 4, 76, 127
4, 341280, Note_off_c, 4, 72, 127
4, 341280, Note_on_c, 4, 76, 127
4, 341760, Note_off_c, 4, 76, 127
4, 341760, Note_on_c, 4, 79, 127
4, 342240, Note_off_c, 4, 79, 127
4, 342240, Note_on_c, 4, 81, 127
4, 342720, Note_off_c, 4, 81, 127
4, 342720, Note_on_c, 4, 81, 127
4, 342720, Note_on_c, 4, 65, 127
4, 343680, Note_off_c, 4, 81, 127
4, 343680, Note_off_c, 4, 65, 127
4, 343680, Note_on_c, 4, 84, 127
4, 343680, Note_on_c, 4, 77, 127
4, 344160, Note_off_c, 4, 84, 127
4, 344160, Note_off_c, 4, 77, 127
4, 344160, Note_on_c, 4, 81, 127
4, 344160, Note_on_c, 4, 77, 127
4, 344160, Note_on_c, 4, 72, 127
4, 344160, Note_on_c, 4, 65, 127
4, 345600, Note_off_c, 4, 81, 127
4, 345600, Note_off_c, 4, 77, 127
4, 345600, Note_off_c, 4, 72, 127
4, 345600, Note_off_c, 4, 65, 127
4, 345600, Note_on_c, 4, 79, 127
4, 345600, Note_on_c, 4, 76, 127
4, 345600, Note_on_c, 4, 72, 127
4, 345600, Note_on_c, 4, 60, 127
4, 347040, Note_off_c, 4, 79, 127
4, 347040, Note_off_c, 4, 76, 127
4, 347040, Note_off_c, 4, 72, 127
4, 347040, Note_off_c, 4, 60, 127
4, 347040, Note_on_c, 4, 52, 127
4, 348480, Note_off_c, 4, 52, 127
4, 348480, Note_on_c, 4, 53, 127
4, 349920, Note_off_c, 4, 53, 127
4, 349920, Note_on_c, 4, 54, 127
4, 350880, Note_off_c, 4, 54, 127
4, 350880, Note_on_c, 4, 84, 127
4, 350880, Note_on_c, 4, 79, 127
4, 350880, Note_on_c, 4, 76, 127
4, 351360, Note_off_c, 4, 84, 127
4, 351360, Note_off_c, 4, 79, 127
4, 351360, Note_off_c, 4, 76, 127
4, 351360, Note_on_c, 4, 60, 127
4, 352320, Note_off_c, 4, 60, 127
4, 352320, Note_on_c, 4, 79, 127
4, 352320, Note_on_c, 4, 70, 127
4, 354240, Note_off_c, 4, 79, 127
4, 354240, Note_off_c, 4, 70, 127
4, 355680, Note_on_c, 4, 65, 127
4, 356160, Note_off_c, 4, 65, 127
4, 356160, Note_on_c, 4, 66, 127
4, 356640, Note_off_c, 4, 66, 127
4, 356640, Note_on_c, 4, 67, 127
4, 357120, Note_off_c, 4, 67, 127
4, 357120, Note_on_c, 4, 55, 127
4, 360000, Note_off_c, 4, 55, 127
4, 360000, Note_on_c, 4, 72, 127
4, 360000, Note_on_c, 4, 67, 127
4, 361440, Note_off_c, 4, 72, 127
4, 361440, Note_off_c, 4, 67, 127
4, 361440, Note_on_c, 4, 72, 127
4, 361440, Note_on_c, 4, 65, 127
4, 362880, Note_off_c, 4, 72, 127
4, 362880, Note_off_c, 4, 65, 127
4, 362880, Note_on_c, 4, 60, 127
4, 364320, Note_off_c, 4, 60, 127
4, 364320, Note_on_c, 4, 88, 127
4, 364800, Note_off_c, 4, 88, 127
4, 364800, Note_on_c, 4, 91, 127
4, 365280, Note_off_c, 4, 91, 127
4, 365280, Note_on_c, 4, 93, 127
4, 365280, Note_on_c, 4, 84, 127
4, 365760, Note_off_c, 4, 93, 127
4, 365760, Note_off_c, 4, 84, 127
4, 365760, Note_on_c, 4, 88, 127
4, 365760, Note_on_c, 4, 79, 127
4, 365760, Note_on_c, 4, 55, 127
4, 366720, Note_off_c, 4, 88, 127
4, 366720, Note_off_c, 4, 79, 127
4, 366720, Note_off_c, 4, 55, 127
4, 366720, Note_on_c, 4, 86, 127
4, 366720, Note_on_c, 4, 79, 127
4, 367200, Note_off_c, 4, 86, 127
4, 367200, Note_off_c, 4, 79, 127
4, 367200, Note_on_c, 4, 84, 127
4, 367200, Note_on_c, 4, 79, 127
4, 368160, Note_off_c, 4, 84, 127
4, 368160, Note_off_c, 4, 79, 127
4, 368160, Note_on_c, 4, 79, 127
4, 368160, Note_on_c, 4, 77, 127
4, 368640, Note_off_c, 4, 79, 127
4, 368640, Note_off_c, 4, 77, 127
4, 368640, Note_on_c, 4, 60, 127
4, 369600, Note_off_c, 4, 60, 127
4, 369600, Note_on_c, 4, 87, 127
4, 369600, Note_on_c, 4, 79, 127
4, 370080, Note_off_c, 4, 87, 127
4, 370080, Note_off_c, 4, 79, 127
4, 370080, Note_on_c, 4, 86, 127
4, 370080, Note_on_c, 4, 76, 127
4, 371040, Note_off_c, 4, 86, 127
4, 371040, Note_off_c, 4, 76, 127
4, 371040, Note_on_c, 4, 84, 127
4, 371040, Note_on_c, 4, 75, 127
4, 372480, Note_off_c, 4, 84, 127
4, 372480, Note_off_c, 4, 75, 127
4, 372480, Note_on_c, 4, 82, 127
4, 372480, Note_on_c, 4, 74, 127
4, 372960, Note_off_c, 4, 82, 127
4, 372960, Note_off_c, 4, 74, 127
4, 372960, Note_on_c, 4, 81, 127
4, 372960, Note_on_c, 4, 72, 127
4, 373920, Note_off_c, 4, 81, 127
4, 373920, Note_off_c, 4, 72, 127
4, 373920, Note_on_c, 4, 79, 127
4, 373920, Note_on_c, 4, 70, 127
4, 374400, Note_off_c, 4, 79, 127
4, 374400, Note_off_c, 4, 70, 127
4, 374400, Note_on_c, 4, 67, 127
4, 374520, Note_off_c, 4, 67, 127
4, 374520, Note_on_c, 4, 69, 127
4, 374640, Note_off_c, 4, 69, 127
4, 374640, Note_on_c, 4, 67, 127
4, 374760, Note_off_c, 4, 67, 127
4, 374760, Note_on_c, 4, 69, 127
4, 374880, Note_off_c, 4, 69, 127
4, 374880, Note_on_c, 4, 67, 127
4, 375000, Note_off_c, 4, 67, 127
4, 375000, Note_on_c, 4, 69, 127
4, 375120, Note_off_c, 4, 69, 127
4, 375120, Note_on_c, 4, 67, 127
4, 375240, Note_off_c, 4, 67, 127
4, 375240, Note_on_c, 4, 69, 127
4, 375360, Note_off_c, 4, 69, 127
4, 375360, Note_on_c, 4, 67, 127
4, 375480, Note_off_c, 4, 67, 127
4, 375480, Note_on_c, 4, 69, 127
4, 375600, Note_off_c, 4, 69, 127
4, 375600, Note_on_c, 4, 67, 127
4, 375720, Note_off_c, 4, 67, 127
4, 375720, Note_on_c, 4, 69, 127
4, 375840, Note_off_c, 4, 69, 127
4, 375840, Note_on_c, 4, 67, 127
4, 375960, Note_off_c, 4, 67, 127
4, 375960, Note_on_c, 4, 69, 127
4, 376080, Note_off_c, 4, 69, 127
4, 376080, Note_on_c, 4, 67, 127
4, 376200, Note_off_c, 4, 67, 127
4, 376200, Note_on_c, 4, 69, 127
4, 376320, Note_off_c, 4, 69, 127
4, 376320, Note_on_c, 4, 67, 127
4, 376440, Note_off_c, 4, 67, 127
4, 376440, Note_on_c, 4, 69, 127
4, 376560, Note_off_c, 4, 69, 127
4, 376560, Note_on_c, 4, 67, 127
4, 376680, Note_off_c, 4, 67, 127
4, 376680, Note_on_c, 4, 69, 127
4, 376800, Note_off_c, 4, 69, 127
4, 376800, Note_on_c, 4, 81, 127
4, 376800, Note_on_c, 4, 77, 127
4, 376800, Note_on_c, 4, 72, 127
4, 377280, Note_off_c, 4, 81, 127
4, 377280, Note_off_c, 4, 77, 127
4, 377280, Note_off_c, 4, 72, 127
4, 377280, Note_on_c, 4, 84, 127
4, 377280, Note_on_c, 4, 81, 127
4, 377280, Note_on_c, 4, 77, 127
4, 378000, Note_off_c, 4, 84, 127
4, 378000, Note_off_c, 4, 81, 127
4, 378000, Note_off_c, 4, 77, 127
4, 378000, Note_on_c, 4, 81, 127
4, 378240, Note_off_c, 4, 81, 127
4, 378240, Note_on_c, 4, 77, 127
4, 378480, Note_off_c, 4, 77, 127
4, 378480, Note_on_c, 4, 72, 127
4, 378720, Note_off_c, 4, 72, 127
4, 378720, Note_on_c, 4, 84, 127
4, 378720, Note_on_c, 4, 81, 127
4, 378720, Note_on_c, 4, 77, 127
4, 379200, Note_off_c, 4, 84, 127
4, 379200, Note_off_c, 4, 81, 127
4, 379200, Note_off_c, 4, 77, 127
4, 379200, Note_on_c, 4, 86, 127
4, 379200, Note_on_c, 4, 83, 127
4, 379200, Note_on_c, 4, 77, 127
4, 379680, Note_off_c, 4, 86, 127
4, 379680, Note_off_c, 4, 83, 127
4, 379680, Note_off_c, 4, 77, 127
4, 379680, Note_on_c, 4, 84, 127
4, 379680, Note_on_c, 4, 81, 127
4, 379680, Note_on_c, 4, 77, 127
4, 380160, Note_off_c, 4, 84, 127
4, 380160, Note_off_c, 4, 81, 127
4, 380160, Note_off_c, 4, 77, 127
4, 380160, Note_on_c, 4, 84, 127
4, 380160, Note_on_c, 4, 81, 127
4, 380160, Note_on_c, 4, 77, 127
4, 381120, Note_off_c, 4, 84, 127
4, 381120, Note_off_c, 4, 81, 127
4, 381120, Note_off_c, 4, 77, 127
4, 381120, Note_on_c, 4, 60, 127
4, 381600, Note_off_c, 4, 60, 127
4, 381600, Note_on_c, 4, 84, 127
4, 381600, Note_on_c, 4, 81, 127
4, 381600, Note_on_c, 4, 77, 127
4, 382080, Note_off_c, 4, 84, 127
4, 382080, Note_off_c, 4, 81, 127
4, 382080, Note_off_c, 4, 77, 127
4, 382080, Note_on_c, 4, 60, 127
4, 382560, Note_off_c, 4, 60, 127
4, 382560, Note_on_c, 4, 84, 127
4, 382560, Note_on_c, 4, 81, 127
4, 382560, Note_on_c, 4, 77, 127
4, 384480, Note_off_c, 4, 84, 127
4, 384480, Note_off_c, 4, 81, 127
4, 384480, Note_off_c, 4, 77, 127
4, 384480, Note_on_c, 4, 81, 127
4, 384480, Note_on_c, 4, 77, 127
4, 384480, Note_on_c, 4, 72, 127
4, 385920, Note_off_c, 4, 81, 127
4, 385920, Note_off_c, 4, 77, 127
4, 385920, Note_off_c, 4, 72, 127
4, 385920, Note_on_c, 4, 60, 127
4, 387360, Note_off_c, 4, 60, 127
4, 387360, Note_on_c, 4, 76, 127
4, 387360, Note_on_c, 4, 72, 127
4, 387360, Note_on_c, 4, 67, 127
4, 387840, Note_off_c, 4, 76, 127
4, 387840, Note_off_c, 4, 72, 127
4, 387840, Note_off_c, 4, 67, 127
4, 387840, Note_on_c, 4, 79, 127
4, 387840, Note_on_c, 4, 76, 127
4, 387840, Note_on_c, 4, 72, 127
4, 388800, Note_off_c, 4, 79, 127
4, 388800, Note_off_c, 4, 76, 127
4, 388800, Note_off_c, 4, 72, 127
4, 388800, Note_on_c, 4, 55, 127
4, 389520, Note_off_c, 4, 55, 127
4, 389520, Note_on_c, 4, 67, 127
4, 389760, Note_off_c, 4, 67, 127
4, 389760, Note_on_c, 4, 71, 127
4, 390000, Note_off_c, 4, 71, 127
4, 390000, Note_on_c, 4, 74, 127
4, 390240, Note_off_c, 4, 74, 127
4, 390240, Note_on_c, 4, 69, 127
4, 390720, Note_off_c, 4, 69, 127
4, 390720, Note_on_c, 4, 72, 127
4, 391200, Note_off_c, 4, 72, 127
4, 391200, Note_on_c, 4, 74, 127
4, 391680, Note_off_c, 4, 74, 127
4, 391680, Note_on_c, 4, 76, 127
4, 391680, Note_on_c, 4, 72, 127
4, 391680, Note_on_c, 4, 67, 127
4, 391680, Note_on_c, 4, 60, 127
4, 392640, Note_off_c, 4, 76, 127
4, 392640, Note_off_c, 4, 72, 127
4, 392640, Note_off_c, 4, 67, 127
4, 392640, Note_off_c, 4, 60, 127
4, 392640, Note_on_c, 4, 60, 127
4, 393120, Note_off_c, 4, 60, 127
4, 393120, Note_on_c, 4, 79, 127
4, 393120, Note_on_c, 4, 76, 127
4, 393120, Note_on_c, 4, 72, 127
4, 393600, Note_off_c, 4, 79, 127
4, 393600, Note_off_c, 4, 76, 127
4, 393600, Note_off_c, 4, 72, 127
4, 393600, Note_on_c, 4, 60, 127
4, 395520, Note_off_c, 4, 60, 127
4, 395520, Note_on_c, 4, 78, 127
4, 395520, Note_on_c, 4, 72, 127
4, 396000, Note_off_c, 4, 78, 127
4, 396000, Note_off_c, 4, 72, 127
4, 396000, Note_on_c, 4, 77, 127
4, 396000, Note_on_c, 4, 72, 127
4, 396000, Note_on_c, 4, 55, 127
4, 397440, Note_off_c, 4, 77, 127
4, 397440, Note_off_c, 4, 72, 127
4, 397440, Note_off_c, 4, 55, 127
4, 397440, Note_on_c, 4, 76, 127
4, 397440, Note_on_c, 4, 55, 127
4, 398160, Note_off_c, 4, 76, 127
4, 398160, Note_off_c, 4, 55, 127
4, 398160, Note_on_c, 4, 86, 127
4, 398400, Note_off_c, 4, 86, 127
4, 398400, Note_on_c, 4, 83, 127
4, 398640, Note_off_c, 4, 83, 127
4, 398640, Note_on_c, 4, 79, 127
4, 398880, Note_off_c, 4, 79, 127
4, 398880, Note_on_c, 4, 77, 127
4, 398880, Note_on_c, 4, 74, 127
4, 398880, Note_on_c, 4, 71, 127
4, 399360, Note_off_c, 4, 77, 127
4, 399360, Note_off_c, 4, 74, 127
4, 399360, Note_off_c, 4, 71, 127
4, 399360, Note_on_c, 4, 77, 127
4, 399360, Note_on_c, 4, 74, 127
4, 399360, Note_on_c, 4, 71, 127
4, 399840, Note_off_c, 4, 77, 127
4, 399840, Note_off_c, 4, 74, 127
4, 399840, Note_off_c, 4, 71, 127
4, 399840, Note_on_c, 4, 88, 127
4, 399840, Note_on_c, 4, 79, 127
4, 400320, Note_off_c, 4, 88, 127
4, 400320, Note_off_c, 4, 79, 127
4, 400320, Note_on_c, 4, 50, 127
4, 400800, Note_off_c, 4, 50, 127
4, 400800, Note_on_c, 4, 86, 127
4, 401040, Note_off_c, 4, 86, 127
4, 401040, Note_on_c, 4, 83, 127
4, 401280, Note_off_c, 4, 83, 127
4, 401280, Note_on_c, 4, 79, 127
4, 401520, Note_off_c, 4, 79, 127
4, 401520, Note_on_c, 4, 74, 127
4, 401760, Note_off_c, 4, 74, 127
4, 401760, Note_on_c, 4, 79, 127
4, 401760, Note_on_c, 4, 72, 127
4, 402240, Note_off_c, 4, 79, 127
4, 402240, Note_off_c, 4, 72, 127
4, 402240, Note_on_c, 4, 70, 127
4, 402720, Note_off_c, 4, 70, 127
4, 402720, Note_on_c, 4, 71, 127
4, 403200, Note_off_c, 4, 71, 127
4, 403200, Note_on_c, 4, 60, 127
4, 404160, Note_off_c, 4, 60, 127
4, 404160, Note_on_c, 4, 79, 127
4, 404160, Note_on_c, 4, 76, 127
4, 404160, Note_on_c, 4, 72, 127
4, 404640, Note_off_c, 4, 79, 127
4, 404640, Note_off_c, 4, 76, 127
4, 404640, Note_off_c, 4, 72, 127
4, 404640, Note_on_c, 4, 76, 127
4, 405120, Note_off_c, 4, 76, 127
4, 405120, Note_on_c, 4, 79, 127
4, 405600, Note_off_c, 4, 79, 127
4, 405600, Note_on_c, 4, 81, 127
4, 406080, Note_off_c, 4, 81, 127
4, 406080, Note_on_c, 4, 81, 127
4, 406080, Note_on_c, 4, 65, 127
4, 407040, Note_off_c, 4, 81, 127
4, 407040, Note_off_c, 4, 65, 127
4, 407040, Note_on_c, 4, 84, 127
4, 407040, Note_on_c, 4, 77, 127
4, 407520, Note_off_c, 4, 84, 127
4, 407520, Note_off_c, 4, 77, 127
4, 407520, Note_on_c, 4, 81, 127
4, 407520, Note_on_c, 4, 77, 127
4, 407520, Note_on_c, 4, 72, 127
4, 407520, Note_on_c, 4, 65, 127
4, 408960, Note_off_c, 4, 81, 127
4, 408960, Note_off_c, 4, 77, 127
4, 408960, Note_off_c, 4, 72, 127
4, 408960, Note_off_c, 4, 65, 127
4, 408960, Note_on_c, 4, 79, 127
4, 408960, Note_on_c, 4, 76, 127
4, 408960, Note_on_c, 4, 72, 127
4, 408960, Note_on_c, 4, 60, 127
4, 410400, Note_off_c, 4, 79, 127
4, 410400, Note_off_c, 4, 76, 127
4, 410400, Note_off_c, 4, 72, 127
4, 410400, Note_off_c, 4, 60, 127
4, 410400, Note_on_c, 4, 79, 127
4, 410400, Note_on_c, 4, 74, 127
4, 410400, Note_on_c, 4, 71, 127
4, 410400, Note_on_c, 4, 55, 127
4, 411360, Note_off_c, 4, 79, 127
4, 411360, Note_off_c, 4, 74, 127
4, 411360, Note_off_c, 4, 71, 127
4, 411360, Note_off_c, 4, 55, 127
4, 411360, Note_on_c, 4, 79, 127
4, 411360, Note_on_c, 4, 76, 127
4, 411360, Note_on_c, 4, 72, 127
4, 411360, Note_on_c, 4, 60, 127
4, 420480, Note_off_c, 4, 79, 127
4, 420480, Note_off_c, 4, 76, 127
4, 420480, Note_off_c, 4, 72, 127
4, 420480, Note_off_c, 4, 60, 127
4, 420480, End_track
5, 0, Start_track
5, 0, Pitch_bend_c, 6, 8192
5, 0, Control_c, 6, 7, 111
5, 0, Control_c, 6, 10, 63
5, 0, Control_c, 6, 93, 0
5, 0, Control_c, 6, 91, 0
5, 0, Control_c, 6, 95, 0
5, 0, Control_c, 6, 92, 0
5, 0, Control_c, 6, 11, 127
5, 0, Program_c, 6, 32
5, 0, Control_c, 7, 7, 111
5, 0, Control_c, 7, 10, 63
5, 0, Control_c, 7, 93, 0
5, 0, Control_c, 7, 91, 0
5, 0, Control_c, 7, 95, 0
5, 0, Control_c, 7, 92, 0
5, 0, Control_c, 7, 11, 127
5, 0, Program_c, 7, 32
5, 28320, Note_on_c, 6, 40, 95
5, 28800, Note_off_c, 6, 40, 95
5, 28800, Note_on_c, 6, 41, 95
5, 31200, Note_off_c, 6, 41, 95
5, 31200, Note_on_c, 6, 45, 95
5, 31680, Note_off_c, 6, 45, 95
5, 31680, Note_on_c, 6, 48, 95
5, 33120, Note_off_c, 6, 48, 95
5, 33120, Note_on_c, 6, 50, 95
5, 34080, Note_off_c, 6, 50, 95
5, 34080, Note_on_c, 6, 40, 95
5, 34560, Note_off_c, 6, 40, 95
5, 34560, Note_on_c, 6, 41, 95
5, 36960, Note_off_c, 6, 41, 95
5, 36960, Note_on_c, 6, 40, 95
5, 37440, Note_off_c, 6, 40, 95
5, 37440, Note_on_c, 6, 41, 95
5, 38880, Note_off_c, 6, 41, 95
5, 38880, Note_on_c, 6, 41, 95
5, 39360, Note_off_c, 6, 41, 95
5, 39360, Note_on_c, 6, 40, 95
5, 39840, Note_off_c, 6, 40, 95
5, 41760, Note_on_c, 6, 48, 95
5, 42240, Note_off_c, 6, 48, 95
5, 42240, Note_on_c, 6, 47, 95
5, 42720, Note_off_c, 6, 47, 95
5, 42720, Note_on_c, 6, 45, 95
5, 43200, Note_off_c, 6, 45, 95
5, 43200, Note_on_c, 6, 43, 95
5, 45600, Note_off_c, 6, 43, 95
5, 45600, Note_on_c, 6, 43, 95
5, 46080, Note_off_c, 6, 43, 95
5, 46080, Note_on_c, 6, 48, 95
5, 48480, Note_off_c, 6, 48, 95
5, 48480, Note_on_c, 6, 48, 95
5, 48960, Note_off_c, 6, 48, 95
5, 48960, Note_on_c, 6, 48, 95
5, 50400, Note_off_c, 6, 48, 95
5, 50400, Note_on_c, 6, 41, 95
5, 51840, Note_off_c, 6, 41, 95
5, 51840, Note_on_c, 6, 43, 95
5, 54720, Note_off_c, 6, 43, 95
5, 57600, Note_on_c, 6, 43, 95
5, 60480, Note_off_c, 6, 43, 95
5, 60480, Note_on_c, 6, 45, 95
5, 61920, Note_off_c, 6, 45, 95
5, 61920, Note_on_c, 6, 47, 95
5, 63360, Note_off_c, 6, 47, 95
5, 63360, Note_on_c, 6, 48, 95
5, 64800, Note_off_c, 6, 48, 95
5, 64800, Note_on_c, 6, 48, 95
5, 65280, Note_off_c, 6, 48, 95
5, 65280, Note_on_c, 6, 50, 95
5, 65760, Note_off_c, 6, 50, 95
5, 65760, Note_on_c, 6, 52, 95
5, 66240, Note_off_c, 6, 52, 95
5, 66240, Note_on_c, 6, 53, 95
5, 67680, Note_off_c, 6, 53, 95
5, 67680, Note_on_c, 6, 53, 95
5, 69120, Note_off_c, 6, 53, 95
5, 69120, Note_on_c, 6, 48, 95
5, 70560, Note_off_c, 6, 48, 95
5, 70560, Note_on_c, 6, 40, 95
5, 72000, Note_off_c, 6, 40, 95
5, 72000, Note_on_c, 6, 41, 95
5, 73440, Note_off_c, 6, 41, 95
5, 73440, Note_on_c, 6, 42, 95
5, 74880, Note_off_c, 6, 42, 95
5, 74880, Note_on_c, 6, 48, 95
5, 77280, Note_off_c, 6, 48, 95
5, 77280, Note_on_c, 6, 45, 95
5, 77760, Note_off_c, 6, 45, 95
5, 77760, Note_on_c, 6, 43, 95
5, 80160, Note_off_c, 6, 43, 95
5, 80160, Note_on_c, 6, 40, 95
5, 80640, Note_off_c, 6, 40, 95
5, 80640, Note_on_c, 6, 43, 95
5, 83040, Note_off_c, 6, 43, 95
5, 83040, Note_on_c, 6, 40, 95
5, 83520, Note_off_c, 6, 40, 95
5, 85920, Note_on_c, 6, 43, 95
5, 86400, Note_off_c, 6, 43, 95
5, 86400, Note_on_c, 6, 48, 95
5, 88800, Note_off_c, 6, 48, 95
5, 88800, Note_on_c, 6, 45, 95
5, 89280, Note_off_c, 6, 45, 95
5, 89280, Note_on_c, 6, 43, 95
5, 90720, Note_off_c, 6, 43, 95
5, 90720, Note_on_c, 6, 43, 95
5, 91200, Note_off_c, 6, 43, 95
5, 91200, Note_on_c, 6, 45, 95
5, 91680, Note_off_c, 6, 45, 95
5, 91680, Note_on_c, 6, 47, 95
5, 92160, Note_off_c, 6, 47, 95
5, 92160, Note_on_c, 6, 48, 95
5, 95040, Note_off_c, 6, 48, 95
5, 95040, Note_on_c, 6, 50, 95
5, 96480, Note_off_c, 6, 50, 95
5, 96480, Note_on_c, 6, 40, 95
5, 97920, Note_off_c, 6, 40, 95
5, 97920, Note_on_c, 6, 41, 95
5, 100320, Note_off_c, 6, 41, 95
5, 100320, Note_on_c, 6, 45, 95
5, 100800, Note_off_c, 6, 45, 95
5, 100800, Note_on_c, 6, 48, 95
5, 103200, Note_off_c, 6, 48, 95
5, 103680, Note_on_c, 6, 41, 95
5, 106560, Note_off_c, 6, 41, 95
5, 106560, Note_on_c, 6, 41, 95
5, 108000, Note_off_c, 6, 41, 95
5, 108000, Note_on_c, 6, 41, 95
5, 108960, Note_off_c, 6, 41, 95
5, 108960, Note_on_c, 6, 48, 95
5, 109440, Note_off_c, 6, 48, 95
5, 109440, Note_on_c, 6, 48, 95
5, 111840, Note_off_c, 6, 48, 95
5, 111840, Note_on_c, 6, 45, 95
5, 112320, Note_off_c, 6, 45, 95
5, 112320, Note_on_c, 6, 43, 95
5, 114240, Note_off_c, 6, 43, 95
5, 114240, Note_on_c, 6, 45, 95
5, 114720, Note_off_c, 6, 45, 95
5, 114720, Note_on_c, 6, 47, 95
5, 115200, Note_off_c, 6, 47, 95
5, 115200, Note_on_c, 6, 48, 95
5, 117600, Note_off_c, 6, 48, 95
5, 117600, Note_on_c, 6, 48, 95
5, 118080, Note_off_c, 6, 48, 95
5, 118080, Note_on_c, 6, 50, 95
5, 119520, Note_off_c, 6, 50, 95
5, 119520, Note_on_c, 6, 40, 95
5, 120480, Note_off_c, 6, 40, 95
5, 120480, Note_on_c, 6, 40, 95
5, 120960, Note_off_c, 6, 40, 95
5, 120960, Note_on_c, 6, 43, 95
5, 123840, Note_off_c, 6, 43, 95
5, 126720, Note_on_c, 6, 43, 95
5, 129600, Note_off_c, 6, 43, 95
5, 129600, Note_on_c, 6, 45, 95
5, 131040, Note_off_c, 6, 45, 95
5, 131040, Note_on_c, 6, 47, 95
5, 132000, Note_off_c, 6, 47, 95
5, 132000, Note_on_c, 6, 48, 95
5, 132480, Note_off_c, 6, 48, 95
5, 132480, Note_on_c, 6, 48, 95
5, 133920, Note_off_c, 6, 48, 95
5, 133920, Note_on_c, 6, 48, 95
5, 134400, Note_off_c, 6, 48, 95
5, 134400, Note_on_c, 6, 50, 95
5, 134880, Note_off_c, 6, 50, 95
5, 134880, Note_on_c, 6, 52, 95
5, 135360, Note_off_c, 6, 52, 95
5, 135360, Note_on_c, 6, 53, 95
5, 136800, Note_off_c, 6, 53, 95
5, 136800, Note_on_c, 6, 53, 95
5, 138240, Note_off_c, 6, 53, 95
5, 138240, Note_on_c, 6, 48, 95
5, 139680, Note_off_c, 6, 48, 95
5, 139680, Note_on_c, 6, 40, 95
5, 141120, Note_off_c, 6, 40, 95
5, 141120, Note_on_c, 6, 41, 95
5, 142560, Note_off_c, 6, 41, 95
5, 142560, Note_on_c, 6, 42, 95
5, 143520, Note_off_c, 6, 42, 95
5, 143520, Note_on_c, 6, 43, 95
5, 144000, Note_off_c, 6, 43, 95
5, 144000, Note_on_c, 6, 48, 95
5, 146400, Note_off_c, 6, 48, 95
5, 146400, Note_on_c, 6, 45, 95
5, 146880, Note_off_c, 6, 45, 95
5, 146880, Note_on_c, 6, 43, 95
5, 149280, Note_off_c, 6, 43, 95
5, 149280, Note_on_c, 6, 40, 95
5, 149760, Note_off_c, 6, 40, 95
5, 149760, Note_on_c, 6, 43, 95
5, 152160, Note_off_c, 6, 43, 95
5, 152160, Note_on_c, 6, 40, 95
5, 152640, Note_off_c, 6, 40, 95
5, 155040, Note_on_c, 6, 43, 95
5, 155520, Note_off_c, 6, 43, 95
5, 155520, Note_on_c, 6, 48, 95
5, 157920, Note_off_c, 6, 48, 95
5, 157920, Note_on_c, 6, 45, 95
5, 158400, Note_off_c, 6, 45, 95
5, 158400, Note_on_c, 6, 43, 95
5, 159840, Note_off_c, 6, 43, 95
5, 159840, Note_on_c, 6, 43, 95
5, 160320, Note_off_c, 6, 43, 95
5, 160320, Note_on_c, 6, 45, 95
5, 160800, Note_off_c, 6, 45, 95
5, 160800, Note_on_c, 6, 47, 95
5, 161280, Note_off_c, 6, 47, 95
5, 161280, Note_on_c, 6, 48, 95
5, 164160, Note_off_c, 6, 48, 95
5, 164160, Note_on_c, 6, 50, 95
5, 165600, Note_off_c, 6, 50, 95
5, 165600, Note_on_c, 6, 40, 95
5, 167040, Note_off_c, 6, 40, 95
5, 167040, Note_on_c, 6, 41, 95
5, 169440, Note_off_c, 6, 41, 95
5, 169440, Note_on_c, 6, 45, 95
5, 169920, Note_off_c, 6, 45, 95
5, 169920, Note_on_c, 6, 48, 95
5, 172320, Note_off_c, 6, 48, 95
5, 172800, Note_on_c, 6, 41, 95
5, 175680, Note_off_c, 6, 41, 95
5, 175680, Note_on_c, 6, 41, 95
5, 177120, Note_off_c, 6, 41, 95
5, 177120, Note_on_c, 6, 41, 95
5, 178080, Note_off_c, 6, 41, 95
5, 178080, Note_on_c, 6, 48, 95
5, 178560, Note_off_c, 6, 48, 95
5, 178560, Note_on_c, 6, 48, 95
5, 180960, Note_off_c, 6, 48, 95
5, 180960, Note_on_c, 6, 45, 95
5, 181440, Note_off_c, 6, 45, 95
5, 181440, Note_on_c, 6, 43, 95
5, 183360, Note_off_c, 6, 43, 95
5, 183360, Note_on_c, 6, 45, 95
5, 183840, Note_off_c, 6, 45, 95
5, 183840, Note_on_c, 6, 47, 95
5, 184320, Note_off_c, 6, 47, 95
5, 184320, Note_on_c, 6, 48, 95
5, 186720, Note_off_c, 6, 48, 95
5, 186720, Note_on_c, 6, 48, 95
5, 187200, Note_off_c, 6, 48, 95
5, 187200, Note_on_c, 6, 50, 95
5, 188640, Note_off_c, 6, 50, 95
5, 188640, Note_on_c, 6, 40, 95
5, 189600, Note_off_c, 6, 40, 95
5, 189600, Note_on_c, 6, 40, 95
5, 190080, Note_off_c, 6, 40, 95
5, 190080, Note_on_c, 6, 43, 95
5, 192960, Note_off_c, 6, 43, 95
5, 195840, Note_on_c, 6, 43, 95
5, 198720, Note_off_c, 6, 43, 95
5, 198720, Note_on_c, 6, 45, 95
5, 200160, Note_off_c, 6, 45, 95
5, 200160, Note_on_c, 6, 47, 95
5, 201120, Note_off_c, 6, 47, 95
5, 201120, Note_on_c, 6, 48, 95
5, 201600, Note_off_c, 6, 48, 95
5, 201600, Note_on_c, 6, 48, 95
5, 203040, Note_off_c, 6, 48, 95
5, 203040, Note_on_c, 6, 48, 95
5, 203520, Note_off_c, 6, 48, 95
5, 203520, Note_on_c, 6, 50, 95
5, 204000, Note_off_c, 6, 50, 95
5, 204000, Note_on_c, 6, 52, 95
5, 204480, Note_off_c, 6, 52, 95
5, 204480, Note_on_c, 6, 53, 95
5, 205920, Note_off_c, 6, 53, 95
5, 205920, Note_on_c, 6, 53, 95
5, 207360, Note_off_c, 6, 53, 95
5, 207360, Note_on_c, 6, 48, 95
5, 208800, Note_off_c, 6, 48, 95
5, 208800, Note_on_c, 6, 40, 95
5, 209760, Note_off_c, 6, 40, 95
5, 209760, Note_on_c, 6, 40, 95
5, 210240, Note_off_c, 6, 40, 95
5, 210240, Note_on_c, 6, 41, 95
5, 211200, Note_off_c, 6, 41, 95
5, 211200, Note_on_c, 6, 41, 95
5, 211680, Note_off_c, 6, 41, 95
5, 211680, Note_on_c, 6, 42, 95
5, 212640, Note_off_c, 6, 42, 95
5, 212640, Note_on_c, 6, 43, 95
5, 213120, Note_off_c, 6, 43, 95
5, 213120, Note_on_c, 6, 48, 95
5, 214560, Note_off_c, 6, 48, 95
5, 214560, Note_on_c, 6, 48, 95
5, 216000, Note_off_c, 6, 48, 95
5, 216000, Note_on_c, 6, 40, 95
5, 217440, Note_off_c, 6, 40, 95
5, 217440, Note_on_c, 6, 41, 95
5, 218400, Note_off_c, 6, 41, 95
5, 218400, Note_on_c, 6, 41, 95
5, 220320, Note_off_c, 6, 41, 95
5, 220320, Note_on_c, 6, 43, 95
5, 221760, Note_off_c, 6, 43, 95
5, 221760, Note_on_c, 6, 43, 95
5, 223200, Note_off_c, 6, 43, 95
5, 223200, Note_on_c, 6, 47, 95
5, 224160, Note_off_c, 6, 47, 95
5, 224160, Note_on_c, 6, 47, 95
5, 224640, Note_off_c, 6, 47, 95
5, 224640, Note_on_c, 6, 48, 95
5, 226080, Note_off_c, 6, 48, 95
5, 226080, Note_on_c, 6, 48, 95
5, 226560, Note_off_c, 6, 48, 95
5, 226560, Note_on_c, 6, 50, 95
5, 227040, Note_off_c, 6, 50, 95
5, 227040, Note_on_c, 6, 52, 95
5, 228480, Note_off_c, 6, 52, 95
5, 228480, Note_on_c, 6, 45, 95
5, 228960, Note_off_c, 6, 45, 95
5, 228960, Note_on_c, 6, 47, 95
5, 230400, Note_off_c, 6, 47, 95
5, 230400, Note_on_c, 6, 48, 95
5, 231840, Note_off_c, 6, 48, 95
5, 231840, Note_on_c, 6, 48, 95
5, 233280, Note_off_c, 6, 48, 95
5, 233280, Note_on_c, 6, 50, 95
5, 234720, Note_off_c, 6, 50, 95
5, 234720, Note_on_c, 6, 40, 95
5, 236160, Note_off_c, 6, 40, 95
5, 236160, Note_on_c, 6, 41, 95
5, 238560, Note_off_c, 6, 41, 95
5, 238560, Note_on_c, 6, 45, 95
5, 239040, Note_off_c, 6, 45, 95
5, 239040, Note_on_c, 6, 48, 95
5, 240480, Note_off_c, 6, 48, 95
5, 240480, Note_on_c, 6, 50, 95
5, 241440, Note_off_c, 6, 50, 95
5, 241440, Note_on_c, 6, 40, 95
5, 241920, Note_off_c, 6, 40, 95
5, 241920, Note_on_c, 6, 41, 95
5, 244320, Note_off_c, 6, 41, 95
5, 244320, Note_on_c, 6, 45, 95
5, 244800, Note_off_c, 6, 45, 95
5, 244800, Note_on_c, 6, 48, 95
5, 246240, Note_off_c, 6, 48, 95
5, 246240, Note_on_c, 6, 50, 95
5, 246720, Note_off_c, 6, 50, 95
5, 246720, Note_on_c, 6, 48, 95
5, 247200, Note_off_c, 6, 48, 95
5, 247200, Note_on_c, 6, 45, 95
5, 247680, Note_off_c, 6, 45, 95
5, 247680, Note_on_c, 6, 48, 95
5, 249600, Note_off_c, 6, 48, 95
5, 249600, Note_on_c, 6, 47, 95
5, 250080, Note_off_c, 6, 47, 95
5, 250080, Note_on_c, 6, 45, 95
5, 250560, Note_off_c, 6, 45, 95
5, 250560, Note_on_c, 6, 43, 95
5, 252480, Note_off_c, 6, 43, 95
5, 252480, Note_on_c, 6, 45, 95
5, 252960, Note_off_c, 6, 45, 95
5, 252960, Note_on_c, 6, 47, 95
5, 253440, Note_off_c, 6, 47, 95
5, 253440, Note_on_c, 6, 48, 95
5, 254880, Note_off_c, 6, 48, 95
5, 254880, Note_on_c, 6, 48, 95
5, 256320, Note_off_c, 6, 48, 95
5, 256320, Note_on_c, 6, 40, 95
5, 257280, Note_off_c, 6, 40, 95
5, 257280, Note_on_c, 6, 40, 95
5, 257760, Note_off_c, 6, 40, 95
5, 257760, Note_on_c, 6, 41, 95
5, 258720, Note_off_c, 6, 41, 95
5, 258720, Note_on_c, 6, 41, 95
5, 259200, Note_off_c, 6, 41, 95
5, 259200, Note_on_c, 6, 43, 95
5, 261600, Note_off_c, 6, 43, 95
5, 261600, Note_on_c, 6, 52, 95
5, 262080, Note_off_c, 6, 52, 95
5, 262080, Note_on_c, 6, 50, 95
5, 264000, Note_off_c, 6, 50, 95
5, 264000, Note_on_c, 6, 50, 95
5, 264480, Note_off_c, 6, 50, 95
5, 264480, Note_on_c, 6, 50, 95
5, 264960, Note_off_c, 6, 50, 95
5, 264960, Note_on_c, 6, 43, 95
5, 267840, Note_off_c, 6, 43, 95
5, 267840, Note_on_c, 6, 45, 95
5, 269280, Note_off_c, 6, 45, 95
5, 269280, Note_on_c, 6, 47, 95
5, 270720, Note_off_c, 6, 47, 95
5, 270720, Note_on_c, 6, 48, 95
5, 272160, Note_off_c, 6, 48, 95
5, 272160, Note_on_c, 6, 48, 95
5, 272640, Note_off_c, 6, 48, 95
5, 272640, Note_on_c, 6, 50, 95
5, 273120, Note_off_c, 6, 50, 95
5, 273120, Note_on_c, 6, 52, 95
5, 273600, Note_off_c, 6, 52, 95
5, 273600, Note_on_c, 6, 53, 95
5, 275040, Note_off_c, 6, 53, 95
5, 275040, Note_on_c, 6, 53, 95
5, 275520, Note_off_c, 6, 53, 95
5, 275520, Note_on_c, 6, 52, 95
5, 276000, Note_off_c, 6, 52, 95
5, 276000, Note_on_c, 6, 50, 95
5, 276480, Note_off_c, 6, 50, 95
5, 276480, Note_on_c, 6, 48, 95
5, 277920, Note_off_c, 6, 48, 95
5, 277920, Note_on_c, 6, 40, 95
5, 279360, Note_off_c, 6, 40, 95
5, 279360, Note_on_c, 6, 41, 95
5, 280800, Note_off_c, 6, 41, 95
5, 280800, Note_on_c, 6, 42, 95
5, 282240, Note_off_c, 6, 42, 95
5, 282240, Note_on_c, 6, 48, 95
5, 284640, Note_off_c, 6, 48, 95
5, 284640, Note_on_c, 6, 45, 95
5, 285120, Note_off_c, 6, 45, 95
5, 285120, Note_on_c, 6, 43, 95
5, 287520, Note_off_c, 6, 43, 95
5, 287520, Note_on_c, 6, 40, 95
5, 288000, Note_off_c, 6, 40, 95
5, 288000, Note_on_c, 6, 43, 95
5, 290400, Note_off_c, 6, 43, 95
5, 290400, Note_on_c, 6, 40, 95
5, 290880, Note_off_c, 6, 40, 95
5, 293280, Note_on_c, 6, 43, 95
5, 293760, Note_off_c, 6, 43, 95
5, 293760, Note_on_c, 6, 48, 95
5, 296160, Note_off_c, 6, 48, 95
5, 296160, Note_on_c, 6, 45, 95
5, 296640, Note_off_c, 6, 45, 95
5, 296640, Note_on_c, 6, 43, 95
5, 298080, Note_off_c, 6, 43, 95
5, 298080, Note_on_c, 6, 43, 95
5, 298560, Note_off_c, 6, 43, 95
5, 298560, Note_on_c, 6, 45, 95
5, 299040, Note_off_c, 6, 45, 95
5, 299040, Note_on_c, 6, 47, 95
5, 299520, Note_off_c, 6, 47, 95
5, 299520, Note_on_c, 6, 48, 95
5, 302400, Note_off_c, 6, 48, 95
5, 302400, Note_on_c, 6, 50, 95
5, 303840, Note_off_c, 6, 50, 95
5, 303840, Note_on_c, 6, 40, 95
5, 305280, Note_off_c, 6, 40, 95
5, 305280, Note_on_c, 6, 41, 95
5, 307680, Note_off_c, 6, 41, 95
5, 307680, Note_on_c, 6, 45, 95
5, 308160, Note_off_c, 6, 45, 95
5, 308160, Note_on_c, 6, 48, 95
5, 310560, Note_off_c, 6, 48, 95
5, 311040, Note_on_c, 6, 41, 95
5, 313920, Note_off_c, 6, 41, 95
5, 313920, Note_on_c, 6, 41, 95
5, 315360, Note_off_c, 6, 41, 95
5, 315360, Note_on_c, 6, 41, 95
5, 316320, Note_off_c, 6, 41, 95
5, 316320, Note_on_c, 6, 48, 95
5, 316800, Note_off_c, 6, 48, 95
5, 316800, Note_on_c, 6, 48, 95
5, 319200, Note_off_c, 6, 48, 95
5, 319200, Note_on_c, 6, 45, 95
5, 319680, Note_off_c, 6, 45, 95
5, 319680, Note_on_c, 6, 43, 95
5, 321600, Note_off_c, 6, 43, 95
5, 321600, Note_on_c, 6, 45, 95
5, 322080, Note_off_c, 6, 45, 95
5, 322080, Note_on_c, 6, 47, 95
5, 322560, Note_off_c, 6, 47, 95
5, 322560, Note_on_c, 6, 48, 95
5, 324960, Note_off_c, 6, 48, 95
5, 324960, Note_on_c, 6, 48, 95
5, 325440, Note_off_c, 6, 48, 95
5, 325440, Note_on_c, 6, 50, 95
5, 326880, Note_off_c, 6, 50, 95
5, 326880, Note_on_c, 6, 40, 95
5, 327840, Note_off_c, 6, 40, 95
5, 327840, Note_on_c, 6, 40, 95
5, 328320, Note_off_c, 6, 40, 95
5, 328320, Note_on_c, 6, 43, 95
5, 331200, Note_off_c, 6, 43, 95
5, 334080, Note_on_c, 6, 43, 95
5, 336960, Note_off_c, 6, 43, 95
5, 336960, Note_on_c, 6, 45, 95
5, 338400, Note_off_c, 6, 45, 95
5, 338400, Note_on_c, 6, 47, 95
5, 339360, Note_off_c, 6, 47, 95
5, 339360, Note_on_c, 6, 48, 95
5, 339840, Note_off_c, 6, 48, 95
5, 339840, Note_on_c, 6, 48, 95
5, 341280, Note_off_c, 6, 48, 95
5, 341280, Note_on_c, 6, 48, 95
5, 341760, Note_off_c, 6, 48, 95
5, 341760, Note_on_c, 6, 50, 95
5, 342240, Note_off_c, 6, 50, 95
5, 342240, Note_on_c, 6, 52, 95
5, 342720, Note_off_c, 6, 52, 95
5, 342720, Note_on_c, 6, 53, 95
5, 344160, Note_off_c, 6, 53, 95
5, 344160, Note_on_c, 6, 53, 95
5, 345600, Note_off_c, 6, 53, 95
5, 345600, Note_on_c, 6, 48, 95
5, 347040, Note_off_c, 6, 48, 95
5, 347040, Note_on_c, 6, 40, 95
5, 348480, Note_off_c, 6, 40, 95
5, 348480, Note_on_c, 6, 41, 95
5, 349920, Note_off_c, 6, 41, 95
5, 349920, Note_on_c, 6, 42, 95
5, 350880, Note_off_c, 6, 42, 95
5, 350880, Note_on_c, 6, 43, 95
5, 351360, Note_off_c, 6, 43, 95
5, 351360, Note_on_c, 6, 48, 95
5, 353760, Note_off_c, 6, 48, 95
5, 353760, Note_on_c, 6, 45, 95
5, 354240, Note_off_c, 6, 45, 95
5, 354240, Note_on_c, 6, 43, 95
5, 356640, Note_off_c, 6, 43, 95
5, 356640, Note_on_c, 6, 40, 95
5, 357120, Note_off_c, 6, 40, 95
5, 357120, Note_on_c, 6, 43, 95
5, 359520, Note_off_c, 6, 43, 95
5, 359520, Note_on_c, 6, 40, 95
5, 360000, Note_off_c, 6, 40, 95
5, 362400, Note_on_c, 6, 43, 95
5, 362880, Note_off_c, 6, 43, 95
5, 362880, Note_on_c, 6, 48, 95
5, 365280, Note_off_c, 6, 48, 95
5, 365280, Note_on_c, 6, 45, 95
5, 365760, Note_off_c, 6, 45, 95
5, 365760, Note_on_c, 6, 43, 95
5, 367200, Note_off_c, 6, 43, 95
5, 367200, Note_on_c, 6, 43, 95
5, 367680, Note_off_c, 6, 43, 95
5, 367680, Note_on_c, 6, 45, 95
5, 368160, Note_off_c, 6, 45, 95
5, 368160, Note_on_c, 6, 47, 95
5, 368640, Note_off_c, 6, 47, 95
5, 368640, Note_on_c, 6, 48, 95
5, 371520, Note_off_c, 6, 48, 95
5, 371520, Note_on_c, 6, 50, 95
5, 372960, Note_off_c, 6, 50, 95
5, 372960, Note_on_c, 6, 40, 95
5, 374400, Note_off_c, 6, 40, 95
5, 374400, Note_on_c, 6, 41, 95
5, 376800, Note_off_c, 6, 41, 95
5, 376800, Note_on_c, 6, 45, 95
5, 377280, Note_off_c, 6, 45, 95
5, 377280, Note_on_c, 6, 48, 95
5, 379680, Note_off_c, 6, 48, 95
5, 380160, Note_on_c, 6, 41, 95
5, 383040, Note_off_c, 6, 41, 95
5, 383040, Note_on_c, 6, 41, 95
5, 384480, Note_off_c, 6, 41, 95
5, 384480, Note_on_c, 6, 41, 95
5, 385440, Note_off_c, 6, 41, 95
5, 385440, Note_on_c, 6, 48, 95
5, 385920, Note_off_c, 6, 48, 95
5, 385920, Note_on_c, 6, 48, 95
5, 388320, Note_off_c, 6, 48, 95
5, 388320, Note_on_c, 6, 45, 95
5, 388800, Note_off_c, 6, 45, 95
5, 388800, Note_on_c, 6, 43, 95
5, 390720, Note_off_c, 6, 43, 95
5, 390720, Note_on_c, 6, 45, 95
5, 391200, Note_off_c, 6, 45, 95
5, 391200, Note_on_c, 6, 47, 95
5, 391680, Note_off_c, 6, 47, 95
5, 391680, Note_on_c, 6, 48, 95
5, 394080, Note_off_c, 6, 48, 95
5, 394080, Note_on_c, 6, 48, 95
5, 394560, Note_off_c, 6, 48, 95
5, 394560, Note_on_c, 6, 50, 95
5, 396000, Note_off_c, 6, 50, 95
5, 396000, Note_on_c, 6, 40, 95
5, 396960, Note_off_c, 6, 40, 95
5, 396960, Note_on_c, 6, 40, 95
5, 397440, Note_off_c, 6, 40, 95
5, 397440, Note_on_c, 6, 43, 95
5, 400320, Note_off_c, 6, 43, 95
5, 403200, Note_on_c, 6, 43, 95
5, 406080, Note_off_c, 6, 43, 95
5, 406080, Note_on_c, 6, 45, 95
5, 407520, Note_off_c, 6, 45, 95
5, 407520, Note_on_c, 6, 47, 95
5, 408480, Note_off_c, 6, 47, 95
5, 408480, Note_on_c, 6, 48, 95
5, 408960, Note_off_c, 6, 48, 95
5, 408960, Note_on_c, 6, 48, 95
5, 410400, Note_off_c, 6, 48, 95
5, 410400, Note_on_c, 6, 48, 95
5, 410880, Note_off_c, 6, 48, 95
5, 410880, Note_on_c, 6, 50, 95
5, 411360, Note_off_c, 6, 50, 95
5, 411360, Note_on_c, 6, 52, 95
5, 411840, Note_off_c, 6, 52, 95
5, 411840, Note_on_c, 6, 53, 95
5, 413280, Note_off_c, 6, 53, 95
5, 413280, Note_on_c, 6, 53, 95
5, 414720, Note_off_c, 6, 53, 95
5, 414720, Note_on_c, 6, 48, 95
5, 416160, Note_off_c, 6, 48, 95
5, 416160, Note_on_c, 6, 43, 95
5, 417120, Note_off_c, 6, 43, 95
5, 417120, Note_on_c, 6, 48, 95
5, 426240, Note_off_c, 6, 48, 95
5, 426240, End_track
0, 0, End_of_file
