0, 0, Header, 1, 9, 96
1, 0, Start_track
1, 0, Title_t, "All Around The World"
1, 0, Copyright_t, "olan"
1, 0, Sequencer_specific, 3, 0, 0, 65
1, 0, MIDI_port, 0
1, 0, System_exclusive, 10, 65, 16, 66, 18, 64, 0, 127, 0, 65, 247
1, 0, MIDI_port, 0
1, 0, Time_signature, 4, 2, 24, 8
1, 0, Key_signature, 0, "major"
1, 0, Tempo, 674157
1, 384, Cue_point_t, "MADE IN THE PHILIPPINES TEL/FAX - (632)-781-34-71olan202@yahoo.com- INDUSRIYA BAND (MANILA)"
1, 384, End_track
2, 0, Start_track
2, 0, MIDI_port, 0
2, 0, Title_t, ""
2, 80, Control_c, 0, 121, 0
2, 96, Control_c, 0, 0, 56
2, 97, Control_c, 0, 32, 0
2, 98, Program_c, 0, 4
2, 99, Control_c, 0, 7, 124
2, 99, Control_c, 0, 10, 64
2, 99, Control_c, 0, 11, 75
2, 100, Control_c, 0, 91, 100
2, 100, Control_c, 0, 93, 100
2, 768, Note_on_c, 0, 38, 120
2, 768, Note_on_c, 0, 54, 120
2, 768, Note_on_c, 0, 57, 120
2, 768, Note_on_c, 0, 61, 120
2, 1248, Control_c, 0, 64, 127
2, 1267, Note_on_c, 0, 54, 0
2, 1268, Note_on_c, 0, 57, 0
2, 1276, Note_on_c, 0, 61, 0
2, 1283, Note_on_c, 0, 38, 0
2, 1344, Note_on_c, 0, 40, 120
2, 1344, Note_on_c, 0, 56, 120
2, 1344, Note_on_c, 0, 59, 120
2, 1344, Note_on_c, 0, 64, 120
2, 1345, Control_c, 0, 64, 0
2, 1440, Control_c, 0, 64, 127
2, 1443, Note_on_c, 0, 64, 0
2, 1447, Note_on_c, 0, 59, 0
2, 1451, Note_on_c, 0, 56, 0
2, 1459, Note_on_c, 0, 40, 0
2, 1536, Note_on_c, 0, 38, 120
2, 1536, Note_on_c, 0, 54, 120
2, 1536, Note_on_c, 0, 57, 120
2, 1536, Note_on_c, 0, 61, 120
2, 1536, Control_c, 0, 64, 0
2, 2040, Note_on_c, 0, 57, 0
2, 2040, Control_c, 0, 64, 127
2, 2043, Note_on_c, 0, 54, 0
2, 2052, Note_on_c, 0, 61, 0
2, 2059, Note_on_c, 0, 38, 0
2, 2112, Note_on_c, 0, 40, 120
2, 2112, Note_on_c, 0, 56, 120
2, 2112, Note_on_c, 0, 59, 120
2, 2112, Note_on_c, 0, 64, 120
2, 2135, Control_c, 0, 64, 0
2, 2207, Control_c, 0, 64, 127
2, 2215, Note_on_c, 0, 59, 0
2, 2216, Note_on_c, 0, 64, 0
2, 2219, Note_on_c, 0, 56, 0
2, 2227, Note_on_c, 0, 40, 0
2, 2304, Note_on_c, 0, 38, 120
2, 2304, Note_on_c, 0, 54, 120
2, 2304, Note_on_c, 0, 57, 120
2, 2304, Note_on_c, 0, 61, 120
2, 2304, Control_c, 0, 64, 0
2, 2759, Control_c, 0, 64, 127
2, 2791, Note_on_c, 0, 57, 0
2, 2791, Note_on_c, 0, 54, 0
2, 2800, Note_on_c, 0, 61, 0
2, 2806, Note_on_c, 0, 38, 0
2, 2880, Note_on_c, 0, 40, 120
2, 2880, Note_on_c, 0, 56, 120
2, 2880, Note_on_c, 0, 59, 120
2, 2880, Note_on_c, 0, 64, 120
2, 2880, Control_c, 0, 64, 0
2, 2975, Control_c, 0, 64, 127
2, 3000, Note_on_c, 0, 59, 0
2, 3000, Note_on_c, 0, 56, 0
2, 3007, Note_on_c, 0, 64, 0
2, 3017, Note_on_c, 0, 40, 0
2, 3072, Note_on_c, 0, 41, 120
2, 3072, Note_on_c, 0, 55, 120
2, 3072, Note_on_c, 0, 58, 120
2, 3072, Note_on_c, 0, 63, 120
2, 3072, Control_c, 0, 64, 0
2, 3359, Control_c, 0, 64, 127
2, 3379, Note_on_c, 0, 63, 0
2, 3379, Note_on_c, 0, 58, 0
2, 3379, Note_on_c, 0, 55, 0
2, 3391, Note_on_c, 0, 41, 0
2, 3455, Control_c, 0, 64, 0
2, 3456, Note_on_c, 0, 41, 120
2, 3456, Note_on_c, 0, 58, 120
2, 3456, Note_on_c, 0, 63, 120
2, 3456, Note_on_c, 0, 67, 120
2, 3526, Control_c, 0, 64, 127
2, 3551, Note_on_c, 0, 63, 0
2, 3555, Note_on_c, 0, 58, 0
2, 3556, Note_on_c, 0, 67, 0
2, 3571, Note_on_c, 0, 41, 0
2, 3647, Control_c, 0, 64, 0
2, 3648, Note_on_c, 0, 41, 120
2, 3648, Note_on_c, 0, 63, 120
2, 3648, Note_on_c, 0, 67, 120
2, 3648, Note_on_c, 0, 70, 120
2, 3718, Control_c, 0, 64, 127
2, 3747, Note_on_c, 0, 67, 0
2, 3752, Note_on_c, 0, 70, 0
2, 3755, Note_on_c, 0, 63, 0
2, 3767, Note_on_c, 0, 41, 0
2, 3839, Control_c, 0, 64, 0
2, 3840, Note_on_c, 0, 39, 120
2, 3840, Note_on_c, 0, 58, 120
2, 3840, Note_on_c, 0, 61, 120
2, 3840, Note_on_c, 0, 65, 120
2, 3895, Note_on_c, 0, 39, 0
2, 3899, Note_on_c, 0, 58, 0
2, 3899, Note_on_c, 0, 61, 0
2, 3899, Note_on_c, 0, 65, 0
2, 3912, Note_on_c, 0, 39, 120
2, 3912, Note_on_c, 0, 58, 120
2, 3912, Note_on_c, 0, 61, 120
2, 3912, Note_on_c, 0, 65, 120
2, 3923, Note_on_c, 0, 58, 0
2, 3928, Note_on_c, 0, 39, 0
2, 3928, Note_on_c, 0, 61, 0
2, 3928, Note_on_c, 0, 65, 0
2, 4224, Note_on_c, 0, 39, 120
2, 4224, Note_on_c, 0, 58, 120
2, 4224, Note_on_c, 0, 61, 120
2, 4224, Note_on_c, 0, 65, 120
2, 4271, Note_on_c, 0, 39, 0
2, 4275, Note_on_c, 0, 65, 0
2, 4279, Note_on_c, 0, 61, 0
2, 4280, Note_on_c, 0, 58, 0
2, 4296, Note_on_c, 0, 39, 120
2, 4296, Note_on_c, 0, 58, 120
2, 4296, Note_on_c, 0, 61, 120
2, 4296, Note_on_c, 0, 65, 120
2, 4307, Note_on_c, 0, 65, 0
2, 4307, Note_on_c, 0, 61, 0
2, 4307, Note_on_c, 0, 58, 0
2, 4312, Note_on_c, 0, 39, 0
2, 4367, Control_c, 0, 64, 127
2, 4368, Note_on_c, 0, 39, 120
2, 4368, Note_on_c, 0, 58, 120
2, 4368, Note_on_c, 0, 61, 120
2, 4368, Note_on_c, 0, 65, 120
2, 4379, Note_on_c, 0, 39, 0
2, 4387, Note_on_c, 0, 58, 0
2, 4387, Note_on_c, 0, 65, 0
2, 4392, Note_on_c, 0, 61, 0
2, 4414, Control_c, 0, 64, 0
2, 4416, Note_on_c, 0, 39, 120
2, 4416, Note_on_c, 0, 56, 120
2, 4416, Note_on_c, 0, 60, 120
2, 4416, Note_on_c, 0, 63, 120
2, 4510, Control_c, 0, 64, 127
2, 4519, Note_on_c, 0, 56, 0
2, 4523, Note_on_c, 0, 60, 0
2, 4527, Note_on_c, 0, 39, 0
2, 4527, Note_on_c, 0, 63, 0
2, 4607, Control_c, 0, 64, 0
2, 4608, Note_on_c, 0, 39, 120
2, 4608, Note_on_c, 0, 58, 120
2, 4608, Note_on_c, 0, 61, 120
2, 4608, Note_on_c, 0, 65, 120
2, 4660, Note_on_c, 0, 65, 0
2, 4660, Note_on_c, 0, 39, 0
2, 4663, Note_on_c, 0, 61, 0
2, 4664, Note_on_c, 0, 58, 0
2, 4680, Note_on_c, 0, 39, 120
2, 4680, Note_on_c, 0, 58, 120
2, 4680, Note_on_c, 0, 61, 120
2, 4680, Note_on_c, 0, 65, 120
2, 4687, Note_on_c, 0, 61, 0
2, 4691, Note_on_c, 0, 65, 0
2, 4692, Note_on_c, 0, 58, 0
2, 4696, Note_on_c, 0, 39, 0
2, 4992, Note_on_c, 0, 39, 120
2, 4992, Note_on_c, 0, 58, 120
2, 4992, Note_on_c, 0, 61, 120
2, 4992, Note_on_c, 0, 65, 120
2, 5039, Note_on_c, 0, 39, 0
2, 5043, Note_on_c, 0, 65, 0
2, 5048, Note_on_c, 0, 61, 0
2, 5048, Note_on_c, 0, 58, 0
2, 5064, Note_on_c, 0, 39, 120
2, 5064, Note_on_c, 0, 58, 120
2, 5064, Note_on_c, 0, 61, 120
2, 5064, Note_on_c, 0, 65, 120
2, 5071, Note_on_c, 0, 58, 0
2, 5075, Note_on_c, 0, 65, 0
2, 5075, Note_on_c, 0, 61, 0
2, 5080, Note_on_c, 0, 39, 0
2, 5134, Control_c, 0, 64, 127
2, 5136, Note_on_c, 0, 39, 120
2, 5136, Note_on_c, 0, 58, 120
2, 5136, Note_on_c, 0, 61, 120
2, 5136, Note_on_c, 0, 65, 120
2, 5147, Note_on_c, 0, 58, 0
2, 5147, Note_on_c, 0, 39, 0
2, 5152, Note_on_c, 0, 61, 0
2, 5152, Note_on_c, 0, 65, 0
2, 5182, Control_c, 0, 64, 0
2, 5184, Note_on_c, 0, 39, 120
2, 5184, Note_on_c, 0, 56, 120
2, 5184, Note_on_c, 0, 60, 120
2, 5184, Note_on_c, 0, 63, 120
2, 5254, Control_c, 0, 64, 127
2, 5259, Note_on_c, 0, 60, 0
2, 5271, Note_on_c, 0, 63, 0
2, 5272, Note_on_c, 0, 56, 0
2, 5275, Note_on_c, 0, 39, 0
2, 5302, Control_c, 0, 64, 0
2, 5326, Control_c, 0, 64, 127
2, 5328, Note_on_c, 0, 39, 120
2, 5328, Note_on_c, 0, 54, 120
2, 5328, Note_on_c, 0, 58, 120
2, 5328, Note_on_c, 0, 61, 120
2, 5351, Note_on_c, 0, 58, 0
2, 5351, Note_on_c, 0, 39, 0
2, 5355, Note_on_c, 0, 54, 0
2, 5371, Note_on_c, 0, 61, 0
2, 5374, Control_c, 0, 64, 0
2, 5376, Note_on_c, 0, 41, 120
2, 5376, Note_on_c, 0, 56, 120
2, 5376, Note_on_c, 0, 60, 120
2, 5376, Note_on_c, 0, 63, 120
2, 5432, Note_on_c, 0, 41, 0
2, 5439, Note_on_c, 0, 56, 0
2, 5439, Note_on_c, 0, 60, 0
2, 5440, Note_on_c, 0, 63, 0
2, 5448, Note_on_c, 0, 41, 120
2, 5448, Note_on_c, 0, 56, 120
2, 5448, Note_on_c, 0, 60, 120
2, 5448, Note_on_c, 0, 63, 120
2, 5459, Note_on_c, 0, 56, 0
2, 5464, Note_on_c, 0, 63, 0
2, 5464, Note_on_c, 0, 60, 0
2, 5468, Note_on_c, 0, 41, 0
2, 5710, Control_c, 0, 64, 127
2, 5712, Note_on_c, 0, 41, 120
2, 5712, Note_on_c, 0, 56, 120
2, 5712, Note_on_c, 0, 60, 120
2, 5712, Note_on_c, 0, 63, 120
2, 5732, Note_on_c, 0, 60, 0
2, 5732, Note_on_c, 0, 41, 0
2, 5732, Note_on_c, 0, 56, 0
2, 5735, Note_on_c, 0, 63, 0
2, 5758, Control_c, 0, 64, 0
2, 5760, Note_on_c, 0, 42, 120
2, 5760, Note_on_c, 0, 58, 120
2, 5760, Note_on_c, 0, 61, 120
2, 5760, Note_on_c, 0, 65, 120
2, 5816, Note_on_c, 0, 65, 0
2, 5816, Note_on_c, 0, 42, 0
2, 5819, Note_on_c, 0, 61, 0
2, 5820, Note_on_c, 0, 58, 0
2, 5832, Note_on_c, 0, 42, 120
2, 5832, Note_on_c, 0, 58, 120
2, 5832, Note_on_c, 0, 61, 120
2, 5832, Note_on_c, 0, 65, 120
2, 5843, Note_on_c, 0, 65, 0
2, 5843, Note_on_c, 0, 42, 0
2, 5843, Note_on_c, 0, 58, 0
2, 5844, Note_on_c, 0, 61, 0
2, 6094, Control_c, 0, 64, 127
2, 6096, Note_on_c, 0, 42, 120
2, 6096, Note_on_c, 0, 58, 120
2, 6096, Note_on_c, 0, 61, 120
2, 6096, Note_on_c, 0, 65, 120
2, 6103, Note_on_c, 0, 65, 0
2, 6107, Note_on_c, 0, 61, 0
2, 6107, Note_on_c, 0, 58, 0
2, 6108, Note_on_c, 0, 42, 0
2, 6141, Control_c, 0, 64, 0
2, 6144, Note_on_c, 0, 37, 120
2, 6144, Note_on_c, 0, 53, 120
2, 6144, Note_on_c, 0, 56, 120
2, 6144, Note_on_c, 0, 60, 120
2, 6213, Control_c, 0, 64, 127
2, 6223, Note_on_c, 0, 56, 0
2, 6223, Note_on_c, 0, 53, 0
2, 6224, Note_on_c, 0, 60, 0
2, 6256, Note_on_c, 0, 37, 0
2, 6526, Control_c, 0, 64, 0
2, 6528, Note_on_c, 0, 36, 120
2, 6528, Note_on_c, 0, 55, 120
2, 6528, Note_on_c, 0, 58, 120
2, 6528, Note_on_c, 0, 63, 120
2, 6597, Control_c, 0, 64, 127
2, 6635, Note_on_c, 0, 63, 0
2, 6636, Note_on_c, 0, 55, 0
2, 6640, Note_on_c, 0, 58, 0
2, 6644, Note_on_c, 0, 36, 0
2, 6718, Control_c, 0, 64, 0
2, 6720, Note_on_c, 0, 41, 120
2, 6720, Note_on_c, 0, 57, 120
2, 6720, Note_on_c, 0, 61, 120
2, 6720, Note_on_c, 0, 65, 120
2, 6789, Control_c, 0, 64, 127
2, 6828, Note_on_c, 0, 65, 0
2, 6831, Note_on_c, 0, 57, 0
2, 6836, Note_on_c, 0, 61, 0
2, 6840, Note_on_c, 0, 41, 0
2, 6910, Control_c, 0, 64, 0
2, 6912, Note_on_c, 0, 39, 120
2, 6912, Note_on_c, 0, 54, 120
2, 6912, Note_on_c, 0, 58, 120
2, 6912, Note_on_c, 0, 61, 120
2, 7197, Control_c, 0, 64, 127
2, 7231, Note_on_c, 0, 54, 0
2, 7236, Note_on_c, 0, 58, 0
2, 7239, Note_on_c, 0, 61, 0
2, 7240, Note_on_c, 0, 39, 0
2, 7293, Control_c, 0, 64, 0
2, 7296, Note_on_c, 0, 39, 120
2, 7296, Note_on_c, 0, 56, 120
2, 7296, Note_on_c, 0, 60, 120
2, 7296, Note_on_c, 0, 63, 120
2, 7604, Control_c, 0, 64, 127
2, 7619, Note_on_c, 0, 60, 0
2, 7620, Note_on_c, 0, 56, 0
2, 7623, Note_on_c, 0, 63, 0
2, 7627, Note_on_c, 0, 39, 0
2, 7677, Control_c, 0, 64, 0
2, 7680, Note_on_c, 0, 37, 120
2, 7680, Note_on_c, 0, 53, 120
2, 7680, Note_on_c, 0, 56, 120
2, 7680, Note_on_c, 0, 60, 120
2, 7964, Control_c, 0, 64, 127
2, 7979, Note_on_c, 0, 56, 0
2, 7980, Note_on_c, 0, 53, 0
2, 7983, Note_on_c, 0, 37, 0
2, 7983, Note_on_c, 0, 60, 0
2, 8061, Control_c, 0, 64, 0
2, 8064, Note_on_c, 0, 46, 120
2, 8064, Note_on_c, 0, 56, 120
2, 8064, Note_on_c, 0, 61, 120
2, 8064, Note_on_c, 0, 65, 120
2, 8348, Control_c, 0, 64, 127
2, 8387, Note_on_c, 0, 65, 0
2, 8391, Note_on_c, 0, 61, 0
2, 8399, Note_on_c, 0, 56, 0
2, 8399, Note_on_c, 0, 46, 0
2, 8445, Control_c, 0, 64, 0
2, 8448, Note_on_c, 0, 39, 120
2, 8448, Note_on_c, 0, 54, 120
2, 8448, Note_on_c, 0, 58, 120
2, 8448, Note_on_c, 0, 61, 120
2, 8732, Control_c, 0, 64, 127
2, 8771, Note_on_c, 0, 58, 0
2, 8771, Note_on_c, 0, 54, 0
2, 8778, Note_on_c, 0, 39, 0
2, 8787, Note_on_c, 0, 61, 0
2, 8829, Control_c, 0, 64, 0
2, 8832, Note_on_c, 0, 39, 120
2, 8832, Note_on_c, 0, 56, 120
2, 8832, Note_on_c, 0, 60, 120
2, 8832, Note_on_c, 0, 63, 120
2, 9140, Control_c, 0, 64, 127
2, 9159, Note_on_c, 0, 63, 0
2, 9159, Note_on_c, 0, 60, 0
2, 9159, Note_on_c, 0, 56, 0
2, 9164, Note_on_c, 0, 39, 0
2, 9216, Note_on_c, 0, 37, 120
2, 9216, Note_on_c, 0, 53, 120
2, 9216, Note_on_c, 0, 56, 120
2, 9216, Note_on_c, 0, 60, 120
2, 9235, Control_c, 0, 64, 0
2, 9524, Control_c, 0, 64, 127
2, 9539, Note_on_c, 0, 53, 0
2, 9543, Note_on_c, 0, 60, 0
2, 9543, Note_on_c, 0, 56, 0
2, 9551, Note_on_c, 0, 37, 0
2, 9600, Note_on_c, 0, 36, 120
2, 9600, Note_on_c, 0, 55, 120
2, 9600, Note_on_c, 0, 58, 120
2, 9600, Note_on_c, 0, 63, 120
2, 9619, Control_c, 0, 64, 0
2, 9691, Control_c, 0, 64, 127
2, 9735, Note_on_c, 0, 36, 0
2, 9736, Note_on_c, 0, 55, 0
2, 9736, Note_on_c, 0, 58, 0
2, 9740, Note_on_c, 0, 63, 0
2, 9788, Control_c, 0, 64, 0
2, 9792, Note_on_c, 0, 41, 120
2, 9792, Note_on_c, 0, 57, 120
2, 9792, Note_on_c, 0, 61, 120
2, 9792, Note_on_c, 0, 65, 120
2, 9883, Control_c, 0, 64, 127
2, 9903, Note_on_c, 0, 65, 0
2, 9903, Note_on_c, 0, 57, 0
2, 9904, Note_on_c, 0, 41, 0
2, 9907, Note_on_c, 0, 61, 0
2, 9980, Control_c, 0, 64, 0
2, 9984, Note_on_c, 0, 39, 120
2, 9984, Note_on_c, 0, 54, 120
2, 9984, Note_on_c, 0, 58, 120
2, 9984, Note_on_c, 0, 61, 120
2, 10267, Control_c, 0, 64, 127
2, 10307, Note_on_c, 0, 58, 0
2, 10307, Note_on_c, 0, 54, 0
2, 10319, Note_on_c, 0, 39, 0
2, 10323, Note_on_c, 0, 61, 0
2, 10364, Control_c, 0, 64, 0
2, 10368, Note_on_c, 0, 39, 120
2, 10368, Note_on_c, 0, 56, 120
2, 10368, Note_on_c, 0, 60, 120
2, 10368, Note_on_c, 0, 63, 120
2, 10675, Control_c, 0, 64, 127
2, 10704, Note_on_c, 0, 63, 0
2, 10704, Note_on_c, 0, 60, 0
2, 10707, Note_on_c, 0, 56, 0
2, 10711, Note_on_c, 0, 39, 0
2, 10752, Note_on_c, 0, 37, 120
2, 10752, Note_on_c, 0, 53, 120
2, 10752, Note_on_c, 0, 56, 120
2, 10752, Note_on_c, 0, 60, 120
2, 10771, Control_c, 0, 64, 0
2, 11035, Control_c, 0, 64, 127
2, 11056, Note_on_c, 0, 56, 0
2, 11056, Note_on_c, 0, 53, 0
2, 11060, Note_on_c, 0, 60, 0
2, 11063, Note_on_c, 0, 37, 0
2, 11132, Control_c, 0, 64, 0
2, 11136, Note_on_c, 0, 46, 120
2, 11136, Note_on_c, 0, 56, 120
2, 11136, Note_on_c, 0, 61, 120
2, 11136, Note_on_c, 0, 65, 120
2, 11442, Control_c, 0, 64, 127
2, 11459, Note_on_c, 0, 65, 0
2, 11476, Note_on_c, 0, 61, 0
2, 11479, Note_on_c, 0, 56, 0
2, 11483, Note_on_c, 0, 46, 0
2, 11515, Control_c, 0, 64, 0
2, 11520, Note_on_c, 0, 39, 120
2, 11520, Note_on_c, 0, 54, 120
2, 11520, Note_on_c, 0, 58, 120
2, 11520, Note_on_c, 0, 61, 120
2, 11803, Control_c, 0, 64, 127
2, 11844, Note_on_c, 0, 58, 0
2, 11844, Note_on_c, 0, 54, 0
2, 11847, Note_on_c, 0, 39, 0
2, 11852, Note_on_c, 0, 61, 0
2, 11899, Control_c, 0, 64, 0
2, 11904, Note_on_c, 0, 39, 120
2, 11904, Note_on_c, 0, 56, 120
2, 11904, Note_on_c, 0, 60, 120
2, 11904, Note_on_c, 0, 63, 120
2, 12186, Control_c, 0, 64, 127
2, 12215, Note_on_c, 0, 63, 0
2, 12215, Note_on_c, 0, 60, 0
2, 12220, Note_on_c, 0, 56, 0
2, 12227, Note_on_c, 0, 39, 0
2, 12283, Control_c, 0, 64, 0
2, 12288, Note_on_c, 0, 37, 120
2, 12288, Note_on_c, 0, 53, 120
2, 12288, Note_on_c, 0, 56, 120
2, 12288, Note_on_c, 0, 60, 120
2, 12546, Control_c, 0, 64, 127
2, 12591, Note_on_c, 0, 53, 0
2, 12592, Note_on_c, 0, 60, 0
2, 12592, Note_on_c, 0, 56, 0
2, 12607, Note_on_c, 0, 37, 0
2, 12667, Control_c, 0, 64, 0
2, 12672, Note_on_c, 0, 46, 120
2, 12672, Note_on_c, 0, 56, 120
2, 12672, Note_on_c, 0, 61, 120
2, 12672, Note_on_c, 0, 65, 120
2, 12954, Control_c, 0, 64, 127
2, 12979, Note_on_c, 0, 61, 0
2, 12980, Note_on_c, 0, 65, 0
2, 12983, Note_on_c, 0, 56, 0
2, 13007, Note_on_c, 0, 46, 0
2, 13051, Control_c, 0, 64, 0
2, 13056, Note_on_c, 0, 41, 120
2, 13056, Note_on_c, 0, 58, 120
2, 13056, Note_on_c, 0, 63, 120
2, 13056, Note_on_c, 0, 67, 120
2, 13338, Control_c, 0, 64, 127
2, 13375, Note_on_c, 0, 58, 0
2, 13375, Note_on_c, 0, 41, 0
2, 13384, Note_on_c, 0, 67, 0
2, 13395, Note_on_c, 0, 63, 0
2, 13440, Note_on_c, 0, 38, 120
2, 13440, Note_on_c, 0, 60, 120
2, 13440, Note_on_c, 0, 65, 120
2, 13440, Note_on_c, 0, 69, 120
2, 13458, Control_c, 0, 64, 0
2, 13721, Control_c, 0, 64, 127
2, 13747, Note_on_c, 0, 65, 0
2, 13755, Note_on_c, 0, 60, 0
2, 13759, Note_on_c, 0, 69, 0
2, 13771, Note_on_c, 0, 38, 0
2, 13824, Note_on_c, 0, 41, 120
2, 13824, Note_on_c, 0, 58, 120
2, 13824, Note_on_c, 0, 63, 120
2, 13824, Note_on_c, 0, 67, 120
2, 13841, Control_c, 0, 64, 0
2, 14129, Control_c, 0, 64, 127
2, 14143, Note_on_c, 0, 58, 0
2, 14156, Note_on_c, 0, 41, 0
2, 14156, Note_on_c, 0, 67, 0
2, 14158, Note_on_c, 0, 63, 0
2, 14208, Note_on_c, 0, 38, 120
2, 14208, Note_on_c, 0, 60, 120
2, 14208, Note_on_c, 0, 65, 120
2, 14208, Note_on_c, 0, 69, 120
2, 14225, Control_c, 0, 64, 0
2, 14297, Control_c, 0, 64, 127
2, 14327, Note_on_c, 0, 65, 0
2, 14339, Note_on_c, 0, 60, 0
2, 14347, Note_on_c, 0, 69, 0
2, 14367, Note_on_c, 0, 38, 0
2, 14394, Control_c, 0, 64, 0
2, 14400, Note_on_c, 0, 41, 120
2, 14400, Note_on_c, 0, 58, 120
2, 14400, Note_on_c, 0, 63, 120
2, 14400, Note_on_c, 0, 67, 120
2, 14465, Control_c, 0, 64, 127
2, 14507, Note_on_c, 0, 67, 0
2, 14507, Note_on_c, 0, 63, 0
2, 14515, Note_on_c, 0, 58, 0
2, 14516, Note_on_c, 0, 41, 0
2, 14586, Control_c, 0, 64, 0
2, 14592, Note_on_c, 0, 39, 120
2, 14592, Note_on_c, 0, 58, 120
2, 14592, Note_on_c, 0, 61, 120
2, 14592, Note_on_c, 0, 65, 120
2, 14639, Note_on_c, 0, 39, 0
2, 14640, Note_on_c, 0, 39, 120
2, 14647, Note_on_c, 0, 65, 0
2, 14648, Note_on_c, 0, 58, 0
2, 14648, Note_on_c, 0, 61, 0
2, 14655, Note_on_c, 0, 39, 0
2, 14664, Note_on_c, 0, 58, 120
2, 14664, Note_on_c, 0, 61, 120
2, 14664, Note_on_c, 0, 65, 120
2, 14671, Note_on_c, 0, 61, 0
2, 14676, Note_on_c, 0, 65, 0
2, 14676, Note_on_c, 0, 58, 0
2, 14976, Note_on_c, 0, 39, 120
2, 14976, Note_on_c, 0, 58, 120
2, 14976, Note_on_c, 0, 61, 120
2, 14976, Note_on_c, 0, 65, 120
2, 15027, Note_on_c, 0, 39, 0
2, 15032, Note_on_c, 0, 58, 0
2, 15032, Note_on_c, 0, 61, 0
2, 15032, Note_on_c, 0, 65, 0
2, 15048, Note_on_c, 0, 39, 120
2, 15048, Note_on_c, 0, 58, 120
2, 15048, Note_on_c, 0, 61, 120
2, 15048, Note_on_c, 0, 65, 120
2, 15059, Note_on_c, 0, 61, 0
2, 15059, Note_on_c, 0, 58, 0
2, 15063, Note_on_c, 0, 39, 0
2, 15064, Note_on_c, 0, 65, 0
2, 15113, Control_c, 0, 64, 127
2, 15120, Note_on_c, 0, 39, 120
2, 15120, Note_on_c, 0, 58, 120
2, 15120, Note_on_c, 0, 61, 120
2, 15120, Note_on_c, 0, 65, 120
2, 15131, Note_on_c, 0, 58, 0
2, 15131, Note_on_c, 0, 39, 0
2, 15139, Note_on_c, 0, 61, 0
2, 15140, Note_on_c, 0, 65, 0
2, 15161, Control_c, 0, 64, 0
2, 15168, Note_on_c, 0, 39, 120
2, 15168, Note_on_c, 0, 56, 120
2, 15168, Note_on_c, 0, 60, 120
2, 15168, Note_on_c, 0, 63, 120
2, 15256, Control_c, 0, 64, 127
2, 15296, Note_on_c, 0, 60, 0
2, 15296, Note_on_c, 0, 56, 0
2, 15299, Note_on_c, 0, 39, 0
2, 15299, Note_on_c, 0, 63, 0
2, 15353, Control_c, 0, 64, 0
2, 15360, Note_on_c, 0, 39, 120
2, 15360, Note_on_c, 0, 58, 120
2, 15360, Note_on_c, 0, 61, 120
2, 15360, Note_on_c, 0, 65, 120
2, 15411, Note_on_c, 0, 39, 0
2, 15416, Note_on_c, 0, 65, 0
2, 15419, Note_on_c, 0, 58, 0
2, 15420, Note_on_c, 0, 61, 0
2, 15432, Note_on_c, 0, 39, 120
2, 15432, Note_on_c, 0, 58, 120
2, 15432, Note_on_c, 0, 61, 120
2, 15432, Note_on_c, 0, 65, 120
2, 15443, Note_on_c, 0, 61, 0
2, 15448, Note_on_c, 0, 39, 0
2, 15448, Note_on_c, 0, 58, 0
2, 15448, Note_on_c, 0, 65, 0
2, 15744, Note_on_c, 0, 39, 120
2, 15744, Note_on_c, 0, 58, 120
2, 15744, Note_on_c, 0, 61, 120
2, 15744, Note_on_c, 0, 65, 120
2, 15800, Note_on_c, 0, 65, 0
2, 15800, Note_on_c, 0, 58, 0
2, 15803, Note_on_c, 0, 61, 0
2, 15804, Note_on_c, 0, 39, 0
2, 15816, Note_on_c, 0, 39, 120
2, 15816, Note_on_c, 0, 58, 120
2, 15816, Note_on_c, 0, 61, 120
2, 15816, Note_on_c, 0, 65, 120
2, 15823, Note_on_c, 0, 58, 0
2, 15827, Note_on_c, 0, 65, 0
2, 15827, Note_on_c, 0, 61, 0
2, 15831, Note_on_c, 0, 39, 0
2, 15881, Control_c, 0, 64, 127
2, 15888, Note_on_c, 0, 39, 120
2, 15888, Note_on_c, 0, 58, 120
2, 15888, Note_on_c, 0, 61, 120
2, 15888, Note_on_c, 0, 65, 120
2, 15904, Note_on_c, 0, 58, 0
2, 15904, Note_on_c, 0, 39, 0
2, 15911, Note_on_c, 0, 65, 0
2, 15919, Note_on_c, 0, 61, 0
2, 15929, Control_c, 0, 64, 0
2, 15936, Note_on_c, 0, 39, 120
2, 15936, Note_on_c, 0, 56, 120
2, 15936, Note_on_c, 0, 60, 120
2, 15936, Note_on_c, 0, 63, 120
2, 16024, Note_on_c, 0, 60, 0
2, 16025, Control_c, 0, 64, 127
2, 16040, Note_on_c, 0, 63, 0
2, 16043, Note_on_c, 0, 56, 0
2, 16064, Note_on_c, 0, 39, 0
2, 16080, Note_on_c, 0, 54, 120
2, 16080, Note_on_c, 0, 58, 120
2, 16080, Note_on_c, 0, 61, 120
2, 16103, Note_on_c, 0, 58, 0
2, 16107, Note_on_c, 0, 54, 0
2, 16119, Note_on_c, 0, 61, 0
2, 16121, Control_c, 0, 64, 0
2, 16128, Note_on_c, 0, 41, 120
2, 16128, Note_on_c, 0, 56, 120
2, 16128, Note_on_c, 0, 60, 120
2, 16128, Note_on_c, 0, 63, 120
2, 16179, Note_on_c, 0, 41, 0
2, 16184, Note_on_c, 0, 56, 0
2, 16188, Note_on_c, 0, 60, 0
2, 16188, Note_on_c, 0, 63, 0
2, 16200, Note_on_c, 0, 41, 120
2, 16200, Note_on_c, 0, 56, 120
2, 16200, Note_on_c, 0, 60, 120
2, 16200, Note_on_c, 0, 63, 120
2, 16216, Note_on_c, 0, 60, 0
2, 16219, Note_on_c, 0, 56, 0
2, 16220, Note_on_c, 0, 41, 0
2, 16220, Note_on_c, 0, 63, 0
2, 16464, Note_on_c, 0, 41, 120
2, 16464, Note_on_c, 0, 56, 120
2, 16464, Note_on_c, 0, 60, 120
2, 16464, Note_on_c, 0, 63, 120
2, 16481, Control_c, 0, 64, 127
2, 16484, Note_on_c, 0, 56, 0
2, 16487, Note_on_c, 0, 60, 0
2, 16488, Note_on_c, 0, 41, 0
2, 16488, Note_on_c, 0, 63, 0
2, 16505, Control_c, 0, 64, 0
2, 16512, Note_on_c, 0, 42, 120
2, 16512, Note_on_c, 0, 58, 120
2, 16512, Note_on_c, 0, 61, 120
2, 16512, Note_on_c, 0, 65, 120
2, 16567, Note_on_c, 0, 42, 0
2, 16568, Note_on_c, 0, 65, 0
2, 16572, Note_on_c, 0, 61, 0
2, 16572, Note_on_c, 0, 58, 0
2, 16584, Note_on_c, 0, 42, 120
2, 16584, Note_on_c, 0, 58, 120
2, 16584, Note_on_c, 0, 61, 120
2, 16584, Note_on_c, 0, 65, 120
2, 16604, Note_on_c, 0, 61, 0
2, 16604, Note_on_c, 0, 42, 0
2, 16604, Note_on_c, 0, 58, 0
2, 16608, Note_on_c, 0, 65, 0
2, 16841, Control_c, 0, 64, 127
2, 16848, Note_on_c, 0, 42, 120
2, 16848, Note_on_c, 0, 58, 120
2, 16848, Note_on_c, 0, 61, 120
2, 16848, Note_on_c, 0, 65, 120
2, 16859, Note_on_c, 0, 65, 0
2, 16863, Note_on_c, 0, 42, 0
2, 16863, Note_on_c, 0, 58, 0
2, 16868, Note_on_c, 0, 61, 0
2, 16896, Note_on_c, 0, 37, 120
2, 16896, Note_on_c, 0, 53, 120
2, 16896, Note_on_c, 0, 56, 120
2, 16896, Note_on_c, 0, 60, 120
2, 16912, Control_c, 0, 64, 0
2, 17152, Control_c, 0, 64, 127
2, 17184, Note_on_c, 0, 56, 0
2, 17187, Note_on_c, 0, 60, 0
2, 17187, Note_on_c, 0, 53, 0
2, 17215, Note_on_c, 0, 37, 0
2, 17273, Control_c, 0, 64, 0
2, 17280, Note_on_c, 0, 36, 120
2, 17280, Note_on_c, 0, 55, 120
2, 17280, Note_on_c, 0, 58, 120
2, 17280, Note_on_c, 0, 63, 120
2, 17320, Control_c, 0, 64, 127
2, 17379, Note_on_c, 0, 63, 0
2, 17383, Note_on_c, 0, 58, 0
2, 17387, Note_on_c, 0, 55, 0
2, 17398, Note_on_c, 0, 36, 0
2, 17464, Control_c, 0, 64, 0
2, 17472, Note_on_c, 0, 41, 120
2, 17472, Note_on_c, 0, 57, 120
2, 17472, Note_on_c, 0, 61, 120
2, 17472, Note_on_c, 0, 65, 120
2, 17535, Control_c, 0, 64, 127
2, 17571, Note_on_c, 0, 65, 0
2, 17579, Note_on_c, 0, 61, 0
2, 17579, Note_on_c, 0, 57, 0
2, 17584, Note_on_c, 0, 41, 0
2, 17656, Control_c, 0, 64, 0
2, 17664, Note_on_c, 0, 39, 120
2, 17664, Note_on_c, 0, 58, 120
2, 17664, Note_on_c, 0, 61, 120
2, 17664, Note_on_c, 0, 65, 120
2, 17719, Note_on_c, 0, 39, 0
2, 17723, Note_on_c, 0, 58, 0
2, 17724, Note_on_c, 0, 65, 0
2, 17727, Note_on_c, 0, 61, 0
2, 17736, Note_on_c, 0, 39, 120
2, 17736, Note_on_c, 0, 58, 120
2, 17736, Note_on_c, 0, 61, 120
2, 17736, Note_on_c, 0, 65, 120
2, 17747, Note_on_c, 0, 58, 0
2, 17748, Note_on_c, 0, 61, 0
2, 17752, Note_on_c, 0, 65, 0
2, 17756, Note_on_c, 0, 39, 0
2, 18048, Note_on_c, 0, 39, 120
2, 18048, Note_on_c, 0, 58, 120
2, 18048, Note_on_c, 0, 61, 120
2, 18048, Note_on_c, 0, 65, 120
2, 18107, Note_on_c, 0, 39, 0
2, 18112, Note_on_c, 0, 58, 0
2, 18112, Note_on_c, 0, 61, 0
2, 18112, Note_on_c, 0, 65, 0
2, 18120, Note_on_c, 0, 39, 120
2, 18120, Note_on_c, 0, 58, 120
2, 18120, Note_on_c, 0, 61, 120
2, 18120, Note_on_c, 0, 65, 120
2, 18131, Note_on_c, 0, 61, 0
2, 18132, Note_on_c, 0, 58, 0
2, 18139, Note_on_c, 0, 65, 0
2, 18140, Note_on_c, 0, 39, 0
2, 18184, Control_c, 0, 64, 127
2, 18192, Note_on_c, 0, 39, 120
2, 18192, Note_on_c, 0, 58, 120
2, 18192, Note_on_c, 0, 61, 120
2, 18192, Note_on_c, 0, 65, 120
2, 18203, Note_on_c, 0, 58, 0
2, 18207, Note_on_c, 0, 39, 0
2, 18207, Note_on_c, 0, 65, 0
2, 18220, Note_on_c, 0, 61, 0
2, 18232, Control_c, 0, 64, 0
2, 18240, Note_on_c, 0, 39, 120
2, 18240, Note_on_c, 0, 56, 120
2, 18240, Note_on_c, 0, 60, 120
2, 18240, Note_on_c, 0, 63, 120
2, 18352, Control_c, 0, 64, 127
2, 18360, Note_on_c, 0, 60, 0
2, 18363, Note_on_c, 0, 39, 0
2, 18363, Note_on_c, 0, 56, 0
2, 18368, Note_on_c, 0, 63, 0
2, 18424, Control_c, 0, 64, 0
2, 18432, Note_on_c, 0, 39, 120
2, 18432, Note_on_c, 0, 58, 120
2, 18432, Note_on_c, 0, 61, 120
2, 18432, Note_on_c, 0, 65, 120
2, 18483, Note_on_c, 0, 39, 0
2, 18487, Note_on_c, 0, 65, 0
2, 18487, Note_on_c, 0, 61, 0
2, 18488, Note_on_c, 0, 58, 0
2, 18504, Note_on_c, 0, 39, 120
2, 18504, Note_on_c, 0, 58, 120
2, 18504, Note_on_c, 0, 61, 120
2, 18504, Note_on_c, 0, 65, 120
2, 18515, Note_on_c, 0, 65, 0
2, 18515, Note_on_c, 0, 58, 0
2, 18516, Note_on_c, 0, 61, 0
2, 18524, Note_on_c, 0, 39, 0
2, 18816, Note_on_c, 0, 39, 120
2, 18816, Note_on_c, 0, 58, 120
2, 18816, Note_on_c, 0, 61, 120
2, 18816, Note_on_c, 0, 65, 120
2, 18875, Note_on_c, 0, 65, 0
2, 18875, Note_on_c, 0, 39, 0
2, 18875, Note_on_c, 0, 58, 0
2, 18875, Note_on_c, 0, 61, 0
2, 18888, Note_on_c, 0, 39, 120
2, 18888, Note_on_c, 0, 58, 120
2, 18888, Note_on_c, 0, 61, 120
2, 18888, Note_on_c, 0, 65, 120
2, 18899, Note_on_c, 0, 65, 0
2, 18899, Note_on_c, 0, 61, 0
2, 18900, Note_on_c, 0, 58, 0
2, 18904, Note_on_c, 0, 39, 0
2, 18952, Control_c, 0, 64, 127
2, 18960, Note_on_c, 0, 39, 120
2, 18960, Note_on_c, 0, 58, 120
2, 18960, Note_on_c, 0, 61, 120
2, 18960, Note_on_c, 0, 65, 120
2, 18975, Note_on_c, 0, 39, 0
2, 18979, Note_on_c, 0, 58, 0
2, 18979, Note_on_c, 0, 65, 0
2, 18996, Note_on_c, 0, 61, 0
2, 19000, Control_c, 0, 64, 0
2, 19008, Note_on_c, 0, 39, 120
2, 19008, Note_on_c, 0, 56, 120
2, 19008, Note_on_c, 0, 60, 120
2, 19008, Note_on_c, 0, 63, 120
2, 19119, Control_c, 0, 64, 127
2, 19131, Note_on_c, 0, 60, 0
2, 19132, Note_on_c, 0, 56, 0
2, 19135, Note_on_c, 0, 39, 0
2, 19135, Note_on_c, 0, 63, 0
2, 19191, Control_c, 0, 64, 0
2, 19200, Note_on_c, 0, 39, 120
2, 19200, Note_on_c, 0, 54, 120
2, 19200, Note_on_c, 0, 58, 120
2, 19200, Note_on_c, 0, 61, 120
2, 19478, Control_c, 0, 64, 127
2, 19495, Note_on_c, 0, 58, 0
2, 19499, Note_on_c, 0, 54, 0
2, 19507, Note_on_c, 0, 39, 0
2, 19511, Note_on_c, 0, 61, 0
2, 19584, Note_on_c, 0, 39, 120
2, 19584, Note_on_c, 0, 56, 120
2, 19584, Note_on_c, 0, 60, 120
2, 19584, Note_on_c, 0, 63, 120
2, 19598, Control_c, 0, 64, 0
2, 19862, Control_c, 0, 64, 127
2, 19891, Note_on_c, 0, 60, 0
2, 19895, Note_on_c, 0, 56, 0
2, 19896, Note_on_c, 0, 63, 0
2, 19899, Note_on_c, 0, 39, 0
2, 19968, Note_on_c, 0, 37, 120
2, 19968, Note_on_c, 0, 53, 120
2, 19968, Note_on_c, 0, 56, 120
2, 19968, Note_on_c, 0, 60, 120
2, 19982, Control_c, 0, 64, 0
2, 20246, Control_c, 0, 64, 127
2, 20268, Note_on_c, 0, 56, 0
2, 20268, Note_on_c, 0, 53, 0
2, 20271, Note_on_c, 0, 60, 0
2, 20275, Note_on_c, 0, 37, 0
2, 20352, Note_on_c, 0, 46, 120
2, 20352, Note_on_c, 0, 56, 120
2, 20352, Note_on_c, 0, 61, 120
2, 20352, Note_on_c, 0, 65, 120
2, 20367, Control_c, 0, 64, 0
2, 20630, Control_c, 0, 64, 127
2, 20652, Note_on_c, 0, 65, 0
2, 20659, Note_on_c, 0, 61, 0
2, 20667, Note_on_c, 0, 56, 0
2, 20688, Note_on_c, 0, 46, 0
2, 20736, Note_on_c, 0, 39, 120
2, 20736, Note_on_c, 0, 54, 120
2, 20736, Note_on_c, 0, 58, 120
2, 20736, Note_on_c, 0, 61, 120
2, 20750, Control_c, 0, 64, 0
2, 21014, Control_c, 0, 64, 127
2, 21051, Note_on_c, 0, 58, 0
2, 21051, Note_on_c, 0, 54, 0
2, 21056, Note_on_c, 0, 39, 0
2, 21067, Note_on_c, 0, 61, 0
2, 21111, Control_c, 0, 64, 0
2, 21120, Note_on_c, 0, 39, 120
2, 21120, Note_on_c, 0, 56, 120
2, 21120, Note_on_c, 0, 60, 120
2, 21120, Note_on_c, 0, 63, 120
2, 21398, Control_c, 0, 64, 127
2, 21424, Note_on_c, 0, 63, 0
2, 21424, Note_on_c, 0, 60, 0
2, 21431, Note_on_c, 0, 56, 0
2, 21431, Note_on_c, 0, 39, 0
2, 21504, Note_on_c, 0, 37, 120
2, 21504, Note_on_c, 0, 53, 120
2, 21504, Note_on_c, 0, 56, 120
2, 21504, Note_on_c, 0, 60, 120
2, 21518, Control_c, 0, 64, 0
2, 21782, Control_c, 0, 64, 127
2, 21795, Note_on_c, 0, 56, 0
2, 21799, Note_on_c, 0, 60, 0
2, 21799, Note_on_c, 0, 53, 0
2, 21807, Note_on_c, 0, 37, 0
2, 21888, Note_on_c, 0, 46, 120
2, 21888, Note_on_c, 0, 56, 120
2, 21888, Note_on_c, 0, 61, 120
2, 21888, Note_on_c, 0, 65, 120
2, 21902, Control_c, 0, 64, 0
2, 22166, Control_c, 0, 64, 127
2, 22176, Note_on_c, 0, 65, 0
2, 22176, Note_on_c, 0, 61, 0
2, 22179, Note_on_c, 0, 56, 0
2, 22231, Note_on_c, 0, 46, 0
2, 22262, Control_c, 0, 64, 0
2, 22272, Note_on_c, 0, 41, 120
2, 22272, Note_on_c, 0, 58, 120
2, 22272, Note_on_c, 0, 63, 120
2, 22272, Note_on_c, 0, 67, 120
2, 22549, Control_c, 0, 64, 127
2, 22591, Note_on_c, 0, 58, 0
2, 22603, Note_on_c, 0, 67, 0
2, 22611, Note_on_c, 0, 41, 0
2, 22616, Note_on_c, 0, 63, 0
2, 22656, Note_on_c, 0, 38, 120
2, 22656, Note_on_c, 0, 60, 120
2, 22656, Note_on_c, 0, 65, 120
2, 22656, Note_on_c, 0, 69, 120
2, 22669, Control_c, 0, 64, 0
2, 22933, Control_c, 0, 64, 127
2, 22947, Note_on_c, 0, 65, 0
2, 22960, Note_on_c, 0, 69, 0
2, 22963, Note_on_c, 0, 60, 0
2, 22975, Note_on_c, 0, 38, 0
2, 23040, Note_on_c, 0, 41, 120
2, 23040, Note_on_c, 0, 58, 120
2, 23040, Note_on_c, 0, 63, 120
2, 23040, Note_on_c, 0, 67, 120
2, 23053, Control_c, 0, 64, 0
2, 23317, Control_c, 0, 64, 127
2, 23351, Note_on_c, 0, 58, 0
2, 23355, Note_on_c, 0, 41, 0
2, 23355, Note_on_c, 0, 67, 0
2, 23364, Note_on_c, 0, 63, 0
2, 23424, Note_on_c, 0, 38, 120
2, 23424, Note_on_c, 0, 60, 120
2, 23424, Note_on_c, 0, 65, 120
2, 23424, Note_on_c, 0, 69, 120
2, 23437, Control_c, 0, 64, 0
2, 23484, Control_c, 0, 64, 127
2, 23535, Note_on_c, 0, 65, 0
2, 23543, Note_on_c, 0, 60, 0
2, 23547, Note_on_c, 0, 69, 0
2, 23559, Note_on_c, 0, 38, 0
2, 23605, Control_c, 0, 64, 0
2, 23616, Note_on_c, 0, 41, 120
2, 23616, Note_on_c, 0, 58, 120
2, 23616, Note_on_c, 0, 63, 120
2, 23616, Note_on_c, 0, 67, 120
2, 23676, Control_c, 0, 64, 127
2, 23707, Note_on_c, 0, 67, 0
2, 23719, Note_on_c, 0, 63, 0
2, 23723, Note_on_c, 0, 58, 0
2, 23727, Note_on_c, 0, 41, 0
2, 23797, Control_c, 0, 64, 0
2, 23808, Note_on_c, 0, 39, 120
2, 23808, Note_on_c, 0, 58, 120
2, 23808, Note_on_c, 0, 61, 120
2, 23808, Note_on_c, 0, 65, 120
2, 23855, Note_on_c, 0, 39, 0
2, 23863, Note_on_c, 0, 65, 0
2, 23863, Note_on_c, 0, 61, 0
2, 23864, Note_on_c, 0, 58, 0
2, 23880, Note_on_c, 0, 39, 120
2, 23880, Note_on_c, 0, 58, 120
2, 23880, Note_on_c, 0, 61, 120
2, 23880, Note_on_c, 0, 65, 120
2, 23903, Note_on_c, 0, 65, 0
2, 23903, Note_on_c, 0, 39, 0
2, 23903, Note_on_c, 0, 58, 0
2, 23903, Note_on_c, 0, 61, 0
2, 24192, Note_on_c, 0, 39, 120
2, 24192, Note_on_c, 0, 58, 120
2, 24192, Note_on_c, 0, 61, 120
2, 24192, Note_on_c, 0, 64, 120
2, 24192, Note_on_c, 0, 65, 120
2, 24193, Note_on_c, 0, 64, 0
2, 24251, Note_on_c, 0, 65, 0
2, 24255, Note_on_c, 0, 39, 0
2, 24255, Note_on_c, 0, 58, 0
2, 24255, Note_on_c, 0, 61, 0
2, 24264, Note_on_c, 0, 39, 120
2, 24264, Note_on_c, 0, 58, 120
2, 24264, Note_on_c, 0, 61, 120
2, 24264, Note_on_c, 0, 65, 120
2, 24275, Note_on_c, 0, 65, 0
2, 24275, Note_on_c, 0, 58, 0
2, 24276, Note_on_c, 0, 61, 0
2, 24280, Note_on_c, 0, 39, 0
2, 24324, Control_c, 0, 64, 127
2, 24336, Note_on_c, 0, 39, 120
2, 24336, Note_on_c, 0, 58, 120
2, 24336, Note_on_c, 0, 61, 120
2, 24336, Note_on_c, 0, 65, 120
2, 24347, Note_on_c, 0, 58, 0
2, 24355, Note_on_c, 0, 39, 0
2, 24355, Note_on_c, 0, 65, 0
2, 24368, Note_on_c, 0, 61, 0
2, 24373, Control_c, 0, 64, 0
2, 24384, Note_on_c, 0, 39, 120
2, 24384, Note_on_c, 0, 56, 120
2, 24384, Note_on_c, 0, 60, 120
2, 24384, Note_on_c, 0, 63, 120
2, 24468, Control_c, 0, 64, 127
2, 24487, Note_on_c, 0, 56, 0
2, 24491, Note_on_c, 0, 60, 0
2, 24495, Note_on_c, 0, 39, 0
2, 24495, Note_on_c, 0, 63, 0
2, 24565, Control_c, 0, 64, 0
2, 24576, Note_on_c, 0, 39, 120
2, 24576, Note_on_c, 0, 58, 120
2, 24576, Note_on_c, 0, 61, 120
2, 24576, Note_on_c, 0, 65, 120
2, 24627, Note_on_c, 0, 39, 0
2, 24631, Note_on_c, 0, 58, 0
2, 24631, Note_on_c, 0, 65, 0
2, 24635, Note_on_c, 0, 61, 0
2, 24648, Note_on_c, 0, 39, 120
2, 24648, Note_on_c, 0, 58, 120
2, 24648, Note_on_c, 0, 61, 120
2, 24648, Note_on_c, 0, 65, 120
2, 24659, Note_on_c, 0, 58, 0
2, 24660, Note_on_c, 0, 61, 0
2, 24663, Note_on_c, 0, 65, 0
2, 24667, Note_on_c, 0, 39, 0
2, 24960, Note_on_c, 0, 39, 120
2, 24960, Note_on_c, 0, 58, 120
2, 24960, Note_on_c, 0, 61, 120
2, 24960, Note_on_c, 0, 65, 120
2, 25016, Note_on_c, 0, 65, 0
2, 25016, Note_on_c, 0, 61, 0
2, 25016, Note_on_c, 0, 58, 0
2, 25032, Note_on_c, 0, 58, 120
2, 25032, Note_on_c, 0, 61, 120
2, 25032, Note_on_c, 0, 65, 120
2, 25039, Note_on_c, 0, 39, 0
2, 25043, Note_on_c, 0, 58, 0
2, 25043, Note_on_c, 0, 61, 0
2, 25044, Note_on_c, 0, 65, 0
2, 25093, Control_c, 0, 64, 127
2, 25104, Note_on_c, 0, 39, 120
2, 25104, Note_on_c, 0, 58, 120
2, 25104, Note_on_c, 0, 61, 120
2, 25104, Note_on_c, 0, 65, 120
2, 25123, Note_on_c, 0, 58, 0
2, 25124, Note_on_c, 0, 39, 0
2, 25124, Note_on_c, 0, 65, 0
2, 25136, Note_on_c, 0, 61, 0
2, 25140, Control_c, 0, 64, 0
2, 25152, Note_on_c, 0, 39, 120
2, 25152, Note_on_c, 0, 56, 120
2, 25152, Note_on_c, 0, 60, 120
2, 25152, Note_on_c, 0, 63, 120
2, 25212, Control_c, 0, 64, 127
2, 25232, Note_on_c, 0, 60, 0
2, 25235, Note_on_c, 0, 56, 0
2, 25239, Note_on_c, 0, 63, 0
2, 25243, Note_on_c, 0, 39, 0
2, 25284, Control_c, 0, 64, 0
2, 25296, Note_on_c, 0, 39, 120
2, 25296, Note_on_c, 0, 54, 120
2, 25296, Note_on_c, 0, 58, 120
2, 25296, Note_on_c, 0, 61, 120
2, 25308, Control_c, 0, 64, 127
2, 25323, Note_on_c, 0, 58, 0
2, 25323, Note_on_c, 0, 39, 0
2, 25327, Note_on_c, 0, 54, 0
2, 25339, Note_on_c, 0, 61, 0
2, 25344, Note_on_c, 0, 41, 120
2, 25344, Note_on_c, 0, 56, 120
2, 25344, Note_on_c, 0, 60, 120
2, 25344, Note_on_c, 0, 63, 120
2, 25356, Control_c, 0, 64, 0
2, 25395, Note_on_c, 0, 41, 0
2, 25403, Note_on_c, 0, 56, 0
2, 25403, Note_on_c, 0, 60, 0
2, 25404, Note_on_c, 0, 63, 0
2, 25416, Note_on_c, 0, 41, 120
2, 25416, Note_on_c, 0, 56, 120
2, 25416, Note_on_c, 0, 60, 120
2, 25416, Note_on_c, 0, 63, 120
2, 25431, Note_on_c, 0, 60, 0
2, 25431, Note_on_c, 0, 56, 0
2, 25436, Note_on_c, 0, 41, 0
2, 25436, Note_on_c, 0, 63, 0
2, 25680, Note_on_c, 0, 41, 120
2, 25680, Note_on_c, 0, 56, 120
2, 25680, Note_on_c, 0, 60, 120
2, 25680, Note_on_c, 0, 63, 120
2, 25692, Control_c, 0, 64, 127
2, 25703, Note_on_c, 0, 60, 0
2, 25703, Note_on_c, 0, 56, 0
2, 25707, Note_on_c, 0, 41, 0
2, 25708, Note_on_c, 0, 63, 0
2, 25728, Note_on_c, 0, 42, 120
2, 25728, Note_on_c, 0, 58, 120
2, 25728, Note_on_c, 0, 61, 120
2, 25728, Note_on_c, 0, 65, 120
2, 25740, Control_c, 0, 64, 0
2, 25784, Note_on_c, 0, 65, 0
2, 25787, Note_on_c, 0, 58, 0
2, 25788, Note_on_c, 0, 42, 0
2, 25791, Note_on_c, 0, 61, 0
2, 25800, Note_on_c, 0, 42, 120
2, 25800, Note_on_c, 0, 58, 120
2, 25800, Note_on_c, 0, 61, 120
2, 25800, Note_on_c, 0, 65, 120
2, 25820, Note_on_c, 0, 65, 0
2, 25820, Note_on_c, 0, 42, 0
2, 25820, Note_on_c, 0, 58, 0
2, 25820, Note_on_c, 0, 61, 0
2, 26052, Control_c, 0, 64, 127
2, 26064, Note_on_c, 0, 42, 120
2, 26064, Note_on_c, 0, 58, 120
2, 26064, Note_on_c, 0, 61, 120
2, 26064, Note_on_c, 0, 65, 120
2, 26075, Note_on_c, 0, 65, 0
2, 26075, Note_on_c, 0, 42, 0
2, 26079, Note_on_c, 0, 58, 0
2, 26084, Note_on_c, 0, 61, 0
2, 26112, Note_on_c, 0, 37, 120
2, 26112, Note_on_c, 0, 53, 120
2, 26112, Note_on_c, 0, 56, 120
2, 26112, Note_on_c, 0, 60, 120
2, 26124, Control_c, 0, 64, 0
2, 26387, Control_c, 0, 64, 127
2, 26416, Note_on_c, 0, 56, 0
2, 26416, Note_on_c, 0, 53, 0
2, 26419, Note_on_c, 0, 60, 0
2, 26427, Note_on_c, 0, 37, 0
2, 26484, Control_c, 0, 64, 0
2, 26496, Note_on_c, 0, 36, 120
2, 26496, Note_on_c, 0, 55, 120
2, 26496, Note_on_c, 0, 58, 120
2, 26496, Note_on_c, 0, 63, 120
2, 26555, Control_c, 0, 64, 127
2, 26595, Note_on_c, 0, 63, 0
2, 26604, Note_on_c, 0, 55, 0
2, 26608, Note_on_c, 0, 58, 0
2, 26623, Note_on_c, 0, 36, 0
2, 26676, Control_c, 0, 64, 0
2, 26688, Note_on_c, 0, 41, 120
2, 26688, Note_on_c, 0, 57, 120
2, 26688, Note_on_c, 0, 61, 120
2, 26688, Note_on_c, 0, 65, 120
2, 26771, Control_c, 0, 64, 127
2, 26807, Note_on_c, 0, 65, 0
2, 26811, Note_on_c, 0, 61, 0
2, 26812, Note_on_c, 0, 41, 0
2, 26816, Note_on_c, 0, 57, 0
2, 26880, Note_on_c, 0, 39, 120
2, 26880, Note_on_c, 0, 58, 120
2, 26880, Note_on_c, 0, 61, 120
2, 26880, Note_on_c, 0, 65, 120
2, 26891, Control_c, 0, 64, 0
2, 26927, Note_on_c, 0, 39, 0
2, 26932, Note_on_c, 0, 65, 0
2, 26935, Note_on_c, 0, 58, 0
2, 26936, Note_on_c, 0, 61, 0
2, 26952, Note_on_c, 0, 39, 120
2, 26952, Note_on_c, 0, 58, 120
2, 26952, Note_on_c, 0, 61, 120
2, 26952, Note_on_c, 0, 65, 120
2, 26967, Note_on_c, 0, 61, 0
2, 26967, Note_on_c, 0, 58, 0
2, 26968, Note_on_c, 0, 65, 0
2, 26972, Note_on_c, 0, 39, 0
2, 27264, Note_on_c, 0, 39, 120
2, 27264, Note_on_c, 0, 58, 120
2, 27264, Note_on_c, 0, 61, 120
2, 27264, Note_on_c, 0, 65, 120
2, 27316, Note_on_c, 0, 65, 0
2, 27319, Note_on_c, 0, 39, 0
2, 27319, Note_on_c, 0, 58, 0
2, 27320, Note_on_c, 0, 61, 0
2, 27336, Note_on_c, 0, 39, 120
2, 27336, Note_on_c, 0, 58, 120
2, 27336, Note_on_c, 0, 61, 120
2, 27336, Note_on_c, 0, 65, 120
2, 27347, Note_on_c, 0, 58, 0
2, 27348, Note_on_c, 0, 61, 0
2, 27352, Note_on_c, 0, 39, 0
2, 27352, Note_on_c, 0, 65, 0
2, 27395, Control_c, 0, 64, 127
2, 27408, Note_on_c, 0, 39, 120
2, 27408, Note_on_c, 0, 58, 120
2, 27408, Note_on_c, 0, 61, 120
2, 27408, Note_on_c, 0, 65, 120
2, 27424, Note_on_c, 0, 65, 0
2, 27424, Note_on_c, 0, 39, 0
2, 27424, Note_on_c, 0, 58, 0
2, 27439, Note_on_c, 0, 61, 0
2, 27443, Control_c, 0, 64, 0
2, 27456, Note_on_c, 0, 39, 120
2, 27456, Note_on_c, 0, 56, 120
2, 27456, Note_on_c, 0, 60, 120
2, 27456, Note_on_c, 0, 63, 120
2, 27562, Control_c, 0, 64, 127
2, 27584, Note_on_c, 0, 60, 0
2, 27587, Note_on_c, 0, 56, 0
2, 27588, Note_on_c, 0, 39, 0
2, 27588, Note_on_c, 0, 63, 0
2, 27635, Control_c, 0, 64, 0
2, 27648, Note_on_c, 0, 39, 120
2, 27648, Note_on_c, 0, 58, 120
2, 27648, Note_on_c, 0, 61, 120
2, 27648, Note_on_c, 0, 65, 120
2, 27699, Note_on_c, 0, 39, 0
2, 27703, Note_on_c, 0, 65, 0
2, 27707, Note_on_c, 0, 61, 0
2, 27708, Note_on_c, 0, 58, 0
2, 27720, Note_on_c, 0, 39, 120
2, 27720, Note_on_c, 0, 58, 120
2, 27720, Note_on_c, 0, 61, 120
2, 27720, Note_on_c, 0, 65, 120
2, 27731, Note_on_c, 0, 61, 0
2, 27731, Note_on_c, 0, 58, 0
2, 27736, Note_on_c, 0, 39, 0
2, 27736, Note_on_c, 0, 65, 0
2, 28032, Note_on_c, 0, 39, 120
2, 28032, Note_on_c, 0, 58, 120
2, 28032, Note_on_c, 0, 61, 120
2, 28032, Note_on_c, 0, 65, 120
2, 28087, Note_on_c, 0, 65, 0
2, 28091, Note_on_c, 0, 39, 0
2, 28091, Note_on_c, 0, 58, 0
2, 28096, Note_on_c, 0, 61, 0
2, 28104, Note_on_c, 0, 39, 120
2, 28104, Note_on_c, 0, 58, 120
2, 28104, Note_on_c, 0, 61, 120
2, 28104, Note_on_c, 0, 65, 120
2, 28115, Note_on_c, 0, 61, 0
2, 28116, Note_on_c, 0, 58, 0
2, 28119, Note_on_c, 0, 65, 0
2, 28124, Note_on_c, 0, 39, 0
2, 28163, Control_c, 0, 64, 127
2, 28176, Note_on_c, 0, 39, 120
2, 28176, Note_on_c, 0, 58, 120
2, 28176, Note_on_c, 0, 61, 120
2, 28176, Note_on_c, 0, 65, 120
2, 28192, Note_on_c, 0, 58, 0
2, 28195, Note_on_c, 0, 39, 0
2, 28196, Note_on_c, 0, 65, 0
2, 28208, Note_on_c, 0, 61, 0
2, 28211, Control_c, 0, 64, 0
2, 28224, Note_on_c, 0, 39, 120
2, 28224, Note_on_c, 0, 56, 120
2, 28224, Note_on_c, 0, 60, 120
2, 28224, Note_on_c, 0, 63, 120
2, 28283, Control_c, 0, 64, 127
2, 28295, Note_on_c, 0, 60, 0
2, 28311, Note_on_c, 0, 56, 0
2, 28315, Note_on_c, 0, 39, 0
2, 28316, Note_on_c, 0, 63, 0
2, 28368, Note_on_c, 0, 39, 120
2, 28368, Note_on_c, 0, 54, 120
2, 28368, Note_on_c, 0, 58, 120
2, 28368, Note_on_c, 0, 61, 120
2, 28391, Note_on_c, 0, 39, 0
2, 28396, Note_on_c, 0, 58, 0
2, 28399, Note_on_c, 0, 54, 0
2, 28403, Control_c, 0, 64, 0
2, 28411, Note_on_c, 0, 61, 0
2, 28416, Note_on_c, 0, 41, 120
2, 28416, Note_on_c, 0, 56, 120
2, 28416, Note_on_c, 0, 60, 120
2, 28416, Note_on_c, 0, 63, 120
2, 28467, Note_on_c, 0, 41, 0
2, 28471, Note_on_c, 0, 56, 0
2, 28471, Note_on_c, 0, 60, 0
2, 28472, Note_on_c, 0, 63, 0
2, 28488, Note_on_c, 0, 41, 120
2, 28488, Note_on_c, 0, 56, 120
2, 28488, Note_on_c, 0, 60, 120
2, 28488, Note_on_c, 0, 63, 120
2, 28499, Note_on_c, 0, 56, 0
2, 28504, Note_on_c, 0, 41, 0
2, 28504, Note_on_c, 0, 60, 0
2, 28507, Note_on_c, 0, 63, 0
2, 28739, Control_c, 0, 64, 127
2, 28752, Note_on_c, 0, 41, 120
2, 28752, Note_on_c, 0, 56, 120
2, 28752, Note_on_c, 0, 60, 120
2, 28752, Note_on_c, 0, 63, 120
2, 28767, Note_on_c, 0, 60, 0
2, 28771, Note_on_c, 0, 56, 0
2, 28776, Note_on_c, 0, 41, 0
2, 28776, Note_on_c, 0, 63, 0
2, 28787, Control_c, 0, 64, 0
2, 28800, Note_on_c, 0, 42, 120
2, 28800, Note_on_c, 0, 58, 120
2, 28800, Note_on_c, 0, 61, 120
2, 28800, Note_on_c, 0, 65, 120
2, 28859, Note_on_c, 0, 65, 0
2, 28859, Note_on_c, 0, 42, 0
2, 28864, Note_on_c, 0, 61, 0
2, 28864, Note_on_c, 0, 58, 0
2, 28872, Note_on_c, 0, 42, 120
2, 28872, Note_on_c, 0, 58, 120
2, 28872, Note_on_c, 0, 61, 120
2, 28872, Note_on_c, 0, 65, 120
2, 28883, Note_on_c, 0, 58, 0
2, 28884, Note_on_c, 0, 42, 0
2, 28887, Note_on_c, 0, 61, 0
2, 28887, Note_on_c, 0, 65, 0
2, 29122, Control_c, 0, 64, 127
2, 29136, Note_on_c, 0, 42, 120
2, 29136, Note_on_c, 0, 58, 120
2, 29136, Note_on_c, 0, 61, 120
2, 29136, Note_on_c, 0, 65, 120
2, 29147, Note_on_c, 0, 65, 0
2, 29147, Note_on_c, 0, 58, 0
2, 29148, Note_on_c, 0, 42, 0
2, 29151, Note_on_c, 0, 61, 0
2, 29184, Note_on_c, 0, 37, 120
2, 29184, Note_on_c, 0, 53, 120
2, 29184, Note_on_c, 0, 56, 120
2, 29184, Note_on_c, 0, 60, 120
2, 29194, Control_c, 0, 64, 0
2, 29410, Control_c, 0, 64, 127
2, 29459, Note_on_c, 0, 60, 0
2, 29459, Note_on_c, 0, 56, 0
2, 29459, Note_on_c, 0, 53, 0
2, 29471, Note_on_c, 0, 37, 0
2, 29554, Control_c, 0, 64, 0
2, 29568, Note_on_c, 0, 36, 120
2, 29568, Note_on_c, 0, 55, 120
2, 29568, Note_on_c, 0, 58, 120
2, 29568, Note_on_c, 0, 63, 120
2, 29602, Control_c, 0, 64, 127
2, 29671, Note_on_c, 0, 55, 0
2, 29675, Note_on_c, 0, 58, 0
2, 29679, Note_on_c, 0, 36, 0
2, 29679, Note_on_c, 0, 63, 0
2, 29760, Note_on_c, 0, 41, 120
2, 29760, Note_on_c, 0, 57, 120
2, 29760, Note_on_c, 0, 61, 120
2, 29760, Note_on_c, 0, 65, 120
2, 29769, Control_c, 0, 64, 0
2, 29818, Control_c, 0, 64, 127
2, 29868, Note_on_c, 0, 41, 0
2, 29871, Note_on_c, 0, 57, 0
2, 29871, Note_on_c, 0, 65, 0
2, 29875, Note_on_c, 0, 61, 0
2, 29938, Control_c, 0, 64, 0
2, 29952, Note_on_c, 0, 39, 120
2, 29952, Note_on_c, 0, 54, 120
2, 29952, Note_on_c, 0, 58, 120
2, 29952, Note_on_c, 0, 61, 120
2, 30225, Control_c, 0, 64, 127
2, 30275, Note_on_c, 0, 58, 0
2, 30279, Note_on_c, 0, 54, 0
2, 30295, Note_on_c, 0, 39, 0
2, 30295, Note_on_c, 0, 61, 0
2, 30336, Note_on_c, 0, 44, 120
2, 30336, Note_on_c, 0, 56, 120
2, 30336, Note_on_c, 0, 60, 120
2, 30336, Note_on_c, 0, 63, 120
2, 30346, Control_c, 0, 64, 0
2, 30609, Control_c, 0, 64, 127
2, 30635, Note_on_c, 0, 63, 0
2, 30639, Note_on_c, 0, 60, 0
2, 30643, Note_on_c, 0, 56, 0
2, 30648, Note_on_c, 0, 44, 0
2, 30720, Note_on_c, 0, 37, 120
2, 30720, Note_on_c, 0, 53, 120
2, 30720, Note_on_c, 0, 56, 120
2, 30720, Note_on_c, 0, 60, 120
2, 30729, Control_c, 0, 64, 0
2, 30969, Control_c, 0, 64, 127
2, 31011, Note_on_c, 0, 56, 0
2, 31011, Note_on_c, 0, 53, 0
2, 31015, Note_on_c, 0, 60, 0
2, 31019, Note_on_c, 0, 37, 0
2, 31090, Control_c, 0, 64, 0
2, 31104, Note_on_c, 0, 46, 120
2, 31104, Note_on_c, 0, 56, 120
2, 31104, Note_on_c, 0, 61, 120
2, 31104, Note_on_c, 0, 65, 120
2, 31256, Control_c, 0, 64, 127
2, 31312, Note_on_c, 0, 61, 0
2, 31315, Note_on_c, 0, 65, 0
2, 31315, Note_on_c, 0, 46, 0
2, 31320, Note_on_c, 0, 56, 0
2, 31328, Control_c, 0, 64, 0
2, 31344, Note_on_c, 0, 44, 120
2, 31344, Note_on_c, 0, 56, 120
2, 31344, Note_on_c, 0, 60, 120
2, 31344, Note_on_c, 0, 63, 120
2, 31353, Control_c, 0, 64, 127
2, 31387, Note_on_c, 0, 60, 0
2, 31391, Note_on_c, 0, 44, 0
2, 31392, Note_on_c, 0, 63, 0
2, 31410, Note_on_c, 0, 56, 0
2, 31440, Note_on_c, 0, 46, 120
2, 31440, Note_on_c, 0, 56, 120
2, 31440, Note_on_c, 0, 61, 120
2, 31440, Note_on_c, 0, 65, 120
2, 31459, Note_on_c, 0, 65, 0
2, 31460, Note_on_c, 0, 46, 0
2, 31463, Note_on_c, 0, 61, 0
2, 31464, Note_on_c, 0, 56, 0
2, 31474, Control_c, 0, 64, 0
2, 31488, Note_on_c, 0, 39, 120
2, 31488, Note_on_c, 0, 54, 120
2, 31488, Note_on_c, 0, 58, 120
2, 31488, Note_on_c, 0, 61, 120
2, 31761, Control_c, 0, 64, 127
2, 31795, Note_on_c, 0, 58, 0
2, 31803, Note_on_c, 0, 54, 0
2, 31811, Note_on_c, 0, 39, 0
2, 31819, Note_on_c, 0, 61, 0
2, 31857, Control_c, 0, 64, 0
2, 31872, Note_on_c, 0, 44, 120
2, 31872, Note_on_c, 0, 56, 120
2, 31872, Note_on_c, 0, 60, 120
2, 31872, Note_on_c, 0, 63, 120
2, 32145, Control_c, 0, 64, 127
2, 32171, Note_on_c, 0, 63, 0
2, 32172, Note_on_c, 0, 60, 0
2, 32176, Note_on_c, 0, 56, 0
2, 32211, Note_on_c, 0, 44, 0
2, 32241, Control_c, 0, 64, 0
2, 32256, Note_on_c, 0, 37, 120
2, 32256, Note_on_c, 0, 53, 120
2, 32256, Note_on_c, 0, 56, 120
2, 32256, Note_on_c, 0, 60, 120
2, 32528, Control_c, 0, 64, 127
2, 32559, Note_on_c, 0, 56, 0
2, 32560, Note_on_c, 0, 60, 0
2, 32560, Note_on_c, 0, 53, 0
2, 32575, Note_on_c, 0, 37, 0
2, 32625, Control_c, 0, 64, 0
2, 32640, Note_on_c, 0, 46, 120
2, 32640, Note_on_c, 0, 56, 120
2, 32640, Note_on_c, 0, 61, 120
2, 32640, Note_on_c, 0, 65, 120
2, 32912, Control_c, 0, 64, 127
2, 32939, Note_on_c, 0, 65, 0
2, 32947, Note_on_c, 0, 56, 0
2, 32948, Note_on_c, 0, 61, 0
2, 32983, Note_on_c, 0, 46, 0
2, 33024, Note_on_c, 0, 41, 120
2, 33024, Note_on_c, 0, 58, 120
2, 33024, Note_on_c, 0, 63, 120
2, 33024, Note_on_c, 0, 67, 120
2, 33032, Control_c, 0, 64, 0
2, 33271, Control_c, 0, 64, 127
2, 33327, Note_on_c, 0, 58, 0
2, 33339, Note_on_c, 0, 67, 0
2, 33347, Note_on_c, 0, 63, 0
2, 33383, Note_on_c, 0, 41, 0
2, 33408, Note_on_c, 0, 38, 120
2, 33408, Note_on_c, 0, 60, 120
2, 33408, Note_on_c, 0, 65, 120
2, 33408, Note_on_c, 0, 69, 120
2, 33416, Control_c, 0, 64, 0
2, 33680, Control_c, 0, 64, 127
2, 33707, Note_on_c, 0, 65, 0
2, 33719, Note_on_c, 0, 60, 0
2, 33723, Note_on_c, 0, 69, 0
2, 33767, Note_on_c, 0, 38, 0
2, 33792, Note_on_c, 0, 41, 120
2, 33792, Note_on_c, 0, 58, 120
2, 33792, Note_on_c, 0, 63, 120
2, 33792, Note_on_c, 0, 67, 120
2, 33799, Control_c, 0, 64, 0
2, 34088, Control_c, 0, 64, 127
2, 34115, Note_on_c, 0, 58, 0
2, 34135, Note_on_c, 0, 67, 0
2, 34139, Note_on_c, 0, 63, 0
2, 34147, Note_on_c, 0, 41, 0
2, 34176, Note_on_c, 0, 38, 120
2, 34176, Note_on_c, 0, 60, 120
2, 34176, Note_on_c, 0, 65, 120
2, 34176, Note_on_c, 0, 69, 120
2, 34183, Control_c, 0, 64, 0
2, 34232, Control_c, 0, 64, 127
2, 34267, Note_on_c, 0, 65, 0
2, 34275, Note_on_c, 0, 60, 0
2, 34279, Note_on_c, 0, 69, 0
2, 34327, Note_on_c, 0, 38, 0
2, 34368, Note_on_c, 0, 41, 120
2, 34368, Note_on_c, 0, 58, 120
2, 34368, Note_on_c, 0, 63, 120
2, 34368, Note_on_c, 0, 67, 120
2, 34375, Control_c, 0, 64, 0
2, 34424, Control_c, 0, 64, 127
2, 34467, Note_on_c, 0, 67, 0
2, 34471, Note_on_c, 0, 63, 0
2, 34479, Note_on_c, 0, 58, 0
2, 34483, Note_on_c, 0, 41, 0
2, 34544, Control_c, 0, 64, 0
2, 34560, Note_on_c, 0, 39, 120
2, 34560, Note_on_c, 0, 58, 120
2, 34560, Note_on_c, 0, 61, 120
2, 34560, Note_on_c, 0, 65, 120
2, 34607, Note_on_c, 0, 39, 0
2, 34616, Note_on_c, 0, 58, 0
2, 34616, Note_on_c, 0, 65, 0
2, 34619, Note_on_c, 0, 61, 0
2, 34632, Note_on_c, 0, 39, 120
2, 34632, Note_on_c, 0, 58, 120
2, 34632, Note_on_c, 0, 61, 120
2, 34632, Note_on_c, 0, 65, 120
2, 34643, Note_on_c, 0, 58, 0
2, 34647, Note_on_c, 0, 65, 0
2, 34648, Note_on_c, 0, 61, 0
2, 34651, Note_on_c, 0, 39, 0
2, 34944, Note_on_c, 0, 39, 120
2, 34944, Note_on_c, 0, 58, 120
2, 34944, Note_on_c, 0, 61, 120
2, 34944, Note_on_c, 0, 65, 120
2, 35000, Note_on_c, 0, 65, 0
2, 35003, Note_on_c, 0, 61, 0
2, 35003, Note_on_c, 0, 58, 0
2, 35004, Note_on_c, 0, 39, 0
2, 35016, Note_on_c, 0, 39, 120
2, 35016, Note_on_c, 0, 58, 120
2, 35016, Note_on_c, 0, 61, 120
2, 35016, Note_on_c, 0, 65, 120
2, 35027, Note_on_c, 0, 58, 0
2, 35028, Note_on_c, 0, 39, 0
2, 35028, Note_on_c, 0, 61, 0
2, 35028, Note_on_c, 0, 65, 0
2, 35071, Control_c, 0, 64, 127
2, 35088, Note_on_c, 0, 39, 120
2, 35088, Note_on_c, 0, 58, 120
2, 35088, Note_on_c, 0, 61, 120
2, 35088, Note_on_c, 0, 65, 120
2, 35099, Note_on_c, 0, 65, 0
2, 35103, Note_on_c, 0, 39, 0
2, 35107, Note_on_c, 0, 58, 0
2, 35111, Note_on_c, 0, 61, 0
2, 35119, Control_c, 0, 64, 0
2, 35136, Note_on_c, 0, 39, 120
2, 35136, Note_on_c, 0, 56, 120
2, 35136, Note_on_c, 0, 60, 120
2, 35136, Note_on_c, 0, 63, 120
2, 35239, Control_c, 0, 64, 127
2, 35247, Note_on_c, 0, 60, 0
2, 35255, Note_on_c, 0, 63, 0
2, 35255, Note_on_c, 0, 56, 0
2, 35260, Note_on_c, 0, 39, 0
2, 35311, Control_c, 0, 64, 0
2, 35328, Note_on_c, 0, 39, 120
2, 35328, Note_on_c, 0, 58, 120
2, 35328, Note_on_c, 0, 61, 120
2, 35328, Note_on_c, 0, 65, 120
2, 35379, Note_on_c, 0, 65, 0
2, 35379, Note_on_c, 0, 39, 0
2, 35384, Note_on_c, 0, 58, 0
2, 35387, Note_on_c, 0, 61, 0
2, 35400, Note_on_c, 0, 39, 120
2, 35400, Note_on_c, 0, 58, 120
2, 35400, Note_on_c, 0, 61, 120
2, 35400, Note_on_c, 0, 65, 120
2, 35411, Note_on_c, 0, 65, 0
2, 35411, Note_on_c, 0, 61, 0
2, 35412, Note_on_c, 0, 58, 0
2, 35415, Note_on_c, 0, 39, 0
2, 35712, Note_on_c, 0, 39, 120
2, 35712, Note_on_c, 0, 58, 120
2, 35712, Note_on_c, 0, 61, 120
2, 35712, Note_on_c, 0, 65, 120
2, 35764, Note_on_c, 0, 39, 0
2, 35768, Note_on_c, 0, 58, 0
2, 35768, Note_on_c, 0, 61, 0
2, 35768, Note_on_c, 0, 65, 0
2, 35784, Note_on_c, 0, 39, 120
2, 35784, Note_on_c, 0, 58, 120
2, 35784, Note_on_c, 0, 61, 120
2, 35784, Note_on_c, 0, 65, 120
2, 35791, Note_on_c, 0, 58, 0
2, 35795, Note_on_c, 0, 65, 0
2, 35796, Note_on_c, 0, 61, 0
2, 35800, Note_on_c, 0, 39, 0
2, 35839, Control_c, 0, 64, 127
2, 35856, Note_on_c, 0, 39, 120
2, 35856, Note_on_c, 0, 58, 120
2, 35856, Note_on_c, 0, 61, 120
2, 35856, Note_on_c, 0, 65, 120
2, 35867, Note_on_c, 0, 58, 0
2, 35871, Note_on_c, 0, 39, 0
2, 35876, Note_on_c, 0, 65, 0
2, 35883, Note_on_c, 0, 61, 0
2, 35887, Control_c, 0, 64, 0
2, 35904, Note_on_c, 0, 39, 120
2, 35904, Note_on_c, 0, 56, 120
2, 35904, Note_on_c, 0, 60, 120
2, 35904, Note_on_c, 0, 63, 120
2, 35959, Control_c, 0, 64, 127
2, 35976, Note_on_c, 0, 60, 0
2, 35987, Note_on_c, 0, 63, 0
2, 35987, Note_on_c, 0, 56, 0
2, 35995, Note_on_c, 0, 39, 0
2, 36048, Note_on_c, 0, 39, 120
2, 36048, Note_on_c, 0, 54, 120
2, 36048, Note_on_c, 0, 58, 120
2, 36048, Note_on_c, 0, 61, 120
2, 36064, Note_on_c, 0, 58, 0
2, 36064, Note_on_c, 0, 39, 0
2, 36071, Note_on_c, 0, 54, 0
2, 36075, Note_on_c, 0, 61, 0
2, 36079, Control_c, 0, 64, 0
2, 36096, Note_on_c, 0, 41, 120
2, 36096, Note_on_c, 0, 56, 120
2, 36096, Note_on_c, 0, 60, 120
2, 36096, Note_on_c, 0, 63, 120
2, 36147, Note_on_c, 0, 41, 0
2, 36156, Note_on_c, 0, 56, 0
2, 36156, Note_on_c, 0, 63, 0
2, 36160, Note_on_c, 0, 60, 0
2, 36168, Note_on_c, 0, 41, 120
2, 36168, Note_on_c, 0, 56, 120
2, 36168, Note_on_c, 0, 60, 120
2, 36168, Note_on_c, 0, 63, 120
2, 36179, Note_on_c, 0, 56, 0
2, 36180, Note_on_c, 0, 60, 0
2, 36183, Note_on_c, 0, 63, 0
2, 36188, Note_on_c, 0, 41, 0
2, 36415, Control_c, 0, 64, 127
2, 36432, Note_on_c, 0, 41, 120
2, 36432, Note_on_c, 0, 56, 120
2, 36432, Note_on_c, 0, 60, 120
2, 36432, Note_on_c, 0, 63, 120
2, 36452, Note_on_c, 0, 60, 0
2, 36452, Note_on_c, 0, 41, 0
2, 36455, Note_on_c, 0, 56, 0
2, 36456, Note_on_c, 0, 63, 0
2, 36463, Control_c, 0, 64, 0
2, 36480, Note_on_c, 0, 42, 120
2, 36480, Note_on_c, 0, 58, 120
2, 36480, Note_on_c, 0, 61, 120
2, 36480, Note_on_c, 0, 65, 120
2, 36536, Note_on_c, 0, 65, 0
2, 36539, Note_on_c, 0, 42, 0
2, 36540, Note_on_c, 0, 58, 0
2, 36543, Note_on_c, 0, 61, 0
2, 36552, Note_on_c, 0, 42, 120
2, 36552, Note_on_c, 0, 58, 120
2, 36552, Note_on_c, 0, 61, 120
2, 36552, Note_on_c, 0, 65, 120
2, 36568, Note_on_c, 0, 65, 0
2, 36568, Note_on_c, 0, 42, 0
2, 36568, Note_on_c, 0, 58, 0
2, 36568, Note_on_c, 0, 61, 0
2, 36798, Control_c, 0, 64, 127
2, 36816, Note_on_c, 0, 42, 120
2, 36816, Note_on_c, 0, 58, 120
2, 36816, Note_on_c, 0, 61, 120
2, 36816, Note_on_c, 0, 65, 120
2, 36827, Note_on_c, 0, 65, 0
2, 36827, Note_on_c, 0, 42, 0
2, 36832, Note_on_c, 0, 61, 0
2, 36832, Note_on_c, 0, 58, 0
2, 36864, Note_on_c, 0, 37, 120
2, 36864, Note_on_c, 0, 53, 120
2, 36864, Note_on_c, 0, 56, 120
2, 36864, Note_on_c, 0, 60, 120
2, 36870, Control_c, 0, 64, 0
2, 37134, Control_c, 0, 64, 127
2, 37159, Note_on_c, 0, 53, 0
2, 37164, Note_on_c, 0, 60, 0
2, 37164, Note_on_c, 0, 56, 0
2, 37175, Note_on_c, 0, 37, 0
2, 37231, Control_c, 0, 64, 0
2, 37248, Note_on_c, 0, 36, 120
2, 37248, Note_on_c, 0, 55, 120
2, 37248, Note_on_c, 0, 58, 120
2, 37248, Note_on_c, 0, 63, 120
2, 37278, Control_c, 0, 64, 127
2, 37351, Note_on_c, 0, 58, 0
2, 37356, Note_on_c, 0, 63, 0
2, 37356, Note_on_c, 0, 55, 0
2, 37367, Note_on_c, 0, 36, 0
2, 37423, Control_c, 0, 64, 0
2, 37440, Note_on_c, 0, 41, 120
2, 37440, Note_on_c, 0, 57, 120
2, 37440, Note_on_c, 0, 61, 120
2, 37440, Note_on_c, 0, 65, 120
2, 37518, Control_c, 0, 64, 127
2, 37555, Note_on_c, 0, 65, 0
2, 37559, Note_on_c, 0, 61, 0
2, 37564, Note_on_c, 0, 57, 0
2, 37564, Note_on_c, 0, 41, 0
2, 37614, Control_c, 0, 64, 0
2, 37632, Note_on_c, 0, 39, 120
2, 37632, Note_on_c, 0, 58, 120
2, 37632, Note_on_c, 0, 61, 120
2, 37632, Note_on_c, 0, 65, 120
2, 37675, Note_on_c, 0, 39, 0
2, 37691, Note_on_c, 0, 58, 0
2, 37692, Note_on_c, 0, 61, 0
2, 37692, Note_on_c, 0, 65, 0
2, 37704, Note_on_c, 0, 39, 120
2, 37704, Note_on_c, 0, 58, 120
2, 37704, Note_on_c, 0, 61, 120
2, 37704, Note_on_c, 0, 65, 120
2, 37707, Note_on_c, 0, 65, 0
2, 37711, Note_on_c, 0, 58, 0
2, 37712, Note_on_c, 0, 61, 0
2, 37720, Note_on_c, 0, 39, 0
2, 38016, Note_on_c, 0, 39, 120
2, 38016, Note_on_c, 0, 58, 120
2, 38016, Note_on_c, 0, 61, 120
2, 38016, Note_on_c, 0, 65, 120
2, 38076, Note_on_c, 0, 58, 0
2, 38079, Note_on_c, 0, 65, 0
2, 38080, Note_on_c, 0, 61, 0
2, 38080, Note_on_c, 0, 39, 0
2, 38088, Note_on_c, 0, 39, 120
2, 38088, Note_on_c, 0, 58, 120
2, 38088, Note_on_c, 0, 61, 120
2, 38088, Note_on_c, 0, 65, 120
2, 38095, Note_on_c, 0, 61, 0
2, 38095, Note_on_c, 0, 39, 0
2, 38099, Note_on_c, 0, 58, 0
2, 38100, Note_on_c, 0, 65, 0
2, 38142, Control_c, 0, 64, 127
2, 38160, Note_on_c, 0, 39, 120
2, 38160, Note_on_c, 0, 56, 120
2, 38160, Note_on_c, 0, 60, 120
2, 38160, Note_on_c, 0, 63, 120
2, 38190, Control_c, 0, 64, 0
2, 38283, Note_on_c, 0, 60, 0
2, 38291, Note_on_c, 0, 56, 0
2, 38292, Note_on_c, 0, 63, 0
2, 38296, Note_on_c, 0, 39, 0
2, 38310, Control_c, 0, 64, 127
2, 38400, Note_on_c, 0, 39, 120
2, 38400, Note_on_c, 0, 58, 120
2, 38400, Note_on_c, 0, 61, 120
2, 38400, Note_on_c, 0, 65, 120
2, 38447, Note_on_c, 0, 65, 0
2, 38447, Note_on_c, 0, 39, 0
2, 38447, Note_on_c, 0, 58, 0
2, 38447, Note_on_c, 0, 61, 0
2, 38448, Note_on_c, 0, 39, 120
2, 38448, Note_on_c, 0, 58, 120
2, 38448, Note_on_c, 0, 61, 120
2, 38448, Note_on_c, 0, 65, 120
2, 38451, Note_on_c, 0, 39, 0
2, 38454, Control_c, 0, 64, 0
2, 38459, Note_on_c, 0, 58, 0
2, 38459, Note_on_c, 0, 61, 0
2, 38459, Note_on_c, 0, 65, 0
2, 38784, Note_on_c, 0, 39, 120
2, 38784, Note_on_c, 0, 58, 120
2, 38784, Note_on_c, 0, 61, 120
2, 38784, Note_on_c, 0, 65, 120
2, 38839, Note_on_c, 0, 65, 0
2, 38839, Note_on_c, 0, 58, 0
2, 38840, Note_on_c, 0, 39, 0
2, 38843, Note_on_c, 0, 61, 0
2, 38856, Note_on_c, 0, 39, 120
2, 38856, Note_on_c, 0, 58, 120
2, 38856, Note_on_c, 0, 61, 120
2, 38856, Note_on_c, 0, 65, 120
2, 38863, Note_on_c, 0, 58, 0
2, 38867, Note_on_c, 0, 61, 0
2, 38868, Note_on_c, 0, 65, 0
2, 38872, Note_on_c, 0, 39, 0
2, 38928, Note_on_c, 0, 39, 120
2, 38928, Note_on_c, 0, 58, 120
2, 38928, Note_on_c, 0, 61, 120
2, 38928, Note_on_c, 0, 65, 120
2, 38934, Control_c, 0, 64, 127
2, 38943, Note_on_c, 0, 58, 0
2, 38943, Note_on_c, 0, 39, 0
2, 38952, Note_on_c, 0, 65, 0
2, 38955, Note_on_c, 0, 61, 0
2, 38976, Note_on_c, 0, 39, 120
2, 38976, Note_on_c, 0, 56, 120
2, 38976, Note_on_c, 0, 60, 120
2, 38976, Note_on_c, 0, 63, 120
2, 38982, Control_c, 0, 64, 0
2, 39064, Note_on_c, 0, 60, 0
2, 39077, Control_c, 0, 64, 127
2, 39083, Note_on_c, 0, 63, 0
2, 39083, Note_on_c, 0, 56, 0
2, 39099, Note_on_c, 0, 39, 0
2, 39120, Note_on_c, 0, 54, 120
2, 39120, Note_on_c, 0, 58, 120
2, 39120, Note_on_c, 0, 61, 120
2, 39144, Note_on_c, 0, 58, 0
2, 39148, Note_on_c, 0, 54, 0
2, 39159, Note_on_c, 0, 61, 0
2, 39168, Note_on_c, 0, 41, 120
2, 39168, Note_on_c, 0, 56, 120
2, 39168, Note_on_c, 0, 60, 120
2, 39168, Note_on_c, 0, 63, 120
2, 39174, Control_c, 0, 64, 0
2, 39220, Note_on_c, 0, 41, 0
2, 39223, Note_on_c, 0, 56, 0
2, 39224, Note_on_c, 0, 60, 0
2, 39224, Note_on_c, 0, 63, 0
2, 39240, Note_on_c, 0, 41, 120
2, 39240, Note_on_c, 0, 56, 120
2, 39240, Note_on_c, 0, 60, 120
2, 39240, Note_on_c, 0, 63, 120
2, 39251, Note_on_c, 0, 60, 0
2, 39256, Note_on_c, 0, 63, 0
2, 39256, Note_on_c, 0, 56, 0
2, 39259, Note_on_c, 0, 41, 0
2, 39504, Note_on_c, 0, 41, 120
2, 39504, Note_on_c, 0, 56, 120
2, 39504, Note_on_c, 0, 60, 120
2, 39504, Note_on_c, 0, 63, 120
2, 39510, Control_c, 0, 64, 127
2, 39523, Note_on_c, 0, 56, 0
2, 39523, Note_on_c, 0, 41, 0
2, 39524, Note_on_c, 0, 60, 0
2, 39527, Note_on_c, 0, 63, 0
2, 39552, Note_on_c, 0, 42, 120
2, 39552, Note_on_c, 0, 58, 120
2, 39552, Note_on_c, 0, 61, 120
2, 39552, Note_on_c, 0, 65, 120
2, 39557, Control_c, 0, 64, 0
2, 39611, Note_on_c, 0, 65, 0
2, 39611, Note_on_c, 0, 42, 0
2, 39611, Note_on_c, 0, 58, 0
2, 39616, Note_on_c, 0, 61, 0
2, 39624, Note_on_c, 0, 42, 120
2, 39624, Note_on_c, 0, 58, 120
2, 39624, Note_on_c, 0, 61, 120
2, 39624, Note_on_c, 0, 65, 120
2, 39636, Note_on_c, 0, 42, 0
2, 39639, Note_on_c, 0, 58, 0
2, 39639, Note_on_c, 0, 61, 0
2, 39643, Note_on_c, 0, 65, 0
2, 39888, Note_on_c, 0, 42, 120
2, 39888, Note_on_c, 0, 58, 120
2, 39888, Note_on_c, 0, 61, 120
2, 39888, Note_on_c, 0, 65, 120
2, 39893, Control_c, 0, 64, 127
2, 39899, Note_on_c, 0, 65, 0
2, 39900, Note_on_c, 0, 42, 0
2, 39903, Note_on_c, 0, 58, 0
2, 39904, Note_on_c, 0, 61, 0
2, 39936, Note_on_c, 0, 37, 120
2, 39936, Note_on_c, 0, 53, 120
2, 39936, Note_on_c, 0, 56, 120
2, 39936, Note_on_c, 0, 60, 120
2, 39964, Control_c, 0, 64, 0
2, 40228, Control_c, 0, 64, 127
2, 40231, Note_on_c, 0, 60, 0
2, 40232, Note_on_c, 0, 56, 0
2, 40232, Note_on_c, 0, 53, 0
2, 40239, Note_on_c, 0, 37, 0
2, 40320, Note_on_c, 0, 36, 120
2, 40320, Note_on_c, 0, 55, 120
2, 40320, Note_on_c, 0, 58, 120
2, 40320, Note_on_c, 0, 63, 120
2, 40325, Control_c, 0, 64, 0
2, 40372, Control_c, 0, 64, 127
2, 40440, Note_on_c, 0, 55, 0
2, 40448, Note_on_c, 0, 63, 0
2, 40451, Note_on_c, 0, 58, 0
2, 40464, Note_on_c, 0, 36, 0
2, 40512, Note_on_c, 0, 41, 120
2, 40512, Note_on_c, 0, 57, 120
2, 40512, Note_on_c, 0, 61, 120
2, 40512, Note_on_c, 0, 65, 120
2, 40517, Control_c, 0, 64, 0
2, 40612, Control_c, 0, 64, 127
2, 40623, Note_on_c, 0, 65, 0
2, 40632, Note_on_c, 0, 61, 0
2, 40635, Note_on_c, 0, 41, 0
2, 40636, Note_on_c, 0, 57, 0
2, 40704, Note_on_c, 0, 39, 120
2, 40704, Note_on_c, 0, 58, 120
2, 40704, Note_on_c, 0, 61, 120
2, 40704, Note_on_c, 0, 65, 120
2, 40709, Control_c, 0, 64, 0
2, 40756, Note_on_c, 0, 39, 0
2, 40760, Note_on_c, 0, 58, 0
2, 40760, Note_on_c, 0, 61, 0
2, 40760, Note_on_c, 0, 65, 0
2, 40776, Note_on_c, 0, 39, 120
2, 40776, Note_on_c, 0, 58, 120
2, 40776, Note_on_c, 0, 61, 120
2, 40776, Note_on_c, 0, 65, 120
2, 40783, Note_on_c, 0, 61, 0
2, 40787, Note_on_c, 0, 65, 0
2, 40788, Note_on_c, 0, 58, 0
2, 40792, Note_on_c, 0, 39, 0
2, 41088, Note_on_c, 0, 39, 120
2, 41088, Note_on_c, 0, 58, 120
2, 41088, Note_on_c, 0, 61, 120
2, 41088, Note_on_c, 0, 65, 120
2, 41151, Note_on_c, 0, 65, 0
2, 41152, Note_on_c, 0, 61, 0
2, 41152, Note_on_c, 0, 58, 0
2, 41160, Note_on_c, 0, 58, 120
2, 41160, Note_on_c, 0, 61, 120
2, 41160, Note_on_c, 0, 65, 120
2, 41168, Note_on_c, 0, 61, 0
2, 41168, Note_on_c, 0, 58, 0
2, 41171, Note_on_c, 0, 39, 0
2, 41171, Note_on_c, 0, 65, 0
2, 41232, Note_on_c, 0, 39, 120
2, 41232, Note_on_c, 0, 58, 120
2, 41232, Note_on_c, 0, 61, 120
2, 41232, Note_on_c, 0, 65, 120
2, 41236, Control_c, 0, 64, 127
2, 41243, Note_on_c, 0, 39, 0
2, 41247, Note_on_c, 0, 58, 0
2, 41252, Note_on_c, 0, 65, 0
2, 41255, Note_on_c, 0, 61, 0
2, 41280, Note_on_c, 0, 39, 120
2, 41280, Note_on_c, 0, 56, 120
2, 41280, Note_on_c, 0, 60, 120
2, 41280, Note_on_c, 0, 63, 120
2, 41285, Control_c, 0, 64, 0
2, 41380, Control_c, 0, 64, 127
2, 41388, Note_on_c, 0, 60, 0
2, 41392, Note_on_c, 0, 63, 0
2, 41392, Note_on_c, 0, 56, 0
2, 41399, Note_on_c, 0, 39, 0
2, 41472, Note_on_c, 0, 39, 120
2, 41472, Note_on_c, 0, 58, 120
2, 41472, Note_on_c, 0, 61, 120
2, 41472, Note_on_c, 0, 65, 120
2, 41476, Control_c, 0, 64, 0
2, 41524, Note_on_c, 0, 39, 0
2, 41528, Note_on_c, 0, 65, 0
2, 41532, Note_on_c, 0, 61, 0
2, 41532, Note_on_c, 0, 58, 0
2, 41544, Note_on_c, 0, 39, 120
2, 41544, Note_on_c, 0, 58, 120
2, 41544, Note_on_c, 0, 61, 120
2, 41544, Note_on_c, 0, 65, 120
2, 41552, Note_on_c, 0, 61, 0
2, 41552, Note_on_c, 0, 58, 0
2, 41560, Note_on_c, 0, 39, 0
2, 41560, Note_on_c, 0, 65, 0
2, 41856, Note_on_c, 0, 39, 120
2, 41856, Note_on_c, 0, 58, 120
2, 41856, Note_on_c, 0, 61, 120
2, 41856, Note_on_c, 0, 65, 120
2, 41907, Note_on_c, 0, 39, 0
2, 41912, Note_on_c, 0, 58, 0
2, 41912, Note_on_c, 0, 65, 0
2, 41916, Note_on_c, 0, 61, 0
2, 41928, Note_on_c, 0, 39, 120
2, 41928, Note_on_c, 0, 58, 120
2, 41928, Note_on_c, 0, 61, 120
2, 41928, Note_on_c, 0, 65, 120
2, 41936, Note_on_c, 0, 58, 0
2, 41939, Note_on_c, 0, 61, 0
2, 41943, Note_on_c, 0, 39, 0
2, 41943, Note_on_c, 0, 65, 0
2, 42000, Note_on_c, 0, 39, 120
2, 42000, Note_on_c, 0, 58, 120
2, 42000, Note_on_c, 0, 61, 120
2, 42000, Note_on_c, 0, 65, 120
2, 42004, Control_c, 0, 64, 127
2, 42011, Note_on_c, 0, 58, 0
2, 42015, Note_on_c, 0, 39, 0
2, 42020, Note_on_c, 0, 65, 0
2, 42031, Note_on_c, 0, 61, 0
2, 42048, Note_on_c, 0, 39, 120
2, 42048, Note_on_c, 0, 56, 120
2, 42048, Note_on_c, 0, 60, 120
2, 42048, Note_on_c, 0, 63, 120
2, 42052, Control_c, 0, 64, 0
2, 42136, Note_on_c, 0, 60, 0
2, 42148, Control_c, 0, 64, 127
2, 42151, Note_on_c, 0, 63, 0
2, 42160, Note_on_c, 0, 56, 0
2, 42163, Note_on_c, 0, 39, 0
2, 42192, Note_on_c, 0, 54, 120
2, 42192, Note_on_c, 0, 58, 120
2, 42192, Note_on_c, 0, 61, 120
2, 42216, Note_on_c, 0, 58, 0
2, 42219, Note_on_c, 0, 54, 0
2, 42235, Note_on_c, 0, 61, 0
2, 42240, Note_on_c, 0, 41, 120
2, 42240, Note_on_c, 0, 56, 120
2, 42240, Note_on_c, 0, 60, 120
2, 42240, Note_on_c, 0, 63, 120
2, 42244, Control_c, 0, 64, 0
2, 42295, Note_on_c, 0, 41, 0
2, 42299, Note_on_c, 0, 63, 0
2, 42304, Note_on_c, 0, 60, 0
2, 42304, Note_on_c, 0, 56, 0
2, 42312, Note_on_c, 0, 41, 120
2, 42312, Note_on_c, 0, 56, 120
2, 42312, Note_on_c, 0, 60, 120
2, 42312, Note_on_c, 0, 63, 120
2, 42327, Note_on_c, 0, 63, 0
2, 42328, Note_on_c, 0, 60, 0
2, 42328, Note_on_c, 0, 56, 0
2, 42332, Note_on_c, 0, 41, 0
2, 42576, Note_on_c, 0, 41, 120
2, 42576, Note_on_c, 0, 56, 120
2, 42576, Note_on_c, 0, 60, 120
2, 42576, Note_on_c, 0, 63, 120
2, 42580, Control_c, 0, 64, 127
2, 42595, Note_on_c, 0, 41, 0
2, 42596, Note_on_c, 0, 56, 0
2, 42596, Note_on_c, 0, 60, 0
2, 42603, Note_on_c, 0, 63, 0
2, 42624, Note_on_c, 0, 42, 120
2, 42624, Note_on_c, 0, 58, 120
2, 42624, Note_on_c, 0, 61, 120
2, 42624, Note_on_c, 0, 65, 120
2, 42628, Control_c, 0, 64, 0
2, 42676, Control_c, 0, 64, 127
2, 42683, Note_on_c, 0, 65, 0
2, 42683, Note_on_c, 0, 42, 0
2, 42687, Note_on_c, 0, 61, 0
2, 42688, Note_on_c, 0, 58, 0
2, 42696, Note_on_c, 0, 42, 120
2, 42696, Note_on_c, 0, 58, 120
2, 42696, Note_on_c, 0, 61, 120
2, 42696, Note_on_c, 0, 65, 120
2, 42699, Control_c, 0, 64, 0
2, 42711, Note_on_c, 0, 58, 0
2, 42711, Note_on_c, 0, 42, 0
2, 42712, Note_on_c, 0, 61, 0
2, 42715, Note_on_c, 0, 65, 0
2, 42960, Note_on_c, 0, 42, 120
2, 42960, Note_on_c, 0, 58, 120
2, 42960, Note_on_c, 0, 61, 120
2, 42960, Note_on_c, 0, 65, 120
2, 42964, Control_c, 0, 64, 127
2, 42971, Note_on_c, 0, 42, 0
2, 42972, Note_on_c, 0, 65, 0
2, 42975, Note_on_c, 0, 58, 0
2, 42976, Note_on_c, 0, 61, 0
2, 43008, Note_on_c, 0, 37, 120
2, 43008, Note_on_c, 0, 53, 120
2, 43008, Note_on_c, 0, 56, 120
2, 43008, Note_on_c, 0, 60, 120
2, 43012, Control_c, 0, 64, 0
2, 43299, Control_c, 0, 64, 127
2, 43311, Note_on_c, 0, 53, 0
2, 43316, Note_on_c, 0, 60, 0
2, 43316, Note_on_c, 0, 56, 0
2, 43327, Note_on_c, 0, 37, 0
2, 43392, Note_on_c, 0, 36, 120
2, 43392, Note_on_c, 0, 55, 120
2, 43392, Note_on_c, 0, 58, 120
2, 43392, Note_on_c, 0, 63, 120
2, 43396, Control_c, 0, 64, 0
2, 43466, Control_c, 0, 64, 127
2, 43512, Note_on_c, 0, 55, 0
2, 43515, Note_on_c, 0, 63, 0
2, 43515, Note_on_c, 0, 58, 0
2, 43523, Note_on_c, 0, 36, 0
2, 43584, Note_on_c, 0, 41, 120
2, 43584, Note_on_c, 0, 57, 120
2, 43584, Note_on_c, 0, 61, 120
2, 43584, Note_on_c, 0, 65, 120
2, 43587, Control_c, 0, 64, 0
2, 43683, Control_c, 0, 64, 127
2, 43707, Note_on_c, 0, 65, 0
2, 43711, Note_on_c, 0, 61, 0
2, 43715, Note_on_c, 0, 57, 0
2, 43715, Note_on_c, 0, 41, 0
2, 43776, Note_on_c, 0, 39, 120
2, 43776, Note_on_c, 0, 58, 120
2, 43776, Note_on_c, 0, 61, 120
2, 43776, Note_on_c, 0, 65, 120
2, 43802, Control_c, 0, 64, 0
2, 43823, Note_on_c, 0, 39, 0
2, 43827, Note_on_c, 0, 58, 0
2, 43831, Note_on_c, 0, 61, 0
2, 43831, Note_on_c, 0, 65, 0
2, 43848, Note_on_c, 0, 39, 120
2, 43848, Note_on_c, 0, 58, 120
2, 43848, Note_on_c, 0, 61, 120
2, 43848, Note_on_c, 0, 65, 120
2, 43859, Note_on_c, 0, 61, 0
2, 43859, Note_on_c, 0, 58, 0
2, 43864, Note_on_c, 0, 39, 0
2, 43864, Note_on_c, 0, 65, 0
2, 44160, Note_on_c, 0, 39, 120
2, 44160, Note_on_c, 0, 58, 120
2, 44160, Note_on_c, 0, 61, 120
2, 44160, Note_on_c, 0, 65, 120
2, 44212, Note_on_c, 0, 65, 0
2, 44212, Note_on_c, 0, 39, 0
2, 44215, Note_on_c, 0, 61, 0
2, 44215, Note_on_c, 0, 58, 0
2, 44232, Note_on_c, 0, 39, 120
2, 44232, Note_on_c, 0, 58, 120
2, 44232, Note_on_c, 0, 61, 120
2, 44232, Note_on_c, 0, 65, 120
2, 44243, Note_on_c, 0, 61, 0
2, 44243, Note_on_c, 0, 58, 0
2, 44248, Note_on_c, 0, 39, 0
2, 44248, Note_on_c, 0, 65, 0
2, 44304, Note_on_c, 0, 39, 120
2, 44304, Note_on_c, 0, 58, 120
2, 44304, Note_on_c, 0, 61, 120
2, 44304, Note_on_c, 0, 65, 120
2, 44306, Control_c, 0, 64, 127
2, 44315, Note_on_c, 0, 39, 0
2, 44319, Note_on_c, 0, 58, 0
2, 44323, Note_on_c, 0, 65, 0
2, 44327, Note_on_c, 0, 61, 0
2, 44352, Note_on_c, 0, 39, 120
2, 44352, Note_on_c, 0, 56, 120
2, 44352, Note_on_c, 0, 60, 120
2, 44352, Note_on_c, 0, 63, 120
2, 44355, Control_c, 0, 64, 0
2, 44443, Note_on_c, 0, 60, 0
2, 44450, Control_c, 0, 64, 127
2, 44451, Note_on_c, 0, 63, 0
2, 44451, Note_on_c, 0, 56, 0
2, 44455, Note_on_c, 0, 39, 0
2, 44544, Note_on_c, 0, 39, 120
2, 44544, Note_on_c, 0, 58, 120
2, 44544, Note_on_c, 0, 61, 120
2, 44544, Note_on_c, 0, 65, 120
2, 44547, Control_c, 0, 64, 0
2, 44591, Note_on_c, 0, 39, 0
2, 44599, Note_on_c, 0, 58, 0
2, 44600, Note_on_c, 0, 61, 0
2, 44603, Note_on_c, 0, 65, 0
2, 44616, Note_on_c, 0, 39, 120
2, 44616, Note_on_c, 0, 58, 120
2, 44616, Note_on_c, 0, 61, 120
2, 44616, Note_on_c, 0, 65, 120
2, 44627, Note_on_c, 0, 61, 0
2, 44627, Note_on_c, 0, 58, 0
2, 44631, Note_on_c, 0, 39, 0
2, 44631, Note_on_c, 0, 65, 0
2, 44928, Note_on_c, 0, 39, 120
2, 44928, Note_on_c, 0, 58, 120
2, 44928, Note_on_c, 0, 61, 120
2, 44928, Note_on_c, 0, 65, 120
2, 44980, Note_on_c, 0, 65, 0
2, 44980, Note_on_c, 0, 39, 0
2, 44984, Note_on_c, 0, 61, 0
2, 44984, Note_on_c, 0, 58, 0
2, 45000, Note_on_c, 0, 39, 120
2, 45000, Note_on_c, 0, 58, 120
2, 45000, Note_on_c, 0, 61, 120
2, 45000, Note_on_c, 0, 65, 120
2, 45012, Note_on_c, 0, 61, 0
2, 45012, Note_on_c, 0, 58, 0
2, 45016, Note_on_c, 0, 39, 0
2, 45016, Note_on_c, 0, 65, 0
2, 45072, Note_on_c, 0, 39, 120
2, 45072, Note_on_c, 0, 58, 120
2, 45072, Note_on_c, 0, 61, 120
2, 45072, Note_on_c, 0, 65, 120
2, 45075, Control_c, 0, 64, 127
2, 45084, Note_on_c, 0, 58, 0
2, 45087, Note_on_c, 0, 39, 0
2, 45088, Note_on_c, 0, 65, 0
2, 45099, Note_on_c, 0, 61, 0
2, 45120, Note_on_c, 0, 39, 120
2, 45120, Note_on_c, 0, 56, 120
2, 45120, Note_on_c, 0, 60, 120
2, 45120, Note_on_c, 0, 63, 120
2, 45122, Control_c, 0, 64, 0
2, 45194, Control_c, 0, 64, 127
2, 45219, Note_on_c, 0, 60, 0
2, 45223, Note_on_c, 0, 56, 0
2, 45228, Note_on_c, 0, 63, 0
2, 45239, Note_on_c, 0, 39, 0
2, 45264, Note_on_c, 0, 54, 120
2, 45264, Note_on_c, 0, 58, 120
2, 45264, Note_on_c, 0, 61, 120
2, 45287, Note_on_c, 0, 58, 0
2, 45291, Note_on_c, 0, 54, 0
2, 45303, Note_on_c, 0, 61, 0
2, 45312, Note_on_c, 0, 41, 120
2, 45312, Note_on_c, 0, 56, 120
2, 45312, Note_on_c, 0, 60, 120
2, 45312, Note_on_c, 0, 63, 120
2, 45314, Control_c, 0, 64, 0
2, 45368, Note_on_c, 0, 41, 0
2, 45371, Note_on_c, 0, 56, 0
2, 45371, Note_on_c, 0, 60, 0
2, 45372, Note_on_c, 0, 63, 0
2, 45384, Note_on_c, 0, 41, 120
2, 45384, Note_on_c, 0, 56, 120
2, 45384, Note_on_c, 0, 60, 120
2, 45384, Note_on_c, 0, 63, 120
2, 45395, Note_on_c, 0, 63, 0
2, 45395, Note_on_c, 0, 60, 0
2, 45395, Note_on_c, 0, 56, 0
2, 45400, Note_on_c, 0, 41, 0
2, 45648, Note_on_c, 0, 41, 120
2, 45648, Note_on_c, 0, 56, 120
2, 45648, Note_on_c, 0, 60, 120
2, 45648, Note_on_c, 0, 63, 120
2, 45650, Control_c, 0, 64, 127
2, 45663, Note_on_c, 0, 56, 0
2, 45664, Note_on_c, 0, 60, 0
2, 45667, Note_on_c, 0, 41, 0
2, 45671, Note_on_c, 0, 63, 0
2, 45696, Note_on_c, 0, 42, 120
2, 45696, Note_on_c, 0, 58, 120
2, 45696, Note_on_c, 0, 61, 120
2, 45696, Note_on_c, 0, 65, 120
2, 45698, Control_c, 0, 64, 0
2, 45752, Note_on_c, 0, 65, 0
2, 45752, Note_on_c, 0, 42, 0
2, 45755, Note_on_c, 0, 61, 0
2, 45756, Note_on_c, 0, 58, 0
2, 45768, Note_on_c, 0, 42, 120
2, 45768, Note_on_c, 0, 58, 120
2, 45768, Note_on_c, 0, 61, 120
2, 45768, Note_on_c, 0, 65, 120
2, 45779, Note_on_c, 0, 61, 0
2, 45779, Note_on_c, 0, 58, 0
2, 45780, Note_on_c, 0, 65, 0
2, 45784, Note_on_c, 0, 42, 0
2, 46032, Note_on_c, 0, 42, 120
2, 46032, Note_on_c, 0, 58, 120
2, 46032, Note_on_c, 0, 61, 120
2, 46032, Note_on_c, 0, 65, 120
2, 46034, Control_c, 0, 64, 127
2, 46043, Note_on_c, 0, 42, 0
2, 46044, Note_on_c, 0, 65, 0
2, 46048, Note_on_c, 0, 61, 0
2, 46048, Note_on_c, 0, 58, 0
2, 46080, Note_on_c, 0, 37, 120
2, 46080, Note_on_c, 0, 53, 120
2, 46080, Note_on_c, 0, 56, 120
2, 46080, Note_on_c, 0, 60, 120
2, 46106, Control_c, 0, 64, 0
2, 46298, Control_c, 0, 64, 127
2, 46348, Note_on_c, 0, 53, 0
2, 46351, Note_on_c, 0, 60, 0
2, 46352, Note_on_c, 0, 56, 0
2, 46411, Note_on_c, 0, 37, 0
2, 46464, Note_on_c, 0, 36, 120
2, 46464, Note_on_c, 0, 55, 120
2, 46464, Note_on_c, 0, 58, 120
2, 46464, Note_on_c, 0, 63, 120
2, 46489, Control_c, 0, 64, 0
2, 46537, Control_c, 0, 64, 127
2, 46560, Note_on_c, 0, 63, 0
2, 46563, Note_on_c, 0, 55, 0
2, 46567, Note_on_c, 0, 58, 0
2, 46575, Note_on_c, 0, 36, 0
2, 46656, Note_on_c, 0, 41, 120
2, 46656, Note_on_c, 0, 57, 120
2, 46656, Note_on_c, 0, 61, 120
2, 46656, Note_on_c, 0, 65, 120
2, 46681, Control_c, 0, 64, 0
2, 46753, Control_c, 0, 64, 127
2, 46767, Note_on_c, 0, 41, 0
2, 46771, Note_on_c, 0, 57, 0
2, 46772, Note_on_c, 0, 65, 0
2, 46775, Note_on_c, 0, 61, 0
2, 46848, Note_on_c, 0, 46, 120
2, 46848, Note_on_c, 0, 56, 120
2, 46848, Note_on_c, 0, 60, 120
2, 46848, Note_on_c, 0, 61, 120
2, 46848, Note_on_c, 0, 65, 120
2, 46873, Control_c, 0, 64, 0
2, 47835, Note_on_c, 0, 61, 0
2, 47858, Note_on_c, 0, 65, 0
2, 47859, Note_on_c, 0, 46, 0
2, 47868, Note_on_c, 0, 60, 0
2, 47868, Note_on_c, 0, 56, 0
2, 48000, Control_c, 0, 120, 0
2, 48001, Control_c, 0, 123, 0
2, 48001, End_track
3, 0, Start_track
3, 0, MIDI_port, 0
3, 0, Title_t, ""
3, 81, Control_c, 1, 121, 0
3, 101, Control_c, 1, 0, 56
3, 102, Control_c, 1, 32, 0
3, 103, Program_c, 1, 33
3, 104, Control_c, 1, 7, 125
3, 104, Control_c, 1, 10, 64
3, 104, Control_c, 1, 11, 127
3, 105, Control_c, 1, 91, 0
3, 105, Control_c, 1, 93, 60
3, 3071, Note_on_c, 1, 29, 112
3, 3374, Note_on_c, 1, 29, 0
3, 3455, Note_on_c, 1, 29, 112
3, 3606, Note_on_c, 1, 29, 0
3, 3647, Note_on_c, 1, 29, 112
3, 3798, Note_on_c, 1, 29, 0
3, 3839, Note_on_c, 1, 27, 112
3, 3914, Note_on_c, 1, 27, 0
3, 4007, Note_on_c, 1, 27, 112
3, 4023, Note_on_c, 1, 27, 0
3, 4055, Note_on_c, 1, 25, 112
3, 4070, Note_on_c, 1, 25, 0
3, 4079, Note_on_c, 1, 27, 112
3, 4115, Note_on_c, 1, 27, 0
3, 4127, Note_on_c, 1, 25, 112
3, 4163, Note_on_c, 1, 25, 0
3, 4367, Note_on_c, 1, 27, 112
3, 4401, Note_on_c, 1, 27, 0
3, 4439, Note_on_c, 1, 25, 112
3, 4455, Note_on_c, 1, 25, 0
3, 4463, Note_on_c, 1, 27, 112
3, 4499, Note_on_c, 1, 27, 0
3, 4559, Note_on_c, 1, 25, 112
3, 4594, Note_on_c, 1, 25, 0
3, 4607, Note_on_c, 1, 27, 112
3, 4681, Note_on_c, 1, 27, 0
3, 4775, Note_on_c, 1, 27, 112
3, 4791, Note_on_c, 1, 27, 0
3, 4823, Note_on_c, 1, 25, 112
3, 4838, Note_on_c, 1, 25, 0
3, 4847, Note_on_c, 1, 27, 112
3, 4883, Note_on_c, 1, 27, 0
3, 4895, Note_on_c, 1, 25, 112
3, 4931, Note_on_c, 1, 25, 0
3, 5135, Note_on_c, 1, 27, 112
3, 5170, Note_on_c, 1, 27, 0
3, 5207, Note_on_c, 1, 25, 112
3, 5223, Note_on_c, 1, 25, 0
3, 5231, Note_on_c, 1, 27, 112
3, 5267, Note_on_c, 1, 27, 0
3, 5327, Note_on_c, 1, 27, 112
3, 5362, Note_on_c, 1, 27, 0
3, 5375, Note_on_c, 1, 29, 112
3, 5450, Note_on_c, 1, 29, 0
3, 5543, Note_on_c, 1, 29, 112
3, 5559, Note_on_c, 1, 29, 0
3, 5591, Note_on_c, 1, 27, 112
3, 5607, Note_on_c, 1, 27, 0
3, 5615, Note_on_c, 1, 29, 112
3, 5651, Note_on_c, 1, 29, 0
3, 5711, Note_on_c, 1, 29, 112
3, 5746, Note_on_c, 1, 29, 0
3, 5759, Note_on_c, 1, 30, 112
3, 5834, Note_on_c, 1, 30, 0
3, 5927, Note_on_c, 1, 30, 112
3, 5943, Note_on_c, 1, 30, 0
3, 5975, Note_on_c, 1, 29, 112
3, 5991, Note_on_c, 1, 29, 0
3, 5999, Note_on_c, 1, 30, 112
3, 6035, Note_on_c, 1, 30, 0
3, 6047, Note_on_c, 1, 29, 112
3, 6082, Note_on_c, 1, 29, 0
3, 6095, Note_on_c, 1, 27, 112
3, 6130, Note_on_c, 1, 27, 0
3, 6143, Note_on_c, 1, 25, 112
3, 6218, Note_on_c, 1, 25, 0
3, 6311, Note_on_c, 1, 25, 112
3, 6327, Note_on_c, 1, 25, 0
3, 6359, Note_on_c, 1, 24, 112
3, 6375, Note_on_c, 1, 24, 0
3, 6383, Note_on_c, 1, 25, 112
3, 6419, Note_on_c, 1, 25, 0
3, 6479, Note_on_c, 1, 25, 112
3, 6515, Note_on_c, 1, 25, 0
3, 6527, Note_on_c, 1, 24, 112
3, 6602, Note_on_c, 1, 24, 0
3, 6623, Note_on_c, 1, 36, 112
3, 6659, Note_on_c, 1, 36, 0
3, 6671, Note_on_c, 1, 24, 112
3, 6707, Note_on_c, 1, 24, 0
3, 6719, Note_on_c, 1, 29, 112
3, 6794, Note_on_c, 1, 29, 0
3, 6815, Note_on_c, 1, 41, 112
3, 6851, Note_on_c, 1, 41, 0
3, 6863, Note_on_c, 1, 29, 112
3, 6899, Note_on_c, 1, 29, 0
3, 6911, Note_on_c, 1, 27, 112
3, 6986, Note_on_c, 1, 27, 0
3, 7079, Note_on_c, 1, 27, 112
3, 7095, Note_on_c, 1, 27, 0
3, 7127, Note_on_c, 1, 25, 112
3, 7143, Note_on_c, 1, 25, 0
3, 7151, Note_on_c, 1, 27, 112
3, 7186, Note_on_c, 1, 27, 0
3, 7295, Note_on_c, 1, 27, 112
3, 7370, Note_on_c, 1, 27, 0
3, 7463, Note_on_c, 1, 27, 112
3, 7479, Note_on_c, 1, 27, 0
3, 7511, Note_on_c, 1, 25, 112
3, 7526, Note_on_c, 1, 25, 0
3, 7535, Note_on_c, 1, 27, 112
3, 7571, Note_on_c, 1, 27, 0
3, 7631, Note_on_c, 1, 27, 112
3, 7667, Note_on_c, 1, 27, 0
3, 7679, Note_on_c, 1, 25, 112
3, 7754, Note_on_c, 1, 25, 0
3, 7847, Note_on_c, 1, 25, 112
3, 7863, Note_on_c, 1, 25, 0
3, 7895, Note_on_c, 1, 24, 112
3, 7911, Note_on_c, 1, 24, 0
3, 7919, Note_on_c, 1, 25, 112
3, 7955, Note_on_c, 1, 25, 0
3, 7991, Note_on_c, 1, 25, 112
3, 8027, Note_on_c, 1, 25, 0
3, 8063, Note_on_c, 1, 34, 112
3, 8138, Note_on_c, 1, 34, 0
3, 8231, Note_on_c, 1, 34, 112
3, 8247, Note_on_c, 1, 34, 0
3, 8279, Note_on_c, 1, 32, 112
3, 8295, Note_on_c, 1, 32, 0
3, 8303, Note_on_c, 1, 34, 112
3, 8339, Note_on_c, 1, 34, 0
3, 8399, Note_on_c, 1, 32, 112
3, 8434, Note_on_c, 1, 32, 0
3, 8447, Note_on_c, 1, 27, 112
3, 8522, Note_on_c, 1, 27, 0
3, 8615, Note_on_c, 1, 27, 112
3, 8631, Note_on_c, 1, 27, 0
3, 8663, Note_on_c, 1, 25, 112
3, 8679, Note_on_c, 1, 25, 0
3, 8687, Note_on_c, 1, 27, 112
3, 8723, Note_on_c, 1, 27, 0
3, 8831, Note_on_c, 1, 27, 112
3, 8906, Note_on_c, 1, 27, 0
3, 8999, Note_on_c, 1, 27, 112
3, 9015, Note_on_c, 1, 27, 0
3, 9047, Note_on_c, 1, 25, 112
3, 9062, Note_on_c, 1, 25, 0
3, 9071, Note_on_c, 1, 27, 112
3, 9107, Note_on_c, 1, 27, 0
3, 9167, Note_on_c, 1, 25, 112
3, 9202, Note_on_c, 1, 25, 0
3, 9215, Note_on_c, 1, 25, 112
3, 9290, Note_on_c, 1, 25, 0
3, 9383, Note_on_c, 1, 25, 112
3, 9399, Note_on_c, 1, 25, 0
3, 9431, Note_on_c, 1, 24, 112
3, 9447, Note_on_c, 1, 24, 0
3, 9455, Note_on_c, 1, 25, 112
3, 9491, Note_on_c, 1, 25, 0
3, 9551, Note_on_c, 1, 25, 112
3, 9586, Note_on_c, 1, 25, 0
3, 9599, Note_on_c, 1, 24, 112
3, 9674, Note_on_c, 1, 24, 0
3, 9695, Note_on_c, 1, 36, 112
3, 9731, Note_on_c, 1, 36, 0
3, 9743, Note_on_c, 1, 24, 112
3, 9779, Note_on_c, 1, 24, 0
3, 9791, Note_on_c, 1, 29, 112
3, 9866, Note_on_c, 1, 29, 0
3, 9887, Note_on_c, 1, 41, 112
3, 9922, Note_on_c, 1, 41, 0
3, 9935, Note_on_c, 1, 29, 112
3, 9971, Note_on_c, 1, 29, 0
3, 9983, Note_on_c, 1, 27, 112
3, 10058, Note_on_c, 1, 27, 0
3, 10151, Note_on_c, 1, 27, 112
3, 10167, Note_on_c, 1, 27, 0
3, 10199, Note_on_c, 1, 25, 112
3, 10215, Note_on_c, 1, 25, 0
3, 10223, Note_on_c, 1, 27, 112
3, 10259, Note_on_c, 1, 27, 0
3, 10367, Note_on_c, 1, 27, 112
3, 10442, Note_on_c, 1, 27, 0
3, 10535, Note_on_c, 1, 27, 112
3, 10551, Note_on_c, 1, 27, 0
3, 10583, Note_on_c, 1, 25, 112
3, 10599, Note_on_c, 1, 25, 0
3, 10607, Note_on_c, 1, 27, 112
3, 10643, Note_on_c, 1, 27, 0
3, 10703, Note_on_c, 1, 27, 112
3, 10739, Note_on_c, 1, 27, 0
3, 10751, Note_on_c, 1, 25, 112
3, 10826, Note_on_c, 1, 25, 0
3, 10919, Note_on_c, 1, 25, 112
3, 10935, Note_on_c, 1, 25, 0
3, 10967, Note_on_c, 1, 24, 112
3, 10983, Note_on_c, 1, 24, 0
3, 10991, Note_on_c, 1, 25, 112
3, 11027, Note_on_c, 1, 25, 0
3, 11087, Note_on_c, 1, 25, 112
3, 11122, Note_on_c, 1, 25, 0
3, 11135, Note_on_c, 1, 34, 112
3, 11210, Note_on_c, 1, 34, 0
3, 11303, Note_on_c, 1, 34, 112
3, 11319, Note_on_c, 1, 34, 0
3, 11351, Note_on_c, 1, 32, 112
3, 11367, Note_on_c, 1, 32, 0
3, 11375, Note_on_c, 1, 34, 112
3, 11411, Note_on_c, 1, 34, 0
3, 11471, Note_on_c, 1, 32, 112
3, 11507, Note_on_c, 1, 32, 0
3, 11519, Note_on_c, 1, 27, 112
3, 11594, Note_on_c, 1, 27, 0
3, 11687, Note_on_c, 1, 27, 112
3, 11703, Note_on_c, 1, 27, 0
3, 11735, Note_on_c, 1, 25, 112
3, 11751, Note_on_c, 1, 25, 0
3, 11759, Note_on_c, 1, 27, 112
3, 11794, Note_on_c, 1, 27, 0
3, 11903, Note_on_c, 1, 27, 112
3, 11978, Note_on_c, 1, 27, 0
3, 12071, Note_on_c, 1, 27, 112
3, 12087, Note_on_c, 1, 27, 0
3, 12119, Note_on_c, 1, 25, 112
3, 12135, Note_on_c, 1, 25, 0
3, 12143, Note_on_c, 1, 27, 112
3, 12178, Note_on_c, 1, 27, 0
3, 12239, Note_on_c, 1, 25, 112
3, 12275, Note_on_c, 1, 25, 0
3, 12287, Note_on_c, 1, 25, 112
3, 12362, Note_on_c, 1, 25, 0
3, 12455, Note_on_c, 1, 25, 112
3, 12471, Note_on_c, 1, 25, 0
3, 12503, Note_on_c, 1, 24, 112
3, 12519, Note_on_c, 1, 24, 0
3, 12527, Note_on_c, 1, 25, 112
3, 12563, Note_on_c, 1, 25, 0
3, 12623, Note_on_c, 1, 25, 112
3, 12659, Note_on_c, 1, 25, 0
3, 12671, Note_on_c, 1, 34, 112
3, 12746, Note_on_c, 1, 34, 0
3, 12839, Note_on_c, 1, 34, 112
3, 12855, Note_on_c, 1, 34, 0
3, 12887, Note_on_c, 1, 32, 112
3, 12903, Note_on_c, 1, 32, 0
3, 12911, Note_on_c, 1, 34, 112
3, 12947, Note_on_c, 1, 34, 0
3, 13007, Note_on_c, 1, 32, 112
3, 13043, Note_on_c, 1, 32, 0
3, 13055, Note_on_c, 1, 29, 112
3, 13358, Note_on_c, 1, 29, 0
3, 13439, Note_on_c, 1, 26, 112
3, 13742, Note_on_c, 1, 26, 0
3, 13823, Note_on_c, 1, 29, 112
3, 14126, Note_on_c, 1, 29, 0
3, 14207, Note_on_c, 1, 26, 112
3, 14358, Note_on_c, 1, 26, 0
3, 14399, Note_on_c, 1, 29, 112
3, 14550, Note_on_c, 1, 29, 0
3, 14591, Note_on_c, 1, 27, 112
3, 14665, Note_on_c, 1, 27, 0
3, 14759, Note_on_c, 1, 27, 112
3, 14775, Note_on_c, 1, 27, 0
3, 14807, Note_on_c, 1, 25, 112
3, 14823, Note_on_c, 1, 25, 0
3, 14831, Note_on_c, 1, 27, 112
3, 14867, Note_on_c, 1, 27, 0
3, 14879, Note_on_c, 1, 25, 112
3, 14915, Note_on_c, 1, 25, 0
3, 15119, Note_on_c, 1, 27, 112
3, 15154, Note_on_c, 1, 27, 0
3, 15191, Note_on_c, 1, 25, 112
3, 15207, Note_on_c, 1, 25, 0
3, 15215, Note_on_c, 1, 27, 112
3, 15251, Note_on_c, 1, 27, 0
3, 15311, Note_on_c, 1, 25, 112
3, 15347, Note_on_c, 1, 25, 0
3, 15359, Note_on_c, 1, 27, 112
3, 15434, Note_on_c, 1, 27, 0
3, 15527, Note_on_c, 1, 27, 112
3, 15543, Note_on_c, 1, 27, 0
3, 15575, Note_on_c, 1, 25, 112
3, 15591, Note_on_c, 1, 25, 0
3, 15599, Note_on_c, 1, 27, 112
3, 15635, Note_on_c, 1, 27, 0
3, 15647, Note_on_c, 1, 25, 112
3, 15682, Note_on_c, 1, 25, 0
3, 15887, Note_on_c, 1, 27, 112
3, 15922, Note_on_c, 1, 27, 0
3, 15959, Note_on_c, 1, 25, 112
3, 15975, Note_on_c, 1, 25, 0
3, 15983, Note_on_c, 1, 27, 112
3, 16019, Note_on_c, 1, 27, 0
3, 16079, Note_on_c, 1, 27, 112
3, 16115, Note_on_c, 1, 27, 0
3, 16127, Note_on_c, 1, 29, 112
3, 16202, Note_on_c, 1, 29, 0
3, 16295, Note_on_c, 1, 29, 112
3, 16311, Note_on_c, 1, 29, 0
3, 16343, Note_on_c, 1, 27, 112
3, 16359, Note_on_c, 1, 27, 0
3, 16367, Note_on_c, 1, 29, 112
3, 16403, Note_on_c, 1, 29, 0
3, 16463, Note_on_c, 1, 29, 112
3, 16498, Note_on_c, 1, 29, 0
3, 16511, Note_on_c, 1, 30, 112
3, 16586, Note_on_c, 1, 30, 0
3, 16679, Note_on_c, 1, 30, 112
3, 16695, Note_on_c, 1, 30, 0
3, 16727, Note_on_c, 1, 29, 112
3, 16743, Note_on_c, 1, 29, 0
3, 16751, Note_on_c, 1, 30, 112
3, 16786, Note_on_c, 1, 30, 0
3, 16799, Note_on_c, 1, 29, 112
3, 16835, Note_on_c, 1, 29, 0
3, 16847, Note_on_c, 1, 27, 112
3, 16882, Note_on_c, 1, 27, 0
3, 16895, Note_on_c, 1, 25, 112
3, 16970, Note_on_c, 1, 25, 0
3, 17063, Note_on_c, 1, 25, 112
3, 17079, Note_on_c, 1, 25, 0
3, 17111, Note_on_c, 1, 24, 112
3, 17127, Note_on_c, 1, 24, 0
3, 17135, Note_on_c, 1, 25, 112
3, 17170, Note_on_c, 1, 25, 0
3, 17231, Note_on_c, 1, 25, 112
3, 17267, Note_on_c, 1, 25, 0
3, 17279, Note_on_c, 1, 24, 112
3, 17354, Note_on_c, 1, 24, 0
3, 17375, Note_on_c, 1, 36, 112
3, 17411, Note_on_c, 1, 36, 0
3, 17423, Note_on_c, 1, 24, 112
3, 17459, Note_on_c, 1, 24, 0
3, 17471, Note_on_c, 1, 29, 112
3, 17546, Note_on_c, 1, 29, 0
3, 17567, Note_on_c, 1, 41, 112
3, 17603, Note_on_c, 1, 41, 0
3, 17615, Note_on_c, 1, 29, 112
3, 17651, Note_on_c, 1, 29, 0
3, 19199, Note_on_c, 1, 27, 112
3, 19273, Note_on_c, 1, 27, 0
3, 19367, Note_on_c, 1, 27, 112
3, 19383, Note_on_c, 1, 27, 0
3, 19415, Note_on_c, 1, 25, 112
3, 19431, Note_on_c, 1, 25, 0
3, 19439, Note_on_c, 1, 27, 112
3, 19475, Note_on_c, 1, 27, 0
3, 19583, Note_on_c, 1, 27, 112
3, 19658, Note_on_c, 1, 27, 0
3, 19751, Note_on_c, 1, 27, 112
3, 19767, Note_on_c, 1, 27, 0
3, 19799, Note_on_c, 1, 25, 112
3, 19814, Note_on_c, 1, 25, 0
3, 19823, Note_on_c, 1, 27, 112
3, 19859, Note_on_c, 1, 27, 0
3, 19919, Note_on_c, 1, 27, 112
3, 19954, Note_on_c, 1, 27, 0
3, 19967, Note_on_c, 1, 25, 112
3, 20042, Note_on_c, 1, 25, 0
3, 20135, Note_on_c, 1, 25, 112
3, 20151, Note_on_c, 1, 25, 0
3, 20183, Note_on_c, 1, 24, 112
3, 20199, Note_on_c, 1, 24, 0
3, 20207, Note_on_c, 1, 25, 112
3, 20243, Note_on_c, 1, 25, 0
3, 20279, Note_on_c, 1, 25, 112
3, 20315, Note_on_c, 1, 25, 0
3, 20351, Note_on_c, 1, 34, 112
3, 20426, Note_on_c, 1, 34, 0
3, 20519, Note_on_c, 1, 34, 112
3, 20535, Note_on_c, 1, 34, 0
3, 20567, Note_on_c, 1, 32, 112
3, 20583, Note_on_c, 1, 32, 0
3, 20591, Note_on_c, 1, 34, 112
3, 20627, Note_on_c, 1, 34, 0
3, 20687, Note_on_c, 1, 32, 112
3, 20723, Note_on_c, 1, 32, 0
3, 20735, Note_on_c, 1, 27, 112
3, 20810, Note_on_c, 1, 27, 0
3, 20903, Note_on_c, 1, 27, 112
3, 20918, Note_on_c, 1, 27, 0
3, 20951, Note_on_c, 1, 25, 112
3, 20967, Note_on_c, 1, 25, 0
3, 20975, Note_on_c, 1, 27, 112
3, 21011, Note_on_c, 1, 27, 0
3, 21119, Note_on_c, 1, 27, 112
3, 21194, Note_on_c, 1, 27, 0
3, 21287, Note_on_c, 1, 27, 112
3, 21303, Note_on_c, 1, 27, 0
3, 21335, Note_on_c, 1, 25, 112
3, 21350, Note_on_c, 1, 25, 0
3, 21359, Note_on_c, 1, 27, 112
3, 21395, Note_on_c, 1, 27, 0
3, 21455, Note_on_c, 1, 25, 112
3, 21491, Note_on_c, 1, 25, 0
3, 21503, Note_on_c, 1, 25, 112
3, 21578, Note_on_c, 1, 25, 0
3, 21671, Note_on_c, 1, 25, 112
3, 21687, Note_on_c, 1, 25, 0
3, 21719, Note_on_c, 1, 24, 112
3, 21735, Note_on_c, 1, 24, 0
3, 21743, Note_on_c, 1, 25, 112
3, 21778, Note_on_c, 1, 25, 0
3, 21839, Note_on_c, 1, 25, 112
3, 21875, Note_on_c, 1, 25, 0
3, 21887, Note_on_c, 1, 34, 112
3, 21962, Note_on_c, 1, 34, 0
3, 22055, Note_on_c, 1, 34, 112
3, 22071, Note_on_c, 1, 34, 0
3, 22103, Note_on_c, 1, 32, 112
3, 22119, Note_on_c, 1, 32, 0
3, 22127, Note_on_c, 1, 34, 112
3, 22162, Note_on_c, 1, 34, 0
3, 22223, Note_on_c, 1, 32, 112
3, 22259, Note_on_c, 1, 32, 0
3, 22271, Note_on_c, 1, 29, 112
3, 22574, Note_on_c, 1, 29, 0
3, 22655, Note_on_c, 1, 26, 112
3, 22958, Note_on_c, 1, 26, 0
3, 23039, Note_on_c, 1, 29, 112
3, 23342, Note_on_c, 1, 29, 0
3, 23423, Note_on_c, 1, 26, 112
3, 23574, Note_on_c, 1, 26, 0
3, 23615, Note_on_c, 1, 29, 112
3, 23766, Note_on_c, 1, 29, 0
3, 23807, Note_on_c, 1, 27, 112
3, 23882, Note_on_c, 1, 27, 0
3, 23975, Note_on_c, 1, 27, 112
3, 23991, Note_on_c, 1, 27, 0
3, 24023, Note_on_c, 1, 25, 112
3, 24039, Note_on_c, 1, 25, 0
3, 24047, Note_on_c, 1, 27, 112
3, 24083, Note_on_c, 1, 27, 0
3, 24095, Note_on_c, 1, 25, 112
3, 24131, Note_on_c, 1, 25, 0
3, 24335, Note_on_c, 1, 27, 112
3, 24467, Note_on_c, 1, 27, 0
3, 24527, Note_on_c, 1, 25, 112
3, 24562, Note_on_c, 1, 25, 0
3, 24575, Note_on_c, 1, 27, 112
3, 24649, Note_on_c, 1, 27, 0
3, 24743, Note_on_c, 1, 27, 112
3, 24759, Note_on_c, 1, 27, 0
3, 24791, Note_on_c, 1, 25, 112
3, 24807, Note_on_c, 1, 25, 0
3, 24815, Note_on_c, 1, 27, 112
3, 24851, Note_on_c, 1, 27, 0
3, 24863, Note_on_c, 1, 25, 112
3, 24899, Note_on_c, 1, 25, 0
3, 25103, Note_on_c, 1, 27, 112
3, 25138, Note_on_c, 1, 27, 0
3, 25175, Note_on_c, 1, 25, 112
3, 25191, Note_on_c, 1, 25, 0
3, 25199, Note_on_c, 1, 27, 112
3, 25235, Note_on_c, 1, 27, 0
3, 25295, Note_on_c, 1, 27, 112
3, 25330, Note_on_c, 1, 27, 0
3, 25343, Note_on_c, 1, 29, 112
3, 25419, Note_on_c, 1, 29, 0
3, 25511, Note_on_c, 1, 29, 112
3, 25527, Note_on_c, 1, 29, 0
3, 25559, Note_on_c, 1, 27, 112
3, 25574, Note_on_c, 1, 27, 0
3, 25583, Note_on_c, 1, 29, 112
3, 25619, Note_on_c, 1, 29, 0
3, 25679, Note_on_c, 1, 29, 112
3, 25714, Note_on_c, 1, 29, 0
3, 25727, Note_on_c, 1, 30, 112
3, 25802, Note_on_c, 1, 30, 0
3, 25895, Note_on_c, 1, 30, 112
3, 25911, Note_on_c, 1, 30, 0
3, 25943, Note_on_c, 1, 29, 112
3, 25959, Note_on_c, 1, 29, 0
3, 25967, Note_on_c, 1, 30, 112
3, 26003, Note_on_c, 1, 30, 0
3, 26015, Note_on_c, 1, 29, 112
3, 26050, Note_on_c, 1, 29, 0
3, 26063, Note_on_c, 1, 27, 112
3, 26098, Note_on_c, 1, 27, 0
3, 26111, Note_on_c, 1, 25, 112
3, 26186, Note_on_c, 1, 25, 0
3, 26279, Note_on_c, 1, 25, 112
3, 26295, Note_on_c, 1, 25, 0
3, 26327, Note_on_c, 1, 24, 112
3, 26343, Note_on_c, 1, 24, 0
3, 26351, Note_on_c, 1, 25, 112
3, 26387, Note_on_c, 1, 25, 0
3, 26447, Note_on_c, 1, 25, 112
3, 26483, Note_on_c, 1, 25, 0
3, 26495, Note_on_c, 1, 24, 112
3, 26570, Note_on_c, 1, 24, 0
3, 26591, Note_on_c, 1, 36, 112
3, 26627, Note_on_c, 1, 36, 0
3, 26639, Note_on_c, 1, 24, 112
3, 26675, Note_on_c, 1, 24, 0
3, 26687, Note_on_c, 1, 29, 112
3, 26762, Note_on_c, 1, 29, 0
3, 26783, Note_on_c, 1, 41, 112
3, 26819, Note_on_c, 1, 41, 0
3, 26831, Note_on_c, 1, 29, 112
3, 26867, Note_on_c, 1, 29, 0
3, 29951, Note_on_c, 1, 27, 112
3, 30026, Note_on_c, 1, 27, 0
3, 30119, Note_on_c, 1, 27, 112
3, 30135, Note_on_c, 1, 27, 0
3, 30167, Note_on_c, 1, 25, 112
3, 30183, Note_on_c, 1, 25, 0
3, 30191, Note_on_c, 1, 27, 112
3, 30227, Note_on_c, 1, 27, 0
3, 30335, Note_on_c, 1, 32, 112
3, 30410, Note_on_c, 1, 32, 0
3, 30503, Note_on_c, 1, 32, 112
3, 30519, Note_on_c, 1, 32, 0
3, 30551, Note_on_c, 1, 30, 112
3, 30567, Note_on_c, 1, 30, 0
3, 30575, Note_on_c, 1, 32, 112
3, 30611, Note_on_c, 1, 32, 0
3, 30671, Note_on_c, 1, 30, 112
3, 30707, Note_on_c, 1, 30, 0
3, 30719, Note_on_c, 1, 25, 112
3, 30794, Note_on_c, 1, 25, 0
3, 30887, Note_on_c, 1, 25, 112
3, 30903, Note_on_c, 1, 25, 0
3, 30935, Note_on_c, 1, 24, 112
3, 30951, Note_on_c, 1, 24, 0
3, 30959, Note_on_c, 1, 25, 112
3, 30995, Note_on_c, 1, 25, 0
3, 31031, Note_on_c, 1, 25, 112
3, 31066, Note_on_c, 1, 25, 0
3, 31103, Note_on_c, 1, 34, 112
3, 31178, Note_on_c, 1, 34, 0
3, 31271, Note_on_c, 1, 34, 112
3, 31287, Note_on_c, 1, 34, 0
3, 31343, Note_on_c, 1, 32, 112
3, 31377, Note_on_c, 1, 32, 0
3, 31439, Note_on_c, 1, 34, 112
3, 31474, Note_on_c, 1, 34, 0
3, 31487, Note_on_c, 1, 27, 112
3, 31562, Note_on_c, 1, 27, 0
3, 31655, Note_on_c, 1, 27, 112
3, 31670, Note_on_c, 1, 27, 0
3, 31703, Note_on_c, 1, 25, 112
3, 31719, Note_on_c, 1, 25, 0
3, 31727, Note_on_c, 1, 27, 112
3, 31762, Note_on_c, 1, 27, 0
3, 31871, Note_on_c, 1, 32, 112
3, 31946, Note_on_c, 1, 32, 0
3, 32039, Note_on_c, 1, 32, 112
3, 32055, Note_on_c, 1, 32, 0
3, 32087, Note_on_c, 1, 30, 112
3, 32103, Note_on_c, 1, 30, 0
3, 32111, Note_on_c, 1, 32, 112
3, 32146, Note_on_c, 1, 32, 0
3, 32207, Note_on_c, 1, 30, 112
3, 32243, Note_on_c, 1, 30, 0
3, 32255, Note_on_c, 1, 25, 112
3, 32330, Note_on_c, 1, 25, 0
3, 32423, Note_on_c, 1, 25, 112
3, 32439, Note_on_c, 1, 25, 0
3, 32471, Note_on_c, 1, 24, 112
3, 32487, Note_on_c, 1, 24, 0
3, 32495, Note_on_c, 1, 25, 112
3, 32530, Note_on_c, 1, 25, 0
3, 32591, Note_on_c, 1, 25, 112
3, 32627, Note_on_c, 1, 25, 0
3, 32639, Note_on_c, 1, 34, 112
3, 32714, Note_on_c, 1, 34, 0
3, 32807, Note_on_c, 1, 34, 112
3, 32823, Note_on_c, 1, 34, 0
3, 32855, Note_on_c, 1, 32, 112
3, 32871, Note_on_c, 1, 32, 0
3, 32879, Note_on_c, 1, 34, 112
3, 32915, Note_on_c, 1, 34, 0
3, 32975, Note_on_c, 1, 32, 112
3, 33011, Note_on_c, 1, 32, 0
3, 33023, Note_on_c, 1, 29, 112
3, 33326, Note_on_c, 1, 29, 0
3, 33407, Note_on_c, 1, 26, 112
3, 33709, Note_on_c, 1, 26, 0
3, 33791, Note_on_c, 1, 29, 112
3, 34094, Note_on_c, 1, 29, 0
3, 34175, Note_on_c, 1, 26, 112
3, 34326, Note_on_c, 1, 26, 0
3, 34367, Note_on_c, 1, 29, 112
3, 34518, Note_on_c, 1, 29, 0
3, 34559, Note_on_c, 1, 27, 112
3, 34634, Note_on_c, 1, 27, 0
3, 34727, Note_on_c, 1, 27, 112
3, 34743, Note_on_c, 1, 27, 0
3, 34775, Note_on_c, 1, 25, 112
3, 34791, Note_on_c, 1, 25, 0
3, 34799, Note_on_c, 1, 27, 112
3, 34835, Note_on_c, 1, 27, 0
3, 34847, Note_on_c, 1, 25, 112
3, 34883, Note_on_c, 1, 25, 0
3, 35087, Note_on_c, 1, 27, 112
3, 35121, Note_on_c, 1, 27, 0
3, 35159, Note_on_c, 1, 25, 112
3, 35175, Note_on_c, 1, 25, 0
3, 35183, Note_on_c, 1, 27, 112
3, 35219, Note_on_c, 1, 27, 0
3, 35279, Note_on_c, 1, 25, 112
3, 35315, Note_on_c, 1, 25, 0
3, 35327, Note_on_c, 1, 27, 112
3, 35402, Note_on_c, 1, 27, 0
3, 35495, Note_on_c, 1, 27, 112
3, 35511, Note_on_c, 1, 27, 0
3, 35543, Note_on_c, 1, 25, 112
3, 35558, Note_on_c, 1, 25, 0
3, 35567, Note_on_c, 1, 27, 112
3, 35603, Note_on_c, 1, 27, 0
3, 35615, Note_on_c, 1, 25, 112
3, 35650, Note_on_c, 1, 25, 0
3, 35855, Note_on_c, 1, 27, 112
3, 35890, Note_on_c, 1, 27, 0
3, 35927, Note_on_c, 1, 25, 112
3, 35943, Note_on_c, 1, 25, 0
3, 35951, Note_on_c, 1, 27, 112
3, 35987, Note_on_c, 1, 27, 0
3, 36047, Note_on_c, 1, 27, 112
3, 36083, Note_on_c, 1, 27, 0
3, 36095, Note_on_c, 1, 29, 112
3, 36170, Note_on_c, 1, 29, 0
3, 36263, Note_on_c, 1, 29, 112
3, 36279, Note_on_c, 1, 29, 0
3, 36311, Note_on_c, 1, 27, 112
3, 36326, Note_on_c, 1, 27, 0
3, 36335, Note_on_c, 1, 29, 112
3, 36371, Note_on_c, 1, 29, 0
3, 36431, Note_on_c, 1, 29, 112
3, 36466, Note_on_c, 1, 29, 0
3, 36479, Note_on_c, 1, 30, 112
3, 36554, Note_on_c, 1, 30, 0
3, 36647, Note_on_c, 1, 30, 112
3, 36662, Note_on_c, 1, 30, 0
3, 36695, Note_on_c, 1, 29, 112
3, 36711, Note_on_c, 1, 29, 0
3, 36719, Note_on_c, 1, 30, 112
3, 36754, Note_on_c, 1, 30, 0
3, 36767, Note_on_c, 1, 29, 112
3, 36803, Note_on_c, 1, 29, 0
3, 36815, Note_on_c, 1, 27, 112
3, 36850, Note_on_c, 1, 27, 0
3, 36863, Note_on_c, 1, 25, 112
3, 36938, Note_on_c, 1, 25, 0
3, 37031, Note_on_c, 1, 25, 112
3, 37047, Note_on_c, 1, 25, 0
3, 37079, Note_on_c, 1, 24, 112
3, 37095, Note_on_c, 1, 24, 0
3, 37103, Note_on_c, 1, 25, 112
3, 37138, Note_on_c, 1, 25, 0
3, 37199, Note_on_c, 1, 25, 112
3, 37235, Note_on_c, 1, 25, 0
3, 37247, Note_on_c, 1, 24, 112
3, 37322, Note_on_c, 1, 24, 0
3, 37343, Note_on_c, 1, 36, 112
3, 37379, Note_on_c, 1, 36, 0
3, 37391, Note_on_c, 1, 24, 112
3, 37427, Note_on_c, 1, 24, 0
3, 37439, Note_on_c, 1, 29, 112
3, 37514, Note_on_c, 1, 29, 0
3, 37535, Note_on_c, 1, 41, 112
3, 37571, Note_on_c, 1, 41, 0
3, 37583, Note_on_c, 1, 29, 112
3, 37619, Note_on_c, 1, 29, 0
3, 37631, Note_on_c, 1, 27, 112
3, 37706, Note_on_c, 1, 27, 0
3, 37799, Note_on_c, 1, 27, 112
3, 37815, Note_on_c, 1, 27, 0
3, 37847, Note_on_c, 1, 25, 112
3, 37862, Note_on_c, 1, 25, 0
3, 37871, Note_on_c, 1, 27, 112
3, 37907, Note_on_c, 1, 27, 0
3, 37919, Note_on_c, 1, 25, 112
3, 37955, Note_on_c, 1, 25, 0
3, 38159, Note_on_c, 1, 27, 112
3, 38194, Note_on_c, 1, 27, 0
3, 38231, Note_on_c, 1, 25, 112
3, 38247, Note_on_c, 1, 25, 0
3, 38255, Note_on_c, 1, 27, 112
3, 38291, Note_on_c, 1, 27, 0
3, 38351, Note_on_c, 1, 25, 112
3, 38387, Note_on_c, 1, 25, 0
3, 38399, Note_on_c, 1, 27, 112
3, 38474, Note_on_c, 1, 27, 0
3, 38543, Note_on_c, 1, 27, 112
3, 38559, Note_on_c, 1, 27, 0
3, 38591, Note_on_c, 1, 25, 112
3, 38607, Note_on_c, 1, 25, 0
3, 38615, Note_on_c, 1, 27, 112
3, 38651, Note_on_c, 1, 27, 0
3, 38663, Note_on_c, 1, 25, 112
3, 38699, Note_on_c, 1, 25, 0
3, 38903, Note_on_c, 1, 27, 112
3, 38938, Note_on_c, 1, 27, 0
3, 38975, Note_on_c, 1, 25, 112
3, 38991, Note_on_c, 1, 25, 0
3, 38999, Note_on_c, 1, 27, 112
3, 39035, Note_on_c, 1, 27, 0
3, 39119, Note_on_c, 1, 27, 112
3, 39154, Note_on_c, 1, 27, 0
3, 39167, Note_on_c, 1, 29, 112
3, 39242, Note_on_c, 1, 29, 0
3, 39311, Note_on_c, 1, 29, 112
3, 39327, Note_on_c, 1, 29, 0
3, 39359, Note_on_c, 1, 27, 112
3, 39374, Note_on_c, 1, 27, 0
3, 39383, Note_on_c, 1, 29, 112
3, 39419, Note_on_c, 1, 29, 0
3, 39503, Note_on_c, 1, 29, 112
3, 39537, Note_on_c, 1, 29, 0
3, 39551, Note_on_c, 1, 30, 112
3, 39625, Note_on_c, 1, 30, 0
3, 39695, Note_on_c, 1, 30, 112
3, 39711, Note_on_c, 1, 30, 0
3, 39743, Note_on_c, 1, 29, 112
3, 39759, Note_on_c, 1, 29, 0
3, 39767, Note_on_c, 1, 30, 112
3, 39803, Note_on_c, 1, 30, 0
3, 39815, Note_on_c, 1, 29, 112
3, 39851, Note_on_c, 1, 29, 0
3, 39863, Note_on_c, 1, 27, 112
3, 39898, Note_on_c, 1, 27, 0
3, 39935, Note_on_c, 1, 25, 112
3, 40010, Note_on_c, 1, 25, 0
3, 40079, Note_on_c, 1, 25, 112
3, 40095, Note_on_c, 1, 25, 0
3, 40127, Note_on_c, 1, 24, 112
3, 40143, Note_on_c, 1, 24, 0
3, 40151, Note_on_c, 1, 25, 112
3, 40187, Note_on_c, 1, 25, 0
3, 40271, Note_on_c, 1, 25, 112
3, 40307, Note_on_c, 1, 25, 0
3, 40319, Note_on_c, 1, 24, 112
3, 40391, Note_on_c, 1, 36, 112
3, 40394, Note_on_c, 1, 24, 0
3, 40427, Note_on_c, 1, 36, 0
3, 40463, Note_on_c, 1, 24, 112
3, 40499, Note_on_c, 1, 24, 0
3, 40511, Note_on_c, 1, 29, 112
3, 40583, Note_on_c, 1, 41, 112
3, 40586, Note_on_c, 1, 29, 0
3, 40642, Note_on_c, 1, 41, 0
3, 40703, Note_on_c, 1, 27, 112
3, 40751, Note_on_c, 1, 29, 112
3, 40778, Note_on_c, 1, 27, 0
3, 40787, Note_on_c, 1, 29, 0
3, 40847, Note_on_c, 1, 27, 112
3, 40863, Note_on_c, 1, 27, 0
3, 40895, Note_on_c, 1, 25, 112
3, 40911, Note_on_c, 1, 25, 0
3, 40919, Note_on_c, 1, 27, 112
3, 40955, Note_on_c, 1, 27, 0
3, 40967, Note_on_c, 1, 25, 112
3, 41002, Note_on_c, 1, 25, 0
3, 41207, Note_on_c, 1, 27, 112
3, 41242, Note_on_c, 1, 27, 0
3, 41279, Note_on_c, 1, 25, 112
3, 41295, Note_on_c, 1, 25, 0
3, 41303, Note_on_c, 1, 27, 112
3, 41339, Note_on_c, 1, 27, 0
3, 41399, Note_on_c, 1, 25, 112
3, 41435, Note_on_c, 1, 25, 0
3, 41471, Note_on_c, 1, 27, 112
3, 41546, Note_on_c, 1, 27, 0
3, 41639, Note_on_c, 1, 27, 112
3, 41654, Note_on_c, 1, 27, 0
3, 41687, Note_on_c, 1, 25, 112
3, 41703, Note_on_c, 1, 25, 0
3, 41711, Note_on_c, 1, 27, 112
3, 41747, Note_on_c, 1, 27, 0
3, 41759, Note_on_c, 1, 25, 112
3, 41795, Note_on_c, 1, 25, 0
3, 41999, Note_on_c, 1, 27, 112
3, 42034, Note_on_c, 1, 27, 0
3, 42071, Note_on_c, 1, 25, 112
3, 42086, Note_on_c, 1, 25, 0
3, 42095, Note_on_c, 1, 27, 112
3, 42130, Note_on_c, 1, 27, 0
3, 42191, Note_on_c, 1, 27, 112
3, 42226, Note_on_c, 1, 27, 0
3, 42239, Note_on_c, 1, 29, 112
3, 42314, Note_on_c, 1, 29, 0
3, 42407, Note_on_c, 1, 29, 112
3, 42423, Note_on_c, 1, 29, 0
3, 42455, Note_on_c, 1, 27, 112
3, 42471, Note_on_c, 1, 27, 0
3, 42479, Note_on_c, 1, 29, 112
3, 42514, Note_on_c, 1, 29, 0
3, 42575, Note_on_c, 1, 29, 112
3, 42610, Note_on_c, 1, 29, 0
3, 42623, Note_on_c, 1, 30, 112
3, 42698, Note_on_c, 1, 30, 0
3, 42791, Note_on_c, 1, 30, 112
3, 42807, Note_on_c, 1, 30, 0
3, 42839, Note_on_c, 1, 29, 112
3, 42855, Note_on_c, 1, 29, 0
3, 42863, Note_on_c, 1, 30, 112
3, 42899, Note_on_c, 1, 30, 0
3, 42911, Note_on_c, 1, 29, 112
3, 42947, Note_on_c, 1, 29, 0
3, 42959, Note_on_c, 1, 27, 112
3, 42994, Note_on_c, 1, 27, 0
3, 43007, Note_on_c, 1, 25, 112
3, 43082, Note_on_c, 1, 25, 0
3, 43175, Note_on_c, 1, 25, 112
3, 43190, Note_on_c, 1, 25, 0
3, 43223, Note_on_c, 1, 24, 112
3, 43239, Note_on_c, 1, 24, 0
3, 43247, Note_on_c, 1, 25, 112
3, 43283, Note_on_c, 1, 25, 0
3, 43343, Note_on_c, 1, 25, 112
3, 43379, Note_on_c, 1, 25, 0
3, 43391, Note_on_c, 1, 24, 112
3, 43466, Note_on_c, 1, 24, 0
3, 43487, Note_on_c, 1, 36, 112
3, 43523, Note_on_c, 1, 36, 0
3, 43535, Note_on_c, 1, 24, 112
3, 43571, Note_on_c, 1, 24, 0
3, 43583, Note_on_c, 1, 29, 112
3, 43657, Note_on_c, 1, 29, 0
3, 43679, Note_on_c, 1, 41, 112
3, 43715, Note_on_c, 1, 41, 0
3, 43727, Note_on_c, 1, 29, 112
3, 43763, Note_on_c, 1, 29, 0
3, 43775, Note_on_c, 1, 27, 112
3, 43850, Note_on_c, 1, 27, 0
3, 43943, Note_on_c, 1, 27, 112
3, 43958, Note_on_c, 1, 27, 0
3, 43991, Note_on_c, 1, 25, 112
3, 44007, Note_on_c, 1, 25, 0
3, 44015, Note_on_c, 1, 27, 112
3, 44051, Note_on_c, 1, 27, 0
3, 44063, Note_on_c, 1, 25, 112
3, 44099, Note_on_c, 1, 25, 0
3, 44303, Note_on_c, 1, 27, 112
3, 44337, Note_on_c, 1, 27, 0
3, 44375, Note_on_c, 1, 25, 112
3, 44390, Note_on_c, 1, 25, 0
3, 44399, Note_on_c, 1, 27, 112
3, 44435, Note_on_c, 1, 27, 0
3, 44495, Note_on_c, 1, 25, 112
3, 44530, Note_on_c, 1, 25, 0
3, 44543, Note_on_c, 1, 27, 112
3, 44617, Note_on_c, 1, 27, 0
3, 44711, Note_on_c, 1, 27, 112
3, 44726, Note_on_c, 1, 27, 0
3, 44759, Note_on_c, 1, 25, 112
3, 44775, Note_on_c, 1, 25, 0
3, 44783, Note_on_c, 1, 27, 112
3, 44819, Note_on_c, 1, 27, 0
3, 44831, Note_on_c, 1, 25, 112
3, 44867, Note_on_c, 1, 25, 0
3, 45071, Note_on_c, 1, 27, 112
3, 45106, Note_on_c, 1, 27, 0
3, 45143, Note_on_c, 1, 25, 112
3, 45159, Note_on_c, 1, 25, 0
3, 45167, Note_on_c, 1, 27, 112
3, 45203, Note_on_c, 1, 27, 0
3, 45263, Note_on_c, 1, 27, 112
3, 45298, Note_on_c, 1, 27, 0
3, 45311, Note_on_c, 1, 29, 112
3, 45386, Note_on_c, 1, 29, 0
3, 45479, Note_on_c, 1, 29, 112
3, 45494, Note_on_c, 1, 29, 0
3, 45527, Note_on_c, 1, 27, 112
3, 45543, Note_on_c, 1, 27, 0
3, 45551, Note_on_c, 1, 29, 112
3, 45587, Note_on_c, 1, 29, 0
3, 45647, Note_on_c, 1, 29, 112
3, 45682, Note_on_c, 1, 29, 0
3, 45695, Note_on_c, 1, 30, 112
3, 45770, Note_on_c, 1, 30, 0
3, 45863, Note_on_c, 1, 30, 112
3, 45879, Note_on_c, 1, 30, 0
3, 45911, Note_on_c, 1, 29, 112
3, 45927, Note_on_c, 1, 29, 0
3, 45935, Note_on_c, 1, 30, 112
3, 45971, Note_on_c, 1, 30, 0
3, 45983, Note_on_c, 1, 29, 112
3, 46018, Note_on_c, 1, 29, 0
3, 46031, Note_on_c, 1, 27, 112
3, 46066, Note_on_c, 1, 27, 0
3, 46079, Note_on_c, 1, 25, 112
3, 46154, Note_on_c, 1, 25, 0
3, 46247, Note_on_c, 1, 25, 112
3, 46263, Note_on_c, 1, 25, 0
3, 46295, Note_on_c, 1, 24, 112
3, 46310, Note_on_c, 1, 24, 0
3, 46319, Note_on_c, 1, 25, 112
3, 46355, Note_on_c, 1, 25, 0
3, 46415, Note_on_c, 1, 25, 112
3, 46451, Note_on_c, 1, 25, 0
3, 46463, Note_on_c, 1, 24, 112
3, 46538, Note_on_c, 1, 24, 0
3, 46559, Note_on_c, 1, 36, 112
3, 46595, Note_on_c, 1, 36, 0
3, 46607, Note_on_c, 1, 24, 112
3, 46643, Note_on_c, 1, 24, 0
3, 46655, Note_on_c, 1, 29, 112
3, 46730, Note_on_c, 1, 29, 0
3, 46751, Note_on_c, 1, 41, 112
3, 46786, Note_on_c, 1, 41, 0
3, 46799, Note_on_c, 1, 29, 112
3, 46835, Note_on_c, 1, 29, 0
3, 46847, Note_on_c, 1, 34, 112
3, 47150, Note_on_c, 1, 34, 0
3, 48001, Control_c, 1, 120, 0
3, 48002, Control_c, 1, 123, 0
3, 48002, End_track
4, 0, Start_track
4, 0, MIDI_port, 0
4, 0, Title_t, ""
4, 82, Control_c, 2, 121, 0
4, 106, Control_c, 2, 0, 56
4, 107, Control_c, 2, 32, 0
4, 108, Program_c, 2, 89
4, 109, Control_c, 2, 7, 110
4, 109, Control_c, 2, 10, 64
4, 109, Control_c, 2, 11, 75
4, 110, Control_c, 2, 91, 127
4, 110, Control_c, 2, 93, 50
4, 2304, Note_on_c, 2, 54, 120
4, 2304, Note_on_c, 2, 57, 120
4, 2304, Note_on_c, 2, 61, 120
4, 2304, Note_on_c, 2, 64, 120
4, 2839, Note_on_c, 2, 57, 0
4, 2843, Note_on_c, 2, 54, 0
4, 2868, Note_on_c, 2, 61, 0
4, 2880, Note_on_c, 2, 56, 120
4, 2880, Note_on_c, 2, 59, 120
4, 3044, Note_on_c, 2, 59, 0
4, 3047, Note_on_c, 2, 56, 0
4, 3064, Note_on_c, 2, 64, 0
4, 3072, Note_on_c, 2, 55, 120
4, 3072, Note_on_c, 2, 58, 120
4, 3072, Note_on_c, 2, 63, 120
4, 3819, Note_on_c, 2, 55, 0
4, 3832, Note_on_c, 2, 58, 0
4, 3840, Note_on_c, 2, 54, 120
4, 3840, Note_on_c, 2, 58, 120
4, 3840, Note_on_c, 2, 61, 120
4, 3848, Note_on_c, 2, 63, 0
4, 4395, Note_on_c, 2, 54, 0
4, 4400, Note_on_c, 2, 58, 0
4, 4415, Note_on_c, 2, 61, 0
4, 4416, Note_on_c, 2, 56, 120
4, 4416, Note_on_c, 2, 60, 120
4, 4416, Note_on_c, 2, 63, 120
4, 4584, Note_on_c, 2, 56, 0
4, 4587, Note_on_c, 2, 60, 0
4, 4608, Note_on_c, 2, 54, 120
4, 4608, Note_on_c, 2, 58, 120
4, 4608, Note_on_c, 2, 61, 120
4, 4613, Note_on_c, 2, 63, 0
4, 5167, Note_on_c, 2, 54, 0
4, 5171, Note_on_c, 2, 58, 0
4, 5184, Note_on_c, 2, 56, 120
4, 5184, Note_on_c, 2, 60, 120
4, 5184, Note_on_c, 2, 62, 120
4, 5184, Note_on_c, 2, 63, 120
4, 5186, Note_on_c, 2, 62, 0
4, 5187, Note_on_c, 2, 61, 0
4, 5739, Note_on_c, 2, 60, 0
4, 5751, Note_on_c, 2, 56, 0
4, 5754, Note_on_c, 2, 63, 0
4, 5760, Note_on_c, 2, 58, 120
4, 5760, Note_on_c, 2, 61, 120
4, 5760, Note_on_c, 2, 65, 120
4, 6148, Note_on_c, 2, 61, 0
4, 6155, Note_on_c, 2, 58, 0
4, 6168, Note_on_c, 2, 60, 120
4, 6192, Note_on_c, 2, 56, 120
4, 6487, Note_on_c, 2, 60, 0
4, 6499, Note_on_c, 2, 56, 0
4, 6523, Note_on_c, 2, 65, 0
4, 6528, Note_on_c, 2, 55, 120
4, 6528, Note_on_c, 2, 58, 120
4, 6528, Note_on_c, 2, 63, 120
4, 6707, Note_on_c, 2, 58, 0
4, 6720, Note_on_c, 2, 57, 120
4, 6720, Note_on_c, 2, 61, 120
4, 6727, Note_on_c, 2, 63, 0
4, 6904, Note_on_c, 2, 57, 0
4, 6911, Note_on_c, 2, 55, 0
4, 6912, Note_on_c, 2, 61, 0
4, 13056, Note_on_c, 2, 63, 120
4, 13056, Note_on_c, 2, 67, 120
4, 13056, Note_on_c, 2, 70, 120
4, 13419, Note_on_c, 2, 63, 0
4, 13428, Note_on_c, 2, 67, 0
4, 13435, Note_on_c, 2, 70, 0
4, 13440, Note_on_c, 2, 65, 120
4, 13440, Note_on_c, 2, 69, 120
4, 13440, Note_on_c, 2, 72, 120
4, 13787, Note_on_c, 2, 65, 0
4, 13810, Note_on_c, 2, 72, 0
4, 13814, Note_on_c, 2, 69, 0
4, 13824, Note_on_c, 2, 63, 120
4, 13824, Note_on_c, 2, 67, 120
4, 13824, Note_on_c, 2, 70, 120
4, 14192, Note_on_c, 2, 63, 0
4, 14203, Note_on_c, 2, 67, 0
4, 14208, Note_on_c, 2, 70, 0
4, 14208, Note_on_c, 2, 65, 120
4, 14208, Note_on_c, 2, 69, 120
4, 14208, Note_on_c, 2, 72, 120
4, 14376, Note_on_c, 2, 65, 0
4, 14395, Note_on_c, 2, 72, 0
4, 14400, Note_on_c, 2, 63, 120
4, 14400, Note_on_c, 2, 67, 120
4, 14400, Note_on_c, 2, 70, 120
4, 14406, Note_on_c, 2, 69, 0
4, 14588, Note_on_c, 2, 63, 0
4, 14592, Note_on_c, 2, 54, 120
4, 14592, Note_on_c, 2, 58, 120
4, 14592, Note_on_c, 2, 61, 120
4, 14595, Note_on_c, 2, 67, 0
4, 14595, Note_on_c, 2, 70, 0
4, 15167, Note_on_c, 2, 58, 0
4, 15167, Note_on_c, 2, 54, 0
4, 15167, Note_on_c, 2, 61, 0
4, 15168, Note_on_c, 2, 56, 120
4, 15168, Note_on_c, 2, 60, 120
4, 15168, Note_on_c, 2, 63, 120
4, 15339, Note_on_c, 2, 60, 0
4, 15339, Note_on_c, 2, 56, 0
4, 15359, Note_on_c, 2, 63, 0
4, 15360, Note_on_c, 2, 54, 120
4, 15360, Note_on_c, 2, 58, 120
4, 15360, Note_on_c, 2, 61, 120
4, 15911, Note_on_c, 2, 54, 0
4, 15912, Note_on_c, 2, 58, 0
4, 15932, Note_on_c, 2, 61, 0
4, 15936, Note_on_c, 2, 56, 120
4, 15936, Note_on_c, 2, 60, 120
4, 15936, Note_on_c, 2, 63, 120
4, 16495, Note_on_c, 2, 60, 0
4, 16507, Note_on_c, 2, 63, 0
4, 16507, Note_on_c, 2, 56, 0
4, 16512, Note_on_c, 2, 58, 120
4, 16512, Note_on_c, 2, 61, 120
4, 16512, Note_on_c, 2, 65, 120
4, 16867, Note_on_c, 2, 58, 0
4, 16895, Note_on_c, 2, 61, 0
4, 16896, Note_on_c, 2, 56, 120
4, 16896, Note_on_c, 2, 60, 120
4, 17248, Note_on_c, 2, 60, 0
4, 17255, Note_on_c, 2, 56, 0
4, 17275, Note_on_c, 2, 65, 0
4, 17280, Note_on_c, 2, 55, 120
4, 17280, Note_on_c, 2, 58, 120
4, 17280, Note_on_c, 2, 63, 120
4, 17456, Note_on_c, 2, 58, 0
4, 17472, Note_on_c, 2, 57, 120
4, 17472, Note_on_c, 2, 61, 120
4, 17484, Note_on_c, 2, 63, 0
4, 17668, Note_on_c, 2, 55, 0
4, 17668, Note_on_c, 2, 57, 0
4, 17675, Note_on_c, 2, 61, 0
4, 22272, Note_on_c, 2, 63, 120
4, 22272, Note_on_c, 2, 67, 120
4, 22272, Note_on_c, 2, 70, 120
4, 22635, Note_on_c, 2, 63, 0
4, 22639, Note_on_c, 2, 67, 0
4, 22651, Note_on_c, 2, 70, 0
4, 22656, Note_on_c, 2, 65, 120
4, 22656, Note_on_c, 2, 69, 120
4, 22656, Note_on_c, 2, 72, 120
4, 23004, Note_on_c, 2, 65, 0
4, 23026, Note_on_c, 2, 72, 0
4, 23035, Note_on_c, 2, 69, 0
4, 23040, Note_on_c, 2, 63, 120
4, 23040, Note_on_c, 2, 67, 120
4, 23040, Note_on_c, 2, 70, 120
4, 23408, Note_on_c, 2, 63, 0
4, 23415, Note_on_c, 2, 67, 0
4, 23419, Note_on_c, 2, 70, 0
4, 23424, Note_on_c, 2, 65, 120
4, 23424, Note_on_c, 2, 69, 120
4, 23424, Note_on_c, 2, 72, 120
4, 23616, Note_on_c, 2, 67, 120
4, 23616, Note_on_c, 2, 70, 120
4, 23616, Note_on_c, 2, 75, 120
4, 23620, Note_on_c, 2, 69, 0
4, 23621, Note_on_c, 2, 65, 0
4, 23623, Note_on_c, 2, 72, 0
4, 23796, Note_on_c, 2, 67, 0
4, 23796, Note_on_c, 2, 70, 0
4, 23798, Note_on_c, 2, 75, 0
4, 23808, Note_on_c, 2, 54, 120
4, 23808, Note_on_c, 2, 58, 120
4, 23808, Note_on_c, 2, 61, 120
4, 24371, Note_on_c, 2, 54, 0
4, 24375, Note_on_c, 2, 58, 0
4, 24384, Note_on_c, 2, 56, 120
4, 24384, Note_on_c, 2, 60, 120
4, 24384, Note_on_c, 2, 63, 120
4, 24391, Note_on_c, 2, 61, 0
4, 24551, Note_on_c, 2, 56, 0
4, 24555, Note_on_c, 2, 60, 0
4, 24568, Note_on_c, 2, 63, 0
4, 24576, Note_on_c, 2, 54, 120
4, 24576, Note_on_c, 2, 58, 120
4, 24576, Note_on_c, 2, 61, 120
4, 25130, Note_on_c, 2, 58, 0
4, 25130, Note_on_c, 2, 54, 0
4, 25151, Note_on_c, 2, 61, 0
4, 25152, Note_on_c, 2, 56, 120
4, 25152, Note_on_c, 2, 60, 120
4, 25152, Note_on_c, 2, 63, 120
4, 25715, Note_on_c, 2, 60, 0
4, 25723, Note_on_c, 2, 56, 0
4, 25727, Note_on_c, 2, 63, 0
4, 25728, Note_on_c, 2, 58, 120
4, 25728, Note_on_c, 2, 61, 120
4, 25728, Note_on_c, 2, 65, 120
4, 26083, Note_on_c, 2, 58, 0
4, 26111, Note_on_c, 2, 61, 0
4, 26112, Note_on_c, 2, 56, 120
4, 26112, Note_on_c, 2, 60, 120
4, 26471, Note_on_c, 2, 60, 0
4, 26475, Note_on_c, 2, 56, 0
4, 26484, Note_on_c, 2, 65, 0
4, 26496, Note_on_c, 2, 55, 120
4, 26496, Note_on_c, 2, 58, 120
4, 26496, Note_on_c, 2, 63, 120
4, 26688, Note_on_c, 2, 57, 120
4, 26688, Note_on_c, 2, 61, 120
4, 26708, Note_on_c, 2, 58, 0
4, 26720, Note_on_c, 2, 63, 0
4, 26876, Note_on_c, 2, 57, 0
4, 26879, Note_on_c, 2, 61, 0
4, 26895, Note_on_c, 2, 55, 0
4, 29568, Note_on_c, 2, 55, 127
4, 29568, Note_on_c, 2, 58, 127
4, 29568, Note_on_c, 2, 63, 127
4, 29727, Note_on_c, 2, 58, 0
4, 29746, Note_on_c, 2, 63, 0
4, 29760, Note_on_c, 2, 57, 127
4, 29760, Note_on_c, 2, 61, 127
4, 29939, Note_on_c, 2, 57, 0
4, 29939, Note_on_c, 2, 55, 0
4, 29947, Note_on_c, 2, 61, 0
4, 29952, Note_on_c, 2, 61, 127
4, 29952, Note_on_c, 2, 65, 127
4, 29952, Note_on_c, 2, 70, 127
4, 30332, Note_on_c, 2, 70, 0
4, 30344, Note_on_c, 2, 61, 0
4, 30347, Note_on_c, 2, 65, 0
4, 30360, Note_on_c, 2, 60, 127
4, 30360, Note_on_c, 2, 63, 127
4, 30360, Note_on_c, 2, 68, 127
4, 30711, Note_on_c, 2, 63, 0
4, 30720, Note_on_c, 2, 68, 0
4, 30720, Note_on_c, 2, 65, 127
4, 30720, Note_on_c, 2, 68, 127
4, 31075, Note_on_c, 2, 68, 0
4, 31076, Note_on_c, 2, 65, 0
4, 31092, Note_on_c, 2, 60, 0
4, 31104, Note_on_c, 2, 61, 127
4, 31104, Note_on_c, 2, 65, 127
4, 31104, Note_on_c, 2, 70, 127
4, 31319, Note_on_c, 2, 65, 0
4, 31331, Note_on_c, 2, 61, 0
4, 31335, Note_on_c, 2, 70, 0
4, 31344, Note_on_c, 2, 60, 127
4, 31344, Note_on_c, 2, 63, 127
4, 31344, Note_on_c, 2, 68, 127
4, 31404, Note_on_c, 2, 60, 0
4, 31407, Note_on_c, 2, 63, 0
4, 31416, Note_on_c, 2, 61, 127
4, 31416, Note_on_c, 2, 65, 127
4, 31416, Note_on_c, 2, 70, 127
4, 31432, Note_on_c, 2, 68, 0
4, 31472, Note_on_c, 2, 61, 0
4, 31475, Note_on_c, 2, 65, 0
4, 31475, Note_on_c, 2, 70, 0
4, 31488, Note_on_c, 2, 61, 127
4, 31488, Note_on_c, 2, 65, 127
4, 31488, Note_on_c, 2, 70, 127
4, 31840, Note_on_c, 2, 65, 0
4, 31851, Note_on_c, 2, 61, 0
4, 31860, Note_on_c, 2, 70, 0
4, 31872, Note_on_c, 2, 60, 127
4, 31872, Note_on_c, 2, 63, 127
4, 31872, Note_on_c, 2, 68, 127
4, 32224, Note_on_c, 2, 63, 0
4, 32256, Note_on_c, 2, 65, 127
4, 32603, Note_on_c, 2, 60, 0
4, 32619, Note_on_c, 2, 65, 0
4, 32640, Note_on_c, 2, 61, 127
4, 32640, Note_on_c, 2, 65, 127
4, 32640, Note_on_c, 2, 70, 127
4, 32643, Note_on_c, 2, 68, 0
4, 32836, Note_on_c, 2, 61, 0
4, 32859, Note_on_c, 2, 65, 0
4, 32875, Note_on_c, 2, 70, 0
4, 32880, Note_on_c, 2, 65, 127
4, 32880, Note_on_c, 2, 68, 127
4, 32880, Note_on_c, 2, 72, 127
4, 32908, Note_on_c, 2, 65, 0
4, 32911, Note_on_c, 2, 72, 0
4, 32911, Note_on_c, 2, 68, 0
4, 32928, Note_on_c, 2, 65, 127
4, 32928, Note_on_c, 2, 68, 127
4, 32928, Note_on_c, 2, 73, 127
4, 32975, Note_on_c, 2, 68, 0
4, 32976, Note_on_c, 2, 73, 0
4, 32980, Note_on_c, 2, 65, 0
4, 33024, Note_on_c, 2, 63, 120
4, 33024, Note_on_c, 2, 67, 120
4, 33024, Note_on_c, 2, 70, 120
4, 33396, Note_on_c, 2, 63, 0
4, 33399, Note_on_c, 2, 70, 0
4, 33400, Note_on_c, 2, 67, 0
4, 33408, Note_on_c, 2, 65, 120
4, 33408, Note_on_c, 2, 69, 120
4, 33408, Note_on_c, 2, 72, 120
4, 33756, Note_on_c, 2, 65, 0
4, 33778, Note_on_c, 2, 72, 0
4, 33792, Note_on_c, 2, 63, 120
4, 33792, Note_on_c, 2, 67, 120
4, 33792, Note_on_c, 2, 70, 120
4, 33796, Note_on_c, 2, 69, 0
4, 34156, Note_on_c, 2, 63, 0
4, 34175, Note_on_c, 2, 67, 0
4, 34176, Note_on_c, 2, 65, 120
4, 34176, Note_on_c, 2, 69, 120
4, 34176, Note_on_c, 2, 72, 120
4, 34183, Note_on_c, 2, 70, 0
4, 34368, Note_on_c, 2, 65, 0
4, 34368, Note_on_c, 2, 67, 120
4, 34368, Note_on_c, 2, 70, 120
4, 34368, Note_on_c, 2, 75, 120
4, 34370, Note_on_c, 2, 69, 0
4, 34375, Note_on_c, 2, 72, 0
4, 34560, Note_on_c, 2, 70, 0
4, 34560, Note_on_c, 2, 67, 0
4, 34560, Note_on_c, 2, 75, 0
4, 34560, Note_on_c, 2, 54, 120
4, 34560, Note_on_c, 2, 58, 120
4, 34560, Note_on_c, 2, 61, 120
4, 35112, Note_on_c, 2, 54, 0
4, 35115, Note_on_c, 2, 58, 0
4, 35126, Note_on_c, 2, 61, 0
4, 35136, Note_on_c, 2, 56, 120
4, 35136, Note_on_c, 2, 60, 120
4, 35136, Note_on_c, 2, 63, 120
4, 35307, Note_on_c, 2, 60, 0
4, 35311, Note_on_c, 2, 56, 0
4, 35328, Note_on_c, 2, 54, 120
4, 35328, Note_on_c, 2, 58, 120
4, 35328, Note_on_c, 2, 61, 120
4, 35331, Note_on_c, 2, 63, 0
4, 35883, Note_on_c, 2, 54, 0
4, 35887, Note_on_c, 2, 58, 0
4, 35903, Note_on_c, 2, 61, 0
4, 35904, Note_on_c, 2, 56, 120
4, 35904, Note_on_c, 2, 60, 120
4, 35904, Note_on_c, 2, 63, 120
4, 36462, Note_on_c, 2, 60, 0
4, 36474, Note_on_c, 2, 63, 0
4, 36476, Note_on_c, 2, 56, 0
4, 36480, Note_on_c, 2, 58, 120
4, 36480, Note_on_c, 2, 61, 120
4, 36480, Note_on_c, 2, 65, 120
4, 36832, Note_on_c, 2, 58, 0
4, 36860, Note_on_c, 2, 61, 0
4, 36864, Note_on_c, 2, 56, 120
4, 36864, Note_on_c, 2, 60, 120
4, 37215, Note_on_c, 2, 60, 0
4, 37223, Note_on_c, 2, 56, 0
4, 37224, Note_on_c, 2, 63, 120
4, 37227, Note_on_c, 2, 65, 0
4, 37248, Note_on_c, 2, 55, 120
4, 37248, Note_on_c, 2, 58, 120
4, 37420, Note_on_c, 2, 58, 0
4, 37423, Note_on_c, 2, 63, 0
4, 37440, Note_on_c, 2, 57, 120
4, 37440, Note_on_c, 2, 61, 120
4, 37604, Note_on_c, 2, 57, 0
4, 37615, Note_on_c, 2, 55, 0
4, 37632, Note_on_c, 2, 54, 120
4, 37632, Note_on_c, 2, 58, 120
4, 38183, Note_on_c, 2, 54, 0
4, 38191, Note_on_c, 2, 58, 0
4, 38208, Note_on_c, 2, 56, 120
4, 38208, Note_on_c, 2, 60, 120
4, 38208, Note_on_c, 2, 63, 120
4, 38223, Note_on_c, 2, 61, 0
4, 38375, Note_on_c, 2, 60, 0
4, 38379, Note_on_c, 2, 56, 0
4, 38400, Note_on_c, 2, 54, 120
4, 38400, Note_on_c, 2, 58, 120
4, 38400, Note_on_c, 2, 61, 120
4, 38407, Note_on_c, 2, 63, 0
4, 38944, Note_on_c, 2, 54, 0
4, 38944, Note_on_c, 2, 58, 0
4, 38971, Note_on_c, 2, 61, 0
4, 38976, Note_on_c, 2, 56, 120
4, 38976, Note_on_c, 2, 60, 120
4, 38976, Note_on_c, 2, 63, 120
4, 39539, Note_on_c, 2, 60, 0
4, 39548, Note_on_c, 2, 56, 0
4, 39552, Note_on_c, 2, 58, 120
4, 39552, Note_on_c, 2, 61, 120
4, 39552, Note_on_c, 2, 65, 120
4, 39556, Note_on_c, 2, 63, 0
4, 39907, Note_on_c, 2, 58, 0
4, 39924, Note_on_c, 2, 61, 0
4, 39936, Note_on_c, 2, 56, 120
4, 39936, Note_on_c, 2, 60, 120
4, 40295, Note_on_c, 2, 60, 0
4, 40310, Note_on_c, 2, 56, 0
4, 40316, Note_on_c, 2, 65, 0
4, 40320, Note_on_c, 2, 55, 120
4, 40320, Note_on_c, 2, 58, 120
4, 40320, Note_on_c, 2, 63, 120
4, 40495, Note_on_c, 2, 58, 0
4, 40512, Note_on_c, 2, 63, 0
4, 40512, Note_on_c, 2, 57, 120
4, 40512, Note_on_c, 2, 61, 120
4, 40671, Note_on_c, 2, 57, 0
4, 40679, Note_on_c, 2, 55, 0
4, 40695, Note_on_c, 2, 61, 0
4, 40704, Note_on_c, 2, 54, 120
4, 40704, Note_on_c, 2, 58, 120
4, 40704, Note_on_c, 2, 61, 120
4, 41259, Note_on_c, 2, 54, 0
4, 41263, Note_on_c, 2, 58, 0
4, 41280, Note_on_c, 2, 56, 120
4, 41280, Note_on_c, 2, 60, 120
4, 41280, Note_on_c, 2, 63, 120
4, 41283, Note_on_c, 2, 61, 0
4, 41447, Note_on_c, 2, 60, 0
4, 41451, Note_on_c, 2, 56, 0
4, 41472, Note_on_c, 2, 54, 120
4, 41472, Note_on_c, 2, 58, 120
4, 41472, Note_on_c, 2, 61, 120
4, 41475, Note_on_c, 2, 63, 0
4, 42019, Note_on_c, 2, 58, 0
4, 42020, Note_on_c, 2, 54, 0
4, 42048, Note_on_c, 2, 61, 0
4, 42048, Note_on_c, 2, 56, 120
4, 42048, Note_on_c, 2, 60, 120
4, 42048, Note_on_c, 2, 63, 120
4, 42603, Note_on_c, 2, 60, 0
4, 42619, Note_on_c, 2, 63, 0
4, 42623, Note_on_c, 2, 56, 0
4, 42624, Note_on_c, 2, 58, 120
4, 42624, Note_on_c, 2, 61, 120
4, 42624, Note_on_c, 2, 65, 120
4, 42984, Note_on_c, 2, 58, 0
4, 43008, Note_on_c, 2, 56, 120
4, 43008, Note_on_c, 2, 60, 120
4, 43012, Note_on_c, 2, 61, 0
4, 43363, Note_on_c, 2, 60, 0
4, 43367, Note_on_c, 2, 56, 0
4, 43382, Note_on_c, 2, 65, 0
4, 43392, Note_on_c, 2, 55, 120
4, 43392, Note_on_c, 2, 58, 120
4, 43392, Note_on_c, 2, 63, 120
4, 43564, Note_on_c, 2, 58, 0
4, 43584, Note_on_c, 2, 63, 0
4, 43584, Note_on_c, 2, 57, 120
4, 43584, Note_on_c, 2, 61, 120
4, 43751, Note_on_c, 2, 57, 0
4, 43759, Note_on_c, 2, 55, 0
4, 43776, Note_on_c, 2, 61, 0
4, 43800, Note_on_c, 2, 54, 120
4, 43800, Note_on_c, 2, 58, 120
4, 43800, Note_on_c, 2, 61, 120
4, 44339, Note_on_c, 2, 58, 0
4, 44344, Note_on_c, 2, 54, 0
4, 44352, Note_on_c, 2, 56, 120
4, 44352, Note_on_c, 2, 60, 120
4, 44352, Note_on_c, 2, 63, 120
4, 44367, Note_on_c, 2, 61, 0
4, 44524, Note_on_c, 2, 60, 0
4, 44532, Note_on_c, 2, 56, 0
4, 44544, Note_on_c, 2, 54, 120
4, 44544, Note_on_c, 2, 58, 120
4, 44544, Note_on_c, 2, 61, 120
4, 44551, Note_on_c, 2, 63, 0
4, 45087, Note_on_c, 2, 54, 0
4, 45087, Note_on_c, 2, 58, 0
4, 45112, Note_on_c, 2, 61, 0
4, 45120, Note_on_c, 2, 56, 120
4, 45120, Note_on_c, 2, 60, 120
4, 45120, Note_on_c, 2, 63, 120
4, 45680, Note_on_c, 2, 60, 0
4, 45688, Note_on_c, 2, 63, 0
4, 45688, Note_on_c, 2, 56, 0
4, 45696, Note_on_c, 2, 58, 120
4, 45696, Note_on_c, 2, 61, 120
4, 45696, Note_on_c, 2, 65, 120
4, 46043, Note_on_c, 2, 58, 0
4, 46076, Note_on_c, 2, 61, 0
4, 46080, Note_on_c, 2, 56, 120
4, 46080, Note_on_c, 2, 60, 120
4, 46431, Note_on_c, 2, 60, 0
4, 46435, Note_on_c, 2, 56, 0
4, 46447, Note_on_c, 2, 65, 0
4, 46464, Note_on_c, 2, 55, 120
4, 46464, Note_on_c, 2, 58, 120
4, 46464, Note_on_c, 2, 63, 120
4, 46640, Note_on_c, 2, 58, 0
4, 46651, Note_on_c, 2, 55, 0
4, 46656, Note_on_c, 2, 55, 120
4, 46656, Note_on_c, 2, 57, 120
4, 46656, Note_on_c, 2, 61, 120
4, 46660, Note_on_c, 2, 63, 0
4, 46848, Note_on_c, 2, 57, 0
4, 46852, Note_on_c, 2, 55, 0
4, 46856, Note_on_c, 2, 61, 0
4, 46872, Note_on_c, 2, 61, 120
4, 46872, Note_on_c, 2, 65, 120
4, 46872, Note_on_c, 2, 70, 120
4, 47256, Note_on_c, 2, 70, 0
4, 47257, Note_on_c, 2, 65, 0
4, 47280, Note_on_c, 2, 61, 0
4, 48004, Control_c, 2, 120, 0
4, 48005, Control_c, 2, 123, 0
4, 48005, End_track
5, 0, Start_track
5, 0, MIDI_port, 0
5, 0, Title_t, ""
5, 111, Control_c, 3, 0, 56
5, 112, Control_c, 3, 32, 0
5, 113, Program_c, 3, 10
5, 114, Control_c, 3, 7, 110
5, 114, Control_c, 3, 10, 64
5, 114, End_track
6, 0, Start_track
6, 0, MIDI_port, 0
6, 0, Title_t, ""
6, 84, Control_c, 4, 121, 0
6, 116, Control_c, 4, 0, 56
6, 117, Control_c, 4, 32, 0
6, 118, Program_c, 4, 10
6, 119, Control_c, 4, 7, 110
6, 119, Control_c, 4, 10, 14
6, 119, Control_c, 4, 11, 120
6, 120, Control_c, 4, 91, 127
6, 120, Control_c, 4, 93, 40
6, 17664, Note_on_c, 4, 70, 83
6, 17664, Note_on_c, 4, 82, 83
6, 17675, Note_on_c, 4, 82, 0
6, 17675, Note_on_c, 4, 70, 0
6, 17736, Note_on_c, 4, 70, 83
6, 17736, Note_on_c, 4, 82, 83
6, 17748, Note_on_c, 4, 82, 0
6, 17748, Note_on_c, 4, 70, 0
6, 17808, Note_on_c, 4, 70, 83
6, 17808, Note_on_c, 4, 82, 83
6, 17819, Note_on_c, 4, 70, 0
6, 17824, Note_on_c, 4, 82, 0
6, 17904, Note_on_c, 4, 70, 83
6, 17904, Note_on_c, 4, 82, 83
6, 17928, Note_on_c, 4, 82, 0
6, 17928, Note_on_c, 4, 65, 83
6, 17928, Note_on_c, 4, 77, 83
6, 17931, Note_on_c, 4, 70, 0
6, 17951, Note_on_c, 4, 65, 0
6, 17952, Note_on_c, 4, 68, 83
6, 17952, Note_on_c, 4, 80, 83
6, 17955, Note_on_c, 4, 77, 0
6, 17976, Note_on_c, 4, 68, 0
6, 17976, Note_on_c, 4, 70, 83
6, 17976, Note_on_c, 4, 82, 83
6, 17983, Note_on_c, 4, 80, 0
6, 17996, Note_on_c, 4, 82, 0
6, 17999, Note_on_c, 4, 70, 0
6, 18048, Note_on_c, 4, 70, 83
6, 18048, Note_on_c, 4, 82, 83
6, 18063, Note_on_c, 4, 82, 0
6, 18063, Note_on_c, 4, 70, 0
6, 18120, Note_on_c, 4, 70, 83
6, 18120, Note_on_c, 4, 82, 83
6, 18135, Note_on_c, 4, 70, 0
6, 18140, Note_on_c, 4, 82, 0
6, 18192, Note_on_c, 4, 70, 83
6, 18192, Note_on_c, 4, 82, 83
6, 18203, Note_on_c, 4, 70, 0
6, 18207, Note_on_c, 4, 82, 0
6, 18288, Note_on_c, 4, 70, 83
6, 18288, Note_on_c, 4, 82, 83
6, 18312, Note_on_c, 4, 82, 0
6, 18312, Note_on_c, 4, 70, 0
6, 18312, Note_on_c, 4, 65, 83
6, 18312, Note_on_c, 4, 77, 83
6, 18331, Note_on_c, 4, 65, 0
6, 18336, Note_on_c, 4, 68, 83
6, 18336, Note_on_c, 4, 80, 83
6, 18339, Note_on_c, 4, 77, 0
6, 18360, Note_on_c, 4, 80, 0
6, 18360, Note_on_c, 4, 68, 0
6, 18360, Note_on_c, 4, 70, 83
6, 18360, Note_on_c, 4, 82, 83
6, 18380, Note_on_c, 4, 82, 0
6, 18382, Note_on_c, 4, 70, 0
6, 18432, Note_on_c, 4, 70, 83
6, 18432, Note_on_c, 4, 82, 83
6, 18446, Note_on_c, 4, 82, 0
6, 18451, Note_on_c, 4, 70, 0
6, 18504, Note_on_c, 4, 70, 83
6, 18504, Note_on_c, 4, 82, 83
6, 18519, Note_on_c, 4, 82, 0
6, 18520, Note_on_c, 4, 70, 0
6, 18576, Note_on_c, 4, 70, 83
6, 18576, Note_on_c, 4, 82, 83
6, 18592, Note_on_c, 4, 82, 0
6, 18592, Note_on_c, 4, 70, 0
6, 18672, Note_on_c, 4, 70, 83
6, 18672, Note_on_c, 4, 82, 83
6, 18696, Note_on_c, 4, 82, 0
6, 18696, Note_on_c, 4, 65, 83
6, 18696, Note_on_c, 4, 77, 83
6, 18699, Note_on_c, 4, 70, 0
6, 18719, Note_on_c, 4, 65, 0
6, 18720, Note_on_c, 4, 68, 83
6, 18720, Note_on_c, 4, 80, 83
6, 18723, Note_on_c, 4, 77, 0
6, 18739, Note_on_c, 4, 68, 0
6, 18744, Note_on_c, 4, 80, 0
6, 18744, Note_on_c, 4, 70, 83
6, 18744, Note_on_c, 4, 82, 83
6, 18764, Note_on_c, 4, 82, 0
6, 18764, Note_on_c, 4, 70, 0
6, 18816, Note_on_c, 4, 70, 83
6, 18816, Note_on_c, 4, 82, 83
6, 18831, Note_on_c, 4, 70, 0
6, 18835, Note_on_c, 4, 82, 0
6, 18888, Note_on_c, 4, 70, 83
6, 18888, Note_on_c, 4, 82, 83
6, 18903, Note_on_c, 4, 82, 0
6, 18903, Note_on_c, 4, 70, 0
6, 18960, Note_on_c, 4, 70, 83
6, 18960, Note_on_c, 4, 82, 83
6, 18975, Note_on_c, 4, 82, 0
6, 18975, Note_on_c, 4, 70, 0
6, 19056, Note_on_c, 4, 77, 83
6, 19056, Note_on_c, 4, 89, 83
6, 19076, Note_on_c, 4, 77, 0
6, 19080, Note_on_c, 4, 89, 0
6, 19080, Note_on_c, 4, 75, 83
6, 19080, Note_on_c, 4, 87, 83
6, 19103, Note_on_c, 4, 75, 0
6, 19104, Note_on_c, 4, 77, 83
6, 19104, Note_on_c, 4, 89, 83
6, 19107, Note_on_c, 4, 87, 0
6, 19136, Note_on_c, 4, 89, 0
6, 19140, Note_on_c, 4, 77, 0
6, 20928, Note_on_c, 4, 65, 83
6, 21000, Note_on_c, 4, 61, 83
6, 21013, Note_on_c, 4, 65, 0
6, 21067, Note_on_c, 4, 61, 0
6, 21072, Note_on_c, 4, 58, 83
6, 21120, Note_on_c, 4, 63, 83
6, 21128, Note_on_c, 4, 58, 0
6, 21371, Note_on_c, 4, 63, 0
6, 22128, Note_on_c, 4, 80, 89
6, 22151, Note_on_c, 4, 80, 0
6, 22200, Note_on_c, 4, 80, 89
6, 22224, Note_on_c, 4, 80, 0
6, 22656, Note_on_c, 4, 77, 77
6, 23026, Note_on_c, 4, 77, 0
6, 23040, Note_on_c, 4, 79, 77
6, 23424, Note_on_c, 4, 81, 77
6, 23426, Note_on_c, 4, 79, 0
6, 23616, Note_on_c, 4, 82, 77
6, 23622, Note_on_c, 4, 81, 0
6, 23794, Note_on_c, 4, 82, 0
6, 26880, Note_on_c, 4, 70, 83
6, 26880, Note_on_c, 4, 82, 83
6, 26891, Note_on_c, 4, 82, 0
6, 26891, Note_on_c, 4, 70, 0
6, 26952, Note_on_c, 4, 70, 83
6, 26952, Note_on_c, 4, 82, 83
6, 26963, Note_on_c, 4, 82, 0
6, 26963, Note_on_c, 4, 70, 0
6, 27024, Note_on_c, 4, 70, 83
6, 27024, Note_on_c, 4, 82, 83
6, 27035, Note_on_c, 4, 70, 0
6, 27039, Note_on_c, 4, 82, 0
6, 27120, Note_on_c, 4, 70, 83
6, 27120, Note_on_c, 4, 82, 83
6, 27143, Note_on_c, 4, 82, 0
6, 27144, Note_on_c, 4, 65, 83
6, 27144, Note_on_c, 4, 77, 83
6, 27147, Note_on_c, 4, 70, 0
6, 27167, Note_on_c, 4, 65, 0
6, 27168, Note_on_c, 4, 68, 83
6, 27168, Note_on_c, 4, 80, 83
6, 27172, Note_on_c, 4, 77, 0
6, 27192, Note_on_c, 4, 68, 0
6, 27192, Note_on_c, 4, 70, 83
6, 27192, Note_on_c, 4, 82, 83
6, 27199, Note_on_c, 4, 80, 0
6, 27211, Note_on_c, 4, 82, 0
6, 27215, Note_on_c, 4, 70, 0
6, 27264, Note_on_c, 4, 70, 83
6, 27264, Note_on_c, 4, 82, 83
6, 27279, Note_on_c, 4, 82, 0
6, 27279, Note_on_c, 4, 70, 0
6, 27336, Note_on_c, 4, 70, 83
6, 27336, Note_on_c, 4, 82, 83
6, 27351, Note_on_c, 4, 70, 0
6, 27355, Note_on_c, 4, 82, 0
6, 27408, Note_on_c, 4, 70, 83
6, 27408, Note_on_c, 4, 82, 83
6, 27419, Note_on_c, 4, 70, 0
6, 27423, Note_on_c, 4, 82, 0
6, 27504, Note_on_c, 4, 70, 83
6, 27504, Note_on_c, 4, 82, 83
6, 27527, Note_on_c, 4, 82, 0
6, 27528, Note_on_c, 4, 70, 0
6, 27528, Note_on_c, 4, 65, 83
6, 27528, Note_on_c, 4, 77, 83
6, 27547, Note_on_c, 4, 65, 0
6, 27552, Note_on_c, 4, 68, 83
6, 27552, Note_on_c, 4, 80, 83
6, 27556, Note_on_c, 4, 77, 0
6, 27576, Note_on_c, 4, 80, 0
6, 27576, Note_on_c, 4, 68, 0
6, 27576, Note_on_c, 4, 70, 83
6, 27576, Note_on_c, 4, 82, 83
6, 27595, Note_on_c, 4, 82, 0
6, 27599, Note_on_c, 4, 70, 0
6, 27648, Note_on_c, 4, 70, 83
6, 27648, Note_on_c, 4, 82, 83
6, 27663, Note_on_c, 4, 82, 0
6, 27666, Note_on_c, 4, 70, 0
6, 27720, Note_on_c, 4, 70, 83
6, 27720, Note_on_c, 4, 82, 83
6, 27735, Note_on_c, 4, 70, 0
6, 27736, Note_on_c, 4, 82, 0
6, 27792, Note_on_c, 4, 70, 83
6, 27792, Note_on_c, 4, 82, 83
6, 27808, Note_on_c, 4, 82, 0
6, 27808, Note_on_c, 4, 70, 0
6, 27888, Note_on_c, 4, 70, 83
6, 27888, Note_on_c, 4, 82, 83
6, 27911, Note_on_c, 4, 82, 0
6, 27912, Note_on_c, 4, 65, 83
6, 27912, Note_on_c, 4, 77, 83
6, 27915, Note_on_c, 4, 70, 0
6, 27935, Note_on_c, 4, 65, 0
6, 27936, Note_on_c, 4, 68, 83
6, 27936, Note_on_c, 4, 80, 83
6, 27940, Note_on_c, 4, 77, 0
6, 27955, Note_on_c, 4, 68, 0
6, 27960, Note_on_c, 4, 80, 0
6, 27960, Note_on_c, 4, 70, 83
6, 27960, Note_on_c, 4, 82, 83
6, 27980, Note_on_c, 4, 82, 0
6, 27980, Note_on_c, 4, 70, 0
6, 28032, Note_on_c, 4, 70, 83
6, 28032, Note_on_c, 4, 82, 83
6, 28047, Note_on_c, 4, 82, 0
6, 28051, Note_on_c, 4, 70, 0
6, 28104, Note_on_c, 4, 70, 83
6, 28104, Note_on_c, 4, 82, 83
6, 28119, Note_on_c, 4, 82, 0
6, 28119, Note_on_c, 4, 70, 0
6, 28176, Note_on_c, 4, 70, 83
6, 28176, Note_on_c, 4, 82, 83
6, 28191, Note_on_c, 4, 82, 0
6, 28191, Note_on_c, 4, 70, 0
6, 28272, Note_on_c, 4, 70, 83
6, 28272, Note_on_c, 4, 82, 83
6, 28296, Note_on_c, 4, 82, 0
6, 28296, Note_on_c, 4, 65, 83
6, 28296, Note_on_c, 4, 77, 83
6, 28299, Note_on_c, 4, 70, 0
6, 28319, Note_on_c, 4, 65, 0
6, 28320, Note_on_c, 4, 68, 83
6, 28320, Note_on_c, 4, 80, 83
6, 28323, Note_on_c, 4, 77, 0
6, 28339, Note_on_c, 4, 68, 0
6, 28343, Note_on_c, 4, 80, 0
6, 28344, Note_on_c, 4, 70, 83
6, 28344, Note_on_c, 4, 82, 83
6, 28364, Note_on_c, 4, 82, 0
6, 28364, Note_on_c, 4, 70, 0
6, 28416, Note_on_c, 4, 80, 89
6, 28427, Note_on_c, 4, 80, 0
6, 28488, Note_on_c, 4, 80, 89
6, 28499, Note_on_c, 4, 80, 0
6, 28560, Note_on_c, 4, 80, 89
6, 28572, Note_on_c, 4, 80, 0
6, 28656, Note_on_c, 4, 80, 89
6, 28668, Note_on_c, 4, 80, 0
6, 28752, Note_on_c, 4, 80, 89
6, 28763, Note_on_c, 4, 80, 0
6, 28800, Note_on_c, 4, 82, 89
6, 28811, Note_on_c, 4, 82, 0
6, 28872, Note_on_c, 4, 82, 89
6, 28887, Note_on_c, 4, 82, 0
6, 28944, Note_on_c, 4, 82, 89
6, 28955, Note_on_c, 4, 82, 0
6, 29040, Note_on_c, 4, 82, 89
6, 29051, Note_on_c, 4, 82, 0
6, 29136, Note_on_c, 4, 82, 89
6, 29151, Note_on_c, 4, 82, 0
6, 29184, Note_on_c, 4, 80, 89
6, 29195, Note_on_c, 4, 80, 0
6, 29256, Note_on_c, 4, 80, 89
6, 29267, Note_on_c, 4, 80, 0
6, 29328, Note_on_c, 4, 80, 89
6, 29339, Note_on_c, 4, 80, 0
6, 29424, Note_on_c, 4, 80, 89
6, 29431, Note_on_c, 4, 80, 0
6, 29520, Note_on_c, 4, 80, 89
6, 29527, Note_on_c, 4, 80, 0
6, 29568, Note_on_c, 4, 72, 85
6, 29582, Note_on_c, 4, 72, 0
6, 29592, Note_on_c, 4, 73, 85
6, 29608, Note_on_c, 4, 73, 0
6, 29616, Note_on_c, 4, 75, 85
6, 29632, Note_on_c, 4, 75, 0
6, 29640, Note_on_c, 4, 77, 85
6, 29656, Note_on_c, 4, 77, 0
6, 29664, Note_on_c, 4, 75, 85
6, 29680, Note_on_c, 4, 75, 0
6, 29688, Note_on_c, 4, 77, 85
6, 29704, Note_on_c, 4, 77, 0
6, 29712, Note_on_c, 4, 79, 85
6, 29728, Note_on_c, 4, 79, 0
6, 29736, Note_on_c, 4, 80, 85
6, 29752, Note_on_c, 4, 80, 0
6, 29760, Note_on_c, 4, 79, 85
6, 29775, Note_on_c, 4, 79, 0
6, 29784, Note_on_c, 4, 80, 85
6, 29799, Note_on_c, 4, 80, 0
6, 29808, Note_on_c, 4, 82, 85
6, 29824, Note_on_c, 4, 82, 0
6, 29832, Note_on_c, 4, 84, 85
6, 29848, Note_on_c, 4, 84, 0
6, 29856, Note_on_c, 4, 82, 85
6, 29871, Note_on_c, 4, 82, 0
6, 29880, Note_on_c, 4, 84, 85
6, 29896, Note_on_c, 4, 84, 0
6, 29904, Note_on_c, 4, 85, 85
6, 29920, Note_on_c, 4, 85, 0
6, 29928, Note_on_c, 4, 87, 85
6, 29945, Note_on_c, 4, 87, 0
6, 29952, Note_on_c, 4, 89, 89
6, 30095, Note_on_c, 4, 89, 0
6, 30096, Note_on_c, 4, 85, 89
6, 30116, Note_on_c, 4, 85, 0
6, 30120, Note_on_c, 4, 82, 89
6, 30139, Note_on_c, 4, 82, 0
6, 30144, Note_on_c, 4, 85, 89
6, 30432, Note_on_c, 4, 87, 89
6, 30440, Note_on_c, 4, 85, 0
6, 30527, Note_on_c, 4, 87, 0
6, 30528, Note_on_c, 4, 89, 89
6, 30624, Note_on_c, 4, 89, 0
6, 30624, Note_on_c, 4, 90, 89
6, 30720, Note_on_c, 4, 92, 89
6, 30727, Note_on_c, 4, 90, 0
6, 31008, Note_on_c, 4, 94, 89
6, 31019, Note_on_c, 4, 92, 0
6, 31104, Note_on_c, 4, 85, 89
6, 31105, Note_on_c, 4, 94, 0
6, 31344, Note_on_c, 4, 87, 89
6, 31350, Note_on_c, 4, 85, 0
6, 31431, Note_on_c, 4, 87, 0
6, 31440, Note_on_c, 4, 89, 89
6, 31488, Note_on_c, 4, 85, 89
6, 31503, Note_on_c, 4, 89, 0
6, 31626, Note_on_c, 4, 85, 0
6, 31632, Note_on_c, 4, 82, 89
6, 31652, Note_on_c, 4, 82, 0
6, 31656, Note_on_c, 4, 80, 89
6, 31680, Note_on_c, 4, 82, 89
6, 31683, Note_on_c, 4, 80, 0
6, 31920, Note_on_c, 4, 92, 89
6, 31936, Note_on_c, 4, 82, 0
6, 32011, Note_on_c, 4, 92, 0
6, 32016, Note_on_c, 4, 94, 89
6, 32064, Note_on_c, 4, 92, 89
6, 32076, Note_on_c, 4, 94, 0
6, 32112, Note_on_c, 4, 90, 89
6, 32127, Note_on_c, 4, 92, 0
6, 32187, Note_on_c, 4, 90, 0
6, 32208, Note_on_c, 4, 89, 89
6, 32228, Note_on_c, 4, 89, 0
6, 32232, Note_on_c, 4, 90, 89
6, 32256, Note_on_c, 4, 89, 89
6, 32259, Note_on_c, 4, 90, 0
6, 32487, Note_on_c, 4, 89, 0
6, 32496, Note_on_c, 4, 85, 89
6, 32496, Note_on_c, 4, 89, 89
6, 32516, Note_on_c, 4, 85, 0
6, 32520, Note_on_c, 4, 84, 89
6, 32520, Note_on_c, 4, 87, 89
6, 32523, Note_on_c, 4, 89, 0
6, 32539, Note_on_c, 4, 84, 0
6, 32543, Note_on_c, 4, 87, 0
6, 32544, Note_on_c, 4, 85, 89
6, 32544, Note_on_c, 4, 89, 89
6, 32564, Note_on_c, 4, 85, 0
6, 32568, Note_on_c, 4, 89, 0
6, 32640, Note_on_c, 4, 82, 89
6, 32640, Note_on_c, 4, 85, 89
6, 32658, Note_on_c, 4, 82, 0
6, 32664, Note_on_c, 4, 80, 89
6, 32664, Note_on_c, 4, 84, 89
6, 32666, Note_on_c, 4, 85, 0
6, 32684, Note_on_c, 4, 80, 0
6, 32688, Note_on_c, 4, 84, 0
6, 32688, Note_on_c, 4, 82, 89
6, 32688, Note_on_c, 4, 85, 89
6, 32703, Note_on_c, 4, 85, 0
6, 32707, Note_on_c, 4, 82, 0
6, 32784, Note_on_c, 4, 78, 89
6, 32784, Note_on_c, 4, 82, 89
6, 32800, Note_on_c, 4, 82, 0
6, 32800, Note_on_c, 4, 78, 0
6, 32808, Note_on_c, 4, 77, 89
6, 32808, Note_on_c, 4, 80, 89
6, 32832, Note_on_c, 4, 78, 89
6, 32832, Note_on_c, 4, 82, 89
6, 32835, Note_on_c, 4, 77, 0
6, 32840, Note_on_c, 4, 80, 0
6, 32847, Note_on_c, 4, 82, 0
6, 32848, Note_on_c, 4, 78, 0
6, 32880, Note_on_c, 4, 80, 89
6, 32880, Note_on_c, 4, 84, 89
6, 32900, Note_on_c, 4, 84, 0
6, 32900, Note_on_c, 4, 80, 0
6, 32928, Note_on_c, 4, 82, 89
6, 32928, Note_on_c, 4, 85, 89
6, 32951, Note_on_c, 4, 82, 0
6, 32952, Note_on_c, 4, 85, 0
6, 33024, Note_on_c, 4, 77, 76
6, 33792, Note_on_c, 4, 79, 76
6, 33795, Note_on_c, 4, 77, 0
6, 34147, Note_on_c, 4, 79, 0
6, 34176, Note_on_c, 4, 60, 85
6, 34195, Note_on_c, 4, 60, 0
6, 34200, Note_on_c, 4, 62, 85
6, 34224, Note_on_c, 4, 65, 85
6, 34228, Note_on_c, 4, 62, 0
6, 34248, Note_on_c, 4, 60, 85
6, 34252, Note_on_c, 4, 65, 0
6, 34272, Note_on_c, 4, 60, 0
6, 34272, Note_on_c, 4, 62, 85
6, 34296, Note_on_c, 4, 65, 85
6, 34299, Note_on_c, 4, 62, 0
6, 34320, Note_on_c, 4, 60, 85
6, 34323, Note_on_c, 4, 65, 0
6, 34336, Note_on_c, 4, 60, 0
6, 34344, Note_on_c, 4, 62, 85
6, 34359, Note_on_c, 4, 62, 0
6, 34368, Note_on_c, 4, 67, 85
6, 34392, Note_on_c, 4, 60, 85
6, 34395, Note_on_c, 4, 67, 0
6, 34411, Note_on_c, 4, 60, 0
6, 34416, Note_on_c, 4, 62, 85
6, 34440, Note_on_c, 4, 67, 85
6, 34448, Note_on_c, 4, 62, 0
6, 34464, Note_on_c, 4, 60, 85
6, 34472, Note_on_c, 4, 67, 0
6, 34483, Note_on_c, 4, 60, 0
6, 34488, Note_on_c, 4, 62, 85
6, 34512, Note_on_c, 4, 65, 85
6, 34520, Note_on_c, 4, 62, 0
6, 34544, Note_on_c, 4, 65, 0
6, 48008, Control_c, 4, 120, 0
6, 48009, Control_c, 4, 123, 0
6, 48009, End_track
7, 0, Start_track
7, 0, MIDI_port, 0
7, 0, Title_t, ""
7, 85, Control_c, 5, 121, 0
7, 121, Control_c, 5, 0, 56
7, 122, Control_c, 5, 32, 0
7, 123, Program_c, 5, 48
7, 124, Control_c, 5, 7, 119
7, 124, Control_c, 5, 10, 84
7, 124, Control_c, 5, 11, 70
7, 125, Control_c, 5, 91, 127
7, 125, Control_c, 5, 93, 0
7, 1992, Note_on_c, 5, 61, 120
7, 2096, Note_on_c, 5, 61, 0
7, 2112, Note_on_c, 5, 62, 120
7, 2208, Note_on_c, 5, 64, 120
7, 2215, Note_on_c, 5, 62, 0
7, 2291, Note_on_c, 5, 64, 0
7, 2304, Note_on_c, 5, 64, 120
7, 3072, Note_on_c, 5, 64, 0
7, 3072, Note_on_c, 5, 67, 120
7, 3456, Note_on_c, 5, 70, 120
7, 3459, Note_on_c, 5, 67, 0
7, 3648, Note_on_c, 5, 75, 120
7, 3659, Note_on_c, 5, 70, 0
7, 3835, Note_on_c, 5, 75, 0
7, 3840, Note_on_c, 5, 77, 120
7, 3984, Note_on_c, 5, 73, 120
7, 3986, Note_on_c, 5, 77, 0
7, 4007, Note_on_c, 5, 73, 0
7, 4008, Note_on_c, 5, 70, 120
7, 4032, Note_on_c, 5, 73, 120
7, 4035, Note_on_c, 5, 70, 0
7, 4320, Note_on_c, 5, 77, 120
7, 4327, Note_on_c, 5, 73, 0
7, 4416, Note_on_c, 5, 78, 120
7, 4424, Note_on_c, 5, 77, 0
7, 4511, Note_on_c, 5, 78, 0
7, 4512, Note_on_c, 5, 80, 120
7, 4608, Note_on_c, 5, 77, 120
7, 4609, Note_on_c, 5, 80, 0
7, 4752, Note_on_c, 5, 73, 120
7, 4755, Note_on_c, 5, 77, 0
7, 4776, Note_on_c, 5, 73, 0
7, 4776, Note_on_c, 5, 70, 120
7, 4800, Note_on_c, 5, 73, 120
7, 4803, Note_on_c, 5, 70, 0
7, 5088, Note_on_c, 5, 77, 120
7, 5095, Note_on_c, 5, 73, 0
7, 5184, Note_on_c, 5, 77, 0
7, 5184, Note_on_c, 5, 78, 120
7, 5275, Note_on_c, 5, 78, 0
7, 5280, Note_on_c, 5, 80, 120
7, 5355, Note_on_c, 5, 80, 0
7, 5376, Note_on_c, 5, 80, 120
7, 5603, Note_on_c, 5, 80, 0
7, 5664, Note_on_c, 5, 82, 120
7, 5760, Note_on_c, 5, 82, 0
7, 5760, Note_on_c, 5, 73, 120
7, 6043, Note_on_c, 5, 73, 0
7, 6048, Note_on_c, 5, 75, 120
7, 6123, Note_on_c, 5, 75, 0
7, 6144, Note_on_c, 5, 68, 120
7, 6447, Note_on_c, 5, 68, 0
7, 6528, Note_on_c, 5, 70, 120
7, 6618, Note_on_c, 5, 70, 0
7, 6624, Note_on_c, 5, 72, 120
7, 6720, Note_on_c, 5, 73, 120
7, 6728, Note_on_c, 5, 72, 0
7, 6816, Note_on_c, 5, 75, 120
7, 6831, Note_on_c, 5, 73, 0
7, 6912, Note_on_c, 5, 75, 0
7, 9696, Note_on_c, 5, 77, 120
7, 9792, Note_on_c, 5, 75, 120
7, 9795, Note_on_c, 5, 77, 0
7, 9887, Note_on_c, 5, 75, 0
7, 9888, Note_on_c, 5, 72, 120
7, 9984, Note_on_c, 5, 72, 0
7, 9984, Note_on_c, 5, 70, 120
7, 10560, Note_on_c, 5, 72, 120
7, 10566, Note_on_c, 5, 70, 0
7, 10656, Note_on_c, 5, 72, 0
7, 10656, Note_on_c, 5, 73, 120
7, 10752, Note_on_c, 5, 73, 0
7, 10752, Note_on_c, 5, 68, 120
7, 11328, Note_on_c, 5, 75, 120
7, 11330, Note_on_c, 5, 68, 0
7, 11424, Note_on_c, 5, 77, 120
7, 11428, Note_on_c, 5, 75, 0
7, 11516, Note_on_c, 5, 77, 0
7, 11520, Note_on_c, 5, 73, 120
7, 12000, Note_on_c, 5, 75, 120
7, 12007, Note_on_c, 5, 73, 0
7, 12096, Note_on_c, 5, 75, 0
7, 12096, Note_on_c, 5, 77, 120
7, 12192, Note_on_c, 5, 82, 120
7, 12199, Note_on_c, 5, 77, 0
7, 12288, Note_on_c, 5, 80, 120
7, 12291, Note_on_c, 5, 82, 0
7, 12970, Note_on_c, 5, 80, 0
7, 14400, Note_on_c, 5, 79, 120
7, 14550, Note_on_c, 5, 79, 0
7, 14592, Note_on_c, 5, 77, 120
7, 14736, Note_on_c, 5, 73, 120
7, 14739, Note_on_c, 5, 77, 0
7, 14760, Note_on_c, 5, 73, 0
7, 14760, Note_on_c, 5, 70, 120
7, 14784, Note_on_c, 5, 73, 120
7, 14787, Note_on_c, 5, 70, 0
7, 15072, Note_on_c, 5, 77, 120
7, 15080, Note_on_c, 5, 73, 0
7, 15168, Note_on_c, 5, 78, 120
7, 15176, Note_on_c, 5, 77, 0
7, 15263, Note_on_c, 5, 78, 0
7, 15264, Note_on_c, 5, 80, 120
7, 15360, Note_on_c, 5, 80, 0
7, 15360, Note_on_c, 5, 77, 120
7, 15504, Note_on_c, 5, 73, 120
7, 15507, Note_on_c, 5, 77, 0
7, 15528, Note_on_c, 5, 73, 0
7, 15528, Note_on_c, 5, 70, 120
7, 15552, Note_on_c, 5, 73, 120
7, 15555, Note_on_c, 5, 70, 0
7, 15840, Note_on_c, 5, 77, 120
7, 15847, Note_on_c, 5, 73, 0
7, 15936, Note_on_c, 5, 77, 0
7, 15936, Note_on_c, 5, 78, 120
7, 16027, Note_on_c, 5, 78, 0
7, 16032, Note_on_c, 5, 80, 120
7, 16108, Note_on_c, 5, 80, 0
7, 16128, Note_on_c, 5, 80, 120
7, 16355, Note_on_c, 5, 80, 0
7, 16416, Note_on_c, 5, 82, 120
7, 16512, Note_on_c, 5, 82, 0
7, 16512, Note_on_c, 5, 73, 120
7, 16795, Note_on_c, 5, 73, 0
7, 16800, Note_on_c, 5, 75, 120
7, 16876, Note_on_c, 5, 75, 0
7, 16896, Note_on_c, 5, 68, 120
7, 17199, Note_on_c, 5, 68, 0
7, 17280, Note_on_c, 5, 70, 120
7, 17370, Note_on_c, 5, 70, 0
7, 17376, Note_on_c, 5, 72, 120
7, 17472, Note_on_c, 5, 73, 120
7, 17480, Note_on_c, 5, 72, 0
7, 17568, Note_on_c, 5, 75, 120
7, 17582, Note_on_c, 5, 73, 0
7, 17665, Note_on_c, 5, 75, 0
7, 19200, Note_on_c, 5, 70, 120
7, 19776, Note_on_c, 5, 72, 120
7, 19783, Note_on_c, 5, 70, 0
7, 19872, Note_on_c, 5, 72, 0
7, 19872, Note_on_c, 5, 73, 120
7, 19968, Note_on_c, 5, 73, 0
7, 19968, Note_on_c, 5, 68, 120
7, 20544, Note_on_c, 5, 75, 120
7, 20546, Note_on_c, 5, 68, 0
7, 20640, Note_on_c, 5, 77, 120
7, 20643, Note_on_c, 5, 75, 0
7, 20731, Note_on_c, 5, 77, 0
7, 20736, Note_on_c, 5, 73, 120
7, 21216, Note_on_c, 5, 75, 120
7, 21222, Note_on_c, 5, 73, 0
7, 21312, Note_on_c, 5, 75, 0
7, 21312, Note_on_c, 5, 77, 120
7, 21408, Note_on_c, 5, 82, 120
7, 21415, Note_on_c, 5, 77, 0
7, 21504, Note_on_c, 5, 80, 120
7, 21507, Note_on_c, 5, 82, 0
7, 21994, Note_on_c, 5, 80, 0
7, 23808, Note_on_c, 5, 77, 120
7, 23952, Note_on_c, 5, 73, 120
7, 23954, Note_on_c, 5, 77, 0
7, 23975, Note_on_c, 5, 73, 0
7, 23976, Note_on_c, 5, 70, 120
7, 24000, Note_on_c, 5, 73, 120
7, 24003, Note_on_c, 5, 70, 0
7, 24288, Note_on_c, 5, 77, 120
7, 24296, Note_on_c, 5, 73, 0
7, 24384, Note_on_c, 5, 78, 120
7, 24392, Note_on_c, 5, 77, 0
7, 24479, Note_on_c, 5, 78, 0
7, 24480, Note_on_c, 5, 80, 120
7, 24576, Note_on_c, 5, 77, 120
7, 24577, Note_on_c, 5, 80, 0
7, 24720, Note_on_c, 5, 73, 120
7, 24723, Note_on_c, 5, 77, 0
7, 24744, Note_on_c, 5, 73, 0
7, 24744, Note_on_c, 5, 70, 120
7, 24768, Note_on_c, 5, 73, 120
7, 24771, Note_on_c, 5, 70, 0
7, 25056, Note_on_c, 5, 77, 120
7, 25064, Note_on_c, 5, 73, 0
7, 25152, Note_on_c, 5, 77, 0
7, 25152, Note_on_c, 5, 78, 120
7, 25243, Note_on_c, 5, 78, 0
7, 25248, Note_on_c, 5, 80, 120
7, 25323, Note_on_c, 5, 80, 0
7, 25344, Note_on_c, 5, 80, 120
7, 25571, Note_on_c, 5, 80, 0
7, 25632, Note_on_c, 5, 82, 120
7, 25728, Note_on_c, 5, 82, 0
7, 25728, Note_on_c, 5, 73, 120
7, 26011, Note_on_c, 5, 73, 0
7, 26016, Note_on_c, 5, 75, 120
7, 26092, Note_on_c, 5, 75, 0
7, 26112, Note_on_c, 5, 68, 120
7, 26415, Note_on_c, 5, 68, 0
7, 26496, Note_on_c, 5, 70, 120
7, 26587, Note_on_c, 5, 70, 0
7, 26592, Note_on_c, 5, 72, 120
7, 26688, Note_on_c, 5, 73, 120
7, 26695, Note_on_c, 5, 72, 0
7, 26784, Note_on_c, 5, 75, 120
7, 26799, Note_on_c, 5, 73, 0
7, 26881, Note_on_c, 5, 75, 0
7, 34560, Note_on_c, 5, 77, 120
7, 34704, Note_on_c, 5, 73, 120
7, 34707, Note_on_c, 5, 77, 0
7, 34728, Note_on_c, 5, 73, 0
7, 34728, Note_on_c, 5, 70, 120
7, 34752, Note_on_c, 5, 73, 120
7, 34755, Note_on_c, 5, 70, 0
7, 35040, Note_on_c, 5, 77, 120
7, 35048, Note_on_c, 5, 73, 0
7, 35136, Note_on_c, 5, 78, 120
7, 35143, Note_on_c, 5, 77, 0
7, 35231, Note_on_c, 5, 78, 0
7, 35232, Note_on_c, 5, 80, 120
7, 35328, Note_on_c, 5, 80, 0
7, 35328, Note_on_c, 5, 77, 120
7, 35472, Note_on_c, 5, 73, 120
7, 35475, Note_on_c, 5, 77, 0
7, 35496, Note_on_c, 5, 73, 0
7, 35496, Note_on_c, 5, 70, 120
7, 35520, Note_on_c, 5, 73, 120
7, 35523, Note_on_c, 5, 70, 0
7, 35808, Note_on_c, 5, 77, 120
7, 35815, Note_on_c, 5, 73, 0
7, 35904, Note_on_c, 5, 77, 0
7, 35904, Note_on_c, 5, 78, 120
7, 35995, Note_on_c, 5, 78, 0
7, 36000, Note_on_c, 5, 80, 120
7, 36076, Note_on_c, 5, 80, 0
7, 36096, Note_on_c, 5, 80, 120
7, 36322, Note_on_c, 5, 80, 0
7, 36384, Note_on_c, 5, 82, 120
7, 36480, Note_on_c, 5, 82, 0
7, 36480, Note_on_c, 5, 73, 120
7, 36763, Note_on_c, 5, 73, 0
7, 36768, Note_on_c, 5, 75, 120
7, 36844, Note_on_c, 5, 75, 0
7, 36864, Note_on_c, 5, 68, 120
7, 37167, Note_on_c, 5, 68, 0
7, 37248, Note_on_c, 5, 70, 120
7, 37339, Note_on_c, 5, 70, 0
7, 37344, Note_on_c, 5, 72, 120
7, 37440, Note_on_c, 5, 73, 120
7, 37447, Note_on_c, 5, 72, 0
7, 37536, Note_on_c, 5, 75, 120
7, 37551, Note_on_c, 5, 73, 0
7, 37632, Note_on_c, 5, 77, 120
7, 37633, Note_on_c, 5, 75, 0
7, 37776, Note_on_c, 5, 73, 120
7, 37778, Note_on_c, 5, 77, 0
7, 37800, Note_on_c, 5, 73, 0
7, 37800, Note_on_c, 5, 70, 120
7, 37824, Note_on_c, 5, 73, 120
7, 37827, Note_on_c, 5, 70, 0
7, 38112, Note_on_c, 5, 77, 120
7, 38119, Note_on_c, 5, 73, 0
7, 38208, Note_on_c, 5, 78, 120
7, 38215, Note_on_c, 5, 77, 0
7, 38280, Note_on_c, 5, 80, 120
7, 38302, Note_on_c, 5, 78, 0
7, 38400, Note_on_c, 5, 77, 120
7, 38401, Note_on_c, 5, 80, 0
7, 38544, Note_on_c, 5, 73, 120
7, 38547, Note_on_c, 5, 77, 0
7, 38567, Note_on_c, 5, 73, 0
7, 38568, Note_on_c, 5, 70, 120
7, 38592, Note_on_c, 5, 73, 120
7, 38595, Note_on_c, 5, 70, 0
7, 38880, Note_on_c, 5, 77, 120
7, 38887, Note_on_c, 5, 73, 0
7, 38976, Note_on_c, 5, 77, 0
7, 38976, Note_on_c, 5, 78, 120
7, 39067, Note_on_c, 5, 78, 0
7, 39072, Note_on_c, 5, 80, 120
7, 39147, Note_on_c, 5, 80, 0
7, 39168, Note_on_c, 5, 80, 120
7, 39395, Note_on_c, 5, 80, 0
7, 39456, Note_on_c, 5, 82, 120
7, 39552, Note_on_c, 5, 82, 0
7, 39552, Note_on_c, 5, 73, 120
7, 39835, Note_on_c, 5, 73, 0
7, 39840, Note_on_c, 5, 75, 120
7, 39915, Note_on_c, 5, 75, 0
7, 39936, Note_on_c, 5, 68, 120
7, 40239, Note_on_c, 5, 68, 0
7, 40320, Note_on_c, 5, 70, 120
7, 40411, Note_on_c, 5, 70, 0
7, 40416, Note_on_c, 5, 72, 120
7, 40512, Note_on_c, 5, 73, 120
7, 40520, Note_on_c, 5, 72, 0
7, 40608, Note_on_c, 5, 75, 120
7, 40623, Note_on_c, 5, 73, 0
7, 40704, Note_on_c, 5, 77, 120
7, 40705, Note_on_c, 5, 75, 0
7, 40848, Note_on_c, 5, 73, 120
7, 40851, Note_on_c, 5, 77, 0
7, 40872, Note_on_c, 5, 73, 0
7, 40872, Note_on_c, 5, 70, 120
7, 40896, Note_on_c, 5, 73, 120
7, 40899, Note_on_c, 5, 70, 0
7, 41184, Note_on_c, 5, 77, 120
7, 41191, Note_on_c, 5, 73, 0
7, 41280, Note_on_c, 5, 78, 120
7, 41288, Note_on_c, 5, 77, 0
7, 41375, Note_on_c, 5, 78, 0
7, 41376, Note_on_c, 5, 80, 120
7, 41472, Note_on_c, 5, 80, 0
7, 41472, Note_on_c, 5, 77, 120
7, 41616, Note_on_c, 5, 73, 120
7, 41619, Note_on_c, 5, 77, 0
7, 41640, Note_on_c, 5, 73, 0
7, 41640, Note_on_c, 5, 70, 120
7, 41664, Note_on_c, 5, 73, 120
7, 41667, Note_on_c, 5, 70, 0
7, 41952, Note_on_c, 5, 77, 120
7, 41960, Note_on_c, 5, 73, 0
7, 42048, Note_on_c, 5, 77, 0
7, 42048, Note_on_c, 5, 78, 120
7, 42139, Note_on_c, 5, 78, 0
7, 42144, Note_on_c, 5, 80, 120
7, 42220, Note_on_c, 5, 80, 0
7, 42240, Note_on_c, 5, 80, 120
7, 42466, Note_on_c, 5, 80, 0
7, 42528, Note_on_c, 5, 82, 120
7, 42624, Note_on_c, 5, 82, 0
7, 42624, Note_on_c, 5, 73, 120
7, 42906, Note_on_c, 5, 73, 0
7, 42912, Note_on_c, 5, 75, 120
7, 42988, Note_on_c, 5, 75, 0
7, 43008, Note_on_c, 5, 68, 120
7, 43310, Note_on_c, 5, 68, 0
7, 43392, Note_on_c, 5, 70, 120
7, 43482, Note_on_c, 5, 70, 0
7, 43488, Note_on_c, 5, 72, 120
7, 43584, Note_on_c, 5, 73, 120
7, 43592, Note_on_c, 5, 72, 0
7, 43680, Note_on_c, 5, 75, 120
7, 43694, Note_on_c, 5, 73, 0
7, 43776, Note_on_c, 5, 75, 0
7, 43776, Note_on_c, 5, 77, 120
7, 43920, Note_on_c, 5, 73, 120
7, 43922, Note_on_c, 5, 77, 0
7, 43943, Note_on_c, 5, 73, 0
7, 43944, Note_on_c, 5, 70, 120
7, 43968, Note_on_c, 5, 73, 120
7, 43972, Note_on_c, 5, 70, 0
7, 44256, Note_on_c, 5, 77, 120
7, 44264, Note_on_c, 5, 73, 0
7, 44352, Note_on_c, 5, 78, 120
7, 44359, Note_on_c, 5, 77, 0
7, 44448, Note_on_c, 5, 78, 0
7, 44448, Note_on_c, 5, 80, 120
7, 44544, Note_on_c, 5, 80, 0
7, 44544, Note_on_c, 5, 77, 120
7, 44688, Note_on_c, 5, 73, 120
7, 44690, Note_on_c, 5, 77, 0
7, 44711, Note_on_c, 5, 73, 0
7, 44712, Note_on_c, 5, 70, 120
7, 44736, Note_on_c, 5, 73, 120
7, 44739, Note_on_c, 5, 70, 0
7, 45024, Note_on_c, 5, 77, 120
7, 45031, Note_on_c, 5, 73, 0
7, 45120, Note_on_c, 5, 77, 0
7, 45120, Note_on_c, 5, 78, 120
7, 45211, Note_on_c, 5, 78, 0
7, 45216, Note_on_c, 5, 80, 120
7, 45291, Note_on_c, 5, 80, 0
7, 45312, Note_on_c, 5, 80, 120
7, 45538, Note_on_c, 5, 80, 0
7, 45600, Note_on_c, 5, 82, 120
7, 45696, Note_on_c, 5, 82, 0
7, 45696, Note_on_c, 5, 73, 120
7, 45979, Note_on_c, 5, 73, 0
7, 45984, Note_on_c, 5, 75, 120
7, 46059, Note_on_c, 5, 75, 0
7, 46080, Note_on_c, 5, 68, 120
7, 46383, Note_on_c, 5, 68, 0
7, 46464, Note_on_c, 5, 70, 120
7, 46555, Note_on_c, 5, 70, 0
7, 46560, Note_on_c, 5, 72, 120
7, 46656, Note_on_c, 5, 73, 120
7, 46663, Note_on_c, 5, 72, 0
7, 46752, Note_on_c, 5, 75, 120
7, 46767, Note_on_c, 5, 73, 0
7, 46848, Note_on_c, 5, 75, 0
7, 46848, Note_on_c, 5, 77, 120
7, 47234, Note_on_c, 5, 77, 0
7, 48010, Control_c, 5, 120, 0
7, 48011, Control_c, 5, 123, 0
7, 48011, End_track
8, 0, Start_track
8, 0, MIDI_port, 0
8, 0, Title_t, ""
8, 86, Control_c, 6, 121, 0
8, 126, Control_c, 6, 0, 56
8, 127, Control_c, 6, 32, 0
8, 128, Program_c, 6, 46
8, 129, Control_c, 6, 7, 110
8, 129, Control_c, 6, 10, 114
8, 129, Control_c, 6, 11, 120
8, 130, Control_c, 6, 91, 127
8, 130, Control_c, 6, 93, 40
8, 17664, Note_on_c, 6, 58, 83
8, 17664, Note_on_c, 6, 70, 83
8, 17675, Note_on_c, 6, 70, 0
8, 17675, Note_on_c, 6, 58, 0
8, 17736, Note_on_c, 6, 58, 83
8, 17736, Note_on_c, 6, 70, 83
8, 17748, Note_on_c, 6, 70, 0
8, 17748, Note_on_c, 6, 58, 0
8, 17808, Note_on_c, 6, 58, 83
8, 17808, Note_on_c, 6, 70, 83
8, 17819, Note_on_c, 6, 58, 0
8, 17824, Note_on_c, 6, 70, 0
8, 17904, Note_on_c, 6, 58, 83
8, 17904, Note_on_c, 6, 70, 83
8, 17928, Note_on_c, 6, 70, 0
8, 17928, Note_on_c, 6, 53, 83
8, 17928, Note_on_c, 6, 65, 83
8, 17931, Note_on_c, 6, 58, 0
8, 17951, Note_on_c, 6, 53, 0
8, 17952, Note_on_c, 6, 56, 83
8, 17952, Note_on_c, 6, 68, 83
8, 17955, Note_on_c, 6, 65, 0
8, 17976, Note_on_c, 6, 56, 0
8, 17976, Note_on_c, 6, 58, 83
8, 17976, Note_on_c, 6, 70, 83
8, 17983, Note_on_c, 6, 68, 0
8, 17996, Note_on_c, 6, 70, 0
8, 17999, Note_on_c, 6, 58, 0
8, 18048, Note_on_c, 6, 58, 83
8, 18048, Note_on_c, 6, 70, 83
8, 18063, Note_on_c, 6, 70, 0
8, 18063, Note_on_c, 6, 58, 0
8, 18120, Note_on_c, 6, 58, 83
8, 18120, Note_on_c, 6, 70, 83
8, 18135, Note_on_c, 6, 58, 0
8, 18140, Note_on_c, 6, 70, 0
8, 18192, Note_on_c, 6, 58, 83
8, 18192, Note_on_c, 6, 70, 83
8, 18203, Note_on_c, 6, 58, 0
8, 18207, Note_on_c, 6, 70, 0
8, 18288, Note_on_c, 6, 58, 83
8, 18288, Note_on_c, 6, 70, 83
8, 18312, Note_on_c, 6, 70, 0
8, 18312, Note_on_c, 6, 58, 0
8, 18312, Note_on_c, 6, 53, 83
8, 18312, Note_on_c, 6, 65, 83
8, 18331, Note_on_c, 6, 53, 0
8, 18336, Note_on_c, 6, 56, 83
8, 18336, Note_on_c, 6, 68, 83
8, 18339, Note_on_c, 6, 65, 0
8, 18360, Note_on_c, 6, 68, 0
8, 18360, Note_on_c, 6, 56, 0
8, 18360, Note_on_c, 6, 58, 83
8, 18360, Note_on_c, 6, 70, 83
8, 18380, Note_on_c, 6, 70, 0
8, 18382, Note_on_c, 6, 58, 0
8, 18432, Note_on_c, 6, 58, 83
8, 18432, Note_on_c, 6, 70, 83
8, 18446, Note_on_c, 6, 70, 0
8, 18451, Note_on_c, 6, 58, 0
8, 18504, Note_on_c, 6, 58, 83
8, 18504, Note_on_c, 6, 70, 83
8, 18519, Note_on_c, 6, 70, 0
8, 18520, Note_on_c, 6, 58, 0
8, 18576, Note_on_c, 6, 58, 83
8, 18576, Note_on_c, 6, 70, 83
8, 18592, Note_on_c, 6, 70, 0
8, 18592, Note_on_c, 6, 58, 0
8, 18672, Note_on_c, 6, 58, 83
8, 18672, Note_on_c, 6, 70, 83
8, 18696, Note_on_c, 6, 70, 0
8, 18696, Note_on_c, 6, 53, 83
8, 18696, Note_on_c, 6, 65, 83
8, 18699, Note_on_c, 6, 58, 0
8, 18719, Note_on_c, 6, 53, 0
8, 18720, Note_on_c, 6, 56, 83
8, 18720, Note_on_c, 6, 68, 83
8, 18723, Note_on_c, 6, 65, 0
8, 18739, Note_on_c, 6, 56, 0
8, 18744, Note_on_c, 6, 68, 0
8, 18744, Note_on_c, 6, 58, 83
8, 18744, Note_on_c, 6, 70, 83
8, 18764, Note_on_c, 6, 70, 0
8, 18764, Note_on_c, 6, 58, 0
8, 18816, Note_on_c, 6, 58, 83
8, 18816, Note_on_c, 6, 70, 83
8, 18831, Note_on_c, 6, 58, 0
8, 18835, Note_on_c, 6, 70, 0
8, 18888, Note_on_c, 6, 58, 83
8, 18888, Note_on_c, 6, 70, 83
8, 18903, Note_on_c, 6, 70, 0
8, 18903, Note_on_c, 6, 58, 0
8, 18960, Note_on_c, 6, 58, 83
8, 18960, Note_on_c, 6, 70, 83
8, 18975, Note_on_c, 6, 70, 0
8, 18975, Note_on_c, 6, 58, 0
8, 19056, Note_on_c, 6, 65, 83
8, 19056, Note_on_c, 6, 77, 83
8, 19076, Note_on_c, 6, 65, 0
8, 19080, Note_on_c, 6, 77, 0
8, 19080, Note_on_c, 6, 63, 83
8, 19080, Note_on_c, 6, 75, 83
8, 19103, Note_on_c, 6, 63, 0
8, 19104, Note_on_c, 6, 65, 83
8, 19104, Note_on_c, 6, 77, 83
8, 19107, Note_on_c, 6, 75, 0
8, 19136, Note_on_c, 6, 77, 0
8, 19140, Note_on_c, 6, 65, 0
8, 20928, Note_on_c, 6, 53, 83
8, 21000, Note_on_c, 6, 49, 83
8, 21013, Note_on_c, 6, 53, 0
8, 21067, Note_on_c, 6, 49, 0
8, 21072, Note_on_c, 6, 46, 83
8, 21120, Note_on_c, 6, 51, 83
8, 21128, Note_on_c, 6, 46, 0
8, 21371, Note_on_c, 6, 51, 0
8, 22128, Note_on_c, 6, 68, 89
8, 22151, Note_on_c, 6, 68, 0
8, 22200, Note_on_c, 6, 68, 89
8, 22224, Note_on_c, 6, 68, 0
8, 22656, Note_on_c, 6, 65, 77
8, 23026, Note_on_c, 6, 65, 0
8, 23040, Note_on_c, 6, 67, 77
8, 23424, Note_on_c, 6, 69, 77
8, 23426, Note_on_c, 6, 67, 0
8, 23616, Note_on_c, 6, 70, 77
8, 23622, Note_on_c, 6, 69, 0
8, 23794, Note_on_c, 6, 70, 0
8, 26880, Note_on_c, 6, 58, 83
8, 26880, Note_on_c, 6, 70, 83
8, 26891, Note_on_c, 6, 70, 0
8, 26891, Note_on_c, 6, 58, 0
8, 26952, Note_on_c, 6, 58, 83
8, 26952, Note_on_c, 6, 70, 83
8, 26963, Note_on_c, 6, 70, 0
8, 26963, Note_on_c, 6, 58, 0
8, 27024, Note_on_c, 6, 58, 83
8, 27024, Note_on_c, 6, 70, 83
8, 27035, Note_on_c, 6, 58, 0
8, 27039, Note_on_c, 6, 70, 0
8, 27120, Note_on_c, 6, 58, 83
8, 27120, Note_on_c, 6, 70, 83
8, 27143, Note_on_c, 6, 70, 0
8, 27144, Note_on_c, 6, 53, 83
8, 27144, Note_on_c, 6, 65, 83
8, 27147, Note_on_c, 6, 58, 0
8, 27167, Note_on_c, 6, 53, 0
8, 27168, Note_on_c, 6, 56, 83
8, 27168, Note_on_c, 6, 68, 83
8, 27172, Note_on_c, 6, 65, 0
8, 27192, Note_on_c, 6, 56, 0
8, 27192, Note_on_c, 6, 58, 83
8, 27192, Note_on_c, 6, 70, 83
8, 27199, Note_on_c, 6, 68, 0
8, 27211, Note_on_c, 6, 70, 0
8, 27215, Note_on_c, 6, 58, 0
8, 27264, Note_on_c, 6, 58, 83
8, 27264, Note_on_c, 6, 70, 83
8, 27279, Note_on_c, 6, 70, 0
8, 27279, Note_on_c, 6, 58, 0
8, 27336, Note_on_c, 6, 58, 83
8, 27336, Note_on_c, 6, 70, 83
8, 27351, Note_on_c, 6, 58, 0
8, 27355, Note_on_c, 6, 70, 0
8, 27408, Note_on_c, 6, 58, 83
8, 27408, Note_on_c, 6, 70, 83
8, 27419, Note_on_c, 6, 58, 0
8, 27423, Note_on_c, 6, 70, 0
8, 27504, Note_on_c, 6, 58, 83
8, 27504, Note_on_c, 6, 70, 83
8, 27527, Note_on_c, 6, 70, 0
8, 27528, Note_on_c, 6, 58, 0
8, 27528, Note_on_c, 6, 53, 83
8, 27528, Note_on_c, 6, 65, 83
8, 27547, Note_on_c, 6, 53, 0
8, 27552, Note_on_c, 6, 56, 83
8, 27552, Note_on_c, 6, 68, 83
8, 27556, Note_on_c, 6, 65, 0
8, 27576, Note_on_c, 6, 68, 0
8, 27576, Note_on_c, 6, 56, 0
8, 27576, Note_on_c, 6, 58, 83
8, 27576, Note_on_c, 6, 70, 83
8, 27595, Note_on_c, 6, 70, 0
8, 27599, Note_on_c, 6, 58, 0
8, 27648, Note_on_c, 6, 58, 83
8, 27648, Note_on_c, 6, 70, 83
8, 27663, Note_on_c, 6, 70, 0
8, 27666, Note_on_c, 6, 58, 0
8, 27720, Note_on_c, 6, 58, 83
8, 27720, Note_on_c, 6, 70, 83
8, 27735, Note_on_c, 6, 58, 0
8, 27736, Note_on_c, 6, 70, 0
8, 27792, Note_on_c, 6, 58, 83
8, 27792, Note_on_c, 6, 70, 83
8, 27808, Note_on_c, 6, 70, 0
8, 27808, Note_on_c, 6, 58, 0
8, 27888, Note_on_c, 6, 58, 83
8, 27888, Note_on_c, 6, 70, 83
8, 27911, Note_on_c, 6, 70, 0
8, 27912, Note_on_c, 6, 53, 83
8, 27912, Note_on_c, 6, 65, 83
8, 27915, Note_on_c, 6, 58, 0
8, 27935, Note_on_c, 6, 53, 0
8, 27936, Note_on_c, 6, 56, 83
8, 27936, Note_on_c, 6, 68, 83
8, 27940, Note_on_c, 6, 65, 0
8, 27955, Note_on_c, 6, 56, 0
8, 27960, Note_on_c, 6, 68, 0
8, 27960, Note_on_c, 6, 58, 83
8, 27960, Note_on_c, 6, 70, 83
8, 27980, Note_on_c, 6, 70, 0
8, 27980, Note_on_c, 6, 58, 0
8, 28032, Note_on_c, 6, 58, 83
8, 28032, Note_on_c, 6, 70, 83
8, 28047, Note_on_c, 6, 70, 0
8, 28051, Note_on_c, 6, 58, 0
8, 28104, Note_on_c, 6, 58, 83
8, 28104, Note_on_c, 6, 70, 83
8, 28119, Note_on_c, 6, 70, 0
8, 28119, Note_on_c, 6, 58, 0
8, 28176, Note_on_c, 6, 58, 83
8, 28176, Note_on_c, 6, 70, 83
8, 28191, Note_on_c, 6, 70, 0
8, 28191, Note_on_c, 6, 58, 0
8, 28272, Note_on_c, 6, 58, 83
8, 28272, Note_on_c, 6, 70, 83
8, 28296, Note_on_c, 6, 70, 0
8, 28296, Note_on_c, 6, 53, 83
8, 28296, Note_on_c, 6, 65, 83
8, 28299, Note_on_c, 6, 58, 0
8, 28319, Note_on_c, 6, 53, 0
8, 28320, Note_on_c, 6, 56, 83
8, 28320, Note_on_c, 6, 68, 83
8, 28323, Note_on_c, 6, 65, 0
8, 28339, Note_on_c, 6, 56, 0
8, 28343, Note_on_c, 6, 68, 0
8, 28344, Note_on_c, 6, 58, 83
8, 28344, Note_on_c, 6, 70, 83
8, 28364, Note_on_c, 6, 70, 0
8, 28364, Note_on_c, 6, 58, 0
8, 28416, Note_on_c, 6, 68, 89
8, 28427, Note_on_c, 6, 68, 0
8, 28488, Note_on_c, 6, 68, 89
8, 28499, Note_on_c, 6, 68, 0
8, 28560, Note_on_c, 6, 68, 89
8, 28572, Note_on_c, 6, 68, 0
8, 28656, Note_on_c, 6, 68, 89
8, 28668, Note_on_c, 6, 68, 0
8, 28752, Note_on_c, 6, 68, 89
8, 28763, Note_on_c, 6, 68, 0
8, 28800, Note_on_c, 6, 70, 89
8, 28811, Note_on_c, 6, 70, 0
8, 28872, Note_on_c, 6, 70, 89
8, 28887, Note_on_c, 6, 70, 0
8, 28944, Note_on_c, 6, 70, 89
8, 28955, Note_on_c, 6, 70, 0
8, 29040, Note_on_c, 6, 70, 89
8, 29051, Note_on_c, 6, 70, 0
8, 29136, Note_on_c, 6, 70, 89
8, 29151, Note_on_c, 6, 70, 0
8, 29184, Note_on_c, 6, 68, 89
8, 29195, Note_on_c, 6, 68, 0
8, 29256, Note_on_c, 6, 68, 89
8, 29267, Note_on_c, 6, 68, 0
8, 29328, Note_on_c, 6, 68, 89
8, 29339, Note_on_c, 6, 68, 0
8, 29424, Note_on_c, 6, 68, 89
8, 29431, Note_on_c, 6, 68, 0
8, 29520, Note_on_c, 6, 68, 89
8, 29527, Note_on_c, 6, 68, 0
8, 29568, Note_on_c, 6, 60, 85
8, 29582, Note_on_c, 6, 60, 0
8, 29592, Note_on_c, 6, 61, 85
8, 29608, Note_on_c, 6, 61, 0
8, 29616, Note_on_c, 6, 63, 85
8, 29632, Note_on_c, 6, 63, 0
8, 29640, Note_on_c, 6, 65, 85
8, 29656, Note_on_c, 6, 65, 0
8, 29664, Note_on_c, 6, 63, 85
8, 29680, Note_on_c, 6, 63, 0
8, 29688, Note_on_c, 6, 65, 85
8, 29704, Note_on_c, 6, 65, 0
8, 29712, Note_on_c, 6, 67, 85
8, 29728, Note_on_c, 6, 67, 0
8, 29736, Note_on_c, 6, 68, 85
8, 29752, Note_on_c, 6, 68, 0
8, 29760, Note_on_c, 6, 67, 85
8, 29775, Note_on_c, 6, 67, 0
8, 29784, Note_on_c, 6, 68, 85
8, 29799, Note_on_c, 6, 68, 0
8, 29808, Note_on_c, 6, 70, 85
8, 29824, Note_on_c, 6, 70, 0
8, 29832, Note_on_c, 6, 72, 85
8, 29848, Note_on_c, 6, 72, 0
8, 29856, Note_on_c, 6, 70, 85
8, 29871, Note_on_c, 6, 70, 0
8, 29880, Note_on_c, 6, 72, 85
8, 29896, Note_on_c, 6, 72, 0
8, 29904, Note_on_c, 6, 73, 85
8, 29920, Note_on_c, 6, 73, 0
8, 29928, Note_on_c, 6, 75, 85
8, 29945, Note_on_c, 6, 75, 0
8, 29952, Note_on_c, 6, 77, 89
8, 30095, Note_on_c, 6, 77, 0
8, 30096, Note_on_c, 6, 73, 89
8, 30116, Note_on_c, 6, 73, 0
8, 30120, Note_on_c, 6, 70, 89
8, 30139, Note_on_c, 6, 70, 0
8, 30144, Note_on_c, 6, 73, 89
8, 30432, Note_on_c, 6, 75, 89
8, 30440, Note_on_c, 6, 73, 0
8, 30527, Note_on_c, 6, 75, 0
8, 30528, Note_on_c, 6, 77, 89
8, 30624, Note_on_c, 6, 77, 0
8, 30624, Note_on_c, 6, 78, 89
8, 30720, Note_on_c, 6, 80, 89
8, 30727, Note_on_c, 6, 78, 0
8, 31008, Note_on_c, 6, 82, 89
8, 31019, Note_on_c, 6, 80, 0
8, 31104, Note_on_c, 6, 73, 89
8, 31105, Note_on_c, 6, 82, 0
8, 31344, Note_on_c, 6, 75, 89
8, 31350, Note_on_c, 6, 73, 0
8, 31431, Note_on_c, 6, 75, 0
8, 31440, Note_on_c, 6, 77, 89
8, 31488, Note_on_c, 6, 73, 89
8, 31503, Note_on_c, 6, 77, 0
8, 31626, Note_on_c, 6, 73, 0
8, 31632, Note_on_c, 6, 70, 89
8, 31652, Note_on_c, 6, 70, 0
8, 31656, Note_on_c, 6, 68, 89
8, 31680, Note_on_c, 6, 70, 89
8, 31683, Note_on_c, 6, 68, 0
8, 31920, Note_on_c, 6, 80, 89
8, 31936, Note_on_c, 6, 70, 0
8, 32011, Note_on_c, 6, 80, 0
8, 32016, Note_on_c, 6, 82, 89
8, 32064, Note_on_c, 6, 80, 89
8, 32076, Note_on_c, 6, 82, 0
8, 32112, Note_on_c, 6, 78, 89
8, 32127, Note_on_c, 6, 80, 0
8, 32187, Note_on_c, 6, 78, 0
8, 32208, Note_on_c, 6, 77, 89
8, 32228, Note_on_c, 6, 77, 0
8, 32232, Note_on_c, 6, 78, 89
8, 32256, Note_on_c, 6, 77, 89
8, 32259, Note_on_c, 6, 78, 0
8, 32487, Note_on_c, 6, 77, 0
8, 32496, Note_on_c, 6, 73, 89
8, 32496, Note_on_c, 6, 77, 89
8, 32516, Note_on_c, 6, 73, 0
8, 32520, Note_on_c, 6, 72, 89
8, 32520, Note_on_c, 6, 75, 89
8, 32523, Note_on_c, 6, 77, 0
8, 32539, Note_on_c, 6, 72, 0
8, 32543, Note_on_c, 6, 75, 0
8, 32544, Note_on_c, 6, 73, 89
8, 32544, Note_on_c, 6, 77, 89
8, 32564, Note_on_c, 6, 73, 0
8, 32568, Note_on_c, 6, 77, 0
8, 32640, Note_on_c, 6, 70, 89
8, 32640, Note_on_c, 6, 73, 89
8, 32658, Note_on_c, 6, 70, 0
8, 32664, Note_on_c, 6, 68, 89
8, 32664, Note_on_c, 6, 72, 89
8, 32666, Note_on_c, 6, 73, 0
8, 32684, Note_on_c, 6, 68, 0
8, 32688, Note_on_c, 6, 72, 0
8, 32688, Note_on_c, 6, 70, 89
8, 32688, Note_on_c, 6, 73, 89
8, 32703, Note_on_c, 6, 73, 0
8, 32707, Note_on_c, 6, 70, 0
8, 32784, Note_on_c, 6, 66, 89
8, 32784, Note_on_c, 6, 70, 89
8, 32800, Note_on_c, 6, 70, 0
8, 32800, Note_on_c, 6, 66, 0
8, 32808, Note_on_c, 6, 65, 89
8, 32808, Note_on_c, 6, 68, 89
8, 32832, Note_on_c, 6, 66, 89
8, 32832, Note_on_c, 6, 70, 89
8, 32835, Note_on_c, 6, 65, 0
8, 32840, Note_on_c, 6, 68, 0
8, 32847, Note_on_c, 6, 70, 0
8, 32848, Note_on_c, 6, 66, 0
8, 32880, Note_on_c, 6, 68, 89
8, 32880, Note_on_c, 6, 72, 89
8, 32900, Note_on_c, 6, 72, 0
8, 32900, Note_on_c, 6, 68, 0
8, 32928, Note_on_c, 6, 70, 89
8, 32928, Note_on_c, 6, 73, 89
8, 32951, Note_on_c, 6, 70, 0
8, 32952, Note_on_c, 6, 73, 0
8, 33024, Note_on_c, 6, 65, 76
8, 33792, Note_on_c, 6, 67, 76
8, 33795, Note_on_c, 6, 65, 0
8, 34147, Note_on_c, 6, 67, 0
8, 34176, Note_on_c, 6, 48, 85
8, 34195, Note_on_c, 6, 48, 0
8, 34200, Note_on_c, 6, 50, 85
8, 34224, Note_on_c, 6, 53, 85
8, 34228, Note_on_c, 6, 50, 0
8, 34248, Note_on_c, 6, 48, 85
8, 34252, Note_on_c, 6, 53, 0
8, 34272, Note_on_c, 6, 48, 0
8, 34272, Note_on_c, 6, 50, 85
8, 34296, Note_on_c, 6, 53, 85
8, 34299, Note_on_c, 6, 50, 0
8, 34320, Note_on_c, 6, 48, 85
8, 34323, Note_on_c, 6, 53, 0
8, 34336, Note_on_c, 6, 48, 0
8, 34344, Note_on_c, 6, 50, 85
8, 34359, Note_on_c, 6, 50, 0
8, 34368, Note_on_c, 6, 55, 85
8, 34392, Note_on_c, 6, 48, 85
8, 34395, Note_on_c, 6, 55, 0
8, 34411, Note_on_c, 6, 48, 0
8, 34416, Note_on_c, 6, 50, 85
8, 34440, Note_on_c, 6, 55, 85
8, 34448, Note_on_c, 6, 50, 0
8, 34464, Note_on_c, 6, 48, 85
8, 34472, Note_on_c, 6, 55, 0
8, 34483, Note_on_c, 6, 48, 0
8, 34488, Note_on_c, 6, 50, 85
8, 34512, Note_on_c, 6, 53, 85
8, 34520, Note_on_c, 6, 50, 0
8, 34544, Note_on_c, 6, 53, 0
8, 48012, Control_c, 6, 120, 0
8, 48013, Control_c, 6, 123, 0
8, 48013, End_track
9, 0, Start_track
9, 0, MIDI_port, 0
9, 0, Title_t, ""
9, 89, Control_c, 9, 121, 0
9, 141, Control_c, 9, 0, 62
9, 142, Control_c, 9, 32, 0
9, 143, Program_c, 9, 0
9, 144, Control_c, 9, 7, 127
9, 144, Control_c, 9, 10, 64
9, 144, Control_c, 9, 11, 115
9, 145, Control_c, 9, 91, 80
9, 145, Control_c, 9, 93, 0
9, 192, Pitch_bend_c, 9, 9600
9, 767, Note_on_c, 9, 42, 77
9, 782, Note_on_c, 9, 42, 0
9, 791, Note_on_c, 9, 37, 127
9, 791, Note_on_c, 9, 42, 77
9, 807, Note_on_c, 9, 37, 0
9, 808, Note_on_c, 9, 42, 0
9, 815, Note_on_c, 9, 42, 77
9, 833, Note_on_c, 9, 42, 0
9, 839, Note_on_c, 9, 37, 127
9, 839, Note_on_c, 9, 42, 77
9, 853, Note_on_c, 9, 42, 0
9, 853, Note_on_c, 9, 37, 0
9, 863, Note_on_c, 9, 42, 77
9, 878, Note_on_c, 9, 42, 0
9, 887, Note_on_c, 9, 42, 77
9, 903, Note_on_c, 9, 42, 0
9, 911, Note_on_c, 9, 42, 77
9, 929, Note_on_c, 9, 42, 0
9, 935, Note_on_c, 9, 42, 77
9, 949, Note_on_c, 9, 42, 0
9, 959, Note_on_c, 9, 37, 127
9, 959, Note_on_c, 9, 42, 77
9, 974, Note_on_c, 9, 37, 0
9, 975, Note_on_c, 9, 42, 0
9, 983, Note_on_c, 9, 42, 77
9, 999, Note_on_c, 9, 42, 0
9, 1007, Note_on_c, 9, 42, 77
9, 1025, Note_on_c, 9, 42, 0
9, 1031, Note_on_c, 9, 37, 127
9, 1031, Note_on_c, 9, 42, 77
9, 1045, Note_on_c, 9, 42, 0
9, 1045, Note_on_c, 9, 37, 0
9, 1055, Note_on_c, 9, 42, 77
9, 1070, Note_on_c, 9, 42, 0
9, 1079, Note_on_c, 9, 42, 77
9, 1079, Note_on_c, 9, 46, 77
9, 1095, Note_on_c, 9, 42, 0
9, 1096, Note_on_c, 9, 46, 0
9, 1103, Note_on_c, 9, 46, 77
9, 1122, Note_on_c, 9, 46, 0
9, 1151, Note_on_c, 9, 42, 77
9, 1166, Note_on_c, 9, 42, 0
9, 1175, Note_on_c, 9, 37, 127
9, 1175, Note_on_c, 9, 42, 77
9, 1191, Note_on_c, 9, 37, 0
9, 1192, Note_on_c, 9, 42, 0
9, 1199, Note_on_c, 9, 42, 77
9, 1217, Note_on_c, 9, 42, 0
9, 1223, Note_on_c, 9, 37, 127
9, 1223, Note_on_c, 9, 42, 77
9, 1237, Note_on_c, 9, 42, 0
9, 1237, Note_on_c, 9, 37, 0
9, 1247, Note_on_c, 9, 42, 77
9, 1262, Note_on_c, 9, 42, 0
9, 1271, Note_on_c, 9, 42, 77
9, 1288, Note_on_c, 9, 42, 0
9, 1295, Note_on_c, 9, 42, 77
9, 1313, Note_on_c, 9, 42, 0
9, 1319, Note_on_c, 9, 42, 77
9, 1333, Note_on_c, 9, 42, 0
9, 1343, Note_on_c, 9, 37, 127
9, 1343, Note_on_c, 9, 42, 77
9, 1357, Note_on_c, 9, 37, 0
9, 1358, Note_on_c, 9, 42, 0
9, 1367, Note_on_c, 9, 42, 77
9, 1384, Note_on_c, 9, 42, 0
9, 1391, Note_on_c, 9, 46, 77
9, 1409, Note_on_c, 9, 46, 0
9, 1415, Note_on_c, 9, 37, 127
9, 1429, Note_on_c, 9, 37, 0
9, 1439, Note_on_c, 9, 42, 77
9, 1454, Note_on_c, 9, 42, 0
9, 1463, Note_on_c, 9, 42, 77
9, 1479, Note_on_c, 9, 42, 0
9, 1487, Note_on_c, 9, 46, 77
9, 1505, Note_on_c, 9, 46, 0
9, 1535, Note_on_c, 9, 42, 77
9, 1550, Note_on_c, 9, 42, 0
9, 1559, Note_on_c, 9, 37, 127
9, 1559, Note_on_c, 9, 42, 77
9, 1575, Note_on_c, 9, 37, 0
9, 1576, Note_on_c, 9, 42, 0
9, 1583, Note_on_c, 9, 42, 77
9, 1602, Note_on_c, 9, 42, 0
9, 1607, Note_on_c, 9, 37, 127
9, 1607, Note_on_c, 9, 42, 77
9, 1620, Note_on_c, 9, 37, 0
9, 1621, Note_on_c, 9, 42, 0
9, 1631, Note_on_c, 9, 42, 77
9, 1647, Note_on_c, 9, 42, 0
9, 1655, Note_on_c, 9, 42, 77
9, 1671, Note_on_c, 9, 42, 0
9, 1679, Note_on_c, 9, 42, 77
9, 1698, Note_on_c, 9, 42, 0
9, 1703, Note_on_c, 9, 42, 77
9, 1717, Note_on_c, 9, 42, 0
9, 1727, Note_on_c, 9, 37, 127
9, 1727, Note_on_c, 9, 42, 77
9, 1742, Note_on_c, 9, 42, 0
9, 1742, Note_on_c, 9, 37, 0
9, 1751, Note_on_c, 9, 42, 77
9, 1768, Note_on_c, 9, 42, 0
9, 1775, Note_on_c, 9, 42, 77
9, 1793, Note_on_c, 9, 42, 0
9, 1799, Note_on_c, 9, 37, 127
9, 1799, Note_on_c, 9, 42, 77
9, 1812, Note_on_c, 9, 37, 0
9, 1813, Note_on_c, 9, 42, 0
9, 1823, Note_on_c, 9, 42, 77
9, 1838, Note_on_c, 9, 42, 0
9, 1847, Note_on_c, 9, 42, 77
9, 1847, Note_on_c, 9, 46, 77
9, 1863, Note_on_c, 9, 42, 0
9, 1864, Note_on_c, 9, 46, 0
9, 1871, Note_on_c, 9, 46, 77
9, 1890, Note_on_c, 9, 46, 0
9, 1919, Note_on_c, 9, 42, 77
9, 1934, Note_on_c, 9, 42, 0
9, 1943, Note_on_c, 9, 37, 127
9, 1943, Note_on_c, 9, 42, 77
9, 1960, Note_on_c, 9, 37, 0
9, 1961, Note_on_c, 9, 42, 0
9, 1967, Note_on_c, 9, 42, 77
9, 1985, Note_on_c, 9, 42, 0
9, 1991, Note_on_c, 9, 37, 127
9, 1991, Note_on_c, 9, 42, 77
9, 2004, Note_on_c, 9, 42, 0
9, 2004, Note_on_c, 9, 37, 0
9, 2015, Note_on_c, 9, 42, 77
9, 2031, Note_on_c, 9, 42, 0
9, 2039, Note_on_c, 9, 42, 77
9, 2056, Note_on_c, 9, 42, 0
9, 2063, Note_on_c, 9, 42, 77
9, 2082, Note_on_c, 9, 42, 0
9, 2087, Note_on_c, 9, 42, 77
9, 2101, Note_on_c, 9, 42, 0
9, 2111, Note_on_c, 9, 37, 127
9, 2111, Note_on_c, 9, 42, 77
9, 2125, Note_on_c, 9, 37, 0
9, 2126, Note_on_c, 9, 42, 0
9, 2135, Note_on_c, 9, 42, 77
9, 2152, Note_on_c, 9, 42, 0
9, 2159, Note_on_c, 9, 46, 77
9, 2177, Note_on_c, 9, 46, 0
9, 2183, Note_on_c, 9, 37, 127
9, 2196, Note_on_c, 9, 37, 0
9, 2207, Note_on_c, 9, 42, 77
9, 2222, Note_on_c, 9, 42, 0
9, 2231, Note_on_c, 9, 42, 77
9, 2247, Note_on_c, 9, 42, 0
9, 2255, Note_on_c, 9, 46, 77
9, 2274, Note_on_c, 9, 46, 0
9, 2303, Note_on_c, 9, 42, 77
9, 2317, Note_on_c, 9, 42, 0
9, 2327, Note_on_c, 9, 37, 127
9, 2327, Note_on_c, 9, 42, 77
9, 2344, Note_on_c, 9, 42, 0
9, 2344, Note_on_c, 9, 37, 0
9, 2351, Note_on_c, 9, 42, 77
9, 2369, Note_on_c, 9, 42, 0
9, 2375, Note_on_c, 9, 37, 127
9, 2375, Note_on_c, 9, 42, 77
9, 2388, Note_on_c, 9, 42, 0
9, 2388, Note_on_c, 9, 37, 0
9, 2399, Note_on_c, 9, 42, 77
9, 2415, Note_on_c, 9, 42, 0
9, 2423, Note_on_c, 9, 42, 77
9, 2439, Note_on_c, 9, 42, 0
9, 2447, Note_on_c, 9, 42, 77
9, 2466, Note_on_c, 9, 42, 0
9, 2471, Note_on_c, 9, 42, 77
9, 2485, Note_on_c, 9, 42, 0
9, 2495, Note_on_c, 9, 37, 127
9, 2495, Note_on_c, 9, 42, 77
9, 2510, Note_on_c, 9, 42, 0
9, 2510, Note_on_c, 9, 37, 0
9, 2519, Note_on_c, 9, 42, 77
9, 2536, Note_on_c, 9, 42, 0
9, 2543, Note_on_c, 9, 42, 77
9, 2561, Note_on_c, 9, 42, 0
9, 2567, Note_on_c, 9, 37, 127
9, 2567, Note_on_c, 9, 42, 77
9, 2581, Note_on_c, 9, 42, 0
9, 2581, Note_on_c, 9, 37, 0
9, 2591, Note_on_c, 9, 42, 77
9, 2607, Note_on_c, 9, 42, 0
9, 2615, Note_on_c, 9, 42, 77
9, 2615, Note_on_c, 9, 46, 77
9, 2632, Note_on_c, 9, 46, 0
9, 2632, Note_on_c, 9, 42, 0
9, 2639, Note_on_c, 9, 46, 77
9, 2657, Note_on_c, 9, 46, 0
9, 2687, Note_on_c, 9, 42, 77
9, 2702, Note_on_c, 9, 42, 0
9, 2711, Note_on_c, 9, 37, 127
9, 2711, Note_on_c, 9, 42, 77
9, 2728, Note_on_c, 9, 37, 0
9, 2729, Note_on_c, 9, 42, 0
9, 2735, Note_on_c, 9, 42, 77
9, 2753, Note_on_c, 9, 42, 0
9, 2759, Note_on_c, 9, 37, 127
9, 2759, Note_on_c, 9, 42, 77
9, 2772, Note_on_c, 9, 37, 0
9, 2773, Note_on_c, 9, 42, 0
9, 2783, Note_on_c, 9, 42, 77
9, 2798, Note_on_c, 9, 42, 0
9, 2807, Note_on_c, 9, 42, 77
9, 2824, Note_on_c, 9, 42, 0
9, 2831, Note_on_c, 9, 42, 77
9, 2849, Note_on_c, 9, 42, 0
9, 2855, Note_on_c, 9, 42, 77
9, 2869, Note_on_c, 9, 42, 0
9, 2879, Note_on_c, 9, 37, 127
9, 2879, Note_on_c, 9, 42, 77
9, 2893, Note_on_c, 9, 42, 0
9, 2893, Note_on_c, 9, 37, 0
9, 2903, Note_on_c, 9, 42, 77
9, 2920, Note_on_c, 9, 42, 0
9, 2927, Note_on_c, 9, 46, 77
9, 2945, Note_on_c, 9, 46, 0
9, 2951, Note_on_c, 9, 37, 127
9, 2964, Note_on_c, 9, 37, 0
9, 2975, Note_on_c, 9, 42, 77
9, 2991, Note_on_c, 9, 42, 0
9, 2999, Note_on_c, 9, 42, 77
9, 3015, Note_on_c, 9, 42, 0
9, 3023, Note_on_c, 9, 46, 77
9, 3041, Note_on_c, 9, 46, 0
9, 3071, Note_on_c, 9, 42, 77
9, 3071, Note_on_c, 9, 36, 127
9, 3085, Note_on_c, 9, 36, 0
9, 3085, Note_on_c, 9, 42, 0
9, 3095, Note_on_c, 9, 37, 127
9, 3095, Note_on_c, 9, 42, 77
9, 3112, Note_on_c, 9, 42, 0
9, 3112, Note_on_c, 9, 37, 0
9, 3119, Note_on_c, 9, 42, 77
9, 3137, Note_on_c, 9, 42, 0
9, 3143, Note_on_c, 9, 37, 127
9, 3143, Note_on_c, 9, 42, 77
9, 3143, Note_on_c, 9, 36, 127
9, 3156, Note_on_c, 9, 36, 0
9, 3157, Note_on_c, 9, 42, 0
9, 3157, Note_on_c, 9, 37, 0
9, 3167, Note_on_c, 9, 39, 127
9, 3167, Note_on_c, 9, 42, 77
9, 3182, Note_on_c, 9, 42, 0
9, 3183, Note_on_c, 9, 39, 0
9, 3191, Note_on_c, 9, 42, 77
9, 3207, Note_on_c, 9, 42, 0
9, 3215, Note_on_c, 9, 42, 77
9, 3215, Note_on_c, 9, 36, 127
9, 3233, Note_on_c, 9, 36, 0
9, 3233, Note_on_c, 9, 42, 0
9, 3239, Note_on_c, 9, 42, 77
9, 3253, Note_on_c, 9, 42, 0
9, 3263, Note_on_c, 9, 37, 127
9, 3263, Note_on_c, 9, 42, 77
9, 3278, Note_on_c, 9, 42, 0
9, 3278, Note_on_c, 9, 37, 0
9, 3287, Note_on_c, 9, 42, 77
9, 3304, Note_on_c, 9, 42, 0
9, 3311, Note_on_c, 9, 42, 77
9, 3311, Note_on_c, 9, 36, 127
9, 3329, Note_on_c, 9, 36, 0
9, 3329, Note_on_c, 9, 42, 0
9, 3335, Note_on_c, 9, 37, 127
9, 3335, Note_on_c, 9, 42, 77
9, 3349, Note_on_c, 9, 42, 0
9, 3349, Note_on_c, 9, 37, 0
9, 3359, Note_on_c, 9, 39, 127
9, 3359, Note_on_c, 9, 42, 77
9, 3374, Note_on_c, 9, 42, 0
9, 3374, Note_on_c, 9, 39, 0
9, 3383, Note_on_c, 9, 42, 77
9, 3383, Note_on_c, 9, 46, 77
9, 3399, Note_on_c, 9, 42, 0
9, 3400, Note_on_c, 9, 46, 0
9, 3407, Note_on_c, 9, 46, 77
9, 3425, Note_on_c, 9, 46, 0
9, 3455, Note_on_c, 9, 42, 77
9, 3455, Note_on_c, 9, 36, 127
9, 3469, Note_on_c, 9, 36, 0
9, 3469, Note_on_c, 9, 42, 0
9, 3479, Note_on_c, 9, 37, 127
9, 3479, Note_on_c, 9, 42, 77
9, 3496, Note_on_c, 9, 42, 0
9, 3496, Note_on_c, 9, 37, 0
9, 3503, Note_on_c, 9, 42, 77
9, 3522, Note_on_c, 9, 42, 0
9, 3527, Note_on_c, 9, 37, 127
9, 3527, Note_on_c, 9, 42, 77
9, 3527, Note_on_c, 9, 36, 127
9, 3541, Note_on_c, 9, 36, 0
9, 3541, Note_on_c, 9, 42, 0
9, 3541, Note_on_c, 9, 37, 0
9, 3551, Note_on_c, 9, 39, 127
9, 3551, Note_on_c, 9, 42, 77
9, 3566, Note_on_c, 9, 42, 0
9, 3566, Note_on_c, 9, 39, 0
9, 3575, Note_on_c, 9, 42, 77
9, 3592, Note_on_c, 9, 42, 0
9, 3599, Note_on_c, 9, 42, 77
9, 3599, Note_on_c, 9, 36, 127
9, 3617, Note_on_c, 9, 36, 0
9, 3617, Note_on_c, 9, 42, 0
9, 3623, Note_on_c, 9, 42, 77
9, 3637, Note_on_c, 9, 42, 0
9, 3647, Note_on_c, 9, 42, 77
9, 3661, Note_on_c, 9, 42, 0
9, 3671, Note_on_c, 9, 42, 77
9, 3687, Note_on_c, 9, 42, 0
9, 3695, Note_on_c, 9, 38, 127
9, 3695, Note_on_c, 9, 46, 77
9, 3713, Note_on_c, 9, 46, 0
9, 3713, Note_on_c, 9, 38, 0
9, 3719, Note_on_c, 9, 36, 127
9, 3733, Note_on_c, 9, 36, 0
9, 3743, Note_on_c, 9, 38, 127
9, 3743, Note_on_c, 9, 39, 127
9, 3758, Note_on_c, 9, 39, 0
9, 3759, Note_on_c, 9, 38, 0
9, 3767, Note_on_c, 9, 42, 77
9, 3783, Note_on_c, 9, 42, 0
9, 3791, Note_on_c, 9, 38, 127
9, 3791, Note_on_c, 9, 46, 77
9, 3791, Note_on_c, 9, 36, 127
9, 3809, Note_on_c, 9, 36, 0
9, 3809, Note_on_c, 9, 46, 0
9, 3809, Note_on_c, 9, 38, 0
9, 3815, Note_on_c, 9, 38, 127
9, 3828, Note_on_c, 9, 38, 0
9, 3839, Note_on_c, 9, 42, 77
9, 3839, Note_on_c, 9, 36, 127
9, 3854, Note_on_c, 9, 36, 0
9, 3854, Note_on_c, 9, 42, 0
9, 3863, Note_on_c, 9, 37, 127
9, 3863, Note_on_c, 9, 42, 77
9, 3881, Note_on_c, 9, 37, 0
9, 3882, Note_on_c, 9, 42, 0
9, 3887, Note_on_c, 9, 42, 77
9, 3901, Note_on_c, 9, 42, 0
9, 3911, Note_on_c, 9, 37, 127
9, 3911, Note_on_c, 9, 42, 77
9, 3911, Note_on_c, 9, 36, 127
9, 3925, Note_on_c, 9, 36, 0
9, 3925, Note_on_c, 9, 42, 0
9, 3925, Note_on_c, 9, 37, 0
9, 3935, Note_on_c, 9, 38, 127
9, 3935, Note_on_c, 9, 42, 77
9, 3951, Note_on_c, 9, 42, 0
9, 3952, Note_on_c, 9, 38, 0
9, 3959, Note_on_c, 9, 42, 77
9, 3977, Note_on_c, 9, 42, 0
9, 3983, Note_on_c, 9, 42, 77
9, 3983, Note_on_c, 9, 36, 127
9, 3997, Note_on_c, 9, 36, 0
9, 3997, Note_on_c, 9, 42, 0
9, 4007, Note_on_c, 9, 42, 77
9, 4022, Note_on_c, 9, 42, 0
9, 4031, Note_on_c, 9, 37, 127
9, 4031, Note_on_c, 9, 42, 77
9, 4047, Note_on_c, 9, 42, 0
9, 4047, Note_on_c, 9, 37, 0
9, 4055, Note_on_c, 9, 38, 127
9, 4055, Note_on_c, 9, 42, 77
9, 4073, Note_on_c, 9, 42, 0
9, 4073, Note_on_c, 9, 38, 0
9, 4079, Note_on_c, 9, 42, 77
9, 4079, Note_on_c, 9, 36, 127
9, 4092, Note_on_c, 9, 36, 0
9, 4092, Note_on_c, 9, 42, 0
9, 4103, Note_on_c, 9, 37, 127
9, 4103, Note_on_c, 9, 42, 77
9, 4118, Note_on_c, 9, 42, 0
9, 4118, Note_on_c, 9, 37, 0
9, 4127, Note_on_c, 9, 38, 127
9, 4127, Note_on_c, 9, 42, 77
9, 4143, Note_on_c, 9, 42, 0
9, 4143, Note_on_c, 9, 38, 0
9, 4151, Note_on_c, 9, 42, 77
9, 4151, Note_on_c, 9, 46, 77
9, 4169, Note_on_c, 9, 46, 0
9, 4169, Note_on_c, 9, 42, 0
9, 4175, Note_on_c, 9, 46, 77
9, 4189, Note_on_c, 9, 46, 0
9, 4223, Note_on_c, 9, 42, 77
9, 4223, Note_on_c, 9, 36, 127
9, 4239, Note_on_c, 9, 36, 0
9, 4239, Note_on_c, 9, 42, 0
9, 4247, Note_on_c, 9, 37, 127
9, 4247, Note_on_c, 9, 42, 77
9, 4265, Note_on_c, 9, 42, 0
9, 4265, Note_on_c, 9, 37, 0
9, 4271, Note_on_c, 9, 42, 77
9, 4285, Note_on_c, 9, 42, 0
9, 4295, Note_on_c, 9, 37, 127
9, 4295, Note_on_c, 9, 42, 77
9, 4295, Note_on_c, 9, 36, 127
9, 4309, Note_on_c, 9, 37, 0
9, 4310, Note_on_c, 9, 36, 0
9, 4310, Note_on_c, 9, 42, 0
9, 4319, Note_on_c, 9, 38, 127
9, 4319, Note_on_c, 9, 42, 77
9, 4336, Note_on_c, 9, 42, 0
9, 4336, Note_on_c, 9, 38, 0
9, 4343, Note_on_c, 9, 42, 77
9, 4361, Note_on_c, 9, 42, 0
9, 4367, Note_on_c, 9, 42, 77
9, 4367, Note_on_c, 9, 36, 127
9, 4380, Note_on_c, 9, 36, 0
9, 4380, Note_on_c, 9, 42, 0
9, 4391, Note_on_c, 9, 42, 77
9, 4406, Note_on_c, 9, 42, 0
9, 4415, Note_on_c, 9, 37, 127
9, 4415, Note_on_c, 9, 42, 77
9, 4431, Note_on_c, 9, 42, 0
9, 4431, Note_on_c, 9, 37, 0
9, 4439, Note_on_c, 9, 38, 127
9, 4439, Note_on_c, 9, 42, 77
9, 4450, Note_on_c, 9, 42, 0
9, 4457, Note_on_c, 9, 38, 0
9, 4463, Note_on_c, 9, 46, 77
9, 4463, Note_on_c, 9, 36, 127
9, 4476, Note_on_c, 9, 36, 0
9, 4476, Note_on_c, 9, 46, 0
9, 4487, Note_on_c, 9, 37, 127
9, 4502, Note_on_c, 9, 37, 0
9, 4511, Note_on_c, 9, 38, 127
9, 4511, Note_on_c, 9, 42, 77
9, 4527, Note_on_c, 9, 42, 0
9, 4527, Note_on_c, 9, 38, 0
9, 4535, Note_on_c, 9, 42, 77
9, 4553, Note_on_c, 9, 42, 0
9, 4559, Note_on_c, 9, 46, 77
9, 4573, Note_on_c, 9, 46, 0
9, 4583, Note_on_c, 9, 38, 127
9, 4599, Note_on_c, 9, 38, 0
9, 4607, Note_on_c, 9, 42, 77
9, 4607, Note_on_c, 9, 36, 127
9, 4622, Note_on_c, 9, 36, 0
9, 4622, Note_on_c, 9, 42, 0
9, 4631, Note_on_c, 9, 37, 127
9, 4631, Note_on_c, 9, 42, 77
9, 4649, Note_on_c, 9, 42, 0
9, 4649, Note_on_c, 9, 37, 0
9, 4655, Note_on_c, 9, 42, 77
9, 4669, Note_on_c, 9, 42, 0
9, 4679, Note_on_c, 9, 37, 127
9, 4679, Note_on_c, 9, 42, 77
9, 4679, Note_on_c, 9, 36, 127
9, 4693, Note_on_c, 9, 36, 0
9, 4694, Note_on_c, 9, 42, 0
9, 4694, Note_on_c, 9, 37, 0
9, 4703, Note_on_c, 9, 38, 127
9, 4703, Note_on_c, 9, 42, 77
9, 4719, Note_on_c, 9, 42, 0
9, 4719, Note_on_c, 9, 38, 0
9, 4727, Note_on_c, 9, 42, 77
9, 4746, Note_on_c, 9, 42, 0
9, 4751, Note_on_c, 9, 42, 77
9, 4751, Note_on_c, 9, 36, 127
9, 4765, Note_on_c, 9, 36, 0
9, 4765, Note_on_c, 9, 42, 0
9, 4775, Note_on_c, 9, 42, 77
9, 4790, Note_on_c, 9, 42, 0
9, 4799, Note_on_c, 9, 37, 127
9, 4799, Note_on_c, 9, 42, 77
9, 4815, Note_on_c, 9, 37, 0
9, 4816, Note_on_c, 9, 42, 0
9, 4823, Note_on_c, 9, 38, 127
9, 4823, Note_on_c, 9, 42, 77
9, 4841, Note_on_c, 9, 42, 0
9, 4841, Note_on_c, 9, 38, 0
9, 4847, Note_on_c, 9, 42, 77
9, 4847, Note_on_c, 9, 36, 127
9, 4860, Note_on_c, 9, 36, 0
9, 4860, Note_on_c, 9, 42, 0
9, 4871, Note_on_c, 9, 37, 127
9, 4871, Note_on_c, 9, 42, 77
9, 4886, Note_on_c, 9, 37, 0
9, 4887, Note_on_c, 9, 42, 0
9, 4895, Note_on_c, 9, 38, 127
9, 4895, Note_on_c, 9, 42, 77
9, 4911, Note_on_c, 9, 42, 0
9, 4911, Note_on_c, 9, 38, 0
9, 4919, Note_on_c, 9, 42, 77
9, 4919, Note_on_c, 9, 46, 77
9, 4937, Note_on_c, 9, 46, 0
9, 4938, Note_on_c, 9, 42, 0
9, 4943, Note_on_c, 9, 46, 77
9, 4957, Note_on_c, 9, 46, 0
9, 4991, Note_on_c, 9, 42, 77
9, 4991, Note_on_c, 9, 36, 127
9, 5007, Note_on_c, 9, 36, 0
9, 5008, Note_on_c, 9, 42, 0
9, 5015, Note_on_c, 9, 37, 127
9, 5015, Note_on_c, 9, 42, 77
9, 5033, Note_on_c, 9, 42, 0
9, 5033, Note_on_c, 9, 37, 0
9, 5039, Note_on_c, 9, 42, 77
9, 5052, Note_on_c, 9, 42, 0
9, 5063, Note_on_c, 9, 37, 127
9, 5063, Note_on_c, 9, 42, 77
9, 5063, Note_on_c, 9, 36, 127
9, 5077, Note_on_c, 9, 36, 0
9, 5077, Note_on_c, 9, 37, 0
9, 5078, Note_on_c, 9, 42, 0
9, 5087, Note_on_c, 9, 38, 127
9, 5087, Note_on_c, 9, 42, 77
9, 5103, Note_on_c, 9, 42, 0
9, 5103, Note_on_c, 9, 38, 0
9, 5111, Note_on_c, 9, 42, 77
9, 5130, Note_on_c, 9, 42, 0
9, 5135, Note_on_c, 9, 42, 77
9, 5135, Note_on_c, 9, 36, 127
9, 5148, Note_on_c, 9, 36, 0
9, 5148, Note_on_c, 9, 42, 0
9, 5159, Note_on_c, 9, 42, 77
9, 5174, Note_on_c, 9, 42, 0
9, 5183, Note_on_c, 9, 37, 127
9, 5183, Note_on_c, 9, 42, 77
9, 5199, Note_on_c, 9, 42, 0
9, 5199, Note_on_c, 9, 37, 0
9, 5207, Note_on_c, 9, 38, 127
9, 5207, Note_on_c, 9, 42, 77
9, 5225, Note_on_c, 9, 42, 0
9, 5225, Note_on_c, 9, 38, 0
9, 5231, Note_on_c, 9, 46, 77
9, 5231, Note_on_c, 9, 36, 127
9, 5244, Note_on_c, 9, 36, 0
9, 5245, Note_on_c, 9, 46, 0
9, 5255, Note_on_c, 9, 37, 127
9, 5270, Note_on_c, 9, 37, 0
9, 5279, Note_on_c, 9, 38, 127
9, 5279, Note_on_c, 9, 42, 77
9, 5295, Note_on_c, 9, 42, 0
9, 5295, Note_on_c, 9, 38, 0
9, 5303, Note_on_c, 9, 42, 77
9, 5321, Note_on_c, 9, 42, 0
9, 5327, Note_on_c, 9, 46, 77
9, 5340, Note_on_c, 9, 46, 0
9, 5351, Note_on_c, 9, 38, 127
9, 5366, Note_on_c, 9, 38, 0
9, 5375, Note_on_c, 9, 42, 77
9, 5375, Note_on_c, 9, 36, 127
9, 5391, Note_on_c, 9, 36, 0
9, 5391, Note_on_c, 9, 42, 0
9, 5399, Note_on_c, 9, 37, 127
9, 5399, Note_on_c, 9, 42, 77
9, 5417, Note_on_c, 9, 42, 0
9, 5417, Note_on_c, 9, 37, 0
9, 5423, Note_on_c, 9, 42, 77
9, 5436, Note_on_c, 9, 42, 0
9, 5447, Note_on_c, 9, 37, 127
9, 5447, Note_on_c, 9, 42, 77
9, 5447, Note_on_c, 9, 36, 127
9, 5462, Note_on_c, 9, 36, 0
9, 5462, Note_on_c, 9, 42, 0
9, 5462, Note_on_c, 9, 37, 0
9, 5471, Note_on_c, 9, 38, 127
9, 5471, Note_on_c, 9, 42, 77
9, 5487, Note_on_c, 9, 42, 0
9, 5487, Note_on_c, 9, 38, 0
9, 5495, Note_on_c, 9, 42, 77
9, 5513, Note_on_c, 9, 42, 0
9, 5519, Note_on_c, 9, 42, 77
9, 5519, Note_on_c, 9, 36, 127
9, 5533, Note_on_c, 9, 36, 0
9, 5533, Note_on_c, 9, 42, 0
9, 5543, Note_on_c, 9, 42, 77
9, 5558, Note_on_c, 9, 42, 0
9, 5567, Note_on_c, 9, 37, 127
9, 5567, Note_on_c, 9, 42, 77
9, 5583, Note_on_c, 9, 37, 0
9, 5584, Note_on_c, 9, 42, 0
9, 5591, Note_on_c, 9, 38, 127
9, 5591, Note_on_c, 9, 42, 77
9, 5609, Note_on_c, 9, 42, 0
9, 5609, Note_on_c, 9, 38, 0
9, 5615, Note_on_c, 9, 42, 77
9, 5615, Note_on_c, 9, 36, 127
9, 5628, Note_on_c, 9, 36, 0
9, 5628, Note_on_c, 9, 42, 0
9, 5639, Note_on_c, 9, 37, 127
9, 5639, Note_on_c, 9, 42, 77
9, 5655, Note_on_c, 9, 42, 0
9, 5655, Note_on_c, 9, 37, 0
9, 5663, Note_on_c, 9, 38, 127
9, 5663, Note_on_c, 9, 42, 77
9, 5679, Note_on_c, 9, 42, 0
9, 5679, Note_on_c, 9, 38, 0
9, 5687, Note_on_c, 9, 42, 77
9, 5687, Note_on_c, 9, 46, 77
9, 5705, Note_on_c, 9, 42, 0
9, 5706, Note_on_c, 9, 46, 0
9, 5711, Note_on_c, 9, 46, 77
9, 5724, Note_on_c, 9, 46, 0
9, 5759, Note_on_c, 9, 42, 77
9, 5759, Note_on_c, 9, 36, 127
9, 5775, Note_on_c, 9, 36, 0
9, 5775, Note_on_c, 9, 42, 0
9, 5783, Note_on_c, 9, 37, 127
9, 5783, Note_on_c, 9, 42, 77
9, 5801, Note_on_c, 9, 42, 0
9, 5801, Note_on_c, 9, 37, 0
9, 5807, Note_on_c, 9, 42, 77
9, 5820, Note_on_c, 9, 42, 0
9, 5831, Note_on_c, 9, 37, 127
9, 5831, Note_on_c, 9, 42, 77
9, 5831, Note_on_c, 9, 36, 127
9, 5846, Note_on_c, 9, 36, 0
9, 5846, Note_on_c, 9, 42, 0
9, 5846, Note_on_c, 9, 37, 0
9, 5855, Note_on_c, 9, 38, 127
9, 5855, Note_on_c, 9, 42, 77
9, 5871, Note_on_c, 9, 42, 0
9, 5872, Note_on_c, 9, 38, 0
9, 5879, Note_on_c, 9, 42, 77
9, 5890, Note_on_c, 9, 42, 0
9, 5903, Note_on_c, 9, 42, 77
9, 5903, Note_on_c, 9, 36, 127
9, 5917, Note_on_c, 9, 36, 0
9, 5917, Note_on_c, 9, 42, 0
9, 5927, Note_on_c, 9, 42, 77
9, 5941, Note_on_c, 9, 42, 0
9, 5951, Note_on_c, 9, 37, 127
9, 5951, Note_on_c, 9, 42, 77
9, 5967, Note_on_c, 9, 37, 0
9, 5968, Note_on_c, 9, 42, 0
9, 5975, Note_on_c, 9, 38, 127
9, 5975, Note_on_c, 9, 42, 77
9, 5993, Note_on_c, 9, 42, 0
9, 5993, Note_on_c, 9, 38, 0
9, 5999, Note_on_c, 9, 46, 77
9, 5999, Note_on_c, 9, 36, 127
9, 6012, Note_on_c, 9, 36, 0
9, 6013, Note_on_c, 9, 46, 0
9, 6023, Note_on_c, 9, 37, 127
9, 6039, Note_on_c, 9, 37, 0
9, 6047, Note_on_c, 9, 38, 127
9, 6047, Note_on_c, 9, 42, 77
9, 6063, Note_on_c, 9, 42, 0
9, 6063, Note_on_c, 9, 38, 0
9, 6071, Note_on_c, 9, 42, 77
9, 6089, Note_on_c, 9, 42, 0
9, 6095, Note_on_c, 9, 46, 77
9, 6108, Note_on_c, 9, 46, 0
9, 6119, Note_on_c, 9, 38, 127
9, 6134, Note_on_c, 9, 38, 0
9, 6143, Note_on_c, 9, 42, 77
9, 6143, Note_on_c, 9, 36, 127
9, 6159, Note_on_c, 9, 36, 0
9, 6159, Note_on_c, 9, 42, 0
9, 6167, Note_on_c, 9, 37, 127
9, 6167, Note_on_c, 9, 42, 77
9, 6185, Note_on_c, 9, 37, 0
9, 6186, Note_on_c, 9, 42, 0
9, 6191, Note_on_c, 9, 42, 77
9, 6205, Note_on_c, 9, 42, 0
9, 6215, Note_on_c, 9, 37, 127
9, 6215, Note_on_c, 9, 42, 77
9, 6215, Note_on_c, 9, 36, 127
9, 6230, Note_on_c, 9, 42, 0
9, 6230, Note_on_c, 9, 37, 0
9, 6231, Note_on_c, 9, 36, 0
9, 6239, Note_on_c, 9, 38, 127
9, 6239, Note_on_c, 9, 42, 77
9, 6255, Note_on_c, 9, 42, 0
9, 6255, Note_on_c, 9, 38, 0
9, 6263, Note_on_c, 9, 42, 77
9, 6281, Note_on_c, 9, 42, 0
9, 6287, Note_on_c, 9, 42, 77
9, 6287, Note_on_c, 9, 36, 127
9, 6301, Note_on_c, 9, 36, 0
9, 6301, Note_on_c, 9, 42, 0
9, 6311, Note_on_c, 9, 42, 77
9, 6326, Note_on_c, 9, 42, 0
9, 6335, Note_on_c, 9, 37, 127
9, 6335, Note_on_c, 9, 42, 77
9, 6352, Note_on_c, 9, 42, 0
9, 6352, Note_on_c, 9, 37, 0
9, 6359, Note_on_c, 9, 38, 127
9, 6359, Note_on_c, 9, 42, 77
9, 6377, Note_on_c, 9, 42, 0
9, 6377, Note_on_c, 9, 38, 0
9, 6383, Note_on_c, 9, 42, 77
9, 6383, Note_on_c, 9, 36, 127
9, 6397, Note_on_c, 9, 36, 0
9, 6397, Note_on_c, 9, 42, 0
9, 6407, Note_on_c, 9, 37, 127
9, 6407, Note_on_c, 9, 42, 77
9, 6423, Note_on_c, 9, 42, 0
9, 6423, Note_on_c, 9, 37, 0
9, 6431, Note_on_c, 9, 38, 127
9, 6431, Note_on_c, 9, 42, 77
9, 6447, Note_on_c, 9, 42, 0
9, 6447, Note_on_c, 9, 38, 0
9, 6455, Note_on_c, 9, 42, 77
9, 6455, Note_on_c, 9, 46, 77
9, 6473, Note_on_c, 9, 46, 0
9, 6473, Note_on_c, 9, 42, 0
9, 6479, Note_on_c, 9, 46, 77
9, 6492, Note_on_c, 9, 46, 0
9, 6527, Note_on_c, 9, 42, 77
9, 6527, Note_on_c, 9, 36, 127
9, 6543, Note_on_c, 9, 36, 0
9, 6543, Note_on_c, 9, 42, 0
9, 6551, Note_on_c, 9, 37, 127
9, 6551, Note_on_c, 9, 42, 77
9, 6569, Note_on_c, 9, 37, 0
9, 6570, Note_on_c, 9, 42, 0
9, 6575, Note_on_c, 9, 42, 77
9, 6589, Note_on_c, 9, 42, 0
9, 6599, Note_on_c, 9, 37, 127
9, 6599, Note_on_c, 9, 42, 77
9, 6599, Note_on_c, 9, 36, 127
9, 6614, Note_on_c, 9, 36, 0
9, 6614, Note_on_c, 9, 37, 0
9, 6615, Note_on_c, 9, 42, 0
9, 6623, Note_on_c, 9, 38, 127
9, 6623, Note_on_c, 9, 42, 77
9, 6639, Note_on_c, 9, 42, 0
9, 6639, Note_on_c, 9, 38, 0
9, 6647, Note_on_c, 9, 42, 77
9, 6665, Note_on_c, 9, 42, 0
9, 6671, Note_on_c, 9, 42, 77
9, 6671, Note_on_c, 9, 36, 127
9, 6684, Note_on_c, 9, 42, 0
9, 6685, Note_on_c, 9, 36, 0
9, 6695, Note_on_c, 9, 38, 127
9, 6695, Note_on_c, 9, 42, 77
9, 6710, Note_on_c, 9, 42, 0
9, 6710, Note_on_c, 9, 38, 0
9, 6719, Note_on_c, 9, 42, 77
9, 6719, Note_on_c, 9, 36, 127
9, 6735, Note_on_c, 9, 36, 0
9, 6735, Note_on_c, 9, 42, 0
9, 6743, Note_on_c, 9, 38, 127
9, 6743, Note_on_c, 9, 42, 77
9, 6761, Note_on_c, 9, 42, 0
9, 6761, Note_on_c, 9, 38, 0
9, 6767, Note_on_c, 9, 46, 77
9, 6767, Note_on_c, 9, 36, 127
9, 6781, Note_on_c, 9, 36, 0
9, 6781, Note_on_c, 9, 46, 0
9, 6815, Note_on_c, 9, 38, 127
9, 6815, Note_on_c, 9, 42, 77
9, 6831, Note_on_c, 9, 38, 0
9, 6832, Note_on_c, 9, 42, 0
9, 6839, Note_on_c, 9, 42, 77
9, 6857, Note_on_c, 9, 42, 0
9, 6863, Note_on_c, 9, 38, 127
9, 6863, Note_on_c, 9, 46, 77
9, 6876, Note_on_c, 9, 46, 0
9, 6877, Note_on_c, 9, 38, 0
9, 6887, Note_on_c, 9, 38, 127
9, 6902, Note_on_c, 9, 38, 0
9, 6911, Note_on_c, 9, 42, 77
9, 6911, Note_on_c, 9, 36, 127
9, 6927, Note_on_c, 9, 36, 0
9, 6927, Note_on_c, 9, 42, 0
9, 6935, Note_on_c, 9, 37, 127
9, 6935, Note_on_c, 9, 42, 77
9, 6953, Note_on_c, 9, 37, 0
9, 6954, Note_on_c, 9, 42, 0
9, 6959, Note_on_c, 9, 42, 77
9, 6973, Note_on_c, 9, 42, 0
9, 6983, Note_on_c, 9, 37, 127
9, 6983, Note_on_c, 9, 42, 77
9, 6983, Note_on_c, 9, 36, 127
9, 6998, Note_on_c, 9, 36, 0
9, 6998, Note_on_c, 9, 42, 0
9, 6998, Note_on_c, 9, 37, 0
9, 7007, Note_on_c, 9, 38, 127
9, 7007, Note_on_c, 9, 42, 77
9, 7023, Note_on_c, 9, 42, 0
9, 7023, Note_on_c, 9, 38, 0
9, 7031, Note_on_c, 9, 42, 77
9, 7049, Note_on_c, 9, 42, 0
9, 7055, Note_on_c, 9, 42, 77
9, 7055, Note_on_c, 9, 36, 127
9, 7068, Note_on_c, 9, 42, 0
9, 7069, Note_on_c, 9, 36, 0
9, 7079, Note_on_c, 9, 42, 77
9, 7094, Note_on_c, 9, 42, 0
9, 7103, Note_on_c, 9, 37, 127
9, 7103, Note_on_c, 9, 42, 77
9, 7120, Note_on_c, 9, 42, 0
9, 7120, Note_on_c, 9, 37, 0
9, 7127, Note_on_c, 9, 42, 77
9, 7144, Note_on_c, 9, 42, 0
9, 7151, Note_on_c, 9, 42, 77
9, 7151, Note_on_c, 9, 36, 127
9, 7165, Note_on_c, 9, 36, 0
9, 7165, Note_on_c, 9, 42, 0
9, 7175, Note_on_c, 9, 37, 127
9, 7175, Note_on_c, 9, 42, 77
9, 7190, Note_on_c, 9, 42, 0
9, 7190, Note_on_c, 9, 37, 0
9, 7199, Note_on_c, 9, 38, 127
9, 7199, Note_on_c, 9, 42, 77
9, 7215, Note_on_c, 9, 38, 0
9, 7216, Note_on_c, 9, 42, 0
9, 7223, Note_on_c, 9, 42, 77
9, 7223, Note_on_c, 9, 46, 77
9, 7241, Note_on_c, 9, 46, 0
9, 7241, Note_on_c, 9, 42, 0
9, 7247, Note_on_c, 9, 46, 77
9, 7261, Note_on_c, 9, 46, 0
9, 7295, Note_on_c, 9, 42, 77
9, 7295, Note_on_c, 9, 36, 127
9, 7311, Note_on_c, 9, 36, 0
9, 7311, Note_on_c, 9, 42, 0
9, 7319, Note_on_c, 9, 37, 127
9, 7319, Note_on_c, 9, 42, 77
9, 7337, Note_on_c, 9, 37, 0
9, 7338, Note_on_c, 9, 42, 0
9, 7343, Note_on_c, 9, 42, 77
9, 7357, Note_on_c, 9, 42, 0
9, 7367, Note_on_c, 9, 37, 127
9, 7367, Note_on_c, 9, 42, 77
9, 7367, Note_on_c, 9, 36, 127
9, 7382, Note_on_c, 9, 36, 0
9, 7382, Note_on_c, 9, 42, 0
9, 7382, Note_on_c, 9, 37, 0
9, 7391, Note_on_c, 9, 38, 127
9, 7391, Note_on_c, 9, 42, 77
9, 7408, Note_on_c, 9, 42, 0
9, 7408, Note_on_c, 9, 38, 0
9, 7415, Note_on_c, 9, 42, 77
9, 7433, Note_on_c, 9, 42, 0
9, 7439, Note_on_c, 9, 42, 77
9, 7439, Note_on_c, 9, 36, 127
9, 7452, Note_on_c, 9, 42, 0
9, 7453, Note_on_c, 9, 36, 0
9, 7463, Note_on_c, 9, 42, 77
9, 7478, Note_on_c, 9, 42, 0
9, 7487, Note_on_c, 9, 42, 77
9, 7503, Note_on_c, 9, 42, 0
9, 7511, Note_on_c, 9, 42, 77
9, 7530, Note_on_c, 9, 42, 0
9, 7535, Note_on_c, 9, 46, 77
9, 7535, Note_on_c, 9, 36, 127
9, 7549, Note_on_c, 9, 36, 0
9, 7549, Note_on_c, 9, 46, 0
9, 7559, Note_on_c, 9, 37, 127
9, 7574, Note_on_c, 9, 37, 0
9, 7583, Note_on_c, 9, 38, 127
9, 7583, Note_on_c, 9, 42, 77
9, 7599, Note_on_c, 9, 38, 0
9, 7600, Note_on_c, 9, 42, 0
9, 7607, Note_on_c, 9, 42, 77
9, 7625, Note_on_c, 9, 42, 0
9, 7631, Note_on_c, 9, 46, 77
9, 7644, Note_on_c, 9, 46, 0
9, 7655, Note_on_c, 9, 38, 127
9, 7670, Note_on_c, 9, 38, 0
9, 7679, Note_on_c, 9, 42, 77
9, 7679, Note_on_c, 9, 36, 127
9, 7695, Note_on_c, 9, 36, 0
9, 7695, Note_on_c, 9, 42, 0
9, 7703, Note_on_c, 9, 37, 127
9, 7703, Note_on_c, 9, 42, 77
9, 7722, Note_on_c, 9, 42, 0
9, 7722, Note_on_c, 9, 37, 0
9, 7727, Note_on_c, 9, 42, 77
9, 7741, Note_on_c, 9, 42, 0
9, 7751, Note_on_c, 9, 37, 127
9, 7751, Note_on_c, 9, 42, 77
9, 7751, Note_on_c, 9, 36, 127
9, 7766, Note_on_c, 9, 36, 0
9, 7766, Note_on_c, 9, 42, 0
9, 7766, Note_on_c, 9, 37, 0
9, 7775, Note_on_c, 9, 38, 127
9, 7775, Note_on_c, 9, 42, 77
9, 7792, Note_on_c, 9, 42, 0
9, 7792, Note_on_c, 9, 38, 0
9, 7799, Note_on_c, 9, 42, 77
9, 7817, Note_on_c, 9, 42, 0
9, 7823, Note_on_c, 9, 42, 77
9, 7823, Note_on_c, 9, 36, 127
9, 7836, Note_on_c, 9, 36, 0
9, 7836, Note_on_c, 9, 42, 0
9, 7847, Note_on_c, 9, 42, 77
9, 7863, Note_on_c, 9, 42, 0
9, 7871, Note_on_c, 9, 37, 127
9, 7871, Note_on_c, 9, 42, 77
9, 7887, Note_on_c, 9, 37, 0
9, 7888, Note_on_c, 9, 42, 0
9, 7895, Note_on_c, 9, 42, 77
9, 7913, Note_on_c, 9, 42, 0
9, 7919, Note_on_c, 9, 42, 77
9, 7919, Note_on_c, 9, 36, 127
9, 7932, Note_on_c, 9, 42, 0
9, 7933, Note_on_c, 9, 36, 0
9, 7943, Note_on_c, 9, 37, 127
9, 7943, Note_on_c, 9, 42, 77
9, 7957, Note_on_c, 9, 37, 0
9, 7958, Note_on_c, 9, 42, 0
9, 7967, Note_on_c, 9, 38, 127
9, 7967, Note_on_c, 9, 42, 77
9, 7984, Note_on_c, 9, 42, 0
9, 7984, Note_on_c, 9, 38, 0
9, 7991, Note_on_c, 9, 42, 77
9, 7991, Note_on_c, 9, 46, 77
9, 8009, Note_on_c, 9, 46, 0
9, 8009, Note_on_c, 9, 42, 0
9, 8015, Note_on_c, 9, 46, 77
9, 8028, Note_on_c, 9, 46, 0
9, 8063, Note_on_c, 9, 42, 77
9, 8063, Note_on_c, 9, 36, 127
9, 8079, Note_on_c, 9, 36, 0
9, 8079, Note_on_c, 9, 42, 0
9, 8087, Note_on_c, 9, 37, 127
9, 8087, Note_on_c, 9, 42, 77
9, 8105, Note_on_c, 9, 42, 0
9, 8105, Note_on_c, 9, 37, 0
9, 8111, Note_on_c, 9, 42, 77
9, 8125, Note_on_c, 9, 42, 0
9, 8135, Note_on_c, 9, 37, 127
9, 8135, Note_on_c, 9, 42, 77
9, 8135, Note_on_c, 9, 36, 127
9, 8150, Note_on_c, 9, 36, 0
9, 8150, Note_on_c, 9, 42, 0
9, 8150, Note_on_c, 9, 37, 0
9, 8159, Note_on_c, 9, 38, 127
9, 8159, Note_on_c, 9, 42, 77
9, 8175, Note_on_c, 9, 42, 0
9, 8176, Note_on_c, 9, 38, 0
9, 8183, Note_on_c, 9, 42, 77
9, 8201, Note_on_c, 9, 42, 0
9, 8207, Note_on_c, 9, 42, 77
9, 8207, Note_on_c, 9, 36, 127
9, 8220, Note_on_c, 9, 36, 0
9, 8220, Note_on_c, 9, 42, 0
9, 8231, Note_on_c, 9, 42, 77
9, 8246, Note_on_c, 9, 42, 0
9, 8255, Note_on_c, 9, 42, 77
9, 8271, Note_on_c, 9, 42, 0
9, 8279, Note_on_c, 9, 42, 77
9, 8297, Note_on_c, 9, 42, 0
9, 8303, Note_on_c, 9, 46, 77
9, 8303, Note_on_c, 9, 36, 127
9, 8316, Note_on_c, 9, 46, 0
9, 8317, Note_on_c, 9, 36, 0
9, 8327, Note_on_c, 9, 37, 127
9, 8342, Note_on_c, 9, 37, 0
9, 8351, Note_on_c, 9, 38, 127
9, 8351, Note_on_c, 9, 42, 77
9, 8368, Note_on_c, 9, 42, 0
9, 8368, Note_on_c, 9, 38, 0
9, 8375, Note_on_c, 9, 42, 77
9, 8393, Note_on_c, 9, 42, 0
9, 8399, Note_on_c, 9, 46, 77
9, 8412, Note_on_c, 9, 46, 0
9, 8423, Note_on_c, 9, 38, 127
9, 8439, Note_on_c, 9, 38, 0
9, 8447, Note_on_c, 9, 42, 77
9, 8447, Note_on_c, 9, 36, 127
9, 8462, Note_on_c, 9, 42, 0
9, 8463, Note_on_c, 9, 36, 0
9, 8471, Note_on_c, 9, 37, 127
9, 8471, Note_on_c, 9, 42, 77
9, 8489, Note_on_c, 9, 42, 0
9, 8489, Note_on_c, 9, 37, 0
9, 8495, Note_on_c, 9, 42, 77
9, 8509, Note_on_c, 9, 42, 0
9, 8519, Note_on_c, 9, 37, 127
9, 8519, Note_on_c, 9, 42, 77
9, 8519, Note_on_c, 9, 36, 127
9, 8534, Note_on_c, 9, 36, 0
9, 8534, Note_on_c, 9, 42, 0
9, 8534, Note_on_c, 9, 37, 0
9, 8543, Note_on_c, 9, 38, 127
9, 8543, Note_on_c, 9, 42, 77
9, 8560, Note_on_c, 9, 42, 0
9, 8560, Note_on_c, 9, 38, 0
9, 8567, Note_on_c, 9, 42, 77
9, 8585, Note_on_c, 9, 42, 0
9, 8591, Note_on_c, 9, 42, 77
9, 8591, Note_on_c, 9, 36, 127
9, 8604, Note_on_c, 9, 36, 0
9, 8605, Note_on_c, 9, 42, 0
9, 8615, Note_on_c, 9, 42, 77
9, 8630, Note_on_c, 9, 42, 0
9, 8639, Note_on_c, 9, 37, 127
9, 8639, Note_on_c, 9, 42, 77
9, 8656, Note_on_c, 9, 42, 0
9, 8656, Note_on_c, 9, 37, 0
9, 8663, Note_on_c, 9, 42, 77
9, 8681, Note_on_c, 9, 42, 0
9, 8687, Note_on_c, 9, 42, 77
9, 8687, Note_on_c, 9, 36, 127
9, 8700, Note_on_c, 9, 42, 0
9, 8701, Note_on_c, 9, 36, 0
9, 8711, Note_on_c, 9, 37, 127
9, 8711, Note_on_c, 9, 42, 77
9, 8726, Note_on_c, 9, 42, 0
9, 8726, Note_on_c, 9, 37, 0
9, 8735, Note_on_c, 9, 38, 127
9, 8735, Note_on_c, 9, 42, 77
9, 8751, Note_on_c, 9, 38, 0
9, 8752, Note_on_c, 9, 42, 0
9, 8759, Note_on_c, 9, 42, 77
9, 8759, Note_on_c, 9, 46, 77
9, 8777, Note_on_c, 9, 46, 0
9, 8777, Note_on_c, 9, 42, 0
9, 8783, Note_on_c, 9, 46, 77
9, 8797, Note_on_c, 9, 46, 0
9, 8831, Note_on_c, 9, 42, 77
9, 8831, Note_on_c, 9, 36, 127
9, 8846, Note_on_c, 9, 36, 0
9, 8847, Note_on_c, 9, 42, 0
9, 8855, Note_on_c, 9, 37, 127
9, 8855, Note_on_c, 9, 42, 77
9, 8873, Note_on_c, 9, 42, 0
9, 8873, Note_on_c, 9, 37, 0
9, 8879, Note_on_c, 9, 42, 77
9, 8893, Note_on_c, 9, 42, 0
9, 8903, Note_on_c, 9, 37, 127
9, 8903, Note_on_c, 9, 42, 77
9, 8903, Note_on_c, 9, 36, 127
9, 8918, Note_on_c, 9, 36, 0
9, 8918, Note_on_c, 9, 42, 0
9, 8918, Note_on_c, 9, 37, 0
9, 8927, Note_on_c, 9, 38, 127
9, 8927, Note_on_c, 9, 42, 77
9, 8943, Note_on_c, 9, 42, 0
9, 8943, Note_on_c, 9, 38, 0
9, 8951, Note_on_c, 9, 42, 77
9, 8969, Note_on_c, 9, 42, 0
9, 8975, Note_on_c, 9, 42, 77
9, 8975, Note_on_c, 9, 36, 127
9, 8989, Note_on_c, 9, 36, 0
9, 8989, Note_on_c, 9, 42, 0
9, 8999, Note_on_c, 9, 42, 77
9, 9014, Note_on_c, 9, 42, 0
9, 9023, Note_on_c, 9, 42, 77
9, 9039, Note_on_c, 9, 42, 0
9, 9047, Note_on_c, 9, 42, 77
9, 9065, Note_on_c, 9, 42, 0
9, 9071, Note_on_c, 9, 46, 77
9, 9071, Note_on_c, 9, 36, 127
9, 9084, Note_on_c, 9, 46, 0
9, 9085, Note_on_c, 9, 36, 0
9, 9095, Note_on_c, 9, 37, 127
9, 9110, Note_on_c, 9, 37, 0
9, 9119, Note_on_c, 9, 38, 127
9, 9119, Note_on_c, 9, 42, 77
9, 9135, Note_on_c, 9, 42, 0
9, 9136, Note_on_c, 9, 38, 0
9, 9143, Note_on_c, 9, 42, 77
9, 9160, Note_on_c, 9, 42, 0
9, 9167, Note_on_c, 9, 46, 77
9, 9181, Note_on_c, 9, 46, 0
9, 9191, Note_on_c, 9, 38, 127
9, 9206, Note_on_c, 9, 38, 0
9, 9215, Note_on_c, 9, 42, 77
9, 9215, Note_on_c, 9, 36, 127
9, 9231, Note_on_c, 9, 36, 0
9, 9231, Note_on_c, 9, 42, 0
9, 9239, Note_on_c, 9, 37, 127
9, 9239, Note_on_c, 9, 42, 77
9, 9257, Note_on_c, 9, 42, 0
9, 9257, Note_on_c, 9, 37, 0
9, 9263, Note_on_c, 9, 42, 77
9, 9277, Note_on_c, 9, 42, 0
9, 9287, Note_on_c, 9, 37, 127
9, 9287, Note_on_c, 9, 42, 77
9, 9287, Note_on_c, 9, 36, 127
9, 9302, Note_on_c, 9, 36, 0
9, 9302, Note_on_c, 9, 42, 0
9, 9302, Note_on_c, 9, 37, 0
9, 9311, Note_on_c, 9, 38, 127
9, 9311, Note_on_c, 9, 42, 77
9, 9328, Note_on_c, 9, 42, 0
9, 9328, Note_on_c, 9, 38, 0
9, 9335, Note_on_c, 9, 42, 77
9, 9353, Note_on_c, 9, 42, 0
9, 9359, Note_on_c, 9, 42, 77
9, 9359, Note_on_c, 9, 36, 127
9, 9373, Note_on_c, 9, 36, 0
9, 9373, Note_on_c, 9, 42, 0
9, 9383, Note_on_c, 9, 42, 77
9, 9398, Note_on_c, 9, 42, 0
9, 9407, Note_on_c, 9, 37, 127
9, 9407, Note_on_c, 9, 42, 77
9, 9423, Note_on_c, 9, 37, 0
9, 9424, Note_on_c, 9, 42, 0
9, 9431, Note_on_c, 9, 42, 77
9, 9449, Note_on_c, 9, 42, 0
9, 9455, Note_on_c, 9, 42, 77
9, 9455, Note_on_c, 9, 36, 127
9, 9468, Note_on_c, 9, 36, 0
9, 9468, Note_on_c, 9, 42, 0
9, 9479, Note_on_c, 9, 37, 127
9, 9479, Note_on_c, 9, 42, 77
9, 9493, Note_on_c, 9, 37, 0
9, 9494, Note_on_c, 9, 42, 0
9, 9503, Note_on_c, 9, 38, 127
9, 9503, Note_on_c, 9, 42, 77
9, 9520, Note_on_c, 9, 42, 0
9, 9520, Note_on_c, 9, 38, 0
9, 9527, Note_on_c, 9, 42, 77
9, 9527, Note_on_c, 9, 46, 77
9, 9545, Note_on_c, 9, 46, 0
9, 9546, Note_on_c, 9, 42, 0
9, 9551, Note_on_c, 9, 46, 77
9, 9565, Note_on_c, 9, 46, 0
9, 9599, Note_on_c, 9, 42, 77
9, 9599, Note_on_c, 9, 36, 127
9, 9615, Note_on_c, 9, 36, 0
9, 9615, Note_on_c, 9, 42, 0
9, 9623, Note_on_c, 9, 37, 127
9, 9623, Note_on_c, 9, 42, 77
9, 9641, Note_on_c, 9, 42, 0
9, 9641, Note_on_c, 9, 37, 0
9, 9647, Note_on_c, 9, 42, 77
9, 9661, Note_on_c, 9, 42, 0
9, 9671, Note_on_c, 9, 37, 127
9, 9671, Note_on_c, 9, 42, 77
9, 9671, Note_on_c, 9, 36, 127
9, 9686, Note_on_c, 9, 36, 0
9, 9686, Note_on_c, 9, 37, 0
9, 9687, Note_on_c, 9, 42, 0
9, 9695, Note_on_c, 9, 38, 127
9, 9695, Note_on_c, 9, 42, 77
9, 9711, Note_on_c, 9, 42, 0
9, 9711, Note_on_c, 9, 38, 0
9, 9719, Note_on_c, 9, 42, 77
9, 9738, Note_on_c, 9, 42, 0
9, 9743, Note_on_c, 9, 42, 77
9, 9743, Note_on_c, 9, 36, 127
9, 9757, Note_on_c, 9, 36, 0
9, 9757, Note_on_c, 9, 42, 0
9, 9767, Note_on_c, 9, 42, 77
9, 9782, Note_on_c, 9, 42, 0
9, 9791, Note_on_c, 9, 42, 77
9, 9806, Note_on_c, 9, 42, 0
9, 9815, Note_on_c, 9, 38, 127
9, 9815, Note_on_c, 9, 42, 77
9, 9833, Note_on_c, 9, 42, 0
9, 9833, Note_on_c, 9, 38, 0
9, 9839, Note_on_c, 9, 46, 77
9, 9839, Note_on_c, 9, 36, 127
9, 9852, Note_on_c, 9, 46, 0
9, 9853, Note_on_c, 9, 36, 0
9, 9863, Note_on_c, 9, 37, 127
9, 9878, Note_on_c, 9, 37, 0
9, 9887, Note_on_c, 9, 38, 127
9, 9887, Note_on_c, 9, 42, 77
9, 9903, Note_on_c, 9, 42, 0
9, 9903, Note_on_c, 9, 38, 0
9, 9911, Note_on_c, 9, 42, 77
9, 9930, Note_on_c, 9, 42, 0
9, 9935, Note_on_c, 9, 46, 77
9, 9949, Note_on_c, 9, 46, 0
9, 9959, Note_on_c, 9, 38, 127
9, 9974, Note_on_c, 9, 38, 0
9, 9983, Note_on_c, 9, 42, 77
9, 9983, Note_on_c, 9, 36, 127
9, 9998, Note_on_c, 9, 36, 0
9, 9999, Note_on_c, 9, 42, 0
9, 10007, Note_on_c, 9, 37, 127
9, 10007, Note_on_c, 9, 42, 77
9, 10025, Note_on_c, 9, 42, 0
9, 10025, Note_on_c, 9, 37, 0
9, 10031, Note_on_c, 9, 42, 77
9, 10044, Note_on_c, 9, 42, 0
9, 10055, Note_on_c, 9, 37, 127
9, 10055, Note_on_c, 9, 42, 77
9, 10055, Note_on_c, 9, 36, 127
9, 10070, Note_on_c, 9, 36, 0
9, 10070, Note_on_c, 9, 42, 0
9, 10070, Note_on_c, 9, 37, 0
9, 10079, Note_on_c, 9, 38, 127
9, 10079, Note_on_c, 9, 42, 77
9, 10095, Note_on_c, 9, 42, 0
9, 10096, Note_on_c, 9, 38, 0
9, 10103, Note_on_c, 9, 42, 77
9, 10122, Note_on_c, 9, 42, 0
9, 10127, Note_on_c, 9, 42, 77
9, 10127, Note_on_c, 9, 36, 127
9, 10141, Note_on_c, 9, 36, 0
9, 10141, Note_on_c, 9, 42, 0
9, 10151, Note_on_c, 9, 42, 77
9, 10166, Note_on_c, 9, 42, 0
9, 10175, Note_on_c, 9, 37, 127
9, 10175, Note_on_c, 9, 42, 77
9, 10192, Note_on_c, 9, 42, 0
9, 10192, Note_on_c, 9, 37, 0
9, 10199, Note_on_c, 9, 42, 77
9, 10217, Note_on_c, 9, 42, 0
9, 10223, Note_on_c, 9, 42, 77
9, 10223, Note_on_c, 9, 36, 127
9, 10236, Note_on_c, 9, 36, 0
9, 10236, Note_on_c, 9, 42, 0
9, 10247, Note_on_c, 9, 37, 127
9, 10247, Note_on_c, 9, 42, 77
9, 10262, Note_on_c, 9, 37, 0
9, 10263, Note_on_c, 9, 42, 0
9, 10271, Note_on_c, 9, 38, 127
9, 10271, Note_on_c, 9, 42, 77
9, 10287, Note_on_c, 9, 38, 0
9, 10288, Note_on_c, 9, 42, 0
9, 10295, Note_on_c, 9, 42, 77
9, 10295, Note_on_c, 9, 46, 77
9, 10313, Note_on_c, 9, 42, 0
9, 10314, Note_on_c, 9, 46, 0
9, 10319, Note_on_c, 9, 46, 77
9, 10333, Note_on_c, 9, 46, 0
9, 10367, Note_on_c, 9, 42, 77
9, 10367, Note_on_c, 9, 36, 127
9, 10383, Note_on_c, 9, 36, 0
9, 10383, Note_on_c, 9, 42, 0
9, 10391, Note_on_c, 9, 37, 127
9, 10391, Note_on_c, 9, 42, 77
9, 10409, Note_on_c, 9, 37, 0
9, 10410, Note_on_c, 9, 42, 0
9, 10415, Note_on_c, 9, 42, 77
9, 10429, Note_on_c, 9, 42, 0
9, 10439, Note_on_c, 9, 37, 127
9, 10439, Note_on_c, 9, 42, 77
9, 10439, Note_on_c, 9, 36, 127
9, 10454, Note_on_c, 9, 42, 0
9, 10454, Note_on_c, 9, 37, 0
9, 10455, Note_on_c, 9, 36, 0
9, 10463, Note_on_c, 9, 38, 127
9, 10463, Note_on_c, 9, 42, 77
9, 10479, Note_on_c, 9, 42, 0
9, 10479, Note_on_c, 9, 38, 0
9, 10487, Note_on_c, 9, 42, 77
9, 10505, Note_on_c, 9, 42, 0
9, 10511, Note_on_c, 9, 42, 77
9, 10511, Note_on_c, 9, 36, 127
9, 10525, Note_on_c, 9, 36, 0
9, 10525, Note_on_c, 9, 42, 0
9, 10535, Note_on_c, 9, 42, 77
9, 10550, Note_on_c, 9, 42, 0
9, 10559, Note_on_c, 9, 42, 77
9, 10576, Note_on_c, 9, 42, 0
9, 10583, Note_on_c, 9, 42, 77
9, 10601, Note_on_c, 9, 42, 0
9, 10607, Note_on_c, 9, 46, 77
9, 10607, Note_on_c, 9, 36, 127
9, 10620, Note_on_c, 9, 36, 0
9, 10620, Note_on_c, 9, 46, 0
9, 10631, Note_on_c, 9, 37, 127
9, 10647, Note_on_c, 9, 37, 0
9, 10655, Note_on_c, 9, 38, 127
9, 10655, Note_on_c, 9, 42, 77
9, 10671, Note_on_c, 9, 42, 0
9, 10671, Note_on_c, 9, 38, 0
9, 10679, Note_on_c, 9, 42, 77
9, 10697, Note_on_c, 9, 42, 0
9, 10703, Note_on_c, 9, 46, 77
9, 10716, Note_on_c, 9, 46, 0
9, 10727, Note_on_c, 9, 38, 127
9, 10742, Note_on_c, 9, 38, 0
9, 10751, Note_on_c, 9, 42, 77
9, 10751, Note_on_c, 9, 36, 127
9, 10767, Note_on_c, 9, 36, 0
9, 10767, Note_on_c, 9, 42, 0
9, 10775, Note_on_c, 9, 37, 127
9, 10775, Note_on_c, 9, 42, 77
9, 10793, Note_on_c, 9, 42, 0
9, 10793, Note_on_c, 9, 37, 0
9, 10799, Note_on_c, 9, 42, 77
9, 10812, Note_on_c, 9, 42, 0
9, 10823, Note_on_c, 9, 37, 127
9, 10823, Note_on_c, 9, 42, 77
9, 10823, Note_on_c, 9, 36, 127
9, 10838, Note_on_c, 9, 36, 0
9, 10838, Note_on_c, 9, 37, 0
9, 10839, Note_on_c, 9, 42, 0
9, 10847, Note_on_c, 9, 38, 127
9, 10847, Note_on_c, 9, 42, 77
9, 10863, Note_on_c, 9, 42, 0
9, 10864, Note_on_c, 9, 38, 0
9, 10871, Note_on_c, 9, 42, 77
9, 10889, Note_on_c, 9, 42, 0
9, 10895, Note_on_c, 9, 42, 77
9, 10895, Note_on_c, 9, 36, 127
9, 10909, Note_on_c, 9, 36, 0
9, 10909, Note_on_c, 9, 42, 0
9, 10919, Note_on_c, 9, 42, 77
9, 10934, Note_on_c, 9, 42, 0
9, 10943, Note_on_c, 9, 37, 127
9, 10943, Note_on_c, 9, 42, 77
9, 10959, Note_on_c, 9, 37, 0
9, 10960, Note_on_c, 9, 42, 0
9, 10967, Note_on_c, 9, 42, 77
9, 10985, Note_on_c, 9, 42, 0
9, 10991, Note_on_c, 9, 42, 77
9, 10991, Note_on_c, 9, 36, 127
9, 11004, Note_on_c, 9, 36, 0
9, 11005, Note_on_c, 9, 42, 0
9, 11015, Note_on_c, 9, 37, 127
9, 11015, Note_on_c, 9, 42, 77
9, 11031, Note_on_c, 9, 42, 0
9, 11031, Note_on_c, 9, 37, 0
9, 11039, Note_on_c, 9, 38, 127
9, 11039, Note_on_c, 9, 42, 77
9, 11055, Note_on_c, 9, 42, 0
9, 11055, Note_on_c, 9, 38, 0
9, 11063, Note_on_c, 9, 42, 77
9, 11063, Note_on_c, 9, 46, 77
9, 11081, Note_on_c, 9, 46, 0
9, 11081, Note_on_c, 9, 42, 0
9, 11087, Note_on_c, 9, 46, 77
9, 11101, Note_on_c, 9, 46, 0
9, 11135, Note_on_c, 9, 42, 77
9, 11135, Note_on_c, 9, 36, 127
9, 11151, Note_on_c, 9, 36, 0
9, 11151, Note_on_c, 9, 42, 0
9, 11159, Note_on_c, 9, 37, 127
9, 11159, Note_on_c, 9, 42, 77
9, 11177, Note_on_c, 9, 37, 0
9, 11178, Note_on_c, 9, 42, 0
9, 11183, Note_on_c, 9, 42, 77
9, 11197, Note_on_c, 9, 42, 0
9, 11207, Note_on_c, 9, 37, 127
9, 11207, Note_on_c, 9, 42, 77
9, 11207, Note_on_c, 9, 36, 127
9, 11222, Note_on_c, 9, 37, 0
9, 11223, Note_on_c, 9, 36, 0
9, 11223, Note_on_c, 9, 42, 0
9, 11231, Note_on_c, 9, 38, 127
9, 11231, Note_on_c, 9, 42, 77
9, 11247, Note_on_c, 9, 42, 0
9, 11247, Note_on_c, 9, 38, 0
9, 11255, Note_on_c, 9, 42, 77
9, 11273, Note_on_c, 9, 42, 0
9, 11279, Note_on_c, 9, 42, 77
9, 11279, Note_on_c, 9, 36, 127
9, 11292, Note_on_c, 9, 42, 0
9, 11293, Note_on_c, 9, 36, 0
9, 11303, Note_on_c, 9, 42, 77
9, 11318, Note_on_c, 9, 42, 0
9, 11327, Note_on_c, 9, 42, 77
9, 11344, Note_on_c, 9, 42, 0
9, 11351, Note_on_c, 9, 42, 77
9, 11369, Note_on_c, 9, 42, 0
9, 11375, Note_on_c, 9, 46, 77
9, 11375, Note_on_c, 9, 36, 127
9, 11389, Note_on_c, 9, 36, 0
9, 11389, Note_on_c, 9, 46, 0
9, 11399, Note_on_c, 9, 37, 127
9, 11415, Note_on_c, 9, 37, 0
9, 11423, Note_on_c, 9, 38, 127
9, 11423, Note_on_c, 9, 42, 77
9, 11439, Note_on_c, 9, 42, 0
9, 11439, Note_on_c, 9, 38, 0
9, 11447, Note_on_c, 9, 42, 77
9, 11465, Note_on_c, 9, 42, 0
9, 11471, Note_on_c, 9, 46, 77
9, 11484, Note_on_c, 9, 46, 0
9, 11495, Note_on_c, 9, 38, 127
9, 11510, Note_on_c, 9, 38, 0
9, 11519, Note_on_c, 9, 42, 77
9, 11519, Note_on_c, 9, 36, 127
9, 11535, Note_on_c, 9, 36, 0
9, 11535, Note_on_c, 9, 42, 0
9, 11543, Note_on_c, 9, 37, 127
9, 11543, Note_on_c, 9, 42, 77
9, 11561, Note_on_c, 9, 42, 0
9, 11561, Note_on_c, 9, 37, 0
9, 11567, Note_on_c, 9, 42, 77
9, 11581, Note_on_c, 9, 42, 0
9, 11591, Note_on_c, 9, 37, 127
9, 11591, Note_on_c, 9, 42, 77
9, 11591, Note_on_c, 9, 36, 127
9, 11606, Note_on_c, 9, 36, 0
9, 11606, Note_on_c, 9, 42, 0
9, 11606, Note_on_c, 9, 37, 0
9, 11615, Note_on_c, 9, 38, 127
9, 11615, Note_on_c, 9, 42, 77
9, 11632, Note_on_c, 9, 42, 0
9, 11632, Note_on_c, 9, 38, 0
9, 11639, Note_on_c, 9, 42, 77
9, 11657, Note_on_c, 9, 42, 0
9, 11663, Note_on_c, 9, 42, 77
9, 11663, Note_on_c, 9, 36, 127
9, 11676, Note_on_c, 9, 42, 0
9, 11677, Note_on_c, 9, 36, 0
9, 11687, Note_on_c, 9, 42, 77
9, 11701, Note_on_c, 9, 42, 0
9, 11711, Note_on_c, 9, 37, 127
9, 11711, Note_on_c, 9, 42, 77
9, 11727, Note_on_c, 9, 37, 0
9, 11728, Note_on_c, 9, 42, 0
9, 11735, Note_on_c, 9, 42, 77
9, 11753, Note_on_c, 9, 42, 0
9, 11759, Note_on_c, 9, 42, 77
9, 11759, Note_on_c, 9, 36, 127
9, 11773, Note_on_c, 9, 36, 0
9, 11773, Note_on_c, 9, 42, 0
9, 11783, Note_on_c, 9, 37, 127
9, 11783, Note_on_c, 9, 42, 77
9, 11798, Note_on_c, 9, 42, 0
9, 11798, Note_on_c, 9, 37, 0
9, 11807, Note_on_c, 9, 38, 127
9, 11807, Note_on_c, 9, 42, 77
9, 11823, Note_on_c, 9, 42, 0
9, 11823, Note_on_c, 9, 38, 0
9, 11831, Note_on_c, 9, 42, 77
9, 11831, Note_on_c, 9, 46, 77
9, 11849, Note_on_c, 9, 46, 0
9, 11849, Note_on_c, 9, 42, 0
9, 11855, Note_on_c, 9, 46, 77
9, 11869, Note_on_c, 9, 46, 0
9, 11903, Note_on_c, 9, 42, 77
9, 11903, Note_on_c, 9, 36, 127
9, 11919, Note_on_c, 9, 36, 0
9, 11919, Note_on_c, 9, 42, 0
9, 11927, Note_on_c, 9, 37, 127
9, 11927, Note_on_c, 9, 42, 77
9, 11945, Note_on_c, 9, 37, 0
9, 11946, Note_on_c, 9, 42, 0
9, 11951, Note_on_c, 9, 42, 77
9, 11965, Note_on_c, 9, 42, 0
9, 11975, Note_on_c, 9, 37, 127
9, 11975, Note_on_c, 9, 42, 77
9, 11975, Note_on_c, 9, 36, 127
9, 11990, Note_on_c, 9, 42, 0
9, 11990, Note_on_c, 9, 37, 0
9, 11991, Note_on_c, 9, 36, 0
9, 11999, Note_on_c, 9, 38, 127
9, 11999, Note_on_c, 9, 42, 77
9, 12015, Note_on_c, 9, 42, 0
9, 12015, Note_on_c, 9, 38, 0
9, 12023, Note_on_c, 9, 42, 77
9, 12041, Note_on_c, 9, 42, 0
9, 12047, Note_on_c, 9, 42, 77
9, 12047, Note_on_c, 9, 36, 127
9, 12061, Note_on_c, 9, 36, 0
9, 12061, Note_on_c, 9, 42, 0
9, 12071, Note_on_c, 9, 42, 77
9, 12086, Note_on_c, 9, 42, 0
9, 12095, Note_on_c, 9, 42, 77
9, 12111, Note_on_c, 9, 42, 0
9, 12119, Note_on_c, 9, 42, 77
9, 12136, Note_on_c, 9, 42, 0
9, 12143, Note_on_c, 9, 46, 77
9, 12143, Note_on_c, 9, 36, 127
9, 12157, Note_on_c, 9, 36, 0
9, 12157, Note_on_c, 9, 46, 0
9, 12167, Note_on_c, 9, 37, 127
9, 12182, Note_on_c, 9, 37, 0
9, 12191, Note_on_c, 9, 38, 127
9, 12191, Note_on_c, 9, 42, 77
9, 12207, Note_on_c, 9, 42, 0
9, 12207, Note_on_c, 9, 38, 0
9, 12215, Note_on_c, 9, 42, 77
9, 12233, Note_on_c, 9, 42, 0
9, 12239, Note_on_c, 9, 46, 77
9, 12252, Note_on_c, 9, 46, 0
9, 12263, Note_on_c, 9, 38, 127
9, 12278, Note_on_c, 9, 38, 0
9, 12287, Note_on_c, 9, 42, 77
9, 12287, Note_on_c, 9, 36, 127
9, 12303, Note_on_c, 9, 36, 0
9, 12303, Note_on_c, 9, 42, 0
9, 12311, Note_on_c, 9, 37, 127
9, 12311, Note_on_c, 9, 42, 77
9, 12329, Note_on_c, 9, 37, 0
9, 12330, Note_on_c, 9, 42, 0
9, 12335, Note_on_c, 9, 42, 77
9, 12349, Note_on_c, 9, 42, 0
9, 12359, Note_on_c, 9, 37, 127
9, 12359, Note_on_c, 9, 42, 77
9, 12359, Note_on_c, 9, 36, 127
9, 12374, Note_on_c, 9, 36, 0
9, 12374, Note_on_c, 9, 42, 0
9, 12374, Note_on_c, 9, 37, 0
9, 12383, Note_on_c, 9, 38, 127
9, 12383, Note_on_c, 9, 42, 77
9, 12400, Note_on_c, 9, 42, 0
9, 12400, Note_on_c, 9, 38, 0
9, 12407, Note_on_c, 9, 42, 77
9, 12425, Note_on_c, 9, 42, 0
9, 12431, Note_on_c, 9, 42, 77
9, 12431, Note_on_c, 9, 36, 127
9, 12444, Note_on_c, 9, 42, 0
9, 12445, Note_on_c, 9, 36, 0
9, 12455, Note_on_c, 9, 42, 77
9, 12471, Note_on_c, 9, 42, 0
9, 12479, Note_on_c, 9, 37, 127
9, 12479, Note_on_c, 9, 42, 77
9, 12495, Note_on_c, 9, 42, 0
9, 12495, Note_on_c, 9, 37, 0
9, 12503, Note_on_c, 9, 42, 77
9, 12522, Note_on_c, 9, 42, 0
9, 12527, Note_on_c, 9, 42, 77
9, 12527, Note_on_c, 9, 36, 127
9, 12541, Note_on_c, 9, 36, 0
9, 12541, Note_on_c, 9, 42, 0
9, 12551, Note_on_c, 9, 37, 127
9, 12551, Note_on_c, 9, 42, 77
9, 12566, Note_on_c, 9, 37, 0
9, 12567, Note_on_c, 9, 42, 0
9, 12575, Note_on_c, 9, 38, 127
9, 12575, Note_on_c, 9, 42, 77
9, 12591, Note_on_c, 9, 38, 0
9, 12592, Note_on_c, 9, 42, 0
9, 12599, Note_on_c, 9, 42, 77
9, 12599, Note_on_c, 9, 46, 77
9, 12617, Note_on_c, 9, 46, 0
9, 12617, Note_on_c, 9, 42, 0
9, 12623, Note_on_c, 9, 46, 77
9, 12636, Note_on_c, 9, 46, 0
9, 12671, Note_on_c, 9, 42, 77
9, 12671, Note_on_c, 9, 36, 127
9, 12687, Note_on_c, 9, 36, 0
9, 12687, Note_on_c, 9, 42, 0
9, 12695, Note_on_c, 9, 37, 127
9, 12695, Note_on_c, 9, 42, 77
9, 12713, Note_on_c, 9, 37, 0
9, 12714, Note_on_c, 9, 42, 0
9, 12719, Note_on_c, 9, 42, 77
9, 12733, Note_on_c, 9, 42, 0
9, 12743, Note_on_c, 9, 37, 127
9, 12743, Note_on_c, 9, 42, 77
9, 12743, Note_on_c, 9, 36, 127
9, 12758, Note_on_c, 9, 36, 0
9, 12758, Note_on_c, 9, 42, 0
9, 12758, Note_on_c, 9, 37, 0
9, 12767, Note_on_c, 9, 38, 127
9, 12767, Note_on_c, 9, 42, 77
9, 12783, Note_on_c, 9, 38, 0
9, 12784, Note_on_c, 9, 42, 0
9, 12791, Note_on_c, 9, 42, 77
9, 12809, Note_on_c, 9, 42, 0
9, 12815, Note_on_c, 9, 42, 77
9, 12815, Note_on_c, 9, 36, 127
9, 12828, Note_on_c, 9, 36, 0
9, 12829, Note_on_c, 9, 42, 0
9, 12839, Note_on_c, 9, 42, 77
9, 12855, Note_on_c, 9, 42, 0
9, 12863, Note_on_c, 9, 42, 77
9, 12879, Note_on_c, 9, 42, 0
9, 12887, Note_on_c, 9, 38, 127
9, 12887, Note_on_c, 9, 42, 77
9, 12905, Note_on_c, 9, 42, 0
9, 12905, Note_on_c, 9, 38, 0
9, 12911, Note_on_c, 9, 46, 77
9, 12911, Note_on_c, 9, 36, 127
9, 12925, Note_on_c, 9, 36, 0
9, 12925, Note_on_c, 9, 46, 0
9, 12935, Note_on_c, 9, 37, 127
9, 12950, Note_on_c, 9, 37, 0
9, 12959, Note_on_c, 9, 38, 127
9, 12959, Note_on_c, 9, 42, 77
9, 12976, Note_on_c, 9, 42, 0
9, 12976, Note_on_c, 9, 38, 0
9, 12983, Note_on_c, 9, 42, 77
9, 13001, Note_on_c, 9, 42, 0
9, 13007, Note_on_c, 9, 46, 77
9, 13020, Note_on_c, 9, 46, 0
9, 13031, Note_on_c, 9, 38, 127
9, 13046, Note_on_c, 9, 38, 0
9, 13055, Note_on_c, 9, 42, 77
9, 13055, Note_on_c, 9, 36, 127
9, 13071, Note_on_c, 9, 36, 0
9, 13071, Note_on_c, 9, 42, 0
9, 13079, Note_on_c, 9, 37, 127
9, 13079, Note_on_c, 9, 42, 77
9, 13097, Note_on_c, 9, 42, 0
9, 13097, Note_on_c, 9, 37, 0
9, 13103, Note_on_c, 9, 42, 77
9, 13117, Note_on_c, 9, 42, 0
9, 13127, Note_on_c, 9, 37, 127
9, 13127, Note_on_c, 9, 42, 77
9, 13127, Note_on_c, 9, 36, 127
9, 13141, Note_on_c, 9, 36, 0
9, 13141, Note_on_c, 9, 37, 0
9, 13142, Note_on_c, 9, 42, 0
9, 13151, Note_on_c, 9, 39, 127
9, 13151, Note_on_c, 9, 42, 77
9, 13168, Note_on_c, 9, 39, 0
9, 13169, Note_on_c, 9, 42, 0
9, 13175, Note_on_c, 9, 42, 77
9, 13193, Note_on_c, 9, 42, 0
9, 13199, Note_on_c, 9, 42, 77
9, 13199, Note_on_c, 9, 36, 127
9, 13212, Note_on_c, 9, 36, 0
9, 13212, Note_on_c, 9, 42, 0
9, 13223, Note_on_c, 9, 42, 77
9, 13239, Note_on_c, 9, 42, 0
9, 13247, Note_on_c, 9, 37, 127
9, 13247, Note_on_c, 9, 42, 77
9, 13263, Note_on_c, 9, 37, 0
9, 13264, Note_on_c, 9, 42, 0
9, 13271, Note_on_c, 9, 42, 77
9, 13290, Note_on_c, 9, 42, 0
9, 13295, Note_on_c, 9, 42, 77
9, 13295, Note_on_c, 9, 36, 127
9, 13309, Note_on_c, 9, 36, 0
9, 13309, Note_on_c, 9, 42, 0
9, 13319, Note_on_c, 9, 37, 127
9, 13319, Note_on_c, 9, 42, 77
9, 13334, Note_on_c, 9, 42, 0
9, 13334, Note_on_c, 9, 37, 0
9, 13343, Note_on_c, 9, 39, 127
9, 13343, Note_on_c, 9, 42, 77
9, 13359, Note_on_c, 9, 42, 0
9, 13359, Note_on_c, 9, 39, 0
9, 13367, Note_on_c, 9, 42, 77
9, 13367, Note_on_c, 9, 46, 77
9, 13385, Note_on_c, 9, 46, 0
9, 13386, Note_on_c, 9, 42, 0
9, 13391, Note_on_c, 9, 46, 77
9, 13404, Note_on_c, 9, 46, 0
9, 13439, Note_on_c, 9, 42, 77
9, 13439, Note_on_c, 9, 36, 127
9, 13455, Note_on_c, 9, 36, 0
9, 13455, Note_on_c, 9, 42, 0
9, 13463, Note_on_c, 9, 37, 127
9, 13463, Note_on_c, 9, 42, 77
9, 13481, Note_on_c, 9, 42, 0
9, 13481, Note_on_c, 9, 37, 0
9, 13487, Note_on_c, 9, 42, 77
9, 13501, Note_on_c, 9, 42, 0
9, 13511, Note_on_c, 9, 37, 127
9, 13511, Note_on_c, 9, 42, 77
9, 13511, Note_on_c, 9, 36, 127
9, 13526, Note_on_c, 9, 36, 0
9, 13526, Note_on_c, 9, 42, 0
9, 13526, Note_on_c, 9, 37, 0
9, 13535, Note_on_c, 9, 39, 127
9, 13535, Note_on_c, 9, 42, 77
9, 13551, Note_on_c, 9, 42, 0
9, 13552, Note_on_c, 9, 39, 0
9, 13559, Note_on_c, 9, 42, 77
9, 13577, Note_on_c, 9, 42, 0
9, 13583, Note_on_c, 9, 42, 77
9, 13583, Note_on_c, 9, 36, 127
9, 13596, Note_on_c, 9, 36, 0
9, 13597, Note_on_c, 9, 42, 0
9, 13607, Note_on_c, 9, 42, 77
9, 13623, Note_on_c, 9, 42, 0
9, 13631, Note_on_c, 9, 42, 77
9, 13648, Note_on_c, 9, 42, 0
9, 13655, Note_on_c, 9, 42, 77
9, 13673, Note_on_c, 9, 42, 0
9, 13679, Note_on_c, 9, 46, 77
9, 13679, Note_on_c, 9, 36, 127
9, 13693, Note_on_c, 9, 36, 0
9, 13693, Note_on_c, 9, 46, 0
9, 13727, Note_on_c, 9, 39, 127
9, 13744, Note_on_c, 9, 39, 0
9, 13751, Note_on_c, 9, 42, 77
9, 13769, Note_on_c, 9, 42, 0
9, 13775, Note_on_c, 9, 46, 77
9, 13775, Note_on_c, 9, 36, 127
9, 13789, Note_on_c, 9, 36, 0
9, 13789, Note_on_c, 9, 46, 0
9, 13823, Note_on_c, 9, 42, 77
9, 13823, Note_on_c, 9, 36, 127
9, 13836, Note_on_c, 9, 36, 0
9, 13836, Note_on_c, 9, 42, 0
9, 13847, Note_on_c, 9, 37, 127
9, 13847, Note_on_c, 9, 42, 77
9, 13862, Note_on_c, 9, 37, 0
9, 13863, Note_on_c, 9, 42, 0
9, 13871, Note_on_c, 9, 42, 77
9, 13888, Note_on_c, 9, 42, 0
9, 13895, Note_on_c, 9, 37, 127
9, 13895, Note_on_c, 9, 42, 77
9, 13895, Note_on_c, 9, 36, 127
9, 13907, Note_on_c, 9, 36, 0
9, 13908, Note_on_c, 9, 42, 0
9, 13908, Note_on_c, 9, 37, 0
9, 13919, Note_on_c, 9, 39, 127
9, 13919, Note_on_c, 9, 42, 77
9, 13932, Note_on_c, 9, 42, 0
9, 13932, Note_on_c, 9, 39, 0
9, 13943, Note_on_c, 9, 42, 77
9, 13959, Note_on_c, 9, 42, 0
9, 13967, Note_on_c, 9, 42, 77
9, 13967, Note_on_c, 9, 36, 127
9, 13984, Note_on_c, 9, 36, 0
9, 13984, Note_on_c, 9, 42, 0
9, 13991, Note_on_c, 9, 42, 77
9, 14002, Note_on_c, 9, 42, 0
9, 14015, Note_on_c, 9, 37, 127
9, 14015, Note_on_c, 9, 42, 77
9, 14029, Note_on_c, 9, 42, 0
9, 14029, Note_on_c, 9, 37, 0
9, 14039, Note_on_c, 9, 42, 77
9, 14055, Note_on_c, 9, 42, 0
9, 14063, Note_on_c, 9, 42, 77
9, 14063, Note_on_c, 9, 36, 127
9, 14080, Note_on_c, 9, 36, 0
9, 14080, Note_on_c, 9, 42, 0
9, 14087, Note_on_c, 9, 37, 127
9, 14087, Note_on_c, 9, 42, 77
9, 14099, Note_on_c, 9, 42, 0
9, 14099, Note_on_c, 9, 37, 0
9, 14111, Note_on_c, 9, 39, 127
9, 14111, Note_on_c, 9, 42, 77
9, 14124, Note_on_c, 9, 42, 0
9, 14124, Note_on_c, 9, 39, 0
9, 14135, Note_on_c, 9, 42, 77
9, 14135, Note_on_c, 9, 46, 77
9, 14150, Note_on_c, 9, 46, 0
9, 14150, Note_on_c, 9, 42, 0
9, 14159, Note_on_c, 9, 46, 77
9, 14176, Note_on_c, 9, 46, 0
9, 14207, Note_on_c, 9, 42, 77
9, 14207, Note_on_c, 9, 36, 127
9, 14221, Note_on_c, 9, 36, 0
9, 14222, Note_on_c, 9, 42, 0
9, 14231, Note_on_c, 9, 37, 127
9, 14231, Note_on_c, 9, 38, 127
9, 14231, Note_on_c, 9, 42, 77
9, 14247, Note_on_c, 9, 37, 0
9, 14248, Note_on_c, 9, 42, 0
9, 14248, Note_on_c, 9, 38, 0
9, 14255, Note_on_c, 9, 42, 77
9, 14267, Note_on_c, 9, 42, 0
9, 14279, Note_on_c, 9, 37, 127
9, 14279, Note_on_c, 9, 42, 77
9, 14279, Note_on_c, 9, 36, 127
9, 14293, Note_on_c, 9, 36, 0
9, 14293, Note_on_c, 9, 42, 0
9, 14293, Note_on_c, 9, 37, 0
9, 14303, Note_on_c, 9, 38, 127
9, 14303, Note_on_c, 9, 39, 127
9, 14303, Note_on_c, 9, 42, 77
9, 14318, Note_on_c, 9, 42, 0
9, 14318, Note_on_c, 9, 39, 0
9, 14318, Note_on_c, 9, 38, 0
9, 14327, Note_on_c, 9, 42, 77
9, 14344, Note_on_c, 9, 42, 0
9, 14351, Note_on_c, 9, 42, 77
9, 14351, Note_on_c, 9, 36, 127
9, 14363, Note_on_c, 9, 36, 0
9, 14363, Note_on_c, 9, 42, 0
9, 14375, Note_on_c, 9, 38, 127
9, 14375, Note_on_c, 9, 42, 77
9, 14388, Note_on_c, 9, 42, 0
9, 14388, Note_on_c, 9, 38, 0
9, 14399, Note_on_c, 9, 42, 77
9, 14399, Note_on_c, 9, 36, 127
9, 14413, Note_on_c, 9, 36, 0
9, 14413, Note_on_c, 9, 42, 0
9, 14423, Note_on_c, 9, 38, 127
9, 14423, Note_on_c, 9, 42, 77
9, 14439, Note_on_c, 9, 38, 0
9, 14440, Note_on_c, 9, 42, 0
9, 14447, Note_on_c, 9, 46, 77
9, 14447, Note_on_c, 9, 36, 127
9, 14459, Note_on_c, 9, 36, 0
9, 14459, Note_on_c, 9, 46, 0
9, 14495, Note_on_c, 9, 38, 127
9, 14495, Note_on_c, 9, 39, 127
9, 14511, Note_on_c, 9, 39, 0
9, 14511, Note_on_c, 9, 38, 0
9, 14519, Note_on_c, 9, 42, 77
9, 14536, Note_on_c, 9, 42, 0
9, 14543, Note_on_c, 9, 38, 127
9, 14543, Note_on_c, 9, 46, 77
9, 14543, Note_on_c, 9, 36, 127
9, 14555, Note_on_c, 9, 36, 0
9, 14555, Note_on_c, 9, 46, 0
9, 14555, Note_on_c, 9, 38, 0
9, 14567, Note_on_c, 9, 38, 127
9, 14581, Note_on_c, 9, 38, 0
9, 14591, Note_on_c, 9, 42, 77
9, 14591, Note_on_c, 9, 36, 127
9, 14606, Note_on_c, 9, 36, 0
9, 14606, Note_on_c, 9, 42, 0
9, 14615, Note_on_c, 9, 37, 127
9, 14615, Note_on_c, 9, 42, 77
9, 14627, Note_on_c, 9, 42, 0
9, 14627, Note_on_c, 9, 37, 0
9, 14639, Note_on_c, 9, 42, 77
9, 14652, Note_on_c, 9, 42, 0
9, 14663, Note_on_c, 9, 37, 127
9, 14663, Note_on_c, 9, 42, 77
9, 14663, Note_on_c, 9, 36, 127
9, 14678, Note_on_c, 9, 36, 0
9, 14678, Note_on_c, 9, 42, 0
9, 14678, Note_on_c, 9, 37, 0
9, 14687, Note_on_c, 9, 38, 127
9, 14687, Note_on_c, 9, 42, 77
9, 14703, Note_on_c, 9, 38, 0
9, 14704, Note_on_c, 9, 42, 0
9, 14711, Note_on_c, 9, 42, 77
9, 14723, Note_on_c, 9, 42, 0
9, 14735, Note_on_c, 9, 42, 77
9, 14735, Note_on_c, 9, 36, 127
9, 14749, Note_on_c, 9, 36, 0
9, 14749, Note_on_c, 9, 42, 0
9, 14759, Note_on_c, 9, 42, 77
9, 14775, Note_on_c, 9, 42, 0
9, 14783, Note_on_c, 9, 37, 127
9, 14783, Note_on_c, 9, 42, 77
9, 14800, Note_on_c, 9, 42, 0
9, 14800, Note_on_c, 9, 37, 0
9, 14807, Note_on_c, 9, 38, 127
9, 14807, Note_on_c, 9, 42, 77
9, 14819, Note_on_c, 9, 42, 0
9, 14819, Note_on_c, 9, 38, 0
9, 14831, Note_on_c, 9, 42, 77
9, 14831, Note_on_c, 9, 36, 127
9, 14844, Note_on_c, 9, 36, 0
9, 14844, Note_on_c, 9, 42, 0
9, 14855, Note_on_c, 9, 37, 127
9, 14855, Note_on_c, 9, 42, 77
9, 14871, Note_on_c, 9, 42, 0
9, 14871, Note_on_c, 9, 37, 0
9, 14879, Note_on_c, 9, 38, 127
9, 14879, Note_on_c, 9, 42, 77
9, 14895, Note_on_c, 9, 42, 0
9, 14895, Note_on_c, 9, 38, 0
9, 14903, Note_on_c, 9, 42, 77
9, 14903, Note_on_c, 9, 46, 77
9, 14916, Note_on_c, 9, 46, 0
9, 14916, Note_on_c, 9, 42, 0
9, 14927, Note_on_c, 9, 46, 77
9, 14941, Note_on_c, 9, 46, 0
9, 14975, Note_on_c, 9, 42, 77
9, 14975, Note_on_c, 9, 36, 127
9, 14992, Note_on_c, 9, 36, 0
9, 14992, Note_on_c, 9, 42, 0
9, 14999, Note_on_c, 9, 37, 127
9, 14999, Note_on_c, 9, 42, 77
9, 15011, Note_on_c, 9, 42, 0
9, 15011, Note_on_c, 9, 37, 0
9, 15023, Note_on_c, 9, 42, 77
9, 15037, Note_on_c, 9, 42, 0
9, 15047, Note_on_c, 9, 37, 127
9, 15047, Note_on_c, 9, 42, 77
9, 15047, Note_on_c, 9, 36, 127
9, 15062, Note_on_c, 9, 42, 0
9, 15062, Note_on_c, 9, 37, 0
9, 15063, Note_on_c, 9, 36, 0
9, 15071, Note_on_c, 9, 38, 127
9, 15071, Note_on_c, 9, 42, 77
9, 15087, Note_on_c, 9, 42, 0
9, 15087, Note_on_c, 9, 38, 0
9, 15095, Note_on_c, 9, 42, 77
9, 15107, Note_on_c, 9, 42, 0
9, 15119, Note_on_c, 9, 42, 77
9, 15119, Note_on_c, 9, 36, 127
9, 15132, Note_on_c, 9, 36, 0
9, 15132, Note_on_c, 9, 42, 0
9, 15143, Note_on_c, 9, 42, 77
9, 15158, Note_on_c, 9, 42, 0
9, 15167, Note_on_c, 9, 37, 127
9, 15167, Note_on_c, 9, 42, 77
9, 15183, Note_on_c, 9, 37, 0
9, 15184, Note_on_c, 9, 42, 0
9, 15191, Note_on_c, 9, 38, 127
9, 15191, Note_on_c, 9, 42, 77
9, 15203, Note_on_c, 9, 42, 0
9, 15203, Note_on_c, 9, 38, 0
9, 15215, Note_on_c, 9, 46, 77
9, 15215, Note_on_c, 9, 36, 127
9, 15228, Note_on_c, 9, 36, 0
9, 15229, Note_on_c, 9, 46, 0
9, 15239, Note_on_c, 9, 37, 127
9, 15255, Note_on_c, 9, 37, 0
9, 15263, Note_on_c, 9, 38, 127
9, 15263, Note_on_c, 9, 42, 77
9, 15279, Note_on_c, 9, 42, 0
9, 15279, Note_on_c, 9, 38, 0
9, 15287, Note_on_c, 9, 42, 77
9, 15299, Note_on_c, 9, 42, 0
9, 15311, Note_on_c, 9, 46, 77
9, 15325, Note_on_c, 9, 46, 0
9, 15335, Note_on_c, 9, 38, 127
9, 15351, Note_on_c, 9, 38, 0
9, 15359, Note_on_c, 9, 42, 77
9, 15359, Note_on_c, 9, 36, 127
9, 15375, Note_on_c, 9, 36, 0
9, 15375, Note_on_c, 9, 42, 0
9, 15383, Note_on_c, 9, 37, 127
9, 15383, Note_on_c, 9, 42, 77
9, 15395, Note_on_c, 9, 42, 0
9, 15395, Note_on_c, 9, 37, 0
9, 15407, Note_on_c, 9, 42, 77
9, 15420, Note_on_c, 9, 42, 0
9, 15431, Note_on_c, 9, 37, 127
9, 15431, Note_on_c, 9, 42, 77
9, 15431, Note_on_c, 9, 36, 127
9, 15447, Note_on_c, 9, 36, 0
9, 15447, Note_on_c, 9, 42, 0
9, 15447, Note_on_c, 9, 37, 0
9, 15455, Note_on_c, 9, 38, 127
9, 15455, Note_on_c, 9, 42, 77
9, 15471, Note_on_c, 9, 42, 0
9, 15471, Note_on_c, 9, 38, 0
9, 15479, Note_on_c, 9, 42, 77
9, 15491, Note_on_c, 9, 42, 0
9, 15503, Note_on_c, 9, 42, 77
9, 15503, Note_on_c, 9, 36, 127
9, 15517, Note_on_c, 9, 36, 0
9, 15517, Note_on_c, 9, 42, 0
9, 15527, Note_on_c, 9, 42, 77
9, 15543, Note_on_c, 9, 42, 0
9, 15551, Note_on_c, 9, 37, 127
9, 15551, Note_on_c, 9, 42, 77
9, 15567, Note_on_c, 9, 42, 0
9, 15567, Note_on_c, 9, 37, 0
9, 15575, Note_on_c, 9, 38, 127
9, 15575, Note_on_c, 9, 42, 77
9, 15587, Note_on_c, 9, 42, 0
9, 15587, Note_on_c, 9, 38, 0
9, 15599, Note_on_c, 9, 42, 77
9, 15599, Note_on_c, 9, 36, 127
9, 15612, Note_on_c, 9, 36, 0
9, 15612, Note_on_c, 9, 42, 0
9, 15623, Note_on_c, 9, 37, 127
9, 15623, Note_on_c, 9, 42, 77
9, 15639, Note_on_c, 9, 42, 0
9, 15639, Note_on_c, 9, 37, 0
9, 15647, Note_on_c, 9, 38, 127
9, 15647, Note_on_c, 9, 42, 77
9, 15663, Note_on_c, 9, 38, 0
9, 15664, Note_on_c, 9, 42, 0
9, 15671, Note_on_c, 9, 42, 77
9, 15671, Note_on_c, 9, 46, 77
9, 15683, Note_on_c, 9, 42, 0
9, 15684, Note_on_c, 9, 46, 0
9, 15695, Note_on_c, 9, 46, 77
9, 15709, Note_on_c, 9, 46, 0
9, 15743, Note_on_c, 9, 42, 77
9, 15743, Note_on_c, 9, 36, 127
9, 15760, Note_on_c, 9, 36, 0
9, 15760, Note_on_c, 9, 42, 0
9, 15767, Note_on_c, 9, 37, 127
9, 15767, Note_on_c, 9, 42, 77
9, 15779, Note_on_c, 9, 42, 0
9, 15779, Note_on_c, 9, 37, 0
9, 15791, Note_on_c, 9, 42, 77
9, 15804, Note_on_c, 9, 42, 0
9, 15815, Note_on_c, 9, 37, 127
9, 15815, Note_on_c, 9, 42, 77
9, 15815, Note_on_c, 9, 36, 127
9, 15830, Note_on_c, 9, 42, 0
9, 15830, Note_on_c, 9, 37, 0
9, 15831, Note_on_c, 9, 36, 0
9, 15839, Note_on_c, 9, 38, 127
9, 15839, Note_on_c, 9, 42, 77
9, 15855, Note_on_c, 9, 38, 0
9, 15856, Note_on_c, 9, 42, 0
9, 15863, Note_on_c, 9, 42, 77
9, 15874, Note_on_c, 9, 42, 0
9, 15887, Note_on_c, 9, 42, 77
9, 15887, Note_on_c, 9, 36, 127
9, 15900, Note_on_c, 9, 36, 0
9, 15900, Note_on_c, 9, 42, 0
9, 15911, Note_on_c, 9, 42, 77
9, 15926, Note_on_c, 9, 42, 0
9, 15935, Note_on_c, 9, 37, 127
9, 15935, Note_on_c, 9, 42, 77
9, 15951, Note_on_c, 9, 42, 0
9, 15951, Note_on_c, 9, 37, 0
9, 15959, Note_on_c, 9, 38, 127
9, 15959, Note_on_c, 9, 42, 77
9, 15971, Note_on_c, 9, 42, 0
9, 15971, Note_on_c, 9, 38, 0
9, 15983, Note_on_c, 9, 46, 77
9, 15983, Note_on_c, 9, 36, 127
9, 15996, Note_on_c, 9, 36, 0
9, 15997, Note_on_c, 9, 46, 0
9, 16007, Note_on_c, 9, 37, 127
9, 16024, Note_on_c, 9, 37, 0
9, 16031, Note_on_c, 9, 38, 127
9, 16031, Note_on_c, 9, 42, 77
9, 16047, Note_on_c, 9, 42, 0
9, 16048, Note_on_c, 9, 38, 0
9, 16055, Note_on_c, 9, 42, 77
9, 16066, Note_on_c, 9, 42, 0
9, 16079, Note_on_c, 9, 46, 77
9, 16092, Note_on_c, 9, 46, 0
9, 16103, Note_on_c, 9, 38, 127
9, 16119, Note_on_c, 9, 38, 0
9, 16127, Note_on_c, 9, 42, 77
9, 16127, Note_on_c, 9, 36, 127
9, 16142, Note_on_c, 9, 42, 0
9, 16143, Note_on_c, 9, 36, 0
9, 16151, Note_on_c, 9, 37, 127
9, 16151, Note_on_c, 9, 42, 77
9, 16163, Note_on_c, 9, 42, 0
9, 16163, Note_on_c, 9, 37, 0
9, 16175, Note_on_c, 9, 42, 77
9, 16189, Note_on_c, 9, 42, 0
9, 16199, Note_on_c, 9, 37, 127
9, 16199, Note_on_c, 9, 42, 77
9, 16199, Note_on_c, 9, 36, 127
9, 16215, Note_on_c, 9, 36, 0
9, 16215, Note_on_c, 9, 42, 0
9, 16215, Note_on_c, 9, 37, 0
9, 16223, Note_on_c, 9, 38, 127
9, 16223, Note_on_c, 9, 42, 77
9, 16240, Note_on_c, 9, 42, 0
9, 16240, Note_on_c, 9, 38, 0
9, 16247, Note_on_c, 9, 42, 77
9, 16259, Note_on_c, 9, 42, 0
9, 16271, Note_on_c, 9, 42, 77
9, 16271, Note_on_c, 9, 36, 127
9, 16285, Note_on_c, 9, 36, 0
9, 16285, Note_on_c, 9, 42, 0
9, 16295, Note_on_c, 9, 42, 77
9, 16311, Note_on_c, 9, 42, 0
9, 16319, Note_on_c, 9, 37, 127
9, 16319, Note_on_c, 9, 42, 77
9, 16335, Note_on_c, 9, 37, 0
9, 16336, Note_on_c, 9, 42, 0
9, 16343, Note_on_c, 9, 38, 127
9, 16343, Note_on_c, 9, 42, 77
9, 16355, Note_on_c, 9, 42, 0
9, 16355, Note_on_c, 9, 38, 0
9, 16367, Note_on_c, 9, 42, 77
9, 16367, Note_on_c, 9, 36, 127
9, 16380, Note_on_c, 9, 36, 0
9, 16381, Note_on_c, 9, 42, 0
9, 16391, Note_on_c, 9, 37, 127
9, 16391, Note_on_c, 9, 42, 77
9, 16407, Note_on_c, 9, 37, 0
9, 16408, Note_on_c, 9, 42, 0
9, 16415, Note_on_c, 9, 38, 127
9, 16415, Note_on_c, 9, 42, 77
9, 16432, Note_on_c, 9, 42, 0
9, 16432, Note_on_c, 9, 38, 0
9, 16439, Note_on_c, 9, 42, 77
9, 16439, Note_on_c, 9, 46, 77
9, 16451, Note_on_c, 9, 46, 0
9, 16451, Note_on_c, 9, 42, 0
9, 16463, Note_on_c, 9, 46, 77
9, 16476, Note_on_c, 9, 46, 0
9, 16511, Note_on_c, 9, 42, 77
9, 16511, Note_on_c, 9, 36, 127
9, 16527, Note_on_c, 9, 36, 0
9, 16527, Note_on_c, 9, 42, 0
9, 16535, Note_on_c, 9, 37, 127
9, 16535, Note_on_c, 9, 42, 77
9, 16547, Note_on_c, 9, 42, 0
9, 16547, Note_on_c, 9, 37, 0
9, 16559, Note_on_c, 9, 42, 77
9, 16573, Note_on_c, 9, 42, 0
9, 16583, Note_on_c, 9, 37, 127
9, 16583, Note_on_c, 9, 42, 77
9, 16583, Note_on_c, 9, 36, 127
9, 16598, Note_on_c, 9, 37, 0
9, 16599, Note_on_c, 9, 36, 0
9, 16599, Note_on_c, 9, 42, 0
9, 16607, Note_on_c, 9, 38, 127
9, 16607, Note_on_c, 9, 42, 77
9, 16624, Note_on_c, 9, 42, 0
9, 16624, Note_on_c, 9, 38, 0
9, 16631, Note_on_c, 9, 42, 77
9, 16643, Note_on_c, 9, 42, 0
9, 16655, Note_on_c, 9, 42, 77
9, 16655, Note_on_c, 9, 36, 127
9, 16668, Note_on_c, 9, 42, 0
9, 16669, Note_on_c, 9, 36, 0
9, 16679, Note_on_c, 9, 42, 77
9, 16694, Note_on_c, 9, 42, 0
9, 16703, Note_on_c, 9, 37, 127
9, 16703, Note_on_c, 9, 42, 77
9, 16720, Note_on_c, 9, 42, 0
9, 16720, Note_on_c, 9, 37, 0
9, 16727, Note_on_c, 9, 38, 127
9, 16727, Note_on_c, 9, 42, 77
9, 16739, Note_on_c, 9, 42, 0
9, 16739, Note_on_c, 9, 38, 0
9, 16751, Note_on_c, 9, 46, 77
9, 16751, Note_on_c, 9, 36, 127
9, 16765, Note_on_c, 9, 36, 0
9, 16765, Note_on_c, 9, 46, 0
9, 16775, Note_on_c, 9, 37, 127
9, 16792, Note_on_c, 9, 37, 0
9, 16799, Note_on_c, 9, 38, 127
9, 16799, Note_on_c, 9, 42, 77
9, 16815, Note_on_c, 9, 42, 0
9, 16816, Note_on_c, 9, 38, 0
9, 16823, Note_on_c, 9, 42, 77
9, 16835, Note_on_c, 9, 42, 0
9, 16847, Note_on_c, 9, 46, 77
9, 16860, Note_on_c, 9, 46, 0
9, 16871, Note_on_c, 9, 38, 127
9, 16887, Note_on_c, 9, 38, 0
9, 16895, Note_on_c, 9, 42, 77
9, 16895, Note_on_c, 9, 36, 127
9, 16911, Note_on_c, 9, 36, 0
9, 16911, Note_on_c, 9, 42, 0
9, 16919, Note_on_c, 9, 37, 127
9, 16919, Note_on_c, 9, 42, 77
9, 16931, Note_on_c, 9, 42, 0
9, 16931, Note_on_c, 9, 37, 0
9, 16943, Note_on_c, 9, 42, 77
9, 16957, Note_on_c, 9, 42, 0
9, 16967, Note_on_c, 9, 37, 127
9, 16967, Note_on_c, 9, 42, 77
9, 16967, Note_on_c, 9, 36, 127
9, 16983, Note_on_c, 9, 42, 0
9, 16983, Note_on_c, 9, 37, 0
9, 16984, Note_on_c, 9, 36, 0
9, 16991, Note_on_c, 9, 38, 127
9, 16991, Note_on_c, 9, 42, 77
9, 17008, Note_on_c, 9, 42, 0
9, 17008, Note_on_c, 9, 38, 0
9, 17015, Note_on_c, 9, 42, 77
9, 17027, Note_on_c, 9, 42, 0
9, 17039, Note_on_c, 9, 42, 77
9, 17039, Note_on_c, 9, 36, 127
9, 17052, Note_on_c, 9, 36, 0
9, 17052, Note_on_c, 9, 42, 0
9, 17063, Note_on_c, 9, 42, 77
9, 17079, Note_on_c, 9, 42, 0
9, 17087, Note_on_c, 9, 37, 127
9, 17087, Note_on_c, 9, 42, 77
9, 17103, Note_on_c, 9, 37, 0
9, 17104, Note_on_c, 9, 42, 0
9, 17111, Note_on_c, 9, 38, 127
9, 17111, Note_on_c, 9, 42, 77
9, 17123, Note_on_c, 9, 42, 0
9, 17123, Note_on_c, 9, 38, 0
9, 17135, Note_on_c, 9, 42, 77
9, 17135, Note_on_c, 9, 36, 127
9, 17149, Note_on_c, 9, 36, 0
9, 17149, Note_on_c, 9, 42, 0
9, 17159, Note_on_c, 9, 37, 127
9, 17159, Note_on_c, 9, 42, 77
9, 17174, Note_on_c, 9, 37, 0
9, 17175, Note_on_c, 9, 42, 0
9, 17183, Note_on_c, 9, 38, 127
9, 17183, Note_on_c, 9, 42, 77
9, 17200, Note_on_c, 9, 42, 0
9, 17200, Note_on_c, 9, 38, 0
9, 17207, Note_on_c, 9, 42, 77
9, 17207, Note_on_c, 9, 46, 77
9, 17219, Note_on_c, 9, 46, 0
9, 17219, Note_on_c, 9, 42, 0
9, 17231, Note_on_c, 9, 46, 77
9, 17244, Note_on_c, 9, 46, 0
9, 17279, Note_on_c, 9, 42, 77
9, 17279, Note_on_c, 9, 36, 127
9, 17295, Note_on_c, 9, 36, 0
9, 17295, Note_on_c, 9, 42, 0
9, 17303, Note_on_c, 9, 37, 127
9, 17303, Note_on_c, 9, 42, 77
9, 17315, Note_on_c, 9, 42, 0
9, 17315, Note_on_c, 9, 37, 0
9, 17327, Note_on_c, 9, 42, 77
9, 17341, Note_on_c, 9, 42, 0
9, 17351, Note_on_c, 9, 37, 127
9, 17351, Note_on_c, 9, 42, 77
9, 17351, Note_on_c, 9, 36, 127
9, 17366, Note_on_c, 9, 42, 0
9, 17366, Note_on_c, 9, 37, 0
9, 17367, Note_on_c, 9, 36, 0
9, 17375, Note_on_c, 9, 38, 127
9, 17375, Note_on_c, 9, 42, 77
9, 17391, Note_on_c, 9, 38, 0
9, 17392, Note_on_c, 9, 42, 0
9, 17399, Note_on_c, 9, 42, 77
9, 17411, Note_on_c, 9, 42, 0
9, 17423, Note_on_c, 9, 42, 77
9, 17423, Note_on_c, 9, 36, 127
9, 17436, Note_on_c, 9, 36, 0
9, 17436, Note_on_c, 9, 42, 0
9, 17447, Note_on_c, 9, 38, 127
9, 17447, Note_on_c, 9, 42, 77
9, 17464, Note_on_c, 9, 42, 0
9, 17464, Note_on_c, 9, 38, 0
9, 17471, Note_on_c, 9, 42, 77
9, 17471, Note_on_c, 9, 36, 127
9, 17486, Note_on_c, 9, 36, 0
9, 17487, Note_on_c, 9, 42, 0
9, 17495, Note_on_c, 9, 38, 127
9, 17495, Note_on_c, 9, 42, 77
9, 17507, Note_on_c, 9, 42, 0
9, 17507, Note_on_c, 9, 38, 0
9, 17519, Note_on_c, 9, 46, 77
9, 17519, Note_on_c, 9, 36, 127
9, 17533, Note_on_c, 9, 36, 0
9, 17533, Note_on_c, 9, 46, 0
9, 17567, Note_on_c, 9, 38, 127
9, 17567, Note_on_c, 9, 42, 77
9, 17583, Note_on_c, 9, 42, 0
9, 17583, Note_on_c, 9, 38, 0
9, 17591, Note_on_c, 9, 42, 77
9, 17604, Note_on_c, 9, 42, 0
9, 17615, Note_on_c, 9, 38, 127
9, 17615, Note_on_c, 9, 46, 77
9, 17628, Note_on_c, 9, 46, 0
9, 17628, Note_on_c, 9, 38, 0
9, 17639, Note_on_c, 9, 38, 127
9, 17655, Note_on_c, 9, 38, 0
9, 17663, Note_on_c, 9, 42, 77
9, 17663, Note_on_c, 9, 36, 127
9, 17678, Note_on_c, 9, 36, 0
9, 17678, Note_on_c, 9, 42, 0
9, 17687, Note_on_c, 9, 37, 127
9, 17687, Note_on_c, 9, 42, 77
9, 17699, Note_on_c, 9, 42, 0
9, 17699, Note_on_c, 9, 37, 0
9, 17711, Note_on_c, 9, 42, 77
9, 17725, Note_on_c, 9, 42, 0
9, 17735, Note_on_c, 9, 37, 127
9, 17735, Note_on_c, 9, 42, 77
9, 17735, Note_on_c, 9, 36, 127
9, 17750, Note_on_c, 9, 42, 0
9, 17750, Note_on_c, 9, 37, 0
9, 17751, Note_on_c, 9, 36, 0
9, 17759, Note_on_c, 9, 38, 127
9, 17759, Note_on_c, 9, 42, 77
9, 17776, Note_on_c, 9, 42, 0
9, 17776, Note_on_c, 9, 38, 0
9, 17783, Note_on_c, 9, 42, 77
9, 17795, Note_on_c, 9, 42, 0
9, 17807, Note_on_c, 9, 42, 77
9, 17807, Note_on_c, 9, 36, 127
9, 17820, Note_on_c, 9, 36, 0
9, 17820, Note_on_c, 9, 42, 0
9, 17831, Note_on_c, 9, 42, 77
9, 17847, Note_on_c, 9, 42, 0
9, 17855, Note_on_c, 9, 37, 127
9, 17855, Note_on_c, 9, 42, 77
9, 17871, Note_on_c, 9, 37, 0
9, 17872, Note_on_c, 9, 42, 0
9, 17879, Note_on_c, 9, 38, 127
9, 17879, Note_on_c, 9, 42, 77
9, 17891, Note_on_c, 9, 42, 0
9, 17891, Note_on_c, 9, 38, 0
9, 17903, Note_on_c, 9, 42, 77
9, 17903, Note_on_c, 9, 36, 127
9, 17917, Note_on_c, 9, 36, 0
9, 17917, Note_on_c, 9, 42, 0
9, 17927, Note_on_c, 9, 37, 127
9, 17927, Note_on_c, 9, 42, 77
9, 17942, Note_on_c, 9, 42, 0
9, 17942, Note_on_c, 9, 37, 0
9, 17951, Note_on_c, 9, 38, 127
9, 17951, Note_on_c, 9, 42, 77
9, 17968, Note_on_c, 9, 42, 0
9, 17968, Note_on_c, 9, 38, 0
9, 17975, Note_on_c, 9, 42, 77
9, 17975, Note_on_c, 9, 46, 77
9, 17987, Note_on_c, 9, 46, 0
9, 17987, Note_on_c, 9, 42, 0
9, 17999, Note_on_c, 9, 46, 77
9, 18012, Note_on_c, 9, 46, 0
9, 18047, Note_on_c, 9, 42, 77
9, 18047, Note_on_c, 9, 36, 127
9, 18063, Note_on_c, 9, 36, 0
9, 18063, Note_on_c, 9, 42, 0
9, 18071, Note_on_c, 9, 37, 127
9, 18071, Note_on_c, 9, 42, 77
9, 18082, Note_on_c, 9, 37, 0
9, 18083, Note_on_c, 9, 42, 0
9, 18095, Note_on_c, 9, 42, 77
9, 18109, Note_on_c, 9, 42, 0
9, 18119, Note_on_c, 9, 37, 127
9, 18119, Note_on_c, 9, 42, 77
9, 18119, Note_on_c, 9, 36, 127
9, 18134, Note_on_c, 9, 36, 0
9, 18134, Note_on_c, 9, 42, 0
9, 18134, Note_on_c, 9, 37, 0
9, 18143, Note_on_c, 9, 38, 127
9, 18143, Note_on_c, 9, 42, 77
9, 18160, Note_on_c, 9, 42, 0
9, 18160, Note_on_c, 9, 38, 0
9, 18167, Note_on_c, 9, 42, 77
9, 18179, Note_on_c, 9, 42, 0
9, 18191, Note_on_c, 9, 42, 77
9, 18191, Note_on_c, 9, 36, 127
9, 18203, Note_on_c, 9, 42, 0
9, 18204, Note_on_c, 9, 36, 0
9, 18215, Note_on_c, 9, 42, 77
9, 18231, Note_on_c, 9, 42, 0
9, 18239, Note_on_c, 9, 37, 127
9, 18239, Note_on_c, 9, 42, 77
9, 18255, Note_on_c, 9, 37, 0
9, 18256, Note_on_c, 9, 42, 0
9, 18263, Note_on_c, 9, 38, 127
9, 18263, Note_on_c, 9, 42, 77
9, 18275, Note_on_c, 9, 42, 0
9, 18275, Note_on_c, 9, 38, 0
9, 18287, Note_on_c, 9, 46, 77
9, 18287, Note_on_c, 9, 36, 127
9, 18300, Note_on_c, 9, 46, 0
9, 18301, Note_on_c, 9, 36, 0
9, 18311, Note_on_c, 9, 37, 127
9, 18326, Note_on_c, 9, 37, 0
9, 18335, Note_on_c, 9, 38, 127
9, 18335, Note_on_c, 9, 42, 77
9, 18351, Note_on_c, 9, 42, 0
9, 18351, Note_on_c, 9, 38, 0
9, 18359, Note_on_c, 9, 42, 77
9, 18372, Note_on_c, 9, 42, 0
9, 18383, Note_on_c, 9, 46, 77
9, 18399, Note_on_c, 9, 46, 0
9, 18407, Note_on_c, 9, 38, 127
9, 18424, Note_on_c, 9, 38, 0
9, 18431, Note_on_c, 9, 42, 77
9, 18431, Note_on_c, 9, 36, 127
9, 18446, Note_on_c, 9, 36, 0
9, 18446, Note_on_c, 9, 42, 0
9, 18455, Note_on_c, 9, 37, 127
9, 18455, Note_on_c, 9, 42, 77
9, 18472, Note_on_c, 9, 42, 0
9, 18472, Note_on_c, 9, 37, 0
9, 18479, Note_on_c, 9, 42, 77
9, 18491, Note_on_c, 9, 42, 0
9, 18503, Note_on_c, 9, 37, 127
9, 18503, Note_on_c, 9, 42, 77
9, 18503, Note_on_c, 9, 36, 127
9, 18516, Note_on_c, 9, 36, 0
9, 18516, Note_on_c, 9, 42, 0
9, 18516, Note_on_c, 9, 37, 0
9, 18527, Note_on_c, 9, 38, 127
9, 18527, Note_on_c, 9, 42, 77
9, 18543, Note_on_c, 9, 42, 0
9, 18543, Note_on_c, 9, 38, 0
9, 18551, Note_on_c, 9, 42, 77
9, 18568, Note_on_c, 9, 42, 0
9, 18575, Note_on_c, 9, 42, 77
9, 18575, Note_on_c, 9, 36, 127
9, 18587, Note_on_c, 9, 36, 0
9, 18587, Note_on_c, 9, 42, 0
9, 18599, Note_on_c, 9, 42, 77
9, 18613, Note_on_c, 9, 42, 0
9, 18623, Note_on_c, 9, 37, 127
9, 18623, Note_on_c, 9, 42, 77
9, 18639, Note_on_c, 9, 42, 0
9, 18639, Note_on_c, 9, 37, 0
9, 18647, Note_on_c, 9, 38, 127
9, 18647, Note_on_c, 9, 42, 77
9, 18663, Note_on_c, 9, 38, 0
9, 18664, Note_on_c, 9, 42, 0
9, 18671, Note_on_c, 9, 42, 77
9, 18671, Note_on_c, 9, 36, 127
9, 18683, Note_on_c, 9, 36, 0
9, 18683, Note_on_c, 9, 42, 0
9, 18695, Note_on_c, 9, 37, 127
9, 18695, Note_on_c, 9, 42, 77
9, 18709, Note_on_c, 9, 42, 0
9, 18709, Note_on_c, 9, 37, 0
9, 18719, Note_on_c, 9, 38, 127
9, 18719, Note_on_c, 9, 42, 77
9, 18735, Note_on_c, 9, 42, 0
9, 18735, Note_on_c, 9, 38, 0
9, 18743, Note_on_c, 9, 42, 77
9, 18743, Note_on_c, 9, 46, 77
9, 18759, Note_on_c, 9, 42, 0
9, 18760, Note_on_c, 9, 46, 0
9, 18767, Note_on_c, 9, 46, 77
9, 18779, Note_on_c, 9, 46, 0
9, 18815, Note_on_c, 9, 42, 77
9, 18815, Note_on_c, 9, 36, 127
9, 18830, Note_on_c, 9, 36, 0
9, 18830, Note_on_c, 9, 42, 0
9, 18839, Note_on_c, 9, 37, 127
9, 18839, Note_on_c, 9, 42, 77
9, 18855, Note_on_c, 9, 42, 0
9, 18855, Note_on_c, 9, 37, 0
9, 18863, Note_on_c, 9, 42, 77
9, 18875, Note_on_c, 9, 42, 0
9, 18887, Note_on_c, 9, 37, 127
9, 18887, Note_on_c, 9, 42, 77
9, 18887, Note_on_c, 9, 36, 127
9, 18900, Note_on_c, 9, 36, 0
9, 18900, Note_on_c, 9, 42, 0
9, 18900, Note_on_c, 9, 37, 0
9, 18911, Note_on_c, 9, 38, 127
9, 18911, Note_on_c, 9, 42, 77
9, 18927, Note_on_c, 9, 42, 0
9, 18928, Note_on_c, 9, 38, 0
9, 18935, Note_on_c, 9, 42, 77
9, 18952, Note_on_c, 9, 42, 0
9, 18959, Note_on_c, 9, 42, 77
9, 18959, Note_on_c, 9, 36, 127
9, 18972, Note_on_c, 9, 36, 0
9, 18972, Note_on_c, 9, 42, 0
9, 18983, Note_on_c, 9, 38, 127
9, 18983, Note_on_c, 9, 42, 77
9, 19000, Note_on_c, 9, 42, 0
9, 19000, Note_on_c, 9, 38, 0
9, 19007, Note_on_c, 9, 42, 77
9, 19007, Note_on_c, 9, 36, 127
9, 19023, Note_on_c, 9, 36, 0
9, 19023, Note_on_c, 9, 42, 0
9, 19031, Note_on_c, 9, 38, 127
9, 19031, Note_on_c, 9, 42, 77
9, 19043, Note_on_c, 9, 42, 0
9, 19043, Note_on_c, 9, 38, 0
9, 19055, Note_on_c, 9, 46, 77
9, 19055, Note_on_c, 9, 36, 127
9, 19068, Note_on_c, 9, 36, 0
9, 19068, Note_on_c, 9, 46, 0
9, 19103, Note_on_c, 9, 38, 127
9, 19103, Note_on_c, 9, 42, 77
9, 19119, Note_on_c, 9, 42, 0
9, 19119, Note_on_c, 9, 38, 0
9, 19127, Note_on_c, 9, 42, 77
9, 19139, Note_on_c, 9, 42, 0
9, 19151, Note_on_c, 9, 38, 127
9, 19151, Note_on_c, 9, 46, 77
9, 19165, Note_on_c, 9, 46, 0
9, 19165, Note_on_c, 9, 38, 0
9, 19175, Note_on_c, 9, 38, 127
9, 19192, Note_on_c, 9, 38, 0
9, 19199, Note_on_c, 9, 42, 77
9, 19199, Note_on_c, 9, 36, 127
9, 19215, Note_on_c, 9, 36, 0
9, 19215, Note_on_c, 9, 42, 0
9, 19223, Note_on_c, 9, 37, 127
9, 19223, Note_on_c, 9, 42, 77
9, 19235, Note_on_c, 9, 37, 0
9, 19236, Note_on_c, 9, 42, 0
9, 19247, Note_on_c, 9, 42, 77
9, 19260, Note_on_c, 9, 42, 0
9, 19271, Note_on_c, 9, 37, 127
9, 19271, Note_on_c, 9, 42, 77
9, 19271, Note_on_c, 9, 36, 127
9, 19287, Note_on_c, 9, 36, 0
9, 19287, Note_on_c, 9, 42, 0
9, 19287, Note_on_c, 9, 37, 0
9, 19295, Note_on_c, 9, 38, 127
9, 19295, Note_on_c, 9, 42, 77
9, 19312, Note_on_c, 9, 42, 0
9, 19312, Note_on_c, 9, 38, 0
9, 19319, Note_on_c, 9, 42, 77
9, 19331, Note_on_c, 9, 42, 0
9, 19343, Note_on_c, 9, 42, 77
9, 19343, Note_on_c, 9, 36, 127
9, 19357, Note_on_c, 9, 36, 0
9, 19357, Note_on_c, 9, 42, 0
9, 19367, Note_on_c, 9, 42, 77
9, 19382, Note_on_c, 9, 42, 0
9, 19391, Note_on_c, 9, 37, 127
9, 19391, Note_on_c, 9, 42, 77
9, 19408, Note_on_c, 9, 37, 0
9, 19409, Note_on_c, 9, 42, 0
9, 19415, Note_on_c, 9, 42, 77
9, 19427, Note_on_c, 9, 42, 0
9, 19439, Note_on_c, 9, 42, 77
9, 19439, Note_on_c, 9, 36, 127
9, 19452, Note_on_c, 9, 36, 0
9, 19452, Note_on_c, 9, 42, 0
9, 19463, Note_on_c, 9, 37, 127
9, 19463, Note_on_c, 9, 42, 77
9, 19478, Note_on_c, 9, 42, 0
9, 19478, Note_on_c, 9, 37, 0
9, 19487, Note_on_c, 9, 38, 127
9, 19487, Note_on_c, 9, 42, 77
9, 19504, Note_on_c, 9, 42, 0
9, 19504, Note_on_c, 9, 38, 0
9, 19511, Note_on_c, 9, 42, 77
9, 19511, Note_on_c, 9, 46, 77
9, 19523, Note_on_c, 9, 46, 0
9, 19523, Note_on_c, 9, 42, 0
9, 19535, Note_on_c, 9, 46, 77
9, 19549, Note_on_c, 9, 46, 0
9, 19583, Note_on_c, 9, 42, 77
9, 19583, Note_on_c, 9, 36, 127
9, 19599, Note_on_c, 9, 36, 0
9, 19599, Note_on_c, 9, 42, 0
9, 19607, Note_on_c, 9, 37, 127
9, 19607, Note_on_c, 9, 42, 77
9, 19619, Note_on_c, 9, 42, 0
9, 19619, Note_on_c, 9, 37, 0
9, 19631, Note_on_c, 9, 42, 77
9, 19645, Note_on_c, 9, 42, 0
9, 19655, Note_on_c, 9, 37, 127
9, 19655, Note_on_c, 9, 42, 77
9, 19655, Note_on_c, 9, 36, 127
9, 19671, Note_on_c, 9, 36, 0
9, 19671, Note_on_c, 9, 42, 0
9, 19671, Note_on_c, 9, 37, 0
9, 19679, Note_on_c, 9, 38, 127
9, 19679, Note_on_c, 9, 42, 77
9, 19695, Note_on_c, 9, 42, 0
9, 19695, Note_on_c, 9, 38, 0
9, 19703, Note_on_c, 9, 42, 77
9, 19715, Note_on_c, 9, 42, 0
9, 19727, Note_on_c, 9, 42, 77
9, 19727, Note_on_c, 9, 36, 127
9, 19741, Note_on_c, 9, 36, 0
9, 19741, Note_on_c, 9, 42, 0
9, 19751, Note_on_c, 9, 42, 77
9, 19767, Note_on_c, 9, 42, 0
9, 19775, Note_on_c, 9, 42, 77
9, 19792, Note_on_c, 9, 42, 0
9, 19799, Note_on_c, 9, 42, 77
9, 19811, Note_on_c, 9, 42, 0
9, 19823, Note_on_c, 9, 46, 77
9, 19823, Note_on_c, 9, 36, 127
9, 19836, Note_on_c, 9, 36, 0
9, 19836, Note_on_c, 9, 46, 0
9, 19847, Note_on_c, 9, 37, 127
9, 19863, Note_on_c, 9, 37, 0
9, 19871, Note_on_c, 9, 38, 127
9, 19871, Note_on_c, 9, 42, 77
9, 19887, Note_on_c, 9, 42, 0
9, 19887, Note_on_c, 9, 38, 0
9, 19895, Note_on_c, 9, 42, 77
9, 19907, Note_on_c, 9, 42, 0
9, 19919, Note_on_c, 9, 46, 77
9, 19933, Note_on_c, 9, 46, 0
9, 19943, Note_on_c, 9, 38, 127
9, 19958, Note_on_c, 9, 38, 0
9, 19967, Note_on_c, 9, 42, 77
9, 19967, Note_on_c, 9, 36, 127
9, 19983, Note_on_c, 9, 36, 0
9, 19983, Note_on_c, 9, 42, 0
9, 19991, Note_on_c, 9, 37, 127
9, 19991, Note_on_c, 9, 42, 77
9, 20003, Note_on_c, 9, 37, 0
9, 20004, Note_on_c, 9, 42, 0
9, 20015, Note_on_c, 9, 42, 77
9, 20029, Note_on_c, 9, 42, 0
9, 20039, Note_on_c, 9, 37, 127
9, 20039, Note_on_c, 9, 42, 77
9, 20039, Note_on_c, 9, 36, 127
9, 20055, Note_on_c, 9, 36, 0
9, 20055, Note_on_c, 9, 42, 0
9, 20055, Note_on_c, 9, 37, 0
9, 20063, Note_on_c, 9, 38, 127
9, 20063, Note_on_c, 9, 42, 77
9, 20079, Note_on_c, 9, 42, 0
9, 20079, Note_on_c, 9, 38, 0
9, 20087, Note_on_c, 9, 42, 77
9, 20099, Note_on_c, 9, 42, 0
9, 20111, Note_on_c, 9, 42, 77
9, 20111, Note_on_c, 9, 36, 127
9, 20125, Note_on_c, 9, 36, 0
9, 20125, Note_on_c, 9, 42, 0
9, 20135, Note_on_c, 9, 42, 77
9, 20151, Note_on_c, 9, 42, 0
9, 20159, Note_on_c, 9, 37, 127
9, 20159, Note_on_c, 9, 42, 77
9, 20175, Note_on_c, 9, 37, 0
9, 20176, Note_on_c, 9, 42, 0
9, 20183, Note_on_c, 9, 42, 77
9, 20195, Note_on_c, 9, 42, 0
9, 20207, Note_on_c, 9, 42, 77
9, 20207, Note_on_c, 9, 36, 127
9, 20220, Note_on_c, 9, 36, 0
9, 20220, Note_on_c, 9, 42, 0
9, 20231, Note_on_c, 9, 37, 127
9, 20231, Note_on_c, 9, 42, 77
9, 20246, Note_on_c, 9, 37, 0
9, 20248, Note_on_c, 9, 42, 0
9, 20255, Note_on_c, 9, 38, 127
9, 20255, Note_on_c, 9, 42, 77
9, 20271, Note_on_c, 9, 38, 0
9, 20272, Note_on_c, 9, 42, 0
9, 20279, Note_on_c, 9, 42, 77
9, 20279, Note_on_c, 9, 46, 77
9, 20291, Note_on_c, 9, 46, 0
9, 20292, Note_on_c, 9, 42, 0
9, 20303, Note_on_c, 9, 46, 77
9, 20317, Note_on_c, 9, 46, 0
9, 20351, Note_on_c, 9, 42, 77
9, 20351, Note_on_c, 9, 36, 127
9, 20367, Note_on_c, 9, 36, 0
9, 20367, Note_on_c, 9, 42, 0
9, 20375, Note_on_c, 9, 37, 127
9, 20375, Note_on_c, 9, 42, 77
9, 20387, Note_on_c, 9, 42, 0
9, 20387, Note_on_c, 9, 37, 0
9, 20399, Note_on_c, 9, 42, 77
9, 20412, Note_on_c, 9, 42, 0
9, 20423, Note_on_c, 9, 37, 127
9, 20423, Note_on_c, 9, 42, 77
9, 20423, Note_on_c, 9, 36, 127
9, 20438, Note_on_c, 9, 37, 0
9, 20439, Note_on_c, 9, 36, 0
9, 20440, Note_on_c, 9, 42, 0
9, 20447, Note_on_c, 9, 38, 127
9, 20447, Note_on_c, 9, 42, 77
9, 20463, Note_on_c, 9, 38, 0
9, 20464, Note_on_c, 9, 42, 0
9, 20471, Note_on_c, 9, 42, 77
9, 20483, Note_on_c, 9, 42, 0
9, 20495, Note_on_c, 9, 42, 77
9, 20495, Note_on_c, 9, 36, 127
9, 20509, Note_on_c, 9, 36, 0
9, 20509, Note_on_c, 9, 42, 0
9, 20519, Note_on_c, 9, 42, 77
9, 20535, Note_on_c, 9, 42, 0
9, 20543, Note_on_c, 9, 42, 77
9, 20560, Note_on_c, 9, 42, 0
9, 20567, Note_on_c, 9, 42, 77
9, 20579, Note_on_c, 9, 42, 0
9, 20591, Note_on_c, 9, 46, 77
9, 20591, Note_on_c, 9, 36, 127
9, 20604, Note_on_c, 9, 36, 0
9, 20604, Note_on_c, 9, 46, 0
9, 20615, Note_on_c, 9, 37, 127
9, 20631, Note_on_c, 9, 37, 0
9, 20639, Note_on_c, 9, 38, 127
9, 20639, Note_on_c, 9, 42, 77
9, 20655, Note_on_c, 9, 38, 0
9, 20656, Note_on_c, 9, 42, 0
9, 20663, Note_on_c, 9, 42, 77
9, 20676, Note_on_c, 9, 42, 0
9, 20687, Note_on_c, 9, 46, 77
9, 20700, Note_on_c, 9, 46, 0
9, 20711, Note_on_c, 9, 38, 127
9, 20727, Note_on_c, 9, 38, 0
9, 20735, Note_on_c, 9, 42, 77
9, 20735, Note_on_c, 9, 36, 127
9, 20751, Note_on_c, 9, 36, 0
9, 20751, Note_on_c, 9, 42, 0
9, 20759, Note_on_c, 9, 37, 127
9, 20759, Note_on_c, 9, 42, 77
9, 20771, Note_on_c, 9, 42, 0
9, 20771, Note_on_c, 9, 37, 0
9, 20783, Note_on_c, 9, 42, 77
9, 20796, Note_on_c, 9, 42, 0
9, 20807, Note_on_c, 9, 37, 127
9, 20807, Note_on_c, 9, 42, 77
9, 20807, Note_on_c, 9, 36, 127
9, 20822, Note_on_c, 9, 37, 0
9, 20823, Note_on_c, 9, 36, 0
9, 20823, Note_on_c, 9, 42, 0
9, 20831, Note_on_c, 9, 38, 127
9, 20831, Note_on_c, 9, 42, 77
9, 20848, Note_on_c, 9, 42, 0
9, 20848, Note_on_c, 9, 38, 0
9, 20855, Note_on_c, 9, 42, 77
9, 20866, Note_on_c, 9, 42, 0
9, 20879, Note_on_c, 9, 42, 77
9, 20879, Note_on_c, 9, 36, 127
9, 20893, Note_on_c, 9, 36, 0
9, 20893, Note_on_c, 9, 42, 0
9, 20903, Note_on_c, 9, 42, 77
9, 20918, Note_on_c, 9, 42, 0
9, 20927, Note_on_c, 9, 37, 127
9, 20927, Note_on_c, 9, 42, 77
9, 20944, Note_on_c, 9, 42, 0
9, 20944, Note_on_c, 9, 37, 0
9, 20951, Note_on_c, 9, 42, 77
9, 20963, Note_on_c, 9, 42, 0
9, 20975, Note_on_c, 9, 42, 77
9, 20975, Note_on_c, 9, 36, 127
9, 20989, Note_on_c, 9, 36, 0
9, 20989, Note_on_c, 9, 42, 0
9, 20999, Note_on_c, 9, 37, 127
9, 20999, Note_on_c, 9, 42, 77
9, 21014, Note_on_c, 9, 37, 0
9, 21015, Note_on_c, 9, 42, 0
9, 21023, Note_on_c, 9, 38, 127
9, 21023, Note_on_c, 9, 42, 77
9, 21039, Note_on_c, 9, 38, 0
9, 21040, Note_on_c, 9, 42, 0
9, 21047, Note_on_c, 9, 42, 77
9, 21047, Note_on_c, 9, 46, 77
9, 21058, Note_on_c, 9, 46, 0
9, 21059, Note_on_c, 9, 42, 0
9, 21071, Note_on_c, 9, 46, 77
9, 21084, Note_on_c, 9, 46, 0
9, 21119, Note_on_c, 9, 42, 77
9, 21119, Note_on_c, 9, 36, 127
9, 21135, Note_on_c, 9, 36, 0
9, 21135, Note_on_c, 9, 42, 0
9, 21143, Note_on_c, 9, 37, 127
9, 21143, Note_on_c, 9, 42, 77
9, 21155, Note_on_c, 9, 42, 0
9, 21155, Note_on_c, 9, 37, 0
9, 21167, Note_on_c, 9, 42, 77
9, 21181, Note_on_c, 9, 42, 0
9, 21191, Note_on_c, 9, 37, 127
9, 21191, Note_on_c, 9, 42, 77
9, 21191, Note_on_c, 9, 36, 127
9, 21207, Note_on_c, 9, 36, 0
9, 21207, Note_on_c, 9, 42, 0
9, 21207, Note_on_c, 9, 37, 0
9, 21215, Note_on_c, 9, 38, 127
9, 21215, Note_on_c, 9, 42, 77
9, 21232, Note_on_c, 9, 42, 0
9, 21232, Note_on_c, 9, 38, 0
9, 21239, Note_on_c, 9, 42, 77
9, 21251, Note_on_c, 9, 42, 0
9, 21263, Note_on_c, 9, 42, 77
9, 21263, Note_on_c, 9, 36, 127
9, 21277, Note_on_c, 9, 36, 0
9, 21277, Note_on_c, 9, 42, 0
9, 21287, Note_on_c, 9, 42, 77
9, 21303, Note_on_c, 9, 42, 0
9, 21311, Note_on_c, 9, 42, 77
9, 21327, Note_on_c, 9, 42, 0
9, 21335, Note_on_c, 9, 42, 77
9, 21347, Note_on_c, 9, 42, 0
9, 21359, Note_on_c, 9, 46, 77
9, 21359, Note_on_c, 9, 36, 127
9, 21373, Note_on_c, 9, 36, 0
9, 21373, Note_on_c, 9, 46, 0
9, 21383, Note_on_c, 9, 37, 127
9, 21398, Note_on_c, 9, 37, 0
9, 21407, Note_on_c, 9, 38, 127
9, 21407, Note_on_c, 9, 42, 77
9, 21424, Note_on_c, 9, 42, 0
9, 21424, Note_on_c, 9, 38, 0
9, 21431, Note_on_c, 9, 42, 77
9, 21443, Note_on_c, 9, 42, 0
9, 21455, Note_on_c, 9, 46, 77
9, 21468, Note_on_c, 9, 46, 0
9, 21479, Note_on_c, 9, 38, 127
9, 21494, Note_on_c, 9, 38, 0
9, 21503, Note_on_c, 9, 42, 77
9, 21503, Note_on_c, 9, 36, 127
9, 21519, Note_on_c, 9, 36, 0
9, 21519, Note_on_c, 9, 42, 0
9, 21527, Note_on_c, 9, 37, 127
9, 21527, Note_on_c, 9, 42, 77
9, 21539, Note_on_c, 9, 37, 0
9, 21540, Note_on_c, 9, 42, 0
9, 21551, Note_on_c, 9, 42, 77
9, 21565, Note_on_c, 9, 42, 0
9, 21575, Note_on_c, 9, 37, 127
9, 21575, Note_on_c, 9, 42, 77
9, 21575, Note_on_c, 9, 36, 127
9, 21590, Note_on_c, 9, 37, 0
9, 21591, Note_on_c, 9, 36, 0
9, 21591, Note_on_c, 9, 42, 0
9, 21599, Note_on_c, 9, 38, 127
9, 21599, Note_on_c, 9, 42, 77
9, 21617, Note_on_c, 9, 42, 0
9, 21617, Note_on_c, 9, 38, 0
9, 21623, Note_on_c, 9, 42, 77
9, 21635, Note_on_c, 9, 42, 0
9, 21647, Note_on_c, 9, 42, 77
9, 21647, Note_on_c, 9, 36, 127
9, 21661, Note_on_c, 9, 36, 0
9, 21661, Note_on_c, 9, 42, 0
9, 21671, Note_on_c, 9, 42, 77
9, 21687, Note_on_c, 9, 42, 0
9, 21695, Note_on_c, 9, 37, 127
9, 21695, Note_on_c, 9, 42, 77
9, 21711, Note_on_c, 9, 37, 0
9, 21712, Note_on_c, 9, 42, 0
9, 21719, Note_on_c, 9, 42, 77
9, 21731, Note_on_c, 9, 42, 0
9, 21743, Note_on_c, 9, 42, 77
9, 21743, Note_on_c, 9, 36, 127
9, 21757, Note_on_c, 9, 36, 0
9, 21757, Note_on_c, 9, 42, 0
9, 21767, Note_on_c, 9, 37, 127
9, 21767, Note_on_c, 9, 42, 77
9, 21783, Note_on_c, 9, 37, 0
9, 21784, Note_on_c, 9, 42, 0
9, 21791, Note_on_c, 9, 38, 127
9, 21791, Note_on_c, 9, 42, 77
9, 21808, Note_on_c, 9, 42, 0
9, 21808, Note_on_c, 9, 38, 0
9, 21815, Note_on_c, 9, 42, 77
9, 21815, Note_on_c, 9, 46, 77
9, 21827, Note_on_c, 9, 46, 0
9, 21827, Note_on_c, 9, 42, 0
9, 21839, Note_on_c, 9, 46, 77
9, 21853, Note_on_c, 9, 46, 0
9, 21887, Note_on_c, 9, 42, 77
9, 21887, Note_on_c, 9, 36, 127
9, 21903, Note_on_c, 9, 36, 0
9, 21903, Note_on_c, 9, 42, 0
9, 21911, Note_on_c, 9, 37, 127
9, 21911, Note_on_c, 9, 42, 77
9, 21923, Note_on_c, 9, 42, 0
9, 21923, Note_on_c, 9, 37, 0
9, 21935, Note_on_c, 9, 42, 77
9, 21949, Note_on_c, 9, 42, 0
9, 21959, Note_on_c, 9, 37, 127
9, 21959, Note_on_c, 9, 42, 77
9, 21959, Note_on_c, 9, 36, 127
9, 21975, Note_on_c, 9, 42, 0
9, 21975, Note_on_c, 9, 37, 0
9, 21976, Note_on_c, 9, 36, 0
9, 21983, Note_on_c, 9, 38, 127
9, 21983, Note_on_c, 9, 42, 77
9, 22000, Note_on_c, 9, 42, 0
9, 22000, Note_on_c, 9, 38, 0
9, 22007, Note_on_c, 9, 42, 77
9, 22020, Note_on_c, 9, 42, 0
9, 22031, Note_on_c, 9, 42, 77
9, 22031, Note_on_c, 9, 36, 127
9, 22044, Note_on_c, 9, 36, 0
9, 22044, Note_on_c, 9, 42, 0
9, 22055, Note_on_c, 9, 42, 77
9, 22071, Note_on_c, 9, 42, 0
9, 22079, Note_on_c, 9, 42, 77
9, 22095, Note_on_c, 9, 42, 0
9, 22103, Note_on_c, 9, 38, 127
9, 22103, Note_on_c, 9, 42, 77
9, 22115, Note_on_c, 9, 42, 0
9, 22115, Note_on_c, 9, 38, 0
9, 22127, Note_on_c, 9, 46, 77
9, 22127, Note_on_c, 9, 36, 127
9, 22141, Note_on_c, 9, 36, 0
9, 22141, Note_on_c, 9, 46, 0
9, 22151, Note_on_c, 9, 37, 127
9, 22166, Note_on_c, 9, 37, 0
9, 22175, Note_on_c, 9, 38, 127
9, 22175, Note_on_c, 9, 42, 77
9, 22192, Note_on_c, 9, 42, 0
9, 22192, Note_on_c, 9, 38, 0
9, 22199, Note_on_c, 9, 42, 77
9, 22211, Note_on_c, 9, 42, 0
9, 22223, Note_on_c, 9, 46, 77
9, 22236, Note_on_c, 9, 46, 0
9, 22247, Note_on_c, 9, 38, 127
9, 22263, Note_on_c, 9, 38, 0
9, 22271, Note_on_c, 9, 42, 77
9, 22271, Note_on_c, 9, 36, 127
9, 22287, Note_on_c, 9, 36, 0
9, 22287, Note_on_c, 9, 42, 0
9, 22295, Note_on_c, 9, 37, 127
9, 22295, Note_on_c, 9, 42, 77
9, 22306, Note_on_c, 9, 37, 0
9, 22307, Note_on_c, 9, 42, 0
9, 22319, Note_on_c, 9, 42, 77
9, 22333, Note_on_c, 9, 42, 0
9, 22343, Note_on_c, 9, 37, 127
9, 22343, Note_on_c, 9, 42, 77
9, 22343, Note_on_c, 9, 36, 127
9, 22358, Note_on_c, 9, 37, 0
9, 22359, Note_on_c, 9, 36, 0
9, 22359, Note_on_c, 9, 42, 0
9, 22367, Note_on_c, 9, 39, 127
9, 22367, Note_on_c, 9, 42, 77
9, 22384, Note_on_c, 9, 42, 0
9, 22384, Note_on_c, 9, 39, 0
9, 22391, Note_on_c, 9, 42, 77
9, 22403, Note_on_c, 9, 42, 0
9, 22415, Note_on_c, 9, 42, 77
9, 22415, Note_on_c, 9, 36, 127
9, 22428, Note_on_c, 9, 36, 0
9, 22428, Note_on_c, 9, 42, 0
9, 22439, Note_on_c, 9, 42, 77
9, 22455, Note_on_c, 9, 42, 0
9, 22463, Note_on_c, 9, 37, 127
9, 22463, Note_on_c, 9, 42, 77
9, 22480, Note_on_c, 9, 42, 0
9, 22480, Note_on_c, 9, 37, 0
9, 22487, Note_on_c, 9, 42, 77
9, 22499, Note_on_c, 9, 42, 0
9, 22511, Note_on_c, 9, 42, 77
9, 22511, Note_on_c, 9, 36, 127
9, 22525, Note_on_c, 9, 36, 0
9, 22525, Note_on_c, 9, 42, 0
9, 22535, Note_on_c, 9, 37, 127
9, 22535, Note_on_c, 9, 42, 77
9, 22551, Note_on_c, 9, 42, 0
9, 22551, Note_on_c, 9, 37, 0
9, 22559, Note_on_c, 9, 39, 127
9, 22559, Note_on_c, 9, 42, 77
9, 22575, Note_on_c, 9, 42, 0
9, 22576, Note_on_c, 9, 39, 0
9, 22583, Note_on_c, 9, 42, 77
9, 22583, Note_on_c, 9, 46, 77
9, 22595, Note_on_c, 9, 42, 0
9, 22596, Note_on_c, 9, 46, 0
9, 22607, Note_on_c, 9, 46, 77
9, 22621, Note_on_c, 9, 46, 0
9, 22655, Note_on_c, 9, 42, 77
9, 22655, Note_on_c, 9, 36, 127
9, 22670, Note_on_c, 9, 36, 0
9, 22670, Note_on_c, 9, 42, 0
9, 22679, Note_on_c, 9, 37, 127
9, 22679, Note_on_c, 9, 42, 77
9, 22690, Note_on_c, 9, 37, 0
9, 22691, Note_on_c, 9, 42, 0
9, 22703, Note_on_c, 9, 42, 77
9, 22717, Note_on_c, 9, 42, 0
9, 22727, Note_on_c, 9, 37, 127
9, 22727, Note_on_c, 9, 42, 77
9, 22727, Note_on_c, 9, 36, 127
9, 22743, Note_on_c, 9, 36, 0
9, 22743, Note_on_c, 9, 42, 0
9, 22743, Note_on_c, 9, 37, 0
9, 22751, Note_on_c, 9, 39, 127
9, 22751, Note_on_c, 9, 42, 77
9, 22768, Note_on_c, 9, 42, 0
9, 22768, Note_on_c, 9, 39, 0
9, 22775, Note_on_c, 9, 42, 77
9, 22787, Note_on_c, 9, 42, 0
9, 22799, Note_on_c, 9, 42, 77
9, 22799, Note_on_c, 9, 36, 127
9, 22812, Note_on_c, 9, 36, 0
9, 22812, Note_on_c, 9, 42, 0
9, 22823, Note_on_c, 9, 42, 77
9, 22839, Note_on_c, 9, 42, 0
9, 22847, Note_on_c, 9, 42, 77
9, 22864, Note_on_c, 9, 42, 0
9, 22871, Note_on_c, 9, 42, 77
9, 22884, Note_on_c, 9, 42, 0
9, 22895, Note_on_c, 9, 46, 77
9, 22895, Note_on_c, 9, 36, 127
9, 22909, Note_on_c, 9, 36, 0
9, 22909, Note_on_c, 9, 46, 0
9, 22943, Note_on_c, 9, 39, 127
9, 22960, Note_on_c, 9, 39, 0
9, 22967, Note_on_c, 9, 42, 77
9, 22979, Note_on_c, 9, 42, 0
9, 22991, Note_on_c, 9, 46, 77
9, 22991, Note_on_c, 9, 36, 127
9, 23004, Note_on_c, 9, 36, 0
9, 23005, Note_on_c, 9, 46, 0
9, 23039, Note_on_c, 9, 42, 77
9, 23039, Note_on_c, 9, 36, 127
9, 23054, Note_on_c, 9, 36, 0
9, 23054, Note_on_c, 9, 42, 0
9, 23063, Note_on_c, 9, 37, 127
9, 23063, Note_on_c, 9, 42, 77
9, 23079, Note_on_c, 9, 37, 0
9, 23080, Note_on_c, 9, 42, 0
9, 23087, Note_on_c, 9, 42, 77
9, 23099, Note_on_c, 9, 42, 0
9, 23111, Note_on_c, 9, 37, 127
9, 23111, Note_on_c, 9, 42, 77
9, 23111, Note_on_c, 9, 36, 127
9, 23124, Note_on_c, 9, 36, 0
9, 23125, Note_on_c, 9, 42, 0
9, 23125, Note_on_c, 9, 37, 0
9, 23135, Note_on_c, 9, 39, 127
9, 23135, Note_on_c, 9, 42, 77
9, 23150, Note_on_c, 9, 39, 0
9, 23151, Note_on_c, 9, 42, 0
9, 23159, Note_on_c, 9, 42, 77
9, 23176, Note_on_c, 9, 42, 0
9, 23183, Note_on_c, 9, 42, 77
9, 23183, Note_on_c, 9, 36, 127
9, 23195, Note_on_c, 9, 36, 0
9, 23196, Note_on_c, 9, 42, 0
9, 23207, Note_on_c, 9, 42, 77
9, 23221, Note_on_c, 9, 42, 0
9, 23231, Note_on_c, 9, 37, 127
9, 23231, Note_on_c, 9, 42, 77
9, 23247, Note_on_c, 9, 42, 0
9, 23247, Note_on_c, 9, 37, 0
9, 23255, Note_on_c, 9, 42, 77
9, 23272, Note_on_c, 9, 42, 0
9, 23279, Note_on_c, 9, 42, 77
9, 23279, Note_on_c, 9, 36, 127
9, 23291, Note_on_c, 9, 36, 0
9, 23291, Note_on_c, 9, 42, 0
9, 23303, Note_on_c, 9, 37, 127
9, 23303, Note_on_c, 9, 42, 77
9, 23316, Note_on_c, 9, 37, 0
9, 23317, Note_on_c, 9, 42, 0
9, 23327, Note_on_c, 9, 39, 127
9, 23327, Note_on_c, 9, 42, 77
9, 23343, Note_on_c, 9, 42, 0
9, 23343, Note_on_c, 9, 39, 0
9, 23351, Note_on_c, 9, 42, 77
9, 23351, Note_on_c, 9, 46, 77
9, 23368, Note_on_c, 9, 46, 0
9, 23368, Note_on_c, 9, 42, 0
9, 23375, Note_on_c, 9, 46, 77
9, 23387, Note_on_c, 9, 46, 0
9, 23423, Note_on_c, 9, 42, 77
9, 23423, Note_on_c, 9, 36, 127
9, 23438, Note_on_c, 9, 36, 0
9, 23438, Note_on_c, 9, 42, 0
9, 23447, Note_on_c, 9, 37, 127
9, 23447, Note_on_c, 9, 38, 127
9, 23447, Note_on_c, 9, 42, 77
9, 23463, Note_on_c, 9, 37, 0
9, 23464, Note_on_c, 9, 42, 0
9, 23464, Note_on_c, 9, 38, 0
9, 23471, Note_on_c, 9, 42, 77
9, 23483, Note_on_c, 9, 42, 0
9, 23495, Note_on_c, 9, 37, 127
9, 23495, Note_on_c, 9, 42, 77
9, 23495, Note_on_c, 9, 36, 127
9, 23509, Note_on_c, 9, 36, 0
9, 23509, Note_on_c, 9, 42, 0
9, 23509, Note_on_c, 9, 37, 0
9, 23519, Note_on_c, 9, 38, 127
9, 23519, Note_on_c, 9, 39, 127
9, 23519, Note_on_c, 9, 42, 77
9, 23534, Note_on_c, 9, 39, 0
9, 23535, Note_on_c, 9, 42, 0
9, 23535, Note_on_c, 9, 38, 0
9, 23543, Note_on_c, 9, 42, 77
9, 23560, Note_on_c, 9, 42, 0
9, 23567, Note_on_c, 9, 42, 77
9, 23567, Note_on_c, 9, 36, 127
9, 23578, Note_on_c, 9, 36, 0
9, 23579, Note_on_c, 9, 42, 0
9, 23591, Note_on_c, 9, 38, 127
9, 23591, Note_on_c, 9, 42, 77
9, 23605, Note_on_c, 9, 42, 0
9, 23605, Note_on_c, 9, 38, 0
9, 23615, Note_on_c, 9, 42, 77
9, 23615, Note_on_c, 9, 36, 127
9, 23631, Note_on_c, 9, 36, 0
9, 23631, Note_on_c, 9, 42, 0
9, 23639, Note_on_c, 9, 38, 127
9, 23639, Note_on_c, 9, 42, 77
9, 23651, Note_on_c, 9, 42, 0
9, 23651, Note_on_c, 9, 38, 0
9, 23663, Note_on_c, 9, 46, 77
9, 23663, Note_on_c, 9, 36, 127
9, 23677, Note_on_c, 9, 36, 0
9, 23677, Note_on_c, 9, 46, 0
9, 23711, Note_on_c, 9, 38, 127
9, 23711, Note_on_c, 9, 39, 127
9, 23728, Note_on_c, 9, 39, 0
9, 23728, Note_on_c, 9, 38, 0
9, 23735, Note_on_c, 9, 42, 77
9, 23747, Note_on_c, 9, 42, 0
9, 23759, Note_on_c, 9, 38, 127
9, 23759, Note_on_c, 9, 46, 77
9, 23759, Note_on_c, 9, 36, 127
9, 23772, Note_on_c, 9, 36, 0
9, 23773, Note_on_c, 9, 46, 0
9, 23773, Note_on_c, 9, 38, 0
9, 23783, Note_on_c, 9, 38, 127
9, 23800, Note_on_c, 9, 38, 0
9, 23807, Note_on_c, 9, 42, 77
9, 23807, Note_on_c, 9, 36, 127
9, 23823, Note_on_c, 9, 36, 0
9, 23823, Note_on_c, 9, 42, 0
9, 23831, Note_on_c, 9, 37, 127
9, 23831, Note_on_c, 9, 42, 77
9, 23842, Note_on_c, 9, 37, 0
9, 23843, Note_on_c, 9, 42, 0
9, 23855, Note_on_c, 9, 42, 77
9, 23869, Note_on_c, 9, 42, 0
9, 23879, Note_on_c, 9, 37, 127
9, 23879, Note_on_c, 9, 42, 77
9, 23879, Note_on_c, 9, 36, 127
9, 23894, Note_on_c, 9, 36, 0
9, 23894, Note_on_c, 9, 42, 0
9, 23894, Note_on_c, 9, 37, 0
9, 23903, Note_on_c, 9, 38, 127
9, 23903, Note_on_c, 9, 42, 77
9, 23919, Note_on_c, 9, 38, 0
9, 23920, Note_on_c, 9, 42, 0
9, 23927, Note_on_c, 9, 42, 77
9, 23939, Note_on_c, 9, 42, 0
9, 23951, Note_on_c, 9, 42, 77
9, 23951, Note_on_c, 9, 36, 127
9, 23964, Note_on_c, 9, 36, 0
9, 23965, Note_on_c, 9, 42, 0
9, 23975, Note_on_c, 9, 42, 77
9, 23991, Note_on_c, 9, 42, 0
9, 23999, Note_on_c, 9, 37, 127
9, 23999, Note_on_c, 9, 42, 77
9, 24016, Note_on_c, 9, 42, 0
9, 24016, Note_on_c, 9, 37, 0
9, 24023, Note_on_c, 9, 38, 127
9, 24023, Note_on_c, 9, 42, 77
9, 24035, Note_on_c, 9, 42, 0
9, 24035, Note_on_c, 9, 38, 0
9, 24047, Note_on_c, 9, 42, 77
9, 24047, Note_on_c, 9, 36, 127
9, 24060, Note_on_c, 9, 36, 0
9, 24060, Note_on_c, 9, 42, 0
9, 24071, Note_on_c, 9, 37, 127
9, 24071, Note_on_c, 9, 42, 77
9, 24087, Note_on_c, 9, 42, 0
9, 24087, Note_on_c, 9, 37, 0
9, 24095, Note_on_c, 9, 38, 127
9, 24095, Note_on_c, 9, 42, 77
9, 24111, Note_on_c, 9, 42, 0
9, 24111, Note_on_c, 9, 38, 0
9, 24119, Note_on_c, 9, 42, 77
9, 24119, Note_on_c, 9, 46, 77
9, 24131, Note_on_c, 9, 42, 0
9, 24132, Note_on_c, 9, 46, 0
9, 24143, Note_on_c, 9, 46, 77
9, 24157, Note_on_c, 9, 46, 0
9, 24191, Note_on_c, 9, 42, 77
9, 24191, Note_on_c, 9, 36, 127
9, 24207, Note_on_c, 9, 42, 0
9, 24208, Note_on_c, 9, 36, 0
9, 24215, Note_on_c, 9, 37, 127
9, 24215, Note_on_c, 9, 42, 77
9, 24227, Note_on_c, 9, 37, 0
9, 24228, Note_on_c, 9, 42, 0
9, 24239, Note_on_c, 9, 42, 77
9, 24253, Note_on_c, 9, 42, 0
9, 24263, Note_on_c, 9, 37, 127
9, 24263, Note_on_c, 9, 42, 77
9, 24263, Note_on_c, 9, 36, 127
9, 24278, Note_on_c, 9, 36, 0
9, 24278, Note_on_c, 9, 37, 0
9, 24279, Note_on_c, 9, 42, 0
9, 24287, Note_on_c, 9, 38, 127
9, 24287, Note_on_c, 9, 42, 77
9, 24303, Note_on_c, 9, 42, 0
9, 24303, Note_on_c, 9, 38, 0
9, 24311, Note_on_c, 9, 42, 77
9, 24323, Note_on_c, 9, 42, 0
9, 24335, Note_on_c, 9, 42, 77
9, 24335, Note_on_c, 9, 36, 127
9, 24348, Note_on_c, 9, 36, 0
9, 24348, Note_on_c, 9, 42, 0
9, 24359, Note_on_c, 9, 42, 77
9, 24375, Note_on_c, 9, 42, 0
9, 24383, Note_on_c, 9, 37, 127
9, 24383, Note_on_c, 9, 42, 77
9, 24400, Note_on_c, 9, 42, 0
9, 24400, Note_on_c, 9, 37, 0
9, 24407, Note_on_c, 9, 38, 127
9, 24407, Note_on_c, 9, 42, 77
9, 24419, Note_on_c, 9, 42, 0
9, 24419, Note_on_c, 9, 38, 0
9, 24431, Note_on_c, 9, 46, 77
9, 24431, Note_on_c, 9, 36, 127
9, 24444, Note_on_c, 9, 36, 0
9, 24444, Note_on_c, 9, 46, 0
9, 24455, Note_on_c, 9, 37, 127
9, 24470, Note_on_c, 9, 37, 0
9, 24479, Note_on_c, 9, 38, 127
9, 24479, Note_on_c, 9, 42, 77
9, 24495, Note_on_c, 9, 42, 0
9, 24495, Note_on_c, 9, 38, 0
9, 24503, Note_on_c, 9, 42, 77
9, 24515, Note_on_c, 9, 42, 0
9, 24527, Note_on_c, 9, 46, 77
9, 24541, Note_on_c, 9, 46, 0
9, 24551, Note_on_c, 9, 38, 127
9, 24568, Note_on_c, 9, 38, 0
9, 24575, Note_on_c, 9, 42, 77
9, 24575, Note_on_c, 9, 36, 127
9, 24591, Note_on_c, 9, 36, 0
9, 24591, Note_on_c, 9, 42, 0
9, 24599, Note_on_c, 9, 37, 127
9, 24599, Note_on_c, 9, 42, 77
9, 24611, Note_on_c, 9, 42, 0
9, 24611, Note_on_c, 9, 37, 0
9, 24623, Note_on_c, 9, 42, 77
9, 24637, Note_on_c, 9, 42, 0
9, 24647, Note_on_c, 9, 37, 127
9, 24647, Note_on_c, 9, 42, 77
9, 24647, Note_on_c, 9, 36, 127
9, 24662, Note_on_c, 9, 36, 0
9, 24663, Note_on_c, 9, 42, 0
9, 24663, Note_on_c, 9, 37, 0
9, 24671, Note_on_c, 9, 38, 127
9, 24671, Note_on_c, 9, 42, 77
9, 24687, Note_on_c, 9, 38, 0
9, 24688, Note_on_c, 9, 42, 0
9, 24695, Note_on_c, 9, 42, 77
9, 24707, Note_on_c, 9, 42, 0
9, 24719, Note_on_c, 9, 42, 77
9, 24719, Note_on_c, 9, 36, 127
9, 24733, Note_on_c, 9, 36, 0
9, 24733, Note_on_c, 9, 42, 0
9, 24743, Note_on_c, 9, 42, 77
9, 24759, Note_on_c, 9, 42, 0
9, 24767, Note_on_c, 9, 37, 127
9, 24767, Note_on_c, 9, 42, 77
9, 24783, Note_on_c, 9, 42, 0
9, 24783, Note_on_c, 9, 37, 0
9, 24791, Note_on_c, 9, 38, 127
9, 24791, Note_on_c, 9, 42, 77
9, 24803, Note_on_c, 9, 42, 0
9, 24803, Note_on_c, 9, 38, 0
9, 24815, Note_on_c, 9, 42, 77
9, 24815, Note_on_c, 9, 36, 127
9, 24828, Note_on_c, 9, 36, 0
9, 24828, Note_on_c, 9, 42, 0
9, 24839, Note_on_c, 9, 37, 127
9, 24839, Note_on_c, 9, 42, 77
9, 24855, Note_on_c, 9, 42, 0
9, 24855, Note_on_c, 9, 37, 0
9, 24863, Note_on_c, 9, 38, 127
9, 24863, Note_on_c, 9, 42, 77
9, 24879, Note_on_c, 9, 42, 0
9, 24879, Note_on_c, 9, 38, 0
9, 24887, Note_on_c, 9, 42, 77
9, 24887, Note_on_c, 9, 46, 77
9, 24899, Note_on_c, 9, 46, 0
9, 24899, Note_on_c, 9, 42, 0
9, 24911, Note_on_c, 9, 46, 77
9, 24925, Note_on_c, 9, 46, 0
9, 24959, Note_on_c, 9, 42, 77
9, 24959, Note_on_c, 9, 36, 127
9, 24976, Note_on_c, 9, 36, 0
9, 24976, Note_on_c, 9, 42, 0
9, 24983, Note_on_c, 9, 37, 127
9, 24983, Note_on_c, 9, 42, 77
9, 24995, Note_on_c, 9, 42, 0
9, 24995, Note_on_c, 9, 37, 0
9, 25007, Note_on_c, 9, 42, 77
9, 25021, Note_on_c, 9, 42, 0
9, 25031, Note_on_c, 9, 37, 127
9, 25031, Note_on_c, 9, 42, 77
9, 25031, Note_on_c, 9, 36, 127
9, 25046, Note_on_c, 9, 37, 0
9, 25047, Note_on_c, 9, 36, 0
9, 25047, Note_on_c, 9, 42, 0
9, 25055, Note_on_c, 9, 38, 127
9, 25055, Note_on_c, 9, 42, 77
9, 25071, Note_on_c, 9, 42, 0
9, 25071, Note_on_c, 9, 38, 0
9, 25079, Note_on_c, 9, 42, 77
9, 25090, Note_on_c, 9, 42, 0
9, 25103, Note_on_c, 9, 42, 77
9, 25103, Note_on_c, 9, 36, 127
9, 25116, Note_on_c, 9, 36, 0
9, 25116, Note_on_c, 9, 42, 0
9, 25127, Note_on_c, 9, 42, 77
9, 25142, Note_on_c, 9, 42, 0
9, 25151, Note_on_c, 9, 37, 127
9, 25151, Note_on_c, 9, 42, 77
9, 25167, Note_on_c, 9, 42, 0
9, 25167, Note_on_c, 9, 37, 0
9, 25175, Note_on_c, 9, 38, 127
9, 25175, Note_on_c, 9, 42, 77
9, 25187, Note_on_c, 9, 42, 0
9, 25187, Note_on_c, 9, 38, 0
9, 25199, Note_on_c, 9, 46, 77
9, 25199, Note_on_c, 9, 36, 127
9, 25212, Note_on_c, 9, 36, 0
9, 25212, Note_on_c, 9, 46, 0
9, 25223, Note_on_c, 9, 37, 127
9, 25239, Note_on_c, 9, 37, 0
9, 25247, Note_on_c, 9, 38, 127
9, 25247, Note_on_c, 9, 42, 77
9, 25263, Note_on_c, 9, 42, 0
9, 25263, Note_on_c, 9, 38, 0
9, 25271, Note_on_c, 9, 42, 77
9, 25283, Note_on_c, 9, 42, 0
9, 25295, Note_on_c, 9, 46, 77
9, 25308, Note_on_c, 9, 46, 0
9, 25319, Note_on_c, 9, 38, 127
9, 25335, Note_on_c, 9, 38, 0
9, 25343, Note_on_c, 9, 42, 77
9, 25343, Note_on_c, 9, 36, 127
9, 25359, Note_on_c, 9, 36, 0
9, 25359, Note_on_c, 9, 42, 0
9, 25367, Note_on_c, 9, 37, 127
9, 25367, Note_on_c, 9, 42, 77
9, 25379, Note_on_c, 9, 42, 0
9, 25379, Note_on_c, 9, 37, 0
9, 25391, Note_on_c, 9, 42, 77
9, 25404, Note_on_c, 9, 42, 0
9, 25415, Note_on_c, 9, 37, 127
9, 25415, Note_on_c, 9, 42, 77
9, 25415, Note_on_c, 9, 36, 127
9, 25431, Note_on_c, 9, 36, 0
9, 25431, Note_on_c, 9, 42, 0
9, 25431, Note_on_c, 9, 37, 0
9, 25439, Note_on_c, 9, 38, 127
9, 25439, Note_on_c, 9, 42, 77
9, 25455, Note_on_c, 9, 38, 0
9, 25456, Note_on_c, 9, 42, 0
9, 25463, Note_on_c, 9, 42, 77
9, 25475, Note_on_c, 9, 42, 0
9, 25487, Note_on_c, 9, 42, 77
9, 25487, Note_on_c, 9, 36, 127
9, 25501, Note_on_c, 9, 36, 0
9, 25501, Note_on_c, 9, 42, 0
9, 25511, Note_on_c, 9, 42, 77
9, 25527, Note_on_c, 9, 42, 0
9, 25535, Note_on_c, 9, 37, 127
9, 25535, Note_on_c, 9, 42, 77
9, 25551, Note_on_c, 9, 42, 0
9, 25551, Note_on_c, 9, 37, 0
9, 25559, Note_on_c, 9, 38, 127
9, 25559, Note_on_c, 9, 42, 77
9, 25571, Note_on_c, 9, 42, 0
9, 25571, Note_on_c, 9, 38, 0
9, 25583, Note_on_c, 9, 42, 77
9, 25583, Note_on_c, 9, 36, 127
9, 25596, Note_on_c, 9, 36, 0
9, 25596, Note_on_c, 9, 42, 0
9, 25607, Note_on_c, 9, 37, 127
9, 25607, Note_on_c, 9, 42, 77
9, 25623, Note_on_c, 9, 42, 0
9, 25623, Note_on_c, 9, 37, 0
9, 25631, Note_on_c, 9, 38, 127
9, 25631, Note_on_c, 9, 42, 77
9, 25647, Note_on_c, 9, 38, 0
9, 25648, Note_on_c, 9, 42, 0
9, 25655, Note_on_c, 9, 42, 77
9, 25655, Note_on_c, 9, 46, 77
9, 25667, Note_on_c, 9, 42, 0
9, 25668, Note_on_c, 9, 46, 0
9, 25679, Note_on_c, 9, 46, 77
9, 25692, Note_on_c, 9, 46, 0
9, 25727, Note_on_c, 9, 42, 77
9, 25727, Note_on_c, 9, 36, 127
9, 25743, Note_on_c, 9, 36, 0
9, 25743, Note_on_c, 9, 42, 0
9, 25751, Note_on_c, 9, 37, 127
9, 25751, Note_on_c, 9, 42, 77
9, 25763, Note_on_c, 9, 37, 0
9, 25764, Note_on_c, 9, 42, 0
9, 25775, Note_on_c, 9, 42, 77
9, 25788, Note_on_c, 9, 42, 0
9, 25799, Note_on_c, 9, 37, 127
9, 25799, Note_on_c, 9, 42, 77
9, 25799, Note_on_c, 9, 36, 127
9, 25814, Note_on_c, 9, 36, 0
9, 25814, Note_on_c, 9, 42, 0
9, 25814, Note_on_c, 9, 37, 0
9, 25823, Note_on_c, 9, 38, 127
9, 25823, Note_on_c, 9, 42, 77
9, 25839, Note_on_c, 9, 38, 0
9, 25840, Note_on_c, 9, 42, 0
9, 25847, Note_on_c, 9, 42, 77
9, 25858, Note_on_c, 9, 42, 0
9, 25871, Note_on_c, 9, 42, 77
9, 25871, Note_on_c, 9, 36, 127
9, 25885, Note_on_c, 9, 36, 0
9, 25885, Note_on_c, 9, 42, 0
9, 25895, Note_on_c, 9, 42, 77
9, 25910, Note_on_c, 9, 42, 0
9, 25919, Note_on_c, 9, 37, 127
9, 25919, Note_on_c, 9, 42, 77
9, 25935, Note_on_c, 9, 37, 0
9, 25936, Note_on_c, 9, 42, 0
9, 25943, Note_on_c, 9, 38, 127
9, 25943, Note_on_c, 9, 42, 77
9, 25955, Note_on_c, 9, 42, 0
9, 25955, Note_on_c, 9, 38, 0
9, 25967, Note_on_c, 9, 46, 77
9, 25967, Note_on_c, 9, 36, 127
9, 25980, Note_on_c, 9, 36, 0
9, 25980, Note_on_c, 9, 46, 0
9, 25991, Note_on_c, 9, 37, 127
9, 26006, Note_on_c, 9, 37, 0
9, 26015, Note_on_c, 9, 38, 127
9, 26015, Note_on_c, 9, 42, 77
9, 26031, Note_on_c, 9, 38, 0
9, 26032, Note_on_c, 9, 42, 0
9, 26039, Note_on_c, 9, 42, 77
9, 26050, Note_on_c, 9, 42, 0
9, 26063, Note_on_c, 9, 46, 77
9, 26076, Note_on_c, 9, 46, 0
9, 26087, Note_on_c, 9, 38, 127
9, 26103, Note_on_c, 9, 38, 0
9, 26111, Note_on_c, 9, 42, 77
9, 26111, Note_on_c, 9, 36, 127
9, 26127, Note_on_c, 9, 36, 0
9, 26127, Note_on_c, 9, 42, 0
9, 26135, Note_on_c, 9, 37, 127
9, 26135, Note_on_c, 9, 42, 77
9, 26147, Note_on_c, 9, 42, 0
9, 26147, Note_on_c, 9, 37, 0
9, 26159, Note_on_c, 9, 42, 77
9, 26173, Note_on_c, 9, 42, 0
9, 26183, Note_on_c, 9, 37, 127
9, 26183, Note_on_c, 9, 42, 77
9, 26183, Note_on_c, 9, 36, 127
9, 26199, Note_on_c, 9, 36, 0
9, 26199, Note_on_c, 9, 37, 0
9, 26200, Note_on_c, 9, 42, 0
9, 26207, Note_on_c, 9, 38, 127
9, 26207, Note_on_c, 9, 42, 77
9, 26223, Note_on_c, 9, 38, 0
9, 26224, Note_on_c, 9, 42, 0
9, 26231, Note_on_c, 9, 42, 77
9, 26243, Note_on_c, 9, 42, 0
9, 26255, Note_on_c, 9, 42, 77
9, 26255, Note_on_c, 9, 36, 127
9, 26268, Note_on_c, 9, 42, 0
9, 26269, Note_on_c, 9, 36, 0
9, 26279, Note_on_c, 9, 42, 77
9, 26295, Note_on_c, 9, 42, 0
9, 26303, Note_on_c, 9, 37, 127
9, 26303, Note_on_c, 9, 42, 77
9, 26319, Note_on_c, 9, 42, 0
9, 26319, Note_on_c, 9, 37, 0
9, 26327, Note_on_c, 9, 38, 127
9, 26327, Note_on_c, 9, 42, 77
9, 26339, Note_on_c, 9, 42, 0
9, 26339, Note_on_c, 9, 38, 0
9, 26351, Note_on_c, 9, 42, 77
9, 26351, Note_on_c, 9, 36, 127
9, 26364, Note_on_c, 9, 36, 0
9, 26365, Note_on_c, 9, 42, 0
9, 26375, Note_on_c, 9, 37, 127
9, 26375, Note_on_c, 9, 42, 77
9, 26391, Note_on_c, 9, 37, 0
9, 26392, Note_on_c, 9, 42, 0
9, 26399, Note_on_c, 9, 38, 127
9, 26399, Note_on_c, 9, 42, 77
9, 26416, Note_on_c, 9, 42, 0
9, 26416, Note_on_c, 9, 38, 0
9, 26423, Note_on_c, 9, 42, 77
9, 26423, Note_on_c, 9, 46, 77
9, 26435, Note_on_c, 9, 46, 0
9, 26436, Note_on_c, 9, 42, 0
9, 26447, Note_on_c, 9, 46, 77
9, 26460, Note_on_c, 9, 46, 0
9, 26495, Note_on_c, 9, 42, 77
9, 26495, Note_on_c, 9, 36, 127
9, 26511, Note_on_c, 9, 36, 0
9, 26511, Note_on_c, 9, 42, 0
9, 26519, Note_on_c, 9, 37, 127
9, 26519, Note_on_c, 9, 42, 77
9, 26531, Note_on_c, 9, 42, 0
9, 26531, Note_on_c, 9, 37, 0
9, 26543, Note_on_c, 9, 42, 77
9, 26557, Note_on_c, 9, 42, 0
9, 26567, Note_on_c, 9, 37, 127
9, 26567, Note_on_c, 9, 42, 77
9, 26567, Note_on_c, 9, 36, 127
9, 26582, Note_on_c, 9, 37, 0
9, 26583, Note_on_c, 9, 36, 0
9, 26583, Note_on_c, 9, 42, 0
9, 26591, Note_on_c, 9, 38, 127
9, 26591, Note_on_c, 9, 42, 77
9, 26608, Note_on_c, 9, 42, 0
9, 26608, Note_on_c, 9, 38, 0
9, 26615, Note_on_c, 9, 42, 77
9, 26627, Note_on_c, 9, 42, 0
9, 26639, Note_on_c, 9, 42, 77
9, 26639, Note_on_c, 9, 36, 127
9, 26652, Note_on_c, 9, 42, 0
9, 26653, Note_on_c, 9, 36, 0
9, 26663, Note_on_c, 9, 38, 127
9, 26663, Note_on_c, 9, 42, 77
9, 26678, Note_on_c, 9, 42, 0
9, 26679, Note_on_c, 9, 38, 0
9, 26687, Note_on_c, 9, 42, 77
9, 26687, Note_on_c, 9, 36, 127
9, 26703, Note_on_c, 9, 36, 0
9, 26703, Note_on_c, 9, 42, 0
9, 26711, Note_on_c, 9, 38, 127
9, 26711, Note_on_c, 9, 42, 77
9, 26723, Note_on_c, 9, 42, 0
9, 26723, Note_on_c, 9, 38, 0
9, 26735, Note_on_c, 9, 46, 77
9, 26735, Note_on_c, 9, 36, 127
9, 26749, Note_on_c, 9, 36, 0
9, 26749, Note_on_c, 9, 46, 0
9, 26783, Note_on_c, 9, 38, 127
9, 26783, Note_on_c, 9, 42, 77
9, 26799, Note_on_c, 9, 38, 0
9, 26800, Note_on_c, 9, 42, 0
9, 26807, Note_on_c, 9, 42, 77
9, 26819, Note_on_c, 9, 42, 0
9, 26831, Note_on_c, 9, 38, 127
9, 26831, Note_on_c, 9, 46, 77
9, 26844, Note_on_c, 9, 46, 0
9, 26845, Note_on_c, 9, 38, 0
9, 26855, Note_on_c, 9, 38, 127
9, 26871, Note_on_c, 9, 38, 0
9, 26879, Note_on_c, 9, 42, 77
9, 26879, Note_on_c, 9, 36, 127
9, 26894, Note_on_c, 9, 36, 0
9, 26894, Note_on_c, 9, 42, 0
9, 26903, Note_on_c, 9, 37, 127
9, 26903, Note_on_c, 9, 42, 77
9, 26915, Note_on_c, 9, 42, 0
9, 26915, Note_on_c, 9, 37, 0
9, 26927, Note_on_c, 9, 42, 77
9, 26941, Note_on_c, 9, 42, 0
9, 26951, Note_on_c, 9, 37, 127
9, 26951, Note_on_c, 9, 42, 77
9, 26951, Note_on_c, 9, 36, 127
9, 26966, Note_on_c, 9, 36, 0
9, 26966, Note_on_c, 9, 42, 0
9, 26966, Note_on_c, 9, 37, 0
9, 26975, Note_on_c, 9, 38, 127
9, 26975, Note_on_c, 9, 42, 77
9, 26992, Note_on_c, 9, 42, 0
9, 26992, Note_on_c, 9, 38, 0
9, 26999, Note_on_c, 9, 42, 77
9, 27011, Note_on_c, 9, 42, 0
9, 27023, Note_on_c, 9, 42, 77
9, 27023, Note_on_c, 9, 36, 127
9, 27036, Note_on_c, 9, 36, 0
9, 27036, Note_on_c, 9, 42, 0
9, 27047, Note_on_c, 9, 42, 77
9, 27063, Note_on_c, 9, 42, 0
9, 27071, Note_on_c, 9, 37, 127
9, 27071, Note_on_c, 9, 42, 77
9, 27087, Note_on_c, 9, 42, 0
9, 27087, Note_on_c, 9, 37, 0
9, 27095, Note_on_c, 9, 38, 127
9, 27095, Note_on_c, 9, 42, 77
9, 27107, Note_on_c, 9, 42, 0
9, 27107, Note_on_c, 9, 38, 0
9, 27119, Note_on_c, 9, 42, 77
9, 27119, Note_on_c, 9, 36, 127
9, 27133, Note_on_c, 9, 36, 0
9, 27133, Note_on_c, 9, 42, 0
9, 27143, Note_on_c, 9, 37, 127
9, 27143, Note_on_c, 9, 42, 77
9, 27159, Note_on_c, 9, 42, 0
9, 27159, Note_on_c, 9, 37, 0
9, 27167, Note_on_c, 9, 38, 127
9, 27167, Note_on_c, 9, 42, 77
9, 27184, Note_on_c, 9, 42, 0
9, 27184, Note_on_c, 9, 38, 0
9, 27191, Note_on_c, 9, 42, 77
9, 27191, Note_on_c, 9, 46, 77
9, 27203, Note_on_c, 9, 46, 0
9, 27203, Note_on_c, 9, 42, 0
9, 27215, Note_on_c, 9, 46, 77
9, 27228, Note_on_c, 9, 46, 0
9, 27263, Note_on_c, 9, 42, 77
9, 27263, Note_on_c, 9, 36, 127
9, 27279, Note_on_c, 9, 36, 0
9, 27279, Note_on_c, 9, 42, 0
9, 27287, Note_on_c, 9, 37, 127
9, 27287, Note_on_c, 9, 42, 77
9, 27299, Note_on_c, 9, 42, 0
9, 27299, Note_on_c, 9, 37, 0
9, 27311, Note_on_c, 9, 42, 77
9, 27325, Note_on_c, 9, 42, 0
9, 27335, Note_on_c, 9, 37, 127
9, 27335, Note_on_c, 9, 42, 77
9, 27335, Note_on_c, 9, 36, 127
9, 27350, Note_on_c, 9, 36, 0
9, 27350, Note_on_c, 9, 37, 0
9, 27351, Note_on_c, 9, 42, 0
9, 27359, Note_on_c, 9, 38, 127
9, 27359, Note_on_c, 9, 42, 77
9, 27376, Note_on_c, 9, 42, 0
9, 27376, Note_on_c, 9, 38, 0
9, 27383, Note_on_c, 9, 42, 77
9, 27395, Note_on_c, 9, 42, 0
9, 27407, Note_on_c, 9, 42, 77
9, 27407, Note_on_c, 9, 36, 127
9, 27420, Note_on_c, 9, 36, 0
9, 27420, Note_on_c, 9, 42, 0
9, 27431, Note_on_c, 9, 42, 77
9, 27446, Note_on_c, 9, 42, 0
9, 27455, Note_on_c, 9, 37, 127
9, 27455, Note_on_c, 9, 42, 77
9, 27471, Note_on_c, 9, 42, 0
9, 27471, Note_on_c, 9, 37, 0
9, 27479, Note_on_c, 9, 38, 127
9, 27479, Note_on_c, 9, 42, 77
9, 27491, Note_on_c, 9, 42, 0
9, 27491, Note_on_c, 9, 38, 0
9, 27503, Note_on_c, 9, 46, 77
9, 27503, Note_on_c, 9, 36, 127
9, 27517, Note_on_c, 9, 36, 0
9, 27517, Note_on_c, 9, 46, 0
9, 27527, Note_on_c, 9, 37, 127
9, 27542, Note_on_c, 9, 37, 0
9, 27551, Note_on_c, 9, 38, 127
9, 27551, Note_on_c, 9, 42, 77
9, 27567, Note_on_c, 9, 42, 0
9, 27567, Note_on_c, 9, 38, 0
9, 27575, Note_on_c, 9, 42, 77
9, 27589, Note_on_c, 9, 42, 0
9, 27599, Note_on_c, 9, 46, 77
9, 27615, Note_on_c, 9, 46, 0
9, 27623, Note_on_c, 9, 38, 127
9, 27640, Note_on_c, 9, 38, 0
9, 27647, Note_on_c, 9, 42, 77
9, 27647, Note_on_c, 9, 36, 127
9, 27662, Note_on_c, 9, 36, 0
9, 27662, Note_on_c, 9, 42, 0
9, 27671, Note_on_c, 9, 37, 127
9, 27671, Note_on_c, 9, 42, 77
9, 27687, Note_on_c, 9, 37, 0
9, 27688, Note_on_c, 9, 42, 0
9, 27695, Note_on_c, 9, 42, 77
9, 27708, Note_on_c, 9, 42, 0
9, 27719, Note_on_c, 9, 37, 127
9, 27719, Note_on_c, 9, 42, 77
9, 27719, Note_on_c, 9, 36, 127
9, 27731, Note_on_c, 9, 37, 0
9, 27732, Note_on_c, 9, 36, 0
9, 27732, Note_on_c, 9, 42, 0
9, 27743, Note_on_c, 9, 38, 127
9, 27743, Note_on_c, 9, 42, 77
9, 27759, Note_on_c, 9, 42, 0
9, 27759, Note_on_c, 9, 38, 0
9, 27767, Note_on_c, 9, 42, 77
9, 27784, Note_on_c, 9, 42, 0
9, 27791, Note_on_c, 9, 42, 77
9, 27791, Note_on_c, 9, 36, 127
9, 27802, Note_on_c, 9, 36, 0
9, 27803, Note_on_c, 9, 42, 0
9, 27815, Note_on_c, 9, 42, 77
9, 27829, Note_on_c, 9, 42, 0
9, 27839, Note_on_c, 9, 37, 127
9, 27839, Note_on_c, 9, 42, 77
9, 27854, Note_on_c, 9, 42, 0
9, 27854, Note_on_c, 9, 37, 0
9, 27863, Note_on_c, 9, 38, 127
9, 27863, Note_on_c, 9, 42, 77
9, 27880, Note_on_c, 9, 42, 0
9, 27880, Note_on_c, 9, 38, 0
9, 27887, Note_on_c, 9, 42, 77
9, 27887, Note_on_c, 9, 36, 127
9, 27899, Note_on_c, 9, 36, 0
9, 27899, Note_on_c, 9, 42, 0
9, 27911, Note_on_c, 9, 37, 127
9, 27911, Note_on_c, 9, 42, 77
9, 27924, Note_on_c, 9, 37, 0
9, 27925, Note_on_c, 9, 42, 0
9, 27935, Note_on_c, 9, 38, 127
9, 27935, Note_on_c, 9, 42, 77
9, 27950, Note_on_c, 9, 42, 0
9, 27950, Note_on_c, 9, 38, 0
9, 27959, Note_on_c, 9, 42, 77
9, 27959, Note_on_c, 9, 46, 77
9, 27975, Note_on_c, 9, 46, 0
9, 27976, Note_on_c, 9, 42, 0
9, 27983, Note_on_c, 9, 46, 77
9, 27994, Note_on_c, 9, 46, 0
9, 28031, Note_on_c, 9, 42, 77
9, 28031, Note_on_c, 9, 36, 127
9, 28046, Note_on_c, 9, 36, 0
9, 28046, Note_on_c, 9, 42, 0
9, 28055, Note_on_c, 9, 37, 127
9, 28055, Note_on_c, 9, 42, 77
9, 28071, Note_on_c, 9, 37, 0
9, 28072, Note_on_c, 9, 42, 0
9, 28079, Note_on_c, 9, 42, 77
9, 28091, Note_on_c, 9, 42, 0
9, 28103, Note_on_c, 9, 37, 127
9, 28103, Note_on_c, 9, 42, 77
9, 28103, Note_on_c, 9, 36, 127
9, 28116, Note_on_c, 9, 36, 0
9, 28116, Note_on_c, 9, 42, 0
9, 28116, Note_on_c, 9, 37, 0
9, 28127, Note_on_c, 9, 38, 127
9, 28127, Note_on_c, 9, 42, 77
9, 28142, Note_on_c, 9, 38, 0
9, 28143, Note_on_c, 9, 42, 0
9, 28151, Note_on_c, 9, 42, 77
9, 28168, Note_on_c, 9, 42, 0
9, 28175, Note_on_c, 9, 42, 77
9, 28175, Note_on_c, 9, 36, 127
9, 28188, Note_on_c, 9, 36, 0
9, 28188, Note_on_c, 9, 42, 0
9, 28199, Note_on_c, 9, 42, 77
9, 28214, Note_on_c, 9, 42, 0
9, 28223, Note_on_c, 9, 37, 127
9, 28223, Note_on_c, 9, 42, 77
9, 28239, Note_on_c, 9, 42, 0
9, 28239, Note_on_c, 9, 37, 0
9, 28247, Note_on_c, 9, 38, 127
9, 28247, Note_on_c, 9, 42, 77
9, 28258, Note_on_c, 9, 42, 0
9, 28258, Note_on_c, 9, 38, 0
9, 28271, Note_on_c, 9, 46, 77
9, 28271, Note_on_c, 9, 36, 127
9, 28284, Note_on_c, 9, 36, 0
9, 28284, Note_on_c, 9, 46, 0
9, 28295, Note_on_c, 9, 37, 127
9, 28310, Note_on_c, 9, 37, 0
9, 28319, Note_on_c, 9, 38, 127
9, 28319, Note_on_c, 9, 42, 77
9, 28335, Note_on_c, 9, 42, 0
9, 28335, Note_on_c, 9, 38, 0
9, 28343, Note_on_c, 9, 42, 77
9, 28355, Note_on_c, 9, 42, 0
9, 28367, Note_on_c, 9, 46, 77
9, 28380, Note_on_c, 9, 46, 0
9, 28391, Note_on_c, 9, 38, 127
9, 28407, Note_on_c, 9, 38, 0
9, 28415, Note_on_c, 9, 42, 77
9, 28415, Note_on_c, 9, 36, 127
9, 28430, Note_on_c, 9, 36, 0
9, 28431, Note_on_c, 9, 42, 0
9, 28439, Note_on_c, 9, 37, 127
9, 28439, Note_on_c, 9, 42, 77
9, 28451, Note_on_c, 9, 42, 0
9, 28451, Note_on_c, 9, 37, 0
9, 28463, Note_on_c, 9, 42, 77
9, 28477, Note_on_c, 9, 42, 0
9, 28487, Note_on_c, 9, 37, 127
9, 28487, Note_on_c, 9, 42, 77
9, 28487, Note_on_c, 9, 36, 127
9, 28502, Note_on_c, 9, 36, 0
9, 28502, Note_on_c, 9, 42, 0
9, 28502, Note_on_c, 9, 37, 0
9, 28511, Note_on_c, 9, 38, 127
9, 28511, Note_on_c, 9, 42, 77
9, 28528, Note_on_c, 9, 42, 0
9, 28528, Note_on_c, 9, 38, 0
9, 28535, Note_on_c, 9, 42, 77
9, 28547, Note_on_c, 9, 42, 0
9, 28559, Note_on_c, 9, 42, 77
9, 28559, Note_on_c, 9, 36, 127
9, 28572, Note_on_c, 9, 36, 0
9, 28573, Note_on_c, 9, 42, 0
9, 28583, Note_on_c, 9, 42, 77
9, 28599, Note_on_c, 9, 42, 0
9, 28607, Note_on_c, 9, 37, 127
9, 28607, Note_on_c, 9, 42, 77
9, 28623, Note_on_c, 9, 37, 0
9, 28624, Note_on_c, 9, 42, 0
9, 28631, Note_on_c, 9, 38, 127
9, 28631, Note_on_c, 9, 42, 77
9, 28643, Note_on_c, 9, 42, 0
9, 28643, Note_on_c, 9, 38, 0
9, 28655, Note_on_c, 9, 42, 77
9, 28655, Note_on_c, 9, 36, 127
9, 28669, Note_on_c, 9, 36, 0
9, 28669, Note_on_c, 9, 42, 0
9, 28679, Note_on_c, 9, 37, 127
9, 28679, Note_on_c, 9, 42, 77
9, 28694, Note_on_c, 9, 37, 0
9, 28695, Note_on_c, 9, 42, 0
9, 28703, Note_on_c, 9, 38, 127
9, 28703, Note_on_c, 9, 42, 77
9, 28720, Note_on_c, 9, 42, 0
9, 28720, Note_on_c, 9, 38, 0
9, 28727, Note_on_c, 9, 42, 77
9, 28727, Note_on_c, 9, 46, 77
9, 28739, Note_on_c, 9, 46, 0
9, 28740, Note_on_c, 9, 42, 0
9, 28751, Note_on_c, 9, 46, 77
9, 28763, Note_on_c, 9, 46, 0
9, 28799, Note_on_c, 9, 42, 77
9, 28799, Note_on_c, 9, 36, 127
9, 28815, Note_on_c, 9, 36, 0
9, 28815, Note_on_c, 9, 42, 0
9, 28823, Note_on_c, 9, 37, 127
9, 28823, Note_on_c, 9, 42, 77
9, 28834, Note_on_c, 9, 37, 0
9, 28835, Note_on_c, 9, 42, 0
9, 28847, Note_on_c, 9, 42, 77
9, 28861, Note_on_c, 9, 42, 0
9, 28871, Note_on_c, 9, 37, 127
9, 28871, Note_on_c, 9, 42, 77
9, 28871, Note_on_c, 9, 36, 127
9, 28887, Note_on_c, 9, 36, 0
9, 28887, Note_on_c, 9, 42, 0
9, 28887, Note_on_c, 9, 37, 0
9, 28895, Note_on_c, 9, 38, 127
9, 28895, Note_on_c, 9, 42, 77
9, 28911, Note_on_c, 9, 38, 0
9, 28912, Note_on_c, 9, 42, 0
9, 28919, Note_on_c, 9, 42, 77
9, 28931, Note_on_c, 9, 42, 0
9, 28943, Note_on_c, 9, 42, 77
9, 28943, Note_on_c, 9, 36, 127
9, 28956, Note_on_c, 9, 36, 0
9, 28957, Note_on_c, 9, 42, 0
9, 28967, Note_on_c, 9, 42, 77
9, 28983, Note_on_c, 9, 42, 0
9, 28991, Note_on_c, 9, 37, 127
9, 28991, Note_on_c, 9, 42, 77
9, 29008, Note_on_c, 9, 42, 0
9, 29008, Note_on_c, 9, 37, 0
9, 29015, Note_on_c, 9, 38, 127
9, 29015, Note_on_c, 9, 42, 77
9, 29027, Note_on_c, 9, 42, 0
9, 29027, Note_on_c, 9, 38, 0
9, 29039, Note_on_c, 9, 46, 77
9, 29039, Note_on_c, 9, 36, 127
9, 29052, Note_on_c, 9, 36, 0
9, 29052, Note_on_c, 9, 46, 0
9, 29063, Note_on_c, 9, 37, 127
9, 29079, Note_on_c, 9, 37, 0
9, 29087, Note_on_c, 9, 38, 127
9, 29087, Note_on_c, 9, 42, 77
9, 29103, Note_on_c, 9, 42, 0
9, 29103, Note_on_c, 9, 38, 0
9, 29111, Note_on_c, 9, 42, 77
9, 29123, Note_on_c, 9, 42, 0
9, 29135, Note_on_c, 9, 46, 77
9, 29148, Note_on_c, 9, 46, 0
9, 29159, Note_on_c, 9, 38, 127
9, 29176, Note_on_c, 9, 38, 0
9, 29183, Note_on_c, 9, 42, 77
9, 29183, Note_on_c, 9, 36, 127
9, 29199, Note_on_c, 9, 36, 0
9, 29199, Note_on_c, 9, 42, 0
9, 29207, Note_on_c, 9, 37, 127
9, 29207, Note_on_c, 9, 42, 77
9, 29218, Note_on_c, 9, 37, 0
9, 29219, Note_on_c, 9, 42, 0
9, 29231, Note_on_c, 9, 42, 77
9, 29245, Note_on_c, 9, 42, 0
9, 29255, Note_on_c, 9, 37, 127
9, 29255, Note_on_c, 9, 42, 77
9, 29255, Note_on_c, 9, 36, 127
9, 29270, Note_on_c, 9, 37, 0
9, 29271, Note_on_c, 9, 36, 0
9, 29271, Note_on_c, 9, 42, 0
9, 29279, Note_on_c, 9, 38, 127
9, 29279, Note_on_c, 9, 42, 77
9, 29295, Note_on_c, 9, 42, 0
9, 29296, Note_on_c, 9, 38, 0
9, 29303, Note_on_c, 9, 42, 77
9, 29315, Note_on_c, 9, 42, 0
9, 29327, Note_on_c, 9, 42, 77
9, 29327, Note_on_c, 9, 36, 127
9, 29341, Note_on_c, 9, 36, 0
9, 29341, Note_on_c, 9, 42, 0
9, 29351, Note_on_c, 9, 42, 77
9, 29366, Note_on_c, 9, 42, 0
9, 29375, Note_on_c, 9, 37, 127
9, 29375, Note_on_c, 9, 42, 77
9, 29392, Note_on_c, 9, 42, 0
9, 29392, Note_on_c, 9, 37, 0
9, 29399, Note_on_c, 9, 38, 127
9, 29399, Note_on_c, 9, 42, 77
9, 29411, Note_on_c, 9, 42, 0
9, 29411, Note_on_c, 9, 38, 0
9, 29423, Note_on_c, 9, 42, 77
9, 29423, Note_on_c, 9, 36, 127
9, 29436, Note_on_c, 9, 36, 0
9, 29436, Note_on_c, 9, 42, 0
9, 29447, Note_on_c, 9, 37, 127
9, 29447, Note_on_c, 9, 42, 77
9, 29463, Note_on_c, 9, 42, 0
9, 29463, Note_on_c, 9, 37, 0
9, 29471, Note_on_c, 9, 38, 127
9, 29471, Note_on_c, 9, 42, 77
9, 29488, Note_on_c, 9, 42, 0
9, 29488, Note_on_c, 9, 38, 0
9, 29495, Note_on_c, 9, 42, 77
9, 29495, Note_on_c, 9, 46, 77
9, 29507, Note_on_c, 9, 46, 0
9, 29507, Note_on_c, 9, 42, 0
9, 29519, Note_on_c, 9, 46, 77
9, 29533, Note_on_c, 9, 46, 0
9, 29567, Note_on_c, 9, 42, 77
9, 29567, Note_on_c, 9, 36, 127
9, 29583, Note_on_c, 9, 36, 0
9, 29583, Note_on_c, 9, 42, 0
9, 29591, Note_on_c, 9, 37, 127
9, 29591, Note_on_c, 9, 42, 77
9, 29603, Note_on_c, 9, 42, 0
9, 29603, Note_on_c, 9, 37, 0
9, 29615, Note_on_c, 9, 42, 77
9, 29628, Note_on_c, 9, 42, 0
9, 29639, Note_on_c, 9, 37, 127
9, 29639, Note_on_c, 9, 42, 77
9, 29639, Note_on_c, 9, 36, 127
9, 29654, Note_on_c, 9, 36, 0
9, 29655, Note_on_c, 9, 42, 0
9, 29655, Note_on_c, 9, 37, 0
9, 29663, Note_on_c, 9, 38, 127
9, 29663, Note_on_c, 9, 42, 77
9, 29680, Note_on_c, 9, 42, 0
9, 29680, Note_on_c, 9, 38, 0
9, 29687, Note_on_c, 9, 42, 77
9, 29699, Note_on_c, 9, 42, 0
9, 29711, Note_on_c, 9, 42, 77
9, 29711, Note_on_c, 9, 36, 127
9, 29725, Note_on_c, 9, 36, 0
9, 29725, Note_on_c, 9, 42, 0
9, 29735, Note_on_c, 9, 38, 127
9, 29735, Note_on_c, 9, 42, 77
9, 29751, Note_on_c, 9, 42, 0
9, 29751, Note_on_c, 9, 38, 0
9, 29759, Note_on_c, 9, 42, 77
9, 29759, Note_on_c, 9, 36, 127
9, 29775, Note_on_c, 9, 36, 0
9, 29775, Note_on_c, 9, 42, 0
9, 29783, Note_on_c, 9, 38, 127
9, 29783, Note_on_c, 9, 42, 77
9, 29795, Note_on_c, 9, 42, 0
9, 29795, Note_on_c, 9, 38, 0
9, 29807, Note_on_c, 9, 46, 77
9, 29807, Note_on_c, 9, 36, 127
9, 29820, Note_on_c, 9, 36, 0
9, 29820, Note_on_c, 9, 46, 0
9, 29855, Note_on_c, 9, 38, 127
9, 29855, Note_on_c, 9, 42, 77
9, 29871, Note_on_c, 9, 42, 0
9, 29871, Note_on_c, 9, 38, 0
9, 29879, Note_on_c, 9, 42, 77
9, 29891, Note_on_c, 9, 42, 0
9, 29903, Note_on_c, 9, 38, 127
9, 29903, Note_on_c, 9, 46, 77
9, 29917, Note_on_c, 9, 46, 0
9, 29917, Note_on_c, 9, 38, 0
9, 29927, Note_on_c, 9, 38, 127
9, 29943, Note_on_c, 9, 38, 0
9, 29951, Note_on_c, 9, 42, 77
9, 29951, Note_on_c, 9, 36, 127
9, 29966, Note_on_c, 9, 36, 0
9, 29966, Note_on_c, 9, 42, 0
9, 29975, Note_on_c, 9, 37, 127
9, 29975, Note_on_c, 9, 42, 77
9, 29992, Note_on_c, 9, 42, 0
9, 29992, Note_on_c, 9, 37, 0
9, 29999, Note_on_c, 9, 42, 77
9, 30011, Note_on_c, 9, 42, 0
9, 30023, Note_on_c, 9, 37, 127
9, 30023, Note_on_c, 9, 42, 77
9, 30023, Note_on_c, 9, 36, 127
9, 30037, Note_on_c, 9, 36, 0
9, 30037, Note_on_c, 9, 42, 0
9, 30037, Note_on_c, 9, 37, 0
9, 30047, Note_on_c, 9, 38, 127
9, 30047, Note_on_c, 9, 42, 77
9, 30063, Note_on_c, 9, 42, 0
9, 30063, Note_on_c, 9, 38, 0
9, 30071, Note_on_c, 9, 42, 77
9, 30088, Note_on_c, 9, 42, 0
9, 30095, Note_on_c, 9, 42, 77
9, 30095, Note_on_c, 9, 36, 127
9, 30107, Note_on_c, 9, 36, 0
9, 30107, Note_on_c, 9, 42, 0
9, 30119, Note_on_c, 9, 42, 77
9, 30132, Note_on_c, 9, 42, 0
9, 30143, Note_on_c, 9, 37, 127
9, 30143, Note_on_c, 9, 42, 77
9, 30158, Note_on_c, 9, 37, 0
9, 30159, Note_on_c, 9, 42, 0
9, 30167, Note_on_c, 9, 38, 127
9, 30167, Note_on_c, 9, 42, 77
9, 30183, Note_on_c, 9, 38, 0
9, 30184, Note_on_c, 9, 42, 0
9, 30191, Note_on_c, 9, 42, 77
9, 30191, Note_on_c, 9, 36, 127
9, 30202, Note_on_c, 9, 36, 0
9, 30202, Note_on_c, 9, 42, 0
9, 30215, Note_on_c, 9, 37, 127
9, 30215, Note_on_c, 9, 42, 77
9, 30229, Note_on_c, 9, 42, 0
9, 30229, Note_on_c, 9, 37, 0
9, 30239, Note_on_c, 9, 38, 127
9, 30239, Note_on_c, 9, 42, 77
9, 30255, Note_on_c, 9, 42, 0
9, 30255, Note_on_c, 9, 38, 0
9, 30263, Note_on_c, 9, 42, 77
9, 30263, Note_on_c, 9, 46, 77
9, 30280, Note_on_c, 9, 46, 0
9, 30280, Note_on_c, 9, 42, 0
9, 30287, Note_on_c, 9, 46, 77
9, 30299, Note_on_c, 9, 46, 0
9, 30335, Note_on_c, 9, 42, 77
9, 30335, Note_on_c, 9, 36, 127
9, 30350, Note_on_c, 9, 36, 0
9, 30350, Note_on_c, 9, 42, 0
9, 30359, Note_on_c, 9, 37, 127
9, 30359, Note_on_c, 9, 42, 77
9, 30375, Note_on_c, 9, 37, 0
9, 30376, Note_on_c, 9, 42, 0
9, 30383, Note_on_c, 9, 42, 77
9, 30396, Note_on_c, 9, 42, 0
9, 30407, Note_on_c, 9, 37, 127
9, 30407, Note_on_c, 9, 42, 77
9, 30407, Note_on_c, 9, 36, 127
9, 30421, Note_on_c, 9, 36, 0
9, 30421, Note_on_c, 9, 42, 0
9, 30421, Note_on_c, 9, 37, 0
9, 30431, Note_on_c, 9, 38, 127
9, 30431, Note_on_c, 9, 42, 77
9, 30447, Note_on_c, 9, 42, 0
9, 30447, Note_on_c, 9, 38, 0
9, 30455, Note_on_c, 9, 42, 77
9, 30472, Note_on_c, 9, 42, 0
9, 30479, Note_on_c, 9, 42, 77
9, 30479, Note_on_c, 9, 36, 127
9, 30491, Note_on_c, 9, 42, 0
9, 30492, Note_on_c, 9, 36, 0
9, 30503, Note_on_c, 9, 42, 77
9, 30517, Note_on_c, 9, 42, 0
9, 30527, Note_on_c, 9, 37, 127
9, 30527, Note_on_c, 9, 42, 77
9, 30542, Note_on_c, 9, 42, 0
9, 30542, Note_on_c, 9, 37, 0
9, 30551, Note_on_c, 9, 38, 127
9, 30551, Note_on_c, 9, 42, 77
9, 30568, Note_on_c, 9, 42, 0
9, 30568, Note_on_c, 9, 38, 0
9, 30575, Note_on_c, 9, 46, 77
9, 30575, Note_on_c, 9, 36, 127
9, 30586, Note_on_c, 9, 36, 0
9, 30587, Note_on_c, 9, 46, 0
9, 30599, Note_on_c, 9, 37, 127
9, 30613, Note_on_c, 9, 37, 0
9, 30623, Note_on_c, 9, 38, 127
9, 30623, Note_on_c, 9, 42, 77
9, 30639, Note_on_c, 9, 42, 0
9, 30639, Note_on_c, 9, 38, 0
9, 30647, Note_on_c, 9, 42, 77
9, 30664, Note_on_c, 9, 42, 0
9, 30671, Note_on_c, 9, 46, 77
9, 30683, Note_on_c, 9, 46, 0
9, 30695, Note_on_c, 9, 38, 127
9, 30708, Note_on_c, 9, 38, 0
9, 30719, Note_on_c, 9, 42, 77
9, 30719, Note_on_c, 9, 36, 127
9, 30733, Note_on_c, 9, 36, 0
9, 30734, Note_on_c, 9, 42, 0
9, 30743, Note_on_c, 9, 37, 127
9, 30743, Note_on_c, 9, 42, 77
9, 30760, Note_on_c, 9, 42, 0
9, 30760, Note_on_c, 9, 37, 0
9, 30767, Note_on_c, 9, 42, 77
9, 30779, Note_on_c, 9, 42, 0
9, 30791, Note_on_c, 9, 37, 127
9, 30791, Note_on_c, 9, 42, 77
9, 30791, Note_on_c, 9, 36, 127
9, 30804, Note_on_c, 9, 37, 0
9, 30805, Note_on_c, 9, 36, 0
9, 30805, Note_on_c, 9, 42, 0
9, 30815, Note_on_c, 9, 38, 127
9, 30815, Note_on_c, 9, 42, 77
9, 30830, Note_on_c, 9, 42, 0
9, 30831, Note_on_c, 9, 38, 0
9, 30839, Note_on_c, 9, 42, 77
9, 30857, Note_on_c, 9, 42, 0
9, 30863, Note_on_c, 9, 42, 77
9, 30863, Note_on_c, 9, 36, 127
9, 30875, Note_on_c, 9, 36, 0
9, 30875, Note_on_c, 9, 42, 0
9, 30887, Note_on_c, 9, 42, 77
9, 30901, Note_on_c, 9, 42, 0
9, 30911, Note_on_c, 9, 37, 127
9, 30911, Note_on_c, 9, 42, 77
9, 30927, Note_on_c, 9, 37, 0
9, 30928, Note_on_c, 9, 42, 0
9, 30935, Note_on_c, 9, 38, 127
9, 30935, Note_on_c, 9, 42, 77
9, 30952, Note_on_c, 9, 42, 0
9, 30952, Note_on_c, 9, 38, 0
9, 30959, Note_on_c, 9, 42, 77
9, 30959, Note_on_c, 9, 36, 127
9, 30970, Note_on_c, 9, 36, 0
9, 30971, Note_on_c, 9, 42, 0
9, 30983, Note_on_c, 9, 37, 127
9, 30983, Note_on_c, 9, 42, 77
9, 30996, Note_on_c, 9, 37, 0
9, 30997, Note_on_c, 9, 42, 0
9, 31007, Note_on_c, 9, 38, 127
9, 31007, Note_on_c, 9, 42, 77
9, 31022, Note_on_c, 9, 42, 0
9, 31023, Note_on_c, 9, 38, 0
9, 31031, Note_on_c, 9, 42, 77
9, 31031, Note_on_c, 9, 46, 77
9, 31047, Note_on_c, 9, 46, 0
9, 31047, Note_on_c, 9, 42, 0
9, 31055, Note_on_c, 9, 46, 77
9, 31068, Note_on_c, 9, 46, 0
9, 31103, Note_on_c, 9, 42, 77
9, 31103, Note_on_c, 9, 36, 127
9, 31118, Note_on_c, 9, 36, 0
9, 31118, Note_on_c, 9, 42, 0
9, 31127, Note_on_c, 9, 37, 127
9, 31127, Note_on_c, 9, 42, 77
9, 31144, Note_on_c, 9, 42, 0
9, 31144, Note_on_c, 9, 37, 0
9, 31151, Note_on_c, 9, 42, 77
9, 31163, Note_on_c, 9, 42, 0
9, 31175, Note_on_c, 9, 37, 127
9, 31175, Note_on_c, 9, 42, 77
9, 31175, Note_on_c, 9, 36, 127
9, 31188, Note_on_c, 9, 37, 0
9, 31189, Note_on_c, 9, 36, 0
9, 31189, Note_on_c, 9, 42, 0
9, 31199, Note_on_c, 9, 38, 127
9, 31199, Note_on_c, 9, 42, 77
9, 31215, Note_on_c, 9, 42, 0
9, 31215, Note_on_c, 9, 38, 0
9, 31223, Note_on_c, 9, 42, 77
9, 31239, Note_on_c, 9, 42, 0
9, 31247, Note_on_c, 9, 42, 77
9, 31247, Note_on_c, 9, 36, 127
9, 31259, Note_on_c, 9, 42, 0
9, 31260, Note_on_c, 9, 36, 0
9, 31271, Note_on_c, 9, 42, 77
9, 31285, Note_on_c, 9, 42, 0
9, 31295, Note_on_c, 9, 37, 127
9, 31295, Note_on_c, 9, 42, 77
9, 31310, Note_on_c, 9, 37, 0
9, 31311, Note_on_c, 9, 42, 0
9, 31319, Note_on_c, 9, 38, 127
9, 31319, Note_on_c, 9, 42, 77
9, 31336, Note_on_c, 9, 42, 0
9, 31336, Note_on_c, 9, 38, 0
9, 31343, Note_on_c, 9, 46, 77
9, 31343, Note_on_c, 9, 36, 127
9, 31356, Note_on_c, 9, 36, 0
9, 31356, Note_on_c, 9, 46, 0
9, 31367, Note_on_c, 9, 37, 127
9, 31383, Note_on_c, 9, 37, 0
9, 31391, Note_on_c, 9, 38, 127
9, 31391, Note_on_c, 9, 42, 77
9, 31408, Note_on_c, 9, 42, 0
9, 31408, Note_on_c, 9, 38, 0
9, 31415, Note_on_c, 9, 42, 77
9, 31427, Note_on_c, 9, 42, 0
9, 31439, Note_on_c, 9, 46, 77
9, 31452, Note_on_c, 9, 46, 0
9, 31463, Note_on_c, 9, 38, 127
9, 31479, Note_on_c, 9, 38, 0
9, 31487, Note_on_c, 9, 42, 77
9, 31487, Note_on_c, 9, 36, 127
9, 31503, Note_on_c, 9, 36, 0
9, 31503, Note_on_c, 9, 42, 0
9, 31511, Note_on_c, 9, 37, 127
9, 31511, Note_on_c, 9, 42, 77
9, 31523, Note_on_c, 9, 37, 0
9, 31524, Note_on_c, 9, 42, 0
9, 31535, Note_on_c, 9, 42, 77
9, 31549, Note_on_c, 9, 42, 0
9, 31559, Note_on_c, 9, 37, 127
9, 31559, Note_on_c, 9, 42, 77
9, 31559, Note_on_c, 9, 36, 127
9, 31575, Note_on_c, 9, 36, 0
9, 31575, Note_on_c, 9, 42, 0
9, 31575, Note_on_c, 9, 37, 0
9, 31583, Note_on_c, 9, 38, 127
9, 31583, Note_on_c, 9, 42, 77
9, 31601, Note_on_c, 9, 42, 0
9, 31601, Note_on_c, 9, 38, 0
9, 31607, Note_on_c, 9, 42, 77
9, 31619, Note_on_c, 9, 42, 0
9, 31631, Note_on_c, 9, 42, 77
9, 31631, Note_on_c, 9, 36, 127
9, 31645, Note_on_c, 9, 36, 0
9, 31645, Note_on_c, 9, 42, 0
9, 31655, Note_on_c, 9, 42, 77
9, 31671, Note_on_c, 9, 42, 0
9, 31679, Note_on_c, 9, 37, 127
9, 31679, Note_on_c, 9, 42, 77
9, 31696, Note_on_c, 9, 42, 0
9, 31696, Note_on_c, 9, 37, 0
9, 31703, Note_on_c, 9, 38, 127
9, 31703, Note_on_c, 9, 42, 77
9, 31715, Note_on_c, 9, 42, 0
9, 31715, Note_on_c, 9, 38, 0
9, 31727, Note_on_c, 9, 42, 77
9, 31727, Note_on_c, 9, 36, 127
9, 31741, Note_on_c, 9, 36, 0
9, 31741, Note_on_c, 9, 42, 0
9, 31751, Note_on_c, 9, 37, 127
9, 31751, Note_on_c, 9, 42, 77
9, 31767, Note_on_c, 9, 42, 0
9, 31767, Note_on_c, 9, 37, 0
9, 31775, Note_on_c, 9, 38, 127
9, 31775, Note_on_c, 9, 42, 77
9, 31792, Note_on_c, 9, 42, 0
9, 31792, Note_on_c, 9, 38, 0
9, 31799, Note_on_c, 9, 42, 77
9, 31799, Note_on_c, 9, 46, 77
9, 31811, Note_on_c, 9, 46, 0
9, 31811, Note_on_c, 9, 42, 0
9, 31823, Note_on_c, 9, 46, 77
9, 31837, Note_on_c, 9, 46, 0
9, 31871, Note_on_c, 9, 42, 77
9, 31871, Note_on_c, 9, 36, 127
9, 31887, Note_on_c, 9, 36, 0
9, 31887, Note_on_c, 9, 42, 0
9, 31895, Note_on_c, 9, 37, 127
9, 31895, Note_on_c, 9, 42, 77
9, 31907, Note_on_c, 9, 42, 0
9, 31907, Note_on_c, 9, 37, 0
9, 31919, Note_on_c, 9, 42, 77
9, 31933, Note_on_c, 9, 42, 0
9, 31943, Note_on_c, 9, 37, 127
9, 31943, Note_on_c, 9, 42, 77
9, 31943, Note_on_c, 9, 36, 127
9, 31959, Note_on_c, 9, 36, 0
9, 31959, Note_on_c, 9, 42, 0
9, 31959, Note_on_c, 9, 37, 0
9, 31967, Note_on_c, 9, 38, 127
9, 31967, Note_on_c, 9, 42, 77
9, 31984, Note_on_c, 9, 42, 0
9, 31984, Note_on_c, 9, 38, 0
9, 31991, Note_on_c, 9, 42, 77
9, 32004, Note_on_c, 9, 42, 0
9, 32015, Note_on_c, 9, 42, 77
9, 32015, Note_on_c, 9, 36, 127
9, 32028, Note_on_c, 9, 36, 0
9, 32028, Note_on_c, 9, 42, 0
9, 32039, Note_on_c, 9, 42, 77
9, 32055, Note_on_c, 9, 42, 0
9, 32063, Note_on_c, 9, 37, 127
9, 32063, Note_on_c, 9, 42, 77
9, 32079, Note_on_c, 9, 42, 0
9, 32079, Note_on_c, 9, 37, 0
9, 32087, Note_on_c, 9, 38, 127
9, 32087, Note_on_c, 9, 42, 77
9, 32099, Note_on_c, 9, 42, 0
9, 32099, Note_on_c, 9, 38, 0
9, 32111, Note_on_c, 9, 46, 77
9, 32111, Note_on_c, 9, 36, 127
9, 32125, Note_on_c, 9, 36, 0
9, 32125, Note_on_c, 9, 46, 0
9, 32135, Note_on_c, 9, 37, 127
9, 32151, Note_on_c, 9, 37, 0
9, 32159, Note_on_c, 9, 38, 127
9, 32159, Note_on_c, 9, 42, 77
9, 32176, Note_on_c, 9, 42, 0
9, 32176, Note_on_c, 9, 38, 0
9, 32183, Note_on_c, 9, 42, 77
9, 32195, Note_on_c, 9, 42, 0
9, 32207, Note_on_c, 9, 46, 77
9, 32220, Note_on_c, 9, 46, 0
9, 32231, Note_on_c, 9, 38, 127
9, 32247, Note_on_c, 9, 38, 0
9, 32255, Note_on_c, 9, 42, 77
9, 32255, Note_on_c, 9, 36, 127
9, 32271, Note_on_c, 9, 36, 0
9, 32271, Note_on_c, 9, 42, 0
9, 32279, Note_on_c, 9, 37, 127
9, 32279, Note_on_c, 9, 42, 77
9, 32291, Note_on_c, 9, 37, 0
9, 32292, Note_on_c, 9, 42, 0
9, 32303, Note_on_c, 9, 42, 77
9, 32317, Note_on_c, 9, 42, 0
9, 32327, Note_on_c, 9, 37, 127
9, 32327, Note_on_c, 9, 42, 77
9, 32327, Note_on_c, 9, 36, 127
9, 32342, Note_on_c, 9, 37, 0
9, 32343, Note_on_c, 9, 36, 0
9, 32343, Note_on_c, 9, 42, 0
9, 32351, Note_on_c, 9, 38, 127
9, 32351, Note_on_c, 9, 42, 77
9, 32368, Note_on_c, 9, 42, 0
9, 32369, Note_on_c, 9, 38, 0
9, 32375, Note_on_c, 9, 42, 77
9, 32387, Note_on_c, 9, 42, 0
9, 32399, Note_on_c, 9, 42, 77
9, 32399, Note_on_c, 9, 36, 127
9, 32413, Note_on_c, 9, 36, 0
9, 32413, Note_on_c, 9, 42, 0
9, 32423, Note_on_c, 9, 42, 77
9, 32439, Note_on_c, 9, 42, 0
9, 32447, Note_on_c, 9, 37, 127
9, 32447, Note_on_c, 9, 42, 77
9, 32464, Note_on_c, 9, 42, 0
9, 32464, Note_on_c, 9, 37, 0
9, 32471, Note_on_c, 9, 38, 127
9, 32471, Note_on_c, 9, 42, 77
9, 32482, Note_on_c, 9, 42, 0
9, 32483, Note_on_c, 9, 38, 0
9, 32495, Note_on_c, 9, 42, 77
9, 32495, Note_on_c, 9, 36, 127
9, 32509, Note_on_c, 9, 36, 0
9, 32509, Note_on_c, 9, 42, 0
9, 32519, Note_on_c, 9, 37, 127
9, 32519, Note_on_c, 9, 42, 77
9, 32534, Note_on_c, 9, 42, 0
9, 32534, Note_on_c, 9, 37, 0
9, 32543, Note_on_c, 9, 38, 127
9, 32543, Note_on_c, 9, 42, 77
9, 32559, Note_on_c, 9, 42, 0
9, 32559, Note_on_c, 9, 38, 0
9, 32567, Note_on_c, 9, 42, 77
9, 32567, Note_on_c, 9, 46, 77
9, 32579, Note_on_c, 9, 46, 0
9, 32579, Note_on_c, 9, 42, 0
9, 32591, Note_on_c, 9, 46, 77
9, 32604, Note_on_c, 9, 46, 0
9, 32639, Note_on_c, 9, 42, 77
9, 32639, Note_on_c, 9, 36, 127
9, 32654, Note_on_c, 9, 36, 0
9, 32654, Note_on_c, 9, 42, 0
9, 32663, Note_on_c, 9, 37, 127
9, 32663, Note_on_c, 9, 42, 77
9, 32674, Note_on_c, 9, 37, 0
9, 32675, Note_on_c, 9, 42, 0
9, 32687, Note_on_c, 9, 42, 77
9, 32701, Note_on_c, 9, 42, 0
9, 32711, Note_on_c, 9, 37, 127
9, 32711, Note_on_c, 9, 42, 77
9, 32711, Note_on_c, 9, 36, 127
9, 32727, Note_on_c, 9, 36, 0
9, 32727, Note_on_c, 9, 42, 0
9, 32727, Note_on_c, 9, 37, 0
9, 32735, Note_on_c, 9, 38, 127
9, 32735, Note_on_c, 9, 42, 77
9, 32752, Note_on_c, 9, 42, 0
9, 32752, Note_on_c, 9, 38, 0
9, 32759, Note_on_c, 9, 42, 77
9, 32771, Note_on_c, 9, 42, 0
9, 32783, Note_on_c, 9, 42, 77
9, 32783, Note_on_c, 9, 36, 127
9, 32796, Note_on_c, 9, 36, 0
9, 32796, Note_on_c, 9, 42, 0
9, 32807, Note_on_c, 9, 38, 127
9, 32807, Note_on_c, 9, 42, 77
9, 32823, Note_on_c, 9, 42, 0
9, 32823, Note_on_c, 9, 38, 0
9, 32831, Note_on_c, 9, 42, 77
9, 32831, Note_on_c, 9, 36, 127
9, 32847, Note_on_c, 9, 36, 0
9, 32847, Note_on_c, 9, 42, 0
9, 32855, Note_on_c, 9, 38, 127
9, 32855, Note_on_c, 9, 42, 77
9, 32867, Note_on_c, 9, 42, 0
9, 32867, Note_on_c, 9, 38, 0
9, 32879, Note_on_c, 9, 46, 77
9, 32879, Note_on_c, 9, 36, 127
9, 32892, Note_on_c, 9, 46, 0
9, 32893, Note_on_c, 9, 36, 0
9, 32927, Note_on_c, 9, 38, 127
9, 32927, Note_on_c, 9, 42, 77
9, 32943, Note_on_c, 9, 42, 0
9, 32943, Note_on_c, 9, 38, 0
9, 32951, Note_on_c, 9, 42, 77
9, 32963, Note_on_c, 9, 42, 0
9, 32975, Note_on_c, 9, 38, 127
9, 32975, Note_on_c, 9, 46, 77
9, 32988, Note_on_c, 9, 46, 0
9, 32988, Note_on_c, 9, 38, 0
9, 32999, Note_on_c, 9, 38, 127
9, 33015, Note_on_c, 9, 38, 0
9, 33023, Note_on_c, 9, 42, 77
9, 33023, Note_on_c, 9, 36, 127
9, 33038, Note_on_c, 9, 42, 0
9, 33039, Note_on_c, 9, 36, 0
9, 33047, Note_on_c, 9, 37, 127
9, 33047, Note_on_c, 9, 42, 77
9, 33058, Note_on_c, 9, 37, 0
9, 33059, Note_on_c, 9, 42, 0
9, 33071, Note_on_c, 9, 42, 77
9, 33085, Note_on_c, 9, 42, 0
9, 33095, Note_on_c, 9, 37, 127
9, 33095, Note_on_c, 9, 42, 77
9, 33095, Note_on_c, 9, 36, 127
9, 33110, Note_on_c, 9, 36, 0
9, 33111, Note_on_c, 9, 42, 0
9, 33111, Note_on_c, 9, 37, 0
9, 33119, Note_on_c, 9, 39, 127
9, 33119, Note_on_c, 9, 42, 77
9, 33136, Note_on_c, 9, 39, 0
9, 33137, Note_on_c, 9, 42, 0
9, 33143, Note_on_c, 9, 42, 77
9, 33155, Note_on_c, 9, 42, 0
9, 33167, Note_on_c, 9, 42, 77
9, 33167, Note_on_c, 9, 36, 127
9, 33180, Note_on_c, 9, 36, 0
9, 33180, Note_on_c, 9, 42, 0
9, 33191, Note_on_c, 9, 42, 77
9, 33207, Note_on_c, 9, 42, 0
9, 33215, Note_on_c, 9, 37, 127
9, 33215, Note_on_c, 9, 42, 77
9, 33232, Note_on_c, 9, 42, 0
9, 33232, Note_on_c, 9, 37, 0
9, 33239, Note_on_c, 9, 42, 77
9, 33251, Note_on_c, 9, 42, 0
9, 33263, Note_on_c, 9, 42, 77
9, 33263, Note_on_c, 9, 36, 127
9, 33277, Note_on_c, 9, 36, 0
9, 33277, Note_on_c, 9, 42, 0
9, 33287, Note_on_c, 9, 37, 127
9, 33287, Note_on_c, 9, 42, 77
9, 33303, Note_on_c, 9, 42, 0
9, 33303, Note_on_c, 9, 37, 0
9, 33311, Note_on_c, 9, 39, 127
9, 33311, Note_on_c, 9, 42, 77
9, 33328, Note_on_c, 9, 42, 0
9, 33328, Note_on_c, 9, 39, 0
9, 33335, Note_on_c, 9, 42, 77
9, 33335, Note_on_c, 9, 46, 77
9, 33347, Note_on_c, 9, 46, 0
9, 33347, Note_on_c, 9, 42, 0
9, 33359, Note_on_c, 9, 46, 77
9, 33373, Note_on_c, 9, 46, 0
9, 33407, Note_on_c, 9, 42, 77
9, 33407, Note_on_c, 9, 36, 127
9, 33422, Note_on_c, 9, 36, 0
9, 33423, Note_on_c, 9, 42, 0
9, 33431, Note_on_c, 9, 37, 127
9, 33431, Note_on_c, 9, 42, 77
9, 33442, Note_on_c, 9, 37, 0
9, 33443, Note_on_c, 9, 42, 0
9, 33455, Note_on_c, 9, 42, 77
9, 33469, Note_on_c, 9, 42, 0
9, 33479, Note_on_c, 9, 37, 127
9, 33479, Note_on_c, 9, 42, 77
9, 33479, Note_on_c, 9, 36, 127
9, 33495, Note_on_c, 9, 36, 0
9, 33495, Note_on_c, 9, 42, 0
9, 33495, Note_on_c, 9, 37, 0
9, 33503, Note_on_c, 9, 39, 127
9, 33503, Note_on_c, 9, 42, 77
9, 33519, Note_on_c, 9, 42, 0
9, 33519, Note_on_c, 9, 39, 0
9, 33527, Note_on_c, 9, 42, 77
9, 33539, Note_on_c, 9, 42, 0
9, 33551, Note_on_c, 9, 42, 77
9, 33551, Note_on_c, 9, 36, 127
9, 33564, Note_on_c, 9, 36, 0
9, 33565, Note_on_c, 9, 42, 0
9, 33575, Note_on_c, 9, 42, 77
9, 33591, Note_on_c, 9, 42, 0
9, 33599, Note_on_c, 9, 42, 77
9, 33616, Note_on_c, 9, 42, 0
9, 33623, Note_on_c, 9, 42, 77
9, 33635, Note_on_c, 9, 42, 0
9, 33647, Note_on_c, 9, 46, 77
9, 33647, Note_on_c, 9, 36, 127
9, 33661, Note_on_c, 9, 36, 0
9, 33661, Note_on_c, 9, 46, 0
9, 33695, Note_on_c, 9, 39, 127
9, 33712, Note_on_c, 9, 39, 0
9, 33719, Note_on_c, 9, 42, 77
9, 33731, Note_on_c, 9, 42, 0
9, 33743, Note_on_c, 9, 46, 77
9, 33743, Note_on_c, 9, 36, 127
9, 33757, Note_on_c, 9, 36, 0
9, 33757, Note_on_c, 9, 46, 0
9, 33791, Note_on_c, 9, 42, 77
9, 33791, Note_on_c, 9, 36, 127
9, 33806, Note_on_c, 9, 36, 0
9, 33806, Note_on_c, 9, 42, 0
9, 33815, Note_on_c, 9, 37, 127
9, 33815, Note_on_c, 9, 42, 77
9, 33832, Note_on_c, 9, 42, 0
9, 33832, Note_on_c, 9, 37, 0
9, 33839, Note_on_c, 9, 42, 77
9, 33851, Note_on_c, 9, 42, 0
9, 33863, Note_on_c, 9, 37, 127
9, 33863, Note_on_c, 9, 42, 77
9, 33863, Note_on_c, 9, 36, 127
9, 33877, Note_on_c, 9, 36, 0
9, 33877, Note_on_c, 9, 42, 0
9, 33877, Note_on_c, 9, 37, 0
9, 33887, Note_on_c, 9, 39, 127
9, 33887, Note_on_c, 9, 42, 77
9, 33903, Note_on_c, 9, 42, 0
9, 33903, Note_on_c, 9, 39, 0
9, 33911, Note_on_c, 9, 42, 77
9, 33928, Note_on_c, 9, 42, 0
9, 33935, Note_on_c, 9, 42, 77
9, 33935, Note_on_c, 9, 36, 127
9, 33947, Note_on_c, 9, 36, 0
9, 33947, Note_on_c, 9, 42, 0
9, 33959, Note_on_c, 9, 42, 77
9, 33972, Note_on_c, 9, 42, 0
9, 33983, Note_on_c, 9, 37, 127
9, 33983, Note_on_c, 9, 42, 77
9, 33999, Note_on_c, 9, 42, 0
9, 33999, Note_on_c, 9, 37, 0
9, 34007, Note_on_c, 9, 42, 77
9, 34023, Note_on_c, 9, 42, 0
9, 34031, Note_on_c, 9, 42, 77
9, 34031, Note_on_c, 9, 36, 127
9, 34043, Note_on_c, 9, 36, 0
9, 34043, Note_on_c, 9, 42, 0
9, 34055, Note_on_c, 9, 37, 127
9, 34055, Note_on_c, 9, 42, 77
9, 34069, Note_on_c, 9, 42, 0
9, 34069, Note_on_c, 9, 37, 0
9, 34079, Note_on_c, 9, 39, 127
9, 34079, Note_on_c, 9, 42, 77
9, 34094, Note_on_c, 9, 39, 0
9, 34095, Note_on_c, 9, 42, 0
9, 34103, Note_on_c, 9, 42, 77
9, 34103, Note_on_c, 9, 46, 77
9, 34120, Note_on_c, 9, 46, 0
9, 34120, Note_on_c, 9, 42, 0
9, 34127, Note_on_c, 9, 46, 77
9, 34139, Note_on_c, 9, 46, 0
9, 34175, Note_on_c, 9, 42, 77
9, 34175, Note_on_c, 9, 36, 127
9, 34190, Note_on_c, 9, 36, 0
9, 34190, Note_on_c, 9, 42, 0
9, 34199, Note_on_c, 9, 37, 127
9, 34199, Note_on_c, 9, 38, 127
9, 34199, Note_on_c, 9, 42, 77
9, 34215, Note_on_c, 9, 42, 0
9, 34215, Note_on_c, 9, 38, 0
9, 34215, Note_on_c, 9, 37, 0
9, 34223, Note_on_c, 9, 42, 77
9, 34235, Note_on_c, 9, 42, 0
9, 34247, Note_on_c, 9, 37, 127
9, 34247, Note_on_c, 9, 42, 77
9, 34247, Note_on_c, 9, 36, 127
9, 34261, Note_on_c, 9, 36, 0
9, 34261, Note_on_c, 9, 42, 0
9, 34261, Note_on_c, 9, 37, 0
9, 34271, Note_on_c, 9, 38, 127
9, 34271, Note_on_c, 9, 39, 127
9, 34271, Note_on_c, 9, 42, 77
9, 34286, Note_on_c, 9, 39, 0
9, 34287, Note_on_c, 9, 42, 0
9, 34287, Note_on_c, 9, 38, 0
9, 34295, Note_on_c, 9, 42, 77
9, 34312, Note_on_c, 9, 42, 0
9, 34319, Note_on_c, 9, 42, 77
9, 34319, Note_on_c, 9, 36, 127
9, 34331, Note_on_c, 9, 36, 0
9, 34331, Note_on_c, 9, 42, 0
9, 34343, Note_on_c, 9, 38, 127
9, 34343, Note_on_c, 9, 42, 77
9, 34356, Note_on_c, 9, 42, 0
9, 34356, Note_on_c, 9, 38, 0
9, 34367, Note_on_c, 9, 42, 77
9, 34367, Note_on_c, 9, 36, 127
9, 34381, Note_on_c, 9, 42, 0
9, 34382, Note_on_c, 9, 36, 0
9, 34391, Note_on_c, 9, 38, 127
9, 34391, Note_on_c, 9, 42, 77
9, 34407, Note_on_c, 9, 42, 0
9, 34408, Note_on_c, 9, 38, 0
9, 34415, Note_on_c, 9, 46, 77
9, 34415, Note_on_c, 9, 36, 127
9, 34426, Note_on_c, 9, 36, 0
9, 34426, Note_on_c, 9, 46, 0
9, 34463, Note_on_c, 9, 38, 127
9, 34463, Note_on_c, 9, 39, 127
9, 34478, Note_on_c, 9, 39, 0
9, 34478, Note_on_c, 9, 38, 0
9, 34487, Note_on_c, 9, 42, 77
9, 34503, Note_on_c, 9, 42, 0
9, 34511, Note_on_c, 9, 38, 127
9, 34511, Note_on_c, 9, 46, 77
9, 34511, Note_on_c, 9, 36, 127
9, 34523, Note_on_c, 9, 36, 0
9, 34523, Note_on_c, 9, 46, 0
9, 34523, Note_on_c, 9, 38, 0
9, 34535, Note_on_c, 9, 38, 127
9, 34548, Note_on_c, 9, 38, 0
9, 34559, Note_on_c, 9, 42, 77
9, 34559, Note_on_c, 9, 36, 127
9, 34573, Note_on_c, 9, 36, 0
9, 34573, Note_on_c, 9, 42, 0
9, 34583, Note_on_c, 9, 37, 127
9, 34583, Note_on_c, 9, 42, 77
9, 34599, Note_on_c, 9, 37, 0
9, 34600, Note_on_c, 9, 42, 0
9, 34607, Note_on_c, 9, 42, 77
9, 34619, Note_on_c, 9, 42, 0
9, 34631, Note_on_c, 9, 37, 127
9, 34631, Note_on_c, 9, 42, 77
9, 34631, Note_on_c, 9, 36, 127
9, 34644, Note_on_c, 9, 36, 0
9, 34644, Note_on_c, 9, 42, 0
9, 34644, Note_on_c, 9, 37, 0
9, 34655, Note_on_c, 9, 38, 127
9, 34655, Note_on_c, 9, 42, 77
9, 34671, Note_on_c, 9, 42, 0
9, 34671, Note_on_c, 9, 38, 0
9, 34679, Note_on_c, 9, 42, 77
9, 34696, Note_on_c, 9, 42, 0
9, 34703, Note_on_c, 9, 42, 77
9, 34703, Note_on_c, 9, 36, 127
9, 34715, Note_on_c, 9, 36, 0
9, 34715, Note_on_c, 9, 42, 0
9, 34727, Note_on_c, 9, 42, 77
9, 34740, Note_on_c, 9, 42, 0
9, 34751, Note_on_c, 9, 37, 127
9, 34751, Note_on_c, 9, 42, 77
9, 34767, Note_on_c, 9, 37, 0
9, 34768, Note_on_c, 9, 42, 0
9, 34775, Note_on_c, 9, 38, 127
9, 34775, Note_on_c, 9, 42, 77
9, 34791, Note_on_c, 9, 42, 0
9, 34791, Note_on_c, 9, 38, 0
9, 34799, Note_on_c, 9, 42, 77
9, 34799, Note_on_c, 9, 36, 127
9, 34811, Note_on_c, 9, 36, 0
9, 34811, Note_on_c, 9, 42, 0
9, 34823, Note_on_c, 9, 37, 127
9, 34823, Note_on_c, 9, 42, 77
9, 34837, Note_on_c, 9, 42, 0
9, 34837, Note_on_c, 9, 37, 0
9, 34847, Note_on_c, 9, 38, 127
9, 34847, Note_on_c, 9, 42, 77
9, 34863, Note_on_c, 9, 42, 0
9, 34863, Note_on_c, 9, 38, 0
9, 34871, Note_on_c, 9, 42, 77
9, 34871, Note_on_c, 9, 46, 77
9, 34888, Note_on_c, 9, 46, 0
9, 34888, Note_on_c, 9, 42, 0
9, 34895, Note_on_c, 9, 46, 77
9, 34907, Note_on_c, 9, 46, 0
9, 34943, Note_on_c, 9, 42, 77
9, 34943, Note_on_c, 9, 36, 127
9, 34958, Note_on_c, 9, 36, 0
9, 34958, Note_on_c, 9, 42, 0
9, 34967, Note_on_c, 9, 37, 127
9, 34967, Note_on_c, 9, 42, 77
9, 34983, Note_on_c, 9, 37, 0
9, 34985, Note_on_c, 9, 42, 0
9, 34991, Note_on_c, 9, 42, 77
9, 35004, Note_on_c, 9, 42, 0
9, 35015, Note_on_c, 9, 37, 127
9, 35015, Note_on_c, 9, 42, 77
9, 35015, Note_on_c, 9, 36, 127
9, 35028, Note_on_c, 9, 36, 0
9, 35028, Note_on_c, 9, 42, 0
9, 35028, Note_on_c, 9, 37, 0
9, 35039, Note_on_c, 9, 38, 127
9, 35039, Note_on_c, 9, 42, 77
9, 35054, Note_on_c, 9, 42, 0
9, 35054, Note_on_c, 9, 38, 0
9, 35063, Note_on_c, 9, 42, 77
9, 35080, Note_on_c, 9, 42, 0
9, 35087, Note_on_c, 9, 42, 77
9, 35087, Note_on_c, 9, 36, 127
9, 35100, Note_on_c, 9, 36, 0
9, 35100, Note_on_c, 9, 42, 0
9, 35111, Note_on_c, 9, 42, 77
9, 35126, Note_on_c, 9, 42, 0
9, 35135, Note_on_c, 9, 37, 127
9, 35135, Note_on_c, 9, 42, 77
9, 35151, Note_on_c, 9, 42, 0
9, 35152, Note_on_c, 9, 37, 0
9, 35159, Note_on_c, 9, 38, 127
9, 35159, Note_on_c, 9, 42, 77
9, 35171, Note_on_c, 9, 42, 0
9, 35171, Note_on_c, 9, 38, 0
9, 35183, Note_on_c, 9, 46, 77
9, 35183, Note_on_c, 9, 36, 127
9, 35196, Note_on_c, 9, 36, 0
9, 35196, Note_on_c, 9, 46, 0
9, 35207, Note_on_c, 9, 37, 127
9, 35222, Note_on_c, 9, 37, 0
9, 35231, Note_on_c, 9, 38, 127
9, 35231, Note_on_c, 9, 42, 77
9, 35248, Note_on_c, 9, 42, 0
9, 35248, Note_on_c, 9, 38, 0
9, 35255, Note_on_c, 9, 42, 77
9, 35266, Note_on_c, 9, 42, 0
9, 35279, Note_on_c, 9, 46, 77
9, 35293, Note_on_c, 9, 46, 0
9, 35303, Note_on_c, 9, 38, 127
9, 35319, Note_on_c, 9, 38, 0
9, 35327, Note_on_c, 9, 42, 77
9, 35327, Note_on_c, 9, 36, 127
9, 35342, Note_on_c, 9, 36, 0
9, 35343, Note_on_c, 9, 42, 0
9, 35351, Note_on_c, 9, 37, 127
9, 35351, Note_on_c, 9, 42, 77
9, 35363, Note_on_c, 9, 42, 0
9, 35363, Note_on_c, 9, 37, 0
9, 35375, Note_on_c, 9, 42, 77
9, 35388, Note_on_c, 9, 42, 0
9, 35399, Note_on_c, 9, 37, 127
9, 35399, Note_on_c, 9, 42, 77
9, 35399, Note_on_c, 9, 36, 127
9, 35414, Note_on_c, 9, 36, 0
9, 35415, Note_on_c, 9, 42, 0
9, 35415, Note_on_c, 9, 37, 0
9, 35423, Note_on_c, 9, 38, 127
9, 35423, Note_on_c, 9, 42, 77
9, 35440, Note_on_c, 9, 42, 0
9, 35440, Note_on_c, 9, 38, 0
9, 35447, Note_on_c, 9, 42, 77
9, 35458, Note_on_c, 9, 42, 0
9, 35471, Note_on_c, 9, 42, 77
9, 35471, Note_on_c, 9, 36, 127
9, 35485, Note_on_c, 9, 36, 0
9, 35485, Note_on_c, 9, 42, 0
9, 35495, Note_on_c, 9, 42, 77
9, 35510, Note_on_c, 9, 42, 0
9, 35519, Note_on_c, 9, 37, 127
9, 35519, Note_on_c, 9, 42, 77
9, 35535, Note_on_c, 9, 42, 0
9, 35535, Note_on_c, 9, 37, 0
9, 35543, Note_on_c, 9, 38, 127
9, 35543, Note_on_c, 9, 42, 77
9, 35555, Note_on_c, 9, 42, 0
9, 35555, Note_on_c, 9, 38, 0
9, 35567, Note_on_c, 9, 42, 77
9, 35567, Note_on_c, 9, 36, 127
9, 35580, Note_on_c, 9, 36, 0
9, 35580, Note_on_c, 9, 42, 0
9, 35591, Note_on_c, 9, 37, 127
9, 35591, Note_on_c, 9, 42, 77
9, 35607, Note_on_c, 9, 42, 0
9, 35607, Note_on_c, 9, 37, 0
9, 35615, Note_on_c, 9, 38, 127
9, 35615, Note_on_c, 9, 42, 77
9, 35631, Note_on_c, 9, 38, 0
9, 35632, Note_on_c, 9, 42, 0
9, 35639, Note_on_c, 9, 42, 77
9, 35639, Note_on_c, 9, 46, 77
9, 35651, Note_on_c, 9, 46, 0
9, 35651, Note_on_c, 9, 42, 0
9, 35663, Note_on_c, 9, 46, 77
9, 35677, Note_on_c, 9, 46, 0
9, 35711, Note_on_c, 9, 42, 77
9, 35711, Note_on_c, 9, 36, 127
9, 35727, Note_on_c, 9, 42, 0
9, 35728, Note_on_c, 9, 36, 0
9, 35735, Note_on_c, 9, 37, 127
9, 35735, Note_on_c, 9, 42, 77
9, 35747, Note_on_c, 9, 37, 0
9, 35748, Note_on_c, 9, 42, 0
9, 35759, Note_on_c, 9, 42, 77
9, 35773, Note_on_c, 9, 42, 0
9, 35783, Note_on_c, 9, 37, 127
9, 35783, Note_on_c, 9, 42, 77
9, 35783, Note_on_c, 9, 36, 127
9, 35798, Note_on_c, 9, 36, 0
9, 35799, Note_on_c, 9, 42, 0
9, 35799, Note_on_c, 9, 37, 0
9, 35807, Note_on_c, 9, 38, 127
9, 35807, Note_on_c, 9, 42, 77
9, 35823, Note_on_c, 9, 38, 0
9, 35824, Note_on_c, 9, 42, 0
9, 35831, Note_on_c, 9, 42, 77
9, 35843, Note_on_c, 9, 42, 0
9, 35855, Note_on_c, 9, 42, 77
9, 35855, Note_on_c, 9, 36, 127
9, 35868, Note_on_c, 9, 36, 0
9, 35868, Note_on_c, 9, 42, 0
9, 35879, Note_on_c, 9, 42, 77
9, 35894, Note_on_c, 9, 42, 0
9, 35903, Note_on_c, 9, 37, 127
9, 35903, Note_on_c, 9, 42, 77
9, 35919, Note_on_c, 9, 42, 0
9, 35919, Note_on_c, 9, 37, 0
9, 35927, Note_on_c, 9, 38, 127
9, 35927, Note_on_c, 9, 42, 77
9, 35939, Note_on_c, 9, 42, 0
9, 35939, Note_on_c, 9, 38, 0
9, 35951, Note_on_c, 9, 46, 77
9, 35951, Note_on_c, 9, 36, 127
9, 35964, Note_on_c, 9, 36, 0
9, 35964, Note_on_c, 9, 46, 0
9, 35975, Note_on_c, 9, 37, 127
9, 35991, Note_on_c, 9, 37, 0
9, 35999, Note_on_c, 9, 38, 127
9, 35999, Note_on_c, 9, 42, 77
9, 36015, Note_on_c, 9, 38, 0
9, 36016, Note_on_c, 9, 42, 0
9, 36023, Note_on_c, 9, 42, 77
9, 36034, Note_on_c, 9, 42, 0
9, 36047, Note_on_c, 9, 46, 77
9, 36060, Note_on_c, 9, 46, 0
9, 36071, Note_on_c, 9, 38, 127
9, 36087, Note_on_c, 9, 38, 0
9, 36095, Note_on_c, 9, 42, 77
9, 36095, Note_on_c, 9, 36, 127
9, 36110, Note_on_c, 9, 36, 0
9, 36111, Note_on_c, 9, 42, 0
9, 36119, Note_on_c, 9, 37, 127
9, 36119, Note_on_c, 9, 42, 77
9, 36131, Note_on_c, 9, 42, 0
9, 36131, Note_on_c, 9, 37, 0
9, 36143, Note_on_c, 9, 42, 77
9, 36157, Note_on_c, 9, 42, 0
9, 36167, Note_on_c, 9, 37, 127
9, 36167, Note_on_c, 9, 42, 77
9, 36167, Note_on_c, 9, 36, 127
9, 36182, Note_on_c, 9, 37, 0
9, 36183, Note_on_c, 9, 36, 0
9, 36183, Note_on_c, 9, 42, 0
9, 36191, Note_on_c, 9, 38, 127
9, 36191, Note_on_c, 9, 42, 77
9, 36208, Note_on_c, 9, 42, 0
9, 36208, Note_on_c, 9, 38, 0
9, 36215, Note_on_c, 9, 42, 77
9, 36226, Note_on_c, 9, 42, 0
9, 36239, Note_on_c, 9, 42, 77
9, 36239, Note_on_c, 9, 36, 127
9, 36253, Note_on_c, 9, 36, 0
9, 36253, Note_on_c, 9, 42, 0
9, 36263, Note_on_c, 9, 42, 77
9, 36278, Note_on_c, 9, 42, 0
9, 36287, Note_on_c, 9, 37, 127
9, 36287, Note_on_c, 9, 42, 77
9, 36303, Note_on_c, 9, 42, 0
9, 36303, Note_on_c, 9, 37, 0
9, 36311, Note_on_c, 9, 38, 127
9, 36311, Note_on_c, 9, 42, 77
9, 36323, Note_on_c, 9, 42, 0
9, 36323, Note_on_c, 9, 38, 0
9, 36335, Note_on_c, 9, 42, 77
9, 36335, Note_on_c, 9, 36, 127
9, 36348, Note_on_c, 9, 36, 0
9, 36349, Note_on_c, 9, 42, 0
9, 36359, Note_on_c, 9, 37, 127
9, 36359, Note_on_c, 9, 42, 77
9, 36376, Note_on_c, 9, 42, 0
9, 36376, Note_on_c, 9, 37, 0
9, 36383, Note_on_c, 9, 38, 127
9, 36383, Note_on_c, 9, 42, 77
9, 36400, Note_on_c, 9, 42, 0
9, 36400, Note_on_c, 9, 38, 0
9, 36407, Note_on_c, 9, 42, 77
9, 36407, Note_on_c, 9, 46, 77
9, 36419, Note_on_c, 9, 46, 0
9, 36420, Note_on_c, 9, 42, 0
9, 36431, Note_on_c, 9, 46, 77
9, 36444, Note_on_c, 9, 46, 0
9, 36479, Note_on_c, 9, 42, 77
9, 36479, Note_on_c, 9, 36, 127
9, 36495, Note_on_c, 9, 36, 0
9, 36495, Note_on_c, 9, 42, 0
9, 36503, Note_on_c, 9, 37, 127
9, 36503, Note_on_c, 9, 42, 77
9, 36516, Note_on_c, 9, 42, 0
9, 36516, Note_on_c, 9, 37, 0
9, 36527, Note_on_c, 9, 42, 77
9, 36541, Note_on_c, 9, 42, 0
9, 36551, Note_on_c, 9, 37, 127
9, 36551, Note_on_c, 9, 42, 77
9, 36551, Note_on_c, 9, 36, 127
9, 36566, Note_on_c, 9, 36, 0
9, 36567, Note_on_c, 9, 42, 0
9, 36567, Note_on_c, 9, 37, 0
9, 36575, Note_on_c, 9, 38, 127
9, 36575, Note_on_c, 9, 42, 77
9, 36592, Note_on_c, 9, 42, 0
9, 36592, Note_on_c, 9, 38, 0
9, 36599, Note_on_c, 9, 42, 77
9, 36611, Note_on_c, 9, 42, 0
9, 36623, Note_on_c, 9, 42, 77
9, 36623, Note_on_c, 9, 36, 127
9, 36636, Note_on_c, 9, 42, 0
9, 36637, Note_on_c, 9, 36, 0
9, 36647, Note_on_c, 9, 42, 77
9, 36663, Note_on_c, 9, 42, 0
9, 36671, Note_on_c, 9, 37, 127
9, 36671, Note_on_c, 9, 42, 77
9, 36688, Note_on_c, 9, 42, 0
9, 36688, Note_on_c, 9, 37, 0
9, 36695, Note_on_c, 9, 38, 127
9, 36695, Note_on_c, 9, 42, 77
9, 36707, Note_on_c, 9, 42, 0
9, 36707, Note_on_c, 9, 38, 0
9, 36719, Note_on_c, 9, 46, 77
9, 36719, Note_on_c, 9, 36, 127
9, 36733, Note_on_c, 9, 36, 0
9, 36733, Note_on_c, 9, 46, 0
9, 36743, Note_on_c, 9, 37, 127
9, 36759, Note_on_c, 9, 37, 0
9, 36767, Note_on_c, 9, 38, 127
9, 36767, Note_on_c, 9, 42, 77
9, 36784, Note_on_c, 9, 42, 0
9, 36784, Note_on_c, 9, 38, 0
9, 36791, Note_on_c, 9, 42, 77
9, 36803, Note_on_c, 9, 42, 0
9, 36815, Note_on_c, 9, 46, 77
9, 36828, Note_on_c, 9, 46, 0
9, 36839, Note_on_c, 9, 38, 127
9, 36854, Note_on_c, 9, 38, 0
9, 36863, Note_on_c, 9, 42, 77
9, 36863, Note_on_c, 9, 36, 127
9, 36879, Note_on_c, 9, 36, 0
9, 36879, Note_on_c, 9, 42, 0
9, 36887, Note_on_c, 9, 37, 127
9, 36887, Note_on_c, 9, 42, 77
9, 36899, Note_on_c, 9, 42, 0
9, 36899, Note_on_c, 9, 37, 0
9, 36911, Note_on_c, 9, 42, 77
9, 36925, Note_on_c, 9, 42, 0
9, 36935, Note_on_c, 9, 37, 127
9, 36935, Note_on_c, 9, 42, 77
9, 36935, Note_on_c, 9, 36, 127
9, 36951, Note_on_c, 9, 42, 0
9, 36951, Note_on_c, 9, 37, 0
9, 36952, Note_on_c, 9, 36, 0
9, 36959, Note_on_c, 9, 38, 127
9, 36959, Note_on_c, 9, 42, 77
9, 36976, Note_on_c, 9, 42, 0
9, 36976, Note_on_c, 9, 38, 0
9, 36983, Note_on_c, 9, 42, 77
9, 36995, Note_on_c, 9, 42, 0
9, 37007, Note_on_c, 9, 42, 77
9, 37007, Note_on_c, 9, 36, 127
9, 37020, Note_on_c, 9, 42, 0
9, 37021, Note_on_c, 9, 36, 0
9, 37031, Note_on_c, 9, 42, 77
9, 37047, Note_on_c, 9, 42, 0
9, 37055, Note_on_c, 9, 37, 127
9, 37055, Note_on_c, 9, 42, 77
9, 37071, Note_on_c, 9, 42, 0
9, 37071, Note_on_c, 9, 37, 0
9, 37079, Note_on_c, 9, 38, 127
9, 37079, Note_on_c, 9, 42, 77
9, 37091, Note_on_c, 9, 42, 0
9, 37091, Note_on_c, 9, 38, 0
9, 37103, Note_on_c, 9, 42, 77
9, 37103, Note_on_c, 9, 36, 127
9, 37117, Note_on_c, 9, 36, 0
9, 37117, Note_on_c, 9, 42, 0
9, 37127, Note_on_c, 9, 37, 127
9, 37127, Note_on_c, 9, 42, 77
9, 37143, Note_on_c, 9, 42, 0
9, 37143, Note_on_c, 9, 37, 0
9, 37151, Note_on_c, 9, 38, 127
9, 37151, Note_on_c, 9, 42, 77
9, 37168, Note_on_c, 9, 42, 0
9, 37168, Note_on_c, 9, 38, 0
9, 37175, Note_on_c, 9, 42, 77
9, 37175, Note_on_c, 9, 46, 77
9, 37187, Note_on_c, 9, 46, 0
9, 37188, Note_on_c, 9, 42, 0
9, 37199, Note_on_c, 9, 46, 77
9, 37212, Note_on_c, 9, 46, 0
9, 37247, Note_on_c, 9, 42, 77
9, 37247, Note_on_c, 9, 36, 127
9, 37263, Note_on_c, 9, 36, 0
9, 37263, Note_on_c, 9, 42, 0
9, 37271, Note_on_c, 9, 37, 127
9, 37271, Note_on_c, 9, 42, 77
9, 37283, Note_on_c, 9, 37, 0
9, 37284, Note_on_c, 9, 42, 0
9, 37295, Note_on_c, 9, 42, 77
9, 37309, Note_on_c, 9, 42, 0
9, 37319, Note_on_c, 9, 37, 127
9, 37319, Note_on_c, 9, 42, 77
9, 37319, Note_on_c, 9, 36, 127
9, 37335, Note_on_c, 9, 36, 0
9, 37335, Note_on_c, 9, 42, 0
9, 37335, Note_on_c, 9, 37, 0
9, 37343, Note_on_c, 9, 38, 127
9, 37343, Note_on_c, 9, 42, 77
9, 37360, Note_on_c, 9, 42, 0
9, 37360, Note_on_c, 9, 38, 0
9, 37367, Note_on_c, 9, 42, 77
9, 37379, Note_on_c, 9, 42, 0
9, 37391, Note_on_c, 9, 42, 77
9, 37391, Note_on_c, 9, 36, 127
9, 37404, Note_on_c, 9, 36, 0
9, 37404, Note_on_c, 9, 42, 0
9, 37415, Note_on_c, 9, 38, 127
9, 37415, Note_on_c, 9, 42, 77
9, 37430, Note_on_c, 9, 38, 0
9, 37431, Note_on_c, 9, 42, 0
9, 37439, Note_on_c, 9, 42, 77
9, 37439, Note_on_c, 9, 36, 127
9, 37455, Note_on_c, 9, 36, 0
9, 37455, Note_on_c, 9, 42, 0
9, 37463, Note_on_c, 9, 38, 127
9, 37463, Note_on_c, 9, 42, 77
9, 37475, Note_on_c, 9, 42, 0
9, 37475, Note_on_c, 9, 38, 0
9, 37487, Note_on_c, 9, 46, 77
9, 37487, Note_on_c, 9, 36, 127
9, 37501, Note_on_c, 9, 36, 0
9, 37501, Note_on_c, 9, 46, 0
9, 37535, Note_on_c, 9, 38, 127
9, 37535, Note_on_c, 9, 42, 77
9, 37551, Note_on_c, 9, 38, 0
9, 37552, Note_on_c, 9, 42, 0
9, 37559, Note_on_c, 9, 42, 77
9, 37571, Note_on_c, 9, 42, 0
9, 37583, Note_on_c, 9, 38, 127
9, 37583, Note_on_c, 9, 46, 77
9, 37596, Note_on_c, 9, 46, 0
9, 37596, Note_on_c, 9, 38, 0
9, 37607, Note_on_c, 9, 38, 127
9, 37622, Note_on_c, 9, 38, 0
9, 37631, Note_on_c, 9, 42, 77
9, 37631, Note_on_c, 9, 36, 127
9, 37646, Note_on_c, 9, 36, 0
9, 37647, Note_on_c, 9, 42, 0
9, 37655, Note_on_c, 9, 37, 127
9, 37655, Note_on_c, 9, 42, 77
9, 37667, Note_on_c, 9, 42, 0
9, 37667, Note_on_c, 9, 37, 0
9, 37679, Note_on_c, 9, 42, 77
9, 37693, Note_on_c, 9, 42, 0
9, 37703, Note_on_c, 9, 37, 127
9, 37703, Note_on_c, 9, 42, 77
9, 37703, Note_on_c, 9, 36, 127
9, 37718, Note_on_c, 9, 42, 0
9, 37718, Note_on_c, 9, 37, 0
9, 37719, Note_on_c, 9, 36, 0
9, 37727, Note_on_c, 9, 38, 127
9, 37727, Note_on_c, 9, 42, 77
9, 37743, Note_on_c, 9, 42, 0
9, 37744, Note_on_c, 9, 38, 0
9, 37751, Note_on_c, 9, 42, 77
9, 37764, Note_on_c, 9, 42, 0
9, 37775, Note_on_c, 9, 42, 77
9, 37775, Note_on_c, 9, 36, 127
9, 37788, Note_on_c, 9, 36, 0
9, 37788, Note_on_c, 9, 42, 0
9, 37799, Note_on_c, 9, 42, 77
9, 37815, Note_on_c, 9, 42, 0
9, 37823, Note_on_c, 9, 37, 127
9, 37823, Note_on_c, 9, 42, 77
9, 37839, Note_on_c, 9, 42, 0
9, 37839, Note_on_c, 9, 37, 0
9, 37847, Note_on_c, 9, 38, 127
9, 37847, Note_on_c, 9, 42, 77
9, 37859, Note_on_c, 9, 42, 0
9, 37859, Note_on_c, 9, 38, 0
9, 37871, Note_on_c, 9, 42, 77
9, 37871, Note_on_c, 9, 36, 127
9, 37885, Note_on_c, 9, 36, 0
9, 37885, Note_on_c, 9, 42, 0
9, 37895, Note_on_c, 9, 37, 127
9, 37895, Note_on_c, 9, 42, 77
9, 37911, Note_on_c, 9, 42, 0
9, 37911, Note_on_c, 9, 37, 0
9, 37919, Note_on_c, 9, 38, 127
9, 37919, Note_on_c, 9, 42, 77
9, 37935, Note_on_c, 9, 42, 0
9, 37936, Note_on_c, 9, 38, 0
9, 37943, Note_on_c, 9, 42, 77
9, 37943, Note_on_c, 9, 46, 77
9, 37955, Note_on_c, 9, 46, 0
9, 37955, Note_on_c, 9, 42, 0
9, 37967, Note_on_c, 9, 46, 77
9, 37980, Note_on_c, 9, 46, 0
9, 38015, Note_on_c, 9, 42, 77
9, 38015, Note_on_c, 9, 36, 127
9, 38028, Note_on_c, 9, 42, 0
9, 38031, Note_on_c, 9, 36, 0
9, 38039, Note_on_c, 9, 37, 113
9, 38039, Note_on_c, 9, 42, 77
9, 38047, Note_on_c, 9, 37, 0
9, 38053, Note_on_c, 9, 42, 0
9, 38063, Note_on_c, 9, 42, 77
9, 38079, Note_on_c, 9, 42, 0
9, 38087, Note_on_c, 9, 37, 122
9, 38087, Note_on_c, 9, 42, 77
9, 38087, Note_on_c, 9, 36, 127
9, 38095, Note_on_c, 9, 36, 0
9, 38095, Note_on_c, 9, 37, 0
9, 38104, Note_on_c, 9, 42, 0
9, 38110, Note_on_c, 9, 38, 127
9, 38111, Note_on_c, 9, 42, 77
9, 38118, Note_on_c, 9, 38, 0
9, 38123, Note_on_c, 9, 42, 0
9, 38135, Note_on_c, 9, 42, 77
9, 38148, Note_on_c, 9, 42, 0
9, 38159, Note_on_c, 9, 42, 77
9, 38159, Note_on_c, 9, 36, 127
9, 38167, Note_on_c, 9, 36, 0
9, 38174, Note_on_c, 9, 42, 0
9, 38183, Note_on_c, 9, 42, 77
9, 38199, Note_on_c, 9, 42, 0
9, 38207, Note_on_c, 9, 37, 127
9, 38207, Note_on_c, 9, 42, 77
9, 38215, Note_on_c, 9, 37, 0
9, 38219, Note_on_c, 9, 42, 0
9, 38231, Note_on_c, 9, 46, 77
9, 38245, Note_on_c, 9, 46, 0
9, 38255, Note_on_c, 9, 36, 127
9, 38263, Note_on_c, 9, 36, 0
9, 38279, Note_on_c, 9, 37, 105
9, 38279, Note_on_c, 9, 42, 77
9, 38287, Note_on_c, 9, 37, 0
9, 38295, Note_on_c, 9, 42, 0
9, 38302, Note_on_c, 9, 38, 122
9, 38303, Note_on_c, 9, 42, 77
9, 38310, Note_on_c, 9, 38, 0
9, 38315, Note_on_c, 9, 42, 0
9, 38327, Note_on_c, 9, 46, 77
9, 38340, Note_on_c, 9, 46, 0
9, 38351, Note_on_c, 9, 36, 127
9, 38359, Note_on_c, 9, 36, 0
9, 38375, Note_on_c, 9, 42, 77
9, 38391, Note_on_c, 9, 42, 0
9, 38399, Note_on_c, 9, 42, 77
9, 38399, Note_on_c, 9, 36, 127
9, 38414, Note_on_c, 9, 36, 0
9, 38415, Note_on_c, 9, 42, 0
9, 38423, Note_on_c, 9, 37, 127
9, 38423, Note_on_c, 9, 42, 77
9, 38435, Note_on_c, 9, 42, 0
9, 38435, Note_on_c, 9, 37, 0
9, 38447, Note_on_c, 9, 42, 77
9, 38461, Note_on_c, 9, 42, 0
9, 38471, Note_on_c, 9, 37, 127
9, 38471, Note_on_c, 9, 42, 77
9, 38471, Note_on_c, 9, 36, 127
9, 38486, Note_on_c, 9, 42, 0
9, 38486, Note_on_c, 9, 37, 0
9, 38487, Note_on_c, 9, 36, 0
9, 38495, Note_on_c, 9, 38, 127
9, 38495, Note_on_c, 9, 42, 77
9, 38511, Note_on_c, 9, 42, 0
9, 38512, Note_on_c, 9, 38, 0
9, 38519, Note_on_c, 9, 42, 77
9, 38532, Note_on_c, 9, 42, 0
9, 38543, Note_on_c, 9, 42, 77
9, 38543, Note_on_c, 9, 36, 127
9, 38556, Note_on_c, 9, 36, 0
9, 38556, Note_on_c, 9, 42, 0
9, 38567, Note_on_c, 9, 42, 77
9, 38583, Note_on_c, 9, 42, 0
9, 38591, Note_on_c, 9, 37, 127
9, 38591, Note_on_c, 9, 42, 77
9, 38607, Note_on_c, 9, 42, 0
9, 38607, Note_on_c, 9, 37, 0
9, 38615, Note_on_c, 9, 38, 127
9, 38615, Note_on_c, 9, 42, 77
9, 38627, Note_on_c, 9, 42, 0
9, 38627, Note_on_c, 9, 38, 0
9, 38639, Note_on_c, 9, 42, 77
9, 38639, Note_on_c, 9, 36, 127
9, 38653, Note_on_c, 9, 36, 0
9, 38653, Note_on_c, 9, 42, 0
9, 38663, Note_on_c, 9, 37, 127
9, 38663, Note_on_c, 9, 42, 77
9, 38679, Note_on_c, 9, 42, 0
9, 38679, Note_on_c, 9, 37, 0
9, 38687, Note_on_c, 9, 38, 127
9, 38687, Note_on_c, 9, 42, 77
9, 38703, Note_on_c, 9, 42, 0
9, 38704, Note_on_c, 9, 38, 0
9, 38711, Note_on_c, 9, 42, 77
9, 38711, Note_on_c, 9, 46, 77
9, 38723, Note_on_c, 9, 46, 0
9, 38723, Note_on_c, 9, 42, 0
9, 38735, Note_on_c, 9, 46, 77
9, 38748, Note_on_c, 9, 46, 0
9, 38783, Note_on_c, 9, 42, 77
9, 38783, Note_on_c, 9, 36, 127
9, 38796, Note_on_c, 9, 42, 0
9, 38799, Note_on_c, 9, 36, 0
9, 38807, Note_on_c, 9, 37, 113
9, 38807, Note_on_c, 9, 42, 77
9, 38815, Note_on_c, 9, 37, 0
9, 38821, Note_on_c, 9, 42, 0
9, 38831, Note_on_c, 9, 42, 77
9, 38847, Note_on_c, 9, 42, 0
9, 38855, Note_on_c, 9, 37, 122
9, 38855, Note_on_c, 9, 42, 77
9, 38855, Note_on_c, 9, 36, 127
9, 38863, Note_on_c, 9, 36, 0
9, 38863, Note_on_c, 9, 37, 0
9, 38872, Note_on_c, 9, 42, 0
9, 38878, Note_on_c, 9, 38, 127
9, 38879, Note_on_c, 9, 42, 77
9, 38886, Note_on_c, 9, 38, 0
9, 38891, Note_on_c, 9, 42, 0
9, 38903, Note_on_c, 9, 42, 77
9, 38916, Note_on_c, 9, 42, 0
9, 38927, Note_on_c, 9, 42, 77
9, 38927, Note_on_c, 9, 36, 127
9, 38935, Note_on_c, 9, 36, 0
9, 38942, Note_on_c, 9, 42, 0
9, 38951, Note_on_c, 9, 42, 77
9, 38967, Note_on_c, 9, 42, 0
9, 38975, Note_on_c, 9, 37, 127
9, 38975, Note_on_c, 9, 42, 77
9, 38983, Note_on_c, 9, 37, 0
9, 38987, Note_on_c, 9, 42, 0
9, 38999, Note_on_c, 9, 46, 77
9, 39013, Note_on_c, 9, 46, 0
9, 39023, Note_on_c, 9, 36, 127
9, 39031, Note_on_c, 9, 36, 0
9, 39047, Note_on_c, 9, 37, 105
9, 39047, Note_on_c, 9, 42, 77
9, 39055, Note_on_c, 9, 37, 0
9, 39063, Note_on_c, 9, 42, 0
9, 39070, Note_on_c, 9, 38, 122
9, 39071, Note_on_c, 9, 42, 77
9, 39078, Note_on_c, 9, 38, 0
9, 39083, Note_on_c, 9, 42, 0
9, 39095, Note_on_c, 9, 46, 77
9, 39108, Note_on_c, 9, 46, 0
9, 39119, Note_on_c, 9, 36, 127
9, 39127, Note_on_c, 9, 36, 0
9, 39143, Note_on_c, 9, 42, 77
9, 39159, Note_on_c, 9, 42, 0
9, 39167, Note_on_c, 9, 42, 77
9, 39167, Note_on_c, 9, 36, 127
9, 39182, Note_on_c, 9, 36, 0
9, 39183, Note_on_c, 9, 42, 0
9, 39191, Note_on_c, 9, 37, 127
9, 39191, Note_on_c, 9, 42, 77
9, 39203, Note_on_c, 9, 42, 0
9, 39203, Note_on_c, 9, 37, 0
9, 39215, Note_on_c, 9, 42, 77
9, 39229, Note_on_c, 9, 42, 0
9, 39239, Note_on_c, 9, 37, 127
9, 39239, Note_on_c, 9, 42, 77
9, 39239, Note_on_c, 9, 36, 127
9, 39254, Note_on_c, 9, 42, 0
9, 39254, Note_on_c, 9, 37, 0
9, 39255, Note_on_c, 9, 36, 0
9, 39263, Note_on_c, 9, 38, 127
9, 39263, Note_on_c, 9, 42, 77
9, 39279, Note_on_c, 9, 42, 0
9, 39280, Note_on_c, 9, 38, 0
9, 39287, Note_on_c, 9, 42, 77
9, 39300, Note_on_c, 9, 42, 0
9, 39311, Note_on_c, 9, 42, 77
9, 39311, Note_on_c, 9, 36, 127
9, 39324, Note_on_c, 9, 36, 0
9, 39324, Note_on_c, 9, 42, 0
9, 39335, Note_on_c, 9, 42, 77
9, 39351, Note_on_c, 9, 42, 0
9, 39359, Note_on_c, 9, 37, 127
9, 39359, Note_on_c, 9, 42, 77
9, 39375, Note_on_c, 9, 42, 0
9, 39375, Note_on_c, 9, 37, 0
9, 39383, Note_on_c, 9, 38, 127
9, 39383, Note_on_c, 9, 42, 77
9, 39395, Note_on_c, 9, 42, 0
9, 39395, Note_on_c, 9, 38, 0
9, 39407, Note_on_c, 9, 42, 77
9, 39407, Note_on_c, 9, 36, 127
9, 39421, Note_on_c, 9, 36, 0
9, 39421, Note_on_c, 9, 42, 0
9, 39431, Note_on_c, 9, 37, 127
9, 39431, Note_on_c, 9, 42, 77
9, 39447, Note_on_c, 9, 42, 0
9, 39447, Note_on_c, 9, 37, 0
9, 39455, Note_on_c, 9, 38, 127
9, 39455, Note_on_c, 9, 42, 77
9, 39471, Note_on_c, 9, 42, 0
9, 39472, Note_on_c, 9, 38, 0
9, 39479, Note_on_c, 9, 42, 77
9, 39479, Note_on_c, 9, 46, 77
9, 39491, Note_on_c, 9, 46, 0
9, 39491, Note_on_c, 9, 42, 0
9, 39503, Note_on_c, 9, 46, 77
9, 39516, Note_on_c, 9, 46, 0
9, 39551, Note_on_c, 9, 42, 77
9, 39551, Note_on_c, 9, 36, 127
9, 39564, Note_on_c, 9, 42, 0
9, 39567, Note_on_c, 9, 36, 0
9, 39575, Note_on_c, 9, 37, 113
9, 39575, Note_on_c, 9, 42, 77
9, 39583, Note_on_c, 9, 37, 0
9, 39589, Note_on_c, 9, 42, 0
9, 39599, Note_on_c, 9, 42, 77
9, 39615, Note_on_c, 9, 42, 0
9, 39623, Note_on_c, 9, 37, 122
9, 39623, Note_on_c, 9, 42, 77
9, 39623, Note_on_c, 9, 36, 127
9, 39631, Note_on_c, 9, 36, 0
9, 39631, Note_on_c, 9, 37, 0
9, 39640, Note_on_c, 9, 42, 0
9, 39646, Note_on_c, 9, 38, 127
9, 39647, Note_on_c, 9, 42, 77
9, 39654, Note_on_c, 9, 38, 0
9, 39659, Note_on_c, 9, 42, 0
9, 39671, Note_on_c, 9, 42, 77
9, 39684, Note_on_c, 9, 42, 0
9, 39695, Note_on_c, 9, 42, 77
9, 39695, Note_on_c, 9, 36, 127
9, 39703, Note_on_c, 9, 36, 0
9, 39710, Note_on_c, 9, 42, 0
9, 39719, Note_on_c, 9, 42, 77
9, 39735, Note_on_c, 9, 42, 0
9, 39743, Note_on_c, 9, 37, 127
9, 39743, Note_on_c, 9, 42, 77
9, 39751, Note_on_c, 9, 37, 0
9, 39755, Note_on_c, 9, 42, 0
9, 39767, Note_on_c, 9, 46, 77
9, 39781, Note_on_c, 9, 46, 0
9, 39791, Note_on_c, 9, 36, 127
9, 39799, Note_on_c, 9, 36, 0
9, 39815, Note_on_c, 9, 37, 105
9, 39815, Note_on_c, 9, 42, 77
9, 39823, Note_on_c, 9, 37, 0
9, 39831, Note_on_c, 9, 42, 0
9, 39838, Note_on_c, 9, 38, 122
9, 39839, Note_on_c, 9, 42, 77
9, 39846, Note_on_c, 9, 38, 0
9, 39851, Note_on_c, 9, 42, 0
9, 39863, Note_on_c, 9, 46, 77
9, 39876, Note_on_c, 9, 46, 0
9, 39887, Note_on_c, 9, 36, 127
9, 39895, Note_on_c, 9, 36, 0
9, 39911, Note_on_c, 9, 42, 77
9, 39927, Note_on_c, 9, 42, 0
9, 39935, Note_on_c, 9, 42, 77
9, 39935, Note_on_c, 9, 36, 127
9, 39950, Note_on_c, 9, 36, 0
9, 39951, Note_on_c, 9, 42, 0
9, 39959, Note_on_c, 9, 37, 127
9, 39959, Note_on_c, 9, 42, 77
9, 39971, Note_on_c, 9, 42, 0
9, 39971, Note_on_c, 9, 37, 0
9, 39983, Note_on_c, 9, 42, 77
9, 39997, Note_on_c, 9, 42, 0
9, 40007, Note_on_c, 9, 37, 127
9, 40007, Note_on_c, 9, 42, 77
9, 40007, Note_on_c, 9, 36, 127
9, 40022, Note_on_c, 9, 42, 0
9, 40022, Note_on_c, 9, 37, 0
9, 40023, Note_on_c, 9, 36, 0
9, 40031, Note_on_c, 9, 38, 127
9, 40031, Note_on_c, 9, 42, 77
9, 40047, Note_on_c, 9, 42, 0
9, 40048, Note_on_c, 9, 38, 0
9, 40055, Note_on_c, 9, 42, 77
9, 40068, Note_on_c, 9, 42, 0
9, 40079, Note_on_c, 9, 42, 77
9, 40079, Note_on_c, 9, 36, 127
9, 40092, Note_on_c, 9, 36, 0
9, 40092, Note_on_c, 9, 42, 0
9, 40103, Note_on_c, 9, 42, 77
9, 40119, Note_on_c, 9, 42, 0
9, 40127, Note_on_c, 9, 37, 127
9, 40127, Note_on_c, 9, 42, 77
9, 40143, Note_on_c, 9, 42, 0
9, 40143, Note_on_c, 9, 37, 0
9, 40151, Note_on_c, 9, 38, 127
9, 40151, Note_on_c, 9, 42, 77
9, 40163, Note_on_c, 9, 42, 0
9, 40163, Note_on_c, 9, 38, 0
9, 40175, Note_on_c, 9, 42, 77
9, 40175, Note_on_c, 9, 36, 127
9, 40189, Note_on_c, 9, 36, 0
9, 40189, Note_on_c, 9, 42, 0
9, 40199, Note_on_c, 9, 37, 127
9, 40199, Note_on_c, 9, 42, 77
9, 40215, Note_on_c, 9, 42, 0
9, 40215, Note_on_c, 9, 37, 0
9, 40223, Note_on_c, 9, 38, 127
9, 40223, Note_on_c, 9, 42, 77
9, 40239, Note_on_c, 9, 42, 0
9, 40240, Note_on_c, 9, 38, 0
9, 40247, Note_on_c, 9, 42, 77
9, 40247, Note_on_c, 9, 46, 77
9, 40259, Note_on_c, 9, 46, 0
9, 40259, Note_on_c, 9, 42, 0
9, 40271, Note_on_c, 9, 46, 77
9, 40284, Note_on_c, 9, 46, 0
9, 40319, Note_on_c, 9, 42, 77
9, 40319, Note_on_c, 9, 36, 127
9, 40332, Note_on_c, 9, 42, 0
9, 40335, Note_on_c, 9, 36, 0
9, 40343, Note_on_c, 9, 37, 113
9, 40343, Note_on_c, 9, 42, 77
9, 40351, Note_on_c, 9, 37, 0
9, 40357, Note_on_c, 9, 42, 0
9, 40367, Note_on_c, 9, 42, 77
9, 40383, Note_on_c, 9, 42, 0
9, 40391, Note_on_c, 9, 37, 122
9, 40391, Note_on_c, 9, 42, 77
9, 40391, Note_on_c, 9, 36, 127
9, 40399, Note_on_c, 9, 36, 0
9, 40399, Note_on_c, 9, 37, 0
9, 40408, Note_on_c, 9, 42, 0
9, 40414, Note_on_c, 9, 38, 127
9, 40415, Note_on_c, 9, 42, 77
9, 40422, Note_on_c, 9, 38, 0
9, 40427, Note_on_c, 9, 42, 0
9, 40439, Note_on_c, 9, 42, 77
9, 40452, Note_on_c, 9, 42, 0
9, 40463, Note_on_c, 9, 42, 77
9, 40463, Note_on_c, 9, 36, 127
9, 40471, Note_on_c, 9, 36, 0
9, 40478, Note_on_c, 9, 42, 0
9, 40487, Note_on_c, 9, 42, 77
9, 40503, Note_on_c, 9, 42, 0
9, 40511, Note_on_c, 9, 37, 127
9, 40511, Note_on_c, 9, 42, 77
9, 40519, Note_on_c, 9, 37, 0
9, 40523, Note_on_c, 9, 42, 0
9, 40535, Note_on_c, 9, 46, 77
9, 40549, Note_on_c, 9, 46, 0
9, 40559, Note_on_c, 9, 36, 127
9, 40567, Note_on_c, 9, 36, 0
9, 40583, Note_on_c, 9, 37, 105
9, 40583, Note_on_c, 9, 42, 77
9, 40591, Note_on_c, 9, 37, 0
9, 40599, Note_on_c, 9, 42, 0
9, 40606, Note_on_c, 9, 38, 122
9, 40607, Note_on_c, 9, 42, 77
9, 40614, Note_on_c, 9, 38, 0
9, 40619, Note_on_c, 9, 42, 0
9, 40631, Note_on_c, 9, 46, 77
9, 40644, Note_on_c, 9, 46, 0
9, 40655, Note_on_c, 9, 46, 88
9, 40663, Note_on_c, 9, 46, 0
9, 40678, Note_on_c, 9, 38, 127
9, 40686, Note_on_c, 9, 38, 0
9, 40702, Note_on_c, 9, 42, 88
9, 40703, Note_on_c, 9, 42, 0
9, 40703, Note_on_c, 9, 42, 77
9, 40703, Note_on_c, 9, 36, 127
9, 40710, Note_on_c, 9, 42, 0
9, 40719, Note_on_c, 9, 36, 0
9, 40727, Note_on_c, 9, 37, 127
9, 40727, Note_on_c, 9, 42, 77
9, 40739, Note_on_c, 9, 42, 0
9, 40739, Note_on_c, 9, 37, 0
9, 40751, Note_on_c, 9, 42, 77
9, 40765, Note_on_c, 9, 42, 0
9, 40775, Note_on_c, 9, 37, 127
9, 40775, Note_on_c, 9, 42, 77
9, 40775, Note_on_c, 9, 36, 127
9, 40790, Note_on_c, 9, 36, 0
9, 40791, Note_on_c, 9, 42, 0
9, 40791, Note_on_c, 9, 37, 0
9, 40799, Note_on_c, 9, 38, 127
9, 40799, Note_on_c, 9, 42, 77
9, 40816, Note_on_c, 9, 42, 0
9, 40816, Note_on_c, 9, 38, 0
9, 40823, Note_on_c, 9, 42, 77
9, 40835, Note_on_c, 9, 42, 0
9, 40847, Note_on_c, 9, 42, 77
9, 40847, Note_on_c, 9, 36, 127
9, 40861, Note_on_c, 9, 36, 0
9, 40861, Note_on_c, 9, 42, 0
9, 40871, Note_on_c, 9, 42, 77
9, 40887, Note_on_c, 9, 42, 0
9, 40895, Note_on_c, 9, 37, 127
9, 40895, Note_on_c, 9, 42, 77
9, 40911, Note_on_c, 9, 42, 0
9, 40911, Note_on_c, 9, 37, 0
9, 40919, Note_on_c, 9, 38, 127
9, 40919, Note_on_c, 9, 42, 77
9, 40931, Note_on_c, 9, 42, 0
9, 40931, Note_on_c, 9, 38, 0
9, 40943, Note_on_c, 9, 42, 77
9, 40943, Note_on_c, 9, 36, 127
9, 40957, Note_on_c, 9, 36, 0
9, 40957, Note_on_c, 9, 42, 0
9, 40967, Note_on_c, 9, 37, 127
9, 40967, Note_on_c, 9, 42, 77
9, 40983, Note_on_c, 9, 42, 0
9, 40983, Note_on_c, 9, 37, 0
9, 40991, Note_on_c, 9, 38, 127
9, 40991, Note_on_c, 9, 42, 77
9, 41008, Note_on_c, 9, 42, 0
9, 41008, Note_on_c, 9, 38, 0
9, 41015, Note_on_c, 9, 42, 77
9, 41015, Note_on_c, 9, 46, 77
9, 41027, Note_on_c, 9, 46, 0
9, 41027, Note_on_c, 9, 42, 0
9, 41039, Note_on_c, 9, 46, 77
9, 41053, Note_on_c, 9, 46, 0
9, 41087, Note_on_c, 9, 42, 77
9, 41087, Note_on_c, 9, 36, 127
9, 41103, Note_on_c, 9, 36, 0
9, 41104, Note_on_c, 9, 42, 0
9, 41111, Note_on_c, 9, 37, 127
9, 41111, Note_on_c, 9, 42, 77
9, 41123, Note_on_c, 9, 42, 0
9, 41123, Note_on_c, 9, 37, 0
9, 41135, Note_on_c, 9, 42, 77
9, 41149, Note_on_c, 9, 42, 0
9, 41159, Note_on_c, 9, 37, 127
9, 41159, Note_on_c, 9, 42, 77
9, 41159, Note_on_c, 9, 36, 127
9, 41175, Note_on_c, 9, 36, 0
9, 41175, Note_on_c, 9, 42, 0
9, 41175, Note_on_c, 9, 37, 0
9, 41183, Note_on_c, 9, 38, 127
9, 41183, Note_on_c, 9, 42, 77
9, 41200, Note_on_c, 9, 42, 0
9, 41200, Note_on_c, 9, 38, 0
9, 41207, Note_on_c, 9, 42, 77
9, 41219, Note_on_c, 9, 42, 0
9, 41231, Note_on_c, 9, 42, 77
9, 41231, Note_on_c, 9, 36, 127
9, 41244, Note_on_c, 9, 36, 0
9, 41244, Note_on_c, 9, 42, 0
9, 41255, Note_on_c, 9, 42, 77
9, 41270, Note_on_c, 9, 42, 0
9, 41279, Note_on_c, 9, 37, 127
9, 41279, Note_on_c, 9, 42, 77
9, 41295, Note_on_c, 9, 42, 0
9, 41295, Note_on_c, 9, 37, 0
9, 41303, Note_on_c, 9, 38, 127
9, 41303, Note_on_c, 9, 42, 77
9, 41315, Note_on_c, 9, 42, 0
9, 41315, Note_on_c, 9, 38, 0
9, 41327, Note_on_c, 9, 46, 77
9, 41327, Note_on_c, 9, 36, 127
9, 41341, Note_on_c, 9, 36, 0
9, 41341, Note_on_c, 9, 46, 0
9, 41351, Note_on_c, 9, 37, 127
9, 41368, Note_on_c, 9, 37, 0
9, 41375, Note_on_c, 9, 38, 127
9, 41375, Note_on_c, 9, 42, 77
9, 41392, Note_on_c, 9, 42, 0
9, 41392, Note_on_c, 9, 38, 0
9, 41399, Note_on_c, 9, 42, 77
9, 41412, Note_on_c, 9, 42, 0
9, 41423, Note_on_c, 9, 46, 77
9, 41436, Note_on_c, 9, 46, 0
9, 41447, Note_on_c, 9, 38, 127
9, 41463, Note_on_c, 9, 38, 0
9, 41471, Note_on_c, 9, 42, 77
9, 41471, Note_on_c, 9, 36, 127
9, 41487, Note_on_c, 9, 36, 0
9, 41487, Note_on_c, 9, 42, 0
9, 41495, Note_on_c, 9, 37, 127
9, 41495, Note_on_c, 9, 42, 77
9, 41507, Note_on_c, 9, 42, 0
9, 41507, Note_on_c, 9, 37, 0
9, 41519, Note_on_c, 9, 42, 77
9, 41533, Note_on_c, 9, 42, 0
9, 41543, Note_on_c, 9, 37, 127
9, 41543, Note_on_c, 9, 42, 77
9, 41543, Note_on_c, 9, 36, 127
9, 41558, Note_on_c, 9, 36, 0
9, 41559, Note_on_c, 9, 42, 0
9, 41559, Note_on_c, 9, 37, 0
9, 41567, Note_on_c, 9, 38, 127
9, 41567, Note_on_c, 9, 42, 77
9, 41584, Note_on_c, 9, 42, 0
9, 41584, Note_on_c, 9, 38, 0
9, 41591, Note_on_c, 9, 42, 77
9, 41603, Note_on_c, 9, 42, 0
9, 41615, Note_on_c, 9, 42, 77
9, 41615, Note_on_c, 9, 36, 127
9, 41629, Note_on_c, 9, 36, 0
9, 41629, Note_on_c, 9, 42, 0
9, 41639, Note_on_c, 9, 42, 77
9, 41655, Note_on_c, 9, 42, 0
9, 41663, Note_on_c, 9, 37, 127
9, 41663, Note_on_c, 9, 42, 77
9, 41679, Note_on_c, 9, 42, 0
9, 41679, Note_on_c, 9, 37, 0
9, 41687, Note_on_c, 9, 38, 127
9, 41687, Note_on_c, 9, 42, 77
9, 41699, Note_on_c, 9, 42, 0
9, 41699, Note_on_c, 9, 38, 0
9, 41711, Note_on_c, 9, 42, 77
9, 41711, Note_on_c, 9, 36, 127
9, 41725, Note_on_c, 9, 36, 0
9, 41725, Note_on_c, 9, 42, 0
9, 41735, Note_on_c, 9, 37, 127
9, 41735, Note_on_c, 9, 42, 77
9, 41751, Note_on_c, 9, 42, 0
9, 41751, Note_on_c, 9, 37, 0
9, 41759, Note_on_c, 9, 38, 127
9, 41759, Note_on_c, 9, 42, 77
9, 41776, Note_on_c, 9, 42, 0
9, 41776, Note_on_c, 9, 38, 0
9, 41783, Note_on_c, 9, 42, 77
9, 41783, Note_on_c, 9, 46, 77
9, 41795, Note_on_c, 9, 46, 0
9, 41795, Note_on_c, 9, 42, 0
9, 41807, Note_on_c, 9, 46, 77
9, 41821, Note_on_c, 9, 46, 0
9, 41855, Note_on_c, 9, 42, 77
9, 41855, Note_on_c, 9, 36, 127
9, 41871, Note_on_c, 9, 36, 0
9, 41872, Note_on_c, 9, 42, 0
9, 41879, Note_on_c, 9, 37, 127
9, 41879, Note_on_c, 9, 42, 77
9, 41891, Note_on_c, 9, 42, 0
9, 41891, Note_on_c, 9, 37, 0
9, 41903, Note_on_c, 9, 42, 77
9, 41917, Note_on_c, 9, 42, 0
9, 41927, Note_on_c, 9, 37, 127
9, 41927, Note_on_c, 9, 42, 77
9, 41927, Note_on_c, 9, 36, 127
9, 41943, Note_on_c, 9, 36, 0
9, 41943, Note_on_c, 9, 42, 0
9, 41943, Note_on_c, 9, 37, 0
9, 41951, Note_on_c, 9, 38, 127
9, 41951, Note_on_c, 9, 42, 77
9, 41968, Note_on_c, 9, 42, 0
9, 41968, Note_on_c, 9, 38, 0
9, 41975, Note_on_c, 9, 42, 77
9, 41987, Note_on_c, 9, 42, 0
9, 41999, Note_on_c, 9, 42, 77
9, 41999, Note_on_c, 9, 36, 127
9, 42012, Note_on_c, 9, 36, 0
9, 42012, Note_on_c, 9, 42, 0
9, 42023, Note_on_c, 9, 42, 77
9, 42038, Note_on_c, 9, 42, 0
9, 42047, Note_on_c, 9, 37, 127
9, 42047, Note_on_c, 9, 42, 77
9, 42063, Note_on_c, 9, 42, 0
9, 42063, Note_on_c, 9, 37, 0
9, 42071, Note_on_c, 9, 38, 127
9, 42071, Note_on_c, 9, 42, 77
9, 42083, Note_on_c, 9, 42, 0
9, 42083, Note_on_c, 9, 38, 0
9, 42095, Note_on_c, 9, 46, 77
9, 42095, Note_on_c, 9, 36, 127
9, 42109, Note_on_c, 9, 36, 0
9, 42109, Note_on_c, 9, 46, 0
9, 42119, Note_on_c, 9, 37, 127
9, 42136, Note_on_c, 9, 37, 0
9, 42143, Note_on_c, 9, 38, 127
9, 42143, Note_on_c, 9, 42, 77
9, 42160, Note_on_c, 9, 42, 0
9, 42160, Note_on_c, 9, 38, 0
9, 42167, Note_on_c, 9, 42, 77
9, 42180, Note_on_c, 9, 42, 0
9, 42191, Note_on_c, 9, 46, 77
9, 42204, Note_on_c, 9, 46, 0
9, 42215, Note_on_c, 9, 38, 127
9, 42231, Note_on_c, 9, 38, 0
9, 42239, Note_on_c, 9, 42, 77
9, 42239, Note_on_c, 9, 36, 127
9, 42255, Note_on_c, 9, 36, 0
9, 42255, Note_on_c, 9, 42, 0
9, 42263, Note_on_c, 9, 37, 127
9, 42263, Note_on_c, 9, 42, 77
9, 42274, Note_on_c, 9, 37, 0
9, 42275, Note_on_c, 9, 42, 0
9, 42287, Note_on_c, 9, 42, 77
9, 42301, Note_on_c, 9, 42, 0
9, 42311, Note_on_c, 9, 37, 127
9, 42311, Note_on_c, 9, 42, 77
9, 42311, Note_on_c, 9, 36, 127
9, 42326, Note_on_c, 9, 36, 0
9, 42326, Note_on_c, 9, 37, 0
9, 42327, Note_on_c, 9, 42, 0
9, 42335, Note_on_c, 9, 38, 127
9, 42335, Note_on_c, 9, 42, 77
9, 42352, Note_on_c, 9, 42, 0
9, 42353, Note_on_c, 9, 38, 0
9, 42359, Note_on_c, 9, 42, 77
9, 42371, Note_on_c, 9, 42, 0
9, 42383, Note_on_c, 9, 42, 77
9, 42383, Note_on_c, 9, 36, 127
9, 42397, Note_on_c, 9, 36, 0
9, 42397, Note_on_c, 9, 42, 0
9, 42407, Note_on_c, 9, 42, 77
9, 42423, Note_on_c, 9, 42, 0
9, 42431, Note_on_c, 9, 37, 127
9, 42431, Note_on_c, 9, 42, 77
9, 42448, Note_on_c, 9, 42, 0
9, 42448, Note_on_c, 9, 37, 0
9, 42455, Note_on_c, 9, 38, 127
9, 42455, Note_on_c, 9, 42, 77
9, 42466, Note_on_c, 9, 42, 0
9, 42466, Note_on_c, 9, 38, 0
9, 42479, Note_on_c, 9, 42, 77
9, 42479, Note_on_c, 9, 36, 127
9, 42493, Note_on_c, 9, 36, 0
9, 42493, Note_on_c, 9, 42, 0
9, 42503, Note_on_c, 9, 37, 127
9, 42503, Note_on_c, 9, 42, 77
9, 42519, Note_on_c, 9, 42, 0
9, 42519, Note_on_c, 9, 37, 0
9, 42527, Note_on_c, 9, 38, 127
9, 42527, Note_on_c, 9, 42, 77
9, 42544, Note_on_c, 9, 42, 0
9, 42544, Note_on_c, 9, 38, 0
9, 42551, Note_on_c, 9, 42, 77
9, 42551, Note_on_c, 9, 46, 77
9, 42563, Note_on_c, 9, 46, 0
9, 42563, Note_on_c, 9, 42, 0
9, 42575, Note_on_c, 9, 46, 77
9, 42588, Note_on_c, 9, 46, 0
9, 42623, Note_on_c, 9, 42, 77
9, 42623, Note_on_c, 9, 36, 127
9, 42639, Note_on_c, 9, 36, 0
9, 42639, Note_on_c, 9, 42, 0
9, 42647, Note_on_c, 9, 37, 127
9, 42647, Note_on_c, 9, 42, 77
9, 42659, Note_on_c, 9, 42, 0
9, 42659, Note_on_c, 9, 37, 0
9, 42671, Note_on_c, 9, 42, 77
9, 42685, Note_on_c, 9, 42, 0
9, 42695, Note_on_c, 9, 37, 127
9, 42695, Note_on_c, 9, 42, 77
9, 42695, Note_on_c, 9, 36, 127
9, 42710, Note_on_c, 9, 36, 0
9, 42710, Note_on_c, 9, 42, 0
9, 42710, Note_on_c, 9, 37, 0
9, 42719, Note_on_c, 9, 38, 127
9, 42719, Note_on_c, 9, 42, 77
9, 42736, Note_on_c, 9, 42, 0
9, 42736, Note_on_c, 9, 38, 0
9, 42743, Note_on_c, 9, 42, 77
9, 42755, Note_on_c, 9, 42, 0
9, 42767, Note_on_c, 9, 42, 77
9, 42767, Note_on_c, 9, 36, 127
9, 42780, Note_on_c, 9, 36, 0
9, 42780, Note_on_c, 9, 42, 0
9, 42791, Note_on_c, 9, 42, 77
9, 42807, Note_on_c, 9, 42, 0
9, 42815, Note_on_c, 9, 37, 127
9, 42815, Note_on_c, 9, 42, 77
9, 42831, Note_on_c, 9, 42, 0
9, 42831, Note_on_c, 9, 37, 0
9, 42839, Note_on_c, 9, 38, 127
9, 42839, Note_on_c, 9, 42, 77
9, 42851, Note_on_c, 9, 42, 0
9, 42851, Note_on_c, 9, 38, 0
9, 42863, Note_on_c, 9, 46, 77
9, 42863, Note_on_c, 9, 36, 127
9, 42877, Note_on_c, 9, 36, 0
9, 42877, Note_on_c, 9, 46, 0
9, 42887, Note_on_c, 9, 37, 127
9, 42903, Note_on_c, 9, 37, 0
9, 42911, Note_on_c, 9, 38, 127
9, 42911, Note_on_c, 9, 42, 77
9, 42927, Note_on_c, 9, 42, 0
9, 42928, Note_on_c, 9, 38, 0
9, 42935, Note_on_c, 9, 42, 77
9, 42947, Note_on_c, 9, 42, 0
9, 42959, Note_on_c, 9, 46, 77
9, 42972, Note_on_c, 9, 46, 0
9, 42983, Note_on_c, 9, 38, 127
9, 42999, Note_on_c, 9, 38, 0
9, 43007, Note_on_c, 9, 42, 77
9, 43007, Note_on_c, 9, 36, 127
9, 43022, Note_on_c, 9, 42, 0
9, 43023, Note_on_c, 9, 36, 0
9, 43031, Note_on_c, 9, 37, 127
9, 43031, Note_on_c, 9, 42, 77
9, 43042, Note_on_c, 9, 37, 0
9, 43044, Note_on_c, 9, 42, 0
9, 43055, Note_on_c, 9, 42, 77
9, 43069, Note_on_c, 9, 42, 0
9, 43079, Note_on_c, 9, 37, 127
9, 43079, Note_on_c, 9, 42, 77
9, 43079, Note_on_c, 9, 36, 127
9, 43094, Note_on_c, 9, 36, 0
9, 43095, Note_on_c, 9, 42, 0
9, 43095, Note_on_c, 9, 37, 0
9, 43103, Note_on_c, 9, 38, 127
9, 43103, Note_on_c, 9, 42, 77
9, 43120, Note_on_c, 9, 42, 0
9, 43120, Note_on_c, 9, 38, 0
9, 43127, Note_on_c, 9, 42, 77
9, 43139, Note_on_c, 9, 42, 0
9, 43151, Note_on_c, 9, 42, 77
9, 43151, Note_on_c, 9, 36, 127
9, 43164, Note_on_c, 9, 36, 0
9, 43165, Note_on_c, 9, 42, 0
9, 43175, Note_on_c, 9, 42, 77
9, 43191, Note_on_c, 9, 42, 0
9, 43199, Note_on_c, 9, 37, 127
9, 43199, Note_on_c, 9, 42, 77
9, 43215, Note_on_c, 9, 37, 0
9, 43216, Note_on_c, 9, 42, 0
9, 43223, Note_on_c, 9, 38, 127
9, 43223, Note_on_c, 9, 42, 77
9, 43234, Note_on_c, 9, 42, 0
9, 43234, Note_on_c, 9, 38, 0
9, 43247, Note_on_c, 9, 42, 77
9, 43247, Note_on_c, 9, 36, 127
9, 43261, Note_on_c, 9, 36, 0
9, 43261, Note_on_c, 9, 42, 0
9, 43271, Note_on_c, 9, 37, 127
9, 43271, Note_on_c, 9, 42, 77
9, 43286, Note_on_c, 9, 37, 0
9, 43287, Note_on_c, 9, 42, 0
9, 43295, Note_on_c, 9, 38, 127
9, 43295, Note_on_c, 9, 42, 77
9, 43312, Note_on_c, 9, 42, 0
9, 43312, Note_on_c, 9, 38, 0
9, 43319, Note_on_c, 9, 42, 77
9, 43319, Note_on_c, 9, 46, 77
9, 43331, Note_on_c, 9, 46, 0
9, 43331, Note_on_c, 9, 42, 0
9, 43343, Note_on_c, 9, 46, 77
9, 43356, Note_on_c, 9, 46, 0
9, 43391, Note_on_c, 9, 42, 77
9, 43391, Note_on_c, 9, 36, 127
9, 43406, Note_on_c, 9, 36, 0
9, 43407, Note_on_c, 9, 42, 0
9, 43415, Note_on_c, 9, 37, 127
9, 43415, Note_on_c, 9, 42, 77
9, 43427, Note_on_c, 9, 37, 0
9, 43428, Note_on_c, 9, 42, 0
9, 43439, Note_on_c, 9, 42, 77
9, 43453, Note_on_c, 9, 42, 0
9, 43463, Note_on_c, 9, 37, 127
9, 43463, Note_on_c, 9, 42, 77
9, 43463, Note_on_c, 9, 36, 127
9, 43479, Note_on_c, 9, 36, 0
9, 43479, Note_on_c, 9, 42, 0
9, 43479, Note_on_c, 9, 37, 0
9, 43487, Note_on_c, 9, 38, 127
9, 43487, Note_on_c, 9, 42, 77
9, 43503, Note_on_c, 9, 42, 0
9, 43503, Note_on_c, 9, 38, 0
9, 43511, Note_on_c, 9, 42, 77
9, 43523, Note_on_c, 9, 42, 0
9, 43535, Note_on_c, 9, 42, 77
9, 43535, Note_on_c, 9, 36, 127
9, 43548, Note_on_c, 9, 36, 0
9, 43549, Note_on_c, 9, 42, 0
9, 43559, Note_on_c, 9, 38, 127
9, 43559, Note_on_c, 9, 42, 77
9, 43575, Note_on_c, 9, 42, 0
9, 43576, Note_on_c, 9, 38, 0
9, 43583, Note_on_c, 9, 42, 77
9, 43583, Note_on_c, 9, 36, 127
9, 43598, Note_on_c, 9, 36, 0
9, 43599, Note_on_c, 9, 42, 0
9, 43607, Note_on_c, 9, 38, 127
9, 43607, Note_on_c, 9, 42, 77
9, 43619, Note_on_c, 9, 42, 0
9, 43619, Note_on_c, 9, 38, 0
9, 43631, Note_on_c, 9, 46, 77
9, 43631, Note_on_c, 9, 36, 127
9, 43645, Note_on_c, 9, 36, 0
9, 43645, Note_on_c, 9, 46, 0
9, 43679, Note_on_c, 9, 38, 127
9, 43679, Note_on_c, 9, 42, 77
9, 43695, Note_on_c, 9, 42, 0
9, 43695, Note_on_c, 9, 38, 0
9, 43703, Note_on_c, 9, 42, 77
9, 43716, Note_on_c, 9, 42, 0
9, 43727, Note_on_c, 9, 38, 127
9, 43727, Note_on_c, 9, 46, 77
9, 43740, Note_on_c, 9, 38, 0
9, 43741, Note_on_c, 9, 46, 0
9, 43751, Note_on_c, 9, 38, 127
9, 43767, Note_on_c, 9, 38, 0
9, 43775, Note_on_c, 9, 42, 77
9, 43775, Note_on_c, 9, 36, 127
9, 43791, Note_on_c, 9, 36, 0
9, 43791, Note_on_c, 9, 42, 0
9, 43799, Note_on_c, 9, 37, 127
9, 43799, Note_on_c, 9, 42, 77
9, 43810, Note_on_c, 9, 37, 0
9, 43811, Note_on_c, 9, 42, 0
9, 43823, Note_on_c, 9, 42, 77
9, 43837, Note_on_c, 9, 42, 0
9, 43847, Note_on_c, 9, 37, 127
9, 43847, Note_on_c, 9, 42, 77
9, 43847, Note_on_c, 9, 36, 127
9, 43862, Note_on_c, 9, 37, 0
9, 43863, Note_on_c, 9, 36, 0
9, 43863, Note_on_c, 9, 42, 0
9, 43871, Note_on_c, 9, 38, 127
9, 43871, Note_on_c, 9, 42, 77
9, 43888, Note_on_c, 9, 42, 0
9, 43889, Note_on_c, 9, 38, 0
9, 43895, Note_on_c, 9, 42, 77
9, 43907, Note_on_c, 9, 42, 0
9, 43919, Note_on_c, 9, 42, 77
9, 43919, Note_on_c, 9, 36, 127
9, 43932, Note_on_c, 9, 36, 0
9, 43933, Note_on_c, 9, 42, 0
9, 43943, Note_on_c, 9, 42, 77
9, 43959, Note_on_c, 9, 42, 0
9, 43967, Note_on_c, 9, 37, 127
9, 43967, Note_on_c, 9, 42, 77
9, 43984, Note_on_c, 9, 37, 0
9, 43985, Note_on_c, 9, 42, 0
9, 43991, Note_on_c, 9, 38, 127
9, 43991, Note_on_c, 9, 42, 77
9, 44002, Note_on_c, 9, 38, 0
9, 44003, Note_on_c, 9, 42, 0
9, 44015, Note_on_c, 9, 42, 77
9, 44015, Note_on_c, 9, 36, 127
9, 44028, Note_on_c, 9, 42, 0
9, 44029, Note_on_c, 9, 36, 0
9, 44039, Note_on_c, 9, 37, 127
9, 44039, Note_on_c, 9, 42, 77
9, 44055, Note_on_c, 9, 42, 0
9, 44055, Note_on_c, 9, 37, 0
9, 44063, Note_on_c, 9, 38, 127
9, 44063, Note_on_c, 9, 42, 77
9, 44079, Note_on_c, 9, 42, 0
9, 44079, Note_on_c, 9, 38, 0
9, 44087, Note_on_c, 9, 42, 77
9, 44087, Note_on_c, 9, 46, 77
9, 44099, Note_on_c, 9, 46, 0
9, 44099, Note_on_c, 9, 42, 0
9, 44111, Note_on_c, 9, 46, 77
9, 44125, Note_on_c, 9, 46, 0
9, 44159, Note_on_c, 9, 42, 77
9, 44159, Note_on_c, 9, 36, 127
9, 44175, Note_on_c, 9, 36, 0
9, 44175, Note_on_c, 9, 42, 0
9, 44183, Note_on_c, 9, 37, 127
9, 44183, Note_on_c, 9, 42, 77
9, 44194, Note_on_c, 9, 37, 0
9, 44195, Note_on_c, 9, 42, 0
9, 44207, Note_on_c, 9, 42, 77
9, 44221, Note_on_c, 9, 42, 0
9, 44231, Note_on_c, 9, 37, 127
9, 44231, Note_on_c, 9, 42, 77
9, 44231, Note_on_c, 9, 36, 127
9, 44246, Note_on_c, 9, 36, 0
9, 44246, Note_on_c, 9, 37, 0
9, 44247, Note_on_c, 9, 42, 0
9, 44255, Note_on_c, 9, 38, 127
9, 44255, Note_on_c, 9, 42, 77
9, 44271, Note_on_c, 9, 42, 0
9, 44271, Note_on_c, 9, 38, 0
9, 44279, Note_on_c, 9, 42, 77
9, 44291, Note_on_c, 9, 42, 0
9, 44303, Note_on_c, 9, 42, 77
9, 44303, Note_on_c, 9, 36, 127
9, 44316, Note_on_c, 9, 36, 0
9, 44316, Note_on_c, 9, 42, 0
9, 44327, Note_on_c, 9, 42, 77
9, 44343, Note_on_c, 9, 42, 0
9, 44351, Note_on_c, 9, 37, 127
9, 44351, Note_on_c, 9, 42, 77
9, 44367, Note_on_c, 9, 42, 0
9, 44367, Note_on_c, 9, 37, 0
9, 44375, Note_on_c, 9, 38, 127
9, 44375, Note_on_c, 9, 42, 77
9, 44387, Note_on_c, 9, 38, 0
9, 44388, Note_on_c, 9, 42, 0
9, 44399, Note_on_c, 9, 46, 77
9, 44399, Note_on_c, 9, 36, 127
9, 44412, Note_on_c, 9, 36, 0
9, 44412, Note_on_c, 9, 46, 0
9, 44423, Note_on_c, 9, 37, 127
9, 44439, Note_on_c, 9, 37, 0
9, 44447, Note_on_c, 9, 38, 127
9, 44447, Note_on_c, 9, 42, 77
9, 44463, Note_on_c, 9, 42, 0
9, 44463, Note_on_c, 9, 38, 0
9, 44471, Note_on_c, 9, 42, 77
9, 44483, Note_on_c, 9, 42, 0
9, 44495, Note_on_c, 9, 46, 77
9, 44509, Note_on_c, 9, 46, 0
9, 44519, Note_on_c, 9, 38, 127
9, 44535, Note_on_c, 9, 38, 0
9, 44543, Note_on_c, 9, 42, 77
9, 44543, Note_on_c, 9, 36, 127
9, 44559, Note_on_c, 9, 36, 0
9, 44559, Note_on_c, 9, 42, 0
9, 44567, Note_on_c, 9, 37, 127
9, 44567, Note_on_c, 9, 42, 77
9, 44579, Note_on_c, 9, 42, 0
9, 44579, Note_on_c, 9, 37, 0
9, 44591, Note_on_c, 9, 42, 77
9, 44605, Note_on_c, 9, 42, 0
9, 44615, Note_on_c, 9, 37, 127
9, 44615, Note_on_c, 9, 42, 77
9, 44615, Note_on_c, 9, 36, 127
9, 44630, Note_on_c, 9, 36, 0
9, 44630, Note_on_c, 9, 37, 0
9, 44631, Note_on_c, 9, 42, 0
9, 44639, Note_on_c, 9, 38, 127
9, 44639, Note_on_c, 9, 42, 77
9, 44656, Note_on_c, 9, 42, 0
9, 44656, Note_on_c, 9, 38, 0
9, 44663, Note_on_c, 9, 42, 77
9, 44675, Note_on_c, 9, 42, 0
9, 44687, Note_on_c, 9, 42, 77
9, 44687, Note_on_c, 9, 36, 127
9, 44701, Note_on_c, 9, 36, 0
9, 44701, Note_on_c, 9, 42, 0
9, 44711, Note_on_c, 9, 42, 77
9, 44726, Note_on_c, 9, 42, 0
9, 44735, Note_on_c, 9, 37, 127
9, 44735, Note_on_c, 9, 42, 77
9, 44751, Note_on_c, 9, 37, 0
9, 44752, Note_on_c, 9, 42, 0
9, 44759, Note_on_c, 9, 38, 127
9, 44759, Note_on_c, 9, 42, 77
9, 44771, Note_on_c, 9, 42, 0
9, 44771, Note_on_c, 9, 38, 0
9, 44783, Note_on_c, 9, 42, 77
9, 44783, Note_on_c, 9, 36, 127
9, 44796, Note_on_c, 9, 42, 0
9, 44797, Note_on_c, 9, 36, 0
9, 44807, Note_on_c, 9, 37, 127
9, 44807, Note_on_c, 9, 42, 77
9, 44823, Note_on_c, 9, 42, 0
9, 44823, Note_on_c, 9, 37, 0
9, 44831, Note_on_c, 9, 38, 127
9, 44831, Note_on_c, 9, 42, 77
9, 44847, Note_on_c, 9, 38, 0
9, 44848, Note_on_c, 9, 42, 0
9, 44855, Note_on_c, 9, 42, 77
9, 44855, Note_on_c, 9, 46, 77
9, 44867, Note_on_c, 9, 46, 0
9, 44867, Note_on_c, 9, 42, 0
9, 44879, Note_on_c, 9, 46, 77
9, 44893, Note_on_c, 9, 46, 0
9, 44927, Note_on_c, 9, 42, 77
9, 44927, Note_on_c, 9, 36, 127
9, 44942, Note_on_c, 9, 36, 0
9, 44943, Note_on_c, 9, 42, 0
9, 44951, Note_on_c, 9, 37, 127
9, 44951, Note_on_c, 9, 42, 77
9, 44963, Note_on_c, 9, 37, 0
9, 44964, Note_on_c, 9, 42, 0
9, 44975, Note_on_c, 9, 42, 77
9, 44989, Note_on_c, 9, 42, 0
9, 44999, Note_on_c, 9, 37, 127
9, 44999, Note_on_c, 9, 42, 77
9, 44999, Note_on_c, 9, 36, 127
9, 45015, Note_on_c, 9, 36, 0
9, 45015, Note_on_c, 9, 42, 0
9, 45015, Note_on_c, 9, 37, 0
9, 45023, Note_on_c, 9, 38, 127
9, 45023, Note_on_c, 9, 42, 77
9, 45039, Note_on_c, 9, 42, 0
9, 45039, Note_on_c, 9, 38, 0
9, 45047, Note_on_c, 9, 42, 77
9, 45059, Note_on_c, 9, 42, 0
9, 45071, Note_on_c, 9, 42, 77
9, 45071, Note_on_c, 9, 36, 127
9, 45084, Note_on_c, 9, 36, 0
9, 45085, Note_on_c, 9, 42, 0
9, 45095, Note_on_c, 9, 38, 127
9, 45095, Note_on_c, 9, 42, 77
9, 45111, Note_on_c, 9, 42, 0
9, 45112, Note_on_c, 9, 38, 0
9, 45119, Note_on_c, 9, 42, 77
9, 45119, Note_on_c, 9, 36, 127
9, 45134, Note_on_c, 9, 36, 0
9, 45135, Note_on_c, 9, 42, 0
9, 45143, Note_on_c, 9, 38, 127
9, 45143, Note_on_c, 9, 42, 77
9, 45155, Note_on_c, 9, 42, 0
9, 45155, Note_on_c, 9, 38, 0
9, 45167, Note_on_c, 9, 46, 77
9, 45167, Note_on_c, 9, 36, 127
9, 45181, Note_on_c, 9, 36, 0
9, 45181, Note_on_c, 9, 46, 0
9, 45215, Note_on_c, 9, 38, 127
9, 45215, Note_on_c, 9, 42, 77
9, 45231, Note_on_c, 9, 42, 0
9, 45231, Note_on_c, 9, 38, 0
9, 45239, Note_on_c, 9, 42, 77
9, 45252, Note_on_c, 9, 42, 0
9, 45263, Note_on_c, 9, 38, 127
9, 45263, Note_on_c, 9, 46, 77
9, 45276, Note_on_c, 9, 38, 0
9, 45277, Note_on_c, 9, 46, 0
9, 45287, Note_on_c, 9, 38, 127
9, 45303, Note_on_c, 9, 38, 0
9, 45311, Note_on_c, 9, 42, 77
9, 45311, Note_on_c, 9, 36, 127
9, 45327, Note_on_c, 9, 36, 0
9, 45327, Note_on_c, 9, 42, 0
9, 45335, Note_on_c, 9, 37, 127
9, 45335, Note_on_c, 9, 42, 77
9, 45346, Note_on_c, 9, 37, 0
9, 45347, Note_on_c, 9, 42, 0
9, 45359, Note_on_c, 9, 42, 77
9, 45373, Note_on_c, 9, 42, 0
9, 45383, Note_on_c, 9, 37, 127
9, 45383, Note_on_c, 9, 42, 77
9, 45383, Note_on_c, 9, 36, 127
9, 45398, Note_on_c, 9, 37, 0
9, 45399, Note_on_c, 9, 36, 0
9, 45399, Note_on_c, 9, 42, 0
9, 45407, Note_on_c, 9, 38, 127
9, 45407, Note_on_c, 9, 42, 77
9, 45424, Note_on_c, 9, 42, 0
9, 45425, Note_on_c, 9, 38, 0
9, 45431, Note_on_c, 9, 42, 77
9, 45443, Note_on_c, 9, 42, 0
9, 45455, Note_on_c, 9, 42, 77
9, 45455, Note_on_c, 9, 36, 127
9, 45468, Note_on_c, 9, 36, 0
9, 45469, Note_on_c, 9, 42, 0
9, 45479, Note_on_c, 9, 42, 77
9, 45495, Note_on_c, 9, 42, 0
9, 45503, Note_on_c, 9, 37, 127
9, 45503, Note_on_c, 9, 42, 77
9, 45520, Note_on_c, 9, 37, 0
9, 45521, Note_on_c, 9, 42, 0
9, 45527, Note_on_c, 9, 38, 127
9, 45527, Note_on_c, 9, 42, 77
9, 45538, Note_on_c, 9, 38, 0
9, 45539, Note_on_c, 9, 42, 0
9, 45551, Note_on_c, 9, 42, 77
9, 45551, Note_on_c, 9, 36, 127
9, 45564, Note_on_c, 9, 42, 0
9, 45565, Note_on_c, 9, 36, 0
9, 45575, Note_on_c, 9, 37, 127
9, 45575, Note_on_c, 9, 42, 77
9, 45591, Note_on_c, 9, 42, 0
9, 45591, Note_on_c, 9, 37, 0
9, 45599, Note_on_c, 9, 38, 127
9, 45599, Note_on_c, 9, 42, 77
9, 45615, Note_on_c, 9, 42, 0
9, 45615, Note_on_c, 9, 38, 0
9, 45623, Note_on_c, 9, 42, 77
9, 45623, Note_on_c, 9, 46, 77
9, 45635, Note_on_c, 9, 46, 0
9, 45635, Note_on_c, 9, 42, 0
9, 45647, Note_on_c, 9, 46, 77
9, 45661, Note_on_c, 9, 46, 0
9, 45695, Note_on_c, 9, 42, 77
9, 45695, Note_on_c, 9, 36, 127
9, 45711, Note_on_c, 9, 36, 0
9, 45711, Note_on_c, 9, 42, 0
9, 45719, Note_on_c, 9, 37, 127
9, 45719, Note_on_c, 9, 42, 77
9, 45730, Note_on_c, 9, 37, 0
9, 45731, Note_on_c, 9, 42, 0
9, 45743, Note_on_c, 9, 42, 77
9, 45757, Note_on_c, 9, 42, 0
9, 45767, Note_on_c, 9, 37, 127
9, 45767, Note_on_c, 9, 42, 77
9, 45767, Note_on_c, 9, 36, 127
9, 45782, Note_on_c, 9, 36, 0
9, 45782, Note_on_c, 9, 37, 0
9, 45783, Note_on_c, 9, 42, 0
9, 45791, Note_on_c, 9, 38, 127
9, 45791, Note_on_c, 9, 42, 77
9, 45807, Note_on_c, 9, 42, 0
9, 45807, Note_on_c, 9, 38, 0
9, 45815, Note_on_c, 9, 42, 77
9, 45827, Note_on_c, 9, 42, 0
9, 45839, Note_on_c, 9, 42, 77
9, 45839, Note_on_c, 9, 36, 127
9, 45852, Note_on_c, 9, 36, 0
9, 45852, Note_on_c, 9, 42, 0
9, 45863, Note_on_c, 9, 42, 77
9, 45879, Note_on_c, 9, 42, 0
9, 45887, Note_on_c, 9, 37, 127
9, 45887, Note_on_c, 9, 42, 77
9, 45903, Note_on_c, 9, 42, 0
9, 45903, Note_on_c, 9, 37, 0
9, 45911, Note_on_c, 9, 38, 127
9, 45911, Note_on_c, 9, 42, 77
9, 45923, Note_on_c, 9, 38, 0
9, 45924, Note_on_c, 9, 42, 0
9, 45935, Note_on_c, 9, 46, 77
9, 45935, Note_on_c, 9, 36, 127
9, 45948, Note_on_c, 9, 36, 0
9, 45948, Note_on_c, 9, 46, 0
9, 45959, Note_on_c, 9, 37, 127
9, 45975, Note_on_c, 9, 37, 0
9, 45983, Note_on_c, 9, 38, 127
9, 45983, Note_on_c, 9, 42, 77
9, 45999, Note_on_c, 9, 42, 0
9, 45999, Note_on_c, 9, 38, 0
9, 46007, Note_on_c, 9, 42, 77
9, 46019, Note_on_c, 9, 42, 0
9, 46031, Note_on_c, 9, 46, 77
9, 46045, Note_on_c, 9, 46, 0
9, 46055, Note_on_c, 9, 38, 127
9, 46071, Note_on_c, 9, 38, 0
9, 46079, Note_on_c, 9, 42, 77
9, 46079, Note_on_c, 9, 36, 127
9, 46095, Note_on_c, 9, 36, 0
9, 46095, Note_on_c, 9, 42, 0
9, 46103, Note_on_c, 9, 37, 127
9, 46103, Note_on_c, 9, 42, 77
9, 46115, Note_on_c, 9, 42, 0
9, 46115, Note_on_c, 9, 37, 0
9, 46127, Note_on_c, 9, 42, 77
9, 46141, Note_on_c, 9, 42, 0
9, 46151, Note_on_c, 9, 37, 127
9, 46151, Note_on_c, 9, 42, 77
9, 46151, Note_on_c, 9, 36, 127
9, 46166, Note_on_c, 9, 36, 0
9, 46166, Note_on_c, 9, 37, 0
9, 46167, Note_on_c, 9, 42, 0
9, 46175, Note_on_c, 9, 38, 127
9, 46175, Note_on_c, 9, 42, 77
9, 46192, Note_on_c, 9, 42, 0
9, 46192, Note_on_c, 9, 38, 0
9, 46199, Note_on_c, 9, 42, 77
9, 46211, Note_on_c, 9, 42, 0
9, 46223, Note_on_c, 9, 42, 77
9, 46223, Note_on_c, 9, 36, 127
9, 46237, Note_on_c, 9, 36, 0
9, 46237, Note_on_c, 9, 42, 0
9, 46247, Note_on_c, 9, 42, 77
9, 46262, Note_on_c, 9, 42, 0
9, 46271, Note_on_c, 9, 37, 127
9, 46271, Note_on_c, 9, 42, 77
9, 46287, Note_on_c, 9, 37, 0
9, 46288, Note_on_c, 9, 42, 0
9, 46295, Note_on_c, 9, 38, 127
9, 46295, Note_on_c, 9, 42, 77
9, 46307, Note_on_c, 9, 42, 0
9, 46307, Note_on_c, 9, 38, 0
9, 46319, Note_on_c, 9, 42, 77
9, 46319, Note_on_c, 9, 36, 127
9, 46332, Note_on_c, 9, 42, 0
9, 46333, Note_on_c, 9, 36, 0
9, 46343, Note_on_c, 9, 37, 127
9, 46343, Note_on_c, 9, 42, 77
9, 46359, Note_on_c, 9, 42, 0
9, 46359, Note_on_c, 9, 37, 0
9, 46367, Note_on_c, 9, 38, 127
9, 46367, Note_on_c, 9, 42, 77
9, 46383, Note_on_c, 9, 38, 0
9, 46384, Note_on_c, 9, 42, 0
9, 46391, Note_on_c, 9, 42, 77
9, 46391, Note_on_c, 9, 46, 77
9, 46403, Note_on_c, 9, 46, 0
9, 46403, Note_on_c, 9, 42, 0
9, 46415, Note_on_c, 9, 46, 77
9, 46429, Note_on_c, 9, 46, 0
9, 46463, Note_on_c, 9, 42, 77
9, 46463, Note_on_c, 9, 36, 127
9, 46479, Note_on_c, 9, 36, 0
9, 46479, Note_on_c, 9, 42, 0
9, 46487, Note_on_c, 9, 37, 127
9, 46487, Note_on_c, 9, 42, 77
9, 46498, Note_on_c, 9, 37, 0
9, 46499, Note_on_c, 9, 42, 0
9, 46511, Note_on_c, 9, 42, 77
9, 46525, Note_on_c, 9, 42, 0
9, 46535, Note_on_c, 9, 37, 127
9, 46535, Note_on_c, 9, 42, 77
9, 46535, Note_on_c, 9, 36, 127
9, 46550, Note_on_c, 9, 37, 0
9, 46551, Note_on_c, 9, 36, 0
9, 46551, Note_on_c, 9, 42, 0
9, 46559, Note_on_c, 9, 38, 127
9, 46559, Note_on_c, 9, 42, 77
9, 46576, Note_on_c, 9, 42, 0
9, 46577, Note_on_c, 9, 38, 0
9, 46583, Note_on_c, 9, 42, 77
9, 46595, Note_on_c, 9, 42, 0
9, 46607, Note_on_c, 9, 42, 77
9, 46607, Note_on_c, 9, 36, 127
9, 46620, Note_on_c, 9, 36, 0
9, 46621, Note_on_c, 9, 42, 0
9, 46631, Note_on_c, 9, 42, 77
9, 46647, Note_on_c, 9, 42, 0
9, 46655, Note_on_c, 9, 37, 127
9, 46655, Note_on_c, 9, 42, 77
9, 46672, Note_on_c, 9, 37, 0
9, 46673, Note_on_c, 9, 42, 0
9, 46679, Note_on_c, 9, 38, 127
9, 46679, Note_on_c, 9, 42, 77
9, 46690, Note_on_c, 9, 38, 0
9, 46691, Note_on_c, 9, 42, 0
9, 46703, Note_on_c, 9, 42, 77
9, 46703, Note_on_c, 9, 36, 127
9, 46716, Note_on_c, 9, 42, 0
9, 46717, Note_on_c, 9, 36, 0
9, 46727, Note_on_c, 9, 37, 127
9, 46727, Note_on_c, 9, 42, 77
9, 46743, Note_on_c, 9, 42, 0
9, 46743, Note_on_c, 9, 37, 0
9, 46751, Note_on_c, 9, 38, 127
9, 46751, Note_on_c, 9, 42, 77
9, 46767, Note_on_c, 9, 42, 0
9, 46767, Note_on_c, 9, 38, 0
9, 46775, Note_on_c, 9, 42, 77
9, 46775, Note_on_c, 9, 46, 77
9, 46787, Note_on_c, 9, 46, 0
9, 46787, Note_on_c, 9, 42, 0
9, 46799, Note_on_c, 9, 46, 77
9, 46813, Note_on_c, 9, 46, 0
9, 46847, Note_on_c, 9, 55, 104
9, 46847, Note_on_c, 9, 36, 127
9, 46871, Note_on_c, 9, 36, 0
9, 46871, Note_on_c, 9, 55, 0
9, 48017, Control_c, 9, 120, 0
9, 48018, Control_c, 9, 123, 0
9, 48018, End_track
0, 0, End_of_file
