0, 0, Header, 1, 19, 240
1, 0, Start_track
1, 0, Time_signature, 4, 2, 24, 8
1, 0, Tempo, 400000
1, 960, Marker_t, "ALL OF YOU............................................................."
1, 85440, Marker_t, "thanks for listening............................"
1, 85440, End_track
2, 0, Start_track
2, 0, Title_t, "         "" ALL OF YOU """
2, 0, End_track
3, 0, Start_track
3, 0, End_track
4, 0, Start_track
4, 0, Title_t, "Orchestration & midi prep by"
4, 0, End_track
5, 0, Start_track
5, 0, Title_t, "              MEL WEBB"
5, 0, End_track
6, 0, Start_track
6, 0, End_track
7, 0, Start_track
7, 0, Title_t, "Bass / Acoustic bass"
7, 0, Program_c, 1, 32
7, 0, Control_c, 1, 7, 90
7, 0, Control_c, 1, 121, 0
7, 0, Control_c, 1, 10, 64
7, 0, Control_c, 1, 123, 0
7, 0, Control_c, 1, 91, 40
7, 0, Control_c, 1, 93, 0
7, 0, Control_c, 1, 64, 0
7, 1920, Note_on_c, 1, 34, 76
7, 2266, Note_off_c, 1, 34, 64
7, 2336, Note_on_c, 1, 34, 84
7, 2400, Note_on_c, 1, 41, 68
7, 2436, Note_off_c, 1, 34, 64
7, 2736, Note_off_c, 1, 41, 64
7, 2816, Note_on_c, 1, 41, 65
7, 2870, Note_off_c, 1, 41, 64
7, 2880, Note_on_c, 1, 39, 76
7, 3360, Note_on_c, 1, 46, 61
7, 3388, Note_off_c, 1, 39, 64
7, 3840, Note_off_c, 1, 46, 64
7, 3840, Note_on_c, 1, 34, 80
7, 4320, Note_on_c, 1, 41, 73
7, 4344, Note_off_c, 1, 34, 64
7, 4610, Note_off_c, 1, 41, 64
7, 4736, Note_on_c, 1, 41, 77
7, 4800, Note_on_c, 1, 46, 66
7, 4842, Note_off_c, 1, 41, 64
7, 5040, Note_on_c, 1, 41, 78
7, 5052, Note_off_c, 1, 46, 64
7, 5280, Note_on_c, 1, 34, 79
7, 5282, Note_off_c, 1, 41, 64
7, 5528, Note_off_c, 1, 34, 64
7, 5528, Note_on_c, 1, 41, 71
7, 5726, Note_off_c, 1, 41, 64
7, 5760, Note_on_c, 1, 34, 78
7, 6230, Note_off_c, 1, 34, 64
7, 6240, Note_on_c, 1, 41, 82
7, 6656, Note_on_c, 1, 22, 60
7, 6670, Note_off_c, 1, 41, 64
7, 6678, Note_off_c, 1, 22, 64
7, 6720, Note_on_c, 1, 39, 85
7, 7200, Note_off_c, 1, 39, 64
7, 7200, Note_on_c, 1, 46, 85
7, 7572, Note_off_c, 1, 46, 64
7, 7616, Note_on_c, 1, 42, 80
7, 7680, Note_off_c, 1, 42, 64
7, 7680, Note_on_c, 1, 41, 89
7, 8174, Note_off_c, 1, 41, 64
7, 8174, Note_on_c, 1, 35, 82
7, 8596, Note_off_c, 1, 35, 64
7, 8640, Note_on_c, 1, 34, 72
7, 9098, Note_off_c, 1, 34, 64
7, 9120, Note_on_c, 1, 41, 82
7, 9360, Note_on_c, 1, 40, 66
7, 9378, Note_off_c, 1, 41, 64
7, 9536, Note_off_c, 1, 40, 64
7, 9536, Note_on_c, 1, 38, 74
7, 9574, Note_off_c, 1, 38, 64
7, 9600, Note_on_c, 1, 39, 76
7, 9946, Note_off_c, 1, 39, 64
7, 10016, Note_on_c, 1, 39, 84
7, 10080, Note_on_c, 1, 46, 68
7, 10116, Note_off_c, 1, 39, 64
7, 10416, Note_off_c, 1, 46, 64
7, 10496, Note_on_c, 1, 46, 65
7, 10550, Note_off_c, 1, 46, 64
7, 10560, Note_on_c, 1, 42, 78
7, 11030, Note_off_c, 1, 42, 64
7, 11040, Note_on_c, 1, 36, 82
7, 11456, Note_on_c, 1, 30, 60
7, 11470, Note_off_c, 1, 36, 64
7, 11478, Note_off_c, 1, 30, 64
7, 11520, Note_on_c, 1, 41, 78
7, 11990, Note_off_c, 1, 41, 64
7, 12000, Note_on_c, 1, 36, 82
7, 12416, Note_on_c, 1, 29, 60
7, 12430, Note_off_c, 1, 36, 64
7, 12438, Note_off_c, 1, 29, 64
7, 12480, Note_on_c, 1, 34, 87
7, 12960, Note_on_c, 1, 41, 87
7, 13030, Note_off_c, 1, 34, 64
7, 13440, Note_off_c, 1, 41, 64
7, 13440, Note_on_c, 1, 39, 82
7, 13920, Note_off_c, 1, 39, 64
7, 13920, Note_on_c, 1, 38, 85
7, 14320, Note_off_c, 1, 38, 64
7, 14320, Note_on_c, 1, 26, 55
7, 14358, Note_off_c, 1, 26, 64
7, 14400, Note_on_c, 1, 37, 85
7, 14800, Note_off_c, 1, 37, 64
7, 14800, Note_on_c, 1, 25, 55
7, 14838, Note_off_c, 1, 25, 64
7, 14880, Note_on_c, 1, 36, 73
7, 15296, Note_off_c, 1, 36, 64
7, 15296, Note_on_c, 1, 43, 68
7, 15360, Note_off_c, 1, 43, 64
7, 15360, Note_on_c, 1, 41, 89
7, 15854, Note_off_c, 1, 41, 64
7, 15854, Note_on_c, 1, 36, 82
7, 16276, Note_off_c, 1, 36, 64
7, 16320, Note_on_c, 1, 34, 72
7, 16722, Note_off_c, 1, 34, 64
7, 16722, Note_on_c, 1, 41, 82
7, 16800, Note_on_c, 1, 46, 74
7, 16832, Note_off_c, 1, 41, 64
7, 16912, Note_off_c, 1, 46, 64
7, 16960, Note_on_c, 1, 41, 100
7, 17040, Note_on_c, 1, 34, 89
7, 17058, Note_off_c, 1, 41, 64
7, 17266, Note_off_c, 1, 34, 64
7, 17280, Note_on_c, 1, 34, 78
7, 17456, Note_on_c, 1, 29, 57
7, 17464, Note_off_c, 1, 34, 64
7, 17494, Note_off_c, 1, 29, 64
7, 17520, Note_on_c, 1, 36, 76
7, 17758, Note_off_c, 1, 36, 64
7, 17760, Note_on_c, 1, 38, 83
7, 17916, Note_off_c, 1, 38, 64
7, 17936, Note_on_c, 1, 29, 61
7, 17972, Note_off_c, 1, 29, 64
7, 18000, Note_on_c, 1, 41, 85
7, 18160, Note_off_c, 1, 41, 64
7, 18176, Note_on_c, 1, 29, 54
7, 18196, Note_off_c, 1, 29, 64
7, 18240, Note_on_c, 1, 39, 89
7, 18418, Note_on_c, 1, 34, 40
7, 18426, Note_off_c, 1, 39, 64
7, 18480, Note_off_c, 1, 34, 64
7, 18480, Note_on_c, 1, 46, 72
7, 18690, Note_off_c, 1, 46, 64
7, 18720, Note_on_c, 1, 43, 80
7, 18960, Note_off_c, 1, 43, 64
7, 18960, Note_on_c, 1, 39, 82
7, 19062, Note_off_c, 1, 39, 64
7, 19138, Note_on_c, 1, 34, 60
7, 19200, Note_off_c, 1, 34, 64
7, 19200, Note_on_c, 1, 46, 75
7, 19376, Note_off_c, 1, 46, 64
7, 19376, Note_on_c, 1, 29, 62
7, 19408, Note_off_c, 1, 29, 64
7, 19440, Note_on_c, 1, 41, 75
7, 19680, Note_on_c, 1, 38, 79
7, 19696, Note_off_c, 1, 41, 64
7, 19840, Note_off_c, 1, 38, 64
7, 19856, Note_on_c, 1, 26, 50
7, 19902, Note_off_c, 1, 26, 64
7, 19920, Note_on_c, 1, 29, 64
7, 20172, Note_off_c, 1, 29, 64
7, 20172, Note_on_c, 1, 34, 83
7, 20336, Note_off_c, 1, 34, 64
7, 20336, Note_on_c, 1, 29, 59
7, 20368, Note_off_c, 1, 29, 64
7, 20400, Note_on_c, 1, 36, 81
7, 20632, Note_off_c, 1, 36, 64
7, 20640, Note_on_c, 1, 38, 82
7, 20816, Note_off_c, 1, 38, 64
7, 20816, Note_on_c, 1, 29, 71
7, 20846, Note_off_c, 1, 29, 64
7, 20880, Note_on_c, 1, 41, 76
7, 21040, Note_off_c, 1, 41, 64
7, 21056, Note_on_c, 1, 29, 59
7, 21080, Note_off_c, 1, 29, 64
7, 21120, Note_on_c, 1, 46, 73
7, 21360, Note_on_c, 1, 34, 67
7, 21398, Note_off_c, 1, 46, 64
7, 21600, Note_on_c, 1, 38, 71
7, 21618, Note_off_c, 1, 34, 64
7, 21840, Note_on_c, 1, 41, 69
7, 21856, Note_off_c, 1, 38, 64
7, 22080, Note_off_c, 1, 41, 64
7, 22080, Note_on_c, 1, 39, 89
7, 22258, Note_on_c, 1, 34, 40
7, 22266, Note_off_c, 1, 39, 64
7, 22320, Note_off_c, 1, 34, 64
7, 22320, Note_on_c, 1, 46, 72
7, 22530, Note_off_c, 1, 46, 64
7, 22560, Note_on_c, 1, 43, 80
7, 22800, Note_off_c, 1, 43, 64
7, 22800, Note_on_c, 1, 39, 82
7, 22902, Note_off_c, 1, 39, 64
7, 22978, Note_on_c, 1, 34, 60
7, 23040, Note_off_c, 1, 34, 64
7, 23040, Note_on_c, 1, 43, 71
7, 23280, Note_on_c, 1, 45, 73
7, 23320, Note_off_c, 1, 43, 64
7, 23520, Note_on_c, 1, 46, 68
7, 23542, Note_off_c, 1, 45, 64
7, 23760, Note_on_c, 1, 50, 69
7, 23800, Note_off_c, 1, 46, 64
7, 24000, Note_off_c, 1, 50, 64
7, 24000, Note_on_c, 1, 48, 73
7, 24240, Note_on_c, 1, 36, 67
7, 24278, Note_off_c, 1, 48, 64
7, 24480, Note_on_c, 1, 40, 71
7, 24498, Note_off_c, 1, 36, 64
7, 24720, Note_on_c, 1, 43, 69
7, 24736, Note_off_c, 1, 40, 64
7, 24960, Note_off_c, 1, 43, 64
7, 24960, Note_on_c, 1, 44, 71
7, 25200, Note_on_c, 1, 46, 73
7, 25240, Note_off_c, 1, 44, 64
7, 25440, Note_on_c, 1, 48, 68
7, 25462, Note_off_c, 1, 46, 64
7, 25680, Note_on_c, 1, 51, 69
7, 25720, Note_off_c, 1, 48, 64
7, 25920, Note_off_c, 1, 51, 64
7, 25920, Note_on_c, 1, 33, 77
7, 26048, Note_off_c, 1, 33, 64
7, 26098, Note_on_c, 1, 33, 70
7, 26160, Note_on_c, 1, 39, 63
7, 26168, Note_off_c, 1, 33, 64
7, 26400, Note_off_c, 1, 39, 64
7, 26400, Note_on_c, 1, 38, 67
7, 26640, Note_off_c, 1, 38, 64
7, 26640, Note_on_c, 1, 44, 74
7, 26880, Note_off_c, 1, 44, 64
7, 26880, Note_on_c, 1, 43, 71
7, 27120, Note_on_c, 1, 45, 73
7, 27160, Note_off_c, 1, 43, 64
7, 27360, Note_on_c, 1, 46, 68
7, 27382, Note_off_c, 1, 45, 64
7, 27600, Note_on_c, 1, 50, 69
7, 27640, Note_off_c, 1, 46, 64
7, 27840, Note_off_c, 1, 50, 64
7, 27840, Note_on_c, 1, 36, 67
7, 28080, Note_off_c, 1, 36, 64
7, 28080, Note_on_c, 1, 37, 74
7, 28320, Note_off_c, 1, 37, 64
7, 28320, Note_on_c, 1, 36, 69
7, 28468, Note_off_c, 1, 36, 64
7, 28496, Note_on_c, 1, 36, 81
7, 28548, Note_off_c, 1, 36, 64
7, 28560, Note_on_c, 1, 40, 62
7, 28800, Note_off_c, 1, 40, 64
7, 28800, Note_on_c, 1, 41, 64
7, 29002, Note_off_c, 1, 41, 64
7, 29040, Note_on_c, 1, 41, 79
7, 29280, Note_off_c, 1, 41, 64
7, 29280, Note_on_c, 1, 36, 31
7, 29280, Note_on_c, 1, 36, 71
7, 29281, Note_off_c, 1, 36, 64
7, 29520, Note_off_c, 1, 36, 64
7, 29520, Note_on_c, 1, 48, 80
7, 29600, Note_on_c, 1, 43, 64
7, 29648, Note_off_c, 1, 48, 64
7, 29680, Note_on_c, 1, 36, 79
7, 29720, Note_off_c, 1, 43, 64
7, 29760, Note_off_c, 1, 36, 64
7, 29760, Note_on_c, 1, 41, 71
7, 30000, Note_on_c, 1, 48, 70
7, 30044, Note_off_c, 1, 41, 64
7, 30240, Note_off_c, 1, 48, 64
7, 30240, Note_on_c, 1, 34, 71
7, 30480, Note_on_c, 1, 41, 70
7, 30524, Note_off_c, 1, 34, 64
7, 30720, Note_off_c, 1, 41, 64
7, 30720, Note_on_c, 1, 39, 68
7, 30960, Note_on_c, 1, 40, 74
7, 30986, Note_off_c, 1, 39, 64
7, 31200, Note_off_c, 1, 40, 64
7, 31200, Note_on_c, 1, 41, 61
7, 31440, Note_on_c, 1, 42, 79
7, 31486, Note_off_c, 1, 41, 64
7, 31674, Note_off_c, 1, 42, 64
7, 31680, Note_on_c, 1, 43, 60
7, 31920, Note_on_c, 1, 44, 76
7, 31922, Note_off_c, 1, 43, 64
7, 32160, Note_on_c, 1, 45, 70
7, 32166, Note_off_c, 1, 44, 64
7, 32400, Note_on_c, 1, 46, 72
7, 32416, Note_off_c, 1, 45, 64
7, 32590, Note_off_c, 1, 46, 64
7, 32640, Note_on_c, 1, 34, 71
7, 32880, Note_on_c, 1, 36, 73
7, 32920, Note_off_c, 1, 34, 64
7, 33120, Note_on_c, 1, 38, 68
7, 33142, Note_off_c, 1, 36, 64
7, 33360, Note_on_c, 1, 41, 69
7, 33400, Note_off_c, 1, 38, 64
7, 33600, Note_off_c, 1, 41, 64
7, 33600, Note_on_c, 1, 39, 76
7, 33840, Note_on_c, 1, 51, 59
7, 33858, Note_off_c, 1, 39, 64
7, 34080, Note_on_c, 1, 46, 71
7, 34108, Note_off_c, 1, 51, 64
7, 34320, Note_on_c, 1, 43, 77
7, 34326, Note_off_c, 1, 46, 64
7, 34560, Note_off_c, 1, 43, 64
7, 34560, Note_on_c, 1, 34, 75
7, 34724, Note_off_c, 1, 34, 64
7, 34736, Note_on_c, 1, 46, 79
7, 34808, Note_off_c, 1, 46, 64
7, 34808, Note_on_c, 1, 41, 74
7, 34976, Note_on_c, 1, 29, 68
7, 34992, Note_off_c, 1, 41, 64
7, 35014, Note_off_c, 1, 29, 64
7, 35040, Note_on_c, 1, 39, 80
7, 35280, Note_on_c, 1, 40, 84
7, 35292, Note_off_c, 1, 39, 64
7, 35456, Note_off_c, 1, 40, 64
7, 35456, Note_on_c, 1, 29, 66
7, 35488, Note_off_c, 1, 29, 64
7, 35520, Note_on_c, 1, 41, 74
7, 35760, Note_on_c, 1, 39, 77
7, 35772, Note_off_c, 1, 41, 64
7, 35922, Note_off_c, 1, 39, 64
7, 35936, Note_on_c, 1, 29, 44
7, 35972, Note_off_c, 1, 29, 64
7, 36000, Note_on_c, 1, 37, 85
7, 36240, Note_off_c, 1, 37, 64
7, 36240, Note_on_c, 1, 36, 72
7, 36400, Note_off_c, 1, 36, 64
7, 36416, Note_on_c, 1, 29, 44
7, 36446, Note_off_c, 1, 29, 64
7, 36480, Note_on_c, 1, 34, 70
7, 36614, Note_off_c, 1, 34, 64
7, 36656, Note_on_c, 1, 22, 77
7, 36708, Note_off_c, 1, 22, 64
7, 36720, Note_on_c, 1, 32, 62
7, 36956, Note_off_c, 1, 32, 64
7, 36960, Note_on_c, 1, 31, 68
7, 37200, Note_on_c, 1, 29, 64
7, 37216, Note_off_c, 1, 31, 64
7, 37376, Note_on_c, 1, 40, 79
7, 37414, Note_off_c, 1, 29, 64
7, 37440, Note_off_c, 1, 40, 64
7, 37440, Note_on_c, 1, 39, 69
7, 37680, Note_on_c, 1, 46, 67
7, 37724, Note_off_c, 1, 39, 64
7, 37920, Note_on_c, 1, 51, 73
7, 37938, Note_off_c, 1, 46, 64
7, 38160, Note_on_c, 1, 46, 84
7, 38170, Note_off_c, 1, 51, 64
7, 38328, Note_on_c, 1, 42, 60
7, 38342, Note_off_c, 1, 46, 64
7, 38400, Note_off_c, 1, 42, 64
7, 38400, Note_on_c, 1, 41, 89
7, 38578, Note_on_c, 1, 35, 40
7, 38586, Note_off_c, 1, 41, 64
7, 38640, Note_off_c, 1, 35, 64
7, 38640, Note_on_c, 1, 47, 72
7, 38850, Note_off_c, 1, 47, 64
7, 38880, Note_on_c, 1, 44, 80
7, 39120, Note_off_c, 1, 44, 64
7, 39120, Note_on_c, 1, 41, 82
7, 39222, Note_off_c, 1, 41, 64
7, 39298, Note_on_c, 1, 35, 60
7, 39360, Note_off_c, 1, 35, 64
7, 39360, Note_on_c, 1, 34, 70
7, 39494, Note_off_c, 1, 34, 64
7, 39536, Note_on_c, 1, 22, 77
7, 39588, Note_off_c, 1, 22, 64
7, 39600, Note_on_c, 1, 32, 62
7, 39836, Note_off_c, 1, 32, 64
7, 39840, Note_on_c, 1, 31, 68
7, 40080, Note_on_c, 1, 29, 64
7, 40096, Note_off_c, 1, 31, 64
7, 40256, Note_on_c, 1, 40, 79
7, 40294, Note_off_c, 1, 29, 64
7, 40320, Note_off_c, 1, 40, 64
7, 40320, Note_on_c, 1, 39, 69
7, 40560, Note_on_c, 1, 46, 67
7, 40604, Note_off_c, 1, 39, 64
7, 40800, Note_on_c, 1, 51, 73
7, 40818, Note_off_c, 1, 46, 64
7, 41040, Note_on_c, 1, 46, 84
7, 41050, Note_off_c, 1, 51, 64
7, 41208, Note_on_c, 1, 43, 60
7, 41222, Note_off_c, 1, 46, 64
7, 41280, Note_off_c, 1, 43, 64
7, 41280, Note_on_c, 1, 42, 76
7, 41520, Note_on_c, 1, 54, 59
7, 41538, Note_off_c, 1, 42, 64
7, 41760, Note_on_c, 1, 48, 71
7, 41788, Note_off_c, 1, 54, 64
7, 42000, Note_on_c, 1, 45, 77
7, 42006, Note_off_c, 1, 48, 64
7, 42240, Note_off_c, 1, 45, 64
7, 42240, Note_on_c, 1, 41, 69
7, 42480, Note_on_c, 1, 48, 67
7, 42524, Note_off_c, 1, 41, 64
7, 42720, Note_on_c, 1, 53, 73
7, 42738, Note_off_c, 1, 48, 64
7, 42960, Note_on_c, 1, 48, 84
7, 42970, Note_off_c, 1, 53, 64
7, 43128, Note_on_c, 1, 35, 60
7, 43142, Note_off_c, 1, 48, 64
7, 43200, Note_off_c, 1, 35, 64
7, 43200, Note_on_c, 1, 34, 71
7, 43440, Note_on_c, 1, 36, 73
7, 43480, Note_off_c, 1, 34, 64
7, 43680, Note_on_c, 1, 38, 68
7, 43702, Note_off_c, 1, 36, 64
7, 43920, Note_on_c, 1, 41, 69
7, 43960, Note_off_c, 1, 38, 64
7, 44160, Note_off_c, 1, 41, 64
7, 44160, Note_on_c, 1, 39, 77
7, 44288, Note_off_c, 1, 39, 64
7, 44338, Note_on_c, 1, 39, 70
7, 44400, Note_on_c, 1, 46, 63
7, 44408, Note_off_c, 1, 39, 64
7, 44640, Note_off_c, 1, 46, 64
7, 44640, Note_on_c, 1, 38, 71
7, 44880, Note_on_c, 1, 46, 70
7, 44924, Note_off_c, 1, 38, 64
7, 45120, Note_off_c, 1, 46, 64
7, 45120, Note_on_c, 1, 37, 84
7, 45296, Note_on_c, 1, 37, 60
7, 45336, Note_off_c, 1, 37, 64
7, 45350, Note_off_c, 1, 37, 64
7, 45360, Note_on_c, 1, 49, 77
7, 45536, Note_off_c, 1, 49, 64
7, 45536, Note_on_c, 1, 37, 62
7, 45570, Note_off_c, 1, 37, 64
7, 45600, Note_on_c, 1, 36, 84
7, 45776, Note_on_c, 1, 31, 60
7, 45816, Note_off_c, 1, 31, 64
7, 45830, Note_off_c, 1, 36, 64
7, 45840, Note_on_c, 1, 43, 77
7, 46016, Note_off_c, 1, 43, 64
7, 46016, Note_on_c, 1, 31, 62
7, 46050, Note_off_c, 1, 31, 64
7, 46080, Note_on_c, 1, 41, 69
7, 46320, Note_off_c, 1, 41, 64
7, 46320, Note_on_c, 1, 48, 68
7, 46562, Note_off_c, 1, 48, 64
7, 46562, Note_on_c, 1, 44, 63
7, 46804, Note_off_c, 1, 44, 64
7, 46804, Note_on_c, 1, 41, 81
7, 47040, Note_off_c, 1, 41, 64
7, 47040, Note_on_c, 1, 34, 69
7, 47280, Note_on_c, 1, 41, 67
7, 47324, Note_off_c, 1, 34, 64
7, 47520, Note_on_c, 1, 46, 73
7, 47538, Note_off_c, 1, 41, 64
7, 47760, Note_on_c, 1, 41, 84
7, 47770, Note_off_c, 1, 46, 64
7, 47928, Note_on_c, 1, 35, 60
7, 47942, Note_off_c, 1, 41, 64
7, 48000, Note_off_c, 1, 35, 64
7, 48000, Note_on_c, 1, 34, 70
7, 48134, Note_off_c, 1, 34, 64
7, 48176, Note_on_c, 1, 22, 77
7, 48228, Note_off_c, 1, 22, 64
7, 48240, Note_on_c, 1, 32, 62
7, 48476, Note_off_c, 1, 32, 64
7, 48480, Note_on_c, 1, 31, 68
7, 48720, Note_on_c, 1, 29, 64
7, 48736, Note_off_c, 1, 31, 64
7, 48896, Note_on_c, 1, 40, 79
7, 48934, Note_off_c, 1, 29, 64
7, 48960, Note_off_c, 1, 40, 64
7, 48960, Note_on_c, 1, 39, 78
7, 49136, Note_on_c, 1, 34, 57
7, 49144, Note_off_c, 1, 39, 64
7, 49174, Note_off_c, 1, 34, 64
7, 49200, Note_on_c, 1, 41, 76
7, 49438, Note_off_c, 1, 41, 64
7, 49440, Note_on_c, 1, 43, 83
7, 49596, Note_off_c, 1, 43, 64
7, 49616, Note_on_c, 1, 34, 61
7, 49652, Note_off_c, 1, 34, 64
7, 49680, Note_on_c, 1, 46, 85
7, 49840, Note_off_c, 1, 46, 64
7, 49856, Note_on_c, 1, 34, 54
7, 49876, Note_off_c, 1, 34, 64
7, 49920, Note_on_c, 1, 34, 77
7, 50160, Note_on_c, 1, 36, 71
7, 50188, Note_off_c, 1, 34, 64
7, 50400, Note_on_c, 1, 38, 73
7, 50422, Note_off_c, 1, 36, 64
7, 50640, Note_off_c, 1, 38, 64
7, 50640, Note_on_c, 1, 41, 74
7, 50880, Note_on_c, 1, 46, 65
7, 50902, Note_off_c, 1, 41, 64
7, 51120, Note_on_c, 1, 41, 58
7, 51132, Note_off_c, 1, 46, 64
7, 51360, Note_on_c, 1, 38, 71
7, 51378, Note_off_c, 1, 41, 64
7, 51600, Note_on_c, 1, 34, 74
7, 51602, Note_off_c, 1, 38, 64
7, 51814, Note_off_c, 1, 34, 64
7, 51840, Note_on_c, 1, 34, 85
7, 51928, Note_off_c, 1, 34, 64
7, 52018, Note_on_c, 1, 34, 73
7, 52080, Note_on_c, 1, 36, 64
7, 52122, Note_off_c, 1, 34, 64
7, 52320, Note_off_c, 1, 36, 64
7, 52320, Note_on_c, 1, 38, 75
7, 52558, Note_off_c, 1, 38, 64
7, 52560, Note_on_c, 1, 41, 67
7, 52800, Note_off_c, 1, 41, 64
7, 52800, Note_on_c, 1, 39, 69
7, 53040, Note_off_c, 1, 39, 64
7, 53040, Note_on_c, 1, 46, 68
7, 53282, Note_off_c, 1, 46, 64
7, 53282, Note_on_c, 1, 43, 63
7, 53524, Note_off_c, 1, 43, 64
7, 53524, Note_on_c, 1, 39, 81
7, 53760, Note_off_c, 1, 39, 64
7, 53760, Note_on_c, 1, 43, 74
7, 53918, Note_off_c, 1, 43, 64
7, 53936, Note_on_c, 1, 31, 82
7, 53982, Note_off_c, 1, 31, 64
7, 54000, Note_on_c, 1, 45, 74
7, 54238, Note_off_c, 1, 45, 64
7, 54240, Note_on_c, 1, 46, 54
7, 54480, Note_off_c, 1, 46, 64
7, 54480, Note_on_c, 1, 50, 67
7, 54648, Note_off_c, 1, 50, 64
7, 54656, Note_on_c, 1, 43, 72
7, 54720, Note_off_c, 1, 43, 64
7, 54720, Note_on_c, 1, 36, 78
7, 54896, Note_on_c, 1, 31, 57
7, 54904, Note_off_c, 1, 36, 64
7, 54934, Note_off_c, 1, 31, 64
7, 54960, Note_on_c, 1, 38, 76
7, 55198, Note_off_c, 1, 38, 64
7, 55200, Note_on_c, 1, 40, 83
7, 55356, Note_off_c, 1, 40, 64
7, 55376, Note_on_c, 1, 31, 61
7, 55412, Note_off_c, 1, 31, 64
7, 55440, Note_on_c, 1, 43, 85
7, 55600, Note_off_c, 1, 43, 64
7, 55616, Note_on_c, 1, 31, 54
7, 55636, Note_off_c, 1, 31, 64
7, 55680, Note_on_c, 1, 44, 76
7, 55920, Note_on_c, 1, 56, 59
7, 55938, Note_off_c, 1, 44, 64
7, 56160, Note_on_c, 1, 51, 71
7, 56188, Note_off_c, 1, 56, 64
7, 56400, Note_on_c, 1, 48, 77
7, 56406, Note_off_c, 1, 51, 64
7, 56640, Note_off_c, 1, 48, 64
7, 56640, Note_on_c, 1, 33, 69
7, 56788, Note_off_c, 1, 33, 64
7, 56816, Note_on_c, 1, 33, 81
7, 56868, Note_off_c, 1, 33, 64
7, 56880, Note_on_c, 1, 37, 62
7, 57120, Note_off_c, 1, 37, 64
7, 57120, Note_on_c, 1, 38, 77
7, 57248, Note_off_c, 1, 38, 64
7, 57298, Note_on_c, 1, 38, 70
7, 57360, Note_on_c, 1, 45, 63
7, 57368, Note_off_c, 1, 38, 64
7, 57600, Note_off_c, 1, 45, 64
7, 57600, Note_on_c, 1, 43, 89
7, 57778, Note_on_c, 1, 38, 40
7, 57786, Note_off_c, 1, 43, 64
7, 57840, Note_off_c, 1, 38, 64
7, 57840, Note_on_c, 1, 50, 72
7, 58050, Note_off_c, 1, 50, 64
7, 58080, Note_on_c, 1, 46, 80
7, 58320, Note_off_c, 1, 46, 64
7, 58320, Note_on_c, 1, 43, 82
7, 58422, Note_off_c, 1, 43, 64
7, 58498, Note_on_c, 1, 38, 60
7, 58560, Note_off_c, 1, 38, 64
7, 58560, Note_on_c, 1, 36, 72
7, 58736, Note_on_c, 1, 24, 65
7, 58742, Note_off_c, 1, 36, 64
7, 58798, Note_off_c, 1, 24, 64
7, 58800, Note_on_c, 1, 36, 74
7, 59038, Note_off_c, 1, 36, 64
7, 59040, Note_on_c, 1, 36, 73
7, 59268, Note_off_c, 1, 36, 64
7, 59280, Note_on_c, 1, 40, 67
7, 59520, Note_off_c, 1, 40, 64
7, 59520, Note_on_c, 1, 41, 72
7, 59696, Note_on_c, 1, 29, 65
7, 59702, Note_off_c, 1, 41, 64
7, 59758, Note_off_c, 1, 29, 64
7, 59760, Note_on_c, 1, 41, 74
7, 59998, Note_off_c, 1, 41, 64
7, 60000, Note_on_c, 1, 36, 67
7, 60240, Note_off_c, 1, 36, 64
7, 60240, Note_on_c, 1, 36, 74
7, 60480, Note_off_c, 1, 36, 64
7, 60480, Note_on_c, 1, 41, 72
7, 60656, Note_on_c, 1, 29, 65
7, 60662, Note_off_c, 1, 41, 64
7, 60718, Note_off_c, 1, 29, 64
7, 60720, Note_on_c, 1, 41, 74
7, 60958, Note_off_c, 1, 41, 64
7, 60960, Note_on_c, 1, 46, 71
7, 61200, Note_on_c, 1, 41, 70
7, 61230, Note_off_c, 1, 46, 64
7, 61440, Note_off_c, 1, 41, 64
7, 61440, Note_on_c, 1, 39, 68
7, 61680, Note_on_c, 1, 40, 74
7, 61706, Note_off_c, 1, 39, 64
7, 61920, Note_off_c, 1, 40, 64
7, 61920, Note_on_c, 1, 41, 61
7, 62160, Note_on_c, 1, 42, 79
7, 62206, Note_off_c, 1, 41, 64
7, 62394, Note_off_c, 1, 42, 64
7, 62400, Note_on_c, 1, 43, 60
7, 62640, Note_on_c, 1, 44, 76
7, 62642, Note_off_c, 1, 43, 64
7, 62880, Note_on_c, 1, 45, 70
7, 62886, Note_off_c, 1, 44, 64
7, 63120, Note_on_c, 1, 46, 72
7, 63136, Note_off_c, 1, 45, 64
7, 63310, Note_off_c, 1, 46, 64
7, 63360, Note_on_c, 1, 34, 76
7, 63840, Note_on_c, 1, 41, 61
7, 63868, Note_off_c, 1, 34, 64
7, 64320, Note_off_c, 1, 41, 64
7, 64320, Note_on_c, 1, 39, 72
7, 64722, Note_off_c, 1, 39, 64
7, 64722, Note_on_c, 1, 46, 82
7, 64800, Note_on_c, 1, 51, 74
7, 64832, Note_off_c, 1, 46, 64
7, 64912, Note_off_c, 1, 51, 64
7, 64960, Note_on_c, 1, 46, 100
7, 65040, Note_on_c, 1, 39, 89
7, 65058, Note_off_c, 1, 46, 64
7, 65266, Note_off_c, 1, 39, 64
7, 65280, Note_on_c, 1, 34, 68
7, 65750, Note_off_c, 1, 34, 64
7, 65760, Note_on_c, 1, 41, 81
7, 66224, Note_off_c, 1, 41, 64
7, 66240, Note_on_c, 1, 34, 60
7, 66648, Note_on_c, 1, 22, 56
7, 66688, Note_off_c, 1, 22, 64
7, 66688, Note_off_c, 1, 34, 64
7, 66720, Note_on_c, 1, 41, 88
7, 67172, Note_off_c, 1, 41, 64
7, 67200, Note_on_c, 1, 34, 78
7, 67670, Note_off_c, 1, 34, 64
7, 67680, Note_on_c, 1, 41, 82
7, 68096, Note_on_c, 1, 22, 60
7, 68110, Note_off_c, 1, 41, 64
7, 68118, Note_off_c, 1, 22, 64
7, 68160, Note_on_c, 1, 39, 76
7, 68640, Note_on_c, 1, 46, 61
7, 68668, Note_off_c, 1, 39, 64
7, 69120, Note_off_c, 1, 46, 64
7, 69120, Note_on_c, 1, 41, 76
7, 69466, Note_off_c, 1, 41, 64
7, 69536, Note_on_c, 1, 41, 84
7, 69600, Note_on_c, 1, 35, 68
7, 69636, Note_off_c, 1, 41, 64
7, 69936, Note_off_c, 1, 35, 64
7, 70016, Note_on_c, 1, 35, 65
7, 70070, Note_off_c, 1, 35, 64
7, 70080, Note_on_c, 1, 34, 78
7, 70550, Note_off_c, 1, 34, 64
7, 70560, Note_on_c, 1, 41, 82
7, 70976, Note_on_c, 1, 22, 60
7, 70990, Note_off_c, 1, 41, 64
7, 70998, Note_off_c, 1, 22, 64
7, 71040, Note_on_c, 1, 39, 82
7, 71520, Note_on_c, 1, 46, 85
7, 71538, Note_off_c, 1, 39, 64
7, 71936, Note_off_c, 1, 46, 64
7, 71936, Note_on_c, 1, 39, 82
7, 71980, Note_off_c, 1, 39, 64
7, 72000, Note_on_c, 1, 42, 85
7, 72480, Note_off_c, 1, 42, 64
7, 72480, Note_on_c, 1, 36, 85
7, 72852, Note_off_c, 1, 36, 64
7, 72896, Note_on_c, 1, 42, 80
7, 72960, Note_off_c, 1, 42, 64
7, 72960, Note_on_c, 1, 41, 78
7, 73430, Note_off_c, 1, 41, 64
7, 73440, Note_on_c, 1, 36, 82
7, 73856, Note_on_c, 1, 29, 60
7, 73870, Note_off_c, 1, 36, 64
7, 73878, Note_off_c, 1, 29, 64
7, 73920, Note_on_c, 1, 34, 89
7, 74414, Note_off_c, 1, 34, 64
7, 74414, Note_on_c, 1, 41, 82
7, 74836, Note_off_c, 1, 41, 64
7, 74880, Note_on_c, 1, 39, 70
7, 75360, Note_off_c, 1, 39, 64
7, 75360, Note_on_c, 1, 38, 80
7, 75748, Note_off_c, 1, 38, 64
7, 75776, Note_on_c, 1, 42, 81
7, 75840, Note_off_c, 1, 42, 64
7, 75840, Note_on_c, 1, 37, 85
7, 76240, Note_off_c, 1, 37, 64
7, 76240, Note_on_c, 1, 25, 55
7, 76278, Note_off_c, 1, 25, 64
7, 76320, Note_on_c, 1, 36, 81
7, 76446, Note_off_c, 1, 36, 64
7, 76496, Note_on_c, 1, 36, 71
7, 76560, Note_on_c, 1, 43, 73
7, 76576, Note_off_c, 1, 36, 64
7, 76800, Note_off_c, 1, 43, 64
7, 76800, Note_on_c, 1, 41, 78
7, 77270, Note_off_c, 1, 41, 64
7, 77280, Note_on_c, 1, 36, 82
7, 77696, Note_on_c, 1, 29, 60
7, 77710, Note_off_c, 1, 36, 64
7, 77718, Note_off_c, 1, 29, 64
7, 77760, Note_on_c, 1, 34, 78
7, 78000, Note_on_c, 1, 36, 80
7, 78040, Note_off_c, 1, 34, 64
7, 78240, Note_on_c, 1, 38, 75
7, 78262, Note_off_c, 1, 36, 64
7, 78480, Note_on_c, 1, 41, 76
7, 78520, Note_off_c, 1, 38, 64
7, 78720, Note_off_c, 1, 41, 64
7, 78720, Note_on_c, 1, 34, 70
7, 78854, Note_off_c, 1, 34, 64
7, 78896, Note_on_c, 1, 22, 77
7, 78948, Note_off_c, 1, 22, 64
7, 78960, Note_on_c, 1, 32, 62
7, 79196, Note_off_c, 1, 32, 64
7, 79200, Note_on_c, 1, 31, 68
7, 79440, Note_on_c, 1, 29, 64
7, 79456, Note_off_c, 1, 31, 64
7, 79616, Note_on_c, 1, 40, 79
7, 79654, Note_off_c, 1, 29, 64
7, 79680, Note_off_c, 1, 40, 64
7, 79680, Note_on_c, 1, 39, 69
7, 79920, Note_off_c, 1, 39, 64
7, 79920, Note_on_c, 1, 46, 68
7, 80162, Note_off_c, 1, 46, 64
7, 80162, Note_on_c, 1, 43, 63
7, 80404, Note_off_c, 1, 43, 64
7, 80404, Note_on_c, 1, 39, 81
7, 80640, Note_off_c, 1, 39, 64
7, 80640, Note_on_c, 1, 46, 79
7, 80840, Note_off_c, 1, 46, 64
7, 80880, Note_on_c, 1, 46, 83
7, 81120, Note_on_c, 1, 41, 76
7, 81148, Note_off_c, 1, 46, 64
7, 81360, Note_on_c, 1, 29, 68
7, 81380, Note_off_c, 1, 41, 64
7, 81600, Note_off_c, 1, 29, 64
7, 81600, Note_on_c, 1, 34, 62
7, 81840, Note_off_c, 1, 34, 64
7, 81840, Note_on_c, 1, 36, 75
7, 81968, Note_off_c, 1, 36, 64
7, 82016, Note_on_c, 1, 36, 76
7, 82084, Note_off_c, 1, 36, 64
7, 82084, Note_on_c, 1, 38, 60
7, 82312, Note_off_c, 1, 38, 64
7, 82320, Note_on_c, 1, 41, 69
7, 82548, Note_off_c, 1, 41, 64
7, 82560, Note_on_c, 1, 34, 76
7, 82800, Note_on_c, 1, 46, 59
7, 82818, Note_off_c, 1, 34, 64
7, 83040, Note_on_c, 1, 41, 71
7, 83068, Note_off_c, 1, 46, 64
7, 83280, Note_on_c, 1, 38, 77
7, 83286, Note_off_c, 1, 41, 64
7, 83520, Note_off_c, 1, 38, 64
7, 83520, Note_on_c, 1, 39, 76
7, 83760, Note_on_c, 1, 51, 59
7, 83778, Note_off_c, 1, 39, 64
7, 84000, Note_on_c, 1, 46, 71
7, 84028, Note_off_c, 1, 51, 64
7, 84240, Note_on_c, 1, 43, 77
7, 84246, Note_off_c, 1, 46, 64
7, 84480, Note_off_c, 1, 43, 64
7, 84480, Note_on_c, 1, 43, 76
7, 84720, Note_off_c, 1, 43, 64
7, 84720, Note_on_c, 1, 45, 76
7, 84946, Note_off_c, 1, 45, 64
7, 84960, Note_on_c, 1, 46, 66
7, 85200, Note_off_c, 1, 46, 64
7, 85200, Note_on_c, 1, 50, 69
7, 85370, Note_off_c, 1, 50, 64
7, 85370, Note_on_c, 1, 43, 66
7, 85440, Note_off_c, 1, 43, 64
7, 85440, Note_on_c, 1, 36, 76
7, 85680, Note_on_c, 1, 48, 59
7, 85698, Note_off_c, 1, 36, 64
7, 85920, Note_on_c, 1, 43, 71
7, 85948, Note_off_c, 1, 48, 64
7, 86160, Note_on_c, 1, 40, 77
7, 86166, Note_off_c, 1, 43, 64
7, 86400, Note_off_c, 1, 40, 64
7, 86400, Note_on_c, 1, 44, 78
7, 86576, Note_on_c, 1, 39, 57
7, 86584, Note_off_c, 1, 44, 64
7, 86614, Note_off_c, 1, 39, 64
7, 86640, Note_on_c, 1, 46, 76
7, 86878, Note_off_c, 1, 46, 64
7, 86880, Note_on_c, 1, 48, 83
7, 87036, Note_off_c, 1, 48, 64
7, 87056, Note_on_c, 1, 39, 61
7, 87092, Note_off_c, 1, 39, 64
7, 87120, Note_on_c, 1, 51, 85
7, 87280, Note_off_c, 1, 51, 64
7, 87296, Note_on_c, 1, 39, 54
7, 87316, Note_off_c, 1, 39, 64
7, 87360, Note_on_c, 1, 33, 72
7, 87536, Note_on_c, 1, 21, 65
7, 87542, Note_off_c, 1, 33, 64
7, 87598, Note_off_c, 1, 21, 64
7, 87600, Note_on_c, 1, 33, 74
7, 87838, Note_off_c, 1, 33, 64
7, 87840, Note_on_c, 1, 50, 68
7, 87916, Note_off_c, 1, 50, 64
7, 88022, Note_on_c, 1, 50, 54
7, 88090, Note_on_c, 1, 45, 75
7, 88098, Note_off_c, 1, 50, 64
7, 88320, Note_off_c, 1, 45, 64
7, 88320, Note_on_c, 1, 43, 69
7, 88560, Note_on_c, 1, 50, 67
7, 88604, Note_off_c, 1, 43, 64
7, 88800, Note_on_c, 1, 55, 73
7, 88818, Note_off_c, 1, 50, 64
7, 89040, Note_on_c, 1, 50, 84
7, 89050, Note_off_c, 1, 55, 64
7, 89208, Note_on_c, 1, 37, 60
7, 89222, Note_off_c, 1, 50, 64
7, 89280, Note_off_c, 1, 37, 64
7, 89280, Note_on_c, 1, 36, 69
7, 89428, Note_off_c, 1, 36, 64
7, 89456, Note_on_c, 1, 36, 81
7, 89508, Note_off_c, 1, 36, 64
7, 89520, Note_on_c, 1, 35, 62
7, 89760, Note_off_c, 1, 35, 64
7, 89760, Note_on_c, 1, 36, 72
7, 90000, Note_on_c, 1, 40, 69
7, 90030, Note_off_c, 1, 36, 64
7, 90218, Note_off_c, 1, 40, 64
7, 90240, Note_on_c, 1, 41, 73
7, 90468, Note_off_c, 1, 41, 64
7, 90480, Note_on_c, 1, 35, 67
7, 90720, Note_off_c, 1, 35, 64
7, 90720, Note_on_c, 1, 36, 72
7, 90960, Note_on_c, 1, 40, 69
7, 90990, Note_off_c, 1, 36, 64
7, 91178, Note_off_c, 1, 40, 64
7, 91200, Note_on_c, 1, 41, 67
7, 91440, Note_off_c, 1, 41, 64
7, 91440, Note_on_c, 1, 35, 74
7, 91680, Note_off_c, 1, 35, 64
7, 91680, Note_on_c, 1, 34, 67
7, 91920, Note_off_c, 1, 34, 64
7, 91920, Note_on_c, 1, 34, 74
7, 92160, Note_off_c, 1, 34, 64
7, 92160, Note_on_c, 1, 39, 69
7, 92400, Note_on_c, 1, 46, 67
7, 92444, Note_off_c, 1, 39, 64
7, 92640, Note_on_c, 1, 51, 73
7, 92658, Note_off_c, 1, 46, 64
7, 92880, Note_on_c, 1, 46, 84
7, 92890, Note_off_c, 1, 51, 64
7, 93048, Note_on_c, 1, 40, 60
7, 93062, Note_off_c, 1, 46, 64
7, 93120, Note_off_c, 1, 40, 64
7, 93120, Note_on_c, 1, 39, 78
7, 93296, Note_on_c, 1, 34, 57
7, 93304, Note_off_c, 1, 39, 64
7, 93334, Note_off_c, 1, 34, 64
7, 93360, Note_on_c, 1, 41, 76
7, 93598, Note_off_c, 1, 41, 64
7, 93600, Note_on_c, 1, 43, 83
7, 93756, Note_off_c, 1, 43, 64
7, 93776, Note_on_c, 1, 34, 61
7, 93812, Note_off_c, 1, 34, 64
7, 93840, Note_on_c, 1, 46, 85
7, 94000, Note_off_c, 1, 46, 64
7, 94016, Note_on_c, 1, 34, 54
7, 94036, Note_off_c, 1, 34, 64
7, 94080, Note_on_c, 1, 39, 80
7, 94166, Note_off_c, 1, 39, 64
7, 94256, Note_on_c, 1, 39, 82
7, 94320, Note_on_c, 1, 43, 74
7, 94350, Note_off_c, 1, 39, 64
7, 94560, Note_on_c, 1, 44, 68
7, 94564, Note_off_c, 1, 43, 64
7, 94800, Note_on_c, 1, 45, 72
7, 94834, Note_off_c, 1, 44, 64
7, 95040, Note_on_c, 1, 46, 74
7, 95062, Note_off_c, 1, 45, 64
7, 95204, Note_off_c, 1, 46, 64
7, 95280, Note_on_c, 1, 46, 72
7, 95402, Note_off_c, 1, 46, 64
7, 95456, Note_on_c, 1, 39, 93
7, 95996, Note_off_c, 1, 39, 64
7, 95996, End_track
8, 0, Start_track
8, 0, Title_t, "Piano / Acoustic piano"
8, 0, Program_c, 2, 0
8, 0, Control_c, 2, 7, 90
8, 0, Control_c, 2, 121, 0
8, 0, Control_c, 2, 10, 64
8, 0, Control_c, 2, 123, 0
8, 0, Control_c, 2, 91, 40
8, 0, Control_c, 2, 93, 0
8, 0, Control_c, 2, 64, 0
8, 1932, Note_on_c, 2, 89, 45
8, 1934, Note_on_c, 2, 56, 32
8, 1934, Note_on_c, 2, 77, 35
8, 1936, Note_on_c, 2, 83, 36
8, 1938, Note_on_c, 2, 50, 52
8, 1978, Note_off_c, 2, 83, 64
8, 1994, Note_on_c, 2, 83, 46
8, 2008, Note_off_c, 2, 77, 64
8, 2050, Note_off_c, 2, 50, 64
8, 2050, Note_off_c, 2, 56, 64
8, 2058, Note_off_c, 2, 89, 64
8, 2078, Note_off_c, 2, 83, 64
8, 2108, Note_on_c, 2, 89, 55
8, 2114, Note_on_c, 2, 83, 74
8, 2116, Note_on_c, 2, 56, 59
8, 2116, Note_on_c, 2, 77, 55
8, 2120, Note_on_c, 2, 50, 60
8, 2158, Note_off_c, 2, 83, 64
8, 2168, Note_off_c, 2, 77, 64
8, 2172, Note_off_c, 2, 50, 64
8, 2172, Note_off_c, 2, 56, 64
8, 2184, Note_off_c, 2, 89, 64
8, 3066, Note_on_c, 2, 83, 104
8, 3112, Note_off_c, 2, 83, 64
8, 3148, Note_on_c, 2, 84, 73
8, 3216, Note_off_c, 2, 84, 64
8, 3314, Note_on_c, 2, 78, 70
8, 3348, Note_off_c, 2, 78, 64
8, 3384, Note_on_c, 2, 72, 49
8, 3448, Note_off_c, 2, 72, 64
8, 3552, Note_on_c, 2, 66, 89
8, 3602, Note_off_c, 2, 66, 64
8, 3616, Note_on_c, 2, 60, 52
8, 3764, Note_off_c, 2, 60, 64
8, 3858, Note_on_c, 2, 59, 45
8, 3862, Note_on_c, 2, 65, 63
8, 3862, Note_on_c, 2, 61, 68
8, 3902, Note_off_c, 2, 59, 64
8, 3902, Note_on_c, 2, 62, 54
8, 3932, Note_off_c, 2, 61, 64
8, 3992, Note_off_c, 2, 65, 64
8, 4000, Note_off_c, 2, 62, 64
8, 4016, Note_on_c, 2, 53, 73
8, 4980, Note_off_c, 2, 53, 64
8, 5948, Note_on_c, 2, 77, 82
8, 6030, Note_off_c, 2, 77, 64
8, 6166, Note_on_c, 2, 71, 49
8, 6224, Note_off_c, 2, 71, 64
8, 6240, Note_on_c, 2, 77, 68
8, 6390, Note_off_c, 2, 77, 64
8, 6670, Note_on_c, 2, 71, 47
8, 6720, Note_off_c, 2, 71, 64
8, 6732, Note_on_c, 2, 70, 52
8, 6858, Note_off_c, 2, 70, 64
8, 6916, Note_on_c, 2, 58, 56
8, 7176, Note_off_c, 2, 58, 64
8, 7214, Note_on_c, 2, 69, 75
8, 7214, Note_on_c, 2, 78, 79
8, 7228, Note_on_c, 2, 72, 20
8, 7266, Note_off_c, 2, 69, 64
8, 7280, Note_off_c, 2, 72, 64
8, 7316, Note_off_c, 2, 78, 64
8, 7366, Note_on_c, 2, 72, 39
8, 7394, Note_off_c, 2, 72, 64
8, 7394, Note_on_c, 2, 69, 59
8, 7414, Note_off_c, 2, 69, 64
8, 7456, Note_on_c, 2, 68, 63
8, 7458, Note_on_c, 2, 77, 62
8, 7458, Note_on_c, 2, 71, 69
8, 7582, Note_off_c, 2, 77, 64
8, 7590, Note_off_c, 2, 71, 64
8, 7596, Note_off_c, 2, 68, 64
8, 7644, Note_on_c, 2, 58, 44
8, 7670, Note_off_c, 2, 58, 64
8, 7686, Note_on_c, 2, 41, 38
8, 7688, Note_on_c, 2, 56, 51
8, 7690, Note_on_c, 2, 53, 48
8, 7698, Note_on_c, 2, 63, 51
8, 7720, Note_off_c, 2, 41, 64
8, 7730, Note_off_c, 2, 56, 64
8, 7732, Note_off_c, 2, 63, 64
8, 7736, Note_off_c, 2, 53, 64
8, 8642, Note_on_c, 2, 50, 40
8, 8642, Note_on_c, 2, 62, 49
8, 8652, Note_on_c, 2, 34, 45
8, 8654, Note_on_c, 2, 56, 46
8, 8656, Note_on_c, 2, 53, 50
8, 8688, Note_off_c, 2, 56, 64
8, 8698, Note_off_c, 2, 53, 64
8, 8702, Note_off_c, 2, 34, 64
8, 8702, Note_off_c, 2, 62, 64
8, 8702, Note_off_c, 2, 50, 64
8, 9128, Note_on_c, 2, 74, 72
8, 9128, Note_on_c, 2, 77, 73
8, 9136, Note_on_c, 2, 72, 73
8, 9136, Note_on_c, 2, 84, 75
8, 9138, Note_on_c, 2, 68, 54
8, 9160, Note_off_c, 2, 72, 64
8, 9160, Note_off_c, 2, 74, 64
8, 9168, Note_off_c, 2, 84, 64
8, 9172, Note_off_c, 2, 68, 64
8, 9172, Note_off_c, 2, 77, 64
8, 9786, Note_on_c, 2, 83, 104
8, 9832, Note_off_c, 2, 83, 64
8, 9868, Note_on_c, 2, 84, 73
8, 9936, Note_off_c, 2, 84, 64
8, 10034, Note_on_c, 2, 78, 70
8, 10068, Note_off_c, 2, 78, 64
8, 10104, Note_on_c, 2, 72, 49
8, 10168, Note_off_c, 2, 72, 64
8, 10272, Note_on_c, 2, 66, 89
8, 10322, Note_off_c, 2, 66, 64
8, 10336, Note_on_c, 2, 60, 52
8, 10484, Note_off_c, 2, 60, 64
8, 10572, Note_on_c, 2, 90, 45
8, 10574, Note_on_c, 2, 57, 32
8, 10574, Note_on_c, 2, 78, 35
8, 10576, Note_on_c, 2, 86, 36
8, 10578, Note_on_c, 2, 51, 52
8, 10618, Note_off_c, 2, 86, 64
8, 10634, Note_on_c, 2, 86, 46
8, 10648, Note_off_c, 2, 78, 64
8, 10690, Note_off_c, 2, 51, 64
8, 10690, Note_off_c, 2, 57, 64
8, 10698, Note_off_c, 2, 90, 64
8, 10718, Note_off_c, 2, 86, 64
8, 10748, Note_on_c, 2, 90, 55
8, 10754, Note_on_c, 2, 86, 74
8, 10756, Note_on_c, 2, 57, 59
8, 10756, Note_on_c, 2, 78, 55
8, 10760, Note_on_c, 2, 51, 60
8, 10798, Note_off_c, 2, 86, 64
8, 10808, Note_off_c, 2, 78, 64
8, 10812, Note_off_c, 2, 51, 64
8, 10812, Note_off_c, 2, 57, 64
8, 10824, Note_off_c, 2, 90, 64
8, 11706, Note_on_c, 2, 84, 76
8, 11768, Note_off_c, 2, 84, 64
8, 11778, Note_on_c, 2, 77, 26
8, 11868, Note_off_c, 2, 77, 64
8, 12016, Note_on_c, 2, 65, 56
8, 12022, Note_on_c, 2, 84, 63
8, 12022, Note_on_c, 2, 68, 58
8, 12022, Note_on_c, 2, 75, 67
8, 12060, Note_off_c, 2, 75, 64
8, 12068, Note_off_c, 2, 65, 64
8, 12074, Note_off_c, 2, 68, 64
8, 12080, Note_off_c, 2, 84, 64
8, 12492, Note_on_c, 2, 89, 45
8, 12494, Note_on_c, 2, 56, 32
8, 12494, Note_on_c, 2, 77, 35
8, 12496, Note_on_c, 2, 83, 36
8, 12498, Note_on_c, 2, 50, 52
8, 12538, Note_off_c, 2, 83, 64
8, 12554, Note_on_c, 2, 84, 46
8, 12568, Note_off_c, 2, 77, 64
8, 12610, Note_off_c, 2, 50, 64
8, 12610, Note_off_c, 2, 56, 64
8, 12618, Note_off_c, 2, 89, 64
8, 12638, Note_off_c, 2, 84, 64
8, 12668, Note_on_c, 2, 89, 55
8, 12674, Note_on_c, 2, 84, 74
8, 12676, Note_on_c, 2, 56, 59
8, 12676, Note_on_c, 2, 77, 55
8, 12680, Note_on_c, 2, 50, 60
8, 12718, Note_off_c, 2, 84, 64
8, 12728, Note_off_c, 2, 77, 64
8, 12732, Note_off_c, 2, 50, 64
8, 12732, Note_off_c, 2, 56, 64
8, 12744, Note_off_c, 2, 89, 64
8, 13448, Note_on_c, 2, 77, 87
8, 13448, Note_on_c, 2, 74, 90
8, 13452, Note_on_c, 2, 46, 74
8, 13568, Note_off_c, 2, 46, 64
8, 13582, Note_off_c, 2, 77, 64
8, 13584, Note_off_c, 2, 74, 64
8, 13630, Note_on_c, 2, 74, 43
8, 13636, Note_on_c, 2, 77, 43
8, 13636, Note_on_c, 2, 46, 42
8, 13658, Note_off_c, 2, 74, 64
8, 13668, Note_off_c, 2, 77, 64
8, 13672, Note_off_c, 2, 46, 64
8, 13932, Note_on_c, 2, 70, 52
8, 14058, Note_off_c, 2, 70, 64
8, 14116, Note_on_c, 2, 58, 56
8, 14376, Note_off_c, 2, 58, 64
8, 14598, Note_on_c, 2, 37, 43
8, 14616, Note_off_c, 2, 37, 64
8, 14660, Note_on_c, 2, 70, 55
8, 14696, Note_off_c, 2, 70, 64
8, 14702, Note_on_c, 2, 77, 52
8, 14756, Note_on_c, 2, 70, 43
8, 14810, Note_off_c, 2, 77, 64
8, 14822, Note_on_c, 2, 65, 55
8, 14830, Note_off_c, 2, 70, 64
8, 14880, Note_off_c, 2, 65, 64
8, 14892, Note_on_c, 2, 91, 45
8, 14894, Note_on_c, 2, 58, 32
8, 14894, Note_on_c, 2, 79, 35
8, 14896, Note_on_c, 2, 85, 31
8, 14898, Note_on_c, 2, 52, 52
8, 14938, Note_off_c, 2, 85, 64
8, 14954, Note_on_c, 2, 86, 55
8, 14968, Note_off_c, 2, 79, 64
8, 15010, Note_off_c, 2, 52, 64
8, 15010, Note_off_c, 2, 58, 64
8, 15018, Note_off_c, 2, 91, 64
8, 15038, Note_off_c, 2, 86, 64
8, 15068, Note_on_c, 2, 91, 55
8, 15074, Note_on_c, 2, 86, 74
8, 15076, Note_on_c, 2, 58, 59
8, 15076, Note_on_c, 2, 79, 55
8, 15080, Note_on_c, 2, 52, 60
8, 15118, Note_off_c, 2, 86, 64
8, 15128, Note_off_c, 2, 79, 64
8, 15132, Note_off_c, 2, 52, 64
8, 15132, Note_off_c, 2, 58, 64
8, 15144, Note_off_c, 2, 91, 64
8, 15548, Note_on_c, 2, 77, 82
8, 15630, Note_off_c, 2, 77, 64
8, 15766, Note_on_c, 2, 72, 49
8, 15824, Note_off_c, 2, 72, 64
8, 15840, Note_on_c, 2, 77, 68
8, 15990, Note_off_c, 2, 77, 64
8, 16270, Note_on_c, 2, 72, 47
8, 16320, Note_off_c, 2, 72, 64
8, 16326, Note_on_c, 2, 34, 38
8, 16328, Note_on_c, 2, 56, 51
8, 16330, Note_on_c, 2, 53, 48
8, 16338, Note_on_c, 2, 62, 51
8, 16360, Note_off_c, 2, 34, 64
8, 16370, Note_off_c, 2, 56, 64
8, 16372, Note_off_c, 2, 62, 64
8, 16376, Note_off_c, 2, 53, 64
8, 17282, Note_on_c, 2, 50, 40
8, 17282, Note_on_c, 2, 62, 49
8, 17292, Note_on_c, 2, 34, 45
8, 17294, Note_on_c, 2, 56, 46
8, 17296, Note_on_c, 2, 53, 50
8, 17328, Note_off_c, 2, 56, 64
8, 17338, Note_off_c, 2, 53, 64
8, 17342, Note_off_c, 2, 34, 64
8, 17342, Note_off_c, 2, 62, 64
8, 17342, Note_off_c, 2, 50, 64
8, 17768, Note_on_c, 2, 74, 72
8, 17768, Note_on_c, 2, 77, 73
8, 17776, Note_on_c, 2, 71, 73
8, 17776, Note_on_c, 2, 83, 75
8, 17778, Note_on_c, 2, 68, 54
8, 17800, Note_off_c, 2, 71, 64
8, 17800, Note_off_c, 2, 74, 64
8, 17808, Note_off_c, 2, 83, 64
8, 17812, Note_off_c, 2, 68, 64
8, 17812, Note_off_c, 2, 77, 64
8, 18242, Note_on_c, 2, 55, 40
8, 18242, Note_on_c, 2, 67, 49
8, 18252, Note_on_c, 2, 39, 45
8, 18254, Note_on_c, 2, 62, 46
8, 18256, Note_on_c, 2, 58, 50
8, 18288, Note_off_c, 2, 62, 64
8, 18298, Note_off_c, 2, 58, 64
8, 18302, Note_off_c, 2, 39, 64
8, 18302, Note_off_c, 2, 67, 64
8, 18302, Note_off_c, 2, 55, 64
8, 18728, Note_on_c, 2, 79, 72
8, 18728, Note_on_c, 2, 82, 73
8, 18736, Note_on_c, 2, 77, 73
8, 18736, Note_on_c, 2, 89, 75
8, 18738, Note_on_c, 2, 74, 54
8, 18760, Note_off_c, 2, 77, 64
8, 18760, Note_off_c, 2, 79, 64
8, 18768, Note_off_c, 2, 89, 64
8, 18772, Note_off_c, 2, 74, 64
8, 18772, Note_off_c, 2, 82, 64
8, 19216, Note_on_c, 2, 73, 69
8, 19224, Note_on_c, 2, 34, 40
8, 19226, Note_on_c, 2, 50, 48
8, 19226, Note_on_c, 2, 83, 51
8, 19280, Note_off_c, 2, 73, 64
8, 19292, Note_on_c, 2, 74, 44
8, 20078, Note_off_c, 2, 83, 64
8, 20088, Note_off_c, 2, 74, 64
8, 20110, Note_off_c, 2, 34, 64
8, 20224, Note_off_c, 2, 50, 64
8, 21138, Note_on_c, 2, 59, 45
8, 21142, Note_on_c, 2, 65, 63
8, 21142, Note_on_c, 2, 61, 68
8, 21182, Note_off_c, 2, 59, 64
8, 21182, Note_on_c, 2, 62, 54
8, 21212, Note_off_c, 2, 61, 64
8, 21272, Note_off_c, 2, 65, 64
8, 21280, Note_off_c, 2, 62, 64
8, 21310, Note_on_c, 2, 41, 53
8, 22080, Note_off_c, 2, 41, 64
8, 22092, Note_on_c, 2, 70, 52
8, 22218, Note_off_c, 2, 70, 64
8, 22276, Note_on_c, 2, 58, 56
8, 22536, Note_off_c, 2, 58, 64
8, 22574, Note_on_c, 2, 69, 75
8, 22574, Note_on_c, 2, 78, 79
8, 22588, Note_on_c, 2, 72, 20
8, 22626, Note_off_c, 2, 69, 64
8, 22640, Note_off_c, 2, 72, 64
8, 22676, Note_off_c, 2, 78, 64
8, 22726, Note_on_c, 2, 72, 39
8, 22754, Note_off_c, 2, 72, 64
8, 22754, Note_on_c, 2, 69, 59
8, 22774, Note_off_c, 2, 69, 64
8, 22816, Note_on_c, 2, 68, 63
8, 22818, Note_on_c, 2, 77, 62
8, 22818, Note_on_c, 2, 71, 69
8, 22942, Note_off_c, 2, 77, 64
8, 22950, Note_off_c, 2, 71, 64
8, 22956, Note_off_c, 2, 68, 64
8, 23004, Note_on_c, 2, 58, 44
8, 23030, Note_off_c, 2, 58, 64
8, 23046, Note_on_c, 2, 43, 59
8, 23048, Note_on_c, 2, 74, 67
8, 23048, Note_on_c, 2, 67, 68
8, 23050, Note_on_c, 2, 65, 64
8, 23100, Note_off_c, 2, 67, 64
8, 23100, Note_off_c, 2, 43, 64
8, 23108, Note_off_c, 2, 65, 64
8, 23124, Note_off_c, 2, 74, 64
8, 23540, Note_on_c, 2, 62, 49
8, 23544, Note_on_c, 2, 53, 54
8, 23544, Note_on_c, 2, 86, 75
8, 23544, Note_on_c, 2, 79, 63
8, 23548, Note_on_c, 2, 74, 67
8, 23604, Note_off_c, 2, 79, 64
8, 23852, Note_off_c, 2, 62, 64
8, 23870, Note_off_c, 2, 53, 64
8, 23908, Note_off_c, 2, 86, 64
8, 23910, Note_off_c, 2, 74, 64
8, 23968, Note_on_c, 2, 53, 30
8, 24000, Note_off_c, 2, 53, 64
8, 24188, Note_on_c, 2, 72, 82
8, 24270, Note_off_c, 2, 72, 64
8, 24406, Note_on_c, 2, 67, 49
8, 24464, Note_off_c, 2, 67, 64
8, 24480, Note_on_c, 2, 72, 68
8, 24630, Note_off_c, 2, 72, 64
8, 24910, Note_on_c, 2, 67, 47
8, 24960, Note_off_c, 2, 67, 64
8, 24972, Note_on_c, 2, 75, 36
8, 25146, Note_off_c, 2, 75, 64
8, 25212, Note_on_c, 2, 63, 33
8, 25440, Note_off_c, 2, 63, 64
8, 25454, Note_on_c, 2, 74, 75
8, 25454, Note_on_c, 2, 83, 79
8, 25468, Note_on_c, 2, 77, 20
8, 25506, Note_off_c, 2, 74, 64
8, 25520, Note_off_c, 2, 77, 64
8, 25556, Note_off_c, 2, 83, 64
8, 25606, Note_on_c, 2, 77, 39
8, 25634, Note_off_c, 2, 77, 64
8, 25634, Note_on_c, 2, 74, 59
8, 25654, Note_off_c, 2, 74, 64
8, 25696, Note_on_c, 2, 73, 63
8, 25698, Note_on_c, 2, 82, 62
8, 25698, Note_on_c, 2, 76, 69
8, 25822, Note_off_c, 2, 82, 64
8, 25830, Note_off_c, 2, 76, 64
8, 25836, Note_off_c, 2, 73, 64
8, 25884, Note_on_c, 2, 63, 44
8, 25910, Note_off_c, 2, 63, 64
8, 25928, Note_on_c, 2, 75, 87
8, 25928, Note_on_c, 2, 72, 90
8, 25932, Note_on_c, 2, 39, 74
8, 26048, Note_off_c, 2, 39, 64
8, 26062, Note_off_c, 2, 75, 64
8, 26064, Note_off_c, 2, 72, 64
8, 26110, Note_on_c, 2, 72, 43
8, 26116, Note_on_c, 2, 75, 43
8, 26116, Note_on_c, 2, 39, 42
8, 26138, Note_off_c, 2, 72, 64
8, 26148, Note_off_c, 2, 75, 64
8, 26152, Note_off_c, 2, 39, 64
8, 26598, Note_on_c, 2, 50, 43
8, 26616, Note_off_c, 2, 50, 64
8, 26660, Note_on_c, 2, 72, 55
8, 26696, Note_off_c, 2, 72, 64
8, 26702, Note_on_c, 2, 78, 52
8, 26756, Note_on_c, 2, 72, 43
8, 26810, Note_off_c, 2, 78, 64
8, 26822, Note_on_c, 2, 66, 55
8, 26830, Note_off_c, 2, 72, 64
8, 26880, Note_off_c, 2, 66, 64
8, 26882, Note_on_c, 2, 79, 52
8, 26884, Note_on_c, 2, 86, 32
8, 26922, Note_off_c, 2, 79, 64
8, 26924, Note_off_c, 2, 86, 64
8, 27120, Note_on_c, 2, 67, 39
8, 27128, Note_on_c, 2, 70, 31
8, 27128, Note_on_c, 2, 77, 36
8, 27130, Note_on_c, 2, 74, 33
8, 27134, Note_on_c, 2, 86, 38
8, 27138, Note_on_c, 2, 79, 39
8, 27174, Note_off_c, 2, 77, 64
8, 27174, Note_off_c, 2, 67, 64
8, 27182, Note_off_c, 2, 70, 64
8, 27184, Note_off_c, 2, 79, 64
8, 27184, Note_off_c, 2, 86, 64
8, 27184, Note_off_c, 2, 74, 64
8, 27370, Note_on_c, 2, 70, 23
8, 27374, Note_on_c, 2, 67, 30
8, 27376, Note_on_c, 2, 77, 19
8, 27378, Note_on_c, 2, 74, 19
8, 27382, Note_on_c, 2, 79, 40
8, 27382, Note_on_c, 2, 86, 23
8, 27482, Note_off_c, 2, 67, 64
8, 27486, Note_off_c, 2, 74, 64
8, 27486, Note_off_c, 2, 70, 64
8, 27492, Note_off_c, 2, 86, 64
8, 27492, Note_off_c, 2, 79, 64
8, 27492, Note_off_c, 2, 77, 64
8, 27548, Note_on_c, 2, 74, 51
8, 27548, Note_on_c, 2, 67, 51
8, 27548, Note_on_c, 2, 70, 41
8, 27550, Note_on_c, 2, 79, 45
8, 27550, Note_on_c, 2, 77, 47
8, 27558, Note_on_c, 2, 86, 26
8, 27584, Note_off_c, 2, 77, 64
8, 27586, Note_off_c, 2, 74, 64
8, 27588, Note_off_c, 2, 70, 64
8, 27588, Note_off_c, 2, 67, 64
8, 27596, Note_off_c, 2, 86, 64
8, 27596, Note_off_c, 2, 79, 64
8, 27860, Note_on_c, 2, 85, 62
8, 27860, Note_on_c, 2, 73, 57
8, 27860, Note_on_c, 2, 77, 41
8, 27866, Note_on_c, 2, 67, 50
8, 27894, Note_off_c, 2, 77, 64
8, 27906, Note_off_c, 2, 85, 64
8, 27908, Note_off_c, 2, 67, 64
8, 27908, Note_off_c, 2, 73, 64
8, 28518, Note_on_c, 2, 48, 43
8, 28536, Note_off_c, 2, 48, 64
8, 28580, Note_on_c, 2, 70, 55
8, 28616, Note_off_c, 2, 70, 64
8, 28622, Note_on_c, 2, 76, 52
8, 28676, Note_on_c, 2, 70, 43
8, 28730, Note_off_c, 2, 76, 64
8, 28742, Note_on_c, 2, 64, 55
8, 28750, Note_off_c, 2, 70, 64
8, 28800, Note_off_c, 2, 64, 64
8, 28816, Note_on_c, 2, 76, 69
8, 28824, Note_on_c, 2, 41, 58
8, 28826, Note_on_c, 2, 51, 48
8, 28826, Note_on_c, 2, 80, 51
8, 28880, Note_off_c, 2, 76, 64
8, 28892, Note_on_c, 2, 77, 44
8, 29280, Note_off_c, 2, 77, 64
8, 29280, Note_off_c, 2, 80, 64
8, 29280, Note_off_c, 2, 51, 64
8, 29280, Note_off_c, 2, 41, 64
8, 29300, Note_on_c, 2, 84, 62
8, 29300, Note_on_c, 2, 72, 57
8, 29300, Note_on_c, 2, 76, 41
8, 29306, Note_on_c, 2, 67, 50
8, 29334, Note_off_c, 2, 76, 64
8, 29346, Note_off_c, 2, 84, 64
8, 29348, Note_off_c, 2, 67, 64
8, 29348, Note_off_c, 2, 72, 64
8, 29766, Note_on_c, 2, 41, 38
8, 29768, Note_on_c, 2, 56, 51
8, 29770, Note_on_c, 2, 53, 48
8, 29778, Note_on_c, 2, 63, 51
8, 29800, Note_off_c, 2, 41, 64
8, 29810, Note_off_c, 2, 56, 64
8, 29812, Note_off_c, 2, 63, 64
8, 29816, Note_off_c, 2, 53, 64
8, 30438, Note_on_c, 2, 46, 43
8, 30456, Note_off_c, 2, 46, 64
8, 30500, Note_on_c, 2, 68, 55
8, 30536, Note_off_c, 2, 68, 64
8, 30542, Note_on_c, 2, 74, 52
8, 30596, Note_on_c, 2, 68, 43
8, 30650, Note_off_c, 2, 74, 64
8, 30662, Note_on_c, 2, 62, 55
8, 30670, Note_off_c, 2, 68, 64
8, 30720, Note_off_c, 2, 62, 64
8, 30732, Note_on_c, 2, 70, 36
8, 30906, Note_off_c, 2, 70, 64
8, 30972, Note_on_c, 2, 58, 33
8, 31200, Note_off_c, 2, 58, 64
8, 31214, Note_on_c, 2, 69, 75
8, 31214, Note_on_c, 2, 78, 79
8, 31228, Note_on_c, 2, 72, 20
8, 31266, Note_off_c, 2, 69, 64
8, 31280, Note_off_c, 2, 72, 64
8, 31316, Note_off_c, 2, 78, 64
8, 31366, Note_on_c, 2, 72, 39
8, 31394, Note_off_c, 2, 72, 64
8, 31394, Note_on_c, 2, 69, 59
8, 31414, Note_off_c, 2, 69, 64
8, 31456, Note_on_c, 2, 68, 63
8, 31458, Note_on_c, 2, 77, 62
8, 31458, Note_on_c, 2, 71, 69
8, 31582, Note_off_c, 2, 77, 64
8, 31590, Note_off_c, 2, 71, 64
8, 31596, Note_off_c, 2, 68, 64
8, 31644, Note_on_c, 2, 58, 44
8, 31670, Note_off_c, 2, 58, 64
8, 31700, Note_on_c, 2, 67, 42
8, 31704, Note_on_c, 2, 75, 37
8, 31830, Note_off_c, 2, 67, 64
8, 31838, Note_off_c, 2, 75, 64
8, 31930, Note_on_c, 2, 68, 59
8, 31930, Note_on_c, 2, 75, 62
8, 32072, Note_off_c, 2, 68, 64
8, 32078, Note_off_c, 2, 75, 64
8, 32100, Note_on_c, 2, 58, 60
8, 32156, Note_off_c, 2, 58, 64
8, 32166, Note_on_c, 2, 75, 50
8, 32170, Note_on_c, 2, 69, 65
8, 32298, Note_off_c, 2, 75, 64
8, 32304, Note_off_c, 2, 69, 64
8, 32344, Note_on_c, 2, 75, 51
8, 32344, Note_on_c, 2, 70, 65
8, 32398, Note_off_c, 2, 70, 64
8, 32404, Note_off_c, 2, 75, 64
8, 32828, Note_on_c, 2, 77, 82
8, 32910, Note_off_c, 2, 77, 64
8, 33046, Note_on_c, 2, 71, 49
8, 33104, Note_off_c, 2, 71, 64
8, 33120, Note_on_c, 2, 77, 68
8, 33270, Note_off_c, 2, 77, 64
8, 33550, Note_on_c, 2, 71, 47
8, 33600, Note_off_c, 2, 71, 64
8, 33606, Note_on_c, 2, 39, 38
8, 33608, Note_on_c, 2, 55, 51
8, 33610, Note_on_c, 2, 51, 48
8, 33618, Note_on_c, 2, 62, 51
8, 33640, Note_off_c, 2, 39, 64
8, 33650, Note_off_c, 2, 55, 64
8, 33652, Note_off_c, 2, 62, 64
8, 33656, Note_off_c, 2, 51, 64
8, 34566, Note_on_c, 2, 46, 59
8, 34568, Note_on_c, 2, 71, 67
8, 34568, Note_on_c, 2, 65, 68
8, 34570, Note_on_c, 2, 62, 64
8, 34620, Note_off_c, 2, 65, 64
8, 34620, Note_off_c, 2, 46, 64
8, 34628, Note_off_c, 2, 62, 64
8, 34644, Note_off_c, 2, 71, 64
8, 35060, Note_on_c, 2, 59, 49
8, 35064, Note_on_c, 2, 50, 54
8, 35064, Note_on_c, 2, 83, 75
8, 35064, Note_on_c, 2, 79, 63
8, 35068, Note_on_c, 2, 71, 67
8, 35122, Note_on_c, 2, 80, 51
8, 35124, Note_off_c, 2, 79, 64
8, 35368, Note_off_c, 2, 80, 64
8, 35372, Note_off_c, 2, 59, 64
8, 35390, Note_off_c, 2, 50, 64
8, 35428, Note_off_c, 2, 83, 64
8, 35430, Note_off_c, 2, 71, 64
8, 35488, Note_on_c, 2, 50, 30
8, 35540, Note_on_c, 2, 56, 42
8, 35540, Note_on_c, 2, 77, 51
8, 35548, Note_on_c, 2, 83, 50
8, 35552, Note_on_c, 2, 71, 48
8, 35664, Note_off_c, 2, 83, 64
8, 35664, Note_off_c, 2, 77, 64
8, 35664, Note_off_c, 2, 56, 64
8, 35666, Note_off_c, 2, 71, 64
8, 35666, Note_off_c, 2, 50, 64
8, 35718, Note_on_c, 2, 71, 72
8, 35720, Note_on_c, 2, 83, 63
8, 35722, Note_on_c, 2, 77, 66
8, 35728, Note_on_c, 2, 56, 44
8, 35730, Note_on_c, 2, 50, 36
8, 35754, Note_off_c, 2, 77, 64
8, 35754, Note_off_c, 2, 71, 64
8, 35758, Note_off_c, 2, 83, 64
8, 35764, Note_off_c, 2, 50, 64
8, 35764, Note_off_c, 2, 56, 64
8, 36012, Note_on_c, 2, 83, 74
8, 36016, Note_on_c, 2, 77, 69
8, 36016, Note_on_c, 2, 71, 62
8, 36018, Note_on_c, 2, 56, 42
8, 36020, Note_on_c, 2, 50, 36
8, 36056, Note_off_c, 2, 71, 64
8, 36056, Note_off_c, 2, 77, 64
8, 36060, Note_off_c, 2, 56, 64
8, 36060, Note_off_c, 2, 83, 64
8, 36062, Note_off_c, 2, 50, 64
8, 36492, Note_on_c, 2, 89, 45
8, 36494, Note_on_c, 2, 56, 32
8, 36494, Note_on_c, 2, 77, 35
8, 36496, Note_on_c, 2, 83, 36
8, 36498, Note_on_c, 2, 50, 52
8, 36538, Note_off_c, 2, 83, 64
8, 36554, Note_on_c, 2, 83, 46
8, 36568, Note_off_c, 2, 77, 64
8, 36610, Note_off_c, 2, 50, 64
8, 36610, Note_off_c, 2, 56, 64
8, 36618, Note_off_c, 2, 89, 64
8, 36638, Note_off_c, 2, 83, 64
8, 36668, Note_on_c, 2, 89, 55
8, 36674, Note_on_c, 2, 83, 74
8, 36676, Note_on_c, 2, 56, 59
8, 36676, Note_on_c, 2, 77, 55
8, 36680, Note_on_c, 2, 50, 60
8, 36718, Note_off_c, 2, 83, 64
8, 36728, Note_off_c, 2, 77, 64
8, 36732, Note_off_c, 2, 50, 64
8, 36732, Note_off_c, 2, 56, 64
8, 36744, Note_off_c, 2, 89, 64
8, 37452, Note_on_c, 2, 89, 45
8, 37454, Note_on_c, 2, 55, 32
8, 37454, Note_on_c, 2, 77, 35
8, 37456, Note_on_c, 2, 83, 36
8, 37458, Note_on_c, 2, 50, 52
8, 37498, Note_off_c, 2, 83, 64
8, 37514, Note_on_c, 2, 84, 46
8, 37528, Note_off_c, 2, 77, 64
8, 37570, Note_off_c, 2, 50, 64
8, 37570, Note_off_c, 2, 55, 64
8, 37578, Note_off_c, 2, 89, 64
8, 37598, Note_off_c, 2, 84, 64
8, 37628, Note_on_c, 2, 89, 55
8, 37634, Note_on_c, 2, 84, 74
8, 37636, Note_on_c, 2, 55, 59
8, 37636, Note_on_c, 2, 77, 55
8, 37640, Note_on_c, 2, 50, 60
8, 37678, Note_off_c, 2, 84, 64
8, 37688, Note_off_c, 2, 77, 64
8, 37692, Note_off_c, 2, 50, 64
8, 37692, Note_off_c, 2, 55, 64
8, 37704, Note_off_c, 2, 89, 64
8, 38418, Note_on_c, 2, 61, 45
8, 38422, Note_on_c, 2, 65, 63
8, 38422, Note_on_c, 2, 62, 68
8, 38462, Note_off_c, 2, 61, 64
8, 38462, Note_on_c, 2, 63, 54
8, 38492, Note_off_c, 2, 62, 64
8, 38552, Note_off_c, 2, 65, 64
8, 38560, Note_off_c, 2, 63, 64
8, 38590, Note_on_c, 2, 35, 53
8, 39360, Note_off_c, 2, 35, 64
8, 39366, Note_on_c, 2, 46, 59
8, 39368, Note_on_c, 2, 72, 67
8, 39368, Note_on_c, 2, 65, 68
8, 39370, Note_on_c, 2, 62, 64
8, 39420, Note_off_c, 2, 65, 64
8, 39420, Note_off_c, 2, 46, 64
8, 39428, Note_off_c, 2, 62, 64
8, 39444, Note_off_c, 2, 72, 64
8, 39860, Note_on_c, 2, 60, 49
8, 39864, Note_on_c, 2, 50, 54
8, 39864, Note_on_c, 2, 84, 75
8, 39864, Note_on_c, 2, 77, 63
8, 39868, Note_on_c, 2, 72, 67
8, 39924, Note_off_c, 2, 77, 64
8, 40172, Note_off_c, 2, 60, 64
8, 40190, Note_off_c, 2, 50, 64
8, 40228, Note_off_c, 2, 84, 64
8, 40230, Note_off_c, 2, 72, 64
8, 40288, Note_on_c, 2, 50, 30
8, 40320, Note_off_c, 2, 50, 64
8, 40340, Note_on_c, 2, 67, 42
8, 40344, Note_on_c, 2, 75, 37
8, 40470, Note_off_c, 2, 67, 64
8, 40478, Note_off_c, 2, 75, 64
8, 40570, Note_on_c, 2, 68, 59
8, 40570, Note_on_c, 2, 75, 62
8, 40712, Note_off_c, 2, 68, 64
8, 40718, Note_off_c, 2, 75, 64
8, 40740, Note_on_c, 2, 58, 60
8, 40796, Note_off_c, 2, 58, 64
8, 40806, Note_on_c, 2, 75, 50
8, 40810, Note_on_c, 2, 69, 65
8, 40938, Note_off_c, 2, 75, 64
8, 40944, Note_off_c, 2, 69, 64
8, 40984, Note_on_c, 2, 75, 51
8, 40984, Note_on_c, 2, 70, 65
8, 41038, Note_off_c, 2, 70, 64
8, 41044, Note_off_c, 2, 75, 64
8, 41282, Note_on_c, 2, 51, 40
8, 41282, Note_on_c, 2, 63, 49
8, 41292, Note_on_c, 2, 42, 45
8, 41294, Note_on_c, 2, 57, 46
8, 41296, Note_on_c, 2, 54, 50
8, 41328, Note_off_c, 2, 57, 64
8, 41338, Note_off_c, 2, 54, 64
8, 41342, Note_off_c, 2, 42, 64
8, 41342, Note_off_c, 2, 63, 64
8, 41342, Note_off_c, 2, 51, 64
8, 41768, Note_on_c, 2, 75, 72
8, 41768, Note_on_c, 2, 78, 73
8, 41776, Note_on_c, 2, 72, 73
8, 41776, Note_on_c, 2, 84, 75
8, 41778, Note_on_c, 2, 69, 54
8, 41800, Note_off_c, 2, 72, 64
8, 41800, Note_off_c, 2, 75, 64
8, 41808, Note_off_c, 2, 84, 64
8, 41812, Note_off_c, 2, 69, 64
8, 41812, Note_off_c, 2, 78, 64
8, 42242, Note_on_c, 2, 51, 40
8, 42242, Note_on_c, 2, 63, 49
8, 42252, Note_on_c, 2, 41, 45
8, 42254, Note_on_c, 2, 56, 46
8, 42256, Note_on_c, 2, 53, 50
8, 42288, Note_off_c, 2, 56, 64
8, 42298, Note_off_c, 2, 53, 64
8, 42302, Note_off_c, 2, 41, 64
8, 42302, Note_off_c, 2, 63, 64
8, 42302, Note_off_c, 2, 51, 64
8, 42728, Note_on_c, 2, 75, 72
8, 42728, Note_on_c, 2, 77, 73
8, 42736, Note_on_c, 2, 72, 73
8, 42736, Note_on_c, 2, 84, 75
8, 42738, Note_on_c, 2, 68, 54
8, 42760, Note_off_c, 2, 72, 64
8, 42760, Note_off_c, 2, 75, 64
8, 42768, Note_off_c, 2, 84, 64
8, 42772, Note_off_c, 2, 68, 64
8, 42772, Note_off_c, 2, 77, 64
8, 43212, Note_on_c, 2, 89, 45
8, 43214, Note_on_c, 2, 56, 32
8, 43214, Note_on_c, 2, 77, 35
8, 43216, Note_on_c, 2, 83, 36
8, 43218, Note_on_c, 2, 50, 52
8, 43258, Note_off_c, 2, 83, 64
8, 43274, Note_on_c, 2, 84, 46
8, 43288, Note_off_c, 2, 77, 64
8, 43330, Note_off_c, 2, 50, 64
8, 43330, Note_off_c, 2, 56, 64
8, 43338, Note_off_c, 2, 89, 64
8, 43358, Note_off_c, 2, 84, 64
8, 43388, Note_on_c, 2, 89, 55
8, 43394, Note_on_c, 2, 84, 74
8, 43396, Note_on_c, 2, 56, 59
8, 43396, Note_on_c, 2, 77, 55
8, 43400, Note_on_c, 2, 50, 60
8, 43438, Note_off_c, 2, 84, 64
8, 43448, Note_off_c, 2, 77, 64
8, 43452, Note_off_c, 2, 50, 64
8, 43452, Note_off_c, 2, 56, 64
8, 43464, Note_off_c, 2, 89, 64
8, 44172, Note_on_c, 2, 70, 52
8, 44298, Note_off_c, 2, 70, 64
8, 44356, Note_on_c, 2, 58, 56
8, 44616, Note_off_c, 2, 58, 64
8, 44656, Note_on_c, 2, 78, 69
8, 44664, Note_on_c, 2, 38, 58
8, 44666, Note_on_c, 2, 82, 51
8, 44666, Note_on_c, 2, 51, 48
8, 44720, Note_off_c, 2, 78, 64
8, 44732, Note_on_c, 2, 79, 44
8, 45120, Note_off_c, 2, 79, 64
8, 45120, Note_off_c, 2, 51, 64
8, 45120, Note_off_c, 2, 82, 64
8, 45120, Note_off_c, 2, 38, 64
8, 45142, Note_on_c, 2, 77, 67
8, 45268, Note_off_c, 2, 77, 64
8, 45296, Note_on_c, 2, 37, 50
8, 45350, Note_off_c, 2, 37, 64
8, 45372, Note_on_c, 2, 85, 67
8, 45372, Note_on_c, 2, 73, 63
8, 45456, Note_off_c, 2, 85, 64
8, 45494, Note_off_c, 2, 73, 64
8, 45602, Note_on_c, 2, 36, 56
8, 45690, Note_off_c, 2, 36, 64
8, 45784, Note_on_c, 2, 70, 75
8, 45790, Note_on_c, 2, 76, 72
8, 45790, Note_on_c, 2, 84, 64
8, 45824, Note_off_c, 2, 76, 64
8, 45834, Note_off_c, 2, 84, 64
8, 45838, Note_off_c, 2, 70, 64
8, 46086, Note_on_c, 2, 41, 38
8, 46088, Note_on_c, 2, 56, 51
8, 46090, Note_on_c, 2, 53, 48
8, 46098, Note_on_c, 2, 63, 51
8, 46120, Note_off_c, 2, 41, 64
8, 46130, Note_off_c, 2, 56, 64
8, 46132, Note_off_c, 2, 63, 64
8, 46136, Note_off_c, 2, 53, 64
8, 47052, Note_on_c, 2, 89, 45
8, 47054, Note_on_c, 2, 56, 32
8, 47054, Note_on_c, 2, 77, 35
8, 47056, Note_on_c, 2, 83, 36
8, 47058, Note_on_c, 2, 50, 52
8, 47098, Note_off_c, 2, 83, 64
8, 47114, Note_on_c, 2, 84, 46
8, 47128, Note_off_c, 2, 77, 64
8, 47170, Note_off_c, 2, 50, 64
8, 47170, Note_off_c, 2, 56, 64
8, 47178, Note_off_c, 2, 89, 64
8, 47198, Note_off_c, 2, 84, 64
8, 47228, Note_on_c, 2, 89, 55
8, 47234, Note_on_c, 2, 84, 74
8, 47236, Note_on_c, 2, 56, 59
8, 47236, Note_on_c, 2, 77, 55
8, 47240, Note_on_c, 2, 50, 60
8, 47278, Note_off_c, 2, 84, 64
8, 47288, Note_off_c, 2, 77, 64
8, 47292, Note_off_c, 2, 50, 64
8, 47292, Note_off_c, 2, 56, 64
8, 47304, Note_off_c, 2, 89, 64
8, 48002, Note_on_c, 2, 77, 52
8, 48004, Note_on_c, 2, 83, 32
8, 48042, Note_off_c, 2, 77, 64
8, 48044, Note_off_c, 2, 83, 64
8, 48240, Note_on_c, 2, 65, 39
8, 48248, Note_on_c, 2, 68, 31
8, 48248, Note_on_c, 2, 74, 36
8, 48250, Note_on_c, 2, 71, 33
8, 48254, Note_on_c, 2, 83, 38
8, 48258, Note_on_c, 2, 77, 39
8, 48294, Note_off_c, 2, 74, 64
8, 48294, Note_off_c, 2, 65, 64
8, 48302, Note_off_c, 2, 68, 64
8, 48304, Note_off_c, 2, 77, 64
8, 48304, Note_off_c, 2, 83, 64
8, 48304, Note_off_c, 2, 71, 64
8, 48490, Note_on_c, 2, 68, 23
8, 48494, Note_on_c, 2, 65, 30
8, 48496, Note_on_c, 2, 74, 19
8, 48498, Note_on_c, 2, 71, 19
8, 48502, Note_on_c, 2, 77, 40
8, 48502, Note_on_c, 2, 83, 23
8, 48602, Note_off_c, 2, 65, 64
8, 48606, Note_off_c, 2, 71, 64
8, 48606, Note_off_c, 2, 68, 64
8, 48612, Note_off_c, 2, 83, 64
8, 48612, Note_off_c, 2, 77, 64
8, 48612, Note_off_c, 2, 74, 64
8, 48668, Note_on_c, 2, 71, 51
8, 48668, Note_on_c, 2, 65, 51
8, 48668, Note_on_c, 2, 68, 41
8, 48670, Note_on_c, 2, 77, 45
8, 48670, Note_on_c, 2, 74, 47
8, 48678, Note_on_c, 2, 83, 26
8, 48704, Note_off_c, 2, 74, 64
8, 48706, Note_off_c, 2, 71, 64
8, 48708, Note_off_c, 2, 68, 64
8, 48708, Note_off_c, 2, 65, 64
8, 48716, Note_off_c, 2, 83, 64
8, 48716, Note_off_c, 2, 77, 64
8, 48978, Note_on_c, 2, 65, 45
8, 48982, Note_on_c, 2, 70, 63
8, 48982, Note_on_c, 2, 66, 68
8, 49022, Note_off_c, 2, 65, 64
8, 49022, Note_on_c, 2, 67, 54
8, 49052, Note_off_c, 2, 66, 64
8, 49112, Note_off_c, 2, 70, 64
8, 49120, Note_off_c, 2, 67, 64
8, 49150, Note_on_c, 2, 46, 53
8, 49920, Note_off_c, 2, 46, 64
8, 50106, Note_on_c, 2, 83, 76
8, 50168, Note_off_c, 2, 83, 64
8, 50178, Note_on_c, 2, 77, 26
8, 50268, Note_off_c, 2, 77, 64
8, 50416, Note_on_c, 2, 65, 56
8, 50422, Note_on_c, 2, 83, 63
8, 50422, Note_on_c, 2, 68, 58
8, 50422, Note_on_c, 2, 74, 67
8, 50460, Note_off_c, 2, 74, 64
8, 50468, Note_off_c, 2, 65, 64
8, 50474, Note_off_c, 2, 68, 64
8, 50480, Note_off_c, 2, 83, 64
8, 51852, Note_on_c, 2, 89, 45
8, 51854, Note_on_c, 2, 56, 32
8, 51854, Note_on_c, 2, 77, 35
8, 51856, Note_on_c, 2, 83, 36
8, 51858, Note_on_c, 2, 50, 52
8, 51898, Note_off_c, 2, 83, 64
8, 51914, Note_on_c, 2, 83, 46
8, 51928, Note_off_c, 2, 77, 64
8, 51970, Note_off_c, 2, 50, 64
8, 51970, Note_off_c, 2, 56, 64
8, 51978, Note_off_c, 2, 89, 64
8, 51998, Note_off_c, 2, 83, 64
8, 52028, Note_on_c, 2, 89, 55
8, 52034, Note_on_c, 2, 83, 74
8, 52036, Note_on_c, 2, 56, 59
8, 52036, Note_on_c, 2, 77, 55
8, 52040, Note_on_c, 2, 50, 60
8, 52078, Note_off_c, 2, 83, 64
8, 52088, Note_off_c, 2, 77, 64
8, 52092, Note_off_c, 2, 50, 64
8, 52092, Note_off_c, 2, 56, 64
8, 52104, Note_off_c, 2, 89, 64
8, 52806, Note_on_c, 2, 39, 59
8, 52808, Note_on_c, 2, 70, 67
8, 52808, Note_on_c, 2, 65, 68
8, 52810, Note_on_c, 2, 62, 64
8, 52860, Note_off_c, 2, 65, 64
8, 52860, Note_off_c, 2, 39, 64
8, 52868, Note_off_c, 2, 62, 64
8, 52884, Note_off_c, 2, 70, 64
8, 53300, Note_on_c, 2, 58, 49
8, 53304, Note_on_c, 2, 50, 54
8, 53304, Note_on_c, 2, 82, 75
8, 53304, Note_on_c, 2, 77, 63
8, 53308, Note_on_c, 2, 70, 67
8, 53364, Note_off_c, 2, 77, 64
8, 53612, Note_off_c, 2, 58, 64
8, 53630, Note_off_c, 2, 50, 64
8, 53668, Note_off_c, 2, 82, 64
8, 53670, Note_off_c, 2, 70, 64
8, 53728, Note_on_c, 2, 50, 30
8, 53760, Note_off_c, 2, 50, 64
8, 53766, Note_on_c, 2, 43, 38
8, 53768, Note_on_c, 2, 58, 51
8, 53770, Note_on_c, 2, 55, 48
8, 53778, Note_on_c, 2, 65, 51
8, 53800, Note_off_c, 2, 43, 64
8, 53810, Note_off_c, 2, 58, 64
8, 53812, Note_off_c, 2, 65, 64
8, 53816, Note_off_c, 2, 55, 64
8, 54726, Note_on_c, 2, 48, 59
8, 54728, Note_on_c, 2, 72, 67
8, 54728, Note_on_c, 2, 67, 68
8, 54730, Note_on_c, 2, 64, 64
8, 54780, Note_off_c, 2, 67, 64
8, 54780, Note_off_c, 2, 48, 64
8, 54788, Note_off_c, 2, 64, 64
8, 54804, Note_off_c, 2, 72, 64
8, 55220, Note_on_c, 2, 60, 49
8, 55224, Note_on_c, 2, 52, 54
8, 55224, Note_on_c, 2, 84, 75
8, 55224, Note_on_c, 2, 79, 63
8, 55228, Note_on_c, 2, 72, 67
8, 55284, Note_off_c, 2, 79, 64
8, 55532, Note_off_c, 2, 60, 64
8, 55550, Note_off_c, 2, 52, 64
8, 55588, Note_off_c, 2, 84, 64
8, 55590, Note_off_c, 2, 72, 64
8, 55648, Note_on_c, 2, 52, 30
8, 55680, Note_off_c, 2, 52, 64
8, 55682, Note_on_c, 2, 82, 52
8, 55684, Note_on_c, 2, 87, 32
8, 55722, Note_off_c, 2, 82, 64
8, 55724, Note_off_c, 2, 87, 64
8, 55920, Note_on_c, 2, 70, 39
8, 55928, Note_on_c, 2, 72, 31
8, 55928, Note_on_c, 2, 79, 36
8, 55930, Note_on_c, 2, 75, 33
8, 55934, Note_on_c, 2, 87, 38
8, 55938, Note_on_c, 2, 82, 39
8, 55974, Note_off_c, 2, 79, 64
8, 55974, Note_off_c, 2, 70, 64
8, 55982, Note_off_c, 2, 72, 64
8, 55984, Note_off_c, 2, 82, 64
8, 55984, Note_off_c, 2, 87, 64
8, 55984, Note_off_c, 2, 75, 64
8, 56170, Note_on_c, 2, 72, 23
8, 56174, Note_on_c, 2, 70, 30
8, 56176, Note_on_c, 2, 79, 19
8, 56178, Note_on_c, 2, 75, 19
8, 56182, Note_on_c, 2, 82, 40
8, 56182, Note_on_c, 2, 87, 23
8, 56282, Note_off_c, 2, 70, 64
8, 56286, Note_off_c, 2, 75, 64
8, 56286, Note_off_c, 2, 72, 64
8, 56292, Note_off_c, 2, 87, 64
8, 56292, Note_off_c, 2, 82, 64
8, 56292, Note_off_c, 2, 79, 64
8, 56348, Note_on_c, 2, 75, 51
8, 56348, Note_on_c, 2, 70, 51
8, 56348, Note_on_c, 2, 72, 41
8, 56350, Note_on_c, 2, 82, 45
8, 56350, Note_on_c, 2, 79, 47
8, 56358, Note_on_c, 2, 87, 26
8, 56384, Note_off_c, 2, 79, 64
8, 56386, Note_off_c, 2, 75, 64
8, 56388, Note_off_c, 2, 72, 64
8, 56388, Note_off_c, 2, 70, 64
8, 56396, Note_off_c, 2, 87, 64
8, 56396, Note_off_c, 2, 82, 64
8, 56660, Note_on_c, 2, 81, 62
8, 56660, Note_on_c, 2, 69, 57
8, 56660, Note_on_c, 2, 72, 41
8, 56666, Note_on_c, 2, 63, 50
8, 56694, Note_off_c, 2, 72, 64
8, 56706, Note_off_c, 2, 81, 64
8, 56708, Note_off_c, 2, 63, 64
8, 56708, Note_off_c, 2, 69, 64
8, 57140, Note_on_c, 2, 87, 62
8, 57140, Note_on_c, 2, 75, 57
8, 57140, Note_on_c, 2, 78, 41
8, 57146, Note_on_c, 2, 69, 50
8, 57174, Note_off_c, 2, 78, 64
8, 57186, Note_off_c, 2, 87, 64
8, 57188, Note_off_c, 2, 69, 64
8, 57188, Note_off_c, 2, 75, 64
8, 57602, Note_on_c, 2, 53, 40
8, 57602, Note_on_c, 2, 65, 49
8, 57612, Note_on_c, 2, 43, 45
8, 57614, Note_on_c, 2, 58, 46
8, 57616, Note_on_c, 2, 55, 50
8, 57648, Note_off_c, 2, 58, 64
8, 57658, Note_off_c, 2, 55, 64
8, 57662, Note_off_c, 2, 43, 64
8, 57662, Note_off_c, 2, 65, 64
8, 57662, Note_off_c, 2, 53, 64
8, 58088, Note_on_c, 2, 77, 72
8, 58088, Note_on_c, 2, 79, 73
8, 58096, Note_on_c, 2, 74, 73
8, 58096, Note_on_c, 2, 86, 75
8, 58098, Note_on_c, 2, 70, 54
8, 58120, Note_off_c, 2, 74, 64
8, 58120, Note_off_c, 2, 77, 64
8, 58128, Note_off_c, 2, 86, 64
8, 58132, Note_off_c, 2, 70, 64
8, 58132, Note_off_c, 2, 79, 64
8, 58576, Note_on_c, 2, 78, 69
8, 58584, Note_on_c, 2, 36, 58
8, 58586, Note_on_c, 2, 53, 48
8, 58586, Note_on_c, 2, 82, 51
8, 58640, Note_off_c, 2, 78, 64
8, 58652, Note_on_c, 2, 79, 44
8, 59040, Note_off_c, 2, 79, 64
8, 59040, Note_off_c, 2, 82, 64
8, 59040, Note_off_c, 2, 53, 64
8, 59040, Note_off_c, 2, 36, 64
8, 59048, Note_on_c, 2, 72, 87
8, 59048, Note_on_c, 2, 70, 90
8, 59052, Note_on_c, 2, 43, 74
8, 59168, Note_off_c, 2, 43, 64
8, 59182, Note_off_c, 2, 72, 64
8, 59184, Note_off_c, 2, 70, 64
8, 59230, Note_on_c, 2, 70, 43
8, 59236, Note_on_c, 2, 72, 43
8, 59236, Note_on_c, 2, 43, 42
8, 59258, Note_off_c, 2, 70, 64
8, 59268, Note_off_c, 2, 72, 64
8, 59272, Note_off_c, 2, 43, 64
8, 59522, Note_on_c, 2, 77, 52
8, 59524, Note_on_c, 2, 84, 32
8, 59562, Note_off_c, 2, 77, 64
8, 59564, Note_off_c, 2, 84, 64
8, 59760, Note_on_c, 2, 65, 39
8, 59768, Note_on_c, 2, 68, 31
8, 59768, Note_on_c, 2, 75, 36
8, 59770, Note_on_c, 2, 72, 33
8, 59774, Note_on_c, 2, 84, 38
8, 59778, Note_on_c, 2, 77, 39
8, 59814, Note_off_c, 2, 75, 64
8, 59814, Note_off_c, 2, 65, 64
8, 59822, Note_off_c, 2, 68, 64
8, 59824, Note_off_c, 2, 77, 64
8, 59824, Note_off_c, 2, 84, 64
8, 59824, Note_off_c, 2, 72, 64
8, 60002, Note_on_c, 2, 36, 56
8, 60090, Note_off_c, 2, 36, 64
8, 60184, Note_on_c, 2, 70, 75
8, 60190, Note_on_c, 2, 76, 72
8, 60190, Note_on_c, 2, 84, 64
8, 60224, Note_off_c, 2, 76, 64
8, 60234, Note_off_c, 2, 84, 64
8, 60238, Note_off_c, 2, 70, 64
8, 60492, Note_on_c, 2, 89, 45
8, 60494, Note_on_c, 2, 56, 32
8, 60494, Note_on_c, 2, 77, 35
8, 60496, Note_on_c, 2, 85, 31
8, 60498, Note_on_c, 2, 51, 52
8, 60538, Note_off_c, 2, 85, 64
8, 60554, Note_on_c, 2, 86, 55
8, 60568, Note_off_c, 2, 77, 64
8, 60610, Note_off_c, 2, 51, 64
8, 60610, Note_off_c, 2, 56, 64
8, 60618, Note_off_c, 2, 89, 64
8, 60638, Note_off_c, 2, 86, 64
8, 60668, Note_on_c, 2, 89, 55
8, 60674, Note_on_c, 2, 86, 74
8, 60676, Note_on_c, 2, 56, 59
8, 60676, Note_on_c, 2, 77, 55
8, 60680, Note_on_c, 2, 51, 60
8, 60718, Note_off_c, 2, 86, 64
8, 60728, Note_off_c, 2, 77, 64
8, 60732, Note_off_c, 2, 51, 64
8, 60732, Note_off_c, 2, 56, 64
8, 60744, Note_off_c, 2, 89, 64
8, 60976, Note_on_c, 2, 76, 69
8, 60984, Note_on_c, 2, 34, 58
8, 60986, Note_on_c, 2, 80, 51
8, 60986, Note_on_c, 2, 50, 48
8, 61040, Note_off_c, 2, 76, 64
8, 61052, Note_on_c, 2, 77, 44
8, 61440, Note_off_c, 2, 77, 64
8, 61440, Note_off_c, 2, 50, 64
8, 61440, Note_off_c, 2, 80, 64
8, 61440, Note_off_c, 2, 34, 64
8, 61618, Note_on_c, 2, 79, 79
8, 61622, Note_on_c, 2, 82, 70
8, 61698, Note_off_c, 2, 79, 64
8, 61702, Note_off_c, 2, 82, 64
8, 61704, Note_on_c, 2, 81, 57
8, 61704, Note_on_c, 2, 78, 58
8, 61800, Note_off_c, 2, 78, 64
8, 61804, Note_off_c, 2, 81, 64
8, 61858, Note_on_c, 2, 82, 74
8, 61858, Note_on_c, 2, 79, 72
8, 61938, Note_on_c, 2, 81, 42
8, 61942, Note_on_c, 2, 78, 52
8, 61950, Note_off_c, 2, 79, 64
8, 61954, Note_off_c, 2, 82, 64
8, 62082, Note_off_c, 2, 78, 64
8, 62086, Note_off_c, 2, 81, 64
8, 62086, Note_on_c, 2, 79, 85
8, 62088, Note_on_c, 2, 82, 86
8, 62184, Note_on_c, 2, 75, 64
8, 62188, Note_off_c, 2, 82, 64
8, 62188, Note_off_c, 2, 79, 64
8, 62332, Note_off_c, 2, 75, 64
8, 62334, Note_on_c, 2, 70, 61
8, 62374, Note_off_c, 2, 70, 64
8, 62414, Note_on_c, 2, 81, 64
8, 62418, Note_on_c, 2, 78, 65
8, 62570, Note_off_c, 2, 78, 64
8, 62572, Note_off_c, 2, 81, 64
8, 62572, Note_on_c, 2, 79, 71
8, 62576, Note_on_c, 2, 82, 68
8, 62648, Note_off_c, 2, 82, 64
8, 62648, Note_off_c, 2, 79, 64
8, 62662, Note_on_c, 2, 81, 75
8, 62664, Note_on_c, 2, 78, 63
8, 62808, Note_off_c, 2, 78, 64
8, 62812, Note_off_c, 2, 81, 64
8, 62818, Note_on_c, 2, 79, 77
8, 62822, Note_on_c, 2, 82, 74
8, 63014, Note_off_c, 2, 82, 64
8, 63020, Note_off_c, 2, 79, 64
8, 63362, Note_on_c, 2, 77, 52
8, 63364, Note_on_c, 2, 83, 32
8, 63402, Note_off_c, 2, 77, 64
8, 63404, Note_off_c, 2, 83, 64
8, 63600, Note_on_c, 2, 65, 39
8, 63608, Note_on_c, 2, 68, 31
8, 63608, Note_on_c, 2, 74, 36
8, 63610, Note_on_c, 2, 71, 33
8, 63614, Note_on_c, 2, 83, 38
8, 63618, Note_on_c, 2, 77, 39
8, 63654, Note_off_c, 2, 74, 64
8, 63654, Note_off_c, 2, 65, 64
8, 63662, Note_off_c, 2, 68, 64
8, 63664, Note_off_c, 2, 77, 64
8, 63664, Note_off_c, 2, 83, 64
8, 63664, Note_off_c, 2, 71, 64
8, 63850, Note_on_c, 2, 68, 23
8, 63854, Note_on_c, 2, 65, 30
8, 63856, Note_on_c, 2, 74, 19
8, 63858, Note_on_c, 2, 71, 19
8, 63862, Note_on_c, 2, 77, 40
8, 63862, Note_on_c, 2, 83, 23
8, 63962, Note_off_c, 2, 65, 64
8, 63966, Note_off_c, 2, 71, 64
8, 63966, Note_off_c, 2, 68, 64
8, 63972, Note_off_c, 2, 83, 64
8, 63972, Note_off_c, 2, 77, 64
8, 63972, Note_off_c, 2, 74, 64
8, 64028, Note_on_c, 2, 71, 51
8, 64028, Note_on_c, 2, 65, 51
8, 64028, Note_on_c, 2, 68, 41
8, 64030, Note_on_c, 2, 77, 45
8, 64030, Note_on_c, 2, 74, 47
8, 64038, Note_on_c, 2, 83, 26
8, 64064, Note_off_c, 2, 74, 64
8, 64066, Note_off_c, 2, 71, 64
8, 64068, Note_off_c, 2, 68, 64
8, 64068, Note_off_c, 2, 65, 64
8, 64076, Note_off_c, 2, 83, 64
8, 64076, Note_off_c, 2, 77, 64
8, 64332, Note_on_c, 2, 70, 36
8, 64506, Note_off_c, 2, 70, 64
8, 64572, Note_on_c, 2, 58, 33
8, 64800, Note_off_c, 2, 58, 64
8, 64814, Note_on_c, 2, 69, 75
8, 64814, Note_on_c, 2, 78, 79
8, 64828, Note_on_c, 2, 72, 20
8, 64866, Note_off_c, 2, 69, 64
8, 64880, Note_off_c, 2, 72, 64
8, 64916, Note_off_c, 2, 78, 64
8, 64966, Note_on_c, 2, 72, 39
8, 64994, Note_off_c, 2, 72, 64
8, 64994, Note_on_c, 2, 69, 59
8, 65014, Note_off_c, 2, 69, 64
8, 65056, Note_on_c, 2, 68, 63
8, 65058, Note_on_c, 2, 77, 62
8, 65058, Note_on_c, 2, 71, 69
8, 65182, Note_off_c, 2, 77, 64
8, 65190, Note_off_c, 2, 71, 64
8, 65196, Note_off_c, 2, 68, 64
8, 65244, Note_on_c, 2, 58, 44
8, 65270, Note_off_c, 2, 58, 64
8, 65286, Note_on_c, 2, 46, 59
8, 65288, Note_on_c, 2, 71, 67
8, 65288, Note_on_c, 2, 65, 68
8, 65290, Note_on_c, 2, 62, 64
8, 65340, Note_off_c, 2, 65, 64
8, 65340, Note_off_c, 2, 46, 64
8, 65348, Note_off_c, 2, 62, 64
8, 65364, Note_off_c, 2, 71, 64
8, 65780, Note_on_c, 2, 59, 49
8, 65784, Note_on_c, 2, 50, 54
8, 65784, Note_on_c, 2, 83, 75
8, 65784, Note_on_c, 2, 79, 63
8, 65788, Note_on_c, 2, 71, 67
8, 65842, Note_on_c, 2, 80, 51
8, 65844, Note_off_c, 2, 79, 64
8, 66088, Note_off_c, 2, 80, 64
8, 66092, Note_off_c, 2, 59, 64
8, 66110, Note_off_c, 2, 50, 64
8, 66148, Note_off_c, 2, 83, 64
8, 66150, Note_off_c, 2, 71, 64
8, 66208, Note_on_c, 2, 50, 30
8, 66260, Note_on_c, 2, 56, 42
8, 66260, Note_on_c, 2, 77, 51
8, 66268, Note_on_c, 2, 83, 50
8, 66272, Note_on_c, 2, 71, 48
8, 66384, Note_off_c, 2, 83, 64
8, 66384, Note_off_c, 2, 77, 64
8, 66384, Note_off_c, 2, 56, 64
8, 66386, Note_off_c, 2, 71, 64
8, 66386, Note_off_c, 2, 50, 64
8, 66438, Note_on_c, 2, 71, 72
8, 66440, Note_on_c, 2, 83, 63
8, 66442, Note_on_c, 2, 77, 66
8, 66448, Note_on_c, 2, 56, 44
8, 66450, Note_on_c, 2, 50, 36
8, 66474, Note_off_c, 2, 77, 64
8, 66474, Note_off_c, 2, 71, 64
8, 66478, Note_off_c, 2, 83, 64
8, 66484, Note_off_c, 2, 50, 64
8, 66484, Note_off_c, 2, 56, 64
8, 66732, Note_on_c, 2, 83, 74
8, 66736, Note_on_c, 2, 77, 69
8, 66736, Note_on_c, 2, 71, 62
8, 66738, Note_on_c, 2, 56, 42
8, 66740, Note_on_c, 2, 50, 36
8, 66776, Note_off_c, 2, 71, 64
8, 66776, Note_off_c, 2, 77, 64
8, 66780, Note_off_c, 2, 56, 64
8, 66780, Note_off_c, 2, 83, 64
8, 66782, Note_off_c, 2, 50, 64
8, 67202, Note_on_c, 2, 50, 40
8, 67202, Note_on_c, 2, 62, 49
8, 67212, Note_on_c, 2, 34, 45
8, 67214, Note_on_c, 2, 56, 46
8, 67216, Note_on_c, 2, 53, 50
8, 67248, Note_off_c, 2, 56, 64
8, 67258, Note_off_c, 2, 53, 64
8, 67262, Note_off_c, 2, 34, 64
8, 67262, Note_off_c, 2, 62, 64
8, 67262, Note_off_c, 2, 50, 64
8, 67688, Note_on_c, 2, 74, 72
8, 67688, Note_on_c, 2, 77, 73
8, 67696, Note_on_c, 2, 71, 73
8, 67696, Note_on_c, 2, 83, 75
8, 67698, Note_on_c, 2, 68, 54
8, 67720, Note_off_c, 2, 71, 64
8, 67720, Note_off_c, 2, 74, 64
8, 67728, Note_off_c, 2, 83, 64
8, 67732, Note_off_c, 2, 68, 64
8, 67732, Note_off_c, 2, 77, 64
8, 68172, Note_on_c, 2, 89, 45
8, 68174, Note_on_c, 2, 55, 32
8, 68174, Note_on_c, 2, 77, 35
8, 68176, Note_on_c, 2, 83, 36
8, 68178, Note_on_c, 2, 50, 52
8, 68218, Note_off_c, 2, 83, 64
8, 68234, Note_on_c, 2, 84, 46
8, 68248, Note_off_c, 2, 77, 64
8, 68290, Note_off_c, 2, 50, 64
8, 68290, Note_off_c, 2, 55, 64
8, 68298, Note_off_c, 2, 89, 64
8, 68318, Note_off_c, 2, 84, 64
8, 68348, Note_on_c, 2, 89, 55
8, 68354, Note_on_c, 2, 84, 74
8, 68356, Note_on_c, 2, 55, 59
8, 68356, Note_on_c, 2, 77, 55
8, 68360, Note_on_c, 2, 50, 60
8, 68398, Note_off_c, 2, 84, 64
8, 68408, Note_off_c, 2, 77, 64
8, 68412, Note_off_c, 2, 50, 64
8, 68412, Note_off_c, 2, 55, 64
8, 68424, Note_off_c, 2, 89, 64
8, 69136, Note_on_c, 2, 74, 69
8, 69144, Note_on_c, 2, 41, 36
8, 69146, Note_on_c, 2, 63, 37
8, 69146, Note_on_c, 2, 80, 51
8, 69200, Note_off_c, 2, 74, 64
8, 69212, Note_on_c, 2, 75, 44
8, 69998, Note_off_c, 2, 80, 64
8, 70008, Note_off_c, 2, 75, 64
8, 70030, Note_off_c, 2, 41, 64
8, 70080, Note_off_c, 2, 63, 64
8, 70096, Note_on_c, 2, 73, 69
8, 70104, Note_on_c, 2, 46, 36
8, 70106, Note_on_c, 2, 62, 37
8, 70106, Note_on_c, 2, 80, 51
8, 70160, Note_off_c, 2, 73, 64
8, 70172, Note_on_c, 2, 74, 44
8, 70958, Note_off_c, 2, 80, 64
8, 70968, Note_off_c, 2, 74, 64
8, 70990, Note_off_c, 2, 46, 64
8, 71040, Note_off_c, 2, 62, 64
8, 71226, Note_on_c, 2, 82, 76
8, 71288, Note_off_c, 2, 82, 64
8, 71298, Note_on_c, 2, 75, 26
8, 71388, Note_off_c, 2, 75, 64
8, 71536, Note_on_c, 2, 63, 56
8, 71542, Note_on_c, 2, 82, 63
8, 71542, Note_on_c, 2, 67, 58
8, 71542, Note_on_c, 2, 72, 67
8, 71580, Note_off_c, 2, 72, 64
8, 71588, Note_off_c, 2, 63, 64
8, 71594, Note_off_c, 2, 67, 64
8, 71600, Note_off_c, 2, 82, 64
8, 72006, Note_on_c, 2, 42, 59
8, 72008, Note_on_c, 2, 72, 67
8, 72008, Note_on_c, 2, 66, 68
8, 72010, Note_on_c, 2, 63, 64
8, 72060, Note_off_c, 2, 66, 64
8, 72060, Note_off_c, 2, 42, 64
8, 72068, Note_off_c, 2, 63, 64
8, 72084, Note_off_c, 2, 72, 64
8, 72500, Note_on_c, 2, 60, 49
8, 72504, Note_on_c, 2, 51, 54
8, 72504, Note_on_c, 2, 84, 75
8, 72504, Note_on_c, 2, 78, 63
8, 72508, Note_on_c, 2, 72, 67
8, 72564, Note_off_c, 2, 78, 64
8, 72812, Note_off_c, 2, 60, 64
8, 72830, Note_off_c, 2, 51, 64
8, 72868, Note_off_c, 2, 84, 64
8, 72870, Note_off_c, 2, 72, 64
8, 72928, Note_on_c, 2, 51, 30
8, 72960, Note_off_c, 2, 51, 64
8, 73146, Note_on_c, 2, 84, 76
8, 73208, Note_off_c, 2, 84, 64
8, 73218, Note_on_c, 2, 77, 26
8, 73308, Note_off_c, 2, 77, 64
8, 73456, Note_on_c, 2, 65, 56
8, 73462, Note_on_c, 2, 84, 63
8, 73462, Note_on_c, 2, 68, 58
8, 73462, Note_on_c, 2, 75, 67
8, 73500, Note_off_c, 2, 75, 64
8, 73508, Note_off_c, 2, 65, 64
8, 73514, Note_off_c, 2, 68, 64
8, 73520, Note_off_c, 2, 84, 64
8, 73932, Note_on_c, 2, 89, 45
8, 73934, Note_on_c, 2, 56, 32
8, 73934, Note_on_c, 2, 77, 35
8, 73936, Note_on_c, 2, 83, 36
8, 73938, Note_on_c, 2, 50, 52
8, 73978, Note_off_c, 2, 83, 64
8, 73994, Note_on_c, 2, 84, 46
8, 74008, Note_off_c, 2, 77, 64
8, 74050, Note_off_c, 2, 50, 64
8, 74050, Note_off_c, 2, 56, 64
8, 74058, Note_off_c, 2, 89, 64
8, 74078, Note_off_c, 2, 84, 64
8, 74108, Note_on_c, 2, 89, 55
8, 74114, Note_on_c, 2, 84, 74
8, 74116, Note_on_c, 2, 56, 59
8, 74116, Note_on_c, 2, 77, 55
8, 74120, Note_on_c, 2, 50, 60
8, 74158, Note_off_c, 2, 84, 64
8, 74168, Note_off_c, 2, 77, 64
8, 74172, Note_off_c, 2, 50, 64
8, 74172, Note_off_c, 2, 56, 64
8, 74184, Note_off_c, 2, 89, 64
8, 74900, Note_on_c, 2, 82, 62
8, 74900, Note_on_c, 2, 70, 57
8, 74900, Note_on_c, 2, 74, 41
8, 74906, Note_on_c, 2, 65, 50
8, 74934, Note_off_c, 2, 74, 64
8, 74946, Note_off_c, 2, 82, 64
8, 74948, Note_off_c, 2, 65, 64
8, 74948, Note_off_c, 2, 70, 64
8, 75372, Note_on_c, 2, 91, 45
8, 75374, Note_on_c, 2, 58, 32
8, 75374, Note_on_c, 2, 79, 35
8, 75376, Note_on_c, 2, 88, 31
8, 75378, Note_on_c, 2, 51, 52
8, 75418, Note_off_c, 2, 88, 64
8, 75434, Note_on_c, 2, 89, 55
8, 75448, Note_off_c, 2, 79, 64
8, 75490, Note_off_c, 2, 51, 64
8, 75490, Note_off_c, 2, 58, 64
8, 75498, Note_off_c, 2, 91, 64
8, 75518, Note_off_c, 2, 89, 64
8, 75548, Note_on_c, 2, 91, 55
8, 75554, Note_on_c, 2, 89, 74
8, 75556, Note_on_c, 2, 58, 59
8, 75556, Note_on_c, 2, 79, 55
8, 75560, Note_on_c, 2, 51, 60
8, 75598, Note_off_c, 2, 89, 64
8, 75608, Note_off_c, 2, 79, 64
8, 75612, Note_off_c, 2, 51, 64
8, 75612, Note_off_c, 2, 58, 64
8, 75624, Note_off_c, 2, 91, 64
8, 75852, Note_on_c, 2, 91, 45
8, 75854, Note_on_c, 2, 58, 32
8, 75854, Note_on_c, 2, 79, 35
8, 75856, Note_on_c, 2, 87, 31
8, 75858, Note_on_c, 2, 53, 52
8, 75898, Note_off_c, 2, 87, 64
8, 75914, Note_on_c, 2, 87, 55
8, 75928, Note_off_c, 2, 79, 64
8, 75970, Note_off_c, 2, 53, 64
8, 75970, Note_off_c, 2, 58, 64
8, 75978, Note_off_c, 2, 91, 64
8, 75998, Note_off_c, 2, 87, 64
8, 76028, Note_on_c, 2, 91, 55
8, 76034, Note_on_c, 2, 87, 74
8, 76036, Note_on_c, 2, 58, 59
8, 76036, Note_on_c, 2, 79, 55
8, 76040, Note_on_c, 2, 53, 60
8, 76078, Note_off_c, 2, 87, 64
8, 76088, Note_off_c, 2, 79, 64
8, 76092, Note_off_c, 2, 53, 64
8, 76092, Note_off_c, 2, 58, 64
8, 76104, Note_off_c, 2, 91, 64
8, 76332, Note_on_c, 2, 91, 45
8, 76334, Note_on_c, 2, 58, 32
8, 76334, Note_on_c, 2, 79, 35
8, 76336, Note_on_c, 2, 85, 31
8, 76338, Note_on_c, 2, 52, 52
8, 76378, Note_off_c, 2, 85, 64
8, 76394, Note_on_c, 2, 86, 55
8, 76408, Note_off_c, 2, 79, 64
8, 76450, Note_off_c, 2, 52, 64
8, 76450, Note_off_c, 2, 58, 64
8, 76458, Note_off_c, 2, 91, 64
8, 76478, Note_off_c, 2, 86, 64
8, 76508, Note_on_c, 2, 91, 55
8, 76514, Note_on_c, 2, 86, 74
8, 76516, Note_on_c, 2, 58, 59
8, 76516, Note_on_c, 2, 79, 55
8, 76520, Note_on_c, 2, 52, 60
8, 76558, Note_off_c, 2, 86, 64
8, 76568, Note_off_c, 2, 79, 64
8, 76572, Note_off_c, 2, 52, 64
8, 76572, Note_off_c, 2, 58, 64
8, 76584, Note_off_c, 2, 91, 64
8, 76802, Note_on_c, 2, 77, 52
8, 76804, Note_on_c, 2, 84, 32
8, 76842, Note_off_c, 2, 77, 64
8, 76844, Note_off_c, 2, 84, 64
8, 77040, Note_on_c, 2, 65, 39
8, 77048, Note_on_c, 2, 68, 31
8, 77048, Note_on_c, 2, 75, 36
8, 77050, Note_on_c, 2, 72, 33
8, 77054, Note_on_c, 2, 84, 38
8, 77058, Note_on_c, 2, 77, 39
8, 77094, Note_off_c, 2, 75, 64
8, 77094, Note_off_c, 2, 65, 64
8, 77102, Note_off_c, 2, 68, 64
8, 77104, Note_off_c, 2, 77, 64
8, 77104, Note_off_c, 2, 84, 64
8, 77104, Note_off_c, 2, 72, 64
8, 77290, Note_on_c, 2, 68, 23
8, 77294, Note_on_c, 2, 65, 30
8, 77296, Note_on_c, 2, 75, 19
8, 77298, Note_on_c, 2, 72, 19
8, 77302, Note_on_c, 2, 77, 40
8, 77302, Note_on_c, 2, 84, 23
8, 77402, Note_off_c, 2, 65, 64
8, 77406, Note_off_c, 2, 72, 64
8, 77406, Note_off_c, 2, 68, 64
8, 77412, Note_off_c, 2, 84, 64
8, 77412, Note_off_c, 2, 77, 64
8, 77412, Note_off_c, 2, 75, 64
8, 77468, Note_on_c, 2, 72, 51
8, 77468, Note_on_c, 2, 65, 51
8, 77468, Note_on_c, 2, 68, 41
8, 77470, Note_on_c, 2, 77, 45
8, 77470, Note_on_c, 2, 75, 47
8, 77478, Note_on_c, 2, 84, 26
8, 77504, Note_off_c, 2, 75, 64
8, 77506, Note_off_c, 2, 72, 64
8, 77508, Note_off_c, 2, 68, 64
8, 77508, Note_off_c, 2, 65, 64
8, 77516, Note_off_c, 2, 84, 64
8, 77516, Note_off_c, 2, 77, 64
8, 77776, Note_on_c, 2, 73, 69
8, 77784, Note_on_c, 2, 46, 36
8, 77786, Note_on_c, 2, 62, 37
8, 77786, Note_on_c, 2, 80, 51
8, 77840, Note_off_c, 2, 73, 64
8, 77852, Note_on_c, 2, 74, 44
8, 78638, Note_off_c, 2, 80, 64
8, 78648, Note_off_c, 2, 74, 64
8, 78670, Note_off_c, 2, 46, 64
8, 78720, Note_off_c, 2, 62, 64
8, 78908, Note_on_c, 2, 77, 82
8, 78990, Note_off_c, 2, 77, 64
8, 79126, Note_on_c, 2, 71, 49
8, 79184, Note_off_c, 2, 71, 64
8, 79200, Note_on_c, 2, 77, 68
8, 79350, Note_off_c, 2, 77, 64
8, 79630, Note_on_c, 2, 71, 47
8, 79680, Note_off_c, 2, 71, 64
8, 79866, Note_on_c, 2, 83, 104
8, 79912, Note_off_c, 2, 83, 64
8, 79948, Note_on_c, 2, 84, 73
8, 80016, Note_off_c, 2, 84, 64
8, 80114, Note_on_c, 2, 78, 70
8, 80148, Note_off_c, 2, 78, 64
8, 80184, Note_on_c, 2, 72, 49
8, 80248, Note_off_c, 2, 72, 64
8, 80352, Note_on_c, 2, 66, 89
8, 80402, Note_off_c, 2, 66, 64
8, 80416, Note_on_c, 2, 60, 52
8, 80564, Note_off_c, 2, 60, 64
8, 80646, Note_on_c, 2, 34, 38
8, 80648, Note_on_c, 2, 56, 51
8, 80650, Note_on_c, 2, 53, 48
8, 80658, Note_on_c, 2, 62, 51
8, 80680, Note_off_c, 2, 34, 64
8, 80690, Note_off_c, 2, 56, 64
8, 80692, Note_off_c, 2, 62, 64
8, 80696, Note_off_c, 2, 53, 64
8, 82566, Note_on_c, 2, 34, 38
8, 82568, Note_on_c, 2, 56, 51
8, 82570, Note_on_c, 2, 53, 48
8, 82578, Note_on_c, 2, 62, 51
8, 82600, Note_off_c, 2, 34, 64
8, 82610, Note_off_c, 2, 56, 64
8, 82612, Note_off_c, 2, 62, 64
8, 82616, Note_off_c, 2, 53, 64
8, 83532, Note_on_c, 2, 89, 45
8, 83534, Note_on_c, 2, 55, 32
8, 83534, Note_on_c, 2, 77, 35
8, 83536, Note_on_c, 2, 83, 36
8, 83538, Note_on_c, 2, 50, 52
8, 83578, Note_off_c, 2, 83, 64
8, 83594, Note_on_c, 2, 84, 46
8, 83608, Note_off_c, 2, 77, 64
8, 83650, Note_off_c, 2, 50, 64
8, 83650, Note_off_c, 2, 55, 64
8, 83658, Note_off_c, 2, 89, 64
8, 83678, Note_off_c, 2, 84, 64
8, 83708, Note_on_c, 2, 89, 55
8, 83714, Note_on_c, 2, 84, 74
8, 83716, Note_on_c, 2, 55, 59
8, 83716, Note_on_c, 2, 77, 55
8, 83720, Note_on_c, 2, 50, 60
8, 83758, Note_off_c, 2, 84, 64
8, 83768, Note_off_c, 2, 77, 64
8, 83772, Note_off_c, 2, 50, 64
8, 83772, Note_off_c, 2, 55, 64
8, 83784, Note_off_c, 2, 89, 64
8, 84482, Note_on_c, 2, 53, 40
8, 84482, Note_on_c, 2, 65, 49
8, 84492, Note_on_c, 2, 43, 45
8, 84494, Note_on_c, 2, 58, 46
8, 84496, Note_on_c, 2, 55, 50
8, 84528, Note_off_c, 2, 58, 64
8, 84538, Note_off_c, 2, 55, 64
8, 84542, Note_off_c, 2, 43, 64
8, 84542, Note_off_c, 2, 65, 64
8, 84542, Note_off_c, 2, 53, 64
8, 84968, Note_on_c, 2, 77, 72
8, 84968, Note_on_c, 2, 79, 73
8, 84976, Note_on_c, 2, 74, 73
8, 84976, Note_on_c, 2, 86, 75
8, 84978, Note_on_c, 2, 70, 54
8, 85000, Note_off_c, 2, 74, 64
8, 85000, Note_off_c, 2, 77, 64
8, 85008, Note_off_c, 2, 86, 64
8, 85012, Note_off_c, 2, 70, 64
8, 85012, Note_off_c, 2, 79, 64
8, 85452, Note_on_c, 2, 91, 45
8, 85454, Note_on_c, 2, 58, 32
8, 85454, Note_on_c, 2, 79, 35
8, 85456, Note_on_c, 2, 85, 36
8, 85458, Note_on_c, 2, 52, 52
8, 85498, Note_off_c, 2, 85, 64
8, 85514, Note_on_c, 2, 86, 46
8, 85528, Note_off_c, 2, 79, 64
8, 85570, Note_off_c, 2, 52, 64
8, 85570, Note_off_c, 2, 58, 64
8, 85578, Note_off_c, 2, 91, 64
8, 85598, Note_off_c, 2, 86, 64
8, 85628, Note_on_c, 2, 91, 55
8, 85634, Note_on_c, 2, 86, 74
8, 85636, Note_on_c, 2, 58, 59
8, 85636, Note_on_c, 2, 79, 55
8, 85640, Note_on_c, 2, 52, 60
8, 85678, Note_off_c, 2, 86, 64
8, 85688, Note_off_c, 2, 79, 64
8, 85692, Note_off_c, 2, 52, 64
8, 85692, Note_off_c, 2, 58, 64
8, 85704, Note_off_c, 2, 91, 64
8, 86412, Note_on_c, 2, 75, 52
8, 86538, Note_off_c, 2, 75, 64
8, 86596, Note_on_c, 2, 63, 56
8, 86856, Note_off_c, 2, 63, 64
8, 86894, Note_on_c, 2, 74, 75
8, 86894, Note_on_c, 2, 83, 79
8, 86908, Note_on_c, 2, 77, 20
8, 86946, Note_off_c, 2, 74, 64
8, 86960, Note_off_c, 2, 77, 64
8, 86996, Note_off_c, 2, 83, 64
8, 87046, Note_on_c, 2, 77, 39
8, 87074, Note_off_c, 2, 77, 64
8, 87074, Note_on_c, 2, 74, 59
8, 87094, Note_off_c, 2, 74, 64
8, 87136, Note_on_c, 2, 73, 63
8, 87138, Note_on_c, 2, 82, 62
8, 87138, Note_on_c, 2, 76, 69
8, 87262, Note_off_c, 2, 82, 64
8, 87270, Note_off_c, 2, 76, 64
8, 87276, Note_off_c, 2, 73, 64
8, 87324, Note_on_c, 2, 63, 44
8, 87350, Note_off_c, 2, 63, 64
8, 87366, Note_on_c, 2, 45, 38
8, 87368, Note_on_c, 2, 55, 51
8, 87370, Note_on_c, 2, 51, 48
8, 87378, Note_on_c, 2, 60, 51
8, 87400, Note_off_c, 2, 45, 64
8, 87410, Note_off_c, 2, 55, 64
8, 87412, Note_off_c, 2, 60, 64
8, 87416, Note_off_c, 2, 51, 64
8, 87856, Note_on_c, 2, 80, 69
8, 87864, Note_on_c, 2, 38, 58
8, 87866, Note_on_c, 2, 84, 51
8, 87866, Note_on_c, 2, 54, 48
8, 87920, Note_off_c, 2, 80, 64
8, 87932, Note_on_c, 2, 81, 44
8, 88320, Note_off_c, 2, 81, 64
8, 88320, Note_off_c, 2, 54, 64
8, 88320, Note_off_c, 2, 84, 64
8, 88320, Note_off_c, 2, 38, 64
8, 88494, Note_on_c, 2, 74, 64
8, 88494, Note_on_c, 2, 70, 76
8, 88570, Note_off_c, 2, 70, 64
8, 88578, Note_off_c, 2, 74, 64
8, 88582, Note_on_c, 2, 69, 44
8, 88582, Note_on_c, 2, 73, 50
8, 88654, Note_off_c, 2, 69, 64
8, 88658, Note_off_c, 2, 73, 64
8, 88734, Note_on_c, 2, 74, 64
8, 88734, Note_on_c, 2, 70, 83
8, 88806, Note_off_c, 2, 70, 64
8, 88814, Note_on_c, 2, 69, 50
8, 88818, Note_off_c, 2, 74, 64
8, 88822, Note_on_c, 2, 73, 71
8, 88962, Note_off_c, 2, 73, 64
8, 88974, Note_off_c, 2, 69, 64
8, 88974, Note_on_c, 2, 70, 85
8, 88974, Note_on_c, 2, 74, 66
8, 89046, Note_off_c, 2, 70, 64
8, 89058, Note_off_c, 2, 74, 64
8, 89206, Note_on_c, 2, 74, 61
8, 89206, Note_on_c, 2, 70, 80
8, 89274, Note_off_c, 2, 70, 64
8, 89280, Note_off_c, 2, 74, 64
8, 89292, Note_on_c, 2, 91, 45
8, 89294, Note_on_c, 2, 58, 32
8, 89294, Note_on_c, 2, 79, 35
8, 89296, Note_on_c, 2, 85, 31
8, 89298, Note_on_c, 2, 53, 52
8, 89338, Note_off_c, 2, 85, 64
8, 89354, Note_on_c, 2, 85, 55
8, 89368, Note_off_c, 2, 79, 64
8, 89410, Note_off_c, 2, 53, 64
8, 89410, Note_off_c, 2, 58, 64
8, 89418, Note_off_c, 2, 91, 64
8, 89438, Note_off_c, 2, 85, 64
8, 89468, Note_on_c, 2, 91, 55
8, 89474, Note_on_c, 2, 85, 74
8, 89476, Note_on_c, 2, 58, 59
8, 89476, Note_on_c, 2, 79, 55
8, 89480, Note_on_c, 2, 53, 60
8, 89518, Note_off_c, 2, 85, 64
8, 89528, Note_off_c, 2, 79, 64
8, 89532, Note_off_c, 2, 53, 64
8, 89532, Note_off_c, 2, 58, 64
8, 89544, Note_off_c, 2, 91, 64
8, 89782, Note_on_c, 2, 76, 67
8, 89908, Note_off_c, 2, 76, 64
8, 89936, Note_on_c, 2, 48, 50
8, 89990, Note_off_c, 2, 48, 64
8, 90012, Note_on_c, 2, 84, 67
8, 90012, Note_on_c, 2, 72, 63
8, 90096, Note_off_c, 2, 84, 64
8, 90134, Note_off_c, 2, 72, 64
8, 90262, Note_on_c, 2, 75, 67
8, 90388, Note_off_c, 2, 75, 64
8, 90416, Note_on_c, 2, 41, 50
8, 90470, Note_off_c, 2, 41, 64
8, 90492, Note_on_c, 2, 84, 67
8, 90492, Note_on_c, 2, 72, 63
8, 90576, Note_off_c, 2, 84, 64
8, 90614, Note_off_c, 2, 72, 64
8, 90740, Note_on_c, 2, 84, 62
8, 90740, Note_on_c, 2, 72, 57
8, 90740, Note_on_c, 2, 76, 41
8, 90746, Note_on_c, 2, 67, 50
8, 90774, Note_off_c, 2, 76, 64
8, 90786, Note_off_c, 2, 84, 64
8, 90788, Note_off_c, 2, 67, 64
8, 90788, Note_off_c, 2, 72, 64
8, 91202, Note_on_c, 2, 41, 56
8, 91290, Note_off_c, 2, 41, 64
8, 91384, Note_on_c, 2, 68, 75
8, 91390, Note_on_c, 2, 75, 72
8, 91390, Note_on_c, 2, 84, 64
8, 91424, Note_off_c, 2, 75, 64
8, 91434, Note_off_c, 2, 84, 64
8, 91438, Note_off_c, 2, 68, 64
8, 91688, Note_on_c, 2, 77, 87
8, 91688, Note_on_c, 2, 74, 90
8, 91692, Note_on_c, 2, 41, 74
8, 91808, Note_off_c, 2, 41, 64
8, 91822, Note_off_c, 2, 77, 64
8, 91824, Note_off_c, 2, 74, 64
8, 91870, Note_on_c, 2, 74, 43
8, 91876, Note_on_c, 2, 77, 43
8, 91876, Note_on_c, 2, 41, 42
8, 91898, Note_off_c, 2, 74, 64
8, 91908, Note_off_c, 2, 77, 64
8, 91912, Note_off_c, 2, 41, 64
8, 92346, Note_on_c, 2, 82, 76
8, 92408, Note_off_c, 2, 82, 64
8, 92418, Note_on_c, 2, 75, 26
8, 92508, Note_off_c, 2, 75, 64
8, 92656, Note_on_c, 2, 63, 56
8, 92662, Note_on_c, 2, 82, 63
8, 92662, Note_on_c, 2, 67, 58
8, 92662, Note_on_c, 2, 72, 67
8, 92700, Note_off_c, 2, 72, 64
8, 92708, Note_off_c, 2, 63, 64
8, 92714, Note_off_c, 2, 67, 64
8, 92720, Note_off_c, 2, 82, 64
8, 93140, Note_on_c, 2, 67, 42
8, 93144, Note_on_c, 2, 75, 37
8, 93270, Note_off_c, 2, 67, 64
8, 93278, Note_off_c, 2, 75, 64
8, 93370, Note_on_c, 2, 68, 59
8, 93370, Note_on_c, 2, 75, 62
8, 93512, Note_off_c, 2, 68, 64
8, 93518, Note_off_c, 2, 75, 64
8, 93540, Note_on_c, 2, 58, 60
8, 93596, Note_off_c, 2, 58, 64
8, 93606, Note_on_c, 2, 75, 50
8, 93610, Note_on_c, 2, 69, 65
8, 93738, Note_off_c, 2, 75, 64
8, 93744, Note_off_c, 2, 69, 64
8, 93784, Note_on_c, 2, 75, 51
8, 93784, Note_on_c, 2, 70, 65
8, 93838, Note_off_c, 2, 70, 64
8, 93844, Note_off_c, 2, 75, 64
8, 94086, Note_on_c, 2, 57, 76
8, 94108, Note_on_c, 2, 58, 79
8, 94130, Note_off_c, 2, 57, 64
8, 94272, Note_on_c, 2, 46, 80
8, 94298, Note_off_c, 2, 58, 64
8, 94452, Note_off_c, 2, 46, 64
8, 94588, Note_on_c, 2, 80, 76
8, 94588, Note_on_c, 2, 65, 85
8, 94592, Note_on_c, 2, 89, 76
8, 94668, Note_off_c, 2, 80, 64
8, 94672, Note_off_c, 2, 65, 64
8, 94676, Note_off_c, 2, 89, 64
8, 95050, Note_on_c, 2, 81, 92
8, 95050, Note_on_c, 2, 66, 90
8, 95056, Note_on_c, 2, 89, 76
8, 95116, Note_off_c, 2, 81, 64
8, 95130, Note_off_c, 2, 66, 64
8, 95144, Note_off_c, 2, 89, 64
8, 95452, Note_on_c, 2, 67, 84
8, 95452, Note_on_c, 2, 82, 85
8, 95454, Note_on_c, 2, 89, 76
8, 96000, Note_off_c, 2, 89, 64
8, 96000, Note_off_c, 2, 82, 64
8, 96000, Note_off_c, 2, 67, 64
8, 96000, Control_c, 2, 64, 0
8, 96000, End_track
9, 0, Start_track
9, 0, Title_t, "Melody / Acoustic piano"
9, 0, Program_c, 3, 0
9, 0, Control_c, 3, 7, 110
9, 0, Control_c, 3, 121, 0
9, 0, Control_c, 3, 10, 64
9, 0, Control_c, 3, 123, 0
9, 0, Control_c, 3, 91, 40
9, 0, Control_c, 3, 93, 0
9, 1134, Note_on_c, 3, 63, 113
9, 1402, Note_off_c, 3, 63, 64
9, 1458, Note_on_c, 3, 65, 82
9, 1568, Note_off_c, 3, 65, 64
9, 1694, Note_on_c, 3, 67, 110
9, 1818, Note_off_c, 3, 67, 64
9, 1938, Note_on_c, 3, 68, 116
9, 2548, Note_off_c, 3, 68, 64
9, 2574, Note_on_c, 3, 67, 110
9, 2824, Note_off_c, 3, 67, 64
9, 2906, Note_on_c, 3, 67, 102
9, 3520, Note_off_c, 3, 67, 64
9, 3552, Note_on_c, 3, 58, 100
9, 3846, Note_off_c, 3, 58, 64
9, 3858, Note_on_c, 3, 59, 102
9, 4494, Note_off_c, 3, 59, 64
9, 4500, Note_on_c, 3, 68, 116
9, 4740, Note_off_c, 3, 68, 64
9, 4812, Note_on_c, 3, 68, 105
9, 5396, Note_off_c, 3, 68, 64
9, 5468, Note_on_c, 3, 65, 113
9, 5652, Note_off_c, 3, 65, 64
9, 5778, Note_on_c, 3, 68, 113
9, 6370, Note_off_c, 3, 68, 64
9, 6428, Note_on_c, 3, 67, 116
9, 6648, Note_off_c, 3, 67, 64
9, 6752, Note_on_c, 3, 67, 100
9, 7348, Note_off_c, 3, 67, 64
9, 7384, Note_on_c, 3, 58, 102
9, 7690, Note_off_c, 3, 58, 64
9, 7698, Note_on_c, 3, 59, 95
9, 8168, Note_off_c, 3, 59, 64
9, 8188, Note_on_c, 3, 70, 113
9, 8474, Note_off_c, 3, 70, 64
9, 8560, Note_on_c, 3, 70, 110
9, 9220, Note_off_c, 3, 70, 64
9, 9372, Note_on_c, 3, 70, 116
9, 9510, Note_off_c, 3, 70, 64
9, 9622, Note_on_c, 3, 72, 107
9, 10188, Note_off_c, 3, 72, 64
9, 10256, Note_on_c, 3, 70, 107
9, 10430, Note_off_c, 3, 70, 64
9, 10576, Note_on_c, 3, 72, 102
9, 11184, Note_off_c, 3, 72, 64
9, 11226, Note_on_c, 3, 70, 110
9, 11414, Note_off_c, 3, 70, 64
9, 11556, Note_on_c, 3, 72, 107
9, 11950, Note_off_c, 3, 72, 64
9, 12030, Note_on_c, 3, 62, 107
9, 12326, Note_off_c, 3, 62, 64
9, 12404, Note_on_c, 3, 62, 113
9, 13140, Note_off_c, 3, 62, 64
9, 13140, Note_on_c, 3, 58, 113
9, 13350, Note_off_c, 3, 58, 64
9, 13462, Note_on_c, 3, 70, 122
9, 13776, Note_off_c, 3, 70, 64
9, 13944, Note_on_c, 3, 70, 119
9, 14224, Note_off_c, 3, 70, 64
9, 14332, Note_on_c, 3, 70, 122
9, 14456, Note_off_c, 3, 70, 64
9, 14656, Note_on_c, 3, 73, 116
9, 15056, Note_on_c, 3, 72, 105
9, 15058, Note_off_c, 3, 73, 64
9, 15360, Note_off_c, 3, 72, 64
9, 15376, Note_on_c, 3, 70, 110
9, 15848, Note_off_c, 3, 70, 64
9, 15866, Note_on_c, 3, 60, 100
9, 15990, Note_off_c, 3, 60, 64
9, 16104, Note_on_c, 3, 60, 110
9, 16406, Note_off_c, 3, 60, 64
9, 16508, Note_on_c, 3, 62, 110
9, 16836, Note_off_c, 3, 62, 64
9, 16840, Note_on_c, 3, 63, 105
9, 16996, Note_off_c, 3, 63, 64
9, 17066, Note_on_c, 3, 65, 98
9, 17246, Note_off_c, 3, 65, 64
9, 17298, Note_on_c, 3, 68, 113
9, 18082, Note_off_c, 3, 68, 64
9, 18122, Note_on_c, 3, 67, 110
9, 18234, Note_off_c, 3, 67, 64
9, 18300, Note_on_c, 3, 67, 100
9, 19114, Note_off_c, 3, 67, 64
9, 19118, Note_on_c, 3, 58, 105
9, 19252, Note_on_c, 3, 59, 87
9, 19286, Note_off_c, 3, 58, 64
9, 19856, Note_on_c, 3, 68, 127
9, 19858, Note_off_c, 3, 59, 64
9, 20084, Note_off_c, 3, 68, 64
9, 20176, Note_on_c, 3, 68, 102
9, 20812, Note_off_c, 3, 68, 64
9, 20818, Note_on_c, 3, 65, 110
9, 21138, Note_off_c, 3, 65, 64
9, 21146, Note_on_c, 3, 68, 116
9, 21758, Note_off_c, 3, 68, 64
9, 21780, Note_on_c, 3, 67, 113
9, 22024, Note_off_c, 3, 67, 64
9, 22098, Note_on_c, 3, 67, 102
9, 22268, Note_on_c, 3, 58, 80
9, 22278, Note_off_c, 3, 67, 64
9, 22432, Note_on_c, 3, 60, 100
9, 22460, Note_off_c, 3, 58, 64
9, 22578, Note_off_c, 3, 60, 64
9, 22582, Note_on_c, 3, 62, 105
9, 22746, Note_on_c, 3, 63, 107
9, 22750, Note_off_c, 3, 62, 64
9, 22938, Note_off_c, 3, 63, 64
9, 22956, Note_on_c, 3, 60, 105
9, 23514, Note_off_c, 3, 60, 64
9, 23530, Note_on_c, 3, 70, 116
9, 23848, Note_off_c, 3, 70, 64
9, 23932, Note_on_c, 3, 70, 107
9, 24542, Note_off_c, 3, 70, 64
9, 24670, Note_on_c, 3, 71, 107
9, 24880, Note_off_c, 3, 71, 64
9, 25004, Note_on_c, 3, 74, 105
9, 25128, Note_off_c, 3, 74, 64
9, 25222, Note_on_c, 3, 72, 102
9, 25302, Note_off_c, 3, 72, 64
9, 25454, Note_on_c, 3, 74, 116
9, 25634, Note_off_c, 3, 74, 64
9, 25636, Note_on_c, 3, 72, 89
9, 25712, Note_off_c, 3, 72, 64
9, 25856, Note_on_c, 3, 74, 116
9, 25976, Note_off_c, 3, 74, 64
9, 26096, Note_on_c, 3, 72, 100
9, 26296, Note_off_c, 3, 72, 64
9, 26428, Note_on_c, 3, 75, 107
9, 26552, Note_off_c, 3, 75, 64
9, 26608, Note_on_c, 3, 74, 85
9, 26746, Note_on_c, 3, 72, 102
9, 26748, Note_off_c, 3, 74, 64
9, 26920, Note_on_c, 3, 67, 102
9, 26922, Note_off_c, 3, 72, 64
9, 28418, Note_off_c, 3, 67, 64
9, 28572, Note_on_c, 3, 67, 105
9, 28690, Note_off_c, 3, 67, 64
9, 28834, Note_on_c, 3, 68, 119
9, 29166, Note_off_c, 3, 68, 64
9, 29306, Note_on_c, 3, 70, 107
9, 29666, Note_off_c, 3, 70, 64
9, 29780, Note_on_c, 3, 72, 105
9, 30242, Note_off_c, 3, 72, 64
9, 30262, Note_on_c, 3, 62, 122
9, 30704, Note_off_c, 3, 62, 64
9, 30730, Note_on_c, 3, 63, 119
9, 31680, Note_off_c, 3, 63, 64
9, 63378, Note_on_c, 3, 68, 116
9, 63988, Note_off_c, 3, 68, 64
9, 64014, Note_on_c, 3, 67, 110
9, 64264, Note_off_c, 3, 67, 64
9, 64346, Note_on_c, 3, 67, 102
9, 64960, Note_off_c, 3, 67, 64
9, 64992, Note_on_c, 3, 58, 100
9, 65286, Note_off_c, 3, 58, 64
9, 65298, Note_on_c, 3, 59, 102
9, 65934, Note_off_c, 3, 59, 64
9, 65940, Note_on_c, 3, 68, 116
9, 66180, Note_off_c, 3, 68, 64
9, 66252, Note_on_c, 3, 68, 105
9, 66836, Note_off_c, 3, 68, 64
9, 66908, Note_on_c, 3, 65, 113
9, 67092, Note_off_c, 3, 65, 64
9, 67218, Note_on_c, 3, 68, 113
9, 67810, Note_off_c, 3, 68, 64
9, 67868, Note_on_c, 3, 67, 116
9, 68088, Note_off_c, 3, 67, 64
9, 68192, Note_on_c, 3, 67, 100
9, 68788, Note_off_c, 3, 67, 64
9, 68824, Note_on_c, 3, 58, 102
9, 69130, Note_off_c, 3, 58, 64
9, 69138, Note_on_c, 3, 59, 95
9, 69608, Note_off_c, 3, 59, 64
9, 69628, Note_on_c, 3, 70, 113
9, 69914, Note_off_c, 3, 70, 64
9, 70000, Note_on_c, 3, 70, 110
9, 70660, Note_off_c, 3, 70, 64
9, 70812, Note_on_c, 3, 70, 116
9, 70950, Note_off_c, 3, 70, 64
9, 71062, Note_on_c, 3, 72, 107
9, 71628, Note_off_c, 3, 72, 64
9, 71696, Note_on_c, 3, 70, 107
9, 71870, Note_off_c, 3, 70, 64
9, 72016, Note_on_c, 3, 72, 102
9, 72624, Note_off_c, 3, 72, 64
9, 72666, Note_on_c, 3, 70, 110
9, 72854, Note_off_c, 3, 70, 64
9, 72996, Note_on_c, 3, 72, 107
9, 73390, Note_off_c, 3, 72, 64
9, 73470, Note_on_c, 3, 62, 107
9, 73766, Note_off_c, 3, 62, 64
9, 73844, Note_on_c, 3, 62, 113
9, 74580, Note_off_c, 3, 62, 64
9, 74580, Note_on_c, 3, 58, 113
9, 74790, Note_off_c, 3, 58, 64
9, 74902, Note_on_c, 3, 70, 122
9, 75216, Note_off_c, 3, 70, 64
9, 75384, Note_on_c, 3, 70, 119
9, 75664, Note_off_c, 3, 70, 64
9, 75772, Note_on_c, 3, 70, 122
9, 75896, Note_off_c, 3, 70, 64
9, 76096, Note_on_c, 3, 73, 116
9, 76496, Note_on_c, 3, 72, 105
9, 76498, Note_off_c, 3, 73, 64
9, 76800, Note_off_c, 3, 72, 64
9, 76816, Note_on_c, 3, 70, 110
9, 77288, Note_off_c, 3, 70, 64
9, 77306, Note_on_c, 3, 60, 100
9, 77430, Note_off_c, 3, 60, 64
9, 77544, Note_on_c, 3, 60, 110
9, 77846, Note_off_c, 3, 60, 64
9, 77948, Note_on_c, 3, 62, 110
9, 78276, Note_off_c, 3, 62, 64
9, 78280, Note_on_c, 3, 63, 105
9, 78436, Note_off_c, 3, 63, 64
9, 78506, Note_on_c, 3, 65, 98
9, 78686, Note_off_c, 3, 65, 64
9, 78738, Note_on_c, 3, 68, 113
9, 79522, Note_off_c, 3, 68, 64
9, 79562, Note_on_c, 3, 67, 110
9, 79674, Note_off_c, 3, 67, 64
9, 79740, Note_on_c, 3, 67, 100
9, 80554, Note_off_c, 3, 67, 64
9, 80558, Note_on_c, 3, 58, 105
9, 80692, Note_on_c, 3, 59, 87
9, 80726, Note_off_c, 3, 58, 64
9, 81296, Note_on_c, 3, 68, 127
9, 81298, Note_off_c, 3, 59, 64
9, 81524, Note_off_c, 3, 68, 64
9, 81616, Note_on_c, 3, 68, 102
9, 82252, Note_off_c, 3, 68, 64
9, 82258, Note_on_c, 3, 65, 110
9, 82578, Note_off_c, 3, 65, 64
9, 82586, Note_on_c, 3, 68, 116
9, 83198, Note_off_c, 3, 68, 64
9, 83220, Note_on_c, 3, 67, 113
9, 83464, Note_off_c, 3, 67, 64
9, 83538, Note_on_c, 3, 67, 102
9, 83708, Note_on_c, 3, 58, 80
9, 83718, Note_off_c, 3, 67, 64
9, 83872, Note_on_c, 3, 60, 100
9, 83900, Note_off_c, 3, 58, 64
9, 84018, Note_off_c, 3, 60, 64
9, 84022, Note_on_c, 3, 62, 105
9, 84186, Note_on_c, 3, 63, 107
9, 84190, Note_off_c, 3, 62, 64
9, 84378, Note_off_c, 3, 63, 64
9, 84396, Note_on_c, 3, 60, 105
9, 84954, Note_off_c, 3, 60, 64
9, 84970, Note_on_c, 3, 70, 116
9, 85288, Note_off_c, 3, 70, 64
9, 85372, Note_on_c, 3, 70, 107
9, 85982, Note_off_c, 3, 70, 64
9, 86110, Note_on_c, 3, 71, 107
9, 86320, Note_off_c, 3, 71, 64
9, 86444, Note_on_c, 3, 74, 105
9, 86568, Note_off_c, 3, 74, 64
9, 86662, Note_on_c, 3, 72, 102
9, 86742, Note_off_c, 3, 72, 64
9, 86894, Note_on_c, 3, 74, 116
9, 87074, Note_off_c, 3, 74, 64
9, 87076, Note_on_c, 3, 72, 89
9, 87152, Note_off_c, 3, 72, 64
9, 87296, Note_on_c, 3, 74, 116
9, 87416, Note_off_c, 3, 74, 64
9, 87536, Note_on_c, 3, 72, 100
9, 87736, Note_off_c, 3, 72, 64
9, 87868, Note_on_c, 3, 75, 107
9, 87992, Note_off_c, 3, 75, 64
9, 88048, Note_on_c, 3, 74, 85
9, 88186, Note_on_c, 3, 72, 102
9, 88188, Note_off_c, 3, 74, 64
9, 88360, Note_on_c, 3, 67, 102
9, 88362, Note_off_c, 3, 72, 64
9, 89858, Note_off_c, 3, 67, 64
9, 90012, Note_on_c, 3, 67, 105
9, 90130, Note_off_c, 3, 67, 64
9, 90274, Note_on_c, 3, 68, 119
9, 90606, Note_off_c, 3, 68, 64
9, 90746, Note_on_c, 3, 70, 107
9, 91106, Note_off_c, 3, 70, 64
9, 91220, Note_on_c, 3, 72, 105
9, 91682, Note_off_c, 3, 72, 64
9, 91702, Note_on_c, 3, 62, 122
9, 92144, Note_off_c, 3, 62, 64
9, 92170, Note_on_c, 3, 63, 119
9, 93172, Note_off_c, 3, 63, 64
9, 93298, Note_on_c, 3, 63, 110
9, 93454, Note_off_c, 3, 63, 64
9, 93626, Note_on_c, 3, 65, 100
9, 93728, Note_off_c, 3, 65, 64
9, 93854, Note_on_c, 3, 67, 113
9, 94002, Note_off_c, 3, 67, 64
9, 94582, Note_on_c, 3, 75, 95
9, 94584, Note_on_c, 3, 65, 102
9, 94586, Note_on_c, 3, 68, 105
9, 94642, Note_off_c, 3, 68, 64
9, 94650, Note_off_c, 3, 65, 64
9, 94700, Note_off_c, 3, 75, 64
9, 95062, Note_on_c, 3, 66, 82
9, 95064, Note_on_c, 3, 69, 82
9, 95064, Note_on_c, 3, 75, 82
9, 95134, Note_off_c, 3, 69, 64
9, 95148, Note_off_c, 3, 66, 64
9, 95180, Note_off_c, 3, 75, 64
9, 95432, Note_on_c, 3, 75, 98
9, 95434, Note_on_c, 3, 67, 98
9, 95436, Note_on_c, 3, 70, 100
9, 96002, Note_off_c, 3, 75, 64
9, 96002, Note_off_c, 3, 67, 64
9, 96002, Note_off_c, 3, 70, 64
9, 96002, End_track
10, 0, Start_track
10, 0, Title_t, "Strings / Slow strings"
10, 0, Program_c, 5, 49
10, 0, Control_c, 5, 7, 80
10, 0, Control_c, 5, 121, 0
10, 0, Control_c, 5, 10, 64
10, 0, Control_c, 5, 123, 0
10, 0, Control_c, 5, 91, 100
10, 0, Control_c, 5, 93, 85
10, 0, Control_c, 5, 64, 0
10, 1920, Note_on_c, 5, 46, 26
10, 1920, Note_on_c, 5, 54, 26
10, 1920, Note_on_c, 5, 56, 47
10, 1920, Note_on_c, 5, 62, 41
10, 1922, Note_on_c, 5, 59, 36
10, 1926, Note_on_c, 5, 50, 39
10, 2114, Control_c, 5, 64, 127
10, 2354, Control_c, 5, 0, 0
10, 2594, Control_c, 5, 0, 0
10, 2880, Note_off_c, 5, 50, 64
10, 2880, Note_off_c, 5, 59, 64
10, 2880, Note_off_c, 5, 62, 64
10, 2880, Note_off_c, 5, 56, 64
10, 2880, Note_off_c, 5, 54, 64
10, 2880, Note_off_c, 5, 46, 64
10, 2880, Note_on_c, 5, 39, 26
10, 2880, Note_on_c, 5, 51, 26
10, 2880, Note_on_c, 5, 55, 47
10, 2880, Note_on_c, 5, 62, 41
10, 2880, Control_c, 5, 64, 0
10, 2882, Note_on_c, 5, 58, 36
10, 2886, Note_on_c, 5, 50, 39
10, 3074, Control_c, 5, 64, 127
10, 3314, Control_c, 5, 0, 0
10, 3554, Control_c, 5, 0, 0
10, 3840, Note_off_c, 5, 50, 64
10, 3840, Note_off_c, 5, 58, 64
10, 3840, Note_off_c, 5, 62, 64
10, 3840, Note_off_c, 5, 55, 64
10, 3840, Note_off_c, 5, 51, 64
10, 3840, Note_off_c, 5, 39, 64
10, 3840, Note_on_c, 5, 46, 26
10, 3840, Note_on_c, 5, 54, 26
10, 3840, Note_on_c, 5, 56, 47
10, 3840, Note_on_c, 5, 62, 41
10, 3840, Control_c, 5, 64, 0
10, 3842, Note_on_c, 5, 59, 36
10, 3846, Note_on_c, 5, 50, 39
10, 4034, Control_c, 5, 64, 127
10, 4274, Control_c, 5, 0, 0
10, 4514, Control_c, 5, 0, 0
10, 5040, Control_c, 5, 0, 0
10, 5280, Control_c, 5, 0, 0
10, 5650, Control_c, 5, 64, 0
10, 5658, Note_off_c, 5, 50, 64
10, 5666, Note_off_c, 5, 56, 64
10, 5666, Note_off_c, 5, 46, 64
10, 5670, Note_off_c, 5, 62, 64
10, 5670, Note_off_c, 5, 54, 64
10, 5674, Note_off_c, 5, 59, 64
10, 5760, Note_on_c, 5, 46, 26
10, 5760, Note_on_c, 5, 54, 26
10, 5760, Note_on_c, 5, 56, 47
10, 5760, Note_on_c, 5, 62, 41
10, 5762, Note_on_c, 5, 59, 36
10, 5766, Note_on_c, 5, 50, 39
10, 5954, Control_c, 5, 64, 127
10, 6194, Control_c, 5, 0, 0
10, 6434, Control_c, 5, 0, 0
10, 6720, Note_off_c, 5, 50, 64
10, 6720, Note_off_c, 5, 59, 64
10, 6720, Note_off_c, 5, 62, 64
10, 6720, Note_off_c, 5, 56, 64
10, 6720, Note_off_c, 5, 54, 64
10, 6720, Note_off_c, 5, 46, 64
10, 6720, Note_on_c, 5, 39, 26
10, 6720, Note_on_c, 5, 51, 26
10, 6720, Note_on_c, 5, 55, 47
10, 6720, Note_on_c, 5, 62, 41
10, 6720, Control_c, 5, 64, 0
10, 6722, Note_on_c, 5, 58, 36
10, 6726, Note_on_c, 5, 50, 39
10, 6914, Control_c, 5, 64, 127
10, 7154, Control_c, 5, 0, 0
10, 7394, Control_c, 5, 0, 0
10, 7680, Note_off_c, 5, 50, 64
10, 7680, Note_off_c, 5, 58, 64
10, 7680, Note_off_c, 5, 62, 64
10, 7680, Note_off_c, 5, 55, 64
10, 7680, Note_off_c, 5, 51, 64
10, 7680, Note_off_c, 5, 39, 64
10, 7680, Note_on_c, 5, 41, 35
10, 7680, Note_on_c, 5, 53, 42
10, 7680, Note_on_c, 5, 56, 35
10, 7680, Control_c, 5, 64, 0
10, 7736, Note_on_c, 5, 63, 39
10, 7834, Control_c, 5, 64, 127
10, 8074, Control_c, 5, 0, 0
10, 8314, Control_c, 5, 0, 0
10, 8640, Note_off_c, 5, 63, 64
10, 8640, Note_off_c, 5, 56, 64
10, 8640, Note_off_c, 5, 53, 64
10, 8640, Note_off_c, 5, 41, 64
10, 8640, Note_on_c, 5, 46, 26
10, 8640, Note_on_c, 5, 55, 26
10, 8640, Note_on_c, 5, 56, 47
10, 8640, Note_on_c, 5, 62, 41
10, 8640, Control_c, 5, 64, 0
10, 8642, Note_on_c, 5, 60, 36
10, 8646, Note_on_c, 5, 50, 39
10, 8834, Control_c, 5, 64, 127
10, 9074, Control_c, 5, 0, 0
10, 9314, Control_c, 5, 0, 0
10, 9600, Note_off_c, 5, 50, 64
10, 9600, Note_off_c, 5, 60, 64
10, 9600, Note_off_c, 5, 62, 64
10, 9600, Note_off_c, 5, 56, 64
10, 9600, Note_off_c, 5, 55, 64
10, 9600, Note_off_c, 5, 46, 64
10, 9600, Note_on_c, 5, 39, 35
10, 9600, Note_on_c, 5, 51, 42
10, 9600, Note_on_c, 5, 55, 35
10, 9600, Control_c, 5, 64, 0
10, 9656, Note_on_c, 5, 60, 39
10, 9754, Control_c, 5, 64, 127
10, 9994, Control_c, 5, 0, 0
10, 10234, Control_c, 5, 0, 0
10, 10560, Note_off_c, 5, 60, 64
10, 10560, Note_off_c, 5, 55, 64
10, 10560, Note_off_c, 5, 51, 64
10, 10560, Note_off_c, 5, 39, 64
10, 10560, Note_on_c, 5, 42, 35
10, 10560, Note_on_c, 5, 54, 42
10, 10560, Note_on_c, 5, 57, 35
10, 10560, Control_c, 5, 64, 0
10, 10616, Note_on_c, 5, 63, 39
10, 10714, Control_c, 5, 64, 127
10, 10954, Control_c, 5, 0, 0
10, 11194, Control_c, 5, 0, 0
10, 11520, Note_off_c, 5, 63, 64
10, 11520, Note_off_c, 5, 57, 64
10, 11520, Note_off_c, 5, 54, 64
10, 11520, Note_off_c, 5, 42, 64
10, 11520, Note_on_c, 5, 41, 35
10, 11520, Note_on_c, 5, 53, 42
10, 11520, Note_on_c, 5, 56, 35
10, 11520, Control_c, 5, 64, 0
10, 11576, Note_on_c, 5, 63, 39
10, 11674, Control_c, 5, 64, 127
10, 11914, Control_c, 5, 0, 0
10, 12154, Control_c, 5, 0, 0
10, 12480, Note_off_c, 5, 63, 64
10, 12480, Note_off_c, 5, 56, 64
10, 12480, Note_off_c, 5, 53, 64
10, 12480, Note_off_c, 5, 41, 64
10, 12480, Note_on_c, 5, 62, 35
10, 12480, Note_on_c, 5, 34, 34
10, 12480, Note_on_c, 5, 50, 44
10, 12480, Note_on_c, 5, 56, 35
10, 12480, Control_c, 5, 64, 0
10, 12484, Note_on_c, 5, 65, 36
10, 12612, Control_c, 5, 64, 127
10, 12852, Control_c, 5, 0, 0
10, 13092, Control_c, 5, 0, 0
10, 13332, Control_c, 5, 0, 0
10, 13440, Note_off_c, 5, 65, 64
10, 13440, Note_off_c, 5, 56, 64
10, 13440, Note_off_c, 5, 50, 64
10, 13440, Note_off_c, 5, 34, 64
10, 13440, Note_off_c, 5, 62, 64
10, 13440, Control_c, 5, 0, 0
10, 13440, Control_c, 5, 64, 0
10, 13440, Note_on_c, 5, 55, 35
10, 13440, Note_on_c, 5, 50, 44
10, 13440, Note_on_c, 5, 39, 34
10, 13440, Note_on_c, 5, 62, 35
10, 13444, Note_on_c, 5, 65, 36
10, 13572, Control_c, 5, 64, 127
10, 13812, Control_c, 5, 0, 0
10, 13920, Note_off_c, 5, 65, 64
10, 13920, Note_off_c, 5, 62, 64
10, 13920, Note_off_c, 5, 39, 64
10, 13920, Note_off_c, 5, 50, 64
10, 13920, Note_off_c, 5, 55, 64
10, 13920, Note_on_c, 5, 38, 35
10, 13920, Note_on_c, 5, 55, 42
10, 13920, Note_on_c, 5, 58, 35
10, 13920, Control_c, 5, 0, 0
10, 13920, Control_c, 5, 64, 0
10, 13976, Note_on_c, 5, 63, 39
10, 14074, Control_c, 5, 64, 127
10, 14314, Control_c, 5, 0, 0
10, 14400, Note_off_c, 5, 63, 64
10, 14400, Note_off_c, 5, 58, 64
10, 14400, Note_off_c, 5, 55, 64
10, 14400, Note_off_c, 5, 38, 64
10, 14400, Control_c, 5, 0, 0
10, 14400, Control_c, 5, 64, 0
10, 14400, Note_on_c, 5, 58, 35
10, 14400, Note_on_c, 5, 53, 44
10, 14400, Note_on_c, 5, 37, 34
10, 14400, Note_on_c, 5, 65, 35
10, 14404, Note_on_c, 5, 67, 36
10, 14532, Control_c, 5, 64, 127
10, 14772, Control_c, 5, 0, 0
10, 14880, Note_off_c, 5, 67, 64
10, 14880, Note_off_c, 5, 65, 64
10, 14880, Note_off_c, 5, 37, 64
10, 14880, Note_off_c, 5, 53, 64
10, 14880, Note_off_c, 5, 58, 64
10, 14880, Note_on_c, 5, 64, 35
10, 14880, Note_on_c, 5, 36, 34
10, 14880, Note_on_c, 5, 52, 44
10, 14880, Note_on_c, 5, 58, 35
10, 14880, Control_c, 5, 0, 0
10, 14880, Control_c, 5, 64, 0
10, 14884, Note_on_c, 5, 67, 36
10, 15012, Control_c, 5, 64, 127
10, 15252, Control_c, 5, 0, 0
10, 15360, Note_off_c, 5, 67, 64
10, 15360, Note_off_c, 5, 58, 64
10, 15360, Note_off_c, 5, 52, 64
10, 15360, Note_off_c, 5, 36, 64
10, 15360, Note_off_c, 5, 64, 64
10, 15360, Note_on_c, 5, 63, 35
10, 15360, Note_on_c, 5, 41, 34
10, 15360, Note_on_c, 5, 51, 44
10, 15360, Note_on_c, 5, 56, 35
10, 15360, Control_c, 5, 0, 0
10, 15360, Control_c, 5, 64, 0
10, 15364, Note_on_c, 5, 65, 36
10, 15492, Control_c, 5, 64, 127
10, 15732, Control_c, 5, 0, 0
10, 15972, Control_c, 5, 0, 0
10, 16212, Control_c, 5, 0, 0
10, 16320, Note_off_c, 5, 65, 64
10, 16320, Note_off_c, 5, 56, 64
10, 16320, Note_off_c, 5, 51, 64
10, 16320, Note_off_c, 5, 41, 64
10, 16320, Note_off_c, 5, 63, 64
10, 16320, Note_on_c, 5, 46, 35
10, 16320, Note_on_c, 5, 53, 42
10, 16320, Note_on_c, 5, 56, 35
10, 16320, Control_c, 5, 0, 0
10, 16320, Control_c, 5, 64, 0
10, 16376, Note_on_c, 5, 62, 39
10, 16474, Control_c, 5, 64, 127
10, 16714, Control_c, 5, 0, 0
10, 16954, Control_c, 5, 0, 0
10, 17280, Note_off_c, 5, 62, 64
10, 17280, Note_off_c, 5, 56, 64
10, 17280, Note_off_c, 5, 53, 64
10, 17280, Note_off_c, 5, 46, 64
10, 17280, Note_on_c, 5, 80, 33
10, 17280, Note_on_c, 5, 65, 38
10, 17280, Note_on_c, 5, 71, 39
10, 17280, Control_c, 5, 64, 0
10, 17284, Note_on_c, 5, 74, 38
10, 17284, Note_on_c, 5, 56, 43
10, 17284, Note_on_c, 5, 46, 28
10, 18240, Note_off_c, 5, 46, 64
10, 18240, Note_off_c, 5, 56, 64
10, 18240, Note_off_c, 5, 74, 64
10, 18240, Note_off_c, 5, 71, 64
10, 18240, Note_off_c, 5, 65, 64
10, 18240, Note_off_c, 5, 80, 64
10, 18240, Note_on_c, 5, 77, 39
10, 18240, Note_on_c, 5, 65, 38
10, 18240, Note_on_c, 5, 67, 39
10, 18244, Note_on_c, 5, 74, 52
10, 18244, Note_on_c, 5, 50, 43
10, 18244, Note_on_c, 5, 39, 28
10, 19200, Note_off_c, 5, 39, 64
10, 19200, Note_off_c, 5, 50, 64
10, 19200, Note_off_c, 5, 74, 64
10, 19200, Note_off_c, 5, 67, 64
10, 19200, Note_off_c, 5, 65, 64
10, 19200, Note_off_c, 5, 77, 64
10, 19586, Note_on_c, 5, 46, 22
10, 19594, Note_on_c, 5, 56, 41
10, 19598, Note_on_c, 5, 62, 36
10, 19598, Note_on_c, 5, 74, 37
10, 19598, Note_on_c, 5, 66, 30
10, 19598, Note_on_c, 5, 68, 42
10, 19602, Note_on_c, 5, 71, 38
10, 19634, Control_c, 5, 64, 127
10, 19874, Control_c, 5, 0, 0
10, 20114, Control_c, 5, 0, 0
10, 20400, Control_c, 5, 0, 0
10, 20640, Control_c, 5, 0, 0
10, 21066, Control_c, 5, 64, 0
10, 21114, Note_off_c, 5, 68, 64
10, 21118, Note_off_c, 5, 46, 64
10, 21118, Note_off_c, 5, 56, 64
10, 21120, Note_off_c, 5, 66, 64
10, 21120, Note_off_c, 5, 74, 64
10, 21120, Note_off_c, 5, 62, 64
10, 21120, Note_off_c, 5, 71, 64
10, 21120, Note_on_c, 5, 78, 39
10, 21120, Note_on_c, 5, 65, 38
10, 21120, Note_on_c, 5, 68, 39
10, 21124, Note_on_c, 5, 74, 52
10, 21124, Note_on_c, 5, 50, 43
10, 21124, Note_on_c, 5, 34, 28
10, 22080, Note_off_c, 5, 34, 64
10, 22080, Note_off_c, 5, 50, 64
10, 22080, Note_off_c, 5, 74, 64
10, 22080, Note_off_c, 5, 68, 64
10, 22080, Note_off_c, 5, 65, 64
10, 22080, Note_off_c, 5, 78, 64
10, 22080, Note_on_c, 5, 74, 39
10, 22080, Note_on_c, 5, 65, 38
10, 22080, Note_on_c, 5, 67, 39
10, 22084, Note_on_c, 5, 70, 52
10, 22084, Note_on_c, 5, 50, 43
10, 22084, Note_on_c, 5, 34, 28
10, 23040, Note_off_c, 5, 34, 64
10, 23040, Note_off_c, 5, 50, 64
10, 23040, Note_off_c, 5, 70, 64
10, 23040, Note_off_c, 5, 67, 64
10, 23040, Note_off_c, 5, 65, 64
10, 23040, Note_off_c, 5, 74, 64
10, 23040, Note_on_c, 5, 82, 33
10, 23040, Note_on_c, 5, 67, 38
10, 23040, Note_on_c, 5, 74, 39
10, 23044, Note_on_c, 5, 77, 38
10, 23044, Note_on_c, 5, 58, 43
10, 23044, Note_on_c, 5, 43, 28
10, 24000, Note_off_c, 5, 43, 64
10, 24000, Note_off_c, 5, 58, 64
10, 24000, Note_off_c, 5, 77, 64
10, 24000, Note_off_c, 5, 74, 64
10, 24000, Note_off_c, 5, 67, 64
10, 24000, Note_off_c, 5, 82, 64
10, 24000, Note_on_c, 5, 82, 33
10, 24000, Note_on_c, 5, 69, 38
10, 24000, Note_on_c, 5, 74, 39
10, 24004, Note_on_c, 5, 76, 38
10, 24004, Note_on_c, 5, 58, 43
10, 24004, Note_on_c, 5, 48, 28
10, 24960, Note_off_c, 5, 48, 64
10, 24960, Note_off_c, 5, 58, 64
10, 24960, Note_off_c, 5, 76, 64
10, 24960, Note_off_c, 5, 74, 64
10, 24960, Note_off_c, 5, 69, 64
10, 24960, Note_off_c, 5, 82, 64
10, 24960, Note_on_c, 5, 79, 39
10, 24960, Note_on_c, 5, 70, 38
10, 24960, Note_on_c, 5, 72, 39
10, 24964, Note_on_c, 5, 75, 52
10, 24964, Note_on_c, 5, 55, 43
10, 24964, Note_on_c, 5, 39, 28
10, 25920, Note_off_c, 5, 39, 64
10, 25920, Note_off_c, 5, 55, 64
10, 25920, Note_off_c, 5, 75, 64
10, 25920, Note_off_c, 5, 72, 64
10, 25920, Note_off_c, 5, 70, 64
10, 25920, Note_off_c, 5, 79, 64
10, 25920, Note_on_c, 5, 67, 39
10, 25920, Note_on_c, 5, 63, 38
10, 25920, Note_on_c, 5, 75, 39
10, 25924, Note_on_c, 5, 45, 28
10, 25924, Note_on_c, 5, 48, 43
10, 25924, Note_on_c, 5, 72, 52
10, 26400, Note_off_c, 5, 72, 64
10, 26400, Note_off_c, 5, 48, 64
10, 26400, Note_off_c, 5, 45, 64
10, 26400, Note_off_c, 5, 75, 64
10, 26400, Note_off_c, 5, 63, 64
10, 26400, Note_off_c, 5, 67, 64
10, 26400, Note_on_c, 5, 81, 39
10, 26400, Note_on_c, 5, 69, 38
10, 26400, Note_on_c, 5, 72, 39
10, 26404, Note_on_c, 5, 78, 52
10, 26404, Note_on_c, 5, 54, 43
10, 26404, Note_on_c, 5, 38, 28
10, 26880, Note_off_c, 5, 38, 64
10, 26880, Note_off_c, 5, 54, 64
10, 26880, Note_off_c, 5, 78, 64
10, 26880, Note_off_c, 5, 72, 64
10, 26880, Note_off_c, 5, 69, 64
10, 26880, Note_off_c, 5, 81, 64
10, 27356, Note_on_c, 5, 43, 26
10, 27364, Note_on_c, 5, 77, 27
10, 27364, Note_on_c, 5, 58, 42
10, 27364, Note_on_c, 5, 65, 39
10, 27368, Note_on_c, 5, 74, 36
10, 27368, Note_on_c, 5, 70, 39
10, 27372, Note_on_c, 5, 67, 12
10, 27516, Control_c, 5, 64, 127
10, 27840, Note_off_c, 5, 67, 64
10, 27840, Note_off_c, 5, 70, 64
10, 27840, Note_off_c, 5, 74, 64
10, 27840, Note_off_c, 5, 65, 64
10, 27840, Note_off_c, 5, 58, 64
10, 27840, Note_off_c, 5, 77, 64
10, 27840, Note_off_c, 5, 43, 64
10, 27840, Control_c, 5, 64, 0
10, 27840, Note_on_c, 5, 73, 39
10, 27840, Note_on_c, 5, 67, 38
10, 27840, Note_on_c, 5, 82, 33
10, 27844, Note_on_c, 5, 48, 28
10, 27844, Note_on_c, 5, 58, 43
10, 27844, Note_on_c, 5, 77, 38
10, 28320, Note_off_c, 5, 77, 64
10, 28320, Note_off_c, 5, 58, 64
10, 28320, Note_off_c, 5, 48, 64
10, 28320, Note_off_c, 5, 82, 64
10, 28320, Note_off_c, 5, 67, 64
10, 28320, Note_off_c, 5, 73, 64
10, 28320, Note_on_c, 5, 82, 33
10, 28320, Note_on_c, 5, 68, 38
10, 28320, Note_on_c, 5, 72, 39
10, 28324, Note_on_c, 5, 76, 38
10, 28324, Note_on_c, 5, 58, 43
10, 28324, Note_on_c, 5, 48, 28
10, 28800, Note_off_c, 5, 48, 64
10, 28800, Note_off_c, 5, 58, 64
10, 28800, Note_off_c, 5, 76, 64
10, 28800, Note_off_c, 5, 72, 64
10, 28800, Note_off_c, 5, 68, 64
10, 28800, Note_off_c, 5, 82, 64
10, 28800, Note_on_c, 5, 68, 39
10, 28800, Note_on_c, 5, 67, 38
10, 28800, Note_on_c, 5, 77, 39
10, 28804, Note_on_c, 5, 41, 28
10, 28804, Note_on_c, 5, 51, 43
10, 28804, Note_on_c, 5, 75, 52
10, 29280, Note_off_c, 5, 75, 64
10, 29280, Note_off_c, 5, 51, 64
10, 29280, Note_off_c, 5, 41, 64
10, 29280, Note_off_c, 5, 77, 64
10, 29280, Note_off_c, 5, 67, 64
10, 29280, Note_off_c, 5, 68, 64
10, 29280, Note_on_c, 5, 82, 33
10, 29280, Note_on_c, 5, 67, 38
10, 29280, Note_on_c, 5, 73, 39
10, 29284, Note_on_c, 5, 76, 38
10, 29284, Note_on_c, 5, 58, 43
10, 29284, Note_on_c, 5, 48, 28
10, 29760, Note_off_c, 5, 48, 64
10, 29760, Note_off_c, 5, 58, 64
10, 29760, Note_off_c, 5, 76, 64
10, 29760, Note_off_c, 5, 73, 64
10, 29760, Note_off_c, 5, 67, 64
10, 29760, Note_off_c, 5, 82, 64
10, 29760, Note_on_c, 5, 68, 39
10, 29760, Note_on_c, 5, 67, 38
10, 29760, Note_on_c, 5, 79, 39
10, 29764, Note_on_c, 5, 41, 28
10, 29764, Note_on_c, 5, 51, 43
10, 29764, Note_on_c, 5, 75, 52
10, 30240, Note_off_c, 5, 75, 64
10, 30240, Note_off_c, 5, 51, 64
10, 30240, Note_off_c, 5, 41, 64
10, 30240, Note_off_c, 5, 79, 64
10, 30240, Note_off_c, 5, 67, 64
10, 30240, Note_off_c, 5, 68, 64
10, 30240, Note_on_c, 5, 80, 33
10, 30240, Note_on_c, 5, 65, 38
10, 30240, Note_on_c, 5, 71, 39
10, 30244, Note_on_c, 5, 74, 38
10, 30244, Note_on_c, 5, 56, 43
10, 30244, Note_on_c, 5, 46, 28
10, 30720, Note_off_c, 5, 46, 64
10, 30720, Note_off_c, 5, 56, 64
10, 30720, Note_off_c, 5, 74, 64
10, 30720, Note_off_c, 5, 71, 64
10, 30720, Note_off_c, 5, 65, 64
10, 30720, Note_off_c, 5, 80, 64
10, 30720, Note_on_c, 5, 79, 38
10, 30720, Note_on_c, 5, 63, 38
10, 30720, Note_on_c, 5, 70, 39
10, 30724, Note_on_c, 5, 72, 38
10, 30724, Note_on_c, 5, 55, 43
10, 30724, Note_on_c, 5, 39, 28
10, 32640, Note_off_c, 5, 70, 64
10, 32640, Note_off_c, 5, 63, 64
10, 32640, Note_off_c, 5, 79, 64
10, 32640, Note_off_c, 5, 39, 64
10, 32640, Note_off_c, 5, 55, 64
10, 32640, Note_off_c, 5, 72, 64
10, 32640, Note_on_c, 5, 80, 33
10, 32640, Note_on_c, 5, 66, 38
10, 32640, Note_on_c, 5, 71, 39
10, 32644, Note_on_c, 5, 74, 38
10, 32644, Note_on_c, 5, 56, 43
10, 32644, Note_on_c, 5, 46, 28
10, 33600, Note_off_c, 5, 46, 64
10, 33600, Note_off_c, 5, 56, 64
10, 33600, Note_off_c, 5, 74, 64
10, 33600, Note_off_c, 5, 71, 64
10, 33600, Note_off_c, 5, 66, 64
10, 33600, Note_off_c, 5, 80, 64
10, 33600, Note_on_c, 5, 77, 39
10, 33600, Note_on_c, 5, 65, 38
10, 33600, Note_on_c, 5, 67, 39
10, 33604, Note_on_c, 5, 74, 52
10, 33604, Note_on_c, 5, 50, 43
10, 33604, Note_on_c, 5, 39, 28
10, 34560, Note_off_c, 5, 39, 64
10, 34560, Note_off_c, 5, 50, 64
10, 34560, Note_off_c, 5, 74, 64
10, 34560, Note_off_c, 5, 67, 64
10, 34560, Note_off_c, 5, 65, 64
10, 34560, Note_off_c, 5, 77, 64
10, 34560, Note_on_c, 5, 80, 38
10, 34560, Note_on_c, 5, 65, 38
10, 34560, Note_on_c, 5, 71, 39
10, 34564, Note_on_c, 5, 74, 38
10, 34564, Note_on_c, 5, 56, 43
10, 34564, Note_on_c, 5, 46, 28
10, 36480, Note_off_c, 5, 71, 64
10, 36480, Note_off_c, 5, 65, 64
10, 36480, Note_off_c, 5, 80, 64
10, 36480, Note_off_c, 5, 46, 64
10, 36480, Note_off_c, 5, 56, 64
10, 36480, Note_off_c, 5, 74, 64
10, 36480, Note_on_c, 5, 78, 39
10, 36480, Note_on_c, 5, 66, 38
10, 36480, Note_on_c, 5, 68, 39
10, 36484, Note_on_c, 5, 74, 52
10, 36484, Note_on_c, 5, 50, 43
10, 36484, Note_on_c, 5, 34, 28
10, 37440, Note_off_c, 5, 34, 64
10, 37440, Note_off_c, 5, 50, 64
10, 37440, Note_off_c, 5, 74, 64
10, 37440, Note_off_c, 5, 68, 64
10, 37440, Note_off_c, 5, 66, 64
10, 37440, Note_off_c, 5, 78, 64
10, 37916, Note_on_c, 5, 39, 26
10, 37924, Note_on_c, 5, 74, 27
10, 37924, Note_on_c, 5, 55, 42
10, 37924, Note_on_c, 5, 62, 39
10, 37928, Note_on_c, 5, 70, 36
10, 37928, Note_on_c, 5, 67, 39
10, 37932, Note_on_c, 5, 65, 12
10, 38076, Control_c, 5, 64, 127
10, 38400, Note_off_c, 5, 65, 64
10, 38400, Note_off_c, 5, 67, 64
10, 38400, Note_off_c, 5, 70, 64
10, 38400, Note_off_c, 5, 62, 64
10, 38400, Note_off_c, 5, 55, 64
10, 38400, Note_off_c, 5, 74, 64
10, 38400, Note_off_c, 5, 39, 64
10, 38400, Control_c, 5, 64, 0
10, 38876, Note_on_c, 5, 41, 26
10, 38884, Note_on_c, 5, 75, 27
10, 38884, Note_on_c, 5, 56, 42
10, 38884, Note_on_c, 5, 63, 39
10, 38888, Note_on_c, 5, 71, 36
10, 38888, Note_on_c, 5, 68, 39
10, 38892, Note_on_c, 5, 65, 12
10, 39036, Control_c, 5, 64, 127
10, 39360, Note_off_c, 5, 65, 64
10, 39360, Note_off_c, 5, 68, 64
10, 39360, Note_off_c, 5, 71, 64
10, 39360, Note_off_c, 5, 63, 64
10, 39360, Note_off_c, 5, 56, 64
10, 39360, Note_off_c, 5, 75, 64
10, 39360, Note_off_c, 5, 41, 64
10, 39360, Note_on_c, 5, 79, 39
10, 39360, Note_on_c, 5, 65, 38
10, 39360, Note_on_c, 5, 68, 39
10, 39360, Control_c, 5, 64, 0
10, 39364, Note_on_c, 5, 74, 52
10, 39364, Note_on_c, 5, 50, 43
10, 39364, Note_on_c, 5, 34, 28
10, 40320, Note_off_c, 5, 34, 64
10, 40320, Note_off_c, 5, 50, 64
10, 40320, Note_off_c, 5, 74, 64
10, 40320, Note_off_c, 5, 68, 64
10, 40320, Note_off_c, 5, 65, 64
10, 40320, Note_off_c, 5, 79, 64
10, 40320, Note_on_c, 5, 79, 33
10, 40320, Note_on_c, 5, 63, 38
10, 40320, Note_on_c, 5, 70, 39
10, 40324, Note_on_c, 5, 72, 38
10, 40324, Note_on_c, 5, 55, 43
10, 40324, Note_on_c, 5, 39, 28
10, 41280, Note_off_c, 5, 39, 64
10, 41280, Note_off_c, 5, 55, 64
10, 41280, Note_off_c, 5, 72, 64
10, 41280, Note_off_c, 5, 70, 64
10, 41280, Note_off_c, 5, 63, 64
10, 41280, Note_off_c, 5, 79, 64
10, 41756, Note_on_c, 5, 42, 26
10, 41764, Note_on_c, 5, 75, 27
10, 41764, Note_on_c, 5, 57, 42
10, 41764, Note_on_c, 5, 63, 39
10, 41768, Note_on_c, 5, 72, 36
10, 41768, Note_on_c, 5, 69, 39
10, 41772, Note_on_c, 5, 66, 12
10, 41916, Control_c, 5, 64, 127
10, 42240, Note_off_c, 5, 66, 64
10, 42240, Note_off_c, 5, 69, 64
10, 42240, Note_off_c, 5, 72, 64
10, 42240, Note_off_c, 5, 63, 64
10, 42240, Note_off_c, 5, 57, 64
10, 42240, Note_off_c, 5, 75, 64
10, 42240, Note_off_c, 5, 42, 64
10, 42240, Note_on_c, 5, 75, 39
10, 42240, Note_on_c, 5, 67, 38
10, 42240, Note_on_c, 5, 68, 39
10, 42240, Control_c, 5, 64, 0
10, 42244, Note_on_c, 5, 72, 52
10, 42244, Note_on_c, 5, 51, 43
10, 42244, Note_on_c, 5, 36, 28
10, 43200, Note_off_c, 5, 36, 64
10, 43200, Note_off_c, 5, 51, 64
10, 43200, Note_off_c, 5, 72, 64
10, 43200, Note_off_c, 5, 68, 64
10, 43200, Note_off_c, 5, 67, 64
10, 43200, Note_off_c, 5, 75, 64
10, 43200, Note_on_c, 5, 80, 33
10, 43200, Note_on_c, 5, 65, 38
10, 43200, Note_on_c, 5, 72, 39
10, 43204, Note_on_c, 5, 74, 38
10, 43204, Note_on_c, 5, 56, 43
10, 43204, Note_on_c, 5, 46, 28
10, 44160, Note_off_c, 5, 46, 64
10, 44160, Note_off_c, 5, 56, 64
10, 44160, Note_off_c, 5, 74, 64
10, 44160, Note_off_c, 5, 72, 64
10, 44160, Note_off_c, 5, 65, 64
10, 44160, Note_off_c, 5, 80, 64
10, 44160, Note_on_c, 5, 67, 39
10, 44160, Note_on_c, 5, 65, 38
10, 44160, Note_on_c, 5, 74, 39
10, 44164, Note_on_c, 5, 34, 28
10, 44164, Note_on_c, 5, 50, 43
10, 44164, Note_on_c, 5, 70, 52
10, 44640, Note_off_c, 5, 70, 64
10, 44640, Note_off_c, 5, 50, 64
10, 44640, Note_off_c, 5, 34, 64
10, 44640, Note_off_c, 5, 74, 64
10, 44640, Note_off_c, 5, 65, 64
10, 44640, Note_off_c, 5, 67, 64
10, 44640, Note_on_c, 5, 79, 39
10, 44640, Note_on_c, 5, 67, 38
10, 44640, Note_on_c, 5, 70, 39
10, 44644, Note_on_c, 5, 75, 52
10, 44644, Note_on_c, 5, 51, 43
10, 44644, Note_on_c, 5, 38, 28
10, 45120, Note_off_c, 5, 38, 64
10, 45120, Note_off_c, 5, 51, 64
10, 45120, Note_off_c, 5, 75, 64
10, 45120, Note_off_c, 5, 70, 64
10, 45120, Note_off_c, 5, 67, 64
10, 45120, Note_off_c, 5, 79, 64
10, 45120, Note_on_c, 5, 73, 39
10, 45120, Note_on_c, 5, 67, 38
10, 45120, Note_on_c, 5, 82, 33
10, 45124, Note_on_c, 5, 37, 28
10, 45124, Note_on_c, 5, 58, 43
10, 45124, Note_on_c, 5, 77, 38
10, 45600, Note_off_c, 5, 77, 64
10, 45600, Note_off_c, 5, 58, 64
10, 45600, Note_off_c, 5, 37, 64
10, 45600, Note_off_c, 5, 82, 64
10, 45600, Note_off_c, 5, 67, 64
10, 45600, Note_off_c, 5, 73, 64
10, 45600, Note_on_c, 5, 79, 39
10, 45600, Note_on_c, 5, 67, 38
10, 45600, Note_on_c, 5, 70, 39
10, 45604, Note_on_c, 5, 76, 52
10, 45604, Note_on_c, 5, 52, 43
10, 45604, Note_on_c, 5, 36, 28
10, 46080, Note_off_c, 5, 36, 64
10, 46080, Note_off_c, 5, 52, 64
10, 46080, Note_off_c, 5, 76, 64
10, 46080, Note_off_c, 5, 70, 64
10, 46080, Note_off_c, 5, 67, 64
10, 46080, Note_off_c, 5, 79, 64
10, 46080, Note_on_c, 5, 75, 39
10, 46080, Note_on_c, 5, 67, 38
10, 46080, Note_on_c, 5, 68, 39
10, 46084, Note_on_c, 5, 72, 52
10, 46084, Note_on_c, 5, 51, 43
10, 46084, Note_on_c, 5, 36, 28
10, 47040, Note_off_c, 5, 36, 64
10, 47040, Note_off_c, 5, 51, 64
10, 47040, Note_off_c, 5, 72, 64
10, 47040, Note_off_c, 5, 68, 64
10, 47040, Note_off_c, 5, 67, 64
10, 47040, Note_off_c, 5, 75, 64
10, 47040, Note_on_c, 5, 79, 39
10, 47040, Note_on_c, 5, 67, 38
10, 47040, Note_on_c, 5, 68, 39
10, 47044, Note_on_c, 5, 74, 52
10, 47044, Note_on_c, 5, 50, 43
10, 47044, Note_on_c, 5, 34, 28
10, 48000, Note_off_c, 5, 34, 64
10, 48000, Note_off_c, 5, 50, 64
10, 48000, Note_off_c, 5, 74, 64
10, 48000, Note_off_c, 5, 68, 64
10, 48000, Note_off_c, 5, 67, 64
10, 48000, Note_off_c, 5, 79, 64
10, 48000, Note_on_c, 5, 78, 39
10, 48000, Note_on_c, 5, 65, 38
10, 48000, Note_on_c, 5, 68, 39
10, 48004, Note_on_c, 5, 74, 52
10, 48004, Note_on_c, 5, 50, 43
10, 48004, Note_on_c, 5, 34, 28
10, 48960, Note_off_c, 5, 34, 64
10, 48960, Note_off_c, 5, 50, 64
10, 48960, Note_off_c, 5, 74, 64
10, 48960, Note_off_c, 5, 68, 64
10, 48960, Note_off_c, 5, 65, 64
10, 48960, Note_off_c, 5, 78, 64
10, 49436, Note_on_c, 5, 39, 26
10, 49444, Note_on_c, 5, 74, 27
10, 49444, Note_on_c, 5, 55, 42
10, 49444, Note_on_c, 5, 62, 39
10, 49448, Note_on_c, 5, 70, 36
10, 49448, Note_on_c, 5, 67, 39
10, 49452, Note_on_c, 5, 65, 12
10, 49596, Control_c, 5, 64, 127
10, 49920, Note_off_c, 5, 65, 64
10, 49920, Note_off_c, 5, 67, 64
10, 49920, Note_off_c, 5, 70, 64
10, 49920, Note_off_c, 5, 62, 64
10, 49920, Note_off_c, 5, 55, 64
10, 49920, Note_off_c, 5, 74, 64
10, 49920, Note_off_c, 5, 39, 64
10, 49920, Note_on_c, 5, 78, 39
10, 49920, Note_on_c, 5, 66, 38
10, 49920, Note_on_c, 5, 68, 39
10, 49920, Control_c, 5, 64, 0
10, 49924, Note_on_c, 5, 74, 52
10, 49924, Note_on_c, 5, 50, 43
10, 49924, Note_on_c, 5, 34, 28
10, 51840, Note_off_c, 5, 68, 64
10, 51840, Note_off_c, 5, 66, 64
10, 51840, Note_off_c, 5, 78, 64
10, 51840, Note_off_c, 5, 34, 64
10, 51840, Note_off_c, 5, 50, 64
10, 51840, Note_off_c, 5, 74, 64
10, 51840, Note_on_c, 5, 78, 39
10, 51840, Note_on_c, 5, 65, 38
10, 51840, Note_on_c, 5, 68, 39
10, 51844, Note_on_c, 5, 74, 52
10, 51844, Note_on_c, 5, 50, 43
10, 51844, Note_on_c, 5, 34, 28
10, 52800, Note_off_c, 5, 34, 64
10, 52800, Note_off_c, 5, 50, 64
10, 52800, Note_off_c, 5, 74, 64
10, 52800, Note_off_c, 5, 68, 64
10, 52800, Note_off_c, 5, 65, 64
10, 52800, Note_off_c, 5, 78, 64
10, 52800, Note_on_c, 5, 74, 39
10, 52800, Note_on_c, 5, 65, 38
10, 52800, Note_on_c, 5, 67, 39
10, 52804, Note_on_c, 5, 70, 52
10, 52804, Note_on_c, 5, 50, 43
10, 52804, Note_on_c, 5, 34, 28
10, 53760, Note_off_c, 5, 34, 64
10, 53760, Note_off_c, 5, 50, 64
10, 53760, Note_off_c, 5, 70, 64
10, 53760, Note_off_c, 5, 67, 64
10, 53760, Note_off_c, 5, 65, 64
10, 53760, Note_off_c, 5, 74, 64
10, 53760, Note_on_c, 5, 77, 39
10, 53760, Note_on_c, 5, 67, 38
10, 53760, Note_on_c, 5, 70, 39
10, 53764, Note_on_c, 5, 74, 52
10, 53764, Note_on_c, 5, 53, 43
10, 53764, Note_on_c, 5, 38, 28
10, 54720, Note_off_c, 5, 38, 64
10, 54720, Note_off_c, 5, 53, 64
10, 54720, Note_off_c, 5, 74, 64
10, 54720, Note_off_c, 5, 70, 64
10, 54720, Note_off_c, 5, 67, 64
10, 54720, Note_off_c, 5, 77, 64
10, 54720, Note_on_c, 5, 81, 39
10, 54720, Note_on_c, 5, 69, 38
10, 54720, Note_on_c, 5, 70, 39
10, 54724, Note_on_c, 5, 76, 52
10, 54724, Note_on_c, 5, 52, 43
10, 54724, Note_on_c, 5, 36, 28
10, 55680, Note_off_c, 5, 36, 64
10, 55680, Note_off_c, 5, 52, 64
10, 55680, Note_off_c, 5, 76, 64
10, 55680, Note_off_c, 5, 70, 64
10, 55680, Note_off_c, 5, 69, 64
10, 55680, Note_off_c, 5, 81, 64
10, 56156, Note_on_c, 5, 44, 26
10, 56164, Note_on_c, 5, 79, 27
10, 56164, Note_on_c, 5, 60, 42
10, 56164, Note_on_c, 5, 67, 39
10, 56168, Note_on_c, 5, 75, 36
10, 56168, Note_on_c, 5, 72, 39
10, 56172, Note_on_c, 5, 70, 12
10, 56316, Control_c, 5, 64, 127
10, 56640, Note_off_c, 5, 70, 64
10, 56640, Note_off_c, 5, 72, 64
10, 56640, Note_off_c, 5, 75, 64
10, 56640, Note_off_c, 5, 67, 64
10, 56640, Note_off_c, 5, 60, 64
10, 56640, Note_off_c, 5, 79, 64
10, 56640, Note_off_c, 5, 44, 64
10, 56640, Control_c, 5, 64, 0
10, 56640, Note_on_c, 5, 67, 39
10, 56640, Note_on_c, 5, 63, 38
10, 56640, Note_on_c, 5, 75, 39
10, 56644, Note_on_c, 5, 45, 28
10, 56644, Note_on_c, 5, 48, 43
10, 56644, Note_on_c, 5, 72, 52
10, 57120, Note_off_c, 5, 72, 64
10, 57120, Note_off_c, 5, 48, 64
10, 57120, Note_off_c, 5, 45, 64
10, 57120, Note_off_c, 5, 75, 64
10, 57120, Note_off_c, 5, 63, 64
10, 57120, Note_off_c, 5, 67, 64
10, 57120, Note_on_c, 5, 82, 39
10, 57120, Note_on_c, 5, 70, 38
10, 57120, Note_on_c, 5, 72, 39
10, 57124, Note_on_c, 5, 78, 52
10, 57124, Note_on_c, 5, 54, 43
10, 57124, Note_on_c, 5, 38, 28
10, 57600, Note_off_c, 5, 38, 64
10, 57600, Note_off_c, 5, 54, 64
10, 57600, Note_off_c, 5, 78, 64
10, 57600, Note_off_c, 5, 72, 64
10, 57600, Note_off_c, 5, 70, 64
10, 57600, Note_off_c, 5, 82, 64
10, 57600, Note_on_c, 5, 79, 39
10, 57600, Note_on_c, 5, 67, 38
10, 57600, Note_on_c, 5, 70, 39
10, 57604, Note_on_c, 5, 77, 52
10, 57604, Note_on_c, 5, 53, 43
10, 57604, Note_on_c, 5, 43, 28
10, 58560, Note_off_c, 5, 43, 64
10, 58560, Note_off_c, 5, 53, 64
10, 58560, Note_off_c, 5, 77, 64
10, 58560, Note_off_c, 5, 70, 64
10, 58560, Note_off_c, 5, 67, 64
10, 58560, Note_off_c, 5, 79, 64
10, 58560, Note_on_c, 5, 74, 39
10, 58560, Note_on_c, 5, 69, 38
10, 58560, Note_on_c, 5, 82, 33
10, 58564, Note_on_c, 5, 48, 28
10, 58564, Note_on_c, 5, 58, 43
10, 58564, Note_on_c, 5, 77, 38
10, 59040, Note_off_c, 5, 77, 64
10, 59040, Note_off_c, 5, 58, 64
10, 59040, Note_off_c, 5, 48, 64
10, 59040, Note_off_c, 5, 82, 64
10, 59040, Note_off_c, 5, 69, 64
10, 59040, Note_off_c, 5, 74, 64
10, 59040, Note_on_c, 5, 82, 33
10, 59040, Note_on_c, 5, 68, 38
10, 59040, Note_on_c, 5, 73, 39
10, 59044, Note_on_c, 5, 76, 38
10, 59044, Note_on_c, 5, 58, 43
10, 59044, Note_on_c, 5, 48, 28
10, 59520, Note_off_c, 5, 48, 64
10, 59520, Note_off_c, 5, 58, 64
10, 59520, Note_off_c, 5, 76, 64
10, 59520, Note_off_c, 5, 73, 64
10, 59520, Note_off_c, 5, 68, 64
10, 59520, Note_off_c, 5, 82, 64
10, 59520, Note_on_c, 5, 68, 39
10, 59520, Note_on_c, 5, 67, 38
10, 59520, Note_on_c, 5, 77, 39
10, 59524, Note_on_c, 5, 41, 28
10, 59524, Note_on_c, 5, 51, 43
10, 59524, Note_on_c, 5, 75, 52
10, 60000, Note_off_c, 5, 75, 64
10, 60000, Note_off_c, 5, 51, 64
10, 60000, Note_off_c, 5, 41, 64
10, 60000, Note_off_c, 5, 77, 64
10, 60000, Note_off_c, 5, 67, 64
10, 60000, Note_off_c, 5, 68, 64
10, 60000, Note_on_c, 5, 82, 33
10, 60000, Note_on_c, 5, 68, 38
10, 60000, Note_on_c, 5, 73, 39
10, 60004, Note_on_c, 5, 76, 38
10, 60004, Note_on_c, 5, 58, 43
10, 60004, Note_on_c, 5, 48, 28
10, 60480, Note_off_c, 5, 48, 64
10, 60480, Note_off_c, 5, 58, 64
10, 60480, Note_off_c, 5, 76, 64
10, 60480, Note_off_c, 5, 73, 64
10, 60480, Note_off_c, 5, 68, 64
10, 60480, Note_off_c, 5, 82, 64
10, 60480, Note_on_c, 5, 68, 39
10, 60480, Note_on_c, 5, 65, 38
10, 60480, Note_on_c, 5, 79, 39
10, 60484, Note_on_c, 5, 41, 28
10, 60484, Note_on_c, 5, 51, 43
10, 60484, Note_on_c, 5, 75, 52
10, 60960, Note_off_c, 5, 75, 64
10, 60960, Note_off_c, 5, 51, 64
10, 60960, Note_off_c, 5, 41, 64
10, 60960, Note_off_c, 5, 79, 64
10, 60960, Note_off_c, 5, 65, 64
10, 60960, Note_off_c, 5, 68, 64
10, 60960, Note_on_c, 5, 80, 33
10, 60960, Note_on_c, 5, 66, 38
10, 60960, Note_on_c, 5, 71, 39
10, 60964, Note_on_c, 5, 74, 38
10, 60964, Note_on_c, 5, 56, 43
10, 60964, Note_on_c, 5, 46, 28
10, 61440, Note_off_c, 5, 46, 64
10, 61440, Note_off_c, 5, 56, 64
10, 61440, Note_off_c, 5, 74, 64
10, 61440, Note_off_c, 5, 71, 64
10, 61440, Note_off_c, 5, 66, 64
10, 61440, Note_off_c, 5, 80, 64
10, 61440, Note_on_c, 5, 79, 38
10, 61440, Note_on_c, 5, 63, 38
10, 61440, Note_on_c, 5, 70, 39
10, 61444, Note_on_c, 5, 72, 38
10, 61444, Note_on_c, 5, 55, 43
10, 61444, Note_on_c, 5, 39, 28
10, 63360, Note_off_c, 5, 70, 64
10, 63360, Note_off_c, 5, 63, 64
10, 63360, Note_off_c, 5, 79, 64
10, 63360, Note_off_c, 5, 39, 64
10, 63360, Note_off_c, 5, 55, 64
10, 63360, Note_off_c, 5, 72, 64
10, 63360, Note_on_c, 5, 46, 35
10, 63360, Note_on_c, 5, 53, 42
10, 63360, Note_on_c, 5, 56, 35
10, 63416, Note_on_c, 5, 62, 39
10, 63514, Control_c, 5, 64, 127
10, 63754, Control_c, 5, 0, 0
10, 63994, Control_c, 5, 0, 0
10, 64320, Note_off_c, 5, 62, 64
10, 64320, Note_off_c, 5, 56, 64
10, 64320, Note_off_c, 5, 53, 64
10, 64320, Note_off_c, 5, 46, 64
10, 64320, Note_on_c, 5, 39, 26
10, 64320, Note_on_c, 5, 51, 26
10, 64320, Note_on_c, 5, 55, 47
10, 64320, Note_on_c, 5, 62, 41
10, 64320, Control_c, 5, 64, 0
10, 64322, Note_on_c, 5, 58, 36
10, 64326, Note_on_c, 5, 50, 39
10, 64514, Control_c, 5, 64, 127
10, 64754, Control_c, 5, 0, 0
10, 64994, Control_c, 5, 0, 0
10, 65280, Note_off_c, 5, 50, 64
10, 65280, Note_off_c, 5, 58, 64
10, 65280, Note_off_c, 5, 62, 64
10, 65280, Note_off_c, 5, 55, 64
10, 65280, Note_off_c, 5, 51, 64
10, 65280, Note_off_c, 5, 39, 64
10, 65280, Note_on_c, 5, 46, 35
10, 65280, Note_on_c, 5, 53, 42
10, 65280, Note_on_c, 5, 56, 35
10, 65280, Control_c, 5, 64, 0
10, 65336, Note_on_c, 5, 62, 39
10, 65434, Control_c, 5, 64, 127
10, 65674, Control_c, 5, 0, 0
10, 65914, Control_c, 5, 0, 0
10, 66294, Note_off_c, 5, 62, 64
10, 66330, Control_c, 5, 64, 0
10, 66458, Note_off_c, 5, 46, 64
10, 66462, Note_off_c, 5, 56, 64
10, 66466, Note_off_c, 5, 53, 64
10, 67200, Note_on_c, 5, 46, 35
10, 67200, Note_on_c, 5, 53, 42
10, 67200, Note_on_c, 5, 56, 35
10, 67256, Note_on_c, 5, 62, 39
10, 67354, Control_c, 5, 64, 127
10, 67594, Control_c, 5, 0, 0
10, 67834, Control_c, 5, 0, 0
10, 68160, Note_off_c, 5, 62, 64
10, 68160, Note_off_c, 5, 56, 64
10, 68160, Note_off_c, 5, 53, 64
10, 68160, Note_off_c, 5, 46, 64
10, 68160, Note_on_c, 5, 39, 35
10, 68160, Note_on_c, 5, 51, 42
10, 68160, Note_on_c, 5, 55, 35
10, 68160, Control_c, 5, 64, 0
10, 68216, Note_on_c, 5, 62, 39
10, 68314, Control_c, 5, 64, 127
10, 68554, Control_c, 5, 0, 0
10, 68794, Control_c, 5, 0, 0
10, 69120, Note_off_c, 5, 62, 64
10, 69120, Note_off_c, 5, 55, 64
10, 69120, Note_off_c, 5, 51, 64
10, 69120, Note_off_c, 5, 39, 64
10, 69120, Note_on_c, 5, 63, 35
10, 69120, Note_on_c, 5, 41, 34
10, 69120, Note_on_c, 5, 51, 44
10, 69120, Note_on_c, 5, 56, 35
10, 69120, Control_c, 5, 64, 0
10, 69124, Note_on_c, 5, 65, 36
10, 69252, Control_c, 5, 64, 127
10, 69492, Control_c, 5, 0, 0
10, 69732, Control_c, 5, 0, 0
10, 69972, Control_c, 5, 0, 0
10, 70080, Note_off_c, 5, 65, 64
10, 70080, Note_off_c, 5, 56, 64
10, 70080, Note_off_c, 5, 51, 64
10, 70080, Note_off_c, 5, 41, 64
10, 70080, Note_off_c, 5, 63, 64
10, 70080, Note_on_c, 5, 46, 35
10, 70080, Note_on_c, 5, 53, 42
10, 70080, Note_on_c, 5, 56, 35
10, 70080, Control_c, 5, 0, 0
10, 70080, Control_c, 5, 64, 0
10, 70136, Note_on_c, 5, 62, 39
10, 70234, Control_c, 5, 64, 127
10, 70474, Control_c, 5, 0, 0
10, 70714, Control_c, 5, 0, 0
10, 71040, Note_off_c, 5, 62, 64
10, 71040, Note_off_c, 5, 56, 64
10, 71040, Note_off_c, 5, 53, 64
10, 71040, Note_off_c, 5, 46, 64
10, 71040, Note_on_c, 5, 39, 35
10, 71040, Note_on_c, 5, 51, 42
10, 71040, Note_on_c, 5, 55, 35
10, 71040, Control_c, 5, 64, 0
10, 71096, Note_on_c, 5, 60, 39
10, 71194, Control_c, 5, 64, 127
10, 71434, Control_c, 5, 0, 0
10, 71674, Control_c, 5, 0, 0
10, 72000, Note_off_c, 5, 60, 64
10, 72000, Note_off_c, 5, 55, 64
10, 72000, Note_off_c, 5, 51, 64
10, 72000, Note_off_c, 5, 39, 64
10, 72000, Note_on_c, 5, 42, 26
10, 72000, Note_on_c, 5, 54, 26
10, 72000, Note_on_c, 5, 57, 47
10, 72000, Note_on_c, 5, 63, 41
10, 72000, Control_c, 5, 64, 0
10, 72002, Note_on_c, 5, 60, 36
10, 72006, Note_on_c, 5, 51, 39
10, 72194, Control_c, 5, 64, 127
10, 72434, Control_c, 5, 0, 0
10, 72674, Control_c, 5, 0, 0
10, 72960, Note_off_c, 5, 51, 64
10, 72960, Note_off_c, 5, 60, 64
10, 72960, Note_off_c, 5, 63, 64
10, 72960, Note_off_c, 5, 57, 64
10, 72960, Note_off_c, 5, 54, 64
10, 72960, Note_off_c, 5, 42, 64
10, 72960, Note_on_c, 5, 63, 35
10, 72960, Note_on_c, 5, 41, 34
10, 72960, Note_on_c, 5, 51, 44
10, 72960, Note_on_c, 5, 56, 35
10, 72960, Control_c, 5, 64, 0
10, 72964, Note_on_c, 5, 65, 36
10, 73092, Control_c, 5, 64, 127
10, 73332, Control_c, 5, 0, 0
10, 73572, Control_c, 5, 0, 0
10, 73812, Control_c, 5, 0, 0
10, 73920, Note_off_c, 5, 65, 64
10, 73920, Note_off_c, 5, 56, 64
10, 73920, Note_off_c, 5, 51, 64
10, 73920, Note_off_c, 5, 41, 64
10, 73920, Note_off_c, 5, 63, 64
10, 73920, Note_on_c, 5, 62, 35
10, 73920, Note_on_c, 5, 34, 34
10, 73920, Note_on_c, 5, 50, 44
10, 73920, Note_on_c, 5, 56, 35
10, 73920, Control_c, 5, 0, 0
10, 73920, Control_c, 5, 64, 0
10, 73924, Note_on_c, 5, 65, 36
10, 74052, Control_c, 5, 64, 127
10, 74292, Control_c, 5, 0, 0
10, 74532, Control_c, 5, 0, 0
10, 74772, Control_c, 5, 0, 0
10, 74880, Note_off_c, 5, 65, 64
10, 74880, Note_off_c, 5, 56, 64
10, 74880, Note_off_c, 5, 50, 64
10, 74880, Note_off_c, 5, 34, 64
10, 74880, Note_off_c, 5, 62, 64
10, 74880, Control_c, 5, 0, 0
10, 74880, Control_c, 5, 64, 0
10, 74880, Note_on_c, 5, 55, 35
10, 74880, Note_on_c, 5, 50, 44
10, 74880, Note_on_c, 5, 39, 34
10, 74880, Note_on_c, 5, 62, 35
10, 74884, Note_on_c, 5, 65, 36
10, 75012, Control_c, 5, 64, 127
10, 75252, Control_c, 5, 0, 0
10, 75360, Note_off_c, 5, 65, 64
10, 75360, Note_off_c, 5, 62, 64
10, 75360, Note_off_c, 5, 39, 64
10, 75360, Note_off_c, 5, 50, 64
10, 75360, Note_off_c, 5, 55, 64
10, 75360, Note_on_c, 5, 38, 35
10, 75360, Note_on_c, 5, 55, 42
10, 75360, Note_on_c, 5, 58, 35
10, 75360, Control_c, 5, 0, 0
10, 75360, Control_c, 5, 64, 0
10, 75416, Note_on_c, 5, 63, 39
10, 75514, Control_c, 5, 64, 127
10, 75754, Control_c, 5, 0, 0
10, 75840, Note_off_c, 5, 63, 64
10, 75840, Note_off_c, 5, 58, 64
10, 75840, Note_off_c, 5, 55, 64
10, 75840, Note_off_c, 5, 38, 64
10, 75840, Control_c, 5, 0, 0
10, 75840, Control_c, 5, 64, 0
10, 75840, Note_on_c, 5, 58, 35
10, 75840, Note_on_c, 5, 55, 42
10, 75840, Note_on_c, 5, 37, 35
10, 75896, Note_on_c, 5, 65, 39
10, 75994, Control_c, 5, 64, 127
10, 76234, Control_c, 5, 0, 0
10, 76320, Note_off_c, 5, 65, 64
10, 76320, Note_off_c, 5, 37, 64
10, 76320, Note_off_c, 5, 55, 64
10, 76320, Note_off_c, 5, 58, 64
10, 76320, Note_on_c, 5, 64, 35
10, 76320, Note_on_c, 5, 36, 34
10, 76320, Note_on_c, 5, 52, 44
10, 76320, Note_on_c, 5, 58, 35
10, 76320, Control_c, 5, 0, 0
10, 76320, Control_c, 5, 64, 0
10, 76324, Note_on_c, 5, 67, 36
10, 76452, Control_c, 5, 64, 127
10, 76692, Control_c, 5, 0, 0
10, 76800, Note_off_c, 5, 67, 64
10, 76800, Note_off_c, 5, 58, 64
10, 76800, Note_off_c, 5, 52, 64
10, 76800, Note_off_c, 5, 36, 64
10, 76800, Note_off_c, 5, 64, 64
10, 76800, Note_on_c, 5, 41, 35
10, 76800, Note_on_c, 5, 53, 42
10, 76800, Note_on_c, 5, 56, 35
10, 76800, Control_c, 5, 0, 0
10, 76800, Control_c, 5, 64, 0
10, 76856, Note_on_c, 5, 63, 39
10, 76954, Control_c, 5, 64, 127
10, 77194, Control_c, 5, 0, 0
10, 77434, Control_c, 5, 0, 0
10, 77760, Note_off_c, 5, 63, 64
10, 77760, Note_off_c, 5, 56, 64
10, 77760, Note_off_c, 5, 53, 64
10, 77760, Note_off_c, 5, 41, 64
10, 77760, Note_on_c, 5, 46, 35
10, 77760, Note_on_c, 5, 53, 42
10, 77760, Note_on_c, 5, 56, 35
10, 77760, Control_c, 5, 64, 0
10, 77816, Note_on_c, 5, 62, 39
10, 77914, Control_c, 5, 64, 127
10, 78154, Control_c, 5, 0, 0
10, 78394, Control_c, 5, 0, 0
10, 78720, Note_off_c, 5, 62, 64
10, 78720, Note_off_c, 5, 56, 64
10, 78720, Note_off_c, 5, 53, 64
10, 78720, Note_off_c, 5, 46, 64
10, 78720, Note_on_c, 5, 78, 39
10, 78720, Note_on_c, 5, 66, 38
10, 78720, Note_on_c, 5, 68, 39
10, 78720, Control_c, 5, 64, 0
10, 78724, Note_on_c, 5, 74, 52
10, 78724, Note_on_c, 5, 50, 43
10, 78724, Note_on_c, 5, 34, 28
10, 79680, Note_off_c, 5, 34, 64
10, 79680, Note_off_c, 5, 50, 64
10, 79680, Note_off_c, 5, 74, 64
10, 79680, Note_off_c, 5, 68, 64
10, 79680, Note_off_c, 5, 66, 64
10, 79680, Note_off_c, 5, 78, 64
10, 79680, Note_on_c, 5, 77, 39
10, 79680, Note_on_c, 5, 65, 38
10, 79680, Note_on_c, 5, 67, 39
10, 79684, Note_on_c, 5, 74, 52
10, 79684, Note_on_c, 5, 50, 43
10, 79684, Note_on_c, 5, 39, 28
10, 80640, Note_off_c, 5, 39, 64
10, 80640, Note_off_c, 5, 50, 64
10, 80640, Note_off_c, 5, 74, 64
10, 80640, Note_off_c, 5, 67, 64
10, 80640, Note_off_c, 5, 65, 64
10, 80640, Note_off_c, 5, 77, 64
10, 80640, Note_on_c, 5, 80, 38
10, 80640, Note_on_c, 5, 66, 38
10, 80640, Note_on_c, 5, 71, 39
10, 80644, Note_on_c, 5, 74, 38
10, 80644, Note_on_c, 5, 56, 43
10, 80644, Note_on_c, 5, 46, 28
10, 82560, Note_off_c, 5, 71, 64
10, 82560, Note_off_c, 5, 66, 64
10, 82560, Note_off_c, 5, 80, 64
10, 82560, Note_off_c, 5, 46, 64
10, 82560, Note_off_c, 5, 56, 64
10, 82560, Note_off_c, 5, 74, 64
10, 82560, Note_on_c, 5, 77, 39
10, 82560, Note_on_c, 5, 66, 38
10, 82560, Note_on_c, 5, 68, 39
10, 82564, Note_on_c, 5, 74, 52
10, 82564, Note_on_c, 5, 50, 43
10, 82564, Note_on_c, 5, 34, 28
10, 83520, Note_off_c, 5, 34, 64
10, 83520, Note_off_c, 5, 50, 64
10, 83520, Note_off_c, 5, 74, 64
10, 83520, Note_off_c, 5, 68, 64
10, 83520, Note_off_c, 5, 66, 64
10, 83520, Note_off_c, 5, 77, 64
10, 83520, Note_on_c, 5, 74, 39
10, 83520, Note_on_c, 5, 65, 38
10, 83520, Note_on_c, 5, 67, 39
10, 83524, Note_on_c, 5, 70, 52
10, 83524, Note_on_c, 5, 50, 43
10, 83524, Note_on_c, 5, 34, 28
10, 84480, Note_off_c, 5, 34, 64
10, 84480, Note_off_c, 5, 50, 64
10, 84480, Note_off_c, 5, 70, 64
10, 84480, Note_off_c, 5, 67, 64
10, 84480, Note_off_c, 5, 65, 64
10, 84480, Note_off_c, 5, 74, 64
10, 84956, Note_on_c, 5, 43, 26
10, 84964, Note_on_c, 5, 77, 27
10, 84964, Note_on_c, 5, 58, 42
10, 84964, Note_on_c, 5, 65, 39
10, 84968, Note_on_c, 5, 74, 36
10, 84968, Note_on_c, 5, 70, 39
10, 84972, Note_on_c, 5, 67, 12
10, 85116, Control_c, 5, 64, 127
10, 85440, Note_off_c, 5, 67, 64
10, 85440, Note_off_c, 5, 70, 64
10, 85440, Note_off_c, 5, 74, 64
10, 85440, Note_off_c, 5, 65, 64
10, 85440, Note_off_c, 5, 58, 64
10, 85440, Note_off_c, 5, 77, 64
10, 85440, Note_off_c, 5, 43, 64
10, 85440, Note_on_c, 5, 79, 39
10, 85440, Note_on_c, 5, 69, 38
10, 85440, Note_on_c, 5, 70, 39
10, 85440, Control_c, 5, 64, 0
10, 85444, Note_on_c, 5, 76, 52
10, 85444, Note_on_c, 5, 52, 43
10, 85444, Note_on_c, 5, 36, 28
10, 86400, Note_off_c, 5, 36, 64
10, 86400, Note_off_c, 5, 52, 64
10, 86400, Note_off_c, 5, 76, 64
10, 86400, Note_off_c, 5, 70, 64
10, 86400, Note_off_c, 5, 69, 64
10, 86400, Note_off_c, 5, 79, 64
10, 86400, Note_on_c, 5, 84, 33
10, 86400, Note_on_c, 5, 70, 38
10, 86400, Note_on_c, 5, 75, 39
10, 86404, Note_on_c, 5, 79, 38
10, 86404, Note_on_c, 5, 60, 43
10, 86404, Note_on_c, 5, 44, 28
10, 87360, Note_off_c, 5, 44, 64
10, 87360, Note_off_c, 5, 60, 64
10, 87360, Note_off_c, 5, 79, 64
10, 87360, Note_off_c, 5, 75, 64
10, 87360, Note_off_c, 5, 70, 64
10, 87360, Note_off_c, 5, 84, 64
10, 87360, Note_on_c, 5, 67, 39
10, 87360, Note_on_c, 5, 63, 38
10, 87360, Note_on_c, 5, 75, 39
10, 87364, Note_on_c, 5, 45, 28
10, 87364, Note_on_c, 5, 48, 43
10, 87364, Note_on_c, 5, 72, 52
10, 87840, Note_off_c, 5, 72, 64
10, 87840, Note_off_c, 5, 48, 64
10, 87840, Note_off_c, 5, 45, 64
10, 87840, Note_off_c, 5, 75, 64
10, 87840, Note_off_c, 5, 63, 64
10, 87840, Note_off_c, 5, 67, 64
10, 87840, Note_on_c, 5, 84, 33
10, 87840, Note_on_c, 5, 70, 38
10, 87840, Note_on_c, 5, 75, 39
10, 87844, Note_on_c, 5, 78, 38
10, 87844, Note_on_c, 5, 60, 43
10, 87844, Note_on_c, 5, 50, 28
10, 88320, Note_off_c, 5, 50, 64
10, 88320, Note_off_c, 5, 60, 64
10, 88320, Note_off_c, 5, 78, 64
10, 88320, Note_off_c, 5, 75, 64
10, 88320, Note_off_c, 5, 70, 64
10, 88320, Note_off_c, 5, 84, 64
10, 88320, Note_on_c, 5, 77, 39
10, 88320, Note_on_c, 5, 67, 38
10, 88320, Note_on_c, 5, 70, 39
10, 88324, Note_on_c, 5, 74, 52
10, 88324, Note_on_c, 5, 53, 43
10, 88324, Note_on_c, 5, 38, 28
10, 89280, Note_off_c, 5, 38, 64
10, 89280, Note_off_c, 5, 53, 64
10, 89280, Note_off_c, 5, 74, 64
10, 89280, Note_off_c, 5, 70, 64
10, 89280, Note_off_c, 5, 67, 64
10, 89280, Note_off_c, 5, 77, 64
10, 89280, Note_on_c, 5, 74, 39
10, 89280, Note_on_c, 5, 69, 38
10, 89280, Note_on_c, 5, 82, 33
10, 89284, Note_on_c, 5, 48, 28
10, 89284, Note_on_c, 5, 58, 43
10, 89284, Note_on_c, 5, 77, 38
10, 89760, Note_off_c, 5, 77, 64
10, 89760, Note_off_c, 5, 58, 64
10, 89760, Note_off_c, 5, 48, 64
10, 89760, Note_off_c, 5, 82, 64
10, 89760, Note_off_c, 5, 69, 64
10, 89760, Note_off_c, 5, 74, 64
10, 89760, Note_on_c, 5, 80, 39
10, 89760, Note_on_c, 5, 68, 38
10, 89760, Note_on_c, 5, 70, 39
10, 89764, Note_on_c, 5, 76, 52
10, 89764, Note_on_c, 5, 52, 43
10, 89764, Note_on_c, 5, 36, 28
10, 90240, Note_off_c, 5, 36, 64
10, 90240, Note_off_c, 5, 52, 64
10, 90240, Note_off_c, 5, 76, 64
10, 90240, Note_off_c, 5, 70, 64
10, 90240, Note_off_c, 5, 68, 64
10, 90240, Note_off_c, 5, 80, 64
10, 90240, Note_on_c, 5, 68, 39
10, 90240, Note_on_c, 5, 67, 38
10, 90240, Note_on_c, 5, 79, 39
10, 90244, Note_on_c, 5, 41, 28
10, 90244, Note_on_c, 5, 51, 43
10, 90244, Note_on_c, 5, 75, 52
10, 90720, Note_off_c, 5, 75, 64
10, 90720, Note_off_c, 5, 51, 64
10, 90720, Note_off_c, 5, 41, 64
10, 90720, Note_off_c, 5, 79, 64
10, 90720, Note_off_c, 5, 67, 64
10, 90720, Note_off_c, 5, 68, 64
10, 90720, Note_on_c, 5, 80, 39
10, 90720, Note_on_c, 5, 67, 38
10, 90720, Note_on_c, 5, 70, 39
10, 90724, Note_on_c, 5, 76, 52
10, 90724, Note_on_c, 5, 52, 43
10, 90724, Note_on_c, 5, 36, 28
10, 91200, Note_off_c, 5, 36, 64
10, 91200, Note_off_c, 5, 52, 64
10, 91200, Note_off_c, 5, 76, 64
10, 91200, Note_off_c, 5, 70, 64
10, 91200, Note_off_c, 5, 67, 64
10, 91200, Note_off_c, 5, 80, 64
10, 91200, Note_on_c, 5, 68, 39
10, 91200, Note_on_c, 5, 67, 38
10, 91200, Note_on_c, 5, 75, 39
10, 91204, Note_on_c, 5, 36, 28
10, 91204, Note_on_c, 5, 51, 43
10, 91204, Note_on_c, 5, 72, 52
10, 91680, Note_off_c, 5, 72, 64
10, 91680, Note_off_c, 5, 51, 64
10, 91680, Note_off_c, 5, 36, 64
10, 91680, Note_off_c, 5, 75, 64
10, 91680, Note_off_c, 5, 67, 64
10, 91680, Note_off_c, 5, 68, 64
10, 91680, Note_on_c, 5, 80, 33
10, 91680, Note_on_c, 5, 66, 38
10, 91680, Note_on_c, 5, 71, 39
10, 91684, Note_on_c, 5, 74, 38
10, 91684, Note_on_c, 5, 56, 43
10, 91684, Note_on_c, 5, 46, 28
10, 92160, Note_off_c, 5, 46, 64
10, 92160, Note_off_c, 5, 56, 64
10, 92160, Note_off_c, 5, 74, 64
10, 92160, Note_off_c, 5, 71, 64
10, 92160, Note_off_c, 5, 66, 64
10, 92160, Note_off_c, 5, 80, 64
10, 92160, Note_on_c, 5, 75, 39
10, 92160, Note_on_c, 5, 63, 38
10, 92160, Note_on_c, 5, 67, 39
10, 92164, Note_on_c, 5, 72, 52
10, 92164, Note_on_c, 5, 48, 43
10, 92164, Note_on_c, 5, 39, 28
10, 93120, Note_off_c, 5, 39, 64
10, 93120, Note_off_c, 5, 48, 64
10, 93120, Note_off_c, 5, 72, 64
10, 93120, Note_off_c, 5, 67, 64
10, 93120, Note_off_c, 5, 63, 64
10, 93120, Note_off_c, 5, 75, 64
10, 93120, Note_on_c, 5, 72, 39
10, 93120, Note_on_c, 5, 63, 38
10, 93120, Note_on_c, 5, 67, 39
10, 93124, Note_on_c, 5, 70, 52
10, 93124, Note_on_c, 5, 48, 43
10, 93124, Note_on_c, 5, 34, 28
10, 94080, Note_off_c, 5, 34, 64
10, 94080, Note_off_c, 5, 48, 64
10, 94080, Note_off_c, 5, 70, 64
10, 94080, Note_off_c, 5, 67, 64
10, 94080, Note_off_c, 5, 63, 64
10, 94080, Note_off_c, 5, 72, 64
10, 94080, Note_on_c, 5, 77, 39
10, 94080, Note_on_c, 5, 65, 38
10, 94080, Note_on_c, 5, 67, 39
10, 94084, Note_on_c, 5, 72, 52
10, 94084, Note_on_c, 5, 48, 43
10, 94084, Note_on_c, 5, 39, 28
10, 96000, Note_off_c, 5, 67, 64
10, 96000, Note_off_c, 5, 65, 64
10, 96000, Note_off_c, 5, 77, 64
10, 96000, Note_off_c, 5, 39, 64
10, 96000, Note_off_c, 5, 48, 64
10, 96000, Note_off_c, 5, 72, 64
10, 96000, Control_c, 5, 64, 0
10, 96000, End_track
11, 0, Start_track
11, 0, Title_t, "Guitar / Nylon string"
11, 0, Program_c, 6, 24
11, 0, Control_c, 6, 7, 90
11, 0, Control_c, 6, 121, 0
11, 0, Control_c, 6, 10, 64
11, 0, Control_c, 6, 123, 0
11, 0, Control_c, 6, 91, 40
11, 0, Control_c, 6, 93, 0
11, 0, Control_c, 6, 64, 0
11, 1920, Note_on_c, 6, 50, 55
11, 1920, Note_on_c, 6, 56, 64
11, 1992, Note_off_c, 6, 56, 64
11, 2042, Note_off_c, 6, 50, 64
11, 2160, Control_c, 6, 64, 127
11, 2160, Note_on_c, 6, 56, 49
11, 2160, Note_on_c, 6, 50, 41
11, 2200, Note_off_c, 6, 50, 64
11, 2216, Note_off_c, 6, 56, 64
11, 2216, Control_c, 6, 64, 0
11, 2400, Note_on_c, 6, 50, 56
11, 2400, Note_on_c, 6, 56, 56
11, 2640, Note_off_c, 6, 56, 64
11, 2640, Note_off_c, 6, 50, 64
11, 2640, Control_c, 6, 64, 127
11, 2640, Note_on_c, 6, 50, 51
11, 2640, Note_on_c, 6, 56, 60
11, 2686, Note_off_c, 6, 50, 64
11, 2692, Note_off_c, 6, 56, 64
11, 2692, Control_c, 6, 64, 0
11, 2880, Note_on_c, 6, 50, 55
11, 2880, Note_on_c, 6, 55, 64
11, 2952, Note_off_c, 6, 55, 64
11, 3002, Note_off_c, 6, 50, 64
11, 3120, Control_c, 6, 64, 127
11, 3120, Note_on_c, 6, 55, 49
11, 3120, Note_on_c, 6, 50, 41
11, 3160, Note_off_c, 6, 50, 64
11, 3176, Note_off_c, 6, 55, 64
11, 3176, Control_c, 6, 64, 0
11, 3360, Note_on_c, 6, 50, 56
11, 3360, Note_on_c, 6, 55, 56
11, 3600, Note_off_c, 6, 55, 64
11, 3600, Note_off_c, 6, 50, 64
11, 3600, Control_c, 6, 64, 127
11, 3600, Note_on_c, 6, 50, 51
11, 3600, Note_on_c, 6, 55, 60
11, 3646, Note_off_c, 6, 50, 64
11, 3652, Note_off_c, 6, 55, 64
11, 3652, Control_c, 6, 64, 0
11, 3840, Note_on_c, 6, 50, 55
11, 3840, Note_on_c, 6, 56, 64
11, 3912, Note_off_c, 6, 56, 64
11, 3962, Note_off_c, 6, 50, 64
11, 4080, Control_c, 6, 64, 127
11, 4080, Note_on_c, 6, 56, 49
11, 4080, Note_on_c, 6, 50, 41
11, 4120, Note_off_c, 6, 50, 64
11, 4136, Note_off_c, 6, 56, 64
11, 4136, Control_c, 6, 64, 0
11, 4320, Note_on_c, 6, 50, 56
11, 4320, Note_on_c, 6, 56, 56
11, 4560, Note_off_c, 6, 56, 64
11, 4560, Note_off_c, 6, 50, 64
11, 4560, Control_c, 6, 64, 127
11, 4560, Note_on_c, 6, 50, 51
11, 4560, Note_on_c, 6, 56, 60
11, 4606, Note_off_c, 6, 50, 64
11, 4612, Note_off_c, 6, 56, 64
11, 4612, Control_c, 6, 64, 0
11, 4800, Note_on_c, 6, 50, 53
11, 4800, Note_on_c, 6, 56, 61
11, 4866, Note_off_c, 6, 56, 64
11, 4866, Control_c, 6, 64, 127
11, 4878, Note_off_c, 6, 50, 64
11, 5040, Note_on_c, 6, 50, 51
11, 5040, Note_on_c, 6, 56, 66
11, 5102, Note_off_c, 6, 56, 64
11, 5102, Note_off_c, 6, 50, 64
11, 5102, Control_c, 6, 64, 0
11, 5280, Note_on_c, 6, 50, 45
11, 5280, Note_on_c, 6, 56, 56
11, 5280, Control_c, 6, 64, 127
11, 5370, Note_off_c, 6, 56, 64
11, 5380, Note_off_c, 6, 50, 64
11, 5520, Note_on_c, 6, 50, 58
11, 5520, Note_on_c, 6, 56, 68
11, 5586, Note_off_c, 6, 56, 64
11, 5586, Note_off_c, 6, 50, 64
11, 5586, Control_c, 6, 64, 0
11, 5760, Note_on_c, 6, 50, 55
11, 5760, Note_on_c, 6, 56, 64
11, 5832, Note_off_c, 6, 56, 64
11, 5882, Note_off_c, 6, 50, 64
11, 6000, Control_c, 6, 64, 127
11, 6000, Note_on_c, 6, 56, 49
11, 6000, Note_on_c, 6, 50, 41
11, 6040, Note_off_c, 6, 50, 64
11, 6056, Note_off_c, 6, 56, 64
11, 6056, Control_c, 6, 64, 0
11, 6240, Note_on_c, 6, 50, 56
11, 6240, Note_on_c, 6, 56, 56
11, 6480, Note_off_c, 6, 56, 64
11, 6480, Note_off_c, 6, 50, 64
11, 6480, Control_c, 6, 64, 127
11, 6480, Note_on_c, 6, 50, 51
11, 6480, Note_on_c, 6, 56, 60
11, 6526, Note_off_c, 6, 50, 64
11, 6532, Note_off_c, 6, 56, 64
11, 6532, Control_c, 6, 64, 0
11, 6720, Note_on_c, 6, 50, 55
11, 6720, Note_on_c, 6, 55, 64
11, 6792, Note_off_c, 6, 55, 64
11, 6842, Note_off_c, 6, 50, 64
11, 6960, Control_c, 6, 64, 127
11, 6960, Note_on_c, 6, 55, 49
11, 6960, Note_on_c, 6, 50, 41
11, 7000, Note_off_c, 6, 50, 64
11, 7016, Note_off_c, 6, 55, 64
11, 7016, Control_c, 6, 64, 0
11, 7200, Note_on_c, 6, 50, 56
11, 7200, Note_on_c, 6, 55, 56
11, 7440, Note_off_c, 6, 55, 64
11, 7440, Note_off_c, 6, 50, 64
11, 7440, Control_c, 6, 64, 127
11, 7440, Note_on_c, 6, 50, 51
11, 7440, Note_on_c, 6, 55, 60
11, 7486, Note_off_c, 6, 50, 64
11, 7492, Note_off_c, 6, 55, 64
11, 7492, Control_c, 6, 64, 0
11, 7680, Note_on_c, 6, 51, 55
11, 7680, Note_on_c, 6, 56, 64
11, 7752, Note_off_c, 6, 56, 64
11, 7802, Note_off_c, 6, 51, 64
11, 7920, Control_c, 6, 64, 127
11, 7920, Note_on_c, 6, 56, 49
11, 7920, Note_on_c, 6, 51, 41
11, 7960, Note_off_c, 6, 51, 64
11, 7976, Note_off_c, 6, 56, 64
11, 7976, Control_c, 6, 64, 0
11, 8160, Note_on_c, 6, 51, 56
11, 8160, Note_on_c, 6, 56, 56
11, 8400, Note_off_c, 6, 56, 64
11, 8400, Note_off_c, 6, 51, 64
11, 8400, Control_c, 6, 64, 127
11, 8400, Note_on_c, 6, 51, 51
11, 8400, Note_on_c, 6, 56, 60
11, 8446, Note_off_c, 6, 51, 64
11, 8452, Note_off_c, 6, 56, 64
11, 8452, Control_c, 6, 64, 0
11, 8640, Note_on_c, 6, 50, 55
11, 8640, Note_on_c, 6, 56, 64
11, 8712, Note_off_c, 6, 56, 64
11, 8762, Note_off_c, 6, 50, 64
11, 8880, Control_c, 6, 64, 127
11, 8880, Note_on_c, 6, 56, 49
11, 8880, Note_on_c, 6, 50, 41
11, 8920, Note_off_c, 6, 50, 64
11, 8936, Note_off_c, 6, 56, 64
11, 8936, Control_c, 6, 64, 0
11, 9120, Note_on_c, 6, 50, 56
11, 9120, Note_on_c, 6, 56, 56
11, 9360, Note_off_c, 6, 56, 64
11, 9360, Note_off_c, 6, 50, 64
11, 9360, Control_c, 6, 64, 127
11, 9360, Note_on_c, 6, 50, 51
11, 9360, Note_on_c, 6, 56, 60
11, 9406, Note_off_c, 6, 50, 64
11, 9412, Note_off_c, 6, 56, 64
11, 9412, Control_c, 6, 64, 0
11, 9600, Note_on_c, 6, 48, 55
11, 9600, Note_on_c, 6, 55, 64
11, 9672, Note_off_c, 6, 55, 64
11, 9722, Note_off_c, 6, 48, 64
11, 9840, Control_c, 6, 64, 127
11, 9840, Note_on_c, 6, 55, 49
11, 9840, Note_on_c, 6, 48, 41
11, 9880, Note_off_c, 6, 48, 64
11, 9896, Note_off_c, 6, 55, 64
11, 9896, Control_c, 6, 64, 0
11, 10080, Note_on_c, 6, 48, 56
11, 10080, Note_on_c, 6, 55, 56
11, 10320, Note_off_c, 6, 55, 64
11, 10320, Note_off_c, 6, 48, 64
11, 10320, Control_c, 6, 64, 127
11, 10320, Note_on_c, 6, 48, 51
11, 10320, Note_on_c, 6, 55, 60
11, 10366, Note_off_c, 6, 48, 64
11, 10372, Note_off_c, 6, 55, 64
11, 10372, Control_c, 6, 64, 0
11, 10560, Note_on_c, 6, 51, 55
11, 10560, Note_on_c, 6, 57, 64
11, 10632, Note_off_c, 6, 57, 64
11, 10682, Note_off_c, 6, 51, 64
11, 10800, Control_c, 6, 64, 127
11, 10800, Note_on_c, 6, 57, 49
11, 10800, Note_on_c, 6, 51, 41
11, 10840, Note_off_c, 6, 51, 64
11, 10856, Note_off_c, 6, 57, 64
11, 10856, Control_c, 6, 64, 0
11, 11040, Note_on_c, 6, 51, 56
11, 11040, Note_on_c, 6, 57, 56
11, 11280, Note_off_c, 6, 57, 64
11, 11280, Note_off_c, 6, 51, 64
11, 11280, Control_c, 6, 64, 127
11, 11280, Note_on_c, 6, 51, 51
11, 11280, Note_on_c, 6, 57, 60
11, 11326, Note_off_c, 6, 51, 64
11, 11332, Note_off_c, 6, 57, 64
11, 11332, Control_c, 6, 64, 0
11, 11520, Note_on_c, 6, 51, 55
11, 11520, Note_on_c, 6, 56, 64
11, 11592, Note_off_c, 6, 56, 64
11, 11642, Note_off_c, 6, 51, 64
11, 11760, Control_c, 6, 64, 127
11, 11760, Note_on_c, 6, 56, 49
11, 11760, Note_on_c, 6, 51, 41
11, 11800, Note_off_c, 6, 51, 64
11, 11816, Note_off_c, 6, 56, 64
11, 11816, Control_c, 6, 64, 0
11, 12000, Note_on_c, 6, 51, 56
11, 12000, Note_on_c, 6, 56, 56
11, 12240, Note_off_c, 6, 56, 64
11, 12240, Note_off_c, 6, 51, 64
11, 12240, Control_c, 6, 64, 127
11, 12240, Note_on_c, 6, 51, 51
11, 12240, Note_on_c, 6, 56, 60
11, 12286, Note_off_c, 6, 51, 64
11, 12292, Note_off_c, 6, 56, 64
11, 12292, Control_c, 6, 64, 0
11, 12480, Note_on_c, 6, 50, 55
11, 12480, Note_on_c, 6, 56, 64
11, 12552, Note_off_c, 6, 56, 64
11, 12602, Note_off_c, 6, 50, 64
11, 12720, Control_c, 6, 64, 127
11, 12720, Note_on_c, 6, 56, 49
11, 12720, Note_on_c, 6, 50, 41
11, 12760, Note_off_c, 6, 50, 64
11, 12776, Note_off_c, 6, 56, 64
11, 12776, Control_c, 6, 64, 0
11, 12960, Note_on_c, 6, 50, 56
11, 12960, Note_on_c, 6, 56, 56
11, 13200, Note_off_c, 6, 56, 64
11, 13200, Note_off_c, 6, 50, 64
11, 13200, Control_c, 6, 64, 127
11, 13200, Note_on_c, 6, 50, 51
11, 13200, Note_on_c, 6, 56, 60
11, 13246, Note_off_c, 6, 50, 64
11, 13252, Note_off_c, 6, 56, 64
11, 13252, Control_c, 6, 64, 0
11, 13440, Note_on_c, 6, 50, 55
11, 13440, Note_on_c, 6, 55, 64
11, 13512, Note_off_c, 6, 55, 64
11, 13562, Note_off_c, 6, 50, 64
11, 13680, Control_c, 6, 64, 127
11, 13680, Note_on_c, 6, 55, 49
11, 13680, Note_on_c, 6, 50, 41
11, 13720, Note_off_c, 6, 50, 64
11, 13736, Note_off_c, 6, 55, 64
11, 13736, Control_c, 6, 64, 0
11, 13920, Note_on_c, 6, 51, 55
11, 13920, Note_on_c, 6, 58, 64
11, 13992, Note_off_c, 6, 58, 64
11, 14042, Note_off_c, 6, 51, 64
11, 14160, Control_c, 6, 64, 127
11, 14160, Note_on_c, 6, 58, 49
11, 14160, Note_on_c, 6, 51, 41
11, 14200, Note_off_c, 6, 51, 64
11, 14216, Note_off_c, 6, 58, 64
11, 14216, Control_c, 6, 64, 0
11, 14400, Note_on_c, 6, 53, 55
11, 14400, Note_on_c, 6, 58, 64
11, 14472, Note_off_c, 6, 58, 64
11, 14522, Note_off_c, 6, 53, 64
11, 14640, Control_c, 6, 64, 127
11, 14640, Note_on_c, 6, 58, 49
11, 14640, Note_on_c, 6, 53, 41
11, 14680, Note_off_c, 6, 53, 64
11, 14696, Note_off_c, 6, 58, 64
11, 14696, Control_c, 6, 64, 0
11, 14880, Note_on_c, 6, 52, 55
11, 14880, Note_on_c, 6, 58, 64
11, 14952, Note_off_c, 6, 58, 64
11, 15002, Note_off_c, 6, 52, 64
11, 15120, Control_c, 6, 64, 127
11, 15120, Note_on_c, 6, 58, 49
11, 15120, Note_on_c, 6, 52, 41
11, 15160, Note_off_c, 6, 52, 64
11, 15176, Note_off_c, 6, 58, 64
11, 15176, Control_c, 6, 64, 0
11, 15360, Note_on_c, 6, 51, 55
11, 15360, Note_on_c, 6, 56, 64
11, 15432, Note_off_c, 6, 56, 64
11, 15482, Note_off_c, 6, 51, 64
11, 15600, Control_c, 6, 64, 127
11, 15600, Note_on_c, 6, 56, 49
11, 15600, Note_on_c, 6, 51, 41
11, 15640, Note_off_c, 6, 51, 64
11, 15656, Note_off_c, 6, 56, 64
11, 15656, Control_c, 6, 64, 0
11, 15840, Note_on_c, 6, 51, 56
11, 15840, Note_on_c, 6, 56, 56
11, 16080, Note_off_c, 6, 56, 64
11, 16080, Note_off_c, 6, 51, 64
11, 16080, Control_c, 6, 64, 127
11, 16080, Note_on_c, 6, 51, 51
11, 16080, Note_on_c, 6, 56, 60
11, 16126, Note_off_c, 6, 51, 64
11, 16132, Note_off_c, 6, 56, 64
11, 16132, Control_c, 6, 64, 0
11, 16320, Note_on_c, 6, 50, 55
11, 16320, Note_on_c, 6, 56, 64
11, 16392, Note_off_c, 6, 56, 64
11, 16442, Note_off_c, 6, 50, 64
11, 16560, Control_c, 6, 64, 127
11, 16560, Note_on_c, 6, 56, 49
11, 16560, Note_on_c, 6, 50, 41
11, 16600, Note_off_c, 6, 50, 64
11, 16616, Note_off_c, 6, 56, 64
11, 16616, Control_c, 6, 64, 0
11, 16800, Note_on_c, 6, 50, 56
11, 16800, Note_on_c, 6, 56, 56
11, 17040, Note_off_c, 6, 56, 64
11, 17040, Note_off_c, 6, 50, 64
11, 17040, Control_c, 6, 64, 127
11, 17040, Note_on_c, 6, 50, 51
11, 17040, Note_on_c, 6, 56, 60
11, 17086, Note_off_c, 6, 50, 64
11, 17092, Note_off_c, 6, 56, 64
11, 17092, Control_c, 6, 64, 0
11, 17280, Note_on_c, 6, 50, 55
11, 17280, Note_on_c, 6, 56, 64
11, 17352, Note_off_c, 6, 56, 64
11, 17402, Note_off_c, 6, 50, 64
11, 17520, Control_c, 6, 64, 127
11, 17520, Note_on_c, 6, 56, 49
11, 17520, Note_on_c, 6, 50, 41
11, 17560, Note_off_c, 6, 50, 64
11, 17576, Note_off_c, 6, 56, 64
11, 17576, Control_c, 6, 64, 0
11, 17760, Note_on_c, 6, 50, 56
11, 17760, Note_on_c, 6, 56, 56
11, 18000, Note_off_c, 6, 56, 64
11, 18000, Note_off_c, 6, 50, 64
11, 18000, Control_c, 6, 64, 127
11, 18000, Note_on_c, 6, 50, 51
11, 18000, Note_on_c, 6, 56, 60
11, 18046, Note_off_c, 6, 50, 64
11, 18052, Note_off_c, 6, 56, 64
11, 18052, Control_c, 6, 64, 0
11, 18240, Note_on_c, 6, 50, 55
11, 18240, Note_on_c, 6, 55, 64
11, 18312, Note_off_c, 6, 55, 64
11, 18362, Note_off_c, 6, 50, 64
11, 18480, Control_c, 6, 64, 127
11, 18480, Note_on_c, 6, 55, 49
11, 18480, Note_on_c, 6, 50, 41
11, 18520, Note_off_c, 6, 50, 64
11, 18536, Note_off_c, 6, 55, 64
11, 18536, Control_c, 6, 64, 0
11, 18720, Note_on_c, 6, 50, 56
11, 18720, Note_on_c, 6, 55, 56
11, 18960, Note_off_c, 6, 55, 64
11, 18960, Note_off_c, 6, 50, 64
11, 18960, Control_c, 6, 64, 127
11, 18960, Note_on_c, 6, 50, 51
11, 18960, Note_on_c, 6, 55, 60
11, 19006, Note_off_c, 6, 50, 64
11, 19012, Note_off_c, 6, 55, 64
11, 19012, Control_c, 6, 64, 0
11, 19200, Note_on_c, 6, 50, 55
11, 19200, Note_on_c, 6, 56, 64
11, 19272, Note_off_c, 6, 56, 64
11, 19322, Note_off_c, 6, 50, 64
11, 19440, Control_c, 6, 64, 127
11, 19440, Note_on_c, 6, 56, 49
11, 19440, Note_on_c, 6, 50, 41
11, 19480, Note_off_c, 6, 50, 64
11, 19496, Note_off_c, 6, 56, 64
11, 19496, Control_c, 6, 64, 0
11, 19680, Note_on_c, 6, 50, 56
11, 19680, Note_on_c, 6, 56, 56
11, 19920, Note_off_c, 6, 56, 64
11, 19920, Note_off_c, 6, 50, 64
11, 19920, Control_c, 6, 64, 127
11, 19920, Note_on_c, 6, 50, 51
11, 19920, Note_on_c, 6, 56, 60
11, 19966, Note_off_c, 6, 50, 64
11, 19972, Note_off_c, 6, 56, 64
11, 19972, Control_c, 6, 64, 0
11, 20160, Note_on_c, 6, 50, 53
11, 20160, Note_on_c, 6, 56, 61
11, 20226, Note_off_c, 6, 56, 64
11, 20226, Control_c, 6, 64, 127
11, 20238, Note_off_c, 6, 50, 64
11, 20400, Note_on_c, 6, 50, 51
11, 20400, Note_on_c, 6, 56, 66
11, 20462, Note_off_c, 6, 56, 64
11, 20462, Note_off_c, 6, 50, 64
11, 20462, Control_c, 6, 64, 0
11, 20640, Note_on_c, 6, 50, 45
11, 20640, Note_on_c, 6, 56, 56
11, 20640, Control_c, 6, 64, 127
11, 20730, Note_off_c, 6, 56, 64
11, 20740, Note_off_c, 6, 50, 64
11, 20880, Note_on_c, 6, 50, 58
11, 20880, Note_on_c, 6, 56, 68
11, 20946, Note_off_c, 6, 56, 64
11, 20946, Note_off_c, 6, 50, 64
11, 20946, Control_c, 6, 64, 0
11, 21120, Note_on_c, 6, 50, 55
11, 21120, Note_on_c, 6, 56, 64
11, 21192, Note_off_c, 6, 56, 64
11, 21242, Note_off_c, 6, 50, 64
11, 21360, Control_c, 6, 64, 127
11, 21360, Note_on_c, 6, 56, 49
11, 21360, Note_on_c, 6, 50, 41
11, 21400, Note_off_c, 6, 50, 64
11, 21416, Note_off_c, 6, 56, 64
11, 21416, Control_c, 6, 64, 0
11, 21600, Note_on_c, 6, 50, 56
11, 21600, Note_on_c, 6, 56, 56
11, 21840, Note_off_c, 6, 56, 64
11, 21840, Note_off_c, 6, 50, 64
11, 21840, Control_c, 6, 64, 127
11, 21840, Note_on_c, 6, 50, 51
11, 21840, Note_on_c, 6, 56, 60
11, 21886, Note_off_c, 6, 50, 64
11, 21892, Note_off_c, 6, 56, 64
11, 21892, Control_c, 6, 64, 0
11, 22080, Note_on_c, 6, 50, 55
11, 22080, Note_on_c, 6, 55, 64
11, 22152, Note_off_c, 6, 55, 64
11, 22202, Note_off_c, 6, 50, 64
11, 22320, Control_c, 6, 64, 127
11, 22320, Note_on_c, 6, 55, 49
11, 22320, Note_on_c, 6, 50, 41
11, 22360, Note_off_c, 6, 50, 64
11, 22376, Note_off_c, 6, 55, 64
11, 22376, Control_c, 6, 64, 0
11, 22560, Note_on_c, 6, 50, 56
11, 22560, Note_on_c, 6, 55, 56
11, 22800, Note_off_c, 6, 55, 64
11, 22800, Note_off_c, 6, 50, 64
11, 22800, Control_c, 6, 64, 127
11, 22800, Note_on_c, 6, 50, 51
11, 22800, Note_on_c, 6, 55, 60
11, 22846, Note_off_c, 6, 50, 64
11, 22852, Note_off_c, 6, 55, 64
11, 22852, Control_c, 6, 64, 0
11, 23040, Note_on_c, 6, 53, 55
11, 23040, Note_on_c, 6, 58, 64
11, 23112, Note_off_c, 6, 58, 64
11, 23162, Note_off_c, 6, 53, 64
11, 23280, Control_c, 6, 64, 127
11, 23280, Note_on_c, 6, 58, 49
11, 23280, Note_on_c, 6, 53, 41
11, 23320, Note_off_c, 6, 53, 64
11, 23336, Note_off_c, 6, 58, 64
11, 23336, Control_c, 6, 64, 0
11, 23520, Note_on_c, 6, 53, 56
11, 23520, Note_on_c, 6, 58, 56
11, 23760, Note_off_c, 6, 58, 64
11, 23760, Note_off_c, 6, 53, 64
11, 23760, Control_c, 6, 64, 127
11, 23760, Note_on_c, 6, 53, 51
11, 23760, Note_on_c, 6, 58, 60
11, 23806, Note_off_c, 6, 53, 64
11, 23812, Note_off_c, 6, 58, 64
11, 23812, Control_c, 6, 64, 0
11, 24000, Note_on_c, 6, 52, 55
11, 24000, Note_on_c, 6, 58, 64
11, 24072, Note_off_c, 6, 58, 64
11, 24122, Note_off_c, 6, 52, 64
11, 24240, Control_c, 6, 64, 127
11, 24240, Note_on_c, 6, 58, 49
11, 24240, Note_on_c, 6, 52, 41
11, 24280, Note_off_c, 6, 52, 64
11, 24296, Note_off_c, 6, 58, 64
11, 24296, Control_c, 6, 64, 0
11, 24480, Note_on_c, 6, 52, 56
11, 24480, Note_on_c, 6, 58, 56
11, 24720, Note_off_c, 6, 58, 64
11, 24720, Note_off_c, 6, 52, 64
11, 24720, Control_c, 6, 64, 127
11, 24720, Note_on_c, 6, 52, 51
11, 24720, Note_on_c, 6, 58, 60
11, 24766, Note_off_c, 6, 52, 64
11, 24772, Note_off_c, 6, 58, 64
11, 24772, Control_c, 6, 64, 0
11, 24960, Note_on_c, 6, 55, 55
11, 24960, Note_on_c, 6, 60, 64
11, 25032, Note_off_c, 6, 60, 64
11, 25082, Note_off_c, 6, 55, 64
11, 25200, Control_c, 6, 64, 127
11, 25200, Note_on_c, 6, 60, 49
11, 25200, Note_on_c, 6, 55, 41
11, 25240, Note_off_c, 6, 55, 64
11, 25256, Note_off_c, 6, 60, 64
11, 25256, Control_c, 6, 64, 0
11, 25440, Note_on_c, 6, 55, 56
11, 25440, Note_on_c, 6, 60, 56
11, 25680, Note_off_c, 6, 60, 64
11, 25680, Note_off_c, 6, 55, 64
11, 25680, Control_c, 6, 64, 127
11, 25680, Note_on_c, 6, 55, 51
11, 25680, Note_on_c, 6, 60, 60
11, 25726, Note_off_c, 6, 55, 64
11, 25732, Note_off_c, 6, 60, 64
11, 25732, Control_c, 6, 64, 0
11, 25920, Note_on_c, 6, 48, 55
11, 25920, Note_on_c, 6, 55, 64
11, 25992, Note_off_c, 6, 55, 64
11, 26042, Note_off_c, 6, 48, 64
11, 26160, Control_c, 6, 64, 127
11, 26160, Note_on_c, 6, 55, 49
11, 26160, Note_on_c, 6, 48, 41
11, 26200, Note_off_c, 6, 48, 64
11, 26216, Note_off_c, 6, 55, 64
11, 26216, Control_c, 6, 64, 0
11, 26400, Note_on_c, 6, 54, 55
11, 26400, Note_on_c, 6, 60, 64
11, 26472, Note_off_c, 6, 60, 64
11, 26522, Note_off_c, 6, 54, 64
11, 26640, Control_c, 6, 64, 127
11, 26640, Note_on_c, 6, 60, 49
11, 26640, Note_on_c, 6, 54, 41
11, 26680, Note_off_c, 6, 54, 64
11, 26696, Note_off_c, 6, 60, 64
11, 26696, Control_c, 6, 64, 0
11, 26880, Note_on_c, 6, 53, 55
11, 26880, Note_on_c, 6, 58, 64
11, 26952, Note_off_c, 6, 58, 64
11, 27002, Note_off_c, 6, 53, 64
11, 27120, Control_c, 6, 64, 127
11, 27120, Note_on_c, 6, 58, 49
11, 27120, Note_on_c, 6, 53, 41
11, 27160, Note_off_c, 6, 53, 64
11, 27176, Note_off_c, 6, 58, 64
11, 27176, Control_c, 6, 64, 0
11, 27360, Note_on_c, 6, 53, 56
11, 27360, Note_on_c, 6, 58, 56
11, 27600, Note_off_c, 6, 58, 64
11, 27600, Note_off_c, 6, 53, 64
11, 27600, Control_c, 6, 64, 127
11, 27600, Note_on_c, 6, 53, 51
11, 27600, Note_on_c, 6, 58, 60
11, 27646, Note_off_c, 6, 53, 64
11, 27652, Note_off_c, 6, 58, 64
11, 27652, Control_c, 6, 64, 0
11, 27840, Note_on_c, 6, 53, 55
11, 27840, Note_on_c, 6, 58, 64
11, 27912, Note_off_c, 6, 58, 64
11, 27962, Note_off_c, 6, 53, 64
11, 28080, Control_c, 6, 64, 127
11, 28080, Note_on_c, 6, 58, 49
11, 28080, Note_on_c, 6, 53, 41
11, 28120, Note_off_c, 6, 53, 64
11, 28136, Note_off_c, 6, 58, 64
11, 28136, Control_c, 6, 64, 0
11, 28320, Note_on_c, 6, 52, 55
11, 28320, Note_on_c, 6, 58, 64
11, 28392, Note_off_c, 6, 58, 64
11, 28442, Note_off_c, 6, 52, 64
11, 28560, Control_c, 6, 64, 127
11, 28560, Note_on_c, 6, 58, 49
11, 28560, Note_on_c, 6, 52, 41
11, 28600, Note_off_c, 6, 52, 64
11, 28616, Note_off_c, 6, 58, 64
11, 28616, Control_c, 6, 64, 0
11, 28800, Note_on_c, 6, 51, 55
11, 28800, Note_on_c, 6, 56, 64
11, 28872, Note_off_c, 6, 56, 64
11, 28922, Note_off_c, 6, 51, 64
11, 29040, Control_c, 6, 64, 127
11, 29040, Note_on_c, 6, 56, 49
11, 29040, Note_on_c, 6, 51, 41
11, 29080, Note_off_c, 6, 51, 64
11, 29096, Note_off_c, 6, 56, 64
11, 29096, Control_c, 6, 64, 0
11, 29280, Note_on_c, 6, 52, 55
11, 29280, Note_on_c, 6, 58, 64
11, 29352, Note_off_c, 6, 58, 64
11, 29402, Note_off_c, 6, 52, 64
11, 29520, Control_c, 6, 64, 127
11, 29520, Note_on_c, 6, 58, 49
11, 29520, Note_on_c, 6, 52, 41
11, 29560, Note_off_c, 6, 52, 64
11, 29576, Note_off_c, 6, 58, 64
11, 29576, Control_c, 6, 64, 0
11, 29760, Note_on_c, 6, 51, 55
11, 29760, Note_on_c, 6, 56, 64
11, 29832, Note_off_c, 6, 56, 64
11, 29882, Note_off_c, 6, 51, 64
11, 30000, Control_c, 6, 64, 127
11, 30000, Note_on_c, 6, 56, 49
11, 30000, Note_on_c, 6, 51, 41
11, 30040, Note_off_c, 6, 51, 64
11, 30056, Note_off_c, 6, 56, 64
11, 30056, Control_c, 6, 64, 0
11, 30240, Note_on_c, 6, 50, 55
11, 30240, Note_on_c, 6, 56, 64
11, 30312, Note_off_c, 6, 56, 64
11, 30362, Note_off_c, 6, 50, 64
11, 30480, Control_c, 6, 64, 127
11, 30480, Note_on_c, 6, 56, 49
11, 30480, Note_on_c, 6, 50, 41
11, 30520, Note_off_c, 6, 50, 64
11, 30536, Note_off_c, 6, 56, 64
11, 30536, Control_c, 6, 64, 0
11, 30720, Note_on_c, 6, 48, 55
11, 30720, Note_on_c, 6, 55, 64
11, 30792, Note_off_c, 6, 55, 64
11, 30842, Note_off_c, 6, 48, 64
11, 30960, Control_c, 6, 64, 127
11, 30960, Note_on_c, 6, 55, 49
11, 30960, Note_on_c, 6, 48, 41
11, 31000, Note_off_c, 6, 48, 64
11, 31016, Note_off_c, 6, 55, 64
11, 31016, Control_c, 6, 64, 0
11, 31200, Note_on_c, 6, 48, 56
11, 31200, Note_on_c, 6, 55, 56
11, 31440, Note_off_c, 6, 55, 64
11, 31440, Note_off_c, 6, 48, 64
11, 31440, Control_c, 6, 64, 127
11, 31440, Note_on_c, 6, 48, 51
11, 31440, Note_on_c, 6, 55, 60
11, 31486, Note_off_c, 6, 48, 64
11, 31492, Note_off_c, 6, 55, 64
11, 31492, Control_c, 6, 64, 0
11, 31680, Note_on_c, 6, 48, 53
11, 31680, Note_on_c, 6, 55, 61
11, 31746, Note_off_c, 6, 55, 64
11, 31746, Control_c, 6, 64, 127
11, 31758, Note_off_c, 6, 48, 64
11, 31920, Note_on_c, 6, 48, 51
11, 31920, Note_on_c, 6, 55, 66
11, 31982, Note_off_c, 6, 55, 64
11, 31982, Note_off_c, 6, 48, 64
11, 31982, Control_c, 6, 64, 0
11, 32160, Note_on_c, 6, 48, 45
11, 32160, Note_on_c, 6, 55, 56
11, 32160, Control_c, 6, 64, 127
11, 32250, Note_off_c, 6, 55, 64
11, 32260, Note_off_c, 6, 48, 64
11, 32400, Note_on_c, 6, 48, 58
11, 32400, Note_on_c, 6, 55, 68
11, 32466, Note_off_c, 6, 55, 64
11, 32466, Note_off_c, 6, 48, 64
11, 32466, Control_c, 6, 64, 0
11, 32640, Note_on_c, 6, 50, 55
11, 32640, Note_on_c, 6, 56, 64
11, 32712, Note_off_c, 6, 56, 64
11, 32762, Note_off_c, 6, 50, 64
11, 32880, Control_c, 6, 64, 127
11, 32880, Note_on_c, 6, 56, 49
11, 32880, Note_on_c, 6, 50, 41
11, 32920, Note_off_c, 6, 50, 64
11, 32936, Note_off_c, 6, 56, 64
11, 32936, Control_c, 6, 64, 0
11, 33120, Note_on_c, 6, 50, 56
11, 33120, Note_on_c, 6, 56, 56
11, 33360, Note_off_c, 6, 56, 64
11, 33360, Note_off_c, 6, 50, 64
11, 33360, Control_c, 6, 64, 127
11, 33360, Note_on_c, 6, 50, 51
11, 33360, Note_on_c, 6, 56, 60
11, 33406, Note_off_c, 6, 50, 64
11, 33412, Note_off_c, 6, 56, 64
11, 33412, Control_c, 6, 64, 0
11, 33600, Note_on_c, 6, 50, 55
11, 33600, Note_on_c, 6, 55, 64
11, 33672, Note_off_c, 6, 55, 64
11, 33722, Note_off_c, 6, 50, 64
11, 33840, Control_c, 6, 64, 127
11, 33840, Note_on_c, 6, 55, 49
11, 33840, Note_on_c, 6, 50, 41
11, 33880, Note_off_c, 6, 50, 64
11, 33896, Note_off_c, 6, 55, 64
11, 33896, Control_c, 6, 64, 0
11, 34080, Note_on_c, 6, 50, 56
11, 34080, Note_on_c, 6, 55, 56
11, 34320, Note_off_c, 6, 55, 64
11, 34320, Note_off_c, 6, 50, 64
11, 34320, Control_c, 6, 64, 127
11, 34320, Note_on_c, 6, 50, 51
11, 34320, Note_on_c, 6, 55, 60
11, 34366, Note_off_c, 6, 50, 64
11, 34372, Note_off_c, 6, 55, 64
11, 34372, Control_c, 6, 64, 0
11, 34560, Note_on_c, 6, 50, 55
11, 34560, Note_on_c, 6, 56, 64
11, 34632, Note_off_c, 6, 56, 64
11, 34682, Note_off_c, 6, 50, 64
11, 34800, Control_c, 6, 64, 127
11, 34800, Note_on_c, 6, 56, 49
11, 34800, Note_on_c, 6, 50, 41
11, 34840, Note_off_c, 6, 50, 64
11, 34856, Note_off_c, 6, 56, 64
11, 34856, Control_c, 6, 64, 0
11, 35040, Note_on_c, 6, 50, 56
11, 35040, Note_on_c, 6, 56, 56
11, 35280, Note_off_c, 6, 56, 64
11, 35280, Note_off_c, 6, 50, 64
11, 35280, Control_c, 6, 64, 127
11, 35280, Note_on_c, 6, 50, 51
11, 35280, Note_on_c, 6, 56, 60
11, 35326, Note_off_c, 6, 50, 64
11, 35332, Note_off_c, 6, 56, 64
11, 35332, Control_c, 6, 64, 0
11, 35520, Note_on_c, 6, 50, 53
11, 35520, Note_on_c, 6, 56, 61
11, 35586, Note_off_c, 6, 56, 64
11, 35586, Control_c, 6, 64, 127
11, 35598, Note_off_c, 6, 50, 64
11, 35760, Note_on_c, 6, 50, 51
11, 35760, Note_on_c, 6, 56, 66
11, 35822, Note_off_c, 6, 56, 64
11, 35822, Note_off_c, 6, 50, 64
11, 35822, Control_c, 6, 64, 0
11, 36000, Note_on_c, 6, 50, 45
11, 36000, Note_on_c, 6, 56, 56
11, 36000, Control_c, 6, 64, 127
11, 36090, Note_off_c, 6, 56, 64
11, 36100, Note_off_c, 6, 50, 64
11, 36240, Note_on_c, 6, 50, 58
11, 36240, Note_on_c, 6, 56, 68
11, 36306, Note_off_c, 6, 56, 64
11, 36306, Note_off_c, 6, 50, 64
11, 36306, Control_c, 6, 64, 0
11, 36480, Note_on_c, 6, 50, 55
11, 36480, Note_on_c, 6, 56, 64
11, 36552, Note_off_c, 6, 56, 64
11, 36602, Note_off_c, 6, 50, 64
11, 36720, Control_c, 6, 64, 127
11, 36720, Note_on_c, 6, 56, 49
11, 36720, Note_on_c, 6, 50, 41
11, 36760, Note_off_c, 6, 50, 64
11, 36776, Note_off_c, 6, 56, 64
11, 36776, Control_c, 6, 64, 0
11, 36960, Note_on_c, 6, 50, 56
11, 36960, Note_on_c, 6, 56, 56
11, 37200, Note_off_c, 6, 56, 64
11, 37200, Note_off_c, 6, 50, 64
11, 37200, Control_c, 6, 64, 127
11, 37200, Note_on_c, 6, 50, 51
11, 37200, Note_on_c, 6, 56, 60
11, 37246, Note_off_c, 6, 50, 64
11, 37252, Note_off_c, 6, 56, 64
11, 37252, Control_c, 6, 64, 0
11, 37440, Note_on_c, 6, 50, 55
11, 37440, Note_on_c, 6, 55, 64
11, 37512, Note_off_c, 6, 55, 64
11, 37562, Note_off_c, 6, 50, 64
11, 37680, Control_c, 6, 64, 127
11, 37680, Note_on_c, 6, 55, 49
11, 37680, Note_on_c, 6, 50, 41
11, 37720, Note_off_c, 6, 50, 64
11, 37736, Note_off_c, 6, 55, 64
11, 37736, Control_c, 6, 64, 0
11, 37920, Note_on_c, 6, 50, 56
11, 37920, Note_on_c, 6, 55, 56
11, 38160, Note_off_c, 6, 55, 64
11, 38160, Note_off_c, 6, 50, 64
11, 38160, Control_c, 6, 64, 127
11, 38160, Note_on_c, 6, 50, 51
11, 38160, Note_on_c, 6, 55, 60
11, 38206, Note_off_c, 6, 50, 64
11, 38212, Note_off_c, 6, 55, 64
11, 38212, Control_c, 6, 64, 0
11, 38400, Note_on_c, 6, 51, 55
11, 38400, Note_on_c, 6, 56, 64
11, 38472, Note_off_c, 6, 56, 64
11, 38522, Note_off_c, 6, 51, 64
11, 38640, Control_c, 6, 64, 127
11, 38640, Note_on_c, 6, 56, 49
11, 38640, Note_on_c, 6, 51, 41
11, 38680, Note_off_c, 6, 51, 64
11, 38696, Note_off_c, 6, 56, 64
11, 38696, Control_c, 6, 64, 0
11, 38880, Note_on_c, 6, 51, 56
11, 38880, Note_on_c, 6, 56, 56
11, 39120, Note_off_c, 6, 56, 64
11, 39120, Note_off_c, 6, 51, 64
11, 39120, Control_c, 6, 64, 127
11, 39120, Note_on_c, 6, 51, 51
11, 39120, Note_on_c, 6, 56, 60
11, 39166, Note_off_c, 6, 51, 64
11, 39172, Note_off_c, 6, 56, 64
11, 39172, Control_c, 6, 64, 0
11, 39360, Note_on_c, 6, 50, 55
11, 39360, Note_on_c, 6, 56, 64
11, 39432, Note_off_c, 6, 56, 64
11, 39482, Note_off_c, 6, 50, 64
11, 39600, Control_c, 6, 64, 127
11, 39600, Note_on_c, 6, 56, 49
11, 39600, Note_on_c, 6, 50, 41
11, 39640, Note_off_c, 6, 50, 64
11, 39656, Note_off_c, 6, 56, 64
11, 39656, Control_c, 6, 64, 0
11, 39840, Note_on_c, 6, 50, 56
11, 39840, Note_on_c, 6, 56, 56
11, 40080, Note_off_c, 6, 56, 64
11, 40080, Note_off_c, 6, 50, 64
11, 40080, Control_c, 6, 64, 127
11, 40080, Note_on_c, 6, 50, 51
11, 40080, Note_on_c, 6, 56, 60
11, 40126, Note_off_c, 6, 50, 64
11, 40132, Note_off_c, 6, 56, 64
11, 40132, Control_c, 6, 64, 0
11, 40320, Note_on_c, 6, 48, 55
11, 40320, Note_on_c, 6, 55, 64
11, 40392, Note_off_c, 6, 55, 64
11, 40442, Note_off_c, 6, 48, 64
11, 40560, Control_c, 6, 64, 127
11, 40560, Note_on_c, 6, 55, 49
11, 40560, Note_on_c, 6, 48, 41
11, 40600, Note_off_c, 6, 48, 64
11, 40616, Note_off_c, 6, 55, 64
11, 40616, Control_c, 6, 64, 0
11, 40800, Note_on_c, 6, 48, 56
11, 40800, Note_on_c, 6, 55, 56
11, 41040, Note_off_c, 6, 55, 64
11, 41040, Note_off_c, 6, 48, 64
11, 41040, Control_c, 6, 64, 127
11, 41040, Note_on_c, 6, 48, 51
11, 41040, Note_on_c, 6, 55, 60
11, 41086, Note_off_c, 6, 48, 64
11, 41092, Note_off_c, 6, 55, 64
11, 41092, Control_c, 6, 64, 0
11, 41280, Note_on_c, 6, 51, 55
11, 41280, Note_on_c, 6, 57, 64
11, 41352, Note_off_c, 6, 57, 64
11, 41402, Note_off_c, 6, 51, 64
11, 41520, Control_c, 6, 64, 127
11, 41520, Note_on_c, 6, 57, 49
11, 41520, Note_on_c, 6, 51, 41
11, 41560, Note_off_c, 6, 51, 64
11, 41576, Note_off_c, 6, 57, 64
11, 41576, Control_c, 6, 64, 0
11, 41760, Note_on_c, 6, 51, 56
11, 41760, Note_on_c, 6, 57, 56
11, 42000, Note_off_c, 6, 57, 64
11, 42000, Note_off_c, 6, 51, 64
11, 42000, Control_c, 6, 64, 127
11, 42000, Note_on_c, 6, 51, 51
11, 42000, Note_on_c, 6, 57, 60
11, 42046, Note_off_c, 6, 51, 64
11, 42052, Note_off_c, 6, 57, 64
11, 42052, Control_c, 6, 64, 0
11, 42240, Note_on_c, 6, 51, 55
11, 42240, Note_on_c, 6, 56, 64
11, 42312, Note_off_c, 6, 56, 64
11, 42362, Note_off_c, 6, 51, 64
11, 42480, Control_c, 6, 64, 127
11, 42480, Note_on_c, 6, 56, 49
11, 42480, Note_on_c, 6, 51, 41
11, 42520, Note_off_c, 6, 51, 64
11, 42536, Note_off_c, 6, 56, 64
11, 42536, Control_c, 6, 64, 0
11, 42720, Note_on_c, 6, 51, 56
11, 42720, Note_on_c, 6, 56, 56
11, 42960, Note_off_c, 6, 56, 64
11, 42960, Note_off_c, 6, 51, 64
11, 42960, Control_c, 6, 64, 127
11, 42960, Note_on_c, 6, 51, 51
11, 42960, Note_on_c, 6, 56, 60
11, 43006, Note_off_c, 6, 51, 64
11, 43012, Note_off_c, 6, 56, 64
11, 43012, Control_c, 6, 64, 0
11, 43200, Note_on_c, 6, 50, 55
11, 43200, Note_on_c, 6, 56, 64
11, 43272, Note_off_c, 6, 56, 64
11, 43322, Note_off_c, 6, 50, 64
11, 43440, Control_c, 6, 64, 127
11, 43440, Note_on_c, 6, 56, 49
11, 43440, Note_on_c, 6, 50, 41
11, 43480, Note_off_c, 6, 50, 64
11, 43496, Note_off_c, 6, 56, 64
11, 43496, Control_c, 6, 64, 0
11, 43680, Note_on_c, 6, 50, 56
11, 43680, Note_on_c, 6, 56, 56
11, 43920, Note_off_c, 6, 56, 64
11, 43920, Note_off_c, 6, 50, 64
11, 43920, Control_c, 6, 64, 127
11, 43920, Note_on_c, 6, 50, 51
11, 43920, Note_on_c, 6, 56, 60
11, 43966, Note_off_c, 6, 50, 64
11, 43972, Note_off_c, 6, 56, 64
11, 43972, Control_c, 6, 64, 0
11, 44160, Note_on_c, 6, 50, 55
11, 44160, Note_on_c, 6, 55, 64
11, 44232, Note_off_c, 6, 55, 64
11, 44282, Note_off_c, 6, 50, 64
11, 44400, Control_c, 6, 64, 127
11, 44400, Note_on_c, 6, 55, 49
11, 44400, Note_on_c, 6, 50, 41
11, 44440, Note_off_c, 6, 50, 64
11, 44456, Note_off_c, 6, 55, 64
11, 44456, Control_c, 6, 64, 0
11, 44640, Note_on_c, 6, 51, 55
11, 44640, Note_on_c, 6, 58, 64
11, 44712, Note_off_c, 6, 58, 64
11, 44762, Note_off_c, 6, 51, 64
11, 44880, Control_c, 6, 64, 127
11, 44880, Note_on_c, 6, 58, 49
11, 44880, Note_on_c, 6, 51, 41
11, 44920, Note_off_c, 6, 51, 64
11, 44936, Note_off_c, 6, 58, 64
11, 44936, Control_c, 6, 64, 0
11, 45120, Note_on_c, 6, 53, 55
11, 45120, Note_on_c, 6, 58, 64
11, 45192, Note_off_c, 6, 58, 64
11, 45242, Note_off_c, 6, 53, 64
11, 45360, Control_c, 6, 64, 127
11, 45360, Note_on_c, 6, 58, 49
11, 45360, Note_on_c, 6, 53, 41
11, 45400, Note_off_c, 6, 53, 64
11, 45416, Note_off_c, 6, 58, 64
11, 45416, Control_c, 6, 64, 0
11, 45600, Note_on_c, 6, 52, 55
11, 45600, Note_on_c, 6, 58, 64
11, 45672, Note_off_c, 6, 58, 64
11, 45722, Note_off_c, 6, 52, 64
11, 45840, Control_c, 6, 64, 127
11, 45840, Note_on_c, 6, 58, 49
11, 45840, Note_on_c, 6, 52, 41
11, 45880, Note_off_c, 6, 52, 64
11, 45896, Note_off_c, 6, 58, 64
11, 45896, Control_c, 6, 64, 0
11, 46080, Note_on_c, 6, 51, 55
11, 46080, Note_on_c, 6, 56, 64
11, 46152, Note_off_c, 6, 56, 64
11, 46202, Note_off_c, 6, 51, 64
11, 46320, Control_c, 6, 64, 127
11, 46320, Note_on_c, 6, 56, 49
11, 46320, Note_on_c, 6, 51, 41
11, 46360, Note_off_c, 6, 51, 64
11, 46376, Note_off_c, 6, 56, 64
11, 46376, Control_c, 6, 64, 0
11, 46560, Note_on_c, 6, 51, 56
11, 46560, Note_on_c, 6, 56, 56
11, 46800, Note_off_c, 6, 56, 64
11, 46800, Note_off_c, 6, 51, 64
11, 46800, Control_c, 6, 64, 127
11, 46800, Note_on_c, 6, 51, 51
11, 46800, Note_on_c, 6, 56, 60
11, 46846, Note_off_c, 6, 51, 64
11, 46852, Note_off_c, 6, 56, 64
11, 46852, Control_c, 6, 64, 0
11, 47040, Note_on_c, 6, 50, 55
11, 47040, Note_on_c, 6, 56, 64
11, 47112, Note_off_c, 6, 56, 64
11, 47162, Note_off_c, 6, 50, 64
11, 47280, Control_c, 6, 64, 127
11, 47280, Note_on_c, 6, 56, 49
11, 47280, Note_on_c, 6, 50, 41
11, 47320, Note_off_c, 6, 50, 64
11, 47336, Note_off_c, 6, 56, 64
11, 47336, Control_c, 6, 64, 0
11, 47520, Note_on_c, 6, 50, 56
11, 47520, Note_on_c, 6, 56, 56
11, 47760, Note_off_c, 6, 56, 64
11, 47760, Note_off_c, 6, 50, 64
11, 47760, Control_c, 6, 64, 127
11, 47760, Note_on_c, 6, 50, 51
11, 47760, Note_on_c, 6, 56, 60
11, 47806, Note_off_c, 6, 50, 64
11, 47812, Note_off_c, 6, 56, 64
11, 47812, Control_c, 6, 64, 0
11, 48000, Note_on_c, 6, 50, 55
11, 48000, Note_on_c, 6, 56, 64
11, 48072, Note_off_c, 6, 56, 64
11, 48122, Note_off_c, 6, 50, 64
11, 48240, Control_c, 6, 64, 127
11, 48240, Note_on_c, 6, 56, 49
11, 48240, Note_on_c, 6, 50, 41
11, 48280, Note_off_c, 6, 50, 64
11, 48296, Note_off_c, 6, 56, 64
11, 48296, Control_c, 6, 64, 0
11, 48480, Note_on_c, 6, 50, 56
11, 48480, Note_on_c, 6, 56, 56
11, 48720, Note_off_c, 6, 56, 64
11, 48720, Note_off_c, 6, 50, 64
11, 48720, Control_c, 6, 64, 127
11, 48720, Note_on_c, 6, 50, 51
11, 48720, Note_on_c, 6, 56, 60
11, 48766, Note_off_c, 6, 50, 64
11, 48772, Note_off_c, 6, 56, 64
11, 48772, Control_c, 6, 64, 0
11, 48960, Note_on_c, 6, 50, 55
11, 48960, Note_on_c, 6, 55, 64
11, 49032, Note_off_c, 6, 55, 64
11, 49082, Note_off_c, 6, 50, 64
11, 49200, Control_c, 6, 64, 127
11, 49200, Note_on_c, 6, 55, 49
11, 49200, Note_on_c, 6, 50, 41
11, 49240, Note_off_c, 6, 50, 64
11, 49256, Note_off_c, 6, 55, 64
11, 49256, Control_c, 6, 64, 0
11, 49440, Note_on_c, 6, 50, 56
11, 49440, Note_on_c, 6, 55, 56
11, 49680, Note_off_c, 6, 55, 64
11, 49680, Note_off_c, 6, 50, 64
11, 49680, Control_c, 6, 64, 127
11, 49680, Note_on_c, 6, 50, 51
11, 49680, Note_on_c, 6, 55, 60
11, 49726, Note_off_c, 6, 50, 64
11, 49732, Note_off_c, 6, 55, 64
11, 49732, Control_c, 6, 64, 0
11, 49920, Note_on_c, 6, 50, 55
11, 49920, Note_on_c, 6, 56, 64
11, 49992, Note_off_c, 6, 56, 64
11, 50042, Note_off_c, 6, 50, 64
11, 50160, Control_c, 6, 64, 127
11, 50160, Note_on_c, 6, 56, 49
11, 50160, Note_on_c, 6, 50, 41
11, 50200, Note_off_c, 6, 50, 64
11, 50216, Note_off_c, 6, 56, 64
11, 50216, Control_c, 6, 64, 0
11, 50400, Note_on_c, 6, 50, 56
11, 50400, Note_on_c, 6, 56, 56
11, 50640, Note_off_c, 6, 56, 64
11, 50640, Note_off_c, 6, 50, 64
11, 50640, Control_c, 6, 64, 127
11, 50640, Note_on_c, 6, 50, 51
11, 50640, Note_on_c, 6, 56, 60
11, 50686, Note_off_c, 6, 50, 64
11, 50692, Note_off_c, 6, 56, 64
11, 50692, Control_c, 6, 64, 0
11, 50880, Note_on_c, 6, 50, 53
11, 50880, Note_on_c, 6, 56, 61
11, 50946, Note_off_c, 6, 56, 64
11, 50946, Control_c, 6, 64, 127
11, 50958, Note_off_c, 6, 50, 64
11, 51120, Note_on_c, 6, 50, 51
11, 51120, Note_on_c, 6, 56, 66
11, 51182, Note_off_c, 6, 56, 64
11, 51182, Note_off_c, 6, 50, 64
11, 51182, Control_c, 6, 64, 0
11, 51360, Note_on_c, 6, 50, 45
11, 51360, Note_on_c, 6, 56, 56
11, 51360, Control_c, 6, 64, 127
11, 51450, Note_off_c, 6, 56, 64
11, 51460, Note_off_c, 6, 50, 64
11, 51600, Note_on_c, 6, 50, 58
11, 51600, Note_on_c, 6, 56, 68
11, 51666, Note_off_c, 6, 56, 64
11, 51666, Note_off_c, 6, 50, 64
11, 51666, Control_c, 6, 64, 0
11, 51840, Note_on_c, 6, 50, 55
11, 51840, Note_on_c, 6, 56, 64
11, 51912, Note_off_c, 6, 56, 64
11, 51962, Note_off_c, 6, 50, 64
11, 52080, Control_c, 6, 64, 127
11, 52080, Note_on_c, 6, 56, 49
11, 52080, Note_on_c, 6, 50, 41
11, 52120, Note_off_c, 6, 50, 64
11, 52136, Note_off_c, 6, 56, 64
11, 52136, Control_c, 6, 64, 0
11, 52320, Note_on_c, 6, 50, 56
11, 52320, Note_on_c, 6, 56, 56
11, 52560, Note_off_c, 6, 56, 64
11, 52560, Note_off_c, 6, 50, 64
11, 52560, Control_c, 6, 64, 127
11, 52560, Note_on_c, 6, 50, 51
11, 52560, Note_on_c, 6, 56, 60
11, 52606, Note_off_c, 6, 50, 64
11, 52612, Note_off_c, 6, 56, 64
11, 52612, Control_c, 6, 64, 0
11, 52800, Note_on_c, 6, 50, 55
11, 52800, Note_on_c, 6, 55, 64
11, 52872, Note_off_c, 6, 55, 64
11, 52922, Note_off_c, 6, 50, 64
11, 53040, Control_c, 6, 64, 127
11, 53040, Note_on_c, 6, 55, 49
11, 53040, Note_on_c, 6, 50, 41
11, 53080, Note_off_c, 6, 50, 64
11, 53096, Note_off_c, 6, 55, 64
11, 53096, Control_c, 6, 64, 0
11, 53280, Note_on_c, 6, 50, 56
11, 53280, Note_on_c, 6, 55, 56
11, 53520, Note_off_c, 6, 55, 64
11, 53520, Note_off_c, 6, 50, 64
11, 53520, Control_c, 6, 64, 127
11, 53520, Note_on_c, 6, 50, 51
11, 53520, Note_on_c, 6, 55, 60
11, 53566, Note_off_c, 6, 50, 64
11, 53572, Note_off_c, 6, 55, 64
11, 53572, Control_c, 6, 64, 0
11, 53760, Note_on_c, 6, 53, 55
11, 53760, Note_on_c, 6, 58, 64
11, 53832, Note_off_c, 6, 58, 64
11, 53882, Note_off_c, 6, 53, 64
11, 54000, Control_c, 6, 64, 127
11, 54000, Note_on_c, 6, 58, 49
11, 54000, Note_on_c, 6, 53, 41
11, 54040, Note_off_c, 6, 53, 64
11, 54056, Note_off_c, 6, 58, 64
11, 54056, Control_c, 6, 64, 0
11, 54240, Note_on_c, 6, 53, 56
11, 54240, Note_on_c, 6, 58, 56
11, 54480, Note_off_c, 6, 58, 64
11, 54480, Note_off_c, 6, 53, 64
11, 54480, Control_c, 6, 64, 127
11, 54480, Note_on_c, 6, 53, 51
11, 54480, Note_on_c, 6, 58, 60
11, 54526, Note_off_c, 6, 53, 64
11, 54532, Note_off_c, 6, 58, 64
11, 54532, Control_c, 6, 64, 0
11, 54720, Note_on_c, 6, 52, 55
11, 54720, Note_on_c, 6, 58, 64
11, 54792, Note_off_c, 6, 58, 64
11, 54842, Note_off_c, 6, 52, 64
11, 54960, Control_c, 6, 64, 127
11, 54960, Note_on_c, 6, 58, 49
11, 54960, Note_on_c, 6, 52, 41
11, 55000, Note_off_c, 6, 52, 64
11, 55016, Note_off_c, 6, 58, 64
11, 55016, Control_c, 6, 64, 0
11, 55200, Note_on_c, 6, 52, 56
11, 55200, Note_on_c, 6, 58, 56
11, 55440, Note_off_c, 6, 58, 64
11, 55440, Note_off_c, 6, 52, 64
11, 55440, Control_c, 6, 64, 127
11, 55440, Note_on_c, 6, 52, 51
11, 55440, Note_on_c, 6, 58, 60
11, 55486, Note_off_c, 6, 52, 64
11, 55492, Note_off_c, 6, 58, 64
11, 55492, Control_c, 6, 64, 0
11, 55680, Note_on_c, 6, 55, 55
11, 55680, Note_on_c, 6, 60, 64
11, 55752, Note_off_c, 6, 60, 64
11, 55802, Note_off_c, 6, 55, 64
11, 55920, Control_c, 6, 64, 127
11, 55920, Note_on_c, 6, 60, 49
11, 55920, Note_on_c, 6, 55, 41
11, 55960, Note_off_c, 6, 55, 64
11, 55976, Note_off_c, 6, 60, 64
11, 55976, Control_c, 6, 64, 0
11, 56160, Note_on_c, 6, 55, 56
11, 56160, Note_on_c, 6, 60, 56
11, 56400, Note_off_c, 6, 60, 64
11, 56400, Note_off_c, 6, 55, 64
11, 56400, Control_c, 6, 64, 127
11, 56400, Note_on_c, 6, 55, 51
11, 56400, Note_on_c, 6, 60, 60
11, 56446, Note_off_c, 6, 55, 64
11, 56452, Note_off_c, 6, 60, 64
11, 56452, Control_c, 6, 64, 0
11, 56640, Note_on_c, 6, 48, 55
11, 56640, Note_on_c, 6, 55, 64
11, 56712, Note_off_c, 6, 55, 64
11, 56762, Note_off_c, 6, 48, 64
11, 56880, Control_c, 6, 64, 127
11, 56880, Note_on_c, 6, 55, 49
11, 56880, Note_on_c, 6, 48, 41
11, 56920, Note_off_c, 6, 48, 64
11, 56936, Note_off_c, 6, 55, 64
11, 56936, Control_c, 6, 64, 0
11, 57120, Note_on_c, 6, 54, 55
11, 57120, Note_on_c, 6, 60, 64
11, 57192, Note_off_c, 6, 60, 64
11, 57242, Note_off_c, 6, 54, 64
11, 57360, Control_c, 6, 64, 127
11, 57360, Note_on_c, 6, 60, 49
11, 57360, Note_on_c, 6, 54, 41
11, 57400, Note_off_c, 6, 54, 64
11, 57416, Note_off_c, 6, 60, 64
11, 57416, Control_c, 6, 64, 0
11, 57600, Note_on_c, 6, 53, 55
11, 57600, Note_on_c, 6, 58, 64
11, 57672, Note_off_c, 6, 58, 64
11, 57722, Note_off_c, 6, 53, 64
11, 57840, Control_c, 6, 64, 127
11, 57840, Note_on_c, 6, 58, 49
11, 57840, Note_on_c, 6, 53, 41
11, 57880, Note_off_c, 6, 53, 64
11, 57896, Note_off_c, 6, 58, 64
11, 57896, Control_c, 6, 64, 0
11, 58080, Note_on_c, 6, 53, 56
11, 58080, Note_on_c, 6, 58, 56
11, 58320, Note_off_c, 6, 58, 64
11, 58320, Note_off_c, 6, 53, 64
11, 58320, Control_c, 6, 64, 127
11, 58320, Note_on_c, 6, 53, 51
11, 58320, Note_on_c, 6, 58, 60
11, 58366, Note_off_c, 6, 53, 64
11, 58372, Note_off_c, 6, 58, 64
11, 58372, Control_c, 6, 64, 0
11, 58560, Note_on_c, 6, 53, 55
11, 58560, Note_on_c, 6, 58, 64
11, 58632, Note_off_c, 6, 58, 64
11, 58682, Note_off_c, 6, 53, 64
11, 58800, Control_c, 6, 64, 127
11, 58800, Note_on_c, 6, 58, 49
11, 58800, Note_on_c, 6, 53, 41
11, 58840, Note_off_c, 6, 53, 64
11, 58856, Note_off_c, 6, 58, 64
11, 58856, Control_c, 6, 64, 0
11, 59040, Note_on_c, 6, 52, 55
11, 59040, Note_on_c, 6, 58, 64
11, 59112, Note_off_c, 6, 58, 64
11, 59162, Note_off_c, 6, 52, 64
11, 59280, Control_c, 6, 64, 127
11, 59280, Note_on_c, 6, 58, 49
11, 59280, Note_on_c, 6, 52, 41
11, 59320, Note_off_c, 6, 52, 64
11, 59336, Note_off_c, 6, 58, 64
11, 59336, Control_c, 6, 64, 0
11, 59520, Note_on_c, 6, 51, 55
11, 59520, Note_on_c, 6, 56, 64
11, 59592, Note_off_c, 6, 56, 64
11, 59642, Note_off_c, 6, 51, 64
11, 59760, Control_c, 6, 64, 127
11, 59760, Note_on_c, 6, 56, 49
11, 59760, Note_on_c, 6, 51, 41
11, 59800, Note_off_c, 6, 51, 64
11, 59816, Note_off_c, 6, 56, 64
11, 59816, Control_c, 6, 64, 0
11, 60000, Note_on_c, 6, 52, 55
11, 60000, Note_on_c, 6, 58, 64
11, 60072, Note_off_c, 6, 58, 64
11, 60122, Note_off_c, 6, 52, 64
11, 60240, Control_c, 6, 64, 127
11, 60240, Note_on_c, 6, 58, 49
11, 60240, Note_on_c, 6, 52, 41
11, 60280, Note_off_c, 6, 52, 64
11, 60296, Note_off_c, 6, 58, 64
11, 60296, Control_c, 6, 64, 0
11, 60480, Note_on_c, 6, 51, 55
11, 60480, Note_on_c, 6, 56, 64
11, 60552, Note_off_c, 6, 56, 64
11, 60602, Note_off_c, 6, 51, 64
11, 60720, Control_c, 6, 64, 127
11, 60720, Note_on_c, 6, 56, 49
11, 60720, Note_on_c, 6, 51, 41
11, 60760, Note_off_c, 6, 51, 64
11, 60776, Note_off_c, 6, 56, 64
11, 60776, Control_c, 6, 64, 0
11, 60960, Note_on_c, 6, 50, 55
11, 60960, Note_on_c, 6, 56, 64
11, 61032, Note_off_c, 6, 56, 64
11, 61082, Note_off_c, 6, 50, 64
11, 61200, Control_c, 6, 64, 127
11, 61200, Note_on_c, 6, 56, 49
11, 61200, Note_on_c, 6, 50, 41
11, 61240, Note_off_c, 6, 50, 64
11, 61256, Note_off_c, 6, 56, 64
11, 61256, Control_c, 6, 64, 0
11, 61440, Note_on_c, 6, 48, 55
11, 61440, Note_on_c, 6, 55, 64
11, 61512, Note_off_c, 6, 55, 64
11, 61562, Note_off_c, 6, 48, 64
11, 61680, Control_c, 6, 64, 127
11, 61680, Note_on_c, 6, 55, 49
11, 61680, Note_on_c, 6, 48, 41
11, 61720, Note_off_c, 6, 48, 64
11, 61736, Note_off_c, 6, 55, 64
11, 61736, Control_c, 6, 64, 0
11, 61920, Note_on_c, 6, 48, 56
11, 61920, Note_on_c, 6, 55, 56
11, 62160, Note_off_c, 6, 55, 64
11, 62160, Note_off_c, 6, 48, 64
11, 62160, Control_c, 6, 64, 127
11, 62160, Note_on_c, 6, 48, 51
11, 62160, Note_on_c, 6, 55, 60
11, 62206, Note_off_c, 6, 48, 64
11, 62212, Note_off_c, 6, 55, 64
11, 62212, Control_c, 6, 64, 0
11, 62400, Note_on_c, 6, 48, 53
11, 62400, Note_on_c, 6, 55, 61
11, 62466, Note_off_c, 6, 55, 64
11, 62466, Control_c, 6, 64, 127
11, 62478, Note_off_c, 6, 48, 64
11, 62640, Note_on_c, 6, 48, 51
11, 62640, Note_on_c, 6, 55, 66
11, 62702, Note_off_c, 6, 55, 64
11, 62702, Note_off_c, 6, 48, 64
11, 62702, Control_c, 6, 64, 0
11, 62880, Note_on_c, 6, 48, 45
11, 62880, Note_on_c, 6, 55, 56
11, 62880, Control_c, 6, 64, 127
11, 62970, Note_off_c, 6, 55, 64
11, 62980, Note_off_c, 6, 48, 64
11, 63120, Note_on_c, 6, 48, 58
11, 63120, Note_on_c, 6, 55, 68
11, 63186, Note_off_c, 6, 55, 64
11, 63186, Note_off_c, 6, 48, 64
11, 63186, Control_c, 6, 64, 0
11, 63360, Note_on_c, 6, 50, 55
11, 63360, Note_on_c, 6, 56, 64
11, 63432, Note_off_c, 6, 56, 64
11, 63482, Note_off_c, 6, 50, 64
11, 63600, Control_c, 6, 64, 127
11, 63600, Note_on_c, 6, 56, 49
11, 63600, Note_on_c, 6, 50, 41
11, 63640, Note_off_c, 6, 50, 64
11, 63656, Note_off_c, 6, 56, 64
11, 63656, Control_c, 6, 64, 0
11, 63840, Note_on_c, 6, 50, 56
11, 63840, Note_on_c, 6, 56, 56
11, 64080, Note_off_c, 6, 56, 64
11, 64080, Note_off_c, 6, 50, 64
11, 64080, Control_c, 6, 64, 127
11, 64080, Note_on_c, 6, 50, 51
11, 64080, Note_on_c, 6, 56, 60
11, 64126, Note_off_c, 6, 50, 64
11, 64132, Note_off_c, 6, 56, 64
11, 64132, Control_c, 6, 64, 0
11, 64320, Note_on_c, 6, 50, 55
11, 64320, Note_on_c, 6, 55, 64
11, 64392, Note_off_c, 6, 55, 64
11, 64442, Note_off_c, 6, 50, 64
11, 64560, Control_c, 6, 64, 127
11, 64560, Note_on_c, 6, 55, 49
11, 64560, Note_on_c, 6, 50, 41
11, 64600, Note_off_c, 6, 50, 64
11, 64616, Note_off_c, 6, 55, 64
11, 64616, Control_c, 6, 64, 0
11, 64800, Note_on_c, 6, 50, 56
11, 64800, Note_on_c, 6, 55, 56
11, 65040, Note_off_c, 6, 55, 64
11, 65040, Note_off_c, 6, 50, 64
11, 65040, Control_c, 6, 64, 127
11, 65040, Note_on_c, 6, 50, 51
11, 65040, Note_on_c, 6, 55, 60
11, 65086, Note_off_c, 6, 50, 64
11, 65092, Note_off_c, 6, 55, 64
11, 65092, Control_c, 6, 64, 0
11, 65280, Note_on_c, 6, 50, 55
11, 65280, Note_on_c, 6, 56, 64
11, 65352, Note_off_c, 6, 56, 64
11, 65402, Note_off_c, 6, 50, 64
11, 65520, Control_c, 6, 64, 127
11, 65520, Note_on_c, 6, 56, 49
11, 65520, Note_on_c, 6, 50, 41
11, 65560, Note_off_c, 6, 50, 64
11, 65576, Note_off_c, 6, 56, 64
11, 65576, Control_c, 6, 64, 0
11, 65760, Note_on_c, 6, 50, 56
11, 65760, Note_on_c, 6, 56, 56
11, 66000, Note_off_c, 6, 56, 64
11, 66000, Note_off_c, 6, 50, 64
11, 66000, Control_c, 6, 64, 127
11, 66000, Note_on_c, 6, 50, 51
11, 66000, Note_on_c, 6, 56, 60
11, 66046, Note_off_c, 6, 50, 64
11, 66052, Note_off_c, 6, 56, 64
11, 66052, Control_c, 6, 64, 0
11, 66240, Note_on_c, 6, 50, 53
11, 66240, Note_on_c, 6, 56, 61
11, 66306, Note_off_c, 6, 56, 64
11, 66306, Control_c, 6, 64, 127
11, 66318, Note_off_c, 6, 50, 64
11, 66480, Note_on_c, 6, 50, 51
11, 66480, Note_on_c, 6, 56, 66
11, 66542, Note_off_c, 6, 56, 64
11, 66542, Note_off_c, 6, 50, 64
11, 66542, Control_c, 6, 64, 0
11, 66720, Note_on_c, 6, 50, 45
11, 66720, Note_on_c, 6, 56, 56
11, 66720, Control_c, 6, 64, 127
11, 66810, Note_off_c, 6, 56, 64
11, 66820, Note_off_c, 6, 50, 64
11, 66960, Note_on_c, 6, 50, 58
11, 66960, Note_on_c, 6, 56, 68
11, 67026, Note_off_c, 6, 56, 64
11, 67026, Note_off_c, 6, 50, 64
11, 67026, Control_c, 6, 64, 0
11, 67200, Note_on_c, 6, 50, 55
11, 67200, Note_on_c, 6, 56, 64
11, 67272, Note_off_c, 6, 56, 64
11, 67322, Note_off_c, 6, 50, 64
11, 67440, Control_c, 6, 64, 127
11, 67440, Note_on_c, 6, 56, 49
11, 67440, Note_on_c, 6, 50, 41
11, 67480, Note_off_c, 6, 50, 64
11, 67496, Note_off_c, 6, 56, 64
11, 67496, Control_c, 6, 64, 0
11, 67680, Note_on_c, 6, 50, 56
11, 67680, Note_on_c, 6, 56, 56
11, 67920, Note_off_c, 6, 56, 64
11, 67920, Note_off_c, 6, 50, 64
11, 67920, Control_c, 6, 64, 127
11, 67920, Note_on_c, 6, 50, 51
11, 67920, Note_on_c, 6, 56, 60
11, 67966, Note_off_c, 6, 50, 64
11, 67972, Note_off_c, 6, 56, 64
11, 67972, Control_c, 6, 64, 0
11, 68160, Note_on_c, 6, 50, 55
11, 68160, Note_on_c, 6, 55, 64
11, 68232, Note_off_c, 6, 55, 64
11, 68282, Note_off_c, 6, 50, 64
11, 68400, Control_c, 6, 64, 127
11, 68400, Note_on_c, 6, 55, 49
11, 68400, Note_on_c, 6, 50, 41
11, 68440, Note_off_c, 6, 50, 64
11, 68456, Note_off_c, 6, 55, 64
11, 68456, Control_c, 6, 64, 0
11, 68640, Note_on_c, 6, 50, 56
11, 68640, Note_on_c, 6, 55, 56
11, 68880, Note_off_c, 6, 55, 64
11, 68880, Note_off_c, 6, 50, 64
11, 68880, Control_c, 6, 64, 127
11, 68880, Note_on_c, 6, 50, 51
11, 68880, Note_on_c, 6, 55, 60
11, 68926, Note_off_c, 6, 50, 64
11, 68932, Note_off_c, 6, 55, 64
11, 68932, Control_c, 6, 64, 0
11, 69120, Note_on_c, 6, 51, 55
11, 69120, Note_on_c, 6, 56, 64
11, 69192, Note_off_c, 6, 56, 64
11, 69242, Note_off_c, 6, 51, 64
11, 69360, Control_c, 6, 64, 127
11, 69360, Note_on_c, 6, 56, 49
11, 69360, Note_on_c, 6, 51, 41
11, 69400, Note_off_c, 6, 51, 64
11, 69416, Note_off_c, 6, 56, 64
11, 69416, Control_c, 6, 64, 0
11, 69600, Note_on_c, 6, 51, 56
11, 69600, Note_on_c, 6, 56, 56
11, 69840, Note_off_c, 6, 56, 64
11, 69840, Note_off_c, 6, 51, 64
11, 69840, Control_c, 6, 64, 127
11, 69840, Note_on_c, 6, 51, 51
11, 69840, Note_on_c, 6, 56, 60
11, 69886, Note_off_c, 6, 51, 64
11, 69892, Note_off_c, 6, 56, 64
11, 69892, Control_c, 6, 64, 0
11, 70080, Note_on_c, 6, 50, 55
11, 70080, Note_on_c, 6, 56, 64
11, 70152, Note_off_c, 6, 56, 64
11, 70202, Note_off_c, 6, 50, 64
11, 70320, Control_c, 6, 64, 127
11, 70320, Note_on_c, 6, 56, 49
11, 70320, Note_on_c, 6, 50, 41
11, 70360, Note_off_c, 6, 50, 64
11, 70376, Note_off_c, 6, 56, 64
11, 70376, Control_c, 6, 64, 0
11, 70560, Note_on_c, 6, 50, 56
11, 70560, Note_on_c, 6, 56, 56
11, 70800, Note_off_c, 6, 56, 64
11, 70800, Note_off_c, 6, 50, 64
11, 70800, Control_c, 6, 64, 127
11, 70800, Note_on_c, 6, 50, 51
11, 70800, Note_on_c, 6, 56, 60
11, 70846, Note_off_c, 6, 50, 64
11, 70852, Note_off_c, 6, 56, 64
11, 70852, Control_c, 6, 64, 0
11, 71040, Note_on_c, 6, 48, 55
11, 71040, Note_on_c, 6, 55, 64
11, 71112, Note_off_c, 6, 55, 64
11, 71162, Note_off_c, 6, 48, 64
11, 71280, Control_c, 6, 64, 127
11, 71280, Note_on_c, 6, 55, 49
11, 71280, Note_on_c, 6, 48, 41
11, 71320, Note_off_c, 6, 48, 64
11, 71336, Note_off_c, 6, 55, 64
11, 71336, Control_c, 6, 64, 0
11, 71520, Note_on_c, 6, 48, 56
11, 71520, Note_on_c, 6, 55, 56
11, 71760, Note_off_c, 6, 55, 64
11, 71760, Note_off_c, 6, 48, 64
11, 71760, Control_c, 6, 64, 127
11, 71760, Note_on_c, 6, 48, 51
11, 71760, Note_on_c, 6, 55, 60
11, 71806, Note_off_c, 6, 48, 64
11, 71812, Note_off_c, 6, 55, 64
11, 71812, Control_c, 6, 64, 0
11, 72000, Note_on_c, 6, 51, 55
11, 72000, Note_on_c, 6, 57, 64
11, 72072, Note_off_c, 6, 57, 64
11, 72122, Note_off_c, 6, 51, 64
11, 72240, Control_c, 6, 64, 127
11, 72240, Note_on_c, 6, 57, 49
11, 72240, Note_on_c, 6, 51, 41
11, 72280, Note_off_c, 6, 51, 64
11, 72296, Note_off_c, 6, 57, 64
11, 72296, Control_c, 6, 64, 0
11, 72480, Note_on_c, 6, 51, 56
11, 72480, Note_on_c, 6, 57, 56
11, 72720, Note_off_c, 6, 57, 64
11, 72720, Note_off_c, 6, 51, 64
11, 72720, Control_c, 6, 64, 127
11, 72720, Note_on_c, 6, 51, 51
11, 72720, Note_on_c, 6, 57, 60
11, 72766, Note_off_c, 6, 51, 64
11, 72772, Note_off_c, 6, 57, 64
11, 72772, Control_c, 6, 64, 0
11, 72960, Note_on_c, 6, 51, 55
11, 72960, Note_on_c, 6, 56, 64
11, 73032, Note_off_c, 6, 56, 64
11, 73082, Note_off_c, 6, 51, 64
11, 73200, Control_c, 6, 64, 127
11, 73200, Note_on_c, 6, 56, 49
11, 73200, Note_on_c, 6, 51, 41
11, 73240, Note_off_c, 6, 51, 64
11, 73256, Note_off_c, 6, 56, 64
11, 73256, Control_c, 6, 64, 0
11, 73440, Note_on_c, 6, 51, 56
11, 73440, Note_on_c, 6, 56, 56
11, 73680, Note_off_c, 6, 56, 64
11, 73680, Note_off_c, 6, 51, 64
11, 73680, Control_c, 6, 64, 127
11, 73680, Note_on_c, 6, 51, 51
11, 73680, Note_on_c, 6, 56, 60
11, 73726, Note_off_c, 6, 51, 64
11, 73732, Note_off_c, 6, 56, 64
11, 73732, Control_c, 6, 64, 0
11, 73920, Note_on_c, 6, 50, 55
11, 73920, Note_on_c, 6, 56, 64
11, 73992, Note_off_c, 6, 56, 64
11, 74042, Note_off_c, 6, 50, 64
11, 74160, Control_c, 6, 64, 127
11, 74160, Note_on_c, 6, 56, 49
11, 74160, Note_on_c, 6, 50, 41
11, 74200, Note_off_c, 6, 50, 64
11, 74216, Note_off_c, 6, 56, 64
11, 74216, Control_c, 6, 64, 0
11, 74400, Note_on_c, 6, 50, 56
11, 74400, Note_on_c, 6, 56, 56
11, 74640, Note_off_c, 6, 56, 64
11, 74640, Note_off_c, 6, 50, 64
11, 74640, Control_c, 6, 64, 127
11, 74640, Note_on_c, 6, 50, 51
11, 74640, Note_on_c, 6, 56, 60
11, 74686, Note_off_c, 6, 50, 64
11, 74692, Note_off_c, 6, 56, 64
11, 74692, Control_c, 6, 64, 0
11, 74880, Note_on_c, 6, 50, 55
11, 74880, Note_on_c, 6, 55, 64
11, 74952, Note_off_c, 6, 55, 64
11, 75002, Note_off_c, 6, 50, 64
11, 75120, Control_c, 6, 64, 127
11, 75120, Note_on_c, 6, 55, 49
11, 75120, Note_on_c, 6, 50, 41
11, 75160, Note_off_c, 6, 50, 64
11, 75176, Note_off_c, 6, 55, 64
11, 75176, Control_c, 6, 64, 0
11, 75360, Note_on_c, 6, 51, 55
11, 75360, Note_on_c, 6, 58, 64
11, 75432, Note_off_c, 6, 58, 64
11, 75482, Note_off_c, 6, 51, 64
11, 75600, Control_c, 6, 64, 127
11, 75600, Note_on_c, 6, 58, 49
11, 75600, Note_on_c, 6, 51, 41
11, 75640, Note_off_c, 6, 51, 64
11, 75656, Note_off_c, 6, 58, 64
11, 75656, Control_c, 6, 64, 0
11, 75840, Note_on_c, 6, 53, 55
11, 75840, Note_on_c, 6, 58, 64
11, 75912, Note_off_c, 6, 58, 64
11, 75962, Note_off_c, 6, 53, 64
11, 76080, Control_c, 6, 64, 127
11, 76080, Note_on_c, 6, 58, 49
11, 76080, Note_on_c, 6, 53, 41
11, 76120, Note_off_c, 6, 53, 64
11, 76136, Note_off_c, 6, 58, 64
11, 76136, Control_c, 6, 64, 0
11, 76320, Note_on_c, 6, 52, 55
11, 76320, Note_on_c, 6, 58, 64
11, 76392, Note_off_c, 6, 58, 64
11, 76442, Note_off_c, 6, 52, 64
11, 76560, Control_c, 6, 64, 127
11, 76560, Note_on_c, 6, 58, 49
11, 76560, Note_on_c, 6, 52, 41
11, 76600, Note_off_c, 6, 52, 64
11, 76616, Note_off_c, 6, 58, 64
11, 76616, Control_c, 6, 64, 0
11, 76800, Note_on_c, 6, 51, 55
11, 76800, Note_on_c, 6, 56, 64
11, 76872, Note_off_c, 6, 56, 64
11, 76922, Note_off_c, 6, 51, 64
11, 77040, Control_c, 6, 64, 127
11, 77040, Note_on_c, 6, 56, 49
11, 77040, Note_on_c, 6, 51, 41
11, 77080, Note_off_c, 6, 51, 64
11, 77096, Note_off_c, 6, 56, 64
11, 77096, Control_c, 6, 64, 0
11, 77280, Note_on_c, 6, 51, 56
11, 77280, Note_on_c, 6, 56, 56
11, 77520, Note_off_c, 6, 56, 64
11, 77520, Note_off_c, 6, 51, 64
11, 77520, Control_c, 6, 64, 127
11, 77520, Note_on_c, 6, 51, 51
11, 77520, Note_on_c, 6, 56, 60
11, 77566, Note_off_c, 6, 51, 64
11, 77572, Note_off_c, 6, 56, 64
11, 77572, Control_c, 6, 64, 0
11, 77760, Note_on_c, 6, 50, 55
11, 77760, Note_on_c, 6, 56, 64
11, 77832, Note_off_c, 6, 56, 64
11, 77882, Note_off_c, 6, 50, 64
11, 78000, Control_c, 6, 64, 127
11, 78000, Note_on_c, 6, 56, 49
11, 78000, Note_on_c, 6, 50, 41
11, 78040, Note_off_c, 6, 50, 64
11, 78056, Note_off_c, 6, 56, 64
11, 78056, Control_c, 6, 64, 0
11, 78240, Note_on_c, 6, 50, 56
11, 78240, Note_on_c, 6, 56, 56
11, 78480, Note_off_c, 6, 56, 64
11, 78480, Note_off_c, 6, 50, 64
11, 78480, Control_c, 6, 64, 127
11, 78480, Note_on_c, 6, 50, 51
11, 78480, Note_on_c, 6, 56, 60
11, 78526, Note_off_c, 6, 50, 64
11, 78532, Note_off_c, 6, 56, 64
11, 78532, Control_c, 6, 64, 0
11, 78720, Note_on_c, 6, 50, 55
11, 78720, Note_on_c, 6, 56, 64
11, 78792, Note_off_c, 6, 56, 64
11, 78842, Note_off_c, 6, 50, 64
11, 78960, Control_c, 6, 64, 127
11, 78960, Note_on_c, 6, 56, 49
11, 78960, Note_on_c, 6, 50, 41
11, 79000, Note_off_c, 6, 50, 64
11, 79016, Note_off_c, 6, 56, 64
11, 79016, Control_c, 6, 64, 0
11, 79200, Note_on_c, 6, 50, 56
11, 79200, Note_on_c, 6, 56, 56
11, 79440, Note_off_c, 6, 56, 64
11, 79440, Note_off_c, 6, 50, 64
11, 79440, Control_c, 6, 64, 127
11, 79440, Note_on_c, 6, 50, 51
11, 79440, Note_on_c, 6, 56, 60
11, 79486, Note_off_c, 6, 50, 64
11, 79492, Note_off_c, 6, 56, 64
11, 79492, Control_c, 6, 64, 0
11, 79680, Note_on_c, 6, 50, 55
11, 79680, Note_on_c, 6, 55, 64
11, 79752, Note_off_c, 6, 55, 64
11, 79802, Note_off_c, 6, 50, 64
11, 79920, Control_c, 6, 64, 127
11, 79920, Note_on_c, 6, 55, 49
11, 79920, Note_on_c, 6, 50, 41
11, 79960, Note_off_c, 6, 50, 64
11, 79976, Note_off_c, 6, 55, 64
11, 79976, Control_c, 6, 64, 0
11, 80160, Note_on_c, 6, 50, 56
11, 80160, Note_on_c, 6, 55, 56
11, 80400, Note_off_c, 6, 55, 64
11, 80400, Note_off_c, 6, 50, 64
11, 80400, Control_c, 6, 64, 127
11, 80400, Note_on_c, 6, 50, 51
11, 80400, Note_on_c, 6, 55, 60
11, 80446, Note_off_c, 6, 50, 64
11, 80452, Note_off_c, 6, 55, 64
11, 80452, Control_c, 6, 64, 0
11, 80640, Note_on_c, 6, 50, 55
11, 80640, Note_on_c, 6, 56, 64
11, 80712, Note_off_c, 6, 56, 64
11, 80762, Note_off_c, 6, 50, 64
11, 80880, Control_c, 6, 64, 127
11, 80880, Note_on_c, 6, 56, 49
11, 80880, Note_on_c, 6, 50, 41
11, 80920, Note_off_c, 6, 50, 64
11, 80936, Note_off_c, 6, 56, 64
11, 80936, Control_c, 6, 64, 0
11, 81120, Note_on_c, 6, 50, 56
11, 81120, Note_on_c, 6, 56, 56
11, 81360, Note_off_c, 6, 56, 64
11, 81360, Note_off_c, 6, 50, 64
11, 81360, Control_c, 6, 64, 127
11, 81360, Note_on_c, 6, 50, 51
11, 81360, Note_on_c, 6, 56, 60
11, 81406, Note_off_c, 6, 50, 64
11, 81412, Note_off_c, 6, 56, 64
11, 81412, Control_c, 6, 64, 0
11, 81600, Note_on_c, 6, 50, 53
11, 81600, Note_on_c, 6, 56, 61
11, 81666, Note_off_c, 6, 56, 64
11, 81666, Control_c, 6, 64, 127
11, 81678, Note_off_c, 6, 50, 64
11, 81840, Note_on_c, 6, 50, 51
11, 81840, Note_on_c, 6, 56, 66
11, 81902, Note_off_c, 6, 56, 64
11, 81902, Note_off_c, 6, 50, 64
11, 81902, Control_c, 6, 64, 0
11, 82080, Note_on_c, 6, 50, 45
11, 82080, Note_on_c, 6, 56, 56
11, 82080, Control_c, 6, 64, 127
11, 82170, Note_off_c, 6, 56, 64
11, 82180, Note_off_c, 6, 50, 64
11, 82320, Note_on_c, 6, 50, 58
11, 82320, Note_on_c, 6, 56, 68
11, 82386, Note_off_c, 6, 56, 64
11, 82386, Note_off_c, 6, 50, 64
11, 82386, Control_c, 6, 64, 0
11, 82560, Note_on_c, 6, 50, 55
11, 82560, Note_on_c, 6, 56, 64
11, 82632, Note_off_c, 6, 56, 64
11, 82682, Note_off_c, 6, 50, 64
11, 82800, Control_c, 6, 64, 127
11, 82800, Note_on_c, 6, 56, 49
11, 82800, Note_on_c, 6, 50, 41
11, 82840, Note_off_c, 6, 50, 64
11, 82856, Note_off_c, 6, 56, 64
11, 82856, Control_c, 6, 64, 0
11, 83040, Note_on_c, 6, 50, 56
11, 83040, Note_on_c, 6, 56, 56
11, 83280, Note_off_c, 6, 56, 64
11, 83280, Note_off_c, 6, 50, 64
11, 83280, Control_c, 6, 64, 127
11, 83280, Note_on_c, 6, 50, 51
11, 83280, Note_on_c, 6, 56, 60
11, 83326, Note_off_c, 6, 50, 64
11, 83332, Note_off_c, 6, 56, 64
11, 83332, Control_c, 6, 64, 0
11, 83520, Note_on_c, 6, 50, 55
11, 83520, Note_on_c, 6, 55, 64
11, 83592, Note_off_c, 6, 55, 64
11, 83642, Note_off_c, 6, 50, 64
11, 83760, Control_c, 6, 64, 127
11, 83760, Note_on_c, 6, 55, 49
11, 83760, Note_on_c, 6, 50, 41
11, 83800, Note_off_c, 6, 50, 64
11, 83816, Note_off_c, 6, 55, 64
11, 83816, Control_c, 6, 64, 0
11, 84000, Note_on_c, 6, 50, 56
11, 84000, Note_on_c, 6, 55, 56
11, 84240, Note_off_c, 6, 55, 64
11, 84240, Note_off_c, 6, 50, 64
11, 84240, Control_c, 6, 64, 127
11, 84240, Note_on_c, 6, 50, 51
11, 84240, Note_on_c, 6, 55, 60
11, 84286, Note_off_c, 6, 50, 64
11, 84292, Note_off_c, 6, 55, 64
11, 84292, Control_c, 6, 64, 0
11, 84480, Note_on_c, 6, 53, 55
11, 84480, Note_on_c, 6, 58, 64
11, 84552, Note_off_c, 6, 58, 64
11, 84602, Note_off_c, 6, 53, 64
11, 84720, Control_c, 6, 64, 127
11, 84720, Note_on_c, 6, 58, 49
11, 84720, Note_on_c, 6, 53, 41
11, 84760, Note_off_c, 6, 53, 64
11, 84776, Note_off_c, 6, 58, 64
11, 84776, Control_c, 6, 64, 0
11, 84960, Note_on_c, 6, 53, 56
11, 84960, Note_on_c, 6, 58, 56
11, 85200, Note_off_c, 6, 58, 64
11, 85200, Note_off_c, 6, 53, 64
11, 85200, Control_c, 6, 64, 127
11, 85200, Note_on_c, 6, 53, 51
11, 85200, Note_on_c, 6, 58, 60
11, 85246, Note_off_c, 6, 53, 64
11, 85252, Note_off_c, 6, 58, 64
11, 85252, Control_c, 6, 64, 0
11, 85440, Note_on_c, 6, 52, 55
11, 85440, Note_on_c, 6, 58, 64
11, 85512, Note_off_c, 6, 58, 64
11, 85562, Note_off_c, 6, 52, 64
11, 85680, Control_c, 6, 64, 127
11, 85680, Note_on_c, 6, 58, 49
11, 85680, Note_on_c, 6, 52, 41
11, 85720, Note_off_c, 6, 52, 64
11, 85736, Note_off_c, 6, 58, 64
11, 85736, Control_c, 6, 64, 0
11, 85920, Note_on_c, 6, 52, 56
11, 85920, Note_on_c, 6, 58, 56
11, 86160, Note_off_c, 6, 58, 64
11, 86160, Note_off_c, 6, 52, 64
11, 86160, Control_c, 6, 64, 127
11, 86160, Note_on_c, 6, 52, 51
11, 86160, Note_on_c, 6, 58, 60
11, 86206, Note_off_c, 6, 52, 64
11, 86212, Note_off_c, 6, 58, 64
11, 86212, Control_c, 6, 64, 0
11, 86400, Note_on_c, 6, 55, 55
11, 86400, Note_on_c, 6, 60, 64
11, 86472, Note_off_c, 6, 60, 64
11, 86522, Note_off_c, 6, 55, 64
11, 86640, Control_c, 6, 64, 127
11, 86640, Note_on_c, 6, 60, 49
11, 86640, Note_on_c, 6, 55, 41
11, 86680, Note_off_c, 6, 55, 64
11, 86696, Note_off_c, 6, 60, 64
11, 86696, Control_c, 6, 64, 0
11, 86880, Note_on_c, 6, 55, 56
11, 86880, Note_on_c, 6, 60, 56
11, 87120, Note_off_c, 6, 60, 64
11, 87120, Note_off_c, 6, 55, 64
11, 87120, Control_c, 6, 64, 127
11, 87120, Note_on_c, 6, 55, 51
11, 87120, Note_on_c, 6, 60, 60
11, 87166, Note_off_c, 6, 55, 64
11, 87172, Note_off_c, 6, 60, 64
11, 87172, Control_c, 6, 64, 0
11, 87360, Note_on_c, 6, 48, 55
11, 87360, Note_on_c, 6, 55, 64
11, 87432, Note_off_c, 6, 55, 64
11, 87482, Note_off_c, 6, 48, 64
11, 87600, Control_c, 6, 64, 127
11, 87600, Note_on_c, 6, 55, 49
11, 87600, Note_on_c, 6, 48, 41
11, 87640, Note_off_c, 6, 48, 64
11, 87656, Note_off_c, 6, 55, 64
11, 87656, Control_c, 6, 64, 0
11, 87840, Note_on_c, 6, 54, 55
11, 87840, Note_on_c, 6, 60, 64
11, 87912, Note_off_c, 6, 60, 64
11, 87962, Note_off_c, 6, 54, 64
11, 88080, Control_c, 6, 64, 127
11, 88080, Note_on_c, 6, 60, 49
11, 88080, Note_on_c, 6, 54, 41
11, 88120, Note_off_c, 6, 54, 64
11, 88136, Note_off_c, 6, 60, 64
11, 88136, Control_c, 6, 64, 0
11, 88320, Note_on_c, 6, 53, 55
11, 88320, Note_on_c, 6, 58, 64
11, 88392, Note_off_c, 6, 58, 64
11, 88442, Note_off_c, 6, 53, 64
11, 88560, Control_c, 6, 64, 127
11, 88560, Note_on_c, 6, 58, 49
11, 88560, Note_on_c, 6, 53, 41
11, 88600, Note_off_c, 6, 53, 64
11, 88616, Note_off_c, 6, 58, 64
11, 88616, Control_c, 6, 64, 0
11, 88800, Note_on_c, 6, 53, 56
11, 88800, Note_on_c, 6, 58, 56
11, 89040, Note_off_c, 6, 58, 64
11, 89040, Note_off_c, 6, 53, 64
11, 89040, Control_c, 6, 64, 127
11, 89040, Note_on_c, 6, 53, 51
11, 89040, Note_on_c, 6, 58, 60
11, 89086, Note_off_c, 6, 53, 64
11, 89092, Note_off_c, 6, 58, 64
11, 89092, Control_c, 6, 64, 0
11, 89280, Note_on_c, 6, 53, 55
11, 89280, Note_on_c, 6, 58, 64
11, 89352, Note_off_c, 6, 58, 64
11, 89402, Note_off_c, 6, 53, 64
11, 89520, Control_c, 6, 64, 127
11, 89520, Note_on_c, 6, 58, 49
11, 89520, Note_on_c, 6, 53, 41
11, 89560, Note_off_c, 6, 53, 64
11, 89576, Note_off_c, 6, 58, 64
11, 89576, Control_c, 6, 64, 0
11, 89760, Note_on_c, 6, 52, 55
11, 89760, Note_on_c, 6, 58, 64
11, 89832, Note_off_c, 6, 58, 64
11, 89882, Note_off_c, 6, 52, 64
11, 90000, Control_c, 6, 64, 127
11, 90000, Note_on_c, 6, 58, 49
11, 90000, Note_on_c, 6, 52, 41
11, 90040, Note_off_c, 6, 52, 64
11, 90056, Note_off_c, 6, 58, 64
11, 90056, Control_c, 6, 64, 0
11, 90240, Note_on_c, 6, 51, 55
11, 90240, Note_on_c, 6, 56, 64
11, 90312, Note_off_c, 6, 56, 64
11, 90362, Note_off_c, 6, 51, 64
11, 90480, Control_c, 6, 64, 127
11, 90480, Note_on_c, 6, 56, 49
11, 90480, Note_on_c, 6, 51, 41
11, 90520, Note_off_c, 6, 51, 64
11, 90536, Note_off_c, 6, 56, 64
11, 90536, Control_c, 6, 64, 0
11, 90720, Note_on_c, 6, 52, 55
11, 90720, Note_on_c, 6, 58, 64
11, 90792, Note_off_c, 6, 58, 64
11, 90842, Note_off_c, 6, 52, 64
11, 90960, Control_c, 6, 64, 127
11, 90960, Note_on_c, 6, 58, 49
11, 90960, Note_on_c, 6, 52, 41
11, 91000, Note_off_c, 6, 52, 64
11, 91016, Note_off_c, 6, 58, 64
11, 91016, Control_c, 6, 64, 0
11, 91200, Note_on_c, 6, 51, 55
11, 91200, Note_on_c, 6, 56, 64
11, 91272, Note_off_c, 6, 56, 64
11, 91322, Note_off_c, 6, 51, 64
11, 91440, Control_c, 6, 64, 127
11, 91440, Note_on_c, 6, 56, 49
11, 91440, Note_on_c, 6, 51, 41
11, 91480, Note_off_c, 6, 51, 64
11, 91496, Note_off_c, 6, 56, 64
11, 91496, Control_c, 6, 64, 0
11, 91680, Note_on_c, 6, 50, 55
11, 91680, Note_on_c, 6, 56, 64
11, 91752, Note_off_c, 6, 56, 64
11, 91802, Note_off_c, 6, 50, 64
11, 91920, Control_c, 6, 64, 127
11, 91920, Note_on_c, 6, 56, 49
11, 91920, Note_on_c, 6, 50, 41
11, 91960, Note_off_c, 6, 50, 64
11, 91976, Note_off_c, 6, 56, 64
11, 91976, Control_c, 6, 64, 0
11, 92160, Note_on_c, 6, 48, 55
11, 92160, Note_on_c, 6, 55, 64
11, 92232, Note_off_c, 6, 55, 64
11, 92282, Note_off_c, 6, 48, 64
11, 92400, Control_c, 6, 64, 127
11, 92400, Note_on_c, 6, 55, 49
11, 92400, Note_on_c, 6, 48, 41
11, 92440, Note_off_c, 6, 48, 64
11, 92456, Note_off_c, 6, 55, 64
11, 92456, Control_c, 6, 64, 0
11, 92640, Note_on_c, 6, 48, 56
11, 92640, Note_on_c, 6, 55, 56
11, 92880, Note_off_c, 6, 55, 64
11, 92880, Note_off_c, 6, 48, 64
11, 92880, Control_c, 6, 64, 127
11, 92880, Note_on_c, 6, 48, 51
11, 92880, Note_on_c, 6, 55, 60
11, 92926, Note_off_c, 6, 48, 64
11, 92932, Note_off_c, 6, 55, 64
11, 92932, Control_c, 6, 64, 0
11, 93120, Note_on_c, 6, 48, 55
11, 93120, Note_on_c, 6, 55, 64
11, 93192, Note_off_c, 6, 55, 64
11, 93242, Note_off_c, 6, 48, 64
11, 93360, Control_c, 6, 64, 127
11, 93360, Note_on_c, 6, 55, 49
11, 93360, Note_on_c, 6, 48, 41
11, 93400, Note_off_c, 6, 48, 64
11, 93416, Note_off_c, 6, 55, 64
11, 93416, Control_c, 6, 64, 0
11, 93600, Note_on_c, 6, 48, 56
11, 93600, Note_on_c, 6, 55, 56
11, 93840, Note_off_c, 6, 55, 64
11, 93840, Note_off_c, 6, 48, 64
11, 93840, Control_c, 6, 64, 127
11, 93840, Note_on_c, 6, 48, 51
11, 93840, Note_on_c, 6, 55, 60
11, 93886, Note_off_c, 6, 48, 64
11, 93892, Note_off_c, 6, 55, 64
11, 93892, Control_c, 6, 64, 0
11, 94080, Note_on_c, 6, 55, 58
11, 94080, Note_on_c, 6, 48, 51
11, 94150, Control_c, 6, 64, 127
11, 94186, Note_off_c, 6, 55, 64
11, 94194, Note_off_c, 6, 48, 64
11, 94330, Note_on_c, 6, 55, 79
11, 94340, Note_on_c, 6, 48, 50
11, 94366, Control_c, 6, 64, 0
11, 94370, Note_off_c, 6, 55, 64
11, 94380, Note_off_c, 6, 48, 64
11, 94594, Note_on_c, 6, 55, 55
11, 94600, Note_on_c, 6, 48, 33
11, 94626, Control_c, 6, 64, 127
11, 94656, Note_off_c, 6, 55, 64
11, 94670, Note_off_c, 6, 48, 64
11, 94794, Control_c, 6, 64, 0
11, 94828, Note_on_c, 6, 55, 80
11, 94838, Note_on_c, 6, 48, 35
11, 94864, Note_off_c, 6, 55, 64
11, 94876, Note_off_c, 6, 48, 64
11, 95066, Note_on_c, 6, 55, 70
11, 95070, Note_on_c, 6, 48, 48
11, 95106, Note_off_c, 6, 55, 64
11, 95120, Note_off_c, 6, 48, 64
11, 95462, Note_on_c, 6, 55, 47
11, 95462, Note_on_c, 6, 48, 45
11, 96000, Note_off_c, 6, 48, 64
11, 96000, Note_off_c, 6, 55, 64
11, 96000, Control_c, 6, 64, 0
11, 96000, End_track
12, 0, Start_track
12, 0, Title_t, "Solo / Alto sax"
12, 0, Program_c, 7, 65
12, 0, Control_c, 7, 7, 110
12, 0, Control_c, 7, 93, 0
12, 0, Control_c, 7, 91, 40
12, 0, Control_c, 7, 121, 0
12, 0, Control_c, 7, 10, 64
12, 0, Control_c, 7, 123, 0
12, 0, Program_c, 7, 65
12, 33158, Note_on_c, 7, 61, 115
12, 33302, Note_off_c, 7, 61, 64
12, 33320, Note_on_c, 7, 59, 61
12, 33370, Note_off_c, 7, 59, 64
12, 33386, Note_on_c, 7, 61, 101
12, 33524, Note_off_c, 7, 61, 64
12, 33546, Note_on_c, 7, 59, 90
12, 33626, Note_off_c, 7, 59, 64
12, 33630, Note_on_c, 7, 58, 78
12, 33788, Note_on_c, 7, 56, 84
12, 33800, Note_off_c, 7, 58, 64
12, 33882, Note_off_c, 7, 56, 64
12, 33884, Note_on_c, 7, 55, 54
12, 34016, Note_off_c, 7, 55, 64
12, 34024, Note_on_c, 7, 53, 76
12, 34116, Note_on_c, 7, 51, 51
12, 34138, Note_off_c, 7, 53, 64
12, 34268, Note_on_c, 7, 53, 63
12, 34312, Note_off_c, 7, 51, 64
12, 34356, Note_on_c, 7, 55, 74
12, 34378, Note_off_c, 7, 53, 64
12, 34480, Note_off_c, 7, 55, 64
12, 34496, Note_on_c, 7, 56, 95
12, 34590, Note_on_c, 7, 58, 73
12, 34592, Note_off_c, 7, 56, 64
12, 34736, Note_off_c, 7, 58, 64
12, 34748, Note_on_c, 7, 62, 100
12, 34828, Note_off_c, 7, 62, 64
12, 34840, Note_on_c, 7, 65, 90
12, 34974, Note_on_c, 7, 64, 95
12, 34978, Note_off_c, 7, 65, 64
12, 35066, Note_off_c, 7, 64, 64
12, 35072, Note_on_c, 7, 63, 104
12, 35210, Note_off_c, 7, 63, 64
12, 35244, Note_on_c, 7, 60, 46
12, 35298, Note_off_c, 7, 60, 64
12, 35312, Note_on_c, 7, 62, 110
12, 35450, Note_off_c, 7, 62, 64
12, 35464, Note_on_c, 7, 65, 104
12, 35560, Note_off_c, 7, 65, 64
12, 35568, Note_on_c, 7, 68, 80
12, 35704, Note_off_c, 7, 68, 64
12, 35706, Note_on_c, 7, 70, 95
12, 35814, Note_on_c, 7, 71, 81
12, 35816, Note_off_c, 7, 70, 64
12, 35924, Note_off_c, 7, 71, 64
12, 35942, Note_on_c, 7, 73, 87
12, 36022, Note_off_c, 7, 73, 64
12, 36056, Note_on_c, 7, 74, 91
12, 36162, Note_off_c, 7, 74, 64
12, 36180, Note_on_c, 7, 76, 101
12, 36258, Note_off_c, 7, 76, 64
12, 36290, Note_on_c, 7, 73, 81
12, 36392, Note_off_c, 7, 73, 64
12, 36424, Note_on_c, 7, 71, 81
12, 36504, Note_on_c, 7, 73, 97
12, 36516, Note_off_c, 7, 71, 64
12, 36710, Note_off_c, 7, 73, 64
12, 36854, Note_on_c, 7, 71, 81
12, 36908, Note_on_c, 7, 66, 75
12, 36924, Note_off_c, 7, 71, 64
12, 36994, Note_on_c, 7, 62, 79
12, 37012, Note_off_c, 7, 66, 64
12, 37196, Note_off_c, 7, 62, 64
12, 37374, Note_on_c, 7, 64, 107
12, 37466, Note_off_c, 7, 64, 64
12, 37476, Note_on_c, 7, 65, 78
12, 37600, Note_off_c, 7, 65, 64
12, 37602, Note_on_c, 7, 68, 99
12, 37710, Note_on_c, 7, 62, 50
12, 37740, Note_off_c, 7, 68, 64
12, 37854, Note_on_c, 7, 60, 57
12, 37874, Note_off_c, 7, 62, 64
12, 37950, Note_on_c, 7, 62, 73
12, 37972, Note_off_c, 7, 60, 64
12, 38082, Note_off_c, 7, 62, 64
12, 38100, Note_on_c, 7, 63, 89
12, 38194, Note_on_c, 7, 65, 77
12, 38198, Note_off_c, 7, 63, 64
12, 38316, Note_off_c, 7, 65, 64
12, 38336, Note_on_c, 7, 67, 97
12, 38428, Note_off_c, 7, 67, 64
12, 38436, Note_on_c, 7, 63, 71
12, 38576, Note_on_c, 7, 56, 59
12, 38580, Note_off_c, 7, 63, 64
12, 38662, Note_on_c, 7, 59, 81
12, 38674, Note_off_c, 7, 56, 64
12, 38732, Note_on_c, 7, 63, 66
12, 38738, Note_off_c, 7, 59, 64
12, 38800, Note_on_c, 7, 67, 94
12, 38826, Note_off_c, 7, 63, 64
12, 38850, Note_off_c, 7, 67, 64
12, 38896, Note_on_c, 7, 70, 101
12, 39028, Note_off_c, 7, 70, 64
12, 39046, Note_on_c, 7, 73, 103
12, 39142, Note_off_c, 7, 73, 64
12, 39142, Note_on_c, 7, 71, 85
12, 39292, Note_off_c, 7, 71, 64
12, 39294, Note_on_c, 7, 67, 79
12, 39378, Note_on_c, 7, 68, 53
12, 39418, Note_off_c, 7, 67, 64
12, 39460, Note_on_c, 7, 69, 82
12, 39526, Note_on_c, 7, 70, 102
12, 39528, Note_off_c, 7, 68, 64
12, 39564, Note_off_c, 7, 69, 64
12, 39620, Note_off_c, 7, 70, 64
12, 39626, Note_on_c, 7, 68, 81
12, 39748, Note_off_c, 7, 68, 64
12, 39774, Note_on_c, 7, 67, 96
12, 39874, Note_on_c, 7, 65, 68
12, 39876, Note_off_c, 7, 67, 64
12, 39996, Note_off_c, 7, 65, 64
12, 40008, Note_on_c, 7, 64, 94
12, 40108, Note_on_c, 7, 62, 69
12, 40110, Note_off_c, 7, 64, 64
12, 40254, Note_on_c, 7, 61, 81
12, 40256, Note_off_c, 7, 62, 64
12, 40340, Note_off_c, 7, 61, 64
12, 40348, Note_on_c, 7, 60, 73
12, 40494, Note_on_c, 7, 62, 79
12, 40530, Note_off_c, 7, 60, 64
12, 40594, Note_on_c, 7, 63, 78
12, 40596, Note_off_c, 7, 62, 64
12, 40706, Note_off_c, 7, 63, 64
12, 40734, Note_on_c, 7, 65, 94
12, 40836, Note_off_c, 7, 65, 64
12, 40846, Note_on_c, 7, 67, 89
12, 40950, Note_off_c, 7, 67, 64
12, 40980, Note_on_c, 7, 65, 85
12, 41066, Note_off_c, 7, 65, 64
12, 41080, Note_on_c, 7, 62, 70
12, 41212, Note_off_c, 7, 62, 64
12, 41218, Note_on_c, 7, 58, 42
12, 41306, Note_off_c, 7, 58, 64
12, 41332, Note_on_c, 7, 59, 63
12, 41456, Note_off_c, 7, 59, 64
12, 41462, Note_on_c, 7, 60, 86
12, 41548, Note_off_c, 7, 60, 64
12, 41558, Note_on_c, 7, 62, 87
12, 41678, Note_off_c, 7, 62, 64
12, 41694, Note_on_c, 7, 63, 95
12, 41792, Note_off_c, 7, 63, 64
12, 41808, Note_on_c, 7, 65, 91
12, 41928, Note_off_c, 7, 65, 64
12, 41942, Note_on_c, 7, 62, 97
12, 42040, Note_off_c, 7, 62, 64
12, 42048, Note_on_c, 7, 60, 66
12, 42172, Note_off_c, 7, 60, 64
12, 42182, Note_on_c, 7, 59, 96
12, 42274, Note_off_c, 7, 59, 64
12, 42296, Note_on_c, 7, 58, 68
12, 42426, Note_off_c, 7, 58, 64
12, 42430, Note_on_c, 7, 57, 89
12, 42510, Note_off_c, 7, 57, 64
12, 42540, Note_on_c, 7, 56, 68
12, 42670, Note_off_c, 7, 56, 64
12, 42674, Note_on_c, 7, 60, 97
12, 42782, Note_on_c, 7, 56, 56
12, 42788, Note_off_c, 7, 60, 64
12, 43016, Note_off_c, 7, 56, 64
12, 43710, Note_on_c, 7, 59, 118
12, 43850, Note_off_c, 7, 59, 64
12, 43864, Note_on_c, 7, 58, 97
12, 43956, Note_on_c, 7, 56, 74
12, 43970, Note_off_c, 7, 58, 64
12, 44096, Note_off_c, 7, 56, 64
12, 44096, Note_on_c, 7, 54, 92
12, 44164, Note_off_c, 7, 54, 64
12, 44198, Note_on_c, 7, 55, 61
12, 44334, Note_off_c, 7, 55, 64
12, 44334, Note_on_c, 7, 58, 102
12, 44436, Note_on_c, 7, 53, 65
12, 44466, Note_off_c, 7, 58, 64
12, 44584, Note_off_c, 7, 53, 64
12, 44584, Note_on_c, 7, 50, 52
12, 44662, Note_on_c, 7, 51, 75
12, 44670, Note_off_c, 7, 50, 64
12, 44868, Note_off_c, 7, 51, 64
12, 45158, Note_on_c, 7, 49, 107
12, 45312, Note_off_c, 7, 49, 64
12, 45398, Note_on_c, 7, 58, 105
12, 45568, Note_on_c, 7, 56, 102
12, 45594, Note_off_c, 7, 58, 64
12, 45662, Note_off_c, 7, 56, 64
12, 45776, Note_on_c, 7, 56, 102
12, 45868, Note_on_c, 7, 55, 85
12, 45870, Note_off_c, 7, 56, 64
12, 46038, Note_off_c, 7, 55, 64
12, 46118, Note_on_c, 7, 53, 66
12, 46292, Note_off_c, 7, 53, 64
12, 46342, Note_on_c, 7, 60, 108
12, 46490, Note_off_c, 7, 60, 64
12, 46494, Note_on_c, 7, 53, 57
12, 46596, Note_on_c, 7, 56, 68
12, 46616, Note_off_c, 7, 53, 64
12, 46728, Note_off_c, 7, 56, 64
12, 46738, Note_on_c, 7, 60, 91
12, 46818, Note_off_c, 7, 60, 64
12, 46824, Note_on_c, 7, 63, 82
12, 46972, Note_on_c, 7, 67, 87
12, 47004, Note_off_c, 7, 63, 64
12, 47044, Note_off_c, 7, 67, 64
12, 47068, Note_on_c, 7, 70, 112
12, 47186, Note_off_c, 7, 70, 64
12, 47206, Note_on_c, 7, 69, 107
12, 47308, Note_off_c, 7, 69, 64
12, 47314, Note_on_c, 7, 68, 90
12, 47502, Note_off_c, 7, 68, 64
12, 48026, Note_on_c, 7, 68, 116
12, 48140, Note_off_c, 7, 68, 64
12, 48180, Note_on_c, 7, 64, 106
12, 48282, Note_on_c, 7, 60, 65
12, 48310, Note_off_c, 7, 64, 64
12, 48426, Note_off_c, 7, 60, 64
12, 48440, Note_on_c, 7, 56, 38
12, 48520, Note_on_c, 7, 66, 117
12, 48524, Note_off_c, 7, 56, 64
12, 48626, Note_off_c, 7, 66, 64
12, 48660, Note_on_c, 7, 62, 37
12, 48692, Note_on_c, 7, 59, 74
12, 48728, Note_off_c, 7, 62, 64
12, 48744, Note_on_c, 7, 56, 67
12, 48784, Note_off_c, 7, 59, 64
12, 48892, Note_off_c, 7, 56, 64
12, 48902, Note_on_c, 7, 65, 96
12, 48990, Note_on_c, 7, 67, 73
12, 49004, Note_off_c, 7, 65, 64
12, 49220, Note_on_c, 7, 70, 90
12, 49230, Note_off_c, 7, 67, 64
12, 49410, Note_on_c, 7, 67, 50
12, 49422, Note_off_c, 7, 70, 64
12, 49454, Note_off_c, 7, 67, 64
12, 49458, Note_on_c, 7, 74, 77
12, 49622, Note_on_c, 7, 77, 91
12, 49640, Note_off_c, 7, 74, 64
12, 49950, Note_off_c, 7, 77, 64
12, 50094, Note_on_c, 7, 76, 99
12, 50174, Note_off_c, 7, 76, 64
12, 50196, Note_on_c, 7, 77, 59
12, 50328, Note_off_c, 7, 77, 64
12, 50336, Note_on_c, 7, 74, 76
12, 50432, Note_on_c, 7, 73, 107
12, 50448, Note_off_c, 7, 74, 64
12, 50572, Note_off_c, 7, 73, 64
12, 50578, Note_on_c, 7, 71, 100
12, 50658, Note_off_c, 7, 71, 64
12, 50694, Note_on_c, 7, 70, 83
12, 50800, Note_off_c, 7, 70, 64
12, 50810, Note_on_c, 7, 68, 69
12, 50914, Note_off_c, 7, 68, 64
12, 50946, Note_on_c, 7, 70, 53
12, 51092, Note_on_c, 7, 68, 69
12, 51122, Note_off_c, 7, 70, 64
12, 51246, Note_off_c, 7, 68, 64
12, 51414, Note_on_c, 7, 70, 67
12, 51544, Note_off_c, 7, 70, 64
12, 51552, Note_on_c, 7, 72, 102
12, 51648, Note_off_c, 7, 72, 64
12, 51658, Note_on_c, 7, 74, 95
12, 51780, Note_off_c, 7, 74, 64
12, 51788, Note_on_c, 7, 77, 98
12, 51876, Note_off_c, 7, 77, 64
12, 51888, Note_on_c, 7, 75, 100
12, 52000, Note_off_c, 7, 75, 64
12, 52026, Note_on_c, 7, 77, 103
12, 52118, Note_off_c, 7, 77, 64
12, 52128, Note_on_c, 7, 75, 89
12, 52250, Note_off_c, 7, 75, 64
12, 52268, Note_on_c, 7, 72, 96
12, 52360, Note_off_c, 7, 72, 64
12, 52368, Note_on_c, 7, 68, 54
12, 52492, Note_off_c, 7, 68, 64
12, 52506, Note_on_c, 7, 69, 96
12, 52594, Note_on_c, 7, 70, 84
12, 52598, Note_off_c, 7, 69, 64
12, 52778, Note_off_c, 7, 70, 64
12, 53308, Note_on_c, 7, 70, 102
12, 53444, Note_off_c, 7, 70, 64
12, 53464, Note_on_c, 7, 67, 53
12, 53564, Note_on_c, 7, 68, 78
12, 53576, Note_off_c, 7, 67, 64
12, 53700, Note_off_c, 7, 68, 64
12, 53706, Note_on_c, 7, 70, 93
12, 53796, Note_on_c, 7, 72, 100
12, 53810, Note_off_c, 7, 70, 64
12, 53946, Note_off_c, 7, 72, 64
12, 54038, Note_on_c, 7, 72, 107
12, 54234, Note_off_c, 7, 72, 64
12, 54288, Note_on_c, 7, 70, 105
12, 54444, Note_on_c, 7, 65, 65
12, 54458, Note_off_c, 7, 70, 64
12, 54514, Note_on_c, 7, 62, 74
12, 54538, Note_off_c, 7, 65, 64
12, 54664, Note_on_c, 7, 63, 79
12, 54678, Note_off_c, 7, 62, 64
12, 54764, Note_on_c, 7, 64, 82
12, 54778, Note_off_c, 7, 63, 64
12, 54870, Note_off_c, 7, 64, 64
12, 54906, Note_on_c, 7, 67, 84
12, 54998, Note_off_c, 7, 67, 64
12, 55002, Note_on_c, 7, 70, 62
12, 55120, Note_off_c, 7, 70, 64
12, 55130, Note_on_c, 7, 72, 104
12, 55198, Note_off_c, 7, 72, 64
12, 55246, Note_on_c, 7, 73, 102
12, 55342, Note_off_c, 7, 73, 64
12, 55394, Note_on_c, 7, 75, 50
12, 55412, Note_on_c, 7, 73, 90
12, 55488, Note_on_c, 7, 72, 66
12, 55498, Note_off_c, 7, 75, 64
12, 55552, Note_off_c, 7, 73, 64
12, 55618, Note_off_c, 7, 72, 64
12, 55622, Note_on_c, 7, 70, 92
12, 55708, Note_on_c, 7, 67, 59
12, 55714, Note_off_c, 7, 70, 64
12, 55746, Note_on_c, 7, 68, 60
12, 55760, Note_off_c, 7, 67, 64
12, 55798, Note_on_c, 7, 67, 54
12, 55844, Note_off_c, 7, 68, 64
12, 55864, Note_on_c, 7, 65, 59
12, 55882, Note_off_c, 7, 67, 64
12, 55944, Note_on_c, 7, 67, 56
12, 55952, Note_off_c, 7, 65, 64
12, 56238, Note_off_c, 7, 67, 64
12, 56816, Note_on_c, 7, 63, 108
12, 56912, Note_off_c, 7, 63, 64
12, 56924, Note_on_c, 7, 60, 57
12, 57062, Note_off_c, 7, 60, 64
12, 57070, Note_on_c, 7, 57, 41
12, 57128, Note_off_c, 7, 57, 64
12, 57142, Note_on_c, 7, 65, 100
12, 57280, Note_off_c, 7, 65, 64
12, 57294, Note_on_c, 7, 62, 78
12, 57390, Note_off_c, 7, 62, 64
12, 57392, Note_on_c, 7, 58, 56
12, 57540, Note_on_c, 7, 62, 92
12, 57542, Note_off_c, 7, 58, 64
12, 57636, Note_on_c, 7, 60, 100
12, 57660, Note_off_c, 7, 62, 64
12, 57786, Note_off_c, 7, 60, 64
12, 57878, Note_on_c, 7, 60, 107
12, 58074, Note_off_c, 7, 60, 64
12, 58128, Note_on_c, 7, 58, 105
12, 58284, Note_on_c, 7, 53, 65
12, 58298, Note_off_c, 7, 58, 64
12, 58354, Note_on_c, 7, 50, 74
12, 58378, Note_off_c, 7, 53, 64
12, 58504, Note_on_c, 7, 51, 79
12, 58518, Note_off_c, 7, 50, 64
12, 58604, Note_on_c, 7, 57, 79
12, 58618, Note_off_c, 7, 51, 64
12, 58716, Note_off_c, 7, 57, 64
12, 58744, Note_on_c, 7, 58, 106
12, 58838, Note_off_c, 7, 58, 64
12, 58854, Note_on_c, 7, 57, 66
12, 58966, Note_off_c, 7, 57, 64
12, 58984, Note_on_c, 7, 55, 86
12, 59068, Note_on_c, 7, 56, 88
12, 59094, Note_off_c, 7, 55, 64
12, 59270, Note_off_c, 7, 56, 64
12, 59308, Note_on_c, 7, 58, 94
12, 59478, Note_on_c, 7, 55, 89
12, 59480, Note_off_c, 7, 58, 64
12, 59534, Note_on_c, 7, 56, 108
12, 59570, Note_off_c, 7, 55, 64
12, 59698, Note_off_c, 7, 56, 64
12, 59702, Note_on_c, 7, 53, 44
12, 59768, Note_on_c, 7, 55, 88
12, 59782, Note_off_c, 7, 53, 64
12, 59920, Note_on_c, 7, 56, 106
12, 59924, Note_off_c, 7, 55, 64
12, 60040, Note_off_c, 7, 56, 64
12, 60048, Note_on_c, 7, 58, 80
12, 60184, Note_off_c, 7, 58, 64
12, 60186, Note_on_c, 7, 60, 95
12, 60294, Note_on_c, 7, 61, 81
12, 60296, Note_off_c, 7, 60, 64
12, 60404, Note_off_c, 7, 61, 64
12, 60422, Note_on_c, 7, 63, 87
12, 60502, Note_off_c, 7, 63, 64
12, 60530, Note_on_c, 7, 62, 45
12, 60644, Note_off_c, 7, 62, 64
12, 60662, Note_on_c, 7, 60, 67
12, 60750, Note_on_c, 7, 59, 81
12, 60764, Note_off_c, 7, 60, 64
12, 60906, Note_on_c, 7, 58, 81
12, 60926, Note_off_c, 7, 59, 64
12, 61034, Note_off_c, 7, 58, 64
12, 61140, Note_on_c, 7, 56, 99
12, 61236, Note_off_c, 7, 56, 64
12, 61258, Note_on_c, 7, 55, 42
12, 61382, Note_off_c, 7, 55, 64
12, 61470, Note_on_c, 7, 55, 73
12, 61700, Note_on_c, 7, 58, 90
12, 61710, Note_off_c, 7, 55, 64
12, 61890, Note_on_c, 7, 55, 50
12, 61902, Note_off_c, 7, 58, 64
12, 61934, Note_off_c, 7, 55, 64
12, 61938, Note_on_c, 7, 62, 77
12, 62102, Note_on_c, 7, 65, 91
12, 62120, Note_off_c, 7, 62, 64
12, 62422, Note_on_c, 7, 63, 100
12, 62430, Note_off_c, 7, 65, 64
12, 62588, Note_on_c, 7, 62, 69
12, 62618, Note_off_c, 7, 63, 64
12, 62658, Note_on_c, 7, 63, 78
12, 62684, Note_off_c, 7, 62, 64
12, 62752, Note_off_c, 7, 63, 64
12, 62826, Note_on_c, 7, 72, 89
12, 62910, Note_off_c, 7, 72, 64
12, 63058, Note_on_c, 7, 70, 84
12, 63424, Note_off_c, 7, 70, 64
12, 63424, End_track
13, 0, Start_track
13, 0, Title_t, "Drums / Traps"
13, 0, Program_c, 9, 25
13, 0, Control_c, 9, 7, 90
13, 0, Control_c, 9, 121, 0
13, 0, Control_c, 9, 10, 64
13, 0, Control_c, 9, 123, 0
13, 0, Control_c, 9, 91, 40
13, 0, Control_c, 9, 93, 0
13, 1920, Note_on_c, 9, 35, 60
13, 1920, Note_on_c, 9, 42, 70
13, 1970, Note_off_c, 9, 42, 64
13, 1970, Note_off_c, 9, 35, 64
13, 2160, Note_on_c, 9, 42, 90
13, 2160, Note_on_c, 9, 37, 70
13, 2210, Note_off_c, 9, 37, 64
13, 2210, Note_off_c, 9, 42, 64
13, 2336, Note_on_c, 9, 42, 40
13, 2386, Note_off_c, 9, 42, 64
13, 2400, Note_on_c, 9, 35, 60
13, 2400, Note_on_c, 9, 42, 80
13, 2450, Note_off_c, 9, 42, 64
13, 2450, Note_off_c, 9, 35, 64
13, 2640, Note_on_c, 9, 42, 90
13, 2640, Note_on_c, 9, 37, 80
13, 2690, Note_off_c, 9, 37, 64
13, 2690, Note_off_c, 9, 42, 64
13, 2816, Note_on_c, 9, 42, 50
13, 2866, Note_off_c, 9, 42, 64
13, 2880, Note_on_c, 9, 35, 60
13, 2880, Note_on_c, 9, 42, 80
13, 2930, Note_off_c, 9, 42, 64
13, 2930, Note_off_c, 9, 35, 64
13, 3120, Note_on_c, 9, 42, 90
13, 3120, Note_on_c, 9, 37, 70
13, 3170, Note_off_c, 9, 37, 64
13, 3170, Note_off_c, 9, 42, 64
13, 3296, Note_on_c, 9, 42, 40
13, 3346, Note_off_c, 9, 42, 64
13, 3360, Note_on_c, 9, 35, 60
13, 3360, Note_on_c, 9, 42, 80
13, 3410, Note_off_c, 9, 42, 64
13, 3410, Note_off_c, 9, 35, 64
13, 3600, Note_on_c, 9, 42, 90
13, 3600, Note_on_c, 9, 37, 83
13, 3650, Note_off_c, 9, 37, 64
13, 3650, Note_off_c, 9, 42, 64
13, 3776, Note_on_c, 9, 42, 50
13, 3826, Note_off_c, 9, 42, 64
13, 3840, Note_on_c, 9, 35, 60
13, 3840, Note_on_c, 9, 42, 70
13, 3890, Note_off_c, 9, 42, 64
13, 3890, Note_off_c, 9, 35, 64
13, 4080, Note_on_c, 9, 42, 90
13, 4080, Note_on_c, 9, 37, 70
13, 4130, Note_off_c, 9, 37, 64
13, 4130, Note_off_c, 9, 42, 64
13, 4256, Note_on_c, 9, 42, 40
13, 4306, Note_off_c, 9, 42, 64
13, 4320, Note_on_c, 9, 35, 60
13, 4320, Note_on_c, 9, 42, 80
13, 4370, Note_off_c, 9, 42, 64
13, 4370, Note_off_c, 9, 35, 64
13, 4560, Note_on_c, 9, 42, 90
13, 4560, Note_on_c, 9, 37, 80
13, 4610, Note_off_c, 9, 37, 64
13, 4610, Note_off_c, 9, 42, 64
13, 4736, Note_on_c, 9, 42, 50
13, 4786, Note_off_c, 9, 42, 64
13, 4800, Note_on_c, 9, 35, 60
13, 4800, Note_on_c, 9, 42, 80
13, 4850, Note_off_c, 9, 42, 64
13, 4850, Note_off_c, 9, 35, 64
13, 5040, Note_on_c, 9, 42, 90
13, 5040, Note_on_c, 9, 37, 70
13, 5090, Note_off_c, 9, 37, 64
13, 5090, Note_off_c, 9, 42, 64
13, 5214, Note_on_c, 9, 42, 40
13, 5264, Note_off_c, 9, 42, 64
13, 5280, Note_on_c, 9, 35, 60
13, 5280, Note_on_c, 9, 42, 80
13, 5330, Note_off_c, 9, 42, 64
13, 5330, Note_off_c, 9, 35, 64
13, 5520, Note_on_c, 9, 42, 90
13, 5520, Note_on_c, 9, 37, 85
13, 5570, Note_off_c, 9, 37, 64
13, 5570, Note_off_c, 9, 42, 64
13, 5694, Note_on_c, 9, 42, 50
13, 5744, Note_off_c, 9, 42, 64
13, 5760, Note_on_c, 9, 35, 60
13, 5760, Note_on_c, 9, 42, 70
13, 5810, Note_off_c, 9, 42, 64
13, 5810, Note_off_c, 9, 35, 64
13, 6000, Note_on_c, 9, 42, 80
13, 6000, Note_on_c, 9, 37, 70
13, 6050, Note_off_c, 9, 37, 64
13, 6050, Note_off_c, 9, 42, 64
13, 6176, Note_on_c, 9, 42, 40
13, 6226, Note_off_c, 9, 42, 64
13, 6240, Note_on_c, 9, 35, 60
13, 6240, Note_on_c, 9, 42, 80
13, 6290, Note_off_c, 9, 42, 64
13, 6290, Note_off_c, 9, 35, 64
13, 6480, Note_on_c, 9, 42, 80
13, 6480, Note_on_c, 9, 37, 80
13, 6530, Note_off_c, 9, 37, 64
13, 6530, Note_off_c, 9, 42, 64
13, 6656, Note_on_c, 9, 42, 50
13, 6706, Note_off_c, 9, 42, 64
13, 6720, Note_on_c, 9, 35, 60
13, 6720, Note_on_c, 9, 42, 70
13, 6770, Note_off_c, 9, 42, 64
13, 6770, Note_off_c, 9, 35, 64
13, 6960, Note_on_c, 9, 42, 90
13, 6960, Note_on_c, 9, 37, 70
13, 7010, Note_off_c, 9, 37, 64
13, 7010, Note_off_c, 9, 42, 64
13, 7136, Note_on_c, 9, 42, 40
13, 7186, Note_off_c, 9, 42, 64
13, 7200, Note_on_c, 9, 35, 60
13, 7200, Note_on_c, 9, 42, 80
13, 7250, Note_off_c, 9, 42, 64
13, 7250, Note_off_c, 9, 35, 64
13, 7440, Note_on_c, 9, 42, 90
13, 7440, Note_on_c, 9, 37, 80
13, 7490, Note_off_c, 9, 37, 64
13, 7490, Note_off_c, 9, 42, 64
13, 7616, Note_on_c, 9, 42, 50
13, 7666, Note_off_c, 9, 42, 64
13, 7680, Note_on_c, 9, 35, 60
13, 7680, Note_on_c, 9, 42, 70
13, 7730, Note_off_c, 9, 42, 64
13, 7730, Note_off_c, 9, 35, 64
13, 7920, Note_on_c, 9, 42, 70
13, 7920, Note_on_c, 9, 37, 80
13, 7970, Note_off_c, 9, 37, 64
13, 7970, Note_off_c, 9, 42, 64
13, 8092, Note_on_c, 9, 42, 40
13, 8142, Note_off_c, 9, 42, 64
13, 8160, Note_on_c, 9, 35, 60
13, 8160, Note_on_c, 9, 42, 80
13, 8210, Note_off_c, 9, 42, 64
13, 8210, Note_off_c, 9, 35, 64
13, 8400, Note_on_c, 9, 35, 60
13, 8400, Note_on_c, 9, 42, 80
13, 8450, Note_off_c, 9, 42, 64
13, 8450, Note_off_c, 9, 35, 64
13, 8572, Note_on_c, 9, 42, 50
13, 8622, Note_off_c, 9, 42, 64
13, 8640, Note_on_c, 9, 35, 60
13, 8640, Note_on_c, 9, 42, 80
13, 8690, Note_off_c, 9, 42, 64
13, 8690, Note_off_c, 9, 35, 64
13, 8880, Note_on_c, 9, 42, 90
13, 8880, Note_on_c, 9, 37, 70
13, 8930, Note_off_c, 9, 37, 64
13, 8930, Note_off_c, 9, 42, 64
13, 9054, Note_on_c, 9, 42, 40
13, 9104, Note_off_c, 9, 42, 64
13, 9120, Note_on_c, 9, 35, 60
13, 9120, Note_on_c, 9, 42, 80
13, 9170, Note_off_c, 9, 42, 64
13, 9170, Note_off_c, 9, 35, 64
13, 9294, Note_on_c, 9, 37, 90
13, 9344, Note_off_c, 9, 37, 64
13, 9360, Note_on_c, 9, 42, 90
13, 9410, Note_off_c, 9, 42, 64
13, 9534, Note_on_c, 9, 42, 50
13, 9584, Note_off_c, 9, 42, 64
13, 9600, Note_on_c, 9, 35, 60
13, 9600, Note_on_c, 9, 42, 70
13, 9650, Note_off_c, 9, 42, 64
13, 9650, Note_off_c, 9, 35, 64
13, 9840, Note_on_c, 9, 42, 90
13, 9840, Note_on_c, 9, 37, 70
13, 9890, Note_off_c, 9, 37, 64
13, 9890, Note_off_c, 9, 42, 64
13, 10016, Note_on_c, 9, 42, 40
13, 10066, Note_off_c, 9, 42, 64
13, 10080, Note_on_c, 9, 35, 60
13, 10080, Note_on_c, 9, 42, 80
13, 10130, Note_off_c, 9, 42, 64
13, 10130, Note_off_c, 9, 35, 64
13, 10320, Note_on_c, 9, 42, 90
13, 10320, Note_on_c, 9, 37, 80
13, 10370, Note_off_c, 9, 37, 64
13, 10370, Note_off_c, 9, 42, 64
13, 10496, Note_on_c, 9, 42, 50
13, 10546, Note_off_c, 9, 42, 64
13, 10560, Note_on_c, 9, 35, 60
13, 10560, Note_on_c, 9, 42, 80
13, 10610, Note_off_c, 9, 42, 64
13, 10610, Note_off_c, 9, 35, 64
13, 10800, Note_on_c, 9, 42, 70
13, 10800, Note_on_c, 9, 37, 70
13, 10850, Note_off_c, 9, 37, 64
13, 10850, Note_off_c, 9, 42, 64
13, 10972, Note_on_c, 9, 42, 40
13, 11022, Note_off_c, 9, 42, 64
13, 11040, Note_on_c, 9, 35, 60
13, 11040, Note_on_c, 9, 42, 80
13, 11090, Note_off_c, 9, 42, 64
13, 11090, Note_off_c, 9, 35, 64
13, 11280, Note_on_c, 9, 42, 70
13, 11280, Note_on_c, 9, 37, 85
13, 11330, Note_off_c, 9, 37, 64
13, 11330, Note_off_c, 9, 42, 64
13, 11452, Note_on_c, 9, 42, 50
13, 11502, Note_off_c, 9, 42, 64
13, 11520, Note_on_c, 9, 35, 60
13, 11520, Note_on_c, 9, 42, 80
13, 11570, Note_off_c, 9, 42, 64
13, 11570, Note_off_c, 9, 35, 64
13, 11760, Note_on_c, 9, 42, 90
13, 11760, Note_on_c, 9, 37, 70
13, 11810, Note_off_c, 9, 37, 64
13, 11810, Note_off_c, 9, 42, 64
13, 11934, Note_on_c, 9, 42, 40
13, 11984, Note_off_c, 9, 42, 64
13, 12000, Note_on_c, 9, 35, 60
13, 12000, Note_on_c, 9, 42, 80
13, 12050, Note_off_c, 9, 42, 64
13, 12050, Note_off_c, 9, 35, 64
13, 12240, Note_on_c, 9, 42, 90
13, 12240, Note_on_c, 9, 37, 85
13, 12290, Note_off_c, 9, 37, 64
13, 12290, Note_off_c, 9, 42, 64
13, 12414, Note_on_c, 9, 42, 50
13, 12464, Note_off_c, 9, 42, 64
13, 12480, Note_on_c, 9, 35, 60
13, 12480, Note_on_c, 9, 42, 70
13, 12530, Note_off_c, 9, 42, 64
13, 12530, Note_off_c, 9, 35, 64
13, 12720, Note_on_c, 9, 42, 90
13, 12720, Note_on_c, 9, 37, 70
13, 12770, Note_off_c, 9, 37, 64
13, 12770, Note_off_c, 9, 42, 64
13, 12896, Note_on_c, 9, 42, 40
13, 12946, Note_off_c, 9, 42, 64
13, 12960, Note_on_c, 9, 35, 60
13, 12960, Note_on_c, 9, 42, 80
13, 13010, Note_off_c, 9, 42, 64
13, 13010, Note_off_c, 9, 35, 64
13, 13200, Note_on_c, 9, 42, 90
13, 13200, Note_on_c, 9, 37, 80
13, 13250, Note_off_c, 9, 37, 64
13, 13250, Note_off_c, 9, 42, 64
13, 13376, Note_on_c, 9, 42, 50
13, 13426, Note_off_c, 9, 42, 64
13, 13440, Note_on_c, 9, 35, 60
13, 13440, Note_on_c, 9, 42, 70
13, 13490, Note_off_c, 9, 42, 64
13, 13490, Note_off_c, 9, 35, 64
13, 13680, Note_on_c, 9, 42, 90
13, 13680, Note_on_c, 9, 37, 70
13, 13730, Note_off_c, 9, 37, 64
13, 13730, Note_off_c, 9, 42, 64
13, 13856, Note_on_c, 9, 42, 40
13, 13906, Note_off_c, 9, 42, 64
13, 13920, Note_on_c, 9, 35, 60
13, 13920, Note_on_c, 9, 42, 80
13, 13970, Note_off_c, 9, 42, 64
13, 13970, Note_off_c, 9, 35, 64
13, 14160, Note_on_c, 9, 42, 90
13, 14160, Note_on_c, 9, 37, 80
13, 14210, Note_off_c, 9, 37, 64
13, 14210, Note_off_c, 9, 42, 64
13, 14336, Note_on_c, 9, 42, 50
13, 14386, Note_off_c, 9, 42, 64
13, 14400, Note_on_c, 9, 35, 60
13, 14400, Note_on_c, 9, 42, 80
13, 14450, Note_off_c, 9, 42, 64
13, 14450, Note_off_c, 9, 35, 64
13, 14640, Note_on_c, 9, 42, 90
13, 14640, Note_on_c, 9, 37, 70
13, 14690, Note_off_c, 9, 37, 64
13, 14690, Note_off_c, 9, 42, 64
13, 14814, Note_on_c, 9, 42, 40
13, 14864, Note_off_c, 9, 42, 64
13, 14880, Note_on_c, 9, 35, 60
13, 14880, Note_on_c, 9, 42, 80
13, 14930, Note_off_c, 9, 42, 64
13, 14930, Note_off_c, 9, 35, 64
13, 15120, Note_on_c, 9, 42, 90
13, 15120, Note_on_c, 9, 37, 85
13, 15170, Note_off_c, 9, 37, 64
13, 15170, Note_off_c, 9, 42, 64
13, 15294, Note_on_c, 9, 42, 50
13, 15344, Note_off_c, 9, 42, 64
13, 15360, Note_on_c, 9, 35, 60
13, 15360, Note_on_c, 9, 42, 70
13, 15410, Note_off_c, 9, 42, 64
13, 15410, Note_off_c, 9, 35, 64
13, 15600, Note_on_c, 9, 42, 90
13, 15600, Note_on_c, 9, 37, 70
13, 15650, Note_off_c, 9, 37, 64
13, 15650, Note_off_c, 9, 42, 64
13, 15776, Note_on_c, 9, 42, 40
13, 15826, Note_off_c, 9, 42, 64
13, 15840, Note_on_c, 9, 35, 60
13, 15840, Note_on_c, 9, 42, 80
13, 15890, Note_off_c, 9, 42, 64
13, 15890, Note_off_c, 9, 35, 64
13, 16080, Note_on_c, 9, 42, 90
13, 16080, Note_on_c, 9, 37, 80
13, 16130, Note_off_c, 9, 37, 64
13, 16130, Note_off_c, 9, 42, 64
13, 16256, Note_on_c, 9, 42, 50
13, 16306, Note_off_c, 9, 42, 64
13, 16320, Note_on_c, 9, 42, 80
13, 16370, Note_off_c, 9, 42, 64
13, 16560, Note_on_c, 9, 42, 90
13, 16560, Note_on_c, 9, 37, 70
13, 16610, Note_off_c, 9, 37, 64
13, 16610, Note_off_c, 9, 42, 64
13, 16734, Note_on_c, 9, 42, 50
13, 16784, Note_off_c, 9, 42, 64
13, 16800, Note_on_c, 9, 42, 80
13, 16850, Note_off_c, 9, 42, 64
13, 16974, Note_on_c, 9, 38, 30
13, 17024, Note_off_c, 9, 38, 64
13, 17040, Note_on_c, 9, 38, 55
13, 17040, Note_on_c, 9, 42, 90
13, 17040, Note_on_c, 9, 37, 85
13, 17090, Note_off_c, 9, 37, 64
13, 17090, Note_off_c, 9, 42, 64
13, 17090, Note_off_c, 9, 38, 64
13, 17214, Note_on_c, 9, 42, 50
13, 17264, Note_off_c, 9, 42, 64
13, 17280, Note_on_c, 9, 38, 50
13, 17280, Note_on_c, 9, 49, 40
13, 17330, Note_off_c, 9, 49, 64
13, 17330, Note_off_c, 9, 38, 64
13, 17520, Note_on_c, 9, 42, 80
13, 17520, Note_on_c, 9, 37, 70
13, 17520, Note_on_c, 9, 51, 90
13, 17570, Note_off_c, 9, 51, 64
13, 17570, Note_off_c, 9, 37, 64
13, 17570, Note_off_c, 9, 42, 64
13, 17694, Note_on_c, 9, 51, 70
13, 17744, Note_off_c, 9, 51, 64
13, 17760, Note_on_c, 9, 38, 40
13, 17760, Note_on_c, 9, 51, 70
13, 17810, Note_off_c, 9, 51, 64
13, 17810, Note_off_c, 9, 38, 64
13, 18000, Note_on_c, 9, 42, 100
13, 18000, Note_on_c, 9, 37, 70
13, 18000, Note_on_c, 9, 51, 90
13, 18050, Note_off_c, 9, 51, 64
13, 18050, Note_off_c, 9, 37, 64
13, 18050, Note_off_c, 9, 42, 64
13, 18174, Note_on_c, 9, 51, 70
13, 18224, Note_off_c, 9, 51, 64
13, 18240, Note_on_c, 9, 51, 80
13, 18290, Note_off_c, 9, 51, 64
13, 18480, Note_on_c, 9, 42, 80
13, 18480, Note_on_c, 9, 37, 70
13, 18480, Note_on_c, 9, 51, 90
13, 18530, Note_off_c, 9, 51, 64
13, 18530, Note_off_c, 9, 37, 64
13, 18530, Note_off_c, 9, 42, 64
13, 18656, Note_on_c, 9, 38, 30
13, 18656, Note_on_c, 9, 51, 70
13, 18706, Note_off_c, 9, 51, 64
13, 18706, Note_off_c, 9, 38, 64
13, 18720, Note_on_c, 9, 38, 40
13, 18720, Note_on_c, 9, 51, 80
13, 18770, Note_off_c, 9, 51, 64
13, 18770, Note_off_c, 9, 38, 64
13, 18960, Note_on_c, 9, 42, 100
13, 18960, Note_on_c, 9, 37, 70
13, 18960, Note_on_c, 9, 51, 90
13, 19010, Note_off_c, 9, 51, 64
13, 19010, Note_off_c, 9, 37, 64
13, 19010, Note_off_c, 9, 42, 64
13, 19136, Note_on_c, 9, 51, 70
13, 19186, Note_off_c, 9, 51, 64
13, 19200, Note_on_c, 9, 51, 70
13, 19250, Note_off_c, 9, 51, 64
13, 19440, Note_on_c, 9, 42, 90
13, 19440, Note_on_c, 9, 37, 60
13, 19440, Note_on_c, 9, 51, 90
13, 19490, Note_off_c, 9, 51, 64
13, 19490, Note_off_c, 9, 37, 64
13, 19490, Note_off_c, 9, 42, 64
13, 19616, Note_on_c, 9, 38, 40
13, 19616, Note_on_c, 9, 51, 70
13, 19666, Note_off_c, 9, 51, 64
13, 19666, Note_off_c, 9, 38, 64
13, 19680, Note_on_c, 9, 51, 80
13, 19730, Note_off_c, 9, 51, 64
13, 19856, Note_on_c, 9, 38, 50
13, 19906, Note_off_c, 9, 38, 64
13, 19920, Note_on_c, 9, 42, 100
13, 19920, Note_on_c, 9, 37, 70
13, 19920, Note_on_c, 9, 51, 90
13, 19970, Note_off_c, 9, 51, 64
13, 19970, Note_off_c, 9, 37, 64
13, 19970, Note_off_c, 9, 42, 64
13, 20096, Note_on_c, 9, 51, 70
13, 20146, Note_off_c, 9, 51, 64
13, 20160, Note_on_c, 9, 51, 80
13, 20210, Note_off_c, 9, 51, 64
13, 20400, Note_on_c, 9, 42, 80
13, 20400, Note_on_c, 9, 37, 70
13, 20400, Note_on_c, 9, 51, 90
13, 20450, Note_off_c, 9, 51, 64
13, 20450, Note_off_c, 9, 37, 64
13, 20450, Note_off_c, 9, 42, 64
13, 20576, Note_on_c, 9, 38, 40
13, 20576, Note_on_c, 9, 51, 70
13, 20626, Note_off_c, 9, 51, 64
13, 20626, Note_off_c, 9, 38, 64
13, 20640, Note_on_c, 9, 51, 80
13, 20690, Note_off_c, 9, 51, 64
13, 20880, Note_on_c, 9, 42, 100
13, 20880, Note_on_c, 9, 37, 70
13, 20880, Note_on_c, 9, 51, 90
13, 20930, Note_off_c, 9, 51, 64
13, 20930, Note_off_c, 9, 37, 64
13, 20930, Note_off_c, 9, 42, 64
13, 21056, Note_on_c, 9, 38, 40
13, 21056, Note_on_c, 9, 51, 70
13, 21106, Note_off_c, 9, 51, 64
13, 21106, Note_off_c, 9, 38, 64
13, 21120, Note_on_c, 9, 51, 80
13, 21170, Note_off_c, 9, 51, 64
13, 21360, Note_on_c, 9, 42, 80
13, 21360, Note_on_c, 9, 37, 70
13, 21360, Note_on_c, 9, 51, 90
13, 21410, Note_off_c, 9, 51, 64
13, 21410, Note_off_c, 9, 37, 64
13, 21410, Note_off_c, 9, 42, 64
13, 21536, Note_on_c, 9, 38, 30
13, 21536, Note_on_c, 9, 51, 70
13, 21586, Note_off_c, 9, 51, 64
13, 21586, Note_off_c, 9, 38, 64
13, 21600, Note_on_c, 9, 38, 40
13, 21600, Note_on_c, 9, 51, 80
13, 21650, Note_off_c, 9, 51, 64
13, 21650, Note_off_c, 9, 38, 64
13, 21840, Note_on_c, 9, 42, 100
13, 21840, Note_on_c, 9, 37, 70
13, 21840, Note_on_c, 9, 51, 90
13, 21890, Note_off_c, 9, 51, 64
13, 21890, Note_off_c, 9, 37, 64
13, 21890, Note_off_c, 9, 42, 64
13, 22016, Note_on_c, 9, 51, 70
13, 22066, Note_off_c, 9, 51, 64
13, 22080, Note_on_c, 9, 51, 80
13, 22130, Note_off_c, 9, 51, 64
13, 22320, Note_on_c, 9, 42, 80
13, 22320, Note_on_c, 9, 37, 70
13, 22320, Note_on_c, 9, 51, 90
13, 22370, Note_off_c, 9, 51, 64
13, 22370, Note_off_c, 9, 37, 64
13, 22370, Note_off_c, 9, 42, 64
13, 22496, Note_on_c, 9, 38, 30
13, 22496, Note_on_c, 9, 51, 70
13, 22546, Note_off_c, 9, 51, 64
13, 22546, Note_off_c, 9, 38, 64
13, 22560, Note_on_c, 9, 38, 40
13, 22560, Note_on_c, 9, 51, 80
13, 22610, Note_off_c, 9, 51, 64
13, 22610, Note_off_c, 9, 38, 64
13, 22800, Note_on_c, 9, 42, 100
13, 22800, Note_on_c, 9, 37, 70
13, 22800, Note_on_c, 9, 51, 90
13, 22850, Note_off_c, 9, 51, 64
13, 22850, Note_off_c, 9, 37, 64
13, 22850, Note_off_c, 9, 42, 64
13, 22976, Note_on_c, 9, 51, 70
13, 23026, Note_off_c, 9, 51, 64
13, 23040, Note_on_c, 9, 51, 70
13, 23090, Note_off_c, 9, 51, 64
13, 23280, Note_on_c, 9, 42, 90
13, 23280, Note_on_c, 9, 37, 60
13, 23280, Note_on_c, 9, 51, 90
13, 23330, Note_off_c, 9, 51, 64
13, 23330, Note_off_c, 9, 37, 64
13, 23330, Note_off_c, 9, 42, 64
13, 23456, Note_on_c, 9, 38, 40
13, 23456, Note_on_c, 9, 51, 70
13, 23506, Note_off_c, 9, 51, 64
13, 23506, Note_off_c, 9, 38, 64
13, 23520, Note_on_c, 9, 51, 80
13, 23570, Note_off_c, 9, 51, 64
13, 23760, Note_on_c, 9, 42, 100
13, 23760, Note_on_c, 9, 37, 70
13, 23760, Note_on_c, 9, 51, 90
13, 23810, Note_off_c, 9, 51, 64
13, 23810, Note_off_c, 9, 37, 64
13, 23810, Note_off_c, 9, 42, 64
13, 23936, Note_on_c, 9, 51, 70
13, 23986, Note_off_c, 9, 51, 64
13, 24000, Note_on_c, 9, 51, 80
13, 24050, Note_off_c, 9, 51, 64
13, 24176, Note_on_c, 9, 38, 30
13, 24226, Note_off_c, 9, 38, 64
13, 24240, Note_on_c, 9, 42, 80
13, 24240, Note_on_c, 9, 37, 70
13, 24240, Note_on_c, 9, 51, 90
13, 24290, Note_off_c, 9, 51, 64
13, 24290, Note_off_c, 9, 37, 64
13, 24290, Note_off_c, 9, 42, 64
13, 24416, Note_on_c, 9, 38, 40
13, 24416, Note_on_c, 9, 51, 70
13, 24466, Note_off_c, 9, 51, 64
13, 24466, Note_off_c, 9, 38, 64
13, 24480, Note_on_c, 9, 51, 80
13, 24530, Note_off_c, 9, 51, 64
13, 24656, Note_on_c, 9, 38, 30
13, 24706, Note_off_c, 9, 38, 64
13, 24720, Note_on_c, 9, 42, 100
13, 24720, Note_on_c, 9, 37, 70
13, 24720, Note_on_c, 9, 51, 90
13, 24770, Note_off_c, 9, 51, 64
13, 24770, Note_off_c, 9, 37, 64
13, 24770, Note_off_c, 9, 42, 64
13, 24896, Note_on_c, 9, 51, 70
13, 24946, Note_off_c, 9, 51, 64
13, 24960, Note_on_c, 9, 51, 70
13, 25010, Note_off_c, 9, 51, 64
13, 25200, Note_on_c, 9, 42, 90
13, 25200, Note_on_c, 9, 37, 60
13, 25200, Note_on_c, 9, 51, 90
13, 25250, Note_off_c, 9, 51, 64
13, 25250, Note_off_c, 9, 37, 64
13, 25250, Note_off_c, 9, 42, 64
13, 25376, Note_on_c, 9, 38, 40
13, 25376, Note_on_c, 9, 51, 70
13, 25426, Note_off_c, 9, 51, 64
13, 25426, Note_off_c, 9, 38, 64
13, 25440, Note_on_c, 9, 51, 80
13, 25490, Note_off_c, 9, 51, 64
13, 25680, Note_on_c, 9, 42, 100
13, 25680, Note_on_c, 9, 37, 70
13, 25680, Note_on_c, 9, 51, 90
13, 25730, Note_off_c, 9, 51, 64
13, 25730, Note_off_c, 9, 37, 64
13, 25730, Note_off_c, 9, 42, 64
13, 25856, Note_on_c, 9, 51, 70
13, 25906, Note_off_c, 9, 51, 64
13, 25920, Note_on_c, 9, 51, 80
13, 25970, Note_off_c, 9, 51, 64
13, 26160, Note_on_c, 9, 42, 70
13, 26160, Note_on_c, 9, 37, 70
13, 26160, Note_on_c, 9, 51, 90
13, 26210, Note_off_c, 9, 51, 64
13, 26210, Note_off_c, 9, 37, 64
13, 26210, Note_off_c, 9, 42, 64
13, 26334, Note_on_c, 9, 38, 40
13, 26334, Note_on_c, 9, 51, 70
13, 26384, Note_off_c, 9, 51, 64
13, 26384, Note_off_c, 9, 38, 64
13, 26400, Note_on_c, 9, 51, 90
13, 26450, Note_off_c, 9, 51, 64
13, 26640, Note_on_c, 9, 42, 100
13, 26640, Note_on_c, 9, 51, 90
13, 26690, Note_off_c, 9, 51, 64
13, 26690, Note_off_c, 9, 42, 64
13, 26814, Note_on_c, 9, 51, 70
13, 26864, Note_off_c, 9, 51, 64
13, 26880, Note_on_c, 9, 51, 80
13, 26930, Note_off_c, 9, 51, 64
13, 27120, Note_on_c, 9, 42, 80
13, 27120, Note_on_c, 9, 37, 70
13, 27120, Note_on_c, 9, 51, 90
13, 27170, Note_off_c, 9, 51, 64
13, 27170, Note_off_c, 9, 37, 64
13, 27170, Note_off_c, 9, 42, 64
13, 27296, Note_on_c, 9, 38, 30
13, 27296, Note_on_c, 9, 51, 70
13, 27346, Note_off_c, 9, 51, 64
13, 27346, Note_off_c, 9, 38, 64
13, 27360, Note_on_c, 9, 38, 40
13, 27360, Note_on_c, 9, 51, 80
13, 27410, Note_off_c, 9, 51, 64
13, 27410, Note_off_c, 9, 38, 64
13, 27536, Note_on_c, 9, 38, 40
13, 27586, Note_off_c, 9, 38, 64
13, 27600, Note_on_c, 9, 42, 100
13, 27600, Note_on_c, 9, 37, 70
13, 27600, Note_on_c, 9, 51, 90
13, 27650, Note_off_c, 9, 51, 64
13, 27650, Note_off_c, 9, 37, 64
13, 27650, Note_off_c, 9, 42, 64
13, 27776, Note_on_c, 9, 51, 70
13, 27826, Note_off_c, 9, 51, 64
13, 27840, Note_on_c, 9, 51, 80
13, 27890, Note_off_c, 9, 51, 64
13, 28080, Note_on_c, 9, 42, 80
13, 28080, Note_on_c, 9, 37, 70
13, 28080, Note_on_c, 9, 51, 90
13, 28130, Note_off_c, 9, 51, 64
13, 28130, Note_off_c, 9, 37, 64
13, 28130, Note_off_c, 9, 42, 64
13, 28256, Note_on_c, 9, 38, 40
13, 28256, Note_on_c, 9, 51, 70
13, 28306, Note_off_c, 9, 51, 64
13, 28306, Note_off_c, 9, 38, 64
13, 28320, Note_on_c, 9, 51, 80
13, 28370, Note_off_c, 9, 51, 64
13, 28560, Note_on_c, 9, 42, 100
13, 28560, Note_on_c, 9, 37, 70
13, 28560, Note_on_c, 9, 51, 90
13, 28610, Note_off_c, 9, 51, 64
13, 28610, Note_off_c, 9, 37, 64
13, 28610, Note_off_c, 9, 42, 64
13, 28736, Note_on_c, 9, 38, 40
13, 28736, Note_on_c, 9, 51, 70
13, 28786, Note_off_c, 9, 51, 64
13, 28786, Note_off_c, 9, 38, 64
13, 28800, Note_on_c, 9, 51, 70
13, 28850, Note_off_c, 9, 51, 64
13, 29040, Note_on_c, 9, 42, 100
13, 29040, Note_on_c, 9, 37, 70
13, 29040, Note_on_c, 9, 51, 90
13, 29090, Note_off_c, 9, 51, 64
13, 29090, Note_off_c, 9, 37, 64
13, 29090, Note_off_c, 9, 42, 64
13, 29214, Note_on_c, 9, 38, 40
13, 29214, Note_on_c, 9, 51, 50
13, 29264, Note_off_c, 9, 51, 64
13, 29264, Note_off_c, 9, 38, 64
13, 29280, Note_on_c, 9, 51, 80
13, 29330, Note_off_c, 9, 51, 64
13, 29520, Note_on_c, 9, 42, 100
13, 29520, Note_on_c, 9, 37, 70
13, 29520, Note_on_c, 9, 51, 90
13, 29570, Note_off_c, 9, 51, 64
13, 29570, Note_off_c, 9, 37, 64
13, 29570, Note_off_c, 9, 42, 64
13, 29694, Note_on_c, 9, 38, 40
13, 29694, Note_on_c, 9, 51, 50
13, 29744, Note_off_c, 9, 51, 64
13, 29744, Note_off_c, 9, 38, 64
13, 29760, Note_on_c, 9, 51, 80
13, 29810, Note_off_c, 9, 51, 64
13, 30000, Note_on_c, 9, 42, 70
13, 30000, Note_on_c, 9, 37, 70
13, 30000, Note_on_c, 9, 51, 90
13, 30050, Note_off_c, 9, 51, 64
13, 30050, Note_off_c, 9, 37, 64
13, 30050, Note_off_c, 9, 42, 64
13, 30174, Note_on_c, 9, 38, 40
13, 30174, Note_on_c, 9, 51, 70
13, 30224, Note_off_c, 9, 51, 64
13, 30224, Note_off_c, 9, 38, 64
13, 30240, Note_on_c, 9, 51, 90
13, 30290, Note_off_c, 9, 51, 64
13, 30480, Note_on_c, 9, 42, 100
13, 30480, Note_on_c, 9, 51, 90
13, 30530, Note_off_c, 9, 51, 64
13, 30530, Note_off_c, 9, 42, 64
13, 30654, Note_on_c, 9, 51, 70
13, 30704, Note_off_c, 9, 51, 64
13, 30720, Note_on_c, 9, 51, 70
13, 30770, Note_off_c, 9, 51, 64
13, 30960, Note_on_c, 9, 42, 100
13, 30960, Note_on_c, 9, 37, 70
13, 30960, Note_on_c, 9, 51, 90
13, 31010, Note_off_c, 9, 51, 64
13, 31010, Note_off_c, 9, 37, 64
13, 31010, Note_off_c, 9, 42, 64
13, 31134, Note_on_c, 9, 38, 40
13, 31134, Note_on_c, 9, 51, 50
13, 31184, Note_off_c, 9, 51, 64
13, 31184, Note_off_c, 9, 38, 64
13, 31200, Note_on_c, 9, 51, 80
13, 31250, Note_off_c, 9, 51, 64
13, 31440, Note_on_c, 9, 42, 100
13, 31440, Note_on_c, 9, 37, 70
13, 31440, Note_on_c, 9, 51, 90
13, 31490, Note_off_c, 9, 51, 64
13, 31490, Note_off_c, 9, 37, 64
13, 31490, Note_off_c, 9, 42, 64
13, 31614, Note_on_c, 9, 38, 40
13, 31614, Note_on_c, 9, 51, 50
13, 31664, Note_off_c, 9, 51, 64
13, 31664, Note_off_c, 9, 38, 64
13, 31680, Note_on_c, 9, 35, 70
13, 31680, Note_on_c, 9, 51, 70
13, 31730, Note_off_c, 9, 51, 64
13, 31730, Note_off_c, 9, 35, 64
13, 31920, Note_on_c, 9, 42, 90
13, 31920, Note_on_c, 9, 37, 60
13, 31920, Note_on_c, 9, 51, 90
13, 31970, Note_off_c, 9, 51, 64
13, 31970, Note_off_c, 9, 37, 64
13, 31970, Note_off_c, 9, 42, 64
13, 32096, Note_on_c, 9, 38, 50
13, 32096, Note_on_c, 9, 51, 70
13, 32146, Note_off_c, 9, 51, 64
13, 32146, Note_off_c, 9, 38, 64
13, 32160, Note_on_c, 9, 51, 80
13, 32210, Note_off_c, 9, 51, 64
13, 32336, Note_on_c, 9, 38, 60
13, 32336, Note_on_c, 9, 46, 40
13, 32386, Note_off_c, 9, 46, 64
13, 32386, Note_off_c, 9, 38, 64
13, 32400, Note_on_c, 9, 42, 100
13, 32400, Note_on_c, 9, 37, 100
13, 32400, Note_on_c, 9, 51, 90
13, 32450, Note_off_c, 9, 51, 64
13, 32450, Note_off_c, 9, 37, 64
13, 32450, Note_off_c, 9, 42, 64
13, 32576, Note_on_c, 9, 38, 70
13, 32576, Note_on_c, 9, 51, 70
13, 32626, Note_off_c, 9, 51, 64
13, 32626, Note_off_c, 9, 38, 64
13, 32640, Note_on_c, 9, 38, 50
13, 32640, Note_on_c, 9, 49, 40
13, 32690, Note_off_c, 9, 49, 64
13, 32690, Note_off_c, 9, 38, 64
13, 32880, Note_on_c, 9, 42, 80
13, 32880, Note_on_c, 9, 37, 70
13, 32880, Note_on_c, 9, 51, 90
13, 32930, Note_off_c, 9, 51, 64
13, 32930, Note_off_c, 9, 37, 64
13, 32930, Note_off_c, 9, 42, 64
13, 33054, Note_on_c, 9, 51, 70
13, 33104, Note_off_c, 9, 51, 64
13, 33120, Note_on_c, 9, 38, 40
13, 33120, Note_on_c, 9, 51, 70
13, 33170, Note_off_c, 9, 51, 64
13, 33170, Note_off_c, 9, 38, 64
13, 33360, Note_on_c, 9, 42, 100
13, 33360, Note_on_c, 9, 37, 70
13, 33360, Note_on_c, 9, 51, 90
13, 33410, Note_off_c, 9, 51, 64
13, 33410, Note_off_c, 9, 37, 64
13, 33410, Note_off_c, 9, 42, 64
13, 33534, Note_on_c, 9, 51, 70
13, 33584, Note_off_c, 9, 51, 64
13, 33600, Note_on_c, 9, 51, 80
13, 33650, Note_off_c, 9, 51, 64
13, 33840, Note_on_c, 9, 42, 80
13, 33840, Note_on_c, 9, 37, 70
13, 33840, Note_on_c, 9, 51, 90
13, 33890, Note_off_c, 9, 51, 64
13, 33890, Note_off_c, 9, 37, 64
13, 33890, Note_off_c, 9, 42, 64
13, 34016, Note_on_c, 9, 51, 70
13, 34066, Note_off_c, 9, 51, 64
13, 34080, Note_on_c, 9, 38, 40
13, 34080, Note_on_c, 9, 51, 80
13, 34130, Note_off_c, 9, 51, 64
13, 34130, Note_off_c, 9, 38, 64
13, 34320, Note_on_c, 9, 42, 100
13, 34320, Note_on_c, 9, 37, 70
13, 34320, Note_on_c, 9, 51, 90
13, 34370, Note_off_c, 9, 51, 64
13, 34370, Note_off_c, 9, 37, 64
13, 34370, Note_off_c, 9, 42, 64
13, 34496, Note_on_c, 9, 51, 70
13, 34546, Note_off_c, 9, 51, 64
13, 34560, Note_on_c, 9, 51, 80
13, 34610, Note_off_c, 9, 51, 64
13, 34800, Note_on_c, 9, 42, 80
13, 34800, Note_on_c, 9, 37, 70
13, 34800, Note_on_c, 9, 51, 90
13, 34850, Note_off_c, 9, 51, 64
13, 34850, Note_off_c, 9, 37, 64
13, 34850, Note_off_c, 9, 42, 64
13, 34976, Note_on_c, 9, 51, 70
13, 35026, Note_off_c, 9, 51, 64
13, 35040, Note_on_c, 9, 38, 40
13, 35040, Note_on_c, 9, 51, 80
13, 35090, Note_off_c, 9, 51, 64
13, 35090, Note_off_c, 9, 38, 64
13, 35280, Note_on_c, 9, 42, 100
13, 35280, Note_on_c, 9, 37, 70
13, 35280, Note_on_c, 9, 51, 90
13, 35330, Note_off_c, 9, 51, 64
13, 35330, Note_off_c, 9, 37, 64
13, 35330, Note_off_c, 9, 42, 64
13, 35456, Note_on_c, 9, 51, 70
13, 35506, Note_off_c, 9, 51, 64
13, 35520, Note_on_c, 9, 51, 80
13, 35570, Note_off_c, 9, 51, 64
13, 35760, Note_on_c, 9, 42, 80
13, 35760, Note_on_c, 9, 37, 70
13, 35760, Note_on_c, 9, 51, 90
13, 35810, Note_off_c, 9, 51, 64
13, 35810, Note_off_c, 9, 37, 64
13, 35810, Note_off_c, 9, 42, 64
13, 35936, Note_on_c, 9, 38, 30
13, 35936, Note_on_c, 9, 51, 70
13, 35986, Note_off_c, 9, 51, 64
13, 35986, Note_off_c, 9, 38, 64
13, 36000, Note_on_c, 9, 38, 40
13, 36000, Note_on_c, 9, 51, 80
13, 36050, Note_off_c, 9, 51, 64
13, 36050, Note_off_c, 9, 38, 64
13, 36240, Note_on_c, 9, 42, 100
13, 36240, Note_on_c, 9, 37, 70
13, 36240, Note_on_c, 9, 51, 90
13, 36290, Note_off_c, 9, 51, 64
13, 36290, Note_off_c, 9, 37, 64
13, 36290, Note_off_c, 9, 42, 64
13, 36416, Note_on_c, 9, 51, 70
13, 36466, Note_off_c, 9, 51, 64
13, 36480, Note_on_c, 9, 51, 80
13, 36530, Note_off_c, 9, 51, 64
13, 36720, Note_on_c, 9, 42, 80
13, 36720, Note_on_c, 9, 37, 70
13, 36720, Note_on_c, 9, 51, 90
13, 36770, Note_off_c, 9, 51, 64
13, 36770, Note_off_c, 9, 37, 64
13, 36770, Note_off_c, 9, 42, 64
13, 36896, Note_on_c, 9, 51, 70
13, 36946, Note_off_c, 9, 51, 64
13, 36960, Note_on_c, 9, 38, 40
13, 36960, Note_on_c, 9, 51, 80
13, 37010, Note_off_c, 9, 51, 64
13, 37010, Note_off_c, 9, 38, 64
13, 37200, Note_on_c, 9, 42, 100
13, 37200, Note_on_c, 9, 37, 70
13, 37200, Note_on_c, 9, 51, 90
13, 37250, Note_off_c, 9, 51, 64
13, 37250, Note_off_c, 9, 37, 64
13, 37250, Note_off_c, 9, 42, 64
13, 37376, Note_on_c, 9, 51, 70
13, 37426, Note_off_c, 9, 51, 64
13, 37440, Note_on_c, 9, 51, 80
13, 37490, Note_off_c, 9, 51, 64
13, 37680, Note_on_c, 9, 42, 70
13, 37680, Note_on_c, 9, 37, 70
13, 37680, Note_on_c, 9, 51, 90
13, 37730, Note_off_c, 9, 51, 64
13, 37730, Note_off_c, 9, 37, 64
13, 37730, Note_off_c, 9, 42, 64
13, 37854, Note_on_c, 9, 51, 70
13, 37904, Note_off_c, 9, 51, 64
13, 37920, Note_on_c, 9, 51, 90
13, 37970, Note_off_c, 9, 51, 64
13, 38160, Note_on_c, 9, 42, 100
13, 38160, Note_on_c, 9, 51, 90
13, 38210, Note_off_c, 9, 51, 64
13, 38210, Note_off_c, 9, 42, 64
13, 38334, Note_on_c, 9, 51, 70
13, 38384, Note_off_c, 9, 51, 64
13, 38400, Note_on_c, 9, 51, 70
13, 38450, Note_off_c, 9, 51, 64
13, 38640, Note_on_c, 9, 42, 100
13, 38640, Note_on_c, 9, 37, 70
13, 38640, Note_on_c, 9, 51, 90
13, 38690, Note_off_c, 9, 51, 64
13, 38690, Note_off_c, 9, 37, 64
13, 38690, Note_off_c, 9, 42, 64
13, 38814, Note_on_c, 9, 38, 40
13, 38814, Note_on_c, 9, 51, 50
13, 38864, Note_off_c, 9, 51, 64
13, 38864, Note_off_c, 9, 38, 64
13, 38880, Note_on_c, 9, 51, 80
13, 38930, Note_off_c, 9, 51, 64
13, 39120, Note_on_c, 9, 42, 100
13, 39120, Note_on_c, 9, 37, 70
13, 39120, Note_on_c, 9, 51, 90
13, 39170, Note_off_c, 9, 51, 64
13, 39170, Note_off_c, 9, 37, 64
13, 39170, Note_off_c, 9, 42, 64
13, 39294, Note_on_c, 9, 38, 40
13, 39294, Note_on_c, 9, 51, 50
13, 39344, Note_off_c, 9, 51, 64
13, 39344, Note_off_c, 9, 38, 64
13, 39360, Note_on_c, 9, 51, 70
13, 39410, Note_off_c, 9, 51, 64
13, 39600, Note_on_c, 9, 42, 80
13, 39600, Note_on_c, 9, 37, 70
13, 39600, Note_on_c, 9, 51, 90
13, 39650, Note_off_c, 9, 51, 64
13, 39650, Note_off_c, 9, 37, 64
13, 39650, Note_off_c, 9, 42, 64
13, 39774, Note_on_c, 9, 51, 70
13, 39824, Note_off_c, 9, 51, 64
13, 39840, Note_on_c, 9, 51, 80
13, 39890, Note_off_c, 9, 51, 64
13, 40080, Note_on_c, 9, 42, 100
13, 40080, Note_on_c, 9, 37, 80
13, 40080, Note_on_c, 9, 51, 90
13, 40130, Note_off_c, 9, 51, 64
13, 40130, Note_off_c, 9, 37, 64
13, 40130, Note_off_c, 9, 42, 64
13, 40254, Note_on_c, 9, 51, 70
13, 40304, Note_off_c, 9, 51, 64
13, 40320, Note_on_c, 9, 51, 70
13, 40370, Note_off_c, 9, 51, 64
13, 40560, Note_on_c, 9, 42, 100
13, 40560, Note_on_c, 9, 37, 70
13, 40560, Note_on_c, 9, 51, 90
13, 40610, Note_off_c, 9, 51, 64
13, 40610, Note_off_c, 9, 37, 64
13, 40610, Note_off_c, 9, 42, 64
13, 40734, Note_on_c, 9, 38, 40
13, 40734, Note_on_c, 9, 51, 50
13, 40784, Note_off_c, 9, 51, 64
13, 40784, Note_off_c, 9, 38, 64
13, 40800, Note_on_c, 9, 51, 80
13, 40850, Note_off_c, 9, 51, 64
13, 41040, Note_on_c, 9, 42, 100
13, 41040, Note_on_c, 9, 37, 70
13, 41040, Note_on_c, 9, 51, 90
13, 41090, Note_off_c, 9, 51, 64
13, 41090, Note_off_c, 9, 37, 64
13, 41090, Note_off_c, 9, 42, 64
13, 41214, Note_on_c, 9, 38, 40
13, 41214, Note_on_c, 9, 51, 50
13, 41264, Note_off_c, 9, 51, 64
13, 41264, Note_off_c, 9, 38, 64
13, 41280, Note_on_c, 9, 51, 80
13, 41330, Note_off_c, 9, 51, 64
13, 41520, Note_on_c, 9, 42, 80
13, 41520, Note_on_c, 9, 37, 70
13, 41520, Note_on_c, 9, 51, 90
13, 41570, Note_off_c, 9, 51, 64
13, 41570, Note_off_c, 9, 37, 64
13, 41570, Note_off_c, 9, 42, 64
13, 41696, Note_on_c, 9, 38, 30
13, 41696, Note_on_c, 9, 51, 70
13, 41746, Note_off_c, 9, 51, 64
13, 41746, Note_off_c, 9, 38, 64
13, 41760, Note_on_c, 9, 38, 40
13, 41760, Note_on_c, 9, 51, 80
13, 41810, Note_off_c, 9, 51, 64
13, 41810, Note_off_c, 9, 38, 64
13, 42000, Note_on_c, 9, 42, 100
13, 42000, Note_on_c, 9, 37, 70
13, 42000, Note_on_c, 9, 51, 90
13, 42050, Note_off_c, 9, 51, 64
13, 42050, Note_off_c, 9, 37, 64
13, 42050, Note_off_c, 9, 42, 64
13, 42176, Note_on_c, 9, 51, 70
13, 42226, Note_off_c, 9, 51, 64
13, 42240, Note_on_c, 9, 51, 70
13, 42290, Note_off_c, 9, 51, 64
13, 42480, Note_on_c, 9, 42, 90
13, 42480, Note_on_c, 9, 37, 60
13, 42480, Note_on_c, 9, 51, 90
13, 42530, Note_off_c, 9, 51, 64
13, 42530, Note_off_c, 9, 37, 64
13, 42530, Note_off_c, 9, 42, 64
13, 42656, Note_on_c, 9, 38, 40
13, 42656, Note_on_c, 9, 51, 70
13, 42706, Note_off_c, 9, 51, 64
13, 42706, Note_off_c, 9, 38, 64
13, 42720, Note_on_c, 9, 51, 80
13, 42770, Note_off_c, 9, 51, 64
13, 42960, Note_on_c, 9, 42, 100
13, 42960, Note_on_c, 9, 37, 70
13, 42960, Note_on_c, 9, 51, 90
13, 43010, Note_off_c, 9, 51, 64
13, 43010, Note_off_c, 9, 37, 64
13, 43010, Note_off_c, 9, 42, 64
13, 43136, Note_on_c, 9, 51, 70
13, 43186, Note_off_c, 9, 51, 64
13, 43200, Note_on_c, 9, 51, 70
13, 43250, Note_off_c, 9, 51, 64
13, 43440, Note_on_c, 9, 42, 80
13, 43440, Note_on_c, 9, 37, 70
13, 43440, Note_on_c, 9, 51, 90
13, 43490, Note_off_c, 9, 51, 64
13, 43490, Note_off_c, 9, 37, 64
13, 43490, Note_off_c, 9, 42, 64
13, 43614, Note_on_c, 9, 51, 70
13, 43664, Note_off_c, 9, 51, 64
13, 43680, Note_on_c, 9, 51, 80
13, 43730, Note_off_c, 9, 51, 64
13, 43920, Note_on_c, 9, 42, 100
13, 43920, Note_on_c, 9, 37, 80
13, 43920, Note_on_c, 9, 51, 90
13, 43970, Note_off_c, 9, 51, 64
13, 43970, Note_off_c, 9, 37, 64
13, 43970, Note_off_c, 9, 42, 64
13, 44094, Note_on_c, 9, 51, 70
13, 44144, Note_off_c, 9, 51, 64
13, 44160, Note_on_c, 9, 51, 70
13, 44210, Note_off_c, 9, 51, 64
13, 44400, Note_on_c, 9, 42, 100
13, 44400, Note_on_c, 9, 37, 70
13, 44400, Note_on_c, 9, 51, 90
13, 44450, Note_off_c, 9, 51, 64
13, 44450, Note_off_c, 9, 37, 64
13, 44450, Note_off_c, 9, 42, 64
13, 44574, Note_on_c, 9, 38, 40
13, 44574, Note_on_c, 9, 51, 50
13, 44624, Note_off_c, 9, 51, 64
13, 44624, Note_off_c, 9, 38, 64
13, 44640, Note_on_c, 9, 51, 80
13, 44690, Note_off_c, 9, 51, 64
13, 44880, Note_on_c, 9, 42, 100
13, 44880, Note_on_c, 9, 37, 70
13, 44880, Note_on_c, 9, 51, 90
13, 44930, Note_off_c, 9, 51, 64
13, 44930, Note_off_c, 9, 37, 64
13, 44930, Note_off_c, 9, 42, 64
13, 45054, Note_on_c, 9, 38, 40
13, 45054, Note_on_c, 9, 51, 50
13, 45104, Note_off_c, 9, 51, 64
13, 45104, Note_off_c, 9, 38, 64
13, 45120, Note_on_c, 9, 51, 80
13, 45170, Note_off_c, 9, 51, 64
13, 45360, Note_on_c, 9, 42, 70
13, 45360, Note_on_c, 9, 37, 70
13, 45360, Note_on_c, 9, 51, 90
13, 45410, Note_off_c, 9, 51, 64
13, 45410, Note_off_c, 9, 37, 64
13, 45410, Note_off_c, 9, 42, 64
13, 45534, Note_on_c, 9, 51, 70
13, 45584, Note_off_c, 9, 51, 64
13, 45600, Note_on_c, 9, 51, 90
13, 45650, Note_off_c, 9, 51, 64
13, 45840, Note_on_c, 9, 42, 100
13, 45840, Note_on_c, 9, 51, 90
13, 45890, Note_off_c, 9, 51, 64
13, 45890, Note_off_c, 9, 42, 64
13, 46014, Note_on_c, 9, 51, 70
13, 46064, Note_off_c, 9, 51, 64
13, 46080, Note_on_c, 9, 51, 80
13, 46130, Note_off_c, 9, 51, 64
13, 46320, Note_on_c, 9, 42, 80
13, 46320, Note_on_c, 9, 37, 70
13, 46320, Note_on_c, 9, 51, 90
13, 46370, Note_off_c, 9, 51, 64
13, 46370, Note_off_c, 9, 37, 64
13, 46370, Note_off_c, 9, 42, 64
13, 46492, Note_on_c, 9, 38, 40
13, 46492, Note_on_c, 9, 51, 60
13, 46542, Note_off_c, 9, 51, 64
13, 46542, Note_off_c, 9, 38, 64
13, 46560, Note_on_c, 9, 51, 80
13, 46610, Note_off_c, 9, 51, 64
13, 46800, Note_on_c, 9, 42, 100
13, 46800, Note_on_c, 9, 37, 80
13, 46800, Note_on_c, 9, 51, 100
13, 46850, Note_off_c, 9, 51, 64
13, 46850, Note_off_c, 9, 37, 64
13, 46850, Note_off_c, 9, 42, 64
13, 46972, Note_on_c, 9, 38, 60
13, 46972, Note_on_c, 9, 51, 70
13, 47022, Note_off_c, 9, 51, 64
13, 47022, Note_off_c, 9, 38, 64
13, 47040, Note_on_c, 9, 35, 70
13, 47040, Note_on_c, 9, 51, 70
13, 47090, Note_off_c, 9, 51, 64
13, 47090, Note_off_c, 9, 35, 64
13, 47280, Note_on_c, 9, 42, 90
13, 47280, Note_on_c, 9, 37, 60
13, 47280, Note_on_c, 9, 51, 90
13, 47330, Note_off_c, 9, 51, 64
13, 47330, Note_off_c, 9, 37, 64
13, 47330, Note_off_c, 9, 42, 64
13, 47456, Note_on_c, 9, 38, 50
13, 47456, Note_on_c, 9, 51, 70
13, 47506, Note_off_c, 9, 51, 64
13, 47506, Note_off_c, 9, 38, 64
13, 47520, Note_on_c, 9, 51, 80
13, 47570, Note_off_c, 9, 51, 64
13, 47696, Note_on_c, 9, 38, 60
13, 47746, Note_off_c, 9, 38, 64
13, 47760, Note_on_c, 9, 42, 100
13, 47760, Note_on_c, 9, 37, 100
13, 47760, Note_on_c, 9, 51, 90
13, 47810, Note_off_c, 9, 51, 64
13, 47810, Note_off_c, 9, 37, 64
13, 47810, Note_off_c, 9, 42, 64
13, 47936, Note_on_c, 9, 35, 60
13, 47936, Note_on_c, 9, 38, 70
13, 47936, Note_on_c, 9, 51, 70
13, 47986, Note_off_c, 9, 51, 64
13, 47986, Note_off_c, 9, 38, 64
13, 47986, Note_off_c, 9, 35, 64
13, 48000, Note_on_c, 9, 51, 70
13, 48050, Note_off_c, 9, 51, 64
13, 48240, Note_on_c, 9, 42, 90
13, 48240, Note_on_c, 9, 37, 60
13, 48240, Note_on_c, 9, 51, 90
13, 48290, Note_off_c, 9, 51, 64
13, 48290, Note_off_c, 9, 37, 64
13, 48290, Note_off_c, 9, 42, 64
13, 48418, Note_on_c, 9, 38, 40
13, 48418, Note_on_c, 9, 51, 60
13, 48468, Note_off_c, 9, 51, 64
13, 48468, Note_off_c, 9, 38, 64
13, 48480, Note_on_c, 9, 51, 80
13, 48530, Note_off_c, 9, 51, 64
13, 48720, Note_on_c, 9, 42, 100
13, 48720, Note_on_c, 9, 37, 70
13, 48720, Note_on_c, 9, 51, 90
13, 48770, Note_off_c, 9, 51, 64
13, 48770, Note_off_c, 9, 37, 64
13, 48770, Note_off_c, 9, 42, 64
13, 48898, Note_on_c, 9, 51, 70
13, 48948, Note_off_c, 9, 51, 64
13, 48960, Note_on_c, 9, 51, 80
13, 49010, Note_off_c, 9, 51, 64
13, 49200, Note_on_c, 9, 42, 70
13, 49200, Note_on_c, 9, 37, 70
13, 49200, Note_on_c, 9, 51, 90
13, 49250, Note_off_c, 9, 51, 64
13, 49250, Note_off_c, 9, 37, 64
13, 49250, Note_off_c, 9, 42, 64
13, 49374, Note_on_c, 9, 51, 70
13, 49424, Note_off_c, 9, 51, 64
13, 49440, Note_on_c, 9, 51, 90
13, 49490, Note_off_c, 9, 51, 64
13, 49680, Note_on_c, 9, 42, 100
13, 49680, Note_on_c, 9, 51, 90
13, 49730, Note_off_c, 9, 51, 64
13, 49730, Note_off_c, 9, 42, 64
13, 49854, Note_on_c, 9, 51, 70
13, 49904, Note_off_c, 9, 51, 64
13, 49920, Note_on_c, 9, 51, 80
13, 49970, Note_off_c, 9, 51, 64
13, 50160, Note_on_c, 9, 42, 80
13, 50160, Note_on_c, 9, 37, 70
13, 50160, Note_on_c, 9, 51, 90
13, 50210, Note_off_c, 9, 51, 64
13, 50210, Note_off_c, 9, 37, 64
13, 50210, Note_off_c, 9, 42, 64
13, 50336, Note_on_c, 9, 38, 30
13, 50336, Note_on_c, 9, 51, 70
13, 50386, Note_off_c, 9, 51, 64
13, 50386, Note_off_c, 9, 38, 64
13, 50400, Note_on_c, 9, 38, 40
13, 50400, Note_on_c, 9, 51, 80
13, 50450, Note_off_c, 9, 51, 64
13, 50450, Note_off_c, 9, 38, 64
13, 50576, Note_on_c, 9, 38, 40
13, 50626, Note_off_c, 9, 38, 64
13, 50640, Note_on_c, 9, 42, 100
13, 50640, Note_on_c, 9, 37, 70
13, 50640, Note_on_c, 9, 51, 90
13, 50690, Note_off_c, 9, 51, 64
13, 50690, Note_off_c, 9, 37, 64
13, 50690, Note_off_c, 9, 42, 64
13, 50816, Note_on_c, 9, 51, 70
13, 50866, Note_off_c, 9, 51, 64
13, 50880, Note_on_c, 9, 51, 70
13, 50930, Note_off_c, 9, 51, 64
13, 51120, Note_on_c, 9, 42, 80
13, 51120, Note_on_c, 9, 37, 70
13, 51120, Note_on_c, 9, 51, 90
13, 51170, Note_off_c, 9, 51, 64
13, 51170, Note_off_c, 9, 37, 64
13, 51170, Note_off_c, 9, 42, 64
13, 51294, Note_on_c, 9, 51, 70
13, 51344, Note_off_c, 9, 51, 64
13, 51360, Note_on_c, 9, 51, 80
13, 51410, Note_off_c, 9, 51, 64
13, 51600, Note_on_c, 9, 42, 100
13, 51600, Note_on_c, 9, 37, 80
13, 51600, Note_on_c, 9, 51, 90
13, 51650, Note_off_c, 9, 51, 64
13, 51650, Note_off_c, 9, 37, 64
13, 51650, Note_off_c, 9, 42, 64
13, 51774, Note_on_c, 9, 51, 70
13, 51824, Note_off_c, 9, 51, 64
13, 51840, Note_on_c, 9, 51, 70
13, 51890, Note_off_c, 9, 51, 64
13, 52080, Note_on_c, 9, 42, 90
13, 52080, Note_on_c, 9, 37, 60
13, 52080, Note_on_c, 9, 51, 90
13, 52130, Note_off_c, 9, 51, 64
13, 52130, Note_off_c, 9, 37, 64
13, 52130, Note_off_c, 9, 42, 64
13, 52256, Note_on_c, 9, 38, 40
13, 52256, Note_on_c, 9, 51, 70
13, 52306, Note_off_c, 9, 51, 64
13, 52306, Note_off_c, 9, 38, 64
13, 52320, Note_on_c, 9, 51, 80
13, 52370, Note_off_c, 9, 51, 64
13, 52496, Note_on_c, 9, 38, 50
13, 52546, Note_off_c, 9, 38, 64
13, 52560, Note_on_c, 9, 42, 100
13, 52560, Note_on_c, 9, 37, 70
13, 52560, Note_on_c, 9, 51, 90
13, 52610, Note_off_c, 9, 51, 64
13, 52610, Note_off_c, 9, 37, 64
13, 52610, Note_off_c, 9, 42, 64
13, 52736, Note_on_c, 9, 51, 70
13, 52786, Note_off_c, 9, 51, 64
13, 52800, Note_on_c, 9, 51, 80
13, 52850, Note_off_c, 9, 51, 64
13, 53040, Note_on_c, 9, 42, 80
13, 53040, Note_on_c, 9, 37, 70
13, 53040, Note_on_c, 9, 51, 90
13, 53090, Note_off_c, 9, 51, 64
13, 53090, Note_off_c, 9, 37, 64
13, 53090, Note_off_c, 9, 42, 64
13, 53216, Note_on_c, 9, 51, 70
13, 53266, Note_off_c, 9, 51, 64
13, 53280, Note_on_c, 9, 38, 40
13, 53280, Note_on_c, 9, 51, 80
13, 53330, Note_off_c, 9, 51, 64
13, 53330, Note_off_c, 9, 38, 64
13, 53520, Note_on_c, 9, 42, 100
13, 53520, Note_on_c, 9, 37, 70
13, 53520, Note_on_c, 9, 51, 90
13, 53570, Note_off_c, 9, 51, 64
13, 53570, Note_off_c, 9, 37, 64
13, 53570, Note_off_c, 9, 42, 64
13, 53696, Note_on_c, 9, 51, 70
13, 53746, Note_off_c, 9, 51, 64
13, 53760, Note_on_c, 9, 51, 70
13, 53810, Note_off_c, 9, 51, 64
13, 54000, Note_on_c, 9, 42, 90
13, 54000, Note_on_c, 9, 37, 60
13, 54000, Note_on_c, 9, 51, 90
13, 54050, Note_off_c, 9, 51, 64
13, 54050, Note_off_c, 9, 37, 64
13, 54050, Note_off_c, 9, 42, 64
13, 54176, Note_on_c, 9, 38, 40
13, 54176, Note_on_c, 9, 51, 70
13, 54226, Note_off_c, 9, 51, 64
13, 54226, Note_off_c, 9, 38, 64
13, 54240, Note_on_c, 9, 51, 80
13, 54290, Note_off_c, 9, 51, 64
13, 54480, Note_on_c, 9, 42, 100
13, 54480, Note_on_c, 9, 37, 70
13, 54480, Note_on_c, 9, 51, 90
13, 54530, Note_off_c, 9, 51, 64
13, 54530, Note_off_c, 9, 37, 64
13, 54530, Note_off_c, 9, 42, 64
13, 54656, Note_on_c, 9, 51, 70
13, 54706, Note_off_c, 9, 51, 64
13, 54720, Note_on_c, 9, 51, 80
13, 54770, Note_off_c, 9, 51, 64
13, 54960, Note_on_c, 9, 42, 80
13, 54960, Note_on_c, 9, 37, 70
13, 54960, Note_on_c, 9, 51, 100
13, 55010, Note_off_c, 9, 51, 64
13, 55010, Note_off_c, 9, 37, 64
13, 55010, Note_off_c, 9, 42, 64
13, 55136, Note_on_c, 9, 38, 40
13, 55136, Note_on_c, 9, 51, 70
13, 55186, Note_off_c, 9, 51, 64
13, 55186, Note_off_c, 9, 38, 64
13, 55200, Note_on_c, 9, 51, 80
13, 55250, Note_off_c, 9, 51, 64
13, 55376, Note_on_c, 9, 38, 60
13, 55376, Note_on_c, 9, 51, 50
13, 55426, Note_off_c, 9, 51, 64
13, 55426, Note_off_c, 9, 38, 64
13, 55440, Note_on_c, 9, 42, 100
13, 55440, Note_on_c, 9, 37, 80
13, 55440, Note_on_c, 9, 51, 90
13, 55490, Note_off_c, 9, 51, 64
13, 55490, Note_off_c, 9, 37, 64
13, 55490, Note_off_c, 9, 42, 64
13, 55616, Note_on_c, 9, 38, 50
13, 55616, Note_on_c, 9, 51, 70
13, 55666, Note_off_c, 9, 51, 64
13, 55666, Note_off_c, 9, 38, 64
13, 55680, Note_on_c, 9, 51, 70
13, 55730, Note_off_c, 9, 51, 64
13, 55920, Note_on_c, 9, 42, 100
13, 55920, Note_on_c, 9, 37, 70
13, 55920, Note_on_c, 9, 51, 90
13, 55970, Note_off_c, 9, 51, 64
13, 55970, Note_off_c, 9, 37, 64
13, 55970, Note_off_c, 9, 42, 64
13, 56094, Note_on_c, 9, 38, 40
13, 56094, Note_on_c, 9, 51, 50
13, 56144, Note_off_c, 9, 51, 64
13, 56144, Note_off_c, 9, 38, 64
13, 56160, Note_on_c, 9, 51, 80
13, 56210, Note_off_c, 9, 51, 64
13, 56400, Note_on_c, 9, 42, 100
13, 56400, Note_on_c, 9, 37, 70
13, 56400, Note_on_c, 9, 51, 90
13, 56450, Note_off_c, 9, 51, 64
13, 56450, Note_off_c, 9, 37, 64
13, 56450, Note_off_c, 9, 42, 64
13, 56574, Note_on_c, 9, 38, 40
13, 56574, Note_on_c, 9, 51, 50
13, 56624, Note_off_c, 9, 51, 64
13, 56624, Note_off_c, 9, 38, 64
13, 56640, Note_on_c, 9, 51, 80
13, 56690, Note_off_c, 9, 51, 64
13, 56880, Note_on_c, 9, 42, 70
13, 56880, Note_on_c, 9, 37, 70
13, 56880, Note_on_c, 9, 51, 90
13, 56930, Note_off_c, 9, 51, 64
13, 56930, Note_off_c, 9, 37, 64
13, 56930, Note_off_c, 9, 42, 64
13, 57054, Note_on_c, 9, 51, 70
13, 57104, Note_off_c, 9, 51, 64
13, 57120, Note_on_c, 9, 51, 90
13, 57170, Note_off_c, 9, 51, 64
13, 57360, Note_on_c, 9, 42, 100
13, 57360, Note_on_c, 9, 51, 90
13, 57410, Note_off_c, 9, 51, 64
13, 57410, Note_off_c, 9, 42, 64
13, 57534, Note_on_c, 9, 51, 70
13, 57584, Note_off_c, 9, 51, 64
13, 57600, Note_on_c, 9, 51, 80
13, 57650, Note_off_c, 9, 51, 64
13, 57840, Note_on_c, 9, 42, 80
13, 57840, Note_on_c, 9, 37, 70
13, 57840, Note_on_c, 9, 51, 90
13, 57890, Note_off_c, 9, 51, 64
13, 57890, Note_off_c, 9, 37, 64
13, 57890, Note_off_c, 9, 42, 64
13, 58016, Note_on_c, 9, 51, 70
13, 58066, Note_off_c, 9, 51, 64
13, 58080, Note_on_c, 9, 38, 40
13, 58080, Note_on_c, 9, 51, 80
13, 58130, Note_off_c, 9, 51, 64
13, 58130, Note_off_c, 9, 38, 64
13, 58320, Note_on_c, 9, 42, 100
13, 58320, Note_on_c, 9, 37, 70
13, 58320, Note_on_c, 9, 51, 90
13, 58370, Note_off_c, 9, 51, 64
13, 58370, Note_off_c, 9, 37, 64
13, 58370, Note_off_c, 9, 42, 64
13, 58496, Note_on_c, 9, 51, 70
13, 58546, Note_off_c, 9, 51, 64
13, 58560, Note_on_c, 9, 51, 80
13, 58610, Note_off_c, 9, 51, 64
13, 58800, Note_on_c, 9, 42, 70
13, 58800, Note_on_c, 9, 37, 70
13, 58800, Note_on_c, 9, 51, 90
13, 58850, Note_off_c, 9, 51, 64
13, 58850, Note_off_c, 9, 37, 64
13, 58850, Note_off_c, 9, 42, 64
13, 58974, Note_on_c, 9, 51, 70
13, 59024, Note_off_c, 9, 51, 64
13, 59040, Note_on_c, 9, 51, 90
13, 59090, Note_off_c, 9, 51, 64
13, 59280, Note_on_c, 9, 42, 100
13, 59280, Note_on_c, 9, 51, 90
13, 59330, Note_off_c, 9, 51, 64
13, 59330, Note_off_c, 9, 42, 64
13, 59454, Note_on_c, 9, 51, 70
13, 59504, Note_off_c, 9, 51, 64
13, 59520, Note_on_c, 9, 51, 70
13, 59570, Note_off_c, 9, 51, 64
13, 59760, Note_on_c, 9, 42, 100
13, 59760, Note_on_c, 9, 37, 70
13, 59760, Note_on_c, 9, 51, 90
13, 59810, Note_off_c, 9, 51, 64
13, 59810, Note_off_c, 9, 37, 64
13, 59810, Note_off_c, 9, 42, 64
13, 59934, Note_on_c, 9, 38, 40
13, 59934, Note_on_c, 9, 51, 50
13, 59984, Note_off_c, 9, 51, 64
13, 59984, Note_off_c, 9, 38, 64
13, 60000, Note_on_c, 9, 51, 80
13, 60050, Note_off_c, 9, 51, 64
13, 60240, Note_on_c, 9, 42, 100
13, 60240, Note_on_c, 9, 37, 70
13, 60240, Note_on_c, 9, 51, 90
13, 60290, Note_off_c, 9, 51, 64
13, 60290, Note_off_c, 9, 37, 64
13, 60290, Note_off_c, 9, 42, 64
13, 60414, Note_on_c, 9, 38, 40
13, 60414, Note_on_c, 9, 51, 50
13, 60464, Note_off_c, 9, 51, 64
13, 60464, Note_off_c, 9, 38, 64
13, 60480, Note_on_c, 9, 51, 80
13, 60530, Note_off_c, 9, 51, 64
13, 60720, Note_on_c, 9, 42, 80
13, 60720, Note_on_c, 9, 37, 70
13, 60720, Note_on_c, 9, 51, 90
13, 60770, Note_off_c, 9, 51, 64
13, 60770, Note_off_c, 9, 37, 64
13, 60770, Note_off_c, 9, 42, 64
13, 60896, Note_on_c, 9, 38, 30
13, 60896, Note_on_c, 9, 51, 70
13, 60946, Note_off_c, 9, 51, 64
13, 60946, Note_off_c, 9, 38, 64
13, 60960, Note_on_c, 9, 38, 40
13, 60960, Note_on_c, 9, 51, 80
13, 61010, Note_off_c, 9, 51, 64
13, 61010, Note_off_c, 9, 38, 64
13, 61200, Note_on_c, 9, 42, 100
13, 61200, Note_on_c, 9, 37, 70
13, 61200, Note_on_c, 9, 51, 90
13, 61250, Note_off_c, 9, 51, 64
13, 61250, Note_off_c, 9, 37, 64
13, 61250, Note_off_c, 9, 42, 64
13, 61376, Note_on_c, 9, 51, 70
13, 61426, Note_off_c, 9, 51, 64
13, 61440, Note_on_c, 9, 51, 70
13, 61490, Note_off_c, 9, 51, 64
13, 61616, Note_on_c, 9, 38, 60
13, 61666, Note_off_c, 9, 38, 64
13, 61680, Note_on_c, 9, 42, 90
13, 61680, Note_on_c, 9, 37, 60
13, 61680, Note_on_c, 9, 51, 90
13, 61730, Note_off_c, 9, 51, 64
13, 61730, Note_off_c, 9, 37, 64
13, 61730, Note_off_c, 9, 42, 64
13, 61856, Note_on_c, 9, 38, 40
13, 61856, Note_on_c, 9, 51, 70
13, 61906, Note_off_c, 9, 51, 64
13, 61906, Note_off_c, 9, 38, 64
13, 61920, Note_on_c, 9, 51, 80
13, 61970, Note_off_c, 9, 51, 64
13, 62160, Note_on_c, 9, 42, 100
13, 62160, Note_on_c, 9, 37, 70
13, 62160, Note_on_c, 9, 51, 90
13, 62210, Note_off_c, 9, 51, 64
13, 62210, Note_off_c, 9, 37, 64
13, 62210, Note_off_c, 9, 42, 64
13, 62336, Note_on_c, 9, 51, 70
13, 62386, Note_off_c, 9, 51, 64
13, 62400, Note_on_c, 9, 35, 70
13, 62400, Note_on_c, 9, 51, 70
13, 62450, Note_off_c, 9, 51, 64
13, 62450, Note_off_c, 9, 35, 64
13, 62640, Note_on_c, 9, 42, 90
13, 62640, Note_on_c, 9, 37, 60
13, 62640, Note_on_c, 9, 51, 90
13, 62690, Note_off_c, 9, 51, 64
13, 62690, Note_off_c, 9, 37, 64
13, 62690, Note_off_c, 9, 42, 64
13, 62816, Note_on_c, 9, 38, 50
13, 62816, Note_on_c, 9, 51, 70
13, 62866, Note_off_c, 9, 51, 64
13, 62866, Note_off_c, 9, 38, 64
13, 62880, Note_on_c, 9, 51, 80
13, 62930, Note_off_c, 9, 51, 64
13, 63056, Note_on_c, 9, 38, 60
13, 63056, Note_on_c, 9, 46, 40
13, 63106, Note_off_c, 9, 46, 64
13, 63106, Note_off_c, 9, 38, 64
13, 63120, Note_on_c, 9, 42, 100
13, 63120, Note_on_c, 9, 37, 100
13, 63120, Note_on_c, 9, 51, 90
13, 63170, Note_off_c, 9, 51, 64
13, 63170, Note_off_c, 9, 37, 64
13, 63170, Note_off_c, 9, 42, 64
13, 63296, Note_on_c, 9, 38, 70
13, 63296, Note_on_c, 9, 51, 70
13, 63346, Note_off_c, 9, 51, 64
13, 63346, Note_off_c, 9, 38, 64
13, 63360, Note_on_c, 9, 42, 70
13, 63410, Note_off_c, 9, 42, 64
13, 63600, Note_on_c, 9, 42, 70
13, 63600, Note_on_c, 9, 37, 80
13, 63650, Note_off_c, 9, 37, 64
13, 63650, Note_off_c, 9, 42, 64
13, 63772, Note_on_c, 9, 42, 40
13, 63822, Note_off_c, 9, 42, 64
13, 63840, Note_on_c, 9, 35, 60
13, 63840, Note_on_c, 9, 42, 80
13, 63890, Note_off_c, 9, 42, 64
13, 63890, Note_off_c, 9, 35, 64
13, 64080, Note_on_c, 9, 35, 60
13, 64080, Note_on_c, 9, 42, 80
13, 64130, Note_off_c, 9, 42, 64
13, 64130, Note_off_c, 9, 35, 64
13, 64252, Note_on_c, 9, 42, 50
13, 64302, Note_off_c, 9, 42, 64
13, 64320, Note_on_c, 9, 35, 60
13, 64320, Note_on_c, 9, 42, 80
13, 64370, Note_off_c, 9, 42, 64
13, 64370, Note_off_c, 9, 35, 64
13, 64560, Note_on_c, 9, 42, 90
13, 64560, Note_on_c, 9, 37, 70
13, 64610, Note_off_c, 9, 37, 64
13, 64610, Note_off_c, 9, 42, 64
13, 64734, Note_on_c, 9, 42, 40
13, 64784, Note_off_c, 9, 42, 64
13, 64800, Note_on_c, 9, 35, 60
13, 64800, Note_on_c, 9, 42, 80
13, 64850, Note_off_c, 9, 42, 64
13, 64850, Note_off_c, 9, 35, 64
13, 65040, Note_on_c, 9, 42, 90
13, 65040, Note_on_c, 9, 37, 85
13, 65090, Note_off_c, 9, 37, 64
13, 65090, Note_off_c, 9, 42, 64
13, 65214, Note_on_c, 9, 42, 50
13, 65264, Note_off_c, 9, 42, 64
13, 65280, Note_on_c, 9, 42, 70
13, 65330, Note_off_c, 9, 42, 64
13, 65520, Note_on_c, 9, 42, 70
13, 65520, Note_on_c, 9, 37, 80
13, 65570, Note_off_c, 9, 37, 64
13, 65570, Note_off_c, 9, 42, 64
13, 65692, Note_on_c, 9, 42, 40
13, 65742, Note_off_c, 9, 42, 64
13, 65760, Note_on_c, 9, 35, 60
13, 65760, Note_on_c, 9, 42, 80
13, 65810, Note_off_c, 9, 42, 64
13, 65810, Note_off_c, 9, 35, 64
13, 66000, Note_on_c, 9, 35, 60
13, 66000, Note_on_c, 9, 42, 80
13, 66050, Note_off_c, 9, 42, 64
13, 66050, Note_off_c, 9, 35, 64
13, 66172, Note_on_c, 9, 42, 50
13, 66222, Note_off_c, 9, 42, 64
13, 66240, Note_on_c, 9, 42, 70
13, 66290, Note_off_c, 9, 42, 64
13, 66480, Note_on_c, 9, 42, 70
13, 66480, Note_on_c, 9, 37, 80
13, 66530, Note_off_c, 9, 37, 64
13, 66530, Note_off_c, 9, 42, 64
13, 66652, Note_on_c, 9, 42, 40
13, 66702, Note_off_c, 9, 42, 64
13, 66720, Note_on_c, 9, 35, 60
13, 66720, Note_on_c, 9, 42, 80
13, 66770, Note_off_c, 9, 42, 64
13, 66770, Note_off_c, 9, 35, 64
13, 66960, Note_on_c, 9, 35, 60
13, 66960, Note_on_c, 9, 42, 80
13, 67010, Note_off_c, 9, 42, 64
13, 67010, Note_off_c, 9, 35, 64
13, 67132, Note_on_c, 9, 42, 50
13, 67182, Note_off_c, 9, 42, 64
13, 67200, Note_on_c, 9, 35, 60
13, 67200, Note_on_c, 9, 42, 70
13, 67250, Note_off_c, 9, 42, 64
13, 67250, Note_off_c, 9, 35, 64
13, 67440, Note_on_c, 9, 42, 90
13, 67440, Note_on_c, 9, 37, 80
13, 67490, Note_off_c, 9, 37, 64
13, 67490, Note_off_c, 9, 42, 64
13, 67612, Note_on_c, 9, 42, 40
13, 67662, Note_off_c, 9, 42, 64
13, 67680, Note_on_c, 9, 35, 60
13, 67680, Note_on_c, 9, 42, 70
13, 67730, Note_off_c, 9, 42, 64
13, 67730, Note_off_c, 9, 35, 64
13, 67920, Note_on_c, 9, 42, 90
13, 67920, Note_on_c, 9, 37, 78
13, 67970, Note_off_c, 9, 37, 64
13, 67970, Note_off_c, 9, 42, 64
13, 68092, Note_on_c, 9, 42, 50
13, 68142, Note_off_c, 9, 42, 64
13, 68160, Note_on_c, 9, 35, 60
13, 68160, Note_on_c, 9, 42, 80
13, 68210, Note_off_c, 9, 42, 64
13, 68210, Note_off_c, 9, 35, 64
13, 68400, Note_on_c, 9, 42, 70
13, 68400, Note_on_c, 9, 37, 70
13, 68450, Note_off_c, 9, 37, 64
13, 68450, Note_off_c, 9, 42, 64
13, 68572, Note_on_c, 9, 42, 40
13, 68622, Note_off_c, 9, 42, 64
13, 68640, Note_on_c, 9, 35, 60
13, 68640, Note_on_c, 9, 42, 80
13, 68690, Note_off_c, 9, 42, 64
13, 68690, Note_off_c, 9, 35, 64
13, 68880, Note_on_c, 9, 42, 70
13, 68880, Note_on_c, 9, 37, 85
13, 68930, Note_off_c, 9, 37, 64
13, 68930, Note_off_c, 9, 42, 64
13, 69052, Note_on_c, 9, 42, 50
13, 69102, Note_off_c, 9, 42, 64
13, 69120, Note_on_c, 9, 35, 60
13, 69120, Note_on_c, 9, 42, 70
13, 69170, Note_off_c, 9, 42, 64
13, 69170, Note_off_c, 9, 35, 64
13, 69360, Note_on_c, 9, 42, 80
13, 69360, Note_on_c, 9, 37, 70
13, 69410, Note_off_c, 9, 37, 64
13, 69410, Note_off_c, 9, 42, 64
13, 69536, Note_on_c, 9, 42, 40
13, 69586, Note_off_c, 9, 42, 64
13, 69600, Note_on_c, 9, 35, 60
13, 69600, Note_on_c, 9, 42, 80
13, 69650, Note_off_c, 9, 42, 64
13, 69650, Note_off_c, 9, 35, 64
13, 69840, Note_on_c, 9, 42, 80
13, 69840, Note_on_c, 9, 37, 80
13, 69890, Note_off_c, 9, 37, 64
13, 69890, Note_off_c, 9, 42, 64
13, 70016, Note_on_c, 9, 42, 50
13, 70066, Note_off_c, 9, 42, 64
13, 70080, Note_on_c, 9, 35, 60
13, 70080, Note_on_c, 9, 42, 80
13, 70130, Note_off_c, 9, 42, 64
13, 70130, Note_off_c, 9, 35, 64
13, 70320, Note_on_c, 9, 42, 90
13, 70320, Note_on_c, 9, 37, 70
13, 70370, Note_off_c, 9, 37, 64
13, 70370, Note_off_c, 9, 42, 64
13, 70494, Note_on_c, 9, 42, 40
13, 70544, Note_off_c, 9, 42, 64
13, 70560, Note_on_c, 9, 35, 60
13, 70560, Note_on_c, 9, 42, 80
13, 70610, Note_off_c, 9, 42, 64
13, 70610, Note_off_c, 9, 35, 64
13, 70734, Note_on_c, 9, 37, 90
13, 70784, Note_off_c, 9, 37, 64
13, 70800, Note_on_c, 9, 42, 90
13, 70850, Note_off_c, 9, 42, 64
13, 70974, Note_on_c, 9, 35, 50
13, 70974, Note_on_c, 9, 42, 50
13, 71024, Note_off_c, 9, 42, 64
13, 71024, Note_off_c, 9, 35, 64
13, 71040, Note_on_c, 9, 35, 60
13, 71040, Note_on_c, 9, 42, 80
13, 71090, Note_off_c, 9, 42, 64
13, 71090, Note_off_c, 9, 35, 64
13, 71280, Note_on_c, 9, 42, 90
13, 71280, Note_on_c, 9, 37, 70
13, 71330, Note_off_c, 9, 37, 64
13, 71330, Note_off_c, 9, 42, 64
13, 71454, Note_on_c, 9, 42, 40
13, 71504, Note_off_c, 9, 42, 64
13, 71520, Note_on_c, 9, 35, 60
13, 71520, Note_on_c, 9, 42, 80
13, 71570, Note_off_c, 9, 42, 64
13, 71570, Note_off_c, 9, 35, 64
13, 71760, Note_on_c, 9, 42, 90
13, 71760, Note_on_c, 9, 37, 85
13, 71810, Note_off_c, 9, 37, 64
13, 71810, Note_off_c, 9, 42, 64
13, 71934, Note_on_c, 9, 42, 50
13, 71984, Note_off_c, 9, 42, 64
13, 72000, Note_on_c, 9, 35, 60
13, 72000, Note_on_c, 9, 42, 80
13, 72050, Note_off_c, 9, 42, 64
13, 72050, Note_off_c, 9, 35, 64
13, 72240, Note_on_c, 9, 42, 70
13, 72240, Note_on_c, 9, 37, 70
13, 72290, Note_off_c, 9, 37, 64
13, 72290, Note_off_c, 9, 42, 64
13, 72412, Note_on_c, 9, 42, 40
13, 72462, Note_off_c, 9, 42, 64
13, 72480, Note_on_c, 9, 35, 60
13, 72480, Note_on_c, 9, 42, 80
13, 72530, Note_off_c, 9, 42, 64
13, 72530, Note_off_c, 9, 35, 64
13, 72720, Note_on_c, 9, 42, 70
13, 72720, Note_on_c, 9, 37, 85
13, 72770, Note_off_c, 9, 37, 64
13, 72770, Note_off_c, 9, 42, 64
13, 72892, Note_on_c, 9, 42, 50
13, 72942, Note_off_c, 9, 42, 64
13, 72960, Note_on_c, 9, 35, 60
13, 72960, Note_on_c, 9, 42, 70
13, 73010, Note_off_c, 9, 42, 64
13, 73010, Note_off_c, 9, 35, 64
13, 73200, Note_on_c, 9, 42, 90
13, 73200, Note_on_c, 9, 37, 70
13, 73250, Note_off_c, 9, 37, 64
13, 73250, Note_off_c, 9, 42, 64
13, 73376, Note_on_c, 9, 42, 40
13, 73426, Note_off_c, 9, 42, 64
13, 73440, Note_on_c, 9, 35, 60
13, 73440, Note_on_c, 9, 42, 80
13, 73490, Note_off_c, 9, 42, 64
13, 73490, Note_off_c, 9, 35, 64
13, 73680, Note_on_c, 9, 42, 90
13, 73680, Note_on_c, 9, 37, 80
13, 73730, Note_off_c, 9, 37, 64
13, 73730, Note_off_c, 9, 42, 64
13, 73856, Note_on_c, 9, 42, 50
13, 73906, Note_off_c, 9, 42, 64
13, 73920, Note_on_c, 9, 35, 60
13, 73920, Note_on_c, 9, 42, 80
13, 73970, Note_off_c, 9, 42, 64
13, 73970, Note_off_c, 9, 35, 64
13, 74160, Note_on_c, 9, 42, 90
13, 74160, Note_on_c, 9, 37, 70
13, 74210, Note_off_c, 9, 37, 64
13, 74210, Note_off_c, 9, 42, 64
13, 74334, Note_on_c, 9, 42, 40
13, 74384, Note_off_c, 9, 42, 64
13, 74400, Note_on_c, 9, 35, 60
13, 74400, Note_on_c, 9, 42, 80
13, 74450, Note_off_c, 9, 42, 64
13, 74450, Note_off_c, 9, 35, 64
13, 74574, Note_on_c, 9, 37, 90
13, 74624, Note_off_c, 9, 37, 64
13, 74640, Note_on_c, 9, 42, 90
13, 74690, Note_off_c, 9, 42, 64
13, 74814, Note_on_c, 9, 42, 50
13, 74864, Note_off_c, 9, 42, 64
13, 74880, Note_on_c, 9, 35, 60
13, 74880, Note_on_c, 9, 42, 80
13, 74930, Note_off_c, 9, 42, 64
13, 74930, Note_off_c, 9, 35, 64
13, 75120, Note_on_c, 9, 42, 90
13, 75120, Note_on_c, 9, 37, 70
13, 75170, Note_off_c, 9, 37, 64
13, 75170, Note_off_c, 9, 42, 64
13, 75294, Note_on_c, 9, 42, 40
13, 75344, Note_off_c, 9, 42, 64
13, 75360, Note_on_c, 9, 35, 60
13, 75360, Note_on_c, 9, 42, 80
13, 75410, Note_off_c, 9, 42, 64
13, 75410, Note_off_c, 9, 35, 64
13, 75600, Note_on_c, 9, 42, 90
13, 75600, Note_on_c, 9, 37, 85
13, 75650, Note_off_c, 9, 37, 64
13, 75650, Note_off_c, 9, 42, 64
13, 75774, Note_on_c, 9, 42, 50
13, 75824, Note_off_c, 9, 42, 64
13, 75840, Note_on_c, 9, 35, 60
13, 75840, Note_on_c, 9, 42, 70
13, 75890, Note_off_c, 9, 42, 64
13, 75890, Note_off_c, 9, 35, 64
13, 76080, Note_on_c, 9, 42, 90
13, 76080, Note_on_c, 9, 37, 70
13, 76130, Note_off_c, 9, 37, 64
13, 76130, Note_off_c, 9, 42, 64
13, 76256, Note_on_c, 9, 42, 40
13, 76306, Note_off_c, 9, 42, 64
13, 76320, Note_on_c, 9, 35, 60
13, 76320, Note_on_c, 9, 42, 80
13, 76370, Note_off_c, 9, 42, 64
13, 76370, Note_off_c, 9, 35, 64
13, 76560, Note_on_c, 9, 42, 90
13, 76560, Note_on_c, 9, 37, 80
13, 76610, Note_off_c, 9, 37, 64
13, 76610, Note_off_c, 9, 42, 64
13, 76736, Note_on_c, 9, 42, 50
13, 76786, Note_off_c, 9, 42, 64
13, 76800, Note_on_c, 9, 35, 60
13, 76800, Note_on_c, 9, 42, 70
13, 76850, Note_off_c, 9, 42, 64
13, 76850, Note_off_c, 9, 35, 64
13, 77040, Note_on_c, 9, 42, 90
13, 77040, Note_on_c, 9, 37, 70
13, 77090, Note_off_c, 9, 37, 64
13, 77090, Note_off_c, 9, 42, 64
13, 77216, Note_on_c, 9, 42, 40
13, 77266, Note_off_c, 9, 42, 64
13, 77280, Note_on_c, 9, 35, 60
13, 77280, Note_on_c, 9, 42, 80
13, 77330, Note_off_c, 9, 42, 64
13, 77330, Note_off_c, 9, 35, 64
13, 77520, Note_on_c, 9, 42, 90
13, 77520, Note_on_c, 9, 37, 80
13, 77570, Note_off_c, 9, 37, 64
13, 77570, Note_off_c, 9, 42, 64
13, 77696, Note_on_c, 9, 42, 50
13, 77746, Note_off_c, 9, 42, 64
13, 77760, Note_on_c, 9, 38, 50
13, 77760, Note_on_c, 9, 42, 70
13, 77810, Note_off_c, 9, 42, 64
13, 77810, Note_off_c, 9, 38, 64
13, 77928, Note_on_c, 9, 35, 70
13, 77978, Note_off_c, 9, 35, 64
13, 78000, Note_on_c, 9, 42, 80
13, 78050, Note_off_c, 9, 42, 64
13, 78168, Note_on_c, 9, 38, 50
13, 78218, Note_off_c, 9, 38, 64
13, 78240, Note_on_c, 9, 35, 60
13, 78240, Note_on_c, 9, 42, 70
13, 78290, Note_off_c, 9, 42, 64
13, 78290, Note_off_c, 9, 35, 64
13, 78408, Note_on_c, 9, 38, 30
13, 78458, Note_off_c, 9, 38, 64
13, 78480, Note_on_c, 9, 38, 50
13, 78480, Note_on_c, 9, 42, 100
13, 78530, Note_off_c, 9, 42, 64
13, 78530, Note_off_c, 9, 38, 64
13, 78560, Note_on_c, 9, 38, 25
13, 78610, Note_off_c, 9, 38, 64
13, 78648, Note_on_c, 9, 38, 40
13, 78698, Note_off_c, 9, 38, 64
13, 78720, Note_on_c, 9, 38, 50
13, 78720, Note_on_c, 9, 49, 40
13, 78770, Note_off_c, 9, 49, 64
13, 78770, Note_off_c, 9, 38, 64
13, 78894, Note_on_c, 9, 38, 70
13, 78944, Note_off_c, 9, 38, 64
13, 78960, Note_on_c, 9, 42, 80
13, 78960, Note_on_c, 9, 37, 70
13, 78960, Note_on_c, 9, 51, 90
13, 79010, Note_off_c, 9, 51, 64
13, 79010, Note_off_c, 9, 37, 64
13, 79010, Note_off_c, 9, 42, 64
13, 79134, Note_on_c, 9, 51, 70
13, 79184, Note_off_c, 9, 51, 64
13, 79200, Note_on_c, 9, 38, 40
13, 79200, Note_on_c, 9, 51, 70
13, 79250, Note_off_c, 9, 51, 64
13, 79250, Note_off_c, 9, 38, 64
13, 79440, Note_on_c, 9, 42, 100
13, 79440, Note_on_c, 9, 37, 70
13, 79440, Note_on_c, 9, 51, 90
13, 79490, Note_off_c, 9, 51, 64
13, 79490, Note_off_c, 9, 37, 64
13, 79490, Note_off_c, 9, 42, 64
13, 79614, Note_on_c, 9, 51, 70
13, 79664, Note_off_c, 9, 51, 64
13, 79680, Note_on_c, 9, 51, 80
13, 79730, Note_off_c, 9, 51, 64
13, 79920, Note_on_c, 9, 42, 70
13, 79920, Note_on_c, 9, 37, 70
13, 79920, Note_on_c, 9, 51, 90
13, 79970, Note_off_c, 9, 51, 64
13, 79970, Note_off_c, 9, 37, 64
13, 79970, Note_off_c, 9, 42, 64
13, 80094, Note_on_c, 9, 51, 70
13, 80144, Note_off_c, 9, 51, 64
13, 80160, Note_on_c, 9, 51, 90
13, 80210, Note_off_c, 9, 51, 64
13, 80400, Note_on_c, 9, 42, 100
13, 80400, Note_on_c, 9, 51, 90
13, 80450, Note_off_c, 9, 51, 64
13, 80450, Note_off_c, 9, 42, 64
13, 80574, Note_on_c, 9, 51, 70
13, 80624, Note_off_c, 9, 51, 64
13, 80640, Note_on_c, 9, 51, 70
13, 80690, Note_off_c, 9, 51, 64
13, 80880, Note_on_c, 9, 42, 100
13, 80880, Note_on_c, 9, 37, 70
13, 80880, Note_on_c, 9, 51, 90
13, 80930, Note_off_c, 9, 51, 64
13, 80930, Note_off_c, 9, 37, 64
13, 80930, Note_off_c, 9, 42, 64
13, 81054, Note_on_c, 9, 38, 40
13, 81054, Note_on_c, 9, 51, 50
13, 81104, Note_off_c, 9, 51, 64
13, 81104, Note_off_c, 9, 38, 64
13, 81120, Note_on_c, 9, 51, 80
13, 81170, Note_off_c, 9, 51, 64
13, 81360, Note_on_c, 9, 42, 100
13, 81360, Note_on_c, 9, 37, 70
13, 81360, Note_on_c, 9, 51, 90
13, 81410, Note_off_c, 9, 51, 64
13, 81410, Note_off_c, 9, 37, 64
13, 81410, Note_off_c, 9, 42, 64
13, 81534, Note_on_c, 9, 38, 40
13, 81534, Note_on_c, 9, 51, 50
13, 81584, Note_off_c, 9, 51, 64
13, 81584, Note_off_c, 9, 38, 64
13, 81600, Note_on_c, 9, 51, 80
13, 81650, Note_off_c, 9, 51, 64
13, 81840, Note_on_c, 9, 42, 80
13, 81840, Note_on_c, 9, 37, 70
13, 81840, Note_on_c, 9, 51, 100
13, 81890, Note_off_c, 9, 51, 64
13, 81890, Note_off_c, 9, 37, 64
13, 81890, Note_off_c, 9, 42, 64
13, 82016, Note_on_c, 9, 38, 40
13, 82016, Note_on_c, 9, 51, 70
13, 82066, Note_off_c, 9, 51, 64
13, 82066, Note_off_c, 9, 38, 64
13, 82080, Note_on_c, 9, 51, 80
13, 82130, Note_off_c, 9, 51, 64
13, 82256, Note_on_c, 9, 38, 60
13, 82306, Note_off_c, 9, 38, 64
13, 82320, Note_on_c, 9, 42, 100
13, 82320, Note_on_c, 9, 37, 80
13, 82320, Note_on_c, 9, 51, 90
13, 82370, Note_off_c, 9, 51, 64
13, 82370, Note_off_c, 9, 37, 64
13, 82370, Note_off_c, 9, 42, 64
13, 82496, Note_on_c, 9, 38, 50
13, 82496, Note_on_c, 9, 51, 70
13, 82546, Note_off_c, 9, 51, 64
13, 82546, Note_off_c, 9, 38, 64
13, 82560, Note_on_c, 9, 51, 70
13, 82610, Note_off_c, 9, 51, 64
13, 82736, Note_on_c, 9, 38, 60
13, 82786, Note_off_c, 9, 38, 64
13, 82800, Note_on_c, 9, 42, 90
13, 82800, Note_on_c, 9, 37, 60
13, 82800, Note_on_c, 9, 51, 90
13, 82850, Note_off_c, 9, 51, 64
13, 82850, Note_off_c, 9, 37, 64
13, 82850, Note_off_c, 9, 42, 64
13, 82976, Note_on_c, 9, 38, 40
13, 82976, Note_on_c, 9, 51, 70
13, 83026, Note_off_c, 9, 51, 64
13, 83026, Note_off_c, 9, 38, 64
13, 83040, Note_on_c, 9, 51, 80
13, 83090, Note_off_c, 9, 51, 64
13, 83280, Note_on_c, 9, 42, 100
13, 83280, Note_on_c, 9, 37, 70
13, 83280, Note_on_c, 9, 51, 90
13, 83330, Note_off_c, 9, 51, 64
13, 83330, Note_off_c, 9, 37, 64
13, 83330, Note_off_c, 9, 42, 64
13, 83456, Note_on_c, 9, 51, 70
13, 83506, Note_off_c, 9, 51, 64
13, 83520, Note_on_c, 9, 51, 80
13, 83570, Note_off_c, 9, 51, 64
13, 83760, Note_on_c, 9, 42, 70
13, 83760, Note_on_c, 9, 37, 70
13, 83760, Note_on_c, 9, 51, 90
13, 83810, Note_off_c, 9, 51, 64
13, 83810, Note_off_c, 9, 37, 64
13, 83810, Note_off_c, 9, 42, 64
13, 83934, Note_on_c, 9, 51, 70
13, 83984, Note_off_c, 9, 51, 64
13, 84000, Note_on_c, 9, 51, 90
13, 84050, Note_off_c, 9, 51, 64
13, 84240, Note_on_c, 9, 42, 100
13, 84240, Note_on_c, 9, 51, 90
13, 84290, Note_off_c, 9, 51, 64
13, 84290, Note_off_c, 9, 42, 64
13, 84414, Note_on_c, 9, 51, 70
13, 84464, Note_off_c, 9, 51, 64
13, 84480, Note_on_c, 9, 51, 80
13, 84530, Note_off_c, 9, 51, 64
13, 84720, Note_on_c, 9, 42, 80
13, 84720, Note_on_c, 9, 37, 70
13, 84720, Note_on_c, 9, 51, 90
13, 84770, Note_off_c, 9, 51, 64
13, 84770, Note_off_c, 9, 37, 64
13, 84770, Note_off_c, 9, 42, 64
13, 84896, Note_on_c, 9, 38, 30
13, 84896, Note_on_c, 9, 51, 70
13, 84946, Note_off_c, 9, 51, 64
13, 84946, Note_off_c, 9, 38, 64
13, 84960, Note_on_c, 9, 38, 40
13, 84960, Note_on_c, 9, 51, 80
13, 85010, Note_off_c, 9, 51, 64
13, 85010, Note_off_c, 9, 38, 64
13, 85200, Note_on_c, 9, 42, 100
13, 85200, Note_on_c, 9, 37, 70
13, 85200, Note_on_c, 9, 51, 90
13, 85250, Note_off_c, 9, 51, 64
13, 85250, Note_off_c, 9, 37, 64
13, 85250, Note_off_c, 9, 42, 64
13, 85376, Note_on_c, 9, 51, 70
13, 85426, Note_off_c, 9, 51, 64
13, 85440, Note_on_c, 9, 51, 80
13, 85490, Note_off_c, 9, 51, 64
13, 85680, Note_on_c, 9, 42, 80
13, 85680, Note_on_c, 9, 37, 70
13, 85680, Note_on_c, 9, 51, 90
13, 85730, Note_off_c, 9, 51, 64
13, 85730, Note_off_c, 9, 37, 64
13, 85730, Note_off_c, 9, 42, 64
13, 85852, Note_on_c, 9, 35, 70
13, 85852, Note_on_c, 9, 51, 70
13, 85902, Note_off_c, 9, 51, 64
13, 85902, Note_off_c, 9, 35, 64
13, 85920, Note_on_c, 9, 51, 80
13, 85970, Note_off_c, 9, 51, 64
13, 86092, Note_on_c, 9, 38, 60
13, 86142, Note_off_c, 9, 38, 64
13, 86160, Note_on_c, 9, 42, 100
13, 86160, Note_on_c, 9, 37, 80
13, 86160, Note_on_c, 9, 51, 90
13, 86210, Note_off_c, 9, 51, 64
13, 86210, Note_off_c, 9, 37, 64
13, 86210, Note_off_c, 9, 42, 64
13, 86332, Note_on_c, 9, 38, 50
13, 86332, Note_on_c, 9, 51, 70
13, 86382, Note_off_c, 9, 51, 64
13, 86382, Note_off_c, 9, 38, 64
13, 86400, Note_on_c, 9, 51, 70
13, 86450, Note_off_c, 9, 51, 64
13, 86640, Note_on_c, 9, 42, 90
13, 86640, Note_on_c, 9, 37, 60
13, 86640, Note_on_c, 9, 51, 90
13, 86690, Note_off_c, 9, 51, 64
13, 86690, Note_off_c, 9, 37, 64
13, 86690, Note_off_c, 9, 42, 64
13, 86816, Note_on_c, 9, 38, 40
13, 86816, Note_on_c, 9, 51, 70
13, 86866, Note_off_c, 9, 51, 64
13, 86866, Note_off_c, 9, 38, 64
13, 86880, Note_on_c, 9, 51, 80
13, 86930, Note_off_c, 9, 51, 64
13, 87056, Note_on_c, 9, 38, 50
13, 87106, Note_off_c, 9, 38, 64
13, 87120, Note_on_c, 9, 42, 100
13, 87120, Note_on_c, 9, 37, 70
13, 87120, Note_on_c, 9, 51, 90
13, 87170, Note_off_c, 9, 51, 64
13, 87170, Note_off_c, 9, 37, 64
13, 87170, Note_off_c, 9, 42, 64
13, 87296, Note_on_c, 9, 51, 70
13, 87346, Note_off_c, 9, 51, 64
13, 87360, Note_on_c, 9, 51, 80
13, 87410, Note_off_c, 9, 51, 64
13, 87600, Note_on_c, 9, 42, 70
13, 87600, Note_on_c, 9, 37, 70
13, 87600, Note_on_c, 9, 51, 90
13, 87650, Note_off_c, 9, 51, 64
13, 87650, Note_off_c, 9, 37, 64
13, 87650, Note_off_c, 9, 42, 64
13, 87774, Note_on_c, 9, 51, 70
13, 87824, Note_off_c, 9, 51, 64
13, 87840, Note_on_c, 9, 51, 90
13, 87890, Note_off_c, 9, 51, 64
13, 88080, Note_on_c, 9, 42, 100
13, 88080, Note_on_c, 9, 51, 90
13, 88130, Note_off_c, 9, 51, 64
13, 88130, Note_off_c, 9, 42, 64
13, 88254, Note_on_c, 9, 51, 70
13, 88304, Note_off_c, 9, 51, 64
13, 88320, Note_on_c, 9, 51, 70
13, 88370, Note_off_c, 9, 51, 64
13, 88560, Note_on_c, 9, 42, 90
13, 88560, Note_on_c, 9, 37, 60
13, 88560, Note_on_c, 9, 51, 90
13, 88610, Note_off_c, 9, 51, 64
13, 88610, Note_off_c, 9, 37, 64
13, 88610, Note_off_c, 9, 42, 64
13, 88736, Note_on_c, 9, 38, 40
13, 88736, Note_on_c, 9, 51, 70
13, 88786, Note_off_c, 9, 51, 64
13, 88786, Note_off_c, 9, 38, 64
13, 88800, Note_on_c, 9, 51, 80
13, 88850, Note_off_c, 9, 51, 64
13, 89040, Note_on_c, 9, 42, 100
13, 89040, Note_on_c, 9, 37, 70
13, 89040, Note_on_c, 9, 51, 90
13, 89090, Note_off_c, 9, 51, 64
13, 89090, Note_off_c, 9, 37, 64
13, 89090, Note_off_c, 9, 42, 64
13, 89216, Note_on_c, 9, 51, 70
13, 89266, Note_off_c, 9, 51, 64
13, 89280, Note_on_c, 9, 51, 80
13, 89330, Note_off_c, 9, 51, 64
13, 89520, Note_on_c, 9, 42, 80
13, 89520, Note_on_c, 9, 37, 70
13, 89520, Note_on_c, 9, 51, 90
13, 89570, Note_off_c, 9, 51, 64
13, 89570, Note_off_c, 9, 37, 64
13, 89570, Note_off_c, 9, 42, 64
13, 89692, Note_on_c, 9, 51, 70
13, 89742, Note_off_c, 9, 51, 64
13, 89760, Note_on_c, 9, 51, 80
13, 89810, Note_off_c, 9, 51, 64
13, 89932, Note_on_c, 9, 38, 60
13, 89982, Note_off_c, 9, 38, 64
13, 90000, Note_on_c, 9, 42, 100
13, 90000, Note_on_c, 9, 37, 80
13, 90000, Note_on_c, 9, 51, 90
13, 90050, Note_off_c, 9, 51, 64
13, 90050, Note_off_c, 9, 37, 64
13, 90050, Note_off_c, 9, 42, 64
13, 90172, Note_on_c, 9, 38, 50
13, 90172, Note_on_c, 9, 51, 70
13, 90222, Note_off_c, 9, 51, 64
13, 90222, Note_off_c, 9, 38, 64
13, 90240, Note_on_c, 9, 51, 70
13, 90290, Note_off_c, 9, 51, 64
13, 90480, Note_on_c, 9, 42, 100
13, 90480, Note_on_c, 9, 37, 70
13, 90480, Note_on_c, 9, 51, 90
13, 90530, Note_off_c, 9, 51, 64
13, 90530, Note_off_c, 9, 37, 64
13, 90530, Note_off_c, 9, 42, 64
13, 90654, Note_on_c, 9, 38, 40
13, 90654, Note_on_c, 9, 51, 50
13, 90704, Note_off_c, 9, 51, 64
13, 90704, Note_off_c, 9, 38, 64
13, 90720, Note_on_c, 9, 51, 80
13, 90770, Note_off_c, 9, 51, 64
13, 90960, Note_on_c, 9, 42, 100
13, 90960, Note_on_c, 9, 37, 70
13, 90960, Note_on_c, 9, 51, 90
13, 91010, Note_off_c, 9, 51, 64
13, 91010, Note_off_c, 9, 37, 64
13, 91010, Note_off_c, 9, 42, 64
13, 91134, Note_on_c, 9, 38, 40
13, 91134, Note_on_c, 9, 51, 50
13, 91184, Note_off_c, 9, 51, 64
13, 91184, Note_off_c, 9, 38, 64
13, 91200, Note_on_c, 9, 51, 80
13, 91250, Note_off_c, 9, 51, 64
13, 91440, Note_on_c, 9, 42, 70
13, 91440, Note_on_c, 9, 37, 70
13, 91440, Note_on_c, 9, 51, 90
13, 91490, Note_off_c, 9, 51, 64
13, 91490, Note_off_c, 9, 37, 64
13, 91490, Note_off_c, 9, 42, 64
13, 91614, Note_on_c, 9, 51, 70
13, 91664, Note_off_c, 9, 51, 64
13, 91680, Note_on_c, 9, 51, 90
13, 91730, Note_off_c, 9, 51, 64
13, 91920, Note_on_c, 9, 42, 100
13, 91920, Note_on_c, 9, 51, 90
13, 91970, Note_off_c, 9, 51, 64
13, 91970, Note_off_c, 9, 42, 64
13, 92094, Note_on_c, 9, 51, 70
13, 92144, Note_off_c, 9, 51, 64
13, 92160, Note_on_c, 9, 51, 80
13, 92210, Note_off_c, 9, 51, 64
13, 92400, Note_on_c, 9, 42, 80
13, 92400, Note_on_c, 9, 37, 70
13, 92400, Note_on_c, 9, 51, 90
13, 92450, Note_off_c, 9, 51, 64
13, 92450, Note_off_c, 9, 37, 64
13, 92450, Note_off_c, 9, 42, 64
13, 92576, Note_on_c, 9, 51, 70
13, 92626, Note_off_c, 9, 51, 64
13, 92640, Note_on_c, 9, 38, 40
13, 92640, Note_on_c, 9, 51, 80
13, 92690, Note_off_c, 9, 51, 64
13, 92690, Note_off_c, 9, 38, 64
13, 92880, Note_on_c, 9, 42, 100
13, 92880, Note_on_c, 9, 37, 70
13, 92880, Note_on_c, 9, 51, 90
13, 92930, Note_off_c, 9, 51, 64
13, 92930, Note_off_c, 9, 37, 64
13, 92930, Note_off_c, 9, 42, 64
13, 93056, Note_on_c, 9, 51, 70
13, 93106, Note_off_c, 9, 51, 64
13, 93120, Note_on_c, 9, 35, 70
13, 93120, Note_on_c, 9, 51, 70
13, 93170, Note_off_c, 9, 51, 64
13, 93170, Note_off_c, 9, 35, 64
13, 93360, Note_on_c, 9, 42, 90
13, 93360, Note_on_c, 9, 37, 60
13, 93360, Note_on_c, 9, 51, 90
13, 93410, Note_off_c, 9, 51, 64
13, 93410, Note_off_c, 9, 37, 64
13, 93410, Note_off_c, 9, 42, 64
13, 93536, Note_on_c, 9, 38, 50
13, 93536, Note_on_c, 9, 51, 70
13, 93586, Note_off_c, 9, 51, 64
13, 93586, Note_off_c, 9, 38, 64
13, 93600, Note_on_c, 9, 51, 80
13, 93650, Note_off_c, 9, 51, 64
13, 93776, Note_on_c, 9, 38, 60
13, 93826, Note_off_c, 9, 38, 64
13, 93840, Note_on_c, 9, 42, 100
13, 93840, Note_on_c, 9, 37, 100
13, 93840, Note_on_c, 9, 51, 90
13, 93890, Note_off_c, 9, 51, 64
13, 93890, Note_off_c, 9, 37, 64
13, 93890, Note_off_c, 9, 42, 64
13, 94016, Note_on_c, 9, 35, 60
13, 94016, Note_on_c, 9, 38, 70
13, 94016, Note_on_c, 9, 51, 70
13, 94066, Note_off_c, 9, 51, 64
13, 94066, Note_off_c, 9, 38, 64
13, 94066, Note_off_c, 9, 35, 64
13, 94080, Note_on_c, 9, 35, 60
13, 94080, Note_on_c, 9, 49, 40
13, 94130, Note_off_c, 9, 49, 64
13, 94130, Note_off_c, 9, 35, 64
13, 94252, Note_on_c, 9, 38, 50
13, 94302, Note_off_c, 9, 38, 64
13, 94320, Note_on_c, 9, 42, 80
13, 94370, Note_off_c, 9, 42, 64
13, 94492, Note_on_c, 9, 38, 40
13, 94542, Note_off_c, 9, 38, 64
13, 94560, Note_on_c, 9, 42, 70
13, 94610, Note_off_c, 9, 42, 64
13, 94732, Note_on_c, 9, 38, 60
13, 94782, Note_off_c, 9, 38, 64
13, 94800, Note_on_c, 9, 46, 80
13, 94850, Note_off_c, 9, 46, 64
13, 94880, Note_on_c, 9, 38, 60
13, 94930, Note_off_c, 9, 38, 64
13, 94972, Note_on_c, 9, 38, 50
13, 95022, Note_off_c, 9, 38, 64
13, 95040, Note_on_c, 9, 35, 70
13, 95040, Note_on_c, 9, 38, 70
13, 95090, Note_off_c, 9, 38, 64
13, 95090, Note_off_c, 9, 35, 64
13, 95200, Note_on_c, 9, 38, 30
13, 95250, Note_off_c, 9, 38, 64
13, 95280, Note_on_c, 9, 38, 60
13, 95330, Note_off_c, 9, 38, 64
13, 95440, Note_on_c, 9, 35, 50
13, 95440, Note_on_c, 9, 38, 70
13, 95490, Note_off_c, 9, 38, 64
13, 95490, Note_off_c, 9, 35, 64
13, 95600, Note_on_c, 9, 38, 20
13, 95650, Note_off_c, 9, 38, 64
13, 95680, Note_on_c, 9, 38, 25
13, 95730, Note_off_c, 9, 38, 64
13, 95760, Note_on_c, 9, 35, 80
13, 95760, Note_on_c, 9, 38, 60
13, 95810, Note_off_c, 9, 38, 64
13, 95810, Note_off_c, 9, 35, 64
13, 95810, End_track
14, 0, Start_track
14, 0, End_track
15, 0, Start_track
15, 0, Title_t, "All instr./Roland Sound Canvas"
15, 0, End_track
16, 0, Start_track
16, 0, Title_t, "Freely distr. / GMidi type 1"
16, 0, End_track
17, 0, Start_track
17, 0, Title_t, "Contact MEL68@AOL.COM"
17, 0, End_track
18, 0, Start_track
18, 0, Title_t, "Run time 2:41 / Ez listening"
18, 0, End_track
19, 0, Start_track
19, 0, Title_t, "            3 / 29 / 97"
19, 0, End_track
0, 0, End_of_file
