0, 0, Header, 1, 31, 384
1, 0, Start_track
1, 0, SMPTE_offset, 96, 0, 3, 0, 0
1, 0, Time_signature, 4, 2, 24, 8
1, 0, Key_signature, 0, "major"
1, 0, Tempo, 500000
1, 0, End_track
2, 0, Start_track
2, 0, MIDI_port, 0
2, 0, Title_t, "Chorus Harmony"
2, 0, Program_c, 11, 62
2, 0, Control_c, 11, 7, 100
2, 0, Control_c, 11, 91, 40
2, 0, Control_c, 11, 93, 0
2, 88128, Note_on_c, 11, 71, 104
2, 88512, Note_on_c, 11, 69, 113
2, 88548, Note_on_c, 11, 71, 0
2, 88756, Note_on_c, 11, 69, 0
2, 88896, Note_on_c, 11, 69, 113
2, 89280, Note_on_c, 11, 67, 100
2, 89308, Note_on_c, 11, 69, 0
2, 89332, Channel_aftertouch_c, 11, 4
2, 89348, Channel_aftertouch_c, 11, 26
2, 89372, Channel_aftertouch_c, 11, 20
2, 89384, Channel_aftertouch_c, 11, 16
2, 89412, Channel_aftertouch_c, 11, 19
2, 89428, Channel_aftertouch_c, 11, 21
2, 89440, Channel_aftertouch_c, 11, 22
2, 89452, Channel_aftertouch_c, 11, 23
2, 89476, Channel_aftertouch_c, 11, 18
2, 89492, Channel_aftertouch_c, 11, 14
2, 89504, Channel_aftertouch_c, 11, 10
2, 89520, Channel_aftertouch_c, 11, 3
2, 89532, Channel_aftertouch_c, 11, 0
2, 89552, Note_on_c, 11, 67, 0
2, 89664, Note_on_c, 11, 62, 104
2, 89760, Note_on_c, 11, 60, 92
2, 89768, Note_on_c, 11, 62, 0
2, 89856, Note_on_c, 11, 59, 100
2, 89888, Note_on_c, 11, 60, 0
2, 90416, Channel_aftertouch_c, 11, 2
2, 90432, Channel_aftertouch_c, 11, 2
2, 90448, Channel_aftertouch_c, 11, 0
2, 91248, Note_on_c, 11, 59, 0
2, 110016, Note_on_c, 11, 69, 92
2, 110208, Note_on_c, 11, 66, 104
2, 110232, Note_on_c, 11, 69, 0
2, 110276, Note_on_c, 11, 66, 0
2, 110400, Note_on_c, 11, 69, 96
2, 110784, Note_on_c, 11, 64, 108
2, 110816, Note_on_c, 11, 69, 0
2, 112128, Note_on_c, 11, 64, 0
2, 146496, Note_on_c, 11, 73, 104
2, 146880, Note_on_c, 11, 71, 113
2, 146916, Note_on_c, 11, 73, 0
2, 147124, Note_on_c, 11, 71, 0
2, 147264, Note_on_c, 11, 71, 113
2, 147648, Note_on_c, 11, 69, 100
2, 147676, Note_on_c, 11, 71, 0
2, 147700, Channel_aftertouch_c, 11, 4
2, 147716, Channel_aftertouch_c, 11, 26
2, 147740, Channel_aftertouch_c, 11, 20
2, 147752, Channel_aftertouch_c, 11, 16
2, 147780, Channel_aftertouch_c, 11, 19
2, 147796, Channel_aftertouch_c, 11, 21
2, 147808, Channel_aftertouch_c, 11, 22
2, 147820, Channel_aftertouch_c, 11, 23
2, 147844, Channel_aftertouch_c, 11, 18
2, 147860, Channel_aftertouch_c, 11, 14
2, 147872, Channel_aftertouch_c, 11, 10
2, 147888, Channel_aftertouch_c, 11, 3
2, 147900, Channel_aftertouch_c, 11, 0
2, 147920, Note_on_c, 11, 69, 0
2, 148032, Note_on_c, 11, 64, 104
2, 148128, Note_on_c, 11, 62, 92
2, 148136, Note_on_c, 11, 64, 0
2, 148224, Note_on_c, 11, 61, 100
2, 148256, Note_on_c, 11, 62, 0
2, 148784, Channel_aftertouch_c, 11, 2
2, 148800, Channel_aftertouch_c, 11, 2
2, 148816, Channel_aftertouch_c, 11, 0
2, 149132, Note_on_c, 11, 61, 0
2, 149132, End_track
3, 0, Start_track
3, 0, MIDI_port, 0
3, 0, Title_t, "Chorus Melody"
3, 0, Program_c, 11, 62
3, 0, Control_c, 11, 7, 100
3, 0, Control_c, 11, 91, 40
3, 0, Control_c, 11, 93, 0
3, 36864, Control_c, 11, 7, 120
3, 39360, Note_on_c, 11, 67, 96
3, 39544, Note_on_c, 11, 67, 0
3, 39552, Note_on_c, 11, 66, 113
3, 40128, Note_on_c, 11, 64, 92
3, 40144, Note_on_c, 11, 66, 0
3, 40188, Channel_aftertouch_c, 11, 6
3, 40200, Channel_aftertouch_c, 11, 1
3, 40216, Channel_aftertouch_c, 11, 0
3, 40252, Channel_aftertouch_c, 11, 5
3, 40264, Channel_aftertouch_c, 11, 9
3, 40280, Channel_aftertouch_c, 11, 12
3, 40292, Channel_aftertouch_c, 11, 14
3, 40320, Note_on_c, 11, 59, 108
3, 40320, Channel_aftertouch_c, 11, 4
3, 40332, Channel_aftertouch_c, 11, 0
3, 40336, Note_on_c, 11, 64, 0
3, 40416, Note_on_c, 11, 57, 108
3, 40436, Note_on_c, 11, 59, 0
3, 40512, Note_on_c, 11, 55, 100
3, 40512, Channel_aftertouch_c, 11, 23
3, 40528, Channel_aftertouch_c, 11, 0
3, 40548, Control_c, 11, 7, 120
3, 40568, Control_c, 11, 7, 120
3, 40576, Note_on_c, 11, 57, 0
3, 40588, Control_c, 11, 7, 120
3, 40608, Control_c, 11, 7, 120
3, 40624, Control_c, 11, 7, 120
3, 40644, Control_c, 11, 7, 120
3, 40664, Control_c, 11, 7, 120
3, 40684, Control_c, 11, 7, 120
3, 40704, Control_c, 11, 7, 120
3, 40720, Control_c, 11, 7, 120
3, 40740, Control_c, 11, 7, 120
3, 40760, Control_c, 11, 7, 120
3, 40780, Control_c, 11, 7, 120
3, 40800, Control_c, 11, 7, 120
3, 40816, Control_c, 11, 7, 120
3, 40836, Control_c, 11, 7, 120
3, 40856, Control_c, 11, 7, 120
3, 40876, Control_c, 11, 7, 120
3, 40896, Control_c, 11, 7, 121
3, 40912, Control_c, 11, 7, 121
3, 40932, Control_c, 11, 7, 121
3, 40952, Control_c, 11, 7, 121
3, 40972, Control_c, 11, 7, 120
3, 40992, Control_c, 11, 7, 120
3, 41008, Control_c, 11, 7, 119
3, 41028, Control_c, 11, 7, 119
3, 41048, Control_c, 11, 7, 119
3, 41068, Control_c, 11, 7, 119
3, 41088, Control_c, 11, 7, 119
3, 41104, Control_c, 11, 7, 119
3, 41124, Control_c, 11, 7, 119
3, 41144, Control_c, 11, 7, 118
3, 41164, Control_c, 11, 7, 118
3, 41184, Control_c, 11, 7, 117
3, 41200, Control_c, 11, 7, 116
3, 41220, Control_c, 11, 7, 115
3, 41240, Control_c, 11, 7, 115
3, 41260, Control_c, 11, 7, 114
3, 41280, Control_c, 11, 7, 113
3, 41296, Control_c, 11, 7, 112
3, 41316, Control_c, 11, 7, 110
3, 41336, Control_c, 11, 7, 109
3, 41356, Control_c, 11, 7, 108
3, 41376, Control_c, 11, 7, 107
3, 41392, Control_c, 11, 7, 106
3, 41412, Control_c, 11, 7, 106
3, 41432, Control_c, 11, 7, 105
3, 41452, Control_c, 11, 7, 104
3, 41472, Control_c, 11, 7, 103
3, 41488, Control_c, 11, 7, 102
3, 41508, Control_c, 11, 7, 100
3, 41528, Control_c, 11, 7, 98
3, 41548, Control_c, 11, 7, 96
3, 41568, Control_c, 11, 7, 95
3, 41584, Control_c, 11, 7, 93
3, 41604, Control_c, 11, 7, 93
3, 41624, Control_c, 11, 7, 90
3, 41644, Control_c, 11, 7, 89
3, 41664, Control_c, 11, 7, 88
3, 41680, Control_c, 11, 7, 85
3, 41700, Control_c, 11, 7, 83
3, 41720, Control_c, 11, 7, 83
3, 41740, Control_c, 11, 7, 79
3, 41760, Control_c, 11, 7, 68
3, 41776, Control_c, 11, 7, 66
3, 41796, Control_c, 11, 7, 61
3, 41816, Control_c, 11, 7, 58
3, 41836, Control_c, 11, 7, 56
3, 41856, Control_c, 11, 7, 54
3, 41872, Control_c, 11, 7, 51
3, 41892, Control_c, 11, 7, 48
3, 41912, Control_c, 11, 7, 37
3, 41932, Control_c, 11, 7, 12
3, 41952, Control_c, 11, 7, 9
3, 41960, Note_on_c, 11, 55, 0
3, 41968, Control_c, 11, 7, 6
3, 41988, Control_c, 11, 7, 4
3, 42124, Control_c, 11, 7, 120
3, 42816, Note_on_c, 11, 59, 100
3, 42888, Note_on_c, 11, 59, 0
3, 43024, Note_on_c, 11, 59, 91
3, 43192, Note_on_c, 11, 61, 96
3, 43208, Note_on_c, 11, 59, 0
3, 43296, Note_on_c, 11, 61, 0
3, 43392, Note_on_c, 11, 61, 99
3, 43680, Note_on_c, 11, 59, 88
3, 43696, Note_on_c, 11, 61, 0
3, 43732, Note_on_c, 11, 57, 88
3, 43756, Note_on_c, 11, 59, 0
3, 43776, Control_c, 11, 7, 120
3, 43792, Control_c, 11, 7, 120
3, 43812, Control_c, 11, 7, 120
3, 43832, Control_c, 11, 7, 119
3, 43852, Control_c, 11, 7, 119
3, 43872, Control_c, 11, 7, 119
3, 43888, Control_c, 11, 7, 118
3, 43908, Control_c, 11, 7, 118
3, 43928, Control_c, 11, 7, 118
3, 43948, Control_c, 11, 7, 117
3, 43968, Control_c, 11, 7, 117
3, 43984, Control_c, 11, 7, 116
3, 44004, Control_c, 11, 7, 116
3, 44024, Control_c, 11, 7, 115
3, 44044, Control_c, 11, 7, 115
3, 44064, Control_c, 11, 7, 115
3, 44080, Control_c, 11, 7, 114
3, 44100, Control_c, 11, 7, 114
3, 44108, Channel_aftertouch_c, 11, 3
3, 44120, Control_c, 11, 7, 113
3, 44140, Control_c, 11, 7, 113
3, 44148, Channel_aftertouch_c, 11, 1
3, 44160, Control_c, 11, 7, 113
3, 44160, Channel_aftertouch_c, 11, 0
3, 44176, Control_c, 11, 7, 113
3, 44196, Control_c, 11, 7, 112
3, 44200, Channel_aftertouch_c, 11, 2
3, 44212, Channel_aftertouch_c, 11, 4
3, 44216, Control_c, 11, 7, 112
3, 44228, Channel_aftertouch_c, 11, 5
3, 44236, Control_c, 11, 7, 112
3, 44240, Channel_aftertouch_c, 11, 3
3, 44256, Control_c, 11, 7, 111
3, 44256, Channel_aftertouch_c, 11, 0
3, 44272, Control_c, 11, 7, 111
3, 44292, Control_c, 11, 7, 111
3, 44312, Control_c, 11, 7, 110
3, 44332, Control_c, 11, 7, 110
3, 44352, Control_c, 11, 7, 109
3, 44368, Control_c, 11, 7, 106
3, 44388, Control_c, 11, 7, 105
3, 44408, Control_c, 11, 7, 103
3, 44428, Control_c, 11, 7, 102
3, 44448, Control_c, 11, 7, 101
3, 44464, Control_c, 11, 7, 101
3, 44484, Control_c, 11, 7, 100
3, 44504, Control_c, 11, 7, 99
3, 44524, Control_c, 11, 7, 98
3, 44544, Control_c, 11, 7, 97
3, 44560, Control_c, 11, 7, 96
3, 44580, Control_c, 11, 7, 94
3, 44600, Control_c, 11, 7, 93
3, 44620, Control_c, 11, 7, 92
3, 44640, Control_c, 11, 7, 90
3, 44656, Control_c, 11, 7, 89
3, 44676, Control_c, 11, 7, 89
3, 44680, Channel_aftertouch_c, 11, 2
3, 44692, Channel_aftertouch_c, 11, 4
3, 44696, Control_c, 11, 7, 87
3, 44716, Control_c, 11, 7, 66
3, 44716, Channel_aftertouch_c, 11, 2
3, 44736, Control_c, 11, 7, 64
3, 44752, Control_c, 11, 7, 62
3, 44768, Channel_aftertouch_c, 11, 4
3, 44772, Control_c, 11, 7, 61
3, 44780, Channel_aftertouch_c, 11, 5
3, 44792, Control_c, 11, 7, 60
3, 44792, Channel_aftertouch_c, 11, 6
3, 44812, Control_c, 11, 7, 59
3, 44816, Channel_aftertouch_c, 11, 0
3, 44832, Control_c, 11, 7, 58
3, 44848, Control_c, 11, 7, 44
3, 44864, Note_on_c, 11, 57, 0
3, 44868, Control_c, 11, 7, 55
3, 45252, Control_c, 11, 7, 120
3, 45892, Note_on_c, 11, 59, 96
3, 46064, Note_on_c, 11, 59, 0
3, 46064, Note_on_c, 11, 57, 88
3, 46152, Note_on_c, 11, 57, 0
3, 46260, Note_on_c, 11, 57, 85
3, 46308, Note_on_c, 11, 59, 88
3, 46332, Note_on_c, 11, 57, 0
3, 46848, Control_c, 11, 7, 120
3, 46864, Control_c, 11, 7, 120
3, 46884, Control_c, 11, 7, 120
3, 46904, Control_c, 11, 7, 120
3, 46924, Control_c, 11, 7, 119
3, 46944, Control_c, 11, 7, 119
3, 46960, Control_c, 11, 7, 119
3, 46980, Control_c, 11, 7, 119
3, 47020, Control_c, 11, 7, 119
3, 47040, Control_c, 11, 7, 119
3, 47056, Control_c, 11, 7, 119
3, 47076, Control_c, 11, 7, 119
3, 47096, Control_c, 11, 7, 118
3, 47116, Control_c, 11, 7, 118
3, 47136, Control_c, 11, 7, 118
3, 47152, Control_c, 11, 7, 118
3, 47172, Control_c, 11, 7, 118
3, 47192, Control_c, 11, 7, 117
3, 47212, Control_c, 11, 7, 117
3, 47232, Control_c, 11, 7, 116
3, 47248, Control_c, 11, 7, 116
3, 47268, Control_c, 11, 7, 115
3, 47288, Control_c, 11, 7, 115
3, 47308, Control_c, 11, 7, 113
3, 47328, Control_c, 11, 7, 112
3, 47344, Control_c, 11, 7, 112
3, 47364, Control_c, 11, 7, 110
3, 47384, Control_c, 11, 7, 109
3, 47404, Control_c, 11, 7, 107
3, 47424, Control_c, 11, 7, 106
3, 47440, Control_c, 11, 7, 106
3, 47460, Control_c, 11, 7, 105
3, 47480, Control_c, 11, 7, 104
3, 47500, Control_c, 11, 7, 103
3, 47520, Control_c, 11, 7, 102
3, 47536, Control_c, 11, 7, 101
3, 47556, Control_c, 11, 7, 99
3, 47576, Control_c, 11, 7, 98
3, 47596, Control_c, 11, 7, 97
3, 47616, Control_c, 11, 7, 89
3, 47632, Control_c, 11, 7, 92
3, 47652, Control_c, 11, 7, 90
3, 47672, Control_c, 11, 7, 89
3, 47692, Control_c, 11, 7, 87
3, 47712, Control_c, 11, 7, 86
3, 47728, Control_c, 11, 7, 76
3, 47748, Control_c, 11, 7, 76
3, 47768, Control_c, 11, 7, 74
3, 47788, Control_c, 11, 7, 72
3, 47808, Control_c, 11, 7, 70
3, 47808, Channel_aftertouch_c, 11, 2
3, 47820, Channel_aftertouch_c, 11, 2
3, 47824, Control_c, 11, 7, 68
3, 47832, Channel_aftertouch_c, 11, 3
3, 47844, Control_c, 11, 7, 67
3, 47848, Channel_aftertouch_c, 11, 5
3, 47860, Channel_aftertouch_c, 11, 6
3, 47864, Control_c, 11, 7, 65
3, 47884, Control_c, 11, 7, 63
3, 47896, Channel_aftertouch_c, 11, 1
3, 47904, Control_c, 11, 7, 61
3, 47908, Channel_aftertouch_c, 11, 0
3, 47916, Note_on_c, 11, 59, 0
3, 47920, Control_c, 11, 7, 54
3, 47940, Control_c, 11, 7, 53
3, 47960, Control_c, 11, 7, 50
3, 47980, Control_c, 11, 7, 47
3, 48000, Control_c, 11, 7, 40
3, 48016, Control_c, 11, 7, 33
3, 48384, Control_c, 11, 7, 120
3, 48572, Note_on_c, 11, 57, 99
3, 48572, Channel_aftertouch_c, 11, 23
3, 48584, Channel_aftertouch_c, 11, 0
3, 48756, Note_on_c, 11, 55, 91
3, 48760, Note_on_c, 11, 57, 0
3, 48848, Note_on_c, 11, 55, 0
3, 48984, Note_on_c, 11, 57, 96
3, 49008, Note_on_c, 11, 59, 96
3, 49028, Channel_aftertouch_c, 11, 25
3, 49040, Channel_aftertouch_c, 11, 0
3, 49056, Note_on_c, 11, 57, 0
3, 49072, Channel_aftertouch_c, 11, 6
3, 49084, Channel_aftertouch_c, 11, 2
3, 49096, Channel_aftertouch_c, 11, 0
3, 49536, Note_on_c, 11, 59, 0
3, 76224, Note_on_c, 11, 67, 110
3, 76416, Note_on_c, 11, 66, 110
3, 76428, Note_on_c, 11, 67, 0
3, 76992, Note_on_c, 11, 64, 97
3, 77004, Note_on_c, 11, 66, 0
3, 77044, Channel_aftertouch_c, 11, 2
3, 77056, Channel_aftertouch_c, 11, 0
3, 77112, Note_on_c, 11, 64, 0
3, 77184, Note_on_c, 11, 59, 97
3, 77280, Note_on_c, 11, 57, 104
3, 77296, Note_on_c, 11, 59, 0
3, 77376, Note_on_c, 11, 55, 97
3, 77412, Note_on_c, 11, 57, 0
3, 79088, Note_on_c, 11, 55, 0
3, 79680, Note_on_c, 11, 59, 89
3, 79736, Note_on_c, 11, 59, 0
3, 79872, Note_on_c, 11, 59, 102
3, 80088, Note_on_c, 11, 59, 0
3, 80100, Note_on_c, 11, 61, 92
3, 80244, Note_on_c, 11, 61, 0
3, 80256, Note_on_c, 11, 61, 110
3, 80508, Note_on_c, 11, 61, 0
3, 80544, Note_on_c, 11, 59, 97
3, 80632, Note_on_c, 11, 59, 0
3, 80640, Note_on_c, 11, 57, 119
3, 82484, Note_on_c, 11, 57, 0
3, 82748, Note_on_c, 11, 59, 119
3, 82924, Note_on_c, 11, 59, 0
3, 82944, Note_on_c, 11, 57, 105
3, 83008, Note_on_c, 11, 57, 0
3, 83116, Note_on_c, 11, 57, 124
3, 83160, Note_on_c, 11, 59, 115
3, 83184, Note_on_c, 11, 57, 0
3, 85256, Note_on_c, 11, 59, 0
3, 85460, Note_on_c, 11, 57, 115
3, 85592, Note_on_c, 11, 57, 0
3, 85636, Note_on_c, 11, 55, 110
3, 85728, Note_on_c, 11, 55, 0
3, 85824, Note_on_c, 11, 57, 115
3, 85880, Note_on_c, 11, 59, 119
3, 85888, Note_on_c, 11, 57, 0
3, 87792, Note_on_c, 11, 59, 0
3, 88128, Note_on_c, 11, 67, 119
3, 88512, Note_on_c, 11, 66, 127
3, 88548, Note_on_c, 11, 67, 0
3, 88756, Note_on_c, 11, 66, 0
3, 88896, Note_on_c, 11, 66, 127
3, 89280, Note_on_c, 11, 64, 115
3, 89308, Note_on_c, 11, 66, 0
3, 89332, Channel_aftertouch_c, 11, 4
3, 89348, Channel_aftertouch_c, 11, 26
3, 89372, Channel_aftertouch_c, 11, 20
3, 89384, Channel_aftertouch_c, 11, 16
3, 89412, Channel_aftertouch_c, 11, 19
3, 89428, Channel_aftertouch_c, 11, 21
3, 89440, Channel_aftertouch_c, 11, 22
3, 89452, Channel_aftertouch_c, 11, 23
3, 89476, Channel_aftertouch_c, 11, 18
3, 89492, Channel_aftertouch_c, 11, 14
3, 89504, Channel_aftertouch_c, 11, 10
3, 89520, Channel_aftertouch_c, 11, 3
3, 89532, Channel_aftertouch_c, 11, 0
3, 89552, Note_on_c, 11, 64, 0
3, 89664, Note_on_c, 11, 59, 119
3, 89760, Note_on_c, 11, 57, 105
3, 89768, Note_on_c, 11, 59, 0
3, 89856, Note_on_c, 11, 55, 115
3, 89888, Note_on_c, 11, 57, 0
3, 90416, Channel_aftertouch_c, 11, 2
3, 90432, Channel_aftertouch_c, 11, 2
3, 90448, Channel_aftertouch_c, 11, 0
3, 90624, Control_c, 11, 7, 120
3, 90640, Control_c, 11, 7, 120
3, 90660, Control_c, 11, 7, 119
3, 90680, Control_c, 11, 7, 119
3, 90700, Control_c, 11, 7, 119
3, 90720, Control_c, 11, 7, 119
3, 90736, Control_c, 11, 7, 119
3, 90756, Control_c, 11, 7, 119
3, 90776, Control_c, 11, 7, 119
3, 90796, Control_c, 11, 7, 118
3, 90816, Control_c, 11, 7, 118
3, 90832, Control_c, 11, 7, 118
3, 90852, Control_c, 11, 7, 118
3, 90872, Control_c, 11, 7, 118
3, 90892, Control_c, 11, 7, 118
3, 90912, Control_c, 11, 7, 118
3, 90928, Control_c, 11, 7, 118
3, 90948, Control_c, 11, 7, 118
3, 90968, Control_c, 11, 7, 117
3, 90988, Control_c, 11, 7, 117
3, 91008, Control_c, 11, 7, 116
3, 91024, Control_c, 11, 7, 114
3, 91044, Control_c, 11, 7, 114
3, 91064, Control_c, 11, 7, 114
3, 91084, Control_c, 11, 7, 113
3, 91104, Control_c, 11, 7, 113
3, 91120, Control_c, 11, 7, 113
3, 91140, Control_c, 11, 7, 111
3, 91160, Control_c, 11, 7, 110
3, 91180, Control_c, 11, 7, 109
3, 91200, Control_c, 11, 7, 108
3, 91216, Control_c, 11, 7, 107
3, 91236, Control_c, 11, 7, 106
3, 91256, Control_c, 11, 7, 104
3, 91276, Control_c, 11, 7, 103
3, 91296, Control_c, 11, 7, 102
3, 91312, Control_c, 11, 7, 100
3, 91332, Control_c, 11, 7, 98
3, 91352, Control_c, 11, 7, 96
3, 91372, Control_c, 11, 7, 95
3, 91392, Control_c, 11, 7, 95
3, 91408, Control_c, 11, 7, 93
3, 91428, Control_c, 11, 7, 92
3, 91448, Control_c, 11, 7, 91
3, 91468, Control_c, 11, 7, 90
3, 91488, Control_c, 11, 7, 89
3, 91504, Control_c, 11, 7, 87
3, 91524, Control_c, 11, 7, 87
3, 91532, Note_on_c, 11, 55, 0
3, 91544, Control_c, 11, 7, 84
3, 91564, Control_c, 11, 7, 84
3, 91584, Control_c, 11, 7, 83
3, 91600, Control_c, 11, 7, 81
3, 91620, Control_c, 11, 7, 80
3, 91640, Control_c, 11, 7, 75
3, 91776, Control_c, 11, 7, 120
3, 91968, Note_on_c, 11, 59, 119
3, 92144, Note_on_c, 11, 59, 0
3, 92160, Note_on_c, 11, 59, 97
3, 92304, Note_on_c, 11, 59, 0
3, 92352, Note_on_c, 11, 61, 119
3, 92512, Note_on_c, 11, 61, 0
3, 92544, Note_on_c, 11, 61, 110
3, 92816, Note_on_c, 11, 61, 0
3, 92832, Note_on_c, 11, 59, 94
3, 92928, Note_on_c, 11, 57, 115
3, 92980, Note_on_c, 11, 59, 0
3, 94208, Note_on_c, 11, 57, 0
3, 94464, Note_on_c, 11, 59, 124
3, 94656, Note_on_c, 11, 62, 115
3, 94716, Note_on_c, 11, 59, 0
3, 94720, Channel_aftertouch_c, 11, 22
3, 94736, Channel_aftertouch_c, 11, 0
3, 94828, Note_on_c, 11, 62, 0
3, 94944, Note_on_c, 11, 62, 115
3, 95080, Note_on_c, 11, 62, 0
3, 95220, Note_on_c, 11, 62, 124
3, 95280, Note_on_c, 11, 64, 83
3, 95316, Note_on_c, 11, 62, 0
3, 95316, Channel_aftertouch_c, 11, 7
3, 95328, Channel_aftertouch_c, 11, 14
3, 95340, Channel_aftertouch_c, 11, 17
3, 95352, Channel_aftertouch_c, 11, 14
3, 95368, Channel_aftertouch_c, 11, 7
3, 95380, Channel_aftertouch_c, 11, 0
3, 95424, Note_on_c, 11, 62, 115
3, 95448, Note_on_c, 11, 64, 0
3, 95584, Note_on_c, 11, 62, 0
3, 95712, Note_on_c, 11, 62, 119
3, 95848, Note_on_c, 11, 62, 0
3, 96000, Note_on_c, 11, 62, 127
3, 96028, Channel_aftertouch_c, 11, 83
3, 96044, Channel_aftertouch_c, 11, 0
3, 96056, Channel_aftertouch_c, 11, 13
3, 96072, Channel_aftertouch_c, 11, 6
3, 96084, Channel_aftertouch_c, 11, 0
3, 96268, Channel_aftertouch_c, 11, 41
3, 96280, Channel_aftertouch_c, 11, 38
3, 96296, Note_on_c, 11, 62, 0
3, 96296, Channel_aftertouch_c, 11, 0
3, 96576, Note_on_c, 11, 59, 102
3, 96712, Note_on_c, 11, 59, 0
3, 96768, Note_on_c, 11, 59, 127
3, 96936, Note_on_c, 11, 59, 0
3, 97020, Channel_aftertouch_c, 11, 10
3, 97024, Note_on_c, 11, 59, 119
3, 97036, Channel_aftertouch_c, 11, 3
3, 97052, Channel_aftertouch_c, 11, 0
3, 97168, Note_on_c, 11, 59, 0
3, 97280, Note_on_c, 11, 59, 127
3, 97404, Note_on_c, 11, 59, 0
3, 97536, Note_on_c, 11, 59, 127
3, 97792, Note_on_c, 11, 57, 127
3, 97804, Note_on_c, 11, 59, 0
3, 97916, Note_on_c, 11, 57, 0
3, 98032, Channel_aftertouch_c, 11, 82
3, 98044, Channel_aftertouch_c, 11, 0
3, 98048, Note_on_c, 11, 55, 119
3, 98056, Note_on_c, 11, 57, 124
3, 98108, Note_on_c, 11, 55, 0
3, 98276, Note_on_c, 11, 57, 0
3, 98304, Note_on_c, 11, 55, 113
3, 98624, Note_on_c, 11, 55, 0
3, 134612, Note_on_c, 11, 81, 100
3, 134784, Note_on_c, 11, 81, 0
3, 134788, Note_on_c, 11, 80, 113
3, 135360, Note_on_c, 11, 78, 127
3, 135364, Note_on_c, 11, 80, 0
3, 135412, Channel_aftertouch_c, 11, 2
3, 135424, Channel_aftertouch_c, 11, 0
3, 135480, Note_on_c, 11, 78, 0
3, 135552, Note_on_c, 11, 73, 127
3, 135648, Note_on_c, 11, 71, 127
3, 135664, Note_on_c, 11, 73, 0
3, 135744, Note_on_c, 11, 69, 127
3, 135780, Note_on_c, 11, 71, 0
3, 137164, Control_c, 11, 7, 120
3, 137184, Control_c, 11, 7, 120
3, 137200, Control_c, 11, 7, 120
3, 137220, Control_c, 11, 7, 119
3, 137240, Control_c, 11, 7, 118
3, 137260, Control_c, 11, 7, 117
3, 137280, Control_c, 11, 7, 118
3, 137296, Control_c, 11, 7, 117
3, 137316, Control_c, 11, 7, 116
3, 137336, Control_c, 11, 7, 115
3, 137356, Control_c, 11, 7, 114
3, 137376, Control_c, 11, 7, 114
3, 137392, Control_c, 11, 7, 113
3, 137412, Control_c, 11, 7, 112
3, 137432, Control_c, 11, 7, 111
3, 137452, Control_c, 11, 7, 110
3, 137472, Control_c, 11, 7, 109
3, 137488, Control_c, 11, 7, 107
3, 137508, Control_c, 11, 7, 106
3, 137528, Control_c, 11, 7, 105
3, 137548, Control_c, 11, 7, 102
3, 137568, Control_c, 11, 7, 101
3, 137584, Control_c, 11, 7, 100
3, 137604, Control_c, 11, 7, 99
3, 137624, Control_c, 11, 7, 98
3, 137644, Control_c, 11, 7, 95
3, 137664, Control_c, 11, 7, 94
3, 137680, Control_c, 11, 7, 92
3, 137700, Control_c, 11, 7, 89
3, 137720, Control_c, 11, 7, 88
3, 137740, Control_c, 11, 7, 83
3, 137760, Control_c, 11, 7, 82
3, 137776, Control_c, 11, 7, 80
3, 137796, Control_c, 11, 7, 79
3, 137816, Control_c, 11, 7, 78
3, 137836, Control_c, 11, 7, 77
3, 137840, Note_on_c, 11, 69, 0
3, 137856, Control_c, 11, 7, 74
3, 137872, Control_c, 11, 7, 72
3, 137892, Control_c, 11, 7, 71
3, 137912, Control_c, 11, 7, 68
3, 137932, Control_c, 11, 7, 66
3, 137988, Control_c, 11, 7, 119
3, 138048, Note_on_c, 11, 73, 120
3, 138176, Note_on_c, 11, 73, 0
3, 138240, Note_on_c, 11, 73, 117
3, 138456, Note_on_c, 11, 73, 0
3, 138468, Note_on_c, 11, 75, 105
3, 138612, Note_on_c, 11, 75, 0
3, 138624, Note_on_c, 11, 75, 126
3, 138876, Note_on_c, 11, 75, 0
3, 138912, Note_on_c, 11, 73, 111
3, 139000, Note_on_c, 11, 73, 0
3, 139008, Note_on_c, 11, 71, 127
3, 139044, Control_c, 11, 7, 120
3, 139064, Control_c, 11, 7, 119
3, 139084, Control_c, 11, 7, 119
3, 139104, Control_c, 11, 7, 119
3, 139120, Control_c, 11, 7, 118
3, 139140, Control_c, 11, 7, 119
3, 139160, Control_c, 11, 7, 121
3, 139180, Control_c, 11, 7, 124
3, 139200, Control_c, 11, 7, 123
3, 139216, Control_c, 11, 7, 123
3, 139236, Control_c, 11, 7, 122
3, 139256, Control_c, 11, 7, 122
3, 139276, Control_c, 11, 7, 121
3, 139296, Control_c, 11, 7, 121
3, 139312, Control_c, 11, 7, 121
3, 139332, Control_c, 11, 7, 120
3, 139352, Control_c, 11, 7, 118
3, 139372, Control_c, 11, 7, 117
3, 139392, Control_c, 11, 7, 117
3, 139408, Control_c, 11, 7, 116
3, 139428, Control_c, 11, 7, 115
3, 139448, Control_c, 11, 7, 114
3, 139468, Control_c, 11, 7, 113
3, 139488, Control_c, 11, 7, 112
3, 139504, Control_c, 11, 7, 111
3, 139524, Control_c, 11, 7, 110
3, 139544, Control_c, 11, 7, 109
3, 139564, Control_c, 11, 7, 108
3, 139584, Control_c, 11, 7, 106
3, 139600, Control_c, 11, 7, 105
3, 139620, Control_c, 11, 7, 103
3, 139640, Control_c, 11, 7, 97
3, 139660, Control_c, 11, 7, 95
3, 139680, Control_c, 11, 7, 92
3, 139696, Control_c, 11, 7, 91
3, 139716, Control_c, 11, 7, 90
3, 139736, Control_c, 11, 7, 89
3, 139756, Control_c, 11, 7, 88
3, 139776, Control_c, 11, 7, 87
3, 139792, Control_c, 11, 7, 85
3, 139812, Control_c, 11, 7, 82
3, 139832, Control_c, 11, 7, 79
3, 139852, Control_c, 11, 7, 75
3, 139872, Control_c, 11, 7, 73
3, 139888, Control_c, 11, 7, 70
3, 139908, Control_c, 11, 7, 68
3, 139928, Control_c, 11, 7, 63
3, 139948, Control_c, 11, 7, 62
3, 139968, Control_c, 11, 7, 60
3, 139984, Control_c, 11, 7, 57
3, 140004, Control_c, 11, 7, 56
3, 140064, Control_c, 11, 7, 52
3, 140352, Note_on_c, 11, 71, 0
3, 140504, Control_c, 11, 7, 120
3, 140736, Note_on_c, 11, 69, 127
3, 140804, Note_on_c, 11, 69, 0
3, 140928, Note_on_c, 11, 69, 124
3, 141120, Note_on_c, 11, 73, 119
3, 141140, Note_on_c, 11, 69, 0
3, 141312, Note_on_c, 11, 71, 119
3, 141328, Note_on_c, 11, 73, 0
3, 141504, Note_on_c, 11, 73, 119
3, 141544, Note_on_c, 11, 71, 0
3, 143440, Note_on_c, 11, 73, 0
3, 143808, Note_on_c, 11, 71, 119
3, 144000, Note_on_c, 11, 69, 124
3, 144004, Note_on_c, 11, 71, 0
3, 144080, Note_on_c, 11, 69, 0
3, 144192, Note_on_c, 11, 71, 124
3, 144384, Note_on_c, 11, 73, 124
3, 144460, Note_on_c, 11, 71, 0
3, 144544, Note_on_c, 11, 73, 0
3, 144576, Note_on_c, 11, 73, 119
3, 146172, Note_on_c, 11, 73, 0
3, 146496, Note_on_c, 11, 81, 115
3, 146880, Note_on_c, 11, 80, 127
3, 146916, Note_on_c, 11, 81, 0
3, 147152, Note_on_c, 11, 80, 0
3, 147264, Note_on_c, 11, 80, 127
3, 147648, Note_on_c, 11, 78, 124
3, 147688, Note_on_c, 11, 80, 0
3, 148032, Note_on_c, 11, 73, 119
3, 148052, Note_on_c, 11, 78, 0
3, 148128, Note_on_c, 11, 73, 0
3, 148128, Note_on_c, 11, 71, 115
3, 148224, Note_on_c, 11, 71, 0
3, 148224, Note_on_c, 11, 69, 110
3, 148548, Channel_aftertouch_c, 11, 2
3, 148560, Channel_aftertouch_c, 11, 6
3, 148576, Channel_aftertouch_c, 11, 11
3, 148592, Channel_aftertouch_c, 11, 15
3, 148604, Channel_aftertouch_c, 11, 16
3, 148620, Channel_aftertouch_c, 11, 17
3, 148636, Channel_aftertouch_c, 11, 21
3, 148648, Channel_aftertouch_c, 11, 23
3, 148664, Channel_aftertouch_c, 11, 23
3, 148692, Channel_aftertouch_c, 11, 24
3, 148708, Channel_aftertouch_c, 11, 25
3, 148720, Channel_aftertouch_c, 11, 26
3, 148736, Channel_aftertouch_c, 11, 27
3, 148752, Channel_aftertouch_c, 11, 28
3, 148764, Channel_aftertouch_c, 11, 28
3, 148776, Channel_aftertouch_c, 11, 29
3, 148792, Channel_aftertouch_c, 11, 29
3, 148876, Channel_aftertouch_c, 11, 30
3, 148888, Channel_aftertouch_c, 11, 30
3, 149472, Note_on_c, 11, 69, 0
3, 150336, Note_on_c, 11, 73, 119
3, 150432, Note_on_c, 11, 76, 102
3, 150448, Note_on_c, 11, 73, 0
3, 150508, Note_on_c, 11, 76, 0
3, 150528, Note_on_c, 11, 76, 105
3, 150704, Note_on_c, 11, 76, 0
3, 150720, Note_on_c, 11, 76, 110
3, 150788, Note_on_c, 11, 76, 0
3, 150816, Note_on_c, 11, 76, 102
3, 150904, Note_on_c, 11, 76, 0
3, 150912, Note_on_c, 11, 76, 115
3, 151032, Note_on_c, 11, 76, 0
3, 151104, Note_on_c, 11, 78, 115
3, 152432, Note_on_c, 11, 78, 0
3, 153024, Note_on_c, 11, 73, 115
3, 153200, Note_on_c, 11, 73, 0
3, 153216, Note_on_c, 11, 76, 108
3, 153408, Note_on_c, 11, 78, 110
3, 153432, Note_on_c, 11, 76, 0
3, 153600, Note_on_c, 11, 76, 110
3, 153632, Note_on_c, 11, 78, 0
3, 153672, Note_on_c, 11, 76, 0
3, 153696, Note_on_c, 11, 76, 113
3, 153912, Note_on_c, 11, 76, 0
3, 153984, Note_on_c, 11, 76, 108
3, 154112, Note_on_c, 11, 76, 0
3, 154176, Note_on_c, 11, 76, 108
3, 154268, Note_on_c, 11, 76, 0
3, 154368, Note_on_c, 11, 76, 101
3, 154520, Note_on_c, 11, 76, 0
3, 154560, Note_on_c, 11, 73, 102
3, 154704, Note_on_c, 11, 73, 0
3, 154752, Note_on_c, 11, 73, 110
3, 154896, Note_on_c, 11, 73, 0
3, 154944, Note_on_c, 11, 73, 110
3, 155088, Note_on_c, 11, 73, 0
3, 155136, Note_on_c, 11, 73, 115
3, 155280, Note_on_c, 11, 73, 0
3, 155328, Note_on_c, 11, 73, 104
3, 155480, Note_on_c, 11, 73, 0
3, 155520, Note_on_c, 11, 73, 105
3, 155608, Note_on_c, 11, 73, 0
3, 155616, Note_on_c, 11, 73, 102
3, 155872, Note_on_c, 11, 73, 0
3, 155904, Note_on_c, 11, 71, 105
3, 156088, Note_on_c, 11, 71, 0
3, 156096, Note_on_c, 11, 69, 119
3, 156448, Note_on_c, 11, 69, 0
3, 156480, Note_on_c, 11, 69, 124
3, 156632, Channel_aftertouch_c, 11, 2
3, 156648, Channel_aftertouch_c, 11, 0
3, 156688, Channel_aftertouch_c, 11, 4
3, 156700, Channel_aftertouch_c, 11, 5
3, 156728, Channel_aftertouch_c, 11, 0
3, 157992, Note_on_c, 11, 69, 0
3, 157992, End_track
4, 0, Start_track
4, 0, MIDI_port, 0
4, 0, Title_t, "Bridge ""C"""
4, 0, Program_c, 10, 3
4, 0, Control_c, 10, 7, 100
4, 0, Control_c, 10, 91, 40
4, 0, Control_c, 10, 93, 0
4, 109056, Control_c, 10, 7, 90
4, 110592, Note_on_c, 10, 76, 104
4, 110592, Note_on_c, 10, 64, 108
4, 110624, Channel_aftertouch_c, 10, 32
4, 110636, Channel_aftertouch_c, 10, 88
4, 110648, Channel_aftertouch_c, 10, 84
4, 110660, Channel_aftertouch_c, 10, 62
4, 110672, Channel_aftertouch_c, 10, 0
4, 110724, Note_on_c, 10, 64, 0
4, 110724, Note_on_c, 10, 76, 0
4, 110976, Note_on_c, 10, 76, 108
4, 110976, Note_on_c, 10, 64, 108
4, 111008, Channel_aftertouch_c, 10, 99
4, 111024, Channel_aftertouch_c, 10, 83
4, 111032, Channel_aftertouch_c, 10, 89
4, 111048, Channel_aftertouch_c, 10, 76
4, 111056, Channel_aftertouch_c, 10, 54
4, 111072, Channel_aftertouch_c, 10, 3
4, 111084, Note_on_c, 10, 64, 0
4, 111084, Channel_aftertouch_c, 10, 0
4, 111108, Note_on_c, 10, 76, 0
4, 111360, Note_on_c, 10, 76, 104
4, 111360, Note_on_c, 10, 64, 108
4, 111392, Channel_aftertouch_c, 10, 50
4, 111404, Channel_aftertouch_c, 10, 82
4, 111416, Channel_aftertouch_c, 10, 79
4, 111432, Channel_aftertouch_c, 10, 58
4, 111440, Channel_aftertouch_c, 10, 15
4, 111452, Channel_aftertouch_c, 10, 0
4, 111488, Note_on_c, 10, 64, 0
4, 111488, Note_on_c, 10, 76, 0
4, 111744, Note_on_c, 10, 64, 108
4, 111744, Note_on_c, 10, 76, 100
4, 111764, Channel_aftertouch_c, 10, 64
4, 111776, Channel_aftertouch_c, 10, 83
4, 111788, Channel_aftertouch_c, 10, 85
4, 111800, Channel_aftertouch_c, 10, 74
4, 111812, Channel_aftertouch_c, 10, 57
4, 111824, Channel_aftertouch_c, 10, 29
4, 111836, Channel_aftertouch_c, 10, 0
4, 111856, Note_on_c, 10, 64, 0
4, 111872, Note_on_c, 10, 76, 0
4, 112128, Note_on_c, 10, 76, 104
4, 112128, Note_on_c, 10, 64, 113
4, 112152, Channel_aftertouch_c, 10, 70
4, 112164, Channel_aftertouch_c, 10, 95
4, 112176, Channel_aftertouch_c, 10, 91
4, 112188, Channel_aftertouch_c, 10, 72
4, 112200, Channel_aftertouch_c, 10, 45
4, 112212, Channel_aftertouch_c, 10, 16
4, 112224, Channel_aftertouch_c, 10, 0
4, 112272, Note_on_c, 10, 64, 0
4, 112276, Note_on_c, 10, 76, 0
4, 112512, Note_on_c, 10, 76, 104
4, 112512, Note_on_c, 10, 64, 104
4, 112548, Channel_aftertouch_c, 10, 84
4, 112556, Channel_aftertouch_c, 10, 92
4, 112568, Channel_aftertouch_c, 10, 80
4, 112584, Channel_aftertouch_c, 10, 59
4, 112592, Channel_aftertouch_c, 10, 5
4, 112608, Channel_aftertouch_c, 10, 0
4, 112632, Note_on_c, 10, 64, 0
4, 112636, Note_on_c, 10, 76, 0
4, 112896, Note_on_c, 10, 64, 104
4, 112896, Note_on_c, 10, 76, 96
4, 112916, Channel_aftertouch_c, 10, 37
4, 112928, Channel_aftertouch_c, 10, 75
4, 112940, Channel_aftertouch_c, 10, 80
4, 112952, Channel_aftertouch_c, 10, 70
4, 112964, Channel_aftertouch_c, 10, 53
4, 112976, Channel_aftertouch_c, 10, 0
4, 113000, Note_on_c, 10, 64, 0
4, 113012, Note_on_c, 10, 76, 0
4, 113280, Note_on_c, 10, 76, 100
4, 113280, Note_on_c, 10, 64, 108
4, 113304, Channel_aftertouch_c, 10, 77
4, 113316, Channel_aftertouch_c, 10, 90
4, 113328, Channel_aftertouch_c, 10, 86
4, 113340, Channel_aftertouch_c, 10, 70
4, 113352, Channel_aftertouch_c, 10, 47
4, 113364, Channel_aftertouch_c, 10, 0
4, 113400, Note_on_c, 10, 64, 0
4, 113408, Note_on_c, 10, 76, 0
4, 113664, Note_on_c, 10, 64, 108
4, 113664, Note_on_c, 10, 76, 100
4, 113696, Channel_aftertouch_c, 10, 87
4, 113708, Channel_aftertouch_c, 10, 92
4, 113720, Channel_aftertouch_c, 10, 80
4, 113736, Channel_aftertouch_c, 10, 62
4, 113744, Channel_aftertouch_c, 10, 38
4, 113756, Channel_aftertouch_c, 10, 0
4, 113812, Note_on_c, 10, 76, 0
4, 113816, Note_on_c, 10, 64, 0
4, 114048, Note_on_c, 10, 76, 104
4, 114048, Note_on_c, 10, 64, 108
4, 114088, Channel_aftertouch_c, 10, 80
4, 114104, Channel_aftertouch_c, 10, 87
4, 114116, Channel_aftertouch_c, 10, 77
4, 114128, Channel_aftertouch_c, 10, 58
4, 114136, Channel_aftertouch_c, 10, 28
4, 114152, Channel_aftertouch_c, 10, 0
4, 114184, Note_on_c, 10, 64, 0
4, 114184, Note_on_c, 10, 76, 0
4, 114432, Note_on_c, 10, 76, 104
4, 114432, Note_on_c, 10, 64, 108
4, 114448, Channel_aftertouch_c, 10, 77
4, 114464, Channel_aftertouch_c, 10, 91
4, 114472, Channel_aftertouch_c, 10, 87
4, 114488, Channel_aftertouch_c, 10, 70
4, 114500, Channel_aftertouch_c, 10, 51
4, 114512, Channel_aftertouch_c, 10, 34
4, 114524, Channel_aftertouch_c, 10, 20
4, 114536, Channel_aftertouch_c, 10, 0
4, 114584, Note_on_c, 10, 64, 0
4, 114584, Note_on_c, 10, 76, 0
4, 114816, Note_on_c, 10, 64, 108
4, 114816, Note_on_c, 10, 76, 104
4, 114840, Channel_aftertouch_c, 10, 71
4, 114856, Channel_aftertouch_c, 10, 100
4, 114868, Channel_aftertouch_c, 10, 102
4, 114876, Channel_aftertouch_c, 10, 83
4, 114892, Channel_aftertouch_c, 10, 61
4, 114900, Channel_aftertouch_c, 10, 22
4, 114912, Channel_aftertouch_c, 10, 0
4, 114936, Note_on_c, 10, 76, 0
4, 114940, Note_on_c, 10, 64, 0
4, 115200, Note_on_c, 10, 64, 104
4, 115200, Note_on_c, 10, 76, 100
4, 115228, Channel_aftertouch_c, 10, 83
4, 115240, Channel_aftertouch_c, 10, 89
4, 115256, Channel_aftertouch_c, 10, 80
4, 115264, Channel_aftertouch_c, 10, 63
4, 115280, Channel_aftertouch_c, 10, 38
4, 115288, Channel_aftertouch_c, 10, 0
4, 115320, Note_on_c, 10, 64, 0
4, 115332, Note_on_c, 10, 76, 0
4, 115584, Note_on_c, 10, 76, 100
4, 115584, Note_on_c, 10, 64, 113
4, 115616, Channel_aftertouch_c, 10, 60
4, 115628, Channel_aftertouch_c, 10, 91
4, 115640, Channel_aftertouch_c, 10, 88
4, 115652, Channel_aftertouch_c, 10, 72
4, 115664, Channel_aftertouch_c, 10, 53
4, 115676, Channel_aftertouch_c, 10, 31
4, 115688, Channel_aftertouch_c, 10, 0
4, 115712, Note_on_c, 10, 64, 0
4, 115720, Note_on_c, 10, 76, 0
4, 115968, Note_on_c, 10, 76, 104
4, 115968, Note_on_c, 10, 64, 104
4, 115996, Channel_aftertouch_c, 10, 33
4, 116008, Channel_aftertouch_c, 10, 89
4, 116016, Channel_aftertouch_c, 10, 87
4, 116032, Channel_aftertouch_c, 10, 72
4, 116044, Channel_aftertouch_c, 10, 59
4, 116056, Channel_aftertouch_c, 10, 51
4, 116080, Channel_aftertouch_c, 10, 50
4, 116088, Channel_aftertouch_c, 10, 45
4, 116100, Channel_aftertouch_c, 10, 26
4, 116112, Channel_aftertouch_c, 10, 0
4, 116132, Note_on_c, 10, 76, 0
4, 116136, Note_on_c, 10, 64, 0
4, 116352, Note_on_c, 10, 76, 104
4, 116352, Note_on_c, 10, 64, 113
4, 116380, Channel_aftertouch_c, 10, 70
4, 116392, Channel_aftertouch_c, 10, 92
4, 116404, Channel_aftertouch_c, 10, 88
4, 116416, Channel_aftertouch_c, 10, 71
4, 116428, Channel_aftertouch_c, 10, 49
4, 116440, Channel_aftertouch_c, 10, 13
4, 116452, Channel_aftertouch_c, 10, 0
4, 116456, Note_on_c, 10, 64, 0
4, 116464, Note_on_c, 10, 76, 0
4, 116736, Note_on_c, 10, 76, 104
4, 116736, Note_on_c, 10, 64, 108
4, 116768, Channel_aftertouch_c, 10, 53
4, 116780, Channel_aftertouch_c, 10, 90
4, 116792, Channel_aftertouch_c, 10, 85
4, 116804, Channel_aftertouch_c, 10, 62
4, 116816, Channel_aftertouch_c, 10, 0
4, 116832, Note_on_c, 10, 64, 0
4, 116840, Note_on_c, 10, 76, 0
4, 117120, Note_on_c, 10, 76, 104
4, 117120, Note_on_c, 10, 64, 113
4, 117144, Channel_aftertouch_c, 10, 85
4, 117156, Channel_aftertouch_c, 10, 88
4, 117168, Channel_aftertouch_c, 10, 69
4, 117180, Channel_aftertouch_c, 10, 45
4, 117192, Channel_aftertouch_c, 10, 0
4, 117232, Note_on_c, 10, 64, 0
4, 117244, Note_on_c, 10, 76, 0
4, 117504, Note_on_c, 10, 76, 100
4, 117504, Note_on_c, 10, 64, 108
4, 117524, Channel_aftertouch_c, 10, 41
4, 117540, Channel_aftertouch_c, 10, 88
4, 117552, Channel_aftertouch_c, 10, 86
4, 117560, Channel_aftertouch_c, 10, 67
4, 117576, Channel_aftertouch_c, 10, 46
4, 117584, Channel_aftertouch_c, 10, 12
4, 117600, Channel_aftertouch_c, 10, 0
4, 117632, Note_on_c, 10, 64, 0
4, 117632, Note_on_c, 10, 76, 0
4, 117888, Note_on_c, 10, 76, 100
4, 117888, Note_on_c, 10, 64, 113
4, 117920, Channel_aftertouch_c, 10, 74
4, 117932, Channel_aftertouch_c, 10, 89
4, 117944, Channel_aftertouch_c, 10, 79
4, 117956, Channel_aftertouch_c, 10, 62
4, 117968, Channel_aftertouch_c, 10, 34
4, 117980, Channel_aftertouch_c, 10, 0
4, 118004, Note_on_c, 10, 64, 0
4, 118020, Note_on_c, 10, 76, 0
4, 118272, Note_on_c, 10, 76, 104
4, 118272, Note_on_c, 10, 64, 108
4, 118308, Channel_aftertouch_c, 10, 90
4, 118320, Channel_aftertouch_c, 10, 100
4, 118332, Channel_aftertouch_c, 10, 86
4, 118344, Channel_aftertouch_c, 10, 65
4, 118356, Channel_aftertouch_c, 10, 37
4, 118368, Channel_aftertouch_c, 10, 14
4, 118380, Channel_aftertouch_c, 10, 7
4, 118392, Channel_aftertouch_c, 10, 0
4, 118416, Note_on_c, 10, 64, 0
4, 118432, Note_on_c, 10, 76, 0
4, 118656, Note_on_c, 10, 76, 108
4, 118656, Note_on_c, 10, 64, 113
4, 118696, Channel_aftertouch_c, 10, 88
4, 118708, Channel_aftertouch_c, 10, 95
4, 118720, Channel_aftertouch_c, 10, 82
4, 118732, Channel_aftertouch_c, 10, 65
4, 118744, Channel_aftertouch_c, 10, 38
4, 118760, Channel_aftertouch_c, 10, 8
4, 118768, Channel_aftertouch_c, 10, 0
4, 118784, Note_on_c, 10, 64, 0
4, 118792, Note_on_c, 10, 76, 0
4, 119040, Note_on_c, 10, 76, 104
4, 119040, Note_on_c, 10, 64, 108
4, 119080, Channel_aftertouch_c, 10, 101
4, 119092, Channel_aftertouch_c, 10, 99
4, 119104, Channel_aftertouch_c, 10, 80
4, 119116, Channel_aftertouch_c, 10, 53
4, 119128, Channel_aftertouch_c, 10, 0
4, 119180, Note_on_c, 10, 64, 0
4, 119180, Note_on_c, 10, 76, 0
4, 119424, Note_on_c, 10, 64, 104
4, 119424, Note_on_c, 10, 76, 100
4, 119452, Channel_aftertouch_c, 10, 98
4, 119464, Channel_aftertouch_c, 10, 89
4, 119476, Channel_aftertouch_c, 10, 93
4, 119488, Channel_aftertouch_c, 10, 82
4, 119500, Channel_aftertouch_c, 10, 63
4, 119512, Channel_aftertouch_c, 10, 37
4, 119520, Channel_aftertouch_c, 10, 0
4, 119572, Note_on_c, 10, 64, 0
4, 119576, Note_on_c, 10, 76, 0
4, 119808, Note_on_c, 10, 76, 104
4, 119808, Note_on_c, 10, 64, 108
4, 119840, Channel_aftertouch_c, 10, 90
4, 119848, Channel_aftertouch_c, 10, 95
4, 119864, Channel_aftertouch_c, 10, 83
4, 119872, Channel_aftertouch_c, 10, 67
4, 119888, Channel_aftertouch_c, 10, 47
4, 119896, Channel_aftertouch_c, 10, 35
4, 119908, Channel_aftertouch_c, 10, 32
4, 119924, Channel_aftertouch_c, 10, 12
4, 119932, Channel_aftertouch_c, 10, 0
4, 119952, Note_on_c, 10, 64, 0
4, 119960, Note_on_c, 10, 76, 0
4, 120192, Note_on_c, 10, 76, 104
4, 120192, Note_on_c, 10, 64, 108
4, 120224, Channel_aftertouch_c, 10, 88
4, 120236, Channel_aftertouch_c, 10, 103
4, 120248, Channel_aftertouch_c, 10, 91
4, 120260, Channel_aftertouch_c, 10, 71
4, 120272, Channel_aftertouch_c, 10, 31
4, 120284, Channel_aftertouch_c, 10, 0
4, 120312, Note_on_c, 10, 64, 0
4, 120336, Note_on_c, 10, 76, 0
4, 120576, Note_on_c, 10, 76, 104
4, 120576, Note_on_c, 10, 64, 113
4, 120608, Channel_aftertouch_c, 10, 82
4, 120616, Channel_aftertouch_c, 10, 100
4, 120632, Channel_aftertouch_c, 10, 87
4, 120640, Channel_aftertouch_c, 10, 64
4, 120652, Channel_aftertouch_c, 10, 0
4, 120696, Note_on_c, 10, 64, 0
4, 120704, Note_on_c, 10, 76, 0
4, 120960, Note_on_c, 10, 76, 104
4, 120960, Note_on_c, 10, 64, 113
4, 120980, Channel_aftertouch_c, 10, 58
4, 120992, Channel_aftertouch_c, 10, 106
4, 121004, Channel_aftertouch_c, 10, 100
4, 121016, Channel_aftertouch_c, 10, 72
4, 121028, Channel_aftertouch_c, 10, 39
4, 121040, Channel_aftertouch_c, 10, 0
4, 121100, Note_on_c, 10, 64, 0
4, 121116, Note_on_c, 10, 76, 0
4, 121344, Note_on_c, 10, 76, 100
4, 121344, Note_on_c, 10, 64, 108
4, 121372, Channel_aftertouch_c, 10, 38
4, 121384, Channel_aftertouch_c, 10, 95
4, 121396, Channel_aftertouch_c, 10, 92
4, 121408, Channel_aftertouch_c, 10, 73
4, 121420, Channel_aftertouch_c, 10, 51
4, 121432, Channel_aftertouch_c, 10, 0
4, 121488, Note_on_c, 10, 64, 0
4, 121500, Note_on_c, 10, 76, 0
4, 121728, Note_on_c, 10, 64, 108
4, 121728, Note_on_c, 10, 76, 108
4, 121736, Channel_aftertouch_c, 10, 116
4, 121744, Channel_aftertouch_c, 10, 85
4, 121756, Channel_aftertouch_c, 10, 100
4, 121768, Channel_aftertouch_c, 10, 91
4, 121780, Channel_aftertouch_c, 10, 67
4, 121792, Channel_aftertouch_c, 10, 37
4, 121804, Channel_aftertouch_c, 10, 0
4, 121876, Note_on_c, 10, 76, 0
4, 121876, Note_on_c, 10, 64, 0
4, 122112, Note_on_c, 10, 76, 104
4, 122112, Note_on_c, 10, 64, 104
4, 122116, Channel_aftertouch_c, 10, 61
4, 122128, Channel_aftertouch_c, 10, 90
4, 122140, Channel_aftertouch_c, 10, 99
4, 122152, Channel_aftertouch_c, 10, 90
4, 122164, Channel_aftertouch_c, 10, 75
4, 122176, Channel_aftertouch_c, 10, 62
4, 122188, Channel_aftertouch_c, 10, 53
4, 122200, Channel_aftertouch_c, 10, 47
4, 122212, Channel_aftertouch_c, 10, 41
4, 122224, Channel_aftertouch_c, 10, 20
4, 122236, Channel_aftertouch_c, 10, 0
4, 122288, Note_on_c, 10, 64, 0
4, 122288, Note_on_c, 10, 76, 0
4, 122496, Note_on_c, 10, 64, 113
4, 122496, Note_on_c, 10, 76, 104
4, 122504, Channel_aftertouch_c, 10, 87
4, 122516, Channel_aftertouch_c, 10, 118
4, 122528, Channel_aftertouch_c, 10, 115
4, 122536, Channel_aftertouch_c, 10, 89
4, 122552, Channel_aftertouch_c, 10, 64
4, 122560, Channel_aftertouch_c, 10, 31
4, 122576, Channel_aftertouch_c, 10, 31
4, 122584, Channel_aftertouch_c, 10, 39
4, 122600, Channel_aftertouch_c, 10, 41
4, 122612, Channel_aftertouch_c, 10, 28
4, 122620, Channel_aftertouch_c, 10, 0
4, 122656, Note_on_c, 10, 76, 0
4, 122668, Note_on_c, 10, 64, 0
4, 122880, Note_on_c, 10, 76, 104
4, 122880, Note_on_c, 10, 64, 108
4, 122912, Channel_aftertouch_c, 10, 32
4, 122924, Channel_aftertouch_c, 10, 88
4, 122936, Channel_aftertouch_c, 10, 84
4, 122948, Channel_aftertouch_c, 10, 62
4, 122960, Channel_aftertouch_c, 10, 0
4, 123012, Note_on_c, 10, 64, 0
4, 123012, Note_on_c, 10, 76, 0
4, 123264, Note_on_c, 10, 76, 108
4, 123264, Note_on_c, 10, 64, 108
4, 123296, Channel_aftertouch_c, 10, 99
4, 123312, Channel_aftertouch_c, 10, 83
4, 123320, Channel_aftertouch_c, 10, 89
4, 123336, Channel_aftertouch_c, 10, 76
4, 123344, Channel_aftertouch_c, 10, 54
4, 123360, Channel_aftertouch_c, 10, 3
4, 123372, Note_on_c, 10, 64, 0
4, 123372, Channel_aftertouch_c, 10, 0
4, 123396, Note_on_c, 10, 76, 0
4, 123648, Note_on_c, 10, 76, 104
4, 123648, Note_on_c, 10, 64, 108
4, 123680, Channel_aftertouch_c, 10, 50
4, 123692, Channel_aftertouch_c, 10, 82
4, 123704, Channel_aftertouch_c, 10, 79
4, 123720, Channel_aftertouch_c, 10, 58
4, 123728, Channel_aftertouch_c, 10, 15
4, 123740, Channel_aftertouch_c, 10, 0
4, 123776, Note_on_c, 10, 64, 0
4, 123776, Note_on_c, 10, 76, 0
4, 124032, Note_on_c, 10, 64, 108
4, 124032, Note_on_c, 10, 76, 100
4, 124052, Channel_aftertouch_c, 10, 64
4, 124064, Channel_aftertouch_c, 10, 83
4, 124076, Channel_aftertouch_c, 10, 85
4, 124088, Channel_aftertouch_c, 10, 74
4, 124100, Channel_aftertouch_c, 10, 57
4, 124112, Channel_aftertouch_c, 10, 29
4, 124124, Channel_aftertouch_c, 10, 0
4, 124144, Note_on_c, 10, 64, 0
4, 124160, Note_on_c, 10, 76, 0
4, 124416, Note_on_c, 10, 76, 104
4, 124416, Note_on_c, 10, 64, 113
4, 124440, Channel_aftertouch_c, 10, 70
4, 124452, Channel_aftertouch_c, 10, 95
4, 124464, Channel_aftertouch_c, 10, 91
4, 124476, Channel_aftertouch_c, 10, 72
4, 124488, Channel_aftertouch_c, 10, 45
4, 124500, Channel_aftertouch_c, 10, 16
4, 124512, Channel_aftertouch_c, 10, 0
4, 124560, Note_on_c, 10, 64, 0
4, 124564, Note_on_c, 10, 76, 0
4, 124800, Note_on_c, 10, 76, 104
4, 124800, Note_on_c, 10, 64, 104
4, 124836, Channel_aftertouch_c, 10, 84
4, 124844, Channel_aftertouch_c, 10, 92
4, 124856, Channel_aftertouch_c, 10, 80
4, 124872, Channel_aftertouch_c, 10, 59
4, 124880, Channel_aftertouch_c, 10, 5
4, 124896, Channel_aftertouch_c, 10, 0
4, 124920, Note_on_c, 10, 64, 0
4, 124924, Note_on_c, 10, 76, 0
4, 125184, Note_on_c, 10, 64, 104
4, 125184, Note_on_c, 10, 76, 96
4, 125204, Channel_aftertouch_c, 10, 37
4, 125216, Channel_aftertouch_c, 10, 75
4, 125228, Channel_aftertouch_c, 10, 80
4, 125240, Channel_aftertouch_c, 10, 70
4, 125252, Channel_aftertouch_c, 10, 53
4, 125264, Channel_aftertouch_c, 10, 0
4, 125288, Note_on_c, 10, 64, 0
4, 125300, Note_on_c, 10, 76, 0
4, 125568, Note_on_c, 10, 76, 100
4, 125568, Note_on_c, 10, 64, 108
4, 125592, Channel_aftertouch_c, 10, 77
4, 125604, Channel_aftertouch_c, 10, 90
4, 125616, Channel_aftertouch_c, 10, 86
4, 125628, Channel_aftertouch_c, 10, 70
4, 125640, Channel_aftertouch_c, 10, 47
4, 125652, Channel_aftertouch_c, 10, 0
4, 125688, Note_on_c, 10, 64, 0
4, 125696, Note_on_c, 10, 76, 0
4, 125952, Note_on_c, 10, 64, 108
4, 125952, Note_on_c, 10, 76, 100
4, 125984, Channel_aftertouch_c, 10, 87
4, 125996, Channel_aftertouch_c, 10, 92
4, 126008, Channel_aftertouch_c, 10, 80
4, 126024, Channel_aftertouch_c, 10, 62
4, 126032, Channel_aftertouch_c, 10, 38
4, 126044, Channel_aftertouch_c, 10, 0
4, 126100, Note_on_c, 10, 76, 0
4, 126104, Note_on_c, 10, 64, 0
4, 126336, Note_on_c, 10, 76, 104
4, 126336, Note_on_c, 10, 64, 108
4, 126376, Channel_aftertouch_c, 10, 80
4, 126392, Channel_aftertouch_c, 10, 87
4, 126404, Channel_aftertouch_c, 10, 77
4, 126416, Channel_aftertouch_c, 10, 58
4, 126424, Channel_aftertouch_c, 10, 28
4, 126440, Channel_aftertouch_c, 10, 0
4, 126472, Note_on_c, 10, 64, 0
4, 126472, Note_on_c, 10, 76, 0
4, 126720, Note_on_c, 10, 76, 104
4, 126720, Note_on_c, 10, 64, 108
4, 126736, Channel_aftertouch_c, 10, 77
4, 126752, Channel_aftertouch_c, 10, 91
4, 126760, Channel_aftertouch_c, 10, 87
4, 126776, Channel_aftertouch_c, 10, 70
4, 126788, Channel_aftertouch_c, 10, 51
4, 126800, Channel_aftertouch_c, 10, 34
4, 126812, Channel_aftertouch_c, 10, 20
4, 126824, Channel_aftertouch_c, 10, 0
4, 126872, Note_on_c, 10, 64, 0
4, 126872, Note_on_c, 10, 76, 0
4, 127104, Note_on_c, 10, 64, 108
4, 127104, Note_on_c, 10, 76, 104
4, 127128, Channel_aftertouch_c, 10, 71
4, 127144, Channel_aftertouch_c, 10, 100
4, 127156, Channel_aftertouch_c, 10, 102
4, 127164, Channel_aftertouch_c, 10, 83
4, 127180, Channel_aftertouch_c, 10, 61
4, 127188, Channel_aftertouch_c, 10, 22
4, 127200, Channel_aftertouch_c, 10, 0
4, 127224, Note_on_c, 10, 76, 0
4, 127228, Note_on_c, 10, 64, 0
4, 127488, Note_on_c, 10, 64, 104
4, 127488, Note_on_c, 10, 76, 100
4, 127516, Channel_aftertouch_c, 10, 83
4, 127528, Channel_aftertouch_c, 10, 89
4, 127544, Channel_aftertouch_c, 10, 80
4, 127552, Channel_aftertouch_c, 10, 63
4, 127568, Channel_aftertouch_c, 10, 38
4, 127576, Channel_aftertouch_c, 10, 0
4, 127608, Note_on_c, 10, 64, 0
4, 127620, Note_on_c, 10, 76, 0
4, 127872, Note_on_c, 10, 76, 100
4, 127872, Note_on_c, 10, 64, 113
4, 127904, Channel_aftertouch_c, 10, 60
4, 127916, Channel_aftertouch_c, 10, 91
4, 127928, Channel_aftertouch_c, 10, 88
4, 127940, Channel_aftertouch_c, 10, 72
4, 127952, Channel_aftertouch_c, 10, 53
4, 127964, Channel_aftertouch_c, 10, 31
4, 127976, Channel_aftertouch_c, 10, 0
4, 128000, Note_on_c, 10, 64, 0
4, 128008, Note_on_c, 10, 76, 0
4, 128256, Note_on_c, 10, 76, 104
4, 128256, Note_on_c, 10, 64, 104
4, 128284, Channel_aftertouch_c, 10, 33
4, 128296, Channel_aftertouch_c, 10, 89
4, 128304, Channel_aftertouch_c, 10, 87
4, 128320, Channel_aftertouch_c, 10, 72
4, 128332, Channel_aftertouch_c, 10, 59
4, 128344, Channel_aftertouch_c, 10, 51
4, 128368, Channel_aftertouch_c, 10, 50
4, 128376, Channel_aftertouch_c, 10, 45
4, 128388, Channel_aftertouch_c, 10, 26
4, 128400, Channel_aftertouch_c, 10, 0
4, 128420, Note_on_c, 10, 76, 0
4, 128424, Note_on_c, 10, 64, 0
4, 128640, Note_on_c, 10, 76, 104
4, 128640, Note_on_c, 10, 64, 113
4, 128668, Channel_aftertouch_c, 10, 70
4, 128680, Channel_aftertouch_c, 10, 92
4, 128692, Channel_aftertouch_c, 10, 88
4, 128704, Channel_aftertouch_c, 10, 71
4, 128716, Channel_aftertouch_c, 10, 49
4, 128728, Channel_aftertouch_c, 10, 13
4, 128740, Channel_aftertouch_c, 10, 0
4, 128744, Note_on_c, 10, 64, 0
4, 128752, Note_on_c, 10, 76, 0
4, 129024, Note_on_c, 10, 76, 104
4, 129024, Note_on_c, 10, 64, 108
4, 129056, Channel_aftertouch_c, 10, 53
4, 129068, Channel_aftertouch_c, 10, 90
4, 129080, Channel_aftertouch_c, 10, 85
4, 129092, Channel_aftertouch_c, 10, 62
4, 129104, Channel_aftertouch_c, 10, 0
4, 129120, Note_on_c, 10, 64, 0
4, 129128, Note_on_c, 10, 76, 0
4, 129408, Note_on_c, 10, 76, 104
4, 129408, Note_on_c, 10, 64, 113
4, 129432, Channel_aftertouch_c, 10, 85
4, 129444, Channel_aftertouch_c, 10, 88
4, 129456, Channel_aftertouch_c, 10, 69
4, 129468, Channel_aftertouch_c, 10, 45
4, 129480, Channel_aftertouch_c, 10, 0
4, 129520, Note_on_c, 10, 64, 0
4, 129532, Note_on_c, 10, 76, 0
4, 129792, Note_on_c, 10, 76, 100
4, 129792, Note_on_c, 10, 64, 108
4, 129812, Channel_aftertouch_c, 10, 41
4, 129828, Channel_aftertouch_c, 10, 88
4, 129840, Channel_aftertouch_c, 10, 86
4, 129848, Channel_aftertouch_c, 10, 67
4, 129864, Channel_aftertouch_c, 10, 46
4, 129872, Channel_aftertouch_c, 10, 12
4, 129888, Channel_aftertouch_c, 10, 0
4, 129920, Note_on_c, 10, 64, 0
4, 129920, Note_on_c, 10, 76, 0
4, 130176, Note_on_c, 10, 76, 100
4, 130176, Note_on_c, 10, 64, 113
4, 130208, Channel_aftertouch_c, 10, 74
4, 130220, Channel_aftertouch_c, 10, 89
4, 130232, Channel_aftertouch_c, 10, 79
4, 130244, Channel_aftertouch_c, 10, 62
4, 130256, Channel_aftertouch_c, 10, 34
4, 130268, Channel_aftertouch_c, 10, 0
4, 130292, Note_on_c, 10, 64, 0
4, 130308, Note_on_c, 10, 76, 0
4, 130560, Note_on_c, 10, 76, 104
4, 130560, Note_on_c, 10, 64, 108
4, 130596, Channel_aftertouch_c, 10, 90
4, 130608, Channel_aftertouch_c, 10, 100
4, 130620, Channel_aftertouch_c, 10, 86
4, 130632, Channel_aftertouch_c, 10, 65
4, 130644, Channel_aftertouch_c, 10, 37
4, 130656, Channel_aftertouch_c, 10, 14
4, 130668, Channel_aftertouch_c, 10, 7
4, 130680, Channel_aftertouch_c, 10, 0
4, 130704, Note_on_c, 10, 64, 0
4, 130720, Note_on_c, 10, 76, 0
4, 130944, Note_on_c, 10, 76, 108
4, 130944, Note_on_c, 10, 64, 113
4, 130984, Channel_aftertouch_c, 10, 88
4, 130996, Channel_aftertouch_c, 10, 95
4, 131008, Channel_aftertouch_c, 10, 82
4, 131020, Channel_aftertouch_c, 10, 65
4, 131032, Channel_aftertouch_c, 10, 38
4, 131048, Channel_aftertouch_c, 10, 8
4, 131056, Channel_aftertouch_c, 10, 0
4, 131072, Note_on_c, 10, 64, 0
4, 131080, Note_on_c, 10, 76, 0
4, 131328, Note_on_c, 10, 76, 104
4, 131328, Note_on_c, 10, 64, 108
4, 131368, Channel_aftertouch_c, 10, 101
4, 131380, Channel_aftertouch_c, 10, 99
4, 131392, Channel_aftertouch_c, 10, 80
4, 131404, Channel_aftertouch_c, 10, 53
4, 131416, Channel_aftertouch_c, 10, 0
4, 131468, Note_on_c, 10, 64, 0
4, 131468, Note_on_c, 10, 76, 0
4, 131712, Note_on_c, 10, 64, 104
4, 131712, Note_on_c, 10, 76, 100
4, 131740, Channel_aftertouch_c, 10, 98
4, 131752, Channel_aftertouch_c, 10, 89
4, 131764, Channel_aftertouch_c, 10, 93
4, 131776, Channel_aftertouch_c, 10, 82
4, 131788, Channel_aftertouch_c, 10, 63
4, 131800, Channel_aftertouch_c, 10, 37
4, 131808, Channel_aftertouch_c, 10, 0
4, 131860, Note_on_c, 10, 64, 0
4, 131864, Note_on_c, 10, 76, 0
4, 132096, Note_on_c, 10, 76, 104
4, 132096, Note_on_c, 10, 64, 108
4, 132128, Channel_aftertouch_c, 10, 90
4, 132136, Channel_aftertouch_c, 10, 95
4, 132152, Channel_aftertouch_c, 10, 83
4, 132160, Channel_aftertouch_c, 10, 67
4, 132176, Channel_aftertouch_c, 10, 47
4, 132184, Channel_aftertouch_c, 10, 35
4, 132196, Channel_aftertouch_c, 10, 32
4, 132212, Channel_aftertouch_c, 10, 12
4, 132220, Channel_aftertouch_c, 10, 0
4, 132240, Note_on_c, 10, 64, 0
4, 132248, Note_on_c, 10, 76, 0
4, 132480, Note_on_c, 10, 76, 104
4, 132480, Note_on_c, 10, 64, 108
4, 132512, Channel_aftertouch_c, 10, 88
4, 132524, Channel_aftertouch_c, 10, 103
4, 132536, Channel_aftertouch_c, 10, 91
4, 132548, Channel_aftertouch_c, 10, 71
4, 132560, Channel_aftertouch_c, 10, 31
4, 132572, Channel_aftertouch_c, 10, 0
4, 132600, Note_on_c, 10, 64, 0
4, 132624, Note_on_c, 10, 76, 0
4, 132864, Note_on_c, 10, 76, 104
4, 132864, Note_on_c, 10, 64, 113
4, 132896, Channel_aftertouch_c, 10, 82
4, 132904, Channel_aftertouch_c, 10, 100
4, 132920, Channel_aftertouch_c, 10, 87
4, 132928, Channel_aftertouch_c, 10, 64
4, 132940, Channel_aftertouch_c, 10, 0
4, 132984, Note_on_c, 10, 64, 0
4, 132992, Note_on_c, 10, 76, 0
4, 133248, Note_on_c, 10, 76, 104
4, 133248, Note_on_c, 10, 64, 113
4, 133268, Channel_aftertouch_c, 10, 58
4, 133280, Channel_aftertouch_c, 10, 106
4, 133292, Channel_aftertouch_c, 10, 100
4, 133304, Channel_aftertouch_c, 10, 72
4, 133316, Channel_aftertouch_c, 10, 39
4, 133328, Channel_aftertouch_c, 10, 0
4, 133388, Note_on_c, 10, 64, 0
4, 133404, Note_on_c, 10, 76, 0
4, 133632, Note_on_c, 10, 76, 100
4, 133632, Note_on_c, 10, 64, 108
4, 133660, Channel_aftertouch_c, 10, 38
4, 133672, Channel_aftertouch_c, 10, 95
4, 133684, Channel_aftertouch_c, 10, 92
4, 133696, Channel_aftertouch_c, 10, 73
4, 133708, Channel_aftertouch_c, 10, 51
4, 133720, Channel_aftertouch_c, 10, 0
4, 133776, Note_on_c, 10, 64, 0
4, 133788, Note_on_c, 10, 76, 0
4, 134016, Note_on_c, 10, 64, 108
4, 134016, Note_on_c, 10, 76, 108
4, 134024, Channel_aftertouch_c, 10, 116
4, 134032, Channel_aftertouch_c, 10, 85
4, 134044, Channel_aftertouch_c, 10, 100
4, 134056, Channel_aftertouch_c, 10, 91
4, 134068, Channel_aftertouch_c, 10, 67
4, 134080, Channel_aftertouch_c, 10, 37
4, 134092, Channel_aftertouch_c, 10, 0
4, 134164, Note_on_c, 10, 76, 0
4, 134164, Note_on_c, 10, 64, 0
4, 134400, Note_on_c, 10, 76, 104
4, 134400, Note_on_c, 10, 64, 104
4, 134404, Channel_aftertouch_c, 10, 61
4, 134416, Channel_aftertouch_c, 10, 90
4, 134428, Channel_aftertouch_c, 10, 99
4, 134440, Channel_aftertouch_c, 10, 90
4, 134452, Channel_aftertouch_c, 10, 75
4, 134464, Channel_aftertouch_c, 10, 62
4, 134476, Channel_aftertouch_c, 10, 53
4, 134488, Channel_aftertouch_c, 10, 47
4, 134500, Channel_aftertouch_c, 10, 41
4, 134512, Channel_aftertouch_c, 10, 20
4, 134524, Channel_aftertouch_c, 10, 0
4, 134576, Note_on_c, 10, 64, 0
4, 134576, Note_on_c, 10, 76, 0
4, 134784, Note_on_c, 10, 64, 113
4, 134784, Note_on_c, 10, 76, 104
4, 134792, Channel_aftertouch_c, 10, 87
4, 134804, Channel_aftertouch_c, 10, 118
4, 134816, Channel_aftertouch_c, 10, 115
4, 134824, Channel_aftertouch_c, 10, 89
4, 134840, Channel_aftertouch_c, 10, 64
4, 134848, Channel_aftertouch_c, 10, 31
4, 134864, Channel_aftertouch_c, 10, 31
4, 134872, Channel_aftertouch_c, 10, 39
4, 134888, Channel_aftertouch_c, 10, 41
4, 134900, Channel_aftertouch_c, 10, 28
4, 134908, Channel_aftertouch_c, 10, 0
4, 134944, Note_on_c, 10, 76, 0
4, 134956, Note_on_c, 10, 64, 0
4, 134956, End_track
5, 0, Start_track
5, 0, MIDI_port, 0
5, 0, Title_t, "Vocal Melody"
5, 0, Program_c, 7, 21
5, 0, Control_c, 7, 7, 122
5, 0, Control_c, 7, 91, 40
5, 0, Control_c, 7, 93, 0
5, 0, Control_c, 7, 7, 100
5, 12288, Control_c, 7, 7, 123
5, 14400, Note_on_c, 7, 59, 97
5, 14592, Note_on_c, 7, 62, 115
5, 14620, Note_on_c, 7, 59, 0
5, 14680, Note_on_c, 7, 62, 0
5, 14784, Note_on_c, 7, 62, 119
5, 14976, Note_on_c, 7, 59, 119
5, 14984, Note_on_c, 7, 62, 0
5, 15148, Note_on_c, 7, 59, 0
5, 15168, Note_on_c, 7, 62, 119
5, 15168, Channel_aftertouch_c, 7, 89
5, 15176, Channel_aftertouch_c, 7, 0
5, 15344, Note_on_c, 7, 62, 0
5, 15356, Channel_aftertouch_c, 7, 17
5, 15360, Control_c, 7, 7, 123
5, 15360, Note_on_c, 7, 59, 124
5, 15368, Channel_aftertouch_c, 7, 0
5, 15376, Control_c, 7, 7, 122
5, 15396, Control_c, 7, 7, 122
5, 15416, Control_c, 7, 7, 122
5, 15436, Control_c, 7, 7, 122
5, 15456, Control_c, 7, 7, 122
5, 15472, Control_c, 7, 7, 123
5, 15492, Control_c, 7, 7, 123
5, 15512, Control_c, 7, 7, 123
5, 15532, Control_c, 7, 7, 122
5, 15552, Control_c, 7, 7, 122
5, 15568, Control_c, 7, 7, 122
5, 15588, Control_c, 7, 7, 122
5, 15608, Control_c, 7, 7, 122
5, 15628, Control_c, 7, 7, 122
5, 15648, Control_c, 7, 7, 122
5, 15664, Control_c, 7, 7, 122
5, 15684, Control_c, 7, 7, 122
5, 15704, Control_c, 7, 7, 122
5, 15724, Control_c, 7, 7, 122
5, 15744, Control_c, 7, 7, 122
5, 15760, Control_c, 7, 7, 122
5, 15780, Control_c, 7, 7, 122
5, 15800, Control_c, 7, 7, 122
5, 15820, Control_c, 7, 7, 122
5, 15840, Control_c, 7, 7, 122
5, 15856, Control_c, 7, 7, 122
5, 15876, Control_c, 7, 7, 122
5, 15896, Control_c, 7, 7, 122
5, 15916, Control_c, 7, 7, 122
5, 15936, Control_c, 7, 7, 122
5, 15952, Control_c, 7, 7, 122
5, 15972, Control_c, 7, 7, 122
5, 15992, Control_c, 7, 7, 122
5, 16012, Control_c, 7, 7, 122
5, 16032, Control_c, 7, 7, 121
5, 16048, Control_c, 7, 7, 121
5, 16068, Control_c, 7, 7, 121
5, 16088, Control_c, 7, 7, 121
5, 16108, Control_c, 7, 7, 121
5, 16128, Control_c, 7, 7, 121
5, 16184, Control_c, 7, 7, 121
5, 16240, Control_c, 7, 7, 121
5, 16300, Control_c, 7, 7, 121
5, 16320, Control_c, 7, 7, 121
5, 16336, Control_c, 7, 7, 121
5, 16356, Control_c, 7, 7, 121
5, 16376, Control_c, 7, 7, 120
5, 16396, Control_c, 7, 7, 119
5, 16416, Control_c, 7, 7, 119
5, 16432, Control_c, 7, 7, 119
5, 16452, Control_c, 7, 7, 119
5, 16472, Control_c, 7, 7, 117
5, 16492, Control_c, 7, 7, 116
5, 16512, Control_c, 7, 7, 116
5, 16528, Control_c, 7, 7, 115
5, 16548, Control_c, 7, 7, 114
5, 16568, Control_c, 7, 7, 113
5, 16588, Control_c, 7, 7, 111
5, 16608, Control_c, 7, 7, 110
5, 16624, Control_c, 7, 7, 109
5, 16644, Control_c, 7, 7, 106
5, 16664, Control_c, 7, 7, 105
5, 16684, Control_c, 7, 7, 105
5, 16720, Control_c, 7, 7, 103
5, 16740, Control_c, 7, 7, 100
5, 16760, Control_c, 7, 7, 100
5, 16780, Control_c, 7, 7, 99
5, 16800, Control_c, 7, 7, 97
5, 16816, Control_c, 7, 7, 97
5, 16920, Note_on_c, 7, 59, 0
5, 17316, Control_c, 7, 7, 123
5, 17472, Note_on_c, 7, 59, 110
5, 17664, Note_on_c, 7, 64, 115
5, 17672, Note_on_c, 7, 59, 0
5, 17856, Note_on_c, 7, 62, 115
5, 17876, Channel_aftertouch_c, 7, 38
5, 17888, Note_on_c, 7, 64, 0
5, 17888, Channel_aftertouch_c, 7, 0
5, 17932, Note_on_c, 7, 62, 0
5, 18048, Note_on_c, 7, 62, 115
5, 18104, Note_on_c, 7, 62, 0
5, 18240, Note_on_c, 7, 59, 124
5, 18336, Note_on_c, 7, 57, 105
5, 18348, Note_on_c, 7, 59, 0
5, 18432, Note_on_c, 7, 55, 119
5, 18432, Control_c, 7, 7, 123
5, 18440, Note_on_c, 7, 57, 0
5, 18448, Control_c, 7, 7, 122
5, 18468, Control_c, 7, 7, 122
5, 18488, Control_c, 7, 7, 122
5, 18508, Control_c, 7, 7, 122
5, 18528, Control_c, 7, 7, 122
5, 18544, Control_c, 7, 7, 123
5, 18564, Control_c, 7, 7, 123
5, 18584, Control_c, 7, 7, 123
5, 18604, Control_c, 7, 7, 122
5, 18624, Control_c, 7, 7, 122
5, 18640, Control_c, 7, 7, 122
5, 18660, Control_c, 7, 7, 122
5, 18680, Control_c, 7, 7, 122
5, 18700, Control_c, 7, 7, 122
5, 18720, Control_c, 7, 7, 122
5, 18736, Control_c, 7, 7, 122
5, 18756, Control_c, 7, 7, 122
5, 18776, Control_c, 7, 7, 122
5, 18796, Control_c, 7, 7, 122
5, 18816, Control_c, 7, 7, 122
5, 18832, Control_c, 7, 7, 122
5, 18852, Control_c, 7, 7, 122
5, 18872, Control_c, 7, 7, 122
5, 18892, Control_c, 7, 7, 122
5, 18912, Control_c, 7, 7, 122
5, 18928, Control_c, 7, 7, 122
5, 18948, Control_c, 7, 7, 122
5, 18968, Control_c, 7, 7, 122
5, 18988, Control_c, 7, 7, 122
5, 19008, Control_c, 7, 7, 122
5, 19024, Control_c, 7, 7, 122
5, 19044, Control_c, 7, 7, 122
5, 19064, Control_c, 7, 7, 122
5, 19084, Control_c, 7, 7, 122
5, 19104, Control_c, 7, 7, 121
5, 19120, Control_c, 7, 7, 121
5, 19140, Control_c, 7, 7, 121
5, 19160, Control_c, 7, 7, 121
5, 19180, Control_c, 7, 7, 121
5, 19200, Control_c, 7, 7, 121
5, 19256, Control_c, 7, 7, 121
5, 19312, Control_c, 7, 7, 121
5, 19372, Control_c, 7, 7, 121
5, 19392, Control_c, 7, 7, 121
5, 19408, Control_c, 7, 7, 121
5, 19428, Control_c, 7, 7, 121
5, 19448, Control_c, 7, 7, 120
5, 19468, Control_c, 7, 7, 119
5, 19488, Control_c, 7, 7, 119
5, 19504, Control_c, 7, 7, 119
5, 19524, Control_c, 7, 7, 119
5, 19544, Control_c, 7, 7, 117
5, 19564, Control_c, 7, 7, 116
5, 19584, Control_c, 7, 7, 116
5, 19600, Control_c, 7, 7, 115
5, 19620, Control_c, 7, 7, 114
5, 19640, Control_c, 7, 7, 113
5, 19660, Control_c, 7, 7, 111
5, 19680, Control_c, 7, 7, 110
5, 19696, Control_c, 7, 7, 109
5, 19716, Control_c, 7, 7, 106
5, 19736, Control_c, 7, 7, 105
5, 19756, Control_c, 7, 7, 105
5, 19792, Control_c, 7, 7, 103
5, 19812, Control_c, 7, 7, 100
5, 19832, Control_c, 7, 7, 100
5, 19852, Control_c, 7, 7, 99
5, 19864, Note_on_c, 7, 55, 0
5, 19872, Control_c, 7, 7, 97
5, 19888, Control_c, 7, 7, 97
5, 20388, Control_c, 7, 7, 123
5, 20928, Note_on_c, 7, 62, 110
5, 21120, Note_on_c, 7, 59, 110
5, 21172, Note_on_c, 7, 62, 0
5, 21260, Note_on_c, 7, 59, 0
5, 21312, Note_on_c, 7, 62, 119
5, 21400, Note_on_c, 7, 62, 0
5, 21408, Note_on_c, 7, 62, 92
5, 21480, Note_on_c, 7, 62, 0
5, 21504, Note_on_c, 7, 62, 115
5, 21576, Note_on_c, 7, 62, 0
5, 21600, Note_on_c, 7, 59, 110
5, 21656, Note_on_c, 7, 59, 0
5, 21696, Note_on_c, 7, 62, 110
5, 21704, Channel_aftertouch_c, 7, 31
5, 21716, Channel_aftertouch_c, 7, 0
5, 22048, Note_on_c, 7, 62, 0
5, 22080, Note_on_c, 7, 62, 92
5, 22152, Note_on_c, 7, 62, 0
5, 22176, Note_on_c, 7, 62, 92
5, 22248, Note_on_c, 7, 62, 0
5, 22272, Note_on_c, 7, 64, 94
5, 22464, Note_on_c, 7, 62, 105
5, 22500, Channel_aftertouch_c, 7, 66
5, 22512, Channel_aftertouch_c, 7, 0
5, 22536, Note_on_c, 7, 64, 0
5, 22760, Note_on_c, 7, 62, 0
5, 22848, Note_on_c, 7, 62, 105
5, 22868, Channel_aftertouch_c, 7, 48
5, 22880, Channel_aftertouch_c, 7, 0
5, 23040, Note_on_c, 7, 62, 0
5, 23040, Note_on_c, 7, 59, 119
5, 23320, Note_on_c, 7, 59, 0
5, 23424, Note_on_c, 7, 59, 105
5, 23544, Note_on_c, 7, 59, 0
5, 23616, Note_on_c, 7, 59, 94
5, 23728, Note_on_c, 7, 59, 0
5, 23808, Note_on_c, 7, 59, 115
5, 23992, Note_on_c, 7, 59, 0
5, 24000, Note_on_c, 7, 57, 124
5, 24288, Note_on_c, 7, 57, 0
5, 24384, Note_on_c, 7, 59, 119
5, 24480, Note_on_c, 7, 57, 115
5, 24484, Note_on_c, 7, 59, 0
5, 24576, Note_on_c, 7, 57, 0
5, 24576, Note_on_c, 7, 55, 110
5, 24576, Control_c, 7, 7, 123
5, 24592, Control_c, 7, 7, 122
5, 24612, Control_c, 7, 7, 122
5, 24632, Control_c, 7, 7, 122
5, 24652, Control_c, 7, 7, 122
5, 24672, Control_c, 7, 7, 122
5, 24688, Control_c, 7, 7, 123
5, 24708, Control_c, 7, 7, 123
5, 24728, Control_c, 7, 7, 123
5, 24748, Control_c, 7, 7, 122
5, 24768, Control_c, 7, 7, 122
5, 24784, Control_c, 7, 7, 122
5, 24804, Control_c, 7, 7, 122
5, 24824, Control_c, 7, 7, 122
5, 24844, Control_c, 7, 7, 122
5, 24864, Control_c, 7, 7, 122
5, 24880, Control_c, 7, 7, 122
5, 24900, Control_c, 7, 7, 122
5, 24920, Control_c, 7, 7, 122
5, 24940, Control_c, 7, 7, 122
5, 24960, Control_c, 7, 7, 122
5, 24976, Control_c, 7, 7, 122
5, 24996, Control_c, 7, 7, 122
5, 25016, Control_c, 7, 7, 122
5, 25036, Control_c, 7, 7, 122
5, 25056, Control_c, 7, 7, 122
5, 25072, Control_c, 7, 7, 122
5, 25092, Control_c, 7, 7, 122
5, 25112, Control_c, 7, 7, 122
5, 25132, Control_c, 7, 7, 122
5, 25152, Control_c, 7, 7, 122
5, 25168, Control_c, 7, 7, 122
5, 25188, Control_c, 7, 7, 122
5, 25208, Control_c, 7, 7, 122
5, 25228, Control_c, 7, 7, 122
5, 25248, Control_c, 7, 7, 121
5, 25264, Control_c, 7, 7, 121
5, 25284, Control_c, 7, 7, 121
5, 25304, Control_c, 7, 7, 121
5, 25324, Control_c, 7, 7, 121
5, 25344, Control_c, 7, 7, 121
5, 25400, Control_c, 7, 7, 121
5, 25456, Control_c, 7, 7, 121
5, 25516, Control_c, 7, 7, 121
5, 25536, Control_c, 7, 7, 121
5, 25552, Control_c, 7, 7, 121
5, 25572, Control_c, 7, 7, 121
5, 25592, Control_c, 7, 7, 120
5, 25612, Control_c, 7, 7, 119
5, 25632, Control_c, 7, 7, 119
5, 25648, Control_c, 7, 7, 119
5, 25668, Control_c, 7, 7, 119
5, 25688, Control_c, 7, 7, 117
5, 25708, Control_c, 7, 7, 116
5, 25728, Control_c, 7, 7, 116
5, 25744, Control_c, 7, 7, 115
5, 25764, Control_c, 7, 7, 114
5, 25784, Control_c, 7, 7, 113
5, 25804, Control_c, 7, 7, 111
5, 25824, Control_c, 7, 7, 110
5, 25840, Control_c, 7, 7, 109
5, 25860, Control_c, 7, 7, 106
5, 25880, Control_c, 7, 7, 105
5, 25900, Control_c, 7, 7, 105
5, 25936, Control_c, 7, 7, 103
5, 25956, Control_c, 7, 7, 100
5, 25960, Note_on_c, 7, 55, 0
5, 25976, Control_c, 7, 7, 100
5, 25996, Control_c, 7, 7, 99
5, 26016, Control_c, 7, 7, 97
5, 26032, Control_c, 7, 7, 97
5, 26244, Control_c, 7, 7, 123
5, 27072, Note_on_c, 7, 59, 105
5, 27164, Note_on_c, 7, 59, 0
5, 27264, Note_on_c, 7, 59, 110
5, 27360, Note_on_c, 7, 59, 0
5, 27456, Note_on_c, 7, 62, 110
5, 27932, Note_on_c, 7, 62, 0
5, 28032, Note_on_c, 7, 62, 115
5, 28344, Note_on_c, 7, 62, 0
5, 28416, Note_on_c, 7, 62, 115
5, 28528, Note_on_c, 7, 62, 0
5, 28608, Note_on_c, 7, 62, 119
5, 28936, Note_on_c, 7, 62, 0
5, 28992, Note_on_c, 7, 64, 94
5, 29060, Channel_aftertouch_c, 7, 3
5, 29072, Channel_aftertouch_c, 7, 5
5, 29096, Channel_aftertouch_c, 7, 0
5, 29184, Note_on_c, 7, 62, 105
5, 29224, Note_on_c, 7, 64, 0
5, 29296, Note_on_c, 7, 62, 0
5, 29376, Note_on_c, 7, 62, 110
5, 29568, Note_on_c, 7, 59, 119
5, 29604, Note_on_c, 7, 62, 0
5, 29984, Note_on_c, 7, 59, 0
5, 30144, Note_on_c, 7, 59, 115
5, 30236, Note_on_c, 7, 59, 0
5, 30336, Note_on_c, 7, 59, 97
5, 30528, Note_on_c, 7, 59, 0
5, 30528, Note_on_c, 7, 64, 83
5, 30716, Note_on_c, 7, 64, 0
5, 30720, Note_on_c, 7, 62, 119
5, 30720, Control_c, 7, 7, 123
5, 30736, Control_c, 7, 7, 122
5, 30756, Control_c, 7, 7, 122
5, 30776, Control_c, 7, 7, 122
5, 30796, Control_c, 7, 7, 122
5, 30800, Note_on_c, 7, 62, 0
5, 30816, Note_on_c, 7, 62, 92
5, 30816, Control_c, 7, 7, 122
5, 30832, Control_c, 7, 7, 123
5, 30852, Control_c, 7, 7, 123
5, 30872, Control_c, 7, 7, 123
5, 30888, Note_on_c, 7, 62, 0
5, 30892, Control_c, 7, 7, 122
5, 30912, Note_on_c, 7, 62, 110
5, 30912, Control_c, 7, 7, 122
5, 30928, Control_c, 7, 7, 122
5, 30948, Control_c, 7, 7, 122
5, 30968, Control_c, 7, 7, 122
5, 30988, Control_c, 7, 7, 122
5, 31008, Control_c, 7, 7, 122
5, 31024, Control_c, 7, 7, 122
5, 31032, Note_on_c, 7, 62, 0
5, 31044, Control_c, 7, 7, 122
5, 31064, Control_c, 7, 7, 122
5, 31084, Control_c, 7, 7, 121
5, 31104, Control_c, 7, 7, 120
5, 31104, Note_on_c, 7, 59, 94
5, 31120, Control_c, 7, 7, 120
5, 31140, Control_c, 7, 7, 120
5, 31160, Control_c, 7, 7, 119
5, 31180, Control_c, 7, 7, 122
5, 31200, Control_c, 7, 7, 122
5, 31216, Control_c, 7, 7, 121
5, 31236, Control_c, 7, 7, 120
5, 31256, Control_c, 7, 7, 119
5, 31276, Control_c, 7, 7, 119
5, 31296, Control_c, 7, 7, 117
5, 31312, Control_c, 7, 7, 116
5, 31332, Control_c, 7, 7, 116
5, 31352, Control_c, 7, 7, 115
5, 31372, Control_c, 7, 7, 113
5, 31392, Control_c, 7, 7, 112
5, 31408, Control_c, 7, 7, 111
5, 31428, Control_c, 7, 7, 111
5, 31448, Control_c, 7, 7, 109
5, 31468, Control_c, 7, 7, 108
5, 31488, Control_c, 7, 7, 107
5, 31504, Control_c, 7, 7, 107
5, 31524, Control_c, 7, 7, 107
5, 31544, Control_c, 7, 7, 106
5, 31564, Control_c, 7, 7, 106
5, 31584, Control_c, 7, 7, 105
5, 31600, Control_c, 7, 7, 104
5, 31620, Control_c, 7, 7, 103
5, 31640, Control_c, 7, 7, 102
5, 31660, Control_c, 7, 7, 101
5, 31680, Control_c, 7, 7, 100
5, 31696, Control_c, 7, 7, 98
5, 31716, Control_c, 7, 7, 97
5, 31736, Control_c, 7, 7, 95
5, 31756, Note_on_c, 7, 59, 0
5, 31756, Control_c, 7, 7, 94
5, 31776, Control_c, 7, 7, 93
5, 31792, Control_c, 7, 7, 92
5, 31812, Control_c, 7, 7, 90
5, 31832, Control_c, 7, 7, 89
5, 31852, Control_c, 7, 7, 87
5, 31872, Control_c, 7, 7, 86
5, 31888, Control_c, 7, 7, 85
5, 31908, Control_c, 7, 7, 83
5, 31928, Control_c, 7, 7, 81
5, 31948, Control_c, 7, 7, 77
5, 31968, Control_c, 7, 7, 110
5, 31984, Control_c, 7, 7, 109
5, 32004, Control_c, 7, 7, 106
5, 32024, Control_c, 7, 7, 105
5, 32044, Control_c, 7, 7, 105
5, 32080, Control_c, 7, 7, 103
5, 32100, Control_c, 7, 7, 100
5, 32120, Control_c, 7, 7, 100
5, 32140, Control_c, 7, 7, 99
5, 32160, Control_c, 7, 7, 97
5, 32176, Control_c, 7, 7, 97
5, 32388, Control_c, 7, 7, 123
5, 33224, Note_on_c, 7, 62, 110
5, 33424, Note_on_c, 7, 59, 94
5, 33440, Note_on_c, 7, 62, 0
5, 33600, Note_on_c, 7, 62, 105
5, 33604, Channel_aftertouch_c, 7, 40
5, 33616, Channel_aftertouch_c, 7, 0
5, 33624, Note_on_c, 7, 59, 0
5, 33916, Note_on_c, 7, 62, 0
5, 33988, Note_on_c, 7, 62, 105
5, 34076, Note_on_c, 7, 62, 0
5, 34092, Note_on_c, 7, 59, 110
5, 34196, Note_on_c, 7, 62, 115
5, 34224, Note_on_c, 7, 59, 0
5, 34436, Note_on_c, 7, 62, 0
5, 34560, Note_on_c, 7, 59, 109
5, 34664, Note_on_c, 7, 59, 0
5, 34752, Note_on_c, 7, 59, 102
5, 34856, Note_on_c, 7, 59, 0
5, 34944, Note_on_c, 7, 59, 111
5, 35020, Note_on_c, 7, 59, 0
5, 35136, Note_on_c, 7, 57, 92
5, 35232, Note_on_c, 7, 57, 0
5, 35336, Note_on_c, 7, 57, 124
5, 35408, Note_on_c, 7, 57, 0
5, 35520, Note_on_c, 7, 57, 127
5, 35680, Note_on_c, 7, 57, 0
5, 35728, Note_on_c, 7, 55, 119
5, 35728, Channel_aftertouch_c, 7, 20
5, 35740, Channel_aftertouch_c, 7, 0
5, 35800, Note_on_c, 7, 55, 0
5, 35904, Note_on_c, 7, 57, 127
5, 35960, Note_on_c, 7, 59, 105
5, 35984, Note_on_c, 7, 57, 0
5, 36008, Channel_aftertouch_c, 7, 3
5, 36024, Channel_aftertouch_c, 7, 6
5, 36036, Channel_aftertouch_c, 7, 8
5, 36048, Channel_aftertouch_c, 7, 8
5, 36064, Channel_aftertouch_c, 7, 9
5, 36076, Channel_aftertouch_c, 7, 12
5, 36088, Channel_aftertouch_c, 7, 13
5, 36104, Channel_aftertouch_c, 7, 14
5, 36120, Channel_aftertouch_c, 7, 9
5, 36132, Channel_aftertouch_c, 7, 5
5, 36156, Channel_aftertouch_c, 7, 8
5, 36168, Channel_aftertouch_c, 7, 10
5, 36184, Channel_aftertouch_c, 7, 11
5, 36196, Channel_aftertouch_c, 7, 11
5, 36208, Channel_aftertouch_c, 7, 13
5, 36224, Channel_aftertouch_c, 7, 14
5, 36236, Channel_aftertouch_c, 7, 15
5, 36248, Channel_aftertouch_c, 7, 15
5, 36276, Channel_aftertouch_c, 7, 16
5, 36288, Channel_aftertouch_c, 7, 17
5, 36304, Channel_aftertouch_c, 7, 18
5, 36352, Channel_aftertouch_c, 7, 16
5, 36364, Channel_aftertouch_c, 7, 14
5, 36380, Channel_aftertouch_c, 7, 13
5, 36392, Channel_aftertouch_c, 7, 11
5, 36404, Channel_aftertouch_c, 7, 8
5, 36420, Channel_aftertouch_c, 7, 3
5, 36432, Channel_aftertouch_c, 7, 0
5, 36520, Channel_aftertouch_c, 7, 3
5, 36536, Channel_aftertouch_c, 7, 0
5, 36624, Note_on_c, 7, 59, 0
5, 36672, Note_on_c, 7, 57, 127
5, 36848, Note_on_c, 7, 57, 0
5, 36864, Control_c, 7, 7, 123
5, 36880, Note_on_c, 7, 55, 127
5, 36880, Control_c, 7, 7, 123
5, 36900, Control_c, 7, 7, 123
5, 36900, Channel_aftertouch_c, 7, 12
5, 36916, Channel_aftertouch_c, 7, 14
5, 36920, Control_c, 7, 7, 123
5, 36928, Channel_aftertouch_c, 7, 6
5, 36940, Control_c, 7, 7, 123
5, 36944, Channel_aftertouch_c, 7, 3
5, 36960, Control_c, 7, 7, 123
5, 36968, Channel_aftertouch_c, 7, 7
5, 36976, Control_c, 7, 7, 123
5, 36984, Channel_aftertouch_c, 7, 10
5, 36996, Control_c, 7, 7, 122
5, 37008, Note_on_c, 7, 55, 0
5, 37016, Control_c, 7, 7, 122
5, 37024, Channel_aftertouch_c, 7, 11
5, 37036, Control_c, 7, 7, 122
5, 37036, Channel_aftertouch_c, 7, 12
5, 37056, Control_c, 7, 7, 122
5, 37056, Note_on_c, 7, 55, 127
5, 37072, Control_c, 7, 7, 122
5, 37076, Channel_aftertouch_c, 7, 13
5, 37088, Channel_aftertouch_c, 7, 15
5, 37092, Control_c, 7, 7, 122
5, 37104, Channel_aftertouch_c, 7, 16
5, 37112, Control_c, 7, 7, 122
5, 37132, Control_c, 7, 7, 121
5, 37144, Channel_aftertouch_c, 7, 10
5, 37152, Control_c, 7, 7, 121
5, 37156, Channel_aftertouch_c, 7, 5
5, 37168, Control_c, 7, 7, 120
5, 37168, Channel_aftertouch_c, 7, 0
5, 37184, Channel_aftertouch_c, 7, 0
5, 37188, Control_c, 7, 7, 119
5, 37208, Control_c, 7, 7, 119
5, 37228, Control_c, 7, 7, 119
5, 37236, Channel_aftertouch_c, 7, 2
5, 37248, Control_c, 7, 7, 118
5, 37264, Control_c, 7, 7, 117
5, 37284, Control_c, 7, 7, 117
5, 37288, Channel_aftertouch_c, 7, 3
5, 37304, Control_c, 7, 7, 116
5, 37324, Control_c, 7, 7, 116
5, 37344, Control_c, 7, 7, 115
5, 37352, Channel_aftertouch_c, 7, 5
5, 37360, Control_c, 7, 7, 114
5, 37364, Channel_aftertouch_c, 7, 7
5, 37376, Channel_aftertouch_c, 7, 10
5, 37380, Control_c, 7, 7, 114
5, 37392, Channel_aftertouch_c, 7, 11
5, 37400, Control_c, 7, 7, 113
5, 37416, Channel_aftertouch_c, 7, 9
5, 37420, Control_c, 7, 7, 113
5, 37428, Channel_aftertouch_c, 7, 0
5, 37440, Control_c, 7, 7, 113
5, 37456, Control_c, 7, 7, 112
5, 37476, Control_c, 7, 7, 112
5, 37496, Control_c, 7, 7, 112
5, 37516, Control_c, 7, 7, 112
5, 37536, Control_c, 7, 7, 111
5, 37552, Control_c, 7, 7, 111
5, 37572, Control_c, 7, 7, 110
5, 37592, Control_c, 7, 7, 109
5, 37612, Control_c, 7, 7, 109
5, 37632, Control_c, 7, 7, 107
5, 37648, Control_c, 7, 7, 107
5, 37668, Control_c, 7, 7, 107
5, 37688, Control_c, 7, 7, 106
5, 37708, Control_c, 7, 7, 105
5, 37728, Control_c, 7, 7, 104
5, 37744, Control_c, 7, 7, 103
5, 37764, Control_c, 7, 7, 103
5, 37784, Control_c, 7, 7, 102
5, 37804, Control_c, 7, 7, 101
5, 37824, Control_c, 7, 7, 101
5, 37840, Control_c, 7, 7, 100
5, 37860, Control_c, 7, 7, 99
5, 37880, Control_c, 7, 7, 99
5, 37900, Control_c, 7, 7, 98
5, 37920, Control_c, 7, 7, 98
5, 37936, Control_c, 7, 7, 97
5, 37956, Control_c, 7, 7, 96
5, 37976, Control_c, 7, 7, 94
5, 37996, Control_c, 7, 7, 94
5, 38016, Control_c, 7, 7, 93
5, 38032, Control_c, 7, 7, 93
5, 38052, Control_c, 7, 7, 92
5, 38072, Control_c, 7, 7, 92
5, 38092, Control_c, 7, 7, 91
5, 38112, Control_c, 7, 7, 90
5, 38128, Control_c, 7, 7, 89
5, 38148, Control_c, 7, 7, 88
5, 38168, Control_c, 7, 7, 87
5, 38188, Control_c, 7, 7, 86
5, 38208, Control_c, 7, 7, 85
5, 38224, Control_c, 7, 7, 84
5, 38244, Control_c, 7, 7, 83
5, 38264, Control_c, 7, 7, 82
5, 38284, Control_c, 7, 7, 81
5, 38304, Control_c, 7, 7, 79
5, 38320, Control_c, 7, 7, 77
5, 38340, Control_c, 7, 7, 75
5, 38360, Control_c, 7, 7, 74
5, 38380, Control_c, 7, 7, 73
5, 38400, Control_c, 7, 7, 72
5, 38416, Control_c, 7, 7, 71
5, 38436, Control_c, 7, 7, 70
5, 38456, Control_c, 7, 7, 69
5, 38476, Control_c, 7, 7, 68
5, 38496, Control_c, 7, 7, 67
5, 38504, Note_on_c, 7, 55, 0
5, 38512, Control_c, 7, 7, 66
5, 38532, Control_c, 7, 7, 65
5, 38552, Control_c, 7, 7, 64
5, 38572, Control_c, 7, 7, 63
5, 38592, Control_c, 7, 7, 61
5, 38608, Control_c, 7, 7, 60
5, 38628, Control_c, 7, 7, 58
5, 38648, Control_c, 7, 7, 57
5, 38668, Control_c, 7, 7, 51
5, 38688, Control_c, 7, 7, 48
5, 38704, Control_c, 7, 7, 44
5, 38724, Control_c, 7, 7, 44
5, 38744, Control_c, 7, 7, 51
5, 38764, Control_c, 7, 7, 44
5, 38784, Control_c, 7, 7, 45
5, 38800, Control_c, 7, 7, 45
5, 38820, Control_c, 7, 7, 45
5, 38840, Control_c, 7, 7, 45
5, 38860, Control_c, 7, 7, 45
5, 38880, Control_c, 7, 7, 45
5, 38896, Control_c, 7, 7, 45
5, 38916, Control_c, 7, 7, 45
5, 38936, Control_c, 7, 7, 45
5, 38956, Control_c, 7, 7, 45
5, 38976, Control_c, 7, 7, 45
5, 38992, Control_c, 7, 7, 45
5, 39012, Control_c, 7, 7, 45
5, 39032, Control_c, 7, 7, 45
5, 39052, Control_c, 7, 7, 45
5, 39072, Control_c, 7, 7, 45
5, 39088, Control_c, 7, 7, 45
5, 39108, Control_c, 7, 7, 45
5, 39128, Control_c, 7, 7, 45
5, 39148, Control_c, 7, 7, 45
5, 39168, Control_c, 7, 7, 45
5, 39184, Control_c, 7, 7, 45
5, 39204, Control_c, 7, 7, 45
5, 39224, Control_c, 7, 7, 44
5, 39244, Control_c, 7, 7, 44
5, 39264, Control_c, 7, 7, 44
5, 39280, Control_c, 7, 7, 44
5, 39300, Control_c, 7, 7, 44
5, 39320, Control_c, 7, 7, 44
5, 39340, Control_c, 7, 7, 44
5, 39360, Control_c, 7, 7, 44
5, 39360, Note_on_c, 7, 67, 110
5, 39376, Control_c, 7, 7, 44
5, 39396, Control_c, 7, 7, 44
5, 39416, Control_c, 7, 7, 44
5, 39436, Control_c, 7, 7, 43
5, 39456, Control_c, 7, 7, 44
5, 39472, Control_c, 7, 7, 44
5, 39492, Control_c, 7, 7, 44
5, 39512, Control_c, 7, 7, 44
5, 39532, Control_c, 7, 7, 44
5, 39544, Note_on_c, 7, 67, 0
5, 39552, Control_c, 7, 7, 44
5, 39552, Note_on_c, 7, 66, 127
5, 39568, Control_c, 7, 7, 44
5, 39588, Control_c, 7, 7, 44
5, 39608, Control_c, 7, 7, 44
5, 39628, Control_c, 7, 7, 44
5, 39648, Control_c, 7, 7, 44
5, 39664, Control_c, 7, 7, 44
5, 39684, Control_c, 7, 7, 44
5, 39704, Control_c, 7, 7, 44
5, 39724, Control_c, 7, 7, 43
5, 39744, Control_c, 7, 7, 43
5, 39916, Control_c, 7, 7, 123
5, 40128, Note_on_c, 7, 64, 92
5, 40144, Note_on_c, 7, 66, 0
5, 40188, Channel_aftertouch_c, 7, 6
5, 40200, Channel_aftertouch_c, 7, 1
5, 40216, Channel_aftertouch_c, 7, 0
5, 40252, Channel_aftertouch_c, 7, 5
5, 40264, Channel_aftertouch_c, 7, 9
5, 40280, Channel_aftertouch_c, 7, 12
5, 40292, Channel_aftertouch_c, 7, 14
5, 40320, Note_on_c, 7, 59, 108
5, 40320, Channel_aftertouch_c, 7, 4
5, 40332, Channel_aftertouch_c, 7, 0
5, 40336, Note_on_c, 7, 64, 0
5, 40416, Note_on_c, 7, 57, 108
5, 40436, Note_on_c, 7, 59, 0
5, 40512, Note_on_c, 7, 55, 100
5, 40512, Channel_aftertouch_c, 7, 23
5, 40528, Channel_aftertouch_c, 7, 0
5, 40648, Note_on_c, 7, 57, 0
5, 41576, Note_on_c, 7, 55, 0
5, 42816, Note_on_c, 7, 59, 100
5, 42888, Note_on_c, 7, 59, 0
5, 43024, Note_on_c, 7, 59, 108
5, 43192, Note_on_c, 7, 61, 113
5, 43208, Note_on_c, 7, 59, 0
5, 43296, Note_on_c, 7, 61, 0
5, 43392, Note_on_c, 7, 61, 117
5, 43680, Note_on_c, 7, 59, 104
5, 43696, Note_on_c, 7, 61, 0
5, 43732, Note_on_c, 7, 57, 104
5, 43756, Note_on_c, 7, 59, 0
5, 44108, Channel_aftertouch_c, 7, 3
5, 44148, Channel_aftertouch_c, 7, 1
5, 44160, Channel_aftertouch_c, 7, 0
5, 44200, Channel_aftertouch_c, 7, 2
5, 44212, Channel_aftertouch_c, 7, 4
5, 44228, Channel_aftertouch_c, 7, 5
5, 44240, Channel_aftertouch_c, 7, 3
5, 44256, Channel_aftertouch_c, 7, 0
5, 44680, Channel_aftertouch_c, 7, 2
5, 44692, Channel_aftertouch_c, 7, 4
5, 44716, Channel_aftertouch_c, 7, 2
5, 44768, Channel_aftertouch_c, 7, 4
5, 44780, Channel_aftertouch_c, 7, 5
5, 44792, Channel_aftertouch_c, 7, 6
5, 44816, Channel_aftertouch_c, 7, 0
5, 44824, Note_on_c, 7, 57, 0
5, 45892, Note_on_c, 7, 59, 113
5, 46064, Note_on_c, 7, 59, 0
5, 46064, Note_on_c, 7, 57, 104
5, 46152, Note_on_c, 7, 57, 0
5, 46260, Note_on_c, 7, 57, 100
5, 46308, Note_on_c, 7, 59, 104
5, 46332, Note_on_c, 7, 57, 0
5, 47808, Channel_aftertouch_c, 7, 2
5, 47820, Channel_aftertouch_c, 7, 2
5, 47832, Channel_aftertouch_c, 7, 3
5, 47848, Channel_aftertouch_c, 7, 5
5, 47860, Channel_aftertouch_c, 7, 6
5, 47896, Channel_aftertouch_c, 7, 1
5, 47908, Channel_aftertouch_c, 7, 0
5, 47916, Note_on_c, 7, 59, 0
5, 48572, Note_on_c, 7, 57, 117
5, 48572, Channel_aftertouch_c, 7, 23
5, 48584, Channel_aftertouch_c, 7, 0
5, 48756, Note_on_c, 7, 55, 108
5, 48760, Note_on_c, 7, 57, 0
5, 48848, Note_on_c, 7, 55, 0
5, 48984, Note_on_c, 7, 57, 113
5, 49008, Note_on_c, 7, 59, 113
5, 49028, Channel_aftertouch_c, 7, 25
5, 49040, Channel_aftertouch_c, 7, 0
5, 49056, Note_on_c, 7, 57, 0
5, 49072, Channel_aftertouch_c, 7, 6
5, 49084, Channel_aftertouch_c, 7, 2
5, 49096, Channel_aftertouch_c, 7, 0
5, 49232, Channel_aftertouch_c, 7, 5
5, 49248, Channel_aftertouch_c, 7, 6
5, 49264, Channel_aftertouch_c, 7, 7
5, 49276, Channel_aftertouch_c, 7, 8
5, 49288, Channel_aftertouch_c, 7, 8
5, 49304, Channel_aftertouch_c, 7, 9
5, 49340, Channel_aftertouch_c, 7, 9
5, 49352, Channel_aftertouch_c, 7, 10
5, 49368, Channel_aftertouch_c, 7, 11
5, 49380, Channel_aftertouch_c, 7, 11
5, 49544, Channel_aftertouch_c, 7, 8
5, 49556, Channel_aftertouch_c, 7, 4
5, 49568, Channel_aftertouch_c, 7, 1
5, 49620, Channel_aftertouch_c, 7, 0
5, 50688, Control_c, 7, 7, 127
5, 51096, Note_on_c, 7, 59, 0
5, 51648, Note_on_c, 7, 59, 108
5, 51784, Note_on_c, 7, 59, 0
5, 51840, Note_on_c, 7, 62, 102
5, 52136, Note_on_c, 7, 62, 0
5, 52236, Note_on_c, 7, 62, 108
5, 52368, Note_on_c, 7, 62, 0
5, 52416, Note_on_c, 7, 62, 108
5, 52464, Channel_aftertouch_c, 7, 5
5, 52476, Channel_aftertouch_c, 7, 5
5, 52488, Channel_aftertouch_c, 7, 0
5, 52568, Note_on_c, 7, 62, 0
5, 52608, Note_on_c, 7, 62, 115
5, 52624, Control_c, 7, 7, 127
5, 52644, Control_c, 7, 7, 127
5, 52664, Control_c, 7, 7, 126
5, 52680, Note_on_c, 7, 62, 0
5, 52684, Control_c, 7, 7, 126
5, 52704, Control_c, 7, 7, 126
5, 52704, Note_on_c, 7, 59, 104
5, 52720, Control_c, 7, 7, 126
5, 52740, Control_c, 7, 7, 126
5, 52760, Control_c, 7, 7, 126
5, 52780, Control_c, 7, 7, 126
5, 52800, Control_c, 7, 7, 126
5, 52816, Control_c, 7, 7, 126
5, 52836, Control_c, 7, 7, 126
5, 52856, Control_c, 7, 7, 127
5, 52876, Control_c, 7, 7, 127
5, 52896, Control_c, 7, 7, 127
5, 52912, Control_c, 7, 7, 127
5, 52932, Control_c, 7, 7, 127
5, 52952, Control_c, 7, 7, 127
5, 52972, Control_c, 7, 7, 127
5, 52992, Control_c, 7, 7, 127
5, 53008, Control_c, 7, 7, 127
5, 53028, Control_c, 7, 7, 126
5, 53048, Control_c, 7, 7, 126
5, 53068, Control_c, 7, 7, 126
5, 53088, Control_c, 7, 7, 126
5, 53104, Control_c, 7, 7, 126
5, 53124, Control_c, 7, 7, 126
5, 53144, Control_c, 7, 7, 126
5, 53164, Control_c, 7, 7, 125
5, 53184, Control_c, 7, 7, 125
5, 53200, Control_c, 7, 7, 123
5, 53220, Control_c, 7, 7, 123
5, 53240, Control_c, 7, 7, 123
5, 53260, Control_c, 7, 7, 123
5, 53280, Control_c, 7, 7, 123
5, 53296, Control_c, 7, 7, 123
5, 53316, Control_c, 7, 7, 123
5, 53336, Control_c, 7, 7, 122
5, 53356, Control_c, 7, 7, 122
5, 53376, Control_c, 7, 7, 121
5, 53392, Control_c, 7, 7, 120
5, 53412, Control_c, 7, 7, 120
5, 53432, Control_c, 7, 7, 119
5, 53452, Control_c, 7, 7, 118
5, 53472, Control_c, 7, 7, 117
5, 53488, Control_c, 7, 7, 116
5, 53508, Control_c, 7, 7, 115
5, 53528, Control_c, 7, 7, 114
5, 53548, Control_c, 7, 7, 113
5, 53568, Control_c, 7, 7, 112
5, 53584, Control_c, 7, 7, 111
5, 53604, Control_c, 7, 7, 110
5, 53624, Control_c, 7, 7, 108
5, 53644, Control_c, 7, 7, 107
5, 53664, Control_c, 7, 7, 103
5, 53680, Control_c, 7, 7, 102
5, 53700, Control_c, 7, 7, 102
5, 53720, Control_c, 7, 7, 101
5, 53740, Control_c, 7, 7, 101
5, 53760, Control_c, 7, 7, 100
5, 53776, Control_c, 7, 7, 98
5, 53796, Control_c, 7, 7, 97
5, 53816, Control_c, 7, 7, 96
5, 53840, Note_on_c, 7, 59, 0
5, 54048, Control_c, 7, 7, 127
5, 54720, Note_on_c, 7, 59, 100
5, 54832, Note_on_c, 7, 59, 0
5, 54916, Note_on_c, 7, 62, 100
5, 54920, Channel_aftertouch_c, 7, 38
5, 54932, Channel_aftertouch_c, 7, 0
5, 54976, Note_on_c, 7, 64, 89
5, 55008, Note_on_c, 7, 62, 0
5, 55028, Channel_aftertouch_c, 7, 4
5, 55040, Channel_aftertouch_c, 7, 8
5, 55056, Channel_aftertouch_c, 7, 9
5, 55064, Channel_aftertouch_c, 7, 6
5, 55080, Channel_aftertouch_c, 7, 2
5, 55096, Channel_aftertouch_c, 7, 0
5, 55260, Note_on_c, 7, 64, 0
5, 55296, Note_on_c, 7, 62, 115
5, 55408, Note_on_c, 7, 62, 0
5, 55488, Note_on_c, 7, 62, 95
5, 55680, Note_on_c, 7, 59, 100
5, 55688, Note_on_c, 7, 62, 0
5, 55696, Control_c, 7, 7, 127
5, 55716, Control_c, 7, 7, 127
5, 55736, Control_c, 7, 7, 126
5, 55756, Control_c, 7, 7, 126
5, 55776, Control_c, 7, 7, 126
5, 55792, Control_c, 7, 7, 126
5, 55812, Control_c, 7, 7, 126
5, 55832, Control_c, 7, 7, 126
5, 55852, Control_c, 7, 7, 126
5, 55872, Control_c, 7, 7, 126
5, 55888, Control_c, 7, 7, 126
5, 55908, Control_c, 7, 7, 126
5, 55928, Control_c, 7, 7, 127
5, 55948, Control_c, 7, 7, 127
5, 55968, Control_c, 7, 7, 127
5, 55984, Control_c, 7, 7, 127
5, 56004, Control_c, 7, 7, 127
5, 56024, Control_c, 7, 7, 127
5, 56044, Control_c, 7, 7, 127
5, 56064, Control_c, 7, 7, 127
5, 56080, Control_c, 7, 7, 127
5, 56100, Control_c, 7, 7, 126
5, 56120, Control_c, 7, 7, 126
5, 56140, Control_c, 7, 7, 126
5, 56160, Control_c, 7, 7, 126
5, 56176, Control_c, 7, 7, 125
5, 56196, Control_c, 7, 7, 124
5, 56216, Control_c, 7, 7, 123
5, 56236, Control_c, 7, 7, 122
5, 56256, Control_c, 7, 7, 122
5, 56272, Control_c, 7, 7, 121
5, 56292, Control_c, 7, 7, 120
5, 56312, Control_c, 7, 7, 120
5, 56332, Control_c, 7, 7, 120
5, 56352, Control_c, 7, 7, 118
5, 56368, Control_c, 7, 7, 117
5, 56388, Control_c, 7, 7, 116
5, 56408, Control_c, 7, 7, 115
5, 56428, Control_c, 7, 7, 114
5, 56448, Control_c, 7, 7, 113
5, 56464, Control_c, 7, 7, 112
5, 56484, Control_c, 7, 7, 111
5, 56504, Control_c, 7, 7, 109
5, 56524, Control_c, 7, 7, 108
5, 56544, Control_c, 7, 7, 106
5, 56560, Control_c, 7, 7, 105
5, 56580, Control_c, 7, 7, 105
5, 56600, Control_c, 7, 7, 104
5, 56620, Control_c, 7, 7, 103
5, 56640, Control_c, 7, 7, 101
5, 56656, Control_c, 7, 7, 100
5, 56676, Control_c, 7, 7, 99
5, 56696, Control_c, 7, 7, 97
5, 56704, Note_on_c, 7, 59, 0
5, 56716, Control_c, 7, 7, 92
5, 56736, Control_c, 7, 7, 82
5, 56752, Control_c, 7, 7, 84
5, 56772, Control_c, 7, 7, 83
5, 56792, Control_c, 7, 7, 82
5, 56812, Control_c, 7, 7, 80
5, 56832, Control_c, 7, 7, 77
5, 56848, Control_c, 7, 7, 76
5, 56868, Control_c, 7, 7, 72
5, 56888, Control_c, 7, 7, 71
5, 57120, Control_c, 7, 7, 127
5, 58176, Note_on_c, 7, 59, 100
5, 58244, Note_on_c, 7, 59, 0
5, 58388, Note_on_c, 7, 60, 100
5, 58424, Note_on_c, 7, 62, 85
5, 58448, Note_on_c, 7, 60, 0
5, 58740, Note_on_c, 7, 59, 96
5, 58744, Note_on_c, 7, 62, 0
5, 58892, Note_on_c, 7, 59, 0
5, 58940, Note_on_c, 7, 62, 104
5, 59336, Note_on_c, 7, 59, 89
5, 59356, Note_on_c, 7, 62, 0
5, 59432, Note_on_c, 7, 59, 0
5, 59432, Note_on_c, 7, 62, 100
5, 59712, Note_on_c, 7, 62, 0
5, 59712, Note_on_c, 7, 64, 92
5, 59800, Channel_aftertouch_c, 7, 6
5, 59816, Channel_aftertouch_c, 7, 10
5, 59832, Channel_aftertouch_c, 7, 12
5, 59848, Channel_aftertouch_c, 7, 9
5, 59864, Channel_aftertouch_c, 7, 6
5, 59892, Channel_aftertouch_c, 7, 8
5, 59908, Channel_aftertouch_c, 7, 10
5, 59920, Channel_aftertouch_c, 7, 7
5, 59936, Channel_aftertouch_c, 7, 4
5, 59980, Channel_aftertouch_c, 7, 7
5, 60008, Channel_aftertouch_c, 7, 3
5, 60024, Channel_aftertouch_c, 7, 0
5, 60036, Note_on_c, 7, 64, 0
5, 60096, Note_on_c, 7, 62, 92
5, 60188, Note_on_c, 7, 62, 0
5, 60192, Note_on_c, 7, 62, 97
5, 60284, Note_on_c, 7, 62, 0
5, 60288, Note_on_c, 7, 62, 92
5, 60380, Note_on_c, 7, 62, 0
5, 60384, Note_on_c, 7, 59, 92
5, 60464, Note_on_c, 7, 59, 0
5, 60480, Note_on_c, 7, 59, 96
5, 60664, Note_on_c, 7, 59, 0
5, 60672, Note_on_c, 7, 59, 88
5, 61016, Note_on_c, 7, 59, 0
5, 61056, Note_on_c, 7, 59, 97
5, 61080, Channel_aftertouch_c, 7, 11
5, 61092, Channel_aftertouch_c, 7, 0
5, 61248, Note_on_c, 7, 59, 0
5, 61248, Note_on_c, 7, 59, 111
5, 61440, Note_on_c, 7, 59, 0
5, 61440, Note_on_c, 7, 57, 80
5, 61540, Channel_aftertouch_c, 7, 3
5, 61552, Channel_aftertouch_c, 7, 6
5, 61568, Channel_aftertouch_c, 7, 10
5, 61584, Channel_aftertouch_c, 7, 14
5, 61596, Channel_aftertouch_c, 7, 17
5, 61612, Channel_aftertouch_c, 7, 18
5, 61628, Channel_aftertouch_c, 7, 19
5, 61632, Note_on_c, 7, 57, 0
5, 61632, Note_on_c, 7, 57, 112
5, 61652, Channel_aftertouch_c, 7, 20
5, 61680, Channel_aftertouch_c, 7, 18
5, 61696, Channel_aftertouch_c, 7, 15
5, 61748, Channel_aftertouch_c, 7, 15
5, 61760, Channel_aftertouch_c, 7, 14
5, 61816, Channel_aftertouch_c, 7, 17
5, 61824, Note_on_c, 7, 57, 0
5, 61824, Note_on_c, 7, 55, 104
5, 61828, Channel_aftertouch_c, 7, 18
5, 61840, Channel_aftertouch_c, 7, 19
5, 61840, Control_c, 7, 7, 127
5, 61856, Channel_aftertouch_c, 7, 19
5, 61860, Control_c, 7, 7, 127
5, 61872, Channel_aftertouch_c, 7, 20
5, 61880, Control_c, 7, 7, 126
5, 61900, Control_c, 7, 7, 126
5, 61920, Control_c, 7, 7, 126
5, 61936, Channel_aftertouch_c, 7, 18
5, 61936, Control_c, 7, 7, 126
5, 61956, Control_c, 7, 7, 126
5, 61960, Channel_aftertouch_c, 7, 17
5, 61976, Channel_aftertouch_c, 7, 15
5, 61976, Control_c, 7, 7, 126
5, 61992, Channel_aftertouch_c, 7, 14
5, 61996, Control_c, 7, 7, 126
5, 62004, Channel_aftertouch_c, 7, 13
5, 62016, Control_c, 7, 7, 126
5, 62032, Control_c, 7, 7, 126
5, 62044, Channel_aftertouch_c, 7, 12
5, 62052, Control_c, 7, 7, 126
5, 62056, Channel_aftertouch_c, 7, 10
5, 62072, Channel_aftertouch_c, 7, 9
5, 62072, Control_c, 7, 7, 127
5, 62084, Channel_aftertouch_c, 7, 7
5, 62092, Control_c, 7, 7, 127
5, 62096, Channel_aftertouch_c, 7, 3
5, 62112, Channel_aftertouch_c, 7, 0
5, 62112, Control_c, 7, 7, 127
5, 62128, Control_c, 7, 7, 127
5, 62148, Control_c, 7, 7, 127
5, 62168, Control_c, 7, 7, 127
5, 62188, Control_c, 7, 7, 127
5, 62208, Control_c, 7, 7, 127
5, 62224, Control_c, 7, 7, 127
5, 62244, Control_c, 7, 7, 126
5, 62264, Control_c, 7, 7, 126
5, 62284, Control_c, 7, 7, 126
5, 62304, Control_c, 7, 7, 126
5, 62320, Control_c, 7, 7, 126
5, 62340, Control_c, 7, 7, 126
5, 62360, Control_c, 7, 7, 126
5, 62380, Control_c, 7, 7, 125
5, 62400, Control_c, 7, 7, 125
5, 62416, Control_c, 7, 7, 123
5, 62436, Control_c, 7, 7, 123
5, 62456, Control_c, 7, 7, 123
5, 62476, Control_c, 7, 7, 123
5, 62496, Control_c, 7, 7, 123
5, 62512, Control_c, 7, 7, 123
5, 62532, Control_c, 7, 7, 123
5, 62552, Control_c, 7, 7, 122
5, 62572, Control_c, 7, 7, 122
5, 62592, Control_c, 7, 7, 121
5, 62608, Control_c, 7, 7, 120
5, 62628, Control_c, 7, 7, 120
5, 62648, Control_c, 7, 7, 119
5, 62668, Control_c, 7, 7, 118
5, 62688, Control_c, 7, 7, 117
5, 62704, Control_c, 7, 7, 116
5, 62724, Control_c, 7, 7, 115
5, 62744, Control_c, 7, 7, 114
5, 62764, Control_c, 7, 7, 113
5, 62784, Control_c, 7, 7, 112
5, 62800, Control_c, 7, 7, 111
5, 62820, Control_c, 7, 7, 110
5, 62840, Control_c, 7, 7, 108
5, 62856, Note_on_c, 7, 55, 0
5, 62860, Control_c, 7, 7, 107
5, 62880, Control_c, 7, 7, 103
5, 62896, Control_c, 7, 7, 102
5, 62916, Control_c, 7, 7, 102
5, 62936, Control_c, 7, 7, 101
5, 62956, Control_c, 7, 7, 101
5, 62976, Control_c, 7, 7, 100
5, 62992, Control_c, 7, 7, 98
5, 63012, Control_c, 7, 7, 97
5, 63032, Control_c, 7, 7, 96
5, 63264, Control_c, 7, 7, 127
5, 63936, Note_on_c, 7, 64, 82
5, 64088, Note_on_c, 7, 64, 0
5, 64128, Note_on_c, 7, 67, 96
5, 64228, Note_on_c, 7, 67, 0
5, 64320, Note_on_c, 7, 66, 113
5, 64680, Note_on_c, 7, 66, 0
5, 64704, Note_on_c, 7, 62, 85
5, 64804, Note_on_c, 7, 62, 0
5, 64896, Note_on_c, 7, 62, 104
5, 64968, Note_on_c, 7, 62, 0
5, 65088, Note_on_c, 7, 59, 104
5, 65124, Control_c, 7, 7, 124
5, 65144, Control_c, 7, 7, 125
5, 65164, Note_on_c, 7, 59, 0
5, 65164, Control_c, 7, 7, 126
5, 65184, Control_c, 7, 7, 126
5, 65184, Note_on_c, 7, 57, 79
5, 65184, Channel_aftertouch_c, 7, 2
5, 65200, Channel_aftertouch_c, 7, 0
5, 65200, Control_c, 7, 7, 126
5, 65220, Control_c, 7, 7, 126
5, 65240, Control_c, 7, 7, 126
5, 65248, Channel_aftertouch_c, 7, 5
5, 65260, Control_c, 7, 7, 126
5, 65264, Channel_aftertouch_c, 7, 8
5, 65280, Control_c, 7, 7, 127
5, 65292, Channel_aftertouch_c, 7, 9
5, 65296, Control_c, 7, 7, 127
5, 65308, Channel_aftertouch_c, 7, 10
5, 65316, Control_c, 7, 7, 125
5, 65320, Channel_aftertouch_c, 7, 11
5, 65336, Channel_aftertouch_c, 7, 8
5, 65352, Channel_aftertouch_c, 7, 5
5, 65356, Control_c, 7, 7, 125
5, 65364, Channel_aftertouch_c, 7, 3
5, 65376, Control_c, 7, 7, 125
5, 65392, Control_c, 7, 7, 125
5, 65404, Channel_aftertouch_c, 7, 6
5, 65412, Control_c, 7, 7, 125
5, 65416, Channel_aftertouch_c, 7, 7
5, 65432, Control_c, 7, 7, 125
5, 65452, Control_c, 7, 7, 125
5, 65456, Channel_aftertouch_c, 7, 4
5, 65472, Control_c, 7, 7, 125
5, 65472, Channel_aftertouch_c, 7, 3
5, 65488, Channel_aftertouch_c, 7, 2
5, 65488, Control_c, 7, 7, 125
5, 65500, Channel_aftertouch_c, 7, 2
5, 65508, Control_c, 7, 7, 125
5, 65528, Control_c, 7, 7, 125
5, 65528, Channel_aftertouch_c, 7, 4
5, 65544, Channel_aftertouch_c, 7, 5
5, 65548, Control_c, 7, 7, 125
5, 65568, Control_c, 7, 7, 125
5, 65568, Channel_aftertouch_c, 7, 2
5, 65584, Channel_aftertouch_c, 7, 1
5, 65584, Control_c, 7, 7, 125
5, 65604, Control_c, 7, 7, 125
5, 65624, Control_c, 7, 7, 124
5, 65624, Channel_aftertouch_c, 7, 0
5, 65636, Channel_aftertouch_c, 7, 0
5, 65644, Control_c, 7, 7, 125
5, 65664, Control_c, 7, 7, 123
5, 65680, Control_c, 7, 7, 123
5, 65700, Control_c, 7, 7, 123
5, 65720, Control_c, 7, 7, 123
5, 65740, Control_c, 7, 7, 123
5, 65760, Control_c, 7, 7, 122
5, 65776, Control_c, 7, 7, 123
5, 65796, Control_c, 7, 7, 123
5, 65816, Control_c, 7, 7, 122
5, 65836, Control_c, 7, 7, 121
5, 65856, Control_c, 7, 7, 121
5, 65872, Control_c, 7, 7, 119
5, 65892, Control_c, 7, 7, 119
5, 65912, Control_c, 7, 7, 118
5, 65932, Control_c, 7, 7, 118
5, 65952, Control_c, 7, 7, 117
5, 65968, Control_c, 7, 7, 117
5, 65988, Control_c, 7, 7, 116
5, 66008, Control_c, 7, 7, 115
5, 66028, Control_c, 7, 7, 114
5, 66048, Control_c, 7, 7, 113
5, 66064, Control_c, 7, 7, 112
5, 66084, Control_c, 7, 7, 111
5, 66104, Control_c, 7, 7, 109
5, 66124, Control_c, 7, 7, 108
5, 66144, Control_c, 7, 7, 107
5, 66160, Control_c, 7, 7, 107
5, 66180, Control_c, 7, 7, 106
5, 66200, Control_c, 7, 7, 106
5, 66220, Control_c, 7, 7, 105
5, 66240, Control_c, 7, 7, 104
5, 66256, Control_c, 7, 7, 104
5, 66276, Control_c, 7, 7, 104
5, 66296, Control_c, 7, 7, 102
5, 66316, Control_c, 7, 7, 101
5, 66336, Control_c, 7, 7, 99
5, 66352, Control_c, 7, 7, 95
5, 66372, Control_c, 7, 7, 91
5, 66392, Control_c, 7, 7, 89
5, 66432, Control_c, 7, 7, 85
5, 66520, Note_on_c, 7, 57, 0
5, 66544, Control_c, 7, 7, 127
5, 66972, Note_on_c, 7, 60, 108
5, 67044, Note_on_c, 7, 60, 0
5, 67196, Note_on_c, 7, 60, 104
5, 67468, Note_on_c, 7, 60, 0
5, 67480, Note_on_c, 7, 64, 92
5, 67568, Note_on_c, 7, 64, 0
5, 67616, Note_on_c, 7, 62, 121
5, 67616, Channel_aftertouch_c, 7, 81
5, 67632, Channel_aftertouch_c, 7, 0
5, 67776, Note_on_c, 7, 59, 94
5, 67808, Note_on_c, 7, 62, 0
5, 67896, Note_on_c, 7, 59, 0
5, 67968, Note_on_c, 7, 59, 93
5, 68064, Note_on_c, 7, 57, 108
5, 68112, Note_on_c, 7, 59, 0
5, 68140, Control_c, 7, 7, 127
5, 68160, Control_c, 7, 7, 127
5, 68176, Control_c, 7, 7, 127
5, 68196, Control_c, 7, 7, 127
5, 68216, Control_c, 7, 7, 127
5, 68236, Control_c, 7, 7, 127
5, 68256, Control_c, 7, 7, 127
5, 68272, Control_c, 7, 7, 127
5, 68292, Control_c, 7, 7, 127
5, 68312, Control_c, 7, 7, 127
5, 68328, Channel_aftertouch_c, 7, 2
5, 68332, Control_c, 7, 7, 127
5, 68340, Channel_aftertouch_c, 7, 5
5, 68352, Control_c, 7, 7, 127
5, 68352, Channel_aftertouch_c, 7, 8
5, 68368, Control_c, 7, 7, 127
5, 68388, Control_c, 7, 7, 127
5, 68408, Control_c, 7, 7, 127
5, 68408, Channel_aftertouch_c, 7, 9
5, 68428, Control_c, 7, 7, 127
5, 68436, Channel_aftertouch_c, 7, 9
5, 68448, Control_c, 7, 7, 127
5, 68464, Channel_aftertouch_c, 7, 10
5, 68464, Control_c, 7, 7, 127
5, 68484, Control_c, 7, 7, 126
5, 68504, Control_c, 7, 7, 126
5, 68520, Channel_aftertouch_c, 7, 7
5, 68524, Control_c, 7, 7, 126
5, 68532, Channel_aftertouch_c, 7, 6
5, 68544, Control_c, 7, 7, 126
5, 68548, Channel_aftertouch_c, 7, 3
5, 68560, Control_c, 7, 7, 126
5, 68560, Channel_aftertouch_c, 7, 0
5, 68576, Channel_aftertouch_c, 7, 0
5, 68580, Control_c, 7, 7, 126
5, 68600, Control_c, 7, 7, 126
5, 68620, Control_c, 7, 7, 126
5, 68640, Control_c, 7, 7, 126
5, 68656, Control_c, 7, 7, 126
5, 68676, Control_c, 7, 7, 126
5, 68696, Control_c, 7, 7, 126
5, 68716, Control_c, 7, 7, 126
5, 68736, Control_c, 7, 7, 125
5, 68752, Control_c, 7, 7, 125
5, 68772, Control_c, 7, 7, 124
5, 68792, Control_c, 7, 7, 122
5, 68812, Control_c, 7, 7, 122
5, 68832, Control_c, 7, 7, 121
5, 68848, Control_c, 7, 7, 120
5, 68868, Control_c, 7, 7, 120
5, 68888, Control_c, 7, 7, 119
5, 68908, Control_c, 7, 7, 118
5, 68928, Control_c, 7, 7, 118
5, 68944, Control_c, 7, 7, 116
5, 68964, Control_c, 7, 7, 112
5, 68984, Control_c, 7, 7, 110
5, 69004, Control_c, 7, 7, 106
5, 69024, Control_c, 7, 7, 102
5, 69040, Control_c, 7, 7, 100
5, 69060, Control_c, 7, 7, 99
5, 69080, Control_c, 7, 7, 99
5, 69100, Control_c, 7, 7, 97
5, 69120, Control_c, 7, 7, 96
5, 69136, Control_c, 7, 7, 95
5, 69156, Control_c, 7, 7, 92
5, 69176, Control_c, 7, 7, 92
5, 69184, Note_on_c, 7, 57, 0
5, 69196, Control_c, 7, 7, 90
5, 69216, Control_c, 7, 7, 88
5, 69232, Control_c, 7, 7, 85
5, 69252, Control_c, 7, 7, 78
5, 69272, Control_c, 7, 7, 77
5, 69292, Control_c, 7, 7, 76
5, 69312, Control_c, 7, 7, 74
5, 69328, Control_c, 7, 7, 71
5, 69348, Control_c, 7, 7, 69
5, 69368, Control_c, 7, 7, 95
5, 69388, Control_c, 7, 7, 91
5, 69408, Control_c, 7, 7, 89
5, 69444, Control_c, 7, 7, 85
5, 69560, Control_c, 7, 7, 127
5, 70464, Note_on_c, 7, 59, 92
5, 70564, Note_on_c, 7, 59, 0
5, 70656, Note_on_c, 7, 62, 104
5, 70752, Note_on_c, 7, 62, 0
5, 70848, Note_on_c, 7, 62, 85
5, 70976, Note_on_c, 7, 62, 0
5, 71040, Note_on_c, 7, 62, 76
5, 71096, Note_on_c, 7, 62, 0
5, 71232, Note_on_c, 7, 62, 113
5, 71276, Channel_aftertouch_c, 7, 7
5, 71288, Channel_aftertouch_c, 7, 34
5, 71304, Channel_aftertouch_c, 7, 38
5, 71316, Channel_aftertouch_c, 7, 29
5, 71328, Channel_aftertouch_c, 7, 19
5, 71344, Channel_aftertouch_c, 7, 8
5, 71356, Channel_aftertouch_c, 7, 0
5, 71416, Note_on_c, 7, 62, 0
5, 71424, Note_on_c, 7, 59, 79
5, 71512, Note_on_c, 7, 59, 0
5, 71616, Note_on_c, 7, 59, 73
5, 71732, Note_on_c, 7, 59, 0
5, 71808, Note_on_c, 7, 59, 113
5, 71944, Note_on_c, 7, 59, 0
5, 72000, Note_on_c, 7, 57, 104
5, 72120, Note_on_c, 7, 57, 0
5, 72192, Note_on_c, 7, 57, 96
5, 72316, Note_on_c, 7, 57, 0
5, 72384, Note_on_c, 7, 57, 85
5, 72512, Note_on_c, 7, 57, 0
5, 72576, Note_on_c, 7, 57, 92
5, 72736, Note_on_c, 7, 57, 0
5, 72768, Note_on_c, 7, 55, 96
5, 72928, Note_on_c, 7, 55, 0
5, 73024, Note_on_c, 7, 57, 108
5, 73056, Note_on_c, 7, 59, 100
5, 73088, Note_on_c, 7, 57, 0
5, 73344, Note_on_c, 7, 57, 100
5, 73408, Note_on_c, 7, 59, 0
5, 73496, Note_on_c, 7, 57, 0
5, 73536, Note_on_c, 7, 55, 100
5, 73692, Note_on_c, 7, 55, 0
5, 73752, Note_on_c, 7, 55, 117
5, 73808, Channel_aftertouch_c, 7, 21
5, 73820, Channel_aftertouch_c, 7, 59
5, 73832, Channel_aftertouch_c, 7, 55
5, 73848, Channel_aftertouch_c, 7, 25
5, 73864, Channel_aftertouch_c, 7, 19
5, 73880, Channel_aftertouch_c, 7, 25
5, 73892, Channel_aftertouch_c, 7, 31
5, 73976, Channel_aftertouch_c, 7, 25
5, 73988, Channel_aftertouch_c, 7, 20
5, 74000, Channel_aftertouch_c, 7, 18
5, 74016, Channel_aftertouch_c, 7, 17
5, 74032, Channel_aftertouch_c, 7, 16
5, 74044, Channel_aftertouch_c, 7, 13
5, 74060, Channel_aftertouch_c, 7, 11
5, 74072, Channel_aftertouch_c, 7, 8
5, 74088, Channel_aftertouch_c, 7, 5
5, 74100, Channel_aftertouch_c, 7, 2
5, 74116, Channel_aftertouch_c, 7, 0
5, 75016, Note_on_c, 7, 55, 0
5, 76224, Note_on_c, 7, 67, 113
5, 76416, Note_on_c, 7, 66, 113
5, 76428, Note_on_c, 7, 67, 0
5, 76992, Note_on_c, 7, 64, 100
5, 77004, Note_on_c, 7, 66, 0
5, 77044, Channel_aftertouch_c, 7, 2
5, 77056, Channel_aftertouch_c, 7, 0
5, 77112, Note_on_c, 7, 64, 0
5, 77184, Note_on_c, 7, 59, 100
5, 77280, Note_on_c, 7, 57, 108
5, 77296, Note_on_c, 7, 59, 0
5, 77376, Note_on_c, 7, 55, 100
5, 77412, Note_on_c, 7, 57, 0
5, 79088, Note_on_c, 7, 55, 0
5, 79680, Note_on_c, 7, 59, 92
5, 79736, Note_on_c, 7, 59, 0
5, 79872, Note_on_c, 7, 59, 89
5, 80088, Note_on_c, 7, 59, 0
5, 80100, Note_on_c, 7, 61, 80
5, 80244, Note_on_c, 7, 61, 0
5, 80256, Note_on_c, 7, 61, 96
5, 80508, Note_on_c, 7, 61, 0
5, 80544, Note_on_c, 7, 59, 85
5, 80632, Note_on_c, 7, 59, 0
5, 80640, Note_on_c, 7, 57, 104
5, 82484, Note_on_c, 7, 57, 0
5, 82748, Note_on_c, 7, 59, 104
5, 82924, Note_on_c, 7, 59, 0
5, 82944, Note_on_c, 7, 57, 92
5, 83008, Note_on_c, 7, 57, 0
5, 83116, Note_on_c, 7, 57, 108
5, 83160, Note_on_c, 7, 59, 100
5, 83184, Note_on_c, 7, 57, 0
5, 85256, Note_on_c, 7, 59, 0
5, 85460, Note_on_c, 7, 57, 100
5, 85592, Note_on_c, 7, 57, 0
5, 85636, Note_on_c, 7, 55, 96
5, 85728, Note_on_c, 7, 55, 0
5, 85824, Note_on_c, 7, 57, 100
5, 85880, Note_on_c, 7, 59, 104
5, 85888, Note_on_c, 7, 57, 0
5, 87792, Note_on_c, 7, 59, 0
5, 88128, Note_on_c, 7, 67, 104
5, 88512, Note_on_c, 7, 66, 113
5, 88548, Note_on_c, 7, 67, 0
5, 88756, Note_on_c, 7, 66, 0
5, 88896, Note_on_c, 7, 66, 113
5, 89280, Note_on_c, 7, 64, 100
5, 89308, Note_on_c, 7, 66, 0
5, 89332, Channel_aftertouch_c, 7, 4
5, 89348, Channel_aftertouch_c, 7, 26
5, 89372, Channel_aftertouch_c, 7, 20
5, 89384, Channel_aftertouch_c, 7, 16
5, 89412, Channel_aftertouch_c, 7, 19
5, 89428, Channel_aftertouch_c, 7, 21
5, 89440, Channel_aftertouch_c, 7, 22
5, 89452, Channel_aftertouch_c, 7, 23
5, 89476, Channel_aftertouch_c, 7, 18
5, 89492, Channel_aftertouch_c, 7, 14
5, 89504, Channel_aftertouch_c, 7, 10
5, 89520, Channel_aftertouch_c, 7, 3
5, 89532, Channel_aftertouch_c, 7, 0
5, 89552, Note_on_c, 7, 64, 0
5, 89664, Note_on_c, 7, 59, 104
5, 89760, Note_on_c, 7, 57, 92
5, 89768, Note_on_c, 7, 59, 0
5, 89856, Note_on_c, 7, 55, 100
5, 89888, Note_on_c, 7, 57, 0
5, 90416, Channel_aftertouch_c, 7, 2
5, 90432, Channel_aftertouch_c, 7, 2
5, 90448, Channel_aftertouch_c, 7, 0
5, 91248, Note_on_c, 7, 55, 0
5, 91968, Note_on_c, 7, 59, 104
5, 92144, Note_on_c, 7, 59, 0
5, 92160, Note_on_c, 7, 59, 85
5, 92304, Note_on_c, 7, 59, 0
5, 92352, Note_on_c, 7, 61, 104
5, 92512, Note_on_c, 7, 61, 0
5, 92544, Note_on_c, 7, 61, 96
5, 92816, Note_on_c, 7, 61, 0
5, 92832, Note_on_c, 7, 59, 82
5, 92928, Note_on_c, 7, 57, 100
5, 92980, Note_on_c, 7, 59, 0
5, 94208, Note_on_c, 7, 57, 0
5, 94464, Note_on_c, 7, 59, 108
5, 94656, Note_on_c, 7, 62, 100
5, 94716, Note_on_c, 7, 59, 0
5, 94720, Channel_aftertouch_c, 7, 22
5, 94736, Channel_aftertouch_c, 7, 0
5, 94828, Note_on_c, 7, 62, 0
5, 94944, Note_on_c, 7, 62, 100
5, 95080, Note_on_c, 7, 62, 0
5, 95220, Note_on_c, 7, 62, 108
5, 95280, Note_on_c, 7, 64, 73
5, 95316, Note_on_c, 7, 62, 0
5, 95316, Channel_aftertouch_c, 7, 7
5, 95328, Channel_aftertouch_c, 7, 14
5, 95340, Channel_aftertouch_c, 7, 17
5, 95352, Channel_aftertouch_c, 7, 14
5, 95368, Channel_aftertouch_c, 7, 7
5, 95380, Channel_aftertouch_c, 7, 0
5, 95424, Note_on_c, 7, 62, 100
5, 95448, Note_on_c, 7, 64, 0
5, 95584, Note_on_c, 7, 62, 0
5, 95712, Note_on_c, 7, 62, 104
5, 95848, Note_on_c, 7, 62, 0
5, 96000, Note_on_c, 7, 62, 127
5, 96028, Channel_aftertouch_c, 7, 83
5, 96044, Channel_aftertouch_c, 7, 0
5, 96056, Channel_aftertouch_c, 7, 13
5, 96072, Channel_aftertouch_c, 7, 6
5, 96084, Channel_aftertouch_c, 7, 0
5, 96268, Channel_aftertouch_c, 7, 41
5, 96280, Channel_aftertouch_c, 7, 38
5, 96296, Note_on_c, 7, 62, 0
5, 96296, Channel_aftertouch_c, 7, 0
5, 96576, Note_on_c, 7, 59, 89
5, 96712, Note_on_c, 7, 59, 0
5, 96768, Note_on_c, 7, 59, 122
5, 96936, Note_on_c, 7, 59, 0
5, 97020, Channel_aftertouch_c, 7, 10
5, 97024, Note_on_c, 7, 59, 104
5, 97036, Channel_aftertouch_c, 7, 3
5, 97052, Channel_aftertouch_c, 7, 0
5, 97168, Note_on_c, 7, 59, 0
5, 97280, Note_on_c, 7, 59, 113
5, 97404, Note_on_c, 7, 59, 0
5, 97536, Note_on_c, 7, 59, 122
5, 97792, Note_on_c, 7, 57, 117
5, 97804, Note_on_c, 7, 59, 0
5, 97916, Note_on_c, 7, 57, 0
5, 98032, Channel_aftertouch_c, 7, 82
5, 98044, Channel_aftertouch_c, 7, 0
5, 98048, Note_on_c, 7, 55, 104
5, 98056, Note_on_c, 7, 57, 108
5, 98108, Note_on_c, 7, 55, 0
5, 98276, Note_on_c, 7, 57, 0
5, 98324, Note_on_c, 7, 55, 113
5, 98352, Channel_aftertouch_c, 7, 11
5, 98364, Channel_aftertouch_c, 7, 13
5, 98376, Channel_aftertouch_c, 7, 8
5, 98388, Channel_aftertouch_c, 7, 6
5, 98504, Channel_aftertouch_c, 7, 6
5, 98516, Channel_aftertouch_c, 7, 5
5, 98532, Channel_aftertouch_c, 7, 3
5, 98544, Channel_aftertouch_c, 7, 1
5, 98552, Channel_aftertouch_c, 7, 0
5, 99556, Note_on_c, 7, 55, 0
5, 99840, Note_on_c, 7, 59, 108
5, 100392, Note_on_c, 7, 59, 0
5, 100416, Note_on_c, 7, 60, 69
5, 100584, Note_on_c, 7, 60, 0
5, 100608, Note_on_c, 7, 59, 108
5, 100976, Note_on_c, 7, 57, 108
5, 101008, Note_on_c, 7, 59, 0
5, 101228, Note_on_c, 7, 57, 0
5, 101248, Note_on_c, 7, 59, 96
5, 101304, Note_on_c, 7, 57, 100
5, 101328, Note_on_c, 7, 59, 0
5, 101376, Note_on_c, 7, 57, 0
5, 101392, Note_on_c, 7, 55, 100
5, 102608, Note_on_c, 7, 55, 0
5, 102920, Note_on_c, 7, 59, 113
5, 102920, Channel_aftertouch_c, 7, 86
5, 102932, Channel_aftertouch_c, 7, 0
5, 103448, Note_on_c, 7, 59, 0
5, 103488, Note_on_c, 7, 60, 72
5, 103656, Note_on_c, 7, 60, 0
5, 103672, Note_on_c, 7, 59, 104
5, 104052, Note_on_c, 7, 57, 108
5, 104076, Note_on_c, 7, 59, 0
5, 104280, Note_on_c, 7, 57, 0
5, 104308, Note_on_c, 7, 59, 100
5, 104368, Note_on_c, 7, 57, 104
5, 104392, Note_on_c, 7, 59, 0
5, 104440, Note_on_c, 7, 57, 0
5, 104448, Note_on_c, 7, 55, 100
5, 105592, Note_on_c, 7, 55, 0
5, 105796, Note_on_c, 7, 57, 104
5, 105860, Note_on_c, 7, 57, 0
5, 106000, Note_on_c, 7, 59, 104
5, 106528, Note_on_c, 7, 59, 0
5, 106552, Note_on_c, 7, 60, 78
5, 106756, Note_on_c, 7, 60, 0
5, 106764, Note_on_c, 7, 59, 113
5, 107136, Note_on_c, 7, 57, 108
5, 107160, Note_on_c, 7, 59, 0
5, 107316, Note_on_c, 7, 57, 0
5, 107328, Note_on_c, 7, 55, 100
5, 107484, Note_on_c, 7, 55, 0
5, 107516, Note_on_c, 7, 57, 92
5, 107520, Control_c, 7, 7, 123
5, 107536, Control_c, 7, 7, 123
5, 107556, Control_c, 7, 7, 123
5, 107576, Control_c, 7, 7, 123
5, 107596, Control_c, 7, 7, 123
5, 107616, Control_c, 7, 7, 123
5, 107632, Control_c, 7, 7, 123
5, 107652, Control_c, 7, 7, 123
5, 107672, Control_c, 7, 7, 123
5, 107692, Control_c, 7, 7, 123
5, 107712, Control_c, 7, 7, 119
5, 107716, Channel_aftertouch_c, 7, 3
5, 107728, Control_c, 7, 7, 119
5, 107728, Channel_aftertouch_c, 7, 4
5, 107748, Control_c, 7, 7, 121
5, 107756, Channel_aftertouch_c, 7, 1
5, 107768, Control_c, 7, 7, 121
5, 107768, Channel_aftertouch_c, 7, 0
5, 107788, Control_c, 7, 7, 120
5, 107796, Channel_aftertouch_c, 7, 3
5, 107808, Control_c, 7, 7, 120
5, 107808, Channel_aftertouch_c, 7, 4
5, 107824, Control_c, 7, 7, 120
5, 107844, Control_c, 7, 7, 120
5, 107848, Channel_aftertouch_c, 7, 5
5, 107864, Channel_aftertouch_c, 7, 6
5, 107864, Control_c, 7, 7, 119
5, 107876, Channel_aftertouch_c, 7, 7
5, 107884, Control_c, 7, 7, 119
5, 107888, Channel_aftertouch_c, 7, 8
5, 107904, Control_c, 7, 7, 119
5, 107904, Channel_aftertouch_c, 7, 9
5, 107916, Channel_aftertouch_c, 7, 10
5, 107920, Control_c, 7, 7, 118
5, 107940, Control_c, 7, 7, 118
5, 107960, Control_c, 7, 7, 118
5, 107980, Control_c, 7, 7, 117
5, 107996, Channel_aftertouch_c, 7, 7
5, 108000, Control_c, 7, 7, 117
5, 108008, Channel_aftertouch_c, 7, 5
5, 108016, Control_c, 7, 7, 117
5, 108036, Control_c, 7, 7, 117
5, 108048, Channel_aftertouch_c, 7, 5
5, 108056, Control_c, 7, 7, 116
5, 108060, Channel_aftertouch_c, 7, 0
5, 108076, Control_c, 7, 7, 115
5, 108096, Control_c, 7, 7, 114
5, 108112, Control_c, 7, 7, 113
5, 108132, Control_c, 7, 7, 112
5, 108152, Control_c, 7, 7, 111
5, 108172, Control_c, 7, 7, 111
5, 108172, Channel_aftertouch_c, 7, 2
5, 108184, Channel_aftertouch_c, 7, 9
5, 108192, Control_c, 7, 7, 110
5, 108200, Channel_aftertouch_c, 7, 12
5, 108208, Control_c, 7, 7, 109
5, 108224, Channel_aftertouch_c, 7, 9
5, 108228, Control_c, 7, 7, 109
5, 108240, Channel_aftertouch_c, 7, 8
5, 108248, Control_c, 7, 7, 108
5, 108252, Channel_aftertouch_c, 7, 7
5, 108264, Channel_aftertouch_c, 7, 0
5, 108268, Control_c, 7, 7, 107
5, 108280, Channel_aftertouch_c, 7, 0
5, 108288, Control_c, 7, 7, 105
5, 108304, Control_c, 7, 7, 105
5, 108324, Control_c, 7, 7, 103
5, 108344, Control_c, 7, 7, 102
5, 108364, Control_c, 7, 7, 101
5, 108384, Control_c, 7, 7, 99
5, 108400, Control_c, 7, 7, 97
5, 108420, Control_c, 7, 7, 95
5, 108440, Control_c, 7, 7, 93
5, 108460, Control_c, 7, 7, 91
5, 108480, Control_c, 7, 7, 90
5, 108496, Control_c, 7, 7, 89
5, 108516, Control_c, 7, 7, 87
5, 108536, Control_c, 7, 7, 85
5, 108540, Note_on_c, 7, 57, 0
5, 108556, Control_c, 7, 7, 83
5, 108576, Control_c, 7, 7, 81
5, 108592, Control_c, 7, 7, 80
5, 108612, Control_c, 7, 7, 79
5, 108632, Control_c, 7, 7, 77
5, 108652, Control_c, 7, 7, 76
5, 108672, Control_c, 7, 7, 75
5, 108688, Control_c, 7, 7, 73
5, 108708, Control_c, 7, 7, 72
5, 108728, Control_c, 7, 7, 71
5, 108748, Control_c, 7, 7, 68
5, 108768, Control_c, 7, 7, 65
5, 108784, Control_c, 7, 7, 56
5, 108804, Control_c, 7, 7, 54
5, 108824, Control_c, 7, 7, 54
5, 108844, Control_c, 7, 7, 51
5, 108864, Control_c, 7, 7, 49
5, 109056, Control_c, 7, 7, 125
5, 110016, Note_on_c, 7, 64, 92
5, 110208, Note_on_c, 7, 61, 104
5, 110232, Note_on_c, 7, 64, 0
5, 110276, Note_on_c, 7, 61, 0
5, 110400, Note_on_c, 7, 64, 96
5, 110784, Note_on_c, 7, 61, 124
5, 110816, Note_on_c, 7, 64, 0
5, 112416, Note_on_c, 7, 61, 0
5, 113088, Note_on_c, 7, 64, 120
5, 113184, Note_on_c, 7, 66, 127
5, 113200, Note_on_c, 7, 64, 0
5, 113300, Channel_aftertouch_c, 7, 74
5, 113316, Channel_aftertouch_c, 7, 0
5, 113472, Note_on_c, 7, 66, 0
5, 113472, Note_on_c, 7, 64, 87
5, 113612, Note_on_c, 7, 64, 0
5, 113664, Note_on_c, 7, 64, 97
5, 113816, Note_on_c, 7, 64, 0
5, 113856, Note_on_c, 7, 61, 119
5, 114016, Note_on_c, 7, 61, 0
5, 114048, Note_on_c, 7, 61, 115
5, 114152, Note_on_c, 7, 61, 0
5, 114240, Note_on_c, 7, 59, 110
5, 115336, Note_on_c, 7, 59, 0
5, 116160, Note_on_c, 7, 61, 105
5, 116232, Note_on_c, 7, 61, 0
5, 116256, Note_on_c, 7, 64, 105
5, 116416, Note_on_c, 7, 64, 0
5, 116448, Note_on_c, 7, 61, 115
5, 116528, Note_on_c, 7, 61, 0
5, 116544, Note_on_c, 7, 64, 97
5, 116544, Channel_aftertouch_c, 7, 35
5, 116556, Channel_aftertouch_c, 7, 0
5, 116860, Note_on_c, 7, 64, 0
5, 116928, Note_on_c, 7, 64, 90
5, 117020, Note_on_c, 7, 64, 0
5, 117024, Note_on_c, 7, 61, 119
5, 117112, Note_on_c, 7, 61, 0
5, 117120, Note_on_c, 7, 64, 97
5, 117208, Note_on_c, 7, 64, 0
5, 117216, Note_on_c, 7, 61, 90
5, 117268, Note_on_c, 7, 61, 0
5, 117312, Note_on_c, 7, 61, 95
5, 117372, Note_on_c, 7, 61, 0
5, 117408, Note_on_c, 7, 61, 115
5, 117912, Note_on_c, 7, 61, 0
5, 118048, Channel_aftertouch_c, 7, 4
5, 118064, Channel_aftertouch_c, 7, 0
5, 118080, Note_on_c, 7, 66, 105
5, 118448, Note_on_c, 7, 66, 0
5, 118464, Note_on_c, 7, 64, 64
5, 118552, Note_on_c, 7, 64, 0
5, 118560, Note_on_c, 7, 64, 88
5, 118636, Note_on_c, 7, 64, 0
5, 118656, Note_on_c, 7, 64, 105
5, 118800, Note_on_c, 7, 64, 0
5, 118848, Note_on_c, 7, 61, 126
5, 119200, Note_on_c, 7, 61, 0
5, 119232, Note_on_c, 7, 61, 105
5, 119376, Note_on_c, 7, 61, 0
5, 119424, Note_on_c, 7, 59, 92
5, 119568, Note_on_c, 7, 59, 0
5, 119616, Note_on_c, 7, 59, 110
5, 119804, Note_on_c, 7, 59, 0
5, 119808, Note_on_c, 7, 59, 124
5, 119896, Note_on_c, 7, 59, 0
5, 119904, Note_on_c, 7, 57, 105
5, 119984, Note_on_c, 7, 57, 0
5, 120000, Note_on_c, 7, 59, 121
5, 120576, Control_c, 7, 7, 125
5, 120592, Control_c, 7, 7, 125
5, 120612, Control_c, 7, 7, 125
5, 120632, Control_c, 7, 7, 125
5, 120652, Control_c, 7, 7, 125
5, 120672, Control_c, 7, 7, 124
5, 120688, Control_c, 7, 7, 124
5, 120728, Control_c, 7, 7, 124
5, 120748, Control_c, 7, 7, 123
5, 120768, Control_c, 7, 7, 122
5, 120784, Control_c, 7, 7, 122
5, 120804, Control_c, 7, 7, 122
5, 120824, Control_c, 7, 7, 121
5, 120844, Control_c, 7, 7, 121
5, 120864, Control_c, 7, 7, 120
5, 120880, Control_c, 7, 7, 119
5, 120900, Control_c, 7, 7, 118
5, 120920, Control_c, 7, 7, 118
5, 120940, Control_c, 7, 7, 117
5, 120960, Control_c, 7, 7, 116
5, 120976, Control_c, 7, 7, 115
5, 120996, Control_c, 7, 7, 114
5, 121016, Control_c, 7, 7, 113
5, 121036, Control_c, 7, 7, 112
5, 121056, Control_c, 7, 7, 111
5, 121072, Control_c, 7, 7, 111
5, 121092, Control_c, 7, 7, 108
5, 121112, Control_c, 7, 7, 107
5, 121132, Control_c, 7, 7, 105
5, 121152, Control_c, 7, 7, 103
5, 121168, Control_c, 7, 7, 102
5, 121188, Control_c, 7, 7, 101
5, 121208, Control_c, 7, 7, 98
5, 121228, Control_c, 7, 7, 97
5, 121248, Control_c, 7, 7, 96
5, 121264, Control_c, 7, 7, 95
5, 121284, Control_c, 7, 7, 92
5, 121304, Control_c, 7, 7, 91
5, 121324, Control_c, 7, 7, 88
5, 121344, Control_c, 7, 7, 87
5, 121360, Control_c, 7, 7, 86
5, 121380, Control_c, 7, 7, 84
5, 121400, Control_c, 7, 7, 83
5, 121448, Note_on_c, 7, 59, 0
5, 121900, Control_c, 7, 7, 125
5, 122304, Note_on_c, 7, 62, 117
5, 122452, Note_on_c, 7, 62, 0
5, 122496, Note_on_c, 7, 64, 117
5, 122644, Note_on_c, 7, 64, 0
5, 122688, Note_on_c, 7, 64, 108
5, 122880, Note_on_c, 7, 61, 117
5, 122888, Note_on_c, 7, 64, 0
5, 123072, Note_on_c, 7, 64, 111
5, 123084, Note_on_c, 7, 61, 0
5, 123264, Note_on_c, 7, 61, 111
5, 123288, Note_on_c, 7, 64, 0
5, 123660, Note_on_c, 7, 61, 0
5, 123840, Note_on_c, 7, 61, 119
5, 124056, Note_on_c, 7, 61, 0
5, 124224, Note_on_c, 7, 66, 124
5, 124600, Note_on_c, 7, 66, 0
5, 124608, Note_on_c, 7, 64, 105
5, 124800, Note_on_c, 7, 61, 110
5, 124808, Note_on_c, 7, 64, 0
5, 124928, Note_on_c, 7, 61, 0
5, 124992, Note_on_c, 7, 59, 105
5, 125292, Note_on_c, 7, 59, 0
5, 125376, Note_on_c, 7, 57, 115
5, 125552, Note_on_c, 7, 57, 0
5, 125568, Note_on_c, 7, 59, 119
5, 125848, Note_on_c, 7, 59, 0
5, 125968, Note_on_c, 7, 61, 124
5, 126128, Note_on_c, 7, 61, 0
5, 126240, Note_on_c, 7, 61, 124
5, 126388, Note_on_c, 7, 61, 0
5, 126488, Note_on_c, 7, 61, 127
5, 126624, Note_on_c, 7, 61, 0
5, 126736, Note_on_c, 7, 61, 127
5, 126952, Note_on_c, 7, 61, 0
5, 126968, Note_on_c, 7, 62, 127
5, 127224, Note_on_c, 7, 62, 0
5, 127228, Note_on_c, 7, 61, 127
5, 127384, Note_on_c, 7, 61, 0
5, 127504, Note_on_c, 7, 61, 127
5, 127580, Note_on_c, 7, 61, 0
5, 127596, Note_on_c, 7, 57, 124
5, 127692, Note_on_c, 7, 59, 124
5, 127704, Note_on_c, 7, 57, 0
5, 128448, Note_on_c, 7, 57, 120
5, 128476, Note_on_c, 7, 59, 0
5, 128624, Note_on_c, 7, 57, 0
5, 128640, Note_on_c, 7, 57, 125
5, 128784, Note_on_c, 7, 57, 0
5, 128832, Note_on_c, 7, 61, 127
5, 129008, Note_on_c, 7, 61, 0
5, 129024, Note_on_c, 7, 64, 127
5, 129352, Channel_aftertouch_c, 7, 2
5, 129364, Channel_aftertouch_c, 7, 0
5, 129392, Note_on_c, 7, 64, 0
5, 129400, Channel_aftertouch_c, 7, 2
5, 129408, Note_on_c, 7, 62, 115
5, 129416, Channel_aftertouch_c, 7, 7
5, 129428, Channel_aftertouch_c, 7, 12
5, 129448, Channel_aftertouch_c, 7, 0
5, 129504, Note_on_c, 7, 61, 113
5, 129512, Note_on_c, 7, 62, 0
5, 129824, Note_on_c, 7, 61, 0
5, 129984, Note_on_c, 7, 57, 120
5, 130176, Note_on_c, 7, 57, 0
5, 130368, Note_on_c, 7, 66, 127
5, 130748, Note_on_c, 7, 66, 0
5, 130752, Note_on_c, 7, 64, 110
5, 130892, Note_on_c, 7, 64, 0
5, 130944, Note_on_c, 7, 61, 119
5, 131120, Note_on_c, 7, 61, 0
5, 131136, Note_on_c, 7, 59, 105
5, 131424, Note_on_c, 7, 59, 0
5, 131520, Note_on_c, 7, 57, 115
5, 131636, Note_on_c, 7, 57, 0
5, 131712, Note_on_c, 7, 57, 119
5, 131896, Note_on_c, 7, 57, 0
5, 131904, Note_on_c, 7, 61, 127
5, 132252, Note_on_c, 7, 61, 0
5, 132288, Note_on_c, 7, 61, 127
5, 132672, Note_on_c, 7, 62, 127
5, 132684, Note_on_c, 7, 61, 0
5, 133052, Note_on_c, 7, 62, 0
5, 133056, Note_on_c, 7, 61, 127
5, 133440, Note_on_c, 7, 59, 127
5, 133452, Note_on_c, 7, 61, 0
5, 133632, Note_on_c, 7, 57, 127
5, 133640, Note_on_c, 7, 59, 0
5, 134392, Note_on_c, 7, 57, 0
5, 134612, Note_on_c, 7, 69, 115
5, 134784, Note_on_c, 7, 69, 0
5, 134788, Note_on_c, 7, 68, 127
5, 135356, Note_on_c, 7, 68, 0
5, 135360, Note_on_c, 7, 66, 127
5, 135412, Channel_aftertouch_c, 7, 2
5, 135424, Channel_aftertouch_c, 7, 0
5, 135480, Note_on_c, 7, 66, 0
5, 135552, Note_on_c, 7, 61, 127
5, 135648, Note_on_c, 7, 59, 127
5, 135664, Note_on_c, 7, 61, 0
5, 135744, Note_on_c, 7, 57, 127
5, 135780, Note_on_c, 7, 59, 0
5, 136704, Control_c, 7, 7, 123
5, 136720, Control_c, 7, 7, 122
5, 136740, Control_c, 7, 7, 122
5, 136760, Control_c, 7, 7, 121
5, 136780, Control_c, 7, 7, 120
5, 136800, Control_c, 7, 7, 118
5, 136816, Control_c, 7, 7, 117
5, 136836, Control_c, 7, 7, 117
5, 136856, Control_c, 7, 7, 117
5, 136876, Control_c, 7, 7, 116
5, 136896, Control_c, 7, 7, 115
5, 136912, Control_c, 7, 7, 114
5, 136932, Control_c, 7, 7, 114
5, 136952, Control_c, 7, 7, 113
5, 136972, Control_c, 7, 7, 112
5, 136992, Control_c, 7, 7, 112
5, 137008, Control_c, 7, 7, 112
5, 137028, Control_c, 7, 7, 112
5, 137048, Control_c, 7, 7, 111
5, 137068, Control_c, 7, 7, 111
5, 137088, Control_c, 7, 7, 111
5, 137104, Control_c, 7, 7, 110
5, 137124, Control_c, 7, 7, 110
5, 137144, Control_c, 7, 7, 109
5, 137164, Control_c, 7, 7, 108
5, 137184, Control_c, 7, 7, 107
5, 137200, Control_c, 7, 7, 106
5, 137220, Control_c, 7, 7, 105
5, 137240, Control_c, 7, 7, 105
5, 137260, Control_c, 7, 7, 105
5, 137280, Control_c, 7, 7, 104
5, 137296, Control_c, 7, 7, 103
5, 137316, Control_c, 7, 7, 102
5, 137336, Control_c, 7, 7, 100
5, 137356, Control_c, 7, 7, 98
5, 137376, Control_c, 7, 7, 97
5, 137392, Control_c, 7, 7, 96
5, 137412, Control_c, 7, 7, 95
5, 137432, Control_c, 7, 7, 94
5, 137452, Control_c, 7, 7, 93
5, 137472, Control_c, 7, 7, 92
5, 137488, Control_c, 7, 7, 91
5, 137508, Control_c, 7, 7, 89
5, 137528, Control_c, 7, 7, 88
5, 137548, Control_c, 7, 7, 83
5, 137568, Control_c, 7, 7, 81
5, 137584, Control_c, 7, 7, 80
5, 137604, Control_c, 7, 7, 79
5, 137624, Control_c, 7, 7, 77
5, 137644, Control_c, 7, 7, 74
5, 137664, Control_c, 7, 7, 72
5, 137680, Control_c, 7, 7, 70
5, 137700, Control_c, 7, 7, 69
5, 137720, Control_c, 7, 7, 66
5, 137740, Control_c, 7, 7, 62
5, 137760, Control_c, 7, 7, 61
5, 137776, Control_c, 7, 7, 58
5, 137796, Control_c, 7, 7, 52
5, 137816, Control_c, 7, 7, 50
5, 137836, Control_c, 7, 7, 47
5, 137840, Note_on_c, 7, 57, 0
5, 137856, Control_c, 7, 7, 43
5, 137912, Control_c, 7, 7, 123
5, 138048, Note_on_c, 7, 61, 120
5, 138176, Note_on_c, 7, 61, 0
5, 138240, Note_on_c, 7, 61, 117
5, 138456, Note_on_c, 7, 61, 0
5, 138468, Note_on_c, 7, 63, 105
5, 138612, Note_on_c, 7, 63, 0
5, 138624, Note_on_c, 7, 63, 126
5, 138876, Note_on_c, 7, 63, 0
5, 138912, Note_on_c, 7, 61, 111
5, 139000, Note_on_c, 7, 61, 0
5, 139008, Note_on_c, 7, 59, 127
5, 139276, Control_c, 7, 7, 123
5, 139296, Control_c, 7, 7, 122
5, 139312, Control_c, 7, 7, 122
5, 139332, Control_c, 7, 7, 122
5, 139352, Control_c, 7, 7, 122
5, 139372, Control_c, 7, 7, 122
5, 139392, Control_c, 7, 7, 122
5, 139408, Control_c, 7, 7, 123
5, 139428, Control_c, 7, 7, 123
5, 139448, Control_c, 7, 7, 122
5, 139468, Control_c, 7, 7, 122
5, 139488, Control_c, 7, 7, 122
5, 139504, Control_c, 7, 7, 122
5, 139524, Control_c, 7, 7, 119
5, 139544, Control_c, 7, 7, 118
5, 139564, Control_c, 7, 7, 118
5, 139584, Control_c, 7, 7, 117
5, 139600, Control_c, 7, 7, 117
5, 139620, Control_c, 7, 7, 115
5, 139640, Control_c, 7, 7, 115
5, 139660, Control_c, 7, 7, 113
5, 139680, Control_c, 7, 7, 112
5, 139696, Control_c, 7, 7, 110
5, 139716, Control_c, 7, 7, 109
5, 139736, Control_c, 7, 7, 108
5, 139756, Control_c, 7, 7, 107
5, 139776, Control_c, 7, 7, 105
5, 139792, Control_c, 7, 7, 105
5, 139812, Control_c, 7, 7, 103
5, 139832, Control_c, 7, 7, 99
5, 139852, Control_c, 7, 7, 95
5, 139872, Control_c, 7, 7, 93
5, 139888, Control_c, 7, 7, 91
5, 139908, Control_c, 7, 7, 84
5, 139928, Control_c, 7, 7, 82
5, 139948, Control_c, 7, 7, 70
5, 139968, Control_c, 7, 7, 62
5, 139984, Control_c, 7, 7, 61
5, 140004, Control_c, 7, 7, 58
5, 140024, Control_c, 7, 7, 57
5, 140044, Control_c, 7, 7, 51
5, 140064, Control_c, 7, 7, 46
5, 140144, Note_on_c, 7, 59, 0
5, 140464, Control_c, 7, 7, 124
5, 140736, Note_on_c, 7, 57, 127
5, 140804, Note_on_c, 7, 57, 0
5, 140928, Note_on_c, 7, 57, 124
5, 141120, Note_on_c, 7, 61, 119
5, 141140, Note_on_c, 7, 57, 0
5, 141312, Note_on_c, 7, 59, 119
5, 141328, Note_on_c, 7, 61, 0
5, 141504, Note_on_c, 7, 61, 119
5, 141544, Note_on_c, 7, 59, 0
5, 143808, Note_on_c, 7, 59, 119
5, 143824, Note_on_c, 7, 61, 0
5, 144000, Note_on_c, 7, 57, 124
5, 144004, Note_on_c, 7, 59, 0
5, 144080, Note_on_c, 7, 57, 0
5, 144192, Note_on_c, 7, 59, 124
5, 144384, Note_on_c, 7, 61, 124
5, 144460, Note_on_c, 7, 59, 0
5, 144544, Note_on_c, 7, 61, 0
5, 144576, Note_on_c, 7, 61, 119
5, 146472, Note_on_c, 7, 61, 0
5, 146496, Note_on_c, 7, 69, 115
5, 146880, Note_on_c, 7, 68, 127
5, 146916, Note_on_c, 7, 69, 0
5, 147152, Note_on_c, 7, 68, 0
5, 147264, Note_on_c, 7, 68, 127
5, 147648, Note_on_c, 7, 66, 124
5, 147688, Note_on_c, 7, 68, 0
5, 148032, Note_on_c, 7, 61, 119
5, 148052, Note_on_c, 7, 66, 0
5, 148128, Note_on_c, 7, 61, 0
5, 148128, Note_on_c, 7, 59, 115
5, 148224, Note_on_c, 7, 59, 0
5, 148224, Note_on_c, 7, 57, 110
5, 148548, Channel_aftertouch_c, 7, 2
5, 148560, Channel_aftertouch_c, 7, 6
5, 148576, Channel_aftertouch_c, 7, 11
5, 148592, Channel_aftertouch_c, 7, 15
5, 148604, Channel_aftertouch_c, 7, 16
5, 148620, Channel_aftertouch_c, 7, 17
5, 148636, Channel_aftertouch_c, 7, 21
5, 148648, Channel_aftertouch_c, 7, 23
5, 148664, Channel_aftertouch_c, 7, 23
5, 148692, Channel_aftertouch_c, 7, 24
5, 148708, Channel_aftertouch_c, 7, 25
5, 148720, Channel_aftertouch_c, 7, 26
5, 148736, Channel_aftertouch_c, 7, 27
5, 148752, Channel_aftertouch_c, 7, 28
5, 148764, Channel_aftertouch_c, 7, 28
5, 148776, Channel_aftertouch_c, 7, 29
5, 148792, Channel_aftertouch_c, 7, 29
5, 148876, Channel_aftertouch_c, 7, 30
5, 148888, Channel_aftertouch_c, 7, 30
5, 149856, Note_on_c, 7, 57, 0
5, 150336, Note_on_c, 7, 61, 119
5, 150432, Note_on_c, 7, 64, 102
5, 150448, Note_on_c, 7, 61, 0
5, 150508, Note_on_c, 7, 64, 0
5, 150528, Note_on_c, 7, 64, 105
5, 150704, Note_on_c, 7, 64, 0
5, 150720, Note_on_c, 7, 64, 110
5, 150788, Note_on_c, 7, 64, 0
5, 150816, Note_on_c, 7, 64, 102
5, 150904, Note_on_c, 7, 64, 0
5, 150912, Note_on_c, 7, 64, 115
5, 151032, Note_on_c, 7, 64, 0
5, 151104, Note_on_c, 7, 66, 115
5, 152432, Note_on_c, 7, 66, 0
5, 153024, Note_on_c, 7, 61, 115
5, 153200, Note_on_c, 7, 61, 0
5, 153216, Note_on_c, 7, 64, 108
5, 153408, Note_on_c, 7, 66, 110
5, 153432, Note_on_c, 7, 64, 0
5, 153600, Note_on_c, 7, 64, 110
5, 153632, Note_on_c, 7, 66, 0
5, 153672, Note_on_c, 7, 64, 0
5, 153696, Note_on_c, 7, 64, 113
5, 153912, Note_on_c, 7, 64, 0
5, 153984, Note_on_c, 7, 64, 108
5, 154112, Note_on_c, 7, 64, 0
5, 154176, Note_on_c, 7, 64, 108
5, 154268, Note_on_c, 7, 64, 0
5, 154368, Note_on_c, 7, 64, 101
5, 154520, Note_on_c, 7, 64, 0
5, 154560, Note_on_c, 7, 61, 102
5, 154704, Note_on_c, 7, 61, 0
5, 154752, Note_on_c, 7, 61, 110
5, 154896, Note_on_c, 7, 61, 0
5, 154944, Note_on_c, 7, 61, 110
5, 155088, Note_on_c, 7, 61, 0
5, 155136, Note_on_c, 7, 61, 115
5, 155280, Note_on_c, 7, 61, 0
5, 155328, Note_on_c, 7, 61, 104
5, 155480, Note_on_c, 7, 61, 0
5, 155520, Note_on_c, 7, 61, 105
5, 155608, Note_on_c, 7, 61, 0
5, 155616, Note_on_c, 7, 61, 102
5, 155872, Note_on_c, 7, 61, 0
5, 155904, Note_on_c, 7, 59, 105
5, 156088, Note_on_c, 7, 59, 0
5, 156096, Note_on_c, 7, 57, 119
5, 156448, Note_on_c, 7, 57, 0
5, 156480, Note_on_c, 7, 57, 124
5, 156632, Channel_aftertouch_c, 7, 2
5, 156648, Channel_aftertouch_c, 7, 0
5, 156688, Channel_aftertouch_c, 7, 4
5, 156700, Channel_aftertouch_c, 7, 5
5, 156728, Channel_aftertouch_c, 7, 0
5, 157992, Note_on_c, 7, 57, 0
5, 159168, Note_on_c, 7, 62, 100
5, 159208, Channel_aftertouch_c, 7, 15
5, 159216, Channel_aftertouch_c, 7, 0
5, 159488, Note_on_c, 7, 62, 0
5, 159552, Note_on_c, 7, 66, 113
5, 159936, Note_on_c, 7, 64, 110
5, 159972, Channel_aftertouch_c, 7, 6
5, 159988, Channel_aftertouch_c, 7, 10
5, 159996, Note_on_c, 7, 66, 0
5, 160000, Channel_aftertouch_c, 7, 13
5, 160012, Channel_aftertouch_c, 7, 15
5, 160024, Channel_aftertouch_c, 7, 18
5, 160036, Channel_aftertouch_c, 7, 21
5, 160048, Channel_aftertouch_c, 7, 23
5, 160064, Channel_aftertouch_c, 7, 25
5, 160076, Channel_aftertouch_c, 7, 27
5, 160088, Channel_aftertouch_c, 7, 28
5, 160112, Channel_aftertouch_c, 7, 25
5, 160124, Channel_aftertouch_c, 7, 10
5, 160136, Channel_aftertouch_c, 7, 0
5, 160672, Note_on_c, 7, 64, 0
5, 162240, Note_on_c, 7, 62, 115
5, 162484, Note_on_c, 7, 62, 0
5, 162624, Note_on_c, 7, 66, 120
5, 162816, Note_on_c, 7, 66, 0
5, 162816, Note_on_c, 7, 64, 102
5, 162852, Channel_aftertouch_c, 7, 3
5, 162864, Channel_aftertouch_c, 7, 9
5, 162892, Channel_aftertouch_c, 7, 3
5, 162904, Channel_aftertouch_c, 7, 2
5, 162928, Channel_aftertouch_c, 7, 4
5, 162940, Channel_aftertouch_c, 7, 6
5, 162952, Channel_aftertouch_c, 7, 7
5, 162992, Channel_aftertouch_c, 7, 9
5, 163008, Channel_aftertouch_c, 7, 11
5, 163020, Channel_aftertouch_c, 7, 7
5, 163032, Channel_aftertouch_c, 7, 2
5, 163044, Channel_aftertouch_c, 7, 0
5, 163108, Note_on_c, 7, 64, 0
5, 163200, Note_on_c, 7, 64, 120
5, 163216, Channel_aftertouch_c, 7, 54
5, 163228, Channel_aftertouch_c, 7, 31
5, 163240, Channel_aftertouch_c, 7, 20
5, 163256, Channel_aftertouch_c, 7, 7
5, 163280, Channel_aftertouch_c, 7, 12
5, 163292, Channel_aftertouch_c, 7, 16
5, 163308, Channel_aftertouch_c, 7, 18
5, 163320, Channel_aftertouch_c, 7, 18
5, 163356, Channel_aftertouch_c, 7, 19
5, 163368, Channel_aftertouch_c, 7, 20
5, 163384, Channel_aftertouch_c, 7, 21
5, 163420, Channel_aftertouch_c, 7, 19
5, 163432, Channel_aftertouch_c, 7, 18
5, 163448, Channel_aftertouch_c, 7, 17
5, 163460, Channel_aftertouch_c, 7, 16
5, 163488, Channel_aftertouch_c, 7, 15
5, 163496, Channel_aftertouch_c, 7, 8
5, 163512, Channel_aftertouch_c, 7, 0
5, 163544, Note_on_c, 7, 64, 0
5, 163584, Note_on_c, 7, 57, 127
5, 163624, Channel_aftertouch_c, 7, 4
5, 163640, Channel_aftertouch_c, 7, 0
5, 163680, Channel_aftertouch_c, 7, 2
5, 163692, Channel_aftertouch_c, 7, 3
5, 163716, Channel_aftertouch_c, 7, 0
5, 163792, Channel_aftertouch_c, 7, 3
5, 163804, Channel_aftertouch_c, 7, 5
5, 163832, Channel_aftertouch_c, 7, 0
5, 163844, Channel_aftertouch_c, 7, 2
5, 163856, Channel_aftertouch_c, 7, 4
5, 163868, Channel_aftertouch_c, 7, 6
5, 163884, Channel_aftertouch_c, 7, 6
5, 163896, Channel_aftertouch_c, 7, 4
5, 163908, Channel_aftertouch_c, 7, 3
5, 163920, Channel_aftertouch_c, 7, 5
5, 163944, Channel_aftertouch_c, 7, 2
5, 163960, Channel_aftertouch_c, 7, 1
5, 163972, Channel_aftertouch_c, 7, 0
5, 164336, Note_on_c, 7, 57, 0
5, 165312, Note_on_c, 7, 62, 120
5, 165352, Channel_aftertouch_c, 7, 15
5, 165360, Channel_aftertouch_c, 7, 0
5, 165632, Note_on_c, 7, 62, 0
5, 165696, Note_on_c, 7, 66, 127
5, 166080, Note_on_c, 7, 64, 110
5, 166116, Channel_aftertouch_c, 7, 6
5, 166132, Channel_aftertouch_c, 7, 10
5, 166140, Note_on_c, 7, 66, 0
5, 166144, Channel_aftertouch_c, 7, 13
5, 166156, Channel_aftertouch_c, 7, 15
5, 166168, Channel_aftertouch_c, 7, 18
5, 166180, Channel_aftertouch_c, 7, 21
5, 166192, Channel_aftertouch_c, 7, 23
5, 166208, Channel_aftertouch_c, 7, 25
5, 166220, Channel_aftertouch_c, 7, 27
5, 166232, Channel_aftertouch_c, 7, 28
5, 166256, Channel_aftertouch_c, 7, 25
5, 166268, Channel_aftertouch_c, 7, 10
5, 166280, Channel_aftertouch_c, 7, 0
5, 166816, Note_on_c, 7, 64, 0
5, 167424, Program_c, 7, 21
5, 168000, Note_on_c, 7, 61, 99
5, 168192, Note_on_c, 7, 64, 116
5, 168220, Note_on_c, 7, 61, 0
5, 168280, Note_on_c, 7, 64, 0
5, 168384, Note_on_c, 7, 64, 118
5, 168576, Note_on_c, 7, 61, 117
5, 168584, Note_on_c, 7, 64, 0
5, 168748, Note_on_c, 7, 61, 0
5, 168768, Note_on_c, 7, 64, 117
5, 168768, Channel_aftertouch_c, 7, 89
5, 168776, Channel_aftertouch_c, 7, 0
5, 168944, Note_on_c, 7, 64, 0
5, 168956, Channel_aftertouch_c, 7, 17
5, 168960, Note_on_c, 7, 61, 121
5, 168968, Channel_aftertouch_c, 7, 0
5, 170520, Note_on_c, 7, 61, 0
5, 171072, Note_on_c, 7, 61, 97
5, 171264, Note_on_c, 7, 66, 100
5, 171272, Note_on_c, 7, 61, 0
5, 171456, Note_on_c, 7, 64, 99
5, 171476, Channel_aftertouch_c, 7, 38
5, 171488, Note_on_c, 7, 66, 0
5, 171488, Channel_aftertouch_c, 7, 0
5, 171532, Note_on_c, 7, 64, 0
5, 171648, Note_on_c, 7, 64, 98
5, 171704, Note_on_c, 7, 64, 0
5, 171840, Note_on_c, 7, 61, 104
5, 171936, Note_on_c, 7, 59, 88
5, 171948, Note_on_c, 7, 61, 0
5, 172032, Note_on_c, 7, 57, 99
5, 172040, Note_on_c, 7, 59, 0
5, 173464, Note_on_c, 7, 57, 0
5, 174528, Note_on_c, 7, 64, 80
5, 174720, Note_on_c, 7, 61, 79
5, 174772, Note_on_c, 7, 64, 0
5, 174860, Note_on_c, 7, 61, 0
5, 174912, Note_on_c, 7, 64, 84
5, 175000, Note_on_c, 7, 64, 0
5, 175008, Note_on_c, 7, 64, 64
5, 175080, Note_on_c, 7, 64, 0
5, 175104, Note_on_c, 7, 64, 80
5, 175176, Note_on_c, 7, 64, 0
5, 175200, Note_on_c, 7, 61, 76
5, 175256, Note_on_c, 7, 61, 0
5, 175296, Note_on_c, 7, 64, 75
5, 175304, Channel_aftertouch_c, 7, 31
5, 175316, Channel_aftertouch_c, 7, 0
5, 175648, Note_on_c, 7, 64, 0
5, 175680, Note_on_c, 7, 64, 62
5, 175752, Note_on_c, 7, 64, 0
5, 175776, Note_on_c, 7, 64, 61
5, 175848, Note_on_c, 7, 64, 0
5, 175872, Note_on_c, 7, 66, 62
5, 176064, Note_on_c, 7, 64, 68
5, 176100, Channel_aftertouch_c, 7, 66
5, 176112, Channel_aftertouch_c, 7, 0
5, 176136, Note_on_c, 7, 66, 0
5, 176360, Note_on_c, 7, 64, 0
5, 176448, Note_on_c, 7, 64, 67
5, 176468, Channel_aftertouch_c, 7, 48
5, 176480, Channel_aftertouch_c, 7, 0
5, 176640, Note_on_c, 7, 64, 0
5, 176640, Note_on_c, 7, 61, 74
5, 176920, Note_on_c, 7, 61, 0
5, 177024, Note_on_c, 7, 61, 64
5, 177144, Note_on_c, 7, 61, 0
5, 177216, Note_on_c, 7, 61, 56
5, 177328, Note_on_c, 7, 61, 0
5, 177408, Note_on_c, 7, 61, 68
5, 177592, Note_on_c, 7, 61, 0
5, 177600, Note_on_c, 7, 59, 72
5, 177888, Note_on_c, 7, 59, 0
5, 177984, Note_on_c, 7, 61, 68
5, 178080, Note_on_c, 7, 59, 64
5, 178084, Note_on_c, 7, 61, 0
5, 178176, Note_on_c, 7, 59, 0
5, 178176, Note_on_c, 7, 57, 61
5, 179560, Note_on_c, 7, 57, 0
5, 180672, Note_on_c, 7, 61, 46
5, 180764, Note_on_c, 7, 61, 0
5, 180864, Note_on_c, 7, 61, 48
5, 180960, Note_on_c, 7, 61, 0
5, 181056, Note_on_c, 7, 64, 46
5, 181532, Note_on_c, 7, 64, 0
5, 181632, Note_on_c, 7, 64, 46
5, 181944, Note_on_c, 7, 64, 0
5, 182016, Note_on_c, 7, 64, 44
5, 182128, Note_on_c, 7, 64, 0
5, 182208, Note_on_c, 7, 64, 44
5, 182536, Note_on_c, 7, 64, 0
5, 182592, Note_on_c, 7, 66, 33
5, 182660, Channel_aftertouch_c, 7, 3
5, 182672, Channel_aftertouch_c, 7, 5
5, 182696, Channel_aftertouch_c, 7, 0
5, 182784, Note_on_c, 7, 64, 37
5, 182824, Note_on_c, 7, 66, 0
5, 182896, Note_on_c, 7, 64, 0
5, 182976, Note_on_c, 7, 64, 37
5, 183168, Note_on_c, 7, 61, 39
5, 183204, Note_on_c, 7, 64, 0
5, 183584, Note_on_c, 7, 61, 0
5, 183744, Note_on_c, 7, 61, 36
5, 183836, Note_on_c, 7, 61, 0
5, 183936, Note_on_c, 7, 61, 28
5, 184128, Note_on_c, 7, 61, 0
5, 184128, Note_on_c, 7, 66, 24
5, 184316, Note_on_c, 7, 66, 0
5, 184320, Note_on_c, 7, 64, 33
5, 184400, Note_on_c, 7, 64, 0
5, 184416, Note_on_c, 7, 64, 25
5, 184488, Note_on_c, 7, 64, 0
5, 184512, Note_on_c, 7, 64, 28
5, 184632, Note_on_c, 7, 64, 0
5, 184704, Note_on_c, 7, 61, 24
5, 185356, Note_on_c, 7, 61, 0
5, 186824, Note_on_c, 7, 64, 18
5, 187024, Note_on_c, 7, 61, 14
5, 187040, Note_on_c, 7, 64, 0
5, 187200, Note_on_c, 7, 64, 15
5, 187204, Channel_aftertouch_c, 7, 40
5, 187216, Channel_aftertouch_c, 7, 0
5, 187224, Note_on_c, 7, 61, 0
5, 187516, Note_on_c, 7, 64, 0
5, 187588, Note_on_c, 7, 64, 13
5, 187676, Note_on_c, 7, 64, 0
5, 187692, Note_on_c, 7, 61, 14
5, 187796, Note_on_c, 7, 64, 14
5, 187824, Note_on_c, 7, 61, 0
5, 188036, Note_on_c, 7, 64, 0
5, 188160, Note_on_c, 7, 61, 14
5, 188264, Note_on_c, 7, 61, 0
5, 188352, Note_on_c, 7, 61, 9
5, 188456, Note_on_c, 7, 61, 0
5, 188544, Note_on_c, 7, 61, 9
5, 188620, Note_on_c, 7, 61, 0
5, 188736, Note_on_c, 7, 59, 7
5, 188832, Note_on_c, 7, 59, 0
5, 188936, Note_on_c, 7, 59, 8
5, 189008, Note_on_c, 7, 59, 0
5, 189120, Note_on_c, 7, 59, 8
5, 189280, Note_on_c, 7, 59, 0
5, 189328, Note_on_c, 7, 57, 6
5, 189328, Channel_aftertouch_c, 7, 20
5, 189340, Channel_aftertouch_c, 7, 0
5, 189400, Note_on_c, 7, 57, 0
5, 189504, Note_on_c, 7, 59, 6
5, 189560, Note_on_c, 7, 61, 3
5, 189584, Note_on_c, 7, 59, 0
5, 189608, Channel_aftertouch_c, 7, 3
5, 189624, Channel_aftertouch_c, 7, 6
5, 189636, Channel_aftertouch_c, 7, 8
5, 189648, Channel_aftertouch_c, 7, 8
5, 189664, Channel_aftertouch_c, 7, 9
5, 189676, Channel_aftertouch_c, 7, 12
5, 189688, Channel_aftertouch_c, 7, 13
5, 189704, Channel_aftertouch_c, 7, 14
5, 189720, Channel_aftertouch_c, 7, 9
5, 189732, Channel_aftertouch_c, 7, 5
5, 189756, Channel_aftertouch_c, 7, 8
5, 189768, Channel_aftertouch_c, 7, 10
5, 189784, Channel_aftertouch_c, 7, 11
5, 189796, Channel_aftertouch_c, 7, 11
5, 189808, Channel_aftertouch_c, 7, 13
5, 189824, Channel_aftertouch_c, 7, 14
5, 189836, Channel_aftertouch_c, 7, 15
5, 189848, Channel_aftertouch_c, 7, 15
5, 189876, Channel_aftertouch_c, 7, 16
5, 189888, Channel_aftertouch_c, 7, 17
5, 189904, Channel_aftertouch_c, 7, 18
5, 189952, Channel_aftertouch_c, 7, 16
5, 189964, Channel_aftertouch_c, 7, 14
5, 189980, Channel_aftertouch_c, 7, 13
5, 189992, Channel_aftertouch_c, 7, 11
5, 190004, Channel_aftertouch_c, 7, 8
5, 190020, Channel_aftertouch_c, 7, 3
5, 190032, Channel_aftertouch_c, 7, 0
5, 190120, Channel_aftertouch_c, 7, 3
5, 190136, Channel_aftertouch_c, 7, 0
5, 190224, Note_on_c, 7, 61, 0
5, 190272, Note_on_c, 7, 59, 1
5, 190448, Note_on_c, 7, 59, 0
5, 190448, End_track
6, 0, Start_track
6, 0, MIDI_port, 0
6, 0, Title_t, "Guitar 2"
6, 0, Program_c, 8, 28
6, 0, Control_c, 8, 7, 100
6, 0, Control_c, 8, 91, 40
6, 0, Control_c, 8, 93, 0
6, 52416, Control_c, 8, 91, 50
6, 52416, Control_c, 8, 7, 90
6, 52416, Note_on_c, 8, 59, 100
6, 52512, Note_on_c, 8, 62, 89
6, 52528, Note_on_c, 8, 59, 0
6, 52608, Note_on_c, 8, 64, 79
6, 52620, Note_on_c, 8, 62, 0
6, 52696, Note_on_c, 8, 64, 0
6, 52800, Note_on_c, 8, 59, 100
6, 52856, Note_on_c, 8, 59, 0
6, 52992, Note_on_c, 8, 62, 108
6, 53072, Note_on_c, 8, 62, 0
6, 53184, Note_on_c, 8, 59, 100
6, 53252, Note_on_c, 8, 59, 0
6, 53280, Note_on_c, 8, 64, 104
6, 53296, Channel_aftertouch_c, 8, 41
6, 53308, Channel_aftertouch_c, 8, 0
6, 53364, Note_on_c, 8, 64, 0
6, 53472, Note_on_c, 8, 59, 100
6, 53524, Note_on_c, 8, 59, 0
6, 53568, Note_on_c, 8, 62, 108
6, 53788, Note_on_c, 8, 62, 0
6, 53952, Note_on_c, 8, 59, 92
6, 54048, Note_on_c, 8, 62, 96
6, 54084, Note_on_c, 8, 59, 0
6, 54144, Note_on_c, 8, 64, 89
6, 54152, Note_on_c, 8, 62, 0
6, 54272, Note_on_c, 8, 64, 0
6, 54336, Note_on_c, 8, 59, 96
6, 54404, Note_on_c, 8, 59, 0
6, 54528, Note_on_c, 8, 67, 104
6, 54624, Note_on_c, 8, 67, 0
6, 54720, Note_on_c, 8, 62, 92
6, 54788, Note_on_c, 8, 62, 0
6, 54912, Note_on_c, 8, 64, 104
6, 55000, Note_on_c, 8, 64, 0
6, 55104, Note_on_c, 8, 62, 104
6, 55328, Note_on_c, 8, 62, 0
6, 55488, Note_on_c, 8, 59, 92
6, 55584, Note_on_c, 8, 62, 100
6, 55600, Note_on_c, 8, 59, 0
6, 55680, Note_on_c, 8, 64, 89
6, 55700, Note_on_c, 8, 62, 0
6, 55792, Note_on_c, 8, 64, 0
6, 55872, Note_on_c, 8, 59, 100
6, 55940, Note_on_c, 8, 59, 0
6, 56064, Note_on_c, 8, 62, 108
6, 56172, Note_on_c, 8, 62, 0
6, 56256, Note_on_c, 8, 59, 104
6, 56316, Note_on_c, 8, 59, 0
6, 56352, Note_on_c, 8, 64, 100
6, 56444, Note_on_c, 8, 64, 0
6, 56544, Note_on_c, 8, 59, 100
6, 56612, Note_on_c, 8, 59, 0
6, 56640, Note_on_c, 8, 62, 108
6, 56864, Note_on_c, 8, 62, 0
6, 57024, Note_on_c, 8, 59, 96
6, 57120, Note_on_c, 8, 62, 100
6, 57136, Note_on_c, 8, 59, 0
6, 57216, Note_on_c, 8, 64, 92
6, 57244, Note_on_c, 8, 62, 0
6, 57360, Note_on_c, 8, 64, 0
6, 57408, Note_on_c, 8, 59, 108
6, 57464, Note_on_c, 8, 59, 0
6, 57600, Pitch_bend_c, 8, 8192
6, 57600, Note_on_c, 8, 69, 108
6, 57604, Pitch_bend_c, 8, 8192
6, 57612, Pitch_bend_c, 8, 8256
6, 57616, Pitch_bend_c, 8, 8320
6, 57624, Pitch_bend_c, 8, 8320
6, 57632, Pitch_bend_c, 8, 8448
6, 57636, Pitch_bend_c, 8, 8512
6, 57644, Pitch_bend_c, 8, 8640
6, 57648, Pitch_bend_c, 8, 8768
6, 57656, Pitch_bend_c, 8, 8768
6, 57664, Pitch_bend_c, 8, 8960
6, 57668, Pitch_bend_c, 8, 9024
6, 57676, Pitch_bend_c, 8, 9152
6, 57680, Pitch_bend_c, 8, 10752
6, 57688, Pitch_bend_c, 8, 10752
6, 57696, Pitch_bend_c, 8, 10752
6, 57700, Note_on_c, 8, 69, 0
6, 57700, Pitch_bend_c, 8, 10688
6, 57708, Pitch_bend_c, 8, 10752
6, 57712, Pitch_bend_c, 8, 10752
6, 57720, Pitch_bend_c, 8, 10688
6, 57728, Pitch_bend_c, 8, 10752
6, 57792, Pitch_bend_c, 8, 8192
6, 57792, Note_on_c, 8, 67, 89
6, 57796, Pitch_bend_c, 8, 8192
6, 57844, Note_on_c, 8, 67, 0
6, 57984, Note_on_c, 8, 69, 108
6, 58044, Note_on_c, 8, 69, 0
6, 58176, Note_on_c, 8, 67, 104
6, 58396, Note_on_c, 8, 67, 0
6, 58560, Note_on_c, 8, 59, 104
6, 58656, Note_on_c, 8, 62, 96
6, 58676, Note_on_c, 8, 59, 0
6, 58752, Note_on_c, 8, 64, 96
6, 58800, Note_on_c, 8, 62, 0
6, 58840, Note_on_c, 8, 64, 0
6, 58944, Note_on_c, 8, 59, 104
6, 59024, Note_on_c, 8, 59, 0
6, 59136, Note_on_c, 8, 62, 100
6, 59264, Note_on_c, 8, 62, 0
6, 59328, Note_on_c, 8, 59, 96
6, 59400, Note_on_c, 8, 59, 0
6, 59424, Note_on_c, 8, 64, 100
6, 59532, Note_on_c, 8, 64, 0
6, 59616, Note_on_c, 8, 59, 100
6, 59712, Note_on_c, 8, 59, 0
6, 59712, Note_on_c, 8, 62, 108
6, 59732, Channel_aftertouch_c, 8, 41
6, 59744, Channel_aftertouch_c, 8, 0
6, 59936, Note_on_c, 8, 62, 0
6, 60096, Note_on_c, 8, 59, 104
6, 60192, Note_on_c, 8, 62, 89
6, 60216, Note_on_c, 8, 59, 0
6, 60288, Note_on_c, 8, 64, 89
6, 60312, Note_on_c, 8, 62, 0
6, 60432, Note_on_c, 8, 64, 0
6, 60480, Note_on_c, 8, 59, 104
6, 60540, Note_on_c, 8, 59, 0
6, 60672, Note_on_c, 8, 67, 108
6, 60744, Note_on_c, 8, 67, 0
6, 60864, Note_on_c, 8, 62, 104
6, 60924, Note_on_c, 8, 62, 0
6, 61056, Note_on_c, 8, 64, 104
6, 61132, Note_on_c, 8, 64, 0
6, 61248, Note_on_c, 8, 62, 108
6, 61472, Note_on_c, 8, 62, 0
6, 61632, Note_on_c, 8, 59, 92
6, 61728, Note_on_c, 8, 62, 92
6, 61740, Note_on_c, 8, 59, 0
6, 61824, Note_on_c, 8, 64, 100
6, 61872, Note_on_c, 8, 62, 0
6, 61900, Note_on_c, 8, 64, 0
6, 62016, Note_on_c, 8, 59, 104
6, 62092, Note_on_c, 8, 59, 0
6, 62208, Note_on_c, 8, 62, 104
6, 62288, Note_on_c, 8, 62, 0
6, 62400, Note_on_c, 8, 59, 104
6, 62464, Note_on_c, 8, 59, 0
6, 62496, Note_on_c, 8, 64, 104
6, 62580, Note_on_c, 8, 64, 0
6, 62688, Note_on_c, 8, 59, 104
6, 62740, Note_on_c, 8, 59, 0
6, 62784, Note_on_c, 8, 62, 108
6, 62980, Note_on_c, 8, 62, 0
6, 63168, Note_on_c, 8, 59, 104
6, 63264, Note_on_c, 8, 62, 96
6, 63284, Note_on_c, 8, 59, 0
6, 63360, Note_on_c, 8, 64, 89
6, 63384, Note_on_c, 8, 62, 0
6, 63496, Note_on_c, 8, 64, 0
6, 63552, Note_on_c, 8, 59, 96
6, 63616, Note_on_c, 8, 59, 0
6, 63744, Pitch_bend_c, 8, 8256
6, 63744, Note_on_c, 8, 69, 104
6, 63748, Pitch_bend_c, 8, 8192
6, 63756, Pitch_bend_c, 8, 8256
6, 63760, Pitch_bend_c, 8, 8256
6, 63768, Pitch_bend_c, 8, 8320
6, 63776, Pitch_bend_c, 8, 8320
6, 63780, Pitch_bend_c, 8, 8384
6, 63788, Pitch_bend_c, 8, 8448
6, 63792, Pitch_bend_c, 8, 8512
6, 63800, Pitch_bend_c, 8, 10496
6, 63808, Pitch_bend_c, 8, 10816
6, 63812, Pitch_bend_c, 8, 10944
6, 63820, Pitch_bend_c, 8, 10944
6, 63824, Pitch_bend_c, 8, 10944
6, 63828, Note_on_c, 8, 69, 0
6, 63832, Pitch_bend_c, 8, 10944
6, 63840, Pitch_bend_c, 8, 10944
6, 63844, Pitch_bend_c, 8, 10944
6, 63852, Pitch_bend_c, 8, 10944
6, 63856, Pitch_bend_c, 8, 10944
6, 63864, Pitch_bend_c, 8, 10944
6, 63872, Pitch_bend_c, 8, 10944
6, 63876, Pitch_bend_c, 8, 10944
6, 63884, Pitch_bend_c, 8, 10944
6, 63888, Pitch_bend_c, 8, 11072
6, 63896, Pitch_bend_c, 8, 11072
6, 63936, Pitch_bend_c, 8, 8192
6, 63936, Note_on_c, 8, 67, 104
6, 64000, Note_on_c, 8, 67, 0
6, 64128, Note_on_c, 8, 69, 108
6, 64196, Note_on_c, 8, 69, 0
6, 64320, Note_on_c, 8, 67, 113
6, 64492, Channel_aftertouch_c, 8, 2
6, 64504, Channel_aftertouch_c, 8, 5
6, 64560, Note_on_c, 8, 67, 0
6, 64704, Control_c, 8, 91, 50
6, 64704, Control_c, 8, 7, 90
6, 64704, Note_on_c, 8, 59, 100
6, 64800, Note_on_c, 8, 62, 89
6, 64816, Note_on_c, 8, 59, 0
6, 64896, Note_on_c, 8, 64, 79
6, 64908, Note_on_c, 8, 62, 0
6, 64984, Note_on_c, 8, 64, 0
6, 65088, Note_on_c, 8, 59, 100
6, 65144, Note_on_c, 8, 59, 0
6, 65280, Note_on_c, 8, 62, 108
6, 65360, Note_on_c, 8, 62, 0
6, 65472, Note_on_c, 8, 59, 100
6, 65540, Note_on_c, 8, 59, 0
6, 65568, Note_on_c, 8, 64, 104
6, 65584, Channel_aftertouch_c, 8, 41
6, 65596, Channel_aftertouch_c, 8, 0
6, 65652, Note_on_c, 8, 64, 0
6, 65760, Note_on_c, 8, 59, 100
6, 65812, Note_on_c, 8, 59, 0
6, 65856, Note_on_c, 8, 62, 108
6, 66076, Note_on_c, 8, 62, 0
6, 66240, Note_on_c, 8, 59, 92
6, 66336, Note_on_c, 8, 62, 96
6, 66372, Note_on_c, 8, 59, 0
6, 66432, Note_on_c, 8, 64, 89
6, 66440, Note_on_c, 8, 62, 0
6, 66560, Note_on_c, 8, 64, 0
6, 66624, Note_on_c, 8, 59, 96
6, 66692, Note_on_c, 8, 59, 0
6, 66816, Note_on_c, 8, 67, 104
6, 66912, Note_on_c, 8, 67, 0
6, 67008, Note_on_c, 8, 62, 92
6, 67076, Note_on_c, 8, 62, 0
6, 67200, Note_on_c, 8, 64, 104
6, 67288, Note_on_c, 8, 64, 0
6, 67392, Note_on_c, 8, 62, 104
6, 67616, Note_on_c, 8, 62, 0
6, 67776, Note_on_c, 8, 59, 92
6, 67872, Note_on_c, 8, 62, 100
6, 67888, Note_on_c, 8, 59, 0
6, 67968, Note_on_c, 8, 64, 89
6, 67988, Note_on_c, 8, 62, 0
6, 68080, Note_on_c, 8, 64, 0
6, 68160, Note_on_c, 8, 59, 100
6, 68228, Note_on_c, 8, 59, 0
6, 68352, Note_on_c, 8, 62, 108
6, 68460, Note_on_c, 8, 62, 0
6, 68544, Note_on_c, 8, 59, 104
6, 68604, Note_on_c, 8, 59, 0
6, 68640, Note_on_c, 8, 64, 100
6, 68732, Note_on_c, 8, 64, 0
6, 68832, Note_on_c, 8, 59, 100
6, 68900, Note_on_c, 8, 59, 0
6, 68928, Note_on_c, 8, 62, 108
6, 69152, Note_on_c, 8, 62, 0
6, 69312, Note_on_c, 8, 59, 96
6, 69408, Note_on_c, 8, 62, 100
6, 69424, Note_on_c, 8, 59, 0
6, 69504, Note_on_c, 8, 64, 92
6, 69532, Note_on_c, 8, 62, 0
6, 69648, Note_on_c, 8, 64, 0
6, 69696, Note_on_c, 8, 59, 108
6, 69752, Note_on_c, 8, 59, 0
6, 69888, Pitch_bend_c, 8, 8192
6, 69888, Note_on_c, 8, 69, 108
6, 69892, Pitch_bend_c, 8, 8192
6, 69900, Pitch_bend_c, 8, 8256
6, 69904, Pitch_bend_c, 8, 8320
6, 69912, Pitch_bend_c, 8, 8320
6, 69920, Pitch_bend_c, 8, 8448
6, 69924, Pitch_bend_c, 8, 8512
6, 69932, Pitch_bend_c, 8, 8640
6, 69936, Pitch_bend_c, 8, 8768
6, 69944, Pitch_bend_c, 8, 8768
6, 69952, Pitch_bend_c, 8, 8960
6, 69956, Pitch_bend_c, 8, 9024
6, 69964, Pitch_bend_c, 8, 9152
6, 69968, Pitch_bend_c, 8, 10752
6, 69976, Pitch_bend_c, 8, 10752
6, 69984, Pitch_bend_c, 8, 10752
6, 69988, Note_on_c, 8, 69, 0
6, 69988, Pitch_bend_c, 8, 10688
6, 69996, Pitch_bend_c, 8, 10752
6, 70000, Pitch_bend_c, 8, 10752
6, 70008, Pitch_bend_c, 8, 10688
6, 70016, Pitch_bend_c, 8, 10752
6, 70080, Pitch_bend_c, 8, 8192
6, 70080, Note_on_c, 8, 67, 89
6, 70084, Pitch_bend_c, 8, 8192
6, 70132, Note_on_c, 8, 67, 0
6, 70272, Note_on_c, 8, 69, 108
6, 70332, Note_on_c, 8, 69, 0
6, 70464, Note_on_c, 8, 67, 104
6, 70704, Note_on_c, 8, 67, 0
6, 70848, Control_c, 8, 91, 50
6, 70848, Control_c, 8, 7, 90
6, 70848, Note_on_c, 8, 59, 100
6, 70944, Note_on_c, 8, 62, 89
6, 70960, Note_on_c, 8, 59, 0
6, 71040, Note_on_c, 8, 64, 79
6, 71052, Note_on_c, 8, 62, 0
6, 71128, Note_on_c, 8, 64, 0
6, 71232, Note_on_c, 8, 59, 100
6, 71288, Note_on_c, 8, 59, 0
6, 71424, Note_on_c, 8, 62, 108
6, 71504, Note_on_c, 8, 62, 0
6, 71616, Note_on_c, 8, 59, 100
6, 71684, Note_on_c, 8, 59, 0
6, 71712, Note_on_c, 8, 64, 104
6, 71728, Channel_aftertouch_c, 8, 41
6, 71740, Channel_aftertouch_c, 8, 0
6, 71796, Note_on_c, 8, 64, 0
6, 71904, Note_on_c, 8, 59, 100
6, 71956, Note_on_c, 8, 59, 0
6, 72000, Note_on_c, 8, 62, 108
6, 72220, Note_on_c, 8, 62, 0
6, 72384, Note_on_c, 8, 59, 92
6, 72480, Note_on_c, 8, 62, 96
6, 72516, Note_on_c, 8, 59, 0
6, 72576, Note_on_c, 8, 64, 89
6, 72584, Note_on_c, 8, 62, 0
6, 72704, Note_on_c, 8, 64, 0
6, 72768, Note_on_c, 8, 59, 96
6, 72836, Note_on_c, 8, 59, 0
6, 72960, Note_on_c, 8, 67, 104
6, 73056, Note_on_c, 8, 67, 0
6, 73152, Note_on_c, 8, 62, 92
6, 73220, Note_on_c, 8, 62, 0
6, 73344, Note_on_c, 8, 64, 104
6, 73432, Note_on_c, 8, 64, 0
6, 73536, Note_on_c, 8, 62, 104
6, 73760, Note_on_c, 8, 62, 0
6, 73920, Note_on_c, 8, 59, 92
6, 74016, Note_on_c, 8, 62, 100
6, 74032, Note_on_c, 8, 59, 0
6, 74112, Note_on_c, 8, 64, 89
6, 74132, Note_on_c, 8, 62, 0
6, 74224, Note_on_c, 8, 64, 0
6, 74304, Note_on_c, 8, 59, 100
6, 74372, Note_on_c, 8, 59, 0
6, 74496, Note_on_c, 8, 62, 108
6, 74604, Note_on_c, 8, 62, 0
6, 74688, Note_on_c, 8, 59, 104
6, 74748, Note_on_c, 8, 59, 0
6, 74784, Note_on_c, 8, 64, 100
6, 74876, Note_on_c, 8, 64, 0
6, 74976, Note_on_c, 8, 59, 100
6, 75044, Note_on_c, 8, 59, 0
6, 75072, Note_on_c, 8, 62, 108
6, 75296, Note_on_c, 8, 62, 0
6, 75456, Note_on_c, 8, 59, 96
6, 75552, Note_on_c, 8, 62, 100
6, 75568, Note_on_c, 8, 59, 0
6, 75648, Note_on_c, 8, 64, 92
6, 75676, Note_on_c, 8, 62, 0
6, 75792, Note_on_c, 8, 64, 0
6, 75840, Note_on_c, 8, 59, 108
6, 75896, Note_on_c, 8, 59, 0
6, 76032, Pitch_bend_c, 8, 8192
6, 76032, Note_on_c, 8, 69, 108
6, 76036, Pitch_bend_c, 8, 8192
6, 76044, Pitch_bend_c, 8, 8256
6, 76048, Pitch_bend_c, 8, 8320
6, 76056, Pitch_bend_c, 8, 8320
6, 76064, Pitch_bend_c, 8, 8448
6, 76068, Pitch_bend_c, 8, 8512
6, 76076, Pitch_bend_c, 8, 8640
6, 76080, Pitch_bend_c, 8, 8768
6, 76088, Pitch_bend_c, 8, 8768
6, 76096, Pitch_bend_c, 8, 8960
6, 76100, Pitch_bend_c, 8, 9024
6, 76108, Pitch_bend_c, 8, 9152
6, 76112, Pitch_bend_c, 8, 10752
6, 76120, Pitch_bend_c, 8, 10752
6, 76128, Pitch_bend_c, 8, 10752
6, 76132, Note_on_c, 8, 69, 0
6, 76132, Pitch_bend_c, 8, 10688
6, 76140, Pitch_bend_c, 8, 10752
6, 76144, Pitch_bend_c, 8, 10752
6, 76152, Pitch_bend_c, 8, 10688
6, 76160, Pitch_bend_c, 8, 10752
6, 76224, Pitch_bend_c, 8, 8192
6, 76224, Note_on_c, 8, 67, 89
6, 76228, Pitch_bend_c, 8, 8192
6, 76276, Note_on_c, 8, 67, 0
6, 76416, Note_on_c, 8, 69, 108
6, 76476, Note_on_c, 8, 69, 0
6, 76608, Note_on_c, 8, 67, 104
6, 76848, Note_on_c, 8, 67, 0
6, 110592, Note_on_c, 8, 76, 104
6, 110592, Note_on_c, 8, 64, 108
6, 110624, Channel_aftertouch_c, 8, 32
6, 110636, Channel_aftertouch_c, 8, 88
6, 110648, Channel_aftertouch_c, 8, 84
6, 110660, Channel_aftertouch_c, 8, 62
6, 110672, Channel_aftertouch_c, 8, 0
6, 110724, Note_on_c, 8, 64, 0
6, 110724, Note_on_c, 8, 76, 0
6, 110976, Note_on_c, 8, 76, 108
6, 110976, Note_on_c, 8, 64, 108
6, 111008, Channel_aftertouch_c, 8, 99
6, 111024, Channel_aftertouch_c, 8, 83
6, 111032, Channel_aftertouch_c, 8, 89
6, 111048, Channel_aftertouch_c, 8, 76
6, 111056, Channel_aftertouch_c, 8, 54
6, 111072, Channel_aftertouch_c, 8, 3
6, 111084, Note_on_c, 8, 64, 0
6, 111084, Channel_aftertouch_c, 8, 0
6, 111108, Note_on_c, 8, 76, 0
6, 111360, Note_on_c, 8, 76, 104
6, 111360, Note_on_c, 8, 64, 108
6, 111392, Channel_aftertouch_c, 8, 50
6, 111404, Channel_aftertouch_c, 8, 82
6, 111416, Channel_aftertouch_c, 8, 79
6, 111432, Channel_aftertouch_c, 8, 58
6, 111440, Channel_aftertouch_c, 8, 15
6, 111452, Channel_aftertouch_c, 8, 0
6, 111488, Note_on_c, 8, 64, 0
6, 111488, Note_on_c, 8, 76, 0
6, 111744, Note_on_c, 8, 64, 108
6, 111744, Note_on_c, 8, 76, 100
6, 111764, Channel_aftertouch_c, 8, 64
6, 111776, Channel_aftertouch_c, 8, 83
6, 111788, Channel_aftertouch_c, 8, 85
6, 111800, Channel_aftertouch_c, 8, 74
6, 111812, Channel_aftertouch_c, 8, 57
6, 111824, Channel_aftertouch_c, 8, 29
6, 111836, Channel_aftertouch_c, 8, 0
6, 111856, Note_on_c, 8, 64, 0
6, 111872, Note_on_c, 8, 76, 0
6, 112128, Note_on_c, 8, 76, 104
6, 112128, Note_on_c, 8, 64, 113
6, 112152, Channel_aftertouch_c, 8, 70
6, 112164, Channel_aftertouch_c, 8, 95
6, 112176, Channel_aftertouch_c, 8, 91
6, 112188, Channel_aftertouch_c, 8, 72
6, 112200, Channel_aftertouch_c, 8, 45
6, 112212, Channel_aftertouch_c, 8, 16
6, 112224, Channel_aftertouch_c, 8, 0
6, 112272, Note_on_c, 8, 64, 0
6, 112276, Note_on_c, 8, 76, 0
6, 112512, Note_on_c, 8, 76, 104
6, 112512, Note_on_c, 8, 64, 104
6, 112548, Channel_aftertouch_c, 8, 84
6, 112556, Channel_aftertouch_c, 8, 92
6, 112568, Channel_aftertouch_c, 8, 80
6, 112584, Channel_aftertouch_c, 8, 59
6, 112592, Channel_aftertouch_c, 8, 5
6, 112608, Channel_aftertouch_c, 8, 0
6, 112632, Note_on_c, 8, 64, 0
6, 112636, Note_on_c, 8, 76, 0
6, 112896, Note_on_c, 8, 64, 104
6, 112896, Note_on_c, 8, 76, 96
6, 112916, Channel_aftertouch_c, 8, 37
6, 112928, Channel_aftertouch_c, 8, 75
6, 112940, Channel_aftertouch_c, 8, 80
6, 112952, Channel_aftertouch_c, 8, 70
6, 112964, Channel_aftertouch_c, 8, 53
6, 112976, Channel_aftertouch_c, 8, 0
6, 113000, Note_on_c, 8, 64, 0
6, 113012, Note_on_c, 8, 76, 0
6, 113280, Note_on_c, 8, 76, 100
6, 113280, Note_on_c, 8, 64, 108
6, 113304, Channel_aftertouch_c, 8, 77
6, 113316, Channel_aftertouch_c, 8, 90
6, 113328, Channel_aftertouch_c, 8, 86
6, 113340, Channel_aftertouch_c, 8, 70
6, 113352, Channel_aftertouch_c, 8, 47
6, 113364, Channel_aftertouch_c, 8, 0
6, 113400, Note_on_c, 8, 64, 0
6, 113408, Note_on_c, 8, 76, 0
6, 113664, Note_on_c, 8, 64, 108
6, 113664, Note_on_c, 8, 76, 100
6, 113696, Channel_aftertouch_c, 8, 87
6, 113708, Channel_aftertouch_c, 8, 92
6, 113720, Channel_aftertouch_c, 8, 80
6, 113736, Channel_aftertouch_c, 8, 62
6, 113744, Channel_aftertouch_c, 8, 38
6, 113756, Channel_aftertouch_c, 8, 0
6, 113812, Note_on_c, 8, 76, 0
6, 113816, Note_on_c, 8, 64, 0
6, 114048, Note_on_c, 8, 76, 104
6, 114048, Note_on_c, 8, 64, 108
6, 114088, Channel_aftertouch_c, 8, 80
6, 114104, Channel_aftertouch_c, 8, 87
6, 114116, Channel_aftertouch_c, 8, 77
6, 114128, Channel_aftertouch_c, 8, 58
6, 114136, Channel_aftertouch_c, 8, 28
6, 114152, Channel_aftertouch_c, 8, 0
6, 114184, Note_on_c, 8, 64, 0
6, 114184, Note_on_c, 8, 76, 0
6, 114432, Note_on_c, 8, 76, 104
6, 114432, Note_on_c, 8, 64, 108
6, 114448, Channel_aftertouch_c, 8, 77
6, 114464, Channel_aftertouch_c, 8, 91
6, 114472, Channel_aftertouch_c, 8, 87
6, 114488, Channel_aftertouch_c, 8, 70
6, 114500, Channel_aftertouch_c, 8, 51
6, 114512, Channel_aftertouch_c, 8, 34
6, 114524, Channel_aftertouch_c, 8, 20
6, 114536, Channel_aftertouch_c, 8, 0
6, 114584, Note_on_c, 8, 64, 0
6, 114584, Note_on_c, 8, 76, 0
6, 114816, Note_on_c, 8, 64, 108
6, 114816, Note_on_c, 8, 76, 104
6, 114840, Channel_aftertouch_c, 8, 71
6, 114856, Channel_aftertouch_c, 8, 100
6, 114868, Channel_aftertouch_c, 8, 102
6, 114876, Channel_aftertouch_c, 8, 83
6, 114892, Channel_aftertouch_c, 8, 61
6, 114900, Channel_aftertouch_c, 8, 22
6, 114912, Channel_aftertouch_c, 8, 0
6, 114936, Note_on_c, 8, 76, 0
6, 114940, Note_on_c, 8, 64, 0
6, 115200, Note_on_c, 8, 64, 104
6, 115200, Note_on_c, 8, 76, 100
6, 115228, Channel_aftertouch_c, 8, 83
6, 115240, Channel_aftertouch_c, 8, 89
6, 115256, Channel_aftertouch_c, 8, 80
6, 115264, Channel_aftertouch_c, 8, 63
6, 115280, Channel_aftertouch_c, 8, 38
6, 115288, Channel_aftertouch_c, 8, 0
6, 115320, Note_on_c, 8, 64, 0
6, 115332, Note_on_c, 8, 76, 0
6, 115584, Note_on_c, 8, 76, 100
6, 115584, Note_on_c, 8, 64, 113
6, 115616, Channel_aftertouch_c, 8, 60
6, 115628, Channel_aftertouch_c, 8, 91
6, 115640, Channel_aftertouch_c, 8, 88
6, 115652, Channel_aftertouch_c, 8, 72
6, 115664, Channel_aftertouch_c, 8, 53
6, 115676, Channel_aftertouch_c, 8, 31
6, 115688, Channel_aftertouch_c, 8, 0
6, 115712, Note_on_c, 8, 64, 0
6, 115720, Note_on_c, 8, 76, 0
6, 115968, Note_on_c, 8, 76, 104
6, 115968, Note_on_c, 8, 64, 104
6, 115996, Channel_aftertouch_c, 8, 33
6, 116008, Channel_aftertouch_c, 8, 89
6, 116016, Channel_aftertouch_c, 8, 87
6, 116032, Channel_aftertouch_c, 8, 72
6, 116044, Channel_aftertouch_c, 8, 59
6, 116056, Channel_aftertouch_c, 8, 51
6, 116080, Channel_aftertouch_c, 8, 50
6, 116088, Channel_aftertouch_c, 8, 45
6, 116100, Channel_aftertouch_c, 8, 26
6, 116112, Channel_aftertouch_c, 8, 0
6, 116132, Note_on_c, 8, 76, 0
6, 116136, Note_on_c, 8, 64, 0
6, 116352, Note_on_c, 8, 76, 104
6, 116352, Note_on_c, 8, 64, 113
6, 116380, Channel_aftertouch_c, 8, 70
6, 116392, Channel_aftertouch_c, 8, 92
6, 116404, Channel_aftertouch_c, 8, 88
6, 116416, Channel_aftertouch_c, 8, 71
6, 116428, Channel_aftertouch_c, 8, 49
6, 116440, Channel_aftertouch_c, 8, 13
6, 116452, Channel_aftertouch_c, 8, 0
6, 116456, Note_on_c, 8, 64, 0
6, 116464, Note_on_c, 8, 76, 0
6, 116736, Note_on_c, 8, 76, 104
6, 116736, Note_on_c, 8, 64, 108
6, 116768, Channel_aftertouch_c, 8, 53
6, 116780, Channel_aftertouch_c, 8, 90
6, 116792, Channel_aftertouch_c, 8, 85
6, 116804, Channel_aftertouch_c, 8, 62
6, 116816, Channel_aftertouch_c, 8, 0
6, 116832, Note_on_c, 8, 64, 0
6, 116840, Note_on_c, 8, 76, 0
6, 117120, Note_on_c, 8, 76, 104
6, 117120, Note_on_c, 8, 64, 113
6, 117144, Channel_aftertouch_c, 8, 85
6, 117156, Channel_aftertouch_c, 8, 88
6, 117168, Channel_aftertouch_c, 8, 69
6, 117180, Channel_aftertouch_c, 8, 45
6, 117192, Channel_aftertouch_c, 8, 0
6, 117232, Note_on_c, 8, 64, 0
6, 117244, Note_on_c, 8, 76, 0
6, 117504, Note_on_c, 8, 76, 100
6, 117504, Note_on_c, 8, 64, 108
6, 117524, Channel_aftertouch_c, 8, 41
6, 117540, Channel_aftertouch_c, 8, 88
6, 117552, Channel_aftertouch_c, 8, 86
6, 117560, Channel_aftertouch_c, 8, 67
6, 117576, Channel_aftertouch_c, 8, 46
6, 117584, Channel_aftertouch_c, 8, 12
6, 117600, Channel_aftertouch_c, 8, 0
6, 117632, Note_on_c, 8, 64, 0
6, 117632, Note_on_c, 8, 76, 0
6, 117888, Note_on_c, 8, 76, 100
6, 117888, Note_on_c, 8, 64, 113
6, 117920, Channel_aftertouch_c, 8, 74
6, 117932, Channel_aftertouch_c, 8, 89
6, 117944, Channel_aftertouch_c, 8, 79
6, 117956, Channel_aftertouch_c, 8, 62
6, 117968, Channel_aftertouch_c, 8, 34
6, 117980, Channel_aftertouch_c, 8, 0
6, 118004, Note_on_c, 8, 64, 0
6, 118020, Note_on_c, 8, 76, 0
6, 118272, Note_on_c, 8, 76, 104
6, 118272, Note_on_c, 8, 64, 108
6, 118308, Channel_aftertouch_c, 8, 90
6, 118320, Channel_aftertouch_c, 8, 100
6, 118332, Channel_aftertouch_c, 8, 86
6, 118344, Channel_aftertouch_c, 8, 65
6, 118356, Channel_aftertouch_c, 8, 37
6, 118368, Channel_aftertouch_c, 8, 14
6, 118380, Channel_aftertouch_c, 8, 7
6, 118392, Channel_aftertouch_c, 8, 0
6, 118416, Note_on_c, 8, 64, 0
6, 118432, Note_on_c, 8, 76, 0
6, 118656, Note_on_c, 8, 76, 108
6, 118656, Note_on_c, 8, 64, 113
6, 118696, Channel_aftertouch_c, 8, 88
6, 118708, Channel_aftertouch_c, 8, 95
6, 118720, Channel_aftertouch_c, 8, 82
6, 118732, Channel_aftertouch_c, 8, 65
6, 118744, Channel_aftertouch_c, 8, 38
6, 118760, Channel_aftertouch_c, 8, 8
6, 118768, Channel_aftertouch_c, 8, 0
6, 118784, Note_on_c, 8, 64, 0
6, 118792, Note_on_c, 8, 76, 0
6, 119040, Note_on_c, 8, 76, 104
6, 119040, Note_on_c, 8, 64, 108
6, 119080, Channel_aftertouch_c, 8, 101
6, 119092, Channel_aftertouch_c, 8, 99
6, 119104, Channel_aftertouch_c, 8, 80
6, 119116, Channel_aftertouch_c, 8, 53
6, 119128, Channel_aftertouch_c, 8, 0
6, 119180, Note_on_c, 8, 64, 0
6, 119180, Note_on_c, 8, 76, 0
6, 119424, Note_on_c, 8, 64, 104
6, 119424, Note_on_c, 8, 76, 100
6, 119452, Channel_aftertouch_c, 8, 98
6, 119464, Channel_aftertouch_c, 8, 89
6, 119476, Channel_aftertouch_c, 8, 93
6, 119488, Channel_aftertouch_c, 8, 82
6, 119500, Channel_aftertouch_c, 8, 63
6, 119512, Channel_aftertouch_c, 8, 37
6, 119520, Channel_aftertouch_c, 8, 0
6, 119572, Note_on_c, 8, 64, 0
6, 119576, Note_on_c, 8, 76, 0
6, 119808, Note_on_c, 8, 76, 104
6, 119808, Note_on_c, 8, 64, 108
6, 119840, Channel_aftertouch_c, 8, 90
6, 119848, Channel_aftertouch_c, 8, 95
6, 119864, Channel_aftertouch_c, 8, 83
6, 119872, Channel_aftertouch_c, 8, 67
6, 119888, Channel_aftertouch_c, 8, 47
6, 119896, Channel_aftertouch_c, 8, 35
6, 119908, Channel_aftertouch_c, 8, 32
6, 119924, Channel_aftertouch_c, 8, 12
6, 119932, Channel_aftertouch_c, 8, 0
6, 119952, Note_on_c, 8, 64, 0
6, 119960, Note_on_c, 8, 76, 0
6, 120192, Note_on_c, 8, 76, 104
6, 120192, Note_on_c, 8, 64, 108
6, 120224, Channel_aftertouch_c, 8, 88
6, 120236, Channel_aftertouch_c, 8, 103
6, 120248, Channel_aftertouch_c, 8, 91
6, 120260, Channel_aftertouch_c, 8, 71
6, 120272, Channel_aftertouch_c, 8, 31
6, 120284, Channel_aftertouch_c, 8, 0
6, 120312, Note_on_c, 8, 64, 0
6, 120336, Note_on_c, 8, 76, 0
6, 120576, Note_on_c, 8, 76, 104
6, 120576, Note_on_c, 8, 64, 113
6, 120608, Channel_aftertouch_c, 8, 82
6, 120616, Channel_aftertouch_c, 8, 100
6, 120632, Channel_aftertouch_c, 8, 87
6, 120640, Channel_aftertouch_c, 8, 64
6, 120652, Channel_aftertouch_c, 8, 0
6, 120696, Note_on_c, 8, 64, 0
6, 120704, Note_on_c, 8, 76, 0
6, 120960, Note_on_c, 8, 76, 104
6, 120960, Note_on_c, 8, 64, 113
6, 120980, Channel_aftertouch_c, 8, 58
6, 120992, Channel_aftertouch_c, 8, 106
6, 121004, Channel_aftertouch_c, 8, 100
6, 121016, Channel_aftertouch_c, 8, 72
6, 121028, Channel_aftertouch_c, 8, 39
6, 121040, Channel_aftertouch_c, 8, 0
6, 121100, Note_on_c, 8, 64, 0
6, 121116, Note_on_c, 8, 76, 0
6, 121344, Note_on_c, 8, 76, 100
6, 121344, Note_on_c, 8, 64, 108
6, 121372, Channel_aftertouch_c, 8, 38
6, 121384, Channel_aftertouch_c, 8, 95
6, 121396, Channel_aftertouch_c, 8, 92
6, 121408, Channel_aftertouch_c, 8, 73
6, 121420, Channel_aftertouch_c, 8, 51
6, 121432, Channel_aftertouch_c, 8, 0
6, 121488, Note_on_c, 8, 64, 0
6, 121500, Note_on_c, 8, 76, 0
6, 121728, Note_on_c, 8, 64, 108
6, 121728, Note_on_c, 8, 76, 108
6, 121736, Channel_aftertouch_c, 8, 116
6, 121744, Channel_aftertouch_c, 8, 85
6, 121756, Channel_aftertouch_c, 8, 100
6, 121768, Channel_aftertouch_c, 8, 91
6, 121780, Channel_aftertouch_c, 8, 67
6, 121792, Channel_aftertouch_c, 8, 37
6, 121804, Channel_aftertouch_c, 8, 0
6, 121876, Note_on_c, 8, 76, 0
6, 121876, Note_on_c, 8, 64, 0
6, 122112, Note_on_c, 8, 76, 104
6, 122112, Note_on_c, 8, 64, 104
6, 122116, Channel_aftertouch_c, 8, 61
6, 122128, Channel_aftertouch_c, 8, 90
6, 122140, Channel_aftertouch_c, 8, 99
6, 122152, Channel_aftertouch_c, 8, 90
6, 122164, Channel_aftertouch_c, 8, 75
6, 122176, Channel_aftertouch_c, 8, 62
6, 122188, Channel_aftertouch_c, 8, 53
6, 122200, Channel_aftertouch_c, 8, 47
6, 122212, Channel_aftertouch_c, 8, 41
6, 122224, Channel_aftertouch_c, 8, 20
6, 122236, Channel_aftertouch_c, 8, 0
6, 122288, Note_on_c, 8, 64, 0
6, 122288, Note_on_c, 8, 76, 0
6, 122496, Note_on_c, 8, 64, 113
6, 122496, Note_on_c, 8, 76, 104
6, 122504, Channel_aftertouch_c, 8, 87
6, 122516, Channel_aftertouch_c, 8, 118
6, 122528, Channel_aftertouch_c, 8, 115
6, 122536, Channel_aftertouch_c, 8, 89
6, 122552, Channel_aftertouch_c, 8, 64
6, 122560, Channel_aftertouch_c, 8, 31
6, 122576, Channel_aftertouch_c, 8, 31
6, 122584, Channel_aftertouch_c, 8, 39
6, 122600, Channel_aftertouch_c, 8, 41
6, 122612, Channel_aftertouch_c, 8, 28
6, 122620, Channel_aftertouch_c, 8, 0
6, 122656, Note_on_c, 8, 76, 0
6, 122668, Note_on_c, 8, 64, 0
6, 122880, Note_on_c, 8, 76, 104
6, 122880, Note_on_c, 8, 64, 108
6, 122912, Channel_aftertouch_c, 8, 32
6, 122924, Channel_aftertouch_c, 8, 88
6, 122936, Channel_aftertouch_c, 8, 84
6, 122948, Channel_aftertouch_c, 8, 62
6, 122960, Channel_aftertouch_c, 8, 0
6, 123012, Note_on_c, 8, 64, 0
6, 123012, Note_on_c, 8, 76, 0
6, 123264, Note_on_c, 8, 76, 108
6, 123264, Note_on_c, 8, 64, 108
6, 123296, Channel_aftertouch_c, 8, 99
6, 123312, Channel_aftertouch_c, 8, 83
6, 123320, Channel_aftertouch_c, 8, 89
6, 123336, Channel_aftertouch_c, 8, 76
6, 123344, Channel_aftertouch_c, 8, 54
6, 123360, Channel_aftertouch_c, 8, 3
6, 123372, Note_on_c, 8, 64, 0
6, 123372, Channel_aftertouch_c, 8, 0
6, 123396, Note_on_c, 8, 76, 0
6, 123648, Note_on_c, 8, 76, 104
6, 123648, Note_on_c, 8, 64, 108
6, 123680, Channel_aftertouch_c, 8, 50
6, 123692, Channel_aftertouch_c, 8, 82
6, 123704, Channel_aftertouch_c, 8, 79
6, 123720, Channel_aftertouch_c, 8, 58
6, 123728, Channel_aftertouch_c, 8, 15
6, 123740, Channel_aftertouch_c, 8, 0
6, 123776, Note_on_c, 8, 64, 0
6, 123776, Note_on_c, 8, 76, 0
6, 124032, Note_on_c, 8, 64, 108
6, 124032, Note_on_c, 8, 76, 100
6, 124052, Channel_aftertouch_c, 8, 64
6, 124064, Channel_aftertouch_c, 8, 83
6, 124076, Channel_aftertouch_c, 8, 85
6, 124088, Channel_aftertouch_c, 8, 74
6, 124100, Channel_aftertouch_c, 8, 57
6, 124112, Channel_aftertouch_c, 8, 29
6, 124124, Channel_aftertouch_c, 8, 0
6, 124144, Note_on_c, 8, 64, 0
6, 124160, Note_on_c, 8, 76, 0
6, 124416, Note_on_c, 8, 76, 104
6, 124416, Note_on_c, 8, 64, 113
6, 124440, Channel_aftertouch_c, 8, 70
6, 124452, Channel_aftertouch_c, 8, 95
6, 124464, Channel_aftertouch_c, 8, 91
6, 124476, Channel_aftertouch_c, 8, 72
6, 124488, Channel_aftertouch_c, 8, 45
6, 124500, Channel_aftertouch_c, 8, 16
6, 124512, Channel_aftertouch_c, 8, 0
6, 124560, Note_on_c, 8, 64, 0
6, 124564, Note_on_c, 8, 76, 0
6, 124800, Note_on_c, 8, 76, 104
6, 124800, Note_on_c, 8, 64, 104
6, 124836, Channel_aftertouch_c, 8, 84
6, 124844, Channel_aftertouch_c, 8, 92
6, 124856, Channel_aftertouch_c, 8, 80
6, 124872, Channel_aftertouch_c, 8, 59
6, 124880, Channel_aftertouch_c, 8, 5
6, 124896, Channel_aftertouch_c, 8, 0
6, 124920, Note_on_c, 8, 64, 0
6, 124924, Note_on_c, 8, 76, 0
6, 125184, Note_on_c, 8, 64, 104
6, 125184, Note_on_c, 8, 76, 96
6, 125204, Channel_aftertouch_c, 8, 37
6, 125216, Channel_aftertouch_c, 8, 75
6, 125228, Channel_aftertouch_c, 8, 80
6, 125240, Channel_aftertouch_c, 8, 70
6, 125252, Channel_aftertouch_c, 8, 53
6, 125264, Channel_aftertouch_c, 8, 0
6, 125288, Note_on_c, 8, 64, 0
6, 125300, Note_on_c, 8, 76, 0
6, 125568, Note_on_c, 8, 76, 100
6, 125568, Note_on_c, 8, 64, 108
6, 125592, Channel_aftertouch_c, 8, 77
6, 125604, Channel_aftertouch_c, 8, 90
6, 125616, Channel_aftertouch_c, 8, 86
6, 125628, Channel_aftertouch_c, 8, 70
6, 125640, Channel_aftertouch_c, 8, 47
6, 125652, Channel_aftertouch_c, 8, 0
6, 125688, Note_on_c, 8, 64, 0
6, 125696, Note_on_c, 8, 76, 0
6, 125952, Note_on_c, 8, 64, 108
6, 125952, Note_on_c, 8, 76, 100
6, 125984, Channel_aftertouch_c, 8, 87
6, 125996, Channel_aftertouch_c, 8, 92
6, 126008, Channel_aftertouch_c, 8, 80
6, 126024, Channel_aftertouch_c, 8, 62
6, 126032, Channel_aftertouch_c, 8, 38
6, 126044, Channel_aftertouch_c, 8, 0
6, 126100, Note_on_c, 8, 76, 0
6, 126104, Note_on_c, 8, 64, 0
6, 126336, Note_on_c, 8, 76, 104
6, 126336, Note_on_c, 8, 64, 108
6, 126376, Channel_aftertouch_c, 8, 80
6, 126392, Channel_aftertouch_c, 8, 87
6, 126404, Channel_aftertouch_c, 8, 77
6, 126416, Channel_aftertouch_c, 8, 58
6, 126424, Channel_aftertouch_c, 8, 28
6, 126440, Channel_aftertouch_c, 8, 0
6, 126472, Note_on_c, 8, 64, 0
6, 126472, Note_on_c, 8, 76, 0
6, 126720, Note_on_c, 8, 76, 104
6, 126720, Note_on_c, 8, 64, 108
6, 126736, Channel_aftertouch_c, 8, 77
6, 126752, Channel_aftertouch_c, 8, 91
6, 126760, Channel_aftertouch_c, 8, 87
6, 126776, Channel_aftertouch_c, 8, 70
6, 126788, Channel_aftertouch_c, 8, 51
6, 126800, Channel_aftertouch_c, 8, 34
6, 126812, Channel_aftertouch_c, 8, 20
6, 126824, Channel_aftertouch_c, 8, 0
6, 126872, Note_on_c, 8, 64, 0
6, 126872, Note_on_c, 8, 76, 0
6, 127104, Note_on_c, 8, 64, 108
6, 127104, Note_on_c, 8, 76, 104
6, 127128, Channel_aftertouch_c, 8, 71
6, 127144, Channel_aftertouch_c, 8, 100
6, 127156, Channel_aftertouch_c, 8, 102
6, 127164, Channel_aftertouch_c, 8, 83
6, 127180, Channel_aftertouch_c, 8, 61
6, 127188, Channel_aftertouch_c, 8, 22
6, 127200, Channel_aftertouch_c, 8, 0
6, 127224, Note_on_c, 8, 76, 0
6, 127228, Note_on_c, 8, 64, 0
6, 127488, Note_on_c, 8, 64, 104
6, 127488, Note_on_c, 8, 76, 100
6, 127516, Channel_aftertouch_c, 8, 83
6, 127528, Channel_aftertouch_c, 8, 89
6, 127544, Channel_aftertouch_c, 8, 80
6, 127552, Channel_aftertouch_c, 8, 63
6, 127568, Channel_aftertouch_c, 8, 38
6, 127576, Channel_aftertouch_c, 8, 0
6, 127608, Note_on_c, 8, 64, 0
6, 127620, Note_on_c, 8, 76, 0
6, 127872, Note_on_c, 8, 76, 100
6, 127872, Note_on_c, 8, 64, 113
6, 127904, Channel_aftertouch_c, 8, 60
6, 127916, Channel_aftertouch_c, 8, 91
6, 127928, Channel_aftertouch_c, 8, 88
6, 127940, Channel_aftertouch_c, 8, 72
6, 127952, Channel_aftertouch_c, 8, 53
6, 127964, Channel_aftertouch_c, 8, 31
6, 127976, Channel_aftertouch_c, 8, 0
6, 128000, Note_on_c, 8, 64, 0
6, 128008, Note_on_c, 8, 76, 0
6, 128256, Note_on_c, 8, 76, 104
6, 128256, Note_on_c, 8, 64, 104
6, 128284, Channel_aftertouch_c, 8, 33
6, 128296, Channel_aftertouch_c, 8, 89
6, 128304, Channel_aftertouch_c, 8, 87
6, 128320, Channel_aftertouch_c, 8, 72
6, 128332, Channel_aftertouch_c, 8, 59
6, 128344, Channel_aftertouch_c, 8, 51
6, 128368, Channel_aftertouch_c, 8, 50
6, 128376, Channel_aftertouch_c, 8, 45
6, 128388, Channel_aftertouch_c, 8, 26
6, 128400, Channel_aftertouch_c, 8, 0
6, 128420, Note_on_c, 8, 76, 0
6, 128424, Note_on_c, 8, 64, 0
6, 128640, Note_on_c, 8, 76, 104
6, 128640, Note_on_c, 8, 64, 113
6, 128668, Channel_aftertouch_c, 8, 70
6, 128680, Channel_aftertouch_c, 8, 92
6, 128692, Channel_aftertouch_c, 8, 88
6, 128704, Channel_aftertouch_c, 8, 71
6, 128716, Channel_aftertouch_c, 8, 49
6, 128728, Channel_aftertouch_c, 8, 13
6, 128740, Channel_aftertouch_c, 8, 0
6, 128744, Note_on_c, 8, 64, 0
6, 128752, Note_on_c, 8, 76, 0
6, 129024, Note_on_c, 8, 76, 104
6, 129024, Note_on_c, 8, 64, 108
6, 129056, Channel_aftertouch_c, 8, 53
6, 129068, Channel_aftertouch_c, 8, 90
6, 129080, Channel_aftertouch_c, 8, 85
6, 129092, Channel_aftertouch_c, 8, 62
6, 129104, Channel_aftertouch_c, 8, 0
6, 129120, Note_on_c, 8, 64, 0
6, 129128, Note_on_c, 8, 76, 0
6, 129408, Note_on_c, 8, 76, 104
6, 129408, Note_on_c, 8, 64, 113
6, 129432, Channel_aftertouch_c, 8, 85
6, 129444, Channel_aftertouch_c, 8, 88
6, 129456, Channel_aftertouch_c, 8, 69
6, 129468, Channel_aftertouch_c, 8, 45
6, 129480, Channel_aftertouch_c, 8, 0
6, 129520, Note_on_c, 8, 64, 0
6, 129532, Note_on_c, 8, 76, 0
6, 129792, Note_on_c, 8, 76, 100
6, 129792, Note_on_c, 8, 64, 108
6, 129812, Channel_aftertouch_c, 8, 41
6, 129828, Channel_aftertouch_c, 8, 88
6, 129840, Channel_aftertouch_c, 8, 86
6, 129848, Channel_aftertouch_c, 8, 67
6, 129864, Channel_aftertouch_c, 8, 46
6, 129872, Channel_aftertouch_c, 8, 12
6, 129888, Channel_aftertouch_c, 8, 0
6, 129920, Note_on_c, 8, 64, 0
6, 129920, Note_on_c, 8, 76, 0
6, 130176, Note_on_c, 8, 76, 100
6, 130176, Note_on_c, 8, 64, 113
6, 130208, Channel_aftertouch_c, 8, 74
6, 130220, Channel_aftertouch_c, 8, 89
6, 130232, Channel_aftertouch_c, 8, 79
6, 130244, Channel_aftertouch_c, 8, 62
6, 130256, Channel_aftertouch_c, 8, 34
6, 130268, Channel_aftertouch_c, 8, 0
6, 130292, Note_on_c, 8, 64, 0
6, 130308, Note_on_c, 8, 76, 0
6, 130560, Note_on_c, 8, 76, 104
6, 130560, Note_on_c, 8, 64, 108
6, 130596, Channel_aftertouch_c, 8, 90
6, 130608, Channel_aftertouch_c, 8, 100
6, 130620, Channel_aftertouch_c, 8, 86
6, 130632, Channel_aftertouch_c, 8, 65
6, 130644, Channel_aftertouch_c, 8, 37
6, 130656, Channel_aftertouch_c, 8, 14
6, 130668, Channel_aftertouch_c, 8, 7
6, 130680, Channel_aftertouch_c, 8, 0
6, 130704, Note_on_c, 8, 64, 0
6, 130720, Note_on_c, 8, 76, 0
6, 130944, Note_on_c, 8, 76, 108
6, 130944, Note_on_c, 8, 64, 113
6, 130984, Channel_aftertouch_c, 8, 88
6, 130996, Channel_aftertouch_c, 8, 95
6, 131008, Channel_aftertouch_c, 8, 82
6, 131020, Channel_aftertouch_c, 8, 65
6, 131032, Channel_aftertouch_c, 8, 38
6, 131048, Channel_aftertouch_c, 8, 8
6, 131056, Channel_aftertouch_c, 8, 0
6, 131072, Note_on_c, 8, 64, 0
6, 131080, Note_on_c, 8, 76, 0
6, 131328, Note_on_c, 8, 76, 104
6, 131328, Note_on_c, 8, 64, 108
6, 131368, Channel_aftertouch_c, 8, 101
6, 131380, Channel_aftertouch_c, 8, 99
6, 131392, Channel_aftertouch_c, 8, 80
6, 131404, Channel_aftertouch_c, 8, 53
6, 131416, Channel_aftertouch_c, 8, 0
6, 131468, Note_on_c, 8, 64, 0
6, 131468, Note_on_c, 8, 76, 0
6, 131712, Note_on_c, 8, 64, 104
6, 131712, Note_on_c, 8, 76, 100
6, 131740, Channel_aftertouch_c, 8, 98
6, 131752, Channel_aftertouch_c, 8, 89
6, 131764, Channel_aftertouch_c, 8, 93
6, 131776, Channel_aftertouch_c, 8, 82
6, 131788, Channel_aftertouch_c, 8, 63
6, 131800, Channel_aftertouch_c, 8, 37
6, 131808, Channel_aftertouch_c, 8, 0
6, 131860, Note_on_c, 8, 64, 0
6, 131864, Note_on_c, 8, 76, 0
6, 132096, Note_on_c, 8, 76, 104
6, 132096, Note_on_c, 8, 64, 108
6, 132128, Channel_aftertouch_c, 8, 90
6, 132136, Channel_aftertouch_c, 8, 95
6, 132152, Channel_aftertouch_c, 8, 83
6, 132160, Channel_aftertouch_c, 8, 67
6, 132176, Channel_aftertouch_c, 8, 47
6, 132184, Channel_aftertouch_c, 8, 35
6, 132196, Channel_aftertouch_c, 8, 32
6, 132212, Channel_aftertouch_c, 8, 12
6, 132220, Channel_aftertouch_c, 8, 0
6, 132240, Note_on_c, 8, 64, 0
6, 132248, Note_on_c, 8, 76, 0
6, 132480, Note_on_c, 8, 76, 104
6, 132480, Note_on_c, 8, 64, 108
6, 132512, Channel_aftertouch_c, 8, 88
6, 132524, Channel_aftertouch_c, 8, 103
6, 132536, Channel_aftertouch_c, 8, 91
6, 132548, Channel_aftertouch_c, 8, 71
6, 132560, Channel_aftertouch_c, 8, 31
6, 132572, Channel_aftertouch_c, 8, 0
6, 132600, Note_on_c, 8, 64, 0
6, 132624, Note_on_c, 8, 76, 0
6, 132864, Note_on_c, 8, 76, 104
6, 132864, Note_on_c, 8, 64, 113
6, 132896, Channel_aftertouch_c, 8, 82
6, 132904, Channel_aftertouch_c, 8, 100
6, 132920, Channel_aftertouch_c, 8, 87
6, 132928, Channel_aftertouch_c, 8, 64
6, 132940, Channel_aftertouch_c, 8, 0
6, 132984, Note_on_c, 8, 64, 0
6, 132992, Note_on_c, 8, 76, 0
6, 133248, Note_on_c, 8, 76, 104
6, 133248, Note_on_c, 8, 64, 113
6, 133268, Channel_aftertouch_c, 8, 58
6, 133280, Channel_aftertouch_c, 8, 106
6, 133292, Channel_aftertouch_c, 8, 100
6, 133304, Channel_aftertouch_c, 8, 72
6, 133316, Channel_aftertouch_c, 8, 39
6, 133328, Channel_aftertouch_c, 8, 0
6, 133388, Note_on_c, 8, 64, 0
6, 133404, Note_on_c, 8, 76, 0
6, 133632, Note_on_c, 8, 76, 100
6, 133632, Note_on_c, 8, 64, 108
6, 133660, Channel_aftertouch_c, 8, 38
6, 133672, Channel_aftertouch_c, 8, 95
6, 133684, Channel_aftertouch_c, 8, 92
6, 133696, Channel_aftertouch_c, 8, 73
6, 133708, Channel_aftertouch_c, 8, 51
6, 133720, Channel_aftertouch_c, 8, 0
6, 133776, Note_on_c, 8, 64, 0
6, 133788, Note_on_c, 8, 76, 0
6, 134016, Note_on_c, 8, 64, 108
6, 134016, Note_on_c, 8, 76, 108
6, 134024, Channel_aftertouch_c, 8, 116
6, 134032, Channel_aftertouch_c, 8, 85
6, 134044, Channel_aftertouch_c, 8, 100
6, 134056, Channel_aftertouch_c, 8, 91
6, 134068, Channel_aftertouch_c, 8, 67
6, 134080, Channel_aftertouch_c, 8, 37
6, 134092, Channel_aftertouch_c, 8, 0
6, 134164, Note_on_c, 8, 76, 0
6, 134164, Note_on_c, 8, 64, 0
6, 134400, Note_on_c, 8, 76, 104
6, 134400, Note_on_c, 8, 64, 104
6, 134404, Channel_aftertouch_c, 8, 61
6, 134416, Channel_aftertouch_c, 8, 90
6, 134428, Channel_aftertouch_c, 8, 99
6, 134440, Channel_aftertouch_c, 8, 90
6, 134452, Channel_aftertouch_c, 8, 75
6, 134464, Channel_aftertouch_c, 8, 62
6, 134476, Channel_aftertouch_c, 8, 53
6, 134488, Channel_aftertouch_c, 8, 47
6, 134500, Channel_aftertouch_c, 8, 41
6, 134512, Channel_aftertouch_c, 8, 20
6, 134524, Channel_aftertouch_c, 8, 0
6, 134576, Note_on_c, 8, 64, 0
6, 134576, Note_on_c, 8, 76, 0
6, 134784, Note_on_c, 8, 64, 113
6, 134784, Note_on_c, 8, 76, 104
6, 134792, Channel_aftertouch_c, 8, 87
6, 134804, Channel_aftertouch_c, 8, 118
6, 134816, Channel_aftertouch_c, 8, 115
6, 134824, Channel_aftertouch_c, 8, 89
6, 134840, Channel_aftertouch_c, 8, 64
6, 134848, Channel_aftertouch_c, 8, 31
6, 134864, Channel_aftertouch_c, 8, 31
6, 134872, Channel_aftertouch_c, 8, 39
6, 134888, Channel_aftertouch_c, 8, 41
6, 134900, Channel_aftertouch_c, 8, 28
6, 134908, Channel_aftertouch_c, 8, 0
6, 134944, Note_on_c, 8, 76, 0
6, 134956, Note_on_c, 8, 64, 0
6, 134956, End_track
7, 0, Start_track
7, 0, MIDI_port, 0
7, 0, Title_t, "viola"
7, 0, Program_c, 6, 41
7, 0, Control_c, 6, 7, 91
7, 0, Control_c, 6, 91, 40
7, 0, Control_c, 6, 93, 0
7, 0, Control_c, 6, 7, 100
7, 1536, Control_c, 6, 91, 65
7, 3072, Note_on_c, 6, 67, 104
7, 3840, Note_on_c, 6, 69, 100
7, 3848, Note_on_c, 6, 67, 0
7, 4536, Note_on_c, 6, 69, 0
7, 4608, Note_on_c, 6, 71, 108
7, 5184, Note_on_c, 6, 72, 89
7, 5192, Note_on_c, 6, 71, 0
7, 5376, Note_on_c, 6, 71, 100
7, 5408, Note_on_c, 6, 72, 0
7, 5760, Note_on_c, 6, 69, 104
7, 5796, Note_on_c, 6, 71, 0
7, 5952, Note_on_c, 6, 71, 104
7, 6008, Note_on_c, 6, 69, 0
7, 6048, Note_on_c, 6, 69, 96
7, 6056, Note_on_c, 6, 71, 0
7, 6124, Note_on_c, 6, 69, 0
7, 6144, Note_on_c, 6, 67, 104
7, 6912, Note_on_c, 6, 69, 100
7, 6920, Note_on_c, 6, 67, 0
7, 7608, Note_on_c, 6, 69, 0
7, 7680, Note_on_c, 6, 71, 108
7, 8256, Note_on_c, 6, 72, 89
7, 8264, Note_on_c, 6, 71, 0
7, 8448, Note_on_c, 6, 71, 100
7, 8480, Note_on_c, 6, 72, 0
7, 8832, Note_on_c, 6, 69, 104
7, 8868, Note_on_c, 6, 71, 0
7, 9024, Note_on_c, 6, 71, 104
7, 9080, Note_on_c, 6, 69, 0
7, 9120, Note_on_c, 6, 69, 96
7, 9128, Note_on_c, 6, 71, 0
7, 9196, Note_on_c, 6, 69, 0
7, 9216, Note_on_c, 6, 67, 100
7, 9980, Note_on_c, 6, 67, 0
7, 9984, Note_on_c, 6, 69, 108
7, 10728, Note_on_c, 6, 69, 0
7, 10752, Note_on_c, 6, 71, 108
7, 11328, Note_on_c, 6, 72, 92
7, 11344, Note_on_c, 6, 71, 0
7, 11520, Note_on_c, 6, 71, 113
7, 11584, Note_on_c, 6, 72, 0
7, 11904, Note_on_c, 6, 69, 96
7, 11952, Note_on_c, 6, 71, 0
7, 12080, Note_on_c, 6, 69, 0
7, 12096, Note_on_c, 6, 67, 100
7, 12288, Note_on_c, 6, 69, 108
7, 12320, Note_on_c, 6, 67, 0
7, 12852, Note_on_c, 6, 69, 0
7, 12864, Note_on_c, 6, 71, 108
7, 12960, Note_on_c, 6, 69, 104
7, 12984, Note_on_c, 6, 71, 0
7, 13040, Note_on_c, 6, 69, 0
7, 13056, Note_on_c, 6, 67, 100
7, 13824, Note_on_c, 6, 69, 108
7, 13824, Channel_aftertouch_c, 6, 54
7, 13832, Channel_aftertouch_c, 6, 0
7, 13848, Note_on_c, 6, 67, 0
7, 14400, Note_on_c, 6, 71, 104
7, 14404, Note_on_c, 6, 69, 0
7, 14496, Note_on_c, 6, 69, 100
7, 14528, Note_on_c, 6, 71, 0
7, 14592, Note_on_c, 6, 67, 104
7, 14600, Note_on_c, 6, 69, 0
7, 16088, Note_on_c, 6, 67, 0
7, 98304, Note_on_c, 6, 67, 104
7, 99072, Note_on_c, 6, 69, 100
7, 99080, Note_on_c, 6, 67, 0
7, 99768, Note_on_c, 6, 69, 0
7, 99840, Note_on_c, 6, 71, 108
7, 100416, Note_on_c, 6, 72, 89
7, 100424, Note_on_c, 6, 71, 0
7, 100608, Note_on_c, 6, 71, 100
7, 100640, Note_on_c, 6, 72, 0
7, 100992, Note_on_c, 6, 69, 104
7, 101028, Note_on_c, 6, 71, 0
7, 101184, Note_on_c, 6, 71, 104
7, 101240, Note_on_c, 6, 69, 0
7, 101280, Note_on_c, 6, 69, 96
7, 101288, Note_on_c, 6, 71, 0
7, 101356, Note_on_c, 6, 69, 0
7, 101376, Note_on_c, 6, 67, 104
7, 102144, Note_on_c, 6, 69, 100
7, 102152, Note_on_c, 6, 67, 0
7, 102840, Note_on_c, 6, 69, 0
7, 102912, Note_on_c, 6, 71, 108
7, 103488, Note_on_c, 6, 72, 89
7, 103496, Note_on_c, 6, 71, 0
7, 103680, Note_on_c, 6, 71, 100
7, 103712, Note_on_c, 6, 72, 0
7, 104064, Note_on_c, 6, 69, 104
7, 104100, Note_on_c, 6, 71, 0
7, 104256, Note_on_c, 6, 71, 104
7, 104312, Note_on_c, 6, 69, 0
7, 104352, Note_on_c, 6, 69, 96
7, 104360, Note_on_c, 6, 71, 0
7, 104428, Note_on_c, 6, 69, 0
7, 104448, Note_on_c, 6, 67, 100
7, 105212, Note_on_c, 6, 67, 0
7, 105216, Note_on_c, 6, 69, 108
7, 105960, Note_on_c, 6, 69, 0
7, 105984, Note_on_c, 6, 71, 108
7, 106560, Note_on_c, 6, 72, 92
7, 106576, Note_on_c, 6, 71, 0
7, 106752, Note_on_c, 6, 71, 113
7, 106816, Note_on_c, 6, 72, 0
7, 107136, Note_on_c, 6, 69, 96
7, 107184, Note_on_c, 6, 71, 0
7, 107312, Note_on_c, 6, 69, 0
7, 107328, Note_on_c, 6, 67, 100
7, 107520, Note_on_c, 6, 69, 108
7, 107552, Note_on_c, 6, 67, 0
7, 108084, Note_on_c, 6, 69, 0
7, 108096, Note_on_c, 6, 71, 108
7, 108192, Note_on_c, 6, 69, 104
7, 108216, Note_on_c, 6, 71, 0
7, 108272, Note_on_c, 6, 69, 0
7, 108288, Note_on_c, 6, 67, 100
7, 109056, Note_on_c, 6, 69, 108
7, 109056, Channel_aftertouch_c, 6, 54
7, 109064, Channel_aftertouch_c, 6, 0
7, 109080, Note_on_c, 6, 67, 0
7, 109632, Note_on_c, 6, 71, 104
7, 109636, Note_on_c, 6, 69, 0
7, 109728, Note_on_c, 6, 69, 100
7, 109760, Note_on_c, 6, 71, 0
7, 109824, Note_on_c, 6, 67, 104
7, 109832, Note_on_c, 6, 69, 0
7, 110552, Note_on_c, 6, 67, 0
7, 158784, Control_c, 6, 7, 85
7, 159764, Note_on_c, 6, 69, 113
7, 159792, Channel_aftertouch_c, 6, 11
7, 159804, Channel_aftertouch_c, 6, 13
7, 159816, Channel_aftertouch_c, 6, 8
7, 159828, Channel_aftertouch_c, 6, 6
7, 159944, Channel_aftertouch_c, 6, 6
7, 159956, Channel_aftertouch_c, 6, 5
7, 159972, Channel_aftertouch_c, 6, 3
7, 159984, Channel_aftertouch_c, 6, 1
7, 159992, Channel_aftertouch_c, 6, 0
7, 160996, Note_on_c, 6, 69, 0
7, 161280, Note_on_c, 6, 73, 102
7, 161832, Note_on_c, 6, 73, 0
7, 161856, Note_on_c, 6, 74, 77
7, 162024, Note_on_c, 6, 74, 0
7, 162048, Note_on_c, 6, 73, 100
7, 162416, Note_on_c, 6, 71, 99
7, 162448, Note_on_c, 6, 73, 0
7, 162668, Note_on_c, 6, 71, 0
7, 162688, Note_on_c, 6, 73, 87
7, 162744, Note_on_c, 6, 71, 91
7, 162768, Note_on_c, 6, 73, 0
7, 162816, Note_on_c, 6, 71, 0
7, 162832, Note_on_c, 6, 69, 90
7, 164048, Note_on_c, 6, 69, 0
7, 164352, Note_on_c, 6, 73, 91
7, 164904, Note_on_c, 6, 73, 0
7, 164928, Note_on_c, 6, 74, 68
7, 165096, Note_on_c, 6, 74, 0
7, 165120, Note_on_c, 6, 73, 89
7, 165488, Note_on_c, 6, 71, 88
7, 165520, Note_on_c, 6, 73, 0
7, 165740, Note_on_c, 6, 71, 0
7, 165760, Note_on_c, 6, 73, 77
7, 165816, Note_on_c, 6, 71, 81
7, 165840, Note_on_c, 6, 73, 0
7, 165888, Note_on_c, 6, 71, 0
7, 165904, Note_on_c, 6, 69, 80
7, 167120, Note_on_c, 6, 69, 0
7, 167424, Note_on_c, 6, 73, 81
7, 167976, Note_on_c, 6, 73, 0
7, 168000, Note_on_c, 6, 74, 60
7, 168168, Note_on_c, 6, 74, 0
7, 168192, Note_on_c, 6, 73, 78
7, 168560, Note_on_c, 6, 71, 77
7, 168592, Note_on_c, 6, 73, 0
7, 168812, Note_on_c, 6, 71, 0
7, 168832, Note_on_c, 6, 73, 68
7, 168888, Note_on_c, 6, 71, 71
7, 168912, Note_on_c, 6, 73, 0
7, 168960, Note_on_c, 6, 71, 0
7, 168976, Note_on_c, 6, 69, 70
7, 170192, Note_on_c, 6, 69, 0
7, 170496, Note_on_c, 6, 73, 70
7, 171048, Note_on_c, 6, 73, 0
7, 171072, Note_on_c, 6, 74, 52
7, 171240, Note_on_c, 6, 74, 0
7, 171264, Note_on_c, 6, 73, 68
7, 171632, Note_on_c, 6, 71, 66
7, 171664, Note_on_c, 6, 73, 0
7, 171884, Note_on_c, 6, 71, 0
7, 171904, Note_on_c, 6, 73, 58
7, 171960, Note_on_c, 6, 71, 61
7, 171984, Note_on_c, 6, 73, 0
7, 172032, Note_on_c, 6, 71, 0
7, 172048, Note_on_c, 6, 69, 60
7, 173264, Note_on_c, 6, 69, 0
7, 173568, Note_on_c, 6, 73, 59
7, 174120, Note_on_c, 6, 73, 0
7, 174144, Note_on_c, 6, 74, 44
7, 174312, Note_on_c, 6, 74, 0
7, 174336, Note_on_c, 6, 73, 57
7, 174704, Note_on_c, 6, 71, 56
7, 174736, Note_on_c, 6, 73, 0
7, 174956, Note_on_c, 6, 71, 0
7, 174976, Note_on_c, 6, 73, 48
7, 175032, Note_on_c, 6, 71, 51
7, 175056, Note_on_c, 6, 73, 0
7, 175104, Note_on_c, 6, 71, 0
7, 175120, Note_on_c, 6, 69, 50
7, 176336, Note_on_c, 6, 69, 0
7, 176640, Note_on_c, 6, 73, 48
7, 177192, Note_on_c, 6, 73, 0
7, 177216, Note_on_c, 6, 74, 36
7, 177384, Note_on_c, 6, 74, 0
7, 177408, Note_on_c, 6, 73, 46
7, 177776, Note_on_c, 6, 71, 45
7, 177808, Note_on_c, 6, 73, 0
7, 178028, Note_on_c, 6, 71, 0
7, 178048, Note_on_c, 6, 73, 39
7, 178104, Note_on_c, 6, 71, 41
7, 178128, Note_on_c, 6, 73, 0
7, 178176, Note_on_c, 6, 71, 0
7, 178192, Note_on_c, 6, 69, 40
7, 179408, Note_on_c, 6, 69, 0
7, 179712, Note_on_c, 6, 73, 37
7, 180264, Note_on_c, 6, 73, 0
7, 180288, Note_on_c, 6, 74, 27
7, 180456, Note_on_c, 6, 74, 0
7, 180480, Note_on_c, 6, 73, 35
7, 180848, Note_on_c, 6, 71, 34
7, 180880, Note_on_c, 6, 73, 0
7, 181100, Note_on_c, 6, 71, 0
7, 181120, Note_on_c, 6, 73, 29
7, 181176, Note_on_c, 6, 71, 31
7, 181200, Note_on_c, 6, 73, 0
7, 181248, Note_on_c, 6, 71, 0
7, 181264, Note_on_c, 6, 69, 30
7, 182480, Note_on_c, 6, 69, 0
7, 182784, Note_on_c, 6, 73, 27
7, 183336, Note_on_c, 6, 73, 0
7, 183360, Note_on_c, 6, 74, 19
7, 183528, Note_on_c, 6, 74, 0
7, 183552, Note_on_c, 6, 73, 24
7, 183920, Note_on_c, 6, 71, 23
7, 183952, Note_on_c, 6, 73, 0
7, 184172, Note_on_c, 6, 71, 0
7, 184192, Note_on_c, 6, 73, 20
7, 184248, Note_on_c, 6, 71, 21
7, 184272, Note_on_c, 6, 73, 0
7, 184320, Note_on_c, 6, 71, 0
7, 184336, Note_on_c, 6, 69, 20
7, 185552, Note_on_c, 6, 69, 0
7, 185856, Note_on_c, 6, 73, 16
7, 186408, Note_on_c, 6, 73, 0
7, 186432, Note_on_c, 6, 74, 11
7, 186600, Note_on_c, 6, 74, 0
7, 186624, Note_on_c, 6, 73, 14
7, 186992, Note_on_c, 6, 71, 12
7, 187024, Note_on_c, 6, 73, 0
7, 187244, Note_on_c, 6, 71, 0
7, 187264, Note_on_c, 6, 73, 10
7, 187320, Note_on_c, 6, 71, 11
7, 187344, Note_on_c, 6, 73, 0
7, 187392, Note_on_c, 6, 71, 0
7, 187408, Note_on_c, 6, 69, 10
7, 188624, Note_on_c, 6, 69, 0
7, 188928, Note_on_c, 6, 73, 5
7, 189480, Note_on_c, 6, 73, 0
7, 189504, Note_on_c, 6, 74, 3
7, 189672, Note_on_c, 6, 74, 0
7, 189696, Note_on_c, 6, 73, 3
7, 190064, Note_on_c, 6, 71, 2
7, 190096, Note_on_c, 6, 73, 0
7, 190316, Note_on_c, 6, 71, 0
7, 190336, Note_on_c, 6, 73, 1
7, 190392, Note_on_c, 6, 71, 1
7, 190416, Note_on_c, 6, 73, 0
7, 190464, Note_on_c, 6, 71, 0
7, 190464, End_track
8, 0, Start_track
8, 0, MIDI_port, 0
8, 0, Title_t, "Electric Guitar"
8, 0, Program_c, 4, 26
8, 0, Control_c, 4, 7, 72
8, 0, Control_c, 4, 91, 40
8, 0, Control_c, 4, 93, 0
8, 0, Control_c, 4, 7, 100
8, 36864, Control_c, 4, 7, 50
8, 39936, Control_c, 4, 94, 25
8, 39936, Note_on_c, 4, 59, 45
8, 39936, Note_on_c, 4, 64, 76
8, 40000, Note_on_c, 4, 59, 0
8, 40112, Channel_aftertouch_c, 4, 35
8, 40128, Note_on_c, 4, 59, 70
8, 40128, Channel_aftertouch_c, 4, 0
8, 40172, Channel_aftertouch_c, 4, 2
8, 40184, Channel_aftertouch_c, 4, 3
8, 40196, Channel_aftertouch_c, 4, 1
8, 40216, Channel_aftertouch_c, 4, 4
8, 40240, Channel_aftertouch_c, 4, 0
8, 40320, Note_on_c, 4, 67, 100
8, 40320, Channel_aftertouch_c, 4, 4
8, 40332, Channel_aftertouch_c, 4, 56
8, 40344, Channel_aftertouch_c, 4, 91
8, 40356, Channel_aftertouch_c, 4, 92
8, 40368, Channel_aftertouch_c, 4, 88
8, 40380, Channel_aftertouch_c, 4, 79
8, 40392, Channel_aftertouch_c, 4, 59
8, 40404, Channel_aftertouch_c, 4, 59
8, 40432, Channel_aftertouch_c, 4, 58
8, 40440, Channel_aftertouch_c, 4, 55
8, 40448, Note_on_c, 4, 59, 0
8, 40452, Channel_aftertouch_c, 4, 53
8, 40464, Channel_aftertouch_c, 4, 50
8, 40480, Channel_aftertouch_c, 4, 47
8, 40492, Channel_aftertouch_c, 4, 41
8, 40504, Channel_aftertouch_c, 4, 52
8, 40512, Note_on_c, 4, 59, 41
8, 40516, Channel_aftertouch_c, 4, 62
8, 40540, Channel_aftertouch_c, 4, 55
8, 40552, Channel_aftertouch_c, 4, 38
8, 40564, Channel_aftertouch_c, 4, 0
8, 40576, Channel_aftertouch_c, 4, 0
8, 40704, Note_on_c, 4, 66, 117
8, 40708, Channel_aftertouch_c, 4, 63
8, 40720, Channel_aftertouch_c, 4, 80
8, 40728, Note_on_c, 4, 67, 0
8, 40732, Channel_aftertouch_c, 4, 69
8, 40744, Channel_aftertouch_c, 4, 58
8, 40756, Channel_aftertouch_c, 4, 45
8, 40768, Channel_aftertouch_c, 4, 44
8, 40780, Channel_aftertouch_c, 4, 27
8, 40792, Channel_aftertouch_c, 4, 0
8, 40820, Note_on_c, 4, 64, 0
8, 40992, Note_on_c, 4, 64, 22
8, 41032, Note_on_c, 4, 59, 0
8, 41088, Note_on_c, 4, 59, 85
8, 41128, Note_on_c, 4, 64, 0
8, 41152, Note_on_c, 4, 66, 0
8, 41280, Note_on_c, 4, 64, 92
8, 41292, Channel_aftertouch_c, 4, 50
8, 41304, Channel_aftertouch_c, 4, 60
8, 41316, Channel_aftertouch_c, 4, 64
8, 41328, Channel_aftertouch_c, 4, 66
8, 41364, Channel_aftertouch_c, 4, 63
8, 41376, Channel_aftertouch_c, 4, 59
8, 41408, Channel_aftertouch_c, 4, 64
8, 41420, Channel_aftertouch_c, 4, 67
8, 41432, Channel_aftertouch_c, 4, 68
8, 41456, Channel_aftertouch_c, 4, 65
8, 41468, Channel_aftertouch_c, 4, 61
8, 41480, Channel_aftertouch_c, 4, 56
8, 41492, Channel_aftertouch_c, 4, 51
8, 41504, Channel_aftertouch_c, 4, 44
8, 41516, Channel_aftertouch_c, 4, 29
8, 41528, Channel_aftertouch_c, 4, 8
8, 41540, Channel_aftertouch_c, 4, 7
8, 41552, Channel_aftertouch_c, 4, 6
8, 41564, Channel_aftertouch_c, 4, 6
8, 41576, Channel_aftertouch_c, 4, 5
8, 41588, Note_on_c, 4, 59, 0
8, 41588, Channel_aftertouch_c, 4, 3
8, 41608, Channel_aftertouch_c, 4, 0
8, 41620, Channel_aftertouch_c, 4, 0
8, 41664, Note_on_c, 4, 59, 96
8, 41832, Channel_aftertouch_c, 4, 3
8, 41844, Channel_aftertouch_c, 4, 33
8, 41856, Note_on_c, 4, 67, 108
8, 41856, Channel_aftertouch_c, 4, 28
8, 41872, Channel_aftertouch_c, 4, 65
8, 41884, Channel_aftertouch_c, 4, 82
8, 41896, Channel_aftertouch_c, 4, 74
8, 41904, Note_on_c, 4, 59, 0
8, 41908, Channel_aftertouch_c, 4, 72
8, 41916, Channel_aftertouch_c, 4, 71
8, 41928, Channel_aftertouch_c, 4, 69
8, 41940, Channel_aftertouch_c, 4, 68
8, 41976, Channel_aftertouch_c, 4, 67
8, 41988, Channel_aftertouch_c, 4, 66
8, 42000, Channel_aftertouch_c, 4, 65
8, 42008, Channel_aftertouch_c, 4, 63
8, 42024, Channel_aftertouch_c, 4, 60
8, 42032, Channel_aftertouch_c, 4, 56
8, 42048, Note_on_c, 4, 59, 89
8, 42048, Channel_aftertouch_c, 4, 54
8, 42056, Channel_aftertouch_c, 4, 52
8, 42072, Channel_aftertouch_c, 4, 87
8, 42084, Channel_aftertouch_c, 4, 77
8, 42096, Channel_aftertouch_c, 4, 67
8, 42108, Channel_aftertouch_c, 4, 53
8, 42120, Channel_aftertouch_c, 4, 42
8, 42132, Channel_aftertouch_c, 4, 17
8, 42144, Channel_aftertouch_c, 4, 0
8, 42232, Channel_aftertouch_c, 4, 30
8, 42240, Note_on_c, 4, 66, 117
8, 42244, Channel_aftertouch_c, 4, 54
8, 42256, Channel_aftertouch_c, 4, 45
8, 42268, Channel_aftertouch_c, 4, 10
8, 42276, Note_on_c, 4, 67, 0
8, 42280, Note_on_c, 4, 59, 0
8, 42280, Channel_aftertouch_c, 4, 39
8, 42288, Channel_aftertouch_c, 4, 26
8, 42300, Channel_aftertouch_c, 4, 0
8, 42360, Note_on_c, 4, 64, 0
8, 42432, Note_on_c, 4, 59, 21
8, 42552, Note_on_c, 4, 59, 0
8, 42624, Note_on_c, 4, 59, 76
8, 42760, Note_on_c, 4, 66, 0
8, 42816, Note_on_c, 4, 64, 92
8, 42828, Channel_aftertouch_c, 4, 8
8, 42840, Note_on_c, 4, 59, 0
8, 42840, Channel_aftertouch_c, 4, 0
8, 42852, Channel_aftertouch_c, 4, 5
8, 42864, Channel_aftertouch_c, 4, 8
8, 42872, Channel_aftertouch_c, 4, 11
8, 42888, Channel_aftertouch_c, 4, 13
8, 42896, Channel_aftertouch_c, 4, 14
8, 42912, Channel_aftertouch_c, 4, 16
8, 42920, Channel_aftertouch_c, 4, 17
8, 42944, Channel_aftertouch_c, 4, 15
8, 42956, Channel_aftertouch_c, 4, 14
8, 42980, Channel_aftertouch_c, 4, 14
8, 42992, Channel_aftertouch_c, 4, 13
8, 43008, Note_on_c, 4, 62, 67
8, 43016, Channel_aftertouch_c, 4, 13
8, 43032, Note_on_c, 4, 62, 0
8, 43040, Channel_aftertouch_c, 4, 17
8, 43076, Channel_aftertouch_c, 4, 17
8, 43100, Channel_aftertouch_c, 4, 15
8, 43124, Channel_aftertouch_c, 4, 18
8, 43132, Channel_aftertouch_c, 4, 19
8, 43156, Channel_aftertouch_c, 4, 17
8, 43168, Channel_aftertouch_c, 4, 13
8, 43180, Channel_aftertouch_c, 4, 8
8, 43192, Channel_aftertouch_c, 4, 0
8, 43200, Note_on_c, 4, 62, 92
8, 43216, Channel_aftertouch_c, 4, 45
8, 43228, Channel_aftertouch_c, 4, 56
8, 43240, Channel_aftertouch_c, 4, 59
8, 43252, Channel_aftertouch_c, 4, 52
8, 43264, Channel_aftertouch_c, 4, 43
8, 43276, Channel_aftertouch_c, 4, 41
8, 43288, Channel_aftertouch_c, 4, 44
8, 43300, Channel_aftertouch_c, 4, 42
8, 43312, Channel_aftertouch_c, 4, 15
8, 43324, Channel_aftertouch_c, 4, 0
8, 43352, Note_on_c, 4, 64, 0
8, 43392, Note_on_c, 4, 64, 92
8, 43416, Channel_aftertouch_c, 4, 54
8, 43432, Channel_aftertouch_c, 4, 21
8, 43440, Note_on_c, 4, 62, 0
8, 43440, Channel_aftertouch_c, 4, 27
8, 43456, Channel_aftertouch_c, 4, 20
8, 43468, Channel_aftertouch_c, 4, 20
8, 43480, Channel_aftertouch_c, 4, 22
8, 43492, Channel_aftertouch_c, 4, 22
8, 43524, Channel_aftertouch_c, 4, 20
8, 43536, Channel_aftertouch_c, 4, 17
8, 43548, Channel_aftertouch_c, 4, 15
8, 43560, Channel_aftertouch_c, 4, 9
8, 43576, Channel_aftertouch_c, 4, 0
8, 43584, Note_on_c, 4, 62, 85
8, 43612, Note_on_c, 4, 64, 0
8, 43776, Note_on_c, 4, 67, 96
8, 43800, Channel_aftertouch_c, 4, 32
8, 43816, Note_on_c, 4, 62, 0
8, 43816, Channel_aftertouch_c, 4, 81
8, 43824, Channel_aftertouch_c, 4, 73
8, 43840, Channel_aftertouch_c, 4, 72
8, 43872, Channel_aftertouch_c, 4, 72
8, 43908, Channel_aftertouch_c, 4, 67
8, 43920, Channel_aftertouch_c, 4, 61
8, 43964, Channel_aftertouch_c, 4, 63
8, 43976, Channel_aftertouch_c, 4, 63
8, 43988, Channel_aftertouch_c, 4, 65
8, 44000, Channel_aftertouch_c, 4, 65
8, 44068, Channel_aftertouch_c, 4, 62
8, 44080, Channel_aftertouch_c, 4, 58
8, 44092, Channel_aftertouch_c, 4, 51
8, 44104, Channel_aftertouch_c, 4, 42
8, 44116, Channel_aftertouch_c, 4, 28
8, 44128, Note_on_c, 4, 67, 0
8, 44128, Channel_aftertouch_c, 4, 0
8, 44160, Note_on_c, 4, 62, 92
8, 44164, Channel_aftertouch_c, 4, 44
8, 44176, Channel_aftertouch_c, 4, 18
8, 44188, Channel_aftertouch_c, 4, 0
8, 44304, Note_on_c, 4, 62, 0
8, 44352, Note_on_c, 4, 64, 85
8, 44352, Channel_aftertouch_c, 4, 10
8, 44364, Channel_aftertouch_c, 4, 24
8, 44376, Channel_aftertouch_c, 4, 28
8, 44388, Channel_aftertouch_c, 4, 28
8, 44400, Channel_aftertouch_c, 4, 31
8, 44412, Channel_aftertouch_c, 4, 34
8, 44424, Channel_aftertouch_c, 4, 37
8, 44436, Channel_aftertouch_c, 4, 39
8, 44448, Channel_aftertouch_c, 4, 40
8, 44460, Channel_aftertouch_c, 4, 41
8, 44472, Channel_aftertouch_c, 4, 42
8, 44484, Channel_aftertouch_c, 4, 43
8, 44540, Channel_aftertouch_c, 4, 43
8, 44576, Channel_aftertouch_c, 4, 40
8, 44584, Channel_aftertouch_c, 4, 38
8, 44632, Channel_aftertouch_c, 4, 37
8, 44640, Channel_aftertouch_c, 4, 34
8, 44656, Channel_aftertouch_c, 4, 29
8, 44668, Channel_aftertouch_c, 4, 25
8, 44680, Channel_aftertouch_c, 4, 21
8, 44692, Channel_aftertouch_c, 4, 18
8, 44704, Channel_aftertouch_c, 4, 17
8, 44716, Channel_aftertouch_c, 4, 15
8, 44728, Channel_aftertouch_c, 4, 14
8, 44736, Note_on_c, 4, 62, 89
8, 44740, Channel_aftertouch_c, 4, 10
8, 44752, Channel_aftertouch_c, 4, 3
8, 44764, Channel_aftertouch_c, 4, 50
8, 44776, Channel_aftertouch_c, 4, 57
8, 44788, Channel_aftertouch_c, 4, 62
8, 44812, Channel_aftertouch_c, 4, 59
8, 44824, Channel_aftertouch_c, 4, 54
8, 44848, Channel_aftertouch_c, 4, 57
8, 44856, Channel_aftertouch_c, 4, 58
8, 44868, Channel_aftertouch_c, 4, 53
8, 44880, Channel_aftertouch_c, 4, 36
8, 44896, Channel_aftertouch_c, 4, 0
8, 44916, Channel_aftertouch_c, 4, 5
8, 44928, Note_on_c, 4, 67, 108
8, 44928, Channel_aftertouch_c, 4, 25
8, 44940, Channel_aftertouch_c, 4, 8
8, 44952, Note_on_c, 4, 62, 0
8, 44952, Channel_aftertouch_c, 4, 16
8, 44968, Channel_aftertouch_c, 4, 58
8, 44976, Channel_aftertouch_c, 4, 65
8, 44988, Channel_aftertouch_c, 4, 55
8, 45000, Channel_aftertouch_c, 4, 50
8, 45024, Channel_aftertouch_c, 4, 55
8, 45036, Channel_aftertouch_c, 4, 57
8, 45068, Channel_aftertouch_c, 4, 55
8, 45080, Channel_aftertouch_c, 4, 49
8, 45096, Channel_aftertouch_c, 4, 40
8, 45104, Channel_aftertouch_c, 4, 27
8, 45116, Channel_aftertouch_c, 4, 18
8, 45120, Note_on_c, 4, 62, 92
8, 45132, Channel_aftertouch_c, 4, 29
8, 45140, Channel_aftertouch_c, 4, 30
8, 45156, Channel_aftertouch_c, 4, 7
8, 45168, Channel_aftertouch_c, 4, 0
8, 45288, Note_on_c, 4, 64, 0
8, 45312, Note_on_c, 4, 66, 117
8, 45340, Note_on_c, 4, 67, 0
8, 45348, Note_on_c, 4, 62, 0
8, 45696, Note_on_c, 4, 62, 92
8, 45744, Note_on_c, 4, 66, 0
8, 45888, Note_on_c, 4, 64, 96
8, 45900, Channel_aftertouch_c, 4, 39
8, 45912, Channel_aftertouch_c, 4, 40
8, 45924, Channel_aftertouch_c, 4, 38
8, 45936, Channel_aftertouch_c, 4, 20
8, 45948, Channel_aftertouch_c, 4, 9
8, 45960, Channel_aftertouch_c, 4, 18
8, 45972, Channel_aftertouch_c, 4, 26
8, 45996, Channel_aftertouch_c, 4, 14
8, 46008, Channel_aftertouch_c, 4, 5
8, 46032, Channel_aftertouch_c, 4, 5
8, 46040, Channel_aftertouch_c, 4, 4
8, 46052, Channel_aftertouch_c, 4, 2
8, 46064, Channel_aftertouch_c, 4, 0
8, 46188, Note_on_c, 4, 62, 0
8, 46272, Note_on_c, 4, 62, 76
8, 46320, Note_on_c, 4, 64, 0
8, 46464, Note_on_c, 4, 67, 104
8, 46484, Channel_aftertouch_c, 4, 39
8, 46496, Channel_aftertouch_c, 4, 34
8, 46508, Channel_aftertouch_c, 4, 28
8, 46520, Channel_aftertouch_c, 4, 11
8, 46532, Channel_aftertouch_c, 4, 0
8, 46544, Note_on_c, 4, 62, 0
8, 46656, Note_on_c, 4, 62, 76
8, 46756, Note_on_c, 4, 67, 0
8, 46848, Note_on_c, 4, 67, 64
8, 46848, Note_on_c, 4, 66, 117
8, 46864, Note_on_c, 4, 67, 0
8, 46884, Channel_aftertouch_c, 4, 13
8, 46896, Channel_aftertouch_c, 4, 0
8, 47136, Note_on_c, 4, 62, 0
8, 47208, Channel_aftertouch_c, 4, 15
8, 47216, Channel_aftertouch_c, 4, 0
8, 47232, Note_on_c, 4, 62, 82
8, 47256, Note_on_c, 4, 66, 0
8, 47424, Note_on_c, 4, 64, 89
8, 47428, Channel_aftertouch_c, 4, 7
8, 47452, Channel_aftertouch_c, 4, 16
8, 47464, Channel_aftertouch_c, 4, 19
8, 47476, Channel_aftertouch_c, 4, 19
8, 47488, Channel_aftertouch_c, 4, 21
8, 47496, Note_on_c, 4, 62, 0
8, 47504, Channel_aftertouch_c, 4, 19
8, 47512, Channel_aftertouch_c, 4, 23
8, 47520, Note_on_c, 4, 62, 9
8, 47536, Channel_aftertouch_c, 4, 20
8, 47584, Channel_aftertouch_c, 4, 16
8, 47596, Channel_aftertouch_c, 4, 12
8, 47608, Channel_aftertouch_c, 4, 10
8, 47620, Channel_aftertouch_c, 4, 13
8, 47632, Channel_aftertouch_c, 4, 15
8, 47644, Channel_aftertouch_c, 4, 17
8, 47656, Note_on_c, 4, 62, 0
8, 47656, Channel_aftertouch_c, 4, 18
8, 47664, Channel_aftertouch_c, 4, 18
8, 47680, Channel_aftertouch_c, 4, 20
8, 47696, Channel_aftertouch_c, 4, 22
8, 47704, Channel_aftertouch_c, 4, 23
8, 47716, Channel_aftertouch_c, 4, 24
8, 47740, Channel_aftertouch_c, 4, 21
8, 47752, Channel_aftertouch_c, 4, 19
8, 47764, Channel_aftertouch_c, 4, 15
8, 47788, Channel_aftertouch_c, 4, 10
8, 47800, Channel_aftertouch_c, 4, 0
8, 47808, Note_on_c, 4, 62, 96
8, 47860, Note_on_c, 4, 64, 0
8, 48000, Note_on_c, 4, 67, 104
8, 48048, Note_on_c, 4, 62, 0
8, 48192, Note_on_c, 4, 62, 79
8, 48340, Note_on_c, 4, 67, 0
8, 48384, Note_on_c, 4, 67, 30
8, 48384, Note_on_c, 4, 66, 117
8, 48400, Note_on_c, 4, 67, 0
8, 48476, Note_on_c, 4, 62, 0
8, 48768, Note_on_c, 4, 62, 96
8, 48804, Note_on_c, 4, 66, 0
8, 48960, Note_on_c, 4, 67, 108
8, 48976, Channel_aftertouch_c, 4, 31
8, 48992, Channel_aftertouch_c, 4, 37
8, 49000, Channel_aftertouch_c, 4, 28
8, 49016, Channel_aftertouch_c, 4, 27
8, 49024, Channel_aftertouch_c, 4, 30
8, 49048, Channel_aftertouch_c, 4, 25
8, 49060, Channel_aftertouch_c, 4, 24
8, 49072, Channel_aftertouch_c, 4, 22
8, 49084, Channel_aftertouch_c, 4, 25
8, 49096, Channel_aftertouch_c, 4, 30
8, 49108, Channel_aftertouch_c, 4, 32
8, 49120, Channel_aftertouch_c, 4, 33
8, 49144, Channel_aftertouch_c, 4, 29
8, 49156, Channel_aftertouch_c, 4, 25
8, 49168, Channel_aftertouch_c, 4, 20
8, 49176, Channel_aftertouch_c, 4, 10
8, 49192, Channel_aftertouch_c, 4, 0
8, 49224, Note_on_c, 4, 62, 0
8, 49344, Note_on_c, 4, 62, 89
8, 49384, Note_on_c, 4, 67, 0
8, 49536, Note_on_c, 4, 67, 108
8, 49564, Channel_aftertouch_c, 4, 39
8, 49588, Channel_aftertouch_c, 4, 0
8, 49608, Note_on_c, 4, 62, 0
8, 49728, Note_on_c, 4, 62, 62
8, 49732, Channel_aftertouch_c, 4, 10
8, 49744, Channel_aftertouch_c, 4, 0
8, 49920, Note_on_c, 4, 66, 122
8, 49948, Note_on_c, 4, 67, 0
8, 49980, Note_on_c, 4, 62, 0
8, 50016, Note_on_c, 4, 62, 25
8, 50132, Note_on_c, 4, 62, 0
8, 50304, Note_on_c, 4, 62, 89
8, 50376, Note_on_c, 4, 66, 0
8, 50496, Note_on_c, 4, 67, 104
8, 50512, Channel_aftertouch_c, 4, 29
8, 50524, Channel_aftertouch_c, 4, 25
8, 50536, Channel_aftertouch_c, 4, 41
8, 50548, Channel_aftertouch_c, 4, 29
8, 50560, Channel_aftertouch_c, 4, 0
8, 50624, Note_on_c, 4, 62, 0
8, 50876, Note_on_c, 4, 67, 0
8, 50880, Note_on_c, 4, 62, 89
8, 51072, Note_on_c, 4, 67, 104
8, 51112, Channel_aftertouch_c, 4, 30
8, 51124, Channel_aftertouch_c, 4, 0
8, 51164, Note_on_c, 4, 62, 0
8, 51264, Note_on_c, 4, 59, 85
8, 51272, Channel_aftertouch_c, 4, 5
8, 51284, Channel_aftertouch_c, 4, 0
8, 51296, Note_on_c, 4, 67, 0
8, 51456, Note_on_c, 4, 60, 96
8, 51500, Channel_aftertouch_c, 4, 25
8, 51512, Channel_aftertouch_c, 4, 26
8, 51524, Channel_aftertouch_c, 4, 24
8, 51536, Channel_aftertouch_c, 4, 30
8, 51548, Channel_aftertouch_c, 4, 39
8, 51560, Channel_aftertouch_c, 4, 41
8, 51572, Channel_aftertouch_c, 4, 33
8, 51584, Channel_aftertouch_c, 4, 22
8, 51592, Channel_aftertouch_c, 4, 19
8, 51608, Channel_aftertouch_c, 4, 26
8, 51620, Channel_aftertouch_c, 4, 28
8, 51632, Channel_aftertouch_c, 4, 23
8, 51644, Channel_aftertouch_c, 4, 16
8, 51648, Note_on_c, 4, 67, 100
8, 51656, Channel_aftertouch_c, 4, 11
8, 51668, Channel_aftertouch_c, 4, 26
8, 51680, Channel_aftertouch_c, 4, 13
8, 51692, Channel_aftertouch_c, 4, 11
8, 51700, Note_on_c, 4, 59, 0
8, 51704, Channel_aftertouch_c, 4, 0
8, 51728, Note_on_c, 4, 60, 0
8, 51840, Note_on_c, 4, 60, 73
8, 51896, Channel_aftertouch_c, 4, 7
8, 51908, Channel_aftertouch_c, 4, 10
8, 51920, Channel_aftertouch_c, 4, 12
8, 51932, Channel_aftertouch_c, 4, 13
8, 51944, Channel_aftertouch_c, 4, 16
8, 51956, Channel_aftertouch_c, 4, 18
8, 51968, Channel_aftertouch_c, 4, 16
8, 51980, Channel_aftertouch_c, 4, 10
8, 51992, Channel_aftertouch_c, 4, 7
8, 52004, Channel_aftertouch_c, 4, 6
8, 52028, Channel_aftertouch_c, 4, 5
8, 52032, Note_on_c, 4, 59, 79
8, 52052, Channel_aftertouch_c, 4, 3
8, 52064, Channel_aftertouch_c, 4, 60
8, 52076, Channel_aftertouch_c, 4, 53
8, 52088, Channel_aftertouch_c, 4, 0
8, 52096, Note_on_c, 4, 67, 0
8, 52120, Note_on_c, 4, 60, 0
8, 52132, Channel_aftertouch_c, 4, 2
8, 52144, Channel_aftertouch_c, 4, 6
8, 52156, Channel_aftertouch_c, 4, 10
8, 52168, Channel_aftertouch_c, 4, 16
8, 52180, Channel_aftertouch_c, 4, 25
8, 52192, Channel_aftertouch_c, 4, 30
8, 52204, Channel_aftertouch_c, 4, 26
8, 52216, Channel_aftertouch_c, 4, 23
8, 73728, Control_c, 4, 7, 65
8, 73728, Program_c, 4, 26
8, 76800, Control_c, 4, 94, 25
8, 76800, Note_on_c, 4, 59, 45
8, 76800, Note_on_c, 4, 64, 76
8, 76864, Note_on_c, 4, 59, 0
8, 76976, Channel_aftertouch_c, 4, 35
8, 76992, Note_on_c, 4, 59, 70
8, 76992, Channel_aftertouch_c, 4, 0
8, 77036, Channel_aftertouch_c, 4, 2
8, 77048, Channel_aftertouch_c, 4, 3
8, 77060, Channel_aftertouch_c, 4, 1
8, 77080, Channel_aftertouch_c, 4, 4
8, 77104, Channel_aftertouch_c, 4, 0
8, 77184, Note_on_c, 4, 67, 100
8, 77184, Channel_aftertouch_c, 4, 4
8, 77196, Channel_aftertouch_c, 4, 56
8, 77208, Channel_aftertouch_c, 4, 91
8, 77220, Channel_aftertouch_c, 4, 92
8, 77232, Channel_aftertouch_c, 4, 88
8, 77244, Channel_aftertouch_c, 4, 79
8, 77256, Channel_aftertouch_c, 4, 59
8, 77268, Channel_aftertouch_c, 4, 59
8, 77296, Channel_aftertouch_c, 4, 58
8, 77304, Channel_aftertouch_c, 4, 55
8, 77312, Note_on_c, 4, 59, 0
8, 77316, Channel_aftertouch_c, 4, 53
8, 77328, Channel_aftertouch_c, 4, 50
8, 77344, Channel_aftertouch_c, 4, 47
8, 77356, Channel_aftertouch_c, 4, 41
8, 77368, Channel_aftertouch_c, 4, 52
8, 77376, Note_on_c, 4, 59, 41
8, 77380, Channel_aftertouch_c, 4, 62
8, 77404, Channel_aftertouch_c, 4, 55
8, 77416, Channel_aftertouch_c, 4, 38
8, 77428, Channel_aftertouch_c, 4, 0
8, 77440, Channel_aftertouch_c, 4, 0
8, 77568, Note_on_c, 4, 66, 117
8, 77572, Channel_aftertouch_c, 4, 63
8, 77584, Channel_aftertouch_c, 4, 80
8, 77592, Note_on_c, 4, 67, 0
8, 77596, Channel_aftertouch_c, 4, 69
8, 77608, Channel_aftertouch_c, 4, 58
8, 77620, Channel_aftertouch_c, 4, 45
8, 77632, Channel_aftertouch_c, 4, 44
8, 77644, Channel_aftertouch_c, 4, 27
8, 77656, Channel_aftertouch_c, 4, 0
8, 77684, Note_on_c, 4, 64, 0
8, 77856, Note_on_c, 4, 64, 22
8, 77896, Note_on_c, 4, 59, 0
8, 77952, Note_on_c, 4, 59, 85
8, 77992, Note_on_c, 4, 64, 0
8, 78016, Note_on_c, 4, 66, 0
8, 78144, Note_on_c, 4, 64, 92
8, 78156, Channel_aftertouch_c, 4, 50
8, 78168, Channel_aftertouch_c, 4, 60
8, 78180, Channel_aftertouch_c, 4, 64
8, 78192, Channel_aftertouch_c, 4, 66
8, 78228, Channel_aftertouch_c, 4, 63
8, 78240, Channel_aftertouch_c, 4, 59
8, 78272, Channel_aftertouch_c, 4, 64
8, 78284, Channel_aftertouch_c, 4, 67
8, 78296, Channel_aftertouch_c, 4, 68
8, 78320, Channel_aftertouch_c, 4, 65
8, 78332, Channel_aftertouch_c, 4, 61
8, 78344, Channel_aftertouch_c, 4, 56
8, 78356, Channel_aftertouch_c, 4, 51
8, 78368, Channel_aftertouch_c, 4, 44
8, 78380, Channel_aftertouch_c, 4, 29
8, 78392, Channel_aftertouch_c, 4, 8
8, 78404, Channel_aftertouch_c, 4, 7
8, 78416, Channel_aftertouch_c, 4, 6
8, 78428, Channel_aftertouch_c, 4, 6
8, 78440, Channel_aftertouch_c, 4, 5
8, 78452, Note_on_c, 4, 59, 0
8, 78452, Channel_aftertouch_c, 4, 3
8, 78472, Channel_aftertouch_c, 4, 0
8, 78484, Channel_aftertouch_c, 4, 0
8, 78528, Note_on_c, 4, 59, 96
8, 78696, Channel_aftertouch_c, 4, 3
8, 78708, Channel_aftertouch_c, 4, 33
8, 78720, Note_on_c, 4, 67, 108
8, 78720, Channel_aftertouch_c, 4, 28
8, 78736, Channel_aftertouch_c, 4, 65
8, 78748, Channel_aftertouch_c, 4, 82
8, 78760, Channel_aftertouch_c, 4, 74
8, 78768, Note_on_c, 4, 59, 0
8, 78772, Channel_aftertouch_c, 4, 72
8, 78780, Channel_aftertouch_c, 4, 71
8, 78792, Channel_aftertouch_c, 4, 69
8, 78804, Channel_aftertouch_c, 4, 68
8, 78840, Channel_aftertouch_c, 4, 67
8, 78852, Channel_aftertouch_c, 4, 66
8, 78864, Channel_aftertouch_c, 4, 65
8, 78872, Channel_aftertouch_c, 4, 63
8, 78888, Channel_aftertouch_c, 4, 60
8, 78896, Channel_aftertouch_c, 4, 56
8, 78912, Note_on_c, 4, 59, 89
8, 78912, Channel_aftertouch_c, 4, 54
8, 78920, Channel_aftertouch_c, 4, 52
8, 78936, Channel_aftertouch_c, 4, 87
8, 78948, Channel_aftertouch_c, 4, 77
8, 78960, Channel_aftertouch_c, 4, 67
8, 78972, Channel_aftertouch_c, 4, 53
8, 78984, Channel_aftertouch_c, 4, 42
8, 78996, Channel_aftertouch_c, 4, 17
8, 79008, Channel_aftertouch_c, 4, 0
8, 79096, Channel_aftertouch_c, 4, 30
8, 79104, Note_on_c, 4, 66, 117
8, 79108, Channel_aftertouch_c, 4, 54
8, 79120, Channel_aftertouch_c, 4, 45
8, 79132, Channel_aftertouch_c, 4, 10
8, 79140, Note_on_c, 4, 67, 0
8, 79144, Note_on_c, 4, 59, 0
8, 79144, Channel_aftertouch_c, 4, 39
8, 79152, Channel_aftertouch_c, 4, 26
8, 79164, Channel_aftertouch_c, 4, 0
8, 79224, Note_on_c, 4, 64, 0
8, 79296, Note_on_c, 4, 59, 21
8, 79416, Note_on_c, 4, 59, 0
8, 79488, Note_on_c, 4, 59, 76
8, 79624, Note_on_c, 4, 66, 0
8, 79680, Note_on_c, 4, 64, 92
8, 79692, Channel_aftertouch_c, 4, 8
8, 79704, Note_on_c, 4, 59, 0
8, 79704, Channel_aftertouch_c, 4, 0
8, 79716, Channel_aftertouch_c, 4, 5
8, 79728, Channel_aftertouch_c, 4, 8
8, 79736, Channel_aftertouch_c, 4, 11
8, 79752, Channel_aftertouch_c, 4, 13
8, 79760, Channel_aftertouch_c, 4, 14
8, 79776, Channel_aftertouch_c, 4, 16
8, 79784, Channel_aftertouch_c, 4, 17
8, 79808, Channel_aftertouch_c, 4, 15
8, 79820, Channel_aftertouch_c, 4, 14
8, 79844, Channel_aftertouch_c, 4, 14
8, 79856, Channel_aftertouch_c, 4, 13
8, 79872, Note_on_c, 4, 62, 67
8, 79880, Channel_aftertouch_c, 4, 13
8, 79896, Note_on_c, 4, 62, 0
8, 79904, Channel_aftertouch_c, 4, 17
8, 79940, Channel_aftertouch_c, 4, 17
8, 79964, Channel_aftertouch_c, 4, 15
8, 79988, Channel_aftertouch_c, 4, 18
8, 79996, Channel_aftertouch_c, 4, 19
8, 80020, Channel_aftertouch_c, 4, 17
8, 80032, Channel_aftertouch_c, 4, 13
8, 80044, Channel_aftertouch_c, 4, 8
8, 80056, Channel_aftertouch_c, 4, 0
8, 80064, Note_on_c, 4, 62, 92
8, 80080, Channel_aftertouch_c, 4, 45
8, 80092, Channel_aftertouch_c, 4, 56
8, 80104, Channel_aftertouch_c, 4, 59
8, 80116, Channel_aftertouch_c, 4, 52
8, 80128, Channel_aftertouch_c, 4, 43
8, 80140, Channel_aftertouch_c, 4, 41
8, 80152, Channel_aftertouch_c, 4, 44
8, 80164, Channel_aftertouch_c, 4, 42
8, 80176, Channel_aftertouch_c, 4, 15
8, 80188, Channel_aftertouch_c, 4, 0
8, 80216, Note_on_c, 4, 64, 0
8, 80256, Note_on_c, 4, 64, 92
8, 80280, Channel_aftertouch_c, 4, 54
8, 80296, Channel_aftertouch_c, 4, 21
8, 80304, Note_on_c, 4, 62, 0
8, 80304, Channel_aftertouch_c, 4, 27
8, 80320, Channel_aftertouch_c, 4, 20
8, 80332, Channel_aftertouch_c, 4, 20
8, 80344, Channel_aftertouch_c, 4, 22
8, 80356, Channel_aftertouch_c, 4, 22
8, 80388, Channel_aftertouch_c, 4, 20
8, 80400, Channel_aftertouch_c, 4, 17
8, 80412, Channel_aftertouch_c, 4, 15
8, 80424, Channel_aftertouch_c, 4, 9
8, 80440, Channel_aftertouch_c, 4, 0
8, 80448, Note_on_c, 4, 62, 85
8, 80476, Note_on_c, 4, 64, 0
8, 80640, Note_on_c, 4, 67, 96
8, 80664, Channel_aftertouch_c, 4, 32
8, 80680, Note_on_c, 4, 62, 0
8, 80680, Channel_aftertouch_c, 4, 81
8, 80688, Channel_aftertouch_c, 4, 73
8, 80704, Channel_aftertouch_c, 4, 72
8, 80736, Channel_aftertouch_c, 4, 72
8, 80772, Channel_aftertouch_c, 4, 67
8, 80784, Channel_aftertouch_c, 4, 61
8, 80828, Channel_aftertouch_c, 4, 63
8, 80840, Channel_aftertouch_c, 4, 63
8, 80852, Channel_aftertouch_c, 4, 65
8, 80864, Channel_aftertouch_c, 4, 65
8, 80932, Channel_aftertouch_c, 4, 62
8, 80944, Channel_aftertouch_c, 4, 58
8, 80956, Channel_aftertouch_c, 4, 51
8, 80968, Channel_aftertouch_c, 4, 42
8, 80980, Channel_aftertouch_c, 4, 28
8, 80992, Note_on_c, 4, 67, 0
8, 80992, Channel_aftertouch_c, 4, 0
8, 81024, Note_on_c, 4, 62, 92
8, 81028, Channel_aftertouch_c, 4, 44
8, 81040, Channel_aftertouch_c, 4, 18
8, 81052, Channel_aftertouch_c, 4, 0
8, 81168, Note_on_c, 4, 62, 0
8, 81216, Note_on_c, 4, 64, 85
8, 81216, Channel_aftertouch_c, 4, 10
8, 81228, Channel_aftertouch_c, 4, 24
8, 81240, Channel_aftertouch_c, 4, 28
8, 81252, Channel_aftertouch_c, 4, 28
8, 81264, Channel_aftertouch_c, 4, 31
8, 81276, Channel_aftertouch_c, 4, 34
8, 81288, Channel_aftertouch_c, 4, 37
8, 81300, Channel_aftertouch_c, 4, 39
8, 81312, Channel_aftertouch_c, 4, 40
8, 81324, Channel_aftertouch_c, 4, 41
8, 81336, Channel_aftertouch_c, 4, 42
8, 81348, Channel_aftertouch_c, 4, 43
8, 81404, Channel_aftertouch_c, 4, 43
8, 81440, Channel_aftertouch_c, 4, 40
8, 81448, Channel_aftertouch_c, 4, 38
8, 81496, Channel_aftertouch_c, 4, 37
8, 81504, Channel_aftertouch_c, 4, 34
8, 81520, Channel_aftertouch_c, 4, 29
8, 81532, Channel_aftertouch_c, 4, 25
8, 81544, Channel_aftertouch_c, 4, 21
8, 81556, Channel_aftertouch_c, 4, 18
8, 81568, Channel_aftertouch_c, 4, 17
8, 81580, Channel_aftertouch_c, 4, 15
8, 81592, Channel_aftertouch_c, 4, 14
8, 81600, Note_on_c, 4, 62, 89
8, 81604, Channel_aftertouch_c, 4, 10
8, 81616, Channel_aftertouch_c, 4, 3
8, 81628, Channel_aftertouch_c, 4, 50
8, 81640, Channel_aftertouch_c, 4, 57
8, 81652, Channel_aftertouch_c, 4, 62
8, 81676, Channel_aftertouch_c, 4, 59
8, 81688, Channel_aftertouch_c, 4, 54
8, 81712, Channel_aftertouch_c, 4, 57
8, 81720, Channel_aftertouch_c, 4, 58
8, 81732, Channel_aftertouch_c, 4, 53
8, 81744, Channel_aftertouch_c, 4, 36
8, 81760, Channel_aftertouch_c, 4, 0
8, 81780, Channel_aftertouch_c, 4, 5
8, 81792, Note_on_c, 4, 67, 108
8, 81792, Channel_aftertouch_c, 4, 25
8, 81804, Channel_aftertouch_c, 4, 8
8, 81816, Note_on_c, 4, 62, 0
8, 81816, Channel_aftertouch_c, 4, 16
8, 81832, Channel_aftertouch_c, 4, 58
8, 81840, Channel_aftertouch_c, 4, 65
8, 81852, Channel_aftertouch_c, 4, 55
8, 81864, Channel_aftertouch_c, 4, 50
8, 81888, Channel_aftertouch_c, 4, 55
8, 81900, Channel_aftertouch_c, 4, 57
8, 81932, Channel_aftertouch_c, 4, 55
8, 81944, Channel_aftertouch_c, 4, 49
8, 81960, Channel_aftertouch_c, 4, 40
8, 81968, Channel_aftertouch_c, 4, 27
8, 81980, Channel_aftertouch_c, 4, 18
8, 81984, Note_on_c, 4, 62, 92
8, 81996, Channel_aftertouch_c, 4, 29
8, 82004, Channel_aftertouch_c, 4, 30
8, 82020, Channel_aftertouch_c, 4, 7
8, 82032, Channel_aftertouch_c, 4, 0
8, 82152, Note_on_c, 4, 64, 0
8, 82176, Note_on_c, 4, 66, 117
8, 82204, Note_on_c, 4, 67, 0
8, 82212, Note_on_c, 4, 62, 0
8, 82560, Note_on_c, 4, 62, 92
8, 82608, Note_on_c, 4, 66, 0
8, 82752, Note_on_c, 4, 64, 96
8, 82764, Channel_aftertouch_c, 4, 39
8, 82776, Channel_aftertouch_c, 4, 40
8, 82788, Channel_aftertouch_c, 4, 38
8, 82800, Channel_aftertouch_c, 4, 20
8, 82812, Channel_aftertouch_c, 4, 9
8, 82824, Channel_aftertouch_c, 4, 18
8, 82836, Channel_aftertouch_c, 4, 26
8, 82860, Channel_aftertouch_c, 4, 14
8, 82872, Channel_aftertouch_c, 4, 5
8, 82896, Channel_aftertouch_c, 4, 5
8, 82904, Channel_aftertouch_c, 4, 4
8, 82916, Channel_aftertouch_c, 4, 2
8, 82928, Channel_aftertouch_c, 4, 0
8, 83052, Note_on_c, 4, 62, 0
8, 83136, Note_on_c, 4, 62, 76
8, 83184, Note_on_c, 4, 64, 0
8, 83328, Note_on_c, 4, 67, 104
8, 83348, Channel_aftertouch_c, 4, 39
8, 83360, Channel_aftertouch_c, 4, 34
8, 83372, Channel_aftertouch_c, 4, 28
8, 83384, Channel_aftertouch_c, 4, 11
8, 83396, Channel_aftertouch_c, 4, 0
8, 83408, Note_on_c, 4, 62, 0
8, 83520, Note_on_c, 4, 62, 76
8, 83620, Note_on_c, 4, 67, 0
8, 83712, Note_on_c, 4, 66, 117
8, 83748, Channel_aftertouch_c, 4, 13
8, 83760, Channel_aftertouch_c, 4, 0
8, 84000, Note_on_c, 4, 62, 0
8, 84072, Channel_aftertouch_c, 4, 15
8, 84080, Channel_aftertouch_c, 4, 0
8, 84096, Note_on_c, 4, 62, 82
8, 84120, Note_on_c, 4, 66, 0
8, 84288, Note_on_c, 4, 64, 89
8, 84292, Channel_aftertouch_c, 4, 7
8, 84316, Channel_aftertouch_c, 4, 16
8, 84328, Channel_aftertouch_c, 4, 19
8, 84340, Channel_aftertouch_c, 4, 19
8, 84352, Channel_aftertouch_c, 4, 21
8, 84360, Note_on_c, 4, 62, 0
8, 84368, Channel_aftertouch_c, 4, 19
8, 84376, Channel_aftertouch_c, 4, 23
8, 84384, Note_on_c, 4, 62, 9
8, 84400, Channel_aftertouch_c, 4, 20
8, 84448, Channel_aftertouch_c, 4, 16
8, 84460, Channel_aftertouch_c, 4, 12
8, 84472, Channel_aftertouch_c, 4, 10
8, 84484, Channel_aftertouch_c, 4, 13
8, 84496, Channel_aftertouch_c, 4, 15
8, 84508, Channel_aftertouch_c, 4, 17
8, 84520, Note_on_c, 4, 62, 0
8, 84520, Channel_aftertouch_c, 4, 18
8, 84528, Channel_aftertouch_c, 4, 18
8, 84544, Channel_aftertouch_c, 4, 20
8, 84560, Channel_aftertouch_c, 4, 22
8, 84568, Channel_aftertouch_c, 4, 23
8, 84580, Channel_aftertouch_c, 4, 24
8, 84604, Channel_aftertouch_c, 4, 21
8, 84616, Channel_aftertouch_c, 4, 19
8, 84628, Channel_aftertouch_c, 4, 15
8, 84652, Channel_aftertouch_c, 4, 10
8, 84664, Channel_aftertouch_c, 4, 0
8, 84672, Note_on_c, 4, 62, 96
8, 84724, Note_on_c, 4, 64, 0
8, 84864, Note_on_c, 4, 67, 104
8, 84912, Note_on_c, 4, 62, 0
8, 85056, Note_on_c, 4, 62, 79
8, 85204, Note_on_c, 4, 67, 0
8, 85248, Note_on_c, 4, 67, 30
8, 85248, Note_on_c, 4, 66, 117
8, 85264, Note_on_c, 4, 67, 0
8, 85340, Note_on_c, 4, 62, 0
8, 85632, Note_on_c, 4, 62, 64
8, 85668, Note_on_c, 4, 66, 0
8, 85824, Note_on_c, 4, 67, 108
8, 85840, Channel_aftertouch_c, 4, 31
8, 85856, Channel_aftertouch_c, 4, 37
8, 85864, Channel_aftertouch_c, 4, 28
8, 85880, Channel_aftertouch_c, 4, 27
8, 85888, Channel_aftertouch_c, 4, 30
8, 85912, Channel_aftertouch_c, 4, 25
8, 85924, Channel_aftertouch_c, 4, 24
8, 85936, Channel_aftertouch_c, 4, 22
8, 85948, Channel_aftertouch_c, 4, 25
8, 85960, Channel_aftertouch_c, 4, 30
8, 85972, Channel_aftertouch_c, 4, 32
8, 85984, Channel_aftertouch_c, 4, 33
8, 86008, Channel_aftertouch_c, 4, 29
8, 86016, Note_on_c, 4, 67, 0
8, 86016, Note_on_c, 4, 67, 108
8, 86016, Note_on_c, 4, 62, 64
8, 86020, Channel_aftertouch_c, 4, 25
8, 86032, Channel_aftertouch_c, 4, 20
8, 86040, Channel_aftertouch_c, 4, 10
8, 86056, Channel_aftertouch_c, 4, 0
8, 86088, Note_on_c, 4, 62, 0
8, 86112, Note_on_c, 4, 62, 0
8, 86208, Note_on_c, 4, 62, 89
8, 86248, Note_on_c, 4, 67, 0
8, 86400, Note_on_c, 4, 67, 108
8, 86428, Channel_aftertouch_c, 4, 39
8, 86452, Channel_aftertouch_c, 4, 0
8, 86472, Note_on_c, 4, 62, 0
8, 86592, Note_on_c, 4, 62, 62
8, 86596, Channel_aftertouch_c, 4, 10
8, 86608, Channel_aftertouch_c, 4, 0
8, 86784, Note_on_c, 4, 66, 122
8, 86812, Note_on_c, 4, 67, 0
8, 86844, Note_on_c, 4, 62, 0
8, 86880, Note_on_c, 4, 62, 25
8, 86996, Note_on_c, 4, 62, 0
8, 87168, Note_on_c, 4, 62, 89
8, 87240, Note_on_c, 4, 66, 0
8, 87360, Note_on_c, 4, 67, 104
8, 87376, Channel_aftertouch_c, 4, 29
8, 87388, Channel_aftertouch_c, 4, 25
8, 87400, Channel_aftertouch_c, 4, 41
8, 87412, Channel_aftertouch_c, 4, 29
8, 87424, Channel_aftertouch_c, 4, 0
8, 87488, Note_on_c, 4, 62, 0
8, 87740, Note_on_c, 4, 67, 0
8, 87744, Note_on_c, 4, 62, 89
8, 87936, Note_on_c, 4, 67, 104
8, 87976, Channel_aftertouch_c, 4, 30
8, 87988, Channel_aftertouch_c, 4, 0
8, 88028, Note_on_c, 4, 62, 0
8, 88128, Note_on_c, 4, 59, 85
8, 88136, Channel_aftertouch_c, 4, 5
8, 88148, Channel_aftertouch_c, 4, 0
8, 88160, Note_on_c, 4, 67, 0
8, 88320, Note_on_c, 4, 60, 96
8, 88364, Channel_aftertouch_c, 4, 25
8, 88376, Channel_aftertouch_c, 4, 26
8, 88388, Channel_aftertouch_c, 4, 24
8, 88400, Channel_aftertouch_c, 4, 30
8, 88412, Channel_aftertouch_c, 4, 39
8, 88424, Channel_aftertouch_c, 4, 41
8, 88436, Channel_aftertouch_c, 4, 33
8, 88448, Channel_aftertouch_c, 4, 22
8, 88456, Channel_aftertouch_c, 4, 19
8, 88472, Channel_aftertouch_c, 4, 26
8, 88484, Channel_aftertouch_c, 4, 28
8, 88496, Channel_aftertouch_c, 4, 23
8, 88508, Channel_aftertouch_c, 4, 16
8, 88512, Note_on_c, 4, 67, 100
8, 88520, Channel_aftertouch_c, 4, 11
8, 88532, Channel_aftertouch_c, 4, 26
8, 88544, Channel_aftertouch_c, 4, 13
8, 88556, Channel_aftertouch_c, 4, 11
8, 88564, Note_on_c, 4, 59, 0
8, 88568, Channel_aftertouch_c, 4, 0
8, 88592, Note_on_c, 4, 60, 0
8, 88704, Note_on_c, 4, 60, 73
8, 88760, Channel_aftertouch_c, 4, 7
8, 88772, Channel_aftertouch_c, 4, 10
8, 88784, Channel_aftertouch_c, 4, 12
8, 88796, Channel_aftertouch_c, 4, 13
8, 88808, Channel_aftertouch_c, 4, 16
8, 88820, Channel_aftertouch_c, 4, 18
8, 88832, Channel_aftertouch_c, 4, 16
8, 88844, Channel_aftertouch_c, 4, 10
8, 88856, Channel_aftertouch_c, 4, 7
8, 88868, Channel_aftertouch_c, 4, 6
8, 88892, Channel_aftertouch_c, 4, 5
8, 88896, Note_on_c, 4, 59, 79
8, 88916, Channel_aftertouch_c, 4, 3
8, 88928, Channel_aftertouch_c, 4, 60
8, 88940, Channel_aftertouch_c, 4, 53
8, 88952, Channel_aftertouch_c, 4, 0
8, 88960, Note_on_c, 4, 67, 0
8, 88984, Note_on_c, 4, 60, 0
8, 88996, Channel_aftertouch_c, 4, 2
8, 89008, Channel_aftertouch_c, 4, 6
8, 89020, Channel_aftertouch_c, 4, 10
8, 89032, Channel_aftertouch_c, 4, 16
8, 89044, Channel_aftertouch_c, 4, 25
8, 89056, Channel_aftertouch_c, 4, 30
8, 89068, Channel_aftertouch_c, 4, 26
8, 89080, Channel_aftertouch_c, 4, 23
8, 89088, Note_on_c, 4, 59, 0
8, 89088, Control_c, 4, 94, 25
8, 89088, Note_on_c, 4, 59, 45
8, 89088, Note_on_c, 4, 64, 76
8, 89152, Note_on_c, 4, 59, 0
8, 89264, Channel_aftertouch_c, 4, 35
8, 89280, Note_on_c, 4, 59, 70
8, 89280, Channel_aftertouch_c, 4, 0
8, 89324, Channel_aftertouch_c, 4, 2
8, 89336, Channel_aftertouch_c, 4, 3
8, 89348, Channel_aftertouch_c, 4, 1
8, 89368, Channel_aftertouch_c, 4, 4
8, 89392, Channel_aftertouch_c, 4, 0
8, 89472, Note_on_c, 4, 67, 100
8, 89472, Channel_aftertouch_c, 4, 4
8, 89484, Channel_aftertouch_c, 4, 56
8, 89496, Channel_aftertouch_c, 4, 91
8, 89508, Channel_aftertouch_c, 4, 92
8, 89520, Channel_aftertouch_c, 4, 88
8, 89532, Channel_aftertouch_c, 4, 79
8, 89544, Channel_aftertouch_c, 4, 59
8, 89556, Channel_aftertouch_c, 4, 59
8, 89584, Channel_aftertouch_c, 4, 58
8, 89592, Channel_aftertouch_c, 4, 55
8, 89600, Note_on_c, 4, 59, 0
8, 89604, Channel_aftertouch_c, 4, 53
8, 89616, Channel_aftertouch_c, 4, 50
8, 89632, Channel_aftertouch_c, 4, 47
8, 89644, Channel_aftertouch_c, 4, 41
8, 89656, Channel_aftertouch_c, 4, 52
8, 89664, Note_on_c, 4, 59, 41
8, 89668, Channel_aftertouch_c, 4, 62
8, 89692, Channel_aftertouch_c, 4, 55
8, 89704, Channel_aftertouch_c, 4, 38
8, 89716, Channel_aftertouch_c, 4, 0
8, 89728, Channel_aftertouch_c, 4, 0
8, 89856, Note_on_c, 4, 66, 117
8, 89860, Channel_aftertouch_c, 4, 63
8, 89872, Channel_aftertouch_c, 4, 80
8, 89880, Note_on_c, 4, 67, 0
8, 89884, Channel_aftertouch_c, 4, 69
8, 89896, Channel_aftertouch_c, 4, 58
8, 89908, Channel_aftertouch_c, 4, 45
8, 89920, Channel_aftertouch_c, 4, 44
8, 89932, Channel_aftertouch_c, 4, 27
8, 89944, Channel_aftertouch_c, 4, 0
8, 89972, Note_on_c, 4, 64, 0
8, 90144, Note_on_c, 4, 64, 22
8, 90184, Note_on_c, 4, 59, 0
8, 90240, Note_on_c, 4, 59, 85
8, 90280, Note_on_c, 4, 64, 0
8, 90304, Note_on_c, 4, 66, 0
8, 90432, Note_on_c, 4, 64, 92
8, 90444, Channel_aftertouch_c, 4, 50
8, 90456, Channel_aftertouch_c, 4, 60
8, 90468, Channel_aftertouch_c, 4, 64
8, 90480, Channel_aftertouch_c, 4, 66
8, 90516, Channel_aftertouch_c, 4, 63
8, 90528, Channel_aftertouch_c, 4, 59
8, 90560, Channel_aftertouch_c, 4, 64
8, 90572, Channel_aftertouch_c, 4, 67
8, 90584, Channel_aftertouch_c, 4, 68
8, 90608, Channel_aftertouch_c, 4, 65
8, 90620, Channel_aftertouch_c, 4, 61
8, 90632, Channel_aftertouch_c, 4, 56
8, 90644, Channel_aftertouch_c, 4, 51
8, 90656, Channel_aftertouch_c, 4, 44
8, 90668, Channel_aftertouch_c, 4, 29
8, 90680, Channel_aftertouch_c, 4, 8
8, 90692, Channel_aftertouch_c, 4, 7
8, 90704, Channel_aftertouch_c, 4, 6
8, 90716, Channel_aftertouch_c, 4, 6
8, 90728, Channel_aftertouch_c, 4, 5
8, 90740, Note_on_c, 4, 59, 0
8, 90740, Channel_aftertouch_c, 4, 3
8, 90760, Channel_aftertouch_c, 4, 0
8, 90772, Channel_aftertouch_c, 4, 0
8, 90816, Note_on_c, 4, 59, 96
8, 90984, Channel_aftertouch_c, 4, 3
8, 90996, Channel_aftertouch_c, 4, 33
8, 91008, Note_on_c, 4, 67, 108
8, 91008, Channel_aftertouch_c, 4, 28
8, 91024, Channel_aftertouch_c, 4, 65
8, 91036, Channel_aftertouch_c, 4, 82
8, 91048, Channel_aftertouch_c, 4, 74
8, 91056, Note_on_c, 4, 59, 0
8, 91060, Channel_aftertouch_c, 4, 72
8, 91068, Channel_aftertouch_c, 4, 71
8, 91080, Channel_aftertouch_c, 4, 69
8, 91092, Channel_aftertouch_c, 4, 68
8, 91128, Channel_aftertouch_c, 4, 67
8, 91140, Channel_aftertouch_c, 4, 66
8, 91152, Channel_aftertouch_c, 4, 65
8, 91160, Channel_aftertouch_c, 4, 63
8, 91176, Channel_aftertouch_c, 4, 60
8, 91184, Channel_aftertouch_c, 4, 56
8, 91200, Note_on_c, 4, 59, 89
8, 91200, Channel_aftertouch_c, 4, 54
8, 91208, Channel_aftertouch_c, 4, 52
8, 91224, Channel_aftertouch_c, 4, 87
8, 91236, Channel_aftertouch_c, 4, 77
8, 91248, Channel_aftertouch_c, 4, 67
8, 91260, Channel_aftertouch_c, 4, 53
8, 91272, Channel_aftertouch_c, 4, 42
8, 91284, Channel_aftertouch_c, 4, 17
8, 91296, Channel_aftertouch_c, 4, 0
8, 91384, Channel_aftertouch_c, 4, 30
8, 91392, Note_on_c, 4, 66, 117
8, 91396, Channel_aftertouch_c, 4, 54
8, 91408, Channel_aftertouch_c, 4, 45
8, 91420, Channel_aftertouch_c, 4, 10
8, 91428, Note_on_c, 4, 67, 0
8, 91432, Note_on_c, 4, 59, 0
8, 91432, Channel_aftertouch_c, 4, 39
8, 91440, Channel_aftertouch_c, 4, 26
8, 91452, Channel_aftertouch_c, 4, 0
8, 91512, Note_on_c, 4, 64, 0
8, 91584, Note_on_c, 4, 59, 21
8, 91704, Note_on_c, 4, 59, 0
8, 91776, Note_on_c, 4, 59, 76
8, 91912, Note_on_c, 4, 66, 0
8, 91968, Note_on_c, 4, 64, 92
8, 91980, Channel_aftertouch_c, 4, 8
8, 91992, Note_on_c, 4, 59, 0
8, 91992, Channel_aftertouch_c, 4, 0
8, 92004, Channel_aftertouch_c, 4, 5
8, 92016, Channel_aftertouch_c, 4, 8
8, 92024, Channel_aftertouch_c, 4, 11
8, 92032, Note_on_c, 4, 59, 0
8, 92040, Channel_aftertouch_c, 4, 13
8, 92048, Channel_aftertouch_c, 4, 14
8, 92064, Channel_aftertouch_c, 4, 16
8, 92072, Channel_aftertouch_c, 4, 17
8, 92096, Channel_aftertouch_c, 4, 15
8, 92108, Channel_aftertouch_c, 4, 14
8, 92132, Channel_aftertouch_c, 4, 14
8, 92144, Channel_aftertouch_c, 4, 13
8, 92160, Note_on_c, 4, 62, 67
8, 92168, Channel_aftertouch_c, 4, 13
8, 92184, Note_on_c, 4, 62, 0
8, 92192, Channel_aftertouch_c, 4, 17
8, 92228, Channel_aftertouch_c, 4, 17
8, 92252, Channel_aftertouch_c, 4, 15
8, 92276, Channel_aftertouch_c, 4, 18
8, 92284, Channel_aftertouch_c, 4, 19
8, 92308, Channel_aftertouch_c, 4, 17
8, 92320, Channel_aftertouch_c, 4, 13
8, 92332, Channel_aftertouch_c, 4, 8
8, 92344, Channel_aftertouch_c, 4, 0
8, 92352, Note_on_c, 4, 62, 92
8, 92368, Channel_aftertouch_c, 4, 45
8, 92380, Channel_aftertouch_c, 4, 56
8, 92392, Channel_aftertouch_c, 4, 59
8, 92404, Channel_aftertouch_c, 4, 52
8, 92416, Channel_aftertouch_c, 4, 43
8, 92428, Channel_aftertouch_c, 4, 41
8, 92440, Channel_aftertouch_c, 4, 44
8, 92452, Channel_aftertouch_c, 4, 42
8, 92464, Channel_aftertouch_c, 4, 15
8, 92476, Channel_aftertouch_c, 4, 0
8, 92504, Note_on_c, 4, 64, 0
8, 92544, Note_on_c, 4, 64, 92
8, 92568, Channel_aftertouch_c, 4, 54
8, 92584, Channel_aftertouch_c, 4, 21
8, 92592, Note_on_c, 4, 62, 0
8, 92592, Channel_aftertouch_c, 4, 27
8, 92608, Channel_aftertouch_c, 4, 20
8, 92620, Channel_aftertouch_c, 4, 20
8, 92632, Channel_aftertouch_c, 4, 22
8, 92644, Channel_aftertouch_c, 4, 22
8, 92676, Channel_aftertouch_c, 4, 20
8, 92688, Channel_aftertouch_c, 4, 17
8, 92700, Channel_aftertouch_c, 4, 15
8, 92712, Channel_aftertouch_c, 4, 9
8, 92728, Channel_aftertouch_c, 4, 0
8, 92736, Note_on_c, 4, 62, 85
8, 92764, Note_on_c, 4, 64, 0
8, 92928, Note_on_c, 4, 67, 96
8, 92952, Channel_aftertouch_c, 4, 32
8, 92968, Note_on_c, 4, 62, 0
8, 92968, Channel_aftertouch_c, 4, 81
8, 92976, Channel_aftertouch_c, 4, 73
8, 92992, Channel_aftertouch_c, 4, 72
8, 93024, Channel_aftertouch_c, 4, 72
8, 93060, Channel_aftertouch_c, 4, 67
8, 93072, Channel_aftertouch_c, 4, 61
8, 93116, Channel_aftertouch_c, 4, 63
8, 93128, Channel_aftertouch_c, 4, 63
8, 93140, Channel_aftertouch_c, 4, 65
8, 93152, Channel_aftertouch_c, 4, 65
8, 93220, Channel_aftertouch_c, 4, 62
8, 93232, Channel_aftertouch_c, 4, 58
8, 93244, Channel_aftertouch_c, 4, 51
8, 93256, Channel_aftertouch_c, 4, 42
8, 93268, Channel_aftertouch_c, 4, 28
8, 93280, Note_on_c, 4, 67, 0
8, 93280, Channel_aftertouch_c, 4, 0
8, 93312, Note_on_c, 4, 62, 92
8, 93316, Channel_aftertouch_c, 4, 44
8, 93328, Channel_aftertouch_c, 4, 18
8, 93340, Channel_aftertouch_c, 4, 0
8, 93456, Note_on_c, 4, 62, 0
8, 93504, Note_on_c, 4, 64, 85
8, 93504, Channel_aftertouch_c, 4, 10
8, 93516, Channel_aftertouch_c, 4, 24
8, 93528, Channel_aftertouch_c, 4, 28
8, 93540, Channel_aftertouch_c, 4, 28
8, 93552, Channel_aftertouch_c, 4, 31
8, 93564, Channel_aftertouch_c, 4, 34
8, 93576, Channel_aftertouch_c, 4, 37
8, 93588, Channel_aftertouch_c, 4, 39
8, 93600, Channel_aftertouch_c, 4, 40
8, 93612, Channel_aftertouch_c, 4, 41
8, 93624, Channel_aftertouch_c, 4, 42
8, 93636, Channel_aftertouch_c, 4, 43
8, 93692, Channel_aftertouch_c, 4, 43
8, 93728, Channel_aftertouch_c, 4, 40
8, 93736, Channel_aftertouch_c, 4, 38
8, 93784, Channel_aftertouch_c, 4, 37
8, 93792, Channel_aftertouch_c, 4, 34
8, 93808, Channel_aftertouch_c, 4, 29
8, 93820, Channel_aftertouch_c, 4, 25
8, 93832, Channel_aftertouch_c, 4, 21
8, 93844, Channel_aftertouch_c, 4, 18
8, 93856, Channel_aftertouch_c, 4, 17
8, 93868, Channel_aftertouch_c, 4, 15
8, 93880, Channel_aftertouch_c, 4, 14
8, 93888, Note_on_c, 4, 62, 89
8, 93892, Channel_aftertouch_c, 4, 10
8, 93904, Channel_aftertouch_c, 4, 3
8, 93916, Channel_aftertouch_c, 4, 50
8, 93928, Channel_aftertouch_c, 4, 57
8, 93940, Channel_aftertouch_c, 4, 62
8, 93964, Channel_aftertouch_c, 4, 59
8, 93976, Channel_aftertouch_c, 4, 54
8, 94000, Channel_aftertouch_c, 4, 57
8, 94008, Channel_aftertouch_c, 4, 58
8, 94020, Channel_aftertouch_c, 4, 53
8, 94032, Channel_aftertouch_c, 4, 36
8, 94048, Channel_aftertouch_c, 4, 0
8, 94068, Channel_aftertouch_c, 4, 5
8, 94080, Note_on_c, 4, 67, 108
8, 94080, Channel_aftertouch_c, 4, 25
8, 94092, Channel_aftertouch_c, 4, 8
8, 94104, Note_on_c, 4, 62, 0
8, 94104, Channel_aftertouch_c, 4, 16
8, 94120, Channel_aftertouch_c, 4, 58
8, 94128, Channel_aftertouch_c, 4, 65
8, 94140, Channel_aftertouch_c, 4, 55
8, 94152, Channel_aftertouch_c, 4, 50
8, 94176, Channel_aftertouch_c, 4, 55
8, 94188, Channel_aftertouch_c, 4, 57
8, 94220, Channel_aftertouch_c, 4, 55
8, 94232, Channel_aftertouch_c, 4, 49
8, 94248, Channel_aftertouch_c, 4, 40
8, 94256, Channel_aftertouch_c, 4, 27
8, 94268, Channel_aftertouch_c, 4, 18
8, 94272, Note_on_c, 4, 62, 92
8, 94284, Channel_aftertouch_c, 4, 29
8, 94292, Channel_aftertouch_c, 4, 30
8, 94308, Channel_aftertouch_c, 4, 7
8, 94320, Channel_aftertouch_c, 4, 0
8, 94440, Note_on_c, 4, 64, 0
8, 94464, Note_on_c, 4, 66, 117
8, 94492, Note_on_c, 4, 67, 0
8, 94500, Note_on_c, 4, 62, 0
8, 94848, Note_on_c, 4, 62, 92
8, 94896, Note_on_c, 4, 66, 0
8, 95040, Note_on_c, 4, 64, 96
8, 95052, Channel_aftertouch_c, 4, 39
8, 95064, Channel_aftertouch_c, 4, 40
8, 95076, Channel_aftertouch_c, 4, 38
8, 95088, Channel_aftertouch_c, 4, 20
8, 95100, Channel_aftertouch_c, 4, 9
8, 95112, Channel_aftertouch_c, 4, 18
8, 95124, Channel_aftertouch_c, 4, 26
8, 95148, Channel_aftertouch_c, 4, 14
8, 95160, Channel_aftertouch_c, 4, 5
8, 95184, Channel_aftertouch_c, 4, 5
8, 95192, Channel_aftertouch_c, 4, 4
8, 95204, Channel_aftertouch_c, 4, 2
8, 95216, Channel_aftertouch_c, 4, 0
8, 95340, Note_on_c, 4, 62, 0
8, 95424, Note_on_c, 4, 62, 76
8, 95472, Note_on_c, 4, 64, 0
8, 95616, Note_on_c, 4, 67, 104
8, 95636, Channel_aftertouch_c, 4, 39
8, 95648, Channel_aftertouch_c, 4, 34
8, 95660, Channel_aftertouch_c, 4, 28
8, 95672, Channel_aftertouch_c, 4, 11
8, 95684, Channel_aftertouch_c, 4, 0
8, 95696, Note_on_c, 4, 62, 0
8, 95808, Note_on_c, 4, 62, 76
8, 95908, Note_on_c, 4, 67, 0
8, 96000, Note_on_c, 4, 67, 64
8, 96000, Note_on_c, 4, 66, 117
8, 96016, Note_on_c, 4, 67, 0
8, 96036, Channel_aftertouch_c, 4, 13
8, 96048, Channel_aftertouch_c, 4, 0
8, 96288, Note_on_c, 4, 62, 0
8, 96360, Channel_aftertouch_c, 4, 15
8, 96368, Channel_aftertouch_c, 4, 0
8, 96384, Note_on_c, 4, 62, 82
8, 96408, Note_on_c, 4, 66, 0
8, 96576, Note_on_c, 4, 64, 89
8, 96580, Channel_aftertouch_c, 4, 7
8, 96604, Channel_aftertouch_c, 4, 16
8, 96616, Channel_aftertouch_c, 4, 19
8, 96628, Channel_aftertouch_c, 4, 19
8, 96640, Channel_aftertouch_c, 4, 21
8, 96648, Note_on_c, 4, 62, 0
8, 96656, Channel_aftertouch_c, 4, 19
8, 96664, Channel_aftertouch_c, 4, 23
8, 96672, Note_on_c, 4, 62, 9
8, 96688, Channel_aftertouch_c, 4, 20
8, 96736, Channel_aftertouch_c, 4, 16
8, 96748, Channel_aftertouch_c, 4, 12
8, 96760, Channel_aftertouch_c, 4, 10
8, 96772, Channel_aftertouch_c, 4, 13
8, 96784, Channel_aftertouch_c, 4, 15
8, 96796, Channel_aftertouch_c, 4, 17
8, 96808, Note_on_c, 4, 62, 0
8, 96808, Channel_aftertouch_c, 4, 18
8, 96816, Channel_aftertouch_c, 4, 18
8, 96832, Channel_aftertouch_c, 4, 20
8, 96848, Channel_aftertouch_c, 4, 22
8, 96856, Channel_aftertouch_c, 4, 23
8, 96868, Channel_aftertouch_c, 4, 24
8, 96892, Channel_aftertouch_c, 4, 21
8, 96904, Channel_aftertouch_c, 4, 19
8, 96916, Channel_aftertouch_c, 4, 15
8, 96940, Channel_aftertouch_c, 4, 10
8, 96952, Channel_aftertouch_c, 4, 0
8, 96960, Note_on_c, 4, 62, 96
8, 97012, Note_on_c, 4, 64, 0
8, 97152, Note_on_c, 4, 67, 104
8, 97200, Note_on_c, 4, 62, 0
8, 97344, Note_on_c, 4, 62, 79
8, 97492, Note_on_c, 4, 67, 0
8, 97536, Note_on_c, 4, 67, 30
8, 97536, Note_on_c, 4, 66, 117
8, 97552, Note_on_c, 4, 67, 0
8, 97628, Note_on_c, 4, 62, 0
8, 97920, Note_on_c, 4, 62, 96
8, 97956, Note_on_c, 4, 66, 0
8, 98112, Control_c, 4, 7, 65
8, 98112, Note_on_c, 4, 67, 109
8, 98116, Control_c, 4, 7, 65
8, 98124, Control_c, 4, 7, 65
8, 98128, Control_c, 4, 7, 65
8, 98128, Channel_aftertouch_c, 4, 31
8, 98136, Control_c, 4, 7, 65
8, 98144, Control_c, 4, 7, 65
8, 98144, Channel_aftertouch_c, 4, 37
8, 98148, Control_c, 4, 7, 65
8, 98152, Channel_aftertouch_c, 4, 28
8, 98156, Control_c, 4, 7, 65
8, 98160, Control_c, 4, 7, 65
8, 98168, Channel_aftertouch_c, 4, 27
8, 98168, Control_c, 4, 7, 65
8, 98176, Control_c, 4, 7, 65
8, 98176, Channel_aftertouch_c, 4, 30
8, 98180, Control_c, 4, 7, 65
8, 98188, Control_c, 4, 7, 65
8, 98192, Control_c, 4, 7, 65
8, 98200, Control_c, 4, 7, 65
8, 98200, Channel_aftertouch_c, 4, 25
8, 98212, Control_c, 4, 7, 65
8, 98212, Channel_aftertouch_c, 4, 24
8, 98220, Control_c, 4, 7, 65
8, 98224, Control_c, 4, 7, 65
8, 98224, Channel_aftertouch_c, 4, 22
8, 98232, Control_c, 4, 7, 65
8, 98236, Channel_aftertouch_c, 4, 25
8, 98240, Control_c, 4, 7, 65
8, 98244, Control_c, 4, 7, 65
8, 98248, Channel_aftertouch_c, 4, 30
8, 98252, Control_c, 4, 7, 64
8, 98256, Control_c, 4, 7, 64
8, 98260, Channel_aftertouch_c, 4, 32
8, 98264, Control_c, 4, 7, 64
8, 98272, Control_c, 4, 7, 64
8, 98272, Channel_aftertouch_c, 4, 33
8, 98276, Control_c, 4, 7, 64
8, 98284, Control_c, 4, 7, 63
8, 98288, Control_c, 4, 7, 63
8, 98296, Control_c, 4, 7, 63
8, 98296, Channel_aftertouch_c, 4, 29
8, 98304, Note_on_c, 4, 62, 0
8, 98304, Control_c, 4, 7, 63
8, 98308, Control_c, 4, 7, 63
8, 98316, Control_c, 4, 7, 63
8, 98320, Control_c, 4, 7, 63
8, 98328, Control_c, 4, 7, 63
8, 98336, Control_c, 4, 7, 62
8, 98340, Control_c, 4, 7, 62
8, 98348, Control_c, 4, 7, 62
8, 98352, Control_c, 4, 7, 62
8, 98360, Control_c, 4, 7, 62
8, 98368, Control_c, 4, 7, 61
8, 98372, Control_c, 4, 7, 61
8, 98380, Control_c, 4, 7, 60
8, 98384, Control_c, 4, 7, 60
8, 98392, Control_c, 4, 7, 60
8, 98400, Control_c, 4, 7, 60
8, 98404, Control_c, 4, 7, 60
8, 98412, Control_c, 4, 7, 60
8, 98416, Control_c, 4, 7, 59
8, 98424, Control_c, 4, 7, 59
8, 98432, Control_c, 4, 7, 59
8, 98436, Control_c, 4, 7, 58
8, 98444, Control_c, 4, 7, 58
8, 98448, Control_c, 4, 7, 58
8, 98456, Control_c, 4, 7, 58
8, 98464, Control_c, 4, 7, 58
8, 98468, Control_c, 4, 7, 57
8, 98476, Control_c, 4, 7, 57
8, 98480, Control_c, 4, 7, 57
8, 98488, Control_c, 4, 7, 57
8, 98496, Control_c, 4, 7, 57
8, 98500, Control_c, 4, 7, 57
8, 98508, Control_c, 4, 7, 56
8, 98512, Control_c, 4, 7, 56
8, 98520, Control_c, 4, 7, 56
8, 98528, Control_c, 4, 7, 56
8, 98532, Control_c, 4, 7, 56
8, 98540, Control_c, 4, 7, 55
8, 98544, Control_c, 4, 7, 55
8, 98552, Control_c, 4, 7, 54
8, 98560, Control_c, 4, 7, 54
8, 98564, Control_c, 4, 7, 53
8, 98572, Control_c, 4, 7, 53
8, 98576, Control_c, 4, 7, 52
8, 98584, Control_c, 4, 7, 52
8, 98592, Control_c, 4, 7, 52
8, 98596, Control_c, 4, 7, 51
8, 98604, Control_c, 4, 7, 51
8, 98608, Control_c, 4, 7, 50
8, 98616, Control_c, 4, 7, 50
8, 98624, Control_c, 4, 7, 50
8, 98628, Control_c, 4, 7, 49
8, 98636, Control_c, 4, 7, 49
8, 98640, Control_c, 4, 7, 49
8, 98648, Control_c, 4, 7, 49
8, 98656, Control_c, 4, 7, 48
8, 98660, Control_c, 4, 7, 48
8, 98668, Control_c, 4, 7, 48
8, 98672, Control_c, 4, 7, 47
8, 98680, Control_c, 4, 7, 47
8, 98688, Control_c, 4, 7, 47
8, 98692, Control_c, 4, 7, 47
8, 98700, Control_c, 4, 7, 47
8, 98704, Control_c, 4, 7, 47
8, 98712, Control_c, 4, 7, 46
8, 98720, Control_c, 4, 7, 46
8, 98724, Control_c, 4, 7, 45
8, 98732, Control_c, 4, 7, 45
8, 98736, Control_c, 4, 7, 44
8, 98744, Control_c, 4, 7, 43
8, 98752, Control_c, 4, 7, 42
8, 98756, Control_c, 4, 7, 42
8, 98764, Control_c, 4, 7, 42
8, 98768, Control_c, 4, 7, 41
8, 98776, Control_c, 4, 7, 41
8, 98784, Control_c, 4, 7, 41
8, 98788, Control_c, 4, 7, 40
8, 98796, Control_c, 4, 7, 40
8, 98800, Control_c, 4, 7, 40
8, 98808, Control_c, 4, 7, 39
8, 98816, Control_c, 4, 7, 39
8, 98820, Control_c, 4, 7, 38
8, 98828, Control_c, 4, 7, 38
8, 98832, Control_c, 4, 7, 38
8, 98840, Control_c, 4, 7, 37
8, 98848, Control_c, 4, 7, 37
8, 98852, Control_c, 4, 7, 36
8, 98860, Control_c, 4, 7, 36
8, 98864, Control_c, 4, 7, 36
8, 98872, Control_c, 4, 7, 36
8, 98880, Control_c, 4, 7, 35
8, 98884, Control_c, 4, 7, 35
8, 98892, Control_c, 4, 7, 34
8, 98896, Control_c, 4, 7, 34
8, 98904, Control_c, 4, 7, 33
8, 98912, Control_c, 4, 7, 33
8, 98916, Control_c, 4, 7, 33
8, 98924, Control_c, 4, 7, 33
8, 98928, Control_c, 4, 7, 33
8, 98936, Control_c, 4, 7, 33
8, 98944, Control_c, 4, 7, 32
8, 98948, Control_c, 4, 7, 32
8, 98956, Control_c, 4, 7, 32
8, 98960, Control_c, 4, 7, 32
8, 98968, Control_c, 4, 7, 31
8, 98976, Control_c, 4, 7, 31
8, 98980, Control_c, 4, 7, 30
8, 98988, Control_c, 4, 7, 30
8, 98992, Control_c, 4, 7, 29
8, 99000, Control_c, 4, 7, 28
8, 99008, Control_c, 4, 7, 28
8, 99012, Control_c, 4, 7, 27
8, 99020, Control_c, 4, 7, 26
8, 99024, Control_c, 4, 7, 26
8, 99032, Control_c, 4, 7, 26
8, 99040, Control_c, 4, 7, 26
8, 99044, Control_c, 4, 7, 25
8, 99052, Control_c, 4, 7, 25
8, 99056, Control_c, 4, 7, 25
8, 99064, Control_c, 4, 7, 25
8, 99072, Note_on_c, 4, 67, 0
8, 99840, Control_c, 4, 7, 65
8, 132096, Control_c, 4, 7, 50
8, 132096, Program_c, 4, 26
8, 135168, Note_on_c, 4, 66, 76
8, 135168, Note_on_c, 4, 61, 45
8, 135168, Control_c, 4, 94, 25
8, 135232, Note_on_c, 4, 61, 0
8, 135344, Channel_aftertouch_c, 4, 35
8, 135360, Note_on_c, 4, 61, 70
8, 135360, Channel_aftertouch_c, 4, 0
8, 135404, Channel_aftertouch_c, 4, 2
8, 135416, Channel_aftertouch_c, 4, 3
8, 135428, Channel_aftertouch_c, 4, 1
8, 135448, Channel_aftertouch_c, 4, 4
8, 135472, Channel_aftertouch_c, 4, 0
8, 135552, Note_on_c, 4, 69, 100
8, 135552, Channel_aftertouch_c, 4, 4
8, 135564, Channel_aftertouch_c, 4, 56
8, 135576, Channel_aftertouch_c, 4, 91
8, 135588, Channel_aftertouch_c, 4, 92
8, 135600, Channel_aftertouch_c, 4, 88
8, 135612, Channel_aftertouch_c, 4, 79
8, 135624, Channel_aftertouch_c, 4, 59
8, 135636, Channel_aftertouch_c, 4, 59
8, 135664, Channel_aftertouch_c, 4, 58
8, 135672, Channel_aftertouch_c, 4, 55
8, 135680, Note_on_c, 4, 61, 0
8, 135684, Channel_aftertouch_c, 4, 53
8, 135696, Channel_aftertouch_c, 4, 50
8, 135712, Channel_aftertouch_c, 4, 47
8, 135724, Channel_aftertouch_c, 4, 41
8, 135736, Channel_aftertouch_c, 4, 52
8, 135744, Note_on_c, 4, 61, 41
8, 135748, Channel_aftertouch_c, 4, 62
8, 135772, Channel_aftertouch_c, 4, 55
8, 135784, Channel_aftertouch_c, 4, 38
8, 135796, Channel_aftertouch_c, 4, 0
8, 135808, Channel_aftertouch_c, 4, 0
8, 135936, Note_on_c, 4, 68, 117
8, 135940, Channel_aftertouch_c, 4, 63
8, 135952, Channel_aftertouch_c, 4, 80
8, 135960, Note_on_c, 4, 69, 0
8, 135964, Channel_aftertouch_c, 4, 69
8, 135976, Channel_aftertouch_c, 4, 58
8, 135988, Channel_aftertouch_c, 4, 45
8, 136000, Channel_aftertouch_c, 4, 44
8, 136012, Channel_aftertouch_c, 4, 27
8, 136024, Channel_aftertouch_c, 4, 0
8, 136052, Note_on_c, 4, 66, 0
8, 136224, Note_on_c, 4, 66, 22
8, 136264, Note_on_c, 4, 61, 0
8, 136320, Note_on_c, 4, 61, 85
8, 136360, Note_on_c, 4, 66, 0
8, 136384, Note_on_c, 4, 68, 0
8, 136512, Note_on_c, 4, 66, 92
8, 136524, Channel_aftertouch_c, 4, 50
8, 136536, Channel_aftertouch_c, 4, 60
8, 136548, Channel_aftertouch_c, 4, 64
8, 136560, Channel_aftertouch_c, 4, 66
8, 136596, Channel_aftertouch_c, 4, 63
8, 136608, Channel_aftertouch_c, 4, 59
8, 136640, Channel_aftertouch_c, 4, 64
8, 136652, Channel_aftertouch_c, 4, 67
8, 136664, Channel_aftertouch_c, 4, 68
8, 136688, Channel_aftertouch_c, 4, 65
8, 136700, Channel_aftertouch_c, 4, 61
8, 136712, Channel_aftertouch_c, 4, 56
8, 136724, Channel_aftertouch_c, 4, 51
8, 136736, Channel_aftertouch_c, 4, 44
8, 136748, Channel_aftertouch_c, 4, 29
8, 136760, Channel_aftertouch_c, 4, 8
8, 136772, Channel_aftertouch_c, 4, 7
8, 136784, Channel_aftertouch_c, 4, 6
8, 136796, Channel_aftertouch_c, 4, 6
8, 136808, Channel_aftertouch_c, 4, 5
8, 136820, Note_on_c, 4, 61, 0
8, 136820, Channel_aftertouch_c, 4, 3
8, 136840, Channel_aftertouch_c, 4, 0
8, 136852, Channel_aftertouch_c, 4, 0
8, 136896, Note_on_c, 4, 61, 96
8, 137064, Channel_aftertouch_c, 4, 3
8, 137076, Channel_aftertouch_c, 4, 33
8, 137088, Note_on_c, 4, 69, 108
8, 137088, Channel_aftertouch_c, 4, 28
8, 137104, Channel_aftertouch_c, 4, 65
8, 137116, Channel_aftertouch_c, 4, 82
8, 137128, Channel_aftertouch_c, 4, 74
8, 137136, Note_on_c, 4, 61, 0
8, 137140, Channel_aftertouch_c, 4, 72
8, 137148, Channel_aftertouch_c, 4, 71
8, 137160, Channel_aftertouch_c, 4, 69
8, 137172, Channel_aftertouch_c, 4, 68
8, 137208, Channel_aftertouch_c, 4, 67
8, 137220, Channel_aftertouch_c, 4, 66
8, 137232, Channel_aftertouch_c, 4, 65
8, 137240, Channel_aftertouch_c, 4, 63
8, 137256, Channel_aftertouch_c, 4, 60
8, 137264, Channel_aftertouch_c, 4, 56
8, 137280, Note_on_c, 4, 61, 89
8, 137280, Channel_aftertouch_c, 4, 54
8, 137288, Channel_aftertouch_c, 4, 52
8, 137304, Channel_aftertouch_c, 4, 87
8, 137316, Channel_aftertouch_c, 4, 77
8, 137328, Channel_aftertouch_c, 4, 67
8, 137340, Channel_aftertouch_c, 4, 53
8, 137352, Channel_aftertouch_c, 4, 42
8, 137364, Channel_aftertouch_c, 4, 17
8, 137376, Channel_aftertouch_c, 4, 0
8, 137464, Channel_aftertouch_c, 4, 30
8, 137472, Note_on_c, 4, 68, 117
8, 137476, Channel_aftertouch_c, 4, 54
8, 137488, Channel_aftertouch_c, 4, 45
8, 137500, Channel_aftertouch_c, 4, 10
8, 137508, Note_on_c, 4, 69, 0
8, 137512, Note_on_c, 4, 61, 0
8, 137512, Channel_aftertouch_c, 4, 39
8, 137520, Channel_aftertouch_c, 4, 26
8, 137532, Channel_aftertouch_c, 4, 0
8, 137592, Note_on_c, 4, 66, 0
8, 137664, Note_on_c, 4, 61, 21
8, 137784, Note_on_c, 4, 61, 0
8, 137856, Note_on_c, 4, 61, 76
8, 137992, Note_on_c, 4, 68, 0
8, 138048, Note_on_c, 4, 66, 92
8, 138060, Channel_aftertouch_c, 4, 8
8, 138072, Note_on_c, 4, 61, 0
8, 138072, Channel_aftertouch_c, 4, 0
8, 138084, Channel_aftertouch_c, 4, 5
8, 138096, Channel_aftertouch_c, 4, 8
8, 138104, Channel_aftertouch_c, 4, 11
8, 138120, Channel_aftertouch_c, 4, 13
8, 138128, Channel_aftertouch_c, 4, 14
8, 138144, Channel_aftertouch_c, 4, 16
8, 138152, Channel_aftertouch_c, 4, 17
8, 138176, Channel_aftertouch_c, 4, 15
8, 138188, Channel_aftertouch_c, 4, 14
8, 138212, Channel_aftertouch_c, 4, 14
8, 138224, Channel_aftertouch_c, 4, 13
8, 138240, Note_on_c, 4, 64, 67
8, 138248, Channel_aftertouch_c, 4, 13
8, 138264, Note_on_c, 4, 64, 0
8, 138272, Channel_aftertouch_c, 4, 17
8, 138308, Channel_aftertouch_c, 4, 17
8, 138332, Channel_aftertouch_c, 4, 15
8, 138356, Channel_aftertouch_c, 4, 18
8, 138364, Channel_aftertouch_c, 4, 19
8, 138388, Channel_aftertouch_c, 4, 17
8, 138400, Channel_aftertouch_c, 4, 13
8, 138412, Channel_aftertouch_c, 4, 8
8, 138424, Channel_aftertouch_c, 4, 0
8, 138432, Note_on_c, 4, 64, 92
8, 138448, Channel_aftertouch_c, 4, 45
8, 138460, Channel_aftertouch_c, 4, 56
8, 138472, Channel_aftertouch_c, 4, 59
8, 138484, Channel_aftertouch_c, 4, 52
8, 138496, Channel_aftertouch_c, 4, 43
8, 138508, Channel_aftertouch_c, 4, 41
8, 138520, Channel_aftertouch_c, 4, 44
8, 138532, Channel_aftertouch_c, 4, 42
8, 138544, Channel_aftertouch_c, 4, 15
8, 138556, Channel_aftertouch_c, 4, 0
8, 138584, Note_on_c, 4, 66, 0
8, 138624, Note_on_c, 4, 66, 92
8, 138648, Channel_aftertouch_c, 4, 54
8, 138664, Channel_aftertouch_c, 4, 21
8, 138672, Note_on_c, 4, 64, 0
8, 138672, Channel_aftertouch_c, 4, 27
8, 138688, Channel_aftertouch_c, 4, 20
8, 138700, Channel_aftertouch_c, 4, 20
8, 138712, Channel_aftertouch_c, 4, 22
8, 138724, Channel_aftertouch_c, 4, 22
8, 138756, Channel_aftertouch_c, 4, 20
8, 138768, Channel_aftertouch_c, 4, 17
8, 138780, Channel_aftertouch_c, 4, 15
8, 138792, Channel_aftertouch_c, 4, 9
8, 138808, Channel_aftertouch_c, 4, 0
8, 138816, Note_on_c, 4, 64, 85
8, 138844, Note_on_c, 4, 66, 0
8, 139008, Note_on_c, 4, 69, 96
8, 139032, Channel_aftertouch_c, 4, 32
8, 139048, Note_on_c, 4, 64, 0
8, 139048, Channel_aftertouch_c, 4, 81
8, 139056, Channel_aftertouch_c, 4, 73
8, 139072, Channel_aftertouch_c, 4, 72
8, 139104, Channel_aftertouch_c, 4, 72
8, 139140, Channel_aftertouch_c, 4, 67
8, 139152, Channel_aftertouch_c, 4, 61
8, 139196, Channel_aftertouch_c, 4, 63
8, 139208, Channel_aftertouch_c, 4, 63
8, 139220, Channel_aftertouch_c, 4, 65
8, 139232, Channel_aftertouch_c, 4, 65
8, 139300, Channel_aftertouch_c, 4, 62
8, 139312, Channel_aftertouch_c, 4, 58
8, 139324, Channel_aftertouch_c, 4, 51
8, 139336, Channel_aftertouch_c, 4, 42
8, 139348, Channel_aftertouch_c, 4, 28
8, 139360, Note_on_c, 4, 69, 0
8, 139360, Channel_aftertouch_c, 4, 0
8, 139392, Note_on_c, 4, 64, 92
8, 139396, Channel_aftertouch_c, 4, 44
8, 139408, Channel_aftertouch_c, 4, 18
8, 139420, Channel_aftertouch_c, 4, 0
8, 139536, Note_on_c, 4, 64, 0
8, 139584, Note_on_c, 4, 66, 85
8, 139584, Channel_aftertouch_c, 4, 10
8, 139596, Channel_aftertouch_c, 4, 24
8, 139608, Channel_aftertouch_c, 4, 28
8, 139620, Channel_aftertouch_c, 4, 28
8, 139632, Channel_aftertouch_c, 4, 31
8, 139644, Channel_aftertouch_c, 4, 34
8, 139656, Channel_aftertouch_c, 4, 37
8, 139668, Channel_aftertouch_c, 4, 39
8, 139680, Channel_aftertouch_c, 4, 40
8, 139692, Channel_aftertouch_c, 4, 41
8, 139704, Channel_aftertouch_c, 4, 42
8, 139716, Channel_aftertouch_c, 4, 43
8, 139772, Channel_aftertouch_c, 4, 43
8, 139808, Channel_aftertouch_c, 4, 40
8, 139816, Channel_aftertouch_c, 4, 38
8, 139864, Channel_aftertouch_c, 4, 37
8, 139872, Channel_aftertouch_c, 4, 34
8, 139888, Channel_aftertouch_c, 4, 29
8, 139900, Channel_aftertouch_c, 4, 25
8, 139912, Channel_aftertouch_c, 4, 21
8, 139924, Channel_aftertouch_c, 4, 18
8, 139936, Channel_aftertouch_c, 4, 17
8, 139948, Channel_aftertouch_c, 4, 15
8, 139960, Channel_aftertouch_c, 4, 14
8, 139968, Note_on_c, 4, 64, 89
8, 139972, Channel_aftertouch_c, 4, 10
8, 139984, Channel_aftertouch_c, 4, 3
8, 139996, Channel_aftertouch_c, 4, 50
8, 140008, Channel_aftertouch_c, 4, 57
8, 140020, Channel_aftertouch_c, 4, 62
8, 140044, Channel_aftertouch_c, 4, 59
8, 140056, Channel_aftertouch_c, 4, 54
8, 140080, Channel_aftertouch_c, 4, 57
8, 140088, Channel_aftertouch_c, 4, 58
8, 140100, Channel_aftertouch_c, 4, 53
8, 140112, Channel_aftertouch_c, 4, 36
8, 140128, Channel_aftertouch_c, 4, 0
8, 140148, Channel_aftertouch_c, 4, 5
8, 140160, Note_on_c, 4, 69, 108
8, 140160, Channel_aftertouch_c, 4, 25
8, 140172, Channel_aftertouch_c, 4, 8
8, 140184, Note_on_c, 4, 64, 0
8, 140184, Channel_aftertouch_c, 4, 16
8, 140200, Channel_aftertouch_c, 4, 58
8, 140208, Channel_aftertouch_c, 4, 65
8, 140220, Channel_aftertouch_c, 4, 55
8, 140232, Channel_aftertouch_c, 4, 50
8, 140256, Channel_aftertouch_c, 4, 55
8, 140268, Channel_aftertouch_c, 4, 57
8, 140300, Channel_aftertouch_c, 4, 55
8, 140312, Channel_aftertouch_c, 4, 49
8, 140328, Channel_aftertouch_c, 4, 40
8, 140336, Channel_aftertouch_c, 4, 27
8, 140348, Channel_aftertouch_c, 4, 18
8, 140352, Note_on_c, 4, 64, 92
8, 140364, Channel_aftertouch_c, 4, 29
8, 140372, Channel_aftertouch_c, 4, 30
8, 140388, Channel_aftertouch_c, 4, 7
8, 140400, Channel_aftertouch_c, 4, 0
8, 140520, Note_on_c, 4, 66, 0
8, 140544, Note_on_c, 4, 68, 117
8, 140572, Note_on_c, 4, 69, 0
8, 140580, Note_on_c, 4, 64, 0
8, 140928, Note_on_c, 4, 64, 92
8, 140976, Note_on_c, 4, 68, 0
8, 141120, Note_on_c, 4, 66, 96
8, 141132, Channel_aftertouch_c, 4, 39
8, 141144, Channel_aftertouch_c, 4, 40
8, 141156, Channel_aftertouch_c, 4, 38
8, 141168, Channel_aftertouch_c, 4, 20
8, 141180, Channel_aftertouch_c, 4, 9
8, 141192, Channel_aftertouch_c, 4, 18
8, 141204, Channel_aftertouch_c, 4, 26
8, 141228, Channel_aftertouch_c, 4, 14
8, 141240, Channel_aftertouch_c, 4, 5
8, 141264, Channel_aftertouch_c, 4, 5
8, 141272, Channel_aftertouch_c, 4, 4
8, 141284, Channel_aftertouch_c, 4, 2
8, 141296, Channel_aftertouch_c, 4, 0
8, 141420, Note_on_c, 4, 64, 0
8, 141504, Note_on_c, 4, 64, 76
8, 141552, Note_on_c, 4, 66, 0
8, 141696, Note_on_c, 4, 69, 104
8, 141716, Channel_aftertouch_c, 4, 39
8, 141728, Channel_aftertouch_c, 4, 34
8, 141740, Channel_aftertouch_c, 4, 28
8, 141752, Channel_aftertouch_c, 4, 11
8, 141764, Channel_aftertouch_c, 4, 0
8, 141776, Note_on_c, 4, 64, 0
8, 141888, Note_on_c, 4, 64, 76
8, 141988, Note_on_c, 4, 69, 0
8, 142080, Note_on_c, 4, 68, 117
8, 142080, Note_on_c, 4, 69, 64
8, 142096, Note_on_c, 4, 69, 0
8, 142116, Channel_aftertouch_c, 4, 13
8, 142128, Channel_aftertouch_c, 4, 0
8, 142368, Note_on_c, 4, 64, 0
8, 142440, Channel_aftertouch_c, 4, 15
8, 142448, Channel_aftertouch_c, 4, 0
8, 142464, Note_on_c, 4, 64, 82
8, 142488, Note_on_c, 4, 68, 0
8, 142656, Note_on_c, 4, 66, 89
8, 142660, Channel_aftertouch_c, 4, 7
8, 142684, Channel_aftertouch_c, 4, 16
8, 142696, Channel_aftertouch_c, 4, 19
8, 142708, Channel_aftertouch_c, 4, 19
8, 142720, Channel_aftertouch_c, 4, 21
8, 142728, Note_on_c, 4, 64, 0
8, 142736, Channel_aftertouch_c, 4, 19
8, 142744, Channel_aftertouch_c, 4, 23
8, 142752, Note_on_c, 4, 64, 9
8, 142768, Channel_aftertouch_c, 4, 20
8, 142816, Channel_aftertouch_c, 4, 16
8, 142828, Channel_aftertouch_c, 4, 12
8, 142840, Channel_aftertouch_c, 4, 10
8, 142852, Channel_aftertouch_c, 4, 13
8, 142864, Channel_aftertouch_c, 4, 15
8, 142876, Channel_aftertouch_c, 4, 17
8, 142888, Note_on_c, 4, 64, 0
8, 142888, Channel_aftertouch_c, 4, 18
8, 142896, Channel_aftertouch_c, 4, 18
8, 142912, Channel_aftertouch_c, 4, 20
8, 142928, Channel_aftertouch_c, 4, 22
8, 142936, Channel_aftertouch_c, 4, 23
8, 142948, Channel_aftertouch_c, 4, 24
8, 142972, Channel_aftertouch_c, 4, 21
8, 142984, Channel_aftertouch_c, 4, 19
8, 142996, Channel_aftertouch_c, 4, 15
8, 143020, Channel_aftertouch_c, 4, 10
8, 143032, Channel_aftertouch_c, 4, 0
8, 143040, Note_on_c, 4, 64, 96
8, 143092, Note_on_c, 4, 66, 0
8, 143232, Note_on_c, 4, 69, 104
8, 143280, Note_on_c, 4, 64, 0
8, 143424, Note_on_c, 4, 64, 79
8, 143572, Note_on_c, 4, 69, 0
8, 143616, Note_on_c, 4, 68, 117
8, 143616, Note_on_c, 4, 69, 30
8, 143632, Note_on_c, 4, 69, 0
8, 143708, Note_on_c, 4, 64, 0
8, 144000, Note_on_c, 4, 64, 96
8, 144036, Note_on_c, 4, 68, 0
8, 144192, Note_on_c, 4, 69, 108
8, 144208, Channel_aftertouch_c, 4, 31
8, 144224, Channel_aftertouch_c, 4, 37
8, 144232, Channel_aftertouch_c, 4, 28
8, 144248, Channel_aftertouch_c, 4, 27
8, 144256, Channel_aftertouch_c, 4, 30
8, 144280, Channel_aftertouch_c, 4, 25
8, 144292, Channel_aftertouch_c, 4, 24
8, 144304, Channel_aftertouch_c, 4, 22
8, 144316, Channel_aftertouch_c, 4, 25
8, 144328, Channel_aftertouch_c, 4, 30
8, 144340, Channel_aftertouch_c, 4, 32
8, 144352, Channel_aftertouch_c, 4, 33
8, 144376, Channel_aftertouch_c, 4, 29
8, 144384, Note_on_c, 4, 69, 0
8, 144384, Note_on_c, 4, 64, 0
8, 144384, Note_on_c, 4, 64, 64
8, 144384, Note_on_c, 4, 69, 108
8, 144384, Note_on_c, 4, 64, 64
8, 144388, Channel_aftertouch_c, 4, 25
8, 144400, Channel_aftertouch_c, 4, 20
8, 144408, Channel_aftertouch_c, 4, 10
8, 144424, Channel_aftertouch_c, 4, 0
8, 144456, Note_on_c, 4, 64, 0
8, 144480, Note_on_c, 4, 64, 0
8, 144576, Note_on_c, 4, 64, 89
8, 144616, Note_on_c, 4, 69, 0
8, 144768, Note_on_c, 4, 69, 108
8, 144796, Channel_aftertouch_c, 4, 39
8, 144820, Channel_aftertouch_c, 4, 0
8, 144840, Note_on_c, 4, 64, 0
8, 144960, Note_on_c, 4, 64, 62
8, 144964, Channel_aftertouch_c, 4, 10
8, 144976, Channel_aftertouch_c, 4, 0
8, 145152, Note_on_c, 4, 68, 122
8, 145180, Note_on_c, 4, 69, 0
8, 145212, Note_on_c, 4, 64, 0
8, 145248, Note_on_c, 4, 64, 25
8, 145364, Note_on_c, 4, 64, 0
8, 145536, Note_on_c, 4, 64, 89
8, 145608, Note_on_c, 4, 68, 0
8, 145728, Note_on_c, 4, 69, 104
8, 145744, Channel_aftertouch_c, 4, 29
8, 145756, Channel_aftertouch_c, 4, 25
8, 145768, Channel_aftertouch_c, 4, 41
8, 145780, Channel_aftertouch_c, 4, 29
8, 145792, Channel_aftertouch_c, 4, 0
8, 145856, Note_on_c, 4, 64, 0
8, 146108, Note_on_c, 4, 69, 0
8, 146112, Note_on_c, 4, 64, 89
8, 146304, Note_on_c, 4, 69, 104
8, 146344, Channel_aftertouch_c, 4, 30
8, 146356, Channel_aftertouch_c, 4, 0
8, 146396, Note_on_c, 4, 64, 0
8, 146496, Note_on_c, 4, 61, 85
8, 146504, Channel_aftertouch_c, 4, 5
8, 146516, Channel_aftertouch_c, 4, 0
8, 146528, Note_on_c, 4, 69, 0
8, 146688, Note_on_c, 4, 62, 96
8, 146732, Channel_aftertouch_c, 4, 25
8, 146744, Channel_aftertouch_c, 4, 26
8, 146756, Channel_aftertouch_c, 4, 24
8, 146768, Channel_aftertouch_c, 4, 30
8, 146780, Channel_aftertouch_c, 4, 39
8, 146792, Channel_aftertouch_c, 4, 41
8, 146804, Channel_aftertouch_c, 4, 33
8, 146816, Channel_aftertouch_c, 4, 22
8, 146824, Channel_aftertouch_c, 4, 19
8, 146840, Channel_aftertouch_c, 4, 26
8, 146852, Channel_aftertouch_c, 4, 28
8, 146864, Channel_aftertouch_c, 4, 23
8, 146876, Channel_aftertouch_c, 4, 16
8, 146880, Note_on_c, 4, 69, 100
8, 146888, Channel_aftertouch_c, 4, 11
8, 146900, Channel_aftertouch_c, 4, 26
8, 146912, Channel_aftertouch_c, 4, 13
8, 146924, Channel_aftertouch_c, 4, 11
8, 146932, Note_on_c, 4, 61, 0
8, 146936, Channel_aftertouch_c, 4, 0
8, 146960, Note_on_c, 4, 62, 0
8, 147072, Note_on_c, 4, 62, 73
8, 147128, Channel_aftertouch_c, 4, 7
8, 147140, Channel_aftertouch_c, 4, 10
8, 147152, Channel_aftertouch_c, 4, 12
8, 147164, Channel_aftertouch_c, 4, 13
8, 147176, Channel_aftertouch_c, 4, 16
8, 147188, Channel_aftertouch_c, 4, 18
8, 147200, Channel_aftertouch_c, 4, 16
8, 147212, Channel_aftertouch_c, 4, 10
8, 147224, Channel_aftertouch_c, 4, 7
8, 147236, Channel_aftertouch_c, 4, 6
8, 147260, Channel_aftertouch_c, 4, 5
8, 147264, Note_on_c, 4, 61, 79
8, 147284, Channel_aftertouch_c, 4, 3
8, 147296, Channel_aftertouch_c, 4, 60
8, 147308, Channel_aftertouch_c, 4, 53
8, 147320, Channel_aftertouch_c, 4, 0
8, 147328, Note_on_c, 4, 69, 0
8, 147352, Note_on_c, 4, 62, 0
8, 147364, Channel_aftertouch_c, 4, 2
8, 147376, Channel_aftertouch_c, 4, 6
8, 147388, Channel_aftertouch_c, 4, 10
8, 147400, Channel_aftertouch_c, 4, 16
8, 147412, Channel_aftertouch_c, 4, 25
8, 147424, Channel_aftertouch_c, 4, 30
8, 147436, Channel_aftertouch_c, 4, 26
8, 147448, Channel_aftertouch_c, 4, 23
8, 147456, Note_on_c, 4, 61, 0
8, 147456, Note_on_c, 4, 66, 76
8, 147456, Note_on_c, 4, 61, 45
8, 147456, Control_c, 4, 94, 25
8, 147520, Note_on_c, 4, 61, 0
8, 147632, Channel_aftertouch_c, 4, 35
8, 147648, Note_on_c, 4, 61, 70
8, 147648, Channel_aftertouch_c, 4, 0
8, 147692, Channel_aftertouch_c, 4, 2
8, 147704, Channel_aftertouch_c, 4, 3
8, 147716, Channel_aftertouch_c, 4, 1
8, 147736, Channel_aftertouch_c, 4, 4
8, 147760, Channel_aftertouch_c, 4, 0
8, 147840, Note_on_c, 4, 69, 100
8, 147840, Channel_aftertouch_c, 4, 4
8, 147852, Channel_aftertouch_c, 4, 56
8, 147864, Channel_aftertouch_c, 4, 91
8, 147876, Channel_aftertouch_c, 4, 92
8, 147888, Channel_aftertouch_c, 4, 88
8, 147900, Channel_aftertouch_c, 4, 79
8, 147912, Channel_aftertouch_c, 4, 59
8, 147924, Channel_aftertouch_c, 4, 59
8, 147952, Channel_aftertouch_c, 4, 58
8, 147960, Channel_aftertouch_c, 4, 55
8, 147968, Note_on_c, 4, 61, 0
8, 147972, Channel_aftertouch_c, 4, 53
8, 147984, Channel_aftertouch_c, 4, 50
8, 148000, Channel_aftertouch_c, 4, 47
8, 148012, Channel_aftertouch_c, 4, 41
8, 148024, Channel_aftertouch_c, 4, 52
8, 148032, Note_on_c, 4, 61, 41
8, 148036, Channel_aftertouch_c, 4, 62
8, 148060, Channel_aftertouch_c, 4, 55
8, 148072, Channel_aftertouch_c, 4, 38
8, 148084, Channel_aftertouch_c, 4, 0
8, 148096, Channel_aftertouch_c, 4, 0
8, 148224, Note_on_c, 4, 68, 117
8, 148228, Channel_aftertouch_c, 4, 63
8, 148240, Channel_aftertouch_c, 4, 80
8, 148248, Note_on_c, 4, 69, 0
8, 148252, Channel_aftertouch_c, 4, 69
8, 148264, Channel_aftertouch_c, 4, 58
8, 148276, Channel_aftertouch_c, 4, 45
8, 148288, Channel_aftertouch_c, 4, 44
8, 148300, Channel_aftertouch_c, 4, 27
8, 148312, Channel_aftertouch_c, 4, 0
8, 148340, Note_on_c, 4, 66, 0
8, 148512, Note_on_c, 4, 66, 22
8, 148552, Note_on_c, 4, 61, 0
8, 148608, Note_on_c, 4, 61, 85
8, 148648, Note_on_c, 4, 66, 0
8, 148672, Note_on_c, 4, 68, 0
8, 148800, Note_on_c, 4, 66, 92
8, 148812, Channel_aftertouch_c, 4, 50
8, 148824, Channel_aftertouch_c, 4, 60
8, 148836, Channel_aftertouch_c, 4, 64
8, 148848, Channel_aftertouch_c, 4, 66
8, 148884, Channel_aftertouch_c, 4, 63
8, 148896, Channel_aftertouch_c, 4, 59
8, 148928, Channel_aftertouch_c, 4, 64
8, 148940, Channel_aftertouch_c, 4, 67
8, 148952, Channel_aftertouch_c, 4, 68
8, 148976, Channel_aftertouch_c, 4, 65
8, 148988, Channel_aftertouch_c, 4, 61
8, 149000, Channel_aftertouch_c, 4, 56
8, 149012, Channel_aftertouch_c, 4, 51
8, 149024, Channel_aftertouch_c, 4, 44
8, 149036, Channel_aftertouch_c, 4, 29
8, 149048, Channel_aftertouch_c, 4, 8
8, 149060, Channel_aftertouch_c, 4, 7
8, 149072, Channel_aftertouch_c, 4, 6
8, 149084, Channel_aftertouch_c, 4, 6
8, 149096, Channel_aftertouch_c, 4, 5
8, 149108, Note_on_c, 4, 61, 0
8, 149108, Channel_aftertouch_c, 4, 3
8, 149128, Channel_aftertouch_c, 4, 0
8, 149140, Channel_aftertouch_c, 4, 0
8, 149184, Note_on_c, 4, 61, 96
8, 149352, Channel_aftertouch_c, 4, 3
8, 149364, Channel_aftertouch_c, 4, 33
8, 149376, Note_on_c, 4, 69, 108
8, 149376, Channel_aftertouch_c, 4, 28
8, 149392, Channel_aftertouch_c, 4, 65
8, 149404, Channel_aftertouch_c, 4, 82
8, 149416, Channel_aftertouch_c, 4, 74
8, 149424, Note_on_c, 4, 61, 0
8, 149428, Channel_aftertouch_c, 4, 72
8, 149436, Channel_aftertouch_c, 4, 71
8, 149448, Channel_aftertouch_c, 4, 69
8, 149460, Channel_aftertouch_c, 4, 68
8, 149496, Channel_aftertouch_c, 4, 67
8, 149508, Channel_aftertouch_c, 4, 66
8, 149520, Channel_aftertouch_c, 4, 65
8, 149528, Channel_aftertouch_c, 4, 63
8, 149544, Channel_aftertouch_c, 4, 60
8, 149552, Channel_aftertouch_c, 4, 56
8, 149568, Note_on_c, 4, 61, 89
8, 149568, Channel_aftertouch_c, 4, 54
8, 149576, Channel_aftertouch_c, 4, 52
8, 149592, Channel_aftertouch_c, 4, 87
8, 149604, Channel_aftertouch_c, 4, 77
8, 149616, Channel_aftertouch_c, 4, 67
8, 149628, Channel_aftertouch_c, 4, 53
8, 149640, Channel_aftertouch_c, 4, 42
8, 149652, Channel_aftertouch_c, 4, 17
8, 149664, Channel_aftertouch_c, 4, 0
8, 149752, Channel_aftertouch_c, 4, 30
8, 149760, Note_on_c, 4, 68, 117
8, 149764, Channel_aftertouch_c, 4, 54
8, 149776, Channel_aftertouch_c, 4, 45
8, 149788, Channel_aftertouch_c, 4, 10
8, 149796, Note_on_c, 4, 69, 0
8, 149800, Note_on_c, 4, 61, 0
8, 149800, Channel_aftertouch_c, 4, 39
8, 149808, Channel_aftertouch_c, 4, 26
8, 149820, Channel_aftertouch_c, 4, 0
8, 149880, Note_on_c, 4, 66, 0
8, 149952, Note_on_c, 4, 61, 21
8, 150072, Note_on_c, 4, 61, 0
8, 150144, Note_on_c, 4, 61, 76
8, 150280, Note_on_c, 4, 68, 0
8, 150336, Note_on_c, 4, 66, 92
8, 150348, Channel_aftertouch_c, 4, 8
8, 150360, Note_on_c, 4, 61, 0
8, 150360, Channel_aftertouch_c, 4, 0
8, 150372, Channel_aftertouch_c, 4, 5
8, 150384, Channel_aftertouch_c, 4, 8
8, 150392, Channel_aftertouch_c, 4, 11
8, 150408, Channel_aftertouch_c, 4, 13
8, 150416, Channel_aftertouch_c, 4, 14
8, 150432, Channel_aftertouch_c, 4, 16
8, 150440, Channel_aftertouch_c, 4, 17
8, 150464, Channel_aftertouch_c, 4, 15
8, 150476, Channel_aftertouch_c, 4, 14
8, 150500, Channel_aftertouch_c, 4, 14
8, 150512, Channel_aftertouch_c, 4, 13
8, 150528, Note_on_c, 4, 64, 67
8, 150536, Channel_aftertouch_c, 4, 13
8, 150552, Note_on_c, 4, 64, 0
8, 150560, Channel_aftertouch_c, 4, 17
8, 150596, Channel_aftertouch_c, 4, 17
8, 150620, Channel_aftertouch_c, 4, 15
8, 150644, Channel_aftertouch_c, 4, 18
8, 150652, Channel_aftertouch_c, 4, 19
8, 150676, Channel_aftertouch_c, 4, 17
8, 150688, Channel_aftertouch_c, 4, 13
8, 150700, Channel_aftertouch_c, 4, 8
8, 150712, Channel_aftertouch_c, 4, 0
8, 150720, Note_on_c, 4, 64, 92
8, 150736, Channel_aftertouch_c, 4, 45
8, 150748, Channel_aftertouch_c, 4, 56
8, 150760, Channel_aftertouch_c, 4, 59
8, 150772, Channel_aftertouch_c, 4, 52
8, 150784, Channel_aftertouch_c, 4, 43
8, 150796, Channel_aftertouch_c, 4, 41
8, 150808, Channel_aftertouch_c, 4, 44
8, 150820, Channel_aftertouch_c, 4, 42
8, 150832, Channel_aftertouch_c, 4, 15
8, 150844, Channel_aftertouch_c, 4, 0
8, 150872, Note_on_c, 4, 66, 0
8, 150912, Note_on_c, 4, 66, 92
8, 150936, Channel_aftertouch_c, 4, 54
8, 150952, Channel_aftertouch_c, 4, 21
8, 150960, Note_on_c, 4, 64, 0
8, 150960, Channel_aftertouch_c, 4, 27
8, 150976, Channel_aftertouch_c, 4, 20
8, 150988, Channel_aftertouch_c, 4, 20
8, 151000, Channel_aftertouch_c, 4, 22
8, 151012, Channel_aftertouch_c, 4, 22
8, 151044, Channel_aftertouch_c, 4, 20
8, 151056, Channel_aftertouch_c, 4, 17
8, 151068, Channel_aftertouch_c, 4, 15
8, 151080, Channel_aftertouch_c, 4, 9
8, 151096, Channel_aftertouch_c, 4, 0
8, 151104, Note_on_c, 4, 64, 85
8, 151132, Note_on_c, 4, 66, 0
8, 151296, Note_on_c, 4, 69, 96
8, 151320, Channel_aftertouch_c, 4, 32
8, 151336, Note_on_c, 4, 64, 0
8, 151336, Channel_aftertouch_c, 4, 81
8, 151344, Channel_aftertouch_c, 4, 73
8, 151360, Channel_aftertouch_c, 4, 72
8, 151392, Channel_aftertouch_c, 4, 72
8, 151428, Channel_aftertouch_c, 4, 67
8, 151440, Channel_aftertouch_c, 4, 61
8, 151484, Channel_aftertouch_c, 4, 63
8, 151496, Channel_aftertouch_c, 4, 63
8, 151508, Channel_aftertouch_c, 4, 65
8, 151520, Channel_aftertouch_c, 4, 65
8, 151588, Channel_aftertouch_c, 4, 62
8, 151600, Channel_aftertouch_c, 4, 58
8, 151612, Channel_aftertouch_c, 4, 51
8, 151624, Channel_aftertouch_c, 4, 42
8, 151636, Channel_aftertouch_c, 4, 28
8, 151648, Note_on_c, 4, 69, 0
8, 151648, Channel_aftertouch_c, 4, 0
8, 151680, Note_on_c, 4, 64, 92
8, 151684, Channel_aftertouch_c, 4, 44
8, 151696, Channel_aftertouch_c, 4, 18
8, 151708, Channel_aftertouch_c, 4, 0
8, 151824, Note_on_c, 4, 64, 0
8, 151872, Note_on_c, 4, 66, 85
8, 151872, Channel_aftertouch_c, 4, 10
8, 151884, Channel_aftertouch_c, 4, 24
8, 151896, Channel_aftertouch_c, 4, 28
8, 151908, Channel_aftertouch_c, 4, 28
8, 151920, Channel_aftertouch_c, 4, 31
8, 151932, Channel_aftertouch_c, 4, 34
8, 151944, Channel_aftertouch_c, 4, 37
8, 151956, Channel_aftertouch_c, 4, 39
8, 151968, Channel_aftertouch_c, 4, 40
8, 151980, Channel_aftertouch_c, 4, 41
8, 151992, Channel_aftertouch_c, 4, 42
8, 152004, Channel_aftertouch_c, 4, 43
8, 152060, Channel_aftertouch_c, 4, 43
8, 152096, Channel_aftertouch_c, 4, 40
8, 152104, Channel_aftertouch_c, 4, 38
8, 152152, Channel_aftertouch_c, 4, 37
8, 152160, Channel_aftertouch_c, 4, 34
8, 152176, Channel_aftertouch_c, 4, 29
8, 152188, Channel_aftertouch_c, 4, 25
8, 152200, Channel_aftertouch_c, 4, 21
8, 152212, Channel_aftertouch_c, 4, 18
8, 152224, Channel_aftertouch_c, 4, 17
8, 152236, Channel_aftertouch_c, 4, 15
8, 152248, Channel_aftertouch_c, 4, 14
8, 152256, Note_on_c, 4, 64, 89
8, 152260, Channel_aftertouch_c, 4, 10
8, 152272, Channel_aftertouch_c, 4, 3
8, 152284, Channel_aftertouch_c, 4, 50
8, 152296, Channel_aftertouch_c, 4, 57
8, 152308, Channel_aftertouch_c, 4, 62
8, 152332, Channel_aftertouch_c, 4, 59
8, 152344, Channel_aftertouch_c, 4, 54
8, 152368, Channel_aftertouch_c, 4, 57
8, 152376, Channel_aftertouch_c, 4, 58
8, 152388, Channel_aftertouch_c, 4, 53
8, 152400, Channel_aftertouch_c, 4, 36
8, 152416, Channel_aftertouch_c, 4, 0
8, 152436, Channel_aftertouch_c, 4, 5
8, 152448, Note_on_c, 4, 69, 108
8, 152448, Channel_aftertouch_c, 4, 25
8, 152460, Channel_aftertouch_c, 4, 8
8, 152472, Note_on_c, 4, 64, 0
8, 152472, Channel_aftertouch_c, 4, 16
8, 152488, Channel_aftertouch_c, 4, 58
8, 152496, Channel_aftertouch_c, 4, 65
8, 152508, Channel_aftertouch_c, 4, 55
8, 152520, Channel_aftertouch_c, 4, 50
8, 152544, Channel_aftertouch_c, 4, 55
8, 152556, Channel_aftertouch_c, 4, 57
8, 152588, Channel_aftertouch_c, 4, 55
8, 152600, Channel_aftertouch_c, 4, 49
8, 152616, Channel_aftertouch_c, 4, 40
8, 152624, Channel_aftertouch_c, 4, 27
8, 152636, Channel_aftertouch_c, 4, 18
8, 152640, Note_on_c, 4, 64, 92
8, 152652, Channel_aftertouch_c, 4, 29
8, 152660, Channel_aftertouch_c, 4, 30
8, 152676, Channel_aftertouch_c, 4, 7
8, 152688, Channel_aftertouch_c, 4, 0
8, 152808, Note_on_c, 4, 66, 0
8, 152832, Note_on_c, 4, 68, 117
8, 152860, Note_on_c, 4, 69, 0
8, 152868, Note_on_c, 4, 64, 0
8, 153216, Note_on_c, 4, 64, 92
8, 153264, Note_on_c, 4, 68, 0
8, 153408, Note_on_c, 4, 66, 96
8, 153420, Channel_aftertouch_c, 4, 39
8, 153432, Channel_aftertouch_c, 4, 40
8, 153444, Channel_aftertouch_c, 4, 38
8, 153456, Channel_aftertouch_c, 4, 20
8, 153468, Channel_aftertouch_c, 4, 9
8, 153480, Channel_aftertouch_c, 4, 18
8, 153492, Channel_aftertouch_c, 4, 26
8, 153516, Channel_aftertouch_c, 4, 14
8, 153528, Channel_aftertouch_c, 4, 5
8, 153552, Channel_aftertouch_c, 4, 5
8, 153560, Channel_aftertouch_c, 4, 4
8, 153572, Channel_aftertouch_c, 4, 2
8, 153584, Channel_aftertouch_c, 4, 0
8, 153708, Note_on_c, 4, 64, 0
8, 153792, Note_on_c, 4, 64, 76
8, 153840, Note_on_c, 4, 66, 0
8, 153984, Note_on_c, 4, 69, 104
8, 154004, Channel_aftertouch_c, 4, 39
8, 154016, Channel_aftertouch_c, 4, 34
8, 154028, Channel_aftertouch_c, 4, 28
8, 154040, Channel_aftertouch_c, 4, 11
8, 154052, Channel_aftertouch_c, 4, 0
8, 154064, Note_on_c, 4, 64, 0
8, 154176, Note_on_c, 4, 64, 76
8, 154276, Note_on_c, 4, 69, 0
8, 154368, Note_on_c, 4, 68, 117
8, 154368, Note_on_c, 4, 69, 64
8, 154384, Note_on_c, 4, 69, 0
8, 154404, Channel_aftertouch_c, 4, 13
8, 154416, Channel_aftertouch_c, 4, 0
8, 154656, Note_on_c, 4, 64, 0
8, 154728, Channel_aftertouch_c, 4, 15
8, 154736, Channel_aftertouch_c, 4, 0
8, 154752, Note_on_c, 4, 64, 82
8, 154776, Note_on_c, 4, 68, 0
8, 154944, Note_on_c, 4, 66, 89
8, 154948, Channel_aftertouch_c, 4, 7
8, 154972, Channel_aftertouch_c, 4, 16
8, 154984, Channel_aftertouch_c, 4, 19
8, 154996, Channel_aftertouch_c, 4, 19
8, 155008, Channel_aftertouch_c, 4, 21
8, 155016, Note_on_c, 4, 64, 0
8, 155024, Channel_aftertouch_c, 4, 19
8, 155032, Channel_aftertouch_c, 4, 23
8, 155040, Note_on_c, 4, 64, 9
8, 155056, Channel_aftertouch_c, 4, 20
8, 155104, Channel_aftertouch_c, 4, 16
8, 155116, Channel_aftertouch_c, 4, 12
8, 155128, Channel_aftertouch_c, 4, 10
8, 155140, Channel_aftertouch_c, 4, 13
8, 155152, Channel_aftertouch_c, 4, 15
8, 155164, Channel_aftertouch_c, 4, 17
8, 155176, Note_on_c, 4, 64, 0
8, 155176, Channel_aftertouch_c, 4, 18
8, 155184, Channel_aftertouch_c, 4, 18
8, 155200, Channel_aftertouch_c, 4, 20
8, 155216, Channel_aftertouch_c, 4, 22
8, 155224, Channel_aftertouch_c, 4, 23
8, 155236, Channel_aftertouch_c, 4, 24
8, 155260, Channel_aftertouch_c, 4, 21
8, 155272, Channel_aftertouch_c, 4, 19
8, 155284, Channel_aftertouch_c, 4, 15
8, 155308, Channel_aftertouch_c, 4, 10
8, 155320, Channel_aftertouch_c, 4, 0
8, 155328, Note_on_c, 4, 64, 96
8, 155380, Note_on_c, 4, 66, 0
8, 155520, Note_on_c, 4, 69, 104
8, 155568, Note_on_c, 4, 64, 0
8, 155712, Note_on_c, 4, 64, 79
8, 155860, Note_on_c, 4, 69, 0
8, 155904, Note_on_c, 4, 68, 117
8, 155904, Note_on_c, 4, 69, 30
8, 155920, Note_on_c, 4, 69, 0
8, 155996, Note_on_c, 4, 64, 0
8, 156288, Note_on_c, 4, 64, 96
8, 156324, Note_on_c, 4, 68, 0
8, 156480, Note_on_c, 4, 69, 108
8, 156496, Channel_aftertouch_c, 4, 31
8, 156512, Channel_aftertouch_c, 4, 37
8, 156520, Channel_aftertouch_c, 4, 28
8, 156536, Channel_aftertouch_c, 4, 27
8, 156544, Channel_aftertouch_c, 4, 30
8, 156568, Channel_aftertouch_c, 4, 25
8, 156580, Channel_aftertouch_c, 4, 24
8, 156592, Channel_aftertouch_c, 4, 22
8, 156604, Channel_aftertouch_c, 4, 25
8, 156616, Channel_aftertouch_c, 4, 30
8, 156628, Channel_aftertouch_c, 4, 32
8, 156640, Channel_aftertouch_c, 4, 33
8, 156664, Channel_aftertouch_c, 4, 29
8, 156672, Note_on_c, 4, 69, 0
8, 156672, Note_on_c, 4, 64, 0
8, 156672, Note_on_c, 4, 64, 64
8, 156672, Note_on_c, 4, 69, 108
8, 156672, Note_on_c, 4, 64, 64
8, 156676, Channel_aftertouch_c, 4, 25
8, 156688, Channel_aftertouch_c, 4, 20
8, 156696, Channel_aftertouch_c, 4, 10
8, 156712, Channel_aftertouch_c, 4, 0
8, 156744, Note_on_c, 4, 64, 0
8, 156768, Note_on_c, 4, 64, 0
8, 156864, Note_on_c, 4, 64, 89
8, 156904, Note_on_c, 4, 69, 0
8, 157056, Note_on_c, 4, 69, 108
8, 157084, Channel_aftertouch_c, 4, 39
8, 157108, Channel_aftertouch_c, 4, 0
8, 157128, Note_on_c, 4, 64, 0
8, 157248, Note_on_c, 4, 64, 62
8, 157252, Channel_aftertouch_c, 4, 10
8, 157264, Channel_aftertouch_c, 4, 0
8, 157440, Note_on_c, 4, 68, 122
8, 157468, Note_on_c, 4, 69, 0
8, 157500, Note_on_c, 4, 64, 0
8, 157536, Note_on_c, 4, 64, 25
8, 157652, Note_on_c, 4, 64, 0
8, 157824, Note_on_c, 4, 64, 89
8, 157896, Note_on_c, 4, 68, 0
8, 158016, Note_on_c, 4, 69, 104
8, 158032, Channel_aftertouch_c, 4, 29
8, 158044, Channel_aftertouch_c, 4, 25
8, 158056, Channel_aftertouch_c, 4, 41
8, 158068, Channel_aftertouch_c, 4, 29
8, 158080, Channel_aftertouch_c, 4, 0
8, 158144, Note_on_c, 4, 64, 0
8, 158396, Note_on_c, 4, 69, 0
8, 158400, Note_on_c, 4, 64, 89
8, 158592, Note_on_c, 4, 69, 104
8, 158632, Channel_aftertouch_c, 4, 30
8, 158644, Channel_aftertouch_c, 4, 0
8, 158684, Note_on_c, 4, 64, 0
8, 158784, Note_on_c, 4, 61, 85
8, 158792, Channel_aftertouch_c, 4, 5
8, 158804, Channel_aftertouch_c, 4, 0
8, 158816, Note_on_c, 4, 69, 0
8, 158976, Note_on_c, 4, 62, 96
8, 159020, Channel_aftertouch_c, 4, 25
8, 159032, Channel_aftertouch_c, 4, 26
8, 159044, Channel_aftertouch_c, 4, 24
8, 159056, Channel_aftertouch_c, 4, 30
8, 159068, Channel_aftertouch_c, 4, 39
8, 159080, Channel_aftertouch_c, 4, 41
8, 159092, Channel_aftertouch_c, 4, 33
8, 159104, Channel_aftertouch_c, 4, 22
8, 159112, Channel_aftertouch_c, 4, 19
8, 159128, Channel_aftertouch_c, 4, 26
8, 159140, Channel_aftertouch_c, 4, 28
8, 159152, Channel_aftertouch_c, 4, 23
8, 159164, Channel_aftertouch_c, 4, 16
8, 159168, Note_on_c, 4, 69, 100
8, 159176, Channel_aftertouch_c, 4, 11
8, 159188, Channel_aftertouch_c, 4, 26
8, 159200, Channel_aftertouch_c, 4, 13
8, 159212, Channel_aftertouch_c, 4, 11
8, 159220, Note_on_c, 4, 61, 0
8, 159224, Channel_aftertouch_c, 4, 0
8, 159248, Note_on_c, 4, 62, 0
8, 159360, Note_on_c, 4, 62, 73
8, 159416, Channel_aftertouch_c, 4, 7
8, 159428, Channel_aftertouch_c, 4, 10
8, 159440, Channel_aftertouch_c, 4, 12
8, 159452, Channel_aftertouch_c, 4, 13
8, 159464, Channel_aftertouch_c, 4, 16
8, 159476, Channel_aftertouch_c, 4, 18
8, 159488, Channel_aftertouch_c, 4, 16
8, 159500, Channel_aftertouch_c, 4, 10
8, 159512, Channel_aftertouch_c, 4, 7
8, 159524, Channel_aftertouch_c, 4, 6
8, 159548, Channel_aftertouch_c, 4, 5
8, 159552, Note_on_c, 4, 61, 79
8, 159572, Channel_aftertouch_c, 4, 3
8, 159584, Channel_aftertouch_c, 4, 60
8, 159596, Channel_aftertouch_c, 4, 53
8, 159608, Channel_aftertouch_c, 4, 0
8, 159616, Note_on_c, 4, 69, 0
8, 159640, Note_on_c, 4, 62, 0
8, 159652, Channel_aftertouch_c, 4, 2
8, 159664, Channel_aftertouch_c, 4, 6
8, 159676, Channel_aftertouch_c, 4, 10
8, 159688, Channel_aftertouch_c, 4, 16
8, 159700, Channel_aftertouch_c, 4, 25
8, 159712, Channel_aftertouch_c, 4, 30
8, 159724, Channel_aftertouch_c, 4, 26
8, 159736, Channel_aftertouch_c, 4, 23
8, 159744, Note_on_c, 4, 57, 104
8, 159936, Note_on_c, 4, 64, 80
8, 160068, Channel_aftertouch_c, 4, 3
8, 160088, Note_on_c, 4, 64, 0
8, 160088, Channel_aftertouch_c, 4, 0
8, 160128, Note_on_c, 4, 69, 73
8, 160176, Channel_aftertouch_c, 4, 15
8, 160192, Channel_aftertouch_c, 4, 18
8, 160212, Channel_aftertouch_c, 4, 16
8, 160224, Channel_aftertouch_c, 4, 12
8, 160232, Channel_aftertouch_c, 4, 2
8, 160248, Channel_aftertouch_c, 4, 0
8, 160320, Note_on_c, 4, 64, 57
8, 160336, Note_on_c, 4, 57, 0
8, 160344, Note_on_c, 4, 69, 0
8, 160468, Note_on_c, 4, 64, 0
8, 160512, Note_on_c, 4, 68, 113
8, 160520, Channel_aftertouch_c, 4, 26
8, 160532, Channel_aftertouch_c, 4, 14
8, 160544, Channel_aftertouch_c, 4, 31
8, 160552, Channel_aftertouch_c, 4, 36
8, 160564, Channel_aftertouch_c, 4, 38
8, 160588, Channel_aftertouch_c, 4, 33
8, 160600, Channel_aftertouch_c, 4, 27
8, 160608, Channel_aftertouch_c, 4, 22
8, 160620, Channel_aftertouch_c, 4, 19
8, 160644, Channel_aftertouch_c, 4, 22
8, 160656, Channel_aftertouch_c, 4, 24
8, 160664, Channel_aftertouch_c, 4, 27
8, 160676, Channel_aftertouch_c, 4, 29
8, 160688, Channel_aftertouch_c, 4, 32
8, 160700, Channel_aftertouch_c, 4, 33
8, 160712, Channel_aftertouch_c, 4, 34
8, 160720, Channel_aftertouch_c, 4, 35
8, 160744, Channel_aftertouch_c, 4, 36
8, 160788, Channel_aftertouch_c, 4, 36
8, 160800, Channel_aftertouch_c, 4, 37
8, 160832, Channel_aftertouch_c, 4, 34
8, 160840, Channel_aftertouch_c, 4, 32
8, 160856, Channel_aftertouch_c, 4, 27
8, 160864, Channel_aftertouch_c, 4, 23
8, 160876, Channel_aftertouch_c, 4, 8
8, 160888, Channel_aftertouch_c, 4, 0
8, 160896, Note_on_c, 4, 64, 73
8, 160908, Note_on_c, 4, 68, 0
8, 160912, Channel_aftertouch_c, 4, 48
8, 160920, Channel_aftertouch_c, 4, 55
8, 160932, Channel_aftertouch_c, 4, 64
8, 160944, Channel_aftertouch_c, 4, 66
8, 160956, Channel_aftertouch_c, 4, 67
8, 160976, Channel_aftertouch_c, 4, 63
8, 160988, Channel_aftertouch_c, 4, 58
8, 161000, Channel_aftertouch_c, 4, 37
8, 161008, Channel_aftertouch_c, 4, 0
8, 161024, Note_on_c, 4, 64, 0
8, 161076, Channel_aftertouch_c, 4, 46
8, 161088, Note_on_c, 4, 69, 100
8, 161088, Channel_aftertouch_c, 4, 15
8, 161100, Channel_aftertouch_c, 4, 24
8, 161112, Channel_aftertouch_c, 4, 1
8, 161120, Channel_aftertouch_c, 4, 0
8, 161280, Note_on_c, 4, 57, 104
8, 161324, Channel_aftertouch_c, 4, 30
8, 161336, Channel_aftertouch_c, 4, 45
8, 161348, Channel_aftertouch_c, 4, 51
8, 161360, Channel_aftertouch_c, 4, 52
8, 161372, Channel_aftertouch_c, 4, 46
8, 161380, Channel_aftertouch_c, 4, 37
8, 161392, Channel_aftertouch_c, 4, 27
8, 161404, Channel_aftertouch_c, 4, 17
8, 161416, Channel_aftertouch_c, 4, 9
8, 161428, Channel_aftertouch_c, 4, 0
8, 161472, Note_on_c, 4, 64, 76
8, 161472, Channel_aftertouch_c, 4, 2
8, 161476, Note_on_c, 4, 69, 0
8, 161488, Channel_aftertouch_c, 4, 56
8, 161496, Channel_aftertouch_c, 4, 69
8, 161508, Channel_aftertouch_c, 4, 70
8, 161540, Channel_aftertouch_c, 4, 67
8, 161552, Channel_aftertouch_c, 4, 65
8, 161564, Channel_aftertouch_c, 4, 64
8, 161576, Channel_aftertouch_c, 4, 62
8, 161584, Channel_aftertouch_c, 4, 55
8, 161596, Channel_aftertouch_c, 4, 32
8, 161608, Channel_aftertouch_c, 4, 9
8, 161640, Channel_aftertouch_c, 4, 11
8, 161652, Note_on_c, 4, 64, 0
8, 161660, Channel_aftertouch_c, 4, 12
8, 161664, Note_on_c, 4, 69, 100
8, 161672, Channel_aftertouch_c, 4, 37
8, 161684, Channel_aftertouch_c, 4, 37
8, 161696, Channel_aftertouch_c, 4, 59
8, 161708, Channel_aftertouch_c, 4, 60
8, 161720, Channel_aftertouch_c, 4, 61
8, 161728, Channel_aftertouch_c, 4, 59
8, 161740, Channel_aftertouch_c, 4, 56
8, 161752, Channel_aftertouch_c, 4, 52
8, 161764, Channel_aftertouch_c, 4, 46
8, 161776, Channel_aftertouch_c, 4, 39
8, 161788, Channel_aftertouch_c, 4, 30
8, 161796, Channel_aftertouch_c, 4, 15
8, 161808, Channel_aftertouch_c, 4, 0
8, 161816, Note_on_c, 4, 69, 0
8, 161840, Note_on_c, 4, 57, 0
8, 161852, Channel_aftertouch_c, 4, 10
8, 161856, Note_on_c, 4, 61, 104
8, 161864, Channel_aftertouch_c, 4, 0
8, 162040, Channel_aftertouch_c, 4, 22
8, 162048, Note_on_c, 4, 62, 96
8, 162052, Note_on_c, 4, 61, 0
8, 162056, Channel_aftertouch_c, 4, 62
8, 162068, Channel_aftertouch_c, 4, 83
8, 162080, Channel_aftertouch_c, 4, 89
8, 162088, Channel_aftertouch_c, 4, 90
8, 162104, Channel_aftertouch_c, 4, 87
8, 162112, Channel_aftertouch_c, 4, 83
8, 162124, Channel_aftertouch_c, 4, 80
8, 162156, Channel_aftertouch_c, 4, 82
8, 162168, Channel_aftertouch_c, 4, 83
8, 162200, Channel_aftertouch_c, 4, 79
8, 162212, Channel_aftertouch_c, 4, 66
8, 162224, Channel_aftertouch_c, 4, 19
8, 162232, Channel_aftertouch_c, 4, 19
8, 162240, Note_on_c, 4, 69, 85
8, 162248, Channel_aftertouch_c, 4, 54
8, 162252, Note_on_c, 4, 62, 0
8, 162260, Channel_aftertouch_c, 4, 57
8, 162272, Channel_aftertouch_c, 4, 59
8, 162280, Channel_aftertouch_c, 4, 59
8, 162304, Channel_aftertouch_c, 4, 57
8, 162316, Channel_aftertouch_c, 4, 55
8, 162336, Channel_aftertouch_c, 4, 55
8, 162348, Channel_aftertouch_c, 4, 54
8, 162360, Channel_aftertouch_c, 4, 52
8, 162372, Channel_aftertouch_c, 4, 50
8, 162384, Channel_aftertouch_c, 4, 48
8, 162396, Channel_aftertouch_c, 4, 72
8, 162408, Channel_aftertouch_c, 4, 76
8, 162432, Note_on_c, 4, 62, 82
8, 162432, Channel_aftertouch_c, 4, 74
8, 162440, Channel_aftertouch_c, 4, 76
8, 162452, Note_on_c, 4, 69, 0
8, 162452, Channel_aftertouch_c, 4, 78
8, 162464, Channel_aftertouch_c, 4, 80
8, 162476, Channel_aftertouch_c, 4, 81
8, 162496, Channel_aftertouch_c, 4, 77
8, 162508, Channel_aftertouch_c, 4, 73
8, 162520, Channel_aftertouch_c, 4, 68
8, 162532, Channel_aftertouch_c, 4, 66
8, 162544, Channel_aftertouch_c, 4, 64
8, 162556, Channel_aftertouch_c, 4, 61
8, 162564, Channel_aftertouch_c, 4, 52
8, 162576, Channel_aftertouch_c, 4, 48
8, 162588, Channel_aftertouch_c, 4, 47
8, 162600, Channel_aftertouch_c, 4, 46
8, 162612, Channel_aftertouch_c, 4, 16
8, 162624, Note_on_c, 4, 61, 108
8, 162624, Channel_aftertouch_c, 4, 21
8, 162636, Channel_aftertouch_c, 4, 0
8, 162704, Note_on_c, 4, 62, 0
8, 162816, Note_on_c, 4, 61, 0
8, 162816, Note_on_c, 4, 57, 104
8, 163008, Note_on_c, 4, 64, 80
8, 163140, Channel_aftertouch_c, 4, 3
8, 163160, Note_on_c, 4, 64, 0
8, 163160, Channel_aftertouch_c, 4, 0
8, 163200, Note_on_c, 4, 69, 73
8, 163248, Channel_aftertouch_c, 4, 15
8, 163264, Channel_aftertouch_c, 4, 18
8, 163284, Channel_aftertouch_c, 4, 16
8, 163296, Channel_aftertouch_c, 4, 12
8, 163304, Channel_aftertouch_c, 4, 2
8, 163320, Channel_aftertouch_c, 4, 0
8, 163392, Note_on_c, 4, 64, 57
8, 163408, Note_on_c, 4, 57, 0
8, 163416, Note_on_c, 4, 69, 0
8, 163540, Note_on_c, 4, 64, 0
8, 163584, Note_on_c, 4, 68, 113
8, 163592, Channel_aftertouch_c, 4, 26
8, 163604, Channel_aftertouch_c, 4, 14
8, 163616, Channel_aftertouch_c, 4, 31
8, 163624, Channel_aftertouch_c, 4, 36
8, 163636, Channel_aftertouch_c, 4, 38
8, 163660, Channel_aftertouch_c, 4, 33
8, 163672, Channel_aftertouch_c, 4, 27
8, 163680, Channel_aftertouch_c, 4, 22
8, 163692, Channel_aftertouch_c, 4, 19
8, 163716, Channel_aftertouch_c, 4, 22
8, 163728, Channel_aftertouch_c, 4, 24
8, 163736, Channel_aftertouch_c, 4, 27
8, 163748, Channel_aftertouch_c, 4, 29
8, 163760, Channel_aftertouch_c, 4, 32
8, 163772, Channel_aftertouch_c, 4, 33
8, 163784, Channel_aftertouch_c, 4, 34
8, 163792, Channel_aftertouch_c, 4, 35
8, 163816, Channel_aftertouch_c, 4, 36
8, 163860, Channel_aftertouch_c, 4, 36
8, 163872, Channel_aftertouch_c, 4, 37
8, 163904, Channel_aftertouch_c, 4, 34
8, 163912, Channel_aftertouch_c, 4, 32
8, 163928, Channel_aftertouch_c, 4, 27
8, 163936, Channel_aftertouch_c, 4, 23
8, 163948, Channel_aftertouch_c, 4, 8
8, 163960, Channel_aftertouch_c, 4, 0
8, 163968, Note_on_c, 4, 64, 73
8, 163980, Note_on_c, 4, 68, 0
8, 163984, Channel_aftertouch_c, 4, 48
8, 163992, Channel_aftertouch_c, 4, 55
8, 164004, Channel_aftertouch_c, 4, 64
8, 164016, Channel_aftertouch_c, 4, 66
8, 164028, Channel_aftertouch_c, 4, 67
8, 164048, Channel_aftertouch_c, 4, 63
8, 164060, Channel_aftertouch_c, 4, 58
8, 164072, Channel_aftertouch_c, 4, 37
8, 164080, Channel_aftertouch_c, 4, 0
8, 164096, Note_on_c, 4, 64, 0
8, 164148, Channel_aftertouch_c, 4, 46
8, 164160, Note_on_c, 4, 69, 100
8, 164160, Channel_aftertouch_c, 4, 15
8, 164172, Channel_aftertouch_c, 4, 24
8, 164184, Channel_aftertouch_c, 4, 1
8, 164192, Channel_aftertouch_c, 4, 0
8, 164352, Note_on_c, 4, 57, 104
8, 164396, Channel_aftertouch_c, 4, 30
8, 164408, Channel_aftertouch_c, 4, 45
8, 164420, Channel_aftertouch_c, 4, 51
8, 164432, Channel_aftertouch_c, 4, 52
8, 164444, Channel_aftertouch_c, 4, 46
8, 164452, Channel_aftertouch_c, 4, 37
8, 164464, Channel_aftertouch_c, 4, 27
8, 164476, Channel_aftertouch_c, 4, 17
8, 164488, Channel_aftertouch_c, 4, 9
8, 164500, Channel_aftertouch_c, 4, 0
8, 164544, Note_on_c, 4, 64, 76
8, 164544, Channel_aftertouch_c, 4, 2
8, 164548, Note_on_c, 4, 69, 0
8, 164560, Channel_aftertouch_c, 4, 56
8, 164568, Channel_aftertouch_c, 4, 69
8, 164580, Channel_aftertouch_c, 4, 70
8, 164612, Channel_aftertouch_c, 4, 67
8, 164624, Channel_aftertouch_c, 4, 65
8, 164636, Channel_aftertouch_c, 4, 64
8, 164648, Channel_aftertouch_c, 4, 62
8, 164656, Channel_aftertouch_c, 4, 55
8, 164668, Channel_aftertouch_c, 4, 32
8, 164680, Channel_aftertouch_c, 4, 9
8, 164712, Channel_aftertouch_c, 4, 11
8, 164724, Note_on_c, 4, 64, 0
8, 164732, Channel_aftertouch_c, 4, 12
8, 164736, Note_on_c, 4, 69, 100
8, 164744, Channel_aftertouch_c, 4, 37
8, 164756, Channel_aftertouch_c, 4, 37
8, 164768, Channel_aftertouch_c, 4, 59
8, 164780, Channel_aftertouch_c, 4, 60
8, 164792, Channel_aftertouch_c, 4, 61
8, 164800, Channel_aftertouch_c, 4, 59
8, 164812, Channel_aftertouch_c, 4, 56
8, 164824, Channel_aftertouch_c, 4, 52
8, 164836, Channel_aftertouch_c, 4, 46
8, 164848, Channel_aftertouch_c, 4, 39
8, 164860, Channel_aftertouch_c, 4, 30
8, 164868, Channel_aftertouch_c, 4, 15
8, 164880, Channel_aftertouch_c, 4, 0
8, 164888, Note_on_c, 4, 69, 0
8, 164912, Note_on_c, 4, 57, 0
8, 164924, Channel_aftertouch_c, 4, 10
8, 164928, Note_on_c, 4, 61, 104
8, 164936, Channel_aftertouch_c, 4, 0
8, 165112, Channel_aftertouch_c, 4, 22
8, 165120, Note_on_c, 4, 62, 96
8, 165124, Note_on_c, 4, 61, 0
8, 165128, Channel_aftertouch_c, 4, 62
8, 165140, Channel_aftertouch_c, 4, 83
8, 165152, Channel_aftertouch_c, 4, 89
8, 165160, Channel_aftertouch_c, 4, 90
8, 165176, Channel_aftertouch_c, 4, 87
8, 165184, Channel_aftertouch_c, 4, 83
8, 165196, Channel_aftertouch_c, 4, 80
8, 165228, Channel_aftertouch_c, 4, 82
8, 165240, Channel_aftertouch_c, 4, 83
8, 165272, Channel_aftertouch_c, 4, 79
8, 165284, Channel_aftertouch_c, 4, 66
8, 165296, Channel_aftertouch_c, 4, 19
8, 165304, Channel_aftertouch_c, 4, 19
8, 165312, Note_on_c, 4, 69, 85
8, 165320, Channel_aftertouch_c, 4, 54
8, 165324, Note_on_c, 4, 62, 0
8, 165332, Channel_aftertouch_c, 4, 57
8, 165344, Channel_aftertouch_c, 4, 59
8, 165352, Channel_aftertouch_c, 4, 59
8, 165376, Channel_aftertouch_c, 4, 57
8, 165388, Channel_aftertouch_c, 4, 55
8, 165408, Channel_aftertouch_c, 4, 55
8, 165420, Channel_aftertouch_c, 4, 54
8, 165432, Channel_aftertouch_c, 4, 52
8, 165444, Channel_aftertouch_c, 4, 50
8, 165456, Channel_aftertouch_c, 4, 48
8, 165468, Channel_aftertouch_c, 4, 72
8, 165480, Channel_aftertouch_c, 4, 76
8, 165504, Note_on_c, 4, 62, 82
8, 165504, Channel_aftertouch_c, 4, 74
8, 165512, Channel_aftertouch_c, 4, 76
8, 165524, Note_on_c, 4, 69, 0
8, 165524, Channel_aftertouch_c, 4, 78
8, 165536, Channel_aftertouch_c, 4, 80
8, 165548, Channel_aftertouch_c, 4, 81
8, 165568, Channel_aftertouch_c, 4, 77
8, 165580, Channel_aftertouch_c, 4, 73
8, 165592, Channel_aftertouch_c, 4, 68
8, 165604, Channel_aftertouch_c, 4, 66
8, 165616, Channel_aftertouch_c, 4, 64
8, 165628, Channel_aftertouch_c, 4, 61
8, 165636, Channel_aftertouch_c, 4, 52
8, 165648, Channel_aftertouch_c, 4, 48
8, 165660, Channel_aftertouch_c, 4, 47
8, 165672, Channel_aftertouch_c, 4, 46
8, 165684, Channel_aftertouch_c, 4, 16
8, 165696, Note_on_c, 4, 61, 108
8, 165696, Channel_aftertouch_c, 4, 21
8, 165708, Channel_aftertouch_c, 4, 0
8, 165776, Note_on_c, 4, 62, 0
8, 165888, Note_on_c, 4, 61, 0
8, 165888, Note_on_c, 4, 57, 104
8, 166080, Note_on_c, 4, 64, 80
8, 166212, Channel_aftertouch_c, 4, 3
8, 166232, Note_on_c, 4, 64, 0
8, 166232, Channel_aftertouch_c, 4, 0
8, 166272, Note_on_c, 4, 69, 73
8, 166320, Channel_aftertouch_c, 4, 15
8, 166336, Channel_aftertouch_c, 4, 18
8, 166356, Channel_aftertouch_c, 4, 16
8, 166368, Channel_aftertouch_c, 4, 12
8, 166376, Channel_aftertouch_c, 4, 2
8, 166392, Channel_aftertouch_c, 4, 0
8, 166464, Note_on_c, 4, 64, 57
8, 166480, Note_on_c, 4, 57, 0
8, 166488, Note_on_c, 4, 69, 0
8, 166612, Note_on_c, 4, 64, 0
8, 166656, Note_on_c, 4, 68, 113
8, 166664, Channel_aftertouch_c, 4, 26
8, 166676, Channel_aftertouch_c, 4, 14
8, 166688, Channel_aftertouch_c, 4, 31
8, 166696, Channel_aftertouch_c, 4, 36
8, 166708, Channel_aftertouch_c, 4, 38
8, 166732, Channel_aftertouch_c, 4, 33
8, 166744, Channel_aftertouch_c, 4, 27
8, 166752, Channel_aftertouch_c, 4, 22
8, 166764, Channel_aftertouch_c, 4, 19
8, 166788, Channel_aftertouch_c, 4, 22
8, 166800, Channel_aftertouch_c, 4, 24
8, 166808, Channel_aftertouch_c, 4, 27
8, 166820, Channel_aftertouch_c, 4, 29
8, 166832, Channel_aftertouch_c, 4, 32
8, 166844, Channel_aftertouch_c, 4, 33
8, 166856, Channel_aftertouch_c, 4, 34
8, 166864, Channel_aftertouch_c, 4, 35
8, 166888, Channel_aftertouch_c, 4, 36
8, 166932, Channel_aftertouch_c, 4, 36
8, 166944, Channel_aftertouch_c, 4, 37
8, 166976, Channel_aftertouch_c, 4, 34
8, 166984, Channel_aftertouch_c, 4, 32
8, 167000, Channel_aftertouch_c, 4, 27
8, 167008, Channel_aftertouch_c, 4, 23
8, 167020, Channel_aftertouch_c, 4, 8
8, 167032, Channel_aftertouch_c, 4, 0
8, 167040, Note_on_c, 4, 64, 73
8, 167052, Note_on_c, 4, 68, 0
8, 167056, Channel_aftertouch_c, 4, 48
8, 167064, Channel_aftertouch_c, 4, 55
8, 167076, Channel_aftertouch_c, 4, 64
8, 167088, Channel_aftertouch_c, 4, 66
8, 167100, Channel_aftertouch_c, 4, 67
8, 167120, Channel_aftertouch_c, 4, 63
8, 167132, Channel_aftertouch_c, 4, 58
8, 167144, Channel_aftertouch_c, 4, 37
8, 167152, Channel_aftertouch_c, 4, 0
8, 167168, Note_on_c, 4, 64, 0
8, 167220, Channel_aftertouch_c, 4, 46
8, 167232, Note_on_c, 4, 69, 100
8, 167232, Channel_aftertouch_c, 4, 15
8, 167244, Channel_aftertouch_c, 4, 24
8, 167256, Channel_aftertouch_c, 4, 1
8, 167264, Channel_aftertouch_c, 4, 0
8, 167424, Note_on_c, 4, 57, 104
8, 167468, Channel_aftertouch_c, 4, 30
8, 167480, Channel_aftertouch_c, 4, 45
8, 167492, Channel_aftertouch_c, 4, 51
8, 167504, Channel_aftertouch_c, 4, 52
8, 167516, Channel_aftertouch_c, 4, 46
8, 167524, Channel_aftertouch_c, 4, 37
8, 167536, Channel_aftertouch_c, 4, 27
8, 167548, Channel_aftertouch_c, 4, 17
8, 167560, Channel_aftertouch_c, 4, 9
8, 167572, Channel_aftertouch_c, 4, 0
8, 167616, Note_on_c, 4, 64, 76
8, 167616, Channel_aftertouch_c, 4, 2
8, 167620, Note_on_c, 4, 69, 0
8, 167632, Channel_aftertouch_c, 4, 56
8, 167640, Channel_aftertouch_c, 4, 69
8, 167652, Channel_aftertouch_c, 4, 70
8, 167684, Channel_aftertouch_c, 4, 67
8, 167696, Channel_aftertouch_c, 4, 65
8, 167708, Channel_aftertouch_c, 4, 64
8, 167720, Channel_aftertouch_c, 4, 62
8, 167728, Channel_aftertouch_c, 4, 55
8, 167740, Channel_aftertouch_c, 4, 32
8, 167752, Channel_aftertouch_c, 4, 9
8, 167784, Channel_aftertouch_c, 4, 11
8, 167796, Note_on_c, 4, 64, 0
8, 167804, Channel_aftertouch_c, 4, 12
8, 167808, Note_on_c, 4, 69, 100
8, 167816, Channel_aftertouch_c, 4, 37
8, 167828, Channel_aftertouch_c, 4, 37
8, 167840, Channel_aftertouch_c, 4, 59
8, 167852, Channel_aftertouch_c, 4, 60
8, 167864, Channel_aftertouch_c, 4, 61
8, 167872, Channel_aftertouch_c, 4, 59
8, 167884, Channel_aftertouch_c, 4, 56
8, 167896, Channel_aftertouch_c, 4, 52
8, 167908, Channel_aftertouch_c, 4, 46
8, 167920, Channel_aftertouch_c, 4, 39
8, 167932, Channel_aftertouch_c, 4, 30
8, 167940, Channel_aftertouch_c, 4, 15
8, 167952, Channel_aftertouch_c, 4, 0
8, 167960, Note_on_c, 4, 69, 0
8, 167984, Note_on_c, 4, 57, 0
8, 167996, Channel_aftertouch_c, 4, 10
8, 168000, Note_on_c, 4, 61, 104
8, 168008, Channel_aftertouch_c, 4, 0
8, 168184, Channel_aftertouch_c, 4, 22
8, 168192, Note_on_c, 4, 62, 96
8, 168196, Note_on_c, 4, 61, 0
8, 168200, Channel_aftertouch_c, 4, 62
8, 168212, Channel_aftertouch_c, 4, 83
8, 168224, Channel_aftertouch_c, 4, 89
8, 168232, Channel_aftertouch_c, 4, 90
8, 168248, Channel_aftertouch_c, 4, 87
8, 168256, Channel_aftertouch_c, 4, 83
8, 168268, Channel_aftertouch_c, 4, 80
8, 168300, Channel_aftertouch_c, 4, 82
8, 168312, Channel_aftertouch_c, 4, 83
8, 168344, Channel_aftertouch_c, 4, 79
8, 168356, Channel_aftertouch_c, 4, 66
8, 168368, Channel_aftertouch_c, 4, 19
8, 168376, Channel_aftertouch_c, 4, 19
8, 168384, Note_on_c, 4, 69, 85
8, 168392, Channel_aftertouch_c, 4, 54
8, 168396, Note_on_c, 4, 62, 0
8, 168404, Channel_aftertouch_c, 4, 57
8, 168416, Channel_aftertouch_c, 4, 59
8, 168424, Channel_aftertouch_c, 4, 59
8, 168448, Channel_aftertouch_c, 4, 57
8, 168460, Channel_aftertouch_c, 4, 55
8, 168480, Channel_aftertouch_c, 4, 55
8, 168492, Channel_aftertouch_c, 4, 54
8, 168504, Channel_aftertouch_c, 4, 52
8, 168516, Channel_aftertouch_c, 4, 50
8, 168528, Channel_aftertouch_c, 4, 48
8, 168540, Channel_aftertouch_c, 4, 72
8, 168552, Channel_aftertouch_c, 4, 76
8, 168576, Note_on_c, 4, 62, 82
8, 168576, Channel_aftertouch_c, 4, 74
8, 168584, Channel_aftertouch_c, 4, 76
8, 168596, Note_on_c, 4, 69, 0
8, 168596, Channel_aftertouch_c, 4, 78
8, 168608, Channel_aftertouch_c, 4, 80
8, 168620, Channel_aftertouch_c, 4, 81
8, 168640, Channel_aftertouch_c, 4, 77
8, 168652, Channel_aftertouch_c, 4, 73
8, 168664, Channel_aftertouch_c, 4, 68
8, 168676, Channel_aftertouch_c, 4, 66
8, 168688, Channel_aftertouch_c, 4, 64
8, 168700, Channel_aftertouch_c, 4, 61
8, 168708, Channel_aftertouch_c, 4, 52
8, 168720, Channel_aftertouch_c, 4, 48
8, 168732, Channel_aftertouch_c, 4, 47
8, 168744, Channel_aftertouch_c, 4, 46
8, 168756, Channel_aftertouch_c, 4, 16
8, 168768, Note_on_c, 4, 61, 108
8, 168768, Channel_aftertouch_c, 4, 21
8, 168780, Channel_aftertouch_c, 4, 0
8, 168848, Note_on_c, 4, 62, 0
8, 168960, Note_on_c, 4, 61, 0
8, 168960, Note_on_c, 4, 57, 104
8, 169152, Note_on_c, 4, 64, 80
8, 169284, Channel_aftertouch_c, 4, 3
8, 169304, Note_on_c, 4, 64, 0
8, 169304, Channel_aftertouch_c, 4, 0
8, 169344, Note_on_c, 4, 69, 73
8, 169392, Channel_aftertouch_c, 4, 15
8, 169408, Channel_aftertouch_c, 4, 18
8, 169428, Channel_aftertouch_c, 4, 16
8, 169440, Channel_aftertouch_c, 4, 12
8, 169448, Channel_aftertouch_c, 4, 2
8, 169464, Channel_aftertouch_c, 4, 0
8, 169536, Note_on_c, 4, 64, 57
8, 169552, Note_on_c, 4, 57, 0
8, 169560, Note_on_c, 4, 69, 0
8, 169684, Note_on_c, 4, 64, 0
8, 169728, Note_on_c, 4, 68, 113
8, 169736, Channel_aftertouch_c, 4, 26
8, 169748, Channel_aftertouch_c, 4, 14
8, 169760, Channel_aftertouch_c, 4, 31
8, 169768, Channel_aftertouch_c, 4, 36
8, 169780, Channel_aftertouch_c, 4, 38
8, 169804, Channel_aftertouch_c, 4, 33
8, 169816, Channel_aftertouch_c, 4, 27
8, 169824, Channel_aftertouch_c, 4, 22
8, 169836, Channel_aftertouch_c, 4, 19
8, 169860, Channel_aftertouch_c, 4, 22
8, 169872, Channel_aftertouch_c, 4, 24
8, 169880, Channel_aftertouch_c, 4, 27
8, 169892, Channel_aftertouch_c, 4, 29
8, 169904, Channel_aftertouch_c, 4, 32
8, 169916, Channel_aftertouch_c, 4, 33
8, 169928, Channel_aftertouch_c, 4, 34
8, 169936, Channel_aftertouch_c, 4, 35
8, 169960, Channel_aftertouch_c, 4, 36
8, 170004, Channel_aftertouch_c, 4, 36
8, 170016, Channel_aftertouch_c, 4, 37
8, 170048, Channel_aftertouch_c, 4, 34
8, 170056, Channel_aftertouch_c, 4, 32
8, 170072, Channel_aftertouch_c, 4, 27
8, 170080, Channel_aftertouch_c, 4, 23
8, 170092, Channel_aftertouch_c, 4, 8
8, 170104, Channel_aftertouch_c, 4, 0
8, 170112, Note_on_c, 4, 64, 73
8, 170124, Note_on_c, 4, 68, 0
8, 170128, Channel_aftertouch_c, 4, 48
8, 170136, Channel_aftertouch_c, 4, 55
8, 170148, Channel_aftertouch_c, 4, 64
8, 170160, Channel_aftertouch_c, 4, 66
8, 170172, Channel_aftertouch_c, 4, 67
8, 170192, Channel_aftertouch_c, 4, 63
8, 170204, Channel_aftertouch_c, 4, 58
8, 170216, Channel_aftertouch_c, 4, 37
8, 170224, Channel_aftertouch_c, 4, 0
8, 170240, Note_on_c, 4, 64, 0
8, 170292, Channel_aftertouch_c, 4, 46
8, 170304, Note_on_c, 4, 69, 100
8, 170304, Channel_aftertouch_c, 4, 15
8, 170316, Channel_aftertouch_c, 4, 24
8, 170328, Channel_aftertouch_c, 4, 1
8, 170336, Channel_aftertouch_c, 4, 0
8, 170496, Note_on_c, 4, 57, 104
8, 170540, Channel_aftertouch_c, 4, 30
8, 170552, Channel_aftertouch_c, 4, 45
8, 170564, Channel_aftertouch_c, 4, 51
8, 170576, Channel_aftertouch_c, 4, 52
8, 170588, Channel_aftertouch_c, 4, 46
8, 170596, Channel_aftertouch_c, 4, 37
8, 170608, Channel_aftertouch_c, 4, 27
8, 170620, Channel_aftertouch_c, 4, 17
8, 170632, Channel_aftertouch_c, 4, 9
8, 170644, Channel_aftertouch_c, 4, 0
8, 170688, Note_on_c, 4, 64, 76
8, 170688, Channel_aftertouch_c, 4, 2
8, 170692, Note_on_c, 4, 69, 0
8, 170704, Channel_aftertouch_c, 4, 56
8, 170712, Channel_aftertouch_c, 4, 69
8, 170724, Channel_aftertouch_c, 4, 70
8, 170756, Channel_aftertouch_c, 4, 67
8, 170768, Channel_aftertouch_c, 4, 65
8, 170780, Channel_aftertouch_c, 4, 64
8, 170792, Channel_aftertouch_c, 4, 62
8, 170800, Channel_aftertouch_c, 4, 55
8, 170812, Channel_aftertouch_c, 4, 32
8, 170824, Channel_aftertouch_c, 4, 9
8, 170856, Channel_aftertouch_c, 4, 11
8, 170868, Note_on_c, 4, 64, 0
8, 170876, Channel_aftertouch_c, 4, 12
8, 170880, Note_on_c, 4, 69, 99
8, 170888, Channel_aftertouch_c, 4, 37
8, 170900, Channel_aftertouch_c, 4, 37
8, 170912, Channel_aftertouch_c, 4, 59
8, 170924, Channel_aftertouch_c, 4, 60
8, 170936, Channel_aftertouch_c, 4, 61
8, 170944, Channel_aftertouch_c, 4, 59
8, 170956, Channel_aftertouch_c, 4, 56
8, 170968, Channel_aftertouch_c, 4, 52
8, 170980, Channel_aftertouch_c, 4, 46
8, 170992, Channel_aftertouch_c, 4, 39
8, 171004, Channel_aftertouch_c, 4, 30
8, 171012, Channel_aftertouch_c, 4, 15
8, 171024, Channel_aftertouch_c, 4, 0
8, 171032, Note_on_c, 4, 69, 0
8, 171056, Note_on_c, 4, 57, 0
8, 171068, Channel_aftertouch_c, 4, 10
8, 171072, Note_on_c, 4, 61, 101
8, 171080, Channel_aftertouch_c, 4, 0
8, 171256, Channel_aftertouch_c, 4, 22
8, 171264, Note_on_c, 4, 62, 93
8, 171268, Note_on_c, 4, 61, 0
8, 171272, Channel_aftertouch_c, 4, 62
8, 171284, Channel_aftertouch_c, 4, 83
8, 171296, Channel_aftertouch_c, 4, 89
8, 171304, Channel_aftertouch_c, 4, 90
8, 171320, Channel_aftertouch_c, 4, 87
8, 171328, Channel_aftertouch_c, 4, 83
8, 171340, Channel_aftertouch_c, 4, 80
8, 171372, Channel_aftertouch_c, 4, 82
8, 171384, Channel_aftertouch_c, 4, 83
8, 171416, Channel_aftertouch_c, 4, 79
8, 171428, Channel_aftertouch_c, 4, 66
8, 171440, Channel_aftertouch_c, 4, 19
8, 171448, Channel_aftertouch_c, 4, 19
8, 171456, Note_on_c, 4, 69, 81
8, 171464, Channel_aftertouch_c, 4, 54
8, 171468, Note_on_c, 4, 62, 0
8, 171476, Channel_aftertouch_c, 4, 57
8, 171488, Channel_aftertouch_c, 4, 59
8, 171496, Channel_aftertouch_c, 4, 59
8, 171520, Channel_aftertouch_c, 4, 57
8, 171532, Channel_aftertouch_c, 4, 55
8, 171552, Channel_aftertouch_c, 4, 55
8, 171564, Channel_aftertouch_c, 4, 54
8, 171576, Channel_aftertouch_c, 4, 52
8, 171588, Channel_aftertouch_c, 4, 50
8, 171600, Channel_aftertouch_c, 4, 48
8, 171612, Channel_aftertouch_c, 4, 72
8, 171624, Channel_aftertouch_c, 4, 76
8, 171648, Note_on_c, 4, 62, 77
8, 171648, Channel_aftertouch_c, 4, 74
8, 171656, Channel_aftertouch_c, 4, 76
8, 171668, Note_on_c, 4, 69, 0
8, 171668, Channel_aftertouch_c, 4, 78
8, 171680, Channel_aftertouch_c, 4, 80
8, 171692, Channel_aftertouch_c, 4, 81
8, 171712, Channel_aftertouch_c, 4, 77
8, 171724, Channel_aftertouch_c, 4, 73
8, 171736, Channel_aftertouch_c, 4, 68
8, 171748, Channel_aftertouch_c, 4, 66
8, 171760, Channel_aftertouch_c, 4, 64
8, 171772, Channel_aftertouch_c, 4, 61
8, 171780, Channel_aftertouch_c, 4, 52
8, 171792, Channel_aftertouch_c, 4, 48
8, 171804, Channel_aftertouch_c, 4, 47
8, 171816, Channel_aftertouch_c, 4, 46
8, 171828, Channel_aftertouch_c, 4, 16
8, 171840, Note_on_c, 4, 61, 101
8, 171840, Channel_aftertouch_c, 4, 21
8, 171852, Channel_aftertouch_c, 4, 0
8, 171920, Note_on_c, 4, 62, 0
8, 172032, Note_on_c, 4, 61, 0
8, 172032, Note_on_c, 4, 57, 96
8, 172224, Note_on_c, 4, 64, 73
8, 172356, Channel_aftertouch_c, 4, 3
8, 172376, Note_on_c, 4, 64, 0
8, 172376, Channel_aftertouch_c, 4, 0
8, 172416, Note_on_c, 4, 69, 66
8, 172464, Channel_aftertouch_c, 4, 15
8, 172480, Channel_aftertouch_c, 4, 18
8, 172500, Channel_aftertouch_c, 4, 16
8, 172512, Channel_aftertouch_c, 4, 12
8, 172520, Channel_aftertouch_c, 4, 2
8, 172536, Channel_aftertouch_c, 4, 0
8, 172608, Note_on_c, 4, 64, 51
8, 172624, Note_on_c, 4, 57, 0
8, 172632, Note_on_c, 4, 69, 0
8, 172756, Note_on_c, 4, 64, 0
8, 172800, Note_on_c, 4, 68, 100
8, 172808, Channel_aftertouch_c, 4, 26
8, 172820, Channel_aftertouch_c, 4, 14
8, 172832, Channel_aftertouch_c, 4, 31
8, 172840, Channel_aftertouch_c, 4, 36
8, 172852, Channel_aftertouch_c, 4, 38
8, 172876, Channel_aftertouch_c, 4, 33
8, 172888, Channel_aftertouch_c, 4, 27
8, 172896, Channel_aftertouch_c, 4, 22
8, 172908, Channel_aftertouch_c, 4, 19
8, 172932, Channel_aftertouch_c, 4, 22
8, 172944, Channel_aftertouch_c, 4, 24
8, 172952, Channel_aftertouch_c, 4, 27
8, 172964, Channel_aftertouch_c, 4, 29
8, 172976, Channel_aftertouch_c, 4, 32
8, 172988, Channel_aftertouch_c, 4, 33
8, 173000, Channel_aftertouch_c, 4, 34
8, 173008, Channel_aftertouch_c, 4, 35
8, 173032, Channel_aftertouch_c, 4, 36
8, 173076, Channel_aftertouch_c, 4, 36
8, 173088, Channel_aftertouch_c, 4, 37
8, 173120, Channel_aftertouch_c, 4, 34
8, 173128, Channel_aftertouch_c, 4, 32
8, 173144, Channel_aftertouch_c, 4, 27
8, 173152, Channel_aftertouch_c, 4, 23
8, 173164, Channel_aftertouch_c, 4, 8
8, 173176, Channel_aftertouch_c, 4, 0
8, 173184, Note_on_c, 4, 64, 63
8, 173196, Note_on_c, 4, 68, 0
8, 173200, Channel_aftertouch_c, 4, 48
8, 173208, Channel_aftertouch_c, 4, 55
8, 173220, Channel_aftertouch_c, 4, 64
8, 173232, Channel_aftertouch_c, 4, 66
8, 173244, Channel_aftertouch_c, 4, 67
8, 173264, Channel_aftertouch_c, 4, 63
8, 173276, Channel_aftertouch_c, 4, 58
8, 173288, Channel_aftertouch_c, 4, 37
8, 173296, Channel_aftertouch_c, 4, 0
8, 173312, Note_on_c, 4, 64, 0
8, 173364, Channel_aftertouch_c, 4, 46
8, 173376, Note_on_c, 4, 69, 86
8, 173376, Channel_aftertouch_c, 4, 15
8, 173388, Channel_aftertouch_c, 4, 24
8, 173400, Channel_aftertouch_c, 4, 1
8, 173408, Channel_aftertouch_c, 4, 0
8, 173568, Note_on_c, 4, 57, 88
8, 173612, Channel_aftertouch_c, 4, 30
8, 173624, Channel_aftertouch_c, 4, 45
8, 173636, Channel_aftertouch_c, 4, 51
8, 173648, Channel_aftertouch_c, 4, 52
8, 173660, Channel_aftertouch_c, 4, 46
8, 173668, Channel_aftertouch_c, 4, 37
8, 173680, Channel_aftertouch_c, 4, 27
8, 173692, Channel_aftertouch_c, 4, 17
8, 173704, Channel_aftertouch_c, 4, 9
8, 173716, Channel_aftertouch_c, 4, 0
8, 173760, Note_on_c, 4, 64, 63
8, 173760, Channel_aftertouch_c, 4, 2
8, 173764, Note_on_c, 4, 69, 0
8, 173776, Channel_aftertouch_c, 4, 56
8, 173784, Channel_aftertouch_c, 4, 69
8, 173796, Channel_aftertouch_c, 4, 70
8, 173828, Channel_aftertouch_c, 4, 67
8, 173840, Channel_aftertouch_c, 4, 65
8, 173852, Channel_aftertouch_c, 4, 64
8, 173864, Channel_aftertouch_c, 4, 62
8, 173872, Channel_aftertouch_c, 4, 55
8, 173884, Channel_aftertouch_c, 4, 32
8, 173896, Channel_aftertouch_c, 4, 9
8, 173928, Channel_aftertouch_c, 4, 11
8, 173940, Note_on_c, 4, 64, 0
8, 173948, Channel_aftertouch_c, 4, 12
8, 173952, Note_on_c, 4, 69, 83
8, 173960, Channel_aftertouch_c, 4, 37
8, 173972, Channel_aftertouch_c, 4, 37
8, 173984, Channel_aftertouch_c, 4, 59
8, 173996, Channel_aftertouch_c, 4, 60
8, 174008, Channel_aftertouch_c, 4, 61
8, 174016, Channel_aftertouch_c, 4, 59
8, 174028, Channel_aftertouch_c, 4, 56
8, 174040, Channel_aftertouch_c, 4, 52
8, 174052, Channel_aftertouch_c, 4, 46
8, 174064, Channel_aftertouch_c, 4, 39
8, 174076, Channel_aftertouch_c, 4, 30
8, 174084, Channel_aftertouch_c, 4, 15
8, 174096, Channel_aftertouch_c, 4, 0
8, 174104, Note_on_c, 4, 69, 0
8, 174128, Note_on_c, 4, 57, 0
8, 174140, Channel_aftertouch_c, 4, 10
8, 174144, Note_on_c, 4, 61, 85
8, 174152, Channel_aftertouch_c, 4, 0
8, 174328, Channel_aftertouch_c, 4, 22
8, 174336, Note_on_c, 4, 62, 77
8, 174340, Note_on_c, 4, 61, 0
8, 174344, Channel_aftertouch_c, 4, 62
8, 174356, Channel_aftertouch_c, 4, 83
8, 174368, Channel_aftertouch_c, 4, 89
8, 174376, Channel_aftertouch_c, 4, 90
8, 174392, Channel_aftertouch_c, 4, 87
8, 174400, Channel_aftertouch_c, 4, 83
8, 174412, Channel_aftertouch_c, 4, 80
8, 174444, Channel_aftertouch_c, 4, 82
8, 174456, Channel_aftertouch_c, 4, 83
8, 174488, Channel_aftertouch_c, 4, 79
8, 174500, Channel_aftertouch_c, 4, 66
8, 174512, Channel_aftertouch_c, 4, 19
8, 174520, Channel_aftertouch_c, 4, 19
8, 174528, Note_on_c, 4, 69, 68
8, 174536, Channel_aftertouch_c, 4, 54
8, 174540, Note_on_c, 4, 62, 0
8, 174548, Channel_aftertouch_c, 4, 57
8, 174560, Channel_aftertouch_c, 4, 59
8, 174568, Channel_aftertouch_c, 4, 59
8, 174592, Channel_aftertouch_c, 4, 57
8, 174604, Channel_aftertouch_c, 4, 55
8, 174624, Channel_aftertouch_c, 4, 55
8, 174636, Channel_aftertouch_c, 4, 54
8, 174648, Channel_aftertouch_c, 4, 52
8, 174660, Channel_aftertouch_c, 4, 50
8, 174672, Channel_aftertouch_c, 4, 48
8, 174684, Channel_aftertouch_c, 4, 72
8, 174696, Channel_aftertouch_c, 4, 76
8, 174720, Note_on_c, 4, 62, 64
8, 174720, Channel_aftertouch_c, 4, 74
8, 174728, Channel_aftertouch_c, 4, 76
8, 174740, Note_on_c, 4, 69, 0
8, 174740, Channel_aftertouch_c, 4, 78
8, 174752, Channel_aftertouch_c, 4, 80
8, 174764, Channel_aftertouch_c, 4, 81
8, 174784, Channel_aftertouch_c, 4, 77
8, 174796, Channel_aftertouch_c, 4, 73
8, 174808, Channel_aftertouch_c, 4, 68
8, 174820, Channel_aftertouch_c, 4, 66
8, 174832, Channel_aftertouch_c, 4, 64
8, 174844, Channel_aftertouch_c, 4, 61
8, 174852, Channel_aftertouch_c, 4, 52
8, 174864, Channel_aftertouch_c, 4, 48
8, 174876, Channel_aftertouch_c, 4, 47
8, 174888, Channel_aftertouch_c, 4, 46
8, 174900, Channel_aftertouch_c, 4, 16
8, 174912, Note_on_c, 4, 61, 84
8, 174912, Channel_aftertouch_c, 4, 21
8, 174924, Channel_aftertouch_c, 4, 0
8, 174992, Note_on_c, 4, 62, 0
8, 175104, Note_on_c, 4, 61, 0
8, 175104, Note_on_c, 4, 57, 80
8, 175296, Note_on_c, 4, 64, 60
8, 175428, Channel_aftertouch_c, 4, 3
8, 175448, Note_on_c, 4, 64, 0
8, 175448, Channel_aftertouch_c, 4, 0
8, 175488, Note_on_c, 4, 69, 54
8, 175536, Channel_aftertouch_c, 4, 15
8, 175552, Channel_aftertouch_c, 4, 18
8, 175572, Channel_aftertouch_c, 4, 16
8, 175584, Channel_aftertouch_c, 4, 12
8, 175592, Channel_aftertouch_c, 4, 2
8, 175608, Channel_aftertouch_c, 4, 0
8, 175680, Note_on_c, 4, 64, 42
8, 175696, Note_on_c, 4, 57, 0
8, 175704, Note_on_c, 4, 69, 0
8, 175828, Note_on_c, 4, 64, 0
8, 175872, Note_on_c, 4, 68, 83
8, 175880, Channel_aftertouch_c, 4, 26
8, 175892, Channel_aftertouch_c, 4, 14
8, 175904, Channel_aftertouch_c, 4, 31
8, 175912, Channel_aftertouch_c, 4, 36
8, 175924, Channel_aftertouch_c, 4, 38
8, 175948, Channel_aftertouch_c, 4, 33
8, 175960, Channel_aftertouch_c, 4, 27
8, 175968, Channel_aftertouch_c, 4, 22
8, 175980, Channel_aftertouch_c, 4, 19
8, 176004, Channel_aftertouch_c, 4, 22
8, 176016, Channel_aftertouch_c, 4, 24
8, 176024, Channel_aftertouch_c, 4, 27
8, 176036, Channel_aftertouch_c, 4, 29
8, 176048, Channel_aftertouch_c, 4, 32
8, 176060, Channel_aftertouch_c, 4, 33
8, 176072, Channel_aftertouch_c, 4, 34
8, 176080, Channel_aftertouch_c, 4, 35
8, 176104, Channel_aftertouch_c, 4, 36
8, 176148, Channel_aftertouch_c, 4, 36
8, 176160, Channel_aftertouch_c, 4, 37
8, 176192, Channel_aftertouch_c, 4, 34
8, 176200, Channel_aftertouch_c, 4, 32
8, 176216, Channel_aftertouch_c, 4, 27
8, 176224, Channel_aftertouch_c, 4, 23
8, 176236, Channel_aftertouch_c, 4, 8
8, 176248, Channel_aftertouch_c, 4, 0
8, 176256, Note_on_c, 4, 64, 52
8, 176268, Note_on_c, 4, 68, 0
8, 176272, Channel_aftertouch_c, 4, 48
8, 176280, Channel_aftertouch_c, 4, 55
8, 176292, Channel_aftertouch_c, 4, 64
8, 176304, Channel_aftertouch_c, 4, 66
8, 176316, Channel_aftertouch_c, 4, 67
8, 176336, Channel_aftertouch_c, 4, 63
8, 176348, Channel_aftertouch_c, 4, 58
8, 176360, Channel_aftertouch_c, 4, 37
8, 176368, Channel_aftertouch_c, 4, 0
8, 176384, Note_on_c, 4, 64, 0
8, 176436, Channel_aftertouch_c, 4, 46
8, 176448, Note_on_c, 4, 69, 71
8, 176448, Channel_aftertouch_c, 4, 15
8, 176460, Channel_aftertouch_c, 4, 24
8, 176472, Channel_aftertouch_c, 4, 1
8, 176480, Channel_aftertouch_c, 4, 0
8, 176640, Note_on_c, 4, 57, 72
8, 176684, Channel_aftertouch_c, 4, 30
8, 176696, Channel_aftertouch_c, 4, 45
8, 176708, Channel_aftertouch_c, 4, 51
8, 176720, Channel_aftertouch_c, 4, 52
8, 176732, Channel_aftertouch_c, 4, 46
8, 176740, Channel_aftertouch_c, 4, 37
8, 176752, Channel_aftertouch_c, 4, 27
8, 176764, Channel_aftertouch_c, 4, 17
8, 176776, Channel_aftertouch_c, 4, 9
8, 176788, Channel_aftertouch_c, 4, 0
8, 176832, Note_on_c, 4, 64, 52
8, 176832, Channel_aftertouch_c, 4, 2
8, 176836, Note_on_c, 4, 69, 0
8, 176848, Channel_aftertouch_c, 4, 56
8, 176856, Channel_aftertouch_c, 4, 69
8, 176868, Channel_aftertouch_c, 4, 70
8, 176900, Channel_aftertouch_c, 4, 67
8, 176912, Channel_aftertouch_c, 4, 65
8, 176924, Channel_aftertouch_c, 4, 64
8, 176936, Channel_aftertouch_c, 4, 62
8, 176944, Channel_aftertouch_c, 4, 55
8, 176956, Channel_aftertouch_c, 4, 32
8, 176968, Channel_aftertouch_c, 4, 9
8, 177000, Channel_aftertouch_c, 4, 11
8, 177012, Note_on_c, 4, 64, 0
8, 177020, Channel_aftertouch_c, 4, 12
8, 177024, Note_on_c, 4, 69, 68
8, 177032, Channel_aftertouch_c, 4, 37
8, 177044, Channel_aftertouch_c, 4, 37
8, 177056, Channel_aftertouch_c, 4, 59
8, 177068, Channel_aftertouch_c, 4, 60
8, 177080, Channel_aftertouch_c, 4, 61
8, 177088, Channel_aftertouch_c, 4, 59
8, 177100, Channel_aftertouch_c, 4, 56
8, 177112, Channel_aftertouch_c, 4, 52
8, 177124, Channel_aftertouch_c, 4, 46
8, 177136, Channel_aftertouch_c, 4, 39
8, 177148, Channel_aftertouch_c, 4, 30
8, 177156, Channel_aftertouch_c, 4, 15
8, 177168, Channel_aftertouch_c, 4, 0
8, 177176, Note_on_c, 4, 69, 0
8, 177200, Note_on_c, 4, 57, 0
8, 177212, Channel_aftertouch_c, 4, 10
8, 177216, Note_on_c, 4, 61, 69
8, 177224, Channel_aftertouch_c, 4, 0
8, 177400, Channel_aftertouch_c, 4, 22
8, 177408, Note_on_c, 4, 62, 63
8, 177412, Note_on_c, 4, 61, 0
8, 177416, Channel_aftertouch_c, 4, 62
8, 177428, Channel_aftertouch_c, 4, 83
8, 177440, Channel_aftertouch_c, 4, 89
8, 177448, Channel_aftertouch_c, 4, 90
8, 177464, Channel_aftertouch_c, 4, 87
8, 177472, Channel_aftertouch_c, 4, 83
8, 177484, Channel_aftertouch_c, 4, 80
8, 177516, Channel_aftertouch_c, 4, 82
8, 177528, Channel_aftertouch_c, 4, 83
8, 177560, Channel_aftertouch_c, 4, 79
8, 177572, Channel_aftertouch_c, 4, 66
8, 177584, Channel_aftertouch_c, 4, 19
8, 177592, Channel_aftertouch_c, 4, 19
8, 177600, Note_on_c, 4, 69, 55
8, 177608, Channel_aftertouch_c, 4, 54
8, 177612, Note_on_c, 4, 62, 0
8, 177620, Channel_aftertouch_c, 4, 57
8, 177632, Channel_aftertouch_c, 4, 59
8, 177640, Channel_aftertouch_c, 4, 59
8, 177664, Channel_aftertouch_c, 4, 57
8, 177676, Channel_aftertouch_c, 4, 55
8, 177696, Channel_aftertouch_c, 4, 55
8, 177708, Channel_aftertouch_c, 4, 54
8, 177720, Channel_aftertouch_c, 4, 52
8, 177732, Channel_aftertouch_c, 4, 50
8, 177744, Channel_aftertouch_c, 4, 48
8, 177756, Channel_aftertouch_c, 4, 72
8, 177768, Channel_aftertouch_c, 4, 76
8, 177792, Note_on_c, 4, 62, 52
8, 177792, Channel_aftertouch_c, 4, 74
8, 177800, Channel_aftertouch_c, 4, 76
8, 177812, Note_on_c, 4, 69, 0
8, 177812, Channel_aftertouch_c, 4, 78
8, 177824, Channel_aftertouch_c, 4, 80
8, 177836, Channel_aftertouch_c, 4, 81
8, 177856, Channel_aftertouch_c, 4, 77
8, 177868, Channel_aftertouch_c, 4, 73
8, 177880, Channel_aftertouch_c, 4, 68
8, 177892, Channel_aftertouch_c, 4, 66
8, 177904, Channel_aftertouch_c, 4, 64
8, 177916, Channel_aftertouch_c, 4, 61
8, 177924, Channel_aftertouch_c, 4, 52
8, 177936, Channel_aftertouch_c, 4, 48
8, 177948, Channel_aftertouch_c, 4, 47
8, 177960, Channel_aftertouch_c, 4, 46
8, 177972, Channel_aftertouch_c, 4, 16
8, 177984, Note_on_c, 4, 61, 68
8, 177984, Channel_aftertouch_c, 4, 21
8, 177996, Channel_aftertouch_c, 4, 0
8, 178064, Note_on_c, 4, 62, 0
8, 178176, Note_on_c, 4, 61, 0
8, 178176, Note_on_c, 4, 57, 64
8, 178368, Note_on_c, 4, 64, 48
8, 178500, Channel_aftertouch_c, 4, 3
8, 178520, Note_on_c, 4, 64, 0
8, 178520, Channel_aftertouch_c, 4, 0
8, 178560, Note_on_c, 4, 69, 43
8, 178608, Channel_aftertouch_c, 4, 15
8, 178624, Channel_aftertouch_c, 4, 18
8, 178644, Channel_aftertouch_c, 4, 16
8, 178656, Channel_aftertouch_c, 4, 12
8, 178664, Channel_aftertouch_c, 4, 2
8, 178680, Channel_aftertouch_c, 4, 0
8, 178752, Note_on_c, 4, 64, 33
8, 178768, Note_on_c, 4, 57, 0
8, 178776, Note_on_c, 4, 69, 0
8, 178900, Note_on_c, 4, 64, 0
8, 178944, Note_on_c, 4, 68, 65
8, 178952, Channel_aftertouch_c, 4, 26
8, 178964, Channel_aftertouch_c, 4, 14
8, 178976, Channel_aftertouch_c, 4, 31
8, 178984, Channel_aftertouch_c, 4, 36
8, 178996, Channel_aftertouch_c, 4, 38
8, 179020, Channel_aftertouch_c, 4, 33
8, 179032, Channel_aftertouch_c, 4, 27
8, 179040, Channel_aftertouch_c, 4, 22
8, 179052, Channel_aftertouch_c, 4, 19
8, 179076, Channel_aftertouch_c, 4, 22
8, 179088, Channel_aftertouch_c, 4, 24
8, 179096, Channel_aftertouch_c, 4, 27
8, 179108, Channel_aftertouch_c, 4, 29
8, 179120, Channel_aftertouch_c, 4, 32
8, 179132, Channel_aftertouch_c, 4, 33
8, 179144, Channel_aftertouch_c, 4, 34
8, 179152, Channel_aftertouch_c, 4, 35
8, 179176, Channel_aftertouch_c, 4, 36
8, 179220, Channel_aftertouch_c, 4, 36
8, 179232, Channel_aftertouch_c, 4, 37
8, 179264, Channel_aftertouch_c, 4, 34
8, 179272, Channel_aftertouch_c, 4, 32
8, 179288, Channel_aftertouch_c, 4, 27
8, 179296, Channel_aftertouch_c, 4, 23
8, 179308, Channel_aftertouch_c, 4, 8
8, 179320, Channel_aftertouch_c, 4, 0
8, 179328, Note_on_c, 4, 64, 40
8, 179340, Note_on_c, 4, 68, 0
8, 179344, Channel_aftertouch_c, 4, 48
8, 179352, Channel_aftertouch_c, 4, 55
8, 179364, Channel_aftertouch_c, 4, 64
8, 179376, Channel_aftertouch_c, 4, 66
8, 179388, Channel_aftertouch_c, 4, 67
8, 179408, Channel_aftertouch_c, 4, 63
8, 179420, Channel_aftertouch_c, 4, 58
8, 179432, Channel_aftertouch_c, 4, 37
8, 179440, Channel_aftertouch_c, 4, 0
8, 179456, Note_on_c, 4, 64, 0
8, 179508, Channel_aftertouch_c, 4, 46
8, 179520, Note_on_c, 4, 69, 55
8, 179520, Channel_aftertouch_c, 4, 15
8, 179532, Channel_aftertouch_c, 4, 24
8, 179544, Channel_aftertouch_c, 4, 1
8, 179552, Channel_aftertouch_c, 4, 0
8, 179712, Note_on_c, 4, 57, 56
8, 179756, Channel_aftertouch_c, 4, 30
8, 179768, Channel_aftertouch_c, 4, 45
8, 179780, Channel_aftertouch_c, 4, 51
8, 179792, Channel_aftertouch_c, 4, 52
8, 179804, Channel_aftertouch_c, 4, 46
8, 179812, Channel_aftertouch_c, 4, 37
8, 179824, Channel_aftertouch_c, 4, 27
8, 179836, Channel_aftertouch_c, 4, 17
8, 179848, Channel_aftertouch_c, 4, 9
8, 179860, Channel_aftertouch_c, 4, 0
8, 179904, Note_on_c, 4, 64, 40
8, 179904, Channel_aftertouch_c, 4, 2
8, 179908, Note_on_c, 4, 69, 0
8, 179920, Channel_aftertouch_c, 4, 56
8, 179928, Channel_aftertouch_c, 4, 69
8, 179940, Channel_aftertouch_c, 4, 70
8, 179972, Channel_aftertouch_c, 4, 67
8, 179984, Channel_aftertouch_c, 4, 65
8, 179996, Channel_aftertouch_c, 4, 64
8, 180008, Channel_aftertouch_c, 4, 62
8, 180016, Channel_aftertouch_c, 4, 55
8, 180028, Channel_aftertouch_c, 4, 32
8, 180040, Channel_aftertouch_c, 4, 9
8, 180072, Channel_aftertouch_c, 4, 11
8, 180084, Note_on_c, 4, 64, 0
8, 180092, Channel_aftertouch_c, 4, 12
8, 180096, Note_on_c, 4, 69, 52
8, 180104, Channel_aftertouch_c, 4, 37
8, 180116, Channel_aftertouch_c, 4, 37
8, 180128, Channel_aftertouch_c, 4, 59
8, 180140, Channel_aftertouch_c, 4, 60
8, 180152, Channel_aftertouch_c, 4, 61
8, 180160, Channel_aftertouch_c, 4, 59
8, 180172, Channel_aftertouch_c, 4, 56
8, 180184, Channel_aftertouch_c, 4, 52
8, 180196, Channel_aftertouch_c, 4, 46
8, 180208, Channel_aftertouch_c, 4, 39
8, 180220, Channel_aftertouch_c, 4, 30
8, 180228, Channel_aftertouch_c, 4, 15
8, 180240, Channel_aftertouch_c, 4, 0
8, 180248, Note_on_c, 4, 69, 0
8, 180272, Note_on_c, 4, 57, 0
8, 180284, Channel_aftertouch_c, 4, 10
8, 180288, Note_on_c, 4, 61, 53
8, 180296, Channel_aftertouch_c, 4, 0
8, 180472, Channel_aftertouch_c, 4, 22
8, 180480, Note_on_c, 4, 62, 48
8, 180484, Note_on_c, 4, 61, 0
8, 180488, Channel_aftertouch_c, 4, 62
8, 180500, Channel_aftertouch_c, 4, 83
8, 180512, Channel_aftertouch_c, 4, 89
8, 180520, Channel_aftertouch_c, 4, 90
8, 180536, Channel_aftertouch_c, 4, 87
8, 180544, Channel_aftertouch_c, 4, 83
8, 180556, Channel_aftertouch_c, 4, 80
8, 180588, Channel_aftertouch_c, 4, 82
8, 180600, Channel_aftertouch_c, 4, 83
8, 180632, Channel_aftertouch_c, 4, 79
8, 180644, Channel_aftertouch_c, 4, 66
8, 180656, Channel_aftertouch_c, 4, 19
8, 180664, Channel_aftertouch_c, 4, 19
8, 180672, Note_on_c, 4, 69, 42
8, 180680, Channel_aftertouch_c, 4, 54
8, 180684, Note_on_c, 4, 62, 0
8, 180692, Channel_aftertouch_c, 4, 57
8, 180704, Channel_aftertouch_c, 4, 59
8, 180712, Channel_aftertouch_c, 4, 59
8, 180736, Channel_aftertouch_c, 4, 57
8, 180748, Channel_aftertouch_c, 4, 55
8, 180768, Channel_aftertouch_c, 4, 55
8, 180780, Channel_aftertouch_c, 4, 54
8, 180792, Channel_aftertouch_c, 4, 52
8, 180804, Channel_aftertouch_c, 4, 50
8, 180816, Channel_aftertouch_c, 4, 48
8, 180828, Channel_aftertouch_c, 4, 72
8, 180840, Channel_aftertouch_c, 4, 76
8, 180864, Note_on_c, 4, 62, 40
8, 180864, Channel_aftertouch_c, 4, 74
8, 180872, Channel_aftertouch_c, 4, 76
8, 180884, Note_on_c, 4, 69, 0
8, 180884, Channel_aftertouch_c, 4, 78
8, 180896, Channel_aftertouch_c, 4, 80
8, 180908, Channel_aftertouch_c, 4, 81
8, 180928, Channel_aftertouch_c, 4, 77
8, 180940, Channel_aftertouch_c, 4, 73
8, 180952, Channel_aftertouch_c, 4, 68
8, 180964, Channel_aftertouch_c, 4, 66
8, 180976, Channel_aftertouch_c, 4, 64
8, 180988, Channel_aftertouch_c, 4, 61
8, 180996, Channel_aftertouch_c, 4, 52
8, 181008, Channel_aftertouch_c, 4, 48
8, 181020, Channel_aftertouch_c, 4, 47
8, 181032, Channel_aftertouch_c, 4, 46
8, 181044, Channel_aftertouch_c, 4, 16
8, 181056, Note_on_c, 4, 61, 51
8, 181056, Channel_aftertouch_c, 4, 21
8, 181068, Channel_aftertouch_c, 4, 0
8, 181136, Note_on_c, 4, 62, 0
8, 181248, Note_on_c, 4, 61, 0
8, 181248, Note_on_c, 4, 57, 48
8, 181440, Note_on_c, 4, 64, 36
8, 181572, Channel_aftertouch_c, 4, 3
8, 181592, Note_on_c, 4, 64, 0
8, 181592, Channel_aftertouch_c, 4, 0
8, 181632, Note_on_c, 4, 69, 32
8, 181680, Channel_aftertouch_c, 4, 15
8, 181696, Channel_aftertouch_c, 4, 18
8, 181716, Channel_aftertouch_c, 4, 16
8, 181728, Channel_aftertouch_c, 4, 12
8, 181736, Channel_aftertouch_c, 4, 2
8, 181752, Channel_aftertouch_c, 4, 0
8, 181824, Note_on_c, 4, 64, 25
8, 181840, Note_on_c, 4, 57, 0
8, 181848, Note_on_c, 4, 69, 0
8, 181972, Note_on_c, 4, 64, 0
8, 182016, Note_on_c, 4, 68, 48
8, 182024, Channel_aftertouch_c, 4, 26
8, 182036, Channel_aftertouch_c, 4, 14
8, 182048, Channel_aftertouch_c, 4, 31
8, 182056, Channel_aftertouch_c, 4, 36
8, 182068, Channel_aftertouch_c, 4, 38
8, 182092, Channel_aftertouch_c, 4, 33
8, 182104, Channel_aftertouch_c, 4, 27
8, 182112, Channel_aftertouch_c, 4, 22
8, 182124, Channel_aftertouch_c, 4, 19
8, 182148, Channel_aftertouch_c, 4, 22
8, 182160, Channel_aftertouch_c, 4, 24
8, 182168, Channel_aftertouch_c, 4, 27
8, 182180, Channel_aftertouch_c, 4, 29
8, 182192, Channel_aftertouch_c, 4, 32
8, 182204, Channel_aftertouch_c, 4, 33
8, 182216, Channel_aftertouch_c, 4, 34
8, 182224, Channel_aftertouch_c, 4, 35
8, 182248, Channel_aftertouch_c, 4, 36
8, 182292, Channel_aftertouch_c, 4, 36
8, 182304, Channel_aftertouch_c, 4, 37
8, 182336, Channel_aftertouch_c, 4, 34
8, 182344, Channel_aftertouch_c, 4, 32
8, 182360, Channel_aftertouch_c, 4, 27
8, 182368, Channel_aftertouch_c, 4, 23
8, 182380, Channel_aftertouch_c, 4, 8
8, 182392, Channel_aftertouch_c, 4, 0
8, 182400, Note_on_c, 4, 64, 29
8, 182412, Note_on_c, 4, 68, 0
8, 182416, Channel_aftertouch_c, 4, 48
8, 182424, Channel_aftertouch_c, 4, 55
8, 182436, Channel_aftertouch_c, 4, 64
8, 182448, Channel_aftertouch_c, 4, 66
8, 182460, Channel_aftertouch_c, 4, 67
8, 182480, Channel_aftertouch_c, 4, 63
8, 182492, Channel_aftertouch_c, 4, 58
8, 182504, Channel_aftertouch_c, 4, 37
8, 182512, Channel_aftertouch_c, 4, 0
8, 182528, Note_on_c, 4, 64, 0
8, 182580, Channel_aftertouch_c, 4, 46
8, 182592, Note_on_c, 4, 69, 40
8, 182592, Channel_aftertouch_c, 4, 15
8, 182604, Channel_aftertouch_c, 4, 24
8, 182616, Channel_aftertouch_c, 4, 1
8, 182624, Channel_aftertouch_c, 4, 0
8, 182784, Note_on_c, 4, 57, 40
8, 182828, Channel_aftertouch_c, 4, 30
8, 182840, Channel_aftertouch_c, 4, 45
8, 182852, Channel_aftertouch_c, 4, 51
8, 182864, Channel_aftertouch_c, 4, 52
8, 182876, Channel_aftertouch_c, 4, 46
8, 182884, Channel_aftertouch_c, 4, 37
8, 182896, Channel_aftertouch_c, 4, 27
8, 182908, Channel_aftertouch_c, 4, 17
8, 182920, Channel_aftertouch_c, 4, 9
8, 182932, Channel_aftertouch_c, 4, 0
8, 182976, Note_on_c, 4, 64, 28
8, 182976, Channel_aftertouch_c, 4, 2
8, 182980, Note_on_c, 4, 69, 0
8, 182992, Channel_aftertouch_c, 4, 56
8, 183000, Channel_aftertouch_c, 4, 69
8, 183012, Channel_aftertouch_c, 4, 70
8, 183044, Channel_aftertouch_c, 4, 67
8, 183056, Channel_aftertouch_c, 4, 65
8, 183068, Channel_aftertouch_c, 4, 64
8, 183080, Channel_aftertouch_c, 4, 62
8, 183088, Channel_aftertouch_c, 4, 55
8, 183100, Channel_aftertouch_c, 4, 32
8, 183112, Channel_aftertouch_c, 4, 9
8, 183144, Channel_aftertouch_c, 4, 11
8, 183156, Note_on_c, 4, 64, 0
8, 183164, Channel_aftertouch_c, 4, 12
8, 183168, Note_on_c, 4, 69, 37
8, 183176, Channel_aftertouch_c, 4, 37
8, 183188, Channel_aftertouch_c, 4, 37
8, 183200, Channel_aftertouch_c, 4, 59
8, 183212, Channel_aftertouch_c, 4, 60
8, 183224, Channel_aftertouch_c, 4, 61
8, 183232, Channel_aftertouch_c, 4, 59
8, 183244, Channel_aftertouch_c, 4, 56
8, 183256, Channel_aftertouch_c, 4, 52
8, 183268, Channel_aftertouch_c, 4, 46
8, 183280, Channel_aftertouch_c, 4, 39
8, 183292, Channel_aftertouch_c, 4, 30
8, 183300, Channel_aftertouch_c, 4, 15
8, 183312, Channel_aftertouch_c, 4, 0
8, 183320, Note_on_c, 4, 69, 0
8, 183344, Note_on_c, 4, 57, 0
8, 183356, Channel_aftertouch_c, 4, 10
8, 183360, Note_on_c, 4, 61, 37
8, 183368, Channel_aftertouch_c, 4, 0
8, 183544, Channel_aftertouch_c, 4, 22
8, 183552, Note_on_c, 4, 62, 33
8, 183556, Note_on_c, 4, 61, 0
8, 183560, Channel_aftertouch_c, 4, 62
8, 183572, Channel_aftertouch_c, 4, 83
8, 183584, Channel_aftertouch_c, 4, 89
8, 183592, Channel_aftertouch_c, 4, 90
8, 183608, Channel_aftertouch_c, 4, 87
8, 183616, Channel_aftertouch_c, 4, 83
8, 183628, Channel_aftertouch_c, 4, 80
8, 183660, Channel_aftertouch_c, 4, 82
8, 183672, Channel_aftertouch_c, 4, 83
8, 183704, Channel_aftertouch_c, 4, 79
8, 183716, Channel_aftertouch_c, 4, 66
8, 183728, Channel_aftertouch_c, 4, 19
8, 183736, Channel_aftertouch_c, 4, 19
8, 183744, Note_on_c, 4, 69, 28
8, 183752, Channel_aftertouch_c, 4, 54
8, 183756, Note_on_c, 4, 62, 0
8, 183764, Channel_aftertouch_c, 4, 57
8, 183776, Channel_aftertouch_c, 4, 59
8, 183784, Channel_aftertouch_c, 4, 59
8, 183808, Channel_aftertouch_c, 4, 57
8, 183820, Channel_aftertouch_c, 4, 55
8, 183840, Channel_aftertouch_c, 4, 55
8, 183852, Channel_aftertouch_c, 4, 54
8, 183864, Channel_aftertouch_c, 4, 52
8, 183876, Channel_aftertouch_c, 4, 50
8, 183888, Channel_aftertouch_c, 4, 48
8, 183900, Channel_aftertouch_c, 4, 72
8, 183912, Channel_aftertouch_c, 4, 76
8, 183936, Note_on_c, 4, 62, 27
8, 183936, Channel_aftertouch_c, 4, 74
8, 183944, Channel_aftertouch_c, 4, 76
8, 183956, Note_on_c, 4, 69, 0
8, 183956, Channel_aftertouch_c, 4, 78
8, 183968, Channel_aftertouch_c, 4, 80
8, 183980, Channel_aftertouch_c, 4, 81
8, 184000, Channel_aftertouch_c, 4, 77
8, 184012, Channel_aftertouch_c, 4, 73
8, 184024, Channel_aftertouch_c, 4, 68
8, 184036, Channel_aftertouch_c, 4, 66
8, 184048, Channel_aftertouch_c, 4, 64
8, 184060, Channel_aftertouch_c, 4, 61
8, 184068, Channel_aftertouch_c, 4, 52
8, 184080, Channel_aftertouch_c, 4, 48
8, 184092, Channel_aftertouch_c, 4, 47
8, 184104, Channel_aftertouch_c, 4, 46
8, 184116, Channel_aftertouch_c, 4, 16
8, 184128, Note_on_c, 4, 61, 34
8, 184128, Channel_aftertouch_c, 4, 21
8, 184140, Channel_aftertouch_c, 4, 0
8, 184208, Note_on_c, 4, 62, 0
8, 184320, Note_on_c, 4, 61, 0
8, 184320, Note_on_c, 4, 57, 32
8, 184512, Note_on_c, 4, 64, 24
8, 184644, Channel_aftertouch_c, 4, 3
8, 184664, Note_on_c, 4, 64, 0
8, 184664, Channel_aftertouch_c, 4, 0
8, 184704, Note_on_c, 4, 69, 21
8, 184752, Channel_aftertouch_c, 4, 15
8, 184768, Channel_aftertouch_c, 4, 18
8, 184788, Channel_aftertouch_c, 4, 16
8, 184800, Channel_aftertouch_c, 4, 12
8, 184808, Channel_aftertouch_c, 4, 2
8, 184824, Channel_aftertouch_c, 4, 0
8, 184896, Note_on_c, 4, 64, 15
8, 184912, Note_on_c, 4, 57, 0
8, 184920, Note_on_c, 4, 69, 0
8, 185044, Note_on_c, 4, 64, 0
8, 185088, Note_on_c, 4, 68, 30
8, 185096, Channel_aftertouch_c, 4, 26
8, 185108, Channel_aftertouch_c, 4, 14
8, 185120, Channel_aftertouch_c, 4, 31
8, 185128, Channel_aftertouch_c, 4, 36
8, 185140, Channel_aftertouch_c, 4, 38
8, 185164, Channel_aftertouch_c, 4, 33
8, 185176, Channel_aftertouch_c, 4, 27
8, 185184, Channel_aftertouch_c, 4, 22
8, 185196, Channel_aftertouch_c, 4, 19
8, 185220, Channel_aftertouch_c, 4, 22
8, 185232, Channel_aftertouch_c, 4, 24
8, 185240, Channel_aftertouch_c, 4, 27
8, 185252, Channel_aftertouch_c, 4, 29
8, 185264, Channel_aftertouch_c, 4, 32
8, 185276, Channel_aftertouch_c, 4, 33
8, 185288, Channel_aftertouch_c, 4, 34
8, 185296, Channel_aftertouch_c, 4, 35
8, 185320, Channel_aftertouch_c, 4, 36
8, 185364, Channel_aftertouch_c, 4, 36
8, 185376, Channel_aftertouch_c, 4, 37
8, 185408, Channel_aftertouch_c, 4, 34
8, 185416, Channel_aftertouch_c, 4, 32
8, 185432, Channel_aftertouch_c, 4, 27
8, 185440, Channel_aftertouch_c, 4, 23
8, 185452, Channel_aftertouch_c, 4, 8
8, 185464, Channel_aftertouch_c, 4, 0
8, 185472, Note_on_c, 4, 64, 18
8, 185484, Note_on_c, 4, 68, 0
8, 185488, Channel_aftertouch_c, 4, 48
8, 185496, Channel_aftertouch_c, 4, 55
8, 185508, Channel_aftertouch_c, 4, 64
8, 185520, Channel_aftertouch_c, 4, 66
8, 185532, Channel_aftertouch_c, 4, 67
8, 185552, Channel_aftertouch_c, 4, 63
8, 185564, Channel_aftertouch_c, 4, 58
8, 185576, Channel_aftertouch_c, 4, 37
8, 185584, Channel_aftertouch_c, 4, 0
8, 185600, Note_on_c, 4, 64, 0
8, 185652, Channel_aftertouch_c, 4, 46
8, 185664, Note_on_c, 4, 69, 25
8, 185664, Channel_aftertouch_c, 4, 15
8, 185676, Channel_aftertouch_c, 4, 24
8, 185688, Channel_aftertouch_c, 4, 1
8, 185696, Channel_aftertouch_c, 4, 0
8, 185852, Note_on_c, 4, 57, 24
8, 185896, Channel_aftertouch_c, 4, 30
8, 185908, Channel_aftertouch_c, 4, 45
8, 185920, Channel_aftertouch_c, 4, 51
8, 185932, Channel_aftertouch_c, 4, 52
8, 185944, Channel_aftertouch_c, 4, 46
8, 185952, Channel_aftertouch_c, 4, 37
8, 185964, Channel_aftertouch_c, 4, 27
8, 185976, Channel_aftertouch_c, 4, 17
8, 185988, Channel_aftertouch_c, 4, 9
8, 186000, Channel_aftertouch_c, 4, 0
8, 186044, Note_on_c, 4, 64, 17
8, 186044, Channel_aftertouch_c, 4, 2
8, 186048, Note_on_c, 4, 69, 0
8, 186060, Channel_aftertouch_c, 4, 56
8, 186068, Channel_aftertouch_c, 4, 69
8, 186080, Channel_aftertouch_c, 4, 70
8, 186112, Channel_aftertouch_c, 4, 67
8, 186124, Channel_aftertouch_c, 4, 65
8, 186136, Channel_aftertouch_c, 4, 64
8, 186148, Channel_aftertouch_c, 4, 62
8, 186156, Channel_aftertouch_c, 4, 55
8, 186168, Channel_aftertouch_c, 4, 32
8, 186180, Channel_aftertouch_c, 4, 9
8, 186212, Channel_aftertouch_c, 4, 11
8, 186224, Note_on_c, 4, 64, 0
8, 186232, Channel_aftertouch_c, 4, 12
8, 186236, Note_on_c, 4, 69, 22
8, 186244, Channel_aftertouch_c, 4, 37
8, 186256, Channel_aftertouch_c, 4, 37
8, 186268, Channel_aftertouch_c, 4, 59
8, 186280, Channel_aftertouch_c, 4, 60
8, 186292, Channel_aftertouch_c, 4, 61
8, 186300, Channel_aftertouch_c, 4, 59
8, 186312, Channel_aftertouch_c, 4, 56
8, 186324, Channel_aftertouch_c, 4, 52
8, 186336, Channel_aftertouch_c, 4, 46
8, 186348, Channel_aftertouch_c, 4, 39
8, 186360, Channel_aftertouch_c, 4, 30
8, 186368, Channel_aftertouch_c, 4, 15
8, 186380, Channel_aftertouch_c, 4, 0
8, 186388, Note_on_c, 4, 69, 0
8, 186412, Note_on_c, 4, 57, 0
8, 186424, Channel_aftertouch_c, 4, 10
8, 186428, Note_on_c, 4, 61, 21
8, 186436, Channel_aftertouch_c, 4, 0
8, 186612, Channel_aftertouch_c, 4, 22
8, 186620, Note_on_c, 4, 62, 19
8, 186624, Note_on_c, 4, 61, 0
8, 186628, Channel_aftertouch_c, 4, 62
8, 186640, Channel_aftertouch_c, 4, 83
8, 186652, Channel_aftertouch_c, 4, 89
8, 186660, Channel_aftertouch_c, 4, 90
8, 186676, Channel_aftertouch_c, 4, 87
8, 186684, Channel_aftertouch_c, 4, 83
8, 186696, Channel_aftertouch_c, 4, 80
8, 186728, Channel_aftertouch_c, 4, 82
8, 186740, Channel_aftertouch_c, 4, 83
8, 186772, Channel_aftertouch_c, 4, 79
8, 186784, Channel_aftertouch_c, 4, 66
8, 186796, Channel_aftertouch_c, 4, 19
8, 186804, Channel_aftertouch_c, 4, 19
8, 186812, Note_on_c, 4, 69, 16
8, 186820, Channel_aftertouch_c, 4, 54
8, 186824, Note_on_c, 4, 62, 0
8, 186832, Channel_aftertouch_c, 4, 57
8, 186844, Channel_aftertouch_c, 4, 59
8, 186852, Channel_aftertouch_c, 4, 59
8, 186876, Channel_aftertouch_c, 4, 57
8, 186888, Channel_aftertouch_c, 4, 55
8, 186908, Channel_aftertouch_c, 4, 55
8, 186920, Channel_aftertouch_c, 4, 54
8, 186932, Channel_aftertouch_c, 4, 52
8, 186944, Channel_aftertouch_c, 4, 50
8, 186956, Channel_aftertouch_c, 4, 48
8, 186968, Channel_aftertouch_c, 4, 72
8, 186980, Channel_aftertouch_c, 4, 76
8, 187004, Note_on_c, 4, 62, 14
8, 187004, Channel_aftertouch_c, 4, 74
8, 187012, Channel_aftertouch_c, 4, 76
8, 187024, Note_on_c, 4, 69, 0
8, 187024, Channel_aftertouch_c, 4, 78
8, 187036, Channel_aftertouch_c, 4, 80
8, 187048, Channel_aftertouch_c, 4, 81
8, 187068, Channel_aftertouch_c, 4, 77
8, 187080, Channel_aftertouch_c, 4, 73
8, 187092, Channel_aftertouch_c, 4, 68
8, 187104, Channel_aftertouch_c, 4, 66
8, 187116, Channel_aftertouch_c, 4, 64
8, 187128, Channel_aftertouch_c, 4, 61
8, 187136, Channel_aftertouch_c, 4, 52
8, 187148, Channel_aftertouch_c, 4, 48
8, 187160, Channel_aftertouch_c, 4, 47
8, 187172, Channel_aftertouch_c, 4, 46
8, 187184, Channel_aftertouch_c, 4, 16
8, 187196, Note_on_c, 4, 61, 18
8, 187196, Channel_aftertouch_c, 4, 21
8, 187208, Channel_aftertouch_c, 4, 0
8, 187276, Note_on_c, 4, 62, 0
8, 187388, Note_on_c, 4, 61, 0
8, 187388, Note_on_c, 4, 57, 16
8, 187580, Note_on_c, 4, 64, 12
8, 187712, Channel_aftertouch_c, 4, 3
8, 187732, Note_on_c, 4, 64, 0
8, 187732, Channel_aftertouch_c, 4, 0
8, 187772, Note_on_c, 4, 69, 10
8, 187820, Channel_aftertouch_c, 4, 15
8, 187836, Channel_aftertouch_c, 4, 18
8, 187856, Channel_aftertouch_c, 4, 16
8, 187868, Channel_aftertouch_c, 4, 12
8, 187876, Channel_aftertouch_c, 4, 2
8, 187892, Channel_aftertouch_c, 4, 0
8, 187964, Note_on_c, 4, 64, 7
8, 187980, Note_on_c, 4, 57, 0
8, 187988, Note_on_c, 4, 69, 0
8, 188112, Note_on_c, 4, 64, 0
8, 188156, Note_on_c, 4, 68, 13
8, 188164, Channel_aftertouch_c, 4, 26
8, 188176, Channel_aftertouch_c, 4, 14
8, 188188, Channel_aftertouch_c, 4, 31
8, 188196, Channel_aftertouch_c, 4, 36
8, 188208, Channel_aftertouch_c, 4, 38
8, 188232, Channel_aftertouch_c, 4, 33
8, 188244, Channel_aftertouch_c, 4, 27
8, 188252, Channel_aftertouch_c, 4, 22
8, 188264, Channel_aftertouch_c, 4, 19
8, 188288, Channel_aftertouch_c, 4, 22
8, 188300, Channel_aftertouch_c, 4, 24
8, 188308, Channel_aftertouch_c, 4, 27
8, 188320, Channel_aftertouch_c, 4, 29
8, 188332, Channel_aftertouch_c, 4, 32
8, 188344, Channel_aftertouch_c, 4, 33
8, 188356, Channel_aftertouch_c, 4, 34
8, 188364, Channel_aftertouch_c, 4, 35
8, 188388, Channel_aftertouch_c, 4, 36
8, 188432, Channel_aftertouch_c, 4, 36
8, 188444, Channel_aftertouch_c, 4, 37
8, 188476, Channel_aftertouch_c, 4, 34
8, 188484, Channel_aftertouch_c, 4, 32
8, 188500, Channel_aftertouch_c, 4, 27
8, 188508, Channel_aftertouch_c, 4, 23
8, 188520, Channel_aftertouch_c, 4, 8
8, 188532, Channel_aftertouch_c, 4, 0
8, 188540, Note_on_c, 4, 64, 7
8, 188552, Note_on_c, 4, 68, 0
8, 188556, Channel_aftertouch_c, 4, 48
8, 188564, Channel_aftertouch_c, 4, 55
8, 188576, Channel_aftertouch_c, 4, 64
8, 188588, Channel_aftertouch_c, 4, 66
8, 188600, Channel_aftertouch_c, 4, 67
8, 188620, Channel_aftertouch_c, 4, 63
8, 188632, Channel_aftertouch_c, 4, 58
8, 188644, Channel_aftertouch_c, 4, 37
8, 188652, Channel_aftertouch_c, 4, 0
8, 188668, Note_on_c, 4, 64, 0
8, 188720, Channel_aftertouch_c, 4, 46
8, 188732, Note_on_c, 4, 69, 9
8, 188732, Channel_aftertouch_c, 4, 15
8, 188744, Channel_aftertouch_c, 4, 24
8, 188756, Channel_aftertouch_c, 4, 1
8, 188764, Channel_aftertouch_c, 4, 0
8, 188924, Note_on_c, 4, 57, 8
8, 188968, Channel_aftertouch_c, 4, 30
8, 188980, Channel_aftertouch_c, 4, 45
8, 188992, Channel_aftertouch_c, 4, 51
8, 189004, Channel_aftertouch_c, 4, 52
8, 189016, Channel_aftertouch_c, 4, 46
8, 189024, Channel_aftertouch_c, 4, 37
8, 189036, Channel_aftertouch_c, 4, 27
8, 189048, Channel_aftertouch_c, 4, 17
8, 189060, Channel_aftertouch_c, 4, 9
8, 189072, Channel_aftertouch_c, 4, 0
8, 189116, Note_on_c, 4, 64, 5
8, 189116, Channel_aftertouch_c, 4, 2
8, 189120, Note_on_c, 4, 69, 0
8, 189132, Channel_aftertouch_c, 4, 56
8, 189140, Channel_aftertouch_c, 4, 69
8, 189152, Channel_aftertouch_c, 4, 70
8, 189184, Channel_aftertouch_c, 4, 67
8, 189196, Channel_aftertouch_c, 4, 65
8, 189208, Channel_aftertouch_c, 4, 64
8, 189220, Channel_aftertouch_c, 4, 62
8, 189228, Channel_aftertouch_c, 4, 55
8, 189240, Channel_aftertouch_c, 4, 32
8, 189252, Channel_aftertouch_c, 4, 9
8, 189284, Channel_aftertouch_c, 4, 11
8, 189296, Note_on_c, 4, 64, 0
8, 189304, Channel_aftertouch_c, 4, 12
8, 189308, Note_on_c, 4, 69, 6
8, 189316, Channel_aftertouch_c, 4, 37
8, 189328, Channel_aftertouch_c, 4, 37
8, 189340, Channel_aftertouch_c, 4, 59
8, 189352, Channel_aftertouch_c, 4, 60
8, 189364, Channel_aftertouch_c, 4, 61
8, 189372, Channel_aftertouch_c, 4, 59
8, 189384, Channel_aftertouch_c, 4, 56
8, 189396, Channel_aftertouch_c, 4, 52
8, 189408, Channel_aftertouch_c, 4, 46
8, 189420, Channel_aftertouch_c, 4, 39
8, 189432, Channel_aftertouch_c, 4, 30
8, 189440, Channel_aftertouch_c, 4, 15
8, 189452, Channel_aftertouch_c, 4, 0
8, 189460, Note_on_c, 4, 69, 0
8, 189484, Note_on_c, 4, 57, 0
8, 189496, Channel_aftertouch_c, 4, 10
8, 189500, Note_on_c, 4, 61, 5
8, 189508, Channel_aftertouch_c, 4, 0
8, 189684, Channel_aftertouch_c, 4, 22
8, 189692, Note_on_c, 4, 62, 3
8, 189696, Note_on_c, 4, 61, 0
8, 189700, Channel_aftertouch_c, 4, 62
8, 189712, Channel_aftertouch_c, 4, 83
8, 189724, Channel_aftertouch_c, 4, 89
8, 189732, Channel_aftertouch_c, 4, 90
8, 189748, Channel_aftertouch_c, 4, 87
8, 189756, Channel_aftertouch_c, 4, 83
8, 189768, Channel_aftertouch_c, 4, 80
8, 189800, Channel_aftertouch_c, 4, 82
8, 189812, Channel_aftertouch_c, 4, 83
8, 189844, Channel_aftertouch_c, 4, 79
8, 189856, Channel_aftertouch_c, 4, 66
8, 189868, Channel_aftertouch_c, 4, 19
8, 189876, Channel_aftertouch_c, 4, 19
8, 189884, Note_on_c, 4, 69, 2
8, 189892, Channel_aftertouch_c, 4, 54
8, 189896, Note_on_c, 4, 62, 0
8, 189904, Channel_aftertouch_c, 4, 57
8, 189916, Channel_aftertouch_c, 4, 59
8, 189924, Channel_aftertouch_c, 4, 59
8, 189948, Channel_aftertouch_c, 4, 57
8, 189960, Channel_aftertouch_c, 4, 55
8, 189980, Channel_aftertouch_c, 4, 55
8, 189992, Channel_aftertouch_c, 4, 54
8, 190004, Channel_aftertouch_c, 4, 52
8, 190016, Channel_aftertouch_c, 4, 50
8, 190028, Channel_aftertouch_c, 4, 48
8, 190040, Channel_aftertouch_c, 4, 72
8, 190052, Channel_aftertouch_c, 4, 76
8, 190076, Note_on_c, 4, 62, 1
8, 190076, Channel_aftertouch_c, 4, 74
8, 190084, Channel_aftertouch_c, 4, 76
8, 190096, Note_on_c, 4, 69, 0
8, 190096, Channel_aftertouch_c, 4, 78
8, 190108, Channel_aftertouch_c, 4, 80
8, 190120, Channel_aftertouch_c, 4, 81
8, 190140, Channel_aftertouch_c, 4, 77
8, 190152, Channel_aftertouch_c, 4, 73
8, 190164, Channel_aftertouch_c, 4, 68
8, 190176, Channel_aftertouch_c, 4, 66
8, 190188, Channel_aftertouch_c, 4, 64
8, 190200, Channel_aftertouch_c, 4, 61
8, 190208, Channel_aftertouch_c, 4, 52
8, 190220, Channel_aftertouch_c, 4, 48
8, 190232, Channel_aftertouch_c, 4, 47
8, 190244, Channel_aftertouch_c, 4, 46
8, 190256, Channel_aftertouch_c, 4, 16
8, 190268, Note_on_c, 4, 61, 1
8, 190268, Channel_aftertouch_c, 4, 21
8, 190280, Channel_aftertouch_c, 4, 0
8, 190348, Note_on_c, 4, 62, 0
8, 190460, Note_on_c, 4, 61, 0
8, 190460, Note_on_c, 4, 61, 0
8, 190460, End_track
9, 0, Start_track
9, 0, MIDI_port, 0
9, 0, Title_t, "Electric Guitar"
9, 0, Program_c, 5, 26
9, 0, Control_c, 5, 7, 88
9, 0, Control_c, 5, 91, 40
9, 0, Control_c, 5, 93, 0
9, 0, Control_c, 5, 7, 100
9, 36864, Control_c, 5, 7, 75
9, 39936, Control_c, 5, 93, 60
9, 39936, Pitch_bend_c, 5, 8320
9, 39936, Note_on_c, 5, 59, 45
9, 39936, Note_on_c, 5, 64, 76
9, 40000, Note_on_c, 5, 59, 0
9, 40112, Channel_aftertouch_c, 5, 35
9, 40128, Note_on_c, 5, 59, 70
9, 40128, Channel_aftertouch_c, 5, 0
9, 40172, Channel_aftertouch_c, 5, 2
9, 40184, Channel_aftertouch_c, 5, 3
9, 40196, Channel_aftertouch_c, 5, 1
9, 40216, Channel_aftertouch_c, 5, 4
9, 40240, Channel_aftertouch_c, 5, 0
9, 40320, Note_on_c, 5, 67, 100
9, 40320, Channel_aftertouch_c, 5, 4
9, 40332, Channel_aftertouch_c, 5, 56
9, 40344, Channel_aftertouch_c, 5, 91
9, 40356, Channel_aftertouch_c, 5, 92
9, 40368, Channel_aftertouch_c, 5, 88
9, 40380, Channel_aftertouch_c, 5, 79
9, 40392, Channel_aftertouch_c, 5, 59
9, 40404, Channel_aftertouch_c, 5, 59
9, 40432, Channel_aftertouch_c, 5, 58
9, 40440, Channel_aftertouch_c, 5, 55
9, 40448, Note_on_c, 5, 59, 0
9, 40452, Channel_aftertouch_c, 5, 53
9, 40464, Channel_aftertouch_c, 5, 50
9, 40480, Channel_aftertouch_c, 5, 47
9, 40492, Channel_aftertouch_c, 5, 41
9, 40504, Channel_aftertouch_c, 5, 52
9, 40512, Note_on_c, 5, 59, 41
9, 40516, Channel_aftertouch_c, 5, 62
9, 40540, Channel_aftertouch_c, 5, 55
9, 40552, Channel_aftertouch_c, 5, 38
9, 40564, Channel_aftertouch_c, 5, 0
9, 40576, Channel_aftertouch_c, 5, 0
9, 40704, Note_on_c, 5, 66, 117
9, 40708, Channel_aftertouch_c, 5, 63
9, 40720, Channel_aftertouch_c, 5, 80
9, 40728, Note_on_c, 5, 67, 0
9, 40732, Channel_aftertouch_c, 5, 69
9, 40744, Channel_aftertouch_c, 5, 58
9, 40756, Channel_aftertouch_c, 5, 45
9, 40768, Channel_aftertouch_c, 5, 44
9, 40780, Channel_aftertouch_c, 5, 27
9, 40792, Channel_aftertouch_c, 5, 0
9, 40820, Note_on_c, 5, 64, 0
9, 40992, Note_on_c, 5, 64, 22
9, 41032, Note_on_c, 5, 59, 0
9, 41088, Note_on_c, 5, 59, 85
9, 41128, Note_on_c, 5, 64, 0
9, 41152, Note_on_c, 5, 66, 0
9, 41280, Note_on_c, 5, 64, 92
9, 41292, Channel_aftertouch_c, 5, 50
9, 41304, Channel_aftertouch_c, 5, 60
9, 41316, Channel_aftertouch_c, 5, 64
9, 41328, Channel_aftertouch_c, 5, 66
9, 41364, Channel_aftertouch_c, 5, 63
9, 41376, Channel_aftertouch_c, 5, 59
9, 41408, Channel_aftertouch_c, 5, 64
9, 41420, Channel_aftertouch_c, 5, 67
9, 41432, Channel_aftertouch_c, 5, 68
9, 41456, Channel_aftertouch_c, 5, 65
9, 41468, Channel_aftertouch_c, 5, 61
9, 41480, Channel_aftertouch_c, 5, 56
9, 41492, Channel_aftertouch_c, 5, 51
9, 41504, Channel_aftertouch_c, 5, 44
9, 41516, Channel_aftertouch_c, 5, 29
9, 41528, Channel_aftertouch_c, 5, 8
9, 41540, Channel_aftertouch_c, 5, 7
9, 41552, Channel_aftertouch_c, 5, 6
9, 41564, Channel_aftertouch_c, 5, 6
9, 41576, Channel_aftertouch_c, 5, 5
9, 41588, Note_on_c, 5, 59, 0
9, 41588, Channel_aftertouch_c, 5, 3
9, 41608, Channel_aftertouch_c, 5, 0
9, 41620, Channel_aftertouch_c, 5, 0
9, 41664, Note_on_c, 5, 59, 96
9, 41832, Channel_aftertouch_c, 5, 3
9, 41844, Channel_aftertouch_c, 5, 33
9, 41856, Note_on_c, 5, 67, 108
9, 41856, Channel_aftertouch_c, 5, 28
9, 41872, Channel_aftertouch_c, 5, 65
9, 41884, Channel_aftertouch_c, 5, 82
9, 41896, Channel_aftertouch_c, 5, 74
9, 41904, Note_on_c, 5, 59, 0
9, 41908, Channel_aftertouch_c, 5, 72
9, 41916, Channel_aftertouch_c, 5, 71
9, 41928, Channel_aftertouch_c, 5, 69
9, 41940, Channel_aftertouch_c, 5, 68
9, 41976, Channel_aftertouch_c, 5, 67
9, 41988, Channel_aftertouch_c, 5, 66
9, 42000, Channel_aftertouch_c, 5, 65
9, 42008, Channel_aftertouch_c, 5, 63
9, 42024, Channel_aftertouch_c, 5, 60
9, 42032, Channel_aftertouch_c, 5, 56
9, 42048, Note_on_c, 5, 59, 89
9, 42048, Channel_aftertouch_c, 5, 54
9, 42056, Channel_aftertouch_c, 5, 52
9, 42072, Channel_aftertouch_c, 5, 87
9, 42084, Channel_aftertouch_c, 5, 77
9, 42096, Channel_aftertouch_c, 5, 67
9, 42108, Channel_aftertouch_c, 5, 53
9, 42120, Channel_aftertouch_c, 5, 42
9, 42132, Channel_aftertouch_c, 5, 17
9, 42144, Channel_aftertouch_c, 5, 0
9, 42232, Channel_aftertouch_c, 5, 30
9, 42240, Note_on_c, 5, 66, 117
9, 42244, Channel_aftertouch_c, 5, 54
9, 42256, Channel_aftertouch_c, 5, 45
9, 42268, Channel_aftertouch_c, 5, 10
9, 42276, Note_on_c, 5, 67, 0
9, 42280, Note_on_c, 5, 59, 0
9, 42280, Channel_aftertouch_c, 5, 39
9, 42288, Channel_aftertouch_c, 5, 26
9, 42300, Channel_aftertouch_c, 5, 0
9, 42360, Note_on_c, 5, 64, 0
9, 42432, Note_on_c, 5, 59, 21
9, 42552, Note_on_c, 5, 59, 0
9, 42624, Note_on_c, 5, 59, 76
9, 42760, Note_on_c, 5, 66, 0
9, 42816, Note_on_c, 5, 64, 92
9, 42828, Channel_aftertouch_c, 5, 8
9, 42840, Note_on_c, 5, 59, 0
9, 42840, Channel_aftertouch_c, 5, 0
9, 42852, Channel_aftertouch_c, 5, 5
9, 42864, Channel_aftertouch_c, 5, 8
9, 42872, Channel_aftertouch_c, 5, 11
9, 42888, Channel_aftertouch_c, 5, 13
9, 42896, Channel_aftertouch_c, 5, 14
9, 42912, Channel_aftertouch_c, 5, 16
9, 42920, Channel_aftertouch_c, 5, 17
9, 42944, Channel_aftertouch_c, 5, 15
9, 42956, Channel_aftertouch_c, 5, 14
9, 42980, Channel_aftertouch_c, 5, 14
9, 42992, Channel_aftertouch_c, 5, 13
9, 43008, Note_on_c, 5, 62, 67
9, 43016, Channel_aftertouch_c, 5, 13
9, 43032, Note_on_c, 5, 62, 0
9, 43040, Channel_aftertouch_c, 5, 17
9, 43076, Channel_aftertouch_c, 5, 17
9, 43100, Channel_aftertouch_c, 5, 15
9, 43124, Channel_aftertouch_c, 5, 18
9, 43132, Channel_aftertouch_c, 5, 19
9, 43156, Channel_aftertouch_c, 5, 17
9, 43168, Channel_aftertouch_c, 5, 13
9, 43180, Channel_aftertouch_c, 5, 8
9, 43192, Channel_aftertouch_c, 5, 0
9, 43200, Note_on_c, 5, 62, 92
9, 43216, Channel_aftertouch_c, 5, 45
9, 43228, Channel_aftertouch_c, 5, 56
9, 43240, Channel_aftertouch_c, 5, 59
9, 43252, Channel_aftertouch_c, 5, 52
9, 43264, Channel_aftertouch_c, 5, 43
9, 43276, Channel_aftertouch_c, 5, 41
9, 43288, Channel_aftertouch_c, 5, 44
9, 43300, Channel_aftertouch_c, 5, 42
9, 43312, Channel_aftertouch_c, 5, 15
9, 43324, Channel_aftertouch_c, 5, 0
9, 43352, Note_on_c, 5, 64, 0
9, 43392, Note_on_c, 5, 64, 92
9, 43416, Channel_aftertouch_c, 5, 54
9, 43432, Channel_aftertouch_c, 5, 21
9, 43440, Note_on_c, 5, 62, 0
9, 43440, Channel_aftertouch_c, 5, 27
9, 43456, Channel_aftertouch_c, 5, 20
9, 43468, Channel_aftertouch_c, 5, 20
9, 43480, Channel_aftertouch_c, 5, 22
9, 43492, Channel_aftertouch_c, 5, 22
9, 43524, Channel_aftertouch_c, 5, 20
9, 43536, Channel_aftertouch_c, 5, 17
9, 43548, Channel_aftertouch_c, 5, 15
9, 43560, Channel_aftertouch_c, 5, 9
9, 43576, Channel_aftertouch_c, 5, 0
9, 43584, Note_on_c, 5, 62, 85
9, 43612, Note_on_c, 5, 64, 0
9, 43776, Note_on_c, 5, 67, 96
9, 43800, Channel_aftertouch_c, 5, 32
9, 43816, Note_on_c, 5, 62, 0
9, 43816, Channel_aftertouch_c, 5, 81
9, 43824, Channel_aftertouch_c, 5, 73
9, 43840, Channel_aftertouch_c, 5, 72
9, 43872, Channel_aftertouch_c, 5, 72
9, 43908, Channel_aftertouch_c, 5, 67
9, 43920, Channel_aftertouch_c, 5, 61
9, 43964, Channel_aftertouch_c, 5, 63
9, 43976, Channel_aftertouch_c, 5, 63
9, 43988, Channel_aftertouch_c, 5, 65
9, 44000, Channel_aftertouch_c, 5, 65
9, 44068, Channel_aftertouch_c, 5, 62
9, 44080, Channel_aftertouch_c, 5, 58
9, 44092, Channel_aftertouch_c, 5, 51
9, 44104, Channel_aftertouch_c, 5, 42
9, 44116, Channel_aftertouch_c, 5, 28
9, 44128, Note_on_c, 5, 67, 0
9, 44128, Channel_aftertouch_c, 5, 0
9, 44160, Note_on_c, 5, 62, 92
9, 44164, Channel_aftertouch_c, 5, 44
9, 44176, Channel_aftertouch_c, 5, 18
9, 44188, Channel_aftertouch_c, 5, 0
9, 44304, Note_on_c, 5, 62, 0
9, 44352, Note_on_c, 5, 64, 85
9, 44352, Channel_aftertouch_c, 5, 10
9, 44364, Channel_aftertouch_c, 5, 24
9, 44376, Channel_aftertouch_c, 5, 28
9, 44388, Channel_aftertouch_c, 5, 28
9, 44400, Channel_aftertouch_c, 5, 31
9, 44412, Channel_aftertouch_c, 5, 34
9, 44424, Channel_aftertouch_c, 5, 37
9, 44436, Channel_aftertouch_c, 5, 39
9, 44448, Channel_aftertouch_c, 5, 40
9, 44460, Channel_aftertouch_c, 5, 41
9, 44472, Channel_aftertouch_c, 5, 42
9, 44484, Channel_aftertouch_c, 5, 43
9, 44540, Channel_aftertouch_c, 5, 43
9, 44576, Channel_aftertouch_c, 5, 40
9, 44584, Channel_aftertouch_c, 5, 38
9, 44632, Channel_aftertouch_c, 5, 37
9, 44640, Channel_aftertouch_c, 5, 34
9, 44656, Channel_aftertouch_c, 5, 29
9, 44668, Channel_aftertouch_c, 5, 25
9, 44680, Channel_aftertouch_c, 5, 21
9, 44692, Channel_aftertouch_c, 5, 18
9, 44704, Channel_aftertouch_c, 5, 17
9, 44716, Channel_aftertouch_c, 5, 15
9, 44728, Channel_aftertouch_c, 5, 14
9, 44736, Note_on_c, 5, 62, 89
9, 44740, Channel_aftertouch_c, 5, 10
9, 44752, Channel_aftertouch_c, 5, 3
9, 44764, Channel_aftertouch_c, 5, 50
9, 44776, Channel_aftertouch_c, 5, 57
9, 44788, Channel_aftertouch_c, 5, 62
9, 44812, Channel_aftertouch_c, 5, 59
9, 44824, Channel_aftertouch_c, 5, 54
9, 44848, Channel_aftertouch_c, 5, 57
9, 44856, Channel_aftertouch_c, 5, 58
9, 44868, Channel_aftertouch_c, 5, 53
9, 44880, Channel_aftertouch_c, 5, 36
9, 44896, Channel_aftertouch_c, 5, 0
9, 44916, Channel_aftertouch_c, 5, 5
9, 44928, Note_on_c, 5, 67, 108
9, 44928, Channel_aftertouch_c, 5, 25
9, 44940, Channel_aftertouch_c, 5, 8
9, 44952, Note_on_c, 5, 62, 0
9, 44952, Channel_aftertouch_c, 5, 16
9, 44968, Channel_aftertouch_c, 5, 58
9, 44976, Channel_aftertouch_c, 5, 65
9, 44988, Channel_aftertouch_c, 5, 55
9, 45000, Channel_aftertouch_c, 5, 50
9, 45024, Channel_aftertouch_c, 5, 55
9, 45036, Channel_aftertouch_c, 5, 57
9, 45068, Channel_aftertouch_c, 5, 55
9, 45080, Channel_aftertouch_c, 5, 49
9, 45096, Channel_aftertouch_c, 5, 40
9, 45104, Channel_aftertouch_c, 5, 27
9, 45116, Channel_aftertouch_c, 5, 18
9, 45120, Note_on_c, 5, 62, 92
9, 45132, Channel_aftertouch_c, 5, 29
9, 45140, Channel_aftertouch_c, 5, 30
9, 45156, Channel_aftertouch_c, 5, 7
9, 45168, Channel_aftertouch_c, 5, 0
9, 45288, Note_on_c, 5, 64, 0
9, 45312, Note_on_c, 5, 66, 117
9, 45340, Note_on_c, 5, 67, 0
9, 45348, Note_on_c, 5, 62, 0
9, 45696, Note_on_c, 5, 62, 92
9, 45744, Note_on_c, 5, 66, 0
9, 45888, Note_on_c, 5, 64, 96
9, 45900, Channel_aftertouch_c, 5, 39
9, 45912, Channel_aftertouch_c, 5, 40
9, 45924, Channel_aftertouch_c, 5, 38
9, 45936, Channel_aftertouch_c, 5, 20
9, 45948, Channel_aftertouch_c, 5, 9
9, 45960, Channel_aftertouch_c, 5, 18
9, 45972, Channel_aftertouch_c, 5, 26
9, 45996, Channel_aftertouch_c, 5, 14
9, 46008, Channel_aftertouch_c, 5, 5
9, 46032, Channel_aftertouch_c, 5, 5
9, 46040, Channel_aftertouch_c, 5, 4
9, 46052, Channel_aftertouch_c, 5, 2
9, 46064, Channel_aftertouch_c, 5, 0
9, 46188, Note_on_c, 5, 62, 0
9, 46272, Note_on_c, 5, 62, 76
9, 46320, Note_on_c, 5, 64, 0
9, 46464, Note_on_c, 5, 67, 104
9, 46484, Channel_aftertouch_c, 5, 39
9, 46496, Channel_aftertouch_c, 5, 34
9, 46508, Channel_aftertouch_c, 5, 28
9, 46520, Channel_aftertouch_c, 5, 11
9, 46532, Channel_aftertouch_c, 5, 0
9, 46544, Note_on_c, 5, 62, 0
9, 46656, Note_on_c, 5, 62, 76
9, 46756, Note_on_c, 5, 67, 0
9, 46848, Note_on_c, 5, 67, 64
9, 46848, Note_on_c, 5, 66, 117
9, 46864, Note_on_c, 5, 67, 0
9, 46884, Channel_aftertouch_c, 5, 13
9, 46896, Channel_aftertouch_c, 5, 0
9, 47136, Note_on_c, 5, 62, 0
9, 47208, Channel_aftertouch_c, 5, 15
9, 47216, Channel_aftertouch_c, 5, 0
9, 47232, Note_on_c, 5, 62, 82
9, 47256, Note_on_c, 5, 66, 0
9, 47424, Note_on_c, 5, 64, 89
9, 47428, Channel_aftertouch_c, 5, 7
9, 47452, Channel_aftertouch_c, 5, 16
9, 47464, Channel_aftertouch_c, 5, 19
9, 47476, Channel_aftertouch_c, 5, 19
9, 47488, Channel_aftertouch_c, 5, 21
9, 47496, Note_on_c, 5, 62, 0
9, 47504, Channel_aftertouch_c, 5, 19
9, 47512, Channel_aftertouch_c, 5, 23
9, 47520, Note_on_c, 5, 62, 9
9, 47536, Channel_aftertouch_c, 5, 20
9, 47584, Channel_aftertouch_c, 5, 16
9, 47596, Channel_aftertouch_c, 5, 12
9, 47608, Channel_aftertouch_c, 5, 10
9, 47620, Channel_aftertouch_c, 5, 13
9, 47632, Channel_aftertouch_c, 5, 15
9, 47644, Channel_aftertouch_c, 5, 17
9, 47656, Note_on_c, 5, 62, 0
9, 47656, Channel_aftertouch_c, 5, 18
9, 47664, Channel_aftertouch_c, 5, 18
9, 47680, Channel_aftertouch_c, 5, 20
9, 47696, Channel_aftertouch_c, 5, 22
9, 47704, Channel_aftertouch_c, 5, 23
9, 47716, Channel_aftertouch_c, 5, 24
9, 47740, Channel_aftertouch_c, 5, 21
9, 47752, Channel_aftertouch_c, 5, 19
9, 47764, Channel_aftertouch_c, 5, 15
9, 47788, Channel_aftertouch_c, 5, 10
9, 47800, Channel_aftertouch_c, 5, 0
9, 47808, Note_on_c, 5, 62, 96
9, 47860, Note_on_c, 5, 64, 0
9, 48000, Note_on_c, 5, 67, 104
9, 48048, Note_on_c, 5, 62, 0
9, 48192, Note_on_c, 5, 62, 79
9, 48340, Note_on_c, 5, 67, 0
9, 48384, Note_on_c, 5, 67, 30
9, 48384, Note_on_c, 5, 66, 117
9, 48400, Note_on_c, 5, 67, 0
9, 48476, Note_on_c, 5, 62, 0
9, 48768, Note_on_c, 5, 62, 96
9, 48804, Note_on_c, 5, 66, 0
9, 48960, Note_on_c, 5, 67, 108
9, 48976, Channel_aftertouch_c, 5, 31
9, 48992, Channel_aftertouch_c, 5, 37
9, 49000, Channel_aftertouch_c, 5, 28
9, 49016, Channel_aftertouch_c, 5, 27
9, 49024, Channel_aftertouch_c, 5, 30
9, 49048, Channel_aftertouch_c, 5, 25
9, 49060, Channel_aftertouch_c, 5, 24
9, 49072, Channel_aftertouch_c, 5, 22
9, 49084, Channel_aftertouch_c, 5, 25
9, 49096, Channel_aftertouch_c, 5, 30
9, 49108, Channel_aftertouch_c, 5, 32
9, 49120, Channel_aftertouch_c, 5, 33
9, 49144, Channel_aftertouch_c, 5, 29
9, 49156, Channel_aftertouch_c, 5, 25
9, 49168, Channel_aftertouch_c, 5, 20
9, 49176, Channel_aftertouch_c, 5, 10
9, 49192, Channel_aftertouch_c, 5, 0
9, 49224, Note_on_c, 5, 62, 0
9, 49344, Note_on_c, 5, 62, 89
9, 49384, Note_on_c, 5, 67, 0
9, 49536, Note_on_c, 5, 67, 108
9, 49564, Channel_aftertouch_c, 5, 39
9, 49588, Channel_aftertouch_c, 5, 0
9, 49608, Note_on_c, 5, 62, 0
9, 49728, Note_on_c, 5, 62, 62
9, 49732, Channel_aftertouch_c, 5, 10
9, 49744, Channel_aftertouch_c, 5, 0
9, 49920, Note_on_c, 5, 66, 122
9, 49948, Note_on_c, 5, 67, 0
9, 49980, Note_on_c, 5, 62, 0
9, 50016, Note_on_c, 5, 62, 25
9, 50132, Note_on_c, 5, 62, 0
9, 50304, Note_on_c, 5, 62, 89
9, 50376, Note_on_c, 5, 66, 0
9, 50496, Note_on_c, 5, 67, 104
9, 50512, Channel_aftertouch_c, 5, 29
9, 50524, Channel_aftertouch_c, 5, 25
9, 50536, Channel_aftertouch_c, 5, 41
9, 50548, Channel_aftertouch_c, 5, 29
9, 50560, Channel_aftertouch_c, 5, 0
9, 50624, Note_on_c, 5, 62, 0
9, 50876, Note_on_c, 5, 67, 0
9, 50880, Note_on_c, 5, 62, 89
9, 51072, Note_on_c, 5, 67, 104
9, 51112, Channel_aftertouch_c, 5, 30
9, 51124, Channel_aftertouch_c, 5, 0
9, 51164, Note_on_c, 5, 62, 0
9, 51264, Note_on_c, 5, 59, 85
9, 51272, Channel_aftertouch_c, 5, 5
9, 51284, Channel_aftertouch_c, 5, 0
9, 51296, Note_on_c, 5, 67, 0
9, 51456, Note_on_c, 5, 60, 96
9, 51500, Channel_aftertouch_c, 5, 25
9, 51512, Channel_aftertouch_c, 5, 26
9, 51524, Channel_aftertouch_c, 5, 24
9, 51536, Channel_aftertouch_c, 5, 30
9, 51548, Channel_aftertouch_c, 5, 39
9, 51560, Channel_aftertouch_c, 5, 41
9, 51572, Channel_aftertouch_c, 5, 33
9, 51584, Channel_aftertouch_c, 5, 22
9, 51592, Channel_aftertouch_c, 5, 19
9, 51608, Channel_aftertouch_c, 5, 26
9, 51620, Channel_aftertouch_c, 5, 28
9, 51632, Channel_aftertouch_c, 5, 23
9, 51644, Channel_aftertouch_c, 5, 16
9, 51648, Note_on_c, 5, 67, 100
9, 51656, Channel_aftertouch_c, 5, 11
9, 51668, Channel_aftertouch_c, 5, 26
9, 51680, Channel_aftertouch_c, 5, 13
9, 51692, Channel_aftertouch_c, 5, 11
9, 51700, Note_on_c, 5, 59, 0
9, 51704, Channel_aftertouch_c, 5, 0
9, 51728, Note_on_c, 5, 60, 0
9, 51840, Note_on_c, 5, 60, 73
9, 51896, Channel_aftertouch_c, 5, 7
9, 51908, Channel_aftertouch_c, 5, 10
9, 51920, Channel_aftertouch_c, 5, 12
9, 51932, Channel_aftertouch_c, 5, 13
9, 51944, Channel_aftertouch_c, 5, 16
9, 51956, Channel_aftertouch_c, 5, 18
9, 51968, Channel_aftertouch_c, 5, 16
9, 51980, Channel_aftertouch_c, 5, 10
9, 51992, Channel_aftertouch_c, 5, 7
9, 52004, Channel_aftertouch_c, 5, 6
9, 52028, Channel_aftertouch_c, 5, 5
9, 52032, Note_on_c, 5, 59, 79
9, 52052, Channel_aftertouch_c, 5, 3
9, 52064, Channel_aftertouch_c, 5, 60
9, 52076, Channel_aftertouch_c, 5, 53
9, 52088, Channel_aftertouch_c, 5, 0
9, 52096, Note_on_c, 5, 67, 0
9, 52120, Note_on_c, 5, 60, 0
9, 52132, Channel_aftertouch_c, 5, 2
9, 52144, Channel_aftertouch_c, 5, 6
9, 52156, Channel_aftertouch_c, 5, 10
9, 52168, Channel_aftertouch_c, 5, 16
9, 52180, Channel_aftertouch_c, 5, 25
9, 52192, Channel_aftertouch_c, 5, 30
9, 52204, Channel_aftertouch_c, 5, 26
9, 52216, Channel_aftertouch_c, 5, 23
9, 73728, Control_c, 5, 7, 85
9, 73728, Program_c, 5, 26
9, 76800, Control_c, 5, 93, 60
9, 76800, Pitch_bend_c, 5, 8320
9, 76800, Note_on_c, 5, 59, 45
9, 76800, Note_on_c, 5, 64, 76
9, 76864, Note_on_c, 5, 59, 0
9, 76976, Channel_aftertouch_c, 5, 35
9, 76992, Note_on_c, 5, 59, 70
9, 76992, Channel_aftertouch_c, 5, 0
9, 77036, Channel_aftertouch_c, 5, 2
9, 77048, Channel_aftertouch_c, 5, 3
9, 77060, Channel_aftertouch_c, 5, 1
9, 77080, Channel_aftertouch_c, 5, 4
9, 77104, Channel_aftertouch_c, 5, 0
9, 77184, Note_on_c, 5, 67, 100
9, 77184, Channel_aftertouch_c, 5, 4
9, 77196, Channel_aftertouch_c, 5, 56
9, 77208, Channel_aftertouch_c, 5, 91
9, 77220, Channel_aftertouch_c, 5, 92
9, 77232, Channel_aftertouch_c, 5, 88
9, 77244, Channel_aftertouch_c, 5, 79
9, 77256, Channel_aftertouch_c, 5, 59
9, 77268, Channel_aftertouch_c, 5, 59
9, 77296, Channel_aftertouch_c, 5, 58
9, 77304, Channel_aftertouch_c, 5, 55
9, 77312, Note_on_c, 5, 59, 0
9, 77316, Channel_aftertouch_c, 5, 53
9, 77328, Channel_aftertouch_c, 5, 50
9, 77344, Channel_aftertouch_c, 5, 47
9, 77356, Channel_aftertouch_c, 5, 41
9, 77368, Channel_aftertouch_c, 5, 52
9, 77376, Note_on_c, 5, 59, 41
9, 77380, Channel_aftertouch_c, 5, 62
9, 77404, Channel_aftertouch_c, 5, 55
9, 77416, Channel_aftertouch_c, 5, 38
9, 77428, Channel_aftertouch_c, 5, 0
9, 77440, Channel_aftertouch_c, 5, 0
9, 77568, Note_on_c, 5, 66, 117
9, 77572, Channel_aftertouch_c, 5, 63
9, 77584, Channel_aftertouch_c, 5, 80
9, 77592, Note_on_c, 5, 67, 0
9, 77596, Channel_aftertouch_c, 5, 69
9, 77608, Channel_aftertouch_c, 5, 58
9, 77620, Channel_aftertouch_c, 5, 45
9, 77632, Channel_aftertouch_c, 5, 44
9, 77644, Channel_aftertouch_c, 5, 27
9, 77656, Channel_aftertouch_c, 5, 0
9, 77684, Note_on_c, 5, 64, 0
9, 77856, Note_on_c, 5, 64, 22
9, 77896, Note_on_c, 5, 59, 0
9, 77952, Note_on_c, 5, 59, 85
9, 77992, Note_on_c, 5, 64, 0
9, 78016, Note_on_c, 5, 66, 0
9, 78144, Note_on_c, 5, 64, 92
9, 78156, Channel_aftertouch_c, 5, 50
9, 78168, Channel_aftertouch_c, 5, 60
9, 78180, Channel_aftertouch_c, 5, 64
9, 78192, Channel_aftertouch_c, 5, 66
9, 78228, Channel_aftertouch_c, 5, 63
9, 78240, Channel_aftertouch_c, 5, 59
9, 78272, Channel_aftertouch_c, 5, 64
9, 78284, Channel_aftertouch_c, 5, 67
9, 78296, Channel_aftertouch_c, 5, 68
9, 78320, Channel_aftertouch_c, 5, 65
9, 78332, Channel_aftertouch_c, 5, 61
9, 78344, Channel_aftertouch_c, 5, 56
9, 78356, Channel_aftertouch_c, 5, 51
9, 78368, Channel_aftertouch_c, 5, 44
9, 78380, Channel_aftertouch_c, 5, 29
9, 78392, Channel_aftertouch_c, 5, 8
9, 78404, Channel_aftertouch_c, 5, 7
9, 78416, Channel_aftertouch_c, 5, 6
9, 78428, Channel_aftertouch_c, 5, 6
9, 78440, Channel_aftertouch_c, 5, 5
9, 78452, Note_on_c, 5, 59, 0
9, 78452, Channel_aftertouch_c, 5, 3
9, 78472, Channel_aftertouch_c, 5, 0
9, 78484, Channel_aftertouch_c, 5, 0
9, 78528, Note_on_c, 5, 59, 96
9, 78696, Channel_aftertouch_c, 5, 3
9, 78708, Channel_aftertouch_c, 5, 33
9, 78720, Note_on_c, 5, 67, 108
9, 78720, Channel_aftertouch_c, 5, 28
9, 78736, Channel_aftertouch_c, 5, 65
9, 78748, Channel_aftertouch_c, 5, 82
9, 78760, Channel_aftertouch_c, 5, 74
9, 78768, Note_on_c, 5, 59, 0
9, 78772, Channel_aftertouch_c, 5, 72
9, 78780, Channel_aftertouch_c, 5, 71
9, 78792, Channel_aftertouch_c, 5, 69
9, 78804, Channel_aftertouch_c, 5, 68
9, 78840, Channel_aftertouch_c, 5, 67
9, 78852, Channel_aftertouch_c, 5, 66
9, 78864, Channel_aftertouch_c, 5, 65
9, 78872, Channel_aftertouch_c, 5, 63
9, 78888, Channel_aftertouch_c, 5, 60
9, 78896, Channel_aftertouch_c, 5, 56
9, 78912, Note_on_c, 5, 59, 89
9, 78912, Channel_aftertouch_c, 5, 54
9, 78920, Channel_aftertouch_c, 5, 52
9, 78936, Channel_aftertouch_c, 5, 87
9, 78948, Channel_aftertouch_c, 5, 77
9, 78960, Channel_aftertouch_c, 5, 67
9, 78972, Channel_aftertouch_c, 5, 53
9, 78984, Channel_aftertouch_c, 5, 42
9, 78996, Channel_aftertouch_c, 5, 17
9, 79008, Channel_aftertouch_c, 5, 0
9, 79096, Channel_aftertouch_c, 5, 30
9, 79104, Note_on_c, 5, 66, 117
9, 79108, Channel_aftertouch_c, 5, 54
9, 79120, Channel_aftertouch_c, 5, 45
9, 79132, Channel_aftertouch_c, 5, 10
9, 79140, Note_on_c, 5, 67, 0
9, 79144, Note_on_c, 5, 59, 0
9, 79144, Channel_aftertouch_c, 5, 39
9, 79152, Channel_aftertouch_c, 5, 26
9, 79164, Channel_aftertouch_c, 5, 0
9, 79224, Note_on_c, 5, 64, 0
9, 79296, Note_on_c, 5, 59, 21
9, 79416, Note_on_c, 5, 59, 0
9, 79488, Note_on_c, 5, 59, 76
9, 79624, Note_on_c, 5, 66, 0
9, 79680, Note_on_c, 5, 64, 92
9, 79692, Channel_aftertouch_c, 5, 8
9, 79704, Note_on_c, 5, 59, 0
9, 79704, Channel_aftertouch_c, 5, 0
9, 79716, Channel_aftertouch_c, 5, 5
9, 79728, Channel_aftertouch_c, 5, 8
9, 79736, Channel_aftertouch_c, 5, 11
9, 79752, Channel_aftertouch_c, 5, 13
9, 79760, Channel_aftertouch_c, 5, 14
9, 79776, Channel_aftertouch_c, 5, 16
9, 79784, Channel_aftertouch_c, 5, 17
9, 79808, Channel_aftertouch_c, 5, 15
9, 79820, Channel_aftertouch_c, 5, 14
9, 79844, Channel_aftertouch_c, 5, 14
9, 79856, Channel_aftertouch_c, 5, 13
9, 79872, Note_on_c, 5, 62, 67
9, 79880, Channel_aftertouch_c, 5, 13
9, 79896, Note_on_c, 5, 62, 0
9, 79904, Channel_aftertouch_c, 5, 17
9, 79940, Channel_aftertouch_c, 5, 17
9, 79964, Channel_aftertouch_c, 5, 15
9, 79988, Channel_aftertouch_c, 5, 18
9, 79996, Channel_aftertouch_c, 5, 19
9, 80020, Channel_aftertouch_c, 5, 17
9, 80032, Channel_aftertouch_c, 5, 13
9, 80044, Channel_aftertouch_c, 5, 8
9, 80056, Channel_aftertouch_c, 5, 0
9, 80064, Note_on_c, 5, 62, 92
9, 80080, Channel_aftertouch_c, 5, 45
9, 80092, Channel_aftertouch_c, 5, 56
9, 80104, Channel_aftertouch_c, 5, 59
9, 80116, Channel_aftertouch_c, 5, 52
9, 80128, Channel_aftertouch_c, 5, 43
9, 80140, Channel_aftertouch_c, 5, 41
9, 80152, Channel_aftertouch_c, 5, 44
9, 80164, Channel_aftertouch_c, 5, 42
9, 80176, Channel_aftertouch_c, 5, 15
9, 80188, Channel_aftertouch_c, 5, 0
9, 80216, Note_on_c, 5, 64, 0
9, 80256, Note_on_c, 5, 64, 92
9, 80280, Channel_aftertouch_c, 5, 54
9, 80296, Channel_aftertouch_c, 5, 21
9, 80304, Note_on_c, 5, 62, 0
9, 80304, Channel_aftertouch_c, 5, 27
9, 80320, Channel_aftertouch_c, 5, 20
9, 80332, Channel_aftertouch_c, 5, 20
9, 80344, Channel_aftertouch_c, 5, 22
9, 80356, Channel_aftertouch_c, 5, 22
9, 80388, Channel_aftertouch_c, 5, 20
9, 80400, Channel_aftertouch_c, 5, 17
9, 80412, Channel_aftertouch_c, 5, 15
9, 80424, Channel_aftertouch_c, 5, 9
9, 80440, Channel_aftertouch_c, 5, 0
9, 80448, Note_on_c, 5, 62, 85
9, 80476, Note_on_c, 5, 64, 0
9, 80640, Note_on_c, 5, 67, 96
9, 80664, Channel_aftertouch_c, 5, 32
9, 80680, Note_on_c, 5, 62, 0
9, 80680, Channel_aftertouch_c, 5, 81
9, 80688, Channel_aftertouch_c, 5, 73
9, 80704, Channel_aftertouch_c, 5, 72
9, 80736, Channel_aftertouch_c, 5, 72
9, 80772, Channel_aftertouch_c, 5, 67
9, 80784, Channel_aftertouch_c, 5, 61
9, 80828, Channel_aftertouch_c, 5, 63
9, 80840, Channel_aftertouch_c, 5, 63
9, 80852, Channel_aftertouch_c, 5, 65
9, 80864, Channel_aftertouch_c, 5, 65
9, 80932, Channel_aftertouch_c, 5, 62
9, 80944, Channel_aftertouch_c, 5, 58
9, 80956, Channel_aftertouch_c, 5, 51
9, 80968, Channel_aftertouch_c, 5, 42
9, 80980, Channel_aftertouch_c, 5, 28
9, 80992, Note_on_c, 5, 67, 0
9, 80992, Channel_aftertouch_c, 5, 0
9, 81024, Note_on_c, 5, 62, 92
9, 81028, Channel_aftertouch_c, 5, 44
9, 81040, Channel_aftertouch_c, 5, 18
9, 81052, Channel_aftertouch_c, 5, 0
9, 81168, Note_on_c, 5, 62, 0
9, 81216, Note_on_c, 5, 64, 85
9, 81216, Channel_aftertouch_c, 5, 10
9, 81228, Channel_aftertouch_c, 5, 24
9, 81240, Channel_aftertouch_c, 5, 28
9, 81252, Channel_aftertouch_c, 5, 28
9, 81264, Channel_aftertouch_c, 5, 31
9, 81276, Channel_aftertouch_c, 5, 34
9, 81288, Channel_aftertouch_c, 5, 37
9, 81300, Channel_aftertouch_c, 5, 39
9, 81312, Channel_aftertouch_c, 5, 40
9, 81324, Channel_aftertouch_c, 5, 41
9, 81336, Channel_aftertouch_c, 5, 42
9, 81348, Channel_aftertouch_c, 5, 43
9, 81404, Channel_aftertouch_c, 5, 43
9, 81440, Channel_aftertouch_c, 5, 40
9, 81448, Channel_aftertouch_c, 5, 38
9, 81496, Channel_aftertouch_c, 5, 37
9, 81504, Channel_aftertouch_c, 5, 34
9, 81520, Channel_aftertouch_c, 5, 29
9, 81532, Channel_aftertouch_c, 5, 25
9, 81544, Channel_aftertouch_c, 5, 21
9, 81556, Channel_aftertouch_c, 5, 18
9, 81568, Channel_aftertouch_c, 5, 17
9, 81580, Channel_aftertouch_c, 5, 15
9, 81592, Channel_aftertouch_c, 5, 14
9, 81600, Note_on_c, 5, 62, 89
9, 81604, Channel_aftertouch_c, 5, 10
9, 81616, Channel_aftertouch_c, 5, 3
9, 81628, Channel_aftertouch_c, 5, 50
9, 81640, Channel_aftertouch_c, 5, 57
9, 81652, Channel_aftertouch_c, 5, 62
9, 81676, Channel_aftertouch_c, 5, 59
9, 81688, Channel_aftertouch_c, 5, 54
9, 81712, Channel_aftertouch_c, 5, 57
9, 81720, Channel_aftertouch_c, 5, 58
9, 81732, Channel_aftertouch_c, 5, 53
9, 81744, Channel_aftertouch_c, 5, 36
9, 81760, Channel_aftertouch_c, 5, 0
9, 81780, Channel_aftertouch_c, 5, 5
9, 81792, Note_on_c, 5, 67, 108
9, 81792, Channel_aftertouch_c, 5, 25
9, 81804, Channel_aftertouch_c, 5, 8
9, 81816, Note_on_c, 5, 62, 0
9, 81816, Channel_aftertouch_c, 5, 16
9, 81832, Channel_aftertouch_c, 5, 58
9, 81840, Channel_aftertouch_c, 5, 65
9, 81852, Channel_aftertouch_c, 5, 55
9, 81864, Channel_aftertouch_c, 5, 50
9, 81888, Channel_aftertouch_c, 5, 55
9, 81900, Channel_aftertouch_c, 5, 57
9, 81932, Channel_aftertouch_c, 5, 55
9, 81944, Channel_aftertouch_c, 5, 49
9, 81960, Channel_aftertouch_c, 5, 40
9, 81968, Channel_aftertouch_c, 5, 27
9, 81980, Channel_aftertouch_c, 5, 18
9, 81984, Note_on_c, 5, 62, 92
9, 81996, Channel_aftertouch_c, 5, 29
9, 82004, Channel_aftertouch_c, 5, 30
9, 82020, Channel_aftertouch_c, 5, 7
9, 82032, Channel_aftertouch_c, 5, 0
9, 82152, Note_on_c, 5, 64, 0
9, 82176, Note_on_c, 5, 66, 117
9, 82204, Note_on_c, 5, 67, 0
9, 82212, Note_on_c, 5, 62, 0
9, 82560, Note_on_c, 5, 62, 92
9, 82608, Note_on_c, 5, 66, 0
9, 82752, Note_on_c, 5, 64, 96
9, 82764, Channel_aftertouch_c, 5, 39
9, 82776, Channel_aftertouch_c, 5, 40
9, 82788, Channel_aftertouch_c, 5, 38
9, 82800, Channel_aftertouch_c, 5, 20
9, 82812, Channel_aftertouch_c, 5, 9
9, 82824, Channel_aftertouch_c, 5, 18
9, 82836, Channel_aftertouch_c, 5, 26
9, 82860, Channel_aftertouch_c, 5, 14
9, 82872, Channel_aftertouch_c, 5, 5
9, 82896, Channel_aftertouch_c, 5, 5
9, 82904, Channel_aftertouch_c, 5, 4
9, 82916, Channel_aftertouch_c, 5, 2
9, 82928, Channel_aftertouch_c, 5, 0
9, 83052, Note_on_c, 5, 62, 0
9, 83136, Note_on_c, 5, 62, 76
9, 83184, Note_on_c, 5, 64, 0
9, 83328, Note_on_c, 5, 67, 104
9, 83348, Channel_aftertouch_c, 5, 39
9, 83360, Channel_aftertouch_c, 5, 34
9, 83372, Channel_aftertouch_c, 5, 28
9, 83384, Channel_aftertouch_c, 5, 11
9, 83396, Channel_aftertouch_c, 5, 0
9, 83408, Note_on_c, 5, 62, 0
9, 83520, Note_on_c, 5, 62, 76
9, 83620, Note_on_c, 5, 67, 0
9, 83712, Note_on_c, 5, 67, 64
9, 83712, Note_on_c, 5, 66, 117
9, 83728, Note_on_c, 5, 67, 0
9, 83748, Channel_aftertouch_c, 5, 13
9, 83760, Channel_aftertouch_c, 5, 0
9, 84000, Note_on_c, 5, 62, 0
9, 84072, Channel_aftertouch_c, 5, 15
9, 84080, Channel_aftertouch_c, 5, 0
9, 84096, Note_on_c, 5, 62, 82
9, 84120, Note_on_c, 5, 66, 0
9, 84288, Note_on_c, 5, 64, 89
9, 84292, Channel_aftertouch_c, 5, 7
9, 84316, Channel_aftertouch_c, 5, 16
9, 84328, Channel_aftertouch_c, 5, 19
9, 84340, Channel_aftertouch_c, 5, 19
9, 84352, Channel_aftertouch_c, 5, 21
9, 84360, Note_on_c, 5, 62, 0
9, 84368, Channel_aftertouch_c, 5, 19
9, 84376, Channel_aftertouch_c, 5, 23
9, 84384, Note_on_c, 5, 62, 9
9, 84400, Channel_aftertouch_c, 5, 20
9, 84448, Channel_aftertouch_c, 5, 16
9, 84460, Channel_aftertouch_c, 5, 12
9, 84472, Channel_aftertouch_c, 5, 10
9, 84484, Channel_aftertouch_c, 5, 13
9, 84496, Channel_aftertouch_c, 5, 15
9, 84508, Channel_aftertouch_c, 5, 17
9, 84520, Note_on_c, 5, 62, 0
9, 84520, Channel_aftertouch_c, 5, 18
9, 84528, Channel_aftertouch_c, 5, 18
9, 84544, Channel_aftertouch_c, 5, 20
9, 84560, Channel_aftertouch_c, 5, 22
9, 84568, Channel_aftertouch_c, 5, 23
9, 84580, Channel_aftertouch_c, 5, 24
9, 84604, Channel_aftertouch_c, 5, 21
9, 84616, Channel_aftertouch_c, 5, 19
9, 84628, Channel_aftertouch_c, 5, 15
9, 84652, Channel_aftertouch_c, 5, 10
9, 84664, Channel_aftertouch_c, 5, 0
9, 84672, Note_on_c, 5, 62, 96
9, 84724, Note_on_c, 5, 64, 0
9, 84864, Note_on_c, 5, 67, 104
9, 84912, Note_on_c, 5, 62, 0
9, 85056, Note_on_c, 5, 62, 79
9, 85204, Note_on_c, 5, 67, 0
9, 85248, Note_on_c, 5, 67, 30
9, 85248, Note_on_c, 5, 66, 117
9, 85264, Note_on_c, 5, 67, 0
9, 85340, Note_on_c, 5, 62, 0
9, 85632, Note_on_c, 5, 62, 64
9, 85668, Note_on_c, 5, 66, 0
9, 85824, Note_on_c, 5, 67, 108
9, 85840, Channel_aftertouch_c, 5, 31
9, 85856, Channel_aftertouch_c, 5, 37
9, 85864, Channel_aftertouch_c, 5, 28
9, 85880, Channel_aftertouch_c, 5, 27
9, 85888, Channel_aftertouch_c, 5, 30
9, 85912, Channel_aftertouch_c, 5, 25
9, 85924, Channel_aftertouch_c, 5, 24
9, 85936, Channel_aftertouch_c, 5, 22
9, 85948, Channel_aftertouch_c, 5, 25
9, 85960, Channel_aftertouch_c, 5, 30
9, 85972, Channel_aftertouch_c, 5, 32
9, 85984, Channel_aftertouch_c, 5, 33
9, 86008, Channel_aftertouch_c, 5, 29
9, 86016, Note_on_c, 5, 67, 0
9, 86016, Note_on_c, 5, 67, 108
9, 86016, Note_on_c, 5, 62, 64
9, 86020, Channel_aftertouch_c, 5, 25
9, 86032, Channel_aftertouch_c, 5, 20
9, 86040, Channel_aftertouch_c, 5, 10
9, 86056, Channel_aftertouch_c, 5, 0
9, 86088, Note_on_c, 5, 62, 0
9, 86112, Note_on_c, 5, 62, 0
9, 86208, Note_on_c, 5, 62, 89
9, 86248, Note_on_c, 5, 67, 0
9, 86400, Note_on_c, 5, 67, 108
9, 86428, Channel_aftertouch_c, 5, 39
9, 86452, Channel_aftertouch_c, 5, 0
9, 86472, Note_on_c, 5, 62, 0
9, 86592, Note_on_c, 5, 62, 62
9, 86596, Channel_aftertouch_c, 5, 10
9, 86608, Channel_aftertouch_c, 5, 0
9, 86784, Note_on_c, 5, 66, 122
9, 86812, Note_on_c, 5, 67, 0
9, 86844, Note_on_c, 5, 62, 0
9, 86880, Note_on_c, 5, 62, 25
9, 86996, Note_on_c, 5, 62, 0
9, 87168, Note_on_c, 5, 62, 89
9, 87240, Note_on_c, 5, 66, 0
9, 87360, Note_on_c, 5, 67, 104
9, 87376, Channel_aftertouch_c, 5, 29
9, 87388, Channel_aftertouch_c, 5, 25
9, 87400, Channel_aftertouch_c, 5, 41
9, 87412, Channel_aftertouch_c, 5, 29
9, 87424, Channel_aftertouch_c, 5, 0
9, 87488, Note_on_c, 5, 62, 0
9, 87740, Note_on_c, 5, 67, 0
9, 87744, Note_on_c, 5, 62, 89
9, 87936, Note_on_c, 5, 67, 104
9, 87976, Channel_aftertouch_c, 5, 30
9, 87988, Channel_aftertouch_c, 5, 0
9, 88028, Note_on_c, 5, 62, 0
9, 88128, Note_on_c, 5, 59, 85
9, 88136, Channel_aftertouch_c, 5, 5
9, 88148, Channel_aftertouch_c, 5, 0
9, 88160, Note_on_c, 5, 67, 0
9, 88320, Note_on_c, 5, 60, 96
9, 88364, Channel_aftertouch_c, 5, 25
9, 88376, Channel_aftertouch_c, 5, 26
9, 88388, Channel_aftertouch_c, 5, 24
9, 88400, Channel_aftertouch_c, 5, 30
9, 88412, Channel_aftertouch_c, 5, 39
9, 88424, Channel_aftertouch_c, 5, 41
9, 88436, Channel_aftertouch_c, 5, 33
9, 88448, Channel_aftertouch_c, 5, 22
9, 88456, Channel_aftertouch_c, 5, 19
9, 88472, Channel_aftertouch_c, 5, 26
9, 88484, Channel_aftertouch_c, 5, 28
9, 88496, Channel_aftertouch_c, 5, 23
9, 88508, Channel_aftertouch_c, 5, 16
9, 88512, Note_on_c, 5, 67, 100
9, 88520, Channel_aftertouch_c, 5, 11
9, 88532, Channel_aftertouch_c, 5, 26
9, 88544, Channel_aftertouch_c, 5, 13
9, 88556, Channel_aftertouch_c, 5, 11
9, 88564, Note_on_c, 5, 59, 0
9, 88568, Channel_aftertouch_c, 5, 0
9, 88592, Note_on_c, 5, 60, 0
9, 88704, Note_on_c, 5, 60, 73
9, 88760, Channel_aftertouch_c, 5, 7
9, 88772, Channel_aftertouch_c, 5, 10
9, 88784, Channel_aftertouch_c, 5, 12
9, 88796, Channel_aftertouch_c, 5, 13
9, 88808, Channel_aftertouch_c, 5, 16
9, 88820, Channel_aftertouch_c, 5, 18
9, 88832, Channel_aftertouch_c, 5, 16
9, 88844, Channel_aftertouch_c, 5, 10
9, 88856, Channel_aftertouch_c, 5, 7
9, 88868, Channel_aftertouch_c, 5, 6
9, 88892, Channel_aftertouch_c, 5, 5
9, 88896, Note_on_c, 5, 59, 79
9, 88916, Channel_aftertouch_c, 5, 3
9, 88928, Channel_aftertouch_c, 5, 60
9, 88940, Channel_aftertouch_c, 5, 53
9, 88952, Channel_aftertouch_c, 5, 0
9, 88960, Note_on_c, 5, 67, 0
9, 88984, Note_on_c, 5, 60, 0
9, 88996, Channel_aftertouch_c, 5, 2
9, 89008, Channel_aftertouch_c, 5, 6
9, 89020, Channel_aftertouch_c, 5, 10
9, 89032, Channel_aftertouch_c, 5, 16
9, 89044, Channel_aftertouch_c, 5, 25
9, 89056, Channel_aftertouch_c, 5, 30
9, 89068, Channel_aftertouch_c, 5, 26
9, 89080, Channel_aftertouch_c, 5, 23
9, 89088, Note_on_c, 5, 59, 0
9, 89088, Control_c, 5, 93, 60
9, 89088, Pitch_bend_c, 5, 8320
9, 89088, Note_on_c, 5, 59, 45
9, 89088, Note_on_c, 5, 64, 76
9, 89152, Note_on_c, 5, 59, 0
9, 89264, Channel_aftertouch_c, 5, 35
9, 89280, Note_on_c, 5, 59, 70
9, 89280, Channel_aftertouch_c, 5, 0
9, 89324, Channel_aftertouch_c, 5, 2
9, 89336, Channel_aftertouch_c, 5, 3
9, 89348, Channel_aftertouch_c, 5, 1
9, 89368, Channel_aftertouch_c, 5, 4
9, 89392, Channel_aftertouch_c, 5, 0
9, 89472, Note_on_c, 5, 67, 100
9, 89472, Channel_aftertouch_c, 5, 4
9, 89484, Channel_aftertouch_c, 5, 56
9, 89496, Channel_aftertouch_c, 5, 91
9, 89508, Channel_aftertouch_c, 5, 92
9, 89520, Channel_aftertouch_c, 5, 88
9, 89532, Channel_aftertouch_c, 5, 79
9, 89544, Channel_aftertouch_c, 5, 59
9, 89556, Channel_aftertouch_c, 5, 59
9, 89584, Channel_aftertouch_c, 5, 58
9, 89592, Channel_aftertouch_c, 5, 55
9, 89600, Note_on_c, 5, 59, 0
9, 89604, Channel_aftertouch_c, 5, 53
9, 89616, Channel_aftertouch_c, 5, 50
9, 89632, Channel_aftertouch_c, 5, 47
9, 89644, Channel_aftertouch_c, 5, 41
9, 89656, Channel_aftertouch_c, 5, 52
9, 89664, Note_on_c, 5, 59, 41
9, 89668, Channel_aftertouch_c, 5, 62
9, 89692, Channel_aftertouch_c, 5, 55
9, 89704, Channel_aftertouch_c, 5, 38
9, 89716, Channel_aftertouch_c, 5, 0
9, 89728, Channel_aftertouch_c, 5, 0
9, 89856, Note_on_c, 5, 66, 117
9, 89860, Channel_aftertouch_c, 5, 63
9, 89872, Channel_aftertouch_c, 5, 80
9, 89880, Note_on_c, 5, 67, 0
9, 89884, Channel_aftertouch_c, 5, 69
9, 89896, Channel_aftertouch_c, 5, 58
9, 89908, Channel_aftertouch_c, 5, 45
9, 89920, Channel_aftertouch_c, 5, 44
9, 89932, Channel_aftertouch_c, 5, 27
9, 89944, Channel_aftertouch_c, 5, 0
9, 89972, Note_on_c, 5, 64, 0
9, 90144, Note_on_c, 5, 64, 22
9, 90184, Note_on_c, 5, 59, 0
9, 90240, Note_on_c, 5, 59, 85
9, 90280, Note_on_c, 5, 64, 0
9, 90304, Note_on_c, 5, 66, 0
9, 90432, Note_on_c, 5, 64, 92
9, 90444, Channel_aftertouch_c, 5, 50
9, 90456, Channel_aftertouch_c, 5, 60
9, 90468, Channel_aftertouch_c, 5, 64
9, 90480, Channel_aftertouch_c, 5, 66
9, 90516, Channel_aftertouch_c, 5, 63
9, 90528, Channel_aftertouch_c, 5, 59
9, 90560, Channel_aftertouch_c, 5, 64
9, 90572, Channel_aftertouch_c, 5, 67
9, 90584, Channel_aftertouch_c, 5, 68
9, 90608, Channel_aftertouch_c, 5, 65
9, 90620, Channel_aftertouch_c, 5, 61
9, 90632, Channel_aftertouch_c, 5, 56
9, 90644, Channel_aftertouch_c, 5, 51
9, 90656, Channel_aftertouch_c, 5, 44
9, 90668, Channel_aftertouch_c, 5, 29
9, 90680, Channel_aftertouch_c, 5, 8
9, 90692, Channel_aftertouch_c, 5, 7
9, 90704, Channel_aftertouch_c, 5, 6
9, 90716, Channel_aftertouch_c, 5, 6
9, 90728, Channel_aftertouch_c, 5, 5
9, 90740, Note_on_c, 5, 59, 0
9, 90740, Channel_aftertouch_c, 5, 3
9, 90760, Channel_aftertouch_c, 5, 0
9, 90772, Channel_aftertouch_c, 5, 0
9, 90816, Note_on_c, 5, 59, 96
9, 90984, Channel_aftertouch_c, 5, 3
9, 90996, Channel_aftertouch_c, 5, 33
9, 91008, Note_on_c, 5, 67, 108
9, 91008, Channel_aftertouch_c, 5, 28
9, 91024, Channel_aftertouch_c, 5, 65
9, 91036, Channel_aftertouch_c, 5, 82
9, 91048, Channel_aftertouch_c, 5, 74
9, 91056, Note_on_c, 5, 59, 0
9, 91060, Channel_aftertouch_c, 5, 72
9, 91068, Channel_aftertouch_c, 5, 71
9, 91080, Channel_aftertouch_c, 5, 69
9, 91092, Channel_aftertouch_c, 5, 68
9, 91128, Channel_aftertouch_c, 5, 67
9, 91140, Channel_aftertouch_c, 5, 66
9, 91152, Channel_aftertouch_c, 5, 65
9, 91160, Channel_aftertouch_c, 5, 63
9, 91176, Channel_aftertouch_c, 5, 60
9, 91184, Channel_aftertouch_c, 5, 56
9, 91200, Note_on_c, 5, 59, 89
9, 91200, Channel_aftertouch_c, 5, 54
9, 91208, Channel_aftertouch_c, 5, 52
9, 91224, Channel_aftertouch_c, 5, 87
9, 91236, Channel_aftertouch_c, 5, 77
9, 91248, Channel_aftertouch_c, 5, 67
9, 91260, Channel_aftertouch_c, 5, 53
9, 91272, Channel_aftertouch_c, 5, 42
9, 91284, Channel_aftertouch_c, 5, 17
9, 91296, Channel_aftertouch_c, 5, 0
9, 91384, Channel_aftertouch_c, 5, 30
9, 91392, Note_on_c, 5, 66, 117
9, 91396, Channel_aftertouch_c, 5, 54
9, 91408, Channel_aftertouch_c, 5, 45
9, 91420, Channel_aftertouch_c, 5, 10
9, 91428, Note_on_c, 5, 67, 0
9, 91432, Note_on_c, 5, 59, 0
9, 91432, Channel_aftertouch_c, 5, 39
9, 91440, Channel_aftertouch_c, 5, 26
9, 91452, Channel_aftertouch_c, 5, 0
9, 91512, Note_on_c, 5, 64, 0
9, 91584, Note_on_c, 5, 59, 21
9, 91704, Note_on_c, 5, 59, 0
9, 91776, Note_on_c, 5, 59, 76
9, 91912, Note_on_c, 5, 66, 0
9, 91968, Note_on_c, 5, 64, 92
9, 91980, Channel_aftertouch_c, 5, 8
9, 91992, Note_on_c, 5, 59, 0
9, 91992, Channel_aftertouch_c, 5, 0
9, 92004, Channel_aftertouch_c, 5, 5
9, 92016, Channel_aftertouch_c, 5, 8
9, 92024, Channel_aftertouch_c, 5, 11
9, 92032, Note_on_c, 5, 59, 0
9, 92040, Channel_aftertouch_c, 5, 13
9, 92048, Channel_aftertouch_c, 5, 14
9, 92064, Channel_aftertouch_c, 5, 16
9, 92072, Channel_aftertouch_c, 5, 17
9, 92096, Channel_aftertouch_c, 5, 15
9, 92108, Channel_aftertouch_c, 5, 14
9, 92132, Channel_aftertouch_c, 5, 14
9, 92144, Channel_aftertouch_c, 5, 13
9, 92160, Note_on_c, 5, 62, 67
9, 92168, Channel_aftertouch_c, 5, 13
9, 92184, Note_on_c, 5, 62, 0
9, 92192, Channel_aftertouch_c, 5, 17
9, 92228, Channel_aftertouch_c, 5, 17
9, 92252, Channel_aftertouch_c, 5, 15
9, 92276, Channel_aftertouch_c, 5, 18
9, 92284, Channel_aftertouch_c, 5, 19
9, 92308, Channel_aftertouch_c, 5, 17
9, 92320, Channel_aftertouch_c, 5, 13
9, 92332, Channel_aftertouch_c, 5, 8
9, 92344, Channel_aftertouch_c, 5, 0
9, 92352, Note_on_c, 5, 62, 92
9, 92368, Channel_aftertouch_c, 5, 45
9, 92380, Channel_aftertouch_c, 5, 56
9, 92392, Channel_aftertouch_c, 5, 59
9, 92404, Channel_aftertouch_c, 5, 52
9, 92416, Channel_aftertouch_c, 5, 43
9, 92428, Channel_aftertouch_c, 5, 41
9, 92440, Channel_aftertouch_c, 5, 44
9, 92452, Channel_aftertouch_c, 5, 42
9, 92464, Channel_aftertouch_c, 5, 15
9, 92476, Channel_aftertouch_c, 5, 0
9, 92504, Note_on_c, 5, 64, 0
9, 92544, Note_on_c, 5, 64, 92
9, 92568, Channel_aftertouch_c, 5, 54
9, 92584, Channel_aftertouch_c, 5, 21
9, 92592, Note_on_c, 5, 62, 0
9, 92592, Channel_aftertouch_c, 5, 27
9, 92608, Channel_aftertouch_c, 5, 20
9, 92620, Channel_aftertouch_c, 5, 20
9, 92632, Channel_aftertouch_c, 5, 22
9, 92644, Channel_aftertouch_c, 5, 22
9, 92676, Channel_aftertouch_c, 5, 20
9, 92688, Channel_aftertouch_c, 5, 17
9, 92700, Channel_aftertouch_c, 5, 15
9, 92712, Channel_aftertouch_c, 5, 9
9, 92728, Channel_aftertouch_c, 5, 0
9, 92736, Note_on_c, 5, 62, 85
9, 92764, Note_on_c, 5, 64, 0
9, 92928, Note_on_c, 5, 67, 96
9, 92952, Channel_aftertouch_c, 5, 32
9, 92968, Note_on_c, 5, 62, 0
9, 92968, Channel_aftertouch_c, 5, 81
9, 92976, Channel_aftertouch_c, 5, 73
9, 92992, Channel_aftertouch_c, 5, 72
9, 93024, Channel_aftertouch_c, 5, 72
9, 93060, Channel_aftertouch_c, 5, 67
9, 93072, Channel_aftertouch_c, 5, 61
9, 93116, Channel_aftertouch_c, 5, 63
9, 93128, Channel_aftertouch_c, 5, 63
9, 93140, Channel_aftertouch_c, 5, 65
9, 93152, Channel_aftertouch_c, 5, 65
9, 93220, Channel_aftertouch_c, 5, 62
9, 93232, Channel_aftertouch_c, 5, 58
9, 93244, Channel_aftertouch_c, 5, 51
9, 93256, Channel_aftertouch_c, 5, 42
9, 93268, Channel_aftertouch_c, 5, 28
9, 93280, Note_on_c, 5, 67, 0
9, 93280, Channel_aftertouch_c, 5, 0
9, 93312, Note_on_c, 5, 62, 92
9, 93316, Channel_aftertouch_c, 5, 44
9, 93328, Channel_aftertouch_c, 5, 18
9, 93340, Channel_aftertouch_c, 5, 0
9, 93456, Note_on_c, 5, 62, 0
9, 93504, Note_on_c, 5, 64, 85
9, 93504, Channel_aftertouch_c, 5, 10
9, 93516, Channel_aftertouch_c, 5, 24
9, 93528, Channel_aftertouch_c, 5, 28
9, 93540, Channel_aftertouch_c, 5, 28
9, 93552, Channel_aftertouch_c, 5, 31
9, 93564, Channel_aftertouch_c, 5, 34
9, 93576, Channel_aftertouch_c, 5, 37
9, 93588, Channel_aftertouch_c, 5, 39
9, 93600, Channel_aftertouch_c, 5, 40
9, 93612, Channel_aftertouch_c, 5, 41
9, 93624, Channel_aftertouch_c, 5, 42
9, 93636, Channel_aftertouch_c, 5, 43
9, 93692, Channel_aftertouch_c, 5, 43
9, 93728, Channel_aftertouch_c, 5, 40
9, 93736, Channel_aftertouch_c, 5, 38
9, 93784, Channel_aftertouch_c, 5, 37
9, 93792, Channel_aftertouch_c, 5, 34
9, 93808, Channel_aftertouch_c, 5, 29
9, 93820, Channel_aftertouch_c, 5, 25
9, 93832, Channel_aftertouch_c, 5, 21
9, 93844, Channel_aftertouch_c, 5, 18
9, 93856, Channel_aftertouch_c, 5, 17
9, 93868, Channel_aftertouch_c, 5, 15
9, 93880, Channel_aftertouch_c, 5, 14
9, 93888, Note_on_c, 5, 62, 89
9, 93892, Channel_aftertouch_c, 5, 10
9, 93904, Channel_aftertouch_c, 5, 3
9, 93916, Channel_aftertouch_c, 5, 50
9, 93928, Channel_aftertouch_c, 5, 57
9, 93940, Channel_aftertouch_c, 5, 62
9, 93964, Channel_aftertouch_c, 5, 59
9, 93976, Channel_aftertouch_c, 5, 54
9, 94000, Channel_aftertouch_c, 5, 57
9, 94008, Channel_aftertouch_c, 5, 58
9, 94020, Channel_aftertouch_c, 5, 53
9, 94032, Channel_aftertouch_c, 5, 36
9, 94048, Channel_aftertouch_c, 5, 0
9, 94068, Channel_aftertouch_c, 5, 5
9, 94080, Note_on_c, 5, 67, 108
9, 94080, Channel_aftertouch_c, 5, 25
9, 94092, Channel_aftertouch_c, 5, 8
9, 94104, Note_on_c, 5, 62, 0
9, 94104, Channel_aftertouch_c, 5, 16
9, 94120, Channel_aftertouch_c, 5, 58
9, 94128, Channel_aftertouch_c, 5, 65
9, 94140, Channel_aftertouch_c, 5, 55
9, 94152, Channel_aftertouch_c, 5, 50
9, 94176, Channel_aftertouch_c, 5, 55
9, 94188, Channel_aftertouch_c, 5, 57
9, 94220, Channel_aftertouch_c, 5, 55
9, 94232, Channel_aftertouch_c, 5, 49
9, 94248, Channel_aftertouch_c, 5, 40
9, 94256, Channel_aftertouch_c, 5, 27
9, 94268, Channel_aftertouch_c, 5, 18
9, 94272, Note_on_c, 5, 62, 92
9, 94284, Channel_aftertouch_c, 5, 29
9, 94292, Channel_aftertouch_c, 5, 30
9, 94308, Channel_aftertouch_c, 5, 7
9, 94320, Channel_aftertouch_c, 5, 0
9, 94440, Note_on_c, 5, 64, 0
9, 94464, Note_on_c, 5, 66, 117
9, 94492, Note_on_c, 5, 67, 0
9, 94500, Note_on_c, 5, 62, 0
9, 94848, Note_on_c, 5, 62, 92
9, 94896, Note_on_c, 5, 66, 0
9, 95040, Note_on_c, 5, 64, 96
9, 95052, Channel_aftertouch_c, 5, 39
9, 95064, Channel_aftertouch_c, 5, 40
9, 95076, Channel_aftertouch_c, 5, 38
9, 95088, Channel_aftertouch_c, 5, 20
9, 95100, Channel_aftertouch_c, 5, 9
9, 95112, Channel_aftertouch_c, 5, 18
9, 95124, Channel_aftertouch_c, 5, 26
9, 95148, Channel_aftertouch_c, 5, 14
9, 95160, Channel_aftertouch_c, 5, 5
9, 95184, Channel_aftertouch_c, 5, 5
9, 95192, Channel_aftertouch_c, 5, 4
9, 95204, Channel_aftertouch_c, 5, 2
9, 95216, Channel_aftertouch_c, 5, 0
9, 95340, Note_on_c, 5, 62, 0
9, 95424, Note_on_c, 5, 62, 76
9, 95472, Note_on_c, 5, 64, 0
9, 95616, Note_on_c, 5, 67, 104
9, 95636, Channel_aftertouch_c, 5, 39
9, 95648, Channel_aftertouch_c, 5, 34
9, 95660, Channel_aftertouch_c, 5, 28
9, 95672, Channel_aftertouch_c, 5, 11
9, 95684, Channel_aftertouch_c, 5, 0
9, 95696, Note_on_c, 5, 62, 0
9, 95808, Note_on_c, 5, 62, 76
9, 95908, Note_on_c, 5, 67, 0
9, 96000, Note_on_c, 5, 67, 64
9, 96000, Note_on_c, 5, 66, 117
9, 96016, Note_on_c, 5, 67, 0
9, 96036, Channel_aftertouch_c, 5, 13
9, 96048, Channel_aftertouch_c, 5, 0
9, 96288, Note_on_c, 5, 62, 0
9, 96360, Channel_aftertouch_c, 5, 15
9, 96368, Channel_aftertouch_c, 5, 0
9, 96384, Note_on_c, 5, 62, 82
9, 96408, Note_on_c, 5, 66, 0
9, 96576, Note_on_c, 5, 64, 89
9, 96580, Channel_aftertouch_c, 5, 7
9, 96604, Channel_aftertouch_c, 5, 16
9, 96616, Channel_aftertouch_c, 5, 19
9, 96628, Channel_aftertouch_c, 5, 19
9, 96640, Channel_aftertouch_c, 5, 21
9, 96648, Note_on_c, 5, 62, 0
9, 96656, Channel_aftertouch_c, 5, 19
9, 96664, Channel_aftertouch_c, 5, 23
9, 96672, Note_on_c, 5, 62, 9
9, 96688, Channel_aftertouch_c, 5, 20
9, 96736, Channel_aftertouch_c, 5, 16
9, 96748, Channel_aftertouch_c, 5, 12
9, 96760, Channel_aftertouch_c, 5, 10
9, 96772, Channel_aftertouch_c, 5, 13
9, 96784, Channel_aftertouch_c, 5, 15
9, 96796, Channel_aftertouch_c, 5, 17
9, 96808, Note_on_c, 5, 62, 0
9, 96808, Channel_aftertouch_c, 5, 18
9, 96816, Channel_aftertouch_c, 5, 18
9, 96832, Channel_aftertouch_c, 5, 20
9, 96848, Channel_aftertouch_c, 5, 22
9, 96856, Channel_aftertouch_c, 5, 23
9, 96868, Channel_aftertouch_c, 5, 24
9, 96892, Channel_aftertouch_c, 5, 21
9, 96904, Channel_aftertouch_c, 5, 19
9, 96916, Channel_aftertouch_c, 5, 15
9, 96940, Channel_aftertouch_c, 5, 10
9, 96952, Channel_aftertouch_c, 5, 0
9, 96960, Note_on_c, 5, 62, 96
9, 97012, Note_on_c, 5, 64, 0
9, 97152, Note_on_c, 5, 67, 104
9, 97200, Note_on_c, 5, 62, 0
9, 97344, Note_on_c, 5, 62, 79
9, 97492, Note_on_c, 5, 67, 0
9, 97536, Note_on_c, 5, 67, 30
9, 97536, Note_on_c, 5, 66, 117
9, 97552, Note_on_c, 5, 67, 0
9, 97628, Note_on_c, 5, 62, 0
9, 97920, Note_on_c, 5, 62, 96
9, 97956, Note_on_c, 5, 66, 0
9, 98112, Control_c, 5, 7, 85
9, 98112, Note_on_c, 5, 67, 108
9, 98116, Control_c, 5, 7, 85
9, 98124, Control_c, 5, 7, 85
9, 98128, Control_c, 5, 7, 85
9, 98128, Channel_aftertouch_c, 5, 31
9, 98136, Control_c, 5, 7, 85
9, 98144, Control_c, 5, 7, 85
9, 98144, Channel_aftertouch_c, 5, 37
9, 98148, Control_c, 5, 7, 84
9, 98152, Channel_aftertouch_c, 5, 28
9, 98156, Control_c, 5, 7, 84
9, 98160, Control_c, 5, 7, 85
9, 98168, Channel_aftertouch_c, 5, 27
9, 98168, Control_c, 5, 7, 85
9, 98176, Control_c, 5, 7, 85
9, 98176, Channel_aftertouch_c, 5, 30
9, 98180, Control_c, 5, 7, 85
9, 98188, Control_c, 5, 7, 85
9, 98192, Control_c, 5, 7, 85
9, 98200, Control_c, 5, 7, 85
9, 98200, Channel_aftertouch_c, 5, 25
9, 98208, Control_c, 5, 7, 85
9, 98212, Control_c, 5, 7, 84
9, 98212, Channel_aftertouch_c, 5, 24
9, 98220, Control_c, 5, 7, 84
9, 98224, Control_c, 5, 7, 84
9, 98224, Channel_aftertouch_c, 5, 22
9, 98232, Control_c, 5, 7, 84
9, 98236, Channel_aftertouch_c, 5, 25
9, 98240, Control_c, 5, 7, 85
9, 98244, Control_c, 5, 7, 85
9, 98248, Channel_aftertouch_c, 5, 30
9, 98252, Control_c, 5, 7, 85
9, 98256, Control_c, 5, 7, 85
9, 98260, Channel_aftertouch_c, 5, 32
9, 98264, Control_c, 5, 7, 84
9, 98272, Control_c, 5, 7, 83
9, 98272, Channel_aftertouch_c, 5, 33
9, 98276, Control_c, 5, 7, 83
9, 98284, Control_c, 5, 7, 84
9, 98288, Control_c, 5, 7, 84
9, 98296, Control_c, 5, 7, 84
9, 98296, Channel_aftertouch_c, 5, 29
9, 98304, Note_on_c, 5, 62, 0
9, 98304, Control_c, 5, 7, 84
9, 98308, Control_c, 5, 7, 84
9, 98316, Control_c, 5, 7, 84
9, 98320, Control_c, 5, 7, 84
9, 98328, Control_c, 5, 7, 84
9, 98336, Control_c, 5, 7, 84
9, 98340, Control_c, 5, 7, 84
9, 98348, Control_c, 5, 7, 84
9, 98352, Control_c, 5, 7, 84
9, 98360, Control_c, 5, 7, 84
9, 98368, Control_c, 5, 7, 84
9, 98372, Control_c, 5, 7, 84
9, 98380, Control_c, 5, 7, 84
9, 98384, Control_c, 5, 7, 84
9, 98392, Control_c, 5, 7, 84
9, 98400, Control_c, 5, 7, 84
9, 98404, Control_c, 5, 7, 84
9, 98412, Control_c, 5, 7, 83
9, 98416, Control_c, 5, 7, 83
9, 98424, Control_c, 5, 7, 83
9, 98432, Control_c, 5, 7, 83
9, 98436, Control_c, 5, 7, 83
9, 98444, Control_c, 5, 7, 83
9, 98448, Control_c, 5, 7, 82
9, 98456, Control_c, 5, 7, 81
9, 98464, Control_c, 5, 7, 85
9, 98468, Control_c, 5, 7, 81
9, 98476, Control_c, 5, 7, 81
9, 98480, Control_c, 5, 7, 80
9, 98488, Control_c, 5, 7, 80
9, 98496, Control_c, 5, 7, 79
9, 98500, Control_c, 5, 7, 79
9, 98508, Control_c, 5, 7, 78
9, 98512, Control_c, 5, 7, 78
9, 98520, Control_c, 5, 7, 78
9, 98528, Control_c, 5, 7, 78
9, 98532, Control_c, 5, 7, 78
9, 98540, Control_c, 5, 7, 78
9, 98544, Control_c, 5, 7, 78
9, 98552, Control_c, 5, 7, 78
9, 98560, Control_c, 5, 7, 78
9, 98564, Control_c, 5, 7, 77
9, 98572, Control_c, 5, 7, 77
9, 98576, Control_c, 5, 7, 77
9, 98584, Control_c, 5, 7, 77
9, 98592, Control_c, 5, 7, 77
9, 98596, Control_c, 5, 7, 77
9, 98604, Control_c, 5, 7, 76
9, 98608, Control_c, 5, 7, 76
9, 98616, Control_c, 5, 7, 76
9, 98624, Control_c, 5, 7, 76
9, 98628, Control_c, 5, 7, 76
9, 98636, Control_c, 5, 7, 76
9, 98640, Control_c, 5, 7, 75
9, 98648, Control_c, 5, 7, 75
9, 98656, Control_c, 5, 7, 74
9, 98660, Control_c, 5, 7, 74
9, 98668, Control_c, 5, 7, 74
9, 98672, Control_c, 5, 7, 74
9, 98680, Control_c, 5, 7, 73
9, 98688, Note_on_c, 5, 67, 0
9, 98688, Control_c, 5, 7, 73
9, 98692, Control_c, 5, 7, 72
9, 98700, Control_c, 5, 7, 71
9, 98704, Control_c, 5, 7, 71
9, 98712, Control_c, 5, 7, 71
9, 98720, Control_c, 5, 7, 71
9, 98724, Control_c, 5, 7, 70
9, 98732, Control_c, 5, 7, 70
9, 98736, Control_c, 5, 7, 70
9, 98744, Control_c, 5, 7, 69
9, 98752, Control_c, 5, 7, 69
9, 98756, Control_c, 5, 7, 69
9, 98764, Control_c, 5, 7, 68
9, 98768, Control_c, 5, 7, 67
9, 98776, Control_c, 5, 7, 67
9, 98784, Control_c, 5, 7, 67
9, 98788, Control_c, 5, 7, 66
9, 98796, Control_c, 5, 7, 66
9, 98800, Control_c, 5, 7, 66
9, 98808, Control_c, 5, 7, 66
9, 98816, Control_c, 5, 7, 66
9, 98820, Control_c, 5, 7, 65
9, 98828, Control_c, 5, 7, 64
9, 98832, Control_c, 5, 7, 64
9, 98840, Control_c, 5, 7, 64
9, 98848, Control_c, 5, 7, 63
9, 98852, Control_c, 5, 7, 63
9, 98860, Control_c, 5, 7, 63
9, 98864, Control_c, 5, 7, 63
9, 98872, Control_c, 5, 7, 62
9, 98880, Control_c, 5, 7, 62
9, 98884, Control_c, 5, 7, 61
9, 98892, Control_c, 5, 7, 61
9, 98896, Control_c, 5, 7, 60
9, 98904, Control_c, 5, 7, 60
9, 98912, Control_c, 5, 7, 59
9, 98916, Control_c, 5, 7, 59
9, 98924, Control_c, 5, 7, 58
9, 98928, Control_c, 5, 7, 57
9, 98936, Control_c, 5, 7, 56
9, 98944, Control_c, 5, 7, 56
9, 98948, Control_c, 5, 7, 55
9, 98956, Control_c, 5, 7, 54
9, 98960, Control_c, 5, 7, 54
9, 98968, Control_c, 5, 7, 53
9, 98976, Control_c, 5, 7, 53
9, 98980, Control_c, 5, 7, 53
9, 98988, Control_c, 5, 7, 52
9, 98992, Control_c, 5, 7, 52
9, 99000, Control_c, 5, 7, 50
9, 99008, Control_c, 5, 7, 50
9, 99012, Control_c, 5, 7, 49
9, 99020, Control_c, 5, 7, 49
9, 99024, Control_c, 5, 7, 48
9, 99032, Control_c, 5, 7, 48
9, 99040, Control_c, 5, 7, 47
9, 99044, Control_c, 5, 7, 47
9, 99052, Control_c, 5, 7, 46
9, 99056, Control_c, 5, 7, 45
9, 99064, Control_c, 5, 7, 45
9, 99072, Control_c, 5, 7, 44
9, 99076, Control_c, 5, 7, 43
9, 99084, Control_c, 5, 7, 43
9, 99088, Control_c, 5, 7, 42
9, 99096, Control_c, 5, 7, 41
9, 99104, Control_c, 5, 7, 41
9, 99108, Control_c, 5, 7, 40
9, 99116, Control_c, 5, 7, 38
9, 99120, Control_c, 5, 7, 37
9, 99128, Control_c, 5, 7, 37
9, 99136, Control_c, 5, 7, 36
9, 99140, Control_c, 5, 7, 36
9, 99148, Control_c, 5, 7, 35
9, 99152, Control_c, 5, 7, 35
9, 99160, Control_c, 5, 7, 34
9, 99168, Control_c, 5, 7, 33
9, 99172, Control_c, 5, 7, 32
9, 99180, Control_c, 5, 7, 31
9, 99184, Control_c, 5, 7, 30
9, 99192, Control_c, 5, 7, 30
9, 99200, Control_c, 5, 7, 29
9, 100728, Control_c, 5, 7, 85
9, 132096, Control_c, 5, 7, 75
9, 132096, Program_c, 5, 26
9, 135168, Note_on_c, 5, 66, 76
9, 135168, Note_on_c, 5, 61, 45
9, 135168, Control_c, 5, 93, 60
9, 135168, Pitch_bend_c, 5, 8320
9, 135232, Note_on_c, 5, 61, 0
9, 135344, Channel_aftertouch_c, 5, 35
9, 135360, Note_on_c, 5, 61, 70
9, 135360, Channel_aftertouch_c, 5, 0
9, 135404, Channel_aftertouch_c, 5, 2
9, 135416, Channel_aftertouch_c, 5, 3
9, 135428, Channel_aftertouch_c, 5, 1
9, 135448, Channel_aftertouch_c, 5, 4
9, 135472, Channel_aftertouch_c, 5, 0
9, 135552, Note_on_c, 5, 69, 100
9, 135552, Channel_aftertouch_c, 5, 4
9, 135564, Channel_aftertouch_c, 5, 56
9, 135576, Channel_aftertouch_c, 5, 91
9, 135588, Channel_aftertouch_c, 5, 92
9, 135600, Channel_aftertouch_c, 5, 88
9, 135612, Channel_aftertouch_c, 5, 79
9, 135624, Channel_aftertouch_c, 5, 59
9, 135636, Channel_aftertouch_c, 5, 59
9, 135664, Channel_aftertouch_c, 5, 58
9, 135672, Channel_aftertouch_c, 5, 55
9, 135680, Note_on_c, 5, 61, 0
9, 135684, Channel_aftertouch_c, 5, 53
9, 135696, Channel_aftertouch_c, 5, 50
9, 135712, Channel_aftertouch_c, 5, 47
9, 135724, Channel_aftertouch_c, 5, 41
9, 135736, Channel_aftertouch_c, 5, 52
9, 135744, Note_on_c, 5, 61, 41
9, 135748, Channel_aftertouch_c, 5, 62
9, 135772, Channel_aftertouch_c, 5, 55
9, 135784, Channel_aftertouch_c, 5, 38
9, 135796, Channel_aftertouch_c, 5, 0
9, 135808, Channel_aftertouch_c, 5, 0
9, 135936, Note_on_c, 5, 68, 117
9, 135940, Channel_aftertouch_c, 5, 63
9, 135952, Channel_aftertouch_c, 5, 80
9, 135960, Note_on_c, 5, 69, 0
9, 135964, Channel_aftertouch_c, 5, 69
9, 135976, Channel_aftertouch_c, 5, 58
9, 135988, Channel_aftertouch_c, 5, 45
9, 136000, Channel_aftertouch_c, 5, 44
9, 136012, Channel_aftertouch_c, 5, 27
9, 136024, Channel_aftertouch_c, 5, 0
9, 136052, Note_on_c, 5, 66, 0
9, 136224, Note_on_c, 5, 66, 22
9, 136264, Note_on_c, 5, 61, 0
9, 136320, Note_on_c, 5, 61, 85
9, 136360, Note_on_c, 5, 66, 0
9, 136384, Note_on_c, 5, 68, 0
9, 136512, Note_on_c, 5, 66, 92
9, 136524, Channel_aftertouch_c, 5, 50
9, 136536, Channel_aftertouch_c, 5, 60
9, 136548, Channel_aftertouch_c, 5, 64
9, 136560, Channel_aftertouch_c, 5, 66
9, 136596, Channel_aftertouch_c, 5, 63
9, 136608, Channel_aftertouch_c, 5, 59
9, 136640, Channel_aftertouch_c, 5, 64
9, 136652, Channel_aftertouch_c, 5, 67
9, 136664, Channel_aftertouch_c, 5, 68
9, 136688, Channel_aftertouch_c, 5, 65
9, 136700, Channel_aftertouch_c, 5, 61
9, 136712, Channel_aftertouch_c, 5, 56
9, 136724, Channel_aftertouch_c, 5, 51
9, 136736, Channel_aftertouch_c, 5, 44
9, 136748, Channel_aftertouch_c, 5, 29
9, 136760, Channel_aftertouch_c, 5, 8
9, 136772, Channel_aftertouch_c, 5, 7
9, 136784, Channel_aftertouch_c, 5, 6
9, 136796, Channel_aftertouch_c, 5, 6
9, 136808, Channel_aftertouch_c, 5, 5
9, 136820, Note_on_c, 5, 61, 0
9, 136820, Channel_aftertouch_c, 5, 3
9, 136840, Channel_aftertouch_c, 5, 0
9, 136852, Channel_aftertouch_c, 5, 0
9, 136896, Note_on_c, 5, 61, 96
9, 137064, Channel_aftertouch_c, 5, 3
9, 137076, Channel_aftertouch_c, 5, 33
9, 137088, Note_on_c, 5, 69, 108
9, 137088, Channel_aftertouch_c, 5, 28
9, 137104, Channel_aftertouch_c, 5, 65
9, 137116, Channel_aftertouch_c, 5, 82
9, 137128, Channel_aftertouch_c, 5, 74
9, 137136, Note_on_c, 5, 61, 0
9, 137140, Channel_aftertouch_c, 5, 72
9, 137148, Channel_aftertouch_c, 5, 71
9, 137160, Channel_aftertouch_c, 5, 69
9, 137172, Channel_aftertouch_c, 5, 68
9, 137208, Channel_aftertouch_c, 5, 67
9, 137220, Channel_aftertouch_c, 5, 66
9, 137232, Channel_aftertouch_c, 5, 65
9, 137240, Channel_aftertouch_c, 5, 63
9, 137256, Channel_aftertouch_c, 5, 60
9, 137264, Channel_aftertouch_c, 5, 56
9, 137280, Note_on_c, 5, 61, 89
9, 137280, Channel_aftertouch_c, 5, 54
9, 137288, Channel_aftertouch_c, 5, 52
9, 137304, Channel_aftertouch_c, 5, 87
9, 137316, Channel_aftertouch_c, 5, 77
9, 137328, Channel_aftertouch_c, 5, 67
9, 137340, Channel_aftertouch_c, 5, 53
9, 137352, Channel_aftertouch_c, 5, 42
9, 137364, Channel_aftertouch_c, 5, 17
9, 137376, Channel_aftertouch_c, 5, 0
9, 137464, Channel_aftertouch_c, 5, 30
9, 137472, Note_on_c, 5, 68, 117
9, 137476, Channel_aftertouch_c, 5, 54
9, 137488, Channel_aftertouch_c, 5, 45
9, 137500, Channel_aftertouch_c, 5, 10
9, 137508, Note_on_c, 5, 69, 0
9, 137512, Note_on_c, 5, 61, 0
9, 137512, Channel_aftertouch_c, 5, 39
9, 137520, Channel_aftertouch_c, 5, 26
9, 137532, Channel_aftertouch_c, 5, 0
9, 137592, Note_on_c, 5, 66, 0
9, 137664, Note_on_c, 5, 61, 21
9, 137784, Note_on_c, 5, 61, 0
9, 137856, Note_on_c, 5, 61, 76
9, 137992, Note_on_c, 5, 68, 0
9, 138048, Note_on_c, 5, 66, 92
9, 138060, Channel_aftertouch_c, 5, 8
9, 138072, Note_on_c, 5, 61, 0
9, 138072, Channel_aftertouch_c, 5, 0
9, 138084, Channel_aftertouch_c, 5, 5
9, 138096, Channel_aftertouch_c, 5, 8
9, 138104, Channel_aftertouch_c, 5, 11
9, 138120, Channel_aftertouch_c, 5, 13
9, 138128, Channel_aftertouch_c, 5, 14
9, 138144, Channel_aftertouch_c, 5, 16
9, 138152, Channel_aftertouch_c, 5, 17
9, 138176, Channel_aftertouch_c, 5, 15
9, 138188, Channel_aftertouch_c, 5, 14
9, 138212, Channel_aftertouch_c, 5, 14
9, 138224, Channel_aftertouch_c, 5, 13
9, 138240, Note_on_c, 5, 64, 67
9, 138248, Channel_aftertouch_c, 5, 13
9, 138264, Note_on_c, 5, 64, 0
9, 138272, Channel_aftertouch_c, 5, 17
9, 138308, Channel_aftertouch_c, 5, 17
9, 138332, Channel_aftertouch_c, 5, 15
9, 138356, Channel_aftertouch_c, 5, 18
9, 138364, Channel_aftertouch_c, 5, 19
9, 138388, Channel_aftertouch_c, 5, 17
9, 138400, Channel_aftertouch_c, 5, 13
9, 138412, Channel_aftertouch_c, 5, 8
9, 138424, Channel_aftertouch_c, 5, 0
9, 138432, Note_on_c, 5, 64, 92
9, 138448, Channel_aftertouch_c, 5, 45
9, 138460, Channel_aftertouch_c, 5, 56
9, 138472, Channel_aftertouch_c, 5, 59
9, 138484, Channel_aftertouch_c, 5, 52
9, 138496, Channel_aftertouch_c, 5, 43
9, 138508, Channel_aftertouch_c, 5, 41
9, 138520, Channel_aftertouch_c, 5, 44
9, 138532, Channel_aftertouch_c, 5, 42
9, 138544, Channel_aftertouch_c, 5, 15
9, 138556, Channel_aftertouch_c, 5, 0
9, 138584, Note_on_c, 5, 66, 0
9, 138624, Note_on_c, 5, 66, 92
9, 138648, Channel_aftertouch_c, 5, 54
9, 138664, Channel_aftertouch_c, 5, 21
9, 138672, Note_on_c, 5, 64, 0
9, 138672, Channel_aftertouch_c, 5, 27
9, 138688, Channel_aftertouch_c, 5, 20
9, 138700, Channel_aftertouch_c, 5, 20
9, 138712, Channel_aftertouch_c, 5, 22
9, 138724, Channel_aftertouch_c, 5, 22
9, 138756, Channel_aftertouch_c, 5, 20
9, 138768, Channel_aftertouch_c, 5, 17
9, 138780, Channel_aftertouch_c, 5, 15
9, 138792, Channel_aftertouch_c, 5, 9
9, 138808, Channel_aftertouch_c, 5, 0
9, 138816, Note_on_c, 5, 64, 85
9, 138844, Note_on_c, 5, 66, 0
9, 139008, Note_on_c, 5, 69, 96
9, 139032, Channel_aftertouch_c, 5, 32
9, 139048, Note_on_c, 5, 64, 0
9, 139048, Channel_aftertouch_c, 5, 81
9, 139056, Channel_aftertouch_c, 5, 73
9, 139072, Channel_aftertouch_c, 5, 72
9, 139104, Channel_aftertouch_c, 5, 72
9, 139140, Channel_aftertouch_c, 5, 67
9, 139152, Channel_aftertouch_c, 5, 61
9, 139196, Channel_aftertouch_c, 5, 63
9, 139208, Channel_aftertouch_c, 5, 63
9, 139220, Channel_aftertouch_c, 5, 65
9, 139232, Channel_aftertouch_c, 5, 65
9, 139300, Channel_aftertouch_c, 5, 62
9, 139312, Channel_aftertouch_c, 5, 58
9, 139324, Channel_aftertouch_c, 5, 51
9, 139336, Channel_aftertouch_c, 5, 42
9, 139348, Channel_aftertouch_c, 5, 28
9, 139360, Note_on_c, 5, 69, 0
9, 139360, Channel_aftertouch_c, 5, 0
9, 139392, Note_on_c, 5, 64, 92
9, 139396, Channel_aftertouch_c, 5, 44
9, 139408, Channel_aftertouch_c, 5, 18
9, 139420, Channel_aftertouch_c, 5, 0
9, 139536, Note_on_c, 5, 64, 0
9, 139584, Note_on_c, 5, 66, 85
9, 139584, Channel_aftertouch_c, 5, 10
9, 139596, Channel_aftertouch_c, 5, 24
9, 139608, Channel_aftertouch_c, 5, 28
9, 139620, Channel_aftertouch_c, 5, 28
9, 139632, Channel_aftertouch_c, 5, 31
9, 139644, Channel_aftertouch_c, 5, 34
9, 139656, Channel_aftertouch_c, 5, 37
9, 139668, Channel_aftertouch_c, 5, 39
9, 139680, Channel_aftertouch_c, 5, 40
9, 139692, Channel_aftertouch_c, 5, 41
9, 139704, Channel_aftertouch_c, 5, 42
9, 139716, Channel_aftertouch_c, 5, 43
9, 139772, Channel_aftertouch_c, 5, 43
9, 139808, Channel_aftertouch_c, 5, 40
9, 139816, Channel_aftertouch_c, 5, 38
9, 139864, Channel_aftertouch_c, 5, 37
9, 139872, Channel_aftertouch_c, 5, 34
9, 139888, Channel_aftertouch_c, 5, 29
9, 139900, Channel_aftertouch_c, 5, 25
9, 139912, Channel_aftertouch_c, 5, 21
9, 139924, Channel_aftertouch_c, 5, 18
9, 139936, Channel_aftertouch_c, 5, 17
9, 139948, Channel_aftertouch_c, 5, 15
9, 139960, Channel_aftertouch_c, 5, 14
9, 139968, Note_on_c, 5, 64, 89
9, 139972, Channel_aftertouch_c, 5, 10
9, 139984, Channel_aftertouch_c, 5, 3
9, 139996, Channel_aftertouch_c, 5, 50
9, 140008, Channel_aftertouch_c, 5, 57
9, 140020, Channel_aftertouch_c, 5, 62
9, 140044, Channel_aftertouch_c, 5, 59
9, 140056, Channel_aftertouch_c, 5, 54
9, 140080, Channel_aftertouch_c, 5, 57
9, 140088, Channel_aftertouch_c, 5, 58
9, 140100, Channel_aftertouch_c, 5, 53
9, 140112, Channel_aftertouch_c, 5, 36
9, 140128, Channel_aftertouch_c, 5, 0
9, 140148, Channel_aftertouch_c, 5, 5
9, 140160, Note_on_c, 5, 69, 108
9, 140160, Channel_aftertouch_c, 5, 25
9, 140172, Channel_aftertouch_c, 5, 8
9, 140184, Note_on_c, 5, 64, 0
9, 140184, Channel_aftertouch_c, 5, 16
9, 140200, Channel_aftertouch_c, 5, 58
9, 140208, Channel_aftertouch_c, 5, 65
9, 140220, Channel_aftertouch_c, 5, 55
9, 140232, Channel_aftertouch_c, 5, 50
9, 140256, Channel_aftertouch_c, 5, 55
9, 140268, Channel_aftertouch_c, 5, 57
9, 140300, Channel_aftertouch_c, 5, 55
9, 140312, Channel_aftertouch_c, 5, 49
9, 140328, Channel_aftertouch_c, 5, 40
9, 140336, Channel_aftertouch_c, 5, 27
9, 140348, Channel_aftertouch_c, 5, 18
9, 140352, Note_on_c, 5, 64, 92
9, 140364, Channel_aftertouch_c, 5, 29
9, 140372, Channel_aftertouch_c, 5, 30
9, 140388, Channel_aftertouch_c, 5, 7
9, 140400, Channel_aftertouch_c, 5, 0
9, 140520, Note_on_c, 5, 66, 0
9, 140544, Note_on_c, 5, 68, 117
9, 140572, Note_on_c, 5, 69, 0
9, 140580, Note_on_c, 5, 64, 0
9, 140928, Note_on_c, 5, 64, 92
9, 140976, Note_on_c, 5, 68, 0
9, 141120, Note_on_c, 5, 66, 96
9, 141132, Channel_aftertouch_c, 5, 39
9, 141144, Channel_aftertouch_c, 5, 40
9, 141156, Channel_aftertouch_c, 5, 38
9, 141168, Channel_aftertouch_c, 5, 20
9, 141180, Channel_aftertouch_c, 5, 9
9, 141192, Channel_aftertouch_c, 5, 18
9, 141204, Channel_aftertouch_c, 5, 26
9, 141228, Channel_aftertouch_c, 5, 14
9, 141240, Channel_aftertouch_c, 5, 5
9, 141264, Channel_aftertouch_c, 5, 5
9, 141272, Channel_aftertouch_c, 5, 4
9, 141284, Channel_aftertouch_c, 5, 2
9, 141296, Channel_aftertouch_c, 5, 0
9, 141420, Note_on_c, 5, 64, 0
9, 141504, Note_on_c, 5, 64, 76
9, 141552, Note_on_c, 5, 66, 0
9, 141696, Note_on_c, 5, 69, 104
9, 141716, Channel_aftertouch_c, 5, 39
9, 141728, Channel_aftertouch_c, 5, 34
9, 141740, Channel_aftertouch_c, 5, 28
9, 141752, Channel_aftertouch_c, 5, 11
9, 141764, Channel_aftertouch_c, 5, 0
9, 141776, Note_on_c, 5, 64, 0
9, 141888, Note_on_c, 5, 64, 76
9, 141988, Note_on_c, 5, 69, 0
9, 142080, Note_on_c, 5, 68, 117
9, 142080, Note_on_c, 5, 69, 64
9, 142096, Note_on_c, 5, 69, 0
9, 142116, Channel_aftertouch_c, 5, 13
9, 142128, Channel_aftertouch_c, 5, 0
9, 142368, Note_on_c, 5, 64, 0
9, 142440, Channel_aftertouch_c, 5, 15
9, 142448, Channel_aftertouch_c, 5, 0
9, 142464, Note_on_c, 5, 64, 82
9, 142488, Note_on_c, 5, 68, 0
9, 142656, Note_on_c, 5, 66, 89
9, 142660, Channel_aftertouch_c, 5, 7
9, 142684, Channel_aftertouch_c, 5, 16
9, 142696, Channel_aftertouch_c, 5, 19
9, 142708, Channel_aftertouch_c, 5, 19
9, 142720, Channel_aftertouch_c, 5, 21
9, 142728, Note_on_c, 5, 64, 0
9, 142736, Channel_aftertouch_c, 5, 19
9, 142744, Channel_aftertouch_c, 5, 23
9, 142752, Note_on_c, 5, 64, 9
9, 142768, Channel_aftertouch_c, 5, 20
9, 142816, Channel_aftertouch_c, 5, 16
9, 142828, Channel_aftertouch_c, 5, 12
9, 142840, Channel_aftertouch_c, 5, 10
9, 142852, Channel_aftertouch_c, 5, 13
9, 142864, Channel_aftertouch_c, 5, 15
9, 142876, Channel_aftertouch_c, 5, 17
9, 142888, Note_on_c, 5, 64, 0
9, 142888, Channel_aftertouch_c, 5, 18
9, 142896, Channel_aftertouch_c, 5, 18
9, 142912, Channel_aftertouch_c, 5, 20
9, 142928, Channel_aftertouch_c, 5, 22
9, 142936, Channel_aftertouch_c, 5, 23
9, 142948, Channel_aftertouch_c, 5, 24
9, 142972, Channel_aftertouch_c, 5, 21
9, 142984, Channel_aftertouch_c, 5, 19
9, 142996, Channel_aftertouch_c, 5, 15
9, 143020, Channel_aftertouch_c, 5, 10
9, 143032, Channel_aftertouch_c, 5, 0
9, 143040, Note_on_c, 5, 64, 96
9, 143092, Note_on_c, 5, 66, 0
9, 143232, Note_on_c, 5, 69, 104
9, 143280, Note_on_c, 5, 64, 0
9, 143424, Note_on_c, 5, 64, 79
9, 143572, Note_on_c, 5, 69, 0
9, 143616, Note_on_c, 5, 68, 117
9, 143616, Note_on_c, 5, 69, 30
9, 143632, Note_on_c, 5, 69, 0
9, 143708, Note_on_c, 5, 64, 0
9, 144000, Note_on_c, 5, 64, 96
9, 144036, Note_on_c, 5, 68, 0
9, 144192, Note_on_c, 5, 69, 108
9, 144208, Channel_aftertouch_c, 5, 31
9, 144224, Channel_aftertouch_c, 5, 37
9, 144232, Channel_aftertouch_c, 5, 28
9, 144248, Channel_aftertouch_c, 5, 27
9, 144256, Channel_aftertouch_c, 5, 30
9, 144280, Channel_aftertouch_c, 5, 25
9, 144292, Channel_aftertouch_c, 5, 24
9, 144304, Channel_aftertouch_c, 5, 22
9, 144316, Channel_aftertouch_c, 5, 25
9, 144328, Channel_aftertouch_c, 5, 30
9, 144340, Channel_aftertouch_c, 5, 32
9, 144352, Channel_aftertouch_c, 5, 33
9, 144376, Channel_aftertouch_c, 5, 29
9, 144384, Note_on_c, 5, 69, 0
9, 144384, Note_on_c, 5, 64, 0
9, 144384, Note_on_c, 5, 64, 64
9, 144384, Note_on_c, 5, 69, 108
9, 144384, Note_on_c, 5, 64, 64
9, 144388, Channel_aftertouch_c, 5, 25
9, 144400, Channel_aftertouch_c, 5, 20
9, 144408, Channel_aftertouch_c, 5, 10
9, 144424, Channel_aftertouch_c, 5, 0
9, 144456, Note_on_c, 5, 64, 0
9, 144480, Note_on_c, 5, 64, 0
9, 144576, Note_on_c, 5, 64, 89
9, 144616, Note_on_c, 5, 69, 0
9, 144768, Note_on_c, 5, 69, 108
9, 144796, Channel_aftertouch_c, 5, 39
9, 144820, Channel_aftertouch_c, 5, 0
9, 144840, Note_on_c, 5, 64, 0
9, 144960, Note_on_c, 5, 64, 62
9, 144964, Channel_aftertouch_c, 5, 10
9, 144976, Channel_aftertouch_c, 5, 0
9, 145152, Note_on_c, 5, 68, 122
9, 145180, Note_on_c, 5, 69, 0
9, 145212, Note_on_c, 5, 64, 0
9, 145248, Note_on_c, 5, 64, 25
9, 145364, Note_on_c, 5, 64, 0
9, 145536, Note_on_c, 5, 64, 89
9, 145608, Note_on_c, 5, 68, 0
9, 145728, Note_on_c, 5, 69, 104
9, 145744, Channel_aftertouch_c, 5, 29
9, 145756, Channel_aftertouch_c, 5, 25
9, 145768, Channel_aftertouch_c, 5, 41
9, 145780, Channel_aftertouch_c, 5, 29
9, 145792, Channel_aftertouch_c, 5, 0
9, 145856, Note_on_c, 5, 64, 0
9, 146108, Note_on_c, 5, 69, 0
9, 146112, Note_on_c, 5, 64, 89
9, 146304, Note_on_c, 5, 69, 104
9, 146344, Channel_aftertouch_c, 5, 30
9, 146356, Channel_aftertouch_c, 5, 0
9, 146396, Note_on_c, 5, 64, 0
9, 146496, Note_on_c, 5, 61, 85
9, 146504, Channel_aftertouch_c, 5, 5
9, 146516, Channel_aftertouch_c, 5, 0
9, 146528, Note_on_c, 5, 69, 0
9, 146688, Note_on_c, 5, 62, 96
9, 146732, Channel_aftertouch_c, 5, 25
9, 146744, Channel_aftertouch_c, 5, 26
9, 146756, Channel_aftertouch_c, 5, 24
9, 146768, Channel_aftertouch_c, 5, 30
9, 146780, Channel_aftertouch_c, 5, 39
9, 146792, Channel_aftertouch_c, 5, 41
9, 146804, Channel_aftertouch_c, 5, 33
9, 146816, Channel_aftertouch_c, 5, 22
9, 146824, Channel_aftertouch_c, 5, 19
9, 146840, Channel_aftertouch_c, 5, 26
9, 146852, Channel_aftertouch_c, 5, 28
9, 146864, Channel_aftertouch_c, 5, 23
9, 146876, Channel_aftertouch_c, 5, 16
9, 146880, Note_on_c, 5, 69, 100
9, 146888, Channel_aftertouch_c, 5, 11
9, 146900, Channel_aftertouch_c, 5, 26
9, 146912, Channel_aftertouch_c, 5, 13
9, 146924, Channel_aftertouch_c, 5, 11
9, 146932, Note_on_c, 5, 61, 0
9, 146936, Channel_aftertouch_c, 5, 0
9, 146960, Note_on_c, 5, 62, 0
9, 147072, Note_on_c, 5, 62, 73
9, 147128, Channel_aftertouch_c, 5, 7
9, 147140, Channel_aftertouch_c, 5, 10
9, 147152, Channel_aftertouch_c, 5, 12
9, 147164, Channel_aftertouch_c, 5, 13
9, 147176, Channel_aftertouch_c, 5, 16
9, 147188, Channel_aftertouch_c, 5, 18
9, 147200, Channel_aftertouch_c, 5, 16
9, 147212, Channel_aftertouch_c, 5, 10
9, 147224, Channel_aftertouch_c, 5, 7
9, 147236, Channel_aftertouch_c, 5, 6
9, 147260, Channel_aftertouch_c, 5, 5
9, 147264, Note_on_c, 5, 61, 79
9, 147284, Channel_aftertouch_c, 5, 3
9, 147296, Channel_aftertouch_c, 5, 60
9, 147308, Channel_aftertouch_c, 5, 53
9, 147320, Channel_aftertouch_c, 5, 0
9, 147328, Note_on_c, 5, 69, 0
9, 147352, Note_on_c, 5, 62, 0
9, 147364, Channel_aftertouch_c, 5, 2
9, 147376, Channel_aftertouch_c, 5, 6
9, 147388, Channel_aftertouch_c, 5, 10
9, 147400, Channel_aftertouch_c, 5, 16
9, 147412, Channel_aftertouch_c, 5, 25
9, 147424, Channel_aftertouch_c, 5, 30
9, 147436, Channel_aftertouch_c, 5, 26
9, 147448, Channel_aftertouch_c, 5, 23
9, 147456, Note_on_c, 5, 61, 0
9, 147456, Note_on_c, 5, 66, 76
9, 147456, Note_on_c, 5, 61, 45
9, 147456, Control_c, 5, 93, 60
9, 147456, Pitch_bend_c, 5, 8320
9, 147520, Note_on_c, 5, 61, 0
9, 147632, Channel_aftertouch_c, 5, 35
9, 147648, Note_on_c, 5, 61, 70
9, 147648, Channel_aftertouch_c, 5, 0
9, 147692, Channel_aftertouch_c, 5, 2
9, 147704, Channel_aftertouch_c, 5, 3
9, 147716, Channel_aftertouch_c, 5, 1
9, 147736, Channel_aftertouch_c, 5, 4
9, 147760, Channel_aftertouch_c, 5, 0
9, 147840, Note_on_c, 5, 69, 100
9, 147840, Channel_aftertouch_c, 5, 4
9, 147852, Channel_aftertouch_c, 5, 56
9, 147864, Channel_aftertouch_c, 5, 91
9, 147876, Channel_aftertouch_c, 5, 92
9, 147888, Channel_aftertouch_c, 5, 88
9, 147900, Channel_aftertouch_c, 5, 79
9, 147912, Channel_aftertouch_c, 5, 59
9, 147924, Channel_aftertouch_c, 5, 59
9, 147952, Channel_aftertouch_c, 5, 58
9, 147960, Channel_aftertouch_c, 5, 55
9, 147968, Note_on_c, 5, 61, 0
9, 147972, Channel_aftertouch_c, 5, 53
9, 147984, Channel_aftertouch_c, 5, 50
9, 148000, Channel_aftertouch_c, 5, 47
9, 148012, Channel_aftertouch_c, 5, 41
9, 148024, Channel_aftertouch_c, 5, 52
9, 148032, Note_on_c, 5, 61, 41
9, 148036, Channel_aftertouch_c, 5, 62
9, 148060, Channel_aftertouch_c, 5, 55
9, 148072, Channel_aftertouch_c, 5, 38
9, 148084, Channel_aftertouch_c, 5, 0
9, 148096, Channel_aftertouch_c, 5, 0
9, 148224, Note_on_c, 5, 68, 117
9, 148228, Channel_aftertouch_c, 5, 63
9, 148240, Channel_aftertouch_c, 5, 80
9, 148248, Note_on_c, 5, 69, 0
9, 148252, Channel_aftertouch_c, 5, 69
9, 148264, Channel_aftertouch_c, 5, 58
9, 148276, Channel_aftertouch_c, 5, 45
9, 148288, Channel_aftertouch_c, 5, 44
9, 148300, Channel_aftertouch_c, 5, 27
9, 148312, Channel_aftertouch_c, 5, 0
9, 148340, Note_on_c, 5, 66, 0
9, 148512, Note_on_c, 5, 66, 22
9, 148552, Note_on_c, 5, 61, 0
9, 148608, Note_on_c, 5, 61, 85
9, 148648, Note_on_c, 5, 66, 0
9, 148672, Note_on_c, 5, 68, 0
9, 148800, Note_on_c, 5, 66, 92
9, 148812, Channel_aftertouch_c, 5, 50
9, 148824, Channel_aftertouch_c, 5, 60
9, 148836, Channel_aftertouch_c, 5, 64
9, 148848, Channel_aftertouch_c, 5, 66
9, 148884, Channel_aftertouch_c, 5, 63
9, 148896, Channel_aftertouch_c, 5, 59
9, 148928, Channel_aftertouch_c, 5, 64
9, 148940, Channel_aftertouch_c, 5, 67
9, 148952, Channel_aftertouch_c, 5, 68
9, 148976, Channel_aftertouch_c, 5, 65
9, 148988, Channel_aftertouch_c, 5, 61
9, 149000, Channel_aftertouch_c, 5, 56
9, 149012, Channel_aftertouch_c, 5, 51
9, 149024, Channel_aftertouch_c, 5, 44
9, 149036, Channel_aftertouch_c, 5, 29
9, 149048, Channel_aftertouch_c, 5, 8
9, 149060, Channel_aftertouch_c, 5, 7
9, 149072, Channel_aftertouch_c, 5, 6
9, 149084, Channel_aftertouch_c, 5, 6
9, 149096, Channel_aftertouch_c, 5, 5
9, 149108, Note_on_c, 5, 61, 0
9, 149108, Channel_aftertouch_c, 5, 3
9, 149128, Channel_aftertouch_c, 5, 0
9, 149140, Channel_aftertouch_c, 5, 0
9, 149184, Note_on_c, 5, 61, 96
9, 149352, Channel_aftertouch_c, 5, 3
9, 149364, Channel_aftertouch_c, 5, 33
9, 149376, Note_on_c, 5, 69, 108
9, 149376, Channel_aftertouch_c, 5, 28
9, 149392, Channel_aftertouch_c, 5, 65
9, 149404, Channel_aftertouch_c, 5, 82
9, 149416, Channel_aftertouch_c, 5, 74
9, 149424, Note_on_c, 5, 61, 0
9, 149428, Channel_aftertouch_c, 5, 72
9, 149436, Channel_aftertouch_c, 5, 71
9, 149448, Channel_aftertouch_c, 5, 69
9, 149460, Channel_aftertouch_c, 5, 68
9, 149496, Channel_aftertouch_c, 5, 67
9, 149508, Channel_aftertouch_c, 5, 66
9, 149520, Channel_aftertouch_c, 5, 65
9, 149528, Channel_aftertouch_c, 5, 63
9, 149544, Channel_aftertouch_c, 5, 60
9, 149552, Channel_aftertouch_c, 5, 56
9, 149568, Note_on_c, 5, 61, 89
9, 149568, Channel_aftertouch_c, 5, 54
9, 149576, Channel_aftertouch_c, 5, 52
9, 149592, Channel_aftertouch_c, 5, 87
9, 149604, Channel_aftertouch_c, 5, 77
9, 149616, Channel_aftertouch_c, 5, 67
9, 149628, Channel_aftertouch_c, 5, 53
9, 149640, Channel_aftertouch_c, 5, 42
9, 149652, Channel_aftertouch_c, 5, 17
9, 149664, Channel_aftertouch_c, 5, 0
9, 149752, Channel_aftertouch_c, 5, 30
9, 149760, Note_on_c, 5, 68, 117
9, 149764, Channel_aftertouch_c, 5, 54
9, 149776, Channel_aftertouch_c, 5, 45
9, 149788, Channel_aftertouch_c, 5, 10
9, 149796, Note_on_c, 5, 69, 0
9, 149800, Note_on_c, 5, 61, 0
9, 149800, Channel_aftertouch_c, 5, 39
9, 149808, Channel_aftertouch_c, 5, 26
9, 149820, Channel_aftertouch_c, 5, 0
9, 149880, Note_on_c, 5, 66, 0
9, 149952, Note_on_c, 5, 61, 21
9, 150072, Note_on_c, 5, 61, 0
9, 150144, Note_on_c, 5, 61, 76
9, 150280, Note_on_c, 5, 68, 0
9, 150336, Note_on_c, 5, 66, 92
9, 150348, Channel_aftertouch_c, 5, 8
9, 150360, Note_on_c, 5, 61, 0
9, 150360, Channel_aftertouch_c, 5, 0
9, 150372, Channel_aftertouch_c, 5, 5
9, 150384, Channel_aftertouch_c, 5, 8
9, 150392, Channel_aftertouch_c, 5, 11
9, 150408, Channel_aftertouch_c, 5, 13
9, 150416, Channel_aftertouch_c, 5, 14
9, 150432, Channel_aftertouch_c, 5, 16
9, 150440, Channel_aftertouch_c, 5, 17
9, 150464, Channel_aftertouch_c, 5, 15
9, 150476, Channel_aftertouch_c, 5, 14
9, 150500, Channel_aftertouch_c, 5, 14
9, 150512, Channel_aftertouch_c, 5, 13
9, 150528, Note_on_c, 5, 64, 67
9, 150536, Channel_aftertouch_c, 5, 13
9, 150552, Note_on_c, 5, 64, 0
9, 150560, Channel_aftertouch_c, 5, 17
9, 150596, Channel_aftertouch_c, 5, 17
9, 150620, Channel_aftertouch_c, 5, 15
9, 150644, Channel_aftertouch_c, 5, 18
9, 150652, Channel_aftertouch_c, 5, 19
9, 150676, Channel_aftertouch_c, 5, 17
9, 150688, Channel_aftertouch_c, 5, 13
9, 150700, Channel_aftertouch_c, 5, 8
9, 150712, Channel_aftertouch_c, 5, 0
9, 150720, Note_on_c, 5, 64, 92
9, 150736, Channel_aftertouch_c, 5, 45
9, 150748, Channel_aftertouch_c, 5, 56
9, 150760, Channel_aftertouch_c, 5, 59
9, 150772, Channel_aftertouch_c, 5, 52
9, 150784, Channel_aftertouch_c, 5, 43
9, 150796, Channel_aftertouch_c, 5, 41
9, 150808, Channel_aftertouch_c, 5, 44
9, 150820, Channel_aftertouch_c, 5, 42
9, 150832, Channel_aftertouch_c, 5, 15
9, 150844, Channel_aftertouch_c, 5, 0
9, 150872, Note_on_c, 5, 66, 0
9, 150912, Note_on_c, 5, 66, 92
9, 150936, Channel_aftertouch_c, 5, 54
9, 150952, Channel_aftertouch_c, 5, 21
9, 150960, Note_on_c, 5, 64, 0
9, 150960, Channel_aftertouch_c, 5, 27
9, 150976, Channel_aftertouch_c, 5, 20
9, 150988, Channel_aftertouch_c, 5, 20
9, 151000, Channel_aftertouch_c, 5, 22
9, 151012, Channel_aftertouch_c, 5, 22
9, 151044, Channel_aftertouch_c, 5, 20
9, 151056, Channel_aftertouch_c, 5, 17
9, 151068, Channel_aftertouch_c, 5, 15
9, 151080, Channel_aftertouch_c, 5, 9
9, 151096, Channel_aftertouch_c, 5, 0
9, 151104, Note_on_c, 5, 64, 85
9, 151132, Note_on_c, 5, 66, 0
9, 151296, Note_on_c, 5, 69, 96
9, 151320, Channel_aftertouch_c, 5, 32
9, 151336, Note_on_c, 5, 64, 0
9, 151336, Channel_aftertouch_c, 5, 81
9, 151344, Channel_aftertouch_c, 5, 73
9, 151360, Channel_aftertouch_c, 5, 72
9, 151392, Channel_aftertouch_c, 5, 72
9, 151428, Channel_aftertouch_c, 5, 67
9, 151440, Channel_aftertouch_c, 5, 61
9, 151484, Channel_aftertouch_c, 5, 63
9, 151496, Channel_aftertouch_c, 5, 63
9, 151508, Channel_aftertouch_c, 5, 65
9, 151520, Channel_aftertouch_c, 5, 65
9, 151588, Channel_aftertouch_c, 5, 62
9, 151600, Channel_aftertouch_c, 5, 58
9, 151612, Channel_aftertouch_c, 5, 51
9, 151624, Channel_aftertouch_c, 5, 42
9, 151636, Channel_aftertouch_c, 5, 28
9, 151648, Note_on_c, 5, 69, 0
9, 151648, Channel_aftertouch_c, 5, 0
9, 151680, Note_on_c, 5, 64, 92
9, 151684, Channel_aftertouch_c, 5, 44
9, 151696, Channel_aftertouch_c, 5, 18
9, 151708, Channel_aftertouch_c, 5, 0
9, 151824, Note_on_c, 5, 64, 0
9, 151872, Note_on_c, 5, 66, 85
9, 151872, Channel_aftertouch_c, 5, 10
9, 151884, Channel_aftertouch_c, 5, 24
9, 151896, Channel_aftertouch_c, 5, 28
9, 151908, Channel_aftertouch_c, 5, 28
9, 151920, Channel_aftertouch_c, 5, 31
9, 151932, Channel_aftertouch_c, 5, 34
9, 151944, Channel_aftertouch_c, 5, 37
9, 151956, Channel_aftertouch_c, 5, 39
9, 151968, Channel_aftertouch_c, 5, 40
9, 151980, Channel_aftertouch_c, 5, 41
9, 151992, Channel_aftertouch_c, 5, 42
9, 152004, Channel_aftertouch_c, 5, 43
9, 152060, Channel_aftertouch_c, 5, 43
9, 152096, Channel_aftertouch_c, 5, 40
9, 152104, Channel_aftertouch_c, 5, 38
9, 152152, Channel_aftertouch_c, 5, 37
9, 152160, Channel_aftertouch_c, 5, 34
9, 152176, Channel_aftertouch_c, 5, 29
9, 152188, Channel_aftertouch_c, 5, 25
9, 152200, Channel_aftertouch_c, 5, 21
9, 152212, Channel_aftertouch_c, 5, 18
9, 152224, Channel_aftertouch_c, 5, 17
9, 152236, Channel_aftertouch_c, 5, 15
9, 152248, Channel_aftertouch_c, 5, 14
9, 152256, Note_on_c, 5, 64, 89
9, 152260, Channel_aftertouch_c, 5, 10
9, 152272, Channel_aftertouch_c, 5, 3
9, 152284, Channel_aftertouch_c, 5, 50
9, 152296, Channel_aftertouch_c, 5, 57
9, 152308, Channel_aftertouch_c, 5, 62
9, 152332, Channel_aftertouch_c, 5, 59
9, 152344, Channel_aftertouch_c, 5, 54
9, 152368, Channel_aftertouch_c, 5, 57
9, 152376, Channel_aftertouch_c, 5, 58
9, 152388, Channel_aftertouch_c, 5, 53
9, 152400, Channel_aftertouch_c, 5, 36
9, 152416, Channel_aftertouch_c, 5, 0
9, 152436, Channel_aftertouch_c, 5, 5
9, 152448, Note_on_c, 5, 69, 108
9, 152448, Channel_aftertouch_c, 5, 25
9, 152460, Channel_aftertouch_c, 5, 8
9, 152472, Note_on_c, 5, 64, 0
9, 152472, Channel_aftertouch_c, 5, 16
9, 152488, Channel_aftertouch_c, 5, 58
9, 152496, Channel_aftertouch_c, 5, 65
9, 152508, Channel_aftertouch_c, 5, 55
9, 152520, Channel_aftertouch_c, 5, 50
9, 152544, Channel_aftertouch_c, 5, 55
9, 152556, Channel_aftertouch_c, 5, 57
9, 152588, Channel_aftertouch_c, 5, 55
9, 152600, Channel_aftertouch_c, 5, 49
9, 152616, Channel_aftertouch_c, 5, 40
9, 152624, Channel_aftertouch_c, 5, 27
9, 152636, Channel_aftertouch_c, 5, 18
9, 152640, Note_on_c, 5, 64, 92
9, 152652, Channel_aftertouch_c, 5, 29
9, 152660, Channel_aftertouch_c, 5, 30
9, 152676, Channel_aftertouch_c, 5, 7
9, 152688, Channel_aftertouch_c, 5, 0
9, 152808, Note_on_c, 5, 66, 0
9, 152832, Note_on_c, 5, 68, 117
9, 152860, Note_on_c, 5, 69, 0
9, 152868, Note_on_c, 5, 64, 0
9, 153216, Note_on_c, 5, 64, 92
9, 153264, Note_on_c, 5, 68, 0
9, 153408, Note_on_c, 5, 66, 96
9, 153420, Channel_aftertouch_c, 5, 39
9, 153432, Channel_aftertouch_c, 5, 40
9, 153444, Channel_aftertouch_c, 5, 38
9, 153456, Channel_aftertouch_c, 5, 20
9, 153468, Channel_aftertouch_c, 5, 9
9, 153480, Channel_aftertouch_c, 5, 18
9, 153492, Channel_aftertouch_c, 5, 26
9, 153516, Channel_aftertouch_c, 5, 14
9, 153528, Channel_aftertouch_c, 5, 5
9, 153552, Channel_aftertouch_c, 5, 5
9, 153560, Channel_aftertouch_c, 5, 4
9, 153572, Channel_aftertouch_c, 5, 2
9, 153584, Channel_aftertouch_c, 5, 0
9, 153708, Note_on_c, 5, 64, 0
9, 153792, Note_on_c, 5, 64, 76
9, 153840, Note_on_c, 5, 66, 0
9, 153984, Note_on_c, 5, 69, 104
9, 154004, Channel_aftertouch_c, 5, 39
9, 154016, Channel_aftertouch_c, 5, 34
9, 154028, Channel_aftertouch_c, 5, 28
9, 154040, Channel_aftertouch_c, 5, 11
9, 154052, Channel_aftertouch_c, 5, 0
9, 154064, Note_on_c, 5, 64, 0
9, 154176, Note_on_c, 5, 64, 76
9, 154276, Note_on_c, 5, 69, 0
9, 154368, Note_on_c, 5, 68, 117
9, 154368, Note_on_c, 5, 69, 64
9, 154384, Note_on_c, 5, 69, 0
9, 154404, Channel_aftertouch_c, 5, 13
9, 154416, Channel_aftertouch_c, 5, 0
9, 154656, Note_on_c, 5, 64, 0
9, 154728, Channel_aftertouch_c, 5, 15
9, 154736, Channel_aftertouch_c, 5, 0
9, 154752, Note_on_c, 5, 64, 82
9, 154776, Note_on_c, 5, 68, 0
9, 154944, Note_on_c, 5, 66, 89
9, 154948, Channel_aftertouch_c, 5, 7
9, 154972, Channel_aftertouch_c, 5, 16
9, 154984, Channel_aftertouch_c, 5, 19
9, 154996, Channel_aftertouch_c, 5, 19
9, 155008, Channel_aftertouch_c, 5, 21
9, 155016, Note_on_c, 5, 64, 0
9, 155024, Channel_aftertouch_c, 5, 19
9, 155032, Channel_aftertouch_c, 5, 23
9, 155040, Note_on_c, 5, 64, 9
9, 155056, Channel_aftertouch_c, 5, 20
9, 155104, Channel_aftertouch_c, 5, 16
9, 155116, Channel_aftertouch_c, 5, 12
9, 155128, Channel_aftertouch_c, 5, 10
9, 155140, Channel_aftertouch_c, 5, 13
9, 155152, Channel_aftertouch_c, 5, 15
9, 155164, Channel_aftertouch_c, 5, 17
9, 155176, Note_on_c, 5, 64, 0
9, 155176, Channel_aftertouch_c, 5, 18
9, 155184, Channel_aftertouch_c, 5, 18
9, 155200, Channel_aftertouch_c, 5, 20
9, 155216, Channel_aftertouch_c, 5, 22
9, 155224, Channel_aftertouch_c, 5, 23
9, 155236, Channel_aftertouch_c, 5, 24
9, 155260, Channel_aftertouch_c, 5, 21
9, 155272, Channel_aftertouch_c, 5, 19
9, 155284, Channel_aftertouch_c, 5, 15
9, 155308, Channel_aftertouch_c, 5, 10
9, 155320, Channel_aftertouch_c, 5, 0
9, 155328, Note_on_c, 5, 64, 96
9, 155380, Note_on_c, 5, 66, 0
9, 155520, Note_on_c, 5, 69, 104
9, 155568, Note_on_c, 5, 64, 0
9, 155712, Note_on_c, 5, 64, 79
9, 155860, Note_on_c, 5, 69, 0
9, 155904, Note_on_c, 5, 68, 117
9, 155904, Note_on_c, 5, 69, 30
9, 155920, Note_on_c, 5, 69, 0
9, 155996, Note_on_c, 5, 64, 0
9, 156288, Note_on_c, 5, 64, 96
9, 156324, Note_on_c, 5, 68, 0
9, 156480, Note_on_c, 5, 69, 108
9, 156496, Channel_aftertouch_c, 5, 31
9, 156512, Channel_aftertouch_c, 5, 37
9, 156520, Channel_aftertouch_c, 5, 28
9, 156536, Channel_aftertouch_c, 5, 27
9, 156544, Channel_aftertouch_c, 5, 30
9, 156568, Channel_aftertouch_c, 5, 25
9, 156580, Channel_aftertouch_c, 5, 24
9, 156592, Channel_aftertouch_c, 5, 22
9, 156604, Channel_aftertouch_c, 5, 25
9, 156616, Channel_aftertouch_c, 5, 30
9, 156628, Channel_aftertouch_c, 5, 32
9, 156640, Channel_aftertouch_c, 5, 33
9, 156664, Channel_aftertouch_c, 5, 29
9, 156672, Note_on_c, 5, 69, 0
9, 156672, Note_on_c, 5, 64, 0
9, 156672, Note_on_c, 5, 64, 64
9, 156672, Note_on_c, 5, 69, 108
9, 156672, Note_on_c, 5, 64, 64
9, 156676, Channel_aftertouch_c, 5, 25
9, 156688, Channel_aftertouch_c, 5, 20
9, 156696, Channel_aftertouch_c, 5, 10
9, 156712, Channel_aftertouch_c, 5, 0
9, 156744, Note_on_c, 5, 64, 0
9, 156768, Note_on_c, 5, 64, 0
9, 156864, Note_on_c, 5, 64, 89
9, 156904, Note_on_c, 5, 69, 0
9, 157056, Note_on_c, 5, 69, 108
9, 157084, Channel_aftertouch_c, 5, 39
9, 157108, Channel_aftertouch_c, 5, 0
9, 157128, Note_on_c, 5, 64, 0
9, 157248, Note_on_c, 5, 64, 62
9, 157252, Channel_aftertouch_c, 5, 10
9, 157264, Channel_aftertouch_c, 5, 0
9, 157440, Note_on_c, 5, 68, 122
9, 157468, Note_on_c, 5, 69, 0
9, 157500, Note_on_c, 5, 64, 0
9, 157536, Note_on_c, 5, 64, 25
9, 157652, Note_on_c, 5, 64, 0
9, 157824, Note_on_c, 5, 64, 89
9, 157896, Note_on_c, 5, 68, 0
9, 158016, Note_on_c, 5, 69, 104
9, 158032, Channel_aftertouch_c, 5, 29
9, 158044, Channel_aftertouch_c, 5, 25
9, 158056, Channel_aftertouch_c, 5, 41
9, 158068, Channel_aftertouch_c, 5, 29
9, 158080, Channel_aftertouch_c, 5, 0
9, 158144, Note_on_c, 5, 64, 0
9, 158396, Note_on_c, 5, 69, 0
9, 158400, Note_on_c, 5, 64, 89
9, 158592, Note_on_c, 5, 69, 104
9, 158632, Channel_aftertouch_c, 5, 30
9, 158644, Channel_aftertouch_c, 5, 0
9, 158684, Note_on_c, 5, 64, 0
9, 158784, Note_on_c, 5, 61, 85
9, 158792, Channel_aftertouch_c, 5, 5
9, 158804, Channel_aftertouch_c, 5, 0
9, 158816, Note_on_c, 5, 69, 0
9, 158976, Note_on_c, 5, 62, 96
9, 159020, Channel_aftertouch_c, 5, 25
9, 159032, Channel_aftertouch_c, 5, 26
9, 159044, Channel_aftertouch_c, 5, 24
9, 159056, Channel_aftertouch_c, 5, 30
9, 159068, Channel_aftertouch_c, 5, 39
9, 159080, Channel_aftertouch_c, 5, 41
9, 159092, Channel_aftertouch_c, 5, 33
9, 159104, Channel_aftertouch_c, 5, 22
9, 159112, Channel_aftertouch_c, 5, 19
9, 159128, Channel_aftertouch_c, 5, 26
9, 159140, Channel_aftertouch_c, 5, 28
9, 159152, Channel_aftertouch_c, 5, 23
9, 159164, Channel_aftertouch_c, 5, 16
9, 159168, Note_on_c, 5, 69, 100
9, 159176, Channel_aftertouch_c, 5, 11
9, 159188, Channel_aftertouch_c, 5, 26
9, 159200, Channel_aftertouch_c, 5, 13
9, 159212, Channel_aftertouch_c, 5, 11
9, 159220, Note_on_c, 5, 61, 0
9, 159224, Channel_aftertouch_c, 5, 0
9, 159248, Note_on_c, 5, 62, 0
9, 159360, Note_on_c, 5, 62, 73
9, 159416, Channel_aftertouch_c, 5, 7
9, 159428, Channel_aftertouch_c, 5, 10
9, 159440, Channel_aftertouch_c, 5, 12
9, 159452, Channel_aftertouch_c, 5, 13
9, 159464, Channel_aftertouch_c, 5, 16
9, 159476, Channel_aftertouch_c, 5, 18
9, 159488, Channel_aftertouch_c, 5, 16
9, 159500, Channel_aftertouch_c, 5, 10
9, 159512, Channel_aftertouch_c, 5, 7
9, 159524, Channel_aftertouch_c, 5, 6
9, 159548, Channel_aftertouch_c, 5, 5
9, 159552, Note_on_c, 5, 61, 79
9, 159572, Channel_aftertouch_c, 5, 3
9, 159584, Channel_aftertouch_c, 5, 60
9, 159596, Channel_aftertouch_c, 5, 53
9, 159608, Channel_aftertouch_c, 5, 0
9, 159616, Note_on_c, 5, 69, 0
9, 159640, Note_on_c, 5, 62, 0
9, 159652, Channel_aftertouch_c, 5, 2
9, 159664, Channel_aftertouch_c, 5, 6
9, 159676, Channel_aftertouch_c, 5, 10
9, 159688, Channel_aftertouch_c, 5, 16
9, 159700, Channel_aftertouch_c, 5, 25
9, 159712, Channel_aftertouch_c, 5, 30
9, 159724, Channel_aftertouch_c, 5, 26
9, 159736, Channel_aftertouch_c, 5, 23
9, 159744, Note_on_c, 5, 61, 0
9, 159744, Note_on_c, 5, 57, 104
9, 159936, Note_on_c, 5, 64, 80
9, 160068, Channel_aftertouch_c, 5, 3
9, 160088, Note_on_c, 5, 64, 0
9, 160088, Channel_aftertouch_c, 5, 0
9, 160128, Note_on_c, 5, 69, 73
9, 160176, Channel_aftertouch_c, 5, 15
9, 160192, Channel_aftertouch_c, 5, 18
9, 160212, Channel_aftertouch_c, 5, 16
9, 160224, Channel_aftertouch_c, 5, 12
9, 160232, Channel_aftertouch_c, 5, 2
9, 160248, Channel_aftertouch_c, 5, 0
9, 160320, Note_on_c, 5, 64, 57
9, 160336, Note_on_c, 5, 57, 0
9, 160344, Note_on_c, 5, 69, 0
9, 160468, Note_on_c, 5, 64, 0
9, 160512, Note_on_c, 5, 68, 113
9, 160520, Channel_aftertouch_c, 5, 26
9, 160532, Channel_aftertouch_c, 5, 14
9, 160544, Channel_aftertouch_c, 5, 31
9, 160552, Channel_aftertouch_c, 5, 36
9, 160564, Channel_aftertouch_c, 5, 38
9, 160588, Channel_aftertouch_c, 5, 33
9, 160600, Channel_aftertouch_c, 5, 27
9, 160608, Channel_aftertouch_c, 5, 22
9, 160620, Channel_aftertouch_c, 5, 19
9, 160644, Channel_aftertouch_c, 5, 22
9, 160656, Channel_aftertouch_c, 5, 24
9, 160664, Channel_aftertouch_c, 5, 27
9, 160676, Channel_aftertouch_c, 5, 29
9, 160688, Channel_aftertouch_c, 5, 32
9, 160700, Channel_aftertouch_c, 5, 33
9, 160712, Channel_aftertouch_c, 5, 34
9, 160720, Channel_aftertouch_c, 5, 35
9, 160744, Channel_aftertouch_c, 5, 36
9, 160788, Channel_aftertouch_c, 5, 36
9, 160800, Channel_aftertouch_c, 5, 37
9, 160832, Channel_aftertouch_c, 5, 34
9, 160840, Channel_aftertouch_c, 5, 32
9, 160856, Channel_aftertouch_c, 5, 27
9, 160864, Channel_aftertouch_c, 5, 23
9, 160876, Channel_aftertouch_c, 5, 8
9, 160888, Channel_aftertouch_c, 5, 0
9, 160896, Note_on_c, 5, 64, 73
9, 160908, Note_on_c, 5, 68, 0
9, 160912, Channel_aftertouch_c, 5, 48
9, 160920, Channel_aftertouch_c, 5, 55
9, 160932, Channel_aftertouch_c, 5, 64
9, 160944, Channel_aftertouch_c, 5, 66
9, 160956, Channel_aftertouch_c, 5, 67
9, 160976, Channel_aftertouch_c, 5, 63
9, 160988, Channel_aftertouch_c, 5, 58
9, 161000, Channel_aftertouch_c, 5, 37
9, 161008, Channel_aftertouch_c, 5, 0
9, 161024, Note_on_c, 5, 64, 0
9, 161076, Channel_aftertouch_c, 5, 46
9, 161088, Note_on_c, 5, 69, 100
9, 161088, Channel_aftertouch_c, 5, 15
9, 161100, Channel_aftertouch_c, 5, 24
9, 161112, Channel_aftertouch_c, 5, 1
9, 161120, Channel_aftertouch_c, 5, 0
9, 161280, Note_on_c, 5, 57, 104
9, 161324, Channel_aftertouch_c, 5, 30
9, 161336, Channel_aftertouch_c, 5, 45
9, 161348, Channel_aftertouch_c, 5, 51
9, 161360, Channel_aftertouch_c, 5, 52
9, 161372, Channel_aftertouch_c, 5, 46
9, 161380, Channel_aftertouch_c, 5, 37
9, 161392, Channel_aftertouch_c, 5, 27
9, 161404, Channel_aftertouch_c, 5, 17
9, 161416, Channel_aftertouch_c, 5, 9
9, 161428, Channel_aftertouch_c, 5, 0
9, 161472, Note_on_c, 5, 64, 76
9, 161472, Channel_aftertouch_c, 5, 2
9, 161476, Note_on_c, 5, 69, 0
9, 161488, Channel_aftertouch_c, 5, 56
9, 161496, Channel_aftertouch_c, 5, 69
9, 161508, Channel_aftertouch_c, 5, 70
9, 161540, Channel_aftertouch_c, 5, 67
9, 161552, Channel_aftertouch_c, 5, 65
9, 161564, Channel_aftertouch_c, 5, 64
9, 161576, Channel_aftertouch_c, 5, 62
9, 161584, Channel_aftertouch_c, 5, 55
9, 161596, Channel_aftertouch_c, 5, 32
9, 161608, Channel_aftertouch_c, 5, 9
9, 161640, Channel_aftertouch_c, 5, 11
9, 161652, Note_on_c, 5, 64, 0
9, 161660, Channel_aftertouch_c, 5, 12
9, 161664, Note_on_c, 5, 69, 100
9, 161672, Channel_aftertouch_c, 5, 37
9, 161684, Channel_aftertouch_c, 5, 37
9, 161696, Channel_aftertouch_c, 5, 59
9, 161708, Channel_aftertouch_c, 5, 60
9, 161720, Channel_aftertouch_c, 5, 61
9, 161728, Channel_aftertouch_c, 5, 59
9, 161740, Channel_aftertouch_c, 5, 56
9, 161752, Channel_aftertouch_c, 5, 52
9, 161764, Channel_aftertouch_c, 5, 46
9, 161776, Channel_aftertouch_c, 5, 39
9, 161788, Channel_aftertouch_c, 5, 30
9, 161796, Channel_aftertouch_c, 5, 15
9, 161808, Channel_aftertouch_c, 5, 0
9, 161816, Note_on_c, 5, 69, 0
9, 161840, Note_on_c, 5, 57, 0
9, 161852, Channel_aftertouch_c, 5, 10
9, 161856, Note_on_c, 5, 61, 104
9, 161864, Channel_aftertouch_c, 5, 0
9, 162040, Channel_aftertouch_c, 5, 22
9, 162048, Note_on_c, 5, 62, 96
9, 162052, Note_on_c, 5, 61, 0
9, 162056, Channel_aftertouch_c, 5, 62
9, 162068, Channel_aftertouch_c, 5, 83
9, 162080, Channel_aftertouch_c, 5, 89
9, 162088, Channel_aftertouch_c, 5, 90
9, 162104, Channel_aftertouch_c, 5, 87
9, 162112, Channel_aftertouch_c, 5, 83
9, 162124, Channel_aftertouch_c, 5, 80
9, 162156, Channel_aftertouch_c, 5, 82
9, 162168, Channel_aftertouch_c, 5, 83
9, 162200, Channel_aftertouch_c, 5, 79
9, 162212, Channel_aftertouch_c, 5, 66
9, 162224, Channel_aftertouch_c, 5, 19
9, 162232, Channel_aftertouch_c, 5, 19
9, 162240, Note_on_c, 5, 69, 85
9, 162248, Channel_aftertouch_c, 5, 54
9, 162252, Note_on_c, 5, 62, 0
9, 162260, Channel_aftertouch_c, 5, 57
9, 162272, Channel_aftertouch_c, 5, 59
9, 162280, Channel_aftertouch_c, 5, 59
9, 162304, Channel_aftertouch_c, 5, 57
9, 162316, Channel_aftertouch_c, 5, 55
9, 162336, Channel_aftertouch_c, 5, 55
9, 162348, Channel_aftertouch_c, 5, 54
9, 162360, Channel_aftertouch_c, 5, 52
9, 162372, Channel_aftertouch_c, 5, 50
9, 162384, Channel_aftertouch_c, 5, 48
9, 162396, Channel_aftertouch_c, 5, 72
9, 162408, Channel_aftertouch_c, 5, 76
9, 162432, Note_on_c, 5, 62, 82
9, 162432, Channel_aftertouch_c, 5, 74
9, 162440, Channel_aftertouch_c, 5, 76
9, 162452, Note_on_c, 5, 69, 0
9, 162452, Channel_aftertouch_c, 5, 78
9, 162464, Channel_aftertouch_c, 5, 80
9, 162476, Channel_aftertouch_c, 5, 81
9, 162496, Channel_aftertouch_c, 5, 77
9, 162508, Channel_aftertouch_c, 5, 73
9, 162520, Channel_aftertouch_c, 5, 68
9, 162532, Channel_aftertouch_c, 5, 66
9, 162544, Channel_aftertouch_c, 5, 64
9, 162556, Channel_aftertouch_c, 5, 61
9, 162564, Channel_aftertouch_c, 5, 52
9, 162576, Channel_aftertouch_c, 5, 48
9, 162588, Channel_aftertouch_c, 5, 47
9, 162600, Channel_aftertouch_c, 5, 46
9, 162612, Channel_aftertouch_c, 5, 16
9, 162624, Note_on_c, 5, 61, 108
9, 162624, Channel_aftertouch_c, 5, 21
9, 162636, Channel_aftertouch_c, 5, 0
9, 162704, Note_on_c, 5, 62, 0
9, 162816, Note_on_c, 5, 61, 0
9, 162816, Note_on_c, 5, 57, 104
9, 163008, Note_on_c, 5, 64, 80
9, 163140, Channel_aftertouch_c, 5, 3
9, 163160, Note_on_c, 5, 64, 0
9, 163160, Channel_aftertouch_c, 5, 0
9, 163200, Note_on_c, 5, 69, 73
9, 163248, Channel_aftertouch_c, 5, 15
9, 163264, Channel_aftertouch_c, 5, 18
9, 163284, Channel_aftertouch_c, 5, 16
9, 163296, Channel_aftertouch_c, 5, 12
9, 163304, Channel_aftertouch_c, 5, 2
9, 163320, Channel_aftertouch_c, 5, 0
9, 163392, Note_on_c, 5, 64, 57
9, 163408, Note_on_c, 5, 57, 0
9, 163416, Note_on_c, 5, 69, 0
9, 163540, Note_on_c, 5, 64, 0
9, 163584, Note_on_c, 5, 68, 113
9, 163592, Channel_aftertouch_c, 5, 26
9, 163604, Channel_aftertouch_c, 5, 14
9, 163616, Channel_aftertouch_c, 5, 31
9, 163624, Channel_aftertouch_c, 5, 36
9, 163636, Channel_aftertouch_c, 5, 38
9, 163660, Channel_aftertouch_c, 5, 33
9, 163672, Channel_aftertouch_c, 5, 27
9, 163680, Channel_aftertouch_c, 5, 22
9, 163692, Channel_aftertouch_c, 5, 19
9, 163716, Channel_aftertouch_c, 5, 22
9, 163728, Channel_aftertouch_c, 5, 24
9, 163736, Channel_aftertouch_c, 5, 27
9, 163748, Channel_aftertouch_c, 5, 29
9, 163760, Channel_aftertouch_c, 5, 32
9, 163772, Channel_aftertouch_c, 5, 33
9, 163784, Channel_aftertouch_c, 5, 34
9, 163792, Channel_aftertouch_c, 5, 35
9, 163816, Channel_aftertouch_c, 5, 36
9, 163860, Channel_aftertouch_c, 5, 36
9, 163872, Channel_aftertouch_c, 5, 37
9, 163904, Channel_aftertouch_c, 5, 34
9, 163912, Channel_aftertouch_c, 5, 32
9, 163928, Channel_aftertouch_c, 5, 27
9, 163936, Channel_aftertouch_c, 5, 23
9, 163948, Channel_aftertouch_c, 5, 8
9, 163960, Channel_aftertouch_c, 5, 0
9, 163968, Note_on_c, 5, 64, 73
9, 163980, Note_on_c, 5, 68, 0
9, 163984, Channel_aftertouch_c, 5, 48
9, 163992, Channel_aftertouch_c, 5, 55
9, 164004, Channel_aftertouch_c, 5, 64
9, 164016, Channel_aftertouch_c, 5, 66
9, 164028, Channel_aftertouch_c, 5, 67
9, 164048, Channel_aftertouch_c, 5, 63
9, 164060, Channel_aftertouch_c, 5, 58
9, 164072, Channel_aftertouch_c, 5, 37
9, 164080, Channel_aftertouch_c, 5, 0
9, 164096, Note_on_c, 5, 64, 0
9, 164148, Channel_aftertouch_c, 5, 46
9, 164160, Note_on_c, 5, 69, 100
9, 164160, Channel_aftertouch_c, 5, 15
9, 164172, Channel_aftertouch_c, 5, 24
9, 164184, Channel_aftertouch_c, 5, 1
9, 164192, Channel_aftertouch_c, 5, 0
9, 164352, Note_on_c, 5, 57, 104
9, 164396, Channel_aftertouch_c, 5, 30
9, 164408, Channel_aftertouch_c, 5, 45
9, 164420, Channel_aftertouch_c, 5, 51
9, 164432, Channel_aftertouch_c, 5, 52
9, 164444, Channel_aftertouch_c, 5, 46
9, 164452, Channel_aftertouch_c, 5, 37
9, 164464, Channel_aftertouch_c, 5, 27
9, 164476, Channel_aftertouch_c, 5, 17
9, 164488, Channel_aftertouch_c, 5, 9
9, 164500, Channel_aftertouch_c, 5, 0
9, 164544, Note_on_c, 5, 64, 76
9, 164544, Channel_aftertouch_c, 5, 2
9, 164548, Note_on_c, 5, 69, 0
9, 164560, Channel_aftertouch_c, 5, 56
9, 164568, Channel_aftertouch_c, 5, 69
9, 164580, Channel_aftertouch_c, 5, 70
9, 164612, Channel_aftertouch_c, 5, 67
9, 164624, Channel_aftertouch_c, 5, 65
9, 164636, Channel_aftertouch_c, 5, 64
9, 164648, Channel_aftertouch_c, 5, 62
9, 164656, Channel_aftertouch_c, 5, 55
9, 164668, Channel_aftertouch_c, 5, 32
9, 164680, Channel_aftertouch_c, 5, 9
9, 164712, Channel_aftertouch_c, 5, 11
9, 164724, Note_on_c, 5, 64, 0
9, 164732, Channel_aftertouch_c, 5, 12
9, 164736, Note_on_c, 5, 69, 100
9, 164744, Channel_aftertouch_c, 5, 37
9, 164756, Channel_aftertouch_c, 5, 37
9, 164768, Channel_aftertouch_c, 5, 59
9, 164780, Channel_aftertouch_c, 5, 60
9, 164792, Channel_aftertouch_c, 5, 61
9, 164800, Channel_aftertouch_c, 5, 59
9, 164812, Channel_aftertouch_c, 5, 56
9, 164824, Channel_aftertouch_c, 5, 52
9, 164836, Channel_aftertouch_c, 5, 46
9, 164848, Channel_aftertouch_c, 5, 39
9, 164860, Channel_aftertouch_c, 5, 30
9, 164868, Channel_aftertouch_c, 5, 15
9, 164880, Channel_aftertouch_c, 5, 0
9, 164888, Note_on_c, 5, 69, 0
9, 164912, Note_on_c, 5, 57, 0
9, 164924, Channel_aftertouch_c, 5, 10
9, 164928, Note_on_c, 5, 61, 104
9, 164936, Channel_aftertouch_c, 5, 0
9, 165112, Channel_aftertouch_c, 5, 22
9, 165120, Note_on_c, 5, 62, 96
9, 165124, Note_on_c, 5, 61, 0
9, 165128, Channel_aftertouch_c, 5, 62
9, 165140, Channel_aftertouch_c, 5, 83
9, 165152, Channel_aftertouch_c, 5, 89
9, 165160, Channel_aftertouch_c, 5, 90
9, 165176, Channel_aftertouch_c, 5, 87
9, 165184, Channel_aftertouch_c, 5, 83
9, 165196, Channel_aftertouch_c, 5, 80
9, 165228, Channel_aftertouch_c, 5, 82
9, 165240, Channel_aftertouch_c, 5, 83
9, 165272, Channel_aftertouch_c, 5, 79
9, 165284, Channel_aftertouch_c, 5, 66
9, 165296, Channel_aftertouch_c, 5, 19
9, 165304, Channel_aftertouch_c, 5, 19
9, 165312, Note_on_c, 5, 69, 85
9, 165320, Channel_aftertouch_c, 5, 54
9, 165324, Note_on_c, 5, 62, 0
9, 165332, Channel_aftertouch_c, 5, 57
9, 165344, Channel_aftertouch_c, 5, 59
9, 165352, Channel_aftertouch_c, 5, 59
9, 165376, Channel_aftertouch_c, 5, 57
9, 165388, Channel_aftertouch_c, 5, 55
9, 165408, Channel_aftertouch_c, 5, 55
9, 165420, Channel_aftertouch_c, 5, 54
9, 165432, Channel_aftertouch_c, 5, 52
9, 165444, Channel_aftertouch_c, 5, 50
9, 165456, Channel_aftertouch_c, 5, 48
9, 165468, Channel_aftertouch_c, 5, 72
9, 165480, Channel_aftertouch_c, 5, 76
9, 165504, Note_on_c, 5, 62, 82
9, 165504, Channel_aftertouch_c, 5, 74
9, 165512, Channel_aftertouch_c, 5, 76
9, 165524, Note_on_c, 5, 69, 0
9, 165524, Channel_aftertouch_c, 5, 78
9, 165536, Channel_aftertouch_c, 5, 80
9, 165548, Channel_aftertouch_c, 5, 81
9, 165568, Channel_aftertouch_c, 5, 77
9, 165580, Channel_aftertouch_c, 5, 73
9, 165592, Channel_aftertouch_c, 5, 68
9, 165604, Channel_aftertouch_c, 5, 66
9, 165616, Channel_aftertouch_c, 5, 64
9, 165628, Channel_aftertouch_c, 5, 61
9, 165636, Channel_aftertouch_c, 5, 52
9, 165648, Channel_aftertouch_c, 5, 48
9, 165660, Channel_aftertouch_c, 5, 47
9, 165672, Channel_aftertouch_c, 5, 46
9, 165684, Channel_aftertouch_c, 5, 16
9, 165696, Note_on_c, 5, 61, 108
9, 165696, Channel_aftertouch_c, 5, 21
9, 165708, Channel_aftertouch_c, 5, 0
9, 165776, Note_on_c, 5, 62, 0
9, 165888, Note_on_c, 5, 61, 0
9, 165888, Note_on_c, 5, 57, 104
9, 166080, Note_on_c, 5, 64, 80
9, 166212, Channel_aftertouch_c, 5, 3
9, 166232, Note_on_c, 5, 64, 0
9, 166232, Channel_aftertouch_c, 5, 0
9, 166272, Note_on_c, 5, 69, 73
9, 166320, Channel_aftertouch_c, 5, 15
9, 166336, Channel_aftertouch_c, 5, 18
9, 166356, Channel_aftertouch_c, 5, 16
9, 166368, Channel_aftertouch_c, 5, 12
9, 166376, Channel_aftertouch_c, 5, 2
9, 166392, Channel_aftertouch_c, 5, 0
9, 166464, Note_on_c, 5, 64, 57
9, 166480, Note_on_c, 5, 57, 0
9, 166488, Note_on_c, 5, 69, 0
9, 166612, Note_on_c, 5, 64, 0
9, 166656, Note_on_c, 5, 68, 113
9, 166664, Channel_aftertouch_c, 5, 26
9, 166676, Channel_aftertouch_c, 5, 14
9, 166688, Channel_aftertouch_c, 5, 31
9, 166696, Channel_aftertouch_c, 5, 36
9, 166708, Channel_aftertouch_c, 5, 38
9, 166732, Channel_aftertouch_c, 5, 33
9, 166744, Channel_aftertouch_c, 5, 27
9, 166752, Channel_aftertouch_c, 5, 22
9, 166764, Channel_aftertouch_c, 5, 19
9, 166788, Channel_aftertouch_c, 5, 22
9, 166800, Channel_aftertouch_c, 5, 24
9, 166808, Channel_aftertouch_c, 5, 27
9, 166820, Channel_aftertouch_c, 5, 29
9, 166832, Channel_aftertouch_c, 5, 32
9, 166844, Channel_aftertouch_c, 5, 33
9, 166856, Channel_aftertouch_c, 5, 34
9, 166864, Channel_aftertouch_c, 5, 35
9, 166888, Channel_aftertouch_c, 5, 36
9, 166932, Channel_aftertouch_c, 5, 36
9, 166944, Channel_aftertouch_c, 5, 37
9, 166976, Channel_aftertouch_c, 5, 34
9, 166984, Channel_aftertouch_c, 5, 32
9, 167000, Channel_aftertouch_c, 5, 27
9, 167008, Channel_aftertouch_c, 5, 23
9, 167020, Channel_aftertouch_c, 5, 8
9, 167032, Channel_aftertouch_c, 5, 0
9, 167040, Note_on_c, 5, 64, 73
9, 167052, Note_on_c, 5, 68, 0
9, 167056, Channel_aftertouch_c, 5, 48
9, 167064, Channel_aftertouch_c, 5, 55
9, 167076, Channel_aftertouch_c, 5, 64
9, 167088, Channel_aftertouch_c, 5, 66
9, 167100, Channel_aftertouch_c, 5, 67
9, 167120, Channel_aftertouch_c, 5, 63
9, 167132, Channel_aftertouch_c, 5, 58
9, 167144, Channel_aftertouch_c, 5, 37
9, 167152, Channel_aftertouch_c, 5, 0
9, 167168, Note_on_c, 5, 64, 0
9, 167220, Channel_aftertouch_c, 5, 46
9, 167232, Note_on_c, 5, 69, 100
9, 167232, Channel_aftertouch_c, 5, 15
9, 167244, Channel_aftertouch_c, 5, 24
9, 167256, Channel_aftertouch_c, 5, 1
9, 167264, Channel_aftertouch_c, 5, 0
9, 167424, Note_on_c, 5, 57, 104
9, 167468, Channel_aftertouch_c, 5, 30
9, 167480, Channel_aftertouch_c, 5, 45
9, 167492, Channel_aftertouch_c, 5, 51
9, 167504, Channel_aftertouch_c, 5, 52
9, 167516, Channel_aftertouch_c, 5, 46
9, 167524, Channel_aftertouch_c, 5, 37
9, 167536, Channel_aftertouch_c, 5, 27
9, 167548, Channel_aftertouch_c, 5, 17
9, 167560, Channel_aftertouch_c, 5, 9
9, 167572, Channel_aftertouch_c, 5, 0
9, 167616, Note_on_c, 5, 64, 76
9, 167616, Channel_aftertouch_c, 5, 2
9, 167620, Note_on_c, 5, 69, 0
9, 167632, Channel_aftertouch_c, 5, 56
9, 167640, Channel_aftertouch_c, 5, 69
9, 167652, Channel_aftertouch_c, 5, 70
9, 167684, Channel_aftertouch_c, 5, 67
9, 167696, Channel_aftertouch_c, 5, 65
9, 167708, Channel_aftertouch_c, 5, 64
9, 167720, Channel_aftertouch_c, 5, 62
9, 167728, Channel_aftertouch_c, 5, 55
9, 167740, Channel_aftertouch_c, 5, 32
9, 167752, Channel_aftertouch_c, 5, 9
9, 167784, Channel_aftertouch_c, 5, 11
9, 167796, Note_on_c, 5, 64, 0
9, 167804, Channel_aftertouch_c, 5, 12
9, 167808, Note_on_c, 5, 69, 100
9, 167816, Channel_aftertouch_c, 5, 37
9, 167828, Channel_aftertouch_c, 5, 37
9, 167840, Channel_aftertouch_c, 5, 59
9, 167852, Channel_aftertouch_c, 5, 60
9, 167864, Channel_aftertouch_c, 5, 61
9, 167872, Channel_aftertouch_c, 5, 59
9, 167884, Channel_aftertouch_c, 5, 56
9, 167896, Channel_aftertouch_c, 5, 52
9, 167908, Channel_aftertouch_c, 5, 46
9, 167920, Channel_aftertouch_c, 5, 39
9, 167932, Channel_aftertouch_c, 5, 30
9, 167940, Channel_aftertouch_c, 5, 15
9, 167952, Channel_aftertouch_c, 5, 0
9, 167960, Note_on_c, 5, 69, 0
9, 167984, Note_on_c, 5, 57, 0
9, 167996, Channel_aftertouch_c, 5, 10
9, 168000, Note_on_c, 5, 61, 104
9, 168008, Channel_aftertouch_c, 5, 0
9, 168184, Channel_aftertouch_c, 5, 22
9, 168192, Note_on_c, 5, 62, 96
9, 168196, Note_on_c, 5, 61, 0
9, 168200, Channel_aftertouch_c, 5, 62
9, 168212, Channel_aftertouch_c, 5, 83
9, 168224, Channel_aftertouch_c, 5, 89
9, 168232, Channel_aftertouch_c, 5, 90
9, 168248, Channel_aftertouch_c, 5, 87
9, 168256, Channel_aftertouch_c, 5, 83
9, 168268, Channel_aftertouch_c, 5, 80
9, 168300, Channel_aftertouch_c, 5, 82
9, 168312, Channel_aftertouch_c, 5, 83
9, 168344, Channel_aftertouch_c, 5, 79
9, 168356, Channel_aftertouch_c, 5, 66
9, 168368, Channel_aftertouch_c, 5, 19
9, 168376, Channel_aftertouch_c, 5, 19
9, 168384, Note_on_c, 5, 69, 85
9, 168392, Channel_aftertouch_c, 5, 54
9, 168396, Note_on_c, 5, 62, 0
9, 168404, Channel_aftertouch_c, 5, 57
9, 168416, Channel_aftertouch_c, 5, 59
9, 168424, Channel_aftertouch_c, 5, 59
9, 168448, Channel_aftertouch_c, 5, 57
9, 168460, Channel_aftertouch_c, 5, 55
9, 168480, Channel_aftertouch_c, 5, 55
9, 168492, Channel_aftertouch_c, 5, 54
9, 168504, Channel_aftertouch_c, 5, 52
9, 168516, Channel_aftertouch_c, 5, 50
9, 168528, Channel_aftertouch_c, 5, 48
9, 168540, Channel_aftertouch_c, 5, 72
9, 168552, Channel_aftertouch_c, 5, 76
9, 168576, Note_on_c, 5, 62, 82
9, 168576, Channel_aftertouch_c, 5, 74
9, 168584, Channel_aftertouch_c, 5, 76
9, 168596, Note_on_c, 5, 69, 0
9, 168596, Channel_aftertouch_c, 5, 78
9, 168608, Channel_aftertouch_c, 5, 80
9, 168620, Channel_aftertouch_c, 5, 81
9, 168640, Channel_aftertouch_c, 5, 77
9, 168652, Channel_aftertouch_c, 5, 73
9, 168664, Channel_aftertouch_c, 5, 68
9, 168676, Channel_aftertouch_c, 5, 66
9, 168688, Channel_aftertouch_c, 5, 64
9, 168700, Channel_aftertouch_c, 5, 61
9, 168708, Channel_aftertouch_c, 5, 52
9, 168720, Channel_aftertouch_c, 5, 48
9, 168732, Channel_aftertouch_c, 5, 47
9, 168744, Channel_aftertouch_c, 5, 46
9, 168756, Channel_aftertouch_c, 5, 16
9, 168768, Note_on_c, 5, 61, 108
9, 168768, Channel_aftertouch_c, 5, 21
9, 168780, Channel_aftertouch_c, 5, 0
9, 168848, Note_on_c, 5, 62, 0
9, 168960, Note_on_c, 5, 61, 0
9, 168960, Note_on_c, 5, 57, 104
9, 169152, Note_on_c, 5, 64, 80
9, 169284, Channel_aftertouch_c, 5, 3
9, 169304, Note_on_c, 5, 64, 0
9, 169304, Channel_aftertouch_c, 5, 0
9, 169344, Note_on_c, 5, 69, 73
9, 169392, Channel_aftertouch_c, 5, 15
9, 169408, Channel_aftertouch_c, 5, 18
9, 169428, Channel_aftertouch_c, 5, 16
9, 169440, Channel_aftertouch_c, 5, 12
9, 169448, Channel_aftertouch_c, 5, 2
9, 169464, Channel_aftertouch_c, 5, 0
9, 169536, Note_on_c, 5, 64, 57
9, 169552, Note_on_c, 5, 57, 0
9, 169560, Note_on_c, 5, 69, 0
9, 169684, Note_on_c, 5, 64, 0
9, 169728, Note_on_c, 5, 68, 113
9, 169736, Channel_aftertouch_c, 5, 26
9, 169748, Channel_aftertouch_c, 5, 14
9, 169760, Channel_aftertouch_c, 5, 31
9, 169768, Channel_aftertouch_c, 5, 36
9, 169780, Channel_aftertouch_c, 5, 38
9, 169804, Channel_aftertouch_c, 5, 33
9, 169816, Channel_aftertouch_c, 5, 27
9, 169824, Channel_aftertouch_c, 5, 22
9, 169836, Channel_aftertouch_c, 5, 19
9, 169860, Channel_aftertouch_c, 5, 22
9, 169872, Channel_aftertouch_c, 5, 24
9, 169880, Channel_aftertouch_c, 5, 27
9, 169892, Channel_aftertouch_c, 5, 29
9, 169904, Channel_aftertouch_c, 5, 32
9, 169916, Channel_aftertouch_c, 5, 33
9, 169928, Channel_aftertouch_c, 5, 34
9, 169936, Channel_aftertouch_c, 5, 35
9, 169960, Channel_aftertouch_c, 5, 36
9, 170004, Channel_aftertouch_c, 5, 36
9, 170016, Channel_aftertouch_c, 5, 37
9, 170048, Channel_aftertouch_c, 5, 34
9, 170056, Channel_aftertouch_c, 5, 32
9, 170072, Channel_aftertouch_c, 5, 27
9, 170080, Channel_aftertouch_c, 5, 23
9, 170092, Channel_aftertouch_c, 5, 8
9, 170104, Channel_aftertouch_c, 5, 0
9, 170112, Note_on_c, 5, 64, 73
9, 170124, Note_on_c, 5, 68, 0
9, 170128, Channel_aftertouch_c, 5, 48
9, 170136, Channel_aftertouch_c, 5, 55
9, 170148, Channel_aftertouch_c, 5, 64
9, 170160, Channel_aftertouch_c, 5, 66
9, 170172, Channel_aftertouch_c, 5, 67
9, 170192, Channel_aftertouch_c, 5, 63
9, 170204, Channel_aftertouch_c, 5, 58
9, 170216, Channel_aftertouch_c, 5, 37
9, 170224, Channel_aftertouch_c, 5, 0
9, 170240, Note_on_c, 5, 64, 0
9, 170292, Channel_aftertouch_c, 5, 46
9, 170304, Note_on_c, 5, 69, 100
9, 170304, Channel_aftertouch_c, 5, 15
9, 170316, Channel_aftertouch_c, 5, 24
9, 170328, Channel_aftertouch_c, 5, 1
9, 170336, Channel_aftertouch_c, 5, 0
9, 170496, Note_on_c, 5, 57, 104
9, 170540, Channel_aftertouch_c, 5, 30
9, 170552, Channel_aftertouch_c, 5, 45
9, 170564, Channel_aftertouch_c, 5, 51
9, 170576, Channel_aftertouch_c, 5, 52
9, 170588, Channel_aftertouch_c, 5, 46
9, 170596, Channel_aftertouch_c, 5, 37
9, 170608, Channel_aftertouch_c, 5, 27
9, 170620, Channel_aftertouch_c, 5, 17
9, 170632, Channel_aftertouch_c, 5, 9
9, 170644, Channel_aftertouch_c, 5, 0
9, 170688, Note_on_c, 5, 64, 76
9, 170688, Channel_aftertouch_c, 5, 2
9, 170692, Note_on_c, 5, 69, 0
9, 170704, Channel_aftertouch_c, 5, 56
9, 170712, Channel_aftertouch_c, 5, 69
9, 170724, Channel_aftertouch_c, 5, 70
9, 170756, Channel_aftertouch_c, 5, 67
9, 170768, Channel_aftertouch_c, 5, 65
9, 170780, Channel_aftertouch_c, 5, 64
9, 170792, Channel_aftertouch_c, 5, 62
9, 170800, Channel_aftertouch_c, 5, 55
9, 170812, Channel_aftertouch_c, 5, 32
9, 170824, Channel_aftertouch_c, 5, 9
9, 170856, Channel_aftertouch_c, 5, 11
9, 170868, Note_on_c, 5, 64, 0
9, 170876, Channel_aftertouch_c, 5, 12
9, 170880, Note_on_c, 5, 69, 99
9, 170888, Channel_aftertouch_c, 5, 37
9, 170900, Channel_aftertouch_c, 5, 37
9, 170912, Channel_aftertouch_c, 5, 59
9, 170924, Channel_aftertouch_c, 5, 60
9, 170936, Channel_aftertouch_c, 5, 61
9, 170944, Channel_aftertouch_c, 5, 59
9, 170956, Channel_aftertouch_c, 5, 56
9, 170968, Channel_aftertouch_c, 5, 52
9, 170980, Channel_aftertouch_c, 5, 46
9, 170992, Channel_aftertouch_c, 5, 39
9, 171004, Channel_aftertouch_c, 5, 30
9, 171012, Channel_aftertouch_c, 5, 15
9, 171024, Channel_aftertouch_c, 5, 0
9, 171032, Note_on_c, 5, 69, 0
9, 171056, Note_on_c, 5, 57, 0
9, 171068, Channel_aftertouch_c, 5, 10
9, 171072, Note_on_c, 5, 61, 101
9, 171080, Channel_aftertouch_c, 5, 0
9, 171256, Channel_aftertouch_c, 5, 22
9, 171264, Note_on_c, 5, 62, 93
9, 171268, Note_on_c, 5, 61, 0
9, 171272, Channel_aftertouch_c, 5, 62
9, 171284, Channel_aftertouch_c, 5, 83
9, 171296, Channel_aftertouch_c, 5, 89
9, 171304, Channel_aftertouch_c, 5, 90
9, 171320, Channel_aftertouch_c, 5, 87
9, 171328, Channel_aftertouch_c, 5, 83
9, 171340, Channel_aftertouch_c, 5, 80
9, 171372, Channel_aftertouch_c, 5, 82
9, 171384, Channel_aftertouch_c, 5, 83
9, 171416, Channel_aftertouch_c, 5, 79
9, 171428, Channel_aftertouch_c, 5, 66
9, 171440, Channel_aftertouch_c, 5, 19
9, 171448, Channel_aftertouch_c, 5, 19
9, 171456, Note_on_c, 5, 69, 81
9, 171464, Channel_aftertouch_c, 5, 54
9, 171468, Note_on_c, 5, 62, 0
9, 171476, Channel_aftertouch_c, 5, 57
9, 171488, Channel_aftertouch_c, 5, 59
9, 171496, Channel_aftertouch_c, 5, 59
9, 171520, Channel_aftertouch_c, 5, 57
9, 171532, Channel_aftertouch_c, 5, 55
9, 171552, Channel_aftertouch_c, 5, 55
9, 171564, Channel_aftertouch_c, 5, 54
9, 171576, Channel_aftertouch_c, 5, 52
9, 171588, Channel_aftertouch_c, 5, 50
9, 171600, Channel_aftertouch_c, 5, 48
9, 171612, Channel_aftertouch_c, 5, 72
9, 171624, Channel_aftertouch_c, 5, 76
9, 171648, Note_on_c, 5, 62, 77
9, 171648, Channel_aftertouch_c, 5, 74
9, 171656, Channel_aftertouch_c, 5, 76
9, 171668, Note_on_c, 5, 69, 0
9, 171668, Channel_aftertouch_c, 5, 78
9, 171680, Channel_aftertouch_c, 5, 80
9, 171692, Channel_aftertouch_c, 5, 81
9, 171712, Channel_aftertouch_c, 5, 77
9, 171724, Channel_aftertouch_c, 5, 73
9, 171736, Channel_aftertouch_c, 5, 68
9, 171748, Channel_aftertouch_c, 5, 66
9, 171760, Channel_aftertouch_c, 5, 64
9, 171772, Channel_aftertouch_c, 5, 61
9, 171780, Channel_aftertouch_c, 5, 52
9, 171792, Channel_aftertouch_c, 5, 48
9, 171804, Channel_aftertouch_c, 5, 47
9, 171816, Channel_aftertouch_c, 5, 46
9, 171828, Channel_aftertouch_c, 5, 16
9, 171840, Note_on_c, 5, 61, 101
9, 171840, Channel_aftertouch_c, 5, 21
9, 171852, Channel_aftertouch_c, 5, 0
9, 171920, Note_on_c, 5, 62, 0
9, 172032, Note_on_c, 5, 61, 0
9, 172032, Note_on_c, 5, 57, 96
9, 172224, Note_on_c, 5, 64, 73
9, 172356, Channel_aftertouch_c, 5, 3
9, 172376, Note_on_c, 5, 64, 0
9, 172376, Channel_aftertouch_c, 5, 0
9, 172416, Note_on_c, 5, 69, 66
9, 172464, Channel_aftertouch_c, 5, 15
9, 172480, Channel_aftertouch_c, 5, 18
9, 172500, Channel_aftertouch_c, 5, 16
9, 172512, Channel_aftertouch_c, 5, 12
9, 172520, Channel_aftertouch_c, 5, 2
9, 172536, Channel_aftertouch_c, 5, 0
9, 172608, Note_on_c, 5, 64, 51
9, 172624, Note_on_c, 5, 57, 0
9, 172632, Note_on_c, 5, 69, 0
9, 172756, Note_on_c, 5, 64, 0
9, 172800, Note_on_c, 5, 68, 100
9, 172808, Channel_aftertouch_c, 5, 26
9, 172820, Channel_aftertouch_c, 5, 14
9, 172832, Channel_aftertouch_c, 5, 31
9, 172840, Channel_aftertouch_c, 5, 36
9, 172852, Channel_aftertouch_c, 5, 38
9, 172876, Channel_aftertouch_c, 5, 33
9, 172888, Channel_aftertouch_c, 5, 27
9, 172896, Channel_aftertouch_c, 5, 22
9, 172908, Channel_aftertouch_c, 5, 19
9, 172932, Channel_aftertouch_c, 5, 22
9, 172944, Channel_aftertouch_c, 5, 24
9, 172952, Channel_aftertouch_c, 5, 27
9, 172964, Channel_aftertouch_c, 5, 29
9, 172976, Channel_aftertouch_c, 5, 32
9, 172988, Channel_aftertouch_c, 5, 33
9, 173000, Channel_aftertouch_c, 5, 34
9, 173008, Channel_aftertouch_c, 5, 35
9, 173032, Channel_aftertouch_c, 5, 36
9, 173076, Channel_aftertouch_c, 5, 36
9, 173088, Channel_aftertouch_c, 5, 37
9, 173120, Channel_aftertouch_c, 5, 34
9, 173128, Channel_aftertouch_c, 5, 32
9, 173144, Channel_aftertouch_c, 5, 27
9, 173152, Channel_aftertouch_c, 5, 23
9, 173164, Channel_aftertouch_c, 5, 8
9, 173176, Channel_aftertouch_c, 5, 0
9, 173184, Note_on_c, 5, 64, 63
9, 173196, Note_on_c, 5, 68, 0
9, 173200, Channel_aftertouch_c, 5, 48
9, 173208, Channel_aftertouch_c, 5, 55
9, 173220, Channel_aftertouch_c, 5, 64
9, 173232, Channel_aftertouch_c, 5, 66
9, 173244, Channel_aftertouch_c, 5, 67
9, 173264, Channel_aftertouch_c, 5, 63
9, 173276, Channel_aftertouch_c, 5, 58
9, 173288, Channel_aftertouch_c, 5, 37
9, 173296, Channel_aftertouch_c, 5, 0
9, 173312, Note_on_c, 5, 64, 0
9, 173364, Channel_aftertouch_c, 5, 46
9, 173376, Note_on_c, 5, 69, 86
9, 173376, Channel_aftertouch_c, 5, 15
9, 173388, Channel_aftertouch_c, 5, 24
9, 173400, Channel_aftertouch_c, 5, 1
9, 173408, Channel_aftertouch_c, 5, 0
9, 173568, Note_on_c, 5, 57, 88
9, 173612, Channel_aftertouch_c, 5, 30
9, 173624, Channel_aftertouch_c, 5, 45
9, 173636, Channel_aftertouch_c, 5, 51
9, 173648, Channel_aftertouch_c, 5, 52
9, 173660, Channel_aftertouch_c, 5, 46
9, 173668, Channel_aftertouch_c, 5, 37
9, 173680, Channel_aftertouch_c, 5, 27
9, 173692, Channel_aftertouch_c, 5, 17
9, 173704, Channel_aftertouch_c, 5, 9
9, 173716, Channel_aftertouch_c, 5, 0
9, 173760, Note_on_c, 5, 64, 63
9, 173760, Channel_aftertouch_c, 5, 2
9, 173764, Note_on_c, 5, 69, 0
9, 173776, Channel_aftertouch_c, 5, 56
9, 173784, Channel_aftertouch_c, 5, 69
9, 173796, Channel_aftertouch_c, 5, 70
9, 173828, Channel_aftertouch_c, 5, 67
9, 173840, Channel_aftertouch_c, 5, 65
9, 173852, Channel_aftertouch_c, 5, 64
9, 173864, Channel_aftertouch_c, 5, 62
9, 173872, Channel_aftertouch_c, 5, 55
9, 173884, Channel_aftertouch_c, 5, 32
9, 173896, Channel_aftertouch_c, 5, 9
9, 173928, Channel_aftertouch_c, 5, 11
9, 173940, Note_on_c, 5, 64, 0
9, 173948, Channel_aftertouch_c, 5, 12
9, 173952, Note_on_c, 5, 69, 83
9, 173960, Channel_aftertouch_c, 5, 37
9, 173972, Channel_aftertouch_c, 5, 37
9, 173984, Channel_aftertouch_c, 5, 59
9, 173996, Channel_aftertouch_c, 5, 60
9, 174008, Channel_aftertouch_c, 5, 61
9, 174016, Channel_aftertouch_c, 5, 59
9, 174028, Channel_aftertouch_c, 5, 56
9, 174040, Channel_aftertouch_c, 5, 52
9, 174052, Channel_aftertouch_c, 5, 46
9, 174064, Channel_aftertouch_c, 5, 39
9, 174076, Channel_aftertouch_c, 5, 30
9, 174084, Channel_aftertouch_c, 5, 15
9, 174096, Channel_aftertouch_c, 5, 0
9, 174104, Note_on_c, 5, 69, 0
9, 174128, Note_on_c, 5, 57, 0
9, 174140, Channel_aftertouch_c, 5, 10
9, 174144, Note_on_c, 5, 61, 85
9, 174152, Channel_aftertouch_c, 5, 0
9, 174328, Channel_aftertouch_c, 5, 22
9, 174336, Note_on_c, 5, 62, 77
9, 174340, Note_on_c, 5, 61, 0
9, 174344, Channel_aftertouch_c, 5, 62
9, 174356, Channel_aftertouch_c, 5, 83
9, 174368, Channel_aftertouch_c, 5, 89
9, 174376, Channel_aftertouch_c, 5, 90
9, 174392, Channel_aftertouch_c, 5, 87
9, 174400, Channel_aftertouch_c, 5, 83
9, 174412, Channel_aftertouch_c, 5, 80
9, 174444, Channel_aftertouch_c, 5, 82
9, 174456, Channel_aftertouch_c, 5, 83
9, 174488, Channel_aftertouch_c, 5, 79
9, 174500, Channel_aftertouch_c, 5, 66
9, 174512, Channel_aftertouch_c, 5, 19
9, 174520, Channel_aftertouch_c, 5, 19
9, 174528, Note_on_c, 5, 69, 68
9, 174536, Channel_aftertouch_c, 5, 54
9, 174540, Note_on_c, 5, 62, 0
9, 174548, Channel_aftertouch_c, 5, 57
9, 174560, Channel_aftertouch_c, 5, 59
9, 174568, Channel_aftertouch_c, 5, 59
9, 174592, Channel_aftertouch_c, 5, 57
9, 174604, Channel_aftertouch_c, 5, 55
9, 174624, Channel_aftertouch_c, 5, 55
9, 174636, Channel_aftertouch_c, 5, 54
9, 174648, Channel_aftertouch_c, 5, 52
9, 174660, Channel_aftertouch_c, 5, 50
9, 174672, Channel_aftertouch_c, 5, 48
9, 174684, Channel_aftertouch_c, 5, 72
9, 174696, Channel_aftertouch_c, 5, 76
9, 174720, Note_on_c, 5, 62, 64
9, 174720, Channel_aftertouch_c, 5, 74
9, 174728, Channel_aftertouch_c, 5, 76
9, 174740, Note_on_c, 5, 69, 0
9, 174740, Channel_aftertouch_c, 5, 78
9, 174752, Channel_aftertouch_c, 5, 80
9, 174764, Channel_aftertouch_c, 5, 81
9, 174784, Channel_aftertouch_c, 5, 77
9, 174796, Channel_aftertouch_c, 5, 73
9, 174808, Channel_aftertouch_c, 5, 68
9, 174820, Channel_aftertouch_c, 5, 66
9, 174832, Channel_aftertouch_c, 5, 64
9, 174844, Channel_aftertouch_c, 5, 61
9, 174852, Channel_aftertouch_c, 5, 52
9, 174864, Channel_aftertouch_c, 5, 48
9, 174876, Channel_aftertouch_c, 5, 47
9, 174888, Channel_aftertouch_c, 5, 46
9, 174900, Channel_aftertouch_c, 5, 16
9, 174912, Note_on_c, 5, 61, 84
9, 174912, Channel_aftertouch_c, 5, 21
9, 174924, Channel_aftertouch_c, 5, 0
9, 174992, Note_on_c, 5, 62, 0
9, 175104, Note_on_c, 5, 61, 0
9, 175104, Note_on_c, 5, 57, 80
9, 175296, Note_on_c, 5, 64, 60
9, 175428, Channel_aftertouch_c, 5, 3
9, 175448, Note_on_c, 5, 64, 0
9, 175448, Channel_aftertouch_c, 5, 0
9, 175488, Note_on_c, 5, 69, 54
9, 175536, Channel_aftertouch_c, 5, 15
9, 175552, Channel_aftertouch_c, 5, 18
9, 175572, Channel_aftertouch_c, 5, 16
9, 175584, Channel_aftertouch_c, 5, 12
9, 175592, Channel_aftertouch_c, 5, 2
9, 175608, Channel_aftertouch_c, 5, 0
9, 175680, Note_on_c, 5, 64, 42
9, 175696, Note_on_c, 5, 57, 0
9, 175704, Note_on_c, 5, 69, 0
9, 175828, Note_on_c, 5, 64, 0
9, 175872, Note_on_c, 5, 68, 83
9, 175880, Channel_aftertouch_c, 5, 26
9, 175892, Channel_aftertouch_c, 5, 14
9, 175904, Channel_aftertouch_c, 5, 31
9, 175912, Channel_aftertouch_c, 5, 36
9, 175924, Channel_aftertouch_c, 5, 38
9, 175948, Channel_aftertouch_c, 5, 33
9, 175960, Channel_aftertouch_c, 5, 27
9, 175968, Channel_aftertouch_c, 5, 22
9, 175980, Channel_aftertouch_c, 5, 19
9, 176004, Channel_aftertouch_c, 5, 22
9, 176016, Channel_aftertouch_c, 5, 24
9, 176024, Channel_aftertouch_c, 5, 27
9, 176036, Channel_aftertouch_c, 5, 29
9, 176048, Channel_aftertouch_c, 5, 32
9, 176060, Channel_aftertouch_c, 5, 33
9, 176072, Channel_aftertouch_c, 5, 34
9, 176080, Channel_aftertouch_c, 5, 35
9, 176104, Channel_aftertouch_c, 5, 36
9, 176148, Channel_aftertouch_c, 5, 36
9, 176160, Channel_aftertouch_c, 5, 37
9, 176192, Channel_aftertouch_c, 5, 34
9, 176200, Channel_aftertouch_c, 5, 32
9, 176216, Channel_aftertouch_c, 5, 27
9, 176224, Channel_aftertouch_c, 5, 23
9, 176236, Channel_aftertouch_c, 5, 8
9, 176248, Channel_aftertouch_c, 5, 0
9, 176256, Note_on_c, 5, 64, 52
9, 176268, Note_on_c, 5, 68, 0
9, 176272, Channel_aftertouch_c, 5, 48
9, 176280, Channel_aftertouch_c, 5, 55
9, 176292, Channel_aftertouch_c, 5, 64
9, 176304, Channel_aftertouch_c, 5, 66
9, 176316, Channel_aftertouch_c, 5, 67
9, 176336, Channel_aftertouch_c, 5, 63
9, 176348, Channel_aftertouch_c, 5, 58
9, 176360, Channel_aftertouch_c, 5, 37
9, 176368, Channel_aftertouch_c, 5, 0
9, 176384, Note_on_c, 5, 64, 0
9, 176436, Channel_aftertouch_c, 5, 46
9, 176448, Note_on_c, 5, 69, 71
9, 176448, Channel_aftertouch_c, 5, 15
9, 176460, Channel_aftertouch_c, 5, 24
9, 176472, Channel_aftertouch_c, 5, 1
9, 176480, Channel_aftertouch_c, 5, 0
9, 176640, Note_on_c, 5, 57, 72
9, 176684, Channel_aftertouch_c, 5, 30
9, 176696, Channel_aftertouch_c, 5, 45
9, 176708, Channel_aftertouch_c, 5, 51
9, 176720, Channel_aftertouch_c, 5, 52
9, 176732, Channel_aftertouch_c, 5, 46
9, 176740, Channel_aftertouch_c, 5, 37
9, 176752, Channel_aftertouch_c, 5, 27
9, 176764, Channel_aftertouch_c, 5, 17
9, 176776, Channel_aftertouch_c, 5, 9
9, 176788, Channel_aftertouch_c, 5, 0
9, 176832, Note_on_c, 5, 64, 52
9, 176832, Channel_aftertouch_c, 5, 2
9, 176836, Note_on_c, 5, 69, 0
9, 176848, Channel_aftertouch_c, 5, 56
9, 176856, Channel_aftertouch_c, 5, 69
9, 176868, Channel_aftertouch_c, 5, 70
9, 176900, Channel_aftertouch_c, 5, 67
9, 176912, Channel_aftertouch_c, 5, 65
9, 176924, Channel_aftertouch_c, 5, 64
9, 176936, Channel_aftertouch_c, 5, 62
9, 176944, Channel_aftertouch_c, 5, 55
9, 176956, Channel_aftertouch_c, 5, 32
9, 176968, Channel_aftertouch_c, 5, 9
9, 177000, Channel_aftertouch_c, 5, 11
9, 177012, Note_on_c, 5, 64, 0
9, 177020, Channel_aftertouch_c, 5, 12
9, 177024, Note_on_c, 5, 69, 68
9, 177032, Channel_aftertouch_c, 5, 37
9, 177044, Channel_aftertouch_c, 5, 37
9, 177056, Channel_aftertouch_c, 5, 59
9, 177068, Channel_aftertouch_c, 5, 60
9, 177080, Channel_aftertouch_c, 5, 61
9, 177088, Channel_aftertouch_c, 5, 59
9, 177100, Channel_aftertouch_c, 5, 56
9, 177112, Channel_aftertouch_c, 5, 52
9, 177124, Channel_aftertouch_c, 5, 46
9, 177136, Channel_aftertouch_c, 5, 39
9, 177148, Channel_aftertouch_c, 5, 30
9, 177156, Channel_aftertouch_c, 5, 15
9, 177168, Channel_aftertouch_c, 5, 0
9, 177176, Note_on_c, 5, 69, 0
9, 177200, Note_on_c, 5, 57, 0
9, 177212, Channel_aftertouch_c, 5, 10
9, 177216, Note_on_c, 5, 61, 69
9, 177224, Channel_aftertouch_c, 5, 0
9, 177400, Channel_aftertouch_c, 5, 22
9, 177408, Note_on_c, 5, 62, 63
9, 177412, Note_on_c, 5, 61, 0
9, 177416, Channel_aftertouch_c, 5, 62
9, 177428, Channel_aftertouch_c, 5, 83
9, 177440, Channel_aftertouch_c, 5, 89
9, 177448, Channel_aftertouch_c, 5, 90
9, 177464, Channel_aftertouch_c, 5, 87
9, 177472, Channel_aftertouch_c, 5, 83
9, 177484, Channel_aftertouch_c, 5, 80
9, 177516, Channel_aftertouch_c, 5, 82
9, 177528, Channel_aftertouch_c, 5, 83
9, 177560, Channel_aftertouch_c, 5, 79
9, 177572, Channel_aftertouch_c, 5, 66
9, 177584, Channel_aftertouch_c, 5, 19
9, 177592, Channel_aftertouch_c, 5, 19
9, 177600, Note_on_c, 5, 69, 55
9, 177608, Channel_aftertouch_c, 5, 54
9, 177612, Note_on_c, 5, 62, 0
9, 177620, Channel_aftertouch_c, 5, 57
9, 177632, Channel_aftertouch_c, 5, 59
9, 177640, Channel_aftertouch_c, 5, 59
9, 177664, Channel_aftertouch_c, 5, 57
9, 177676, Channel_aftertouch_c, 5, 55
9, 177696, Channel_aftertouch_c, 5, 55
9, 177708, Channel_aftertouch_c, 5, 54
9, 177720, Channel_aftertouch_c, 5, 52
9, 177732, Channel_aftertouch_c, 5, 50
9, 177744, Channel_aftertouch_c, 5, 48
9, 177756, Channel_aftertouch_c, 5, 72
9, 177768, Channel_aftertouch_c, 5, 76
9, 177792, Note_on_c, 5, 62, 52
9, 177792, Channel_aftertouch_c, 5, 74
9, 177800, Channel_aftertouch_c, 5, 76
9, 177812, Note_on_c, 5, 69, 0
9, 177812, Channel_aftertouch_c, 5, 78
9, 177824, Channel_aftertouch_c, 5, 80
9, 177836, Channel_aftertouch_c, 5, 81
9, 177856, Channel_aftertouch_c, 5, 77
9, 177868, Channel_aftertouch_c, 5, 73
9, 177880, Channel_aftertouch_c, 5, 68
9, 177892, Channel_aftertouch_c, 5, 66
9, 177904, Channel_aftertouch_c, 5, 64
9, 177916, Channel_aftertouch_c, 5, 61
9, 177924, Channel_aftertouch_c, 5, 52
9, 177936, Channel_aftertouch_c, 5, 48
9, 177948, Channel_aftertouch_c, 5, 47
9, 177960, Channel_aftertouch_c, 5, 46
9, 177972, Channel_aftertouch_c, 5, 16
9, 177984, Note_on_c, 5, 61, 68
9, 177984, Channel_aftertouch_c, 5, 21
9, 177996, Channel_aftertouch_c, 5, 0
9, 178064, Note_on_c, 5, 62, 0
9, 178176, Note_on_c, 5, 61, 0
9, 178176, Note_on_c, 5, 57, 64
9, 178368, Note_on_c, 5, 64, 48
9, 178500, Channel_aftertouch_c, 5, 3
9, 178520, Note_on_c, 5, 64, 0
9, 178520, Channel_aftertouch_c, 5, 0
9, 178560, Note_on_c, 5, 69, 43
9, 178608, Channel_aftertouch_c, 5, 15
9, 178624, Channel_aftertouch_c, 5, 18
9, 178644, Channel_aftertouch_c, 5, 16
9, 178656, Channel_aftertouch_c, 5, 12
9, 178664, Channel_aftertouch_c, 5, 2
9, 178680, Channel_aftertouch_c, 5, 0
9, 178752, Note_on_c, 5, 64, 33
9, 178768, Note_on_c, 5, 57, 0
9, 178776, Note_on_c, 5, 69, 0
9, 178900, Note_on_c, 5, 64, 0
9, 178944, Note_on_c, 5, 68, 65
9, 178952, Channel_aftertouch_c, 5, 26
9, 178964, Channel_aftertouch_c, 5, 14
9, 178976, Channel_aftertouch_c, 5, 31
9, 178984, Channel_aftertouch_c, 5, 36
9, 178996, Channel_aftertouch_c, 5, 38
9, 179020, Channel_aftertouch_c, 5, 33
9, 179032, Channel_aftertouch_c, 5, 27
9, 179040, Channel_aftertouch_c, 5, 22
9, 179052, Channel_aftertouch_c, 5, 19
9, 179076, Channel_aftertouch_c, 5, 22
9, 179088, Channel_aftertouch_c, 5, 24
9, 179096, Channel_aftertouch_c, 5, 27
9, 179108, Channel_aftertouch_c, 5, 29
9, 179120, Channel_aftertouch_c, 5, 32
9, 179132, Channel_aftertouch_c, 5, 33
9, 179144, Channel_aftertouch_c, 5, 34
9, 179152, Channel_aftertouch_c, 5, 35
9, 179176, Channel_aftertouch_c, 5, 36
9, 179220, Channel_aftertouch_c, 5, 36
9, 179232, Channel_aftertouch_c, 5, 37
9, 179264, Channel_aftertouch_c, 5, 34
9, 179272, Channel_aftertouch_c, 5, 32
9, 179288, Channel_aftertouch_c, 5, 27
9, 179296, Channel_aftertouch_c, 5, 23
9, 179308, Channel_aftertouch_c, 5, 8
9, 179320, Channel_aftertouch_c, 5, 0
9, 179328, Note_on_c, 5, 64, 40
9, 179340, Note_on_c, 5, 68, 0
9, 179344, Channel_aftertouch_c, 5, 48
9, 179352, Channel_aftertouch_c, 5, 55
9, 179364, Channel_aftertouch_c, 5, 64
9, 179376, Channel_aftertouch_c, 5, 66
9, 179388, Channel_aftertouch_c, 5, 67
9, 179408, Channel_aftertouch_c, 5, 63
9, 179420, Channel_aftertouch_c, 5, 58
9, 179432, Channel_aftertouch_c, 5, 37
9, 179440, Channel_aftertouch_c, 5, 0
9, 179456, Note_on_c, 5, 64, 0
9, 179508, Channel_aftertouch_c, 5, 46
9, 179520, Note_on_c, 5, 69, 55
9, 179520, Channel_aftertouch_c, 5, 15
9, 179532, Channel_aftertouch_c, 5, 24
9, 179544, Channel_aftertouch_c, 5, 1
9, 179552, Channel_aftertouch_c, 5, 0
9, 179712, Note_on_c, 5, 57, 56
9, 179756, Channel_aftertouch_c, 5, 30
9, 179768, Channel_aftertouch_c, 5, 45
9, 179780, Channel_aftertouch_c, 5, 51
9, 179792, Channel_aftertouch_c, 5, 52
9, 179804, Channel_aftertouch_c, 5, 46
9, 179812, Channel_aftertouch_c, 5, 37
9, 179824, Channel_aftertouch_c, 5, 27
9, 179836, Channel_aftertouch_c, 5, 17
9, 179848, Channel_aftertouch_c, 5, 9
9, 179860, Channel_aftertouch_c, 5, 0
9, 179904, Note_on_c, 5, 64, 40
9, 179904, Channel_aftertouch_c, 5, 2
9, 179908, Note_on_c, 5, 69, 0
9, 179920, Channel_aftertouch_c, 5, 56
9, 179928, Channel_aftertouch_c, 5, 69
9, 179940, Channel_aftertouch_c, 5, 70
9, 179972, Channel_aftertouch_c, 5, 67
9, 179984, Channel_aftertouch_c, 5, 65
9, 179996, Channel_aftertouch_c, 5, 64
9, 180008, Channel_aftertouch_c, 5, 62
9, 180016, Channel_aftertouch_c, 5, 55
9, 180028, Channel_aftertouch_c, 5, 32
9, 180040, Channel_aftertouch_c, 5, 9
9, 180072, Channel_aftertouch_c, 5, 11
9, 180084, Note_on_c, 5, 64, 0
9, 180092, Channel_aftertouch_c, 5, 12
9, 180096, Note_on_c, 5, 69, 52
9, 180104, Channel_aftertouch_c, 5, 37
9, 180116, Channel_aftertouch_c, 5, 37
9, 180128, Channel_aftertouch_c, 5, 59
9, 180140, Channel_aftertouch_c, 5, 60
9, 180152, Channel_aftertouch_c, 5, 61
9, 180160, Channel_aftertouch_c, 5, 59
9, 180172, Channel_aftertouch_c, 5, 56
9, 180184, Channel_aftertouch_c, 5, 52
9, 180196, Channel_aftertouch_c, 5, 46
9, 180208, Channel_aftertouch_c, 5, 39
9, 180220, Channel_aftertouch_c, 5, 30
9, 180228, Channel_aftertouch_c, 5, 15
9, 180240, Channel_aftertouch_c, 5, 0
9, 180248, Note_on_c, 5, 69, 0
9, 180272, Note_on_c, 5, 57, 0
9, 180284, Channel_aftertouch_c, 5, 10
9, 180288, Note_on_c, 5, 61, 53
9, 180296, Channel_aftertouch_c, 5, 0
9, 180472, Channel_aftertouch_c, 5, 22
9, 180480, Note_on_c, 5, 62, 48
9, 180484, Note_on_c, 5, 61, 0
9, 180488, Channel_aftertouch_c, 5, 62
9, 180500, Channel_aftertouch_c, 5, 83
9, 180512, Channel_aftertouch_c, 5, 89
9, 180520, Channel_aftertouch_c, 5, 90
9, 180536, Channel_aftertouch_c, 5, 87
9, 180544, Channel_aftertouch_c, 5, 83
9, 180556, Channel_aftertouch_c, 5, 80
9, 180588, Channel_aftertouch_c, 5, 82
9, 180600, Channel_aftertouch_c, 5, 83
9, 180632, Channel_aftertouch_c, 5, 79
9, 180644, Channel_aftertouch_c, 5, 66
9, 180656, Channel_aftertouch_c, 5, 19
9, 180664, Channel_aftertouch_c, 5, 19
9, 180672, Note_on_c, 5, 69, 42
9, 180680, Channel_aftertouch_c, 5, 54
9, 180684, Note_on_c, 5, 62, 0
9, 180692, Channel_aftertouch_c, 5, 57
9, 180704, Channel_aftertouch_c, 5, 59
9, 180712, Channel_aftertouch_c, 5, 59
9, 180736, Channel_aftertouch_c, 5, 57
9, 180748, Channel_aftertouch_c, 5, 55
9, 180768, Channel_aftertouch_c, 5, 55
9, 180780, Channel_aftertouch_c, 5, 54
9, 180792, Channel_aftertouch_c, 5, 52
9, 180804, Channel_aftertouch_c, 5, 50
9, 180816, Channel_aftertouch_c, 5, 48
9, 180828, Channel_aftertouch_c, 5, 72
9, 180840, Channel_aftertouch_c, 5, 76
9, 180864, Note_on_c, 5, 62, 40
9, 180864, Channel_aftertouch_c, 5, 74
9, 180872, Channel_aftertouch_c, 5, 76
9, 180884, Note_on_c, 5, 69, 0
9, 180884, Channel_aftertouch_c, 5, 78
9, 180896, Channel_aftertouch_c, 5, 80
9, 180908, Channel_aftertouch_c, 5, 81
9, 180928, Channel_aftertouch_c, 5, 77
9, 180940, Channel_aftertouch_c, 5, 73
9, 180952, Channel_aftertouch_c, 5, 68
9, 180964, Channel_aftertouch_c, 5, 66
9, 180976, Channel_aftertouch_c, 5, 64
9, 180988, Channel_aftertouch_c, 5, 61
9, 180996, Channel_aftertouch_c, 5, 52
9, 181008, Channel_aftertouch_c, 5, 48
9, 181020, Channel_aftertouch_c, 5, 47
9, 181032, Channel_aftertouch_c, 5, 46
9, 181044, Channel_aftertouch_c, 5, 16
9, 181056, Note_on_c, 5, 61, 51
9, 181056, Channel_aftertouch_c, 5, 21
9, 181068, Channel_aftertouch_c, 5, 0
9, 181136, Note_on_c, 5, 62, 0
9, 181248, Note_on_c, 5, 61, 0
9, 181248, Note_on_c, 5, 57, 48
9, 181440, Note_on_c, 5, 64, 36
9, 181572, Channel_aftertouch_c, 5, 3
9, 181592, Note_on_c, 5, 64, 0
9, 181592, Channel_aftertouch_c, 5, 0
9, 181632, Note_on_c, 5, 69, 32
9, 181680, Channel_aftertouch_c, 5, 15
9, 181696, Channel_aftertouch_c, 5, 18
9, 181716, Channel_aftertouch_c, 5, 16
9, 181728, Channel_aftertouch_c, 5, 12
9, 181736, Channel_aftertouch_c, 5, 2
9, 181752, Channel_aftertouch_c, 5, 0
9, 181824, Note_on_c, 5, 64, 25
9, 181840, Note_on_c, 5, 57, 0
9, 181848, Note_on_c, 5, 69, 0
9, 181972, Note_on_c, 5, 64, 0
9, 182016, Note_on_c, 5, 68, 48
9, 182024, Channel_aftertouch_c, 5, 26
9, 182036, Channel_aftertouch_c, 5, 14
9, 182048, Channel_aftertouch_c, 5, 31
9, 182056, Channel_aftertouch_c, 5, 36
9, 182068, Channel_aftertouch_c, 5, 38
9, 182092, Channel_aftertouch_c, 5, 33
9, 182104, Channel_aftertouch_c, 5, 27
9, 182112, Channel_aftertouch_c, 5, 22
9, 182124, Channel_aftertouch_c, 5, 19
9, 182148, Channel_aftertouch_c, 5, 22
9, 182160, Channel_aftertouch_c, 5, 24
9, 182168, Channel_aftertouch_c, 5, 27
9, 182180, Channel_aftertouch_c, 5, 29
9, 182192, Channel_aftertouch_c, 5, 32
9, 182204, Channel_aftertouch_c, 5, 33
9, 182216, Channel_aftertouch_c, 5, 34
9, 182224, Channel_aftertouch_c, 5, 35
9, 182248, Channel_aftertouch_c, 5, 36
9, 182292, Channel_aftertouch_c, 5, 36
9, 182304, Channel_aftertouch_c, 5, 37
9, 182336, Channel_aftertouch_c, 5, 34
9, 182344, Channel_aftertouch_c, 5, 32
9, 182360, Channel_aftertouch_c, 5, 27
9, 182368, Channel_aftertouch_c, 5, 23
9, 182380, Channel_aftertouch_c, 5, 8
9, 182392, Channel_aftertouch_c, 5, 0
9, 182400, Note_on_c, 5, 64, 29
9, 182412, Note_on_c, 5, 68, 0
9, 182416, Channel_aftertouch_c, 5, 48
9, 182424, Channel_aftertouch_c, 5, 55
9, 182436, Channel_aftertouch_c, 5, 64
9, 182448, Channel_aftertouch_c, 5, 66
9, 182460, Channel_aftertouch_c, 5, 67
9, 182480, Channel_aftertouch_c, 5, 63
9, 182492, Channel_aftertouch_c, 5, 58
9, 182504, Channel_aftertouch_c, 5, 37
9, 182512, Channel_aftertouch_c, 5, 0
9, 182528, Note_on_c, 5, 64, 0
9, 182580, Channel_aftertouch_c, 5, 46
9, 182592, Note_on_c, 5, 69, 40
9, 182592, Channel_aftertouch_c, 5, 15
9, 182604, Channel_aftertouch_c, 5, 24
9, 182616, Channel_aftertouch_c, 5, 1
9, 182624, Channel_aftertouch_c, 5, 0
9, 182784, Note_on_c, 5, 57, 40
9, 182828, Channel_aftertouch_c, 5, 30
9, 182840, Channel_aftertouch_c, 5, 45
9, 182852, Channel_aftertouch_c, 5, 51
9, 182864, Channel_aftertouch_c, 5, 52
9, 182876, Channel_aftertouch_c, 5, 46
9, 182884, Channel_aftertouch_c, 5, 37
9, 182896, Channel_aftertouch_c, 5, 27
9, 182908, Channel_aftertouch_c, 5, 17
9, 182920, Channel_aftertouch_c, 5, 9
9, 182932, Channel_aftertouch_c, 5, 0
9, 182976, Note_on_c, 5, 64, 28
9, 182976, Channel_aftertouch_c, 5, 2
9, 182980, Note_on_c, 5, 69, 0
9, 182992, Channel_aftertouch_c, 5, 56
9, 183000, Channel_aftertouch_c, 5, 69
9, 183012, Channel_aftertouch_c, 5, 70
9, 183044, Channel_aftertouch_c, 5, 67
9, 183056, Channel_aftertouch_c, 5, 65
9, 183068, Channel_aftertouch_c, 5, 64
9, 183080, Channel_aftertouch_c, 5, 62
9, 183088, Channel_aftertouch_c, 5, 55
9, 183100, Channel_aftertouch_c, 5, 32
9, 183112, Channel_aftertouch_c, 5, 9
9, 183144, Channel_aftertouch_c, 5, 11
9, 183156, Note_on_c, 5, 64, 0
9, 183164, Channel_aftertouch_c, 5, 12
9, 183168, Note_on_c, 5, 69, 37
9, 183176, Channel_aftertouch_c, 5, 37
9, 183188, Channel_aftertouch_c, 5, 37
9, 183200, Channel_aftertouch_c, 5, 59
9, 183212, Channel_aftertouch_c, 5, 60
9, 183224, Channel_aftertouch_c, 5, 61
9, 183232, Channel_aftertouch_c, 5, 59
9, 183244, Channel_aftertouch_c, 5, 56
9, 183256, Channel_aftertouch_c, 5, 52
9, 183268, Channel_aftertouch_c, 5, 46
9, 183280, Channel_aftertouch_c, 5, 39
9, 183292, Channel_aftertouch_c, 5, 30
9, 183300, Channel_aftertouch_c, 5, 15
9, 183312, Channel_aftertouch_c, 5, 0
9, 183320, Note_on_c, 5, 69, 0
9, 183344, Note_on_c, 5, 57, 0
9, 183356, Channel_aftertouch_c, 5, 10
9, 183360, Note_on_c, 5, 61, 37
9, 183368, Channel_aftertouch_c, 5, 0
9, 183544, Channel_aftertouch_c, 5, 22
9, 183552, Note_on_c, 5, 62, 33
9, 183556, Note_on_c, 5, 61, 0
9, 183560, Channel_aftertouch_c, 5, 62
9, 183572, Channel_aftertouch_c, 5, 83
9, 183584, Channel_aftertouch_c, 5, 89
9, 183592, Channel_aftertouch_c, 5, 90
9, 183608, Channel_aftertouch_c, 5, 87
9, 183616, Channel_aftertouch_c, 5, 83
9, 183628, Channel_aftertouch_c, 5, 80
9, 183660, Channel_aftertouch_c, 5, 82
9, 183672, Channel_aftertouch_c, 5, 83
9, 183704, Channel_aftertouch_c, 5, 79
9, 183716, Channel_aftertouch_c, 5, 66
9, 183728, Channel_aftertouch_c, 5, 19
9, 183736, Channel_aftertouch_c, 5, 19
9, 183744, Note_on_c, 5, 69, 28
9, 183752, Channel_aftertouch_c, 5, 54
9, 183756, Note_on_c, 5, 62, 0
9, 183764, Channel_aftertouch_c, 5, 57
9, 183776, Channel_aftertouch_c, 5, 59
9, 183784, Channel_aftertouch_c, 5, 59
9, 183808, Channel_aftertouch_c, 5, 57
9, 183820, Channel_aftertouch_c, 5, 55
9, 183840, Channel_aftertouch_c, 5, 55
9, 183852, Channel_aftertouch_c, 5, 54
9, 183864, Channel_aftertouch_c, 5, 52
9, 183876, Channel_aftertouch_c, 5, 50
9, 183888, Channel_aftertouch_c, 5, 48
9, 183900, Channel_aftertouch_c, 5, 72
9, 183912, Channel_aftertouch_c, 5, 76
9, 183936, Note_on_c, 5, 62, 27
9, 183936, Channel_aftertouch_c, 5, 74
9, 183944, Channel_aftertouch_c, 5, 76
9, 183956, Note_on_c, 5, 69, 0
9, 183956, Channel_aftertouch_c, 5, 78
9, 183968, Channel_aftertouch_c, 5, 80
9, 183980, Channel_aftertouch_c, 5, 81
9, 184000, Channel_aftertouch_c, 5, 77
9, 184012, Channel_aftertouch_c, 5, 73
9, 184024, Channel_aftertouch_c, 5, 68
9, 184036, Channel_aftertouch_c, 5, 66
9, 184048, Channel_aftertouch_c, 5, 64
9, 184060, Channel_aftertouch_c, 5, 61
9, 184068, Channel_aftertouch_c, 5, 52
9, 184080, Channel_aftertouch_c, 5, 48
9, 184092, Channel_aftertouch_c, 5, 47
9, 184104, Channel_aftertouch_c, 5, 46
9, 184116, Channel_aftertouch_c, 5, 16
9, 184128, Note_on_c, 5, 61, 34
9, 184128, Channel_aftertouch_c, 5, 21
9, 184140, Channel_aftertouch_c, 5, 0
9, 184208, Note_on_c, 5, 62, 0
9, 184320, Note_on_c, 5, 61, 0
9, 184320, Note_on_c, 5, 57, 32
9, 184512, Note_on_c, 5, 64, 24
9, 184644, Channel_aftertouch_c, 5, 3
9, 184664, Note_on_c, 5, 64, 0
9, 184664, Channel_aftertouch_c, 5, 0
9, 184704, Note_on_c, 5, 69, 21
9, 184752, Channel_aftertouch_c, 5, 15
9, 184768, Channel_aftertouch_c, 5, 18
9, 184788, Channel_aftertouch_c, 5, 16
9, 184800, Channel_aftertouch_c, 5, 12
9, 184808, Channel_aftertouch_c, 5, 2
9, 184824, Channel_aftertouch_c, 5, 0
9, 184896, Note_on_c, 5, 64, 15
9, 184912, Note_on_c, 5, 57, 0
9, 184920, Note_on_c, 5, 69, 0
9, 185044, Note_on_c, 5, 64, 0
9, 185088, Note_on_c, 5, 68, 30
9, 185096, Channel_aftertouch_c, 5, 26
9, 185108, Channel_aftertouch_c, 5, 14
9, 185120, Channel_aftertouch_c, 5, 31
9, 185128, Channel_aftertouch_c, 5, 36
9, 185140, Channel_aftertouch_c, 5, 38
9, 185164, Channel_aftertouch_c, 5, 33
9, 185176, Channel_aftertouch_c, 5, 27
9, 185184, Channel_aftertouch_c, 5, 22
9, 185196, Channel_aftertouch_c, 5, 19
9, 185220, Channel_aftertouch_c, 5, 22
9, 185232, Channel_aftertouch_c, 5, 24
9, 185240, Channel_aftertouch_c, 5, 27
9, 185252, Channel_aftertouch_c, 5, 29
9, 185264, Channel_aftertouch_c, 5, 32
9, 185276, Channel_aftertouch_c, 5, 33
9, 185288, Channel_aftertouch_c, 5, 34
9, 185296, Channel_aftertouch_c, 5, 35
9, 185320, Channel_aftertouch_c, 5, 36
9, 185364, Channel_aftertouch_c, 5, 36
9, 185376, Channel_aftertouch_c, 5, 37
9, 185408, Channel_aftertouch_c, 5, 34
9, 185416, Channel_aftertouch_c, 5, 32
9, 185432, Channel_aftertouch_c, 5, 27
9, 185440, Channel_aftertouch_c, 5, 23
9, 185452, Channel_aftertouch_c, 5, 8
9, 185464, Channel_aftertouch_c, 5, 0
9, 185472, Note_on_c, 5, 64, 18
9, 185484, Note_on_c, 5, 68, 0
9, 185488, Channel_aftertouch_c, 5, 48
9, 185496, Channel_aftertouch_c, 5, 55
9, 185508, Channel_aftertouch_c, 5, 64
9, 185520, Channel_aftertouch_c, 5, 66
9, 185532, Channel_aftertouch_c, 5, 67
9, 185552, Channel_aftertouch_c, 5, 63
9, 185564, Channel_aftertouch_c, 5, 58
9, 185576, Channel_aftertouch_c, 5, 37
9, 185584, Channel_aftertouch_c, 5, 0
9, 185600, Note_on_c, 5, 64, 0
9, 185652, Channel_aftertouch_c, 5, 46
9, 185664, Note_on_c, 5, 69, 25
9, 185664, Channel_aftertouch_c, 5, 15
9, 185676, Channel_aftertouch_c, 5, 24
9, 185688, Channel_aftertouch_c, 5, 1
9, 185696, Channel_aftertouch_c, 5, 0
9, 185852, Note_on_c, 5, 57, 24
9, 185896, Channel_aftertouch_c, 5, 30
9, 185908, Channel_aftertouch_c, 5, 45
9, 185920, Channel_aftertouch_c, 5, 51
9, 185932, Channel_aftertouch_c, 5, 52
9, 185944, Channel_aftertouch_c, 5, 46
9, 185952, Channel_aftertouch_c, 5, 37
9, 185964, Channel_aftertouch_c, 5, 27
9, 185976, Channel_aftertouch_c, 5, 17
9, 185988, Channel_aftertouch_c, 5, 9
9, 186000, Channel_aftertouch_c, 5, 0
9, 186044, Note_on_c, 5, 64, 17
9, 186044, Channel_aftertouch_c, 5, 2
9, 186048, Note_on_c, 5, 69, 0
9, 186060, Channel_aftertouch_c, 5, 56
9, 186068, Channel_aftertouch_c, 5, 69
9, 186080, Channel_aftertouch_c, 5, 70
9, 186112, Channel_aftertouch_c, 5, 67
9, 186124, Channel_aftertouch_c, 5, 65
9, 186136, Channel_aftertouch_c, 5, 64
9, 186148, Channel_aftertouch_c, 5, 62
9, 186156, Channel_aftertouch_c, 5, 55
9, 186168, Channel_aftertouch_c, 5, 32
9, 186180, Channel_aftertouch_c, 5, 9
9, 186212, Channel_aftertouch_c, 5, 11
9, 186224, Note_on_c, 5, 64, 0
9, 186232, Channel_aftertouch_c, 5, 12
9, 186236, Note_on_c, 5, 69, 22
9, 186244, Channel_aftertouch_c, 5, 37
9, 186256, Channel_aftertouch_c, 5, 37
9, 186268, Channel_aftertouch_c, 5, 59
9, 186280, Channel_aftertouch_c, 5, 60
9, 186292, Channel_aftertouch_c, 5, 61
9, 186300, Channel_aftertouch_c, 5, 59
9, 186312, Channel_aftertouch_c, 5, 56
9, 186324, Channel_aftertouch_c, 5, 52
9, 186336, Channel_aftertouch_c, 5, 46
9, 186348, Channel_aftertouch_c, 5, 39
9, 186360, Channel_aftertouch_c, 5, 30
9, 186368, Channel_aftertouch_c, 5, 15
9, 186380, Channel_aftertouch_c, 5, 0
9, 186388, Note_on_c, 5, 69, 0
9, 186412, Note_on_c, 5, 57, 0
9, 186424, Channel_aftertouch_c, 5, 10
9, 186428, Note_on_c, 5, 61, 21
9, 186436, Channel_aftertouch_c, 5, 0
9, 186612, Channel_aftertouch_c, 5, 22
9, 186620, Note_on_c, 5, 62, 19
9, 186624, Note_on_c, 5, 61, 0
9, 186628, Channel_aftertouch_c, 5, 62
9, 186640, Channel_aftertouch_c, 5, 83
9, 186652, Channel_aftertouch_c, 5, 89
9, 186660, Channel_aftertouch_c, 5, 90
9, 186676, Channel_aftertouch_c, 5, 87
9, 186684, Channel_aftertouch_c, 5, 83
9, 186696, Channel_aftertouch_c, 5, 80
9, 186728, Channel_aftertouch_c, 5, 82
9, 186740, Channel_aftertouch_c, 5, 83
9, 186772, Channel_aftertouch_c, 5, 79
9, 186784, Channel_aftertouch_c, 5, 66
9, 186796, Channel_aftertouch_c, 5, 19
9, 186804, Channel_aftertouch_c, 5, 19
9, 186812, Note_on_c, 5, 69, 16
9, 186820, Channel_aftertouch_c, 5, 54
9, 186824, Note_on_c, 5, 62, 0
9, 186832, Channel_aftertouch_c, 5, 57
9, 186844, Channel_aftertouch_c, 5, 59
9, 186852, Channel_aftertouch_c, 5, 59
9, 186876, Channel_aftertouch_c, 5, 57
9, 186888, Channel_aftertouch_c, 5, 55
9, 186908, Channel_aftertouch_c, 5, 55
9, 186920, Channel_aftertouch_c, 5, 54
9, 186932, Channel_aftertouch_c, 5, 52
9, 186944, Channel_aftertouch_c, 5, 50
9, 186956, Channel_aftertouch_c, 5, 48
9, 186968, Channel_aftertouch_c, 5, 72
9, 186980, Channel_aftertouch_c, 5, 76
9, 187004, Note_on_c, 5, 62, 14
9, 187004, Channel_aftertouch_c, 5, 74
9, 187012, Channel_aftertouch_c, 5, 76
9, 187024, Note_on_c, 5, 69, 0
9, 187024, Channel_aftertouch_c, 5, 78
9, 187036, Channel_aftertouch_c, 5, 80
9, 187048, Channel_aftertouch_c, 5, 81
9, 187068, Channel_aftertouch_c, 5, 77
9, 187080, Channel_aftertouch_c, 5, 73
9, 187092, Channel_aftertouch_c, 5, 68
9, 187104, Channel_aftertouch_c, 5, 66
9, 187116, Channel_aftertouch_c, 5, 64
9, 187128, Channel_aftertouch_c, 5, 61
9, 187136, Channel_aftertouch_c, 5, 52
9, 187148, Channel_aftertouch_c, 5, 48
9, 187160, Channel_aftertouch_c, 5, 47
9, 187172, Channel_aftertouch_c, 5, 46
9, 187184, Channel_aftertouch_c, 5, 16
9, 187196, Note_on_c, 5, 61, 18
9, 187196, Channel_aftertouch_c, 5, 21
9, 187208, Channel_aftertouch_c, 5, 0
9, 187276, Note_on_c, 5, 62, 0
9, 187388, Note_on_c, 5, 61, 0
9, 187388, Note_on_c, 5, 57, 16
9, 187580, Note_on_c, 5, 64, 12
9, 187712, Channel_aftertouch_c, 5, 3
9, 187732, Note_on_c, 5, 64, 0
9, 187732, Channel_aftertouch_c, 5, 0
9, 187772, Note_on_c, 5, 69, 10
9, 187820, Channel_aftertouch_c, 5, 15
9, 187836, Channel_aftertouch_c, 5, 18
9, 187856, Channel_aftertouch_c, 5, 16
9, 187868, Channel_aftertouch_c, 5, 12
9, 187876, Channel_aftertouch_c, 5, 2
9, 187892, Channel_aftertouch_c, 5, 0
9, 187964, Note_on_c, 5, 64, 7
9, 187980, Note_on_c, 5, 57, 0
9, 187988, Note_on_c, 5, 69, 0
9, 188112, Note_on_c, 5, 64, 0
9, 188156, Note_on_c, 5, 68, 13
9, 188164, Channel_aftertouch_c, 5, 26
9, 188176, Channel_aftertouch_c, 5, 14
9, 188188, Channel_aftertouch_c, 5, 31
9, 188196, Channel_aftertouch_c, 5, 36
9, 188208, Channel_aftertouch_c, 5, 38
9, 188232, Channel_aftertouch_c, 5, 33
9, 188244, Channel_aftertouch_c, 5, 27
9, 188252, Channel_aftertouch_c, 5, 22
9, 188264, Channel_aftertouch_c, 5, 19
9, 188288, Channel_aftertouch_c, 5, 22
9, 188300, Channel_aftertouch_c, 5, 24
9, 188308, Channel_aftertouch_c, 5, 27
9, 188320, Channel_aftertouch_c, 5, 29
9, 188332, Channel_aftertouch_c, 5, 32
9, 188344, Channel_aftertouch_c, 5, 33
9, 188356, Channel_aftertouch_c, 5, 34
9, 188364, Channel_aftertouch_c, 5, 35
9, 188388, Channel_aftertouch_c, 5, 36
9, 188432, Channel_aftertouch_c, 5, 36
9, 188444, Channel_aftertouch_c, 5, 37
9, 188476, Channel_aftertouch_c, 5, 34
9, 188484, Channel_aftertouch_c, 5, 32
9, 188500, Channel_aftertouch_c, 5, 27
9, 188508, Channel_aftertouch_c, 5, 23
9, 188520, Channel_aftertouch_c, 5, 8
9, 188532, Channel_aftertouch_c, 5, 0
9, 188540, Note_on_c, 5, 64, 7
9, 188552, Note_on_c, 5, 68, 0
9, 188556, Channel_aftertouch_c, 5, 48
9, 188564, Channel_aftertouch_c, 5, 55
9, 188576, Channel_aftertouch_c, 5, 64
9, 188588, Channel_aftertouch_c, 5, 66
9, 188600, Channel_aftertouch_c, 5, 67
9, 188620, Channel_aftertouch_c, 5, 63
9, 188632, Channel_aftertouch_c, 5, 58
9, 188644, Channel_aftertouch_c, 5, 37
9, 188652, Channel_aftertouch_c, 5, 0
9, 188668, Note_on_c, 5, 64, 0
9, 188720, Channel_aftertouch_c, 5, 46
9, 188732, Note_on_c, 5, 69, 9
9, 188732, Channel_aftertouch_c, 5, 15
9, 188744, Channel_aftertouch_c, 5, 24
9, 188756, Channel_aftertouch_c, 5, 1
9, 188764, Channel_aftertouch_c, 5, 0
9, 188924, Note_on_c, 5, 57, 8
9, 188968, Channel_aftertouch_c, 5, 30
9, 188980, Channel_aftertouch_c, 5, 45
9, 188992, Channel_aftertouch_c, 5, 51
9, 189004, Channel_aftertouch_c, 5, 52
9, 189016, Channel_aftertouch_c, 5, 46
9, 189024, Channel_aftertouch_c, 5, 37
9, 189036, Channel_aftertouch_c, 5, 27
9, 189048, Channel_aftertouch_c, 5, 17
9, 189060, Channel_aftertouch_c, 5, 9
9, 189072, Channel_aftertouch_c, 5, 0
9, 189116, Note_on_c, 5, 64, 5
9, 189116, Channel_aftertouch_c, 5, 2
9, 189120, Note_on_c, 5, 69, 0
9, 189132, Channel_aftertouch_c, 5, 56
9, 189140, Channel_aftertouch_c, 5, 69
9, 189152, Channel_aftertouch_c, 5, 70
9, 189184, Channel_aftertouch_c, 5, 67
9, 189196, Channel_aftertouch_c, 5, 65
9, 189208, Channel_aftertouch_c, 5, 64
9, 189220, Channel_aftertouch_c, 5, 62
9, 189228, Channel_aftertouch_c, 5, 55
9, 189240, Channel_aftertouch_c, 5, 32
9, 189252, Channel_aftertouch_c, 5, 9
9, 189284, Channel_aftertouch_c, 5, 11
9, 189296, Note_on_c, 5, 64, 0
9, 189304, Channel_aftertouch_c, 5, 12
9, 189308, Note_on_c, 5, 69, 6
9, 189316, Channel_aftertouch_c, 5, 37
9, 189328, Channel_aftertouch_c, 5, 37
9, 189340, Channel_aftertouch_c, 5, 59
9, 189352, Channel_aftertouch_c, 5, 60
9, 189364, Channel_aftertouch_c, 5, 61
9, 189372, Channel_aftertouch_c, 5, 59
9, 189384, Channel_aftertouch_c, 5, 56
9, 189396, Channel_aftertouch_c, 5, 52
9, 189408, Channel_aftertouch_c, 5, 46
9, 189420, Channel_aftertouch_c, 5, 39
9, 189432, Channel_aftertouch_c, 5, 30
9, 189440, Channel_aftertouch_c, 5, 15
9, 189452, Channel_aftertouch_c, 5, 0
9, 189460, Note_on_c, 5, 69, 0
9, 189484, Note_on_c, 5, 57, 0
9, 189496, Channel_aftertouch_c, 5, 10
9, 189500, Note_on_c, 5, 61, 5
9, 189508, Channel_aftertouch_c, 5, 0
9, 189684, Channel_aftertouch_c, 5, 22
9, 189692, Note_on_c, 5, 62, 3
9, 189696, Note_on_c, 5, 61, 0
9, 189700, Channel_aftertouch_c, 5, 62
9, 189712, Channel_aftertouch_c, 5, 83
9, 189724, Channel_aftertouch_c, 5, 89
9, 189732, Channel_aftertouch_c, 5, 90
9, 189748, Channel_aftertouch_c, 5, 87
9, 189756, Channel_aftertouch_c, 5, 83
9, 189768, Channel_aftertouch_c, 5, 80
9, 189800, Channel_aftertouch_c, 5, 82
9, 189812, Channel_aftertouch_c, 5, 83
9, 189844, Channel_aftertouch_c, 5, 79
9, 189856, Channel_aftertouch_c, 5, 66
9, 189868, Channel_aftertouch_c, 5, 19
9, 189876, Channel_aftertouch_c, 5, 19
9, 189884, Note_on_c, 5, 69, 2
9, 189892, Channel_aftertouch_c, 5, 54
9, 189896, Note_on_c, 5, 62, 0
9, 189904, Channel_aftertouch_c, 5, 57
9, 189916, Channel_aftertouch_c, 5, 59
9, 189924, Channel_aftertouch_c, 5, 59
9, 189948, Channel_aftertouch_c, 5, 57
9, 189960, Channel_aftertouch_c, 5, 55
9, 189980, Channel_aftertouch_c, 5, 55
9, 189992, Channel_aftertouch_c, 5, 54
9, 190004, Channel_aftertouch_c, 5, 52
9, 190016, Channel_aftertouch_c, 5, 50
9, 190028, Channel_aftertouch_c, 5, 48
9, 190040, Channel_aftertouch_c, 5, 72
9, 190052, Channel_aftertouch_c, 5, 76
9, 190076, Note_on_c, 5, 62, 1
9, 190076, Channel_aftertouch_c, 5, 74
9, 190084, Channel_aftertouch_c, 5, 76
9, 190096, Note_on_c, 5, 69, 0
9, 190096, Channel_aftertouch_c, 5, 78
9, 190108, Channel_aftertouch_c, 5, 80
9, 190120, Channel_aftertouch_c, 5, 81
9, 190140, Channel_aftertouch_c, 5, 77
9, 190152, Channel_aftertouch_c, 5, 73
9, 190164, Channel_aftertouch_c, 5, 68
9, 190176, Channel_aftertouch_c, 5, 66
9, 190188, Channel_aftertouch_c, 5, 64
9, 190200, Channel_aftertouch_c, 5, 61
9, 190208, Channel_aftertouch_c, 5, 52
9, 190220, Channel_aftertouch_c, 5, 48
9, 190232, Channel_aftertouch_c, 5, 47
9, 190244, Channel_aftertouch_c, 5, 46
9, 190256, Channel_aftertouch_c, 5, 16
9, 190268, Note_on_c, 5, 61, 1
9, 190268, Channel_aftertouch_c, 5, 21
9, 190280, Channel_aftertouch_c, 5, 0
9, 190348, Note_on_c, 5, 62, 0
9, 190460, Note_on_c, 5, 61, 0
9, 190460, End_track
10, 0, Start_track
10, 0, MIDI_port, 0
10, 0, Title_t, "Guitar - muted"
10, 0, Program_c, 3, 28
10, 0, Control_c, 3, 7, 100
10, 0, Control_c, 3, 91, 40
10, 0, Control_c, 3, 93, 0
10, 1536, Control_c, 3, 91, 100
10, 1536, Control_c, 3, 7, 70
10, 13824, Control_c, 3, 7, 78
10, 15360, Note_on_c, 3, 62, 113
10, 15428, Note_on_c, 3, 62, 0
10, 15456, Note_on_c, 3, 62, 92
10, 15500, Note_on_c, 3, 62, 0
10, 15552, Note_on_c, 3, 62, 92
10, 15584, Note_on_c, 3, 62, 0
10, 15648, Note_on_c, 3, 62, 96
10, 15712, Note_on_c, 3, 62, 0
10, 15744, Note_on_c, 3, 62, 113
10, 15792, Note_on_c, 3, 62, 0
10, 15840, Note_on_c, 3, 62, 96
10, 15872, Note_on_c, 3, 62, 0
10, 15936, Note_on_c, 3, 62, 89
10, 15996, Note_on_c, 3, 62, 0
10, 16032, Note_on_c, 3, 62, 96
10, 16100, Channel_aftertouch_c, 3, 49
10, 16108, Note_on_c, 3, 62, 0
10, 16108, Channel_aftertouch_c, 3, 0
10, 16128, Note_on_c, 3, 62, 100
10, 16192, Note_on_c, 3, 62, 0
10, 16224, Note_on_c, 3, 62, 92
10, 16288, Note_on_c, 3, 62, 0
10, 16320, Note_on_c, 3, 64, 108
10, 16368, Note_on_c, 3, 64, 0
10, 16416, Note_on_c, 3, 64, 89
10, 16472, Note_on_c, 3, 64, 0
10, 16512, Note_on_c, 3, 64, 92
10, 16512, Note_on_c, 3, 64, 85
10, 16564, Note_on_c, 3, 64, 0
10, 16576, Channel_aftertouch_c, 3, 27
10, 16580, Note_on_c, 3, 64, 0
10, 16584, Channel_aftertouch_c, 3, 0
10, 16704, Note_on_c, 3, 64, 82
10, 16748, Note_on_c, 3, 64, 0
10, 16800, Note_on_c, 3, 64, 67
10, 16868, Note_on_c, 3, 64, 0
10, 16896, Note_on_c, 3, 62, 100
10, 16960, Note_on_c, 3, 62, 0
10, 16992, Note_on_c, 3, 62, 92
10, 17040, Note_on_c, 3, 62, 0
10, 17088, Note_on_c, 3, 62, 92
10, 17128, Note_on_c, 3, 62, 0
10, 17184, Note_on_c, 3, 62, 79
10, 17216, Note_on_c, 3, 62, 0
10, 17252, Channel_aftertouch_c, 3, 33
10, 17264, Channel_aftertouch_c, 3, 0
10, 17280, Note_on_c, 3, 62, 108
10, 17336, Note_on_c, 3, 62, 0
10, 17376, Note_on_c, 3, 62, 92
10, 17420, Note_on_c, 3, 62, 0
10, 17472, Note_on_c, 3, 62, 104
10, 17512, Note_on_c, 3, 62, 0
10, 17568, Note_on_c, 3, 62, 100
10, 17644, Note_on_c, 3, 62, 0
10, 17664, Note_on_c, 3, 62, 96
10, 17712, Note_on_c, 3, 62, 0
10, 17760, Note_on_c, 3, 62, 100
10, 17800, Note_on_c, 3, 62, 0
10, 17856, Note_on_c, 3, 60, 104
10, 17904, Note_on_c, 3, 60, 0
10, 17952, Note_on_c, 3, 60, 100
10, 18028, Note_on_c, 3, 60, 0
10, 18048, Note_on_c, 3, 60, 96
10, 18112, Note_on_c, 3, 60, 0
10, 18144, Note_on_c, 3, 60, 64
10, 18204, Note_on_c, 3, 60, 0
10, 18240, Note_on_c, 3, 60, 79
10, 18316, Note_on_c, 3, 60, 0
10, 18336, Note_on_c, 3, 60, 92
10, 18380, Note_on_c, 3, 60, 0
10, 18432, Note_on_c, 3, 60, 96
10, 18492, Note_on_c, 3, 60, 0
10, 18528, Note_on_c, 3, 62, 108
10, 18596, Note_on_c, 3, 62, 0
10, 18624, Note_on_c, 3, 62, 89
10, 18684, Note_on_c, 3, 62, 0
10, 18720, Note_on_c, 3, 62, 85
10, 18768, Note_on_c, 3, 62, 0
10, 18816, Note_on_c, 3, 62, 92
10, 18860, Channel_aftertouch_c, 3, 33
10, 18872, Channel_aftertouch_c, 3, 8
10, 18884, Channel_aftertouch_c, 3, 0
10, 18912, Note_on_c, 3, 62, 67
10, 18956, Note_on_c, 3, 62, 0
10, 19000, Note_on_c, 3, 62, 0
10, 19104, Note_on_c, 3, 62, 89
10, 19176, Note_on_c, 3, 62, 0
10, 19200, Note_on_c, 3, 62, 85
10, 19200, Note_on_c, 3, 62, 96
10, 19244, Note_on_c, 3, 62, 0
10, 19276, Note_on_c, 3, 62, 0
10, 19392, Note_on_c, 3, 64, 104
10, 19444, Note_on_c, 3, 64, 0
10, 19488, Note_on_c, 3, 64, 89
10, 19500, Channel_aftertouch_c, 3, 20
10, 19512, Channel_aftertouch_c, 3, 0
10, 19572, Note_on_c, 3, 64, 0
10, 19584, Note_on_c, 3, 64, 59
10, 19624, Note_on_c, 3, 64, 0
10, 19680, Note_on_c, 3, 64, 85
10, 19736, Note_on_c, 3, 64, 0
10, 19776, Note_on_c, 3, 64, 79
10, 19840, Note_on_c, 3, 64, 0
10, 19856, Channel_aftertouch_c, 3, 46
10, 19864, Channel_aftertouch_c, 3, 0
10, 19872, Note_on_c, 3, 64, 85
10, 19956, Note_on_c, 3, 64, 0
10, 19968, Note_on_c, 3, 62, 108
10, 19972, Channel_aftertouch_c, 3, 4
10, 19984, Channel_aftertouch_c, 3, 0
10, 20096, Note_on_c, 3, 62, 0
10, 20160, Note_on_c, 3, 62, 92
10, 20220, Note_on_c, 3, 62, 0
10, 20256, Note_on_c, 3, 62, 85
10, 20324, Note_on_c, 3, 62, 0
10, 20352, Note_on_c, 3, 62, 108
10, 20352, Channel_aftertouch_c, 3, 27
10, 20364, Channel_aftertouch_c, 3, 10
10, 20376, Channel_aftertouch_c, 3, 0
10, 20408, Note_on_c, 3, 62, 0
10, 20448, Note_on_c, 3, 62, 96
10, 20504, Note_on_c, 3, 62, 0
10, 20544, Note_on_c, 3, 62, 100
10, 20596, Note_on_c, 3, 62, 0
10, 20640, Note_on_c, 3, 62, 92
10, 20732, Note_on_c, 3, 62, 0
10, 20736, Note_on_c, 3, 62, 96
10, 20744, Channel_aftertouch_c, 3, 7
10, 20752, Channel_aftertouch_c, 3, 5
10, 20764, Channel_aftertouch_c, 3, 0
10, 20864, Note_on_c, 3, 62, 0
10, 20928, Note_on_c, 3, 60, 108
10, 20992, Note_on_c, 3, 60, 0
10, 21024, Note_on_c, 3, 60, 92
10, 21072, Note_on_c, 3, 60, 0
10, 21120, Note_on_c, 3, 60, 73
10, 21120, Note_on_c, 3, 60, 96
10, 21168, Note_on_c, 3, 60, 0
10, 21172, Note_on_c, 3, 60, 0
10, 21216, Note_on_c, 3, 60, 100
10, 21284, Note_on_c, 3, 60, 0
10, 21312, Note_on_c, 3, 60, 92
10, 21360, Note_on_c, 3, 60, 0
10, 21408, Note_on_c, 3, 60, 89
10, 21440, Note_on_c, 3, 60, 0
10, 21504, Note_on_c, 3, 62, 113
10, 21572, Note_on_c, 3, 62, 0
10, 21600, Note_on_c, 3, 62, 92
10, 21644, Note_on_c, 3, 62, 0
10, 21696, Note_on_c, 3, 62, 92
10, 21728, Note_on_c, 3, 62, 0
10, 21792, Note_on_c, 3, 62, 96
10, 21856, Note_on_c, 3, 62, 0
10, 21888, Note_on_c, 3, 62, 113
10, 21936, Note_on_c, 3, 62, 0
10, 21984, Note_on_c, 3, 62, 96
10, 22016, Note_on_c, 3, 62, 0
10, 22080, Note_on_c, 3, 62, 89
10, 22140, Note_on_c, 3, 62, 0
10, 22176, Note_on_c, 3, 62, 96
10, 22244, Channel_aftertouch_c, 3, 49
10, 22252, Note_on_c, 3, 62, 0
10, 22252, Channel_aftertouch_c, 3, 0
10, 22272, Note_on_c, 3, 62, 100
10, 22336, Note_on_c, 3, 62, 0
10, 22368, Note_on_c, 3, 62, 92
10, 22432, Note_on_c, 3, 62, 0
10, 22464, Note_on_c, 3, 64, 108
10, 22512, Note_on_c, 3, 64, 0
10, 22560, Note_on_c, 3, 64, 89
10, 22616, Note_on_c, 3, 64, 0
10, 22656, Note_on_c, 3, 64, 92
10, 22656, Note_on_c, 3, 64, 85
10, 22708, Note_on_c, 3, 64, 0
10, 22720, Channel_aftertouch_c, 3, 27
10, 22724, Note_on_c, 3, 64, 0
10, 22728, Channel_aftertouch_c, 3, 0
10, 22848, Note_on_c, 3, 64, 82
10, 22892, Note_on_c, 3, 64, 0
10, 22944, Note_on_c, 3, 64, 67
10, 23012, Note_on_c, 3, 64, 0
10, 23040, Note_on_c, 3, 62, 100
10, 23104, Note_on_c, 3, 62, 0
10, 23136, Note_on_c, 3, 62, 92
10, 23184, Note_on_c, 3, 62, 0
10, 23232, Note_on_c, 3, 62, 92
10, 23272, Note_on_c, 3, 62, 0
10, 23328, Note_on_c, 3, 62, 79
10, 23360, Note_on_c, 3, 62, 0
10, 23396, Channel_aftertouch_c, 3, 33
10, 23408, Channel_aftertouch_c, 3, 0
10, 23424, Note_on_c, 3, 62, 108
10, 23480, Note_on_c, 3, 62, 0
10, 23520, Note_on_c, 3, 62, 92
10, 23564, Note_on_c, 3, 62, 0
10, 23616, Note_on_c, 3, 62, 104
10, 23656, Note_on_c, 3, 62, 0
10, 23712, Note_on_c, 3, 62, 100
10, 23788, Note_on_c, 3, 62, 0
10, 23808, Note_on_c, 3, 62, 96
10, 23856, Note_on_c, 3, 62, 0
10, 23904, Note_on_c, 3, 62, 100
10, 23944, Note_on_c, 3, 62, 0
10, 24000, Note_on_c, 3, 60, 104
10, 24048, Note_on_c, 3, 60, 0
10, 24096, Note_on_c, 3, 60, 100
10, 24172, Note_on_c, 3, 60, 0
10, 24192, Note_on_c, 3, 60, 96
10, 24256, Note_on_c, 3, 60, 0
10, 24288, Note_on_c, 3, 60, 64
10, 24348, Note_on_c, 3, 60, 0
10, 24384, Note_on_c, 3, 60, 79
10, 24460, Note_on_c, 3, 60, 0
10, 24480, Note_on_c, 3, 60, 92
10, 24524, Note_on_c, 3, 60, 0
10, 24576, Note_on_c, 3, 62, 100
10, 24644, Note_on_c, 3, 62, 0
10, 24672, Note_on_c, 3, 62, 79
10, 24712, Note_on_c, 3, 62, 0
10, 24768, Note_on_c, 3, 62, 76
10, 24824, Note_on_c, 3, 62, 0
10, 24864, Note_on_c, 3, 62, 64
10, 24916, Note_on_c, 3, 62, 0
10, 24940, Channel_aftertouch_c, 3, 83
10, 24952, Channel_aftertouch_c, 3, 0
10, 24960, Note_on_c, 3, 62, 113
10, 25028, Note_on_c, 3, 62, 0
10, 25056, Note_on_c, 3, 62, 82
10, 25128, Note_on_c, 3, 62, 0
10, 25152, Note_on_c, 3, 62, 96
10, 25208, Note_on_c, 3, 62, 0
10, 25248, Note_on_c, 3, 62, 85
10, 25308, Note_on_c, 3, 62, 0
10, 25344, Note_on_c, 3, 62, 104
10, 25416, Note_on_c, 3, 62, 0
10, 25440, Note_on_c, 3, 62, 76
10, 25528, Note_on_c, 3, 62, 0
10, 25536, Note_on_c, 3, 64, 108
10, 25580, Note_on_c, 3, 64, 0
10, 25632, Note_on_c, 3, 64, 92
10, 25696, Note_on_c, 3, 64, 0
10, 25728, Note_on_c, 3, 64, 70
10, 25796, Note_on_c, 3, 64, 0
10, 25824, Note_on_c, 3, 64, 70
10, 25884, Note_on_c, 3, 64, 0
10, 25920, Note_on_c, 3, 64, 70
10, 25968, Note_on_c, 3, 64, 0
10, 26016, Note_on_c, 3, 64, 82
10, 26076, Note_on_c, 3, 64, 0
10, 26112, Note_on_c, 3, 62, 100
10, 26124, Channel_aftertouch_c, 3, 30
10, 26136, Channel_aftertouch_c, 3, 0
10, 26180, Note_on_c, 3, 62, 0
10, 26208, Note_on_c, 3, 62, 79
10, 26276, Note_on_c, 3, 62, 0
10, 26304, Note_on_c, 3, 62, 62
10, 26364, Note_on_c, 3, 62, 0
10, 26400, Note_on_c, 3, 62, 70
10, 26472, Note_on_c, 3, 62, 0
10, 26496, Note_on_c, 3, 62, 108
10, 26500, Channel_aftertouch_c, 3, 36
10, 26508, Channel_aftertouch_c, 3, 4
10, 26520, Channel_aftertouch_c, 3, 0
10, 26584, Note_on_c, 3, 62, 0
10, 26592, Note_on_c, 3, 62, 49
10, 26660, Note_on_c, 3, 62, 0
10, 26688, Note_on_c, 3, 62, 85
10, 26744, Note_on_c, 3, 62, 0
10, 26784, Note_on_c, 3, 62, 92
10, 26848, Note_on_c, 3, 62, 0
10, 26880, Note_on_c, 3, 62, 113
10, 26880, Channel_aftertouch_c, 3, 62
10, 26888, Channel_aftertouch_c, 3, 0
10, 26952, Note_on_c, 3, 62, 0
10, 26976, Note_on_c, 3, 62, 96
10, 27036, Note_on_c, 3, 62, 0
10, 27072, Note_on_c, 3, 60, 113
10, 27120, Note_on_c, 3, 60, 0
10, 27168, Note_on_c, 3, 60, 100
10, 27176, Channel_aftertouch_c, 3, 2
10, 27192, Channel_aftertouch_c, 3, 0
10, 27232, Note_on_c, 3, 60, 0
10, 27264, Note_on_c, 3, 60, 89
10, 27320, Note_on_c, 3, 60, 0
10, 27360, Note_on_c, 3, 60, 59
10, 27400, Note_on_c, 3, 60, 0
10, 27456, Note_on_c, 3, 60, 67
10, 27496, Note_on_c, 3, 60, 0
10, 27552, Note_on_c, 3, 60, 82
10, 27552, Note_on_c, 3, 60, 67
10, 27588, Note_on_c, 3, 60, 0
10, 27608, Note_on_c, 3, 60, 0
10, 27648, Note_on_c, 3, 62, 117
10, 27704, Note_on_c, 3, 62, 0
10, 27744, Note_on_c, 3, 62, 85
10, 27804, Note_on_c, 3, 62, 0
10, 27840, Note_on_c, 3, 62, 70
10, 27876, Note_on_c, 3, 62, 0
10, 27936, Note_on_c, 3, 62, 76
10, 28024, Note_on_c, 3, 62, 0
10, 28032, Note_on_c, 3, 62, 108
10, 28096, Note_on_c, 3, 62, 0
10, 28128, Note_on_c, 3, 62, 89
10, 28200, Note_on_c, 3, 62, 0
10, 28224, Note_on_c, 3, 62, 89
10, 28272, Note_on_c, 3, 62, 0
10, 28320, Note_on_c, 3, 62, 76
10, 28396, Note_on_c, 3, 62, 0
10, 28400, Channel_aftertouch_c, 3, 103
10, 28412, Channel_aftertouch_c, 3, 7
10, 28416, Note_on_c, 3, 62, 108
10, 28424, Channel_aftertouch_c, 3, 0
10, 28480, Note_on_c, 3, 62, 0
10, 28512, Note_on_c, 3, 62, 85
10, 28576, Note_on_c, 3, 62, 0
10, 28608, Note_on_c, 3, 64, 104
10, 28648, Note_on_c, 3, 64, 0
10, 28704, Note_on_c, 3, 64, 89
10, 28712, Channel_aftertouch_c, 3, 8
10, 28728, Channel_aftertouch_c, 3, 0
10, 28768, Note_on_c, 3, 64, 0
10, 28800, Note_on_c, 3, 64, 85
10, 28860, Note_on_c, 3, 64, 0
10, 28896, Note_on_c, 3, 64, 85
10, 28952, Note_on_c, 3, 64, 0
10, 28992, Note_on_c, 3, 64, 79
10, 29064, Note_on_c, 3, 64, 0
10, 29088, Note_on_c, 3, 64, 85
10, 29140, Note_on_c, 3, 64, 0
10, 29184, Note_on_c, 3, 62, 108
10, 29192, Channel_aftertouch_c, 3, 31
10, 29200, Channel_aftertouch_c, 3, 0
10, 29288, Note_on_c, 3, 62, 0
10, 29376, Note_on_c, 3, 62, 82
10, 29436, Note_on_c, 3, 62, 0
10, 29472, Note_on_c, 3, 62, 64
10, 29524, Note_on_c, 3, 62, 0
10, 29568, Note_on_c, 3, 62, 104
10, 29636, Note_on_c, 3, 62, 0
10, 29664, Note_on_c, 3, 62, 85
10, 29716, Note_on_c, 3, 62, 0
10, 29760, Note_on_c, 3, 62, 89
10, 29816, Note_on_c, 3, 62, 0
10, 29856, Note_on_c, 3, 62, 92
10, 29936, Note_on_c, 3, 62, 0
10, 29952, Note_on_c, 3, 62, 104
10, 30012, Note_on_c, 3, 62, 0
10, 30048, Note_on_c, 3, 60, 96
10, 30104, Note_on_c, 3, 60, 0
10, 30144, Note_on_c, 3, 60, 104
10, 30200, Note_on_c, 3, 60, 0
10, 30240, Note_on_c, 3, 60, 89
10, 30280, Note_on_c, 3, 60, 0
10, 30336, Note_on_c, 3, 60, 89
10, 30336, Note_on_c, 3, 60, 82
10, 30384, Note_on_c, 3, 60, 0
10, 30388, Note_on_c, 3, 60, 0
10, 30432, Note_on_c, 3, 60, 104
10, 30488, Note_on_c, 3, 60, 0
10, 30528, Note_on_c, 3, 60, 96
10, 30568, Note_on_c, 3, 60, 0
10, 30624, Note_on_c, 3, 60, 89
10, 30660, Note_on_c, 3, 60, 0
10, 30720, Note_on_c, 3, 62, 108
10, 30736, Channel_aftertouch_c, 3, 24
10, 30748, Channel_aftertouch_c, 3, 0
10, 30812, Note_on_c, 3, 62, 0
10, 30816, Note_on_c, 3, 62, 85
10, 30860, Note_on_c, 3, 62, 0
10, 30912, Note_on_c, 3, 62, 92
10, 30972, Note_on_c, 3, 62, 0
10, 31008, Note_on_c, 3, 62, 89
10, 31080, Note_on_c, 3, 62, 0
10, 31100, Channel_aftertouch_c, 3, 109
10, 31104, Note_on_c, 3, 62, 113
10, 31112, Channel_aftertouch_c, 3, 0
10, 31176, Note_on_c, 3, 62, 0
10, 31200, Note_on_c, 3, 62, 85
10, 31260, Note_on_c, 3, 62, 0
10, 31296, Note_on_c, 3, 62, 96
10, 31352, Note_on_c, 3, 62, 0
10, 31392, Note_on_c, 3, 62, 104
10, 31392, Note_on_c, 3, 62, 92
10, 31460, Note_on_c, 3, 62, 0
10, 31460, Note_on_c, 3, 62, 0
10, 31556, Channel_aftertouch_c, 3, 19
10, 31568, Channel_aftertouch_c, 3, 0
10, 31584, Note_on_c, 3, 62, 92
10, 31680, Note_on_c, 3, 64, 104
10, 31688, Note_on_c, 3, 62, 0
10, 31724, Note_on_c, 3, 64, 0
10, 31776, Note_on_c, 3, 64, 89
10, 31848, Note_on_c, 3, 64, 0
10, 31872, Note_on_c, 3, 64, 79
10, 31924, Note_on_c, 3, 64, 0
10, 31968, Note_on_c, 3, 64, 85
10, 32032, Note_on_c, 3, 64, 0
10, 32064, Note_on_c, 3, 64, 79
10, 32112, Note_on_c, 3, 64, 0
10, 32160, Note_on_c, 3, 64, 89
10, 32220, Note_on_c, 3, 64, 0
10, 32256, Note_on_c, 3, 62, 96
10, 32256, Note_on_c, 3, 62, 108
10, 32308, Note_on_c, 3, 62, 0
10, 32316, Note_on_c, 3, 62, 0
10, 32448, Note_on_c, 3, 62, 96
10, 32496, Note_on_c, 3, 62, 0
10, 32544, Note_on_c, 3, 62, 92
10, 32596, Note_on_c, 3, 62, 0
10, 32640, Note_on_c, 3, 62, 108
10, 32640, Channel_aftertouch_c, 3, 21
10, 32652, Channel_aftertouch_c, 3, 0
10, 32696, Note_on_c, 3, 62, 0
10, 32736, Note_on_c, 3, 62, 89
10, 32784, Note_on_c, 3, 62, 0
10, 32832, Note_on_c, 3, 62, 96
10, 32884, Note_on_c, 3, 62, 0
10, 32928, Note_on_c, 3, 62, 85
10, 33008, Note_on_c, 3, 62, 0
10, 33024, Note_on_c, 3, 62, 100
10, 33084, Note_on_c, 3, 62, 0
10, 33120, Note_on_c, 3, 60, 92
10, 33164, Note_on_c, 3, 60, 0
10, 33216, Note_on_c, 3, 60, 113
10, 33236, Channel_aftertouch_c, 3, 66
10, 33248, Channel_aftertouch_c, 3, 0
10, 33272, Note_on_c, 3, 60, 0
10, 33312, Note_on_c, 3, 60, 96
10, 33368, Note_on_c, 3, 60, 0
10, 33408, Note_on_c, 3, 60, 96
10, 33448, Note_on_c, 3, 60, 0
10, 33504, Note_on_c, 3, 60, 96
10, 33564, Note_on_c, 3, 60, 0
10, 33600, Note_on_c, 3, 60, 104
10, 33644, Note_on_c, 3, 60, 0
10, 33696, Note_on_c, 3, 62, 108
10, 33740, Note_on_c, 3, 62, 0
10, 33792, Note_on_c, 3, 62, 108
10, 33804, Channel_aftertouch_c, 3, 127
10, 33816, Channel_aftertouch_c, 3, 12
10, 33828, Channel_aftertouch_c, 3, 0
10, 33840, Note_on_c, 3, 62, 0
10, 33888, Note_on_c, 3, 62, 85
10, 33932, Note_on_c, 3, 62, 0
10, 33984, Note_on_c, 3, 62, 104
10, 34000, Channel_aftertouch_c, 3, 33
10, 34008, Channel_aftertouch_c, 3, 0
10, 34028, Note_on_c, 3, 62, 0
10, 34080, Note_on_c, 3, 62, 96
10, 34092, Channel_aftertouch_c, 3, 13
10, 34104, Channel_aftertouch_c, 3, 0
10, 34144, Note_on_c, 3, 62, 0
10, 34176, Note_on_c, 3, 62, 108
10, 34208, Channel_aftertouch_c, 3, 21
10, 34216, Channel_aftertouch_c, 3, 0
10, 34232, Note_on_c, 3, 62, 0
10, 34272, Note_on_c, 3, 62, 70
10, 34312, Note_on_c, 3, 62, 0
10, 34368, Note_on_c, 3, 62, 96
10, 34416, Note_on_c, 3, 62, 0
10, 34464, Note_on_c, 3, 62, 79
10, 34532, Note_on_c, 3, 62, 0
10, 34560, Note_on_c, 3, 62, 104
10, 34624, Note_on_c, 3, 62, 0
10, 34656, Note_on_c, 3, 64, 82
10, 34688, Note_on_c, 3, 64, 0
10, 34752, Note_on_c, 3, 64, 82
10, 34808, Note_on_c, 3, 64, 0
10, 34848, Note_on_c, 3, 64, 82
10, 34888, Note_on_c, 3, 64, 0
10, 34944, Note_on_c, 3, 64, 85
10, 34980, Note_on_c, 3, 64, 0
10, 35040, Note_on_c, 3, 64, 59
10, 35072, Note_on_c, 3, 64, 0
10, 35136, Note_on_c, 3, 64, 96
10, 35168, Channel_aftertouch_c, 3, 3
10, 35180, Channel_aftertouch_c, 3, 0
10, 35204, Note_on_c, 3, 64, 0
10, 35232, Note_on_c, 3, 64, 70
10, 35276, Note_on_c, 3, 64, 0
10, 35288, Channel_aftertouch_c, 3, 22
10, 35296, Channel_aftertouch_c, 3, 0
10, 35328, Note_on_c, 3, 62, 104
10, 35376, Note_on_c, 3, 62, 0
10, 35424, Note_on_c, 3, 62, 49
10, 35456, Note_on_c, 3, 62, 0
10, 35520, Note_on_c, 3, 62, 85
10, 35548, Note_on_c, 3, 62, 0
10, 35616, Note_on_c, 3, 62, 70
10, 35672, Note_on_c, 3, 62, 0
10, 35712, Note_on_c, 3, 62, 108
10, 35764, Note_on_c, 3, 62, 0
10, 35808, Note_on_c, 3, 62, 43
10, 35860, Note_on_c, 3, 62, 0
10, 35904, Note_on_c, 3, 62, 92
10, 35952, Note_on_c, 3, 62, 0
10, 36000, Note_on_c, 3, 62, 89
10, 36080, Note_on_c, 3, 62, 0
10, 36096, Note_on_c, 3, 62, 108
10, 36104, Channel_aftertouch_c, 3, 127
10, 36116, Channel_aftertouch_c, 3, 0
10, 36148, Note_on_c, 3, 62, 0
10, 36176, Channel_aftertouch_c, 3, 31
10, 36184, Channel_aftertouch_c, 3, 0
10, 36192, Note_on_c, 3, 62, 104
10, 36248, Note_on_c, 3, 62, 0
10, 36288, Note_on_c, 3, 60, 104
10, 36336, Note_on_c, 3, 60, 0
10, 36384, Note_on_c, 3, 60, 62
10, 36420, Note_on_c, 3, 60, 0
10, 36480, Note_on_c, 3, 60, 96
10, 36520, Note_on_c, 3, 60, 0
10, 36576, Note_on_c, 3, 60, 73
10, 36632, Note_on_c, 3, 60, 0
10, 36672, Note_on_c, 3, 60, 92
10, 36716, Note_on_c, 3, 60, 0
10, 36768, Note_on_c, 3, 60, 79
10, 36812, Note_on_c, 3, 60, 0
10, 36860, Channel_aftertouch_c, 3, 69
10, 36864, Note_on_c, 3, 62, 104
10, 36872, Channel_aftertouch_c, 3, 0
10, 36916, Note_on_c, 3, 62, 0
10, 36960, Note_on_c, 3, 62, 82
10, 37008, Note_on_c, 3, 62, 0
10, 37056, Note_on_c, 3, 62, 92
10, 37100, Note_on_c, 3, 62, 0
10, 37152, Note_on_c, 3, 62, 76
10, 37224, Note_on_c, 3, 62, 0
10, 37248, Note_on_c, 3, 62, 108
10, 37248, Channel_aftertouch_c, 3, 36
10, 37260, Channel_aftertouch_c, 3, 0
10, 37296, Note_on_c, 3, 62, 0
10, 37440, Note_on_c, 3, 62, 92
10, 37484, Note_on_c, 3, 62, 0
10, 37536, Note_on_c, 3, 62, 67
10, 37608, Note_on_c, 3, 62, 0
10, 37632, Note_on_c, 3, 62, 108
10, 37636, Channel_aftertouch_c, 3, 9
10, 37648, Channel_aftertouch_c, 3, 0
10, 37684, Note_on_c, 3, 62, 0
10, 37728, Note_on_c, 3, 62, 85
10, 37780, Note_on_c, 3, 62, 0
10, 37824, Note_on_c, 3, 64, 104
10, 37888, Note_on_c, 3, 64, 0
10, 37920, Note_on_c, 3, 64, 85
10, 37968, Note_on_c, 3, 64, 0
10, 38016, Note_on_c, 3, 64, 76
10, 38076, Note_on_c, 3, 64, 0
10, 38112, Note_on_c, 3, 64, 70
10, 38164, Note_on_c, 3, 64, 0
10, 38208, Note_on_c, 3, 64, 49
10, 38280, Note_on_c, 3, 64, 0
10, 38304, Note_on_c, 3, 64, 55
10, 38340, Note_on_c, 3, 64, 0
10, 38400, Note_on_c, 3, 62, 100
10, 38488, Note_on_c, 3, 62, 0
10, 38496, Note_on_c, 3, 62, 85
10, 38548, Note_on_c, 3, 62, 0
10, 38592, Note_on_c, 3, 62, 100
10, 38632, Note_on_c, 3, 62, 0
10, 38688, Note_on_c, 3, 62, 92
10, 38736, Note_on_c, 3, 62, 0
10, 38776, Channel_aftertouch_c, 3, 29
10, 38784, Note_on_c, 3, 62, 108
10, 38784, Channel_aftertouch_c, 3, 0
10, 38848, Note_on_c, 3, 62, 0
10, 38880, Note_on_c, 3, 62, 96
10, 38936, Note_on_c, 3, 62, 0
10, 38976, Note_on_c, 3, 62, 82
10, 39024, Note_on_c, 3, 62, 0
10, 39072, Note_on_c, 3, 62, 96
10, 39140, Note_on_c, 3, 62, 0
10, 39148, Channel_aftertouch_c, 3, 112
10, 39160, Channel_aftertouch_c, 3, 0
10, 39168, Note_on_c, 3, 62, 113
10, 39256, Note_on_c, 3, 62, 0
10, 39264, Note_on_c, 3, 62, 67
10, 39336, Note_on_c, 3, 62, 0
10, 39360, Note_on_c, 3, 62, 92
10, 39396, Note_on_c, 3, 62, 0
10, 39456, Note_on_c, 3, 62, 100
10, 39524, Note_on_c, 3, 62, 0
10, 39552, Note_on_c, 3, 62, 89
10, 39552, Note_on_c, 3, 62, 100
10, 39596, Note_on_c, 3, 62, 0
10, 39604, Note_on_c, 3, 62, 0
10, 39648, Note_on_c, 3, 62, 108
10, 39700, Note_on_c, 3, 62, 0
10, 39744, Note_on_c, 3, 62, 79
10, 39780, Note_on_c, 3, 62, 0
10, 39840, Note_on_c, 3, 62, 108
10, 39892, Note_on_c, 3, 62, 0
10, 39936, Control_c, 3, 7, 63
10, 39936, Note_on_c, 3, 62, 104
10, 39988, Note_on_c, 3, 62, 0
10, 40032, Note_on_c, 3, 62, 79
10, 40088, Note_on_c, 3, 62, 0
10, 40128, Note_on_c, 3, 62, 82
10, 40188, Note_on_c, 3, 62, 0
10, 40224, Note_on_c, 3, 62, 76
10, 40284, Note_on_c, 3, 62, 0
10, 40320, Note_on_c, 3, 62, 108
10, 40396, Note_on_c, 3, 62, 0
10, 40416, Note_on_c, 3, 62, 57
10, 40488, Note_on_c, 3, 62, 0
10, 40512, Note_on_c, 3, 62, 92
10, 40704, Note_on_c, 3, 62, 0
10, 40704, Note_on_c, 3, 62, 104
10, 40704, Channel_aftertouch_c, 3, 16
10, 40720, Channel_aftertouch_c, 3, 0
10, 40776, Note_on_c, 3, 62, 0
10, 40800, Note_on_c, 3, 62, 57
10, 40864, Note_on_c, 3, 62, 0
10, 40896, Note_on_c, 3, 62, 92
10, 40948, Note_on_c, 3, 62, 0
10, 40992, Note_on_c, 3, 62, 76
10, 41048, Note_on_c, 3, 62, 0
10, 41088, Note_on_c, 3, 62, 104
10, 41160, Note_on_c, 3, 62, 0
10, 41184, Note_on_c, 3, 62, 85
10, 41244, Note_on_c, 3, 62, 0
10, 41280, Note_on_c, 3, 62, 85
10, 41324, Note_on_c, 3, 62, 0
10, 41376, Note_on_c, 3, 62, 70
10, 41444, Note_on_c, 3, 62, 0
10, 41472, Note_on_c, 3, 62, 108
10, 41536, Note_on_c, 3, 62, 0
10, 41568, Note_on_c, 3, 62, 70
10, 41632, Note_on_c, 3, 62, 0
10, 41664, Note_on_c, 3, 62, 96
10, 41716, Note_on_c, 3, 62, 0
10, 41760, Note_on_c, 3, 62, 76
10, 41824, Note_on_c, 3, 62, 0
10, 41856, Note_on_c, 3, 62, 108
10, 41924, Note_on_c, 3, 62, 0
10, 41952, Note_on_c, 3, 62, 79
10, 42008, Note_on_c, 3, 62, 0
10, 42048, Note_on_c, 3, 62, 89
10, 42096, Note_on_c, 3, 62, 0
10, 42144, Note_on_c, 3, 62, 73
10, 42204, Note_on_c, 3, 62, 0
10, 42240, Note_on_c, 3, 62, 108
10, 42304, Note_on_c, 3, 62, 0
10, 42336, Note_on_c, 3, 62, 73
10, 42400, Note_on_c, 3, 62, 0
10, 42432, Note_on_c, 3, 62, 85
10, 42492, Note_on_c, 3, 62, 0
10, 42528, Note_on_c, 3, 62, 64
10, 42608, Note_on_c, 3, 62, 0
10, 42624, Note_on_c, 3, 62, 104
10, 42704, Note_on_c, 3, 62, 0
10, 42720, Note_on_c, 3, 62, 79
10, 42784, Note_on_c, 3, 62, 0
10, 42816, Note_on_c, 3, 62, 82
10, 42868, Note_on_c, 3, 62, 0
10, 42912, Note_on_c, 3, 62, 82
10, 42988, Note_on_c, 3, 62, 0
10, 43008, Note_on_c, 3, 62, 113
10, 43016, Channel_aftertouch_c, 3, 7
10, 43028, Channel_aftertouch_c, 3, 0
10, 43096, Note_on_c, 3, 62, 0
10, 43104, Note_on_c, 3, 62, 70
10, 43160, Note_on_c, 3, 62, 0
10, 43200, Note_on_c, 3, 62, 70
10, 43228, Note_on_c, 3, 62, 0
10, 43296, Note_on_c, 3, 62, 79
10, 43352, Note_on_c, 3, 62, 0
10, 43384, Channel_aftertouch_c, 3, 74
10, 43392, Note_on_c, 3, 62, 117
10, 43396, Channel_aftertouch_c, 3, 0
10, 43480, Note_on_c, 3, 62, 0
10, 43488, Note_on_c, 3, 62, 67
10, 43548, Note_on_c, 3, 62, 0
10, 43584, Note_on_c, 3, 62, 79
10, 43632, Note_on_c, 3, 62, 0
10, 43680, Note_on_c, 3, 62, 79
10, 43752, Note_on_c, 3, 62, 0
10, 43776, Note_on_c, 3, 62, 113
10, 43852, Note_on_c, 3, 62, 0
10, 43872, Note_on_c, 3, 62, 64
10, 43936, Note_on_c, 3, 62, 0
10, 43968, Note_on_c, 3, 62, 96
10, 44020, Note_on_c, 3, 62, 0
10, 44064, Note_on_c, 3, 62, 67
10, 44124, Note_on_c, 3, 62, 0
10, 44160, Note_on_c, 3, 62, 108
10, 44176, Channel_aftertouch_c, 3, 4
10, 44192, Channel_aftertouch_c, 3, 0
10, 44236, Note_on_c, 3, 62, 0
10, 44256, Note_on_c, 3, 62, 70
10, 44312, Note_on_c, 3, 62, 0
10, 44352, Note_on_c, 3, 62, 104
10, 44408, Note_on_c, 3, 62, 0
10, 44448, Note_on_c, 3, 62, 100
10, 44512, Note_on_c, 3, 62, 0
10, 44544, Note_on_c, 3, 62, 127
10, 44548, Channel_aftertouch_c, 3, 91
10, 44560, Channel_aftertouch_c, 3, 64
10, 44572, Channel_aftertouch_c, 3, 22
10, 44584, Channel_aftertouch_c, 3, 0
10, 44700, Note_on_c, 3, 62, 0
10, 44736, Note_on_c, 3, 62, 89
10, 44788, Note_on_c, 3, 62, 0
10, 44832, Note_on_c, 3, 62, 82
10, 44888, Note_on_c, 3, 62, 0
10, 44928, Note_on_c, 3, 62, 113
10, 45088, Note_on_c, 3, 62, 0
10, 45120, Note_on_c, 3, 62, 85
10, 45172, Note_on_c, 3, 62, 0
10, 45216, Note_on_c, 3, 62, 85
10, 45288, Note_on_c, 3, 62, 0
10, 45312, Note_on_c, 3, 62, 108
10, 45376, Note_on_c, 3, 62, 0
10, 45408, Note_on_c, 3, 62, 92
10, 45468, Note_on_c, 3, 62, 0
10, 45504, Note_on_c, 3, 62, 92
10, 45560, Note_on_c, 3, 62, 0
10, 45600, Note_on_c, 3, 62, 89
10, 45668, Note_on_c, 3, 62, 0
10, 45696, Note_on_c, 3, 62, 108
10, 45784, Note_on_c, 3, 62, 0
10, 45792, Note_on_c, 3, 62, 79
10, 45856, Note_on_c, 3, 62, 0
10, 45888, Note_on_c, 3, 62, 73
10, 45928, Note_on_c, 3, 62, 0
10, 45984, Note_on_c, 3, 62, 96
10, 46048, Note_on_c, 3, 62, 0
10, 46068, Channel_aftertouch_c, 3, 72
10, 46080, Note_on_c, 3, 62, 108
10, 46080, Channel_aftertouch_c, 3, 0
10, 46168, Note_on_c, 3, 62, 0
10, 46176, Note_on_c, 3, 62, 92
10, 46236, Note_on_c, 3, 62, 0
10, 46272, Note_on_c, 3, 62, 92
10, 46320, Note_on_c, 3, 62, 0
10, 46368, Note_on_c, 3, 62, 89
10, 46432, Note_on_c, 3, 62, 0
10, 46464, Note_on_c, 3, 62, 108
10, 46540, Note_on_c, 3, 62, 0
10, 46560, Note_on_c, 3, 62, 89
10, 46616, Note_on_c, 3, 62, 0
10, 46656, Note_on_c, 3, 62, 92
10, 46708, Note_on_c, 3, 62, 0
10, 46752, Note_on_c, 3, 62, 85
10, 46812, Note_on_c, 3, 62, 0
10, 46848, Note_on_c, 3, 62, 117
10, 46864, Channel_aftertouch_c, 3, 12
10, 46876, Channel_aftertouch_c, 3, 0
10, 46928, Note_on_c, 3, 62, 0
10, 46944, Note_on_c, 3, 62, 67
10, 47004, Note_on_c, 3, 62, 0
10, 47040, Note_on_c, 3, 62, 96
10, 47084, Note_on_c, 3, 62, 0
10, 47136, Note_on_c, 3, 62, 85
10, 47192, Note_on_c, 3, 62, 0
10, 47232, Note_on_c, 3, 62, 117
10, 47300, Note_on_c, 3, 62, 0
10, 47328, Note_on_c, 3, 62, 92
10, 47392, Note_on_c, 3, 62, 0
10, 47424, Note_on_c, 3, 62, 100
10, 47476, Note_on_c, 3, 62, 0
10, 47520, Note_on_c, 3, 62, 89
10, 47596, Note_on_c, 3, 62, 0
10, 47616, Note_on_c, 3, 62, 113
10, 47624, Channel_aftertouch_c, 3, 36
10, 47632, Channel_aftertouch_c, 3, 0
10, 47696, Note_on_c, 3, 62, 0
10, 47712, Note_on_c, 3, 62, 79
10, 47772, Note_on_c, 3, 62, 0
10, 47808, Note_on_c, 3, 62, 92
10, 47808, Channel_aftertouch_c, 3, 35
10, 47820, Channel_aftertouch_c, 3, 0
10, 47872, Note_on_c, 3, 62, 0
10, 47904, Note_on_c, 3, 62, 89
10, 47988, Note_on_c, 3, 62, 0
10, 48000, Note_on_c, 3, 62, 117
10, 48012, Channel_aftertouch_c, 3, 23
10, 48024, Channel_aftertouch_c, 3, 0
10, 48080, Note_on_c, 3, 62, 0
10, 48096, Note_on_c, 3, 62, 96
10, 48152, Note_on_c, 3, 62, 0
10, 48192, Note_on_c, 3, 62, 108
10, 48256, Note_on_c, 3, 62, 0
10, 48288, Note_on_c, 3, 62, 96
10, 48352, Note_on_c, 3, 62, 0
10, 48380, Channel_aftertouch_c, 3, 2
10, 48384, Note_on_c, 3, 62, 113
10, 48392, Channel_aftertouch_c, 3, 0
10, 48456, Note_on_c, 3, 62, 0
10, 48480, Note_on_c, 3, 62, 82
10, 48536, Note_on_c, 3, 62, 0
10, 48576, Note_on_c, 3, 62, 96
10, 48636, Note_on_c, 3, 62, 0
10, 48672, Note_on_c, 3, 62, 100
10, 48736, Note_on_c, 3, 62, 0
10, 48752, Channel_aftertouch_c, 3, 20
10, 48760, Channel_aftertouch_c, 3, 0
10, 48768, Note_on_c, 3, 62, 108
10, 48852, Note_on_c, 3, 62, 0
10, 48864, Note_on_c, 3, 62, 100
10, 48928, Note_on_c, 3, 62, 0
10, 48960, Note_on_c, 3, 62, 100
10, 48964, Channel_aftertouch_c, 3, 2
10, 48976, Channel_aftertouch_c, 3, 0
10, 49044, Note_on_c, 3, 62, 0
10, 49056, Note_on_c, 3, 62, 96
10, 49132, Note_on_c, 3, 62, 0
10, 49152, Note_on_c, 3, 62, 108
10, 49152, Channel_aftertouch_c, 3, 0
10, 49240, Note_on_c, 3, 62, 0
10, 49248, Note_on_c, 3, 62, 92
10, 49308, Note_on_c, 3, 62, 0
10, 49344, Note_on_c, 3, 62, 92
10, 49392, Note_on_c, 3, 62, 0
10, 49440, Note_on_c, 3, 62, 89
10, 49504, Note_on_c, 3, 62, 0
10, 49536, Note_on_c, 3, 62, 108
10, 49612, Note_on_c, 3, 62, 0
10, 49632, Note_on_c, 3, 62, 89
10, 49688, Note_on_c, 3, 62, 0
10, 49728, Note_on_c, 3, 62, 92
10, 49780, Note_on_c, 3, 62, 0
10, 49824, Note_on_c, 3, 62, 85
10, 49884, Note_on_c, 3, 62, 0
10, 49920, Note_on_c, 3, 62, 117
10, 49936, Channel_aftertouch_c, 3, 12
10, 49948, Channel_aftertouch_c, 3, 0
10, 50000, Note_on_c, 3, 62, 0
10, 50016, Note_on_c, 3, 62, 67
10, 50076, Note_on_c, 3, 62, 0
10, 50112, Note_on_c, 3, 62, 96
10, 50156, Note_on_c, 3, 62, 0
10, 50208, Note_on_c, 3, 62, 85
10, 50264, Note_on_c, 3, 62, 0
10, 50304, Note_on_c, 3, 62, 117
10, 50372, Note_on_c, 3, 62, 0
10, 50400, Note_on_c, 3, 62, 92
10, 50464, Note_on_c, 3, 62, 0
10, 50496, Note_on_c, 3, 62, 100
10, 50548, Note_on_c, 3, 62, 0
10, 50592, Note_on_c, 3, 62, 89
10, 50668, Note_on_c, 3, 62, 0
10, 50688, Note_on_c, 3, 62, 113
10, 50696, Channel_aftertouch_c, 3, 36
10, 50704, Channel_aftertouch_c, 3, 0
10, 50768, Note_on_c, 3, 62, 0
10, 50784, Note_on_c, 3, 62, 79
10, 50844, Note_on_c, 3, 62, 0
10, 50880, Note_on_c, 3, 62, 92
10, 50880, Channel_aftertouch_c, 3, 35
10, 50892, Channel_aftertouch_c, 3, 0
10, 50944, Note_on_c, 3, 62, 0
10, 50976, Note_on_c, 3, 62, 89
10, 51060, Note_on_c, 3, 62, 0
10, 51072, Note_on_c, 3, 62, 117
10, 51084, Channel_aftertouch_c, 3, 23
10, 51096, Channel_aftertouch_c, 3, 0
10, 51152, Note_on_c, 3, 62, 0
10, 51168, Note_on_c, 3, 62, 96
10, 51224, Note_on_c, 3, 62, 0
10, 51264, Note_on_c, 3, 62, 108
10, 51328, Note_on_c, 3, 62, 0
10, 51360, Note_on_c, 3, 62, 96
10, 51424, Note_on_c, 3, 62, 0
10, 51452, Channel_aftertouch_c, 3, 2
10, 51456, Note_on_c, 3, 62, 113
10, 51464, Channel_aftertouch_c, 3, 0
10, 51528, Note_on_c, 3, 62, 0
10, 51552, Note_on_c, 3, 62, 82
10, 51608, Note_on_c, 3, 62, 0
10, 51648, Note_on_c, 3, 62, 96
10, 51708, Note_on_c, 3, 62, 0
10, 51744, Note_on_c, 3, 62, 100
10, 51808, Note_on_c, 3, 62, 0
10, 51824, Channel_aftertouch_c, 3, 20
10, 51832, Channel_aftertouch_c, 3, 0
10, 51840, Note_on_c, 3, 62, 108
10, 51924, Note_on_c, 3, 62, 0
10, 51936, Note_on_c, 3, 62, 100
10, 52000, Note_on_c, 3, 62, 0
10, 52032, Note_on_c, 3, 62, 100
10, 52036, Channel_aftertouch_c, 3, 2
10, 52048, Channel_aftertouch_c, 3, 0
10, 52116, Note_on_c, 3, 62, 0
10, 52128, Note_on_c, 3, 62, 96
10, 52128, Control_c, 3, 7, 50
10, 52204, Note_on_c, 3, 62, 0
10, 52224, Note_on_c, 3, 62, 127
10, 52292, Note_on_c, 3, 62, 0
10, 52320, Note_on_c, 3, 62, 105
10, 52364, Note_on_c, 3, 62, 0
10, 52416, Note_on_c, 3, 62, 105
10, 52448, Note_on_c, 3, 62, 0
10, 52512, Note_on_c, 3, 62, 110
10, 52576, Note_on_c, 3, 62, 0
10, 52608, Note_on_c, 3, 62, 127
10, 52656, Note_on_c, 3, 62, 0
10, 52704, Note_on_c, 3, 62, 110
10, 52736, Note_on_c, 3, 62, 0
10, 52800, Note_on_c, 3, 62, 102
10, 52860, Note_on_c, 3, 62, 0
10, 52896, Note_on_c, 3, 62, 110
10, 52964, Channel_aftertouch_c, 3, 49
10, 52972, Note_on_c, 3, 62, 0
10, 52972, Channel_aftertouch_c, 3, 0
10, 52992, Note_on_c, 3, 62, 115
10, 53056, Note_on_c, 3, 62, 0
10, 53088, Note_on_c, 3, 62, 105
10, 53152, Note_on_c, 3, 62, 0
10, 53184, Note_on_c, 3, 64, 124
10, 53232, Note_on_c, 3, 64, 0
10, 53280, Note_on_c, 3, 64, 102
10, 53336, Note_on_c, 3, 64, 0
10, 53376, Note_on_c, 3, 64, 105
10, 53376, Note_on_c, 3, 64, 97
10, 53428, Note_on_c, 3, 64, 0
10, 53440, Channel_aftertouch_c, 3, 27
10, 53444, Note_on_c, 3, 64, 0
10, 53448, Channel_aftertouch_c, 3, 0
10, 53568, Note_on_c, 3, 64, 94
10, 53612, Note_on_c, 3, 64, 0
10, 53664, Note_on_c, 3, 64, 77
10, 53732, Note_on_c, 3, 64, 0
10, 53760, Note_on_c, 3, 62, 115
10, 53824, Note_on_c, 3, 62, 0
10, 53856, Note_on_c, 3, 62, 105
10, 53904, Note_on_c, 3, 62, 0
10, 53952, Note_on_c, 3, 62, 105
10, 53992, Note_on_c, 3, 62, 0
10, 54048, Note_on_c, 3, 62, 90
10, 54080, Note_on_c, 3, 62, 0
10, 54116, Channel_aftertouch_c, 3, 33
10, 54128, Channel_aftertouch_c, 3, 0
10, 54144, Note_on_c, 3, 62, 124
10, 54200, Note_on_c, 3, 62, 0
10, 54240, Note_on_c, 3, 62, 105
10, 54284, Note_on_c, 3, 62, 0
10, 54336, Note_on_c, 3, 62, 119
10, 54376, Note_on_c, 3, 62, 0
10, 54432, Note_on_c, 3, 62, 115
10, 54508, Note_on_c, 3, 62, 0
10, 54528, Note_on_c, 3, 62, 110
10, 54576, Note_on_c, 3, 62, 0
10, 54624, Note_on_c, 3, 62, 115
10, 54664, Note_on_c, 3, 62, 0
10, 54720, Note_on_c, 3, 60, 119
10, 54768, Note_on_c, 3, 60, 0
10, 54816, Note_on_c, 3, 60, 115
10, 54892, Note_on_c, 3, 60, 0
10, 54912, Note_on_c, 3, 60, 110
10, 54976, Note_on_c, 3, 60, 0
10, 55008, Note_on_c, 3, 60, 73
10, 55068, Note_on_c, 3, 60, 0
10, 55104, Note_on_c, 3, 60, 90
10, 55180, Note_on_c, 3, 60, 0
10, 55200, Note_on_c, 3, 60, 105
10, 55244, Note_on_c, 3, 60, 0
10, 55296, Note_on_c, 3, 60, 110
10, 55356, Note_on_c, 3, 60, 0
10, 55392, Note_on_c, 3, 62, 124
10, 55460, Note_on_c, 3, 62, 0
10, 55488, Note_on_c, 3, 62, 102
10, 55548, Note_on_c, 3, 62, 0
10, 55584, Note_on_c, 3, 62, 97
10, 55632, Note_on_c, 3, 62, 0
10, 55680, Note_on_c, 3, 62, 105
10, 55724, Channel_aftertouch_c, 3, 33
10, 55736, Channel_aftertouch_c, 3, 8
10, 55748, Channel_aftertouch_c, 3, 0
10, 55776, Note_on_c, 3, 62, 77
10, 55820, Note_on_c, 3, 62, 0
10, 55864, Note_on_c, 3, 62, 0
10, 55968, Note_on_c, 3, 62, 102
10, 56040, Note_on_c, 3, 62, 0
10, 56064, Note_on_c, 3, 62, 97
10, 56064, Note_on_c, 3, 62, 110
10, 56108, Note_on_c, 3, 62, 0
10, 56140, Note_on_c, 3, 62, 0
10, 56256, Note_on_c, 3, 64, 119
10, 56308, Note_on_c, 3, 64, 0
10, 56352, Note_on_c, 3, 64, 102
10, 56364, Channel_aftertouch_c, 3, 20
10, 56376, Channel_aftertouch_c, 3, 0
10, 56436, Note_on_c, 3, 64, 0
10, 56448, Note_on_c, 3, 64, 67
10, 56488, Note_on_c, 3, 64, 0
10, 56544, Note_on_c, 3, 64, 97
10, 56600, Note_on_c, 3, 64, 0
10, 56640, Note_on_c, 3, 64, 90
10, 56704, Note_on_c, 3, 64, 0
10, 56720, Channel_aftertouch_c, 3, 46
10, 56728, Channel_aftertouch_c, 3, 0
10, 56736, Note_on_c, 3, 64, 97
10, 56820, Note_on_c, 3, 64, 0
10, 56832, Note_on_c, 3, 62, 124
10, 56836, Channel_aftertouch_c, 3, 4
10, 56848, Channel_aftertouch_c, 3, 0
10, 56960, Note_on_c, 3, 62, 0
10, 57024, Note_on_c, 3, 62, 105
10, 57084, Note_on_c, 3, 62, 0
10, 57120, Note_on_c, 3, 62, 97
10, 57188, Note_on_c, 3, 62, 0
10, 57216, Note_on_c, 3, 62, 124
10, 57216, Channel_aftertouch_c, 3, 27
10, 57228, Channel_aftertouch_c, 3, 10
10, 57240, Channel_aftertouch_c, 3, 0
10, 57272, Note_on_c, 3, 62, 0
10, 57312, Note_on_c, 3, 62, 110
10, 57368, Note_on_c, 3, 62, 0
10, 57408, Note_on_c, 3, 62, 115
10, 57460, Note_on_c, 3, 62, 0
10, 57504, Note_on_c, 3, 62, 105
10, 57596, Note_on_c, 3, 62, 0
10, 57600, Note_on_c, 3, 62, 110
10, 57608, Channel_aftertouch_c, 3, 7
10, 57616, Channel_aftertouch_c, 3, 5
10, 57628, Channel_aftertouch_c, 3, 0
10, 57728, Note_on_c, 3, 62, 0
10, 57792, Note_on_c, 3, 60, 124
10, 57856, Note_on_c, 3, 60, 0
10, 57888, Note_on_c, 3, 60, 105
10, 57936, Note_on_c, 3, 60, 0
10, 57984, Note_on_c, 3, 60, 83
10, 57984, Note_on_c, 3, 60, 110
10, 58032, Note_on_c, 3, 60, 0
10, 58036, Note_on_c, 3, 60, 0
10, 58080, Note_on_c, 3, 60, 115
10, 58148, Note_on_c, 3, 60, 0
10, 58176, Note_on_c, 3, 60, 105
10, 58224, Note_on_c, 3, 60, 0
10, 58272, Note_on_c, 3, 60, 102
10, 58304, Note_on_c, 3, 60, 0
10, 58368, Note_on_c, 3, 62, 127
10, 58436, Note_on_c, 3, 62, 0
10, 58464, Note_on_c, 3, 62, 105
10, 58508, Note_on_c, 3, 62, 0
10, 58560, Note_on_c, 3, 62, 105
10, 58592, Note_on_c, 3, 62, 0
10, 58656, Note_on_c, 3, 62, 110
10, 58720, Note_on_c, 3, 62, 0
10, 58752, Note_on_c, 3, 62, 127
10, 58800, Note_on_c, 3, 62, 0
10, 58848, Note_on_c, 3, 62, 110
10, 58880, Note_on_c, 3, 62, 0
10, 58944, Note_on_c, 3, 62, 102
10, 59004, Note_on_c, 3, 62, 0
10, 59040, Note_on_c, 3, 62, 110
10, 59108, Channel_aftertouch_c, 3, 49
10, 59116, Note_on_c, 3, 62, 0
10, 59116, Channel_aftertouch_c, 3, 0
10, 59136, Note_on_c, 3, 62, 115
10, 59200, Note_on_c, 3, 62, 0
10, 59232, Note_on_c, 3, 62, 105
10, 59296, Note_on_c, 3, 62, 0
10, 59328, Note_on_c, 3, 64, 124
10, 59376, Note_on_c, 3, 64, 0
10, 59424, Note_on_c, 3, 64, 102
10, 59480, Note_on_c, 3, 64, 0
10, 59520, Note_on_c, 3, 64, 105
10, 59520, Note_on_c, 3, 64, 97
10, 59572, Note_on_c, 3, 64, 0
10, 59584, Channel_aftertouch_c, 3, 27
10, 59588, Note_on_c, 3, 64, 0
10, 59592, Channel_aftertouch_c, 3, 0
10, 59712, Note_on_c, 3, 64, 94
10, 59756, Note_on_c, 3, 64, 0
10, 59808, Note_on_c, 3, 64, 77
10, 59876, Note_on_c, 3, 64, 0
10, 59904, Note_on_c, 3, 62, 115
10, 59968, Note_on_c, 3, 62, 0
10, 60000, Note_on_c, 3, 62, 105
10, 60048, Note_on_c, 3, 62, 0
10, 60096, Note_on_c, 3, 62, 105
10, 60136, Note_on_c, 3, 62, 0
10, 60192, Note_on_c, 3, 62, 90
10, 60224, Note_on_c, 3, 62, 0
10, 60260, Channel_aftertouch_c, 3, 33
10, 60272, Channel_aftertouch_c, 3, 0
10, 60288, Note_on_c, 3, 62, 124
10, 60344, Note_on_c, 3, 62, 0
10, 60384, Note_on_c, 3, 62, 105
10, 60428, Note_on_c, 3, 62, 0
10, 60480, Note_on_c, 3, 62, 119
10, 60520, Note_on_c, 3, 62, 0
10, 60576, Note_on_c, 3, 62, 115
10, 60652, Note_on_c, 3, 62, 0
10, 60672, Note_on_c, 3, 62, 110
10, 60720, Note_on_c, 3, 62, 0
10, 60768, Note_on_c, 3, 62, 115
10, 60808, Note_on_c, 3, 62, 0
10, 60864, Note_on_c, 3, 60, 119
10, 60912, Note_on_c, 3, 60, 0
10, 60960, Note_on_c, 3, 60, 115
10, 61036, Note_on_c, 3, 60, 0
10, 61056, Note_on_c, 3, 60, 110
10, 61120, Note_on_c, 3, 60, 0
10, 61152, Note_on_c, 3, 60, 73
10, 61212, Note_on_c, 3, 60, 0
10, 61248, Note_on_c, 3, 60, 90
10, 61324, Note_on_c, 3, 60, 0
10, 61344, Note_on_c, 3, 60, 105
10, 61388, Note_on_c, 3, 60, 0
10, 61440, Note_on_c, 3, 62, 115
10, 61508, Note_on_c, 3, 62, 0
10, 61536, Note_on_c, 3, 62, 90
10, 61576, Note_on_c, 3, 62, 0
10, 61632, Note_on_c, 3, 62, 87
10, 61688, Note_on_c, 3, 62, 0
10, 61728, Note_on_c, 3, 62, 73
10, 61780, Note_on_c, 3, 62, 0
10, 61804, Channel_aftertouch_c, 3, 83
10, 61816, Channel_aftertouch_c, 3, 0
10, 61824, Note_on_c, 3, 62, 127
10, 61892, Note_on_c, 3, 62, 0
10, 61920, Note_on_c, 3, 62, 94
10, 61992, Note_on_c, 3, 62, 0
10, 62016, Note_on_c, 3, 62, 110
10, 62072, Note_on_c, 3, 62, 0
10, 62112, Note_on_c, 3, 62, 97
10, 62172, Note_on_c, 3, 62, 0
10, 62208, Note_on_c, 3, 62, 119
10, 62280, Note_on_c, 3, 62, 0
10, 62304, Note_on_c, 3, 62, 87
10, 62392, Note_on_c, 3, 62, 0
10, 62400, Note_on_c, 3, 64, 124
10, 62444, Note_on_c, 3, 64, 0
10, 62496, Note_on_c, 3, 64, 105
10, 62560, Note_on_c, 3, 64, 0
10, 62592, Note_on_c, 3, 64, 80
10, 62660, Note_on_c, 3, 64, 0
10, 62688, Note_on_c, 3, 64, 80
10, 62748, Note_on_c, 3, 64, 0
10, 62784, Note_on_c, 3, 64, 80
10, 62832, Note_on_c, 3, 64, 0
10, 62880, Note_on_c, 3, 64, 94
10, 62940, Note_on_c, 3, 64, 0
10, 62976, Note_on_c, 3, 62, 115
10, 62988, Channel_aftertouch_c, 3, 30
10, 63000, Channel_aftertouch_c, 3, 0
10, 63044, Note_on_c, 3, 62, 0
10, 63072, Note_on_c, 3, 62, 90
10, 63140, Note_on_c, 3, 62, 0
10, 63168, Note_on_c, 3, 62, 71
10, 63228, Note_on_c, 3, 62, 0
10, 63264, Note_on_c, 3, 62, 80
10, 63336, Note_on_c, 3, 62, 0
10, 63360, Note_on_c, 3, 62, 124
10, 63364, Channel_aftertouch_c, 3, 36
10, 63372, Channel_aftertouch_c, 3, 4
10, 63384, Channel_aftertouch_c, 3, 0
10, 63448, Note_on_c, 3, 62, 0
10, 63456, Note_on_c, 3, 62, 56
10, 63524, Note_on_c, 3, 62, 0
10, 63552, Note_on_c, 3, 62, 97
10, 63608, Note_on_c, 3, 62, 0
10, 63648, Note_on_c, 3, 62, 105
10, 63712, Note_on_c, 3, 62, 0
10, 63744, Note_on_c, 3, 62, 127
10, 63744, Channel_aftertouch_c, 3, 62
10, 63752, Channel_aftertouch_c, 3, 0
10, 63816, Note_on_c, 3, 62, 0
10, 63840, Note_on_c, 3, 62, 110
10, 63900, Note_on_c, 3, 62, 0
10, 63936, Note_on_c, 3, 60, 127
10, 63984, Note_on_c, 3, 60, 0
10, 64032, Note_on_c, 3, 60, 115
10, 64040, Channel_aftertouch_c, 3, 2
10, 64056, Channel_aftertouch_c, 3, 0
10, 64096, Note_on_c, 3, 60, 0
10, 64128, Note_on_c, 3, 60, 102
10, 64184, Note_on_c, 3, 60, 0
10, 64224, Note_on_c, 3, 60, 67
10, 64264, Note_on_c, 3, 60, 0
10, 64320, Note_on_c, 3, 60, 77
10, 64360, Note_on_c, 3, 60, 0
10, 64416, Note_on_c, 3, 60, 94
10, 64416, Note_on_c, 3, 60, 77
10, 64452, Note_on_c, 3, 60, 0
10, 64472, Note_on_c, 3, 60, 0
10, 64512, Note_on_c, 3, 62, 127
10, 64568, Note_on_c, 3, 62, 0
10, 64608, Note_on_c, 3, 62, 97
10, 64668, Note_on_c, 3, 62, 0
10, 64704, Note_on_c, 3, 62, 80
10, 64740, Note_on_c, 3, 62, 0
10, 64800, Note_on_c, 3, 62, 87
10, 64888, Note_on_c, 3, 62, 0
10, 64896, Note_on_c, 3, 62, 124
10, 64960, Note_on_c, 3, 62, 0
10, 64992, Note_on_c, 3, 62, 102
10, 65064, Note_on_c, 3, 62, 0
10, 65088, Note_on_c, 3, 62, 102
10, 65136, Note_on_c, 3, 62, 0
10, 65184, Note_on_c, 3, 62, 87
10, 65260, Note_on_c, 3, 62, 0
10, 65264, Channel_aftertouch_c, 3, 103
10, 65276, Channel_aftertouch_c, 3, 7
10, 65280, Note_on_c, 3, 62, 124
10, 65288, Channel_aftertouch_c, 3, 0
10, 65344, Note_on_c, 3, 62, 0
10, 65376, Note_on_c, 3, 62, 97
10, 65440, Note_on_c, 3, 62, 0
10, 65472, Note_on_c, 3, 64, 119
10, 65512, Note_on_c, 3, 64, 0
10, 65568, Note_on_c, 3, 64, 102
10, 65576, Channel_aftertouch_c, 3, 8
10, 65592, Channel_aftertouch_c, 3, 0
10, 65632, Note_on_c, 3, 64, 0
10, 65664, Note_on_c, 3, 64, 97
10, 65724, Note_on_c, 3, 64, 0
10, 65760, Note_on_c, 3, 64, 97
10, 65816, Note_on_c, 3, 64, 0
10, 65856, Note_on_c, 3, 64, 90
10, 65928, Note_on_c, 3, 64, 0
10, 65952, Note_on_c, 3, 64, 97
10, 66004, Note_on_c, 3, 64, 0
10, 66048, Note_on_c, 3, 62, 124
10, 66056, Channel_aftertouch_c, 3, 31
10, 66064, Channel_aftertouch_c, 3, 0
10, 66152, Note_on_c, 3, 62, 0
10, 66240, Note_on_c, 3, 62, 94
10, 66300, Note_on_c, 3, 62, 0
10, 66336, Note_on_c, 3, 62, 73
10, 66388, Note_on_c, 3, 62, 0
10, 66432, Note_on_c, 3, 62, 119
10, 66500, Note_on_c, 3, 62, 0
10, 66528, Note_on_c, 3, 62, 97
10, 66580, Note_on_c, 3, 62, 0
10, 66624, Note_on_c, 3, 62, 102
10, 66680, Note_on_c, 3, 62, 0
10, 66720, Note_on_c, 3, 62, 105
10, 66800, Note_on_c, 3, 62, 0
10, 66816, Note_on_c, 3, 62, 119
10, 66876, Note_on_c, 3, 62, 0
10, 66912, Note_on_c, 3, 60, 110
10, 66968, Note_on_c, 3, 60, 0
10, 67008, Note_on_c, 3, 60, 119
10, 67064, Note_on_c, 3, 60, 0
10, 67104, Note_on_c, 3, 60, 102
10, 67144, Note_on_c, 3, 60, 0
10, 67200, Note_on_c, 3, 60, 102
10, 67200, Note_on_c, 3, 60, 94
10, 67248, Note_on_c, 3, 60, 0
10, 67252, Note_on_c, 3, 60, 0
10, 67296, Note_on_c, 3, 60, 119
10, 67352, Note_on_c, 3, 60, 0
10, 67392, Note_on_c, 3, 60, 110
10, 67432, Note_on_c, 3, 60, 0
10, 67488, Note_on_c, 3, 60, 102
10, 67524, Note_on_c, 3, 60, 0
10, 67584, Note_on_c, 3, 62, 124
10, 67600, Channel_aftertouch_c, 3, 24
10, 67612, Channel_aftertouch_c, 3, 0
10, 67676, Note_on_c, 3, 62, 0
10, 67680, Note_on_c, 3, 62, 97
10, 67724, Note_on_c, 3, 62, 0
10, 67776, Note_on_c, 3, 62, 105
10, 67836, Note_on_c, 3, 62, 0
10, 67872, Note_on_c, 3, 62, 102
10, 67944, Note_on_c, 3, 62, 0
10, 67964, Channel_aftertouch_c, 3, 109
10, 67968, Note_on_c, 3, 62, 127
10, 67976, Channel_aftertouch_c, 3, 0
10, 68040, Note_on_c, 3, 62, 0
10, 68064, Note_on_c, 3, 62, 97
10, 68124, Note_on_c, 3, 62, 0
10, 68160, Note_on_c, 3, 62, 110
10, 68216, Note_on_c, 3, 62, 0
10, 68256, Note_on_c, 3, 62, 119
10, 68256, Note_on_c, 3, 62, 105
10, 68324, Note_on_c, 3, 62, 0
10, 68324, Note_on_c, 3, 62, 0
10, 68420, Channel_aftertouch_c, 3, 19
10, 68432, Channel_aftertouch_c, 3, 0
10, 68448, Note_on_c, 3, 62, 105
10, 68544, Note_on_c, 3, 64, 119
10, 68552, Note_on_c, 3, 62, 0
10, 68588, Note_on_c, 3, 64, 0
10, 68640, Note_on_c, 3, 64, 102
10, 68712, Note_on_c, 3, 64, 0
10, 68736, Note_on_c, 3, 64, 90
10, 68788, Note_on_c, 3, 64, 0
10, 68832, Note_on_c, 3, 64, 97
10, 68896, Note_on_c, 3, 64, 0
10, 68928, Note_on_c, 3, 64, 90
10, 68976, Note_on_c, 3, 64, 0
10, 69024, Note_on_c, 3, 64, 102
10, 69084, Note_on_c, 3, 64, 0
10, 69120, Note_on_c, 3, 62, 110
10, 69120, Note_on_c, 3, 62, 124
10, 69172, Note_on_c, 3, 62, 0
10, 69180, Note_on_c, 3, 62, 0
10, 69312, Note_on_c, 3, 62, 110
10, 69360, Note_on_c, 3, 62, 0
10, 69408, Note_on_c, 3, 62, 105
10, 69460, Note_on_c, 3, 62, 0
10, 69504, Note_on_c, 3, 62, 124
10, 69504, Channel_aftertouch_c, 3, 21
10, 69516, Channel_aftertouch_c, 3, 0
10, 69560, Note_on_c, 3, 62, 0
10, 69600, Note_on_c, 3, 62, 102
10, 69648, Note_on_c, 3, 62, 0
10, 69696, Note_on_c, 3, 62, 110
10, 69748, Note_on_c, 3, 62, 0
10, 69792, Note_on_c, 3, 62, 97
10, 69872, Note_on_c, 3, 62, 0
10, 69888, Note_on_c, 3, 62, 115
10, 69948, Note_on_c, 3, 62, 0
10, 69984, Note_on_c, 3, 60, 105
10, 70028, Note_on_c, 3, 60, 0
10, 70080, Note_on_c, 3, 60, 127
10, 70100, Channel_aftertouch_c, 3, 66
10, 70112, Channel_aftertouch_c, 3, 0
10, 70136, Note_on_c, 3, 60, 0
10, 70176, Note_on_c, 3, 60, 110
10, 70232, Note_on_c, 3, 60, 0
10, 70272, Note_on_c, 3, 60, 110
10, 70312, Note_on_c, 3, 60, 0
10, 70368, Note_on_c, 3, 60, 110
10, 70428, Note_on_c, 3, 60, 0
10, 70464, Note_on_c, 3, 60, 119
10, 70508, Note_on_c, 3, 60, 0
10, 70560, Note_on_c, 3, 62, 124
10, 70604, Note_on_c, 3, 62, 0
10, 70656, Note_on_c, 3, 62, 124
10, 70668, Channel_aftertouch_c, 3, 127
10, 70680, Channel_aftertouch_c, 3, 12
10, 70692, Channel_aftertouch_c, 3, 0
10, 70704, Note_on_c, 3, 62, 0
10, 70752, Note_on_c, 3, 62, 97
10, 70796, Note_on_c, 3, 62, 0
10, 70848, Note_on_c, 3, 62, 119
10, 70864, Channel_aftertouch_c, 3, 33
10, 70872, Channel_aftertouch_c, 3, 0
10, 70892, Note_on_c, 3, 62, 0
10, 70944, Note_on_c, 3, 62, 110
10, 70956, Channel_aftertouch_c, 3, 13
10, 70968, Channel_aftertouch_c, 3, 0
10, 71008, Note_on_c, 3, 62, 0
10, 71040, Note_on_c, 3, 62, 124
10, 71072, Channel_aftertouch_c, 3, 21
10, 71080, Channel_aftertouch_c, 3, 0
10, 71096, Note_on_c, 3, 62, 0
10, 71136, Note_on_c, 3, 62, 80
10, 71176, Note_on_c, 3, 62, 0
10, 71232, Note_on_c, 3, 62, 110
10, 71280, Note_on_c, 3, 62, 0
10, 71328, Note_on_c, 3, 62, 90
10, 71396, Note_on_c, 3, 62, 0
10, 71424, Note_on_c, 3, 62, 119
10, 71488, Note_on_c, 3, 62, 0
10, 71520, Note_on_c, 3, 64, 94
10, 71552, Note_on_c, 3, 64, 0
10, 71616, Note_on_c, 3, 64, 94
10, 71672, Note_on_c, 3, 64, 0
10, 71712, Note_on_c, 3, 64, 94
10, 71752, Note_on_c, 3, 64, 0
10, 71808, Note_on_c, 3, 64, 97
10, 71844, Note_on_c, 3, 64, 0
10, 71904, Note_on_c, 3, 64, 67
10, 71936, Note_on_c, 3, 64, 0
10, 72000, Note_on_c, 3, 64, 110
10, 72032, Channel_aftertouch_c, 3, 3
10, 72044, Channel_aftertouch_c, 3, 0
10, 72068, Note_on_c, 3, 64, 0
10, 72096, Note_on_c, 3, 64, 80
10, 72140, Note_on_c, 3, 64, 0
10, 72152, Channel_aftertouch_c, 3, 22
10, 72160, Channel_aftertouch_c, 3, 0
10, 72192, Note_on_c, 3, 62, 119
10, 72240, Note_on_c, 3, 62, 0
10, 72288, Note_on_c, 3, 62, 56
10, 72320, Note_on_c, 3, 62, 0
10, 72384, Note_on_c, 3, 62, 97
10, 72412, Note_on_c, 3, 62, 0
10, 72480, Note_on_c, 3, 62, 80
10, 72536, Note_on_c, 3, 62, 0
10, 72576, Note_on_c, 3, 62, 124
10, 72628, Note_on_c, 3, 62, 0
10, 72672, Note_on_c, 3, 62, 49
10, 72724, Note_on_c, 3, 62, 0
10, 72768, Note_on_c, 3, 62, 105
10, 72816, Note_on_c, 3, 62, 0
10, 72864, Note_on_c, 3, 62, 102
10, 72944, Note_on_c, 3, 62, 0
10, 72960, Note_on_c, 3, 62, 124
10, 72968, Channel_aftertouch_c, 3, 127
10, 72980, Channel_aftertouch_c, 3, 0
10, 73012, Note_on_c, 3, 62, 0
10, 73040, Channel_aftertouch_c, 3, 31
10, 73048, Channel_aftertouch_c, 3, 0
10, 73056, Note_on_c, 3, 62, 119
10, 73112, Note_on_c, 3, 62, 0
10, 73152, Note_on_c, 3, 60, 119
10, 73200, Note_on_c, 3, 60, 0
10, 73248, Note_on_c, 3, 60, 71
10, 73284, Note_on_c, 3, 60, 0
10, 73344, Note_on_c, 3, 60, 110
10, 73384, Note_on_c, 3, 60, 0
10, 73440, Note_on_c, 3, 60, 83
10, 73496, Note_on_c, 3, 60, 0
10, 73536, Note_on_c, 3, 60, 105
10, 73580, Note_on_c, 3, 60, 0
10, 73632, Note_on_c, 3, 60, 90
10, 73676, Note_on_c, 3, 60, 0
10, 73724, Channel_aftertouch_c, 3, 69
10, 73728, Note_on_c, 3, 62, 119
10, 73736, Channel_aftertouch_c, 3, 0
10, 73780, Note_on_c, 3, 62, 0
10, 73824, Note_on_c, 3, 62, 94
10, 73872, Note_on_c, 3, 62, 0
10, 73920, Note_on_c, 3, 62, 105
10, 73964, Note_on_c, 3, 62, 0
10, 74016, Note_on_c, 3, 62, 87
10, 74088, Note_on_c, 3, 62, 0
10, 74112, Note_on_c, 3, 62, 124
10, 74112, Channel_aftertouch_c, 3, 36
10, 74124, Channel_aftertouch_c, 3, 0
10, 74160, Note_on_c, 3, 62, 0
10, 74304, Note_on_c, 3, 62, 105
10, 74348, Note_on_c, 3, 62, 0
10, 74400, Note_on_c, 3, 62, 77
10, 74472, Note_on_c, 3, 62, 0
10, 74496, Note_on_c, 3, 62, 124
10, 74500, Channel_aftertouch_c, 3, 9
10, 74512, Channel_aftertouch_c, 3, 0
10, 74548, Note_on_c, 3, 62, 0
10, 74592, Note_on_c, 3, 62, 97
10, 74644, Note_on_c, 3, 62, 0
10, 74688, Note_on_c, 3, 64, 119
10, 74752, Note_on_c, 3, 64, 0
10, 74784, Note_on_c, 3, 64, 97
10, 74832, Note_on_c, 3, 64, 0
10, 74880, Note_on_c, 3, 64, 87
10, 74940, Note_on_c, 3, 64, 0
10, 74976, Note_on_c, 3, 64, 80
10, 75028, Note_on_c, 3, 64, 0
10, 75072, Note_on_c, 3, 64, 56
10, 75144, Note_on_c, 3, 64, 0
10, 75168, Note_on_c, 3, 64, 63
10, 75204, Note_on_c, 3, 64, 0
10, 75264, Note_on_c, 3, 62, 115
10, 75352, Note_on_c, 3, 62, 0
10, 75360, Note_on_c, 3, 62, 97
10, 75412, Note_on_c, 3, 62, 0
10, 75456, Note_on_c, 3, 62, 115
10, 75496, Note_on_c, 3, 62, 0
10, 75552, Note_on_c, 3, 62, 105
10, 75600, Note_on_c, 3, 62, 0
10, 75640, Channel_aftertouch_c, 3, 29
10, 75648, Note_on_c, 3, 62, 124
10, 75648, Channel_aftertouch_c, 3, 0
10, 75712, Note_on_c, 3, 62, 0
10, 75744, Note_on_c, 3, 62, 110
10, 75800, Note_on_c, 3, 62, 0
10, 75840, Note_on_c, 3, 62, 94
10, 75888, Note_on_c, 3, 62, 0
10, 75936, Note_on_c, 3, 62, 110
10, 76004, Note_on_c, 3, 62, 0
10, 76012, Channel_aftertouch_c, 3, 112
10, 76024, Channel_aftertouch_c, 3, 0
10, 76032, Note_on_c, 3, 62, 127
10, 76120, Note_on_c, 3, 62, 0
10, 76128, Note_on_c, 3, 62, 77
10, 76200, Note_on_c, 3, 62, 0
10, 76224, Note_on_c, 3, 62, 105
10, 76260, Note_on_c, 3, 62, 0
10, 76320, Note_on_c, 3, 62, 115
10, 76388, Note_on_c, 3, 62, 0
10, 76416, Note_on_c, 3, 62, 102
10, 76416, Note_on_c, 3, 62, 115
10, 76460, Note_on_c, 3, 62, 0
10, 76468, Note_on_c, 3, 62, 0
10, 76512, Note_on_c, 3, 62, 124
10, 76564, Note_on_c, 3, 62, 0
10, 76608, Note_on_c, 3, 62, 90
10, 76644, Note_on_c, 3, 62, 0
10, 76704, Note_on_c, 3, 62, 124
10, 76756, Note_on_c, 3, 62, 0
10, 76800, Note_on_c, 3, 62, 104
10, 76852, Note_on_c, 3, 62, 0
10, 76896, Note_on_c, 3, 62, 79
10, 76952, Note_on_c, 3, 62, 0
10, 76992, Note_on_c, 3, 62, 82
10, 77052, Note_on_c, 3, 62, 0
10, 77088, Note_on_c, 3, 62, 76
10, 77148, Note_on_c, 3, 62, 0
10, 77184, Note_on_c, 3, 62, 108
10, 77260, Note_on_c, 3, 62, 0
10, 77280, Note_on_c, 3, 62, 57
10, 77352, Note_on_c, 3, 62, 0
10, 77376, Note_on_c, 3, 62, 92
10, 77568, Note_on_c, 3, 62, 0
10, 77568, Note_on_c, 3, 62, 104
10, 77568, Channel_aftertouch_c, 3, 16
10, 77584, Channel_aftertouch_c, 3, 0
10, 77640, Note_on_c, 3, 62, 0
10, 77664, Note_on_c, 3, 62, 57
10, 77728, Note_on_c, 3, 62, 0
10, 77760, Note_on_c, 3, 62, 92
10, 77812, Note_on_c, 3, 62, 0
10, 77856, Note_on_c, 3, 62, 76
10, 77912, Note_on_c, 3, 62, 0
10, 77952, Note_on_c, 3, 62, 104
10, 78024, Note_on_c, 3, 62, 0
10, 78048, Note_on_c, 3, 62, 85
10, 78108, Note_on_c, 3, 62, 0
10, 78144, Note_on_c, 3, 62, 85
10, 78188, Note_on_c, 3, 62, 0
10, 78240, Note_on_c, 3, 62, 70
10, 78308, Note_on_c, 3, 62, 0
10, 78336, Note_on_c, 3, 62, 108
10, 78400, Note_on_c, 3, 62, 0
10, 78432, Note_on_c, 3, 62, 70
10, 78496, Note_on_c, 3, 62, 0
10, 78528, Note_on_c, 3, 62, 96
10, 78580, Note_on_c, 3, 62, 0
10, 78624, Note_on_c, 3, 62, 76
10, 78688, Note_on_c, 3, 62, 0
10, 78720, Note_on_c, 3, 62, 108
10, 78788, Note_on_c, 3, 62, 0
10, 78816, Note_on_c, 3, 62, 79
10, 78872, Note_on_c, 3, 62, 0
10, 78912, Note_on_c, 3, 62, 89
10, 78960, Note_on_c, 3, 62, 0
10, 79008, Note_on_c, 3, 62, 73
10, 79068, Note_on_c, 3, 62, 0
10, 79104, Note_on_c, 3, 62, 108
10, 79168, Note_on_c, 3, 62, 0
10, 79200, Note_on_c, 3, 62, 73
10, 79264, Note_on_c, 3, 62, 0
10, 79296, Note_on_c, 3, 62, 85
10, 79356, Note_on_c, 3, 62, 0
10, 79392, Note_on_c, 3, 62, 64
10, 79472, Note_on_c, 3, 62, 0
10, 79488, Note_on_c, 3, 62, 104
10, 79568, Note_on_c, 3, 62, 0
10, 79584, Note_on_c, 3, 62, 79
10, 79648, Note_on_c, 3, 62, 0
10, 79680, Note_on_c, 3, 62, 82
10, 79732, Note_on_c, 3, 62, 0
10, 79776, Note_on_c, 3, 62, 82
10, 79852, Note_on_c, 3, 62, 0
10, 79872, Note_on_c, 3, 62, 113
10, 79880, Channel_aftertouch_c, 3, 7
10, 79892, Channel_aftertouch_c, 3, 0
10, 79960, Note_on_c, 3, 62, 0
10, 79968, Note_on_c, 3, 62, 70
10, 80024, Note_on_c, 3, 62, 0
10, 80064, Note_on_c, 3, 62, 70
10, 80092, Note_on_c, 3, 62, 0
10, 80160, Note_on_c, 3, 62, 79
10, 80216, Note_on_c, 3, 62, 0
10, 80248, Channel_aftertouch_c, 3, 74
10, 80256, Note_on_c, 3, 62, 117
10, 80260, Channel_aftertouch_c, 3, 0
10, 80344, Note_on_c, 3, 62, 0
10, 80352, Note_on_c, 3, 62, 67
10, 80412, Note_on_c, 3, 62, 0
10, 80448, Note_on_c, 3, 62, 79
10, 80496, Note_on_c, 3, 62, 0
10, 80544, Note_on_c, 3, 62, 79
10, 80616, Note_on_c, 3, 62, 0
10, 80640, Note_on_c, 3, 62, 113
10, 80716, Note_on_c, 3, 62, 0
10, 80736, Note_on_c, 3, 62, 64
10, 80800, Note_on_c, 3, 62, 0
10, 80832, Note_on_c, 3, 62, 96
10, 80884, Note_on_c, 3, 62, 0
10, 80928, Note_on_c, 3, 62, 67
10, 80988, Note_on_c, 3, 62, 0
10, 81024, Note_on_c, 3, 62, 108
10, 81040, Channel_aftertouch_c, 3, 4
10, 81056, Channel_aftertouch_c, 3, 0
10, 81100, Note_on_c, 3, 62, 0
10, 81120, Note_on_c, 3, 62, 70
10, 81176, Note_on_c, 3, 62, 0
10, 81216, Note_on_c, 3, 62, 104
10, 81272, Note_on_c, 3, 62, 0
10, 81312, Note_on_c, 3, 62, 100
10, 81376, Note_on_c, 3, 62, 0
10, 81408, Note_on_c, 3, 62, 127
10, 81412, Channel_aftertouch_c, 3, 91
10, 81424, Channel_aftertouch_c, 3, 64
10, 81436, Channel_aftertouch_c, 3, 22
10, 81448, Channel_aftertouch_c, 3, 0
10, 81564, Note_on_c, 3, 62, 0
10, 81600, Note_on_c, 3, 62, 89
10, 81652, Note_on_c, 3, 62, 0
10, 81696, Note_on_c, 3, 62, 82
10, 81752, Note_on_c, 3, 62, 0
10, 81792, Note_on_c, 3, 62, 113
10, 81952, Note_on_c, 3, 62, 0
10, 81984, Note_on_c, 3, 62, 85
10, 82036, Note_on_c, 3, 62, 0
10, 82080, Note_on_c, 3, 62, 85
10, 82152, Note_on_c, 3, 62, 0
10, 82176, Note_on_c, 3, 62, 108
10, 82240, Note_on_c, 3, 62, 0
10, 82272, Note_on_c, 3, 62, 92
10, 82332, Note_on_c, 3, 62, 0
10, 82368, Note_on_c, 3, 62, 92
10, 82424, Note_on_c, 3, 62, 0
10, 82464, Note_on_c, 3, 62, 89
10, 82532, Note_on_c, 3, 62, 0
10, 82560, Note_on_c, 3, 62, 108
10, 82648, Note_on_c, 3, 62, 0
10, 82656, Note_on_c, 3, 62, 79
10, 82720, Note_on_c, 3, 62, 0
10, 82752, Note_on_c, 3, 62, 73
10, 82792, Note_on_c, 3, 62, 0
10, 82848, Note_on_c, 3, 62, 96
10, 82912, Note_on_c, 3, 62, 0
10, 82932, Channel_aftertouch_c, 3, 72
10, 82944, Note_on_c, 3, 62, 108
10, 82944, Channel_aftertouch_c, 3, 0
10, 83032, Note_on_c, 3, 62, 0
10, 83040, Note_on_c, 3, 62, 92
10, 83100, Note_on_c, 3, 62, 0
10, 83136, Note_on_c, 3, 62, 92
10, 83184, Note_on_c, 3, 62, 0
10, 83232, Note_on_c, 3, 62, 89
10, 83296, Note_on_c, 3, 62, 0
10, 83328, Note_on_c, 3, 62, 108
10, 83404, Note_on_c, 3, 62, 0
10, 83424, Note_on_c, 3, 62, 89
10, 83480, Note_on_c, 3, 62, 0
10, 83520, Note_on_c, 3, 62, 92
10, 83572, Note_on_c, 3, 62, 0
10, 83616, Note_on_c, 3, 62, 85
10, 83676, Note_on_c, 3, 62, 0
10, 83712, Note_on_c, 3, 62, 117
10, 83728, Channel_aftertouch_c, 3, 12
10, 83740, Channel_aftertouch_c, 3, 0
10, 83792, Note_on_c, 3, 62, 0
10, 83808, Note_on_c, 3, 62, 67
10, 83868, Note_on_c, 3, 62, 0
10, 83904, Note_on_c, 3, 62, 96
10, 83948, Note_on_c, 3, 62, 0
10, 84000, Note_on_c, 3, 62, 85
10, 84056, Note_on_c, 3, 62, 0
10, 84096, Note_on_c, 3, 62, 117
10, 84164, Note_on_c, 3, 62, 0
10, 84192, Note_on_c, 3, 62, 92
10, 84256, Note_on_c, 3, 62, 0
10, 84288, Note_on_c, 3, 62, 100
10, 84340, Note_on_c, 3, 62, 0
10, 84384, Note_on_c, 3, 62, 89
10, 84460, Note_on_c, 3, 62, 0
10, 84480, Note_on_c, 3, 62, 113
10, 84488, Channel_aftertouch_c, 3, 36
10, 84496, Channel_aftertouch_c, 3, 0
10, 84560, Note_on_c, 3, 62, 0
10, 84576, Note_on_c, 3, 62, 79
10, 84636, Note_on_c, 3, 62, 0
10, 84672, Note_on_c, 3, 62, 92
10, 84672, Channel_aftertouch_c, 3, 35
10, 84684, Channel_aftertouch_c, 3, 0
10, 84736, Note_on_c, 3, 62, 0
10, 84768, Note_on_c, 3, 62, 89
10, 84852, Note_on_c, 3, 62, 0
10, 84864, Note_on_c, 3, 62, 117
10, 84876, Channel_aftertouch_c, 3, 23
10, 84888, Channel_aftertouch_c, 3, 0
10, 84944, Note_on_c, 3, 62, 0
10, 84960, Note_on_c, 3, 62, 96
10, 85016, Note_on_c, 3, 62, 0
10, 85056, Note_on_c, 3, 62, 108
10, 85120, Note_on_c, 3, 62, 0
10, 85152, Note_on_c, 3, 62, 96
10, 85216, Note_on_c, 3, 62, 0
10, 85244, Channel_aftertouch_c, 3, 2
10, 85248, Note_on_c, 3, 62, 113
10, 85256, Channel_aftertouch_c, 3, 0
10, 85320, Note_on_c, 3, 62, 0
10, 85344, Note_on_c, 3, 62, 82
10, 85400, Note_on_c, 3, 62, 0
10, 85440, Note_on_c, 3, 62, 96
10, 85500, Note_on_c, 3, 62, 0
10, 85536, Note_on_c, 3, 62, 100
10, 85600, Note_on_c, 3, 62, 0
10, 85616, Channel_aftertouch_c, 3, 20
10, 85624, Channel_aftertouch_c, 3, 0
10, 85632, Note_on_c, 3, 62, 108
10, 85716, Note_on_c, 3, 62, 0
10, 85728, Note_on_c, 3, 62, 100
10, 85792, Note_on_c, 3, 62, 0
10, 85824, Note_on_c, 3, 62, 100
10, 85828, Channel_aftertouch_c, 3, 2
10, 85840, Channel_aftertouch_c, 3, 0
10, 85908, Note_on_c, 3, 62, 0
10, 85920, Note_on_c, 3, 62, 96
10, 85996, Note_on_c, 3, 62, 0
10, 89088, Note_on_c, 3, 62, 104
10, 89140, Note_on_c, 3, 62, 0
10, 89184, Note_on_c, 3, 62, 79
10, 89240, Note_on_c, 3, 62, 0
10, 89280, Note_on_c, 3, 62, 82
10, 89340, Note_on_c, 3, 62, 0
10, 89376, Note_on_c, 3, 62, 76
10, 89436, Note_on_c, 3, 62, 0
10, 89472, Note_on_c, 3, 62, 108
10, 89548, Note_on_c, 3, 62, 0
10, 89568, Note_on_c, 3, 62, 57
10, 89640, Note_on_c, 3, 62, 0
10, 89664, Note_on_c, 3, 62, 92
10, 89856, Note_on_c, 3, 62, 0
10, 89856, Note_on_c, 3, 62, 104
10, 89856, Channel_aftertouch_c, 3, 16
10, 89872, Channel_aftertouch_c, 3, 0
10, 89928, Note_on_c, 3, 62, 0
10, 89952, Note_on_c, 3, 62, 57
10, 90016, Note_on_c, 3, 62, 0
10, 90048, Note_on_c, 3, 62, 92
10, 90100, Note_on_c, 3, 62, 0
10, 90144, Note_on_c, 3, 62, 76
10, 90200, Note_on_c, 3, 62, 0
10, 90240, Note_on_c, 3, 62, 104
10, 90312, Note_on_c, 3, 62, 0
10, 90336, Note_on_c, 3, 62, 85
10, 90396, Note_on_c, 3, 62, 0
10, 90432, Note_on_c, 3, 62, 85
10, 90476, Note_on_c, 3, 62, 0
10, 90528, Note_on_c, 3, 62, 70
10, 90596, Note_on_c, 3, 62, 0
10, 90624, Note_on_c, 3, 62, 108
10, 90688, Note_on_c, 3, 62, 0
10, 90720, Note_on_c, 3, 62, 70
10, 90784, Note_on_c, 3, 62, 0
10, 90816, Note_on_c, 3, 62, 96
10, 90868, Note_on_c, 3, 62, 0
10, 90912, Note_on_c, 3, 62, 76
10, 90976, Note_on_c, 3, 62, 0
10, 91008, Note_on_c, 3, 62, 108
10, 91076, Note_on_c, 3, 62, 0
10, 91104, Note_on_c, 3, 62, 79
10, 91160, Note_on_c, 3, 62, 0
10, 91200, Note_on_c, 3, 62, 89
10, 91248, Note_on_c, 3, 62, 0
10, 91296, Note_on_c, 3, 62, 73
10, 91356, Note_on_c, 3, 62, 0
10, 91392, Note_on_c, 3, 62, 108
10, 91456, Note_on_c, 3, 62, 0
10, 91488, Note_on_c, 3, 62, 73
10, 91552, Note_on_c, 3, 62, 0
10, 91584, Note_on_c, 3, 62, 85
10, 91644, Note_on_c, 3, 62, 0
10, 91680, Note_on_c, 3, 62, 64
10, 91760, Note_on_c, 3, 62, 0
10, 91776, Note_on_c, 3, 62, 104
10, 91856, Note_on_c, 3, 62, 0
10, 91872, Note_on_c, 3, 62, 79
10, 91936, Note_on_c, 3, 62, 0
10, 91968, Note_on_c, 3, 62, 82
10, 92020, Note_on_c, 3, 62, 0
10, 92064, Note_on_c, 3, 62, 82
10, 92140, Note_on_c, 3, 62, 0
10, 92160, Note_on_c, 3, 62, 113
10, 92168, Channel_aftertouch_c, 3, 7
10, 92180, Channel_aftertouch_c, 3, 0
10, 92248, Note_on_c, 3, 62, 0
10, 92256, Note_on_c, 3, 62, 70
10, 92312, Note_on_c, 3, 62, 0
10, 92352, Note_on_c, 3, 62, 70
10, 92380, Note_on_c, 3, 62, 0
10, 92448, Note_on_c, 3, 62, 79
10, 92504, Note_on_c, 3, 62, 0
10, 92536, Channel_aftertouch_c, 3, 74
10, 92544, Note_on_c, 3, 62, 117
10, 92548, Channel_aftertouch_c, 3, 0
10, 92632, Note_on_c, 3, 62, 0
10, 92640, Note_on_c, 3, 62, 67
10, 92700, Note_on_c, 3, 62, 0
10, 92736, Note_on_c, 3, 62, 79
10, 92784, Note_on_c, 3, 62, 0
10, 92832, Note_on_c, 3, 62, 79
10, 92904, Note_on_c, 3, 62, 0
10, 92928, Note_on_c, 3, 62, 113
10, 93004, Note_on_c, 3, 62, 0
10, 93024, Note_on_c, 3, 62, 64
10, 93088, Note_on_c, 3, 62, 0
10, 93120, Note_on_c, 3, 62, 96
10, 93172, Note_on_c, 3, 62, 0
10, 93216, Note_on_c, 3, 62, 67
10, 93276, Note_on_c, 3, 62, 0
10, 93312, Note_on_c, 3, 62, 108
10, 93328, Channel_aftertouch_c, 3, 4
10, 93344, Channel_aftertouch_c, 3, 0
10, 93388, Note_on_c, 3, 62, 0
10, 93408, Note_on_c, 3, 62, 70
10, 93464, Note_on_c, 3, 62, 0
10, 93504, Note_on_c, 3, 62, 104
10, 93560, Note_on_c, 3, 62, 0
10, 93600, Note_on_c, 3, 62, 100
10, 93664, Note_on_c, 3, 62, 0
10, 93696, Note_on_c, 3, 62, 127
10, 93700, Channel_aftertouch_c, 3, 91
10, 93712, Channel_aftertouch_c, 3, 64
10, 93724, Channel_aftertouch_c, 3, 22
10, 93736, Channel_aftertouch_c, 3, 0
10, 93852, Note_on_c, 3, 62, 0
10, 93888, Note_on_c, 3, 62, 89
10, 93940, Note_on_c, 3, 62, 0
10, 93984, Note_on_c, 3, 62, 82
10, 94040, Note_on_c, 3, 62, 0
10, 94080, Note_on_c, 3, 62, 113
10, 94240, Note_on_c, 3, 62, 0
10, 94272, Note_on_c, 3, 62, 85
10, 94324, Note_on_c, 3, 62, 0
10, 94368, Note_on_c, 3, 62, 85
10, 94440, Note_on_c, 3, 62, 0
10, 94464, Note_on_c, 3, 62, 108
10, 94528, Note_on_c, 3, 62, 0
10, 94560, Note_on_c, 3, 62, 92
10, 94620, Note_on_c, 3, 62, 0
10, 94656, Note_on_c, 3, 62, 92
10, 94712, Note_on_c, 3, 62, 0
10, 94752, Note_on_c, 3, 62, 89
10, 94820, Note_on_c, 3, 62, 0
10, 94848, Note_on_c, 3, 62, 108
10, 94936, Note_on_c, 3, 62, 0
10, 94944, Note_on_c, 3, 62, 79
10, 95008, Note_on_c, 3, 62, 0
10, 95040, Note_on_c, 3, 62, 73
10, 95080, Note_on_c, 3, 62, 0
10, 95136, Note_on_c, 3, 62, 96
10, 95200, Note_on_c, 3, 62, 0
10, 95220, Channel_aftertouch_c, 3, 72
10, 95232, Note_on_c, 3, 62, 108
10, 95232, Channel_aftertouch_c, 3, 0
10, 95320, Note_on_c, 3, 62, 0
10, 95328, Note_on_c, 3, 62, 92
10, 95388, Note_on_c, 3, 62, 0
10, 95424, Note_on_c, 3, 62, 92
10, 95472, Note_on_c, 3, 62, 0
10, 95520, Note_on_c, 3, 62, 89
10, 95584, Note_on_c, 3, 62, 0
10, 95616, Note_on_c, 3, 62, 108
10, 95692, Note_on_c, 3, 62, 0
10, 95712, Note_on_c, 3, 62, 89
10, 95768, Note_on_c, 3, 62, 0
10, 95808, Note_on_c, 3, 62, 92
10, 95860, Note_on_c, 3, 62, 0
10, 95904, Note_on_c, 3, 62, 85
10, 95964, Note_on_c, 3, 62, 0
10, 96000, Note_on_c, 3, 62, 117
10, 96016, Channel_aftertouch_c, 3, 12
10, 96028, Channel_aftertouch_c, 3, 0
10, 96080, Note_on_c, 3, 62, 0
10, 96096, Note_on_c, 3, 62, 67
10, 96156, Note_on_c, 3, 62, 0
10, 96192, Note_on_c, 3, 62, 96
10, 96236, Note_on_c, 3, 62, 0
10, 96288, Note_on_c, 3, 62, 85
10, 96344, Note_on_c, 3, 62, 0
10, 96384, Note_on_c, 3, 62, 117
10, 96452, Note_on_c, 3, 62, 0
10, 96480, Note_on_c, 3, 62, 92
10, 96544, Note_on_c, 3, 62, 0
10, 96576, Note_on_c, 3, 62, 100
10, 96628, Note_on_c, 3, 62, 0
10, 96672, Note_on_c, 3, 62, 89
10, 96748, Note_on_c, 3, 62, 0
10, 96768, Note_on_c, 3, 62, 113
10, 96776, Channel_aftertouch_c, 3, 36
10, 96784, Channel_aftertouch_c, 3, 0
10, 96848, Note_on_c, 3, 62, 0
10, 96864, Note_on_c, 3, 62, 79
10, 96924, Note_on_c, 3, 62, 0
10, 96960, Note_on_c, 3, 62, 92
10, 96960, Channel_aftertouch_c, 3, 35
10, 96972, Channel_aftertouch_c, 3, 0
10, 97024, Note_on_c, 3, 62, 0
10, 97056, Note_on_c, 3, 62, 89
10, 97140, Note_on_c, 3, 62, 0
10, 97152, Note_on_c, 3, 62, 117
10, 97164, Channel_aftertouch_c, 3, 23
10, 97176, Channel_aftertouch_c, 3, 0
10, 97232, Note_on_c, 3, 62, 0
10, 97248, Note_on_c, 3, 62, 96
10, 97304, Note_on_c, 3, 62, 0
10, 97344, Note_on_c, 3, 62, 108
10, 97408, Note_on_c, 3, 62, 0
10, 97440, Note_on_c, 3, 62, 96
10, 97504, Note_on_c, 3, 62, 0
10, 97532, Channel_aftertouch_c, 3, 2
10, 97536, Note_on_c, 3, 62, 113
10, 97544, Channel_aftertouch_c, 3, 0
10, 97608, Note_on_c, 3, 62, 0
10, 97632, Note_on_c, 3, 62, 82
10, 97688, Note_on_c, 3, 62, 0
10, 97728, Note_on_c, 3, 62, 96
10, 97788, Note_on_c, 3, 62, 0
10, 97824, Note_on_c, 3, 62, 100
10, 97888, Note_on_c, 3, 62, 0
10, 97904, Channel_aftertouch_c, 3, 20
10, 97912, Channel_aftertouch_c, 3, 0
10, 97920, Note_on_c, 3, 62, 108
10, 98004, Note_on_c, 3, 62, 0
10, 98016, Note_on_c, 3, 62, 100
10, 98080, Note_on_c, 3, 62, 0
10, 98112, Note_on_c, 3, 62, 100
10, 98116, Channel_aftertouch_c, 3, 2
10, 98128, Channel_aftertouch_c, 3, 0
10, 98196, Note_on_c, 3, 62, 0
10, 98208, Note_on_c, 3, 62, 96
10, 98284, Note_on_c, 3, 62, 0
10, 98304, Note_on_c, 3, 67, 108
10, 98356, Note_on_c, 3, 67, 0
10, 98380, Note_on_c, 3, 67, 92
10, 98436, Note_on_c, 3, 67, 0
10, 98472, Note_on_c, 3, 67, 96
10, 98528, Note_on_c, 3, 67, 0
10, 98560, Note_on_c, 3, 67, 85
10, 98648, Note_on_c, 3, 67, 0
10, 98680, Note_on_c, 3, 67, 108
10, 98748, Note_on_c, 3, 67, 0
10, 98780, Note_on_c, 3, 67, 89
10, 98856, Note_on_c, 3, 67, 0
10, 98884, Note_on_c, 3, 67, 100
10, 98940, Note_on_c, 3, 67, 0
10, 98988, Note_on_c, 3, 67, 92
10, 99068, Note_on_c, 3, 67, 0
10, 99088, Note_on_c, 3, 67, 113
10, 99152, Note_on_c, 3, 67, 0
10, 99188, Note_on_c, 3, 67, 82
10, 99256, Note_on_c, 3, 67, 0
10, 99288, Note_on_c, 3, 67, 100
10, 99336, Note_on_c, 3, 67, 0
10, 99376, Note_on_c, 3, 67, 92
10, 99456, Note_on_c, 3, 67, 0
10, 99480, Note_on_c, 3, 67, 108
10, 99544, Note_on_c, 3, 67, 0
10, 99576, Note_on_c, 3, 67, 85
10, 99644, Note_on_c, 3, 67, 0
10, 99672, Note_on_c, 3, 67, 100
10, 99720, Note_on_c, 3, 67, 0
10, 99768, Note_on_c, 3, 67, 96
10, 99832, Note_on_c, 3, 67, 0
10, 99856, Note_on_c, 3, 67, 108
10, 99920, Note_on_c, 3, 67, 0
10, 99948, Note_on_c, 3, 67, 89
10, 100016, Note_on_c, 3, 67, 0
10, 100036, Note_on_c, 3, 67, 104
10, 100088, Note_on_c, 3, 67, 0
10, 100144, Note_on_c, 3, 67, 92
10, 100216, Note_on_c, 3, 67, 0
10, 100232, Note_on_c, 3, 67, 113
10, 100288, Note_on_c, 3, 67, 0
10, 100324, Note_on_c, 3, 67, 82
10, 100392, Note_on_c, 3, 67, 0
10, 100420, Note_on_c, 3, 67, 100
10, 100468, Note_on_c, 3, 67, 0
10, 100520, Note_on_c, 3, 67, 92
10, 100604, Note_on_c, 3, 67, 0
10, 100608, Note_on_c, 3, 67, 96
10, 100664, Note_on_c, 3, 67, 0
10, 100700, Note_on_c, 3, 67, 82
10, 100776, Note_on_c, 3, 67, 0
10, 100808, Note_on_c, 3, 67, 96
10, 100856, Note_on_c, 3, 67, 0
10, 100908, Note_on_c, 3, 67, 96
10, 100984, Note_on_c, 3, 67, 0
10, 101008, Note_on_c, 3, 67, 108
10, 101072, Note_on_c, 3, 67, 0
10, 101100, Note_on_c, 3, 67, 92
10, 101168, Note_on_c, 3, 67, 0
10, 101192, Note_on_c, 3, 67, 104
10, 101244, Note_on_c, 3, 67, 0
10, 101292, Note_on_c, 3, 67, 100
10, 101364, Note_on_c, 3, 67, 0
10, 101388, Note_on_c, 3, 67, 117
10, 101392, Channel_aftertouch_c, 3, 127
10, 101400, Channel_aftertouch_c, 3, 27
10, 101416, Channel_aftertouch_c, 3, 0
10, 101452, Note_on_c, 3, 67, 0
10, 101472, Note_on_c, 3, 67, 100
10, 101532, Note_on_c, 3, 67, 0
10, 101572, Note_on_c, 3, 67, 117
10, 101644, Note_on_c, 3, 67, 0
10, 101656, Note_on_c, 3, 67, 92
10, 101720, Note_on_c, 3, 67, 0
10, 101760, Note_on_c, 3, 67, 117
10, 101764, Channel_aftertouch_c, 3, 55
10, 101776, Channel_aftertouch_c, 3, 0
10, 101896, Note_on_c, 3, 67, 0
10, 101956, Note_on_c, 3, 67, 108
10, 102012, Note_on_c, 3, 67, 0
10, 102056, Note_on_c, 3, 67, 96
10, 102116, Note_on_c, 3, 67, 0
10, 102144, Note_on_c, 3, 67, 104
10, 102208, Note_on_c, 3, 67, 0
10, 102240, Note_on_c, 3, 67, 92
10, 102308, Note_on_c, 3, 67, 0
10, 102344, Note_on_c, 3, 67, 92
10, 102384, Note_on_c, 3, 67, 0
10, 102440, Note_on_c, 3, 67, 85
10, 102512, Note_on_c, 3, 67, 0
10, 102540, Note_on_c, 3, 67, 113
10, 102612, Note_on_c, 3, 67, 0
10, 102636, Note_on_c, 3, 67, 92
10, 102704, Note_on_c, 3, 67, 0
10, 102728, Note_on_c, 3, 67, 100
10, 102776, Note_on_c, 3, 67, 0
10, 102812, Note_on_c, 3, 67, 82
10, 102884, Note_on_c, 3, 67, 0
10, 102908, Note_on_c, 3, 67, 117
10, 102972, Note_on_c, 3, 67, 0
10, 103004, Note_on_c, 3, 67, 92
10, 103072, Note_on_c, 3, 67, 0
10, 103108, Note_on_c, 3, 67, 104
10, 103160, Note_on_c, 3, 67, 0
10, 103192, Note_on_c, 3, 67, 92
10, 103272, Note_on_c, 3, 67, 0
10, 103296, Note_on_c, 3, 67, 113
10, 103364, Note_on_c, 3, 67, 0
10, 103388, Note_on_c, 3, 67, 92
10, 103452, Note_on_c, 3, 67, 0
10, 103492, Note_on_c, 3, 67, 104
10, 103544, Note_on_c, 3, 67, 0
10, 103588, Note_on_c, 3, 67, 89
10, 103660, Note_on_c, 3, 67, 0
10, 103688, Note_on_c, 3, 67, 117
10, 103752, Note_on_c, 3, 67, 0
10, 103772, Note_on_c, 3, 67, 104
10, 103844, Note_on_c, 3, 67, 0
10, 103876, Note_on_c, 3, 67, 117
10, 103912, Note_on_c, 3, 67, 0
10, 103968, Note_on_c, 3, 67, 108
10, 104024, Note_on_c, 3, 67, 0
10, 104052, Note_on_c, 3, 67, 104
10, 104108, Note_on_c, 3, 67, 0
10, 104124, Note_on_c, 3, 67, 113
10, 104184, Note_on_c, 3, 67, 0
10, 104220, Note_on_c, 3, 67, 100
10, 104280, Note_on_c, 3, 67, 0
10, 104316, Note_on_c, 3, 67, 108
10, 104368, Note_on_c, 3, 67, 0
10, 104416, Note_on_c, 3, 67, 113
10, 104440, Channel_aftertouch_c, 3, 2
10, 104448, Channel_aftertouch_c, 3, 0
10, 104492, Note_on_c, 3, 67, 0
10, 104528, Note_on_c, 3, 67, 96
10, 104564, Note_on_c, 3, 67, 0
10, 104620, Note_on_c, 3, 67, 104
10, 104676, Note_on_c, 3, 67, 0
10, 104728, Note_on_c, 3, 67, 104
10, 104784, Note_on_c, 3, 67, 0
10, 104828, Note_on_c, 3, 67, 108
10, 104888, Note_on_c, 3, 67, 0
10, 104936, Note_on_c, 3, 67, 73
10, 104976, Note_on_c, 3, 67, 0
10, 105024, Note_on_c, 3, 67, 104
10, 105076, Note_on_c, 3, 67, 0
10, 105120, Note_on_c, 3, 67, 100
10, 105200, Note_on_c, 3, 67, 0
10, 105224, Note_on_c, 3, 67, 113
10, 105284, Note_on_c, 3, 67, 0
10, 105316, Note_on_c, 3, 67, 100
10, 105376, Note_on_c, 3, 67, 0
10, 105416, Note_on_c, 3, 67, 104
10, 105472, Note_on_c, 3, 67, 0
10, 105512, Note_on_c, 3, 67, 108
10, 105512, Channel_aftertouch_c, 3, 71
10, 105528, Channel_aftertouch_c, 3, 0
10, 105572, Note_on_c, 3, 67, 0
10, 105600, Note_on_c, 3, 67, 96
10, 105648, Note_on_c, 3, 67, 0
10, 105692, Note_on_c, 3, 67, 108
10, 105696, Channel_aftertouch_c, 3, 12
10, 105704, Channel_aftertouch_c, 3, 0
10, 105752, Note_on_c, 3, 67, 0
10, 105784, Note_on_c, 3, 67, 104
10, 105832, Note_on_c, 3, 67, 0
10, 105888, Note_on_c, 3, 67, 104
10, 105948, Note_on_c, 3, 67, 0
10, 105976, Note_on_c, 3, 67, 113
10, 106036, Note_on_c, 3, 67, 0
10, 106072, Note_on_c, 3, 67, 100
10, 106128, Note_on_c, 3, 67, 0
10, 106172, Note_on_c, 3, 67, 104
10, 106224, Note_on_c, 3, 67, 0
10, 106280, Note_on_c, 3, 67, 108
10, 106360, Note_on_c, 3, 67, 0
10, 106372, Note_on_c, 3, 67, 104
10, 106432, Note_on_c, 3, 67, 0
10, 106480, Note_on_c, 3, 67, 85
10, 106536, Note_on_c, 3, 67, 0
10, 106568, Note_on_c, 3, 67, 104
10, 106616, Note_on_c, 3, 67, 0
10, 106680, Note_on_c, 3, 67, 104
10, 106744, Note_on_c, 3, 67, 0
10, 106764, Note_on_c, 3, 67, 108
10, 106828, Note_on_c, 3, 67, 0
10, 106868, Note_on_c, 3, 67, 96
10, 106916, Note_on_c, 3, 67, 0
10, 106952, Note_on_c, 3, 67, 104
10, 107008, Note_on_c, 3, 67, 0
10, 107052, Note_on_c, 3, 67, 117
10, 107128, Note_on_c, 3, 67, 0
10, 107148, Note_on_c, 3, 67, 70
10, 107188, Note_on_c, 3, 67, 0
10, 107236, Note_on_c, 3, 67, 108
10, 107296, Note_on_c, 3, 67, 0
10, 107328, Note_on_c, 3, 67, 89
10, 107380, Note_on_c, 3, 67, 0
10, 107428, Note_on_c, 3, 67, 104
10, 107432, Channel_aftertouch_c, 3, 26
10, 107444, Channel_aftertouch_c, 3, 0
10, 107520, Channel_aftertouch_c, 3, 10
10, 107532, Channel_aftertouch_c, 3, 0
10, 107620, Note_on_c, 3, 67, 0
10, 107628, Note_on_c, 3, 67, 85
10, 107700, Note_on_c, 3, 67, 0
10, 107728, Note_on_c, 3, 67, 92
10, 107784, Note_on_c, 3, 67, 0
10, 107828, Note_on_c, 3, 67, 104
10, 107932, Channel_aftertouch_c, 3, 7
10, 107944, Channel_aftertouch_c, 3, 0
10, 107984, Note_on_c, 3, 67, 0
10, 108024, Note_on_c, 3, 67, 73
10, 108088, Note_on_c, 3, 67, 0
10, 108112, Note_on_c, 3, 67, 96
10, 108168, Note_on_c, 3, 67, 0
10, 108208, Note_on_c, 3, 67, 104
10, 108296, Note_on_c, 3, 67, 0
10, 108300, Note_on_c, 3, 67, 108
10, 108364, Note_on_c, 3, 67, 0
10, 108400, Note_on_c, 3, 67, 82
10, 108448, Note_on_c, 3, 67, 0
10, 108488, Note_on_c, 3, 67, 104
10, 108552, Note_on_c, 3, 67, 0
10, 108580, Note_on_c, 3, 67, 108
10, 108664, Note_on_c, 3, 67, 0
10, 108688, Note_on_c, 3, 67, 89
10, 108736, Note_on_c, 3, 67, 0
10, 108768, Note_on_c, 3, 67, 92
10, 108848, Note_on_c, 3, 67, 0
10, 108856, Note_on_c, 3, 67, 104
10, 108856, Channel_aftertouch_c, 3, 82
10, 108868, Channel_aftertouch_c, 3, 0
10, 108908, Note_on_c, 3, 67, 0
10, 108952, Note_on_c, 3, 67, 100
10, 109032, Note_on_c, 3, 67, 0
10, 109040, Note_on_c, 3, 67, 104
10, 109040, Channel_aftertouch_c, 3, 127
10, 109052, Channel_aftertouch_c, 3, 83
10, 109064, Channel_aftertouch_c, 3, 43
10, 109076, Channel_aftertouch_c, 3, 0
10, 109108, Note_on_c, 3, 67, 0
10, 109136, Note_on_c, 3, 67, 92
10, 109204, Note_on_c, 3, 67, 0
10, 109232, Note_on_c, 3, 67, 96
10, 109284, Note_on_c, 3, 67, 0
10, 109344, Note_on_c, 3, 67, 104
10, 109456, Channel_aftertouch_c, 3, 19
10, 109468, Channel_aftertouch_c, 3, 0
10, 109504, Note_on_c, 3, 67, 0
10, 109536, Note_on_c, 3, 67, 100
10, 109608, Note_on_c, 3, 67, 0
10, 109648, Note_on_c, 3, 67, 104
10, 109692, Note_on_c, 3, 67, 0
10, 109728, Note_on_c, 3, 67, 104
10, 109816, Channel_aftertouch_c, 3, 48
10, 109828, Channel_aftertouch_c, 3, 12
10, 109840, Channel_aftertouch_c, 3, 0
10, 109868, Note_on_c, 3, 67, 0
10, 109908, Note_on_c, 3, 67, 100
10, 109992, Note_on_c, 3, 67, 0
10, 110000, Note_on_c, 3, 67, 100
10, 110000, Channel_aftertouch_c, 3, 78
10, 110016, Channel_aftertouch_c, 3, 0
10, 110060, Note_on_c, 3, 67, 0
10, 110100, Note_on_c, 3, 67, 104
10, 110188, Note_on_c, 3, 67, 0
10, 110192, Note_on_c, 3, 67, 104
10, 110232, Note_on_c, 3, 67, 0
10, 110292, Note_on_c, 3, 67, 113
10, 110304, Channel_aftertouch_c, 3, 2
10, 110316, Channel_aftertouch_c, 3, 0
10, 110344, Note_on_c, 3, 67, 0
10, 110360, Note_on_c, 3, 67, 104
10, 110416, Note_on_c, 3, 67, 0
10, 110460, Note_on_c, 3, 67, 117
10, 110460, Channel_aftertouch_c, 3, 127
10, 110472, Channel_aftertouch_c, 3, 41
10, 110484, Channel_aftertouch_c, 3, 0
10, 110528, Note_on_c, 3, 67, 0
10, 110784, Note_on_c, 3, 61, 90
10, 110784, Control_c, 3, 91, 50
10, 110784, Control_c, 3, 7, 90
10, 110880, Note_on_c, 3, 64, 80
10, 110896, Note_on_c, 3, 61, 0
10, 110976, Note_on_c, 3, 66, 71
10, 110988, Note_on_c, 3, 64, 0
10, 111064, Note_on_c, 3, 66, 0
10, 111168, Note_on_c, 3, 61, 90
10, 111224, Note_on_c, 3, 61, 0
10, 111360, Note_on_c, 3, 64, 97
10, 111440, Note_on_c, 3, 64, 0
10, 111552, Note_on_c, 3, 61, 90
10, 111620, Note_on_c, 3, 61, 0
10, 111648, Note_on_c, 3, 66, 93
10, 111664, Channel_aftertouch_c, 3, 41
10, 111676, Channel_aftertouch_c, 3, 0
10, 111732, Note_on_c, 3, 66, 0
10, 111840, Note_on_c, 3, 61, 90
10, 111892, Note_on_c, 3, 61, 0
10, 111936, Note_on_c, 3, 64, 97
10, 112156, Note_on_c, 3, 64, 0
10, 112320, Note_on_c, 3, 61, 82
10, 112416, Note_on_c, 3, 64, 86
10, 112452, Note_on_c, 3, 61, 0
10, 112512, Note_on_c, 3, 66, 80
10, 112520, Note_on_c, 3, 64, 0
10, 112640, Note_on_c, 3, 66, 0
10, 112704, Note_on_c, 3, 61, 86
10, 112772, Note_on_c, 3, 61, 0
10, 112896, Note_on_c, 3, 69, 93
10, 112992, Note_on_c, 3, 69, 0
10, 113088, Note_on_c, 3, 64, 82
10, 113156, Note_on_c, 3, 64, 0
10, 113280, Note_on_c, 3, 66, 93
10, 113368, Note_on_c, 3, 66, 0
10, 113472, Note_on_c, 3, 64, 93
10, 113696, Note_on_c, 3, 64, 0
10, 113856, Note_on_c, 3, 61, 82
10, 113952, Note_on_c, 3, 64, 90
10, 113968, Note_on_c, 3, 61, 0
10, 114048, Note_on_c, 3, 66, 80
10, 114068, Note_on_c, 3, 64, 0
10, 114160, Note_on_c, 3, 66, 0
10, 114240, Note_on_c, 3, 61, 90
10, 114308, Note_on_c, 3, 61, 0
10, 114432, Note_on_c, 3, 64, 97
10, 114540, Note_on_c, 3, 64, 0
10, 114624, Note_on_c, 3, 61, 93
10, 114684, Note_on_c, 3, 61, 0
10, 114720, Note_on_c, 3, 66, 90
10, 114812, Note_on_c, 3, 66, 0
10, 114912, Note_on_c, 3, 61, 90
10, 114980, Note_on_c, 3, 61, 0
10, 115008, Note_on_c, 3, 64, 97
10, 115232, Note_on_c, 3, 64, 0
10, 115392, Note_on_c, 3, 61, 86
10, 115488, Note_on_c, 3, 64, 90
10, 115504, Note_on_c, 3, 61, 0
10, 115584, Note_on_c, 3, 66, 82
10, 115612, Note_on_c, 3, 64, 0
10, 115728, Note_on_c, 3, 66, 0
10, 115776, Note_on_c, 3, 61, 97
10, 115832, Note_on_c, 3, 61, 0
10, 115968, Note_on_c, 3, 71, 97
10, 115968, Pitch_bend_c, 3, 8192
10, 115972, Pitch_bend_c, 3, 8192
10, 115980, Pitch_bend_c, 3, 8256
10, 115984, Pitch_bend_c, 3, 8320
10, 115992, Pitch_bend_c, 3, 8320
10, 116000, Pitch_bend_c, 3, 8448
10, 116004, Pitch_bend_c, 3, 8512
10, 116012, Pitch_bend_c, 3, 8640
10, 116016, Pitch_bend_c, 3, 8768
10, 116024, Pitch_bend_c, 3, 8768
10, 116032, Pitch_bend_c, 3, 8960
10, 116036, Pitch_bend_c, 3, 9024
10, 116044, Pitch_bend_c, 3, 9152
10, 116048, Pitch_bend_c, 3, 10752
10, 116056, Pitch_bend_c, 3, 10752
10, 116064, Pitch_bend_c, 3, 10752
10, 116068, Note_on_c, 3, 71, 0
10, 116068, Pitch_bend_c, 3, 10688
10, 116076, Pitch_bend_c, 3, 10752
10, 116080, Pitch_bend_c, 3, 10752
10, 116088, Pitch_bend_c, 3, 10688
10, 116096, Pitch_bend_c, 3, 10752
10, 116160, Note_on_c, 3, 69, 80
10, 116160, Pitch_bend_c, 3, 8192
10, 116164, Pitch_bend_c, 3, 8192
10, 116212, Note_on_c, 3, 69, 0
10, 116352, Note_on_c, 3, 71, 97
10, 116412, Note_on_c, 3, 71, 0
10, 116544, Note_on_c, 3, 69, 93
10, 116764, Note_on_c, 3, 69, 0
10, 116928, Note_on_c, 3, 61, 93
10, 117024, Note_on_c, 3, 64, 86
10, 117044, Note_on_c, 3, 61, 0
10, 117120, Note_on_c, 3, 66, 86
10, 117168, Note_on_c, 3, 64, 0
10, 117208, Note_on_c, 3, 66, 0
10, 117312, Note_on_c, 3, 61, 93
10, 117392, Note_on_c, 3, 61, 0
10, 117504, Note_on_c, 3, 64, 90
10, 117632, Note_on_c, 3, 64, 0
10, 117696, Note_on_c, 3, 61, 86
10, 117768, Note_on_c, 3, 61, 0
10, 117792, Note_on_c, 3, 66, 90
10, 117900, Note_on_c, 3, 66, 0
10, 117984, Note_on_c, 3, 61, 90
10, 118080, Note_on_c, 3, 61, 0
10, 118080, Note_on_c, 3, 64, 97
10, 118100, Channel_aftertouch_c, 3, 41
10, 118112, Channel_aftertouch_c, 3, 0
10, 118304, Note_on_c, 3, 64, 0
10, 118464, Note_on_c, 3, 61, 93
10, 118560, Note_on_c, 3, 64, 80
10, 118584, Note_on_c, 3, 61, 0
10, 118656, Note_on_c, 3, 66, 80
10, 118680, Note_on_c, 3, 64, 0
10, 118800, Note_on_c, 3, 66, 0
10, 118848, Note_on_c, 3, 61, 93
10, 118908, Note_on_c, 3, 61, 0
10, 119040, Note_on_c, 3, 69, 97
10, 119112, Note_on_c, 3, 69, 0
10, 119232, Note_on_c, 3, 64, 93
10, 119292, Note_on_c, 3, 64, 0
10, 119424, Note_on_c, 3, 66, 93
10, 119500, Note_on_c, 3, 66, 0
10, 119616, Note_on_c, 3, 64, 97
10, 119840, Note_on_c, 3, 64, 0
10, 120000, Note_on_c, 3, 61, 82
10, 120096, Note_on_c, 3, 64, 82
10, 120108, Note_on_c, 3, 61, 0
10, 120192, Note_on_c, 3, 66, 90
10, 120240, Note_on_c, 3, 64, 0
10, 120268, Note_on_c, 3, 66, 0
10, 120384, Note_on_c, 3, 61, 93
10, 120460, Note_on_c, 3, 61, 0
10, 120576, Note_on_c, 3, 64, 93
10, 120656, Note_on_c, 3, 64, 0
10, 120768, Note_on_c, 3, 61, 93
10, 120832, Note_on_c, 3, 61, 0
10, 120864, Note_on_c, 3, 66, 93
10, 120948, Note_on_c, 3, 66, 0
10, 121056, Note_on_c, 3, 61, 93
10, 121108, Note_on_c, 3, 61, 0
10, 121152, Note_on_c, 3, 64, 97
10, 121348, Note_on_c, 3, 64, 0
10, 121536, Note_on_c, 3, 61, 93
10, 121632, Note_on_c, 3, 64, 86
10, 121652, Note_on_c, 3, 61, 0
10, 121728, Note_on_c, 3, 66, 80
10, 121752, Note_on_c, 3, 64, 0
10, 121864, Note_on_c, 3, 66, 0
10, 121920, Note_on_c, 3, 61, 86
10, 121984, Note_on_c, 3, 61, 0
10, 122112, Note_on_c, 3, 71, 93
10, 122112, Pitch_bend_c, 3, 8256
10, 122116, Pitch_bend_c, 3, 8192
10, 122124, Pitch_bend_c, 3, 8256
10, 122128, Pitch_bend_c, 3, 8256
10, 122136, Pitch_bend_c, 3, 8320
10, 122144, Pitch_bend_c, 3, 8320
10, 122148, Pitch_bend_c, 3, 8384
10, 122156, Pitch_bend_c, 3, 8448
10, 122160, Pitch_bend_c, 3, 8512
10, 122168, Pitch_bend_c, 3, 10496
10, 122176, Pitch_bend_c, 3, 10816
10, 122180, Pitch_bend_c, 3, 10944
10, 122188, Pitch_bend_c, 3, 10944
10, 122192, Pitch_bend_c, 3, 10944
10, 122196, Note_on_c, 3, 71, 0
10, 122200, Pitch_bend_c, 3, 10944
10, 122208, Pitch_bend_c, 3, 10944
10, 122212, Pitch_bend_c, 3, 10944
10, 122220, Pitch_bend_c, 3, 10944
10, 122224, Pitch_bend_c, 3, 10944
10, 122232, Pitch_bend_c, 3, 10944
10, 122240, Pitch_bend_c, 3, 10944
10, 122244, Pitch_bend_c, 3, 10944
10, 122252, Pitch_bend_c, 3, 10944
10, 122256, Pitch_bend_c, 3, 11072
10, 122264, Pitch_bend_c, 3, 11072
10, 122304, Note_on_c, 3, 69, 93
10, 122304, Pitch_bend_c, 3, 8192
10, 122368, Note_on_c, 3, 69, 0
10, 122496, Note_on_c, 3, 71, 97
10, 122564, Note_on_c, 3, 71, 0
10, 122688, Note_on_c, 3, 69, 101
10, 122860, Channel_aftertouch_c, 3, 2
10, 122872, Channel_aftertouch_c, 3, 5
10, 122928, Note_on_c, 3, 69, 0
10, 123072, Note_on_c, 3, 61, 90
10, 123072, Control_c, 3, 91, 50
10, 123072, Control_c, 3, 7, 90
10, 123168, Note_on_c, 3, 64, 80
10, 123184, Note_on_c, 3, 61, 0
10, 123264, Note_on_c, 3, 66, 71
10, 123276, Note_on_c, 3, 64, 0
10, 123352, Note_on_c, 3, 66, 0
10, 123456, Note_on_c, 3, 61, 90
10, 123512, Note_on_c, 3, 61, 0
10, 123648, Note_on_c, 3, 64, 97
10, 123728, Note_on_c, 3, 64, 0
10, 123840, Note_on_c, 3, 61, 90
10, 123908, Note_on_c, 3, 61, 0
10, 123936, Note_on_c, 3, 66, 93
10, 123952, Channel_aftertouch_c, 3, 41
10, 123964, Channel_aftertouch_c, 3, 0
10, 124020, Note_on_c, 3, 66, 0
10, 124128, Note_on_c, 3, 61, 90
10, 124180, Note_on_c, 3, 61, 0
10, 124224, Note_on_c, 3, 64, 97
10, 124444, Note_on_c, 3, 64, 0
10, 124608, Note_on_c, 3, 61, 82
10, 124704, Note_on_c, 3, 64, 86
10, 124740, Note_on_c, 3, 61, 0
10, 124800, Note_on_c, 3, 66, 80
10, 124808, Note_on_c, 3, 64, 0
10, 124928, Note_on_c, 3, 66, 0
10, 124992, Note_on_c, 3, 61, 86
10, 125060, Note_on_c, 3, 61, 0
10, 125184, Note_on_c, 3, 69, 93
10, 125280, Note_on_c, 3, 69, 0
10, 125376, Note_on_c, 3, 64, 82
10, 125444, Note_on_c, 3, 64, 0
10, 125568, Note_on_c, 3, 66, 93
10, 125656, Note_on_c, 3, 66, 0
10, 125760, Note_on_c, 3, 64, 93
10, 125984, Note_on_c, 3, 64, 0
10, 126144, Note_on_c, 3, 61, 82
10, 126240, Note_on_c, 3, 64, 90
10, 126256, Note_on_c, 3, 61, 0
10, 126336, Note_on_c, 3, 66, 80
10, 126356, Note_on_c, 3, 64, 0
10, 126448, Note_on_c, 3, 66, 0
10, 126528, Note_on_c, 3, 61, 90
10, 126596, Note_on_c, 3, 61, 0
10, 126720, Note_on_c, 3, 64, 97
10, 126828, Note_on_c, 3, 64, 0
10, 126912, Note_on_c, 3, 61, 93
10, 126972, Note_on_c, 3, 61, 0
10, 127008, Note_on_c, 3, 66, 90
10, 127100, Note_on_c, 3, 66, 0
10, 127200, Note_on_c, 3, 61, 90
10, 127268, Note_on_c, 3, 61, 0
10, 127296, Note_on_c, 3, 64, 97
10, 127520, Note_on_c, 3, 64, 0
10, 127680, Note_on_c, 3, 61, 86
10, 127776, Note_on_c, 3, 64, 90
10, 127792, Note_on_c, 3, 61, 0
10, 127872, Note_on_c, 3, 66, 82
10, 127900, Note_on_c, 3, 64, 0
10, 128016, Note_on_c, 3, 66, 0
10, 128064, Note_on_c, 3, 61, 97
10, 128120, Note_on_c, 3, 61, 0
10, 128256, Note_on_c, 3, 71, 97
10, 128256, Pitch_bend_c, 3, 8192
10, 128260, Pitch_bend_c, 3, 8192
10, 128268, Pitch_bend_c, 3, 8256
10, 128272, Pitch_bend_c, 3, 8320
10, 128280, Pitch_bend_c, 3, 8320
10, 128288, Pitch_bend_c, 3, 8448
10, 128292, Pitch_bend_c, 3, 8512
10, 128300, Pitch_bend_c, 3, 8640
10, 128304, Pitch_bend_c, 3, 8768
10, 128312, Pitch_bend_c, 3, 8768
10, 128320, Pitch_bend_c, 3, 8960
10, 128324, Pitch_bend_c, 3, 9024
10, 128332, Pitch_bend_c, 3, 9152
10, 128336, Pitch_bend_c, 3, 10752
10, 128344, Pitch_bend_c, 3, 10752
10, 128352, Pitch_bend_c, 3, 10752
10, 128356, Note_on_c, 3, 71, 0
10, 128356, Pitch_bend_c, 3, 10688
10, 128364, Pitch_bend_c, 3, 10752
10, 128368, Pitch_bend_c, 3, 10752
10, 128376, Pitch_bend_c, 3, 10688
10, 128384, Pitch_bend_c, 3, 10752
10, 128448, Note_on_c, 3, 69, 80
10, 128448, Pitch_bend_c, 3, 8192
10, 128452, Pitch_bend_c, 3, 8192
10, 128500, Note_on_c, 3, 69, 0
10, 128640, Note_on_c, 3, 71, 97
10, 128700, Note_on_c, 3, 71, 0
10, 128832, Note_on_c, 3, 69, 93
10, 129072, Note_on_c, 3, 69, 0
10, 129216, Note_on_c, 3, 61, 90
10, 129216, Control_c, 3, 91, 50
10, 129216, Control_c, 3, 7, 90
10, 129312, Note_on_c, 3, 64, 80
10, 129328, Note_on_c, 3, 61, 0
10, 129408, Note_on_c, 3, 66, 71
10, 129420, Note_on_c, 3, 64, 0
10, 129496, Note_on_c, 3, 66, 0
10, 129600, Note_on_c, 3, 61, 90
10, 129656, Note_on_c, 3, 61, 0
10, 129792, Note_on_c, 3, 64, 97
10, 129872, Note_on_c, 3, 64, 0
10, 129984, Note_on_c, 3, 61, 90
10, 130052, Note_on_c, 3, 61, 0
10, 130080, Note_on_c, 3, 66, 93
10, 130096, Channel_aftertouch_c, 3, 41
10, 130108, Channel_aftertouch_c, 3, 0
10, 130164, Note_on_c, 3, 66, 0
10, 130272, Note_on_c, 3, 61, 90
10, 130324, Note_on_c, 3, 61, 0
10, 130368, Note_on_c, 3, 64, 97
10, 130588, Note_on_c, 3, 64, 0
10, 130752, Note_on_c, 3, 61, 82
10, 130848, Note_on_c, 3, 64, 86
10, 130884, Note_on_c, 3, 61, 0
10, 130944, Note_on_c, 3, 66, 80
10, 130952, Note_on_c, 3, 64, 0
10, 131072, Note_on_c, 3, 66, 0
10, 131136, Note_on_c, 3, 61, 86
10, 131204, Note_on_c, 3, 61, 0
10, 131328, Note_on_c, 3, 69, 93
10, 131424, Note_on_c, 3, 69, 0
10, 131520, Note_on_c, 3, 64, 82
10, 131588, Note_on_c, 3, 64, 0
10, 131712, Note_on_c, 3, 66, 93
10, 131800, Note_on_c, 3, 66, 0
10, 131904, Note_on_c, 3, 64, 93
10, 132128, Note_on_c, 3, 64, 0
10, 132288, Note_on_c, 3, 61, 82
10, 132384, Note_on_c, 3, 64, 90
10, 132400, Note_on_c, 3, 61, 0
10, 132480, Note_on_c, 3, 66, 80
10, 132500, Note_on_c, 3, 64, 0
10, 132592, Note_on_c, 3, 66, 0
10, 132672, Note_on_c, 3, 61, 90
10, 132740, Note_on_c, 3, 61, 0
10, 132864, Note_on_c, 3, 64, 97
10, 132972, Note_on_c, 3, 64, 0
10, 133056, Note_on_c, 3, 61, 93
10, 133116, Note_on_c, 3, 61, 0
10, 133152, Note_on_c, 3, 66, 90
10, 133244, Note_on_c, 3, 66, 0
10, 133344, Note_on_c, 3, 61, 90
10, 133412, Note_on_c, 3, 61, 0
10, 133440, Note_on_c, 3, 64, 97
10, 133664, Note_on_c, 3, 64, 0
10, 133824, Note_on_c, 3, 61, 86
10, 133920, Note_on_c, 3, 64, 90
10, 133936, Note_on_c, 3, 61, 0
10, 134016, Note_on_c, 3, 66, 82
10, 134044, Note_on_c, 3, 64, 0
10, 134160, Note_on_c, 3, 66, 0
10, 134208, Note_on_c, 3, 61, 97
10, 134264, Note_on_c, 3, 61, 0
10, 134400, Note_on_c, 3, 71, 97
10, 134400, Pitch_bend_c, 3, 8192
10, 134404, Pitch_bend_c, 3, 8192
10, 134412, Pitch_bend_c, 3, 8256
10, 134416, Pitch_bend_c, 3, 8320
10, 134424, Pitch_bend_c, 3, 8320
10, 134432, Pitch_bend_c, 3, 8448
10, 134436, Pitch_bend_c, 3, 8512
10, 134444, Pitch_bend_c, 3, 8640
10, 134448, Pitch_bend_c, 3, 8768
10, 134456, Pitch_bend_c, 3, 8768
10, 134464, Pitch_bend_c, 3, 8960
10, 134468, Pitch_bend_c, 3, 9024
10, 134476, Pitch_bend_c, 3, 9152
10, 134480, Pitch_bend_c, 3, 10752
10, 134488, Pitch_bend_c, 3, 10752
10, 134496, Pitch_bend_c, 3, 10752
10, 134500, Note_on_c, 3, 71, 0
10, 134500, Pitch_bend_c, 3, 10688
10, 134508, Pitch_bend_c, 3, 10752
10, 134512, Pitch_bend_c, 3, 10752
10, 134520, Pitch_bend_c, 3, 10688
10, 134528, Pitch_bend_c, 3, 10752
10, 134592, Note_on_c, 3, 69, 80
10, 134592, Pitch_bend_c, 3, 8192
10, 134596, Pitch_bend_c, 3, 8192
10, 134644, Note_on_c, 3, 69, 0
10, 134784, Note_on_c, 3, 71, 97
10, 134844, Note_on_c, 3, 71, 0
10, 134976, Note_on_c, 3, 69, 93
10, 135168, Note_on_c, 3, 69, 0
10, 135168, Note_on_c, 3, 64, 104
10, 135220, Note_on_c, 3, 64, 0
10, 135264, Note_on_c, 3, 64, 79
10, 135320, Note_on_c, 3, 64, 0
10, 135360, Note_on_c, 3, 64, 82
10, 135420, Note_on_c, 3, 64, 0
10, 135456, Note_on_c, 3, 64, 76
10, 135516, Note_on_c, 3, 64, 0
10, 135552, Note_on_c, 3, 64, 108
10, 135628, Note_on_c, 3, 64, 0
10, 135648, Note_on_c, 3, 64, 57
10, 135720, Note_on_c, 3, 64, 0
10, 135744, Note_on_c, 3, 64, 92
10, 135936, Note_on_c, 3, 64, 0
10, 135936, Note_on_c, 3, 64, 104
10, 135936, Channel_aftertouch_c, 3, 16
10, 135952, Channel_aftertouch_c, 3, 0
10, 136008, Note_on_c, 3, 64, 0
10, 136032, Note_on_c, 3, 64, 57
10, 136096, Note_on_c, 3, 64, 0
10, 136128, Note_on_c, 3, 64, 92
10, 136180, Note_on_c, 3, 64, 0
10, 136224, Note_on_c, 3, 64, 76
10, 136280, Note_on_c, 3, 64, 0
10, 136320, Note_on_c, 3, 64, 104
10, 136392, Note_on_c, 3, 64, 0
10, 136416, Note_on_c, 3, 64, 85
10, 136476, Note_on_c, 3, 64, 0
10, 136512, Note_on_c, 3, 64, 85
10, 136556, Note_on_c, 3, 64, 0
10, 136608, Note_on_c, 3, 64, 70
10, 136676, Note_on_c, 3, 64, 0
10, 136704, Note_on_c, 3, 64, 108
10, 136768, Note_on_c, 3, 64, 0
10, 136800, Note_on_c, 3, 64, 70
10, 136864, Note_on_c, 3, 64, 0
10, 136896, Note_on_c, 3, 64, 96
10, 136948, Note_on_c, 3, 64, 0
10, 136992, Note_on_c, 3, 64, 76
10, 137056, Note_on_c, 3, 64, 0
10, 137088, Note_on_c, 3, 64, 108
10, 137156, Note_on_c, 3, 64, 0
10, 137184, Note_on_c, 3, 64, 79
10, 137240, Note_on_c, 3, 64, 0
10, 137280, Note_on_c, 3, 64, 89
10, 137328, Note_on_c, 3, 64, 0
10, 137376, Note_on_c, 3, 64, 73
10, 137436, Note_on_c, 3, 64, 0
10, 137472, Note_on_c, 3, 64, 108
10, 137536, Note_on_c, 3, 64, 0
10, 137568, Note_on_c, 3, 64, 73
10, 137632, Note_on_c, 3, 64, 0
10, 137664, Note_on_c, 3, 64, 85
10, 137724, Note_on_c, 3, 64, 0
10, 137760, Note_on_c, 3, 64, 64
10, 137840, Note_on_c, 3, 64, 0
10, 137856, Note_on_c, 3, 64, 104
10, 137936, Note_on_c, 3, 64, 0
10, 137952, Note_on_c, 3, 64, 79
10, 138016, Note_on_c, 3, 64, 0
10, 138048, Note_on_c, 3, 64, 82
10, 138100, Note_on_c, 3, 64, 0
10, 138144, Note_on_c, 3, 64, 82
10, 138220, Note_on_c, 3, 64, 0
10, 138240, Note_on_c, 3, 64, 113
10, 138248, Channel_aftertouch_c, 3, 7
10, 138260, Channel_aftertouch_c, 3, 0
10, 138328, Note_on_c, 3, 64, 0
10, 138336, Note_on_c, 3, 64, 70
10, 138392, Note_on_c, 3, 64, 0
10, 138432, Note_on_c, 3, 64, 70
10, 138460, Note_on_c, 3, 64, 0
10, 138528, Note_on_c, 3, 64, 79
10, 138584, Note_on_c, 3, 64, 0
10, 138616, Channel_aftertouch_c, 3, 74
10, 138624, Note_on_c, 3, 64, 117
10, 138628, Channel_aftertouch_c, 3, 0
10, 138712, Note_on_c, 3, 64, 0
10, 138720, Note_on_c, 3, 64, 67
10, 138780, Note_on_c, 3, 64, 0
10, 138816, Note_on_c, 3, 64, 79
10, 138864, Note_on_c, 3, 64, 0
10, 138912, Note_on_c, 3, 64, 79
10, 138984, Note_on_c, 3, 64, 0
10, 139008, Note_on_c, 3, 64, 113
10, 139084, Note_on_c, 3, 64, 0
10, 139104, Note_on_c, 3, 64, 64
10, 139168, Note_on_c, 3, 64, 0
10, 139200, Note_on_c, 3, 64, 96
10, 139252, Note_on_c, 3, 64, 0
10, 139296, Note_on_c, 3, 64, 67
10, 139356, Note_on_c, 3, 64, 0
10, 139392, Note_on_c, 3, 64, 108
10, 139408, Channel_aftertouch_c, 3, 4
10, 139424, Channel_aftertouch_c, 3, 0
10, 139468, Note_on_c, 3, 64, 0
10, 139488, Note_on_c, 3, 64, 70
10, 139544, Note_on_c, 3, 64, 0
10, 139584, Note_on_c, 3, 64, 104
10, 139640, Note_on_c, 3, 64, 0
10, 139680, Note_on_c, 3, 64, 100
10, 139744, Note_on_c, 3, 64, 0
10, 139776, Note_on_c, 3, 64, 127
10, 139780, Channel_aftertouch_c, 3, 91
10, 139792, Channel_aftertouch_c, 3, 64
10, 139804, Channel_aftertouch_c, 3, 22
10, 139816, Channel_aftertouch_c, 3, 0
10, 139932, Note_on_c, 3, 64, 0
10, 139968, Note_on_c, 3, 64, 89
10, 140020, Note_on_c, 3, 64, 0
10, 140064, Note_on_c, 3, 64, 82
10, 140120, Note_on_c, 3, 64, 0
10, 140160, Note_on_c, 3, 64, 113
10, 140320, Note_on_c, 3, 64, 0
10, 140352, Note_on_c, 3, 64, 85
10, 140404, Note_on_c, 3, 64, 0
10, 140448, Note_on_c, 3, 64, 85
10, 140520, Note_on_c, 3, 64, 0
10, 140544, Note_on_c, 3, 64, 108
10, 140608, Note_on_c, 3, 64, 0
10, 140640, Note_on_c, 3, 64, 92
10, 140700, Note_on_c, 3, 64, 0
10, 140736, Note_on_c, 3, 64, 92
10, 140792, Note_on_c, 3, 64, 0
10, 140832, Note_on_c, 3, 64, 89
10, 140900, Note_on_c, 3, 64, 0
10, 140928, Note_on_c, 3, 64, 108
10, 141016, Note_on_c, 3, 64, 0
10, 141024, Note_on_c, 3, 64, 79
10, 141088, Note_on_c, 3, 64, 0
10, 141120, Note_on_c, 3, 64, 73
10, 141160, Note_on_c, 3, 64, 0
10, 141216, Note_on_c, 3, 64, 96
10, 141280, Note_on_c, 3, 64, 0
10, 141300, Channel_aftertouch_c, 3, 72
10, 141312, Note_on_c, 3, 64, 108
10, 141312, Channel_aftertouch_c, 3, 0
10, 141400, Note_on_c, 3, 64, 0
10, 141408, Note_on_c, 3, 64, 92
10, 141468, Note_on_c, 3, 64, 0
10, 141504, Note_on_c, 3, 64, 92
10, 141552, Note_on_c, 3, 64, 0
10, 141600, Note_on_c, 3, 64, 89
10, 141664, Note_on_c, 3, 64, 0
10, 141696, Note_on_c, 3, 64, 108
10, 141772, Note_on_c, 3, 64, 0
10, 141792, Note_on_c, 3, 64, 89
10, 141848, Note_on_c, 3, 64, 0
10, 141888, Note_on_c, 3, 64, 92
10, 141940, Note_on_c, 3, 64, 0
10, 141984, Note_on_c, 3, 64, 85
10, 142044, Note_on_c, 3, 64, 0
10, 142080, Note_on_c, 3, 64, 117
10, 142096, Channel_aftertouch_c, 3, 12
10, 142108, Channel_aftertouch_c, 3, 0
10, 142160, Note_on_c, 3, 64, 0
10, 142176, Note_on_c, 3, 64, 67
10, 142236, Note_on_c, 3, 64, 0
10, 142272, Note_on_c, 3, 64, 96
10, 142316, Note_on_c, 3, 64, 0
10, 142368, Note_on_c, 3, 64, 85
10, 142424, Note_on_c, 3, 64, 0
10, 142464, Note_on_c, 3, 64, 117
10, 142532, Note_on_c, 3, 64, 0
10, 142560, Note_on_c, 3, 64, 92
10, 142624, Note_on_c, 3, 64, 0
10, 142656, Note_on_c, 3, 64, 100
10, 142708, Note_on_c, 3, 64, 0
10, 142752, Note_on_c, 3, 64, 89
10, 142828, Note_on_c, 3, 64, 0
10, 142848, Note_on_c, 3, 64, 113
10, 142856, Channel_aftertouch_c, 3, 36
10, 142864, Channel_aftertouch_c, 3, 0
10, 142928, Note_on_c, 3, 64, 0
10, 142944, Note_on_c, 3, 64, 79
10, 143004, Note_on_c, 3, 64, 0
10, 143040, Note_on_c, 3, 64, 92
10, 143040, Channel_aftertouch_c, 3, 35
10, 143052, Channel_aftertouch_c, 3, 0
10, 143104, Note_on_c, 3, 64, 0
10, 143136, Note_on_c, 3, 64, 89
10, 143220, Note_on_c, 3, 64, 0
10, 143232, Note_on_c, 3, 64, 117
10, 143244, Channel_aftertouch_c, 3, 23
10, 143256, Channel_aftertouch_c, 3, 0
10, 143312, Note_on_c, 3, 64, 0
10, 143328, Note_on_c, 3, 64, 96
10, 143384, Note_on_c, 3, 64, 0
10, 143424, Note_on_c, 3, 64, 108
10, 143488, Note_on_c, 3, 64, 0
10, 143520, Note_on_c, 3, 64, 96
10, 143584, Note_on_c, 3, 64, 0
10, 143612, Channel_aftertouch_c, 3, 2
10, 143616, Note_on_c, 3, 64, 113
10, 143624, Channel_aftertouch_c, 3, 0
10, 143688, Note_on_c, 3, 64, 0
10, 143712, Note_on_c, 3, 64, 82
10, 143768, Note_on_c, 3, 64, 0
10, 143808, Note_on_c, 3, 64, 96
10, 143868, Note_on_c, 3, 64, 0
10, 143904, Note_on_c, 3, 64, 100
10, 143968, Note_on_c, 3, 64, 0
10, 143984, Channel_aftertouch_c, 3, 20
10, 143992, Channel_aftertouch_c, 3, 0
10, 144000, Note_on_c, 3, 64, 108
10, 144084, Note_on_c, 3, 64, 0
10, 144096, Note_on_c, 3, 64, 100
10, 144160, Note_on_c, 3, 64, 0
10, 144192, Note_on_c, 3, 64, 100
10, 144196, Channel_aftertouch_c, 3, 2
10, 144208, Channel_aftertouch_c, 3, 0
10, 144276, Note_on_c, 3, 64, 0
10, 144288, Note_on_c, 3, 64, 96
10, 144364, Note_on_c, 3, 64, 0
10, 147456, Note_on_c, 3, 64, 104
10, 147508, Note_on_c, 3, 64, 0
10, 147552, Note_on_c, 3, 64, 79
10, 147608, Note_on_c, 3, 64, 0
10, 147648, Note_on_c, 3, 64, 82
10, 147708, Note_on_c, 3, 64, 0
10, 147744, Note_on_c, 3, 64, 76
10, 147804, Note_on_c, 3, 64, 0
10, 147840, Note_on_c, 3, 64, 108
10, 147916, Note_on_c, 3, 64, 0
10, 147936, Note_on_c, 3, 64, 57
10, 148008, Note_on_c, 3, 64, 0
10, 148032, Note_on_c, 3, 64, 92
10, 148224, Note_on_c, 3, 64, 0
10, 148224, Note_on_c, 3, 64, 104
10, 148224, Channel_aftertouch_c, 3, 16
10, 148240, Channel_aftertouch_c, 3, 0
10, 148296, Note_on_c, 3, 64, 0
10, 148320, Note_on_c, 3, 64, 57
10, 148384, Note_on_c, 3, 64, 0
10, 148416, Note_on_c, 3, 64, 92
10, 148468, Note_on_c, 3, 64, 0
10, 148512, Note_on_c, 3, 64, 76
10, 148568, Note_on_c, 3, 64, 0
10, 148608, Note_on_c, 3, 64, 104
10, 148680, Note_on_c, 3, 64, 0
10, 148704, Note_on_c, 3, 64, 85
10, 148764, Note_on_c, 3, 64, 0
10, 148800, Note_on_c, 3, 64, 85
10, 148844, Note_on_c, 3, 64, 0
10, 148896, Note_on_c, 3, 64, 70
10, 148964, Note_on_c, 3, 64, 0
10, 148992, Note_on_c, 3, 64, 108
10, 149056, Note_on_c, 3, 64, 0
10, 149088, Note_on_c, 3, 64, 70
10, 149152, Note_on_c, 3, 64, 0
10, 149184, Note_on_c, 3, 64, 96
10, 149236, Note_on_c, 3, 64, 0
10, 149280, Note_on_c, 3, 64, 76
10, 149344, Note_on_c, 3, 64, 0
10, 149376, Note_on_c, 3, 64, 108
10, 149444, Note_on_c, 3, 64, 0
10, 149472, Note_on_c, 3, 64, 79
10, 149528, Note_on_c, 3, 64, 0
10, 149568, Note_on_c, 3, 64, 89
10, 149616, Note_on_c, 3, 64, 0
10, 149664, Note_on_c, 3, 64, 73
10, 149724, Note_on_c, 3, 64, 0
10, 149760, Note_on_c, 3, 64, 108
10, 149824, Note_on_c, 3, 64, 0
10, 149856, Note_on_c, 3, 64, 73
10, 149920, Note_on_c, 3, 64, 0
10, 149952, Note_on_c, 3, 64, 85
10, 150012, Note_on_c, 3, 64, 0
10, 150048, Note_on_c, 3, 64, 64
10, 150128, Note_on_c, 3, 64, 0
10, 150144, Note_on_c, 3, 64, 104
10, 150224, Note_on_c, 3, 64, 0
10, 150240, Note_on_c, 3, 64, 79
10, 150304, Note_on_c, 3, 64, 0
10, 150336, Note_on_c, 3, 64, 82
10, 150388, Note_on_c, 3, 64, 0
10, 150432, Note_on_c, 3, 64, 82
10, 150508, Note_on_c, 3, 64, 0
10, 150528, Note_on_c, 3, 64, 113
10, 150536, Channel_aftertouch_c, 3, 7
10, 150548, Channel_aftertouch_c, 3, 0
10, 150616, Note_on_c, 3, 64, 0
10, 150624, Note_on_c, 3, 64, 70
10, 150680, Note_on_c, 3, 64, 0
10, 150720, Note_on_c, 3, 64, 70
10, 150748, Note_on_c, 3, 64, 0
10, 150816, Note_on_c, 3, 64, 79
10, 150872, Note_on_c, 3, 64, 0
10, 150904, Channel_aftertouch_c, 3, 74
10, 150912, Note_on_c, 3, 64, 117
10, 150916, Channel_aftertouch_c, 3, 0
10, 151000, Note_on_c, 3, 64, 0
10, 151008, Note_on_c, 3, 64, 67
10, 151068, Note_on_c, 3, 64, 0
10, 151104, Note_on_c, 3, 64, 79
10, 151152, Note_on_c, 3, 64, 0
10, 151200, Note_on_c, 3, 64, 79
10, 151272, Note_on_c, 3, 64, 0
10, 151296, Note_on_c, 3, 64, 113
10, 151372, Note_on_c, 3, 64, 0
10, 151392, Note_on_c, 3, 64, 64
10, 151456, Note_on_c, 3, 64, 0
10, 151488, Note_on_c, 3, 64, 96
10, 151540, Note_on_c, 3, 64, 0
10, 151584, Note_on_c, 3, 64, 67
10, 151644, Note_on_c, 3, 64, 0
10, 151680, Note_on_c, 3, 64, 108
10, 151696, Channel_aftertouch_c, 3, 4
10, 151712, Channel_aftertouch_c, 3, 0
10, 151756, Note_on_c, 3, 64, 0
10, 151776, Note_on_c, 3, 64, 70
10, 151832, Note_on_c, 3, 64, 0
10, 151872, Note_on_c, 3, 64, 104
10, 151928, Note_on_c, 3, 64, 0
10, 151968, Note_on_c, 3, 64, 100
10, 152032, Note_on_c, 3, 64, 0
10, 152064, Note_on_c, 3, 64, 127
10, 152068, Channel_aftertouch_c, 3, 91
10, 152080, Channel_aftertouch_c, 3, 64
10, 152092, Channel_aftertouch_c, 3, 22
10, 152104, Channel_aftertouch_c, 3, 0
10, 152220, Note_on_c, 3, 64, 0
10, 152256, Note_on_c, 3, 64, 89
10, 152308, Note_on_c, 3, 64, 0
10, 152352, Note_on_c, 3, 64, 82
10, 152408, Note_on_c, 3, 64, 0
10, 152448, Note_on_c, 3, 64, 113
10, 152608, Note_on_c, 3, 64, 0
10, 152640, Note_on_c, 3, 64, 85
10, 152692, Note_on_c, 3, 64, 0
10, 152736, Note_on_c, 3, 64, 85
10, 152808, Note_on_c, 3, 64, 0
10, 152832, Note_on_c, 3, 64, 108
10, 152896, Note_on_c, 3, 64, 0
10, 152928, Note_on_c, 3, 64, 92
10, 152988, Note_on_c, 3, 64, 0
10, 153024, Note_on_c, 3, 64, 92
10, 153080, Note_on_c, 3, 64, 0
10, 153120, Note_on_c, 3, 64, 89
10, 153188, Note_on_c, 3, 64, 0
10, 153216, Note_on_c, 3, 64, 108
10, 153304, Note_on_c, 3, 64, 0
10, 153312, Note_on_c, 3, 64, 79
10, 153376, Note_on_c, 3, 64, 0
10, 153408, Note_on_c, 3, 64, 73
10, 153448, Note_on_c, 3, 64, 0
10, 153504, Note_on_c, 3, 64, 96
10, 153568, Note_on_c, 3, 64, 0
10, 153588, Channel_aftertouch_c, 3, 72
10, 153600, Note_on_c, 3, 64, 108
10, 153600, Channel_aftertouch_c, 3, 0
10, 153688, Note_on_c, 3, 64, 0
10, 153696, Note_on_c, 3, 64, 92
10, 153756, Note_on_c, 3, 64, 0
10, 153792, Note_on_c, 3, 64, 92
10, 153840, Note_on_c, 3, 64, 0
10, 153888, Note_on_c, 3, 64, 89
10, 153952, Note_on_c, 3, 64, 0
10, 153984, Note_on_c, 3, 64, 108
10, 154060, Note_on_c, 3, 64, 0
10, 154080, Note_on_c, 3, 64, 89
10, 154136, Note_on_c, 3, 64, 0
10, 154176, Note_on_c, 3, 64, 92
10, 154228, Note_on_c, 3, 64, 0
10, 154272, Note_on_c, 3, 64, 85
10, 154332, Note_on_c, 3, 64, 0
10, 154368, Note_on_c, 3, 64, 117
10, 154384, Channel_aftertouch_c, 3, 12
10, 154396, Channel_aftertouch_c, 3, 0
10, 154448, Note_on_c, 3, 64, 0
10, 154464, Note_on_c, 3, 64, 67
10, 154524, Note_on_c, 3, 64, 0
10, 154560, Note_on_c, 3, 64, 96
10, 154604, Note_on_c, 3, 64, 0
10, 154656, Note_on_c, 3, 64, 85
10, 154712, Note_on_c, 3, 64, 0
10, 154752, Note_on_c, 3, 64, 117
10, 154820, Note_on_c, 3, 64, 0
10, 154848, Note_on_c, 3, 64, 92
10, 154912, Note_on_c, 3, 64, 0
10, 154944, Note_on_c, 3, 64, 100
10, 154996, Note_on_c, 3, 64, 0
10, 155040, Note_on_c, 3, 64, 89
10, 155116, Note_on_c, 3, 64, 0
10, 155136, Note_on_c, 3, 64, 113
10, 155144, Channel_aftertouch_c, 3, 36
10, 155152, Channel_aftertouch_c, 3, 0
10, 155216, Note_on_c, 3, 64, 0
10, 155232, Note_on_c, 3, 64, 79
10, 155292, Note_on_c, 3, 64, 0
10, 155328, Note_on_c, 3, 64, 92
10, 155328, Channel_aftertouch_c, 3, 35
10, 155340, Channel_aftertouch_c, 3, 0
10, 155392, Note_on_c, 3, 64, 0
10, 155424, Note_on_c, 3, 64, 89
10, 155508, Note_on_c, 3, 64, 0
10, 155520, Note_on_c, 3, 64, 117
10, 155532, Channel_aftertouch_c, 3, 23
10, 155544, Channel_aftertouch_c, 3, 0
10, 155600, Note_on_c, 3, 64, 0
10, 155616, Note_on_c, 3, 64, 96
10, 155672, Note_on_c, 3, 64, 0
10, 155712, Note_on_c, 3, 64, 108
10, 155776, Note_on_c, 3, 64, 0
10, 155808, Note_on_c, 3, 64, 96
10, 155872, Note_on_c, 3, 64, 0
10, 155900, Channel_aftertouch_c, 3, 2
10, 155904, Note_on_c, 3, 64, 113
10, 155912, Channel_aftertouch_c, 3, 0
10, 155976, Note_on_c, 3, 64, 0
10, 156000, Note_on_c, 3, 64, 82
10, 156056, Note_on_c, 3, 64, 0
10, 156096, Note_on_c, 3, 64, 96
10, 156156, Note_on_c, 3, 64, 0
10, 156192, Note_on_c, 3, 64, 100
10, 156256, Note_on_c, 3, 64, 0
10, 156272, Channel_aftertouch_c, 3, 20
10, 156280, Channel_aftertouch_c, 3, 0
10, 156288, Note_on_c, 3, 64, 108
10, 156372, Note_on_c, 3, 64, 0
10, 156384, Note_on_c, 3, 64, 100
10, 156448, Note_on_c, 3, 64, 0
10, 156480, Note_on_c, 3, 64, 100
10, 156484, Channel_aftertouch_c, 3, 2
10, 156496, Channel_aftertouch_c, 3, 0
10, 156564, Note_on_c, 3, 64, 0
10, 156576, Note_on_c, 3, 64, 96
10, 156652, Note_on_c, 3, 64, 0
10, 156652, End_track
11, 0, Start_track
11, 0, MIDI_port, 0
11, 0, Title_t, "Organ"
11, 0, Program_c, 2, 18
11, 0, Control_c, 2, 7, 100
11, 0, Control_c, 2, 91, 40
11, 0, Control_c, 2, 93, 0
11, 24576, Note_on_c, 2, 83, 108
11, 24576, Note_on_c, 2, 86, 108
11, 24592, Channel_aftertouch_c, 2, 27
11, 24604, Channel_aftertouch_c, 2, 36
11, 24616, Channel_aftertouch_c, 2, 34
11, 24624, Channel_aftertouch_c, 2, 28
11, 24636, Channel_aftertouch_c, 2, 27
11, 24648, Channel_aftertouch_c, 2, 31
11, 24656, Channel_aftertouch_c, 2, 34
11, 24668, Channel_aftertouch_c, 2, 35
11, 24676, Channel_aftertouch_c, 2, 36
11, 24696, Channel_aftertouch_c, 2, 30
11, 24708, Channel_aftertouch_c, 2, 26
11, 24720, Channel_aftertouch_c, 2, 23
11, 24728, Channel_aftertouch_c, 2, 17
11, 24740, Channel_aftertouch_c, 2, 6
11, 24748, Channel_aftertouch_c, 2, 0
11, 24764, Note_on_c, 2, 86, 0
11, 24768, Note_on_c, 2, 88, 85
11, 24768, Channel_aftertouch_c, 2, 69
11, 24780, Channel_aftertouch_c, 2, 59
11, 24788, Channel_aftertouch_c, 2, 58
11, 24800, Channel_aftertouch_c, 2, 63
11, 24808, Channel_aftertouch_c, 2, 63
11, 24820, Channel_aftertouch_c, 2, 64
11, 24832, Channel_aftertouch_c, 2, 66
11, 24840, Channel_aftertouch_c, 2, 67
11, 24852, Channel_aftertouch_c, 2, 67
11, 24880, Channel_aftertouch_c, 2, 64
11, 24892, Channel_aftertouch_c, 2, 58
11, 24900, Channel_aftertouch_c, 2, 52
11, 24920, Channel_aftertouch_c, 2, 60
11, 24932, Channel_aftertouch_c, 2, 65
11, 24940, Channel_aftertouch_c, 2, 66
11, 24952, Channel_aftertouch_c, 2, 58
11, 24960, Note_on_c, 2, 86, 104
11, 24964, Channel_aftertouch_c, 2, 66
11, 24972, Channel_aftertouch_c, 2, 4
11, 24984, Channel_aftertouch_c, 2, 0
11, 24992, Note_on_c, 2, 83, 0
11, 24996, Note_on_c, 2, 88, 0
11, 25024, Note_on_c, 2, 86, 0
11, 25152, Note_on_c, 2, 84, 89
11, 25152, Note_on_c, 2, 81, 79
11, 25180, Note_on_c, 2, 81, 0
11, 25196, Note_on_c, 2, 84, 0
11, 25344, Note_on_c, 2, 74, 85
11, 25344, Note_on_c, 2, 83, 100
11, 25344, Note_on_c, 2, 79, 89
11, 25344, Note_on_c, 2, 81, 100
11, 25352, Channel_aftertouch_c, 2, 72
11, 25360, Channel_aftertouch_c, 2, 82
11, 25372, Channel_aftertouch_c, 2, 76
11, 25384, Channel_aftertouch_c, 2, 67
11, 25396, Channel_aftertouch_c, 2, 74
11, 25408, Channel_aftertouch_c, 2, 83
11, 25416, Channel_aftertouch_c, 2, 86
11, 25424, Channel_aftertouch_c, 2, 88
11, 25436, Channel_aftertouch_c, 2, 89
11, 25472, Note_on_c, 2, 81, 0
11, 25476, Channel_aftertouch_c, 2, 87
11, 25484, Channel_aftertouch_c, 2, 80
11, 25496, Channel_aftertouch_c, 2, 70
11, 25508, Channel_aftertouch_c, 2, 65
11, 25516, Channel_aftertouch_c, 2, 73
11, 25528, Channel_aftertouch_c, 2, 78
11, 25536, Channel_aftertouch_c, 2, 82
11, 25548, Channel_aftertouch_c, 2, 83
11, 25560, Channel_aftertouch_c, 2, 83
11, 25568, Channel_aftertouch_c, 2, 84
11, 25580, Channel_aftertouch_c, 2, 86
11, 25588, Channel_aftertouch_c, 2, 88
11, 25600, Channel_aftertouch_c, 2, 88
11, 25608, Channel_aftertouch_c, 2, 86
11, 25620, Channel_aftertouch_c, 2, 78
11, 25632, Channel_aftertouch_c, 2, 31
11, 25640, Channel_aftertouch_c, 2, 27
11, 25656, Channel_aftertouch_c, 2, 24
11, 25672, Channel_aftertouch_c, 2, 9
11, 25680, Channel_aftertouch_c, 2, 0
11, 25708, Note_on_c, 2, 83, 0
11, 25712, Channel_aftertouch_c, 2, 81
11, 25720, Channel_aftertouch_c, 2, 73
11, 25728, Note_on_c, 2, 79, 0
11, 25728, Note_on_c, 2, 81, 80
11, 25728, Channel_aftertouch_c, 2, 76
11, 25740, Channel_aftertouch_c, 2, 73
11, 25752, Channel_aftertouch_c, 2, 69
11, 25760, Channel_aftertouch_c, 2, 65
11, 25772, Channel_aftertouch_c, 2, 65
11, 25784, Channel_aftertouch_c, 2, 62
11, 25792, Channel_aftertouch_c, 2, 60
11, 25804, Channel_aftertouch_c, 2, 58
11, 25812, Channel_aftertouch_c, 2, 53
11, 25824, Channel_aftertouch_c, 2, 30
11, 25832, Channel_aftertouch_c, 2, 0
11, 25920, Note_on_c, 2, 81, 0
11, 25920, Note_on_c, 2, 79, 80
11, 26104, Channel_aftertouch_c, 2, 54
11, 26112, Note_on_c, 2, 79, 0
11, 26112, Note_on_c, 2, 81, 104
11, 26112, Note_on_c, 2, 79, 76
11, 26116, Channel_aftertouch_c, 2, 65
11, 26128, Channel_aftertouch_c, 2, 62
11, 26132, Note_on_c, 2, 79, 0
11, 26136, Channel_aftertouch_c, 2, 57
11, 26168, Channel_aftertouch_c, 2, 60
11, 26176, Channel_aftertouch_c, 2, 63
11, 26188, Channel_aftertouch_c, 2, 65
11, 26200, Channel_aftertouch_c, 2, 65
11, 26216, Channel_aftertouch_c, 2, 63
11, 26228, Channel_aftertouch_c, 2, 62
11, 26268, Channel_aftertouch_c, 2, 64
11, 26280, Channel_aftertouch_c, 2, 65
11, 26308, Channel_aftertouch_c, 2, 63
11, 26320, Channel_aftertouch_c, 2, 62
11, 26360, Channel_aftertouch_c, 2, 61
11, 26368, Channel_aftertouch_c, 2, 61
11, 26416, Channel_aftertouch_c, 2, 60
11, 26428, Channel_aftertouch_c, 2, 59
11, 26440, Channel_aftertouch_c, 2, 57
11, 26448, Channel_aftertouch_c, 2, 56
11, 26480, Channel_aftertouch_c, 2, 56
11, 26488, Channel_aftertouch_c, 2, 54
11, 26496, Channel_aftertouch_c, 2, 52
11, 26508, Channel_aftertouch_c, 2, 51
11, 26512, Control_c, 2, 1, 2
11, 26520, Control_c, 2, 1, 3
11, 26532, Control_c, 2, 1, 5
11, 26544, Control_c, 2, 1, 6
11, 26548, Channel_aftertouch_c, 2, 49
11, 26552, Control_c, 2, 1, 7
11, 26560, Channel_aftertouch_c, 2, 47
11, 26564, Control_c, 2, 1, 9
11, 26572, Channel_aftertouch_c, 2, 43
11, 26576, Control_c, 2, 1, 10
11, 26584, Channel_aftertouch_c, 2, 37
11, 26588, Control_c, 2, 1, 12
11, 26596, Channel_aftertouch_c, 2, 30
11, 26600, Control_c, 2, 1, 14
11, 26608, Channel_aftertouch_c, 2, 24
11, 26612, Control_c, 2, 1, 16
11, 26620, Channel_aftertouch_c, 2, 15
11, 26624, Control_c, 2, 1, 16
11, 26632, Channel_aftertouch_c, 2, 3
11, 26636, Control_c, 2, 1, 17
11, 26644, Channel_aftertouch_c, 2, 0
11, 26648, Control_c, 2, 1, 19
11, 26656, Control_c, 2, 1, 20
11, 26668, Control_c, 2, 1, 20
11, 26672, Channel_aftertouch_c, 2, 30
11, 26684, Channel_aftertouch_c, 2, 52
11, 26688, Note_on_c, 2, 83, 89
11, 26696, Note_on_c, 2, 81, 0
11, 26696, Channel_aftertouch_c, 2, 60
11, 26704, Channel_aftertouch_c, 2, 64
11, 26708, Control_c, 2, 91, 100
11, 26716, Channel_aftertouch_c, 2, 65
11, 26720, Control_c, 2, 1, 21
11, 26728, Channel_aftertouch_c, 2, 66
11, 26736, Channel_aftertouch_c, 2, 68
11, 26760, Channel_aftertouch_c, 2, 66
11, 26768, Channel_aftertouch_c, 2, 61
11, 26780, Channel_aftertouch_c, 2, 77
11, 26784, Note_on_c, 2, 81, 104
11, 26792, Channel_aftertouch_c, 2, 73
11, 26800, Channel_aftertouch_c, 2, 68
11, 26812, Channel_aftertouch_c, 2, 62
11, 26824, Channel_aftertouch_c, 2, 35
11, 26832, Channel_aftertouch_c, 2, 7
11, 26844, Channel_aftertouch_c, 2, 0
11, 26880, Note_on_c, 2, 79, 108
11, 26880, Channel_aftertouch_c, 2, 25
11, 26892, Channel_aftertouch_c, 2, 52
11, 26900, Note_on_c, 2, 83, 0
11, 26900, Channel_aftertouch_c, 2, 65
11, 26912, Note_on_c, 2, 81, 0
11, 26912, Channel_aftertouch_c, 2, 72
11, 26920, Channel_aftertouch_c, 2, 74
11, 26932, Channel_aftertouch_c, 2, 75
11, 26940, Channel_aftertouch_c, 2, 76
11, 26952, Channel_aftertouch_c, 2, 78
11, 26956, Control_c, 2, 1, 19
11, 26964, Channel_aftertouch_c, 2, 79
11, 26972, Channel_aftertouch_c, 2, 80
11, 26984, Channel_aftertouch_c, 2, 81
11, 27008, Control_c, 2, 1, 18
11, 27016, Channel_aftertouch_c, 2, 82
11, 27024, Channel_aftertouch_c, 2, 83
11, 27028, Control_c, 2, 1, 22
11, 27036, Channel_aftertouch_c, 2, 83
11, 27040, Control_c, 2, 1, 22
11, 27048, Channel_aftertouch_c, 2, 84
11, 27116, Channel_aftertouch_c, 2, 82
11, 27128, Control_c, 2, 1, 19
11, 27136, Channel_aftertouch_c, 2, 81
11, 27140, Control_c, 2, 1, 18
11, 27148, Channel_aftertouch_c, 2, 81
11, 27160, Channel_aftertouch_c, 2, 80
11, 27164, Control_c, 2, 1, 17
11, 27172, Channel_aftertouch_c, 2, 78
11, 27172, Control_c, 2, 1, 16
11, 27184, Channel_aftertouch_c, 2, 76
11, 27184, Control_c, 2, 1, 13
11, 27192, Channel_aftertouch_c, 2, 73
11, 27200, Control_c, 2, 1, 10
11, 27204, Channel_aftertouch_c, 2, 68
11, 27208, Control_c, 2, 1, 8
11, 27216, Channel_aftertouch_c, 2, 63
11, 27220, Control_c, 2, 1, 8
11, 27228, Channel_aftertouch_c, 2, 58
11, 27240, Channel_aftertouch_c, 2, 55
11, 27244, Control_c, 2, 1, 14
11, 27248, Channel_aftertouch_c, 2, 52
11, 27256, Control_c, 2, 1, 21
11, 27264, Control_c, 2, 7, 99
11, 27264, Channel_aftertouch_c, 2, 51
11, 27264, Control_c, 2, 1, 23
11, 27272, Channel_aftertouch_c, 2, 50
11, 27276, Control_c, 2, 1, 25
11, 27280, Control_c, 2, 7, 99
11, 27284, Channel_aftertouch_c, 2, 47
11, 27288, Control_c, 2, 1, 22
11, 27296, Channel_aftertouch_c, 2, 44
11, 27300, Control_c, 2, 7, 99
11, 27300, Control_c, 2, 1, 21
11, 27308, Channel_aftertouch_c, 2, 42
11, 27320, Channel_aftertouch_c, 2, 40
11, 27320, Control_c, 2, 7, 98
11, 27328, Channel_aftertouch_c, 2, 36
11, 27340, Control_c, 2, 7, 97
11, 27340, Channel_aftertouch_c, 2, 30
11, 27348, Channel_aftertouch_c, 2, 27
11, 27360, Control_c, 2, 7, 97
11, 27360, Channel_aftertouch_c, 2, 30
11, 27368, Channel_aftertouch_c, 2, 31
11, 27376, Control_c, 2, 7, 96
11, 27380, Channel_aftertouch_c, 2, 28
11, 27392, Channel_aftertouch_c, 2, 17
11, 27396, Control_c, 2, 7, 96
11, 27400, Channel_aftertouch_c, 2, 10
11, 27416, Control_c, 2, 7, 95
11, 27420, Channel_aftertouch_c, 2, 14
11, 27432, Channel_aftertouch_c, 2, 11
11, 27436, Control_c, 2, 7, 94
11, 27440, Channel_aftertouch_c, 2, 1
11, 27452, Channel_aftertouch_c, 2, 0
11, 27456, Control_c, 2, 7, 94
11, 27472, Control_c, 2, 7, 92
11, 27492, Control_c, 2, 7, 92
11, 27512, Control_c, 2, 7, 91
11, 27532, Control_c, 2, 7, 90
11, 27552, Control_c, 2, 7, 89
11, 27568, Control_c, 2, 7, 88
11, 27588, Control_c, 2, 7, 87
11, 27608, Control_c, 2, 7, 86
11, 27628, Control_c, 2, 7, 85
11, 27648, Control_c, 2, 7, 83
11, 27664, Control_c, 2, 7, 82
11, 27684, Control_c, 2, 7, 80
11, 27704, Control_c, 2, 7, 79
11, 27724, Control_c, 2, 7, 77
11, 27744, Control_c, 2, 7, 75
11, 27760, Control_c, 2, 7, 73
11, 27780, Control_c, 2, 7, 70
11, 27800, Control_c, 2, 7, 69
11, 27820, Control_c, 2, 7, 66
11, 27840, Control_c, 2, 7, 64
11, 27856, Control_c, 2, 7, 60
11, 27876, Control_c, 2, 7, 57
11, 27896, Control_c, 2, 7, 57
11, 27916, Control_c, 2, 7, 49
11, 27936, Control_c, 2, 7, 48
11, 27952, Control_c, 2, 7, 42
11, 27972, Control_c, 2, 7, 41
11, 28012, Note_on_c, 2, 74, 0
11, 28012, Note_on_c, 2, 79, 0
11, 29184, Control_c, 2, 7, 100
11, 39952, Control_c, 2, 7, 95
11, 39952, Note_on_c, 2, 83, 100
11, 39952, Note_on_c, 2, 88, 92
11, 39968, Channel_aftertouch_c, 2, 70
11, 39980, Channel_aftertouch_c, 2, 78
11, 39992, Channel_aftertouch_c, 2, 74
11, 40004, Channel_aftertouch_c, 2, 67
11, 40016, Channel_aftertouch_c, 2, 65
11, 40040, Channel_aftertouch_c, 2, 68
11, 40052, Channel_aftertouch_c, 2, 68
11, 40072, Channel_aftertouch_c, 2, 65
11, 40084, Channel_aftertouch_c, 2, 64
11, 40120, Channel_aftertouch_c, 2, 64
11, 40132, Channel_aftertouch_c, 2, 63
11, 40176, Channel_aftertouch_c, 2, 65
11, 40188, Channel_aftertouch_c, 2, 66
11, 40244, Channel_aftertouch_c, 2, 66
11, 40256, Channel_aftertouch_c, 2, 67
11, 40268, Channel_aftertouch_c, 2, 68
11, 40280, Channel_aftertouch_c, 2, 68
11, 40292, Channel_aftertouch_c, 2, 69
11, 40304, Channel_aftertouch_c, 2, 69
11, 40316, Channel_aftertouch_c, 2, 70
11, 40328, Channel_aftertouch_c, 2, 70
11, 40384, Channel_aftertouch_c, 2, 68
11, 40440, Channel_aftertouch_c, 2, 67
11, 40544, Channel_aftertouch_c, 2, 69
11, 40788, Channel_aftertouch_c, 2, 67
11, 40800, Channel_aftertouch_c, 2, 67
11, 40812, Channel_aftertouch_c, 2, 66
11, 41024, Channel_aftertouch_c, 2, 66
11, 41048, Channel_aftertouch_c, 2, 64
11, 41056, Channel_aftertouch_c, 2, 63
11, 41072, Channel_aftertouch_c, 2, 62
11, 41104, Channel_aftertouch_c, 2, 65
11, 41116, Channel_aftertouch_c, 2, 65
11, 41228, Channel_aftertouch_c, 2, 63
11, 41240, Channel_aftertouch_c, 2, 61
11, 41252, Channel_aftertouch_c, 2, 56
11, 41264, Channel_aftertouch_c, 2, 53
11, 41276, Channel_aftertouch_c, 2, 52
11, 41288, Channel_aftertouch_c, 2, 51
11, 41300, Channel_aftertouch_c, 2, 49
11, 41312, Channel_aftertouch_c, 2, 47
11, 41324, Channel_aftertouch_c, 2, 43
11, 41336, Channel_aftertouch_c, 2, 40
11, 41348, Channel_aftertouch_c, 2, 38
11, 41360, Channel_aftertouch_c, 2, 37
11, 41372, Channel_aftertouch_c, 2, 37
11, 41384, Channel_aftertouch_c, 2, 35
11, 41408, Channel_aftertouch_c, 2, 37
11, 41420, Channel_aftertouch_c, 2, 41
11, 41432, Channel_aftertouch_c, 2, 42
11, 41464, Channel_aftertouch_c, 2, 39
11, 41476, Channel_aftertouch_c, 2, 36
11, 41488, Channel_aftertouch_c, 2, 34
11, 41500, Channel_aftertouch_c, 2, 36
11, 41512, Channel_aftertouch_c, 2, 38
11, 41524, Channel_aftertouch_c, 2, 39
11, 41560, Channel_aftertouch_c, 2, 35
11, 41568, Channel_aftertouch_c, 2, 32
11, 41584, Channel_aftertouch_c, 2, 31
11, 41604, Channel_aftertouch_c, 2, 30
11, 41616, Channel_aftertouch_c, 2, 28
11, 41628, Channel_aftertouch_c, 2, 28
11, 41652, Channel_aftertouch_c, 2, 30
11, 41664, Channel_aftertouch_c, 2, 31
11, 41676, Channel_aftertouch_c, 2, 33
11, 41688, Channel_aftertouch_c, 2, 34
11, 41700, Channel_aftertouch_c, 2, 34
11, 41720, Channel_aftertouch_c, 2, 32
11, 41792, Channel_aftertouch_c, 2, 31
11, 41816, Channel_aftertouch_c, 2, 34
11, 41824, Channel_aftertouch_c, 2, 35
11, 41872, Channel_aftertouch_c, 2, 37
11, 41884, Channel_aftertouch_c, 2, 40
11, 41892, Channel_aftertouch_c, 2, 43
11, 41908, Channel_aftertouch_c, 2, 44
11, 41916, Channel_aftertouch_c, 2, 44
11, 41940, Channel_aftertouch_c, 2, 45
11, 41952, Channel_aftertouch_c, 2, 45
11, 41968, Channel_aftertouch_c, 2, 46
11, 41976, Channel_aftertouch_c, 2, 47
11, 42024, Channel_aftertouch_c, 2, 48
11, 42032, Channel_aftertouch_c, 2, 50
11, 42048, Channel_aftertouch_c, 2, 51
11, 42092, Channel_aftertouch_c, 2, 48
11, 42104, Channel_aftertouch_c, 2, 47
11, 42112, Channel_aftertouch_c, 2, 46
11, 42148, Channel_aftertouch_c, 2, 46
11, 42160, Channel_aftertouch_c, 2, 45
11, 42184, Channel_aftertouch_c, 2, 44
11, 42196, Channel_aftertouch_c, 2, 43
11, 42232, Channel_aftertouch_c, 2, 45
11, 42244, Channel_aftertouch_c, 2, 47
11, 42256, Channel_aftertouch_c, 2, 48
11, 42264, Channel_aftertouch_c, 2, 49
11, 42280, Channel_aftertouch_c, 2, 49
11, 42288, Channel_aftertouch_c, 2, 50
11, 42304, Channel_aftertouch_c, 2, 51
11, 42312, Channel_aftertouch_c, 2, 52
11, 42324, Channel_aftertouch_c, 2, 53
11, 42336, Channel_aftertouch_c, 2, 54
11, 42348, Channel_aftertouch_c, 2, 54
11, 42360, Channel_aftertouch_c, 2, 55
11, 42408, Channel_aftertouch_c, 2, 55
11, 42416, Channel_aftertouch_c, 2, 56
11, 42464, Channel_aftertouch_c, 2, 57
11, 42596, Channel_aftertouch_c, 2, 55
11, 42612, Channel_aftertouch_c, 2, 54
11, 42624, Channel_aftertouch_c, 2, 52
11, 42632, Channel_aftertouch_c, 2, 49
11, 42648, Channel_aftertouch_c, 2, 47
11, 42656, Channel_aftertouch_c, 2, 44
11, 42672, Channel_aftertouch_c, 2, 40
11, 42680, Channel_aftertouch_c, 2, 31
11, 42696, Channel_aftertouch_c, 2, 0
11, 42780, Note_on_c, 2, 88, 0
11, 42784, Note_on_c, 2, 83, 0
11, 42996, Note_on_c, 2, 85, 104
11, 43000, Note_on_c, 2, 81, 96
11, 43016, Channel_aftertouch_c, 2, 16
11, 43032, Channel_aftertouch_c, 2, 19
11, 43064, Channel_aftertouch_c, 2, 20
11, 43080, Channel_aftertouch_c, 2, 23
11, 43088, Channel_aftertouch_c, 2, 23
11, 43124, Channel_aftertouch_c, 2, 21
11, 43136, Channel_aftertouch_c, 2, 20
11, 43148, Channel_aftertouch_c, 2, 19
11, 43160, Channel_aftertouch_c, 2, 18
11, 43184, Channel_aftertouch_c, 2, 18
11, 43204, Channel_aftertouch_c, 2, 17
11, 43272, Channel_aftertouch_c, 2, 19
11, 43284, Channel_aftertouch_c, 2, 20
11, 43296, Channel_aftertouch_c, 2, 21
11, 43308, Channel_aftertouch_c, 2, 22
11, 43320, Channel_aftertouch_c, 2, 23
11, 43332, Channel_aftertouch_c, 2, 23
11, 43344, Channel_aftertouch_c, 2, 24
11, 43356, Channel_aftertouch_c, 2, 25
11, 43412, Channel_aftertouch_c, 2, 25
11, 43424, Channel_aftertouch_c, 2, 26
11, 43524, Channel_aftertouch_c, 2, 24
11, 43536, Channel_aftertouch_c, 2, 22
11, 43592, Channel_aftertouch_c, 2, 21
11, 43604, Channel_aftertouch_c, 2, 19
11, 43616, Channel_aftertouch_c, 2, 17
11, 43628, Channel_aftertouch_c, 2, 17
11, 43640, Channel_aftertouch_c, 2, 16
11, 43656, Channel_aftertouch_c, 2, 15
11, 43664, Channel_aftertouch_c, 2, 14
11, 43676, Channel_aftertouch_c, 2, 12
11, 43688, Channel_aftertouch_c, 2, 12
11, 43720, Channel_aftertouch_c, 2, 14
11, 43736, Channel_aftertouch_c, 2, 15
11, 43780, Channel_aftertouch_c, 2, 12
11, 43792, Channel_aftertouch_c, 2, 10
11, 43804, Channel_aftertouch_c, 2, 9
11, 43816, Channel_aftertouch_c, 2, 9
11, 43828, Channel_aftertouch_c, 2, 7
11, 43840, Channel_aftertouch_c, 2, 5
11, 43852, Channel_aftertouch_c, 2, 4
11, 43864, Channel_aftertouch_c, 2, 3
11, 43872, Channel_aftertouch_c, 2, 3
11, 43896, Channel_aftertouch_c, 2, 2
11, 43920, Channel_aftertouch_c, 2, 1
11, 43932, Channel_aftertouch_c, 2, 0
11, 44392, Note_on_c, 2, 81, 0
11, 44392, Note_on_c, 2, 85, 0
11, 44560, Note_on_c, 2, 79, 104
11, 44560, Note_on_c, 2, 84, 113
11, 44568, Channel_aftertouch_c, 2, 21
11, 44580, Channel_aftertouch_c, 2, 48
11, 44592, Channel_aftertouch_c, 2, 52
11, 44604, Channel_aftertouch_c, 2, 48
11, 44616, Channel_aftertouch_c, 2, 47
11, 44624, Channel_aftertouch_c, 2, 50
11, 44640, Channel_aftertouch_c, 2, 53
11, 44652, Channel_aftertouch_c, 2, 55
11, 44664, Channel_aftertouch_c, 2, 57
11, 44696, Channel_aftertouch_c, 2, 55
11, 44708, Channel_aftertouch_c, 2, 54
11, 44756, Channel_aftertouch_c, 2, 54
11, 44768, Channel_aftertouch_c, 2, 52
11, 44776, Channel_aftertouch_c, 2, 50
11, 44792, Channel_aftertouch_c, 2, 49
11, 44800, Channel_aftertouch_c, 2, 49
11, 44836, Channel_aftertouch_c, 2, 46
11, 44848, Channel_aftertouch_c, 2, 44
11, 44860, Channel_aftertouch_c, 2, 44
11, 44972, Channel_aftertouch_c, 2, 43
11, 44984, Channel_aftertouch_c, 2, 42
11, 44996, Channel_aftertouch_c, 2, 40
11, 45008, Channel_aftertouch_c, 2, 39
11, 45032, Channel_aftertouch_c, 2, 38
11, 45076, Channel_aftertouch_c, 2, 40
11, 45088, Channel_aftertouch_c, 2, 42
11, 45100, Channel_aftertouch_c, 2, 43
11, 45156, Channel_aftertouch_c, 2, 40
11, 45168, Channel_aftertouch_c, 2, 39
11, 45192, Channel_aftertouch_c, 2, 43
11, 45200, Channel_aftertouch_c, 2, 45
11, 45240, Channel_aftertouch_c, 2, 43
11, 45260, Channel_aftertouch_c, 2, 45
11, 45272, Channel_aftertouch_c, 2, 47
11, 45284, Channel_aftertouch_c, 2, 49
11, 45296, Channel_aftertouch_c, 2, 49
11, 45320, Channel_aftertouch_c, 2, 47
11, 45332, Channel_aftertouch_c, 2, 46
11, 45344, Channel_aftertouch_c, 2, 45
11, 45400, Channel_aftertouch_c, 2, 47
11, 45468, Channel_aftertouch_c, 2, 48
11, 45524, Channel_aftertouch_c, 2, 49
11, 45536, Channel_aftertouch_c, 2, 51
11, 45560, Channel_aftertouch_c, 2, 49
11, 45572, Channel_aftertouch_c, 2, 46
11, 45580, Channel_aftertouch_c, 2, 46
11, 45604, Channel_aftertouch_c, 2, 50
11, 45616, Channel_aftertouch_c, 2, 51
11, 45628, Channel_aftertouch_c, 2, 51
11, 45772, Channel_aftertouch_c, 2, 48
11, 45784, Channel_aftertouch_c, 2, 44
11, 45800, Channel_aftertouch_c, 2, 39
11, 45808, Channel_aftertouch_c, 2, 34
11, 45820, Channel_aftertouch_c, 2, 27
11, 45832, Channel_aftertouch_c, 2, 21
11, 45856, Channel_aftertouch_c, 2, 25
11, 45868, Channel_aftertouch_c, 2, 26
11, 45880, Channel_aftertouch_c, 2, 0
11, 45900, Note_on_c, 2, 79, 0
11, 45924, Note_on_c, 2, 84, 0
11, 46096, Note_on_c, 2, 81, 92
11, 46096, Note_on_c, 2, 86, 104
11, 48976, Note_on_c, 2, 81, 0
11, 49016, Note_on_c, 2, 86, 0
11, 49148, Note_on_c, 2, 86, 91
11, 49156, Note_on_c, 2, 91, 89
11, 49160, Note_on_c, 2, 83, 95
11, 49172, Channel_aftertouch_c, 2, 60
11, 49188, Control_c, 2, 7, 95
11, 49192, Channel_aftertouch_c, 2, 57
11, 49208, Control_c, 2, 7, 95
11, 49208, Channel_aftertouch_c, 2, 54
11, 49228, Control_c, 2, 7, 96
11, 49248, Control_c, 2, 7, 96
11, 49264, Channel_aftertouch_c, 2, 52
11, 49264, Control_c, 2, 7, 96
11, 49276, Channel_aftertouch_c, 2, 50
11, 49284, Control_c, 2, 7, 96
11, 49288, Channel_aftertouch_c, 2, 46
11, 49300, Channel_aftertouch_c, 2, 39
11, 49304, Control_c, 2, 7, 95
11, 49312, Channel_aftertouch_c, 2, 28
11, 49324, Control_c, 2, 7, 95
11, 49324, Channel_aftertouch_c, 2, 21
11, 49336, Channel_aftertouch_c, 2, 13
11, 49344, Control_c, 2, 7, 95
11, 49348, Channel_aftertouch_c, 2, 8
11, 49360, Channel_aftertouch_c, 2, 6
11, 49360, Control_c, 2, 7, 96
11, 49380, Control_c, 2, 7, 94
11, 49384, Channel_aftertouch_c, 2, 10
11, 49392, Channel_aftertouch_c, 2, 12
11, 49400, Control_c, 2, 7, 96
11, 49408, Channel_aftertouch_c, 2, 14
11, 49416, Channel_aftertouch_c, 2, 12
11, 49420, Control_c, 2, 7, 94
11, 49428, Channel_aftertouch_c, 2, 8
11, 49440, Control_c, 2, 7, 94
11, 49440, Channel_aftertouch_c, 2, 3
11, 49456, Channel_aftertouch_c, 2, 2
11, 49456, Control_c, 2, 7, 94
11, 49476, Control_c, 2, 7, 94
11, 49476, Channel_aftertouch_c, 2, 5
11, 49488, Channel_aftertouch_c, 2, 7
11, 49496, Control_c, 2, 7, 94
11, 49500, Channel_aftertouch_c, 2, 10
11, 49512, Channel_aftertouch_c, 2, 11
11, 49516, Control_c, 2, 7, 94
11, 49524, Channel_aftertouch_c, 2, 12
11, 49536, Control_c, 2, 7, 94
11, 49536, Channel_aftertouch_c, 2, 15
11, 49548, Channel_aftertouch_c, 2, 18
11, 49552, Control_c, 2, 7, 94
11, 49560, Channel_aftertouch_c, 2, 22
11, 49572, Control_c, 2, 7, 95
11, 49572, Channel_aftertouch_c, 2, 24
11, 49584, Channel_aftertouch_c, 2, 24
11, 49592, Control_c, 2, 7, 95
11, 49596, Channel_aftertouch_c, 2, 25
11, 49612, Control_c, 2, 7, 94
11, 49616, Channel_aftertouch_c, 2, 23
11, 49632, Control_c, 2, 7, 94
11, 49632, Channel_aftertouch_c, 2, 22
11, 49644, Channel_aftertouch_c, 2, 21
11, 49648, Control_c, 2, 7, 94
11, 49656, Channel_aftertouch_c, 2, 19
11, 49668, Channel_aftertouch_c, 2, 17
11, 49668, Control_c, 2, 7, 94
11, 49680, Channel_aftertouch_c, 2, 16
11, 49688, Control_c, 2, 7, 94
11, 49692, Channel_aftertouch_c, 2, 15
11, 49704, Channel_aftertouch_c, 2, 14
11, 49708, Control_c, 2, 7, 94
11, 49716, Channel_aftertouch_c, 2, 14
11, 49728, Control_c, 2, 7, 94
11, 49728, Channel_aftertouch_c, 2, 10
11, 49736, Channel_aftertouch_c, 2, 7
11, 49744, Control_c, 2, 7, 94
11, 49752, Channel_aftertouch_c, 2, 5
11, 49764, Channel_aftertouch_c, 2, 4
11, 49764, Control_c, 2, 7, 94
11, 49776, Channel_aftertouch_c, 2, 0
11, 49784, Control_c, 2, 7, 94
11, 49804, Control_c, 2, 7, 94
11, 49824, Control_c, 2, 7, 94
11, 49840, Control_c, 2, 7, 94
11, 49860, Control_c, 2, 7, 94
11, 49880, Control_c, 2, 7, 92
11, 49900, Control_c, 2, 7, 93
11, 49920, Control_c, 2, 7, 93
11, 49936, Control_c, 2, 7, 93
11, 49956, Control_c, 2, 7, 93
11, 49976, Control_c, 2, 7, 93
11, 49996, Control_c, 2, 7, 93
11, 50016, Control_c, 2, 7, 93
11, 50032, Control_c, 2, 7, 93
11, 50040, Channel_aftertouch_c, 2, 2
11, 50052, Control_c, 2, 7, 92
11, 50052, Channel_aftertouch_c, 2, 4
11, 50064, Channel_aftertouch_c, 2, 6
11, 50072, Control_c, 2, 7, 92
11, 50076, Channel_aftertouch_c, 2, 7
11, 50092, Control_c, 2, 7, 92
11, 50100, Channel_aftertouch_c, 2, 4
11, 50112, Control_c, 2, 7, 92
11, 50128, Control_c, 2, 7, 92
11, 50144, Channel_aftertouch_c, 2, 3
11, 50148, Control_c, 2, 7, 92
11, 50156, Channel_aftertouch_c, 2, 0
11, 50168, Control_c, 2, 7, 92
11, 50188, Control_c, 2, 7, 92
11, 50208, Control_c, 2, 7, 92
11, 50224, Control_c, 2, 7, 92
11, 50244, Control_c, 2, 7, 92
11, 50264, Control_c, 2, 7, 92
11, 50284, Control_c, 2, 7, 92
11, 50304, Control_c, 2, 7, 92
11, 50320, Control_c, 2, 7, 92
11, 50340, Control_c, 2, 7, 92
11, 50360, Control_c, 2, 7, 92
11, 50380, Control_c, 2, 7, 91
11, 50400, Control_c, 2, 7, 91
11, 50416, Control_c, 2, 7, 91
11, 50436, Control_c, 2, 7, 90
11, 50456, Control_c, 2, 7, 90
11, 50476, Control_c, 2, 7, 90
11, 50496, Control_c, 2, 7, 90
11, 50512, Control_c, 2, 7, 89
11, 50532, Control_c, 2, 7, 89
11, 50552, Control_c, 2, 7, 88
11, 50572, Control_c, 2, 7, 88
11, 50592, Control_c, 2, 7, 88
11, 50608, Control_c, 2, 7, 88
11, 50628, Control_c, 2, 7, 88
11, 50648, Control_c, 2, 7, 88
11, 50668, Control_c, 2, 7, 88
11, 50688, Control_c, 2, 7, 87
11, 50704, Control_c, 2, 7, 86
11, 50724, Control_c, 2, 7, 85
11, 50744, Control_c, 2, 7, 84
11, 50764, Control_c, 2, 7, 84
11, 50784, Control_c, 2, 7, 83
11, 50800, Control_c, 2, 7, 83
11, 50820, Control_c, 2, 7, 81
11, 50840, Control_c, 2, 7, 81
11, 50860, Control_c, 2, 7, 80
11, 50880, Control_c, 2, 7, 80
11, 50896, Control_c, 2, 7, 80
11, 50916, Control_c, 2, 7, 79
11, 50936, Control_c, 2, 7, 79
11, 50956, Control_c, 2, 7, 77
11, 50976, Control_c, 2, 7, 77
11, 50992, Control_c, 2, 7, 77
11, 51012, Control_c, 2, 7, 75
11, 51032, Control_c, 2, 7, 75
11, 51052, Control_c, 2, 7, 75
11, 51072, Control_c, 2, 7, 75
11, 51088, Control_c, 2, 7, 74
11, 51108, Control_c, 2, 7, 74
11, 51128, Control_c, 2, 7, 74
11, 51148, Control_c, 2, 7, 73
11, 51168, Control_c, 2, 7, 73
11, 51184, Control_c, 2, 7, 72
11, 51204, Control_c, 2, 7, 72
11, 51224, Control_c, 2, 7, 71
11, 51244, Control_c, 2, 7, 71
11, 51264, Control_c, 2, 7, 71
11, 51280, Control_c, 2, 7, 71
11, 51300, Control_c, 2, 7, 70
11, 51320, Control_c, 2, 7, 70
11, 51340, Control_c, 2, 7, 69
11, 51360, Control_c, 2, 7, 66
11, 51376, Control_c, 2, 7, 66
11, 51396, Control_c, 2, 7, 66
11, 51416, Control_c, 2, 7, 65
11, 51436, Control_c, 2, 7, 64
11, 51456, Control_c, 2, 7, 62
11, 51472, Control_c, 2, 7, 62
11, 51492, Control_c, 2, 7, 61
11, 51512, Control_c, 2, 7, 61
11, 51532, Control_c, 2, 7, 60
11, 51552, Control_c, 2, 7, 59
11, 51568, Control_c, 2, 7, 58
11, 51588, Control_c, 2, 7, 57
11, 51608, Control_c, 2, 7, 56
11, 51628, Control_c, 2, 7, 56
11, 51648, Control_c, 2, 7, 56
11, 51664, Control_c, 2, 7, 54
11, 51684, Control_c, 2, 7, 52
11, 51704, Control_c, 2, 7, 52
11, 51724, Control_c, 2, 7, 51
11, 51744, Control_c, 2, 7, 51
11, 51760, Control_c, 2, 7, 50
11, 51764, Channel_aftertouch_c, 2, 6
11, 51776, Channel_aftertouch_c, 2, 0
11, 51780, Control_c, 2, 7, 50
11, 51800, Control_c, 2, 7, 47
11, 51820, Control_c, 2, 7, 46
11, 51840, Control_c, 2, 7, 46
11, 51856, Control_c, 2, 7, 44
11, 51876, Control_c, 2, 7, 44
11, 51896, Control_c, 2, 7, 43
11, 51916, Control_c, 2, 7, 43
11, 51936, Control_c, 2, 7, 42
11, 51944, Channel_aftertouch_c, 2, 13
11, 51952, Control_c, 2, 7, 41
11, 51956, Channel_aftertouch_c, 2, 21
11, 51968, Channel_aftertouch_c, 2, 22
11, 51972, Control_c, 2, 7, 41
11, 51980, Channel_aftertouch_c, 2, 30
11, 51992, Channel_aftertouch_c, 2, 31
11, 51992, Control_c, 2, 7, 40
11, 52004, Channel_aftertouch_c, 2, 25
11, 52012, Control_c, 2, 7, 40
11, 52016, Channel_aftertouch_c, 2, 8
11, 52028, Channel_aftertouch_c, 2, 1
11, 52032, Control_c, 2, 7, 39
11, 52040, Channel_aftertouch_c, 2, 5
11, 52048, Control_c, 2, 7, 39
11, 52048, Channel_aftertouch_c, 2, 7
11, 52064, Channel_aftertouch_c, 2, 4
11, 52068, Control_c, 2, 7, 38
11, 52072, Channel_aftertouch_c, 2, 13
11, 52088, Channel_aftertouch_c, 2, 34
11, 52088, Control_c, 2, 7, 38
11, 52100, Channel_aftertouch_c, 2, 45
11, 52108, Control_c, 2, 7, 38
11, 52108, Channel_aftertouch_c, 2, 42
11, 52124, Channel_aftertouch_c, 2, 5
11, 52128, Control_c, 2, 7, 37
11, 52136, Channel_aftertouch_c, 2, 0
11, 52144, Control_c, 2, 7, 35
11, 52160, Note_on_c, 2, 91, 0
11, 52164, Note_on_c, 2, 83, 0
11, 52164, Control_c, 2, 7, 34
11, 52172, Note_on_c, 2, 86, 0
11, 52184, Control_c, 2, 7, 34
11, 52204, Control_c, 2, 7, 33
11, 61440, Control_c, 2, 7, 100
11, 61440, Note_on_c, 2, 83, 108
11, 61440, Note_on_c, 2, 86, 108
11, 61456, Channel_aftertouch_c, 2, 27
11, 61468, Channel_aftertouch_c, 2, 36
11, 61480, Channel_aftertouch_c, 2, 34
11, 61488, Channel_aftertouch_c, 2, 28
11, 61500, Channel_aftertouch_c, 2, 27
11, 61512, Channel_aftertouch_c, 2, 31
11, 61520, Channel_aftertouch_c, 2, 34
11, 61532, Channel_aftertouch_c, 2, 35
11, 61540, Channel_aftertouch_c, 2, 36
11, 61560, Channel_aftertouch_c, 2, 30
11, 61572, Channel_aftertouch_c, 2, 26
11, 61584, Channel_aftertouch_c, 2, 23
11, 61592, Channel_aftertouch_c, 2, 17
11, 61604, Channel_aftertouch_c, 2, 6
11, 61612, Channel_aftertouch_c, 2, 0
11, 61628, Note_on_c, 2, 86, 0
11, 61632, Note_on_c, 2, 88, 85
11, 61632, Channel_aftertouch_c, 2, 69
11, 61644, Channel_aftertouch_c, 2, 59
11, 61652, Channel_aftertouch_c, 2, 58
11, 61664, Channel_aftertouch_c, 2, 63
11, 61672, Channel_aftertouch_c, 2, 63
11, 61684, Channel_aftertouch_c, 2, 64
11, 61696, Channel_aftertouch_c, 2, 66
11, 61704, Channel_aftertouch_c, 2, 67
11, 61716, Channel_aftertouch_c, 2, 67
11, 61744, Channel_aftertouch_c, 2, 64
11, 61756, Channel_aftertouch_c, 2, 58
11, 61764, Channel_aftertouch_c, 2, 52
11, 61784, Channel_aftertouch_c, 2, 60
11, 61796, Channel_aftertouch_c, 2, 65
11, 61804, Channel_aftertouch_c, 2, 66
11, 61816, Channel_aftertouch_c, 2, 58
11, 61824, Note_on_c, 2, 86, 104
11, 61828, Channel_aftertouch_c, 2, 66
11, 61836, Channel_aftertouch_c, 2, 4
11, 61848, Channel_aftertouch_c, 2, 0
11, 61856, Note_on_c, 2, 83, 0
11, 61860, Note_on_c, 2, 88, 0
11, 61888, Note_on_c, 2, 86, 0
11, 62016, Note_on_c, 2, 84, 89
11, 62016, Note_on_c, 2, 81, 79
11, 62044, Note_on_c, 2, 81, 0
11, 62060, Note_on_c, 2, 84, 0
11, 62208, Note_on_c, 2, 74, 85
11, 62208, Note_on_c, 2, 83, 100
11, 62208, Note_on_c, 2, 79, 89
11, 62208, Note_on_c, 2, 81, 100
11, 62216, Channel_aftertouch_c, 2, 72
11, 62224, Channel_aftertouch_c, 2, 82
11, 62236, Channel_aftertouch_c, 2, 76
11, 62248, Channel_aftertouch_c, 2, 67
11, 62260, Channel_aftertouch_c, 2, 74
11, 62272, Channel_aftertouch_c, 2, 83
11, 62280, Channel_aftertouch_c, 2, 86
11, 62288, Channel_aftertouch_c, 2, 88
11, 62300, Channel_aftertouch_c, 2, 89
11, 62336, Note_on_c, 2, 81, 0
11, 62340, Channel_aftertouch_c, 2, 87
11, 62348, Channel_aftertouch_c, 2, 80
11, 62360, Channel_aftertouch_c, 2, 70
11, 62372, Channel_aftertouch_c, 2, 65
11, 62380, Channel_aftertouch_c, 2, 73
11, 62392, Channel_aftertouch_c, 2, 78
11, 62400, Channel_aftertouch_c, 2, 82
11, 62412, Channel_aftertouch_c, 2, 83
11, 62424, Channel_aftertouch_c, 2, 83
11, 62432, Channel_aftertouch_c, 2, 84
11, 62444, Channel_aftertouch_c, 2, 86
11, 62452, Channel_aftertouch_c, 2, 88
11, 62464, Channel_aftertouch_c, 2, 88
11, 62472, Channel_aftertouch_c, 2, 86
11, 62484, Channel_aftertouch_c, 2, 78
11, 62496, Channel_aftertouch_c, 2, 31
11, 62504, Channel_aftertouch_c, 2, 27
11, 62520, Channel_aftertouch_c, 2, 24
11, 62536, Channel_aftertouch_c, 2, 9
11, 62544, Channel_aftertouch_c, 2, 0
11, 62572, Note_on_c, 2, 83, 0
11, 62576, Channel_aftertouch_c, 2, 81
11, 62584, Channel_aftertouch_c, 2, 73
11, 62592, Note_on_c, 2, 79, 0
11, 62592, Note_on_c, 2, 81, 80
11, 62592, Channel_aftertouch_c, 2, 76
11, 62604, Channel_aftertouch_c, 2, 73
11, 62616, Channel_aftertouch_c, 2, 69
11, 62624, Channel_aftertouch_c, 2, 65
11, 62636, Channel_aftertouch_c, 2, 65
11, 62648, Channel_aftertouch_c, 2, 62
11, 62656, Channel_aftertouch_c, 2, 60
11, 62668, Channel_aftertouch_c, 2, 58
11, 62676, Channel_aftertouch_c, 2, 53
11, 62688, Channel_aftertouch_c, 2, 30
11, 62696, Channel_aftertouch_c, 2, 0
11, 62784, Note_on_c, 2, 81, 0
11, 62784, Note_on_c, 2, 79, 80
11, 62968, Channel_aftertouch_c, 2, 54
11, 62976, Note_on_c, 2, 79, 0
11, 62976, Note_on_c, 2, 81, 104
11, 62976, Note_on_c, 2, 79, 76
11, 62980, Channel_aftertouch_c, 2, 65
11, 62992, Channel_aftertouch_c, 2, 62
11, 62996, Note_on_c, 2, 79, 0
11, 63000, Channel_aftertouch_c, 2, 57
11, 63032, Channel_aftertouch_c, 2, 60
11, 63040, Channel_aftertouch_c, 2, 63
11, 63052, Channel_aftertouch_c, 2, 65
11, 63064, Channel_aftertouch_c, 2, 65
11, 63080, Channel_aftertouch_c, 2, 63
11, 63092, Channel_aftertouch_c, 2, 62
11, 63132, Channel_aftertouch_c, 2, 64
11, 63144, Channel_aftertouch_c, 2, 65
11, 63172, Channel_aftertouch_c, 2, 63
11, 63184, Channel_aftertouch_c, 2, 62
11, 63224, Channel_aftertouch_c, 2, 61
11, 63232, Channel_aftertouch_c, 2, 61
11, 63280, Channel_aftertouch_c, 2, 60
11, 63292, Channel_aftertouch_c, 2, 59
11, 63304, Channel_aftertouch_c, 2, 57
11, 63312, Channel_aftertouch_c, 2, 56
11, 63344, Channel_aftertouch_c, 2, 56
11, 63352, Channel_aftertouch_c, 2, 54
11, 63360, Channel_aftertouch_c, 2, 52
11, 63372, Channel_aftertouch_c, 2, 51
11, 63376, Control_c, 2, 1, 2
11, 63384, Control_c, 2, 1, 3
11, 63396, Control_c, 2, 1, 5
11, 63408, Control_c, 2, 1, 6
11, 63412, Channel_aftertouch_c, 2, 49
11, 63416, Control_c, 2, 1, 7
11, 63424, Channel_aftertouch_c, 2, 47
11, 63428, Control_c, 2, 1, 9
11, 63436, Channel_aftertouch_c, 2, 43
11, 63440, Control_c, 2, 1, 10
11, 63448, Channel_aftertouch_c, 2, 37
11, 63452, Control_c, 2, 1, 12
11, 63460, Channel_aftertouch_c, 2, 30
11, 63464, Control_c, 2, 1, 14
11, 63472, Channel_aftertouch_c, 2, 24
11, 63476, Control_c, 2, 1, 16
11, 63484, Channel_aftertouch_c, 2, 15
11, 63488, Control_c, 2, 1, 16
11, 63496, Channel_aftertouch_c, 2, 3
11, 63500, Control_c, 2, 1, 17
11, 63508, Channel_aftertouch_c, 2, 0
11, 63512, Control_c, 2, 1, 19
11, 63520, Control_c, 2, 1, 20
11, 63532, Control_c, 2, 1, 20
11, 63536, Channel_aftertouch_c, 2, 30
11, 63548, Channel_aftertouch_c, 2, 52
11, 63552, Note_on_c, 2, 83, 89
11, 63560, Note_on_c, 2, 81, 0
11, 63560, Channel_aftertouch_c, 2, 60
11, 63568, Channel_aftertouch_c, 2, 64
11, 63572, Control_c, 2, 91, 100
11, 63580, Channel_aftertouch_c, 2, 65
11, 63584, Control_c, 2, 1, 21
11, 63592, Channel_aftertouch_c, 2, 66
11, 63600, Channel_aftertouch_c, 2, 68
11, 63624, Channel_aftertouch_c, 2, 66
11, 63632, Channel_aftertouch_c, 2, 61
11, 63644, Channel_aftertouch_c, 2, 77
11, 63648, Note_on_c, 2, 81, 104
11, 63656, Channel_aftertouch_c, 2, 73
11, 63664, Channel_aftertouch_c, 2, 68
11, 63676, Channel_aftertouch_c, 2, 62
11, 63688, Channel_aftertouch_c, 2, 35
11, 63696, Channel_aftertouch_c, 2, 7
11, 63708, Channel_aftertouch_c, 2, 0
11, 63744, Note_on_c, 2, 79, 108
11, 63744, Channel_aftertouch_c, 2, 25
11, 63756, Channel_aftertouch_c, 2, 52
11, 63764, Note_on_c, 2, 83, 0
11, 63764, Channel_aftertouch_c, 2, 65
11, 63776, Note_on_c, 2, 81, 0
11, 63776, Channel_aftertouch_c, 2, 72
11, 63784, Channel_aftertouch_c, 2, 74
11, 63796, Channel_aftertouch_c, 2, 75
11, 63804, Channel_aftertouch_c, 2, 76
11, 63816, Channel_aftertouch_c, 2, 78
11, 63820, Control_c, 2, 1, 19
11, 63828, Channel_aftertouch_c, 2, 79
11, 63836, Channel_aftertouch_c, 2, 80
11, 63848, Channel_aftertouch_c, 2, 81
11, 63872, Control_c, 2, 1, 18
11, 63880, Channel_aftertouch_c, 2, 82
11, 63888, Channel_aftertouch_c, 2, 83
11, 63892, Control_c, 2, 1, 22
11, 63900, Channel_aftertouch_c, 2, 83
11, 63904, Control_c, 2, 1, 22
11, 63912, Channel_aftertouch_c, 2, 84
11, 63980, Channel_aftertouch_c, 2, 82
11, 63992, Control_c, 2, 1, 19
11, 64000, Channel_aftertouch_c, 2, 81
11, 64004, Control_c, 2, 1, 18
11, 64012, Channel_aftertouch_c, 2, 81
11, 64024, Channel_aftertouch_c, 2, 80
11, 64028, Control_c, 2, 1, 17
11, 64036, Channel_aftertouch_c, 2, 78
11, 64036, Control_c, 2, 1, 16
11, 64048, Channel_aftertouch_c, 2, 76
11, 64048, Control_c, 2, 1, 13
11, 64056, Channel_aftertouch_c, 2, 73
11, 64064, Control_c, 2, 1, 10
11, 64068, Channel_aftertouch_c, 2, 68
11, 64072, Control_c, 2, 1, 8
11, 64080, Channel_aftertouch_c, 2, 63
11, 64084, Control_c, 2, 1, 8
11, 64092, Channel_aftertouch_c, 2, 58
11, 64104, Channel_aftertouch_c, 2, 55
11, 64108, Control_c, 2, 1, 14
11, 64112, Channel_aftertouch_c, 2, 52
11, 64120, Control_c, 2, 1, 21
11, 64128, Control_c, 2, 7, 99
11, 64128, Channel_aftertouch_c, 2, 51
11, 64128, Control_c, 2, 1, 23
11, 64136, Channel_aftertouch_c, 2, 50
11, 64140, Control_c, 2, 1, 25
11, 64144, Control_c, 2, 7, 99
11, 64148, Channel_aftertouch_c, 2, 47
11, 64152, Control_c, 2, 1, 22
11, 64160, Channel_aftertouch_c, 2, 44
11, 64164, Control_c, 2, 7, 99
11, 64164, Control_c, 2, 1, 21
11, 64172, Channel_aftertouch_c, 2, 42
11, 64184, Channel_aftertouch_c, 2, 40
11, 64184, Control_c, 2, 7, 98
11, 64192, Channel_aftertouch_c, 2, 36
11, 64204, Control_c, 2, 7, 97
11, 64204, Channel_aftertouch_c, 2, 30
11, 64212, Channel_aftertouch_c, 2, 27
11, 64224, Control_c, 2, 7, 97
11, 64224, Channel_aftertouch_c, 2, 30
11, 64232, Channel_aftertouch_c, 2, 31
11, 64240, Control_c, 2, 7, 96
11, 64244, Channel_aftertouch_c, 2, 28
11, 64256, Channel_aftertouch_c, 2, 17
11, 64260, Control_c, 2, 7, 96
11, 64264, Channel_aftertouch_c, 2, 10
11, 64280, Control_c, 2, 7, 95
11, 64284, Channel_aftertouch_c, 2, 14
11, 64296, Channel_aftertouch_c, 2, 11
11, 64300, Control_c, 2, 7, 94
11, 64304, Channel_aftertouch_c, 2, 1
11, 64316, Channel_aftertouch_c, 2, 0
11, 64320, Control_c, 2, 7, 94
11, 64336, Control_c, 2, 7, 92
11, 64356, Control_c, 2, 7, 92
11, 64376, Control_c, 2, 7, 91
11, 64396, Control_c, 2, 7, 90
11, 64416, Control_c, 2, 7, 89
11, 64432, Control_c, 2, 7, 88
11, 64452, Control_c, 2, 7, 87
11, 64472, Control_c, 2, 7, 86
11, 64492, Control_c, 2, 7, 85
11, 64512, Control_c, 2, 7, 83
11, 64528, Control_c, 2, 7, 82
11, 64548, Control_c, 2, 7, 80
11, 64568, Control_c, 2, 7, 79
11, 64588, Control_c, 2, 7, 77
11, 64608, Control_c, 2, 7, 75
11, 64624, Control_c, 2, 7, 73
11, 64644, Control_c, 2, 7, 70
11, 64664, Control_c, 2, 7, 69
11, 64684, Control_c, 2, 7, 66
11, 64704, Control_c, 2, 7, 64
11, 64720, Control_c, 2, 7, 60
11, 64740, Control_c, 2, 7, 57
11, 64760, Control_c, 2, 7, 57
11, 64780, Control_c, 2, 7, 49
11, 64800, Control_c, 2, 7, 48
11, 64816, Control_c, 2, 7, 42
11, 64836, Control_c, 2, 7, 41
11, 64876, Note_on_c, 2, 74, 0
11, 64876, Note_on_c, 2, 79, 0
11, 66048, Control_c, 2, 7, 100
11, 76816, Control_c, 2, 7, 95
11, 76816, Note_on_c, 2, 83, 100
11, 76816, Note_on_c, 2, 88, 92
11, 76832, Channel_aftertouch_c, 2, 70
11, 76844, Channel_aftertouch_c, 2, 78
11, 76856, Channel_aftertouch_c, 2, 74
11, 76868, Channel_aftertouch_c, 2, 67
11, 76880, Channel_aftertouch_c, 2, 65
11, 76904, Channel_aftertouch_c, 2, 68
11, 76916, Channel_aftertouch_c, 2, 68
11, 76936, Channel_aftertouch_c, 2, 65
11, 76948, Channel_aftertouch_c, 2, 64
11, 76984, Channel_aftertouch_c, 2, 64
11, 76996, Channel_aftertouch_c, 2, 63
11, 77040, Channel_aftertouch_c, 2, 65
11, 77052, Channel_aftertouch_c, 2, 66
11, 77108, Channel_aftertouch_c, 2, 66
11, 77120, Channel_aftertouch_c, 2, 67
11, 77132, Channel_aftertouch_c, 2, 68
11, 77144, Channel_aftertouch_c, 2, 68
11, 77156, Channel_aftertouch_c, 2, 69
11, 77168, Channel_aftertouch_c, 2, 69
11, 77180, Channel_aftertouch_c, 2, 70
11, 77192, Channel_aftertouch_c, 2, 70
11, 77248, Channel_aftertouch_c, 2, 68
11, 77304, Channel_aftertouch_c, 2, 67
11, 77408, Channel_aftertouch_c, 2, 69
11, 77652, Channel_aftertouch_c, 2, 67
11, 77664, Channel_aftertouch_c, 2, 67
11, 77676, Channel_aftertouch_c, 2, 66
11, 77888, Channel_aftertouch_c, 2, 66
11, 77912, Channel_aftertouch_c, 2, 64
11, 77920, Channel_aftertouch_c, 2, 63
11, 77936, Channel_aftertouch_c, 2, 62
11, 77968, Channel_aftertouch_c, 2, 65
11, 77980, Channel_aftertouch_c, 2, 65
11, 78092, Channel_aftertouch_c, 2, 63
11, 78104, Channel_aftertouch_c, 2, 61
11, 78116, Channel_aftertouch_c, 2, 56
11, 78128, Channel_aftertouch_c, 2, 53
11, 78140, Channel_aftertouch_c, 2, 52
11, 78152, Channel_aftertouch_c, 2, 51
11, 78164, Channel_aftertouch_c, 2, 49
11, 78176, Channel_aftertouch_c, 2, 47
11, 78188, Channel_aftertouch_c, 2, 43
11, 78200, Channel_aftertouch_c, 2, 40
11, 78212, Channel_aftertouch_c, 2, 38
11, 78224, Channel_aftertouch_c, 2, 37
11, 78236, Channel_aftertouch_c, 2, 37
11, 78248, Channel_aftertouch_c, 2, 35
11, 78272, Channel_aftertouch_c, 2, 37
11, 78284, Channel_aftertouch_c, 2, 41
11, 78296, Channel_aftertouch_c, 2, 42
11, 78328, Channel_aftertouch_c, 2, 39
11, 78340, Channel_aftertouch_c, 2, 36
11, 78352, Channel_aftertouch_c, 2, 34
11, 78364, Channel_aftertouch_c, 2, 36
11, 78376, Channel_aftertouch_c, 2, 38
11, 78388, Channel_aftertouch_c, 2, 39
11, 78424, Channel_aftertouch_c, 2, 35
11, 78432, Channel_aftertouch_c, 2, 32
11, 78448, Channel_aftertouch_c, 2, 31
11, 78468, Channel_aftertouch_c, 2, 30
11, 78480, Channel_aftertouch_c, 2, 28
11, 78492, Channel_aftertouch_c, 2, 28
11, 78516, Channel_aftertouch_c, 2, 30
11, 78528, Channel_aftertouch_c, 2, 31
11, 78540, Channel_aftertouch_c, 2, 33
11, 78552, Channel_aftertouch_c, 2, 34
11, 78564, Channel_aftertouch_c, 2, 34
11, 78584, Channel_aftertouch_c, 2, 32
11, 78656, Channel_aftertouch_c, 2, 31
11, 78680, Channel_aftertouch_c, 2, 34
11, 78688, Channel_aftertouch_c, 2, 35
11, 78736, Channel_aftertouch_c, 2, 37
11, 78748, Channel_aftertouch_c, 2, 40
11, 78756, Channel_aftertouch_c, 2, 43
11, 78772, Channel_aftertouch_c, 2, 44
11, 78780, Channel_aftertouch_c, 2, 44
11, 78804, Channel_aftertouch_c, 2, 45
11, 78816, Channel_aftertouch_c, 2, 45
11, 78832, Channel_aftertouch_c, 2, 46
11, 78840, Channel_aftertouch_c, 2, 47
11, 78888, Channel_aftertouch_c, 2, 48
11, 78896, Channel_aftertouch_c, 2, 50
11, 78912, Channel_aftertouch_c, 2, 51
11, 78956, Channel_aftertouch_c, 2, 48
11, 78968, Channel_aftertouch_c, 2, 47
11, 78976, Channel_aftertouch_c, 2, 46
11, 79012, Channel_aftertouch_c, 2, 46
11, 79024, Channel_aftertouch_c, 2, 45
11, 79048, Channel_aftertouch_c, 2, 44
11, 79060, Channel_aftertouch_c, 2, 43
11, 79096, Channel_aftertouch_c, 2, 45
11, 79108, Channel_aftertouch_c, 2, 47
11, 79120, Channel_aftertouch_c, 2, 48
11, 79128, Channel_aftertouch_c, 2, 49
11, 79144, Channel_aftertouch_c, 2, 49
11, 79152, Channel_aftertouch_c, 2, 50
11, 79168, Channel_aftertouch_c, 2, 51
11, 79176, Channel_aftertouch_c, 2, 52
11, 79188, Channel_aftertouch_c, 2, 53
11, 79200, Channel_aftertouch_c, 2, 54
11, 79212, Channel_aftertouch_c, 2, 54
11, 79224, Channel_aftertouch_c, 2, 55
11, 79272, Channel_aftertouch_c, 2, 55
11, 79280, Channel_aftertouch_c, 2, 56
11, 79328, Channel_aftertouch_c, 2, 57
11, 79460, Channel_aftertouch_c, 2, 55
11, 79476, Channel_aftertouch_c, 2, 54
11, 79488, Channel_aftertouch_c, 2, 52
11, 79496, Channel_aftertouch_c, 2, 49
11, 79512, Channel_aftertouch_c, 2, 47
11, 79520, Channel_aftertouch_c, 2, 44
11, 79536, Channel_aftertouch_c, 2, 40
11, 79544, Channel_aftertouch_c, 2, 31
11, 79560, Channel_aftertouch_c, 2, 0
11, 79644, Note_on_c, 2, 88, 0
11, 79648, Note_on_c, 2, 83, 0
11, 79860, Note_on_c, 2, 85, 104
11, 79864, Note_on_c, 2, 81, 96
11, 79880, Channel_aftertouch_c, 2, 16
11, 79896, Channel_aftertouch_c, 2, 19
11, 79928, Channel_aftertouch_c, 2, 20
11, 79944, Channel_aftertouch_c, 2, 23
11, 79952, Channel_aftertouch_c, 2, 23
11, 79988, Channel_aftertouch_c, 2, 21
11, 80000, Channel_aftertouch_c, 2, 20
11, 80012, Channel_aftertouch_c, 2, 19
11, 80024, Channel_aftertouch_c, 2, 18
11, 80048, Channel_aftertouch_c, 2, 18
11, 80068, Channel_aftertouch_c, 2, 17
11, 80136, Channel_aftertouch_c, 2, 19
11, 80148, Channel_aftertouch_c, 2, 20
11, 80160, Channel_aftertouch_c, 2, 21
11, 80172, Channel_aftertouch_c, 2, 22
11, 80184, Channel_aftertouch_c, 2, 23
11, 80196, Channel_aftertouch_c, 2, 23
11, 80208, Channel_aftertouch_c, 2, 24
11, 80220, Channel_aftertouch_c, 2, 25
11, 80276, Channel_aftertouch_c, 2, 25
11, 80288, Channel_aftertouch_c, 2, 26
11, 80388, Channel_aftertouch_c, 2, 24
11, 80400, Channel_aftertouch_c, 2, 22
11, 80456, Channel_aftertouch_c, 2, 21
11, 80468, Channel_aftertouch_c, 2, 19
11, 80480, Channel_aftertouch_c, 2, 17
11, 80492, Channel_aftertouch_c, 2, 17
11, 80504, Channel_aftertouch_c, 2, 16
11, 80520, Channel_aftertouch_c, 2, 15
11, 80528, Channel_aftertouch_c, 2, 14
11, 80540, Channel_aftertouch_c, 2, 12
11, 80552, Channel_aftertouch_c, 2, 12
11, 80584, Channel_aftertouch_c, 2, 14
11, 80600, Channel_aftertouch_c, 2, 15
11, 80644, Channel_aftertouch_c, 2, 12
11, 80656, Channel_aftertouch_c, 2, 10
11, 80668, Channel_aftertouch_c, 2, 9
11, 80680, Channel_aftertouch_c, 2, 9
11, 80692, Channel_aftertouch_c, 2, 7
11, 80704, Channel_aftertouch_c, 2, 5
11, 80716, Channel_aftertouch_c, 2, 4
11, 80728, Channel_aftertouch_c, 2, 3
11, 80736, Channel_aftertouch_c, 2, 3
11, 80760, Channel_aftertouch_c, 2, 2
11, 80784, Channel_aftertouch_c, 2, 1
11, 80796, Channel_aftertouch_c, 2, 0
11, 81256, Note_on_c, 2, 81, 0
11, 81256, Note_on_c, 2, 85, 0
11, 81424, Note_on_c, 2, 79, 104
11, 81424, Note_on_c, 2, 84, 113
11, 81432, Channel_aftertouch_c, 2, 21
11, 81444, Channel_aftertouch_c, 2, 48
11, 81456, Channel_aftertouch_c, 2, 52
11, 81468, Channel_aftertouch_c, 2, 48
11, 81480, Channel_aftertouch_c, 2, 47
11, 81488, Channel_aftertouch_c, 2, 50
11, 81504, Channel_aftertouch_c, 2, 53
11, 81516, Channel_aftertouch_c, 2, 55
11, 81528, Channel_aftertouch_c, 2, 57
11, 81560, Channel_aftertouch_c, 2, 55
11, 81572, Channel_aftertouch_c, 2, 54
11, 81620, Channel_aftertouch_c, 2, 54
11, 81632, Channel_aftertouch_c, 2, 52
11, 81640, Channel_aftertouch_c, 2, 50
11, 81656, Channel_aftertouch_c, 2, 49
11, 81664, Channel_aftertouch_c, 2, 49
11, 81700, Channel_aftertouch_c, 2, 46
11, 81712, Channel_aftertouch_c, 2, 44
11, 81724, Channel_aftertouch_c, 2, 44
11, 81836, Channel_aftertouch_c, 2, 43
11, 81848, Channel_aftertouch_c, 2, 42
11, 81860, Channel_aftertouch_c, 2, 40
11, 81872, Channel_aftertouch_c, 2, 39
11, 81896, Channel_aftertouch_c, 2, 38
11, 81940, Channel_aftertouch_c, 2, 40
11, 81952, Channel_aftertouch_c, 2, 42
11, 81964, Channel_aftertouch_c, 2, 43
11, 82020, Channel_aftertouch_c, 2, 40
11, 82032, Channel_aftertouch_c, 2, 39
11, 82056, Channel_aftertouch_c, 2, 43
11, 82064, Channel_aftertouch_c, 2, 45
11, 82104, Channel_aftertouch_c, 2, 43
11, 82124, Channel_aftertouch_c, 2, 45
11, 82136, Channel_aftertouch_c, 2, 47
11, 82148, Channel_aftertouch_c, 2, 49
11, 82160, Channel_aftertouch_c, 2, 49
11, 82184, Channel_aftertouch_c, 2, 47
11, 82196, Channel_aftertouch_c, 2, 46
11, 82208, Channel_aftertouch_c, 2, 45
11, 82264, Channel_aftertouch_c, 2, 47
11, 82332, Channel_aftertouch_c, 2, 48
11, 82388, Channel_aftertouch_c, 2, 49
11, 82400, Channel_aftertouch_c, 2, 51
11, 82424, Channel_aftertouch_c, 2, 49
11, 82436, Channel_aftertouch_c, 2, 46
11, 82444, Channel_aftertouch_c, 2, 46
11, 82468, Channel_aftertouch_c, 2, 50
11, 82480, Channel_aftertouch_c, 2, 51
11, 82492, Channel_aftertouch_c, 2, 51
11, 82636, Channel_aftertouch_c, 2, 48
11, 82648, Channel_aftertouch_c, 2, 44
11, 82664, Channel_aftertouch_c, 2, 39
11, 82672, Channel_aftertouch_c, 2, 34
11, 82684, Channel_aftertouch_c, 2, 27
11, 82696, Channel_aftertouch_c, 2, 21
11, 82720, Channel_aftertouch_c, 2, 25
11, 82732, Channel_aftertouch_c, 2, 26
11, 82744, Channel_aftertouch_c, 2, 0
11, 82764, Note_on_c, 2, 79, 0
11, 82788, Note_on_c, 2, 84, 0
11, 82944, Control_c, 2, 1, 0
11, 82944, Note_on_c, 2, 79, 100
11, 82944, Note_on_c, 2, 83, 100
11, 82944, Channel_aftertouch_c, 2, 86
11, 82944, Channel_aftertouch_c, 2, 84
11, 82948, Control_c, 2, 1, 0
11, 82956, Control_c, 2, 1, 0
11, 82956, Channel_aftertouch_c, 2, 95
11, 82960, Control_c, 2, 1, 0
11, 82968, Channel_aftertouch_c, 2, 97
11, 82968, Control_c, 2, 1, 0
11, 82976, Control_c, 2, 1, 0
11, 82980, Channel_aftertouch_c, 2, 101
11, 82980, Control_c, 2, 1, 0
11, 82988, Control_c, 2, 1, 0
11, 82992, Channel_aftertouch_c, 2, 109
11, 82992, Control_c, 2, 1, 0
11, 83000, Control_c, 2, 1, 0
11, 83000, Channel_aftertouch_c, 2, 114
11, 83008, Control_c, 2, 1, 0
11, 83012, Control_c, 2, 1, 0
11, 83016, Channel_aftertouch_c, 2, 115
11, 83020, Control_c, 2, 1, 0
11, 83024, Control_c, 2, 1, 0
11, 83032, Control_c, 2, 1, 0
11, 83040, Control_c, 2, 1, 0
11, 83044, Control_c, 2, 1, 0
11, 83052, Control_c, 2, 1, 0
11, 83056, Control_c, 2, 1, 0
11, 83060, Channel_aftertouch_c, 2, 113
11, 83064, Control_c, 2, 1, 0
11, 83072, Control_c, 2, 1, 0
11, 83076, Control_c, 2, 1, 0
11, 83084, Control_c, 2, 1, 0
11, 83088, Control_c, 2, 1, 0
11, 83096, Channel_aftertouch_c, 2, 116
11, 83096, Control_c, 2, 1, 0
11, 83104, Control_c, 2, 1, 0
11, 83104, Channel_aftertouch_c, 2, 117
11, 83108, Control_c, 2, 1, 0
11, 83116, Control_c, 2, 1, 0
11, 83116, Channel_aftertouch_c, 2, 117
11, 83120, Control_c, 2, 1, 0
11, 83128, Control_c, 2, 1, 0
11, 83128, Channel_aftertouch_c, 2, 118
11, 83136, Control_c, 2, 1, 0
11, 83140, Control_c, 2, 1, 0
11, 83140, Channel_aftertouch_c, 2, 119
11, 83148, Control_c, 2, 1, 0
11, 83152, Control_c, 2, 1, 0
11, 83152, Channel_aftertouch_c, 2, 120
11, 83160, Control_c, 2, 1, 0
11, 83164, Channel_aftertouch_c, 2, 121
11, 83168, Control_c, 2, 1, 0
11, 83172, Control_c, 2, 1, 0
11, 83176, Channel_aftertouch_c, 2, 122
11, 83180, Control_c, 2, 1, 0
11, 83184, Control_c, 2, 1, 0
11, 83192, Control_c, 2, 1, 0
11, 83200, Control_c, 2, 1, 0
11, 83204, Control_c, 2, 1, 0
11, 83212, Control_c, 2, 1, 0
11, 83216, Control_c, 2, 1, 0
11, 83224, Channel_aftertouch_c, 2, 123
11, 83224, Control_c, 2, 1, 0
11, 83232, Control_c, 2, 1, 0
11, 83232, Channel_aftertouch_c, 2, 124
11, 83236, Control_c, 2, 1, 0
11, 83244, Control_c, 2, 1, 0
11, 83248, Control_c, 2, 1, 0
11, 83256, Control_c, 2, 1, 0
11, 83264, Control_c, 2, 1, 0
11, 83268, Control_c, 2, 1, 0
11, 83276, Control_c, 2, 1, 0
11, 83280, Channel_aftertouch_c, 2, 124
11, 83280, Control_c, 2, 1, 0
11, 83288, Control_c, 2, 1, 0
11, 83296, Control_c, 2, 1, 0
11, 83300, Control_c, 2, 1, 0
11, 83304, Channel_aftertouch_c, 2, 125
11, 83308, Control_c, 2, 1, 0
11, 83312, Channel_aftertouch_c, 2, 125
11, 83312, Control_c, 2, 1, 0
11, 83320, Control_c, 2, 1, 0
11, 83328, Control_c, 2, 1, 0
11, 83332, Control_c, 2, 1, 0
11, 83340, Control_c, 2, 1, 0
11, 83344, Control_c, 2, 1, 0
11, 83352, Control_c, 2, 1, 0
11, 83360, Control_c, 2, 1, 0
11, 83364, Control_c, 2, 1, 0
11, 83372, Control_c, 2, 1, 0
11, 83376, Control_c, 2, 1, 0
11, 83384, Control_c, 2, 1, 0
11, 83392, Control_c, 2, 1, 0
11, 83392, Channel_aftertouch_c, 2, 123
11, 83396, Control_c, 2, 1, 0
11, 83404, Control_c, 2, 1, 0
11, 83404, Channel_aftertouch_c, 2, 123
11, 83408, Control_c, 2, 1, 0
11, 83416, Control_c, 2, 1, 0
11, 83424, Control_c, 2, 1, 0
11, 83428, Control_c, 2, 1, 0
11, 83436, Control_c, 2, 1, 0
11, 83440, Control_c, 2, 1, 0
11, 83448, Control_c, 2, 1, 0
11, 83448, Channel_aftertouch_c, 2, 125
11, 83456, Control_c, 2, 1, 0
11, 83460, Control_c, 2, 1, 0
11, 83460, Channel_aftertouch_c, 2, 126
11, 83468, Control_c, 2, 1, 0
11, 83472, Channel_aftertouch_c, 2, 126
11, 83472, Control_c, 2, 1, 0
11, 83480, Control_c, 2, 1, 0
11, 83484, Channel_aftertouch_c, 2, 127
11, 83488, Control_c, 2, 1, 0
11, 83492, Control_c, 2, 1, 0
11, 83496, Channel_aftertouch_c, 2, 127
11, 83500, Control_c, 2, 1, 0
11, 83504, Control_c, 2, 1, 0
11, 83512, Control_c, 2, 1, 0
11, 83520, Control_c, 2, 1, 0
11, 83524, Control_c, 2, 1, 0
11, 83532, Control_c, 2, 1, 0
11, 83536, Control_c, 2, 1, 0
11, 83544, Control_c, 2, 1, 0
11, 83552, Control_c, 2, 1, 0
11, 83556, Control_c, 2, 1, 0
11, 83564, Control_c, 2, 1, 0
11, 83568, Control_c, 2, 1, 0
11, 83576, Control_c, 2, 1, 1
11, 83584, Control_c, 2, 1, 1
11, 83588, Control_c, 2, 1, 1
11, 83596, Control_c, 2, 1, 1
11, 83600, Control_c, 2, 1, 1
11, 83608, Control_c, 2, 1, 1
11, 83616, Control_c, 2, 1, 1
11, 83620, Control_c, 2, 1, 1
11, 83628, Control_c, 2, 1, 1
11, 83632, Control_c, 2, 1, 1
11, 83640, Control_c, 2, 1, 2
11, 83648, Control_c, 2, 1, 2
11, 83652, Channel_aftertouch_c, 2, 125
11, 83652, Control_c, 2, 1, 2
11, 83660, Control_c, 2, 1, 2
11, 83664, Channel_aftertouch_c, 2, 125
11, 83664, Control_c, 2, 1, 2
11, 83672, Control_c, 2, 1, 2
11, 83680, Control_c, 2, 1, 3
11, 83684, Control_c, 2, 1, 2
11, 83692, Control_c, 2, 1, 2
11, 83696, Control_c, 2, 1, 2
11, 83704, Control_c, 2, 1, 3
11, 83708, Channel_aftertouch_c, 2, 124
11, 83712, Control_c, 2, 1, 2
11, 83716, Control_c, 2, 1, 2
11, 83724, Control_c, 2, 1, 2
11, 83728, Control_c, 2, 1, 2
11, 83736, Control_c, 2, 1, 3
11, 83744, Control_c, 2, 1, 3
11, 83744, Channel_aftertouch_c, 2, 123
11, 83748, Control_c, 2, 1, 3
11, 83752, Channel_aftertouch_c, 2, 123
11, 83756, Control_c, 2, 1, 3
11, 83760, Control_c, 2, 1, 3
11, 83768, Control_c, 2, 1, 3
11, 83776, Control_c, 2, 1, 3
11, 83780, Control_c, 2, 1, 3
11, 83788, Control_c, 2, 1, 3
11, 83792, Control_c, 2, 1, 3
11, 83800, Control_c, 2, 1, 3
11, 83808, Control_c, 2, 1, 3
11, 83812, Control_c, 2, 1, 3
11, 83820, Control_c, 2, 1, 3
11, 83824, Control_c, 2, 1, 3
11, 83832, Control_c, 2, 1, 3
11, 83840, Control_c, 2, 1, 3
11, 83844, Control_c, 2, 1, 3
11, 83852, Control_c, 2, 1, 3
11, 83856, Control_c, 2, 1, 3
11, 83864, Control_c, 2, 1, 3
11, 83864, Channel_aftertouch_c, 2, 125
11, 83872, Control_c, 2, 1, 3
11, 83876, Control_c, 2, 1, 3
11, 83876, Channel_aftertouch_c, 2, 126
11, 83884, Control_c, 2, 1, 3
11, 83888, Channel_aftertouch_c, 2, 126
11, 83888, Control_c, 2, 1, 3
11, 83896, Control_c, 2, 1, 3
11, 83904, Control_c, 2, 1, 3
11, 83908, Control_c, 2, 1, 3
11, 83916, Control_c, 2, 1, 3
11, 83920, Control_c, 2, 1, 3
11, 83928, Control_c, 2, 1, 3
11, 83932, Channel_aftertouch_c, 2, 127
11, 83936, Control_c, 2, 1, 3
11, 83940, Control_c, 2, 1, 3
11, 83948, Control_c, 2, 1, 3
11, 83952, Control_c, 2, 1, 2
11, 83960, Control_c, 2, 1, 2
11, 83968, Control_c, 2, 1, 1
11, 83972, Control_c, 2, 1, 1
11, 83980, Control_c, 2, 1, 1
11, 83984, Control_c, 2, 1, 1
11, 83992, Control_c, 2, 1, 1
11, 84000, Control_c, 2, 1, 1
11, 84004, Control_c, 2, 1, 1
11, 84012, Control_c, 2, 1, 1
11, 84012, Channel_aftertouch_c, 2, 127
11, 84016, Control_c, 2, 1, 1
11, 84024, Control_c, 2, 1, 1
11, 84032, Control_c, 2, 1, 1
11, 84036, Control_c, 2, 1, 1
11, 84044, Control_c, 2, 1, 1
11, 84048, Control_c, 2, 1, 1
11, 84056, Control_c, 2, 1, 1
11, 84064, Control_c, 2, 1, 1
11, 84068, Control_c, 2, 1, 1
11, 84076, Control_c, 2, 1, 1
11, 84080, Control_c, 2, 1, 1
11, 84088, Control_c, 2, 1, 1
11, 84096, Control_c, 2, 1, 1
11, 84100, Control_c, 2, 1, 1
11, 84108, Control_c, 2, 1, 1
11, 84112, Control_c, 2, 1, 2
11, 84120, Control_c, 2, 1, 2
11, 84128, Control_c, 2, 1, 2
11, 84132, Control_c, 2, 1, 3
11, 84140, Control_c, 2, 1, 3
11, 84144, Control_c, 2, 1, 3
11, 84152, Control_c, 2, 1, 3
11, 84160, Control_c, 2, 1, 3
11, 84164, Control_c, 2, 1, 3
11, 84172, Control_c, 2, 1, 3
11, 84176, Control_c, 2, 1, 3
11, 84184, Control_c, 2, 1, 3
11, 84192, Control_c, 2, 1, 3
11, 84196, Control_c, 2, 1, 3
11, 84200, Channel_aftertouch_c, 2, 125
11, 84204, Control_c, 2, 1, 3
11, 84208, Control_c, 2, 1, 3
11, 84216, Control_c, 2, 1, 3
11, 84224, Control_c, 2, 1, 3
11, 84228, Control_c, 2, 1, 3
11, 84236, Control_c, 2, 1, 3
11, 84240, Control_c, 2, 1, 3
11, 84248, Control_c, 2, 1, 3
11, 84256, Control_c, 2, 1, 3
11, 84260, Control_c, 2, 1, 4
11, 84268, Control_c, 2, 1, 4
11, 84272, Control_c, 2, 1, 4
11, 84280, Control_c, 2, 1, 4
11, 84288, Control_c, 2, 1, 4
11, 84292, Control_c, 2, 1, 4
11, 84300, Control_c, 2, 1, 4
11, 84304, Control_c, 2, 1, 5
11, 84312, Control_c, 2, 1, 5
11, 84320, Control_c, 2, 1, 5
11, 84324, Control_c, 2, 1, 5
11, 84332, Control_c, 2, 1, 5
11, 84336, Control_c, 2, 1, 5
11, 84344, Control_c, 2, 1, 5
11, 84352, Control_c, 2, 1, 5
11, 84356, Control_c, 2, 1, 6
11, 84364, Control_c, 2, 1, 6
11, 84368, Control_c, 2, 1, 6
11, 84376, Control_c, 2, 1, 6
11, 84384, Control_c, 2, 1, 6
11, 84388, Control_c, 2, 1, 6
11, 84396, Control_c, 2, 1, 6
11, 84400, Control_c, 2, 1, 6
11, 84408, Control_c, 2, 1, 6
11, 84416, Control_c, 2, 1, 6
11, 84420, Control_c, 2, 1, 7
11, 84428, Control_c, 2, 1, 7
11, 84432, Control_c, 2, 1, 7
11, 84440, Control_c, 2, 1, 7
11, 84444, Channel_aftertouch_c, 2, 127
11, 84448, Control_c, 2, 1, 7
11, 84452, Control_c, 2, 1, 7
11, 84460, Control_c, 2, 1, 7
11, 84464, Control_c, 2, 1, 7
11, 84472, Control_c, 2, 1, 7
11, 84480, Control_c, 2, 1, 7
11, 84484, Control_c, 2, 1, 8
11, 84492, Control_c, 2, 1, 8
11, 84496, Control_c, 2, 1, 8
11, 84504, Control_c, 2, 1, 8
11, 84512, Control_c, 2, 1, 8
11, 84516, Control_c, 2, 1, 8
11, 84524, Control_c, 2, 1, 8
11, 84528, Control_c, 2, 1, 8
11, 84536, Control_c, 2, 1, 8
11, 84544, Control_c, 2, 1, 8
11, 84548, Control_c, 2, 1, 9
11, 84556, Control_c, 2, 1, 9
11, 84560, Control_c, 2, 1, 9
11, 84568, Control_c, 2, 1, 9
11, 84576, Control_c, 2, 1, 10
11, 84580, Control_c, 2, 1, 10
11, 84588, Control_c, 2, 1, 10
11, 84592, Control_c, 2, 1, 11
11, 84600, Control_c, 2, 1, 11
11, 84608, Control_c, 2, 1, 11
11, 84612, Control_c, 2, 1, 11
11, 84620, Control_c, 2, 1, 12
11, 84624, Control_c, 2, 1, 12
11, 84632, Control_c, 2, 1, 12
11, 84640, Control_c, 2, 1, 13
11, 84644, Control_c, 2, 1, 13
11, 84652, Control_c, 2, 1, 13
11, 84656, Control_c, 2, 1, 13
11, 84664, Control_c, 2, 1, 14
11, 84672, Control_c, 2, 1, 14
11, 84676, Control_c, 2, 1, 14
11, 84684, Control_c, 2, 1, 15
11, 84688, Control_c, 2, 1, 15
11, 84696, Control_c, 2, 1, 16
11, 84704, Control_c, 2, 1, 16
11, 84708, Control_c, 2, 1, 17
11, 84716, Control_c, 2, 1, 17
11, 84720, Control_c, 2, 1, 17
11, 84728, Control_c, 2, 1, 17
11, 84736, Control_c, 2, 1, 17
11, 84740, Control_c, 2, 1, 17
11, 84748, Control_c, 2, 1, 18
11, 84752, Control_c, 2, 1, 18
11, 84760, Control_c, 2, 1, 18
11, 84768, Control_c, 2, 1, 18
11, 84772, Control_c, 2, 1, 18
11, 84780, Control_c, 2, 1, 18
11, 84784, Control_c, 2, 1, 18
11, 84792, Control_c, 2, 1, 19
11, 84800, Control_c, 2, 1, 19
11, 84804, Control_c, 2, 1, 19
11, 84812, Control_c, 2, 1, 19
11, 84816, Control_c, 2, 1, 19
11, 84824, Control_c, 2, 1, 19
11, 84832, Control_c, 2, 1, 20
11, 84836, Control_c, 2, 1, 20
11, 84844, Control_c, 2, 1, 20
11, 84848, Control_c, 2, 1, 20
11, 84856, Control_c, 2, 1, 21
11, 84864, Control_c, 2, 1, 21
11, 84868, Control_c, 2, 1, 21
11, 84876, Control_c, 2, 1, 21
11, 84880, Control_c, 2, 1, 21
11, 84888, Control_c, 2, 1, 22
11, 84896, Control_c, 2, 1, 22
11, 84900, Control_c, 2, 1, 22
11, 84908, Control_c, 2, 1, 22
11, 84912, Control_c, 2, 1, 22
11, 84920, Control_c, 2, 1, 22
11, 84928, Control_c, 2, 1, 22
11, 84932, Control_c, 2, 1, 22
11, 84940, Control_c, 2, 1, 23
11, 84944, Control_c, 2, 1, 23
11, 84952, Control_c, 2, 1, 23
11, 84960, Control_c, 2, 1, 23
11, 84964, Control_c, 2, 1, 23
11, 84972, Control_c, 2, 1, 23
11, 84976, Control_c, 2, 1, 23
11, 84984, Control_c, 2, 1, 23
11, 84992, Control_c, 2, 1, 23
11, 84996, Control_c, 2, 1, 23
11, 85004, Control_c, 2, 1, 23
11, 85008, Control_c, 2, 1, 23
11, 85016, Control_c, 2, 1, 23
11, 85024, Control_c, 2, 1, 23
11, 85028, Control_c, 2, 1, 24
11, 85036, Control_c, 2, 1, 24
11, 85040, Control_c, 2, 1, 24
11, 85048, Control_c, 2, 1, 24
11, 85056, Control_c, 2, 1, 24
11, 85060, Control_c, 2, 1, 24
11, 85068, Control_c, 2, 1, 25
11, 85072, Control_c, 2, 1, 25
11, 85080, Control_c, 2, 1, 25
11, 85088, Control_c, 2, 1, 25
11, 85092, Control_c, 2, 1, 25
11, 85100, Control_c, 2, 1, 25
11, 85104, Control_c, 2, 1, 25
11, 85112, Control_c, 2, 1, 25
11, 85120, Control_c, 2, 1, 25
11, 85124, Control_c, 2, 1, 26
11, 85132, Control_c, 2, 1, 26
11, 85136, Control_c, 2, 1, 26
11, 85144, Control_c, 2, 1, 26
11, 85152, Control_c, 2, 1, 26
11, 85156, Control_c, 2, 1, 26
11, 85164, Control_c, 2, 1, 26
11, 85168, Control_c, 2, 1, 26
11, 85176, Control_c, 2, 1, 26
11, 85184, Control_c, 2, 1, 26
11, 85188, Control_c, 2, 1, 26
11, 85196, Control_c, 2, 1, 26
11, 85200, Control_c, 2, 1, 24
11, 85208, Control_c, 2, 1, 26
11, 85216, Control_c, 2, 1, 26
11, 85220, Control_c, 2, 1, 26
11, 85228, Control_c, 2, 1, 25
11, 85232, Control_c, 2, 1, 26
11, 85240, Control_c, 2, 1, 26
11, 85248, Control_c, 2, 1, 26
11, 85252, Control_c, 2, 1, 26
11, 85260, Control_c, 2, 1, 26
11, 85264, Control_c, 2, 1, 26
11, 85272, Control_c, 2, 1, 26
11, 85280, Control_c, 2, 1, 26
11, 85284, Control_c, 2, 1, 26
11, 85292, Control_c, 2, 1, 26
11, 85296, Control_c, 2, 1, 26
11, 85304, Control_c, 2, 1, 26
11, 85312, Control_c, 2, 1, 26
11, 85316, Control_c, 2, 1, 26
11, 85324, Control_c, 2, 1, 26
11, 85328, Control_c, 2, 1, 26
11, 85336, Control_c, 2, 1, 26
11, 85344, Control_c, 2, 1, 26
11, 85348, Control_c, 2, 1, 29
11, 85356, Control_c, 2, 1, 28
11, 85360, Control_c, 2, 1, 28
11, 85368, Control_c, 2, 1, 28
11, 85376, Control_c, 2, 1, 28
11, 85380, Control_c, 2, 1, 28
11, 85388, Control_c, 2, 1, 28
11, 85392, Control_c, 2, 1, 28
11, 85400, Control_c, 2, 1, 27
11, 85408, Control_c, 2, 1, 27
11, 85412, Control_c, 2, 1, 27
11, 85420, Control_c, 2, 1, 27
11, 85424, Control_c, 2, 1, 27
11, 85432, Control_c, 2, 1, 27
11, 85440, Control_c, 2, 1, 27
11, 85444, Control_c, 2, 1, 26
11, 85452, Control_c, 2, 1, 26
11, 85456, Control_c, 2, 1, 26
11, 85464, Control_c, 2, 1, 27
11, 85472, Control_c, 2, 1, 27
11, 85476, Control_c, 2, 1, 28
11, 85484, Control_c, 2, 1, 26
11, 85488, Control_c, 2, 1, 26
11, 85496, Control_c, 2, 1, 30
11, 85504, Control_c, 2, 1, 26
11, 85508, Control_c, 2, 1, 26
11, 85516, Control_c, 2, 1, 26
11, 85520, Control_c, 2, 1, 25
11, 85528, Control_c, 2, 1, 25
11, 85536, Control_c, 2, 1, 25
11, 85540, Control_c, 2, 1, 24
11, 85548, Control_c, 2, 1, 24
11, 85552, Control_c, 2, 1, 24
11, 85560, Control_c, 2, 1, 24
11, 85568, Control_c, 2, 1, 24
11, 85572, Control_c, 2, 1, 24
11, 85580, Control_c, 2, 1, 24
11, 85584, Control_c, 2, 1, 23
11, 85592, Control_c, 2, 1, 22
11, 85600, Control_c, 2, 1, 22
11, 85604, Control_c, 2, 1, 22
11, 85612, Control_c, 2, 1, 22
11, 85616, Control_c, 2, 1, 22
11, 85624, Control_c, 2, 1, 22
11, 85632, Control_c, 2, 1, 21
11, 85636, Control_c, 2, 1, 21
11, 85644, Control_c, 2, 1, 21
11, 85648, Control_c, 2, 1, 21
11, 85656, Control_c, 2, 1, 21
11, 85664, Control_c, 2, 1, 20
11, 85668, Control_c, 2, 1, 20
11, 85676, Control_c, 2, 1, 19
11, 85680, Control_c, 2, 1, 19
11, 85688, Control_c, 2, 1, 19
11, 85696, Control_c, 2, 1, 19
11, 85700, Control_c, 2, 1, 19
11, 85708, Control_c, 2, 1, 19
11, 85712, Control_c, 2, 1, 19
11, 85720, Control_c, 2, 1, 19
11, 85728, Control_c, 2, 1, 19
11, 85732, Control_c, 2, 1, 18
11, 85740, Control_c, 2, 1, 18
11, 85744, Control_c, 2, 1, 18
11, 85752, Control_c, 2, 1, 17
11, 85756, Channel_aftertouch_c, 2, 125
11, 85760, Control_c, 2, 1, 17
11, 85764, Control_c, 2, 1, 15
11, 85768, Channel_aftertouch_c, 2, 125
11, 85772, Control_c, 2, 1, 15
11, 85776, Control_c, 2, 1, 18
11, 85784, Control_c, 2, 1, 18
11, 85792, Control_c, 2, 1, 15
11, 85796, Control_c, 2, 1, 17
11, 85804, Control_c, 2, 1, 17
11, 85804, Channel_aftertouch_c, 2, 124
11, 85808, Control_c, 2, 1, 17
11, 85816, Channel_aftertouch_c, 2, 124
11, 85816, Control_c, 2, 1, 17
11, 85824, Control_c, 2, 1, 17
11, 85828, Control_c, 2, 1, 15
11, 85836, Control_c, 2, 1, 17
11, 85840, Channel_aftertouch_c, 2, 123
11, 85840, Control_c, 2, 1, 17
11, 85848, Control_c, 2, 1, 17
11, 85856, Control_c, 2, 1, 17
11, 85860, Control_c, 2, 1, 17
11, 85868, Control_c, 2, 1, 17
11, 85872, Control_c, 2, 1, 15
11, 85880, Control_c, 2, 1, 17
11, 85888, Control_c, 2, 1, 15
11, 85892, Control_c, 2, 1, 15
11, 85900, Control_c, 2, 1, 16
11, 85904, Control_c, 2, 1, 16
11, 85912, Control_c, 2, 1, 16
11, 85920, Control_c, 2, 1, 17
11, 85924, Control_c, 2, 1, 17
11, 85928, Channel_aftertouch_c, 2, 123
11, 85932, Control_c, 2, 1, 17
11, 85936, Control_c, 2, 1, 17
11, 85940, Channel_aftertouch_c, 2, 122
11, 85944, Control_c, 2, 1, 17
11, 85952, Control_c, 2, 1, 17
11, 85956, Control_c, 2, 1, 17
11, 85964, Control_c, 2, 1, 18
11, 85968, Control_c, 2, 1, 18
11, 85972, Channel_aftertouch_c, 2, 122
11, 85976, Control_c, 2, 1, 18
11, 85984, Control_c, 2, 1, 18
11, 85988, Control_c, 2, 1, 18
11, 85996, Control_c, 2, 1, 18
11, 86000, Control_c, 2, 1, 18
11, 86008, Channel_aftertouch_c, 2, 121
11, 86008, Control_c, 2, 1, 18
11, 86016, Control_c, 2, 1, 18
11, 86020, Control_c, 2, 1, 17
11, 86028, Control_c, 2, 1, 17
11, 86032, Control_c, 2, 1, 17
11, 86040, Control_c, 2, 1, 17
11, 86048, Control_c, 2, 1, 17
11, 86052, Control_c, 2, 1, 17
11, 86060, Control_c, 2, 1, 17
11, 86064, Control_c, 2, 1, 16
11, 86072, Control_c, 2, 1, 16
11, 86072, Channel_aftertouch_c, 2, 121
11, 86080, Control_c, 2, 1, 16
11, 86084, Control_c, 2, 1, 16
11, 86084, Channel_aftertouch_c, 2, 120
11, 86092, Control_c, 2, 1, 16
11, 86096, Control_c, 2, 1, 17
11, 86104, Control_c, 2, 1, 17
11, 86108, Channel_aftertouch_c, 2, 120
11, 86112, Control_c, 2, 1, 17
11, 86116, Control_c, 2, 1, 17
11, 86124, Control_c, 2, 1, 17
11, 86128, Control_c, 2, 1, 17
11, 86136, Control_c, 2, 1, 17
11, 86144, Control_c, 2, 1, 17
11, 86148, Control_c, 2, 1, 17
11, 86156, Control_c, 2, 1, 18
11, 86160, Control_c, 2, 1, 18
11, 86168, Control_c, 2, 1, 18
11, 86176, Control_c, 2, 1, 18
11, 86180, Control_c, 2, 1, 18
11, 86188, Control_c, 2, 1, 18
11, 86192, Control_c, 2, 1, 18
11, 86200, Control_c, 2, 1, 18
11, 86208, Control_c, 2, 1, 18
11, 86212, Control_c, 2, 1, 18
11, 86220, Control_c, 2, 1, 18
11, 86224, Control_c, 2, 1, 18
11, 86232, Channel_aftertouch_c, 2, 122
11, 86232, Control_c, 2, 1, 18
11, 86240, Control_c, 2, 1, 18
11, 86244, Control_c, 2, 1, 18
11, 86252, Control_c, 2, 1, 18
11, 86252, Channel_aftertouch_c, 2, 122
11, 86256, Control_c, 2, 1, 18
11, 86264, Control_c, 2, 1, 18
11, 86264, Channel_aftertouch_c, 2, 123
11, 86272, Control_c, 2, 1, 18
11, 86276, Control_c, 2, 1, 18
11, 86276, Channel_aftertouch_c, 2, 125
11, 86284, Control_c, 2, 1, 18
11, 86288, Control_c, 2, 1, 18
11, 86288, Channel_aftertouch_c, 2, 126
11, 86296, Control_c, 2, 1, 18
11, 86300, Channel_aftertouch_c, 2, 126
11, 86304, Control_c, 2, 1, 18
11, 86308, Control_c, 2, 1, 19
11, 86312, Channel_aftertouch_c, 2, 127
11, 86316, Control_c, 2, 1, 19
11, 86320, Control_c, 2, 1, 19
11, 86328, Control_c, 2, 1, 19
11, 86336, Control_c, 2, 1, 19
11, 86340, Control_c, 2, 1, 20
11, 86348, Control_c, 2, 1, 20
11, 86352, Control_c, 2, 1, 20
11, 86360, Control_c, 2, 1, 21
11, 86368, Control_c, 2, 1, 21
11, 86372, Control_c, 2, 1, 21
11, 86380, Control_c, 2, 1, 21
11, 86384, Control_c, 2, 1, 22
11, 86392, Control_c, 2, 1, 22
11, 86400, Control_c, 2, 1, 22
11, 86404, Control_c, 2, 1, 22
11, 86412, Control_c, 2, 1, 23
11, 86416, Control_c, 2, 1, 23
11, 86424, Control_c, 2, 1, 23
11, 86432, Control_c, 2, 1, 23
11, 86436, Control_c, 2, 1, 23
11, 86444, Control_c, 2, 1, 23
11, 86448, Control_c, 2, 1, 23
11, 86456, Control_c, 2, 1, 23
11, 86464, Control_c, 2, 1, 23
11, 86468, Control_c, 2, 1, 23
11, 86476, Control_c, 2, 1, 23
11, 86480, Control_c, 2, 1, 23
11, 86488, Control_c, 2, 1, 23
11, 86496, Control_c, 2, 1, 23
11, 86500, Control_c, 2, 1, 24
11, 86508, Control_c, 2, 1, 24
11, 86512, Control_c, 2, 1, 24
11, 86520, Control_c, 2, 1, 24
11, 86528, Control_c, 2, 1, 24
11, 86532, Control_c, 2, 1, 24
11, 86540, Control_c, 2, 1, 24
11, 86544, Control_c, 2, 1, 24
11, 86552, Control_c, 2, 1, 24
11, 86560, Control_c, 2, 1, 24
11, 86564, Control_c, 2, 1, 25
11, 86572, Control_c, 2, 1, 25
11, 86576, Control_c, 2, 1, 25
11, 86584, Control_c, 2, 1, 25
11, 86592, Control_c, 2, 1, 25
11, 86596, Control_c, 2, 1, 25
11, 86604, Control_c, 2, 1, 25
11, 86608, Control_c, 2, 1, 25
11, 86616, Control_c, 2, 1, 26
11, 86624, Control_c, 2, 1, 26
11, 86628, Control_c, 2, 1, 26
11, 86636, Control_c, 2, 1, 26
11, 86640, Control_c, 2, 1, 26
11, 86648, Control_c, 2, 1, 26
11, 86656, Control_c, 2, 1, 26
11, 86660, Control_c, 2, 1, 26
11, 86668, Control_c, 2, 1, 26
11, 86672, Control_c, 2, 1, 26
11, 86680, Control_c, 2, 1, 26
11, 86688, Control_c, 2, 1, 27
11, 86692, Control_c, 2, 1, 27
11, 86700, Control_c, 2, 1, 27
11, 86704, Control_c, 2, 1, 27
11, 86712, Control_c, 2, 1, 27
11, 86720, Control_c, 2, 1, 27
11, 86724, Control_c, 2, 1, 27
11, 86732, Control_c, 2, 1, 27
11, 86736, Control_c, 2, 1, 27
11, 86744, Control_c, 2, 1, 27
11, 86752, Control_c, 2, 1, 27
11, 86756, Control_c, 2, 1, 27
11, 86764, Control_c, 2, 1, 27
11, 86768, Control_c, 2, 1, 27
11, 86776, Control_c, 2, 1, 27
11, 86784, Control_c, 2, 1, 27
11, 86788, Control_c, 2, 1, 27
11, 86796, Control_c, 2, 1, 28
11, 86800, Control_c, 2, 1, 28
11, 86808, Control_c, 2, 1, 28
11, 86816, Control_c, 2, 1, 28
11, 86820, Control_c, 2, 1, 28
11, 86828, Control_c, 2, 1, 29
11, 86832, Control_c, 2, 1, 29
11, 86840, Control_c, 2, 1, 29
11, 86848, Control_c, 2, 1, 29
11, 86852, Control_c, 2, 1, 29
11, 86860, Control_c, 2, 1, 30
11, 86864, Control_c, 2, 1, 30
11, 86872, Control_c, 2, 1, 31
11, 86880, Control_c, 2, 1, 31
11, 86884, Control_c, 2, 1, 31
11, 86892, Control_c, 2, 1, 32
11, 86896, Control_c, 2, 1, 32
11, 86904, Control_c, 2, 1, 32
11, 86912, Control_c, 2, 1, 32
11, 86916, Control_c, 2, 1, 33
11, 86924, Control_c, 2, 1, 33
11, 86928, Control_c, 2, 1, 34
11, 86936, Control_c, 2, 1, 34
11, 86944, Control_c, 2, 1, 35
11, 86948, Control_c, 2, 1, 35
11, 86956, Control_c, 2, 1, 35
11, 86960, Control_c, 2, 1, 34
11, 86968, Control_c, 2, 1, 34
11, 86976, Control_c, 2, 1, 34
11, 86980, Control_c, 2, 1, 34
11, 86988, Control_c, 2, 1, 34
11, 86992, Control_c, 2, 1, 35
11, 87000, Control_c, 2, 1, 35
11, 87008, Control_c, 2, 1, 35
11, 87012, Control_c, 2, 1, 35
11, 87020, Control_c, 2, 1, 35
11, 87024, Control_c, 2, 1, 35
11, 87032, Control_c, 2, 1, 35
11, 87040, Control_c, 2, 1, 35
11, 87044, Control_c, 2, 1, 35
11, 87052, Control_c, 2, 1, 36
11, 87056, Control_c, 2, 1, 36
11, 87064, Control_c, 2, 1, 36
11, 87072, Control_c, 2, 1, 35
11, 87076, Control_c, 2, 1, 35
11, 87084, Control_c, 2, 1, 35
11, 87088, Control_c, 2, 1, 37
11, 87096, Control_c, 2, 1, 37
11, 87104, Control_c, 2, 1, 35
11, 87108, Control_c, 2, 1, 35
11, 87116, Control_c, 2, 1, 36
11, 87120, Control_c, 2, 1, 36
11, 87128, Control_c, 2, 1, 36
11, 87136, Control_c, 2, 1, 36
11, 87140, Control_c, 2, 1, 36
11, 87148, Control_c, 2, 1, 36
11, 87152, Control_c, 2, 1, 36
11, 87160, Control_c, 2, 1, 36
11, 87168, Control_c, 2, 1, 37
11, 87172, Control_c, 2, 1, 37
11, 87180, Control_c, 2, 1, 37
11, 87184, Control_c, 2, 1, 37
11, 87192, Control_c, 2, 1, 37
11, 87200, Control_c, 2, 1, 37
11, 87204, Control_c, 2, 1, 37
11, 87212, Control_c, 2, 1, 37
11, 87216, Control_c, 2, 1, 38
11, 87224, Control_c, 2, 1, 38
11, 87232, Control_c, 2, 1, 38
11, 87236, Control_c, 2, 1, 39
11, 87244, Control_c, 2, 1, 39
11, 87248, Control_c, 2, 1, 39
11, 87256, Control_c, 2, 1, 39
11, 87264, Control_c, 2, 1, 39
11, 87268, Control_c, 2, 1, 39
11, 87276, Control_c, 2, 1, 40
11, 87280, Control_c, 2, 1, 40
11, 87288, Control_c, 2, 1, 40
11, 87296, Control_c, 2, 1, 40
11, 87300, Control_c, 2, 1, 40
11, 87308, Control_c, 2, 1, 40
11, 87312, Control_c, 2, 1, 40
11, 87320, Control_c, 2, 1, 41
11, 87328, Control_c, 2, 1, 41
11, 87332, Control_c, 2, 1, 41
11, 87340, Control_c, 2, 1, 42
11, 87344, Control_c, 2, 1, 42
11, 87352, Control_c, 2, 1, 42
11, 87360, Control_c, 2, 1, 42
11, 87364, Control_c, 2, 1, 43
11, 87372, Control_c, 2, 1, 43
11, 87376, Control_c, 2, 1, 43
11, 87384, Control_c, 2, 1, 43
11, 87392, Control_c, 2, 1, 43
11, 87396, Control_c, 2, 1, 43
11, 87404, Control_c, 2, 1, 43
11, 87408, Control_c, 2, 1, 43
11, 87416, Control_c, 2, 1, 41
11, 87424, Control_c, 2, 1, 41
11, 87428, Control_c, 2, 1, 41
11, 87436, Control_c, 2, 1, 43
11, 87440, Control_c, 2, 1, 41
11, 87448, Control_c, 2, 1, 43
11, 87456, Control_c, 2, 1, 43
11, 87460, Control_c, 2, 1, 42
11, 87468, Control_c, 2, 1, 42
11, 87472, Control_c, 2, 1, 42
11, 87480, Control_c, 2, 1, 42
11, 87488, Control_c, 2, 1, 41
11, 87492, Control_c, 2, 1, 41
11, 87500, Control_c, 2, 1, 41
11, 87504, Control_c, 2, 1, 41
11, 87512, Control_c, 2, 1, 41
11, 87520, Control_c, 2, 1, 40
11, 87524, Control_c, 2, 1, 40
11, 87532, Control_c, 2, 1, 40
11, 87536, Control_c, 2, 1, 40
11, 87544, Control_c, 2, 1, 40
11, 87552, Control_c, 2, 1, 40
11, 87556, Control_c, 2, 1, 40
11, 87564, Control_c, 2, 1, 39
11, 87568, Control_c, 2, 1, 39
11, 87576, Control_c, 2, 1, 39
11, 87584, Control_c, 2, 1, 39
11, 87588, Control_c, 2, 1, 38
11, 87596, Control_c, 2, 1, 38
11, 87600, Control_c, 2, 1, 38
11, 87608, Control_c, 2, 1, 38
11, 87616, Control_c, 2, 1, 38
11, 87620, Control_c, 2, 1, 38
11, 87628, Control_c, 2, 1, 37
11, 87632, Control_c, 2, 1, 37
11, 87640, Control_c, 2, 1, 37
11, 87648, Control_c, 2, 1, 37
11, 87652, Control_c, 2, 1, 37
11, 87660, Control_c, 2, 1, 37
11, 87664, Control_c, 2, 1, 37
11, 87672, Control_c, 2, 1, 36
11, 87680, Control_c, 2, 1, 36
11, 87684, Control_c, 2, 1, 35
11, 87692, Control_c, 2, 1, 34
11, 87696, Control_c, 2, 1, 34
11, 87704, Control_c, 2, 1, 34
11, 87712, Control_c, 2, 1, 33
11, 87716, Control_c, 2, 1, 33
11, 87724, Control_c, 2, 1, 33
11, 87728, Control_c, 2, 1, 33
11, 87736, Control_c, 2, 1, 33
11, 87744, Control_c, 2, 1, 33
11, 87748, Control_c, 2, 1, 33
11, 87756, Control_c, 2, 1, 33
11, 87760, Control_c, 2, 1, 33
11, 87768, Control_c, 2, 1, 33
11, 87768, Channel_aftertouch_c, 2, 125
11, 87776, Control_c, 2, 1, 33
11, 87780, Control_c, 2, 1, 33
11, 87780, Channel_aftertouch_c, 2, 123
11, 87788, Control_c, 2, 1, 33
11, 87792, Channel_aftertouch_c, 2, 120
11, 87792, Control_c, 2, 1, 32
11, 87800, Control_c, 2, 1, 30
11, 87808, Control_c, 2, 1, 32
11, 87812, Control_c, 2, 1, 32
11, 87820, Control_c, 2, 1, 32
11, 87824, Control_c, 2, 1, 32
11, 87832, Control_c, 2, 1, 33
11, 87840, Control_c, 2, 1, 33
11, 87844, Control_c, 2, 1, 33
11, 87852, Control_c, 2, 1, 33
11, 87856, Control_c, 2, 1, 33
11, 87864, Control_c, 2, 1, 33
11, 87872, Control_c, 2, 1, 33
11, 87876, Control_c, 2, 1, 33
11, 87880, Channel_aftertouch_c, 2, 122
11, 87884, Control_c, 2, 1, 33
11, 87888, Control_c, 2, 1, 33
11, 87892, Channel_aftertouch_c, 2, 122
11, 87896, Control_c, 2, 1, 32
11, 87904, Control_c, 2, 1, 32
11, 87904, Channel_aftertouch_c, 2, 123
11, 87908, Control_c, 2, 1, 33
11, 87916, Control_c, 2, 1, 32
11, 87920, Control_c, 2, 1, 33
11, 87928, Control_c, 2, 1, 33
11, 87936, Control_c, 2, 1, 33
11, 87940, Control_c, 2, 1, 32
11, 87948, Control_c, 2, 1, 33
11, 87952, Control_c, 2, 1, 33
11, 87960, Control_c, 2, 1, 34
11, 87968, Control_c, 2, 1, 34
11, 87972, Control_c, 2, 1, 32
11, 87980, Control_c, 2, 1, 34
11, 87984, Control_c, 2, 1, 34
11, 87992, Control_c, 2, 1, 34
11, 88000, Control_c, 2, 1, 34
11, 88004, Control_c, 2, 1, 34
11, 88012, Control_c, 2, 1, 34
11, 88016, Control_c, 2, 1, 34
11, 88024, Control_c, 2, 1, 34
11, 88032, Control_c, 2, 1, 34
11, 88036, Control_c, 2, 1, 34
11, 88044, Control_c, 2, 1, 34
11, 88048, Control_c, 2, 1, 34
11, 88056, Control_c, 2, 1, 34
11, 88064, Control_c, 2, 1, 34
11, 88068, Control_c, 2, 1, 34
11, 88076, Control_c, 2, 1, 34
11, 88080, Control_c, 2, 1, 35
11, 88088, Control_c, 2, 1, 35
11, 88096, Control_c, 2, 1, 35
11, 88100, Control_c, 2, 1, 35
11, 88108, Control_c, 2, 1, 35
11, 88112, Control_c, 2, 1, 35
11, 88120, Control_c, 2, 1, 35
11, 88128, Control_c, 2, 1, 35
11, 88132, Control_c, 2, 1, 35
11, 88140, Control_c, 2, 1, 35
11, 88144, Control_c, 2, 1, 35
11, 88152, Control_c, 2, 1, 35
11, 88160, Control_c, 2, 1, 35
11, 88164, Control_c, 2, 1, 35
11, 88172, Control_c, 2, 1, 35
11, 88176, Control_c, 2, 1, 35
11, 88184, Control_c, 2, 1, 35
11, 88192, Control_c, 2, 1, 35
11, 88196, Control_c, 2, 1, 36
11, 88204, Control_c, 2, 1, 36
11, 88208, Control_c, 2, 1, 36
11, 88216, Control_c, 2, 1, 36
11, 88224, Control_c, 2, 1, 36
11, 88228, Control_c, 2, 1, 36
11, 88236, Control_c, 2, 1, 36
11, 88240, Control_c, 2, 1, 36
11, 88248, Control_c, 2, 1, 36
11, 88256, Control_c, 2, 1, 37
11, 88260, Control_c, 2, 1, 37
11, 88268, Control_c, 2, 1, 37
11, 88272, Control_c, 2, 1, 37
11, 88280, Control_c, 2, 1, 37
11, 88288, Control_c, 2, 1, 37
11, 88292, Control_c, 2, 1, 37
11, 88300, Control_c, 2, 1, 37
11, 88304, Control_c, 2, 1, 35
11, 88312, Control_c, 2, 1, 35
11, 88320, Control_c, 2, 1, 36
11, 88324, Control_c, 2, 1, 36
11, 88332, Control_c, 2, 1, 37
11, 88336, Control_c, 2, 1, 37
11, 88344, Control_c, 2, 1, 37
11, 88352, Control_c, 2, 1, 38
11, 88356, Control_c, 2, 1, 38
11, 88364, Control_c, 2, 1, 38
11, 88368, Control_c, 2, 1, 39
11, 88376, Control_c, 2, 1, 39
11, 88384, Control_c, 2, 1, 39
11, 88388, Control_c, 2, 1, 40
11, 88396, Control_c, 2, 1, 40
11, 88400, Control_c, 2, 1, 41
11, 88408, Control_c, 2, 1, 41
11, 88416, Control_c, 2, 1, 41
11, 88420, Control_c, 2, 1, 41
11, 88424, Channel_aftertouch_c, 2, 121
11, 88428, Control_c, 2, 1, 41
11, 88432, Control_c, 2, 1, 39
11, 88440, Channel_aftertouch_c, 2, 120
11, 88440, Control_c, 2, 1, 42
11, 88448, Control_c, 2, 1, 42
11, 88448, Channel_aftertouch_c, 2, 120
11, 88452, Control_c, 2, 1, 42
11, 88460, Control_c, 2, 1, 40
11, 88464, Control_c, 2, 1, 43
11, 88472, Control_c, 2, 1, 43
11, 88472, Channel_aftertouch_c, 2, 119
11, 88480, Control_c, 2, 1, 43
11, 88484, Control_c, 2, 1, 43
11, 88492, Control_c, 2, 1, 43
11, 88496, Channel_aftertouch_c, 2, 119
11, 88496, Control_c, 2, 1, 40
11, 88504, Control_c, 2, 1, 43
11, 88508, Channel_aftertouch_c, 2, 118
11, 88512, Control_c, 2, 1, 43
11, 88516, Control_c, 2, 1, 40
11, 88520, Channel_aftertouch_c, 2, 117
11, 88524, Control_c, 2, 1, 43
11, 88528, Control_c, 2, 1, 43
11, 88532, Channel_aftertouch_c, 2, 117
11, 88536, Control_c, 2, 1, 43
11, 88544, Control_c, 2, 1, 43
11, 88544, Channel_aftertouch_c, 2, 116
11, 88548, Control_c, 2, 1, 41
11, 88556, Control_c, 2, 1, 41
11, 88556, Channel_aftertouch_c, 2, 115
11, 88560, Control_c, 2, 1, 43
11, 88568, Channel_aftertouch_c, 2, 115
11, 88568, Control_c, 2, 1, 43
11, 88576, Control_c, 2, 1, 43
11, 88580, Channel_aftertouch_c, 2, 114
11, 88580, Control_c, 2, 1, 41
11, 88588, Control_c, 2, 1, 43
11, 88592, Control_c, 2, 1, 43
11, 88600, Control_c, 2, 1, 43
11, 88608, Control_c, 2, 1, 43
11, 88612, Control_c, 2, 1, 43
11, 88620, Control_c, 2, 1, 43
11, 88624, Channel_aftertouch_c, 2, 113
11, 88624, Control_c, 2, 1, 43
11, 88632, Control_c, 2, 1, 43
11, 88640, Control_c, 2, 1, 43
11, 88644, Control_c, 2, 1, 43
11, 88652, Control_c, 2, 1, 43
11, 88656, Control_c, 2, 1, 43
11, 88664, Control_c, 2, 1, 43
11, 88672, Control_c, 2, 1, 43
11, 88676, Control_c, 2, 1, 43
11, 88684, Control_c, 2, 1, 43
11, 88688, Control_c, 2, 1, 43
11, 88688, Channel_aftertouch_c, 2, 113
11, 88696, Control_c, 2, 1, 43
11, 88704, Control_c, 2, 1, 43
11, 88704, Channel_aftertouch_c, 2, 112
11, 88708, Control_c, 2, 1, 43
11, 88712, Channel_aftertouch_c, 2, 109
11, 88716, Control_c, 2, 1, 43
11, 88720, Control_c, 2, 1, 43
11, 88728, Channel_aftertouch_c, 2, 107
11, 88728, Control_c, 2, 1, 43
11, 88736, Control_c, 2, 1, 43
11, 88740, Channel_aftertouch_c, 2, 105
11, 88740, Control_c, 2, 1, 43
11, 88748, Control_c, 2, 1, 43
11, 88752, Control_c, 2, 1, 43
11, 88760, Control_c, 2, 1, 43
11, 88768, Control_c, 2, 1, 43
11, 88772, Control_c, 2, 1, 43
11, 88772, Channel_aftertouch_c, 2, 108
11, 88780, Control_c, 2, 1, 43
11, 88784, Channel_aftertouch_c, 2, 108
11, 88784, Control_c, 2, 1, 43
11, 88792, Control_c, 2, 1, 43
11, 88796, Channel_aftertouch_c, 2, 109
11, 88800, Control_c, 2, 1, 43
11, 88804, Control_c, 2, 1, 43
11, 88808, Channel_aftertouch_c, 2, 109
11, 88812, Control_c, 2, 1, 44
11, 88816, Control_c, 2, 1, 44
11, 88820, Channel_aftertouch_c, 2, 110
11, 88824, Control_c, 2, 1, 43
11, 88832, Control_c, 2, 1, 44
11, 88836, Control_c, 2, 1, 44
11, 88844, Control_c, 2, 1, 43
11, 88848, Control_c, 2, 1, 43
11, 88856, Control_c, 2, 1, 43
11, 88864, Control_c, 2, 1, 40
11, 88868, Control_c, 2, 1, 40
11, 88876, Control_c, 2, 1, 39
11, 88876, Channel_aftertouch_c, 2, 107
11, 88880, Control_c, 2, 1, 39
11, 88888, Control_c, 2, 1, 39
11, 88888, Channel_aftertouch_c, 2, 91
11, 88896, Control_c, 2, 1, 38
11, 88900, Control_c, 2, 1, 38
11, 88900, Channel_aftertouch_c, 2, 27
11, 88908, Control_c, 2, 1, 38
11, 88912, Channel_aftertouch_c, 2, 0
11, 88912, Control_c, 2, 1, 37
11, 88920, Note_on_c, 2, 79, 0
11, 88920, Control_c, 2, 1, 37
11, 88924, Note_on_c, 2, 83, 0
11, 88928, Control_c, 2, 1, 37
11, 88932, Control_c, 2, 1, 36
11, 88940, Control_c, 2, 1, 36
11, 88944, Control_c, 2, 1, 36
11, 88952, Control_c, 2, 1, 35
11, 88960, Control_c, 2, 1, 35
11, 88964, Control_c, 2, 1, 35
11, 88972, Control_c, 2, 1, 35
11, 88976, Control_c, 2, 1, 35
11, 88984, Control_c, 2, 1, 35
11, 88992, Control_c, 2, 1, 35
11, 88996, Control_c, 2, 1, 34
11, 89004, Control_c, 2, 1, 34
11, 89008, Control_c, 2, 1, 34
11, 89016, Control_c, 2, 1, 34
11, 89024, Control_c, 2, 1, 33
11, 89028, Control_c, 2, 1, 33
11, 89036, Control_c, 2, 1, 33
11, 89040, Control_c, 2, 1, 33
11, 89048, Control_c, 2, 1, 33
11, 89056, Control_c, 2, 1, 32
11, 89092, Control_c, 2, 1, 0
11, 89104, Control_c, 2, 7, 95
11, 89104, Note_on_c, 2, 83, 100
11, 89104, Control_c, 2, 1, 0
11, 89104, Note_on_c, 2, 88, 92
11, 89112, Control_c, 2, 1, 1
11, 89120, Control_c, 2, 1, 1
11, 89120, Channel_aftertouch_c, 2, 70
11, 89124, Control_c, 2, 1, 1
11, 89132, Control_c, 2, 1, 0
11, 89132, Channel_aftertouch_c, 2, 78
11, 89136, Control_c, 2, 1, 1
11, 89144, Control_c, 2, 1, 0
11, 89144, Channel_aftertouch_c, 2, 74
11, 89152, Control_c, 2, 1, 1
11, 89156, Channel_aftertouch_c, 2, 67
11, 89156, Control_c, 2, 1, 1
11, 89164, Control_c, 2, 1, 0
11, 89168, Channel_aftertouch_c, 2, 65
11, 89168, Control_c, 2, 1, 0
11, 89176, Control_c, 2, 1, 0
11, 89184, Control_c, 2, 1, 0
11, 89188, Control_c, 2, 1, 0
11, 89192, Channel_aftertouch_c, 2, 68
11, 89196, Control_c, 2, 1, 0
11, 89200, Control_c, 2, 1, 0
11, 89204, Channel_aftertouch_c, 2, 68
11, 89208, Control_c, 2, 1, 0
11, 89216, Control_c, 2, 1, 0
11, 89220, Control_c, 2, 1, 0
11, 89224, Channel_aftertouch_c, 2, 65
11, 89228, Control_c, 2, 1, 0
11, 89232, Control_c, 2, 1, 0
11, 89236, Channel_aftertouch_c, 2, 64
11, 89240, Control_c, 2, 1, 0
11, 89248, Control_c, 2, 1, 0
11, 89272, Channel_aftertouch_c, 2, 64
11, 89284, Channel_aftertouch_c, 2, 63
11, 89328, Channel_aftertouch_c, 2, 65
11, 89340, Channel_aftertouch_c, 2, 66
11, 89396, Channel_aftertouch_c, 2, 66
11, 89408, Channel_aftertouch_c, 2, 67
11, 89420, Channel_aftertouch_c, 2, 68
11, 89432, Channel_aftertouch_c, 2, 68
11, 89444, Channel_aftertouch_c, 2, 69
11, 89456, Channel_aftertouch_c, 2, 69
11, 89468, Channel_aftertouch_c, 2, 70
11, 89480, Channel_aftertouch_c, 2, 70
11, 89536, Channel_aftertouch_c, 2, 68
11, 89592, Channel_aftertouch_c, 2, 67
11, 89696, Channel_aftertouch_c, 2, 69
11, 89940, Channel_aftertouch_c, 2, 67
11, 89952, Channel_aftertouch_c, 2, 67
11, 89964, Channel_aftertouch_c, 2, 66
11, 90176, Channel_aftertouch_c, 2, 66
11, 90200, Channel_aftertouch_c, 2, 64
11, 90208, Channel_aftertouch_c, 2, 63
11, 90224, Channel_aftertouch_c, 2, 62
11, 90256, Channel_aftertouch_c, 2, 65
11, 90268, Channel_aftertouch_c, 2, 65
11, 90380, Channel_aftertouch_c, 2, 63
11, 90392, Channel_aftertouch_c, 2, 61
11, 90404, Channel_aftertouch_c, 2, 56
11, 90416, Channel_aftertouch_c, 2, 53
11, 90428, Channel_aftertouch_c, 2, 52
11, 90440, Channel_aftertouch_c, 2, 51
11, 90452, Channel_aftertouch_c, 2, 49
11, 90464, Channel_aftertouch_c, 2, 47
11, 90476, Channel_aftertouch_c, 2, 43
11, 90488, Channel_aftertouch_c, 2, 40
11, 90500, Channel_aftertouch_c, 2, 38
11, 90512, Channel_aftertouch_c, 2, 37
11, 90524, Channel_aftertouch_c, 2, 37
11, 90536, Channel_aftertouch_c, 2, 35
11, 90560, Channel_aftertouch_c, 2, 37
11, 90572, Channel_aftertouch_c, 2, 41
11, 90584, Channel_aftertouch_c, 2, 42
11, 90616, Channel_aftertouch_c, 2, 39
11, 90628, Channel_aftertouch_c, 2, 36
11, 90640, Channel_aftertouch_c, 2, 34
11, 90652, Channel_aftertouch_c, 2, 36
11, 90664, Channel_aftertouch_c, 2, 38
11, 90676, Channel_aftertouch_c, 2, 39
11, 90712, Channel_aftertouch_c, 2, 35
11, 90720, Channel_aftertouch_c, 2, 32
11, 90736, Channel_aftertouch_c, 2, 31
11, 90756, Channel_aftertouch_c, 2, 30
11, 90768, Channel_aftertouch_c, 2, 28
11, 90780, Channel_aftertouch_c, 2, 28
11, 90804, Channel_aftertouch_c, 2, 30
11, 90816, Channel_aftertouch_c, 2, 31
11, 90828, Channel_aftertouch_c, 2, 33
11, 90840, Channel_aftertouch_c, 2, 34
11, 90852, Channel_aftertouch_c, 2, 34
11, 90872, Channel_aftertouch_c, 2, 32
11, 90944, Channel_aftertouch_c, 2, 31
11, 90968, Channel_aftertouch_c, 2, 34
11, 90976, Channel_aftertouch_c, 2, 35
11, 91024, Channel_aftertouch_c, 2, 37
11, 91036, Channel_aftertouch_c, 2, 40
11, 91044, Channel_aftertouch_c, 2, 43
11, 91060, Channel_aftertouch_c, 2, 44
11, 91068, Channel_aftertouch_c, 2, 44
11, 91092, Channel_aftertouch_c, 2, 45
11, 91104, Channel_aftertouch_c, 2, 45
11, 91120, Channel_aftertouch_c, 2, 46
11, 91128, Channel_aftertouch_c, 2, 47
11, 91176, Channel_aftertouch_c, 2, 48
11, 91184, Channel_aftertouch_c, 2, 50
11, 91200, Channel_aftertouch_c, 2, 51
11, 91244, Channel_aftertouch_c, 2, 48
11, 91256, Channel_aftertouch_c, 2, 47
11, 91264, Channel_aftertouch_c, 2, 46
11, 91300, Channel_aftertouch_c, 2, 46
11, 91312, Channel_aftertouch_c, 2, 45
11, 91336, Channel_aftertouch_c, 2, 44
11, 91348, Channel_aftertouch_c, 2, 43
11, 91384, Channel_aftertouch_c, 2, 45
11, 91396, Channel_aftertouch_c, 2, 47
11, 91408, Channel_aftertouch_c, 2, 48
11, 91416, Channel_aftertouch_c, 2, 49
11, 91432, Channel_aftertouch_c, 2, 49
11, 91440, Channel_aftertouch_c, 2, 50
11, 91456, Channel_aftertouch_c, 2, 51
11, 91464, Channel_aftertouch_c, 2, 52
11, 91476, Channel_aftertouch_c, 2, 53
11, 91488, Channel_aftertouch_c, 2, 54
11, 91500, Channel_aftertouch_c, 2, 54
11, 91512, Channel_aftertouch_c, 2, 55
11, 91560, Channel_aftertouch_c, 2, 55
11, 91568, Channel_aftertouch_c, 2, 56
11, 91616, Channel_aftertouch_c, 2, 57
11, 91748, Channel_aftertouch_c, 2, 55
11, 91764, Channel_aftertouch_c, 2, 54
11, 91776, Channel_aftertouch_c, 2, 52
11, 91784, Channel_aftertouch_c, 2, 49
11, 91800, Channel_aftertouch_c, 2, 47
11, 91808, Channel_aftertouch_c, 2, 44
11, 91824, Channel_aftertouch_c, 2, 40
11, 91832, Channel_aftertouch_c, 2, 31
11, 91848, Channel_aftertouch_c, 2, 0
11, 91932, Note_on_c, 2, 88, 0
11, 91936, Note_on_c, 2, 83, 0
11, 92148, Note_on_c, 2, 85, 104
11, 92152, Note_on_c, 2, 81, 96
11, 92168, Channel_aftertouch_c, 2, 16
11, 92184, Channel_aftertouch_c, 2, 19
11, 92216, Channel_aftertouch_c, 2, 20
11, 92232, Channel_aftertouch_c, 2, 23
11, 92240, Channel_aftertouch_c, 2, 23
11, 92276, Channel_aftertouch_c, 2, 21
11, 92288, Channel_aftertouch_c, 2, 20
11, 92300, Channel_aftertouch_c, 2, 19
11, 92312, Channel_aftertouch_c, 2, 18
11, 92336, Channel_aftertouch_c, 2, 18
11, 92356, Channel_aftertouch_c, 2, 17
11, 92424, Channel_aftertouch_c, 2, 19
11, 92436, Channel_aftertouch_c, 2, 20
11, 92448, Channel_aftertouch_c, 2, 21
11, 92460, Channel_aftertouch_c, 2, 22
11, 92472, Channel_aftertouch_c, 2, 23
11, 92484, Channel_aftertouch_c, 2, 23
11, 92496, Channel_aftertouch_c, 2, 24
11, 92508, Channel_aftertouch_c, 2, 25
11, 92564, Channel_aftertouch_c, 2, 25
11, 92576, Channel_aftertouch_c, 2, 26
11, 92676, Channel_aftertouch_c, 2, 24
11, 92688, Channel_aftertouch_c, 2, 22
11, 92744, Channel_aftertouch_c, 2, 21
11, 92756, Channel_aftertouch_c, 2, 19
11, 92768, Channel_aftertouch_c, 2, 17
11, 92780, Channel_aftertouch_c, 2, 17
11, 92792, Channel_aftertouch_c, 2, 16
11, 92808, Channel_aftertouch_c, 2, 15
11, 92816, Channel_aftertouch_c, 2, 14
11, 92828, Channel_aftertouch_c, 2, 12
11, 92840, Channel_aftertouch_c, 2, 12
11, 92872, Channel_aftertouch_c, 2, 14
11, 92888, Channel_aftertouch_c, 2, 15
11, 92932, Channel_aftertouch_c, 2, 12
11, 92944, Channel_aftertouch_c, 2, 10
11, 92956, Channel_aftertouch_c, 2, 9
11, 92968, Channel_aftertouch_c, 2, 9
11, 92980, Channel_aftertouch_c, 2, 7
11, 92992, Channel_aftertouch_c, 2, 5
11, 93004, Channel_aftertouch_c, 2, 4
11, 93016, Channel_aftertouch_c, 2, 3
11, 93024, Channel_aftertouch_c, 2, 3
11, 93048, Channel_aftertouch_c, 2, 2
11, 93072, Channel_aftertouch_c, 2, 1
11, 93084, Channel_aftertouch_c, 2, 0
11, 93544, Note_on_c, 2, 81, 0
11, 93544, Note_on_c, 2, 85, 0
11, 93712, Note_on_c, 2, 79, 104
11, 93712, Note_on_c, 2, 84, 113
11, 93720, Channel_aftertouch_c, 2, 21
11, 93732, Channel_aftertouch_c, 2, 48
11, 93744, Channel_aftertouch_c, 2, 52
11, 93756, Channel_aftertouch_c, 2, 48
11, 93768, Channel_aftertouch_c, 2, 47
11, 93776, Channel_aftertouch_c, 2, 50
11, 93792, Channel_aftertouch_c, 2, 53
11, 93804, Channel_aftertouch_c, 2, 55
11, 93816, Channel_aftertouch_c, 2, 57
11, 93848, Channel_aftertouch_c, 2, 55
11, 93860, Channel_aftertouch_c, 2, 54
11, 93908, Channel_aftertouch_c, 2, 54
11, 93920, Channel_aftertouch_c, 2, 52
11, 93928, Channel_aftertouch_c, 2, 50
11, 93944, Channel_aftertouch_c, 2, 49
11, 93952, Channel_aftertouch_c, 2, 49
11, 93988, Channel_aftertouch_c, 2, 46
11, 94000, Channel_aftertouch_c, 2, 44
11, 94012, Channel_aftertouch_c, 2, 44
11, 94124, Channel_aftertouch_c, 2, 43
11, 94136, Channel_aftertouch_c, 2, 42
11, 94148, Channel_aftertouch_c, 2, 40
11, 94160, Channel_aftertouch_c, 2, 39
11, 94184, Channel_aftertouch_c, 2, 38
11, 94228, Channel_aftertouch_c, 2, 40
11, 94240, Channel_aftertouch_c, 2, 42
11, 94252, Channel_aftertouch_c, 2, 43
11, 94308, Channel_aftertouch_c, 2, 40
11, 94320, Channel_aftertouch_c, 2, 39
11, 94344, Channel_aftertouch_c, 2, 43
11, 94352, Channel_aftertouch_c, 2, 45
11, 94392, Channel_aftertouch_c, 2, 43
11, 94412, Channel_aftertouch_c, 2, 45
11, 94424, Channel_aftertouch_c, 2, 47
11, 94436, Channel_aftertouch_c, 2, 49
11, 94448, Channel_aftertouch_c, 2, 49
11, 94472, Channel_aftertouch_c, 2, 47
11, 94484, Channel_aftertouch_c, 2, 46
11, 94496, Channel_aftertouch_c, 2, 45
11, 94552, Channel_aftertouch_c, 2, 47
11, 94620, Channel_aftertouch_c, 2, 48
11, 94676, Channel_aftertouch_c, 2, 49
11, 94688, Channel_aftertouch_c, 2, 51
11, 94712, Channel_aftertouch_c, 2, 49
11, 94724, Channel_aftertouch_c, 2, 46
11, 94732, Channel_aftertouch_c, 2, 46
11, 94756, Channel_aftertouch_c, 2, 50
11, 94768, Channel_aftertouch_c, 2, 51
11, 94780, Channel_aftertouch_c, 2, 51
11, 94924, Channel_aftertouch_c, 2, 48
11, 94936, Channel_aftertouch_c, 2, 44
11, 94952, Channel_aftertouch_c, 2, 39
11, 94960, Channel_aftertouch_c, 2, 34
11, 94972, Channel_aftertouch_c, 2, 27
11, 94984, Channel_aftertouch_c, 2, 21
11, 95008, Channel_aftertouch_c, 2, 25
11, 95020, Channel_aftertouch_c, 2, 26
11, 95032, Channel_aftertouch_c, 2, 0
11, 95052, Note_on_c, 2, 79, 0
11, 95076, Note_on_c, 2, 84, 0
11, 95248, Note_on_c, 2, 81, 92
11, 95248, Note_on_c, 2, 86, 104
11, 98128, Note_on_c, 2, 81, 0
11, 98168, Note_on_c, 2, 86, 0
11, 98300, Note_on_c, 2, 86, 91
11, 98304, Note_on_c, 2, 86, 0
11, 98304, Control_c, 2, 7, 95
11, 98308, Control_c, 2, 7, 95
11, 98312, Note_on_c, 2, 79, 108
11, 98316, Control_c, 2, 7, 95
11, 98316, Note_on_c, 2, 83, 104
11, 98320, Control_c, 2, 7, 95
11, 98328, Control_c, 2, 7, 95
11, 98328, Channel_aftertouch_c, 2, 72
11, 98336, Control_c, 2, 7, 95
11, 98340, Control_c, 2, 7, 95
11, 98344, Channel_aftertouch_c, 2, 88
11, 98348, Control_c, 2, 7, 95
11, 98352, Control_c, 2, 7, 95
11, 98356, Channel_aftertouch_c, 2, 80
11, 98360, Control_c, 2, 7, 95
11, 98364, Channel_aftertouch_c, 2, 83
11, 98368, Control_c, 2, 7, 95
11, 98372, Control_c, 2, 7, 95
11, 98380, Control_c, 2, 7, 95
11, 98380, Channel_aftertouch_c, 2, 88
11, 98384, Control_c, 2, 7, 95
11, 98392, Channel_aftertouch_c, 2, 91
11, 98392, Control_c, 2, 7, 95
11, 98400, Control_c, 2, 7, 95
11, 98400, Channel_aftertouch_c, 2, 93
11, 98404, Control_c, 2, 7, 95
11, 98412, Control_c, 2, 7, 95
11, 98416, Channel_aftertouch_c, 2, 94
11, 98416, Control_c, 2, 7, 95
11, 98424, Control_c, 2, 7, 95
11, 98424, Channel_aftertouch_c, 2, 96
11, 98432, Control_c, 2, 7, 95
11, 98436, Control_c, 2, 7, 95
11, 98436, Channel_aftertouch_c, 2, 97
11, 98444, Control_c, 2, 7, 95
11, 98448, Channel_aftertouch_c, 2, 98
11, 98448, Control_c, 2, 7, 95
11, 98456, Control_c, 2, 7, 95
11, 98460, Channel_aftertouch_c, 2, 99
11, 98464, Control_c, 2, 7, 95
11, 98468, Control_c, 2, 7, 95
11, 98472, Channel_aftertouch_c, 2, 100
11, 98476, Control_c, 2, 7, 95
11, 98480, Control_c, 2, 7, 95
11, 98484, Channel_aftertouch_c, 2, 102
11, 98488, Control_c, 2, 7, 95
11, 98496, Control_c, 2, 7, 95
11, 98500, Control_c, 2, 7, 95
11, 98508, Control_c, 2, 7, 95
11, 98508, Channel_aftertouch_c, 2, 102
11, 98512, Control_c, 2, 7, 95
11, 98520, Control_c, 2, 7, 95
11, 98520, Channel_aftertouch_c, 2, 103
11, 98528, Control_c, 2, 7, 95
11, 98532, Control_c, 2, 7, 95
11, 98540, Control_c, 2, 7, 95
11, 98544, Control_c, 2, 7, 95
11, 98552, Control_c, 2, 7, 95
11, 98552, Channel_aftertouch_c, 2, 100
11, 98560, Control_c, 2, 7, 95
11, 98564, Control_c, 2, 7, 95
11, 98572, Control_c, 2, 7, 95
11, 98576, Channel_aftertouch_c, 2, 100
11, 98576, Control_c, 2, 7, 95
11, 98584, Control_c, 2, 7, 95
11, 98592, Control_c, 2, 7, 95
11, 98596, Control_c, 2, 7, 95
11, 98600, Channel_aftertouch_c, 2, 102
11, 98604, Control_c, 2, 7, 95
11, 98608, Control_c, 2, 7, 95
11, 98612, Channel_aftertouch_c, 2, 102
11, 98616, Control_c, 2, 7, 95
11, 98624, Control_c, 2, 7, 95
11, 98628, Control_c, 2, 7, 95
11, 98636, Control_c, 2, 7, 95
11, 98640, Control_c, 2, 7, 95
11, 98648, Channel_aftertouch_c, 2, 103
11, 98648, Control_c, 2, 7, 95
11, 98656, Control_c, 2, 7, 95
11, 98656, Channel_aftertouch_c, 2, 104
11, 98660, Control_c, 2, 7, 96
11, 98668, Control_c, 2, 7, 96
11, 98668, Channel_aftertouch_c, 2, 104
11, 98672, Control_c, 2, 7, 96
11, 98680, Control_c, 2, 7, 96
11, 98680, Channel_aftertouch_c, 2, 105
11, 98688, Control_c, 2, 7, 96
11, 98692, Channel_aftertouch_c, 2, 105
11, 98692, Control_c, 2, 7, 96
11, 98700, Control_c, 2, 7, 96
11, 98704, Control_c, 2, 7, 96
11, 98712, Control_c, 2, 7, 95
11, 98720, Control_c, 2, 7, 95
11, 98724, Control_c, 2, 7, 95
11, 98732, Control_c, 2, 7, 95
11, 98736, Control_c, 2, 7, 95
11, 98744, Control_c, 2, 7, 95
11, 98752, Control_c, 2, 7, 94
11, 98756, Control_c, 2, 7, 94
11, 98764, Control_c, 2, 7, 94
11, 98768, Control_c, 2, 7, 94
11, 98776, Control_c, 2, 7, 94
11, 98784, Control_c, 2, 7, 94
11, 98788, Control_c, 2, 7, 94
11, 98796, Control_c, 2, 7, 94
11, 98800, Control_c, 2, 7, 94
11, 98808, Control_c, 2, 7, 94
11, 98816, Control_c, 2, 7, 94
11, 98820, Control_c, 2, 7, 94
11, 98828, Control_c, 2, 7, 94
11, 98832, Control_c, 2, 7, 94
11, 98840, Channel_aftertouch_c, 2, 103
11, 98840, Control_c, 2, 7, 94
11, 98848, Control_c, 2, 7, 94
11, 98848, Channel_aftertouch_c, 2, 103
11, 98852, Control_c, 2, 7, 94
11, 98860, Control_c, 2, 7, 93
11, 98860, Channel_aftertouch_c, 2, 102
11, 98864, Control_c, 2, 7, 93
11, 98872, Control_c, 2, 7, 93
11, 98872, Channel_aftertouch_c, 2, 101
11, 98880, Control_c, 2, 7, 93
11, 98884, Control_c, 2, 7, 93
11, 98884, Channel_aftertouch_c, 2, 101
11, 98892, Control_c, 2, 7, 93
11, 98896, Channel_aftertouch_c, 2, 99
11, 98896, Control_c, 2, 7, 93
11, 98904, Control_c, 2, 7, 93
11, 98908, Channel_aftertouch_c, 2, 97
11, 98912, Control_c, 2, 7, 93
11, 98916, Control_c, 2, 7, 93
11, 98920, Channel_aftertouch_c, 2, 96
11, 98924, Control_c, 2, 7, 93
11, 98928, Control_c, 2, 7, 93
11, 98932, Channel_aftertouch_c, 2, 96
11, 98936, Control_c, 2, 7, 93
11, 98944, Control_c, 2, 7, 92
11, 98944, Channel_aftertouch_c, 2, 94
11, 98948, Control_c, 2, 7, 92
11, 98956, Control_c, 2, 7, 92
11, 98960, Control_c, 2, 7, 92
11, 98968, Control_c, 2, 7, 91
11, 98968, Channel_aftertouch_c, 2, 93
11, 98976, Control_c, 2, 7, 91
11, 98980, Channel_aftertouch_c, 2, 92
11, 98980, Control_c, 2, 7, 91
11, 98988, Control_c, 2, 7, 91
11, 98992, Channel_aftertouch_c, 2, 91
11, 98992, Control_c, 2, 7, 91
11, 99000, Control_c, 2, 7, 91
11, 99004, Channel_aftertouch_c, 2, 93
11, 99008, Control_c, 2, 7, 90
11, 99012, Control_c, 2, 7, 90
11, 99016, Channel_aftertouch_c, 2, 93
11, 99020, Control_c, 2, 7, 90
11, 99024, Control_c, 2, 7, 90
11, 99032, Control_c, 2, 7, 90
11, 99040, Control_c, 2, 7, 90
11, 99044, Control_c, 2, 7, 90
11, 99052, Control_c, 2, 7, 90
11, 99056, Control_c, 2, 7, 90
11, 99064, Control_c, 2, 7, 89
11, 99072, Control_c, 2, 7, 89
11, 99076, Control_c, 2, 7, 89
11, 99084, Control_c, 2, 7, 89
11, 99088, Control_c, 2, 7, 88
11, 99096, Control_c, 2, 7, 88
11, 99104, Control_c, 2, 7, 88
11, 99108, Control_c, 2, 7, 88
11, 99116, Control_c, 2, 7, 88
11, 99120, Control_c, 2, 7, 87
11, 99128, Control_c, 2, 7, 87
11, 99136, Control_c, 2, 7, 87
11, 99136, Channel_aftertouch_c, 2, 91
11, 99140, Control_c, 2, 7, 87
11, 99148, Control_c, 2, 7, 88
11, 99148, Channel_aftertouch_c, 2, 90
11, 99152, Control_c, 2, 7, 88
11, 99160, Control_c, 2, 7, 88
11, 99160, Channel_aftertouch_c, 2, 89
11, 99168, Control_c, 2, 7, 88
11, 99172, Control_c, 2, 7, 88
11, 99172, Channel_aftertouch_c, 2, 87
11, 99180, Control_c, 2, 7, 88
11, 99184, Control_c, 2, 7, 88
11, 99184, Channel_aftertouch_c, 2, 85
11, 99192, Control_c, 2, 7, 88
11, 99196, Channel_aftertouch_c, 2, 83
11, 99200, Control_c, 2, 7, 87
11, 99204, Control_c, 2, 7, 87
11, 99208, Channel_aftertouch_c, 2, 79
11, 99212, Control_c, 2, 7, 87
11, 99216, Control_c, 2, 7, 87
11, 99220, Channel_aftertouch_c, 2, 77
11, 99224, Control_c, 2, 7, 87
11, 99232, Control_c, 2, 7, 87
11, 99232, Channel_aftertouch_c, 2, 77
11, 99236, Control_c, 2, 7, 87
11, 99244, Control_c, 2, 7, 87
11, 99248, Control_c, 2, 7, 87
11, 99256, Control_c, 2, 7, 87
11, 99264, Control_c, 2, 7, 87
11, 99268, Channel_aftertouch_c, 2, 75
11, 99268, Control_c, 2, 7, 87
11, 99276, Control_c, 2, 7, 87
11, 99276, Channel_aftertouch_c, 2, 74
11, 99280, Control_c, 2, 7, 87
11, 99288, Control_c, 2, 7, 87
11, 99296, Control_c, 2, 7, 87
11, 99300, Control_c, 2, 7, 87
11, 99300, Channel_aftertouch_c, 2, 77
11, 99308, Control_c, 2, 7, 87
11, 99312, Control_c, 2, 7, 87
11, 99312, Channel_aftertouch_c, 2, 78
11, 99320, Control_c, 2, 7, 87
11, 99324, Channel_aftertouch_c, 2, 78
11, 99328, Control_c, 2, 7, 87
11, 99332, Control_c, 2, 7, 87
11, 99340, Control_c, 2, 7, 87
11, 99344, Control_c, 2, 7, 87
11, 99348, Channel_aftertouch_c, 2, 76
11, 99352, Control_c, 2, 7, 87
11, 99360, Control_c, 2, 7, 87
11, 99360, Channel_aftertouch_c, 2, 75
11, 99364, Control_c, 2, 7, 87
11, 99372, Control_c, 2, 7, 87
11, 99376, Control_c, 2, 7, 87
11, 99384, Control_c, 2, 7, 87
11, 99392, Control_c, 2, 7, 87
11, 99396, Control_c, 2, 7, 87
11, 99404, Control_c, 2, 7, 87
11, 99408, Channel_aftertouch_c, 2, 77
11, 99408, Control_c, 2, 7, 87
11, 99416, Control_c, 2, 7, 87
11, 99424, Control_c, 2, 7, 87
11, 99428, Control_c, 2, 7, 87
11, 99428, Channel_aftertouch_c, 2, 75
11, 99436, Control_c, 2, 7, 87
11, 99440, Channel_aftertouch_c, 2, 73
11, 99440, Control_c, 2, 7, 87
11, 99448, Control_c, 2, 7, 87
11, 99452, Channel_aftertouch_c, 2, 70
11, 99456, Control_c, 2, 7, 87
11, 99460, Control_c, 2, 7, 87
11, 99464, Channel_aftertouch_c, 2, 73
11, 99468, Control_c, 2, 7, 87
11, 99472, Control_c, 2, 7, 87
11, 99476, Channel_aftertouch_c, 2, 73
11, 99480, Control_c, 2, 7, 87
11, 99488, Control_c, 2, 7, 87
11, 99488, Channel_aftertouch_c, 2, 71
11, 99492, Control_c, 2, 7, 87
11, 99500, Control_c, 2, 7, 87
11, 99500, Channel_aftertouch_c, 2, 69
11, 99504, Control_c, 2, 7, 87
11, 99512, Control_c, 2, 7, 87
11, 99512, Channel_aftertouch_c, 2, 65
11, 99520, Control_c, 2, 7, 87
11, 99524, Channel_aftertouch_c, 2, 58
11, 99524, Control_c, 2, 7, 87
11, 99532, Control_c, 2, 7, 87
11, 99536, Channel_aftertouch_c, 2, 54
11, 99536, Control_c, 2, 7, 87
11, 99544, Control_c, 2, 7, 87
11, 99548, Channel_aftertouch_c, 2, 60
11, 99552, Control_c, 2, 7, 87
11, 99556, Control_c, 2, 7, 87
11, 99560, Channel_aftertouch_c, 2, 65
11, 99564, Control_c, 2, 7, 87
11, 99568, Control_c, 2, 7, 87
11, 99572, Channel_aftertouch_c, 2, 66
11, 99576, Control_c, 2, 7, 87
11, 99584, Control_c, 2, 7, 87
11, 99588, Control_c, 2, 7, 87
11, 99592, Channel_aftertouch_c, 2, 61
11, 99596, Control_c, 2, 7, 87
11, 99600, Control_c, 2, 7, 87
11, 99608, Channel_aftertouch_c, 2, 59
11, 99608, Control_c, 2, 7, 87
11, 99616, Control_c, 2, 7, 87
11, 99616, Channel_aftertouch_c, 2, 57
11, 99620, Control_c, 2, 7, 87
11, 99628, Control_c, 2, 7, 87
11, 99632, Channel_aftertouch_c, 2, 60
11, 99632, Control_c, 2, 7, 87
11, 99640, Control_c, 2, 7, 87
11, 99640, Channel_aftertouch_c, 2, 62
11, 99648, Control_c, 2, 7, 87
11, 99652, Control_c, 2, 7, 87
11, 99660, Control_c, 2, 7, 87
11, 99664, Control_c, 2, 7, 87
11, 99672, Control_c, 2, 7, 87
11, 99676, Channel_aftertouch_c, 2, 58
11, 99680, Control_c, 2, 7, 87
11, 99684, Control_c, 2, 7, 87
11, 99688, Channel_aftertouch_c, 2, 54
11, 99692, Control_c, 2, 7, 87
11, 99696, Control_c, 2, 7, 87
11, 99700, Channel_aftertouch_c, 2, 52
11, 99704, Control_c, 2, 7, 87
11, 99712, Control_c, 2, 7, 87
11, 99716, Control_c, 2, 7, 87
11, 99724, Control_c, 2, 7, 87
11, 99724, Channel_aftertouch_c, 2, 54
11, 99728, Control_c, 2, 7, 87
11, 99732, Channel_aftertouch_c, 2, 57
11, 99736, Control_c, 2, 7, 87
11, 99744, Control_c, 2, 7, 86
11, 99744, Channel_aftertouch_c, 2, 57
11, 99748, Control_c, 2, 7, 86
11, 99756, Control_c, 2, 7, 86
11, 99760, Control_c, 2, 7, 86
11, 99768, Control_c, 2, 7, 85
11, 99768, Channel_aftertouch_c, 2, 53
11, 99776, Control_c, 2, 7, 85
11, 99780, Control_c, 2, 7, 85
11, 99780, Channel_aftertouch_c, 2, 51
11, 99788, Control_c, 2, 7, 85
11, 99792, Control_c, 2, 7, 85
11, 99800, Control_c, 2, 7, 84
11, 99804, Channel_aftertouch_c, 2, 54
11, 99808, Control_c, 2, 7, 84
11, 99812, Control_c, 2, 7, 84
11, 99816, Channel_aftertouch_c, 2, 55
11, 99820, Control_c, 2, 7, 84
11, 99824, Control_c, 2, 7, 84
11, 99832, Control_c, 2, 7, 84
11, 99840, Control_c, 2, 7, 84
11, 99840, Channel_aftertouch_c, 2, 51
11, 99844, Control_c, 2, 7, 84
11, 99852, Control_c, 2, 7, 84
11, 99852, Channel_aftertouch_c, 2, 47
11, 99856, Control_c, 2, 7, 83
11, 99864, Channel_aftertouch_c, 2, 46
11, 99864, Control_c, 2, 7, 83
11, 99872, Control_c, 2, 7, 83
11, 99876, Control_c, 2, 7, 82
11, 99884, Control_c, 2, 7, 82
11, 99888, Control_c, 2, 7, 82
11, 99896, Control_c, 2, 7, 81
11, 99896, Channel_aftertouch_c, 2, 43
11, 99904, Control_c, 2, 7, 81
11, 99908, Control_c, 2, 7, 81
11, 99908, Channel_aftertouch_c, 2, 37
11, 99916, Control_c, 2, 7, 80
11, 99920, Channel_aftertouch_c, 2, 33
11, 99920, Control_c, 2, 7, 80
11, 99928, Control_c, 2, 7, 80
11, 99932, Channel_aftertouch_c, 2, 30
11, 99936, Control_c, 2, 7, 79
11, 99940, Control_c, 2, 7, 79
11, 99944, Channel_aftertouch_c, 2, 29
11, 99948, Control_c, 2, 7, 79
11, 99952, Control_c, 2, 7, 78
11, 99960, Control_c, 2, 7, 78
11, 99968, Control_c, 2, 7, 78
11, 99968, Channel_aftertouch_c, 2, 26
11, 99972, Control_c, 2, 7, 78
11, 99980, Control_c, 2, 7, 78
11, 99980, Channel_aftertouch_c, 2, 19
11, 99984, Control_c, 2, 7, 77
11, 99992, Control_c, 2, 7, 77
11, 100000, Control_c, 2, 7, 77
11, 100004, Control_c, 2, 7, 77
11, 100012, Control_c, 2, 7, 77
11, 100016, Control_c, 2, 7, 76
11, 100024, Control_c, 2, 7, 76
11, 100024, Channel_aftertouch_c, 2, 18
11, 100032, Control_c, 2, 7, 76
11, 100036, Channel_aftertouch_c, 2, 12
11, 100036, Control_c, 2, 7, 76
11, 100044, Control_c, 2, 7, 76
11, 100048, Channel_aftertouch_c, 2, 7
11, 100048, Control_c, 2, 7, 75
11, 100056, Control_c, 2, 7, 75
11, 100060, Channel_aftertouch_c, 2, 5
11, 100064, Control_c, 2, 7, 75
11, 100068, Control_c, 2, 7, 75
11, 100072, Channel_aftertouch_c, 2, 8
11, 100076, Control_c, 2, 7, 74
11, 100080, Control_c, 2, 7, 74
11, 100084, Channel_aftertouch_c, 2, 12
11, 100088, Control_c, 2, 7, 74
11, 100096, Control_c, 2, 7, 74
11, 100096, Channel_aftertouch_c, 2, 14
11, 100100, Control_c, 2, 7, 73
11, 100108, Control_c, 2, 7, 73
11, 100108, Channel_aftertouch_c, 2, 14
11, 100112, Control_c, 2, 7, 73
11, 100120, Control_c, 2, 7, 72
11, 100120, Channel_aftertouch_c, 2, 18
11, 100128, Control_c, 2, 7, 72
11, 100132, Channel_aftertouch_c, 2, 21
11, 100132, Control_c, 2, 7, 72
11, 100140, Control_c, 2, 7, 72
11, 100144, Channel_aftertouch_c, 2, 16
11, 100144, Control_c, 2, 7, 72
11, 100152, Control_c, 2, 7, 71
11, 100156, Channel_aftertouch_c, 2, 8
11, 100160, Control_c, 2, 7, 70
11, 100164, Control_c, 2, 7, 69
11, 100164, Channel_aftertouch_c, 2, 6
11, 100172, Control_c, 2, 7, 69
11, 100176, Control_c, 2, 7, 69
11, 100184, Control_c, 2, 7, 68
11, 100188, Channel_aftertouch_c, 2, 12
11, 100192, Control_c, 2, 7, 68
11, 100196, Control_c, 2, 7, 68
11, 100200, Channel_aftertouch_c, 2, 19
11, 100204, Control_c, 2, 7, 67
11, 100208, Control_c, 2, 7, 67
11, 100212, Channel_aftertouch_c, 2, 23
11, 100216, Control_c, 2, 7, 67
11, 100224, Control_c, 2, 7, 66
11, 100224, Channel_aftertouch_c, 2, 23
11, 100228, Control_c, 2, 7, 66
11, 100236, Control_c, 2, 7, 66
11, 100240, Control_c, 2, 7, 65
11, 100248, Control_c, 2, 7, 65
11, 100248, Channel_aftertouch_c, 2, 21
11, 100256, Control_c, 2, 7, 65
11, 100260, Control_c, 2, 7, 64
11, 100260, Channel_aftertouch_c, 2, 23
11, 100268, Control_c, 2, 7, 64
11, 100272, Channel_aftertouch_c, 2, 26
11, 100272, Control_c, 2, 7, 64
11, 100280, Control_c, 2, 7, 64
11, 100288, Control_c, 2, 7, 64
11, 100292, Control_c, 2, 7, 64
11, 100296, Channel_aftertouch_c, 2, 23
11, 100300, Control_c, 2, 7, 63
11, 100304, Control_c, 2, 7, 63
11, 100304, Channel_aftertouch_c, 2, 20
11, 100312, Control_c, 2, 7, 63
11, 100320, Control_c, 2, 7, 63
11, 100320, Channel_aftertouch_c, 2, 19
11, 100324, Control_c, 2, 7, 63
11, 100332, Control_c, 2, 7, 62
11, 100336, Control_c, 2, 7, 62
11, 100340, Channel_aftertouch_c, 2, 23
11, 100344, Control_c, 2, 7, 61
11, 100352, Control_c, 2, 7, 60
11, 100352, Channel_aftertouch_c, 2, 28
11, 100356, Control_c, 2, 7, 60
11, 100364, Control_c, 2, 7, 59
11, 100364, Channel_aftertouch_c, 2, 29
11, 100368, Control_c, 2, 7, 58
11, 100376, Control_c, 2, 7, 58
11, 100376, Channel_aftertouch_c, 2, 29
11, 100384, Control_c, 2, 7, 58
11, 100388, Control_c, 2, 7, 57
11, 100396, Control_c, 2, 7, 57
11, 100400, Channel_aftertouch_c, 2, 26
11, 100400, Control_c, 2, 7, 56
11, 100408, Control_c, 2, 7, 56
11, 100412, Channel_aftertouch_c, 2, 25
11, 100416, Control_c, 2, 7, 56
11, 100420, Control_c, 2, 7, 55
11, 100428, Control_c, 2, 7, 55
11, 100432, Control_c, 2, 7, 54
11, 100432, Channel_aftertouch_c, 2, 27
11, 100440, Control_c, 2, 7, 54
11, 100448, Control_c, 2, 7, 53
11, 100452, Control_c, 2, 7, 53
11, 100460, Control_c, 2, 7, 52
11, 100464, Control_c, 2, 7, 51
11, 100472, Control_c, 2, 7, 51
11, 100480, Control_c, 2, 7, 50
11, 100484, Control_c, 2, 7, 49
11, 100492, Control_c, 2, 7, 49
11, 100496, Control_c, 2, 7, 48
11, 100504, Channel_aftertouch_c, 2, 28
11, 100504, Control_c, 2, 7, 47
11, 100512, Control_c, 2, 7, 47
11, 100512, Channel_aftertouch_c, 2, 30
11, 100516, Control_c, 2, 7, 46
11, 100524, Control_c, 2, 7, 45
11, 100528, Control_c, 2, 7, 44
11, 100536, Control_c, 2, 7, 43
11, 100536, Channel_aftertouch_c, 2, 28
11, 100544, Control_c, 2, 7, 42
11, 100548, Control_c, 2, 7, 42
11, 100548, Channel_aftertouch_c, 2, 23
11, 100556, Control_c, 2, 7, 41
11, 100560, Channel_aftertouch_c, 2, 14
11, 100560, Control_c, 2, 7, 40
11, 100568, Control_c, 2, 7, 38
11, 100572, Channel_aftertouch_c, 2, 11
11, 100576, Control_c, 2, 7, 38
11, 100580, Control_c, 2, 7, 35
11, 100584, Channel_aftertouch_c, 2, 14
11, 100588, Control_c, 2, 7, 35
11, 100592, Control_c, 2, 7, 34
11, 100596, Channel_aftertouch_c, 2, 23
11, 100600, Control_c, 2, 7, 34
11, 100608, Control_c, 2, 7, 33
11, 100608, Channel_aftertouch_c, 2, 26
11, 100612, Control_c, 2, 7, 33
11, 100620, Control_c, 2, 7, 32
11, 100620, Channel_aftertouch_c, 2, 29
11, 100624, Control_c, 2, 7, 32
11, 100632, Channel_aftertouch_c, 2, 31
11, 100632, Control_c, 2, 7, 32
11, 100640, Control_c, 2, 7, 31
11, 100644, Control_c, 2, 7, 31
11, 100644, Channel_aftertouch_c, 2, 34
11, 100652, Control_c, 2, 7, 30
11, 100656, Channel_aftertouch_c, 2, 37
11, 100656, Control_c, 2, 7, 30
11, 100664, Control_c, 2, 7, 29
11, 100668, Channel_aftertouch_c, 2, 38
11, 100672, Control_c, 2, 7, 29
11, 100676, Control_c, 2, 7, 28
11, 100680, Channel_aftertouch_c, 2, 39
11, 100684, Control_c, 2, 7, 28
11, 100688, Control_c, 2, 7, 27
11, 100688, Channel_aftertouch_c, 2, 39
11, 100696, Control_c, 2, 7, 27
11, 100704, Control_c, 2, 7, 26
11, 100704, Channel_aftertouch_c, 2, 41
11, 100708, Control_c, 2, 7, 26
11, 100716, Control_c, 2, 7, 26
11, 100716, Channel_aftertouch_c, 2, 44
11, 100720, Control_c, 2, 7, 26
11, 100728, Control_c, 2, 7, 25
11, 100736, Control_c, 2, 7, 25
11, 100740, Channel_aftertouch_c, 2, 41
11, 100740, Control_c, 2, 7, 25
11, 100748, Control_c, 2, 7, 24
11, 100752, Channel_aftertouch_c, 2, 39
11, 100752, Control_c, 2, 7, 24
11, 100760, Control_c, 2, 7, 23
11, 100760, Channel_aftertouch_c, 2, 37
11, 100768, Control_c, 2, 7, 22
11, 100772, Control_c, 2, 7, 21
11, 100772, Channel_aftertouch_c, 2, 35
11, 100780, Control_c, 2, 7, 21
11, 100784, Control_c, 2, 7, 20
11, 100784, Channel_aftertouch_c, 2, 33
11, 100792, Control_c, 2, 7, 19
11, 100800, Control_c, 2, 7, 19
11, 100804, Control_c, 2, 7, 18
11, 100808, Channel_aftertouch_c, 2, 35
11, 100812, Control_c, 2, 7, 18
11, 100816, Control_c, 2, 7, 17
11, 100820, Channel_aftertouch_c, 2, 36
11, 100824, Control_c, 2, 7, 16
11, 100832, Control_c, 2, 7, 15
11, 100836, Control_c, 2, 7, 15
11, 100840, Channel_aftertouch_c, 2, 31
11, 100844, Control_c, 2, 7, 14
11, 100848, Control_c, 2, 7, 13
11, 100856, Control_c, 2, 7, 12
11, 100864, Control_c, 2, 7, 11
11, 100864, Channel_aftertouch_c, 2, 39
11, 100868, Control_c, 2, 7, 10
11, 100876, Control_c, 2, 7, 9
11, 100880, Channel_aftertouch_c, 2, 42
11, 100880, Control_c, 2, 7, 9
11, 100888, Control_c, 2, 7, 8
11, 100892, Channel_aftertouch_c, 2, 39
11, 100896, Control_c, 2, 7, 7
11, 100900, Control_c, 2, 7, 7
11, 100904, Channel_aftertouch_c, 2, 34
11, 100908, Control_c, 2, 7, 6
11, 100912, Control_c, 2, 7, 5
11, 100916, Channel_aftertouch_c, 2, 27
11, 100920, Control_c, 2, 7, 4
11, 100924, Channel_aftertouch_c, 2, 23
11, 100928, Control_c, 2, 7, 3
11, 100932, Control_c, 2, 7, 2
11, 100936, Channel_aftertouch_c, 2, 28
11, 100940, Control_c, 2, 7, 1
11, 100944, Control_c, 2, 7, 1
11, 100948, Channel_aftertouch_c, 2, 28
11, 100952, Control_c, 2, 7, 0
11, 100960, Control_c, 2, 7, 0
11, 100960, Channel_aftertouch_c, 2, 26
11, 100964, Control_c, 2, 7, 0
11, 100972, Control_c, 2, 7, 0
11, 100972, Channel_aftertouch_c, 2, 20
11, 100976, Control_c, 2, 7, 0
11, 100984, Control_c, 2, 7, 0
11, 100984, Channel_aftertouch_c, 2, 18
11, 100996, Channel_aftertouch_c, 2, 11
11, 101008, Channel_aftertouch_c, 2, 14
11, 101024, Channel_aftertouch_c, 2, 22
11, 101044, Channel_aftertouch_c, 2, 25
11, 101056, Channel_aftertouch_c, 2, 33
11, 101068, Channel_aftertouch_c, 2, 35
11, 101080, Channel_aftertouch_c, 2, 12
11, 101092, Channel_aftertouch_c, 2, 0
11, 101132, Note_on_c, 2, 79, 0
11, 101164, Note_on_c, 2, 83, 0
11, 109056, Control_c, 2, 7, 95
11, 110604, Note_on_c, 2, 81, 92
11, 110608, Note_on_c, 2, 76, 89
11, 110616, Channel_aftertouch_c, 2, 57
11, 110632, Channel_aftertouch_c, 2, 73
11, 110640, Channel_aftertouch_c, 2, 76
11, 110664, Channel_aftertouch_c, 2, 78
11, 110676, Channel_aftertouch_c, 2, 81
11, 110688, Channel_aftertouch_c, 2, 84
11, 110696, Channel_aftertouch_c, 2, 85
11, 110712, Channel_aftertouch_c, 2, 86
11, 110720, Channel_aftertouch_c, 2, 87
11, 110732, Channel_aftertouch_c, 2, 87
11, 110744, Channel_aftertouch_c, 2, 88
11, 110756, Channel_aftertouch_c, 2, 88
11, 110768, Channel_aftertouch_c, 2, 89
11, 110832, Channel_aftertouch_c, 2, 89
11, 110856, Channel_aftertouch_c, 2, 90
11, 110908, Channel_aftertouch_c, 2, 90
11, 110920, Channel_aftertouch_c, 2, 91
11, 110964, Channel_aftertouch_c, 2, 89
11, 111028, Channel_aftertouch_c, 2, 88
11, 111040, Channel_aftertouch_c, 2, 88
11, 111048, Channel_aftertouch_c, 2, 87
11, 111064, Channel_aftertouch_c, 2, 87
11, 111096, Channel_aftertouch_c, 2, 86
11, 111140, Channel_aftertouch_c, 2, 85
11, 111148, Channel_aftertouch_c, 2, 84
11, 111160, Channel_aftertouch_c, 2, 83
11, 111172, Channel_aftertouch_c, 2, 83
11, 111184, Channel_aftertouch_c, 2, 82
11, 111196, Channel_aftertouch_c, 2, 80
11, 111208, Channel_aftertouch_c, 2, 80
11, 111220, Channel_aftertouch_c, 2, 79
11, 111232, Channel_aftertouch_c, 2, 78
11, 111240, Channel_aftertouch_c, 2, 76
11, 111252, Channel_aftertouch_c, 2, 75
11, 111264, Channel_aftertouch_c, 2, 73
11, 111276, Channel_aftertouch_c, 2, 73
11, 111288, Channel_aftertouch_c, 2, 71
11, 111300, Channel_aftertouch_c, 2, 69
11, 111312, Channel_aftertouch_c, 2, 67
11, 111320, Channel_aftertouch_c, 2, 65
11, 111336, Channel_aftertouch_c, 2, 64
11, 111388, Channel_aftertouch_c, 2, 62
11, 111400, Channel_aftertouch_c, 2, 61
11, 111408, Channel_aftertouch_c, 2, 60
11, 111424, Channel_aftertouch_c, 2, 59
11, 111520, Channel_aftertouch_c, 2, 59
11, 111528, Channel_aftertouch_c, 2, 57
11, 111584, Channel_aftertouch_c, 2, 57
11, 111596, Channel_aftertouch_c, 2, 56
11, 111660, Channel_aftertouch_c, 2, 58
11, 111696, Channel_aftertouch_c, 2, 56
11, 111728, Channel_aftertouch_c, 2, 56
11, 111736, Channel_aftertouch_c, 2, 55
11, 111748, Channel_aftertouch_c, 2, 54
11, 111760, Channel_aftertouch_c, 2, 54
11, 111840, Channel_aftertouch_c, 2, 53
11, 111848, Channel_aftertouch_c, 2, 52
11, 111860, Channel_aftertouch_c, 2, 51
11, 111872, Channel_aftertouch_c, 2, 50
11, 111880, Channel_aftertouch_c, 2, 48
11, 111896, Channel_aftertouch_c, 2, 46
11, 111904, Channel_aftertouch_c, 2, 45
11, 111940, Channel_aftertouch_c, 2, 47
11, 111972, Channel_aftertouch_c, 2, 43
11, 111984, Channel_aftertouch_c, 2, 41
11, 112024, Channel_aftertouch_c, 2, 43
11, 112036, Channel_aftertouch_c, 2, 44
11, 112048, Channel_aftertouch_c, 2, 44
11, 112060, Channel_aftertouch_c, 2, 45
11, 112096, Channel_aftertouch_c, 2, 42
11, 112104, Channel_aftertouch_c, 2, 39
11, 112128, Channel_aftertouch_c, 2, 41
11, 112140, Channel_aftertouch_c, 2, 42
11, 112152, Channel_aftertouch_c, 2, 43
11, 112164, Channel_aftertouch_c, 2, 44
11, 112196, Channel_aftertouch_c, 2, 42
11, 112216, Channel_aftertouch_c, 2, 44
11, 112228, Channel_aftertouch_c, 2, 45
11, 112272, Channel_aftertouch_c, 2, 43
11, 112296, Channel_aftertouch_c, 2, 42
11, 112304, Channel_aftertouch_c, 2, 41
11, 112320, Channel_aftertouch_c, 2, 41
11, 112360, Channel_aftertouch_c, 2, 39
11, 112372, Channel_aftertouch_c, 2, 37
11, 112384, Channel_aftertouch_c, 2, 34
11, 112396, Channel_aftertouch_c, 2, 33
11, 112408, Channel_aftertouch_c, 2, 32
11, 112432, Channel_aftertouch_c, 2, 31
11, 112440, Channel_aftertouch_c, 2, 29
11, 112452, Channel_aftertouch_c, 2, 27
11, 112464, Channel_aftertouch_c, 2, 26
11, 112476, Channel_aftertouch_c, 2, 25
11, 112528, Channel_aftertouch_c, 2, 25
11, 112540, Channel_aftertouch_c, 2, 22
11, 112552, Channel_aftertouch_c, 2, 21
11, 112576, Channel_aftertouch_c, 2, 23
11, 112584, Channel_aftertouch_c, 2, 25
11, 112596, Channel_aftertouch_c, 2, 28
11, 112608, Channel_aftertouch_c, 2, 31
11, 112620, Channel_aftertouch_c, 2, 34
11, 112632, Channel_aftertouch_c, 2, 36
11, 112644, Channel_aftertouch_c, 2, 38
11, 112676, Channel_aftertouch_c, 2, 38
11, 112688, Channel_aftertouch_c, 2, 40
11, 112700, Channel_aftertouch_c, 2, 41
11, 112732, Channel_aftertouch_c, 2, 41
11, 112744, Channel_aftertouch_c, 2, 42
11, 112756, Channel_aftertouch_c, 2, 43
11, 112768, Channel_aftertouch_c, 2, 44
11, 112820, Channel_aftertouch_c, 2, 44
11, 112832, Channel_aftertouch_c, 2, 45
11, 112844, Channel_aftertouch_c, 2, 45
11, 112896, Channel_aftertouch_c, 2, 46
11, 112944, Channel_aftertouch_c, 2, 46
11, 112952, Channel_aftertouch_c, 2, 47
11, 113028, Channel_aftertouch_c, 2, 47
11, 113040, Channel_aftertouch_c, 2, 48
11, 113104, Channel_aftertouch_c, 2, 48
11, 113116, Channel_aftertouch_c, 2, 49
11, 113256, Channel_aftertouch_c, 2, 49
11, 113320, Channel_aftertouch_c, 2, 50
11, 113344, Channel_aftertouch_c, 2, 50
11, 113384, Channel_aftertouch_c, 2, 51
11, 113400, Channel_aftertouch_c, 2, 51
11, 113464, Channel_aftertouch_c, 2, 52
11, 113540, Channel_aftertouch_c, 2, 52
11, 113592, Channel_aftertouch_c, 2, 53
11, 113668, Channel_aftertouch_c, 2, 53
11, 113756, Channel_aftertouch_c, 2, 54
11, 113808, Channel_aftertouch_c, 2, 54
11, 113884, Channel_aftertouch_c, 2, 55
11, 114012, Channel_aftertouch_c, 2, 55
11, 114100, Channel_aftertouch_c, 2, 56
11, 114176, Channel_aftertouch_c, 2, 56
11, 114240, Channel_aftertouch_c, 2, 57
11, 115116, Channel_aftertouch_c, 2, 55
11, 115128, Channel_aftertouch_c, 2, 50
11, 115140, Channel_aftertouch_c, 2, 20
11, 115148, Channel_aftertouch_c, 2, 0
11, 115184, Channel_aftertouch_c, 2, 15
11, 115192, Channel_aftertouch_c, 2, 47
11, 115208, Channel_aftertouch_c, 2, 60
11, 115216, Channel_aftertouch_c, 2, 64
11, 115220, Note_on_c, 2, 78, 108
11, 115224, Channel_aftertouch_c, 2, 81
11, 115240, Channel_aftertouch_c, 2, 74
11, 115248, Channel_aftertouch_c, 2, 67
11, 115264, Channel_aftertouch_c, 2, 71
11, 115272, Channel_aftertouch_c, 2, 75
11, 115284, Channel_aftertouch_c, 2, 76
11, 115304, Channel_aftertouch_c, 2, 74
11, 115316, Channel_aftertouch_c, 2, 76
11, 115328, Channel_aftertouch_c, 2, 77
11, 115360, Channel_aftertouch_c, 2, 75
11, 115384, Channel_aftertouch_c, 2, 79
11, 115396, Channel_aftertouch_c, 2, 81
11, 115408, Channel_aftertouch_c, 2, 82
11, 115416, Channel_aftertouch_c, 2, 83
11, 115504, Channel_aftertouch_c, 2, 84
11, 115516, Channel_aftertouch_c, 2, 84
11, 115528, Channel_aftertouch_c, 2, 85
11, 115552, Channel_aftertouch_c, 2, 86
11, 115560, Channel_aftertouch_c, 2, 87
11, 115572, Channel_aftertouch_c, 2, 88
11, 115584, Channel_aftertouch_c, 2, 89
11, 115596, Channel_aftertouch_c, 2, 90
11, 115608, Channel_aftertouch_c, 2, 91
11, 115696, Channel_aftertouch_c, 2, 89
11, 115716, Channel_aftertouch_c, 2, 88
11, 115768, Channel_aftertouch_c, 2, 87
11, 115780, Channel_aftertouch_c, 2, 83
11, 115792, Channel_aftertouch_c, 2, 76
11, 115804, Channel_aftertouch_c, 2, 74
11, 115816, Channel_aftertouch_c, 2, 76
11, 115840, Channel_aftertouch_c, 2, 61
11, 115848, Channel_aftertouch_c, 2, 14
11, 115880, Note_on_c, 2, 76, 0
11, 115916, Channel_aftertouch_c, 2, 13
11, 115928, Channel_aftertouch_c, 2, 12
11, 115940, Channel_aftertouch_c, 2, 11
11, 115952, Channel_aftertouch_c, 2, 6
11, 115964, Channel_aftertouch_c, 2, 0
11, 115984, Note_on_c, 2, 78, 0
11, 115984, Note_on_c, 2, 76, 92
11, 115988, Channel_aftertouch_c, 2, 74
11, 116000, Channel_aftertouch_c, 2, 80
11, 116024, Channel_aftertouch_c, 2, 81
11, 116032, Channel_aftertouch_c, 2, 86
11, 116044, Channel_aftertouch_c, 2, 90
11, 116112, Channel_aftertouch_c, 2, 90
11, 116120, Channel_aftertouch_c, 2, 91
11, 116132, Channel_aftertouch_c, 2, 92
11, 116144, Channel_aftertouch_c, 2, 92
11, 116200, Channel_aftertouch_c, 2, 93
11, 116212, Channel_aftertouch_c, 2, 93
11, 116232, Channel_aftertouch_c, 2, 94
11, 116308, Channel_aftertouch_c, 2, 91
11, 116332, Channel_aftertouch_c, 2, 90
11, 116352, Channel_aftertouch_c, 2, 90
11, 116364, Channel_aftertouch_c, 2, 89
11, 116376, Channel_aftertouch_c, 2, 86
11, 116388, Channel_aftertouch_c, 2, 85
11, 116408, Channel_aftertouch_c, 2, 83
11, 116420, Channel_aftertouch_c, 2, 82
11, 116440, Channel_aftertouch_c, 2, 81
11, 116452, Channel_aftertouch_c, 2, 79
11, 116464, Channel_aftertouch_c, 2, 77
11, 116532, Channel_aftertouch_c, 2, 75
11, 116540, Channel_aftertouch_c, 2, 74
11, 116552, Channel_aftertouch_c, 2, 70
11, 116564, Channel_aftertouch_c, 2, 68
11, 116576, Channel_aftertouch_c, 2, 64
11, 116588, Channel_aftertouch_c, 2, 61
11, 116600, Channel_aftertouch_c, 2, 51
11, 116612, Channel_aftertouch_c, 2, 5
11, 116624, Channel_aftertouch_c, 2, 0
11, 116644, Note_on_c, 2, 76, 0
11, 116656, Note_on_c, 2, 81, 0
11, 116724, Note_on_c, 2, 81, 89
11, 116728, Note_on_c, 2, 76, 85
11, 116736, Channel_aftertouch_c, 2, 69
11, 116748, Channel_aftertouch_c, 2, 83
11, 116760, Channel_aftertouch_c, 2, 86
11, 116784, Channel_aftertouch_c, 2, 87
11, 116792, Channel_aftertouch_c, 2, 89
11, 116804, Channel_aftertouch_c, 2, 90
11, 116816, Channel_aftertouch_c, 2, 91
11, 116840, Channel_aftertouch_c, 2, 92
11, 116848, Channel_aftertouch_c, 2, 92
11, 116864, Channel_aftertouch_c, 2, 93
11, 117120, Channel_aftertouch_c, 2, 91
11, 117376, Channel_aftertouch_c, 2, 90
11, 117412, Channel_aftertouch_c, 2, 90
11, 117420, Channel_aftertouch_c, 2, 89
11, 117432, Channel_aftertouch_c, 2, 89
11, 117488, Channel_aftertouch_c, 2, 88
11, 117500, Channel_aftertouch_c, 2, 87
11, 117628, Channel_aftertouch_c, 2, 86
11, 117636, Channel_aftertouch_c, 2, 86
11, 117652, Channel_aftertouch_c, 2, 85
11, 117680, Channel_aftertouch_c, 2, 85
11, 117696, Channel_aftertouch_c, 2, 84
11, 117748, Channel_aftertouch_c, 2, 84
11, 117772, Channel_aftertouch_c, 2, 83
11, 117784, Channel_aftertouch_c, 2, 83
11, 118060, Channel_aftertouch_c, 2, 82
11, 118072, Channel_aftertouch_c, 2, 82
11, 118084, Channel_aftertouch_c, 2, 81
11, 118116, Channel_aftertouch_c, 2, 81
11, 118128, Channel_aftertouch_c, 2, 80
11, 118140, Channel_aftertouch_c, 2, 79
11, 118152, Channel_aftertouch_c, 2, 79
11, 118184, Channel_aftertouch_c, 2, 78
11, 118192, Channel_aftertouch_c, 2, 77
11, 118208, Channel_aftertouch_c, 2, 76
11, 118272, Channel_aftertouch_c, 2, 75
11, 118284, Channel_aftertouch_c, 2, 75
11, 118304, Channel_aftertouch_c, 2, 74
11, 118348, Channel_aftertouch_c, 2, 74
11, 118360, Channel_aftertouch_c, 2, 73
11, 118372, Channel_aftertouch_c, 2, 72
11, 118384, Channel_aftertouch_c, 2, 72
11, 118424, Channel_aftertouch_c, 2, 74
11, 118512, Channel_aftertouch_c, 2, 72
11, 118672, Channel_aftertouch_c, 2, 74
11, 118920, Channel_aftertouch_c, 2, 72
11, 119188, Channel_aftertouch_c, 2, 74
11, 119208, Channel_aftertouch_c, 2, 74
11, 119220, Channel_aftertouch_c, 2, 75
11, 119296, Channel_aftertouch_c, 2, 75
11, 119404, Channel_aftertouch_c, 2, 76
11, 119640, Channel_aftertouch_c, 2, 73
11, 119652, Channel_aftertouch_c, 2, 73
11, 119664, Channel_aftertouch_c, 2, 72
11, 119676, Channel_aftertouch_c, 2, 71
11, 119684, Channel_aftertouch_c, 2, 70
11, 119696, Channel_aftertouch_c, 2, 67
11, 119708, Channel_aftertouch_c, 2, 63
11, 119720, Channel_aftertouch_c, 2, 56
11, 119732, Channel_aftertouch_c, 2, 47
11, 119744, Channel_aftertouch_c, 2, 11
11, 119756, Channel_aftertouch_c, 2, 0
11, 119764, Note_on_c, 2, 81, 0
11, 119804, Note_on_c, 2, 81, 96
11, 119824, Channel_aftertouch_c, 2, 63
11, 119832, Channel_aftertouch_c, 2, 68
11, 119844, Channel_aftertouch_c, 2, 71
11, 119856, Channel_aftertouch_c, 2, 74
11, 119868, Channel_aftertouch_c, 2, 77
11, 119880, Channel_aftertouch_c, 2, 79
11, 119892, Channel_aftertouch_c, 2, 80
11, 119904, Channel_aftertouch_c, 2, 81
11, 119912, Channel_aftertouch_c, 2, 82
11, 119924, Channel_aftertouch_c, 2, 83
11, 119936, Channel_aftertouch_c, 2, 83
11, 119948, Channel_aftertouch_c, 2, 84
11, 119960, Channel_aftertouch_c, 2, 84
11, 119972, Channel_aftertouch_c, 2, 85
11, 119984, Channel_aftertouch_c, 2, 85
11, 120104, Channel_aftertouch_c, 2, 83
11, 120112, Channel_aftertouch_c, 2, 83
11, 120124, Channel_aftertouch_c, 2, 82
11, 120136, Channel_aftertouch_c, 2, 81
11, 120148, Channel_aftertouch_c, 2, 80
11, 120160, Channel_aftertouch_c, 2, 78
11, 120172, Channel_aftertouch_c, 2, 76
11, 120184, Channel_aftertouch_c, 2, 73
11, 120192, Channel_aftertouch_c, 2, 68
11, 120204, Channel_aftertouch_c, 2, 61
11, 120212, Note_on_c, 2, 78, 113
11, 120216, Channel_aftertouch_c, 2, 17
11, 120232, Channel_aftertouch_c, 2, 14
11, 120236, Note_on_c, 2, 76, 0
11, 120240, Channel_aftertouch_c, 2, 12
11, 120252, Channel_aftertouch_c, 2, 0
11, 120388, Channel_aftertouch_c, 2, 3
11, 120400, Channel_aftertouch_c, 2, 6
11, 120412, Channel_aftertouch_c, 2, 10
11, 120424, Channel_aftertouch_c, 2, 12
11, 120468, Channel_aftertouch_c, 2, 10
11, 120480, Channel_aftertouch_c, 2, 9
11, 120500, Channel_aftertouch_c, 2, 9
11, 120512, Channel_aftertouch_c, 2, 6
11, 120524, Channel_aftertouch_c, 2, 2
11, 120536, Channel_aftertouch_c, 2, 0
11, 120584, Note_on_c, 2, 76, 96
11, 120592, Channel_aftertouch_c, 2, 60
11, 120604, Channel_aftertouch_c, 2, 73
11, 120616, Channel_aftertouch_c, 2, 74
11, 120624, Channel_aftertouch_c, 2, 76
11, 120640, Channel_aftertouch_c, 2, 79
11, 120648, Channel_aftertouch_c, 2, 81
11, 120656, Note_on_c, 2, 78, 0
11, 120676, Channel_aftertouch_c, 2, 82
11, 120684, Channel_aftertouch_c, 2, 80
11, 120696, Channel_aftertouch_c, 2, 79
11, 120708, Channel_aftertouch_c, 2, 78
11, 120752, Channel_aftertouch_c, 2, 76
11, 120776, Channel_aftertouch_c, 2, 80
11, 120788, Channel_aftertouch_c, 2, 82
11, 120800, Channel_aftertouch_c, 2, 80
11, 120808, Channel_aftertouch_c, 2, 79
11, 120820, Channel_aftertouch_c, 2, 78
11, 120832, Channel_aftertouch_c, 2, 77
11, 120852, Channel_aftertouch_c, 2, 75
11, 120864, Channel_aftertouch_c, 2, 75
11, 120876, Channel_aftertouch_c, 2, 74
11, 120888, Channel_aftertouch_c, 2, 70
11, 120900, Channel_aftertouch_c, 2, 72
11, 120924, Channel_aftertouch_c, 2, 68
11, 120932, Channel_aftertouch_c, 2, 48
11, 120944, Channel_aftertouch_c, 2, 0
11, 120952, Note_on_c, 2, 73, 96
11, 120968, Note_on_c, 2, 76, 0
11, 120968, Channel_aftertouch_c, 2, 26
11, 120976, Channel_aftertouch_c, 2, 29
11, 120988, Channel_aftertouch_c, 2, 30
11, 121000, Channel_aftertouch_c, 2, 28
11, 121012, Channel_aftertouch_c, 2, 24
11, 121024, Channel_aftertouch_c, 2, 17
11, 121068, Channel_aftertouch_c, 2, 15
11, 121080, Channel_aftertouch_c, 2, 12
11, 121088, Channel_aftertouch_c, 2, 7
11, 121104, Channel_aftertouch_c, 2, 0
11, 121112, Channel_aftertouch_c, 2, 0
11, 121136, Note_on_c, 2, 69, 92
11, 121148, Channel_aftertouch_c, 2, 62
11, 121160, Channel_aftertouch_c, 2, 53
11, 121180, Channel_aftertouch_c, 2, 57
11, 121184, Note_on_c, 2, 73, 0
11, 121192, Channel_aftertouch_c, 2, 60
11, 121200, Channel_aftertouch_c, 2, 58
11, 121212, Channel_aftertouch_c, 2, 47
11, 121224, Channel_aftertouch_c, 2, 8
11, 121236, Channel_aftertouch_c, 2, 0
11, 121248, Note_on_c, 2, 73, 79
11, 121256, Note_on_c, 2, 69, 0
11, 121280, Note_on_c, 2, 73, 0
11, 121352, Note_on_c, 2, 71, 100
11, 121356, Channel_aftertouch_c, 2, 44
11, 121376, Channel_aftertouch_c, 2, 40
11, 121400, Channel_aftertouch_c, 2, 48
11, 121412, Channel_aftertouch_c, 2, 53
11, 121424, Channel_aftertouch_c, 2, 55
11, 121448, Channel_aftertouch_c, 2, 50
11, 121460, Channel_aftertouch_c, 2, 53
11, 121468, Channel_aftertouch_c, 2, 57
11, 121480, Channel_aftertouch_c, 2, 59
11, 121512, Channel_aftertouch_c, 2, 59
11, 121548, Channel_aftertouch_c, 2, 56
11, 121560, Channel_aftertouch_c, 2, 56
11, 121580, Channel_aftertouch_c, 2, 59
11, 121592, Channel_aftertouch_c, 2, 61
11, 121604, Channel_aftertouch_c, 2, 62
11, 121636, Channel_aftertouch_c, 2, 60
11, 121648, Channel_aftertouch_c, 2, 58
11, 121776, Channel_aftertouch_c, 2, 58
11, 121788, Channel_aftertouch_c, 2, 57
11, 121800, Channel_aftertouch_c, 2, 56
11, 121808, Channel_aftertouch_c, 2, 55
11, 121824, Channel_aftertouch_c, 2, 54
11, 121832, Channel_aftertouch_c, 2, 53
11, 121844, Channel_aftertouch_c, 2, 52
11, 121856, Channel_aftertouch_c, 2, 50
11, 121868, Channel_aftertouch_c, 2, 47
11, 121880, Channel_aftertouch_c, 2, 40
11, 121892, Channel_aftertouch_c, 2, 13
11, 121904, Channel_aftertouch_c, 2, 0
11, 121908, Note_on_c, 2, 73, 104
11, 121916, Channel_aftertouch_c, 2, 27
11, 121924, Note_on_c, 2, 71, 0
11, 121924, Channel_aftertouch_c, 2, 16
11, 121936, Channel_aftertouch_c, 2, 14
11, 121948, Channel_aftertouch_c, 2, 11
11, 121960, Channel_aftertouch_c, 2, 2
11, 121972, Channel_aftertouch_c, 2, 0
11, 122004, Note_on_c, 2, 71, 100
11, 122016, Note_on_c, 2, 73, 0
11, 122016, Channel_aftertouch_c, 2, 37
11, 122028, Channel_aftertouch_c, 2, 29
11, 122040, Channel_aftertouch_c, 2, 6
11, 122052, Channel_aftertouch_c, 2, 0
11, 122064, Note_on_c, 2, 71, 0
11, 122108, Note_on_c, 2, 69, 100
11, 122108, Channel_aftertouch_c, 2, 49
11, 122120, Channel_aftertouch_c, 2, 67
11, 122132, Channel_aftertouch_c, 2, 63
11, 122144, Channel_aftertouch_c, 2, 59
11, 122168, Channel_aftertouch_c, 2, 70
11, 122176, Channel_aftertouch_c, 2, 77
11, 122192, Channel_aftertouch_c, 2, 80
11, 122212, Channel_aftertouch_c, 2, 82
11, 122224, Channel_aftertouch_c, 2, 84
11, 122256, Channel_aftertouch_c, 2, 81
11, 122268, Channel_aftertouch_c, 2, 80
11, 122280, Channel_aftertouch_c, 2, 80
11, 122312, Channel_aftertouch_c, 2, 82
11, 122324, Channel_aftertouch_c, 2, 84
11, 122336, Channel_aftertouch_c, 2, 84
11, 122484, Channel_aftertouch_c, 2, 81
11, 122496, Channel_aftertouch_c, 2, 76
11, 122508, Channel_aftertouch_c, 2, 72
11, 122520, Channel_aftertouch_c, 2, 71
11, 122540, Channel_aftertouch_c, 2, 75
11, 122552, Channel_aftertouch_c, 2, 76
11, 122584, Channel_aftertouch_c, 2, 72
11, 122600, Channel_aftertouch_c, 2, 70
11, 122608, Channel_aftertouch_c, 2, 68
11, 122620, Channel_aftertouch_c, 2, 67
11, 122632, Channel_aftertouch_c, 2, 59
11, 122644, Channel_aftertouch_c, 2, 47
11, 122656, Channel_aftertouch_c, 2, 31
11, 122664, Channel_aftertouch_c, 2, 0
11, 122708, Note_on_c, 2, 69, 0
11, 122824, Note_on_c, 2, 81, 0
11, 122872, Note_on_c, 2, 74, 108
11, 122872, Note_on_c, 2, 81, 100
11, 122880, Note_on_c, 2, 81, 0
11, 122880, Note_on_c, 2, 74, 0
11, 122880, Note_on_c, 2, 81, 92
11, 122880, Note_on_c, 2, 76, 82
11, 122888, Channel_aftertouch_c, 2, 65
11, 122904, Channel_aftertouch_c, 2, 78
11, 122912, Channel_aftertouch_c, 2, 80
11, 122968, Channel_aftertouch_c, 2, 81
11, 123064, Channel_aftertouch_c, 2, 78
11, 123076, Channel_aftertouch_c, 2, 78
11, 123128, Channel_aftertouch_c, 2, 77
11, 123144, Channel_aftertouch_c, 2, 76
11, 123208, Channel_aftertouch_c, 2, 76
11, 123260, Channel_aftertouch_c, 2, 75
11, 123284, Channel_aftertouch_c, 2, 75
11, 123336, Channel_aftertouch_c, 2, 77
11, 123348, Channel_aftertouch_c, 2, 77
11, 123488, Channel_aftertouch_c, 2, 78
11, 123564, Channel_aftertouch_c, 2, 76
11, 123576, Channel_aftertouch_c, 2, 75
11, 123588, Channel_aftertouch_c, 2, 75
11, 123600, Channel_aftertouch_c, 2, 74
11, 123612, Channel_aftertouch_c, 2, 74
11, 123624, Channel_aftertouch_c, 2, 73
11, 123644, Channel_aftertouch_c, 2, 72
11, 123656, Channel_aftertouch_c, 2, 71
11, 123668, Channel_aftertouch_c, 2, 69
11, 123680, Channel_aftertouch_c, 2, 68
11, 123688, Channel_aftertouch_c, 2, 67
11, 123704, Channel_aftertouch_c, 2, 66
11, 123712, Channel_aftertouch_c, 2, 64
11, 123724, Channel_aftertouch_c, 2, 63
11, 123748, Channel_aftertouch_c, 2, 63
11, 123780, Channel_aftertouch_c, 2, 62
11, 123792, Channel_aftertouch_c, 2, 61
11, 123856, Channel_aftertouch_c, 2, 60
11, 123868, Channel_aftertouch_c, 2, 60
11, 124052, Channel_aftertouch_c, 2, 62
11, 124104, Channel_aftertouch_c, 2, 62
11, 124136, Channel_aftertouch_c, 2, 63
11, 124160, Channel_aftertouch_c, 2, 63
11, 124168, Channel_aftertouch_c, 2, 64
11, 124180, Channel_aftertouch_c, 2, 64
11, 124616, Channel_aftertouch_c, 2, 65
11, 124628, Channel_aftertouch_c, 2, 65
11, 124664, Control_c, 2, 1, 2
11, 124748, Channel_aftertouch_c, 2, 66
11, 124796, Control_c, 2, 1, 2
11, 124892, Control_c, 2, 1, 3
11, 124952, Channel_aftertouch_c, 2, 64
11, 124964, Channel_aftertouch_c, 2, 63
11, 124976, Channel_aftertouch_c, 2, 63
11, 124988, Channel_aftertouch_c, 2, 62
11, 125076, Channel_aftertouch_c, 2, 61
11, 125084, Channel_aftertouch_c, 2, 57
11, 125096, Channel_aftertouch_c, 2, 41
11, 125108, Channel_aftertouch_c, 2, 0
11, 125152, Note_on_c, 2, 76, 0
11, 125200, Control_c, 2, 1, 1
11, 125212, Control_c, 2, 1, 0
11, 125212, Note_on_c, 2, 76, 82
11, 125220, Channel_aftertouch_c, 2, 62
11, 125232, Note_on_c, 2, 78, 96
11, 125236, Channel_aftertouch_c, 2, 71
11, 125248, Channel_aftertouch_c, 2, 76
11, 125256, Channel_aftertouch_c, 2, 80
11, 125268, Channel_aftertouch_c, 2, 85
11, 125276, Control_c, 2, 1, 0
11, 125284, Channel_aftertouch_c, 2, 87
11, 125316, Channel_aftertouch_c, 2, 89
11, 125328, Channel_aftertouch_c, 2, 90
11, 125340, Channel_aftertouch_c, 2, 91
11, 125348, Channel_aftertouch_c, 2, 92
11, 125360, Channel_aftertouch_c, 2, 92
11, 125372, Channel_aftertouch_c, 2, 93
11, 125436, Channel_aftertouch_c, 2, 90
11, 125448, Channel_aftertouch_c, 2, 83
11, 125460, Channel_aftertouch_c, 2, 79
11, 125484, Channel_aftertouch_c, 2, 85
11, 125492, Channel_aftertouch_c, 2, 87
11, 125528, Channel_aftertouch_c, 2, 81
11, 125540, Channel_aftertouch_c, 2, 76
11, 125548, Channel_aftertouch_c, 2, 72
11, 125560, Channel_aftertouch_c, 2, 69
11, 125572, Channel_aftertouch_c, 2, 40
11, 125584, Channel_aftertouch_c, 2, 33
11, 125596, Channel_aftertouch_c, 2, 33
11, 125608, Channel_aftertouch_c, 2, 32
11, 125628, Channel_aftertouch_c, 2, 62
11, 125640, Channel_aftertouch_c, 2, 65
11, 125652, Channel_aftertouch_c, 2, 40
11, 125664, Channel_aftertouch_c, 2, 36
11, 125696, Channel_aftertouch_c, 2, 59
11, 125708, Channel_aftertouch_c, 2, 69
11, 125732, Channel_aftertouch_c, 2, 62
11, 125740, Channel_aftertouch_c, 2, 44
11, 125756, Channel_aftertouch_c, 2, 43
11, 125764, Channel_aftertouch_c, 2, 37
11, 125776, Channel_aftertouch_c, 2, 36
11, 125788, Channel_aftertouch_c, 2, 35
11, 125800, Channel_aftertouch_c, 2, 34
11, 125812, Note_on_c, 2, 76, 0
11, 125812, Channel_aftertouch_c, 2, 33
11, 125824, Channel_aftertouch_c, 2, 30
11, 125836, Channel_aftertouch_c, 2, 23
11, 125848, Channel_aftertouch_c, 2, 15
11, 125860, Channel_aftertouch_c, 2, 0
11, 125900, Note_on_c, 2, 78, 0
11, 125924, Note_on_c, 2, 76, 96
11, 125928, Channel_aftertouch_c, 2, 82
11, 125940, Channel_aftertouch_c, 2, 80
11, 125948, Channel_aftertouch_c, 2, 87
11, 125960, Channel_aftertouch_c, 2, 88
11, 125972, Channel_aftertouch_c, 2, 90
11, 125984, Channel_aftertouch_c, 2, 95
11, 125996, Channel_aftertouch_c, 2, 102
11, 126008, Channel_aftertouch_c, 2, 105
11, 126020, Channel_aftertouch_c, 2, 106
11, 126052, Channel_aftertouch_c, 2, 104
11, 126076, Channel_aftertouch_c, 2, 103
11, 126084, Channel_aftertouch_c, 2, 102
11, 126100, Channel_aftertouch_c, 2, 101
11, 126120, Channel_aftertouch_c, 2, 103
11, 126132, Channel_aftertouch_c, 2, 105
11, 126144, Channel_aftertouch_c, 2, 106
11, 126176, Channel_aftertouch_c, 2, 103
11, 126188, Channel_aftertouch_c, 2, 102
11, 126208, Channel_aftertouch_c, 2, 104
11, 126220, Channel_aftertouch_c, 2, 105
11, 126296, Channel_aftertouch_c, 2, 103
11, 126316, Channel_aftertouch_c, 2, 102
11, 126332, Channel_aftertouch_c, 2, 101
11, 126340, Channel_aftertouch_c, 2, 101
11, 126352, Channel_aftertouch_c, 2, 100
11, 126372, Channel_aftertouch_c, 2, 99
11, 126388, Channel_aftertouch_c, 2, 98
11, 126396, Channel_aftertouch_c, 2, 98
11, 126420, Channel_aftertouch_c, 2, 97
11, 126440, Channel_aftertouch_c, 2, 96
11, 126452, Channel_aftertouch_c, 2, 95
11, 126464, Channel_aftertouch_c, 2, 94
11, 126476, Channel_aftertouch_c, 2, 93
11, 126488, Channel_aftertouch_c, 2, 92
11, 126500, Channel_aftertouch_c, 2, 91
11, 126512, Channel_aftertouch_c, 2, 90
11, 126524, Channel_aftertouch_c, 2, 89
11, 126536, Channel_aftertouch_c, 2, 88
11, 126576, Channel_aftertouch_c, 2, 88
11, 126588, Channel_aftertouch_c, 2, 86
11, 126600, Channel_aftertouch_c, 2, 85
11, 126656, Channel_aftertouch_c, 2, 84
11, 126668, Channel_aftertouch_c, 2, 83
11, 126676, Channel_aftertouch_c, 2, 82
11, 126692, Channel_aftertouch_c, 2, 81
11, 126724, Channel_aftertouch_c, 2, 81
11, 126732, Channel_aftertouch_c, 2, 79
11, 126744, Channel_aftertouch_c, 2, 78
11, 126756, Channel_aftertouch_c, 2, 77
11, 126812, Channel_aftertouch_c, 2, 76
11, 126824, Channel_aftertouch_c, 2, 75
11, 126836, Channel_aftertouch_c, 2, 74
11, 126844, Channel_aftertouch_c, 2, 74
11, 126856, Channel_aftertouch_c, 2, 73
11, 126868, Channel_aftertouch_c, 2, 73
11, 126900, Channel_aftertouch_c, 2, 72
11, 126912, Channel_aftertouch_c, 2, 72
11, 126936, Channel_aftertouch_c, 2, 71
11, 127000, Channel_aftertouch_c, 2, 70
11, 127064, Channel_aftertouch_c, 2, 70
11, 127076, Channel_aftertouch_c, 2, 69
11, 127100, Channel_aftertouch_c, 2, 69
11, 127120, Channel_aftertouch_c, 2, 68
11, 127132, Channel_aftertouch_c, 2, 68
11, 127144, Channel_aftertouch_c, 2, 67
11, 127156, Channel_aftertouch_c, 2, 65
11, 127168, Channel_aftertouch_c, 2, 63
11, 127180, Channel_aftertouch_c, 2, 62
11, 127188, Channel_aftertouch_c, 2, 62
11, 127200, Channel_aftertouch_c, 2, 61
11, 127256, Channel_aftertouch_c, 2, 61
11, 127288, Channel_aftertouch_c, 2, 63
11, 127300, Channel_aftertouch_c, 2, 64
11, 127364, Channel_aftertouch_c, 2, 64
11, 127376, Channel_aftertouch_c, 2, 65
11, 127396, Channel_aftertouch_c, 2, 65
11, 127420, Channel_aftertouch_c, 2, 66
11, 127432, Channel_aftertouch_c, 2, 66
11, 127456, Channel_aftertouch_c, 2, 67
11, 127464, Channel_aftertouch_c, 2, 67
11, 127488, Channel_aftertouch_c, 2, 68
11, 127500, Channel_aftertouch_c, 2, 68
11, 127508, Channel_aftertouch_c, 2, 69
11, 127524, Channel_aftertouch_c, 2, 70
11, 127532, Channel_aftertouch_c, 2, 71
11, 127544, Channel_aftertouch_c, 2, 71
11, 127556, Channel_aftertouch_c, 2, 72
11, 127688, Channel_aftertouch_c, 2, 72
11, 127696, Channel_aftertouch_c, 2, 73
11, 127708, Channel_aftertouch_c, 2, 73
11, 127936, Control_c, 2, 1, 2
11, 127960, Control_c, 2, 1, 2
11, 127980, Control_c, 2, 1, 3
11, 128016, Control_c, 2, 1, 3
11, 128036, Control_c, 2, 1, 4
11, 128072, Control_c, 2, 1, 4
11, 128092, Channel_aftertouch_c, 2, 74
11, 128180, Control_c, 2, 1, 5
11, 128192, Control_c, 2, 1, 5
11, 128200, Channel_aftertouch_c, 2, 74
11, 128204, Control_c, 2, 1, 6
11, 128228, Control_c, 2, 1, 6
11, 128344, Control_c, 2, 1, 7
11, 128380, Control_c, 2, 1, 7
11, 128444, Control_c, 2, 1, 8
11, 128464, Control_c, 2, 1, 8
11, 128488, Control_c, 2, 1, 9
11, 128624, Channel_aftertouch_c, 2, 72
11, 128636, Channel_aftertouch_c, 2, 72
11, 128648, Channel_aftertouch_c, 2, 71
11, 128700, Channel_aftertouch_c, 2, 71
11, 128768, Channel_aftertouch_c, 2, 70
11, 128780, Channel_aftertouch_c, 2, 69
11, 128824, Channel_aftertouch_c, 2, 71
11, 128832, Channel_aftertouch_c, 2, 72
11, 128924, Control_c, 2, 1, 9
11, 128944, Channel_aftertouch_c, 2, 66
11, 128952, Channel_aftertouch_c, 2, 45
11, 128964, Channel_aftertouch_c, 2, 0
11, 129020, Channel_aftertouch_c, 2, 23
11, 129032, Channel_aftertouch_c, 2, 69
11, 129044, Channel_aftertouch_c, 2, 77
11, 129052, Channel_aftertouch_c, 2, 82
11, 129068, Channel_aftertouch_c, 2, 83
11, 129076, Channel_aftertouch_c, 2, 84
11, 129092, Channel_aftertouch_c, 2, 85
11, 129240, Channel_aftertouch_c, 2, 86
11, 129252, Channel_aftertouch_c, 2, 86
11, 129340, Control_c, 2, 1, 10
11, 129364, Control_c, 2, 1, 10
11, 129396, Control_c, 2, 1, 11
11, 129472, Control_c, 2, 1, 11
11, 129524, Control_c, 2, 1, 12
11, 129624, Control_c, 2, 1, 12
11, 129656, Control_c, 2, 1, 13
11, 129680, Control_c, 2, 1, 13
11, 129712, Control_c, 2, 1, 14
11, 129732, Control_c, 2, 1, 14
11, 129812, Control_c, 2, 1, 15
11, 129832, Control_c, 2, 1, 15
11, 129856, Control_c, 2, 1, 16
11, 129916, Channel_aftertouch_c, 2, 84
11, 129920, Control_c, 2, 1, 16
11, 130008, Control_c, 2, 1, 17
11, 130036, Channel_aftertouch_c, 2, 84
11, 130080, Channel_aftertouch_c, 2, 83
11, 130116, Control_c, 2, 1, 17
11, 130124, Channel_aftertouch_c, 2, 83
11, 130172, Channel_aftertouch_c, 2, 82
11, 130212, Channel_aftertouch_c, 2, 82
11, 130224, Channel_aftertouch_c, 2, 81
11, 130236, Channel_aftertouch_c, 2, 81
11, 130260, Channel_aftertouch_c, 2, 80
11, 130292, Channel_aftertouch_c, 2, 80
11, 130316, Channel_aftertouch_c, 2, 79
11, 130336, Channel_aftertouch_c, 2, 79
11, 130348, Channel_aftertouch_c, 2, 78
11, 130360, Channel_aftertouch_c, 2, 77
11, 130372, Channel_aftertouch_c, 2, 75
11, 130380, Channel_aftertouch_c, 2, 73
11, 130396, Channel_aftertouch_c, 2, 72
11, 130404, Channel_aftertouch_c, 2, 71
11, 130448, Channel_aftertouch_c, 2, 71
11, 130504, Channel_aftertouch_c, 2, 73
11, 130516, Channel_aftertouch_c, 2, 73
11, 130536, Channel_aftertouch_c, 2, 74
11, 130548, Channel_aftertouch_c, 2, 75
11, 130556, Channel_aftertouch_c, 2, 75
11, 130708, Channel_aftertouch_c, 2, 76
11, 130732, Channel_aftertouch_c, 2, 76
11, 130756, Channel_aftertouch_c, 2, 77
11, 130776, Channel_aftertouch_c, 2, 77
11, 130928, Control_c, 2, 1, 15
11, 130964, Control_c, 2, 1, 15
11, 130972, Channel_aftertouch_c, 2, 75
11, 130976, Control_c, 2, 1, 14
11, 130988, Control_c, 2, 1, 13
11, 130996, Channel_aftertouch_c, 2, 75
11, 131008, Channel_aftertouch_c, 2, 74
11, 131020, Channel_aftertouch_c, 2, 73
11, 131032, Channel_aftertouch_c, 2, 72
11, 131044, Channel_aftertouch_c, 2, 71
11, 131052, Channel_aftertouch_c, 2, 70
11, 131056, Control_c, 2, 1, 13
11, 131092, Control_c, 2, 1, 12
11, 131100, Channel_aftertouch_c, 2, 70
11, 131104, Control_c, 2, 1, 12
11, 131116, Control_c, 2, 1, 11
11, 131124, Channel_aftertouch_c, 2, 69
11, 131128, Control_c, 2, 1, 9
11, 131136, Channel_aftertouch_c, 2, 69
11, 131140, Control_c, 2, 1, 8
11, 131148, Channel_aftertouch_c, 2, 67
11, 131156, Control_c, 2, 1, 8
11, 131164, Channel_aftertouch_c, 2, 65
11, 131168, Control_c, 2, 1, 7
11, 131176, Channel_aftertouch_c, 2, 62
11, 131180, Control_c, 2, 1, 6
11, 131188, Channel_aftertouch_c, 2, 57
11, 131192, Control_c, 2, 1, 5
11, 131200, Channel_aftertouch_c, 2, 50
11, 131204, Control_c, 2, 1, 4
11, 131212, Channel_aftertouch_c, 2, 38
11, 131216, Control_c, 2, 1, 3
11, 131228, Channel_aftertouch_c, 2, 19
11, 131232, Control_c, 2, 1, 1
11, 131240, Channel_aftertouch_c, 2, 0
11, 131244, Control_c, 2, 1, 0
11, 131268, Note_on_c, 2, 76, 0
11, 131356, Note_on_c, 2, 78, 108
11, 131356, Note_on_c, 2, 76, 96
11, 131364, Channel_aftertouch_c, 2, 79
11, 131376, Channel_aftertouch_c, 2, 81
11, 131388, Channel_aftertouch_c, 2, 82
11, 131400, Channel_aftertouch_c, 2, 85
11, 131408, Channel_aftertouch_c, 2, 88
11, 131420, Channel_aftertouch_c, 2, 89
11, 131476, Channel_aftertouch_c, 2, 87
11, 131484, Channel_aftertouch_c, 2, 86
11, 131500, Channel_aftertouch_c, 2, 85
11, 131508, Channel_aftertouch_c, 2, 83
11, 131520, Channel_aftertouch_c, 2, 82
11, 131544, Channel_aftertouch_c, 2, 85
11, 131556, Channel_aftertouch_c, 2, 87
11, 131568, Channel_aftertouch_c, 2, 87
11, 131600, Channel_aftertouch_c, 2, 85
11, 131612, Channel_aftertouch_c, 2, 83
11, 131624, Channel_aftertouch_c, 2, 79
11, 131636, Channel_aftertouch_c, 2, 77
11, 131688, Channel_aftertouch_c, 2, 80
11, 131700, Channel_aftertouch_c, 2, 81
11, 131712, Channel_aftertouch_c, 2, 82
11, 131724, Channel_aftertouch_c, 2, 82
11, 131732, Channel_aftertouch_c, 2, 83
11, 131756, Channel_aftertouch_c, 2, 83
11, 131812, Channel_aftertouch_c, 2, 81
11, 131824, Channel_aftertouch_c, 2, 80
11, 131852, Channel_aftertouch_c, 2, 79
11, 131868, Channel_aftertouch_c, 2, 78
11, 131876, Channel_aftertouch_c, 2, 78
11, 131888, Channel_aftertouch_c, 2, 77
11, 131900, Channel_aftertouch_c, 2, 75
11, 131912, Channel_aftertouch_c, 2, 74
11, 131924, Channel_aftertouch_c, 2, 73
11, 131932, Channel_aftertouch_c, 2, 72
11, 131948, Channel_aftertouch_c, 2, 69
11, 131960, Channel_aftertouch_c, 2, 65
11, 131972, Channel_aftertouch_c, 2, 53
11, 131980, Channel_aftertouch_c, 2, 29
11, 131992, Note_on_c, 2, 78, 0
11, 131996, Channel_aftertouch_c, 2, 0
11, 132028, Note_on_c, 2, 76, 0
11, 132028, Note_on_c, 2, 81, 0
11, 132056, Note_on_c, 2, 76, 40
11, 132060, Note_on_c, 2, 81, 96
11, 132068, Channel_aftertouch_c, 2, 20
11, 132080, Channel_aftertouch_c, 2, 64
11, 132092, Channel_aftertouch_c, 2, 67
11, 132112, Channel_aftertouch_c, 2, 68
11, 132124, Channel_aftertouch_c, 2, 70
11, 132136, Channel_aftertouch_c, 2, 72
11, 132148, Channel_aftertouch_c, 2, 74
11, 132160, Channel_aftertouch_c, 2, 75
11, 132172, Channel_aftertouch_c, 2, 77
11, 132180, Channel_aftertouch_c, 2, 77
11, 132196, Channel_aftertouch_c, 2, 78
11, 132236, Channel_aftertouch_c, 2, 78
11, 132312, Channel_aftertouch_c, 2, 76
11, 132344, Channel_aftertouch_c, 2, 75
11, 132356, Channel_aftertouch_c, 2, 74
11, 132368, Channel_aftertouch_c, 2, 72
11, 132380, Channel_aftertouch_c, 2, 70
11, 132424, Channel_aftertouch_c, 2, 69
11, 132444, Channel_aftertouch_c, 2, 73
11, 132468, Channel_aftertouch_c, 2, 67
11, 132480, Channel_aftertouch_c, 2, 58
11, 132492, Channel_aftertouch_c, 2, 52
11, 132524, Channel_aftertouch_c, 2, 0
11, 132588, Channel_aftertouch_c, 2, 7
11, 132600, Channel_aftertouch_c, 2, 32
11, 132612, Channel_aftertouch_c, 2, 45
11, 132624, Channel_aftertouch_c, 2, 52
11, 132644, Channel_aftertouch_c, 2, 48
11, 132660, Channel_aftertouch_c, 2, 45
11, 132668, Channel_aftertouch_c, 2, 48
11, 132680, Channel_aftertouch_c, 2, 52
11, 132692, Channel_aftertouch_c, 2, 54
11, 132700, Channel_aftertouch_c, 2, 55
11, 132724, Channel_aftertouch_c, 2, 50
11, 132736, Channel_aftertouch_c, 2, 50
11, 132760, Channel_aftertouch_c, 2, 48
11, 132772, Channel_aftertouch_c, 2, 43
11, 132784, Channel_aftertouch_c, 2, 22
11, 132792, Channel_aftertouch_c, 2, 0
11, 132804, Channel_aftertouch_c, 2, 0
11, 132836, Channel_aftertouch_c, 2, 24
11, 132852, Channel_aftertouch_c, 2, 50
11, 132860, Channel_aftertouch_c, 2, 59
11, 132868, Note_on_c, 2, 85, 70
11, 132876, Channel_aftertouch_c, 2, 63
11, 132884, Channel_aftertouch_c, 2, 68
11, 132896, Channel_aftertouch_c, 2, 70
11, 132908, Channel_aftertouch_c, 2, 71
11, 132920, Channel_aftertouch_c, 2, 73
11, 132932, Channel_aftertouch_c, 2, 75
11, 132944, Channel_aftertouch_c, 2, 77
11, 132956, Channel_aftertouch_c, 2, 78
11, 132964, Channel_aftertouch_c, 2, 80
11, 132988, Channel_aftertouch_c, 2, 78
11, 133000, Channel_aftertouch_c, 2, 77
11, 133044, Channel_aftertouch_c, 2, 77
11, 133096, Channel_aftertouch_c, 2, 81
11, 133108, Channel_aftertouch_c, 2, 82
11, 133120, Channel_aftertouch_c, 2, 84
11, 133132, Channel_aftertouch_c, 2, 86
11, 133144, Channel_aftertouch_c, 2, 88
11, 133156, Channel_aftertouch_c, 2, 89
11, 133164, Channel_aftertouch_c, 2, 91
11, 133180, Channel_aftertouch_c, 2, 92
11, 133188, Channel_aftertouch_c, 2, 93
11, 133200, Channel_aftertouch_c, 2, 94
11, 133212, Channel_aftertouch_c, 2, 95
11, 133224, Channel_aftertouch_c, 2, 96
11, 133236, Channel_aftertouch_c, 2, 97
11, 133244, Channel_aftertouch_c, 2, 97
11, 133260, Channel_aftertouch_c, 2, 98
11, 133268, Channel_aftertouch_c, 2, 98
11, 133280, Channel_aftertouch_c, 2, 99
11, 133292, Channel_aftertouch_c, 2, 99
11, 133400, Channel_aftertouch_c, 2, 97
11, 133412, Channel_aftertouch_c, 2, 97
11, 133464, Channel_aftertouch_c, 2, 95
11, 133476, Channel_aftertouch_c, 2, 94
11, 133544, Channel_aftertouch_c, 2, 96
11, 133552, Channel_aftertouch_c, 2, 97
11, 133564, Channel_aftertouch_c, 2, 98
11, 133596, Channel_aftertouch_c, 2, 99
11, 133620, Channel_aftertouch_c, 2, 99
11, 133652, Channel_aftertouch_c, 2, 100
11, 133664, Channel_aftertouch_c, 2, 100
11, 133808, Control_c, 2, 1, 2
11, 133820, Control_c, 2, 1, 2
11, 133844, Control_c, 2, 1, 3
11, 133864, Control_c, 2, 1, 3
11, 133888, Control_c, 2, 1, 4
11, 133908, Control_c, 2, 1, 4
11, 133932, Control_c, 2, 1, 5
11, 133944, Control_c, 2, 1, 5
11, 133952, Channel_aftertouch_c, 2, 98
11, 133976, Control_c, 2, 1, 6
11, 134012, Control_c, 2, 1, 6
11, 134044, Control_c, 2, 1, 7
11, 134064, Control_c, 2, 1, 7
11, 134108, Control_c, 2, 1, 8
11, 134140, Control_c, 2, 1, 8
11, 134176, Control_c, 2, 1, 9
11, 134208, Control_c, 2, 1, 9
11, 134240, Control_c, 2, 1, 10
11, 134260, Channel_aftertouch_c, 2, 100
11, 134284, Control_c, 2, 1, 10
11, 134296, Control_c, 2, 1, 11
11, 134332, Control_c, 2, 1, 11
11, 134340, Control_c, 2, 1, 12
11, 134376, Control_c, 2, 1, 12
11, 134400, Control_c, 2, 1, 13
11, 134420, Control_c, 2, 1, 13
11, 134452, Control_c, 2, 1, 14
11, 134504, Channel_aftertouch_c, 2, 98
11, 134508, Control_c, 2, 1, 14
11, 134516, Channel_aftertouch_c, 2, 98
11, 134548, Channel_aftertouch_c, 2, 97
11, 134560, Channel_aftertouch_c, 2, 97
11, 134572, Channel_aftertouch_c, 2, 96
11, 134668, Channel_aftertouch_c, 2, 98
11, 134736, Channel_aftertouch_c, 2, 99
11, 134744, Channel_aftertouch_c, 2, 100
11, 134768, Channel_aftertouch_c, 2, 100
11, 134780, Channel_aftertouch_c, 2, 101
11, 134868, Channel_aftertouch_c, 2, 99
11, 134880, Channel_aftertouch_c, 2, 97
11, 134892, Channel_aftertouch_c, 2, 95
11, 134900, Channel_aftertouch_c, 2, 91
11, 134916, Channel_aftertouch_c, 2, 83
11, 134924, Channel_aftertouch_c, 2, 70
11, 134936, Channel_aftertouch_c, 2, 39
11, 134948, Channel_aftertouch_c, 2, 0
11, 134952, Note_on_c, 2, 85, 0
11, 134964, Note_on_c, 2, 81, 0
11, 134980, Note_on_c, 2, 76, 0
11, 135164, Note_on_c, 2, 85, 100
11, 135164, Note_on_c, 2, 90, 92
11, 135416, Channel_aftertouch_c, 2, 66
11, 135472, Channel_aftertouch_c, 2, 66
11, 135484, Channel_aftertouch_c, 2, 67
11, 135496, Channel_aftertouch_c, 2, 68
11, 135508, Channel_aftertouch_c, 2, 68
11, 135520, Channel_aftertouch_c, 2, 69
11, 135532, Channel_aftertouch_c, 2, 69
11, 135544, Channel_aftertouch_c, 2, 70
11, 135556, Channel_aftertouch_c, 2, 70
11, 135612, Channel_aftertouch_c, 2, 68
11, 135668, Channel_aftertouch_c, 2, 67
11, 135772, Channel_aftertouch_c, 2, 69
11, 136016, Channel_aftertouch_c, 2, 67
11, 136028, Channel_aftertouch_c, 2, 67
11, 136040, Channel_aftertouch_c, 2, 66
11, 136252, Channel_aftertouch_c, 2, 66
11, 136276, Channel_aftertouch_c, 2, 64
11, 136284, Channel_aftertouch_c, 2, 63
11, 136300, Channel_aftertouch_c, 2, 62
11, 136332, Channel_aftertouch_c, 2, 65
11, 136344, Channel_aftertouch_c, 2, 65
11, 136456, Channel_aftertouch_c, 2, 63
11, 136468, Channel_aftertouch_c, 2, 61
11, 136480, Channel_aftertouch_c, 2, 56
11, 136492, Channel_aftertouch_c, 2, 53
11, 136504, Channel_aftertouch_c, 2, 52
11, 136516, Channel_aftertouch_c, 2, 51
11, 136528, Channel_aftertouch_c, 2, 49
11, 136540, Channel_aftertouch_c, 2, 47
11, 136552, Channel_aftertouch_c, 2, 43
11, 136564, Channel_aftertouch_c, 2, 40
11, 136576, Channel_aftertouch_c, 2, 38
11, 136588, Channel_aftertouch_c, 2, 37
11, 136600, Channel_aftertouch_c, 2, 37
11, 136612, Channel_aftertouch_c, 2, 35
11, 136636, Channel_aftertouch_c, 2, 37
11, 136648, Channel_aftertouch_c, 2, 41
11, 136660, Channel_aftertouch_c, 2, 42
11, 136692, Channel_aftertouch_c, 2, 39
11, 136704, Channel_aftertouch_c, 2, 36
11, 136716, Channel_aftertouch_c, 2, 34
11, 136728, Channel_aftertouch_c, 2, 36
11, 136740, Channel_aftertouch_c, 2, 38
11, 136752, Channel_aftertouch_c, 2, 39
11, 136788, Channel_aftertouch_c, 2, 35
11, 136796, Channel_aftertouch_c, 2, 32
11, 136812, Channel_aftertouch_c, 2, 31
11, 136832, Channel_aftertouch_c, 2, 30
11, 136844, Channel_aftertouch_c, 2, 28
11, 136856, Channel_aftertouch_c, 2, 28
11, 136880, Channel_aftertouch_c, 2, 30
11, 136892, Channel_aftertouch_c, 2, 31
11, 136904, Channel_aftertouch_c, 2, 33
11, 136916, Channel_aftertouch_c, 2, 34
11, 136928, Channel_aftertouch_c, 2, 34
11, 136948, Channel_aftertouch_c, 2, 32
11, 137020, Channel_aftertouch_c, 2, 31
11, 137044, Channel_aftertouch_c, 2, 34
11, 137052, Channel_aftertouch_c, 2, 35
11, 137100, Channel_aftertouch_c, 2, 37
11, 137112, Channel_aftertouch_c, 2, 40
11, 137120, Channel_aftertouch_c, 2, 43
11, 137136, Channel_aftertouch_c, 2, 44
11, 137144, Channel_aftertouch_c, 2, 44
11, 137168, Channel_aftertouch_c, 2, 45
11, 137180, Channel_aftertouch_c, 2, 45
11, 137196, Channel_aftertouch_c, 2, 46
11, 137204, Channel_aftertouch_c, 2, 47
11, 137252, Channel_aftertouch_c, 2, 48
11, 137260, Channel_aftertouch_c, 2, 50
11, 137276, Channel_aftertouch_c, 2, 51
11, 137320, Channel_aftertouch_c, 2, 48
11, 137332, Channel_aftertouch_c, 2, 47
11, 137340, Channel_aftertouch_c, 2, 46
11, 137376, Channel_aftertouch_c, 2, 46
11, 137388, Channel_aftertouch_c, 2, 45
11, 137412, Channel_aftertouch_c, 2, 44
11, 137424, Channel_aftertouch_c, 2, 43
11, 137460, Channel_aftertouch_c, 2, 45
11, 137472, Channel_aftertouch_c, 2, 47
11, 137484, Channel_aftertouch_c, 2, 48
11, 137492, Channel_aftertouch_c, 2, 49
11, 137508, Channel_aftertouch_c, 2, 49
11, 137516, Channel_aftertouch_c, 2, 50
11, 137532, Channel_aftertouch_c, 2, 51
11, 137540, Channel_aftertouch_c, 2, 52
11, 137552, Channel_aftertouch_c, 2, 53
11, 137564, Channel_aftertouch_c, 2, 54
11, 137576, Channel_aftertouch_c, 2, 54
11, 137588, Channel_aftertouch_c, 2, 55
11, 137636, Channel_aftertouch_c, 2, 55
11, 137644, Channel_aftertouch_c, 2, 56
11, 137692, Channel_aftertouch_c, 2, 57
11, 137760, Note_on_c, 2, 90, 0
11, 137764, Note_on_c, 2, 85, 0
11, 137824, Channel_aftertouch_c, 2, 55
11, 137840, Channel_aftertouch_c, 2, 54
11, 137852, Channel_aftertouch_c, 2, 52
11, 137860, Channel_aftertouch_c, 2, 49
11, 137876, Channel_aftertouch_c, 2, 47
11, 137884, Channel_aftertouch_c, 2, 44
11, 137900, Channel_aftertouch_c, 2, 40
11, 137908, Channel_aftertouch_c, 2, 31
11, 137924, Channel_aftertouch_c, 2, 0
11, 138224, Note_on_c, 2, 87, 104
11, 138228, Note_on_c, 2, 83, 96
11, 138244, Channel_aftertouch_c, 2, 16
11, 138260, Channel_aftertouch_c, 2, 19
11, 138292, Channel_aftertouch_c, 2, 20
11, 138308, Channel_aftertouch_c, 2, 23
11, 138316, Channel_aftertouch_c, 2, 23
11, 138352, Channel_aftertouch_c, 2, 21
11, 138364, Channel_aftertouch_c, 2, 20
11, 138376, Channel_aftertouch_c, 2, 19
11, 138388, Channel_aftertouch_c, 2, 18
11, 138412, Channel_aftertouch_c, 2, 18
11, 138432, Channel_aftertouch_c, 2, 17
11, 138500, Channel_aftertouch_c, 2, 19
11, 138512, Channel_aftertouch_c, 2, 20
11, 138524, Channel_aftertouch_c, 2, 21
11, 138536, Channel_aftertouch_c, 2, 22
11, 138548, Channel_aftertouch_c, 2, 23
11, 138560, Channel_aftertouch_c, 2, 23
11, 138572, Channel_aftertouch_c, 2, 24
11, 138584, Channel_aftertouch_c, 2, 25
11, 138640, Channel_aftertouch_c, 2, 25
11, 138652, Channel_aftertouch_c, 2, 26
11, 138752, Channel_aftertouch_c, 2, 24
11, 138764, Channel_aftertouch_c, 2, 22
11, 138820, Channel_aftertouch_c, 2, 21
11, 138832, Channel_aftertouch_c, 2, 19
11, 138844, Channel_aftertouch_c, 2, 17
11, 138856, Channel_aftertouch_c, 2, 17
11, 138868, Channel_aftertouch_c, 2, 16
11, 138884, Channel_aftertouch_c, 2, 15
11, 138892, Channel_aftertouch_c, 2, 14
11, 138904, Channel_aftertouch_c, 2, 12
11, 138916, Channel_aftertouch_c, 2, 12
11, 138948, Channel_aftertouch_c, 2, 14
11, 138964, Channel_aftertouch_c, 2, 15
11, 139008, Channel_aftertouch_c, 2, 12
11, 139020, Channel_aftertouch_c, 2, 10
11, 139032, Channel_aftertouch_c, 2, 9
11, 139044, Channel_aftertouch_c, 2, 9
11, 139056, Channel_aftertouch_c, 2, 7
11, 139068, Channel_aftertouch_c, 2, 5
11, 139080, Channel_aftertouch_c, 2, 4
11, 139092, Channel_aftertouch_c, 2, 3
11, 139100, Channel_aftertouch_c, 2, 3
11, 139124, Channel_aftertouch_c, 2, 2
11, 139148, Channel_aftertouch_c, 2, 1
11, 139160, Channel_aftertouch_c, 2, 0
11, 139620, Note_on_c, 2, 83, 0
11, 139620, Note_on_c, 2, 87, 0
11, 139788, Note_on_c, 2, 81, 104
11, 139788, Note_on_c, 2, 86, 113
11, 139796, Channel_aftertouch_c, 2, 21
11, 139808, Channel_aftertouch_c, 2, 48
11, 139820, Channel_aftertouch_c, 2, 52
11, 139832, Channel_aftertouch_c, 2, 48
11, 139844, Channel_aftertouch_c, 2, 47
11, 139852, Channel_aftertouch_c, 2, 50
11, 139868, Channel_aftertouch_c, 2, 53
11, 139880, Channel_aftertouch_c, 2, 55
11, 139892, Channel_aftertouch_c, 2, 57
11, 139924, Channel_aftertouch_c, 2, 55
11, 139936, Channel_aftertouch_c, 2, 54
11, 139984, Channel_aftertouch_c, 2, 54
11, 139996, Channel_aftertouch_c, 2, 52
11, 140004, Channel_aftertouch_c, 2, 50
11, 140020, Channel_aftertouch_c, 2, 49
11, 140028, Channel_aftertouch_c, 2, 49
11, 140064, Channel_aftertouch_c, 2, 46
11, 140076, Channel_aftertouch_c, 2, 44
11, 140088, Channel_aftertouch_c, 2, 44
11, 140200, Channel_aftertouch_c, 2, 43
11, 140212, Channel_aftertouch_c, 2, 42
11, 140224, Channel_aftertouch_c, 2, 40
11, 140236, Channel_aftertouch_c, 2, 39
11, 140260, Channel_aftertouch_c, 2, 38
11, 140304, Channel_aftertouch_c, 2, 40
11, 140316, Channel_aftertouch_c, 2, 42
11, 140328, Channel_aftertouch_c, 2, 43
11, 140384, Channel_aftertouch_c, 2, 40
11, 140396, Channel_aftertouch_c, 2, 39
11, 140420, Channel_aftertouch_c, 2, 43
11, 140428, Channel_aftertouch_c, 2, 45
11, 140468, Channel_aftertouch_c, 2, 43
11, 140488, Channel_aftertouch_c, 2, 45
11, 140500, Channel_aftertouch_c, 2, 47
11, 140512, Channel_aftertouch_c, 2, 49
11, 140524, Channel_aftertouch_c, 2, 49
11, 140548, Channel_aftertouch_c, 2, 47
11, 140560, Channel_aftertouch_c, 2, 46
11, 140572, Channel_aftertouch_c, 2, 45
11, 140628, Channel_aftertouch_c, 2, 47
11, 140696, Channel_aftertouch_c, 2, 48
11, 140752, Channel_aftertouch_c, 2, 49
11, 140764, Channel_aftertouch_c, 2, 51
11, 140788, Channel_aftertouch_c, 2, 49
11, 140800, Channel_aftertouch_c, 2, 46
11, 140808, Channel_aftertouch_c, 2, 46
11, 140832, Channel_aftertouch_c, 2, 50
11, 140844, Channel_aftertouch_c, 2, 51
11, 140856, Channel_aftertouch_c, 2, 51
11, 141000, Channel_aftertouch_c, 2, 48
11, 141012, Channel_aftertouch_c, 2, 44
11, 141028, Channel_aftertouch_c, 2, 39
11, 141036, Channel_aftertouch_c, 2, 34
11, 141048, Channel_aftertouch_c, 2, 27
11, 141060, Channel_aftertouch_c, 2, 21
11, 141084, Channel_aftertouch_c, 2, 25
11, 141096, Channel_aftertouch_c, 2, 26
11, 141108, Channel_aftertouch_c, 2, 0
11, 141128, Note_on_c, 2, 81, 0
11, 141152, Note_on_c, 2, 86, 0
11, 141324, Note_on_c, 2, 88, 104
11, 141324, Note_on_c, 2, 83, 92
11, 144204, Note_on_c, 2, 83, 0
11, 144244, Note_on_c, 2, 88, 0
11, 144376, Note_on_c, 2, 88, 91
11, 144380, Note_on_c, 2, 88, 0
11, 144380, Note_on_c, 2, 85, 100
11, 144380, Note_on_c, 2, 81, 100
11, 144380, Control_c, 2, 1, 18
11, 144384, Control_c, 2, 1, 17
11, 144392, Control_c, 2, 1, 17
11, 144396, Control_c, 2, 1, 17
11, 144404, Control_c, 2, 1, 17
11, 144412, Control_c, 2, 1, 17
11, 144416, Control_c, 2, 1, 17
11, 144424, Control_c, 2, 1, 17
11, 144428, Control_c, 2, 1, 16
11, 144436, Control_c, 2, 1, 16
11, 144436, Channel_aftertouch_c, 2, 121
11, 144444, Control_c, 2, 1, 16
11, 144448, Control_c, 2, 1, 16
11, 144448, Channel_aftertouch_c, 2, 120
11, 144456, Control_c, 2, 1, 16
11, 144460, Control_c, 2, 1, 17
11, 144468, Control_c, 2, 1, 17
11, 144472, Channel_aftertouch_c, 2, 120
11, 144476, Control_c, 2, 1, 17
11, 144480, Control_c, 2, 1, 17
11, 144488, Control_c, 2, 1, 17
11, 144492, Control_c, 2, 1, 17
11, 144500, Control_c, 2, 1, 17
11, 144508, Control_c, 2, 1, 17
11, 144512, Control_c, 2, 1, 17
11, 144520, Control_c, 2, 1, 18
11, 144524, Control_c, 2, 1, 18
11, 144532, Control_c, 2, 1, 18
11, 144540, Control_c, 2, 1, 18
11, 144544, Control_c, 2, 1, 18
11, 144552, Control_c, 2, 1, 18
11, 144556, Control_c, 2, 1, 18
11, 144564, Control_c, 2, 1, 18
11, 144572, Control_c, 2, 1, 18
11, 144576, Control_c, 2, 1, 18
11, 144584, Control_c, 2, 1, 18
11, 144588, Control_c, 2, 1, 18
11, 144596, Channel_aftertouch_c, 2, 122
11, 144596, Control_c, 2, 1, 18
11, 144604, Control_c, 2, 1, 18
11, 144608, Control_c, 2, 1, 18
11, 144616, Control_c, 2, 1, 18
11, 144616, Channel_aftertouch_c, 2, 122
11, 144620, Control_c, 2, 1, 18
11, 144628, Control_c, 2, 1, 18
11, 144628, Channel_aftertouch_c, 2, 123
11, 144636, Control_c, 2, 1, 18
11, 144640, Control_c, 2, 1, 18
11, 144640, Channel_aftertouch_c, 2, 125
11, 144648, Control_c, 2, 1, 18
11, 144652, Control_c, 2, 1, 18
11, 144652, Channel_aftertouch_c, 2, 126
11, 144660, Control_c, 2, 1, 18
11, 144664, Channel_aftertouch_c, 2, 126
11, 144668, Control_c, 2, 1, 18
11, 144672, Control_c, 2, 1, 19
11, 144676, Channel_aftertouch_c, 2, 127
11, 144680, Control_c, 2, 1, 19
11, 144684, Control_c, 2, 1, 19
11, 144692, Control_c, 2, 1, 19
11, 144700, Control_c, 2, 1, 19
11, 144704, Control_c, 2, 1, 20
11, 144712, Control_c, 2, 1, 20
11, 144716, Control_c, 2, 1, 20
11, 144724, Control_c, 2, 1, 21
11, 144732, Control_c, 2, 1, 21
11, 144736, Control_c, 2, 1, 21
11, 144744, Control_c, 2, 1, 21
11, 144748, Control_c, 2, 1, 22
11, 144756, Control_c, 2, 1, 22
11, 144764, Control_c, 2, 1, 22
11, 144768, Control_c, 2, 1, 22
11, 144776, Control_c, 2, 1, 23
11, 144780, Control_c, 2, 1, 23
11, 144788, Control_c, 2, 1, 23
11, 144796, Control_c, 2, 1, 23
11, 144800, Control_c, 2, 1, 23
11, 144808, Control_c, 2, 1, 23
11, 144812, Control_c, 2, 1, 23
11, 144820, Control_c, 2, 1, 23
11, 144828, Control_c, 2, 1, 23
11, 144832, Control_c, 2, 1, 23
11, 144840, Control_c, 2, 1, 23
11, 144844, Control_c, 2, 1, 23
11, 144852, Control_c, 2, 1, 23
11, 144860, Control_c, 2, 1, 23
11, 144864, Control_c, 2, 1, 24
11, 144872, Control_c, 2, 1, 24
11, 144876, Control_c, 2, 1, 24
11, 144884, Control_c, 2, 1, 24
11, 144892, Control_c, 2, 1, 24
11, 144896, Control_c, 2, 1, 24
11, 144904, Control_c, 2, 1, 24
11, 144908, Control_c, 2, 1, 24
11, 144916, Control_c, 2, 1, 24
11, 144924, Control_c, 2, 1, 24
11, 144928, Control_c, 2, 1, 25
11, 144936, Control_c, 2, 1, 25
11, 144940, Control_c, 2, 1, 25
11, 144948, Control_c, 2, 1, 25
11, 144956, Control_c, 2, 1, 25
11, 144960, Control_c, 2, 1, 25
11, 144968, Control_c, 2, 1, 25
11, 144972, Control_c, 2, 1, 25
11, 144980, Control_c, 2, 1, 26
11, 144988, Control_c, 2, 1, 26
11, 144992, Control_c, 2, 1, 26
11, 145000, Control_c, 2, 1, 26
11, 145004, Control_c, 2, 1, 26
11, 145012, Control_c, 2, 1, 26
11, 145020, Control_c, 2, 1, 26
11, 145024, Control_c, 2, 1, 26
11, 145032, Control_c, 2, 1, 26
11, 145036, Control_c, 2, 1, 26
11, 145044, Control_c, 2, 1, 26
11, 145052, Control_c, 2, 1, 27
11, 145056, Control_c, 2, 1, 27
11, 145064, Control_c, 2, 1, 27
11, 145068, Control_c, 2, 1, 27
11, 145076, Control_c, 2, 1, 27
11, 145084, Control_c, 2, 1, 27
11, 145088, Control_c, 2, 1, 27
11, 145096, Control_c, 2, 1, 27
11, 145100, Control_c, 2, 1, 27
11, 145108, Control_c, 2, 1, 27
11, 145116, Control_c, 2, 1, 27
11, 145120, Control_c, 2, 1, 27
11, 145128, Control_c, 2, 1, 27
11, 145132, Control_c, 2, 1, 27
11, 145140, Control_c, 2, 1, 27
11, 145148, Control_c, 2, 1, 27
11, 145152, Control_c, 2, 1, 27
11, 145160, Control_c, 2, 1, 28
11, 145164, Control_c, 2, 1, 28
11, 145172, Control_c, 2, 1, 28
11, 145180, Control_c, 2, 1, 28
11, 145184, Control_c, 2, 1, 28
11, 145192, Control_c, 2, 1, 29
11, 145196, Control_c, 2, 1, 29
11, 145204, Control_c, 2, 1, 29
11, 145212, Control_c, 2, 1, 29
11, 145216, Control_c, 2, 1, 29
11, 145224, Control_c, 2, 1, 30
11, 145228, Control_c, 2, 1, 30
11, 145236, Control_c, 2, 1, 31
11, 145244, Control_c, 2, 1, 31
11, 145248, Control_c, 2, 1, 31
11, 145256, Control_c, 2, 1, 32
11, 145260, Control_c, 2, 1, 32
11, 145268, Control_c, 2, 1, 32
11, 145276, Control_c, 2, 1, 32
11, 145280, Control_c, 2, 1, 33
11, 145288, Control_c, 2, 1, 33
11, 145292, Control_c, 2, 1, 34
11, 145300, Control_c, 2, 1, 34
11, 145308, Control_c, 2, 1, 35
11, 145312, Control_c, 2, 1, 35
11, 145320, Control_c, 2, 1, 35
11, 145324, Control_c, 2, 1, 34
11, 145332, Control_c, 2, 1, 34
11, 145340, Control_c, 2, 1, 34
11, 145344, Control_c, 2, 1, 34
11, 145352, Control_c, 2, 1, 34
11, 145356, Control_c, 2, 1, 35
11, 145364, Control_c, 2, 1, 35
11, 145372, Control_c, 2, 1, 35
11, 145376, Control_c, 2, 1, 35
11, 145384, Control_c, 2, 1, 35
11, 145388, Control_c, 2, 1, 35
11, 145396, Control_c, 2, 1, 35
11, 145404, Control_c, 2, 1, 35
11, 145408, Control_c, 2, 1, 35
11, 145416, Control_c, 2, 1, 36
11, 145420, Control_c, 2, 1, 36
11, 145428, Control_c, 2, 1, 36
11, 145436, Control_c, 2, 1, 35
11, 145440, Control_c, 2, 1, 35
11, 145448, Control_c, 2, 1, 35
11, 145452, Control_c, 2, 1, 37
11, 145460, Control_c, 2, 1, 37
11, 145468, Control_c, 2, 1, 35
11, 145472, Control_c, 2, 1, 35
11, 145480, Control_c, 2, 1, 36
11, 145484, Control_c, 2, 1, 36
11, 145492, Control_c, 2, 1, 36
11, 145500, Control_c, 2, 1, 36
11, 145504, Control_c, 2, 1, 36
11, 145512, Control_c, 2, 1, 36
11, 145516, Control_c, 2, 1, 36
11, 145524, Control_c, 2, 1, 36
11, 145532, Control_c, 2, 1, 37
11, 145536, Control_c, 2, 1, 37
11, 145544, Control_c, 2, 1, 37
11, 145548, Control_c, 2, 1, 37
11, 145556, Control_c, 2, 1, 37
11, 145564, Control_c, 2, 1, 37
11, 145568, Control_c, 2, 1, 37
11, 145576, Control_c, 2, 1, 37
11, 145580, Control_c, 2, 1, 38
11, 145588, Control_c, 2, 1, 38
11, 145596, Control_c, 2, 1, 38
11, 145600, Control_c, 2, 1, 39
11, 145608, Control_c, 2, 1, 39
11, 145612, Control_c, 2, 1, 39
11, 145620, Control_c, 2, 1, 39
11, 145628, Control_c, 2, 1, 39
11, 145632, Control_c, 2, 1, 39
11, 145640, Control_c, 2, 1, 40
11, 145644, Control_c, 2, 1, 40
11, 145652, Control_c, 2, 1, 40
11, 145660, Control_c, 2, 1, 40
11, 145664, Control_c, 2, 1, 40
11, 145672, Control_c, 2, 1, 40
11, 145676, Control_c, 2, 1, 40
11, 145684, Control_c, 2, 1, 41
11, 145692, Control_c, 2, 1, 41
11, 145696, Control_c, 2, 1, 41
11, 145704, Control_c, 2, 1, 42
11, 145708, Control_c, 2, 1, 42
11, 145716, Control_c, 2, 1, 42
11, 145724, Control_c, 2, 1, 42
11, 145728, Control_c, 2, 1, 43
11, 145736, Control_c, 2, 1, 43
11, 145740, Control_c, 2, 1, 43
11, 145748, Control_c, 2, 1, 43
11, 145756, Control_c, 2, 1, 43
11, 145760, Control_c, 2, 1, 43
11, 145768, Control_c, 2, 1, 43
11, 145772, Control_c, 2, 1, 43
11, 145780, Control_c, 2, 1, 41
11, 145788, Control_c, 2, 1, 41
11, 145792, Control_c, 2, 1, 41
11, 145800, Control_c, 2, 1, 43
11, 145804, Control_c, 2, 1, 41
11, 145812, Control_c, 2, 1, 43
11, 145820, Control_c, 2, 1, 43
11, 145824, Control_c, 2, 1, 42
11, 145832, Control_c, 2, 1, 42
11, 145836, Control_c, 2, 1, 42
11, 145844, Control_c, 2, 1, 42
11, 145852, Control_c, 2, 1, 41
11, 145856, Control_c, 2, 1, 41
11, 145864, Control_c, 2, 1, 41
11, 145868, Control_c, 2, 1, 41
11, 145876, Control_c, 2, 1, 41
11, 145884, Control_c, 2, 1, 40
11, 145888, Control_c, 2, 1, 40
11, 145896, Control_c, 2, 1, 40
11, 145900, Control_c, 2, 1, 40
11, 145908, Control_c, 2, 1, 40
11, 145916, Control_c, 2, 1, 40
11, 145920, Control_c, 2, 1, 40
11, 145928, Control_c, 2, 1, 39
11, 145932, Control_c, 2, 1, 39
11, 145940, Control_c, 2, 1, 39
11, 145948, Control_c, 2, 1, 39
11, 145952, Control_c, 2, 1, 38
11, 145960, Control_c, 2, 1, 38
11, 145964, Control_c, 2, 1, 38
11, 145972, Control_c, 2, 1, 38
11, 145980, Control_c, 2, 1, 38
11, 145984, Control_c, 2, 1, 38
11, 145992, Control_c, 2, 1, 37
11, 145996, Control_c, 2, 1, 37
11, 146004, Control_c, 2, 1, 37
11, 146012, Control_c, 2, 1, 37
11, 146016, Control_c, 2, 1, 37
11, 146024, Control_c, 2, 1, 37
11, 146028, Control_c, 2, 1, 37
11, 146036, Control_c, 2, 1, 36
11, 146044, Control_c, 2, 1, 36
11, 146048, Control_c, 2, 1, 35
11, 146056, Control_c, 2, 1, 34
11, 146060, Control_c, 2, 1, 34
11, 146068, Control_c, 2, 1, 34
11, 146076, Control_c, 2, 1, 33
11, 146080, Control_c, 2, 1, 33
11, 146088, Control_c, 2, 1, 33
11, 146092, Control_c, 2, 1, 33
11, 146100, Control_c, 2, 1, 33
11, 146108, Control_c, 2, 1, 33
11, 146112, Control_c, 2, 1, 33
11, 146120, Control_c, 2, 1, 33
11, 146124, Control_c, 2, 1, 33
11, 146132, Control_c, 2, 1, 33
11, 146132, Channel_aftertouch_c, 2, 125
11, 146140, Control_c, 2, 1, 33
11, 146144, Control_c, 2, 1, 33
11, 146144, Channel_aftertouch_c, 2, 123
11, 146152, Control_c, 2, 1, 33
11, 146156, Channel_aftertouch_c, 2, 120
11, 146156, Control_c, 2, 1, 32
11, 146164, Control_c, 2, 1, 30
11, 146172, Control_c, 2, 1, 32
11, 146176, Control_c, 2, 1, 32
11, 146184, Control_c, 2, 1, 32
11, 146188, Control_c, 2, 1, 32
11, 146196, Control_c, 2, 1, 33
11, 146204, Control_c, 2, 1, 33
11, 146208, Control_c, 2, 1, 33
11, 146216, Control_c, 2, 1, 33
11, 146220, Control_c, 2, 1, 33
11, 146228, Control_c, 2, 1, 33
11, 146236, Control_c, 2, 1, 33
11, 146240, Control_c, 2, 1, 33
11, 146244, Channel_aftertouch_c, 2, 122
11, 146248, Control_c, 2, 1, 33
11, 146252, Control_c, 2, 1, 33
11, 146256, Channel_aftertouch_c, 2, 122
11, 146260, Control_c, 2, 1, 32
11, 146268, Control_c, 2, 1, 32
11, 146268, Channel_aftertouch_c, 2, 123
11, 146272, Control_c, 2, 1, 33
11, 146280, Control_c, 2, 1, 32
11, 146284, Control_c, 2, 1, 33
11, 146292, Control_c, 2, 1, 33
11, 146300, Control_c, 2, 1, 33
11, 146304, Control_c, 2, 1, 32
11, 146312, Control_c, 2, 1, 33
11, 146316, Control_c, 2, 1, 33
11, 146324, Control_c, 2, 1, 34
11, 146332, Control_c, 2, 1, 34
11, 146336, Control_c, 2, 1, 32
11, 146344, Control_c, 2, 1, 34
11, 146348, Control_c, 2, 1, 34
11, 146356, Control_c, 2, 1, 34
11, 146364, Control_c, 2, 1, 34
11, 146368, Control_c, 2, 1, 34
11, 146376, Control_c, 2, 1, 34
11, 146380, Control_c, 2, 1, 34
11, 146388, Control_c, 2, 1, 34
11, 146396, Control_c, 2, 1, 34
11, 146400, Control_c, 2, 1, 34
11, 146408, Control_c, 2, 1, 34
11, 146412, Control_c, 2, 1, 34
11, 146420, Control_c, 2, 1, 34
11, 146428, Control_c, 2, 1, 34
11, 146432, Control_c, 2, 1, 34
11, 146440, Control_c, 2, 1, 34
11, 146444, Control_c, 2, 1, 35
11, 146452, Control_c, 2, 1, 35
11, 146460, Control_c, 2, 1, 35
11, 146464, Control_c, 2, 1, 35
11, 146472, Control_c, 2, 1, 35
11, 146476, Control_c, 2, 1, 35
11, 146484, Control_c, 2, 1, 35
11, 146492, Control_c, 2, 1, 35
11, 146496, Control_c, 2, 1, 35
11, 146504, Control_c, 2, 1, 35
11, 146508, Control_c, 2, 1, 35
11, 146516, Control_c, 2, 1, 35
11, 146524, Control_c, 2, 1, 35
11, 146528, Control_c, 2, 1, 35
11, 146536, Control_c, 2, 1, 35
11, 146540, Control_c, 2, 1, 35
11, 146548, Control_c, 2, 1, 35
11, 146556, Control_c, 2, 1, 35
11, 146560, Control_c, 2, 1, 36
11, 146568, Control_c, 2, 1, 36
11, 146572, Control_c, 2, 1, 36
11, 146580, Control_c, 2, 1, 36
11, 146588, Control_c, 2, 1, 36
11, 146592, Control_c, 2, 1, 36
11, 146600, Control_c, 2, 1, 36
11, 146604, Control_c, 2, 1, 36
11, 146612, Control_c, 2, 1, 36
11, 146620, Control_c, 2, 1, 37
11, 146624, Control_c, 2, 1, 37
11, 146632, Control_c, 2, 1, 37
11, 146636, Control_c, 2, 1, 37
11, 146644, Control_c, 2, 1, 37
11, 146652, Control_c, 2, 1, 37
11, 146656, Control_c, 2, 1, 37
11, 146664, Control_c, 2, 1, 37
11, 146668, Control_c, 2, 1, 35
11, 146676, Control_c, 2, 1, 35
11, 146684, Control_c, 2, 1, 36
11, 146688, Control_c, 2, 1, 36
11, 146696, Control_c, 2, 1, 37
11, 146700, Control_c, 2, 1, 37
11, 146708, Control_c, 2, 1, 37
11, 146716, Control_c, 2, 1, 38
11, 146720, Control_c, 2, 1, 38
11, 146728, Control_c, 2, 1, 38
11, 146732, Control_c, 2, 1, 39
11, 146740, Control_c, 2, 1, 39
11, 146748, Control_c, 2, 1, 39
11, 146752, Control_c, 2, 1, 40
11, 146760, Control_c, 2, 1, 40
11, 146764, Control_c, 2, 1, 41
11, 146772, Control_c, 2, 1, 41
11, 146780, Control_c, 2, 1, 41
11, 146784, Control_c, 2, 1, 41
11, 146788, Channel_aftertouch_c, 2, 121
11, 146792, Control_c, 2, 1, 41
11, 146796, Control_c, 2, 1, 39
11, 146804, Channel_aftertouch_c, 2, 120
11, 146804, Control_c, 2, 1, 42
11, 146812, Control_c, 2, 1, 42
11, 146812, Channel_aftertouch_c, 2, 120
11, 146816, Control_c, 2, 1, 42
11, 146824, Control_c, 2, 1, 40
11, 146828, Control_c, 2, 1, 43
11, 146836, Control_c, 2, 1, 43
11, 146836, Channel_aftertouch_c, 2, 119
11, 146844, Control_c, 2, 1, 43
11, 146848, Control_c, 2, 1, 43
11, 146856, Control_c, 2, 1, 43
11, 146860, Channel_aftertouch_c, 2, 119
11, 146860, Control_c, 2, 1, 40
11, 146868, Control_c, 2, 1, 43
11, 146872, Channel_aftertouch_c, 2, 118
11, 146876, Control_c, 2, 1, 43
11, 146880, Control_c, 2, 1, 40
11, 146884, Channel_aftertouch_c, 2, 117
11, 146888, Control_c, 2, 1, 43
11, 146892, Control_c, 2, 1, 43
11, 146896, Channel_aftertouch_c, 2, 117
11, 146900, Control_c, 2, 1, 43
11, 146908, Control_c, 2, 1, 43
11, 146908, Channel_aftertouch_c, 2, 116
11, 146912, Control_c, 2, 1, 41
11, 146920, Control_c, 2, 1, 41
11, 146920, Channel_aftertouch_c, 2, 115
11, 146924, Control_c, 2, 1, 43
11, 146932, Channel_aftertouch_c, 2, 115
11, 146932, Control_c, 2, 1, 43
11, 146940, Control_c, 2, 1, 43
11, 146944, Channel_aftertouch_c, 2, 114
11, 146944, Control_c, 2, 1, 41
11, 146952, Control_c, 2, 1, 43
11, 146956, Control_c, 2, 1, 43
11, 146964, Control_c, 2, 1, 43
11, 146972, Control_c, 2, 1, 43
11, 146976, Control_c, 2, 1, 43
11, 146984, Control_c, 2, 1, 43
11, 146988, Channel_aftertouch_c, 2, 113
11, 146988, Control_c, 2, 1, 43
11, 146996, Control_c, 2, 1, 43
11, 147004, Control_c, 2, 1, 43
11, 147008, Control_c, 2, 1, 43
11, 147016, Control_c, 2, 1, 43
11, 147020, Control_c, 2, 1, 43
11, 147028, Control_c, 2, 1, 43
11, 147036, Control_c, 2, 1, 43
11, 147040, Control_c, 2, 1, 43
11, 147048, Control_c, 2, 1, 43
11, 147052, Control_c, 2, 1, 43
11, 147052, Channel_aftertouch_c, 2, 113
11, 147060, Control_c, 2, 1, 43
11, 147068, Control_c, 2, 1, 43
11, 147068, Channel_aftertouch_c, 2, 112
11, 147072, Control_c, 2, 1, 43
11, 147076, Channel_aftertouch_c, 2, 109
11, 147080, Control_c, 2, 1, 43
11, 147084, Control_c, 2, 1, 43
11, 147092, Channel_aftertouch_c, 2, 107
11, 147092, Control_c, 2, 1, 43
11, 147100, Control_c, 2, 1, 43
11, 147104, Channel_aftertouch_c, 2, 105
11, 147104, Control_c, 2, 1, 43
11, 147112, Control_c, 2, 1, 43
11, 147116, Control_c, 2, 1, 43
11, 147124, Control_c, 2, 1, 43
11, 147132, Control_c, 2, 1, 43
11, 147136, Control_c, 2, 1, 43
11, 147136, Channel_aftertouch_c, 2, 108
11, 147144, Control_c, 2, 1, 43
11, 147148, Channel_aftertouch_c, 2, 108
11, 147148, Control_c, 2, 1, 43
11, 147156, Control_c, 2, 1, 43
11, 147160, Channel_aftertouch_c, 2, 109
11, 147164, Control_c, 2, 1, 43
11, 147168, Control_c, 2, 1, 43
11, 147172, Channel_aftertouch_c, 2, 109
11, 147176, Control_c, 2, 1, 44
11, 147180, Control_c, 2, 1, 44
11, 147184, Channel_aftertouch_c, 2, 110
11, 147188, Control_c, 2, 1, 43
11, 147196, Control_c, 2, 1, 44
11, 147200, Control_c, 2, 1, 44
11, 147208, Control_c, 2, 1, 43
11, 147212, Control_c, 2, 1, 43
11, 147220, Control_c, 2, 1, 43
11, 147228, Control_c, 2, 1, 40
11, 147232, Control_c, 2, 1, 40
11, 147240, Control_c, 2, 1, 39
11, 147240, Channel_aftertouch_c, 2, 107
11, 147244, Control_c, 2, 1, 39
11, 147252, Control_c, 2, 1, 39
11, 147252, Channel_aftertouch_c, 2, 91
11, 147260, Control_c, 2, 1, 38
11, 147264, Control_c, 2, 1, 38
11, 147264, Channel_aftertouch_c, 2, 27
11, 147272, Control_c, 2, 1, 38
11, 147276, Channel_aftertouch_c, 2, 0
11, 147276, Control_c, 2, 1, 37
11, 147284, Note_on_c, 2, 81, 0
11, 147284, Control_c, 2, 1, 37
11, 147288, Note_on_c, 2, 85, 0
11, 147292, Control_c, 2, 1, 37
11, 147296, Control_c, 2, 1, 36
11, 147304, Control_c, 2, 1, 36
11, 147308, Control_c, 2, 1, 36
11, 147316, Control_c, 2, 1, 35
11, 147324, Control_c, 2, 1, 35
11, 147328, Control_c, 2, 1, 35
11, 147336, Control_c, 2, 1, 35
11, 147340, Control_c, 2, 1, 35
11, 147348, Control_c, 2, 1, 35
11, 147356, Control_c, 2, 1, 35
11, 147360, Control_c, 2, 1, 34
11, 147368, Control_c, 2, 1, 34
11, 147372, Control_c, 2, 1, 34
11, 147380, Control_c, 2, 1, 34
11, 147388, Control_c, 2, 1, 33
11, 147392, Control_c, 2, 1, 33
11, 147400, Control_c, 2, 1, 33
11, 147404, Control_c, 2, 1, 33
11, 147412, Control_c, 2, 1, 33
11, 147420, Control_c, 2, 1, 32
11, 147468, Note_on_c, 2, 85, 100
11, 147468, Control_c, 2, 7, 95
11, 147468, Note_on_c, 2, 90, 92
11, 147484, Channel_aftertouch_c, 2, 70
11, 147496, Channel_aftertouch_c, 2, 78
11, 147508, Channel_aftertouch_c, 2, 74
11, 147520, Channel_aftertouch_c, 2, 67
11, 147532, Channel_aftertouch_c, 2, 65
11, 147556, Channel_aftertouch_c, 2, 68
11, 147568, Channel_aftertouch_c, 2, 68
11, 147588, Channel_aftertouch_c, 2, 65
11, 147600, Channel_aftertouch_c, 2, 64
11, 147636, Channel_aftertouch_c, 2, 64
11, 147648, Channel_aftertouch_c, 2, 63
11, 147692, Channel_aftertouch_c, 2, 65
11, 147704, Channel_aftertouch_c, 2, 66
11, 147760, Channel_aftertouch_c, 2, 66
11, 147772, Channel_aftertouch_c, 2, 67
11, 147784, Channel_aftertouch_c, 2, 68
11, 147796, Channel_aftertouch_c, 2, 68
11, 147808, Channel_aftertouch_c, 2, 69
11, 147820, Channel_aftertouch_c, 2, 69
11, 147832, Channel_aftertouch_c, 2, 70
11, 147844, Channel_aftertouch_c, 2, 70
11, 147900, Channel_aftertouch_c, 2, 68
11, 147956, Channel_aftertouch_c, 2, 67
11, 148060, Channel_aftertouch_c, 2, 69
11, 148304, Channel_aftertouch_c, 2, 67
11, 148316, Channel_aftertouch_c, 2, 67
11, 148328, Channel_aftertouch_c, 2, 66
11, 148540, Channel_aftertouch_c, 2, 66
11, 148564, Channel_aftertouch_c, 2, 64
11, 148572, Channel_aftertouch_c, 2, 63
11, 148588, Channel_aftertouch_c, 2, 62
11, 148620, Channel_aftertouch_c, 2, 65
11, 148632, Channel_aftertouch_c, 2, 65
11, 148744, Channel_aftertouch_c, 2, 63
11, 148756, Channel_aftertouch_c, 2, 61
11, 148768, Channel_aftertouch_c, 2, 56
11, 148780, Channel_aftertouch_c, 2, 53
11, 148792, Channel_aftertouch_c, 2, 52
11, 148804, Channel_aftertouch_c, 2, 51
11, 148816, Channel_aftertouch_c, 2, 49
11, 148828, Channel_aftertouch_c, 2, 47
11, 148840, Channel_aftertouch_c, 2, 43
11, 148852, Channel_aftertouch_c, 2, 40
11, 148864, Channel_aftertouch_c, 2, 38
11, 148876, Channel_aftertouch_c, 2, 37
11, 148888, Channel_aftertouch_c, 2, 37
11, 148900, Channel_aftertouch_c, 2, 35
11, 148924, Channel_aftertouch_c, 2, 37
11, 148936, Channel_aftertouch_c, 2, 41
11, 148948, Channel_aftertouch_c, 2, 42
11, 148980, Channel_aftertouch_c, 2, 39
11, 148992, Channel_aftertouch_c, 2, 36
11, 149004, Channel_aftertouch_c, 2, 34
11, 149016, Channel_aftertouch_c, 2, 36
11, 149028, Channel_aftertouch_c, 2, 38
11, 149040, Channel_aftertouch_c, 2, 39
11, 149076, Channel_aftertouch_c, 2, 35
11, 149084, Channel_aftertouch_c, 2, 32
11, 149100, Channel_aftertouch_c, 2, 31
11, 149120, Channel_aftertouch_c, 2, 30
11, 149132, Channel_aftertouch_c, 2, 28
11, 149144, Channel_aftertouch_c, 2, 28
11, 149168, Channel_aftertouch_c, 2, 30
11, 149180, Channel_aftertouch_c, 2, 31
11, 149192, Channel_aftertouch_c, 2, 33
11, 149204, Channel_aftertouch_c, 2, 34
11, 149216, Channel_aftertouch_c, 2, 34
11, 149236, Channel_aftertouch_c, 2, 32
11, 149308, Channel_aftertouch_c, 2, 31
11, 149332, Channel_aftertouch_c, 2, 34
11, 149340, Channel_aftertouch_c, 2, 35
11, 149388, Channel_aftertouch_c, 2, 37
11, 149400, Channel_aftertouch_c, 2, 40
11, 149408, Channel_aftertouch_c, 2, 43
11, 149424, Channel_aftertouch_c, 2, 44
11, 149432, Channel_aftertouch_c, 2, 44
11, 149456, Channel_aftertouch_c, 2, 45
11, 149468, Channel_aftertouch_c, 2, 45
11, 149484, Channel_aftertouch_c, 2, 46
11, 149492, Channel_aftertouch_c, 2, 47
11, 149540, Channel_aftertouch_c, 2, 48
11, 149548, Channel_aftertouch_c, 2, 50
11, 149564, Channel_aftertouch_c, 2, 51
11, 149608, Channel_aftertouch_c, 2, 48
11, 149620, Channel_aftertouch_c, 2, 47
11, 149628, Channel_aftertouch_c, 2, 46
11, 149664, Channel_aftertouch_c, 2, 46
11, 149676, Channel_aftertouch_c, 2, 45
11, 149700, Channel_aftertouch_c, 2, 44
11, 149712, Channel_aftertouch_c, 2, 43
11, 149748, Channel_aftertouch_c, 2, 45
11, 149760, Channel_aftertouch_c, 2, 47
11, 149772, Channel_aftertouch_c, 2, 48
11, 149780, Channel_aftertouch_c, 2, 49
11, 149796, Channel_aftertouch_c, 2, 49
11, 149804, Channel_aftertouch_c, 2, 50
11, 149820, Channel_aftertouch_c, 2, 51
11, 149828, Channel_aftertouch_c, 2, 52
11, 149840, Channel_aftertouch_c, 2, 53
11, 149852, Channel_aftertouch_c, 2, 54
11, 149864, Channel_aftertouch_c, 2, 54
11, 149876, Channel_aftertouch_c, 2, 55
11, 149924, Channel_aftertouch_c, 2, 55
11, 149932, Channel_aftertouch_c, 2, 56
11, 149980, Channel_aftertouch_c, 2, 57
11, 150112, Channel_aftertouch_c, 2, 55
11, 150128, Channel_aftertouch_c, 2, 54
11, 150140, Channel_aftertouch_c, 2, 52
11, 150148, Channel_aftertouch_c, 2, 49
11, 150164, Channel_aftertouch_c, 2, 47
11, 150172, Channel_aftertouch_c, 2, 44
11, 150188, Channel_aftertouch_c, 2, 40
11, 150196, Channel_aftertouch_c, 2, 31
11, 150212, Channel_aftertouch_c, 2, 0
11, 150296, Note_on_c, 2, 90, 0
11, 150300, Note_on_c, 2, 85, 0
11, 150512, Note_on_c, 2, 87, 104
11, 150516, Note_on_c, 2, 83, 96
11, 150532, Channel_aftertouch_c, 2, 16
11, 150548, Channel_aftertouch_c, 2, 19
11, 150580, Channel_aftertouch_c, 2, 20
11, 150596, Channel_aftertouch_c, 2, 23
11, 150604, Channel_aftertouch_c, 2, 23
11, 150640, Channel_aftertouch_c, 2, 21
11, 150652, Channel_aftertouch_c, 2, 20
11, 150664, Channel_aftertouch_c, 2, 19
11, 150676, Channel_aftertouch_c, 2, 18
11, 150700, Channel_aftertouch_c, 2, 18
11, 150720, Channel_aftertouch_c, 2, 17
11, 150788, Channel_aftertouch_c, 2, 19
11, 150800, Channel_aftertouch_c, 2, 20
11, 150812, Channel_aftertouch_c, 2, 21
11, 150824, Channel_aftertouch_c, 2, 22
11, 150836, Channel_aftertouch_c, 2, 23
11, 150848, Channel_aftertouch_c, 2, 23
11, 150860, Channel_aftertouch_c, 2, 24
11, 150872, Channel_aftertouch_c, 2, 25
11, 150928, Channel_aftertouch_c, 2, 25
11, 150940, Channel_aftertouch_c, 2, 26
11, 151040, Channel_aftertouch_c, 2, 24
11, 151052, Channel_aftertouch_c, 2, 22
11, 151108, Channel_aftertouch_c, 2, 21
11, 151120, Channel_aftertouch_c, 2, 19
11, 151132, Channel_aftertouch_c, 2, 17
11, 151144, Channel_aftertouch_c, 2, 17
11, 151156, Channel_aftertouch_c, 2, 16
11, 151172, Channel_aftertouch_c, 2, 15
11, 151180, Channel_aftertouch_c, 2, 14
11, 151192, Channel_aftertouch_c, 2, 12
11, 151204, Channel_aftertouch_c, 2, 12
11, 151236, Channel_aftertouch_c, 2, 14
11, 151252, Channel_aftertouch_c, 2, 15
11, 151296, Channel_aftertouch_c, 2, 12
11, 151308, Channel_aftertouch_c, 2, 10
11, 151320, Channel_aftertouch_c, 2, 9
11, 151332, Channel_aftertouch_c, 2, 9
11, 151344, Channel_aftertouch_c, 2, 7
11, 151356, Channel_aftertouch_c, 2, 5
11, 151368, Channel_aftertouch_c, 2, 4
11, 151380, Channel_aftertouch_c, 2, 3
11, 151388, Channel_aftertouch_c, 2, 3
11, 151412, Channel_aftertouch_c, 2, 2
11, 151436, Channel_aftertouch_c, 2, 1
11, 151448, Channel_aftertouch_c, 2, 0
11, 151908, Note_on_c, 2, 83, 0
11, 151908, Note_on_c, 2, 87, 0
11, 152076, Note_on_c, 2, 81, 104
11, 152076, Note_on_c, 2, 86, 113
11, 152084, Channel_aftertouch_c, 2, 21
11, 152096, Channel_aftertouch_c, 2, 48
11, 152108, Channel_aftertouch_c, 2, 52
11, 152120, Channel_aftertouch_c, 2, 48
11, 152132, Channel_aftertouch_c, 2, 47
11, 152140, Channel_aftertouch_c, 2, 50
11, 152156, Channel_aftertouch_c, 2, 53
11, 152168, Channel_aftertouch_c, 2, 55
11, 152180, Channel_aftertouch_c, 2, 57
11, 152212, Channel_aftertouch_c, 2, 55
11, 152224, Channel_aftertouch_c, 2, 54
11, 152272, Channel_aftertouch_c, 2, 54
11, 152284, Channel_aftertouch_c, 2, 52
11, 152292, Channel_aftertouch_c, 2, 50
11, 152308, Channel_aftertouch_c, 2, 49
11, 152316, Channel_aftertouch_c, 2, 49
11, 152352, Channel_aftertouch_c, 2, 46
11, 152364, Channel_aftertouch_c, 2, 44
11, 152376, Channel_aftertouch_c, 2, 44
11, 152488, Channel_aftertouch_c, 2, 43
11, 152500, Channel_aftertouch_c, 2, 42
11, 152512, Channel_aftertouch_c, 2, 40
11, 152524, Channel_aftertouch_c, 2, 39
11, 152548, Channel_aftertouch_c, 2, 38
11, 152592, Channel_aftertouch_c, 2, 40
11, 152604, Channel_aftertouch_c, 2, 42
11, 152616, Channel_aftertouch_c, 2, 43
11, 152672, Channel_aftertouch_c, 2, 40
11, 152684, Channel_aftertouch_c, 2, 39
11, 152708, Channel_aftertouch_c, 2, 43
11, 152716, Channel_aftertouch_c, 2, 45
11, 152756, Channel_aftertouch_c, 2, 43
11, 152776, Channel_aftertouch_c, 2, 45
11, 152788, Channel_aftertouch_c, 2, 47
11, 152800, Channel_aftertouch_c, 2, 49
11, 152812, Channel_aftertouch_c, 2, 49
11, 152836, Channel_aftertouch_c, 2, 47
11, 152848, Channel_aftertouch_c, 2, 46
11, 152860, Channel_aftertouch_c, 2, 45
11, 152916, Channel_aftertouch_c, 2, 47
11, 152984, Channel_aftertouch_c, 2, 48
11, 153040, Channel_aftertouch_c, 2, 49
11, 153052, Channel_aftertouch_c, 2, 51
11, 153076, Channel_aftertouch_c, 2, 49
11, 153088, Channel_aftertouch_c, 2, 46
11, 153096, Channel_aftertouch_c, 2, 46
11, 153120, Channel_aftertouch_c, 2, 50
11, 153132, Channel_aftertouch_c, 2, 51
11, 153144, Channel_aftertouch_c, 2, 51
11, 153288, Channel_aftertouch_c, 2, 48
11, 153300, Channel_aftertouch_c, 2, 44
11, 153316, Channel_aftertouch_c, 2, 39
11, 153324, Channel_aftertouch_c, 2, 34
11, 153336, Channel_aftertouch_c, 2, 27
11, 153348, Channel_aftertouch_c, 2, 21
11, 153372, Channel_aftertouch_c, 2, 25
11, 153384, Channel_aftertouch_c, 2, 26
11, 153396, Channel_aftertouch_c, 2, 0
11, 153416, Note_on_c, 2, 81, 0
11, 153440, Note_on_c, 2, 86, 0
11, 153612, Note_on_c, 2, 88, 104
11, 153612, Note_on_c, 2, 83, 92
11, 156492, Note_on_c, 2, 83, 0
11, 156532, Note_on_c, 2, 88, 0
11, 156664, Note_on_c, 2, 88, 91
11, 156668, Note_on_c, 2, 88, 0
11, 156668, Note_on_c, 2, 85, 100
11, 156668, Note_on_c, 2, 81, 100
11, 156668, Control_c, 2, 1, 18
11, 156672, Control_c, 2, 1, 17
11, 156680, Control_c, 2, 1, 17
11, 156684, Control_c, 2, 1, 17
11, 156692, Control_c, 2, 1, 17
11, 156700, Control_c, 2, 1, 17
11, 156704, Control_c, 2, 1, 17
11, 156712, Control_c, 2, 1, 17
11, 156716, Control_c, 2, 1, 16
11, 156724, Control_c, 2, 1, 16
11, 156724, Channel_aftertouch_c, 2, 121
11, 156732, Control_c, 2, 1, 16
11, 156736, Control_c, 2, 1, 16
11, 156736, Channel_aftertouch_c, 2, 120
11, 156744, Control_c, 2, 1, 16
11, 156748, Control_c, 2, 1, 17
11, 156756, Control_c, 2, 1, 17
11, 156760, Channel_aftertouch_c, 2, 120
11, 156764, Control_c, 2, 1, 17
11, 156768, Control_c, 2, 1, 17
11, 156776, Control_c, 2, 1, 17
11, 156780, Control_c, 2, 1, 17
11, 156788, Control_c, 2, 1, 17
11, 156796, Control_c, 2, 1, 17
11, 156800, Control_c, 2, 1, 17
11, 156808, Control_c, 2, 1, 18
11, 156812, Control_c, 2, 1, 18
11, 156820, Control_c, 2, 1, 18
11, 156828, Control_c, 2, 1, 18
11, 156832, Control_c, 2, 1, 18
11, 156840, Control_c, 2, 1, 18
11, 156844, Control_c, 2, 1, 18
11, 156852, Control_c, 2, 1, 18
11, 156860, Control_c, 2, 1, 18
11, 156864, Control_c, 2, 1, 18
11, 156872, Control_c, 2, 1, 18
11, 156876, Control_c, 2, 1, 18
11, 156884, Channel_aftertouch_c, 2, 122
11, 156884, Control_c, 2, 1, 18
11, 156892, Control_c, 2, 1, 18
11, 156896, Control_c, 2, 1, 18
11, 156904, Control_c, 2, 1, 18
11, 156904, Channel_aftertouch_c, 2, 122
11, 156908, Control_c, 2, 1, 18
11, 156916, Control_c, 2, 1, 18
11, 156916, Channel_aftertouch_c, 2, 123
11, 156924, Control_c, 2, 1, 18
11, 156928, Control_c, 2, 1, 18
11, 156928, Channel_aftertouch_c, 2, 125
11, 156936, Control_c, 2, 1, 18
11, 156940, Control_c, 2, 1, 18
11, 156940, Channel_aftertouch_c, 2, 126
11, 156948, Control_c, 2, 1, 18
11, 156952, Channel_aftertouch_c, 2, 126
11, 156956, Control_c, 2, 1, 18
11, 156960, Control_c, 2, 1, 19
11, 156964, Channel_aftertouch_c, 2, 127
11, 156968, Control_c, 2, 1, 19
11, 156972, Control_c, 2, 1, 19
11, 156980, Control_c, 2, 1, 19
11, 156988, Control_c, 2, 1, 19
11, 156992, Control_c, 2, 1, 20
11, 157000, Control_c, 2, 1, 20
11, 157004, Control_c, 2, 1, 20
11, 157012, Control_c, 2, 1, 21
11, 157020, Control_c, 2, 1, 21
11, 157024, Control_c, 2, 1, 21
11, 157032, Control_c, 2, 1, 21
11, 157036, Control_c, 2, 1, 22
11, 157044, Control_c, 2, 1, 22
11, 157052, Control_c, 2, 1, 22
11, 157056, Control_c, 2, 1, 22
11, 157064, Control_c, 2, 1, 23
11, 157068, Control_c, 2, 1, 23
11, 157076, Control_c, 2, 1, 23
11, 157084, Control_c, 2, 1, 23
11, 157088, Control_c, 2, 1, 23
11, 157096, Control_c, 2, 1, 23
11, 157100, Control_c, 2, 1, 23
11, 157108, Control_c, 2, 1, 23
11, 157116, Control_c, 2, 1, 23
11, 157120, Control_c, 2, 1, 23
11, 157128, Control_c, 2, 1, 23
11, 157132, Control_c, 2, 1, 23
11, 157140, Control_c, 2, 1, 23
11, 157148, Control_c, 2, 1, 23
11, 157152, Control_c, 2, 1, 24
11, 157160, Control_c, 2, 1, 24
11, 157164, Control_c, 2, 1, 24
11, 157172, Control_c, 2, 1, 24
11, 157180, Control_c, 2, 1, 24
11, 157184, Control_c, 2, 1, 24
11, 157192, Control_c, 2, 1, 24
11, 157196, Control_c, 2, 1, 24
11, 157204, Control_c, 2, 1, 24
11, 157212, Control_c, 2, 1, 24
11, 157216, Control_c, 2, 1, 25
11, 157224, Control_c, 2, 1, 25
11, 157228, Control_c, 2, 1, 25
11, 157236, Control_c, 2, 1, 25
11, 157244, Control_c, 2, 1, 25
11, 157248, Control_c, 2, 1, 25
11, 157256, Control_c, 2, 1, 25
11, 157260, Control_c, 2, 1, 25
11, 157268, Control_c, 2, 1, 26
11, 157276, Control_c, 2, 1, 26
11, 157280, Control_c, 2, 1, 26
11, 157288, Control_c, 2, 1, 26
11, 157292, Control_c, 2, 1, 26
11, 157300, Control_c, 2, 1, 26
11, 157308, Control_c, 2, 1, 26
11, 157312, Control_c, 2, 1, 26
11, 157320, Control_c, 2, 1, 26
11, 157324, Control_c, 2, 1, 26
11, 157332, Control_c, 2, 1, 26
11, 157340, Control_c, 2, 1, 27
11, 157344, Control_c, 2, 1, 27
11, 157352, Control_c, 2, 1, 27
11, 157356, Control_c, 2, 1, 27
11, 157364, Control_c, 2, 1, 27
11, 157372, Control_c, 2, 1, 27
11, 157376, Control_c, 2, 1, 27
11, 157384, Control_c, 2, 1, 27
11, 157388, Control_c, 2, 1, 27
11, 157396, Control_c, 2, 1, 27
11, 157404, Control_c, 2, 1, 27
11, 157408, Control_c, 2, 1, 27
11, 157416, Control_c, 2, 1, 27
11, 157420, Control_c, 2, 1, 27
11, 157428, Control_c, 2, 1, 27
11, 157436, Control_c, 2, 1, 27
11, 157440, Control_c, 2, 1, 27
11, 157448, Control_c, 2, 1, 28
11, 157452, Control_c, 2, 1, 28
11, 157460, Control_c, 2, 1, 28
11, 157468, Control_c, 2, 1, 28
11, 157472, Control_c, 2, 1, 28
11, 157480, Control_c, 2, 1, 29
11, 157484, Control_c, 2, 1, 29
11, 157492, Control_c, 2, 1, 29
11, 157500, Control_c, 2, 1, 29
11, 157504, Control_c, 2, 1, 29
11, 157512, Control_c, 2, 1, 30
11, 157516, Control_c, 2, 1, 30
11, 157524, Control_c, 2, 1, 31
11, 157532, Control_c, 2, 1, 31
11, 157536, Control_c, 2, 1, 31
11, 157544, Control_c, 2, 1, 32
11, 157548, Control_c, 2, 1, 32
11, 157556, Control_c, 2, 1, 32
11, 157564, Control_c, 2, 1, 32
11, 157568, Control_c, 2, 1, 33
11, 157576, Control_c, 2, 1, 33
11, 157580, Control_c, 2, 1, 34
11, 157588, Control_c, 2, 1, 34
11, 157596, Control_c, 2, 1, 35
11, 157600, Control_c, 2, 1, 35
11, 157608, Control_c, 2, 1, 35
11, 157612, Control_c, 2, 1, 34
11, 157620, Control_c, 2, 1, 34
11, 157628, Control_c, 2, 1, 34
11, 157632, Control_c, 2, 1, 34
11, 157640, Control_c, 2, 1, 34
11, 157644, Control_c, 2, 1, 35
11, 157652, Control_c, 2, 1, 35
11, 157660, Control_c, 2, 1, 35
11, 157664, Control_c, 2, 1, 35
11, 157672, Control_c, 2, 1, 35
11, 157676, Control_c, 2, 1, 35
11, 157684, Control_c, 2, 1, 35
11, 157692, Control_c, 2, 1, 35
11, 157696, Control_c, 2, 1, 35
11, 157704, Control_c, 2, 1, 36
11, 157708, Control_c, 2, 1, 36
11, 157716, Control_c, 2, 1, 36
11, 157724, Control_c, 2, 1, 35
11, 157728, Control_c, 2, 1, 35
11, 157736, Control_c, 2, 1, 35
11, 157740, Control_c, 2, 1, 37
11, 157748, Control_c, 2, 1, 37
11, 157756, Control_c, 2, 1, 35
11, 157760, Control_c, 2, 1, 35
11, 157768, Control_c, 2, 1, 36
11, 157772, Control_c, 2, 1, 36
11, 157780, Control_c, 2, 1, 36
11, 157788, Control_c, 2, 1, 36
11, 157792, Control_c, 2, 1, 36
11, 157800, Control_c, 2, 1, 36
11, 157804, Control_c, 2, 1, 36
11, 157812, Control_c, 2, 1, 36
11, 157820, Control_c, 2, 1, 37
11, 157824, Control_c, 2, 1, 37
11, 157832, Control_c, 2, 1, 37
11, 157836, Control_c, 2, 1, 37
11, 157844, Control_c, 2, 1, 37
11, 157852, Control_c, 2, 1, 37
11, 157856, Control_c, 2, 1, 37
11, 157864, Control_c, 2, 1, 37
11, 157868, Control_c, 2, 1, 38
11, 157876, Control_c, 2, 1, 38
11, 157884, Control_c, 2, 1, 38
11, 157888, Control_c, 2, 1, 39
11, 157896, Control_c, 2, 1, 39
11, 157900, Control_c, 2, 1, 39
11, 157908, Control_c, 2, 1, 39
11, 157916, Control_c, 2, 1, 39
11, 157920, Control_c, 2, 1, 39
11, 157928, Control_c, 2, 1, 40
11, 157932, Control_c, 2, 1, 40
11, 157940, Control_c, 2, 1, 40
11, 157948, Control_c, 2, 1, 40
11, 157952, Control_c, 2, 1, 40
11, 157960, Control_c, 2, 1, 40
11, 157964, Control_c, 2, 1, 40
11, 157972, Control_c, 2, 1, 41
11, 157980, Control_c, 2, 1, 41
11, 157984, Control_c, 2, 1, 41
11, 157992, Control_c, 2, 1, 42
11, 157996, Control_c, 2, 1, 42
11, 158004, Control_c, 2, 1, 42
11, 158012, Control_c, 2, 1, 42
11, 158016, Control_c, 2, 1, 43
11, 158024, Control_c, 2, 1, 43
11, 158028, Control_c, 2, 1, 43
11, 158036, Control_c, 2, 1, 43
11, 158044, Control_c, 2, 1, 43
11, 158048, Control_c, 2, 1, 43
11, 158056, Control_c, 2, 1, 43
11, 158060, Control_c, 2, 1, 43
11, 158068, Control_c, 2, 1, 41
11, 158076, Control_c, 2, 1, 41
11, 158080, Control_c, 2, 1, 41
11, 158088, Control_c, 2, 1, 43
11, 158092, Control_c, 2, 1, 41
11, 158100, Control_c, 2, 1, 43
11, 158108, Control_c, 2, 1, 43
11, 158112, Control_c, 2, 1, 42
11, 158120, Control_c, 2, 1, 42
11, 158124, Control_c, 2, 1, 42
11, 158132, Control_c, 2, 1, 42
11, 158140, Control_c, 2, 1, 41
11, 158144, Control_c, 2, 1, 41
11, 158152, Control_c, 2, 1, 41
11, 158156, Control_c, 2, 1, 41
11, 158164, Control_c, 2, 1, 41
11, 158172, Control_c, 2, 1, 40
11, 158176, Control_c, 2, 1, 40
11, 158184, Control_c, 2, 1, 40
11, 158188, Control_c, 2, 1, 40
11, 158196, Control_c, 2, 1, 40
11, 158204, Control_c, 2, 1, 40
11, 158208, Control_c, 2, 1, 40
11, 158216, Control_c, 2, 1, 39
11, 158220, Control_c, 2, 1, 39
11, 158228, Control_c, 2, 1, 39
11, 158236, Control_c, 2, 1, 39
11, 158240, Control_c, 2, 1, 38
11, 158248, Control_c, 2, 1, 38
11, 158252, Control_c, 2, 1, 38
11, 158260, Control_c, 2, 1, 38
11, 158268, Control_c, 2, 1, 38
11, 158272, Control_c, 2, 1, 38
11, 158280, Control_c, 2, 1, 37
11, 158284, Control_c, 2, 1, 37
11, 158292, Control_c, 2, 1, 37
11, 158300, Control_c, 2, 1, 37
11, 158304, Control_c, 2, 1, 37
11, 158312, Control_c, 2, 1, 37
11, 158316, Control_c, 2, 1, 37
11, 158324, Control_c, 2, 1, 36
11, 158332, Control_c, 2, 1, 36
11, 158336, Control_c, 2, 1, 35
11, 158344, Control_c, 2, 1, 34
11, 158348, Control_c, 2, 1, 34
11, 158356, Control_c, 2, 1, 34
11, 158364, Control_c, 2, 1, 33
11, 158368, Control_c, 2, 1, 33
11, 158376, Control_c, 2, 1, 33
11, 158380, Control_c, 2, 1, 33
11, 158388, Control_c, 2, 1, 33
11, 158396, Control_c, 2, 1, 33
11, 158400, Control_c, 2, 1, 33
11, 158408, Control_c, 2, 1, 33
11, 158412, Control_c, 2, 1, 33
11, 158420, Control_c, 2, 1, 33
11, 158420, Channel_aftertouch_c, 2, 125
11, 158428, Control_c, 2, 1, 33
11, 158432, Control_c, 2, 1, 33
11, 158432, Channel_aftertouch_c, 2, 123
11, 158440, Control_c, 2, 1, 33
11, 158444, Channel_aftertouch_c, 2, 120
11, 158444, Control_c, 2, 1, 32
11, 158452, Control_c, 2, 1, 30
11, 158460, Control_c, 2, 1, 32
11, 158464, Control_c, 2, 1, 32
11, 158472, Control_c, 2, 1, 32
11, 158476, Control_c, 2, 1, 32
11, 158484, Control_c, 2, 1, 33
11, 158492, Control_c, 2, 1, 33
11, 158496, Control_c, 2, 1, 33
11, 158504, Control_c, 2, 1, 33
11, 158508, Control_c, 2, 1, 33
11, 158516, Control_c, 2, 1, 33
11, 158524, Control_c, 2, 1, 33
11, 158528, Control_c, 2, 1, 33
11, 158532, Channel_aftertouch_c, 2, 122
11, 158536, Control_c, 2, 1, 33
11, 158540, Control_c, 2, 1, 33
11, 158544, Channel_aftertouch_c, 2, 122
11, 158548, Control_c, 2, 1, 32
11, 158556, Control_c, 2, 1, 32
11, 158556, Channel_aftertouch_c, 2, 123
11, 158560, Control_c, 2, 1, 33
11, 158568, Control_c, 2, 1, 32
11, 158572, Control_c, 2, 1, 33
11, 158580, Control_c, 2, 1, 33
11, 158588, Control_c, 2, 1, 33
11, 158592, Control_c, 2, 1, 32
11, 158600, Control_c, 2, 1, 33
11, 158604, Control_c, 2, 1, 33
11, 158612, Control_c, 2, 1, 34
11, 158620, Control_c, 2, 1, 34
11, 158624, Control_c, 2, 1, 32
11, 158632, Control_c, 2, 1, 34
11, 158636, Control_c, 2, 1, 34
11, 158644, Control_c, 2, 1, 34
11, 158652, Control_c, 2, 1, 34
11, 158656, Control_c, 2, 1, 34
11, 158664, Control_c, 2, 1, 34
11, 158668, Control_c, 2, 1, 34
11, 158676, Control_c, 2, 1, 34
11, 158684, Control_c, 2, 1, 34
11, 158688, Control_c, 2, 1, 34
11, 158696, Control_c, 2, 1, 34
11, 158700, Control_c, 2, 1, 34
11, 158708, Control_c, 2, 1, 34
11, 158716, Control_c, 2, 1, 34
11, 158720, Control_c, 2, 1, 34
11, 158728, Control_c, 2, 1, 34
11, 158732, Control_c, 2, 1, 35
11, 158740, Control_c, 2, 1, 35
11, 158748, Control_c, 2, 1, 35
11, 158752, Control_c, 2, 1, 35
11, 158760, Control_c, 2, 1, 35
11, 158764, Control_c, 2, 1, 35
11, 158772, Control_c, 2, 1, 35
11, 158780, Control_c, 2, 1, 35
11, 158784, Control_c, 2, 1, 35
11, 158792, Control_c, 2, 1, 35
11, 158796, Control_c, 2, 1, 35
11, 158804, Control_c, 2, 1, 35
11, 158812, Control_c, 2, 1, 35
11, 158816, Control_c, 2, 1, 35
11, 158824, Control_c, 2, 1, 35
11, 158828, Control_c, 2, 1, 35
11, 158836, Control_c, 2, 1, 35
11, 158844, Control_c, 2, 1, 35
11, 158848, Control_c, 2, 1, 36
11, 158856, Control_c, 2, 1, 36
11, 158860, Control_c, 2, 1, 36
11, 158868, Control_c, 2, 1, 36
11, 158876, Control_c, 2, 1, 36
11, 158880, Control_c, 2, 1, 36
11, 158888, Control_c, 2, 1, 36
11, 158892, Control_c, 2, 1, 36
11, 158900, Control_c, 2, 1, 36
11, 158908, Control_c, 2, 1, 37
11, 158912, Control_c, 2, 1, 37
11, 158920, Control_c, 2, 1, 37
11, 158924, Control_c, 2, 1, 37
11, 158932, Control_c, 2, 1, 37
11, 158940, Control_c, 2, 1, 37
11, 158944, Control_c, 2, 1, 37
11, 158952, Control_c, 2, 1, 37
11, 158956, Control_c, 2, 1, 35
11, 158964, Control_c, 2, 1, 35
11, 158972, Control_c, 2, 1, 36
11, 158976, Control_c, 2, 1, 36
11, 158984, Control_c, 2, 1, 37
11, 158988, Control_c, 2, 1, 37
11, 158996, Control_c, 2, 1, 37
11, 159004, Control_c, 2, 1, 38
11, 159008, Control_c, 2, 1, 38
11, 159016, Control_c, 2, 1, 38
11, 159020, Control_c, 2, 1, 39
11, 159028, Control_c, 2, 1, 39
11, 159036, Control_c, 2, 1, 39
11, 159040, Control_c, 2, 1, 40
11, 159048, Control_c, 2, 1, 40
11, 159052, Control_c, 2, 1, 41
11, 159060, Control_c, 2, 1, 41
11, 159068, Control_c, 2, 1, 41
11, 159072, Control_c, 2, 1, 41
11, 159076, Channel_aftertouch_c, 2, 121
11, 159080, Control_c, 2, 1, 41
11, 159084, Control_c, 2, 1, 39
11, 159092, Channel_aftertouch_c, 2, 120
11, 159092, Control_c, 2, 1, 42
11, 159100, Control_c, 2, 1, 42
11, 159100, Channel_aftertouch_c, 2, 120
11, 159104, Control_c, 2, 1, 42
11, 159112, Control_c, 2, 1, 40
11, 159116, Control_c, 2, 1, 43
11, 159124, Control_c, 2, 1, 43
11, 159124, Channel_aftertouch_c, 2, 119
11, 159132, Control_c, 2, 1, 43
11, 159136, Control_c, 2, 1, 43
11, 159144, Control_c, 2, 1, 43
11, 159148, Channel_aftertouch_c, 2, 119
11, 159148, Control_c, 2, 1, 40
11, 159156, Control_c, 2, 1, 43
11, 159160, Channel_aftertouch_c, 2, 118
11, 159164, Control_c, 2, 1, 43
11, 159168, Control_c, 2, 1, 40
11, 159172, Channel_aftertouch_c, 2, 117
11, 159176, Control_c, 2, 1, 43
11, 159180, Control_c, 2, 1, 43
11, 159184, Channel_aftertouch_c, 2, 117
11, 159188, Control_c, 2, 1, 43
11, 159196, Control_c, 2, 1, 43
11, 159196, Channel_aftertouch_c, 2, 116
11, 159200, Control_c, 2, 1, 41
11, 159208, Control_c, 2, 1, 41
11, 159208, Channel_aftertouch_c, 2, 115
11, 159212, Control_c, 2, 1, 43
11, 159220, Channel_aftertouch_c, 2, 115
11, 159220, Control_c, 2, 1, 43
11, 159228, Control_c, 2, 1, 43
11, 159232, Channel_aftertouch_c, 2, 114
11, 159232, Control_c, 2, 1, 41
11, 159240, Control_c, 2, 1, 43
11, 159244, Control_c, 2, 1, 43
11, 159252, Control_c, 2, 1, 43
11, 159260, Control_c, 2, 1, 43
11, 159264, Control_c, 2, 1, 43
11, 159272, Control_c, 2, 1, 43
11, 159276, Channel_aftertouch_c, 2, 113
11, 159276, Control_c, 2, 1, 43
11, 159284, Control_c, 2, 1, 43
11, 159292, Control_c, 2, 1, 43
11, 159296, Control_c, 2, 1, 43
11, 159304, Control_c, 2, 1, 43
11, 159308, Control_c, 2, 1, 43
11, 159316, Control_c, 2, 1, 43
11, 159324, Control_c, 2, 1, 43
11, 159328, Control_c, 2, 1, 43
11, 159336, Control_c, 2, 1, 43
11, 159340, Control_c, 2, 1, 43
11, 159340, Channel_aftertouch_c, 2, 113
11, 159348, Control_c, 2, 1, 43
11, 159356, Control_c, 2, 1, 43
11, 159356, Channel_aftertouch_c, 2, 112
11, 159360, Control_c, 2, 1, 43
11, 159364, Channel_aftertouch_c, 2, 109
11, 159368, Control_c, 2, 1, 43
11, 159372, Control_c, 2, 1, 43
11, 159380, Channel_aftertouch_c, 2, 107
11, 159380, Control_c, 2, 1, 43
11, 159388, Control_c, 2, 1, 43
11, 159392, Channel_aftertouch_c, 2, 105
11, 159392, Control_c, 2, 1, 43
11, 159400, Control_c, 2, 1, 43
11, 159404, Control_c, 2, 1, 43
11, 159412, Control_c, 2, 1, 43
11, 159420, Control_c, 2, 1, 43
11, 159424, Control_c, 2, 1, 43
11, 159424, Channel_aftertouch_c, 2, 108
11, 159432, Control_c, 2, 1, 43
11, 159436, Channel_aftertouch_c, 2, 108
11, 159436, Control_c, 2, 1, 43
11, 159444, Control_c, 2, 1, 43
11, 159448, Channel_aftertouch_c, 2, 109
11, 159452, Control_c, 2, 1, 43
11, 159456, Control_c, 2, 1, 43
11, 159460, Channel_aftertouch_c, 2, 109
11, 159464, Control_c, 2, 1, 44
11, 159468, Control_c, 2, 1, 44
11, 159472, Channel_aftertouch_c, 2, 110
11, 159476, Control_c, 2, 1, 43
11, 159484, Control_c, 2, 1, 44
11, 159488, Control_c, 2, 1, 44
11, 159496, Control_c, 2, 1, 43
11, 159500, Control_c, 2, 1, 43
11, 159508, Control_c, 2, 1, 43
11, 159516, Control_c, 2, 1, 40
11, 159520, Control_c, 2, 1, 40
11, 159528, Control_c, 2, 1, 39
11, 159528, Channel_aftertouch_c, 2, 107
11, 159532, Control_c, 2, 1, 39
11, 159540, Control_c, 2, 1, 39
11, 159540, Channel_aftertouch_c, 2, 91
11, 159548, Control_c, 2, 1, 38
11, 159552, Control_c, 2, 1, 38
11, 159552, Channel_aftertouch_c, 2, 27
11, 159560, Control_c, 2, 1, 38
11, 159564, Channel_aftertouch_c, 2, 0
11, 159564, Control_c, 2, 1, 37
11, 159572, Note_on_c, 2, 81, 0
11, 159572, Control_c, 2, 1, 37
11, 159576, Note_on_c, 2, 85, 0
11, 159580, Control_c, 2, 1, 37
11, 159584, Control_c, 2, 1, 36
11, 159592, Control_c, 2, 1, 36
11, 159596, Control_c, 2, 1, 36
11, 159604, Control_c, 2, 1, 35
11, 159612, Control_c, 2, 1, 35
11, 159616, Control_c, 2, 1, 35
11, 159624, Control_c, 2, 1, 35
11, 159628, Control_c, 2, 1, 35
11, 159636, Control_c, 2, 1, 35
11, 159644, Control_c, 2, 1, 35
11, 159648, Control_c, 2, 1, 34
11, 159656, Control_c, 2, 1, 34
11, 159660, Control_c, 2, 1, 34
11, 159668, Control_c, 2, 1, 34
11, 159676, Control_c, 2, 1, 33
11, 159680, Control_c, 2, 1, 33
11, 159688, Control_c, 2, 1, 33
11, 159692, Control_c, 2, 1, 33
11, 159700, Control_c, 2, 1, 33
11, 159708, Control_c, 2, 1, 32
11, 159752, Note_on_c, 2, 81, 92
11, 159756, Note_on_c, 2, 76, 89
11, 159764, Channel_aftertouch_c, 2, 57
11, 159780, Channel_aftertouch_c, 2, 73
11, 159788, Channel_aftertouch_c, 2, 76
11, 159812, Channel_aftertouch_c, 2, 78
11, 159824, Channel_aftertouch_c, 2, 81
11, 159836, Channel_aftertouch_c, 2, 84
11, 159844, Channel_aftertouch_c, 2, 85
11, 159860, Channel_aftertouch_c, 2, 86
11, 159868, Channel_aftertouch_c, 2, 87
11, 159880, Channel_aftertouch_c, 2, 87
11, 159892, Channel_aftertouch_c, 2, 88
11, 159904, Channel_aftertouch_c, 2, 88
11, 159916, Channel_aftertouch_c, 2, 89
11, 159980, Channel_aftertouch_c, 2, 89
11, 160004, Channel_aftertouch_c, 2, 90
11, 160056, Channel_aftertouch_c, 2, 90
11, 160068, Channel_aftertouch_c, 2, 91
11, 160112, Channel_aftertouch_c, 2, 89
11, 160176, Channel_aftertouch_c, 2, 88
11, 160188, Channel_aftertouch_c, 2, 88
11, 160196, Channel_aftertouch_c, 2, 87
11, 160212, Channel_aftertouch_c, 2, 87
11, 160244, Channel_aftertouch_c, 2, 86
11, 160288, Channel_aftertouch_c, 2, 85
11, 160296, Channel_aftertouch_c, 2, 84
11, 160308, Channel_aftertouch_c, 2, 83
11, 160320, Channel_aftertouch_c, 2, 83
11, 160332, Channel_aftertouch_c, 2, 82
11, 160344, Channel_aftertouch_c, 2, 80
11, 160356, Channel_aftertouch_c, 2, 80
11, 160368, Channel_aftertouch_c, 2, 79
11, 160380, Channel_aftertouch_c, 2, 78
11, 160388, Channel_aftertouch_c, 2, 76
11, 160400, Channel_aftertouch_c, 2, 75
11, 160412, Channel_aftertouch_c, 2, 73
11, 160424, Channel_aftertouch_c, 2, 73
11, 160436, Channel_aftertouch_c, 2, 71
11, 160448, Channel_aftertouch_c, 2, 69
11, 160460, Channel_aftertouch_c, 2, 67
11, 160468, Channel_aftertouch_c, 2, 65
11, 160484, Channel_aftertouch_c, 2, 64
11, 160536, Channel_aftertouch_c, 2, 62
11, 160548, Channel_aftertouch_c, 2, 61
11, 160556, Channel_aftertouch_c, 2, 60
11, 160572, Channel_aftertouch_c, 2, 59
11, 160668, Channel_aftertouch_c, 2, 59
11, 160676, Channel_aftertouch_c, 2, 57
11, 160732, Channel_aftertouch_c, 2, 57
11, 160744, Channel_aftertouch_c, 2, 56
11, 160808, Channel_aftertouch_c, 2, 58
11, 160844, Channel_aftertouch_c, 2, 56
11, 160876, Channel_aftertouch_c, 2, 56
11, 160884, Channel_aftertouch_c, 2, 55
11, 160896, Channel_aftertouch_c, 2, 54
11, 160908, Channel_aftertouch_c, 2, 54
11, 160988, Channel_aftertouch_c, 2, 53
11, 160996, Channel_aftertouch_c, 2, 52
11, 161008, Channel_aftertouch_c, 2, 51
11, 161020, Channel_aftertouch_c, 2, 50
11, 161028, Channel_aftertouch_c, 2, 48
11, 161044, Channel_aftertouch_c, 2, 46
11, 161052, Channel_aftertouch_c, 2, 45
11, 161088, Channel_aftertouch_c, 2, 47
11, 161120, Channel_aftertouch_c, 2, 43
11, 161132, Channel_aftertouch_c, 2, 41
11, 161172, Channel_aftertouch_c, 2, 43
11, 161184, Channel_aftertouch_c, 2, 44
11, 161196, Channel_aftertouch_c, 2, 44
11, 161208, Channel_aftertouch_c, 2, 45
11, 161244, Channel_aftertouch_c, 2, 42
11, 161252, Channel_aftertouch_c, 2, 39
11, 161276, Channel_aftertouch_c, 2, 41
11, 161288, Channel_aftertouch_c, 2, 42
11, 161300, Channel_aftertouch_c, 2, 43
11, 161312, Channel_aftertouch_c, 2, 44
11, 161344, Channel_aftertouch_c, 2, 42
11, 161364, Channel_aftertouch_c, 2, 44
11, 161376, Channel_aftertouch_c, 2, 45
11, 161420, Channel_aftertouch_c, 2, 43
11, 161444, Channel_aftertouch_c, 2, 42
11, 161452, Channel_aftertouch_c, 2, 41
11, 161468, Channel_aftertouch_c, 2, 41
11, 161508, Channel_aftertouch_c, 2, 39
11, 161520, Channel_aftertouch_c, 2, 37
11, 161532, Channel_aftertouch_c, 2, 34
11, 161544, Channel_aftertouch_c, 2, 33
11, 161556, Channel_aftertouch_c, 2, 32
11, 161580, Channel_aftertouch_c, 2, 31
11, 161588, Channel_aftertouch_c, 2, 29
11, 161600, Channel_aftertouch_c, 2, 27
11, 161612, Channel_aftertouch_c, 2, 26
11, 161624, Channel_aftertouch_c, 2, 25
11, 161676, Channel_aftertouch_c, 2, 25
11, 161688, Channel_aftertouch_c, 2, 22
11, 161700, Channel_aftertouch_c, 2, 21
11, 161724, Channel_aftertouch_c, 2, 23
11, 161732, Channel_aftertouch_c, 2, 25
11, 161744, Channel_aftertouch_c, 2, 28
11, 161756, Channel_aftertouch_c, 2, 31
11, 161768, Channel_aftertouch_c, 2, 34
11, 161780, Channel_aftertouch_c, 2, 36
11, 161792, Channel_aftertouch_c, 2, 38
11, 161824, Channel_aftertouch_c, 2, 38
11, 161836, Channel_aftertouch_c, 2, 40
11, 161848, Channel_aftertouch_c, 2, 41
11, 161880, Channel_aftertouch_c, 2, 41
11, 161892, Channel_aftertouch_c, 2, 42
11, 161904, Channel_aftertouch_c, 2, 43
11, 161916, Channel_aftertouch_c, 2, 44
11, 161968, Channel_aftertouch_c, 2, 44
11, 161980, Channel_aftertouch_c, 2, 45
11, 161992, Channel_aftertouch_c, 2, 45
11, 162044, Channel_aftertouch_c, 2, 46
11, 162092, Channel_aftertouch_c, 2, 46
11, 162100, Channel_aftertouch_c, 2, 47
11, 162176, Channel_aftertouch_c, 2, 47
11, 162188, Channel_aftertouch_c, 2, 48
11, 162252, Channel_aftertouch_c, 2, 48
11, 162264, Channel_aftertouch_c, 2, 49
11, 162404, Channel_aftertouch_c, 2, 49
11, 162468, Channel_aftertouch_c, 2, 50
11, 162492, Channel_aftertouch_c, 2, 50
11, 162532, Channel_aftertouch_c, 2, 51
11, 162548, Channel_aftertouch_c, 2, 51
11, 162612, Channel_aftertouch_c, 2, 52
11, 162688, Channel_aftertouch_c, 2, 52
11, 162740, Channel_aftertouch_c, 2, 53
11, 162816, Channel_aftertouch_c, 2, 53
11, 162904, Channel_aftertouch_c, 2, 54
11, 162956, Channel_aftertouch_c, 2, 54
11, 163032, Channel_aftertouch_c, 2, 55
11, 163160, Channel_aftertouch_c, 2, 55
11, 163248, Channel_aftertouch_c, 2, 56
11, 163324, Channel_aftertouch_c, 2, 56
11, 163388, Channel_aftertouch_c, 2, 57
11, 164264, Channel_aftertouch_c, 2, 55
11, 164276, Channel_aftertouch_c, 2, 50
11, 164288, Channel_aftertouch_c, 2, 20
11, 164296, Channel_aftertouch_c, 2, 0
11, 164332, Channel_aftertouch_c, 2, 15
11, 164340, Channel_aftertouch_c, 2, 47
11, 164356, Channel_aftertouch_c, 2, 60
11, 164364, Channel_aftertouch_c, 2, 64
11, 164368, Note_on_c, 2, 78, 108
11, 164372, Channel_aftertouch_c, 2, 81
11, 164388, Channel_aftertouch_c, 2, 74
11, 164396, Channel_aftertouch_c, 2, 67
11, 164412, Channel_aftertouch_c, 2, 71
11, 164420, Channel_aftertouch_c, 2, 75
11, 164432, Channel_aftertouch_c, 2, 76
11, 164452, Channel_aftertouch_c, 2, 74
11, 164464, Channel_aftertouch_c, 2, 76
11, 164476, Channel_aftertouch_c, 2, 77
11, 164508, Channel_aftertouch_c, 2, 75
11, 164532, Channel_aftertouch_c, 2, 79
11, 164544, Channel_aftertouch_c, 2, 81
11, 164556, Channel_aftertouch_c, 2, 82
11, 164564, Channel_aftertouch_c, 2, 83
11, 164652, Channel_aftertouch_c, 2, 84
11, 164664, Channel_aftertouch_c, 2, 84
11, 164676, Channel_aftertouch_c, 2, 85
11, 164700, Channel_aftertouch_c, 2, 86
11, 164708, Channel_aftertouch_c, 2, 87
11, 164720, Channel_aftertouch_c, 2, 88
11, 164732, Channel_aftertouch_c, 2, 89
11, 164744, Channel_aftertouch_c, 2, 90
11, 164756, Channel_aftertouch_c, 2, 91
11, 164844, Channel_aftertouch_c, 2, 89
11, 164864, Channel_aftertouch_c, 2, 88
11, 164916, Channel_aftertouch_c, 2, 87
11, 164928, Channel_aftertouch_c, 2, 83
11, 164940, Channel_aftertouch_c, 2, 76
11, 164952, Channel_aftertouch_c, 2, 74
11, 164964, Channel_aftertouch_c, 2, 76
11, 164988, Channel_aftertouch_c, 2, 61
11, 164996, Channel_aftertouch_c, 2, 14
11, 165028, Note_on_c, 2, 76, 0
11, 165064, Channel_aftertouch_c, 2, 13
11, 165076, Channel_aftertouch_c, 2, 12
11, 165088, Channel_aftertouch_c, 2, 11
11, 165100, Channel_aftertouch_c, 2, 6
11, 165112, Channel_aftertouch_c, 2, 0
11, 165132, Note_on_c, 2, 78, 0
11, 165132, Note_on_c, 2, 76, 92
11, 165136, Channel_aftertouch_c, 2, 74
11, 165148, Channel_aftertouch_c, 2, 80
11, 165172, Channel_aftertouch_c, 2, 81
11, 165180, Channel_aftertouch_c, 2, 86
11, 165192, Channel_aftertouch_c, 2, 90
11, 165260, Channel_aftertouch_c, 2, 90
11, 165268, Channel_aftertouch_c, 2, 91
11, 165280, Channel_aftertouch_c, 2, 92
11, 165292, Channel_aftertouch_c, 2, 92
11, 165348, Channel_aftertouch_c, 2, 93
11, 165360, Channel_aftertouch_c, 2, 93
11, 165380, Channel_aftertouch_c, 2, 94
11, 165456, Channel_aftertouch_c, 2, 91
11, 165480, Channel_aftertouch_c, 2, 90
11, 165500, Channel_aftertouch_c, 2, 90
11, 165512, Channel_aftertouch_c, 2, 89
11, 165524, Channel_aftertouch_c, 2, 86
11, 165536, Channel_aftertouch_c, 2, 85
11, 165556, Channel_aftertouch_c, 2, 83
11, 165568, Channel_aftertouch_c, 2, 82
11, 165588, Channel_aftertouch_c, 2, 81
11, 165600, Channel_aftertouch_c, 2, 79
11, 165612, Channel_aftertouch_c, 2, 77
11, 165680, Channel_aftertouch_c, 2, 75
11, 165688, Channel_aftertouch_c, 2, 74
11, 165700, Channel_aftertouch_c, 2, 70
11, 165712, Channel_aftertouch_c, 2, 68
11, 165724, Channel_aftertouch_c, 2, 64
11, 165736, Channel_aftertouch_c, 2, 61
11, 165748, Channel_aftertouch_c, 2, 51
11, 165760, Channel_aftertouch_c, 2, 5
11, 165772, Channel_aftertouch_c, 2, 0
11, 165792, Note_on_c, 2, 76, 0
11, 165804, Note_on_c, 2, 81, 0
11, 165872, Note_on_c, 2, 81, 89
11, 165876, Note_on_c, 2, 76, 85
11, 165884, Channel_aftertouch_c, 2, 69
11, 165896, Channel_aftertouch_c, 2, 83
11, 165908, Channel_aftertouch_c, 2, 86
11, 165932, Channel_aftertouch_c, 2, 87
11, 165940, Channel_aftertouch_c, 2, 89
11, 165952, Channel_aftertouch_c, 2, 90
11, 165964, Channel_aftertouch_c, 2, 91
11, 165988, Channel_aftertouch_c, 2, 92
11, 165996, Channel_aftertouch_c, 2, 92
11, 166012, Channel_aftertouch_c, 2, 93
11, 166268, Channel_aftertouch_c, 2, 91
11, 166524, Channel_aftertouch_c, 2, 90
11, 166560, Channel_aftertouch_c, 2, 90
11, 166568, Channel_aftertouch_c, 2, 89
11, 166580, Channel_aftertouch_c, 2, 89
11, 166636, Channel_aftertouch_c, 2, 88
11, 166648, Channel_aftertouch_c, 2, 87
11, 166776, Channel_aftertouch_c, 2, 86
11, 166784, Channel_aftertouch_c, 2, 86
11, 166800, Channel_aftertouch_c, 2, 85
11, 166828, Channel_aftertouch_c, 2, 85
11, 166844, Channel_aftertouch_c, 2, 84
11, 166896, Channel_aftertouch_c, 2, 84
11, 166920, Channel_aftertouch_c, 2, 83
11, 166932, Channel_aftertouch_c, 2, 83
11, 167208, Channel_aftertouch_c, 2, 82
11, 167220, Channel_aftertouch_c, 2, 82
11, 167232, Channel_aftertouch_c, 2, 81
11, 167264, Channel_aftertouch_c, 2, 81
11, 167276, Channel_aftertouch_c, 2, 80
11, 167288, Channel_aftertouch_c, 2, 79
11, 167300, Channel_aftertouch_c, 2, 79
11, 167332, Channel_aftertouch_c, 2, 78
11, 167340, Channel_aftertouch_c, 2, 77
11, 167356, Channel_aftertouch_c, 2, 76
11, 167420, Channel_aftertouch_c, 2, 75
11, 167432, Channel_aftertouch_c, 2, 75
11, 167452, Channel_aftertouch_c, 2, 74
11, 167496, Channel_aftertouch_c, 2, 74
11, 167508, Channel_aftertouch_c, 2, 73
11, 167520, Channel_aftertouch_c, 2, 72
11, 167532, Channel_aftertouch_c, 2, 72
11, 167572, Channel_aftertouch_c, 2, 74
11, 167660, Channel_aftertouch_c, 2, 72
11, 167820, Channel_aftertouch_c, 2, 74
11, 168068, Channel_aftertouch_c, 2, 72
11, 168336, Channel_aftertouch_c, 2, 74
11, 168356, Channel_aftertouch_c, 2, 74
11, 168368, Channel_aftertouch_c, 2, 75
11, 168444, Channel_aftertouch_c, 2, 75
11, 168552, Channel_aftertouch_c, 2, 76
11, 168788, Channel_aftertouch_c, 2, 73
11, 168800, Channel_aftertouch_c, 2, 73
11, 168812, Channel_aftertouch_c, 2, 72
11, 168824, Channel_aftertouch_c, 2, 71
11, 168832, Channel_aftertouch_c, 2, 70
11, 168844, Channel_aftertouch_c, 2, 67
11, 168856, Channel_aftertouch_c, 2, 63
11, 168868, Channel_aftertouch_c, 2, 56
11, 168880, Channel_aftertouch_c, 2, 47
11, 168892, Channel_aftertouch_c, 2, 11
11, 168904, Channel_aftertouch_c, 2, 0
11, 168912, Note_on_c, 2, 81, 0
11, 168952, Note_on_c, 2, 81, 96
11, 168972, Channel_aftertouch_c, 2, 63
11, 168980, Channel_aftertouch_c, 2, 68
11, 168992, Channel_aftertouch_c, 2, 71
11, 169004, Channel_aftertouch_c, 2, 74
11, 169016, Channel_aftertouch_c, 2, 77
11, 169028, Channel_aftertouch_c, 2, 79
11, 169040, Channel_aftertouch_c, 2, 80
11, 169052, Channel_aftertouch_c, 2, 81
11, 169060, Channel_aftertouch_c, 2, 82
11, 169072, Channel_aftertouch_c, 2, 83
11, 169084, Channel_aftertouch_c, 2, 83
11, 169096, Channel_aftertouch_c, 2, 84
11, 169108, Channel_aftertouch_c, 2, 84
11, 169120, Channel_aftertouch_c, 2, 85
11, 169132, Channel_aftertouch_c, 2, 85
11, 169252, Channel_aftertouch_c, 2, 83
11, 169260, Channel_aftertouch_c, 2, 83
11, 169272, Channel_aftertouch_c, 2, 82
11, 169284, Channel_aftertouch_c, 2, 81
11, 169296, Channel_aftertouch_c, 2, 80
11, 169308, Channel_aftertouch_c, 2, 78
11, 169320, Channel_aftertouch_c, 2, 76
11, 169332, Channel_aftertouch_c, 2, 73
11, 169340, Channel_aftertouch_c, 2, 68
11, 169352, Channel_aftertouch_c, 2, 61
11, 169360, Note_on_c, 2, 78, 113
11, 169364, Channel_aftertouch_c, 2, 17
11, 169380, Channel_aftertouch_c, 2, 14
11, 169384, Note_on_c, 2, 76, 0
11, 169388, Channel_aftertouch_c, 2, 12
11, 169400, Channel_aftertouch_c, 2, 0
11, 169536, Channel_aftertouch_c, 2, 3
11, 169548, Channel_aftertouch_c, 2, 6
11, 169560, Channel_aftertouch_c, 2, 10
11, 169572, Channel_aftertouch_c, 2, 12
11, 169616, Channel_aftertouch_c, 2, 10
11, 169628, Channel_aftertouch_c, 2, 9
11, 169648, Channel_aftertouch_c, 2, 9
11, 169660, Channel_aftertouch_c, 2, 6
11, 169672, Channel_aftertouch_c, 2, 2
11, 169684, Channel_aftertouch_c, 2, 0
11, 169732, Note_on_c, 2, 76, 96
11, 169740, Channel_aftertouch_c, 2, 60
11, 169752, Channel_aftertouch_c, 2, 73
11, 169764, Channel_aftertouch_c, 2, 74
11, 169772, Channel_aftertouch_c, 2, 76
11, 169788, Channel_aftertouch_c, 2, 79
11, 169796, Channel_aftertouch_c, 2, 81
11, 169804, Note_on_c, 2, 78, 0
11, 169824, Channel_aftertouch_c, 2, 82
11, 169832, Channel_aftertouch_c, 2, 80
11, 169844, Channel_aftertouch_c, 2, 79
11, 169856, Channel_aftertouch_c, 2, 78
11, 169900, Channel_aftertouch_c, 2, 76
11, 169924, Channel_aftertouch_c, 2, 80
11, 169936, Channel_aftertouch_c, 2, 82
11, 169948, Channel_aftertouch_c, 2, 80
11, 169956, Channel_aftertouch_c, 2, 79
11, 169968, Channel_aftertouch_c, 2, 78
11, 169980, Channel_aftertouch_c, 2, 77
11, 170000, Channel_aftertouch_c, 2, 75
11, 170012, Channel_aftertouch_c, 2, 75
11, 170024, Channel_aftertouch_c, 2, 74
11, 170036, Channel_aftertouch_c, 2, 70
11, 170048, Channel_aftertouch_c, 2, 72
11, 170072, Channel_aftertouch_c, 2, 68
11, 170080, Channel_aftertouch_c, 2, 48
11, 170092, Channel_aftertouch_c, 2, 0
11, 170100, Note_on_c, 2, 73, 96
11, 170116, Note_on_c, 2, 76, 0
11, 170116, Channel_aftertouch_c, 2, 26
11, 170124, Channel_aftertouch_c, 2, 29
11, 170136, Channel_aftertouch_c, 2, 30
11, 170148, Channel_aftertouch_c, 2, 28
11, 170160, Channel_aftertouch_c, 2, 24
11, 170172, Channel_aftertouch_c, 2, 17
11, 170216, Channel_aftertouch_c, 2, 15
11, 170228, Channel_aftertouch_c, 2, 12
11, 170236, Channel_aftertouch_c, 2, 7
11, 170252, Channel_aftertouch_c, 2, 0
11, 170260, Channel_aftertouch_c, 2, 0
11, 170284, Note_on_c, 2, 69, 92
11, 170296, Channel_aftertouch_c, 2, 62
11, 170308, Channel_aftertouch_c, 2, 53
11, 170328, Channel_aftertouch_c, 2, 57
11, 170332, Note_on_c, 2, 73, 0
11, 170340, Channel_aftertouch_c, 2, 60
11, 170348, Channel_aftertouch_c, 2, 58
11, 170360, Channel_aftertouch_c, 2, 47
11, 170372, Channel_aftertouch_c, 2, 8
11, 170384, Channel_aftertouch_c, 2, 0
11, 170396, Note_on_c, 2, 73, 79
11, 170404, Note_on_c, 2, 69, 0
11, 170428, Note_on_c, 2, 73, 0
11, 170500, Note_on_c, 2, 71, 100
11, 170504, Channel_aftertouch_c, 2, 44
11, 170524, Channel_aftertouch_c, 2, 40
11, 170548, Channel_aftertouch_c, 2, 48
11, 170560, Channel_aftertouch_c, 2, 53
11, 170572, Channel_aftertouch_c, 2, 55
11, 170596, Channel_aftertouch_c, 2, 50
11, 170608, Channel_aftertouch_c, 2, 53
11, 170616, Channel_aftertouch_c, 2, 57
11, 170628, Channel_aftertouch_c, 2, 59
11, 170660, Channel_aftertouch_c, 2, 59
11, 170696, Channel_aftertouch_c, 2, 56
11, 170708, Channel_aftertouch_c, 2, 56
11, 170728, Channel_aftertouch_c, 2, 59
11, 170740, Channel_aftertouch_c, 2, 61
11, 170752, Channel_aftertouch_c, 2, 62
11, 170784, Channel_aftertouch_c, 2, 60
11, 170796, Channel_aftertouch_c, 2, 58
11, 170924, Channel_aftertouch_c, 2, 58
11, 170936, Channel_aftertouch_c, 2, 57
11, 170948, Channel_aftertouch_c, 2, 56
11, 170956, Channel_aftertouch_c, 2, 55
11, 170972, Channel_aftertouch_c, 2, 54
11, 170980, Channel_aftertouch_c, 2, 53
11, 170992, Channel_aftertouch_c, 2, 52
11, 171004, Channel_aftertouch_c, 2, 50
11, 171016, Channel_aftertouch_c, 2, 47
11, 171028, Channel_aftertouch_c, 2, 40
11, 171040, Channel_aftertouch_c, 2, 13
11, 171052, Channel_aftertouch_c, 2, 0
11, 171056, Note_on_c, 2, 73, 101
11, 171064, Channel_aftertouch_c, 2, 27
11, 171072, Note_on_c, 2, 71, 0
11, 171072, Channel_aftertouch_c, 2, 16
11, 171084, Channel_aftertouch_c, 2, 14
11, 171096, Channel_aftertouch_c, 2, 11
11, 171108, Channel_aftertouch_c, 2, 2
11, 171120, Channel_aftertouch_c, 2, 0
11, 171152, Note_on_c, 2, 71, 97
11, 171164, Note_on_c, 2, 73, 0
11, 171164, Channel_aftertouch_c, 2, 37
11, 171176, Channel_aftertouch_c, 2, 29
11, 171188, Channel_aftertouch_c, 2, 6
11, 171200, Channel_aftertouch_c, 2, 0
11, 171212, Note_on_c, 2, 71, 0
11, 171256, Note_on_c, 2, 69, 97
11, 171256, Channel_aftertouch_c, 2, 49
11, 171268, Channel_aftertouch_c, 2, 67
11, 171280, Channel_aftertouch_c, 2, 63
11, 171292, Channel_aftertouch_c, 2, 59
11, 171316, Channel_aftertouch_c, 2, 70
11, 171324, Channel_aftertouch_c, 2, 77
11, 171340, Channel_aftertouch_c, 2, 80
11, 171360, Channel_aftertouch_c, 2, 82
11, 171372, Channel_aftertouch_c, 2, 84
11, 171404, Channel_aftertouch_c, 2, 81
11, 171416, Channel_aftertouch_c, 2, 80
11, 171428, Channel_aftertouch_c, 2, 80
11, 171460, Channel_aftertouch_c, 2, 82
11, 171472, Channel_aftertouch_c, 2, 84
11, 171484, Channel_aftertouch_c, 2, 84
11, 171632, Channel_aftertouch_c, 2, 81
11, 171644, Channel_aftertouch_c, 2, 76
11, 171656, Channel_aftertouch_c, 2, 72
11, 171668, Channel_aftertouch_c, 2, 71
11, 171688, Channel_aftertouch_c, 2, 75
11, 171700, Channel_aftertouch_c, 2, 76
11, 171732, Channel_aftertouch_c, 2, 72
11, 171748, Channel_aftertouch_c, 2, 70
11, 171756, Channel_aftertouch_c, 2, 68
11, 171768, Channel_aftertouch_c, 2, 67
11, 171780, Channel_aftertouch_c, 2, 59
11, 171792, Channel_aftertouch_c, 2, 47
11, 171804, Channel_aftertouch_c, 2, 31
11, 171812, Channel_aftertouch_c, 2, 0
11, 171856, Note_on_c, 2, 69, 0
11, 171972, Note_on_c, 2, 81, 0
11, 172020, Note_on_c, 2, 74, 100
11, 172020, Note_on_c, 2, 81, 93
11, 172028, Note_on_c, 2, 81, 0
11, 172028, Note_on_c, 2, 74, 0
11, 172028, Note_on_c, 2, 81, 85
11, 172028, Note_on_c, 2, 76, 76
11, 172036, Channel_aftertouch_c, 2, 65
11, 172052, Channel_aftertouch_c, 2, 78
11, 172060, Channel_aftertouch_c, 2, 80
11, 172116, Channel_aftertouch_c, 2, 81
11, 172212, Channel_aftertouch_c, 2, 78
11, 172224, Channel_aftertouch_c, 2, 78
11, 172276, Channel_aftertouch_c, 2, 77
11, 172292, Channel_aftertouch_c, 2, 76
11, 172356, Channel_aftertouch_c, 2, 76
11, 172408, Channel_aftertouch_c, 2, 75
11, 172432, Channel_aftertouch_c, 2, 75
11, 172484, Channel_aftertouch_c, 2, 77
11, 172496, Channel_aftertouch_c, 2, 77
11, 172636, Channel_aftertouch_c, 2, 78
11, 172712, Channel_aftertouch_c, 2, 76
11, 172724, Channel_aftertouch_c, 2, 75
11, 172736, Channel_aftertouch_c, 2, 75
11, 172748, Channel_aftertouch_c, 2, 74
11, 172760, Channel_aftertouch_c, 2, 74
11, 172772, Channel_aftertouch_c, 2, 73
11, 172792, Channel_aftertouch_c, 2, 72
11, 172804, Channel_aftertouch_c, 2, 71
11, 172816, Channel_aftertouch_c, 2, 69
11, 172828, Channel_aftertouch_c, 2, 68
11, 172836, Channel_aftertouch_c, 2, 67
11, 172852, Channel_aftertouch_c, 2, 66
11, 172860, Channel_aftertouch_c, 2, 64
11, 172872, Channel_aftertouch_c, 2, 63
11, 172896, Channel_aftertouch_c, 2, 63
11, 172928, Channel_aftertouch_c, 2, 62
11, 172940, Channel_aftertouch_c, 2, 61
11, 173004, Channel_aftertouch_c, 2, 60
11, 173016, Channel_aftertouch_c, 2, 60
11, 173200, Channel_aftertouch_c, 2, 62
11, 173252, Channel_aftertouch_c, 2, 62
11, 173284, Channel_aftertouch_c, 2, 63
11, 173308, Channel_aftertouch_c, 2, 63
11, 173316, Channel_aftertouch_c, 2, 64
11, 173328, Channel_aftertouch_c, 2, 64
11, 173768, Channel_aftertouch_c, 2, 65
11, 173780, Channel_aftertouch_c, 2, 65
11, 173816, Control_c, 2, 1, 2
11, 173900, Channel_aftertouch_c, 2, 66
11, 173948, Control_c, 2, 1, 2
11, 174044, Control_c, 2, 1, 3
11, 174104, Channel_aftertouch_c, 2, 64
11, 174116, Channel_aftertouch_c, 2, 63
11, 174128, Channel_aftertouch_c, 2, 63
11, 174140, Channel_aftertouch_c, 2, 62
11, 174228, Channel_aftertouch_c, 2, 61
11, 174236, Channel_aftertouch_c, 2, 57
11, 174248, Channel_aftertouch_c, 2, 41
11, 174260, Channel_aftertouch_c, 2, 0
11, 174304, Note_on_c, 2, 76, 0
11, 174352, Control_c, 2, 1, 1
11, 174364, Control_c, 2, 1, 0
11, 174364, Note_on_c, 2, 76, 66
11, 174372, Channel_aftertouch_c, 2, 62
11, 174384, Note_on_c, 2, 78, 77
11, 174388, Channel_aftertouch_c, 2, 71
11, 174400, Channel_aftertouch_c, 2, 76
11, 174408, Channel_aftertouch_c, 2, 80
11, 174420, Channel_aftertouch_c, 2, 85
11, 174428, Control_c, 2, 1, 0
11, 174436, Channel_aftertouch_c, 2, 87
11, 174468, Channel_aftertouch_c, 2, 89
11, 174480, Channel_aftertouch_c, 2, 90
11, 174492, Channel_aftertouch_c, 2, 91
11, 174500, Channel_aftertouch_c, 2, 92
11, 174512, Channel_aftertouch_c, 2, 92
11, 174524, Channel_aftertouch_c, 2, 93
11, 174588, Channel_aftertouch_c, 2, 90
11, 174600, Channel_aftertouch_c, 2, 83
11, 174612, Channel_aftertouch_c, 2, 79
11, 174636, Channel_aftertouch_c, 2, 85
11, 174644, Channel_aftertouch_c, 2, 87
11, 174680, Channel_aftertouch_c, 2, 81
11, 174692, Channel_aftertouch_c, 2, 76
11, 174700, Channel_aftertouch_c, 2, 72
11, 174712, Channel_aftertouch_c, 2, 69
11, 174724, Channel_aftertouch_c, 2, 40
11, 174736, Channel_aftertouch_c, 2, 33
11, 174748, Channel_aftertouch_c, 2, 33
11, 174760, Channel_aftertouch_c, 2, 32
11, 174780, Channel_aftertouch_c, 2, 62
11, 174792, Channel_aftertouch_c, 2, 65
11, 174804, Channel_aftertouch_c, 2, 40
11, 174816, Channel_aftertouch_c, 2, 36
11, 174848, Channel_aftertouch_c, 2, 59
11, 174860, Channel_aftertouch_c, 2, 69
11, 174884, Channel_aftertouch_c, 2, 62
11, 174892, Channel_aftertouch_c, 2, 44
11, 174908, Channel_aftertouch_c, 2, 43
11, 174916, Channel_aftertouch_c, 2, 37
11, 174928, Channel_aftertouch_c, 2, 36
11, 174940, Channel_aftertouch_c, 2, 35
11, 174952, Channel_aftertouch_c, 2, 34
11, 174964, Note_on_c, 2, 76, 0
11, 174964, Channel_aftertouch_c, 2, 33
11, 174976, Channel_aftertouch_c, 2, 30
11, 174988, Channel_aftertouch_c, 2, 23
11, 175000, Channel_aftertouch_c, 2, 15
11, 175012, Channel_aftertouch_c, 2, 0
11, 175052, Note_on_c, 2, 78, 0
11, 175076, Note_on_c, 2, 76, 74
11, 175080, Channel_aftertouch_c, 2, 82
11, 175092, Channel_aftertouch_c, 2, 80
11, 175100, Channel_aftertouch_c, 2, 87
11, 175112, Channel_aftertouch_c, 2, 88
11, 175124, Channel_aftertouch_c, 2, 90
11, 175136, Channel_aftertouch_c, 2, 95
11, 175148, Channel_aftertouch_c, 2, 102
11, 175160, Channel_aftertouch_c, 2, 105
11, 175172, Channel_aftertouch_c, 2, 106
11, 175204, Channel_aftertouch_c, 2, 104
11, 175228, Channel_aftertouch_c, 2, 103
11, 175236, Channel_aftertouch_c, 2, 102
11, 175252, Channel_aftertouch_c, 2, 101
11, 175272, Channel_aftertouch_c, 2, 103
11, 175284, Channel_aftertouch_c, 2, 105
11, 175296, Channel_aftertouch_c, 2, 106
11, 175328, Channel_aftertouch_c, 2, 103
11, 175340, Channel_aftertouch_c, 2, 102
11, 175360, Channel_aftertouch_c, 2, 104
11, 175372, Channel_aftertouch_c, 2, 105
11, 175448, Channel_aftertouch_c, 2, 103
11, 175468, Channel_aftertouch_c, 2, 102
11, 175484, Channel_aftertouch_c, 2, 101
11, 175492, Channel_aftertouch_c, 2, 101
11, 175504, Channel_aftertouch_c, 2, 100
11, 175524, Channel_aftertouch_c, 2, 99
11, 175540, Channel_aftertouch_c, 2, 98
11, 175548, Channel_aftertouch_c, 2, 98
11, 175572, Channel_aftertouch_c, 2, 97
11, 175592, Channel_aftertouch_c, 2, 96
11, 175604, Channel_aftertouch_c, 2, 95
11, 175616, Channel_aftertouch_c, 2, 94
11, 175628, Channel_aftertouch_c, 2, 93
11, 175640, Channel_aftertouch_c, 2, 92
11, 175652, Channel_aftertouch_c, 2, 91
11, 175664, Channel_aftertouch_c, 2, 90
11, 175676, Channel_aftertouch_c, 2, 89
11, 175688, Channel_aftertouch_c, 2, 88
11, 175728, Channel_aftertouch_c, 2, 88
11, 175740, Channel_aftertouch_c, 2, 86
11, 175752, Channel_aftertouch_c, 2, 85
11, 175808, Channel_aftertouch_c, 2, 84
11, 175820, Channel_aftertouch_c, 2, 83
11, 175828, Channel_aftertouch_c, 2, 82
11, 175844, Channel_aftertouch_c, 2, 81
11, 175876, Channel_aftertouch_c, 2, 81
11, 175884, Channel_aftertouch_c, 2, 79
11, 175896, Channel_aftertouch_c, 2, 78
11, 175908, Channel_aftertouch_c, 2, 77
11, 175964, Channel_aftertouch_c, 2, 76
11, 175976, Channel_aftertouch_c, 2, 75
11, 175988, Channel_aftertouch_c, 2, 74
11, 175996, Channel_aftertouch_c, 2, 74
11, 176008, Channel_aftertouch_c, 2, 73
11, 176020, Channel_aftertouch_c, 2, 73
11, 176052, Channel_aftertouch_c, 2, 72
11, 176064, Channel_aftertouch_c, 2, 72
11, 176088, Channel_aftertouch_c, 2, 71
11, 176152, Channel_aftertouch_c, 2, 70
11, 176216, Channel_aftertouch_c, 2, 70
11, 176228, Channel_aftertouch_c, 2, 69
11, 176252, Channel_aftertouch_c, 2, 69
11, 176272, Channel_aftertouch_c, 2, 68
11, 176284, Channel_aftertouch_c, 2, 68
11, 176296, Channel_aftertouch_c, 2, 67
11, 176308, Channel_aftertouch_c, 2, 65
11, 176320, Channel_aftertouch_c, 2, 63
11, 176332, Channel_aftertouch_c, 2, 62
11, 176340, Channel_aftertouch_c, 2, 62
11, 176352, Channel_aftertouch_c, 2, 61
11, 176408, Channel_aftertouch_c, 2, 61
11, 176440, Channel_aftertouch_c, 2, 63
11, 176452, Channel_aftertouch_c, 2, 64
11, 176516, Channel_aftertouch_c, 2, 64
11, 176528, Channel_aftertouch_c, 2, 65
11, 176548, Channel_aftertouch_c, 2, 65
11, 176572, Channel_aftertouch_c, 2, 66
11, 176584, Channel_aftertouch_c, 2, 66
11, 176608, Channel_aftertouch_c, 2, 67
11, 176616, Channel_aftertouch_c, 2, 67
11, 176640, Channel_aftertouch_c, 2, 68
11, 176652, Channel_aftertouch_c, 2, 68
11, 176660, Channel_aftertouch_c, 2, 69
11, 176676, Channel_aftertouch_c, 2, 70
11, 176684, Channel_aftertouch_c, 2, 71
11, 176696, Channel_aftertouch_c, 2, 71
11, 176708, Channel_aftertouch_c, 2, 72
11, 176840, Channel_aftertouch_c, 2, 72
11, 176848, Channel_aftertouch_c, 2, 73
11, 176860, Channel_aftertouch_c, 2, 73
11, 177088, Control_c, 2, 1, 2
11, 177112, Control_c, 2, 1, 2
11, 177132, Control_c, 2, 1, 3
11, 177168, Control_c, 2, 1, 3
11, 177188, Control_c, 2, 1, 4
11, 177224, Control_c, 2, 1, 4
11, 177244, Channel_aftertouch_c, 2, 74
11, 177332, Control_c, 2, 1, 5
11, 177344, Control_c, 2, 1, 5
11, 177352, Channel_aftertouch_c, 2, 74
11, 177356, Control_c, 2, 1, 6
11, 177380, Control_c, 2, 1, 6
11, 177496, Control_c, 2, 1, 7
11, 177532, Control_c, 2, 1, 7
11, 177596, Control_c, 2, 1, 8
11, 177616, Control_c, 2, 1, 8
11, 177640, Control_c, 2, 1, 9
11, 177776, Channel_aftertouch_c, 2, 72
11, 177788, Channel_aftertouch_c, 2, 72
11, 177800, Channel_aftertouch_c, 2, 71
11, 177852, Channel_aftertouch_c, 2, 71
11, 177920, Channel_aftertouch_c, 2, 70
11, 177932, Channel_aftertouch_c, 2, 69
11, 177976, Channel_aftertouch_c, 2, 71
11, 177984, Channel_aftertouch_c, 2, 72
11, 178076, Control_c, 2, 1, 9
11, 178096, Channel_aftertouch_c, 2, 66
11, 178104, Channel_aftertouch_c, 2, 45
11, 178116, Channel_aftertouch_c, 2, 0
11, 178172, Channel_aftertouch_c, 2, 23
11, 178184, Channel_aftertouch_c, 2, 69
11, 178196, Channel_aftertouch_c, 2, 77
11, 178204, Channel_aftertouch_c, 2, 82
11, 178220, Channel_aftertouch_c, 2, 83
11, 178228, Channel_aftertouch_c, 2, 84
11, 178244, Channel_aftertouch_c, 2, 85
11, 178392, Channel_aftertouch_c, 2, 86
11, 178404, Channel_aftertouch_c, 2, 86
11, 178492, Control_c, 2, 1, 10
11, 178516, Control_c, 2, 1, 10
11, 178548, Control_c, 2, 1, 11
11, 178624, Control_c, 2, 1, 11
11, 178676, Control_c, 2, 1, 12
11, 178776, Control_c, 2, 1, 12
11, 178808, Control_c, 2, 1, 13
11, 178832, Control_c, 2, 1, 13
11, 178864, Control_c, 2, 1, 14
11, 178884, Control_c, 2, 1, 14
11, 178964, Control_c, 2, 1, 15
11, 178984, Control_c, 2, 1, 15
11, 179008, Control_c, 2, 1, 16
11, 179068, Channel_aftertouch_c, 2, 84
11, 179072, Control_c, 2, 1, 16
11, 179160, Control_c, 2, 1, 17
11, 179188, Channel_aftertouch_c, 2, 84
11, 179232, Channel_aftertouch_c, 2, 83
11, 179268, Control_c, 2, 1, 17
11, 179276, Channel_aftertouch_c, 2, 83
11, 179324, Channel_aftertouch_c, 2, 82
11, 179364, Channel_aftertouch_c, 2, 82
11, 179376, Channel_aftertouch_c, 2, 81
11, 179388, Channel_aftertouch_c, 2, 81
11, 179412, Channel_aftertouch_c, 2, 80
11, 179444, Channel_aftertouch_c, 2, 80
11, 179468, Channel_aftertouch_c, 2, 79
11, 179488, Channel_aftertouch_c, 2, 79
11, 179500, Channel_aftertouch_c, 2, 78
11, 179512, Channel_aftertouch_c, 2, 77
11, 179524, Channel_aftertouch_c, 2, 75
11, 179532, Channel_aftertouch_c, 2, 73
11, 179548, Channel_aftertouch_c, 2, 72
11, 179556, Channel_aftertouch_c, 2, 71
11, 179600, Channel_aftertouch_c, 2, 71
11, 179656, Channel_aftertouch_c, 2, 73
11, 179668, Channel_aftertouch_c, 2, 73
11, 179688, Channel_aftertouch_c, 2, 74
11, 179700, Channel_aftertouch_c, 2, 75
11, 179708, Channel_aftertouch_c, 2, 75
11, 179860, Channel_aftertouch_c, 2, 76
11, 179884, Channel_aftertouch_c, 2, 76
11, 179908, Channel_aftertouch_c, 2, 77
11, 179928, Channel_aftertouch_c, 2, 77
11, 180080, Control_c, 2, 1, 15
11, 180116, Control_c, 2, 1, 15
11, 180124, Channel_aftertouch_c, 2, 75
11, 180128, Control_c, 2, 1, 14
11, 180140, Control_c, 2, 1, 13
11, 180148, Channel_aftertouch_c, 2, 75
11, 180160, Channel_aftertouch_c, 2, 74
11, 180172, Channel_aftertouch_c, 2, 73
11, 180184, Channel_aftertouch_c, 2, 72
11, 180196, Channel_aftertouch_c, 2, 71
11, 180204, Channel_aftertouch_c, 2, 70
11, 180208, Control_c, 2, 1, 13
11, 180244, Control_c, 2, 1, 12
11, 180252, Channel_aftertouch_c, 2, 70
11, 180256, Control_c, 2, 1, 12
11, 180268, Control_c, 2, 1, 11
11, 180276, Channel_aftertouch_c, 2, 69
11, 180280, Control_c, 2, 1, 9
11, 180288, Channel_aftertouch_c, 2, 69
11, 180292, Control_c, 2, 1, 8
11, 180300, Channel_aftertouch_c, 2, 67
11, 180308, Control_c, 2, 1, 8
11, 180316, Channel_aftertouch_c, 2, 65
11, 180320, Control_c, 2, 1, 7
11, 180328, Channel_aftertouch_c, 2, 62
11, 180332, Control_c, 2, 1, 6
11, 180340, Channel_aftertouch_c, 2, 57
11, 180344, Control_c, 2, 1, 5
11, 180352, Channel_aftertouch_c, 2, 50
11, 180356, Control_c, 2, 1, 4
11, 180364, Channel_aftertouch_c, 2, 38
11, 180368, Control_c, 2, 1, 3
11, 180380, Channel_aftertouch_c, 2, 19
11, 180384, Control_c, 2, 1, 1
11, 180392, Channel_aftertouch_c, 2, 0
11, 180396, Control_c, 2, 1, 0
11, 180420, Note_on_c, 2, 76, 0
11, 180508, Note_on_c, 2, 78, 54
11, 180508, Note_on_c, 2, 76, 48
11, 180516, Channel_aftertouch_c, 2, 79
11, 180528, Channel_aftertouch_c, 2, 81
11, 180540, Channel_aftertouch_c, 2, 82
11, 180552, Channel_aftertouch_c, 2, 85
11, 180560, Channel_aftertouch_c, 2, 88
11, 180572, Channel_aftertouch_c, 2, 89
11, 180628, Channel_aftertouch_c, 2, 87
11, 180636, Channel_aftertouch_c, 2, 86
11, 180652, Channel_aftertouch_c, 2, 85
11, 180660, Channel_aftertouch_c, 2, 83
11, 180672, Channel_aftertouch_c, 2, 82
11, 180696, Channel_aftertouch_c, 2, 85
11, 180708, Channel_aftertouch_c, 2, 87
11, 180720, Channel_aftertouch_c, 2, 87
11, 180752, Channel_aftertouch_c, 2, 85
11, 180764, Channel_aftertouch_c, 2, 83
11, 180776, Channel_aftertouch_c, 2, 79
11, 180788, Channel_aftertouch_c, 2, 77
11, 180840, Channel_aftertouch_c, 2, 80
11, 180852, Channel_aftertouch_c, 2, 81
11, 180864, Channel_aftertouch_c, 2, 82
11, 180876, Channel_aftertouch_c, 2, 82
11, 180884, Channel_aftertouch_c, 2, 83
11, 180908, Channel_aftertouch_c, 2, 83
11, 180964, Channel_aftertouch_c, 2, 81
11, 180976, Channel_aftertouch_c, 2, 80
11, 181004, Channel_aftertouch_c, 2, 79
11, 181020, Channel_aftertouch_c, 2, 78
11, 181028, Channel_aftertouch_c, 2, 78
11, 181040, Channel_aftertouch_c, 2, 77
11, 181052, Channel_aftertouch_c, 2, 75
11, 181064, Channel_aftertouch_c, 2, 74
11, 181076, Channel_aftertouch_c, 2, 73
11, 181084, Channel_aftertouch_c, 2, 72
11, 181100, Channel_aftertouch_c, 2, 69
11, 181112, Channel_aftertouch_c, 2, 65
11, 181124, Channel_aftertouch_c, 2, 53
11, 181132, Channel_aftertouch_c, 2, 29
11, 181144, Note_on_c, 2, 78, 0
11, 181148, Channel_aftertouch_c, 2, 0
11, 181180, Note_on_c, 2, 76, 0
11, 181180, Note_on_c, 2, 81, 0
11, 181208, Note_on_c, 2, 76, 18
11, 181212, Note_on_c, 2, 81, 45
11, 181220, Channel_aftertouch_c, 2, 20
11, 181232, Channel_aftertouch_c, 2, 64
11, 181244, Channel_aftertouch_c, 2, 67
11, 181264, Channel_aftertouch_c, 2, 68
11, 181276, Channel_aftertouch_c, 2, 70
11, 181288, Channel_aftertouch_c, 2, 72
11, 181300, Channel_aftertouch_c, 2, 74
11, 181312, Channel_aftertouch_c, 2, 75
11, 181324, Channel_aftertouch_c, 2, 77
11, 181332, Channel_aftertouch_c, 2, 77
11, 181348, Channel_aftertouch_c, 2, 78
11, 181388, Channel_aftertouch_c, 2, 78
11, 181464, Channel_aftertouch_c, 2, 76
11, 181496, Channel_aftertouch_c, 2, 75
11, 181508, Channel_aftertouch_c, 2, 74
11, 181520, Channel_aftertouch_c, 2, 72
11, 181532, Channel_aftertouch_c, 2, 70
11, 181576, Channel_aftertouch_c, 2, 69
11, 181596, Channel_aftertouch_c, 2, 73
11, 181620, Channel_aftertouch_c, 2, 67
11, 181632, Channel_aftertouch_c, 2, 58
11, 181644, Channel_aftertouch_c, 2, 52
11, 181676, Channel_aftertouch_c, 2, 0
11, 181740, Channel_aftertouch_c, 2, 7
11, 181752, Channel_aftertouch_c, 2, 32
11, 181764, Channel_aftertouch_c, 2, 45
11, 181776, Channel_aftertouch_c, 2, 52
11, 181796, Channel_aftertouch_c, 2, 48
11, 181812, Channel_aftertouch_c, 2, 45
11, 181820, Channel_aftertouch_c, 2, 48
11, 181832, Channel_aftertouch_c, 2, 52
11, 181844, Channel_aftertouch_c, 2, 54
11, 181852, Channel_aftertouch_c, 2, 55
11, 181876, Channel_aftertouch_c, 2, 50
11, 181888, Channel_aftertouch_c, 2, 50
11, 181912, Channel_aftertouch_c, 2, 48
11, 181924, Channel_aftertouch_c, 2, 43
11, 181936, Channel_aftertouch_c, 2, 22
11, 181944, Channel_aftertouch_c, 2, 0
11, 181956, Channel_aftertouch_c, 2, 0
11, 181988, Channel_aftertouch_c, 2, 24
11, 182004, Channel_aftertouch_c, 2, 50
11, 182012, Channel_aftertouch_c, 2, 59
11, 182020, Note_on_c, 2, 85, 30
11, 182028, Channel_aftertouch_c, 2, 63
11, 182036, Channel_aftertouch_c, 2, 68
11, 182048, Channel_aftertouch_c, 2, 70
11, 182060, Channel_aftertouch_c, 2, 71
11, 182072, Channel_aftertouch_c, 2, 73
11, 182084, Channel_aftertouch_c, 2, 75
11, 182096, Channel_aftertouch_c, 2, 77
11, 182108, Channel_aftertouch_c, 2, 78
11, 182116, Channel_aftertouch_c, 2, 80
11, 182140, Channel_aftertouch_c, 2, 78
11, 182152, Channel_aftertouch_c, 2, 77
11, 182196, Channel_aftertouch_c, 2, 77
11, 182248, Channel_aftertouch_c, 2, 81
11, 182260, Channel_aftertouch_c, 2, 82
11, 182272, Channel_aftertouch_c, 2, 84
11, 182284, Channel_aftertouch_c, 2, 86
11, 182296, Channel_aftertouch_c, 2, 88
11, 182308, Channel_aftertouch_c, 2, 89
11, 182316, Channel_aftertouch_c, 2, 91
11, 182332, Channel_aftertouch_c, 2, 92
11, 182340, Channel_aftertouch_c, 2, 93
11, 182352, Channel_aftertouch_c, 2, 94
11, 182364, Channel_aftertouch_c, 2, 95
11, 182376, Channel_aftertouch_c, 2, 96
11, 182388, Channel_aftertouch_c, 2, 97
11, 182396, Channel_aftertouch_c, 2, 97
11, 182412, Channel_aftertouch_c, 2, 98
11, 182420, Channel_aftertouch_c, 2, 98
11, 182432, Channel_aftertouch_c, 2, 99
11, 182444, Channel_aftertouch_c, 2, 99
11, 182552, Channel_aftertouch_c, 2, 97
11, 182564, Channel_aftertouch_c, 2, 97
11, 182616, Channel_aftertouch_c, 2, 95
11, 182628, Channel_aftertouch_c, 2, 94
11, 182696, Channel_aftertouch_c, 2, 96
11, 182704, Channel_aftertouch_c, 2, 97
11, 182716, Channel_aftertouch_c, 2, 98
11, 182748, Channel_aftertouch_c, 2, 99
11, 182772, Channel_aftertouch_c, 2, 99
11, 182804, Channel_aftertouch_c, 2, 100
11, 182816, Channel_aftertouch_c, 2, 100
11, 182960, Control_c, 2, 1, 2
11, 182972, Control_c, 2, 1, 2
11, 182996, Control_c, 2, 1, 3
11, 183016, Control_c, 2, 1, 3
11, 183040, Control_c, 2, 1, 4
11, 183060, Control_c, 2, 1, 4
11, 183084, Control_c, 2, 1, 5
11, 183096, Control_c, 2, 1, 5
11, 183104, Channel_aftertouch_c, 2, 98
11, 183128, Control_c, 2, 1, 6
11, 183164, Control_c, 2, 1, 6
11, 183196, Control_c, 2, 1, 7
11, 183216, Control_c, 2, 1, 7
11, 183260, Control_c, 2, 1, 8
11, 183292, Control_c, 2, 1, 8
11, 183328, Control_c, 2, 1, 9
11, 183360, Control_c, 2, 1, 9
11, 183392, Control_c, 2, 1, 10
11, 183412, Channel_aftertouch_c, 2, 100
11, 183436, Control_c, 2, 1, 10
11, 183448, Control_c, 2, 1, 11
11, 183484, Control_c, 2, 1, 11
11, 183492, Control_c, 2, 1, 12
11, 183528, Control_c, 2, 1, 12
11, 183552, Control_c, 2, 1, 13
11, 183572, Control_c, 2, 1, 13
11, 183604, Control_c, 2, 1, 14
11, 183656, Channel_aftertouch_c, 2, 98
11, 183660, Control_c, 2, 1, 14
11, 183668, Channel_aftertouch_c, 2, 98
11, 183700, Channel_aftertouch_c, 2, 97
11, 183712, Channel_aftertouch_c, 2, 97
11, 183724, Channel_aftertouch_c, 2, 96
11, 183820, Channel_aftertouch_c, 2, 98
11, 183888, Channel_aftertouch_c, 2, 99
11, 183896, Channel_aftertouch_c, 2, 100
11, 183920, Channel_aftertouch_c, 2, 100
11, 183932, Channel_aftertouch_c, 2, 101
11, 184020, Channel_aftertouch_c, 2, 99
11, 184032, Channel_aftertouch_c, 2, 97
11, 184044, Channel_aftertouch_c, 2, 95
11, 184052, Channel_aftertouch_c, 2, 91
11, 184068, Channel_aftertouch_c, 2, 83
11, 184076, Channel_aftertouch_c, 2, 70
11, 184088, Channel_aftertouch_c, 2, 39
11, 184100, Channel_aftertouch_c, 2, 0
11, 184104, Note_on_c, 2, 85, 0
11, 184116, Note_on_c, 2, 81, 0
11, 184132, Note_on_c, 2, 76, 0
11, 184328, Note_on_c, 2, 81, 28
11, 184332, Note_on_c, 2, 76, 27
11, 184340, Channel_aftertouch_c, 2, 57
11, 184356, Channel_aftertouch_c, 2, 73
11, 184364, Channel_aftertouch_c, 2, 76
11, 184388, Channel_aftertouch_c, 2, 78
11, 184400, Channel_aftertouch_c, 2, 81
11, 184412, Channel_aftertouch_c, 2, 84
11, 184420, Channel_aftertouch_c, 2, 85
11, 184436, Channel_aftertouch_c, 2, 86
11, 184444, Channel_aftertouch_c, 2, 87
11, 184456, Channel_aftertouch_c, 2, 87
11, 184468, Channel_aftertouch_c, 2, 88
11, 184480, Channel_aftertouch_c, 2, 88
11, 184492, Channel_aftertouch_c, 2, 89
11, 184556, Channel_aftertouch_c, 2, 89
11, 184580, Channel_aftertouch_c, 2, 90
11, 184632, Channel_aftertouch_c, 2, 90
11, 184644, Channel_aftertouch_c, 2, 91
11, 184688, Channel_aftertouch_c, 2, 89
11, 184752, Channel_aftertouch_c, 2, 88
11, 184764, Channel_aftertouch_c, 2, 88
11, 184772, Channel_aftertouch_c, 2, 87
11, 184788, Channel_aftertouch_c, 2, 87
11, 184820, Channel_aftertouch_c, 2, 86
11, 184864, Channel_aftertouch_c, 2, 85
11, 184872, Channel_aftertouch_c, 2, 84
11, 184884, Channel_aftertouch_c, 2, 83
11, 184896, Channel_aftertouch_c, 2, 83
11, 184908, Channel_aftertouch_c, 2, 82
11, 184920, Channel_aftertouch_c, 2, 80
11, 184932, Channel_aftertouch_c, 2, 80
11, 184944, Channel_aftertouch_c, 2, 79
11, 184956, Channel_aftertouch_c, 2, 78
11, 184964, Channel_aftertouch_c, 2, 76
11, 184976, Channel_aftertouch_c, 2, 75
11, 184988, Channel_aftertouch_c, 2, 73
11, 185000, Channel_aftertouch_c, 2, 73
11, 185012, Channel_aftertouch_c, 2, 71
11, 185024, Channel_aftertouch_c, 2, 69
11, 185036, Channel_aftertouch_c, 2, 67
11, 185044, Channel_aftertouch_c, 2, 65
11, 185060, Channel_aftertouch_c, 2, 64
11, 185112, Channel_aftertouch_c, 2, 62
11, 185124, Channel_aftertouch_c, 2, 61
11, 185132, Channel_aftertouch_c, 2, 60
11, 185148, Channel_aftertouch_c, 2, 59
11, 185244, Channel_aftertouch_c, 2, 59
11, 185252, Channel_aftertouch_c, 2, 57
11, 185308, Channel_aftertouch_c, 2, 57
11, 185320, Channel_aftertouch_c, 2, 56
11, 185384, Channel_aftertouch_c, 2, 58
11, 185420, Channel_aftertouch_c, 2, 56
11, 185452, Channel_aftertouch_c, 2, 56
11, 185460, Channel_aftertouch_c, 2, 55
11, 185472, Channel_aftertouch_c, 2, 54
11, 185484, Channel_aftertouch_c, 2, 54
11, 185564, Channel_aftertouch_c, 2, 53
11, 185572, Channel_aftertouch_c, 2, 52
11, 185584, Channel_aftertouch_c, 2, 51
11, 185596, Channel_aftertouch_c, 2, 50
11, 185604, Channel_aftertouch_c, 2, 48
11, 185620, Channel_aftertouch_c, 2, 46
11, 185628, Channel_aftertouch_c, 2, 45
11, 185664, Channel_aftertouch_c, 2, 47
11, 185696, Channel_aftertouch_c, 2, 43
11, 185708, Channel_aftertouch_c, 2, 41
11, 185748, Channel_aftertouch_c, 2, 43
11, 185760, Channel_aftertouch_c, 2, 44
11, 185772, Channel_aftertouch_c, 2, 44
11, 185784, Channel_aftertouch_c, 2, 45
11, 185820, Channel_aftertouch_c, 2, 42
11, 185828, Channel_aftertouch_c, 2, 39
11, 185852, Channel_aftertouch_c, 2, 41
11, 185864, Channel_aftertouch_c, 2, 42
11, 185876, Channel_aftertouch_c, 2, 43
11, 185888, Channel_aftertouch_c, 2, 44
11, 185920, Channel_aftertouch_c, 2, 42
11, 185940, Channel_aftertouch_c, 2, 44
11, 185952, Channel_aftertouch_c, 2, 45
11, 185996, Channel_aftertouch_c, 2, 43
11, 186020, Channel_aftertouch_c, 2, 42
11, 186028, Channel_aftertouch_c, 2, 41
11, 186044, Channel_aftertouch_c, 2, 41
11, 186084, Channel_aftertouch_c, 2, 39
11, 186096, Channel_aftertouch_c, 2, 37
11, 186108, Channel_aftertouch_c, 2, 34
11, 186120, Channel_aftertouch_c, 2, 33
11, 186132, Channel_aftertouch_c, 2, 32
11, 186156, Channel_aftertouch_c, 2, 31
11, 186164, Channel_aftertouch_c, 2, 29
11, 186176, Channel_aftertouch_c, 2, 27
11, 186188, Channel_aftertouch_c, 2, 26
11, 186200, Channel_aftertouch_c, 2, 25
11, 186252, Channel_aftertouch_c, 2, 25
11, 186264, Channel_aftertouch_c, 2, 22
11, 186276, Channel_aftertouch_c, 2, 21
11, 186300, Channel_aftertouch_c, 2, 23
11, 186308, Channel_aftertouch_c, 2, 25
11, 186320, Channel_aftertouch_c, 2, 28
11, 186332, Channel_aftertouch_c, 2, 31
11, 186344, Channel_aftertouch_c, 2, 34
11, 186356, Channel_aftertouch_c, 2, 36
11, 186368, Channel_aftertouch_c, 2, 38
11, 186400, Channel_aftertouch_c, 2, 38
11, 186412, Channel_aftertouch_c, 2, 40
11, 186424, Channel_aftertouch_c, 2, 41
11, 186456, Channel_aftertouch_c, 2, 41
11, 186468, Channel_aftertouch_c, 2, 42
11, 186480, Channel_aftertouch_c, 2, 43
11, 186492, Channel_aftertouch_c, 2, 44
11, 186544, Channel_aftertouch_c, 2, 44
11, 186556, Channel_aftertouch_c, 2, 45
11, 186568, Channel_aftertouch_c, 2, 45
11, 186620, Channel_aftertouch_c, 2, 46
11, 186668, Channel_aftertouch_c, 2, 46
11, 186676, Channel_aftertouch_c, 2, 47
11, 186752, Channel_aftertouch_c, 2, 47
11, 186764, Channel_aftertouch_c, 2, 48
11, 186828, Channel_aftertouch_c, 2, 48
11, 186840, Channel_aftertouch_c, 2, 49
11, 186980, Channel_aftertouch_c, 2, 49
11, 187044, Channel_aftertouch_c, 2, 50
11, 187068, Channel_aftertouch_c, 2, 50
11, 187108, Channel_aftertouch_c, 2, 51
11, 187124, Channel_aftertouch_c, 2, 51
11, 187188, Channel_aftertouch_c, 2, 52
11, 187264, Channel_aftertouch_c, 2, 52
11, 187316, Channel_aftertouch_c, 2, 53
11, 187392, Channel_aftertouch_c, 2, 53
11, 187480, Channel_aftertouch_c, 2, 54
11, 187532, Channel_aftertouch_c, 2, 54
11, 187608, Channel_aftertouch_c, 2, 55
11, 187736, Channel_aftertouch_c, 2, 55
11, 187824, Channel_aftertouch_c, 2, 56
11, 187900, Channel_aftertouch_c, 2, 56
11, 187964, Channel_aftertouch_c, 2, 57
11, 188840, Channel_aftertouch_c, 2, 55
11, 188852, Channel_aftertouch_c, 2, 50
11, 188864, Channel_aftertouch_c, 2, 20
11, 188872, Channel_aftertouch_c, 2, 0
11, 188908, Channel_aftertouch_c, 2, 15
11, 188916, Channel_aftertouch_c, 2, 47
11, 188932, Channel_aftertouch_c, 2, 60
11, 188940, Channel_aftertouch_c, 2, 64
11, 188944, Note_on_c, 2, 78, 8
11, 188948, Channel_aftertouch_c, 2, 81
11, 188964, Channel_aftertouch_c, 2, 74
11, 188972, Channel_aftertouch_c, 2, 67
11, 188988, Channel_aftertouch_c, 2, 71
11, 188996, Channel_aftertouch_c, 2, 75
11, 189008, Channel_aftertouch_c, 2, 76
11, 189028, Channel_aftertouch_c, 2, 74
11, 189040, Channel_aftertouch_c, 2, 76
11, 189052, Channel_aftertouch_c, 2, 77
11, 189084, Channel_aftertouch_c, 2, 75
11, 189108, Channel_aftertouch_c, 2, 79
11, 189120, Channel_aftertouch_c, 2, 81
11, 189132, Channel_aftertouch_c, 2, 82
11, 189140, Channel_aftertouch_c, 2, 83
11, 189228, Channel_aftertouch_c, 2, 84
11, 189240, Channel_aftertouch_c, 2, 84
11, 189252, Channel_aftertouch_c, 2, 85
11, 189276, Channel_aftertouch_c, 2, 86
11, 189284, Channel_aftertouch_c, 2, 87
11, 189296, Channel_aftertouch_c, 2, 88
11, 189308, Channel_aftertouch_c, 2, 89
11, 189320, Channel_aftertouch_c, 2, 90
11, 189332, Channel_aftertouch_c, 2, 91
11, 189420, Channel_aftertouch_c, 2, 89
11, 189440, Channel_aftertouch_c, 2, 88
11, 189492, Channel_aftertouch_c, 2, 87
11, 189504, Channel_aftertouch_c, 2, 83
11, 189516, Channel_aftertouch_c, 2, 76
11, 189528, Channel_aftertouch_c, 2, 74
11, 189540, Channel_aftertouch_c, 2, 76
11, 189564, Channel_aftertouch_c, 2, 61
11, 189572, Channel_aftertouch_c, 2, 14
11, 189604, Note_on_c, 2, 76, 0
11, 189640, Channel_aftertouch_c, 2, 13
11, 189652, Channel_aftertouch_c, 2, 12
11, 189664, Channel_aftertouch_c, 2, 11
11, 189676, Channel_aftertouch_c, 2, 6
11, 189688, Channel_aftertouch_c, 2, 0
11, 189708, Note_on_c, 2, 78, 0
11, 189708, Note_on_c, 2, 76, 3
11, 189712, Channel_aftertouch_c, 2, 74
11, 189724, Channel_aftertouch_c, 2, 80
11, 189748, Channel_aftertouch_c, 2, 81
11, 189756, Channel_aftertouch_c, 2, 86
11, 189768, Channel_aftertouch_c, 2, 90
11, 189836, Channel_aftertouch_c, 2, 90
11, 189844, Channel_aftertouch_c, 2, 91
11, 189856, Channel_aftertouch_c, 2, 92
11, 189868, Channel_aftertouch_c, 2, 92
11, 189924, Channel_aftertouch_c, 2, 93
11, 189936, Channel_aftertouch_c, 2, 93
11, 189956, Channel_aftertouch_c, 2, 94
11, 190032, Channel_aftertouch_c, 2, 91
11, 190056, Channel_aftertouch_c, 2, 90
11, 190076, Channel_aftertouch_c, 2, 90
11, 190088, Channel_aftertouch_c, 2, 89
11, 190100, Channel_aftertouch_c, 2, 86
11, 190112, Channel_aftertouch_c, 2, 85
11, 190132, Channel_aftertouch_c, 2, 83
11, 190144, Channel_aftertouch_c, 2, 82
11, 190164, Channel_aftertouch_c, 2, 81
11, 190176, Channel_aftertouch_c, 2, 79
11, 190188, Channel_aftertouch_c, 2, 77
11, 190256, Channel_aftertouch_c, 2, 75
11, 190264, Channel_aftertouch_c, 2, 74
11, 190276, Channel_aftertouch_c, 2, 70
11, 190288, Channel_aftertouch_c, 2, 68
11, 190300, Channel_aftertouch_c, 2, 64
11, 190312, Channel_aftertouch_c, 2, 61
11, 190324, Channel_aftertouch_c, 2, 51
11, 190336, Channel_aftertouch_c, 2, 5
11, 190348, Channel_aftertouch_c, 2, 0
11, 190368, Note_on_c, 2, 76, 0
11, 190380, Note_on_c, 2, 81, 0
11, 190448, Note_on_c, 2, 81, 1
11, 190452, Note_on_c, 2, 76, 1
11, 190460, Note_on_c, 2, 76, 0
11, 190460, Note_on_c, 2, 81, 0
11, 190460, End_track
12, 0, Start_track
12, 0, MIDI_port, 0
12, 0, Title_t, "Marimba"
12, 0, Program_c, 1, 12
12, 0, Control_c, 1, 7, 85
12, 3072, Note_on_c, 1, 67, 100
12, 3072, Note_on_c, 1, 59, 104
12, 3072, Note_on_c, 1, 62, 104
12, 3108, Channel_aftertouch_c, 1, 69
12, 3120, Channel_aftertouch_c, 1, 41
12, 3128, Channel_aftertouch_c, 1, 0
12, 3196, Note_on_c, 1, 59, 0
12, 3200, Note_on_c, 1, 62, 0
12, 3200, Note_on_c, 1, 67, 0
12, 3456, Note_on_c, 1, 67, 108
12, 3456, Note_on_c, 1, 62, 104
12, 3456, Note_on_c, 1, 59, 108
12, 3488, Channel_aftertouch_c, 1, 81
12, 3504, Channel_aftertouch_c, 1, 75
12, 3512, Channel_aftertouch_c, 1, 52
12, 3524, Channel_aftertouch_c, 1, 41
12, 3548, Channel_aftertouch_c, 1, 25
12, 3560, Channel_aftertouch_c, 1, 0
12, 3584, Note_on_c, 1, 62, 0
12, 3592, Note_on_c, 1, 59, 0
12, 3592, Note_on_c, 1, 67, 0
12, 3840, Note_on_c, 1, 67, 85
12, 3840, Note_on_c, 1, 64, 92
12, 3840, Note_on_c, 1, 59, 96
12, 3852, Channel_aftertouch_c, 1, 72
12, 3860, Channel_aftertouch_c, 1, 76
12, 3876, Channel_aftertouch_c, 1, 77
12, 3888, Channel_aftertouch_c, 1, 79
12, 3896, Channel_aftertouch_c, 1, 80
12, 3908, Channel_aftertouch_c, 1, 76
12, 3920, Channel_aftertouch_c, 1, 69
12, 3932, Channel_aftertouch_c, 1, 66
12, 3944, Channel_aftertouch_c, 1, 50
12, 3956, Channel_aftertouch_c, 1, 6
12, 3968, Channel_aftertouch_c, 1, 0
12, 4024, Note_on_c, 1, 59, 0
12, 4024, Note_on_c, 1, 67, 0
12, 4036, Note_on_c, 1, 64, 0
12, 4224, Note_on_c, 1, 59, 104
12, 4224, Note_on_c, 1, 67, 104
12, 4224, Note_on_c, 1, 64, 100
12, 4232, Channel_aftertouch_c, 1, 41
12, 4244, Channel_aftertouch_c, 1, 77
12, 4256, Channel_aftertouch_c, 1, 75
12, 4268, Channel_aftertouch_c, 1, 68
12, 4276, Channel_aftertouch_c, 1, 65
12, 4300, Channel_aftertouch_c, 1, 61
12, 4312, Channel_aftertouch_c, 1, 49
12, 4324, Channel_aftertouch_c, 1, 39
12, 4336, Channel_aftertouch_c, 1, 0
12, 4376, Note_on_c, 1, 64, 0
12, 4384, Note_on_c, 1, 67, 0
12, 4384, Note_on_c, 1, 59, 0
12, 4608, Note_on_c, 1, 62, 100
12, 4608, Note_on_c, 1, 57, 108
12, 4608, Note_on_c, 1, 67, 104
12, 4636, Channel_aftertouch_c, 1, 85
12, 4648, Channel_aftertouch_c, 1, 86
12, 4656, Channel_aftertouch_c, 1, 79
12, 4672, Channel_aftertouch_c, 1, 78
12, 4680, Channel_aftertouch_c, 1, 77
12, 4692, Channel_aftertouch_c, 1, 72
12, 4704, Channel_aftertouch_c, 1, 60
12, 4716, Channel_aftertouch_c, 1, 35
12, 4728, Channel_aftertouch_c, 1, 0
12, 4768, Note_on_c, 1, 62, 0
12, 4776, Note_on_c, 1, 67, 0
12, 4788, Note_on_c, 1, 57, 0
12, 4992, Note_on_c, 1, 67, 104
12, 4992, Note_on_c, 1, 57, 104
12, 4992, Note_on_c, 1, 62, 108
12, 5024, Channel_aftertouch_c, 1, 39
12, 5036, Channel_aftertouch_c, 1, 80
12, 5048, Channel_aftertouch_c, 1, 73
12, 5060, Channel_aftertouch_c, 1, 69
12, 5072, Channel_aftertouch_c, 1, 66
12, 5080, Channel_aftertouch_c, 1, 60
12, 5096, Channel_aftertouch_c, 1, 45
12, 5104, Channel_aftertouch_c, 1, 14
12, 5116, Channel_aftertouch_c, 1, 0
12, 5136, Note_on_c, 1, 57, 0
12, 5148, Note_on_c, 1, 62, 0
12, 5152, Note_on_c, 1, 67, 0
12, 5376, Note_on_c, 1, 64, 96
12, 5376, Note_on_c, 1, 60, 104
12, 5376, Note_on_c, 1, 67, 108
12, 5408, Channel_aftertouch_c, 1, 71
12, 5416, Channel_aftertouch_c, 1, 66
12, 5432, Channel_aftertouch_c, 1, 48
12, 5440, Channel_aftertouch_c, 1, 43
12, 5456, Channel_aftertouch_c, 1, 41
12, 5464, Channel_aftertouch_c, 1, 29
12, 5476, Channel_aftertouch_c, 1, 0
12, 5520, Note_on_c, 1, 67, 0
12, 5520, Note_on_c, 1, 64, 0
12, 5524, Note_on_c, 1, 60, 0
12, 5760, Note_on_c, 1, 67, 104
12, 5760, Note_on_c, 1, 64, 104
12, 5760, Note_on_c, 1, 60, 108
12, 5776, Channel_aftertouch_c, 1, 31
12, 5788, Channel_aftertouch_c, 1, 75
12, 5800, Channel_aftertouch_c, 1, 69
12, 5808, Channel_aftertouch_c, 1, 64
12, 5824, Channel_aftertouch_c, 1, 64
12, 5844, Channel_aftertouch_c, 1, 56
12, 5856, Channel_aftertouch_c, 1, 44
12, 5868, Channel_aftertouch_c, 1, 35
12, 5880, Channel_aftertouch_c, 1, 0
12, 5920, Note_on_c, 1, 67, 0
12, 5924, Note_on_c, 1, 60, 0
12, 5928, Note_on_c, 1, 64, 0
12, 6144, Note_on_c, 1, 67, 104
12, 6144, Note_on_c, 1, 62, 104
12, 6144, Note_on_c, 1, 59, 104
12, 6152, Channel_aftertouch_c, 1, 77
12, 6164, Channel_aftertouch_c, 1, 66
12, 6176, Channel_aftertouch_c, 1, 71
12, 6188, Channel_aftertouch_c, 1, 57
12, 6200, Channel_aftertouch_c, 1, 53
12, 6212, Channel_aftertouch_c, 1, 56
12, 6224, Channel_aftertouch_c, 1, 56
12, 6236, Channel_aftertouch_c, 1, 54
12, 6248, Channel_aftertouch_c, 1, 52
12, 6260, Channel_aftertouch_c, 1, 34
12, 6272, Channel_aftertouch_c, 1, 0
12, 6308, Note_on_c, 1, 59, 0
12, 6308, Note_on_c, 1, 62, 0
12, 6316, Note_on_c, 1, 67, 0
12, 6528, Note_on_c, 1, 67, 104
12, 6528, Note_on_c, 1, 59, 108
12, 6528, Note_on_c, 1, 62, 108
12, 6544, Channel_aftertouch_c, 1, 3
12, 6556, Channel_aftertouch_c, 1, 72
12, 6580, Channel_aftertouch_c, 1, 73
12, 6592, Channel_aftertouch_c, 1, 75
12, 6612, Channel_aftertouch_c, 1, 71
12, 6624, Channel_aftertouch_c, 1, 67
12, 6636, Channel_aftertouch_c, 1, 66
12, 6648, Channel_aftertouch_c, 1, 62
12, 6660, Channel_aftertouch_c, 1, 50
12, 6672, Channel_aftertouch_c, 1, 28
12, 6684, Channel_aftertouch_c, 1, 0
12, 6704, Note_on_c, 1, 67, 0
12, 6712, Note_on_c, 1, 62, 0
12, 6712, Note_on_c, 1, 59, 0
12, 6912, Note_on_c, 1, 64, 96
12, 6912, Note_on_c, 1, 67, 104
12, 6912, Note_on_c, 1, 59, 108
12, 6924, Channel_aftertouch_c, 1, 46
12, 6936, Channel_aftertouch_c, 1, 77
12, 6948, Channel_aftertouch_c, 1, 78
12, 6960, Channel_aftertouch_c, 1, 69
12, 6972, Channel_aftertouch_c, 1, 66
12, 6996, Channel_aftertouch_c, 1, 65
12, 7008, Channel_aftertouch_c, 1, 60
12, 7016, Channel_aftertouch_c, 1, 50
12, 7032, Channel_aftertouch_c, 1, 20
12, 7040, Channel_aftertouch_c, 1, 0
12, 7072, Note_on_c, 1, 67, 0
12, 7072, Note_on_c, 1, 64, 0
12, 7080, Note_on_c, 1, 59, 0
12, 7296, Note_on_c, 1, 59, 104
12, 7296, Note_on_c, 1, 67, 108
12, 7296, Note_on_c, 1, 64, 104
12, 7312, Channel_aftertouch_c, 1, 40
12, 7324, Channel_aftertouch_c, 1, 82
12, 7344, Channel_aftertouch_c, 1, 80
12, 7380, Channel_aftertouch_c, 1, 79
12, 7388, Channel_aftertouch_c, 1, 73
12, 7400, Channel_aftertouch_c, 1, 68
12, 7416, Channel_aftertouch_c, 1, 51
12, 7424, Channel_aftertouch_c, 1, 0
12, 7452, Note_on_c, 1, 64, 0
12, 7452, Note_on_c, 1, 67, 0
12, 7456, Note_on_c, 1, 59, 0
12, 7680, Note_on_c, 1, 62, 108
12, 7680, Note_on_c, 1, 67, 104
12, 7680, Note_on_c, 1, 57, 108
12, 7688, Channel_aftertouch_c, 1, 25
12, 7700, Channel_aftertouch_c, 1, 58
12, 7712, Channel_aftertouch_c, 1, 41
12, 7724, Channel_aftertouch_c, 1, 0
12, 7804, Note_on_c, 1, 67, 0
12, 7804, Note_on_c, 1, 62, 0
12, 7812, Note_on_c, 1, 57, 0
12, 8064, Note_on_c, 1, 62, 108
12, 8064, Note_on_c, 1, 67, 108
12, 8064, Note_on_c, 1, 57, 113
12, 8068, Channel_aftertouch_c, 1, 72
12, 8080, Channel_aftertouch_c, 1, 80
12, 8088, Channel_aftertouch_c, 1, 68
12, 8104, Channel_aftertouch_c, 1, 58
12, 8112, Channel_aftertouch_c, 1, 66
12, 8128, Channel_aftertouch_c, 1, 67
12, 8136, Channel_aftertouch_c, 1, 57
12, 8148, Channel_aftertouch_c, 1, 41
12, 8160, Channel_aftertouch_c, 1, 36
12, 8168, Channel_aftertouch_c, 1, 0
12, 8224, Note_on_c, 1, 57, 0
12, 8224, Note_on_c, 1, 62, 0
12, 8236, Note_on_c, 1, 67, 0
12, 8448, Note_on_c, 1, 64, 100
12, 8448, Note_on_c, 1, 67, 104
12, 8448, Note_on_c, 1, 60, 96
12, 8464, Channel_aftertouch_c, 1, 71
12, 8472, Channel_aftertouch_c, 1, 78
12, 8496, Channel_aftertouch_c, 1, 76
12, 8508, Channel_aftertouch_c, 1, 74
12, 8520, Channel_aftertouch_c, 1, 70
12, 8532, Channel_aftertouch_c, 1, 58
12, 8544, Channel_aftertouch_c, 1, 47
12, 8556, Channel_aftertouch_c, 1, 15
12, 8568, Channel_aftertouch_c, 1, 0
12, 8608, Note_on_c, 1, 60, 0
12, 8608, Note_on_c, 1, 67, 0
12, 8612, Note_on_c, 1, 64, 0
12, 8832, Note_on_c, 1, 67, 108
12, 8832, Note_on_c, 1, 64, 104
12, 8832, Note_on_c, 1, 60, 104
12, 8848, Channel_aftertouch_c, 1, 55
12, 8860, Channel_aftertouch_c, 1, 80
12, 8872, Channel_aftertouch_c, 1, 69
12, 8884, Channel_aftertouch_c, 1, 55
12, 8908, Channel_aftertouch_c, 1, 62
12, 8928, Channel_aftertouch_c, 1, 57
12, 8940, Channel_aftertouch_c, 1, 55
12, 8952, Channel_aftertouch_c, 1, 47
12, 8960, Channel_aftertouch_c, 1, 32
12, 8976, Channel_aftertouch_c, 1, 2
12, 8984, Channel_aftertouch_c, 1, 0
12, 9016, Note_on_c, 1, 64, 0
12, 9024, Note_on_c, 1, 60, 0
12, 9024, Note_on_c, 1, 67, 0
12, 9216, Note_on_c, 1, 67, 100
12, 9216, Note_on_c, 1, 59, 104
12, 9216, Note_on_c, 1, 62, 104
12, 9252, Channel_aftertouch_c, 1, 69
12, 9264, Channel_aftertouch_c, 1, 41
12, 9272, Channel_aftertouch_c, 1, 0
12, 9340, Note_on_c, 1, 59, 0
12, 9344, Note_on_c, 1, 62, 0
12, 9344, Note_on_c, 1, 67, 0
12, 9600, Note_on_c, 1, 67, 108
12, 9600, Note_on_c, 1, 62, 104
12, 9600, Note_on_c, 1, 59, 108
12, 9632, Channel_aftertouch_c, 1, 81
12, 9648, Channel_aftertouch_c, 1, 75
12, 9656, Channel_aftertouch_c, 1, 52
12, 9668, Channel_aftertouch_c, 1, 41
12, 9692, Channel_aftertouch_c, 1, 25
12, 9704, Channel_aftertouch_c, 1, 0
12, 9728, Note_on_c, 1, 62, 0
12, 9736, Note_on_c, 1, 59, 0
12, 9736, Note_on_c, 1, 67, 0
12, 9984, Note_on_c, 1, 67, 85
12, 9984, Note_on_c, 1, 64, 92
12, 9984, Note_on_c, 1, 59, 96
12, 9996, Channel_aftertouch_c, 1, 72
12, 10004, Channel_aftertouch_c, 1, 76
12, 10020, Channel_aftertouch_c, 1, 77
12, 10032, Channel_aftertouch_c, 1, 79
12, 10040, Channel_aftertouch_c, 1, 80
12, 10052, Channel_aftertouch_c, 1, 76
12, 10064, Channel_aftertouch_c, 1, 69
12, 10076, Channel_aftertouch_c, 1, 66
12, 10088, Channel_aftertouch_c, 1, 50
12, 10100, Channel_aftertouch_c, 1, 6
12, 10112, Channel_aftertouch_c, 1, 0
12, 10168, Note_on_c, 1, 59, 0
12, 10168, Note_on_c, 1, 67, 0
12, 10180, Note_on_c, 1, 64, 0
12, 10368, Note_on_c, 1, 59, 104
12, 10368, Note_on_c, 1, 67, 104
12, 10368, Note_on_c, 1, 64, 100
12, 10376, Channel_aftertouch_c, 1, 41
12, 10388, Channel_aftertouch_c, 1, 77
12, 10400, Channel_aftertouch_c, 1, 75
12, 10412, Channel_aftertouch_c, 1, 68
12, 10420, Channel_aftertouch_c, 1, 65
12, 10444, Channel_aftertouch_c, 1, 61
12, 10456, Channel_aftertouch_c, 1, 49
12, 10468, Channel_aftertouch_c, 1, 39
12, 10480, Channel_aftertouch_c, 1, 0
12, 10520, Note_on_c, 1, 64, 0
12, 10528, Note_on_c, 1, 67, 0
12, 10528, Note_on_c, 1, 59, 0
12, 10752, Note_on_c, 1, 62, 100
12, 10752, Note_on_c, 1, 57, 108
12, 10752, Note_on_c, 1, 67, 104
12, 10780, Channel_aftertouch_c, 1, 85
12, 10792, Channel_aftertouch_c, 1, 86
12, 10800, Channel_aftertouch_c, 1, 79
12, 10816, Channel_aftertouch_c, 1, 78
12, 10824, Channel_aftertouch_c, 1, 77
12, 10836, Channel_aftertouch_c, 1, 72
12, 10848, Channel_aftertouch_c, 1, 60
12, 10860, Channel_aftertouch_c, 1, 35
12, 10872, Channel_aftertouch_c, 1, 0
12, 10912, Note_on_c, 1, 62, 0
12, 10920, Note_on_c, 1, 67, 0
12, 10932, Note_on_c, 1, 57, 0
12, 11136, Note_on_c, 1, 67, 104
12, 11136, Note_on_c, 1, 57, 104
12, 11136, Note_on_c, 1, 62, 108
12, 11168, Channel_aftertouch_c, 1, 39
12, 11180, Channel_aftertouch_c, 1, 80
12, 11192, Channel_aftertouch_c, 1, 73
12, 11204, Channel_aftertouch_c, 1, 69
12, 11216, Channel_aftertouch_c, 1, 66
12, 11224, Channel_aftertouch_c, 1, 60
12, 11240, Channel_aftertouch_c, 1, 45
12, 11248, Channel_aftertouch_c, 1, 14
12, 11260, Channel_aftertouch_c, 1, 0
12, 11280, Note_on_c, 1, 57, 0
12, 11292, Note_on_c, 1, 62, 0
12, 11296, Note_on_c, 1, 67, 0
12, 11520, Note_on_c, 1, 64, 96
12, 11520, Note_on_c, 1, 60, 104
12, 11520, Note_on_c, 1, 67, 108
12, 11552, Channel_aftertouch_c, 1, 71
12, 11560, Channel_aftertouch_c, 1, 66
12, 11576, Channel_aftertouch_c, 1, 48
12, 11584, Channel_aftertouch_c, 1, 43
12, 11600, Channel_aftertouch_c, 1, 41
12, 11608, Channel_aftertouch_c, 1, 29
12, 11620, Channel_aftertouch_c, 1, 0
12, 11664, Note_on_c, 1, 67, 0
12, 11664, Note_on_c, 1, 64, 0
12, 11668, Note_on_c, 1, 60, 0
12, 11904, Note_on_c, 1, 67, 104
12, 11904, Note_on_c, 1, 64, 104
12, 11904, Note_on_c, 1, 60, 108
12, 11920, Channel_aftertouch_c, 1, 31
12, 11932, Channel_aftertouch_c, 1, 75
12, 11944, Channel_aftertouch_c, 1, 69
12, 11952, Channel_aftertouch_c, 1, 64
12, 11968, Channel_aftertouch_c, 1, 64
12, 11988, Channel_aftertouch_c, 1, 56
12, 12000, Channel_aftertouch_c, 1, 44
12, 12012, Channel_aftertouch_c, 1, 35
12, 12024, Channel_aftertouch_c, 1, 0
12, 12064, Note_on_c, 1, 67, 0
12, 12068, Note_on_c, 1, 60, 0
12, 12072, Note_on_c, 1, 64, 0
12, 12288, Note_on_c, 1, 67, 100
12, 12288, Note_on_c, 1, 62, 96
12, 12308, Channel_aftertouch_c, 1, 27
12, 12328, Channel_aftertouch_c, 1, 19
12, 12344, Channel_aftertouch_c, 1, 7
12, 12356, Channel_aftertouch_c, 1, 3
12, 12368, Channel_aftertouch_c, 1, 0
12, 12464, Note_on_c, 1, 67, 0
12, 12476, Note_on_c, 1, 62, 0
12, 12672, Note_on_c, 1, 67, 104
12, 12672, Note_on_c, 1, 62, 104
12, 12684, Channel_aftertouch_c, 1, 5
12, 12696, Channel_aftertouch_c, 1, 30
12, 12752, Channel_aftertouch_c, 1, 26
12, 12764, Channel_aftertouch_c, 1, 18
12, 12776, Channel_aftertouch_c, 1, 2
12, 12788, Channel_aftertouch_c, 1, 0
12, 12852, Note_on_c, 1, 67, 0
12, 12864, Note_on_c, 1, 62, 0
12, 13056, Note_on_c, 1, 67, 104
12, 13056, Note_on_c, 1, 59, 104
12, 13060, Channel_aftertouch_c, 1, 88
12, 13072, Channel_aftertouch_c, 1, 30
12, 13084, Channel_aftertouch_c, 1, 41
12, 13096, Channel_aftertouch_c, 1, 42
12, 13120, Channel_aftertouch_c, 1, 38
12, 13132, Channel_aftertouch_c, 1, 34
12, 13144, Channel_aftertouch_c, 1, 27
12, 13152, Channel_aftertouch_c, 1, 18
12, 13168, Channel_aftertouch_c, 1, 5
12, 13176, Channel_aftertouch_c, 1, 0
12, 13244, Note_on_c, 1, 67, 0
12, 13252, Note_on_c, 1, 59, 0
12, 13440, Note_on_c, 1, 67, 108
12, 13440, Note_on_c, 1, 59, 108
12, 13460, Channel_aftertouch_c, 1, 36
12, 13472, Channel_aftertouch_c, 1, 47
12, 13496, Channel_aftertouch_c, 1, 41
12, 13508, Channel_aftertouch_c, 1, 37
12, 13532, Channel_aftertouch_c, 1, 37
12, 13544, Channel_aftertouch_c, 1, 32
12, 13556, Channel_aftertouch_c, 1, 26
12, 13568, Channel_aftertouch_c, 1, 18
12, 13580, Channel_aftertouch_c, 1, 2
12, 13592, Channel_aftertouch_c, 1, 0
12, 13620, Note_on_c, 1, 67, 0
12, 13624, Note_on_c, 1, 59, 0
12, 13824, Note_on_c, 1, 62, 104
12, 13824, Note_on_c, 1, 67, 108
12, 13852, Channel_aftertouch_c, 1, 34
12, 13864, Channel_aftertouch_c, 1, 46
12, 13876, Channel_aftertouch_c, 1, 39
12, 13888, Channel_aftertouch_c, 1, 32
12, 13920, Channel_aftertouch_c, 1, 27
12, 13936, Channel_aftertouch_c, 1, 17
12, 13944, Channel_aftertouch_c, 1, 0
12, 14004, Note_on_c, 1, 62, 0
12, 14016, Note_on_c, 1, 67, 0
12, 14208, Note_on_c, 1, 62, 104
12, 14208, Note_on_c, 1, 67, 104
12, 14232, Channel_aftertouch_c, 1, 48
12, 14244, Channel_aftertouch_c, 1, 53
12, 14256, Channel_aftertouch_c, 1, 48
12, 14268, Channel_aftertouch_c, 1, 42
12, 14280, Channel_aftertouch_c, 1, 41
12, 14288, Channel_aftertouch_c, 1, 39
12, 14300, Channel_aftertouch_c, 1, 32
12, 14316, Channel_aftertouch_c, 1, 22
12, 14328, Channel_aftertouch_c, 1, 1
12, 14336, Channel_aftertouch_c, 1, 0
12, 14388, Note_on_c, 1, 67, 0
12, 14396, Note_on_c, 1, 62, 0
12, 14592, Note_on_c, 1, 59, 108
12, 14592, Note_on_c, 1, 67, 100
12, 14608, Channel_aftertouch_c, 1, 27
12, 14616, Channel_aftertouch_c, 1, 40
12, 14628, Channel_aftertouch_c, 1, 41
12, 14640, Channel_aftertouch_c, 1, 37
12, 14652, Channel_aftertouch_c, 1, 35
12, 14664, Channel_aftertouch_c, 1, 34
12, 14676, Channel_aftertouch_c, 1, 30
12, 14688, Channel_aftertouch_c, 1, 21
12, 14700, Channel_aftertouch_c, 1, 7
12, 14712, Channel_aftertouch_c, 1, 0
12, 14776, Note_on_c, 1, 67, 0
12, 14796, Note_on_c, 1, 59, 0
12, 14976, Note_on_c, 1, 59, 108
12, 14976, Note_on_c, 1, 67, 104
12, 14976, Channel_aftertouch_c, 1, 16
12, 14984, Channel_aftertouch_c, 1, 53
12, 14996, Channel_aftertouch_c, 1, 53
12, 15008, Channel_aftertouch_c, 1, 47
12, 15020, Channel_aftertouch_c, 1, 39
12, 15032, Channel_aftertouch_c, 1, 37
12, 15044, Channel_aftertouch_c, 1, 29
12, 15056, Channel_aftertouch_c, 1, 9
12, 15068, Channel_aftertouch_c, 1, 0
12, 15124, Note_on_c, 1, 67, 0
12, 15140, Note_on_c, 1, 59, 0
12, 15360, Note_on_c, 1, 67, 100
12, 15360, Note_on_c, 1, 59, 104
12, 15360, Note_on_c, 1, 62, 104
12, 15396, Channel_aftertouch_c, 1, 69
12, 15408, Channel_aftertouch_c, 1, 41
12, 15416, Channel_aftertouch_c, 1, 0
12, 15484, Note_on_c, 1, 59, 0
12, 15488, Note_on_c, 1, 62, 0
12, 15488, Note_on_c, 1, 67, 0
12, 15744, Note_on_c, 1, 67, 108
12, 15744, Note_on_c, 1, 62, 104
12, 15744, Note_on_c, 1, 59, 108
12, 15776, Channel_aftertouch_c, 1, 81
12, 15792, Channel_aftertouch_c, 1, 75
12, 15800, Channel_aftertouch_c, 1, 52
12, 15812, Channel_aftertouch_c, 1, 41
12, 15836, Channel_aftertouch_c, 1, 25
12, 15848, Channel_aftertouch_c, 1, 0
12, 15872, Note_on_c, 1, 62, 0
12, 15880, Note_on_c, 1, 59, 0
12, 15880, Note_on_c, 1, 67, 0
12, 16128, Note_on_c, 1, 67, 85
12, 16128, Note_on_c, 1, 64, 92
12, 16128, Note_on_c, 1, 59, 96
12, 16140, Channel_aftertouch_c, 1, 72
12, 16148, Channel_aftertouch_c, 1, 76
12, 16164, Channel_aftertouch_c, 1, 77
12, 16176, Channel_aftertouch_c, 1, 79
12, 16184, Channel_aftertouch_c, 1, 80
12, 16196, Channel_aftertouch_c, 1, 76
12, 16208, Channel_aftertouch_c, 1, 69
12, 16220, Channel_aftertouch_c, 1, 66
12, 16232, Channel_aftertouch_c, 1, 50
12, 16244, Channel_aftertouch_c, 1, 6
12, 16256, Channel_aftertouch_c, 1, 0
12, 16312, Note_on_c, 1, 59, 0
12, 16312, Note_on_c, 1, 67, 0
12, 16324, Note_on_c, 1, 64, 0
12, 16512, Note_on_c, 1, 59, 104
12, 16512, Note_on_c, 1, 67, 104
12, 16512, Note_on_c, 1, 64, 100
12, 16520, Channel_aftertouch_c, 1, 41
12, 16532, Channel_aftertouch_c, 1, 77
12, 16544, Channel_aftertouch_c, 1, 75
12, 16556, Channel_aftertouch_c, 1, 68
12, 16564, Channel_aftertouch_c, 1, 65
12, 16588, Channel_aftertouch_c, 1, 61
12, 16600, Channel_aftertouch_c, 1, 49
12, 16612, Channel_aftertouch_c, 1, 39
12, 16624, Channel_aftertouch_c, 1, 0
12, 16664, Note_on_c, 1, 64, 0
12, 16672, Note_on_c, 1, 67, 0
12, 16672, Note_on_c, 1, 59, 0
12, 16896, Note_on_c, 1, 62, 100
12, 16896, Note_on_c, 1, 57, 108
12, 16896, Note_on_c, 1, 67, 104
12, 16924, Channel_aftertouch_c, 1, 85
12, 16936, Channel_aftertouch_c, 1, 86
12, 16944, Channel_aftertouch_c, 1, 79
12, 16960, Channel_aftertouch_c, 1, 78
12, 16968, Channel_aftertouch_c, 1, 77
12, 16980, Channel_aftertouch_c, 1, 72
12, 16992, Channel_aftertouch_c, 1, 60
12, 17004, Channel_aftertouch_c, 1, 35
12, 17016, Channel_aftertouch_c, 1, 0
12, 17056, Note_on_c, 1, 62, 0
12, 17064, Note_on_c, 1, 67, 0
12, 17076, Note_on_c, 1, 57, 0
12, 17280, Note_on_c, 1, 67, 104
12, 17280, Note_on_c, 1, 57, 104
12, 17280, Note_on_c, 1, 62, 108
12, 17312, Channel_aftertouch_c, 1, 39
12, 17324, Channel_aftertouch_c, 1, 80
12, 17336, Channel_aftertouch_c, 1, 73
12, 17348, Channel_aftertouch_c, 1, 69
12, 17360, Channel_aftertouch_c, 1, 66
12, 17368, Channel_aftertouch_c, 1, 60
12, 17384, Channel_aftertouch_c, 1, 45
12, 17392, Channel_aftertouch_c, 1, 14
12, 17404, Channel_aftertouch_c, 1, 0
12, 17424, Note_on_c, 1, 57, 0
12, 17436, Note_on_c, 1, 62, 0
12, 17440, Note_on_c, 1, 67, 0
12, 17664, Note_on_c, 1, 64, 96
12, 17664, Note_on_c, 1, 60, 104
12, 17664, Note_on_c, 1, 67, 108
12, 17696, Channel_aftertouch_c, 1, 71
12, 17704, Channel_aftertouch_c, 1, 66
12, 17720, Channel_aftertouch_c, 1, 48
12, 17728, Channel_aftertouch_c, 1, 43
12, 17744, Channel_aftertouch_c, 1, 41
12, 17752, Channel_aftertouch_c, 1, 29
12, 17764, Channel_aftertouch_c, 1, 0
12, 17808, Note_on_c, 1, 67, 0
12, 17808, Note_on_c, 1, 64, 0
12, 17812, Note_on_c, 1, 60, 0
12, 18048, Note_on_c, 1, 67, 104
12, 18048, Note_on_c, 1, 64, 104
12, 18048, Note_on_c, 1, 60, 108
12, 18064, Channel_aftertouch_c, 1, 31
12, 18076, Channel_aftertouch_c, 1, 75
12, 18088, Channel_aftertouch_c, 1, 69
12, 18096, Channel_aftertouch_c, 1, 64
12, 18112, Channel_aftertouch_c, 1, 64
12, 18132, Channel_aftertouch_c, 1, 56
12, 18144, Channel_aftertouch_c, 1, 44
12, 18156, Channel_aftertouch_c, 1, 35
12, 18168, Channel_aftertouch_c, 1, 0
12, 18208, Note_on_c, 1, 67, 0
12, 18212, Note_on_c, 1, 60, 0
12, 18216, Note_on_c, 1, 64, 0
12, 18432, Note_on_c, 1, 67, 104
12, 18432, Note_on_c, 1, 62, 104
12, 18432, Note_on_c, 1, 59, 104
12, 18440, Channel_aftertouch_c, 1, 77
12, 18452, Channel_aftertouch_c, 1, 66
12, 18464, Channel_aftertouch_c, 1, 71
12, 18476, Channel_aftertouch_c, 1, 57
12, 18488, Channel_aftertouch_c, 1, 53
12, 18500, Channel_aftertouch_c, 1, 56
12, 18512, Channel_aftertouch_c, 1, 56
12, 18524, Channel_aftertouch_c, 1, 54
12, 18536, Channel_aftertouch_c, 1, 52
12, 18548, Channel_aftertouch_c, 1, 34
12, 18560, Channel_aftertouch_c, 1, 0
12, 18596, Note_on_c, 1, 59, 0
12, 18596, Note_on_c, 1, 62, 0
12, 18604, Note_on_c, 1, 67, 0
12, 18816, Note_on_c, 1, 67, 104
12, 18816, Note_on_c, 1, 59, 108
12, 18816, Note_on_c, 1, 62, 108
12, 18832, Channel_aftertouch_c, 1, 3
12, 18844, Channel_aftertouch_c, 1, 72
12, 18868, Channel_aftertouch_c, 1, 73
12, 18880, Channel_aftertouch_c, 1, 75
12, 18900, Channel_aftertouch_c, 1, 71
12, 18912, Channel_aftertouch_c, 1, 67
12, 18924, Channel_aftertouch_c, 1, 66
12, 18936, Channel_aftertouch_c, 1, 62
12, 18948, Channel_aftertouch_c, 1, 50
12, 18960, Channel_aftertouch_c, 1, 28
12, 18972, Channel_aftertouch_c, 1, 0
12, 18992, Note_on_c, 1, 67, 0
12, 19000, Note_on_c, 1, 62, 0
12, 19000, Note_on_c, 1, 59, 0
12, 19200, Note_on_c, 1, 64, 96
12, 19200, Note_on_c, 1, 67, 104
12, 19200, Note_on_c, 1, 59, 108
12, 19212, Channel_aftertouch_c, 1, 46
12, 19224, Channel_aftertouch_c, 1, 77
12, 19236, Channel_aftertouch_c, 1, 78
12, 19248, Channel_aftertouch_c, 1, 69
12, 19260, Channel_aftertouch_c, 1, 66
12, 19284, Channel_aftertouch_c, 1, 65
12, 19296, Channel_aftertouch_c, 1, 60
12, 19304, Channel_aftertouch_c, 1, 50
12, 19320, Channel_aftertouch_c, 1, 20
12, 19328, Channel_aftertouch_c, 1, 0
12, 19360, Note_on_c, 1, 67, 0
12, 19360, Note_on_c, 1, 64, 0
12, 19368, Note_on_c, 1, 59, 0
12, 19584, Note_on_c, 1, 59, 104
12, 19584, Note_on_c, 1, 67, 108
12, 19584, Note_on_c, 1, 64, 104
12, 19600, Channel_aftertouch_c, 1, 40
12, 19612, Channel_aftertouch_c, 1, 82
12, 19632, Channel_aftertouch_c, 1, 80
12, 19668, Channel_aftertouch_c, 1, 79
12, 19676, Channel_aftertouch_c, 1, 73
12, 19688, Channel_aftertouch_c, 1, 68
12, 19704, Channel_aftertouch_c, 1, 51
12, 19712, Channel_aftertouch_c, 1, 0
12, 19740, Note_on_c, 1, 64, 0
12, 19740, Note_on_c, 1, 67, 0
12, 19744, Note_on_c, 1, 59, 0
12, 19968, Note_on_c, 1, 62, 108
12, 19968, Note_on_c, 1, 67, 104
12, 19968, Note_on_c, 1, 57, 108
12, 19976, Channel_aftertouch_c, 1, 25
12, 19988, Channel_aftertouch_c, 1, 58
12, 20000, Channel_aftertouch_c, 1, 41
12, 20012, Channel_aftertouch_c, 1, 0
12, 20092, Note_on_c, 1, 67, 0
12, 20092, Note_on_c, 1, 62, 0
12, 20100, Note_on_c, 1, 57, 0
12, 20352, Note_on_c, 1, 62, 108
12, 20352, Note_on_c, 1, 67, 108
12, 20352, Note_on_c, 1, 57, 113
12, 20356, Channel_aftertouch_c, 1, 72
12, 20368, Channel_aftertouch_c, 1, 80
12, 20376, Channel_aftertouch_c, 1, 68
12, 20392, Channel_aftertouch_c, 1, 58
12, 20400, Channel_aftertouch_c, 1, 66
12, 20416, Channel_aftertouch_c, 1, 67
12, 20424, Channel_aftertouch_c, 1, 57
12, 20436, Channel_aftertouch_c, 1, 41
12, 20448, Channel_aftertouch_c, 1, 36
12, 20456, Channel_aftertouch_c, 1, 0
12, 20512, Note_on_c, 1, 57, 0
12, 20512, Note_on_c, 1, 62, 0
12, 20524, Note_on_c, 1, 67, 0
12, 20736, Note_on_c, 1, 64, 100
12, 20736, Note_on_c, 1, 67, 104
12, 20736, Note_on_c, 1, 60, 96
12, 20752, Channel_aftertouch_c, 1, 71
12, 20760, Channel_aftertouch_c, 1, 78
12, 20784, Channel_aftertouch_c, 1, 76
12, 20796, Channel_aftertouch_c, 1, 74
12, 20808, Channel_aftertouch_c, 1, 70
12, 20820, Channel_aftertouch_c, 1, 58
12, 20832, Channel_aftertouch_c, 1, 47
12, 20844, Channel_aftertouch_c, 1, 15
12, 20856, Channel_aftertouch_c, 1, 0
12, 20896, Note_on_c, 1, 60, 0
12, 20896, Note_on_c, 1, 67, 0
12, 20900, Note_on_c, 1, 64, 0
12, 21120, Note_on_c, 1, 67, 108
12, 21120, Note_on_c, 1, 64, 104
12, 21120, Note_on_c, 1, 60, 104
12, 21136, Channel_aftertouch_c, 1, 55
12, 21148, Channel_aftertouch_c, 1, 80
12, 21160, Channel_aftertouch_c, 1, 69
12, 21172, Channel_aftertouch_c, 1, 55
12, 21196, Channel_aftertouch_c, 1, 62
12, 21216, Channel_aftertouch_c, 1, 57
12, 21228, Channel_aftertouch_c, 1, 55
12, 21240, Channel_aftertouch_c, 1, 47
12, 21248, Channel_aftertouch_c, 1, 32
12, 21264, Channel_aftertouch_c, 1, 2
12, 21272, Channel_aftertouch_c, 1, 0
12, 21304, Note_on_c, 1, 64, 0
12, 21312, Note_on_c, 1, 60, 0
12, 21312, Note_on_c, 1, 67, 0
12, 21504, Note_on_c, 1, 67, 100
12, 21504, Note_on_c, 1, 59, 104
12, 21504, Note_on_c, 1, 62, 104
12, 21540, Channel_aftertouch_c, 1, 69
12, 21552, Channel_aftertouch_c, 1, 41
12, 21560, Channel_aftertouch_c, 1, 0
12, 21628, Note_on_c, 1, 59, 0
12, 21632, Note_on_c, 1, 62, 0
12, 21632, Note_on_c, 1, 67, 0
12, 21888, Note_on_c, 1, 67, 108
12, 21888, Note_on_c, 1, 62, 104
12, 21888, Note_on_c, 1, 59, 108
12, 21920, Channel_aftertouch_c, 1, 81
12, 21936, Channel_aftertouch_c, 1, 75
12, 21944, Channel_aftertouch_c, 1, 52
12, 21956, Channel_aftertouch_c, 1, 41
12, 21980, Channel_aftertouch_c, 1, 25
12, 21992, Channel_aftertouch_c, 1, 0
12, 22016, Note_on_c, 1, 62, 0
12, 22024, Note_on_c, 1, 59, 0
12, 22024, Note_on_c, 1, 67, 0
12, 22272, Note_on_c, 1, 67, 85
12, 22272, Note_on_c, 1, 64, 92
12, 22272, Note_on_c, 1, 59, 96
12, 22284, Channel_aftertouch_c, 1, 72
12, 22292, Channel_aftertouch_c, 1, 76
12, 22308, Channel_aftertouch_c, 1, 77
12, 22320, Channel_aftertouch_c, 1, 79
12, 22328, Channel_aftertouch_c, 1, 80
12, 22340, Channel_aftertouch_c, 1, 76
12, 22352, Channel_aftertouch_c, 1, 69
12, 22364, Channel_aftertouch_c, 1, 66
12, 22376, Channel_aftertouch_c, 1, 50
12, 22388, Channel_aftertouch_c, 1, 6
12, 22400, Channel_aftertouch_c, 1, 0
12, 22456, Note_on_c, 1, 59, 0
12, 22456, Note_on_c, 1, 67, 0
12, 22468, Note_on_c, 1, 64, 0
12, 22656, Note_on_c, 1, 59, 104
12, 22656, Note_on_c, 1, 67, 104
12, 22656, Note_on_c, 1, 64, 100
12, 22664, Channel_aftertouch_c, 1, 41
12, 22676, Channel_aftertouch_c, 1, 77
12, 22688, Channel_aftertouch_c, 1, 75
12, 22700, Channel_aftertouch_c, 1, 68
12, 22708, Channel_aftertouch_c, 1, 65
12, 22732, Channel_aftertouch_c, 1, 61
12, 22744, Channel_aftertouch_c, 1, 49
12, 22756, Channel_aftertouch_c, 1, 39
12, 22768, Channel_aftertouch_c, 1, 0
12, 22808, Note_on_c, 1, 64, 0
12, 22816, Note_on_c, 1, 67, 0
12, 22816, Note_on_c, 1, 59, 0
12, 23040, Note_on_c, 1, 62, 100
12, 23040, Note_on_c, 1, 57, 108
12, 23040, Note_on_c, 1, 67, 104
12, 23068, Channel_aftertouch_c, 1, 85
12, 23080, Channel_aftertouch_c, 1, 86
12, 23088, Channel_aftertouch_c, 1, 79
12, 23104, Channel_aftertouch_c, 1, 78
12, 23112, Channel_aftertouch_c, 1, 77
12, 23124, Channel_aftertouch_c, 1, 72
12, 23136, Channel_aftertouch_c, 1, 60
12, 23148, Channel_aftertouch_c, 1, 35
12, 23160, Channel_aftertouch_c, 1, 0
12, 23200, Note_on_c, 1, 62, 0
12, 23208, Note_on_c, 1, 67, 0
12, 23220, Note_on_c, 1, 57, 0
12, 23424, Note_on_c, 1, 67, 104
12, 23424, Note_on_c, 1, 57, 104
12, 23424, Note_on_c, 1, 62, 108
12, 23456, Channel_aftertouch_c, 1, 39
12, 23468, Channel_aftertouch_c, 1, 80
12, 23480, Channel_aftertouch_c, 1, 73
12, 23492, Channel_aftertouch_c, 1, 69
12, 23504, Channel_aftertouch_c, 1, 66
12, 23512, Channel_aftertouch_c, 1, 60
12, 23528, Channel_aftertouch_c, 1, 45
12, 23536, Channel_aftertouch_c, 1, 14
12, 23548, Channel_aftertouch_c, 1, 0
12, 23568, Note_on_c, 1, 57, 0
12, 23580, Note_on_c, 1, 62, 0
12, 23584, Note_on_c, 1, 67, 0
12, 23808, Note_on_c, 1, 64, 96
12, 23808, Note_on_c, 1, 60, 104
12, 23808, Note_on_c, 1, 67, 108
12, 23840, Channel_aftertouch_c, 1, 71
12, 23848, Channel_aftertouch_c, 1, 66
12, 23864, Channel_aftertouch_c, 1, 48
12, 23872, Channel_aftertouch_c, 1, 43
12, 23888, Channel_aftertouch_c, 1, 41
12, 23896, Channel_aftertouch_c, 1, 29
12, 23908, Channel_aftertouch_c, 1, 0
12, 23952, Note_on_c, 1, 67, 0
12, 23952, Note_on_c, 1, 64, 0
12, 23956, Note_on_c, 1, 60, 0
12, 24192, Note_on_c, 1, 67, 104
12, 24192, Note_on_c, 1, 64, 104
12, 24192, Note_on_c, 1, 60, 108
12, 24208, Channel_aftertouch_c, 1, 31
12, 24220, Channel_aftertouch_c, 1, 75
12, 24232, Channel_aftertouch_c, 1, 69
12, 24240, Channel_aftertouch_c, 1, 64
12, 24256, Channel_aftertouch_c, 1, 64
12, 24276, Channel_aftertouch_c, 1, 56
12, 24288, Channel_aftertouch_c, 1, 44
12, 24300, Channel_aftertouch_c, 1, 35
12, 24312, Channel_aftertouch_c, 1, 0
12, 24352, Note_on_c, 1, 67, 0
12, 24356, Note_on_c, 1, 60, 0
12, 24360, Note_on_c, 1, 64, 0
12, 24576, Note_on_c, 1, 67, 104
12, 24576, Note_on_c, 1, 62, 104
12, 24576, Note_on_c, 1, 59, 104
12, 24584, Channel_aftertouch_c, 1, 77
12, 24596, Channel_aftertouch_c, 1, 66
12, 24608, Channel_aftertouch_c, 1, 71
12, 24620, Channel_aftertouch_c, 1, 57
12, 24632, Channel_aftertouch_c, 1, 53
12, 24644, Channel_aftertouch_c, 1, 56
12, 24656, Channel_aftertouch_c, 1, 56
12, 24668, Channel_aftertouch_c, 1, 54
12, 24680, Channel_aftertouch_c, 1, 52
12, 24692, Channel_aftertouch_c, 1, 34
12, 24704, Channel_aftertouch_c, 1, 0
12, 24740, Note_on_c, 1, 59, 0
12, 24740, Note_on_c, 1, 62, 0
12, 24748, Note_on_c, 1, 67, 0
12, 24960, Note_on_c, 1, 67, 104
12, 24960, Note_on_c, 1, 59, 108
12, 24960, Note_on_c, 1, 62, 108
12, 24976, Channel_aftertouch_c, 1, 3
12, 24988, Channel_aftertouch_c, 1, 72
12, 25012, Channel_aftertouch_c, 1, 73
12, 25024, Channel_aftertouch_c, 1, 75
12, 25044, Channel_aftertouch_c, 1, 71
12, 25056, Channel_aftertouch_c, 1, 67
12, 25068, Channel_aftertouch_c, 1, 66
12, 25080, Channel_aftertouch_c, 1, 62
12, 25092, Channel_aftertouch_c, 1, 50
12, 25104, Channel_aftertouch_c, 1, 28
12, 25116, Channel_aftertouch_c, 1, 0
12, 25136, Note_on_c, 1, 67, 0
12, 25144, Note_on_c, 1, 62, 0
12, 25144, Note_on_c, 1, 59, 0
12, 25344, Note_on_c, 1, 64, 96
12, 25344, Note_on_c, 1, 67, 104
12, 25344, Note_on_c, 1, 59, 108
12, 25356, Channel_aftertouch_c, 1, 46
12, 25368, Channel_aftertouch_c, 1, 77
12, 25380, Channel_aftertouch_c, 1, 78
12, 25392, Channel_aftertouch_c, 1, 69
12, 25404, Channel_aftertouch_c, 1, 66
12, 25428, Channel_aftertouch_c, 1, 65
12, 25440, Channel_aftertouch_c, 1, 60
12, 25448, Channel_aftertouch_c, 1, 50
12, 25464, Channel_aftertouch_c, 1, 20
12, 25472, Channel_aftertouch_c, 1, 0
12, 25504, Note_on_c, 1, 67, 0
12, 25504, Note_on_c, 1, 64, 0
12, 25512, Note_on_c, 1, 59, 0
12, 25728, Note_on_c, 1, 59, 104
12, 25728, Note_on_c, 1, 67, 108
12, 25728, Note_on_c, 1, 64, 104
12, 25744, Channel_aftertouch_c, 1, 40
12, 25756, Channel_aftertouch_c, 1, 82
12, 25776, Channel_aftertouch_c, 1, 80
12, 25812, Channel_aftertouch_c, 1, 79
12, 25820, Channel_aftertouch_c, 1, 73
12, 25832, Channel_aftertouch_c, 1, 68
12, 25848, Channel_aftertouch_c, 1, 51
12, 25856, Channel_aftertouch_c, 1, 0
12, 25884, Note_on_c, 1, 64, 0
12, 25884, Note_on_c, 1, 67, 0
12, 25888, Note_on_c, 1, 59, 0
12, 26112, Note_on_c, 1, 62, 108
12, 26112, Note_on_c, 1, 67, 104
12, 26112, Note_on_c, 1, 57, 108
12, 26120, Channel_aftertouch_c, 1, 25
12, 26132, Channel_aftertouch_c, 1, 58
12, 26144, Channel_aftertouch_c, 1, 41
12, 26156, Channel_aftertouch_c, 1, 0
12, 26236, Note_on_c, 1, 67, 0
12, 26236, Note_on_c, 1, 62, 0
12, 26244, Note_on_c, 1, 57, 0
12, 26496, Note_on_c, 1, 62, 108
12, 26496, Note_on_c, 1, 67, 108
12, 26496, Note_on_c, 1, 57, 113
12, 26500, Channel_aftertouch_c, 1, 72
12, 26512, Channel_aftertouch_c, 1, 80
12, 26520, Channel_aftertouch_c, 1, 68
12, 26536, Channel_aftertouch_c, 1, 58
12, 26544, Channel_aftertouch_c, 1, 66
12, 26560, Channel_aftertouch_c, 1, 67
12, 26568, Channel_aftertouch_c, 1, 57
12, 26580, Channel_aftertouch_c, 1, 41
12, 26592, Channel_aftertouch_c, 1, 36
12, 26600, Channel_aftertouch_c, 1, 0
12, 26656, Note_on_c, 1, 57, 0
12, 26656, Note_on_c, 1, 62, 0
12, 26668, Note_on_c, 1, 67, 0
12, 26880, Note_on_c, 1, 64, 100
12, 26880, Note_on_c, 1, 67, 104
12, 26880, Note_on_c, 1, 60, 96
12, 26896, Channel_aftertouch_c, 1, 71
12, 26904, Channel_aftertouch_c, 1, 78
12, 26928, Channel_aftertouch_c, 1, 76
12, 26940, Channel_aftertouch_c, 1, 74
12, 26952, Channel_aftertouch_c, 1, 70
12, 26964, Channel_aftertouch_c, 1, 58
12, 26976, Channel_aftertouch_c, 1, 47
12, 26988, Channel_aftertouch_c, 1, 15
12, 27000, Channel_aftertouch_c, 1, 0
12, 27040, Note_on_c, 1, 60, 0
12, 27040, Note_on_c, 1, 67, 0
12, 27044, Note_on_c, 1, 64, 0
12, 27264, Note_on_c, 1, 67, 108
12, 27264, Note_on_c, 1, 64, 104
12, 27264, Note_on_c, 1, 60, 104
12, 27280, Channel_aftertouch_c, 1, 55
12, 27292, Channel_aftertouch_c, 1, 80
12, 27304, Channel_aftertouch_c, 1, 69
12, 27316, Channel_aftertouch_c, 1, 55
12, 27340, Channel_aftertouch_c, 1, 62
12, 27360, Channel_aftertouch_c, 1, 57
12, 27372, Channel_aftertouch_c, 1, 55
12, 27384, Channel_aftertouch_c, 1, 47
12, 27392, Channel_aftertouch_c, 1, 32
12, 27408, Channel_aftertouch_c, 1, 2
12, 27416, Channel_aftertouch_c, 1, 0
12, 27448, Note_on_c, 1, 64, 0
12, 27456, Note_on_c, 1, 60, 0
12, 27456, Note_on_c, 1, 67, 0
12, 27648, Note_on_c, 1, 67, 100
12, 27648, Note_on_c, 1, 59, 104
12, 27648, Note_on_c, 1, 62, 104
12, 27684, Channel_aftertouch_c, 1, 69
12, 27696, Channel_aftertouch_c, 1, 41
12, 27704, Channel_aftertouch_c, 1, 0
12, 27772, Note_on_c, 1, 59, 0
12, 27776, Note_on_c, 1, 62, 0
12, 27776, Note_on_c, 1, 67, 0
12, 28032, Note_on_c, 1, 67, 108
12, 28032, Note_on_c, 1, 62, 104
12, 28032, Note_on_c, 1, 59, 108
12, 28064, Channel_aftertouch_c, 1, 81
12, 28080, Channel_aftertouch_c, 1, 75
12, 28088, Channel_aftertouch_c, 1, 52
12, 28100, Channel_aftertouch_c, 1, 41
12, 28124, Channel_aftertouch_c, 1, 25
12, 28136, Channel_aftertouch_c, 1, 0
12, 28160, Note_on_c, 1, 62, 0
12, 28168, Note_on_c, 1, 59, 0
12, 28168, Note_on_c, 1, 67, 0
12, 28416, Note_on_c, 1, 67, 85
12, 28416, Note_on_c, 1, 64, 92
12, 28416, Note_on_c, 1, 59, 96
12, 28428, Channel_aftertouch_c, 1, 72
12, 28436, Channel_aftertouch_c, 1, 76
12, 28452, Channel_aftertouch_c, 1, 77
12, 28464, Channel_aftertouch_c, 1, 79
12, 28472, Channel_aftertouch_c, 1, 80
12, 28484, Channel_aftertouch_c, 1, 76
12, 28496, Channel_aftertouch_c, 1, 69
12, 28508, Channel_aftertouch_c, 1, 66
12, 28520, Channel_aftertouch_c, 1, 50
12, 28532, Channel_aftertouch_c, 1, 6
12, 28544, Channel_aftertouch_c, 1, 0
12, 28600, Note_on_c, 1, 59, 0
12, 28600, Note_on_c, 1, 67, 0
12, 28612, Note_on_c, 1, 64, 0
12, 28800, Note_on_c, 1, 59, 104
12, 28800, Note_on_c, 1, 67, 104
12, 28800, Note_on_c, 1, 64, 100
12, 28808, Channel_aftertouch_c, 1, 41
12, 28820, Channel_aftertouch_c, 1, 77
12, 28832, Channel_aftertouch_c, 1, 75
12, 28844, Channel_aftertouch_c, 1, 68
12, 28852, Channel_aftertouch_c, 1, 65
12, 28876, Channel_aftertouch_c, 1, 61
12, 28888, Channel_aftertouch_c, 1, 49
12, 28900, Channel_aftertouch_c, 1, 39
12, 28912, Channel_aftertouch_c, 1, 0
12, 28952, Note_on_c, 1, 64, 0
12, 28960, Note_on_c, 1, 67, 0
12, 28960, Note_on_c, 1, 59, 0
12, 29184, Note_on_c, 1, 62, 100
12, 29184, Note_on_c, 1, 57, 108
12, 29184, Note_on_c, 1, 67, 104
12, 29212, Channel_aftertouch_c, 1, 85
12, 29224, Channel_aftertouch_c, 1, 86
12, 29232, Channel_aftertouch_c, 1, 79
12, 29248, Channel_aftertouch_c, 1, 78
12, 29256, Channel_aftertouch_c, 1, 77
12, 29268, Channel_aftertouch_c, 1, 72
12, 29280, Channel_aftertouch_c, 1, 60
12, 29292, Channel_aftertouch_c, 1, 35
12, 29304, Channel_aftertouch_c, 1, 0
12, 29344, Note_on_c, 1, 62, 0
12, 29352, Note_on_c, 1, 67, 0
12, 29364, Note_on_c, 1, 57, 0
12, 29568, Note_on_c, 1, 67, 104
12, 29568, Note_on_c, 1, 57, 104
12, 29568, Note_on_c, 1, 62, 108
12, 29600, Channel_aftertouch_c, 1, 39
12, 29612, Channel_aftertouch_c, 1, 80
12, 29624, Channel_aftertouch_c, 1, 73
12, 29636, Channel_aftertouch_c, 1, 69
12, 29648, Channel_aftertouch_c, 1, 66
12, 29656, Channel_aftertouch_c, 1, 60
12, 29672, Channel_aftertouch_c, 1, 45
12, 29680, Channel_aftertouch_c, 1, 14
12, 29692, Channel_aftertouch_c, 1, 0
12, 29712, Note_on_c, 1, 57, 0
12, 29724, Note_on_c, 1, 62, 0
12, 29728, Note_on_c, 1, 67, 0
12, 29952, Note_on_c, 1, 64, 96
12, 29952, Note_on_c, 1, 60, 104
12, 29952, Note_on_c, 1, 67, 108
12, 29984, Channel_aftertouch_c, 1, 71
12, 29992, Channel_aftertouch_c, 1, 66
12, 30008, Channel_aftertouch_c, 1, 48
12, 30016, Channel_aftertouch_c, 1, 43
12, 30032, Channel_aftertouch_c, 1, 41
12, 30040, Channel_aftertouch_c, 1, 29
12, 30052, Channel_aftertouch_c, 1, 0
12, 30096, Note_on_c, 1, 67, 0
12, 30096, Note_on_c, 1, 64, 0
12, 30100, Note_on_c, 1, 60, 0
12, 30336, Note_on_c, 1, 67, 104
12, 30336, Note_on_c, 1, 64, 104
12, 30336, Note_on_c, 1, 60, 108
12, 30352, Channel_aftertouch_c, 1, 31
12, 30364, Channel_aftertouch_c, 1, 75
12, 30376, Channel_aftertouch_c, 1, 69
12, 30384, Channel_aftertouch_c, 1, 64
12, 30400, Channel_aftertouch_c, 1, 64
12, 30420, Channel_aftertouch_c, 1, 56
12, 30432, Channel_aftertouch_c, 1, 44
12, 30444, Channel_aftertouch_c, 1, 35
12, 30456, Channel_aftertouch_c, 1, 0
12, 30496, Note_on_c, 1, 67, 0
12, 30500, Note_on_c, 1, 60, 0
12, 30504, Note_on_c, 1, 64, 0
12, 30720, Note_on_c, 1, 67, 104
12, 30720, Note_on_c, 1, 62, 104
12, 30720, Note_on_c, 1, 59, 104
12, 30728, Channel_aftertouch_c, 1, 77
12, 30740, Channel_aftertouch_c, 1, 66
12, 30752, Channel_aftertouch_c, 1, 71
12, 30764, Channel_aftertouch_c, 1, 57
12, 30776, Channel_aftertouch_c, 1, 53
12, 30788, Channel_aftertouch_c, 1, 56
12, 30800, Channel_aftertouch_c, 1, 56
12, 30812, Channel_aftertouch_c, 1, 54
12, 30824, Channel_aftertouch_c, 1, 52
12, 30836, Channel_aftertouch_c, 1, 34
12, 30848, Channel_aftertouch_c, 1, 0
12, 30884, Note_on_c, 1, 59, 0
12, 30884, Note_on_c, 1, 62, 0
12, 30892, Note_on_c, 1, 67, 0
12, 31104, Note_on_c, 1, 67, 104
12, 31104, Note_on_c, 1, 59, 108
12, 31104, Note_on_c, 1, 62, 108
12, 31120, Channel_aftertouch_c, 1, 3
12, 31132, Channel_aftertouch_c, 1, 72
12, 31156, Channel_aftertouch_c, 1, 73
12, 31168, Channel_aftertouch_c, 1, 75
12, 31188, Channel_aftertouch_c, 1, 71
12, 31200, Channel_aftertouch_c, 1, 67
12, 31212, Channel_aftertouch_c, 1, 66
12, 31224, Channel_aftertouch_c, 1, 62
12, 31236, Channel_aftertouch_c, 1, 50
12, 31248, Channel_aftertouch_c, 1, 28
12, 31260, Channel_aftertouch_c, 1, 0
12, 31280, Note_on_c, 1, 67, 0
12, 31288, Note_on_c, 1, 62, 0
12, 31288, Note_on_c, 1, 59, 0
12, 31488, Note_on_c, 1, 64, 96
12, 31488, Note_on_c, 1, 67, 104
12, 31488, Note_on_c, 1, 59, 108
12, 31500, Channel_aftertouch_c, 1, 46
12, 31512, Channel_aftertouch_c, 1, 77
12, 31524, Channel_aftertouch_c, 1, 78
12, 31536, Channel_aftertouch_c, 1, 69
12, 31548, Channel_aftertouch_c, 1, 66
12, 31572, Channel_aftertouch_c, 1, 65
12, 31584, Channel_aftertouch_c, 1, 60
12, 31592, Channel_aftertouch_c, 1, 50
12, 31608, Channel_aftertouch_c, 1, 20
12, 31616, Channel_aftertouch_c, 1, 0
12, 31648, Note_on_c, 1, 67, 0
12, 31648, Note_on_c, 1, 64, 0
12, 31656, Note_on_c, 1, 59, 0
12, 31872, Note_on_c, 1, 59, 104
12, 31872, Note_on_c, 1, 67, 108
12, 31872, Note_on_c, 1, 64, 104
12, 31888, Channel_aftertouch_c, 1, 40
12, 31900, Channel_aftertouch_c, 1, 82
12, 31920, Channel_aftertouch_c, 1, 80
12, 31956, Channel_aftertouch_c, 1, 79
12, 31964, Channel_aftertouch_c, 1, 73
12, 31976, Channel_aftertouch_c, 1, 68
12, 31992, Channel_aftertouch_c, 1, 51
12, 32000, Channel_aftertouch_c, 1, 0
12, 32028, Note_on_c, 1, 64, 0
12, 32028, Note_on_c, 1, 67, 0
12, 32032, Note_on_c, 1, 59, 0
12, 32256, Note_on_c, 1, 62, 108
12, 32256, Note_on_c, 1, 67, 104
12, 32256, Note_on_c, 1, 57, 108
12, 32264, Channel_aftertouch_c, 1, 25
12, 32276, Channel_aftertouch_c, 1, 58
12, 32288, Channel_aftertouch_c, 1, 41
12, 32300, Channel_aftertouch_c, 1, 0
12, 32380, Note_on_c, 1, 67, 0
12, 32380, Note_on_c, 1, 62, 0
12, 32388, Note_on_c, 1, 57, 0
12, 32640, Note_on_c, 1, 62, 108
12, 32640, Note_on_c, 1, 67, 108
12, 32640, Note_on_c, 1, 57, 113
12, 32644, Channel_aftertouch_c, 1, 72
12, 32656, Channel_aftertouch_c, 1, 80
12, 32664, Channel_aftertouch_c, 1, 68
12, 32680, Channel_aftertouch_c, 1, 58
12, 32688, Channel_aftertouch_c, 1, 66
12, 32704, Channel_aftertouch_c, 1, 67
12, 32712, Channel_aftertouch_c, 1, 57
12, 32724, Channel_aftertouch_c, 1, 41
12, 32736, Channel_aftertouch_c, 1, 36
12, 32744, Channel_aftertouch_c, 1, 0
12, 32800, Note_on_c, 1, 57, 0
12, 32800, Note_on_c, 1, 62, 0
12, 32812, Note_on_c, 1, 67, 0
12, 33024, Note_on_c, 1, 64, 100
12, 33024, Note_on_c, 1, 67, 104
12, 33024, Note_on_c, 1, 60, 96
12, 33040, Channel_aftertouch_c, 1, 71
12, 33048, Channel_aftertouch_c, 1, 78
12, 33072, Channel_aftertouch_c, 1, 76
12, 33084, Channel_aftertouch_c, 1, 74
12, 33096, Channel_aftertouch_c, 1, 70
12, 33108, Channel_aftertouch_c, 1, 58
12, 33120, Channel_aftertouch_c, 1, 47
12, 33132, Channel_aftertouch_c, 1, 15
12, 33144, Channel_aftertouch_c, 1, 0
12, 33184, Note_on_c, 1, 60, 0
12, 33184, Note_on_c, 1, 67, 0
12, 33188, Note_on_c, 1, 64, 0
12, 33408, Note_on_c, 1, 67, 108
12, 33408, Note_on_c, 1, 64, 104
12, 33408, Note_on_c, 1, 60, 104
12, 33424, Channel_aftertouch_c, 1, 55
12, 33436, Channel_aftertouch_c, 1, 80
12, 33448, Channel_aftertouch_c, 1, 69
12, 33460, Channel_aftertouch_c, 1, 55
12, 33484, Channel_aftertouch_c, 1, 62
12, 33504, Channel_aftertouch_c, 1, 57
12, 33516, Channel_aftertouch_c, 1, 55
12, 33528, Channel_aftertouch_c, 1, 47
12, 33536, Channel_aftertouch_c, 1, 32
12, 33552, Channel_aftertouch_c, 1, 2
12, 33560, Channel_aftertouch_c, 1, 0
12, 33592, Note_on_c, 1, 64, 0
12, 33600, Note_on_c, 1, 60, 0
12, 33600, Note_on_c, 1, 67, 0
12, 33792, Note_on_c, 1, 67, 104
12, 33792, Note_on_c, 1, 62, 104
12, 33792, Note_on_c, 1, 59, 104
12, 33800, Channel_aftertouch_c, 1, 77
12, 33812, Channel_aftertouch_c, 1, 66
12, 33824, Channel_aftertouch_c, 1, 71
12, 33836, Channel_aftertouch_c, 1, 57
12, 33848, Channel_aftertouch_c, 1, 53
12, 33860, Channel_aftertouch_c, 1, 56
12, 33872, Channel_aftertouch_c, 1, 56
12, 33884, Channel_aftertouch_c, 1, 54
12, 33896, Channel_aftertouch_c, 1, 52
12, 33908, Channel_aftertouch_c, 1, 34
12, 33920, Channel_aftertouch_c, 1, 0
12, 33956, Note_on_c, 1, 59, 0
12, 33956, Note_on_c, 1, 62, 0
12, 33964, Note_on_c, 1, 67, 0
12, 34176, Note_on_c, 1, 67, 104
12, 34176, Note_on_c, 1, 59, 108
12, 34176, Note_on_c, 1, 62, 108
12, 34192, Channel_aftertouch_c, 1, 3
12, 34204, Channel_aftertouch_c, 1, 72
12, 34228, Channel_aftertouch_c, 1, 73
12, 34240, Channel_aftertouch_c, 1, 75
12, 34260, Channel_aftertouch_c, 1, 71
12, 34272, Channel_aftertouch_c, 1, 67
12, 34284, Channel_aftertouch_c, 1, 66
12, 34296, Channel_aftertouch_c, 1, 62
12, 34308, Channel_aftertouch_c, 1, 50
12, 34320, Channel_aftertouch_c, 1, 28
12, 34332, Channel_aftertouch_c, 1, 0
12, 34352, Note_on_c, 1, 67, 0
12, 34360, Note_on_c, 1, 62, 0
12, 34360, Note_on_c, 1, 59, 0
12, 34560, Note_on_c, 1, 64, 96
12, 34560, Note_on_c, 1, 67, 104
12, 34560, Note_on_c, 1, 59, 108
12, 34572, Channel_aftertouch_c, 1, 46
12, 34584, Channel_aftertouch_c, 1, 77
12, 34596, Channel_aftertouch_c, 1, 78
12, 34608, Channel_aftertouch_c, 1, 69
12, 34620, Channel_aftertouch_c, 1, 66
12, 34644, Channel_aftertouch_c, 1, 65
12, 34656, Channel_aftertouch_c, 1, 60
12, 34664, Channel_aftertouch_c, 1, 50
12, 34680, Channel_aftertouch_c, 1, 20
12, 34688, Channel_aftertouch_c, 1, 0
12, 34720, Note_on_c, 1, 67, 0
12, 34720, Note_on_c, 1, 64, 0
12, 34728, Note_on_c, 1, 59, 0
12, 34944, Note_on_c, 1, 59, 104
12, 34944, Note_on_c, 1, 67, 108
12, 34944, Note_on_c, 1, 64, 104
12, 34960, Channel_aftertouch_c, 1, 40
12, 34972, Channel_aftertouch_c, 1, 82
12, 34992, Channel_aftertouch_c, 1, 80
12, 35028, Channel_aftertouch_c, 1, 79
12, 35036, Channel_aftertouch_c, 1, 73
12, 35048, Channel_aftertouch_c, 1, 68
12, 35064, Channel_aftertouch_c, 1, 51
12, 35072, Channel_aftertouch_c, 1, 0
12, 35100, Note_on_c, 1, 64, 0
12, 35100, Note_on_c, 1, 67, 0
12, 35104, Note_on_c, 1, 59, 0
12, 35328, Note_on_c, 1, 62, 108
12, 35328, Note_on_c, 1, 67, 104
12, 35328, Note_on_c, 1, 57, 108
12, 35336, Channel_aftertouch_c, 1, 25
12, 35348, Channel_aftertouch_c, 1, 58
12, 35360, Channel_aftertouch_c, 1, 41
12, 35372, Channel_aftertouch_c, 1, 0
12, 35452, Note_on_c, 1, 67, 0
12, 35452, Note_on_c, 1, 62, 0
12, 35460, Note_on_c, 1, 57, 0
12, 35712, Note_on_c, 1, 62, 108
12, 35712, Note_on_c, 1, 67, 108
12, 35712, Note_on_c, 1, 57, 113
12, 35716, Channel_aftertouch_c, 1, 72
12, 35728, Channel_aftertouch_c, 1, 80
12, 35736, Channel_aftertouch_c, 1, 68
12, 35752, Channel_aftertouch_c, 1, 58
12, 35760, Channel_aftertouch_c, 1, 66
12, 35776, Channel_aftertouch_c, 1, 67
12, 35784, Channel_aftertouch_c, 1, 57
12, 35796, Channel_aftertouch_c, 1, 41
12, 35808, Channel_aftertouch_c, 1, 36
12, 35816, Channel_aftertouch_c, 1, 0
12, 35872, Note_on_c, 1, 57, 0
12, 35872, Note_on_c, 1, 62, 0
12, 35884, Note_on_c, 1, 67, 0
12, 36096, Note_on_c, 1, 64, 100
12, 36096, Note_on_c, 1, 67, 104
12, 36096, Note_on_c, 1, 60, 96
12, 36112, Channel_aftertouch_c, 1, 71
12, 36120, Channel_aftertouch_c, 1, 78
12, 36144, Channel_aftertouch_c, 1, 76
12, 36156, Channel_aftertouch_c, 1, 74
12, 36168, Channel_aftertouch_c, 1, 70
12, 36180, Channel_aftertouch_c, 1, 58
12, 36192, Channel_aftertouch_c, 1, 47
12, 36204, Channel_aftertouch_c, 1, 15
12, 36216, Channel_aftertouch_c, 1, 0
12, 36256, Note_on_c, 1, 60, 0
12, 36256, Note_on_c, 1, 67, 0
12, 36260, Note_on_c, 1, 64, 0
12, 36480, Note_on_c, 1, 67, 108
12, 36480, Note_on_c, 1, 64, 104
12, 36480, Note_on_c, 1, 60, 104
12, 36496, Channel_aftertouch_c, 1, 55
12, 36508, Channel_aftertouch_c, 1, 80
12, 36520, Channel_aftertouch_c, 1, 69
12, 36532, Channel_aftertouch_c, 1, 55
12, 36556, Channel_aftertouch_c, 1, 62
12, 36576, Channel_aftertouch_c, 1, 57
12, 36588, Channel_aftertouch_c, 1, 55
12, 36600, Channel_aftertouch_c, 1, 47
12, 36608, Channel_aftertouch_c, 1, 32
12, 36624, Channel_aftertouch_c, 1, 2
12, 36632, Channel_aftertouch_c, 1, 0
12, 36664, Note_on_c, 1, 64, 0
12, 36672, Note_on_c, 1, 60, 0
12, 36672, Note_on_c, 1, 67, 0
12, 36864, Note_on_c, 1, 67, 104
12, 36864, Note_on_c, 1, 62, 104
12, 36864, Note_on_c, 1, 59, 104
12, 36872, Channel_aftertouch_c, 1, 77
12, 36884, Channel_aftertouch_c, 1, 66
12, 36896, Channel_aftertouch_c, 1, 71
12, 36908, Channel_aftertouch_c, 1, 57
12, 36920, Channel_aftertouch_c, 1, 53
12, 36932, Channel_aftertouch_c, 1, 56
12, 36944, Channel_aftertouch_c, 1, 56
12, 36956, Channel_aftertouch_c, 1, 54
12, 36968, Channel_aftertouch_c, 1, 52
12, 36980, Channel_aftertouch_c, 1, 34
12, 36992, Channel_aftertouch_c, 1, 0
12, 37028, Note_on_c, 1, 59, 0
12, 37028, Note_on_c, 1, 62, 0
12, 37036, Note_on_c, 1, 67, 0
12, 37248, Note_on_c, 1, 67, 104
12, 37248, Note_on_c, 1, 59, 108
12, 37248, Note_on_c, 1, 62, 108
12, 37264, Channel_aftertouch_c, 1, 3
12, 37276, Channel_aftertouch_c, 1, 72
12, 37300, Channel_aftertouch_c, 1, 73
12, 37312, Channel_aftertouch_c, 1, 75
12, 37332, Channel_aftertouch_c, 1, 71
12, 37344, Channel_aftertouch_c, 1, 67
12, 37356, Channel_aftertouch_c, 1, 66
12, 37368, Channel_aftertouch_c, 1, 62
12, 37380, Channel_aftertouch_c, 1, 50
12, 37392, Channel_aftertouch_c, 1, 28
12, 37404, Channel_aftertouch_c, 1, 0
12, 37424, Note_on_c, 1, 67, 0
12, 37432, Note_on_c, 1, 62, 0
12, 37432, Note_on_c, 1, 59, 0
12, 37632, Note_on_c, 1, 64, 96
12, 37632, Note_on_c, 1, 67, 104
12, 37632, Note_on_c, 1, 59, 108
12, 37644, Channel_aftertouch_c, 1, 46
12, 37656, Channel_aftertouch_c, 1, 77
12, 37668, Channel_aftertouch_c, 1, 78
12, 37680, Channel_aftertouch_c, 1, 69
12, 37692, Channel_aftertouch_c, 1, 66
12, 37716, Channel_aftertouch_c, 1, 65
12, 37728, Channel_aftertouch_c, 1, 60
12, 37736, Channel_aftertouch_c, 1, 50
12, 37752, Channel_aftertouch_c, 1, 20
12, 37760, Channel_aftertouch_c, 1, 0
12, 37792, Note_on_c, 1, 67, 0
12, 37792, Note_on_c, 1, 64, 0
12, 37800, Note_on_c, 1, 59, 0
12, 38016, Note_on_c, 1, 59, 104
12, 38016, Note_on_c, 1, 67, 108
12, 38016, Note_on_c, 1, 64, 104
12, 38032, Channel_aftertouch_c, 1, 40
12, 38044, Channel_aftertouch_c, 1, 82
12, 38064, Channel_aftertouch_c, 1, 80
12, 38100, Channel_aftertouch_c, 1, 79
12, 38108, Channel_aftertouch_c, 1, 73
12, 38120, Channel_aftertouch_c, 1, 68
12, 38136, Channel_aftertouch_c, 1, 51
12, 38144, Channel_aftertouch_c, 1, 0
12, 38172, Note_on_c, 1, 64, 0
12, 38172, Note_on_c, 1, 67, 0
12, 38176, Note_on_c, 1, 59, 0
12, 38400, Note_on_c, 1, 67, 96
12, 38400, Note_on_c, 1, 62, 92
12, 38400, Note_on_c, 1, 57, 100
12, 38436, Channel_aftertouch_c, 1, 57
12, 38448, Channel_aftertouch_c, 1, 71
12, 38460, Channel_aftertouch_c, 1, 51
12, 38472, Channel_aftertouch_c, 1, 0
12, 38512, Note_on_c, 1, 62, 0
12, 38524, Note_on_c, 1, 57, 0
12, 38528, Note_on_c, 1, 67, 0
12, 38784, Note_on_c, 1, 67, 96
12, 38784, Note_on_c, 1, 62, 96
12, 38784, Note_on_c, 1, 57, 100
12, 38820, Channel_aftertouch_c, 1, 77
12, 38832, Channel_aftertouch_c, 1, 80
12, 38844, Channel_aftertouch_c, 1, 70
12, 38856, Channel_aftertouch_c, 1, 61
12, 38868, Channel_aftertouch_c, 1, 59
12, 38880, Channel_aftertouch_c, 1, 52
12, 38892, Channel_aftertouch_c, 1, 13
12, 38904, Channel_aftertouch_c, 1, 0
12, 38924, Note_on_c, 1, 67, 0
12, 38928, Note_on_c, 1, 57, 0
12, 38928, Note_on_c, 1, 62, 0
12, 39168, Note_on_c, 1, 67, 96
12, 39168, Note_on_c, 1, 57, 104
12, 39168, Note_on_c, 1, 62, 100
12, 39184, Channel_aftertouch_c, 1, 67
12, 39196, Channel_aftertouch_c, 1, 85
12, 39208, Channel_aftertouch_c, 1, 74
12, 39220, Channel_aftertouch_c, 1, 65
12, 39232, Channel_aftertouch_c, 1, 60
12, 39244, Channel_aftertouch_c, 1, 56
12, 39256, Channel_aftertouch_c, 1, 41
12, 39268, Channel_aftertouch_c, 1, 7
12, 39280, Channel_aftertouch_c, 1, 0
12, 39344, Note_on_c, 1, 67, 0
12, 39348, Note_on_c, 1, 62, 0
12, 39348, Note_on_c, 1, 57, 0
12, 39552, Note_on_c, 1, 67, 100
12, 39552, Note_on_c, 1, 62, 100
12, 39552, Note_on_c, 1, 57, 108
12, 39568, Channel_aftertouch_c, 1, 31
12, 39576, Channel_aftertouch_c, 1, 28
12, 39588, Channel_aftertouch_c, 1, 93
12, 39600, Channel_aftertouch_c, 1, 89
12, 39612, Channel_aftertouch_c, 1, 79
12, 39624, Channel_aftertouch_c, 1, 75
12, 39636, Channel_aftertouch_c, 1, 71
12, 39648, Channel_aftertouch_c, 1, 52
12, 39660, Channel_aftertouch_c, 1, 0
12, 39680, Note_on_c, 1, 62, 0
12, 39684, Note_on_c, 1, 57, 0
12, 39684, Note_on_c, 1, 67, 0
12, 52224, Note_on_c, 1, 67, 100
12, 52224, Note_on_c, 1, 59, 104
12, 52224, Note_on_c, 1, 62, 104
12, 52260, Channel_aftertouch_c, 1, 69
12, 52272, Channel_aftertouch_c, 1, 41
12, 52280, Channel_aftertouch_c, 1, 0
12, 52348, Note_on_c, 1, 59, 0
12, 52352, Note_on_c, 1, 62, 0
12, 52352, Note_on_c, 1, 67, 0
12, 52608, Note_on_c, 1, 67, 108
12, 52608, Note_on_c, 1, 62, 104
12, 52608, Note_on_c, 1, 59, 108
12, 52640, Channel_aftertouch_c, 1, 81
12, 52656, Channel_aftertouch_c, 1, 75
12, 52664, Channel_aftertouch_c, 1, 52
12, 52676, Channel_aftertouch_c, 1, 41
12, 52700, Channel_aftertouch_c, 1, 25
12, 52712, Channel_aftertouch_c, 1, 0
12, 52736, Note_on_c, 1, 62, 0
12, 52744, Note_on_c, 1, 59, 0
12, 52744, Note_on_c, 1, 67, 0
12, 52992, Note_on_c, 1, 67, 85
12, 52992, Note_on_c, 1, 64, 92
12, 52992, Note_on_c, 1, 59, 96
12, 53004, Channel_aftertouch_c, 1, 72
12, 53012, Channel_aftertouch_c, 1, 76
12, 53028, Channel_aftertouch_c, 1, 77
12, 53040, Channel_aftertouch_c, 1, 79
12, 53048, Channel_aftertouch_c, 1, 80
12, 53060, Channel_aftertouch_c, 1, 76
12, 53072, Channel_aftertouch_c, 1, 69
12, 53084, Channel_aftertouch_c, 1, 66
12, 53096, Channel_aftertouch_c, 1, 50
12, 53108, Channel_aftertouch_c, 1, 6
12, 53120, Channel_aftertouch_c, 1, 0
12, 53176, Note_on_c, 1, 59, 0
12, 53176, Note_on_c, 1, 67, 0
12, 53188, Note_on_c, 1, 64, 0
12, 53376, Note_on_c, 1, 59, 104
12, 53376, Note_on_c, 1, 67, 104
12, 53376, Note_on_c, 1, 64, 100
12, 53384, Channel_aftertouch_c, 1, 41
12, 53396, Channel_aftertouch_c, 1, 77
12, 53408, Channel_aftertouch_c, 1, 75
12, 53420, Channel_aftertouch_c, 1, 68
12, 53428, Channel_aftertouch_c, 1, 65
12, 53452, Channel_aftertouch_c, 1, 61
12, 53464, Channel_aftertouch_c, 1, 49
12, 53476, Channel_aftertouch_c, 1, 39
12, 53488, Channel_aftertouch_c, 1, 0
12, 53528, Note_on_c, 1, 64, 0
12, 53536, Note_on_c, 1, 67, 0
12, 53536, Note_on_c, 1, 59, 0
12, 53760, Note_on_c, 1, 62, 100
12, 53760, Note_on_c, 1, 57, 108
12, 53760, Note_on_c, 1, 67, 104
12, 53788, Channel_aftertouch_c, 1, 85
12, 53800, Channel_aftertouch_c, 1, 86
12, 53808, Channel_aftertouch_c, 1, 79
12, 53824, Channel_aftertouch_c, 1, 78
12, 53832, Channel_aftertouch_c, 1, 77
12, 53844, Channel_aftertouch_c, 1, 72
12, 53856, Channel_aftertouch_c, 1, 60
12, 53868, Channel_aftertouch_c, 1, 35
12, 53880, Channel_aftertouch_c, 1, 0
12, 53920, Note_on_c, 1, 62, 0
12, 53928, Note_on_c, 1, 67, 0
12, 53940, Note_on_c, 1, 57, 0
12, 54144, Note_on_c, 1, 67, 104
12, 54144, Note_on_c, 1, 57, 104
12, 54144, Note_on_c, 1, 62, 108
12, 54176, Channel_aftertouch_c, 1, 39
12, 54188, Channel_aftertouch_c, 1, 80
12, 54200, Channel_aftertouch_c, 1, 73
12, 54212, Channel_aftertouch_c, 1, 69
12, 54224, Channel_aftertouch_c, 1, 66
12, 54232, Channel_aftertouch_c, 1, 60
12, 54248, Channel_aftertouch_c, 1, 45
12, 54256, Channel_aftertouch_c, 1, 14
12, 54268, Channel_aftertouch_c, 1, 0
12, 54288, Note_on_c, 1, 57, 0
12, 54300, Note_on_c, 1, 62, 0
12, 54304, Note_on_c, 1, 67, 0
12, 54528, Note_on_c, 1, 64, 96
12, 54528, Note_on_c, 1, 60, 104
12, 54528, Note_on_c, 1, 67, 108
12, 54560, Channel_aftertouch_c, 1, 71
12, 54568, Channel_aftertouch_c, 1, 66
12, 54584, Channel_aftertouch_c, 1, 48
12, 54592, Channel_aftertouch_c, 1, 43
12, 54608, Channel_aftertouch_c, 1, 41
12, 54616, Channel_aftertouch_c, 1, 29
12, 54628, Channel_aftertouch_c, 1, 0
12, 54672, Note_on_c, 1, 67, 0
12, 54672, Note_on_c, 1, 64, 0
12, 54676, Note_on_c, 1, 60, 0
12, 54912, Note_on_c, 1, 67, 104
12, 54912, Note_on_c, 1, 64, 104
12, 54912, Note_on_c, 1, 60, 108
12, 54928, Channel_aftertouch_c, 1, 31
12, 54940, Channel_aftertouch_c, 1, 75
12, 54952, Channel_aftertouch_c, 1, 69
12, 54960, Channel_aftertouch_c, 1, 64
12, 54976, Channel_aftertouch_c, 1, 64
12, 54996, Channel_aftertouch_c, 1, 56
12, 55008, Channel_aftertouch_c, 1, 44
12, 55020, Channel_aftertouch_c, 1, 35
12, 55032, Channel_aftertouch_c, 1, 0
12, 55072, Note_on_c, 1, 67, 0
12, 55076, Note_on_c, 1, 60, 0
12, 55080, Note_on_c, 1, 64, 0
12, 55296, Note_on_c, 1, 67, 104
12, 55296, Note_on_c, 1, 62, 104
12, 55296, Note_on_c, 1, 59, 104
12, 55304, Channel_aftertouch_c, 1, 77
12, 55316, Channel_aftertouch_c, 1, 66
12, 55328, Channel_aftertouch_c, 1, 71
12, 55340, Channel_aftertouch_c, 1, 57
12, 55352, Channel_aftertouch_c, 1, 53
12, 55364, Channel_aftertouch_c, 1, 56
12, 55376, Channel_aftertouch_c, 1, 56
12, 55388, Channel_aftertouch_c, 1, 54
12, 55400, Channel_aftertouch_c, 1, 52
12, 55412, Channel_aftertouch_c, 1, 34
12, 55424, Channel_aftertouch_c, 1, 0
12, 55460, Note_on_c, 1, 59, 0
12, 55460, Note_on_c, 1, 62, 0
12, 55468, Note_on_c, 1, 67, 0
12, 55680, Note_on_c, 1, 67, 104
12, 55680, Note_on_c, 1, 59, 108
12, 55680, Note_on_c, 1, 62, 108
12, 55696, Channel_aftertouch_c, 1, 3
12, 55708, Channel_aftertouch_c, 1, 72
12, 55732, Channel_aftertouch_c, 1, 73
12, 55744, Channel_aftertouch_c, 1, 75
12, 55764, Channel_aftertouch_c, 1, 71
12, 55776, Channel_aftertouch_c, 1, 67
12, 55788, Channel_aftertouch_c, 1, 66
12, 55800, Channel_aftertouch_c, 1, 62
12, 55812, Channel_aftertouch_c, 1, 50
12, 55824, Channel_aftertouch_c, 1, 28
12, 55836, Channel_aftertouch_c, 1, 0
12, 55856, Note_on_c, 1, 67, 0
12, 55864, Note_on_c, 1, 62, 0
12, 55864, Note_on_c, 1, 59, 0
12, 56064, Note_on_c, 1, 64, 96
12, 56064, Note_on_c, 1, 67, 104
12, 56064, Note_on_c, 1, 59, 108
12, 56076, Channel_aftertouch_c, 1, 46
12, 56088, Channel_aftertouch_c, 1, 77
12, 56100, Channel_aftertouch_c, 1, 78
12, 56112, Channel_aftertouch_c, 1, 69
12, 56124, Channel_aftertouch_c, 1, 66
12, 56148, Channel_aftertouch_c, 1, 65
12, 56160, Channel_aftertouch_c, 1, 60
12, 56168, Channel_aftertouch_c, 1, 50
12, 56184, Channel_aftertouch_c, 1, 20
12, 56192, Channel_aftertouch_c, 1, 0
12, 56224, Note_on_c, 1, 67, 0
12, 56224, Note_on_c, 1, 64, 0
12, 56232, Note_on_c, 1, 59, 0
12, 56448, Note_on_c, 1, 59, 104
12, 56448, Note_on_c, 1, 67, 108
12, 56448, Note_on_c, 1, 64, 104
12, 56464, Channel_aftertouch_c, 1, 40
12, 56476, Channel_aftertouch_c, 1, 82
12, 56496, Channel_aftertouch_c, 1, 80
12, 56532, Channel_aftertouch_c, 1, 79
12, 56540, Channel_aftertouch_c, 1, 73
12, 56552, Channel_aftertouch_c, 1, 68
12, 56568, Channel_aftertouch_c, 1, 51
12, 56576, Channel_aftertouch_c, 1, 0
12, 56604, Note_on_c, 1, 64, 0
12, 56604, Note_on_c, 1, 67, 0
12, 56608, Note_on_c, 1, 59, 0
12, 56832, Note_on_c, 1, 62, 108
12, 56832, Note_on_c, 1, 67, 104
12, 56832, Note_on_c, 1, 57, 108
12, 56840, Channel_aftertouch_c, 1, 25
12, 56852, Channel_aftertouch_c, 1, 58
12, 56864, Channel_aftertouch_c, 1, 41
12, 56876, Channel_aftertouch_c, 1, 0
12, 56956, Note_on_c, 1, 67, 0
12, 56956, Note_on_c, 1, 62, 0
12, 56964, Note_on_c, 1, 57, 0
12, 57216, Note_on_c, 1, 62, 108
12, 57216, Note_on_c, 1, 67, 108
12, 57216, Note_on_c, 1, 57, 113
12, 57220, Channel_aftertouch_c, 1, 72
12, 57232, Channel_aftertouch_c, 1, 80
12, 57240, Channel_aftertouch_c, 1, 68
12, 57256, Channel_aftertouch_c, 1, 58
12, 57264, Channel_aftertouch_c, 1, 66
12, 57280, Channel_aftertouch_c, 1, 67
12, 57288, Channel_aftertouch_c, 1, 57
12, 57300, Channel_aftertouch_c, 1, 41
12, 57312, Channel_aftertouch_c, 1, 36
12, 57320, Channel_aftertouch_c, 1, 0
12, 57376, Note_on_c, 1, 57, 0
12, 57376, Note_on_c, 1, 62, 0
12, 57388, Note_on_c, 1, 67, 0
12, 57600, Note_on_c, 1, 64, 100
12, 57600, Note_on_c, 1, 67, 104
12, 57600, Note_on_c, 1, 60, 96
12, 57616, Channel_aftertouch_c, 1, 71
12, 57624, Channel_aftertouch_c, 1, 78
12, 57648, Channel_aftertouch_c, 1, 76
12, 57660, Channel_aftertouch_c, 1, 74
12, 57672, Channel_aftertouch_c, 1, 70
12, 57684, Channel_aftertouch_c, 1, 58
12, 57696, Channel_aftertouch_c, 1, 47
12, 57708, Channel_aftertouch_c, 1, 15
12, 57720, Channel_aftertouch_c, 1, 0
12, 57760, Note_on_c, 1, 60, 0
12, 57760, Note_on_c, 1, 67, 0
12, 57764, Note_on_c, 1, 64, 0
12, 57984, Note_on_c, 1, 67, 108
12, 57984, Note_on_c, 1, 64, 104
12, 57984, Note_on_c, 1, 60, 104
12, 58000, Channel_aftertouch_c, 1, 55
12, 58012, Channel_aftertouch_c, 1, 80
12, 58024, Channel_aftertouch_c, 1, 69
12, 58036, Channel_aftertouch_c, 1, 55
12, 58060, Channel_aftertouch_c, 1, 62
12, 58080, Channel_aftertouch_c, 1, 57
12, 58092, Channel_aftertouch_c, 1, 55
12, 58104, Channel_aftertouch_c, 1, 47
12, 58112, Channel_aftertouch_c, 1, 32
12, 58128, Channel_aftertouch_c, 1, 2
12, 58136, Channel_aftertouch_c, 1, 0
12, 58168, Note_on_c, 1, 64, 0
12, 58176, Note_on_c, 1, 60, 0
12, 58176, Note_on_c, 1, 67, 0
12, 58368, Note_on_c, 1, 67, 100
12, 58368, Note_on_c, 1, 59, 104
12, 58368, Note_on_c, 1, 62, 104
12, 58404, Channel_aftertouch_c, 1, 69
12, 58416, Channel_aftertouch_c, 1, 41
12, 58424, Channel_aftertouch_c, 1, 0
12, 58492, Note_on_c, 1, 59, 0
12, 58496, Note_on_c, 1, 62, 0
12, 58496, Note_on_c, 1, 67, 0
12, 58752, Note_on_c, 1, 67, 108
12, 58752, Note_on_c, 1, 62, 104
12, 58752, Note_on_c, 1, 59, 108
12, 58784, Channel_aftertouch_c, 1, 81
12, 58800, Channel_aftertouch_c, 1, 75
12, 58808, Channel_aftertouch_c, 1, 52
12, 58820, Channel_aftertouch_c, 1, 41
12, 58844, Channel_aftertouch_c, 1, 25
12, 58856, Channel_aftertouch_c, 1, 0
12, 58880, Note_on_c, 1, 62, 0
12, 58888, Note_on_c, 1, 59, 0
12, 58888, Note_on_c, 1, 67, 0
12, 59136, Note_on_c, 1, 67, 85
12, 59136, Note_on_c, 1, 64, 92
12, 59136, Note_on_c, 1, 59, 96
12, 59148, Channel_aftertouch_c, 1, 72
12, 59156, Channel_aftertouch_c, 1, 76
12, 59172, Channel_aftertouch_c, 1, 77
12, 59184, Channel_aftertouch_c, 1, 79
12, 59192, Channel_aftertouch_c, 1, 80
12, 59204, Channel_aftertouch_c, 1, 76
12, 59216, Channel_aftertouch_c, 1, 69
12, 59228, Channel_aftertouch_c, 1, 66
12, 59240, Channel_aftertouch_c, 1, 50
12, 59252, Channel_aftertouch_c, 1, 6
12, 59264, Channel_aftertouch_c, 1, 0
12, 59320, Note_on_c, 1, 59, 0
12, 59320, Note_on_c, 1, 67, 0
12, 59332, Note_on_c, 1, 64, 0
12, 59520, Note_on_c, 1, 59, 104
12, 59520, Note_on_c, 1, 67, 104
12, 59520, Note_on_c, 1, 64, 100
12, 59528, Channel_aftertouch_c, 1, 41
12, 59540, Channel_aftertouch_c, 1, 77
12, 59552, Channel_aftertouch_c, 1, 75
12, 59564, Channel_aftertouch_c, 1, 68
12, 59572, Channel_aftertouch_c, 1, 65
12, 59596, Channel_aftertouch_c, 1, 61
12, 59608, Channel_aftertouch_c, 1, 49
12, 59620, Channel_aftertouch_c, 1, 39
12, 59632, Channel_aftertouch_c, 1, 0
12, 59672, Note_on_c, 1, 64, 0
12, 59680, Note_on_c, 1, 67, 0
12, 59680, Note_on_c, 1, 59, 0
12, 59904, Note_on_c, 1, 62, 100
12, 59904, Note_on_c, 1, 57, 108
12, 59904, Note_on_c, 1, 67, 104
12, 59932, Channel_aftertouch_c, 1, 85
12, 59944, Channel_aftertouch_c, 1, 86
12, 59952, Channel_aftertouch_c, 1, 79
12, 59968, Channel_aftertouch_c, 1, 78
12, 59976, Channel_aftertouch_c, 1, 77
12, 59988, Channel_aftertouch_c, 1, 72
12, 60000, Channel_aftertouch_c, 1, 60
12, 60012, Channel_aftertouch_c, 1, 35
12, 60024, Channel_aftertouch_c, 1, 0
12, 60064, Note_on_c, 1, 62, 0
12, 60072, Note_on_c, 1, 67, 0
12, 60084, Note_on_c, 1, 57, 0
12, 60288, Note_on_c, 1, 67, 104
12, 60288, Note_on_c, 1, 57, 104
12, 60288, Note_on_c, 1, 62, 108
12, 60320, Channel_aftertouch_c, 1, 39
12, 60332, Channel_aftertouch_c, 1, 80
12, 60344, Channel_aftertouch_c, 1, 73
12, 60356, Channel_aftertouch_c, 1, 69
12, 60368, Channel_aftertouch_c, 1, 66
12, 60376, Channel_aftertouch_c, 1, 60
12, 60392, Channel_aftertouch_c, 1, 45
12, 60400, Channel_aftertouch_c, 1, 14
12, 60412, Channel_aftertouch_c, 1, 0
12, 60432, Note_on_c, 1, 57, 0
12, 60444, Note_on_c, 1, 62, 0
12, 60448, Note_on_c, 1, 67, 0
12, 60672, Note_on_c, 1, 64, 96
12, 60672, Note_on_c, 1, 60, 104
12, 60672, Note_on_c, 1, 67, 108
12, 60704, Channel_aftertouch_c, 1, 71
12, 60712, Channel_aftertouch_c, 1, 66
12, 60728, Channel_aftertouch_c, 1, 48
12, 60736, Channel_aftertouch_c, 1, 43
12, 60752, Channel_aftertouch_c, 1, 41
12, 60760, Channel_aftertouch_c, 1, 29
12, 60772, Channel_aftertouch_c, 1, 0
12, 60816, Note_on_c, 1, 67, 0
12, 60816, Note_on_c, 1, 64, 0
12, 60820, Note_on_c, 1, 60, 0
12, 61056, Note_on_c, 1, 67, 104
12, 61056, Note_on_c, 1, 64, 104
12, 61056, Note_on_c, 1, 60, 108
12, 61072, Channel_aftertouch_c, 1, 31
12, 61084, Channel_aftertouch_c, 1, 75
12, 61096, Channel_aftertouch_c, 1, 69
12, 61104, Channel_aftertouch_c, 1, 64
12, 61120, Channel_aftertouch_c, 1, 64
12, 61140, Channel_aftertouch_c, 1, 56
12, 61152, Channel_aftertouch_c, 1, 44
12, 61164, Channel_aftertouch_c, 1, 35
12, 61176, Channel_aftertouch_c, 1, 0
12, 61216, Note_on_c, 1, 67, 0
12, 61220, Note_on_c, 1, 60, 0
12, 61224, Note_on_c, 1, 64, 0
12, 61440, Note_on_c, 1, 67, 104
12, 61440, Note_on_c, 1, 62, 104
12, 61440, Note_on_c, 1, 59, 104
12, 61448, Channel_aftertouch_c, 1, 77
12, 61460, Channel_aftertouch_c, 1, 66
12, 61472, Channel_aftertouch_c, 1, 71
12, 61484, Channel_aftertouch_c, 1, 57
12, 61496, Channel_aftertouch_c, 1, 53
12, 61508, Channel_aftertouch_c, 1, 56
12, 61520, Channel_aftertouch_c, 1, 56
12, 61532, Channel_aftertouch_c, 1, 54
12, 61544, Channel_aftertouch_c, 1, 52
12, 61556, Channel_aftertouch_c, 1, 34
12, 61568, Channel_aftertouch_c, 1, 0
12, 61604, Note_on_c, 1, 59, 0
12, 61604, Note_on_c, 1, 62, 0
12, 61612, Note_on_c, 1, 67, 0
12, 61824, Note_on_c, 1, 67, 104
12, 61824, Note_on_c, 1, 59, 108
12, 61824, Note_on_c, 1, 62, 108
12, 61840, Channel_aftertouch_c, 1, 3
12, 61852, Channel_aftertouch_c, 1, 72
12, 61876, Channel_aftertouch_c, 1, 73
12, 61888, Channel_aftertouch_c, 1, 75
12, 61908, Channel_aftertouch_c, 1, 71
12, 61920, Channel_aftertouch_c, 1, 67
12, 61932, Channel_aftertouch_c, 1, 66
12, 61944, Channel_aftertouch_c, 1, 62
12, 61956, Channel_aftertouch_c, 1, 50
12, 61968, Channel_aftertouch_c, 1, 28
12, 61980, Channel_aftertouch_c, 1, 0
12, 62000, Note_on_c, 1, 67, 0
12, 62008, Note_on_c, 1, 62, 0
12, 62008, Note_on_c, 1, 59, 0
12, 62208, Note_on_c, 1, 64, 96
12, 62208, Note_on_c, 1, 67, 104
12, 62208, Note_on_c, 1, 59, 108
12, 62220, Channel_aftertouch_c, 1, 46
12, 62232, Channel_aftertouch_c, 1, 77
12, 62244, Channel_aftertouch_c, 1, 78
12, 62256, Channel_aftertouch_c, 1, 69
12, 62268, Channel_aftertouch_c, 1, 66
12, 62292, Channel_aftertouch_c, 1, 65
12, 62304, Channel_aftertouch_c, 1, 60
12, 62312, Channel_aftertouch_c, 1, 50
12, 62328, Channel_aftertouch_c, 1, 20
12, 62336, Channel_aftertouch_c, 1, 0
12, 62368, Note_on_c, 1, 67, 0
12, 62368, Note_on_c, 1, 64, 0
12, 62376, Note_on_c, 1, 59, 0
12, 62592, Note_on_c, 1, 59, 104
12, 62592, Note_on_c, 1, 67, 108
12, 62592, Note_on_c, 1, 64, 104
12, 62608, Channel_aftertouch_c, 1, 40
12, 62620, Channel_aftertouch_c, 1, 82
12, 62640, Channel_aftertouch_c, 1, 80
12, 62676, Channel_aftertouch_c, 1, 79
12, 62684, Channel_aftertouch_c, 1, 73
12, 62696, Channel_aftertouch_c, 1, 68
12, 62712, Channel_aftertouch_c, 1, 51
12, 62720, Channel_aftertouch_c, 1, 0
12, 62748, Note_on_c, 1, 64, 0
12, 62748, Note_on_c, 1, 67, 0
12, 62752, Note_on_c, 1, 59, 0
12, 62976, Note_on_c, 1, 62, 108
12, 62976, Note_on_c, 1, 67, 104
12, 62976, Note_on_c, 1, 57, 108
12, 62984, Channel_aftertouch_c, 1, 25
12, 62996, Channel_aftertouch_c, 1, 58
12, 63008, Channel_aftertouch_c, 1, 41
12, 63020, Channel_aftertouch_c, 1, 0
12, 63100, Note_on_c, 1, 67, 0
12, 63100, Note_on_c, 1, 62, 0
12, 63108, Note_on_c, 1, 57, 0
12, 63360, Note_on_c, 1, 62, 108
12, 63360, Note_on_c, 1, 67, 108
12, 63360, Note_on_c, 1, 57, 113
12, 63364, Channel_aftertouch_c, 1, 72
12, 63376, Channel_aftertouch_c, 1, 80
12, 63384, Channel_aftertouch_c, 1, 68
12, 63400, Channel_aftertouch_c, 1, 58
12, 63408, Channel_aftertouch_c, 1, 66
12, 63424, Channel_aftertouch_c, 1, 67
12, 63432, Channel_aftertouch_c, 1, 57
12, 63444, Channel_aftertouch_c, 1, 41
12, 63456, Channel_aftertouch_c, 1, 36
12, 63464, Channel_aftertouch_c, 1, 0
12, 63520, Note_on_c, 1, 57, 0
12, 63520, Note_on_c, 1, 62, 0
12, 63532, Note_on_c, 1, 67, 0
12, 63744, Note_on_c, 1, 64, 100
12, 63744, Note_on_c, 1, 67, 104
12, 63744, Note_on_c, 1, 60, 96
12, 63760, Channel_aftertouch_c, 1, 71
12, 63768, Channel_aftertouch_c, 1, 78
12, 63792, Channel_aftertouch_c, 1, 76
12, 63804, Channel_aftertouch_c, 1, 74
12, 63816, Channel_aftertouch_c, 1, 70
12, 63828, Channel_aftertouch_c, 1, 58
12, 63840, Channel_aftertouch_c, 1, 47
12, 63852, Channel_aftertouch_c, 1, 15
12, 63864, Channel_aftertouch_c, 1, 0
12, 63904, Note_on_c, 1, 60, 0
12, 63904, Note_on_c, 1, 67, 0
12, 63908, Note_on_c, 1, 64, 0
12, 64128, Note_on_c, 1, 67, 108
12, 64128, Note_on_c, 1, 64, 104
12, 64128, Note_on_c, 1, 60, 104
12, 64144, Channel_aftertouch_c, 1, 55
12, 64156, Channel_aftertouch_c, 1, 80
12, 64168, Channel_aftertouch_c, 1, 69
12, 64180, Channel_aftertouch_c, 1, 55
12, 64204, Channel_aftertouch_c, 1, 62
12, 64224, Channel_aftertouch_c, 1, 57
12, 64236, Channel_aftertouch_c, 1, 55
12, 64248, Channel_aftertouch_c, 1, 47
12, 64256, Channel_aftertouch_c, 1, 32
12, 64272, Channel_aftertouch_c, 1, 2
12, 64280, Channel_aftertouch_c, 1, 0
12, 64312, Note_on_c, 1, 64, 0
12, 64320, Note_on_c, 1, 60, 0
12, 64320, Note_on_c, 1, 67, 0
12, 64512, Note_on_c, 1, 67, 100
12, 64512, Note_on_c, 1, 59, 104
12, 64512, Note_on_c, 1, 62, 104
12, 64548, Channel_aftertouch_c, 1, 69
12, 64560, Channel_aftertouch_c, 1, 41
12, 64568, Channel_aftertouch_c, 1, 0
12, 64636, Note_on_c, 1, 59, 0
12, 64640, Note_on_c, 1, 62, 0
12, 64640, Note_on_c, 1, 67, 0
12, 64896, Note_on_c, 1, 67, 108
12, 64896, Note_on_c, 1, 62, 104
12, 64896, Note_on_c, 1, 59, 108
12, 64928, Channel_aftertouch_c, 1, 81
12, 64944, Channel_aftertouch_c, 1, 75
12, 64952, Channel_aftertouch_c, 1, 52
12, 64964, Channel_aftertouch_c, 1, 41
12, 64988, Channel_aftertouch_c, 1, 25
12, 65000, Channel_aftertouch_c, 1, 0
12, 65024, Note_on_c, 1, 62, 0
12, 65032, Note_on_c, 1, 59, 0
12, 65032, Note_on_c, 1, 67, 0
12, 65280, Note_on_c, 1, 67, 85
12, 65280, Note_on_c, 1, 64, 92
12, 65280, Note_on_c, 1, 59, 96
12, 65292, Channel_aftertouch_c, 1, 72
12, 65300, Channel_aftertouch_c, 1, 76
12, 65316, Channel_aftertouch_c, 1, 77
12, 65328, Channel_aftertouch_c, 1, 79
12, 65336, Channel_aftertouch_c, 1, 80
12, 65348, Channel_aftertouch_c, 1, 76
12, 65360, Channel_aftertouch_c, 1, 69
12, 65372, Channel_aftertouch_c, 1, 66
12, 65384, Channel_aftertouch_c, 1, 50
12, 65396, Channel_aftertouch_c, 1, 6
12, 65408, Channel_aftertouch_c, 1, 0
12, 65464, Note_on_c, 1, 59, 0
12, 65464, Note_on_c, 1, 67, 0
12, 65476, Note_on_c, 1, 64, 0
12, 65664, Note_on_c, 1, 59, 104
12, 65664, Note_on_c, 1, 67, 104
12, 65664, Note_on_c, 1, 64, 100
12, 65672, Channel_aftertouch_c, 1, 41
12, 65684, Channel_aftertouch_c, 1, 77
12, 65696, Channel_aftertouch_c, 1, 75
12, 65708, Channel_aftertouch_c, 1, 68
12, 65716, Channel_aftertouch_c, 1, 65
12, 65740, Channel_aftertouch_c, 1, 61
12, 65752, Channel_aftertouch_c, 1, 49
12, 65764, Channel_aftertouch_c, 1, 39
12, 65776, Channel_aftertouch_c, 1, 0
12, 65816, Note_on_c, 1, 64, 0
12, 65824, Note_on_c, 1, 67, 0
12, 65824, Note_on_c, 1, 59, 0
12, 66048, Note_on_c, 1, 62, 100
12, 66048, Note_on_c, 1, 57, 108
12, 66048, Note_on_c, 1, 67, 104
12, 66076, Channel_aftertouch_c, 1, 85
12, 66088, Channel_aftertouch_c, 1, 86
12, 66096, Channel_aftertouch_c, 1, 79
12, 66112, Channel_aftertouch_c, 1, 78
12, 66120, Channel_aftertouch_c, 1, 77
12, 66132, Channel_aftertouch_c, 1, 72
12, 66144, Channel_aftertouch_c, 1, 60
12, 66156, Channel_aftertouch_c, 1, 35
12, 66168, Channel_aftertouch_c, 1, 0
12, 66208, Note_on_c, 1, 62, 0
12, 66216, Note_on_c, 1, 67, 0
12, 66228, Note_on_c, 1, 57, 0
12, 66432, Note_on_c, 1, 67, 104
12, 66432, Note_on_c, 1, 57, 104
12, 66432, Note_on_c, 1, 62, 108
12, 66464, Channel_aftertouch_c, 1, 39
12, 66476, Channel_aftertouch_c, 1, 80
12, 66488, Channel_aftertouch_c, 1, 73
12, 66500, Channel_aftertouch_c, 1, 69
12, 66512, Channel_aftertouch_c, 1, 66
12, 66520, Channel_aftertouch_c, 1, 60
12, 66536, Channel_aftertouch_c, 1, 45
12, 66544, Channel_aftertouch_c, 1, 14
12, 66556, Channel_aftertouch_c, 1, 0
12, 66576, Note_on_c, 1, 57, 0
12, 66588, Note_on_c, 1, 62, 0
12, 66592, Note_on_c, 1, 67, 0
12, 66816, Note_on_c, 1, 64, 96
12, 66816, Note_on_c, 1, 60, 104
12, 66816, Note_on_c, 1, 67, 108
12, 66848, Channel_aftertouch_c, 1, 71
12, 66856, Channel_aftertouch_c, 1, 66
12, 66872, Channel_aftertouch_c, 1, 48
12, 66880, Channel_aftertouch_c, 1, 43
12, 66896, Channel_aftertouch_c, 1, 41
12, 66904, Channel_aftertouch_c, 1, 29
12, 66916, Channel_aftertouch_c, 1, 0
12, 66960, Note_on_c, 1, 67, 0
12, 66960, Note_on_c, 1, 64, 0
12, 66964, Note_on_c, 1, 60, 0
12, 67200, Note_on_c, 1, 67, 104
12, 67200, Note_on_c, 1, 64, 104
12, 67200, Note_on_c, 1, 60, 108
12, 67216, Channel_aftertouch_c, 1, 31
12, 67228, Channel_aftertouch_c, 1, 75
12, 67240, Channel_aftertouch_c, 1, 69
12, 67248, Channel_aftertouch_c, 1, 64
12, 67264, Channel_aftertouch_c, 1, 64
12, 67284, Channel_aftertouch_c, 1, 56
12, 67296, Channel_aftertouch_c, 1, 44
12, 67308, Channel_aftertouch_c, 1, 35
12, 67320, Channel_aftertouch_c, 1, 0
12, 67360, Note_on_c, 1, 67, 0
12, 67364, Note_on_c, 1, 60, 0
12, 67368, Note_on_c, 1, 64, 0
12, 67584, Note_on_c, 1, 67, 104
12, 67584, Note_on_c, 1, 62, 104
12, 67584, Note_on_c, 1, 59, 104
12, 67592, Channel_aftertouch_c, 1, 77
12, 67604, Channel_aftertouch_c, 1, 66
12, 67616, Channel_aftertouch_c, 1, 71
12, 67628, Channel_aftertouch_c, 1, 57
12, 67640, Channel_aftertouch_c, 1, 53
12, 67652, Channel_aftertouch_c, 1, 56
12, 67664, Channel_aftertouch_c, 1, 56
12, 67676, Channel_aftertouch_c, 1, 54
12, 67688, Channel_aftertouch_c, 1, 52
12, 67700, Channel_aftertouch_c, 1, 34
12, 67712, Channel_aftertouch_c, 1, 0
12, 67748, Note_on_c, 1, 59, 0
12, 67748, Note_on_c, 1, 62, 0
12, 67756, Note_on_c, 1, 67, 0
12, 67968, Note_on_c, 1, 67, 104
12, 67968, Note_on_c, 1, 59, 108
12, 67968, Note_on_c, 1, 62, 108
12, 67984, Channel_aftertouch_c, 1, 3
12, 67996, Channel_aftertouch_c, 1, 72
12, 68020, Channel_aftertouch_c, 1, 73
12, 68032, Channel_aftertouch_c, 1, 75
12, 68052, Channel_aftertouch_c, 1, 71
12, 68064, Channel_aftertouch_c, 1, 67
12, 68076, Channel_aftertouch_c, 1, 66
12, 68088, Channel_aftertouch_c, 1, 62
12, 68100, Channel_aftertouch_c, 1, 50
12, 68112, Channel_aftertouch_c, 1, 28
12, 68124, Channel_aftertouch_c, 1, 0
12, 68144, Note_on_c, 1, 67, 0
12, 68152, Note_on_c, 1, 62, 0
12, 68152, Note_on_c, 1, 59, 0
12, 68352, Note_on_c, 1, 64, 96
12, 68352, Note_on_c, 1, 67, 104
12, 68352, Note_on_c, 1, 59, 108
12, 68364, Channel_aftertouch_c, 1, 46
12, 68376, Channel_aftertouch_c, 1, 77
12, 68388, Channel_aftertouch_c, 1, 78
12, 68400, Channel_aftertouch_c, 1, 69
12, 68412, Channel_aftertouch_c, 1, 66
12, 68436, Channel_aftertouch_c, 1, 65
12, 68448, Channel_aftertouch_c, 1, 60
12, 68456, Channel_aftertouch_c, 1, 50
12, 68472, Channel_aftertouch_c, 1, 20
12, 68480, Channel_aftertouch_c, 1, 0
12, 68512, Note_on_c, 1, 67, 0
12, 68512, Note_on_c, 1, 64, 0
12, 68520, Note_on_c, 1, 59, 0
12, 68736, Note_on_c, 1, 59, 104
12, 68736, Note_on_c, 1, 67, 108
12, 68736, Note_on_c, 1, 64, 104
12, 68752, Channel_aftertouch_c, 1, 40
12, 68764, Channel_aftertouch_c, 1, 82
12, 68784, Channel_aftertouch_c, 1, 80
12, 68820, Channel_aftertouch_c, 1, 79
12, 68828, Channel_aftertouch_c, 1, 73
12, 68840, Channel_aftertouch_c, 1, 68
12, 68856, Channel_aftertouch_c, 1, 51
12, 68864, Channel_aftertouch_c, 1, 0
12, 68892, Note_on_c, 1, 64, 0
12, 68892, Note_on_c, 1, 67, 0
12, 68896, Note_on_c, 1, 59, 0
12, 69120, Note_on_c, 1, 62, 108
12, 69120, Note_on_c, 1, 67, 104
12, 69120, Note_on_c, 1, 57, 108
12, 69128, Channel_aftertouch_c, 1, 25
12, 69140, Channel_aftertouch_c, 1, 58
12, 69152, Channel_aftertouch_c, 1, 41
12, 69164, Channel_aftertouch_c, 1, 0
12, 69244, Note_on_c, 1, 67, 0
12, 69244, Note_on_c, 1, 62, 0
12, 69252, Note_on_c, 1, 57, 0
12, 69504, Note_on_c, 1, 62, 108
12, 69504, Note_on_c, 1, 67, 108
12, 69504, Note_on_c, 1, 57, 113
12, 69508, Channel_aftertouch_c, 1, 72
12, 69520, Channel_aftertouch_c, 1, 80
12, 69528, Channel_aftertouch_c, 1, 68
12, 69544, Channel_aftertouch_c, 1, 58
12, 69552, Channel_aftertouch_c, 1, 66
12, 69568, Channel_aftertouch_c, 1, 67
12, 69576, Channel_aftertouch_c, 1, 57
12, 69588, Channel_aftertouch_c, 1, 41
12, 69600, Channel_aftertouch_c, 1, 36
12, 69608, Channel_aftertouch_c, 1, 0
12, 69664, Note_on_c, 1, 57, 0
12, 69664, Note_on_c, 1, 62, 0
12, 69676, Note_on_c, 1, 67, 0
12, 69888, Note_on_c, 1, 64, 100
12, 69888, Note_on_c, 1, 67, 104
12, 69888, Note_on_c, 1, 60, 96
12, 69904, Channel_aftertouch_c, 1, 71
12, 69912, Channel_aftertouch_c, 1, 78
12, 69936, Channel_aftertouch_c, 1, 76
12, 69948, Channel_aftertouch_c, 1, 74
12, 69960, Channel_aftertouch_c, 1, 70
12, 69972, Channel_aftertouch_c, 1, 58
12, 69984, Channel_aftertouch_c, 1, 47
12, 69996, Channel_aftertouch_c, 1, 15
12, 70008, Channel_aftertouch_c, 1, 0
12, 70048, Note_on_c, 1, 60, 0
12, 70048, Note_on_c, 1, 67, 0
12, 70052, Note_on_c, 1, 64, 0
12, 70272, Note_on_c, 1, 67, 108
12, 70272, Note_on_c, 1, 64, 104
12, 70272, Note_on_c, 1, 60, 104
12, 70288, Channel_aftertouch_c, 1, 55
12, 70300, Channel_aftertouch_c, 1, 80
12, 70312, Channel_aftertouch_c, 1, 69
12, 70324, Channel_aftertouch_c, 1, 55
12, 70348, Channel_aftertouch_c, 1, 62
12, 70368, Channel_aftertouch_c, 1, 57
12, 70380, Channel_aftertouch_c, 1, 55
12, 70392, Channel_aftertouch_c, 1, 47
12, 70400, Channel_aftertouch_c, 1, 32
12, 70416, Channel_aftertouch_c, 1, 2
12, 70424, Channel_aftertouch_c, 1, 0
12, 70456, Note_on_c, 1, 64, 0
12, 70464, Note_on_c, 1, 60, 0
12, 70464, Note_on_c, 1, 67, 0
12, 70656, Note_on_c, 1, 67, 104
12, 70656, Note_on_c, 1, 62, 104
12, 70656, Note_on_c, 1, 59, 104
12, 70664, Channel_aftertouch_c, 1, 77
12, 70676, Channel_aftertouch_c, 1, 66
12, 70688, Channel_aftertouch_c, 1, 71
12, 70700, Channel_aftertouch_c, 1, 57
12, 70712, Channel_aftertouch_c, 1, 53
12, 70724, Channel_aftertouch_c, 1, 56
12, 70736, Channel_aftertouch_c, 1, 56
12, 70748, Channel_aftertouch_c, 1, 54
12, 70760, Channel_aftertouch_c, 1, 52
12, 70772, Channel_aftertouch_c, 1, 34
12, 70784, Channel_aftertouch_c, 1, 0
12, 70820, Note_on_c, 1, 59, 0
12, 70820, Note_on_c, 1, 62, 0
12, 70828, Note_on_c, 1, 67, 0
12, 71040, Note_on_c, 1, 67, 104
12, 71040, Note_on_c, 1, 59, 108
12, 71040, Note_on_c, 1, 62, 108
12, 71056, Channel_aftertouch_c, 1, 3
12, 71068, Channel_aftertouch_c, 1, 72
12, 71092, Channel_aftertouch_c, 1, 73
12, 71104, Channel_aftertouch_c, 1, 75
12, 71124, Channel_aftertouch_c, 1, 71
12, 71136, Channel_aftertouch_c, 1, 67
12, 71148, Channel_aftertouch_c, 1, 66
12, 71160, Channel_aftertouch_c, 1, 62
12, 71172, Channel_aftertouch_c, 1, 50
12, 71184, Channel_aftertouch_c, 1, 28
12, 71196, Channel_aftertouch_c, 1, 0
12, 71216, Note_on_c, 1, 67, 0
12, 71224, Note_on_c, 1, 62, 0
12, 71224, Note_on_c, 1, 59, 0
12, 71424, Note_on_c, 1, 64, 96
12, 71424, Note_on_c, 1, 67, 104
12, 71424, Note_on_c, 1, 59, 108
12, 71436, Channel_aftertouch_c, 1, 46
12, 71448, Channel_aftertouch_c, 1, 77
12, 71460, Channel_aftertouch_c, 1, 78
12, 71472, Channel_aftertouch_c, 1, 69
12, 71484, Channel_aftertouch_c, 1, 66
12, 71508, Channel_aftertouch_c, 1, 65
12, 71520, Channel_aftertouch_c, 1, 60
12, 71528, Channel_aftertouch_c, 1, 50
12, 71544, Channel_aftertouch_c, 1, 20
12, 71552, Channel_aftertouch_c, 1, 0
12, 71584, Note_on_c, 1, 67, 0
12, 71584, Note_on_c, 1, 64, 0
12, 71592, Note_on_c, 1, 59, 0
12, 71808, Note_on_c, 1, 59, 104
12, 71808, Note_on_c, 1, 67, 108
12, 71808, Note_on_c, 1, 64, 104
12, 71824, Channel_aftertouch_c, 1, 40
12, 71836, Channel_aftertouch_c, 1, 82
12, 71856, Channel_aftertouch_c, 1, 80
12, 71892, Channel_aftertouch_c, 1, 79
12, 71900, Channel_aftertouch_c, 1, 73
12, 71912, Channel_aftertouch_c, 1, 68
12, 71928, Channel_aftertouch_c, 1, 51
12, 71936, Channel_aftertouch_c, 1, 0
12, 71964, Note_on_c, 1, 64, 0
12, 71964, Note_on_c, 1, 67, 0
12, 71968, Note_on_c, 1, 59, 0
12, 72192, Note_on_c, 1, 62, 108
12, 72192, Note_on_c, 1, 67, 104
12, 72192, Note_on_c, 1, 57, 108
12, 72200, Channel_aftertouch_c, 1, 25
12, 72212, Channel_aftertouch_c, 1, 58
12, 72224, Channel_aftertouch_c, 1, 41
12, 72236, Channel_aftertouch_c, 1, 0
12, 72316, Note_on_c, 1, 67, 0
12, 72316, Note_on_c, 1, 62, 0
12, 72324, Note_on_c, 1, 57, 0
12, 72576, Note_on_c, 1, 62, 108
12, 72576, Note_on_c, 1, 67, 108
12, 72576, Note_on_c, 1, 57, 113
12, 72580, Channel_aftertouch_c, 1, 72
12, 72592, Channel_aftertouch_c, 1, 80
12, 72600, Channel_aftertouch_c, 1, 68
12, 72616, Channel_aftertouch_c, 1, 58
12, 72624, Channel_aftertouch_c, 1, 66
12, 72640, Channel_aftertouch_c, 1, 67
12, 72648, Channel_aftertouch_c, 1, 57
12, 72660, Channel_aftertouch_c, 1, 41
12, 72672, Channel_aftertouch_c, 1, 36
12, 72680, Channel_aftertouch_c, 1, 0
12, 72736, Note_on_c, 1, 57, 0
12, 72736, Note_on_c, 1, 62, 0
12, 72748, Note_on_c, 1, 67, 0
12, 72960, Note_on_c, 1, 64, 100
12, 72960, Note_on_c, 1, 67, 104
12, 72960, Note_on_c, 1, 60, 96
12, 72976, Channel_aftertouch_c, 1, 71
12, 72984, Channel_aftertouch_c, 1, 78
12, 73008, Channel_aftertouch_c, 1, 76
12, 73020, Channel_aftertouch_c, 1, 74
12, 73032, Channel_aftertouch_c, 1, 70
12, 73044, Channel_aftertouch_c, 1, 58
12, 73056, Channel_aftertouch_c, 1, 47
12, 73068, Channel_aftertouch_c, 1, 15
12, 73080, Channel_aftertouch_c, 1, 0
12, 73120, Note_on_c, 1, 60, 0
12, 73120, Note_on_c, 1, 67, 0
12, 73124, Note_on_c, 1, 64, 0
12, 73344, Note_on_c, 1, 67, 108
12, 73344, Note_on_c, 1, 64, 104
12, 73344, Note_on_c, 1, 60, 104
12, 73360, Channel_aftertouch_c, 1, 55
12, 73372, Channel_aftertouch_c, 1, 80
12, 73384, Channel_aftertouch_c, 1, 69
12, 73396, Channel_aftertouch_c, 1, 55
12, 73420, Channel_aftertouch_c, 1, 62
12, 73440, Channel_aftertouch_c, 1, 57
12, 73452, Channel_aftertouch_c, 1, 55
12, 73464, Channel_aftertouch_c, 1, 47
12, 73472, Channel_aftertouch_c, 1, 32
12, 73488, Channel_aftertouch_c, 1, 2
12, 73496, Channel_aftertouch_c, 1, 0
12, 73528, Note_on_c, 1, 64, 0
12, 73536, Note_on_c, 1, 60, 0
12, 73536, Note_on_c, 1, 67, 0
12, 73728, Note_on_c, 1, 67, 104
12, 73728, Note_on_c, 1, 62, 104
12, 73728, Note_on_c, 1, 59, 104
12, 73736, Channel_aftertouch_c, 1, 77
12, 73748, Channel_aftertouch_c, 1, 66
12, 73760, Channel_aftertouch_c, 1, 71
12, 73772, Channel_aftertouch_c, 1, 57
12, 73784, Channel_aftertouch_c, 1, 53
12, 73796, Channel_aftertouch_c, 1, 56
12, 73808, Channel_aftertouch_c, 1, 56
12, 73820, Channel_aftertouch_c, 1, 54
12, 73832, Channel_aftertouch_c, 1, 52
12, 73844, Channel_aftertouch_c, 1, 34
12, 73856, Channel_aftertouch_c, 1, 0
12, 73892, Note_on_c, 1, 59, 0
12, 73892, Note_on_c, 1, 62, 0
12, 73900, Note_on_c, 1, 67, 0
12, 74112, Note_on_c, 1, 67, 104
12, 74112, Note_on_c, 1, 59, 108
12, 74112, Note_on_c, 1, 62, 108
12, 74128, Channel_aftertouch_c, 1, 3
12, 74140, Channel_aftertouch_c, 1, 72
12, 74164, Channel_aftertouch_c, 1, 73
12, 74176, Channel_aftertouch_c, 1, 75
12, 74196, Channel_aftertouch_c, 1, 71
12, 74208, Channel_aftertouch_c, 1, 67
12, 74220, Channel_aftertouch_c, 1, 66
12, 74232, Channel_aftertouch_c, 1, 62
12, 74244, Channel_aftertouch_c, 1, 50
12, 74256, Channel_aftertouch_c, 1, 28
12, 74268, Channel_aftertouch_c, 1, 0
12, 74288, Note_on_c, 1, 67, 0
12, 74296, Note_on_c, 1, 62, 0
12, 74296, Note_on_c, 1, 59, 0
12, 74496, Note_on_c, 1, 64, 96
12, 74496, Note_on_c, 1, 67, 104
12, 74496, Note_on_c, 1, 59, 108
12, 74508, Channel_aftertouch_c, 1, 46
12, 74520, Channel_aftertouch_c, 1, 77
12, 74532, Channel_aftertouch_c, 1, 78
12, 74544, Channel_aftertouch_c, 1, 69
12, 74556, Channel_aftertouch_c, 1, 66
12, 74580, Channel_aftertouch_c, 1, 65
12, 74592, Channel_aftertouch_c, 1, 60
12, 74600, Channel_aftertouch_c, 1, 50
12, 74616, Channel_aftertouch_c, 1, 20
12, 74624, Channel_aftertouch_c, 1, 0
12, 74656, Note_on_c, 1, 67, 0
12, 74656, Note_on_c, 1, 64, 0
12, 74664, Note_on_c, 1, 59, 0
12, 74880, Note_on_c, 1, 59, 104
12, 74880, Note_on_c, 1, 67, 108
12, 74880, Note_on_c, 1, 64, 104
12, 74896, Channel_aftertouch_c, 1, 40
12, 74908, Channel_aftertouch_c, 1, 82
12, 74928, Channel_aftertouch_c, 1, 80
12, 74964, Channel_aftertouch_c, 1, 79
12, 74972, Channel_aftertouch_c, 1, 73
12, 74984, Channel_aftertouch_c, 1, 68
12, 75000, Channel_aftertouch_c, 1, 51
12, 75008, Channel_aftertouch_c, 1, 0
12, 75036, Note_on_c, 1, 64, 0
12, 75036, Note_on_c, 1, 67, 0
12, 75040, Note_on_c, 1, 59, 0
12, 75264, Note_on_c, 1, 67, 96
12, 75264, Note_on_c, 1, 62, 92
12, 75264, Note_on_c, 1, 57, 100
12, 75300, Channel_aftertouch_c, 1, 57
12, 75312, Channel_aftertouch_c, 1, 71
12, 75324, Channel_aftertouch_c, 1, 51
12, 75336, Channel_aftertouch_c, 1, 0
12, 75376, Note_on_c, 1, 62, 0
12, 75388, Note_on_c, 1, 57, 0
12, 75392, Note_on_c, 1, 67, 0
12, 75648, Note_on_c, 1, 67, 96
12, 75648, Note_on_c, 1, 62, 96
12, 75648, Note_on_c, 1, 57, 100
12, 75684, Channel_aftertouch_c, 1, 77
12, 75696, Channel_aftertouch_c, 1, 80
12, 75708, Channel_aftertouch_c, 1, 70
12, 75720, Channel_aftertouch_c, 1, 61
12, 75732, Channel_aftertouch_c, 1, 59
12, 75744, Channel_aftertouch_c, 1, 52
12, 75756, Channel_aftertouch_c, 1, 13
12, 75768, Channel_aftertouch_c, 1, 0
12, 75788, Note_on_c, 1, 67, 0
12, 75792, Note_on_c, 1, 57, 0
12, 75792, Note_on_c, 1, 62, 0
12, 76032, Note_on_c, 1, 67, 96
12, 76032, Note_on_c, 1, 57, 104
12, 76032, Note_on_c, 1, 62, 100
12, 76048, Channel_aftertouch_c, 1, 67
12, 76060, Channel_aftertouch_c, 1, 85
12, 76072, Channel_aftertouch_c, 1, 74
12, 76084, Channel_aftertouch_c, 1, 65
12, 76096, Channel_aftertouch_c, 1, 60
12, 76108, Channel_aftertouch_c, 1, 56
12, 76120, Channel_aftertouch_c, 1, 41
12, 76132, Channel_aftertouch_c, 1, 7
12, 76144, Channel_aftertouch_c, 1, 0
12, 76208, Note_on_c, 1, 67, 0
12, 76212, Note_on_c, 1, 62, 0
12, 76212, Note_on_c, 1, 57, 0
12, 76416, Note_on_c, 1, 67, 100
12, 76416, Note_on_c, 1, 62, 100
12, 76416, Note_on_c, 1, 57, 108
12, 76432, Channel_aftertouch_c, 1, 31
12, 76440, Channel_aftertouch_c, 1, 28
12, 76452, Channel_aftertouch_c, 1, 93
12, 76464, Channel_aftertouch_c, 1, 89
12, 76476, Channel_aftertouch_c, 1, 79
12, 76488, Channel_aftertouch_c, 1, 75
12, 76500, Channel_aftertouch_c, 1, 71
12, 76512, Channel_aftertouch_c, 1, 52
12, 76524, Channel_aftertouch_c, 1, 0
12, 76544, Note_on_c, 1, 62, 0
12, 76548, Note_on_c, 1, 57, 0
12, 76548, Note_on_c, 1, 67, 0
12, 76548, End_track
13, 0, Start_track
13, 0, MIDI_port, 0
13, 0, Title_t, "Bass-Low Octave"
13, 0, Program_c, 0, 32
13, 0, Control_c, 0, 7, 127
13, 0, Control_c, 0, 91, 40
13, 0, Control_c, 0, 93, 0
13, 0, Control_c, 0, 7, 100
13, 135168, Note_on_c, 0, 30, 72
13, 135364, Channel_aftertouch_c, 0, 2
13, 135376, Channel_aftertouch_c, 0, 3
13, 135388, Channel_aftertouch_c, 0, 4
13, 135400, Channel_aftertouch_c, 0, 5
13, 135408, Channel_aftertouch_c, 0, 6
13, 135444, Channel_aftertouch_c, 0, 6
13, 135456, Channel_aftertouch_c, 0, 7
13, 135468, Channel_aftertouch_c, 0, 8
13, 135480, Channel_aftertouch_c, 0, 9
13, 135512, Channel_aftertouch_c, 0, 7
13, 135528, Channel_aftertouch_c, 0, 1
13, 135536, Channel_aftertouch_c, 0, 0
13, 135576, Note_on_c, 0, 30, 0
13, 135744, Note_on_c, 0, 30, 69
13, 135832, Note_on_c, 0, 30, 0
13, 135936, Note_on_c, 0, 30, 75
13, 136088, Channel_aftertouch_c, 0, 2
13, 136096, Channel_aftertouch_c, 0, 4
13, 136108, Channel_aftertouch_c, 0, 5
13, 136120, Channel_aftertouch_c, 0, 5
13, 136132, Channel_aftertouch_c, 0, 6
13, 136144, Channel_aftertouch_c, 0, 6
13, 136156, Channel_aftertouch_c, 0, 7
13, 136168, Channel_aftertouch_c, 0, 8
13, 136180, Channel_aftertouch_c, 0, 9
13, 136224, Channel_aftertouch_c, 0, 9
13, 136240, Channel_aftertouch_c, 0, 10
13, 136248, Channel_aftertouch_c, 0, 12
13, 136260, Channel_aftertouch_c, 0, 13
13, 136272, Channel_aftertouch_c, 0, 13
13, 136284, Channel_aftertouch_c, 0, 14
13, 136320, Channel_aftertouch_c, 0, 6
13, 136332, Channel_aftertouch_c, 0, 0
13, 136360, Note_on_c, 0, 30, 0
13, 136512, Note_on_c, 0, 32, 78
13, 136572, Note_on_c, 0, 32, 0
13, 136696, Channel_aftertouch_c, 0, 18
13, 136704, Note_on_c, 0, 32, 81
13, 136712, Channel_aftertouch_c, 0, 0
13, 137152, Note_on_c, 0, 32, 0
13, 137280, Note_on_c, 0, 30, 63
13, 137360, Note_on_c, 0, 30, 0
13, 137472, Note_on_c, 0, 30, 75
13, 137928, Note_on_c, 0, 30, 0
13, 138048, Note_on_c, 0, 35, 66
13, 138152, Note_on_c, 0, 35, 0
13, 138240, Note_on_c, 0, 35, 78
13, 138716, Note_on_c, 0, 35, 0
13, 138816, Note_on_c, 0, 35, 72
13, 139008, Note_on_c, 0, 23, 84
13, 139032, Note_on_c, 0, 35, 0
13, 139332, Note_on_c, 0, 23, 0
13, 139392, Note_on_c, 0, 23, 75
13, 139584, Note_on_c, 0, 25, 78
13, 139592, Note_on_c, 0, 23, 0
13, 139764, Note_on_c, 0, 25, 0
13, 139776, Note_on_c, 0, 26, 78
13, 140168, Note_on_c, 0, 26, 0
13, 140352, Note_on_c, 0, 26, 78
13, 140408, Note_on_c, 0, 26, 0
13, 140544, Note_on_c, 0, 26, 78
13, 140992, Note_on_c, 0, 26, 0
13, 141120, Note_on_c, 0, 26, 75
13, 141196, Note_on_c, 0, 26, 0
13, 141312, Note_on_c, 0, 28, 74
13, 141712, Note_on_c, 0, 28, 0
13, 141888, Note_on_c, 0, 28, 85
13, 141944, Note_on_c, 0, 28, 0
13, 142080, Note_on_c, 0, 28, 95
13, 142500, Note_on_c, 0, 28, 0
13, 142656, Note_on_c, 0, 28, 66
13, 142708, Note_on_c, 0, 28, 0
13, 142848, Note_on_c, 0, 28, 90
13, 142916, Note_on_c, 0, 28, 0
13, 143040, Note_on_c, 0, 28, 83
13, 143104, Note_on_c, 0, 28, 0
13, 143232, Note_on_c, 0, 28, 76
13, 143296, Note_on_c, 0, 28, 0
13, 143424, Note_on_c, 0, 28, 93
13, 143472, Note_on_c, 0, 28, 0
13, 143616, Note_on_c, 0, 28, 95
13, 143924, Note_on_c, 0, 28, 0
13, 144000, Note_on_c, 0, 28, 72
13, 144072, Note_on_c, 0, 28, 0
13, 144192, Note_on_c, 0, 28, 81
13, 144360, Note_on_c, 0, 28, 0
13, 144384, Note_on_c, 0, 33, 95
13, 144848, Note_on_c, 0, 33, 0
13, 144960, Note_on_c, 0, 33, 83
13, 145040, Note_on_c, 0, 33, 0
13, 145152, Note_on_c, 0, 30, 51
13, 145536, Note_on_c, 0, 30, 0
13, 145536, Note_on_c, 0, 28, 55
13, 145704, Note_on_c, 0, 28, 0
13, 145728, Note_on_c, 0, 35, 76
13, 145920, Note_on_c, 0, 35, 0
13, 145920, Note_on_c, 0, 33, 87
13, 146368, Note_on_c, 0, 33, 0
13, 146496, Note_on_c, 0, 33, 74
13, 146552, Note_on_c, 0, 33, 0
13, 146688, Note_on_c, 0, 33, 94
13, 147072, Note_on_c, 0, 33, 0
13, 147072, Note_on_c, 0, 32, 95
13, 147264, Note_on_c, 0, 32, 0
13, 147264, Note_on_c, 0, 35, 93
13, 147452, Note_on_c, 0, 35, 0
13, 147456, Note_on_c, 0, 30, 72
13, 147652, Channel_aftertouch_c, 0, 2
13, 147664, Channel_aftertouch_c, 0, 3
13, 147676, Channel_aftertouch_c, 0, 4
13, 147688, Channel_aftertouch_c, 0, 5
13, 147696, Channel_aftertouch_c, 0, 6
13, 147732, Channel_aftertouch_c, 0, 6
13, 147744, Channel_aftertouch_c, 0, 7
13, 147756, Channel_aftertouch_c, 0, 8
13, 147768, Channel_aftertouch_c, 0, 9
13, 147800, Channel_aftertouch_c, 0, 7
13, 147816, Channel_aftertouch_c, 0, 1
13, 147824, Channel_aftertouch_c, 0, 0
13, 147864, Note_on_c, 0, 30, 0
13, 148032, Note_on_c, 0, 30, 69
13, 148120, Note_on_c, 0, 30, 0
13, 148224, Note_on_c, 0, 30, 75
13, 148376, Channel_aftertouch_c, 0, 2
13, 148384, Channel_aftertouch_c, 0, 4
13, 148396, Channel_aftertouch_c, 0, 5
13, 148408, Channel_aftertouch_c, 0, 5
13, 148420, Channel_aftertouch_c, 0, 6
13, 148432, Channel_aftertouch_c, 0, 6
13, 148444, Channel_aftertouch_c, 0, 7
13, 148456, Channel_aftertouch_c, 0, 8
13, 148468, Channel_aftertouch_c, 0, 9
13, 148512, Channel_aftertouch_c, 0, 9
13, 148528, Channel_aftertouch_c, 0, 10
13, 148536, Channel_aftertouch_c, 0, 12
13, 148548, Channel_aftertouch_c, 0, 13
13, 148560, Channel_aftertouch_c, 0, 13
13, 148572, Channel_aftertouch_c, 0, 14
13, 148608, Channel_aftertouch_c, 0, 6
13, 148620, Channel_aftertouch_c, 0, 0
13, 148648, Note_on_c, 0, 30, 0
13, 148800, Note_on_c, 0, 32, 78
13, 148860, Note_on_c, 0, 32, 0
13, 148984, Channel_aftertouch_c, 0, 18
13, 148992, Note_on_c, 0, 32, 81
13, 149000, Channel_aftertouch_c, 0, 0
13, 149440, Note_on_c, 0, 32, 0
13, 149568, Note_on_c, 0, 30, 63
13, 149648, Note_on_c, 0, 30, 0
13, 149760, Note_on_c, 0, 30, 75
13, 150216, Note_on_c, 0, 30, 0
13, 150336, Note_on_c, 0, 35, 66
13, 150440, Note_on_c, 0, 35, 0
13, 150528, Note_on_c, 0, 35, 78
13, 151004, Note_on_c, 0, 35, 0
13, 151104, Note_on_c, 0, 35, 72
13, 151296, Note_on_c, 0, 35, 0
13, 151296, Note_on_c, 0, 23, 84
13, 151620, Note_on_c, 0, 23, 0
13, 151680, Note_on_c, 0, 23, 75
13, 151872, Note_on_c, 0, 23, 0
13, 151872, Note_on_c, 0, 25, 78
13, 152052, Note_on_c, 0, 25, 0
13, 152064, Note_on_c, 0, 26, 78
13, 152456, Note_on_c, 0, 26, 0
13, 152640, Note_on_c, 0, 26, 78
13, 152696, Note_on_c, 0, 26, 0
13, 152832, Note_on_c, 0, 26, 78
13, 153280, Note_on_c, 0, 26, 0
13, 153408, Note_on_c, 0, 26, 75
13, 153484, Note_on_c, 0, 26, 0
13, 153484, End_track
14, 0, Start_track
14, 0, MIDI_port, 0
14, 0, Title_t, "Bass1"
14, 0, Program_c, 0, 32
14, 0, Control_c, 0, 7, 127
14, 0, Control_c, 0, 91, 40
14, 0, Control_c, 0, 93, 0
14, 0, Control_c, 0, 7, 100
14, 1536, Control_c, 0, 7, 127
14, 3072, Note_on_c, 0, 43, 108
14, 3096, Channel_aftertouch_c, 0, 97
14, 3108, Channel_aftertouch_c, 0, 47
14, 3120, Channel_aftertouch_c, 0, 53
14, 3132, Channel_aftertouch_c, 0, 36
14, 3144, Channel_aftertouch_c, 0, 17
14, 3156, Channel_aftertouch_c, 0, 14
14, 3168, Channel_aftertouch_c, 0, 18
14, 3180, Channel_aftertouch_c, 0, 25
14, 3192, Channel_aftertouch_c, 0, 34
14, 3204, Channel_aftertouch_c, 0, 38
14, 3216, Channel_aftertouch_c, 0, 42
14, 3228, Channel_aftertouch_c, 0, 43
14, 3284, Channel_aftertouch_c, 0, 44
14, 3296, Channel_aftertouch_c, 0, 45
14, 3304, Channel_aftertouch_c, 0, 46
14, 3320, Channel_aftertouch_c, 0, 47
14, 3332, Channel_aftertouch_c, 0, 48
14, 3344, Channel_aftertouch_c, 0, 50
14, 3356, Channel_aftertouch_c, 0, 50
14, 3368, Channel_aftertouch_c, 0, 51
14, 3376, Channel_aftertouch_c, 0, 52
14, 3392, Channel_aftertouch_c, 0, 53
14, 3400, Channel_aftertouch_c, 0, 54
14, 3416, Channel_aftertouch_c, 0, 57
14, 3424, Channel_aftertouch_c, 0, 58
14, 3448, Channel_aftertouch_c, 0, 52
14, 3452, Note_on_c, 0, 43, 0
14, 3460, Channel_aftertouch_c, 0, 0
14, 3648, Note_on_c, 0, 40, 96
14, 3664, Channel_aftertouch_c, 0, 12
14, 3676, Channel_aftertouch_c, 0, 0
14, 3708, Note_on_c, 0, 40, 0
14, 3840, Note_on_c, 0, 40, 108
14, 3868, Channel_aftertouch_c, 0, 67
14, 3880, Channel_aftertouch_c, 0, 47
14, 3888, Channel_aftertouch_c, 0, 28
14, 3904, Channel_aftertouch_c, 0, 25
14, 3916, Channel_aftertouch_c, 0, 35
14, 3928, Channel_aftertouch_c, 0, 40
14, 3936, Channel_aftertouch_c, 0, 42
14, 3952, Channel_aftertouch_c, 0, 44
14, 3960, Channel_aftertouch_c, 0, 45
14, 3972, Channel_aftertouch_c, 0, 45
14, 3996, Channel_aftertouch_c, 0, 46
14, 4008, Channel_aftertouch_c, 0, 46
14, 4020, Channel_aftertouch_c, 0, 47
14, 4032, Channel_aftertouch_c, 0, 49
14, 4044, Channel_aftertouch_c, 0, 50
14, 4056, Channel_aftertouch_c, 0, 50
14, 4068, Channel_aftertouch_c, 0, 51
14, 4080, Channel_aftertouch_c, 0, 51
14, 4104, Channel_aftertouch_c, 0, 52
14, 4116, Channel_aftertouch_c, 0, 53
14, 4136, Channel_aftertouch_c, 0, 53
14, 4172, Channel_aftertouch_c, 0, 54
14, 4184, Channel_aftertouch_c, 0, 56
14, 4208, Channel_aftertouch_c, 0, 46
14, 4216, Note_on_c, 0, 40, 0
14, 4220, Channel_aftertouch_c, 0, 0
14, 4408, Channel_aftertouch_c, 0, 82
14, 4416, Note_on_c, 0, 38, 100
14, 4416, Channel_aftertouch_c, 0, 31
14, 4432, Channel_aftertouch_c, 0, 0
14, 4492, Note_on_c, 0, 38, 0
14, 4608, Note_on_c, 0, 38, 104
14, 4608, Channel_aftertouch_c, 0, 119
14, 4624, Channel_aftertouch_c, 0, 79
14, 4632, Channel_aftertouch_c, 0, 76
14, 4648, Channel_aftertouch_c, 0, 46
14, 4656, Channel_aftertouch_c, 0, 37
14, 4668, Channel_aftertouch_c, 0, 40
14, 4680, Channel_aftertouch_c, 0, 46
14, 4692, Channel_aftertouch_c, 0, 50
14, 4704, Channel_aftertouch_c, 0, 54
14, 4716, Channel_aftertouch_c, 0, 58
14, 4728, Channel_aftertouch_c, 0, 59
14, 4752, Channel_aftertouch_c, 0, 60
14, 4764, Channel_aftertouch_c, 0, 60
14, 4776, Channel_aftertouch_c, 0, 61
14, 4788, Channel_aftertouch_c, 0, 62
14, 4800, Channel_aftertouch_c, 0, 63
14, 4812, Channel_aftertouch_c, 0, 63
14, 4856, Channel_aftertouch_c, 0, 64
14, 4868, Channel_aftertouch_c, 0, 64
14, 4880, Channel_aftertouch_c, 0, 65
14, 4924, Channel_aftertouch_c, 0, 66
14, 4936, Channel_aftertouch_c, 0, 67
14, 4948, Channel_aftertouch_c, 0, 70
14, 4960, Channel_aftertouch_c, 0, 72
14, 4972, Channel_aftertouch_c, 0, 66
14, 4984, Channel_aftertouch_c, 0, 0
14, 4992, Note_on_c, 0, 38, 0
14, 5184, Note_on_c, 0, 36, 96
14, 5248, Note_on_c, 0, 36, 0
14, 5376, Note_on_c, 0, 36, 108
14, 5388, Channel_aftertouch_c, 0, 34
14, 5400, Channel_aftertouch_c, 0, 11
14, 5412, Channel_aftertouch_c, 0, 0
14, 5448, Channel_aftertouch_c, 0, 6
14, 5456, Channel_aftertouch_c, 0, 7
14, 5472, Channel_aftertouch_c, 0, 10
14, 5480, Channel_aftertouch_c, 0, 14
14, 5496, Channel_aftertouch_c, 0, 18
14, 5504, Channel_aftertouch_c, 0, 19
14, 5516, Channel_aftertouch_c, 0, 20
14, 5528, Channel_aftertouch_c, 0, 21
14, 5540, Channel_aftertouch_c, 0, 22
14, 5552, Channel_aftertouch_c, 0, 24
14, 5568, Channel_aftertouch_c, 0, 25
14, 5576, Channel_aftertouch_c, 0, 26
14, 5608, Channel_aftertouch_c, 0, 27
14, 5624, Channel_aftertouch_c, 0, 27
14, 5636, Channel_aftertouch_c, 0, 28
14, 5648, Channel_aftertouch_c, 0, 28
14, 5668, Channel_aftertouch_c, 0, 29
14, 5680, Channel_aftertouch_c, 0, 30
14, 5692, Channel_aftertouch_c, 0, 31
14, 5704, Channel_aftertouch_c, 0, 33
14, 5716, Channel_aftertouch_c, 0, 31
14, 5728, Channel_aftertouch_c, 0, 14
14, 5740, Channel_aftertouch_c, 0, 0
14, 5756, Note_on_c, 0, 36, 0
14, 5952, Note_on_c, 0, 43, 100
14, 6008, Note_on_c, 0, 43, 0
14, 6144, Note_on_c, 0, 43, 117
14, 6176, Channel_aftertouch_c, 0, 56
14, 6184, Channel_aftertouch_c, 0, 48
14, 6200, Channel_aftertouch_c, 0, 24
14, 6208, Channel_aftertouch_c, 0, 13
14, 6220, Channel_aftertouch_c, 0, 17
14, 6232, Channel_aftertouch_c, 0, 22
14, 6244, Channel_aftertouch_c, 0, 29
14, 6256, Channel_aftertouch_c, 0, 35
14, 6268, Channel_aftertouch_c, 0, 38
14, 6316, Channel_aftertouch_c, 0, 40
14, 6328, Channel_aftertouch_c, 0, 44
14, 6336, Channel_aftertouch_c, 0, 49
14, 6352, Channel_aftertouch_c, 0, 50
14, 6360, Channel_aftertouch_c, 0, 52
14, 6372, Channel_aftertouch_c, 0, 53
14, 6384, Channel_aftertouch_c, 0, 56
14, 6396, Channel_aftertouch_c, 0, 58
14, 6408, Channel_aftertouch_c, 0, 59
14, 6420, Channel_aftertouch_c, 0, 59
14, 6432, Channel_aftertouch_c, 0, 60
14, 6444, Channel_aftertouch_c, 0, 61
14, 6456, Channel_aftertouch_c, 0, 62
14, 6468, Channel_aftertouch_c, 0, 63
14, 6480, Channel_aftertouch_c, 0, 65
14, 6492, Channel_aftertouch_c, 0, 68
14, 6504, Channel_aftertouch_c, 0, 72
14, 6516, Channel_aftertouch_c, 0, 74
14, 6528, Channel_aftertouch_c, 0, 70
14, 6540, Channel_aftertouch_c, 0, 0
14, 6544, Note_on_c, 0, 43, 0
14, 6720, Note_on_c, 0, 40, 92
14, 6780, Note_on_c, 0, 40, 0
14, 6912, Note_on_c, 0, 40, 108
14, 6928, Channel_aftertouch_c, 0, 94
14, 6940, Channel_aftertouch_c, 0, 37
14, 6952, Channel_aftertouch_c, 0, 43
14, 6964, Channel_aftertouch_c, 0, 16
14, 6976, Channel_aftertouch_c, 0, 1
14, 6988, Channel_aftertouch_c, 0, 7
14, 7000, Channel_aftertouch_c, 0, 16
14, 7012, Channel_aftertouch_c, 0, 20
14, 7024, Channel_aftertouch_c, 0, 22
14, 7036, Channel_aftertouch_c, 0, 22
14, 7048, Channel_aftertouch_c, 0, 25
14, 7060, Channel_aftertouch_c, 0, 29
14, 7072, Channel_aftertouch_c, 0, 33
14, 7084, Channel_aftertouch_c, 0, 34
14, 7108, Channel_aftertouch_c, 0, 35
14, 7120, Channel_aftertouch_c, 0, 37
14, 7128, Channel_aftertouch_c, 0, 39
14, 7144, Channel_aftertouch_c, 0, 41
14, 7152, Channel_aftertouch_c, 0, 42
14, 7184, Channel_aftertouch_c, 0, 43
14, 7200, Channel_aftertouch_c, 0, 43
14, 7212, Channel_aftertouch_c, 0, 44
14, 7224, Channel_aftertouch_c, 0, 45
14, 7236, Channel_aftertouch_c, 0, 46
14, 7248, Channel_aftertouch_c, 0, 46
14, 7260, Channel_aftertouch_c, 0, 47
14, 7272, Channel_aftertouch_c, 0, 49
14, 7284, Channel_aftertouch_c, 0, 54
14, 7296, Channel_aftertouch_c, 0, 45
14, 7304, Note_on_c, 0, 40, 0
14, 7316, Channel_aftertouch_c, 0, 0
14, 7488, Note_on_c, 0, 38, 108
14, 7552, Note_on_c, 0, 38, 0
14, 7680, Note_on_c, 0, 38, 108
14, 7688, Channel_aftertouch_c, 0, 77
14, 7700, Channel_aftertouch_c, 0, 0
14, 7744, Channel_aftertouch_c, 0, 3
14, 7756, Channel_aftertouch_c, 0, 9
14, 7768, Channel_aftertouch_c, 0, 10
14, 7780, Channel_aftertouch_c, 0, 8
14, 7804, Channel_aftertouch_c, 0, 10
14, 7816, Channel_aftertouch_c, 0, 11
14, 7828, Channel_aftertouch_c, 0, 12
14, 7840, Channel_aftertouch_c, 0, 14
14, 7864, Channel_aftertouch_c, 0, 14
14, 7876, Channel_aftertouch_c, 0, 15
14, 7888, Channel_aftertouch_c, 0, 17
14, 7900, Channel_aftertouch_c, 0, 18
14, 7908, Channel_aftertouch_c, 0, 20
14, 7920, Channel_aftertouch_c, 0, 22
14, 7932, Channel_aftertouch_c, 0, 24
14, 7948, Channel_aftertouch_c, 0, 25
14, 7956, Channel_aftertouch_c, 0, 26
14, 7968, Channel_aftertouch_c, 0, 27
14, 8004, Channel_aftertouch_c, 0, 28
14, 8016, Channel_aftertouch_c, 0, 29
14, 8028, Channel_aftertouch_c, 0, 32
14, 8040, Channel_aftertouch_c, 0, 37
14, 8052, Channel_aftertouch_c, 0, 46
14, 8064, Channel_aftertouch_c, 0, 49
14, 8076, Note_on_c, 0, 38, 0
14, 8076, Channel_aftertouch_c, 0, 0
14, 8256, Note_on_c, 0, 36, 104
14, 8316, Note_on_c, 0, 36, 0
14, 8448, Note_on_c, 0, 36, 100
14, 8468, Channel_aftertouch_c, 0, 7
14, 8480, Channel_aftertouch_c, 0, 4
14, 8492, Channel_aftertouch_c, 0, 0
14, 8516, Channel_aftertouch_c, 0, 3
14, 8528, Channel_aftertouch_c, 0, 8
14, 8540, Channel_aftertouch_c, 0, 10
14, 8552, Channel_aftertouch_c, 0, 12
14, 8560, Channel_aftertouch_c, 0, 14
14, 8576, Channel_aftertouch_c, 0, 15
14, 8584, Channel_aftertouch_c, 0, 17
14, 8600, Channel_aftertouch_c, 0, 19
14, 8608, Channel_aftertouch_c, 0, 20
14, 8620, Channel_aftertouch_c, 0, 22
14, 8632, Channel_aftertouch_c, 0, 24
14, 8644, Channel_aftertouch_c, 0, 26
14, 8656, Channel_aftertouch_c, 0, 26
14, 8668, Channel_aftertouch_c, 0, 27
14, 8692, Channel_aftertouch_c, 0, 28
14, 8704, Channel_aftertouch_c, 0, 28
14, 8716, Channel_aftertouch_c, 0, 29
14, 8728, Channel_aftertouch_c, 0, 30
14, 8736, Channel_aftertouch_c, 0, 30
14, 8760, Channel_aftertouch_c, 0, 31
14, 8776, Channel_aftertouch_c, 0, 32
14, 8788, Channel_aftertouch_c, 0, 33
14, 8800, Channel_aftertouch_c, 0, 36
14, 8820, Channel_aftertouch_c, 0, 28
14, 8832, Channel_aftertouch_c, 0, 0
14, 8836, Note_on_c, 0, 36, 0
14, 9020, Channel_aftertouch_c, 0, 12
14, 9024, Note_on_c, 0, 43, 92
14, 9032, Channel_aftertouch_c, 0, 0
14, 9088, Note_on_c, 0, 43, 0
14, 9208, Channel_aftertouch_c, 0, 120
14, 9216, Note_on_c, 0, 43, 117
14, 9220, Channel_aftertouch_c, 0, 69
14, 9232, Channel_aftertouch_c, 0, 77
14, 9244, Channel_aftertouch_c, 0, 62
14, 9256, Channel_aftertouch_c, 0, 52
14, 9268, Channel_aftertouch_c, 0, 54
14, 9280, Channel_aftertouch_c, 0, 57
14, 9292, Channel_aftertouch_c, 0, 60
14, 9304, Channel_aftertouch_c, 0, 65
14, 9316, Channel_aftertouch_c, 0, 68
14, 9328, Channel_aftertouch_c, 0, 70
14, 9348, Channel_aftertouch_c, 0, 71
14, 9364, Channel_aftertouch_c, 0, 72
14, 9372, Channel_aftertouch_c, 0, 74
14, 9384, Channel_aftertouch_c, 0, 75
14, 9400, Channel_aftertouch_c, 0, 77
14, 9408, Channel_aftertouch_c, 0, 78
14, 9424, Channel_aftertouch_c, 0, 79
14, 9432, Channel_aftertouch_c, 0, 80
14, 9448, Channel_aftertouch_c, 0, 80
14, 9468, Channel_aftertouch_c, 0, 81
14, 9504, Channel_aftertouch_c, 0, 81
14, 9516, Channel_aftertouch_c, 0, 82
14, 9580, Channel_aftertouch_c, 0, 80
14, 9592, Channel_aftertouch_c, 0, 75
14, 9604, Channel_aftertouch_c, 0, 0
14, 9624, Note_on_c, 0, 43, 0
14, 9792, Note_on_c, 0, 40, 85
14, 9864, Note_on_c, 0, 40, 0
14, 9984, Note_on_c, 0, 40, 104
14, 9984, Channel_aftertouch_c, 0, 65
14, 9996, Channel_aftertouch_c, 0, 58
14, 10008, Channel_aftertouch_c, 0, 42
14, 10020, Channel_aftertouch_c, 0, 27
14, 10040, Channel_aftertouch_c, 0, 32
14, 10056, Channel_aftertouch_c, 0, 35
14, 10064, Channel_aftertouch_c, 0, 38
14, 10080, Channel_aftertouch_c, 0, 42
14, 10088, Channel_aftertouch_c, 0, 45
14, 10100, Channel_aftertouch_c, 0, 47
14, 10112, Channel_aftertouch_c, 0, 48
14, 10124, Channel_aftertouch_c, 0, 49
14, 10136, Channel_aftertouch_c, 0, 50
14, 10148, Channel_aftertouch_c, 0, 51
14, 10160, Channel_aftertouch_c, 0, 53
14, 10176, Channel_aftertouch_c, 0, 55
14, 10184, Channel_aftertouch_c, 0, 56
14, 10196, Channel_aftertouch_c, 0, 56
14, 10220, Channel_aftertouch_c, 0, 57
14, 10232, Channel_aftertouch_c, 0, 57
14, 10244, Channel_aftertouch_c, 0, 58
14, 10256, Channel_aftertouch_c, 0, 59
14, 10280, Channel_aftertouch_c, 0, 60
14, 10288, Channel_aftertouch_c, 0, 60
14, 10304, Channel_aftertouch_c, 0, 62
14, 10312, Channel_aftertouch_c, 0, 65
14, 10328, Channel_aftertouch_c, 0, 69
14, 10336, Channel_aftertouch_c, 0, 70
14, 10348, Channel_aftertouch_c, 0, 67
14, 10360, Channel_aftertouch_c, 0, 0
14, 10380, Note_on_c, 0, 40, 0
14, 10552, Channel_aftertouch_c, 0, 87
14, 10560, Note_on_c, 0, 38, 104
14, 10564, Channel_aftertouch_c, 0, 17
14, 10576, Channel_aftertouch_c, 0, 0
14, 10624, Note_on_c, 0, 38, 0
14, 10736, Channel_aftertouch_c, 0, 39
14, 10748, Channel_aftertouch_c, 0, 53
14, 10752, Note_on_c, 0, 38, 100
14, 10760, Channel_aftertouch_c, 0, 33
14, 10768, Channel_aftertouch_c, 0, 24
14, 10784, Channel_aftertouch_c, 0, 28
14, 10796, Channel_aftertouch_c, 0, 36
14, 10808, Channel_aftertouch_c, 0, 42
14, 10820, Channel_aftertouch_c, 0, 47
14, 10832, Channel_aftertouch_c, 0, 51
14, 10844, Channel_aftertouch_c, 0, 53
14, 10856, Channel_aftertouch_c, 0, 54
14, 10864, Channel_aftertouch_c, 0, 55
14, 10880, Channel_aftertouch_c, 0, 55
14, 10888, Channel_aftertouch_c, 0, 56
14, 10904, Channel_aftertouch_c, 0, 58
14, 10912, Channel_aftertouch_c, 0, 59
14, 10924, Channel_aftertouch_c, 0, 60
14, 10936, Channel_aftertouch_c, 0, 61
14, 10948, Channel_aftertouch_c, 0, 61
14, 10960, Channel_aftertouch_c, 0, 62
14, 10972, Channel_aftertouch_c, 0, 63
14, 10984, Channel_aftertouch_c, 0, 64
14, 11000, Channel_aftertouch_c, 0, 65
14, 11008, Channel_aftertouch_c, 0, 66
14, 11020, Channel_aftertouch_c, 0, 67
14, 11044, Channel_aftertouch_c, 0, 67
14, 11056, Channel_aftertouch_c, 0, 68
14, 11068, Channel_aftertouch_c, 0, 69
14, 11080, Channel_aftertouch_c, 0, 70
14, 11092, Channel_aftertouch_c, 0, 70
14, 11104, Channel_aftertouch_c, 0, 72
14, 11116, Channel_aftertouch_c, 0, 75
14, 11128, Channel_aftertouch_c, 0, 78
14, 11136, Channel_aftertouch_c, 0, 67
14, 11152, Channel_aftertouch_c, 0, 47
14, 11164, Channel_aftertouch_c, 0, 0
14, 11188, Note_on_c, 0, 38, 0
14, 11328, Note_on_c, 0, 36, 104
14, 11404, Note_on_c, 0, 36, 0
14, 11520, Note_on_c, 0, 36, 104
14, 11532, Channel_aftertouch_c, 0, 12
14, 11544, Channel_aftertouch_c, 0, 4
14, 11560, Channel_aftertouch_c, 0, 0
14, 11592, Channel_aftertouch_c, 0, 3
14, 11604, Channel_aftertouch_c, 0, 7
14, 11616, Channel_aftertouch_c, 0, 8
14, 11628, Channel_aftertouch_c, 0, 9
14, 11640, Channel_aftertouch_c, 0, 11
14, 11652, Channel_aftertouch_c, 0, 14
14, 11664, Channel_aftertouch_c, 0, 17
14, 11676, Channel_aftertouch_c, 0, 18
14, 11688, Channel_aftertouch_c, 0, 19
14, 11700, Channel_aftertouch_c, 0, 20
14, 11712, Channel_aftertouch_c, 0, 21
14, 11720, Channel_aftertouch_c, 0, 22
14, 11736, Channel_aftertouch_c, 0, 23
14, 11744, Channel_aftertouch_c, 0, 24
14, 11760, Channel_aftertouch_c, 0, 24
14, 11792, Channel_aftertouch_c, 0, 25
14, 11804, Channel_aftertouch_c, 0, 25
14, 11884, Channel_aftertouch_c, 0, 28
14, 11896, Channel_aftertouch_c, 0, 30
14, 11908, Channel_aftertouch_c, 0, 19
14, 11920, Channel_aftertouch_c, 0, 13
14, 11928, Channel_aftertouch_c, 0, 0
14, 11936, Note_on_c, 0, 36, 0
14, 12076, Channel_aftertouch_c, 0, 56
14, 12092, Channel_aftertouch_c, 0, 4
14, 12096, Note_on_c, 0, 38, 92
14, 12100, Channel_aftertouch_c, 0, 0
14, 12152, Note_on_c, 0, 38, 0
14, 12288, Note_on_c, 0, 38, 104
14, 12688, Note_on_c, 0, 38, 0
14, 12864, Note_on_c, 0, 35, 85
14, 12928, Note_on_c, 0, 35, 0
14, 13056, Note_on_c, 0, 35, 100
14, 13488, Note_on_c, 0, 35, 0
14, 13632, Note_on_c, 0, 38, 92
14, 13688, Note_on_c, 0, 38, 0
14, 13824, Note_on_c, 0, 38, 108
14, 14228, Note_on_c, 0, 38, 0
14, 14400, Note_on_c, 0, 35, 92
14, 14476, Note_on_c, 0, 35, 0
14, 14592, Note_on_c, 0, 35, 104
14, 15044, Note_on_c, 0, 35, 0
14, 15168, Note_on_c, 0, 43, 92
14, 15232, Note_on_c, 0, 43, 0
14, 15360, Note_on_c, 0, 43, 113
14, 15776, Note_on_c, 0, 43, 0
14, 15936, Note_on_c, 0, 40, 96
14, 16008, Note_on_c, 0, 40, 0
14, 16128, Note_on_c, 0, 40, 108
14, 16140, Channel_aftertouch_c, 0, 10
14, 16152, Channel_aftertouch_c, 0, 0
14, 16544, Note_on_c, 0, 40, 0
14, 16704, Note_on_c, 0, 38, 92
14, 16752, Note_on_c, 0, 38, 0
14, 16896, Note_on_c, 0, 38, 113
14, 17300, Note_on_c, 0, 38, 0
14, 17472, Note_on_c, 0, 36, 85
14, 17536, Note_on_c, 0, 36, 0
14, 17664, Note_on_c, 0, 36, 100
14, 18104, Note_on_c, 0, 36, 0
14, 18240, Note_on_c, 0, 43, 96
14, 18292, Note_on_c, 0, 43, 0
14, 18432, Note_on_c, 0, 43, 113
14, 18848, Note_on_c, 0, 43, 0
14, 19008, Note_on_c, 0, 40, 96
14, 19080, Note_on_c, 0, 40, 0
14, 19200, Note_on_c, 0, 40, 108
14, 19212, Channel_aftertouch_c, 0, 10
14, 19224, Channel_aftertouch_c, 0, 0
14, 19616, Note_on_c, 0, 40, 0
14, 19776, Note_on_c, 0, 38, 92
14, 19824, Note_on_c, 0, 38, 0
14, 19968, Note_on_c, 0, 38, 113
14, 20372, Note_on_c, 0, 38, 0
14, 20544, Note_on_c, 0, 36, 85
14, 20608, Note_on_c, 0, 36, 0
14, 20736, Note_on_c, 0, 36, 100
14, 21176, Note_on_c, 0, 36, 0
14, 21312, Note_on_c, 0, 43, 96
14, 21364, Note_on_c, 0, 43, 0
14, 21504, Note_on_c, 0, 43, 113
14, 21920, Note_on_c, 0, 43, 0
14, 22080, Note_on_c, 0, 40, 96
14, 22152, Note_on_c, 0, 40, 0
14, 22272, Note_on_c, 0, 40, 108
14, 22284, Channel_aftertouch_c, 0, 10
14, 22296, Channel_aftertouch_c, 0, 0
14, 22688, Note_on_c, 0, 40, 0
14, 22848, Note_on_c, 0, 38, 92
14, 22896, Note_on_c, 0, 38, 0
14, 23040, Note_on_c, 0, 38, 113
14, 23444, Note_on_c, 0, 38, 0
14, 23616, Note_on_c, 0, 36, 85
14, 23680, Note_on_c, 0, 36, 0
14, 23808, Note_on_c, 0, 36, 100
14, 24248, Note_on_c, 0, 36, 0
14, 24384, Note_on_c, 0, 43, 96
14, 24436, Note_on_c, 0, 43, 0
14, 24576, Note_on_c, 0, 43, 113
14, 24992, Note_on_c, 0, 43, 0
14, 25152, Note_on_c, 0, 40, 96
14, 25224, Note_on_c, 0, 40, 0
14, 25344, Note_on_c, 0, 40, 108
14, 25356, Channel_aftertouch_c, 0, 10
14, 25368, Channel_aftertouch_c, 0, 0
14, 25760, Note_on_c, 0, 40, 0
14, 25920, Note_on_c, 0, 38, 92
14, 25968, Note_on_c, 0, 38, 0
14, 26112, Note_on_c, 0, 38, 113
14, 26516, Note_on_c, 0, 38, 0
14, 26688, Note_on_c, 0, 36, 85
14, 26752, Note_on_c, 0, 36, 0
14, 26880, Note_on_c, 0, 36, 100
14, 27320, Note_on_c, 0, 36, 0
14, 27456, Note_on_c, 0, 43, 96
14, 27508, Note_on_c, 0, 43, 0
14, 27648, Note_on_c, 0, 43, 113
14, 28064, Note_on_c, 0, 43, 0
14, 28224, Note_on_c, 0, 40, 96
14, 28296, Note_on_c, 0, 40, 0
14, 28416, Note_on_c, 0, 40, 108
14, 28428, Channel_aftertouch_c, 0, 10
14, 28440, Channel_aftertouch_c, 0, 0
14, 28832, Note_on_c, 0, 40, 0
14, 28992, Note_on_c, 0, 38, 92
14, 29040, Note_on_c, 0, 38, 0
14, 29184, Note_on_c, 0, 38, 113
14, 29588, Note_on_c, 0, 38, 0
14, 29760, Note_on_c, 0, 36, 85
14, 29824, Note_on_c, 0, 36, 0
14, 29952, Note_on_c, 0, 36, 100
14, 30392, Note_on_c, 0, 36, 0
14, 30528, Note_on_c, 0, 43, 96
14, 30580, Note_on_c, 0, 43, 0
14, 30720, Note_on_c, 0, 43, 113
14, 31136, Note_on_c, 0, 43, 0
14, 31296, Note_on_c, 0, 40, 96
14, 31368, Note_on_c, 0, 40, 0
14, 31488, Note_on_c, 0, 40, 108
14, 31500, Channel_aftertouch_c, 0, 10
14, 31512, Channel_aftertouch_c, 0, 0
14, 31904, Note_on_c, 0, 40, 0
14, 32064, Note_on_c, 0, 38, 92
14, 32112, Note_on_c, 0, 38, 0
14, 32256, Note_on_c, 0, 38, 113
14, 32660, Note_on_c, 0, 38, 0
14, 32832, Note_on_c, 0, 36, 85
14, 32896, Note_on_c, 0, 36, 0
14, 33024, Note_on_c, 0, 36, 100
14, 33464, Note_on_c, 0, 36, 0
14, 33600, Note_on_c, 0, 43, 96
14, 33652, Note_on_c, 0, 43, 0
14, 33792, Note_on_c, 0, 43, 113
14, 34208, Note_on_c, 0, 43, 0
14, 34368, Note_on_c, 0, 40, 96
14, 34440, Note_on_c, 0, 40, 0
14, 34560, Note_on_c, 0, 40, 108
14, 34572, Channel_aftertouch_c, 0, 10
14, 34584, Channel_aftertouch_c, 0, 0
14, 34976, Note_on_c, 0, 40, 0
14, 35136, Note_on_c, 0, 38, 92
14, 35184, Note_on_c, 0, 38, 0
14, 35328, Note_on_c, 0, 38, 113
14, 35732, Note_on_c, 0, 38, 0
14, 35904, Note_on_c, 0, 36, 85
14, 35968, Note_on_c, 0, 36, 0
14, 36096, Note_on_c, 0, 36, 100
14, 36536, Note_on_c, 0, 36, 0
14, 36672, Note_on_c, 0, 43, 96
14, 36724, Note_on_c, 0, 43, 0
14, 36864, Note_on_c, 0, 43, 113
14, 37280, Note_on_c, 0, 43, 0
14, 37440, Note_on_c, 0, 40, 96
14, 37512, Note_on_c, 0, 40, 0
14, 37632, Note_on_c, 0, 40, 108
14, 37644, Channel_aftertouch_c, 0, 10
14, 37656, Channel_aftertouch_c, 0, 0
14, 38048, Note_on_c, 0, 40, 0
14, 38208, Note_on_c, 0, 38, 92
14, 38256, Note_on_c, 0, 38, 0
14, 38400, Note_on_c, 0, 38, 100
14, 38400, Channel_aftertouch_c, 0, 13
14, 38408, Channel_aftertouch_c, 0, 15
14, 38416, Channel_aftertouch_c, 0, 0
14, 38464, Channel_aftertouch_c, 0, 10
14, 38476, Channel_aftertouch_c, 0, 16
14, 38488, Channel_aftertouch_c, 0, 21
14, 38500, Channel_aftertouch_c, 0, 23
14, 38512, Channel_aftertouch_c, 0, 24
14, 38524, Channel_aftertouch_c, 0, 25
14, 38536, Channel_aftertouch_c, 0, 26
14, 38548, Channel_aftertouch_c, 0, 28
14, 38560, Channel_aftertouch_c, 0, 30
14, 38572, Channel_aftertouch_c, 0, 33
14, 38584, Channel_aftertouch_c, 0, 34
14, 38592, Channel_aftertouch_c, 0, 35
14, 38608, Channel_aftertouch_c, 0, 36
14, 38616, Channel_aftertouch_c, 0, 37
14, 38632, Channel_aftertouch_c, 0, 38
14, 38640, Channel_aftertouch_c, 0, 38
14, 38652, Channel_aftertouch_c, 0, 39
14, 38668, Channel_aftertouch_c, 0, 40
14, 38676, Channel_aftertouch_c, 0, 41
14, 38688, Channel_aftertouch_c, 0, 42
14, 38704, Channel_aftertouch_c, 0, 42
14, 38712, Channel_aftertouch_c, 0, 43
14, 38724, Channel_aftertouch_c, 0, 44
14, 38736, Channel_aftertouch_c, 0, 44
14, 38760, Channel_aftertouch_c, 0, 39
14, 38772, Channel_aftertouch_c, 0, 26
14, 38784, Channel_aftertouch_c, 0, 0
14, 38800, Note_on_c, 0, 38, 0
14, 38976, Note_on_c, 0, 38, 100
14, 39036, Note_on_c, 0, 38, 0
14, 39168, Note_on_c, 0, 38, 113
14, 39176, Channel_aftertouch_c, 0, 127
14, 39188, Channel_aftertouch_c, 0, 45
14, 39200, Channel_aftertouch_c, 0, 59
14, 39212, Channel_aftertouch_c, 0, 37
14, 39224, Channel_aftertouch_c, 0, 7
14, 39236, Channel_aftertouch_c, 0, 5
14, 39248, Channel_aftertouch_c, 0, 18
14, 39260, Channel_aftertouch_c, 0, 33
14, 39272, Channel_aftertouch_c, 0, 39
14, 39284, Channel_aftertouch_c, 0, 43
14, 39328, Channel_aftertouch_c, 0, 45
14, 39340, Channel_aftertouch_c, 0, 47
14, 39352, Channel_aftertouch_c, 0, 50
14, 39364, Channel_aftertouch_c, 0, 52
14, 39376, Channel_aftertouch_c, 0, 54
14, 39388, Channel_aftertouch_c, 0, 55
14, 39400, Channel_aftertouch_c, 0, 56
14, 39412, Channel_aftertouch_c, 0, 57
14, 39424, Channel_aftertouch_c, 0, 57
14, 39436, Channel_aftertouch_c, 0, 58
14, 39448, Channel_aftertouch_c, 0, 60
14, 39460, Channel_aftertouch_c, 0, 63
14, 39472, Channel_aftertouch_c, 0, 66
14, 39484, Channel_aftertouch_c, 0, 68
14, 39496, Channel_aftertouch_c, 0, 69
14, 39508, Channel_aftertouch_c, 0, 71
14, 39520, Channel_aftertouch_c, 0, 72
14, 39532, Channel_aftertouch_c, 0, 61
14, 39544, Channel_aftertouch_c, 0, 23
14, 39556, Note_on_c, 0, 38, 0
14, 39556, Channel_aftertouch_c, 0, 0
14, 39744, Note_on_c, 0, 40, 80
14, 39840, Note_on_c, 0, 40, 0
14, 39936, Note_on_c, 0, 40, 96
14, 40132, Channel_aftertouch_c, 0, 2
14, 40144, Channel_aftertouch_c, 0, 3
14, 40156, Channel_aftertouch_c, 0, 4
14, 40168, Channel_aftertouch_c, 0, 5
14, 40176, Channel_aftertouch_c, 0, 6
14, 40212, Channel_aftertouch_c, 0, 6
14, 40224, Channel_aftertouch_c, 0, 7
14, 40236, Channel_aftertouch_c, 0, 8
14, 40248, Channel_aftertouch_c, 0, 9
14, 40280, Channel_aftertouch_c, 0, 7
14, 40296, Channel_aftertouch_c, 0, 1
14, 40304, Channel_aftertouch_c, 0, 0
14, 40344, Note_on_c, 0, 40, 0
14, 40512, Note_on_c, 0, 40, 92
14, 40600, Note_on_c, 0, 40, 0
14, 40704, Note_on_c, 0, 40, 100
14, 40856, Channel_aftertouch_c, 0, 2
14, 40864, Channel_aftertouch_c, 0, 4
14, 40876, Channel_aftertouch_c, 0, 5
14, 40888, Channel_aftertouch_c, 0, 5
14, 40900, Channel_aftertouch_c, 0, 6
14, 40912, Channel_aftertouch_c, 0, 6
14, 40924, Channel_aftertouch_c, 0, 7
14, 40936, Channel_aftertouch_c, 0, 8
14, 40948, Channel_aftertouch_c, 0, 9
14, 40992, Channel_aftertouch_c, 0, 9
14, 41008, Channel_aftertouch_c, 0, 10
14, 41016, Channel_aftertouch_c, 0, 12
14, 41028, Channel_aftertouch_c, 0, 13
14, 41040, Channel_aftertouch_c, 0, 13
14, 41052, Channel_aftertouch_c, 0, 14
14, 41088, Channel_aftertouch_c, 0, 6
14, 41100, Channel_aftertouch_c, 0, 0
14, 41128, Note_on_c, 0, 40, 0
14, 41280, Note_on_c, 0, 42, 104
14, 41340, Note_on_c, 0, 42, 0
14, 41464, Channel_aftertouch_c, 0, 18
14, 41472, Note_on_c, 0, 42, 108
14, 41480, Channel_aftertouch_c, 0, 0
14, 41920, Note_on_c, 0, 42, 0
14, 42048, Note_on_c, 0, 40, 85
14, 42128, Note_on_c, 0, 40, 0
14, 42240, Note_on_c, 0, 40, 100
14, 42696, Note_on_c, 0, 40, 0
14, 42816, Note_on_c, 0, 45, 89
14, 42920, Note_on_c, 0, 45, 0
14, 43008, Note_on_c, 0, 45, 104
14, 43484, Note_on_c, 0, 45, 0
14, 43584, Note_on_c, 0, 45, 96
14, 43776, Note_on_c, 0, 45, 0
14, 43776, Note_on_c, 0, 33, 113
14, 44100, Note_on_c, 0, 33, 0
14, 44160, Note_on_c, 0, 33, 100
14, 44352, Note_on_c, 0, 33, 0
14, 44352, Note_on_c, 0, 35, 104
14, 44532, Note_on_c, 0, 35, 0
14, 44544, Note_on_c, 0, 36, 104
14, 44936, Note_on_c, 0, 36, 0
14, 45120, Note_on_c, 0, 36, 104
14, 45176, Note_on_c, 0, 36, 0
14, 45312, Note_on_c, 0, 36, 104
14, 45760, Note_on_c, 0, 36, 0
14, 45888, Note_on_c, 0, 36, 100
14, 45964, Note_on_c, 0, 36, 0
14, 46080, Note_on_c, 0, 38, 113
14, 46312, Channel_aftertouch_c, 0, 2
14, 46324, Channel_aftertouch_c, 0, 2
14, 46336, Channel_aftertouch_c, 0, 3
14, 46416, Channel_aftertouch_c, 0, 5
14, 46428, Channel_aftertouch_c, 0, 7
14, 46452, Channel_aftertouch_c, 0, 1
14, 46464, Channel_aftertouch_c, 0, 0
14, 46488, Note_on_c, 0, 38, 0
14, 46656, Note_on_c, 0, 38, 100
14, 46716, Note_on_c, 0, 38, 0
14, 46848, Note_on_c, 0, 38, 104
14, 47248, Note_on_c, 0, 38, 0
14, 47424, Note_on_c, 0, 38, 100
14, 47484, Note_on_c, 0, 38, 0
14, 47616, Note_on_c, 0, 38, 100
14, 47656, Channel_aftertouch_c, 0, 31
14, 47668, Channel_aftertouch_c, 0, 39
14, 47680, Channel_aftertouch_c, 0, 5
14, 47684, Note_on_c, 0, 38, 0
14, 47692, Channel_aftertouch_c, 0, 0
14, 47808, Note_on_c, 0, 38, 89
14, 47880, Note_on_c, 0, 38, 0
14, 48000, Note_on_c, 0, 38, 104
14, 48036, Channel_aftertouch_c, 0, 7
14, 48048, Channel_aftertouch_c, 0, 43
14, 48072, Channel_aftertouch_c, 0, 14
14, 48080, Note_on_c, 0, 38, 0
14, 48080, Channel_aftertouch_c, 0, 0
14, 48192, Note_on_c, 0, 38, 92
14, 48276, Note_on_c, 0, 38, 0
14, 48384, Note_on_c, 0, 38, 100
14, 48408, Channel_aftertouch_c, 0, 26
14, 48420, Channel_aftertouch_c, 0, 37
14, 48432, Channel_aftertouch_c, 0, 30
14, 48444, Channel_aftertouch_c, 0, 0
14, 48468, Note_on_c, 0, 38, 0
14, 48576, Note_on_c, 0, 38, 79
14, 48588, Channel_aftertouch_c, 0, 13
14, 48600, Channel_aftertouch_c, 0, 0
14, 48656, Note_on_c, 0, 38, 0
14, 48768, Note_on_c, 0, 38, 100
14, 48780, Channel_aftertouch_c, 0, 32
14, 48792, Channel_aftertouch_c, 0, 47
14, 48804, Channel_aftertouch_c, 0, 45
14, 48816, Channel_aftertouch_c, 0, 18
14, 48828, Channel_aftertouch_c, 0, 0
14, 48848, Note_on_c, 0, 38, 0
14, 48960, Note_on_c, 0, 43, 100
14, 49024, Note_on_c, 0, 43, 0
14, 49152, Note_on_c, 0, 43, 113
14, 49568, Note_on_c, 0, 43, 0
14, 49728, Note_on_c, 0, 40, 96
14, 49800, Note_on_c, 0, 40, 0
14, 49920, Note_on_c, 0, 40, 108
14, 49932, Channel_aftertouch_c, 0, 10
14, 49944, Channel_aftertouch_c, 0, 0
14, 50336, Note_on_c, 0, 40, 0
14, 50496, Note_on_c, 0, 38, 92
14, 50544, Note_on_c, 0, 38, 0
14, 50688, Note_on_c, 0, 38, 113
14, 51092, Note_on_c, 0, 38, 0
14, 51264, Note_on_c, 0, 36, 85
14, 51328, Note_on_c, 0, 36, 0
14, 51456, Note_on_c, 0, 36, 100
14, 51896, Note_on_c, 0, 36, 0
14, 52032, Note_on_c, 0, 43, 96
14, 52084, Note_on_c, 0, 43, 0
14, 52224, Note_on_c, 0, 43, 113
14, 52640, Note_on_c, 0, 43, 0
14, 52800, Note_on_c, 0, 40, 96
14, 52872, Note_on_c, 0, 40, 0
14, 52992, Note_on_c, 0, 40, 108
14, 53004, Channel_aftertouch_c, 0, 10
14, 53016, Channel_aftertouch_c, 0, 0
14, 53408, Note_on_c, 0, 40, 0
14, 53568, Note_on_c, 0, 38, 92
14, 53616, Note_on_c, 0, 38, 0
14, 53760, Note_on_c, 0, 38, 113
14, 54164, Note_on_c, 0, 38, 0
14, 54336, Note_on_c, 0, 36, 85
14, 54400, Note_on_c, 0, 36, 0
14, 54528, Note_on_c, 0, 36, 100
14, 54968, Note_on_c, 0, 36, 0
14, 55104, Note_on_c, 0, 43, 96
14, 55156, Note_on_c, 0, 43, 0
14, 55296, Note_on_c, 0, 43, 113
14, 55712, Note_on_c, 0, 43, 0
14, 55872, Note_on_c, 0, 40, 96
14, 55944, Note_on_c, 0, 40, 0
14, 56064, Note_on_c, 0, 40, 108
14, 56076, Channel_aftertouch_c, 0, 10
14, 56088, Channel_aftertouch_c, 0, 0
14, 56480, Note_on_c, 0, 40, 0
14, 56640, Note_on_c, 0, 38, 92
14, 56688, Note_on_c, 0, 38, 0
14, 56832, Note_on_c, 0, 38, 113
14, 57236, Note_on_c, 0, 38, 0
14, 57408, Note_on_c, 0, 36, 85
14, 57472, Note_on_c, 0, 36, 0
14, 57600, Note_on_c, 0, 36, 100
14, 58040, Note_on_c, 0, 36, 0
14, 58176, Note_on_c, 0, 43, 96
14, 58228, Note_on_c, 0, 43, 0
14, 58368, Note_on_c, 0, 43, 113
14, 58784, Note_on_c, 0, 43, 0
14, 58944, Note_on_c, 0, 40, 96
14, 59016, Note_on_c, 0, 40, 0
14, 59136, Note_on_c, 0, 40, 108
14, 59148, Channel_aftertouch_c, 0, 10
14, 59160, Channel_aftertouch_c, 0, 0
14, 59552, Note_on_c, 0, 40, 0
14, 59712, Note_on_c, 0, 38, 92
14, 59760, Note_on_c, 0, 38, 0
14, 59904, Note_on_c, 0, 38, 113
14, 60308, Note_on_c, 0, 38, 0
14, 60480, Note_on_c, 0, 36, 85
14, 60544, Note_on_c, 0, 36, 0
14, 60672, Note_on_c, 0, 36, 100
14, 61112, Note_on_c, 0, 36, 0
14, 61248, Note_on_c, 0, 43, 96
14, 61300, Note_on_c, 0, 43, 0
14, 61440, Note_on_c, 0, 43, 113
14, 61856, Note_on_c, 0, 43, 0
14, 62016, Note_on_c, 0, 40, 96
14, 62088, Note_on_c, 0, 40, 0
14, 62208, Note_on_c, 0, 40, 108
14, 62220, Channel_aftertouch_c, 0, 10
14, 62232, Channel_aftertouch_c, 0, 0
14, 62624, Note_on_c, 0, 40, 0
14, 62784, Note_on_c, 0, 38, 92
14, 62832, Note_on_c, 0, 38, 0
14, 62976, Note_on_c, 0, 38, 113
14, 63380, Note_on_c, 0, 38, 0
14, 63552, Note_on_c, 0, 36, 85
14, 63616, Note_on_c, 0, 36, 0
14, 63744, Note_on_c, 0, 36, 100
14, 64184, Note_on_c, 0, 36, 0
14, 64320, Note_on_c, 0, 43, 96
14, 64372, Note_on_c, 0, 43, 0
14, 64512, Note_on_c, 0, 43, 113
14, 64928, Note_on_c, 0, 43, 0
14, 65088, Note_on_c, 0, 40, 96
14, 65160, Note_on_c, 0, 40, 0
14, 65280, Note_on_c, 0, 40, 108
14, 65292, Channel_aftertouch_c, 0, 10
14, 65304, Channel_aftertouch_c, 0, 0
14, 65696, Note_on_c, 0, 40, 0
14, 65856, Note_on_c, 0, 38, 92
14, 65904, Note_on_c, 0, 38, 0
14, 66048, Note_on_c, 0, 38, 113
14, 66452, Note_on_c, 0, 38, 0
14, 66624, Note_on_c, 0, 36, 85
14, 66688, Note_on_c, 0, 36, 0
14, 66816, Note_on_c, 0, 36, 100
14, 67256, Note_on_c, 0, 36, 0
14, 67392, Note_on_c, 0, 43, 96
14, 67444, Note_on_c, 0, 43, 0
14, 67584, Note_on_c, 0, 43, 113
14, 68000, Note_on_c, 0, 43, 0
14, 68160, Note_on_c, 0, 40, 96
14, 68232, Note_on_c, 0, 40, 0
14, 68352, Note_on_c, 0, 40, 108
14, 68364, Channel_aftertouch_c, 0, 10
14, 68376, Channel_aftertouch_c, 0, 0
14, 68768, Note_on_c, 0, 40, 0
14, 68928, Note_on_c, 0, 38, 92
14, 68976, Note_on_c, 0, 38, 0
14, 69120, Note_on_c, 0, 38, 113
14, 69524, Note_on_c, 0, 38, 0
14, 69696, Note_on_c, 0, 36, 85
14, 69760, Note_on_c, 0, 36, 0
14, 69888, Note_on_c, 0, 36, 100
14, 70328, Note_on_c, 0, 36, 0
14, 70464, Note_on_c, 0, 43, 96
14, 70516, Note_on_c, 0, 43, 0
14, 70656, Note_on_c, 0, 43, 113
14, 71072, Note_on_c, 0, 43, 0
14, 71232, Note_on_c, 0, 40, 96
14, 71304, Note_on_c, 0, 40, 0
14, 71424, Note_on_c, 0, 40, 108
14, 71436, Channel_aftertouch_c, 0, 10
14, 71448, Channel_aftertouch_c, 0, 0
14, 71840, Note_on_c, 0, 40, 0
14, 72000, Note_on_c, 0, 38, 92
14, 72048, Note_on_c, 0, 38, 0
14, 72192, Note_on_c, 0, 38, 113
14, 72596, Note_on_c, 0, 38, 0
14, 72768, Note_on_c, 0, 36, 85
14, 72832, Note_on_c, 0, 36, 0
14, 72960, Note_on_c, 0, 36, 100
14, 73400, Note_on_c, 0, 36, 0
14, 73536, Note_on_c, 0, 43, 96
14, 73588, Note_on_c, 0, 43, 0
14, 73728, Note_on_c, 0, 43, 113
14, 74144, Note_on_c, 0, 43, 0
14, 74304, Note_on_c, 0, 40, 96
14, 74376, Note_on_c, 0, 40, 0
14, 74496, Note_on_c, 0, 40, 108
14, 74508, Channel_aftertouch_c, 0, 10
14, 74520, Channel_aftertouch_c, 0, 0
14, 74912, Note_on_c, 0, 40, 0
14, 75072, Note_on_c, 0, 38, 92
14, 75120, Note_on_c, 0, 38, 0
14, 75264, Note_on_c, 0, 38, 100
14, 75264, Channel_aftertouch_c, 0, 13
14, 75272, Channel_aftertouch_c, 0, 15
14, 75280, Channel_aftertouch_c, 0, 0
14, 75328, Channel_aftertouch_c, 0, 10
14, 75340, Channel_aftertouch_c, 0, 16
14, 75352, Channel_aftertouch_c, 0, 21
14, 75364, Channel_aftertouch_c, 0, 23
14, 75376, Channel_aftertouch_c, 0, 24
14, 75388, Channel_aftertouch_c, 0, 25
14, 75400, Channel_aftertouch_c, 0, 26
14, 75412, Channel_aftertouch_c, 0, 28
14, 75424, Channel_aftertouch_c, 0, 30
14, 75436, Channel_aftertouch_c, 0, 33
14, 75448, Channel_aftertouch_c, 0, 34
14, 75456, Channel_aftertouch_c, 0, 35
14, 75472, Channel_aftertouch_c, 0, 36
14, 75480, Channel_aftertouch_c, 0, 37
14, 75496, Channel_aftertouch_c, 0, 38
14, 75504, Channel_aftertouch_c, 0, 38
14, 75516, Channel_aftertouch_c, 0, 39
14, 75532, Channel_aftertouch_c, 0, 40
14, 75540, Channel_aftertouch_c, 0, 41
14, 75552, Channel_aftertouch_c, 0, 42
14, 75568, Channel_aftertouch_c, 0, 42
14, 75576, Channel_aftertouch_c, 0, 43
14, 75588, Channel_aftertouch_c, 0, 44
14, 75600, Channel_aftertouch_c, 0, 44
14, 75624, Channel_aftertouch_c, 0, 39
14, 75636, Channel_aftertouch_c, 0, 26
14, 75648, Channel_aftertouch_c, 0, 0
14, 75664, Note_on_c, 0, 38, 0
14, 75840, Note_on_c, 0, 38, 100
14, 75900, Note_on_c, 0, 38, 0
14, 76032, Note_on_c, 0, 38, 113
14, 76040, Channel_aftertouch_c, 0, 127
14, 76052, Channel_aftertouch_c, 0, 45
14, 76064, Channel_aftertouch_c, 0, 59
14, 76076, Channel_aftertouch_c, 0, 37
14, 76088, Channel_aftertouch_c, 0, 7
14, 76100, Channel_aftertouch_c, 0, 5
14, 76112, Channel_aftertouch_c, 0, 18
14, 76124, Channel_aftertouch_c, 0, 33
14, 76136, Channel_aftertouch_c, 0, 39
14, 76148, Channel_aftertouch_c, 0, 43
14, 76192, Channel_aftertouch_c, 0, 45
14, 76204, Channel_aftertouch_c, 0, 47
14, 76216, Channel_aftertouch_c, 0, 50
14, 76228, Channel_aftertouch_c, 0, 52
14, 76240, Channel_aftertouch_c, 0, 54
14, 76252, Channel_aftertouch_c, 0, 55
14, 76264, Channel_aftertouch_c, 0, 56
14, 76276, Channel_aftertouch_c, 0, 57
14, 76288, Channel_aftertouch_c, 0, 57
14, 76300, Channel_aftertouch_c, 0, 58
14, 76312, Channel_aftertouch_c, 0, 60
14, 76324, Channel_aftertouch_c, 0, 63
14, 76336, Channel_aftertouch_c, 0, 66
14, 76348, Channel_aftertouch_c, 0, 68
14, 76360, Channel_aftertouch_c, 0, 69
14, 76372, Channel_aftertouch_c, 0, 71
14, 76384, Channel_aftertouch_c, 0, 72
14, 76396, Channel_aftertouch_c, 0, 61
14, 76408, Channel_aftertouch_c, 0, 23
14, 76420, Note_on_c, 0, 38, 0
14, 76420, Channel_aftertouch_c, 0, 0
14, 76608, Note_on_c, 0, 40, 80
14, 76704, Note_on_c, 0, 40, 0
14, 76800, Note_on_c, 0, 40, 96
14, 76996, Channel_aftertouch_c, 0, 2
14, 77008, Channel_aftertouch_c, 0, 3
14, 77020, Channel_aftertouch_c, 0, 4
14, 77032, Channel_aftertouch_c, 0, 5
14, 77040, Channel_aftertouch_c, 0, 6
14, 77076, Channel_aftertouch_c, 0, 6
14, 77088, Channel_aftertouch_c, 0, 7
14, 77100, Channel_aftertouch_c, 0, 8
14, 77112, Channel_aftertouch_c, 0, 9
14, 77144, Channel_aftertouch_c, 0, 7
14, 77160, Channel_aftertouch_c, 0, 1
14, 77168, Channel_aftertouch_c, 0, 0
14, 77208, Note_on_c, 0, 40, 0
14, 77376, Note_on_c, 0, 40, 92
14, 77464, Note_on_c, 0, 40, 0
14, 77568, Note_on_c, 0, 40, 100
14, 77720, Channel_aftertouch_c, 0, 2
14, 77728, Channel_aftertouch_c, 0, 4
14, 77740, Channel_aftertouch_c, 0, 5
14, 77752, Channel_aftertouch_c, 0, 5
14, 77764, Channel_aftertouch_c, 0, 6
14, 77776, Channel_aftertouch_c, 0, 6
14, 77788, Channel_aftertouch_c, 0, 7
14, 77800, Channel_aftertouch_c, 0, 8
14, 77812, Channel_aftertouch_c, 0, 9
14, 77856, Channel_aftertouch_c, 0, 9
14, 77872, Channel_aftertouch_c, 0, 10
14, 77880, Channel_aftertouch_c, 0, 12
14, 77892, Channel_aftertouch_c, 0, 13
14, 77904, Channel_aftertouch_c, 0, 13
14, 77916, Channel_aftertouch_c, 0, 14
14, 77952, Channel_aftertouch_c, 0, 6
14, 77964, Channel_aftertouch_c, 0, 0
14, 77992, Note_on_c, 0, 40, 0
14, 78144, Note_on_c, 0, 42, 104
14, 78204, Note_on_c, 0, 42, 0
14, 78328, Channel_aftertouch_c, 0, 18
14, 78336, Note_on_c, 0, 42, 108
14, 78344, Channel_aftertouch_c, 0, 0
14, 78784, Note_on_c, 0, 42, 0
14, 78912, Note_on_c, 0, 40, 85
14, 78992, Note_on_c, 0, 40, 0
14, 79104, Note_on_c, 0, 40, 100
14, 79560, Note_on_c, 0, 40, 0
14, 79680, Note_on_c, 0, 45, 89
14, 79784, Note_on_c, 0, 45, 0
14, 79872, Note_on_c, 0, 45, 104
14, 80348, Note_on_c, 0, 45, 0
14, 80448, Note_on_c, 0, 45, 96
14, 80640, Note_on_c, 0, 33, 113
14, 80664, Note_on_c, 0, 45, 0
14, 80964, Note_on_c, 0, 33, 0
14, 81024, Note_on_c, 0, 33, 100
14, 81216, Note_on_c, 0, 35, 104
14, 81224, Note_on_c, 0, 33, 0
14, 81396, Note_on_c, 0, 35, 0
14, 81408, Note_on_c, 0, 36, 104
14, 81800, Note_on_c, 0, 36, 0
14, 81984, Note_on_c, 0, 36, 104
14, 82040, Note_on_c, 0, 36, 0
14, 82176, Note_on_c, 0, 36, 104
14, 82624, Note_on_c, 0, 36, 0
14, 82752, Note_on_c, 0, 36, 100
14, 82828, Note_on_c, 0, 36, 0
14, 82944, Note_on_c, 0, 38, 99
14, 83344, Note_on_c, 0, 38, 0
14, 83520, Note_on_c, 0, 38, 114
14, 83576, Note_on_c, 0, 38, 0
14, 83712, Note_on_c, 0, 38, 127
14, 84132, Note_on_c, 0, 38, 0
14, 84288, Note_on_c, 0, 38, 89
14, 84340, Note_on_c, 0, 38, 0
14, 84480, Note_on_c, 0, 38, 120
14, 84548, Note_on_c, 0, 38, 0
14, 84672, Note_on_c, 0, 38, 111
14, 84736, Note_on_c, 0, 38, 0
14, 84864, Note_on_c, 0, 38, 102
14, 84928, Note_on_c, 0, 38, 0
14, 85056, Note_on_c, 0, 38, 125
14, 85104, Note_on_c, 0, 38, 0
14, 85248, Note_on_c, 0, 38, 127
14, 85556, Note_on_c, 0, 38, 0
14, 85632, Note_on_c, 0, 38, 96
14, 85704, Note_on_c, 0, 38, 0
14, 85824, Note_on_c, 0, 38, 108
14, 85992, Note_on_c, 0, 38, 0
14, 86016, Note_on_c, 0, 43, 127
14, 86480, Note_on_c, 0, 43, 0
14, 86592, Note_on_c, 0, 43, 111
14, 86672, Note_on_c, 0, 43, 0
14, 86784, Note_on_c, 0, 40, 69
14, 87168, Note_on_c, 0, 40, 0
14, 87168, Note_on_c, 0, 38, 74
14, 87336, Note_on_c, 0, 38, 0
14, 87360, Note_on_c, 0, 45, 102
14, 87552, Note_on_c, 0, 45, 0
14, 87552, Note_on_c, 0, 43, 117
14, 88000, Note_on_c, 0, 43, 0
14, 88128, Note_on_c, 0, 43, 99
14, 88184, Note_on_c, 0, 43, 0
14, 88320, Note_on_c, 0, 43, 126
14, 88704, Note_on_c, 0, 43, 0
14, 88704, Note_on_c, 0, 42, 127
14, 88896, Note_on_c, 0, 42, 0
14, 88896, Note_on_c, 0, 45, 124
14, 89084, Note_on_c, 0, 45, 0
14, 89088, Note_on_c, 0, 40, 96
14, 89284, Channel_aftertouch_c, 0, 2
14, 89296, Channel_aftertouch_c, 0, 3
14, 89308, Channel_aftertouch_c, 0, 4
14, 89320, Channel_aftertouch_c, 0, 5
14, 89328, Channel_aftertouch_c, 0, 6
14, 89364, Channel_aftertouch_c, 0, 6
14, 89376, Channel_aftertouch_c, 0, 7
14, 89388, Channel_aftertouch_c, 0, 8
14, 89400, Channel_aftertouch_c, 0, 9
14, 89432, Channel_aftertouch_c, 0, 7
14, 89448, Channel_aftertouch_c, 0, 1
14, 89456, Channel_aftertouch_c, 0, 0
14, 89496, Note_on_c, 0, 40, 0
14, 89664, Note_on_c, 0, 40, 92
14, 89752, Note_on_c, 0, 40, 0
14, 89856, Note_on_c, 0, 40, 100
14, 90008, Channel_aftertouch_c, 0, 2
14, 90016, Channel_aftertouch_c, 0, 4
14, 90028, Channel_aftertouch_c, 0, 5
14, 90040, Channel_aftertouch_c, 0, 5
14, 90052, Channel_aftertouch_c, 0, 6
14, 90064, Channel_aftertouch_c, 0, 6
14, 90076, Channel_aftertouch_c, 0, 7
14, 90088, Channel_aftertouch_c, 0, 8
14, 90100, Channel_aftertouch_c, 0, 9
14, 90144, Channel_aftertouch_c, 0, 9
14, 90160, Channel_aftertouch_c, 0, 10
14, 90168, Channel_aftertouch_c, 0, 12
14, 90180, Channel_aftertouch_c, 0, 13
14, 90192, Channel_aftertouch_c, 0, 13
14, 90204, Channel_aftertouch_c, 0, 14
14, 90240, Channel_aftertouch_c, 0, 6
14, 90252, Channel_aftertouch_c, 0, 0
14, 90280, Note_on_c, 0, 40, 0
14, 90432, Note_on_c, 0, 42, 104
14, 90492, Note_on_c, 0, 42, 0
14, 90616, Channel_aftertouch_c, 0, 18
14, 90624, Note_on_c, 0, 42, 108
14, 90632, Channel_aftertouch_c, 0, 0
14, 91072, Note_on_c, 0, 42, 0
14, 91200, Note_on_c, 0, 40, 85
14, 91280, Note_on_c, 0, 40, 0
14, 91392, Note_on_c, 0, 40, 100
14, 91848, Note_on_c, 0, 40, 0
14, 91968, Note_on_c, 0, 45, 89
14, 92072, Note_on_c, 0, 45, 0
14, 92160, Note_on_c, 0, 45, 104
14, 92636, Note_on_c, 0, 45, 0
14, 92736, Note_on_c, 0, 45, 96
14, 92928, Note_on_c, 0, 45, 0
14, 92928, Note_on_c, 0, 33, 113
14, 93252, Note_on_c, 0, 33, 0
14, 93312, Note_on_c, 0, 33, 100
14, 93504, Note_on_c, 0, 33, 0
14, 93504, Note_on_c, 0, 35, 104
14, 93684, Note_on_c, 0, 35, 0
14, 93696, Note_on_c, 0, 36, 104
14, 94088, Note_on_c, 0, 36, 0
14, 94272, Note_on_c, 0, 36, 104
14, 94328, Note_on_c, 0, 36, 0
14, 94464, Note_on_c, 0, 36, 104
14, 94912, Note_on_c, 0, 36, 0
14, 95040, Note_on_c, 0, 36, 100
14, 95116, Note_on_c, 0, 36, 0
14, 95232, Note_on_c, 0, 38, 127
14, 95548, Note_on_c, 0, 38, 0
14, 95616, Note_on_c, 0, 38, 127
14, 95700, Note_on_c, 0, 38, 0
14, 95808, Note_on_c, 0, 38, 111
14, 95860, Note_on_c, 0, 38, 0
14, 96000, Note_on_c, 0, 38, 124
14, 96296, Note_on_c, 0, 38, 0
14, 96384, Note_on_c, 0, 38, 127
14, 96652, Note_on_c, 0, 38, 0
14, 96768, Note_on_c, 0, 38, 127
14, 97056, Note_on_c, 0, 38, 0
14, 97152, Note_on_c, 0, 38, 127
14, 97216, Note_on_c, 0, 38, 0
14, 97344, Note_on_c, 0, 38, 96
14, 97392, Note_on_c, 0, 38, 0
14, 97536, Note_on_c, 0, 38, 127
14, 97836, Note_on_c, 0, 38, 0
14, 97920, Note_on_c, 0, 38, 126
14, 97988, Note_on_c, 0, 38, 0
14, 98112, Note_on_c, 0, 38, 127
14, 98232, Note_on_c, 0, 38, 0
14, 98304, Note_on_c, 0, 43, 108
14, 98328, Channel_aftertouch_c, 0, 97
14, 98340, Channel_aftertouch_c, 0, 47
14, 98352, Channel_aftertouch_c, 0, 53
14, 98364, Channel_aftertouch_c, 0, 36
14, 98376, Channel_aftertouch_c, 0, 17
14, 98388, Channel_aftertouch_c, 0, 14
14, 98400, Channel_aftertouch_c, 0, 18
14, 98412, Channel_aftertouch_c, 0, 25
14, 98424, Channel_aftertouch_c, 0, 34
14, 98436, Channel_aftertouch_c, 0, 38
14, 98448, Channel_aftertouch_c, 0, 42
14, 98460, Channel_aftertouch_c, 0, 43
14, 98516, Channel_aftertouch_c, 0, 44
14, 98528, Channel_aftertouch_c, 0, 45
14, 98536, Channel_aftertouch_c, 0, 46
14, 98552, Channel_aftertouch_c, 0, 47
14, 98564, Channel_aftertouch_c, 0, 48
14, 98576, Channel_aftertouch_c, 0, 50
14, 98588, Channel_aftertouch_c, 0, 50
14, 98600, Channel_aftertouch_c, 0, 51
14, 98608, Channel_aftertouch_c, 0, 52
14, 98624, Channel_aftertouch_c, 0, 53
14, 98632, Channel_aftertouch_c, 0, 54
14, 98648, Channel_aftertouch_c, 0, 57
14, 98656, Channel_aftertouch_c, 0, 58
14, 98680, Channel_aftertouch_c, 0, 52
14, 98684, Note_on_c, 0, 43, 0
14, 98692, Channel_aftertouch_c, 0, 0
14, 98880, Note_on_c, 0, 40, 96
14, 98896, Channel_aftertouch_c, 0, 12
14, 98908, Channel_aftertouch_c, 0, 0
14, 98940, Note_on_c, 0, 40, 0
14, 99072, Note_on_c, 0, 40, 108
14, 99100, Channel_aftertouch_c, 0, 67
14, 99112, Channel_aftertouch_c, 0, 47
14, 99120, Channel_aftertouch_c, 0, 28
14, 99136, Channel_aftertouch_c, 0, 25
14, 99148, Channel_aftertouch_c, 0, 35
14, 99160, Channel_aftertouch_c, 0, 40
14, 99168, Channel_aftertouch_c, 0, 42
14, 99184, Channel_aftertouch_c, 0, 44
14, 99192, Channel_aftertouch_c, 0, 45
14, 99204, Channel_aftertouch_c, 0, 45
14, 99228, Channel_aftertouch_c, 0, 46
14, 99240, Channel_aftertouch_c, 0, 46
14, 99252, Channel_aftertouch_c, 0, 47
14, 99264, Channel_aftertouch_c, 0, 49
14, 99276, Channel_aftertouch_c, 0, 50
14, 99288, Channel_aftertouch_c, 0, 50
14, 99300, Channel_aftertouch_c, 0, 51
14, 99312, Channel_aftertouch_c, 0, 51
14, 99336, Channel_aftertouch_c, 0, 52
14, 99348, Channel_aftertouch_c, 0, 53
14, 99368, Channel_aftertouch_c, 0, 53
14, 99404, Channel_aftertouch_c, 0, 54
14, 99416, Channel_aftertouch_c, 0, 56
14, 99440, Channel_aftertouch_c, 0, 46
14, 99448, Note_on_c, 0, 40, 0
14, 99452, Channel_aftertouch_c, 0, 0
14, 99640, Channel_aftertouch_c, 0, 82
14, 99648, Note_on_c, 0, 38, 100
14, 99648, Channel_aftertouch_c, 0, 31
14, 99664, Channel_aftertouch_c, 0, 0
14, 99724, Note_on_c, 0, 38, 0
14, 99840, Note_on_c, 0, 38, 104
14, 99840, Channel_aftertouch_c, 0, 119
14, 99856, Channel_aftertouch_c, 0, 79
14, 99864, Channel_aftertouch_c, 0, 76
14, 99880, Channel_aftertouch_c, 0, 46
14, 99888, Channel_aftertouch_c, 0, 37
14, 99900, Channel_aftertouch_c, 0, 40
14, 99912, Channel_aftertouch_c, 0, 46
14, 99924, Channel_aftertouch_c, 0, 50
14, 99936, Channel_aftertouch_c, 0, 54
14, 99948, Channel_aftertouch_c, 0, 58
14, 99960, Channel_aftertouch_c, 0, 59
14, 99984, Channel_aftertouch_c, 0, 60
14, 99996, Channel_aftertouch_c, 0, 60
14, 100008, Channel_aftertouch_c, 0, 61
14, 100020, Channel_aftertouch_c, 0, 62
14, 100032, Channel_aftertouch_c, 0, 63
14, 100044, Channel_aftertouch_c, 0, 63
14, 100088, Channel_aftertouch_c, 0, 64
14, 100100, Channel_aftertouch_c, 0, 64
14, 100112, Channel_aftertouch_c, 0, 65
14, 100156, Channel_aftertouch_c, 0, 66
14, 100168, Channel_aftertouch_c, 0, 67
14, 100180, Channel_aftertouch_c, 0, 70
14, 100192, Channel_aftertouch_c, 0, 72
14, 100204, Channel_aftertouch_c, 0, 66
14, 100216, Channel_aftertouch_c, 0, 0
14, 100224, Note_on_c, 0, 38, 0
14, 100416, Note_on_c, 0, 36, 96
14, 100480, Note_on_c, 0, 36, 0
14, 100608, Note_on_c, 0, 36, 108
14, 100620, Channel_aftertouch_c, 0, 34
14, 100632, Channel_aftertouch_c, 0, 11
14, 100644, Channel_aftertouch_c, 0, 0
14, 100680, Channel_aftertouch_c, 0, 6
14, 100688, Channel_aftertouch_c, 0, 7
14, 100704, Channel_aftertouch_c, 0, 10
14, 100712, Channel_aftertouch_c, 0, 14
14, 100728, Channel_aftertouch_c, 0, 18
14, 100736, Channel_aftertouch_c, 0, 19
14, 100748, Channel_aftertouch_c, 0, 20
14, 100760, Channel_aftertouch_c, 0, 21
14, 100772, Channel_aftertouch_c, 0, 22
14, 100784, Channel_aftertouch_c, 0, 24
14, 100800, Channel_aftertouch_c, 0, 25
14, 100808, Channel_aftertouch_c, 0, 26
14, 100840, Channel_aftertouch_c, 0, 27
14, 100856, Channel_aftertouch_c, 0, 27
14, 100868, Channel_aftertouch_c, 0, 28
14, 100880, Channel_aftertouch_c, 0, 28
14, 100900, Channel_aftertouch_c, 0, 29
14, 100912, Channel_aftertouch_c, 0, 30
14, 100924, Channel_aftertouch_c, 0, 31
14, 100936, Channel_aftertouch_c, 0, 33
14, 100948, Channel_aftertouch_c, 0, 31
14, 100960, Channel_aftertouch_c, 0, 14
14, 100972, Channel_aftertouch_c, 0, 0
14, 100988, Note_on_c, 0, 36, 0
14, 101184, Note_on_c, 0, 43, 100
14, 101240, Note_on_c, 0, 43, 0
14, 101376, Note_on_c, 0, 43, 117
14, 101408, Channel_aftertouch_c, 0, 56
14, 101416, Channel_aftertouch_c, 0, 48
14, 101432, Channel_aftertouch_c, 0, 24
14, 101440, Channel_aftertouch_c, 0, 13
14, 101452, Channel_aftertouch_c, 0, 17
14, 101464, Channel_aftertouch_c, 0, 22
14, 101476, Channel_aftertouch_c, 0, 29
14, 101488, Channel_aftertouch_c, 0, 35
14, 101500, Channel_aftertouch_c, 0, 38
14, 101548, Channel_aftertouch_c, 0, 40
14, 101560, Channel_aftertouch_c, 0, 44
14, 101568, Channel_aftertouch_c, 0, 49
14, 101584, Channel_aftertouch_c, 0, 50
14, 101592, Channel_aftertouch_c, 0, 52
14, 101604, Channel_aftertouch_c, 0, 53
14, 101616, Channel_aftertouch_c, 0, 56
14, 101628, Channel_aftertouch_c, 0, 58
14, 101640, Channel_aftertouch_c, 0, 59
14, 101652, Channel_aftertouch_c, 0, 59
14, 101664, Channel_aftertouch_c, 0, 60
14, 101676, Channel_aftertouch_c, 0, 61
14, 101688, Channel_aftertouch_c, 0, 62
14, 101700, Channel_aftertouch_c, 0, 63
14, 101712, Channel_aftertouch_c, 0, 65
14, 101724, Channel_aftertouch_c, 0, 68
14, 101736, Channel_aftertouch_c, 0, 72
14, 101748, Channel_aftertouch_c, 0, 74
14, 101760, Channel_aftertouch_c, 0, 70
14, 101772, Channel_aftertouch_c, 0, 0
14, 101776, Note_on_c, 0, 43, 0
14, 101952, Note_on_c, 0, 40, 92
14, 102012, Note_on_c, 0, 40, 0
14, 102144, Note_on_c, 0, 40, 108
14, 102160, Channel_aftertouch_c, 0, 94
14, 102172, Channel_aftertouch_c, 0, 37
14, 102184, Channel_aftertouch_c, 0, 43
14, 102196, Channel_aftertouch_c, 0, 16
14, 102208, Channel_aftertouch_c, 0, 1
14, 102220, Channel_aftertouch_c, 0, 7
14, 102232, Channel_aftertouch_c, 0, 16
14, 102244, Channel_aftertouch_c, 0, 20
14, 102256, Channel_aftertouch_c, 0, 22
14, 102268, Channel_aftertouch_c, 0, 22
14, 102280, Channel_aftertouch_c, 0, 25
14, 102292, Channel_aftertouch_c, 0, 29
14, 102304, Channel_aftertouch_c, 0, 33
14, 102316, Channel_aftertouch_c, 0, 34
14, 102340, Channel_aftertouch_c, 0, 35
14, 102352, Channel_aftertouch_c, 0, 37
14, 102360, Channel_aftertouch_c, 0, 39
14, 102376, Channel_aftertouch_c, 0, 41
14, 102384, Channel_aftertouch_c, 0, 42
14, 102416, Channel_aftertouch_c, 0, 43
14, 102432, Channel_aftertouch_c, 0, 43
14, 102444, Channel_aftertouch_c, 0, 44
14, 102456, Channel_aftertouch_c, 0, 45
14, 102468, Channel_aftertouch_c, 0, 46
14, 102480, Channel_aftertouch_c, 0, 46
14, 102492, Channel_aftertouch_c, 0, 47
14, 102504, Channel_aftertouch_c, 0, 49
14, 102516, Channel_aftertouch_c, 0, 54
14, 102528, Channel_aftertouch_c, 0, 45
14, 102536, Note_on_c, 0, 40, 0
14, 102548, Channel_aftertouch_c, 0, 0
14, 102720, Note_on_c, 0, 38, 108
14, 102784, Note_on_c, 0, 38, 0
14, 102912, Note_on_c, 0, 38, 108
14, 102920, Channel_aftertouch_c, 0, 77
14, 102932, Channel_aftertouch_c, 0, 0
14, 102976, Channel_aftertouch_c, 0, 3
14, 102988, Channel_aftertouch_c, 0, 9
14, 103000, Channel_aftertouch_c, 0, 10
14, 103012, Channel_aftertouch_c, 0, 8
14, 103036, Channel_aftertouch_c, 0, 10
14, 103048, Channel_aftertouch_c, 0, 11
14, 103060, Channel_aftertouch_c, 0, 12
14, 103072, Channel_aftertouch_c, 0, 14
14, 103096, Channel_aftertouch_c, 0, 14
14, 103108, Channel_aftertouch_c, 0, 15
14, 103120, Channel_aftertouch_c, 0, 17
14, 103132, Channel_aftertouch_c, 0, 18
14, 103140, Channel_aftertouch_c, 0, 20
14, 103152, Channel_aftertouch_c, 0, 22
14, 103164, Channel_aftertouch_c, 0, 24
14, 103180, Channel_aftertouch_c, 0, 25
14, 103188, Channel_aftertouch_c, 0, 26
14, 103200, Channel_aftertouch_c, 0, 27
14, 103236, Channel_aftertouch_c, 0, 28
14, 103248, Channel_aftertouch_c, 0, 29
14, 103260, Channel_aftertouch_c, 0, 32
14, 103272, Channel_aftertouch_c, 0, 37
14, 103284, Channel_aftertouch_c, 0, 46
14, 103296, Channel_aftertouch_c, 0, 49
14, 103308, Note_on_c, 0, 38, 0
14, 103308, Channel_aftertouch_c, 0, 0
14, 103488, Note_on_c, 0, 36, 104
14, 103548, Note_on_c, 0, 36, 0
14, 103680, Note_on_c, 0, 36, 100
14, 103700, Channel_aftertouch_c, 0, 7
14, 103712, Channel_aftertouch_c, 0, 4
14, 103724, Channel_aftertouch_c, 0, 0
14, 103748, Channel_aftertouch_c, 0, 3
14, 103760, Channel_aftertouch_c, 0, 8
14, 103772, Channel_aftertouch_c, 0, 10
14, 103784, Channel_aftertouch_c, 0, 12
14, 103792, Channel_aftertouch_c, 0, 14
14, 103808, Channel_aftertouch_c, 0, 15
14, 103816, Channel_aftertouch_c, 0, 17
14, 103832, Channel_aftertouch_c, 0, 19
14, 103840, Channel_aftertouch_c, 0, 20
14, 103852, Channel_aftertouch_c, 0, 22
14, 103864, Channel_aftertouch_c, 0, 24
14, 103876, Channel_aftertouch_c, 0, 26
14, 103888, Channel_aftertouch_c, 0, 26
14, 103900, Channel_aftertouch_c, 0, 27
14, 103924, Channel_aftertouch_c, 0, 28
14, 103936, Channel_aftertouch_c, 0, 28
14, 103948, Channel_aftertouch_c, 0, 29
14, 103960, Channel_aftertouch_c, 0, 30
14, 103968, Channel_aftertouch_c, 0, 30
14, 103992, Channel_aftertouch_c, 0, 31
14, 104008, Channel_aftertouch_c, 0, 32
14, 104020, Channel_aftertouch_c, 0, 33
14, 104032, Channel_aftertouch_c, 0, 36
14, 104052, Channel_aftertouch_c, 0, 28
14, 104064, Channel_aftertouch_c, 0, 0
14, 104068, Note_on_c, 0, 36, 0
14, 104252, Channel_aftertouch_c, 0, 12
14, 104256, Note_on_c, 0, 43, 92
14, 104264, Channel_aftertouch_c, 0, 0
14, 104320, Note_on_c, 0, 43, 0
14, 104440, Channel_aftertouch_c, 0, 120
14, 104448, Note_on_c, 0, 43, 117
14, 104452, Channel_aftertouch_c, 0, 69
14, 104464, Channel_aftertouch_c, 0, 77
14, 104476, Channel_aftertouch_c, 0, 62
14, 104488, Channel_aftertouch_c, 0, 52
14, 104500, Channel_aftertouch_c, 0, 54
14, 104512, Channel_aftertouch_c, 0, 57
14, 104524, Channel_aftertouch_c, 0, 60
14, 104536, Channel_aftertouch_c, 0, 65
14, 104548, Channel_aftertouch_c, 0, 68
14, 104560, Channel_aftertouch_c, 0, 70
14, 104580, Channel_aftertouch_c, 0, 71
14, 104596, Channel_aftertouch_c, 0, 72
14, 104604, Channel_aftertouch_c, 0, 74
14, 104616, Channel_aftertouch_c, 0, 75
14, 104632, Channel_aftertouch_c, 0, 77
14, 104640, Channel_aftertouch_c, 0, 78
14, 104656, Channel_aftertouch_c, 0, 79
14, 104664, Channel_aftertouch_c, 0, 80
14, 104680, Channel_aftertouch_c, 0, 80
14, 104700, Channel_aftertouch_c, 0, 81
14, 104736, Channel_aftertouch_c, 0, 81
14, 104748, Channel_aftertouch_c, 0, 82
14, 104812, Channel_aftertouch_c, 0, 80
14, 104824, Channel_aftertouch_c, 0, 75
14, 104836, Channel_aftertouch_c, 0, 0
14, 104856, Note_on_c, 0, 43, 0
14, 105024, Note_on_c, 0, 40, 85
14, 105096, Note_on_c, 0, 40, 0
14, 105216, Note_on_c, 0, 40, 104
14, 105216, Channel_aftertouch_c, 0, 65
14, 105228, Channel_aftertouch_c, 0, 58
14, 105240, Channel_aftertouch_c, 0, 42
14, 105252, Channel_aftertouch_c, 0, 27
14, 105272, Channel_aftertouch_c, 0, 32
14, 105288, Channel_aftertouch_c, 0, 35
14, 105296, Channel_aftertouch_c, 0, 38
14, 105312, Channel_aftertouch_c, 0, 42
14, 105320, Channel_aftertouch_c, 0, 45
14, 105332, Channel_aftertouch_c, 0, 47
14, 105344, Channel_aftertouch_c, 0, 48
14, 105356, Channel_aftertouch_c, 0, 49
14, 105368, Channel_aftertouch_c, 0, 50
14, 105380, Channel_aftertouch_c, 0, 51
14, 105392, Channel_aftertouch_c, 0, 53
14, 105408, Channel_aftertouch_c, 0, 55
14, 105416, Channel_aftertouch_c, 0, 56
14, 105428, Channel_aftertouch_c, 0, 56
14, 105452, Channel_aftertouch_c, 0, 57
14, 105464, Channel_aftertouch_c, 0, 57
14, 105476, Channel_aftertouch_c, 0, 58
14, 105488, Channel_aftertouch_c, 0, 59
14, 105512, Channel_aftertouch_c, 0, 60
14, 105520, Channel_aftertouch_c, 0, 60
14, 105536, Channel_aftertouch_c, 0, 62
14, 105544, Channel_aftertouch_c, 0, 65
14, 105560, Channel_aftertouch_c, 0, 69
14, 105568, Channel_aftertouch_c, 0, 70
14, 105580, Channel_aftertouch_c, 0, 67
14, 105592, Channel_aftertouch_c, 0, 0
14, 105612, Note_on_c, 0, 40, 0
14, 105784, Channel_aftertouch_c, 0, 87
14, 105792, Note_on_c, 0, 38, 104
14, 105796, Channel_aftertouch_c, 0, 17
14, 105808, Channel_aftertouch_c, 0, 0
14, 105856, Note_on_c, 0, 38, 0
14, 105968, Channel_aftertouch_c, 0, 39
14, 105980, Channel_aftertouch_c, 0, 53
14, 105984, Note_on_c, 0, 38, 100
14, 105992, Channel_aftertouch_c, 0, 33
14, 106000, Channel_aftertouch_c, 0, 24
14, 106016, Channel_aftertouch_c, 0, 28
14, 106028, Channel_aftertouch_c, 0, 36
14, 106040, Channel_aftertouch_c, 0, 42
14, 106052, Channel_aftertouch_c, 0, 47
14, 106064, Channel_aftertouch_c, 0, 51
14, 106076, Channel_aftertouch_c, 0, 53
14, 106088, Channel_aftertouch_c, 0, 54
14, 106096, Channel_aftertouch_c, 0, 55
14, 106112, Channel_aftertouch_c, 0, 55
14, 106120, Channel_aftertouch_c, 0, 56
14, 106136, Channel_aftertouch_c, 0, 58
14, 106144, Channel_aftertouch_c, 0, 59
14, 106156, Channel_aftertouch_c, 0, 60
14, 106168, Channel_aftertouch_c, 0, 61
14, 106180, Channel_aftertouch_c, 0, 61
14, 106192, Channel_aftertouch_c, 0, 62
14, 106204, Channel_aftertouch_c, 0, 63
14, 106216, Channel_aftertouch_c, 0, 64
14, 106232, Channel_aftertouch_c, 0, 65
14, 106240, Channel_aftertouch_c, 0, 66
14, 106252, Channel_aftertouch_c, 0, 67
14, 106276, Channel_aftertouch_c, 0, 67
14, 106288, Channel_aftertouch_c, 0, 68
14, 106300, Channel_aftertouch_c, 0, 69
14, 106312, Channel_aftertouch_c, 0, 70
14, 106324, Channel_aftertouch_c, 0, 70
14, 106336, Channel_aftertouch_c, 0, 72
14, 106348, Channel_aftertouch_c, 0, 75
14, 106360, Channel_aftertouch_c, 0, 78
14, 106368, Channel_aftertouch_c, 0, 67
14, 106384, Channel_aftertouch_c, 0, 47
14, 106396, Channel_aftertouch_c, 0, 0
14, 106420, Note_on_c, 0, 38, 0
14, 106560, Note_on_c, 0, 36, 104
14, 106636, Note_on_c, 0, 36, 0
14, 106752, Note_on_c, 0, 36, 104
14, 106764, Channel_aftertouch_c, 0, 12
14, 106776, Channel_aftertouch_c, 0, 4
14, 106792, Channel_aftertouch_c, 0, 0
14, 106824, Channel_aftertouch_c, 0, 3
14, 106836, Channel_aftertouch_c, 0, 7
14, 106848, Channel_aftertouch_c, 0, 8
14, 106860, Channel_aftertouch_c, 0, 9
14, 106872, Channel_aftertouch_c, 0, 11
14, 106884, Channel_aftertouch_c, 0, 14
14, 106896, Channel_aftertouch_c, 0, 17
14, 106908, Channel_aftertouch_c, 0, 18
14, 106920, Channel_aftertouch_c, 0, 19
14, 106932, Channel_aftertouch_c, 0, 20
14, 106944, Channel_aftertouch_c, 0, 21
14, 106952, Channel_aftertouch_c, 0, 22
14, 106968, Channel_aftertouch_c, 0, 23
14, 106976, Channel_aftertouch_c, 0, 24
14, 106992, Channel_aftertouch_c, 0, 24
14, 107024, Channel_aftertouch_c, 0, 25
14, 107036, Channel_aftertouch_c, 0, 25
14, 107116, Channel_aftertouch_c, 0, 28
14, 107128, Channel_aftertouch_c, 0, 30
14, 107140, Channel_aftertouch_c, 0, 19
14, 107152, Channel_aftertouch_c, 0, 13
14, 107160, Channel_aftertouch_c, 0, 0
14, 107168, Note_on_c, 0, 36, 0
14, 107308, Channel_aftertouch_c, 0, 56
14, 107324, Channel_aftertouch_c, 0, 4
14, 107328, Note_on_c, 0, 38, 92
14, 107332, Channel_aftertouch_c, 0, 0
14, 107384, Note_on_c, 0, 38, 0
14, 107520, Note_on_c, 0, 38, 104
14, 107920, Note_on_c, 0, 38, 0
14, 108096, Note_on_c, 0, 35, 85
14, 108160, Note_on_c, 0, 35, 0
14, 108288, Note_on_c, 0, 35, 100
14, 108720, Note_on_c, 0, 35, 0
14, 108864, Note_on_c, 0, 38, 92
14, 108920, Note_on_c, 0, 38, 0
14, 109056, Note_on_c, 0, 38, 108
14, 109460, Note_on_c, 0, 38, 0
14, 109632, Note_on_c, 0, 35, 92
14, 109708, Note_on_c, 0, 35, 0
14, 109824, Note_on_c, 0, 35, 104
14, 110276, Note_on_c, 0, 35, 0
14, 110400, Note_on_c, 0, 40, 80
14, 110464, Note_on_c, 0, 40, 0
14, 110592, Note_on_c, 0, 45, 126
14, 111040, Note_on_c, 0, 45, 0
14, 111168, Note_on_c, 0, 42, 127
14, 111220, Note_on_c, 0, 42, 0
14, 111360, Note_on_c, 0, 42, 127
14, 111824, Note_on_c, 0, 42, 0
14, 111936, Note_on_c, 0, 40, 96
14, 112004, Note_on_c, 0, 40, 0
14, 112128, Note_on_c, 0, 40, 123
14, 112588, Note_on_c, 0, 40, 0
14, 112704, Note_on_c, 0, 38, 117
14, 112784, Note_on_c, 0, 38, 0
14, 112896, Note_on_c, 0, 38, 114
14, 113368, Note_on_c, 0, 38, 0
14, 113472, Note_on_c, 0, 38, 89
14, 113568, Note_on_c, 0, 38, 0
14, 113568, Note_on_c, 0, 40, 102
14, 113664, Note_on_c, 0, 40, 0
14, 113664, Note_on_c, 0, 45, 127
14, 113900, Note_on_c, 0, 45, 0
14, 113952, Note_on_c, 0, 45, 124
14, 114040, Note_on_c, 0, 45, 0
14, 114240, Note_on_c, 0, 42, 127
14, 114292, Note_on_c, 0, 42, 0
14, 114432, Note_on_c, 0, 42, 127
14, 114868, Note_on_c, 0, 42, 0
14, 115008, Note_on_c, 0, 40, 126
14, 115072, Note_on_c, 0, 40, 0
14, 115200, Note_on_c, 0, 40, 127
14, 115656, Note_on_c, 0, 40, 0
14, 115776, Note_on_c, 0, 38, 102
14, 115848, Note_on_c, 0, 38, 0
14, 115968, Note_on_c, 0, 38, 124
14, 116432, Note_on_c, 0, 38, 0
14, 116544, Note_on_c, 0, 38, 89
14, 116640, Note_on_c, 0, 38, 0
14, 116640, Note_on_c, 0, 40, 84
14, 116736, Note_on_c, 0, 40, 0
14, 116736, Note_on_c, 0, 45, 124
14, 117140, Note_on_c, 0, 45, 0
14, 117312, Note_on_c, 0, 42, 127
14, 117368, Note_on_c, 0, 42, 0
14, 117504, Note_on_c, 0, 42, 127
14, 117972, Note_on_c, 0, 42, 0
14, 118080, Note_on_c, 0, 40, 117
14, 118160, Note_on_c, 0, 40, 0
14, 118272, Note_on_c, 0, 40, 127
14, 118768, Note_on_c, 0, 40, 0
14, 118848, Note_on_c, 0, 38, 99
14, 118932, Note_on_c, 0, 38, 0
14, 119040, Note_on_c, 0, 38, 127
14, 119508, Note_on_c, 0, 38, 0
14, 119616, Note_on_c, 0, 40, 114
14, 119660, Note_on_c, 0, 40, 0
14, 119808, Program_c, 0, 32
14, 119808, Note_on_c, 0, 45, 127
14, 120248, Note_on_c, 0, 45, 0
14, 120384, Note_on_c, 0, 42, 127
14, 120432, Note_on_c, 0, 42, 0
14, 120576, Note_on_c, 0, 42, 123
14, 121040, Note_on_c, 0, 42, 0
14, 121152, Note_on_c, 0, 40, 123
14, 121212, Note_on_c, 0, 40, 0
14, 121344, Note_on_c, 0, 40, 108
14, 121800, Note_on_c, 0, 40, 0
14, 121920, Note_on_c, 0, 38, 120
14, 121988, Note_on_c, 0, 38, 0
14, 122112, Note_on_c, 0, 38, 127
14, 122564, Note_on_c, 0, 38, 0
14, 122688, Note_on_c, 0, 38, 89
14, 122776, Note_on_c, 0, 38, 0
14, 122784, Note_on_c, 0, 40, 79
14, 122880, Note_on_c, 0, 40, 0
14, 122880, Note_on_c, 0, 45, 114
14, 123300, Note_on_c, 0, 45, 0
14, 123456, Note_on_c, 0, 42, 127
14, 123500, Note_on_c, 0, 42, 0
14, 123648, Note_on_c, 0, 42, 127
14, 124096, Note_on_c, 0, 42, 0
14, 124224, Note_on_c, 0, 40, 89
14, 124292, Note_on_c, 0, 40, 0
14, 124416, Note_on_c, 0, 40, 117
14, 124860, Note_on_c, 0, 40, 0
14, 124992, Note_on_c, 0, 38, 111
14, 125068, Note_on_c, 0, 38, 0
14, 125184, Note_on_c, 0, 38, 125
14, 125660, Note_on_c, 0, 38, 0
14, 125760, Note_on_c, 0, 38, 89
14, 125856, Note_on_c, 0, 38, 0
14, 125856, Note_on_c, 0, 40, 89
14, 125952, Note_on_c, 0, 40, 0
14, 125952, Note_on_c, 0, 45, 126
14, 126172, Note_on_c, 0, 45, 0
14, 126240, Note_on_c, 0, 45, 111
14, 126292, Note_on_c, 0, 45, 0
14, 126336, Note_on_c, 0, 45, 69
14, 126408, Note_on_c, 0, 45, 0
14, 126528, Note_on_c, 0, 42, 127
14, 126580, Note_on_c, 0, 42, 0
14, 126720, Note_on_c, 0, 42, 127
14, 127176, Note_on_c, 0, 42, 0
14, 127296, Note_on_c, 0, 40, 111
14, 127360, Note_on_c, 0, 40, 0
14, 127488, Note_on_c, 0, 40, 127
14, 127968, Note_on_c, 0, 40, 0
14, 128064, Note_on_c, 0, 38, 111
14, 128136, Note_on_c, 0, 38, 0
14, 128256, Note_on_c, 0, 38, 117
14, 128696, Note_on_c, 0, 38, 0
14, 128832, Note_on_c, 0, 38, 89
14, 128920, Note_on_c, 0, 38, 0
14, 128928, Note_on_c, 0, 40, 102
14, 129024, Note_on_c, 0, 40, 0
14, 129024, Note_on_c, 0, 45, 114
14, 129436, Note_on_c, 0, 45, 0
14, 129600, Note_on_c, 0, 42, 127
14, 129652, Note_on_c, 0, 42, 0
14, 129792, Note_on_c, 0, 42, 127
14, 130244, Note_on_c, 0, 42, 0
14, 130368, Note_on_c, 0, 40, 108
14, 130436, Note_on_c, 0, 40, 0
14, 130560, Note_on_c, 0, 40, 120
14, 131048, Note_on_c, 0, 40, 0
14, 131136, Note_on_c, 0, 38, 79
14, 131204, Note_on_c, 0, 38, 0
14, 131328, Note_on_c, 0, 38, 111
14, 131784, Note_on_c, 0, 38, 0
14, 131904, Note_on_c, 0, 38, 80
14, 132000, Note_on_c, 0, 38, 0
14, 132000, Note_on_c, 0, 40, 80
14, 132096, Note_on_c, 0, 40, 0
14, 132096, Note_on_c, 0, 45, 105
14, 132400, Note_on_c, 0, 45, 0
14, 132480, Note_on_c, 0, 45, 105
14, 132672, Note_on_c, 0, 45, 0
14, 132672, Note_on_c, 0, 42, 124
14, 132864, Note_on_c, 0, 45, 108
14, 132872, Note_on_c, 0, 42, 0
14, 133056, Note_on_c, 0, 45, 0
14, 133056, Note_on_c, 0, 42, 99
14, 133228, Note_on_c, 0, 42, 0
14, 133248, Note_on_c, 0, 40, 96
14, 133424, Note_on_c, 0, 40, 0
14, 133440, Note_on_c, 0, 45, 114
14, 133824, Note_on_c, 0, 40, 84
14, 133856, Note_on_c, 0, 45, 0
14, 134016, Note_on_c, 0, 40, 0
14, 134016, Note_on_c, 0, 42, 99
14, 134208, Note_on_c, 0, 42, 0
14, 134208, Note_on_c, 0, 47, 126
14, 134312, Note_on_c, 0, 47, 0
14, 134400, Note_on_c, 0, 45, 102
14, 134592, Note_on_c, 0, 45, 0
14, 134592, Note_on_c, 0, 42, 120
14, 134784, Note_on_c, 0, 42, 0
14, 134784, Note_on_c, 0, 40, 96
14, 134976, Note_on_c, 0, 40, 0
14, 134976, Note_on_c, 0, 42, 127
14, 135028, Note_on_c, 0, 42, 0
14, 135168, Note_on_c, 0, 42, 96
14, 135364, Channel_aftertouch_c, 0, 2
14, 135376, Channel_aftertouch_c, 0, 3
14, 135388, Channel_aftertouch_c, 0, 4
14, 135400, Channel_aftertouch_c, 0, 5
14, 135408, Channel_aftertouch_c, 0, 6
14, 135444, Channel_aftertouch_c, 0, 6
14, 135456, Channel_aftertouch_c, 0, 7
14, 135468, Channel_aftertouch_c, 0, 8
14, 135480, Channel_aftertouch_c, 0, 9
14, 135512, Channel_aftertouch_c, 0, 7
14, 135528, Channel_aftertouch_c, 0, 1
14, 135536, Channel_aftertouch_c, 0, 0
14, 135576, Note_on_c, 0, 42, 0
14, 135744, Note_on_c, 0, 42, 92
14, 135832, Note_on_c, 0, 42, 0
14, 135936, Note_on_c, 0, 42, 100
14, 136088, Channel_aftertouch_c, 0, 2
14, 136096, Channel_aftertouch_c, 0, 4
14, 136108, Channel_aftertouch_c, 0, 5
14, 136120, Channel_aftertouch_c, 0, 5
14, 136132, Channel_aftertouch_c, 0, 6
14, 136144, Channel_aftertouch_c, 0, 6
14, 136156, Channel_aftertouch_c, 0, 7
14, 136168, Channel_aftertouch_c, 0, 8
14, 136180, Channel_aftertouch_c, 0, 9
14, 136224, Channel_aftertouch_c, 0, 9
14, 136240, Channel_aftertouch_c, 0, 10
14, 136248, Channel_aftertouch_c, 0, 12
14, 136260, Channel_aftertouch_c, 0, 13
14, 136272, Channel_aftertouch_c, 0, 13
14, 136284, Channel_aftertouch_c, 0, 14
14, 136320, Channel_aftertouch_c, 0, 6
14, 136332, Channel_aftertouch_c, 0, 0
14, 136360, Note_on_c, 0, 42, 0
14, 136512, Note_on_c, 0, 44, 104
14, 136572, Note_on_c, 0, 44, 0
14, 136696, Channel_aftertouch_c, 0, 18
14, 136704, Note_on_c, 0, 44, 108
14, 136712, Channel_aftertouch_c, 0, 0
14, 137152, Note_on_c, 0, 44, 0
14, 137280, Note_on_c, 0, 42, 85
14, 137360, Note_on_c, 0, 42, 0
14, 137472, Note_on_c, 0, 42, 100
14, 137928, Note_on_c, 0, 42, 0
14, 138048, Note_on_c, 0, 47, 89
14, 138152, Note_on_c, 0, 47, 0
14, 138240, Note_on_c, 0, 47, 104
14, 138716, Note_on_c, 0, 47, 0
14, 138816, Note_on_c, 0, 47, 96
14, 139008, Note_on_c, 0, 35, 113
14, 139032, Note_on_c, 0, 47, 0
14, 139332, Note_on_c, 0, 35, 0
14, 139392, Note_on_c, 0, 35, 100
14, 139584, Note_on_c, 0, 37, 104
14, 139592, Note_on_c, 0, 35, 0
14, 139764, Note_on_c, 0, 37, 0
14, 139776, Note_on_c, 0, 38, 104
14, 140168, Note_on_c, 0, 38, 0
14, 140352, Note_on_c, 0, 38, 104
14, 140408, Note_on_c, 0, 38, 0
14, 140544, Note_on_c, 0, 38, 104
14, 140992, Note_on_c, 0, 38, 0
14, 141120, Note_on_c, 0, 38, 100
14, 141196, Note_on_c, 0, 38, 0
14, 141312, Note_on_c, 0, 40, 99
14, 141712, Note_on_c, 0, 40, 0
14, 141888, Note_on_c, 0, 40, 114
14, 141944, Note_on_c, 0, 40, 0
14, 142080, Note_on_c, 0, 40, 127
14, 142500, Note_on_c, 0, 40, 0
14, 142656, Note_on_c, 0, 40, 89
14, 142708, Note_on_c, 0, 40, 0
14, 142848, Note_on_c, 0, 40, 120
14, 142916, Note_on_c, 0, 40, 0
14, 143040, Note_on_c, 0, 40, 111
14, 143104, Note_on_c, 0, 40, 0
14, 143232, Note_on_c, 0, 40, 102
14, 143296, Note_on_c, 0, 40, 0
14, 143424, Note_on_c, 0, 40, 125
14, 143472, Note_on_c, 0, 40, 0
14, 143616, Note_on_c, 0, 40, 127
14, 143924, Note_on_c, 0, 40, 0
14, 144000, Note_on_c, 0, 40, 96
14, 144072, Note_on_c, 0, 40, 0
14, 144192, Note_on_c, 0, 40, 108
14, 144360, Note_on_c, 0, 40, 0
14, 144384, Note_on_c, 0, 45, 127
14, 144848, Note_on_c, 0, 45, 0
14, 144960, Note_on_c, 0, 45, 111
14, 145040, Note_on_c, 0, 45, 0
14, 145152, Note_on_c, 0, 42, 69
14, 145536, Note_on_c, 0, 42, 0
14, 145536, Note_on_c, 0, 40, 74
14, 145704, Note_on_c, 0, 40, 0
14, 145728, Note_on_c, 0, 47, 102
14, 145920, Note_on_c, 0, 47, 0
14, 145920, Note_on_c, 0, 45, 117
14, 146368, Note_on_c, 0, 45, 0
14, 146496, Note_on_c, 0, 45, 99
14, 146552, Note_on_c, 0, 45, 0
14, 146688, Note_on_c, 0, 45, 126
14, 147072, Note_on_c, 0, 45, 0
14, 147072, Note_on_c, 0, 44, 127
14, 147264, Note_on_c, 0, 44, 0
14, 147264, Note_on_c, 0, 47, 124
14, 147452, Note_on_c, 0, 47, 0
14, 147456, Note_on_c, 0, 42, 96
14, 147652, Channel_aftertouch_c, 0, 2
14, 147664, Channel_aftertouch_c, 0, 3
14, 147676, Channel_aftertouch_c, 0, 4
14, 147688, Channel_aftertouch_c, 0, 5
14, 147696, Channel_aftertouch_c, 0, 6
14, 147732, Channel_aftertouch_c, 0, 6
14, 147744, Channel_aftertouch_c, 0, 7
14, 147756, Channel_aftertouch_c, 0, 8
14, 147768, Channel_aftertouch_c, 0, 9
14, 147800, Channel_aftertouch_c, 0, 7
14, 147816, Channel_aftertouch_c, 0, 1
14, 147824, Channel_aftertouch_c, 0, 0
14, 147864, Note_on_c, 0, 42, 0
14, 148032, Note_on_c, 0, 42, 92
14, 148120, Note_on_c, 0, 42, 0
14, 148224, Note_on_c, 0, 42, 100
14, 148376, Channel_aftertouch_c, 0, 2
14, 148384, Channel_aftertouch_c, 0, 4
14, 148396, Channel_aftertouch_c, 0, 5
14, 148408, Channel_aftertouch_c, 0, 5
14, 148420, Channel_aftertouch_c, 0, 6
14, 148432, Channel_aftertouch_c, 0, 6
14, 148444, Channel_aftertouch_c, 0, 7
14, 148456, Channel_aftertouch_c, 0, 8
14, 148468, Channel_aftertouch_c, 0, 9
14, 148512, Channel_aftertouch_c, 0, 9
14, 148528, Channel_aftertouch_c, 0, 10
14, 148536, Channel_aftertouch_c, 0, 12
14, 148548, Channel_aftertouch_c, 0, 13
14, 148560, Channel_aftertouch_c, 0, 13
14, 148572, Channel_aftertouch_c, 0, 14
14, 148608, Channel_aftertouch_c, 0, 6
14, 148620, Channel_aftertouch_c, 0, 0
14, 148648, Note_on_c, 0, 42, 0
14, 148800, Note_on_c, 0, 44, 104
14, 148860, Note_on_c, 0, 44, 0
14, 148984, Channel_aftertouch_c, 0, 18
14, 148992, Note_on_c, 0, 44, 108
14, 149000, Channel_aftertouch_c, 0, 0
14, 149440, Note_on_c, 0, 44, 0
14, 149568, Note_on_c, 0, 42, 85
14, 149648, Note_on_c, 0, 42, 0
14, 149760, Note_on_c, 0, 42, 100
14, 150216, Note_on_c, 0, 42, 0
14, 150336, Note_on_c, 0, 47, 89
14, 150440, Note_on_c, 0, 47, 0
14, 150528, Note_on_c, 0, 47, 104
14, 151004, Note_on_c, 0, 47, 0
14, 151104, Note_on_c, 0, 47, 96
14, 151296, Note_on_c, 0, 47, 0
14, 151296, Note_on_c, 0, 35, 113
14, 151620, Note_on_c, 0, 35, 0
14, 151680, Note_on_c, 0, 35, 100
14, 151872, Note_on_c, 0, 35, 0
14, 151872, Note_on_c, 0, 37, 104
14, 152052, Note_on_c, 0, 37, 0
14, 152064, Note_on_c, 0, 38, 104
14, 152456, Note_on_c, 0, 38, 0
14, 152640, Note_on_c, 0, 38, 104
14, 152696, Note_on_c, 0, 38, 0
14, 152832, Note_on_c, 0, 38, 104
14, 153280, Note_on_c, 0, 38, 0
14, 153408, Note_on_c, 0, 38, 100
14, 153484, Note_on_c, 0, 38, 0
14, 153600, Note_on_c, 0, 40, 127
14, 153916, Note_on_c, 0, 40, 0
14, 153984, Note_on_c, 0, 40, 127
14, 154068, Note_on_c, 0, 40, 0
14, 154176, Note_on_c, 0, 40, 111
14, 154228, Note_on_c, 0, 40, 0
14, 154368, Note_on_c, 0, 40, 124
14, 154664, Note_on_c, 0, 40, 0
14, 154752, Note_on_c, 0, 40, 127
14, 155020, Note_on_c, 0, 40, 0
14, 155136, Note_on_c, 0, 40, 127
14, 155424, Note_on_c, 0, 40, 0
14, 155520, Note_on_c, 0, 40, 127
14, 155584, Note_on_c, 0, 40, 0
14, 155712, Note_on_c, 0, 40, 96
14, 155760, Note_on_c, 0, 40, 0
14, 155904, Note_on_c, 0, 40, 127
14, 156204, Note_on_c, 0, 40, 0
14, 156288, Note_on_c, 0, 40, 126
14, 156356, Note_on_c, 0, 40, 0
14, 156480, Note_on_c, 0, 40, 127
14, 156600, Note_on_c, 0, 40, 0
14, 156672, Note_on_c, 0, 45, 113
14, 157088, Note_on_c, 0, 45, 0
14, 157248, Note_on_c, 0, 42, 96
14, 157320, Note_on_c, 0, 42, 0
14, 157440, Note_on_c, 0, 42, 108
14, 157452, Channel_aftertouch_c, 0, 10
14, 157464, Channel_aftertouch_c, 0, 0
14, 157856, Note_on_c, 0, 42, 0
14, 158016, Note_on_c, 0, 40, 92
14, 158064, Note_on_c, 0, 40, 0
14, 158208, Note_on_c, 0, 40, 113
14, 158612, Note_on_c, 0, 40, 0
14, 158784, Note_on_c, 0, 38, 85
14, 158848, Note_on_c, 0, 38, 0
14, 158976, Note_on_c, 0, 38, 100
14, 159416, Note_on_c, 0, 38, 0
14, 159552, Note_on_c, 0, 45, 96
14, 159604, Note_on_c, 0, 45, 0
14, 159744, Note_on_c, 0, 45, 113
14, 160160, Note_on_c, 0, 45, 0
14, 160320, Note_on_c, 0, 42, 96
14, 160392, Note_on_c, 0, 42, 0
14, 160512, Note_on_c, 0, 42, 108
14, 160524, Channel_aftertouch_c, 0, 10
14, 160536, Channel_aftertouch_c, 0, 0
14, 160928, Note_on_c, 0, 42, 0
14, 161088, Note_on_c, 0, 40, 92
14, 161136, Note_on_c, 0, 40, 0
14, 161280, Note_on_c, 0, 40, 113
14, 161684, Note_on_c, 0, 40, 0
14, 161856, Note_on_c, 0, 38, 85
14, 161920, Note_on_c, 0, 38, 0
14, 162048, Note_on_c, 0, 38, 100
14, 162488, Note_on_c, 0, 38, 0
14, 162624, Note_on_c, 0, 45, 96
14, 162676, Note_on_c, 0, 45, 0
14, 162816, Note_on_c, 0, 45, 113
14, 163232, Note_on_c, 0, 45, 0
14, 163392, Note_on_c, 0, 42, 96
14, 163464, Note_on_c, 0, 42, 0
14, 163584, Note_on_c, 0, 42, 108
14, 163596, Channel_aftertouch_c, 0, 10
14, 163608, Channel_aftertouch_c, 0, 0
14, 164000, Note_on_c, 0, 42, 0
14, 164160, Note_on_c, 0, 40, 92
14, 164208, Note_on_c, 0, 40, 0
14, 164352, Note_on_c, 0, 40, 113
14, 164756, Note_on_c, 0, 40, 0
14, 164928, Note_on_c, 0, 38, 85
14, 164992, Note_on_c, 0, 38, 0
14, 165120, Note_on_c, 0, 38, 100
14, 165560, Note_on_c, 0, 38, 0
14, 165696, Note_on_c, 0, 45, 96
14, 165748, Note_on_c, 0, 45, 0
14, 165888, Note_on_c, 0, 45, 113
14, 166304, Note_on_c, 0, 45, 0
14, 166464, Note_on_c, 0, 42, 96
14, 166536, Note_on_c, 0, 42, 0
14, 166656, Note_on_c, 0, 42, 108
14, 166668, Channel_aftertouch_c, 0, 10
14, 166680, Channel_aftertouch_c, 0, 0
14, 167072, Note_on_c, 0, 42, 0
14, 167232, Note_on_c, 0, 40, 92
14, 167280, Note_on_c, 0, 40, 0
14, 167424, Note_on_c, 0, 40, 113
14, 167828, Note_on_c, 0, 40, 0
14, 168000, Note_on_c, 0, 38, 85
14, 168064, Note_on_c, 0, 38, 0
14, 168192, Note_on_c, 0, 38, 100
14, 168632, Note_on_c, 0, 38, 0
14, 168768, Note_on_c, 0, 45, 96
14, 168820, Note_on_c, 0, 45, 0
14, 168960, Note_on_c, 0, 45, 113
14, 169376, Note_on_c, 0, 45, 0
14, 169536, Note_on_c, 0, 42, 96
14, 169608, Note_on_c, 0, 42, 0
14, 169728, Note_on_c, 0, 42, 108
14, 169740, Channel_aftertouch_c, 0, 10
14, 169752, Channel_aftertouch_c, 0, 0
14, 170144, Note_on_c, 0, 42, 0
14, 170304, Note_on_c, 0, 40, 92
14, 170352, Note_on_c, 0, 40, 0
14, 170496, Note_on_c, 0, 40, 113
14, 170900, Note_on_c, 0, 40, 0
14, 171072, Note_on_c, 0, 38, 85
14, 171136, Note_on_c, 0, 38, 0
14, 171264, Note_on_c, 0, 38, 100
14, 171704, Note_on_c, 0, 38, 0
14, 171840, Note_on_c, 0, 45, 96
14, 171892, Note_on_c, 0, 45, 0
14, 172032, Note_on_c, 0, 45, 113
14, 172448, Note_on_c, 0, 45, 0
14, 172608, Note_on_c, 0, 42, 93
14, 172680, Note_on_c, 0, 42, 0
14, 172800, Note_on_c, 0, 42, 103
14, 172812, Channel_aftertouch_c, 0, 10
14, 172824, Channel_aftertouch_c, 0, 0
14, 173216, Note_on_c, 0, 42, 0
14, 173376, Note_on_c, 0, 40, 85
14, 173424, Note_on_c, 0, 40, 0
14, 173568, Note_on_c, 0, 40, 103
14, 173972, Note_on_c, 0, 40, 0
14, 174144, Note_on_c, 0, 38, 75
14, 174208, Note_on_c, 0, 38, 0
14, 174336, Note_on_c, 0, 38, 88
14, 174776, Note_on_c, 0, 38, 0
14, 174912, Note_on_c, 0, 45, 81
14, 174964, Note_on_c, 0, 45, 0
14, 175104, Note_on_c, 0, 45, 94
14, 175520, Note_on_c, 0, 45, 0
14, 175680, Note_on_c, 0, 42, 77
14, 175752, Note_on_c, 0, 42, 0
14, 175872, Note_on_c, 0, 42, 86
14, 175884, Channel_aftertouch_c, 0, 10
14, 175896, Channel_aftertouch_c, 0, 0
14, 176288, Note_on_c, 0, 42, 0
14, 176448, Note_on_c, 0, 40, 70
14, 176496, Note_on_c, 0, 40, 0
14, 176640, Note_on_c, 0, 40, 84
14, 177044, Note_on_c, 0, 40, 0
14, 177216, Note_on_c, 0, 38, 61
14, 177280, Note_on_c, 0, 38, 0
14, 177408, Note_on_c, 0, 38, 71
14, 177848, Note_on_c, 0, 38, 0
14, 177984, Note_on_c, 0, 45, 65
14, 178036, Note_on_c, 0, 45, 0
14, 178176, Note_on_c, 0, 45, 75
14, 178592, Note_on_c, 0, 45, 0
14, 178752, Note_on_c, 0, 42, 61
14, 178824, Note_on_c, 0, 42, 0
14, 178944, Note_on_c, 0, 42, 68
14, 178956, Channel_aftertouch_c, 0, 10
14, 178968, Channel_aftertouch_c, 0, 0
14, 179360, Note_on_c, 0, 42, 0
14, 179520, Note_on_c, 0, 40, 55
14, 179568, Note_on_c, 0, 40, 0
14, 179712, Note_on_c, 0, 40, 66
14, 180116, Note_on_c, 0, 40, 0
14, 180288, Note_on_c, 0, 38, 47
14, 180352, Note_on_c, 0, 38, 0
14, 180480, Note_on_c, 0, 38, 55
14, 180920, Note_on_c, 0, 38, 0
14, 181056, Note_on_c, 0, 45, 49
14, 181108, Note_on_c, 0, 45, 0
14, 181248, Note_on_c, 0, 45, 56
14, 181664, Note_on_c, 0, 45, 0
14, 181824, Note_on_c, 0, 42, 45
14, 181896, Note_on_c, 0, 42, 0
14, 182016, Note_on_c, 0, 42, 49
14, 182028, Channel_aftertouch_c, 0, 10
14, 182040, Channel_aftertouch_c, 0, 0
14, 182432, Note_on_c, 0, 42, 0
14, 182592, Note_on_c, 0, 40, 39
14, 182640, Note_on_c, 0, 40, 0
14, 182784, Note_on_c, 0, 40, 47
14, 183188, Note_on_c, 0, 40, 0
14, 183360, Note_on_c, 0, 38, 33
14, 183424, Note_on_c, 0, 38, 0
14, 183552, Note_on_c, 0, 38, 38
14, 183992, Note_on_c, 0, 38, 0
14, 184128, Note_on_c, 0, 45, 33
14, 184180, Note_on_c, 0, 45, 0
14, 184320, Note_on_c, 0, 45, 38
14, 184736, Note_on_c, 0, 45, 0
14, 184896, Note_on_c, 0, 42, 29
14, 184968, Note_on_c, 0, 42, 0
14, 185088, Note_on_c, 0, 42, 32
14, 185100, Channel_aftertouch_c, 0, 10
14, 185112, Channel_aftertouch_c, 0, 0
14, 185504, Note_on_c, 0, 42, 0
14, 185664, Note_on_c, 0, 40, 24
14, 185712, Note_on_c, 0, 40, 0
14, 185856, Note_on_c, 0, 40, 28
14, 186260, Note_on_c, 0, 40, 0
14, 186432, Note_on_c, 0, 38, 18
14, 186496, Note_on_c, 0, 38, 0
14, 186624, Note_on_c, 0, 38, 21
14, 187064, Note_on_c, 0, 38, 0
14, 187200, Note_on_c, 0, 45, 17
14, 187252, Note_on_c, 0, 45, 0
14, 187392, Note_on_c, 0, 45, 19
14, 187808, Note_on_c, 0, 45, 0
14, 187968, Note_on_c, 0, 42, 13
14, 188040, Note_on_c, 0, 42, 0
14, 188160, Note_on_c, 0, 42, 14
14, 188172, Channel_aftertouch_c, 0, 10
14, 188184, Channel_aftertouch_c, 0, 0
14, 188576, Note_on_c, 0, 42, 0
14, 188736, Note_on_c, 0, 40, 9
14, 188784, Note_on_c, 0, 40, 0
14, 188928, Note_on_c, 0, 40, 10
14, 189332, Note_on_c, 0, 40, 0
14, 189504, Note_on_c, 0, 38, 5
14, 189568, Note_on_c, 0, 38, 0
14, 189696, Note_on_c, 0, 38, 5
14, 190136, Note_on_c, 0, 38, 0
14, 190272, Note_on_c, 0, 45, 1
14, 190324, Note_on_c, 0, 45, 0
14, 190324, End_track
15, 0, Start_track
15, 0, MIDI_port, 0
15, 0, Title_t, "HH/RIDE/CRASHES"
15, 0, Program_c, 9, 0
15, 0, Control_c, 9, 7, 125
15, 0, Control_c, 9, 91, 40
15, 0, Control_c, 9, 93, 0
15, 0, Control_c, 9, 7, 100
15, 3072, Note_on_c, 9, 42, 104
15, 3112, Note_on_c, 9, 42, 0
15, 3264, Note_on_c, 9, 42, 92
15, 3300, Note_on_c, 9, 42, 0
15, 3456, Note_on_c, 9, 42, 104
15, 3504, Note_on_c, 9, 42, 0
15, 3648, Note_on_c, 9, 42, 92
15, 3684, Note_on_c, 9, 42, 0
15, 3840, Note_on_c, 9, 42, 104
15, 3884, Note_on_c, 9, 42, 0
15, 4032, Note_on_c, 9, 42, 89
15, 4072, Note_on_c, 9, 42, 0
15, 4224, Note_on_c, 9, 42, 104
15, 4228, Channel_aftertouch_c, 9, 127
15, 4240, Channel_aftertouch_c, 9, 0
15, 4284, Note_on_c, 9, 42, 0
15, 4416, Note_on_c, 9, 42, 53
15, 4448, Note_on_c, 9, 42, 0
15, 4608, Note_on_c, 9, 42, 108
15, 4664, Note_on_c, 9, 42, 0
15, 4800, Note_on_c, 9, 42, 82
15, 4836, Note_on_c, 9, 42, 0
15, 4988, Channel_aftertouch_c, 9, 49
15, 4992, Note_on_c, 9, 42, 92
15, 5000, Channel_aftertouch_c, 9, 0
15, 5048, Note_on_c, 9, 42, 0
15, 5184, Note_on_c, 9, 42, 67
15, 5208, Note_on_c, 9, 42, 0
15, 5376, Note_on_c, 9, 42, 85
15, 5416, Note_on_c, 9, 42, 0
15, 5568, Note_on_c, 9, 42, 55
15, 5604, Note_on_c, 9, 42, 0
15, 5740, Channel_aftertouch_c, 9, 38
15, 5752, Channel_aftertouch_c, 9, 0
15, 5760, Note_on_c, 9, 42, 100
15, 5812, Note_on_c, 9, 42, 0
15, 5952, Note_on_c, 9, 42, 79
15, 5984, Note_on_c, 9, 42, 0
15, 6048, Note_on_c, 9, 44, 80
15, 6096, Note_on_c, 9, 44, 0
15, 6144, Note_on_c, 9, 42, 108
15, 6196, Note_on_c, 9, 42, 0
15, 6336, Note_on_c, 9, 42, 76
15, 6380, Note_on_c, 9, 42, 0
15, 6508, Channel_aftertouch_c, 9, 32
15, 6520, Channel_aftertouch_c, 9, 0
15, 6528, Note_on_c, 9, 42, 104
15, 6584, Note_on_c, 9, 42, 0
15, 6720, Note_on_c, 9, 42, 67
15, 6756, Note_on_c, 9, 42, 0
15, 6912, Note_on_c, 9, 42, 92
15, 6972, Note_on_c, 9, 42, 0
15, 7104, Note_on_c, 9, 42, 73
15, 7136, Note_on_c, 9, 42, 0
15, 7296, Note_on_c, 9, 42, 100
15, 7344, Note_on_c, 9, 42, 0
15, 7488, Note_on_c, 9, 42, 64
15, 7520, Note_on_c, 9, 42, 0
15, 7680, Note_on_c, 9, 42, 104
15, 7732, Note_on_c, 9, 42, 0
15, 7872, Note_on_c, 9, 42, 57
15, 7896, Note_on_c, 9, 42, 0
15, 8064, Note_on_c, 9, 42, 113
15, 8120, Note_on_c, 9, 42, 0
15, 8256, Note_on_c, 9, 42, 76
15, 8296, Note_on_c, 9, 42, 0
15, 8448, Note_on_c, 9, 42, 108
15, 8504, Note_on_c, 9, 42, 0
15, 8832, Note_on_c, 9, 49, 80
15, 9216, Note_on_c, 9, 49, 0
15, 9216, Note_on_c, 9, 46, 80
15, 9600, Note_on_c, 9, 46, 0
15, 9600, Note_on_c, 9, 42, 104
15, 9648, Note_on_c, 9, 42, 0
15, 9792, Note_on_c, 9, 42, 92
15, 9828, Note_on_c, 9, 42, 0
15, 9984, Note_on_c, 9, 42, 104
15, 10028, Note_on_c, 9, 42, 0
15, 10176, Note_on_c, 9, 42, 89
15, 10216, Note_on_c, 9, 42, 0
15, 10368, Note_on_c, 9, 42, 104
15, 10372, Channel_aftertouch_c, 9, 127
15, 10384, Channel_aftertouch_c, 9, 0
15, 10428, Note_on_c, 9, 42, 0
15, 10560, Note_on_c, 9, 42, 53
15, 10592, Note_on_c, 9, 42, 0
15, 10752, Note_on_c, 9, 42, 108
15, 10808, Note_on_c, 9, 42, 0
15, 10944, Note_on_c, 9, 42, 82
15, 10980, Note_on_c, 9, 42, 0
15, 11132, Channel_aftertouch_c, 9, 49
15, 11136, Note_on_c, 9, 42, 92
15, 11144, Channel_aftertouch_c, 9, 0
15, 11192, Note_on_c, 9, 42, 0
15, 11328, Note_on_c, 9, 42, 67
15, 11352, Note_on_c, 9, 42, 0
15, 11520, Note_on_c, 9, 42, 85
15, 11560, Note_on_c, 9, 42, 0
15, 11712, Note_on_c, 9, 42, 55
15, 11748, Note_on_c, 9, 42, 0
15, 11884, Channel_aftertouch_c, 9, 38
15, 11896, Channel_aftertouch_c, 9, 0
15, 11904, Note_on_c, 9, 42, 100
15, 11956, Note_on_c, 9, 42, 0
15, 12096, Note_on_c, 9, 42, 79
15, 12128, Note_on_c, 9, 42, 0
15, 12288, Note_on_c, 9, 42, 108
15, 12340, Note_on_c, 9, 42, 0
15, 12480, Note_on_c, 9, 42, 76
15, 12524, Note_on_c, 9, 42, 0
15, 12652, Channel_aftertouch_c, 9, 32
15, 12664, Channel_aftertouch_c, 9, 0
15, 12672, Note_on_c, 9, 42, 104
15, 12728, Note_on_c, 9, 42, 0
15, 12864, Note_on_c, 9, 42, 67
15, 12900, Note_on_c, 9, 42, 0
15, 13056, Note_on_c, 9, 42, 92
15, 13116, Note_on_c, 9, 42, 0
15, 13248, Note_on_c, 9, 42, 73
15, 13280, Note_on_c, 9, 42, 0
15, 13440, Note_on_c, 9, 42, 100
15, 13488, Note_on_c, 9, 42, 0
15, 13632, Note_on_c, 9, 42, 64
15, 13664, Note_on_c, 9, 42, 0
15, 13824, Note_on_c, 9, 42, 104
15, 13876, Note_on_c, 9, 42, 0
15, 14016, Note_on_c, 9, 42, 57
15, 14040, Note_on_c, 9, 42, 0
15, 14208, Note_on_c, 9, 42, 113
15, 14264, Note_on_c, 9, 42, 0
15, 14400, Note_on_c, 9, 42, 76
15, 14440, Note_on_c, 9, 42, 0
15, 14592, Note_on_c, 9, 42, 108
15, 14648, Note_on_c, 9, 42, 0
15, 14784, Note_on_c, 9, 42, 67
15, 14812, Note_on_c, 9, 42, 0
15, 14976, Note_on_c, 9, 49, 80
15, 15360, Note_on_c, 9, 49, 0
15, 15360, Note_on_c, 9, 42, 96
15, 15408, Note_on_c, 9, 42, 0
15, 15744, Note_on_c, 9, 42, 96
15, 15792, Note_on_c, 9, 42, 0
15, 16128, Note_on_c, 9, 42, 100
15, 16176, Note_on_c, 9, 42, 0
15, 16512, Note_on_c, 9, 42, 100
15, 16560, Note_on_c, 9, 42, 0
15, 16896, Note_on_c, 9, 42, 96
15, 16944, Note_on_c, 9, 42, 0
15, 17280, Note_on_c, 9, 42, 96
15, 17328, Note_on_c, 9, 42, 0
15, 17664, Note_on_c, 9, 42, 100
15, 17712, Note_on_c, 9, 42, 0
15, 18048, Note_on_c, 9, 42, 100
15, 18096, Note_on_c, 9, 42, 0
15, 18432, Note_on_c, 9, 42, 96
15, 18480, Note_on_c, 9, 42, 0
15, 18816, Note_on_c, 9, 42, 96
15, 18864, Note_on_c, 9, 42, 0
15, 19200, Note_on_c, 9, 42, 100
15, 19248, Note_on_c, 9, 42, 0
15, 19584, Note_on_c, 9, 42, 100
15, 19632, Note_on_c, 9, 42, 0
15, 19968, Note_on_c, 9, 42, 96
15, 20016, Note_on_c, 9, 42, 0
15, 20352, Note_on_c, 9, 42, 96
15, 20400, Note_on_c, 9, 42, 0
15, 20736, Note_on_c, 9, 42, 100
15, 20784, Note_on_c, 9, 42, 0
15, 21120, Note_on_c, 9, 42, 100
15, 21168, Note_on_c, 9, 42, 0
15, 21504, Note_on_c, 9, 42, 96
15, 21552, Note_on_c, 9, 42, 0
15, 21888, Note_on_c, 9, 42, 96
15, 21936, Note_on_c, 9, 42, 0
15, 22272, Note_on_c, 9, 42, 100
15, 22320, Note_on_c, 9, 42, 0
15, 22656, Note_on_c, 9, 42, 100
15, 22704, Note_on_c, 9, 42, 0
15, 23040, Note_on_c, 9, 42, 96
15, 23088, Note_on_c, 9, 42, 0
15, 23424, Note_on_c, 9, 42, 96
15, 23472, Note_on_c, 9, 42, 0
15, 23808, Note_on_c, 9, 42, 100
15, 23856, Note_on_c, 9, 42, 0
15, 24192, Note_on_c, 9, 42, 100
15, 24240, Note_on_c, 9, 42, 0
15, 24576, Note_on_c, 9, 42, 96
15, 24624, Note_on_c, 9, 42, 0
15, 24960, Note_on_c, 9, 42, 96
15, 25008, Note_on_c, 9, 42, 0
15, 25344, Note_on_c, 9, 42, 100
15, 25392, Note_on_c, 9, 42, 0
15, 25728, Note_on_c, 9, 42, 100
15, 25776, Note_on_c, 9, 42, 0
15, 26112, Note_on_c, 9, 42, 96
15, 26160, Note_on_c, 9, 42, 0
15, 26496, Note_on_c, 9, 42, 96
15, 26544, Note_on_c, 9, 42, 0
15, 26880, Note_on_c, 9, 42, 100
15, 26928, Note_on_c, 9, 42, 0
15, 27264, Note_on_c, 9, 49, 80
15, 27648, Note_on_c, 9, 49, 0
15, 27648, Note_on_c, 9, 42, 96
15, 27696, Note_on_c, 9, 42, 0
15, 28032, Note_on_c, 9, 42, 96
15, 28080, Note_on_c, 9, 42, 0
15, 28416, Note_on_c, 9, 42, 100
15, 28464, Note_on_c, 9, 42, 0
15, 28800, Note_on_c, 9, 42, 100
15, 28848, Note_on_c, 9, 42, 0
15, 29184, Note_on_c, 9, 42, 96
15, 29232, Note_on_c, 9, 42, 0
15, 29568, Note_on_c, 9, 42, 96
15, 29616, Note_on_c, 9, 42, 0
15, 29952, Note_on_c, 9, 42, 100
15, 30000, Note_on_c, 9, 42, 0
15, 30336, Note_on_c, 9, 42, 100
15, 30384, Note_on_c, 9, 42, 0
15, 30720, Note_on_c, 9, 42, 96
15, 30768, Note_on_c, 9, 42, 0
15, 31104, Note_on_c, 9, 42, 96
15, 31152, Note_on_c, 9, 42, 0
15, 31488, Note_on_c, 9, 42, 100
15, 31536, Note_on_c, 9, 42, 0
15, 31872, Note_on_c, 9, 42, 100
15, 31920, Note_on_c, 9, 42, 0
15, 32256, Note_on_c, 9, 42, 96
15, 32304, Note_on_c, 9, 42, 0
15, 32640, Note_on_c, 9, 42, 96
15, 32688, Note_on_c, 9, 42, 0
15, 33024, Note_on_c, 9, 42, 100
15, 33072, Note_on_c, 9, 42, 0
15, 33408, Note_on_c, 9, 42, 100
15, 33456, Note_on_c, 9, 42, 0
15, 33792, Note_on_c, 9, 42, 96
15, 33840, Note_on_c, 9, 42, 0
15, 34176, Note_on_c, 9, 42, 96
15, 34224, Note_on_c, 9, 42, 0
15, 34560, Note_on_c, 9, 42, 100
15, 34608, Note_on_c, 9, 42, 0
15, 34944, Note_on_c, 9, 42, 100
15, 34992, Note_on_c, 9, 42, 0
15, 35328, Note_on_c, 9, 42, 96
15, 35376, Note_on_c, 9, 42, 0
15, 35712, Note_on_c, 9, 42, 96
15, 35760, Note_on_c, 9, 42, 0
15, 36096, Note_on_c, 9, 42, 100
15, 36144, Note_on_c, 9, 42, 0
15, 36480, Note_on_c, 9, 42, 100
15, 36528, Note_on_c, 9, 42, 0
15, 36864, Note_on_c, 9, 42, 96
15, 36912, Note_on_c, 9, 42, 0
15, 37248, Note_on_c, 9, 42, 96
15, 37296, Note_on_c, 9, 42, 0
15, 37632, Note_on_c, 9, 42, 100
15, 37680, Note_on_c, 9, 42, 0
15, 38016, Note_on_c, 9, 42, 100
15, 38064, Note_on_c, 9, 42, 0
15, 38400, Note_on_c, 9, 42, 96
15, 38448, Note_on_c, 9, 42, 0
15, 38784, Note_on_c, 9, 42, 96
15, 38832, Note_on_c, 9, 42, 0
15, 39168, Note_on_c, 9, 42, 100
15, 39216, Note_on_c, 9, 42, 0
15, 39552, Note_on_c, 9, 42, 100
15, 39600, Note_on_c, 9, 42, 0
15, 39744, Note_on_c, 9, 49, 80
15, 39936, Note_on_c, 9, 49, 0
15, 39936, Note_on_c, 9, 55, 96
15, 39996, Note_on_c, 9, 55, 0
15, 40320, Note_on_c, 9, 49, 108
15, 40384, Note_on_c, 9, 49, 0
15, 40704, Note_on_c, 9, 44, 80
15, 40712, Note_on_c, 9, 51, 113
15, 40788, Note_on_c, 9, 51, 0
15, 40800, Note_on_c, 9, 44, 0
15, 40896, Note_on_c, 9, 44, 80
15, 40992, Note_on_c, 9, 44, 0
15, 41088, Note_on_c, 9, 44, 80
15, 41100, Note_on_c, 9, 51, 113
15, 41164, Note_on_c, 9, 51, 0
15, 41184, Note_on_c, 9, 44, 0
15, 41280, Note_on_c, 9, 44, 80
15, 41376, Note_on_c, 9, 44, 0
15, 41472, Note_on_c, 9, 51, 104
15, 41472, Note_on_c, 9, 44, 80
15, 41536, Note_on_c, 9, 51, 0
15, 41568, Note_on_c, 9, 44, 0
15, 41664, Note_on_c, 9, 44, 80
15, 41760, Note_on_c, 9, 44, 0
15, 41856, Note_on_c, 9, 51, 108
15, 41856, Note_on_c, 9, 44, 80
15, 41916, Note_on_c, 9, 51, 0
15, 41952, Note_on_c, 9, 44, 0
15, 42048, Note_on_c, 9, 44, 80
15, 42144, Note_on_c, 9, 44, 0
15, 42240, Note_on_c, 9, 51, 108
15, 42240, Note_on_c, 9, 44, 80
15, 42304, Note_on_c, 9, 51, 0
15, 42336, Note_on_c, 9, 44, 0
15, 42432, Note_on_c, 9, 44, 80
15, 42528, Note_on_c, 9, 44, 0
15, 42624, Note_on_c, 9, 44, 80
15, 42624, Note_on_c, 9, 51, 104
15, 42688, Note_on_c, 9, 51, 0
15, 42720, Note_on_c, 9, 44, 0
15, 42816, Note_on_c, 9, 44, 80
15, 42912, Note_on_c, 9, 44, 0
15, 43008, Note_on_c, 9, 51, 104
15, 43008, Note_on_c, 9, 44, 80
15, 43072, Note_on_c, 9, 51, 0
15, 43104, Note_on_c, 9, 44, 0
15, 43200, Note_on_c, 9, 44, 80
15, 43296, Note_on_c, 9, 44, 0
15, 43392, Note_on_c, 9, 51, 108
15, 43392, Note_on_c, 9, 44, 80
15, 43452, Note_on_c, 9, 51, 0
15, 43488, Note_on_c, 9, 44, 0
15, 43584, Note_on_c, 9, 44, 80
15, 43680, Note_on_c, 9, 44, 0
15, 43776, Note_on_c, 9, 51, 108
15, 43776, Note_on_c, 9, 44, 80
15, 43840, Note_on_c, 9, 51, 0
15, 43872, Note_on_c, 9, 44, 0
15, 43968, Note_on_c, 9, 44, 80
15, 44064, Note_on_c, 9, 44, 0
15, 44160, Note_on_c, 9, 44, 80
15, 44160, Note_on_c, 9, 51, 104
15, 44224, Note_on_c, 9, 51, 0
15, 44256, Note_on_c, 9, 44, 0
15, 44352, Note_on_c, 9, 44, 80
15, 44448, Note_on_c, 9, 44, 0
15, 44544, Note_on_c, 9, 51, 104
15, 44544, Note_on_c, 9, 44, 80
15, 44608, Note_on_c, 9, 51, 0
15, 44640, Note_on_c, 9, 44, 0
15, 44736, Note_on_c, 9, 44, 80
15, 44832, Note_on_c, 9, 44, 0
15, 44928, Note_on_c, 9, 51, 108
15, 44928, Note_on_c, 9, 44, 80
15, 44988, Note_on_c, 9, 51, 0
15, 45024, Note_on_c, 9, 44, 0
15, 45120, Note_on_c, 9, 44, 80
15, 45216, Note_on_c, 9, 44, 0
15, 45312, Note_on_c, 9, 51, 108
15, 45312, Note_on_c, 9, 44, 80
15, 45376, Note_on_c, 9, 51, 0
15, 45408, Note_on_c, 9, 44, 0
15, 45504, Note_on_c, 9, 44, 80
15, 45600, Note_on_c, 9, 44, 0
15, 45696, Note_on_c, 9, 44, 80
15, 45696, Note_on_c, 9, 51, 104
15, 45760, Note_on_c, 9, 51, 0
15, 45792, Note_on_c, 9, 44, 0
15, 45888, Note_on_c, 9, 44, 80
15, 45984, Note_on_c, 9, 44, 0
15, 46080, Note_on_c, 9, 51, 104
15, 46080, Note_on_c, 9, 44, 80
15, 46144, Note_on_c, 9, 51, 0
15, 46176, Note_on_c, 9, 44, 0
15, 46272, Note_on_c, 9, 44, 80
15, 46368, Note_on_c, 9, 44, 0
15, 46464, Note_on_c, 9, 51, 108
15, 46464, Note_on_c, 9, 44, 80
15, 46524, Note_on_c, 9, 51, 0
15, 46560, Note_on_c, 9, 44, 0
15, 46656, Note_on_c, 9, 44, 80
15, 46752, Note_on_c, 9, 44, 0
15, 46848, Note_on_c, 9, 51, 108
15, 46848, Note_on_c, 9, 44, 80
15, 46912, Note_on_c, 9, 51, 0
15, 46944, Note_on_c, 9, 44, 0
15, 47040, Note_on_c, 9, 44, 80
15, 47136, Note_on_c, 9, 44, 0
15, 47232, Note_on_c, 9, 44, 80
15, 47232, Note_on_c, 9, 51, 104
15, 47296, Note_on_c, 9, 51, 0
15, 47328, Note_on_c, 9, 44, 0
15, 47424, Note_on_c, 9, 44, 80
15, 47520, Note_on_c, 9, 44, 0
15, 47616, Note_on_c, 9, 51, 104
15, 47616, Note_on_c, 9, 44, 80
15, 47680, Note_on_c, 9, 51, 0
15, 47712, Note_on_c, 9, 44, 0
15, 47808, Note_on_c, 9, 44, 80
15, 47904, Note_on_c, 9, 44, 0
15, 48000, Note_on_c, 9, 51, 108
15, 48000, Note_on_c, 9, 44, 80
15, 48060, Note_on_c, 9, 51, 0
15, 48096, Note_on_c, 9, 44, 0
15, 48192, Note_on_c, 9, 44, 80
15, 48288, Note_on_c, 9, 44, 0
15, 48384, Note_on_c, 9, 51, 108
15, 48384, Note_on_c, 9, 44, 80
15, 48448, Note_on_c, 9, 51, 0
15, 48480, Note_on_c, 9, 44, 0
15, 48576, Note_on_c, 9, 44, 80
15, 48672, Note_on_c, 9, 44, 0
15, 48768, Note_on_c, 9, 44, 80
15, 48768, Note_on_c, 9, 51, 104
15, 48832, Note_on_c, 9, 51, 0
15, 48864, Note_on_c, 9, 44, 0
15, 48960, Note_on_c, 9, 55, 80
15, 48960, Note_on_c, 9, 44, 80
15, 49056, Note_on_c, 9, 44, 0
15, 49152, Note_on_c, 9, 49, 80
15, 49344, Note_on_c, 9, 55, 0
15, 49536, Note_on_c, 9, 49, 0
15, 49536, Note_on_c, 9, 42, 80
15, 49584, Note_on_c, 9, 42, 0
15, 49920, Note_on_c, 9, 42, 80
15, 49968, Note_on_c, 9, 42, 0
15, 50304, Note_on_c, 9, 42, 80
15, 50352, Note_on_c, 9, 42, 0
15, 50688, Note_on_c, 9, 42, 96
15, 50736, Note_on_c, 9, 42, 0
15, 51072, Note_on_c, 9, 42, 96
15, 51120, Note_on_c, 9, 42, 0
15, 51456, Note_on_c, 9, 42, 100
15, 51504, Note_on_c, 9, 42, 0
15, 51840, Note_on_c, 9, 42, 100
15, 51888, Note_on_c, 9, 42, 0
15, 52224, Note_on_c, 9, 42, 96
15, 52272, Note_on_c, 9, 42, 0
15, 52608, Note_on_c, 9, 42, 96
15, 52656, Note_on_c, 9, 42, 0
15, 52992, Note_on_c, 9, 42, 100
15, 53040, Note_on_c, 9, 42, 0
15, 53376, Note_on_c, 9, 42, 100
15, 53424, Note_on_c, 9, 42, 0
15, 53760, Note_on_c, 9, 42, 96
15, 53808, Note_on_c, 9, 42, 0
15, 54144, Note_on_c, 9, 42, 96
15, 54192, Note_on_c, 9, 42, 0
15, 54528, Note_on_c, 9, 42, 100
15, 54576, Note_on_c, 9, 42, 0
15, 54912, Note_on_c, 9, 42, 100
15, 54960, Note_on_c, 9, 42, 0
15, 55296, Note_on_c, 9, 42, 96
15, 55344, Note_on_c, 9, 42, 0
15, 55680, Note_on_c, 9, 42, 96
15, 55728, Note_on_c, 9, 42, 0
15, 56064, Note_on_c, 9, 42, 100
15, 56112, Note_on_c, 9, 42, 0
15, 56448, Note_on_c, 9, 42, 100
15, 56496, Note_on_c, 9, 42, 0
15, 56832, Note_on_c, 9, 42, 96
15, 56880, Note_on_c, 9, 42, 0
15, 57216, Note_on_c, 9, 42, 96
15, 57264, Note_on_c, 9, 42, 0
15, 57600, Note_on_c, 9, 42, 100
15, 57648, Note_on_c, 9, 42, 0
15, 57984, Note_on_c, 9, 42, 100
15, 58032, Note_on_c, 9, 42, 0
15, 58368, Note_on_c, 9, 42, 96
15, 58416, Note_on_c, 9, 42, 0
15, 58752, Note_on_c, 9, 42, 96
15, 58800, Note_on_c, 9, 42, 0
15, 59136, Note_on_c, 9, 42, 100
15, 59184, Note_on_c, 9, 42, 0
15, 59520, Note_on_c, 9, 42, 100
15, 59568, Note_on_c, 9, 42, 0
15, 59904, Note_on_c, 9, 42, 96
15, 59952, Note_on_c, 9, 42, 0
15, 60288, Note_on_c, 9, 42, 96
15, 60336, Note_on_c, 9, 42, 0
15, 60672, Note_on_c, 9, 42, 100
15, 60720, Note_on_c, 9, 42, 0
15, 61056, Note_on_c, 9, 42, 100
15, 61104, Note_on_c, 9, 42, 0
15, 61440, Note_on_c, 9, 42, 96
15, 61488, Note_on_c, 9, 42, 0
15, 61824, Note_on_c, 9, 42, 96
15, 61872, Note_on_c, 9, 42, 0
15, 62208, Note_on_c, 9, 42, 100
15, 62256, Note_on_c, 9, 42, 0
15, 62592, Note_on_c, 9, 42, 100
15, 62640, Note_on_c, 9, 42, 0
15, 62976, Note_on_c, 9, 42, 96
15, 63024, Note_on_c, 9, 42, 0
15, 63360, Note_on_c, 9, 42, 96
15, 63408, Note_on_c, 9, 42, 0
15, 63744, Note_on_c, 9, 42, 100
15, 63792, Note_on_c, 9, 42, 0
15, 64128, Note_on_c, 9, 42, 100
15, 64176, Note_on_c, 9, 42, 0
15, 64512, Note_on_c, 9, 42, 96
15, 64560, Note_on_c, 9, 42, 0
15, 64896, Note_on_c, 9, 42, 96
15, 64944, Note_on_c, 9, 42, 0
15, 65280, Note_on_c, 9, 42, 100
15, 65328, Note_on_c, 9, 42, 0
15, 65664, Note_on_c, 9, 42, 100
15, 65712, Note_on_c, 9, 42, 0
15, 66048, Note_on_c, 9, 42, 96
15, 66096, Note_on_c, 9, 42, 0
15, 66432, Note_on_c, 9, 42, 96
15, 66480, Note_on_c, 9, 42, 0
15, 66816, Note_on_c, 9, 42, 100
15, 66864, Note_on_c, 9, 42, 0
15, 67200, Note_on_c, 9, 49, 80
15, 67584, Note_on_c, 9, 49, 0
15, 67584, Note_on_c, 9, 42, 96
15, 67632, Note_on_c, 9, 42, 0
15, 67968, Note_on_c, 9, 42, 96
15, 68016, Note_on_c, 9, 42, 0
15, 68352, Note_on_c, 9, 42, 100
15, 68400, Note_on_c, 9, 42, 0
15, 68736, Note_on_c, 9, 42, 100
15, 68784, Note_on_c, 9, 42, 0
15, 69120, Note_on_c, 9, 42, 96
15, 69168, Note_on_c, 9, 42, 0
15, 69504, Note_on_c, 9, 42, 96
15, 69552, Note_on_c, 9, 42, 0
15, 69888, Note_on_c, 9, 42, 100
15, 69936, Note_on_c, 9, 42, 0
15, 70272, Note_on_c, 9, 42, 100
15, 70320, Note_on_c, 9, 42, 0
15, 70656, Note_on_c, 9, 42, 96
15, 70704, Note_on_c, 9, 42, 0
15, 71040, Note_on_c, 9, 42, 96
15, 71088, Note_on_c, 9, 42, 0
15, 71424, Note_on_c, 9, 42, 100
15, 71472, Note_on_c, 9, 42, 0
15, 71808, Note_on_c, 9, 42, 100
15, 71856, Note_on_c, 9, 42, 0
15, 72192, Note_on_c, 9, 42, 96
15, 72240, Note_on_c, 9, 42, 0
15, 72576, Note_on_c, 9, 42, 96
15, 72624, Note_on_c, 9, 42, 0
15, 72960, Note_on_c, 9, 42, 100
15, 73008, Note_on_c, 9, 42, 0
15, 73344, Note_on_c, 9, 42, 100
15, 73392, Note_on_c, 9, 42, 0
15, 73728, Note_on_c, 9, 42, 96
15, 73776, Note_on_c, 9, 42, 0
15, 74112, Note_on_c, 9, 42, 96
15, 74160, Note_on_c, 9, 42, 0
15, 74496, Note_on_c, 9, 42, 100
15, 74544, Note_on_c, 9, 42, 0
15, 74880, Note_on_c, 9, 42, 100
15, 74928, Note_on_c, 9, 42, 0
15, 75264, Note_on_c, 9, 42, 96
15, 75312, Note_on_c, 9, 42, 0
15, 75648, Note_on_c, 9, 42, 96
15, 75696, Note_on_c, 9, 42, 0
15, 76032, Note_on_c, 9, 42, 100
15, 76080, Note_on_c, 9, 42, 0
15, 76800, Note_on_c, 9, 55, 96
15, 76860, Note_on_c, 9, 55, 0
15, 77184, Note_on_c, 9, 49, 108
15, 77248, Note_on_c, 9, 49, 0
15, 77568, Note_on_c, 9, 44, 80
15, 77576, Note_on_c, 9, 51, 113
15, 77652, Note_on_c, 9, 51, 0
15, 77664, Note_on_c, 9, 44, 0
15, 77760, Note_on_c, 9, 44, 80
15, 77856, Note_on_c, 9, 44, 0
15, 77952, Note_on_c, 9, 44, 80
15, 77964, Note_on_c, 9, 51, 113
15, 78028, Note_on_c, 9, 51, 0
15, 78048, Note_on_c, 9, 44, 0
15, 78144, Note_on_c, 9, 44, 80
15, 78240, Note_on_c, 9, 44, 0
15, 78336, Note_on_c, 9, 51, 104
15, 78336, Note_on_c, 9, 44, 80
15, 78400, Note_on_c, 9, 51, 0
15, 78432, Note_on_c, 9, 44, 0
15, 78528, Note_on_c, 9, 44, 80
15, 78624, Note_on_c, 9, 44, 0
15, 78720, Note_on_c, 9, 51, 108
15, 78720, Note_on_c, 9, 44, 80
15, 78780, Note_on_c, 9, 51, 0
15, 78816, Note_on_c, 9, 44, 0
15, 78912, Note_on_c, 9, 44, 80
15, 79008, Note_on_c, 9, 44, 0
15, 79104, Note_on_c, 9, 51, 108
15, 79104, Note_on_c, 9, 44, 80
15, 79168, Note_on_c, 9, 51, 0
15, 79200, Note_on_c, 9, 44, 0
15, 79296, Note_on_c, 9, 44, 80
15, 79392, Note_on_c, 9, 44, 0
15, 79488, Note_on_c, 9, 44, 80
15, 79488, Note_on_c, 9, 51, 104
15, 79552, Note_on_c, 9, 51, 0
15, 79584, Note_on_c, 9, 44, 0
15, 79680, Note_on_c, 9, 44, 80
15, 79776, Note_on_c, 9, 44, 0
15, 79872, Note_on_c, 9, 51, 104
15, 79872, Note_on_c, 9, 44, 80
15, 79936, Note_on_c, 9, 51, 0
15, 79968, Note_on_c, 9, 44, 0
15, 80064, Note_on_c, 9, 44, 80
15, 80160, Note_on_c, 9, 44, 0
15, 80256, Note_on_c, 9, 51, 108
15, 80256, Note_on_c, 9, 44, 80
15, 80316, Note_on_c, 9, 51, 0
15, 80352, Note_on_c, 9, 44, 0
15, 80448, Note_on_c, 9, 44, 80
15, 80544, Note_on_c, 9, 44, 0
15, 80640, Note_on_c, 9, 51, 108
15, 80640, Note_on_c, 9, 44, 80
15, 80704, Note_on_c, 9, 51, 0
15, 80736, Note_on_c, 9, 44, 0
15, 80832, Note_on_c, 9, 44, 80
15, 80928, Note_on_c, 9, 44, 0
15, 81024, Note_on_c, 9, 44, 80
15, 81024, Note_on_c, 9, 51, 104
15, 81088, Note_on_c, 9, 51, 0
15, 81120, Note_on_c, 9, 44, 0
15, 81216, Note_on_c, 9, 44, 80
15, 81312, Note_on_c, 9, 44, 0
15, 81408, Note_on_c, 9, 51, 104
15, 81408, Note_on_c, 9, 44, 80
15, 81472, Note_on_c, 9, 51, 0
15, 81504, Note_on_c, 9, 44, 0
15, 81600, Note_on_c, 9, 44, 80
15, 81696, Note_on_c, 9, 44, 0
15, 81792, Note_on_c, 9, 51, 108
15, 81792, Note_on_c, 9, 44, 80
15, 81852, Note_on_c, 9, 51, 0
15, 81888, Note_on_c, 9, 44, 0
15, 81984, Note_on_c, 9, 44, 80
15, 82080, Note_on_c, 9, 44, 0
15, 82176, Note_on_c, 9, 51, 108
15, 82176, Note_on_c, 9, 44, 80
15, 82240, Note_on_c, 9, 51, 0
15, 82272, Note_on_c, 9, 44, 0
15, 82368, Note_on_c, 9, 44, 80
15, 82464, Note_on_c, 9, 44, 0
15, 82560, Note_on_c, 9, 44, 80
15, 82560, Note_on_c, 9, 51, 104
15, 82624, Note_on_c, 9, 51, 0
15, 82656, Note_on_c, 9, 44, 0
15, 82752, Note_on_c, 9, 44, 80
15, 82848, Note_on_c, 9, 44, 0
15, 82944, Note_on_c, 9, 55, 96
15, 83004, Note_on_c, 9, 55, 0
15, 83328, Note_on_c, 9, 49, 108
15, 83392, Note_on_c, 9, 49, 0
15, 83712, Note_on_c, 9, 44, 80
15, 83720, Note_on_c, 9, 51, 113
15, 83796, Note_on_c, 9, 51, 0
15, 83808, Note_on_c, 9, 44, 0
15, 83904, Note_on_c, 9, 44, 80
15, 84000, Note_on_c, 9, 44, 0
15, 84096, Note_on_c, 9, 44, 80
15, 84108, Note_on_c, 9, 51, 113
15, 84172, Note_on_c, 9, 51, 0
15, 84192, Note_on_c, 9, 44, 0
15, 84288, Note_on_c, 9, 44, 80
15, 84384, Note_on_c, 9, 44, 0
15, 84480, Note_on_c, 9, 51, 104
15, 84480, Note_on_c, 9, 44, 80
15, 84544, Note_on_c, 9, 51, 0
15, 84576, Note_on_c, 9, 44, 0
15, 84672, Note_on_c, 9, 44, 80
15, 84768, Note_on_c, 9, 44, 0
15, 84864, Note_on_c, 9, 51, 108
15, 84864, Note_on_c, 9, 44, 80
15, 84924, Note_on_c, 9, 51, 0
15, 84960, Note_on_c, 9, 44, 0
15, 85056, Note_on_c, 9, 44, 80
15, 85152, Note_on_c, 9, 44, 0
15, 85248, Note_on_c, 9, 51, 108
15, 85248, Note_on_c, 9, 44, 80
15, 85312, Note_on_c, 9, 51, 0
15, 85344, Note_on_c, 9, 44, 0
15, 85440, Note_on_c, 9, 44, 80
15, 85536, Note_on_c, 9, 44, 0
15, 85632, Note_on_c, 9, 44, 80
15, 85632, Note_on_c, 9, 51, 104
15, 85696, Note_on_c, 9, 51, 0
15, 85728, Note_on_c, 9, 44, 0
15, 85824, Note_on_c, 9, 44, 80
15, 85920, Note_on_c, 9, 44, 0
15, 86016, Note_on_c, 9, 51, 104
15, 86016, Note_on_c, 9, 44, 80
15, 86080, Note_on_c, 9, 51, 0
15, 86112, Note_on_c, 9, 44, 0
15, 86208, Note_on_c, 9, 44, 80
15, 86304, Note_on_c, 9, 44, 0
15, 86400, Note_on_c, 9, 51, 108
15, 86400, Note_on_c, 9, 44, 80
15, 86460, Note_on_c, 9, 51, 0
15, 86496, Note_on_c, 9, 44, 0
15, 86592, Note_on_c, 9, 44, 80
15, 86688, Note_on_c, 9, 44, 0
15, 86784, Note_on_c, 9, 51, 108
15, 86784, Note_on_c, 9, 44, 80
15, 86848, Note_on_c, 9, 51, 0
15, 86880, Note_on_c, 9, 44, 0
15, 86976, Note_on_c, 9, 44, 80
15, 87072, Note_on_c, 9, 44, 0
15, 87168, Note_on_c, 9, 44, 80
15, 87168, Note_on_c, 9, 51, 104
15, 87232, Note_on_c, 9, 51, 0
15, 87264, Note_on_c, 9, 44, 0
15, 87360, Note_on_c, 9, 44, 80
15, 87456, Note_on_c, 9, 44, 0
15, 87552, Note_on_c, 9, 51, 104
15, 87552, Note_on_c, 9, 44, 80
15, 87616, Note_on_c, 9, 51, 0
15, 87648, Note_on_c, 9, 44, 0
15, 87744, Note_on_c, 9, 44, 80
15, 87840, Note_on_c, 9, 44, 0
15, 87936, Note_on_c, 9, 51, 108
15, 87936, Note_on_c, 9, 44, 80
15, 87996, Note_on_c, 9, 51, 0
15, 88032, Note_on_c, 9, 44, 0
15, 88128, Note_on_c, 9, 44, 80
15, 88224, Note_on_c, 9, 44, 0
15, 88320, Note_on_c, 9, 51, 108
15, 88320, Note_on_c, 9, 44, 80
15, 88384, Note_on_c, 9, 51, 0
15, 88416, Note_on_c, 9, 44, 0
15, 88512, Note_on_c, 9, 44, 80
15, 88608, Note_on_c, 9, 44, 0
15, 88704, Note_on_c, 9, 44, 80
15, 88704, Note_on_c, 9, 51, 104
15, 88768, Note_on_c, 9, 51, 0
15, 88800, Note_on_c, 9, 44, 0
15, 88896, Note_on_c, 9, 44, 80
15, 88896, Note_on_c, 9, 49, 80
15, 88992, Note_on_c, 9, 49, 0
15, 88992, Note_on_c, 9, 44, 0
15, 89088, Note_on_c, 9, 55, 96
15, 89148, Note_on_c, 9, 55, 0
15, 89472, Note_on_c, 9, 49, 108
15, 89536, Note_on_c, 9, 49, 0
15, 89856, Note_on_c, 9, 44, 80
15, 89864, Note_on_c, 9, 51, 113
15, 89940, Note_on_c, 9, 51, 0
15, 89952, Note_on_c, 9, 44, 0
15, 90048, Note_on_c, 9, 44, 80
15, 90144, Note_on_c, 9, 44, 0
15, 90240, Note_on_c, 9, 44, 80
15, 90252, Note_on_c, 9, 51, 113
15, 90316, Note_on_c, 9, 51, 0
15, 90336, Note_on_c, 9, 44, 0
15, 90432, Note_on_c, 9, 44, 80
15, 90528, Note_on_c, 9, 44, 0
15, 90624, Note_on_c, 9, 51, 104
15, 90624, Note_on_c, 9, 44, 80
15, 90688, Note_on_c, 9, 51, 0
15, 90720, Note_on_c, 9, 44, 0
15, 90816, Note_on_c, 9, 44, 80
15, 90912, Note_on_c, 9, 44, 0
15, 91008, Note_on_c, 9, 51, 108
15, 91008, Note_on_c, 9, 44, 80
15, 91068, Note_on_c, 9, 51, 0
15, 91104, Note_on_c, 9, 44, 0
15, 91200, Note_on_c, 9, 44, 80
15, 91296, Note_on_c, 9, 44, 0
15, 91392, Note_on_c, 9, 51, 108
15, 91392, Note_on_c, 9, 44, 80
15, 91456, Note_on_c, 9, 51, 0
15, 91488, Note_on_c, 9, 44, 0
15, 91584, Note_on_c, 9, 44, 80
15, 91680, Note_on_c, 9, 44, 0
15, 91776, Note_on_c, 9, 44, 80
15, 91776, Note_on_c, 9, 51, 104
15, 91840, Note_on_c, 9, 51, 0
15, 91872, Note_on_c, 9, 44, 0
15, 91968, Note_on_c, 9, 44, 80
15, 92064, Note_on_c, 9, 44, 0
15, 92160, Note_on_c, 9, 51, 104
15, 92160, Note_on_c, 9, 44, 80
15, 92224, Note_on_c, 9, 51, 0
15, 92256, Note_on_c, 9, 44, 0
15, 92352, Note_on_c, 9, 44, 80
15, 92448, Note_on_c, 9, 44, 0
15, 92544, Note_on_c, 9, 51, 108
15, 92544, Note_on_c, 9, 44, 80
15, 92604, Note_on_c, 9, 51, 0
15, 92640, Note_on_c, 9, 44, 0
15, 92736, Note_on_c, 9, 44, 80
15, 92832, Note_on_c, 9, 44, 0
15, 92928, Note_on_c, 9, 51, 108
15, 92928, Note_on_c, 9, 44, 80
15, 92992, Note_on_c, 9, 51, 0
15, 93024, Note_on_c, 9, 44, 0
15, 93120, Note_on_c, 9, 44, 80
15, 93216, Note_on_c, 9, 44, 0
15, 93312, Note_on_c, 9, 44, 80
15, 93312, Note_on_c, 9, 51, 104
15, 93376, Note_on_c, 9, 51, 0
15, 93408, Note_on_c, 9, 44, 0
15, 93504, Note_on_c, 9, 44, 80
15, 93600, Note_on_c, 9, 44, 0
15, 93696, Note_on_c, 9, 51, 104
15, 93696, Note_on_c, 9, 44, 80
15, 93760, Note_on_c, 9, 51, 0
15, 93792, Note_on_c, 9, 44, 0
15, 93888, Note_on_c, 9, 44, 80
15, 93984, Note_on_c, 9, 44, 0
15, 94080, Note_on_c, 9, 51, 108
15, 94080, Note_on_c, 9, 44, 80
15, 94140, Note_on_c, 9, 51, 0
15, 94176, Note_on_c, 9, 44, 0
15, 94272, Note_on_c, 9, 44, 80
15, 94368, Note_on_c, 9, 44, 0
15, 94464, Note_on_c, 9, 51, 108
15, 94464, Note_on_c, 9, 44, 80
15, 94528, Note_on_c, 9, 51, 0
15, 94560, Note_on_c, 9, 44, 0
15, 94656, Note_on_c, 9, 44, 80
15, 94752, Note_on_c, 9, 44, 0
15, 94848, Note_on_c, 9, 44, 80
15, 94848, Note_on_c, 9, 51, 104
15, 94912, Note_on_c, 9, 51, 0
15, 94944, Note_on_c, 9, 44, 0
15, 95040, Note_on_c, 9, 44, 80
15, 95136, Note_on_c, 9, 44, 0
15, 95232, Note_on_c, 9, 51, 104
15, 95232, Note_on_c, 9, 44, 80
15, 95296, Note_on_c, 9, 51, 0
15, 95328, Note_on_c, 9, 44, 0
15, 95424, Note_on_c, 9, 44, 80
15, 95520, Note_on_c, 9, 44, 0
15, 95616, Note_on_c, 9, 51, 108
15, 95616, Note_on_c, 9, 44, 80
15, 95676, Note_on_c, 9, 51, 0
15, 95712, Note_on_c, 9, 44, 0
15, 95808, Note_on_c, 9, 44, 80
15, 95904, Note_on_c, 9, 44, 0
15, 96000, Note_on_c, 9, 51, 108
15, 96000, Note_on_c, 9, 44, 80
15, 96064, Note_on_c, 9, 51, 0
15, 96096, Note_on_c, 9, 44, 0
15, 96192, Note_on_c, 9, 44, 80
15, 96288, Note_on_c, 9, 44, 0
15, 96384, Note_on_c, 9, 44, 80
15, 96384, Note_on_c, 9, 51, 104
15, 96448, Note_on_c, 9, 51, 0
15, 96480, Note_on_c, 9, 44, 0
15, 96576, Note_on_c, 9, 44, 80
15, 96672, Note_on_c, 9, 44, 0
15, 96768, Note_on_c, 9, 51, 104
15, 96768, Note_on_c, 9, 44, 80
15, 96832, Note_on_c, 9, 51, 0
15, 96864, Note_on_c, 9, 44, 0
15, 96960, Note_on_c, 9, 44, 80
15, 97056, Note_on_c, 9, 44, 0
15, 97152, Note_on_c, 9, 51, 108
15, 97152, Note_on_c, 9, 44, 80
15, 97212, Note_on_c, 9, 51, 0
15, 97248, Note_on_c, 9, 44, 0
15, 97344, Note_on_c, 9, 44, 80
15, 97440, Note_on_c, 9, 44, 0
15, 97536, Note_on_c, 9, 51, 108
15, 97536, Note_on_c, 9, 44, 80
15, 97600, Note_on_c, 9, 51, 0
15, 97632, Note_on_c, 9, 44, 0
15, 97728, Note_on_c, 9, 44, 80
15, 97824, Note_on_c, 9, 44, 0
15, 97920, Note_on_c, 9, 44, 80
15, 97920, Note_on_c, 9, 51, 104
15, 97984, Note_on_c, 9, 51, 0
15, 98016, Note_on_c, 9, 44, 0
15, 98112, Note_on_c, 9, 44, 80
15, 98208, Note_on_c, 9, 44, 0
15, 98304, Note_on_c, 9, 49, 80
15, 98304, Note_on_c, 9, 55, 80
15, 98496, Note_on_c, 9, 55, 0
15, 98688, Note_on_c, 9, 49, 0
15, 98688, Note_on_c, 9, 42, 80
15, 98736, Note_on_c, 9, 42, 0
15, 99072, Note_on_c, 9, 42, 80
15, 99120, Note_on_c, 9, 42, 0
15, 99456, Note_on_c, 9, 42, 80
15, 99504, Note_on_c, 9, 42, 0
15, 99840, Note_on_c, 9, 42, 96
15, 99888, Note_on_c, 9, 42, 0
15, 100224, Note_on_c, 9, 42, 96
15, 100272, Note_on_c, 9, 42, 0
15, 100608, Note_on_c, 9, 42, 100
15, 100656, Note_on_c, 9, 42, 0
15, 100992, Note_on_c, 9, 42, 100
15, 101040, Note_on_c, 9, 42, 0
15, 101376, Note_on_c, 9, 42, 96
15, 101424, Note_on_c, 9, 42, 0
15, 101760, Note_on_c, 9, 42, 96
15, 101808, Note_on_c, 9, 42, 0
15, 102144, Note_on_c, 9, 42, 100
15, 102192, Note_on_c, 9, 42, 0
15, 102528, Note_on_c, 9, 42, 100
15, 102576, Note_on_c, 9, 42, 0
15, 102912, Note_on_c, 9, 42, 96
15, 102960, Note_on_c, 9, 42, 0
15, 103296, Note_on_c, 9, 42, 96
15, 103344, Note_on_c, 9, 42, 0
15, 103680, Note_on_c, 9, 42, 100
15, 103728, Note_on_c, 9, 42, 0
15, 104064, Note_on_c, 9, 42, 100
15, 104112, Note_on_c, 9, 42, 0
15, 104448, Note_on_c, 9, 42, 96
15, 104496, Note_on_c, 9, 42, 0
15, 104832, Note_on_c, 9, 42, 96
15, 104880, Note_on_c, 9, 42, 0
15, 105216, Note_on_c, 9, 42, 100
15, 105264, Note_on_c, 9, 42, 0
15, 105600, Note_on_c, 9, 42, 100
15, 105648, Note_on_c, 9, 42, 0
15, 105984, Note_on_c, 9, 42, 96
15, 106032, Note_on_c, 9, 42, 0
15, 106368, Note_on_c, 9, 42, 96
15, 106416, Note_on_c, 9, 42, 0
15, 106752, Note_on_c, 9, 42, 100
15, 106800, Note_on_c, 9, 42, 0
15, 107136, Note_on_c, 9, 42, 100
15, 107184, Note_on_c, 9, 42, 0
15, 107520, Note_on_c, 9, 42, 96
15, 107568, Note_on_c, 9, 42, 0
15, 107904, Note_on_c, 9, 42, 96
15, 107952, Note_on_c, 9, 42, 0
15, 108288, Note_on_c, 9, 42, 100
15, 108336, Note_on_c, 9, 42, 0
15, 108672, Note_on_c, 9, 46, 60
15, 108864, Note_on_c, 9, 46, 0
15, 109056, Note_on_c, 9, 46, 100
15, 109248, Note_on_c, 9, 46, 0
15, 109824, Note_on_c, 9, 44, 80
15, 109920, Note_on_c, 9, 44, 0
15, 110208, Note_on_c, 9, 44, 80
15, 110304, Note_on_c, 9, 44, 0
15, 110592, Note_on_c, 9, 57, 80
15, 110592, Channel_aftertouch_c, 9, 72
15, 110596, Channel_aftertouch_c, 9, 70
15, 110608, Channel_aftertouch_c, 9, 0
15, 110976, Note_on_c, 9, 57, 0
15, 110976, Note_on_c, 9, 42, 122
15, 110976, Channel_aftertouch_c, 9, 107
15, 110984, Channel_aftertouch_c, 9, 45
15, 111000, Channel_aftertouch_c, 9, 0
15, 111020, Note_on_c, 9, 42, 0
15, 111360, Note_on_c, 9, 42, 117
15, 111364, Channel_aftertouch_c, 9, 91
15, 111376, Channel_aftertouch_c, 9, 96
15, 111388, Channel_aftertouch_c, 9, 0
15, 111408, Note_on_c, 9, 42, 0
15, 111744, Note_on_c, 9, 42, 117
15, 111744, Channel_aftertouch_c, 9, 80
15, 111756, Channel_aftertouch_c, 9, 48
15, 111768, Channel_aftertouch_c, 9, 0
15, 111784, Note_on_c, 9, 42, 0
15, 112128, Note_on_c, 9, 42, 122
15, 112128, Channel_aftertouch_c, 9, 72
15, 112132, Channel_aftertouch_c, 9, 70
15, 112144, Channel_aftertouch_c, 9, 0
15, 112172, Note_on_c, 9, 42, 0
15, 112512, Note_on_c, 9, 42, 122
15, 112512, Channel_aftertouch_c, 9, 107
15, 112520, Channel_aftertouch_c, 9, 45
15, 112536, Channel_aftertouch_c, 9, 0
15, 112556, Note_on_c, 9, 42, 0
15, 112896, Note_on_c, 9, 42, 117
15, 112900, Channel_aftertouch_c, 9, 91
15, 112912, Channel_aftertouch_c, 9, 96
15, 112924, Channel_aftertouch_c, 9, 0
15, 112944, Note_on_c, 9, 42, 0
15, 113280, Note_on_c, 9, 42, 117
15, 113280, Channel_aftertouch_c, 9, 80
15, 113292, Channel_aftertouch_c, 9, 48
15, 113304, Channel_aftertouch_c, 9, 0
15, 113320, Note_on_c, 9, 42, 0
15, 113664, Note_on_c, 9, 42, 122
15, 113664, Channel_aftertouch_c, 9, 72
15, 113668, Channel_aftertouch_c, 9, 70
15, 113680, Channel_aftertouch_c, 9, 0
15, 113708, Note_on_c, 9, 42, 0
15, 114048, Note_on_c, 9, 42, 122
15, 114048, Channel_aftertouch_c, 9, 107
15, 114056, Channel_aftertouch_c, 9, 45
15, 114072, Channel_aftertouch_c, 9, 0
15, 114092, Note_on_c, 9, 42, 0
15, 114432, Note_on_c, 9, 42, 117
15, 114436, Channel_aftertouch_c, 9, 91
15, 114448, Channel_aftertouch_c, 9, 96
15, 114460, Channel_aftertouch_c, 9, 0
15, 114480, Note_on_c, 9, 42, 0
15, 114816, Note_on_c, 9, 42, 117
15, 114816, Channel_aftertouch_c, 9, 80
15, 114828, Channel_aftertouch_c, 9, 48
15, 114840, Channel_aftertouch_c, 9, 0
15, 114856, Note_on_c, 9, 42, 0
15, 115200, Note_on_c, 9, 42, 122
15, 115200, Channel_aftertouch_c, 9, 72
15, 115204, Channel_aftertouch_c, 9, 70
15, 115216, Channel_aftertouch_c, 9, 0
15, 115244, Note_on_c, 9, 42, 0
15, 115584, Note_on_c, 9, 42, 122
15, 115584, Channel_aftertouch_c, 9, 107
15, 115592, Channel_aftertouch_c, 9, 45
15, 115608, Channel_aftertouch_c, 9, 0
15, 115628, Note_on_c, 9, 42, 0
15, 115968, Note_on_c, 9, 42, 117
15, 115972, Channel_aftertouch_c, 9, 91
15, 115984, Channel_aftertouch_c, 9, 96
15, 115996, Channel_aftertouch_c, 9, 0
15, 116016, Note_on_c, 9, 42, 0
15, 116352, Note_on_c, 9, 42, 117
15, 116352, Channel_aftertouch_c, 9, 80
15, 116364, Channel_aftertouch_c, 9, 48
15, 116376, Channel_aftertouch_c, 9, 0
15, 116392, Note_on_c, 9, 42, 0
15, 116736, Note_on_c, 9, 42, 122
15, 116736, Channel_aftertouch_c, 9, 72
15, 116740, Channel_aftertouch_c, 9, 70
15, 116752, Channel_aftertouch_c, 9, 0
15, 116780, Note_on_c, 9, 42, 0
15, 117120, Note_on_c, 9, 42, 122
15, 117120, Channel_aftertouch_c, 9, 107
15, 117128, Channel_aftertouch_c, 9, 45
15, 117144, Channel_aftertouch_c, 9, 0
15, 117164, Note_on_c, 9, 42, 0
15, 117504, Note_on_c, 9, 42, 117
15, 117508, Channel_aftertouch_c, 9, 91
15, 117520, Channel_aftertouch_c, 9, 96
15, 117532, Channel_aftertouch_c, 9, 0
15, 117552, Note_on_c, 9, 42, 0
15, 117888, Note_on_c, 9, 42, 117
15, 117888, Channel_aftertouch_c, 9, 80
15, 117900, Channel_aftertouch_c, 9, 48
15, 117912, Channel_aftertouch_c, 9, 0
15, 117928, Note_on_c, 9, 42, 0
15, 118272, Note_on_c, 9, 42, 122
15, 118272, Channel_aftertouch_c, 9, 72
15, 118276, Channel_aftertouch_c, 9, 70
15, 118288, Channel_aftertouch_c, 9, 0
15, 118316, Note_on_c, 9, 42, 0
15, 118656, Note_on_c, 9, 42, 122
15, 118656, Channel_aftertouch_c, 9, 107
15, 118664, Channel_aftertouch_c, 9, 45
15, 118680, Channel_aftertouch_c, 9, 0
15, 118700, Note_on_c, 9, 42, 0
15, 119040, Note_on_c, 9, 42, 117
15, 119044, Channel_aftertouch_c, 9, 91
15, 119056, Channel_aftertouch_c, 9, 96
15, 119068, Channel_aftertouch_c, 9, 0
15, 119088, Note_on_c, 9, 42, 0
15, 119424, Note_on_c, 9, 42, 117
15, 119424, Channel_aftertouch_c, 9, 80
15, 119436, Channel_aftertouch_c, 9, 48
15, 119448, Channel_aftertouch_c, 9, 0
15, 119464, Note_on_c, 9, 42, 0
15, 119808, Note_on_c, 9, 42, 122
15, 119808, Channel_aftertouch_c, 9, 72
15, 119812, Channel_aftertouch_c, 9, 70
15, 119824, Channel_aftertouch_c, 9, 0
15, 119852, Note_on_c, 9, 42, 0
15, 120192, Note_on_c, 9, 42, 122
15, 120192, Channel_aftertouch_c, 9, 107
15, 120200, Channel_aftertouch_c, 9, 45
15, 120216, Channel_aftertouch_c, 9, 0
15, 120236, Note_on_c, 9, 42, 0
15, 120576, Note_on_c, 9, 42, 117
15, 120580, Channel_aftertouch_c, 9, 91
15, 120592, Channel_aftertouch_c, 9, 96
15, 120604, Channel_aftertouch_c, 9, 0
15, 120624, Note_on_c, 9, 42, 0
15, 120960, Note_on_c, 9, 42, 117
15, 120960, Channel_aftertouch_c, 9, 80
15, 120972, Channel_aftertouch_c, 9, 48
15, 120984, Channel_aftertouch_c, 9, 0
15, 121000, Note_on_c, 9, 42, 0
15, 121344, Note_on_c, 9, 42, 122
15, 121344, Channel_aftertouch_c, 9, 72
15, 121348, Channel_aftertouch_c, 9, 70
15, 121360, Channel_aftertouch_c, 9, 0
15, 121388, Note_on_c, 9, 42, 0
15, 121728, Note_on_c, 9, 42, 122
15, 121728, Channel_aftertouch_c, 9, 107
15, 121736, Channel_aftertouch_c, 9, 45
15, 121752, Channel_aftertouch_c, 9, 0
15, 121772, Note_on_c, 9, 42, 0
15, 122112, Note_on_c, 9, 42, 117
15, 122116, Channel_aftertouch_c, 9, 91
15, 122128, Channel_aftertouch_c, 9, 96
15, 122140, Channel_aftertouch_c, 9, 0
15, 122160, Note_on_c, 9, 42, 0
15, 122496, Note_on_c, 9, 42, 117
15, 122496, Channel_aftertouch_c, 9, 80
15, 122508, Channel_aftertouch_c, 9, 48
15, 122520, Channel_aftertouch_c, 9, 0
15, 122536, Note_on_c, 9, 42, 0
15, 122880, Note_on_c, 9, 42, 122
15, 122880, Channel_aftertouch_c, 9, 72
15, 122884, Channel_aftertouch_c, 9, 70
15, 122896, Channel_aftertouch_c, 9, 0
15, 122924, Note_on_c, 9, 42, 0
15, 123264, Note_on_c, 9, 42, 122
15, 123264, Channel_aftertouch_c, 9, 107
15, 123272, Channel_aftertouch_c, 9, 45
15, 123288, Channel_aftertouch_c, 9, 0
15, 123308, Note_on_c, 9, 42, 0
15, 123648, Note_on_c, 9, 42, 117
15, 123652, Channel_aftertouch_c, 9, 91
15, 123664, Channel_aftertouch_c, 9, 96
15, 123676, Channel_aftertouch_c, 9, 0
15, 123696, Note_on_c, 9, 42, 0
15, 124032, Note_on_c, 9, 42, 117
15, 124032, Channel_aftertouch_c, 9, 80
15, 124044, Channel_aftertouch_c, 9, 48
15, 124056, Channel_aftertouch_c, 9, 0
15, 124072, Note_on_c, 9, 42, 0
15, 124416, Note_on_c, 9, 42, 122
15, 124416, Channel_aftertouch_c, 9, 72
15, 124420, Channel_aftertouch_c, 9, 70
15, 124432, Channel_aftertouch_c, 9, 0
15, 124460, Note_on_c, 9, 42, 0
15, 124800, Note_on_c, 9, 42, 122
15, 124800, Channel_aftertouch_c, 9, 107
15, 124808, Channel_aftertouch_c, 9, 45
15, 124824, Channel_aftertouch_c, 9, 0
15, 124844, Note_on_c, 9, 42, 0
15, 125184, Note_on_c, 9, 42, 117
15, 125188, Channel_aftertouch_c, 9, 91
15, 125200, Channel_aftertouch_c, 9, 96
15, 125212, Channel_aftertouch_c, 9, 0
15, 125232, Note_on_c, 9, 42, 0
15, 125568, Note_on_c, 9, 42, 117
15, 125568, Channel_aftertouch_c, 9, 80
15, 125580, Channel_aftertouch_c, 9, 48
15, 125592, Channel_aftertouch_c, 9, 0
15, 125608, Note_on_c, 9, 42, 0
15, 125952, Note_on_c, 9, 42, 122
15, 125952, Channel_aftertouch_c, 9, 72
15, 125956, Channel_aftertouch_c, 9, 70
15, 125968, Channel_aftertouch_c, 9, 0
15, 125996, Note_on_c, 9, 42, 0
15, 126336, Note_on_c, 9, 42, 122
15, 126336, Channel_aftertouch_c, 9, 107
15, 126344, Channel_aftertouch_c, 9, 45
15, 126360, Channel_aftertouch_c, 9, 0
15, 126380, Note_on_c, 9, 42, 0
15, 126720, Note_on_c, 9, 42, 117
15, 126724, Channel_aftertouch_c, 9, 91
15, 126736, Channel_aftertouch_c, 9, 96
15, 126748, Channel_aftertouch_c, 9, 0
15, 126768, Note_on_c, 9, 42, 0
15, 127104, Note_on_c, 9, 42, 117
15, 127104, Channel_aftertouch_c, 9, 80
15, 127116, Channel_aftertouch_c, 9, 48
15, 127128, Channel_aftertouch_c, 9, 0
15, 127144, Note_on_c, 9, 42, 0
15, 127488, Note_on_c, 9, 42, 122
15, 127488, Channel_aftertouch_c, 9, 72
15, 127492, Channel_aftertouch_c, 9, 70
15, 127504, Channel_aftertouch_c, 9, 0
15, 127532, Note_on_c, 9, 42, 0
15, 127872, Note_on_c, 9, 42, 122
15, 127872, Channel_aftertouch_c, 9, 107
15, 127880, Channel_aftertouch_c, 9, 45
15, 127896, Channel_aftertouch_c, 9, 0
15, 127916, Note_on_c, 9, 42, 0
15, 128256, Note_on_c, 9, 42, 117
15, 128260, Channel_aftertouch_c, 9, 91
15, 128272, Channel_aftertouch_c, 9, 96
15, 128284, Channel_aftertouch_c, 9, 0
15, 128304, Note_on_c, 9, 42, 0
15, 128640, Note_on_c, 9, 42, 117
15, 128640, Channel_aftertouch_c, 9, 80
15, 128652, Channel_aftertouch_c, 9, 48
15, 128664, Channel_aftertouch_c, 9, 0
15, 128680, Note_on_c, 9, 42, 0
15, 129024, Note_on_c, 9, 42, 122
15, 129024, Channel_aftertouch_c, 9, 72
15, 129028, Channel_aftertouch_c, 9, 70
15, 129040, Channel_aftertouch_c, 9, 0
15, 129068, Note_on_c, 9, 42, 0
15, 129408, Note_on_c, 9, 42, 122
15, 129408, Channel_aftertouch_c, 9, 107
15, 129416, Channel_aftertouch_c, 9, 45
15, 129432, Channel_aftertouch_c, 9, 0
15, 129452, Note_on_c, 9, 42, 0
15, 129792, Note_on_c, 9, 42, 117
15, 129796, Channel_aftertouch_c, 9, 91
15, 129808, Channel_aftertouch_c, 9, 96
15, 129820, Channel_aftertouch_c, 9, 0
15, 129840, Note_on_c, 9, 42, 0
15, 130176, Note_on_c, 9, 42, 117
15, 130176, Channel_aftertouch_c, 9, 80
15, 130188, Channel_aftertouch_c, 9, 48
15, 130200, Channel_aftertouch_c, 9, 0
15, 130216, Note_on_c, 9, 42, 0
15, 130560, Note_on_c, 9, 42, 122
15, 130560, Channel_aftertouch_c, 9, 72
15, 130564, Channel_aftertouch_c, 9, 70
15, 130576, Channel_aftertouch_c, 9, 0
15, 130604, Note_on_c, 9, 42, 0
15, 130944, Note_on_c, 9, 42, 122
15, 130944, Channel_aftertouch_c, 9, 107
15, 130952, Channel_aftertouch_c, 9, 45
15, 130968, Channel_aftertouch_c, 9, 0
15, 130988, Note_on_c, 9, 42, 0
15, 131328, Note_on_c, 9, 42, 117
15, 131332, Channel_aftertouch_c, 9, 91
15, 131344, Channel_aftertouch_c, 9, 96
15, 131356, Channel_aftertouch_c, 9, 0
15, 131376, Note_on_c, 9, 42, 0
15, 131712, Note_on_c, 9, 46, 80
15, 131712, Channel_aftertouch_c, 9, 80
15, 131724, Channel_aftertouch_c, 9, 48
15, 131736, Channel_aftertouch_c, 9, 0
15, 132016, Note_on_c, 9, 46, 0
15, 132480, Note_on_c, 9, 46, 117
15, 132608, Note_on_c, 9, 46, 0
15, 132864, Note_on_c, 9, 46, 113
15, 133044, Note_on_c, 9, 46, 0
15, 133248, Note_on_c, 9, 46, 117
15, 133436, Note_on_c, 9, 46, 0
15, 133632, Note_on_c, 9, 46, 117
15, 133804, Note_on_c, 9, 46, 0
15, 134016, Note_on_c, 9, 46, 117
15, 134068, Note_on_c, 9, 46, 0
15, 134208, Note_on_c, 9, 46, 122
15, 134276, Note_on_c, 9, 46, 0
15, 134400, Note_on_c, 9, 46, 117
15, 134520, Note_on_c, 9, 46, 0
15, 134792, Channel_aftertouch_c, 9, 112
15, 134804, Channel_aftertouch_c, 9, 0
15, 134976, Note_on_c, 9, 55, 120
15, 135068, Note_on_c, 9, 55, 0
15, 135168, Note_on_c, 9, 57, 120
15, 135436, Note_on_c, 9, 57, 0
15, 135552, Note_on_c, 9, 49, 120
15, 135744, Note_on_c, 9, 49, 0
15, 135936, Note_on_c, 9, 44, 80
15, 135940, Note_on_c, 9, 51, 80
15, 136008, Note_on_c, 9, 51, 0
15, 136032, Note_on_c, 9, 44, 0
15, 136128, Note_on_c, 9, 44, 80
15, 136224, Note_on_c, 9, 44, 0
15, 136320, Note_on_c, 9, 44, 80
15, 136332, Note_on_c, 9, 51, 113
15, 136396, Note_on_c, 9, 51, 0
15, 136416, Note_on_c, 9, 44, 0
15, 136512, Note_on_c, 9, 44, 80
15, 136608, Note_on_c, 9, 44, 0
15, 136704, Note_on_c, 9, 51, 104
15, 136704, Note_on_c, 9, 44, 80
15, 136768, Note_on_c, 9, 51, 0
15, 136800, Note_on_c, 9, 44, 0
15, 136896, Note_on_c, 9, 44, 80
15, 136992, Note_on_c, 9, 44, 0
15, 137088, Note_on_c, 9, 51, 108
15, 137088, Note_on_c, 9, 44, 80
15, 137148, Note_on_c, 9, 51, 0
15, 137184, Note_on_c, 9, 44, 0
15, 137280, Note_on_c, 9, 44, 80
15, 137376, Note_on_c, 9, 44, 0
15, 137472, Note_on_c, 9, 51, 108
15, 137472, Note_on_c, 9, 44, 80
15, 137536, Note_on_c, 9, 51, 0
15, 137568, Note_on_c, 9, 44, 0
15, 137664, Note_on_c, 9, 44, 80
15, 137760, Note_on_c, 9, 44, 0
15, 137856, Note_on_c, 9, 44, 80
15, 137856, Note_on_c, 9, 51, 104
15, 137920, Note_on_c, 9, 51, 0
15, 137952, Note_on_c, 9, 44, 0
15, 138048, Note_on_c, 9, 44, 80
15, 138144, Note_on_c, 9, 44, 0
15, 138240, Note_on_c, 9, 51, 104
15, 138240, Note_on_c, 9, 44, 80
15, 138304, Note_on_c, 9, 51, 0
15, 138336, Note_on_c, 9, 44, 0
15, 138432, Note_on_c, 9, 44, 80
15, 138528, Note_on_c, 9, 44, 0
15, 138624, Note_on_c, 9, 51, 108
15, 138624, Note_on_c, 9, 44, 80
15, 138684, Note_on_c, 9, 51, 0
15, 138720, Note_on_c, 9, 44, 0
15, 138816, Note_on_c, 9, 44, 80
15, 138912, Note_on_c, 9, 44, 0
15, 139008, Note_on_c, 9, 51, 108
15, 139008, Note_on_c, 9, 44, 80
15, 139072, Note_on_c, 9, 51, 0
15, 139104, Note_on_c, 9, 44, 0
15, 139200, Note_on_c, 9, 44, 80
15, 139296, Note_on_c, 9, 44, 0
15, 139392, Note_on_c, 9, 44, 80
15, 139392, Note_on_c, 9, 51, 104
15, 139456, Note_on_c, 9, 51, 0
15, 139488, Note_on_c, 9, 44, 0
15, 139584, Note_on_c, 9, 44, 80
15, 139680, Note_on_c, 9, 44, 0
15, 139776, Note_on_c, 9, 51, 104
15, 139776, Note_on_c, 9, 44, 80
15, 139840, Note_on_c, 9, 51, 0
15, 139872, Note_on_c, 9, 44, 0
15, 139968, Note_on_c, 9, 44, 80
15, 140064, Note_on_c, 9, 44, 0
15, 140160, Note_on_c, 9, 51, 108
15, 140160, Note_on_c, 9, 44, 80
15, 140220, Note_on_c, 9, 51, 0
15, 140256, Note_on_c, 9, 44, 0
15, 140352, Note_on_c, 9, 44, 80
15, 140448, Note_on_c, 9, 44, 0
15, 140544, Note_on_c, 9, 51, 108
15, 140544, Note_on_c, 9, 44, 80
15, 140608, Note_on_c, 9, 51, 0
15, 140640, Note_on_c, 9, 44, 0
15, 140736, Note_on_c, 9, 44, 80
15, 140832, Note_on_c, 9, 44, 0
15, 140928, Note_on_c, 9, 44, 80
15, 140928, Note_on_c, 9, 51, 104
15, 140992, Note_on_c, 9, 51, 0
15, 141024, Note_on_c, 9, 44, 0
15, 141120, Note_on_c, 9, 44, 80
15, 141216, Note_on_c, 9, 44, 0
15, 141312, Note_on_c, 9, 55, 96
15, 141372, Note_on_c, 9, 55, 0
15, 141696, Note_on_c, 9, 49, 108
15, 141760, Note_on_c, 9, 49, 0
15, 142080, Note_on_c, 9, 44, 80
15, 142088, Note_on_c, 9, 51, 113
15, 142164, Note_on_c, 9, 51, 0
15, 142176, Note_on_c, 9, 44, 0
15, 142272, Note_on_c, 9, 44, 80
15, 142368, Note_on_c, 9, 44, 0
15, 142464, Note_on_c, 9, 44, 80
15, 142476, Note_on_c, 9, 51, 113
15, 142540, Note_on_c, 9, 51, 0
15, 142560, Note_on_c, 9, 44, 0
15, 142656, Note_on_c, 9, 44, 80
15, 142752, Note_on_c, 9, 44, 0
15, 142848, Note_on_c, 9, 51, 104
15, 142848, Note_on_c, 9, 44, 80
15, 142912, Note_on_c, 9, 51, 0
15, 142944, Note_on_c, 9, 44, 0
15, 143040, Note_on_c, 9, 44, 80
15, 143136, Note_on_c, 9, 44, 0
15, 143232, Note_on_c, 9, 51, 108
15, 143232, Note_on_c, 9, 44, 80
15, 143292, Note_on_c, 9, 51, 0
15, 143328, Note_on_c, 9, 44, 0
15, 143424, Note_on_c, 9, 44, 80
15, 143520, Note_on_c, 9, 44, 0
15, 143616, Note_on_c, 9, 51, 108
15, 143616, Note_on_c, 9, 44, 80
15, 143680, Note_on_c, 9, 51, 0
15, 143712, Note_on_c, 9, 44, 0
15, 143808, Note_on_c, 9, 44, 80
15, 143904, Note_on_c, 9, 44, 0
15, 144000, Note_on_c, 9, 44, 80
15, 144000, Note_on_c, 9, 51, 104
15, 144064, Note_on_c, 9, 51, 0
15, 144096, Note_on_c, 9, 44, 0
15, 144192, Note_on_c, 9, 44, 80
15, 144288, Note_on_c, 9, 44, 0
15, 144384, Note_on_c, 9, 51, 104
15, 144384, Note_on_c, 9, 44, 80
15, 144448, Note_on_c, 9, 51, 0
15, 144480, Note_on_c, 9, 44, 0
15, 144576, Note_on_c, 9, 44, 80
15, 144672, Note_on_c, 9, 44, 0
15, 144768, Note_on_c, 9, 51, 108
15, 144768, Note_on_c, 9, 44, 80
15, 144828, Note_on_c, 9, 51, 0
15, 144864, Note_on_c, 9, 44, 0
15, 144960, Note_on_c, 9, 44, 80
15, 145056, Note_on_c, 9, 44, 0
15, 145152, Note_on_c, 9, 51, 108
15, 145152, Note_on_c, 9, 44, 80
15, 145216, Note_on_c, 9, 51, 0
15, 145248, Note_on_c, 9, 44, 0
15, 145344, Note_on_c, 9, 44, 80
15, 145440, Note_on_c, 9, 44, 0
15, 145536, Note_on_c, 9, 44, 80
15, 145536, Note_on_c, 9, 51, 104
15, 145600, Note_on_c, 9, 51, 0
15, 145632, Note_on_c, 9, 44, 0
15, 145728, Note_on_c, 9, 44, 80
15, 145824, Note_on_c, 9, 44, 0
15, 145920, Note_on_c, 9, 51, 108
15, 145968, Note_on_c, 9, 51, 0
15, 146112, Note_on_c, 9, 51, 104
15, 146148, Note_on_c, 9, 51, 0
15, 146208, Note_on_c, 9, 51, 92
15, 146248, Note_on_c, 9, 51, 0
15, 146304, Note_on_c, 9, 51, 100
15, 146344, Note_on_c, 9, 51, 0
15, 146400, Note_on_c, 9, 51, 100
15, 146444, Note_on_c, 9, 51, 0
15, 146496, Note_on_c, 9, 51, 100
15, 146548, Note_on_c, 9, 51, 0
15, 146688, Note_on_c, 9, 51, 108
15, 146740, Note_on_c, 9, 51, 0
15, 146880, Note_on_c, 9, 51, 113
15, 146940, Note_on_c, 9, 51, 0
15, 147072, Note_on_c, 9, 51, 117
15, 147136, Note_on_c, 9, 51, 0
15, 147264, Note_on_c, 9, 49, 100
15, 147392, Note_on_c, 9, 49, 0
15, 147456, Note_on_c, 9, 57, 120
15, 147584, Note_on_c, 9, 57, 0
15, 147840, Note_on_c, 9, 49, 108
15, 147904, Note_on_c, 9, 49, 0
15, 148224, Note_on_c, 9, 44, 80
15, 148232, Note_on_c, 9, 51, 113
15, 148308, Note_on_c, 9, 51, 0
15, 148320, Note_on_c, 9, 44, 0
15, 148416, Note_on_c, 9, 44, 80
15, 148512, Note_on_c, 9, 44, 0
15, 148608, Note_on_c, 9, 44, 80
15, 148620, Note_on_c, 9, 51, 113
15, 148684, Note_on_c, 9, 51, 0
15, 148704, Note_on_c, 9, 44, 0
15, 148800, Note_on_c, 9, 44, 80
15, 148896, Note_on_c, 9, 44, 0
15, 148992, Note_on_c, 9, 51, 104
15, 148992, Note_on_c, 9, 44, 80
15, 149056, Note_on_c, 9, 51, 0
15, 149088, Note_on_c, 9, 44, 0
15, 149184, Note_on_c, 9, 44, 80
15, 149280, Note_on_c, 9, 44, 0
15, 149376, Note_on_c, 9, 51, 108
15, 149376, Note_on_c, 9, 44, 80
15, 149436, Note_on_c, 9, 51, 0
15, 149472, Note_on_c, 9, 44, 0
15, 149568, Note_on_c, 9, 44, 80
15, 149664, Note_on_c, 9, 44, 0
15, 149760, Note_on_c, 9, 51, 108
15, 149760, Note_on_c, 9, 44, 80
15, 149824, Note_on_c, 9, 51, 0
15, 149856, Note_on_c, 9, 44, 0
15, 149952, Note_on_c, 9, 44, 80
15, 150048, Note_on_c, 9, 44, 0
15, 150144, Note_on_c, 9, 44, 80
15, 150144, Note_on_c, 9, 51, 104
15, 150208, Note_on_c, 9, 51, 0
15, 150240, Note_on_c, 9, 44, 0
15, 150336, Note_on_c, 9, 44, 80
15, 150432, Note_on_c, 9, 44, 0
15, 150528, Note_on_c, 9, 51, 104
15, 150528, Note_on_c, 9, 44, 80
15, 150592, Note_on_c, 9, 51, 0
15, 150624, Note_on_c, 9, 44, 0
15, 150720, Note_on_c, 9, 44, 80
15, 150816, Note_on_c, 9, 44, 0
15, 150912, Note_on_c, 9, 51, 108
15, 150912, Note_on_c, 9, 44, 80
15, 150972, Note_on_c, 9, 51, 0
15, 151008, Note_on_c, 9, 44, 0
15, 151104, Note_on_c, 9, 44, 80
15, 151200, Note_on_c, 9, 44, 0
15, 151296, Note_on_c, 9, 51, 108
15, 151296, Note_on_c, 9, 44, 80
15, 151360, Note_on_c, 9, 51, 0
15, 151392, Note_on_c, 9, 44, 0
15, 151488, Note_on_c, 9, 44, 80
15, 151584, Note_on_c, 9, 44, 0
15, 151680, Note_on_c, 9, 44, 80
15, 151680, Note_on_c, 9, 51, 104
15, 151744, Note_on_c, 9, 51, 0
15, 151776, Note_on_c, 9, 44, 0
15, 151872, Note_on_c, 9, 44, 80
15, 151968, Note_on_c, 9, 44, 0
15, 152064, Note_on_c, 9, 51, 104
15, 152064, Note_on_c, 9, 44, 80
15, 152128, Note_on_c, 9, 51, 0
15, 152160, Note_on_c, 9, 44, 0
15, 152256, Note_on_c, 9, 44, 80
15, 152352, Note_on_c, 9, 44, 0
15, 152448, Note_on_c, 9, 51, 108
15, 152448, Note_on_c, 9, 44, 80
15, 152508, Note_on_c, 9, 51, 0
15, 152544, Note_on_c, 9, 44, 0
15, 152640, Note_on_c, 9, 44, 80
15, 152736, Note_on_c, 9, 44, 0
15, 152832, Note_on_c, 9, 51, 108
15, 152832, Note_on_c, 9, 44, 80
15, 152896, Note_on_c, 9, 51, 0
15, 152928, Note_on_c, 9, 44, 0
15, 153024, Note_on_c, 9, 44, 80
15, 153120, Note_on_c, 9, 44, 0
15, 153216, Note_on_c, 9, 44, 80
15, 153216, Note_on_c, 9, 51, 104
15, 153280, Note_on_c, 9, 51, 0
15, 153312, Note_on_c, 9, 44, 0
15, 153408, Note_on_c, 9, 44, 80
15, 153504, Note_on_c, 9, 44, 0
15, 153600, Note_on_c, 9, 51, 104
15, 153600, Note_on_c, 9, 44, 80
15, 153664, Note_on_c, 9, 51, 0
15, 153696, Note_on_c, 9, 44, 0
15, 153792, Note_on_c, 9, 44, 80
15, 153888, Note_on_c, 9, 44, 0
15, 153984, Note_on_c, 9, 51, 108
15, 153984, Note_on_c, 9, 44, 80
15, 154044, Note_on_c, 9, 51, 0
15, 154080, Note_on_c, 9, 44, 0
15, 154176, Note_on_c, 9, 44, 80
15, 154272, Note_on_c, 9, 44, 0
15, 154368, Note_on_c, 9, 51, 108
15, 154368, Note_on_c, 9, 44, 80
15, 154432, Note_on_c, 9, 51, 0
15, 154464, Note_on_c, 9, 44, 0
15, 154560, Note_on_c, 9, 44, 80
15, 154656, Note_on_c, 9, 44, 0
15, 154752, Note_on_c, 9, 44, 80
15, 154752, Note_on_c, 9, 51, 104
15, 154816, Note_on_c, 9, 51, 0
15, 154848, Note_on_c, 9, 44, 0
15, 154944, Note_on_c, 9, 44, 80
15, 155040, Note_on_c, 9, 44, 0
15, 155136, Note_on_c, 9, 51, 104
15, 155136, Note_on_c, 9, 44, 80
15, 155200, Note_on_c, 9, 51, 0
15, 155232, Note_on_c, 9, 44, 0
15, 155328, Note_on_c, 9, 44, 80
15, 155424, Note_on_c, 9, 44, 0
15, 155520, Note_on_c, 9, 51, 108
15, 155520, Note_on_c, 9, 44, 80
15, 155580, Note_on_c, 9, 51, 0
15, 155616, Note_on_c, 9, 44, 0
15, 155712, Note_on_c, 9, 44, 80
15, 155808, Note_on_c, 9, 44, 0
15, 155904, Note_on_c, 9, 51, 108
15, 155904, Note_on_c, 9, 44, 80
15, 155968, Note_on_c, 9, 51, 0
15, 156000, Note_on_c, 9, 44, 0
15, 156096, Note_on_c, 9, 44, 80
15, 156192, Note_on_c, 9, 44, 0
15, 156288, Note_on_c, 9, 44, 80
15, 156288, Note_on_c, 9, 51, 104
15, 156352, Note_on_c, 9, 51, 0
15, 156384, Note_on_c, 9, 44, 0
15, 156480, Note_on_c, 9, 44, 80
15, 156576, Note_on_c, 9, 44, 0
15, 156672, Note_on_c, 9, 49, 80
15, 156672, Note_on_c, 9, 55, 80
15, 156864, Note_on_c, 9, 55, 0
15, 157056, Note_on_c, 9, 49, 0
15, 157056, Note_on_c, 9, 42, 80
15, 157104, Note_on_c, 9, 42, 0
15, 157440, Note_on_c, 9, 42, 80
15, 157488, Note_on_c, 9, 42, 0
15, 157824, Note_on_c, 9, 42, 80
15, 157872, Note_on_c, 9, 42, 0
15, 158208, Note_on_c, 9, 42, 96
15, 158256, Note_on_c, 9, 42, 0
15, 158592, Note_on_c, 9, 42, 96
15, 158640, Note_on_c, 9, 42, 0
15, 158976, Note_on_c, 9, 42, 100
15, 159024, Note_on_c, 9, 42, 0
15, 159360, Note_on_c, 9, 42, 100
15, 159408, Note_on_c, 9, 42, 0
15, 159744, Note_on_c, 9, 42, 96
15, 159792, Note_on_c, 9, 42, 0
15, 160128, Note_on_c, 9, 42, 96
15, 160176, Note_on_c, 9, 42, 0
15, 160512, Note_on_c, 9, 42, 100
15, 160560, Note_on_c, 9, 42, 0
15, 160896, Note_on_c, 9, 42, 100
15, 160944, Note_on_c, 9, 42, 0
15, 161280, Note_on_c, 9, 42, 96
15, 161328, Note_on_c, 9, 42, 0
15, 161664, Note_on_c, 9, 42, 96
15, 161712, Note_on_c, 9, 42, 0
15, 162048, Note_on_c, 9, 42, 100
15, 162096, Note_on_c, 9, 42, 0
15, 162432, Note_on_c, 9, 42, 100
15, 162480, Note_on_c, 9, 42, 0
15, 162816, Note_on_c, 9, 42, 96
15, 162864, Note_on_c, 9, 42, 0
15, 163200, Note_on_c, 9, 42, 96
15, 163248, Note_on_c, 9, 42, 0
15, 163584, Note_on_c, 9, 42, 100
15, 163632, Note_on_c, 9, 42, 0
15, 163968, Note_on_c, 9, 42, 100
15, 164016, Note_on_c, 9, 42, 0
15, 164352, Note_on_c, 9, 42, 96
15, 164400, Note_on_c, 9, 42, 0
15, 164736, Note_on_c, 9, 42, 96
15, 164784, Note_on_c, 9, 42, 0
15, 165120, Note_on_c, 9, 42, 100
15, 165168, Note_on_c, 9, 42, 0
15, 165504, Note_on_c, 9, 42, 100
15, 165552, Note_on_c, 9, 42, 0
15, 165888, Note_on_c, 9, 57, 120
15, 166156, Note_on_c, 9, 57, 0
15, 166272, Note_on_c, 9, 49, 120
15, 166464, Note_on_c, 9, 49, 0
15, 166656, Note_on_c, 9, 44, 80
15, 166660, Note_on_c, 9, 51, 80
15, 166728, Note_on_c, 9, 51, 0
15, 166752, Note_on_c, 9, 44, 0
15, 166848, Note_on_c, 9, 44, 80
15, 166944, Note_on_c, 9, 44, 0
15, 167040, Note_on_c, 9, 44, 80
15, 167052, Note_on_c, 9, 51, 113
15, 167116, Note_on_c, 9, 51, 0
15, 167136, Note_on_c, 9, 44, 0
15, 167232, Note_on_c, 9, 44, 80
15, 167328, Note_on_c, 9, 44, 0
15, 167424, Note_on_c, 9, 51, 104
15, 167424, Note_on_c, 9, 44, 80
15, 167488, Note_on_c, 9, 51, 0
15, 167520, Note_on_c, 9, 44, 0
15, 167616, Note_on_c, 9, 44, 80
15, 167712, Note_on_c, 9, 44, 0
15, 167808, Note_on_c, 9, 51, 108
15, 167808, Note_on_c, 9, 44, 80
15, 167868, Note_on_c, 9, 51, 0
15, 167904, Note_on_c, 9, 44, 0
15, 168000, Note_on_c, 9, 44, 80
15, 168096, Note_on_c, 9, 44, 0
15, 168192, Note_on_c, 9, 44, 80
15, 168288, Note_on_c, 9, 44, 0
15, 168384, Note_on_c, 9, 44, 80
15, 168480, Note_on_c, 9, 44, 0
15, 168576, Note_on_c, 9, 44, 80
15, 168672, Note_on_c, 9, 44, 0
15, 168768, Note_on_c, 9, 49, 120
15, 168768, Note_on_c, 9, 44, 80
15, 168864, Note_on_c, 9, 44, 0
15, 168896, Note_on_c, 9, 49, 0
15, 168960, Note_on_c, 9, 57, 120
15, 169228, Note_on_c, 9, 57, 0
15, 169344, Note_on_c, 9, 49, 120
15, 169536, Note_on_c, 9, 49, 0
15, 169728, Note_on_c, 9, 44, 80
15, 169732, Note_on_c, 9, 51, 80
15, 169800, Note_on_c, 9, 51, 0
15, 169824, Note_on_c, 9, 44, 0
15, 169920, Note_on_c, 9, 44, 80
15, 170016, Note_on_c, 9, 44, 0
15, 170112, Note_on_c, 9, 44, 80
15, 170124, Note_on_c, 9, 51, 113
15, 170188, Note_on_c, 9, 51, 0
15, 170208, Note_on_c, 9, 44, 0
15, 170304, Note_on_c, 9, 44, 80
15, 170400, Note_on_c, 9, 44, 0
15, 170496, Note_on_c, 9, 51, 104
15, 170496, Note_on_c, 9, 44, 80
15, 170560, Note_on_c, 9, 51, 0
15, 170592, Note_on_c, 9, 44, 0
15, 170688, Note_on_c, 9, 44, 80
15, 170784, Note_on_c, 9, 44, 0
15, 170880, Note_on_c, 9, 51, 108
15, 170880, Note_on_c, 9, 44, 80
15, 170940, Note_on_c, 9, 51, 0
15, 170976, Note_on_c, 9, 44, 0
15, 171072, Note_on_c, 9, 44, 80
15, 171168, Note_on_c, 9, 44, 0
15, 171264, Note_on_c, 9, 51, 108
15, 171264, Note_on_c, 9, 44, 80
15, 171328, Note_on_c, 9, 51, 0
15, 171360, Note_on_c, 9, 44, 0
15, 171456, Note_on_c, 9, 44, 80
15, 171552, Note_on_c, 9, 44, 0
15, 171648, Note_on_c, 9, 44, 80
15, 171648, Note_on_c, 9, 51, 104
15, 171712, Note_on_c, 9, 51, 0
15, 171744, Note_on_c, 9, 44, 0
15, 171840, Note_on_c, 9, 44, 80
15, 171936, Note_on_c, 9, 44, 0
15, 172032, Note_on_c, 9, 51, 104
15, 172032, Note_on_c, 9, 44, 80
15, 172096, Note_on_c, 9, 51, 0
15, 172128, Note_on_c, 9, 44, 0
15, 172224, Note_on_c, 9, 44, 79
15, 172320, Note_on_c, 9, 44, 0
15, 172416, Note_on_c, 9, 51, 105
15, 172416, Note_on_c, 9, 44, 78
15, 172476, Note_on_c, 9, 51, 0
15, 172512, Note_on_c, 9, 44, 0
15, 172608, Note_on_c, 9, 44, 77
15, 172704, Note_on_c, 9, 44, 0
15, 172800, Note_on_c, 9, 51, 103
15, 172800, Note_on_c, 9, 44, 76
15, 172864, Note_on_c, 9, 51, 0
15, 172896, Note_on_c, 9, 44, 0
15, 172992, Note_on_c, 9, 44, 76
15, 173088, Note_on_c, 9, 44, 0
15, 173184, Note_on_c, 9, 44, 75
15, 173184, Note_on_c, 9, 51, 97
15, 173248, Note_on_c, 9, 51, 0
15, 173280, Note_on_c, 9, 44, 0
15, 173376, Note_on_c, 9, 44, 74
15, 173472, Note_on_c, 9, 44, 0
15, 173568, Note_on_c, 9, 51, 95
15, 173568, Note_on_c, 9, 44, 73
15, 173632, Note_on_c, 9, 51, 0
15, 173664, Note_on_c, 9, 44, 0
15, 173760, Note_on_c, 9, 44, 72
15, 173856, Note_on_c, 9, 44, 0
15, 173952, Note_on_c, 9, 51, 97
15, 173952, Note_on_c, 9, 44, 72
15, 174012, Note_on_c, 9, 51, 0
15, 174048, Note_on_c, 9, 44, 0
15, 174144, Note_on_c, 9, 44, 71
15, 174240, Note_on_c, 9, 44, 0
15, 174336, Note_on_c, 9, 51, 95
15, 174336, Note_on_c, 9, 44, 70
15, 174400, Note_on_c, 9, 51, 0
15, 174432, Note_on_c, 9, 44, 0
15, 174528, Note_on_c, 9, 44, 69
15, 174624, Note_on_c, 9, 44, 0
15, 174720, Note_on_c, 9, 44, 68
15, 174720, Note_on_c, 9, 51, 89
15, 174784, Note_on_c, 9, 51, 0
15, 174816, Note_on_c, 9, 44, 0
15, 174912, Note_on_c, 9, 44, 68
15, 175008, Note_on_c, 9, 44, 0
15, 175104, Note_on_c, 9, 51, 87
15, 175104, Note_on_c, 9, 44, 67
15, 175168, Note_on_c, 9, 51, 0
15, 175200, Note_on_c, 9, 44, 0
15, 175296, Note_on_c, 9, 44, 66
15, 175392, Note_on_c, 9, 44, 0
15, 175488, Note_on_c, 9, 51, 88
15, 175488, Note_on_c, 9, 44, 65
15, 175548, Note_on_c, 9, 51, 0
15, 175584, Note_on_c, 9, 44, 0
15, 175680, Note_on_c, 9, 44, 64
15, 175776, Note_on_c, 9, 44, 0
15, 175872, Note_on_c, 9, 51, 86
15, 175872, Note_on_c, 9, 44, 64
15, 175936, Note_on_c, 9, 51, 0
15, 175968, Note_on_c, 9, 44, 0
15, 176064, Note_on_c, 9, 44, 63
15, 176160, Note_on_c, 9, 44, 0
15, 176256, Note_on_c, 9, 44, 62
15, 176256, Note_on_c, 9, 51, 81
15, 176320, Note_on_c, 9, 51, 0
15, 176352, Note_on_c, 9, 44, 0
15, 176448, Note_on_c, 9, 44, 61
15, 176544, Note_on_c, 9, 44, 0
15, 176640, Note_on_c, 9, 51, 78
15, 176640, Note_on_c, 9, 44, 60
15, 176704, Note_on_c, 9, 51, 0
15, 176736, Note_on_c, 9, 44, 0
15, 176832, Note_on_c, 9, 44, 59
15, 176928, Note_on_c, 9, 44, 0
15, 177024, Note_on_c, 9, 51, 78
15, 177024, Note_on_c, 9, 44, 58
15, 177084, Note_on_c, 9, 51, 0
15, 177120, Note_on_c, 9, 44, 0
15, 177216, Note_on_c, 9, 44, 57
15, 177312, Note_on_c, 9, 44, 0
15, 177408, Note_on_c, 9, 51, 76
15, 177408, Note_on_c, 9, 44, 56
15, 177472, Note_on_c, 9, 51, 0
15, 177504, Note_on_c, 9, 44, 0
15, 177600, Note_on_c, 9, 44, 56
15, 177696, Note_on_c, 9, 44, 0
15, 177792, Note_on_c, 9, 44, 55
15, 177792, Note_on_c, 9, 51, 71
15, 177856, Note_on_c, 9, 51, 0
15, 177888, Note_on_c, 9, 44, 0
15, 177984, Note_on_c, 9, 44, 54
15, 178080, Note_on_c, 9, 44, 0
15, 178176, Note_on_c, 9, 51, 69
15, 178176, Note_on_c, 9, 44, 53
15, 178240, Note_on_c, 9, 51, 0
15, 178272, Note_on_c, 9, 44, 0
15, 178368, Note_on_c, 9, 44, 52
15, 178464, Note_on_c, 9, 44, 0
15, 178560, Note_on_c, 9, 51, 70
15, 178560, Note_on_c, 9, 44, 52
15, 178620, Note_on_c, 9, 51, 0
15, 178656, Note_on_c, 9, 44, 0
15, 178752, Note_on_c, 9, 44, 51
15, 178848, Note_on_c, 9, 44, 0
15, 178944, Note_on_c, 9, 51, 68
15, 178944, Note_on_c, 9, 44, 50
15, 179008, Note_on_c, 9, 51, 0
15, 179040, Note_on_c, 9, 44, 0
15, 179136, Note_on_c, 9, 44, 49
15, 179232, Note_on_c, 9, 44, 0
15, 179328, Note_on_c, 9, 44, 48
15, 179328, Note_on_c, 9, 51, 63
15, 179392, Note_on_c, 9, 51, 0
15, 179424, Note_on_c, 9, 44, 0
15, 179520, Note_on_c, 9, 44, 48
15, 179616, Note_on_c, 9, 44, 0
15, 179712, Note_on_c, 9, 44, 47
15, 179808, Note_on_c, 9, 44, 0
15, 179904, Note_on_c, 9, 44, 46
15, 180000, Note_on_c, 9, 44, 0
15, 180096, Note_on_c, 9, 44, 45
15, 180192, Note_on_c, 9, 44, 0
15, 180288, Note_on_c, 9, 44, 44
15, 180384, Note_on_c, 9, 44, 0
15, 180480, Note_on_c, 9, 44, 44
15, 180576, Note_on_c, 9, 44, 0
15, 180672, Note_on_c, 9, 46, 54
15, 180768, Note_on_c, 9, 46, 0
15, 181056, Note_on_c, 9, 46, 52
15, 181152, Note_on_c, 9, 46, 0
15, 181248, Note_on_c, 9, 51, 52
15, 181312, Note_on_c, 9, 51, 0
15, 181440, Note_on_c, 9, 44, 39
15, 181536, Note_on_c, 9, 44, 0
15, 181632, Note_on_c, 9, 51, 51
15, 181632, Note_on_c, 9, 44, 38
15, 181692, Note_on_c, 9, 51, 0
15, 181728, Note_on_c, 9, 44, 0
15, 181824, Note_on_c, 9, 44, 37
15, 181920, Note_on_c, 9, 44, 0
15, 182016, Note_on_c, 9, 51, 49
15, 182016, Note_on_c, 9, 44, 36
15, 182080, Note_on_c, 9, 51, 0
15, 182112, Note_on_c, 9, 44, 0
15, 182208, Note_on_c, 9, 44, 36
15, 182304, Note_on_c, 9, 44, 0
15, 182400, Note_on_c, 9, 44, 35
15, 182400, Note_on_c, 9, 51, 45
15, 182464, Note_on_c, 9, 51, 0
15, 182496, Note_on_c, 9, 44, 0
15, 182592, Note_on_c, 9, 44, 34
15, 182688, Note_on_c, 9, 44, 0
15, 182784, Note_on_c, 9, 51, 43
15, 182784, Note_on_c, 9, 44, 33
15, 182848, Note_on_c, 9, 51, 0
15, 182880, Note_on_c, 9, 44, 0
15, 182976, Note_on_c, 9, 44, 32
15, 183072, Note_on_c, 9, 44, 0
15, 183168, Note_on_c, 9, 51, 43
15, 183168, Note_on_c, 9, 44, 32
15, 183228, Note_on_c, 9, 51, 0
15, 183264, Note_on_c, 9, 44, 0
15, 183360, Note_on_c, 9, 44, 31
15, 183456, Note_on_c, 9, 44, 0
15, 183552, Note_on_c, 9, 51, 41
15, 183552, Note_on_c, 9, 44, 30
15, 183616, Note_on_c, 9, 51, 0
15, 183648, Note_on_c, 9, 44, 0
15, 183744, Note_on_c, 9, 44, 29
15, 183840, Note_on_c, 9, 44, 0
15, 183936, Note_on_c, 9, 44, 28
15, 183936, Note_on_c, 9, 51, 37
15, 184000, Note_on_c, 9, 51, 0
15, 184032, Note_on_c, 9, 44, 0
15, 184128, Note_on_c, 9, 44, 28
15, 184224, Note_on_c, 9, 44, 0
15, 184320, Note_on_c, 9, 51, 35
15, 184384, Note_on_c, 9, 51, 0
15, 184512, Note_on_c, 9, 44, 26
15, 184608, Note_on_c, 9, 44, 0
15, 184704, Note_on_c, 9, 51, 34
15, 184704, Note_on_c, 9, 44, 25
15, 184764, Note_on_c, 9, 51, 0
15, 184800, Note_on_c, 9, 44, 0
15, 184896, Note_on_c, 9, 44, 24
15, 184992, Note_on_c, 9, 44, 0
15, 185088, Note_on_c, 9, 51, 32
15, 185088, Note_on_c, 9, 44, 24
15, 185152, Note_on_c, 9, 51, 0
15, 185184, Note_on_c, 9, 44, 0
15, 185280, Note_on_c, 9, 44, 23
15, 185376, Note_on_c, 9, 44, 0
15, 185472, Note_on_c, 9, 44, 22
15, 185472, Note_on_c, 9, 51, 29
15, 185536, Note_on_c, 9, 51, 0
15, 185568, Note_on_c, 9, 44, 0
15, 185664, Note_on_c, 9, 44, 21
15, 185760, Note_on_c, 9, 44, 0
15, 185856, Note_on_c, 9, 51, 26
15, 185856, Note_on_c, 9, 44, 20
15, 185920, Note_on_c, 9, 51, 0
15, 185952, Note_on_c, 9, 44, 0
15, 186048, Note_on_c, 9, 44, 19
15, 186144, Note_on_c, 9, 44, 0
15, 186240, Note_on_c, 9, 51, 24
15, 186240, Note_on_c, 9, 44, 18
15, 186300, Note_on_c, 9, 51, 0
15, 186336, Note_on_c, 9, 44, 0
15, 186432, Note_on_c, 9, 44, 17
15, 186528, Note_on_c, 9, 44, 0
15, 186624, Note_on_c, 9, 51, 22
15, 186624, Note_on_c, 9, 44, 16
15, 186688, Note_on_c, 9, 51, 0
15, 186720, Note_on_c, 9, 44, 0
15, 186816, Note_on_c, 9, 44, 16
15, 186912, Note_on_c, 9, 44, 0
15, 187008, Note_on_c, 9, 44, 15
15, 187008, Note_on_c, 9, 51, 19
15, 187072, Note_on_c, 9, 51, 0
15, 187104, Note_on_c, 9, 44, 0
15, 187200, Note_on_c, 9, 44, 14
15, 187296, Note_on_c, 9, 44, 0
15, 187392, Note_on_c, 9, 51, 17
15, 187456, Note_on_c, 9, 51, 0
15, 187584, Note_on_c, 9, 44, 12
15, 187680, Note_on_c, 9, 44, 0
15, 187776, Note_on_c, 9, 51, 16
15, 187776, Note_on_c, 9, 44, 12
15, 187836, Note_on_c, 9, 51, 0
15, 187872, Note_on_c, 9, 44, 0
15, 187968, Note_on_c, 9, 44, 11
15, 188064, Note_on_c, 9, 44, 0
15, 188160, Note_on_c, 9, 51, 14
15, 188160, Note_on_c, 9, 44, 10
15, 188224, Note_on_c, 9, 51, 0
15, 188256, Note_on_c, 9, 44, 0
15, 188352, Note_on_c, 9, 44, 9
15, 188448, Note_on_c, 9, 44, 0
15, 188544, Note_on_c, 9, 44, 8
15, 188544, Note_on_c, 9, 51, 11
15, 188608, Note_on_c, 9, 51, 0
15, 188640, Note_on_c, 9, 44, 0
15, 188736, Note_on_c, 9, 44, 8
15, 188832, Note_on_c, 9, 44, 0
15, 188928, Note_on_c, 9, 51, 9
15, 188928, Note_on_c, 9, 44, 7
15, 188992, Note_on_c, 9, 51, 0
15, 189024, Note_on_c, 9, 44, 0
15, 189120, Note_on_c, 9, 44, 6
15, 189216, Note_on_c, 9, 44, 0
15, 189312, Note_on_c, 9, 51, 7
15, 189312, Note_on_c, 9, 44, 5
15, 189372, Note_on_c, 9, 51, 0
15, 189408, Note_on_c, 9, 44, 0
15, 189504, Note_on_c, 9, 44, 4
15, 189600, Note_on_c, 9, 44, 0
15, 189696, Note_on_c, 9, 51, 5
15, 189696, Note_on_c, 9, 44, 4
15, 189760, Note_on_c, 9, 51, 0
15, 189792, Note_on_c, 9, 44, 0
15, 189888, Note_on_c, 9, 44, 3
15, 189984, Note_on_c, 9, 44, 0
15, 190080, Note_on_c, 9, 44, 2
15, 190080, Note_on_c, 9, 51, 3
15, 190144, Note_on_c, 9, 51, 0
15, 190176, Note_on_c, 9, 44, 0
15, 190272, Note_on_c, 9, 44, 1
15, 190368, Note_on_c, 9, 44, 0
15, 190368, End_track
16, 0, Start_track
16, 0, MIDI_port, 0
16, 0, Title_t, "Toms"
16, 0, Program_c, 9, 0
16, 0, Control_c, 9, 7, 125
16, 0, Control_c, 9, 91, 40
16, 0, Control_c, 9, 93, 0
16, 0, Control_c, 9, 7, 100
16, 76224, Note_on_c, 9, 48, 96
16, 76276, Note_on_c, 9, 45, 80
16, 76308, Note_on_c, 9, 48, 0
16, 76332, Note_on_c, 9, 41, 80
16, 76348, Note_on_c, 9, 45, 0
16, 76404, Note_on_c, 9, 41, 0
16, 76416, Note_on_c, 9, 41, 80
16, 76444, Channel_aftertouch_c, 9, 56
16, 76452, Channel_aftertouch_c, 9, 30
16, 76464, Channel_aftertouch_c, 9, 0
16, 76560, Note_on_c, 9, 41, 0
16, 76608, Note_on_c, 9, 41, 104
16, 76628, Channel_aftertouch_c, 9, 53
16, 76640, Channel_aftertouch_c, 9, 64
16, 76656, Channel_aftertouch_c, 9, 51
16, 76668, Channel_aftertouch_c, 9, 34
16, 76676, Channel_aftertouch_c, 9, 23
16, 76688, Channel_aftertouch_c, 9, 20
16, 76696, Channel_aftertouch_c, 9, 17
16, 76708, Channel_aftertouch_c, 9, 3
16, 76716, Channel_aftertouch_c, 9, 0
16, 76736, Note_on_c, 9, 41, 0
16, 88512, Note_on_c, 9, 48, 96
16, 88568, Note_on_c, 9, 48, 0
16, 88704, Note_on_c, 9, 45, 122
16, 88764, Note_on_c, 9, 45, 0
16, 146880, Note_on_c, 9, 48, 96
16, 146936, Note_on_c, 9, 48, 0
16, 147072, Note_on_c, 9, 45, 122
16, 147132, Note_on_c, 9, 45, 0
16, 147132, End_track
17, 0, Start_track
17, 0, MIDI_port, 0
17, 0, Title_t, "Kick/Snare"
17, 0, Program_c, 9, 0
17, 0, Control_c, 9, 7, 125
17, 0, Control_c, 9, 91, 40
17, 0, Control_c, 9, 93, 0
17, 0, Control_c, 9, 7, 100
17, 3072, Note_on_c, 9, 36, 70
17, 3264, Note_on_c, 9, 36, 0
17, 3456, Note_on_c, 9, 38, 57
17, 3456, Note_on_c, 9, 40, 96
17, 3460, Channel_aftertouch_c, 9, 44
17, 3468, Note_on_c, 9, 38, 0
17, 3476, Channel_aftertouch_c, 9, 16
17, 3500, Channel_aftertouch_c, 9, 16
17, 3512, Channel_aftertouch_c, 9, 0
17, 3584, Note_on_c, 9, 40, 0
17, 3648, Note_on_c, 9, 36, 96
17, 3728, Note_on_c, 9, 36, 0
17, 3840, Note_on_c, 9, 36, 89
17, 3868, Channel_aftertouch_c, 9, 7
17, 3880, Channel_aftertouch_c, 9, 0
17, 4016, Note_on_c, 9, 36, 0
17, 4224, Note_on_c, 9, 40, 104
17, 4240, Channel_aftertouch_c, 9, 34
17, 4252, Channel_aftertouch_c, 9, 30
17, 4264, Channel_aftertouch_c, 9, 21
17, 4276, Channel_aftertouch_c, 9, 0
17, 4416, Note_on_c, 9, 40, 0
17, 4608, Note_on_c, 9, 36, 70
17, 4792, Note_on_c, 9, 36, 0
17, 4992, Note_on_c, 9, 38, 57
17, 4992, Note_on_c, 9, 40, 96
17, 4996, Channel_aftertouch_c, 9, 44
17, 5004, Note_on_c, 9, 38, 0
17, 5012, Channel_aftertouch_c, 9, 16
17, 5036, Channel_aftertouch_c, 9, 16
17, 5048, Channel_aftertouch_c, 9, 0
17, 5120, Note_on_c, 9, 40, 0
17, 5184, Note_on_c, 9, 36, 96
17, 5264, Note_on_c, 9, 36, 0
17, 5376, Note_on_c, 9, 36, 89
17, 5404, Channel_aftertouch_c, 9, 7
17, 5416, Channel_aftertouch_c, 9, 0
17, 5552, Note_on_c, 9, 36, 0
17, 5760, Note_on_c, 9, 40, 104
17, 5776, Channel_aftertouch_c, 9, 34
17, 5788, Channel_aftertouch_c, 9, 30
17, 5800, Channel_aftertouch_c, 9, 21
17, 5812, Channel_aftertouch_c, 9, 0
17, 5952, Note_on_c, 9, 40, 0
17, 6144, Note_on_c, 9, 36, 70
17, 6328, Note_on_c, 9, 36, 0
17, 6528, Note_on_c, 9, 38, 57
17, 6528, Note_on_c, 9, 40, 96
17, 6532, Channel_aftertouch_c, 9, 44
17, 6540, Note_on_c, 9, 38, 0
17, 6548, Channel_aftertouch_c, 9, 16
17, 6572, Channel_aftertouch_c, 9, 16
17, 6584, Channel_aftertouch_c, 9, 0
17, 6656, Note_on_c, 9, 40, 0
17, 6720, Note_on_c, 9, 36, 96
17, 6800, Note_on_c, 9, 36, 0
17, 6912, Note_on_c, 9, 36, 89
17, 6940, Channel_aftertouch_c, 9, 7
17, 6952, Channel_aftertouch_c, 9, 0
17, 7088, Note_on_c, 9, 36, 0
17, 7296, Note_on_c, 9, 40, 104
17, 7312, Channel_aftertouch_c, 9, 34
17, 7324, Channel_aftertouch_c, 9, 30
17, 7336, Channel_aftertouch_c, 9, 21
17, 7348, Channel_aftertouch_c, 9, 0
17, 7488, Note_on_c, 9, 40, 0
17, 7680, Note_on_c, 9, 36, 70
17, 7864, Note_on_c, 9, 36, 0
17, 8064, Note_on_c, 9, 38, 57
17, 8064, Note_on_c, 9, 40, 96
17, 8068, Channel_aftertouch_c, 9, 44
17, 8076, Note_on_c, 9, 38, 0
17, 8084, Channel_aftertouch_c, 9, 16
17, 8108, Channel_aftertouch_c, 9, 16
17, 8120, Channel_aftertouch_c, 9, 0
17, 8192, Note_on_c, 9, 40, 0
17, 8256, Note_on_c, 9, 36, 96
17, 8336, Note_on_c, 9, 36, 0
17, 8448, Note_on_c, 9, 36, 89
17, 8476, Channel_aftertouch_c, 9, 7
17, 8488, Channel_aftertouch_c, 9, 0
17, 8624, Note_on_c, 9, 36, 0
17, 8832, Note_on_c, 9, 40, 104
17, 8848, Channel_aftertouch_c, 9, 34
17, 8860, Channel_aftertouch_c, 9, 30
17, 8872, Channel_aftertouch_c, 9, 21
17, 8884, Channel_aftertouch_c, 9, 0
17, 9024, Note_on_c, 9, 40, 0
17, 9216, Note_on_c, 9, 36, 70
17, 9400, Note_on_c, 9, 36, 0
17, 9600, Note_on_c, 9, 38, 57
17, 9600, Note_on_c, 9, 40, 96
17, 9604, Channel_aftertouch_c, 9, 44
17, 9612, Note_on_c, 9, 38, 0
17, 9620, Channel_aftertouch_c, 9, 16
17, 9644, Channel_aftertouch_c, 9, 16
17, 9656, Channel_aftertouch_c, 9, 0
17, 9728, Note_on_c, 9, 40, 0
17, 9792, Note_on_c, 9, 36, 96
17, 9872, Note_on_c, 9, 36, 0
17, 9984, Note_on_c, 9, 36, 89
17, 10012, Channel_aftertouch_c, 9, 7
17, 10024, Channel_aftertouch_c, 9, 0
17, 10160, Note_on_c, 9, 36, 0
17, 10368, Note_on_c, 9, 40, 104
17, 10384, Channel_aftertouch_c, 9, 34
17, 10396, Channel_aftertouch_c, 9, 30
17, 10408, Channel_aftertouch_c, 9, 21
17, 10420, Channel_aftertouch_c, 9, 0
17, 10560, Note_on_c, 9, 40, 0
17, 10752, Note_on_c, 9, 36, 70
17, 10936, Note_on_c, 9, 36, 0
17, 11136, Note_on_c, 9, 38, 57
17, 11136, Note_on_c, 9, 40, 96
17, 11140, Channel_aftertouch_c, 9, 44
17, 11148, Note_on_c, 9, 38, 0
17, 11156, Channel_aftertouch_c, 9, 16
17, 11180, Channel_aftertouch_c, 9, 16
17, 11192, Channel_aftertouch_c, 9, 0
17, 11264, Note_on_c, 9, 40, 0
17, 11328, Note_on_c, 9, 36, 96
17, 11408, Note_on_c, 9, 36, 0
17, 11520, Note_on_c, 9, 36, 89
17, 11548, Channel_aftertouch_c, 9, 7
17, 11560, Channel_aftertouch_c, 9, 0
17, 11696, Note_on_c, 9, 36, 0
17, 11904, Note_on_c, 9, 40, 104
17, 11920, Channel_aftertouch_c, 9, 34
17, 11932, Channel_aftertouch_c, 9, 30
17, 11944, Channel_aftertouch_c, 9, 21
17, 11956, Channel_aftertouch_c, 9, 0
17, 12096, Note_on_c, 9, 40, 0
17, 12288, Note_on_c, 9, 36, 70
17, 12472, Note_on_c, 9, 36, 0
17, 12672, Note_on_c, 9, 38, 57
17, 12672, Note_on_c, 9, 40, 96
17, 12676, Channel_aftertouch_c, 9, 44
17, 12684, Note_on_c, 9, 38, 0
17, 12692, Channel_aftertouch_c, 9, 16
17, 12716, Channel_aftertouch_c, 9, 16
17, 12728, Channel_aftertouch_c, 9, 0
17, 12800, Note_on_c, 9, 40, 0
17, 12864, Note_on_c, 9, 36, 96
17, 12944, Note_on_c, 9, 36, 0
17, 13056, Note_on_c, 9, 36, 89
17, 13084, Channel_aftertouch_c, 9, 7
17, 13096, Channel_aftertouch_c, 9, 0
17, 13232, Note_on_c, 9, 36, 0
17, 13440, Note_on_c, 9, 40, 104
17, 13456, Channel_aftertouch_c, 9, 34
17, 13468, Channel_aftertouch_c, 9, 30
17, 13480, Channel_aftertouch_c, 9, 21
17, 13492, Channel_aftertouch_c, 9, 0
17, 13632, Note_on_c, 9, 40, 0
17, 13824, Note_on_c, 9, 36, 70
17, 14008, Note_on_c, 9, 36, 0
17, 14208, Note_on_c, 9, 38, 57
17, 14208, Note_on_c, 9, 40, 96
17, 14212, Channel_aftertouch_c, 9, 44
17, 14220, Note_on_c, 9, 38, 0
17, 14228, Channel_aftertouch_c, 9, 16
17, 14252, Channel_aftertouch_c, 9, 16
17, 14264, Channel_aftertouch_c, 9, 0
17, 14336, Note_on_c, 9, 40, 0
17, 14592, Note_on_c, 9, 36, 89
17, 14620, Channel_aftertouch_c, 9, 7
17, 14632, Channel_aftertouch_c, 9, 0
17, 14768, Note_on_c, 9, 36, 0
17, 14784, Note_on_c, 9, 36, 89
17, 14960, Note_on_c, 9, 36, 0
17, 14976, Note_on_c, 9, 40, 104
17, 14992, Channel_aftertouch_c, 9, 34
17, 15004, Channel_aftertouch_c, 9, 30
17, 15016, Channel_aftertouch_c, 9, 21
17, 15028, Channel_aftertouch_c, 9, 0
17, 15168, Note_on_c, 9, 40, 0
17, 15360, Note_on_c, 9, 36, 70
17, 15552, Note_on_c, 9, 36, 0
17, 15744, Note_on_c, 9, 38, 57
17, 15744, Note_on_c, 9, 40, 96
17, 15748, Channel_aftertouch_c, 9, 44
17, 15756, Note_on_c, 9, 38, 0
17, 15764, Channel_aftertouch_c, 9, 16
17, 15788, Channel_aftertouch_c, 9, 16
17, 15800, Channel_aftertouch_c, 9, 0
17, 15872, Note_on_c, 9, 40, 0
17, 15936, Note_on_c, 9, 36, 96
17, 16016, Note_on_c, 9, 36, 0
17, 16128, Note_on_c, 9, 36, 89
17, 16156, Channel_aftertouch_c, 9, 7
17, 16168, Channel_aftertouch_c, 9, 0
17, 16304, Note_on_c, 9, 36, 0
17, 16512, Note_on_c, 9, 40, 104
17, 16528, Channel_aftertouch_c, 9, 34
17, 16540, Channel_aftertouch_c, 9, 30
17, 16552, Channel_aftertouch_c, 9, 21
17, 16564, Channel_aftertouch_c, 9, 0
17, 16704, Note_on_c, 9, 40, 0
17, 16896, Note_on_c, 9, 36, 70
17, 17080, Note_on_c, 9, 36, 0
17, 17280, Note_on_c, 9, 38, 57
17, 17280, Note_on_c, 9, 40, 96
17, 17284, Channel_aftertouch_c, 9, 44
17, 17292, Note_on_c, 9, 38, 0
17, 17300, Channel_aftertouch_c, 9, 16
17, 17324, Channel_aftertouch_c, 9, 16
17, 17336, Channel_aftertouch_c, 9, 0
17, 17408, Note_on_c, 9, 40, 0
17, 17472, Note_on_c, 9, 36, 96
17, 17552, Note_on_c, 9, 36, 0
17, 17664, Note_on_c, 9, 36, 89
17, 17692, Channel_aftertouch_c, 9, 7
17, 17704, Channel_aftertouch_c, 9, 0
17, 17840, Note_on_c, 9, 36, 0
17, 18048, Note_on_c, 9, 40, 104
17, 18064, Channel_aftertouch_c, 9, 34
17, 18076, Channel_aftertouch_c, 9, 30
17, 18088, Channel_aftertouch_c, 9, 21
17, 18100, Channel_aftertouch_c, 9, 0
17, 18240, Note_on_c, 9, 40, 0
17, 18432, Note_on_c, 9, 40, 104
17, 18448, Channel_aftertouch_c, 9, 41
17, 18456, Channel_aftertouch_c, 9, 25
17, 18468, Channel_aftertouch_c, 9, 7
17, 18480, Channel_aftertouch_c, 9, 0
17, 18548, Note_on_c, 9, 40, 0
17, 18808, Note_on_c, 9, 40, 104
17, 18824, Channel_aftertouch_c, 9, 17
17, 18836, Channel_aftertouch_c, 9, 20
17, 18852, Channel_aftertouch_c, 9, 0
17, 18900, Note_on_c, 9, 40, 0
17, 19012, Note_on_c, 9, 36, 100
17, 19016, Channel_aftertouch_c, 9, 39
17, 19024, Channel_aftertouch_c, 9, 0
17, 19064, Note_on_c, 9, 36, 0
17, 19204, Note_on_c, 9, 36, 113
17, 19208, Channel_aftertouch_c, 9, 96
17, 19216, Channel_aftertouch_c, 9, 0
17, 19328, Note_on_c, 9, 36, 0
17, 19568, Note_on_c, 9, 40, 108
17, 19568, Channel_aftertouch_c, 9, 101
17, 19584, Channel_aftertouch_c, 9, 6
17, 19592, Channel_aftertouch_c, 9, 28
17, 19604, Channel_aftertouch_c, 9, 0
17, 19640, Note_on_c, 9, 40, 0
17, 19968, Note_on_c, 9, 36, 70
17, 20160, Note_on_c, 9, 36, 0
17, 20352, Note_on_c, 9, 38, 57
17, 20352, Note_on_c, 9, 40, 96
17, 20356, Channel_aftertouch_c, 9, 44
17, 20364, Note_on_c, 9, 38, 0
17, 20372, Channel_aftertouch_c, 9, 16
17, 20396, Channel_aftertouch_c, 9, 16
17, 20408, Channel_aftertouch_c, 9, 0
17, 20480, Note_on_c, 9, 40, 0
17, 20544, Note_on_c, 9, 36, 96
17, 20624, Note_on_c, 9, 36, 0
17, 20736, Note_on_c, 9, 36, 89
17, 20764, Channel_aftertouch_c, 9, 7
17, 20776, Channel_aftertouch_c, 9, 0
17, 20912, Note_on_c, 9, 36, 0
17, 21120, Note_on_c, 9, 40, 104
17, 21136, Channel_aftertouch_c, 9, 34
17, 21148, Channel_aftertouch_c, 9, 30
17, 21160, Channel_aftertouch_c, 9, 21
17, 21172, Channel_aftertouch_c, 9, 0
17, 21312, Note_on_c, 9, 40, 0
17, 21504, Note_on_c, 9, 36, 70
17, 21696, Note_on_c, 9, 36, 0
17, 21888, Note_on_c, 9, 38, 57
17, 21888, Note_on_c, 9, 40, 96
17, 21892, Channel_aftertouch_c, 9, 44
17, 21900, Note_on_c, 9, 38, 0
17, 21908, Channel_aftertouch_c, 9, 16
17, 21932, Channel_aftertouch_c, 9, 16
17, 21944, Channel_aftertouch_c, 9, 0
17, 22016, Note_on_c, 9, 40, 0
17, 22080, Note_on_c, 9, 36, 96
17, 22160, Note_on_c, 9, 36, 0
17, 22272, Note_on_c, 9, 36, 89
17, 22300, Channel_aftertouch_c, 9, 7
17, 22312, Channel_aftertouch_c, 9, 0
17, 22448, Note_on_c, 9, 36, 0
17, 22656, Note_on_c, 9, 40, 104
17, 22672, Channel_aftertouch_c, 9, 34
17, 22684, Channel_aftertouch_c, 9, 30
17, 22696, Channel_aftertouch_c, 9, 21
17, 22708, Channel_aftertouch_c, 9, 0
17, 22848, Note_on_c, 9, 40, 0
17, 23040, Note_on_c, 9, 36, 70
17, 23224, Note_on_c, 9, 36, 0
17, 23424, Note_on_c, 9, 38, 57
17, 23424, Note_on_c, 9, 40, 96
17, 23428, Channel_aftertouch_c, 9, 44
17, 23436, Note_on_c, 9, 38, 0
17, 23444, Channel_aftertouch_c, 9, 16
17, 23468, Channel_aftertouch_c, 9, 16
17, 23480, Channel_aftertouch_c, 9, 0
17, 23552, Note_on_c, 9, 40, 0
17, 23616, Note_on_c, 9, 36, 96
17, 23696, Note_on_c, 9, 36, 0
17, 23808, Note_on_c, 9, 36, 89
17, 23836, Channel_aftertouch_c, 9, 7
17, 23848, Channel_aftertouch_c, 9, 0
17, 23984, Note_on_c, 9, 36, 0
17, 24192, Note_on_c, 9, 40, 104
17, 24208, Channel_aftertouch_c, 9, 34
17, 24220, Channel_aftertouch_c, 9, 30
17, 24232, Channel_aftertouch_c, 9, 21
17, 24244, Channel_aftertouch_c, 9, 0
17, 24384, Note_on_c, 9, 40, 0
17, 24576, Note_on_c, 9, 40, 104
17, 24592, Channel_aftertouch_c, 9, 41
17, 24600, Channel_aftertouch_c, 9, 25
17, 24612, Channel_aftertouch_c, 9, 7
17, 24624, Channel_aftertouch_c, 9, 0
17, 24692, Note_on_c, 9, 40, 0
17, 24952, Note_on_c, 9, 40, 104
17, 24968, Channel_aftertouch_c, 9, 17
17, 24980, Channel_aftertouch_c, 9, 20
17, 24996, Channel_aftertouch_c, 9, 0
17, 25044, Note_on_c, 9, 40, 0
17, 25156, Note_on_c, 9, 36, 100
17, 25160, Channel_aftertouch_c, 9, 39
17, 25168, Channel_aftertouch_c, 9, 0
17, 25208, Note_on_c, 9, 36, 0
17, 25348, Note_on_c, 9, 36, 113
17, 25352, Channel_aftertouch_c, 9, 96
17, 25360, Channel_aftertouch_c, 9, 0
17, 25472, Note_on_c, 9, 36, 0
17, 25712, Note_on_c, 9, 40, 108
17, 25712, Channel_aftertouch_c, 9, 101
17, 25728, Channel_aftertouch_c, 9, 6
17, 25736, Channel_aftertouch_c, 9, 28
17, 25748, Channel_aftertouch_c, 9, 0
17, 25784, Note_on_c, 9, 40, 0
17, 26112, Note_on_c, 9, 36, 70
17, 26304, Note_on_c, 9, 36, 0
17, 26496, Note_on_c, 9, 38, 57
17, 26496, Note_on_c, 9, 40, 96
17, 26500, Channel_aftertouch_c, 9, 44
17, 26508, Note_on_c, 9, 38, 0
17, 26516, Channel_aftertouch_c, 9, 16
17, 26540, Channel_aftertouch_c, 9, 16
17, 26552, Channel_aftertouch_c, 9, 0
17, 26624, Note_on_c, 9, 40, 0
17, 26688, Note_on_c, 9, 36, 96
17, 26768, Note_on_c, 9, 36, 0
17, 26880, Note_on_c, 9, 36, 89
17, 26908, Channel_aftertouch_c, 9, 7
17, 26920, Channel_aftertouch_c, 9, 0
17, 27056, Note_on_c, 9, 36, 0
17, 27264, Note_on_c, 9, 40, 104
17, 27280, Channel_aftertouch_c, 9, 34
17, 27292, Channel_aftertouch_c, 9, 30
17, 27304, Channel_aftertouch_c, 9, 21
17, 27316, Channel_aftertouch_c, 9, 0
17, 27456, Note_on_c, 9, 40, 0
17, 27648, Note_on_c, 9, 36, 70
17, 27840, Note_on_c, 9, 36, 0
17, 28032, Note_on_c, 9, 38, 57
17, 28032, Note_on_c, 9, 40, 96
17, 28036, Channel_aftertouch_c, 9, 44
17, 28044, Note_on_c, 9, 38, 0
17, 28052, Channel_aftertouch_c, 9, 16
17, 28076, Channel_aftertouch_c, 9, 16
17, 28088, Channel_aftertouch_c, 9, 0
17, 28160, Note_on_c, 9, 40, 0
17, 28224, Note_on_c, 9, 36, 96
17, 28304, Note_on_c, 9, 36, 0
17, 28416, Note_on_c, 9, 36, 89
17, 28444, Channel_aftertouch_c, 9, 7
17, 28456, Channel_aftertouch_c, 9, 0
17, 28592, Note_on_c, 9, 36, 0
17, 28800, Note_on_c, 9, 40, 104
17, 28816, Channel_aftertouch_c, 9, 34
17, 28828, Channel_aftertouch_c, 9, 30
17, 28840, Channel_aftertouch_c, 9, 21
17, 28852, Channel_aftertouch_c, 9, 0
17, 28992, Note_on_c, 9, 40, 0
17, 29184, Note_on_c, 9, 36, 70
17, 29368, Note_on_c, 9, 36, 0
17, 29568, Note_on_c, 9, 38, 57
17, 29568, Note_on_c, 9, 40, 96
17, 29572, Channel_aftertouch_c, 9, 44
17, 29580, Note_on_c, 9, 38, 0
17, 29588, Channel_aftertouch_c, 9, 16
17, 29612, Channel_aftertouch_c, 9, 16
17, 29624, Channel_aftertouch_c, 9, 0
17, 29696, Note_on_c, 9, 40, 0
17, 29760, Note_on_c, 9, 36, 96
17, 29840, Note_on_c, 9, 36, 0
17, 29952, Note_on_c, 9, 36, 89
17, 29980, Channel_aftertouch_c, 9, 7
17, 29992, Channel_aftertouch_c, 9, 0
17, 30128, Note_on_c, 9, 36, 0
17, 30336, Note_on_c, 9, 40, 104
17, 30352, Channel_aftertouch_c, 9, 34
17, 30364, Channel_aftertouch_c, 9, 30
17, 30376, Channel_aftertouch_c, 9, 21
17, 30388, Channel_aftertouch_c, 9, 0
17, 30528, Note_on_c, 9, 40, 0
17, 30720, Note_on_c, 9, 40, 104
17, 30736, Channel_aftertouch_c, 9, 41
17, 30744, Channel_aftertouch_c, 9, 25
17, 30756, Channel_aftertouch_c, 9, 7
17, 30768, Channel_aftertouch_c, 9, 0
17, 30836, Note_on_c, 9, 40, 0
17, 31096, Note_on_c, 9, 40, 104
17, 31112, Channel_aftertouch_c, 9, 17
17, 31124, Channel_aftertouch_c, 9, 20
17, 31140, Channel_aftertouch_c, 9, 0
17, 31188, Note_on_c, 9, 40, 0
17, 31300, Note_on_c, 9, 36, 100
17, 31304, Channel_aftertouch_c, 9, 39
17, 31312, Channel_aftertouch_c, 9, 0
17, 31352, Note_on_c, 9, 36, 0
17, 31492, Note_on_c, 9, 36, 113
17, 31496, Channel_aftertouch_c, 9, 96
17, 31504, Channel_aftertouch_c, 9, 0
17, 31616, Note_on_c, 9, 36, 0
17, 31856, Note_on_c, 9, 40, 108
17, 31856, Channel_aftertouch_c, 9, 101
17, 31872, Channel_aftertouch_c, 9, 6
17, 31880, Channel_aftertouch_c, 9, 28
17, 31892, Channel_aftertouch_c, 9, 0
17, 31928, Note_on_c, 9, 40, 0
17, 32256, Note_on_c, 9, 36, 70
17, 32448, Note_on_c, 9, 36, 0
17, 32640, Note_on_c, 9, 38, 57
17, 32640, Note_on_c, 9, 40, 96
17, 32644, Channel_aftertouch_c, 9, 44
17, 32652, Note_on_c, 9, 38, 0
17, 32660, Channel_aftertouch_c, 9, 16
17, 32684, Channel_aftertouch_c, 9, 16
17, 32696, Channel_aftertouch_c, 9, 0
17, 32768, Note_on_c, 9, 40, 0
17, 32832, Note_on_c, 9, 36, 96
17, 32912, Note_on_c, 9, 36, 0
17, 33024, Note_on_c, 9, 36, 89
17, 33052, Channel_aftertouch_c, 9, 7
17, 33064, Channel_aftertouch_c, 9, 0
17, 33200, Note_on_c, 9, 36, 0
17, 33408, Note_on_c, 9, 40, 104
17, 33424, Channel_aftertouch_c, 9, 34
17, 33436, Channel_aftertouch_c, 9, 30
17, 33448, Channel_aftertouch_c, 9, 21
17, 33460, Channel_aftertouch_c, 9, 0
17, 33600, Note_on_c, 9, 40, 0
17, 33792, Note_on_c, 9, 36, 70
17, 33984, Note_on_c, 9, 36, 0
17, 34176, Note_on_c, 9, 38, 57
17, 34176, Note_on_c, 9, 40, 96
17, 34180, Channel_aftertouch_c, 9, 44
17, 34188, Note_on_c, 9, 38, 0
17, 34196, Channel_aftertouch_c, 9, 16
17, 34220, Channel_aftertouch_c, 9, 16
17, 34232, Channel_aftertouch_c, 9, 0
17, 34304, Note_on_c, 9, 40, 0
17, 34368, Note_on_c, 9, 36, 96
17, 34448, Note_on_c, 9, 36, 0
17, 34560, Note_on_c, 9, 36, 89
17, 34588, Channel_aftertouch_c, 9, 7
17, 34600, Channel_aftertouch_c, 9, 0
17, 34736, Note_on_c, 9, 36, 0
17, 34944, Note_on_c, 9, 40, 104
17, 34960, Channel_aftertouch_c, 9, 34
17, 34972, Channel_aftertouch_c, 9, 30
17, 34984, Channel_aftertouch_c, 9, 21
17, 34996, Channel_aftertouch_c, 9, 0
17, 35136, Note_on_c, 9, 40, 0
17, 35328, Note_on_c, 9, 36, 70
17, 35512, Note_on_c, 9, 36, 0
17, 35712, Note_on_c, 9, 38, 57
17, 35712, Note_on_c, 9, 40, 96
17, 35716, Channel_aftertouch_c, 9, 44
17, 35724, Note_on_c, 9, 38, 0
17, 35732, Channel_aftertouch_c, 9, 16
17, 35756, Channel_aftertouch_c, 9, 16
17, 35768, Channel_aftertouch_c, 9, 0
17, 35840, Note_on_c, 9, 40, 0
17, 35904, Note_on_c, 9, 36, 96
17, 35984, Note_on_c, 9, 36, 0
17, 36096, Note_on_c, 9, 36, 89
17, 36124, Channel_aftertouch_c, 9, 7
17, 36136, Channel_aftertouch_c, 9, 0
17, 36272, Note_on_c, 9, 36, 0
17, 36480, Note_on_c, 9, 40, 104
17, 36496, Channel_aftertouch_c, 9, 34
17, 36508, Channel_aftertouch_c, 9, 30
17, 36520, Channel_aftertouch_c, 9, 21
17, 36532, Channel_aftertouch_c, 9, 0
17, 36672, Note_on_c, 9, 40, 0
17, 36864, Note_on_c, 9, 40, 104
17, 36880, Channel_aftertouch_c, 9, 41
17, 36888, Channel_aftertouch_c, 9, 25
17, 36900, Channel_aftertouch_c, 9, 7
17, 36912, Channel_aftertouch_c, 9, 0
17, 36980, Note_on_c, 9, 40, 0
17, 37240, Note_on_c, 9, 40, 104
17, 37256, Channel_aftertouch_c, 9, 17
17, 37268, Channel_aftertouch_c, 9, 20
17, 37284, Channel_aftertouch_c, 9, 0
17, 37332, Note_on_c, 9, 40, 0
17, 37444, Note_on_c, 9, 36, 100
17, 37448, Channel_aftertouch_c, 9, 39
17, 37456, Channel_aftertouch_c, 9, 0
17, 37496, Note_on_c, 9, 36, 0
17, 37636, Note_on_c, 9, 36, 113
17, 37640, Channel_aftertouch_c, 9, 96
17, 37648, Channel_aftertouch_c, 9, 0
17, 37760, Note_on_c, 9, 36, 0
17, 38000, Note_on_c, 9, 40, 108
17, 38000, Channel_aftertouch_c, 9, 101
17, 38016, Channel_aftertouch_c, 9, 6
17, 38024, Channel_aftertouch_c, 9, 28
17, 38036, Channel_aftertouch_c, 9, 0
17, 38072, Note_on_c, 9, 40, 0
17, 38400, Note_on_c, 9, 36, 70
17, 38592, Note_on_c, 9, 36, 0
17, 38784, Note_on_c, 9, 38, 57
17, 38784, Note_on_c, 9, 40, 96
17, 38788, Channel_aftertouch_c, 9, 44
17, 38796, Note_on_c, 9, 38, 0
17, 38804, Channel_aftertouch_c, 9, 16
17, 38828, Channel_aftertouch_c, 9, 16
17, 38840, Channel_aftertouch_c, 9, 0
17, 38912, Note_on_c, 9, 40, 0
17, 38976, Note_on_c, 9, 36, 96
17, 39056, Note_on_c, 9, 36, 0
17, 39168, Note_on_c, 9, 36, 89
17, 39196, Channel_aftertouch_c, 9, 7
17, 39208, Channel_aftertouch_c, 9, 0
17, 39344, Note_on_c, 9, 36, 0
17, 39552, Note_on_c, 9, 40, 104
17, 39568, Channel_aftertouch_c, 9, 34
17, 39580, Channel_aftertouch_c, 9, 30
17, 39592, Channel_aftertouch_c, 9, 21
17, 39604, Channel_aftertouch_c, 9, 0
17, 39744, Note_on_c, 9, 40, 0
17, 39744, Note_on_c, 9, 36, 80
17, 39936, Note_on_c, 9, 36, 0
17, 39936, Note_on_c, 9, 36, 70
17, 40128, Note_on_c, 9, 36, 0
17, 40320, Note_on_c, 9, 38, 57
17, 40320, Note_on_c, 9, 40, 96
17, 40324, Channel_aftertouch_c, 9, 44
17, 40332, Note_on_c, 9, 38, 0
17, 40340, Channel_aftertouch_c, 9, 16
17, 40364, Channel_aftertouch_c, 9, 16
17, 40376, Channel_aftertouch_c, 9, 0
17, 40448, Note_on_c, 9, 40, 0
17, 40512, Note_on_c, 9, 36, 96
17, 40592, Note_on_c, 9, 36, 0
17, 40704, Note_on_c, 9, 36, 89
17, 40732, Channel_aftertouch_c, 9, 7
17, 40744, Channel_aftertouch_c, 9, 0
17, 40880, Note_on_c, 9, 36, 0
17, 41088, Note_on_c, 9, 40, 104
17, 41104, Channel_aftertouch_c, 9, 34
17, 41116, Channel_aftertouch_c, 9, 30
17, 41128, Channel_aftertouch_c, 9, 21
17, 41140, Channel_aftertouch_c, 9, 0
17, 41280, Note_on_c, 9, 40, 0
17, 41472, Note_on_c, 9, 36, 70
17, 41664, Note_on_c, 9, 36, 0
17, 41856, Note_on_c, 9, 38, 57
17, 41856, Note_on_c, 9, 40, 96
17, 41860, Channel_aftertouch_c, 9, 44
17, 41868, Note_on_c, 9, 38, 0
17, 41876, Channel_aftertouch_c, 9, 16
17, 41900, Channel_aftertouch_c, 9, 16
17, 41912, Channel_aftertouch_c, 9, 0
17, 41984, Note_on_c, 9, 40, 0
17, 42048, Note_on_c, 9, 36, 96
17, 42128, Note_on_c, 9, 36, 0
17, 42240, Note_on_c, 9, 36, 89
17, 42268, Channel_aftertouch_c, 9, 7
17, 42280, Channel_aftertouch_c, 9, 0
17, 42416, Note_on_c, 9, 36, 0
17, 42624, Note_on_c, 9, 40, 104
17, 42640, Channel_aftertouch_c, 9, 34
17, 42652, Channel_aftertouch_c, 9, 30
17, 42664, Channel_aftertouch_c, 9, 21
17, 42676, Channel_aftertouch_c, 9, 0
17, 42816, Note_on_c, 9, 40, 0
17, 43008, Note_on_c, 9, 36, 70
17, 43200, Note_on_c, 9, 36, 0
17, 43392, Note_on_c, 9, 38, 57
17, 43392, Note_on_c, 9, 40, 96
17, 43396, Channel_aftertouch_c, 9, 44
17, 43404, Note_on_c, 9, 38, 0
17, 43412, Channel_aftertouch_c, 9, 16
17, 43436, Channel_aftertouch_c, 9, 16
17, 43448, Channel_aftertouch_c, 9, 0
17, 43520, Note_on_c, 9, 40, 0
17, 43584, Note_on_c, 9, 36, 96
17, 43664, Note_on_c, 9, 36, 0
17, 43776, Note_on_c, 9, 36, 89
17, 43804, Channel_aftertouch_c, 9, 7
17, 43816, Channel_aftertouch_c, 9, 0
17, 43952, Note_on_c, 9, 36, 0
17, 44160, Note_on_c, 9, 40, 104
17, 44176, Channel_aftertouch_c, 9, 34
17, 44188, Channel_aftertouch_c, 9, 30
17, 44200, Channel_aftertouch_c, 9, 21
17, 44212, Channel_aftertouch_c, 9, 0
17, 44352, Note_on_c, 9, 40, 0
17, 44544, Note_on_c, 9, 36, 70
17, 44736, Note_on_c, 9, 36, 0
17, 44928, Note_on_c, 9, 38, 57
17, 44928, Note_on_c, 9, 40, 96
17, 44932, Channel_aftertouch_c, 9, 44
17, 44940, Note_on_c, 9, 38, 0
17, 44948, Channel_aftertouch_c, 9, 16
17, 44972, Channel_aftertouch_c, 9, 16
17, 44984, Channel_aftertouch_c, 9, 0
17, 45056, Note_on_c, 9, 40, 0
17, 45120, Note_on_c, 9, 36, 96
17, 45200, Note_on_c, 9, 36, 0
17, 45312, Note_on_c, 9, 36, 89
17, 45340, Channel_aftertouch_c, 9, 7
17, 45352, Channel_aftertouch_c, 9, 0
17, 45488, Note_on_c, 9, 36, 0
17, 45696, Note_on_c, 9, 40, 104
17, 45712, Channel_aftertouch_c, 9, 34
17, 45724, Channel_aftertouch_c, 9, 30
17, 45736, Channel_aftertouch_c, 9, 21
17, 45748, Channel_aftertouch_c, 9, 0
17, 45888, Note_on_c, 9, 40, 0
17, 46080, Note_on_c, 9, 36, 70
17, 46272, Note_on_c, 9, 36, 0
17, 46464, Note_on_c, 9, 38, 57
17, 46464, Note_on_c, 9, 40, 96
17, 46468, Channel_aftertouch_c, 9, 44
17, 46476, Note_on_c, 9, 38, 0
17, 46484, Channel_aftertouch_c, 9, 16
17, 46508, Channel_aftertouch_c, 9, 16
17, 46520, Channel_aftertouch_c, 9, 0
17, 46592, Note_on_c, 9, 40, 0
17, 46656, Note_on_c, 9, 36, 96
17, 46736, Note_on_c, 9, 36, 0
17, 46848, Note_on_c, 9, 36, 89
17, 46876, Channel_aftertouch_c, 9, 7
17, 46888, Channel_aftertouch_c, 9, 0
17, 47024, Note_on_c, 9, 36, 0
17, 47232, Note_on_c, 9, 40, 104
17, 47248, Channel_aftertouch_c, 9, 34
17, 47260, Channel_aftertouch_c, 9, 30
17, 47272, Channel_aftertouch_c, 9, 21
17, 47284, Channel_aftertouch_c, 9, 0
17, 47424, Note_on_c, 9, 40, 0
17, 47616, Note_on_c, 9, 36, 108
17, 47836, Note_on_c, 9, 36, 0
17, 47992, Note_on_c, 9, 40, 108
17, 48084, Note_on_c, 9, 40, 0
17, 48192, Note_on_c, 9, 36, 96
17, 48252, Note_on_c, 9, 36, 0
17, 48380, Note_on_c, 9, 36, 104
17, 48472, Note_on_c, 9, 36, 0
17, 48572, Note_on_c, 9, 40, 108
17, 48576, Channel_aftertouch_c, 9, 121
17, 48584, Channel_aftertouch_c, 9, 0
17, 48596, Channel_aftertouch_c, 9, 3
17, 48608, Channel_aftertouch_c, 9, 0
17, 48748, Note_on_c, 9, 40, 0
17, 48940, Note_on_c, 9, 36, 104
17, 48992, Note_on_c, 9, 36, 0
17, 49152, Note_on_c, 9, 36, 70
17, 49344, Note_on_c, 9, 36, 0
17, 49536, Note_on_c, 9, 38, 57
17, 49536, Note_on_c, 9, 40, 96
17, 49540, Channel_aftertouch_c, 9, 44
17, 49548, Note_on_c, 9, 38, 0
17, 49556, Channel_aftertouch_c, 9, 16
17, 49580, Channel_aftertouch_c, 9, 16
17, 49592, Channel_aftertouch_c, 9, 0
17, 49664, Note_on_c, 9, 40, 0
17, 49728, Note_on_c, 9, 36, 96
17, 49808, Note_on_c, 9, 36, 0
17, 49920, Note_on_c, 9, 36, 89
17, 49948, Channel_aftertouch_c, 9, 7
17, 49960, Channel_aftertouch_c, 9, 0
17, 50096, Note_on_c, 9, 36, 0
17, 50304, Note_on_c, 9, 40, 104
17, 50320, Channel_aftertouch_c, 9, 34
17, 50332, Channel_aftertouch_c, 9, 30
17, 50344, Channel_aftertouch_c, 9, 21
17, 50356, Channel_aftertouch_c, 9, 0
17, 50496, Note_on_c, 9, 40, 0
17, 50688, Note_on_c, 9, 36, 70
17, 50880, Note_on_c, 9, 36, 0
17, 51072, Note_on_c, 9, 38, 57
17, 51072, Note_on_c, 9, 40, 96
17, 51076, Channel_aftertouch_c, 9, 44
17, 51084, Note_on_c, 9, 38, 0
17, 51092, Channel_aftertouch_c, 9, 16
17, 51116, Channel_aftertouch_c, 9, 16
17, 51128, Channel_aftertouch_c, 9, 0
17, 51200, Note_on_c, 9, 40, 0
17, 51264, Note_on_c, 9, 36, 96
17, 51344, Note_on_c, 9, 36, 0
17, 51456, Note_on_c, 9, 36, 89
17, 51484, Channel_aftertouch_c, 9, 7
17, 51496, Channel_aftertouch_c, 9, 0
17, 51632, Note_on_c, 9, 36, 0
17, 51840, Note_on_c, 9, 40, 104
17, 51856, Channel_aftertouch_c, 9, 34
17, 51868, Channel_aftertouch_c, 9, 30
17, 51880, Channel_aftertouch_c, 9, 21
17, 51892, Channel_aftertouch_c, 9, 0
17, 52032, Note_on_c, 9, 40, 0
17, 52224, Note_on_c, 9, 40, 104
17, 52240, Channel_aftertouch_c, 9, 41
17, 52248, Channel_aftertouch_c, 9, 25
17, 52260, Channel_aftertouch_c, 9, 7
17, 52272, Channel_aftertouch_c, 9, 0
17, 52340, Note_on_c, 9, 40, 0
17, 52600, Note_on_c, 9, 40, 104
17, 52616, Channel_aftertouch_c, 9, 17
17, 52628, Channel_aftertouch_c, 9, 20
17, 52644, Channel_aftertouch_c, 9, 0
17, 52692, Note_on_c, 9, 40, 0
17, 52804, Note_on_c, 9, 36, 100
17, 52808, Channel_aftertouch_c, 9, 39
17, 52816, Channel_aftertouch_c, 9, 0
17, 52856, Note_on_c, 9, 36, 0
17, 52996, Note_on_c, 9, 36, 113
17, 53000, Channel_aftertouch_c, 9, 96
17, 53008, Channel_aftertouch_c, 9, 0
17, 53120, Note_on_c, 9, 36, 0
17, 53360, Note_on_c, 9, 40, 108
17, 53360, Channel_aftertouch_c, 9, 101
17, 53376, Channel_aftertouch_c, 9, 6
17, 53384, Channel_aftertouch_c, 9, 28
17, 53396, Channel_aftertouch_c, 9, 0
17, 53432, Note_on_c, 9, 40, 0
17, 53760, Note_on_c, 9, 36, 70
17, 53952, Note_on_c, 9, 36, 0
17, 54144, Note_on_c, 9, 38, 57
17, 54144, Note_on_c, 9, 40, 96
17, 54148, Channel_aftertouch_c, 9, 44
17, 54156, Note_on_c, 9, 38, 0
17, 54164, Channel_aftertouch_c, 9, 16
17, 54188, Channel_aftertouch_c, 9, 16
17, 54200, Channel_aftertouch_c, 9, 0
17, 54272, Note_on_c, 9, 40, 0
17, 54336, Note_on_c, 9, 36, 96
17, 54416, Note_on_c, 9, 36, 0
17, 54528, Note_on_c, 9, 36, 89
17, 54556, Channel_aftertouch_c, 9, 7
17, 54568, Channel_aftertouch_c, 9, 0
17, 54704, Note_on_c, 9, 36, 0
17, 54912, Note_on_c, 9, 40, 104
17, 54928, Channel_aftertouch_c, 9, 34
17, 54940, Channel_aftertouch_c, 9, 30
17, 54952, Channel_aftertouch_c, 9, 21
17, 54964, Channel_aftertouch_c, 9, 0
17, 55104, Note_on_c, 9, 40, 0
17, 55296, Note_on_c, 9, 36, 70
17, 55488, Note_on_c, 9, 36, 0
17, 55680, Note_on_c, 9, 38, 57
17, 55680, Note_on_c, 9, 40, 96
17, 55684, Channel_aftertouch_c, 9, 44
17, 55692, Note_on_c, 9, 38, 0
17, 55700, Channel_aftertouch_c, 9, 16
17, 55724, Channel_aftertouch_c, 9, 16
17, 55736, Channel_aftertouch_c, 9, 0
17, 55808, Note_on_c, 9, 40, 0
17, 55872, Note_on_c, 9, 36, 96
17, 55952, Note_on_c, 9, 36, 0
17, 56064, Note_on_c, 9, 36, 89
17, 56092, Channel_aftertouch_c, 9, 7
17, 56104, Channel_aftertouch_c, 9, 0
17, 56240, Note_on_c, 9, 36, 0
17, 56448, Note_on_c, 9, 40, 104
17, 56464, Channel_aftertouch_c, 9, 34
17, 56476, Channel_aftertouch_c, 9, 30
17, 56488, Channel_aftertouch_c, 9, 21
17, 56500, Channel_aftertouch_c, 9, 0
17, 56640, Note_on_c, 9, 40, 0
17, 56832, Note_on_c, 9, 36, 70
17, 57024, Note_on_c, 9, 36, 0
17, 57216, Note_on_c, 9, 38, 57
17, 57216, Note_on_c, 9, 40, 96
17, 57220, Channel_aftertouch_c, 9, 44
17, 57228, Note_on_c, 9, 38, 0
17, 57236, Channel_aftertouch_c, 9, 16
17, 57260, Channel_aftertouch_c, 9, 16
17, 57272, Channel_aftertouch_c, 9, 0
17, 57344, Note_on_c, 9, 40, 0
17, 57408, Note_on_c, 9, 36, 96
17, 57488, Note_on_c, 9, 36, 0
17, 57600, Note_on_c, 9, 36, 89
17, 57628, Channel_aftertouch_c, 9, 7
17, 57640, Channel_aftertouch_c, 9, 0
17, 57776, Note_on_c, 9, 36, 0
17, 57984, Note_on_c, 9, 40, 104
17, 58000, Channel_aftertouch_c, 9, 34
17, 58012, Channel_aftertouch_c, 9, 30
17, 58024, Channel_aftertouch_c, 9, 21
17, 58036, Channel_aftertouch_c, 9, 0
17, 58176, Note_on_c, 9, 40, 0
17, 58368, Note_on_c, 9, 40, 104
17, 58384, Channel_aftertouch_c, 9, 41
17, 58392, Channel_aftertouch_c, 9, 25
17, 58404, Channel_aftertouch_c, 9, 7
17, 58416, Channel_aftertouch_c, 9, 0
17, 58484, Note_on_c, 9, 40, 0
17, 58744, Note_on_c, 9, 40, 104
17, 58760, Channel_aftertouch_c, 9, 17
17, 58772, Channel_aftertouch_c, 9, 20
17, 58788, Channel_aftertouch_c, 9, 0
17, 58836, Note_on_c, 9, 40, 0
17, 58948, Note_on_c, 9, 36, 100
17, 58952, Channel_aftertouch_c, 9, 39
17, 58960, Channel_aftertouch_c, 9, 0
17, 59000, Note_on_c, 9, 36, 0
17, 59140, Note_on_c, 9, 36, 113
17, 59144, Channel_aftertouch_c, 9, 96
17, 59152, Channel_aftertouch_c, 9, 0
17, 59264, Note_on_c, 9, 36, 0
17, 59504, Note_on_c, 9, 40, 108
17, 59504, Channel_aftertouch_c, 9, 101
17, 59520, Channel_aftertouch_c, 9, 6
17, 59528, Channel_aftertouch_c, 9, 28
17, 59540, Channel_aftertouch_c, 9, 0
17, 59576, Note_on_c, 9, 40, 0
17, 59904, Note_on_c, 9, 36, 70
17, 60096, Note_on_c, 9, 36, 0
17, 60288, Note_on_c, 9, 38, 57
17, 60288, Note_on_c, 9, 40, 96
17, 60292, Channel_aftertouch_c, 9, 44
17, 60300, Note_on_c, 9, 38, 0
17, 60308, Channel_aftertouch_c, 9, 16
17, 60332, Channel_aftertouch_c, 9, 16
17, 60344, Channel_aftertouch_c, 9, 0
17, 60416, Note_on_c, 9, 40, 0
17, 60480, Note_on_c, 9, 36, 96
17, 60560, Note_on_c, 9, 36, 0
17, 60672, Note_on_c, 9, 36, 89
17, 60700, Channel_aftertouch_c, 9, 7
17, 60712, Channel_aftertouch_c, 9, 0
17, 60848, Note_on_c, 9, 36, 0
17, 61056, Note_on_c, 9, 40, 104
17, 61072, Channel_aftertouch_c, 9, 34
17, 61084, Channel_aftertouch_c, 9, 30
17, 61096, Channel_aftertouch_c, 9, 21
17, 61108, Channel_aftertouch_c, 9, 0
17, 61248, Note_on_c, 9, 40, 0
17, 61440, Note_on_c, 9, 36, 70
17, 61632, Note_on_c, 9, 36, 0
17, 61824, Note_on_c, 9, 38, 57
17, 61824, Note_on_c, 9, 40, 96
17, 61828, Channel_aftertouch_c, 9, 44
17, 61836, Note_on_c, 9, 38, 0
17, 61844, Channel_aftertouch_c, 9, 16
17, 61868, Channel_aftertouch_c, 9, 16
17, 61880, Channel_aftertouch_c, 9, 0
17, 61952, Note_on_c, 9, 40, 0
17, 62016, Note_on_c, 9, 36, 96
17, 62096, Note_on_c, 9, 36, 0
17, 62208, Note_on_c, 9, 36, 89
17, 62236, Channel_aftertouch_c, 9, 7
17, 62248, Channel_aftertouch_c, 9, 0
17, 62384, Note_on_c, 9, 36, 0
17, 62592, Note_on_c, 9, 40, 104
17, 62608, Channel_aftertouch_c, 9, 34
17, 62620, Channel_aftertouch_c, 9, 30
17, 62632, Channel_aftertouch_c, 9, 21
17, 62644, Channel_aftertouch_c, 9, 0
17, 62784, Note_on_c, 9, 40, 0
17, 62976, Note_on_c, 9, 36, 70
17, 63168, Note_on_c, 9, 36, 0
17, 63360, Note_on_c, 9, 38, 57
17, 63360, Note_on_c, 9, 40, 96
17, 63364, Channel_aftertouch_c, 9, 44
17, 63372, Note_on_c, 9, 38, 0
17, 63380, Channel_aftertouch_c, 9, 16
17, 63404, Channel_aftertouch_c, 9, 16
17, 63416, Channel_aftertouch_c, 9, 0
17, 63488, Note_on_c, 9, 40, 0
17, 63552, Note_on_c, 9, 36, 96
17, 63632, Note_on_c, 9, 36, 0
17, 63744, Note_on_c, 9, 36, 89
17, 63772, Channel_aftertouch_c, 9, 7
17, 63784, Channel_aftertouch_c, 9, 0
17, 63920, Note_on_c, 9, 36, 0
17, 64128, Note_on_c, 9, 40, 104
17, 64144, Channel_aftertouch_c, 9, 34
17, 64156, Channel_aftertouch_c, 9, 30
17, 64168, Channel_aftertouch_c, 9, 21
17, 64180, Channel_aftertouch_c, 9, 0
17, 64320, Note_on_c, 9, 40, 0
17, 64512, Note_on_c, 9, 40, 104
17, 64528, Channel_aftertouch_c, 9, 41
17, 64536, Channel_aftertouch_c, 9, 25
17, 64548, Channel_aftertouch_c, 9, 7
17, 64560, Channel_aftertouch_c, 9, 0
17, 64628, Note_on_c, 9, 40, 0
17, 64888, Note_on_c, 9, 40, 104
17, 64904, Channel_aftertouch_c, 9, 17
17, 64916, Channel_aftertouch_c, 9, 20
17, 64932, Channel_aftertouch_c, 9, 0
17, 64980, Note_on_c, 9, 40, 0
17, 65092, Note_on_c, 9, 36, 100
17, 65096, Channel_aftertouch_c, 9, 39
17, 65104, Channel_aftertouch_c, 9, 0
17, 65144, Note_on_c, 9, 36, 0
17, 65284, Note_on_c, 9, 36, 113
17, 65288, Channel_aftertouch_c, 9, 96
17, 65296, Channel_aftertouch_c, 9, 0
17, 65408, Note_on_c, 9, 36, 0
17, 65648, Note_on_c, 9, 40, 108
17, 65648, Channel_aftertouch_c, 9, 101
17, 65664, Channel_aftertouch_c, 9, 6
17, 65672, Channel_aftertouch_c, 9, 28
17, 65684, Channel_aftertouch_c, 9, 0
17, 65720, Note_on_c, 9, 40, 0
17, 66048, Note_on_c, 9, 36, 70
17, 66240, Note_on_c, 9, 36, 0
17, 66432, Note_on_c, 9, 38, 57
17, 66432, Note_on_c, 9, 40, 96
17, 66436, Channel_aftertouch_c, 9, 44
17, 66444, Note_on_c, 9, 38, 0
17, 66452, Channel_aftertouch_c, 9, 16
17, 66476, Channel_aftertouch_c, 9, 16
17, 66488, Channel_aftertouch_c, 9, 0
17, 66560, Note_on_c, 9, 40, 0
17, 66624, Note_on_c, 9, 36, 96
17, 66704, Note_on_c, 9, 36, 0
17, 66816, Note_on_c, 9, 36, 89
17, 66844, Channel_aftertouch_c, 9, 7
17, 66856, Channel_aftertouch_c, 9, 0
17, 66992, Note_on_c, 9, 36, 0
17, 67200, Note_on_c, 9, 40, 104
17, 67216, Channel_aftertouch_c, 9, 34
17, 67228, Channel_aftertouch_c, 9, 30
17, 67240, Channel_aftertouch_c, 9, 21
17, 67252, Channel_aftertouch_c, 9, 0
17, 67392, Note_on_c, 9, 40, 0
17, 67584, Note_on_c, 9, 36, 70
17, 67776, Note_on_c, 9, 36, 0
17, 67968, Note_on_c, 9, 38, 57
17, 67968, Note_on_c, 9, 40, 96
17, 67972, Channel_aftertouch_c, 9, 44
17, 67980, Note_on_c, 9, 38, 0
17, 67988, Channel_aftertouch_c, 9, 16
17, 68012, Channel_aftertouch_c, 9, 16
17, 68024, Channel_aftertouch_c, 9, 0
17, 68096, Note_on_c, 9, 40, 0
17, 68160, Note_on_c, 9, 36, 96
17, 68240, Note_on_c, 9, 36, 0
17, 68352, Note_on_c, 9, 36, 89
17, 68380, Channel_aftertouch_c, 9, 7
17, 68392, Channel_aftertouch_c, 9, 0
17, 68528, Note_on_c, 9, 36, 0
17, 68736, Note_on_c, 9, 40, 104
17, 68752, Channel_aftertouch_c, 9, 34
17, 68764, Channel_aftertouch_c, 9, 30
17, 68776, Channel_aftertouch_c, 9, 21
17, 68788, Channel_aftertouch_c, 9, 0
17, 68928, Note_on_c, 9, 40, 0
17, 69120, Note_on_c, 9, 36, 70
17, 69312, Note_on_c, 9, 36, 0
17, 69504, Note_on_c, 9, 38, 57
17, 69504, Note_on_c, 9, 40, 96
17, 69508, Channel_aftertouch_c, 9, 44
17, 69516, Note_on_c, 9, 38, 0
17, 69524, Channel_aftertouch_c, 9, 16
17, 69548, Channel_aftertouch_c, 9, 16
17, 69560, Channel_aftertouch_c, 9, 0
17, 69632, Note_on_c, 9, 40, 0
17, 69696, Note_on_c, 9, 36, 96
17, 69776, Note_on_c, 9, 36, 0
17, 69888, Note_on_c, 9, 36, 89
17, 69916, Channel_aftertouch_c, 9, 7
17, 69928, Channel_aftertouch_c, 9, 0
17, 70064, Note_on_c, 9, 36, 0
17, 70272, Note_on_c, 9, 40, 104
17, 70288, Channel_aftertouch_c, 9, 34
17, 70300, Channel_aftertouch_c, 9, 30
17, 70312, Channel_aftertouch_c, 9, 21
17, 70324, Channel_aftertouch_c, 9, 0
17, 70464, Note_on_c, 9, 40, 0
17, 70656, Note_on_c, 9, 40, 104
17, 70672, Channel_aftertouch_c, 9, 41
17, 70680, Channel_aftertouch_c, 9, 25
17, 70692, Channel_aftertouch_c, 9, 7
17, 70704, Channel_aftertouch_c, 9, 0
17, 70772, Note_on_c, 9, 40, 0
17, 71032, Note_on_c, 9, 40, 104
17, 71048, Channel_aftertouch_c, 9, 17
17, 71060, Channel_aftertouch_c, 9, 20
17, 71076, Channel_aftertouch_c, 9, 0
17, 71124, Note_on_c, 9, 40, 0
17, 71236, Note_on_c, 9, 36, 100
17, 71240, Channel_aftertouch_c, 9, 39
17, 71248, Channel_aftertouch_c, 9, 0
17, 71288, Note_on_c, 9, 36, 0
17, 71428, Note_on_c, 9, 36, 113
17, 71432, Channel_aftertouch_c, 9, 96
17, 71440, Channel_aftertouch_c, 9, 0
17, 71552, Note_on_c, 9, 36, 0
17, 71792, Note_on_c, 9, 40, 108
17, 71792, Channel_aftertouch_c, 9, 101
17, 71808, Channel_aftertouch_c, 9, 6
17, 71816, Channel_aftertouch_c, 9, 28
17, 71828, Channel_aftertouch_c, 9, 0
17, 71864, Note_on_c, 9, 40, 0
17, 72192, Note_on_c, 9, 36, 70
17, 72384, Note_on_c, 9, 36, 0
17, 72576, Note_on_c, 9, 38, 57
17, 72576, Note_on_c, 9, 40, 96
17, 72580, Channel_aftertouch_c, 9, 44
17, 72588, Note_on_c, 9, 38, 0
17, 72596, Channel_aftertouch_c, 9, 16
17, 72620, Channel_aftertouch_c, 9, 16
17, 72632, Channel_aftertouch_c, 9, 0
17, 72704, Note_on_c, 9, 40, 0
17, 72768, Note_on_c, 9, 36, 96
17, 72848, Note_on_c, 9, 36, 0
17, 72960, Note_on_c, 9, 36, 89
17, 72988, Channel_aftertouch_c, 9, 7
17, 73000, Channel_aftertouch_c, 9, 0
17, 73136, Note_on_c, 9, 36, 0
17, 73344, Note_on_c, 9, 40, 104
17, 73360, Channel_aftertouch_c, 9, 34
17, 73372, Channel_aftertouch_c, 9, 30
17, 73384, Channel_aftertouch_c, 9, 21
17, 73396, Channel_aftertouch_c, 9, 0
17, 73536, Note_on_c, 9, 40, 0
17, 73728, Note_on_c, 9, 36, 70
17, 73920, Note_on_c, 9, 36, 0
17, 74112, Note_on_c, 9, 38, 57
17, 74112, Note_on_c, 9, 40, 96
17, 74116, Channel_aftertouch_c, 9, 44
17, 74124, Note_on_c, 9, 38, 0
17, 74132, Channel_aftertouch_c, 9, 16
17, 74156, Channel_aftertouch_c, 9, 16
17, 74168, Channel_aftertouch_c, 9, 0
17, 74240, Note_on_c, 9, 40, 0
17, 74304, Note_on_c, 9, 36, 96
17, 74384, Note_on_c, 9, 36, 0
17, 74496, Note_on_c, 9, 36, 89
17, 74524, Channel_aftertouch_c, 9, 7
17, 74536, Channel_aftertouch_c, 9, 0
17, 74672, Note_on_c, 9, 36, 0
17, 74880, Note_on_c, 9, 40, 104
17, 74896, Channel_aftertouch_c, 9, 34
17, 74908, Channel_aftertouch_c, 9, 30
17, 74920, Channel_aftertouch_c, 9, 21
17, 74932, Channel_aftertouch_c, 9, 0
17, 75072, Note_on_c, 9, 40, 0
17, 75264, Note_on_c, 9, 36, 70
17, 75456, Note_on_c, 9, 36, 0
17, 75648, Note_on_c, 9, 38, 57
17, 75648, Note_on_c, 9, 40, 96
17, 75652, Channel_aftertouch_c, 9, 44
17, 75660, Note_on_c, 9, 38, 0
17, 75668, Channel_aftertouch_c, 9, 16
17, 75692, Channel_aftertouch_c, 9, 16
17, 75704, Channel_aftertouch_c, 9, 0
17, 75776, Note_on_c, 9, 40, 0
17, 75840, Note_on_c, 9, 36, 96
17, 75920, Note_on_c, 9, 36, 0
17, 76032, Note_on_c, 9, 36, 89
17, 76060, Channel_aftertouch_c, 9, 7
17, 76072, Channel_aftertouch_c, 9, 0
17, 76208, Note_on_c, 9, 36, 0
17, 76432, Channel_aftertouch_c, 9, 34
17, 76444, Channel_aftertouch_c, 9, 30
17, 76456, Channel_aftertouch_c, 9, 21
17, 76468, Channel_aftertouch_c, 9, 0
17, 76800, Note_on_c, 9, 36, 70
17, 76992, Note_on_c, 9, 36, 0
17, 77184, Note_on_c, 9, 38, 57
17, 77184, Note_on_c, 9, 40, 96
17, 77188, Channel_aftertouch_c, 9, 44
17, 77196, Note_on_c, 9, 38, 0
17, 77204, Channel_aftertouch_c, 9, 16
17, 77228, Channel_aftertouch_c, 9, 16
17, 77240, Channel_aftertouch_c, 9, 0
17, 77312, Note_on_c, 9, 40, 0
17, 77376, Note_on_c, 9, 36, 96
17, 77456, Note_on_c, 9, 36, 0
17, 77568, Note_on_c, 9, 36, 89
17, 77596, Channel_aftertouch_c, 9, 7
17, 77608, Channel_aftertouch_c, 9, 0
17, 77744, Note_on_c, 9, 36, 0
17, 77952, Note_on_c, 9, 40, 104
17, 77968, Channel_aftertouch_c, 9, 34
17, 77980, Channel_aftertouch_c, 9, 30
17, 77992, Channel_aftertouch_c, 9, 21
17, 78004, Channel_aftertouch_c, 9, 0
17, 78144, Note_on_c, 9, 40, 0
17, 78336, Note_on_c, 9, 36, 70
17, 78528, Note_on_c, 9, 36, 0
17, 78720, Note_on_c, 9, 38, 57
17, 78720, Note_on_c, 9, 40, 96
17, 78724, Channel_aftertouch_c, 9, 44
17, 78732, Note_on_c, 9, 38, 0
17, 78740, Channel_aftertouch_c, 9, 16
17, 78764, Channel_aftertouch_c, 9, 16
17, 78776, Channel_aftertouch_c, 9, 0
17, 78848, Note_on_c, 9, 40, 0
17, 78912, Note_on_c, 9, 36, 96
17, 78992, Note_on_c, 9, 36, 0
17, 79104, Note_on_c, 9, 36, 89
17, 79132, Channel_aftertouch_c, 9, 7
17, 79144, Channel_aftertouch_c, 9, 0
17, 79280, Note_on_c, 9, 36, 0
17, 79488, Note_on_c, 9, 40, 104
17, 79504, Channel_aftertouch_c, 9, 34
17, 79516, Channel_aftertouch_c, 9, 30
17, 79528, Channel_aftertouch_c, 9, 21
17, 79540, Channel_aftertouch_c, 9, 0
17, 79680, Note_on_c, 9, 40, 0
17, 79872, Note_on_c, 9, 36, 70
17, 80064, Note_on_c, 9, 36, 0
17, 80256, Note_on_c, 9, 38, 57
17, 80256, Note_on_c, 9, 40, 96
17, 80260, Channel_aftertouch_c, 9, 44
17, 80268, Note_on_c, 9, 38, 0
17, 80276, Channel_aftertouch_c, 9, 16
17, 80300, Channel_aftertouch_c, 9, 16
17, 80312, Channel_aftertouch_c, 9, 0
17, 80384, Note_on_c, 9, 40, 0
17, 80448, Note_on_c, 9, 36, 96
17, 80528, Note_on_c, 9, 36, 0
17, 80640, Note_on_c, 9, 36, 89
17, 80668, Channel_aftertouch_c, 9, 7
17, 80680, Channel_aftertouch_c, 9, 0
17, 80816, Note_on_c, 9, 36, 0
17, 81024, Note_on_c, 9, 40, 104
17, 81040, Channel_aftertouch_c, 9, 34
17, 81052, Channel_aftertouch_c, 9, 30
17, 81064, Channel_aftertouch_c, 9, 21
17, 81076, Channel_aftertouch_c, 9, 0
17, 81216, Note_on_c, 9, 40, 0
17, 81408, Note_on_c, 9, 36, 70
17, 81600, Note_on_c, 9, 36, 0
17, 81792, Note_on_c, 9, 38, 57
17, 81792, Note_on_c, 9, 40, 96
17, 81796, Channel_aftertouch_c, 9, 44
17, 81804, Note_on_c, 9, 38, 0
17, 81812, Channel_aftertouch_c, 9, 16
17, 81836, Channel_aftertouch_c, 9, 16
17, 81848, Channel_aftertouch_c, 9, 0
17, 81920, Note_on_c, 9, 40, 0
17, 81984, Note_on_c, 9, 36, 96
17, 82064, Note_on_c, 9, 36, 0
17, 82176, Note_on_c, 9, 36, 89
17, 82204, Channel_aftertouch_c, 9, 7
17, 82216, Channel_aftertouch_c, 9, 0
17, 82352, Note_on_c, 9, 36, 0
17, 82560, Note_on_c, 9, 40, 104
17, 82576, Channel_aftertouch_c, 9, 34
17, 82588, Channel_aftertouch_c, 9, 30
17, 82600, Channel_aftertouch_c, 9, 21
17, 82612, Channel_aftertouch_c, 9, 0
17, 82752, Note_on_c, 9, 40, 0
17, 82944, Note_on_c, 9, 36, 70
17, 83136, Note_on_c, 9, 36, 0
17, 83328, Note_on_c, 9, 38, 57
17, 83328, Note_on_c, 9, 40, 96
17, 83332, Channel_aftertouch_c, 9, 44
17, 83340, Note_on_c, 9, 38, 0
17, 83348, Channel_aftertouch_c, 9, 16
17, 83372, Channel_aftertouch_c, 9, 16
17, 83384, Channel_aftertouch_c, 9, 0
17, 83456, Note_on_c, 9, 40, 0
17, 83520, Note_on_c, 9, 36, 96
17, 83600, Note_on_c, 9, 36, 0
17, 83712, Note_on_c, 9, 36, 89
17, 83740, Channel_aftertouch_c, 9, 7
17, 83752, Channel_aftertouch_c, 9, 0
17, 83888, Note_on_c, 9, 36, 0
17, 84096, Note_on_c, 9, 40, 104
17, 84112, Channel_aftertouch_c, 9, 34
17, 84124, Channel_aftertouch_c, 9, 30
17, 84136, Channel_aftertouch_c, 9, 21
17, 84148, Channel_aftertouch_c, 9, 0
17, 84288, Note_on_c, 9, 40, 0
17, 84480, Note_on_c, 9, 36, 70
17, 84672, Note_on_c, 9, 36, 0
17, 84864, Note_on_c, 9, 38, 57
17, 84864, Note_on_c, 9, 40, 96
17, 84868, Channel_aftertouch_c, 9, 44
17, 84876, Note_on_c, 9, 38, 0
17, 84884, Channel_aftertouch_c, 9, 16
17, 84908, Channel_aftertouch_c, 9, 16
17, 84920, Channel_aftertouch_c, 9, 0
17, 84992, Note_on_c, 9, 40, 0
17, 85056, Note_on_c, 9, 36, 96
17, 85136, Note_on_c, 9, 36, 0
17, 85248, Note_on_c, 9, 36, 89
17, 85276, Channel_aftertouch_c, 9, 7
17, 85288, Channel_aftertouch_c, 9, 0
17, 85424, Note_on_c, 9, 36, 0
17, 85632, Note_on_c, 9, 40, 104
17, 85648, Channel_aftertouch_c, 9, 34
17, 85660, Channel_aftertouch_c, 9, 30
17, 85672, Channel_aftertouch_c, 9, 21
17, 85684, Channel_aftertouch_c, 9, 0
17, 85824, Note_on_c, 9, 40, 0
17, 86016, Note_on_c, 9, 36, 70
17, 86208, Note_on_c, 9, 36, 0
17, 86400, Note_on_c, 9, 38, 57
17, 86400, Note_on_c, 9, 40, 96
17, 86404, Channel_aftertouch_c, 9, 44
17, 86412, Note_on_c, 9, 38, 0
17, 86420, Channel_aftertouch_c, 9, 16
17, 86444, Channel_aftertouch_c, 9, 16
17, 86456, Channel_aftertouch_c, 9, 0
17, 86528, Note_on_c, 9, 40, 0
17, 86592, Note_on_c, 9, 36, 96
17, 86672, Note_on_c, 9, 36, 0
17, 86784, Note_on_c, 9, 36, 89
17, 86812, Channel_aftertouch_c, 9, 7
17, 86824, Channel_aftertouch_c, 9, 0
17, 86960, Note_on_c, 9, 36, 0
17, 87168, Note_on_c, 9, 40, 104
17, 87184, Channel_aftertouch_c, 9, 34
17, 87196, Channel_aftertouch_c, 9, 30
17, 87208, Channel_aftertouch_c, 9, 21
17, 87220, Channel_aftertouch_c, 9, 0
17, 87360, Note_on_c, 9, 40, 0
17, 87552, Note_on_c, 9, 36, 100
17, 87640, Note_on_c, 9, 36, 0
17, 87840, Note_on_c, 9, 36, 89
17, 87912, Note_on_c, 9, 36, 0
17, 87936, Note_on_c, 9, 40, 104
17, 88000, Note_on_c, 9, 40, 0
17, 88128, Note_on_c, 9, 36, 113
17, 88188, Note_on_c, 9, 36, 0
17, 88320, Note_on_c, 9, 36, 108
17, 88396, Note_on_c, 9, 36, 0
17, 88896, Note_on_c, 9, 36, 80
17, 88992, Note_on_c, 9, 36, 0
17, 89088, Note_on_c, 9, 36, 70
17, 89280, Note_on_c, 9, 36, 0
17, 89472, Note_on_c, 9, 38, 57
17, 89472, Note_on_c, 9, 40, 96
17, 89476, Channel_aftertouch_c, 9, 44
17, 89484, Note_on_c, 9, 38, 0
17, 89492, Channel_aftertouch_c, 9, 16
17, 89516, Channel_aftertouch_c, 9, 16
17, 89528, Channel_aftertouch_c, 9, 0
17, 89600, Note_on_c, 9, 40, 0
17, 89664, Note_on_c, 9, 36, 96
17, 89744, Note_on_c, 9, 36, 0
17, 89856, Note_on_c, 9, 36, 89
17, 89884, Channel_aftertouch_c, 9, 7
17, 89896, Channel_aftertouch_c, 9, 0
17, 90032, Note_on_c, 9, 36, 0
17, 90240, Note_on_c, 9, 40, 104
17, 90256, Channel_aftertouch_c, 9, 34
17, 90268, Channel_aftertouch_c, 9, 30
17, 90280, Channel_aftertouch_c, 9, 21
17, 90292, Channel_aftertouch_c, 9, 0
17, 90432, Note_on_c, 9, 40, 0
17, 90624, Note_on_c, 9, 36, 70
17, 90816, Note_on_c, 9, 36, 0
17, 91008, Note_on_c, 9, 38, 57
17, 91008, Note_on_c, 9, 40, 96
17, 91012, Channel_aftertouch_c, 9, 44
17, 91020, Note_on_c, 9, 38, 0
17, 91028, Channel_aftertouch_c, 9, 16
17, 91052, Channel_aftertouch_c, 9, 16
17, 91064, Channel_aftertouch_c, 9, 0
17, 91136, Note_on_c, 9, 40, 0
17, 91200, Note_on_c, 9, 36, 96
17, 91280, Note_on_c, 9, 36, 0
17, 91392, Note_on_c, 9, 36, 89
17, 91420, Channel_aftertouch_c, 9, 7
17, 91432, Channel_aftertouch_c, 9, 0
17, 91568, Note_on_c, 9, 36, 0
17, 91776, Note_on_c, 9, 40, 104
17, 91792, Channel_aftertouch_c, 9, 34
17, 91804, Channel_aftertouch_c, 9, 30
17, 91816, Channel_aftertouch_c, 9, 21
17, 91828, Channel_aftertouch_c, 9, 0
17, 91968, Note_on_c, 9, 40, 0
17, 92160, Note_on_c, 9, 36, 70
17, 92352, Note_on_c, 9, 36, 0
17, 92544, Note_on_c, 9, 40, 96
17, 92544, Note_on_c, 9, 38, 57
17, 92548, Channel_aftertouch_c, 9, 44
17, 92556, Note_on_c, 9, 38, 0
17, 92564, Channel_aftertouch_c, 9, 16
17, 92588, Channel_aftertouch_c, 9, 16
17, 92600, Channel_aftertouch_c, 9, 0
17, 92672, Note_on_c, 9, 40, 0
17, 92736, Note_on_c, 9, 36, 96
17, 92816, Note_on_c, 9, 36, 0
17, 92928, Note_on_c, 9, 36, 89
17, 92956, Channel_aftertouch_c, 9, 7
17, 92968, Channel_aftertouch_c, 9, 0
17, 93104, Note_on_c, 9, 36, 0
17, 93312, Note_on_c, 9, 40, 104
17, 93328, Channel_aftertouch_c, 9, 34
17, 93340, Channel_aftertouch_c, 9, 30
17, 93352, Channel_aftertouch_c, 9, 21
17, 93364, Channel_aftertouch_c, 9, 0
17, 93504, Note_on_c, 9, 40, 0
17, 93696, Note_on_c, 9, 36, 70
17, 93888, Note_on_c, 9, 36, 0
17, 94080, Note_on_c, 9, 40, 96
17, 94080, Note_on_c, 9, 38, 57
17, 94084, Channel_aftertouch_c, 9, 44
17, 94092, Note_on_c, 9, 38, 0
17, 94100, Channel_aftertouch_c, 9, 16
17, 94124, Channel_aftertouch_c, 9, 16
17, 94136, Channel_aftertouch_c, 9, 0
17, 94208, Note_on_c, 9, 40, 0
17, 94272, Note_on_c, 9, 36, 96
17, 94352, Note_on_c, 9, 36, 0
17, 94464, Note_on_c, 9, 36, 89
17, 94492, Channel_aftertouch_c, 9, 7
17, 94504, Channel_aftertouch_c, 9, 0
17, 94640, Note_on_c, 9, 36, 0
17, 94848, Note_on_c, 9, 40, 104
17, 94864, Channel_aftertouch_c, 9, 34
17, 94876, Channel_aftertouch_c, 9, 30
17, 94888, Channel_aftertouch_c, 9, 21
17, 94900, Channel_aftertouch_c, 9, 0
17, 95040, Note_on_c, 9, 40, 0
17, 95232, Note_on_c, 9, 36, 104
17, 95232, Channel_aftertouch_c, 9, 14
17, 95236, Channel_aftertouch_c, 9, 0
17, 95280, Note_on_c, 9, 36, 0
17, 95424, Note_on_c, 9, 36, 100
17, 95472, Note_on_c, 9, 36, 0
17, 95604, Channel_aftertouch_c, 9, 98
17, 95616, Note_on_c, 9, 36, 108
17, 95616, Note_on_c, 9, 40, 104
17, 95616, Channel_aftertouch_c, 9, 88
17, 95628, Channel_aftertouch_c, 9, 47
17, 95640, Channel_aftertouch_c, 9, 0
17, 95672, Note_on_c, 9, 40, 0
17, 95672, Note_on_c, 9, 36, 0
17, 95808, Note_on_c, 9, 36, 104
17, 95848, Note_on_c, 9, 36, 0
17, 95984, Channel_aftertouch_c, 9, 85
17, 96000, Note_on_c, 9, 36, 113
17, 96000, Channel_aftertouch_c, 9, 24
17, 96008, Channel_aftertouch_c, 9, 0
17, 96056, Note_on_c, 9, 36, 0
17, 96192, Note_on_c, 9, 36, 104
17, 96228, Note_on_c, 9, 36, 0
17, 96380, Channel_aftertouch_c, 9, 127
17, 96384, Note_on_c, 9, 36, 113
17, 96384, Note_on_c, 9, 40, 108
17, 96388, Channel_aftertouch_c, 9, 87
17, 96400, Channel_aftertouch_c, 9, 6
17, 96416, Channel_aftertouch_c, 9, 0
17, 96432, Note_on_c, 9, 40, 0
17, 96436, Note_on_c, 9, 36, 0
17, 96576, Note_on_c, 9, 36, 100
17, 96628, Note_on_c, 9, 36, 0
17, 96768, Note_on_c, 9, 36, 100
17, 96768, Note_on_c, 9, 40, 104
17, 96816, Note_on_c, 9, 36, 0
17, 96816, Channel_aftertouch_c, 9, 50
17, 96824, Note_on_c, 9, 40, 0
17, 96824, Channel_aftertouch_c, 9, 0
17, 96960, Note_on_c, 9, 36, 89
17, 96988, Note_on_c, 9, 36, 0
17, 97152, Note_on_c, 9, 36, 104
17, 97152, Note_on_c, 9, 40, 104
17, 97172, Channel_aftertouch_c, 9, 34
17, 97184, Channel_aftertouch_c, 9, 17
17, 97192, Channel_aftertouch_c, 9, 29
17, 97196, Note_on_c, 9, 36, 0
17, 97204, Note_on_c, 9, 40, 0
17, 97208, Channel_aftertouch_c, 9, 0
17, 97344, Note_on_c, 9, 36, 96
17, 97376, Note_on_c, 9, 36, 0
17, 97536, Note_on_c, 9, 36, 108
17, 97536, Note_on_c, 9, 40, 100
17, 97568, Channel_aftertouch_c, 9, 75
17, 97576, Channel_aftertouch_c, 9, 79
17, 97580, Note_on_c, 9, 36, 0
17, 97584, Note_on_c, 9, 40, 0
17, 97592, Channel_aftertouch_c, 9, 0
17, 97728, Note_on_c, 9, 36, 108
17, 97764, Note_on_c, 9, 36, 0
17, 97920, Note_on_c, 9, 36, 117
17, 97920, Note_on_c, 9, 40, 104
17, 97952, Channel_aftertouch_c, 9, 68
17, 97960, Channel_aftertouch_c, 9, 99
17, 97964, Note_on_c, 9, 36, 0
17, 97968, Note_on_c, 9, 40, 0
17, 97976, Channel_aftertouch_c, 9, 30
17, 97984, Channel_aftertouch_c, 9, 0
17, 98112, Note_on_c, 9, 36, 117
17, 98132, Channel_aftertouch_c, 9, 127
17, 98144, Channel_aftertouch_c, 9, 0
17, 98160, Note_on_c, 9, 36, 0
17, 98304, Note_on_c, 9, 36, 100
17, 98496, Note_on_c, 9, 36, 0
17, 98688, Note_on_c, 9, 38, 57
17, 98688, Note_on_c, 9, 40, 96
17, 98692, Channel_aftertouch_c, 9, 44
17, 98700, Note_on_c, 9, 38, 0
17, 98708, Channel_aftertouch_c, 9, 16
17, 98732, Channel_aftertouch_c, 9, 16
17, 98744, Channel_aftertouch_c, 9, 0
17, 98816, Note_on_c, 9, 40, 0
17, 98880, Note_on_c, 9, 36, 96
17, 98960, Note_on_c, 9, 36, 0
17, 99072, Note_on_c, 9, 36, 89
17, 99100, Channel_aftertouch_c, 9, 7
17, 99112, Channel_aftertouch_c, 9, 0
17, 99248, Note_on_c, 9, 36, 0
17, 99456, Note_on_c, 9, 40, 104
17, 99472, Channel_aftertouch_c, 9, 34
17, 99484, Channel_aftertouch_c, 9, 30
17, 99496, Channel_aftertouch_c, 9, 21
17, 99508, Channel_aftertouch_c, 9, 0
17, 99648, Note_on_c, 9, 40, 0
17, 99840, Note_on_c, 9, 36, 70
17, 100032, Note_on_c, 9, 36, 0
17, 100224, Note_on_c, 9, 38, 57
17, 100224, Note_on_c, 9, 40, 96
17, 100228, Channel_aftertouch_c, 9, 44
17, 100236, Note_on_c, 9, 38, 0
17, 100244, Channel_aftertouch_c, 9, 16
17, 100268, Channel_aftertouch_c, 9, 16
17, 100280, Channel_aftertouch_c, 9, 0
17, 100352, Note_on_c, 9, 40, 0
17, 100416, Note_on_c, 9, 36, 96
17, 100496, Note_on_c, 9, 36, 0
17, 100608, Note_on_c, 9, 36, 89
17, 100636, Channel_aftertouch_c, 9, 7
17, 100648, Channel_aftertouch_c, 9, 0
17, 100784, Note_on_c, 9, 36, 0
17, 100992, Note_on_c, 9, 40, 104
17, 101008, Channel_aftertouch_c, 9, 34
17, 101020, Channel_aftertouch_c, 9, 30
17, 101032, Channel_aftertouch_c, 9, 21
17, 101044, Channel_aftertouch_c, 9, 0
17, 101184, Note_on_c, 9, 40, 0
17, 101376, Note_on_c, 9, 40, 104
17, 101392, Channel_aftertouch_c, 9, 41
17, 101400, Channel_aftertouch_c, 9, 25
17, 101412, Channel_aftertouch_c, 9, 7
17, 101424, Channel_aftertouch_c, 9, 0
17, 101492, Note_on_c, 9, 40, 0
17, 101752, Note_on_c, 9, 40, 104
17, 101768, Channel_aftertouch_c, 9, 17
17, 101780, Channel_aftertouch_c, 9, 20
17, 101796, Channel_aftertouch_c, 9, 0
17, 101844, Note_on_c, 9, 40, 0
17, 101956, Note_on_c, 9, 36, 100
17, 101960, Channel_aftertouch_c, 9, 39
17, 101968, Channel_aftertouch_c, 9, 0
17, 102008, Note_on_c, 9, 36, 0
17, 102148, Note_on_c, 9, 36, 113
17, 102152, Channel_aftertouch_c, 9, 96
17, 102160, Channel_aftertouch_c, 9, 0
17, 102272, Note_on_c, 9, 36, 0
17, 102512, Note_on_c, 9, 40, 108
17, 102512, Channel_aftertouch_c, 9, 101
17, 102528, Channel_aftertouch_c, 9, 6
17, 102536, Channel_aftertouch_c, 9, 28
17, 102548, Channel_aftertouch_c, 9, 0
17, 102584, Note_on_c, 9, 40, 0
17, 102912, Note_on_c, 9, 36, 70
17, 103104, Note_on_c, 9, 36, 0
17, 103296, Note_on_c, 9, 38, 57
17, 103296, Note_on_c, 9, 40, 96
17, 103300, Channel_aftertouch_c, 9, 44
17, 103308, Note_on_c, 9, 38, 0
17, 103316, Channel_aftertouch_c, 9, 16
17, 103340, Channel_aftertouch_c, 9, 16
17, 103352, Channel_aftertouch_c, 9, 0
17, 103424, Note_on_c, 9, 40, 0
17, 103488, Note_on_c, 9, 36, 96
17, 103568, Note_on_c, 9, 36, 0
17, 103680, Note_on_c, 9, 36, 89
17, 103708, Channel_aftertouch_c, 9, 7
17, 103720, Channel_aftertouch_c, 9, 0
17, 103856, Note_on_c, 9, 36, 0
17, 104064, Note_on_c, 9, 40, 104
17, 104080, Channel_aftertouch_c, 9, 34
17, 104092, Channel_aftertouch_c, 9, 30
17, 104104, Channel_aftertouch_c, 9, 21
17, 104116, Channel_aftertouch_c, 9, 0
17, 104256, Note_on_c, 9, 40, 0
17, 104448, Note_on_c, 9, 36, 70
17, 104640, Note_on_c, 9, 36, 0
17, 104832, Note_on_c, 9, 38, 57
17, 104832, Note_on_c, 9, 40, 96
17, 104836, Channel_aftertouch_c, 9, 44
17, 104844, Note_on_c, 9, 38, 0
17, 104852, Channel_aftertouch_c, 9, 16
17, 104876, Channel_aftertouch_c, 9, 16
17, 104888, Channel_aftertouch_c, 9, 0
17, 104960, Note_on_c, 9, 40, 0
17, 105024, Note_on_c, 9, 36, 96
17, 105104, Note_on_c, 9, 36, 0
17, 105216, Note_on_c, 9, 36, 89
17, 105244, Channel_aftertouch_c, 9, 7
17, 105256, Channel_aftertouch_c, 9, 0
17, 105392, Note_on_c, 9, 36, 0
17, 105600, Note_on_c, 9, 40, 104
17, 105616, Channel_aftertouch_c, 9, 34
17, 105628, Channel_aftertouch_c, 9, 30
17, 105640, Channel_aftertouch_c, 9, 21
17, 105652, Channel_aftertouch_c, 9, 0
17, 105792, Note_on_c, 9, 40, 0
17, 105984, Note_on_c, 9, 36, 70
17, 106176, Note_on_c, 9, 36, 0
17, 106368, Note_on_c, 9, 38, 57
17, 106368, Note_on_c, 9, 40, 96
17, 106372, Channel_aftertouch_c, 9, 44
17, 106380, Note_on_c, 9, 38, 0
17, 106388, Channel_aftertouch_c, 9, 16
17, 106412, Channel_aftertouch_c, 9, 16
17, 106424, Channel_aftertouch_c, 9, 0
17, 106496, Note_on_c, 9, 40, 0
17, 106560, Note_on_c, 9, 36, 96
17, 106640, Note_on_c, 9, 36, 0
17, 106752, Note_on_c, 9, 36, 89
17, 106780, Channel_aftertouch_c, 9, 7
17, 106792, Channel_aftertouch_c, 9, 0
17, 106928, Note_on_c, 9, 36, 0
17, 107136, Note_on_c, 9, 40, 104
17, 107152, Channel_aftertouch_c, 9, 34
17, 107164, Channel_aftertouch_c, 9, 30
17, 107176, Channel_aftertouch_c, 9, 21
17, 107188, Channel_aftertouch_c, 9, 0
17, 107328, Note_on_c, 9, 40, 0
17, 107520, Note_on_c, 9, 40, 104
17, 107536, Channel_aftertouch_c, 9, 41
17, 107544, Channel_aftertouch_c, 9, 25
17, 107556, Channel_aftertouch_c, 9, 7
17, 107568, Channel_aftertouch_c, 9, 0
17, 107636, Note_on_c, 9, 40, 0
17, 107896, Note_on_c, 9, 40, 104
17, 107912, Channel_aftertouch_c, 9, 17
17, 107924, Channel_aftertouch_c, 9, 20
17, 107940, Channel_aftertouch_c, 9, 0
17, 107988, Note_on_c, 9, 40, 0
17, 108100, Note_on_c, 9, 36, 100
17, 108104, Channel_aftertouch_c, 9, 39
17, 108112, Channel_aftertouch_c, 9, 0
17, 108152, Note_on_c, 9, 36, 0
17, 108292, Note_on_c, 9, 36, 113
17, 108296, Channel_aftertouch_c, 9, 96
17, 108304, Channel_aftertouch_c, 9, 0
17, 108416, Note_on_c, 9, 36, 0
17, 108656, Note_on_c, 9, 40, 108
17, 108656, Channel_aftertouch_c, 9, 101
17, 108672, Channel_aftertouch_c, 9, 6
17, 108680, Channel_aftertouch_c, 9, 28
17, 108692, Channel_aftertouch_c, 9, 0
17, 108728, Note_on_c, 9, 40, 0
17, 109056, Note_on_c, 9, 36, 117
17, 109056, Channel_aftertouch_c, 9, 29
17, 109064, Channel_aftertouch_c, 9, 0
17, 109096, Note_on_c, 9, 36, 0
17, 109348, Note_on_c, 9, 40, 113
17, 109368, Channel_aftertouch_c, 9, 14
17, 109376, Channel_aftertouch_c, 9, 0
17, 109404, Note_on_c, 9, 40, 0
17, 109420, Note_on_c, 9, 40, 108
17, 109440, Channel_aftertouch_c, 9, 88
17, 109448, Channel_aftertouch_c, 9, 26
17, 109460, Channel_aftertouch_c, 9, 0
17, 109472, Note_on_c, 9, 40, 0
17, 109608, Note_on_c, 9, 40, 113
17, 109620, Channel_aftertouch_c, 9, 109
17, 109632, Channel_aftertouch_c, 9, 62
17, 109644, Channel_aftertouch_c, 9, 54
17, 109656, Channel_aftertouch_c, 9, 14
17, 109668, Channel_aftertouch_c, 9, 0
17, 109680, Channel_aftertouch_c, 9, 0
17, 109728, Note_on_c, 9, 40, 0
17, 109800, Note_on_c, 9, 40, 122
17, 109808, Channel_aftertouch_c, 9, 117
17, 109824, Channel_aftertouch_c, 9, 98
17, 109832, Channel_aftertouch_c, 9, 0
17, 109852, Note_on_c, 9, 40, 0
17, 110116, Note_on_c, 9, 40, 117
17, 110120, Channel_aftertouch_c, 9, 77
17, 110132, Channel_aftertouch_c, 9, 125
17, 110144, Channel_aftertouch_c, 9, 79
17, 110156, Channel_aftertouch_c, 9, 9
17, 110168, Channel_aftertouch_c, 9, 0
17, 110176, Note_on_c, 9, 40, 0
17, 110188, Note_on_c, 9, 40, 113
17, 110192, Channel_aftertouch_c, 9, 127
17, 110208, Channel_aftertouch_c, 9, 71
17, 110216, Channel_aftertouch_c, 9, 0
17, 110232, Note_on_c, 9, 40, 0
17, 110592, Note_on_c, 9, 36, 108
17, 110592, Note_on_c, 9, 40, 104
17, 110604, Channel_aftertouch_c, 9, 92
17, 110616, Channel_aftertouch_c, 9, 80
17, 110628, Channel_aftertouch_c, 9, 27
17, 110640, Channel_aftertouch_c, 9, 0
17, 110656, Note_on_c, 9, 40, 0
17, 110656, Note_on_c, 9, 36, 0
17, 110784, Note_on_c, 9, 36, 104
17, 110976, Note_on_c, 9, 40, 108
17, 110984, Channel_aftertouch_c, 9, 42
17, 110992, Channel_aftertouch_c, 9, 71
17, 111008, Channel_aftertouch_c, 9, 59
17, 111016, Channel_aftertouch_c, 9, 0
17, 111020, Note_on_c, 9, 36, 0
17, 111104, Note_on_c, 9, 40, 0
17, 111168, Note_on_c, 9, 36, 100
17, 111220, Note_on_c, 9, 36, 0
17, 111348, Channel_aftertouch_c, 9, 45
17, 111360, Note_on_c, 9, 40, 108
17, 111360, Note_on_c, 9, 36, 113
17, 111360, Channel_aftertouch_c, 9, 71
17, 111376, Channel_aftertouch_c, 9, 105
17, 111384, Channel_aftertouch_c, 9, 101
17, 111400, Channel_aftertouch_c, 9, 22
17, 111408, Channel_aftertouch_c, 9, 0
17, 111444, Note_on_c, 9, 36, 0
17, 111476, Note_on_c, 9, 40, 0
17, 111552, Note_on_c, 9, 36, 104
17, 111744, Note_on_c, 9, 40, 104
17, 111760, Channel_aftertouch_c, 9, 72
17, 111768, Note_on_c, 9, 36, 0
17, 111768, Channel_aftertouch_c, 9, 63
17, 111780, Channel_aftertouch_c, 9, 49
17, 111792, Channel_aftertouch_c, 9, 0
17, 111816, Note_on_c, 9, 40, 0
17, 111936, Note_on_c, 9, 36, 108
17, 111948, Channel_aftertouch_c, 9, 55
17, 111960, Channel_aftertouch_c, 9, 0
17, 111972, Channel_aftertouch_c, 9, 8
17, 111984, Channel_aftertouch_c, 9, 24
17, 111996, Channel_aftertouch_c, 9, 30
17, 112008, Channel_aftertouch_c, 9, 32
17, 112016, Channel_aftertouch_c, 9, 28
17, 112032, Channel_aftertouch_c, 9, 20
17, 112044, Channel_aftertouch_c, 9, 5
17, 112052, Channel_aftertouch_c, 9, 0
17, 112088, Note_on_c, 9, 36, 0
17, 112128, Note_on_c, 9, 36, 108
17, 112128, Note_on_c, 9, 40, 104
17, 112140, Channel_aftertouch_c, 9, 92
17, 112152, Channel_aftertouch_c, 9, 80
17, 112164, Channel_aftertouch_c, 9, 27
17, 112176, Channel_aftertouch_c, 9, 0
17, 112192, Note_on_c, 9, 40, 0
17, 112192, Note_on_c, 9, 36, 0
17, 112320, Note_on_c, 9, 36, 104
17, 112512, Note_on_c, 9, 40, 108
17, 112520, Channel_aftertouch_c, 9, 42
17, 112528, Channel_aftertouch_c, 9, 71
17, 112544, Channel_aftertouch_c, 9, 59
17, 112552, Channel_aftertouch_c, 9, 0
17, 112556, Note_on_c, 9, 36, 0
17, 112640, Note_on_c, 9, 40, 0
17, 112704, Note_on_c, 9, 36, 100
17, 112756, Note_on_c, 9, 36, 0
17, 112884, Channel_aftertouch_c, 9, 45
17, 112896, Note_on_c, 9, 40, 108
17, 112896, Note_on_c, 9, 36, 113
17, 112896, Channel_aftertouch_c, 9, 71
17, 112912, Channel_aftertouch_c, 9, 105
17, 112920, Channel_aftertouch_c, 9, 101
17, 112936, Channel_aftertouch_c, 9, 22
17, 112944, Channel_aftertouch_c, 9, 0
17, 112980, Note_on_c, 9, 36, 0
17, 113012, Note_on_c, 9, 40, 0
17, 113088, Note_on_c, 9, 36, 104
17, 113280, Note_on_c, 9, 40, 104
17, 113296, Channel_aftertouch_c, 9, 72
17, 113304, Note_on_c, 9, 36, 0
17, 113304, Channel_aftertouch_c, 9, 63
17, 113316, Channel_aftertouch_c, 9, 49
17, 113328, Channel_aftertouch_c, 9, 0
17, 113352, Note_on_c, 9, 40, 0
17, 113472, Note_on_c, 9, 36, 108
17, 113484, Channel_aftertouch_c, 9, 55
17, 113496, Channel_aftertouch_c, 9, 0
17, 113508, Channel_aftertouch_c, 9, 8
17, 113520, Channel_aftertouch_c, 9, 24
17, 113532, Channel_aftertouch_c, 9, 30
17, 113544, Channel_aftertouch_c, 9, 32
17, 113552, Channel_aftertouch_c, 9, 28
17, 113568, Channel_aftertouch_c, 9, 20
17, 113580, Channel_aftertouch_c, 9, 5
17, 113588, Channel_aftertouch_c, 9, 0
17, 113624, Note_on_c, 9, 36, 0
17, 113664, Note_on_c, 9, 40, 104
17, 113664, Note_on_c, 9, 36, 108
17, 113676, Channel_aftertouch_c, 9, 92
17, 113688, Channel_aftertouch_c, 9, 80
17, 113700, Channel_aftertouch_c, 9, 27
17, 113712, Channel_aftertouch_c, 9, 0
17, 113728, Note_on_c, 9, 36, 0
17, 113728, Note_on_c, 9, 40, 0
17, 113952, Note_on_c, 9, 36, 104
17, 114048, Note_on_c, 9, 40, 108
17, 114056, Channel_aftertouch_c, 9, 42
17, 114064, Channel_aftertouch_c, 9, 71
17, 114080, Channel_aftertouch_c, 9, 59
17, 114088, Channel_aftertouch_c, 9, 0
17, 114176, Note_on_c, 9, 40, 0
17, 114188, Note_on_c, 9, 36, 0
17, 114240, Note_on_c, 9, 36, 100
17, 114292, Note_on_c, 9, 36, 0
17, 114420, Channel_aftertouch_c, 9, 45
17, 114432, Note_on_c, 9, 36, 113
17, 114432, Note_on_c, 9, 40, 108
17, 114432, Channel_aftertouch_c, 9, 71
17, 114448, Channel_aftertouch_c, 9, 105
17, 114456, Channel_aftertouch_c, 9, 101
17, 114472, Channel_aftertouch_c, 9, 22
17, 114480, Channel_aftertouch_c, 9, 0
17, 114516, Note_on_c, 9, 36, 0
17, 114548, Note_on_c, 9, 40, 0
17, 114624, Note_on_c, 9, 36, 104
17, 114816, Note_on_c, 9, 40, 104
17, 114832, Channel_aftertouch_c, 9, 72
17, 114840, Note_on_c, 9, 36, 0
17, 114840, Channel_aftertouch_c, 9, 63
17, 114852, Channel_aftertouch_c, 9, 49
17, 114864, Channel_aftertouch_c, 9, 0
17, 114888, Note_on_c, 9, 40, 0
17, 115008, Note_on_c, 9, 36, 108
17, 115020, Channel_aftertouch_c, 9, 55
17, 115032, Channel_aftertouch_c, 9, 0
17, 115044, Channel_aftertouch_c, 9, 8
17, 115056, Channel_aftertouch_c, 9, 24
17, 115068, Channel_aftertouch_c, 9, 30
17, 115080, Channel_aftertouch_c, 9, 32
17, 115088, Channel_aftertouch_c, 9, 28
17, 115104, Channel_aftertouch_c, 9, 20
17, 115116, Channel_aftertouch_c, 9, 5
17, 115124, Channel_aftertouch_c, 9, 0
17, 115160, Note_on_c, 9, 36, 0
17, 115200, Note_on_c, 9, 36, 108
17, 115200, Note_on_c, 9, 40, 104
17, 115212, Channel_aftertouch_c, 9, 92
17, 115224, Channel_aftertouch_c, 9, 80
17, 115236, Channel_aftertouch_c, 9, 27
17, 115248, Channel_aftertouch_c, 9, 0
17, 115264, Note_on_c, 9, 40, 0
17, 115264, Note_on_c, 9, 36, 0
17, 115392, Note_on_c, 9, 36, 104
17, 115584, Note_on_c, 9, 40, 108
17, 115592, Channel_aftertouch_c, 9, 42
17, 115600, Channel_aftertouch_c, 9, 71
17, 115616, Channel_aftertouch_c, 9, 59
17, 115624, Channel_aftertouch_c, 9, 0
17, 115628, Note_on_c, 9, 36, 0
17, 115712, Note_on_c, 9, 40, 0
17, 115776, Note_on_c, 9, 36, 100
17, 115828, Note_on_c, 9, 36, 0
17, 115956, Channel_aftertouch_c, 9, 45
17, 115968, Note_on_c, 9, 40, 108
17, 115968, Note_on_c, 9, 36, 113
17, 115968, Channel_aftertouch_c, 9, 71
17, 115984, Channel_aftertouch_c, 9, 105
17, 115992, Channel_aftertouch_c, 9, 101
17, 116008, Channel_aftertouch_c, 9, 22
17, 116016, Channel_aftertouch_c, 9, 0
17, 116052, Note_on_c, 9, 36, 0
17, 116084, Note_on_c, 9, 40, 0
17, 116160, Note_on_c, 9, 36, 104
17, 116352, Note_on_c, 9, 40, 104
17, 116368, Channel_aftertouch_c, 9, 72
17, 116376, Note_on_c, 9, 36, 0
17, 116376, Channel_aftertouch_c, 9, 63
17, 116388, Channel_aftertouch_c, 9, 49
17, 116400, Channel_aftertouch_c, 9, 0
17, 116424, Note_on_c, 9, 40, 0
17, 116544, Note_on_c, 9, 36, 108
17, 116556, Channel_aftertouch_c, 9, 55
17, 116568, Channel_aftertouch_c, 9, 0
17, 116580, Channel_aftertouch_c, 9, 8
17, 116592, Channel_aftertouch_c, 9, 24
17, 116604, Channel_aftertouch_c, 9, 30
17, 116616, Channel_aftertouch_c, 9, 32
17, 116624, Channel_aftertouch_c, 9, 28
17, 116640, Channel_aftertouch_c, 9, 20
17, 116652, Channel_aftertouch_c, 9, 5
17, 116660, Channel_aftertouch_c, 9, 0
17, 116696, Note_on_c, 9, 36, 0
17, 116736, Note_on_c, 9, 36, 108
17, 116736, Note_on_c, 9, 40, 104
17, 116748, Channel_aftertouch_c, 9, 92
17, 116760, Channel_aftertouch_c, 9, 80
17, 116772, Channel_aftertouch_c, 9, 27
17, 116784, Channel_aftertouch_c, 9, 0
17, 116800, Note_on_c, 9, 40, 0
17, 116800, Note_on_c, 9, 36, 0
17, 116928, Note_on_c, 9, 36, 104
17, 117120, Note_on_c, 9, 40, 108
17, 117128, Channel_aftertouch_c, 9, 42
17, 117136, Channel_aftertouch_c, 9, 71
17, 117152, Channel_aftertouch_c, 9, 59
17, 117160, Channel_aftertouch_c, 9, 0
17, 117164, Note_on_c, 9, 36, 0
17, 117248, Note_on_c, 9, 40, 0
17, 117312, Note_on_c, 9, 36, 100
17, 117364, Note_on_c, 9, 36, 0
17, 117492, Channel_aftertouch_c, 9, 45
17, 117504, Note_on_c, 9, 40, 108
17, 117504, Note_on_c, 9, 36, 113
17, 117504, Channel_aftertouch_c, 9, 71
17, 117520, Channel_aftertouch_c, 9, 105
17, 117528, Channel_aftertouch_c, 9, 101
17, 117544, Channel_aftertouch_c, 9, 22
17, 117552, Channel_aftertouch_c, 9, 0
17, 117588, Note_on_c, 9, 36, 0
17, 117620, Note_on_c, 9, 40, 0
17, 117696, Note_on_c, 9, 36, 104
17, 117888, Note_on_c, 9, 40, 104
17, 117904, Channel_aftertouch_c, 9, 72
17, 117912, Note_on_c, 9, 36, 0
17, 117912, Channel_aftertouch_c, 9, 63
17, 117924, Channel_aftertouch_c, 9, 49
17, 117936, Channel_aftertouch_c, 9, 0
17, 117960, Note_on_c, 9, 40, 0
17, 118080, Note_on_c, 9, 36, 108
17, 118092, Channel_aftertouch_c, 9, 55
17, 118104, Channel_aftertouch_c, 9, 0
17, 118116, Channel_aftertouch_c, 9, 8
17, 118128, Channel_aftertouch_c, 9, 24
17, 118140, Channel_aftertouch_c, 9, 30
17, 118152, Channel_aftertouch_c, 9, 32
17, 118160, Channel_aftertouch_c, 9, 28
17, 118176, Channel_aftertouch_c, 9, 20
17, 118188, Channel_aftertouch_c, 9, 5
17, 118196, Channel_aftertouch_c, 9, 0
17, 118232, Note_on_c, 9, 36, 0
17, 118272, Note_on_c, 9, 36, 108
17, 118272, Note_on_c, 9, 40, 104
17, 118284, Channel_aftertouch_c, 9, 92
17, 118296, Channel_aftertouch_c, 9, 80
17, 118308, Channel_aftertouch_c, 9, 27
17, 118320, Channel_aftertouch_c, 9, 0
17, 118336, Note_on_c, 9, 40, 0
17, 118336, Note_on_c, 9, 36, 0
17, 118464, Note_on_c, 9, 36, 104
17, 118656, Note_on_c, 9, 40, 108
17, 118664, Channel_aftertouch_c, 9, 42
17, 118672, Channel_aftertouch_c, 9, 71
17, 118688, Channel_aftertouch_c, 9, 59
17, 118696, Channel_aftertouch_c, 9, 0
17, 118700, Note_on_c, 9, 36, 0
17, 118784, Note_on_c, 9, 40, 0
17, 118848, Note_on_c, 9, 36, 100
17, 118900, Note_on_c, 9, 36, 0
17, 119028, Channel_aftertouch_c, 9, 45
17, 119040, Note_on_c, 9, 40, 108
17, 119040, Note_on_c, 9, 36, 113
17, 119040, Channel_aftertouch_c, 9, 71
17, 119056, Channel_aftertouch_c, 9, 105
17, 119064, Channel_aftertouch_c, 9, 101
17, 119080, Channel_aftertouch_c, 9, 22
17, 119088, Channel_aftertouch_c, 9, 0
17, 119124, Note_on_c, 9, 36, 0
17, 119156, Note_on_c, 9, 40, 0
17, 119232, Note_on_c, 9, 36, 104
17, 119424, Note_on_c, 9, 40, 104
17, 119440, Channel_aftertouch_c, 9, 72
17, 119448, Note_on_c, 9, 36, 0
17, 119448, Channel_aftertouch_c, 9, 63
17, 119460, Channel_aftertouch_c, 9, 49
17, 119472, Channel_aftertouch_c, 9, 0
17, 119496, Note_on_c, 9, 40, 0
17, 119616, Note_on_c, 9, 36, 108
17, 119628, Channel_aftertouch_c, 9, 55
17, 119640, Channel_aftertouch_c, 9, 0
17, 119652, Channel_aftertouch_c, 9, 8
17, 119664, Channel_aftertouch_c, 9, 24
17, 119676, Channel_aftertouch_c, 9, 30
17, 119688, Channel_aftertouch_c, 9, 32
17, 119696, Channel_aftertouch_c, 9, 28
17, 119712, Channel_aftertouch_c, 9, 20
17, 119724, Channel_aftertouch_c, 9, 5
17, 119732, Channel_aftertouch_c, 9, 0
17, 119768, Note_on_c, 9, 36, 0
17, 119808, Note_on_c, 9, 40, 104
17, 119808, Note_on_c, 9, 36, 108
17, 119820, Channel_aftertouch_c, 9, 92
17, 119832, Channel_aftertouch_c, 9, 80
17, 119844, Channel_aftertouch_c, 9, 27
17, 119856, Channel_aftertouch_c, 9, 0
17, 119872, Note_on_c, 9, 36, 0
17, 119872, Note_on_c, 9, 40, 0
17, 120096, Note_on_c, 9, 36, 104
17, 120192, Note_on_c, 9, 40, 108
17, 120200, Channel_aftertouch_c, 9, 42
17, 120208, Channel_aftertouch_c, 9, 71
17, 120224, Channel_aftertouch_c, 9, 59
17, 120232, Channel_aftertouch_c, 9, 0
17, 120320, Note_on_c, 9, 40, 0
17, 120332, Note_on_c, 9, 36, 0
17, 120384, Note_on_c, 9, 36, 100
17, 120436, Note_on_c, 9, 36, 0
17, 120564, Channel_aftertouch_c, 9, 45
17, 120576, Note_on_c, 9, 36, 113
17, 120576, Note_on_c, 9, 40, 108
17, 120576, Channel_aftertouch_c, 9, 71
17, 120592, Channel_aftertouch_c, 9, 105
17, 120600, Channel_aftertouch_c, 9, 101
17, 120616, Channel_aftertouch_c, 9, 22
17, 120624, Channel_aftertouch_c, 9, 0
17, 120660, Note_on_c, 9, 36, 0
17, 120692, Note_on_c, 9, 40, 0
17, 120768, Note_on_c, 9, 36, 104
17, 120960, Note_on_c, 9, 40, 104
17, 120976, Channel_aftertouch_c, 9, 72
17, 120984, Note_on_c, 9, 36, 0
17, 120984, Channel_aftertouch_c, 9, 63
17, 120996, Channel_aftertouch_c, 9, 49
17, 121008, Channel_aftertouch_c, 9, 0
17, 121032, Note_on_c, 9, 40, 0
17, 121152, Note_on_c, 9, 36, 108
17, 121164, Channel_aftertouch_c, 9, 55
17, 121176, Channel_aftertouch_c, 9, 0
17, 121188, Channel_aftertouch_c, 9, 8
17, 121200, Channel_aftertouch_c, 9, 24
17, 121212, Channel_aftertouch_c, 9, 30
17, 121224, Channel_aftertouch_c, 9, 32
17, 121232, Channel_aftertouch_c, 9, 28
17, 121248, Channel_aftertouch_c, 9, 20
17, 121260, Channel_aftertouch_c, 9, 5
17, 121268, Channel_aftertouch_c, 9, 0
17, 121304, Note_on_c, 9, 36, 0
17, 121344, Note_on_c, 9, 40, 104
17, 121344, Note_on_c, 9, 36, 108
17, 121356, Channel_aftertouch_c, 9, 92
17, 121368, Channel_aftertouch_c, 9, 80
17, 121380, Channel_aftertouch_c, 9, 27
17, 121392, Channel_aftertouch_c, 9, 0
17, 121408, Note_on_c, 9, 36, 0
17, 121408, Note_on_c, 9, 40, 0
17, 121536, Note_on_c, 9, 36, 104
17, 121728, Note_on_c, 9, 40, 108
17, 121736, Channel_aftertouch_c, 9, 42
17, 121744, Channel_aftertouch_c, 9, 71
17, 121760, Channel_aftertouch_c, 9, 59
17, 121768, Channel_aftertouch_c, 9, 0
17, 121772, Note_on_c, 9, 36, 0
17, 121856, Note_on_c, 9, 40, 0
17, 121920, Note_on_c, 9, 36, 100
17, 121972, Note_on_c, 9, 36, 0
17, 122100, Channel_aftertouch_c, 9, 45
17, 122112, Note_on_c, 9, 36, 113
17, 122112, Note_on_c, 9, 40, 108
17, 122112, Channel_aftertouch_c, 9, 71
17, 122128, Channel_aftertouch_c, 9, 105
17, 122136, Channel_aftertouch_c, 9, 101
17, 122152, Channel_aftertouch_c, 9, 22
17, 122160, Channel_aftertouch_c, 9, 0
17, 122196, Note_on_c, 9, 36, 0
17, 122228, Note_on_c, 9, 40, 0
17, 122304, Note_on_c, 9, 36, 104
17, 122496, Note_on_c, 9, 40, 104
17, 122512, Channel_aftertouch_c, 9, 72
17, 122520, Note_on_c, 9, 36, 0
17, 122520, Channel_aftertouch_c, 9, 63
17, 122532, Channel_aftertouch_c, 9, 49
17, 122544, Channel_aftertouch_c, 9, 0
17, 122568, Note_on_c, 9, 40, 0
17, 122688, Note_on_c, 9, 36, 108
17, 122700, Channel_aftertouch_c, 9, 55
17, 122712, Channel_aftertouch_c, 9, 0
17, 122724, Channel_aftertouch_c, 9, 8
17, 122736, Channel_aftertouch_c, 9, 24
17, 122748, Channel_aftertouch_c, 9, 30
17, 122760, Channel_aftertouch_c, 9, 32
17, 122768, Channel_aftertouch_c, 9, 28
17, 122784, Channel_aftertouch_c, 9, 20
17, 122796, Channel_aftertouch_c, 9, 5
17, 122804, Channel_aftertouch_c, 9, 0
17, 122840, Note_on_c, 9, 36, 0
17, 122880, Note_on_c, 9, 40, 104
17, 122880, Note_on_c, 9, 36, 108
17, 122892, Channel_aftertouch_c, 9, 92
17, 122904, Channel_aftertouch_c, 9, 80
17, 122916, Channel_aftertouch_c, 9, 27
17, 122928, Channel_aftertouch_c, 9, 0
17, 122944, Note_on_c, 9, 36, 0
17, 122944, Note_on_c, 9, 40, 0
17, 123072, Note_on_c, 9, 36, 104
17, 123264, Note_on_c, 9, 40, 108
17, 123272, Channel_aftertouch_c, 9, 42
17, 123280, Channel_aftertouch_c, 9, 71
17, 123296, Channel_aftertouch_c, 9, 59
17, 123304, Channel_aftertouch_c, 9, 0
17, 123308, Note_on_c, 9, 36, 0
17, 123392, Note_on_c, 9, 40, 0
17, 123456, Note_on_c, 9, 36, 100
17, 123508, Note_on_c, 9, 36, 0
17, 123636, Channel_aftertouch_c, 9, 45
17, 123648, Note_on_c, 9, 36, 113
17, 123648, Note_on_c, 9, 40, 108
17, 123648, Channel_aftertouch_c, 9, 71
17, 123664, Channel_aftertouch_c, 9, 105
17, 123672, Channel_aftertouch_c, 9, 101
17, 123688, Channel_aftertouch_c, 9, 22
17, 123696, Channel_aftertouch_c, 9, 0
17, 123732, Note_on_c, 9, 36, 0
17, 123764, Note_on_c, 9, 40, 0
17, 123840, Note_on_c, 9, 36, 104
17, 124032, Note_on_c, 9, 40, 104
17, 124048, Channel_aftertouch_c, 9, 72
17, 124056, Note_on_c, 9, 36, 0
17, 124056, Channel_aftertouch_c, 9, 63
17, 124068, Channel_aftertouch_c, 9, 49
17, 124080, Channel_aftertouch_c, 9, 0
17, 124104, Note_on_c, 9, 40, 0
17, 124224, Note_on_c, 9, 36, 108
17, 124236, Channel_aftertouch_c, 9, 55
17, 124248, Channel_aftertouch_c, 9, 0
17, 124260, Channel_aftertouch_c, 9, 8
17, 124272, Channel_aftertouch_c, 9, 24
17, 124284, Channel_aftertouch_c, 9, 30
17, 124296, Channel_aftertouch_c, 9, 32
17, 124304, Channel_aftertouch_c, 9, 28
17, 124320, Channel_aftertouch_c, 9, 20
17, 124332, Channel_aftertouch_c, 9, 5
17, 124340, Channel_aftertouch_c, 9, 0
17, 124376, Note_on_c, 9, 36, 0
17, 124416, Note_on_c, 9, 40, 104
17, 124416, Note_on_c, 9, 36, 108
17, 124428, Channel_aftertouch_c, 9, 92
17, 124440, Channel_aftertouch_c, 9, 80
17, 124452, Channel_aftertouch_c, 9, 27
17, 124464, Channel_aftertouch_c, 9, 0
17, 124480, Note_on_c, 9, 36, 0
17, 124480, Note_on_c, 9, 40, 0
17, 124608, Note_on_c, 9, 36, 104
17, 124800, Note_on_c, 9, 40, 108
17, 124808, Channel_aftertouch_c, 9, 42
17, 124816, Channel_aftertouch_c, 9, 71
17, 124832, Channel_aftertouch_c, 9, 59
17, 124840, Channel_aftertouch_c, 9, 0
17, 124844, Note_on_c, 9, 36, 0
17, 124928, Note_on_c, 9, 40, 0
17, 124992, Note_on_c, 9, 36, 100
17, 125044, Note_on_c, 9, 36, 0
17, 125172, Channel_aftertouch_c, 9, 45
17, 125184, Note_on_c, 9, 36, 113
17, 125184, Note_on_c, 9, 40, 108
17, 125184, Channel_aftertouch_c, 9, 71
17, 125200, Channel_aftertouch_c, 9, 105
17, 125208, Channel_aftertouch_c, 9, 101
17, 125224, Channel_aftertouch_c, 9, 22
17, 125232, Channel_aftertouch_c, 9, 0
17, 125268, Note_on_c, 9, 36, 0
17, 125300, Note_on_c, 9, 40, 0
17, 125376, Note_on_c, 9, 36, 104
17, 125568, Note_on_c, 9, 40, 104
17, 125584, Channel_aftertouch_c, 9, 72
17, 125592, Note_on_c, 9, 36, 0
17, 125592, Channel_aftertouch_c, 9, 63
17, 125604, Channel_aftertouch_c, 9, 49
17, 125616, Channel_aftertouch_c, 9, 0
17, 125640, Note_on_c, 9, 40, 0
17, 125760, Note_on_c, 9, 36, 108
17, 125772, Channel_aftertouch_c, 9, 55
17, 125784, Channel_aftertouch_c, 9, 0
17, 125796, Channel_aftertouch_c, 9, 8
17, 125808, Channel_aftertouch_c, 9, 24
17, 125820, Channel_aftertouch_c, 9, 30
17, 125832, Channel_aftertouch_c, 9, 32
17, 125840, Channel_aftertouch_c, 9, 28
17, 125856, Channel_aftertouch_c, 9, 20
17, 125868, Channel_aftertouch_c, 9, 5
17, 125876, Channel_aftertouch_c, 9, 0
17, 125912, Note_on_c, 9, 36, 0
17, 125952, Note_on_c, 9, 40, 104
17, 125952, Note_on_c, 9, 36, 108
17, 125964, Channel_aftertouch_c, 9, 92
17, 125976, Channel_aftertouch_c, 9, 80
17, 125988, Channel_aftertouch_c, 9, 27
17, 126000, Channel_aftertouch_c, 9, 0
17, 126016, Note_on_c, 9, 36, 0
17, 126016, Note_on_c, 9, 40, 0
17, 126240, Note_on_c, 9, 36, 104
17, 126336, Note_on_c, 9, 40, 108
17, 126344, Channel_aftertouch_c, 9, 42
17, 126352, Channel_aftertouch_c, 9, 71
17, 126368, Channel_aftertouch_c, 9, 59
17, 126376, Channel_aftertouch_c, 9, 0
17, 126464, Note_on_c, 9, 40, 0
17, 126476, Note_on_c, 9, 36, 0
17, 126528, Note_on_c, 9, 36, 100
17, 126580, Note_on_c, 9, 36, 0
17, 126708, Channel_aftertouch_c, 9, 45
17, 126720, Note_on_c, 9, 36, 113
17, 126720, Note_on_c, 9, 40, 108
17, 126720, Channel_aftertouch_c, 9, 71
17, 126736, Channel_aftertouch_c, 9, 105
17, 126744, Channel_aftertouch_c, 9, 101
17, 126760, Channel_aftertouch_c, 9, 22
17, 126768, Channel_aftertouch_c, 9, 0
17, 126804, Note_on_c, 9, 36, 0
17, 126836, Note_on_c, 9, 40, 0
17, 126912, Note_on_c, 9, 36, 104
17, 127104, Note_on_c, 9, 40, 104
17, 127120, Channel_aftertouch_c, 9, 72
17, 127128, Note_on_c, 9, 36, 0
17, 127128, Channel_aftertouch_c, 9, 63
17, 127140, Channel_aftertouch_c, 9, 49
17, 127152, Channel_aftertouch_c, 9, 0
17, 127176, Note_on_c, 9, 40, 0
17, 127296, Note_on_c, 9, 36, 108
17, 127308, Channel_aftertouch_c, 9, 55
17, 127320, Channel_aftertouch_c, 9, 0
17, 127332, Channel_aftertouch_c, 9, 8
17, 127344, Channel_aftertouch_c, 9, 24
17, 127356, Channel_aftertouch_c, 9, 30
17, 127368, Channel_aftertouch_c, 9, 32
17, 127376, Channel_aftertouch_c, 9, 28
17, 127392, Channel_aftertouch_c, 9, 20
17, 127404, Channel_aftertouch_c, 9, 5
17, 127412, Channel_aftertouch_c, 9, 0
17, 127448, Note_on_c, 9, 36, 0
17, 127488, Note_on_c, 9, 40, 104
17, 127488, Note_on_c, 9, 36, 108
17, 127500, Channel_aftertouch_c, 9, 92
17, 127512, Channel_aftertouch_c, 9, 80
17, 127524, Channel_aftertouch_c, 9, 27
17, 127536, Channel_aftertouch_c, 9, 0
17, 127552, Note_on_c, 9, 36, 0
17, 127552, Note_on_c, 9, 40, 0
17, 127680, Note_on_c, 9, 36, 104
17, 127872, Note_on_c, 9, 40, 108
17, 127880, Channel_aftertouch_c, 9, 42
17, 127888, Channel_aftertouch_c, 9, 71
17, 127904, Channel_aftertouch_c, 9, 59
17, 127912, Channel_aftertouch_c, 9, 0
17, 127916, Note_on_c, 9, 36, 0
17, 128000, Note_on_c, 9, 40, 0
17, 128064, Note_on_c, 9, 36, 100
17, 128116, Note_on_c, 9, 36, 0
17, 128244, Channel_aftertouch_c, 9, 45
17, 128256, Note_on_c, 9, 36, 113
17, 128256, Note_on_c, 9, 40, 108
17, 128256, Channel_aftertouch_c, 9, 71
17, 128272, Channel_aftertouch_c, 9, 105
17, 128280, Channel_aftertouch_c, 9, 101
17, 128296, Channel_aftertouch_c, 9, 22
17, 128304, Channel_aftertouch_c, 9, 0
17, 128340, Note_on_c, 9, 36, 0
17, 128372, Note_on_c, 9, 40, 0
17, 128448, Note_on_c, 9, 36, 104
17, 128640, Note_on_c, 9, 40, 104
17, 128656, Channel_aftertouch_c, 9, 72
17, 128664, Note_on_c, 9, 36, 0
17, 128664, Channel_aftertouch_c, 9, 63
17, 128676, Channel_aftertouch_c, 9, 49
17, 128688, Channel_aftertouch_c, 9, 0
17, 128712, Note_on_c, 9, 40, 0
17, 128832, Note_on_c, 9, 36, 108
17, 128844, Channel_aftertouch_c, 9, 55
17, 128856, Channel_aftertouch_c, 9, 0
17, 128868, Channel_aftertouch_c, 9, 8
17, 128880, Channel_aftertouch_c, 9, 24
17, 128892, Channel_aftertouch_c, 9, 30
17, 128904, Channel_aftertouch_c, 9, 32
17, 128912, Channel_aftertouch_c, 9, 28
17, 128928, Channel_aftertouch_c, 9, 20
17, 128940, Channel_aftertouch_c, 9, 5
17, 128948, Channel_aftertouch_c, 9, 0
17, 128984, Note_on_c, 9, 36, 0
17, 129024, Note_on_c, 9, 40, 104
17, 129024, Note_on_c, 9, 36, 108
17, 129036, Channel_aftertouch_c, 9, 92
17, 129048, Channel_aftertouch_c, 9, 80
17, 129060, Channel_aftertouch_c, 9, 27
17, 129072, Channel_aftertouch_c, 9, 0
17, 129088, Note_on_c, 9, 36, 0
17, 129088, Note_on_c, 9, 40, 0
17, 129216, Note_on_c, 9, 36, 104
17, 129408, Note_on_c, 9, 40, 108
17, 129416, Channel_aftertouch_c, 9, 42
17, 129424, Channel_aftertouch_c, 9, 71
17, 129440, Channel_aftertouch_c, 9, 59
17, 129448, Channel_aftertouch_c, 9, 0
17, 129452, Note_on_c, 9, 36, 0
17, 129536, Note_on_c, 9, 40, 0
17, 129600, Note_on_c, 9, 36, 100
17, 129652, Note_on_c, 9, 36, 0
17, 129780, Channel_aftertouch_c, 9, 45
17, 129792, Note_on_c, 9, 36, 113
17, 129792, Note_on_c, 9, 40, 108
17, 129792, Channel_aftertouch_c, 9, 71
17, 129808, Channel_aftertouch_c, 9, 105
17, 129816, Channel_aftertouch_c, 9, 101
17, 129832, Channel_aftertouch_c, 9, 22
17, 129840, Channel_aftertouch_c, 9, 0
17, 129876, Note_on_c, 9, 36, 0
17, 129908, Note_on_c, 9, 40, 0
17, 129984, Note_on_c, 9, 36, 104
17, 130176, Note_on_c, 9, 40, 104
17, 130192, Channel_aftertouch_c, 9, 72
17, 130200, Note_on_c, 9, 36, 0
17, 130200, Channel_aftertouch_c, 9, 63
17, 130212, Channel_aftertouch_c, 9, 49
17, 130224, Channel_aftertouch_c, 9, 0
17, 130248, Note_on_c, 9, 40, 0
17, 130368, Note_on_c, 9, 36, 108
17, 130380, Channel_aftertouch_c, 9, 55
17, 130392, Channel_aftertouch_c, 9, 0
17, 130404, Channel_aftertouch_c, 9, 8
17, 130416, Channel_aftertouch_c, 9, 24
17, 130428, Channel_aftertouch_c, 9, 30
17, 130440, Channel_aftertouch_c, 9, 32
17, 130448, Channel_aftertouch_c, 9, 28
17, 130464, Channel_aftertouch_c, 9, 20
17, 130476, Channel_aftertouch_c, 9, 5
17, 130484, Channel_aftertouch_c, 9, 0
17, 130520, Note_on_c, 9, 36, 0
17, 130560, Note_on_c, 9, 40, 104
17, 130560, Note_on_c, 9, 36, 108
17, 130572, Channel_aftertouch_c, 9, 92
17, 130584, Channel_aftertouch_c, 9, 80
17, 130596, Channel_aftertouch_c, 9, 27
17, 130608, Channel_aftertouch_c, 9, 0
17, 130624, Note_on_c, 9, 36, 0
17, 130624, Note_on_c, 9, 40, 0
17, 130752, Note_on_c, 9, 36, 104
17, 130944, Note_on_c, 9, 40, 108
17, 130952, Channel_aftertouch_c, 9, 42
17, 130960, Channel_aftertouch_c, 9, 71
17, 130976, Channel_aftertouch_c, 9, 59
17, 130984, Channel_aftertouch_c, 9, 0
17, 130988, Note_on_c, 9, 36, 0
17, 131072, Note_on_c, 9, 40, 0
17, 131136, Note_on_c, 9, 36, 100
17, 131188, Note_on_c, 9, 36, 0
17, 131316, Channel_aftertouch_c, 9, 45
17, 131328, Note_on_c, 9, 36, 113
17, 131328, Note_on_c, 9, 40, 108
17, 131328, Channel_aftertouch_c, 9, 71
17, 131344, Channel_aftertouch_c, 9, 105
17, 131352, Channel_aftertouch_c, 9, 101
17, 131368, Channel_aftertouch_c, 9, 22
17, 131376, Channel_aftertouch_c, 9, 0
17, 131412, Note_on_c, 9, 36, 0
17, 131444, Note_on_c, 9, 40, 0
17, 131520, Note_on_c, 9, 36, 104
17, 131712, Note_on_c, 9, 40, 104
17, 131728, Channel_aftertouch_c, 9, 72
17, 131736, Note_on_c, 9, 36, 0
17, 131736, Channel_aftertouch_c, 9, 63
17, 131748, Channel_aftertouch_c, 9, 49
17, 131760, Channel_aftertouch_c, 9, 0
17, 131784, Note_on_c, 9, 40, 0
17, 131904, Note_on_c, 9, 36, 108
17, 131916, Channel_aftertouch_c, 9, 55
17, 131928, Channel_aftertouch_c, 9, 0
17, 131940, Channel_aftertouch_c, 9, 8
17, 131952, Channel_aftertouch_c, 9, 24
17, 131964, Channel_aftertouch_c, 9, 30
17, 131976, Channel_aftertouch_c, 9, 32
17, 131984, Channel_aftertouch_c, 9, 28
17, 132000, Channel_aftertouch_c, 9, 20
17, 132012, Channel_aftertouch_c, 9, 5
17, 132020, Channel_aftertouch_c, 9, 0
17, 132056, Note_on_c, 9, 36, 0
17, 132096, Note_on_c, 9, 40, 104
17, 132096, Note_on_c, 9, 36, 100
17, 132144, Note_on_c, 9, 36, 0
17, 132144, Channel_aftertouch_c, 9, 50
17, 132152, Note_on_c, 9, 40, 0
17, 132152, Channel_aftertouch_c, 9, 0
17, 132288, Note_on_c, 9, 36, 89
17, 132316, Note_on_c, 9, 36, 0
17, 132480, Note_on_c, 9, 40, 104
17, 132480, Note_on_c, 9, 36, 104
17, 132500, Channel_aftertouch_c, 9, 34
17, 132512, Channel_aftertouch_c, 9, 17
17, 132520, Channel_aftertouch_c, 9, 29
17, 132524, Note_on_c, 9, 36, 0
17, 132532, Note_on_c, 9, 40, 0
17, 132536, Channel_aftertouch_c, 9, 0
17, 132672, Note_on_c, 9, 36, 96
17, 132704, Note_on_c, 9, 36, 0
17, 132864, Note_on_c, 9, 40, 100
17, 132864, Note_on_c, 9, 36, 108
17, 132896, Channel_aftertouch_c, 9, 75
17, 132904, Channel_aftertouch_c, 9, 79
17, 132908, Note_on_c, 9, 36, 0
17, 132912, Note_on_c, 9, 40, 0
17, 132920, Channel_aftertouch_c, 9, 0
17, 133056, Note_on_c, 9, 36, 108
17, 133092, Note_on_c, 9, 36, 0
17, 133248, Note_on_c, 9, 40, 104
17, 133248, Note_on_c, 9, 36, 117
17, 133280, Channel_aftertouch_c, 9, 68
17, 133288, Channel_aftertouch_c, 9, 99
17, 133292, Note_on_c, 9, 36, 0
17, 133296, Note_on_c, 9, 40, 0
17, 133304, Channel_aftertouch_c, 9, 30
17, 133312, Channel_aftertouch_c, 9, 0
17, 133440, Note_on_c, 9, 36, 117
17, 133460, Channel_aftertouch_c, 9, 127
17, 133472, Channel_aftertouch_c, 9, 0
17, 133488, Note_on_c, 9, 36, 0
17, 133632, Note_on_c, 9, 40, 104
17, 133632, Note_on_c, 9, 36, 100
17, 133680, Note_on_c, 9, 36, 0
17, 133680, Channel_aftertouch_c, 9, 50
17, 133688, Note_on_c, 9, 40, 0
17, 133688, Channel_aftertouch_c, 9, 0
17, 133824, Note_on_c, 9, 36, 89
17, 133852, Note_on_c, 9, 36, 0
17, 134016, Note_on_c, 9, 40, 104
17, 134016, Note_on_c, 9, 36, 104
17, 134036, Channel_aftertouch_c, 9, 34
17, 134048, Channel_aftertouch_c, 9, 17
17, 134056, Channel_aftertouch_c, 9, 29
17, 134060, Note_on_c, 9, 36, 0
17, 134068, Note_on_c, 9, 40, 0
17, 134072, Channel_aftertouch_c, 9, 0
17, 134208, Note_on_c, 9, 36, 96
17, 134240, Note_on_c, 9, 36, 0
17, 134400, Note_on_c, 9, 40, 100
17, 134400, Note_on_c, 9, 36, 108
17, 134432, Channel_aftertouch_c, 9, 75
17, 134440, Channel_aftertouch_c, 9, 79
17, 134444, Note_on_c, 9, 36, 0
17, 134448, Note_on_c, 9, 40, 0
17, 134456, Channel_aftertouch_c, 9, 0
17, 134592, Note_on_c, 9, 36, 108
17, 134628, Note_on_c, 9, 36, 0
17, 134776, Note_on_c, 9, 40, 120
17, 134784, Note_on_c, 9, 40, 120
17, 134816, Channel_aftertouch_c, 9, 68
17, 134824, Note_on_c, 9, 40, 0
17, 134824, Channel_aftertouch_c, 9, 99
17, 134832, Note_on_c, 9, 40, 0
17, 134840, Channel_aftertouch_c, 9, 30
17, 134848, Channel_aftertouch_c, 9, 0
17, 134976, Note_on_c, 9, 36, 120
17, 134996, Channel_aftertouch_c, 9, 127
17, 135008, Channel_aftertouch_c, 9, 0
17, 135024, Note_on_c, 9, 36, 0
17, 135168, Note_on_c, 9, 36, 70
17, 135360, Note_on_c, 9, 36, 0
17, 135552, Note_on_c, 9, 38, 57
17, 135552, Note_on_c, 9, 40, 96
17, 135556, Channel_aftertouch_c, 9, 44
17, 135564, Note_on_c, 9, 38, 0
17, 135572, Channel_aftertouch_c, 9, 16
17, 135596, Channel_aftertouch_c, 9, 16
17, 135608, Channel_aftertouch_c, 9, 0
17, 135680, Note_on_c, 9, 40, 0
17, 135744, Note_on_c, 9, 36, 96
17, 135824, Note_on_c, 9, 36, 0
17, 135936, Note_on_c, 9, 36, 89
17, 135964, Channel_aftertouch_c, 9, 7
17, 135976, Channel_aftertouch_c, 9, 0
17, 136112, Note_on_c, 9, 36, 0
17, 136320, Note_on_c, 9, 40, 104
17, 136336, Channel_aftertouch_c, 9, 34
17, 136348, Channel_aftertouch_c, 9, 30
17, 136360, Channel_aftertouch_c, 9, 21
17, 136372, Channel_aftertouch_c, 9, 0
17, 136512, Note_on_c, 9, 40, 0
17, 136704, Note_on_c, 9, 36, 70
17, 136896, Note_on_c, 9, 36, 0
17, 137088, Note_on_c, 9, 38, 57
17, 137088, Note_on_c, 9, 40, 96
17, 137092, Channel_aftertouch_c, 9, 44
17, 137100, Note_on_c, 9, 38, 0
17, 137108, Channel_aftertouch_c, 9, 16
17, 137132, Channel_aftertouch_c, 9, 16
17, 137144, Channel_aftertouch_c, 9, 0
17, 137216, Note_on_c, 9, 40, 0
17, 137280, Note_on_c, 9, 36, 96
17, 137360, Note_on_c, 9, 36, 0
17, 137472, Note_on_c, 9, 36, 89
17, 137500, Channel_aftertouch_c, 9, 7
17, 137512, Channel_aftertouch_c, 9, 0
17, 137648, Note_on_c, 9, 36, 0
17, 137856, Note_on_c, 9, 40, 104
17, 137872, Channel_aftertouch_c, 9, 34
17, 137884, Channel_aftertouch_c, 9, 30
17, 137896, Channel_aftertouch_c, 9, 21
17, 137908, Channel_aftertouch_c, 9, 0
17, 138048, Note_on_c, 9, 40, 0
17, 138240, Note_on_c, 9, 36, 70
17, 138432, Note_on_c, 9, 36, 0
17, 138624, Note_on_c, 9, 38, 57
17, 138624, Note_on_c, 9, 40, 96
17, 138628, Channel_aftertouch_c, 9, 44
17, 138636, Note_on_c, 9, 38, 0
17, 138644, Channel_aftertouch_c, 9, 16
17, 138668, Channel_aftertouch_c, 9, 16
17, 138680, Channel_aftertouch_c, 9, 0
17, 138752, Note_on_c, 9, 40, 0
17, 138816, Note_on_c, 9, 36, 96
17, 138896, Note_on_c, 9, 36, 0
17, 139008, Note_on_c, 9, 36, 89
17, 139036, Channel_aftertouch_c, 9, 7
17, 139048, Channel_aftertouch_c, 9, 0
17, 139184, Note_on_c, 9, 36, 0
17, 139392, Note_on_c, 9, 40, 104
17, 139408, Channel_aftertouch_c, 9, 34
17, 139420, Channel_aftertouch_c, 9, 30
17, 139432, Channel_aftertouch_c, 9, 21
17, 139444, Channel_aftertouch_c, 9, 0
17, 139584, Note_on_c, 9, 40, 0
17, 139776, Note_on_c, 9, 36, 70
17, 139968, Note_on_c, 9, 36, 0
17, 140160, Note_on_c, 9, 38, 57
17, 140160, Note_on_c, 9, 40, 96
17, 140164, Channel_aftertouch_c, 9, 44
17, 140172, Note_on_c, 9, 38, 0
17, 140180, Channel_aftertouch_c, 9, 16
17, 140204, Channel_aftertouch_c, 9, 16
17, 140216, Channel_aftertouch_c, 9, 0
17, 140288, Note_on_c, 9, 40, 0
17, 140352, Note_on_c, 9, 36, 96
17, 140432, Note_on_c, 9, 36, 0
17, 140544, Note_on_c, 9, 36, 89
17, 140572, Channel_aftertouch_c, 9, 7
17, 140584, Channel_aftertouch_c, 9, 0
17, 140720, Note_on_c, 9, 36, 0
17, 140928, Note_on_c, 9, 40, 104
17, 140944, Channel_aftertouch_c, 9, 34
17, 140956, Channel_aftertouch_c, 9, 30
17, 140968, Channel_aftertouch_c, 9, 21
17, 140980, Channel_aftertouch_c, 9, 0
17, 141120, Note_on_c, 9, 40, 0
17, 141312, Note_on_c, 9, 36, 70
17, 141504, Note_on_c, 9, 36, 0
17, 141696, Note_on_c, 9, 38, 57
17, 141696, Note_on_c, 9, 40, 96
17, 141700, Channel_aftertouch_c, 9, 44
17, 141708, Note_on_c, 9, 38, 0
17, 141716, Channel_aftertouch_c, 9, 16
17, 141740, Channel_aftertouch_c, 9, 16
17, 141752, Channel_aftertouch_c, 9, 0
17, 141824, Note_on_c, 9, 40, 0
17, 141888, Note_on_c, 9, 36, 96
17, 141968, Note_on_c, 9, 36, 0
17, 142080, Note_on_c, 9, 36, 89
17, 142108, Channel_aftertouch_c, 9, 7
17, 142120, Channel_aftertouch_c, 9, 0
17, 142256, Note_on_c, 9, 36, 0
17, 142464, Note_on_c, 9, 40, 104
17, 142480, Channel_aftertouch_c, 9, 34
17, 142492, Channel_aftertouch_c, 9, 30
17, 142504, Channel_aftertouch_c, 9, 21
17, 142516, Channel_aftertouch_c, 9, 0
17, 142656, Note_on_c, 9, 40, 0
17, 142848, Note_on_c, 9, 36, 70
17, 143040, Note_on_c, 9, 36, 0
17, 143232, Note_on_c, 9, 38, 57
17, 143232, Note_on_c, 9, 40, 96
17, 143236, Channel_aftertouch_c, 9, 44
17, 143244, Note_on_c, 9, 38, 0
17, 143252, Channel_aftertouch_c, 9, 16
17, 143276, Channel_aftertouch_c, 9, 16
17, 143288, Channel_aftertouch_c, 9, 0
17, 143360, Note_on_c, 9, 40, 0
17, 143424, Note_on_c, 9, 36, 96
17, 143504, Note_on_c, 9, 36, 0
17, 143616, Note_on_c, 9, 36, 89
17, 143644, Channel_aftertouch_c, 9, 7
17, 143656, Channel_aftertouch_c, 9, 0
17, 143792, Note_on_c, 9, 36, 0
17, 144000, Note_on_c, 9, 40, 104
17, 144016, Channel_aftertouch_c, 9, 34
17, 144028, Channel_aftertouch_c, 9, 30
17, 144040, Channel_aftertouch_c, 9, 21
17, 144052, Channel_aftertouch_c, 9, 0
17, 144192, Note_on_c, 9, 40, 0
17, 144384, Note_on_c, 9, 36, 70
17, 144576, Note_on_c, 9, 36, 0
17, 144768, Note_on_c, 9, 38, 57
17, 144768, Note_on_c, 9, 40, 96
17, 144772, Channel_aftertouch_c, 9, 44
17, 144780, Note_on_c, 9, 38, 0
17, 144788, Channel_aftertouch_c, 9, 16
17, 144812, Channel_aftertouch_c, 9, 16
17, 144824, Channel_aftertouch_c, 9, 0
17, 144896, Note_on_c, 9, 40, 0
17, 144960, Note_on_c, 9, 36, 96
17, 145040, Note_on_c, 9, 36, 0
17, 145152, Note_on_c, 9, 36, 89
17, 145180, Channel_aftertouch_c, 9, 7
17, 145192, Channel_aftertouch_c, 9, 0
17, 145328, Note_on_c, 9, 36, 0
17, 145536, Note_on_c, 9, 40, 104
17, 145552, Channel_aftertouch_c, 9, 34
17, 145564, Channel_aftertouch_c, 9, 30
17, 145576, Channel_aftertouch_c, 9, 21
17, 145588, Channel_aftertouch_c, 9, 0
17, 145728, Note_on_c, 9, 40, 0
17, 145920, Note_on_c, 9, 36, 100
17, 146008, Note_on_c, 9, 36, 0
17, 146208, Note_on_c, 9, 36, 89
17, 146280, Note_on_c, 9, 36, 0
17, 146304, Note_on_c, 9, 40, 104
17, 146368, Note_on_c, 9, 40, 0
17, 146496, Note_on_c, 9, 36, 113
17, 146556, Note_on_c, 9, 36, 0
17, 146688, Note_on_c, 9, 36, 108
17, 146764, Note_on_c, 9, 36, 0
17, 146880, Note_on_c, 9, 36, 108
17, 146956, Note_on_c, 9, 36, 0
17, 147264, Note_on_c, 9, 36, 80
17, 147360, Note_on_c, 9, 36, 0
17, 147456, Note_on_c, 9, 36, 70
17, 147648, Note_on_c, 9, 36, 0
17, 147840, Note_on_c, 9, 38, 57
17, 147840, Note_on_c, 9, 40, 96
17, 147844, Channel_aftertouch_c, 9, 44
17, 147852, Note_on_c, 9, 38, 0
17, 147860, Channel_aftertouch_c, 9, 16
17, 147884, Channel_aftertouch_c, 9, 16
17, 147896, Channel_aftertouch_c, 9, 0
17, 147968, Note_on_c, 9, 40, 0
17, 148032, Note_on_c, 9, 36, 96
17, 148112, Note_on_c, 9, 36, 0
17, 148224, Note_on_c, 9, 36, 89
17, 148252, Channel_aftertouch_c, 9, 7
17, 148264, Channel_aftertouch_c, 9, 0
17, 148400, Note_on_c, 9, 36, 0
17, 148608, Note_on_c, 9, 40, 104
17, 148624, Channel_aftertouch_c, 9, 34
17, 148636, Channel_aftertouch_c, 9, 30
17, 148648, Channel_aftertouch_c, 9, 21
17, 148660, Channel_aftertouch_c, 9, 0
17, 148800, Note_on_c, 9, 40, 0
17, 148992, Note_on_c, 9, 36, 70
17, 149184, Note_on_c, 9, 36, 0
17, 149376, Note_on_c, 9, 38, 57
17, 149376, Note_on_c, 9, 40, 96
17, 149380, Channel_aftertouch_c, 9, 44
17, 149388, Note_on_c, 9, 38, 0
17, 149396, Channel_aftertouch_c, 9, 16
17, 149420, Channel_aftertouch_c, 9, 16
17, 149432, Channel_aftertouch_c, 9, 0
17, 149504, Note_on_c, 9, 40, 0
17, 149568, Note_on_c, 9, 36, 96
17, 149648, Note_on_c, 9, 36, 0
17, 149760, Note_on_c, 9, 36, 89
17, 149788, Channel_aftertouch_c, 9, 7
17, 149800, Channel_aftertouch_c, 9, 0
17, 149936, Note_on_c, 9, 36, 0
17, 150144, Note_on_c, 9, 40, 104
17, 150160, Channel_aftertouch_c, 9, 34
17, 150172, Channel_aftertouch_c, 9, 30
17, 150184, Channel_aftertouch_c, 9, 21
17, 150196, Channel_aftertouch_c, 9, 0
17, 150336, Note_on_c, 9, 40, 0
17, 150528, Note_on_c, 9, 36, 70
17, 150720, Note_on_c, 9, 36, 0
17, 150912, Note_on_c, 9, 38, 57
17, 150912, Note_on_c, 9, 40, 96
17, 150916, Channel_aftertouch_c, 9, 44
17, 150924, Note_on_c, 9, 38, 0
17, 150932, Channel_aftertouch_c, 9, 16
17, 150956, Channel_aftertouch_c, 9, 16
17, 150968, Channel_aftertouch_c, 9, 0
17, 151040, Note_on_c, 9, 40, 0
17, 151104, Note_on_c, 9, 36, 96
17, 151184, Note_on_c, 9, 36, 0
17, 151296, Note_on_c, 9, 36, 89
17, 151324, Channel_aftertouch_c, 9, 7
17, 151336, Channel_aftertouch_c, 9, 0
17, 151472, Note_on_c, 9, 36, 0
17, 151680, Note_on_c, 9, 40, 104
17, 151696, Channel_aftertouch_c, 9, 34
17, 151708, Channel_aftertouch_c, 9, 30
17, 151720, Channel_aftertouch_c, 9, 21
17, 151732, Channel_aftertouch_c, 9, 0
17, 151872, Note_on_c, 9, 40, 0
17, 152064, Note_on_c, 9, 36, 70
17, 152256, Note_on_c, 9, 36, 0
17, 152448, Note_on_c, 9, 38, 57
17, 152448, Note_on_c, 9, 40, 96
17, 152452, Channel_aftertouch_c, 9, 44
17, 152460, Note_on_c, 9, 38, 0
17, 152468, Channel_aftertouch_c, 9, 16
17, 152492, Channel_aftertouch_c, 9, 16
17, 152504, Channel_aftertouch_c, 9, 0
17, 152576, Note_on_c, 9, 40, 0
17, 152640, Note_on_c, 9, 36, 96
17, 152720, Note_on_c, 9, 36, 0
17, 152832, Note_on_c, 9, 36, 89
17, 152860, Channel_aftertouch_c, 9, 7
17, 152872, Channel_aftertouch_c, 9, 0
17, 153008, Note_on_c, 9, 36, 0
17, 153216, Note_on_c, 9, 40, 104
17, 153232, Channel_aftertouch_c, 9, 34
17, 153244, Channel_aftertouch_c, 9, 30
17, 153256, Channel_aftertouch_c, 9, 21
17, 153268, Channel_aftertouch_c, 9, 0
17, 153408, Note_on_c, 9, 40, 0
17, 153600, Note_on_c, 9, 36, 104
17, 153600, Channel_aftertouch_c, 9, 14
17, 153604, Channel_aftertouch_c, 9, 0
17, 153648, Note_on_c, 9, 36, 0
17, 153792, Note_on_c, 9, 36, 100
17, 153840, Note_on_c, 9, 36, 0
17, 153972, Channel_aftertouch_c, 9, 98
17, 153984, Note_on_c, 9, 40, 104
17, 153984, Note_on_c, 9, 36, 108
17, 153984, Channel_aftertouch_c, 9, 88
17, 153996, Channel_aftertouch_c, 9, 47
17, 154008, Channel_aftertouch_c, 9, 0
17, 154040, Note_on_c, 9, 36, 0
17, 154040, Note_on_c, 9, 40, 0
17, 154176, Note_on_c, 9, 36, 104
17, 154216, Note_on_c, 9, 36, 0
17, 154352, Channel_aftertouch_c, 9, 85
17, 154368, Note_on_c, 9, 36, 113
17, 154368, Channel_aftertouch_c, 9, 24
17, 154376, Channel_aftertouch_c, 9, 0
17, 154424, Note_on_c, 9, 36, 0
17, 154560, Note_on_c, 9, 36, 104
17, 154596, Note_on_c, 9, 36, 0
17, 154748, Channel_aftertouch_c, 9, 127
17, 154752, Note_on_c, 9, 40, 108
17, 154752, Note_on_c, 9, 36, 113
17, 154756, Channel_aftertouch_c, 9, 87
17, 154768, Channel_aftertouch_c, 9, 6
17, 154784, Channel_aftertouch_c, 9, 0
17, 154800, Note_on_c, 9, 40, 0
17, 154804, Note_on_c, 9, 36, 0
17, 154944, Note_on_c, 9, 36, 100
17, 154996, Note_on_c, 9, 36, 0
17, 155136, Note_on_c, 9, 40, 104
17, 155136, Note_on_c, 9, 36, 100
17, 155184, Note_on_c, 9, 36, 0
17, 155184, Channel_aftertouch_c, 9, 50
17, 155192, Note_on_c, 9, 40, 0
17, 155192, Channel_aftertouch_c, 9, 0
17, 155328, Note_on_c, 9, 36, 89
17, 155356, Note_on_c, 9, 36, 0
17, 155520, Note_on_c, 9, 40, 104
17, 155520, Note_on_c, 9, 36, 104
17, 155540, Channel_aftertouch_c, 9, 34
17, 155552, Channel_aftertouch_c, 9, 17
17, 155560, Channel_aftertouch_c, 9, 29
17, 155564, Note_on_c, 9, 36, 0
17, 155572, Note_on_c, 9, 40, 0
17, 155576, Channel_aftertouch_c, 9, 0
17, 155712, Note_on_c, 9, 36, 96
17, 155744, Note_on_c, 9, 36, 0
17, 155904, Note_on_c, 9, 40, 100
17, 155904, Note_on_c, 9, 36, 108
17, 155936, Channel_aftertouch_c, 9, 75
17, 155944, Channel_aftertouch_c, 9, 79
17, 155948, Note_on_c, 9, 36, 0
17, 155952, Note_on_c, 9, 40, 0
17, 155960, Channel_aftertouch_c, 9, 0
17, 156096, Note_on_c, 9, 36, 108
17, 156132, Note_on_c, 9, 36, 0
17, 156288, Note_on_c, 9, 40, 104
17, 156288, Note_on_c, 9, 36, 117
17, 156320, Channel_aftertouch_c, 9, 68
17, 156328, Channel_aftertouch_c, 9, 99
17, 156332, Note_on_c, 9, 36, 0
17, 156336, Note_on_c, 9, 40, 0
17, 156344, Channel_aftertouch_c, 9, 30
17, 156352, Channel_aftertouch_c, 9, 0
17, 156480, Note_on_c, 9, 36, 117
17, 156500, Channel_aftertouch_c, 9, 127
17, 156512, Channel_aftertouch_c, 9, 0
17, 156528, Note_on_c, 9, 36, 0
17, 156672, Note_on_c, 9, 36, 100
17, 156864, Note_on_c, 9, 36, 0
17, 157056, Note_on_c, 9, 38, 57
17, 157056, Note_on_c, 9, 40, 96
17, 157060, Channel_aftertouch_c, 9, 44
17, 157068, Note_on_c, 9, 38, 0
17, 157076, Channel_aftertouch_c, 9, 16
17, 157100, Channel_aftertouch_c, 9, 16
17, 157112, Channel_aftertouch_c, 9, 0
17, 157184, Note_on_c, 9, 40, 0
17, 157248, Note_on_c, 9, 36, 96
17, 157328, Note_on_c, 9, 36, 0
17, 157440, Note_on_c, 9, 36, 89
17, 157468, Channel_aftertouch_c, 9, 7
17, 157480, Channel_aftertouch_c, 9, 0
17, 157616, Note_on_c, 9, 36, 0
17, 157824, Note_on_c, 9, 40, 104
17, 157840, Channel_aftertouch_c, 9, 34
17, 157852, Channel_aftertouch_c, 9, 30
17, 157864, Channel_aftertouch_c, 9, 21
17, 157876, Channel_aftertouch_c, 9, 0
17, 158016, Note_on_c, 9, 40, 0
17, 158208, Note_on_c, 9, 36, 70
17, 158400, Note_on_c, 9, 36, 0
17, 158592, Note_on_c, 9, 38, 57
17, 158592, Note_on_c, 9, 40, 96
17, 158596, Channel_aftertouch_c, 9, 44
17, 158604, Note_on_c, 9, 38, 0
17, 158612, Channel_aftertouch_c, 9, 16
17, 158636, Channel_aftertouch_c, 9, 16
17, 158648, Channel_aftertouch_c, 9, 0
17, 158720, Note_on_c, 9, 40, 0
17, 158784, Note_on_c, 9, 36, 96
17, 158864, Note_on_c, 9, 36, 0
17, 158976, Note_on_c, 9, 36, 89
17, 159004, Channel_aftertouch_c, 9, 7
17, 159016, Channel_aftertouch_c, 9, 0
17, 159152, Note_on_c, 9, 36, 0
17, 159360, Note_on_c, 9, 40, 104
17, 159376, Channel_aftertouch_c, 9, 34
17, 159388, Channel_aftertouch_c, 9, 30
17, 159400, Channel_aftertouch_c, 9, 21
17, 159412, Channel_aftertouch_c, 9, 0
17, 159552, Note_on_c, 9, 40, 0
17, 159744, Note_on_c, 9, 40, 104
17, 159760, Channel_aftertouch_c, 9, 41
17, 159768, Channel_aftertouch_c, 9, 25
17, 159780, Channel_aftertouch_c, 9, 7
17, 159792, Channel_aftertouch_c, 9, 0
17, 159860, Note_on_c, 9, 40, 0
17, 160120, Note_on_c, 9, 40, 104
17, 160136, Channel_aftertouch_c, 9, 17
17, 160148, Channel_aftertouch_c, 9, 20
17, 160164, Channel_aftertouch_c, 9, 0
17, 160212, Note_on_c, 9, 40, 0
17, 160324, Note_on_c, 9, 36, 100
17, 160328, Channel_aftertouch_c, 9, 39
17, 160336, Channel_aftertouch_c, 9, 0
17, 160376, Note_on_c, 9, 36, 0
17, 160516, Note_on_c, 9, 36, 113
17, 160520, Channel_aftertouch_c, 9, 96
17, 160528, Channel_aftertouch_c, 9, 0
17, 160640, Note_on_c, 9, 36, 0
17, 160880, Note_on_c, 9, 40, 108
17, 160880, Channel_aftertouch_c, 9, 101
17, 160896, Channel_aftertouch_c, 9, 6
17, 160904, Channel_aftertouch_c, 9, 28
17, 160916, Channel_aftertouch_c, 9, 0
17, 160952, Note_on_c, 9, 40, 0
17, 161280, Note_on_c, 9, 36, 70
17, 161472, Note_on_c, 9, 36, 0
17, 161664, Note_on_c, 9, 38, 57
17, 161664, Note_on_c, 9, 40, 96
17, 161668, Channel_aftertouch_c, 9, 44
17, 161676, Note_on_c, 9, 38, 0
17, 161684, Channel_aftertouch_c, 9, 16
17, 161708, Channel_aftertouch_c, 9, 16
17, 161720, Channel_aftertouch_c, 9, 0
17, 161792, Note_on_c, 9, 40, 0
17, 161856, Note_on_c, 9, 36, 96
17, 161936, Note_on_c, 9, 36, 0
17, 162048, Note_on_c, 9, 36, 89
17, 162076, Channel_aftertouch_c, 9, 7
17, 162088, Channel_aftertouch_c, 9, 0
17, 162224, Note_on_c, 9, 36, 0
17, 162432, Note_on_c, 9, 40, 104
17, 162448, Channel_aftertouch_c, 9, 34
17, 162460, Channel_aftertouch_c, 9, 30
17, 162472, Channel_aftertouch_c, 9, 21
17, 162484, Channel_aftertouch_c, 9, 0
17, 162624, Note_on_c, 9, 40, 0
17, 162816, Note_on_c, 9, 36, 70
17, 163008, Note_on_c, 9, 36, 0
17, 163200, Note_on_c, 9, 38, 57
17, 163200, Note_on_c, 9, 40, 96
17, 163204, Channel_aftertouch_c, 9, 44
17, 163212, Note_on_c, 9, 38, 0
17, 163220, Channel_aftertouch_c, 9, 16
17, 163244, Channel_aftertouch_c, 9, 16
17, 163256, Channel_aftertouch_c, 9, 0
17, 163328, Note_on_c, 9, 40, 0
17, 163392, Note_on_c, 9, 36, 96
17, 163472, Note_on_c, 9, 36, 0
17, 163584, Note_on_c, 9, 36, 89
17, 163612, Channel_aftertouch_c, 9, 7
17, 163624, Channel_aftertouch_c, 9, 0
17, 163760, Note_on_c, 9, 36, 0
17, 163968, Note_on_c, 9, 40, 104
17, 163984, Channel_aftertouch_c, 9, 34
17, 163996, Channel_aftertouch_c, 9, 30
17, 164008, Channel_aftertouch_c, 9, 21
17, 164020, Channel_aftertouch_c, 9, 0
17, 164160, Note_on_c, 9, 40, 0
17, 164352, Note_on_c, 9, 36, 70
17, 164544, Note_on_c, 9, 36, 0
17, 164736, Note_on_c, 9, 38, 57
17, 164736, Note_on_c, 9, 40, 96
17, 164740, Channel_aftertouch_c, 9, 44
17, 164748, Note_on_c, 9, 38, 0
17, 164756, Channel_aftertouch_c, 9, 16
17, 164780, Channel_aftertouch_c, 9, 16
17, 164792, Channel_aftertouch_c, 9, 0
17, 164864, Note_on_c, 9, 40, 0
17, 164928, Note_on_c, 9, 36, 96
17, 165008, Note_on_c, 9, 36, 0
17, 165120, Note_on_c, 9, 36, 89
17, 165148, Channel_aftertouch_c, 9, 7
17, 165160, Channel_aftertouch_c, 9, 0
17, 165296, Note_on_c, 9, 36, 0
17, 165504, Note_on_c, 9, 40, 104
17, 165520, Channel_aftertouch_c, 9, 34
17, 165532, Channel_aftertouch_c, 9, 30
17, 165544, Channel_aftertouch_c, 9, 21
17, 165556, Channel_aftertouch_c, 9, 0
17, 165696, Note_on_c, 9, 40, 0
17, 165888, Note_on_c, 9, 40, 104
17, 165904, Channel_aftertouch_c, 9, 41
17, 165912, Channel_aftertouch_c, 9, 25
17, 165924, Channel_aftertouch_c, 9, 7
17, 165936, Channel_aftertouch_c, 9, 0
17, 166004, Note_on_c, 9, 40, 0
17, 166264, Note_on_c, 9, 40, 104
17, 166280, Channel_aftertouch_c, 9, 17
17, 166292, Channel_aftertouch_c, 9, 20
17, 166308, Channel_aftertouch_c, 9, 0
17, 166356, Note_on_c, 9, 40, 0
17, 166468, Note_on_c, 9, 36, 100
17, 166472, Channel_aftertouch_c, 9, 39
17, 166480, Channel_aftertouch_c, 9, 0
17, 166520, Note_on_c, 9, 36, 0
17, 166660, Note_on_c, 9, 36, 113
17, 166664, Channel_aftertouch_c, 9, 96
17, 166672, Channel_aftertouch_c, 9, 0
17, 166784, Note_on_c, 9, 36, 0
17, 167024, Note_on_c, 9, 40, 108
17, 167024, Channel_aftertouch_c, 9, 101
17, 167040, Channel_aftertouch_c, 9, 6
17, 167048, Channel_aftertouch_c, 9, 28
17, 167060, Channel_aftertouch_c, 9, 0
17, 167096, Note_on_c, 9, 40, 0
17, 167424, Note_on_c, 9, 36, 70
17, 167616, Note_on_c, 9, 36, 0
17, 167712, Note_on_c, 9, 36, 80
17, 167808, Note_on_c, 9, 38, 57
17, 167808, Note_on_c, 9, 40, 96
17, 167812, Channel_aftertouch_c, 9, 44
17, 167820, Note_on_c, 9, 38, 0
17, 167828, Channel_aftertouch_c, 9, 16
17, 167840, Note_on_c, 9, 36, 0
17, 167852, Channel_aftertouch_c, 9, 16
17, 167864, Channel_aftertouch_c, 9, 0
17, 167936, Note_on_c, 9, 40, 0
17, 168000, Note_on_c, 9, 36, 96
17, 168080, Note_on_c, 9, 36, 0
17, 168192, Note_on_c, 9, 36, 89
17, 168220, Channel_aftertouch_c, 9, 7
17, 168232, Channel_aftertouch_c, 9, 0
17, 168368, Note_on_c, 9, 36, 0
17, 168376, Note_on_c, 9, 40, 120
17, 168384, Note_on_c, 9, 40, 120
17, 168504, Note_on_c, 9, 40, 0
17, 168512, Note_on_c, 9, 40, 0
17, 168564, Note_on_c, 9, 40, 120
17, 168576, Note_on_c, 9, 40, 120
17, 168592, Channel_aftertouch_c, 9, 34
17, 168604, Channel_aftertouch_c, 9, 30
17, 168616, Channel_aftertouch_c, 9, 21
17, 168628, Channel_aftertouch_c, 9, 0
17, 168692, Note_on_c, 9, 40, 0
17, 168768, Note_on_c, 9, 40, 0
17, 168768, Note_on_c, 9, 36, 120
17, 168896, Note_on_c, 9, 36, 0
17, 168960, Note_on_c, 9, 36, 120
17, 169152, Note_on_c, 9, 36, 0
17, 169344, Note_on_c, 9, 38, 57
17, 169344, Note_on_c, 9, 40, 96
17, 169348, Channel_aftertouch_c, 9, 44
17, 169356, Note_on_c, 9, 38, 0
17, 169364, Channel_aftertouch_c, 9, 16
17, 169388, Channel_aftertouch_c, 9, 16
17, 169400, Channel_aftertouch_c, 9, 0
17, 169472, Note_on_c, 9, 40, 0
17, 169536, Note_on_c, 9, 36, 96
17, 169616, Note_on_c, 9, 36, 0
17, 169728, Note_on_c, 9, 36, 89
17, 169756, Channel_aftertouch_c, 9, 7
17, 169768, Channel_aftertouch_c, 9, 0
17, 169904, Note_on_c, 9, 36, 0
17, 170112, Note_on_c, 9, 40, 104
17, 170128, Channel_aftertouch_c, 9, 34
17, 170140, Channel_aftertouch_c, 9, 30
17, 170152, Channel_aftertouch_c, 9, 21
17, 170164, Channel_aftertouch_c, 9, 0
17, 170304, Note_on_c, 9, 40, 0
17, 170496, Note_on_c, 9, 36, 70
17, 170688, Note_on_c, 9, 36, 0
17, 170880, Note_on_c, 9, 38, 57
17, 170880, Note_on_c, 9, 40, 96
17, 170884, Channel_aftertouch_c, 9, 44
17, 170892, Note_on_c, 9, 38, 0
17, 170900, Channel_aftertouch_c, 9, 16
17, 170924, Channel_aftertouch_c, 9, 16
17, 170936, Channel_aftertouch_c, 9, 0
17, 171008, Note_on_c, 9, 40, 0
17, 171072, Note_on_c, 9, 36, 96
17, 171152, Note_on_c, 9, 36, 0
17, 171264, Note_on_c, 9, 36, 89
17, 171292, Channel_aftertouch_c, 9, 7
17, 171304, Channel_aftertouch_c, 9, 0
17, 171440, Note_on_c, 9, 36, 0
17, 171648, Note_on_c, 9, 40, 104
17, 171664, Channel_aftertouch_c, 9, 34
17, 171676, Channel_aftertouch_c, 9, 30
17, 171688, Channel_aftertouch_c, 9, 21
17, 171700, Channel_aftertouch_c, 9, 0
17, 171840, Note_on_c, 9, 40, 0
17, 172032, Note_on_c, 9, 40, 104
17, 172048, Channel_aftertouch_c, 9, 41
17, 172056, Channel_aftertouch_c, 9, 25
17, 172068, Channel_aftertouch_c, 9, 7
17, 172080, Channel_aftertouch_c, 9, 0
17, 172148, Note_on_c, 9, 40, 0
17, 172408, Note_on_c, 9, 40, 101
17, 172424, Channel_aftertouch_c, 9, 17
17, 172436, Channel_aftertouch_c, 9, 20
17, 172452, Channel_aftertouch_c, 9, 0
17, 172500, Note_on_c, 9, 40, 0
17, 172612, Note_on_c, 9, 36, 97
17, 172616, Channel_aftertouch_c, 9, 39
17, 172624, Channel_aftertouch_c, 9, 0
17, 172664, Note_on_c, 9, 36, 0
17, 172804, Note_on_c, 9, 36, 108
17, 172808, Channel_aftertouch_c, 9, 96
17, 172816, Channel_aftertouch_c, 9, 0
17, 172928, Note_on_c, 9, 36, 0
17, 173168, Note_on_c, 9, 40, 101
17, 173168, Channel_aftertouch_c, 9, 101
17, 173184, Channel_aftertouch_c, 9, 6
17, 173192, Channel_aftertouch_c, 9, 28
17, 173204, Channel_aftertouch_c, 9, 0
17, 173240, Note_on_c, 9, 40, 0
17, 173568, Note_on_c, 9, 36, 64
17, 173760, Note_on_c, 9, 36, 0
17, 173952, Note_on_c, 9, 38, 51
17, 173952, Note_on_c, 9, 40, 86
17, 173956, Channel_aftertouch_c, 9, 44
17, 173964, Note_on_c, 9, 38, 0
17, 173972, Channel_aftertouch_c, 9, 16
17, 173996, Channel_aftertouch_c, 9, 16
17, 174008, Channel_aftertouch_c, 9, 0
17, 174080, Note_on_c, 9, 40, 0
17, 174144, Note_on_c, 9, 36, 85
17, 174224, Note_on_c, 9, 36, 0
17, 174336, Note_on_c, 9, 36, 78
17, 174364, Channel_aftertouch_c, 9, 7
17, 174376, Channel_aftertouch_c, 9, 0
17, 174512, Note_on_c, 9, 36, 0
17, 174720, Note_on_c, 9, 40, 89
17, 174736, Channel_aftertouch_c, 9, 34
17, 174748, Channel_aftertouch_c, 9, 30
17, 174760, Channel_aftertouch_c, 9, 21
17, 174772, Channel_aftertouch_c, 9, 0
17, 174912, Note_on_c, 9, 40, 0
17, 175104, Note_on_c, 9, 36, 58
17, 175296, Note_on_c, 9, 36, 0
17, 175488, Note_on_c, 9, 38, 46
17, 175488, Note_on_c, 9, 40, 78
17, 175492, Channel_aftertouch_c, 9, 44
17, 175500, Note_on_c, 9, 38, 0
17, 175508, Channel_aftertouch_c, 9, 16
17, 175532, Channel_aftertouch_c, 9, 16
17, 175544, Channel_aftertouch_c, 9, 0
17, 175616, Note_on_c, 9, 40, 0
17, 175680, Note_on_c, 9, 36, 77
17, 175760, Note_on_c, 9, 36, 0
17, 175872, Note_on_c, 9, 36, 71
17, 175900, Channel_aftertouch_c, 9, 7
17, 175912, Channel_aftertouch_c, 9, 0
17, 176048, Note_on_c, 9, 36, 0
17, 176256, Note_on_c, 9, 40, 81
17, 176272, Channel_aftertouch_c, 9, 34
17, 176284, Channel_aftertouch_c, 9, 30
17, 176296, Channel_aftertouch_c, 9, 21
17, 176308, Channel_aftertouch_c, 9, 0
17, 176448, Note_on_c, 9, 40, 0
17, 176640, Note_on_c, 9, 36, 52
17, 176832, Note_on_c, 9, 36, 0
17, 177024, Note_on_c, 9, 38, 41
17, 177024, Note_on_c, 9, 40, 70
17, 177028, Channel_aftertouch_c, 9, 44
17, 177036, Note_on_c, 9, 38, 0
17, 177044, Channel_aftertouch_c, 9, 16
17, 177068, Channel_aftertouch_c, 9, 16
17, 177080, Channel_aftertouch_c, 9, 0
17, 177152, Note_on_c, 9, 40, 0
17, 177216, Note_on_c, 9, 36, 69
17, 177296, Note_on_c, 9, 36, 0
17, 177408, Note_on_c, 9, 36, 63
17, 177436, Channel_aftertouch_c, 9, 7
17, 177448, Channel_aftertouch_c, 9, 0
17, 177584, Note_on_c, 9, 36, 0
17, 177792, Note_on_c, 9, 40, 71
17, 177808, Channel_aftertouch_c, 9, 34
17, 177820, Channel_aftertouch_c, 9, 30
17, 177832, Channel_aftertouch_c, 9, 21
17, 177844, Channel_aftertouch_c, 9, 0
17, 177984, Note_on_c, 9, 40, 0
17, 178176, Note_on_c, 9, 40, 69
17, 178192, Channel_aftertouch_c, 9, 41
17, 178200, Channel_aftertouch_c, 9, 25
17, 178212, Channel_aftertouch_c, 9, 7
17, 178224, Channel_aftertouch_c, 9, 0
17, 178292, Note_on_c, 9, 40, 0
17, 178552, Note_on_c, 9, 40, 67
17, 178568, Channel_aftertouch_c, 9, 17
17, 178580, Channel_aftertouch_c, 9, 20
17, 178596, Channel_aftertouch_c, 9, 0
17, 178644, Note_on_c, 9, 40, 0
17, 178756, Note_on_c, 9, 36, 64
17, 178760, Channel_aftertouch_c, 9, 39
17, 178768, Channel_aftertouch_c, 9, 0
17, 178808, Note_on_c, 9, 36, 0
17, 178948, Note_on_c, 9, 36, 71
17, 178952, Channel_aftertouch_c, 9, 96
17, 178960, Channel_aftertouch_c, 9, 0
17, 179072, Note_on_c, 9, 36, 0
17, 179312, Note_on_c, 9, 40, 65
17, 179312, Channel_aftertouch_c, 9, 101
17, 179328, Channel_aftertouch_c, 9, 6
17, 179336, Channel_aftertouch_c, 9, 28
17, 179348, Channel_aftertouch_c, 9, 0
17, 179384, Note_on_c, 9, 40, 0
17, 179712, Note_on_c, 9, 40, 70
17, 179760, Note_on_c, 9, 40, 0
17, 179808, Note_on_c, 9, 40, 73
17, 179884, Note_on_c, 9, 40, 0
17, 179904, Note_on_c, 9, 36, 58
17, 179948, Note_on_c, 9, 127, 36
17, 179948, Note_on_c, 9, 12, 20
17, 180000, Note_on_c, 9, 36, 0
17, 180112, Note_on_c, 9, 12, 0
17, 180288, Note_on_c, 9, 40, 70
17, 180336, Note_on_c, 9, 40, 0
17, 180352, Note_on_c, 9, 127, 80
17, 180384, Note_on_c, 9, 40, 66
17, 180448, Note_on_c, 9, 40, 0
17, 180480, Note_on_c, 9, 36, 55
17, 180608, Note_on_c, 9, 36, 0
17, 180864, Note_on_c, 9, 40, 63
17, 180920, Note_on_c, 9, 40, 0
17, 180960, Note_on_c, 9, 40, 62
17, 181024, Note_on_c, 9, 40, 0
17, 181056, Note_on_c, 9, 36, 52
17, 181176, Note_on_c, 9, 36, 0
17, 181248, Note_on_c, 9, 36, 35
17, 181440, Note_on_c, 9, 36, 0
17, 181632, Note_on_c, 9, 38, 27
17, 181632, Note_on_c, 9, 40, 46
17, 181636, Channel_aftertouch_c, 9, 44
17, 181644, Note_on_c, 9, 38, 0
17, 181652, Channel_aftertouch_c, 9, 16
17, 181676, Channel_aftertouch_c, 9, 16
17, 181688, Channel_aftertouch_c, 9, 0
17, 181760, Note_on_c, 9, 40, 0
17, 181824, Note_on_c, 9, 36, 45
17, 181904, Note_on_c, 9, 36, 0
17, 182016, Note_on_c, 9, 36, 40
17, 182044, Channel_aftertouch_c, 9, 7
17, 182056, Channel_aftertouch_c, 9, 0
17, 182192, Note_on_c, 9, 36, 0
17, 182400, Note_on_c, 9, 40, 45
17, 182416, Channel_aftertouch_c, 9, 34
17, 182428, Channel_aftertouch_c, 9, 30
17, 182440, Channel_aftertouch_c, 9, 21
17, 182452, Channel_aftertouch_c, 9, 0
17, 182592, Note_on_c, 9, 40, 0
17, 182784, Note_on_c, 9, 36, 29
17, 182976, Note_on_c, 9, 36, 0
17, 183168, Note_on_c, 9, 38, 22
17, 183168, Note_on_c, 9, 40, 38
17, 183172, Channel_aftertouch_c, 9, 44
17, 183180, Note_on_c, 9, 38, 0
17, 183188, Channel_aftertouch_c, 9, 16
17, 183212, Channel_aftertouch_c, 9, 16
17, 183224, Channel_aftertouch_c, 9, 0
17, 183296, Note_on_c, 9, 40, 0
17, 183360, Note_on_c, 9, 36, 37
17, 183440, Note_on_c, 9, 36, 0
17, 183552, Note_on_c, 9, 36, 33
17, 183580, Channel_aftertouch_c, 9, 7
17, 183592, Channel_aftertouch_c, 9, 0
17, 183728, Note_on_c, 9, 36, 0
17, 183936, Note_on_c, 9, 40, 37
17, 183952, Channel_aftertouch_c, 9, 34
17, 183964, Channel_aftertouch_c, 9, 30
17, 183976, Channel_aftertouch_c, 9, 21
17, 183988, Channel_aftertouch_c, 9, 0
17, 184128, Note_on_c, 9, 40, 0
17, 184320, Note_on_c, 9, 40, 35
17, 184336, Channel_aftertouch_c, 9, 41
17, 184344, Channel_aftertouch_c, 9, 25
17, 184356, Channel_aftertouch_c, 9, 7
17, 184368, Channel_aftertouch_c, 9, 0
17, 184436, Note_on_c, 9, 40, 0
17, 184696, Note_on_c, 9, 40, 33
17, 184712, Channel_aftertouch_c, 9, 17
17, 184724, Channel_aftertouch_c, 9, 20
17, 184740, Channel_aftertouch_c, 9, 0
17, 184788, Note_on_c, 9, 40, 0
17, 184900, Note_on_c, 9, 36, 31
17, 184904, Channel_aftertouch_c, 9, 39
17, 184912, Channel_aftertouch_c, 9, 0
17, 184952, Note_on_c, 9, 36, 0
17, 185092, Note_on_c, 9, 36, 33
17, 185096, Channel_aftertouch_c, 9, 96
17, 185104, Channel_aftertouch_c, 9, 0
17, 185216, Note_on_c, 9, 36, 0
17, 185456, Note_on_c, 9, 40, 30
17, 185456, Channel_aftertouch_c, 9, 101
17, 185472, Channel_aftertouch_c, 9, 6
17, 185480, Channel_aftertouch_c, 9, 28
17, 185492, Channel_aftertouch_c, 9, 0
17, 185528, Note_on_c, 9, 40, 0
17, 185856, Note_on_c, 9, 36, 17
17, 186048, Note_on_c, 9, 36, 0
17, 186240, Note_on_c, 9, 38, 13
17, 186240, Note_on_c, 9, 40, 22
17, 186244, Channel_aftertouch_c, 9, 44
17, 186252, Note_on_c, 9, 38, 0
17, 186260, Channel_aftertouch_c, 9, 16
17, 186284, Channel_aftertouch_c, 9, 16
17, 186296, Channel_aftertouch_c, 9, 0
17, 186368, Note_on_c, 9, 40, 0
17, 186432, Note_on_c, 9, 36, 21
17, 186512, Note_on_c, 9, 36, 0
17, 186624, Note_on_c, 9, 36, 18
17, 186652, Channel_aftertouch_c, 9, 7
17, 186664, Channel_aftertouch_c, 9, 0
17, 186800, Note_on_c, 9, 36, 0
17, 187008, Note_on_c, 9, 40, 19
17, 187024, Channel_aftertouch_c, 9, 34
17, 187036, Channel_aftertouch_c, 9, 30
17, 187048, Channel_aftertouch_c, 9, 21
17, 187060, Channel_aftertouch_c, 9, 0
17, 187200, Note_on_c, 9, 40, 0
17, 187392, Note_on_c, 9, 36, 11
17, 187584, Note_on_c, 9, 36, 0
17, 187776, Note_on_c, 9, 38, 8
17, 187776, Note_on_c, 9, 40, 14
17, 187780, Channel_aftertouch_c, 9, 44
17, 187788, Note_on_c, 9, 38, 0
17, 187796, Channel_aftertouch_c, 9, 16
17, 187820, Channel_aftertouch_c, 9, 16
17, 187832, Channel_aftertouch_c, 9, 0
17, 187904, Note_on_c, 9, 40, 0
17, 187968, Note_on_c, 9, 36, 13
17, 188048, Note_on_c, 9, 36, 0
17, 188160, Note_on_c, 9, 36, 11
17, 188188, Channel_aftertouch_c, 9, 7
17, 188200, Channel_aftertouch_c, 9, 0
17, 188336, Note_on_c, 9, 36, 0
17, 188544, Note_on_c, 9, 40, 11
17, 188560, Channel_aftertouch_c, 9, 34
17, 188572, Channel_aftertouch_c, 9, 30
17, 188584, Channel_aftertouch_c, 9, 21
17, 188596, Channel_aftertouch_c, 9, 0
17, 188736, Note_on_c, 9, 40, 0
17, 188928, Note_on_c, 9, 36, 6
17, 189120, Note_on_c, 9, 36, 0
17, 189312, Note_on_c, 9, 38, 3
17, 189312, Note_on_c, 9, 40, 6
17, 189316, Channel_aftertouch_c, 9, 44
17, 189324, Note_on_c, 9, 38, 0
17, 189332, Channel_aftertouch_c, 9, 16
17, 189356, Channel_aftertouch_c, 9, 16
17, 189368, Channel_aftertouch_c, 9, 0
17, 189440, Note_on_c, 9, 40, 0
17, 189504, Note_on_c, 9, 36, 5
17, 189584, Note_on_c, 9, 36, 0
17, 189696, Note_on_c, 9, 36, 4
17, 189724, Channel_aftertouch_c, 9, 7
17, 189736, Channel_aftertouch_c, 9, 0
17, 189872, Note_on_c, 9, 36, 0
17, 190080, Note_on_c, 9, 40, 3
17, 190096, Channel_aftertouch_c, 9, 34
17, 190108, Channel_aftertouch_c, 9, 30
17, 190120, Channel_aftertouch_c, 9, 21
17, 190132, Channel_aftertouch_c, 9, 0
17, 190272, Note_on_c, 9, 40, 0
17, 190272, Note_on_c, 9, 127, 0
17, 190272, Note_on_c, 9, 127, 0
17, 190272, End_track
18, 0, Start_track
18, 0, MIDI_port, 0
18, 0, Title_t, "Snare Roll"
18, 0, Program_c, 9, 0
18, 0, Control_c, 9, 7, 125
18, 0, Control_c, 9, 91, 40
18, 0, Control_c, 9, 93, 0
18, 0, Control_c, 9, 7, 100
18, 1536, Control_c, 9, 7, 40
18, 1548, Control_c, 9, 7, 41
18, 1560, Control_c, 9, 7, 41
18, 1572, Control_c, 9, 7, 42
18, 1584, Control_c, 9, 7, 43
18, 1600, Control_c, 9, 7, 43
18, 1612, Control_c, 9, 7, 43
18, 1624, Control_c, 9, 7, 43
18, 1636, Control_c, 9, 7, 43
18, 1648, Control_c, 9, 7, 44
18, 1664, Control_c, 9, 7, 44
18, 1676, Control_c, 9, 7, 44
18, 1688, Control_c, 9, 7, 45
18, 1700, Control_c, 9, 7, 46
18, 1712, Control_c, 9, 7, 46
18, 1728, Control_c, 9, 7, 47
18, 1740, Control_c, 9, 7, 48
18, 1752, Control_c, 9, 7, 48
18, 1764, Control_c, 9, 7, 48
18, 1776, Control_c, 9, 7, 49
18, 1792, Control_c, 9, 7, 49
18, 1804, Control_c, 9, 7, 49
18, 1816, Control_c, 9, 7, 50
18, 1828, Control_c, 9, 7, 50
18, 1840, Control_c, 9, 7, 51
18, 1856, Control_c, 9, 7, 51
18, 1868, Control_c, 9, 7, 51
18, 1880, Control_c, 9, 7, 51
18, 1892, Control_c, 9, 7, 51
18, 1904, Control_c, 9, 7, 52
18, 1920, Control_c, 9, 7, 52
18, 1932, Control_c, 9, 7, 52
18, 1944, Control_c, 9, 7, 53
18, 1956, Control_c, 9, 7, 53
18, 1984, Control_c, 9, 7, 53
18, 1996, Control_c, 9, 7, 53
18, 2008, Control_c, 9, 7, 54
18, 2020, Control_c, 9, 7, 54
18, 2032, Control_c, 9, 7, 55
18, 2048, Control_c, 9, 7, 55
18, 2060, Control_c, 9, 7, 55
18, 2072, Control_c, 9, 7, 55
18, 2084, Control_c, 9, 7, 56
18, 2096, Control_c, 9, 7, 56
18, 2112, Control_c, 9, 7, 57
18, 2124, Control_c, 9, 7, 57
18, 2136, Control_c, 9, 7, 57
18, 2148, Control_c, 9, 7, 58
18, 2160, Control_c, 9, 7, 58
18, 2176, Control_c, 9, 7, 58
18, 2188, Control_c, 9, 7, 58
18, 2200, Control_c, 9, 7, 58
18, 2212, Control_c, 9, 7, 59
18, 2224, Control_c, 9, 7, 60
18, 2240, Control_c, 9, 7, 60
18, 2252, Control_c, 9, 7, 61
18, 2276, Control_c, 9, 7, 61
18, 2288, Control_c, 9, 7, 61
18, 2304, Note_on_c, 9, 40, 104
18, 2304, Channel_aftertouch_c, 9, 37
18, 2316, Control_c, 9, 7, 62
18, 2320, Channel_aftertouch_c, 9, 0
18, 2328, Control_c, 9, 7, 63
18, 2340, Control_c, 9, 7, 63
18, 2352, Note_on_c, 9, 40, 0
18, 2352, Control_c, 9, 7, 63
18, 2368, Control_c, 9, 7, 65
18, 2380, Control_c, 9, 7, 65
18, 2400, Note_on_c, 9, 40, 96
18, 2404, Control_c, 9, 7, 66
18, 2416, Control_c, 9, 7, 67
18, 2432, Control_c, 9, 7, 68
18, 2444, Control_c, 9, 7, 68
18, 2456, Control_c, 9, 7, 68
18, 2464, Note_on_c, 9, 40, 0
18, 2468, Control_c, 9, 7, 69
18, 2480, Control_c, 9, 7, 69
18, 2496, Control_c, 9, 7, 71
18, 2496, Note_on_c, 9, 40, 108
18, 2496, Channel_aftertouch_c, 9, 8
18, 2508, Control_c, 9, 7, 71
18, 2512, Channel_aftertouch_c, 9, 0
18, 2520, Control_c, 9, 7, 72
18, 2532, Control_c, 9, 7, 73
18, 2544, Note_on_c, 9, 40, 0
18, 2544, Control_c, 9, 7, 73
18, 2560, Control_c, 9, 7, 74
18, 2572, Control_c, 9, 7, 75
18, 2584, Control_c, 9, 7, 76
18, 2588, Channel_aftertouch_c, 9, 6
18, 2592, Note_on_c, 9, 40, 104
18, 2596, Control_c, 9, 7, 76
18, 2600, Channel_aftertouch_c, 9, 0
18, 2608, Control_c, 9, 7, 76
18, 2624, Control_c, 9, 7, 77
18, 2636, Control_c, 9, 7, 78
18, 2648, Control_c, 9, 7, 79
18, 2656, Note_on_c, 9, 40, 0
18, 2660, Control_c, 9, 7, 80
18, 2668, Channel_aftertouch_c, 9, 127
18, 2672, Control_c, 9, 7, 81
18, 2680, Channel_aftertouch_c, 9, 70
18, 2688, Control_c, 9, 7, 82
18, 2688, Note_on_c, 9, 40, 117
18, 2688, Note_on_c, 9, 40, 113
18, 2692, Channel_aftertouch_c, 9, 0
18, 2700, Control_c, 9, 7, 82
18, 2712, Control_c, 9, 7, 83
18, 2724, Control_c, 9, 7, 85
18, 2736, Note_on_c, 9, 40, 0
18, 2736, Control_c, 9, 7, 86
18, 2752, Control_c, 9, 7, 87
18, 2760, Note_on_c, 9, 40, 0
18, 2760, Channel_aftertouch_c, 9, 109
18, 2764, Control_c, 9, 7, 88
18, 2772, Channel_aftertouch_c, 9, 116
18, 2776, Control_c, 9, 7, 89
18, 2784, Note_on_c, 9, 40, 122
18, 2784, Channel_aftertouch_c, 9, 94
18, 2788, Control_c, 9, 7, 90
18, 2796, Channel_aftertouch_c, 9, 34
18, 2800, Control_c, 9, 7, 91
18, 2808, Channel_aftertouch_c, 9, 0
18, 2816, Control_c, 9, 7, 92
18, 2828, Control_c, 9, 7, 93
18, 2840, Control_c, 9, 7, 94
18, 2840, Channel_aftertouch_c, 9, 99
18, 2848, Note_on_c, 9, 40, 0
18, 2852, Control_c, 9, 7, 95
18, 2856, Channel_aftertouch_c, 9, 127
18, 2864, Control_c, 9, 7, 97
18, 2864, Channel_aftertouch_c, 9, 86
18, 2880, Control_c, 9, 7, 99
18, 2880, Note_on_c, 9, 40, 117
18, 2880, Channel_aftertouch_c, 9, 0
18, 2892, Control_c, 9, 7, 100
18, 2904, Control_c, 9, 7, 102
18, 2916, Control_c, 9, 7, 103
18, 2924, Channel_aftertouch_c, 9, 32
18, 2928, Control_c, 9, 7, 104
18, 2936, Channel_aftertouch_c, 9, 127
18, 2944, Control_c, 9, 7, 106
18, 2948, Note_on_c, 9, 40, 0
18, 2956, Control_c, 9, 7, 107
18, 2960, Control_c, 9, 45, 0
18, 2960, Channel_aftertouch_c, 9, 108
18, 2964, Note_on_c, 9, 40, 120
18, 2968, Control_c, 9, 7, 108
18, 2972, Channel_aftertouch_c, 9, 48
18, 2980, Control_c, 9, 7, 110
18, 2984, Channel_aftertouch_c, 9, 0
18, 2992, Control_c, 9, 7, 113
18, 3008, Control_c, 9, 7, 113
18, 3020, Control_c, 9, 7, 115
18, 3032, Control_c, 9, 7, 116
18, 3044, Control_c, 9, 7, 117
18, 3056, Control_c, 9, 7, 120
18, 3060, Note_on_c, 9, 40, 0
18, 3072, Control_c, 9, 7, 120
18, 3072, End_track
19, 0, Start_track
19, 0, MIDI_port, 0
19, 0, Title_t, "Tambourine"
19, 0, Program_c, 9, 0
19, 0, Control_c, 9, 7, 125
19, 0, Control_c, 9, 91, 40
19, 0, Control_c, 9, 93, 0
19, 0, Control_c, 9, 7, 100
19, 110592, Note_on_c, 9, 54, 108
19, 110648, Note_on_c, 9, 54, 0
19, 110784, Note_on_c, 9, 54, 96
19, 110820, Note_on_c, 9, 54, 0
19, 110976, Note_on_c, 9, 54, 113
19, 111032, Note_on_c, 9, 54, 0
19, 111168, Note_on_c, 9, 54, 96
19, 111204, Note_on_c, 9, 54, 0
19, 111360, Note_on_c, 9, 54, 117
19, 111412, Note_on_c, 9, 54, 0
19, 111552, Note_on_c, 9, 54, 100
19, 111588, Note_on_c, 9, 54, 0
19, 111744, Note_on_c, 9, 54, 113
19, 111796, Note_on_c, 9, 54, 0
19, 111936, Note_on_c, 9, 54, 100
19, 111968, Note_on_c, 9, 54, 0
19, 112128, Note_on_c, 9, 54, 108
19, 112184, Note_on_c, 9, 54, 0
19, 112320, Note_on_c, 9, 54, 96
19, 112356, Note_on_c, 9, 54, 0
19, 112512, Note_on_c, 9, 54, 113
19, 112568, Note_on_c, 9, 54, 0
19, 112704, Note_on_c, 9, 54, 96
19, 112740, Note_on_c, 9, 54, 0
19, 112896, Note_on_c, 9, 54, 117
19, 112948, Note_on_c, 9, 54, 0
19, 113088, Note_on_c, 9, 54, 100
19, 113124, Note_on_c, 9, 54, 0
19, 113280, Note_on_c, 9, 54, 113
19, 113332, Note_on_c, 9, 54, 0
19, 113472, Note_on_c, 9, 54, 100
19, 113504, Note_on_c, 9, 54, 0
19, 113664, Note_on_c, 9, 54, 108
19, 113720, Note_on_c, 9, 54, 0
19, 113856, Note_on_c, 9, 54, 96
19, 113892, Note_on_c, 9, 54, 0
19, 114048, Note_on_c, 9, 54, 113
19, 114104, Note_on_c, 9, 54, 0
19, 114240, Note_on_c, 9, 54, 96
19, 114276, Note_on_c, 9, 54, 0
19, 114432, Note_on_c, 9, 54, 117
19, 114484, Note_on_c, 9, 54, 0
19, 114624, Note_on_c, 9, 54, 100
19, 114660, Note_on_c, 9, 54, 0
19, 114816, Note_on_c, 9, 54, 113
19, 114868, Note_on_c, 9, 54, 0
19, 115008, Note_on_c, 9, 54, 100
19, 115040, Note_on_c, 9, 54, 0
19, 115200, Note_on_c, 9, 54, 108
19, 115256, Note_on_c, 9, 54, 0
19, 115392, Note_on_c, 9, 54, 96
19, 115428, Note_on_c, 9, 54, 0
19, 115584, Note_on_c, 9, 54, 113
19, 115640, Note_on_c, 9, 54, 0
19, 115776, Note_on_c, 9, 54, 96
19, 115812, Note_on_c, 9, 54, 0
19, 115968, Note_on_c, 9, 54, 117
19, 116020, Note_on_c, 9, 54, 0
19, 116160, Note_on_c, 9, 54, 100
19, 116196, Note_on_c, 9, 54, 0
19, 116352, Note_on_c, 9, 54, 113
19, 116404, Note_on_c, 9, 54, 0
19, 116544, Note_on_c, 9, 54, 100
19, 116576, Note_on_c, 9, 54, 0
19, 116736, Note_on_c, 9, 54, 108
19, 116792, Note_on_c, 9, 54, 0
19, 116928, Note_on_c, 9, 54, 96
19, 116964, Note_on_c, 9, 54, 0
19, 117120, Note_on_c, 9, 54, 113
19, 117176, Note_on_c, 9, 54, 0
19, 117312, Note_on_c, 9, 54, 96
19, 117348, Note_on_c, 9, 54, 0
19, 117504, Note_on_c, 9, 54, 117
19, 117556, Note_on_c, 9, 54, 0
19, 117696, Note_on_c, 9, 54, 100
19, 117732, Note_on_c, 9, 54, 0
19, 117888, Note_on_c, 9, 54, 113
19, 117940, Note_on_c, 9, 54, 0
19, 118080, Note_on_c, 9, 54, 100
19, 118112, Note_on_c, 9, 54, 0
19, 118272, Note_on_c, 9, 54, 108
19, 118328, Note_on_c, 9, 54, 0
19, 118464, Note_on_c, 9, 54, 96
19, 118500, Note_on_c, 9, 54, 0
19, 118656, Note_on_c, 9, 54, 113
19, 118712, Note_on_c, 9, 54, 0
19, 118848, Note_on_c, 9, 54, 96
19, 118884, Note_on_c, 9, 54, 0
19, 119040, Note_on_c, 9, 54, 117
19, 119092, Note_on_c, 9, 54, 0
19, 119232, Note_on_c, 9, 54, 100
19, 119268, Note_on_c, 9, 54, 0
19, 119424, Note_on_c, 9, 54, 113
19, 119476, Note_on_c, 9, 54, 0
19, 119616, Note_on_c, 9, 54, 100
19, 119648, Note_on_c, 9, 54, 0
19, 119808, Note_on_c, 9, 54, 108
19, 119864, Note_on_c, 9, 54, 0
19, 120000, Note_on_c, 9, 54, 96
19, 120036, Note_on_c, 9, 54, 0
19, 120192, Note_on_c, 9, 54, 113
19, 120248, Note_on_c, 9, 54, 0
19, 120384, Note_on_c, 9, 54, 96
19, 120420, Note_on_c, 9, 54, 0
19, 120576, Note_on_c, 9, 54, 117
19, 120628, Note_on_c, 9, 54, 0
19, 120768, Note_on_c, 9, 54, 100
19, 120804, Note_on_c, 9, 54, 0
19, 120960, Note_on_c, 9, 54, 113
19, 121012, Note_on_c, 9, 54, 0
19, 121152, Note_on_c, 9, 54, 100
19, 121184, Note_on_c, 9, 54, 0
19, 121344, Note_on_c, 9, 54, 108
19, 121400, Note_on_c, 9, 54, 0
19, 121536, Note_on_c, 9, 54, 96
19, 121572, Note_on_c, 9, 54, 0
19, 121728, Note_on_c, 9, 54, 113
19, 121784, Note_on_c, 9, 54, 0
19, 121920, Note_on_c, 9, 54, 96
19, 121956, Note_on_c, 9, 54, 0
19, 122112, Note_on_c, 9, 54, 117
19, 122164, Note_on_c, 9, 54, 0
19, 122304, Note_on_c, 9, 54, 100
19, 122340, Note_on_c, 9, 54, 0
19, 122496, Note_on_c, 9, 54, 113
19, 122548, Note_on_c, 9, 54, 0
19, 122688, Note_on_c, 9, 54, 100
19, 122720, Note_on_c, 9, 54, 0
19, 122880, Note_on_c, 9, 54, 108
19, 122936, Note_on_c, 9, 54, 0
19, 123072, Note_on_c, 9, 54, 96
19, 123108, Note_on_c, 9, 54, 0
19, 123264, Note_on_c, 9, 54, 113
19, 123320, Note_on_c, 9, 54, 0
19, 123456, Note_on_c, 9, 54, 96
19, 123492, Note_on_c, 9, 54, 0
19, 123648, Note_on_c, 9, 54, 117
19, 123700, Note_on_c, 9, 54, 0
19, 123840, Note_on_c, 9, 54, 100
19, 123876, Note_on_c, 9, 54, 0
19, 124032, Note_on_c, 9, 54, 113
19, 124084, Note_on_c, 9, 54, 0
19, 124224, Note_on_c, 9, 54, 100
19, 124256, Note_on_c, 9, 54, 0
19, 124416, Note_on_c, 9, 54, 108
19, 124472, Note_on_c, 9, 54, 0
19, 124608, Note_on_c, 9, 54, 96
19, 124644, Note_on_c, 9, 54, 0
19, 124800, Note_on_c, 9, 54, 113
19, 124856, Note_on_c, 9, 54, 0
19, 124992, Note_on_c, 9, 54, 96
19, 125028, Note_on_c, 9, 54, 0
19, 125184, Note_on_c, 9, 54, 117
19, 125236, Note_on_c, 9, 54, 0
19, 125376, Note_on_c, 9, 54, 100
19, 125412, Note_on_c, 9, 54, 0
19, 125568, Note_on_c, 9, 54, 113
19, 125620, Note_on_c, 9, 54, 0
19, 125760, Note_on_c, 9, 54, 100
19, 125792, Note_on_c, 9, 54, 0
19, 125952, Note_on_c, 9, 54, 108
19, 126008, Note_on_c, 9, 54, 0
19, 126144, Note_on_c, 9, 54, 96
19, 126180, Note_on_c, 9, 54, 0
19, 126336, Note_on_c, 9, 54, 113
19, 126392, Note_on_c, 9, 54, 0
19, 126528, Note_on_c, 9, 54, 96
19, 126564, Note_on_c, 9, 54, 0
19, 126720, Note_on_c, 9, 54, 117
19, 126772, Note_on_c, 9, 54, 0
19, 126912, Note_on_c, 9, 54, 100
19, 126948, Note_on_c, 9, 54, 0
19, 127104, Note_on_c, 9, 54, 113
19, 127156, Note_on_c, 9, 54, 0
19, 127296, Note_on_c, 9, 54, 100
19, 127328, Note_on_c, 9, 54, 0
19, 127488, Note_on_c, 9, 54, 108
19, 127544, Note_on_c, 9, 54, 0
19, 127680, Note_on_c, 9, 54, 96
19, 127716, Note_on_c, 9, 54, 0
19, 127872, Note_on_c, 9, 54, 113
19, 127928, Note_on_c, 9, 54, 0
19, 128064, Note_on_c, 9, 54, 96
19, 128100, Note_on_c, 9, 54, 0
19, 128256, Note_on_c, 9, 54, 117
19, 128308, Note_on_c, 9, 54, 0
19, 128448, Note_on_c, 9, 54, 100
19, 128484, Note_on_c, 9, 54, 0
19, 128640, Note_on_c, 9, 54, 113
19, 128692, Note_on_c, 9, 54, 0
19, 128832, Note_on_c, 9, 54, 100
19, 128864, Note_on_c, 9, 54, 0
19, 129024, Note_on_c, 9, 54, 108
19, 129080, Note_on_c, 9, 54, 0
19, 129216, Note_on_c, 9, 54, 96
19, 129252, Note_on_c, 9, 54, 0
19, 129408, Note_on_c, 9, 54, 113
19, 129464, Note_on_c, 9, 54, 0
19, 129600, Note_on_c, 9, 54, 96
19, 129636, Note_on_c, 9, 54, 0
19, 129792, Note_on_c, 9, 54, 117
19, 129844, Note_on_c, 9, 54, 0
19, 129984, Note_on_c, 9, 54, 100
19, 130020, Note_on_c, 9, 54, 0
19, 130176, Note_on_c, 9, 54, 113
19, 130228, Note_on_c, 9, 54, 0
19, 130368, Note_on_c, 9, 54, 100
19, 130400, Note_on_c, 9, 54, 0
19, 130560, Note_on_c, 9, 54, 108
19, 130616, Note_on_c, 9, 54, 0
19, 130752, Note_on_c, 9, 54, 96
19, 130788, Note_on_c, 9, 54, 0
19, 130944, Note_on_c, 9, 54, 113
19, 131000, Note_on_c, 9, 54, 0
19, 131136, Note_on_c, 9, 54, 96
19, 131172, Note_on_c, 9, 54, 0
19, 131328, Note_on_c, 9, 54, 117
19, 131380, Note_on_c, 9, 54, 0
19, 131520, Note_on_c, 9, 54, 100
19, 131556, Note_on_c, 9, 54, 0
19, 131712, Note_on_c, 9, 54, 113
19, 131764, Note_on_c, 9, 54, 0
19, 131904, Note_on_c, 9, 54, 100
19, 131936, Note_on_c, 9, 54, 0
19, 132096, Note_on_c, 9, 54, 108
19, 132152, Note_on_c, 9, 54, 0
19, 132288, Note_on_c, 9, 54, 94
19, 132324, Note_on_c, 9, 54, 0
19, 132480, Note_on_c, 9, 54, 108
19, 132536, Note_on_c, 9, 54, 0
19, 132672, Note_on_c, 9, 54, 90
19, 132708, Note_on_c, 9, 54, 0
19, 132864, Note_on_c, 9, 54, 107
19, 132916, Note_on_c, 9, 54, 0
19, 133056, Note_on_c, 9, 54, 90
19, 133092, Note_on_c, 9, 54, 0
19, 133248, Note_on_c, 9, 54, 98
19, 133300, Note_on_c, 9, 54, 0
19, 133440, Note_on_c, 9, 54, 85
19, 133472, Note_on_c, 9, 54, 0
19, 133632, Note_on_c, 9, 54, 89
19, 133688, Note_on_c, 9, 54, 0
19, 133824, Note_on_c, 9, 54, 77
19, 133860, Note_on_c, 9, 54, 0
19, 134016, Note_on_c, 9, 54, 89
19, 134072, Note_on_c, 9, 54, 0
19, 134208, Note_on_c, 9, 54, 72
19, 134244, Note_on_c, 9, 54, 0
19, 134400, Note_on_c, 9, 54, 86
19, 134452, Note_on_c, 9, 54, 0
19, 134592, Note_on_c, 9, 54, 72
19, 134628, Note_on_c, 9, 54, 0
19, 134784, Note_on_c, 9, 54, 79
19, 134836, Note_on_c, 9, 54, 0
19, 134976, Note_on_c, 9, 54, 68
19, 135008, Note_on_c, 9, 54, 0
19, 156672, Note_on_c, 9, 54, 108
19, 156728, Note_on_c, 9, 54, 0
19, 156864, Note_on_c, 9, 54, 96
19, 156900, Note_on_c, 9, 54, 0
19, 157056, Note_on_c, 9, 54, 113
19, 157112, Note_on_c, 9, 54, 0
19, 157248, Note_on_c, 9, 54, 96
19, 157284, Note_on_c, 9, 54, 0
19, 157440, Note_on_c, 9, 54, 117
19, 157492, Note_on_c, 9, 54, 0
19, 157632, Note_on_c, 9, 54, 100
19, 157668, Note_on_c, 9, 54, 0
19, 157824, Note_on_c, 9, 54, 113
19, 157876, Note_on_c, 9, 54, 0
19, 158016, Note_on_c, 9, 54, 100
19, 158048, Note_on_c, 9, 54, 0
19, 158208, Note_on_c, 9, 54, 108
19, 158264, Note_on_c, 9, 54, 0
19, 158400, Note_on_c, 9, 54, 96
19, 158436, Note_on_c, 9, 54, 0
19, 158592, Note_on_c, 9, 54, 113
19, 158648, Note_on_c, 9, 54, 0
19, 158784, Note_on_c, 9, 54, 96
19, 158820, Note_on_c, 9, 54, 0
19, 158976, Note_on_c, 9, 54, 117
19, 159028, Note_on_c, 9, 54, 0
19, 159168, Note_on_c, 9, 54, 100
19, 159204, Note_on_c, 9, 54, 0
19, 159360, Note_on_c, 9, 54, 113
19, 159412, Note_on_c, 9, 54, 0
19, 159552, Note_on_c, 9, 54, 100
19, 159584, Note_on_c, 9, 54, 0
19, 159744, Note_on_c, 9, 54, 108
19, 159800, Note_on_c, 9, 54, 0
19, 159936, Note_on_c, 9, 54, 96
19, 159972, Note_on_c, 9, 54, 0
19, 160128, Note_on_c, 9, 54, 113
19, 160184, Note_on_c, 9, 54, 0
19, 160320, Note_on_c, 9, 54, 96
19, 160356, Note_on_c, 9, 54, 0
19, 160512, Note_on_c, 9, 54, 117
19, 160564, Note_on_c, 9, 54, 0
19, 160704, Note_on_c, 9, 54, 100
19, 160740, Note_on_c, 9, 54, 0
19, 160896, Note_on_c, 9, 54, 113
19, 160948, Note_on_c, 9, 54, 0
19, 161088, Note_on_c, 9, 54, 100
19, 161120, Note_on_c, 9, 54, 0
19, 161280, Note_on_c, 9, 54, 108
19, 161336, Note_on_c, 9, 54, 0
19, 161472, Note_on_c, 9, 54, 96
19, 161508, Note_on_c, 9, 54, 0
19, 161664, Note_on_c, 9, 54, 113
19, 161720, Note_on_c, 9, 54, 0
19, 161856, Note_on_c, 9, 54, 96
19, 161892, Note_on_c, 9, 54, 0
19, 162048, Note_on_c, 9, 54, 117
19, 162100, Note_on_c, 9, 54, 0
19, 162240, Note_on_c, 9, 54, 100
19, 162276, Note_on_c, 9, 54, 0
19, 162432, Note_on_c, 9, 54, 113
19, 162484, Note_on_c, 9, 54, 0
19, 162624, Note_on_c, 9, 54, 100
19, 162656, Note_on_c, 9, 54, 0
19, 162816, Note_on_c, 9, 54, 108
19, 162872, Note_on_c, 9, 54, 0
19, 163008, Note_on_c, 9, 54, 96
19, 163044, Note_on_c, 9, 54, 0
19, 163200, Note_on_c, 9, 54, 113
19, 163256, Note_on_c, 9, 54, 0
19, 163392, Note_on_c, 9, 54, 96
19, 163428, Note_on_c, 9, 54, 0
19, 163584, Note_on_c, 9, 54, 117
19, 163636, Note_on_c, 9, 54, 0
19, 163776, Note_on_c, 9, 54, 100
19, 163812, Note_on_c, 9, 54, 0
19, 163968, Note_on_c, 9, 54, 113
19, 164020, Note_on_c, 9, 54, 0
19, 164160, Note_on_c, 9, 54, 100
19, 164192, Note_on_c, 9, 54, 0
19, 164352, Note_on_c, 9, 54, 108
19, 164408, Note_on_c, 9, 54, 0
19, 164544, Note_on_c, 9, 54, 96
19, 164580, Note_on_c, 9, 54, 0
19, 164736, Note_on_c, 9, 54, 113
19, 164792, Note_on_c, 9, 54, 0
19, 164928, Note_on_c, 9, 54, 96
19, 164964, Note_on_c, 9, 54, 0
19, 165120, Note_on_c, 9, 54, 117
19, 165172, Note_on_c, 9, 54, 0
19, 165312, Note_on_c, 9, 54, 100
19, 165348, Note_on_c, 9, 54, 0
19, 165504, Note_on_c, 9, 54, 113
19, 165556, Note_on_c, 9, 54, 0
19, 165696, Note_on_c, 9, 54, 100
19, 165728, Note_on_c, 9, 54, 0
19, 165888, Note_on_c, 9, 54, 108
19, 165944, Note_on_c, 9, 54, 0
19, 166080, Note_on_c, 9, 54, 96
19, 166116, Note_on_c, 9, 54, 0
19, 166272, Note_on_c, 9, 54, 113
19, 166328, Note_on_c, 9, 54, 0
19, 166464, Note_on_c, 9, 54, 96
19, 166500, Note_on_c, 9, 54, 0
19, 166656, Note_on_c, 9, 54, 117
19, 166708, Note_on_c, 9, 54, 0
19, 166848, Note_on_c, 9, 54, 100
19, 166884, Note_on_c, 9, 54, 0
19, 167040, Note_on_c, 9, 54, 113
19, 167092, Note_on_c, 9, 54, 0
19, 167232, Note_on_c, 9, 54, 100
19, 167264, Note_on_c, 9, 54, 0
19, 167424, Note_on_c, 9, 54, 108
19, 167480, Note_on_c, 9, 54, 0
19, 167616, Note_on_c, 9, 54, 96
19, 167652, Note_on_c, 9, 54, 0
19, 167808, Note_on_c, 9, 54, 113
19, 167864, Note_on_c, 9, 54, 0
19, 168000, Note_on_c, 9, 54, 96
19, 168036, Note_on_c, 9, 54, 0
19, 168192, Note_on_c, 9, 54, 117
19, 168244, Note_on_c, 9, 54, 0
19, 168384, Note_on_c, 9, 54, 100
19, 168420, Note_on_c, 9, 54, 0
19, 168576, Note_on_c, 9, 54, 113
19, 168628, Note_on_c, 9, 54, 0
19, 168768, Note_on_c, 9, 54, 100
19, 168800, Note_on_c, 9, 54, 0
19, 168960, Note_on_c, 9, 54, 108
19, 169016, Note_on_c, 9, 54, 0
19, 169152, Note_on_c, 9, 54, 96
19, 169188, Note_on_c, 9, 54, 0
19, 169344, Note_on_c, 9, 54, 113
19, 169400, Note_on_c, 9, 54, 0
19, 169536, Note_on_c, 9, 54, 96
19, 169572, Note_on_c, 9, 54, 0
19, 169728, Note_on_c, 9, 54, 117
19, 169780, Note_on_c, 9, 54, 0
19, 169920, Note_on_c, 9, 54, 100
19, 169956, Note_on_c, 9, 54, 0
19, 170112, Note_on_c, 9, 54, 113
19, 170164, Note_on_c, 9, 54, 0
19, 170304, Note_on_c, 9, 54, 100
19, 170336, Note_on_c, 9, 54, 0
19, 170496, Note_on_c, 9, 54, 108
19, 170552, Note_on_c, 9, 54, 0
19, 170688, Note_on_c, 9, 54, 96
19, 170724, Note_on_c, 9, 54, 0
19, 170880, Note_on_c, 9, 54, 113
19, 170936, Note_on_c, 9, 54, 0
19, 171072, Note_on_c, 9, 54, 96
19, 171108, Note_on_c, 9, 54, 0
19, 171264, Note_on_c, 9, 54, 117
19, 171316, Note_on_c, 9, 54, 0
19, 171456, Note_on_c, 9, 54, 100
19, 171492, Note_on_c, 9, 54, 0
19, 171648, Note_on_c, 9, 54, 113
19, 171700, Note_on_c, 9, 54, 0
19, 171840, Note_on_c, 9, 54, 100
19, 171872, Note_on_c, 9, 54, 0
19, 172032, Note_on_c, 9, 54, 108
19, 172088, Note_on_c, 9, 54, 0
19, 172224, Note_on_c, 9, 54, 95
19, 172260, Note_on_c, 9, 54, 0
19, 172416, Note_on_c, 9, 54, 110
19, 172472, Note_on_c, 9, 54, 0
19, 172608, Note_on_c, 9, 54, 93
19, 172644, Note_on_c, 9, 54, 0
19, 172800, Note_on_c, 9, 54, 112
19, 172852, Note_on_c, 9, 54, 0
19, 172992, Note_on_c, 9, 54, 95
19, 173028, Note_on_c, 9, 54, 0
19, 173184, Note_on_c, 9, 54, 106
19, 173236, Note_on_c, 9, 54, 0
19, 173376, Note_on_c, 9, 54, 93
19, 173408, Note_on_c, 9, 54, 0
19, 173568, Note_on_c, 9, 54, 99
19, 173624, Note_on_c, 9, 54, 0
19, 173760, Note_on_c, 9, 54, 87
19, 173796, Note_on_c, 9, 54, 0
19, 173952, Note_on_c, 9, 54, 101
19, 174008, Note_on_c, 9, 54, 0
19, 174144, Note_on_c, 9, 54, 85
19, 174180, Note_on_c, 9, 54, 0
19, 174336, Note_on_c, 9, 54, 102
19, 174388, Note_on_c, 9, 54, 0
19, 174528, Note_on_c, 9, 54, 87
19, 174564, Note_on_c, 9, 54, 0
19, 174720, Note_on_c, 9, 54, 97
19, 174772, Note_on_c, 9, 54, 0
19, 174912, Note_on_c, 9, 54, 85
19, 174944, Note_on_c, 9, 54, 0
19, 175104, Note_on_c, 9, 54, 90
19, 175160, Note_on_c, 9, 54, 0
19, 175296, Note_on_c, 9, 54, 79
19, 175332, Note_on_c, 9, 54, 0
19, 175488, Note_on_c, 9, 54, 92
19, 175544, Note_on_c, 9, 54, 0
19, 175680, Note_on_c, 9, 54, 77
19, 175716, Note_on_c, 9, 54, 0
19, 175872, Note_on_c, 9, 54, 93
19, 175924, Note_on_c, 9, 54, 0
19, 176064, Note_on_c, 9, 54, 79
19, 176100, Note_on_c, 9, 54, 0
19, 176256, Note_on_c, 9, 54, 88
19, 176308, Note_on_c, 9, 54, 0
19, 176448, Note_on_c, 9, 54, 77
19, 176480, Note_on_c, 9, 54, 0
19, 176640, Note_on_c, 9, 54, 81
19, 176696, Note_on_c, 9, 54, 0
19, 176832, Note_on_c, 9, 54, 71
19, 176868, Note_on_c, 9, 54, 0
19, 177024, Note_on_c, 9, 54, 82
19, 177080, Note_on_c, 9, 54, 0
19, 177216, Note_on_c, 9, 54, 69
19, 177252, Note_on_c, 9, 54, 0
19, 177408, Note_on_c, 9, 54, 83
19, 177460, Note_on_c, 9, 54, 0
19, 177600, Note_on_c, 9, 54, 70
19, 177636, Note_on_c, 9, 54, 0
19, 177792, Note_on_c, 9, 54, 77
19, 177844, Note_on_c, 9, 54, 0
19, 177984, Note_on_c, 9, 54, 68
19, 178016, Note_on_c, 9, 54, 0
19, 178176, Note_on_c, 9, 54, 72
19, 178232, Note_on_c, 9, 54, 0
19, 178368, Note_on_c, 9, 54, 62
19, 178404, Note_on_c, 9, 54, 0
19, 178560, Note_on_c, 9, 54, 70
19, 178616, Note_on_c, 9, 54, 0
19, 178752, Note_on_c, 9, 54, 57
19, 178788, Note_on_c, 9, 54, 0
19, 178944, Note_on_c, 9, 54, 67
19, 178996, Note_on_c, 9, 54, 0
19, 179136, Note_on_c, 9, 54, 55
19, 179172, Note_on_c, 9, 54, 0
19, 179328, Note_on_c, 9, 54, 59
19, 179380, Note_on_c, 9, 54, 0
19, 179520, Note_on_c, 9, 54, 51
19, 179552, Note_on_c, 9, 54, 0
19, 179712, Note_on_c, 9, 54, 52
19, 179768, Note_on_c, 9, 54, 0
19, 179904, Note_on_c, 9, 54, 44
19, 179940, Note_on_c, 9, 54, 0
19, 180096, Note_on_c, 9, 54, 50
19, 180152, Note_on_c, 9, 54, 0
19, 180288, Note_on_c, 9, 54, 40
19, 180324, Note_on_c, 9, 54, 0
19, 180480, Note_on_c, 9, 54, 47
19, 180532, Note_on_c, 9, 54, 0
19, 180672, Note_on_c, 9, 54, 38
19, 180708, Note_on_c, 9, 54, 0
19, 180864, Note_on_c, 9, 54, 41
19, 180916, Note_on_c, 9, 54, 0
19, 181056, Note_on_c, 9, 54, 35
19, 181088, Note_on_c, 9, 54, 0
19, 181248, Note_on_c, 9, 54, 54
19, 181304, Note_on_c, 9, 54, 0
19, 181440, Note_on_c, 9, 54, 46
19, 181476, Note_on_c, 9, 54, 0
19, 181632, Note_on_c, 9, 54, 51
19, 181688, Note_on_c, 9, 54, 0
19, 181824, Note_on_c, 9, 54, 42
19, 181860, Note_on_c, 9, 54, 0
19, 182016, Note_on_c, 9, 54, 49
19, 182068, Note_on_c, 9, 54, 0
19, 182208, Note_on_c, 9, 54, 40
19, 182244, Note_on_c, 9, 54, 0
19, 182400, Note_on_c, 9, 54, 43
19, 182452, Note_on_c, 9, 54, 0
19, 182592, Note_on_c, 9, 54, 36
19, 182624, Note_on_c, 9, 54, 0
19, 182784, Note_on_c, 9, 54, 37
19, 182840, Note_on_c, 9, 54, 0
19, 182976, Note_on_c, 9, 54, 31
19, 183012, Note_on_c, 9, 54, 0
19, 183168, Note_on_c, 9, 54, 35
19, 183224, Note_on_c, 9, 54, 0
19, 183360, Note_on_c, 9, 54, 28
19, 183396, Note_on_c, 9, 54, 0
19, 183552, Note_on_c, 9, 54, 32
19, 183604, Note_on_c, 9, 54, 0
19, 183744, Note_on_c, 9, 54, 26
19, 183780, Note_on_c, 9, 54, 0
19, 183936, Note_on_c, 9, 54, 28
19, 183988, Note_on_c, 9, 54, 0
19, 184128, Note_on_c, 9, 54, 23
19, 184160, Note_on_c, 9, 54, 0
19, 184320, Note_on_c, 9, 54, 36
19, 184376, Note_on_c, 9, 54, 0
19, 184512, Note_on_c, 9, 54, 31
19, 184548, Note_on_c, 9, 54, 0
19, 184704, Note_on_c, 9, 54, 34
19, 184760, Note_on_c, 9, 54, 0
19, 184896, Note_on_c, 9, 54, 27
19, 184932, Note_on_c, 9, 54, 0
19, 185088, Note_on_c, 9, 54, 32
19, 185140, Note_on_c, 9, 54, 0
19, 185280, Note_on_c, 9, 54, 26
19, 185316, Note_on_c, 9, 54, 0
19, 185472, Note_on_c, 9, 54, 27
19, 185524, Note_on_c, 9, 54, 0
19, 185664, Note_on_c, 9, 54, 22
19, 185696, Note_on_c, 9, 54, 0
19, 185856, Note_on_c, 9, 54, 22
19, 185912, Note_on_c, 9, 54, 0
19, 186048, Note_on_c, 9, 54, 18
19, 186084, Note_on_c, 9, 54, 0
19, 186240, Note_on_c, 9, 54, 20
19, 186296, Note_on_c, 9, 54, 0
19, 186432, Note_on_c, 9, 54, 15
19, 186468, Note_on_c, 9, 54, 0
19, 186624, Note_on_c, 9, 54, 18
19, 186676, Note_on_c, 9, 54, 0
19, 186816, Note_on_c, 9, 54, 14
19, 186852, Note_on_c, 9, 54, 0
19, 187008, Note_on_c, 9, 54, 15
19, 187060, Note_on_c, 9, 54, 0
19, 187200, Note_on_c, 9, 54, 12
19, 187232, Note_on_c, 9, 54, 0
19, 187392, Note_on_c, 9, 54, 18
19, 187448, Note_on_c, 9, 54, 0
19, 187584, Note_on_c, 9, 54, 15
19, 187620, Note_on_c, 9, 54, 0
19, 187776, Note_on_c, 9, 54, 16
19, 187832, Note_on_c, 9, 54, 0
19, 187968, Note_on_c, 9, 54, 12
19, 188004, Note_on_c, 9, 54, 0
19, 188160, Note_on_c, 9, 54, 13
19, 188212, Note_on_c, 9, 54, 0
19, 188352, Note_on_c, 9, 54, 10
19, 188388, Note_on_c, 9, 54, 0
19, 188544, Note_on_c, 9, 54, 10
19, 188596, Note_on_c, 9, 54, 0
19, 188736, Note_on_c, 9, 54, 8
19, 188768, Note_on_c, 9, 54, 0
19, 188928, Note_on_c, 9, 54, 8
19, 188984, Note_on_c, 9, 54, 0
19, 189120, Note_on_c, 9, 54, 6
19, 189156, Note_on_c, 9, 54, 0
19, 189312, Note_on_c, 9, 54, 6
19, 189368, Note_on_c, 9, 54, 0
19, 189504, Note_on_c, 9, 54, 4
19, 189540, Note_on_c, 9, 54, 0
19, 189696, Note_on_c, 9, 54, 4
19, 189748, Note_on_c, 9, 54, 0
19, 189888, Note_on_c, 9, 54, 2
19, 189924, Note_on_c, 9, 54, 0
19, 190080, Note_on_c, 9, 54, 2
19, 190132, Note_on_c, 9, 54, 0
19, 190272, Note_on_c, 9, 54, 1
19, 190304, Note_on_c, 9, 54, 0
19, 190304, End_track
20, 0, Start_track
20, 0, MIDI_port, 0
20, 0, Title_t, "Cello"
20, 0, Program_c, 12, 42
20, 0, Control_c, 12, 7, 92
20, 0, Control_c, 12, 91, 40
20, 0, Control_c, 12, 93, 0
20, 0, Control_c, 12, 7, 100
20, 159764, Note_on_c, 12, 57, 113
20, 159792, Channel_aftertouch_c, 12, 11
20, 159804, Channel_aftertouch_c, 12, 13
20, 159816, Channel_aftertouch_c, 12, 8
20, 159828, Channel_aftertouch_c, 12, 6
20, 159944, Channel_aftertouch_c, 12, 6
20, 159956, Channel_aftertouch_c, 12, 5
20, 159972, Channel_aftertouch_c, 12, 3
20, 159984, Channel_aftertouch_c, 12, 1
20, 159992, Channel_aftertouch_c, 12, 0
20, 160996, Note_on_c, 12, 57, 0
20, 161280, Note_on_c, 12, 61, 102
20, 161832, Note_on_c, 12, 61, 0
20, 161856, Note_on_c, 12, 62, 77
20, 162024, Note_on_c, 12, 62, 0
20, 162048, Note_on_c, 12, 61, 100
20, 162416, Note_on_c, 12, 59, 99
20, 162448, Note_on_c, 12, 61, 0
20, 162668, Note_on_c, 12, 59, 0
20, 162688, Note_on_c, 12, 61, 87
20, 162744, Note_on_c, 12, 59, 91
20, 162768, Note_on_c, 12, 61, 0
20, 162816, Note_on_c, 12, 59, 0
20, 162832, Note_on_c, 12, 57, 90
20, 164048, Note_on_c, 12, 57, 0
20, 164352, Note_on_c, 12, 61, 91
20, 164904, Note_on_c, 12, 61, 0
20, 164928, Note_on_c, 12, 62, 68
20, 165096, Note_on_c, 12, 62, 0
20, 165120, Note_on_c, 12, 61, 89
20, 165488, Note_on_c, 12, 59, 88
20, 165520, Note_on_c, 12, 61, 0
20, 165740, Note_on_c, 12, 59, 0
20, 165760, Note_on_c, 12, 61, 77
20, 165816, Note_on_c, 12, 59, 81
20, 165840, Note_on_c, 12, 61, 0
20, 165888, Note_on_c, 12, 59, 0
20, 165904, Note_on_c, 12, 57, 80
20, 167120, Note_on_c, 12, 57, 0
20, 167424, Note_on_c, 12, 61, 81
20, 167976, Note_on_c, 12, 61, 0
20, 168000, Note_on_c, 12, 62, 60
20, 168168, Note_on_c, 12, 62, 0
20, 168192, Note_on_c, 12, 61, 78
20, 168560, Note_on_c, 12, 59, 77
20, 168592, Note_on_c, 12, 61, 0
20, 168812, Note_on_c, 12, 59, 0
20, 168832, Note_on_c, 12, 61, 68
20, 168888, Note_on_c, 12, 59, 71
20, 168912, Note_on_c, 12, 61, 0
20, 168960, Note_on_c, 12, 59, 0
20, 168976, Note_on_c, 12, 57, 70
20, 170192, Note_on_c, 12, 57, 0
20, 170496, Note_on_c, 12, 61, 70
20, 171048, Note_on_c, 12, 61, 0
20, 171072, Note_on_c, 12, 62, 52
20, 171240, Note_on_c, 12, 62, 0
20, 171264, Note_on_c, 12, 61, 68
20, 171632, Note_on_c, 12, 59, 66
20, 171664, Note_on_c, 12, 61, 0
20, 171884, Note_on_c, 12, 59, 0
20, 171904, Note_on_c, 12, 61, 58
20, 171960, Note_on_c, 12, 59, 61
20, 171984, Note_on_c, 12, 61, 0
20, 172032, Note_on_c, 12, 59, 0
20, 172048, Note_on_c, 12, 57, 60
20, 173264, Note_on_c, 12, 57, 0
20, 173568, Note_on_c, 12, 61, 59
20, 174120, Note_on_c, 12, 61, 0
20, 174144, Note_on_c, 12, 62, 44
20, 174312, Note_on_c, 12, 62, 0
20, 174336, Note_on_c, 12, 61, 57
20, 174704, Note_on_c, 12, 59, 56
20, 174736, Note_on_c, 12, 61, 0
20, 174956, Note_on_c, 12, 59, 0
20, 174976, Note_on_c, 12, 61, 48
20, 175032, Note_on_c, 12, 59, 51
20, 175056, Note_on_c, 12, 61, 0
20, 175104, Note_on_c, 12, 59, 0
20, 175120, Note_on_c, 12, 57, 50
20, 176336, Note_on_c, 12, 57, 0
20, 176640, Note_on_c, 12, 61, 48
20, 177192, Note_on_c, 12, 61, 0
20, 177216, Note_on_c, 12, 62, 36
20, 177384, Note_on_c, 12, 62, 0
20, 177408, Note_on_c, 12, 61, 46
20, 177776, Note_on_c, 12, 59, 45
20, 177808, Note_on_c, 12, 61, 0
20, 178028, Note_on_c, 12, 59, 0
20, 178048, Note_on_c, 12, 61, 39
20, 178104, Note_on_c, 12, 59, 41
20, 178128, Note_on_c, 12, 61, 0
20, 178176, Note_on_c, 12, 59, 0
20, 178192, Note_on_c, 12, 57, 40
20, 179408, Note_on_c, 12, 57, 0
20, 179712, Note_on_c, 12, 61, 37
20, 180264, Note_on_c, 12, 61, 0
20, 180288, Note_on_c, 12, 62, 27
20, 180456, Note_on_c, 12, 62, 0
20, 180480, Note_on_c, 12, 61, 35
20, 180848, Note_on_c, 12, 59, 34
20, 180880, Note_on_c, 12, 61, 0
20, 181100, Note_on_c, 12, 59, 0
20, 181120, Note_on_c, 12, 61, 29
20, 181176, Note_on_c, 12, 59, 31
20, 181200, Note_on_c, 12, 61, 0
20, 181248, Note_on_c, 12, 59, 0
20, 181264, Note_on_c, 12, 57, 30
20, 182480, Note_on_c, 12, 57, 0
20, 182784, Note_on_c, 12, 61, 27
20, 183336, Note_on_c, 12, 61, 0
20, 183360, Note_on_c, 12, 62, 19
20, 183528, Note_on_c, 12, 62, 0
20, 183552, Note_on_c, 12, 61, 24
20, 183920, Note_on_c, 12, 59, 23
20, 183952, Note_on_c, 12, 61, 0
20, 184172, Note_on_c, 12, 59, 0
20, 184192, Note_on_c, 12, 61, 20
20, 184248, Note_on_c, 12, 59, 21
20, 184272, Note_on_c, 12, 61, 0
20, 184320, Note_on_c, 12, 59, 0
20, 184336, Note_on_c, 12, 57, 20
20, 185552, Note_on_c, 12, 57, 0
20, 185856, Note_on_c, 12, 61, 16
20, 186408, Note_on_c, 12, 61, 0
20, 186432, Note_on_c, 12, 62, 11
20, 186600, Note_on_c, 12, 62, 0
20, 186624, Note_on_c, 12, 61, 14
20, 186992, Note_on_c, 12, 59, 12
20, 187024, Note_on_c, 12, 61, 0
20, 187244, Note_on_c, 12, 59, 0
20, 187264, Note_on_c, 12, 61, 10
20, 187320, Note_on_c, 12, 59, 11
20, 187344, Note_on_c, 12, 61, 0
20, 187392, Note_on_c, 12, 59, 0
20, 187408, Note_on_c, 12, 57, 10
20, 188624, Note_on_c, 12, 57, 0
20, 188928, Note_on_c, 12, 61, 5
20, 189480, Note_on_c, 12, 61, 0
20, 189504, Note_on_c, 12, 62, 3
20, 189672, Note_on_c, 12, 62, 0
20, 189696, Note_on_c, 12, 61, 3
20, 190064, Note_on_c, 12, 59, 2
20, 190096, Note_on_c, 12, 61, 0
20, 190316, Note_on_c, 12, 59, 0
20, 190336, Note_on_c, 12, 61, 1
20, 190392, Note_on_c, 12, 59, 1
20, 190416, Note_on_c, 12, 61, 0
20, 190464, Note_on_c, 12, 59, 0
20, 190464, End_track
21, 0, Start_track
21, 0, MIDI_port, 0
21, 0, Title_t, "End Vocals"
21, 0, Program_c, 14, 48
21, 0, Control_c, 14, 7, 127
21, 0, Control_c, 14, 91, 40
21, 0, Control_c, 14, 93, 0
21, 153592, Note_on_c, 14, 61, 122
21, 154368, Note_on_c, 14, 59, 100
21, 154372, Note_on_c, 14, 61, 0
21, 155112, Note_on_c, 14, 59, 0
21, 155136, Note_on_c, 14, 64, 96
21, 155136, Note_on_c, 14, 61, 113
21, 155180, Channel_aftertouch_c, 14, 46
21, 155192, Channel_aftertouch_c, 14, 49
21, 155208, Channel_aftertouch_c, 14, 49
21, 155220, Channel_aftertouch_c, 14, 53
21, 155232, Channel_aftertouch_c, 14, 56
21, 155244, Channel_aftertouch_c, 14, 58
21, 155256, Channel_aftertouch_c, 14, 58
21, 155340, Channel_aftertouch_c, 14, 59
21, 155352, Channel_aftertouch_c, 14, 61
21, 155364, Channel_aftertouch_c, 14, 62
21, 155380, Channel_aftertouch_c, 14, 62
21, 155416, Channel_aftertouch_c, 14, 63
21, 155424, Channel_aftertouch_c, 14, 63
21, 155440, Channel_aftertouch_c, 14, 64
21, 155452, Channel_aftertouch_c, 14, 65
21, 155464, Channel_aftertouch_c, 14, 65
21, 155488, Channel_aftertouch_c, 14, 66
21, 155500, Channel_aftertouch_c, 14, 66
21, 155548, Channel_aftertouch_c, 14, 64
21, 155560, Channel_aftertouch_c, 14, 63
21, 155576, Channel_aftertouch_c, 14, 61
21, 155588, Channel_aftertouch_c, 14, 60
21, 155648, Channel_aftertouch_c, 14, 59
21, 155660, Channel_aftertouch_c, 14, 57
21, 155672, Channel_aftertouch_c, 14, 55
21, 155684, Channel_aftertouch_c, 14, 54
21, 155696, Channel_aftertouch_c, 14, 52
21, 155712, Channel_aftertouch_c, 14, 49
21, 155724, Channel_aftertouch_c, 14, 44
21, 155736, Channel_aftertouch_c, 14, 38
21, 155748, Channel_aftertouch_c, 14, 34
21, 155760, Channel_aftertouch_c, 14, 34
21, 155784, Channel_aftertouch_c, 14, 32
21, 155796, Channel_aftertouch_c, 14, 30
21, 155808, Channel_aftertouch_c, 14, 29
21, 155824, Channel_aftertouch_c, 14, 28
21, 155836, Channel_aftertouch_c, 14, 17
21, 155848, Note_on_c, 14, 61, 0
21, 155848, Channel_aftertouch_c, 14, 0
21, 155860, Note_on_c, 14, 64, 0
21, 155904, Note_on_c, 14, 59, 96
21, 155904, Note_on_c, 14, 62, 96
21, 155936, Channel_aftertouch_c, 14, 61
21, 155948, Channel_aftertouch_c, 14, 69
21, 155960, Channel_aftertouch_c, 14, 75
21, 155984, Channel_aftertouch_c, 14, 78
21, 156000, Channel_aftertouch_c, 14, 79
21, 156012, Channel_aftertouch_c, 14, 81
21, 156024, Channel_aftertouch_c, 14, 82
21, 156040, Channel_aftertouch_c, 14, 83
21, 156076, Channel_aftertouch_c, 14, 83
21, 156100, Channel_aftertouch_c, 14, 84
21, 156128, Channel_aftertouch_c, 14, 85
21, 156140, Channel_aftertouch_c, 14, 85
21, 156152, Channel_aftertouch_c, 14, 86
21, 156168, Channel_aftertouch_c, 14, 86
21, 156180, Channel_aftertouch_c, 14, 87
21, 156208, Channel_aftertouch_c, 14, 87
21, 156256, Channel_aftertouch_c, 14, 88
21, 156320, Channel_aftertouch_c, 14, 86
21, 156332, Channel_aftertouch_c, 14, 85
21, 156368, Channel_aftertouch_c, 14, 85
21, 156396, Channel_aftertouch_c, 14, 84
21, 156408, Channel_aftertouch_c, 14, 83
21, 156420, Channel_aftertouch_c, 14, 82
21, 156436, Channel_aftertouch_c, 14, 81
21, 156448, Channel_aftertouch_c, 14, 79
21, 156460, Channel_aftertouch_c, 14, 76
21, 156476, Channel_aftertouch_c, 14, 74
21, 156488, Channel_aftertouch_c, 14, 70
21, 156500, Channel_aftertouch_c, 14, 64
21, 156516, Channel_aftertouch_c, 14, 48
21, 156524, Note_on_c, 14, 59, 0
21, 156528, Channel_aftertouch_c, 14, 1
21, 156540, Channel_aftertouch_c, 14, 0
21, 156560, Note_on_c, 14, 62, 0
21, 156672, Note_on_c, 14, 57, 113
21, 156672, Note_on_c, 14, 61, 113
21, 156680, Channel_aftertouch_c, 14, 31
21, 156696, Channel_aftertouch_c, 14, 49
21, 156708, Channel_aftertouch_c, 14, 50
21, 156724, Channel_aftertouch_c, 14, 55
21, 156736, Channel_aftertouch_c, 14, 62
21, 156752, Channel_aftertouch_c, 14, 63
21, 156764, Channel_aftertouch_c, 14, 64
21, 156828, Channel_aftertouch_c, 14, 64
21, 156840, Channel_aftertouch_c, 14, 65
21, 156856, Channel_aftertouch_c, 14, 66
21, 156868, Channel_aftertouch_c, 14, 67
21, 156880, Channel_aftertouch_c, 14, 68
21, 156908, Channel_aftertouch_c, 14, 68
21, 156920, Channel_aftertouch_c, 14, 69
21, 156936, Channel_aftertouch_c, 14, 70
21, 156948, Channel_aftertouch_c, 14, 70
21, 156960, Channel_aftertouch_c, 14, 71
21, 157016, Channel_aftertouch_c, 14, 71
21, 157024, Channel_aftertouch_c, 14, 72
21, 157040, Channel_aftertouch_c, 14, 73
21, 157104, Channel_aftertouch_c, 14, 73
21, 157244, Channel_aftertouch_c, 14, 74
21, 157256, Channel_aftertouch_c, 14, 74
21, 157716, Channel_aftertouch_c, 14, 72
21, 157728, Channel_aftertouch_c, 14, 72
21, 157776, Channel_aftertouch_c, 14, 71
21, 157804, Channel_aftertouch_c, 14, 71
21, 157852, Channel_aftertouch_c, 14, 70
21, 157864, Channel_aftertouch_c, 14, 69
21, 157888, Channel_aftertouch_c, 14, 69
21, 157904, Channel_aftertouch_c, 14, 68
21, 157916, Channel_aftertouch_c, 14, 67
21, 157928, Channel_aftertouch_c, 14, 66
21, 157988, Channel_aftertouch_c, 14, 66
21, 158000, Channel_aftertouch_c, 14, 65
21, 158048, Channel_aftertouch_c, 14, 64
21, 158100, Channel_aftertouch_c, 14, 64
21, 158112, Channel_aftertouch_c, 14, 62
21, 158124, Channel_aftertouch_c, 14, 61
21, 158136, Channel_aftertouch_c, 14, 60
21, 158164, Channel_aftertouch_c, 14, 60
21, 158176, Channel_aftertouch_c, 14, 59
21, 158188, Channel_aftertouch_c, 14, 58
21, 158200, Channel_aftertouch_c, 14, 57
21, 158216, Channel_aftertouch_c, 14, 56
21, 158228, Channel_aftertouch_c, 14, 53
21, 158240, Channel_aftertouch_c, 14, 48
21, 158252, Channel_aftertouch_c, 14, 41
21, 158264, Channel_aftertouch_c, 14, 39
21, 158280, Channel_aftertouch_c, 14, 41
21, 158292, Channel_aftertouch_c, 14, 43
21, 158316, Channel_aftertouch_c, 14, 40
21, 158328, Channel_aftertouch_c, 14, 37
21, 158344, Channel_aftertouch_c, 14, 37
21, 158368, Channel_aftertouch_c, 14, 39
21, 158440, Channel_aftertouch_c, 14, 36
21, 158452, Channel_aftertouch_c, 14, 33
21, 158464, Channel_aftertouch_c, 14, 29
21, 158480, Channel_aftertouch_c, 14, 27
21, 158492, Channel_aftertouch_c, 14, 25
21, 158516, Channel_aftertouch_c, 14, 27
21, 158552, Channel_aftertouch_c, 14, 25
21, 158576, Channel_aftertouch_c, 14, 29
21, 158588, Channel_aftertouch_c, 14, 32
21, 158600, Channel_aftertouch_c, 14, 36
21, 158612, Channel_aftertouch_c, 14, 38
21, 158624, Channel_aftertouch_c, 14, 41
21, 158640, Channel_aftertouch_c, 14, 43
21, 158652, Channel_aftertouch_c, 14, 45
21, 158664, Channel_aftertouch_c, 14, 45
21, 158736, Channel_aftertouch_c, 14, 43
21, 158748, Channel_aftertouch_c, 14, 43
21, 158808, Channel_aftertouch_c, 14, 45
21, 158820, Channel_aftertouch_c, 14, 46
21, 158832, Channel_aftertouch_c, 14, 47
21, 158848, Channel_aftertouch_c, 14, 47
21, 158868, Channel_aftertouch_c, 14, 48
21, 158884, Channel_aftertouch_c, 14, 50
21, 158904, Channel_aftertouch_c, 14, 50
21, 158932, Channel_aftertouch_c, 14, 46
21, 158944, Channel_aftertouch_c, 14, 44
21, 158956, Channel_aftertouch_c, 14, 47
21, 158968, Channel_aftertouch_c, 14, 49
21, 158980, Channel_aftertouch_c, 14, 52
21, 158992, Channel_aftertouch_c, 14, 54
21, 159040, Channel_aftertouch_c, 14, 52
21, 159052, Channel_aftertouch_c, 14, 45
21, 159068, Channel_aftertouch_c, 14, 1
21, 159080, Channel_aftertouch_c, 14, 0
21, 159104, Note_on_c, 14, 57, 0
21, 159136, Note_on_c, 14, 61, 0
21, 168960, Note_on_c, 14, 64, 85
21, 168960, Note_on_c, 14, 61, 108
21, 168984, Channel_aftertouch_c, 14, 38
21, 169000, Channel_aftertouch_c, 14, 33
21, 169008, Channel_aftertouch_c, 14, 29
21, 169024, Channel_aftertouch_c, 14, 21
21, 169036, Channel_aftertouch_c, 14, 21
21, 169048, Channel_aftertouch_c, 14, 23
21, 169060, Channel_aftertouch_c, 14, 24
21, 169072, Channel_aftertouch_c, 14, 26
21, 169088, Channel_aftertouch_c, 14, 23
21, 169096, Channel_aftertouch_c, 14, 19
21, 169112, Channel_aftertouch_c, 14, 14
21, 169124, Channel_aftertouch_c, 14, 7
21, 169136, Channel_aftertouch_c, 14, 4
21, 169172, Channel_aftertouch_c, 14, 6
21, 169184, Channel_aftertouch_c, 14, 7
21, 169208, Channel_aftertouch_c, 14, 8
21, 169224, Channel_aftertouch_c, 14, 10
21, 169232, Channel_aftertouch_c, 14, 11
21, 169248, Channel_aftertouch_c, 14, 14
21, 169260, Channel_aftertouch_c, 14, 16
21, 169272, Channel_aftertouch_c, 14, 19
21, 169284, Channel_aftertouch_c, 14, 21
21, 169296, Channel_aftertouch_c, 14, 22
21, 169308, Channel_aftertouch_c, 14, 22
21, 169320, Channel_aftertouch_c, 14, 24
21, 169336, Channel_aftertouch_c, 14, 25
21, 169348, Channel_aftertouch_c, 14, 26
21, 169360, Channel_aftertouch_c, 14, 27
21, 169372, Channel_aftertouch_c, 14, 28
21, 169384, Channel_aftertouch_c, 14, 28
21, 169400, Channel_aftertouch_c, 14, 29
21, 169412, Channel_aftertouch_c, 14, 30
21, 169424, Channel_aftertouch_c, 14, 31
21, 169436, Channel_aftertouch_c, 14, 31
21, 169508, Channel_aftertouch_c, 14, 29
21, 169520, Channel_aftertouch_c, 14, 25
21, 169536, Channel_aftertouch_c, 14, 20
21, 169544, Channel_aftertouch_c, 14, 14
21, 169560, Channel_aftertouch_c, 14, 5
21, 169572, Channel_aftertouch_c, 14, 0
21, 169660, Note_on_c, 14, 61, 0
21, 169680, Note_on_c, 14, 64, 0
21, 169728, Note_on_c, 14, 59, 93
21, 169728, Note_on_c, 14, 62, 82
21, 169732, Channel_aftertouch_c, 14, 13
21, 169744, Channel_aftertouch_c, 14, 11
21, 169760, Channel_aftertouch_c, 14, 51
21, 169784, Channel_aftertouch_c, 14, 47
21, 169812, Channel_aftertouch_c, 14, 51
21, 169824, Channel_aftertouch_c, 14, 55
21, 169848, Channel_aftertouch_c, 14, 52
21, 169860, Channel_aftertouch_c, 14, 46
21, 169876, Channel_aftertouch_c, 14, 42
21, 169888, Channel_aftertouch_c, 14, 40
21, 169916, Channel_aftertouch_c, 14, 42
21, 169952, Channel_aftertouch_c, 14, 44
21, 169968, Channel_aftertouch_c, 14, 45
21, 169980, Channel_aftertouch_c, 14, 47
21, 169992, Channel_aftertouch_c, 14, 47
21, 170004, Channel_aftertouch_c, 14, 49
21, 170016, Channel_aftertouch_c, 14, 50
21, 170032, Channel_aftertouch_c, 14, 51
21, 170048, Channel_aftertouch_c, 14, 51
21, 170056, Channel_aftertouch_c, 14, 52
21, 170072, Channel_aftertouch_c, 14, 53
21, 170168, Channel_aftertouch_c, 14, 51
21, 170184, Channel_aftertouch_c, 14, 49
21, 170196, Channel_aftertouch_c, 14, 47
21, 170208, Channel_aftertouch_c, 14, 44
21, 170224, Channel_aftertouch_c, 14, 41
21, 170236, Channel_aftertouch_c, 14, 35
21, 170248, Channel_aftertouch_c, 14, 29
21, 170264, Channel_aftertouch_c, 14, 20
21, 170276, Channel_aftertouch_c, 14, 0
21, 170320, Note_on_c, 14, 59, 0
21, 170404, Note_on_c, 14, 62, 0
21, 170480, Channel_aftertouch_c, 14, 37
21, 170496, Note_on_c, 14, 57, 93
21, 170496, Note_on_c, 14, 61, 96
21, 170496, Channel_aftertouch_c, 14, 16
21, 170512, Channel_aftertouch_c, 14, 29
21, 170524, Channel_aftertouch_c, 14, 36
21, 170536, Channel_aftertouch_c, 14, 43
21, 170552, Channel_aftertouch_c, 14, 46
21, 170592, Channel_aftertouch_c, 14, 43
21, 170652, Channel_aftertouch_c, 14, 42
21, 170668, Channel_aftertouch_c, 14, 42
21, 170680, Channel_aftertouch_c, 14, 44
21, 170692, Channel_aftertouch_c, 14, 45
21, 170708, Channel_aftertouch_c, 14, 46
21, 170736, Channel_aftertouch_c, 14, 44
21, 170748, Channel_aftertouch_c, 14, 43
21, 170760, Channel_aftertouch_c, 14, 43
21, 170788, Channel_aftertouch_c, 14, 42
21, 170800, Channel_aftertouch_c, 14, 41
21, 170812, Channel_aftertouch_c, 14, 40
21, 170828, Channel_aftertouch_c, 14, 38
21, 170840, Channel_aftertouch_c, 14, 36
21, 170856, Channel_aftertouch_c, 14, 34
21, 170868, Channel_aftertouch_c, 14, 32
21, 170920, Channel_aftertouch_c, 14, 32
21, 170984, Channel_aftertouch_c, 14, 34
21, 171048, Channel_aftertouch_c, 14, 32
21, 171064, Channel_aftertouch_c, 14, 29
21, 171076, Channel_aftertouch_c, 14, 28
21, 171112, Channel_aftertouch_c, 14, 27
21, 171128, Channel_aftertouch_c, 14, 26
21, 171140, Channel_aftertouch_c, 14, 25
21, 171152, Channel_aftertouch_c, 14, 24
21, 171216, Channel_aftertouch_c, 14, 23
21, 171232, Channel_aftertouch_c, 14, 22
21, 171244, Channel_aftertouch_c, 14, 20
21, 171256, Channel_aftertouch_c, 14, 18
21, 171268, Channel_aftertouch_c, 14, 17
21, 171284, Channel_aftertouch_c, 14, 14
21, 171296, Channel_aftertouch_c, 14, 12
21, 171312, Channel_aftertouch_c, 14, 11
21, 171324, Channel_aftertouch_c, 14, 10
21, 171336, Channel_aftertouch_c, 14, 8
21, 171352, Channel_aftertouch_c, 14, 5
21, 171364, Channel_aftertouch_c, 14, 4
21, 171376, Channel_aftertouch_c, 14, 3
21, 171388, Channel_aftertouch_c, 14, 0
21, 171852, Note_on_c, 14, 57, 0
21, 171924, Note_on_c, 14, 61, 0
21, 172032, Note_on_c, 14, 64, 73
21, 172032, Note_on_c, 14, 61, 92
21, 172056, Channel_aftertouch_c, 14, 38
21, 172072, Channel_aftertouch_c, 14, 33
21, 172080, Channel_aftertouch_c, 14, 29
21, 172096, Channel_aftertouch_c, 14, 21
21, 172108, Channel_aftertouch_c, 14, 21
21, 172120, Channel_aftertouch_c, 14, 23
21, 172132, Channel_aftertouch_c, 14, 24
21, 172144, Channel_aftertouch_c, 14, 26
21, 172160, Channel_aftertouch_c, 14, 23
21, 172168, Channel_aftertouch_c, 14, 19
21, 172184, Channel_aftertouch_c, 14, 14
21, 172196, Channel_aftertouch_c, 14, 7
21, 172208, Channel_aftertouch_c, 14, 4
21, 172244, Channel_aftertouch_c, 14, 6
21, 172256, Channel_aftertouch_c, 14, 7
21, 172280, Channel_aftertouch_c, 14, 8
21, 172296, Channel_aftertouch_c, 14, 10
21, 172304, Channel_aftertouch_c, 14, 11
21, 172320, Channel_aftertouch_c, 14, 14
21, 172332, Channel_aftertouch_c, 14, 16
21, 172344, Channel_aftertouch_c, 14, 19
21, 172356, Channel_aftertouch_c, 14, 21
21, 172368, Channel_aftertouch_c, 14, 22
21, 172380, Channel_aftertouch_c, 14, 22
21, 172392, Channel_aftertouch_c, 14, 24
21, 172408, Channel_aftertouch_c, 14, 25
21, 172420, Channel_aftertouch_c, 14, 26
21, 172432, Channel_aftertouch_c, 14, 27
21, 172444, Channel_aftertouch_c, 14, 28
21, 172456, Channel_aftertouch_c, 14, 28
21, 172472, Channel_aftertouch_c, 14, 29
21, 172484, Channel_aftertouch_c, 14, 30
21, 172496, Channel_aftertouch_c, 14, 31
21, 172508, Channel_aftertouch_c, 14, 31
21, 172580, Channel_aftertouch_c, 14, 29
21, 172592, Channel_aftertouch_c, 14, 25
21, 172608, Channel_aftertouch_c, 14, 20
21, 172616, Channel_aftertouch_c, 14, 14
21, 172632, Channel_aftertouch_c, 14, 5
21, 172644, Channel_aftertouch_c, 14, 0
21, 172732, Note_on_c, 14, 61, 0
21, 172752, Note_on_c, 14, 64, 0
21, 172800, Note_on_c, 14, 59, 79
21, 172800, Note_on_c, 14, 62, 70
21, 172804, Channel_aftertouch_c, 14, 13
21, 172816, Channel_aftertouch_c, 14, 11
21, 172832, Channel_aftertouch_c, 14, 51
21, 172856, Channel_aftertouch_c, 14, 47
21, 172884, Channel_aftertouch_c, 14, 51
21, 172896, Channel_aftertouch_c, 14, 55
21, 172920, Channel_aftertouch_c, 14, 52
21, 172932, Channel_aftertouch_c, 14, 46
21, 172948, Channel_aftertouch_c, 14, 42
21, 172960, Channel_aftertouch_c, 14, 40
21, 172988, Channel_aftertouch_c, 14, 42
21, 173024, Channel_aftertouch_c, 14, 44
21, 173040, Channel_aftertouch_c, 14, 45
21, 173052, Channel_aftertouch_c, 14, 47
21, 173064, Channel_aftertouch_c, 14, 47
21, 173076, Channel_aftertouch_c, 14, 49
21, 173088, Channel_aftertouch_c, 14, 50
21, 173104, Channel_aftertouch_c, 14, 51
21, 173120, Channel_aftertouch_c, 14, 51
21, 173128, Channel_aftertouch_c, 14, 52
21, 173144, Channel_aftertouch_c, 14, 53
21, 173240, Channel_aftertouch_c, 14, 51
21, 173256, Channel_aftertouch_c, 14, 49
21, 173268, Channel_aftertouch_c, 14, 47
21, 173280, Channel_aftertouch_c, 14, 44
21, 173296, Channel_aftertouch_c, 14, 41
21, 173308, Channel_aftertouch_c, 14, 35
21, 173320, Channel_aftertouch_c, 14, 29
21, 173336, Channel_aftertouch_c, 14, 20
21, 173348, Channel_aftertouch_c, 14, 0
21, 173392, Note_on_c, 14, 59, 0
21, 173476, Note_on_c, 14, 62, 0
21, 173552, Channel_aftertouch_c, 14, 37
21, 173568, Note_on_c, 14, 57, 79
21, 173568, Note_on_c, 14, 61, 82
21, 173568, Channel_aftertouch_c, 14, 16
21, 173584, Channel_aftertouch_c, 14, 29
21, 173596, Channel_aftertouch_c, 14, 36
21, 173608, Channel_aftertouch_c, 14, 43
21, 173624, Channel_aftertouch_c, 14, 46
21, 173664, Channel_aftertouch_c, 14, 43
21, 173724, Channel_aftertouch_c, 14, 42
21, 173740, Channel_aftertouch_c, 14, 42
21, 173752, Channel_aftertouch_c, 14, 44
21, 173764, Channel_aftertouch_c, 14, 45
21, 173780, Channel_aftertouch_c, 14, 46
21, 173808, Channel_aftertouch_c, 14, 44
21, 173820, Channel_aftertouch_c, 14, 43
21, 173832, Channel_aftertouch_c, 14, 43
21, 173860, Channel_aftertouch_c, 14, 42
21, 173872, Channel_aftertouch_c, 14, 41
21, 173884, Channel_aftertouch_c, 14, 40
21, 173900, Channel_aftertouch_c, 14, 38
21, 173912, Channel_aftertouch_c, 14, 36
21, 173928, Channel_aftertouch_c, 14, 34
21, 173940, Channel_aftertouch_c, 14, 32
21, 173992, Channel_aftertouch_c, 14, 32
21, 174056, Channel_aftertouch_c, 14, 34
21, 174120, Channel_aftertouch_c, 14, 32
21, 174136, Channel_aftertouch_c, 14, 29
21, 174148, Channel_aftertouch_c, 14, 28
21, 174184, Channel_aftertouch_c, 14, 27
21, 174200, Channel_aftertouch_c, 14, 26
21, 174212, Channel_aftertouch_c, 14, 25
21, 174224, Channel_aftertouch_c, 14, 24
21, 174288, Channel_aftertouch_c, 14, 23
21, 174304, Channel_aftertouch_c, 14, 22
21, 174316, Channel_aftertouch_c, 14, 20
21, 174328, Channel_aftertouch_c, 14, 18
21, 174340, Channel_aftertouch_c, 14, 17
21, 174356, Channel_aftertouch_c, 14, 14
21, 174368, Channel_aftertouch_c, 14, 12
21, 174384, Channel_aftertouch_c, 14, 11
21, 174396, Channel_aftertouch_c, 14, 10
21, 174408, Channel_aftertouch_c, 14, 8
21, 174424, Channel_aftertouch_c, 14, 5
21, 174436, Channel_aftertouch_c, 14, 4
21, 174448, Channel_aftertouch_c, 14, 3
21, 174460, Channel_aftertouch_c, 14, 0
21, 174924, Note_on_c, 14, 57, 0
21, 174996, Note_on_c, 14, 61, 0
21, 175104, Note_on_c, 14, 64, 61
21, 175104, Note_on_c, 14, 61, 77
21, 175128, Channel_aftertouch_c, 14, 38
21, 175144, Channel_aftertouch_c, 14, 33
21, 175152, Channel_aftertouch_c, 14, 29
21, 175168, Channel_aftertouch_c, 14, 21
21, 175180, Channel_aftertouch_c, 14, 21
21, 175192, Channel_aftertouch_c, 14, 23
21, 175204, Channel_aftertouch_c, 14, 24
21, 175216, Channel_aftertouch_c, 14, 26
21, 175232, Channel_aftertouch_c, 14, 23
21, 175240, Channel_aftertouch_c, 14, 19
21, 175256, Channel_aftertouch_c, 14, 14
21, 175268, Channel_aftertouch_c, 14, 7
21, 175280, Channel_aftertouch_c, 14, 4
21, 175316, Channel_aftertouch_c, 14, 6
21, 175328, Channel_aftertouch_c, 14, 7
21, 175352, Channel_aftertouch_c, 14, 8
21, 175368, Channel_aftertouch_c, 14, 10
21, 175376, Channel_aftertouch_c, 14, 11
21, 175392, Channel_aftertouch_c, 14, 14
21, 175404, Channel_aftertouch_c, 14, 16
21, 175416, Channel_aftertouch_c, 14, 19
21, 175428, Channel_aftertouch_c, 14, 21
21, 175440, Channel_aftertouch_c, 14, 22
21, 175452, Channel_aftertouch_c, 14, 22
21, 175464, Channel_aftertouch_c, 14, 24
21, 175480, Channel_aftertouch_c, 14, 25
21, 175492, Channel_aftertouch_c, 14, 26
21, 175504, Channel_aftertouch_c, 14, 27
21, 175516, Channel_aftertouch_c, 14, 28
21, 175528, Channel_aftertouch_c, 14, 28
21, 175544, Channel_aftertouch_c, 14, 29
21, 175556, Channel_aftertouch_c, 14, 30
21, 175568, Channel_aftertouch_c, 14, 31
21, 175580, Channel_aftertouch_c, 14, 31
21, 175652, Channel_aftertouch_c, 14, 29
21, 175664, Channel_aftertouch_c, 14, 25
21, 175680, Channel_aftertouch_c, 14, 20
21, 175688, Channel_aftertouch_c, 14, 14
21, 175704, Channel_aftertouch_c, 14, 5
21, 175716, Channel_aftertouch_c, 14, 0
21, 175804, Note_on_c, 14, 61, 0
21, 175824, Note_on_c, 14, 64, 0
21, 175872, Note_on_c, 14, 59, 65
21, 175872, Note_on_c, 14, 62, 57
21, 175876, Channel_aftertouch_c, 14, 13
21, 175888, Channel_aftertouch_c, 14, 11
21, 175904, Channel_aftertouch_c, 14, 51
21, 175928, Channel_aftertouch_c, 14, 47
21, 175956, Channel_aftertouch_c, 14, 51
21, 175968, Channel_aftertouch_c, 14, 55
21, 175992, Channel_aftertouch_c, 14, 52
21, 176004, Channel_aftertouch_c, 14, 46
21, 176020, Channel_aftertouch_c, 14, 42
21, 176032, Channel_aftertouch_c, 14, 40
21, 176060, Channel_aftertouch_c, 14, 42
21, 176096, Channel_aftertouch_c, 14, 44
21, 176112, Channel_aftertouch_c, 14, 45
21, 176124, Channel_aftertouch_c, 14, 47
21, 176136, Channel_aftertouch_c, 14, 47
21, 176148, Channel_aftertouch_c, 14, 49
21, 176160, Channel_aftertouch_c, 14, 50
21, 176176, Channel_aftertouch_c, 14, 51
21, 176192, Channel_aftertouch_c, 14, 51
21, 176200, Channel_aftertouch_c, 14, 52
21, 176216, Channel_aftertouch_c, 14, 53
21, 176312, Channel_aftertouch_c, 14, 51
21, 176328, Channel_aftertouch_c, 14, 49
21, 176340, Channel_aftertouch_c, 14, 47
21, 176352, Channel_aftertouch_c, 14, 44
21, 176368, Channel_aftertouch_c, 14, 41
21, 176380, Channel_aftertouch_c, 14, 35
21, 176392, Channel_aftertouch_c, 14, 29
21, 176408, Channel_aftertouch_c, 14, 20
21, 176420, Channel_aftertouch_c, 14, 0
21, 176464, Note_on_c, 14, 59, 0
21, 176548, Note_on_c, 14, 62, 0
21, 176624, Channel_aftertouch_c, 14, 37
21, 176640, Note_on_c, 14, 57, 65
21, 176640, Note_on_c, 14, 61, 67
21, 176640, Channel_aftertouch_c, 14, 16
21, 176656, Channel_aftertouch_c, 14, 29
21, 176668, Channel_aftertouch_c, 14, 36
21, 176680, Channel_aftertouch_c, 14, 43
21, 176696, Channel_aftertouch_c, 14, 46
21, 176736, Channel_aftertouch_c, 14, 43
21, 176796, Channel_aftertouch_c, 14, 42
21, 176812, Channel_aftertouch_c, 14, 42
21, 176824, Channel_aftertouch_c, 14, 44
21, 176836, Channel_aftertouch_c, 14, 45
21, 176852, Channel_aftertouch_c, 14, 46
21, 176880, Channel_aftertouch_c, 14, 44
21, 176892, Channel_aftertouch_c, 14, 43
21, 176904, Channel_aftertouch_c, 14, 43
21, 176932, Channel_aftertouch_c, 14, 42
21, 176944, Channel_aftertouch_c, 14, 41
21, 176956, Channel_aftertouch_c, 14, 40
21, 176972, Channel_aftertouch_c, 14, 38
21, 176984, Channel_aftertouch_c, 14, 36
21, 177000, Channel_aftertouch_c, 14, 34
21, 177012, Channel_aftertouch_c, 14, 32
21, 177064, Channel_aftertouch_c, 14, 32
21, 177128, Channel_aftertouch_c, 14, 34
21, 177192, Channel_aftertouch_c, 14, 32
21, 177208, Channel_aftertouch_c, 14, 29
21, 177220, Channel_aftertouch_c, 14, 28
21, 177256, Channel_aftertouch_c, 14, 27
21, 177272, Channel_aftertouch_c, 14, 26
21, 177284, Channel_aftertouch_c, 14, 25
21, 177296, Channel_aftertouch_c, 14, 24
21, 177360, Channel_aftertouch_c, 14, 23
21, 177376, Channel_aftertouch_c, 14, 22
21, 177388, Channel_aftertouch_c, 14, 20
21, 177400, Channel_aftertouch_c, 14, 18
21, 177412, Channel_aftertouch_c, 14, 17
21, 177428, Channel_aftertouch_c, 14, 14
21, 177440, Channel_aftertouch_c, 14, 12
21, 177456, Channel_aftertouch_c, 14, 11
21, 177468, Channel_aftertouch_c, 14, 10
21, 177480, Channel_aftertouch_c, 14, 8
21, 177496, Channel_aftertouch_c, 14, 5
21, 177508, Channel_aftertouch_c, 14, 4
21, 177520, Channel_aftertouch_c, 14, 3
21, 177532, Channel_aftertouch_c, 14, 0
21, 177996, Note_on_c, 14, 57, 0
21, 178068, Note_on_c, 14, 61, 0
21, 178176, Note_on_c, 14, 64, 49
21, 178176, Note_on_c, 14, 61, 62
21, 178200, Channel_aftertouch_c, 14, 38
21, 178216, Channel_aftertouch_c, 14, 33
21, 178224, Channel_aftertouch_c, 14, 29
21, 178240, Channel_aftertouch_c, 14, 21
21, 178252, Channel_aftertouch_c, 14, 21
21, 178264, Channel_aftertouch_c, 14, 23
21, 178276, Channel_aftertouch_c, 14, 24
21, 178288, Channel_aftertouch_c, 14, 26
21, 178304, Channel_aftertouch_c, 14, 23
21, 178312, Channel_aftertouch_c, 14, 19
21, 178328, Channel_aftertouch_c, 14, 14
21, 178340, Channel_aftertouch_c, 14, 7
21, 178352, Channel_aftertouch_c, 14, 4
21, 178388, Channel_aftertouch_c, 14, 6
21, 178400, Channel_aftertouch_c, 14, 7
21, 178424, Channel_aftertouch_c, 14, 8
21, 178440, Channel_aftertouch_c, 14, 10
21, 178448, Channel_aftertouch_c, 14, 11
21, 178464, Channel_aftertouch_c, 14, 14
21, 178476, Channel_aftertouch_c, 14, 16
21, 178488, Channel_aftertouch_c, 14, 19
21, 178500, Channel_aftertouch_c, 14, 21
21, 178512, Channel_aftertouch_c, 14, 22
21, 178524, Channel_aftertouch_c, 14, 22
21, 178536, Channel_aftertouch_c, 14, 24
21, 178552, Channel_aftertouch_c, 14, 25
21, 178564, Channel_aftertouch_c, 14, 26
21, 178576, Channel_aftertouch_c, 14, 27
21, 178588, Channel_aftertouch_c, 14, 28
21, 178600, Channel_aftertouch_c, 14, 28
21, 178616, Channel_aftertouch_c, 14, 29
21, 178628, Channel_aftertouch_c, 14, 30
21, 178640, Channel_aftertouch_c, 14, 31
21, 178652, Channel_aftertouch_c, 14, 31
21, 178724, Channel_aftertouch_c, 14, 29
21, 178736, Channel_aftertouch_c, 14, 25
21, 178752, Channel_aftertouch_c, 14, 20
21, 178760, Channel_aftertouch_c, 14, 14
21, 178776, Channel_aftertouch_c, 14, 5
21, 178788, Channel_aftertouch_c, 14, 0
21, 178876, Note_on_c, 14, 61, 0
21, 178896, Note_on_c, 14, 64, 0
21, 178944, Note_on_c, 14, 59, 51
21, 178944, Note_on_c, 14, 62, 45
21, 178948, Channel_aftertouch_c, 14, 13
21, 178960, Channel_aftertouch_c, 14, 11
21, 178976, Channel_aftertouch_c, 14, 51
21, 179000, Channel_aftertouch_c, 14, 47
21, 179028, Channel_aftertouch_c, 14, 51
21, 179040, Channel_aftertouch_c, 14, 55
21, 179064, Channel_aftertouch_c, 14, 52
21, 179076, Channel_aftertouch_c, 14, 46
21, 179092, Channel_aftertouch_c, 14, 42
21, 179104, Channel_aftertouch_c, 14, 40
21, 179132, Channel_aftertouch_c, 14, 42
21, 179168, Channel_aftertouch_c, 14, 44
21, 179184, Channel_aftertouch_c, 14, 45
21, 179196, Channel_aftertouch_c, 14, 47
21, 179208, Channel_aftertouch_c, 14, 47
21, 179220, Channel_aftertouch_c, 14, 49
21, 179232, Channel_aftertouch_c, 14, 50
21, 179248, Channel_aftertouch_c, 14, 51
21, 179264, Channel_aftertouch_c, 14, 51
21, 179272, Channel_aftertouch_c, 14, 52
21, 179288, Channel_aftertouch_c, 14, 53
21, 179384, Channel_aftertouch_c, 14, 51
21, 179400, Channel_aftertouch_c, 14, 49
21, 179412, Channel_aftertouch_c, 14, 47
21, 179424, Channel_aftertouch_c, 14, 44
21, 179440, Channel_aftertouch_c, 14, 41
21, 179452, Channel_aftertouch_c, 14, 35
21, 179464, Channel_aftertouch_c, 14, 29
21, 179480, Channel_aftertouch_c, 14, 20
21, 179492, Channel_aftertouch_c, 14, 0
21, 179536, Note_on_c, 14, 59, 0
21, 179620, Note_on_c, 14, 62, 0
21, 179696, Channel_aftertouch_c, 14, 37
21, 179712, Note_on_c, 14, 57, 50
21, 179712, Note_on_c, 14, 61, 52
21, 179712, Channel_aftertouch_c, 14, 16
21, 179728, Channel_aftertouch_c, 14, 29
21, 179740, Channel_aftertouch_c, 14, 36
21, 179752, Channel_aftertouch_c, 14, 43
21, 179768, Channel_aftertouch_c, 14, 46
21, 179808, Channel_aftertouch_c, 14, 43
21, 179868, Channel_aftertouch_c, 14, 42
21, 179884, Channel_aftertouch_c, 14, 42
21, 179896, Channel_aftertouch_c, 14, 44
21, 179908, Channel_aftertouch_c, 14, 45
21, 179924, Channel_aftertouch_c, 14, 46
21, 179952, Channel_aftertouch_c, 14, 44
21, 179964, Channel_aftertouch_c, 14, 43
21, 179976, Channel_aftertouch_c, 14, 43
21, 180004, Channel_aftertouch_c, 14, 42
21, 180016, Channel_aftertouch_c, 14, 41
21, 180028, Channel_aftertouch_c, 14, 40
21, 180044, Channel_aftertouch_c, 14, 38
21, 180056, Channel_aftertouch_c, 14, 36
21, 180072, Channel_aftertouch_c, 14, 34
21, 180084, Channel_aftertouch_c, 14, 32
21, 180136, Channel_aftertouch_c, 14, 32
21, 180200, Channel_aftertouch_c, 14, 34
21, 180264, Channel_aftertouch_c, 14, 32
21, 180280, Channel_aftertouch_c, 14, 29
21, 180292, Channel_aftertouch_c, 14, 28
21, 180328, Channel_aftertouch_c, 14, 27
21, 180344, Channel_aftertouch_c, 14, 26
21, 180356, Channel_aftertouch_c, 14, 25
21, 180368, Channel_aftertouch_c, 14, 24
21, 180432, Channel_aftertouch_c, 14, 23
21, 180448, Channel_aftertouch_c, 14, 22
21, 180460, Channel_aftertouch_c, 14, 20
21, 180472, Channel_aftertouch_c, 14, 18
21, 180484, Channel_aftertouch_c, 14, 17
21, 180500, Channel_aftertouch_c, 14, 14
21, 180512, Channel_aftertouch_c, 14, 12
21, 180528, Channel_aftertouch_c, 14, 11
21, 180540, Channel_aftertouch_c, 14, 10
21, 180552, Channel_aftertouch_c, 14, 8
21, 180568, Channel_aftertouch_c, 14, 5
21, 180580, Channel_aftertouch_c, 14, 4
21, 180592, Channel_aftertouch_c, 14, 3
21, 180604, Channel_aftertouch_c, 14, 0
21, 181068, Note_on_c, 14, 57, 0
21, 181140, Note_on_c, 14, 61, 0
21, 181248, Note_on_c, 14, 64, 36
21, 181248, Note_on_c, 14, 61, 46
21, 181272, Channel_aftertouch_c, 14, 38
21, 181288, Channel_aftertouch_c, 14, 33
21, 181296, Channel_aftertouch_c, 14, 29
21, 181312, Channel_aftertouch_c, 14, 21
21, 181324, Channel_aftertouch_c, 14, 21
21, 181336, Channel_aftertouch_c, 14, 23
21, 181348, Channel_aftertouch_c, 14, 24
21, 181360, Channel_aftertouch_c, 14, 26
21, 181376, Channel_aftertouch_c, 14, 23
21, 181384, Channel_aftertouch_c, 14, 19
21, 181400, Channel_aftertouch_c, 14, 14
21, 181412, Channel_aftertouch_c, 14, 7
21, 181424, Channel_aftertouch_c, 14, 4
21, 181460, Channel_aftertouch_c, 14, 6
21, 181472, Channel_aftertouch_c, 14, 7
21, 181496, Channel_aftertouch_c, 14, 8
21, 181512, Channel_aftertouch_c, 14, 10
21, 181520, Channel_aftertouch_c, 14, 11
21, 181536, Channel_aftertouch_c, 14, 14
21, 181548, Channel_aftertouch_c, 14, 16
21, 181560, Channel_aftertouch_c, 14, 19
21, 181572, Channel_aftertouch_c, 14, 21
21, 181584, Channel_aftertouch_c, 14, 22
21, 181596, Channel_aftertouch_c, 14, 22
21, 181608, Channel_aftertouch_c, 14, 24
21, 181624, Channel_aftertouch_c, 14, 25
21, 181636, Channel_aftertouch_c, 14, 26
21, 181648, Channel_aftertouch_c, 14, 27
21, 181660, Channel_aftertouch_c, 14, 28
21, 181672, Channel_aftertouch_c, 14, 28
21, 181688, Channel_aftertouch_c, 14, 29
21, 181700, Channel_aftertouch_c, 14, 30
21, 181712, Channel_aftertouch_c, 14, 31
21, 181724, Channel_aftertouch_c, 14, 31
21, 181796, Channel_aftertouch_c, 14, 29
21, 181808, Channel_aftertouch_c, 14, 25
21, 181824, Channel_aftertouch_c, 14, 20
21, 181832, Channel_aftertouch_c, 14, 14
21, 181848, Channel_aftertouch_c, 14, 5
21, 181860, Channel_aftertouch_c, 14, 0
21, 181948, Note_on_c, 14, 61, 0
21, 181968, Note_on_c, 14, 64, 0
21, 182016, Note_on_c, 14, 59, 38
21, 182016, Note_on_c, 14, 62, 34
21, 182020, Channel_aftertouch_c, 14, 13
21, 182032, Channel_aftertouch_c, 14, 11
21, 182048, Channel_aftertouch_c, 14, 51
21, 182072, Channel_aftertouch_c, 14, 47
21, 182100, Channel_aftertouch_c, 14, 51
21, 182112, Channel_aftertouch_c, 14, 55
21, 182136, Channel_aftertouch_c, 14, 52
21, 182148, Channel_aftertouch_c, 14, 46
21, 182164, Channel_aftertouch_c, 14, 42
21, 182176, Channel_aftertouch_c, 14, 40
21, 182204, Channel_aftertouch_c, 14, 42
21, 182240, Channel_aftertouch_c, 14, 44
21, 182256, Channel_aftertouch_c, 14, 45
21, 182268, Channel_aftertouch_c, 14, 47
21, 182280, Channel_aftertouch_c, 14, 47
21, 182292, Channel_aftertouch_c, 14, 49
21, 182304, Channel_aftertouch_c, 14, 50
21, 182320, Channel_aftertouch_c, 14, 51
21, 182336, Channel_aftertouch_c, 14, 51
21, 182344, Channel_aftertouch_c, 14, 52
21, 182360, Channel_aftertouch_c, 14, 53
21, 182456, Channel_aftertouch_c, 14, 51
21, 182472, Channel_aftertouch_c, 14, 49
21, 182484, Channel_aftertouch_c, 14, 47
21, 182496, Channel_aftertouch_c, 14, 44
21, 182512, Channel_aftertouch_c, 14, 41
21, 182524, Channel_aftertouch_c, 14, 35
21, 182536, Channel_aftertouch_c, 14, 29
21, 182552, Channel_aftertouch_c, 14, 20
21, 182564, Channel_aftertouch_c, 14, 0
21, 182608, Note_on_c, 14, 59, 0
21, 182692, Note_on_c, 14, 62, 0
21, 182768, Channel_aftertouch_c, 14, 37
21, 182784, Note_on_c, 14, 57, 36
21, 182784, Note_on_c, 14, 61, 37
21, 182784, Channel_aftertouch_c, 14, 16
21, 182800, Channel_aftertouch_c, 14, 29
21, 182812, Channel_aftertouch_c, 14, 36
21, 182824, Channel_aftertouch_c, 14, 43
21, 182840, Channel_aftertouch_c, 14, 46
21, 182880, Channel_aftertouch_c, 14, 43
21, 182940, Channel_aftertouch_c, 14, 42
21, 182956, Channel_aftertouch_c, 14, 42
21, 182968, Channel_aftertouch_c, 14, 44
21, 182980, Channel_aftertouch_c, 14, 45
21, 182996, Channel_aftertouch_c, 14, 46
21, 183024, Channel_aftertouch_c, 14, 44
21, 183036, Channel_aftertouch_c, 14, 43
21, 183048, Channel_aftertouch_c, 14, 43
21, 183076, Channel_aftertouch_c, 14, 42
21, 183088, Channel_aftertouch_c, 14, 41
21, 183100, Channel_aftertouch_c, 14, 40
21, 183116, Channel_aftertouch_c, 14, 38
21, 183128, Channel_aftertouch_c, 14, 36
21, 183144, Channel_aftertouch_c, 14, 34
21, 183156, Channel_aftertouch_c, 14, 32
21, 183208, Channel_aftertouch_c, 14, 32
21, 183272, Channel_aftertouch_c, 14, 34
21, 183336, Channel_aftertouch_c, 14, 32
21, 183352, Channel_aftertouch_c, 14, 29
21, 183364, Channel_aftertouch_c, 14, 28
21, 183400, Channel_aftertouch_c, 14, 27
21, 183416, Channel_aftertouch_c, 14, 26
21, 183428, Channel_aftertouch_c, 14, 25
21, 183440, Channel_aftertouch_c, 14, 24
21, 183504, Channel_aftertouch_c, 14, 23
21, 183520, Channel_aftertouch_c, 14, 22
21, 183532, Channel_aftertouch_c, 14, 20
21, 183544, Channel_aftertouch_c, 14, 18
21, 183556, Channel_aftertouch_c, 14, 17
21, 183572, Channel_aftertouch_c, 14, 14
21, 183584, Channel_aftertouch_c, 14, 12
21, 183600, Channel_aftertouch_c, 14, 11
21, 183612, Channel_aftertouch_c, 14, 10
21, 183624, Channel_aftertouch_c, 14, 8
21, 183640, Channel_aftertouch_c, 14, 5
21, 183652, Channel_aftertouch_c, 14, 4
21, 183664, Channel_aftertouch_c, 14, 3
21, 183676, Channel_aftertouch_c, 14, 0
21, 184140, Note_on_c, 14, 57, 0
21, 184212, Note_on_c, 14, 61, 0
21, 184320, Note_on_c, 14, 64, 24
21, 184320, Note_on_c, 14, 61, 31
21, 184344, Channel_aftertouch_c, 14, 38
21, 184360, Channel_aftertouch_c, 14, 33
21, 184368, Channel_aftertouch_c, 14, 29
21, 184384, Channel_aftertouch_c, 14, 21
21, 184396, Channel_aftertouch_c, 14, 21
21, 184408, Channel_aftertouch_c, 14, 23
21, 184420, Channel_aftertouch_c, 14, 24
21, 184432, Channel_aftertouch_c, 14, 26
21, 184448, Channel_aftertouch_c, 14, 23
21, 184456, Channel_aftertouch_c, 14, 19
21, 184472, Channel_aftertouch_c, 14, 14
21, 184484, Channel_aftertouch_c, 14, 7
21, 184496, Channel_aftertouch_c, 14, 4
21, 184532, Channel_aftertouch_c, 14, 6
21, 184544, Channel_aftertouch_c, 14, 7
21, 184568, Channel_aftertouch_c, 14, 8
21, 184584, Channel_aftertouch_c, 14, 10
21, 184592, Channel_aftertouch_c, 14, 11
21, 184608, Channel_aftertouch_c, 14, 14
21, 184620, Channel_aftertouch_c, 14, 16
21, 184632, Channel_aftertouch_c, 14, 19
21, 184644, Channel_aftertouch_c, 14, 21
21, 184656, Channel_aftertouch_c, 14, 22
21, 184668, Channel_aftertouch_c, 14, 22
21, 184680, Channel_aftertouch_c, 14, 24
21, 184696, Channel_aftertouch_c, 14, 25
21, 184708, Channel_aftertouch_c, 14, 26
21, 184720, Channel_aftertouch_c, 14, 27
21, 184732, Channel_aftertouch_c, 14, 28
21, 184744, Channel_aftertouch_c, 14, 28
21, 184760, Channel_aftertouch_c, 14, 29
21, 184772, Channel_aftertouch_c, 14, 30
21, 184784, Channel_aftertouch_c, 14, 31
21, 184796, Channel_aftertouch_c, 14, 31
21, 184868, Channel_aftertouch_c, 14, 29
21, 184880, Channel_aftertouch_c, 14, 25
21, 184896, Channel_aftertouch_c, 14, 20
21, 184904, Channel_aftertouch_c, 14, 14
21, 184920, Channel_aftertouch_c, 14, 5
21, 184932, Channel_aftertouch_c, 14, 0
21, 185020, Note_on_c, 14, 61, 0
21, 185040, Note_on_c, 14, 64, 0
21, 185088, Note_on_c, 14, 59, 24
21, 185088, Note_on_c, 14, 62, 21
21, 185092, Channel_aftertouch_c, 14, 13
21, 185104, Channel_aftertouch_c, 14, 11
21, 185120, Channel_aftertouch_c, 14, 51
21, 185144, Channel_aftertouch_c, 14, 47
21, 185172, Channel_aftertouch_c, 14, 51
21, 185184, Channel_aftertouch_c, 14, 55
21, 185208, Channel_aftertouch_c, 14, 52
21, 185220, Channel_aftertouch_c, 14, 46
21, 185236, Channel_aftertouch_c, 14, 42
21, 185248, Channel_aftertouch_c, 14, 40
21, 185276, Channel_aftertouch_c, 14, 42
21, 185312, Channel_aftertouch_c, 14, 44
21, 185328, Channel_aftertouch_c, 14, 45
21, 185340, Channel_aftertouch_c, 14, 47
21, 185352, Channel_aftertouch_c, 14, 47
21, 185364, Channel_aftertouch_c, 14, 49
21, 185376, Channel_aftertouch_c, 14, 50
21, 185392, Channel_aftertouch_c, 14, 51
21, 185408, Channel_aftertouch_c, 14, 51
21, 185416, Channel_aftertouch_c, 14, 52
21, 185432, Channel_aftertouch_c, 14, 53
21, 185528, Channel_aftertouch_c, 14, 51
21, 185544, Channel_aftertouch_c, 14, 49
21, 185556, Channel_aftertouch_c, 14, 47
21, 185568, Channel_aftertouch_c, 14, 44
21, 185584, Channel_aftertouch_c, 14, 41
21, 185596, Channel_aftertouch_c, 14, 35
21, 185608, Channel_aftertouch_c, 14, 29
21, 185624, Channel_aftertouch_c, 14, 20
21, 185636, Channel_aftertouch_c, 14, 0
21, 185680, Note_on_c, 14, 59, 0
21, 185764, Note_on_c, 14, 62, 0
21, 185840, Channel_aftertouch_c, 14, 37
21, 185856, Note_on_c, 14, 57, 22
21, 185856, Note_on_c, 14, 61, 22
21, 185856, Channel_aftertouch_c, 14, 16
21, 185872, Channel_aftertouch_c, 14, 29
21, 185884, Channel_aftertouch_c, 14, 36
21, 185896, Channel_aftertouch_c, 14, 43
21, 185912, Channel_aftertouch_c, 14, 46
21, 185952, Channel_aftertouch_c, 14, 43
21, 186012, Channel_aftertouch_c, 14, 42
21, 186028, Channel_aftertouch_c, 14, 42
21, 186040, Channel_aftertouch_c, 14, 44
21, 186052, Channel_aftertouch_c, 14, 45
21, 186068, Channel_aftertouch_c, 14, 46
21, 186096, Channel_aftertouch_c, 14, 44
21, 186108, Channel_aftertouch_c, 14, 43
21, 186120, Channel_aftertouch_c, 14, 43
21, 186148, Channel_aftertouch_c, 14, 42
21, 186160, Channel_aftertouch_c, 14, 41
21, 186172, Channel_aftertouch_c, 14, 40
21, 186188, Channel_aftertouch_c, 14, 38
21, 186200, Channel_aftertouch_c, 14, 36
21, 186216, Channel_aftertouch_c, 14, 34
21, 186228, Channel_aftertouch_c, 14, 32
21, 186280, Channel_aftertouch_c, 14, 32
21, 186344, Channel_aftertouch_c, 14, 34
21, 186408, Channel_aftertouch_c, 14, 32
21, 186424, Channel_aftertouch_c, 14, 29
21, 186436, Channel_aftertouch_c, 14, 28
21, 186472, Channel_aftertouch_c, 14, 27
21, 186488, Channel_aftertouch_c, 14, 26
21, 186500, Channel_aftertouch_c, 14, 25
21, 186512, Channel_aftertouch_c, 14, 24
21, 186576, Channel_aftertouch_c, 14, 23
21, 186592, Channel_aftertouch_c, 14, 22
21, 186604, Channel_aftertouch_c, 14, 20
21, 186616, Channel_aftertouch_c, 14, 18
21, 186628, Channel_aftertouch_c, 14, 17
21, 186644, Channel_aftertouch_c, 14, 14
21, 186656, Channel_aftertouch_c, 14, 12
21, 186672, Channel_aftertouch_c, 14, 11
21, 186684, Channel_aftertouch_c, 14, 10
21, 186696, Channel_aftertouch_c, 14, 8
21, 186712, Channel_aftertouch_c, 14, 5
21, 186724, Channel_aftertouch_c, 14, 4
21, 186736, Channel_aftertouch_c, 14, 3
21, 186748, Channel_aftertouch_c, 14, 0
21, 187212, Note_on_c, 14, 57, 0
21, 187284, Note_on_c, 14, 61, 0
21, 187392, Note_on_c, 14, 64, 12
21, 187392, Note_on_c, 14, 61, 16
21, 187416, Channel_aftertouch_c, 14, 38
21, 187432, Channel_aftertouch_c, 14, 33
21, 187440, Channel_aftertouch_c, 14, 29
21, 187456, Channel_aftertouch_c, 14, 21
21, 187468, Channel_aftertouch_c, 14, 21
21, 187480, Channel_aftertouch_c, 14, 23
21, 187492, Channel_aftertouch_c, 14, 24
21, 187504, Channel_aftertouch_c, 14, 26
21, 187520, Channel_aftertouch_c, 14, 23
21, 187528, Channel_aftertouch_c, 14, 19
21, 187544, Channel_aftertouch_c, 14, 14
21, 187556, Channel_aftertouch_c, 14, 7
21, 187568, Channel_aftertouch_c, 14, 4
21, 187604, Channel_aftertouch_c, 14, 6
21, 187616, Channel_aftertouch_c, 14, 7
21, 187640, Channel_aftertouch_c, 14, 8
21, 187656, Channel_aftertouch_c, 14, 10
21, 187664, Channel_aftertouch_c, 14, 11
21, 187680, Channel_aftertouch_c, 14, 14
21, 187692, Channel_aftertouch_c, 14, 16
21, 187704, Channel_aftertouch_c, 14, 19
21, 187716, Channel_aftertouch_c, 14, 21
21, 187728, Channel_aftertouch_c, 14, 22
21, 187740, Channel_aftertouch_c, 14, 22
21, 187752, Channel_aftertouch_c, 14, 24
21, 187768, Channel_aftertouch_c, 14, 25
21, 187780, Channel_aftertouch_c, 14, 26
21, 187792, Channel_aftertouch_c, 14, 27
21, 187804, Channel_aftertouch_c, 14, 28
21, 187816, Channel_aftertouch_c, 14, 28
21, 187832, Channel_aftertouch_c, 14, 29
21, 187844, Channel_aftertouch_c, 14, 30
21, 187856, Channel_aftertouch_c, 14, 31
21, 187868, Channel_aftertouch_c, 14, 31
21, 187940, Channel_aftertouch_c, 14, 29
21, 187952, Channel_aftertouch_c, 14, 25
21, 187968, Channel_aftertouch_c, 14, 20
21, 187976, Channel_aftertouch_c, 14, 14
21, 187992, Channel_aftertouch_c, 14, 5
21, 188004, Channel_aftertouch_c, 14, 0
21, 188092, Note_on_c, 14, 61, 0
21, 188112, Note_on_c, 14, 64, 0
21, 188160, Note_on_c, 14, 59, 10
21, 188160, Note_on_c, 14, 62, 9
21, 188164, Channel_aftertouch_c, 14, 13
21, 188176, Channel_aftertouch_c, 14, 11
21, 188192, Channel_aftertouch_c, 14, 51
21, 188216, Channel_aftertouch_c, 14, 47
21, 188244, Channel_aftertouch_c, 14, 51
21, 188256, Channel_aftertouch_c, 14, 55
21, 188280, Channel_aftertouch_c, 14, 52
21, 188292, Channel_aftertouch_c, 14, 46
21, 188308, Channel_aftertouch_c, 14, 42
21, 188320, Channel_aftertouch_c, 14, 40
21, 188348, Channel_aftertouch_c, 14, 42
21, 188384, Channel_aftertouch_c, 14, 44
21, 188400, Channel_aftertouch_c, 14, 45
21, 188412, Channel_aftertouch_c, 14, 47
21, 188424, Channel_aftertouch_c, 14, 47
21, 188436, Channel_aftertouch_c, 14, 49
21, 188448, Channel_aftertouch_c, 14, 50
21, 188464, Channel_aftertouch_c, 14, 51
21, 188480, Channel_aftertouch_c, 14, 51
21, 188488, Channel_aftertouch_c, 14, 52
21, 188504, Channel_aftertouch_c, 14, 53
21, 188600, Channel_aftertouch_c, 14, 51
21, 188616, Channel_aftertouch_c, 14, 49
21, 188628, Channel_aftertouch_c, 14, 47
21, 188640, Channel_aftertouch_c, 14, 44
21, 188656, Channel_aftertouch_c, 14, 41
21, 188668, Channel_aftertouch_c, 14, 35
21, 188680, Channel_aftertouch_c, 14, 29
21, 188696, Channel_aftertouch_c, 14, 20
21, 188708, Channel_aftertouch_c, 14, 0
21, 188752, Note_on_c, 14, 59, 0
21, 188836, Note_on_c, 14, 62, 0
21, 188912, Channel_aftertouch_c, 14, 37
21, 188928, Note_on_c, 14, 57, 8
21, 188928, Note_on_c, 14, 61, 8
21, 188928, Channel_aftertouch_c, 14, 16
21, 188944, Channel_aftertouch_c, 14, 29
21, 188956, Channel_aftertouch_c, 14, 36
21, 188968, Channel_aftertouch_c, 14, 43
21, 188984, Channel_aftertouch_c, 14, 46
21, 189024, Channel_aftertouch_c, 14, 43
21, 189084, Channel_aftertouch_c, 14, 42
21, 189100, Channel_aftertouch_c, 14, 42
21, 189112, Channel_aftertouch_c, 14, 44
21, 189124, Channel_aftertouch_c, 14, 45
21, 189140, Channel_aftertouch_c, 14, 46
21, 189168, Channel_aftertouch_c, 14, 44
21, 189180, Channel_aftertouch_c, 14, 43
21, 189192, Channel_aftertouch_c, 14, 43
21, 189220, Channel_aftertouch_c, 14, 42
21, 189232, Channel_aftertouch_c, 14, 41
21, 189244, Channel_aftertouch_c, 14, 40
21, 189260, Channel_aftertouch_c, 14, 38
21, 189272, Channel_aftertouch_c, 14, 36
21, 189288, Channel_aftertouch_c, 14, 34
21, 189300, Channel_aftertouch_c, 14, 32
21, 189352, Channel_aftertouch_c, 14, 32
21, 189416, Channel_aftertouch_c, 14, 34
21, 189480, Channel_aftertouch_c, 14, 32
21, 189496, Channel_aftertouch_c, 14, 29
21, 189508, Channel_aftertouch_c, 14, 28
21, 189544, Channel_aftertouch_c, 14, 27
21, 189560, Channel_aftertouch_c, 14, 26
21, 189572, Channel_aftertouch_c, 14, 25
21, 189584, Channel_aftertouch_c, 14, 24
21, 189648, Channel_aftertouch_c, 14, 23
21, 189664, Channel_aftertouch_c, 14, 22
21, 189676, Channel_aftertouch_c, 14, 20
21, 189688, Channel_aftertouch_c, 14, 18
21, 189700, Channel_aftertouch_c, 14, 17
21, 189716, Channel_aftertouch_c, 14, 14
21, 189728, Channel_aftertouch_c, 14, 12
21, 189744, Channel_aftertouch_c, 14, 11
21, 189756, Channel_aftertouch_c, 14, 10
21, 189768, Channel_aftertouch_c, 14, 8
21, 189784, Channel_aftertouch_c, 14, 5
21, 189796, Channel_aftertouch_c, 14, 4
21, 189808, Channel_aftertouch_c, 14, 3
21, 189820, Channel_aftertouch_c, 14, 0
21, 190284, Note_on_c, 14, 57, 0
21, 190356, Note_on_c, 14, 61, 0
21, 190356, End_track
22, 0, Start_track
22, 0, MIDI_port, 0
22, 0, Control_c, 6, 0, 0
22, 0, Control_c, 6, 32, 0
22, 0, Program_c, 6, 41
22, 0, Control_c, 6, 7, 100
22, 0, Control_c, 6, 91, 40
22, 0, Control_c, 6, 93, 0
22, 0, End_track
23, 0, Start_track
23, 0, MIDI_port, 0
23, 0, Control_c, 7, 0, 0
23, 0, Control_c, 7, 32, 0
23, 0, Program_c, 7, 21
23, 0, Control_c, 7, 7, 100
23, 0, Control_c, 7, 91, 40
23, 0, Control_c, 7, 93, 0
23, 0, End_track
24, 0, Start_track
24, 0, MIDI_port, 0
24, 0, Control_c, 8, 0, 0
24, 0, Control_c, 8, 32, 0
24, 0, Program_c, 8, 28
24, 0, Control_c, 8, 7, 100
24, 0, Control_c, 8, 91, 40
24, 0, Control_c, 8, 93, 0
24, 0, End_track
25, 0, Start_track
25, 0, MIDI_port, 0
25, 0, Title_t, "STING:"
25, 0, Control_c, 9, 0, 0
25, 0, Control_c, 9, 32, 0
25, 0, Program_c, 9, 0
25, 0, Control_c, 9, 7, 100
25, 0, Control_c, 9, 91, 40
25, 0, Control_c, 9, 93, 0
25, 0, End_track
26, 0, Start_track
26, 0, MIDI_port, 0
26, 0, Title_t, """All This Time"" "
26, 0, Control_c, 10, 0, 0
26, 0, Control_c, 10, 32, 0
26, 0, Program_c, 10, 3
26, 0, Control_c, 10, 7, 100
26, 0, Control_c, 10, 91, 40
26, 0, Control_c, 10, 93, 0
26, 0, End_track
27, 0, Start_track
27, 0, MIDI_port, 0
27, 0, Control_c, 11, 0, 0
27, 0, Control_c, 11, 32, 0
27, 0, Program_c, 11, 63
27, 0, Control_c, 11, 7, 100
27, 0, Control_c, 11, 91, 40
27, 0, Control_c, 11, 93, 0
27, 0, End_track
28, 0, Start_track
28, 0, MIDI_port, 0
28, 0, Title_t, "Sequenced by:"
28, 0, Control_c, 12, 0, 0
28, 0, Control_c, 12, 32, 0
28, 0, Program_c, 12, 42
28, 0, Control_c, 12, 7, 100
28, 0, Control_c, 12, 91, 40
28, 0, Control_c, 12, 93, 0
28, 0, End_track
29, 0, Start_track
29, 0, MIDI_port, 0
29, 0, Title_t, "Aaron Baker"
29, 0, Control_c, 13, 0, 0
29, 0, Control_c, 13, 32, 0
29, 0, Program_c, 13, 0
29, 0, Control_c, 13, 7, 100
29, 0, Control_c, 13, 91, 40
29, 0, Control_c, 13, 93, 0
29, 0, End_track
30, 0, Start_track
30, 0, MIDI_port, 0
30, 0, Title_t, "4/25/1996"
30, 0, Control_c, 14, 0, 0
30, 0, Control_c, 14, 32, 0
30, 0, Program_c, 14, 48
30, 0, Control_c, 14, 7, 100
30, 0, Control_c, 14, 91, 40
30, 0, Control_c, 14, 93, 0
30, 0, End_track
31, 0, Start_track
31, 0, MIDI_port, 0
31, 0, Control_c, 15, 0, 0
31, 0, Control_c, 15, 32, 0
31, 0, Program_c, 15, 0
31, 0, Control_c, 15, 7, 100
31, 0, Control_c, 15, 91, 40
31, 0, Control_c, 15, 93, 0
31, 0, End_track
0, 0, End_of_file
