0, 0, Header, 1, 3, 960
1, 0, Start_track
1, 0, Control_c, 0, 101, 0
1, 0, Control_c, 0, 100, 0
1, 0, Control_c, 0, 6, 12
1, 0, Control_c, 0, 38, 0
1, 0, Control_c, 1, 101, 0
1, 0, Control_c, 1, 100, 0
1, 0, Control_c, 1, 6, 12
1, 0, Control_c, 1, 38, 0
1, 0, Control_c, 2, 101, 0
1, 0, Control_c, 2, 100, 0
1, 0, Control_c, 2, 6, 12
1, 0, Control_c, 2, 38, 0
1, 0, Control_c, 3, 101, 0
1, 0, Control_c, 3, 100, 0
1, 0, Control_c, 3, 6, 12
1, 0, Control_c, 3, 38, 0
1, 0, Control_c, 4, 101, 0
1, 0, Control_c, 4, 100, 0
1, 0, Control_c, 4, 6, 12
1, 0, Control_c, 4, 38, 0
1, 0, Control_c, 5, 101, 0
1, 0, Control_c, 5, 100, 0
1, 0, Control_c, 5, 6, 12
1, 0, Control_c, 5, 38, 0
1, 0, Control_c, 6, 101, 0
1, 0, Control_c, 6, 100, 0
1, 0, Control_c, 6, 6, 12
1, 0, Control_c, 6, 38, 0
1, 0, Control_c, 7, 101, 0
1, 0, Control_c, 7, 100, 0
1, 0, Control_c, 7, 6, 12
1, 0, Control_c, 7, 38, 0
1, 0, Control_c, 8, 101, 0
1, 0, Control_c, 8, 100, 0
1, 0, Control_c, 8, 6, 12
1, 0, Control_c, 8, 38, 0
1, 0, Control_c, 9, 101, 0
1, 0, Control_c, 9, 100, 0
1, 0, Control_c, 9, 6, 12
1, 0, Control_c, 9, 38, 0
1, 0, Control_c, 10, 101, 0
1, 0, Control_c, 10, 100, 0
1, 0, Control_c, 10, 6, 12
1, 0, Control_c, 10, 38, 0
1, 0, Control_c, 11, 101, 0
1, 0, Control_c, 11, 100, 0
1, 0, Control_c, 11, 6, 12
1, 0, Control_c, 11, 38, 0
1, 0, Control_c, 12, 101, 0
1, 0, Control_c, 12, 100, 0
1, 0, Control_c, 12, 6, 12
1, 0, Control_c, 12, 38, 0
1, 0, Control_c, 13, 101, 0
1, 0, Control_c, 13, 100, 0
1, 0, Control_c, 13, 6, 12
1, 0, Control_c, 13, 38, 0
1, 0, Control_c, 14, 101, 0
1, 0, Control_c, 14, 100, 0
1, 0, Control_c, 14, 6, 12
1, 0, Control_c, 14, 38, 0
1, 0, Control_c, 15, 101, 0
1, 0, Control_c, 15, 100, 0
1, 0, Control_c, 15, 6, 12
1, 0, Control_c, 15, 38, 0
1, 0, Time_signature, 3, 2, 24, 8
1, 0, Tempo, 789473
1, 0, End_track
2, 0, Start_track
2, 0, Pitch_bend_c, 0, 8192
2, 0, Control_c, 0, 7, 103
2, 0, Control_c, 0, 10, 15
2, 0, Control_c, 0, 93, 0
2, 0, Control_c, 0, 91, 0
2, 0, Control_c, 0, 95, 0
2, 0, Control_c, 0, 92, 0
2, 0, Control_c, 0, 11, 127
2, 0, Program_c, 0, 25
2, 0, Control_c, 1, 7, 103
2, 0, Control_c, 1, 10, 15
2, 0, Control_c, 1, 93, 0
2, 0, Control_c, 1, 91, 0
2, 0, Control_c, 1, 95, 0
2, 0, Control_c, 1, 92, 0
2, 0, Control_c, 1, 11, 127
2, 0, Program_c, 1, 25
2, 960, Note_on_c, 0, 46, 95
2, 1600, Note_off_c, 0, 46, 95
2, 1600, Note_on_c, 0, 47, 95
2, 1920, Note_off_c, 0, 47, 95
2, 1920, Note_on_c, 0, 50, 95
2, 2560, Note_off_c, 0, 50, 95
2, 2560, Note_on_c, 0, 52, 95
2, 2880, Note_off_c, 0, 52, 95
2, 2880, Note_on_c, 0, 55, 95
2, 4680, Note_on_c, 1, 57, 95
2, 4800, Note_off_c, 0, 55, 95
2, 4800, Note_off_c, 1, 57, 95
2, 4800, Note_on_c, 1, 59, 95
2, 5440, Note_off_c, 1, 59, 95
2, 5440, Note_on_c, 0, 55, 95
2, 5640, Note_on_c, 1, 57, 95
2, 5760, Note_off_c, 0, 55, 95
2, 5760, Note_off_c, 1, 57, 95
2, 5760, Note_on_c, 1, 59, 95
2, 7560, Note_on_c, 1, 57, 95
2, 7680, Note_off_c, 1, 59, 95
2, 7680, Note_off_c, 1, 57, 95
2, 7680, Note_on_c, 1, 59, 95
2, 8640, Note_off_c, 1, 59, 95
2, 8640, Note_on_c, 0, 55, 95
2, 10440, Note_on_c, 1, 50, 95
2, 10560, Note_off_c, 0, 55, 95
2, 10560, Note_off_c, 1, 50, 95
2, 10560, Note_on_c, 1, 52, 95
2, 11520, Note_off_c, 1, 52, 95
2, 11520, Note_on_c, 0, 50, 95
2, 13440, Note_off_c, 0, 50, 95
2, 13440, Note_on_c, 0, 50, 95
2, 14080, Note_off_c, 0, 50, 95
2, 14080, Note_on_c, 0, 52, 95
2, 14400, Note_off_c, 0, 52, 95
2, 14400, Note_on_c, 0, 55, 95
2, 16320, Note_off_c, 0, 55, 95
2, 16320, Note_on_c, 0, 62, 95
2, 16320, Note_on_c, 0, 59, 95
2, 16960, Note_off_c, 0, 62, 95
2, 16960, Note_off_c, 0, 59, 95
2, 16960, Note_on_c, 0, 55, 95
2, 17280, Note_off_c, 0, 55, 95
2, 17280, Note_on_c, 0, 62, 95
2, 17280, Note_on_c, 0, 59, 95
2, 19200, Note_off_c, 0, 62, 95
2, 19200, Note_off_c, 0, 59, 95
2, 19200, Note_on_c, 0, 57, 95
2, 19840, Note_off_c, 0, 57, 95
2, 19840, Note_on_c, 0, 59, 95
2, 20040, Note_on_c, 1, 65, 95
2, 20040, Note_on_c, 1, 61, 95
2, 20160, Note_off_c, 0, 59, 95
2, 20160, Note_off_c, 1, 65, 95
2, 20160, Note_on_c, 1, 66, 95
2, 20160, Note_off_c, 1, 61, 95
2, 20160, Note_on_c, 1, 62, 95
2, 24840, Note_on_c, 1, 57, 95
2, 24960, Note_off_c, 1, 66, 95
2, 24960, Note_off_c, 1, 62, 95
2, 24960, Note_off_c, 1, 57, 95
2, 24960, Note_on_c, 1, 59, 95
2, 25920, Note_off_c, 1, 59, 95
2, 25920, Note_on_c, 0, 62, 95
2, 27360, Note_off_c, 0, 62, 95
2, 27520, Note_on_c, 0, 59, 95
2, 27840, Note_off_c, 0, 59, 95
2, 27840, Note_on_c, 0, 62, 95
2, 28480, Note_off_c, 0, 62, 95
2, 28480, Note_on_c, 0, 59, 95
2, 28800, Note_off_c, 0, 59, 95
2, 28800, Note_on_c, 0, 55, 95
2, 30600, Note_on_c, 1, 57, 95
2, 30720, Note_off_c, 0, 55, 95
2, 30720, Note_off_c, 1, 57, 95
2, 30720, Note_on_c, 1, 59, 95
2, 31040, Note_off_c, 1, 59, 95
2, 31040, Note_on_c, 0, 57, 95
2, 31360, Note_off_c, 0, 57, 95
2, 31360, Note_on_c, 0, 59, 95
2, 31680, Note_off_c, 0, 59, 95
2, 31680, Note_on_c, 0, 55, 95
2, 33120, Note_off_c, 0, 55, 95
2, 33280, Note_on_c, 0, 48, 95
2, 33480, Note_on_c, 1, 50, 95
2, 33600, Note_off_c, 0, 48, 95
2, 33600, Note_off_c, 1, 50, 95
2, 33600, Note_on_c, 1, 52, 95
2, 34560, Note_off_c, 1, 52, 95
2, 34560, Note_on_c, 0, 50, 95
2, 36480, Note_off_c, 0, 50, 95
2, 36480, Note_on_c, 0, 50, 95
2, 37120, Note_off_c, 0, 50, 95
2, 37120, Note_on_c, 0, 52, 95
2, 37440, Note_off_c, 0, 52, 95
2, 37440, Note_on_c, 0, 55, 95
2, 39240, Note_on_c, 1, 57, 95
2, 39360, Note_off_c, 0, 55, 95
2, 39360, Note_off_c, 1, 57, 95
2, 39360, Note_on_c, 1, 59, 95
2, 40000, Note_off_c, 1, 59, 95
2, 40000, Note_on_c, 0, 55, 95
2, 40200, Note_on_c, 1, 57, 95
2, 40320, Note_off_c, 0, 55, 95
2, 40320, Note_off_c, 1, 57, 95
2, 40320, Note_on_c, 1, 59, 95
2, 42240, Note_off_c, 1, 59, 95
2, 42240, Note_on_c, 0, 57, 95
2, 43200, Note_off_c, 0, 57, 95
2, 43200, Note_on_c, 0, 55, 95
2, 46080, Note_off_c, 0, 55, 95
2, 46920, Note_on_c, 1, 61, 95
2, 46920, Note_on_c, 1, 58, 95
2, 47040, Note_off_c, 1, 61, 95
2, 47040, Note_on_c, 1, 62, 95
2, 47040, Note_off_c, 1, 58, 95
2, 47040, Note_on_c, 1, 59, 95
2, 48000, Note_off_c, 1, 62, 95
2, 48000, Note_off_c, 1, 59, 95
2, 48000, Note_on_c, 0, 64, 95
2, 48000, Note_on_c, 0, 58, 95
2, 48960, Note_off_c, 0, 64, 95
2, 48960, Note_off_c, 0, 58, 95
2, 48960, Note_on_c, 0, 59, 95
2, 48990, Note_on_c, 0, 62, 95
2, 49020, Note_on_c, 0, 67, 95
2, 50880, Note_off_c, 0, 67, 95
2, 50880, Note_off_c, 0, 62, 95
2, 50880, Note_off_c, 0, 59, 95
2, 50880, Note_on_c, 0, 71, 95
2, 50880, Note_on_c, 0, 62, 95
2, 51200, Note_off_c, 0, 71, 95
2, 51200, Note_off_c, 0, 62, 95
2, 51200, Note_on_c, 0, 69, 95
2, 51200, Note_on_c, 0, 60, 95
2, 51520, Note_off_c, 0, 69, 95
2, 51520, Note_off_c, 0, 60, 95
2, 51520, Note_on_c, 0, 67, 95
2, 51720, Note_on_c, 1, 69, 95
2, 51720, Note_on_c, 1, 60, 95
2, 51840, Note_off_c, 0, 67, 95
2, 51840, Note_off_c, 1, 69, 95
2, 51840, Note_on_c, 1, 71, 95
2, 51840, Note_off_c, 1, 60, 95
2, 51840, Note_on_c, 1, 62, 95
2, 53760, Note_off_c, 1, 71, 95
2, 53760, Note_off_c, 1, 62, 95
2, 53760, Note_on_c, 0, 69, 95
2, 53760, Note_on_c, 0, 63, 95
2, 54720, Note_off_c, 0, 69, 95
2, 54720, Note_off_c, 0, 63, 95
2, 54720, Note_on_c, 0, 67, 95
2, 54720, Note_on_c, 0, 64, 95
2, 54720, Note_on_c, 0, 60, 95
2, 56160, Note_off_c, 0, 67, 95
2, 56160, Note_off_c, 0, 64, 95
2, 56160, Note_off_c, 0, 60, 95
2, 56320, Note_on_c, 0, 55, 95
2, 56640, Note_off_c, 0, 55, 95
2, 56640, Note_on_c, 0, 64, 95
2, 56640, Note_on_c, 0, 60, 95
2, 57280, Note_off_c, 0, 64, 95
2, 57280, Note_off_c, 0, 60, 95
2, 57280, Note_on_c, 0, 55, 95
2, 57480, Note_on_c, 1, 58, 95
2, 57600, Note_off_c, 0, 55, 95
2, 57600, Note_on_c, 0, 62, 95
2, 57600, Note_off_c, 1, 58, 95
2, 57600, Note_on_c, 1, 59, 95
2, 59520, Note_off_c, 0, 62, 95
2, 59520, Note_off_c, 1, 59, 95
2, 59520, Note_on_c, 0, 62, 95
2, 60160, Note_off_c, 0, 62, 95
2, 60160, Note_on_c, 0, 64, 95
2, 60480, Note_off_c, 0, 64, 95
2, 60480, Note_on_c, 0, 67, 95
2, 60480, Note_on_c, 0, 59, 95
2, 62280, Note_on_c, 1, 69, 95
2, 62280, Note_on_c, 1, 60, 95
2, 62400, Note_off_c, 0, 67, 95
2, 62400, Note_off_c, 0, 59, 95
2, 62400, Note_off_c, 1, 69, 95
2, 62400, Note_on_c, 1, 71, 95
2, 62400, Note_off_c, 1, 60, 95
2, 62400, Note_on_c, 1, 62, 95
2, 63040, Note_off_c, 1, 71, 95
2, 63040, Note_off_c, 1, 62, 95
2, 63040, Note_on_c, 0, 67, 95
2, 63040, Note_on_c, 0, 59, 95
2, 63240, Note_on_c, 1, 69, 95
2, 63240, Note_on_c, 1, 60, 95
2, 63360, Note_off_c, 0, 67, 95
2, 63360, Note_off_c, 0, 59, 95
2, 63360, Note_off_c, 1, 69, 95
2, 63360, Note_on_c, 1, 71, 95
2, 63360, Note_off_c, 1, 60, 95
2, 63360, Note_on_c, 1, 62, 95
2, 65280, Note_off_c, 1, 71, 95
2, 65280, Note_off_c, 1, 62, 95
2, 65280, Note_on_c, 0, 69, 95
2, 65280, Note_on_c, 0, 60, 95
2, 65920, Note_off_c, 0, 69, 95
2, 65920, Note_off_c, 0, 60, 95
2, 65920, Note_on_c, 0, 71, 95
2, 65920, Note_on_c, 0, 62, 95
2, 66120, Note_on_c, 1, 71, 95
2, 66120, Note_on_c, 1, 63, 95
2, 66240, Note_off_c, 0, 71, 95
2, 66240, Note_off_c, 0, 62, 95
2, 66240, Note_off_c, 1, 71, 95
2, 66240, Note_on_c, 1, 74, 95
2, 66240, Note_off_c, 1, 63, 95
2, 66240, Note_on_c, 1, 66, 95
2, 69960, Note_on_c, 1, 69, 95
2, 70080, Note_off_c, 1, 74, 95
2, 70080, Note_off_c, 1, 66, 95
2, 70080, Note_off_c, 1, 69, 95
2, 70080, Note_on_c, 1, 71, 95
2, 71040, Note_off_c, 1, 71, 95
2, 71040, Note_on_c, 0, 74, 95
2, 72000, Note_off_c, 0, 74, 95
2, 72000, Note_on_c, 0, 74, 95
2, 72000, Note_on_c, 0, 67, 95
2, 73440, Note_off_c, 0, 74, 95
2, 73440, Note_off_c, 0, 67, 95
2, 73600, Note_on_c, 0, 71, 95
2, 73600, Note_on_c, 0, 67, 95
2, 73920, Note_off_c, 0, 71, 95
2, 73920, Note_off_c, 0, 67, 95
2, 73920, Note_on_c, 0, 74, 95
2, 73920, Note_on_c, 0, 67, 95
2, 74520, Pitch_bend_c, 1, 7552
2, 74520, Pitch_bend_c, 1, 7424
2, 74560, Note_off_c, 0, 74, 95
2, 74560, Note_off_c, 0, 67, 95
2, 74560, Note_on_c, 1, 71, 95
2, 74560, Note_on_c, 1, 67, 95
2, 74640, Pitch_bend_c, 1, 6784
2, 74640, Pitch_bend_c, 1, 6528
2, 74760, Pitch_bend_c, 1, 6144
2, 74760, Pitch_bend_c, 1, 5632
2, 74880, Pitch_bend_c, 1, 5376
2, 74880, Pitch_bend_c, 1, 8192
2, 74880, Note_off_c, 1, 71, 95
2, 74880, Pitch_bend_c, 1, 4736
2, 74880, Pitch_bend_c, 1, 8192
2, 74880, Note_off_c, 1, 67, 95
2, 74880, Note_on_c, 0, 67, 95
2, 74880, Note_on_c, 0, 62, 95
2, 74880, Note_on_c, 0, 59, 95
2, 76800, Note_off_c, 0, 67, 95
2, 76800, Note_off_c, 0, 62, 95
2, 76800, Note_off_c, 0, 59, 95
2, 76800, Note_on_c, 0, 71, 95
2, 76800, Note_on_c, 0, 62, 95
2, 77440, Note_off_c, 0, 71, 95
2, 77440, Note_off_c, 0, 62, 95
2, 77440, Note_on_c, 0, 69, 95
2, 77760, Note_off_c, 0, 69, 95
2, 77760, Note_on_c, 0, 67, 95
2, 77760, Note_on_c, 0, 60, 95
2, 79200, Note_off_c, 0, 67, 95
2, 79200, Note_off_c, 0, 60, 95
2, 79360, Note_on_c, 0, 55, 95
2, 79680, Note_off_c, 0, 55, 95
2, 79680, Note_on_c, 0, 64, 95
2, 79680, Note_on_c, 0, 60, 95
2, 80320, Note_off_c, 0, 64, 95
2, 80320, Note_off_c, 0, 60, 95
2, 80320, Note_on_c, 0, 55, 95
2, 80640, Note_off_c, 0, 55, 95
2, 80640, Note_on_c, 0, 62, 95
2, 80640, Note_on_c, 0, 59, 95
2, 82560, Note_off_c, 0, 62, 95
2, 82560, Note_off_c, 0, 59, 95
2, 82560, Note_on_c, 0, 62, 95
2, 82560, Note_on_c, 0, 59, 95
2, 83200, Note_off_c, 0, 62, 95
2, 83200, Note_off_c, 0, 59, 95
2, 83200, Note_on_c, 0, 64, 95
2, 83520, Note_off_c, 0, 64, 95
2, 83520, Note_on_c, 0, 67, 95
2, 85320, Note_on_c, 1, 69, 95
2, 85320, Note_on_c, 1, 60, 95
2, 85440, Note_off_c, 0, 67, 95
2, 85440, Note_off_c, 1, 69, 95
2, 85440, Note_on_c, 1, 71, 95
2, 85440, Note_off_c, 1, 60, 95
2, 85440, Note_on_c, 1, 62, 95
2, 86080, Note_off_c, 1, 71, 95
2, 86080, Note_off_c, 1, 62, 95
2, 86080, Note_on_c, 0, 67, 95
2, 86080, Note_on_c, 0, 59, 95
2, 86280, Note_on_c, 1, 69, 95
2, 86280, Note_on_c, 1, 60, 95
2, 86400, Note_off_c, 0, 67, 95
2, 86400, Note_off_c, 0, 59, 95
2, 86400, Note_off_c, 1, 69, 95
2, 86400, Note_on_c, 1, 71, 95
2, 86400, Note_off_c, 1, 60, 95
2, 86400, Note_on_c, 1, 62, 95
2, 87840, Note_off_c, 1, 71, 95
2, 87840, Note_off_c, 1, 62, 95
2, 88000, Note_on_c, 0, 50, 95
2, 88320, Note_off_c, 0, 50, 95
2, 88320, Note_on_c, 0, 69, 95
2, 88320, Note_on_c, 0, 60, 95
2, 89280, Note_off_c, 0, 69, 95
2, 89280, Note_off_c, 0, 60, 95
2, 89280, Note_on_c, 0, 67, 95
2, 89280, Note_on_c, 0, 59, 95
2, 90720, Note_off_c, 0, 67, 95
2, 90720, Note_off_c, 0, 59, 95
2, 90760, Note_on_c, 1, 64, 95
2, 90880, Note_off_c, 1, 64, 95
2, 90880, Note_on_c, 1, 65, 95
2, 91200, Note_off_c, 1, 65, 95
2, 91200, Note_on_c, 0, 62, 95
2, 91440, Note_off_c, 0, 62, 95
2, 91440, Note_on_c, 0, 61, 95
2, 91680, Note_off_c, 0, 61, 95
2, 91680, Note_on_c, 0, 60, 95
2, 91920, Note_off_c, 0, 60, 95
2, 91920, Note_on_c, 0, 58, 95
2, 92160, Note_off_c, 0, 58, 95
2, 92160, Note_on_c, 0, 55, 95
2, 93600, Note_off_c, 0, 55, 95
2, 93760, Note_on_c, 0, 58, 95
2, 94080, Note_off_c, 0, 58, 95
2, 94080, Note_on_c, 0, 59, 95
2, 94400, Note_off_c, 0, 59, 95
2, 94400, Note_on_c, 0, 62, 95
2, 94720, Note_off_c, 0, 62, 95
2, 94720, Note_on_c, 0, 64, 95
2, 95040, Note_off_c, 0, 64, 95
2, 95040, Note_on_c, 0, 67, 95
2, 96840, Note_on_c, 1, 69, 95
2, 96960, Note_off_c, 0, 67, 95
2, 96960, Note_on_c, 0, 74, 95
2, 96960, Note_off_c, 1, 69, 95
2, 96960, Note_on_c, 1, 71, 95
2, 97800, Note_on_c, 1, 69, 95
2, 97920, Note_off_c, 0, 74, 95
2, 97920, Note_off_c, 1, 71, 95
2, 97920, Note_on_c, 0, 74, 95
2, 97920, Note_off_c, 1, 69, 95
2, 97920, Note_on_c, 1, 59, 95
2, 99840, Note_off_c, 0, 74, 95
2, 99840, Note_off_c, 1, 59, 95
2, 99840, Note_on_c, 0, 74, 95
2, 99840, Note_on_c, 0, 69, 95
2, 100000, Note_off_c, 0, 74, 95
2, 100000, Note_off_c, 0, 69, 95
2, 100000, Note_on_c, 0, 71, 95
2, 100160, Note_off_c, 0, 71, 95
2, 100160, Note_on_c, 0, 60, 95
2, 100800, Note_off_c, 0, 60, 95
2, 100800, Note_on_c, 0, 72, 95
2, 100800, Note_on_c, 0, 67, 95
2, 100800, Note_on_c, 0, 64, 95
2, 102240, Note_off_c, 0, 72, 95
2, 102240, Note_off_c, 0, 67, 95
2, 102240, Note_off_c, 0, 64, 95
2, 102400, Note_on_c, 0, 60, 95
2, 102600, Note_on_c, 1, 62, 95
2, 102720, Note_off_c, 0, 60, 95
2, 102720, Note_off_c, 1, 62, 95
2, 102720, Note_on_c, 1, 64, 95
2, 103360, Note_off_c, 1, 64, 95
2, 103360, Note_on_c, 0, 67, 95
2, 103680, Note_off_c, 0, 67, 95
2, 103680, Note_on_c, 0, 64, 95
2, 103920, Note_off_c, 0, 64, 95
2, 103920, Note_on_c, 0, 62, 95
2, 105600, Note_off_c, 0, 62, 95
2, 105600, Note_on_c, 0, 62, 95
2, 105600, Note_on_c, 0, 59, 95
2, 106240, Note_off_c, 0, 62, 95
2, 106240, Note_off_c, 0, 59, 95
2, 106240, Note_on_c, 0, 64, 95
2, 106560, Note_off_c, 0, 64, 95
2, 106560, Note_on_c, 0, 67, 95
2, 108360, Note_on_c, 1, 69, 95
2, 108360, Note_on_c, 1, 60, 95
2, 108480, Note_off_c, 0, 67, 95
2, 108480, Note_off_c, 1, 69, 95
2, 108480, Note_on_c, 1, 71, 95
2, 108480, Note_off_c, 1, 60, 95
2, 108480, Note_on_c, 1, 62, 95
2, 109120, Note_off_c, 1, 71, 95
2, 109120, Note_off_c, 1, 62, 95
2, 109120, Note_on_c, 0, 67, 95
2, 109120, Note_on_c, 0, 59, 95
2, 109320, Note_on_c, 1, 69, 95
2, 109320, Note_on_c, 1, 60, 95
2, 109440, Note_off_c, 0, 67, 95
2, 109440, Note_off_c, 0, 59, 95
2, 109440, Note_off_c, 1, 69, 95
2, 109440, Note_on_c, 1, 71, 95
2, 109440, Note_off_c, 1, 60, 95
2, 109440, Note_on_c, 1, 62, 95
2, 111360, Note_off_c, 1, 71, 95
2, 111360, Note_off_c, 1, 62, 95
2, 111360, Note_on_c, 0, 69, 95
2, 111360, Note_on_c, 0, 60, 95
2, 112000, Note_off_c, 0, 69, 95
2, 112000, Note_off_c, 0, 60, 95
2, 112000, Note_on_c, 0, 71, 95
2, 112000, Note_on_c, 0, 62, 95
2, 112200, Note_on_c, 1, 71, 95
2, 112200, Note_on_c, 1, 63, 95
2, 112320, Note_off_c, 0, 71, 95
2, 112320, Note_off_c, 0, 62, 95
2, 112320, Note_off_c, 1, 71, 95
2, 112320, Note_on_c, 1, 74, 95
2, 112320, Note_off_c, 1, 63, 95
2, 112320, Note_on_c, 1, 66, 95
2, 113760, Note_off_c, 1, 74, 95
2, 113760, Note_off_c, 1, 66, 95
2, 113920, Note_on_c, 0, 72, 95
2, 113920, Note_on_c, 0, 64, 95
2, 114240, Note_off_c, 0, 72, 95
2, 114240, Note_off_c, 0, 64, 95
2, 114240, Note_on_c, 1, 69, 95
2, 114240, Note_on_c, 1, 60, 95
2, 114400, Pitch_bend_c, 1, 7552
2, 114400, Pitch_bend_c, 1, 7552
2, 114560, Pitch_bend_c, 1, 6784
2, 114560, Pitch_bend_c, 1, 8192
2, 114560, Note_off_c, 1, 69, 95
2, 114560, Pitch_bend_c, 1, 6784
2, 114560, Pitch_bend_c, 1, 8192
2, 114560, Note_off_c, 1, 60, 95
2, 114560, Note_on_c, 0, 67, 95
2, 114560, Note_on_c, 0, 58, 95
2, 114880, Note_off_c, 0, 67, 95
2, 114880, Note_off_c, 0, 58, 95
2, 114880, Note_on_c, 0, 66, 95
2, 114880, Note_on_c, 0, 57, 95
2, 115200, Note_off_c, 0, 66, 95
2, 115200, Note_off_c, 0, 57, 95
2, 115200, Note_on_c, 0, 62, 95
2, 115200, Note_on_c, 0, 54, 95
2, 117000, Note_on_c, 1, 69, 95
2, 117120, Note_off_c, 0, 62, 95
2, 117120, Note_off_c, 0, 54, 95
2, 117120, Note_off_c, 1, 69, 95
2, 117120, Note_on_c, 1, 71, 95
2, 117760, Note_off_c, 1, 71, 95
2, 117760, Note_on_c, 0, 74, 95
2, 118080, Note_off_c, 0, 74, 95
2, 118080, Note_on_c, 0, 79, 95
2, 118080, Note_on_c, 0, 71, 95
2, 119520, Note_off_c, 0, 79, 95
2, 119520, Note_off_c, 0, 71, 95
2, 119680, Note_on_c, 0, 74, 95
2, 119680, Note_on_c, 0, 71, 95
2, 120000, Note_off_c, 0, 74, 95
2, 120000, Note_off_c, 0, 71, 95
2, 120000, Note_on_c, 0, 79, 95
2, 120000, Note_on_c, 0, 71, 95
2, 120600, Pitch_bend_c, 1, 7680
2, 120600, Pitch_bend_c, 1, 7552
2, 120640, Note_off_c, 0, 79, 95
2, 120640, Note_off_c, 0, 71, 95
2, 120640, Note_on_c, 1, 74, 95
2, 120640, Note_on_c, 1, 71, 95
2, 120720, Pitch_bend_c, 1, 7168
2, 120720, Pitch_bend_c, 1, 6784
2, 120840, Pitch_bend_c, 1, 6656
2, 120840, Pitch_bend_c, 1, 6144
2, 120960, Pitch_bend_c, 1, 6144
2, 120960, Pitch_bend_c, 1, 8192
2, 120960, Note_off_c, 1, 74, 95
2, 120960, Pitch_bend_c, 1, 5376
2, 120960, Pitch_bend_c, 1, 8192
2, 120960, Note_off_c, 1, 71, 95
2, 120960, Note_on_c, 0, 71, 95
2, 120960, Note_on_c, 0, 67, 95
2, 122400, Note_off_c, 0, 71, 95
2, 122400, Note_off_c, 0, 67, 95
2, 122560, Note_on_c, 0, 67, 95
2, 122880, Note_off_c, 0, 67, 95
2, 122880, Note_on_c, 0, 74, 95
2, 122880, Note_on_c, 0, 70, 95
2, 123520, Note_off_c, 0, 74, 95
2, 123520, Note_off_c, 0, 70, 95
2, 123520, Note_on_c, 0, 72, 95
2, 123520, Note_on_c, 0, 69, 95
2, 123840, Note_off_c, 0, 72, 95
2, 123840, Note_off_c, 0, 69, 95
2, 123840, Note_on_c, 0, 70, 95
2, 123840, Note_on_c, 0, 67, 95
2, 125280, Note_off_c, 0, 70, 95
2, 125280, Note_off_c, 0, 67, 95
2, 125440, Note_on_c, 0, 60, 95
2, 125640, Note_on_c, 1, 62, 95
2, 125760, Note_off_c, 0, 60, 95
2, 125760, Note_off_c, 1, 62, 95
2, 125760, Note_on_c, 1, 64, 95
2, 126400, Note_off_c, 1, 64, 95
2, 126400, Note_on_c, 0, 67, 95
2, 126600, Note_on_c, 1, 64, 95
2, 126720, Note_off_c, 0, 67, 95
2, 126720, Note_off_c, 1, 64, 95
2, 126720, Note_on_c, 1, 62, 95
2, 128640, Note_off_c, 1, 62, 95
2, 128640, Note_on_c, 0, 62, 95
2, 128640, Note_on_c, 0, 59, 95
2, 129280, Note_off_c, 0, 62, 95
2, 129280, Note_off_c, 0, 59, 95
2, 129280, Note_on_c, 0, 64, 95
2, 129600, Note_off_c, 0, 64, 95
2, 129600, Note_on_c, 0, 67, 95
2, 131400, Note_on_c, 1, 69, 95
2, 131400, Note_on_c, 1, 60, 95
2, 131520, Note_off_c, 0, 67, 95
2, 131520, Note_off_c, 1, 69, 95
2, 131520, Note_on_c, 1, 71, 95
2, 131520, Note_off_c, 1, 60, 95
2, 131520, Note_on_c, 1, 62, 95
2, 132160, Note_off_c, 1, 71, 95
2, 132160, Note_off_c, 1, 62, 95
2, 132160, Note_on_c, 0, 67, 95
2, 132160, Note_on_c, 0, 59, 95
2, 132360, Note_on_c, 1, 69, 95
2, 132360, Note_on_c, 1, 60, 95
2, 132480, Note_off_c, 0, 67, 95
2, 132480, Note_off_c, 0, 59, 95
2, 132480, Note_off_c, 1, 69, 95
2, 132480, Note_on_c, 1, 71, 95
2, 132480, Note_off_c, 1, 60, 95
2, 132480, Note_on_c, 1, 62, 95
2, 134400, Note_off_c, 1, 71, 95
2, 134400, Note_off_c, 1, 62, 95
2, 134400, Note_on_c, 0, 69, 95
2, 134400, Note_on_c, 0, 60, 95
2, 135360, Note_off_c, 0, 69, 95
2, 135360, Note_off_c, 0, 60, 95
2, 135360, Note_on_c, 0, 67, 95
2, 135360, Note_on_c, 0, 59, 95
2, 136200, Note_on_c, 1, 58, 95
2, 136320, Note_off_c, 0, 67, 95
2, 136320, Note_off_c, 0, 59, 95
2, 136320, Note_on_c, 0, 62, 95
2, 136320, Note_off_c, 1, 58, 95
2, 136320, Note_on_c, 1, 59, 95
2, 137280, Note_off_c, 0, 62, 95
2, 137280, Note_off_c, 1, 59, 95
2, 137280, Note_on_c, 0, 60, 95
2, 137280, Note_on_c, 0, 55, 95
2, 137280, Note_on_c, 0, 50, 95
2, 138240, Note_off_c, 0, 60, 95
2, 138240, Note_off_c, 0, 55, 95
2, 138240, Note_off_c, 0, 50, 95
2, 138240, Note_on_c, 0, 59, 95
2, 138240, Note_on_c, 0, 55, 95
2, 138240, Note_on_c, 0, 50, 95
2, 138240, Note_on_c, 0, 43, 95
2, 141120, Note_off_c, 0, 59, 95
2, 141120, Note_off_c, 0, 55, 95
2, 141120, Note_off_c, 0, 50, 95
2, 141120, Note_off_c, 0, 43, 95
2, 141120, End_track
3, 0, Start_track
3, 0, Pitch_bend_c, 2, 8192
3, 0, Control_c, 2, 7, 103
3, 0, Control_c, 2, 10, 111
3, 0, Control_c, 2, 93, 0
3, 0, Control_c, 2, 91, 0
3, 0, Control_c, 2, 95, 0
3, 0, Control_c, 2, 92, 0
3, 0, Control_c, 2, 11, 127
3, 0, Program_c, 2, 24
3, 0, Control_c, 3, 7, 103
3, 0, Control_c, 3, 10, 111
3, 0, Control_c, 3, 93, 0
3, 0, Control_c, 3, 91, 0
3, 0, Control_c, 3, 95, 0
3, 0, Control_c, 3, 92, 0
3, 0, Control_c, 3, 11, 127
3, 0, Program_c, 3, 24
3, 2880, Note_on_c, 2, 43, 95
3, 3520, Note_off_c, 2, 43, 95
3, 3520, Note_on_c, 2, 47, 95
3, 3840, Note_off_c, 2, 47, 95
3, 3840, Note_on_c, 2, 59, 95
3, 3840, Note_on_c, 2, 55, 95
3, 3840, Note_on_c, 2, 50, 95
3, 4800, Note_off_c, 2, 59, 95
3, 4800, Note_off_c, 2, 55, 95
3, 4800, Note_off_c, 2, 50, 95
3, 4800, Note_on_c, 2, 59, 95
3, 4800, Note_on_c, 2, 55, 95
3, 4800, Note_on_c, 2, 50, 95
3, 5760, Note_off_c, 2, 59, 95
3, 5760, Note_off_c, 2, 55, 95
3, 5760, Note_off_c, 2, 50, 95
3, 5760, Note_on_c, 2, 43, 95
3, 6400, Note_off_c, 2, 43, 95
3, 6400, Note_on_c, 2, 47, 95
3, 6720, Note_off_c, 2, 47, 95
3, 6720, Note_on_c, 2, 59, 95
3, 6720, Note_on_c, 2, 55, 95
3, 6720, Note_on_c, 2, 50, 95
3, 7680, Note_off_c, 2, 59, 95
3, 7680, Note_off_c, 2, 55, 95
3, 7680, Note_off_c, 2, 50, 95
3, 7680, Note_on_c, 2, 59, 95
3, 7680, Note_on_c, 2, 55, 95
3, 7680, Note_on_c, 2, 50, 95
3, 8640, Note_off_c, 2, 59, 95
3, 8640, Note_off_c, 2, 55, 95
3, 8640, Note_off_c, 2, 50, 95
3, 8640, Note_on_c, 2, 48, 95
3, 9280, Note_off_c, 2, 48, 95
3, 9280, Note_on_c, 2, 52, 95
3, 9600, Note_off_c, 2, 52, 95
3, 9600, Note_on_c, 2, 60, 95
3, 9600, Note_on_c, 2, 55, 95
3, 10560, Note_off_c, 2, 60, 95
3, 10560, Note_off_c, 2, 55, 95
3, 10560, Note_on_c, 2, 60, 95
3, 10560, Note_on_c, 2, 55, 95
3, 11520, Note_off_c, 2, 60, 95
3, 11520, Note_off_c, 2, 55, 95
3, 11520, Note_on_c, 2, 43, 95
3, 12160, Note_off_c, 2, 43, 95
3, 12160, Note_on_c, 2, 47, 95
3, 12480, Note_off_c, 2, 47, 95
3, 12480, Note_on_c, 2, 59, 95
3, 12480, Note_on_c, 2, 55, 95
3, 12480, Note_on_c, 2, 50, 95
3, 13440, Note_off_c, 2, 59, 95
3, 13440, Note_off_c, 2, 55, 95
3, 13440, Note_off_c, 2, 50, 95
3, 13440, Note_on_c, 2, 59, 95
3, 13440, Note_on_c, 2, 55, 95
3, 13440, Note_on_c, 2, 50, 95
3, 14400, Note_off_c, 2, 59, 95
3, 14400, Note_off_c, 2, 55, 95
3, 14400, Note_off_c, 2, 50, 95
3, 14400, Note_on_c, 2, 43, 95
3, 15040, Note_off_c, 2, 43, 95
3, 15040, Note_on_c, 2, 47, 95
3, 15360, Note_off_c, 2, 47, 95
3, 15360, Note_on_c, 2, 59, 95
3, 15360, Note_on_c, 2, 55, 95
3, 15360, Note_on_c, 2, 50, 95
3, 16320, Note_off_c, 2, 59, 95
3, 16320, Note_off_c, 2, 55, 95
3, 16320, Note_off_c, 2, 50, 95
3, 16320, Note_on_c, 2, 59, 95
3, 16320, Note_on_c, 2, 55, 95
3, 16320, Note_on_c, 2, 50, 95
3, 17280, Note_off_c, 2, 59, 95
3, 17280, Note_off_c, 2, 55, 95
3, 17280, Note_off_c, 2, 50, 95
3, 17280, Note_on_c, 2, 43, 95
3, 17920, Note_off_c, 2, 43, 95
3, 17920, Note_on_c, 2, 47, 95
3, 18240, Note_off_c, 2, 47, 95
3, 18240, Note_on_c, 2, 59, 95
3, 18240, Note_on_c, 2, 55, 95
3, 18240, Note_on_c, 2, 50, 95
3, 19200, Note_off_c, 2, 59, 95
3, 19200, Note_off_c, 2, 55, 95
3, 19200, Note_off_c, 2, 50, 95
3, 19200, Note_on_c, 2, 59, 95
3, 19200, Note_on_c, 2, 55, 95
3, 19200, Note_on_c, 2, 50, 95
3, 20160, Note_off_c, 2, 59, 95
3, 20160, Note_off_c, 2, 55, 95
3, 20160, Note_off_c, 2, 50, 95
3, 20160, Note_on_c, 2, 50, 95
3, 20800, Note_off_c, 2, 50, 95
3, 20800, Note_on_c, 2, 54, 95
3, 21120, Note_off_c, 2, 54, 95
3, 21120, Note_on_c, 2, 62, 95
3, 21120, Note_on_c, 2, 60, 95
3, 22080, Note_off_c, 2, 62, 95
3, 22080, Note_off_c, 2, 60, 95
3, 22080, Note_on_c, 2, 62, 95
3, 22080, Note_on_c, 2, 60, 95
3, 23040, Note_off_c, 2, 62, 95
3, 23040, Note_off_c, 2, 60, 95
3, 23040, Note_on_c, 2, 50, 95
3, 23680, Note_off_c, 2, 50, 95
3, 23680, Note_on_c, 2, 54, 95
3, 24000, Note_off_c, 2, 54, 95
3, 24000, Note_on_c, 2, 62, 95
3, 24000, Note_on_c, 2, 60, 95
3, 24960, Note_off_c, 2, 62, 95
3, 24960, Note_off_c, 2, 60, 95
3, 24960, Note_on_c, 2, 62, 95
3, 24960, Note_on_c, 2, 60, 95
3, 25920, Note_off_c, 2, 62, 95
3, 25920, Note_off_c, 2, 60, 95
3, 25920, Note_on_c, 2, 43, 95
3, 26560, Note_off_c, 2, 43, 95
3, 26560, Note_on_c, 2, 47, 95
3, 26880, Note_off_c, 2, 47, 95
3, 26880, Note_on_c, 2, 59, 95
3, 26880, Note_on_c, 2, 55, 95
3, 26880, Note_on_c, 2, 50, 95
3, 27840, Note_off_c, 2, 59, 95
3, 27840, Note_off_c, 2, 55, 95
3, 27840, Note_off_c, 2, 50, 95
3, 27840, Note_on_c, 2, 59, 95
3, 27840, Note_on_c, 2, 55, 95
3, 27840, Note_on_c, 2, 50, 95
3, 28800, Note_off_c, 2, 59, 95
3, 28800, Note_off_c, 2, 55, 95
3, 28800, Note_off_c, 2, 50, 95
3, 28800, Note_on_c, 2, 43, 95
3, 29440, Note_off_c, 2, 43, 95
3, 29440, Note_on_c, 2, 47, 95
3, 29760, Note_off_c, 2, 47, 95
3, 29760, Note_on_c, 2, 59, 95
3, 29760, Note_on_c, 2, 55, 95
3, 29760, Note_on_c, 2, 50, 95
3, 30720, Note_off_c, 2, 59, 95
3, 30720, Note_off_c, 2, 55, 95
3, 30720, Note_off_c, 2, 50, 95
3, 30720, Note_on_c, 2, 59, 95
3, 30720, Note_on_c, 2, 55, 95
3, 30720, Note_on_c, 2, 50, 95
3, 31680, Note_off_c, 2, 59, 95
3, 31680, Note_off_c, 2, 55, 95
3, 31680, Note_off_c, 2, 50, 95
3, 31680, Note_on_c, 2, 48, 95
3, 32320, Note_off_c, 2, 48, 95
3, 32320, Note_on_c, 2, 52, 95
3, 32640, Note_off_c, 2, 52, 95
3, 32640, Note_on_c, 2, 60, 95
3, 32640, Note_on_c, 2, 55, 95
3, 33600, Note_off_c, 2, 60, 95
3, 33600, Note_off_c, 2, 55, 95
3, 33600, Note_on_c, 2, 60, 95
3, 33600, Note_on_c, 2, 55, 95
3, 34560, Note_off_c, 2, 60, 95
3, 34560, Note_off_c, 2, 55, 95
3, 34560, Note_on_c, 2, 43, 95
3, 35200, Note_off_c, 2, 43, 95
3, 35200, Note_on_c, 2, 47, 95
3, 35520, Note_off_c, 2, 47, 95
3, 35520, Note_on_c, 2, 59, 95
3, 35520, Note_on_c, 2, 55, 95
3, 35520, Note_on_c, 2, 50, 95
3, 36480, Note_off_c, 2, 59, 95
3, 36480, Note_off_c, 2, 55, 95
3, 36480, Note_off_c, 2, 50, 95
3, 36480, Note_on_c, 2, 59, 95
3, 36480, Note_on_c, 2, 55, 95
3, 36480, Note_on_c, 2, 50, 95
3, 37440, Note_off_c, 2, 59, 95
3, 37440, Note_off_c, 2, 55, 95
3, 37440, Note_off_c, 2, 50, 95
3, 37440, Note_on_c, 2, 43, 95
3, 38080, Note_off_c, 2, 43, 95
3, 38080, Note_on_c, 2, 47, 95
3, 38400, Note_off_c, 2, 47, 95
3, 38400, Note_on_c, 2, 59, 95
3, 38400, Note_on_c, 2, 55, 95
3, 38400, Note_on_c, 2, 50, 95
3, 39360, Note_off_c, 2, 59, 95
3, 39360, Note_off_c, 2, 55, 95
3, 39360, Note_off_c, 2, 50, 95
3, 39360, Note_on_c, 2, 59, 95
3, 39360, Note_on_c, 2, 55, 95
3, 39360, Note_on_c, 2, 50, 95
3, 40320, Note_off_c, 2, 59, 95
3, 40320, Note_off_c, 2, 55, 95
3, 40320, Note_off_c, 2, 50, 95
3, 40320, Note_on_c, 2, 50, 95
3, 40960, Note_off_c, 2, 50, 95
3, 40960, Note_on_c, 2, 54, 95
3, 41280, Note_off_c, 2, 54, 95
3, 41280, Note_on_c, 2, 62, 95
3, 41280, Note_on_c, 2, 60, 95
3, 42240, Note_off_c, 2, 62, 95
3, 42240, Note_off_c, 2, 60, 95
3, 42240, Note_on_c, 2, 62, 95
3, 42240, Note_on_c, 2, 60, 95
3, 43200, Note_off_c, 2, 62, 95
3, 43200, Note_off_c, 2, 60, 95
3, 43200, Note_on_c, 2, 43, 95
3, 43840, Note_off_c, 2, 43, 95
3, 43840, Note_on_c, 2, 47, 95
3, 44160, Note_off_c, 2, 47, 95
3, 44160, Note_on_c, 2, 59, 95
3, 44160, Note_on_c, 2, 55, 95
3, 44160, Note_on_c, 2, 50, 95
3, 45120, Note_off_c, 2, 59, 95
3, 45120, Note_off_c, 2, 55, 95
3, 45120, Note_off_c, 2, 50, 95
3, 45120, Note_on_c, 2, 59, 95
3, 45120, Note_on_c, 2, 55, 95
3, 45120, Note_on_c, 2, 50, 95
3, 46080, Note_off_c, 2, 59, 95
3, 46080, Note_off_c, 2, 55, 95
3, 46080, Note_off_c, 2, 50, 95
3, 46080, Note_on_c, 2, 43, 95
3, 46720, Note_off_c, 2, 43, 95
3, 46720, Note_on_c, 2, 47, 95
3, 47040, Note_off_c, 2, 47, 95
3, 47040, Note_on_c, 2, 59, 95
3, 47040, Note_on_c, 2, 55, 95
3, 47040, Note_on_c, 2, 50, 95
3, 48000, Note_off_c, 2, 59, 95
3, 48000, Note_off_c, 2, 55, 95
3, 48000, Note_off_c, 2, 50, 95
3, 48000, Note_on_c, 2, 59, 95
3, 48000, Note_on_c, 2, 55, 95
3, 48000, Note_on_c, 2, 50, 95
3, 48960, Note_off_c, 2, 59, 95
3, 48960, Note_off_c, 2, 55, 95
3, 48960, Note_off_c, 2, 50, 95
3, 48960, Note_on_c, 2, 43, 95
3, 49600, Note_off_c, 2, 43, 95
3, 49600, Note_on_c, 2, 47, 95
3, 49920, Note_off_c, 2, 47, 95
3, 49920, Note_on_c, 2, 59, 95
3, 49920, Note_on_c, 2, 55, 95
3, 49920, Note_on_c, 2, 50, 95
3, 50880, Note_off_c, 2, 59, 95
3, 50880, Note_off_c, 2, 55, 95
3, 50880, Note_off_c, 2, 50, 95
3, 50880, Note_on_c, 2, 59, 95
3, 50880, Note_on_c, 2, 55, 95
3, 50880, Note_on_c, 2, 50, 95
3, 51840, Note_off_c, 2, 59, 95
3, 51840, Note_off_c, 2, 55, 95
3, 51840, Note_off_c, 2, 50, 95
3, 51840, Note_on_c, 2, 43, 95
3, 52480, Note_off_c, 2, 43, 95
3, 52480, Note_on_c, 2, 47, 95
3, 52800, Note_off_c, 2, 47, 95
3, 52800, Note_on_c, 2, 59, 95
3, 52800, Note_on_c, 2, 55, 95
3, 52800, Note_on_c, 2, 50, 95
3, 53760, Note_off_c, 2, 59, 95
3, 53760, Note_off_c, 2, 55, 95
3, 53760, Note_off_c, 2, 50, 95
3, 53760, Note_on_c, 2, 59, 95
3, 53760, Note_on_c, 2, 55, 95
3, 53760, Note_on_c, 2, 50, 95
3, 54720, Note_off_c, 2, 59, 95
3, 54720, Note_off_c, 2, 55, 95
3, 54720, Note_off_c, 2, 50, 95
3, 54720, Note_on_c, 2, 48, 95
3, 55360, Note_off_c, 2, 48, 95
3, 55360, Note_on_c, 2, 52, 95
3, 55680, Note_off_c, 2, 52, 95
3, 55680, Note_on_c, 2, 60, 95
3, 55680, Note_on_c, 2, 55, 95
3, 56640, Note_off_c, 2, 60, 95
3, 56640, Note_off_c, 2, 55, 95
3, 56640, Note_on_c, 2, 60, 95
3, 56640, Note_on_c, 2, 55, 95
3, 57600, Note_off_c, 2, 60, 95
3, 57600, Note_off_c, 2, 55, 95
3, 57600, Note_on_c, 2, 43, 95
3, 58240, Note_off_c, 2, 43, 95
3, 58240, Note_on_c, 2, 47, 95
3, 58560, Note_off_c, 2, 47, 95
3, 58560, Note_on_c, 2, 59, 95
3, 58560, Note_on_c, 2, 55, 95
3, 58560, Note_on_c, 2, 50, 95
3, 59520, Note_off_c, 2, 59, 95
3, 59520, Note_off_c, 2, 55, 95
3, 59520, Note_off_c, 2, 50, 95
3, 59520, Note_on_c, 2, 59, 95
3, 59520, Note_on_c, 2, 55, 95
3, 59520, Note_on_c, 2, 50, 95
3, 60480, Note_off_c, 2, 59, 95
3, 60480, Note_off_c, 2, 55, 95
3, 60480, Note_off_c, 2, 50, 95
3, 60480, Note_on_c, 2, 43, 95
3, 61120, Note_off_c, 2, 43, 95
3, 61120, Note_on_c, 2, 47, 95
3, 61440, Note_off_c, 2, 47, 95
3, 61440, Note_on_c, 2, 59, 95
3, 61440, Note_on_c, 2, 55, 95
3, 61440, Note_on_c, 2, 50, 95
3, 62400, Note_off_c, 2, 59, 95
3, 62400, Note_off_c, 2, 55, 95
3, 62400, Note_off_c, 2, 50, 95
3, 62400, Note_on_c, 2, 59, 95
3, 62400, Note_on_c, 2, 55, 95
3, 62400, Note_on_c, 2, 50, 95
3, 63360, Note_off_c, 2, 59, 95
3, 63360, Note_off_c, 2, 55, 95
3, 63360, Note_off_c, 2, 50, 95
3, 63360, Note_on_c, 2, 43, 95
3, 64000, Note_off_c, 2, 43, 95
3, 64000, Note_on_c, 2, 47, 95
3, 64320, Note_off_c, 2, 47, 95
3, 64320, Note_on_c, 2, 59, 95
3, 64320, Note_on_c, 2, 55, 95
3, 64320, Note_on_c, 2, 50, 95
3, 65280, Note_off_c, 2, 59, 95
3, 65280, Note_off_c, 2, 55, 95
3, 65280, Note_off_c, 2, 50, 95
3, 65280, Note_on_c, 2, 59, 95
3, 65280, Note_on_c, 2, 55, 95
3, 65280, Note_on_c, 2, 50, 95
3, 66240, Note_off_c, 2, 59, 95
3, 66240, Note_off_c, 2, 55, 95
3, 66240, Note_off_c, 2, 50, 95
3, 66240, Note_on_c, 2, 50, 95
3, 66880, Note_off_c, 2, 50, 95
3, 66880, Note_on_c, 2, 54, 95
3, 67200, Note_off_c, 2, 54, 95
3, 67200, Note_on_c, 2, 62, 95
3, 67200, Note_on_c, 2, 60, 95
3, 68160, Note_off_c, 2, 62, 95
3, 68160, Note_off_c, 2, 60, 95
3, 68160, Note_on_c, 2, 62, 95
3, 68160, Note_on_c, 2, 60, 95
3, 69120, Note_off_c, 2, 62, 95
3, 69120, Note_off_c, 2, 60, 95
3, 69120, Note_on_c, 2, 50, 95
3, 69760, Note_off_c, 2, 50, 95
3, 69760, Note_on_c, 2, 54, 95
3, 70080, Note_off_c, 2, 54, 95
3, 70080, Note_on_c, 2, 62, 95
3, 70080, Note_on_c, 2, 60, 95
3, 71040, Note_off_c, 2, 62, 95
3, 71040, Note_off_c, 2, 60, 95
3, 71040, Note_on_c, 2, 62, 95
3, 71040, Note_on_c, 2, 60, 95
3, 72000, Note_off_c, 2, 62, 95
3, 72000, Note_off_c, 2, 60, 95
3, 72000, Note_on_c, 2, 43, 95
3, 72640, Note_off_c, 2, 43, 95
3, 72640, Note_on_c, 2, 47, 95
3, 72960, Note_off_c, 2, 47, 95
3, 72960, Note_on_c, 2, 59, 95
3, 72960, Note_on_c, 2, 55, 95
3, 72960, Note_on_c, 2, 50, 95
3, 73920, Note_off_c, 2, 59, 95
3, 73920, Note_off_c, 2, 55, 95
3, 73920, Note_off_c, 2, 50, 95
3, 73920, Note_on_c, 2, 59, 95
3, 73920, Note_on_c, 2, 55, 95
3, 73920, Note_on_c, 2, 50, 95
3, 74880, Note_off_c, 2, 59, 95
3, 74880, Note_off_c, 2, 55, 95
3, 74880, Note_off_c, 2, 50, 95
3, 74880, Note_on_c, 2, 43, 95
3, 75520, Note_off_c, 2, 43, 95
3, 75520, Note_on_c, 2, 47, 95
3, 75840, Note_off_c, 2, 47, 95
3, 75840, Note_on_c, 2, 59, 95
3, 75840, Note_on_c, 2, 55, 95
3, 75840, Note_on_c, 2, 50, 95
3, 76800, Note_off_c, 2, 59, 95
3, 76800, Note_off_c, 2, 55, 95
3, 76800, Note_off_c, 2, 50, 95
3, 76800, Note_on_c, 2, 59, 95
3, 76800, Note_on_c, 2, 55, 95
3, 76800, Note_on_c, 2, 50, 95
3, 77760, Note_off_c, 2, 59, 95
3, 77760, Note_off_c, 2, 55, 95
3, 77760, Note_off_c, 2, 50, 95
3, 77760, Note_on_c, 2, 48, 95
3, 78400, Note_off_c, 2, 48, 95
3, 78400, Note_on_c, 2, 52, 95
3, 78720, Note_off_c, 2, 52, 95
3, 78720, Note_on_c, 2, 60, 95
3, 78720, Note_on_c, 2, 55, 95
3, 79680, Note_off_c, 2, 60, 95
3, 79680, Note_off_c, 2, 55, 95
3, 79680, Note_on_c, 2, 60, 95
3, 79680, Note_on_c, 2, 55, 95
3, 80640, Note_off_c, 2, 60, 95
3, 80640, Note_off_c, 2, 55, 95
3, 80640, Note_on_c, 2, 43, 95
3, 81280, Note_off_c, 2, 43, 95
3, 81280, Note_on_c, 2, 47, 95
3, 81600, Note_off_c, 2, 47, 95
3, 81600, Note_on_c, 2, 59, 95
3, 81600, Note_on_c, 2, 55, 95
3, 81600, Note_on_c, 2, 50, 95
3, 82560, Note_off_c, 2, 59, 95
3, 82560, Note_off_c, 2, 55, 95
3, 82560, Note_off_c, 2, 50, 95
3, 82560, Note_on_c, 2, 59, 95
3, 82560, Note_on_c, 2, 55, 95
3, 82560, Note_on_c, 2, 50, 95
3, 83520, Note_off_c, 2, 59, 95
3, 83520, Note_off_c, 2, 55, 95
3, 83520, Note_off_c, 2, 50, 95
3, 83520, Note_on_c, 2, 43, 95
3, 84160, Note_off_c, 2, 43, 95
3, 84160, Note_on_c, 2, 47, 95
3, 84480, Note_off_c, 2, 47, 95
3, 84480, Note_on_c, 2, 59, 95
3, 84480, Note_on_c, 2, 55, 95
3, 84480, Note_on_c, 2, 50, 95
3, 85440, Note_off_c, 2, 59, 95
3, 85440, Note_off_c, 2, 55, 95
3, 85440, Note_off_c, 2, 50, 95
3, 85440, Note_on_c, 2, 59, 95
3, 85440, Note_on_c, 2, 55, 95
3, 85440, Note_on_c, 2, 50, 95
3, 86400, Note_off_c, 2, 59, 95
3, 86400, Note_off_c, 2, 55, 95
3, 86400, Note_off_c, 2, 50, 95
3, 86400, Note_on_c, 2, 50, 95
3, 87040, Note_off_c, 2, 50, 95
3, 87040, Note_on_c, 2, 54, 95
3, 87360, Note_off_c, 2, 54, 95
3, 87360, Note_on_c, 2, 62, 95
3, 87360, Note_on_c, 2, 60, 95
3, 88320, Note_off_c, 2, 62, 95
3, 88320, Note_off_c, 2, 60, 95
3, 88320, Note_on_c, 2, 62, 95
3, 88320, Note_on_c, 2, 60, 95
3, 89280, Note_off_c, 2, 62, 95
3, 89280, Note_off_c, 2, 60, 95
3, 89280, Note_on_c, 2, 43, 95
3, 89920, Note_off_c, 2, 43, 95
3, 89920, Note_on_c, 2, 47, 95
3, 90240, Note_off_c, 2, 47, 95
3, 90240, Note_on_c, 2, 59, 95
3, 90240, Note_on_c, 2, 55, 95
3, 90240, Note_on_c, 2, 50, 95
3, 91200, Note_off_c, 2, 59, 95
3, 91200, Note_off_c, 2, 55, 95
3, 91200, Note_off_c, 2, 50, 95
3, 91200, Note_on_c, 2, 59, 95
3, 91200, Note_on_c, 2, 55, 95
3, 91200, Note_on_c, 2, 50, 95
3, 92160, Note_off_c, 2, 59, 95
3, 92160, Note_off_c, 2, 55, 95
3, 92160, Note_off_c, 2, 50, 95
3, 92160, Note_on_c, 2, 43, 95
3, 92800, Note_off_c, 2, 43, 95
3, 92800, Note_on_c, 2, 47, 95
3, 93120, Note_off_c, 2, 47, 95
3, 93120, Note_on_c, 2, 59, 95
3, 93120, Note_on_c, 2, 55, 95
3, 93120, Note_on_c, 2, 50, 95
3, 94080, Note_off_c, 2, 59, 95
3, 94080, Note_off_c, 2, 55, 95
3, 94080, Note_off_c, 2, 50, 95
3, 94080, Note_on_c, 2, 59, 95
3, 94080, Note_on_c, 2, 55, 95
3, 94080, Note_on_c, 2, 50, 95
3, 95040, Note_off_c, 2, 59, 95
3, 95040, Note_off_c, 2, 55, 95
3, 95040, Note_off_c, 2, 50, 95
3, 95040, Note_on_c, 2, 43, 95
3, 95680, Note_off_c, 2, 43, 95
3, 95680, Note_on_c, 2, 47, 95
3, 96000, Note_off_c, 2, 47, 95
3, 96000, Note_on_c, 2, 59, 95
3, 96000, Note_on_c, 2, 55, 95
3, 96000, Note_on_c, 2, 50, 95
3, 96960, Note_off_c, 2, 59, 95
3, 96960, Note_off_c, 2, 55, 95
3, 96960, Note_off_c, 2, 50, 95
3, 96960, Note_on_c, 2, 59, 95
3, 96960, Note_on_c, 2, 55, 95
3, 96960, Note_on_c, 2, 50, 95
3, 97920, Note_off_c, 2, 59, 95
3, 97920, Note_off_c, 2, 55, 95
3, 97920, Note_off_c, 2, 50, 95
3, 97920, Note_on_c, 2, 43, 95
3, 98560, Note_off_c, 2, 43, 95
3, 98560, Note_on_c, 2, 47, 95
3, 98880, Note_off_c, 2, 47, 95
3, 98880, Note_on_c, 2, 59, 95
3, 98880, Note_on_c, 2, 55, 95
3, 98880, Note_on_c, 2, 50, 95
3, 99840, Note_off_c, 2, 59, 95
3, 99840, Note_off_c, 2, 55, 95
3, 99840, Note_off_c, 2, 50, 95
3, 99840, Note_on_c, 2, 59, 95
3, 99840, Note_on_c, 2, 55, 95
3, 99840, Note_on_c, 2, 50, 95
3, 100800, Note_off_c, 2, 59, 95
3, 100800, Note_off_c, 2, 55, 95
3, 100800, Note_off_c, 2, 50, 95
3, 100800, Note_on_c, 2, 48, 95
3, 101440, Note_off_c, 2, 48, 95
3, 101440, Note_on_c, 2, 52, 95
3, 101760, Note_off_c, 2, 52, 95
3, 101760, Note_on_c, 2, 60, 95
3, 101760, Note_on_c, 2, 55, 95
3, 102720, Note_off_c, 2, 60, 95
3, 102720, Note_off_c, 2, 55, 95
3, 102720, Note_on_c, 2, 60, 95
3, 102720, Note_on_c, 2, 55, 95
3, 103680, Note_off_c, 2, 60, 95
3, 103680, Note_off_c, 2, 55, 95
3, 103680, Note_on_c, 2, 43, 95
3, 104320, Note_off_c, 2, 43, 95
3, 104320, Note_on_c, 2, 47, 95
3, 104640, Note_off_c, 2, 47, 95
3, 104640, Note_on_c, 2, 59, 95
3, 104640, Note_on_c, 2, 55, 95
3, 104640, Note_on_c, 2, 50, 95
3, 105600, Note_off_c, 2, 59, 95
3, 105600, Note_off_c, 2, 55, 95
3, 105600, Note_off_c, 2, 50, 95
3, 105600, Note_on_c, 2, 59, 95
3, 105600, Note_on_c, 2, 55, 95
3, 105600, Note_on_c, 2, 50, 95
3, 106560, Note_off_c, 2, 59, 95
3, 106560, Note_off_c, 2, 55, 95
3, 106560, Note_off_c, 2, 50, 95
3, 106560, Note_on_c, 2, 43, 95
3, 107200, Note_off_c, 2, 43, 95
3, 107200, Note_on_c, 2, 47, 95
3, 107520, Note_off_c, 2, 47, 95
3, 107520, Note_on_c, 2, 59, 95
3, 107520, Note_on_c, 2, 55, 95
3, 107520, Note_on_c, 2, 50, 95
3, 108480, Note_off_c, 2, 59, 95
3, 108480, Note_off_c, 2, 55, 95
3, 108480, Note_off_c, 2, 50, 95
3, 108480, Note_on_c, 2, 59, 95
3, 108480, Note_on_c, 2, 55, 95
3, 108480, Note_on_c, 2, 50, 95
3, 109440, Note_off_c, 2, 59, 95
3, 109440, Note_off_c, 2, 55, 95
3, 109440, Note_off_c, 2, 50, 95
3, 109440, Note_on_c, 2, 43, 95
3, 110080, Note_off_c, 2, 43, 95
3, 110080, Note_on_c, 2, 47, 95
3, 110400, Note_off_c, 2, 47, 95
3, 110400, Note_on_c, 2, 59, 95
3, 110400, Note_on_c, 2, 55, 95
3, 110400, Note_on_c, 2, 50, 95
3, 111360, Note_off_c, 2, 59, 95
3, 111360, Note_off_c, 2, 55, 95
3, 111360, Note_off_c, 2, 50, 95
3, 111360, Note_on_c, 2, 59, 95
3, 111360, Note_on_c, 2, 55, 95
3, 111360, Note_on_c, 2, 50, 95
3, 112320, Note_off_c, 2, 59, 95
3, 112320, Note_off_c, 2, 55, 95
3, 112320, Note_off_c, 2, 50, 95
3, 112320, Note_on_c, 2, 50, 95
3, 112960, Note_off_c, 2, 50, 95
3, 112960, Note_on_c, 2, 54, 95
3, 113280, Note_off_c, 2, 54, 95
3, 113280, Note_on_c, 2, 62, 95
3, 113280, Note_on_c, 2, 60, 95
3, 114240, Note_off_c, 2, 62, 95
3, 114240, Note_off_c, 2, 60, 95
3, 114240, Note_on_c, 2, 62, 95
3, 114240, Note_on_c, 2, 60, 95
3, 115200, Note_off_c, 2, 62, 95
3, 115200, Note_off_c, 2, 60, 95
3, 115200, Note_on_c, 2, 50, 95
3, 115840, Note_off_c, 2, 50, 95
3, 115840, Note_on_c, 2, 54, 95
3, 116160, Note_off_c, 2, 54, 95
3, 116160, Note_on_c, 2, 62, 95
3, 116160, Note_on_c, 2, 60, 95
3, 117120, Note_off_c, 2, 62, 95
3, 117120, Note_off_c, 2, 60, 95
3, 117120, Note_on_c, 2, 62, 95
3, 117120, Note_on_c, 2, 60, 95
3, 118080, Note_off_c, 2, 62, 95
3, 118080, Note_off_c, 2, 60, 95
3, 118080, Note_on_c, 2, 43, 95
3, 118720, Note_off_c, 2, 43, 95
3, 118720, Note_on_c, 2, 47, 95
3, 119040, Note_off_c, 2, 47, 95
3, 119040, Note_on_c, 2, 59, 95
3, 119040, Note_on_c, 2, 55, 95
3, 119040, Note_on_c, 2, 50, 95
3, 120000, Note_off_c, 2, 59, 95
3, 120000, Note_off_c, 2, 55, 95
3, 120000, Note_off_c, 2, 50, 95
3, 120000, Note_on_c, 2, 59, 95
3, 120000, Note_on_c, 2, 55, 95
3, 120000, Note_on_c, 2, 50, 95
3, 120960, Note_off_c, 2, 59, 95
3, 120960, Note_off_c, 2, 55, 95
3, 120960, Note_off_c, 2, 50, 95
3, 120960, Note_on_c, 2, 43, 95
3, 121600, Note_off_c, 2, 43, 95
3, 121600, Note_on_c, 2, 47, 95
3, 121920, Note_off_c, 2, 47, 95
3, 121920, Note_on_c, 2, 59, 95
3, 121920, Note_on_c, 2, 55, 95
3, 121920, Note_on_c, 2, 50, 95
3, 122880, Note_off_c, 2, 59, 95
3, 122880, Note_off_c, 2, 55, 95
3, 122880, Note_off_c, 2, 50, 95
3, 122880, Note_on_c, 2, 59, 95
3, 122880, Note_on_c, 2, 55, 95
3, 122880, Note_on_c, 2, 50, 95
3, 123840, Note_off_c, 2, 59, 95
3, 123840, Note_off_c, 2, 55, 95
3, 123840, Note_off_c, 2, 50, 95
3, 123840, Note_on_c, 2, 48, 95
3, 124480, Note_off_c, 2, 48, 95
3, 124480, Note_on_c, 2, 52, 95
3, 124800, Note_off_c, 2, 52, 95
3, 124800, Note_on_c, 2, 60, 95
3, 124800, Note_on_c, 2, 55, 95
3, 125760, Note_off_c, 2, 60, 95
3, 125760, Note_off_c, 2, 55, 95
3, 125760, Note_on_c, 2, 60, 95
3, 125760, Note_on_c, 2, 55, 95
3, 126720, Note_off_c, 2, 60, 95
3, 126720, Note_off_c, 2, 55, 95
3, 126720, Note_on_c, 2, 43, 95
3, 127360, Note_off_c, 2, 43, 95
3, 127360, Note_on_c, 2, 47, 95
3, 127680, Note_off_c, 2, 47, 95
3, 127680, Note_on_c, 2, 59, 95
3, 127680, Note_on_c, 2, 55, 95
3, 127680, Note_on_c, 2, 50, 95
3, 128640, Note_off_c, 2, 59, 95
3, 128640, Note_off_c, 2, 55, 95
3, 128640, Note_off_c, 2, 50, 95
3, 128640, Note_on_c, 2, 59, 95
3, 128640, Note_on_c, 2, 55, 95
3, 128640, Note_on_c, 2, 50, 95
3, 129600, Note_off_c, 2, 59, 95
3, 129600, Note_off_c, 2, 55, 95
3, 129600, Note_off_c, 2, 50, 95
3, 129600, Note_on_c, 2, 43, 95
3, 130240, Note_off_c, 2, 43, 95
3, 130240, Note_on_c, 2, 47, 95
3, 130560, Note_off_c, 2, 47, 95
3, 130560, Note_on_c, 2, 59, 95
3, 130560, Note_on_c, 2, 55, 95
3, 130560, Note_on_c, 2, 50, 95
3, 131520, Note_off_c, 2, 59, 95
3, 131520, Note_off_c, 2, 55, 95
3, 131520, Note_off_c, 2, 50, 95
3, 131520, Note_on_c, 2, 59, 95
3, 131520, Note_on_c, 2, 55, 95
3, 131520, Note_on_c, 2, 50, 95
3, 132480, Note_off_c, 2, 59, 95
3, 132480, Note_off_c, 2, 55, 95
3, 132480, Note_off_c, 2, 50, 95
3, 132480, Note_on_c, 2, 50, 95
3, 133120, Note_off_c, 2, 50, 95
3, 133120, Note_on_c, 2, 54, 95
3, 133440, Note_off_c, 2, 54, 95
3, 133440, Note_on_c, 2, 62, 95
3, 133440, Note_on_c, 2, 60, 95
3, 134400, Note_off_c, 2, 62, 95
3, 134400, Note_off_c, 2, 60, 95
3, 134400, Note_on_c, 2, 62, 95
3, 134400, Note_on_c, 2, 60, 95
3, 135360, Note_off_c, 2, 62, 95
3, 135360, Note_off_c, 2, 60, 95
3, 135360, Note_on_c, 2, 59, 95
3, 135360, Note_on_c, 2, 55, 95
3, 135360, Note_on_c, 2, 50, 95
3, 135360, Note_on_c, 2, 47, 95
3, 135360, Note_on_c, 2, 43, 95
3, 137280, Note_off_c, 2, 59, 95
3, 137280, Note_off_c, 2, 55, 95
3, 137280, Note_off_c, 2, 50, 95
3, 137280, Note_off_c, 2, 47, 95
3, 137280, Note_off_c, 2, 43, 95
3, 137280, End_track
0, 0, End_of_file
