0, 0, Header, 1, 8, 960
1, 0, Start_track
1, 0, Control_c, 0, 101, 0
1, 0, Control_c, 0, 100, 0
1, 0, Control_c, 0, 6, 12
1, 0, Control_c, 0, 38, 0
1, 0, Control_c, 1, 101, 0
1, 0, Control_c, 1, 100, 0
1, 0, Control_c, 1, 6, 12
1, 0, Control_c, 1, 38, 0
1, 0, Control_c, 2, 101, 0
1, 0, Control_c, 2, 100, 0
1, 0, Control_c, 2, 6, 12
1, 0, Control_c, 2, 38, 0
1, 0, Control_c, 3, 101, 0
1, 0, Control_c, 3, 100, 0
1, 0, Control_c, 3, 6, 12
1, 0, Control_c, 3, 38, 0
1, 0, Control_c, 4, 101, 0
1, 0, Control_c, 4, 100, 0
1, 0, Control_c, 4, 6, 12
1, 0, Control_c, 4, 38, 0
1, 0, Control_c, 5, 101, 0
1, 0, Control_c, 5, 100, 0
1, 0, Control_c, 5, 6, 12
1, 0, Control_c, 5, 38, 0
1, 0, Control_c, 6, 101, 0
1, 0, Control_c, 6, 100, 0
1, 0, Control_c, 6, 6, 12
1, 0, Control_c, 6, 38, 0
1, 0, Control_c, 7, 101, 0
1, 0, Control_c, 7, 100, 0
1, 0, Control_c, 7, 6, 12
1, 0, Control_c, 7, 38, 0
1, 0, Control_c, 8, 101, 0
1, 0, Control_c, 8, 100, 0
1, 0, Control_c, 8, 6, 12
1, 0, Control_c, 8, 38, 0
1, 0, Control_c, 9, 101, 0
1, 0, Control_c, 9, 100, 0
1, 0, Control_c, 9, 6, 12
1, 0, Control_c, 9, 38, 0
1, 0, Control_c, 10, 101, 0
1, 0, Control_c, 10, 100, 0
1, 0, Control_c, 10, 6, 12
1, 0, Control_c, 10, 38, 0
1, 0, Control_c, 11, 101, 0
1, 0, Control_c, 11, 100, 0
1, 0, Control_c, 11, 6, 12
1, 0, Control_c, 11, 38, 0
1, 0, Control_c, 12, 101, 0
1, 0, Control_c, 12, 100, 0
1, 0, Control_c, 12, 6, 12
1, 0, Control_c, 12, 38, 0
1, 0, Control_c, 13, 101, 0
1, 0, Control_c, 13, 100, 0
1, 0, Control_c, 13, 6, 12
1, 0, Control_c, 13, 38, 0
1, 0, Control_c, 14, 101, 0
1, 0, Control_c, 14, 100, 0
1, 0, Control_c, 14, 6, 12
1, 0, Control_c, 14, 38, 0
1, 0, Control_c, 15, 101, 0
1, 0, Control_c, 15, 100, 0
1, 0, Control_c, 15, 6, 12
1, 0, Control_c, 15, 38, 0
1, 0, Time_signature, 12, 3, 12, 8
1, 0, Tempo, 638297
1, 80640, Time_signature, 6, 3, 12, 8
1, 83520, Time_signature, 12, 3, 12, 8
1, 135360, Time_signature, 6, 3, 12, 8
1, 135360, End_track
2, 0, Start_track
2, 0, Pitch_bend_c, 4, 8192
2, 0, Control_c, 4, 7, 111
2, 0, Control_c, 4, 10, 63
2, 0, Control_c, 4, 93, 0
2, 0, Control_c, 4, 91, 0
2, 0, Control_c, 4, 95, 0
2, 0, Control_c, 4, 92, 0
2, 0, Control_c, 4, 11, 127
2, 0, Program_c, 4, 67
2, 0, Control_c, 5, 7, 111
2, 0, Control_c, 5, 10, 63
2, 0, Control_c, 5, 93, 0
2, 0, Control_c, 5, 91, 0
2, 0, Control_c, 5, 95, 0
2, 0, Control_c, 5, 92, 0
2, 0, Control_c, 5, 11, 127
2, 0, Program_c, 5, 67
2, 41280, Note_on_c, 4, 64, 95
2, 41760, Note_off_c, 4, 64, 95
2, 41760, Note_on_c, 4, 64, 95
2, 42240, Note_off_c, 4, 64, 95
2, 42240, Note_on_c, 4, 62, 95
2, 42720, Note_off_c, 4, 62, 95
2, 42720, Note_on_c, 4, 64, 95
2, 43200, Note_off_c, 4, 64, 95
2, 43200, Note_on_c, 4, 62, 95
2, 43680, Note_off_c, 4, 62, 95
2, 43680, Note_on_c, 4, 57, 95
2, 44160, Note_off_c, 4, 57, 95
2, 44160, Note_on_c, 4, 57, 95
2, 44400, Note_off_c, 4, 57, 95
2, 44400, Note_on_c, 4, 59, 95
2, 44640, Note_off_c, 4, 59, 95
2, 47040, Note_on_c, 4, 52, 95
2, 47280, Note_off_c, 4, 52, 95
2, 47280, Note_on_c, 4, 52, 95
2, 47520, Note_off_c, 4, 52, 95
2, 47520, Note_on_c, 4, 55, 95
2, 48000, Note_off_c, 4, 55, 95
2, 48000, Note_on_c, 4, 57, 95
2, 48480, Note_off_c, 4, 57, 95
2, 48480, Note_on_c, 5, 57, 95
2, 48600, Pitch_bend_c, 5, 8448
2, 48720, Pitch_bend_c, 5, 8832
2, 48840, Pitch_bend_c, 5, 9216
2, 48960, Pitch_bend_c, 5, 9600
2, 48960, Pitch_bend_c, 5, 8192
2, 48960, Note_off_c, 5, 57, 95
2, 48960, Note_on_c, 4, 59, 95
2, 49440, Note_off_c, 4, 59, 95
2, 52800, Note_on_c, 4, 64, 95
2, 53280, Note_off_c, 4, 64, 95
2, 53280, Note_on_c, 4, 64, 95
2, 53760, Note_off_c, 4, 64, 95
2, 53760, Note_on_c, 4, 62, 95
2, 54240, Note_off_c, 4, 62, 95
2, 54240, Note_on_c, 4, 64, 95
2, 54480, Note_off_c, 4, 64, 95
2, 54480, Note_on_c, 4, 62, 95
2, 54720, Note_off_c, 4, 62, 95
2, 54720, Note_on_c, 4, 57, 95
2, 55200, Note_off_c, 4, 57, 95
2, 55200, Note_on_c, 5, 57, 95
2, 55320, Pitch_bend_c, 5, 8832
2, 55440, Pitch_bend_c, 5, 9600
2, 55440, Pitch_bend_c, 5, 8192
2, 55440, Note_off_c, 5, 57, 95
2, 55440, Note_on_c, 4, 59, 95
2, 55680, Note_off_c, 4, 59, 95
2, 58320, Note_on_c, 4, 52, 95
2, 58560, Note_off_c, 4, 52, 95
2, 58560, Note_on_c, 4, 52, 95
2, 58800, Note_off_c, 4, 52, 95
2, 58800, Note_on_c, 4, 52, 95
2, 59040, Note_off_c, 4, 52, 95
2, 59040, Note_on_c, 4, 55, 95
2, 59280, Note_off_c, 4, 55, 95
2, 59280, Note_on_c, 4, 57, 95
2, 59520, Note_off_c, 4, 57, 95
2, 59520, Note_on_c, 5, 57, 95
2, 59640, Pitch_bend_c, 5, 8832
2, 59760, Pitch_bend_c, 5, 9600
2, 59760, Pitch_bend_c, 5, 8192
2, 59760, Note_off_c, 5, 57, 95
2, 59760, Note_on_c, 4, 59, 95
2, 60000, Note_off_c, 4, 59, 95
2, 64800, Note_on_c, 4, 62, 95
2, 65760, Note_off_c, 4, 62, 95
2, 65760, Note_on_c, 4, 64, 70
2, 66240, Note_off_c, 4, 64, 70
2, 66720, Note_on_c, 4, 64, 95
2, 67200, Note_off_c, 4, 64, 95
2, 67200, Note_on_c, 4, 64, 95
2, 67440, Note_off_c, 4, 64, 95
2, 67440, Note_on_c, 4, 62, 95
2, 67680, Note_off_c, 4, 62, 95
2, 67680, Note_on_c, 4, 64, 95
2, 68160, Note_off_c, 4, 64, 95
2, 68160, Note_on_c, 4, 62, 95
2, 68640, Note_off_c, 4, 62, 95
2, 68640, Note_on_c, 5, 57, 95
2, 68760, Pitch_bend_c, 5, 8832
2, 68880, Pitch_bend_c, 5, 9600
2, 68880, Pitch_bend_c, 5, 8192
2, 68880, Note_off_c, 5, 57, 95
2, 68880, Note_on_c, 4, 59, 95
2, 69600, Note_off_c, 4, 59, 95
2, 71040, Note_on_c, 4, 59, 95
2, 71280, Note_off_c, 4, 59, 95
2, 71280, Note_on_c, 4, 57, 95
2, 71520, Note_off_c, 4, 57, 95
2, 71520, Note_on_c, 4, 55, 95
2, 71760, Note_off_c, 4, 55, 95
2, 71760, Note_on_c, 4, 57, 95
2, 72000, Note_off_c, 4, 57, 95
2, 72000, Note_on_c, 5, 57, 95
2, 72120, Pitch_bend_c, 5, 8832
2, 72240, Pitch_bend_c, 5, 9600
2, 72240, Pitch_bend_c, 5, 8192
2, 72240, Note_off_c, 5, 57, 95
2, 72240, Note_on_c, 4, 59, 95
2, 72480, Note_off_c, 4, 59, 95
2, 74160, Note_on_c, 4, 52, 95
2, 74400, Note_off_c, 4, 52, 95
2, 74400, Note_on_c, 4, 55, 95
2, 74640, Note_off_c, 4, 55, 95
2, 74640, Note_on_c, 4, 57, 95
2, 74880, Note_off_c, 4, 57, 95
2, 74880, Note_on_c, 4, 57, 95
2, 75120, Note_off_c, 4, 57, 95
2, 75120, Note_on_c, 4, 59, 95
2, 76320, Note_off_c, 4, 59, 95
2, 76800, Note_on_c, 4, 62, 95
2, 77280, Note_off_c, 4, 62, 95
2, 77280, Note_on_c, 4, 63, 70
2, 77760, Note_off_c, 4, 63, 70
2, 77760, Note_on_c, 4, 64, 70
2, 78240, Note_off_c, 4, 64, 70
2, 78240, Note_on_c, 4, 58, 95
2, 78720, Note_off_c, 4, 58, 95
2, 78720, Note_on_c, 4, 57, 95
2, 78960, Note_off_c, 4, 57, 95
2, 78960, Note_on_c, 4, 55, 95
2, 79200, Note_off_c, 4, 55, 95
2, 79200, Note_on_c, 4, 57, 95
2, 79680, Note_off_c, 4, 57, 95
2, 79920, Note_on_c, 4, 52, 95
2, 80160, Note_off_c, 4, 52, 95
2, 80160, Note_on_c, 4, 55, 95
2, 80400, Note_off_c, 4, 55, 95
2, 80400, Note_on_c, 4, 57, 95
2, 80640, Note_off_c, 4, 57, 95
2, 80640, Note_on_c, 4, 57, 95
2, 81120, Note_off_c, 4, 57, 95
2, 81120, Note_on_c, 4, 58, 95
2, 82560, Note_off_c, 4, 58, 95
2, 82560, Note_on_c, 4, 57, 95
2, 82920, Note_on_c, 5, 55, 95
2, 83040, Note_off_c, 4, 57, 95
2, 83040, Note_off_c, 5, 55, 95
2, 83040, Note_on_c, 5, 57, 95
2, 83520, Note_off_c, 5, 57, 95
2, 83520, Note_on_c, 4, 52, 95
2, 84480, Note_off_c, 4, 52, 95
2, 96000, Note_on_c, 4, 64, 95
2, 96480, Note_off_c, 4, 64, 95
2, 96480, Note_on_c, 4, 64, 95
2, 96960, Note_off_c, 4, 64, 95
2, 96960, Note_on_c, 4, 62, 95
2, 97440, Note_off_c, 4, 62, 95
2, 97440, Note_on_c, 4, 64, 95
2, 97920, Note_off_c, 4, 64, 95
2, 97920, Note_on_c, 4, 62, 95
2, 98400, Note_off_c, 4, 62, 95
2, 98400, Note_on_c, 4, 57, 95
2, 98880, Note_off_c, 4, 57, 95
2, 98880, Note_on_c, 4, 57, 95
2, 99120, Note_off_c, 4, 57, 95
2, 99120, Note_on_c, 4, 59, 95
2, 99360, Note_off_c, 4, 59, 95
2, 101760, Note_on_c, 4, 52, 95
2, 102000, Note_off_c, 4, 52, 95
2, 102000, Note_on_c, 4, 52, 95
2, 102240, Note_off_c, 4, 52, 95
2, 102240, Note_on_c, 4, 55, 95
2, 102720, Note_off_c, 4, 55, 95
2, 102720, Note_on_c, 4, 57, 95
2, 103200, Note_off_c, 4, 57, 95
2, 103200, Note_on_c, 5, 57, 95
2, 103320, Pitch_bend_c, 5, 8448
2, 103440, Pitch_bend_c, 5, 8832
2, 103560, Pitch_bend_c, 5, 9216
2, 103680, Pitch_bend_c, 5, 9600
2, 103680, Pitch_bend_c, 5, 8192
2, 103680, Note_off_c, 5, 57, 95
2, 103680, Note_on_c, 4, 59, 95
2, 104160, Note_off_c, 4, 59, 95
2, 107520, Note_on_c, 4, 64, 95
2, 108000, Note_off_c, 4, 64, 95
2, 108000, Note_on_c, 4, 64, 95
2, 108480, Note_off_c, 4, 64, 95
2, 108480, Note_on_c, 4, 62, 95
2, 108960, Note_off_c, 4, 62, 95
2, 108960, Note_on_c, 4, 64, 95
2, 109200, Note_off_c, 4, 64, 95
2, 109200, Note_on_c, 4, 62, 95
2, 109440, Note_off_c, 4, 62, 95
2, 109440, Note_on_c, 4, 57, 95
2, 109920, Note_off_c, 4, 57, 95
2, 109920, Note_on_c, 5, 57, 95
2, 110040, Pitch_bend_c, 5, 8832
2, 110160, Pitch_bend_c, 5, 9600
2, 110160, Pitch_bend_c, 5, 8192
2, 110160, Note_off_c, 5, 57, 95
2, 110160, Note_on_c, 4, 59, 95
2, 110400, Note_off_c, 4, 59, 95
2, 113040, Note_on_c, 4, 52, 95
2, 113280, Note_off_c, 4, 52, 95
2, 113280, Note_on_c, 4, 52, 95
2, 113520, Note_off_c, 4, 52, 95
2, 113520, Note_on_c, 4, 52, 95
2, 113760, Note_off_c, 4, 52, 95
2, 113760, Note_on_c, 4, 55, 95
2, 114000, Note_off_c, 4, 55, 95
2, 114000, Note_on_c, 4, 57, 95
2, 114240, Note_off_c, 4, 57, 95
2, 114240, Note_on_c, 5, 57, 95
2, 114360, Pitch_bend_c, 5, 8832
2, 114480, Pitch_bend_c, 5, 9600
2, 114480, Pitch_bend_c, 5, 8192
2, 114480, Note_off_c, 5, 57, 95
2, 114480, Note_on_c, 4, 59, 95
2, 114720, Note_off_c, 4, 59, 95
2, 119520, Note_on_c, 4, 62, 95
2, 120480, Note_off_c, 4, 62, 95
2, 120480, Note_on_c, 4, 64, 70
2, 120960, Note_off_c, 4, 64, 70
2, 121440, Note_on_c, 4, 64, 95
2, 121920, Note_off_c, 4, 64, 95
2, 121920, Note_on_c, 4, 64, 95
2, 122160, Note_off_c, 4, 64, 95
2, 122160, Note_on_c, 4, 62, 95
2, 122400, Note_off_c, 4, 62, 95
2, 122400, Note_on_c, 4, 64, 95
2, 122880, Note_off_c, 4, 64, 95
2, 122880, Note_on_c, 4, 62, 95
2, 123360, Note_off_c, 4, 62, 95
2, 123360, Note_on_c, 5, 57, 95
2, 123480, Pitch_bend_c, 5, 8832
2, 123600, Pitch_bend_c, 5, 9600
2, 123600, Pitch_bend_c, 5, 8192
2, 123600, Note_off_c, 5, 57, 95
2, 123600, Note_on_c, 4, 59, 95
2, 124320, Note_off_c, 4, 59, 95
2, 125760, Note_on_c, 4, 59, 95
2, 126000, Note_off_c, 4, 59, 95
2, 126000, Note_on_c, 4, 57, 95
2, 126240, Note_off_c, 4, 57, 95
2, 126240, Note_on_c, 4, 55, 95
2, 126480, Note_off_c, 4, 55, 95
2, 126480, Note_on_c, 4, 57, 95
2, 126720, Note_off_c, 4, 57, 95
2, 126720, Note_on_c, 5, 57, 95
2, 126840, Pitch_bend_c, 5, 8832
2, 126960, Pitch_bend_c, 5, 9600
2, 126960, Pitch_bend_c, 5, 8192
2, 126960, Note_off_c, 5, 57, 95
2, 126960, Note_on_c, 4, 59, 95
2, 127200, Note_off_c, 4, 59, 95
2, 128880, Note_on_c, 4, 52, 95
2, 129120, Note_off_c, 4, 52, 95
2, 129120, Note_on_c, 4, 55, 95
2, 129360, Note_off_c, 4, 55, 95
2, 129360, Note_on_c, 4, 57, 95
2, 129600, Note_off_c, 4, 57, 95
2, 129600, Note_on_c, 4, 57, 95
2, 129840, Note_off_c, 4, 57, 95
2, 129840, Note_on_c, 4, 59, 95
2, 131040, Note_off_c, 4, 59, 95
2, 131520, Note_on_c, 4, 62, 95
2, 132000, Note_off_c, 4, 62, 95
2, 132000, Note_on_c, 4, 63, 70
2, 132480, Note_off_c, 4, 63, 70
2, 132480, Note_on_c, 4, 64, 70
2, 132960, Note_off_c, 4, 64, 70
2, 132960, Note_on_c, 4, 58, 95
2, 133440, Note_off_c, 4, 58, 95
2, 133440, Note_on_c, 4, 57, 95
2, 133680, Note_off_c, 4, 57, 95
2, 133680, Note_on_c, 4, 55, 95
2, 133920, Note_off_c, 4, 55, 95
2, 133920, Note_on_c, 4, 57, 95
2, 134400, Note_off_c, 4, 57, 95
2, 134640, Note_on_c, 4, 52, 95
2, 134880, Note_off_c, 4, 52, 95
2, 134880, Note_on_c, 4, 55, 95
2, 135120, Note_off_c, 4, 55, 95
2, 135120, Note_on_c, 4, 57, 95
2, 135360, Note_off_c, 4, 57, 95
2, 135360, Note_on_c, 4, 57, 95
2, 135840, Note_off_c, 4, 57, 95
2, 135840, Note_on_c, 4, 58, 95
2, 137280, Note_off_c, 4, 58, 95
2, 137280, Note_on_c, 4, 57, 95
2, 137640, Note_on_c, 5, 55, 95
2, 137760, Note_off_c, 4, 57, 95
2, 137760, Note_off_c, 5, 55, 95
2, 137760, Note_on_c, 5, 57, 95
2, 138240, Note_off_c, 5, 57, 95
2, 138240, Note_on_c, 4, 52, 95
2, 139200, Note_off_c, 4, 52, 95
2, 277440, Note_on_c, 4, 64, 95
2, 277920, Note_off_c, 4, 64, 95
2, 277920, Note_on_c, 4, 64, 95
2, 278400, Note_off_c, 4, 64, 95
2, 278400, Note_on_c, 4, 62, 95
2, 278880, Note_off_c, 4, 62, 95
2, 278880, Note_on_c, 4, 64, 95
2, 279360, Note_off_c, 4, 64, 95
2, 279360, Note_on_c, 4, 62, 95
2, 279840, Note_off_c, 4, 62, 95
2, 279840, Note_on_c, 4, 57, 95
2, 280320, Note_off_c, 4, 57, 95
2, 280320, Note_on_c, 4, 57, 95
2, 280560, Note_off_c, 4, 57, 95
2, 280560, Note_on_c, 4, 59, 95
2, 280800, Note_off_c, 4, 59, 95
2, 283200, Note_on_c, 4, 52, 95
2, 283440, Note_off_c, 4, 52, 95
2, 283440, Note_on_c, 4, 52, 95
2, 283680, Note_off_c, 4, 52, 95
2, 283680, Note_on_c, 4, 55, 95
2, 284160, Note_off_c, 4, 55, 95
2, 284160, Note_on_c, 4, 57, 95
2, 284640, Note_off_c, 4, 57, 95
2, 284640, Note_on_c, 5, 57, 95
2, 284760, Pitch_bend_c, 5, 8448
2, 284880, Pitch_bend_c, 5, 8832
2, 285000, Pitch_bend_c, 5, 9216
2, 285120, Pitch_bend_c, 5, 9600
2, 285120, Pitch_bend_c, 5, 8192
2, 285120, Note_off_c, 5, 57, 95
2, 285120, Note_on_c, 4, 59, 95
2, 285600, Note_off_c, 4, 59, 95
2, 288960, Note_on_c, 4, 64, 95
2, 289440, Note_off_c, 4, 64, 95
2, 289440, Note_on_c, 4, 64, 95
2, 289920, Note_off_c, 4, 64, 95
2, 289920, Note_on_c, 4, 62, 95
2, 290400, Note_off_c, 4, 62, 95
2, 290400, Note_on_c, 4, 64, 95
2, 290640, Note_off_c, 4, 64, 95
2, 290640, Note_on_c, 4, 62, 95
2, 290880, Note_off_c, 4, 62, 95
2, 290880, Note_on_c, 4, 57, 95
2, 291360, Note_off_c, 4, 57, 95
2, 291360, Note_on_c, 5, 57, 95
2, 291480, Pitch_bend_c, 5, 8832
2, 291600, Pitch_bend_c, 5, 9600
2, 291600, Pitch_bend_c, 5, 8192
2, 291600, Note_off_c, 5, 57, 95
2, 291600, Note_on_c, 4, 59, 95
2, 291840, Note_off_c, 4, 59, 95
2, 294480, Note_on_c, 4, 52, 95
2, 294720, Note_off_c, 4, 52, 95
2, 294720, Note_on_c, 4, 52, 95
2, 294960, Note_off_c, 4, 52, 95
2, 294960, Note_on_c, 4, 52, 95
2, 295200, Note_off_c, 4, 52, 95
2, 295200, Note_on_c, 4, 55, 95
2, 295440, Note_off_c, 4, 55, 95
2, 295440, Note_on_c, 4, 57, 95
2, 295680, Note_off_c, 4, 57, 95
2, 295680, Note_on_c, 5, 57, 95
2, 295800, Pitch_bend_c, 5, 8832
2, 295920, Pitch_bend_c, 5, 9600
2, 295920, Pitch_bend_c, 5, 8192
2, 295920, Note_off_c, 5, 57, 95
2, 295920, Note_on_c, 4, 59, 95
2, 296160, Note_off_c, 4, 59, 95
2, 300960, Note_on_c, 4, 62, 95
2, 301920, Note_off_c, 4, 62, 95
2, 301920, Note_on_c, 4, 64, 70
2, 302400, Note_off_c, 4, 64, 70
2, 302880, Note_on_c, 4, 64, 95
2, 303360, Note_off_c, 4, 64, 95
2, 303360, Note_on_c, 4, 64, 95
2, 303600, Note_off_c, 4, 64, 95
2, 303600, Note_on_c, 4, 62, 95
2, 303840, Note_off_c, 4, 62, 95
2, 303840, Note_on_c, 4, 64, 95
2, 304320, Note_off_c, 4, 64, 95
2, 304320, Note_on_c, 4, 62, 95
2, 304800, Note_off_c, 4, 62, 95
2, 304800, Note_on_c, 5, 57, 95
2, 304920, Pitch_bend_c, 5, 8832
2, 305040, Pitch_bend_c, 5, 9600
2, 305040, Pitch_bend_c, 5, 8192
2, 305040, Note_off_c, 5, 57, 95
2, 305040, Note_on_c, 4, 59, 95
2, 305760, Note_off_c, 4, 59, 95
2, 307200, Note_on_c, 4, 59, 95
2, 307440, Note_off_c, 4, 59, 95
2, 307440, Note_on_c, 4, 57, 95
2, 307680, Note_off_c, 4, 57, 95
2, 307680, Note_on_c, 4, 55, 95
2, 307920, Note_off_c, 4, 55, 95
2, 307920, Note_on_c, 4, 57, 95
2, 308160, Note_off_c, 4, 57, 95
2, 308160, Note_on_c, 5, 57, 95
2, 308280, Pitch_bend_c, 5, 8832
2, 308400, Pitch_bend_c, 5, 9600
2, 308400, Pitch_bend_c, 5, 8192
2, 308400, Note_off_c, 5, 57, 95
2, 308400, Note_on_c, 4, 59, 95
2, 308640, Note_off_c, 4, 59, 95
2, 310320, Note_on_c, 4, 52, 95
2, 310560, Note_off_c, 4, 52, 95
2, 310560, Note_on_c, 4, 55, 95
2, 310800, Note_off_c, 4, 55, 95
2, 310800, Note_on_c, 4, 57, 95
2, 311040, Note_off_c, 4, 57, 95
2, 311040, Note_on_c, 4, 57, 95
2, 311280, Note_off_c, 4, 57, 95
2, 311280, Note_on_c, 4, 59, 95
2, 312480, Note_off_c, 4, 59, 95
2, 312960, Note_on_c, 4, 62, 95
2, 313440, Note_off_c, 4, 62, 95
2, 313440, Note_on_c, 4, 63, 70
2, 313920, Note_off_c, 4, 63, 70
2, 313920, Note_on_c, 4, 64, 70
2, 314400, Note_off_c, 4, 64, 70
2, 314400, Note_on_c, 4, 58, 95
2, 314880, Note_off_c, 4, 58, 95
2, 314880, Note_on_c, 4, 57, 95
2, 315120, Note_off_c, 4, 57, 95
2, 315120, Note_on_c, 4, 55, 95
2, 315360, Note_off_c, 4, 55, 95
2, 315360, Note_on_c, 4, 57, 95
2, 315840, Note_off_c, 4, 57, 95
2, 323280, Note_on_c, 4, 59, 95
2, 323520, Note_off_c, 4, 59, 95
2, 323520, Note_on_c, 4, 59, 95
2, 323760, Note_off_c, 4, 59, 95
2, 323760, Note_on_c, 4, 59, 95
2, 324000, Note_off_c, 4, 59, 95
2, 324000, Note_on_c, 4, 62, 95
2, 324480, Note_off_c, 4, 62, 95
2, 324480, Note_on_c, 5, 63, 95
2, 324600, Pitch_bend_c, 5, 8320
2, 324720, Pitch_bend_c, 5, 8448
2, 324840, Pitch_bend_c, 5, 8704
2, 324960, Pitch_bend_c, 5, 8832
2, 324960, Pitch_bend_c, 5, 8192
2, 324960, Note_off_c, 5, 63, 95
2, 324960, Note_on_c, 4, 64, 95
2, 325440, Note_off_c, 4, 64, 95
2, 325440, Note_on_c, 4, 59, 95
2, 325920, Note_off_c, 4, 59, 95
2, 325920, Note_on_c, 4, 57, 95
2, 326160, Note_off_c, 4, 57, 95
2, 326160, Note_on_c, 4, 55, 95
2, 326400, Note_off_c, 4, 55, 95
2, 326400, Note_on_c, 4, 57, 95
2, 327360, Note_off_c, 4, 57, 95
2, 334800, Note_on_c, 4, 59, 95
2, 335040, Note_off_c, 4, 59, 95
2, 335040, Note_on_c, 4, 59, 95
2, 335280, Note_off_c, 4, 59, 95
2, 335280, Note_on_c, 4, 59, 95
2, 335520, Note_off_c, 4, 59, 95
2, 335520, Note_on_c, 4, 62, 95
2, 336000, Note_off_c, 4, 62, 95
2, 336000, Note_on_c, 5, 63, 95
2, 336120, Pitch_bend_c, 5, 8320
2, 336240, Pitch_bend_c, 5, 8448
2, 336360, Pitch_bend_c, 5, 8704
2, 336480, Pitch_bend_c, 5, 8832
2, 336480, Pitch_bend_c, 5, 8192
2, 336480, Note_off_c, 5, 63, 95
2, 336480, Note_on_c, 4, 64, 95
2, 336960, Note_off_c, 4, 64, 95
2, 336960, Note_on_c, 4, 59, 95
2, 337440, Note_off_c, 4, 59, 95
2, 337440, Note_on_c, 4, 57, 95
2, 337680, Note_off_c, 4, 57, 95
2, 337680, Note_on_c, 4, 55, 95
2, 337920, Note_off_c, 4, 55, 95
2, 337920, Note_on_c, 4, 57, 95
2, 338880, Note_off_c, 4, 57, 95
2, 339120, Note_on_c, 4, 52, 95
2, 339360, Note_off_c, 4, 52, 95
2, 339360, Note_on_c, 4, 55, 95
2, 339600, Note_off_c, 4, 55, 95
2, 339600, Note_on_c, 4, 57, 95
2, 339840, Note_off_c, 4, 57, 95
2, 339840, Note_on_c, 4, 57, 95
2, 340800, Note_off_c, 4, 57, 95
2, 340800, Note_on_c, 4, 58, 95
2, 343680, Note_off_c, 4, 58, 95
2, 343680, Note_on_c, 5, 55, 95
2, 343800, Pitch_bend_c, 5, 8832
2, 343920, Pitch_bend_c, 5, 9600
2, 343920, Pitch_bend_c, 5, 8192
2, 343920, Note_off_c, 5, 55, 95
2, 343920, Note_on_c, 4, 57, 95
2, 344160, Note_off_c, 4, 57, 95
2, 344160, Note_on_c, 4, 55, 95
2, 344640, Note_off_c, 4, 55, 95
2, 344640, Note_on_c, 4, 57, 95
2, 345120, Note_off_c, 4, 57, 95
2, 345120, Note_on_c, 4, 52, 95
2, 348480, Note_off_c, 4, 52, 95
2, 348480, End_track
3, 0, Start_track
3, 0, Pitch_bend_c, 11, 8192
3, 0, Control_c, 11, 7, 71
3, 0, Control_c, 11, 10, 63
3, 0, Control_c, 11, 93, 0
3, 0, Control_c, 11, 91, 0
3, 0, Control_c, 11, 95, 0
3, 0, Control_c, 11, 92, 0
3, 0, Control_c, 11, 11, 127
3, 0, Program_c, 11, 22
3, 0, Control_c, 12, 7, 71
3, 0, Control_c, 12, 10, 63
3, 0, Control_c, 12, 93, 0
3, 0, Control_c, 12, 91, 0
3, 0, Control_c, 12, 95, 0
3, 0, Control_c, 12, 92, 0
3, 0, Control_c, 12, 11, 127
3, 0, Program_c, 12, 22
3, 28800, Note_on_c, 12, 71, 95
3, 28800, Note_on_c, 12, 68, 95
3, 28800, Note_on_c, 12, 64, 95
3, 28920, Pitch_bend_c, 12, 8192
3, 29040, Pitch_bend_c, 12, 8192
3, 29160, Pitch_bend_c, 12, 8192
3, 29280, Pitch_bend_c, 12, 8192
3, 29400, Pitch_bend_c, 12, 8192
3, 29520, Pitch_bend_c, 12, 8192
3, 29640, Pitch_bend_c, 12, 8192
3, 29760, Pitch_bend_c, 12, 8192
3, 29880, Pitch_bend_c, 12, 8192
3, 30000, Pitch_bend_c, 12, 8192
3, 30120, Pitch_bend_c, 12, 8192
3, 30240, Note_off_c, 12, 71, 95
3, 30240, Note_off_c, 12, 68, 95
3, 30240, Pitch_bend_c, 12, 8192
3, 30240, Pitch_bend_c, 12, 8192
3, 30240, Note_off_c, 12, 64, 95
3, 30240, Note_on_c, 11, 64, 95
3, 30480, Note_off_c, 11, 64, 95
3, 30480, Note_on_c, 11, 62, 95
3, 30720, Note_off_c, 11, 62, 95
3, 30720, Note_on_c, 11, 59, 95
3, 31200, Note_off_c, 11, 59, 95
3, 31200, Note_on_c, 12, 67, 95
3, 31360, Pitch_bend_c, 12, 8192
3, 31520, Pitch_bend_c, 12, 8320
3, 31680, Pitch_bend_c, 12, 8192
3, 31840, Pitch_bend_c, 12, 8320
3, 32000, Pitch_bend_c, 12, 8192
3, 32160, Pitch_bend_c, 12, 8320
3, 32160, Pitch_bend_c, 12, 8192
3, 32160, Note_off_c, 12, 67, 95
3, 32640, Note_on_c, 11, 69, 95
3, 32640, Note_on_c, 11, 66, 95
3, 33120, Note_off_c, 11, 69, 95
3, 33120, Note_off_c, 11, 66, 95
3, 33120, Note_on_c, 11, 70, 95
3, 33120, Note_on_c, 11, 67, 95
3, 33600, Note_off_c, 11, 70, 95
3, 33600, Note_off_c, 11, 67, 95
3, 33600, Note_on_c, 11, 71, 95
3, 33600, Note_on_c, 11, 68, 95
3, 34080, Note_off_c, 11, 71, 95
3, 34080, Note_off_c, 11, 68, 95
3, 34080, Note_on_c, 11, 74, 95
3, 34080, Note_on_c, 11, 71, 95
3, 34200, Note_off_c, 11, 74, 95
3, 34200, Note_on_c, 11, 74, 95
3, 34200, Note_off_c, 11, 71, 95
3, 34200, Note_on_c, 11, 71, 95
3, 34320, Note_off_c, 11, 74, 95
3, 34320, Note_on_c, 11, 74, 95
3, 34320, Note_off_c, 11, 71, 95
3, 34320, Note_on_c, 11, 71, 95
3, 34440, Note_off_c, 11, 74, 95
3, 34440, Note_on_c, 11, 74, 95
3, 34440, Note_off_c, 11, 71, 95
3, 34440, Note_on_c, 11, 71, 95
3, 34559, Note_off_c, 11, 74, 95
3, 34559, Note_off_c, 11, 71, 95
3, 34560, Note_on_c, 12, 71, 95
3, 34560, Note_on_c, 12, 68, 95
3, 34560, Note_on_c, 12, 64, 95
3, 34680, Pitch_bend_c, 12, 8192
3, 34800, Pitch_bend_c, 12, 8192
3, 34920, Pitch_bend_c, 12, 8192
3, 35040, Pitch_bend_c, 12, 8192
3, 35160, Pitch_bend_c, 12, 8192
3, 35280, Pitch_bend_c, 12, 8192
3, 35400, Pitch_bend_c, 12, 8192
3, 35520, Note_off_c, 12, 71, 95
3, 35520, Note_off_c, 12, 68, 95
3, 35520, Pitch_bend_c, 12, 8192
3, 35520, Pitch_bend_c, 12, 8192
3, 35520, Note_off_c, 12, 64, 95
3, 35520, Note_on_c, 11, 64, 95
3, 36000, Note_off_c, 11, 64, 95
3, 36000, Note_on_c, 11, 64, 95
3, 36240, Note_off_c, 11, 64, 95
3, 36240, Note_on_c, 11, 62, 95
3, 36480, Note_off_c, 11, 62, 95
3, 36480, Note_on_c, 11, 59, 95
3, 36960, Note_off_c, 11, 59, 95
3, 36960, Note_on_c, 12, 67, 95
3, 37120, Pitch_bend_c, 12, 8192
3, 37280, Pitch_bend_c, 12, 8320
3, 37440, Pitch_bend_c, 12, 8192
3, 37600, Pitch_bend_c, 12, 8320
3, 37760, Pitch_bend_c, 12, 8192
3, 37920, Pitch_bend_c, 12, 8320
3, 37920, Pitch_bend_c, 12, 8192
3, 37920, Note_off_c, 12, 67, 95
3, 38400, Note_on_c, 11, 69, 95
3, 38400, Note_on_c, 11, 66, 95
3, 38880, Note_off_c, 11, 69, 95
3, 38880, Note_off_c, 11, 66, 95
3, 38880, Note_on_c, 11, 70, 95
3, 38880, Note_on_c, 11, 67, 95
3, 39360, Note_off_c, 11, 70, 95
3, 39360, Note_off_c, 11, 67, 95
3, 39360, Note_on_c, 11, 71, 95
3, 39360, Note_on_c, 11, 68, 95
3, 39840, Note_off_c, 11, 71, 95
3, 39840, Note_off_c, 11, 68, 95
3, 39840, Note_on_c, 11, 74, 95
3, 39840, Note_on_c, 11, 71, 95
3, 40320, Note_off_c, 11, 74, 95
3, 40320, Note_off_c, 11, 71, 95
3, 149760, Note_on_c, 12, 71, 95
3, 149760, Note_on_c, 12, 68, 95
3, 149760, Note_on_c, 12, 64, 95
3, 149880, Pitch_bend_c, 12, 8192
3, 150000, Pitch_bend_c, 12, 8192
3, 150120, Pitch_bend_c, 12, 8192
3, 150240, Pitch_bend_c, 12, 8192
3, 150360, Pitch_bend_c, 12, 8192
3, 150480, Pitch_bend_c, 12, 8192
3, 150600, Pitch_bend_c, 12, 8192
3, 150720, Pitch_bend_c, 12, 8192
3, 150840, Pitch_bend_c, 12, 8192
3, 150960, Pitch_bend_c, 12, 8192
3, 151080, Pitch_bend_c, 12, 8192
3, 151200, Note_off_c, 12, 71, 95
3, 151200, Note_off_c, 12, 68, 95
3, 151200, Pitch_bend_c, 12, 8192
3, 151200, Pitch_bend_c, 12, 8192
3, 151200, Note_off_c, 12, 64, 95
3, 151200, Note_on_c, 11, 64, 95
3, 151440, Note_off_c, 11, 64, 95
3, 151440, Note_on_c, 11, 62, 95
3, 151680, Note_off_c, 11, 62, 95
3, 151680, Note_on_c, 11, 59, 95
3, 152160, Note_off_c, 11, 59, 95
3, 152160, Note_on_c, 12, 67, 95
3, 152320, Pitch_bend_c, 12, 8192
3, 152480, Pitch_bend_c, 12, 8320
3, 152640, Pitch_bend_c, 12, 8192
3, 152800, Pitch_bend_c, 12, 8320
3, 152960, Pitch_bend_c, 12, 8192
3, 153120, Pitch_bend_c, 12, 8320
3, 153120, Pitch_bend_c, 12, 8192
3, 153120, Note_off_c, 12, 67, 95
3, 153600, Note_on_c, 11, 69, 95
3, 153600, Note_on_c, 11, 66, 95
3, 154080, Note_off_c, 11, 69, 95
3, 154080, Note_off_c, 11, 66, 95
3, 154080, Note_on_c, 11, 70, 95
3, 154080, Note_on_c, 11, 67, 95
3, 154560, Note_off_c, 11, 70, 95
3, 154560, Note_off_c, 11, 67, 95
3, 154560, Note_on_c, 11, 71, 95
3, 154560, Note_on_c, 11, 68, 95
3, 155040, Note_off_c, 11, 71, 95
3, 155040, Note_off_c, 11, 68, 95
3, 155040, Note_on_c, 11, 74, 95
3, 155040, Note_on_c, 11, 71, 95
3, 155160, Note_off_c, 11, 74, 95
3, 155160, Note_on_c, 11, 74, 95
3, 155160, Note_off_c, 11, 71, 95
3, 155160, Note_on_c, 11, 71, 95
3, 155280, Note_off_c, 11, 74, 95
3, 155280, Note_on_c, 11, 74, 95
3, 155280, Note_off_c, 11, 71, 95
3, 155280, Note_on_c, 11, 71, 95
3, 155400, Note_off_c, 11, 74, 95
3, 155400, Note_on_c, 11, 74, 95
3, 155400, Note_off_c, 11, 71, 95
3, 155400, Note_on_c, 11, 71, 95
3, 155519, Note_off_c, 11, 74, 95
3, 155519, Note_off_c, 11, 71, 95
3, 155520, Note_on_c, 12, 71, 95
3, 155520, Note_on_c, 12, 68, 95
3, 155520, Note_on_c, 12, 64, 95
3, 155640, Pitch_bend_c, 12, 8192
3, 155760, Pitch_bend_c, 12, 8192
3, 155880, Pitch_bend_c, 12, 8192
3, 156000, Pitch_bend_c, 12, 8192
3, 156120, Pitch_bend_c, 12, 8192
3, 156240, Pitch_bend_c, 12, 8192
3, 156360, Pitch_bend_c, 12, 8192
3, 156480, Note_off_c, 12, 71, 95
3, 156480, Note_off_c, 12, 68, 95
3, 156480, Pitch_bend_c, 12, 8192
3, 156480, Pitch_bend_c, 12, 8192
3, 156480, Note_off_c, 12, 64, 95
3, 156480, Note_on_c, 11, 64, 95
3, 156960, Note_off_c, 11, 64, 95
3, 156960, Note_on_c, 11, 64, 95
3, 157200, Note_off_c, 11, 64, 95
3, 157200, Note_on_c, 11, 62, 95
3, 157440, Note_off_c, 11, 62, 95
3, 157440, Note_on_c, 11, 59, 95
3, 157920, Note_off_c, 11, 59, 95
3, 157920, Note_on_c, 12, 67, 95
3, 158080, Pitch_bend_c, 12, 8192
3, 158240, Pitch_bend_c, 12, 8320
3, 158400, Pitch_bend_c, 12, 8192
3, 158560, Pitch_bend_c, 12, 8320
3, 158720, Pitch_bend_c, 12, 8192
3, 158880, Pitch_bend_c, 12, 8320
3, 158880, Pitch_bend_c, 12, 8192
3, 158880, Note_off_c, 12, 67, 95
3, 159360, Note_on_c, 11, 69, 95
3, 159360, Note_on_c, 11, 66, 95
3, 159840, Note_off_c, 11, 69, 95
3, 159840, Note_off_c, 11, 66, 95
3, 159840, Note_on_c, 11, 70, 95
3, 159840, Note_on_c, 11, 67, 95
3, 160320, Note_off_c, 11, 70, 95
3, 160320, Note_off_c, 11, 67, 95
3, 160320, Note_on_c, 11, 71, 95
3, 160320, Note_on_c, 11, 68, 95
3, 160800, Note_off_c, 11, 71, 95
3, 160800, Note_off_c, 11, 68, 95
3, 160800, Note_on_c, 11, 74, 95
3, 160800, Note_on_c, 11, 71, 95
3, 161280, Note_off_c, 11, 74, 95
3, 161280, Note_off_c, 11, 71, 95
3, 184320, Note_on_c, 12, 71, 95
3, 184320, Note_on_c, 12, 68, 95
3, 184320, Note_on_c, 12, 64, 95
3, 184440, Pitch_bend_c, 12, 8192
3, 184560, Pitch_bend_c, 12, 8192
3, 184680, Pitch_bend_c, 12, 8192
3, 184800, Pitch_bend_c, 12, 8192
3, 184920, Pitch_bend_c, 12, 8192
3, 185040, Pitch_bend_c, 12, 8192
3, 185160, Pitch_bend_c, 12, 8192
3, 185280, Pitch_bend_c, 12, 8192
3, 185400, Pitch_bend_c, 12, 8192
3, 185520, Pitch_bend_c, 12, 8192
3, 185640, Pitch_bend_c, 12, 8192
3, 185760, Note_off_c, 12, 71, 95
3, 185760, Note_off_c, 12, 68, 95
3, 185760, Pitch_bend_c, 12, 8192
3, 185760, Pitch_bend_c, 12, 8192
3, 185760, Note_off_c, 12, 64, 95
3, 185760, Note_on_c, 11, 64, 95
3, 186000, Note_off_c, 11, 64, 95
3, 186000, Note_on_c, 11, 62, 95
3, 186240, Note_off_c, 11, 62, 95
3, 186240, Note_on_c, 11, 59, 95
3, 186720, Note_off_c, 11, 59, 95
3, 186720, Note_on_c, 12, 67, 95
3, 186880, Pitch_bend_c, 12, 8192
3, 187040, Pitch_bend_c, 12, 8320
3, 187200, Pitch_bend_c, 12, 8192
3, 187360, Pitch_bend_c, 12, 8320
3, 187520, Pitch_bend_c, 12, 8192
3, 187680, Pitch_bend_c, 12, 8320
3, 187680, Pitch_bend_c, 12, 8192
3, 187680, Note_off_c, 12, 67, 95
3, 188160, Note_on_c, 11, 69, 95
3, 188160, Note_on_c, 11, 66, 95
3, 188640, Note_off_c, 11, 69, 95
3, 188640, Note_off_c, 11, 66, 95
3, 188640, Note_on_c, 11, 70, 95
3, 188640, Note_on_c, 11, 67, 95
3, 189120, Note_off_c, 11, 70, 95
3, 189120, Note_off_c, 11, 67, 95
3, 189120, Note_on_c, 11, 71, 95
3, 189120, Note_on_c, 11, 68, 95
3, 189600, Note_off_c, 11, 71, 95
3, 189600, Note_off_c, 11, 68, 95
3, 189600, Note_on_c, 11, 74, 95
3, 189600, Note_on_c, 11, 71, 95
3, 189720, Note_off_c, 11, 74, 95
3, 189720, Note_on_c, 11, 74, 95
3, 189720, Note_off_c, 11, 71, 95
3, 189720, Note_on_c, 11, 71, 95
3, 189840, Note_off_c, 11, 74, 95
3, 189840, Note_on_c, 11, 74, 95
3, 189840, Note_off_c, 11, 71, 95
3, 189840, Note_on_c, 11, 71, 95
3, 189960, Note_off_c, 11, 74, 95
3, 189960, Note_on_c, 11, 74, 95
3, 189960, Note_off_c, 11, 71, 95
3, 189960, Note_on_c, 11, 71, 95
3, 190079, Note_off_c, 11, 74, 95
3, 190079, Note_off_c, 11, 71, 95
3, 190080, Note_on_c, 12, 71, 95
3, 190080, Note_on_c, 12, 68, 95
3, 190080, Note_on_c, 12, 64, 95
3, 190200, Pitch_bend_c, 12, 8192
3, 190320, Pitch_bend_c, 12, 8192
3, 190440, Pitch_bend_c, 12, 8192
3, 190560, Pitch_bend_c, 12, 8192
3, 190680, Pitch_bend_c, 12, 8192
3, 190800, Pitch_bend_c, 12, 8192
3, 190920, Pitch_bend_c, 12, 8192
3, 191040, Note_off_c, 12, 71, 95
3, 191040, Note_off_c, 12, 68, 95
3, 191040, Pitch_bend_c, 12, 8192
3, 191040, Pitch_bend_c, 12, 8192
3, 191040, Note_off_c, 12, 64, 95
3, 191040, Note_on_c, 11, 64, 95
3, 191520, Note_off_c, 11, 64, 95
3, 191520, Note_on_c, 11, 64, 95
3, 191760, Note_off_c, 11, 64, 95
3, 191760, Note_on_c, 11, 62, 95
3, 192000, Note_off_c, 11, 62, 95
3, 192000, Note_on_c, 11, 59, 95
3, 192480, Note_off_c, 11, 59, 95
3, 192480, Note_on_c, 12, 67, 95
3, 192640, Pitch_bend_c, 12, 8192
3, 192800, Pitch_bend_c, 12, 8320
3, 192960, Pitch_bend_c, 12, 8192
3, 193120, Pitch_bend_c, 12, 8320
3, 193280, Pitch_bend_c, 12, 8192
3, 193440, Pitch_bend_c, 12, 8320
3, 193440, Pitch_bend_c, 12, 8192
3, 193440, Note_off_c, 12, 67, 95
3, 193920, Note_on_c, 11, 69, 95
3, 193920, Note_on_c, 11, 66, 95
3, 194400, Note_off_c, 11, 69, 95
3, 194400, Note_off_c, 11, 66, 95
3, 194400, Note_on_c, 11, 70, 95
3, 194400, Note_on_c, 11, 67, 95
3, 194880, Note_off_c, 11, 70, 95
3, 194880, Note_off_c, 11, 67, 95
3, 194880, Note_on_c, 11, 71, 95
3, 194880, Note_on_c, 11, 68, 95
3, 195360, Note_off_c, 11, 71, 95
3, 195360, Note_off_c, 11, 68, 95
3, 195360, Note_on_c, 11, 74, 95
3, 195360, Note_on_c, 11, 71, 95
3, 195840, Note_off_c, 11, 74, 95
3, 195840, Note_off_c, 11, 71, 95
3, 264960, Note_on_c, 12, 71, 95
3, 264960, Note_on_c, 12, 68, 95
3, 264960, Note_on_c, 12, 64, 95
3, 265080, Pitch_bend_c, 12, 8192
3, 265200, Pitch_bend_c, 12, 8192
3, 265320, Pitch_bend_c, 12, 8192
3, 265440, Pitch_bend_c, 12, 8192
3, 265560, Pitch_bend_c, 12, 8192
3, 265680, Pitch_bend_c, 12, 8192
3, 265800, Pitch_bend_c, 12, 8192
3, 265920, Pitch_bend_c, 12, 8192
3, 266040, Pitch_bend_c, 12, 8192
3, 266160, Pitch_bend_c, 12, 8192
3, 266280, Pitch_bend_c, 12, 8192
3, 266400, Note_off_c, 12, 71, 95
3, 266400, Note_off_c, 12, 68, 95
3, 266400, Pitch_bend_c, 12, 8192
3, 266400, Pitch_bend_c, 12, 8192
3, 266400, Note_off_c, 12, 64, 95
3, 266400, Note_on_c, 11, 64, 95
3, 266640, Note_off_c, 11, 64, 95
3, 266640, Note_on_c, 11, 62, 95
3, 266880, Note_off_c, 11, 62, 95
3, 266880, Note_on_c, 11, 59, 95
3, 267360, Note_off_c, 11, 59, 95
3, 267360, Note_on_c, 12, 67, 95
3, 267520, Pitch_bend_c, 12, 8192
3, 267680, Pitch_bend_c, 12, 8320
3, 267840, Pitch_bend_c, 12, 8192
3, 268000, Pitch_bend_c, 12, 8320
3, 268160, Pitch_bend_c, 12, 8192
3, 268320, Pitch_bend_c, 12, 8320
3, 268320, Pitch_bend_c, 12, 8192
3, 268320, Note_off_c, 12, 67, 95
3, 268800, Note_on_c, 11, 69, 95
3, 268800, Note_on_c, 11, 66, 95
3, 269280, Note_off_c, 11, 69, 95
3, 269280, Note_off_c, 11, 66, 95
3, 269280, Note_on_c, 11, 70, 95
3, 269280, Note_on_c, 11, 67, 95
3, 269760, Note_off_c, 11, 70, 95
3, 269760, Note_off_c, 11, 67, 95
3, 269760, Note_on_c, 11, 71, 95
3, 269760, Note_on_c, 11, 68, 95
3, 270240, Note_off_c, 11, 71, 95
3, 270240, Note_off_c, 11, 68, 95
3, 270240, Note_on_c, 11, 74, 95
3, 270240, Note_on_c, 11, 71, 95
3, 270360, Note_off_c, 11, 74, 95
3, 270360, Note_on_c, 11, 74, 95
3, 270360, Note_off_c, 11, 71, 95
3, 270360, Note_on_c, 11, 71, 95
3, 270480, Note_off_c, 11, 74, 95
3, 270480, Note_on_c, 11, 74, 95
3, 270480, Note_off_c, 11, 71, 95
3, 270480, Note_on_c, 11, 71, 95
3, 270600, Note_off_c, 11, 74, 95
3, 270600, Note_on_c, 11, 74, 95
3, 270600, Note_off_c, 11, 71, 95
3, 270600, Note_on_c, 11, 71, 95
3, 270719, Note_off_c, 11, 74, 95
3, 270719, Note_off_c, 11, 71, 95
3, 270720, Note_on_c, 12, 71, 95
3, 270720, Note_on_c, 12, 68, 95
3, 270720, Note_on_c, 12, 64, 95
3, 270840, Pitch_bend_c, 12, 8192
3, 270960, Pitch_bend_c, 12, 8192
3, 271080, Pitch_bend_c, 12, 8192
3, 271200, Pitch_bend_c, 12, 8192
3, 271320, Pitch_bend_c, 12, 8192
3, 271440, Pitch_bend_c, 12, 8192
3, 271560, Pitch_bend_c, 12, 8192
3, 271680, Note_off_c, 12, 71, 95
3, 271680, Note_off_c, 12, 68, 95
3, 271680, Pitch_bend_c, 12, 8192
3, 271680, Pitch_bend_c, 12, 8192
3, 271680, Note_off_c, 12, 64, 95
3, 271680, Note_on_c, 11, 64, 95
3, 272160, Note_off_c, 11, 64, 95
3, 272160, Note_on_c, 11, 64, 95
3, 272400, Note_off_c, 11, 64, 95
3, 272400, Note_on_c, 11, 62, 95
3, 272640, Note_off_c, 11, 62, 95
3, 272640, Note_on_c, 11, 59, 95
3, 273120, Note_off_c, 11, 59, 95
3, 273120, Note_on_c, 12, 67, 95
3, 273280, Pitch_bend_c, 12, 8192
3, 273440, Pitch_bend_c, 12, 8320
3, 273600, Pitch_bend_c, 12, 8192
3, 273760, Pitch_bend_c, 12, 8320
3, 273920, Pitch_bend_c, 12, 8192
3, 274080, Pitch_bend_c, 12, 8320
3, 274080, Pitch_bend_c, 12, 8192
3, 274080, Note_off_c, 12, 67, 95
3, 274560, Note_on_c, 11, 69, 95
3, 274560, Note_on_c, 11, 66, 95
3, 275040, Note_off_c, 11, 69, 95
3, 275040, Note_off_c, 11, 66, 95
3, 275040, Note_on_c, 11, 70, 95
3, 275040, Note_on_c, 11, 67, 95
3, 275520, Note_off_c, 11, 70, 95
3, 275520, Note_off_c, 11, 67, 95
3, 275520, Note_on_c, 11, 71, 95
3, 275520, Note_on_c, 11, 68, 95
3, 276000, Note_off_c, 11, 71, 95
3, 276000, Note_off_c, 11, 68, 95
3, 276000, Note_on_c, 11, 74, 95
3, 276000, Note_on_c, 11, 71, 95
3, 276480, Note_off_c, 11, 74, 95
3, 276480, Note_off_c, 11, 71, 95
3, 276480, End_track
4, 0, Start_track
4, 0, Pitch_bend_c, 0, 8192
4, 0, Control_c, 0, 7, 87
4, 0, Control_c, 0, 10, 7
4, 0, Control_c, 0, 93, 0
4, 0, Control_c, 0, 91, 0
4, 0, Control_c, 0, 95, 0
4, 0, Control_c, 0, 92, 0
4, 0, Control_c, 0, 11, 127
4, 0, Program_c, 0, 30
4, 0, Control_c, 1, 7, 87
4, 0, Control_c, 1, 10, 7
4, 0, Control_c, 1, 93, 0
4, 0, Control_c, 1, 91, 0
4, 0, Control_c, 1, 95, 0
4, 0, Control_c, 1, 92, 0
4, 0, Control_c, 1, 11, 127
4, 0, Program_c, 1, 30
4, 3360, Note_on_c, 0, 45, 95
4, 3840, Note_off_c, 0, 45, 95
4, 3840, Note_on_c, 0, 46, 95
4, 4320, Note_off_c, 0, 46, 95
4, 4320, Note_on_c, 0, 47, 95
4, 4800, Note_off_c, 0, 47, 95
4, 4800, Note_on_c, 0, 50, 95
4, 5280, Note_off_c, 0, 50, 95
4, 5280, Note_on_c, 0, 51, 95
4, 5760, Note_off_c, 0, 51, 95
4, 5760, Note_on_c, 0, 52, 95
4, 6720, Note_off_c, 0, 52, 95
4, 7200, Note_on_c, 0, 52, 95
4, 7440, Note_off_c, 0, 52, 95
4, 7440, Note_on_c, 0, 50, 70
4, 7680, Note_off_c, 0, 50, 70
4, 7680, Note_on_c, 0, 47, 95
4, 8160, Note_off_c, 0, 47, 95
4, 8160, Note_on_c, 1, 55, 95
4, 8320, Pitch_bend_c, 1, 8192
4, 8480, Pitch_bend_c, 1, 8320
4, 8640, Pitch_bend_c, 1, 8192
4, 8640, Pitch_bend_c, 1, 8320
4, 8640, Pitch_bend_c, 1, 8192
4, 8640, Note_off_c, 1, 55, 95
4, 9120, Note_on_c, 0, 45, 95
4, 9600, Note_off_c, 0, 45, 95
4, 9600, Note_on_c, 0, 46, 95
4, 10080, Note_off_c, 0, 46, 95
4, 10080, Note_on_c, 0, 47, 95
4, 10560, Note_off_c, 0, 47, 95
4, 10560, Note_on_c, 0, 50, 95
4, 11040, Note_off_c, 0, 50, 95
4, 11040, Note_on_c, 0, 51, 95
4, 11520, Note_off_c, 0, 51, 95
4, 11520, Note_on_c, 0, 52, 95
4, 12480, Note_off_c, 0, 52, 95
4, 12960, Note_on_c, 0, 52, 95
4, 13200, Note_off_c, 0, 52, 95
4, 13200, Note_on_c, 0, 50, 70
4, 13440, Note_off_c, 0, 50, 70
4, 13440, Note_on_c, 0, 47, 95
4, 13920, Note_off_c, 0, 47, 95
4, 13920, Note_on_c, 1, 55, 95
4, 14080, Pitch_bend_c, 1, 8192
4, 14240, Pitch_bend_c, 1, 8320
4, 14400, Pitch_bend_c, 1, 8192
4, 14400, Pitch_bend_c, 1, 8320
4, 14400, Pitch_bend_c, 1, 8192
4, 14400, Note_off_c, 1, 55, 95
4, 14880, Note_on_c, 0, 45, 95
4, 15360, Note_off_c, 0, 45, 95
4, 15360, Note_on_c, 0, 46, 95
4, 15840, Note_off_c, 0, 46, 95
4, 15840, Note_on_c, 0, 47, 95
4, 16320, Note_off_c, 0, 47, 95
4, 16320, Note_on_c, 0, 50, 95
4, 16800, Note_off_c, 0, 50, 95
4, 16800, Note_on_c, 0, 51, 95
4, 17280, Note_off_c, 0, 51, 95
4, 17280, Note_on_c, 0, 52, 95
4, 18240, Note_off_c, 0, 52, 95
4, 18720, Note_on_c, 0, 52, 95
4, 18960, Note_off_c, 0, 52, 95
4, 18960, Note_on_c, 0, 50, 70
4, 19200, Note_off_c, 0, 50, 70
4, 19200, Note_on_c, 0, 47, 95
4, 19680, Note_off_c, 0, 47, 95
4, 19680, Note_on_c, 1, 55, 95
4, 19840, Pitch_bend_c, 1, 8192
4, 20000, Pitch_bend_c, 1, 8320
4, 20160, Pitch_bend_c, 1, 8192
4, 20160, Pitch_bend_c, 1, 8320
4, 20160, Pitch_bend_c, 1, 8192
4, 20160, Note_off_c, 1, 55, 95
4, 20640, Note_on_c, 0, 45, 95
4, 21120, Note_off_c, 0, 45, 95
4, 21120, Note_on_c, 0, 46, 95
4, 21600, Note_off_c, 0, 46, 95
4, 21600, Note_on_c, 0, 47, 95
4, 22080, Note_off_c, 0, 47, 95
4, 22080, Note_on_c, 0, 50, 95
4, 22560, Note_off_c, 0, 50, 95
4, 22560, Note_on_c, 0, 51, 95
4, 23040, Note_off_c, 0, 51, 95
4, 23040, Note_on_c, 0, 52, 95
4, 24000, Note_off_c, 0, 52, 95
4, 24480, Note_on_c, 0, 52, 95
4, 24720, Note_off_c, 0, 52, 95
4, 24720, Note_on_c, 0, 50, 70
4, 24960, Note_off_c, 0, 50, 70
4, 24960, Note_on_c, 0, 47, 95
4, 25440, Note_off_c, 0, 47, 95
4, 25440, Note_on_c, 1, 55, 95
4, 25600, Pitch_bend_c, 1, 8192
4, 25760, Pitch_bend_c, 1, 8320
4, 25920, Pitch_bend_c, 1, 8192
4, 25920, Pitch_bend_c, 1, 8320
4, 25920, Pitch_bend_c, 1, 8192
4, 25920, Note_off_c, 1, 55, 95
4, 26400, Note_on_c, 0, 45, 95
4, 26880, Note_off_c, 0, 45, 95
4, 26880, Note_on_c, 0, 46, 95
4, 27360, Note_off_c, 0, 46, 95
4, 27360, Note_on_c, 0, 47, 95
4, 27840, Note_off_c, 0, 47, 95
4, 27840, Note_on_c, 0, 50, 95
4, 28320, Note_off_c, 0, 50, 95
4, 28320, Note_on_c, 0, 51, 95
4, 28800, Note_off_c, 0, 51, 95
4, 28800, Note_on_c, 0, 52, 95
4, 29760, Note_off_c, 0, 52, 95
4, 30240, Note_on_c, 0, 52, 95
4, 30480, Note_off_c, 0, 52, 95
4, 30480, Note_on_c, 0, 50, 70
4, 30720, Note_off_c, 0, 50, 70
4, 30720, Note_on_c, 0, 47, 95
4, 31200, Note_off_c, 0, 47, 95
4, 31200, Note_on_c, 1, 55, 95
4, 31360, Pitch_bend_c, 1, 8192
4, 31520, Pitch_bend_c, 1, 8320
4, 31680, Pitch_bend_c, 1, 8192
4, 31680, Pitch_bend_c, 1, 8320
4, 31680, Pitch_bend_c, 1, 8192
4, 31680, Note_off_c, 1, 55, 95
4, 32160, Note_on_c, 0, 45, 95
4, 32640, Note_off_c, 0, 45, 95
4, 32640, Note_on_c, 0, 46, 95
4, 33120, Note_off_c, 0, 46, 95
4, 33120, Note_on_c, 0, 47, 95
4, 33600, Note_off_c, 0, 47, 95
4, 33600, Note_on_c, 0, 50, 95
4, 34080, Note_off_c, 0, 50, 95
4, 34080, Note_on_c, 0, 51, 95
4, 34560, Note_off_c, 0, 51, 95
4, 34560, Note_on_c, 0, 52, 95
4, 35520, Note_off_c, 0, 52, 95
4, 36000, Note_on_c, 0, 52, 95
4, 36240, Note_off_c, 0, 52, 95
4, 36240, Note_on_c, 0, 50, 70
4, 36480, Note_off_c, 0, 50, 70
4, 36480, Note_on_c, 0, 47, 95
4, 36960, Note_off_c, 0, 47, 95
4, 36960, Note_on_c, 1, 55, 95
4, 37120, Pitch_bend_c, 1, 8192
4, 37280, Pitch_bend_c, 1, 8320
4, 37440, Pitch_bend_c, 1, 8192
4, 37440, Pitch_bend_c, 1, 8320
4, 37440, Pitch_bend_c, 1, 8192
4, 37440, Note_off_c, 1, 55, 95
4, 37920, Note_on_c, 0, 45, 95
4, 38400, Note_off_c, 0, 45, 95
4, 38400, Note_on_c, 0, 46, 95
4, 38880, Note_off_c, 0, 46, 95
4, 38880, Note_on_c, 0, 47, 95
4, 39360, Note_off_c, 0, 47, 95
4, 39360, Note_on_c, 0, 50, 95
4, 39840, Note_off_c, 0, 50, 95
4, 39840, Note_on_c, 0, 51, 95
4, 40320, Note_off_c, 0, 51, 95
4, 40320, Note_on_c, 1, 52, 95
4, 41280, Note_off_c, 1, 52, 95
4, 41760, Note_on_c, 0, 52, 95
4, 42000, Note_off_c, 0, 52, 95
4, 42000, Note_on_c, 0, 50, 70
4, 42240, Note_off_c, 0, 50, 70
4, 42240, Note_on_c, 0, 47, 95
4, 42720, Note_off_c, 0, 47, 95
4, 42720, Note_on_c, 1, 55, 95
4, 42880, Pitch_bend_c, 1, 8192
4, 43040, Pitch_bend_c, 1, 8320
4, 43200, Pitch_bend_c, 1, 8192
4, 43200, Pitch_bend_c, 1, 8320
4, 43200, Pitch_bend_c, 1, 8192
4, 43200, Note_off_c, 1, 55, 95
4, 43680, Note_on_c, 0, 48, 95
4, 44160, Note_off_c, 0, 48, 95
4, 44160, Note_on_c, 0, 47, 95
4, 44640, Note_off_c, 0, 47, 95
4, 44640, Note_on_c, 0, 45, 95
4, 45120, Note_off_c, 0, 45, 95
4, 45120, Note_on_c, 0, 47, 95
4, 45600, Note_off_c, 0, 47, 95
4, 45600, Note_on_c, 0, 43, 95
4, 46080, Note_off_c, 0, 43, 95
4, 46080, Note_on_c, 1, 52, 95
4, 47040, Note_off_c, 1, 52, 95
4, 47520, Note_on_c, 0, 52, 95
4, 47760, Note_off_c, 0, 52, 95
4, 47760, Note_on_c, 0, 50, 70
4, 48000, Note_off_c, 0, 50, 70
4, 48000, Note_on_c, 0, 47, 95
4, 48480, Note_off_c, 0, 47, 95
4, 48480, Note_on_c, 1, 55, 95
4, 48640, Pitch_bend_c, 1, 8192
4, 48800, Pitch_bend_c, 1, 8320
4, 48960, Pitch_bend_c, 1, 8192
4, 48960, Pitch_bend_c, 1, 8320
4, 48960, Pitch_bend_c, 1, 8192
4, 48960, Note_off_c, 1, 55, 95
4, 49440, Note_on_c, 0, 48, 95
4, 49920, Note_off_c, 0, 48, 95
4, 49920, Note_on_c, 0, 47, 95
4, 50400, Note_off_c, 0, 47, 95
4, 50400, Note_on_c, 0, 45, 95
4, 50880, Note_off_c, 0, 45, 95
4, 50880, Note_on_c, 0, 47, 95
4, 51360, Note_off_c, 0, 47, 95
4, 51360, Note_on_c, 0, 43, 95
4, 51840, Note_off_c, 0, 43, 95
4, 51840, Note_on_c, 1, 52, 95
4, 52800, Note_off_c, 1, 52, 95
4, 53280, Note_on_c, 0, 52, 95
4, 53520, Note_off_c, 0, 52, 95
4, 53520, Note_on_c, 0, 50, 70
4, 53760, Note_off_c, 0, 50, 70
4, 53760, Note_on_c, 0, 47, 95
4, 54240, Note_off_c, 0, 47, 95
4, 54240, Note_on_c, 1, 55, 95
4, 54400, Pitch_bend_c, 1, 8192
4, 54560, Pitch_bend_c, 1, 8320
4, 54720, Pitch_bend_c, 1, 8192
4, 54720, Pitch_bend_c, 1, 8320
4, 54720, Pitch_bend_c, 1, 8192
4, 54720, Note_off_c, 1, 55, 95
4, 55200, Note_on_c, 0, 48, 95
4, 55680, Note_off_c, 0, 48, 95
4, 55680, Note_on_c, 0, 47, 95
4, 56160, Note_off_c, 0, 47, 95
4, 56160, Note_on_c, 0, 45, 95
4, 56640, Note_off_c, 0, 45, 95
4, 56640, Note_on_c, 0, 47, 95
4, 57120, Note_off_c, 0, 47, 95
4, 57120, Note_on_c, 0, 43, 95
4, 57600, Note_off_c, 0, 43, 95
4, 57600, Note_on_c, 1, 52, 95
4, 58560, Note_off_c, 1, 52, 95
4, 59040, Note_on_c, 0, 52, 95
4, 59280, Note_off_c, 0, 52, 95
4, 59280, Note_on_c, 0, 50, 70
4, 59520, Note_off_c, 0, 50, 70
4, 59520, Note_on_c, 0, 47, 95
4, 60000, Note_off_c, 0, 47, 95
4, 60000, Note_on_c, 1, 55, 95
4, 60160, Pitch_bend_c, 1, 8192
4, 60320, Pitch_bend_c, 1, 8320
4, 60480, Pitch_bend_c, 1, 8192
4, 60480, Pitch_bend_c, 1, 8320
4, 60480, Pitch_bend_c, 1, 8192
4, 60480, Note_off_c, 1, 55, 95
4, 60960, Note_on_c, 0, 48, 95
4, 61440, Note_off_c, 0, 48, 95
4, 61440, Note_on_c, 0, 47, 95
4, 61920, Note_off_c, 0, 47, 95
4, 61920, Note_on_c, 0, 45, 95
4, 62880, Note_off_c, 0, 45, 95
4, 63360, Note_on_c, 0, 45, 95
4, 64080, Note_off_c, 0, 45, 95
4, 64080, Note_on_c, 0, 61, 95
4, 64080, Note_on_c, 0, 57, 95
4, 64080, Note_on_c, 0, 52, 95
4, 64080, Note_on_c, 0, 45, 95
4, 64320, Note_off_c, 0, 61, 95
4, 64320, Note_off_c, 0, 57, 95
4, 64320, Note_off_c, 0, 52, 95
4, 64320, Note_off_c, 0, 45, 95
4, 64320, Note_on_c, 0, 61, 95
4, 64320, Note_on_c, 0, 57, 95
4, 64320, Note_on_c, 0, 52, 95
4, 64320, Note_on_c, 0, 45, 95
4, 64800, Note_off_c, 0, 61, 95
4, 64800, Note_off_c, 0, 57, 95
4, 64800, Note_off_c, 0, 52, 95
4, 64800, Note_off_c, 0, 45, 95
4, 64800, Note_on_c, 0, 61, 95
4, 64800, Note_on_c, 0, 57, 95
4, 64800, Note_on_c, 0, 52, 95
4, 64800, Note_on_c, 0, 45, 95
4, 65280, Note_off_c, 0, 61, 95
4, 65280, Note_off_c, 0, 57, 95
4, 65280, Note_off_c, 0, 52, 95
4, 65280, Note_off_c, 0, 45, 95
4, 65280, Note_on_c, 0, 61, 95
4, 65280, Note_on_c, 0, 57, 95
4, 65280, Note_on_c, 0, 52, 95
4, 65280, Note_on_c, 0, 45, 95
4, 65760, Note_off_c, 0, 61, 95
4, 65760, Note_off_c, 0, 57, 95
4, 65760, Note_off_c, 0, 52, 95
4, 65760, Note_off_c, 0, 45, 95
4, 65760, Note_on_c, 0, 61, 95
4, 65760, Note_on_c, 0, 57, 95
4, 65760, Note_on_c, 0, 52, 95
4, 65760, Note_on_c, 0, 45, 95
4, 66240, Note_off_c, 0, 61, 95
4, 66240, Note_off_c, 0, 57, 95
4, 66240, Note_off_c, 0, 52, 95
4, 66240, Note_off_c, 0, 45, 95
4, 66240, Note_on_c, 0, 40, 95
4, 66960, Note_off_c, 0, 40, 95
4, 66960, Note_on_c, 0, 68, 95
4, 66960, Note_on_c, 0, 64, 95
4, 66960, Note_on_c, 0, 59, 95
4, 66960, Note_on_c, 0, 52, 95
4, 67200, Note_off_c, 0, 68, 95
4, 67200, Note_off_c, 0, 64, 95
4, 67200, Note_off_c, 0, 59, 95
4, 67200, Note_off_c, 0, 52, 95
4, 67200, Note_on_c, 0, 68, 95
4, 67200, Note_on_c, 0, 64, 95
4, 67200, Note_on_c, 0, 59, 95
4, 67200, Note_on_c, 0, 52, 95
4, 67680, Note_off_c, 0, 68, 95
4, 67680, Note_off_c, 0, 64, 95
4, 67680, Note_off_c, 0, 59, 95
4, 67680, Note_off_c, 0, 52, 95
4, 67680, Note_on_c, 0, 68, 95
4, 67680, Note_on_c, 0, 64, 95
4, 67680, Note_on_c, 0, 59, 95
4, 67680, Note_on_c, 0, 52, 95
4, 68160, Note_off_c, 0, 68, 95
4, 68160, Note_off_c, 0, 64, 95
4, 68160, Note_off_c, 0, 59, 95
4, 68160, Note_off_c, 0, 52, 95
4, 68160, Note_on_c, 0, 68, 95
4, 68160, Note_on_c, 0, 64, 95
4, 68160, Note_on_c, 0, 59, 95
4, 68160, Note_on_c, 0, 52, 95
4, 68640, Note_off_c, 0, 68, 95
4, 68640, Note_off_c, 0, 64, 95
4, 68640, Note_off_c, 0, 59, 95
4, 68640, Note_off_c, 0, 52, 95
4, 68640, Note_on_c, 0, 68, 95
4, 68640, Note_on_c, 0, 64, 95
4, 68640, Note_on_c, 0, 59, 95
4, 68640, Note_on_c, 0, 52, 95
4, 69120, Note_off_c, 0, 68, 95
4, 69120, Note_off_c, 0, 64, 95
4, 69120, Note_off_c, 0, 59, 95
4, 69120, Note_off_c, 0, 52, 95
4, 69120, Note_on_c, 0, 48, 95
4, 69840, Note_off_c, 0, 48, 95
4, 69840, Note_on_c, 0, 64, 95
4, 69840, Note_on_c, 0, 60, 95
4, 69840, Note_on_c, 0, 55, 95
4, 69840, Note_on_c, 0, 48, 95
4, 70080, Note_off_c, 0, 64, 95
4, 70080, Note_off_c, 0, 60, 95
4, 70080, Note_off_c, 0, 55, 95
4, 70080, Note_off_c, 0, 48, 95
4, 70080, Note_on_c, 0, 64, 95
4, 70080, Note_on_c, 0, 60, 95
4, 70080, Note_on_c, 0, 55, 95
4, 70080, Note_on_c, 0, 48, 95
4, 70560, Note_off_c, 0, 64, 95
4, 70560, Note_off_c, 0, 60, 95
4, 70560, Note_off_c, 0, 55, 95
4, 70560, Note_off_c, 0, 48, 95
4, 70560, Note_on_c, 0, 64, 95
4, 70560, Note_on_c, 0, 60, 95
4, 70560, Note_on_c, 0, 55, 95
4, 70560, Note_on_c, 0, 48, 95
4, 71040, Note_off_c, 0, 64, 95
4, 71040, Note_off_c, 0, 60, 95
4, 71040, Note_off_c, 0, 55, 95
4, 71040, Note_off_c, 0, 48, 95
4, 71040, Note_on_c, 0, 64, 95
4, 71040, Note_on_c, 0, 60, 95
4, 71040, Note_on_c, 0, 55, 95
4, 71040, Note_on_c, 0, 48, 95
4, 71520, Note_off_c, 0, 64, 95
4, 71520, Note_off_c, 0, 60, 95
4, 71520, Note_off_c, 0, 55, 95
4, 71520, Note_off_c, 0, 48, 95
4, 71520, Note_on_c, 0, 64, 95
4, 71520, Note_on_c, 0, 60, 95
4, 71520, Note_on_c, 0, 55, 95
4, 71520, Note_on_c, 0, 48, 95
4, 72000, Note_off_c, 0, 64, 95
4, 72000, Note_off_c, 0, 60, 95
4, 72000, Note_off_c, 0, 55, 95
4, 72000, Note_off_c, 0, 48, 95
4, 72000, Note_on_c, 0, 40, 95
4, 72720, Note_off_c, 0, 40, 95
4, 72720, Note_on_c, 0, 68, 95
4, 72720, Note_on_c, 0, 64, 95
4, 72720, Note_on_c, 0, 59, 95
4, 72720, Note_on_c, 0, 52, 95
4, 72960, Note_off_c, 0, 68, 95
4, 72960, Note_off_c, 0, 64, 95
4, 72960, Note_off_c, 0, 59, 95
4, 72960, Note_off_c, 0, 52, 95
4, 72960, Note_on_c, 0, 68, 95
4, 72960, Note_on_c, 0, 64, 95
4, 72960, Note_on_c, 0, 59, 95
4, 72960, Note_on_c, 0, 52, 95
4, 73440, Note_off_c, 0, 68, 95
4, 73440, Note_off_c, 0, 64, 95
4, 73440, Note_off_c, 0, 59, 95
4, 73440, Note_off_c, 0, 52, 95
4, 73440, Note_on_c, 0, 68, 95
4, 73440, Note_on_c, 0, 64, 95
4, 73440, Note_on_c, 0, 59, 95
4, 73440, Note_on_c, 0, 52, 95
4, 73920, Note_off_c, 0, 68, 95
4, 73920, Note_off_c, 0, 64, 95
4, 73920, Note_off_c, 0, 59, 95
4, 73920, Note_off_c, 0, 52, 95
4, 73920, Note_on_c, 0, 68, 95
4, 73920, Note_on_c, 0, 64, 95
4, 73920, Note_on_c, 0, 59, 95
4, 73920, Note_on_c, 0, 52, 95
4, 74400, Note_off_c, 0, 68, 95
4, 74400, Note_off_c, 0, 64, 95
4, 74400, Note_off_c, 0, 59, 95
4, 74400, Note_off_c, 0, 52, 95
4, 74400, Note_on_c, 0, 68, 95
4, 74400, Note_on_c, 0, 64, 95
4, 74400, Note_on_c, 0, 59, 95
4, 74400, Note_on_c, 0, 52, 95
4, 74880, Note_off_c, 0, 68, 95
4, 74880, Note_off_c, 0, 64, 95
4, 74880, Note_off_c, 0, 59, 95
4, 74880, Note_off_c, 0, 52, 95
4, 74880, Note_on_c, 0, 43, 95
4, 75600, Note_off_c, 0, 43, 95
4, 75600, Note_on_c, 0, 59, 95
4, 75600, Note_on_c, 0, 55, 95
4, 75600, Note_on_c, 0, 50, 95
4, 75600, Note_on_c, 0, 43, 95
4, 75840, Note_off_c, 0, 59, 95
4, 75840, Note_off_c, 0, 55, 95
4, 75840, Note_off_c, 0, 50, 95
4, 75840, Note_off_c, 0, 43, 95
4, 75840, Note_on_c, 0, 59, 95
4, 75840, Note_on_c, 0, 55, 95
4, 75840, Note_on_c, 0, 50, 95
4, 75840, Note_on_c, 0, 43, 95
4, 76320, Note_off_c, 0, 59, 95
4, 76320, Note_off_c, 0, 55, 95
4, 76320, Note_off_c, 0, 50, 95
4, 76320, Note_off_c, 0, 43, 95
4, 76320, Note_on_c, 0, 59, 95
4, 76320, Note_on_c, 0, 55, 95
4, 76320, Note_on_c, 0, 50, 95
4, 76320, Note_on_c, 0, 43, 95
4, 76800, Note_off_c, 0, 59, 95
4, 76800, Note_off_c, 0, 55, 95
4, 76800, Note_off_c, 0, 50, 95
4, 76800, Note_off_c, 0, 43, 95
4, 76800, Note_on_c, 0, 59, 95
4, 76800, Note_on_c, 0, 55, 95
4, 76800, Note_on_c, 0, 50, 95
4, 76800, Note_on_c, 0, 43, 95
4, 77280, Note_off_c, 0, 59, 95
4, 77280, Note_off_c, 0, 55, 95
4, 77280, Note_off_c, 0, 50, 95
4, 77280, Note_off_c, 0, 43, 95
4, 77280, Note_on_c, 0, 59, 95
4, 77280, Note_on_c, 0, 55, 95
4, 77280, Note_on_c, 0, 50, 95
4, 77280, Note_on_c, 0, 43, 95
4, 77760, Note_off_c, 0, 59, 95
4, 77760, Note_off_c, 0, 55, 95
4, 77760, Note_off_c, 0, 50, 95
4, 77760, Note_off_c, 0, 43, 95
4, 77760, Note_on_c, 0, 45, 95
4, 78480, Note_off_c, 0, 45, 95
4, 78480, Note_on_c, 0, 61, 95
4, 78480, Note_on_c, 0, 57, 95
4, 78480, Note_on_c, 0, 52, 95
4, 78480, Note_on_c, 0, 45, 95
4, 78720, Note_off_c, 0, 61, 95
4, 78720, Note_off_c, 0, 57, 95
4, 78720, Note_off_c, 0, 52, 95
4, 78720, Note_off_c, 0, 45, 95
4, 78720, Note_on_c, 0, 61, 95
4, 78720, Note_on_c, 0, 57, 95
4, 78720, Note_on_c, 0, 52, 95
4, 78720, Note_on_c, 0, 45, 95
4, 79200, Note_off_c, 0, 61, 95
4, 79200, Note_off_c, 0, 57, 95
4, 79200, Note_off_c, 0, 52, 95
4, 79200, Note_off_c, 0, 45, 95
4, 79200, Note_on_c, 0, 61, 95
4, 79200, Note_on_c, 0, 57, 95
4, 79200, Note_on_c, 0, 52, 95
4, 79200, Note_on_c, 0, 45, 95
4, 79680, Note_off_c, 0, 61, 95
4, 79680, Note_off_c, 0, 57, 95
4, 79680, Note_off_c, 0, 52, 95
4, 79680, Note_off_c, 0, 45, 95
4, 79680, Note_on_c, 0, 61, 95
4, 79680, Note_on_c, 0, 57, 95
4, 79680, Note_on_c, 0, 52, 95
4, 79680, Note_on_c, 0, 45, 95
4, 80160, Note_off_c, 0, 61, 95
4, 80160, Note_off_c, 0, 57, 95
4, 80160, Note_off_c, 0, 52, 95
4, 80160, Note_off_c, 0, 45, 95
4, 80160, Note_on_c, 0, 61, 95
4, 80160, Note_on_c, 0, 57, 95
4, 80160, Note_on_c, 0, 52, 95
4, 80160, Note_on_c, 0, 45, 95
4, 80640, Note_off_c, 0, 61, 95
4, 80640, Note_off_c, 0, 57, 95
4, 80640, Note_off_c, 0, 52, 95
4, 80640, Note_off_c, 0, 45, 95
4, 80640, Note_on_c, 0, 48, 95
4, 81360, Note_off_c, 0, 48, 95
4, 81360, Note_on_c, 0, 64, 95
4, 81360, Note_on_c, 0, 60, 95
4, 81360, Note_on_c, 0, 55, 95
4, 81360, Note_on_c, 0, 48, 95
4, 81600, Note_off_c, 0, 64, 95
4, 81600, Note_off_c, 0, 60, 95
4, 81600, Note_off_c, 0, 55, 95
4, 81600, Note_off_c, 0, 48, 95
4, 81600, Note_on_c, 0, 64, 95
4, 81600, Note_on_c, 0, 60, 95
4, 81600, Note_on_c, 0, 55, 95
4, 81600, Note_on_c, 0, 48, 95
4, 82080, Note_off_c, 0, 64, 95
4, 82080, Note_off_c, 0, 60, 95
4, 82080, Note_off_c, 0, 55, 95
4, 82080, Note_off_c, 0, 48, 95
4, 82080, Note_on_c, 0, 64, 95
4, 82080, Note_on_c, 0, 60, 95
4, 82080, Note_on_c, 0, 55, 95
4, 82080, Note_on_c, 0, 48, 95
4, 82560, Note_off_c, 0, 64, 95
4, 82560, Note_off_c, 0, 60, 95
4, 82560, Note_off_c, 0, 55, 95
4, 82560, Note_off_c, 0, 48, 95
4, 82560, Note_on_c, 0, 64, 95
4, 82560, Note_on_c, 0, 60, 95
4, 82560, Note_on_c, 0, 55, 95
4, 82560, Note_on_c, 0, 48, 95
4, 83040, Note_off_c, 0, 64, 95
4, 83040, Note_off_c, 0, 60, 95
4, 83040, Note_off_c, 0, 55, 95
4, 83040, Note_off_c, 0, 48, 95
4, 83040, Note_on_c, 0, 64, 95
4, 83040, Note_on_c, 0, 60, 95
4, 83040, Note_on_c, 0, 55, 95
4, 83040, Note_on_c, 0, 48, 95
4, 83520, Note_off_c, 0, 64, 95
4, 83520, Note_off_c, 0, 60, 95
4, 83520, Note_off_c, 0, 55, 95
4, 83520, Note_off_c, 0, 48, 95
4, 83520, Note_on_c, 0, 59, 95
4, 83520, Note_on_c, 0, 52, 95
4, 83520, Note_on_c, 0, 40, 95
4, 85920, Note_off_c, 0, 59, 95
4, 85920, Note_off_c, 0, 52, 95
4, 85920, Note_off_c, 0, 40, 95
4, 85920, Pitch_bend_c, 1, 8192
4, 85920, Note_on_c, 1, 55, 95
4, 86100, Pitch_bend_c, 1, 8320
4, 86280, Pitch_bend_c, 1, 8448
4, 86280, Pitch_bend_c, 1, 8448
4, 86640, Pitch_bend_c, 1, 8448
4, 86640, Pitch_bend_c, 1, 8192
4, 86640, Note_off_c, 1, 55, 95
4, 86880, Note_on_c, 0, 45, 95
4, 87360, Note_off_c, 0, 45, 95
4, 87360, Note_on_c, 0, 46, 95
4, 87840, Note_off_c, 0, 46, 95
4, 87840, Note_on_c, 0, 47, 95
4, 88320, Note_off_c, 0, 47, 95
4, 88320, Note_on_c, 0, 50, 95
4, 88800, Note_off_c, 0, 50, 95
4, 88800, Note_on_c, 0, 51, 95
4, 89280, Note_off_c, 0, 51, 95
4, 89280, Note_on_c, 0, 52, 95
4, 90240, Note_off_c, 0, 52, 95
4, 90720, Note_on_c, 0, 52, 95
4, 90960, Note_off_c, 0, 52, 95
4, 90960, Note_on_c, 0, 50, 70
4, 91200, Note_off_c, 0, 50, 70
4, 91200, Note_on_c, 0, 47, 95
4, 91680, Note_off_c, 0, 47, 95
4, 91680, Note_on_c, 1, 55, 95
4, 91840, Pitch_bend_c, 1, 8192
4, 92000, Pitch_bend_c, 1, 8320
4, 92160, Pitch_bend_c, 1, 8192
4, 92160, Pitch_bend_c, 1, 8320
4, 92160, Pitch_bend_c, 1, 8192
4, 92160, Note_off_c, 1, 55, 95
4, 92640, Note_on_c, 0, 45, 95
4, 93120, Note_off_c, 0, 45, 95
4, 93120, Note_on_c, 0, 46, 95
4, 93600, Note_off_c, 0, 46, 95
4, 93600, Note_on_c, 0, 47, 95
4, 94080, Note_off_c, 0, 47, 95
4, 94080, Note_on_c, 0, 50, 95
4, 94560, Note_off_c, 0, 50, 95
4, 94560, Note_on_c, 0, 51, 95
4, 95040, Note_off_c, 0, 51, 95
4, 95040, Note_on_c, 1, 52, 95
4, 96000, Note_off_c, 1, 52, 95
4, 96480, Note_on_c, 0, 52, 95
4, 96720, Note_off_c, 0, 52, 95
4, 96720, Note_on_c, 0, 50, 70
4, 96960, Note_off_c, 0, 50, 70
4, 96960, Note_on_c, 0, 47, 95
4, 97440, Note_off_c, 0, 47, 95
4, 97440, Note_on_c, 1, 55, 95
4, 97600, Pitch_bend_c, 1, 8192
4, 97760, Pitch_bend_c, 1, 8320
4, 97920, Pitch_bend_c, 1, 8192
4, 97920, Pitch_bend_c, 1, 8320
4, 97920, Pitch_bend_c, 1, 8192
4, 97920, Note_off_c, 1, 55, 95
4, 98400, Note_on_c, 0, 48, 95
4, 98880, Note_off_c, 0, 48, 95
4, 98880, Note_on_c, 0, 47, 95
4, 99360, Note_off_c, 0, 47, 95
4, 99360, Note_on_c, 0, 45, 95
4, 99840, Note_off_c, 0, 45, 95
4, 99840, Note_on_c, 0, 47, 95
4, 100320, Note_off_c, 0, 47, 95
4, 100320, Note_on_c, 0, 43, 95
4, 100800, Note_off_c, 0, 43, 95
4, 100800, Note_on_c, 1, 52, 95
4, 101760, Note_off_c, 1, 52, 95
4, 102240, Note_on_c, 0, 52, 95
4, 102480, Note_off_c, 0, 52, 95
4, 102480, Note_on_c, 0, 50, 70
4, 102720, Note_off_c, 0, 50, 70
4, 102720, Note_on_c, 0, 47, 95
4, 103200, Note_off_c, 0, 47, 95
4, 103200, Note_on_c, 1, 55, 95
4, 103360, Pitch_bend_c, 1, 8192
4, 103520, Pitch_bend_c, 1, 8320
4, 103680, Pitch_bend_c, 1, 8192
4, 103680, Pitch_bend_c, 1, 8320
4, 103680, Pitch_bend_c, 1, 8192
4, 103680, Note_off_c, 1, 55, 95
4, 104160, Note_on_c, 0, 48, 95
4, 104640, Note_off_c, 0, 48, 95
4, 104640, Note_on_c, 0, 47, 95
4, 105120, Note_off_c, 0, 47, 95
4, 105120, Note_on_c, 0, 45, 95
4, 105600, Note_off_c, 0, 45, 95
4, 105600, Note_on_c, 0, 47, 95
4, 106080, Note_off_c, 0, 47, 95
4, 106080, Note_on_c, 0, 43, 95
4, 106560, Note_off_c, 0, 43, 95
4, 106560, Note_on_c, 1, 52, 95
4, 107520, Note_off_c, 1, 52, 95
4, 108000, Note_on_c, 0, 52, 95
4, 108240, Note_off_c, 0, 52, 95
4, 108240, Note_on_c, 0, 50, 70
4, 108480, Note_off_c, 0, 50, 70
4, 108480, Note_on_c, 0, 47, 95
4, 108960, Note_off_c, 0, 47, 95
4, 108960, Note_on_c, 1, 55, 95
4, 109120, Pitch_bend_c, 1, 8192
4, 109280, Pitch_bend_c, 1, 8320
4, 109440, Pitch_bend_c, 1, 8192
4, 109440, Pitch_bend_c, 1, 8320
4, 109440, Pitch_bend_c, 1, 8192
4, 109440, Note_off_c, 1, 55, 95
4, 109920, Note_on_c, 0, 48, 95
4, 110400, Note_off_c, 0, 48, 95
4, 110400, Note_on_c, 0, 47, 95
4, 110880, Note_off_c, 0, 47, 95
4, 110880, Note_on_c, 0, 45, 95
4, 111360, Note_off_c, 0, 45, 95
4, 111360, Note_on_c, 0, 47, 95
4, 111840, Note_off_c, 0, 47, 95
4, 111840, Note_on_c, 0, 43, 95
4, 112320, Note_off_c, 0, 43, 95
4, 112320, Note_on_c, 1, 52, 95
4, 113280, Note_off_c, 1, 52, 95
4, 113760, Note_on_c, 0, 52, 95
4, 114000, Note_off_c, 0, 52, 95
4, 114000, Note_on_c, 0, 50, 70
4, 114240, Note_off_c, 0, 50, 70
4, 114240, Note_on_c, 0, 47, 95
4, 114720, Note_off_c, 0, 47, 95
4, 114720, Note_on_c, 1, 55, 95
4, 114880, Pitch_bend_c, 1, 8192
4, 115040, Pitch_bend_c, 1, 8320
4, 115200, Pitch_bend_c, 1, 8192
4, 115200, Pitch_bend_c, 1, 8320
4, 115200, Pitch_bend_c, 1, 8192
4, 115200, Note_off_c, 1, 55, 95
4, 115680, Note_on_c, 0, 48, 95
4, 116160, Note_off_c, 0, 48, 95
4, 116160, Note_on_c, 0, 47, 95
4, 116640, Note_off_c, 0, 47, 95
4, 116640, Note_on_c, 0, 45, 95
4, 117600, Note_off_c, 0, 45, 95
4, 118080, Note_on_c, 0, 45, 95
4, 118800, Note_off_c, 0, 45, 95
4, 118800, Note_on_c, 0, 61, 95
4, 118800, Note_on_c, 0, 57, 95
4, 118800, Note_on_c, 0, 52, 95
4, 118800, Note_on_c, 0, 45, 95
4, 119040, Note_off_c, 0, 61, 95
4, 119040, Note_off_c, 0, 57, 95
4, 119040, Note_off_c, 0, 52, 95
4, 119040, Note_off_c, 0, 45, 95
4, 119040, Note_on_c, 0, 61, 95
4, 119040, Note_on_c, 0, 57, 95
4, 119040, Note_on_c, 0, 52, 95
4, 119040, Note_on_c, 0, 45, 95
4, 119520, Note_off_c, 0, 61, 95
4, 119520, Note_off_c, 0, 57, 95
4, 119520, Note_off_c, 0, 52, 95
4, 119520, Note_off_c, 0, 45, 95
4, 119520, Note_on_c, 0, 61, 95
4, 119520, Note_on_c, 0, 57, 95
4, 119520, Note_on_c, 0, 52, 95
4, 119520, Note_on_c, 0, 45, 95
4, 120000, Note_off_c, 0, 61, 95
4, 120000, Note_off_c, 0, 57, 95
4, 120000, Note_off_c, 0, 52, 95
4, 120000, Note_off_c, 0, 45, 95
4, 120000, Note_on_c, 0, 61, 95
4, 120000, Note_on_c, 0, 57, 95
4, 120000, Note_on_c, 0, 52, 95
4, 120000, Note_on_c, 0, 45, 95
4, 120480, Note_off_c, 0, 61, 95
4, 120480, Note_off_c, 0, 57, 95
4, 120480, Note_off_c, 0, 52, 95
4, 120480, Note_off_c, 0, 45, 95
4, 120480, Note_on_c, 0, 61, 95
4, 120480, Note_on_c, 0, 57, 95
4, 120480, Note_on_c, 0, 52, 95
4, 120480, Note_on_c, 0, 45, 95
4, 120960, Note_off_c, 0, 61, 95
4, 120960, Note_off_c, 0, 57, 95
4, 120960, Note_off_c, 0, 52, 95
4, 120960, Note_off_c, 0, 45, 95
4, 120960, Note_on_c, 0, 40, 95
4, 121680, Note_off_c, 0, 40, 95
4, 121680, Note_on_c, 0, 68, 95
4, 121680, Note_on_c, 0, 64, 95
4, 121680, Note_on_c, 0, 59, 95
4, 121680, Note_on_c, 0, 52, 95
4, 121920, Note_off_c, 0, 68, 95
4, 121920, Note_off_c, 0, 64, 95
4, 121920, Note_off_c, 0, 59, 95
4, 121920, Note_off_c, 0, 52, 95
4, 121920, Note_on_c, 0, 68, 95
4, 121920, Note_on_c, 0, 64, 95
4, 121920, Note_on_c, 0, 59, 95
4, 121920, Note_on_c, 0, 52, 95
4, 122400, Note_off_c, 0, 68, 95
4, 122400, Note_off_c, 0, 64, 95
4, 122400, Note_off_c, 0, 59, 95
4, 122400, Note_off_c, 0, 52, 95
4, 122400, Note_on_c, 0, 68, 95
4, 122400, Note_on_c, 0, 64, 95
4, 122400, Note_on_c, 0, 59, 95
4, 122400, Note_on_c, 0, 52, 95
4, 122880, Note_off_c, 0, 68, 95
4, 122880, Note_off_c, 0, 64, 95
4, 122880, Note_off_c, 0, 59, 95
4, 122880, Note_off_c, 0, 52, 95
4, 122880, Note_on_c, 0, 68, 95
4, 122880, Note_on_c, 0, 64, 95
4, 122880, Note_on_c, 0, 59, 95
4, 122880, Note_on_c, 0, 52, 95
4, 123360, Note_off_c, 0, 68, 95
4, 123360, Note_off_c, 0, 64, 95
4, 123360, Note_off_c, 0, 59, 95
4, 123360, Note_off_c, 0, 52, 95
4, 123360, Note_on_c, 0, 68, 95
4, 123360, Note_on_c, 0, 64, 95
4, 123360, Note_on_c, 0, 59, 95
4, 123360, Note_on_c, 0, 52, 95
4, 123840, Note_off_c, 0, 68, 95
4, 123840, Note_off_c, 0, 64, 95
4, 123840, Note_off_c, 0, 59, 95
4, 123840, Note_off_c, 0, 52, 95
4, 123840, Note_on_c, 0, 48, 95
4, 124560, Note_off_c, 0, 48, 95
4, 124560, Note_on_c, 0, 64, 95
4, 124560, Note_on_c, 0, 60, 95
4, 124560, Note_on_c, 0, 55, 95
4, 124560, Note_on_c, 0, 48, 95
4, 124800, Note_off_c, 0, 64, 95
4, 124800, Note_off_c, 0, 60, 95
4, 124800, Note_off_c, 0, 55, 95
4, 124800, Note_off_c, 0, 48, 95
4, 124800, Note_on_c, 0, 64, 95
4, 124800, Note_on_c, 0, 60, 95
4, 124800, Note_on_c, 0, 55, 95
4, 124800, Note_on_c, 0, 48, 95
4, 125280, Note_off_c, 0, 64, 95
4, 125280, Note_off_c, 0, 60, 95
4, 125280, Note_off_c, 0, 55, 95
4, 125280, Note_off_c, 0, 48, 95
4, 125280, Note_on_c, 0, 64, 95
4, 125280, Note_on_c, 0, 60, 95
4, 125280, Note_on_c, 0, 55, 95
4, 125280, Note_on_c, 0, 48, 95
4, 125760, Note_off_c, 0, 64, 95
4, 125760, Note_off_c, 0, 60, 95
4, 125760, Note_off_c, 0, 55, 95
4, 125760, Note_off_c, 0, 48, 95
4, 125760, Note_on_c, 0, 64, 95
4, 125760, Note_on_c, 0, 60, 95
4, 125760, Note_on_c, 0, 55, 95
4, 125760, Note_on_c, 0, 48, 95
4, 126240, Note_off_c, 0, 64, 95
4, 126240, Note_off_c, 0, 60, 95
4, 126240, Note_off_c, 0, 55, 95
4, 126240, Note_off_c, 0, 48, 95
4, 126240, Note_on_c, 0, 64, 95
4, 126240, Note_on_c, 0, 60, 95
4, 126240, Note_on_c, 0, 55, 95
4, 126240, Note_on_c, 0, 48, 95
4, 126720, Note_off_c, 0, 64, 95
4, 126720, Note_off_c, 0, 60, 95
4, 126720, Note_off_c, 0, 55, 95
4, 126720, Note_off_c, 0, 48, 95
4, 126720, Note_on_c, 0, 40, 95
4, 127440, Note_off_c, 0, 40, 95
4, 127440, Note_on_c, 0, 68, 95
4, 127440, Note_on_c, 0, 64, 95
4, 127440, Note_on_c, 0, 59, 95
4, 127440, Note_on_c, 0, 52, 95
4, 127680, Note_off_c, 0, 68, 95
4, 127680, Note_off_c, 0, 64, 95
4, 127680, Note_off_c, 0, 59, 95
4, 127680, Note_off_c, 0, 52, 95
4, 127680, Note_on_c, 0, 68, 95
4, 127680, Note_on_c, 0, 64, 95
4, 127680, Note_on_c, 0, 59, 95
4, 127680, Note_on_c, 0, 52, 95
4, 128160, Note_off_c, 0, 68, 95
4, 128160, Note_off_c, 0, 64, 95
4, 128160, Note_off_c, 0, 59, 95
4, 128160, Note_off_c, 0, 52, 95
4, 128160, Note_on_c, 0, 68, 95
4, 128160, Note_on_c, 0, 64, 95
4, 128160, Note_on_c, 0, 59, 95
4, 128160, Note_on_c, 0, 52, 95
4, 128640, Note_off_c, 0, 68, 95
4, 128640, Note_off_c, 0, 64, 95
4, 128640, Note_off_c, 0, 59, 95
4, 128640, Note_off_c, 0, 52, 95
4, 128640, Note_on_c, 0, 68, 95
4, 128640, Note_on_c, 0, 64, 95
4, 128640, Note_on_c, 0, 59, 95
4, 128640, Note_on_c, 0, 52, 95
4, 129120, Note_off_c, 0, 68, 95
4, 129120, Note_off_c, 0, 64, 95
4, 129120, Note_off_c, 0, 59, 95
4, 129120, Note_off_c, 0, 52, 95
4, 129120, Note_on_c, 0, 68, 95
4, 129120, Note_on_c, 0, 64, 95
4, 129120, Note_on_c, 0, 59, 95
4, 129120, Note_on_c, 0, 52, 95
4, 129600, Note_off_c, 0, 68, 95
4, 129600, Note_off_c, 0, 64, 95
4, 129600, Note_off_c, 0, 59, 95
4, 129600, Note_off_c, 0, 52, 95
4, 129600, Note_on_c, 0, 43, 95
4, 130320, Note_off_c, 0, 43, 95
4, 130320, Note_on_c, 0, 59, 95
4, 130320, Note_on_c, 0, 55, 95
4, 130320, Note_on_c, 0, 50, 95
4, 130320, Note_on_c, 0, 43, 95
4, 130560, Note_off_c, 0, 59, 95
4, 130560, Note_off_c, 0, 55, 95
4, 130560, Note_off_c, 0, 50, 95
4, 130560, Note_off_c, 0, 43, 95
4, 130560, Note_on_c, 0, 59, 95
4, 130560, Note_on_c, 0, 55, 95
4, 130560, Note_on_c, 0, 50, 95
4, 130560, Note_on_c, 0, 43, 95
4, 131040, Note_off_c, 0, 59, 95
4, 131040, Note_off_c, 0, 55, 95
4, 131040, Note_off_c, 0, 50, 95
4, 131040, Note_off_c, 0, 43, 95
4, 131040, Note_on_c, 0, 59, 95
4, 131040, Note_on_c, 0, 55, 95
4, 131040, Note_on_c, 0, 50, 95
4, 131040, Note_on_c, 0, 43, 95
4, 131520, Note_off_c, 0, 59, 95
4, 131520, Note_off_c, 0, 55, 95
4, 131520, Note_off_c, 0, 50, 95
4, 131520, Note_off_c, 0, 43, 95
4, 131520, Note_on_c, 0, 59, 95
4, 131520, Note_on_c, 0, 55, 95
4, 131520, Note_on_c, 0, 50, 95
4, 131520, Note_on_c, 0, 43, 95
4, 132000, Note_off_c, 0, 59, 95
4, 132000, Note_off_c, 0, 55, 95
4, 132000, Note_off_c, 0, 50, 95
4, 132000, Note_off_c, 0, 43, 95
4, 132000, Note_on_c, 0, 59, 95
4, 132000, Note_on_c, 0, 55, 95
4, 132000, Note_on_c, 0, 50, 95
4, 132000, Note_on_c, 0, 43, 95
4, 132480, Note_off_c, 0, 59, 95
4, 132480, Note_off_c, 0, 55, 95
4, 132480, Note_off_c, 0, 50, 95
4, 132480, Note_off_c, 0, 43, 95
4, 132480, Note_on_c, 0, 45, 95
4, 133200, Note_off_c, 0, 45, 95
4, 133200, Note_on_c, 0, 61, 95
4, 133200, Note_on_c, 0, 57, 95
4, 133200, Note_on_c, 0, 52, 95
4, 133200, Note_on_c, 0, 45, 95
4, 133440, Note_off_c, 0, 61, 95
4, 133440, Note_off_c, 0, 57, 95
4, 133440, Note_off_c, 0, 52, 95
4, 133440, Note_off_c, 0, 45, 95
4, 133440, Note_on_c, 0, 61, 95
4, 133440, Note_on_c, 0, 57, 95
4, 133440, Note_on_c, 0, 52, 95
4, 133440, Note_on_c, 0, 45, 95
4, 133920, Note_off_c, 0, 61, 95
4, 133920, Note_off_c, 0, 57, 95
4, 133920, Note_off_c, 0, 52, 95
4, 133920, Note_off_c, 0, 45, 95
4, 133920, Note_on_c, 0, 61, 95
4, 133920, Note_on_c, 0, 57, 95
4, 133920, Note_on_c, 0, 52, 95
4, 133920, Note_on_c, 0, 45, 95
4, 134400, Note_off_c, 0, 61, 95
4, 134400, Note_off_c, 0, 57, 95
4, 134400, Note_off_c, 0, 52, 95
4, 134400, Note_off_c, 0, 45, 95
4, 134400, Note_on_c, 0, 61, 95
4, 134400, Note_on_c, 0, 57, 95
4, 134400, Note_on_c, 0, 52, 95
4, 134400, Note_on_c, 0, 45, 95
4, 134880, Note_off_c, 0, 61, 95
4, 134880, Note_off_c, 0, 57, 95
4, 134880, Note_off_c, 0, 52, 95
4, 134880, Note_off_c, 0, 45, 95
4, 134880, Note_on_c, 0, 61, 95
4, 134880, Note_on_c, 0, 57, 95
4, 134880, Note_on_c, 0, 52, 95
4, 134880, Note_on_c, 0, 45, 95
4, 135360, Note_off_c, 0, 61, 95
4, 135360, Note_off_c, 0, 57, 95
4, 135360, Note_off_c, 0, 52, 95
4, 135360, Note_off_c, 0, 45, 95
4, 135360, Note_on_c, 0, 48, 95
4, 136080, Note_off_c, 0, 48, 95
4, 136080, Note_on_c, 0, 64, 95
4, 136080, Note_on_c, 0, 60, 95
4, 136080, Note_on_c, 0, 55, 95
4, 136080, Note_on_c, 0, 48, 95
4, 136320, Note_off_c, 0, 64, 95
4, 136320, Note_off_c, 0, 60, 95
4, 136320, Note_off_c, 0, 55, 95
4, 136320, Note_off_c, 0, 48, 95
4, 136320, Note_on_c, 0, 64, 95
4, 136320, Note_on_c, 0, 60, 95
4, 136320, Note_on_c, 0, 55, 95
4, 136320, Note_on_c, 0, 48, 95
4, 136800, Note_off_c, 0, 64, 95
4, 136800, Note_off_c, 0, 60, 95
4, 136800, Note_off_c, 0, 55, 95
4, 136800, Note_off_c, 0, 48, 95
4, 136800, Note_on_c, 0, 64, 95
4, 136800, Note_on_c, 0, 60, 95
4, 136800, Note_on_c, 0, 55, 95
4, 136800, Note_on_c, 0, 48, 95
4, 137280, Note_off_c, 0, 64, 95
4, 137280, Note_off_c, 0, 60, 95
4, 137280, Note_off_c, 0, 55, 95
4, 137280, Note_off_c, 0, 48, 95
4, 137280, Note_on_c, 0, 64, 95
4, 137280, Note_on_c, 0, 60, 95
4, 137280, Note_on_c, 0, 55, 95
4, 137280, Note_on_c, 0, 48, 95
4, 137760, Note_off_c, 0, 64, 95
4, 137760, Note_off_c, 0, 60, 95
4, 137760, Note_off_c, 0, 55, 95
4, 137760, Note_off_c, 0, 48, 95
4, 137760, Note_on_c, 0, 64, 95
4, 137760, Note_on_c, 0, 60, 95
4, 137760, Note_on_c, 0, 55, 95
4, 137760, Note_on_c, 0, 48, 95
4, 138240, Note_off_c, 0, 64, 95
4, 138240, Note_off_c, 0, 60, 95
4, 138240, Note_off_c, 0, 55, 95
4, 138240, Note_off_c, 0, 48, 95
4, 138240, Note_on_c, 0, 59, 95
4, 138240, Note_on_c, 0, 52, 95
4, 138240, Note_on_c, 0, 40, 95
4, 140640, Note_off_c, 0, 59, 95
4, 140640, Note_off_c, 0, 52, 95
4, 140640, Note_off_c, 0, 40, 95
4, 140640, Pitch_bend_c, 1, 8192
4, 140640, Note_on_c, 1, 55, 95
4, 140820, Pitch_bend_c, 1, 8320
4, 141000, Pitch_bend_c, 1, 8448
4, 141000, Pitch_bend_c, 1, 8448
4, 141360, Pitch_bend_c, 1, 8448
4, 141360, Pitch_bend_c, 1, 8192
4, 141360, Note_off_c, 1, 55, 95
4, 141600, Note_on_c, 0, 45, 95
4, 142080, Note_off_c, 0, 45, 95
4, 142080, Note_on_c, 0, 46, 95
4, 142560, Note_off_c, 0, 46, 95
4, 142560, Note_on_c, 0, 47, 95
4, 143040, Note_off_c, 0, 47, 95
4, 143040, Note_on_c, 0, 50, 95
4, 143520, Note_off_c, 0, 50, 95
4, 143520, Note_on_c, 0, 51, 95
4, 144000, Note_off_c, 0, 51, 95
4, 144000, Note_on_c, 0, 52, 95
4, 144960, Note_off_c, 0, 52, 95
4, 145440, Note_on_c, 0, 52, 95
4, 145680, Note_off_c, 0, 52, 95
4, 145680, Note_on_c, 0, 50, 70
4, 145920, Note_off_c, 0, 50, 70
4, 145920, Note_on_c, 0, 47, 95
4, 146400, Note_off_c, 0, 47, 95
4, 146400, Note_on_c, 1, 55, 95
4, 146560, Pitch_bend_c, 1, 8192
4, 146720, Pitch_bend_c, 1, 8320
4, 146880, Pitch_bend_c, 1, 8192
4, 146880, Pitch_bend_c, 1, 8320
4, 146880, Pitch_bend_c, 1, 8192
4, 146880, Note_off_c, 1, 55, 95
4, 147360, Note_on_c, 0, 45, 95
4, 147840, Note_off_c, 0, 45, 95
4, 147840, Note_on_c, 0, 46, 95
4, 148320, Note_off_c, 0, 46, 95
4, 148320, Note_on_c, 0, 47, 95
4, 148800, Note_off_c, 0, 47, 95
4, 148800, Note_on_c, 0, 50, 95
4, 149280, Note_off_c, 0, 50, 95
4, 149280, Note_on_c, 0, 51, 95
4, 149760, Note_off_c, 0, 51, 95
4, 149760, Note_on_c, 0, 52, 95
4, 150720, Note_off_c, 0, 52, 95
4, 151200, Note_on_c, 0, 52, 95
4, 151440, Note_off_c, 0, 52, 95
4, 151440, Note_on_c, 0, 50, 70
4, 151680, Note_off_c, 0, 50, 70
4, 151680, Note_on_c, 0, 47, 95
4, 152160, Note_off_c, 0, 47, 95
4, 152160, Note_on_c, 1, 55, 95
4, 152320, Pitch_bend_c, 1, 8192
4, 152480, Pitch_bend_c, 1, 8320
4, 152640, Pitch_bend_c, 1, 8192
4, 152640, Pitch_bend_c, 1, 8320
4, 152640, Pitch_bend_c, 1, 8192
4, 152640, Note_off_c, 1, 55, 95
4, 153120, Note_on_c, 0, 45, 95
4, 153600, Note_off_c, 0, 45, 95
4, 153600, Note_on_c, 0, 46, 95
4, 154080, Note_off_c, 0, 46, 95
4, 154080, Note_on_c, 0, 47, 95
4, 154560, Note_off_c, 0, 47, 95
4, 154560, Note_on_c, 0, 50, 95
4, 155040, Note_off_c, 0, 50, 95
4, 155040, Note_on_c, 0, 51, 95
4, 155520, Note_off_c, 0, 51, 95
4, 155520, Note_on_c, 0, 52, 95
4, 156480, Note_off_c, 0, 52, 95
4, 156960, Note_on_c, 0, 52, 95
4, 157200, Note_off_c, 0, 52, 95
4, 157200, Note_on_c, 0, 50, 70
4, 157440, Note_off_c, 0, 50, 70
4, 157440, Note_on_c, 0, 47, 95
4, 157920, Note_off_c, 0, 47, 95
4, 157920, Note_on_c, 1, 55, 95
4, 158080, Pitch_bend_c, 1, 8192
4, 158240, Pitch_bend_c, 1, 8320
4, 158400, Pitch_bend_c, 1, 8192
4, 158400, Pitch_bend_c, 1, 8320
4, 158400, Pitch_bend_c, 1, 8192
4, 158400, Note_off_c, 1, 55, 95
4, 158880, Note_on_c, 0, 45, 95
4, 159360, Note_off_c, 0, 45, 95
4, 159360, Note_on_c, 0, 46, 95
4, 159840, Note_off_c, 0, 46, 95
4, 159840, Note_on_c, 0, 47, 95
4, 160320, Note_off_c, 0, 47, 95
4, 160320, Note_on_c, 0, 50, 95
4, 160800, Note_off_c, 0, 50, 95
4, 160800, Note_on_c, 0, 51, 95
4, 161280, Note_off_c, 0, 51, 95
4, 161280, Note_on_c, 0, 40, 95
4, 161760, Note_off_c, 0, 40, 95
4, 162000, Note_on_c, 0, 64, 95
4, 162000, Note_on_c, 0, 59, 95
4, 162240, Note_off_c, 0, 64, 95
4, 162240, Note_off_c, 0, 59, 95
4, 162240, Note_on_c, 0, 64, 95
4, 162240, Note_on_c, 0, 59, 95
4, 162480, Note_off_c, 0, 64, 95
4, 162480, Note_off_c, 0, 59, 95
4, 162480, Note_on_c, 0, 62, 95
4, 162480, Note_on_c, 0, 57, 95
4, 162720, Note_off_c, 0, 62, 95
4, 162720, Note_off_c, 0, 57, 95
4, 162720, Note_on_c, 0, 62, 95
4, 162720, Note_on_c, 0, 57, 95
4, 163200, Note_off_c, 0, 62, 95
4, 163200, Note_off_c, 0, 57, 95
4, 163200, Note_on_c, 0, 64, 95
4, 163200, Note_on_c, 0, 59, 95
4, 163440, Note_off_c, 0, 64, 95
4, 163440, Note_off_c, 0, 59, 95
4, 163440, Note_on_c, 0, 64, 95
4, 163440, Note_on_c, 0, 59, 95
4, 163680, Note_off_c, 0, 64, 95
4, 163680, Note_off_c, 0, 59, 95
4, 163680, Note_on_c, 0, 64, 95
4, 163680, Note_on_c, 0, 59, 95
4, 163920, Note_off_c, 0, 64, 95
4, 163920, Note_off_c, 0, 59, 95
4, 163920, Note_on_c, 0, 64, 95
4, 163920, Note_on_c, 0, 59, 95
4, 164160, Note_off_c, 0, 64, 95
4, 164160, Note_off_c, 0, 59, 95
4, 164160, Note_on_c, 0, 40, 95
4, 164640, Note_off_c, 0, 40, 95
4, 164880, Note_on_c, 0, 64, 95
4, 164880, Note_on_c, 0, 59, 95
4, 165120, Note_off_c, 0, 64, 95
4, 165120, Note_off_c, 0, 59, 95
4, 165120, Note_on_c, 0, 64, 95
4, 165120, Note_on_c, 0, 59, 95
4, 165360, Note_off_c, 0, 64, 95
4, 165360, Note_off_c, 0, 59, 95
4, 165360, Note_on_c, 0, 62, 95
4, 165360, Note_on_c, 0, 57, 95
4, 165600, Note_off_c, 0, 62, 95
4, 165600, Note_off_c, 0, 57, 95
4, 165600, Note_on_c, 0, 62, 95
4, 165600, Note_on_c, 0, 57, 95
4, 166080, Note_off_c, 0, 62, 95
4, 166080, Note_off_c, 0, 57, 95
4, 166080, Note_on_c, 0, 64, 95
4, 166080, Note_on_c, 0, 59, 95
4, 166320, Note_off_c, 0, 64, 95
4, 166320, Note_off_c, 0, 59, 95
4, 166320, Note_on_c, 0, 64, 95
4, 166320, Note_on_c, 0, 59, 95
4, 166560, Note_off_c, 0, 64, 95
4, 166560, Note_off_c, 0, 59, 95
4, 166560, Note_on_c, 0, 64, 95
4, 166560, Note_on_c, 0, 59, 95
4, 166800, Note_off_c, 0, 64, 95
4, 166800, Note_off_c, 0, 59, 95
4, 166800, Note_on_c, 0, 64, 95
4, 166800, Note_on_c, 0, 59, 95
4, 167040, Note_off_c, 0, 64, 95
4, 167040, Note_off_c, 0, 59, 95
4, 167040, Note_on_c, 0, 64, 95
4, 167040, Note_on_c, 0, 59, 95
4, 167760, Note_off_c, 0, 64, 95
4, 167760, Note_off_c, 0, 59, 95
4, 167760, Note_on_c, 0, 64, 95
4, 167760, Note_on_c, 0, 59, 95
4, 168240, Note_off_c, 0, 64, 95
4, 168240, Note_off_c, 0, 59, 95
4, 168240, Note_on_c, 0, 67, 95
4, 168480, Note_off_c, 0, 67, 95
4, 168480, Note_on_c, 0, 62, 95
4, 168960, Note_off_c, 0, 62, 95
4, 168960, Note_on_c, 1, 64, 95
4, 169120, Pitch_bend_c, 1, 8192
4, 169280, Pitch_bend_c, 1, 8320
4, 169440, Pitch_bend_c, 1, 8192
4, 169600, Pitch_bend_c, 1, 8320
4, 169680, Pitch_bend_c, 1, 8192
4, 169680, Pitch_bend_c, 1, 8320
4, 169680, Pitch_bend_c, 1, 8192
4, 169680, Note_off_c, 1, 64, 95
4, 169680, Note_on_c, 0, 64, 95
4, 169680, Note_on_c, 0, 59, 95
4, 169920, Note_off_c, 0, 64, 95
4, 169920, Note_off_c, 0, 59, 95
4, 169920, Note_on_c, 0, 64, 95
4, 169920, Note_on_c, 0, 59, 95
4, 170640, Note_off_c, 0, 64, 95
4, 170640, Note_off_c, 0, 59, 95
4, 170640, Note_on_c, 0, 64, 95
4, 170640, Note_on_c, 0, 59, 95
4, 171120, Note_off_c, 0, 64, 95
4, 171120, Note_off_c, 0, 59, 95
4, 171120, Note_on_c, 0, 64, 95
4, 171120, Note_on_c, 0, 59, 95
4, 171360, Note_off_c, 0, 64, 95
4, 171360, Note_off_c, 0, 59, 95
4, 171360, Note_on_c, 0, 62, 95
4, 171360, Note_on_c, 0, 57, 95
4, 171840, Note_off_c, 0, 62, 95
4, 171840, Note_off_c, 0, 57, 95
4, 171840, Note_on_c, 0, 64, 95
4, 171840, Note_on_c, 0, 59, 95
4, 172080, Note_off_c, 0, 64, 95
4, 172080, Note_off_c, 0, 59, 95
4, 172080, Note_on_c, 0, 64, 95
4, 172080, Note_on_c, 0, 59, 95
4, 172560, Note_off_c, 0, 64, 95
4, 172560, Note_off_c, 0, 59, 95
4, 172560, Note_on_c, 0, 64, 95
4, 172560, Note_on_c, 0, 59, 95
4, 172800, Note_off_c, 0, 64, 95
4, 172800, Note_off_c, 0, 59, 95
4, 172800, Note_on_c, 0, 40, 95
4, 173520, Note_off_c, 0, 40, 95
4, 173520, Note_on_c, 0, 64, 95
4, 173520, Note_on_c, 0, 59, 95
4, 174000, Note_off_c, 0, 64, 95
4, 174000, Note_off_c, 0, 59, 95
4, 174000, Note_on_c, 0, 67, 95
4, 174240, Note_off_c, 0, 67, 95
4, 174240, Note_on_c, 0, 62, 95
4, 174720, Note_off_c, 0, 62, 95
4, 174720, Note_on_c, 1, 64, 95
4, 174880, Pitch_bend_c, 1, 8192
4, 175040, Pitch_bend_c, 1, 8320
4, 175200, Pitch_bend_c, 1, 8192
4, 175360, Pitch_bend_c, 1, 8320
4, 175440, Pitch_bend_c, 1, 8192
4, 175440, Pitch_bend_c, 1, 8320
4, 175440, Pitch_bend_c, 1, 8192
4, 175440, Note_off_c, 1, 64, 95
4, 175440, Note_on_c, 0, 64, 95
4, 175440, Note_on_c, 0, 59, 95
4, 175680, Note_off_c, 0, 64, 95
4, 175680, Note_off_c, 0, 59, 95
4, 175680, Note_on_c, 0, 40, 95
4, 176400, Note_off_c, 0, 40, 95
4, 176400, Note_on_c, 0, 64, 95
4, 176400, Note_on_c, 0, 59, 95
4, 176880, Note_off_c, 0, 64, 95
4, 176880, Note_off_c, 0, 59, 95
4, 176880, Note_on_c, 0, 64, 95
4, 176880, Note_on_c, 0, 59, 95
4, 177120, Note_off_c, 0, 64, 95
4, 177120, Note_off_c, 0, 59, 95
4, 177120, Note_on_c, 1, 62, 95
4, 177120, Note_on_c, 1, 57, 95
4, 177240, Pitch_bend_c, 1, 8832
4, 177240, Pitch_bend_c, 1, 8832
4, 177360, Pitch_bend_c, 1, 9600
4, 177360, Pitch_bend_c, 1, 8192
4, 177360, Note_off_c, 1, 62, 95
4, 177360, Pitch_bend_c, 1, 9600
4, 177360, Pitch_bend_c, 1, 8192
4, 177360, Note_off_c, 1, 57, 95
4, 177360, Note_on_c, 0, 64, 95
4, 177360, Note_on_c, 0, 59, 95
4, 177600, Note_off_c, 0, 64, 95
4, 177600, Note_off_c, 0, 59, 95
4, 177600, Note_on_c, 0, 64, 95
4, 177600, Note_on_c, 0, 59, 95
4, 177840, Note_off_c, 0, 64, 95
4, 177840, Note_off_c, 0, 59, 95
4, 177840, Note_on_c, 0, 64, 95
4, 177840, Note_on_c, 0, 59, 95
4, 178080, Note_off_c, 0, 64, 95
4, 178080, Note_off_c, 0, 59, 95
4, 178080, Note_on_c, 0, 64, 95
4, 178080, Note_on_c, 0, 59, 95
4, 178560, Note_off_c, 0, 64, 95
4, 178560, Note_off_c, 0, 59, 95
4, 178560, Note_on_c, 0, 40, 95
4, 179280, Note_off_c, 0, 40, 95
4, 179280, Note_on_c, 0, 64, 95
4, 179280, Note_on_c, 0, 59, 95
4, 179760, Note_off_c, 0, 64, 95
4, 179760, Note_off_c, 0, 59, 95
4, 179760, Note_on_c, 0, 64, 95
4, 179760, Note_on_c, 0, 59, 95
4, 180000, Note_off_c, 0, 64, 95
4, 180000, Note_off_c, 0, 59, 95
4, 180000, Note_on_c, 1, 62, 95
4, 180000, Note_on_c, 1, 57, 95
4, 180120, Pitch_bend_c, 1, 8832
4, 180120, Pitch_bend_c, 1, 8832
4, 180240, Pitch_bend_c, 1, 9600
4, 180240, Pitch_bend_c, 1, 8192
4, 180240, Note_off_c, 1, 62, 95
4, 180240, Pitch_bend_c, 1, 9600
4, 180240, Pitch_bend_c, 1, 8192
4, 180240, Note_off_c, 1, 57, 95
4, 180240, Note_on_c, 0, 64, 95
4, 180240, Note_on_c, 0, 59, 95
4, 180480, Note_off_c, 0, 64, 95
4, 180480, Note_off_c, 0, 59, 95
4, 180480, Note_on_c, 0, 64, 95
4, 180480, Note_on_c, 0, 59, 95
4, 180720, Note_off_c, 0, 64, 95
4, 180720, Note_off_c, 0, 59, 95
4, 180720, Note_on_c, 0, 64, 95
4, 180720, Note_on_c, 0, 59, 95
4, 180960, Note_off_c, 0, 64, 95
4, 180960, Note_off_c, 0, 59, 95
4, 180960, Note_on_c, 0, 64, 95
4, 180960, Note_on_c, 0, 59, 95
4, 181440, Note_off_c, 0, 64, 95
4, 181440, Note_off_c, 0, 59, 95
4, 181440, Note_on_c, 0, 40, 47
4, 181920, Note_off_c, 0, 40, 47
4, 181920, Note_on_c, 0, 45, 95
4, 182400, Note_off_c, 0, 45, 95
4, 182400, Note_on_c, 0, 46, 95
4, 182880, Note_off_c, 0, 46, 95
4, 182880, Note_on_c, 0, 47, 95
4, 183360, Note_off_c, 0, 47, 95
4, 183360, Note_on_c, 0, 50, 95
4, 183840, Note_off_c, 0, 50, 95
4, 183840, Note_on_c, 0, 51, 95
4, 184320, Note_off_c, 0, 51, 95
4, 184320, Note_on_c, 0, 52, 95
4, 185280, Note_off_c, 0, 52, 95
4, 185760, Note_on_c, 0, 52, 95
4, 186000, Note_off_c, 0, 52, 95
4, 186000, Note_on_c, 0, 50, 70
4, 186240, Note_off_c, 0, 50, 70
4, 186240, Note_on_c, 0, 47, 95
4, 186720, Note_off_c, 0, 47, 95
4, 186720, Note_on_c, 1, 55, 95
4, 186880, Pitch_bend_c, 1, 8192
4, 187040, Pitch_bend_c, 1, 8320
4, 187200, Pitch_bend_c, 1, 8192
4, 187200, Pitch_bend_c, 1, 8320
4, 187200, Pitch_bend_c, 1, 8192
4, 187200, Note_off_c, 1, 55, 95
4, 187680, Note_on_c, 0, 45, 95
4, 188160, Note_off_c, 0, 45, 95
4, 188160, Note_on_c, 0, 46, 95
4, 188640, Note_off_c, 0, 46, 95
4, 188640, Note_on_c, 0, 47, 95
4, 189120, Note_off_c, 0, 47, 95
4, 189120, Note_on_c, 0, 50, 95
4, 189600, Note_off_c, 0, 50, 95
4, 189600, Note_on_c, 0, 51, 95
4, 190080, Note_off_c, 0, 51, 95
4, 190080, Note_on_c, 0, 52, 95
4, 191040, Note_off_c, 0, 52, 95
4, 191520, Note_on_c, 0, 52, 95
4, 191760, Note_off_c, 0, 52, 95
4, 191760, Note_on_c, 0, 50, 70
4, 192000, Note_off_c, 0, 50, 70
4, 192000, Note_on_c, 0, 47, 95
4, 192480, Note_off_c, 0, 47, 95
4, 192480, Note_on_c, 1, 55, 95
4, 192640, Pitch_bend_c, 1, 8192
4, 192800, Pitch_bend_c, 1, 8320
4, 192960, Pitch_bend_c, 1, 8192
4, 192960, Pitch_bend_c, 1, 8320
4, 192960, Pitch_bend_c, 1, 8192
4, 192960, Note_off_c, 1, 55, 95
4, 193440, Note_on_c, 0, 45, 95
4, 193920, Note_off_c, 0, 45, 95
4, 193920, Note_on_c, 0, 46, 95
4, 194400, Note_off_c, 0, 46, 95
4, 194400, Note_on_c, 0, 47, 95
4, 194880, Note_off_c, 0, 47, 95
4, 194880, Note_on_c, 0, 50, 95
4, 195360, Note_off_c, 0, 50, 95
4, 195360, Note_on_c, 0, 51, 95
4, 195840, Note_off_c, 0, 51, 95
4, 195840, Note_on_c, 0, 52, 95
4, 196800, Note_off_c, 0, 52, 95
4, 197280, Note_on_c, 0, 52, 95
4, 197520, Note_off_c, 0, 52, 95
4, 197520, Note_on_c, 0, 50, 70
4, 197760, Note_off_c, 0, 50, 70
4, 197760, Note_on_c, 0, 47, 95
4, 198240, Note_off_c, 0, 47, 95
4, 198240, Note_on_c, 1, 55, 95
4, 198400, Pitch_bend_c, 1, 8192
4, 198560, Pitch_bend_c, 1, 8320
4, 198720, Pitch_bend_c, 1, 8192
4, 198720, Pitch_bend_c, 1, 8320
4, 198720, Pitch_bend_c, 1, 8192
4, 198720, Note_off_c, 1, 55, 95
4, 199200, Note_on_c, 0, 45, 95
4, 199680, Note_off_c, 0, 45, 95
4, 199680, Note_on_c, 0, 46, 95
4, 200160, Note_off_c, 0, 46, 95
4, 200160, Note_on_c, 0, 47, 95
4, 200640, Note_off_c, 0, 47, 95
4, 200640, Note_on_c, 0, 50, 95
4, 201120, Note_off_c, 0, 50, 95
4, 201120, Note_on_c, 0, 51, 95
4, 201600, Note_off_c, 0, 51, 95
4, 201600, Note_on_c, 0, 52, 95
4, 202560, Note_off_c, 0, 52, 95
4, 203040, Note_on_c, 0, 52, 95
4, 203280, Note_off_c, 0, 52, 95
4, 203280, Note_on_c, 0, 50, 70
4, 203520, Note_off_c, 0, 50, 70
4, 203520, Note_on_c, 0, 47, 95
4, 204000, Note_off_c, 0, 47, 95
4, 204000, Note_on_c, 1, 55, 95
4, 204160, Pitch_bend_c, 1, 8192
4, 204320, Pitch_bend_c, 1, 8320
4, 204480, Pitch_bend_c, 1, 8192
4, 204480, Pitch_bend_c, 1, 8320
4, 204480, Pitch_bend_c, 1, 8192
4, 204480, Note_off_c, 1, 55, 95
4, 204960, Note_on_c, 0, 45, 95
4, 205440, Note_off_c, 0, 45, 95
4, 205440, Note_on_c, 0, 46, 95
4, 205920, Note_off_c, 0, 46, 95
4, 205920, Note_on_c, 0, 47, 95
4, 206400, Note_off_c, 0, 47, 95
4, 206400, Note_on_c, 0, 50, 95
4, 206880, Note_off_c, 0, 50, 95
4, 206880, Note_on_c, 0, 51, 95
4, 207360, Note_off_c, 0, 51, 95
4, 207360, Note_on_c, 0, 52, 95
4, 208320, Note_off_c, 0, 52, 95
4, 208800, Note_on_c, 0, 52, 95
4, 209040, Note_off_c, 0, 52, 95
4, 209040, Note_on_c, 0, 50, 70
4, 209280, Note_off_c, 0, 50, 70
4, 209280, Note_on_c, 0, 47, 95
4, 209760, Note_off_c, 0, 47, 95
4, 209760, Note_on_c, 1, 55, 95
4, 209920, Pitch_bend_c, 1, 8192
4, 210080, Pitch_bend_c, 1, 8320
4, 210240, Pitch_bend_c, 1, 8192
4, 210240, Pitch_bend_c, 1, 8320
4, 210240, Pitch_bend_c, 1, 8192
4, 210240, Note_off_c, 1, 55, 95
4, 210720, Note_on_c, 0, 45, 95
4, 211200, Note_off_c, 0, 45, 95
4, 211200, Note_on_c, 0, 46, 95
4, 211680, Note_off_c, 0, 46, 95
4, 211680, Note_on_c, 0, 47, 95
4, 212160, Note_off_c, 0, 47, 95
4, 212160, Note_on_c, 0, 50, 95
4, 212640, Note_off_c, 0, 50, 95
4, 212640, Note_on_c, 0, 51, 95
4, 213120, Note_off_c, 0, 51, 95
4, 213120, Note_on_c, 0, 52, 95
4, 214080, Note_off_c, 0, 52, 95
4, 214560, Note_on_c, 0, 52, 95
4, 214800, Note_off_c, 0, 52, 95
4, 214800, Note_on_c, 0, 50, 70
4, 215040, Note_off_c, 0, 50, 70
4, 215040, Note_on_c, 0, 47, 95
4, 215520, Note_off_c, 0, 47, 95
4, 215520, Note_on_c, 1, 55, 95
4, 215680, Pitch_bend_c, 1, 8192
4, 215840, Pitch_bend_c, 1, 8320
4, 216000, Pitch_bend_c, 1, 8192
4, 216000, Pitch_bend_c, 1, 8320
4, 216000, Pitch_bend_c, 1, 8192
4, 216000, Note_off_c, 1, 55, 95
4, 216480, Note_on_c, 0, 45, 95
4, 216960, Note_off_c, 0, 45, 95
4, 216960, Note_on_c, 0, 46, 95
4, 217440, Note_off_c, 0, 46, 95
4, 217440, Note_on_c, 0, 47, 95
4, 217920, Note_off_c, 0, 47, 95
4, 217920, Note_on_c, 0, 50, 95
4, 218400, Note_off_c, 0, 50, 95
4, 218400, Note_on_c, 0, 51, 95
4, 218880, Note_off_c, 0, 51, 95
4, 218880, Note_on_c, 0, 52, 95
4, 219840, Note_off_c, 0, 52, 95
4, 220320, Note_on_c, 0, 52, 95
4, 220560, Note_off_c, 0, 52, 95
4, 220560, Note_on_c, 0, 50, 70
4, 220800, Note_off_c, 0, 50, 70
4, 220800, Note_on_c, 0, 47, 95
4, 221280, Note_off_c, 0, 47, 95
4, 221280, Note_on_c, 1, 55, 95
4, 221440, Pitch_bend_c, 1, 8192
4, 221600, Pitch_bend_c, 1, 8320
4, 221760, Pitch_bend_c, 1, 8192
4, 221760, Pitch_bend_c, 1, 8320
4, 221760, Pitch_bend_c, 1, 8192
4, 221760, Note_off_c, 1, 55, 95
4, 222240, Note_on_c, 0, 45, 95
4, 222720, Note_off_c, 0, 45, 95
4, 222720, Note_on_c, 0, 46, 95
4, 223200, Note_off_c, 0, 46, 95
4, 223200, Note_on_c, 0, 47, 95
4, 223680, Note_off_c, 0, 47, 95
4, 223680, Note_on_c, 0, 50, 95
4, 224160, Note_off_c, 0, 50, 95
4, 224160, Note_on_c, 0, 51, 95
4, 224640, Note_off_c, 0, 51, 95
4, 224640, Note_on_c, 0, 52, 95
4, 225600, Note_off_c, 0, 52, 95
4, 226080, Note_on_c, 0, 52, 95
4, 226320, Note_off_c, 0, 52, 95
4, 226320, Note_on_c, 0, 50, 70
4, 226560, Note_off_c, 0, 50, 70
4, 226560, Note_on_c, 0, 47, 95
4, 227040, Note_off_c, 0, 47, 95
4, 227040, Note_on_c, 1, 55, 95
4, 227200, Pitch_bend_c, 1, 8192
4, 227360, Pitch_bend_c, 1, 8320
4, 227520, Pitch_bend_c, 1, 8192
4, 227520, Pitch_bend_c, 1, 8320
4, 227520, Pitch_bend_c, 1, 8192
4, 227520, Note_off_c, 1, 55, 95
4, 228000, Note_on_c, 0, 45, 95
4, 228480, Note_off_c, 0, 45, 95
4, 228480, Note_on_c, 0, 46, 95
4, 228960, Note_off_c, 0, 46, 95
4, 228960, Note_on_c, 0, 47, 95
4, 229440, Note_off_c, 0, 47, 95
4, 229440, Note_on_c, 0, 50, 95
4, 229920, Note_off_c, 0, 50, 95
4, 229920, Note_on_c, 0, 51, 95
4, 230400, Note_off_c, 0, 51, 95
4, 230400, Note_on_c, 0, 52, 95
4, 231360, Note_off_c, 0, 52, 95
4, 231840, Note_on_c, 0, 52, 95
4, 232080, Note_off_c, 0, 52, 95
4, 232080, Note_on_c, 0, 50, 70
4, 232320, Note_off_c, 0, 50, 70
4, 232320, Note_on_c, 0, 47, 95
4, 232800, Note_off_c, 0, 47, 95
4, 232800, Note_on_c, 1, 55, 95
4, 232960, Pitch_bend_c, 1, 8192
4, 233120, Pitch_bend_c, 1, 8320
4, 233280, Pitch_bend_c, 1, 8192
4, 233280, Pitch_bend_c, 1, 8320
4, 233280, Pitch_bend_c, 1, 8192
4, 233280, Note_off_c, 1, 55, 95
4, 233760, Note_on_c, 0, 45, 95
4, 234240, Note_off_c, 0, 45, 95
4, 234240, Note_on_c, 0, 46, 95
4, 234720, Note_off_c, 0, 46, 95
4, 234720, Note_on_c, 0, 47, 95
4, 235200, Note_off_c, 0, 47, 95
4, 235200, Note_on_c, 0, 50, 95
4, 235680, Note_off_c, 0, 50, 95
4, 235680, Note_on_c, 0, 51, 95
4, 236160, Note_off_c, 0, 51, 95
4, 236160, Note_on_c, 0, 52, 95
4, 237120, Note_off_c, 0, 52, 95
4, 237600, Note_on_c, 0, 52, 95
4, 237840, Note_off_c, 0, 52, 95
4, 237840, Note_on_c, 0, 50, 70
4, 238080, Note_off_c, 0, 50, 70
4, 238080, Note_on_c, 0, 47, 95
4, 238560, Note_off_c, 0, 47, 95
4, 238560, Note_on_c, 1, 55, 95
4, 238720, Pitch_bend_c, 1, 8192
4, 238880, Pitch_bend_c, 1, 8320
4, 239040, Pitch_bend_c, 1, 8192
4, 239040, Pitch_bend_c, 1, 8320
4, 239040, Pitch_bend_c, 1, 8192
4, 239040, Note_off_c, 1, 55, 95
4, 239520, Note_on_c, 0, 45, 95
4, 240000, Note_off_c, 0, 45, 95
4, 240000, Note_on_c, 0, 46, 95
4, 240480, Note_off_c, 0, 46, 95
4, 240480, Note_on_c, 0, 47, 95
4, 240960, Note_off_c, 0, 47, 95
4, 240960, Note_on_c, 0, 50, 95
4, 241440, Note_off_c, 0, 50, 95
4, 241440, Note_on_c, 0, 51, 95
4, 241920, Note_off_c, 0, 51, 95
4, 241920, Note_on_c, 0, 52, 95
4, 242880, Note_off_c, 0, 52, 95
4, 243360, Note_on_c, 0, 52, 95
4, 243600, Note_off_c, 0, 52, 95
4, 243600, Note_on_c, 0, 50, 70
4, 243840, Note_off_c, 0, 50, 70
4, 243840, Note_on_c, 0, 47, 95
4, 244320, Note_off_c, 0, 47, 95
4, 244320, Note_on_c, 1, 55, 95
4, 244480, Pitch_bend_c, 1, 8192
4, 244640, Pitch_bend_c, 1, 8320
4, 244800, Pitch_bend_c, 1, 8192
4, 244800, Pitch_bend_c, 1, 8320
4, 244800, Pitch_bend_c, 1, 8192
4, 244800, Note_off_c, 1, 55, 95
4, 245280, Note_on_c, 0, 45, 95
4, 245760, Note_off_c, 0, 45, 95
4, 245760, Note_on_c, 0, 46, 95
4, 246240, Note_off_c, 0, 46, 95
4, 246240, Note_on_c, 0, 47, 95
4, 246720, Note_off_c, 0, 47, 95
4, 246720, Note_on_c, 0, 50, 95
4, 247200, Note_off_c, 0, 50, 95
4, 247200, Note_on_c, 0, 51, 95
4, 247680, Note_off_c, 0, 51, 95
4, 247680, Note_on_c, 0, 52, 95
4, 248640, Note_off_c, 0, 52, 95
4, 249120, Note_on_c, 0, 52, 95
4, 249360, Note_off_c, 0, 52, 95
4, 249360, Note_on_c, 0, 50, 70
4, 249600, Note_off_c, 0, 50, 70
4, 249600, Note_on_c, 0, 47, 95
4, 250080, Note_off_c, 0, 47, 95
4, 250080, Note_on_c, 1, 55, 95
4, 250240, Pitch_bend_c, 1, 8192
4, 250400, Pitch_bend_c, 1, 8320
4, 250560, Pitch_bend_c, 1, 8192
4, 250560, Pitch_bend_c, 1, 8320
4, 250560, Pitch_bend_c, 1, 8192
4, 250560, Note_off_c, 1, 55, 95
4, 251040, Note_on_c, 0, 45, 95
4, 251520, Note_off_c, 0, 45, 95
4, 251520, Note_on_c, 0, 46, 95
4, 252000, Note_off_c, 0, 46, 95
4, 252000, Note_on_c, 0, 47, 95
4, 252480, Note_off_c, 0, 47, 95
4, 252480, Note_on_c, 0, 50, 95
4, 252960, Note_off_c, 0, 50, 95
4, 252960, Note_on_c, 0, 51, 95
4, 253440, Note_off_c, 0, 51, 95
4, 253440, Note_on_c, 0, 52, 95
4, 254400, Note_off_c, 0, 52, 95
4, 254880, Note_on_c, 0, 52, 95
4, 255120, Note_off_c, 0, 52, 95
4, 255120, Note_on_c, 0, 50, 70
4, 255360, Note_off_c, 0, 50, 70
4, 255360, Note_on_c, 0, 47, 95
4, 255840, Note_off_c, 0, 47, 95
4, 255840, Note_on_c, 1, 55, 95
4, 256000, Pitch_bend_c, 1, 8192
4, 256160, Pitch_bend_c, 1, 8320
4, 256320, Pitch_bend_c, 1, 8192
4, 256320, Pitch_bend_c, 1, 8320
4, 256320, Pitch_bend_c, 1, 8192
4, 256320, Note_off_c, 1, 55, 95
4, 256800, Note_on_c, 0, 45, 95
4, 257280, Note_off_c, 0, 45, 95
4, 257280, Note_on_c, 0, 46, 95
4, 257760, Note_off_c, 0, 46, 95
4, 257760, Note_on_c, 0, 47, 95
4, 258240, Note_off_c, 0, 47, 95
4, 258240, Note_on_c, 0, 50, 95
4, 258720, Note_off_c, 0, 50, 95
4, 258720, Note_on_c, 0, 51, 95
4, 259200, Note_off_c, 0, 51, 95
4, 259200, Note_on_c, 0, 52, 95
4, 260160, Note_off_c, 0, 52, 95
4, 260640, Note_on_c, 0, 52, 95
4, 260880, Note_off_c, 0, 52, 95
4, 260880, Note_on_c, 0, 50, 70
4, 261120, Note_off_c, 0, 50, 70
4, 261120, Note_on_c, 0, 47, 95
4, 261600, Note_off_c, 0, 47, 95
4, 261600, Note_on_c, 1, 55, 95
4, 261760, Pitch_bend_c, 1, 8192
4, 261920, Pitch_bend_c, 1, 8320
4, 262080, Pitch_bend_c, 1, 8192
4, 262080, Pitch_bend_c, 1, 8320
4, 262080, Pitch_bend_c, 1, 8192
4, 262080, Note_off_c, 1, 55, 95
4, 262560, Note_on_c, 0, 45, 95
4, 263040, Note_off_c, 0, 45, 95
4, 263040, Note_on_c, 0, 46, 95
4, 263520, Note_off_c, 0, 46, 95
4, 263520, Note_on_c, 0, 47, 95
4, 264000, Note_off_c, 0, 47, 95
4, 264000, Note_on_c, 0, 50, 95
4, 264480, Note_off_c, 0, 50, 95
4, 264480, Note_on_c, 0, 51, 95
4, 264960, Note_off_c, 0, 51, 95
4, 264960, Note_on_c, 0, 52, 95
4, 265920, Note_off_c, 0, 52, 95
4, 266400, Note_on_c, 0, 52, 95
4, 266640, Note_off_c, 0, 52, 95
4, 266640, Note_on_c, 0, 50, 70
4, 266880, Note_off_c, 0, 50, 70
4, 266880, Note_on_c, 0, 47, 95
4, 267360, Note_off_c, 0, 47, 95
4, 267360, Note_on_c, 1, 55, 95
4, 267520, Pitch_bend_c, 1, 8192
4, 267680, Pitch_bend_c, 1, 8320
4, 267840, Pitch_bend_c, 1, 8192
4, 267840, Pitch_bend_c, 1, 8320
4, 267840, Pitch_bend_c, 1, 8192
4, 267840, Note_off_c, 1, 55, 95
4, 268320, Note_on_c, 0, 45, 95
4, 268800, Note_off_c, 0, 45, 95
4, 268800, Note_on_c, 0, 46, 95
4, 269280, Note_off_c, 0, 46, 95
4, 269280, Note_on_c, 0, 47, 95
4, 269760, Note_off_c, 0, 47, 95
4, 269760, Note_on_c, 0, 50, 95
4, 270240, Note_off_c, 0, 50, 95
4, 270240, Note_on_c, 0, 51, 95
4, 270720, Note_off_c, 0, 51, 95
4, 270720, Note_on_c, 0, 52, 95
4, 271680, Note_off_c, 0, 52, 95
4, 272160, Note_on_c, 0, 52, 95
4, 272400, Note_off_c, 0, 52, 95
4, 272400, Note_on_c, 0, 50, 70
4, 272640, Note_off_c, 0, 50, 70
4, 272640, Note_on_c, 0, 47, 95
4, 273120, Note_off_c, 0, 47, 95
4, 273120, Note_on_c, 1, 55, 95
4, 273280, Pitch_bend_c, 1, 8192
4, 273440, Pitch_bend_c, 1, 8320
4, 273600, Pitch_bend_c, 1, 8192
4, 273600, Pitch_bend_c, 1, 8320
4, 273600, Pitch_bend_c, 1, 8192
4, 273600, Note_off_c, 1, 55, 95
4, 274080, Note_on_c, 0, 45, 95
4, 274560, Note_off_c, 0, 45, 95
4, 274560, Note_on_c, 0, 46, 95
4, 275040, Note_off_c, 0, 46, 95
4, 275040, Note_on_c, 0, 47, 95
4, 275520, Note_off_c, 0, 47, 95
4, 275520, Note_on_c, 0, 50, 95
4, 276000, Note_off_c, 0, 50, 95
4, 276000, Note_on_c, 0, 51, 95
4, 276480, Note_off_c, 0, 51, 95
4, 276480, Note_on_c, 1, 52, 95
4, 277440, Note_off_c, 1, 52, 95
4, 277920, Note_on_c, 0, 52, 95
4, 278160, Note_off_c, 0, 52, 95
4, 278160, Note_on_c, 0, 50, 70
4, 278400, Note_off_c, 0, 50, 70
4, 278400, Note_on_c, 0, 47, 95
4, 278880, Note_off_c, 0, 47, 95
4, 278880, Note_on_c, 1, 55, 95
4, 279040, Pitch_bend_c, 1, 8192
4, 279200, Pitch_bend_c, 1, 8320
4, 279360, Pitch_bend_c, 1, 8192
4, 279360, Pitch_bend_c, 1, 8320
4, 279360, Pitch_bend_c, 1, 8192
4, 279360, Note_off_c, 1, 55, 95
4, 279840, Note_on_c, 0, 48, 95
4, 280320, Note_off_c, 0, 48, 95
4, 280320, Note_on_c, 0, 47, 95
4, 280800, Note_off_c, 0, 47, 95
4, 280800, Note_on_c, 0, 45, 95
4, 281280, Note_off_c, 0, 45, 95
4, 281280, Note_on_c, 0, 47, 95
4, 281760, Note_off_c, 0, 47, 95
4, 281760, Note_on_c, 0, 43, 95
4, 282240, Note_off_c, 0, 43, 95
4, 282240, Note_on_c, 1, 52, 95
4, 283200, Note_off_c, 1, 52, 95
4, 283680, Note_on_c, 0, 52, 95
4, 283920, Note_off_c, 0, 52, 95
4, 283920, Note_on_c, 0, 50, 70
4, 284160, Note_off_c, 0, 50, 70
4, 284160, Note_on_c, 0, 47, 95
4, 284640, Note_off_c, 0, 47, 95
4, 284640, Note_on_c, 1, 55, 95
4, 284800, Pitch_bend_c, 1, 8192
4, 284960, Pitch_bend_c, 1, 8320
4, 285120, Pitch_bend_c, 1, 8192
4, 285120, Pitch_bend_c, 1, 8320
4, 285120, Pitch_bend_c, 1, 8192
4, 285120, Note_off_c, 1, 55, 95
4, 285600, Note_on_c, 0, 48, 95
4, 286080, Note_off_c, 0, 48, 95
4, 286080, Note_on_c, 0, 47, 95
4, 286560, Note_off_c, 0, 47, 95
4, 286560, Note_on_c, 0, 45, 95
4, 287040, Note_off_c, 0, 45, 95
4, 287040, Note_on_c, 0, 47, 95
4, 287520, Note_off_c, 0, 47, 95
4, 287520, Note_on_c, 0, 43, 95
4, 288000, Note_off_c, 0, 43, 95
4, 288000, Note_on_c, 1, 52, 95
4, 288960, Note_off_c, 1, 52, 95
4, 289440, Note_on_c, 0, 52, 95
4, 289680, Note_off_c, 0, 52, 95
4, 289680, Note_on_c, 0, 50, 70
4, 289920, Note_off_c, 0, 50, 70
4, 289920, Note_on_c, 0, 47, 95
4, 290400, Note_off_c, 0, 47, 95
4, 290400, Note_on_c, 1, 55, 95
4, 290560, Pitch_bend_c, 1, 8192
4, 290720, Pitch_bend_c, 1, 8320
4, 290880, Pitch_bend_c, 1, 8192
4, 290880, Pitch_bend_c, 1, 8320
4, 290880, Pitch_bend_c, 1, 8192
4, 290880, Note_off_c, 1, 55, 95
4, 291360, Note_on_c, 0, 48, 95
4, 291840, Note_off_c, 0, 48, 95
4, 291840, Note_on_c, 0, 47, 95
4, 292320, Note_off_c, 0, 47, 95
4, 292320, Note_on_c, 0, 45, 95
4, 292800, Note_off_c, 0, 45, 95
4, 292800, Note_on_c, 0, 47, 95
4, 293280, Note_off_c, 0, 47, 95
4, 293280, Note_on_c, 0, 43, 95
4, 293760, Note_off_c, 0, 43, 95
4, 293760, Note_on_c, 1, 52, 95
4, 294720, Note_off_c, 1, 52, 95
4, 295200, Note_on_c, 0, 52, 95
4, 295440, Note_off_c, 0, 52, 95
4, 295440, Note_on_c, 0, 50, 70
4, 295680, Note_off_c, 0, 50, 70
4, 295680, Note_on_c, 0, 47, 95
4, 296160, Note_off_c, 0, 47, 95
4, 296160, Note_on_c, 1, 55, 95
4, 296320, Pitch_bend_c, 1, 8192
4, 296480, Pitch_bend_c, 1, 8320
4, 296640, Pitch_bend_c, 1, 8192
4, 296640, Pitch_bend_c, 1, 8320
4, 296640, Pitch_bend_c, 1, 8192
4, 296640, Note_off_c, 1, 55, 95
4, 297120, Note_on_c, 0, 48, 95
4, 297600, Note_off_c, 0, 48, 95
4, 297600, Note_on_c, 0, 47, 95
4, 298080, Note_off_c, 0, 47, 95
4, 298080, Note_on_c, 0, 45, 95
4, 299040, Note_off_c, 0, 45, 95
4, 299520, Note_on_c, 0, 45, 95
4, 300240, Note_off_c, 0, 45, 95
4, 300240, Note_on_c, 0, 61, 95
4, 300240, Note_on_c, 0, 57, 95
4, 300240, Note_on_c, 0, 52, 95
4, 300240, Note_on_c, 0, 45, 95
4, 300480, Note_off_c, 0, 61, 95
4, 300480, Note_off_c, 0, 57, 95
4, 300480, Note_off_c, 0, 52, 95
4, 300480, Note_off_c, 0, 45, 95
4, 300480, Note_on_c, 0, 61, 95
4, 300480, Note_on_c, 0, 57, 95
4, 300480, Note_on_c, 0, 52, 95
4, 300480, Note_on_c, 0, 45, 95
4, 300960, Note_off_c, 0, 61, 95
4, 300960, Note_off_c, 0, 57, 95
4, 300960, Note_off_c, 0, 52, 95
4, 300960, Note_off_c, 0, 45, 95
4, 300960, Note_on_c, 0, 61, 95
4, 300960, Note_on_c, 0, 57, 95
4, 300960, Note_on_c, 0, 52, 95
4, 300960, Note_on_c, 0, 45, 95
4, 301440, Note_off_c, 0, 61, 95
4, 301440, Note_off_c, 0, 57, 95
4, 301440, Note_off_c, 0, 52, 95
4, 301440, Note_off_c, 0, 45, 95
4, 301440, Note_on_c, 0, 61, 95
4, 301440, Note_on_c, 0, 57, 95
4, 301440, Note_on_c, 0, 52, 95
4, 301440, Note_on_c, 0, 45, 95
4, 301920, Note_off_c, 0, 61, 95
4, 301920, Note_off_c, 0, 57, 95
4, 301920, Note_off_c, 0, 52, 95
4, 301920, Note_off_c, 0, 45, 95
4, 301920, Note_on_c, 0, 61, 95
4, 301920, Note_on_c, 0, 57, 95
4, 301920, Note_on_c, 0, 52, 95
4, 301920, Note_on_c, 0, 45, 95
4, 302400, Note_off_c, 0, 61, 95
4, 302400, Note_off_c, 0, 57, 95
4, 302400, Note_off_c, 0, 52, 95
4, 302400, Note_off_c, 0, 45, 95
4, 302400, Note_on_c, 0, 40, 95
4, 303120, Note_off_c, 0, 40, 95
4, 303120, Note_on_c, 0, 68, 95
4, 303120, Note_on_c, 0, 64, 95
4, 303120, Note_on_c, 0, 59, 95
4, 303120, Note_on_c, 0, 52, 95
4, 303360, Note_off_c, 0, 68, 95
4, 303360, Note_off_c, 0, 64, 95
4, 303360, Note_off_c, 0, 59, 95
4, 303360, Note_off_c, 0, 52, 95
4, 303360, Note_on_c, 0, 68, 95
4, 303360, Note_on_c, 0, 64, 95
4, 303360, Note_on_c, 0, 59, 95
4, 303360, Note_on_c, 0, 52, 95
4, 303840, Note_off_c, 0, 68, 95
4, 303840, Note_off_c, 0, 64, 95
4, 303840, Note_off_c, 0, 59, 95
4, 303840, Note_off_c, 0, 52, 95
4, 303840, Note_on_c, 0, 68, 95
4, 303840, Note_on_c, 0, 64, 95
4, 303840, Note_on_c, 0, 59, 95
4, 303840, Note_on_c, 0, 52, 95
4, 304320, Note_off_c, 0, 68, 95
4, 304320, Note_off_c, 0, 64, 95
4, 304320, Note_off_c, 0, 59, 95
4, 304320, Note_off_c, 0, 52, 95
4, 304320, Note_on_c, 0, 68, 95
4, 304320, Note_on_c, 0, 64, 95
4, 304320, Note_on_c, 0, 59, 95
4, 304320, Note_on_c, 0, 52, 95
4, 304800, Note_off_c, 0, 68, 95
4, 304800, Note_off_c, 0, 64, 95
4, 304800, Note_off_c, 0, 59, 95
4, 304800, Note_off_c, 0, 52, 95
4, 304800, Note_on_c, 0, 68, 95
4, 304800, Note_on_c, 0, 64, 95
4, 304800, Note_on_c, 0, 59, 95
4, 304800, Note_on_c, 0, 52, 95
4, 305280, Note_off_c, 0, 68, 95
4, 305280, Note_off_c, 0, 64, 95
4, 305280, Note_off_c, 0, 59, 95
4, 305280, Note_off_c, 0, 52, 95
4, 305280, Note_on_c, 0, 48, 95
4, 306000, Note_off_c, 0, 48, 95
4, 306000, Note_on_c, 0, 64, 95
4, 306000, Note_on_c, 0, 60, 95
4, 306000, Note_on_c, 0, 55, 95
4, 306000, Note_on_c, 0, 48, 95
4, 306240, Note_off_c, 0, 64, 95
4, 306240, Note_off_c, 0, 60, 95
4, 306240, Note_off_c, 0, 55, 95
4, 306240, Note_off_c, 0, 48, 95
4, 306240, Note_on_c, 0, 64, 95
4, 306240, Note_on_c, 0, 60, 95
4, 306240, Note_on_c, 0, 55, 95
4, 306240, Note_on_c, 0, 48, 95
4, 306720, Note_off_c, 0, 64, 95
4, 306720, Note_off_c, 0, 60, 95
4, 306720, Note_off_c, 0, 55, 95
4, 306720, Note_off_c, 0, 48, 95
4, 306720, Note_on_c, 0, 64, 95
4, 306720, Note_on_c, 0, 60, 95
4, 306720, Note_on_c, 0, 55, 95
4, 306720, Note_on_c, 0, 48, 95
4, 307200, Note_off_c, 0, 64, 95
4, 307200, Note_off_c, 0, 60, 95
4, 307200, Note_off_c, 0, 55, 95
4, 307200, Note_off_c, 0, 48, 95
4, 307200, Note_on_c, 0, 64, 95
4, 307200, Note_on_c, 0, 60, 95
4, 307200, Note_on_c, 0, 55, 95
4, 307200, Note_on_c, 0, 48, 95
4, 307680, Note_off_c, 0, 64, 95
4, 307680, Note_off_c, 0, 60, 95
4, 307680, Note_off_c, 0, 55, 95
4, 307680, Note_off_c, 0, 48, 95
4, 307680, Note_on_c, 0, 64, 95
4, 307680, Note_on_c, 0, 60, 95
4, 307680, Note_on_c, 0, 55, 95
4, 307680, Note_on_c, 0, 48, 95
4, 308160, Note_off_c, 0, 64, 95
4, 308160, Note_off_c, 0, 60, 95
4, 308160, Note_off_c, 0, 55, 95
4, 308160, Note_off_c, 0, 48, 95
4, 308160, Note_on_c, 0, 40, 95
4, 308880, Note_off_c, 0, 40, 95
4, 308880, Note_on_c, 0, 68, 95
4, 308880, Note_on_c, 0, 64, 95
4, 308880, Note_on_c, 0, 59, 95
4, 308880, Note_on_c, 0, 52, 95
4, 309120, Note_off_c, 0, 68, 95
4, 309120, Note_off_c, 0, 64, 95
4, 309120, Note_off_c, 0, 59, 95
4, 309120, Note_off_c, 0, 52, 95
4, 309120, Note_on_c, 0, 68, 95
4, 309120, Note_on_c, 0, 64, 95
4, 309120, Note_on_c, 0, 59, 95
4, 309120, Note_on_c, 0, 52, 95
4, 309600, Note_off_c, 0, 68, 95
4, 309600, Note_off_c, 0, 64, 95
4, 309600, Note_off_c, 0, 59, 95
4, 309600, Note_off_c, 0, 52, 95
4, 309600, Note_on_c, 0, 68, 95
4, 309600, Note_on_c, 0, 64, 95
4, 309600, Note_on_c, 0, 59, 95
4, 309600, Note_on_c, 0, 52, 95
4, 310080, Note_off_c, 0, 68, 95
4, 310080, Note_off_c, 0, 64, 95
4, 310080, Note_off_c, 0, 59, 95
4, 310080, Note_off_c, 0, 52, 95
4, 310080, Note_on_c, 0, 68, 95
4, 310080, Note_on_c, 0, 64, 95
4, 310080, Note_on_c, 0, 59, 95
4, 310080, Note_on_c, 0, 52, 95
4, 310560, Note_off_c, 0, 68, 95
4, 310560, Note_off_c, 0, 64, 95
4, 310560, Note_off_c, 0, 59, 95
4, 310560, Note_off_c, 0, 52, 95
4, 310560, Note_on_c, 0, 68, 95
4, 310560, Note_on_c, 0, 64, 95
4, 310560, Note_on_c, 0, 59, 95
4, 310560, Note_on_c, 0, 52, 95
4, 311040, Note_off_c, 0, 68, 95
4, 311040, Note_off_c, 0, 64, 95
4, 311040, Note_off_c, 0, 59, 95
4, 311040, Note_off_c, 0, 52, 95
4, 311040, Note_on_c, 0, 43, 95
4, 311760, Note_off_c, 0, 43, 95
4, 311760, Note_on_c, 0, 59, 95
4, 311760, Note_on_c, 0, 55, 95
4, 311760, Note_on_c, 0, 50, 95
4, 311760, Note_on_c, 0, 43, 95
4, 312000, Note_off_c, 0, 59, 95
4, 312000, Note_off_c, 0, 55, 95
4, 312000, Note_off_c, 0, 50, 95
4, 312000, Note_off_c, 0, 43, 95
4, 312000, Note_on_c, 0, 59, 95
4, 312000, Note_on_c, 0, 55, 95
4, 312000, Note_on_c, 0, 50, 95
4, 312000, Note_on_c, 0, 43, 95
4, 312480, Note_off_c, 0, 59, 95
4, 312480, Note_off_c, 0, 55, 95
4, 312480, Note_off_c, 0, 50, 95
4, 312480, Note_off_c, 0, 43, 95
4, 312480, Note_on_c, 0, 59, 95
4, 312480, Note_on_c, 0, 55, 95
4, 312480, Note_on_c, 0, 50, 95
4, 312480, Note_on_c, 0, 43, 95
4, 312960, Note_off_c, 0, 59, 95
4, 312960, Note_off_c, 0, 55, 95
4, 312960, Note_off_c, 0, 50, 95
4, 312960, Note_off_c, 0, 43, 95
4, 312960, Note_on_c, 0, 59, 95
4, 312960, Note_on_c, 0, 55, 95
4, 312960, Note_on_c, 0, 50, 95
4, 312960, Note_on_c, 0, 43, 95
4, 313440, Note_off_c, 0, 59, 95
4, 313440, Note_off_c, 0, 55, 95
4, 313440, Note_off_c, 0, 50, 95
4, 313440, Note_off_c, 0, 43, 95
4, 313440, Note_on_c, 0, 59, 95
4, 313440, Note_on_c, 0, 55, 95
4, 313440, Note_on_c, 0, 50, 95
4, 313440, Note_on_c, 0, 43, 95
4, 313920, Note_off_c, 0, 59, 95
4, 313920, Note_off_c, 0, 55, 95
4, 313920, Note_off_c, 0, 50, 95
4, 313920, Note_off_c, 0, 43, 95
4, 313920, Note_on_c, 0, 45, 95
4, 314640, Note_off_c, 0, 45, 95
4, 314640, Note_on_c, 0, 61, 95
4, 314640, Note_on_c, 0, 57, 95
4, 314640, Note_on_c, 0, 52, 95
4, 314640, Note_on_c, 0, 45, 95
4, 314880, Note_off_c, 0, 61, 95
4, 314880, Note_off_c, 0, 57, 95
4, 314880, Note_off_c, 0, 52, 95
4, 314880, Note_off_c, 0, 45, 95
4, 314880, Note_on_c, 0, 61, 95
4, 314880, Note_on_c, 0, 57, 95
4, 314880, Note_on_c, 0, 52, 95
4, 314880, Note_on_c, 0, 45, 95
4, 315360, Note_off_c, 0, 61, 95
4, 315360, Note_off_c, 0, 57, 95
4, 315360, Note_off_c, 0, 52, 95
4, 315360, Note_off_c, 0, 45, 95
4, 315360, Note_on_c, 0, 61, 95
4, 315360, Note_on_c, 0, 57, 95
4, 315360, Note_on_c, 0, 52, 95
4, 315360, Note_on_c, 0, 45, 95
4, 315840, Note_off_c, 0, 61, 95
4, 315840, Note_off_c, 0, 57, 95
4, 315840, Note_off_c, 0, 52, 95
4, 315840, Note_off_c, 0, 45, 95
4, 315840, Note_on_c, 0, 61, 95
4, 315840, Note_on_c, 0, 57, 95
4, 315840, Note_on_c, 0, 52, 95
4, 315840, Note_on_c, 0, 45, 95
4, 316320, Note_off_c, 0, 61, 95
4, 316320, Note_off_c, 0, 57, 95
4, 316320, Note_off_c, 0, 52, 95
4, 316320, Note_off_c, 0, 45, 95
4, 316320, Note_on_c, 0, 61, 95
4, 316320, Note_on_c, 0, 57, 95
4, 316320, Note_on_c, 0, 52, 95
4, 316320, Note_on_c, 0, 45, 95
4, 316800, Note_off_c, 0, 61, 95
4, 316800, Note_off_c, 0, 57, 95
4, 316800, Note_off_c, 0, 52, 95
4, 316800, Note_off_c, 0, 45, 95
4, 316800, Note_on_c, 1, 52, 95
4, 316960, Pitch_bend_c, 1, 8192
4, 317120, Pitch_bend_c, 1, 8320
4, 317280, Pitch_bend_c, 1, 8192
4, 317440, Pitch_bend_c, 1, 8320
4, 317600, Pitch_bend_c, 1, 8192
4, 317760, Pitch_bend_c, 1, 8320
4, 317920, Pitch_bend_c, 1, 8192
4, 318080, Pitch_bend_c, 1, 8320
4, 318240, Pitch_bend_c, 1, 8192
4, 318240, Pitch_bend_c, 1, 8320
4, 318240, Pitch_bend_c, 1, 8192
4, 318240, Note_off_c, 1, 52, 95
4, 318240, Note_on_c, 0, 52, 95
4, 318480, Note_off_c, 0, 52, 95
4, 318480, Note_on_c, 0, 50, 70
4, 318720, Note_off_c, 0, 50, 70
4, 318720, Note_on_c, 0, 47, 95
4, 319200, Note_off_c, 0, 47, 95
4, 319200, Note_on_c, 0, 55, 95
4, 319680, Note_off_c, 0, 55, 95
4, 319680, Note_on_c, 0, 45, 95
4, 320160, Note_off_c, 0, 45, 95
4, 320160, Note_on_c, 0, 46, 95
4, 320640, Note_off_c, 0, 46, 95
4, 320640, Note_on_c, 0, 47, 95
4, 321120, Note_off_c, 0, 47, 95
4, 321120, Note_on_c, 0, 50, 95
4, 321600, Note_off_c, 0, 50, 95
4, 321600, Note_on_c, 0, 51, 95
4, 322080, Note_off_c, 0, 51, 95
4, 322080, Note_on_c, 0, 52, 95
4, 322560, Note_off_c, 0, 52, 95
4, 322560, Note_on_c, 0, 43, 95
4, 323280, Note_off_c, 0, 43, 95
4, 323280, Note_on_c, 0, 59, 95
4, 323280, Note_on_c, 0, 55, 95
4, 323280, Note_on_c, 0, 50, 95
4, 323280, Note_on_c, 0, 43, 95
4, 323520, Note_off_c, 0, 59, 95
4, 323520, Note_off_c, 0, 55, 95
4, 323520, Note_off_c, 0, 50, 95
4, 323520, Note_off_c, 0, 43, 95
4, 323520, Note_on_c, 0, 59, 95
4, 323520, Note_on_c, 0, 55, 95
4, 323520, Note_on_c, 0, 50, 95
4, 323520, Note_on_c, 0, 43, 95
4, 324000, Note_off_c, 0, 59, 95
4, 324000, Note_off_c, 0, 55, 95
4, 324000, Note_off_c, 0, 50, 95
4, 324000, Note_off_c, 0, 43, 95
4, 324000, Note_on_c, 0, 59, 95
4, 324000, Note_on_c, 0, 55, 95
4, 324000, Note_on_c, 0, 50, 95
4, 324000, Note_on_c, 0, 43, 95
4, 324480, Note_off_c, 0, 59, 95
4, 324480, Note_off_c, 0, 55, 95
4, 324480, Note_off_c, 0, 50, 95
4, 324480, Note_off_c, 0, 43, 95
4, 324480, Note_on_c, 0, 59, 95
4, 324480, Note_on_c, 0, 55, 95
4, 324480, Note_on_c, 0, 50, 95
4, 324480, Note_on_c, 0, 43, 95
4, 324960, Note_off_c, 0, 59, 95
4, 324960, Note_off_c, 0, 55, 95
4, 324960, Note_off_c, 0, 50, 95
4, 324960, Note_off_c, 0, 43, 95
4, 324960, Note_on_c, 0, 59, 95
4, 324960, Note_on_c, 0, 55, 95
4, 324960, Note_on_c, 0, 50, 95
4, 324960, Note_on_c, 0, 43, 95
4, 325440, Note_off_c, 0, 59, 95
4, 325440, Note_off_c, 0, 55, 95
4, 325440, Note_off_c, 0, 50, 95
4, 325440, Note_off_c, 0, 43, 95
4, 325440, Note_on_c, 0, 45, 95
4, 326160, Note_off_c, 0, 45, 95
4, 326160, Note_on_c, 0, 61, 95
4, 326160, Note_on_c, 0, 57, 95
4, 326160, Note_on_c, 0, 52, 95
4, 326160, Note_on_c, 0, 45, 95
4, 326400, Note_off_c, 0, 61, 95
4, 326400, Note_off_c, 0, 57, 95
4, 326400, Note_off_c, 0, 52, 95
4, 326400, Note_off_c, 0, 45, 95
4, 326400, Note_on_c, 0, 61, 95
4, 326400, Note_on_c, 0, 57, 95
4, 326400, Note_on_c, 0, 52, 95
4, 326400, Note_on_c, 0, 45, 95
4, 326880, Note_off_c, 0, 61, 95
4, 326880, Note_off_c, 0, 57, 95
4, 326880, Note_off_c, 0, 52, 95
4, 326880, Note_off_c, 0, 45, 95
4, 326880, Note_on_c, 0, 61, 95
4, 326880, Note_on_c, 0, 57, 95
4, 326880, Note_on_c, 0, 52, 95
4, 326880, Note_on_c, 0, 45, 95
4, 327360, Note_off_c, 0, 61, 95
4, 327360, Note_off_c, 0, 57, 95
4, 327360, Note_off_c, 0, 52, 95
4, 327360, Note_off_c, 0, 45, 95
4, 327360, Note_on_c, 0, 61, 95
4, 327360, Note_on_c, 0, 57, 95
4, 327360, Note_on_c, 0, 52, 95
4, 327360, Note_on_c, 0, 45, 95
4, 327840, Note_off_c, 0, 61, 95
4, 327840, Note_off_c, 0, 57, 95
4, 327840, Note_off_c, 0, 52, 95
4, 327840, Note_off_c, 0, 45, 95
4, 327840, Note_on_c, 0, 61, 95
4, 327840, Note_on_c, 0, 57, 95
4, 327840, Note_on_c, 0, 52, 95
4, 327840, Note_on_c, 0, 45, 95
4, 328320, Note_off_c, 0, 61, 95
4, 328320, Note_off_c, 0, 57, 95
4, 328320, Note_off_c, 0, 52, 95
4, 328320, Note_off_c, 0, 45, 95
4, 328320, Note_on_c, 1, 52, 95
4, 328480, Pitch_bend_c, 1, 8192
4, 328640, Pitch_bend_c, 1, 8320
4, 328800, Pitch_bend_c, 1, 8192
4, 328960, Pitch_bend_c, 1, 8320
4, 329120, Pitch_bend_c, 1, 8192
4, 329280, Pitch_bend_c, 1, 8320
4, 329440, Pitch_bend_c, 1, 8192
4, 329600, Pitch_bend_c, 1, 8320
4, 329760, Pitch_bend_c, 1, 8192
4, 329760, Pitch_bend_c, 1, 8320
4, 329760, Pitch_bend_c, 1, 8192
4, 329760, Note_off_c, 1, 52, 95
4, 329760, Note_on_c, 0, 52, 95
4, 330000, Note_off_c, 0, 52, 95
4, 330000, Note_on_c, 0, 50, 70
4, 330240, Note_off_c, 0, 50, 70
4, 330240, Note_on_c, 0, 47, 95
4, 330720, Note_off_c, 0, 47, 95
4, 330720, Note_on_c, 0, 55, 95
4, 331200, Note_off_c, 0, 55, 95
4, 331200, Note_on_c, 0, 45, 95
4, 331680, Note_off_c, 0, 45, 95
4, 331680, Note_on_c, 0, 46, 95
4, 332160, Note_off_c, 0, 46, 95
4, 332160, Note_on_c, 0, 47, 95
4, 332640, Note_off_c, 0, 47, 95
4, 332640, Note_on_c, 0, 50, 95
4, 333120, Note_off_c, 0, 50, 95
4, 333120, Note_on_c, 0, 51, 95
4, 333600, Note_off_c, 0, 51, 95
4, 333600, Note_on_c, 0, 52, 95
4, 334080, Note_off_c, 0, 52, 95
4, 334080, Note_on_c, 0, 43, 95
4, 334800, Note_off_c, 0, 43, 95
4, 334800, Note_on_c, 0, 59, 95
4, 334800, Note_on_c, 0, 55, 95
4, 334800, Note_on_c, 0, 50, 95
4, 334800, Note_on_c, 0, 43, 95
4, 335040, Note_off_c, 0, 59, 95
4, 335040, Note_off_c, 0, 55, 95
4, 335040, Note_off_c, 0, 50, 95
4, 335040, Note_off_c, 0, 43, 95
4, 335040, Note_on_c, 0, 59, 95
4, 335040, Note_on_c, 0, 55, 95
4, 335040, Note_on_c, 0, 50, 95
4, 335040, Note_on_c, 0, 43, 95
4, 335520, Note_off_c, 0, 59, 95
4, 335520, Note_off_c, 0, 55, 95
4, 335520, Note_off_c, 0, 50, 95
4, 335520, Note_off_c, 0, 43, 95
4, 335520, Note_on_c, 0, 59, 95
4, 335520, Note_on_c, 0, 55, 95
4, 335520, Note_on_c, 0, 50, 95
4, 335520, Note_on_c, 0, 43, 95
4, 336000, Note_off_c, 0, 59, 95
4, 336000, Note_off_c, 0, 55, 95
4, 336000, Note_off_c, 0, 50, 95
4, 336000, Note_off_c, 0, 43, 95
4, 336000, Note_on_c, 0, 59, 95
4, 336000, Note_on_c, 0, 55, 95
4, 336000, Note_on_c, 0, 50, 95
4, 336000, Note_on_c, 0, 43, 95
4, 336480, Note_off_c, 0, 59, 95
4, 336480, Note_off_c, 0, 55, 95
4, 336480, Note_off_c, 0, 50, 95
4, 336480, Note_off_c, 0, 43, 95
4, 336480, Note_on_c, 0, 59, 95
4, 336480, Note_on_c, 0, 55, 95
4, 336480, Note_on_c, 0, 50, 95
4, 336480, Note_on_c, 0, 43, 95
4, 336960, Note_off_c, 0, 59, 95
4, 336960, Note_off_c, 0, 55, 95
4, 336960, Note_off_c, 0, 50, 95
4, 336960, Note_off_c, 0, 43, 95
4, 336960, Note_on_c, 0, 45, 95
4, 337680, Note_off_c, 0, 45, 95
4, 337680, Note_on_c, 0, 61, 95
4, 337680, Note_on_c, 0, 57, 95
4, 337680, Note_on_c, 0, 52, 95
4, 337680, Note_on_c, 0, 45, 95
4, 337920, Note_off_c, 0, 61, 95
4, 337920, Note_off_c, 0, 57, 95
4, 337920, Note_off_c, 0, 52, 95
4, 337920, Note_off_c, 0, 45, 95
4, 337920, Note_on_c, 0, 61, 95
4, 337920, Note_on_c, 0, 57, 95
4, 337920, Note_on_c, 0, 52, 95
4, 337920, Note_on_c, 0, 45, 95
4, 338400, Note_off_c, 0, 61, 95
4, 338400, Note_off_c, 0, 57, 95
4, 338400, Note_off_c, 0, 52, 95
4, 338400, Note_off_c, 0, 45, 95
4, 338400, Note_on_c, 0, 61, 95
4, 338400, Note_on_c, 0, 57, 95
4, 338400, Note_on_c, 0, 52, 95
4, 338400, Note_on_c, 0, 45, 95
4, 338880, Note_off_c, 0, 61, 95
4, 338880, Note_off_c, 0, 57, 95
4, 338880, Note_off_c, 0, 52, 95
4, 338880, Note_off_c, 0, 45, 95
4, 338880, Note_on_c, 0, 61, 95
4, 338880, Note_on_c, 0, 57, 95
4, 338880, Note_on_c, 0, 52, 95
4, 338880, Note_on_c, 0, 45, 95
4, 339360, Note_off_c, 0, 61, 95
4, 339360, Note_off_c, 0, 57, 95
4, 339360, Note_off_c, 0, 52, 95
4, 339360, Note_off_c, 0, 45, 95
4, 339360, Note_on_c, 0, 61, 95
4, 339360, Note_on_c, 0, 57, 95
4, 339360, Note_on_c, 0, 52, 95
4, 339360, Note_on_c, 0, 45, 95
4, 339840, Note_off_c, 0, 61, 95
4, 339840, Note_off_c, 0, 57, 95
4, 339840, Note_off_c, 0, 52, 95
4, 339840, Note_off_c, 0, 45, 95
4, 339840, Note_on_c, 0, 64, 95
4, 339840, Note_on_c, 0, 60, 95
4, 339840, Note_on_c, 0, 55, 95
4, 339840, Note_on_c, 0, 48, 95
4, 345600, Note_off_c, 0, 64, 95
4, 345600, Note_off_c, 0, 60, 95
4, 345600, Note_off_c, 0, 55, 95
4, 345600, Note_off_c, 0, 48, 95
4, 348960, Note_on_c, 0, 45, 95
4, 349440, Note_off_c, 0, 45, 95
4, 349440, Note_on_c, 0, 46, 95
4, 349920, Note_off_c, 0, 46, 95
4, 349920, Note_on_c, 0, 47, 95
4, 350400, Note_off_c, 0, 47, 95
4, 350400, Note_on_c, 0, 50, 95
4, 350880, Note_off_c, 0, 50, 95
4, 350880, Note_on_c, 0, 51, 95
4, 351360, Note_off_c, 0, 51, 95
4, 351360, Note_on_c, 1, 52, 95
4, 351520, Pitch_bend_c, 1, 8192
4, 351680, Pitch_bend_c, 1, 8320
4, 351840, Pitch_bend_c, 1, 8192
4, 352000, Pitch_bend_c, 1, 8320
4, 352160, Pitch_bend_c, 1, 8192
4, 352320, Pitch_bend_c, 1, 8320
4, 352480, Pitch_bend_c, 1, 8192
4, 352640, Pitch_bend_c, 1, 8320
4, 352800, Pitch_bend_c, 1, 8192
4, 352800, Pitch_bend_c, 1, 8320
4, 352800, Pitch_bend_c, 1, 8192
4, 352800, Note_off_c, 1, 52, 95
4, 352800, Note_on_c, 0, 52, 95
4, 353040, Note_off_c, 0, 52, 95
4, 353040, Note_on_c, 0, 50, 70
4, 353280, Note_off_c, 0, 50, 70
4, 353280, Note_on_c, 0, 47, 95
4, 353760, Note_off_c, 0, 47, 95
4, 353760, Note_on_c, 0, 55, 95
4, 354240, Note_off_c, 0, 55, 95
4, 354480, Note_on_c, 1, 64, 95
4, 354640, Pitch_bend_c, 1, 8192
4, 354800, Pitch_bend_c, 1, 8320
4, 354960, Pitch_bend_c, 1, 8192
4, 355120, Pitch_bend_c, 1, 8320
4, 355200, Pitch_bend_c, 1, 8192
4, 355200, Pitch_bend_c, 1, 8320
4, 355200, Pitch_bend_c, 1, 8192
4, 355200, Note_off_c, 1, 64, 95
4, 355200, Note_on_c, 0, 67, 95
4, 355440, Note_off_c, 0, 67, 95
4, 355440, Note_on_c, 0, 69, 70
4, 355680, Note_off_c, 0, 69, 70
4, 355680, Pitch_bend_c, 1, 8192
4, 355680, Note_on_c, 1, 69, 95
4, 355723, Pitch_bend_c, 1, 8320
4, 355766, Pitch_bend_c, 1, 8448
4, 355809, Pitch_bend_c, 1, 8576
4, 355852, Pitch_bend_c, 1, 8704
4, 355895, Pitch_bend_c, 1, 8832
4, 355938, Pitch_bend_c, 1, 8960
4, 355981, Pitch_bend_c, 1, 9088
4, 356024, Pitch_bend_c, 1, 9216
4, 356067, Pitch_bend_c, 1, 9344
4, 356110, Pitch_bend_c, 1, 9472
4, 356153, Pitch_bend_c, 1, 9600
4, 356160, Pitch_bend_c, 1, 9600
4, 356640, Pitch_bend_c, 1, 9600
4, 356640, Pitch_bend_c, 1, 8192
4, 356640, Note_off_c, 1, 69, 95
4, 356640, Note_on_c, 0, 67, 95
4, 356800, Note_off_c, 0, 67, 95
4, 356800, Note_on_c, 0, 69, 95
4, 356960, Note_off_c, 0, 69, 95
4, 356960, Note_on_c, 0, 67, 95
4, 357120, Note_off_c, 0, 67, 95
4, 357120, Note_on_c, 0, 67, 95
4, 357440, Note_off_c, 0, 67, 95
4, 357440, Note_on_c, 0, 64, 95
4, 357600, Note_off_c, 0, 64, 95
4, 357600, Note_on_c, 0, 64, 95
4, 357760, Note_off_c, 0, 64, 95
4, 357760, Note_on_c, 0, 62, 70
4, 357920, Note_off_c, 0, 62, 70
4, 357920, Note_on_c, 0, 59, 95
4, 358080, Note_off_c, 0, 59, 95
4, 358080, Note_on_c, 0, 62, 95
4, 358400, Note_off_c, 0, 62, 95
4, 358400, Note_on_c, 1, 59, 95
4, 358560, Pitch_bend_c, 1, 8192
4, 358720, Pitch_bend_c, 1, 8320
4, 358880, Pitch_bend_c, 1, 8192
4, 359040, Pitch_bend_c, 1, 8320
4, 359200, Pitch_bend_c, 1, 8192
4, 359360, Pitch_bend_c, 1, 8320
4, 359520, Pitch_bend_c, 1, 8192
4, 359680, Pitch_bend_c, 1, 8320
4, 359840, Pitch_bend_c, 1, 8192
4, 360000, Pitch_bend_c, 1, 8320
4, 360000, Pitch_bend_c, 1, 8192
4, 360000, Note_off_c, 1, 59, 95
4, 360000, Note_on_c, 0, 64, 95
4, 360000, Note_on_c, 0, 59, 95
4, 360000, Note_on_c, 0, 52, 95
4, 360000, Note_on_c, 0, 40, 95
4, 360120, Note_off_c, 0, 64, 95
4, 360120, Note_on_c, 0, 64, 95
4, 360240, Note_off_c, 0, 64, 95
4, 360240, Note_on_c, 0, 64, 95
4, 360360, Note_off_c, 0, 64, 95
4, 360360, Note_on_c, 0, 64, 95
4, 360480, Note_off_c, 0, 64, 95
4, 360480, Note_on_c, 0, 64, 95
4, 360600, Note_off_c, 0, 64, 95
4, 360600, Note_on_c, 0, 64, 95
4, 360720, Note_off_c, 0, 64, 95
4, 360720, Note_on_c, 0, 64, 95
4, 360840, Note_off_c, 0, 64, 95
4, 360840, Note_on_c, 0, 64, 95
4, 360960, Note_off_c, 0, 64, 95
4, 360960, Note_on_c, 0, 64, 95
4, 361080, Note_off_c, 0, 64, 95
4, 361080, Note_on_c, 0, 64, 95
4, 361200, Note_off_c, 0, 64, 95
4, 361200, Note_on_c, 0, 64, 95
4, 361320, Note_off_c, 0, 64, 95
4, 361320, Note_on_c, 0, 64, 95
4, 361440, Note_off_c, 0, 64, 95
4, 361440, Note_on_c, 0, 64, 95
4, 361560, Note_off_c, 0, 64, 95
4, 361560, Note_on_c, 0, 64, 95
4, 361680, Note_off_c, 0, 64, 95
4, 361680, Note_on_c, 0, 64, 95
4, 361800, Note_off_c, 0, 64, 95
4, 361800, Note_on_c, 0, 64, 95
4, 361920, Note_off_c, 0, 64, 95
4, 361920, Note_on_c, 0, 64, 95
4, 362040, Note_off_c, 0, 64, 95
4, 362040, Note_on_c, 0, 64, 95
4, 362160, Note_off_c, 0, 64, 95
4, 362160, Note_on_c, 0, 64, 95
4, 362280, Note_off_c, 0, 64, 95
4, 362280, Note_on_c, 0, 64, 95
4, 362400, Note_off_c, 0, 64, 95
4, 362400, Note_on_c, 0, 64, 95
4, 362520, Note_off_c, 0, 64, 95
4, 362520, Note_on_c, 0, 64, 95
4, 362640, Note_off_c, 0, 64, 95
4, 362640, Note_on_c, 0, 64, 95
4, 362760, Note_off_c, 0, 64, 95
4, 362760, Note_on_c, 0, 64, 95
4, 362879, Note_off_c, 0, 64, 95
4, 362880, Note_off_c, 0, 59, 95
4, 362880, Note_off_c, 0, 52, 95
4, 362880, Note_off_c, 0, 40, 95
4, 362880, Note_on_c, 0, 64, 95
4, 362880, Note_on_c, 0, 59, 95
4, 362880, Note_on_c, 0, 52, 95
4, 362880, Note_on_c, 0, 40, 95
4, 363000, Note_off_c, 0, 64, 95
4, 363000, Note_on_c, 0, 64, 95
4, 363120, Note_off_c, 0, 64, 95
4, 363120, Note_on_c, 0, 64, 95
4, 363240, Note_off_c, 0, 64, 95
4, 363240, Note_on_c, 0, 64, 95
4, 363360, Note_off_c, 0, 64, 95
4, 363360, Note_on_c, 0, 64, 95
4, 363480, Note_off_c, 0, 64, 95
4, 363480, Note_on_c, 0, 64, 95
4, 363600, Note_off_c, 0, 64, 95
4, 363600, Note_on_c, 0, 64, 95
4, 363720, Note_off_c, 0, 64, 95
4, 363720, Note_on_c, 0, 64, 95
4, 363840, Note_off_c, 0, 64, 95
4, 363840, Note_on_c, 0, 64, 95
4, 363960, Note_off_c, 0, 64, 95
4, 363960, Note_on_c, 0, 64, 95
4, 364080, Note_off_c, 0, 64, 95
4, 364080, Note_on_c, 0, 64, 95
4, 364200, Note_off_c, 0, 64, 95
4, 364200, Note_on_c, 0, 64, 95
4, 364320, Note_off_c, 0, 64, 95
4, 364320, Note_on_c, 0, 64, 95
4, 364440, Note_off_c, 0, 64, 95
4, 364440, Note_on_c, 0, 64, 95
4, 364560, Note_off_c, 0, 64, 95
4, 364560, Note_on_c, 0, 64, 95
4, 364680, Note_off_c, 0, 64, 95
4, 364680, Note_on_c, 0, 64, 95
4, 364800, Note_off_c, 0, 64, 95
4, 364800, Note_on_c, 0, 64, 95
4, 364920, Note_off_c, 0, 64, 95
4, 364920, Note_on_c, 0, 64, 95
4, 365040, Note_off_c, 0, 64, 95
4, 365040, Note_on_c, 0, 64, 95
4, 365160, Note_off_c, 0, 64, 95
4, 365160, Note_on_c, 0, 64, 95
4, 365280, Note_off_c, 0, 64, 95
4, 365280, Note_on_c, 0, 64, 95
4, 365400, Note_off_c, 0, 64, 95
4, 365400, Note_on_c, 0, 64, 95
4, 365520, Note_off_c, 0, 64, 95
4, 365520, Note_on_c, 0, 64, 95
4, 365640, Note_off_c, 0, 64, 95
4, 365640, Note_on_c, 0, 64, 95
4, 365760, Note_off_c, 0, 64, 95
4, 365760, Note_on_c, 0, 64, 95
4, 365880, Note_off_c, 0, 64, 95
4, 365880, Note_on_c, 0, 64, 95
4, 366000, Note_off_c, 0, 64, 95
4, 366000, Note_on_c, 0, 64, 95
4, 366120, Note_off_c, 0, 64, 95
4, 366120, Note_on_c, 0, 64, 95
4, 366240, Note_off_c, 0, 64, 95
4, 366240, Note_on_c, 0, 64, 95
4, 366360, Note_off_c, 0, 64, 95
4, 366360, Note_on_c, 0, 64, 95
4, 366480, Note_off_c, 0, 64, 95
4, 366480, Note_on_c, 0, 64, 95
4, 366600, Note_off_c, 0, 64, 95
4, 366600, Note_on_c, 0, 64, 95
4, 366720, Note_off_c, 0, 64, 95
4, 366720, Note_on_c, 0, 64, 95
4, 366840, Note_off_c, 0, 64, 95
4, 366840, Note_on_c, 0, 64, 95
4, 366960, Note_off_c, 0, 64, 95
4, 366960, Note_on_c, 0, 64, 95
4, 367080, Note_off_c, 0, 64, 95
4, 367080, Note_on_c, 0, 64, 95
4, 367200, Note_off_c, 0, 64, 95
4, 367200, Note_on_c, 0, 64, 95
4, 367320, Note_off_c, 0, 64, 95
4, 367320, Note_on_c, 0, 64, 95
4, 367440, Note_off_c, 0, 64, 95
4, 367440, Note_on_c, 0, 64, 95
4, 367560, Note_off_c, 0, 64, 95
4, 367560, Note_on_c, 0, 64, 95
4, 367680, Note_off_c, 0, 64, 95
4, 367680, Note_on_c, 0, 64, 95
4, 367800, Note_off_c, 0, 64, 95
4, 367800, Note_on_c, 0, 64, 95
4, 367920, Note_off_c, 0, 64, 95
4, 367920, Note_on_c, 0, 64, 95
4, 368040, Note_off_c, 0, 64, 95
4, 368040, Note_on_c, 0, 64, 95
4, 368160, Note_off_c, 0, 64, 95
4, 368160, Note_on_c, 0, 64, 95
4, 368280, Note_off_c, 0, 64, 95
4, 368280, Note_on_c, 0, 64, 95
4, 368400, Note_off_c, 0, 64, 95
4, 368400, Note_on_c, 0, 64, 95
4, 368520, Note_off_c, 0, 64, 95
4, 368520, Note_on_c, 0, 64, 95
4, 368639, Note_off_c, 0, 64, 95
4, 368640, Note_off_c, 0, 59, 95
4, 368640, Note_off_c, 0, 52, 95
4, 368640, Note_off_c, 0, 40, 95
4, 368640, Note_on_c, 0, 68, 95
4, 368640, Note_on_c, 0, 64, 95
4, 368640, Note_on_c, 0, 59, 95
4, 368640, Note_on_c, 0, 52, 95
4, 368640, Note_on_c, 0, 40, 95
4, 368880, Note_off_c, 0, 68, 95
4, 368880, Note_off_c, 0, 64, 95
4, 368880, Note_off_c, 0, 59, 95
4, 368880, Note_off_c, 0, 52, 95
4, 368880, Note_off_c, 0, 40, 95
4, 368880, End_track
5, 0, Start_track
5, 0, Pitch_bend_c, 2, 8192
5, 0, Control_c, 2, 7, 87
5, 0, Control_c, 2, 10, 119
5, 0, Control_c, 2, 93, 0
5, 0, Control_c, 2, 91, 0
5, 0, Control_c, 2, 95, 0
5, 0, Control_c, 2, 92, 0
5, 0, Control_c, 2, 11, 127
5, 0, Program_c, 2, 29
5, 0, Control_c, 3, 7, 87
5, 0, Control_c, 3, 10, 119
5, 0, Control_c, 3, 93, 0
5, 0, Control_c, 3, 91, 0
5, 0, Control_c, 3, 95, 0
5, 0, Control_c, 3, 92, 0
5, 0, Control_c, 3, 11, 127
5, 0, Program_c, 3, 29
5, 17280, Note_on_c, 3, 68, 95
5, 17280, Note_on_c, 3, 64, 95
5, 17280, Note_on_c, 3, 59, 95
5, 17280, Note_on_c, 3, 52, 95
5, 17400, Pitch_bend_c, 3, 8448
5, 17520, Pitch_bend_c, 3, 8704
5, 17640, Pitch_bend_c, 3, 8960
5, 17760, Pitch_bend_c, 3, 9344
5, 17880, Pitch_bend_c, 3, 9600
5, 18000, Pitch_bend_c, 3, 9856
5, 18120, Pitch_bend_c, 3, 10240
5, 18240, Pitch_bend_c, 3, 10496
5, 18360, Pitch_bend_c, 3, 10752
5, 18480, Pitch_bend_c, 3, 11008
5, 18600, Pitch_bend_c, 3, 11392
5, 18720, Note_off_c, 3, 68, 95
5, 18720, Note_off_c, 3, 64, 95
5, 18720, Pitch_bend_c, 3, 11648
5, 18720, Pitch_bend_c, 3, 8192
5, 18720, Note_off_c, 3, 59, 95
5, 18720, Note_off_c, 3, 52, 95
5, 18720, Note_on_c, 2, 64, 95
5, 18960, Note_off_c, 2, 64, 95
5, 18960, Note_on_c, 2, 62, 95
5, 19200, Note_off_c, 2, 62, 95
5, 19200, Note_on_c, 2, 59, 95
5, 19680, Note_off_c, 2, 59, 95
5, 19680, Note_on_c, 3, 67, 95
5, 19840, Pitch_bend_c, 3, 8192
5, 20000, Pitch_bend_c, 3, 8320
5, 20160, Pitch_bend_c, 3, 8192
5, 20320, Pitch_bend_c, 3, 8320
5, 20480, Pitch_bend_c, 3, 8192
5, 20640, Pitch_bend_c, 3, 8320
5, 20800, Pitch_bend_c, 3, 8192
5, 20960, Pitch_bend_c, 3, 8320
5, 21120, Pitch_bend_c, 3, 8192
5, 21280, Pitch_bend_c, 3, 8320
5, 21440, Pitch_bend_c, 3, 8192
5, 21600, Pitch_bend_c, 3, 8320
5, 21760, Pitch_bend_c, 3, 8192
5, 21920, Pitch_bend_c, 3, 8320
5, 22080, Pitch_bend_c, 3, 8192
5, 22080, Pitch_bend_c, 3, 8320
5, 22080, Pitch_bend_c, 3, 8192
5, 22080, Note_off_c, 3, 67, 95
5, 23040, Note_on_c, 3, 68, 95
5, 23040, Note_on_c, 3, 64, 95
5, 23040, Note_on_c, 3, 59, 95
5, 23040, Note_on_c, 3, 52, 95
5, 23160, Pitch_bend_c, 3, 8448
5, 23280, Pitch_bend_c, 3, 8704
5, 23400, Pitch_bend_c, 3, 8960
5, 23520, Pitch_bend_c, 3, 9344
5, 23640, Pitch_bend_c, 3, 9600
5, 23760, Pitch_bend_c, 3, 9856
5, 23880, Pitch_bend_c, 3, 10240
5, 24000, Pitch_bend_c, 3, 10496
5, 24120, Pitch_bend_c, 3, 10752
5, 24240, Pitch_bend_c, 3, 11008
5, 24360, Pitch_bend_c, 3, 11392
5, 24480, Note_off_c, 3, 68, 95
5, 24480, Note_off_c, 3, 64, 95
5, 24480, Pitch_bend_c, 3, 11648
5, 24480, Pitch_bend_c, 3, 8192
5, 24480, Note_off_c, 3, 59, 95
5, 24480, Note_off_c, 3, 52, 95
5, 24480, Note_on_c, 2, 64, 95
5, 24720, Note_off_c, 2, 64, 95
5, 24720, Note_on_c, 2, 62, 95
5, 24960, Note_off_c, 2, 62, 95
5, 24960, Note_on_c, 2, 59, 95
5, 25440, Note_off_c, 2, 59, 95
5, 25440, Note_on_c, 3, 67, 95
5, 25600, Pitch_bend_c, 3, 8192
5, 25760, Pitch_bend_c, 3, 8320
5, 25920, Pitch_bend_c, 3, 8192
5, 26080, Pitch_bend_c, 3, 8320
5, 26240, Pitch_bend_c, 3, 8192
5, 26400, Pitch_bend_c, 3, 8320
5, 26560, Pitch_bend_c, 3, 8192
5, 26720, Pitch_bend_c, 3, 8320
5, 26880, Pitch_bend_c, 3, 8192
5, 27040, Pitch_bend_c, 3, 8320
5, 27200, Pitch_bend_c, 3, 8192
5, 27360, Pitch_bend_c, 3, 8320
5, 27520, Pitch_bend_c, 3, 8192
5, 27680, Pitch_bend_c, 3, 8320
5, 27840, Pitch_bend_c, 3, 8192
5, 27840, Pitch_bend_c, 3, 8320
5, 27840, Pitch_bend_c, 3, 8192
5, 27840, Note_off_c, 3, 67, 95
5, 28800, Note_on_c, 3, 68, 95
5, 28800, Note_on_c, 3, 64, 95
5, 28800, Note_on_c, 3, 59, 95
5, 28800, Note_on_c, 3, 52, 95
5, 28920, Pitch_bend_c, 3, 8448
5, 29040, Pitch_bend_c, 3, 8704
5, 29160, Pitch_bend_c, 3, 8960
5, 29280, Pitch_bend_c, 3, 9344
5, 29400, Pitch_bend_c, 3, 9600
5, 29520, Pitch_bend_c, 3, 9856
5, 29640, Pitch_bend_c, 3, 10240
5, 29760, Pitch_bend_c, 3, 10496
5, 29880, Pitch_bend_c, 3, 10752
5, 30000, Pitch_bend_c, 3, 11008
5, 30120, Pitch_bend_c, 3, 11392
5, 30240, Note_off_c, 3, 68, 95
5, 30240, Note_off_c, 3, 64, 95
5, 30240, Pitch_bend_c, 3, 11648
5, 30240, Pitch_bend_c, 3, 8192
5, 30240, Note_off_c, 3, 59, 95
5, 30240, Note_off_c, 3, 52, 95
5, 30240, Note_on_c, 2, 64, 95
5, 30480, Note_off_c, 2, 64, 95
5, 30480, Note_on_c, 2, 62, 95
5, 30720, Note_off_c, 2, 62, 95
5, 30720, Note_on_c, 2, 59, 95
5, 31200, Note_off_c, 2, 59, 95
5, 31200, Note_on_c, 3, 67, 95
5, 31360, Pitch_bend_c, 3, 8192
5, 31520, Pitch_bend_c, 3, 8320
5, 31680, Pitch_bend_c, 3, 8192
5, 31840, Pitch_bend_c, 3, 8320
5, 32000, Pitch_bend_c, 3, 8192
5, 32160, Pitch_bend_c, 3, 8320
5, 32320, Pitch_bend_c, 3, 8192
5, 32480, Pitch_bend_c, 3, 8320
5, 32640, Pitch_bend_c, 3, 8192
5, 32800, Pitch_bend_c, 3, 8320
5, 32960, Pitch_bend_c, 3, 8192
5, 33120, Pitch_bend_c, 3, 8320
5, 33280, Pitch_bend_c, 3, 8192
5, 33440, Pitch_bend_c, 3, 8320
5, 33600, Pitch_bend_c, 3, 8192
5, 33600, Pitch_bend_c, 3, 8320
5, 33600, Pitch_bend_c, 3, 8192
5, 33600, Note_off_c, 3, 67, 95
5, 34560, Note_on_c, 3, 68, 95
5, 34560, Note_on_c, 3, 64, 95
5, 34560, Note_on_c, 3, 59, 95
5, 34560, Note_on_c, 3, 52, 95
5, 34680, Pitch_bend_c, 3, 8448
5, 34800, Pitch_bend_c, 3, 8704
5, 34920, Pitch_bend_c, 3, 8960
5, 35040, Pitch_bend_c, 3, 9344
5, 35160, Pitch_bend_c, 3, 9600
5, 35280, Pitch_bend_c, 3, 9856
5, 35400, Pitch_bend_c, 3, 10240
5, 35520, Pitch_bend_c, 3, 10496
5, 35640, Pitch_bend_c, 3, 10752
5, 35760, Pitch_bend_c, 3, 11008
5, 35880, Pitch_bend_c, 3, 11392
5, 36000, Note_off_c, 3, 68, 95
5, 36000, Note_off_c, 3, 64, 95
5, 36000, Pitch_bend_c, 3, 11648
5, 36000, Pitch_bend_c, 3, 8192
5, 36000, Note_off_c, 3, 59, 95
5, 36000, Note_off_c, 3, 52, 95
5, 36000, Note_on_c, 2, 64, 95
5, 36240, Note_off_c, 2, 64, 95
5, 36240, Note_on_c, 2, 62, 95
5, 36480, Note_off_c, 2, 62, 95
5, 36480, Note_on_c, 2, 59, 95
5, 36960, Note_off_c, 2, 59, 95
5, 36960, Note_on_c, 3, 67, 95
5, 37120, Pitch_bend_c, 3, 8192
5, 37280, Pitch_bend_c, 3, 8320
5, 37440, Pitch_bend_c, 3, 8192
5, 37600, Pitch_bend_c, 3, 8320
5, 37760, Pitch_bend_c, 3, 8192
5, 37920, Pitch_bend_c, 3, 8320
5, 38080, Pitch_bend_c, 3, 8192
5, 38240, Pitch_bend_c, 3, 8320
5, 38400, Pitch_bend_c, 3, 8192
5, 38560, Pitch_bend_c, 3, 8320
5, 38720, Pitch_bend_c, 3, 8192
5, 38880, Pitch_bend_c, 3, 8320
5, 39040, Pitch_bend_c, 3, 8192
5, 39200, Pitch_bend_c, 3, 8320
5, 39360, Pitch_bend_c, 3, 8192
5, 39360, Pitch_bend_c, 3, 8320
5, 39360, Pitch_bend_c, 3, 8192
5, 39360, Note_off_c, 3, 67, 95
5, 40320, Note_on_c, 3, 68, 95
5, 40320, Note_on_c, 3, 64, 95
5, 40320, Note_on_c, 3, 59, 95
5, 40320, Note_on_c, 3, 52, 95
5, 40440, Pitch_bend_c, 3, 8448
5, 40560, Pitch_bend_c, 3, 8704
5, 40680, Pitch_bend_c, 3, 8960
5, 40800, Pitch_bend_c, 3, 9344
5, 40920, Pitch_bend_c, 3, 9600
5, 41040, Pitch_bend_c, 3, 9856
5, 41160, Pitch_bend_c, 3, 10240
5, 41280, Pitch_bend_c, 3, 10496
5, 41400, Pitch_bend_c, 3, 10752
5, 41520, Pitch_bend_c, 3, 11008
5, 41640, Pitch_bend_c, 3, 11392
5, 41760, Note_off_c, 3, 68, 95
5, 41760, Note_off_c, 3, 64, 95
5, 41760, Pitch_bend_c, 3, 11648
5, 41760, Pitch_bend_c, 3, 8192
5, 41760, Note_off_c, 3, 59, 95
5, 41760, Note_off_c, 3, 52, 95
5, 41760, Note_on_c, 2, 64, 95
5, 42000, Note_off_c, 2, 64, 95
5, 42000, Note_on_c, 2, 62, 95
5, 42240, Note_off_c, 2, 62, 95
5, 42240, Note_on_c, 2, 59, 95
5, 42720, Note_off_c, 2, 59, 95
5, 42720, Note_on_c, 3, 67, 95
5, 42880, Pitch_bend_c, 3, 8192
5, 43040, Pitch_bend_c, 3, 8320
5, 43200, Pitch_bend_c, 3, 8192
5, 43360, Pitch_bend_c, 3, 8320
5, 43520, Pitch_bend_c, 3, 8192
5, 43680, Pitch_bend_c, 3, 8320
5, 43840, Pitch_bend_c, 3, 8192
5, 44000, Pitch_bend_c, 3, 8320
5, 44160, Pitch_bend_c, 3, 8192
5, 44320, Pitch_bend_c, 3, 8320
5, 44480, Pitch_bend_c, 3, 8192
5, 44640, Pitch_bend_c, 3, 8320
5, 44800, Pitch_bend_c, 3, 8192
5, 44960, Pitch_bend_c, 3, 8320
5, 45120, Pitch_bend_c, 3, 8192
5, 45120, Pitch_bend_c, 3, 8320
5, 45120, Pitch_bend_c, 3, 8192
5, 45120, Note_off_c, 3, 67, 95
5, 46080, Note_on_c, 3, 68, 95
5, 46080, Note_on_c, 3, 64, 95
5, 46080, Note_on_c, 3, 59, 95
5, 46080, Note_on_c, 3, 52, 95
5, 46200, Pitch_bend_c, 3, 8448
5, 46320, Pitch_bend_c, 3, 8704
5, 46440, Pitch_bend_c, 3, 8960
5, 46560, Pitch_bend_c, 3, 9344
5, 46680, Pitch_bend_c, 3, 9600
5, 46800, Pitch_bend_c, 3, 9856
5, 46920, Pitch_bend_c, 3, 10240
5, 47040, Pitch_bend_c, 3, 10496
5, 47160, Pitch_bend_c, 3, 10752
5, 47280, Pitch_bend_c, 3, 11008
5, 47400, Pitch_bend_c, 3, 11392
5, 47520, Note_off_c, 3, 68, 95
5, 47520, Note_off_c, 3, 64, 95
5, 47520, Pitch_bend_c, 3, 11648
5, 47520, Pitch_bend_c, 3, 8192
5, 47520, Note_off_c, 3, 59, 95
5, 47520, Note_off_c, 3, 52, 95
5, 47520, Note_on_c, 2, 64, 95
5, 47760, Note_off_c, 2, 64, 95
5, 47760, Note_on_c, 2, 62, 95
5, 48000, Note_off_c, 2, 62, 95
5, 48000, Note_on_c, 2, 59, 95
5, 48480, Note_off_c, 2, 59, 95
5, 48480, Note_on_c, 3, 67, 95
5, 48640, Pitch_bend_c, 3, 8192
5, 48800, Pitch_bend_c, 3, 8320
5, 48960, Pitch_bend_c, 3, 8192
5, 49120, Pitch_bend_c, 3, 8320
5, 49280, Pitch_bend_c, 3, 8192
5, 49440, Pitch_bend_c, 3, 8320
5, 49600, Pitch_bend_c, 3, 8192
5, 49760, Pitch_bend_c, 3, 8320
5, 49920, Pitch_bend_c, 3, 8192
5, 50080, Pitch_bend_c, 3, 8320
5, 50240, Pitch_bend_c, 3, 8192
5, 50400, Pitch_bend_c, 3, 8320
5, 50560, Pitch_bend_c, 3, 8192
5, 50720, Pitch_bend_c, 3, 8320
5, 50880, Pitch_bend_c, 3, 8192
5, 50880, Pitch_bend_c, 3, 8320
5, 50880, Pitch_bend_c, 3, 8192
5, 50880, Note_off_c, 3, 67, 95
5, 51840, Note_on_c, 3, 68, 95
5, 51840, Note_on_c, 3, 64, 95
5, 51840, Note_on_c, 3, 59, 95
5, 51840, Note_on_c, 3, 52, 95
5, 51960, Pitch_bend_c, 3, 8448
5, 52080, Pitch_bend_c, 3, 8704
5, 52200, Pitch_bend_c, 3, 8960
5, 52320, Pitch_bend_c, 3, 9344
5, 52440, Pitch_bend_c, 3, 9600
5, 52560, Pitch_bend_c, 3, 9856
5, 52680, Pitch_bend_c, 3, 10240
5, 52800, Pitch_bend_c, 3, 10496
5, 52920, Pitch_bend_c, 3, 10752
5, 53040, Pitch_bend_c, 3, 11008
5, 53160, Pitch_bend_c, 3, 11392
5, 53280, Note_off_c, 3, 68, 95
5, 53280, Note_off_c, 3, 64, 95
5, 53280, Pitch_bend_c, 3, 11648
5, 53280, Pitch_bend_c, 3, 8192
5, 53280, Note_off_c, 3, 59, 95
5, 53280, Note_off_c, 3, 52, 95
5, 53280, Note_on_c, 2, 64, 95
5, 53520, Note_off_c, 2, 64, 95
5, 53520, Note_on_c, 2, 62, 95
5, 53760, Note_off_c, 2, 62, 95
5, 53760, Note_on_c, 2, 59, 95
5, 54240, Note_off_c, 2, 59, 95
5, 54240, Note_on_c, 3, 67, 95
5, 54400, Pitch_bend_c, 3, 8192
5, 54560, Pitch_bend_c, 3, 8320
5, 54720, Pitch_bend_c, 3, 8192
5, 54880, Pitch_bend_c, 3, 8320
5, 55040, Pitch_bend_c, 3, 8192
5, 55200, Pitch_bend_c, 3, 8320
5, 55360, Pitch_bend_c, 3, 8192
5, 55520, Pitch_bend_c, 3, 8320
5, 55680, Pitch_bend_c, 3, 8192
5, 55840, Pitch_bend_c, 3, 8320
5, 56000, Pitch_bend_c, 3, 8192
5, 56160, Pitch_bend_c, 3, 8320
5, 56320, Pitch_bend_c, 3, 8192
5, 56480, Pitch_bend_c, 3, 8320
5, 56640, Pitch_bend_c, 3, 8192
5, 56640, Pitch_bend_c, 3, 8320
5, 56640, Pitch_bend_c, 3, 8192
5, 56640, Note_off_c, 3, 67, 95
5, 57600, Note_on_c, 3, 68, 95
5, 57600, Note_on_c, 3, 64, 95
5, 57600, Note_on_c, 3, 59, 95
5, 57600, Note_on_c, 3, 52, 95
5, 57720, Pitch_bend_c, 3, 8448
5, 57840, Pitch_bend_c, 3, 8704
5, 57960, Pitch_bend_c, 3, 8960
5, 58080, Pitch_bend_c, 3, 9344
5, 58200, Pitch_bend_c, 3, 9600
5, 58320, Pitch_bend_c, 3, 9856
5, 58440, Pitch_bend_c, 3, 10240
5, 58560, Pitch_bend_c, 3, 10496
5, 58680, Pitch_bend_c, 3, 10752
5, 58800, Pitch_bend_c, 3, 11008
5, 58920, Pitch_bend_c, 3, 11392
5, 59040, Note_off_c, 3, 68, 95
5, 59040, Note_off_c, 3, 64, 95
5, 59040, Pitch_bend_c, 3, 11648
5, 59040, Pitch_bend_c, 3, 8192
5, 59040, Note_off_c, 3, 59, 95
5, 59040, Note_off_c, 3, 52, 95
5, 59040, Note_on_c, 2, 64, 95
5, 59280, Note_off_c, 2, 64, 95
5, 59280, Note_on_c, 2, 62, 95
5, 59520, Note_off_c, 2, 62, 95
5, 59520, Note_on_c, 2, 59, 95
5, 60000, Note_off_c, 2, 59, 95
5, 60000, Note_on_c, 3, 67, 95
5, 60160, Pitch_bend_c, 3, 8192
5, 60320, Pitch_bend_c, 3, 8320
5, 60480, Pitch_bend_c, 3, 8192
5, 60640, Pitch_bend_c, 3, 8320
5, 60800, Pitch_bend_c, 3, 8192
5, 60960, Pitch_bend_c, 3, 8320
5, 61120, Pitch_bend_c, 3, 8192
5, 61280, Pitch_bend_c, 3, 8320
5, 61440, Pitch_bend_c, 3, 8192
5, 61600, Pitch_bend_c, 3, 8320
5, 61760, Pitch_bend_c, 3, 8192
5, 61920, Pitch_bend_c, 3, 8320
5, 62080, Pitch_bend_c, 3, 8192
5, 62240, Pitch_bend_c, 3, 8320
5, 62400, Pitch_bend_c, 3, 8192
5, 62400, Pitch_bend_c, 3, 8320
5, 62400, Pitch_bend_c, 3, 8192
5, 62400, Note_off_c, 3, 67, 95
5, 83520, Note_on_c, 3, 68, 95
5, 83520, Note_on_c, 3, 64, 95
5, 83520, Note_on_c, 3, 59, 95
5, 83520, Note_on_c, 3, 52, 95
5, 83640, Pitch_bend_c, 3, 8448
5, 83760, Pitch_bend_c, 3, 8704
5, 83880, Pitch_bend_c, 3, 8960
5, 84000, Pitch_bend_c, 3, 9344
5, 84120, Pitch_bend_c, 3, 9600
5, 84240, Pitch_bend_c, 3, 9856
5, 84360, Pitch_bend_c, 3, 10240
5, 84480, Pitch_bend_c, 3, 10496
5, 84600, Pitch_bend_c, 3, 10752
5, 84720, Pitch_bend_c, 3, 11008
5, 84840, Pitch_bend_c, 3, 11392
5, 84960, Note_off_c, 3, 68, 95
5, 84960, Note_off_c, 3, 64, 95
5, 84960, Pitch_bend_c, 3, 11648
5, 84960, Pitch_bend_c, 3, 8192
5, 84960, Note_off_c, 3, 59, 95
5, 84960, Note_off_c, 3, 52, 95
5, 84960, Note_on_c, 2, 64, 95
5, 85200, Note_off_c, 2, 64, 95
5, 85200, Note_on_c, 2, 62, 95
5, 85440, Note_off_c, 2, 62, 95
5, 85440, Note_on_c, 2, 59, 95
5, 85920, Note_off_c, 2, 59, 95
5, 85920, Note_on_c, 3, 67, 95
5, 86080, Pitch_bend_c, 3, 8192
5, 86240, Pitch_bend_c, 3, 8320
5, 86400, Pitch_bend_c, 3, 8192
5, 86560, Pitch_bend_c, 3, 8320
5, 86720, Pitch_bend_c, 3, 8192
5, 86880, Pitch_bend_c, 3, 8320
5, 87040, Pitch_bend_c, 3, 8192
5, 87200, Pitch_bend_c, 3, 8320
5, 87360, Pitch_bend_c, 3, 8192
5, 87520, Pitch_bend_c, 3, 8320
5, 87680, Pitch_bend_c, 3, 8192
5, 87840, Pitch_bend_c, 3, 8320
5, 88000, Pitch_bend_c, 3, 8192
5, 88160, Pitch_bend_c, 3, 8320
5, 88320, Pitch_bend_c, 3, 8192
5, 88320, Pitch_bend_c, 3, 8320
5, 88320, Pitch_bend_c, 3, 8192
5, 88320, Note_off_c, 3, 67, 95
5, 89280, Note_on_c, 3, 68, 95
5, 89280, Note_on_c, 3, 64, 95
5, 89280, Note_on_c, 3, 59, 95
5, 89280, Note_on_c, 3, 52, 95
5, 89400, Pitch_bend_c, 3, 8448
5, 89520, Pitch_bend_c, 3, 8704
5, 89640, Pitch_bend_c, 3, 8960
5, 89760, Pitch_bend_c, 3, 9344
5, 89880, Pitch_bend_c, 3, 9600
5, 90000, Pitch_bend_c, 3, 9856
5, 90120, Pitch_bend_c, 3, 10240
5, 90240, Pitch_bend_c, 3, 10496
5, 90360, Pitch_bend_c, 3, 10752
5, 90480, Pitch_bend_c, 3, 11008
5, 90600, Pitch_bend_c, 3, 11392
5, 90720, Note_off_c, 3, 68, 95
5, 90720, Note_off_c, 3, 64, 95
5, 90720, Pitch_bend_c, 3, 11648
5, 90720, Pitch_bend_c, 3, 8192
5, 90720, Note_off_c, 3, 59, 95
5, 90720, Note_off_c, 3, 52, 95
5, 90720, Note_on_c, 2, 64, 95
5, 90960, Note_off_c, 2, 64, 95
5, 90960, Note_on_c, 2, 62, 95
5, 91200, Note_off_c, 2, 62, 95
5, 91200, Note_on_c, 2, 59, 95
5, 91680, Note_off_c, 2, 59, 95
5, 91680, Note_on_c, 3, 67, 95
5, 91840, Pitch_bend_c, 3, 8192
5, 92000, Pitch_bend_c, 3, 8320
5, 92160, Pitch_bend_c, 3, 8192
5, 92320, Pitch_bend_c, 3, 8320
5, 92480, Pitch_bend_c, 3, 8192
5, 92640, Pitch_bend_c, 3, 8320
5, 92800, Pitch_bend_c, 3, 8192
5, 92960, Pitch_bend_c, 3, 8320
5, 93120, Pitch_bend_c, 3, 8192
5, 93280, Pitch_bend_c, 3, 8320
5, 93440, Pitch_bend_c, 3, 8192
5, 93600, Pitch_bend_c, 3, 8320
5, 93760, Pitch_bend_c, 3, 8192
5, 93920, Pitch_bend_c, 3, 8320
5, 94080, Pitch_bend_c, 3, 8192
5, 94080, Pitch_bend_c, 3, 8320
5, 94080, Pitch_bend_c, 3, 8192
5, 94080, Note_off_c, 3, 67, 95
5, 95040, Note_on_c, 3, 68, 95
5, 95040, Note_on_c, 3, 64, 95
5, 95040, Note_on_c, 3, 59, 95
5, 95040, Note_on_c, 3, 52, 95
5, 95160, Pitch_bend_c, 3, 8448
5, 95280, Pitch_bend_c, 3, 8704
5, 95400, Pitch_bend_c, 3, 8960
5, 95520, Pitch_bend_c, 3, 9344
5, 95640, Pitch_bend_c, 3, 9600
5, 95760, Pitch_bend_c, 3, 9856
5, 95880, Pitch_bend_c, 3, 10240
5, 96000, Pitch_bend_c, 3, 10496
5, 96120, Pitch_bend_c, 3, 10752
5, 96240, Pitch_bend_c, 3, 11008
5, 96360, Pitch_bend_c, 3, 11392
5, 96480, Note_off_c, 3, 68, 95
5, 96480, Note_off_c, 3, 64, 95
5, 96480, Pitch_bend_c, 3, 11648
5, 96480, Pitch_bend_c, 3, 8192
5, 96480, Note_off_c, 3, 59, 95
5, 96480, Note_off_c, 3, 52, 95
5, 96480, Note_on_c, 2, 64, 95
5, 96720, Note_off_c, 2, 64, 95
5, 96720, Note_on_c, 2, 62, 95
5, 96960, Note_off_c, 2, 62, 95
5, 96960, Note_on_c, 2, 59, 95
5, 97440, Note_off_c, 2, 59, 95
5, 97440, Note_on_c, 3, 67, 95
5, 97600, Pitch_bend_c, 3, 8192
5, 97760, Pitch_bend_c, 3, 8320
5, 97920, Pitch_bend_c, 3, 8192
5, 98080, Pitch_bend_c, 3, 8320
5, 98240, Pitch_bend_c, 3, 8192
5, 98400, Pitch_bend_c, 3, 8320
5, 98560, Pitch_bend_c, 3, 8192
5, 98720, Pitch_bend_c, 3, 8320
5, 98880, Pitch_bend_c, 3, 8192
5, 99040, Pitch_bend_c, 3, 8320
5, 99200, Pitch_bend_c, 3, 8192
5, 99360, Pitch_bend_c, 3, 8320
5, 99520, Pitch_bend_c, 3, 8192
5, 99680, Pitch_bend_c, 3, 8320
5, 99840, Pitch_bend_c, 3, 8192
5, 99840, Pitch_bend_c, 3, 8320
5, 99840, Pitch_bend_c, 3, 8192
5, 99840, Note_off_c, 3, 67, 95
5, 100800, Note_on_c, 3, 68, 95
5, 100800, Note_on_c, 3, 64, 95
5, 100800, Note_on_c, 3, 59, 95
5, 100800, Note_on_c, 3, 52, 95
5, 100920, Pitch_bend_c, 3, 8448
5, 101040, Pitch_bend_c, 3, 8704
5, 101160, Pitch_bend_c, 3, 8960
5, 101280, Pitch_bend_c, 3, 9344
5, 101400, Pitch_bend_c, 3, 9600
5, 101520, Pitch_bend_c, 3, 9856
5, 101640, Pitch_bend_c, 3, 10240
5, 101760, Pitch_bend_c, 3, 10496
5, 101880, Pitch_bend_c, 3, 10752
5, 102000, Pitch_bend_c, 3, 11008
5, 102120, Pitch_bend_c, 3, 11392
5, 102240, Note_off_c, 3, 68, 95
5, 102240, Note_off_c, 3, 64, 95
5, 102240, Pitch_bend_c, 3, 11648
5, 102240, Pitch_bend_c, 3, 8192
5, 102240, Note_off_c, 3, 59, 95
5, 102240, Note_off_c, 3, 52, 95
5, 102240, Note_on_c, 2, 64, 95
5, 102480, Note_off_c, 2, 64, 95
5, 102480, Note_on_c, 2, 62, 95
5, 102720, Note_off_c, 2, 62, 95
5, 102720, Note_on_c, 2, 59, 95
5, 103200, Note_off_c, 2, 59, 95
5, 103200, Note_on_c, 3, 67, 95
5, 103360, Pitch_bend_c, 3, 8192
5, 103520, Pitch_bend_c, 3, 8320
5, 103680, Pitch_bend_c, 3, 8192
5, 103840, Pitch_bend_c, 3, 8320
5, 104000, Pitch_bend_c, 3, 8192
5, 104160, Pitch_bend_c, 3, 8320
5, 104320, Pitch_bend_c, 3, 8192
5, 104480, Pitch_bend_c, 3, 8320
5, 104640, Pitch_bend_c, 3, 8192
5, 104800, Pitch_bend_c, 3, 8320
5, 104960, Pitch_bend_c, 3, 8192
5, 105120, Pitch_bend_c, 3, 8320
5, 105280, Pitch_bend_c, 3, 8192
5, 105440, Pitch_bend_c, 3, 8320
5, 105600, Pitch_bend_c, 3, 8192
5, 105600, Pitch_bend_c, 3, 8320
5, 105600, Pitch_bend_c, 3, 8192
5, 105600, Note_off_c, 3, 67, 95
5, 106560, Note_on_c, 3, 68, 95
5, 106560, Note_on_c, 3, 64, 95
5, 106560, Note_on_c, 3, 59, 95
5, 106560, Note_on_c, 3, 52, 95
5, 106680, Pitch_bend_c, 3, 8448
5, 106800, Pitch_bend_c, 3, 8704
5, 106920, Pitch_bend_c, 3, 8960
5, 107040, Pitch_bend_c, 3, 9344
5, 107160, Pitch_bend_c, 3, 9600
5, 107280, Pitch_bend_c, 3, 9856
5, 107400, Pitch_bend_c, 3, 10240
5, 107520, Pitch_bend_c, 3, 10496
5, 107640, Pitch_bend_c, 3, 10752
5, 107760, Pitch_bend_c, 3, 11008
5, 107880, Pitch_bend_c, 3, 11392
5, 108000, Note_off_c, 3, 68, 95
5, 108000, Note_off_c, 3, 64, 95
5, 108000, Pitch_bend_c, 3, 11648
5, 108000, Pitch_bend_c, 3, 8192
5, 108000, Note_off_c, 3, 59, 95
5, 108000, Note_off_c, 3, 52, 95
5, 108000, Note_on_c, 2, 64, 95
5, 108240, Note_off_c, 2, 64, 95
5, 108240, Note_on_c, 2, 62, 95
5, 108480, Note_off_c, 2, 62, 95
5, 108480, Note_on_c, 2, 59, 95
5, 108960, Note_off_c, 2, 59, 95
5, 108960, Note_on_c, 3, 67, 95
5, 109120, Pitch_bend_c, 3, 8192
5, 109280, Pitch_bend_c, 3, 8320
5, 109440, Pitch_bend_c, 3, 8192
5, 109600, Pitch_bend_c, 3, 8320
5, 109760, Pitch_bend_c, 3, 8192
5, 109920, Pitch_bend_c, 3, 8320
5, 110080, Pitch_bend_c, 3, 8192
5, 110240, Pitch_bend_c, 3, 8320
5, 110400, Pitch_bend_c, 3, 8192
5, 110560, Pitch_bend_c, 3, 8320
5, 110720, Pitch_bend_c, 3, 8192
5, 110880, Pitch_bend_c, 3, 8320
5, 111040, Pitch_bend_c, 3, 8192
5, 111200, Pitch_bend_c, 3, 8320
5, 111360, Pitch_bend_c, 3, 8192
5, 111360, Pitch_bend_c, 3, 8320
5, 111360, Pitch_bend_c, 3, 8192
5, 111360, Note_off_c, 3, 67, 95
5, 112320, Note_on_c, 3, 68, 95
5, 112320, Note_on_c, 3, 64, 95
5, 112320, Note_on_c, 3, 59, 95
5, 112320, Note_on_c, 3, 52, 95
5, 112440, Pitch_bend_c, 3, 8448
5, 112560, Pitch_bend_c, 3, 8704
5, 112680, Pitch_bend_c, 3, 8960
5, 112800, Pitch_bend_c, 3, 9344
5, 112920, Pitch_bend_c, 3, 9600
5, 113040, Pitch_bend_c, 3, 9856
5, 113160, Pitch_bend_c, 3, 10240
5, 113280, Pitch_bend_c, 3, 10496
5, 113400, Pitch_bend_c, 3, 10752
5, 113520, Pitch_bend_c, 3, 11008
5, 113640, Pitch_bend_c, 3, 11392
5, 113760, Note_off_c, 3, 68, 95
5, 113760, Note_off_c, 3, 64, 95
5, 113760, Pitch_bend_c, 3, 11648
5, 113760, Pitch_bend_c, 3, 8192
5, 113760, Note_off_c, 3, 59, 95
5, 113760, Note_off_c, 3, 52, 95
5, 113760, Note_on_c, 2, 64, 95
5, 114000, Note_off_c, 2, 64, 95
5, 114000, Note_on_c, 2, 62, 95
5, 114240, Note_off_c, 2, 62, 95
5, 114240, Note_on_c, 2, 59, 95
5, 114720, Note_off_c, 2, 59, 95
5, 114720, Note_on_c, 3, 67, 95
5, 114880, Pitch_bend_c, 3, 8192
5, 115040, Pitch_bend_c, 3, 8320
5, 115200, Pitch_bend_c, 3, 8192
5, 115360, Pitch_bend_c, 3, 8320
5, 115520, Pitch_bend_c, 3, 8192
5, 115680, Pitch_bend_c, 3, 8320
5, 115840, Pitch_bend_c, 3, 8192
5, 116000, Pitch_bend_c, 3, 8320
5, 116160, Pitch_bend_c, 3, 8192
5, 116320, Pitch_bend_c, 3, 8320
5, 116480, Pitch_bend_c, 3, 8192
5, 116640, Pitch_bend_c, 3, 8320
5, 116800, Pitch_bend_c, 3, 8192
5, 116960, Pitch_bend_c, 3, 8320
5, 117120, Pitch_bend_c, 3, 8192
5, 117120, Pitch_bend_c, 3, 8320
5, 117120, Pitch_bend_c, 3, 8192
5, 117120, Note_off_c, 3, 67, 95
5, 138240, Note_on_c, 3, 68, 95
5, 138240, Note_on_c, 3, 64, 95
5, 138240, Note_on_c, 3, 59, 95
5, 138240, Note_on_c, 3, 52, 95
5, 138360, Pitch_bend_c, 3, 8448
5, 138480, Pitch_bend_c, 3, 8704
5, 138600, Pitch_bend_c, 3, 8960
5, 138720, Pitch_bend_c, 3, 9344
5, 138840, Pitch_bend_c, 3, 9600
5, 138960, Pitch_bend_c, 3, 9856
5, 139080, Pitch_bend_c, 3, 10240
5, 139200, Pitch_bend_c, 3, 10496
5, 139320, Pitch_bend_c, 3, 10752
5, 139440, Pitch_bend_c, 3, 11008
5, 139560, Pitch_bend_c, 3, 11392
5, 139680, Note_off_c, 3, 68, 95
5, 139680, Note_off_c, 3, 64, 95
5, 139680, Pitch_bend_c, 3, 11648
5, 139680, Pitch_bend_c, 3, 8192
5, 139680, Note_off_c, 3, 59, 95
5, 139680, Note_off_c, 3, 52, 95
5, 139680, Note_on_c, 2, 64, 95
5, 139920, Note_off_c, 2, 64, 95
5, 139920, Note_on_c, 2, 62, 95
5, 140160, Note_off_c, 2, 62, 95
5, 140160, Note_on_c, 2, 59, 95
5, 140640, Note_off_c, 2, 59, 95
5, 140640, Note_on_c, 3, 67, 95
5, 140800, Pitch_bend_c, 3, 8192
5, 140960, Pitch_bend_c, 3, 8320
5, 141120, Pitch_bend_c, 3, 8192
5, 141280, Pitch_bend_c, 3, 8320
5, 141440, Pitch_bend_c, 3, 8192
5, 141600, Pitch_bend_c, 3, 8320
5, 141760, Pitch_bend_c, 3, 8192
5, 141920, Pitch_bend_c, 3, 8320
5, 142080, Pitch_bend_c, 3, 8192
5, 142240, Pitch_bend_c, 3, 8320
5, 142400, Pitch_bend_c, 3, 8192
5, 142560, Pitch_bend_c, 3, 8320
5, 142720, Pitch_bend_c, 3, 8192
5, 142880, Pitch_bend_c, 3, 8320
5, 143040, Pitch_bend_c, 3, 8192
5, 143040, Pitch_bend_c, 3, 8320
5, 143040, Pitch_bend_c, 3, 8192
5, 143040, Note_off_c, 3, 67, 95
5, 144000, Note_on_c, 3, 68, 95
5, 144000, Note_on_c, 3, 64, 95
5, 144000, Note_on_c, 3, 59, 95
5, 144000, Note_on_c, 3, 52, 95
5, 144120, Pitch_bend_c, 3, 8448
5, 144240, Pitch_bend_c, 3, 8704
5, 144360, Pitch_bend_c, 3, 8960
5, 144480, Pitch_bend_c, 3, 9344
5, 144600, Pitch_bend_c, 3, 9600
5, 144720, Pitch_bend_c, 3, 9856
5, 144840, Pitch_bend_c, 3, 10240
5, 144960, Pitch_bend_c, 3, 10496
5, 145080, Pitch_bend_c, 3, 10752
5, 145200, Pitch_bend_c, 3, 11008
5, 145320, Pitch_bend_c, 3, 11392
5, 145440, Note_off_c, 3, 68, 95
5, 145440, Note_off_c, 3, 64, 95
5, 145440, Pitch_bend_c, 3, 11648
5, 145440, Pitch_bend_c, 3, 8192
5, 145440, Note_off_c, 3, 59, 95
5, 145440, Note_off_c, 3, 52, 95
5, 145440, Note_on_c, 2, 64, 95
5, 145680, Note_off_c, 2, 64, 95
5, 145680, Note_on_c, 2, 62, 95
5, 145920, Note_off_c, 2, 62, 95
5, 145920, Note_on_c, 2, 59, 95
5, 146400, Note_off_c, 2, 59, 95
5, 146400, Note_on_c, 3, 67, 95
5, 146560, Pitch_bend_c, 3, 8192
5, 146720, Pitch_bend_c, 3, 8320
5, 146880, Pitch_bend_c, 3, 8192
5, 147040, Pitch_bend_c, 3, 8320
5, 147200, Pitch_bend_c, 3, 8192
5, 147360, Pitch_bend_c, 3, 8320
5, 147520, Pitch_bend_c, 3, 8192
5, 147680, Pitch_bend_c, 3, 8320
5, 147840, Pitch_bend_c, 3, 8192
5, 148000, Pitch_bend_c, 3, 8320
5, 148160, Pitch_bend_c, 3, 8192
5, 148320, Pitch_bend_c, 3, 8320
5, 148480, Pitch_bend_c, 3, 8192
5, 148640, Pitch_bend_c, 3, 8320
5, 148800, Pitch_bend_c, 3, 8192
5, 148800, Pitch_bend_c, 3, 8320
5, 148800, Pitch_bend_c, 3, 8192
5, 148800, Note_off_c, 3, 67, 95
5, 149760, Note_on_c, 3, 68, 95
5, 149760, Note_on_c, 3, 64, 95
5, 149760, Note_on_c, 3, 59, 95
5, 149760, Note_on_c, 3, 52, 95
5, 149880, Pitch_bend_c, 3, 8448
5, 150000, Pitch_bend_c, 3, 8704
5, 150120, Pitch_bend_c, 3, 8960
5, 150240, Pitch_bend_c, 3, 9344
5, 150360, Pitch_bend_c, 3, 9600
5, 150480, Pitch_bend_c, 3, 9856
5, 150600, Pitch_bend_c, 3, 10240
5, 150720, Pitch_bend_c, 3, 10496
5, 150840, Pitch_bend_c, 3, 10752
5, 150960, Pitch_bend_c, 3, 11008
5, 151080, Pitch_bend_c, 3, 11392
5, 151200, Note_off_c, 3, 68, 95
5, 151200, Note_off_c, 3, 64, 95
5, 151200, Pitch_bend_c, 3, 11648
5, 151200, Pitch_bend_c, 3, 8192
5, 151200, Note_off_c, 3, 59, 95
5, 151200, Note_off_c, 3, 52, 95
5, 151200, Note_on_c, 2, 64, 95
5, 151440, Note_off_c, 2, 64, 95
5, 151440, Note_on_c, 2, 62, 95
5, 151680, Note_off_c, 2, 62, 95
5, 151680, Note_on_c, 2, 59, 95
5, 152160, Note_off_c, 2, 59, 95
5, 152160, Note_on_c, 3, 67, 95
5, 152320, Pitch_bend_c, 3, 8192
5, 152480, Pitch_bend_c, 3, 8320
5, 152640, Pitch_bend_c, 3, 8192
5, 152800, Pitch_bend_c, 3, 8320
5, 152960, Pitch_bend_c, 3, 8192
5, 153120, Pitch_bend_c, 3, 8320
5, 153280, Pitch_bend_c, 3, 8192
5, 153440, Pitch_bend_c, 3, 8320
5, 153600, Pitch_bend_c, 3, 8192
5, 153760, Pitch_bend_c, 3, 8320
5, 153920, Pitch_bend_c, 3, 8192
5, 154080, Pitch_bend_c, 3, 8320
5, 154240, Pitch_bend_c, 3, 8192
5, 154400, Pitch_bend_c, 3, 8320
5, 154560, Pitch_bend_c, 3, 8192
5, 154560, Pitch_bend_c, 3, 8320
5, 154560, Pitch_bend_c, 3, 8192
5, 154560, Note_off_c, 3, 67, 95
5, 155520, Note_on_c, 3, 68, 95
5, 155520, Note_on_c, 3, 64, 95
5, 155520, Note_on_c, 3, 59, 95
5, 155520, Note_on_c, 3, 52, 95
5, 155640, Pitch_bend_c, 3, 8448
5, 155760, Pitch_bend_c, 3, 8704
5, 155880, Pitch_bend_c, 3, 8960
5, 156000, Pitch_bend_c, 3, 9344
5, 156120, Pitch_bend_c, 3, 9600
5, 156240, Pitch_bend_c, 3, 9856
5, 156360, Pitch_bend_c, 3, 10240
5, 156480, Pitch_bend_c, 3, 10496
5, 156600, Pitch_bend_c, 3, 10752
5, 156720, Pitch_bend_c, 3, 11008
5, 156840, Pitch_bend_c, 3, 11392
5, 156960, Note_off_c, 3, 68, 95
5, 156960, Note_off_c, 3, 64, 95
5, 156960, Pitch_bend_c, 3, 11648
5, 156960, Pitch_bend_c, 3, 8192
5, 156960, Note_off_c, 3, 59, 95
5, 156960, Note_off_c, 3, 52, 95
5, 156960, Note_on_c, 2, 64, 95
5, 157200, Note_off_c, 2, 64, 95
5, 157200, Note_on_c, 2, 62, 95
5, 157440, Note_off_c, 2, 62, 95
5, 157440, Note_on_c, 2, 59, 95
5, 157920, Note_off_c, 2, 59, 95
5, 157920, Note_on_c, 3, 67, 95
5, 158080, Pitch_bend_c, 3, 8192
5, 158240, Pitch_bend_c, 3, 8320
5, 158400, Pitch_bend_c, 3, 8192
5, 158560, Pitch_bend_c, 3, 8320
5, 158720, Pitch_bend_c, 3, 8192
5, 158880, Pitch_bend_c, 3, 8320
5, 159040, Pitch_bend_c, 3, 8192
5, 159200, Pitch_bend_c, 3, 8320
5, 159360, Pitch_bend_c, 3, 8192
5, 159520, Pitch_bend_c, 3, 8320
5, 159680, Pitch_bend_c, 3, 8192
5, 159840, Pitch_bend_c, 3, 8320
5, 160000, Pitch_bend_c, 3, 8192
5, 160160, Pitch_bend_c, 3, 8320
5, 160320, Pitch_bend_c, 3, 8192
5, 160320, Pitch_bend_c, 3, 8320
5, 160320, Pitch_bend_c, 3, 8192
5, 160320, Note_off_c, 3, 67, 95
5, 161280, Note_on_c, 2, 64, 95
5, 161520, Note_off_c, 2, 64, 95
5, 161520, Note_on_c, 2, 62, 95
5, 161760, Note_off_c, 2, 62, 95
5, 162000, Note_on_c, 2, 64, 95
5, 162240, Note_off_c, 2, 64, 95
5, 162240, Note_on_c, 2, 62, 70
5, 162720, Note_off_c, 2, 62, 70
5, 162720, Note_on_c, 2, 62, 95
5, 162960, Note_off_c, 2, 62, 95
5, 162960, Note_on_c, 2, 64, 70
5, 163200, Note_off_c, 2, 64, 70
5, 163200, Note_on_c, 2, 67, 95
5, 163680, Note_off_c, 2, 67, 95
5, 163680, Note_on_c, 3, 64, 95
5, 163840, Pitch_bend_c, 3, 8192
5, 164000, Pitch_bend_c, 3, 8320
5, 164160, Pitch_bend_c, 3, 8192
5, 164160, Pitch_bend_c, 3, 8320
5, 164160, Pitch_bend_c, 3, 8192
5, 164160, Note_off_c, 3, 64, 95
5, 164400, Pitch_bend_c, 3, 8192
5, 164400, Note_on_c, 3, 69, 95
5, 164421, Pitch_bend_c, 3, 8320
5, 164442, Pitch_bend_c, 3, 8448
5, 164463, Pitch_bend_c, 3, 8576
5, 164484, Pitch_bend_c, 3, 8704
5, 164505, Pitch_bend_c, 3, 8832
5, 164526, Pitch_bend_c, 3, 8960
5, 164547, Pitch_bend_c, 3, 9088
5, 164568, Pitch_bend_c, 3, 9216
5, 164589, Pitch_bend_c, 3, 9344
5, 164610, Pitch_bend_c, 3, 9472
5, 164631, Pitch_bend_c, 3, 9600
5, 164640, Pitch_bend_c, 3, 9600
5, 164880, Pitch_bend_c, 3, 9600
5, 164880, Pitch_bend_c, 3, 8192
5, 164880, Note_off_c, 3, 69, 95
5, 164880, Note_on_c, 2, 71, 95
5, 165120, Note_off_c, 2, 71, 95
5, 165120, Note_on_c, 2, 76, 95
5, 165360, Note_off_c, 2, 76, 95
5, 165360, Note_on_c, 2, 74, 95
5, 165600, Note_off_c, 2, 74, 95
5, 165600, Note_on_c, 2, 76, 95
5, 165840, Note_off_c, 2, 76, 95
5, 165840, Pitch_bend_c, 3, 8192
5, 165840, Note_on_c, 3, 69, 95
5, 165850, Pitch_bend_c, 3, 8320
5, 165860, Pitch_bend_c, 3, 8448
5, 165870, Pitch_bend_c, 3, 8576
5, 165880, Pitch_bend_c, 3, 8704
5, 165890, Pitch_bend_c, 3, 8832
5, 165900, Pitch_bend_c, 3, 8960
5, 165910, Pitch_bend_c, 3, 9088
5, 165920, Pitch_bend_c, 3, 9216
5, 165930, Pitch_bend_c, 3, 9344
5, 165940, Pitch_bend_c, 3, 9472
5, 165950, Pitch_bend_c, 3, 9600
5, 165960, Pitch_bend_c, 3, 9600
5, 166080, Pitch_bend_c, 3, 9600
5, 166090, Pitch_bend_c, 3, 9472
5, 166100, Pitch_bend_c, 3, 9344
5, 166110, Pitch_bend_c, 3, 9216
5, 166120, Pitch_bend_c, 3, 9088
5, 166130, Pitch_bend_c, 3, 8960
5, 166140, Pitch_bend_c, 3, 8832
5, 166150, Pitch_bend_c, 3, 8704
5, 166160, Pitch_bend_c, 3, 8576
5, 166170, Pitch_bend_c, 3, 8448
5, 166180, Pitch_bend_c, 3, 8320
5, 166190, Pitch_bend_c, 3, 8192
5, 166200, Pitch_bend_c, 3, 8192
5, 166320, Pitch_bend_c, 3, 8192
5, 166320, Pitch_bend_c, 3, 8192
5, 166320, Note_off_c, 3, 69, 95
5, 166320, Note_on_c, 2, 67, 95
5, 166560, Note_off_c, 2, 67, 95
5, 166560, Note_on_c, 2, 69, 95
5, 166800, Note_off_c, 2, 69, 95
5, 166800, Note_on_c, 2, 59, 95
5, 167040, Note_off_c, 2, 59, 95
5, 167040, Note_on_c, 2, 62, 95
5, 167520, Note_off_c, 2, 62, 95
5, 167520, Note_on_c, 2, 57, 95
5, 167760, Note_off_c, 2, 57, 95
5, 167760, Note_on_c, 2, 59, 70
5, 168000, Note_off_c, 2, 59, 70
5, 168000, Note_on_c, 2, 62, 95
5, 168240, Note_off_c, 2, 62, 95
5, 168240, Note_on_c, 2, 64, 95
5, 168480, Note_off_c, 2, 64, 95
5, 168480, Note_on_c, 2, 67, 95
5, 168960, Note_off_c, 2, 67, 95
5, 168960, Note_on_c, 3, 59, 95
5, 169120, Pitch_bend_c, 3, 8192
5, 169280, Pitch_bend_c, 3, 8320
5, 169440, Pitch_bend_c, 3, 8192
5, 169600, Pitch_bend_c, 3, 8320
5, 169760, Pitch_bend_c, 3, 8192
5, 169920, Pitch_bend_c, 3, 8320
5, 169920, Pitch_bend_c, 3, 8192
5, 169920, Note_off_c, 3, 59, 95
5, 169920, Note_on_c, 2, 57, 95
5, 170080, Note_off_c, 2, 57, 95
5, 170080, Note_on_c, 2, 58, 95
5, 170240, Note_off_c, 2, 58, 95
5, 170240, Note_on_c, 2, 57, 95
5, 170400, Note_off_c, 2, 57, 95
5, 170400, Note_on_c, 2, 55, 95
5, 170640, Note_off_c, 2, 55, 95
5, 170640, Note_on_c, 2, 52, 95
5, 170880, Note_off_c, 2, 52, 95
5, 170880, Note_on_c, 2, 57, 95
5, 171120, Note_off_c, 2, 57, 95
5, 171120, Note_on_c, 2, 59, 95
5, 171360, Note_off_c, 2, 59, 95
5, 171360, Note_on_c, 2, 62, 95
5, 171420, Note_off_c, 2, 62, 95
5, 171420, Note_on_c, 2, 64, 95
5, 171480, Note_off_c, 2, 64, 95
5, 171480, Note_on_c, 2, 62, 95
5, 171540, Note_off_c, 2, 62, 95
5, 171540, Note_on_c, 2, 64, 95
5, 171600, Note_off_c, 2, 64, 95
5, 171600, Note_on_c, 2, 62, 95
5, 171660, Note_off_c, 2, 62, 95
5, 171660, Note_on_c, 2, 64, 95
5, 171720, Note_off_c, 2, 64, 95
5, 171720, Note_on_c, 2, 62, 95
5, 171780, Note_off_c, 2, 62, 95
5, 171780, Note_on_c, 2, 64, 95
5, 171839, Note_off_c, 2, 64, 95
5, 171840, Note_on_c, 2, 67, 95
5, 171900, Note_off_c, 2, 67, 95
5, 171900, Note_on_c, 2, 69, 95
5, 171960, Note_off_c, 2, 69, 95
5, 171960, Note_on_c, 2, 67, 95
5, 172020, Note_off_c, 2, 67, 95
5, 172020, Note_on_c, 2, 69, 95
5, 172080, Note_off_c, 2, 69, 95
5, 172080, Note_on_c, 2, 67, 95
5, 172140, Note_off_c, 2, 67, 95
5, 172140, Note_on_c, 2, 69, 95
5, 172200, Note_off_c, 2, 69, 95
5, 172200, Note_on_c, 2, 67, 95
5, 172260, Note_off_c, 2, 67, 95
5, 172260, Note_on_c, 2, 69, 95
5, 172319, Note_off_c, 2, 69, 95
5, 172320, Note_on_c, 2, 69, 95
5, 172380, Note_off_c, 2, 69, 95
5, 172380, Note_on_c, 2, 71, 95
5, 172440, Note_off_c, 2, 71, 95
5, 172440, Note_on_c, 2, 69, 95
5, 172500, Note_off_c, 2, 69, 95
5, 172500, Note_on_c, 2, 71, 95
5, 172560, Note_off_c, 2, 71, 95
5, 172560, Note_on_c, 2, 69, 95
5, 172620, Note_off_c, 2, 69, 95
5, 172620, Note_on_c, 2, 71, 95
5, 172680, Note_off_c, 2, 71, 95
5, 172680, Note_on_c, 2, 69, 95
5, 172740, Note_off_c, 2, 69, 95
5, 172740, Note_on_c, 2, 71, 95
5, 172799, Note_off_c, 2, 71, 95
5, 172800, Pitch_bend_c, 3, 8192
5, 172800, Note_on_c, 3, 69, 95
5, 172810, Pitch_bend_c, 3, 8320
5, 172820, Pitch_bend_c, 3, 8448
5, 172830, Pitch_bend_c, 3, 8576
5, 172840, Pitch_bend_c, 3, 8704
5, 172850, Pitch_bend_c, 3, 8832
5, 172860, Pitch_bend_c, 3, 8960
5, 172870, Pitch_bend_c, 3, 9088
5, 172880, Pitch_bend_c, 3, 9216
5, 172890, Pitch_bend_c, 3, 9344
5, 172900, Pitch_bend_c, 3, 9472
5, 172910, Pitch_bend_c, 3, 9600
5, 172920, Pitch_bend_c, 3, 9600
5, 173040, Pitch_bend_c, 3, 9600
5, 173040, Pitch_bend_c, 3, 8192
5, 173040, Note_off_c, 3, 69, 95
5, 173040, Note_on_c, 2, 71, 95
5, 173280, Note_off_c, 2, 71, 95
5, 173280, Note_on_c, 2, 74, 95
5, 173520, Note_off_c, 2, 74, 95
5, 173520, Note_on_c, 2, 71, 70
5, 173760, Note_off_c, 2, 71, 70
5, 173760, Pitch_bend_c, 3, 8192
5, 173760, Note_on_c, 3, 69, 95
5, 173770, Pitch_bend_c, 3, 8320
5, 173780, Pitch_bend_c, 3, 8448
5, 173790, Pitch_bend_c, 3, 8576
5, 173800, Pitch_bend_c, 3, 8704
5, 173810, Pitch_bend_c, 3, 8832
5, 173820, Pitch_bend_c, 3, 8960
5, 173830, Pitch_bend_c, 3, 9088
5, 173840, Pitch_bend_c, 3, 9216
5, 173850, Pitch_bend_c, 3, 9344
5, 173860, Pitch_bend_c, 3, 9472
5, 173870, Pitch_bend_c, 3, 9600
5, 173880, Pitch_bend_c, 3, 9600
5, 174000, Pitch_bend_c, 3, 9600
5, 174000, Pitch_bend_c, 3, 8192
5, 174000, Note_off_c, 3, 69, 95
5, 174000, Note_on_c, 2, 71, 95
5, 174240, Note_off_c, 2, 71, 95
5, 174240, Note_on_c, 2, 74, 95
5, 174480, Note_off_c, 2, 74, 95
5, 174480, Note_on_c, 2, 71, 70
5, 174720, Note_off_c, 2, 71, 70
5, 174720, Note_on_c, 2, 69, 95
5, 174960, Note_off_c, 2, 69, 95
5, 174960, Note_on_c, 2, 74, 95
5, 175200, Note_off_c, 2, 74, 95
5, 175200, Note_on_c, 2, 71, 95
5, 175440, Note_off_c, 2, 71, 95
5, 175440, Pitch_bend_c, 3, 8192
5, 175440, Note_on_c, 3, 74, 95
5, 175472, Pitch_bend_c, 3, 8320
5, 175504, Pitch_bend_c, 3, 8448
5, 175536, Pitch_bend_c, 3, 8576
5, 175568, Pitch_bend_c, 3, 8704
5, 175600, Pitch_bend_c, 3, 8832
5, 175632, Pitch_bend_c, 3, 8960
5, 175664, Pitch_bend_c, 3, 9088
5, 175696, Pitch_bend_c, 3, 9216
5, 175728, Pitch_bend_c, 3, 9344
5, 175760, Pitch_bend_c, 3, 9472
5, 175792, Pitch_bend_c, 3, 9600
5, 175800, Pitch_bend_c, 3, 9600
5, 176160, Pitch_bend_c, 3, 9600
5, 176160, Pitch_bend_c, 3, 8192
5, 176160, Note_off_c, 3, 74, 95
5, 176160, Note_on_c, 2, 71, 95
5, 176640, Note_off_c, 2, 71, 95
5, 176640, Pitch_bend_c, 3, 8192
5, 176640, Note_on_c, 3, 79, 95
5, 176661, Pitch_bend_c, 3, 8320
5, 176682, Pitch_bend_c, 3, 8448
5, 176703, Pitch_bend_c, 3, 8576
5, 176724, Pitch_bend_c, 3, 8704
5, 176745, Pitch_bend_c, 3, 8832
5, 176766, Pitch_bend_c, 3, 8960
5, 176787, Pitch_bend_c, 3, 9088
5, 176808, Pitch_bend_c, 3, 9216
5, 176829, Pitch_bend_c, 3, 9344
5, 176850, Pitch_bend_c, 3, 9472
5, 176871, Pitch_bend_c, 3, 9600
5, 176880, Pitch_bend_c, 3, 9600
5, 177120, Pitch_bend_c, 3, 9600
5, 177120, Pitch_bend_c, 3, 8192
5, 177120, Note_off_c, 3, 79, 95
5, 177120, Note_on_c, 3, 79, 95
5, 177280, Pitch_bend_c, 3, 8192
5, 177440, Pitch_bend_c, 3, 8320
5, 177600, Pitch_bend_c, 3, 8192
5, 177760, Pitch_bend_c, 3, 8320
5, 177920, Pitch_bend_c, 3, 8192
5, 178080, Pitch_bend_c, 3, 8320
5, 178080, Pitch_bend_c, 3, 8192
5, 178080, Note_off_c, 3, 79, 95
5, 178080, Note_on_c, 2, 78, 95
5, 178560, Note_off_c, 2, 78, 95
5, 178560, Note_on_c, 2, 76, 95
5, 178560, Note_on_c, 2, 71, 95
5, 178800, Note_off_c, 2, 76, 95
5, 178800, Note_off_c, 2, 71, 95
5, 178800, Note_on_c, 2, 76, 95
5, 179040, Note_off_c, 2, 76, 95
5, 179040, Note_on_c, 2, 74, 95
5, 179280, Note_off_c, 2, 74, 95
5, 179280, Note_on_c, 2, 71, 95
5, 179520, Note_off_c, 2, 71, 95
5, 179520, Pitch_bend_c, 3, 8192
5, 179520, Note_on_c, 3, 69, 95
5, 179530, Pitch_bend_c, 3, 8320
5, 179540, Pitch_bend_c, 3, 8448
5, 179550, Pitch_bend_c, 3, 8576
5, 179560, Pitch_bend_c, 3, 8704
5, 179570, Pitch_bend_c, 3, 8832
5, 179580, Pitch_bend_c, 3, 8960
5, 179590, Pitch_bend_c, 3, 9088
5, 179600, Pitch_bend_c, 3, 9216
5, 179610, Pitch_bend_c, 3, 9344
5, 179620, Pitch_bend_c, 3, 9472
5, 179630, Pitch_bend_c, 3, 9600
5, 179640, Pitch_bend_c, 3, 9600
5, 179760, Pitch_bend_c, 3, 9600
5, 179770, Pitch_bend_c, 3, 9472
5, 179780, Pitch_bend_c, 3, 9344
5, 179790, Pitch_bend_c, 3, 9216
5, 179800, Pitch_bend_c, 3, 9088
5, 179810, Pitch_bend_c, 3, 8960
5, 179820, Pitch_bend_c, 3, 8832
5, 179830, Pitch_bend_c, 3, 8704
5, 179840, Pitch_bend_c, 3, 8576
5, 179850, Pitch_bend_c, 3, 8448
5, 179860, Pitch_bend_c, 3, 8320
5, 179870, Pitch_bend_c, 3, 8192
5, 179880, Pitch_bend_c, 3, 8192
5, 180000, Pitch_bend_c, 3, 8192
5, 180000, Pitch_bend_c, 3, 8192
5, 180000, Note_off_c, 3, 69, 95
5, 180000, Note_on_c, 2, 67, 95
5, 180160, Note_off_c, 2, 67, 95
5, 180160, Note_on_c, 2, 69, 95
5, 180320, Note_off_c, 2, 69, 95
5, 180320, Note_on_c, 2, 67, 95
5, 180480, Note_off_c, 2, 67, 95
5, 180480, Note_on_c, 2, 67, 95
5, 180960, Note_off_c, 2, 67, 95
5, 180960, Note_on_c, 2, 59, 95
5, 181440, Note_off_c, 2, 59, 95
5, 181440, Note_on_c, 2, 62, 95
5, 181680, Note_off_c, 2, 62, 95
5, 181680, Note_on_c, 2, 64, 95
5, 181920, Note_off_c, 2, 64, 95
5, 181920, Note_on_c, 2, 71, 95
5, 181920, Note_on_c, 2, 67, 95
5, 182400, Note_off_c, 2, 71, 95
5, 182400, Note_off_c, 2, 67, 95
5, 182400, Note_on_c, 2, 64, 95
5, 182880, Note_off_c, 2, 64, 95
5, 182880, Note_on_c, 3, 64, 95
5, 183040, Pitch_bend_c, 3, 8192
5, 183200, Pitch_bend_c, 3, 8320
5, 183360, Pitch_bend_c, 3, 8192
5, 183360, Pitch_bend_c, 3, 8320
5, 183360, Pitch_bend_c, 3, 8192
5, 183360, Note_off_c, 3, 64, 95
5, 183360, Note_on_c, 3, 64, 47
5, 183480, Pitch_bend_c, 3, 7808
5, 183600, Pitch_bend_c, 3, 7424
5, 183720, Pitch_bend_c, 3, 6912
5, 183840, Pitch_bend_c, 3, 6528
5, 183960, Pitch_bend_c, 3, 6016
5, 184080, Pitch_bend_c, 3, 5632
5, 184200, Pitch_bend_c, 3, 5120
5, 184320, Pitch_bend_c, 3, 4736
5, 184320, Pitch_bend_c, 3, 8192
5, 184320, Note_off_c, 3, 64, 47
5, 184320, Note_on_c, 3, 68, 95
5, 184320, Note_on_c, 3, 64, 95
5, 184320, Note_on_c, 3, 59, 95
5, 184320, Note_on_c, 3, 52, 95
5, 184440, Pitch_bend_c, 3, 8448
5, 184560, Pitch_bend_c, 3, 8704
5, 184680, Pitch_bend_c, 3, 8960
5, 184800, Pitch_bend_c, 3, 9344
5, 184920, Pitch_bend_c, 3, 9600
5, 185040, Pitch_bend_c, 3, 9856
5, 185160, Pitch_bend_c, 3, 10240
5, 185280, Pitch_bend_c, 3, 10496
5, 185400, Pitch_bend_c, 3, 10752
5, 185520, Pitch_bend_c, 3, 11008
5, 185640, Pitch_bend_c, 3, 11392
5, 185760, Note_off_c, 3, 68, 95
5, 185760, Note_off_c, 3, 64, 95
5, 185760, Pitch_bend_c, 3, 11648
5, 185760, Pitch_bend_c, 3, 8192
5, 185760, Note_off_c, 3, 59, 95
5, 185760, Note_off_c, 3, 52, 95
5, 185760, Note_on_c, 2, 64, 95
5, 186000, Note_off_c, 2, 64, 95
5, 186000, Note_on_c, 2, 62, 95
5, 186240, Note_off_c, 2, 62, 95
5, 186240, Note_on_c, 2, 59, 95
5, 186720, Note_off_c, 2, 59, 95
5, 186720, Note_on_c, 3, 67, 95
5, 186880, Pitch_bend_c, 3, 8192
5, 187040, Pitch_bend_c, 3, 8320
5, 187200, Pitch_bend_c, 3, 8192
5, 187360, Pitch_bend_c, 3, 8320
5, 187520, Pitch_bend_c, 3, 8192
5, 187680, Pitch_bend_c, 3, 8320
5, 187840, Pitch_bend_c, 3, 8192
5, 188000, Pitch_bend_c, 3, 8320
5, 188160, Pitch_bend_c, 3, 8192
5, 188320, Pitch_bend_c, 3, 8320
5, 188480, Pitch_bend_c, 3, 8192
5, 188640, Pitch_bend_c, 3, 8320
5, 188800, Pitch_bend_c, 3, 8192
5, 188960, Pitch_bend_c, 3, 8320
5, 189120, Pitch_bend_c, 3, 8192
5, 189120, Pitch_bend_c, 3, 8320
5, 189120, Pitch_bend_c, 3, 8192
5, 189120, Note_off_c, 3, 67, 95
5, 190080, Note_on_c, 3, 68, 95
5, 190080, Note_on_c, 3, 64, 95
5, 190080, Note_on_c, 3, 59, 95
5, 190080, Note_on_c, 3, 52, 95
5, 190200, Pitch_bend_c, 3, 8448
5, 190320, Pitch_bend_c, 3, 8704
5, 190440, Pitch_bend_c, 3, 8960
5, 190560, Pitch_bend_c, 3, 9344
5, 190680, Pitch_bend_c, 3, 9600
5, 190800, Pitch_bend_c, 3, 9856
5, 190920, Pitch_bend_c, 3, 10240
5, 191040, Pitch_bend_c, 3, 10496
5, 191160, Pitch_bend_c, 3, 10752
5, 191280, Pitch_bend_c, 3, 11008
5, 191400, Pitch_bend_c, 3, 11392
5, 191520, Note_off_c, 3, 68, 95
5, 191520, Note_off_c, 3, 64, 95
5, 191520, Pitch_bend_c, 3, 11648
5, 191520, Pitch_bend_c, 3, 8192
5, 191520, Note_off_c, 3, 59, 95
5, 191520, Note_off_c, 3, 52, 95
5, 191520, Note_on_c, 2, 64, 95
5, 191760, Note_off_c, 2, 64, 95
5, 191760, Note_on_c, 2, 62, 95
5, 192000, Note_off_c, 2, 62, 95
5, 192000, Note_on_c, 2, 59, 95
5, 192480, Note_off_c, 2, 59, 95
5, 192480, Note_on_c, 3, 67, 95
5, 192640, Pitch_bend_c, 3, 8192
5, 192800, Pitch_bend_c, 3, 8320
5, 192960, Pitch_bend_c, 3, 8192
5, 193120, Pitch_bend_c, 3, 8320
5, 193280, Pitch_bend_c, 3, 8192
5, 193440, Pitch_bend_c, 3, 8320
5, 193600, Pitch_bend_c, 3, 8192
5, 193760, Pitch_bend_c, 3, 8320
5, 193920, Pitch_bend_c, 3, 8192
5, 194080, Pitch_bend_c, 3, 8320
5, 194240, Pitch_bend_c, 3, 8192
5, 194400, Pitch_bend_c, 3, 8320
5, 194560, Pitch_bend_c, 3, 8192
5, 194720, Pitch_bend_c, 3, 8320
5, 194880, Pitch_bend_c, 3, 8192
5, 194880, Pitch_bend_c, 3, 8320
5, 194880, Pitch_bend_c, 3, 8192
5, 194880, Note_off_c, 3, 67, 95
5, 253440, Note_on_c, 3, 68, 95
5, 253440, Note_on_c, 3, 64, 95
5, 253440, Note_on_c, 3, 59, 95
5, 253440, Note_on_c, 3, 52, 95
5, 253560, Pitch_bend_c, 3, 8448
5, 253680, Pitch_bend_c, 3, 8704
5, 253800, Pitch_bend_c, 3, 8960
5, 253920, Pitch_bend_c, 3, 9344
5, 254040, Pitch_bend_c, 3, 9600
5, 254160, Pitch_bend_c, 3, 9856
5, 254280, Pitch_bend_c, 3, 10240
5, 254400, Pitch_bend_c, 3, 10496
5, 254520, Pitch_bend_c, 3, 10752
5, 254640, Pitch_bend_c, 3, 11008
5, 254760, Pitch_bend_c, 3, 11392
5, 254880, Note_off_c, 3, 68, 95
5, 254880, Note_off_c, 3, 64, 95
5, 254880, Pitch_bend_c, 3, 11648
5, 254880, Pitch_bend_c, 3, 8192
5, 254880, Note_off_c, 3, 59, 95
5, 254880, Note_off_c, 3, 52, 95
5, 254880, Note_on_c, 2, 64, 95
5, 255120, Note_off_c, 2, 64, 95
5, 255120, Note_on_c, 2, 62, 95
5, 255360, Note_off_c, 2, 62, 95
5, 255360, Note_on_c, 2, 59, 95
5, 255840, Note_off_c, 2, 59, 95
5, 255840, Note_on_c, 3, 67, 95
5, 256000, Pitch_bend_c, 3, 8192
5, 256160, Pitch_bend_c, 3, 8320
5, 256320, Pitch_bend_c, 3, 8192
5, 256480, Pitch_bend_c, 3, 8320
5, 256640, Pitch_bend_c, 3, 8192
5, 256800, Pitch_bend_c, 3, 8320
5, 256960, Pitch_bend_c, 3, 8192
5, 257120, Pitch_bend_c, 3, 8320
5, 257280, Pitch_bend_c, 3, 8192
5, 257440, Pitch_bend_c, 3, 8320
5, 257600, Pitch_bend_c, 3, 8192
5, 257760, Pitch_bend_c, 3, 8320
5, 257920, Pitch_bend_c, 3, 8192
5, 258080, Pitch_bend_c, 3, 8320
5, 258240, Pitch_bend_c, 3, 8192
5, 258240, Pitch_bend_c, 3, 8320
5, 258240, Pitch_bend_c, 3, 8192
5, 258240, Note_off_c, 3, 67, 95
5, 259200, Note_on_c, 3, 68, 95
5, 259200, Note_on_c, 3, 64, 95
5, 259200, Note_on_c, 3, 59, 95
5, 259200, Note_on_c, 3, 52, 95
5, 259320, Pitch_bend_c, 3, 8448
5, 259440, Pitch_bend_c, 3, 8704
5, 259560, Pitch_bend_c, 3, 8960
5, 259680, Pitch_bend_c, 3, 9344
5, 259800, Pitch_bend_c, 3, 9600
5, 259920, Pitch_bend_c, 3, 9856
5, 260040, Pitch_bend_c, 3, 10240
5, 260160, Pitch_bend_c, 3, 10496
5, 260280, Pitch_bend_c, 3, 10752
5, 260400, Pitch_bend_c, 3, 11008
5, 260520, Pitch_bend_c, 3, 11392
5, 260640, Note_off_c, 3, 68, 95
5, 260640, Note_off_c, 3, 64, 95
5, 260640, Pitch_bend_c, 3, 11648
5, 260640, Pitch_bend_c, 3, 8192
5, 260640, Note_off_c, 3, 59, 95
5, 260640, Note_off_c, 3, 52, 95
5, 260640, Note_on_c, 2, 64, 95
5, 260880, Note_off_c, 2, 64, 95
5, 260880, Note_on_c, 2, 62, 95
5, 261120, Note_off_c, 2, 62, 95
5, 261120, Note_on_c, 2, 59, 95
5, 261600, Note_off_c, 2, 59, 95
5, 261600, Note_on_c, 3, 67, 95
5, 261760, Pitch_bend_c, 3, 8192
5, 261920, Pitch_bend_c, 3, 8320
5, 262080, Pitch_bend_c, 3, 8192
5, 262240, Pitch_bend_c, 3, 8320
5, 262400, Pitch_bend_c, 3, 8192
5, 262560, Pitch_bend_c, 3, 8320
5, 262720, Pitch_bend_c, 3, 8192
5, 262880, Pitch_bend_c, 3, 8320
5, 263040, Pitch_bend_c, 3, 8192
5, 263200, Pitch_bend_c, 3, 8320
5, 263360, Pitch_bend_c, 3, 8192
5, 263520, Pitch_bend_c, 3, 8320
5, 263680, Pitch_bend_c, 3, 8192
5, 263840, Pitch_bend_c, 3, 8320
5, 264000, Pitch_bend_c, 3, 8192
5, 264000, Pitch_bend_c, 3, 8320
5, 264000, Pitch_bend_c, 3, 8192
5, 264000, Note_off_c, 3, 67, 95
5, 264960, Note_on_c, 3, 68, 95
5, 264960, Note_on_c, 3, 64, 95
5, 264960, Note_on_c, 3, 59, 95
5, 264960, Note_on_c, 3, 52, 95
5, 265080, Pitch_bend_c, 3, 8448
5, 265200, Pitch_bend_c, 3, 8704
5, 265320, Pitch_bend_c, 3, 8960
5, 265440, Pitch_bend_c, 3, 9344
5, 265560, Pitch_bend_c, 3, 9600
5, 265680, Pitch_bend_c, 3, 9856
5, 265800, Pitch_bend_c, 3, 10240
5, 265920, Pitch_bend_c, 3, 10496
5, 266040, Pitch_bend_c, 3, 10752
5, 266160, Pitch_bend_c, 3, 11008
5, 266280, Pitch_bend_c, 3, 11392
5, 266400, Note_off_c, 3, 68, 95
5, 266400, Note_off_c, 3, 64, 95
5, 266400, Pitch_bend_c, 3, 11648
5, 266400, Pitch_bend_c, 3, 8192
5, 266400, Note_off_c, 3, 59, 95
5, 266400, Note_off_c, 3, 52, 95
5, 266400, Note_on_c, 2, 64, 95
5, 266640, Note_off_c, 2, 64, 95
5, 266640, Note_on_c, 2, 62, 95
5, 266880, Note_off_c, 2, 62, 95
5, 266880, Note_on_c, 2, 59, 95
5, 267360, Note_off_c, 2, 59, 95
5, 267360, Note_on_c, 3, 67, 95
5, 267520, Pitch_bend_c, 3, 8192
5, 267680, Pitch_bend_c, 3, 8320
5, 267840, Pitch_bend_c, 3, 8192
5, 268000, Pitch_bend_c, 3, 8320
5, 268160, Pitch_bend_c, 3, 8192
5, 268320, Pitch_bend_c, 3, 8320
5, 268480, Pitch_bend_c, 3, 8192
5, 268640, Pitch_bend_c, 3, 8320
5, 268800, Pitch_bend_c, 3, 8192
5, 268960, Pitch_bend_c, 3, 8320
5, 269120, Pitch_bend_c, 3, 8192
5, 269280, Pitch_bend_c, 3, 8320
5, 269440, Pitch_bend_c, 3, 8192
5, 269600, Pitch_bend_c, 3, 8320
5, 269760, Pitch_bend_c, 3, 8192
5, 269760, Pitch_bend_c, 3, 8320
5, 269760, Pitch_bend_c, 3, 8192
5, 269760, Note_off_c, 3, 67, 95
5, 270720, Note_on_c, 3, 68, 95
5, 270720, Note_on_c, 3, 64, 95
5, 270720, Note_on_c, 3, 59, 95
5, 270720, Note_on_c, 3, 52, 95
5, 270840, Pitch_bend_c, 3, 8448
5, 270960, Pitch_bend_c, 3, 8704
5, 271080, Pitch_bend_c, 3, 8960
5, 271200, Pitch_bend_c, 3, 9344
5, 271320, Pitch_bend_c, 3, 9600
5, 271440, Pitch_bend_c, 3, 9856
5, 271560, Pitch_bend_c, 3, 10240
5, 271680, Pitch_bend_c, 3, 10496
5, 271800, Pitch_bend_c, 3, 10752
5, 271920, Pitch_bend_c, 3, 11008
5, 272040, Pitch_bend_c, 3, 11392
5, 272160, Note_off_c, 3, 68, 95
5, 272160, Note_off_c, 3, 64, 95
5, 272160, Pitch_bend_c, 3, 11648
5, 272160, Pitch_bend_c, 3, 8192
5, 272160, Note_off_c, 3, 59, 95
5, 272160, Note_off_c, 3, 52, 95
5, 272160, Note_on_c, 2, 64, 95
5, 272400, Note_off_c, 2, 64, 95
5, 272400, Note_on_c, 2, 62, 95
5, 272640, Note_off_c, 2, 62, 95
5, 272640, Note_on_c, 2, 59, 95
5, 273120, Note_off_c, 2, 59, 95
5, 273120, Note_on_c, 3, 67, 95
5, 273280, Pitch_bend_c, 3, 8192
5, 273440, Pitch_bend_c, 3, 8320
5, 273600, Pitch_bend_c, 3, 8192
5, 273760, Pitch_bend_c, 3, 8320
5, 273920, Pitch_bend_c, 3, 8192
5, 274080, Pitch_bend_c, 3, 8320
5, 274240, Pitch_bend_c, 3, 8192
5, 274400, Pitch_bend_c, 3, 8320
5, 274560, Pitch_bend_c, 3, 8192
5, 274720, Pitch_bend_c, 3, 8320
5, 274880, Pitch_bend_c, 3, 8192
5, 275040, Pitch_bend_c, 3, 8320
5, 275200, Pitch_bend_c, 3, 8192
5, 275360, Pitch_bend_c, 3, 8320
5, 275520, Pitch_bend_c, 3, 8192
5, 275520, Pitch_bend_c, 3, 8320
5, 275520, Pitch_bend_c, 3, 8192
5, 275520, Note_off_c, 3, 67, 95
5, 276480, Note_on_c, 3, 68, 95
5, 276480, Note_on_c, 3, 64, 95
5, 276480, Note_on_c, 3, 59, 95
5, 276480, Note_on_c, 3, 52, 95
5, 276600, Pitch_bend_c, 3, 8448
5, 276720, Pitch_bend_c, 3, 8704
5, 276840, Pitch_bend_c, 3, 8960
5, 276960, Pitch_bend_c, 3, 9344
5, 277080, Pitch_bend_c, 3, 9600
5, 277200, Pitch_bend_c, 3, 9856
5, 277320, Pitch_bend_c, 3, 10240
5, 277440, Pitch_bend_c, 3, 10496
5, 277560, Pitch_bend_c, 3, 10752
5, 277680, Pitch_bend_c, 3, 11008
5, 277800, Pitch_bend_c, 3, 11392
5, 277920, Note_off_c, 3, 68, 95
5, 277920, Note_off_c, 3, 64, 95
5, 277920, Pitch_bend_c, 3, 11648
5, 277920, Pitch_bend_c, 3, 8192
5, 277920, Note_off_c, 3, 59, 95
5, 277920, Note_off_c, 3, 52, 95
5, 277920, Note_on_c, 2, 64, 95
5, 278160, Note_off_c, 2, 64, 95
5, 278160, Note_on_c, 2, 62, 95
5, 278400, Note_off_c, 2, 62, 95
5, 278400, Note_on_c, 2, 59, 95
5, 278880, Note_off_c, 2, 59, 95
5, 278880, Note_on_c, 3, 67, 95
5, 279040, Pitch_bend_c, 3, 8192
5, 279200, Pitch_bend_c, 3, 8320
5, 279360, Pitch_bend_c, 3, 8192
5, 279520, Pitch_bend_c, 3, 8320
5, 279680, Pitch_bend_c, 3, 8192
5, 279840, Pitch_bend_c, 3, 8320
5, 280000, Pitch_bend_c, 3, 8192
5, 280160, Pitch_bend_c, 3, 8320
5, 280320, Pitch_bend_c, 3, 8192
5, 280480, Pitch_bend_c, 3, 8320
5, 280640, Pitch_bend_c, 3, 8192
5, 280800, Pitch_bend_c, 3, 8320
5, 280960, Pitch_bend_c, 3, 8192
5, 281120, Pitch_bend_c, 3, 8320
5, 281280, Pitch_bend_c, 3, 8192
5, 281280, Pitch_bend_c, 3, 8320
5, 281280, Pitch_bend_c, 3, 8192
5, 281280, Note_off_c, 3, 67, 95
5, 282240, Note_on_c, 3, 68, 95
5, 282240, Note_on_c, 3, 64, 95
5, 282240, Note_on_c, 3, 59, 95
5, 282240, Note_on_c, 3, 52, 95
5, 282360, Pitch_bend_c, 3, 8448
5, 282480, Pitch_bend_c, 3, 8704
5, 282600, Pitch_bend_c, 3, 8960
5, 282720, Pitch_bend_c, 3, 9344
5, 282840, Pitch_bend_c, 3, 9600
5, 282960, Pitch_bend_c, 3, 9856
5, 283080, Pitch_bend_c, 3, 10240
5, 283200, Pitch_bend_c, 3, 10496
5, 283320, Pitch_bend_c, 3, 10752
5, 283440, Pitch_bend_c, 3, 11008
5, 283560, Pitch_bend_c, 3, 11392
5, 283680, Note_off_c, 3, 68, 95
5, 283680, Note_off_c, 3, 64, 95
5, 283680, Pitch_bend_c, 3, 11648
5, 283680, Pitch_bend_c, 3, 8192
5, 283680, Note_off_c, 3, 59, 95
5, 283680, Note_off_c, 3, 52, 95
5, 283680, Note_on_c, 2, 64, 95
5, 283920, Note_off_c, 2, 64, 95
5, 283920, Note_on_c, 2, 62, 95
5, 284160, Note_off_c, 2, 62, 95
5, 284160, Note_on_c, 2, 59, 95
5, 284640, Note_off_c, 2, 59, 95
5, 284640, Note_on_c, 3, 67, 95
5, 284800, Pitch_bend_c, 3, 8192
5, 284960, Pitch_bend_c, 3, 8320
5, 285120, Pitch_bend_c, 3, 8192
5, 285280, Pitch_bend_c, 3, 8320
5, 285440, Pitch_bend_c, 3, 8192
5, 285600, Pitch_bend_c, 3, 8320
5, 285760, Pitch_bend_c, 3, 8192
5, 285920, Pitch_bend_c, 3, 8320
5, 286080, Pitch_bend_c, 3, 8192
5, 286240, Pitch_bend_c, 3, 8320
5, 286400, Pitch_bend_c, 3, 8192
5, 286560, Pitch_bend_c, 3, 8320
5, 286720, Pitch_bend_c, 3, 8192
5, 286880, Pitch_bend_c, 3, 8320
5, 287040, Pitch_bend_c, 3, 8192
5, 287040, Pitch_bend_c, 3, 8320
5, 287040, Pitch_bend_c, 3, 8192
5, 287040, Note_off_c, 3, 67, 95
5, 288000, Note_on_c, 3, 68, 95
5, 288000, Note_on_c, 3, 64, 95
5, 288000, Note_on_c, 3, 59, 95
5, 288000, Note_on_c, 3, 52, 95
5, 288120, Pitch_bend_c, 3, 8448
5, 288240, Pitch_bend_c, 3, 8704
5, 288360, Pitch_bend_c, 3, 8960
5, 288480, Pitch_bend_c, 3, 9344
5, 288600, Pitch_bend_c, 3, 9600
5, 288720, Pitch_bend_c, 3, 9856
5, 288840, Pitch_bend_c, 3, 10240
5, 288960, Pitch_bend_c, 3, 10496
5, 289080, Pitch_bend_c, 3, 10752
5, 289200, Pitch_bend_c, 3, 11008
5, 289320, Pitch_bend_c, 3, 11392
5, 289440, Note_off_c, 3, 68, 95
5, 289440, Note_off_c, 3, 64, 95
5, 289440, Pitch_bend_c, 3, 11648
5, 289440, Pitch_bend_c, 3, 8192
5, 289440, Note_off_c, 3, 59, 95
5, 289440, Note_off_c, 3, 52, 95
5, 289440, Note_on_c, 2, 64, 95
5, 289680, Note_off_c, 2, 64, 95
5, 289680, Note_on_c, 2, 62, 95
5, 289920, Note_off_c, 2, 62, 95
5, 289920, Note_on_c, 2, 59, 95
5, 290400, Note_off_c, 2, 59, 95
5, 290400, Note_on_c, 3, 67, 95
5, 290560, Pitch_bend_c, 3, 8192
5, 290720, Pitch_bend_c, 3, 8320
5, 290880, Pitch_bend_c, 3, 8192
5, 291040, Pitch_bend_c, 3, 8320
5, 291200, Pitch_bend_c, 3, 8192
5, 291360, Pitch_bend_c, 3, 8320
5, 291520, Pitch_bend_c, 3, 8192
5, 291680, Pitch_bend_c, 3, 8320
5, 291840, Pitch_bend_c, 3, 8192
5, 292000, Pitch_bend_c, 3, 8320
5, 292160, Pitch_bend_c, 3, 8192
5, 292320, Pitch_bend_c, 3, 8320
5, 292480, Pitch_bend_c, 3, 8192
5, 292640, Pitch_bend_c, 3, 8320
5, 292800, Pitch_bend_c, 3, 8192
5, 292800, Pitch_bend_c, 3, 8320
5, 292800, Pitch_bend_c, 3, 8192
5, 292800, Note_off_c, 3, 67, 95
5, 293760, Note_on_c, 3, 68, 95
5, 293760, Note_on_c, 3, 64, 95
5, 293760, Note_on_c, 3, 59, 95
5, 293760, Note_on_c, 3, 52, 95
5, 293880, Pitch_bend_c, 3, 8448
5, 294000, Pitch_bend_c, 3, 8704
5, 294120, Pitch_bend_c, 3, 8960
5, 294240, Pitch_bend_c, 3, 9344
5, 294360, Pitch_bend_c, 3, 9600
5, 294480, Pitch_bend_c, 3, 9856
5, 294600, Pitch_bend_c, 3, 10240
5, 294720, Pitch_bend_c, 3, 10496
5, 294840, Pitch_bend_c, 3, 10752
5, 294960, Pitch_bend_c, 3, 11008
5, 295080, Pitch_bend_c, 3, 11392
5, 295200, Note_off_c, 3, 68, 95
5, 295200, Note_off_c, 3, 64, 95
5, 295200, Pitch_bend_c, 3, 11648
5, 295200, Pitch_bend_c, 3, 8192
5, 295200, Note_off_c, 3, 59, 95
5, 295200, Note_off_c, 3, 52, 95
5, 295200, Note_on_c, 2, 64, 95
5, 295440, Note_off_c, 2, 64, 95
5, 295440, Note_on_c, 2, 62, 95
5, 295680, Note_off_c, 2, 62, 95
5, 295680, Note_on_c, 2, 59, 95
5, 296160, Note_off_c, 2, 59, 95
5, 296160, Note_on_c, 3, 67, 95
5, 296320, Pitch_bend_c, 3, 8192
5, 296480, Pitch_bend_c, 3, 8320
5, 296640, Pitch_bend_c, 3, 8192
5, 296800, Pitch_bend_c, 3, 8320
5, 296960, Pitch_bend_c, 3, 8192
5, 297120, Pitch_bend_c, 3, 8320
5, 297280, Pitch_bend_c, 3, 8192
5, 297440, Pitch_bend_c, 3, 8320
5, 297600, Pitch_bend_c, 3, 8192
5, 297760, Pitch_bend_c, 3, 8320
5, 297920, Pitch_bend_c, 3, 8192
5, 298080, Pitch_bend_c, 3, 8320
5, 298240, Pitch_bend_c, 3, 8192
5, 298400, Pitch_bend_c, 3, 8320
5, 298560, Pitch_bend_c, 3, 8192
5, 298560, Pitch_bend_c, 3, 8320
5, 298560, Pitch_bend_c, 3, 8192
5, 298560, Note_off_c, 3, 67, 95
5, 316800, Note_on_c, 3, 68, 95
5, 316800, Note_on_c, 3, 64, 95
5, 316800, Note_on_c, 3, 59, 95
5, 316800, Note_on_c, 3, 52, 95
5, 316920, Pitch_bend_c, 3, 8448
5, 317040, Pitch_bend_c, 3, 8704
5, 317160, Pitch_bend_c, 3, 8960
5, 317280, Pitch_bend_c, 3, 9344
5, 317400, Pitch_bend_c, 3, 9600
5, 317520, Pitch_bend_c, 3, 9856
5, 317640, Pitch_bend_c, 3, 10240
5, 317760, Pitch_bend_c, 3, 10496
5, 317880, Pitch_bend_c, 3, 10752
5, 318000, Pitch_bend_c, 3, 11008
5, 318120, Pitch_bend_c, 3, 11392
5, 318240, Note_off_c, 3, 68, 95
5, 318240, Note_off_c, 3, 64, 95
5, 318240, Pitch_bend_c, 3, 11648
5, 318240, Pitch_bend_c, 3, 8192
5, 318240, Note_off_c, 3, 59, 95
5, 318240, Note_off_c, 3, 52, 95
5, 318240, Note_on_c, 2, 64, 95
5, 318480, Note_off_c, 2, 64, 95
5, 318480, Note_on_c, 2, 62, 95
5, 318720, Note_off_c, 2, 62, 95
5, 318720, Note_on_c, 2, 59, 95
5, 319200, Note_off_c, 2, 59, 95
5, 319200, Note_on_c, 3, 67, 95
5, 319360, Pitch_bend_c, 3, 8192
5, 319520, Pitch_bend_c, 3, 8320
5, 319680, Pitch_bend_c, 3, 8192
5, 319840, Pitch_bend_c, 3, 8320
5, 320000, Pitch_bend_c, 3, 8192
5, 320160, Pitch_bend_c, 3, 8320
5, 320320, Pitch_bend_c, 3, 8192
5, 320480, Pitch_bend_c, 3, 8320
5, 320640, Pitch_bend_c, 3, 8192
5, 320800, Pitch_bend_c, 3, 8320
5, 320960, Pitch_bend_c, 3, 8192
5, 321120, Pitch_bend_c, 3, 8320
5, 321280, Pitch_bend_c, 3, 8192
5, 321440, Pitch_bend_c, 3, 8320
5, 321600, Pitch_bend_c, 3, 8192
5, 321600, Pitch_bend_c, 3, 8320
5, 321600, Pitch_bend_c, 3, 8192
5, 321600, Note_off_c, 3, 67, 95
5, 328320, Note_on_c, 3, 68, 95
5, 328320, Note_on_c, 3, 64, 95
5, 328320, Note_on_c, 3, 59, 95
5, 328320, Note_on_c, 3, 52, 95
5, 328440, Pitch_bend_c, 3, 8448
5, 328560, Pitch_bend_c, 3, 8704
5, 328680, Pitch_bend_c, 3, 8960
5, 328800, Pitch_bend_c, 3, 9344
5, 328920, Pitch_bend_c, 3, 9600
5, 329040, Pitch_bend_c, 3, 9856
5, 329160, Pitch_bend_c, 3, 10240
5, 329280, Pitch_bend_c, 3, 10496
5, 329400, Pitch_bend_c, 3, 10752
5, 329520, Pitch_bend_c, 3, 11008
5, 329640, Pitch_bend_c, 3, 11392
5, 329760, Note_off_c, 3, 68, 95
5, 329760, Note_off_c, 3, 64, 95
5, 329760, Pitch_bend_c, 3, 11648
5, 329760, Pitch_bend_c, 3, 8192
5, 329760, Note_off_c, 3, 59, 95
5, 329760, Note_off_c, 3, 52, 95
5, 329760, Note_on_c, 2, 64, 95
5, 330000, Note_off_c, 2, 64, 95
5, 330000, Note_on_c, 2, 62, 95
5, 330240, Note_off_c, 2, 62, 95
5, 330240, Note_on_c, 2, 59, 95
5, 330720, Note_off_c, 2, 59, 95
5, 330720, Note_on_c, 3, 67, 95
5, 330880, Pitch_bend_c, 3, 8192
5, 331040, Pitch_bend_c, 3, 8320
5, 331200, Pitch_bend_c, 3, 8192
5, 331360, Pitch_bend_c, 3, 8320
5, 331520, Pitch_bend_c, 3, 8192
5, 331680, Pitch_bend_c, 3, 8320
5, 331840, Pitch_bend_c, 3, 8192
5, 332000, Pitch_bend_c, 3, 8320
5, 332160, Pitch_bend_c, 3, 8192
5, 332320, Pitch_bend_c, 3, 8320
5, 332480, Pitch_bend_c, 3, 8192
5, 332640, Pitch_bend_c, 3, 8320
5, 332800, Pitch_bend_c, 3, 8192
5, 332960, Pitch_bend_c, 3, 8320
5, 333120, Pitch_bend_c, 3, 8192
5, 333120, Pitch_bend_c, 3, 8320
5, 333120, Pitch_bend_c, 3, 8192
5, 333120, Note_off_c, 3, 67, 95
5, 353760, Note_on_c, 2, 67, 95
5, 353760, Note_on_c, 2, 62, 95
5, 353760, Note_on_c, 2, 56, 95
5, 353760, Note_on_c, 2, 52, 95
5, 353760, Note_on_c, 2, 40, 95
5, 360000, Note_off_c, 2, 67, 95
5, 360000, Note_off_c, 2, 62, 95
5, 360000, Note_off_c, 2, 56, 95
5, 360000, Note_off_c, 2, 52, 95
5, 360000, Note_off_c, 2, 40, 95
5, 360000, Note_on_c, 2, 64, 95
5, 360000, Note_on_c, 2, 59, 95
5, 360000, Note_on_c, 2, 52, 95
5, 362880, Note_off_c, 2, 64, 95
5, 362880, Note_off_c, 2, 59, 95
5, 362880, Note_off_c, 2, 52, 95
5, 368640, Note_on_c, 2, 68, 95
5, 368640, Note_on_c, 2, 64, 95
5, 368640, Note_on_c, 2, 59, 95
5, 368640, Note_on_c, 2, 52, 95
5, 368640, Note_on_c, 2, 40, 95
5, 368880, Note_off_c, 2, 68, 95
5, 368880, Note_off_c, 2, 64, 95
5, 368880, Note_off_c, 2, 59, 95
5, 368880, Note_off_c, 2, 52, 95
5, 368880, Note_off_c, 2, 40, 95
5, 368880, End_track
6, 0, Start_track
6, 0, Pitch_bend_c, 6, 8192
6, 0, Control_c, 6, 7, 111
6, 0, Control_c, 6, 10, 63
6, 0, Control_c, 6, 93, 0
6, 0, Control_c, 6, 91, 0
6, 0, Control_c, 6, 95, 0
6, 0, Control_c, 6, 92, 0
6, 0, Control_c, 6, 11, 127
6, 0, Program_c, 6, 32
6, 0, Control_c, 7, 7, 111
6, 0, Control_c, 7, 10, 63
6, 0, Control_c, 7, 93, 0
6, 0, Control_c, 7, 91, 0
6, 0, Control_c, 7, 95, 0
6, 0, Control_c, 7, 92, 0
6, 0, Control_c, 7, 11, 127
6, 0, Program_c, 7, 32
6, 3360, Note_on_c, 6, 33, 95
6, 3840, Note_off_c, 6, 33, 95
6, 3840, Note_on_c, 6, 34, 95
6, 4320, Note_off_c, 6, 34, 95
6, 4320, Note_on_c, 6, 35, 95
6, 4800, Note_off_c, 6, 35, 95
6, 4800, Note_on_c, 6, 38, 95
6, 5280, Note_off_c, 6, 38, 95
6, 5280, Note_on_c, 6, 39, 95
6, 5760, Note_off_c, 6, 39, 95
6, 5760, Note_on_c, 6, 40, 95
6, 6720, Note_off_c, 6, 40, 95
6, 7200, Note_on_c, 6, 40, 95
6, 7440, Note_off_c, 6, 40, 95
6, 7440, Note_on_c, 6, 38, 70
6, 7680, Note_off_c, 6, 38, 70
6, 7680, Note_on_c, 6, 35, 95
6, 8160, Note_off_c, 6, 35, 95
6, 8160, Note_on_c, 7, 43, 95
6, 8320, Pitch_bend_c, 7, 8192
6, 8480, Pitch_bend_c, 7, 8320
6, 8640, Pitch_bend_c, 7, 8192
6, 8640, Pitch_bend_c, 7, 8320
6, 8640, Pitch_bend_c, 7, 8192
6, 8640, Note_off_c, 7, 43, 95
6, 9120, Note_on_c, 6, 33, 95
6, 9600, Note_off_c, 6, 33, 95
6, 9600, Note_on_c, 6, 34, 95
6, 10080, Note_off_c, 6, 34, 95
6, 10080, Note_on_c, 6, 35, 95
6, 10560, Note_off_c, 6, 35, 95
6, 10560, Note_on_c, 6, 38, 95
6, 11040, Note_off_c, 6, 38, 95
6, 11040, Note_on_c, 6, 39, 95
6, 11520, Note_off_c, 6, 39, 95
6, 11520, Note_on_c, 6, 40, 95
6, 12480, Note_off_c, 6, 40, 95
6, 12960, Note_on_c, 6, 40, 95
6, 13200, Note_off_c, 6, 40, 95
6, 13200, Note_on_c, 6, 38, 70
6, 13440, Note_off_c, 6, 38, 70
6, 13440, Note_on_c, 6, 35, 95
6, 13920, Note_off_c, 6, 35, 95
6, 13920, Note_on_c, 7, 43, 95
6, 14080, Pitch_bend_c, 7, 8192
6, 14240, Pitch_bend_c, 7, 8320
6, 14400, Pitch_bend_c, 7, 8192
6, 14400, Pitch_bend_c, 7, 8320
6, 14400, Pitch_bend_c, 7, 8192
6, 14400, Note_off_c, 7, 43, 95
6, 14880, Note_on_c, 6, 33, 95
6, 15360, Note_off_c, 6, 33, 95
6, 15360, Note_on_c, 6, 34, 95
6, 15840, Note_off_c, 6, 34, 95
6, 15840, Note_on_c, 6, 35, 95
6, 16320, Note_off_c, 6, 35, 95
6, 16320, Note_on_c, 6, 38, 95
6, 16800, Note_off_c, 6, 38, 95
6, 16800, Note_on_c, 6, 39, 95
6, 17280, Note_off_c, 6, 39, 95
6, 17280, Note_on_c, 6, 40, 95
6, 18240, Note_off_c, 6, 40, 95
6, 18720, Note_on_c, 6, 40, 95
6, 18960, Note_off_c, 6, 40, 95
6, 18960, Note_on_c, 6, 38, 70
6, 19200, Note_off_c, 6, 38, 70
6, 19200, Note_on_c, 6, 35, 95
6, 19680, Note_off_c, 6, 35, 95
6, 19680, Note_on_c, 7, 43, 95
6, 19840, Pitch_bend_c, 7, 8192
6, 20000, Pitch_bend_c, 7, 8320
6, 20160, Pitch_bend_c, 7, 8192
6, 20160, Pitch_bend_c, 7, 8320
6, 20160, Pitch_bend_c, 7, 8192
6, 20160, Note_off_c, 7, 43, 95
6, 20640, Note_on_c, 6, 33, 95
6, 21120, Note_off_c, 6, 33, 95
6, 21120, Note_on_c, 6, 34, 95
6, 21600, Note_off_c, 6, 34, 95
6, 21600, Note_on_c, 6, 35, 95
6, 22080, Note_off_c, 6, 35, 95
6, 22080, Note_on_c, 6, 38, 95
6, 22560, Note_off_c, 6, 38, 95
6, 22560, Note_on_c, 6, 39, 95
6, 23040, Note_off_c, 6, 39, 95
6, 23040, Note_on_c, 6, 40, 95
6, 24000, Note_off_c, 6, 40, 95
6, 24480, Note_on_c, 6, 40, 95
6, 24720, Note_off_c, 6, 40, 95
6, 24720, Note_on_c, 6, 38, 70
6, 24960, Note_off_c, 6, 38, 70
6, 24960, Note_on_c, 6, 35, 95
6, 25440, Note_off_c, 6, 35, 95
6, 25440, Note_on_c, 7, 43, 95
6, 25600, Pitch_bend_c, 7, 8192
6, 25760, Pitch_bend_c, 7, 8320
6, 25920, Pitch_bend_c, 7, 8192
6, 25920, Pitch_bend_c, 7, 8320
6, 25920, Pitch_bend_c, 7, 8192
6, 25920, Note_off_c, 7, 43, 95
6, 26400, Note_on_c, 6, 33, 95
6, 26880, Note_off_c, 6, 33, 95
6, 26880, Note_on_c, 6, 34, 95
6, 27360, Note_off_c, 6, 34, 95
6, 27360, Note_on_c, 6, 35, 95
6, 27840, Note_off_c, 6, 35, 95
6, 27840, Note_on_c, 6, 38, 95
6, 28320, Note_off_c, 6, 38, 95
6, 28320, Note_on_c, 6, 39, 95
6, 28800, Note_off_c, 6, 39, 95
6, 28800, Note_on_c, 6, 40, 95
6, 29760, Note_off_c, 6, 40, 95
6, 30240, Note_on_c, 6, 40, 95
6, 30480, Note_off_c, 6, 40, 95
6, 30480, Note_on_c, 6, 38, 70
6, 30720, Note_off_c, 6, 38, 70
6, 30720, Note_on_c, 6, 35, 95
6, 31200, Note_off_c, 6, 35, 95
6, 31200, Note_on_c, 7, 43, 95
6, 31360, Pitch_bend_c, 7, 8192
6, 31520, Pitch_bend_c, 7, 8320
6, 31680, Pitch_bend_c, 7, 8192
6, 31680, Pitch_bend_c, 7, 8320
6, 31680, Pitch_bend_c, 7, 8192
6, 31680, Note_off_c, 7, 43, 95
6, 32160, Note_on_c, 6, 33, 95
6, 32640, Note_off_c, 6, 33, 95
6, 32640, Note_on_c, 6, 34, 95
6, 33120, Note_off_c, 6, 34, 95
6, 33120, Note_on_c, 6, 35, 95
6, 33600, Note_off_c, 6, 35, 95
6, 33600, Note_on_c, 6, 38, 95
6, 34080, Note_off_c, 6, 38, 95
6, 34080, Note_on_c, 6, 39, 95
6, 34560, Note_off_c, 6, 39, 95
6, 34560, Note_on_c, 6, 40, 95
6, 35520, Note_off_c, 6, 40, 95
6, 36000, Note_on_c, 6, 40, 95
6, 36240, Note_off_c, 6, 40, 95
6, 36240, Note_on_c, 6, 38, 70
6, 36480, Note_off_c, 6, 38, 70
6, 36480, Note_on_c, 6, 35, 95
6, 36960, Note_off_c, 6, 35, 95
6, 36960, Note_on_c, 7, 43, 95
6, 37120, Pitch_bend_c, 7, 8192
6, 37280, Pitch_bend_c, 7, 8320
6, 37440, Pitch_bend_c, 7, 8192
6, 37440, Pitch_bend_c, 7, 8320
6, 37440, Pitch_bend_c, 7, 8192
6, 37440, Note_off_c, 7, 43, 95
6, 37920, Note_on_c, 6, 33, 95
6, 38400, Note_off_c, 6, 33, 95
6, 38400, Note_on_c, 6, 34, 95
6, 38880, Note_off_c, 6, 34, 95
6, 38880, Note_on_c, 6, 35, 95
6, 39360, Note_off_c, 6, 35, 95
6, 39360, Note_on_c, 6, 38, 95
6, 39840, Note_off_c, 6, 38, 95
6, 39840, Note_on_c, 6, 39, 95
6, 40320, Note_off_c, 6, 39, 95
6, 40320, Note_on_c, 7, 40, 95
6, 41280, Note_off_c, 7, 40, 95
6, 41760, Note_on_c, 6, 40, 95
6, 42000, Note_off_c, 6, 40, 95
6, 42000, Note_on_c, 6, 38, 70
6, 42240, Note_off_c, 6, 38, 70
6, 42240, Note_on_c, 6, 35, 95
6, 42720, Note_off_c, 6, 35, 95
6, 42720, Note_on_c, 7, 43, 95
6, 42880, Pitch_bend_c, 7, 8192
6, 43040, Pitch_bend_c, 7, 8320
6, 43200, Pitch_bend_c, 7, 8192
6, 43200, Pitch_bend_c, 7, 8320
6, 43200, Pitch_bend_c, 7, 8192
6, 43200, Note_off_c, 7, 43, 95
6, 43680, Note_on_c, 6, 36, 95
6, 44160, Note_off_c, 6, 36, 95
6, 44160, Note_on_c, 6, 35, 95
6, 44640, Note_off_c, 6, 35, 95
6, 44640, Note_on_c, 6, 33, 95
6, 45120, Note_off_c, 6, 33, 95
6, 45120, Note_on_c, 6, 35, 95
6, 45600, Note_off_c, 6, 35, 95
6, 45600, Note_on_c, 6, 31, 95
6, 46080, Note_off_c, 6, 31, 95
6, 46080, Note_on_c, 7, 40, 95
6, 47040, Note_off_c, 7, 40, 95
6, 47520, Note_on_c, 6, 40, 95
6, 47760, Note_off_c, 6, 40, 95
6, 47760, Note_on_c, 6, 38, 70
6, 48000, Note_off_c, 6, 38, 70
6, 48000, Note_on_c, 6, 35, 95
6, 48480, Note_off_c, 6, 35, 95
6, 48480, Note_on_c, 7, 43, 95
6, 48640, Pitch_bend_c, 7, 8192
6, 48800, Pitch_bend_c, 7, 8320
6, 48960, Pitch_bend_c, 7, 8192
6, 48960, Pitch_bend_c, 7, 8320
6, 48960, Pitch_bend_c, 7, 8192
6, 48960, Note_off_c, 7, 43, 95
6, 49440, Note_on_c, 6, 36, 95
6, 49920, Note_off_c, 6, 36, 95
6, 49920, Note_on_c, 6, 35, 95
6, 50400, Note_off_c, 6, 35, 95
6, 50400, Note_on_c, 6, 33, 95
6, 50880, Note_off_c, 6, 33, 95
6, 50880, Note_on_c, 6, 35, 95
6, 51360, Note_off_c, 6, 35, 95
6, 51360, Note_on_c, 6, 31, 95
6, 51840, Note_off_c, 6, 31, 95
6, 51840, Note_on_c, 7, 40, 95
6, 52800, Note_off_c, 7, 40, 95
6, 53280, Note_on_c, 6, 40, 95
6, 53520, Note_off_c, 6, 40, 95
6, 53520, Note_on_c, 6, 38, 70
6, 53760, Note_off_c, 6, 38, 70
6, 53760, Note_on_c, 6, 35, 95
6, 54240, Note_off_c, 6, 35, 95
6, 54240, Note_on_c, 7, 43, 95
6, 54400, Pitch_bend_c, 7, 8192
6, 54560, Pitch_bend_c, 7, 8320
6, 54720, Pitch_bend_c, 7, 8192
6, 54720, Pitch_bend_c, 7, 8320
6, 54720, Pitch_bend_c, 7, 8192
6, 54720, Note_off_c, 7, 43, 95
6, 55200, Note_on_c, 6, 36, 95
6, 55680, Note_off_c, 6, 36, 95
6, 55680, Note_on_c, 6, 35, 95
6, 56160, Note_off_c, 6, 35, 95
6, 56160, Note_on_c, 6, 33, 95
6, 56640, Note_off_c, 6, 33, 95
6, 56640, Note_on_c, 6, 35, 95
6, 57120, Note_off_c, 6, 35, 95
6, 57120, Note_on_c, 6, 31, 95
6, 57600, Note_off_c, 6, 31, 95
6, 57600, Note_on_c, 7, 40, 95
6, 58560, Note_off_c, 7, 40, 95
6, 59040, Note_on_c, 6, 40, 95
6, 59280, Note_off_c, 6, 40, 95
6, 59280, Note_on_c, 6, 38, 70
6, 59520, Note_off_c, 6, 38, 70
6, 59520, Note_on_c, 6, 35, 95
6, 60000, Note_off_c, 6, 35, 95
6, 60000, Note_on_c, 7, 43, 95
6, 60160, Pitch_bend_c, 7, 8192
6, 60320, Pitch_bend_c, 7, 8320
6, 60480, Pitch_bend_c, 7, 8192
6, 60480, Pitch_bend_c, 7, 8320
6, 60480, Pitch_bend_c, 7, 8192
6, 60480, Note_off_c, 7, 43, 95
6, 60960, Note_on_c, 6, 36, 95
6, 61440, Note_off_c, 6, 36, 95
6, 61440, Note_on_c, 6, 35, 95
6, 61920, Note_off_c, 6, 35, 95
6, 61920, Note_on_c, 6, 33, 95
6, 62400, Note_off_c, 6, 33, 95
6, 62400, Note_on_c, 6, 35, 95
6, 62880, Note_off_c, 6, 35, 95
6, 62880, Note_on_c, 6, 31, 95
6, 63360, Note_off_c, 6, 31, 95
6, 63360, Note_on_c, 6, 33, 95
6, 64800, Note_off_c, 6, 33, 95
6, 64800, Note_on_c, 6, 40, 95
6, 65280, Note_off_c, 6, 40, 95
6, 65280, Note_on_c, 6, 40, 95
6, 65520, Note_off_c, 6, 40, 95
6, 65520, Note_on_c, 6, 38, 95
6, 65760, Note_off_c, 6, 38, 95
6, 65760, Note_on_c, 6, 36, 95
6, 66000, Note_off_c, 6, 36, 95
6, 66000, Note_on_c, 6, 33, 95
6, 66240, Note_off_c, 6, 33, 95
6, 66240, Note_on_c, 6, 40, 95
6, 67680, Note_off_c, 6, 40, 95
6, 67680, Note_on_c, 6, 47, 95
6, 68160, Note_off_c, 6, 47, 95
6, 68160, Note_on_c, 6, 40, 95
6, 68640, Note_off_c, 6, 40, 95
6, 68640, Note_on_c, 6, 38, 95
6, 69120, Note_off_c, 6, 38, 95
6, 69120, Note_on_c, 6, 36, 95
6, 70560, Note_off_c, 6, 36, 95
6, 70560, Note_on_c, 6, 52, 95
6, 71040, Note_off_c, 6, 52, 95
6, 71040, Note_on_c, 6, 36, 95
6, 71520, Note_off_c, 6, 36, 95
6, 71520, Note_on_c, 6, 38, 95
6, 72000, Note_off_c, 6, 38, 95
6, 72000, Note_on_c, 6, 40, 95
6, 73440, Note_off_c, 6, 40, 95
6, 73440, Note_on_c, 6, 47, 95
6, 73920, Note_off_c, 6, 47, 95
6, 73920, Note_on_c, 6, 40, 95
6, 74400, Note_off_c, 6, 40, 95
6, 74400, Note_on_c, 6, 45, 95
6, 74880, Note_off_c, 6, 45, 95
6, 74880, Note_on_c, 6, 43, 95
6, 76320, Note_off_c, 6, 43, 95
6, 76320, Note_on_c, 7, 50, 95
6, 77280, Note_off_c, 7, 50, 95
6, 77280, Note_on_c, 6, 43, 95
6, 77760, Note_off_c, 6, 43, 95
6, 77760, Note_on_c, 6, 45, 95
6, 79200, Note_off_c, 6, 45, 95
6, 79200, Note_on_c, 7, 52, 95
6, 80160, Note_off_c, 7, 52, 95
6, 80160, Note_on_c, 6, 38, 95
6, 80640, Note_off_c, 6, 38, 95
6, 80640, Note_on_c, 6, 36, 95
6, 82080, Note_off_c, 6, 36, 95
6, 82080, Note_on_c, 6, 43, 95
6, 82560, Note_off_c, 6, 43, 95
6, 82560, Note_on_c, 6, 36, 95
6, 83040, Note_off_c, 6, 36, 95
6, 83040, Note_on_c, 6, 38, 95
6, 83520, Note_off_c, 6, 38, 95
6, 83520, Note_on_c, 6, 40, 95
6, 84480, Note_off_c, 6, 40, 95
6, 84960, Note_on_c, 6, 40, 95
6, 85200, Note_off_c, 6, 40, 95
6, 85200, Note_on_c, 6, 38, 70
6, 85440, Note_off_c, 6, 38, 70
6, 85440, Note_on_c, 6, 35, 95
6, 85920, Note_off_c, 6, 35, 95
6, 85920, Note_on_c, 7, 43, 95
6, 86080, Pitch_bend_c, 7, 8192
6, 86240, Pitch_bend_c, 7, 8320
6, 86400, Pitch_bend_c, 7, 8192
6, 86400, Pitch_bend_c, 7, 8320
6, 86400, Pitch_bend_c, 7, 8192
6, 86400, Note_off_c, 7, 43, 95
6, 86880, Note_on_c, 6, 33, 95
6, 87360, Note_off_c, 6, 33, 95
6, 87360, Note_on_c, 6, 34, 95
6, 87840, Note_off_c, 6, 34, 95
6, 87840, Note_on_c, 6, 35, 95
6, 88320, Note_off_c, 6, 35, 95
6, 88320, Note_on_c, 6, 38, 95
6, 88800, Note_off_c, 6, 38, 95
6, 88800, Note_on_c, 6, 39, 95
6, 89280, Note_off_c, 6, 39, 95
6, 89280, Note_on_c, 6, 40, 95
6, 90240, Note_off_c, 6, 40, 95
6, 90720, Note_on_c, 6, 40, 95
6, 90960, Note_off_c, 6, 40, 95
6, 90960, Note_on_c, 6, 38, 70
6, 91200, Note_off_c, 6, 38, 70
6, 91200, Note_on_c, 6, 35, 95
6, 91680, Note_off_c, 6, 35, 95
6, 91680, Note_on_c, 7, 43, 95
6, 91840, Pitch_bend_c, 7, 8192
6, 92000, Pitch_bend_c, 7, 8320
6, 92160, Pitch_bend_c, 7, 8192
6, 92160, Pitch_bend_c, 7, 8320
6, 92160, Pitch_bend_c, 7, 8192
6, 92160, Note_off_c, 7, 43, 95
6, 92640, Note_on_c, 6, 33, 95
6, 93120, Note_off_c, 6, 33, 95
6, 93120, Note_on_c, 6, 34, 95
6, 93600, Note_off_c, 6, 34, 95
6, 93600, Note_on_c, 6, 35, 95
6, 94080, Note_off_c, 6, 35, 95
6, 94080, Note_on_c, 6, 38, 95
6, 94560, Note_off_c, 6, 38, 95
6, 94560, Note_on_c, 6, 39, 95
6, 95040, Note_off_c, 6, 39, 95
6, 95040, Note_on_c, 7, 40, 95
6, 96000, Note_off_c, 7, 40, 95
6, 96480, Note_on_c, 6, 40, 95
6, 96720, Note_off_c, 6, 40, 95
6, 96720, Note_on_c, 6, 38, 70
6, 96960, Note_off_c, 6, 38, 70
6, 96960, Note_on_c, 6, 35, 95
6, 97440, Note_off_c, 6, 35, 95
6, 97440, Note_on_c, 7, 43, 95
6, 97600, Pitch_bend_c, 7, 8192
6, 97760, Pitch_bend_c, 7, 8320
6, 97920, Pitch_bend_c, 7, 8192
6, 97920, Pitch_bend_c, 7, 8320
6, 97920, Pitch_bend_c, 7, 8192
6, 97920, Note_off_c, 7, 43, 95
6, 98400, Note_on_c, 6, 36, 95
6, 98880, Note_off_c, 6, 36, 95
6, 98880, Note_on_c, 6, 35, 95
6, 99360, Note_off_c, 6, 35, 95
6, 99360, Note_on_c, 6, 33, 95
6, 99840, Note_off_c, 6, 33, 95
6, 99840, Note_on_c, 6, 35, 95
6, 100320, Note_off_c, 6, 35, 95
6, 100320, Note_on_c, 6, 31, 95
6, 100800, Note_off_c, 6, 31, 95
6, 100800, Note_on_c, 7, 40, 95
6, 101760, Note_off_c, 7, 40, 95
6, 102240, Note_on_c, 6, 40, 95
6, 102480, Note_off_c, 6, 40, 95
6, 102480, Note_on_c, 6, 38, 70
6, 102720, Note_off_c, 6, 38, 70
6, 102720, Note_on_c, 6, 35, 95
6, 103200, Note_off_c, 6, 35, 95
6, 103200, Note_on_c, 7, 43, 95
6, 103360, Pitch_bend_c, 7, 8192
6, 103520, Pitch_bend_c, 7, 8320
6, 103680, Pitch_bend_c, 7, 8192
6, 103680, Pitch_bend_c, 7, 8320
6, 103680, Pitch_bend_c, 7, 8192
6, 103680, Note_off_c, 7, 43, 95
6, 104160, Note_on_c, 6, 36, 95
6, 104640, Note_off_c, 6, 36, 95
6, 104640, Note_on_c, 6, 35, 95
6, 105120, Note_off_c, 6, 35, 95
6, 105120, Note_on_c, 6, 33, 95
6, 105600, Note_off_c, 6, 33, 95
6, 105600, Note_on_c, 6, 35, 95
6, 106080, Note_off_c, 6, 35, 95
6, 106080, Note_on_c, 6, 31, 95
6, 106560, Note_off_c, 6, 31, 95
6, 106560, Note_on_c, 7, 40, 95
6, 107520, Note_off_c, 7, 40, 95
6, 108000, Note_on_c, 6, 40, 95
6, 108240, Note_off_c, 6, 40, 95
6, 108240, Note_on_c, 6, 38, 70
6, 108480, Note_off_c, 6, 38, 70
6, 108480, Note_on_c, 6, 35, 95
6, 108960, Note_off_c, 6, 35, 95
6, 108960, Note_on_c, 7, 43, 95
6, 109120, Pitch_bend_c, 7, 8192
6, 109280, Pitch_bend_c, 7, 8320
6, 109440, Pitch_bend_c, 7, 8192
6, 109440, Pitch_bend_c, 7, 8320
6, 109440, Pitch_bend_c, 7, 8192
6, 109440, Note_off_c, 7, 43, 95
6, 109920, Note_on_c, 6, 36, 95
6, 110400, Note_off_c, 6, 36, 95
6, 110400, Note_on_c, 6, 35, 95
6, 110880, Note_off_c, 6, 35, 95
6, 110880, Note_on_c, 6, 33, 95
6, 111360, Note_off_c, 6, 33, 95
6, 111360, Note_on_c, 6, 35, 95
6, 111840, Note_off_c, 6, 35, 95
6, 111840, Note_on_c, 6, 31, 95
6, 112320, Note_off_c, 6, 31, 95
6, 112320, Note_on_c, 7, 40, 95
6, 113280, Note_off_c, 7, 40, 95
6, 113760, Note_on_c, 6, 40, 95
6, 114000, Note_off_c, 6, 40, 95
6, 114000, Note_on_c, 6, 38, 70
6, 114240, Note_off_c, 6, 38, 70
6, 114240, Note_on_c, 6, 35, 95
6, 114720, Note_off_c, 6, 35, 95
6, 114720, Note_on_c, 7, 43, 95
6, 114880, Pitch_bend_c, 7, 8192
6, 115040, Pitch_bend_c, 7, 8320
6, 115200, Pitch_bend_c, 7, 8192
6, 115200, Pitch_bend_c, 7, 8320
6, 115200, Pitch_bend_c, 7, 8192
6, 115200, Note_off_c, 7, 43, 95
6, 115680, Note_on_c, 6, 36, 95
6, 116160, Note_off_c, 6, 36, 95
6, 116160, Note_on_c, 6, 35, 95
6, 116640, Note_off_c, 6, 35, 95
6, 116640, Note_on_c, 6, 33, 95
6, 117120, Note_off_c, 6, 33, 95
6, 117120, Note_on_c, 6, 35, 95
6, 117600, Note_off_c, 6, 35, 95
6, 117600, Note_on_c, 6, 31, 95
6, 118080, Note_off_c, 6, 31, 95
6, 118080, Note_on_c, 6, 33, 95
6, 119520, Note_off_c, 6, 33, 95
6, 119520, Note_on_c, 6, 40, 95
6, 120000, Note_off_c, 6, 40, 95
6, 120000, Note_on_c, 6, 40, 95
6, 120240, Note_off_c, 6, 40, 95
6, 120240, Note_on_c, 6, 38, 95
6, 120480, Note_off_c, 6, 38, 95
6, 120480, Note_on_c, 6, 36, 95
6, 120720, Note_off_c, 6, 36, 95
6, 120720, Note_on_c, 6, 33, 95
6, 120960, Note_off_c, 6, 33, 95
6, 120960, Note_on_c, 6, 40, 95
6, 122400, Note_off_c, 6, 40, 95
6, 122400, Note_on_c, 6, 47, 95
6, 122880, Note_off_c, 6, 47, 95
6, 122880, Note_on_c, 6, 40, 95
6, 123360, Note_off_c, 6, 40, 95
6, 123360, Note_on_c, 6, 38, 95
6, 123840, Note_off_c, 6, 38, 95
6, 123840, Note_on_c, 6, 36, 95
6, 125280, Note_off_c, 6, 36, 95
6, 125280, Note_on_c, 6, 52, 95
6, 125760, Note_off_c, 6, 52, 95
6, 125760, Note_on_c, 6, 36, 95
6, 126240, Note_off_c, 6, 36, 95
6, 126240, Note_on_c, 6, 38, 95
6, 126720, Note_off_c, 6, 38, 95
6, 126720, Note_on_c, 6, 40, 95
6, 128160, Note_off_c, 6, 40, 95
6, 128160, Note_on_c, 6, 47, 95
6, 128640, Note_off_c, 6, 47, 95
6, 128640, Note_on_c, 6, 40, 95
6, 129120, Note_off_c, 6, 40, 95
6, 129120, Note_on_c, 6, 45, 95
6, 129600, Note_off_c, 6, 45, 95
6, 129600, Note_on_c, 6, 43, 95
6, 131040, Note_off_c, 6, 43, 95
6, 131040, Note_on_c, 7, 50, 95
6, 132000, Note_off_c, 7, 50, 95
6, 132000, Note_on_c, 6, 43, 95
6, 132480, Note_off_c, 6, 43, 95
6, 132480, Note_on_c, 6, 45, 95
6, 133920, Note_off_c, 6, 45, 95
6, 133920, Note_on_c, 7, 52, 95
6, 134880, Note_off_c, 7, 52, 95
6, 134880, Note_on_c, 6, 38, 95
6, 135360, Note_off_c, 6, 38, 95
6, 135360, Note_on_c, 6, 36, 95
6, 136800, Note_off_c, 6, 36, 95
6, 136800, Note_on_c, 6, 43, 95
6, 137280, Note_off_c, 6, 43, 95
6, 137280, Note_on_c, 6, 36, 95
6, 137760, Note_off_c, 6, 36, 95
6, 137760, Note_on_c, 6, 38, 95
6, 138240, Note_off_c, 6, 38, 95
6, 138240, Note_on_c, 6, 40, 95
6, 139200, Note_off_c, 6, 40, 95
6, 139680, Note_on_c, 6, 40, 95
6, 139920, Note_off_c, 6, 40, 95
6, 139920, Note_on_c, 6, 38, 70
6, 140160, Note_off_c, 6, 38, 70
6, 140160, Note_on_c, 6, 35, 95
6, 140640, Note_off_c, 6, 35, 95
6, 140640, Note_on_c, 7, 43, 95
6, 140800, Pitch_bend_c, 7, 8192
6, 140960, Pitch_bend_c, 7, 8320
6, 141120, Pitch_bend_c, 7, 8192
6, 141120, Pitch_bend_c, 7, 8320
6, 141120, Pitch_bend_c, 7, 8192
6, 141120, Note_off_c, 7, 43, 95
6, 141600, Note_on_c, 6, 33, 95
6, 142080, Note_off_c, 6, 33, 95
6, 142080, Note_on_c, 6, 34, 95
6, 142560, Note_off_c, 6, 34, 95
6, 142560, Note_on_c, 6, 35, 95
6, 143040, Note_off_c, 6, 35, 95
6, 143040, Note_on_c, 6, 38, 95
6, 143520, Note_off_c, 6, 38, 95
6, 143520, Note_on_c, 6, 39, 95
6, 144000, Note_off_c, 6, 39, 95
6, 144000, Note_on_c, 6, 40, 95
6, 144960, Note_off_c, 6, 40, 95
6, 145440, Note_on_c, 6, 40, 95
6, 145680, Note_off_c, 6, 40, 95
6, 145680, Note_on_c, 6, 38, 70
6, 145920, Note_off_c, 6, 38, 70
6, 145920, Note_on_c, 6, 35, 95
6, 146400, Note_off_c, 6, 35, 95
6, 146400, Note_on_c, 7, 43, 95
6, 146560, Pitch_bend_c, 7, 8192
6, 146720, Pitch_bend_c, 7, 8320
6, 146880, Pitch_bend_c, 7, 8192
6, 146880, Pitch_bend_c, 7, 8320
6, 146880, Pitch_bend_c, 7, 8192
6, 146880, Note_off_c, 7, 43, 95
6, 147360, Note_on_c, 6, 33, 95
6, 147840, Note_off_c, 6, 33, 95
6, 147840, Note_on_c, 6, 34, 95
6, 148320, Note_off_c, 6, 34, 95
6, 148320, Note_on_c, 6, 35, 95
6, 148800, Note_off_c, 6, 35, 95
6, 148800, Note_on_c, 6, 38, 95
6, 149280, Note_off_c, 6, 38, 95
6, 149280, Note_on_c, 6, 39, 95
6, 149760, Note_off_c, 6, 39, 95
6, 149760, Note_on_c, 6, 40, 95
6, 150720, Note_off_c, 6, 40, 95
6, 151200, Note_on_c, 6, 40, 95
6, 151440, Note_off_c, 6, 40, 95
6, 151440, Note_on_c, 6, 38, 70
6, 151680, Note_off_c, 6, 38, 70
6, 151680, Note_on_c, 6, 35, 95
6, 152160, Note_off_c, 6, 35, 95
6, 152160, Note_on_c, 7, 43, 95
6, 152320, Pitch_bend_c, 7, 8192
6, 152480, Pitch_bend_c, 7, 8320
6, 152640, Pitch_bend_c, 7, 8192
6, 152640, Pitch_bend_c, 7, 8320
6, 152640, Pitch_bend_c, 7, 8192
6, 152640, Note_off_c, 7, 43, 95
6, 153120, Note_on_c, 6, 33, 95
6, 153600, Note_off_c, 6, 33, 95
6, 153600, Note_on_c, 6, 34, 95
6, 154080, Note_off_c, 6, 34, 95
6, 154080, Note_on_c, 6, 35, 95
6, 154560, Note_off_c, 6, 35, 95
6, 154560, Note_on_c, 6, 38, 95
6, 155040, Note_off_c, 6, 38, 95
6, 155040, Note_on_c, 6, 39, 95
6, 155520, Note_off_c, 6, 39, 95
6, 155520, Note_on_c, 6, 40, 95
6, 156480, Note_off_c, 6, 40, 95
6, 156960, Note_on_c, 6, 40, 95
6, 157200, Note_off_c, 6, 40, 95
6, 157200, Note_on_c, 6, 38, 70
6, 157440, Note_off_c, 6, 38, 70
6, 157440, Note_on_c, 6, 35, 95
6, 157920, Note_off_c, 6, 35, 95
6, 157920, Note_on_c, 7, 43, 95
6, 158080, Pitch_bend_c, 7, 8192
6, 158240, Pitch_bend_c, 7, 8320
6, 158400, Pitch_bend_c, 7, 8192
6, 158400, Pitch_bend_c, 7, 8320
6, 158400, Pitch_bend_c, 7, 8192
6, 158400, Note_off_c, 7, 43, 95
6, 158880, Note_on_c, 6, 33, 95
6, 159360, Note_off_c, 6, 33, 95
6, 159360, Note_on_c, 6, 34, 95
6, 159840, Note_off_c, 6, 34, 95
6, 159840, Note_on_c, 6, 35, 95
6, 160320, Note_off_c, 6, 35, 95
6, 160320, Note_on_c, 6, 38, 95
6, 160800, Note_off_c, 6, 38, 95
6, 160800, Note_on_c, 6, 39, 95
6, 161280, Note_off_c, 6, 39, 95
6, 161280, Note_on_c, 6, 40, 95
6, 162720, Note_off_c, 6, 40, 95
6, 162720, Note_on_c, 6, 46, 95
6, 163200, Note_off_c, 6, 46, 95
6, 163200, Note_on_c, 6, 45, 95
6, 163680, Note_off_c, 6, 45, 95
6, 163680, Note_on_c, 6, 43, 95
6, 164160, Note_off_c, 6, 43, 95
6, 164160, Note_on_c, 6, 40, 95
6, 165600, Note_off_c, 6, 40, 95
6, 165600, Note_on_c, 6, 52, 95
6, 166080, Note_off_c, 6, 52, 95
6, 166080, Note_on_c, 6, 50, 95
6, 166560, Note_off_c, 6, 50, 95
6, 166560, Note_on_c, 6, 47, 95
6, 167040, Note_off_c, 6, 47, 95
6, 167040, Note_on_c, 6, 40, 95
6, 168000, Note_off_c, 6, 40, 95
6, 168000, Note_on_c, 6, 52, 95
6, 168480, Note_off_c, 6, 52, 95
6, 168480, Note_on_c, 6, 50, 95
6, 168960, Note_off_c, 6, 50, 95
6, 168960, Note_on_c, 6, 47, 95
6, 169440, Note_off_c, 6, 47, 95
6, 169440, Note_on_c, 6, 46, 95
6, 169920, Note_off_c, 6, 46, 95
6, 169920, Note_on_c, 6, 40, 95
6, 171360, Note_off_c, 6, 40, 95
6, 171360, Note_on_c, 6, 45, 95
6, 171840, Note_off_c, 6, 45, 95
6, 171840, Note_on_c, 6, 46, 95
6, 172320, Note_off_c, 6, 46, 95
6, 172320, Note_on_c, 6, 47, 95
6, 172800, Note_off_c, 6, 47, 95
6, 172800, Note_on_c, 6, 40, 95
6, 174240, Note_off_c, 6, 40, 95
6, 174240, Note_on_c, 6, 45, 95
6, 174480, Note_off_c, 6, 45, 95
6, 174480, Note_on_c, 6, 46, 95
6, 174720, Note_off_c, 6, 46, 95
6, 174720, Note_on_c, 6, 50, 95
6, 174960, Note_off_c, 6, 50, 95
6, 174960, Note_on_c, 6, 47, 95
6, 175200, Note_off_c, 6, 47, 95
6, 175200, Note_on_c, 6, 50, 95
6, 175440, Note_off_c, 6, 50, 95
6, 175440, Note_on_c, 6, 52, 95
6, 175680, Note_off_c, 6, 52, 95
6, 175680, Note_on_c, 6, 40, 95
6, 177120, Note_off_c, 6, 40, 95
6, 177120, Note_on_c, 6, 45, 95
6, 177600, Note_off_c, 6, 45, 95
6, 177600, Note_on_c, 6, 46, 95
6, 178080, Note_off_c, 6, 46, 95
6, 178080, Note_on_c, 6, 47, 95
6, 178560, Note_off_c, 6, 47, 95
6, 178560, Note_on_c, 6, 40, 95
6, 180000, Note_off_c, 6, 40, 95
6, 180000, Note_on_c, 6, 52, 95
6, 180480, Note_off_c, 6, 52, 95
6, 180480, Note_on_c, 6, 50, 95
6, 180960, Note_off_c, 6, 50, 95
6, 180960, Note_on_c, 6, 47, 95
6, 181440, Note_off_c, 6, 47, 95
6, 181440, Note_on_c, 6, 40, 95
6, 182880, Note_off_c, 6, 40, 95
6, 182880, Note_on_c, 6, 45, 95
6, 183040, Note_off_c, 6, 45, 95
6, 183040, Note_on_c, 6, 46, 95
6, 183200, Note_off_c, 6, 46, 95
6, 183200, Note_on_c, 6, 47, 95
6, 183360, Note_off_c, 6, 47, 95
6, 183360, Note_on_c, 6, 50, 95
6, 183520, Note_off_c, 6, 50, 95
6, 183520, Note_on_c, 6, 47, 95
6, 183680, Note_off_c, 6, 47, 95
6, 183680, Note_on_c, 6, 50, 95
6, 183840, Note_off_c, 6, 50, 95
6, 183840, Note_on_c, 6, 52, 95
6, 184320, Note_off_c, 6, 52, 95
6, 184320, Note_on_c, 6, 40, 95
6, 185280, Note_off_c, 6, 40, 95
6, 185760, Note_on_c, 6, 40, 95
6, 186000, Note_off_c, 6, 40, 95
6, 186000, Note_on_c, 6, 38, 70
6, 186240, Note_off_c, 6, 38, 70
6, 186240, Note_on_c, 6, 35, 95
6, 186720, Note_off_c, 6, 35, 95
6, 186720, Note_on_c, 7, 43, 95
6, 186880, Pitch_bend_c, 7, 8192
6, 187040, Pitch_bend_c, 7, 8320
6, 187200, Pitch_bend_c, 7, 8192
6, 187200, Pitch_bend_c, 7, 8320
6, 187200, Pitch_bend_c, 7, 8192
6, 187200, Note_off_c, 7, 43, 95
6, 187680, Note_on_c, 6, 33, 95
6, 188160, Note_off_c, 6, 33, 95
6, 188160, Note_on_c, 6, 34, 95
6, 188640, Note_off_c, 6, 34, 95
6, 188640, Note_on_c, 6, 35, 95
6, 189120, Note_off_c, 6, 35, 95
6, 189120, Note_on_c, 6, 38, 95
6, 189600, Note_off_c, 6, 38, 95
6, 189600, Note_on_c, 6, 39, 95
6, 190080, Note_off_c, 6, 39, 95
6, 190080, Note_on_c, 6, 40, 95
6, 191040, Note_off_c, 6, 40, 95
6, 191520, Note_on_c, 6, 40, 95
6, 191760, Note_off_c, 6, 40, 95
6, 191760, Note_on_c, 6, 38, 70
6, 192000, Note_off_c, 6, 38, 70
6, 192000, Note_on_c, 6, 35, 95
6, 192480, Note_off_c, 6, 35, 95
6, 192480, Note_on_c, 7, 43, 95
6, 192640, Pitch_bend_c, 7, 8192
6, 192800, Pitch_bend_c, 7, 8320
6, 192960, Pitch_bend_c, 7, 8192
6, 192960, Pitch_bend_c, 7, 8320
6, 192960, Pitch_bend_c, 7, 8192
6, 192960, Note_off_c, 7, 43, 95
6, 193440, Note_on_c, 6, 33, 95
6, 193920, Note_off_c, 6, 33, 95
6, 193920, Note_on_c, 6, 34, 95
6, 194400, Note_off_c, 6, 34, 95
6, 194400, Note_on_c, 6, 35, 95
6, 194880, Note_off_c, 6, 35, 95
6, 194880, Note_on_c, 6, 38, 95
6, 195360, Note_off_c, 6, 38, 95
6, 195360, Note_on_c, 6, 39, 95
6, 195840, Note_off_c, 6, 39, 95
6, 195840, Note_on_c, 6, 40, 95
6, 196800, Note_off_c, 6, 40, 95
6, 197280, Note_on_c, 6, 40, 95
6, 197520, Note_off_c, 6, 40, 95
6, 197520, Note_on_c, 6, 38, 70
6, 197760, Note_off_c, 6, 38, 70
6, 197760, Note_on_c, 6, 35, 95
6, 198240, Note_off_c, 6, 35, 95
6, 198240, Note_on_c, 7, 43, 95
6, 198400, Pitch_bend_c, 7, 8192
6, 198560, Pitch_bend_c, 7, 8320
6, 198720, Pitch_bend_c, 7, 8192
6, 198720, Pitch_bend_c, 7, 8320
6, 198720, Pitch_bend_c, 7, 8192
6, 198720, Note_off_c, 7, 43, 95
6, 199200, Note_on_c, 6, 33, 95
6, 199680, Note_off_c, 6, 33, 95
6, 199680, Note_on_c, 6, 34, 95
6, 200160, Note_off_c, 6, 34, 95
6, 200160, Note_on_c, 6, 35, 95
6, 200640, Note_off_c, 6, 35, 95
6, 200640, Note_on_c, 6, 38, 95
6, 201120, Note_off_c, 6, 38, 95
6, 201120, Note_on_c, 6, 39, 95
6, 201600, Note_off_c, 6, 39, 95
6, 201600, Note_on_c, 6, 40, 95
6, 202560, Note_off_c, 6, 40, 95
6, 203040, Note_on_c, 6, 40, 95
6, 203280, Note_off_c, 6, 40, 95
6, 203280, Note_on_c, 6, 38, 70
6, 203520, Note_off_c, 6, 38, 70
6, 203520, Note_on_c, 6, 35, 95
6, 204000, Note_off_c, 6, 35, 95
6, 204000, Note_on_c, 7, 43, 95
6, 204160, Pitch_bend_c, 7, 8192
6, 204320, Pitch_bend_c, 7, 8320
6, 204480, Pitch_bend_c, 7, 8192
6, 204480, Pitch_bend_c, 7, 8320
6, 204480, Pitch_bend_c, 7, 8192
6, 204480, Note_off_c, 7, 43, 95
6, 204960, Note_on_c, 6, 33, 95
6, 205440, Note_off_c, 6, 33, 95
6, 205440, Note_on_c, 6, 34, 95
6, 205920, Note_off_c, 6, 34, 95
6, 205920, Note_on_c, 6, 35, 95
6, 206400, Note_off_c, 6, 35, 95
6, 206400, Note_on_c, 6, 38, 95
6, 206880, Note_off_c, 6, 38, 95
6, 206880, Note_on_c, 6, 39, 95
6, 207360, Note_off_c, 6, 39, 95
6, 207360, Note_on_c, 6, 40, 95
6, 208320, Note_off_c, 6, 40, 95
6, 208800, Note_on_c, 6, 40, 95
6, 209040, Note_off_c, 6, 40, 95
6, 209040, Note_on_c, 6, 38, 70
6, 209280, Note_off_c, 6, 38, 70
6, 209280, Note_on_c, 6, 35, 95
6, 209760, Note_off_c, 6, 35, 95
6, 209760, Note_on_c, 7, 43, 95
6, 209920, Pitch_bend_c, 7, 8192
6, 210080, Pitch_bend_c, 7, 8320
6, 210240, Pitch_bend_c, 7, 8192
6, 210240, Pitch_bend_c, 7, 8320
6, 210240, Pitch_bend_c, 7, 8192
6, 210240, Note_off_c, 7, 43, 95
6, 210720, Note_on_c, 6, 33, 95
6, 211200, Note_off_c, 6, 33, 95
6, 211200, Note_on_c, 6, 34, 95
6, 211680, Note_off_c, 6, 34, 95
6, 211680, Note_on_c, 6, 35, 95
6, 212160, Note_off_c, 6, 35, 95
6, 212160, Note_on_c, 6, 38, 95
6, 212640, Note_off_c, 6, 38, 95
6, 212640, Note_on_c, 6, 39, 95
6, 213120, Note_off_c, 6, 39, 95
6, 213120, Note_on_c, 6, 40, 95
6, 214080, Note_off_c, 6, 40, 95
6, 214560, Note_on_c, 6, 40, 95
6, 214800, Note_off_c, 6, 40, 95
6, 214800, Note_on_c, 6, 38, 70
6, 215040, Note_off_c, 6, 38, 70
6, 215040, Note_on_c, 6, 35, 95
6, 215520, Note_off_c, 6, 35, 95
6, 215520, Note_on_c, 7, 43, 95
6, 215680, Pitch_bend_c, 7, 8192
6, 215840, Pitch_bend_c, 7, 8320
6, 216000, Pitch_bend_c, 7, 8192
6, 216000, Pitch_bend_c, 7, 8320
6, 216000, Pitch_bend_c, 7, 8192
6, 216000, Note_off_c, 7, 43, 95
6, 216480, Note_on_c, 6, 33, 95
6, 216960, Note_off_c, 6, 33, 95
6, 216960, Note_on_c, 6, 34, 95
6, 217440, Note_off_c, 6, 34, 95
6, 217440, Note_on_c, 6, 35, 95
6, 217920, Note_off_c, 6, 35, 95
6, 217920, Note_on_c, 6, 38, 95
6, 218400, Note_off_c, 6, 38, 95
6, 218400, Note_on_c, 6, 39, 95
6, 218880, Note_off_c, 6, 39, 95
6, 218880, Note_on_c, 6, 40, 95
6, 219840, Note_off_c, 6, 40, 95
6, 220320, Note_on_c, 6, 40, 95
6, 220560, Note_off_c, 6, 40, 95
6, 220560, Note_on_c, 6, 38, 70
6, 220800, Note_off_c, 6, 38, 70
6, 220800, Note_on_c, 6, 35, 95
6, 221280, Note_off_c, 6, 35, 95
6, 221280, Note_on_c, 7, 43, 95
6, 221440, Pitch_bend_c, 7, 8192
6, 221600, Pitch_bend_c, 7, 8320
6, 221760, Pitch_bend_c, 7, 8192
6, 221760, Pitch_bend_c, 7, 8320
6, 221760, Pitch_bend_c, 7, 8192
6, 221760, Note_off_c, 7, 43, 95
6, 222240, Note_on_c, 6, 33, 95
6, 222720, Note_off_c, 6, 33, 95
6, 222720, Note_on_c, 6, 34, 95
6, 223200, Note_off_c, 6, 34, 95
6, 223200, Note_on_c, 6, 35, 95
6, 223680, Note_off_c, 6, 35, 95
6, 223680, Note_on_c, 6, 38, 95
6, 224160, Note_off_c, 6, 38, 95
6, 224160, Note_on_c, 6, 39, 95
6, 224640, Note_off_c, 6, 39, 95
6, 224640, Note_on_c, 6, 40, 95
6, 225600, Note_off_c, 6, 40, 95
6, 226080, Note_on_c, 6, 40, 95
6, 226320, Note_off_c, 6, 40, 95
6, 226320, Note_on_c, 6, 38, 70
6, 226560, Note_off_c, 6, 38, 70
6, 226560, Note_on_c, 6, 35, 95
6, 227040, Note_off_c, 6, 35, 95
6, 227040, Note_on_c, 7, 43, 95
6, 227200, Pitch_bend_c, 7, 8192
6, 227360, Pitch_bend_c, 7, 8320
6, 227520, Pitch_bend_c, 7, 8192
6, 227520, Pitch_bend_c, 7, 8320
6, 227520, Pitch_bend_c, 7, 8192
6, 227520, Note_off_c, 7, 43, 95
6, 228000, Note_on_c, 6, 33, 95
6, 228480, Note_off_c, 6, 33, 95
6, 228480, Note_on_c, 6, 34, 95
6, 228960, Note_off_c, 6, 34, 95
6, 228960, Note_on_c, 6, 35, 95
6, 229440, Note_off_c, 6, 35, 95
6, 229440, Note_on_c, 6, 38, 95
6, 229920, Note_off_c, 6, 38, 95
6, 229920, Note_on_c, 6, 39, 95
6, 230400, Note_off_c, 6, 39, 95
6, 230400, Note_on_c, 6, 40, 95
6, 231360, Note_off_c, 6, 40, 95
6, 231840, Note_on_c, 6, 40, 95
6, 232080, Note_off_c, 6, 40, 95
6, 232080, Note_on_c, 6, 38, 70
6, 232320, Note_off_c, 6, 38, 70
6, 232320, Note_on_c, 6, 35, 95
6, 232800, Note_off_c, 6, 35, 95
6, 232800, Note_on_c, 7, 43, 95
6, 232960, Pitch_bend_c, 7, 8192
6, 233120, Pitch_bend_c, 7, 8320
6, 233280, Pitch_bend_c, 7, 8192
6, 233280, Pitch_bend_c, 7, 8320
6, 233280, Pitch_bend_c, 7, 8192
6, 233280, Note_off_c, 7, 43, 95
6, 233760, Note_on_c, 6, 33, 95
6, 234240, Note_off_c, 6, 33, 95
6, 234240, Note_on_c, 6, 34, 95
6, 234720, Note_off_c, 6, 34, 95
6, 234720, Note_on_c, 6, 35, 95
6, 235200, Note_off_c, 6, 35, 95
6, 235200, Note_on_c, 6, 38, 95
6, 235680, Note_off_c, 6, 38, 95
6, 235680, Note_on_c, 6, 39, 95
6, 236160, Note_off_c, 6, 39, 95
6, 236160, Note_on_c, 6, 40, 95
6, 237120, Note_off_c, 6, 40, 95
6, 237600, Note_on_c, 6, 40, 95
6, 237840, Note_off_c, 6, 40, 95
6, 237840, Note_on_c, 6, 38, 70
6, 238080, Note_off_c, 6, 38, 70
6, 238080, Note_on_c, 6, 35, 95
6, 238560, Note_off_c, 6, 35, 95
6, 238560, Note_on_c, 7, 43, 95
6, 238720, Pitch_bend_c, 7, 8192
6, 238880, Pitch_bend_c, 7, 8320
6, 239040, Pitch_bend_c, 7, 8192
6, 239040, Pitch_bend_c, 7, 8320
6, 239040, Pitch_bend_c, 7, 8192
6, 239040, Note_off_c, 7, 43, 95
6, 239520, Note_on_c, 6, 33, 95
6, 240000, Note_off_c, 6, 33, 95
6, 240000, Note_on_c, 6, 34, 95
6, 240480, Note_off_c, 6, 34, 95
6, 240480, Note_on_c, 6, 35, 95
6, 240960, Note_off_c, 6, 35, 95
6, 240960, Note_on_c, 6, 38, 95
6, 241440, Note_off_c, 6, 38, 95
6, 241440, Note_on_c, 6, 39, 95
6, 241920, Note_off_c, 6, 39, 95
6, 241920, Note_on_c, 6, 40, 95
6, 242880, Note_off_c, 6, 40, 95
6, 243360, Note_on_c, 6, 40, 95
6, 243600, Note_off_c, 6, 40, 95
6, 243600, Note_on_c, 6, 38, 70
6, 243840, Note_off_c, 6, 38, 70
6, 243840, Note_on_c, 6, 35, 95
6, 244320, Note_off_c, 6, 35, 95
6, 244320, Note_on_c, 7, 43, 95
6, 244480, Pitch_bend_c, 7, 8192
6, 244640, Pitch_bend_c, 7, 8320
6, 244800, Pitch_bend_c, 7, 8192
6, 244800, Pitch_bend_c, 7, 8320
6, 244800, Pitch_bend_c, 7, 8192
6, 244800, Note_off_c, 7, 43, 95
6, 245280, Note_on_c, 6, 33, 95
6, 245760, Note_off_c, 6, 33, 95
6, 245760, Note_on_c, 6, 34, 95
6, 246240, Note_off_c, 6, 34, 95
6, 246240, Note_on_c, 6, 35, 95
6, 246720, Note_off_c, 6, 35, 95
6, 246720, Note_on_c, 6, 38, 95
6, 247200, Note_off_c, 6, 38, 95
6, 247200, Note_on_c, 6, 39, 95
6, 247680, Note_off_c, 6, 39, 95
6, 247680, Note_on_c, 6, 40, 95
6, 248640, Note_off_c, 6, 40, 95
6, 249120, Note_on_c, 6, 40, 95
6, 249360, Note_off_c, 6, 40, 95
6, 249360, Note_on_c, 6, 38, 70
6, 249600, Note_off_c, 6, 38, 70
6, 249600, Note_on_c, 6, 35, 95
6, 250080, Note_off_c, 6, 35, 95
6, 250080, Note_on_c, 7, 43, 95
6, 250240, Pitch_bend_c, 7, 8192
6, 250400, Pitch_bend_c, 7, 8320
6, 250560, Pitch_bend_c, 7, 8192
6, 250560, Pitch_bend_c, 7, 8320
6, 250560, Pitch_bend_c, 7, 8192
6, 250560, Note_off_c, 7, 43, 95
6, 251040, Note_on_c, 6, 33, 95
6, 251520, Note_off_c, 6, 33, 95
6, 251520, Note_on_c, 6, 34, 95
6, 252000, Note_off_c, 6, 34, 95
6, 252000, Note_on_c, 6, 35, 95
6, 252480, Note_off_c, 6, 35, 95
6, 252480, Note_on_c, 6, 38, 95
6, 252960, Note_off_c, 6, 38, 95
6, 252960, Note_on_c, 6, 39, 95
6, 253440, Note_off_c, 6, 39, 95
6, 253440, Note_on_c, 6, 40, 95
6, 254400, Note_off_c, 6, 40, 95
6, 254880, Note_on_c, 6, 40, 95
6, 255120, Note_off_c, 6, 40, 95
6, 255120, Note_on_c, 6, 38, 70
6, 255360, Note_off_c, 6, 38, 70
6, 255360, Note_on_c, 6, 35, 95
6, 255840, Note_off_c, 6, 35, 95
6, 255840, Note_on_c, 7, 43, 95
6, 256000, Pitch_bend_c, 7, 8192
6, 256160, Pitch_bend_c, 7, 8320
6, 256320, Pitch_bend_c, 7, 8192
6, 256320, Pitch_bend_c, 7, 8320
6, 256320, Pitch_bend_c, 7, 8192
6, 256320, Note_off_c, 7, 43, 95
6, 256800, Note_on_c, 6, 33, 95
6, 257280, Note_off_c, 6, 33, 95
6, 257280, Note_on_c, 6, 34, 95
6, 257760, Note_off_c, 6, 34, 95
6, 257760, Note_on_c, 6, 35, 95
6, 258240, Note_off_c, 6, 35, 95
6, 258240, Note_on_c, 6, 38, 95
6, 258720, Note_off_c, 6, 38, 95
6, 258720, Note_on_c, 6, 39, 95
6, 259200, Note_off_c, 6, 39, 95
6, 259200, Note_on_c, 6, 40, 95
6, 260160, Note_off_c, 6, 40, 95
6, 260640, Note_on_c, 6, 40, 95
6, 260880, Note_off_c, 6, 40, 95
6, 260880, Note_on_c, 6, 38, 70
6, 261120, Note_off_c, 6, 38, 70
6, 261120, Note_on_c, 6, 35, 95
6, 261600, Note_off_c, 6, 35, 95
6, 261600, Note_on_c, 7, 43, 95
6, 261760, Pitch_bend_c, 7, 8192
6, 261920, Pitch_bend_c, 7, 8320
6, 262080, Pitch_bend_c, 7, 8192
6, 262080, Pitch_bend_c, 7, 8320
6, 262080, Pitch_bend_c, 7, 8192
6, 262080, Note_off_c, 7, 43, 95
6, 262560, Note_on_c, 6, 33, 95
6, 263040, Note_off_c, 6, 33, 95
6, 263040, Note_on_c, 6, 34, 95
6, 263520, Note_off_c, 6, 34, 95
6, 263520, Note_on_c, 6, 35, 95
6, 264000, Note_off_c, 6, 35, 95
6, 264000, Note_on_c, 6, 38, 95
6, 264480, Note_off_c, 6, 38, 95
6, 264480, Note_on_c, 6, 39, 95
6, 264960, Note_off_c, 6, 39, 95
6, 264960, Note_on_c, 6, 40, 95
6, 265920, Note_off_c, 6, 40, 95
6, 266400, Note_on_c, 6, 40, 95
6, 266640, Note_off_c, 6, 40, 95
6, 266640, Note_on_c, 6, 38, 70
6, 266880, Note_off_c, 6, 38, 70
6, 266880, Note_on_c, 6, 35, 95
6, 267360, Note_off_c, 6, 35, 95
6, 267360, Note_on_c, 7, 43, 95
6, 267520, Pitch_bend_c, 7, 8192
6, 267680, Pitch_bend_c, 7, 8320
6, 267840, Pitch_bend_c, 7, 8192
6, 267840, Pitch_bend_c, 7, 8320
6, 267840, Pitch_bend_c, 7, 8192
6, 267840, Note_off_c, 7, 43, 95
6, 268320, Note_on_c, 6, 33, 95
6, 268800, Note_off_c, 6, 33, 95
6, 268800, Note_on_c, 6, 34, 95
6, 269280, Note_off_c, 6, 34, 95
6, 269280, Note_on_c, 6, 35, 95
6, 269760, Note_off_c, 6, 35, 95
6, 269760, Note_on_c, 6, 38, 95
6, 270240, Note_off_c, 6, 38, 95
6, 270240, Note_on_c, 6, 39, 95
6, 270720, Note_off_c, 6, 39, 95
6, 270720, Note_on_c, 6, 40, 95
6, 271680, Note_off_c, 6, 40, 95
6, 272160, Note_on_c, 6, 40, 95
6, 272400, Note_off_c, 6, 40, 95
6, 272400, Note_on_c, 6, 38, 70
6, 272640, Note_off_c, 6, 38, 70
6, 272640, Note_on_c, 6, 35, 95
6, 273120, Note_off_c, 6, 35, 95
6, 273120, Note_on_c, 7, 43, 95
6, 273280, Pitch_bend_c, 7, 8192
6, 273440, Pitch_bend_c, 7, 8320
6, 273600, Pitch_bend_c, 7, 8192
6, 273600, Pitch_bend_c, 7, 8320
6, 273600, Pitch_bend_c, 7, 8192
6, 273600, Note_off_c, 7, 43, 95
6, 274080, Note_on_c, 6, 33, 95
6, 274560, Note_off_c, 6, 33, 95
6, 274560, Note_on_c, 6, 34, 95
6, 275040, Note_off_c, 6, 34, 95
6, 275040, Note_on_c, 6, 35, 95
6, 275520, Note_off_c, 6, 35, 95
6, 275520, Note_on_c, 6, 38, 95
6, 276000, Note_off_c, 6, 38, 95
6, 276000, Note_on_c, 6, 39, 95
6, 276480, Note_off_c, 6, 39, 95
6, 276480, Note_on_c, 7, 40, 95
6, 277440, Note_off_c, 7, 40, 95
6, 277920, Note_on_c, 6, 40, 95
6, 278160, Note_off_c, 6, 40, 95
6, 278160, Note_on_c, 6, 38, 70
6, 278400, Note_off_c, 6, 38, 70
6, 278400, Note_on_c, 6, 35, 95
6, 278880, Note_off_c, 6, 35, 95
6, 278880, Note_on_c, 7, 43, 95
6, 279040, Pitch_bend_c, 7, 8192
6, 279200, Pitch_bend_c, 7, 8320
6, 279360, Pitch_bend_c, 7, 8192
6, 279360, Pitch_bend_c, 7, 8320
6, 279360, Pitch_bend_c, 7, 8192
6, 279360, Note_off_c, 7, 43, 95
6, 279840, Note_on_c, 6, 36, 95
6, 280320, Note_off_c, 6, 36, 95
6, 280320, Note_on_c, 6, 35, 95
6, 280800, Note_off_c, 6, 35, 95
6, 280800, Note_on_c, 6, 33, 95
6, 281280, Note_off_c, 6, 33, 95
6, 281280, Note_on_c, 6, 35, 95
6, 281760, Note_off_c, 6, 35, 95
6, 281760, Note_on_c, 6, 31, 95
6, 282240, Note_off_c, 6, 31, 95
6, 282240, Note_on_c, 7, 40, 95
6, 283200, Note_off_c, 7, 40, 95
6, 283680, Note_on_c, 6, 40, 95
6, 283920, Note_off_c, 6, 40, 95
6, 283920, Note_on_c, 6, 38, 70
6, 284160, Note_off_c, 6, 38, 70
6, 284160, Note_on_c, 6, 35, 95
6, 284640, Note_off_c, 6, 35, 95
6, 284640, Note_on_c, 7, 43, 95
6, 284800, Pitch_bend_c, 7, 8192
6, 284960, Pitch_bend_c, 7, 8320
6, 285120, Pitch_bend_c, 7, 8192
6, 285120, Pitch_bend_c, 7, 8320
6, 285120, Pitch_bend_c, 7, 8192
6, 285120, Note_off_c, 7, 43, 95
6, 285600, Note_on_c, 6, 36, 95
6, 286080, Note_off_c, 6, 36, 95
6, 286080, Note_on_c, 6, 35, 95
6, 286560, Note_off_c, 6, 35, 95
6, 286560, Note_on_c, 6, 33, 95
6, 287040, Note_off_c, 6, 33, 95
6, 287040, Note_on_c, 6, 35, 95
6, 287520, Note_off_c, 6, 35, 95
6, 287520, Note_on_c, 6, 31, 95
6, 288000, Note_off_c, 6, 31, 95
6, 288000, Note_on_c, 7, 40, 95
6, 288960, Note_off_c, 7, 40, 95
6, 289440, Note_on_c, 6, 40, 95
6, 289680, Note_off_c, 6, 40, 95
6, 289680, Note_on_c, 6, 38, 70
6, 289920, Note_off_c, 6, 38, 70
6, 289920, Note_on_c, 6, 35, 95
6, 290400, Note_off_c, 6, 35, 95
6, 290400, Note_on_c, 7, 43, 95
6, 290560, Pitch_bend_c, 7, 8192
6, 290720, Pitch_bend_c, 7, 8320
6, 290880, Pitch_bend_c, 7, 8192
6, 290880, Pitch_bend_c, 7, 8320
6, 290880, Pitch_bend_c, 7, 8192
6, 290880, Note_off_c, 7, 43, 95
6, 291360, Note_on_c, 6, 36, 95
6, 291840, Note_off_c, 6, 36, 95
6, 291840, Note_on_c, 6, 35, 95
6, 292320, Note_off_c, 6, 35, 95
6, 292320, Note_on_c, 6, 33, 95
6, 292800, Note_off_c, 6, 33, 95
6, 292800, Note_on_c, 6, 35, 95
6, 293280, Note_off_c, 6, 35, 95
6, 293280, Note_on_c, 6, 31, 95
6, 293760, Note_off_c, 6, 31, 95
6, 293760, Note_on_c, 7, 40, 95
6, 294720, Note_off_c, 7, 40, 95
6, 295200, Note_on_c, 6, 40, 95
6, 295440, Note_off_c, 6, 40, 95
6, 295440, Note_on_c, 6, 38, 70
6, 295680, Note_off_c, 6, 38, 70
6, 295680, Note_on_c, 6, 35, 95
6, 296160, Note_off_c, 6, 35, 95
6, 296160, Note_on_c, 7, 43, 95
6, 296320, Pitch_bend_c, 7, 8192
6, 296480, Pitch_bend_c, 7, 8320
6, 296640, Pitch_bend_c, 7, 8192
6, 296640, Pitch_bend_c, 7, 8320
6, 296640, Pitch_bend_c, 7, 8192
6, 296640, Note_off_c, 7, 43, 95
6, 297120, Note_on_c, 6, 36, 95
6, 297600, Note_off_c, 6, 36, 95
6, 297600, Note_on_c, 6, 35, 95
6, 298080, Note_off_c, 6, 35, 95
6, 298080, Note_on_c, 6, 33, 95
6, 298560, Note_off_c, 6, 33, 95
6, 298560, Note_on_c, 6, 35, 95
6, 299040, Note_off_c, 6, 35, 95
6, 299040, Note_on_c, 6, 31, 95
6, 299520, Note_off_c, 6, 31, 95
6, 299520, Note_on_c, 6, 33, 95
6, 300960, Note_off_c, 6, 33, 95
6, 300960, Note_on_c, 6, 40, 95
6, 301440, Note_off_c, 6, 40, 95
6, 301440, Note_on_c, 6, 40, 95
6, 301680, Note_off_c, 6, 40, 95
6, 301680, Note_on_c, 6, 38, 95
6, 301920, Note_off_c, 6, 38, 95
6, 301920, Note_on_c, 6, 36, 95
6, 302160, Note_off_c, 6, 36, 95
6, 302160, Note_on_c, 6, 33, 95
6, 302400, Note_off_c, 6, 33, 95
6, 302400, Note_on_c, 6, 40, 95
6, 303840, Note_off_c, 6, 40, 95
6, 303840, Note_on_c, 6, 47, 95
6, 304320, Note_off_c, 6, 47, 95
6, 304320, Note_on_c, 6, 40, 95
6, 304800, Note_off_c, 6, 40, 95
6, 304800, Note_on_c, 6, 38, 95
6, 305280, Note_off_c, 6, 38, 95
6, 305280, Note_on_c, 6, 36, 95
6, 306720, Note_off_c, 6, 36, 95
6, 306720, Note_on_c, 6, 52, 95
6, 307200, Note_off_c, 6, 52, 95
6, 307200, Note_on_c, 6, 36, 95
6, 307680, Note_off_c, 6, 36, 95
6, 307680, Note_on_c, 6, 38, 95
6, 308160, Note_off_c, 6, 38, 95
6, 308160, Note_on_c, 6, 40, 95
6, 309600, Note_off_c, 6, 40, 95
6, 309600, Note_on_c, 6, 47, 95
6, 310080, Note_off_c, 6, 47, 95
6, 310080, Note_on_c, 6, 40, 95
6, 310560, Note_off_c, 6, 40, 95
6, 310560, Note_on_c, 6, 45, 95
6, 311040, Note_off_c, 6, 45, 95
6, 311040, Note_on_c, 6, 43, 95
6, 312480, Note_off_c, 6, 43, 95
6, 312480, Note_on_c, 7, 50, 95
6, 313440, Note_off_c, 7, 50, 95
6, 313440, Note_on_c, 6, 43, 95
6, 313920, Note_off_c, 6, 43, 95
6, 313920, Note_on_c, 6, 45, 95
6, 315360, Note_off_c, 6, 45, 95
6, 315360, Note_on_c, 7, 52, 95
6, 316320, Note_off_c, 7, 52, 95
6, 316320, Note_on_c, 6, 38, 95
6, 316800, Note_off_c, 6, 38, 95
6, 316800, Note_on_c, 6, 40, 95
6, 317760, Note_off_c, 6, 40, 95
6, 318240, Note_on_c, 6, 40, 95
6, 318480, Note_off_c, 6, 40, 95
6, 318480, Note_on_c, 6, 38, 70
6, 318720, Note_off_c, 6, 38, 70
6, 318720, Note_on_c, 6, 35, 95
6, 319200, Note_off_c, 6, 35, 95
6, 319200, Note_on_c, 7, 43, 95
6, 319360, Pitch_bend_c, 7, 8192
6, 319520, Pitch_bend_c, 7, 8320
6, 319680, Pitch_bend_c, 7, 8192
6, 319680, Pitch_bend_c, 7, 8320
6, 319680, Pitch_bend_c, 7, 8192
6, 319680, Note_off_c, 7, 43, 95
6, 320160, Note_on_c, 6, 33, 95
6, 320640, Note_off_c, 6, 33, 95
6, 320640, Note_on_c, 6, 34, 95
6, 321120, Note_off_c, 6, 34, 95
6, 321120, Note_on_c, 6, 35, 95
6, 321600, Note_off_c, 6, 35, 95
6, 321600, Note_on_c, 6, 38, 95
6, 322080, Note_off_c, 6, 38, 95
6, 322080, Note_on_c, 6, 39, 95
6, 322560, Note_off_c, 6, 39, 95
6, 322560, Note_on_c, 6, 43, 95
6, 324000, Note_off_c, 6, 43, 95
6, 324000, Note_on_c, 7, 50, 95
6, 324960, Note_off_c, 7, 50, 95
6, 324960, Note_on_c, 6, 43, 95
6, 325440, Note_off_c, 6, 43, 95
6, 325440, Note_on_c, 6, 45, 95
6, 326880, Note_off_c, 6, 45, 95
6, 326880, Note_on_c, 7, 52, 95
6, 327840, Note_off_c, 7, 52, 95
6, 327840, Note_on_c, 6, 38, 95
6, 328320, Note_off_c, 6, 38, 95
6, 328320, Note_on_c, 6, 40, 95
6, 329280, Note_off_c, 6, 40, 95
6, 329760, Note_on_c, 6, 40, 95
6, 330000, Note_off_c, 6, 40, 95
6, 330000, Note_on_c, 6, 38, 70
6, 330240, Note_off_c, 6, 38, 70
6, 330240, Note_on_c, 6, 35, 95
6, 330720, Note_off_c, 6, 35, 95
6, 330720, Note_on_c, 7, 43, 95
6, 330880, Pitch_bend_c, 7, 8192
6, 331040, Pitch_bend_c, 7, 8320
6, 331200, Pitch_bend_c, 7, 8192
6, 331200, Pitch_bend_c, 7, 8320
6, 331200, Pitch_bend_c, 7, 8192
6, 331200, Note_off_c, 7, 43, 95
6, 331680, Note_on_c, 6, 33, 95
6, 332160, Note_off_c, 6, 33, 95
6, 332160, Note_on_c, 6, 34, 95
6, 332640, Note_off_c, 6, 34, 95
6, 332640, Note_on_c, 6, 35, 95
6, 333120, Note_off_c, 6, 35, 95
6, 333120, Note_on_c, 6, 38, 95
6, 333600, Note_off_c, 6, 38, 95
6, 333600, Note_on_c, 6, 39, 95
6, 334080, Note_off_c, 6, 39, 95
6, 334080, Note_on_c, 6, 43, 95
6, 335520, Note_off_c, 6, 43, 95
6, 335520, Note_on_c, 7, 50, 95
6, 336480, Note_off_c, 7, 50, 95
6, 336480, Note_on_c, 6, 43, 95
6, 336960, Note_off_c, 6, 43, 95
6, 336960, Note_on_c, 6, 45, 95
6, 338400, Note_off_c, 6, 45, 95
6, 338400, Note_on_c, 7, 52, 95
6, 339360, Note_off_c, 7, 52, 95
6, 339360, Note_on_c, 6, 38, 95
6, 339840, Note_off_c, 6, 38, 95
6, 339840, Note_on_c, 6, 43, 95
6, 339840, Note_on_c, 6, 36, 95
6, 348480, Note_off_c, 6, 43, 95
6, 348480, Note_off_c, 6, 36, 95
6, 348960, Note_on_c, 6, 33, 95
6, 349440, Note_off_c, 6, 33, 95
6, 349440, Note_on_c, 6, 34, 95
6, 349920, Note_off_c, 6, 34, 95
6, 349920, Note_on_c, 6, 35, 95
6, 350400, Note_off_c, 6, 35, 95
6, 350400, Note_on_c, 6, 38, 95
6, 350880, Note_off_c, 6, 38, 95
6, 350880, Note_on_c, 6, 39, 95
6, 351360, Note_off_c, 6, 39, 95
6, 351360, Note_on_c, 6, 40, 95
6, 352320, Note_off_c, 6, 40, 95
6, 352800, Note_on_c, 6, 40, 95
6, 353040, Note_off_c, 6, 40, 95
6, 353040, Note_on_c, 6, 38, 70
6, 353280, Note_off_c, 6, 38, 70
6, 353280, Note_on_c, 6, 35, 95
6, 353760, Note_off_c, 6, 35, 95
6, 353760, Note_on_c, 7, 43, 95
6, 353920, Pitch_bend_c, 7, 8192
6, 354080, Pitch_bend_c, 7, 8320
6, 354240, Pitch_bend_c, 7, 8192
6, 354240, Pitch_bend_c, 7, 8320
6, 354240, Pitch_bend_c, 7, 8192
6, 354240, Note_off_c, 7, 43, 95
6, 354720, Note_on_c, 6, 45, 95
6, 355200, Note_off_c, 6, 45, 95
6, 355200, Note_on_c, 6, 46, 95
6, 355680, Note_off_c, 6, 46, 95
6, 355680, Note_on_c, 6, 47, 95
6, 356160, Note_off_c, 6, 47, 95
6, 356160, Note_on_c, 6, 50, 95
6, 356640, Note_off_c, 6, 50, 95
6, 356640, Note_on_c, 6, 52, 95
6, 357120, Note_off_c, 6, 52, 95
6, 357120, Note_on_c, 6, 50, 95
6, 357360, Note_off_c, 6, 50, 95
6, 357360, Note_on_c, 6, 52, 95
6, 357600, Note_off_c, 6, 52, 95
6, 357600, Note_on_c, 6, 50, 95
6, 357840, Note_off_c, 6, 50, 95
6, 357840, Note_on_c, 6, 52, 95
6, 358080, Note_off_c, 6, 52, 95
6, 358080, Note_on_c, 6, 50, 95
6, 358320, Note_off_c, 6, 50, 95
6, 358320, Note_on_c, 6, 52, 95
6, 358560, Note_off_c, 6, 52, 95
6, 358560, Note_on_c, 6, 50, 95
6, 358800, Note_off_c, 6, 50, 95
6, 358800, Note_on_c, 6, 52, 95
6, 359040, Note_off_c, 6, 52, 95
6, 359040, Note_on_c, 6, 50, 95
6, 359160, Note_off_c, 6, 50, 95
6, 359160, Note_on_c, 6, 52, 95
6, 359280, Note_off_c, 6, 52, 95
6, 359280, Note_on_c, 6, 50, 95
6, 359400, Note_off_c, 6, 50, 95
6, 359400, Note_on_c, 6, 52, 95
6, 359520, Note_off_c, 6, 52, 95
6, 359520, Note_on_c, 6, 55, 95
6, 359640, Note_off_c, 6, 55, 95
6, 359640, Note_on_c, 6, 52, 95
6, 359760, Note_off_c, 6, 52, 95
6, 359760, Note_on_c, 6, 50, 95
6, 359880, Note_off_c, 6, 50, 95
6, 359880, Note_on_c, 6, 52, 95
6, 360000, Note_off_c, 6, 52, 95
6, 360000, Note_on_c, 6, 55, 95
6, 360120, Note_off_c, 6, 55, 95
6, 360120, Note_on_c, 6, 52, 95
6, 360240, Note_off_c, 6, 52, 95
6, 360240, Note_on_c, 6, 55, 95
6, 360360, Note_off_c, 6, 55, 95
6, 360360, Note_on_c, 6, 52, 95
6, 360480, Note_off_c, 6, 52, 95
6, 360480, Note_on_c, 6, 55, 95
6, 360600, Note_off_c, 6, 55, 95
6, 360600, Note_on_c, 6, 52, 95
6, 360720, Note_off_c, 6, 52, 95
6, 360720, Note_on_c, 6, 55, 95
6, 360840, Note_off_c, 6, 55, 95
6, 360840, Note_on_c, 6, 52, 95
6, 360960, Note_off_c, 6, 52, 95
6, 360960, Note_on_c, 6, 55, 95
6, 361080, Note_off_c, 6, 55, 95
6, 361080, Note_on_c, 6, 52, 95
6, 361200, Note_off_c, 6, 52, 95
6, 361200, Note_on_c, 6, 55, 95
6, 361320, Note_off_c, 6, 55, 95
6, 361320, Note_on_c, 6, 52, 95
6, 361440, Note_off_c, 6, 52, 95
6, 361440, Note_on_c, 6, 55, 95
6, 361560, Note_off_c, 6, 55, 95
6, 361560, Note_on_c, 6, 52, 95
6, 361680, Note_off_c, 6, 52, 95
6, 361680, Note_on_c, 6, 55, 95
6, 361800, Note_off_c, 6, 55, 95
6, 361800, Note_on_c, 6, 57, 95
6, 361920, Note_off_c, 6, 57, 95
6, 361920, Note_on_c, 6, 59, 70
6, 362040, Note_off_c, 6, 59, 70
6, 362040, Note_on_c, 6, 55, 95
6, 362160, Note_off_c, 6, 55, 95
6, 362160, Note_on_c, 6, 57, 95
6, 362280, Note_off_c, 6, 57, 95
6, 362280, Note_on_c, 6, 59, 70
6, 362400, Note_off_c, 6, 59, 70
6, 362400, Note_on_c, 6, 52, 95
6, 362520, Note_off_c, 6, 52, 95
6, 362520, Note_on_c, 6, 50, 95
6, 362640, Note_off_c, 6, 50, 95
6, 362640, Note_on_c, 6, 52, 95
6, 362760, Note_off_c, 6, 52, 95
6, 362760, Note_on_c, 6, 50, 95
6, 362880, Note_off_c, 6, 50, 95
6, 362880, Note_on_c, 6, 55, 95
6, 363000, Note_off_c, 6, 55, 95
6, 363000, Note_on_c, 6, 57, 95
6, 363120, Note_off_c, 6, 57, 95
6, 363120, Note_on_c, 6, 59, 70
6, 363240, Note_off_c, 6, 59, 70
6, 363240, Note_on_c, 6, 55, 95
6, 363360, Note_off_c, 6, 55, 95
6, 363360, Note_on_c, 6, 57, 95
6, 363480, Note_off_c, 6, 57, 95
6, 363480, Note_on_c, 6, 59, 70
6, 363600, Note_off_c, 6, 59, 70
6, 363600, Note_on_c, 6, 55, 95
6, 363720, Note_off_c, 6, 55, 95
6, 363720, Note_on_c, 6, 57, 95
6, 363840, Note_off_c, 6, 57, 95
6, 363840, Note_on_c, 6, 59, 70
6, 363960, Note_off_c, 6, 59, 70
6, 363960, Note_on_c, 6, 55, 95
6, 364080, Note_off_c, 6, 55, 95
6, 364080, Note_on_c, 6, 57, 95
6, 364200, Note_off_c, 6, 57, 95
6, 364200, Note_on_c, 6, 59, 70
6, 364320, Note_off_c, 6, 59, 70
6, 364320, Note_on_c, 6, 55, 95
6, 364440, Note_off_c, 6, 55, 95
6, 364440, Note_on_c, 6, 57, 95
6, 364560, Note_off_c, 6, 57, 95
6, 364560, Note_on_c, 6, 59, 70
6, 364680, Note_off_c, 6, 59, 70
6, 364680, Note_on_c, 6, 55, 95
6, 364800, Note_off_c, 6, 55, 95
6, 364800, Note_on_c, 6, 57, 95
6, 364920, Note_off_c, 6, 57, 95
6, 364920, Note_on_c, 6, 59, 70
6, 365040, Note_off_c, 6, 59, 70
6, 365040, Note_on_c, 6, 55, 95
6, 365160, Note_off_c, 6, 55, 95
6, 365160, Note_on_c, 6, 57, 95
6, 365280, Note_off_c, 6, 57, 95
6, 365280, Note_on_c, 6, 59, 70
6, 365400, Note_off_c, 6, 59, 70
6, 365400, Note_on_c, 6, 55, 95
6, 365520, Note_off_c, 6, 55, 95
6, 365520, Note_on_c, 6, 57, 95
6, 365640, Note_off_c, 6, 57, 95
6, 365640, Note_on_c, 6, 59, 70
6, 365760, Note_off_c, 6, 59, 70
6, 365760, Note_on_c, 6, 52, 95
6, 365880, Note_off_c, 6, 52, 95
6, 365880, Note_on_c, 6, 50, 70
6, 366000, Note_off_c, 6, 50, 70
6, 366000, Note_on_c, 6, 52, 95
6, 366120, Note_off_c, 6, 52, 95
6, 366120, Note_on_c, 6, 50, 70
6, 366240, Note_off_c, 6, 50, 70
6, 366240, Note_on_c, 6, 52, 95
6, 366360, Note_off_c, 6, 52, 95
6, 366360, Note_on_c, 6, 50, 70
6, 366480, Note_off_c, 6, 50, 70
6, 366480, Note_on_c, 6, 52, 95
6, 366600, Note_off_c, 6, 52, 95
6, 366600, Note_on_c, 6, 50, 70
6, 366720, Note_off_c, 6, 50, 70
6, 366720, Note_on_c, 6, 52, 95
6, 366840, Note_off_c, 6, 52, 95
6, 366840, Note_on_c, 6, 50, 70
6, 366960, Note_off_c, 6, 50, 70
6, 366960, Note_on_c, 6, 52, 95
6, 367080, Note_off_c, 6, 52, 95
6, 367080, Note_on_c, 6, 50, 70
6, 367200, Note_off_c, 6, 50, 70
6, 367200, Note_on_c, 6, 52, 95
6, 367320, Note_off_c, 6, 52, 95
6, 367320, Note_on_c, 6, 50, 70
6, 367440, Note_off_c, 6, 50, 70
6, 367440, Note_on_c, 6, 52, 95
6, 367560, Note_off_c, 6, 52, 95
6, 367560, Note_on_c, 6, 50, 70
6, 367680, Note_off_c, 6, 50, 70
6, 367680, Note_on_c, 6, 52, 95
6, 367800, Note_off_c, 6, 52, 95
6, 367800, Note_on_c, 6, 50, 70
6, 367920, Note_off_c, 6, 50, 70
6, 367920, Note_on_c, 6, 52, 95
6, 368040, Note_off_c, 6, 52, 95
6, 368040, Note_on_c, 6, 50, 70
6, 368160, Note_off_c, 6, 50, 70
6, 368160, Note_on_c, 6, 52, 95
6, 368280, Note_off_c, 6, 52, 95
6, 368280, Note_on_c, 6, 50, 70
6, 368400, Note_off_c, 6, 50, 70
6, 368400, Note_on_c, 6, 52, 95
6, 368520, Note_off_c, 6, 52, 95
6, 368520, Note_on_c, 6, 50, 70
6, 368640, Note_off_c, 6, 50, 70
6, 368640, Note_on_c, 6, 40, 95
6, 368640, Note_on_c, 6, 28, 95
6, 368880, Note_off_c, 6, 40, 95
6, 368880, Note_off_c, 6, 28, 95
6, 368880, End_track
7, 0, Start_track
7, 0, Pitch_bend_c, 8, 8192
7, 0, Control_c, 8, 7, 103
7, 0, Control_c, 8, 10, 63
7, 0, Control_c, 8, 93, 0
7, 0, Control_c, 8, 91, 0
7, 0, Control_c, 8, 95, 0
7, 0, Control_c, 8, 92, 0
7, 0, Control_c, 8, 11, 127
7, 0, Program_c, 8, 73
7, 0, Control_c, 10, 7, 103
7, 0, Control_c, 10, 10, 63
7, 0, Control_c, 10, 93, 0
7, 0, Control_c, 10, 91, 0
7, 0, Control_c, 10, 95, 0
7, 0, Control_c, 10, 92, 0
7, 0, Control_c, 10, 11, 127
7, 0, Program_c, 10, 73
7, 195840, Note_on_c, 8, 71, 95
7, 195960, Note_off_c, 8, 71, 95
7, 195960, Note_on_c, 8, 71, 95
7, 196080, Note_off_c, 8, 71, 95
7, 196080, Note_on_c, 8, 71, 95
7, 196200, Note_off_c, 8, 71, 95
7, 196200, Note_on_c, 8, 71, 95
7, 196320, Note_off_c, 8, 71, 95
7, 196320, Note_on_c, 8, 71, 95
7, 196440, Note_off_c, 8, 71, 95
7, 196440, Note_on_c, 8, 71, 95
7, 196560, Note_off_c, 8, 71, 95
7, 196560, Note_on_c, 8, 71, 95
7, 196680, Note_off_c, 8, 71, 95
7, 196680, Note_on_c, 8, 71, 95
7, 196800, Note_off_c, 8, 71, 95
7, 196800, Note_on_c, 8, 71, 95
7, 196920, Note_off_c, 8, 71, 95
7, 196920, Note_on_c, 8, 71, 95
7, 197040, Note_off_c, 8, 71, 95
7, 197040, Note_on_c, 8, 71, 95
7, 197160, Note_off_c, 8, 71, 95
7, 197160, Note_on_c, 8, 71, 95
7, 197279, Note_off_c, 8, 71, 95
7, 197280, Note_on_c, 8, 69, 95
7, 197400, Note_off_c, 8, 69, 95
7, 197520, Note_on_c, 8, 67, 95
7, 197760, Note_off_c, 8, 67, 95
7, 198000, Note_on_c, 8, 71, 95
7, 198240, Note_off_c, 8, 71, 95
7, 198240, Note_on_c, 8, 69, 95
7, 198600, Note_off_c, 8, 69, 95
7, 198600, Note_on_c, 8, 67, 95
7, 198840, Note_off_c, 8, 67, 95
7, 198840, Note_on_c, 8, 69, 95
7, 199200, Note_off_c, 8, 69, 95
7, 199200, Note_on_c, 8, 71, 95
7, 199440, Note_off_c, 8, 71, 95
7, 199440, Note_on_c, 8, 67, 95
7, 199680, Note_off_c, 8, 67, 95
7, 199680, Note_on_c, 10, 64, 95
7, 199840, Pitch_bend_c, 10, 8192
7, 200000, Pitch_bend_c, 10, 8320
7, 200160, Pitch_bend_c, 10, 8192
7, 200160, Pitch_bend_c, 10, 8320
7, 200160, Pitch_bend_c, 10, 8192
7, 200160, Note_off_c, 10, 64, 95
7, 200160, Note_on_c, 8, 64, 95
7, 200280, Note_off_c, 8, 64, 95
7, 200400, Note_on_c, 8, 62, 95
7, 200640, Note_off_c, 8, 62, 95
7, 200640, Note_on_c, 8, 64, 95
7, 200880, Note_off_c, 8, 64, 95
7, 200880, Note_on_c, 8, 67, 95
7, 201120, Note_off_c, 8, 67, 95
7, 201600, Note_on_c, 8, 74, 95
7, 201720, Note_off_c, 8, 74, 95
7, 201720, Note_on_c, 8, 74, 95
7, 201840, Note_off_c, 8, 74, 95
7, 201840, Note_on_c, 8, 74, 95
7, 201960, Note_off_c, 8, 74, 95
7, 201960, Note_on_c, 8, 74, 95
7, 202080, Note_off_c, 8, 74, 95
7, 202080, Note_on_c, 8, 74, 95
7, 202200, Note_off_c, 8, 74, 95
7, 202200, Note_on_c, 8, 74, 95
7, 202320, Note_off_c, 8, 74, 95
7, 202320, Note_on_c, 8, 74, 95
7, 202440, Note_off_c, 8, 74, 95
7, 202440, Note_on_c, 8, 74, 95
7, 202559, Note_off_c, 8, 74, 95
7, 202560, Note_on_c, 8, 74, 95
7, 202800, Note_off_c, 8, 74, 95
7, 202800, Note_on_c, 8, 73, 95
7, 203040, Note_off_c, 8, 73, 95
7, 203040, Note_on_c, 8, 71, 95
7, 203280, Note_off_c, 8, 71, 95
7, 203280, Note_on_c, 8, 69, 95
7, 203520, Note_off_c, 8, 69, 95
7, 203520, Note_on_c, 8, 64, 95
7, 204240, Note_off_c, 8, 64, 95
7, 204240, Note_on_c, 8, 64, 95
7, 204480, Note_off_c, 8, 64, 95
7, 204480, Note_on_c, 8, 62, 95
7, 204720, Note_off_c, 8, 62, 95
7, 204720, Note_on_c, 8, 64, 95
7, 204960, Note_off_c, 8, 64, 95
7, 204960, Note_on_c, 8, 67, 95
7, 205200, Note_off_c, 8, 67, 95
7, 205200, Note_on_c, 8, 71, 95
7, 205440, Note_off_c, 8, 71, 95
7, 205440, Note_on_c, 8, 71, 95
7, 205920, Note_off_c, 8, 71, 95
7, 205920, Note_on_c, 8, 76, 95
7, 206160, Note_off_c, 8, 76, 95
7, 206160, Note_on_c, 8, 74, 95
7, 206400, Note_off_c, 8, 74, 95
7, 206400, Note_on_c, 8, 71, 95
7, 206640, Note_off_c, 8, 71, 95
7, 206640, Note_on_c, 8, 76, 95
7, 206880, Note_off_c, 8, 76, 95
7, 206880, Note_on_c, 8, 74, 95
7, 207120, Note_off_c, 8, 74, 95
7, 207120, Note_on_c, 8, 71, 95
7, 207360, Note_off_c, 8, 71, 95
7, 207360, Note_on_c, 8, 76, 95
7, 207600, Note_off_c, 8, 76, 95
7, 207600, Note_on_c, 8, 74, 95
7, 207840, Note_off_c, 8, 74, 95
7, 207840, Note_on_c, 8, 71, 95
7, 208080, Note_off_c, 8, 71, 95
7, 208080, Note_on_c, 8, 76, 95
7, 208320, Note_off_c, 8, 76, 95
7, 208320, Note_on_c, 8, 74, 95
7, 208560, Note_off_c, 8, 74, 95
7, 208560, Note_on_c, 8, 71, 95
7, 208800, Note_off_c, 8, 71, 95
7, 208800, Note_on_c, 8, 76, 95
7, 209040, Note_off_c, 8, 76, 95
7, 209040, Note_on_c, 8, 74, 95
7, 209280, Note_off_c, 8, 74, 95
7, 209280, Note_on_c, 8, 71, 95
7, 209520, Note_off_c, 8, 71, 95
7, 209520, Note_on_c, 8, 81, 95
7, 209640, Note_off_c, 8, 81, 95
7, 209640, Note_on_c, 8, 81, 95
7, 209760, Note_off_c, 8, 81, 95
7, 209760, Note_on_c, 8, 81, 95
7, 209880, Note_off_c, 8, 81, 95
7, 209880, Note_on_c, 8, 81, 95
7, 210000, Note_off_c, 8, 81, 95
7, 210000, Note_on_c, 8, 81, 95
7, 210120, Note_off_c, 8, 81, 95
7, 210120, Note_on_c, 8, 81, 95
7, 210240, Note_off_c, 8, 81, 95
7, 210240, Note_on_c, 8, 81, 95
7, 210360, Note_off_c, 8, 81, 95
7, 210360, Note_on_c, 8, 81, 95
7, 210480, Note_off_c, 8, 81, 95
7, 210480, Note_on_c, 8, 81, 95
7, 210600, Note_off_c, 8, 81, 95
7, 210600, Note_on_c, 8, 81, 95
7, 210720, Note_off_c, 8, 81, 95
7, 210720, Note_on_c, 8, 81, 95
7, 210840, Note_off_c, 8, 81, 95
7, 210840, Note_on_c, 8, 81, 95
7, 210959, Note_off_c, 8, 81, 95
7, 210960, Note_on_c, 8, 79, 95
7, 211080, Note_off_c, 8, 79, 95
7, 211080, Note_on_c, 8, 76, 95
7, 211200, Note_off_c, 8, 76, 95
7, 211200, Note_on_c, 8, 74, 95
7, 211320, Note_off_c, 8, 74, 95
7, 211320, Note_on_c, 8, 79, 95
7, 211440, Note_off_c, 8, 79, 95
7, 211440, Note_on_c, 8, 76, 95
7, 211560, Note_off_c, 8, 76, 95
7, 211560, Note_on_c, 8, 74, 95
7, 211680, Note_off_c, 8, 74, 95
7, 211680, Note_on_c, 8, 79, 95
7, 211800, Note_off_c, 8, 79, 95
7, 211800, Note_on_c, 8, 76, 95
7, 211920, Note_off_c, 8, 76, 95
7, 211920, Note_on_c, 8, 74, 95
7, 212040, Note_off_c, 8, 74, 95
7, 212040, Note_on_c, 8, 79, 95
7, 212160, Note_off_c, 8, 79, 95
7, 212160, Note_on_c, 8, 76, 95
7, 212280, Note_off_c, 8, 76, 95
7, 212280, Note_on_c, 8, 74, 95
7, 212400, Note_off_c, 8, 74, 95
7, 212400, Note_on_c, 8, 79, 95
7, 212520, Note_off_c, 8, 79, 95
7, 212520, Note_on_c, 8, 76, 95
7, 212640, Note_off_c, 8, 76, 95
7, 212640, Note_on_c, 8, 74, 95
7, 212760, Note_off_c, 8, 74, 95
7, 212760, Note_on_c, 8, 79, 95
7, 212880, Note_off_c, 8, 79, 95
7, 212880, Note_on_c, 8, 76, 95
7, 213000, Note_off_c, 8, 76, 95
7, 213000, Note_on_c, 8, 74, 95
7, 213120, Note_off_c, 8, 74, 95
7, 213120, Note_on_c, 8, 71, 95
7, 213360, Note_off_c, 8, 71, 95
7, 213360, Note_on_c, 8, 69, 95
7, 213600, Note_off_c, 8, 69, 95
7, 213600, Note_on_c, 8, 67, 95
7, 213840, Note_off_c, 8, 67, 95
7, 213840, Note_on_c, 8, 69, 95
7, 214080, Note_off_c, 8, 69, 95
7, 214080, Note_on_c, 8, 71, 95
7, 214320, Note_off_c, 8, 71, 95
7, 214320, Note_on_c, 8, 67, 95
7, 214560, Note_off_c, 8, 67, 95
7, 214560, Note_on_c, 8, 64, 95
7, 215280, Note_off_c, 8, 64, 95
7, 215280, Note_on_c, 8, 64, 95
7, 215520, Note_off_c, 8, 64, 95
7, 215520, Note_on_c, 8, 64, 95
7, 215760, Note_off_c, 8, 64, 95
7, 215760, Note_on_c, 8, 62, 95
7, 216000, Note_off_c, 8, 62, 95
7, 216000, Note_on_c, 8, 64, 95
7, 216240, Note_off_c, 8, 64, 95
7, 216240, Note_on_c, 8, 67, 95
7, 217200, Note_off_c, 8, 67, 95
7, 217200, Note_on_c, 8, 83, 95
7, 217320, Note_off_c, 8, 83, 95
7, 217320, Note_on_c, 8, 83, 95
7, 217440, Note_off_c, 8, 83, 95
7, 217440, Note_on_c, 8, 83, 95
7, 217560, Note_off_c, 8, 83, 95
7, 217560, Note_on_c, 8, 83, 95
7, 217680, Note_off_c, 8, 83, 95
7, 217680, Note_on_c, 8, 83, 95
7, 217800, Note_off_c, 8, 83, 95
7, 217800, Note_on_c, 8, 83, 95
7, 217920, Note_off_c, 8, 83, 95
7, 217920, Note_on_c, 8, 83, 95
7, 218040, Note_off_c, 8, 83, 95
7, 218040, Note_on_c, 8, 83, 95
7, 218160, Note_off_c, 8, 83, 95
7, 218160, Note_on_c, 8, 83, 95
7, 218280, Note_off_c, 8, 83, 95
7, 218280, Note_on_c, 8, 83, 95
7, 218400, Note_off_c, 8, 83, 95
7, 218400, Note_on_c, 8, 83, 95
7, 218520, Note_off_c, 8, 83, 95
7, 218520, Note_on_c, 8, 83, 95
7, 218640, Note_off_c, 8, 83, 95
7, 218640, Note_on_c, 8, 83, 95
7, 218760, Note_off_c, 8, 83, 95
7, 218760, Note_on_c, 8, 83, 95
7, 218879, Note_off_c, 8, 83, 95
7, 218880, Note_on_c, 8, 81, 95
7, 219000, Note_off_c, 8, 81, 95
7, 219000, Note_on_c, 8, 81, 95
7, 219120, Note_off_c, 8, 81, 95
7, 219120, Note_on_c, 8, 81, 95
7, 219240, Note_off_c, 8, 81, 95
7, 219240, Note_on_c, 8, 81, 95
7, 219360, Note_off_c, 8, 81, 95
7, 219360, Note_on_c, 8, 81, 95
7, 219480, Note_off_c, 8, 81, 95
7, 219480, Note_on_c, 8, 81, 95
7, 219600, Note_off_c, 8, 81, 95
7, 219600, Note_on_c, 8, 81, 95
7, 219720, Note_off_c, 8, 81, 95
7, 219720, Note_on_c, 8, 81, 95
7, 219839, Note_off_c, 8, 81, 95
7, 219840, Note_on_c, 8, 79, 95
7, 219960, Note_off_c, 8, 79, 95
7, 219960, Note_on_c, 8, 79, 95
7, 220080, Note_off_c, 8, 79, 95
7, 220080, Note_on_c, 8, 79, 95
7, 220200, Note_off_c, 8, 79, 95
7, 220200, Note_on_c, 8, 79, 95
7, 220319, Note_off_c, 8, 79, 95
7, 220320, Note_on_c, 8, 79, 95
7, 220440, Note_off_c, 8, 79, 95
7, 220440, Note_on_c, 8, 76, 95
7, 220560, Note_off_c, 8, 76, 95
7, 220560, Note_on_c, 8, 74, 95
7, 220680, Note_off_c, 8, 74, 95
7, 220680, Note_on_c, 8, 79, 95
7, 220800, Note_off_c, 8, 79, 95
7, 220800, Note_on_c, 8, 76, 95
7, 220920, Note_off_c, 8, 76, 95
7, 220920, Note_on_c, 8, 74, 95
7, 221040, Note_off_c, 8, 74, 95
7, 221040, Note_on_c, 8, 79, 95
7, 221160, Note_off_c, 8, 79, 95
7, 221160, Note_on_c, 8, 76, 95
7, 221280, Note_off_c, 8, 76, 95
7, 221280, Note_on_c, 8, 74, 95
7, 221760, Note_off_c, 8, 74, 95
7, 221760, Note_on_c, 8, 76, 95
7, 222000, Note_off_c, 8, 76, 95
7, 222000, Note_on_c, 8, 76, 95
7, 222240, Note_off_c, 8, 76, 95
7, 222240, Note_on_c, 8, 74, 95
7, 222480, Note_off_c, 8, 74, 95
7, 222480, Note_on_c, 8, 79, 95
7, 222720, Note_off_c, 8, 79, 95
7, 222720, Note_on_c, 8, 79, 95
7, 222960, Note_off_c, 8, 79, 95
7, 222960, Note_on_c, 8, 74, 95
7, 223200, Note_off_c, 8, 74, 95
7, 223200, Note_on_c, 8, 76, 95
7, 223440, Note_off_c, 8, 76, 95
7, 223440, Note_on_c, 8, 76, 95
7, 223680, Note_off_c, 8, 76, 95
7, 223680, Note_on_c, 8, 74, 95
7, 223920, Note_off_c, 8, 74, 95
7, 223920, Note_on_c, 8, 79, 95
7, 224160, Note_off_c, 8, 79, 95
7, 224160, Note_on_c, 8, 79, 95
7, 224400, Note_off_c, 8, 79, 95
7, 224640, Note_on_c, 8, 71, 95
7, 224760, Note_off_c, 8, 71, 95
7, 224760, Note_on_c, 8, 71, 95
7, 224880, Note_off_c, 8, 71, 95
7, 224880, Note_on_c, 8, 71, 95
7, 225000, Note_off_c, 8, 71, 95
7, 225000, Note_on_c, 8, 71, 95
7, 225120, Note_off_c, 8, 71, 95
7, 225120, Note_on_c, 8, 71, 95
7, 225240, Note_off_c, 8, 71, 95
7, 225240, Note_on_c, 8, 71, 95
7, 225360, Note_off_c, 8, 71, 95
7, 225360, Note_on_c, 8, 71, 95
7, 225480, Note_off_c, 8, 71, 95
7, 225480, Note_on_c, 8, 71, 95
7, 225599, Note_off_c, 8, 71, 95
7, 225600, Note_on_c, 8, 71, 95
7, 225840, Note_off_c, 8, 71, 95
7, 225840, Note_on_c, 8, 69, 95
7, 226080, Note_off_c, 8, 69, 95
7, 226080, Note_on_c, 8, 67, 95
7, 226320, Note_off_c, 8, 67, 95
7, 226320, Note_on_c, 8, 71, 95
7, 227280, Note_off_c, 8, 71, 95
7, 227280, Note_on_c, 8, 71, 95
7, 227520, Note_off_c, 8, 71, 95
7, 227520, Note_on_c, 8, 69, 95
7, 227760, Note_off_c, 8, 69, 95
7, 227760, Note_on_c, 8, 67, 95
7, 228120, Note_off_c, 8, 67, 95
7, 228120, Note_on_c, 8, 71, 95
7, 228360, Note_off_c, 8, 71, 95
7, 228360, Note_on_c, 8, 69, 95
7, 228600, Note_off_c, 8, 69, 95
7, 228600, Note_on_c, 8, 67, 95
7, 228960, Note_off_c, 8, 67, 95
7, 228960, Note_on_c, 8, 64, 95
7, 229200, Note_off_c, 8, 64, 95
7, 229200, Note_on_c, 8, 62, 95
7, 229440, Note_off_c, 8, 62, 95
7, 229440, Note_on_c, 8, 64, 95
7, 229680, Note_off_c, 8, 64, 95
7, 229680, Note_on_c, 8, 64, 95
7, 229920, Note_off_c, 8, 64, 95
7, 229920, Note_on_c, 8, 62, 95
7, 230160, Note_off_c, 8, 62, 95
7, 230160, Note_on_c, 8, 64, 95
7, 230400, Note_off_c, 8, 64, 95
7, 230400, Note_on_c, 8, 67, 95
7, 230520, Note_off_c, 8, 67, 95
7, 230520, Note_on_c, 8, 67, 95
7, 230640, Note_off_c, 8, 67, 95
7, 230640, Note_on_c, 8, 67, 95
7, 230760, Note_off_c, 8, 67, 95
7, 230760, Note_on_c, 8, 67, 95
7, 230880, Note_off_c, 8, 67, 95
7, 230880, Note_on_c, 8, 67, 95
7, 231000, Note_off_c, 8, 67, 95
7, 231000, Note_on_c, 8, 67, 95
7, 231120, Note_off_c, 8, 67, 95
7, 231120, Note_on_c, 8, 67, 95
7, 231240, Note_off_c, 8, 67, 95
7, 231240, Note_on_c, 8, 67, 95
7, 231359, Note_off_c, 8, 67, 95
7, 231360, Note_on_c, 8, 64, 95
7, 231600, Note_off_c, 8, 64, 95
7, 231600, Note_on_c, 8, 62, 95
7, 231840, Note_off_c, 8, 62, 95
7, 231840, Note_on_c, 8, 64, 95
7, 232080, Note_off_c, 8, 64, 95
7, 232080, Note_on_c, 8, 62, 95
7, 232320, Note_off_c, 8, 62, 95
7, 232320, Note_on_c, 8, 64, 95
7, 232560, Note_off_c, 8, 64, 95
7, 232560, Note_on_c, 8, 62, 95
7, 232800, Note_off_c, 8, 62, 95
7, 232800, Note_on_c, 8, 67, 95
7, 232920, Note_off_c, 8, 67, 95
7, 232920, Note_on_c, 8, 67, 95
7, 233040, Note_off_c, 8, 67, 95
7, 233040, Note_on_c, 8, 67, 95
7, 233160, Note_off_c, 8, 67, 95
7, 233160, Note_on_c, 8, 67, 95
7, 233280, Note_off_c, 8, 67, 95
7, 233280, Note_on_c, 8, 67, 95
7, 233400, Note_off_c, 8, 67, 95
7, 233400, Note_on_c, 8, 67, 95
7, 233520, Note_off_c, 8, 67, 95
7, 233520, Note_on_c, 8, 67, 95
7, 233640, Note_off_c, 8, 67, 95
7, 233640, Note_on_c, 8, 67, 95
7, 233759, Note_off_c, 8, 67, 95
7, 233760, Note_on_c, 8, 64, 95
7, 234000, Note_off_c, 8, 64, 95
7, 234000, Note_on_c, 8, 62, 95
7, 234240, Note_off_c, 8, 62, 95
7, 234240, Note_on_c, 8, 64, 95
7, 234480, Note_off_c, 8, 64, 95
7, 234480, Note_on_c, 8, 62, 95
7, 234720, Note_off_c, 8, 62, 95
7, 234720, Note_on_c, 8, 64, 95
7, 234960, Note_off_c, 8, 64, 95
7, 234960, Note_on_c, 8, 62, 95
7, 235200, Note_off_c, 8, 62, 95
7, 235200, Note_on_c, 8, 59, 95
7, 235440, Note_off_c, 8, 59, 95
7, 235440, Note_on_c, 8, 62, 95
7, 235680, Note_off_c, 8, 62, 95
7, 235680, Note_on_c, 8, 64, 95
7, 235920, Note_off_c, 8, 64, 95
7, 235920, Note_on_c, 8, 67, 95
7, 236160, Note_off_c, 8, 67, 95
7, 236160, Note_on_c, 8, 67, 95
7, 236280, Note_off_c, 8, 67, 95
7, 236280, Note_on_c, 8, 67, 95
7, 236400, Note_off_c, 8, 67, 95
7, 236400, Note_on_c, 8, 67, 95
7, 236520, Note_off_c, 8, 67, 95
7, 236520, Note_on_c, 8, 67, 95
7, 236640, Note_off_c, 8, 67, 95
7, 236640, Note_on_c, 8, 67, 95
7, 236760, Note_off_c, 8, 67, 95
7, 236760, Note_on_c, 8, 67, 95
7, 236880, Note_off_c, 8, 67, 95
7, 236880, Note_on_c, 8, 67, 95
7, 237000, Note_off_c, 8, 67, 95
7, 237000, Note_on_c, 8, 67, 95
7, 237119, Note_off_c, 8, 67, 95
7, 237120, Note_on_c, 8, 64, 95
7, 237360, Note_off_c, 8, 64, 95
7, 237360, Note_on_c, 8, 62, 95
7, 237600, Note_off_c, 8, 62, 95
7, 237600, Note_on_c, 8, 64, 95
7, 237840, Note_off_c, 8, 64, 95
7, 237840, Note_on_c, 8, 62, 95
7, 238080, Note_off_c, 8, 62, 95
7, 238080, Note_on_c, 8, 64, 95
7, 238320, Note_off_c, 8, 64, 95
7, 238320, Note_on_c, 8, 62, 95
7, 238560, Note_off_c, 8, 62, 95
7, 238560, Note_on_c, 8, 67, 95
7, 238680, Note_off_c, 8, 67, 95
7, 238680, Note_on_c, 8, 67, 95
7, 238800, Note_off_c, 8, 67, 95
7, 238800, Note_on_c, 8, 67, 95
7, 238920, Note_off_c, 8, 67, 95
7, 238920, Note_on_c, 8, 67, 95
7, 239040, Note_off_c, 8, 67, 95
7, 239040, Note_on_c, 8, 67, 95
7, 239160, Note_off_c, 8, 67, 95
7, 239160, Note_on_c, 8, 67, 95
7, 239280, Note_off_c, 8, 67, 95
7, 239280, Note_on_c, 8, 67, 95
7, 239400, Note_off_c, 8, 67, 95
7, 239400, Note_on_c, 8, 67, 95
7, 239519, Note_off_c, 8, 67, 95
7, 239520, Note_on_c, 8, 64, 95
7, 239760, Note_off_c, 8, 64, 95
7, 239760, Note_on_c, 8, 62, 95
7, 240000, Note_off_c, 8, 62, 95
7, 240000, Note_on_c, 8, 64, 95
7, 240240, Note_off_c, 8, 64, 95
7, 240240, Note_on_c, 8, 62, 95
7, 240480, Note_off_c, 8, 62, 95
7, 240480, Note_on_c, 8, 64, 95
7, 240720, Note_off_c, 8, 64, 95
7, 240720, Note_on_c, 8, 62, 95
7, 240960, Note_off_c, 8, 62, 95
7, 240960, End_track
8, 0, Start_track
8, 0, Pitch_bend_c, 9, 8192
8, 0, Control_c, 9, 7, 103
8, 0, Control_c, 9, 10, 63
8, 0, Control_c, 9, 93, 0
8, 0, Control_c, 9, 91, 0
8, 0, Control_c, 9, 95, 0
8, 0, Control_c, 9, 92, 0
8, 0, Control_c, 9, 11, 127
8, 0, Program_c, 9, 0
8, 3360, Note_on_c, 9, 42, 47
8, 3840, Note_off_c, 9, 42, 47
8, 3840, Note_on_c, 9, 42, 47
8, 4320, Note_off_c, 9, 42, 47
8, 4320, Note_on_c, 9, 42, 47
8, 4800, Note_off_c, 9, 42, 47
8, 4800, Note_on_c, 9, 42, 47
8, 5280, Note_off_c, 9, 42, 47
8, 5280, Note_on_c, 9, 42, 47
8, 5760, Note_off_c, 9, 42, 47
8, 5760, Note_on_c, 9, 42, 47
8, 6720, Note_off_c, 9, 42, 47
8, 6720, Note_on_c, 9, 38, 79
8, 7200, Note_off_c, 9, 38, 79
8, 7200, Note_on_c, 9, 43, 47
8, 7680, Note_off_c, 9, 43, 47
8, 7680, Note_on_c, 9, 45, 47
8, 8160, Note_off_c, 9, 45, 47
8, 8160, Note_on_c, 9, 55, 63
8, 8640, Note_off_c, 9, 55, 63
8, 9120, Note_on_c, 9, 42, 47
8, 9600, Note_off_c, 9, 42, 47
8, 9600, Note_on_c, 9, 42, 47
8, 10080, Note_off_c, 9, 42, 47
8, 10080, Note_on_c, 9, 42, 47
8, 10080, Note_on_c, 9, 38, 63
8, 10560, Note_off_c, 9, 42, 47
8, 10560, Note_off_c, 9, 38, 63
8, 10560, Note_on_c, 9, 42, 47
8, 11040, Note_off_c, 9, 42, 47
8, 11040, Note_on_c, 9, 42, 47
8, 11520, Note_off_c, 9, 42, 47
8, 11520, Note_on_c, 9, 42, 47
8, 12480, Note_off_c, 9, 42, 47
8, 12480, Note_on_c, 9, 38, 95
8, 12960, Note_off_c, 9, 38, 95
8, 12960, Note_on_c, 9, 43, 95
8, 13440, Note_off_c, 9, 43, 95
8, 13440, Note_on_c, 9, 45, 95
8, 13920, Note_off_c, 9, 45, 95
8, 13920, Note_on_c, 9, 55, 95
8, 13920, Note_on_c, 9, 36, 95
8, 14400, Note_off_c, 9, 55, 95
8, 14400, Note_off_c, 9, 36, 95
8, 14400, Note_on_c, 9, 38, 95
8, 14520, Note_off_c, 9, 38, 95
8, 14520, Note_on_c, 9, 45, 95
8, 14640, Note_off_c, 9, 45, 95
8, 14640, Note_on_c, 9, 47, 95
8, 14760, Note_off_c, 9, 47, 95
8, 14760, Note_on_c, 9, 48, 95
8, 14880, Note_off_c, 9, 48, 95
8, 14880, Note_on_c, 9, 49, 95
8, 15360, Note_off_c, 9, 49, 95
8, 15360, Note_on_c, 9, 49, 95
8, 15840, Note_off_c, 9, 49, 95
8, 15840, Note_on_c, 9, 49, 95
8, 15840, Note_on_c, 9, 38, 95
8, 16320, Note_off_c, 9, 49, 95
8, 16320, Note_off_c, 9, 38, 95
8, 16320, Note_on_c, 9, 49, 95
8, 16800, Note_off_c, 9, 49, 95
8, 16800, Note_on_c, 9, 49, 95
8, 17280, Note_off_c, 9, 49, 95
8, 17280, Note_on_c, 9, 42, 47
8, 18240, Note_off_c, 9, 42, 47
8, 18240, Note_on_c, 9, 38, 95
8, 18720, Note_off_c, 9, 38, 95
8, 18720, Note_on_c, 9, 43, 95
8, 19200, Note_off_c, 9, 43, 95
8, 19200, Note_on_c, 9, 45, 95
8, 19680, Note_off_c, 9, 45, 95
8, 19680, Note_on_c, 9, 55, 95
8, 19680, Note_on_c, 9, 36, 95
8, 20160, Note_off_c, 9, 55, 95
8, 20160, Note_off_c, 9, 36, 95
8, 20160, Note_on_c, 9, 38, 95
8, 20280, Note_off_c, 9, 38, 95
8, 20280, Note_on_c, 9, 45, 95
8, 20400, Note_off_c, 9, 45, 95
8, 20400, Note_on_c, 9, 47, 95
8, 20520, Note_off_c, 9, 47, 95
8, 20520, Note_on_c, 9, 48, 95
8, 20640, Note_off_c, 9, 48, 95
8, 20640, Note_on_c, 9, 49, 95
8, 21120, Note_off_c, 9, 49, 95
8, 21120, Note_on_c, 9, 49, 95
8, 21600, Note_off_c, 9, 49, 95
8, 21600, Note_on_c, 9, 49, 95
8, 21600, Note_on_c, 9, 38, 95
8, 22080, Note_off_c, 9, 49, 95
8, 22080, Note_off_c, 9, 38, 95
8, 22080, Note_on_c, 9, 49, 95
8, 22560, Note_off_c, 9, 49, 95
8, 22560, Note_on_c, 9, 49, 95
8, 22560, Note_on_c, 9, 36, 95
8, 23040, Note_off_c, 9, 49, 95
8, 23040, Note_off_c, 9, 36, 95
8, 23040, Note_on_c, 9, 42, 47
8, 24000, Note_off_c, 9, 42, 47
8, 24000, Note_on_c, 9, 38, 95
8, 24480, Note_off_c, 9, 38, 95
8, 24480, Note_on_c, 9, 43, 95
8, 24960, Note_off_c, 9, 43, 95
8, 24960, Note_on_c, 9, 45, 95
8, 25440, Note_off_c, 9, 45, 95
8, 25440, Note_on_c, 9, 55, 95
8, 25440, Note_on_c, 9, 36, 95
8, 25920, Note_off_c, 9, 55, 95
8, 25920, Note_off_c, 9, 36, 95
8, 25920, Note_on_c, 9, 38, 95
8, 26040, Note_off_c, 9, 38, 95
8, 26040, Note_on_c, 9, 45, 95
8, 26160, Note_off_c, 9, 45, 95
8, 26160, Note_on_c, 9, 47, 95
8, 26280, Note_off_c, 9, 47, 95
8, 26280, Note_on_c, 9, 48, 95
8, 26400, Note_off_c, 9, 48, 95
8, 26400, Note_on_c, 9, 49, 95
8, 26880, Note_off_c, 9, 49, 95
8, 26880, Note_on_c, 9, 49, 95
8, 27360, Note_off_c, 9, 49, 95
8, 27360, Note_on_c, 9, 49, 95
8, 27360, Note_on_c, 9, 38, 95
8, 27840, Note_off_c, 9, 49, 95
8, 27840, Note_off_c, 9, 38, 95
8, 27840, Note_on_c, 9, 49, 95
8, 27840, Note_on_c, 9, 38, 95
8, 27960, Note_off_c, 9, 49, 95
8, 27960, Note_off_c, 9, 38, 95
8, 27960, Note_on_c, 9, 45, 95
8, 28080, Note_off_c, 9, 45, 95
8, 28080, Note_on_c, 9, 47, 95
8, 28200, Note_off_c, 9, 47, 95
8, 28200, Note_on_c, 9, 48, 95
8, 28320, Note_off_c, 9, 48, 95
8, 28320, Note_on_c, 9, 49, 95
8, 28320, Note_on_c, 9, 36, 95
8, 28800, Note_off_c, 9, 49, 95
8, 28800, Note_off_c, 9, 36, 95
8, 28800, Note_on_c, 9, 42, 47
8, 29760, Note_off_c, 9, 42, 47
8, 29760, Note_on_c, 9, 38, 95
8, 30240, Note_off_c, 9, 38, 95
8, 30240, Note_on_c, 9, 43, 95
8, 30720, Note_off_c, 9, 43, 95
8, 30720, Note_on_c, 9, 45, 95
8, 31200, Note_off_c, 9, 45, 95
8, 31200, Note_on_c, 9, 55, 95
8, 31200, Note_on_c, 9, 36, 95
8, 31680, Note_off_c, 9, 55, 95
8, 31680, Note_off_c, 9, 36, 95
8, 31680, Note_on_c, 9, 38, 95
8, 31800, Note_off_c, 9, 38, 95
8, 31800, Note_on_c, 9, 45, 95
8, 31920, Note_off_c, 9, 45, 95
8, 31920, Note_on_c, 9, 47, 95
8, 32040, Note_off_c, 9, 47, 95
8, 32040, Note_on_c, 9, 48, 95
8, 32160, Note_off_c, 9, 48, 95
8, 32160, Note_on_c, 9, 49, 95
8, 32640, Note_off_c, 9, 49, 95
8, 32640, Note_on_c, 9, 49, 95
8, 33120, Note_off_c, 9, 49, 95
8, 33120, Note_on_c, 9, 49, 95
8, 33120, Note_on_c, 9, 38, 95
8, 33600, Note_off_c, 9, 49, 95
8, 33600, Note_off_c, 9, 38, 95
8, 33600, Note_on_c, 9, 49, 95
8, 34080, Note_off_c, 9, 49, 95
8, 34080, Note_on_c, 9, 49, 95
8, 34080, Note_on_c, 9, 36, 95
8, 34560, Note_off_c, 9, 49, 95
8, 34560, Note_off_c, 9, 36, 95
8, 34560, Note_on_c, 9, 42, 47
8, 35520, Note_off_c, 9, 42, 47
8, 35520, Note_on_c, 9, 38, 95
8, 36000, Note_off_c, 9, 38, 95
8, 36000, Note_on_c, 9, 43, 95
8, 36480, Note_off_c, 9, 43, 95
8, 36480, Note_on_c, 9, 45, 95
8, 36960, Note_off_c, 9, 45, 95
8, 36960, Note_on_c, 9, 55, 95
8, 36960, Note_on_c, 9, 36, 95
8, 37440, Note_off_c, 9, 55, 95
8, 37440, Note_off_c, 9, 36, 95
8, 37440, Note_on_c, 9, 38, 95
8, 37560, Note_off_c, 9, 38, 95
8, 37560, Note_on_c, 9, 45, 95
8, 37680, Note_off_c, 9, 45, 95
8, 37680, Note_on_c, 9, 47, 95
8, 37800, Note_off_c, 9, 47, 95
8, 37800, Note_on_c, 9, 48, 95
8, 37920, Note_off_c, 9, 48, 95
8, 37920, Note_on_c, 9, 49, 95
8, 38400, Note_off_c, 9, 49, 95
8, 38400, Note_on_c, 9, 49, 95
8, 38880, Note_off_c, 9, 49, 95
8, 38880, Note_on_c, 9, 49, 95
8, 38880, Note_on_c, 9, 38, 95
8, 39360, Note_off_c, 9, 49, 95
8, 39360, Note_off_c, 9, 38, 95
8, 39360, Note_on_c, 9, 49, 95
8, 39360, Note_on_c, 9, 38, 95
8, 39480, Note_off_c, 9, 49, 95
8, 39480, Note_off_c, 9, 38, 95
8, 39480, Note_on_c, 9, 45, 95
8, 39600, Note_off_c, 9, 45, 95
8, 39600, Note_on_c, 9, 47, 95
8, 39720, Note_off_c, 9, 47, 95
8, 39720, Note_on_c, 9, 48, 95
8, 39840, Note_off_c, 9, 48, 95
8, 39840, Note_on_c, 9, 49, 95
8, 39840, Note_on_c, 9, 36, 95
8, 40320, Note_off_c, 9, 49, 95
8, 40320, Note_off_c, 9, 36, 95
8, 40320, Note_on_c, 9, 42, 47
8, 41280, Note_off_c, 9, 42, 47
8, 41280, Note_on_c, 9, 38, 95
8, 41760, Note_off_c, 9, 38, 95
8, 41760, Note_on_c, 9, 43, 95
8, 42240, Note_off_c, 9, 43, 95
8, 42240, Note_on_c, 9, 45, 95
8, 42720, Note_off_c, 9, 45, 95
8, 42720, Note_on_c, 9, 55, 95
8, 42720, Note_on_c, 9, 36, 95
8, 43200, Note_off_c, 9, 55, 95
8, 43200, Note_off_c, 9, 36, 95
8, 43200, Note_on_c, 9, 38, 95
8, 43320, Note_off_c, 9, 38, 95
8, 43320, Note_on_c, 9, 45, 95
8, 43440, Note_off_c, 9, 45, 95
8, 43440, Note_on_c, 9, 47, 95
8, 43560, Note_off_c, 9, 47, 95
8, 43560, Note_on_c, 9, 48, 95
8, 43680, Note_off_c, 9, 48, 95
8, 43680, Note_on_c, 9, 49, 95
8, 44160, Note_off_c, 9, 49, 95
8, 44160, Note_on_c, 9, 49, 95
8, 44640, Note_off_c, 9, 49, 95
8, 44640, Note_on_c, 9, 49, 95
8, 44640, Note_on_c, 9, 38, 95
8, 45120, Note_off_c, 9, 49, 95
8, 45120, Note_off_c, 9, 38, 95
8, 45120, Note_on_c, 9, 49, 95
8, 45600, Note_off_c, 9, 49, 95
8, 45600, Note_on_c, 9, 49, 95
8, 45600, Note_on_c, 9, 36, 95
8, 46080, Note_off_c, 9, 49, 95
8, 46080, Note_off_c, 9, 36, 95
8, 46080, Note_on_c, 9, 42, 47
8, 47040, Note_off_c, 9, 42, 47
8, 47040, Note_on_c, 9, 38, 95
8, 47520, Note_off_c, 9, 38, 95
8, 47520, Note_on_c, 9, 43, 95
8, 48000, Note_off_c, 9, 43, 95
8, 48000, Note_on_c, 9, 45, 95
8, 48480, Note_off_c, 9, 45, 95
8, 48480, Note_on_c, 9, 55, 95
8, 48480, Note_on_c, 9, 36, 95
8, 48960, Note_off_c, 9, 55, 95
8, 48960, Note_off_c, 9, 36, 95
8, 48960, Note_on_c, 9, 38, 95
8, 49080, Note_off_c, 9, 38, 95
8, 49080, Note_on_c, 9, 45, 95
8, 49200, Note_off_c, 9, 45, 95
8, 49200, Note_on_c, 9, 47, 95
8, 49320, Note_off_c, 9, 47, 95
8, 49320, Note_on_c, 9, 48, 95
8, 49440, Note_off_c, 9, 48, 95
8, 49440, Note_on_c, 9, 49, 95
8, 49920, Note_off_c, 9, 49, 95
8, 49920, Note_on_c, 9, 49, 95
8, 50400, Note_off_c, 9, 49, 95
8, 50400, Note_on_c, 9, 49, 95
8, 50400, Note_on_c, 9, 38, 95
8, 50880, Note_off_c, 9, 49, 95
8, 50880, Note_off_c, 9, 38, 95
8, 50880, Note_on_c, 9, 49, 95
8, 50880, Note_on_c, 9, 38, 95
8, 51000, Note_off_c, 9, 49, 95
8, 51000, Note_off_c, 9, 38, 95
8, 51000, Note_on_c, 9, 45, 95
8, 51120, Note_off_c, 9, 45, 95
8, 51120, Note_on_c, 9, 47, 95
8, 51240, Note_off_c, 9, 47, 95
8, 51240, Note_on_c, 9, 48, 95
8, 51360, Note_off_c, 9, 48, 95
8, 51360, Note_on_c, 9, 49, 95
8, 51360, Note_on_c, 9, 36, 95
8, 51840, Note_off_c, 9, 49, 95
8, 51840, Note_off_c, 9, 36, 95
8, 51840, Note_on_c, 9, 42, 47
8, 52800, Note_off_c, 9, 42, 47
8, 52800, Note_on_c, 9, 38, 95
8, 53280, Note_off_c, 9, 38, 95
8, 53280, Note_on_c, 9, 43, 95
8, 53760, Note_off_c, 9, 43, 95
8, 53760, Note_on_c, 9, 45, 95
8, 54240, Note_off_c, 9, 45, 95
8, 54240, Note_on_c, 9, 55, 95
8, 54240, Note_on_c, 9, 36, 95
8, 54720, Note_off_c, 9, 55, 95
8, 54720, Note_off_c, 9, 36, 95
8, 54720, Note_on_c, 9, 38, 95
8, 54840, Note_off_c, 9, 38, 95
8, 54840, Note_on_c, 9, 45, 95
8, 54960, Note_off_c, 9, 45, 95
8, 54960, Note_on_c, 9, 47, 95
8, 55080, Note_off_c, 9, 47, 95
8, 55080, Note_on_c, 9, 48, 95
8, 55200, Note_off_c, 9, 48, 95
8, 55200, Note_on_c, 9, 49, 95
8, 55680, Note_off_c, 9, 49, 95
8, 55680, Note_on_c, 9, 49, 95
8, 56160, Note_off_c, 9, 49, 95
8, 56160, Note_on_c, 9, 49, 95
8, 56160, Note_on_c, 9, 38, 95
8, 56640, Note_off_c, 9, 49, 95
8, 56640, Note_off_c, 9, 38, 95
8, 56640, Note_on_c, 9, 49, 95
8, 57120, Note_off_c, 9, 49, 95
8, 57120, Note_on_c, 9, 49, 95
8, 57120, Note_on_c, 9, 36, 95
8, 57600, Note_off_c, 9, 49, 95
8, 57600, Note_off_c, 9, 36, 95
8, 57600, Note_on_c, 9, 42, 47
8, 58560, Note_off_c, 9, 42, 47
8, 58560, Note_on_c, 9, 38, 95
8, 59040, Note_off_c, 9, 38, 95
8, 59040, Note_on_c, 9, 43, 95
8, 59520, Note_off_c, 9, 43, 95
8, 59520, Note_on_c, 9, 45, 95
8, 60000, Note_off_c, 9, 45, 95
8, 60000, Note_on_c, 9, 55, 95
8, 60000, Note_on_c, 9, 36, 95
8, 60480, Note_off_c, 9, 55, 95
8, 60480, Note_off_c, 9, 36, 95
8, 60480, Note_on_c, 9, 38, 95
8, 60600, Note_off_c, 9, 38, 95
8, 60600, Note_on_c, 9, 45, 95
8, 60720, Note_off_c, 9, 45, 95
8, 60720, Note_on_c, 9, 47, 95
8, 60840, Note_off_c, 9, 47, 95
8, 60840, Note_on_c, 9, 48, 95
8, 60960, Note_off_c, 9, 48, 95
8, 60960, Note_on_c, 9, 55, 95
8, 60960, Note_on_c, 9, 38, 95
8, 61080, Note_off_c, 9, 55, 95
8, 61080, Note_off_c, 9, 38, 95
8, 61080, Note_on_c, 9, 45, 95
8, 61200, Note_off_c, 9, 45, 95
8, 61200, Note_on_c, 9, 47, 95
8, 61320, Note_off_c, 9, 47, 95
8, 61320, Note_on_c, 9, 48, 95
8, 61440, Note_off_c, 9, 48, 95
8, 61440, Note_on_c, 9, 38, 95
8, 61560, Note_off_c, 9, 38, 95
8, 61560, Note_on_c, 9, 45, 95
8, 61680, Note_off_c, 9, 45, 95
8, 61680, Note_on_c, 9, 47, 95
8, 61800, Note_off_c, 9, 47, 95
8, 61800, Note_on_c, 9, 48, 95
8, 61920, Note_off_c, 9, 48, 95
8, 61920, Note_on_c, 9, 55, 95
8, 61920, Note_on_c, 9, 38, 95
8, 62040, Note_off_c, 9, 55, 95
8, 62040, Note_off_c, 9, 38, 95
8, 62040, Note_on_c, 9, 45, 95
8, 62160, Note_off_c, 9, 45, 95
8, 62160, Note_on_c, 9, 47, 95
8, 62280, Note_off_c, 9, 47, 95
8, 62280, Note_on_c, 9, 48, 95
8, 62400, Note_off_c, 9, 48, 95
8, 62400, Note_on_c, 9, 38, 95
8, 62520, Note_off_c, 9, 38, 95
8, 62520, Note_on_c, 9, 45, 95
8, 62640, Note_off_c, 9, 45, 95
8, 62640, Note_on_c, 9, 47, 95
8, 62760, Note_off_c, 9, 47, 95
8, 62760, Note_on_c, 9, 48, 95
8, 62880, Note_off_c, 9, 48, 95
8, 62880, Note_on_c, 9, 38, 95
8, 63360, Note_off_c, 9, 38, 95
8, 63360, Note_on_c, 9, 36, 95
8, 64320, Note_off_c, 9, 36, 95
8, 64320, Note_on_c, 9, 55, 95
8, 64320, Note_on_c, 9, 38, 95
8, 64800, Note_off_c, 9, 55, 95
8, 64800, Note_off_c, 9, 38, 95
8, 64800, Note_on_c, 9, 44, 95
8, 64800, Note_on_c, 9, 43, 95
8, 65280, Note_off_c, 9, 44, 95
8, 65280, Note_off_c, 9, 43, 95
8, 65280, Note_on_c, 9, 44, 95
8, 65760, Note_off_c, 9, 44, 95
8, 65760, Note_on_c, 9, 44, 95
8, 65760, Note_on_c, 9, 43, 95
8, 66240, Note_off_c, 9, 44, 95
8, 66240, Note_off_c, 9, 43, 95
8, 66240, Note_on_c, 9, 49, 95
8, 66240, Note_on_c, 9, 36, 95
8, 67200, Note_off_c, 9, 49, 95
8, 67200, Note_off_c, 9, 36, 95
8, 67200, Note_on_c, 9, 55, 95
8, 67200, Note_on_c, 9, 38, 95
8, 67680, Note_off_c, 9, 55, 95
8, 67680, Note_off_c, 9, 38, 95
8, 67680, Note_on_c, 9, 44, 95
8, 67680, Note_on_c, 9, 43, 95
8, 68160, Note_off_c, 9, 44, 95
8, 68160, Note_off_c, 9, 43, 95
8, 68160, Note_on_c, 9, 44, 95
8, 68640, Note_off_c, 9, 44, 95
8, 68640, Note_on_c, 9, 44, 95
8, 68640, Note_on_c, 9, 43, 95
8, 69120, Note_off_c, 9, 44, 95
8, 69120, Note_off_c, 9, 43, 95
8, 69120, Note_on_c, 9, 36, 95
8, 70080, Note_off_c, 9, 36, 95
8, 70080, Note_on_c, 9, 55, 95
8, 70080, Note_on_c, 9, 38, 95
8, 70560, Note_off_c, 9, 55, 95
8, 70560, Note_off_c, 9, 38, 95
8, 70560, Note_on_c, 9, 44, 95
8, 70560, Note_on_c, 9, 43, 95
8, 71040, Note_off_c, 9, 44, 95
8, 71040, Note_off_c, 9, 43, 95
8, 71040, Note_on_c, 9, 44, 95
8, 71520, Note_off_c, 9, 44, 95
8, 71520, Note_on_c, 9, 44, 95
8, 71520, Note_on_c, 9, 43, 95
8, 72000, Note_off_c, 9, 44, 95
8, 72000, Note_off_c, 9, 43, 95
8, 72000, Note_on_c, 9, 49, 95
8, 72000, Note_on_c, 9, 36, 95
8, 72960, Note_off_c, 9, 49, 95
8, 72960, Note_off_c, 9, 36, 95
8, 72960, Note_on_c, 9, 55, 95
8, 72960, Note_on_c, 9, 38, 95
8, 73440, Note_off_c, 9, 55, 95
8, 73440, Note_off_c, 9, 38, 95
8, 73440, Note_on_c, 9, 44, 95
8, 73440, Note_on_c, 9, 43, 95
8, 73920, Note_off_c, 9, 44, 95
8, 73920, Note_off_c, 9, 43, 95
8, 73920, Note_on_c, 9, 44, 95
8, 74400, Note_off_c, 9, 44, 95
8, 74400, Note_on_c, 9, 44, 95
8, 74400, Note_on_c, 9, 43, 95
8, 74880, Note_off_c, 9, 44, 95
8, 74880, Note_off_c, 9, 43, 95
8, 74880, Note_on_c, 9, 36, 95
8, 75840, Note_off_c, 9, 36, 95
8, 75840, Note_on_c, 9, 55, 95
8, 75840, Note_on_c, 9, 38, 95
8, 76320, Note_off_c, 9, 55, 95
8, 76320, Note_off_c, 9, 38, 95
8, 76320, Note_on_c, 9, 44, 95
8, 76320, Note_on_c, 9, 43, 95
8, 76800, Note_off_c, 9, 44, 95
8, 76800, Note_off_c, 9, 43, 95
8, 76800, Note_on_c, 9, 44, 95
8, 77280, Note_off_c, 9, 44, 95
8, 77280, Note_on_c, 9, 44, 95
8, 77280, Note_on_c, 9, 43, 95
8, 77760, Note_off_c, 9, 44, 95
8, 77760, Note_off_c, 9, 43, 95
8, 77760, Note_on_c, 9, 49, 95
8, 77760, Note_on_c, 9, 36, 95
8, 78720, Note_off_c, 9, 49, 95
8, 78720, Note_off_c, 9, 36, 95
8, 78720, Note_on_c, 9, 55, 95
8, 78720, Note_on_c, 9, 38, 95
8, 79200, Note_off_c, 9, 55, 95
8, 79200, Note_off_c, 9, 38, 95
8, 79200, Note_on_c, 9, 44, 95
8, 79440, Note_off_c, 9, 44, 95
8, 79440, Note_on_c, 9, 44, 95
8, 79440, Note_on_c, 9, 43, 95
8, 79680, Note_off_c, 9, 44, 95
8, 79680, Note_off_c, 9, 43, 95
8, 79680, Note_on_c, 9, 44, 95
8, 79680, Note_on_c, 9, 45, 95
8, 79920, Note_off_c, 9, 44, 95
8, 79920, Note_off_c, 9, 45, 95
8, 79920, Note_on_c, 9, 44, 95
8, 79920, Note_on_c, 9, 43, 95
8, 80160, Note_off_c, 9, 44, 95
8, 80160, Note_off_c, 9, 43, 95
8, 80160, Note_on_c, 9, 44, 95
8, 80160, Note_on_c, 9, 45, 95
8, 80400, Note_off_c, 9, 44, 95
8, 80400, Note_off_c, 9, 45, 95
8, 80400, Note_on_c, 9, 44, 95
8, 80400, Note_on_c, 9, 43, 95
8, 80640, Note_off_c, 9, 44, 95
8, 80640, Note_off_c, 9, 43, 95
8, 80640, Note_on_c, 9, 36, 95
8, 82080, Note_off_c, 9, 36, 95
8, 82080, Note_on_c, 9, 44, 95
8, 82080, Note_on_c, 9, 43, 95
8, 82560, Note_off_c, 9, 44, 95
8, 82560, Note_off_c, 9, 43, 95
8, 82560, Note_on_c, 9, 44, 95
8, 83040, Note_off_c, 9, 44, 95
8, 83040, Note_on_c, 9, 44, 95
8, 83040, Note_on_c, 9, 43, 95
8, 83520, Note_off_c, 9, 44, 95
8, 83520, Note_off_c, 9, 43, 95
8, 83520, Note_on_c, 9, 42, 47
8, 84480, Note_off_c, 9, 42, 47
8, 84480, Note_on_c, 9, 38, 95
8, 84960, Note_off_c, 9, 38, 95
8, 84960, Note_on_c, 9, 43, 95
8, 85440, Note_off_c, 9, 43, 95
8, 85440, Note_on_c, 9, 45, 95
8, 85920, Note_off_c, 9, 45, 95
8, 85920, Note_on_c, 9, 55, 95
8, 86400, Note_off_c, 9, 55, 95
8, 86400, Note_on_c, 9, 38, 95
8, 86520, Note_off_c, 9, 38, 95
8, 86520, Note_on_c, 9, 45, 95
8, 86640, Note_off_c, 9, 45, 95
8, 86640, Note_on_c, 9, 47, 95
8, 86760, Note_off_c, 9, 47, 95
8, 86760, Note_on_c, 9, 48, 95
8, 86880, Note_off_c, 9, 48, 95
8, 86880, Note_on_c, 9, 49, 95
8, 87360, Note_off_c, 9, 49, 95
8, 87360, Note_on_c, 9, 49, 95
8, 87840, Note_off_c, 9, 49, 95
8, 87840, Note_on_c, 9, 49, 95
8, 87840, Note_on_c, 9, 38, 95
8, 88320, Note_off_c, 9, 49, 95
8, 88320, Note_off_c, 9, 38, 95
8, 88320, Note_on_c, 9, 49, 95
8, 88800, Note_off_c, 9, 49, 95
8, 88800, Note_on_c, 9, 49, 95
8, 89280, Note_off_c, 9, 49, 95
8, 89280, Note_on_c, 9, 42, 47
8, 90240, Note_off_c, 9, 42, 47
8, 90240, Note_on_c, 9, 38, 95
8, 90720, Note_off_c, 9, 38, 95
8, 90720, Note_on_c, 9, 43, 95
8, 91200, Note_off_c, 9, 43, 95
8, 91200, Note_on_c, 9, 45, 95
8, 91680, Note_off_c, 9, 45, 95
8, 91680, Note_on_c, 9, 55, 95
8, 91680, Note_on_c, 9, 36, 95
8, 92160, Note_off_c, 9, 55, 95
8, 92160, Note_off_c, 9, 36, 95
8, 92160, Note_on_c, 9, 38, 95
8, 92280, Note_off_c, 9, 38, 95
8, 92280, Note_on_c, 9, 45, 95
8, 92400, Note_off_c, 9, 45, 95
8, 92400, Note_on_c, 9, 47, 95
8, 92520, Note_off_c, 9, 47, 95
8, 92520, Note_on_c, 9, 48, 95
8, 92640, Note_off_c, 9, 48, 95
8, 92640, Note_on_c, 9, 49, 95
8, 93120, Note_off_c, 9, 49, 95
8, 93120, Note_on_c, 9, 49, 95
8, 93600, Note_off_c, 9, 49, 95
8, 93600, Note_on_c, 9, 49, 95
8, 93600, Note_on_c, 9, 38, 95
8, 94080, Note_off_c, 9, 49, 95
8, 94080, Note_off_c, 9, 38, 95
8, 94080, Note_on_c, 9, 49, 95
8, 94080, Note_on_c, 9, 38, 95
8, 94200, Note_off_c, 9, 49, 95
8, 94200, Note_off_c, 9, 38, 95
8, 94200, Note_on_c, 9, 45, 95
8, 94320, Note_off_c, 9, 45, 95
8, 94320, Note_on_c, 9, 47, 95
8, 94440, Note_off_c, 9, 47, 95
8, 94440, Note_on_c, 9, 48, 95
8, 94560, Note_off_c, 9, 48, 95
8, 94560, Note_on_c, 9, 49, 95
8, 94560, Note_on_c, 9, 36, 95
8, 95040, Note_off_c, 9, 49, 95
8, 95040, Note_off_c, 9, 36, 95
8, 95040, Note_on_c, 9, 42, 47
8, 96000, Note_off_c, 9, 42, 47
8, 96000, Note_on_c, 9, 38, 95
8, 96480, Note_off_c, 9, 38, 95
8, 96480, Note_on_c, 9, 43, 95
8, 96960, Note_off_c, 9, 43, 95
8, 96960, Note_on_c, 9, 45, 95
8, 97440, Note_off_c, 9, 45, 95
8, 97440, Note_on_c, 9, 55, 95
8, 97440, Note_on_c, 9, 36, 95
8, 97920, Note_off_c, 9, 55, 95
8, 97920, Note_off_c, 9, 36, 95
8, 97920, Note_on_c, 9, 38, 95
8, 98040, Note_off_c, 9, 38, 95
8, 98040, Note_on_c, 9, 45, 95
8, 98160, Note_off_c, 9, 45, 95
8, 98160, Note_on_c, 9, 47, 95
8, 98280, Note_off_c, 9, 47, 95
8, 98280, Note_on_c, 9, 48, 95
8, 98400, Note_off_c, 9, 48, 95
8, 98400, Note_on_c, 9, 49, 95
8, 98880, Note_off_c, 9, 49, 95
8, 98880, Note_on_c, 9, 49, 95
8, 99360, Note_off_c, 9, 49, 95
8, 99360, Note_on_c, 9, 49, 95
8, 99360, Note_on_c, 9, 38, 95
8, 99840, Note_off_c, 9, 49, 95
8, 99840, Note_off_c, 9, 38, 95
8, 99840, Note_on_c, 9, 49, 95
8, 100320, Note_off_c, 9, 49, 95
8, 100320, Note_on_c, 9, 49, 95
8, 100320, Note_on_c, 9, 36, 95
8, 100800, Note_off_c, 9, 49, 95
8, 100800, Note_off_c, 9, 36, 95
8, 100800, Note_on_c, 9, 42, 47
8, 101760, Note_off_c, 9, 42, 47
8, 101760, Note_on_c, 9, 38, 95
8, 102240, Note_off_c, 9, 38, 95
8, 102240, Note_on_c, 9, 43, 95
8, 102720, Note_off_c, 9, 43, 95
8, 102720, Note_on_c, 9, 45, 95
8, 103200, Note_off_c, 9, 45, 95
8, 103200, Note_on_c, 9, 55, 95
8, 103200, Note_on_c, 9, 36, 95
8, 103680, Note_off_c, 9, 55, 95
8, 103680, Note_off_c, 9, 36, 95
8, 103680, Note_on_c, 9, 38, 95
8, 103800, Note_off_c, 9, 38, 95
8, 103800, Note_on_c, 9, 45, 95
8, 103920, Note_off_c, 9, 45, 95
8, 103920, Note_on_c, 9, 47, 95
8, 104040, Note_off_c, 9, 47, 95
8, 104040, Note_on_c, 9, 48, 95
8, 104160, Note_off_c, 9, 48, 95
8, 104160, Note_on_c, 9, 49, 95
8, 104640, Note_off_c, 9, 49, 95
8, 104640, Note_on_c, 9, 49, 95
8, 105120, Note_off_c, 9, 49, 95
8, 105120, Note_on_c, 9, 49, 95
8, 105120, Note_on_c, 9, 38, 95
8, 105600, Note_off_c, 9, 49, 95
8, 105600, Note_off_c, 9, 38, 95
8, 105600, Note_on_c, 9, 49, 95
8, 105600, Note_on_c, 9, 38, 95
8, 105720, Note_off_c, 9, 49, 95
8, 105720, Note_off_c, 9, 38, 95
8, 105720, Note_on_c, 9, 45, 95
8, 105840, Note_off_c, 9, 45, 95
8, 105840, Note_on_c, 9, 47, 95
8, 105960, Note_off_c, 9, 47, 95
8, 105960, Note_on_c, 9, 48, 95
8, 106080, Note_off_c, 9, 48, 95
8, 106080, Note_on_c, 9, 49, 95
8, 106080, Note_on_c, 9, 36, 95
8, 106560, Note_off_c, 9, 49, 95
8, 106560, Note_off_c, 9, 36, 95
8, 106560, Note_on_c, 9, 42, 47
8, 107520, Note_off_c, 9, 42, 47
8, 107520, Note_on_c, 9, 38, 95
8, 108000, Note_off_c, 9, 38, 95
8, 108000, Note_on_c, 9, 43, 95
8, 108480, Note_off_c, 9, 43, 95
8, 108480, Note_on_c, 9, 45, 95
8, 108960, Note_off_c, 9, 45, 95
8, 108960, Note_on_c, 9, 55, 95
8, 108960, Note_on_c, 9, 36, 95
8, 109440, Note_off_c, 9, 55, 95
8, 109440, Note_off_c, 9, 36, 95
8, 109440, Note_on_c, 9, 38, 95
8, 109560, Note_off_c, 9, 38, 95
8, 109560, Note_on_c, 9, 45, 95
8, 109680, Note_off_c, 9, 45, 95
8, 109680, Note_on_c, 9, 47, 95
8, 109800, Note_off_c, 9, 47, 95
8, 109800, Note_on_c, 9, 48, 95
8, 109920, Note_off_c, 9, 48, 95
8, 109920, Note_on_c, 9, 49, 95
8, 110400, Note_off_c, 9, 49, 95
8, 110400, Note_on_c, 9, 49, 95
8, 110880, Note_off_c, 9, 49, 95
8, 110880, Note_on_c, 9, 49, 95
8, 110880, Note_on_c, 9, 38, 95
8, 111360, Note_off_c, 9, 49, 95
8, 111360, Note_off_c, 9, 38, 95
8, 111360, Note_on_c, 9, 49, 95
8, 111840, Note_off_c, 9, 49, 95
8, 111840, Note_on_c, 9, 49, 95
8, 111840, Note_on_c, 9, 36, 95
8, 112320, Note_off_c, 9, 49, 95
8, 112320, Note_off_c, 9, 36, 95
8, 112320, Note_on_c, 9, 42, 47
8, 113280, Note_off_c, 9, 42, 47
8, 113280, Note_on_c, 9, 38, 95
8, 113760, Note_off_c, 9, 38, 95
8, 113760, Note_on_c, 9, 43, 95
8, 114240, Note_off_c, 9, 43, 95
8, 114240, Note_on_c, 9, 45, 95
8, 114720, Note_off_c, 9, 45, 95
8, 114720, Note_on_c, 9, 55, 95
8, 114720, Note_on_c, 9, 36, 95
8, 115200, Note_off_c, 9, 55, 95
8, 115200, Note_off_c, 9, 36, 95
8, 115200, Note_on_c, 9, 38, 95
8, 115320, Note_off_c, 9, 38, 95
8, 115320, Note_on_c, 9, 45, 95
8, 115440, Note_off_c, 9, 45, 95
8, 115440, Note_on_c, 9, 47, 95
8, 115560, Note_off_c, 9, 47, 95
8, 115560, Note_on_c, 9, 48, 95
8, 115680, Note_off_c, 9, 48, 95
8, 115680, Note_on_c, 9, 55, 95
8, 115680, Note_on_c, 9, 38, 95
8, 115800, Note_off_c, 9, 55, 95
8, 115800, Note_off_c, 9, 38, 95
8, 115800, Note_on_c, 9, 45, 95
8, 115920, Note_off_c, 9, 45, 95
8, 115920, Note_on_c, 9, 47, 95
8, 116040, Note_off_c, 9, 47, 95
8, 116040, Note_on_c, 9, 48, 95
8, 116160, Note_off_c, 9, 48, 95
8, 116160, Note_on_c, 9, 38, 95
8, 116280, Note_off_c, 9, 38, 95
8, 116280, Note_on_c, 9, 45, 95
8, 116400, Note_off_c, 9, 45, 95
8, 116400, Note_on_c, 9, 47, 95
8, 116520, Note_off_c, 9, 47, 95
8, 116520, Note_on_c, 9, 48, 95
8, 116640, Note_off_c, 9, 48, 95
8, 116640, Note_on_c, 9, 55, 95
8, 116640, Note_on_c, 9, 38, 95
8, 116760, Note_off_c, 9, 55, 95
8, 116760, Note_off_c, 9, 38, 95
8, 116760, Note_on_c, 9, 45, 95
8, 116880, Note_off_c, 9, 45, 95
8, 116880, Note_on_c, 9, 47, 95
8, 117000, Note_off_c, 9, 47, 95
8, 117000, Note_on_c, 9, 48, 95
8, 117120, Note_off_c, 9, 48, 95
8, 117120, Note_on_c, 9, 38, 95
8, 117240, Note_off_c, 9, 38, 95
8, 117240, Note_on_c, 9, 45, 95
8, 117360, Note_off_c, 9, 45, 95
8, 117360, Note_on_c, 9, 47, 95
8, 117480, Note_off_c, 9, 47, 95
8, 117480, Note_on_c, 9, 48, 95
8, 117600, Note_off_c, 9, 48, 95
8, 117600, Note_on_c, 9, 38, 95
8, 118080, Note_off_c, 9, 38, 95
8, 118080, Note_on_c, 9, 36, 95
8, 119040, Note_off_c, 9, 36, 95
8, 119040, Note_on_c, 9, 55, 95
8, 119040, Note_on_c, 9, 38, 95
8, 119520, Note_off_c, 9, 55, 95
8, 119520, Note_off_c, 9, 38, 95
8, 119520, Note_on_c, 9, 44, 95
8, 119520, Note_on_c, 9, 43, 95
8, 120000, Note_off_c, 9, 44, 95
8, 120000, Note_off_c, 9, 43, 95
8, 120000, Note_on_c, 9, 44, 95
8, 120480, Note_off_c, 9, 44, 95
8, 120480, Note_on_c, 9, 44, 95
8, 120480, Note_on_c, 9, 43, 95
8, 120960, Note_off_c, 9, 44, 95
8, 120960, Note_off_c, 9, 43, 95
8, 120960, Note_on_c, 9, 49, 95
8, 120960, Note_on_c, 9, 36, 95
8, 121920, Note_off_c, 9, 49, 95
8, 121920, Note_off_c, 9, 36, 95
8, 121920, Note_on_c, 9, 55, 95
8, 121920, Note_on_c, 9, 38, 95
8, 122400, Note_off_c, 9, 55, 95
8, 122400, Note_off_c, 9, 38, 95
8, 122400, Note_on_c, 9, 44, 95
8, 122400, Note_on_c, 9, 43, 95
8, 122880, Note_off_c, 9, 44, 95
8, 122880, Note_off_c, 9, 43, 95
8, 122880, Note_on_c, 9, 44, 95
8, 123360, Note_off_c, 9, 44, 95
8, 123360, Note_on_c, 9, 44, 95
8, 123360, Note_on_c, 9, 43, 95
8, 123840, Note_off_c, 9, 44, 95
8, 123840, Note_off_c, 9, 43, 95
8, 123840, Note_on_c, 9, 36, 95
8, 124800, Note_off_c, 9, 36, 95
8, 124800, Note_on_c, 9, 55, 95
8, 124800, Note_on_c, 9, 38, 95
8, 125280, Note_off_c, 9, 55, 95
8, 125280, Note_off_c, 9, 38, 95
8, 125280, Note_on_c, 9, 44, 95
8, 125280, Note_on_c, 9, 43, 95
8, 125760, Note_off_c, 9, 44, 95
8, 125760, Note_off_c, 9, 43, 95
8, 125760, Note_on_c, 9, 44, 95
8, 126240, Note_off_c, 9, 44, 95
8, 126240, Note_on_c, 9, 44, 95
8, 126240, Note_on_c, 9, 43, 95
8, 126720, Note_off_c, 9, 44, 95
8, 126720, Note_off_c, 9, 43, 95
8, 126720, Note_on_c, 9, 49, 95
8, 126720, Note_on_c, 9, 36, 95
8, 127680, Note_off_c, 9, 49, 95
8, 127680, Note_off_c, 9, 36, 95
8, 127680, Note_on_c, 9, 55, 95
8, 127680, Note_on_c, 9, 38, 95
8, 128160, Note_off_c, 9, 55, 95
8, 128160, Note_off_c, 9, 38, 95
8, 128160, Note_on_c, 9, 44, 95
8, 128160, Note_on_c, 9, 43, 95
8, 128640, Note_off_c, 9, 44, 95
8, 128640, Note_off_c, 9, 43, 95
8, 128640, Note_on_c, 9, 44, 95
8, 129120, Note_off_c, 9, 44, 95
8, 129120, Note_on_c, 9, 44, 95
8, 129120, Note_on_c, 9, 43, 95
8, 129600, Note_off_c, 9, 44, 95
8, 129600, Note_off_c, 9, 43, 95
8, 129600, Note_on_c, 9, 36, 95
8, 130560, Note_off_c, 9, 36, 95
8, 130560, Note_on_c, 9, 55, 95
8, 130560, Note_on_c, 9, 38, 95
8, 131040, Note_off_c, 9, 55, 95
8, 131040, Note_off_c, 9, 38, 95
8, 131040, Note_on_c, 9, 44, 95
8, 131040, Note_on_c, 9, 43, 95
8, 131520, Note_off_c, 9, 44, 95
8, 131520, Note_off_c, 9, 43, 95
8, 131520, Note_on_c, 9, 44, 95
8, 132000, Note_off_c, 9, 44, 95
8, 132000, Note_on_c, 9, 44, 95
8, 132000, Note_on_c, 9, 43, 95
8, 132480, Note_off_c, 9, 44, 95
8, 132480, Note_off_c, 9, 43, 95
8, 132480, Note_on_c, 9, 49, 95
8, 132480, Note_on_c, 9, 36, 95
8, 133440, Note_off_c, 9, 49, 95
8, 133440, Note_off_c, 9, 36, 95
8, 133440, Note_on_c, 9, 55, 95
8, 133440, Note_on_c, 9, 38, 95
8, 133920, Note_off_c, 9, 55, 95
8, 133920, Note_off_c, 9, 38, 95
8, 133920, Note_on_c, 9, 44, 95
8, 134160, Note_off_c, 9, 44, 95
8, 134160, Note_on_c, 9, 44, 95
8, 134160, Note_on_c, 9, 43, 95
8, 134400, Note_off_c, 9, 44, 95
8, 134400, Note_off_c, 9, 43, 95
8, 134400, Note_on_c, 9, 44, 95
8, 134400, Note_on_c, 9, 45, 95
8, 134640, Note_off_c, 9, 44, 95
8, 134640, Note_off_c, 9, 45, 95
8, 134640, Note_on_c, 9, 44, 95
8, 134640, Note_on_c, 9, 43, 95
8, 134880, Note_off_c, 9, 44, 95
8, 134880, Note_off_c, 9, 43, 95
8, 134880, Note_on_c, 9, 44, 95
8, 134880, Note_on_c, 9, 45, 95
8, 135120, Note_off_c, 9, 44, 95
8, 135120, Note_off_c, 9, 45, 95
8, 135120, Note_on_c, 9, 44, 95
8, 135120, Note_on_c, 9, 43, 95
8, 135360, Note_off_c, 9, 44, 95
8, 135360, Note_off_c, 9, 43, 95
8, 135360, Note_on_c, 9, 36, 95
8, 136800, Note_off_c, 9, 36, 95
8, 136800, Note_on_c, 9, 44, 95
8, 136800, Note_on_c, 9, 43, 95
8, 137280, Note_off_c, 9, 44, 95
8, 137280, Note_off_c, 9, 43, 95
8, 137280, Note_on_c, 9, 44, 95
8, 137760, Note_off_c, 9, 44, 95
8, 137760, Note_on_c, 9, 44, 95
8, 137760, Note_on_c, 9, 43, 95
8, 138240, Note_off_c, 9, 44, 95
8, 138240, Note_off_c, 9, 43, 95
8, 138240, Note_on_c, 9, 42, 47
8, 139200, Note_off_c, 9, 42, 47
8, 139200, Note_on_c, 9, 38, 95
8, 139680, Note_off_c, 9, 38, 95
8, 139680, Note_on_c, 9, 43, 95
8, 140160, Note_off_c, 9, 43, 95
8, 140160, Note_on_c, 9, 45, 95
8, 140640, Note_off_c, 9, 45, 95
8, 140640, Note_on_c, 9, 55, 95
8, 141120, Note_off_c, 9, 55, 95
8, 141120, Note_on_c, 9, 38, 95
8, 141240, Note_off_c, 9, 38, 95
8, 141240, Note_on_c, 9, 45, 95
8, 141360, Note_off_c, 9, 45, 95
8, 141360, Note_on_c, 9, 47, 95
8, 141480, Note_off_c, 9, 47, 95
8, 141480, Note_on_c, 9, 48, 95
8, 141600, Note_off_c, 9, 48, 95
8, 141600, Note_on_c, 9, 49, 95
8, 142080, Note_off_c, 9, 49, 95
8, 142080, Note_on_c, 9, 49, 95
8, 142560, Note_off_c, 9, 49, 95
8, 142560, Note_on_c, 9, 49, 95
8, 142560, Note_on_c, 9, 38, 95
8, 143040, Note_off_c, 9, 49, 95
8, 143040, Note_off_c, 9, 38, 95
8, 143040, Note_on_c, 9, 49, 95
8, 143520, Note_off_c, 9, 49, 95
8, 143520, Note_on_c, 9, 49, 95
8, 144000, Note_off_c, 9, 49, 95
8, 144000, Note_on_c, 9, 42, 47
8, 144960, Note_off_c, 9, 42, 47
8, 144960, Note_on_c, 9, 38, 95
8, 145440, Note_off_c, 9, 38, 95
8, 145440, Note_on_c, 9, 43, 95
8, 145920, Note_off_c, 9, 43, 95
8, 145920, Note_on_c, 9, 45, 95
8, 146400, Note_off_c, 9, 45, 95
8, 146400, Note_on_c, 9, 55, 95
8, 146400, Note_on_c, 9, 36, 95
8, 146880, Note_off_c, 9, 55, 95
8, 146880, Note_off_c, 9, 36, 95
8, 146880, Note_on_c, 9, 38, 95
8, 147000, Note_off_c, 9, 38, 95
8, 147000, Note_on_c, 9, 45, 95
8, 147120, Note_off_c, 9, 45, 95
8, 147120, Note_on_c, 9, 47, 95
8, 147240, Note_off_c, 9, 47, 95
8, 147240, Note_on_c, 9, 48, 95
8, 147360, Note_off_c, 9, 48, 95
8, 147360, Note_on_c, 9, 49, 95
8, 147840, Note_off_c, 9, 49, 95
8, 147840, Note_on_c, 9, 49, 95
8, 148320, Note_off_c, 9, 49, 95
8, 148320, Note_on_c, 9, 49, 95
8, 148320, Note_on_c, 9, 38, 95
8, 148800, Note_off_c, 9, 49, 95
8, 148800, Note_off_c, 9, 38, 95
8, 148800, Note_on_c, 9, 49, 95
8, 148800, Note_on_c, 9, 38, 95
8, 148920, Note_off_c, 9, 49, 95
8, 148920, Note_off_c, 9, 38, 95
8, 148920, Note_on_c, 9, 45, 95
8, 149040, Note_off_c, 9, 45, 95
8, 149040, Note_on_c, 9, 47, 95
8, 149160, Note_off_c, 9, 47, 95
8, 149160, Note_on_c, 9, 48, 95
8, 149280, Note_off_c, 9, 48, 95
8, 149280, Note_on_c, 9, 49, 95
8, 149280, Note_on_c, 9, 36, 95
8, 149760, Note_off_c, 9, 49, 95
8, 149760, Note_off_c, 9, 36, 95
8, 149760, Note_on_c, 9, 42, 47
8, 150720, Note_off_c, 9, 42, 47
8, 150720, Note_on_c, 9, 38, 95
8, 151200, Note_off_c, 9, 38, 95
8, 151200, Note_on_c, 9, 43, 95
8, 151680, Note_off_c, 9, 43, 95
8, 151680, Note_on_c, 9, 45, 95
8, 152160, Note_off_c, 9, 45, 95
8, 152160, Note_on_c, 9, 55, 95
8, 152160, Note_on_c, 9, 36, 95
8, 152640, Note_off_c, 9, 55, 95
8, 152640, Note_off_c, 9, 36, 95
8, 152640, Note_on_c, 9, 38, 95
8, 152760, Note_off_c, 9, 38, 95
8, 152760, Note_on_c, 9, 45, 95
8, 152880, Note_off_c, 9, 45, 95
8, 152880, Note_on_c, 9, 47, 95
8, 153000, Note_off_c, 9, 47, 95
8, 153000, Note_on_c, 9, 48, 95
8, 153120, Note_off_c, 9, 48, 95
8, 153120, Note_on_c, 9, 49, 95
8, 153600, Note_off_c, 9, 49, 95
8, 153600, Note_on_c, 9, 49, 95
8, 154080, Note_off_c, 9, 49, 95
8, 154080, Note_on_c, 9, 49, 95
8, 154080, Note_on_c, 9, 38, 95
8, 154560, Note_off_c, 9, 49, 95
8, 154560, Note_off_c, 9, 38, 95
8, 154560, Note_on_c, 9, 49, 95
8, 155040, Note_off_c, 9, 49, 95
8, 155040, Note_on_c, 9, 49, 95
8, 155040, Note_on_c, 9, 36, 95
8, 155520, Note_off_c, 9, 49, 95
8, 155520, Note_off_c, 9, 36, 95
8, 155520, Note_on_c, 9, 42, 47
8, 156480, Note_off_c, 9, 42, 47
8, 156480, Note_on_c, 9, 38, 95
8, 156960, Note_off_c, 9, 38, 95
8, 156960, Note_on_c, 9, 43, 95
8, 157440, Note_off_c, 9, 43, 95
8, 157440, Note_on_c, 9, 45, 95
8, 157920, Note_off_c, 9, 45, 95
8, 157920, Note_on_c, 9, 55, 95
8, 157920, Note_on_c, 9, 36, 95
8, 158400, Note_off_c, 9, 55, 95
8, 158400, Note_off_c, 9, 36, 95
8, 158400, Note_on_c, 9, 38, 95
8, 158520, Note_off_c, 9, 38, 95
8, 158520, Note_on_c, 9, 45, 95
8, 158640, Note_off_c, 9, 45, 95
8, 158640, Note_on_c, 9, 47, 95
8, 158760, Note_off_c, 9, 47, 95
8, 158760, Note_on_c, 9, 48, 95
8, 158880, Note_off_c, 9, 48, 95
8, 158880, Note_on_c, 9, 49, 95
8, 159360, Note_off_c, 9, 49, 95
8, 159360, Note_on_c, 9, 49, 95
8, 159840, Note_off_c, 9, 49, 95
8, 159840, Note_on_c, 9, 49, 95
8, 159840, Note_on_c, 9, 38, 95
8, 160320, Note_off_c, 9, 49, 95
8, 160320, Note_off_c, 9, 38, 95
8, 160320, Note_on_c, 9, 49, 95
8, 160320, Note_on_c, 9, 38, 95
8, 160440, Note_off_c, 9, 49, 95
8, 160440, Note_off_c, 9, 38, 95
8, 160440, Note_on_c, 9, 45, 95
8, 160560, Note_off_c, 9, 45, 95
8, 160560, Note_on_c, 9, 47, 95
8, 160680, Note_off_c, 9, 47, 95
8, 160680, Note_on_c, 9, 48, 95
8, 160800, Note_off_c, 9, 48, 95
8, 160800, Note_on_c, 9, 49, 95
8, 160800, Note_on_c, 9, 36, 95
8, 161280, Note_off_c, 9, 49, 95
8, 161280, Note_off_c, 9, 36, 95
8, 161280, Note_on_c, 9, 42, 47
8, 162240, Note_off_c, 9, 42, 47
8, 162240, Note_on_c, 9, 38, 95
8, 162720, Note_off_c, 9, 38, 95
8, 162720, Note_on_c, 9, 43, 95
8, 163200, Note_off_c, 9, 43, 95
8, 163200, Note_on_c, 9, 45, 95
8, 163680, Note_off_c, 9, 45, 95
8, 163680, Note_on_c, 9, 55, 95
8, 163680, Note_on_c, 9, 36, 95
8, 164160, Note_off_c, 9, 55, 95
8, 164160, Note_off_c, 9, 36, 95
8, 164160, Note_on_c, 9, 38, 95
8, 164280, Note_off_c, 9, 38, 95
8, 164280, Note_on_c, 9, 45, 95
8, 164400, Note_off_c, 9, 45, 95
8, 164400, Note_on_c, 9, 47, 95
8, 164520, Note_off_c, 9, 47, 95
8, 164520, Note_on_c, 9, 48, 95
8, 164640, Note_off_c, 9, 48, 95
8, 164640, Note_on_c, 9, 49, 95
8, 165120, Note_off_c, 9, 49, 95
8, 165120, Note_on_c, 9, 49, 95
8, 165600, Note_off_c, 9, 49, 95
8, 165600, Note_on_c, 9, 49, 95
8, 165600, Note_on_c, 9, 38, 95
8, 166080, Note_off_c, 9, 49, 95
8, 166080, Note_off_c, 9, 38, 95
8, 166080, Note_on_c, 9, 49, 95
8, 166560, Note_off_c, 9, 49, 95
8, 166560, Note_on_c, 9, 49, 95
8, 166560, Note_on_c, 9, 36, 95
8, 167040, Note_off_c, 9, 49, 95
8, 167040, Note_off_c, 9, 36, 95
8, 167040, Note_on_c, 9, 42, 47
8, 168000, Note_off_c, 9, 42, 47
8, 168000, Note_on_c, 9, 38, 95
8, 168480, Note_off_c, 9, 38, 95
8, 168480, Note_on_c, 9, 43, 95
8, 168960, Note_off_c, 9, 43, 95
8, 168960, Note_on_c, 9, 45, 95
8, 169440, Note_off_c, 9, 45, 95
8, 169440, Note_on_c, 9, 55, 95
8, 169440, Note_on_c, 9, 36, 95
8, 169920, Note_off_c, 9, 55, 95
8, 169920, Note_off_c, 9, 36, 95
8, 169920, Note_on_c, 9, 38, 95
8, 170040, Note_off_c, 9, 38, 95
8, 170040, Note_on_c, 9, 45, 95
8, 170160, Note_off_c, 9, 45, 95
8, 170160, Note_on_c, 9, 47, 95
8, 170280, Note_off_c, 9, 47, 95
8, 170280, Note_on_c, 9, 48, 95
8, 170400, Note_off_c, 9, 48, 95
8, 170400, Note_on_c, 9, 49, 95
8, 170880, Note_off_c, 9, 49, 95
8, 170880, Note_on_c, 9, 49, 95
8, 171360, Note_off_c, 9, 49, 95
8, 171360, Note_on_c, 9, 49, 95
8, 171360, Note_on_c, 9, 38, 95
8, 171840, Note_off_c, 9, 49, 95
8, 171840, Note_off_c, 9, 38, 95
8, 171840, Note_on_c, 9, 49, 95
8, 171840, Note_on_c, 9, 38, 95
8, 171960, Note_off_c, 9, 49, 95
8, 171960, Note_off_c, 9, 38, 95
8, 171960, Note_on_c, 9, 45, 95
8, 172080, Note_off_c, 9, 45, 95
8, 172080, Note_on_c, 9, 47, 95
8, 172200, Note_off_c, 9, 47, 95
8, 172200, Note_on_c, 9, 48, 95
8, 172320, Note_off_c, 9, 48, 95
8, 172320, Note_on_c, 9, 49, 95
8, 172320, Note_on_c, 9, 36, 95
8, 172800, Note_off_c, 9, 49, 95
8, 172800, Note_off_c, 9, 36, 95
8, 172800, Note_on_c, 9, 42, 47
8, 173760, Note_off_c, 9, 42, 47
8, 173760, Note_on_c, 9, 38, 95
8, 174240, Note_off_c, 9, 38, 95
8, 174240, Note_on_c, 9, 43, 95
8, 174720, Note_off_c, 9, 43, 95
8, 174720, Note_on_c, 9, 45, 95
8, 175200, Note_off_c, 9, 45, 95
8, 175200, Note_on_c, 9, 55, 95
8, 175200, Note_on_c, 9, 36, 95
8, 175680, Note_off_c, 9, 55, 95
8, 175680, Note_off_c, 9, 36, 95
8, 175680, Note_on_c, 9, 38, 95
8, 175800, Note_off_c, 9, 38, 95
8, 175800, Note_on_c, 9, 45, 95
8, 175920, Note_off_c, 9, 45, 95
8, 175920, Note_on_c, 9, 47, 95
8, 176040, Note_off_c, 9, 47, 95
8, 176040, Note_on_c, 9, 48, 95
8, 176160, Note_off_c, 9, 48, 95
8, 176160, Note_on_c, 9, 49, 95
8, 176640, Note_off_c, 9, 49, 95
8, 176640, Note_on_c, 9, 49, 95
8, 177120, Note_off_c, 9, 49, 95
8, 177120, Note_on_c, 9, 49, 95
8, 177120, Note_on_c, 9, 38, 95
8, 177600, Note_off_c, 9, 49, 95
8, 177600, Note_off_c, 9, 38, 95
8, 177600, Note_on_c, 9, 49, 95
8, 178080, Note_off_c, 9, 49, 95
8, 178080, Note_on_c, 9, 49, 95
8, 178080, Note_on_c, 9, 36, 95
8, 178560, Note_off_c, 9, 49, 95
8, 178560, Note_off_c, 9, 36, 95
8, 178560, Note_on_c, 9, 42, 47
8, 179520, Note_off_c, 9, 42, 47
8, 179520, Note_on_c, 9, 38, 95
8, 180000, Note_off_c, 9, 38, 95
8, 180000, Note_on_c, 9, 43, 95
8, 180480, Note_off_c, 9, 43, 95
8, 180480, Note_on_c, 9, 45, 95
8, 180960, Note_off_c, 9, 45, 95
8, 180960, Note_on_c, 9, 55, 95
8, 180960, Note_on_c, 9, 36, 95
8, 181440, Note_off_c, 9, 55, 95
8, 181440, Note_off_c, 9, 36, 95
8, 181440, Note_on_c, 9, 38, 95
8, 181560, Note_off_c, 9, 38, 95
8, 181560, Note_on_c, 9, 45, 95
8, 181680, Note_off_c, 9, 45, 95
8, 181680, Note_on_c, 9, 47, 95
8, 181800, Note_off_c, 9, 47, 95
8, 181800, Note_on_c, 9, 48, 95
8, 181920, Note_off_c, 9, 48, 95
8, 181920, Note_on_c, 9, 49, 95
8, 182400, Note_off_c, 9, 49, 95
8, 182400, Note_on_c, 9, 49, 95
8, 182880, Note_off_c, 9, 49, 95
8, 182880, Note_on_c, 9, 49, 95
8, 182880, Note_on_c, 9, 38, 95
8, 183360, Note_off_c, 9, 49, 95
8, 183360, Note_off_c, 9, 38, 95
8, 183360, Note_on_c, 9, 49, 95
8, 183360, Note_on_c, 9, 38, 95
8, 183480, Note_off_c, 9, 49, 95
8, 183480, Note_off_c, 9, 38, 95
8, 183480, Note_on_c, 9, 45, 95
8, 183600, Note_off_c, 9, 45, 95
8, 183600, Note_on_c, 9, 47, 95
8, 183720, Note_off_c, 9, 47, 95
8, 183720, Note_on_c, 9, 48, 95
8, 183840, Note_off_c, 9, 48, 95
8, 183840, Note_on_c, 9, 49, 95
8, 183840, Note_on_c, 9, 36, 95
8, 184320, Note_off_c, 9, 49, 95
8, 184320, Note_off_c, 9, 36, 95
8, 184320, Note_on_c, 9, 42, 47
8, 185280, Note_off_c, 9, 42, 47
8, 185280, Note_on_c, 9, 38, 95
8, 185760, Note_off_c, 9, 38, 95
8, 185760, Note_on_c, 9, 43, 95
8, 186240, Note_off_c, 9, 43, 95
8, 186240, Note_on_c, 9, 45, 95
8, 186720, Note_off_c, 9, 45, 95
8, 186720, Note_on_c, 9, 55, 95
8, 186720, Note_on_c, 9, 36, 95
8, 187200, Note_off_c, 9, 55, 95
8, 187200, Note_off_c, 9, 36, 95
8, 187200, Note_on_c, 9, 38, 95
8, 187320, Note_off_c, 9, 38, 95
8, 187320, Note_on_c, 9, 45, 95
8, 187440, Note_off_c, 9, 45, 95
8, 187440, Note_on_c, 9, 47, 95
8, 187560, Note_off_c, 9, 47, 95
8, 187560, Note_on_c, 9, 48, 95
8, 187680, Note_off_c, 9, 48, 95
8, 187680, Note_on_c, 9, 49, 95
8, 188160, Note_off_c, 9, 49, 95
8, 188160, Note_on_c, 9, 49, 95
8, 188640, Note_off_c, 9, 49, 95
8, 188640, Note_on_c, 9, 49, 95
8, 188640, Note_on_c, 9, 38, 95
8, 189120, Note_off_c, 9, 49, 95
8, 189120, Note_off_c, 9, 38, 95
8, 189120, Note_on_c, 9, 49, 95
8, 189600, Note_off_c, 9, 49, 95
8, 189600, Note_on_c, 9, 49, 95
8, 189600, Note_on_c, 9, 36, 95
8, 190080, Note_off_c, 9, 49, 95
8, 190080, Note_off_c, 9, 36, 95
8, 190080, Note_on_c, 9, 42, 47
8, 191040, Note_off_c, 9, 42, 47
8, 191040, Note_on_c, 9, 38, 95
8, 191520, Note_off_c, 9, 38, 95
8, 191520, Note_on_c, 9, 43, 95
8, 192000, Note_off_c, 9, 43, 95
8, 192000, Note_on_c, 9, 45, 95
8, 192480, Note_off_c, 9, 45, 95
8, 192480, Note_on_c, 9, 55, 95
8, 192480, Note_on_c, 9, 36, 95
8, 192960, Note_off_c, 9, 55, 95
8, 192960, Note_off_c, 9, 36, 95
8, 192960, Note_on_c, 9, 38, 95
8, 193080, Note_off_c, 9, 38, 95
8, 193080, Note_on_c, 9, 45, 95
8, 193200, Note_off_c, 9, 45, 95
8, 193200, Note_on_c, 9, 47, 95
8, 193320, Note_off_c, 9, 47, 95
8, 193320, Note_on_c, 9, 48, 95
8, 193440, Note_off_c, 9, 48, 95
8, 193440, Note_on_c, 9, 49, 95
8, 193920, Note_off_c, 9, 49, 95
8, 193920, Note_on_c, 9, 49, 95
8, 194400, Note_off_c, 9, 49, 95
8, 194400, Note_on_c, 9, 49, 95
8, 194400, Note_on_c, 9, 38, 95
8, 194880, Note_off_c, 9, 49, 95
8, 194880, Note_off_c, 9, 38, 95
8, 194880, Note_on_c, 9, 49, 95
8, 194880, Note_on_c, 9, 38, 95
8, 195000, Note_off_c, 9, 49, 95
8, 195000, Note_off_c, 9, 38, 95
8, 195000, Note_on_c, 9, 45, 95
8, 195120, Note_off_c, 9, 45, 95
8, 195120, Note_on_c, 9, 47, 95
8, 195240, Note_off_c, 9, 47, 95
8, 195240, Note_on_c, 9, 48, 95
8, 195360, Note_off_c, 9, 48, 95
8, 195360, Note_on_c, 9, 49, 95
8, 195360, Note_on_c, 9, 36, 95
8, 195840, Note_off_c, 9, 49, 95
8, 195840, Note_off_c, 9, 36, 95
8, 195840, Note_on_c, 9, 42, 47
8, 196800, Note_off_c, 9, 42, 47
8, 196800, Note_on_c, 9, 38, 95
8, 197280, Note_off_c, 9, 38, 95
8, 197280, Note_on_c, 9, 43, 95
8, 197760, Note_off_c, 9, 43, 95
8, 197760, Note_on_c, 9, 45, 95
8, 198240, Note_off_c, 9, 45, 95
8, 198240, Note_on_c, 9, 55, 95
8, 198240, Note_on_c, 9, 36, 95
8, 198720, Note_off_c, 9, 55, 95
8, 198720, Note_off_c, 9, 36, 95
8, 198720, Note_on_c, 9, 38, 95
8, 198840, Note_off_c, 9, 38, 95
8, 198840, Note_on_c, 9, 45, 95
8, 198960, Note_off_c, 9, 45, 95
8, 198960, Note_on_c, 9, 47, 95
8, 199080, Note_off_c, 9, 47, 95
8, 199080, Note_on_c, 9, 48, 95
8, 199200, Note_off_c, 9, 48, 95
8, 199200, Note_on_c, 9, 49, 95
8, 199680, Note_off_c, 9, 49, 95
8, 199680, Note_on_c, 9, 49, 95
8, 200160, Note_off_c, 9, 49, 95
8, 200160, Note_on_c, 9, 49, 95
8, 200160, Note_on_c, 9, 38, 95
8, 200640, Note_off_c, 9, 49, 95
8, 200640, Note_off_c, 9, 38, 95
8, 200640, Note_on_c, 9, 49, 95
8, 201120, Note_off_c, 9, 49, 95
8, 201120, Note_on_c, 9, 49, 95
8, 201120, Note_on_c, 9, 36, 95
8, 201600, Note_off_c, 9, 49, 95
8, 201600, Note_off_c, 9, 36, 95
8, 201600, Note_on_c, 9, 42, 47
8, 202560, Note_off_c, 9, 42, 47
8, 202560, Note_on_c, 9, 38, 95
8, 203040, Note_off_c, 9, 38, 95
8, 203040, Note_on_c, 9, 43, 95
8, 203520, Note_off_c, 9, 43, 95
8, 203520, Note_on_c, 9, 45, 95
8, 204000, Note_off_c, 9, 45, 95
8, 204000, Note_on_c, 9, 55, 95
8, 204000, Note_on_c, 9, 36, 95
8, 204480, Note_off_c, 9, 55, 95
8, 204480, Note_off_c, 9, 36, 95
8, 204480, Note_on_c, 9, 38, 95
8, 204600, Note_off_c, 9, 38, 95
8, 204600, Note_on_c, 9, 45, 95
8, 204720, Note_off_c, 9, 45, 95
8, 204720, Note_on_c, 9, 47, 95
8, 204840, Note_off_c, 9, 47, 95
8, 204840, Note_on_c, 9, 48, 95
8, 204960, Note_off_c, 9, 48, 95
8, 204960, Note_on_c, 9, 49, 95
8, 205440, Note_off_c, 9, 49, 95
8, 205440, Note_on_c, 9, 49, 95
8, 205920, Note_off_c, 9, 49, 95
8, 205920, Note_on_c, 9, 49, 95
8, 205920, Note_on_c, 9, 38, 95
8, 206400, Note_off_c, 9, 49, 95
8, 206400, Note_off_c, 9, 38, 95
8, 206400, Note_on_c, 9, 49, 95
8, 206400, Note_on_c, 9, 38, 95
8, 206520, Note_off_c, 9, 49, 95
8, 206520, Note_off_c, 9, 38, 95
8, 206520, Note_on_c, 9, 45, 95
8, 206640, Note_off_c, 9, 45, 95
8, 206640, Note_on_c, 9, 47, 95
8, 206760, Note_off_c, 9, 47, 95
8, 206760, Note_on_c, 9, 48, 95
8, 206880, Note_off_c, 9, 48, 95
8, 206880, Note_on_c, 9, 49, 95
8, 206880, Note_on_c, 9, 36, 95
8, 207360, Note_off_c, 9, 49, 95
8, 207360, Note_off_c, 9, 36, 95
8, 207360, Note_on_c, 9, 42, 47
8, 208320, Note_off_c, 9, 42, 47
8, 208320, Note_on_c, 9, 38, 95
8, 208800, Note_off_c, 9, 38, 95
8, 208800, Note_on_c, 9, 43, 95
8, 209280, Note_off_c, 9, 43, 95
8, 209280, Note_on_c, 9, 45, 95
8, 209760, Note_off_c, 9, 45, 95
8, 209760, Note_on_c, 9, 55, 95
8, 209760, Note_on_c, 9, 36, 95
8, 210240, Note_off_c, 9, 55, 95
8, 210240, Note_off_c, 9, 36, 95
8, 210240, Note_on_c, 9, 38, 95
8, 210360, Note_off_c, 9, 38, 95
8, 210360, Note_on_c, 9, 45, 95
8, 210480, Note_off_c, 9, 45, 95
8, 210480, Note_on_c, 9, 47, 95
8, 210600, Note_off_c, 9, 47, 95
8, 210600, Note_on_c, 9, 48, 95
8, 210720, Note_off_c, 9, 48, 95
8, 210720, Note_on_c, 9, 49, 95
8, 211200, Note_off_c, 9, 49, 95
8, 211200, Note_on_c, 9, 49, 95
8, 211680, Note_off_c, 9, 49, 95
8, 211680, Note_on_c, 9, 49, 95
8, 211680, Note_on_c, 9, 38, 95
8, 212160, Note_off_c, 9, 49, 95
8, 212160, Note_off_c, 9, 38, 95
8, 212160, Note_on_c, 9, 49, 95
8, 212640, Note_off_c, 9, 49, 95
8, 212640, Note_on_c, 9, 49, 95
8, 212640, Note_on_c, 9, 36, 95
8, 213120, Note_off_c, 9, 49, 95
8, 213120, Note_off_c, 9, 36, 95
8, 213120, Note_on_c, 9, 42, 47
8, 214080, Note_off_c, 9, 42, 47
8, 214080, Note_on_c, 9, 38, 95
8, 214560, Note_off_c, 9, 38, 95
8, 214560, Note_on_c, 9, 43, 95
8, 215040, Note_off_c, 9, 43, 95
8, 215040, Note_on_c, 9, 45, 95
8, 215520, Note_off_c, 9, 45, 95
8, 215520, Note_on_c, 9, 55, 95
8, 215520, Note_on_c, 9, 36, 95
8, 216000, Note_off_c, 9, 55, 95
8, 216000, Note_off_c, 9, 36, 95
8, 216000, Note_on_c, 9, 38, 95
8, 216120, Note_off_c, 9, 38, 95
8, 216120, Note_on_c, 9, 45, 95
8, 216240, Note_off_c, 9, 45, 95
8, 216240, Note_on_c, 9, 47, 95
8, 216360, Note_off_c, 9, 47, 95
8, 216360, Note_on_c, 9, 48, 95
8, 216480, Note_off_c, 9, 48, 95
8, 216480, Note_on_c, 9, 49, 95
8, 216960, Note_off_c, 9, 49, 95
8, 216960, Note_on_c, 9, 49, 95
8, 217440, Note_off_c, 9, 49, 95
8, 217440, Note_on_c, 9, 49, 95
8, 217440, Note_on_c, 9, 38, 95
8, 217920, Note_off_c, 9, 49, 95
8, 217920, Note_off_c, 9, 38, 95
8, 217920, Note_on_c, 9, 49, 95
8, 217920, Note_on_c, 9, 38, 95
8, 218040, Note_off_c, 9, 49, 95
8, 218040, Note_off_c, 9, 38, 95
8, 218040, Note_on_c, 9, 45, 95
8, 218160, Note_off_c, 9, 45, 95
8, 218160, Note_on_c, 9, 47, 95
8, 218280, Note_off_c, 9, 47, 95
8, 218280, Note_on_c, 9, 48, 95
8, 218400, Note_off_c, 9, 48, 95
8, 218400, Note_on_c, 9, 49, 95
8, 218400, Note_on_c, 9, 36, 95
8, 218880, Note_off_c, 9, 49, 95
8, 218880, Note_off_c, 9, 36, 95
8, 218880, Note_on_c, 9, 42, 47
8, 219840, Note_off_c, 9, 42, 47
8, 219840, Note_on_c, 9, 38, 95
8, 220320, Note_off_c, 9, 38, 95
8, 220320, Note_on_c, 9, 43, 95
8, 220800, Note_off_c, 9, 43, 95
8, 220800, Note_on_c, 9, 45, 95
8, 221280, Note_off_c, 9, 45, 95
8, 221280, Note_on_c, 9, 55, 95
8, 221280, Note_on_c, 9, 36, 95
8, 221760, Note_off_c, 9, 55, 95
8, 221760, Note_off_c, 9, 36, 95
8, 221760, Note_on_c, 9, 38, 95
8, 221880, Note_off_c, 9, 38, 95
8, 221880, Note_on_c, 9, 45, 95
8, 222000, Note_off_c, 9, 45, 95
8, 222000, Note_on_c, 9, 47, 95
8, 222120, Note_off_c, 9, 47, 95
8, 222120, Note_on_c, 9, 48, 95
8, 222240, Note_off_c, 9, 48, 95
8, 222240, Note_on_c, 9, 49, 95
8, 222720, Note_off_c, 9, 49, 95
8, 222720, Note_on_c, 9, 49, 95
8, 223200, Note_off_c, 9, 49, 95
8, 223200, Note_on_c, 9, 49, 95
8, 223200, Note_on_c, 9, 38, 95
8, 223680, Note_off_c, 9, 49, 95
8, 223680, Note_off_c, 9, 38, 95
8, 223680, Note_on_c, 9, 49, 95
8, 224160, Note_off_c, 9, 49, 95
8, 224160, Note_on_c, 9, 49, 95
8, 224160, Note_on_c, 9, 36, 95
8, 224640, Note_off_c, 9, 49, 95
8, 224640, Note_off_c, 9, 36, 95
8, 224640, Note_on_c, 9, 42, 47
8, 225600, Note_off_c, 9, 42, 47
8, 225600, Note_on_c, 9, 38, 95
8, 226080, Note_off_c, 9, 38, 95
8, 226080, Note_on_c, 9, 43, 95
8, 226560, Note_off_c, 9, 43, 95
8, 226560, Note_on_c, 9, 45, 95
8, 227040, Note_off_c, 9, 45, 95
8, 227040, Note_on_c, 9, 55, 95
8, 227040, Note_on_c, 9, 36, 95
8, 227520, Note_off_c, 9, 55, 95
8, 227520, Note_off_c, 9, 36, 95
8, 227520, Note_on_c, 9, 38, 95
8, 227640, Note_off_c, 9, 38, 95
8, 227640, Note_on_c, 9, 45, 95
8, 227760, Note_off_c, 9, 45, 95
8, 227760, Note_on_c, 9, 47, 95
8, 227880, Note_off_c, 9, 47, 95
8, 227880, Note_on_c, 9, 48, 95
8, 228000, Note_off_c, 9, 48, 95
8, 228000, Note_on_c, 9, 49, 95
8, 228480, Note_off_c, 9, 49, 95
8, 228480, Note_on_c, 9, 49, 95
8, 228960, Note_off_c, 9, 49, 95
8, 228960, Note_on_c, 9, 49, 95
8, 228960, Note_on_c, 9, 38, 95
8, 229440, Note_off_c, 9, 49, 95
8, 229440, Note_off_c, 9, 38, 95
8, 229440, Note_on_c, 9, 49, 95
8, 229440, Note_on_c, 9, 38, 95
8, 229560, Note_off_c, 9, 49, 95
8, 229560, Note_off_c, 9, 38, 95
8, 229560, Note_on_c, 9, 45, 95
8, 229680, Note_off_c, 9, 45, 95
8, 229680, Note_on_c, 9, 47, 95
8, 229800, Note_off_c, 9, 47, 95
8, 229800, Note_on_c, 9, 48, 95
8, 229920, Note_off_c, 9, 48, 95
8, 229920, Note_on_c, 9, 49, 95
8, 229920, Note_on_c, 9, 36, 95
8, 230400, Note_off_c, 9, 49, 95
8, 230400, Note_off_c, 9, 36, 95
8, 230400, Note_on_c, 9, 42, 47
8, 231360, Note_off_c, 9, 42, 47
8, 231360, Note_on_c, 9, 38, 95
8, 231840, Note_off_c, 9, 38, 95
8, 231840, Note_on_c, 9, 43, 95
8, 232320, Note_off_c, 9, 43, 95
8, 232320, Note_on_c, 9, 45, 95
8, 232800, Note_off_c, 9, 45, 95
8, 232800, Note_on_c, 9, 55, 95
8, 232800, Note_on_c, 9, 36, 95
8, 233280, Note_off_c, 9, 55, 95
8, 233280, Note_off_c, 9, 36, 95
8, 233280, Note_on_c, 9, 38, 95
8, 233400, Note_off_c, 9, 38, 95
8, 233400, Note_on_c, 9, 45, 95
8, 233520, Note_off_c, 9, 45, 95
8, 233520, Note_on_c, 9, 47, 95
8, 233640, Note_off_c, 9, 47, 95
8, 233640, Note_on_c, 9, 48, 95
8, 233760, Note_off_c, 9, 48, 95
8, 233760, Note_on_c, 9, 49, 95
8, 234240, Note_off_c, 9, 49, 95
8, 234240, Note_on_c, 9, 49, 95
8, 234720, Note_off_c, 9, 49, 95
8, 234720, Note_on_c, 9, 49, 95
8, 234720, Note_on_c, 9, 38, 95
8, 235200, Note_off_c, 9, 49, 95
8, 235200, Note_off_c, 9, 38, 95
8, 235200, Note_on_c, 9, 49, 95
8, 235680, Note_off_c, 9, 49, 95
8, 235680, Note_on_c, 9, 49, 95
8, 235680, Note_on_c, 9, 36, 95
8, 236160, Note_off_c, 9, 49, 95
8, 236160, Note_off_c, 9, 36, 95
8, 236160, Note_on_c, 9, 42, 47
8, 237120, Note_off_c, 9, 42, 47
8, 237120, Note_on_c, 9, 38, 95
8, 237600, Note_off_c, 9, 38, 95
8, 237600, Note_on_c, 9, 43, 95
8, 238080, Note_off_c, 9, 43, 95
8, 238080, Note_on_c, 9, 45, 95
8, 238560, Note_off_c, 9, 45, 95
8, 238560, Note_on_c, 9, 55, 95
8, 238560, Note_on_c, 9, 36, 95
8, 239040, Note_off_c, 9, 55, 95
8, 239040, Note_off_c, 9, 36, 95
8, 239040, Note_on_c, 9, 38, 95
8, 239160, Note_off_c, 9, 38, 95
8, 239160, Note_on_c, 9, 45, 95
8, 239280, Note_off_c, 9, 45, 95
8, 239280, Note_on_c, 9, 47, 95
8, 239400, Note_off_c, 9, 47, 95
8, 239400, Note_on_c, 9, 48, 95
8, 239520, Note_off_c, 9, 48, 95
8, 239520, Note_on_c, 9, 49, 95
8, 240000, Note_off_c, 9, 49, 95
8, 240000, Note_on_c, 9, 49, 95
8, 240480, Note_off_c, 9, 49, 95
8, 240480, Note_on_c, 9, 49, 95
8, 240480, Note_on_c, 9, 38, 95
8, 240960, Note_off_c, 9, 49, 95
8, 240960, Note_off_c, 9, 38, 95
8, 240960, Note_on_c, 9, 49, 95
8, 240960, Note_on_c, 9, 38, 95
8, 241080, Note_off_c, 9, 49, 95
8, 241080, Note_off_c, 9, 38, 95
8, 241080, Note_on_c, 9, 45, 95
8, 241200, Note_off_c, 9, 45, 95
8, 241200, Note_on_c, 9, 47, 95
8, 241320, Note_off_c, 9, 47, 95
8, 241320, Note_on_c, 9, 48, 95
8, 241440, Note_off_c, 9, 48, 95
8, 241440, Note_on_c, 9, 49, 95
8, 241440, Note_on_c, 9, 36, 95
8, 241920, Note_off_c, 9, 49, 95
8, 241920, Note_off_c, 9, 36, 95
8, 241920, Note_on_c, 9, 42, 47
8, 242880, Note_off_c, 9, 42, 47
8, 242880, Note_on_c, 9, 38, 79
8, 243360, Note_off_c, 9, 38, 79
8, 243360, Note_on_c, 9, 43, 47
8, 243840, Note_off_c, 9, 43, 47
8, 243840, Note_on_c, 9, 45, 47
8, 244320, Note_off_c, 9, 45, 47
8, 244320, Note_on_c, 9, 55, 63
8, 244800, Note_off_c, 9, 55, 63
8, 245280, Note_on_c, 9, 42, 47
8, 245760, Note_off_c, 9, 42, 47
8, 245760, Note_on_c, 9, 42, 47
8, 246240, Note_off_c, 9, 42, 47
8, 246240, Note_on_c, 9, 42, 47
8, 246240, Note_on_c, 9, 38, 63
8, 246720, Note_off_c, 9, 42, 47
8, 246720, Note_off_c, 9, 38, 63
8, 246720, Note_on_c, 9, 42, 47
8, 247200, Note_off_c, 9, 42, 47
8, 247200, Note_on_c, 9, 42, 47
8, 247680, Note_off_c, 9, 42, 47
8, 247680, Note_on_c, 9, 42, 47
8, 248640, Note_off_c, 9, 42, 47
8, 248640, Note_on_c, 9, 38, 95
8, 249120, Note_off_c, 9, 38, 95
8, 249120, Note_on_c, 9, 43, 95
8, 249600, Note_off_c, 9, 43, 95
8, 249600, Note_on_c, 9, 45, 95
8, 250080, Note_off_c, 9, 45, 95
8, 250080, Note_on_c, 9, 55, 95
8, 250080, Note_on_c, 9, 36, 95
8, 250560, Note_off_c, 9, 55, 95
8, 250560, Note_off_c, 9, 36, 95
8, 250560, Note_on_c, 9, 38, 95
8, 250680, Note_off_c, 9, 38, 95
8, 250680, Note_on_c, 9, 45, 95
8, 250800, Note_off_c, 9, 45, 95
8, 250800, Note_on_c, 9, 47, 95
8, 250920, Note_off_c, 9, 47, 95
8, 250920, Note_on_c, 9, 48, 95
8, 251040, Note_off_c, 9, 48, 95
8, 251040, Note_on_c, 9, 49, 95
8, 251520, Note_off_c, 9, 49, 95
8, 251520, Note_on_c, 9, 49, 95
8, 252000, Note_off_c, 9, 49, 95
8, 252000, Note_on_c, 9, 49, 95
8, 252000, Note_on_c, 9, 38, 95
8, 252480, Note_off_c, 9, 49, 95
8, 252480, Note_off_c, 9, 38, 95
8, 252480, Note_on_c, 9, 49, 95
8, 252960, Note_off_c, 9, 49, 95
8, 252960, Note_on_c, 9, 49, 95
8, 253440, Note_off_c, 9, 49, 95
8, 253440, Note_on_c, 9, 42, 47
8, 254400, Note_off_c, 9, 42, 47
8, 254400, Note_on_c, 9, 38, 95
8, 254880, Note_off_c, 9, 38, 95
8, 254880, Note_on_c, 9, 43, 95
8, 255360, Note_off_c, 9, 43, 95
8, 255360, Note_on_c, 9, 45, 95
8, 255840, Note_off_c, 9, 45, 95
8, 255840, Note_on_c, 9, 55, 95
8, 255840, Note_on_c, 9, 36, 95
8, 256320, Note_off_c, 9, 55, 95
8, 256320, Note_off_c, 9, 36, 95
8, 256320, Note_on_c, 9, 38, 95
8, 256440, Note_off_c, 9, 38, 95
8, 256440, Note_on_c, 9, 45, 95
8, 256560, Note_off_c, 9, 45, 95
8, 256560, Note_on_c, 9, 47, 95
8, 256680, Note_off_c, 9, 47, 95
8, 256680, Note_on_c, 9, 48, 95
8, 256800, Note_off_c, 9, 48, 95
8, 256800, Note_on_c, 9, 49, 95
8, 257280, Note_off_c, 9, 49, 95
8, 257280, Note_on_c, 9, 49, 95
8, 257760, Note_off_c, 9, 49, 95
8, 257760, Note_on_c, 9, 49, 95
8, 257760, Note_on_c, 9, 38, 95
8, 258240, Note_off_c, 9, 49, 95
8, 258240, Note_off_c, 9, 38, 95
8, 258240, Note_on_c, 9, 49, 95
8, 258720, Note_off_c, 9, 49, 95
8, 258720, Note_on_c, 9, 49, 95
8, 258720, Note_on_c, 9, 36, 95
8, 259200, Note_off_c, 9, 49, 95
8, 259200, Note_off_c, 9, 36, 95
8, 259200, Note_on_c, 9, 42, 47
8, 260160, Note_off_c, 9, 42, 47
8, 260160, Note_on_c, 9, 38, 95
8, 260640, Note_off_c, 9, 38, 95
8, 260640, Note_on_c, 9, 43, 95
8, 261120, Note_off_c, 9, 43, 95
8, 261120, Note_on_c, 9, 45, 95
8, 261600, Note_off_c, 9, 45, 95
8, 261600, Note_on_c, 9, 55, 95
8, 261600, Note_on_c, 9, 36, 95
8, 262080, Note_off_c, 9, 55, 95
8, 262080, Note_off_c, 9, 36, 95
8, 262080, Note_on_c, 9, 38, 95
8, 262200, Note_off_c, 9, 38, 95
8, 262200, Note_on_c, 9, 45, 95
8, 262320, Note_off_c, 9, 45, 95
8, 262320, Note_on_c, 9, 47, 95
8, 262440, Note_off_c, 9, 47, 95
8, 262440, Note_on_c, 9, 48, 95
8, 262560, Note_off_c, 9, 48, 95
8, 262560, Note_on_c, 9, 49, 95
8, 263040, Note_off_c, 9, 49, 95
8, 263040, Note_on_c, 9, 49, 95
8, 263520, Note_off_c, 9, 49, 95
8, 263520, Note_on_c, 9, 49, 95
8, 263520, Note_on_c, 9, 38, 95
8, 264000, Note_off_c, 9, 49, 95
8, 264000, Note_off_c, 9, 38, 95
8, 264000, Note_on_c, 9, 49, 95
8, 264000, Note_on_c, 9, 38, 95
8, 264120, Note_off_c, 9, 49, 95
8, 264120, Note_off_c, 9, 38, 95
8, 264120, Note_on_c, 9, 45, 95
8, 264240, Note_off_c, 9, 45, 95
8, 264240, Note_on_c, 9, 47, 95
8, 264360, Note_off_c, 9, 47, 95
8, 264360, Note_on_c, 9, 48, 95
8, 264480, Note_off_c, 9, 48, 95
8, 264480, Note_on_c, 9, 49, 95
8, 264480, Note_on_c, 9, 36, 95
8, 264960, Note_off_c, 9, 49, 95
8, 264960, Note_off_c, 9, 36, 95
8, 264960, Note_on_c, 9, 42, 47
8, 265920, Note_off_c, 9, 42, 47
8, 265920, Note_on_c, 9, 38, 95
8, 266400, Note_off_c, 9, 38, 95
8, 266400, Note_on_c, 9, 43, 95
8, 266880, Note_off_c, 9, 43, 95
8, 266880, Note_on_c, 9, 45, 95
8, 267360, Note_off_c, 9, 45, 95
8, 267360, Note_on_c, 9, 55, 95
8, 267360, Note_on_c, 9, 36, 95
8, 267840, Note_off_c, 9, 55, 95
8, 267840, Note_off_c, 9, 36, 95
8, 267840, Note_on_c, 9, 38, 95
8, 267960, Note_off_c, 9, 38, 95
8, 267960, Note_on_c, 9, 45, 95
8, 268080, Note_off_c, 9, 45, 95
8, 268080, Note_on_c, 9, 47, 95
8, 268200, Note_off_c, 9, 47, 95
8, 268200, Note_on_c, 9, 48, 95
8, 268320, Note_off_c, 9, 48, 95
8, 268320, Note_on_c, 9, 49, 95
8, 268800, Note_off_c, 9, 49, 95
8, 268800, Note_on_c, 9, 49, 95
8, 269280, Note_off_c, 9, 49, 95
8, 269280, Note_on_c, 9, 49, 95
8, 269280, Note_on_c, 9, 38, 95
8, 269760, Note_off_c, 9, 49, 95
8, 269760, Note_off_c, 9, 38, 95
8, 269760, Note_on_c, 9, 49, 95
8, 270240, Note_off_c, 9, 49, 95
8, 270240, Note_on_c, 9, 49, 95
8, 270240, Note_on_c, 9, 36, 95
8, 270720, Note_off_c, 9, 49, 95
8, 270720, Note_off_c, 9, 36, 95
8, 270720, Note_on_c, 9, 42, 47
8, 271680, Note_off_c, 9, 42, 47
8, 271680, Note_on_c, 9, 38, 95
8, 272160, Note_off_c, 9, 38, 95
8, 272160, Note_on_c, 9, 43, 95
8, 272640, Note_off_c, 9, 43, 95
8, 272640, Note_on_c, 9, 45, 95
8, 273120, Note_off_c, 9, 45, 95
8, 273120, Note_on_c, 9, 55, 95
8, 273120, Note_on_c, 9, 36, 95
8, 273600, Note_off_c, 9, 55, 95
8, 273600, Note_off_c, 9, 36, 95
8, 273600, Note_on_c, 9, 38, 95
8, 273720, Note_off_c, 9, 38, 95
8, 273720, Note_on_c, 9, 45, 95
8, 273840, Note_off_c, 9, 45, 95
8, 273840, Note_on_c, 9, 47, 95
8, 273960, Note_off_c, 9, 47, 95
8, 273960, Note_on_c, 9, 48, 95
8, 274080, Note_off_c, 9, 48, 95
8, 274080, Note_on_c, 9, 49, 95
8, 274560, Note_off_c, 9, 49, 95
8, 274560, Note_on_c, 9, 49, 95
8, 275040, Note_off_c, 9, 49, 95
8, 275040, Note_on_c, 9, 49, 95
8, 275040, Note_on_c, 9, 38, 95
8, 275520, Note_off_c, 9, 49, 95
8, 275520, Note_off_c, 9, 38, 95
8, 275520, Note_on_c, 9, 49, 95
8, 275520, Note_on_c, 9, 38, 95
8, 275640, Note_off_c, 9, 49, 95
8, 275640, Note_off_c, 9, 38, 95
8, 275640, Note_on_c, 9, 45, 95
8, 275760, Note_off_c, 9, 45, 95
8, 275760, Note_on_c, 9, 47, 95
8, 275880, Note_off_c, 9, 47, 95
8, 275880, Note_on_c, 9, 48, 95
8, 276000, Note_off_c, 9, 48, 95
8, 276000, Note_on_c, 9, 49, 95
8, 276000, Note_on_c, 9, 36, 95
8, 276480, Note_off_c, 9, 49, 95
8, 276480, Note_off_c, 9, 36, 95
8, 276480, Note_on_c, 9, 42, 47
8, 277440, Note_off_c, 9, 42, 47
8, 277440, Note_on_c, 9, 38, 95
8, 277920, Note_off_c, 9, 38, 95
8, 277920, Note_on_c, 9, 43, 95
8, 278400, Note_off_c, 9, 43, 95
8, 278400, Note_on_c, 9, 45, 95
8, 278880, Note_off_c, 9, 45, 95
8, 278880, Note_on_c, 9, 55, 95
8, 278880, Note_on_c, 9, 36, 95
8, 279360, Note_off_c, 9, 55, 95
8, 279360, Note_off_c, 9, 36, 95
8, 279360, Note_on_c, 9, 38, 95
8, 279480, Note_off_c, 9, 38, 95
8, 279480, Note_on_c, 9, 45, 95
8, 279600, Note_off_c, 9, 45, 95
8, 279600, Note_on_c, 9, 47, 95
8, 279720, Note_off_c, 9, 47, 95
8, 279720, Note_on_c, 9, 48, 95
8, 279840, Note_off_c, 9, 48, 95
8, 279840, Note_on_c, 9, 49, 95
8, 280320, Note_off_c, 9, 49, 95
8, 280320, Note_on_c, 9, 49, 95
8, 280800, Note_off_c, 9, 49, 95
8, 280800, Note_on_c, 9, 49, 95
8, 280800, Note_on_c, 9, 38, 95
8, 281280, Note_off_c, 9, 49, 95
8, 281280, Note_off_c, 9, 38, 95
8, 281280, Note_on_c, 9, 49, 95
8, 281760, Note_off_c, 9, 49, 95
8, 281760, Note_on_c, 9, 49, 95
8, 281760, Note_on_c, 9, 36, 95
8, 282240, Note_off_c, 9, 49, 95
8, 282240, Note_off_c, 9, 36, 95
8, 282240, Note_on_c, 9, 42, 47
8, 283200, Note_off_c, 9, 42, 47
8, 283200, Note_on_c, 9, 38, 95
8, 283680, Note_off_c, 9, 38, 95
8, 283680, Note_on_c, 9, 43, 95
8, 284160, Note_off_c, 9, 43, 95
8, 284160, Note_on_c, 9, 45, 95
8, 284640, Note_off_c, 9, 45, 95
8, 284640, Note_on_c, 9, 55, 95
8, 284640, Note_on_c, 9, 36, 95
8, 285120, Note_off_c, 9, 55, 95
8, 285120, Note_off_c, 9, 36, 95
8, 285120, Note_on_c, 9, 38, 95
8, 285240, Note_off_c, 9, 38, 95
8, 285240, Note_on_c, 9, 45, 95
8, 285360, Note_off_c, 9, 45, 95
8, 285360, Note_on_c, 9, 47, 95
8, 285480, Note_off_c, 9, 47, 95
8, 285480, Note_on_c, 9, 48, 95
8, 285600, Note_off_c, 9, 48, 95
8, 285600, Note_on_c, 9, 49, 95
8, 286080, Note_off_c, 9, 49, 95
8, 286080, Note_on_c, 9, 49, 95
8, 286560, Note_off_c, 9, 49, 95
8, 286560, Note_on_c, 9, 49, 95
8, 286560, Note_on_c, 9, 38, 95
8, 287040, Note_off_c, 9, 49, 95
8, 287040, Note_off_c, 9, 38, 95
8, 287040, Note_on_c, 9, 49, 95
8, 287040, Note_on_c, 9, 38, 95
8, 287160, Note_off_c, 9, 49, 95
8, 287160, Note_off_c, 9, 38, 95
8, 287160, Note_on_c, 9, 45, 95
8, 287280, Note_off_c, 9, 45, 95
8, 287280, Note_on_c, 9, 47, 95
8, 287400, Note_off_c, 9, 47, 95
8, 287400, Note_on_c, 9, 48, 95
8, 287520, Note_off_c, 9, 48, 95
8, 287520, Note_on_c, 9, 49, 95
8, 287520, Note_on_c, 9, 36, 95
8, 288000, Note_off_c, 9, 49, 95
8, 288000, Note_off_c, 9, 36, 95
8, 288000, Note_on_c, 9, 42, 47
8, 288960, Note_off_c, 9, 42, 47
8, 288960, Note_on_c, 9, 38, 95
8, 289440, Note_off_c, 9, 38, 95
8, 289440, Note_on_c, 9, 43, 95
8, 289920, Note_off_c, 9, 43, 95
8, 289920, Note_on_c, 9, 45, 95
8, 290400, Note_off_c, 9, 45, 95
8, 290400, Note_on_c, 9, 55, 95
8, 290400, Note_on_c, 9, 36, 95
8, 290880, Note_off_c, 9, 55, 95
8, 290880, Note_off_c, 9, 36, 95
8, 290880, Note_on_c, 9, 38, 95
8, 291000, Note_off_c, 9, 38, 95
8, 291000, Note_on_c, 9, 45, 95
8, 291120, Note_off_c, 9, 45, 95
8, 291120, Note_on_c, 9, 47, 95
8, 291240, Note_off_c, 9, 47, 95
8, 291240, Note_on_c, 9, 48, 95
8, 291360, Note_off_c, 9, 48, 95
8, 291360, Note_on_c, 9, 49, 95
8, 291840, Note_off_c, 9, 49, 95
8, 291840, Note_on_c, 9, 49, 95
8, 292320, Note_off_c, 9, 49, 95
8, 292320, Note_on_c, 9, 49, 95
8, 292320, Note_on_c, 9, 38, 95
8, 292800, Note_off_c, 9, 49, 95
8, 292800, Note_off_c, 9, 38, 95
8, 292800, Note_on_c, 9, 49, 95
8, 293280, Note_off_c, 9, 49, 95
8, 293280, Note_on_c, 9, 49, 95
8, 293280, Note_on_c, 9, 36, 95
8, 293760, Note_off_c, 9, 49, 95
8, 293760, Note_off_c, 9, 36, 95
8, 293760, Note_on_c, 9, 42, 47
8, 294720, Note_off_c, 9, 42, 47
8, 294720, Note_on_c, 9, 38, 95
8, 295200, Note_off_c, 9, 38, 95
8, 295200, Note_on_c, 9, 43, 95
8, 295680, Note_off_c, 9, 43, 95
8, 295680, Note_on_c, 9, 45, 95
8, 296160, Note_off_c, 9, 45, 95
8, 296160, Note_on_c, 9, 55, 95
8, 296160, Note_on_c, 9, 36, 95
8, 296640, Note_off_c, 9, 55, 95
8, 296640, Note_off_c, 9, 36, 95
8, 296640, Note_on_c, 9, 38, 95
8, 296760, Note_off_c, 9, 38, 95
8, 296760, Note_on_c, 9, 45, 95
8, 296880, Note_off_c, 9, 45, 95
8, 296880, Note_on_c, 9, 47, 95
8, 297000, Note_off_c, 9, 47, 95
8, 297000, Note_on_c, 9, 48, 95
8, 297120, Note_off_c, 9, 48, 95
8, 297120, Note_on_c, 9, 55, 95
8, 297120, Note_on_c, 9, 38, 95
8, 297240, Note_off_c, 9, 55, 95
8, 297240, Note_off_c, 9, 38, 95
8, 297240, Note_on_c, 9, 45, 95
8, 297360, Note_off_c, 9, 45, 95
8, 297360, Note_on_c, 9, 47, 95
8, 297480, Note_off_c, 9, 47, 95
8, 297480, Note_on_c, 9, 48, 95
8, 297600, Note_off_c, 9, 48, 95
8, 297600, Note_on_c, 9, 38, 95
8, 297720, Note_off_c, 9, 38, 95
8, 297720, Note_on_c, 9, 45, 95
8, 297840, Note_off_c, 9, 45, 95
8, 297840, Note_on_c, 9, 47, 95
8, 297960, Note_off_c, 9, 47, 95
8, 297960, Note_on_c, 9, 48, 95
8, 298080, Note_off_c, 9, 48, 95
8, 298080, Note_on_c, 9, 55, 95
8, 298080, Note_on_c, 9, 38, 95
8, 298200, Note_off_c, 9, 55, 95
8, 298200, Note_off_c, 9, 38, 95
8, 298200, Note_on_c, 9, 45, 95
8, 298320, Note_off_c, 9, 45, 95
8, 298320, Note_on_c, 9, 47, 95
8, 298440, Note_off_c, 9, 47, 95
8, 298440, Note_on_c, 9, 48, 95
8, 298560, Note_off_c, 9, 48, 95
8, 298560, Note_on_c, 9, 38, 95
8, 298680, Note_off_c, 9, 38, 95
8, 298680, Note_on_c, 9, 45, 95
8, 298800, Note_off_c, 9, 45, 95
8, 298800, Note_on_c, 9, 47, 95
8, 298920, Note_off_c, 9, 47, 95
8, 298920, Note_on_c, 9, 48, 95
8, 299040, Note_off_c, 9, 48, 95
8, 299040, Note_on_c, 9, 38, 95
8, 299520, Note_off_c, 9, 38, 95
8, 299520, Note_on_c, 9, 36, 95
8, 300480, Note_off_c, 9, 36, 95
8, 300480, Note_on_c, 9, 55, 95
8, 300480, Note_on_c, 9, 38, 95
8, 300960, Note_off_c, 9, 55, 95
8, 300960, Note_off_c, 9, 38, 95
8, 300960, Note_on_c, 9, 44, 95
8, 300960, Note_on_c, 9, 43, 95
8, 301440, Note_off_c, 9, 44, 95
8, 301440, Note_off_c, 9, 43, 95
8, 301440, Note_on_c, 9, 44, 95
8, 301920, Note_off_c, 9, 44, 95
8, 301920, Note_on_c, 9, 44, 95
8, 301920, Note_on_c, 9, 43, 95
8, 302400, Note_off_c, 9, 44, 95
8, 302400, Note_off_c, 9, 43, 95
8, 302400, Note_on_c, 9, 49, 95
8, 302400, Note_on_c, 9, 36, 95
8, 303360, Note_off_c, 9, 49, 95
8, 303360, Note_off_c, 9, 36, 95
8, 303360, Note_on_c, 9, 55, 95
8, 303360, Note_on_c, 9, 38, 95
8, 303840, Note_off_c, 9, 55, 95
8, 303840, Note_off_c, 9, 38, 95
8, 303840, Note_on_c, 9, 44, 95
8, 303840, Note_on_c, 9, 43, 95
8, 304320, Note_off_c, 9, 44, 95
8, 304320, Note_off_c, 9, 43, 95
8, 304320, Note_on_c, 9, 44, 95
8, 304800, Note_off_c, 9, 44, 95
8, 304800, Note_on_c, 9, 44, 95
8, 304800, Note_on_c, 9, 43, 95
8, 305280, Note_off_c, 9, 44, 95
8, 305280, Note_off_c, 9, 43, 95
8, 305280, Note_on_c, 9, 36, 95
8, 306240, Note_off_c, 9, 36, 95
8, 306240, Note_on_c, 9, 55, 95
8, 306240, Note_on_c, 9, 38, 95
8, 306720, Note_off_c, 9, 55, 95
8, 306720, Note_off_c, 9, 38, 95
8, 306720, Note_on_c, 9, 44, 95
8, 306720, Note_on_c, 9, 43, 95
8, 307200, Note_off_c, 9, 44, 95
8, 307200, Note_off_c, 9, 43, 95
8, 307200, Note_on_c, 9, 44, 95
8, 307680, Note_off_c, 9, 44, 95
8, 307680, Note_on_c, 9, 44, 95
8, 307680, Note_on_c, 9, 43, 95
8, 308160, Note_off_c, 9, 44, 95
8, 308160, Note_off_c, 9, 43, 95
8, 308160, Note_on_c, 9, 49, 95
8, 308160, Note_on_c, 9, 36, 95
8, 309120, Note_off_c, 9, 49, 95
8, 309120, Note_off_c, 9, 36, 95
8, 309120, Note_on_c, 9, 55, 95
8, 309120, Note_on_c, 9, 38, 95
8, 309600, Note_off_c, 9, 55, 95
8, 309600, Note_off_c, 9, 38, 95
8, 309600, Note_on_c, 9, 44, 95
8, 309600, Note_on_c, 9, 43, 95
8, 310080, Note_off_c, 9, 44, 95
8, 310080, Note_off_c, 9, 43, 95
8, 310080, Note_on_c, 9, 44, 95
8, 310560, Note_off_c, 9, 44, 95
8, 310560, Note_on_c, 9, 44, 95
8, 310560, Note_on_c, 9, 43, 95
8, 311040, Note_off_c, 9, 44, 95
8, 311040, Note_off_c, 9, 43, 95
8, 311040, Note_on_c, 9, 36, 95
8, 312000, Note_off_c, 9, 36, 95
8, 312000, Note_on_c, 9, 55, 95
8, 312000, Note_on_c, 9, 38, 95
8, 312480, Note_off_c, 9, 55, 95
8, 312480, Note_off_c, 9, 38, 95
8, 312480, Note_on_c, 9, 44, 95
8, 312480, Note_on_c, 9, 43, 95
8, 312960, Note_off_c, 9, 44, 95
8, 312960, Note_off_c, 9, 43, 95
8, 312960, Note_on_c, 9, 44, 95
8, 313440, Note_off_c, 9, 44, 95
8, 313440, Note_on_c, 9, 44, 95
8, 313440, Note_on_c, 9, 43, 95
8, 313920, Note_off_c, 9, 44, 95
8, 313920, Note_off_c, 9, 43, 95
8, 313920, Note_on_c, 9, 49, 95
8, 313920, Note_on_c, 9, 36, 95
8, 314880, Note_off_c, 9, 49, 95
8, 314880, Note_off_c, 9, 36, 95
8, 314880, Note_on_c, 9, 55, 95
8, 314880, Note_on_c, 9, 38, 95
8, 315360, Note_off_c, 9, 55, 95
8, 315360, Note_off_c, 9, 38, 95
8, 315360, Note_on_c, 9, 44, 95
8, 315600, Note_off_c, 9, 44, 95
8, 315600, Note_on_c, 9, 44, 95
8, 315600, Note_on_c, 9, 43, 95
8, 315840, Note_off_c, 9, 44, 95
8, 315840, Note_off_c, 9, 43, 95
8, 315840, Note_on_c, 9, 44, 95
8, 315840, Note_on_c, 9, 45, 95
8, 316080, Note_off_c, 9, 44, 95
8, 316080, Note_off_c, 9, 45, 95
8, 316080, Note_on_c, 9, 44, 95
8, 316080, Note_on_c, 9, 43, 95
8, 316320, Note_off_c, 9, 44, 95
8, 316320, Note_off_c, 9, 43, 95
8, 316320, Note_on_c, 9, 44, 95
8, 316320, Note_on_c, 9, 45, 95
8, 316560, Note_off_c, 9, 44, 95
8, 316560, Note_off_c, 9, 45, 95
8, 316560, Note_on_c, 9, 44, 95
8, 316560, Note_on_c, 9, 43, 95
8, 316800, Note_off_c, 9, 44, 95
8, 316800, Note_off_c, 9, 43, 95
8, 316800, Note_on_c, 9, 42, 47
8, 317760, Note_off_c, 9, 42, 47
8, 317760, Note_on_c, 9, 38, 95
8, 318240, Note_off_c, 9, 38, 95
8, 318240, Note_on_c, 9, 43, 95
8, 318720, Note_off_c, 9, 43, 95
8, 318720, Note_on_c, 9, 45, 95
8, 319200, Note_off_c, 9, 45, 95
8, 319200, Note_on_c, 9, 55, 95
8, 319200, Note_on_c, 9, 36, 95
8, 319680, Note_off_c, 9, 55, 95
8, 319680, Note_off_c, 9, 36, 95
8, 319680, Note_on_c, 9, 38, 95
8, 319800, Note_off_c, 9, 38, 95
8, 319800, Note_on_c, 9, 45, 95
8, 319920, Note_off_c, 9, 45, 95
8, 319920, Note_on_c, 9, 47, 95
8, 320040, Note_off_c, 9, 47, 95
8, 320040, Note_on_c, 9, 48, 95
8, 320160, Note_off_c, 9, 48, 95
8, 320160, Note_on_c, 9, 55, 95
8, 320160, Note_on_c, 9, 38, 95
8, 320280, Note_off_c, 9, 55, 95
8, 320280, Note_off_c, 9, 38, 95
8, 320280, Note_on_c, 9, 45, 95
8, 320400, Note_off_c, 9, 45, 95
8, 320400, Note_on_c, 9, 47, 95
8, 320520, Note_off_c, 9, 47, 95
8, 320520, Note_on_c, 9, 48, 95
8, 320640, Note_off_c, 9, 48, 95
8, 320640, Note_on_c, 9, 38, 95
8, 320760, Note_off_c, 9, 38, 95
8, 320760, Note_on_c, 9, 45, 95
8, 320880, Note_off_c, 9, 45, 95
8, 320880, Note_on_c, 9, 47, 95
8, 321000, Note_off_c, 9, 47, 95
8, 321000, Note_on_c, 9, 48, 95
8, 321120, Note_off_c, 9, 48, 95
8, 321120, Note_on_c, 9, 55, 95
8, 321120, Note_on_c, 9, 38, 95
8, 321240, Note_off_c, 9, 55, 95
8, 321240, Note_off_c, 9, 38, 95
8, 321240, Note_on_c, 9, 45, 95
8, 321360, Note_off_c, 9, 45, 95
8, 321360, Note_on_c, 9, 47, 95
8, 321480, Note_off_c, 9, 47, 95
8, 321480, Note_on_c, 9, 48, 95
8, 321600, Note_off_c, 9, 48, 95
8, 321600, Note_on_c, 9, 38, 95
8, 321720, Note_off_c, 9, 38, 95
8, 321720, Note_on_c, 9, 45, 95
8, 321840, Note_off_c, 9, 45, 95
8, 321840, Note_on_c, 9, 47, 95
8, 321960, Note_off_c, 9, 47, 95
8, 321960, Note_on_c, 9, 48, 95
8, 322080, Note_off_c, 9, 48, 95
8, 322080, Note_on_c, 9, 38, 95
8, 322560, Note_off_c, 9, 38, 95
8, 322560, Note_on_c, 9, 36, 95
8, 323520, Note_off_c, 9, 36, 95
8, 323520, Note_on_c, 9, 55, 95
8, 323520, Note_on_c, 9, 38, 95
8, 324000, Note_off_c, 9, 55, 95
8, 324000, Note_off_c, 9, 38, 95
8, 324000, Note_on_c, 9, 44, 95
8, 324000, Note_on_c, 9, 43, 95
8, 324480, Note_off_c, 9, 44, 95
8, 324480, Note_off_c, 9, 43, 95
8, 324480, Note_on_c, 9, 44, 95
8, 324960, Note_off_c, 9, 44, 95
8, 324960, Note_on_c, 9, 44, 95
8, 324960, Note_on_c, 9, 43, 95
8, 325440, Note_off_c, 9, 44, 95
8, 325440, Note_off_c, 9, 43, 95
8, 325440, Note_on_c, 9, 49, 95
8, 325440, Note_on_c, 9, 36, 95
8, 326400, Note_off_c, 9, 49, 95
8, 326400, Note_off_c, 9, 36, 95
8, 326400, Note_on_c, 9, 55, 95
8, 326400, Note_on_c, 9, 38, 95
8, 326880, Note_off_c, 9, 55, 95
8, 326880, Note_off_c, 9, 38, 95
8, 326880, Note_on_c, 9, 44, 95
8, 327120, Note_off_c, 9, 44, 95
8, 327120, Note_on_c, 9, 44, 95
8, 327120, Note_on_c, 9, 43, 95
8, 327360, Note_off_c, 9, 44, 95
8, 327360, Note_off_c, 9, 43, 95
8, 327360, Note_on_c, 9, 44, 95
8, 327360, Note_on_c, 9, 45, 95
8, 327600, Note_off_c, 9, 44, 95
8, 327600, Note_off_c, 9, 45, 95
8, 327600, Note_on_c, 9, 44, 95
8, 327600, Note_on_c, 9, 43, 95
8, 327840, Note_off_c, 9, 44, 95
8, 327840, Note_off_c, 9, 43, 95
8, 327840, Note_on_c, 9, 44, 95
8, 327840, Note_on_c, 9, 45, 95
8, 328080, Note_off_c, 9, 44, 95
8, 328080, Note_off_c, 9, 45, 95
8, 328080, Note_on_c, 9, 44, 95
8, 328080, Note_on_c, 9, 43, 95
8, 328320, Note_off_c, 9, 44, 95
8, 328320, Note_off_c, 9, 43, 95
8, 328320, Note_on_c, 9, 42, 47
8, 329280, Note_off_c, 9, 42, 47
8, 329280, Note_on_c, 9, 38, 95
8, 329760, Note_off_c, 9, 38, 95
8, 329760, Note_on_c, 9, 43, 95
8, 330240, Note_off_c, 9, 43, 95
8, 330240, Note_on_c, 9, 45, 95
8, 330720, Note_off_c, 9, 45, 95
8, 330720, Note_on_c, 9, 55, 95
8, 330720, Note_on_c, 9, 36, 95
8, 331200, Note_off_c, 9, 55, 95
8, 331200, Note_off_c, 9, 36, 95
8, 331200, Note_on_c, 9, 38, 95
8, 331320, Note_off_c, 9, 38, 95
8, 331320, Note_on_c, 9, 45, 95
8, 331440, Note_off_c, 9, 45, 95
8, 331440, Note_on_c, 9, 47, 95
8, 331560, Note_off_c, 9, 47, 95
8, 331560, Note_on_c, 9, 48, 95
8, 331680, Note_off_c, 9, 48, 95
8, 331680, Note_on_c, 9, 55, 95
8, 331680, Note_on_c, 9, 38, 95
8, 331800, Note_off_c, 9, 55, 95
8, 331800, Note_off_c, 9, 38, 95
8, 331800, Note_on_c, 9, 45, 95
8, 331920, Note_off_c, 9, 45, 95
8, 331920, Note_on_c, 9, 47, 95
8, 332040, Note_off_c, 9, 47, 95
8, 332040, Note_on_c, 9, 48, 95
8, 332160, Note_off_c, 9, 48, 95
8, 332160, Note_on_c, 9, 38, 95
8, 332280, Note_off_c, 9, 38, 95
8, 332280, Note_on_c, 9, 45, 95
8, 332400, Note_off_c, 9, 45, 95
8, 332400, Note_on_c, 9, 47, 95
8, 332520, Note_off_c, 9, 47, 95
8, 332520, Note_on_c, 9, 48, 95
8, 332640, Note_off_c, 9, 48, 95
8, 332640, Note_on_c, 9, 55, 95
8, 332640, Note_on_c, 9, 38, 95
8, 332760, Note_off_c, 9, 55, 95
8, 332760, Note_off_c, 9, 38, 95
8, 332760, Note_on_c, 9, 45, 95
8, 332880, Note_off_c, 9, 45, 95
8, 332880, Note_on_c, 9, 47, 95
8, 333000, Note_off_c, 9, 47, 95
8, 333000, Note_on_c, 9, 48, 95
8, 333120, Note_off_c, 9, 48, 95
8, 333120, Note_on_c, 9, 38, 95
8, 333240, Note_off_c, 9, 38, 95
8, 333240, Note_on_c, 9, 45, 95
8, 333360, Note_off_c, 9, 45, 95
8, 333360, Note_on_c, 9, 47, 95
8, 333480, Note_off_c, 9, 47, 95
8, 333480, Note_on_c, 9, 48, 95
8, 333600, Note_off_c, 9, 48, 95
8, 333600, Note_on_c, 9, 38, 95
8, 334080, Note_off_c, 9, 38, 95
8, 334080, Note_on_c, 9, 36, 95
8, 335040, Note_off_c, 9, 36, 95
8, 335040, Note_on_c, 9, 55, 95
8, 335040, Note_on_c, 9, 38, 95
8, 335520, Note_off_c, 9, 55, 95
8, 335520, Note_off_c, 9, 38, 95
8, 335520, Note_on_c, 9, 44, 95
8, 335520, Note_on_c, 9, 43, 95
8, 336000, Note_off_c, 9, 44, 95
8, 336000, Note_off_c, 9, 43, 95
8, 336000, Note_on_c, 9, 44, 95
8, 336480, Note_off_c, 9, 44, 95
8, 336480, Note_on_c, 9, 44, 95
8, 336480, Note_on_c, 9, 43, 95
8, 336960, Note_off_c, 9, 44, 95
8, 336960, Note_off_c, 9, 43, 95
8, 336960, Note_on_c, 9, 49, 95
8, 336960, Note_on_c, 9, 36, 95
8, 337920, Note_off_c, 9, 49, 95
8, 337920, Note_off_c, 9, 36, 95
8, 337920, Note_on_c, 9, 55, 95
8, 337920, Note_on_c, 9, 38, 95
8, 338400, Note_off_c, 9, 55, 95
8, 338400, Note_off_c, 9, 38, 95
8, 338400, Note_on_c, 9, 44, 95
8, 338640, Note_off_c, 9, 44, 95
8, 338640, Note_on_c, 9, 44, 95
8, 338640, Note_on_c, 9, 43, 95
8, 338880, Note_off_c, 9, 44, 95
8, 338880, Note_off_c, 9, 43, 95
8, 338880, Note_on_c, 9, 44, 95
8, 338880, Note_on_c, 9, 45, 95
8, 339120, Note_off_c, 9, 44, 95
8, 339120, Note_off_c, 9, 45, 95
8, 339120, Note_on_c, 9, 44, 95
8, 339120, Note_on_c, 9, 43, 95
8, 339360, Note_off_c, 9, 44, 95
8, 339360, Note_off_c, 9, 43, 95
8, 339360, Note_on_c, 9, 44, 95
8, 339360, Note_on_c, 9, 45, 95
8, 339600, Note_off_c, 9, 44, 95
8, 339600, Note_off_c, 9, 45, 95
8, 339600, Note_on_c, 9, 44, 95
8, 339600, Note_on_c, 9, 43, 95
8, 339840, Note_off_c, 9, 44, 95
8, 339840, Note_off_c, 9, 43, 95
8, 339840, Note_on_c, 9, 55, 95
8, 339840, Note_on_c, 9, 38, 95
8, 341760, Note_off_c, 9, 55, 95
8, 341760, Note_off_c, 9, 38, 95
8, 341760, Note_on_c, 9, 44, 95
8, 345600, Note_off_c, 9, 44, 95
8, 347520, Note_on_c, 9, 38, 95
8, 347640, Note_off_c, 9, 38, 95
8, 347640, Note_on_c, 9, 45, 95
8, 347760, Note_off_c, 9, 45, 95
8, 347760, Note_on_c, 9, 47, 95
8, 347880, Note_off_c, 9, 47, 95
8, 347880, Note_on_c, 9, 48, 95
8, 348000, Note_off_c, 9, 48, 95
8, 348000, Note_on_c, 9, 38, 95
8, 348120, Note_off_c, 9, 38, 95
8, 348120, Note_on_c, 9, 45, 95
8, 348240, Note_off_c, 9, 45, 95
8, 348240, Note_on_c, 9, 47, 95
8, 348360, Note_off_c, 9, 47, 95
8, 348360, Note_on_c, 9, 48, 95
8, 348480, Note_off_c, 9, 48, 95
8, 348480, Note_on_c, 9, 38, 95
8, 348600, Note_off_c, 9, 38, 95
8, 348600, Note_on_c, 9, 45, 95
8, 348720, Note_off_c, 9, 45, 95
8, 348720, Note_on_c, 9, 47, 95
8, 348840, Note_off_c, 9, 47, 95
8, 348840, Note_on_c, 9, 48, 95
8, 348960, Note_off_c, 9, 48, 95
8, 348960, Note_on_c, 9, 49, 47
8, 349440, Note_off_c, 9, 49, 47
8, 349440, Note_on_c, 9, 49, 47
8, 349920, Note_off_c, 9, 49, 47
8, 349920, Note_on_c, 9, 49, 47
8, 349920, Note_on_c, 9, 38, 95
8, 350400, Note_off_c, 9, 49, 47
8, 350400, Note_off_c, 9, 38, 95
8, 350400, Note_on_c, 9, 49, 47
8, 350880, Note_off_c, 9, 49, 47
8, 350880, Note_on_c, 9, 49, 47
8, 350880, Note_on_c, 9, 36, 95
8, 351360, Note_off_c, 9, 49, 47
8, 351360, Note_off_c, 9, 36, 95
8, 351360, Note_on_c, 9, 42, 47
8, 352320, Note_off_c, 9, 42, 47
8, 352320, Note_on_c, 9, 38, 95
8, 352800, Note_off_c, 9, 38, 95
8, 352800, Note_on_c, 9, 43, 95
8, 353280, Note_off_c, 9, 43, 95
8, 353280, Note_on_c, 9, 45, 95
8, 353760, Note_off_c, 9, 45, 95
8, 353760, Note_on_c, 9, 55, 95
8, 353760, Note_on_c, 9, 36, 95
8, 353760, Note_on_c, 9, 41, 95
8, 354240, Note_off_c, 9, 55, 95
8, 354240, Note_off_c, 9, 36, 95
8, 354240, Note_off_c, 9, 41, 95
8, 354240, Note_on_c, 9, 38, 95
8, 354360, Note_off_c, 9, 38, 95
8, 354360, Note_on_c, 9, 45, 95
8, 354480, Note_off_c, 9, 45, 95
8, 354480, Note_on_c, 9, 47, 95
8, 354600, Note_off_c, 9, 47, 95
8, 354600, Note_on_c, 9, 48, 95
8, 354720, Note_off_c, 9, 48, 95
8, 354720, Note_on_c, 9, 55, 95
8, 354720, Note_on_c, 9, 38, 95
8, 354720, Note_on_c, 9, 41, 95
8, 354840, Note_off_c, 9, 55, 95
8, 354840, Note_off_c, 9, 38, 95
8, 354840, Note_off_c, 9, 41, 95
8, 354840, Note_on_c, 9, 45, 95
8, 354960, Note_off_c, 9, 45, 95
8, 354960, Note_on_c, 9, 47, 95
8, 355080, Note_off_c, 9, 47, 95
8, 355080, Note_on_c, 9, 48, 95
8, 355200, Note_off_c, 9, 48, 95
8, 355200, Note_on_c, 9, 38, 95
8, 355320, Note_off_c, 9, 38, 95
8, 355320, Note_on_c, 9, 45, 95
8, 355440, Note_off_c, 9, 45, 95
8, 355440, Note_on_c, 9, 47, 95
8, 355560, Note_off_c, 9, 47, 95
8, 355560, Note_on_c, 9, 48, 95
8, 355680, Note_off_c, 9, 48, 95
8, 355680, Note_on_c, 9, 55, 95
8, 355680, Note_on_c, 9, 38, 95
8, 355680, Note_on_c, 9, 41, 95
8, 355800, Note_off_c, 9, 55, 95
8, 355800, Note_off_c, 9, 38, 95
8, 355800, Note_off_c, 9, 41, 95
8, 355800, Note_on_c, 9, 45, 95
8, 355920, Note_off_c, 9, 45, 95
8, 355920, Note_on_c, 9, 47, 95
8, 356040, Note_off_c, 9, 47, 95
8, 356040, Note_on_c, 9, 48, 95
8, 356160, Note_off_c, 9, 48, 95
8, 356160, Note_on_c, 9, 38, 95
8, 356280, Note_off_c, 9, 38, 95
8, 356280, Note_on_c, 9, 45, 95
8, 356400, Note_off_c, 9, 45, 95
8, 356400, Note_on_c, 9, 47, 95
8, 356520, Note_off_c, 9, 47, 95
8, 356520, Note_on_c, 9, 48, 95
8, 356640, Note_off_c, 9, 48, 95
8, 356640, Note_on_c, 9, 38, 95
8, 357120, Note_off_c, 9, 38, 95
8, 357120, Note_on_c, 9, 42, 95
8, 357360, Note_off_c, 9, 42, 95
8, 357360, Note_on_c, 9, 42, 95
8, 357600, Note_off_c, 9, 42, 95
8, 357600, Note_on_c, 9, 42, 95
8, 357600, Note_on_c, 9, 38, 95
8, 357840, Note_off_c, 9, 42, 95
8, 357840, Note_off_c, 9, 38, 95
8, 357840, Note_on_c, 9, 42, 95
8, 358080, Note_off_c, 9, 42, 95
8, 358080, Note_on_c, 9, 42, 95
8, 358320, Note_off_c, 9, 42, 95
8, 358320, Note_on_c, 9, 42, 95
8, 358320, Note_on_c, 9, 36, 95
8, 358560, Note_off_c, 9, 42, 95
8, 358560, Note_off_c, 9, 36, 95
8, 358560, Note_on_c, 9, 42, 95
8, 358800, Note_off_c, 9, 42, 95
8, 358800, Note_on_c, 9, 42, 95
8, 359040, Note_off_c, 9, 42, 95
8, 359040, Note_on_c, 9, 42, 95
8, 359040, Note_on_c, 9, 38, 95
8, 359280, Note_off_c, 9, 42, 95
8, 359280, Note_off_c, 9, 38, 95
8, 359280, Note_on_c, 9, 42, 95
8, 359520, Note_off_c, 9, 42, 95
8, 359520, Note_on_c, 9, 42, 95
8, 359760, Note_off_c, 9, 42, 95
8, 359760, Note_on_c, 9, 42, 95
8, 359760, Note_on_c, 9, 36, 95
8, 360000, Note_off_c, 9, 42, 95
8, 360000, Note_off_c, 9, 36, 95
8, 360000, Note_on_c, 9, 42, 95
8, 360000, Note_on_c, 9, 36, 95
8, 360120, Note_off_c, 9, 42, 95
8, 360120, Note_off_c, 9, 36, 95
8, 360120, Note_on_c, 9, 42, 95
8, 360120, Note_on_c, 9, 38, 95
8, 360240, Note_off_c, 9, 42, 95
8, 360240, Note_off_c, 9, 38, 95
8, 360240, Note_on_c, 9, 42, 95
8, 360360, Note_off_c, 9, 42, 95
8, 360360, Note_on_c, 9, 42, 95
8, 360480, Note_off_c, 9, 42, 95
8, 360480, Note_on_c, 9, 42, 95
8, 360480, Note_on_c, 9, 36, 95
8, 360600, Note_off_c, 9, 42, 95
8, 360600, Note_off_c, 9, 36, 95
8, 360600, Note_on_c, 9, 42, 95
8, 360600, Note_on_c, 9, 38, 95
8, 360720, Note_off_c, 9, 42, 95
8, 360720, Note_off_c, 9, 38, 95
8, 360720, Note_on_c, 9, 42, 95
8, 360840, Note_off_c, 9, 42, 95
8, 360840, Note_on_c, 9, 42, 95
8, 360960, Note_off_c, 9, 42, 95
8, 360960, Note_on_c, 9, 42, 95
8, 360960, Note_on_c, 9, 36, 95
8, 361080, Note_off_c, 9, 42, 95
8, 361080, Note_off_c, 9, 36, 95
8, 361080, Note_on_c, 9, 42, 95
8, 361080, Note_on_c, 9, 38, 95
8, 361200, Note_off_c, 9, 42, 95
8, 361200, Note_off_c, 9, 38, 95
8, 361200, Note_on_c, 9, 42, 95
8, 361320, Note_off_c, 9, 42, 95
8, 361320, Note_on_c, 9, 42, 95
8, 361440, Note_off_c, 9, 42, 95
8, 361440, Note_on_c, 9, 51, 95
8, 361440, Note_on_c, 9, 36, 95
8, 361560, Note_off_c, 9, 51, 95
8, 361560, Note_off_c, 9, 36, 95
8, 361560, Note_on_c, 9, 51, 95
8, 361560, Note_on_c, 9, 38, 95
8, 361680, Note_off_c, 9, 51, 95
8, 361680, Note_off_c, 9, 38, 95
8, 361680, Note_on_c, 9, 51, 95
8, 361800, Note_off_c, 9, 51, 95
8, 361800, Note_on_c, 9, 51, 95
8, 361920, Note_off_c, 9, 51, 95
8, 361920, Note_on_c, 9, 51, 95
8, 361920, Note_on_c, 9, 36, 95
8, 362040, Note_off_c, 9, 51, 95
8, 362040, Note_off_c, 9, 36, 95
8, 362040, Note_on_c, 9, 51, 95
8, 362040, Note_on_c, 9, 38, 95
8, 362160, Note_off_c, 9, 51, 95
8, 362160, Note_off_c, 9, 38, 95
8, 362160, Note_on_c, 9, 51, 95
8, 362280, Note_off_c, 9, 51, 95
8, 362280, Note_on_c, 9, 51, 95
8, 362400, Note_off_c, 9, 51, 95
8, 362400, Note_on_c, 9, 51, 95
8, 362400, Note_on_c, 9, 36, 95
8, 362520, Note_off_c, 9, 51, 95
8, 362520, Note_off_c, 9, 36, 95
8, 362520, Note_on_c, 9, 51, 95
8, 362640, Note_off_c, 9, 51, 95
8, 362640, Note_on_c, 9, 51, 95
8, 362760, Note_off_c, 9, 51, 95
8, 362760, Note_on_c, 9, 51, 95
8, 362760, Note_on_c, 9, 38, 95
8, 362880, Note_off_c, 9, 51, 95
8, 362880, Note_off_c, 9, 38, 95
8, 362880, Note_on_c, 9, 49, 95
8, 362880, Note_on_c, 9, 38, 95
8, 362880, Note_on_c, 9, 41, 95
8, 363000, Note_off_c, 9, 41, 95
8, 363000, Note_on_c, 9, 41, 95
8, 363120, Note_off_c, 9, 41, 95
8, 363120, Note_on_c, 9, 41, 95
8, 363240, Note_off_c, 9, 41, 95
8, 363240, Note_on_c, 9, 41, 95
8, 363360, Note_off_c, 9, 41, 95
8, 363360, Note_on_c, 9, 41, 95
8, 363480, Note_off_c, 9, 41, 95
8, 363480, Note_on_c, 9, 41, 95
8, 363600, Note_off_c, 9, 41, 95
8, 363600, Note_on_c, 9, 41, 95
8, 363720, Note_off_c, 9, 41, 95
8, 363720, Note_on_c, 9, 41, 95
8, 363840, Note_off_c, 9, 41, 95
8, 363840, Note_on_c, 9, 41, 95
8, 363960, Note_off_c, 9, 41, 95
8, 363960, Note_on_c, 9, 41, 95
8, 364080, Note_off_c, 9, 41, 95
8, 364080, Note_on_c, 9, 41, 95
8, 364200, Note_off_c, 9, 41, 95
8, 364200, Note_on_c, 9, 41, 95
8, 364320, Note_off_c, 9, 41, 95
8, 364320, Note_on_c, 9, 41, 95
8, 364440, Note_off_c, 9, 41, 95
8, 364440, Note_on_c, 9, 41, 95
8, 364560, Note_off_c, 9, 41, 95
8, 364560, Note_on_c, 9, 41, 95
8, 364680, Note_off_c, 9, 41, 95
8, 364680, Note_on_c, 9, 41, 95
8, 364799, Note_off_c, 9, 41, 95
8, 364800, Note_off_c, 9, 49, 95
8, 364800, Note_off_c, 9, 38, 95
8, 364800, Note_on_c, 9, 44, 95
8, 364800, Note_on_c, 9, 36, 95
8, 364800, Note_on_c, 9, 45, 95
8, 364920, Note_off_c, 9, 44, 95
8, 364920, Note_on_c, 9, 44, 95
8, 365040, Note_off_c, 9, 44, 95
8, 365040, Note_on_c, 9, 44, 95
8, 365160, Note_off_c, 9, 44, 95
8, 365160, Note_on_c, 9, 44, 95
8, 365280, Note_off_c, 9, 44, 95
8, 365280, Note_on_c, 9, 44, 95
8, 365400, Note_off_c, 9, 44, 95
8, 365400, Note_on_c, 9, 44, 95
8, 365520, Note_off_c, 9, 44, 95
8, 365520, Note_on_c, 9, 44, 95
8, 365640, Note_off_c, 9, 44, 95
8, 365640, Note_on_c, 9, 44, 95
8, 365760, Note_off_c, 9, 44, 95
8, 365760, Note_on_c, 9, 44, 95
8, 365880, Note_off_c, 9, 44, 95
8, 365880, Note_on_c, 9, 44, 95
8, 366000, Note_off_c, 9, 44, 95
8, 366000, Note_on_c, 9, 44, 95
8, 366120, Note_off_c, 9, 44, 95
8, 366120, Note_on_c, 9, 44, 95
8, 366240, Note_off_c, 9, 44, 95
8, 366240, Note_on_c, 9, 44, 95
8, 366360, Note_off_c, 9, 44, 95
8, 366360, Note_on_c, 9, 44, 95
8, 366480, Note_off_c, 9, 44, 95
8, 366480, Note_on_c, 9, 44, 95
8, 366600, Note_off_c, 9, 44, 95
8, 366600, Note_on_c, 9, 44, 95
8, 366719, Note_off_c, 9, 44, 95
8, 366720, Note_off_c, 9, 36, 95
8, 366720, Note_off_c, 9, 45, 95
8, 366720, Note_on_c, 9, 51, 95
8, 366720, Note_on_c, 9, 37, 95
8, 366720, Note_on_c, 9, 47, 95
8, 366840, Note_off_c, 9, 51, 95
8, 366840, Note_on_c, 9, 51, 95
8, 366960, Note_off_c, 9, 51, 95
8, 366960, Note_on_c, 9, 51, 95
8, 367080, Note_off_c, 9, 51, 95
8, 367080, Note_on_c, 9, 51, 95
8, 367200, Note_off_c, 9, 51, 95
8, 367200, Note_on_c, 9, 51, 95
8, 367320, Note_off_c, 9, 51, 95
8, 367320, Note_on_c, 9, 51, 95
8, 367440, Note_off_c, 9, 51, 95
8, 367440, Note_on_c, 9, 51, 95
8, 367560, Note_off_c, 9, 51, 95
8, 367560, Note_on_c, 9, 51, 95
8, 367680, Note_off_c, 9, 51, 95
8, 367680, Note_on_c, 9, 51, 95
8, 367800, Note_off_c, 9, 51, 95
8, 367800, Note_on_c, 9, 51, 95
8, 367920, Note_off_c, 9, 51, 95
8, 367920, Note_on_c, 9, 51, 95
8, 368040, Note_off_c, 9, 51, 95
8, 368040, Note_on_c, 9, 51, 95
8, 368160, Note_off_c, 9, 51, 95
8, 368160, Note_on_c, 9, 51, 95
8, 368280, Note_off_c, 9, 51, 95
8, 368280, Note_on_c, 9, 51, 95
8, 368400, Note_off_c, 9, 51, 95
8, 368400, Note_on_c, 9, 51, 95
8, 368520, Note_off_c, 9, 51, 95
8, 368520, Note_on_c, 9, 51, 95
8, 368639, Note_off_c, 9, 51, 95
8, 368640, Note_off_c, 9, 37, 95
8, 368640, Note_off_c, 9, 47, 95
8, 368640, Note_on_c, 9, 49, 95
8, 368640, Note_on_c, 9, 38, 95
8, 368640, Note_on_c, 9, 41, 95
8, 369600, Note_off_c, 9, 49, 95
8, 369600, Note_off_c, 9, 38, 95
8, 369600, Note_off_c, 9, 41, 95
8, 369600, End_track
0, 0, End_of_file
