0, 0, Header, 1, 12, 120
1, 0, Start_track
1, 0, Title_t, "Angel, Words and Music by Sid Tepper and Roy C. Bennett"
1, 0, Title_t, "Recorded by Elvis Presley"
1, 0, Text_t, "Sequenced by Deb Ackley, 10/06/98\012"
1, 0, Text_t, "deb@who.net\012"
1, 0, Text_t, "MIDI Haven, http://midihaven.com/midi.html\012"
1, 0, MIDI_port, 0
1, 0, System_exclusive, 5, 126, 127, 9, 1, 247
1, 0, MIDI_port, 0
1, 0, Time_signature, 4, 2, 24, 8
1, 0, Key_signature, -3, "major"
1, 0, Tempo, 681818
1, 4, Tempo, 240000
1, 614, Tempo, 681818
1, 614, End_track
2, 0, Start_track
2, 0, MIDI_port, 0
2, 0, Title_t, "Bass"
2, 0, Control_c, 1, 121, 0
2, 0, Control_c, 1, 123, 0
2, 0, Control_c, 1, 91, 0
2, 0, Control_c, 1, 93, 0
2, 0, Control_c, 1, 64, 0
2, 127, Program_c, 1, 35
2, 128, Control_c, 1, 7, 95
2, 128, Control_c, 1, 10, 64
2, 960, Note_on_c, 1, 41, 61
2, 1126, Note_on_c, 1, 41, 0
2, 1140, Note_on_c, 1, 48, 72
2, 1198, Note_on_c, 1, 48, 0
2, 1200, Note_on_c, 1, 41, 72
2, 1320, Note_on_c, 1, 41, 0
2, 1320, Note_on_c, 1, 48, 57
2, 1380, Note_on_c, 1, 48, 57
2, 1383, Note_on_c, 1, 48, 0
2, 1440, Note_on_c, 1, 46, 85
2, 1443, Note_on_c, 1, 48, 0
2, 1675, Note_on_c, 1, 46, 0
2, 1680, Note_on_c, 1, 46, 74
2, 1917, Note_on_c, 1, 46, 0
2, 1920, Note_on_c, 1, 46, 61
2, 2086, Note_on_c, 1, 46, 0
2, 2099, Note_on_c, 1, 50, 72
2, 2157, Note_on_c, 1, 50, 0
2, 2160, Note_on_c, 1, 48, 72
2, 2280, Note_on_c, 1, 48, 0
2, 2280, Note_on_c, 1, 46, 72
2, 2339, Note_on_c, 1, 46, 57
2, 2340, Note_on_c, 1, 46, 0
2, 2402, Note_on_c, 1, 46, 0
2, 2402, Note_on_c, 1, 41, 85
2, 2637, Note_on_c, 1, 41, 0
2, 2640, Note_on_c, 1, 46, 74
2, 2877, Note_on_c, 1, 46, 0
2, 2881, Note_on_c, 1, 39, 61
2, 3047, Note_on_c, 1, 39, 0
2, 3059, Note_on_c, 1, 39, 72
2, 3117, Note_on_c, 1, 39, 0
2, 3122, Note_on_c, 1, 34, 72
2, 3291, Note_on_c, 1, 34, 0
2, 3299, Note_on_c, 1, 34, 57
2, 3360, Note_on_c, 1, 34, 0
2, 3361, Note_on_c, 1, 36, 61
2, 3527, Note_on_c, 1, 36, 0
2, 3539, Note_on_c, 1, 36, 72
2, 3597, Note_on_c, 1, 36, 0
2, 3602, Note_on_c, 1, 31, 72
2, 3771, Note_on_c, 1, 31, 0
2, 3779, Note_on_c, 1, 31, 57
2, 3840, Note_on_c, 1, 31, 0
2, 3841, Note_on_c, 1, 39, 61
2, 4007, Note_on_c, 1, 39, 0
2, 4019, Note_on_c, 1, 39, 72
2, 4077, Note_on_c, 1, 39, 0
2, 4082, Note_on_c, 1, 34, 72
2, 4251, Note_on_c, 1, 34, 0
2, 4259, Note_on_c, 1, 34, 57
2, 4320, Note_on_c, 1, 34, 0
2, 4321, Note_on_c, 1, 36, 61
2, 4487, Note_on_c, 1, 36, 0
2, 4499, Note_on_c, 1, 36, 72
2, 4557, Note_on_c, 1, 36, 0
2, 4562, Note_on_c, 1, 31, 72
2, 4731, Note_on_c, 1, 31, 0
2, 4739, Note_on_c, 1, 31, 57
2, 4800, Note_on_c, 1, 31, 0
2, 4801, Note_on_c, 1, 41, 61
2, 4967, Note_on_c, 1, 41, 0
2, 4979, Note_on_c, 1, 41, 72
2, 5037, Note_on_c, 1, 41, 0
2, 5041, Note_on_c, 1, 41, 61
2, 5160, Note_on_c, 1, 41, 0
2, 5161, Note_on_c, 1, 41, 61
2, 5280, Note_on_c, 1, 41, 0
2, 5281, Note_on_c, 1, 34, 61
2, 5447, Note_on_c, 1, 34, 0
2, 5459, Note_on_c, 1, 34, 72
2, 5517, Note_on_c, 1, 34, 0
2, 5522, Note_on_c, 1, 29, 72
2, 5691, Note_on_c, 1, 29, 0
2, 5699, Note_on_c, 1, 29, 57
2, 5760, Note_on_c, 1, 29, 0
2, 5761, Note_on_c, 1, 39, 61
2, 5927, Note_on_c, 1, 39, 0
2, 5939, Note_on_c, 1, 39, 72
2, 5997, Note_on_c, 1, 39, 0
2, 6002, Note_on_c, 1, 34, 72
2, 6171, Note_on_c, 1, 34, 0
2, 6179, Note_on_c, 1, 34, 57
2, 6240, Note_on_c, 1, 34, 0
2, 6241, Note_on_c, 1, 41, 61
2, 6407, Note_on_c, 1, 41, 0
2, 6419, Note_on_c, 1, 41, 72
2, 6477, Note_on_c, 1, 41, 0
2, 6481, Note_on_c, 1, 34, 61
2, 6647, Note_on_c, 1, 34, 0
2, 6659, Note_on_c, 1, 34, 72
2, 6717, Note_on_c, 1, 34, 0
2, 6721, Note_on_c, 1, 39, 61
2, 6887, Note_on_c, 1, 39, 0
2, 6899, Note_on_c, 1, 39, 72
2, 6957, Note_on_c, 1, 39, 0
2, 6962, Note_on_c, 1, 34, 72
2, 7131, Note_on_c, 1, 34, 0
2, 7139, Note_on_c, 1, 34, 57
2, 7200, Note_on_c, 1, 34, 0
2, 7201, Note_on_c, 1, 36, 61
2, 7367, Note_on_c, 1, 36, 0
2, 7379, Note_on_c, 1, 36, 72
2, 7437, Note_on_c, 1, 36, 0
2, 7442, Note_on_c, 1, 31, 72
2, 7611, Note_on_c, 1, 31, 0
2, 7619, Note_on_c, 1, 31, 57
2, 7680, Note_on_c, 1, 31, 0
2, 7681, Note_on_c, 1, 39, 61
2, 7847, Note_on_c, 1, 39, 0
2, 7859, Note_on_c, 1, 39, 72
2, 7917, Note_on_c, 1, 39, 0
2, 7922, Note_on_c, 1, 34, 72
2, 8091, Note_on_c, 1, 34, 0
2, 8099, Note_on_c, 1, 34, 57
2, 8160, Note_on_c, 1, 34, 0
2, 8161, Note_on_c, 1, 36, 61
2, 8327, Note_on_c, 1, 36, 0
2, 8339, Note_on_c, 1, 36, 72
2, 8397, Note_on_c, 1, 36, 0
2, 8402, Note_on_c, 1, 31, 72
2, 8571, Note_on_c, 1, 31, 0
2, 8579, Note_on_c, 1, 31, 57
2, 8640, Note_on_c, 1, 31, 0
2, 8641, Note_on_c, 1, 41, 61
2, 8807, Note_on_c, 1, 41, 0
2, 8819, Note_on_c, 1, 41, 72
2, 8877, Note_on_c, 1, 41, 0
2, 8882, Note_on_c, 1, 36, 72
2, 9051, Note_on_c, 1, 36, 0
2, 9059, Note_on_c, 1, 36, 57
2, 9120, Note_on_c, 1, 36, 0
2, 9121, Note_on_c, 1, 34, 61
2, 9287, Note_on_c, 1, 34, 0
2, 9299, Note_on_c, 1, 34, 72
2, 9357, Note_on_c, 1, 34, 0
2, 9362, Note_on_c, 1, 29, 72
2, 9531, Note_on_c, 1, 29, 0
2, 9539, Note_on_c, 1, 29, 57
2, 9600, Note_on_c, 1, 29, 0
2, 9601, Note_on_c, 1, 39, 61
2, 9767, Note_on_c, 1, 39, 0
2, 9779, Note_on_c, 1, 39, 72
2, 9837, Note_on_c, 1, 39, 0
2, 9842, Note_on_c, 1, 34, 72
2, 10011, Note_on_c, 1, 34, 0
2, 10019, Note_on_c, 1, 34, 57
2, 10080, Note_on_c, 1, 34, 0
2, 10081, Note_on_c, 1, 34, 61
2, 10247, Note_on_c, 1, 34, 0
2, 10259, Note_on_c, 1, 34, 72
2, 10317, Note_on_c, 1, 34, 0
2, 10321, Note_on_c, 1, 39, 61
2, 10487, Note_on_c, 1, 39, 0
2, 10499, Note_on_c, 1, 39, 72
2, 10557, Note_on_c, 1, 39, 0
2, 10561, Note_on_c, 1, 44, 61
2, 10727, Note_on_c, 1, 44, 0
2, 10739, Note_on_c, 1, 44, 72
2, 10797, Note_on_c, 1, 44, 0
2, 10802, Note_on_c, 1, 39, 72
2, 10971, Note_on_c, 1, 39, 0
2, 10979, Note_on_c, 1, 39, 57
2, 11042, Note_on_c, 1, 39, 0
2, 11042, Note_on_c, 1, 44, 85
2, 11277, Note_on_c, 1, 44, 0
2, 11280, Note_on_c, 1, 39, 74
2, 11517, Note_on_c, 1, 39, 0
2, 11521, Note_on_c, 1, 39, 61
2, 11687, Note_on_c, 1, 39, 0
2, 11699, Note_on_c, 1, 39, 72
2, 11757, Note_on_c, 1, 39, 0
2, 11762, Note_on_c, 1, 34, 72
2, 11931, Note_on_c, 1, 34, 0
2, 11939, Note_on_c, 1, 34, 57
2, 12000, Note_on_c, 1, 34, 0
2, 12001, Note_on_c, 1, 39, 61
2, 12167, Note_on_c, 1, 39, 0
2, 12179, Note_on_c, 1, 39, 72
2, 12237, Note_on_c, 1, 39, 0
2, 12242, Note_on_c, 1, 34, 72
2, 12411, Note_on_c, 1, 34, 0
2, 12419, Note_on_c, 1, 34, 57
2, 12480, Note_on_c, 1, 34, 0
2, 12481, Note_on_c, 1, 44, 61
2, 12647, Note_on_c, 1, 44, 0
2, 12659, Note_on_c, 1, 44, 72
2, 12717, Note_on_c, 1, 44, 0
2, 12722, Note_on_c, 1, 39, 72
2, 12891, Note_on_c, 1, 39, 0
2, 12899, Note_on_c, 1, 39, 57
2, 12960, Note_on_c, 1, 39, 0
2, 12961, Note_on_c, 1, 41, 61
2, 13127, Note_on_c, 1, 41, 0
2, 13139, Note_on_c, 1, 41, 72
2, 13197, Note_on_c, 1, 41, 0
2, 13202, Note_on_c, 1, 36, 72
2, 13371, Note_on_c, 1, 36, 0
2, 13379, Note_on_c, 1, 36, 57
2, 13440, Note_on_c, 1, 36, 0
2, 13441, Note_on_c, 1, 34, 61
2, 13607, Note_on_c, 1, 34, 0
2, 13619, Note_on_c, 1, 34, 72
2, 13677, Note_on_c, 1, 34, 0
2, 13682, Note_on_c, 1, 29, 72
2, 13851, Note_on_c, 1, 29, 0
2, 13859, Note_on_c, 1, 29, 57
2, 13922, Note_on_c, 1, 29, 0
2, 13922, Note_on_c, 1, 34, 85
2, 14157, Note_on_c, 1, 34, 0
2, 14160, Note_on_c, 1, 29, 74
2, 14397, Note_on_c, 1, 29, 0
2, 14401, Note_on_c, 1, 39, 61
2, 14567, Note_on_c, 1, 39, 0
2, 14579, Note_on_c, 1, 39, 72
2, 14637, Note_on_c, 1, 39, 0
2, 14642, Note_on_c, 1, 34, 72
2, 14811, Note_on_c, 1, 34, 0
2, 14819, Note_on_c, 1, 34, 57
2, 14880, Note_on_c, 1, 34, 0
2, 14881, Note_on_c, 1, 36, 61
2, 15047, Note_on_c, 1, 36, 0
2, 15059, Note_on_c, 1, 36, 72
2, 15117, Note_on_c, 1, 36, 0
2, 15122, Note_on_c, 1, 31, 72
2, 15291, Note_on_c, 1, 31, 0
2, 15299, Note_on_c, 1, 31, 57
2, 15360, Note_on_c, 1, 31, 0
2, 15361, Note_on_c, 1, 39, 61
2, 15527, Note_on_c, 1, 39, 0
2, 15539, Note_on_c, 1, 39, 72
2, 15597, Note_on_c, 1, 39, 0
2, 15602, Note_on_c, 1, 34, 72
2, 15771, Note_on_c, 1, 34, 0
2, 15779, Note_on_c, 1, 34, 57
2, 15840, Note_on_c, 1, 34, 0
2, 15841, Note_on_c, 1, 36, 61
2, 16007, Note_on_c, 1, 36, 0
2, 16019, Note_on_c, 1, 36, 72
2, 16077, Note_on_c, 1, 36, 0
2, 16082, Note_on_c, 1, 31, 72
2, 16251, Note_on_c, 1, 31, 0
2, 16259, Note_on_c, 1, 31, 57
2, 16320, Note_on_c, 1, 31, 0
2, 16321, Note_on_c, 1, 41, 61
2, 16487, Note_on_c, 1, 41, 0
2, 16499, Note_on_c, 1, 41, 72
2, 16557, Note_on_c, 1, 41, 0
2, 16561, Note_on_c, 1, 41, 61
2, 16680, Note_on_c, 1, 41, 0
2, 16681, Note_on_c, 1, 41, 61
2, 16800, Note_on_c, 1, 41, 0
2, 16801, Note_on_c, 1, 34, 61
2, 16967, Note_on_c, 1, 34, 0
2, 16979, Note_on_c, 1, 34, 72
2, 17037, Note_on_c, 1, 34, 0
2, 17042, Note_on_c, 1, 29, 72
2, 17211, Note_on_c, 1, 29, 0
2, 17219, Note_on_c, 1, 29, 57
2, 17280, Note_on_c, 1, 29, 0
2, 17281, Note_on_c, 1, 39, 61
2, 17447, Note_on_c, 1, 39, 0
2, 17459, Note_on_c, 1, 39, 72
2, 17517, Note_on_c, 1, 39, 0
2, 17522, Note_on_c, 1, 34, 72
2, 17691, Note_on_c, 1, 34, 0
2, 17699, Note_on_c, 1, 34, 57
2, 17760, Note_on_c, 1, 34, 0
2, 17761, Note_on_c, 1, 41, 61
2, 17927, Note_on_c, 1, 41, 0
2, 17939, Note_on_c, 1, 41, 72
2, 17997, Note_on_c, 1, 41, 0
2, 18001, Note_on_c, 1, 34, 61
2, 18167, Note_on_c, 1, 34, 0
2, 18179, Note_on_c, 1, 34, 72
2, 18237, Note_on_c, 1, 34, 0
2, 18241, Note_on_c, 1, 39, 61
2, 18407, Note_on_c, 1, 39, 0
2, 18419, Note_on_c, 1, 39, 72
2, 18477, Note_on_c, 1, 39, 0
2, 18482, Note_on_c, 1, 34, 72
2, 18651, Note_on_c, 1, 34, 0
2, 18659, Note_on_c, 1, 34, 57
2, 18720, Note_on_c, 1, 34, 0
2, 18721, Note_on_c, 1, 36, 61
2, 18887, Note_on_c, 1, 36, 0
2, 18899, Note_on_c, 1, 36, 72
2, 18957, Note_on_c, 1, 36, 0
2, 18962, Note_on_c, 1, 31, 72
2, 19131, Note_on_c, 1, 31, 0
2, 19139, Note_on_c, 1, 31, 57
2, 19200, Note_on_c, 1, 31, 0
2, 19201, Note_on_c, 1, 39, 61
2, 19367, Note_on_c, 1, 39, 0
2, 19379, Note_on_c, 1, 39, 72
2, 19437, Note_on_c, 1, 39, 0
2, 19442, Note_on_c, 1, 34, 72
2, 19611, Note_on_c, 1, 34, 0
2, 19619, Note_on_c, 1, 34, 57
2, 19680, Note_on_c, 1, 34, 0
2, 19681, Note_on_c, 1, 36, 61
2, 19847, Note_on_c, 1, 36, 0
2, 19859, Note_on_c, 1, 36, 72
2, 19917, Note_on_c, 1, 36, 0
2, 19922, Note_on_c, 1, 31, 72
2, 20091, Note_on_c, 1, 31, 0
2, 20099, Note_on_c, 1, 31, 57
2, 20160, Note_on_c, 1, 31, 0
2, 20161, Note_on_c, 1, 41, 61
2, 20327, Note_on_c, 1, 41, 0
2, 20339, Note_on_c, 1, 41, 72
2, 20397, Note_on_c, 1, 41, 0
2, 20401, Note_on_c, 1, 41, 61
2, 20520, Note_on_c, 1, 41, 0
2, 20521, Note_on_c, 1, 41, 61
2, 20640, Note_on_c, 1, 41, 0
2, 20641, Note_on_c, 1, 34, 61
2, 20807, Note_on_c, 1, 34, 0
2, 20819, Note_on_c, 1, 34, 72
2, 20877, Note_on_c, 1, 34, 0
2, 20882, Note_on_c, 1, 29, 72
2, 21051, Note_on_c, 1, 29, 0
2, 21059, Note_on_c, 1, 29, 57
2, 21120, Note_on_c, 1, 29, 0
2, 21121, Note_on_c, 1, 39, 61
2, 21287, Note_on_c, 1, 39, 0
2, 21299, Note_on_c, 1, 39, 72
2, 21357, Note_on_c, 1, 39, 0
2, 21362, Note_on_c, 1, 34, 72
2, 21531, Note_on_c, 1, 34, 0
2, 21539, Note_on_c, 1, 34, 57
2, 21600, Note_on_c, 1, 34, 0
2, 21601, Note_on_c, 1, 41, 61
2, 21767, Note_on_c, 1, 41, 0
2, 21779, Note_on_c, 1, 41, 72
2, 21837, Note_on_c, 1, 41, 0
2, 21841, Note_on_c, 1, 34, 61
2, 22007, Note_on_c, 1, 34, 0
2, 22019, Note_on_c, 1, 34, 72
2, 22077, Note_on_c, 1, 34, 0
2, 22081, Note_on_c, 1, 39, 61
2, 22247, Note_on_c, 1, 39, 0
2, 22259, Note_on_c, 1, 39, 72
2, 22317, Note_on_c, 1, 39, 0
2, 22322, Note_on_c, 1, 34, 72
2, 22491, Note_on_c, 1, 34, 0
2, 22499, Note_on_c, 1, 34, 57
2, 22560, Note_on_c, 1, 34, 0
2, 22561, Note_on_c, 1, 36, 61
2, 22727, Note_on_c, 1, 36, 0
2, 22739, Note_on_c, 1, 36, 72
2, 22797, Note_on_c, 1, 36, 0
2, 22802, Note_on_c, 1, 31, 72
2, 22971, Note_on_c, 1, 31, 0
2, 22979, Note_on_c, 1, 31, 57
2, 23040, Note_on_c, 1, 31, 0
2, 23041, Note_on_c, 1, 39, 61
2, 23207, Note_on_c, 1, 39, 0
2, 23219, Note_on_c, 1, 39, 72
2, 23277, Note_on_c, 1, 39, 0
2, 23282, Note_on_c, 1, 34, 72
2, 23451, Note_on_c, 1, 34, 0
2, 23459, Note_on_c, 1, 34, 57
2, 23520, Note_on_c, 1, 34, 0
2, 23521, Note_on_c, 1, 36, 61
2, 23687, Note_on_c, 1, 36, 0
2, 23699, Note_on_c, 1, 36, 72
2, 23757, Note_on_c, 1, 36, 0
2, 23762, Note_on_c, 1, 31, 72
2, 23931, Note_on_c, 1, 31, 0
2, 23939, Note_on_c, 1, 31, 57
2, 24000, Note_on_c, 1, 31, 0
2, 24001, Note_on_c, 1, 41, 61
2, 24167, Note_on_c, 1, 41, 0
2, 24179, Note_on_c, 1, 41, 72
2, 24237, Note_on_c, 1, 41, 0
2, 24242, Note_on_c, 1, 36, 72
2, 24411, Note_on_c, 1, 36, 0
2, 24419, Note_on_c, 1, 36, 57
2, 24480, Note_on_c, 1, 36, 0
2, 24481, Note_on_c, 1, 34, 61
2, 24647, Note_on_c, 1, 34, 0
2, 24659, Note_on_c, 1, 34, 72
2, 24717, Note_on_c, 1, 34, 0
2, 24722, Note_on_c, 1, 29, 72
2, 24891, Note_on_c, 1, 29, 0
2, 24899, Note_on_c, 1, 29, 57
2, 24960, Note_on_c, 1, 29, 0
2, 24961, Note_on_c, 1, 39, 61
2, 25127, Note_on_c, 1, 39, 0
2, 25139, Note_on_c, 1, 39, 72
2, 25197, Note_on_c, 1, 39, 0
2, 25202, Note_on_c, 1, 34, 72
2, 25371, Note_on_c, 1, 34, 0
2, 25379, Note_on_c, 1, 34, 57
2, 25440, Note_on_c, 1, 34, 0
2, 25441, Note_on_c, 1, 34, 61
2, 25607, Note_on_c, 1, 34, 0
2, 25619, Note_on_c, 1, 34, 72
2, 25677, Note_on_c, 1, 34, 0
2, 25681, Note_on_c, 1, 39, 61
2, 25847, Note_on_c, 1, 39, 0
2, 25859, Note_on_c, 1, 39, 72
2, 25917, Note_on_c, 1, 39, 0
2, 25921, Note_on_c, 1, 44, 61
2, 26087, Note_on_c, 1, 44, 0
2, 26099, Note_on_c, 1, 44, 72
2, 26157, Note_on_c, 1, 44, 0
2, 26162, Note_on_c, 1, 39, 72
2, 26331, Note_on_c, 1, 39, 0
2, 26339, Note_on_c, 1, 39, 57
2, 26400, Note_on_c, 1, 39, 0
2, 26401, Note_on_c, 1, 44, 61
2, 26567, Note_on_c, 1, 44, 0
2, 26579, Note_on_c, 1, 44, 72
2, 26637, Note_on_c, 1, 44, 0
2, 26642, Note_on_c, 1, 39, 72
2, 26811, Note_on_c, 1, 39, 0
2, 26819, Note_on_c, 1, 39, 57
2, 26880, Note_on_c, 1, 39, 0
2, 26881, Note_on_c, 1, 39, 61
2, 27047, Note_on_c, 1, 39, 0
2, 27059, Note_on_c, 1, 39, 72
2, 27117, Note_on_c, 1, 39, 0
2, 27122, Note_on_c, 1, 34, 72
2, 27291, Note_on_c, 1, 34, 0
2, 27299, Note_on_c, 1, 34, 57
2, 27360, Note_on_c, 1, 34, 0
2, 27361, Note_on_c, 1, 39, 61
2, 27527, Note_on_c, 1, 39, 0
2, 27539, Note_on_c, 1, 39, 72
2, 27597, Note_on_c, 1, 39, 0
2, 27602, Note_on_c, 1, 34, 72
2, 27771, Note_on_c, 1, 34, 0
2, 27779, Note_on_c, 1, 34, 57
2, 27840, Note_on_c, 1, 34, 0
2, 27841, Note_on_c, 1, 44, 61
2, 28007, Note_on_c, 1, 44, 0
2, 28019, Note_on_c, 1, 44, 72
2, 28077, Note_on_c, 1, 44, 0
2, 28082, Note_on_c, 1, 39, 72
2, 28251, Note_on_c, 1, 39, 0
2, 28259, Note_on_c, 1, 39, 57
2, 28320, Note_on_c, 1, 39, 0
2, 28321, Note_on_c, 1, 41, 61
2, 28487, Note_on_c, 1, 41, 0
2, 28499, Note_on_c, 1, 41, 72
2, 28557, Note_on_c, 1, 41, 0
2, 28562, Note_on_c, 1, 36, 72
2, 28731, Note_on_c, 1, 36, 0
2, 28739, Note_on_c, 1, 36, 57
2, 28800, Note_on_c, 1, 36, 0
2, 28801, Note_on_c, 1, 34, 61
2, 28967, Note_on_c, 1, 34, 0
2, 28979, Note_on_c, 1, 34, 72
2, 29037, Note_on_c, 1, 34, 0
2, 29042, Note_on_c, 1, 29, 72
2, 29211, Note_on_c, 1, 29, 0
2, 29219, Note_on_c, 1, 29, 57
2, 29280, Note_on_c, 1, 29, 0
2, 29281, Note_on_c, 1, 34, 61
2, 29447, Note_on_c, 1, 34, 0
2, 29459, Note_on_c, 1, 34, 72
2, 29517, Note_on_c, 1, 34, 0
2, 29522, Note_on_c, 1, 29, 72
2, 29691, Note_on_c, 1, 29, 0
2, 29699, Note_on_c, 1, 29, 57
2, 29760, Note_on_c, 1, 29, 0
2, 29761, Note_on_c, 1, 39, 61
2, 29927, Note_on_c, 1, 39, 0
2, 29939, Note_on_c, 1, 39, 72
2, 29997, Note_on_c, 1, 39, 0
2, 30002, Note_on_c, 1, 34, 72
2, 30171, Note_on_c, 1, 34, 0
2, 30179, Note_on_c, 1, 34, 57
2, 30240, Note_on_c, 1, 34, 0
2, 30241, Note_on_c, 1, 36, 61
2, 30407, Note_on_c, 1, 36, 0
2, 30419, Note_on_c, 1, 36, 72
2, 30477, Note_on_c, 1, 36, 0
2, 30482, Note_on_c, 1, 31, 72
2, 30651, Note_on_c, 1, 31, 0
2, 30659, Note_on_c, 1, 31, 57
2, 30720, Note_on_c, 1, 31, 0
2, 30721, Note_on_c, 1, 39, 61
2, 30887, Note_on_c, 1, 39, 0
2, 30899, Note_on_c, 1, 39, 72
2, 30957, Note_on_c, 1, 39, 0
2, 30962, Note_on_c, 1, 34, 72
2, 31131, Note_on_c, 1, 34, 0
2, 31139, Note_on_c, 1, 34, 57
2, 31200, Note_on_c, 1, 34, 0
2, 31201, Note_on_c, 1, 36, 61
2, 31367, Note_on_c, 1, 36, 0
2, 31379, Note_on_c, 1, 36, 72
2, 31437, Note_on_c, 1, 36, 0
2, 31442, Note_on_c, 1, 31, 72
2, 31611, Note_on_c, 1, 31, 0
2, 31619, Note_on_c, 1, 31, 57
2, 31680, Note_on_c, 1, 31, 0
2, 31681, Note_on_c, 1, 41, 61
2, 31847, Note_on_c, 1, 41, 0
2, 31859, Note_on_c, 1, 41, 72
2, 31917, Note_on_c, 1, 41, 0
2, 31921, Note_on_c, 1, 41, 61
2, 32040, Note_on_c, 1, 41, 0
2, 32041, Note_on_c, 1, 41, 61
2, 32160, Note_on_c, 1, 41, 0
2, 32161, Note_on_c, 1, 34, 61
2, 32327, Note_on_c, 1, 34, 0
2, 32339, Note_on_c, 1, 34, 72
2, 32397, Note_on_c, 1, 34, 0
2, 32402, Note_on_c, 1, 29, 72
2, 32571, Note_on_c, 1, 29, 0
2, 32579, Note_on_c, 1, 29, 57
2, 32640, Note_on_c, 1, 29, 0
2, 32641, Note_on_c, 1, 39, 61
2, 32807, Note_on_c, 1, 39, 0
2, 32819, Note_on_c, 1, 39, 72
2, 32877, Note_on_c, 1, 39, 0
2, 32882, Note_on_c, 1, 34, 72
2, 33051, Note_on_c, 1, 34, 0
2, 33059, Note_on_c, 1, 34, 57
2, 33120, Note_on_c, 1, 34, 0
2, 33121, Note_on_c, 1, 39, 61
2, 33287, Note_on_c, 1, 39, 0
2, 33287, End_track
3, 0, Start_track
3, 0, MIDI_port, 0
3, 0, Title_t, "Piano"
3, 0, Control_c, 2, 121, 0
3, 0, Control_c, 2, 123, 0
3, 0, Control_c, 2, 91, 30
3, 0, Control_c, 2, 93, 0
3, 0, Control_c, 2, 64, 0
3, 132, Program_c, 2, 0
3, 133, Control_c, 2, 7, 90
3, 133, Control_c, 2, 10, 59
3, 960, Note_on_c, 2, 51, 62
3, 1082, Note_on_c, 2, 67, 51
3, 1142, Note_on_c, 2, 58, 29
3, 1205, Note_on_c, 2, 46, 49
3, 1210, Note_on_c, 2, 51, 0
3, 1240, Note_on_c, 2, 58, 0
3, 1268, Note_on_c, 2, 58, 49
3, 1327, Note_on_c, 2, 63, 62
3, 1444, Note_on_c, 2, 46, 0
3, 1446, Note_on_c, 2, 51, 61
3, 1455, Note_on_c, 2, 58, 0
3, 1486, Note_on_c, 2, 63, 0
3, 1495, Note_on_c, 2, 67, 0
3, 1569, Note_on_c, 2, 67, 63
3, 1636, Note_on_c, 2, 58, 18
3, 1651, Note_on_c, 2, 58, 0
3, 1684, Note_on_c, 2, 46, 38
3, 1691, Note_on_c, 2, 51, 0
3, 1755, Note_on_c, 2, 58, 51
3, 1815, Note_on_c, 2, 63, 64
3, 1817, Note_on_c, 2, 67, 0
3, 1859, Note_on_c, 2, 58, 0
3, 1874, Note_on_c, 2, 58, 44
3, 1920, Note_on_c, 2, 58, 0
3, 1920, Note_on_c, 2, 46, 0
3, 1920, Note_on_c, 2, 63, 0
3, 1920, Note_on_c, 2, 51, 62
3, 2042, Note_on_c, 2, 67, 51
3, 2102, Note_on_c, 2, 58, 29
3, 2165, Note_on_c, 2, 46, 49
3, 2170, Note_on_c, 2, 51, 0
3, 2200, Note_on_c, 2, 58, 0
3, 2228, Note_on_c, 2, 58, 49
3, 2287, Note_on_c, 2, 63, 62
3, 2404, Note_on_c, 2, 46, 0
3, 2406, Note_on_c, 2, 51, 61
3, 2415, Note_on_c, 2, 58, 0
3, 2446, Note_on_c, 2, 63, 0
3, 2455, Note_on_c, 2, 67, 0
3, 2529, Note_on_c, 2, 67, 63
3, 2596, Note_on_c, 2, 58, 18
3, 2611, Note_on_c, 2, 58, 0
3, 2644, Note_on_c, 2, 46, 38
3, 2651, Note_on_c, 2, 51, 0
3, 2715, Note_on_c, 2, 58, 51
3, 2775, Note_on_c, 2, 63, 64
3, 2777, Note_on_c, 2, 67, 0
3, 2819, Note_on_c, 2, 58, 0
3, 2834, Note_on_c, 2, 58, 44
3, 2880, Note_on_c, 2, 58, 0
3, 2880, Note_on_c, 2, 46, 0
3, 2880, Note_on_c, 2, 63, 0
3, 2880, Note_on_c, 2, 51, 62
3, 3002, Note_on_c, 2, 67, 51
3, 3062, Note_on_c, 2, 58, 29
3, 3125, Note_on_c, 2, 46, 49
3, 3130, Note_on_c, 2, 51, 0
3, 3160, Note_on_c, 2, 58, 0
3, 3188, Note_on_c, 2, 58, 49
3, 3247, Note_on_c, 2, 63, 62
3, 3360, Note_on_c, 2, 63, 0
3, 3360, Note_on_c, 2, 46, 0
3, 3360, Note_on_c, 2, 67, 0
3, 3360, Note_on_c, 2, 58, 0
3, 3360, Note_on_c, 2, 48, 62
3, 3482, Note_on_c, 2, 63, 51
3, 3542, Note_on_c, 2, 55, 29
3, 3605, Note_on_c, 2, 43, 49
3, 3610, Note_on_c, 2, 48, 0
3, 3640, Note_on_c, 2, 55, 0
3, 3668, Note_on_c, 2, 55, 49
3, 3727, Note_on_c, 2, 60, 62
3, 3840, Note_on_c, 2, 60, 0
3, 3840, Note_on_c, 2, 43, 0
3, 3840, Note_on_c, 2, 63, 0
3, 3840, Note_on_c, 2, 55, 0
3, 3840, Note_on_c, 2, 51, 62
3, 3962, Note_on_c, 2, 67, 51
3, 4022, Note_on_c, 2, 58, 29
3, 4085, Note_on_c, 2, 46, 49
3, 4090, Note_on_c, 2, 51, 0
3, 4120, Note_on_c, 2, 58, 0
3, 4148, Note_on_c, 2, 58, 49
3, 4207, Note_on_c, 2, 63, 62
3, 4320, Note_on_c, 2, 63, 0
3, 4320, Note_on_c, 2, 46, 0
3, 4320, Note_on_c, 2, 67, 0
3, 4320, Note_on_c, 2, 58, 0
3, 4320, Note_on_c, 2, 48, 62
3, 4442, Note_on_c, 2, 63, 51
3, 4502, Note_on_c, 2, 55, 29
3, 4565, Note_on_c, 2, 43, 49
3, 4570, Note_on_c, 2, 48, 0
3, 4600, Note_on_c, 2, 55, 0
3, 4628, Note_on_c, 2, 55, 49
3, 4687, Note_on_c, 2, 60, 62
3, 4800, Note_on_c, 2, 60, 0
3, 4800, Note_on_c, 2, 43, 0
3, 4800, Note_on_c, 2, 63, 0
3, 4800, Note_on_c, 2, 55, 0
3, 4800, Note_on_c, 2, 53, 62
3, 4922, Note_on_c, 2, 68, 51
3, 4982, Note_on_c, 2, 60, 29
3, 5040, Note_on_c, 2, 60, 0
3, 5040, Note_on_c, 2, 68, 0
3, 5040, Note_on_c, 2, 53, 0
3, 5040, Note_on_c, 2, 53, 62
3, 5160, Note_on_c, 2, 53, 0
3, 5160, Note_on_c, 2, 53, 62
3, 5280, Note_on_c, 2, 53, 0
3, 5280, Note_on_c, 2, 46, 62
3, 5402, Note_on_c, 2, 62, 51
3, 5462, Note_on_c, 2, 53, 29
3, 5525, Note_on_c, 2, 41, 49
3, 5530, Note_on_c, 2, 46, 0
3, 5560, Note_on_c, 2, 53, 0
3, 5588, Note_on_c, 2, 53, 49
3, 5647, Note_on_c, 2, 58, 62
3, 5760, Note_on_c, 2, 58, 0
3, 5760, Note_on_c, 2, 41, 0
3, 5760, Note_on_c, 2, 62, 0
3, 5760, Note_on_c, 2, 53, 0
3, 5760, Note_on_c, 2, 51, 62
3, 5882, Note_on_c, 2, 67, 51
3, 5942, Note_on_c, 2, 58, 29
3, 6005, Note_on_c, 2, 46, 49
3, 6010, Note_on_c, 2, 51, 0
3, 6040, Note_on_c, 2, 58, 0
3, 6068, Note_on_c, 2, 58, 49
3, 6127, Note_on_c, 2, 63, 62
3, 6240, Note_on_c, 2, 63, 0
3, 6240, Note_on_c, 2, 46, 0
3, 6240, Note_on_c, 2, 67, 0
3, 6240, Note_on_c, 2, 58, 0
3, 6240, Note_on_c, 2, 53, 62
3, 6362, Note_on_c, 2, 68, 51
3, 6422, Note_on_c, 2, 60, 29
3, 6480, Note_on_c, 2, 60, 0
3, 6480, Note_on_c, 2, 68, 0
3, 6480, Note_on_c, 2, 53, 0
3, 6480, Note_on_c, 2, 46, 62
3, 6602, Note_on_c, 2, 62, 51
3, 6662, Note_on_c, 2, 54, 29
3, 6720, Note_on_c, 2, 54, 0
3, 6720, Note_on_c, 2, 62, 0
3, 6720, Note_on_c, 2, 46, 0
3, 6720, Note_on_c, 2, 51, 62
3, 6842, Note_on_c, 2, 67, 51
3, 6902, Note_on_c, 2, 58, 29
3, 6965, Note_on_c, 2, 46, 49
3, 6970, Note_on_c, 2, 51, 0
3, 7000, Note_on_c, 2, 58, 0
3, 7028, Note_on_c, 2, 58, 49
3, 7087, Note_on_c, 2, 63, 62
3, 7200, Note_on_c, 2, 63, 0
3, 7200, Note_on_c, 2, 46, 0
3, 7200, Note_on_c, 2, 67, 0
3, 7200, Note_on_c, 2, 58, 0
3, 7200, Note_on_c, 2, 48, 62
3, 7322, Note_on_c, 2, 63, 51
3, 7382, Note_on_c, 2, 55, 29
3, 7445, Note_on_c, 2, 43, 49
3, 7450, Note_on_c, 2, 48, 0
3, 7480, Note_on_c, 2, 55, 0
3, 7508, Note_on_c, 2, 55, 49
3, 7567, Note_on_c, 2, 60, 62
3, 7680, Note_on_c, 2, 60, 0
3, 7680, Note_on_c, 2, 43, 0
3, 7680, Note_on_c, 2, 63, 0
3, 7680, Note_on_c, 2, 55, 0
3, 7680, Note_on_c, 2, 51, 62
3, 7802, Note_on_c, 2, 67, 51
3, 7862, Note_on_c, 2, 58, 29
3, 7925, Note_on_c, 2, 46, 49
3, 7930, Note_on_c, 2, 51, 0
3, 7960, Note_on_c, 2, 58, 0
3, 7988, Note_on_c, 2, 58, 49
3, 8047, Note_on_c, 2, 63, 62
3, 8160, Note_on_c, 2, 63, 0
3, 8160, Note_on_c, 2, 46, 0
3, 8160, Note_on_c, 2, 67, 0
3, 8160, Note_on_c, 2, 58, 0
3, 8160, Note_on_c, 2, 48, 62
3, 8282, Note_on_c, 2, 63, 51
3, 8342, Note_on_c, 2, 55, 29
3, 8405, Note_on_c, 2, 43, 49
3, 8410, Note_on_c, 2, 48, 0
3, 8440, Note_on_c, 2, 55, 0
3, 8468, Note_on_c, 2, 55, 49
3, 8527, Note_on_c, 2, 60, 62
3, 8640, Note_on_c, 2, 60, 0
3, 8640, Note_on_c, 2, 43, 0
3, 8640, Note_on_c, 2, 63, 0
3, 8640, Note_on_c, 2, 55, 0
3, 8640, Note_on_c, 2, 53, 62
3, 8762, Note_on_c, 2, 68, 51
3, 8822, Note_on_c, 2, 60, 29
3, 8885, Note_on_c, 2, 48, 49
3, 8890, Note_on_c, 2, 53, 0
3, 8920, Note_on_c, 2, 60, 0
3, 8948, Note_on_c, 2, 60, 49
3, 9007, Note_on_c, 2, 65, 62
3, 9120, Note_on_c, 2, 65, 0
3, 9120, Note_on_c, 2, 48, 0
3, 9120, Note_on_c, 2, 68, 0
3, 9120, Note_on_c, 2, 60, 0
3, 9120, Note_on_c, 2, 46, 62
3, 9242, Note_on_c, 2, 62, 51
3, 9302, Note_on_c, 2, 53, 29
3, 9365, Note_on_c, 2, 41, 49
3, 9370, Note_on_c, 2, 46, 0
3, 9400, Note_on_c, 2, 53, 0
3, 9428, Note_on_c, 2, 53, 49
3, 9487, Note_on_c, 2, 58, 62
3, 9600, Note_on_c, 2, 58, 0
3, 9600, Note_on_c, 2, 41, 0
3, 9600, Note_on_c, 2, 62, 0
3, 9600, Note_on_c, 2, 53, 0
3, 9600, Note_on_c, 2, 51, 62
3, 9722, Note_on_c, 2, 67, 51
3, 9782, Note_on_c, 2, 58, 29
3, 9845, Note_on_c, 2, 46, 49
3, 9850, Note_on_c, 2, 51, 0
3, 9880, Note_on_c, 2, 58, 0
3, 9908, Note_on_c, 2, 58, 49
3, 9967, Note_on_c, 2, 63, 62
3, 10080, Note_on_c, 2, 63, 0
3, 10080, Note_on_c, 2, 46, 0
3, 10080, Note_on_c, 2, 67, 0
3, 10080, Note_on_c, 2, 58, 0
3, 10080, Note_on_c, 2, 46, 62
3, 10202, Note_on_c, 2, 61, 51
3, 10262, Note_on_c, 2, 53, 29
3, 10320, Note_on_c, 2, 53, 0
3, 10320, Note_on_c, 2, 61, 0
3, 10320, Note_on_c, 2, 46, 0
3, 10320, Note_on_c, 2, 51, 62
3, 10442, Note_on_c, 2, 67, 51
3, 10502, Note_on_c, 2, 58, 29
3, 10560, Note_on_c, 2, 58, 0
3, 10560, Note_on_c, 2, 67, 0
3, 10560, Note_on_c, 2, 51, 0
3, 10560, Note_on_c, 2, 44, 62
3, 10682, Note_on_c, 2, 60, 51
3, 10742, Note_on_c, 2, 51, 29
3, 10805, Note_on_c, 2, 39, 49
3, 10810, Note_on_c, 2, 44, 0
3, 10840, Note_on_c, 2, 51, 0
3, 10868, Note_on_c, 2, 51, 49
3, 10927, Note_on_c, 2, 56, 62
3, 11044, Note_on_c, 2, 39, 0
3, 11046, Note_on_c, 2, 44, 61
3, 11055, Note_on_c, 2, 51, 0
3, 11086, Note_on_c, 2, 56, 0
3, 11095, Note_on_c, 2, 60, 0
3, 11169, Note_on_c, 2, 60, 63
3, 11236, Note_on_c, 2, 51, 18
3, 11251, Note_on_c, 2, 51, 0
3, 11284, Note_on_c, 2, 39, 38
3, 11291, Note_on_c, 2, 44, 0
3, 11355, Note_on_c, 2, 51, 51
3, 11415, Note_on_c, 2, 56, 64
3, 11417, Note_on_c, 2, 60, 0
3, 11459, Note_on_c, 2, 51, 0
3, 11474, Note_on_c, 2, 51, 44
3, 11520, Note_on_c, 2, 51, 0
3, 11520, Note_on_c, 2, 39, 0
3, 11520, Note_on_c, 2, 56, 0
3, 11520, Note_on_c, 2, 51, 62
3, 11642, Note_on_c, 2, 67, 51
3, 11702, Note_on_c, 2, 58, 29
3, 11765, Note_on_c, 2, 46, 49
3, 11770, Note_on_c, 2, 51, 0
3, 11800, Note_on_c, 2, 58, 0
3, 11828, Note_on_c, 2, 58, 49
3, 11887, Note_on_c, 2, 63, 62
3, 12000, Note_on_c, 2, 63, 0
3, 12000, Note_on_c, 2, 46, 0
3, 12000, Note_on_c, 2, 67, 0
3, 12000, Note_on_c, 2, 58, 0
3, 12000, Note_on_c, 2, 51, 62
3, 12122, Note_on_c, 2, 67, 51
3, 12182, Note_on_c, 2, 58, 29
3, 12245, Note_on_c, 2, 46, 49
3, 12250, Note_on_c, 2, 51, 0
3, 12280, Note_on_c, 2, 58, 0
3, 12308, Note_on_c, 2, 58, 49
3, 12367, Note_on_c, 2, 63, 62
3, 12480, Note_on_c, 2, 63, 0
3, 12480, Note_on_c, 2, 46, 0
3, 12480, Note_on_c, 2, 67, 0
3, 12480, Note_on_c, 2, 58, 0
3, 12480, Note_on_c, 2, 44, 62
3, 12602, Note_on_c, 2, 60, 51
3, 12662, Note_on_c, 2, 51, 29
3, 12725, Note_on_c, 2, 39, 49
3, 12730, Note_on_c, 2, 44, 0
3, 12760, Note_on_c, 2, 51, 0
3, 12788, Note_on_c, 2, 51, 49
3, 12847, Note_on_c, 2, 56, 62
3, 12960, Note_on_c, 2, 56, 0
3, 12960, Note_on_c, 2, 39, 0
3, 12960, Note_on_c, 2, 60, 0
3, 12960, Note_on_c, 2, 51, 0
3, 12960, Note_on_c, 2, 53, 62
3, 13082, Note_on_c, 2, 69, 51
3, 13142, Note_on_c, 2, 60, 29
3, 13205, Note_on_c, 2, 48, 49
3, 13210, Note_on_c, 2, 53, 0
3, 13240, Note_on_c, 2, 60, 0
3, 13268, Note_on_c, 2, 60, 49
3, 13327, Note_on_c, 2, 65, 62
3, 13440, Note_on_c, 2, 65, 0
3, 13440, Note_on_c, 2, 48, 0
3, 13440, Note_on_c, 2, 69, 0
3, 13440, Note_on_c, 2, 60, 0
3, 13440, Note_on_c, 2, 46, 62
3, 13562, Note_on_c, 2, 62, 51
3, 13622, Note_on_c, 2, 53, 29
3, 13685, Note_on_c, 2, 41, 49
3, 13690, Note_on_c, 2, 46, 0
3, 13720, Note_on_c, 2, 53, 0
3, 13748, Note_on_c, 2, 53, 49
3, 13807, Note_on_c, 2, 58, 62
3, 13924, Note_on_c, 2, 41, 0
3, 13926, Note_on_c, 2, 46, 61
3, 13935, Note_on_c, 2, 53, 0
3, 13966, Note_on_c, 2, 58, 0
3, 13975, Note_on_c, 2, 62, 0
3, 14049, Note_on_c, 2, 62, 63
3, 14116, Note_on_c, 2, 53, 18
3, 14131, Note_on_c, 2, 53, 0
3, 14164, Note_on_c, 2, 41, 38
3, 14171, Note_on_c, 2, 46, 0
3, 14235, Note_on_c, 2, 53, 51
3, 14295, Note_on_c, 2, 58, 64
3, 14297, Note_on_c, 2, 62, 0
3, 14339, Note_on_c, 2, 53, 0
3, 14354, Note_on_c, 2, 53, 44
3, 14400, Note_on_c, 2, 53, 0
3, 14400, Note_on_c, 2, 41, 0
3, 14400, Note_on_c, 2, 58, 0
3, 14400, Note_on_c, 2, 51, 62
3, 14522, Note_on_c, 2, 67, 51
3, 14582, Note_on_c, 2, 58, 29
3, 14645, Note_on_c, 2, 46, 49
3, 14650, Note_on_c, 2, 51, 0
3, 14680, Note_on_c, 2, 58, 0
3, 14708, Note_on_c, 2, 58, 49
3, 14767, Note_on_c, 2, 63, 62
3, 14880, Note_on_c, 2, 63, 0
3, 14880, Note_on_c, 2, 46, 0
3, 14880, Note_on_c, 2, 67, 0
3, 14880, Note_on_c, 2, 58, 0
3, 14880, Note_on_c, 2, 48, 62
3, 15002, Note_on_c, 2, 63, 51
3, 15062, Note_on_c, 2, 55, 29
3, 15125, Note_on_c, 2, 43, 49
3, 15130, Note_on_c, 2, 48, 0
3, 15160, Note_on_c, 2, 55, 0
3, 15188, Note_on_c, 2, 55, 49
3, 15247, Note_on_c, 2, 60, 62
3, 15360, Note_on_c, 2, 60, 0
3, 15360, Note_on_c, 2, 43, 0
3, 15360, Note_on_c, 2, 63, 0
3, 15360, Note_on_c, 2, 55, 0
3, 15360, Note_on_c, 2, 51, 62
3, 15482, Note_on_c, 2, 67, 51
3, 15542, Note_on_c, 2, 58, 29
3, 15605, Note_on_c, 2, 46, 49
3, 15610, Note_on_c, 2, 51, 0
3, 15640, Note_on_c, 2, 58, 0
3, 15668, Note_on_c, 2, 58, 49
3, 15727, Note_on_c, 2, 63, 62
3, 15840, Note_on_c, 2, 63, 0
3, 15840, Note_on_c, 2, 46, 0
3, 15840, Note_on_c, 2, 67, 0
3, 15840, Note_on_c, 2, 58, 0
3, 15840, Note_on_c, 2, 48, 62
3, 15962, Note_on_c, 2, 63, 51
3, 16022, Note_on_c, 2, 55, 29
3, 16085, Note_on_c, 2, 43, 49
3, 16090, Note_on_c, 2, 48, 0
3, 16120, Note_on_c, 2, 55, 0
3, 16148, Note_on_c, 2, 55, 49
3, 16207, Note_on_c, 2, 60, 62
3, 16320, Note_on_c, 2, 60, 0
3, 16320, Note_on_c, 2, 43, 0
3, 16320, Note_on_c, 2, 63, 0
3, 16320, Note_on_c, 2, 55, 0
3, 16320, Note_on_c, 2, 53, 62
3, 16442, Note_on_c, 2, 68, 51
3, 16502, Note_on_c, 2, 60, 29
3, 16560, Note_on_c, 2, 60, 0
3, 16560, Note_on_c, 2, 68, 0
3, 16560, Note_on_c, 2, 53, 0
3, 16560, Note_on_c, 2, 53, 62
3, 16680, Note_on_c, 2, 53, 0
3, 16680, Note_on_c, 2, 53, 62
3, 16800, Note_on_c, 2, 53, 0
3, 16800, Note_on_c, 2, 46, 62
3, 16922, Note_on_c, 2, 62, 51
3, 16982, Note_on_c, 2, 53, 29
3, 17045, Note_on_c, 2, 41, 49
3, 17050, Note_on_c, 2, 46, 0
3, 17080, Note_on_c, 2, 53, 0
3, 17108, Note_on_c, 2, 53, 49
3, 17167, Note_on_c, 2, 58, 62
3, 17280, Note_on_c, 2, 58, 0
3, 17280, Note_on_c, 2, 41, 0
3, 17280, Note_on_c, 2, 62, 0
3, 17280, Note_on_c, 2, 53, 0
3, 17280, Note_on_c, 2, 51, 62
3, 17402, Note_on_c, 2, 67, 51
3, 17462, Note_on_c, 2, 58, 29
3, 17525, Note_on_c, 2, 46, 49
3, 17530, Note_on_c, 2, 51, 0
3, 17560, Note_on_c, 2, 58, 0
3, 17588, Note_on_c, 2, 58, 49
3, 17647, Note_on_c, 2, 63, 62
3, 17760, Note_on_c, 2, 63, 0
3, 17760, Note_on_c, 2, 46, 0
3, 17760, Note_on_c, 2, 67, 0
3, 17760, Note_on_c, 2, 58, 0
3, 17760, Note_on_c, 2, 53, 62
3, 17882, Note_on_c, 2, 68, 51
3, 17942, Note_on_c, 2, 60, 29
3, 18000, Note_on_c, 2, 60, 0
3, 18000, Note_on_c, 2, 68, 0
3, 18000, Note_on_c, 2, 53, 0
3, 18000, Note_on_c, 2, 46, 62
3, 18122, Note_on_c, 2, 62, 51
3, 18182, Note_on_c, 2, 54, 29
3, 18240, Note_on_c, 2, 54, 0
3, 18240, Note_on_c, 2, 62, 0
3, 18240, Note_on_c, 2, 46, 0
3, 18240, Note_on_c, 2, 51, 62
3, 18362, Note_on_c, 2, 67, 51
3, 18422, Note_on_c, 2, 58, 29
3, 18485, Note_on_c, 2, 46, 49
3, 18490, Note_on_c, 2, 51, 0
3, 18520, Note_on_c, 2, 58, 0
3, 18548, Note_on_c, 2, 58, 49
3, 18607, Note_on_c, 2, 63, 62
3, 18720, Note_on_c, 2, 63, 0
3, 18720, Note_on_c, 2, 46, 0
3, 18720, Note_on_c, 2, 67, 0
3, 18720, Note_on_c, 2, 58, 0
3, 18720, Note_on_c, 2, 48, 62
3, 18842, Note_on_c, 2, 63, 51
3, 18902, Note_on_c, 2, 55, 29
3, 18965, Note_on_c, 2, 43, 49
3, 18970, Note_on_c, 2, 48, 0
3, 19000, Note_on_c, 2, 55, 0
3, 19028, Note_on_c, 2, 55, 49
3, 19087, Note_on_c, 2, 60, 62
3, 19200, Note_on_c, 2, 60, 0
3, 19200, Note_on_c, 2, 43, 0
3, 19200, Note_on_c, 2, 63, 0
3, 19200, Note_on_c, 2, 55, 0
3, 19200, Note_on_c, 2, 51, 62
3, 19322, Note_on_c, 2, 67, 51
3, 19382, Note_on_c, 2, 58, 29
3, 19445, Note_on_c, 2, 46, 49
3, 19450, Note_on_c, 2, 51, 0
3, 19480, Note_on_c, 2, 58, 0
3, 19508, Note_on_c, 2, 58, 49
3, 19567, Note_on_c, 2, 63, 62
3, 19680, Note_on_c, 2, 63, 0
3, 19680, Note_on_c, 2, 46, 0
3, 19680, Note_on_c, 2, 67, 0
3, 19680, Note_on_c, 2, 58, 0
3, 19680, Note_on_c, 2, 48, 62
3, 19802, Note_on_c, 2, 63, 51
3, 19862, Note_on_c, 2, 55, 29
3, 19925, Note_on_c, 2, 43, 49
3, 19930, Note_on_c, 2, 48, 0
3, 19960, Note_on_c, 2, 55, 0
3, 19988, Note_on_c, 2, 55, 49
3, 20047, Note_on_c, 2, 60, 62
3, 20160, Note_on_c, 2, 60, 0
3, 20160, Note_on_c, 2, 43, 0
3, 20160, Note_on_c, 2, 63, 0
3, 20160, Note_on_c, 2, 55, 0
3, 20160, Note_on_c, 2, 53, 62
3, 20282, Note_on_c, 2, 68, 51
3, 20342, Note_on_c, 2, 60, 29
3, 20400, Note_on_c, 2, 60, 0
3, 20400, Note_on_c, 2, 68, 0
3, 20400, Note_on_c, 2, 53, 0
3, 20400, Note_on_c, 2, 53, 62
3, 20520, Note_on_c, 2, 53, 0
3, 20520, Note_on_c, 2, 53, 62
3, 20640, Note_on_c, 2, 53, 0
3, 20640, Note_on_c, 2, 46, 62
3, 20762, Note_on_c, 2, 62, 51
3, 20822, Note_on_c, 2, 53, 29
3, 20885, Note_on_c, 2, 41, 49
3, 20890, Note_on_c, 2, 46, 0
3, 20920, Note_on_c, 2, 53, 0
3, 20948, Note_on_c, 2, 53, 49
3, 21007, Note_on_c, 2, 58, 62
3, 21120, Note_on_c, 2, 58, 0
3, 21120, Note_on_c, 2, 41, 0
3, 21120, Note_on_c, 2, 62, 0
3, 21120, Note_on_c, 2, 53, 0
3, 21120, Note_on_c, 2, 51, 62
3, 21242, Note_on_c, 2, 67, 51
3, 21302, Note_on_c, 2, 58, 29
3, 21365, Note_on_c, 2, 46, 49
3, 21370, Note_on_c, 2, 51, 0
3, 21400, Note_on_c, 2, 58, 0
3, 21428, Note_on_c, 2, 58, 49
3, 21487, Note_on_c, 2, 63, 62
3, 21600, Note_on_c, 2, 63, 0
3, 21600, Note_on_c, 2, 46, 0
3, 21600, Note_on_c, 2, 67, 0
3, 21600, Note_on_c, 2, 58, 0
3, 21600, Note_on_c, 2, 53, 62
3, 21722, Note_on_c, 2, 68, 51
3, 21782, Note_on_c, 2, 60, 29
3, 21840, Note_on_c, 2, 60, 0
3, 21840, Note_on_c, 2, 68, 0
3, 21840, Note_on_c, 2, 53, 0
3, 21840, Note_on_c, 2, 46, 62
3, 21962, Note_on_c, 2, 62, 51
3, 22022, Note_on_c, 2, 54, 29
3, 22080, Note_on_c, 2, 54, 0
3, 22080, Note_on_c, 2, 62, 0
3, 22080, Note_on_c, 2, 46, 0
3, 22080, Note_on_c, 2, 51, 62
3, 22202, Note_on_c, 2, 67, 51
3, 22262, Note_on_c, 2, 58, 29
3, 22325, Note_on_c, 2, 46, 49
3, 22330, Note_on_c, 2, 51, 0
3, 22360, Note_on_c, 2, 58, 0
3, 22388, Note_on_c, 2, 58, 49
3, 22447, Note_on_c, 2, 63, 62
3, 22560, Note_on_c, 2, 63, 0
3, 22560, Note_on_c, 2, 46, 0
3, 22560, Note_on_c, 2, 67, 0
3, 22560, Note_on_c, 2, 58, 0
3, 22560, Note_on_c, 2, 48, 62
3, 22682, Note_on_c, 2, 63, 51
3, 22742, Note_on_c, 2, 55, 29
3, 22805, Note_on_c, 2, 43, 49
3, 22810, Note_on_c, 2, 48, 0
3, 22840, Note_on_c, 2, 55, 0
3, 22868, Note_on_c, 2, 55, 49
3, 22927, Note_on_c, 2, 60, 62
3, 23040, Note_on_c, 2, 60, 0
3, 23040, Note_on_c, 2, 43, 0
3, 23040, Note_on_c, 2, 63, 0
3, 23040, Note_on_c, 2, 55, 0
3, 23040, Note_on_c, 2, 51, 62
3, 23162, Note_on_c, 2, 67, 51
3, 23222, Note_on_c, 2, 58, 29
3, 23285, Note_on_c, 2, 46, 49
3, 23290, Note_on_c, 2, 51, 0
3, 23320, Note_on_c, 2, 58, 0
3, 23348, Note_on_c, 2, 58, 49
3, 23407, Note_on_c, 2, 63, 62
3, 23520, Note_on_c, 2, 63, 0
3, 23520, Note_on_c, 2, 46, 0
3, 23520, Note_on_c, 2, 67, 0
3, 23520, Note_on_c, 2, 58, 0
3, 23520, Note_on_c, 2, 48, 62
3, 23642, Note_on_c, 2, 63, 51
3, 23702, Note_on_c, 2, 55, 29
3, 23765, Note_on_c, 2, 43, 49
3, 23770, Note_on_c, 2, 48, 0
3, 23800, Note_on_c, 2, 55, 0
3, 23828, Note_on_c, 2, 55, 49
3, 23887, Note_on_c, 2, 60, 62
3, 24000, Note_on_c, 2, 60, 0
3, 24000, Note_on_c, 2, 43, 0
3, 24000, Note_on_c, 2, 63, 0
3, 24000, Note_on_c, 2, 55, 0
3, 24000, Note_on_c, 2, 53, 62
3, 24122, Note_on_c, 2, 68, 51
3, 24182, Note_on_c, 2, 60, 29
3, 24245, Note_on_c, 2, 48, 49
3, 24250, Note_on_c, 2, 53, 0
3, 24280, Note_on_c, 2, 60, 0
3, 24308, Note_on_c, 2, 60, 49
3, 24367, Note_on_c, 2, 65, 62
3, 24480, Note_on_c, 2, 65, 0
3, 24480, Note_on_c, 2, 48, 0
3, 24480, Note_on_c, 2, 68, 0
3, 24480, Note_on_c, 2, 60, 0
3, 24480, Note_on_c, 2, 46, 62
3, 24602, Note_on_c, 2, 62, 51
3, 24662, Note_on_c, 2, 53, 29
3, 24725, Note_on_c, 2, 41, 49
3, 24730, Note_on_c, 2, 46, 0
3, 24760, Note_on_c, 2, 53, 0
3, 24788, Note_on_c, 2, 53, 49
3, 24847, Note_on_c, 2, 58, 62
3, 24960, Note_on_c, 2, 58, 0
3, 24960, Note_on_c, 2, 41, 0
3, 24960, Note_on_c, 2, 62, 0
3, 24960, Note_on_c, 2, 53, 0
3, 24960, Note_on_c, 2, 51, 62
3, 25082, Note_on_c, 2, 67, 51
3, 25142, Note_on_c, 2, 58, 29
3, 25205, Note_on_c, 2, 46, 49
3, 25210, Note_on_c, 2, 51, 0
3, 25240, Note_on_c, 2, 58, 0
3, 25268, Note_on_c, 2, 58, 49
3, 25327, Note_on_c, 2, 63, 62
3, 25440, Note_on_c, 2, 63, 0
3, 25440, Note_on_c, 2, 46, 0
3, 25440, Note_on_c, 2, 67, 0
3, 25440, Note_on_c, 2, 58, 0
3, 25440, Note_on_c, 2, 46, 62
3, 25562, Note_on_c, 2, 61, 51
3, 25622, Note_on_c, 2, 53, 29
3, 25680, Note_on_c, 2, 53, 0
3, 25680, Note_on_c, 2, 61, 0
3, 25680, Note_on_c, 2, 46, 0
3, 25680, Note_on_c, 2, 51, 62
3, 25802, Note_on_c, 2, 67, 51
3, 25862, Note_on_c, 2, 58, 29
3, 25920, Note_on_c, 2, 58, 0
3, 25920, Note_on_c, 2, 67, 0
3, 25920, Note_on_c, 2, 51, 0
3, 25920, Note_on_c, 2, 44, 62
3, 26042, Note_on_c, 2, 60, 51
3, 26102, Note_on_c, 2, 51, 29
3, 26165, Note_on_c, 2, 39, 49
3, 26170, Note_on_c, 2, 44, 0
3, 26200, Note_on_c, 2, 51, 0
3, 26228, Note_on_c, 2, 51, 49
3, 26287, Note_on_c, 2, 56, 62
3, 26400, Note_on_c, 2, 56, 0
3, 26400, Note_on_c, 2, 39, 0
3, 26400, Note_on_c, 2, 60, 0
3, 26400, Note_on_c, 2, 51, 0
3, 26400, Note_on_c, 2, 44, 62
3, 26522, Note_on_c, 2, 60, 51
3, 26582, Note_on_c, 2, 51, 29
3, 26645, Note_on_c, 2, 39, 49
3, 26650, Note_on_c, 2, 44, 0
3, 26680, Note_on_c, 2, 51, 0
3, 26708, Note_on_c, 2, 51, 49
3, 26767, Note_on_c, 2, 56, 62
3, 26880, Note_on_c, 2, 56, 0
3, 26880, Note_on_c, 2, 39, 0
3, 26880, Note_on_c, 2, 60, 0
3, 26880, Note_on_c, 2, 51, 0
3, 26880, Note_on_c, 2, 51, 62
3, 27002, Note_on_c, 2, 67, 51
3, 27062, Note_on_c, 2, 58, 29
3, 27125, Note_on_c, 2, 46, 49
3, 27130, Note_on_c, 2, 51, 0
3, 27160, Note_on_c, 2, 58, 0
3, 27188, Note_on_c, 2, 58, 49
3, 27247, Note_on_c, 2, 63, 62
3, 27360, Note_on_c, 2, 63, 0
3, 27360, Note_on_c, 2, 46, 0
3, 27360, Note_on_c, 2, 67, 0
3, 27360, Note_on_c, 2, 58, 0
3, 27360, Note_on_c, 2, 51, 62
3, 27482, Note_on_c, 2, 67, 51
3, 27542, Note_on_c, 2, 58, 29
3, 27605, Note_on_c, 2, 46, 49
3, 27610, Note_on_c, 2, 51, 0
3, 27640, Note_on_c, 2, 58, 0
3, 27668, Note_on_c, 2, 58, 49
3, 27727, Note_on_c, 2, 63, 62
3, 27840, Note_on_c, 2, 63, 0
3, 27840, Note_on_c, 2, 46, 0
3, 27840, Note_on_c, 2, 67, 0
3, 27840, Note_on_c, 2, 58, 0
3, 27840, Note_on_c, 2, 44, 62
3, 27962, Note_on_c, 2, 60, 51
3, 28022, Note_on_c, 2, 51, 29
3, 28085, Note_on_c, 2, 39, 49
3, 28090, Note_on_c, 2, 44, 0
3, 28120, Note_on_c, 2, 51, 0
3, 28148, Note_on_c, 2, 51, 49
3, 28207, Note_on_c, 2, 56, 62
3, 28320, Note_on_c, 2, 56, 0
3, 28320, Note_on_c, 2, 39, 0
3, 28320, Note_on_c, 2, 60, 0
3, 28320, Note_on_c, 2, 51, 0
3, 28320, Note_on_c, 2, 53, 62
3, 28442, Note_on_c, 2, 69, 51
3, 28502, Note_on_c, 2, 60, 29
3, 28565, Note_on_c, 2, 48, 49
3, 28570, Note_on_c, 2, 53, 0
3, 28600, Note_on_c, 2, 60, 0
3, 28628, Note_on_c, 2, 60, 49
3, 28687, Note_on_c, 2, 65, 62
3, 28800, Note_on_c, 2, 65, 0
3, 28800, Note_on_c, 2, 48, 0
3, 28800, Note_on_c, 2, 69, 0
3, 28800, Note_on_c, 2, 60, 0
3, 28800, Note_on_c, 2, 46, 62
3, 28922, Note_on_c, 2, 62, 51
3, 28982, Note_on_c, 2, 53, 29
3, 29045, Note_on_c, 2, 41, 49
3, 29050, Note_on_c, 2, 46, 0
3, 29080, Note_on_c, 2, 53, 0
3, 29108, Note_on_c, 2, 53, 49
3, 29167, Note_on_c, 2, 58, 62
3, 29280, Note_on_c, 2, 58, 0
3, 29280, Note_on_c, 2, 41, 0
3, 29280, Note_on_c, 2, 62, 0
3, 29280, Note_on_c, 2, 53, 0
3, 29280, Note_on_c, 2, 46, 62
3, 29402, Note_on_c, 2, 62, 51
3, 29462, Note_on_c, 2, 53, 29
3, 29525, Note_on_c, 2, 41, 49
3, 29530, Note_on_c, 2, 46, 0
3, 29560, Note_on_c, 2, 53, 0
3, 29588, Note_on_c, 2, 53, 49
3, 29647, Note_on_c, 2, 58, 62
3, 29760, Note_on_c, 2, 58, 0
3, 29760, Note_on_c, 2, 41, 0
3, 29760, Note_on_c, 2, 62, 0
3, 29760, Note_on_c, 2, 53, 0
3, 29760, Note_on_c, 2, 51, 62
3, 29882, Note_on_c, 2, 67, 51
3, 29942, Note_on_c, 2, 58, 29
3, 30005, Note_on_c, 2, 46, 49
3, 30010, Note_on_c, 2, 51, 0
3, 30040, Note_on_c, 2, 58, 0
3, 30068, Note_on_c, 2, 58, 49
3, 30127, Note_on_c, 2, 63, 62
3, 30240, Note_on_c, 2, 63, 0
3, 30240, Note_on_c, 2, 46, 0
3, 30240, Note_on_c, 2, 67, 0
3, 30240, Note_on_c, 2, 58, 0
3, 30240, Note_on_c, 2, 48, 62
3, 30362, Note_on_c, 2, 63, 51
3, 30422, Note_on_c, 2, 55, 29
3, 30485, Note_on_c, 2, 43, 49
3, 30490, Note_on_c, 2, 48, 0
3, 30520, Note_on_c, 2, 55, 0
3, 30548, Note_on_c, 2, 55, 49
3, 30607, Note_on_c, 2, 60, 62
3, 30720, Note_on_c, 2, 60, 0
3, 30720, Note_on_c, 2, 43, 0
3, 30720, Note_on_c, 2, 63, 0
3, 30720, Note_on_c, 2, 55, 0
3, 30720, Note_on_c, 2, 51, 62
3, 30842, Note_on_c, 2, 67, 51
3, 30902, Note_on_c, 2, 58, 29
3, 30965, Note_on_c, 2, 46, 49
3, 30970, Note_on_c, 2, 51, 0
3, 31000, Note_on_c, 2, 58, 0
3, 31028, Note_on_c, 2, 58, 49
3, 31087, Note_on_c, 2, 63, 62
3, 31200, Note_on_c, 2, 63, 0
3, 31200, Note_on_c, 2, 46, 0
3, 31200, Note_on_c, 2, 67, 0
3, 31200, Note_on_c, 2, 58, 0
3, 31200, Note_on_c, 2, 48, 62
3, 31322, Note_on_c, 2, 63, 51
3, 31382, Note_on_c, 2, 55, 29
3, 31445, Note_on_c, 2, 43, 49
3, 31450, Note_on_c, 2, 48, 0
3, 31480, Note_on_c, 2, 55, 0
3, 31508, Note_on_c, 2, 55, 49
3, 31567, Note_on_c, 2, 60, 62
3, 31680, Note_on_c, 2, 60, 0
3, 31680, Note_on_c, 2, 43, 0
3, 31680, Note_on_c, 2, 63, 0
3, 31680, Note_on_c, 2, 55, 0
3, 31680, Note_on_c, 2, 53, 62
3, 31802, Note_on_c, 2, 68, 51
3, 31862, Note_on_c, 2, 60, 29
3, 31920, Note_on_c, 2, 60, 0
3, 31920, Note_on_c, 2, 68, 0
3, 31920, Note_on_c, 2, 53, 0
3, 31920, Note_on_c, 2, 53, 62
3, 32040, Note_on_c, 2, 53, 0
3, 32040, Note_on_c, 2, 53, 62
3, 32160, Note_on_c, 2, 53, 0
3, 32160, Note_on_c, 2, 46, 62
3, 32282, Note_on_c, 2, 62, 51
3, 32342, Note_on_c, 2, 53, 29
3, 32405, Note_on_c, 2, 41, 49
3, 32410, Note_on_c, 2, 46, 0
3, 32440, Note_on_c, 2, 53, 0
3, 32468, Note_on_c, 2, 53, 49
3, 32527, Note_on_c, 2, 58, 62
3, 32640, Note_on_c, 2, 58, 0
3, 32640, Note_on_c, 2, 41, 0
3, 32640, Note_on_c, 2, 62, 0
3, 32640, Note_on_c, 2, 53, 0
3, 32640, Note_on_c, 2, 51, 62
3, 32762, Note_on_c, 2, 67, 51
3, 32822, Note_on_c, 2, 58, 29
3, 32885, Note_on_c, 2, 46, 49
3, 32890, Note_on_c, 2, 51, 0
3, 32920, Note_on_c, 2, 58, 0
3, 32948, Note_on_c, 2, 58, 49
3, 33007, Note_on_c, 2, 63, 62
3, 33120, Note_on_c, 2, 63, 0
3, 33120, Note_on_c, 2, 46, 0
3, 33120, Note_on_c, 2, 67, 0
3, 33120, Note_on_c, 2, 58, 0
3, 33120, Note_on_c, 2, 51, 62
3, 33370, Note_on_c, 2, 51, 0
3, 33600, Control_c, 2, 64, 0
3, 33600, End_track
4, 0, Start_track
4, 0, MIDI_port, 0
4, 0, Title_t, "Guitar"
4, 0, Control_c, 3, 121, 0
4, 0, Control_c, 3, 123, 0
4, 0, Control_c, 3, 91, 30
4, 0, Control_c, 3, 93, 0
4, 0, Control_c, 3, 64, 0
4, 137, Program_c, 3, 25
4, 138, Control_c, 3, 7, 90
4, 138, Control_c, 3, 10, 74
4, 966, Note_on_c, 3, 51, 82
4, 1028, Note_on_c, 3, 58, 24
4, 1086, Note_on_c, 3, 63, 41
4, 1099, Note_on_c, 3, 58, 0
4, 1142, Note_on_c, 3, 58, 61
4, 1202, Note_on_c, 3, 55, 76
4, 1216, Note_on_c, 3, 58, 0
4, 1264, Note_on_c, 3, 58, 57
4, 1277, Note_on_c, 3, 63, 0
4, 1320, Note_on_c, 3, 63, 29
4, 1351, Note_on_c, 3, 58, 0
4, 1380, Note_on_c, 3, 58, 36
4, 1399, Note_on_c, 3, 51, 0
4, 1438, Note_on_c, 3, 51, 85
4, 1459, Note_on_c, 3, 58, 0
4, 1502, Note_on_c, 3, 58, 49
4, 1514, Note_on_c, 3, 63, 0
4, 1557, Note_on_c, 3, 63, 54
4, 1569, Note_on_c, 3, 58, 0
4, 1622, Note_on_c, 3, 55, 0
4, 1622, Note_on_c, 3, 58, 51
4, 1685, Note_on_c, 3, 55, 85
4, 1699, Note_on_c, 3, 58, 0
4, 1750, Note_on_c, 3, 58, 40
4, 1771, Note_on_c, 3, 63, 0
4, 1807, Note_on_c, 3, 63, 41
4, 1820, Note_on_c, 3, 58, 0
4, 1867, Note_on_c, 3, 58, 49
4, 1885, Note_on_c, 3, 51, 0
4, 1920, Note_on_c, 3, 63, 0
4, 1920, Note_on_c, 3, 55, 0
4, 1920, Note_on_c, 3, 58, 0
4, 1926, Note_on_c, 3, 51, 82
4, 1988, Note_on_c, 3, 58, 24
4, 2046, Note_on_c, 3, 63, 41
4, 2059, Note_on_c, 3, 58, 0
4, 2102, Note_on_c, 3, 58, 61
4, 2162, Note_on_c, 3, 55, 76
4, 2176, Note_on_c, 3, 58, 0
4, 2224, Note_on_c, 3, 58, 57
4, 2237, Note_on_c, 3, 63, 0
4, 2280, Note_on_c, 3, 63, 29
4, 2311, Note_on_c, 3, 58, 0
4, 2340, Note_on_c, 3, 58, 36
4, 2359, Note_on_c, 3, 51, 0
4, 2398, Note_on_c, 3, 51, 85
4, 2419, Note_on_c, 3, 58, 0
4, 2462, Note_on_c, 3, 58, 49
4, 2474, Note_on_c, 3, 63, 0
4, 2517, Note_on_c, 3, 63, 54
4, 2529, Note_on_c, 3, 58, 0
4, 2582, Note_on_c, 3, 55, 0
4, 2582, Note_on_c, 3, 58, 51
4, 2645, Note_on_c, 3, 55, 85
4, 2659, Note_on_c, 3, 58, 0
4, 2710, Note_on_c, 3, 58, 40
4, 2731, Note_on_c, 3, 63, 0
4, 2767, Note_on_c, 3, 63, 41
4, 2780, Note_on_c, 3, 58, 0
4, 2827, Note_on_c, 3, 58, 49
4, 2845, Note_on_c, 3, 51, 0
4, 2880, Note_on_c, 3, 63, 0
4, 2880, Note_on_c, 3, 55, 0
4, 2880, Note_on_c, 3, 58, 0
4, 2886, Note_on_c, 3, 51, 82
4, 2948, Note_on_c, 3, 58, 24
4, 3006, Note_on_c, 3, 62, 41
4, 3019, Note_on_c, 3, 58, 0
4, 3062, Note_on_c, 3, 58, 61
4, 3122, Note_on_c, 3, 55, 76
4, 3136, Note_on_c, 3, 58, 0
4, 3184, Note_on_c, 3, 58, 57
4, 3197, Note_on_c, 3, 62, 0
4, 3240, Note_on_c, 3, 62, 29
4, 3271, Note_on_c, 3, 58, 0
4, 3300, Note_on_c, 3, 58, 36
4, 3319, Note_on_c, 3, 51, 0
4, 3360, Note_on_c, 3, 62, 0
4, 3360, Note_on_c, 3, 55, 0
4, 3360, Note_on_c, 3, 58, 0
4, 3366, Note_on_c, 3, 48, 82
4, 3428, Note_on_c, 3, 55, 24
4, 3486, Note_on_c, 3, 58, 41
4, 3499, Note_on_c, 3, 55, 0
4, 3542, Note_on_c, 3, 55, 61
4, 3602, Note_on_c, 3, 51, 76
4, 3616, Note_on_c, 3, 55, 0
4, 3664, Note_on_c, 3, 55, 57
4, 3677, Note_on_c, 3, 58, 0
4, 3720, Note_on_c, 3, 58, 29
4, 3751, Note_on_c, 3, 55, 0
4, 3780, Note_on_c, 3, 55, 36
4, 3799, Note_on_c, 3, 48, 0
4, 3840, Note_on_c, 3, 58, 0
4, 3840, Note_on_c, 3, 51, 0
4, 3840, Note_on_c, 3, 55, 0
4, 3846, Note_on_c, 3, 51, 82
4, 3908, Note_on_c, 3, 58, 24
4, 3966, Note_on_c, 3, 62, 41
4, 3979, Note_on_c, 3, 58, 0
4, 4022, Note_on_c, 3, 58, 61
4, 4082, Note_on_c, 3, 55, 76
4, 4096, Note_on_c, 3, 58, 0
4, 4144, Note_on_c, 3, 58, 57
4, 4157, Note_on_c, 3, 62, 0
4, 4200, Note_on_c, 3, 62, 29
4, 4231, Note_on_c, 3, 58, 0
4, 4260, Note_on_c, 3, 58, 36
4, 4279, Note_on_c, 3, 51, 0
4, 4320, Note_on_c, 3, 62, 0
4, 4320, Note_on_c, 3, 55, 0
4, 4320, Note_on_c, 3, 58, 0
4, 4326, Note_on_c, 3, 48, 82
4, 4388, Note_on_c, 3, 55, 24
4, 4446, Note_on_c, 3, 58, 41
4, 4459, Note_on_c, 3, 55, 0
4, 4502, Note_on_c, 3, 55, 61
4, 4562, Note_on_c, 3, 51, 76
4, 4576, Note_on_c, 3, 55, 0
4, 4624, Note_on_c, 3, 55, 57
4, 4637, Note_on_c, 3, 58, 0
4, 4680, Note_on_c, 3, 58, 29
4, 4711, Note_on_c, 3, 55, 0
4, 4740, Note_on_c, 3, 55, 36
4, 4759, Note_on_c, 3, 48, 0
4, 4800, Note_on_c, 3, 58, 0
4, 4800, Note_on_c, 3, 51, 0
4, 4800, Note_on_c, 3, 55, 0
4, 4806, Note_on_c, 3, 53, 82
4, 4868, Note_on_c, 3, 60, 24
4, 4926, Note_on_c, 3, 65, 41
4, 4939, Note_on_c, 3, 60, 0
4, 4982, Note_on_c, 3, 60, 61
4, 5040, Note_on_c, 3, 60, 0
4, 5040, Note_on_c, 3, 65, 0
4, 5040, Note_on_c, 3, 53, 0
4, 5046, Note_on_c, 3, 53, 82
4, 5108, Note_on_c, 3, 60, 24
4, 5160, Note_on_c, 3, 60, 0
4, 5160, Note_on_c, 3, 53, 0
4, 5166, Note_on_c, 3, 53, 82
4, 5228, Note_on_c, 3, 60, 24
4, 5280, Note_on_c, 3, 60, 0
4, 5280, Note_on_c, 3, 53, 0
4, 5286, Note_on_c, 3, 46, 82
4, 5348, Note_on_c, 3, 53, 24
4, 5406, Note_on_c, 3, 56, 41
4, 5419, Note_on_c, 3, 53, 0
4, 5462, Note_on_c, 3, 53, 61
4, 5522, Note_on_c, 3, 50, 76
4, 5536, Note_on_c, 3, 53, 0
4, 5584, Note_on_c, 3, 53, 57
4, 5597, Note_on_c, 3, 56, 0
4, 5640, Note_on_c, 3, 56, 29
4, 5671, Note_on_c, 3, 53, 0
4, 5700, Note_on_c, 3, 53, 36
4, 5719, Note_on_c, 3, 46, 0
4, 5760, Note_on_c, 3, 56, 0
4, 5760, Note_on_c, 3, 50, 0
4, 5760, Note_on_c, 3, 53, 0
4, 5766, Note_on_c, 3, 51, 82
4, 5828, Note_on_c, 3, 58, 24
4, 5886, Note_on_c, 3, 62, 41
4, 5899, Note_on_c, 3, 58, 0
4, 5942, Note_on_c, 3, 58, 61
4, 6002, Note_on_c, 3, 55, 76
4, 6016, Note_on_c, 3, 58, 0
4, 6064, Note_on_c, 3, 58, 57
4, 6077, Note_on_c, 3, 62, 0
4, 6120, Note_on_c, 3, 62, 29
4, 6151, Note_on_c, 3, 58, 0
4, 6180, Note_on_c, 3, 58, 36
4, 6199, Note_on_c, 3, 51, 0
4, 6240, Note_on_c, 3, 62, 0
4, 6240, Note_on_c, 3, 55, 0
4, 6240, Note_on_c, 3, 58, 0
4, 6246, Note_on_c, 3, 53, 82
4, 6308, Note_on_c, 3, 60, 24
4, 6366, Note_on_c, 3, 63, 41
4, 6379, Note_on_c, 3, 60, 0
4, 6422, Note_on_c, 3, 60, 61
4, 6480, Note_on_c, 3, 60, 0
4, 6480, Note_on_c, 3, 63, 0
4, 6480, Note_on_c, 3, 53, 0
4, 6486, Note_on_c, 3, 46, 82
4, 6548, Note_on_c, 3, 54, 24
4, 6606, Note_on_c, 3, 56, 41
4, 6619, Note_on_c, 3, 54, 0
4, 6662, Note_on_c, 3, 54, 61
4, 6720, Note_on_c, 3, 54, 0
4, 6720, Note_on_c, 3, 56, 0
4, 6720, Note_on_c, 3, 46, 0
4, 6726, Note_on_c, 3, 51, 82
4, 6788, Note_on_c, 3, 58, 24
4, 6846, Note_on_c, 3, 62, 41
4, 6859, Note_on_c, 3, 58, 0
4, 6902, Note_on_c, 3, 58, 61
4, 6962, Note_on_c, 3, 55, 76
4, 6976, Note_on_c, 3, 58, 0
4, 7024, Note_on_c, 3, 58, 57
4, 7037, Note_on_c, 3, 62, 0
4, 7080, Note_on_c, 3, 62, 29
4, 7111, Note_on_c, 3, 58, 0
4, 7140, Note_on_c, 3, 58, 36
4, 7159, Note_on_c, 3, 51, 0
4, 7200, Note_on_c, 3, 62, 0
4, 7200, Note_on_c, 3, 55, 0
4, 7200, Note_on_c, 3, 58, 0
4, 7206, Note_on_c, 3, 48, 82
4, 7268, Note_on_c, 3, 55, 24
4, 7326, Note_on_c, 3, 58, 41
4, 7339, Note_on_c, 3, 55, 0
4, 7382, Note_on_c, 3, 55, 61
4, 7442, Note_on_c, 3, 51, 76
4, 7456, Note_on_c, 3, 55, 0
4, 7504, Note_on_c, 3, 55, 57
4, 7517, Note_on_c, 3, 58, 0
4, 7560, Note_on_c, 3, 58, 29
4, 7591, Note_on_c, 3, 55, 0
4, 7620, Note_on_c, 3, 55, 36
4, 7639, Note_on_c, 3, 48, 0
4, 7680, Note_on_c, 3, 58, 0
4, 7680, Note_on_c, 3, 51, 0
4, 7680, Note_on_c, 3, 55, 0
4, 7686, Note_on_c, 3, 51, 82
4, 7748, Note_on_c, 3, 58, 24
4, 7806, Note_on_c, 3, 62, 41
4, 7819, Note_on_c, 3, 58, 0
4, 7862, Note_on_c, 3, 58, 61
4, 7922, Note_on_c, 3, 55, 76
4, 7936, Note_on_c, 3, 58, 0
4, 7984, Note_on_c, 3, 58, 57
4, 7997, Note_on_c, 3, 62, 0
4, 8040, Note_on_c, 3, 62, 29
4, 8071, Note_on_c, 3, 58, 0
4, 8100, Note_on_c, 3, 58, 36
4, 8119, Note_on_c, 3, 51, 0
4, 8160, Note_on_c, 3, 62, 0
4, 8160, Note_on_c, 3, 55, 0
4, 8160, Note_on_c, 3, 58, 0
4, 8166, Note_on_c, 3, 48, 82
4, 8228, Note_on_c, 3, 55, 24
4, 8286, Note_on_c, 3, 58, 41
4, 8299, Note_on_c, 3, 55, 0
4, 8342, Note_on_c, 3, 55, 61
4, 8402, Note_on_c, 3, 51, 76
4, 8416, Note_on_c, 3, 55, 0
4, 8464, Note_on_c, 3, 55, 57
4, 8477, Note_on_c, 3, 58, 0
4, 8520, Note_on_c, 3, 58, 29
4, 8551, Note_on_c, 3, 55, 0
4, 8580, Note_on_c, 3, 55, 36
4, 8599, Note_on_c, 3, 48, 0
4, 8640, Note_on_c, 3, 58, 0
4, 8640, Note_on_c, 3, 51, 0
4, 8640, Note_on_c, 3, 55, 0
4, 8646, Note_on_c, 3, 53, 82
4, 8708, Note_on_c, 3, 60, 24
4, 8766, Note_on_c, 3, 65, 41
4, 8779, Note_on_c, 3, 60, 0
4, 8822, Note_on_c, 3, 60, 61
4, 8882, Note_on_c, 3, 56, 76
4, 8896, Note_on_c, 3, 60, 0
4, 8944, Note_on_c, 3, 60, 57
4, 8957, Note_on_c, 3, 65, 0
4, 9000, Note_on_c, 3, 65, 29
4, 9031, Note_on_c, 3, 60, 0
4, 9060, Note_on_c, 3, 60, 36
4, 9079, Note_on_c, 3, 53, 0
4, 9120, Note_on_c, 3, 65, 0
4, 9120, Note_on_c, 3, 56, 0
4, 9120, Note_on_c, 3, 60, 0
4, 9126, Note_on_c, 3, 46, 82
4, 9188, Note_on_c, 3, 53, 24
4, 9246, Note_on_c, 3, 56, 41
4, 9259, Note_on_c, 3, 53, 0
4, 9302, Note_on_c, 3, 53, 61
4, 9362, Note_on_c, 3, 50, 76
4, 9376, Note_on_c, 3, 53, 0
4, 9424, Note_on_c, 3, 53, 57
4, 9437, Note_on_c, 3, 56, 0
4, 9480, Note_on_c, 3, 56, 29
4, 9511, Note_on_c, 3, 53, 0
4, 9540, Note_on_c, 3, 53, 36
4, 9559, Note_on_c, 3, 46, 0
4, 9600, Note_on_c, 3, 56, 0
4, 9600, Note_on_c, 3, 50, 0
4, 9600, Note_on_c, 3, 53, 0
4, 9606, Note_on_c, 3, 51, 82
4, 9668, Note_on_c, 3, 58, 24
4, 9726, Note_on_c, 3, 63, 41
4, 9739, Note_on_c, 3, 58, 0
4, 9782, Note_on_c, 3, 58, 61
4, 9842, Note_on_c, 3, 55, 76
4, 9856, Note_on_c, 3, 58, 0
4, 9904, Note_on_c, 3, 58, 57
4, 9917, Note_on_c, 3, 63, 0
4, 9960, Note_on_c, 3, 63, 29
4, 9991, Note_on_c, 3, 58, 0
4, 10020, Note_on_c, 3, 58, 36
4, 10039, Note_on_c, 3, 51, 0
4, 10080, Note_on_c, 3, 63, 0
4, 10080, Note_on_c, 3, 55, 0
4, 10080, Note_on_c, 3, 58, 0
4, 10086, Note_on_c, 3, 46, 82
4, 10148, Note_on_c, 3, 53, 24
4, 10206, Note_on_c, 3, 56, 41
4, 10219, Note_on_c, 3, 53, 0
4, 10262, Note_on_c, 3, 53, 61
4, 10320, Note_on_c, 3, 53, 0
4, 10320, Note_on_c, 3, 56, 0
4, 10320, Note_on_c, 3, 46, 0
4, 10326, Note_on_c, 3, 51, 82
4, 10388, Note_on_c, 3, 58, 24
4, 10446, Note_on_c, 3, 61, 41
4, 10459, Note_on_c, 3, 58, 0
4, 10502, Note_on_c, 3, 58, 61
4, 10560, Note_on_c, 3, 58, 0
4, 10560, Note_on_c, 3, 61, 0
4, 10560, Note_on_c, 3, 51, 0
4, 10566, Note_on_c, 3, 44, 82
4, 10628, Note_on_c, 3, 51, 24
4, 10686, Note_on_c, 3, 56, 41
4, 10699, Note_on_c, 3, 51, 0
4, 10742, Note_on_c, 3, 51, 61
4, 10802, Note_on_c, 3, 48, 76
4, 10816, Note_on_c, 3, 51, 0
4, 10864, Note_on_c, 3, 51, 57
4, 10877, Note_on_c, 3, 56, 0
4, 10920, Note_on_c, 3, 56, 29
4, 10951, Note_on_c, 3, 51, 0
4, 10980, Note_on_c, 3, 51, 36
4, 10999, Note_on_c, 3, 44, 0
4, 11038, Note_on_c, 3, 44, 85
4, 11059, Note_on_c, 3, 51, 0
4, 11102, Note_on_c, 3, 51, 49
4, 11114, Note_on_c, 3, 56, 0
4, 11157, Note_on_c, 3, 56, 54
4, 11169, Note_on_c, 3, 51, 0
4, 11222, Note_on_c, 3, 48, 0
4, 11222, Note_on_c, 3, 51, 51
4, 11285, Note_on_c, 3, 48, 85
4, 11299, Note_on_c, 3, 51, 0
4, 11350, Note_on_c, 3, 51, 40
4, 11371, Note_on_c, 3, 56, 0
4, 11407, Note_on_c, 3, 56, 41
4, 11420, Note_on_c, 3, 51, 0
4, 11467, Note_on_c, 3, 51, 49
4, 11485, Note_on_c, 3, 44, 0
4, 11520, Note_on_c, 3, 56, 0
4, 11520, Note_on_c, 3, 48, 0
4, 11520, Note_on_c, 3, 51, 0
4, 11526, Note_on_c, 3, 51, 82
4, 11588, Note_on_c, 3, 58, 24
4, 11646, Note_on_c, 3, 63, 41
4, 11659, Note_on_c, 3, 58, 0
4, 11702, Note_on_c, 3, 58, 61
4, 11762, Note_on_c, 3, 55, 76
4, 11776, Note_on_c, 3, 58, 0
4, 11824, Note_on_c, 3, 58, 57
4, 11837, Note_on_c, 3, 63, 0
4, 11880, Note_on_c, 3, 63, 29
4, 11911, Note_on_c, 3, 58, 0
4, 11940, Note_on_c, 3, 58, 36
4, 11959, Note_on_c, 3, 51, 0
4, 12000, Note_on_c, 3, 63, 0
4, 12000, Note_on_c, 3, 55, 0
4, 12000, Note_on_c, 3, 58, 0
4, 12006, Note_on_c, 3, 51, 82
4, 12068, Note_on_c, 3, 58, 24
4, 12126, Note_on_c, 3, 61, 41
4, 12139, Note_on_c, 3, 58, 0
4, 12182, Note_on_c, 3, 58, 61
4, 12242, Note_on_c, 3, 55, 76
4, 12256, Note_on_c, 3, 58, 0
4, 12304, Note_on_c, 3, 58, 57
4, 12317, Note_on_c, 3, 61, 0
4, 12360, Note_on_c, 3, 61, 29
4, 12391, Note_on_c, 3, 58, 0
4, 12420, Note_on_c, 3, 58, 36
4, 12439, Note_on_c, 3, 51, 0
4, 12480, Note_on_c, 3, 61, 0
4, 12480, Note_on_c, 3, 55, 0
4, 12480, Note_on_c, 3, 58, 0
4, 12486, Note_on_c, 3, 44, 82
4, 12548, Note_on_c, 3, 51, 24
4, 12606, Note_on_c, 3, 56, 41
4, 12619, Note_on_c, 3, 51, 0
4, 12662, Note_on_c, 3, 51, 61
4, 12722, Note_on_c, 3, 48, 76
4, 12736, Note_on_c, 3, 51, 0
4, 12784, Note_on_c, 3, 51, 57
4, 12797, Note_on_c, 3, 56, 0
4, 12840, Note_on_c, 3, 56, 29
4, 12871, Note_on_c, 3, 51, 0
4, 12900, Note_on_c, 3, 51, 36
4, 12919, Note_on_c, 3, 44, 0
4, 12960, Note_on_c, 3, 56, 0
4, 12960, Note_on_c, 3, 48, 0
4, 12960, Note_on_c, 3, 51, 0
4, 12966, Note_on_c, 3, 53, 82
4, 13028, Note_on_c, 3, 60, 24
4, 13086, Note_on_c, 3, 63, 41
4, 13099, Note_on_c, 3, 60, 0
4, 13142, Note_on_c, 3, 60, 61
4, 13202, Note_on_c, 3, 57, 76
4, 13216, Note_on_c, 3, 60, 0
4, 13264, Note_on_c, 3, 60, 57
4, 13277, Note_on_c, 3, 63, 0
4, 13320, Note_on_c, 3, 63, 29
4, 13351, Note_on_c, 3, 60, 0
4, 13380, Note_on_c, 3, 60, 36
4, 13399, Note_on_c, 3, 53, 0
4, 13440, Note_on_c, 3, 63, 0
4, 13440, Note_on_c, 3, 57, 0
4, 13440, Note_on_c, 3, 60, 0
4, 13446, Note_on_c, 3, 46, 82
4, 13508, Note_on_c, 3, 53, 24
4, 13566, Note_on_c, 3, 56, 41
4, 13579, Note_on_c, 3, 53, 0
4, 13622, Note_on_c, 3, 53, 61
4, 13682, Note_on_c, 3, 50, 76
4, 13696, Note_on_c, 3, 53, 0
4, 13744, Note_on_c, 3, 53, 57
4, 13757, Note_on_c, 3, 56, 0
4, 13800, Note_on_c, 3, 56, 29
4, 13831, Note_on_c, 3, 53, 0
4, 13860, Note_on_c, 3, 53, 36
4, 13879, Note_on_c, 3, 46, 0
4, 13918, Note_on_c, 3, 46, 85
4, 13939, Note_on_c, 3, 53, 0
4, 13982, Note_on_c, 3, 53, 49
4, 13994, Note_on_c, 3, 56, 0
4, 14037, Note_on_c, 3, 56, 54
4, 14049, Note_on_c, 3, 53, 0
4, 14102, Note_on_c, 3, 50, 0
4, 14102, Note_on_c, 3, 53, 51
4, 14165, Note_on_c, 3, 50, 85
4, 14179, Note_on_c, 3, 53, 0
4, 14230, Note_on_c, 3, 53, 40
4, 14251, Note_on_c, 3, 56, 0
4, 14287, Note_on_c, 3, 56, 41
4, 14300, Note_on_c, 3, 53, 0
4, 14347, Note_on_c, 3, 53, 49
4, 14365, Note_on_c, 3, 46, 0
4, 14400, Note_on_c, 3, 56, 0
4, 14400, Note_on_c, 3, 50, 0
4, 14400, Note_on_c, 3, 53, 0
4, 14406, Note_on_c, 3, 51, 82
4, 14468, Note_on_c, 3, 58, 24
4, 14526, Note_on_c, 3, 62, 41
4, 14539, Note_on_c, 3, 58, 0
4, 14582, Note_on_c, 3, 58, 61
4, 14642, Note_on_c, 3, 55, 76
4, 14656, Note_on_c, 3, 58, 0
4, 14704, Note_on_c, 3, 58, 57
4, 14717, Note_on_c, 3, 62, 0
4, 14760, Note_on_c, 3, 62, 29
4, 14791, Note_on_c, 3, 58, 0
4, 14820, Note_on_c, 3, 58, 36
4, 14839, Note_on_c, 3, 51, 0
4, 14880, Note_on_c, 3, 62, 0
4, 14880, Note_on_c, 3, 55, 0
4, 14880, Note_on_c, 3, 58, 0
4, 14886, Note_on_c, 3, 48, 82
4, 14948, Note_on_c, 3, 55, 24
4, 15006, Note_on_c, 3, 58, 41
4, 15019, Note_on_c, 3, 55, 0
4, 15062, Note_on_c, 3, 55, 61
4, 15122, Note_on_c, 3, 51, 76
4, 15136, Note_on_c, 3, 55, 0
4, 15184, Note_on_c, 3, 55, 57
4, 15197, Note_on_c, 3, 58, 0
4, 15240, Note_on_c, 3, 58, 29
4, 15271, Note_on_c, 3, 55, 0
4, 15300, Note_on_c, 3, 55, 36
4, 15319, Note_on_c, 3, 48, 0
4, 15360, Note_on_c, 3, 58, 0
4, 15360, Note_on_c, 3, 51, 0
4, 15360, Note_on_c, 3, 55, 0
4, 15366, Note_on_c, 3, 51, 82
4, 15428, Note_on_c, 3, 58, 24
4, 15486, Note_on_c, 3, 62, 41
4, 15499, Note_on_c, 3, 58, 0
4, 15542, Note_on_c, 3, 58, 61
4, 15602, Note_on_c, 3, 55, 76
4, 15616, Note_on_c, 3, 58, 0
4, 15664, Note_on_c, 3, 58, 57
4, 15677, Note_on_c, 3, 62, 0
4, 15720, Note_on_c, 3, 62, 29
4, 15751, Note_on_c, 3, 58, 0
4, 15780, Note_on_c, 3, 58, 36
4, 15799, Note_on_c, 3, 51, 0
4, 15840, Note_on_c, 3, 62, 0
4, 15840, Note_on_c, 3, 55, 0
4, 15840, Note_on_c, 3, 58, 0
4, 15846, Note_on_c, 3, 48, 82
4, 15908, Note_on_c, 3, 55, 24
4, 15966, Note_on_c, 3, 58, 41
4, 15979, Note_on_c, 3, 55, 0
4, 16022, Note_on_c, 3, 55, 61
4, 16082, Note_on_c, 3, 51, 76
4, 16096, Note_on_c, 3, 55, 0
4, 16144, Note_on_c, 3, 55, 57
4, 16157, Note_on_c, 3, 58, 0
4, 16200, Note_on_c, 3, 58, 29
4, 16231, Note_on_c, 3, 55, 0
4, 16260, Note_on_c, 3, 55, 36
4, 16279, Note_on_c, 3, 48, 0
4, 16320, Note_on_c, 3, 58, 0
4, 16320, Note_on_c, 3, 51, 0
4, 16320, Note_on_c, 3, 55, 0
4, 16326, Note_on_c, 3, 53, 82
4, 16388, Note_on_c, 3, 60, 24
4, 16446, Note_on_c, 3, 65, 41
4, 16459, Note_on_c, 3, 60, 0
4, 16502, Note_on_c, 3, 60, 61
4, 16560, Note_on_c, 3, 60, 0
4, 16560, Note_on_c, 3, 65, 0
4, 16560, Note_on_c, 3, 53, 0
4, 16566, Note_on_c, 3, 53, 82
4, 16628, Note_on_c, 3, 60, 24
4, 16680, Note_on_c, 3, 60, 0
4, 16680, Note_on_c, 3, 53, 0
4, 16686, Note_on_c, 3, 53, 82
4, 16748, Note_on_c, 3, 60, 24
4, 16800, Note_on_c, 3, 60, 0
4, 16800, Note_on_c, 3, 53, 0
4, 16806, Note_on_c, 3, 46, 82
4, 16868, Note_on_c, 3, 53, 24
4, 16926, Note_on_c, 3, 56, 41
4, 16939, Note_on_c, 3, 53, 0
4, 16982, Note_on_c, 3, 53, 61
4, 17042, Note_on_c, 3, 50, 76
4, 17056, Note_on_c, 3, 53, 0
4, 17104, Note_on_c, 3, 53, 57
4, 17117, Note_on_c, 3, 56, 0
4, 17160, Note_on_c, 3, 56, 29
4, 17191, Note_on_c, 3, 53, 0
4, 17220, Note_on_c, 3, 53, 36
4, 17239, Note_on_c, 3, 46, 0
4, 17280, Note_on_c, 3, 56, 0
4, 17280, Note_on_c, 3, 50, 0
4, 17280, Note_on_c, 3, 53, 0
4, 17286, Note_on_c, 3, 51, 82
4, 17348, Note_on_c, 3, 58, 24
4, 17406, Note_on_c, 3, 63, 41
4, 17419, Note_on_c, 3, 58, 0
4, 17462, Note_on_c, 3, 58, 61
4, 17522, Note_on_c, 3, 55, 76
4, 17536, Note_on_c, 3, 58, 0
4, 17584, Note_on_c, 3, 58, 57
4, 17597, Note_on_c, 3, 63, 0
4, 17640, Note_on_c, 3, 63, 29
4, 17671, Note_on_c, 3, 58, 0
4, 17700, Note_on_c, 3, 58, 36
4, 17719, Note_on_c, 3, 51, 0
4, 17760, Note_on_c, 3, 63, 0
4, 17760, Note_on_c, 3, 55, 0
4, 17760, Note_on_c, 3, 58, 0
4, 17766, Note_on_c, 3, 53, 82
4, 17828, Note_on_c, 3, 60, 24
4, 17886, Note_on_c, 3, 65, 41
4, 17899, Note_on_c, 3, 60, 0
4, 17942, Note_on_c, 3, 60, 61
4, 18000, Note_on_c, 3, 60, 0
4, 18000, Note_on_c, 3, 65, 0
4, 18000, Note_on_c, 3, 53, 0
4, 18006, Note_on_c, 3, 46, 82
4, 18068, Note_on_c, 3, 54, 24
4, 18126, Note_on_c, 3, 56, 41
4, 18139, Note_on_c, 3, 54, 0
4, 18182, Note_on_c, 3, 54, 61
4, 18240, Note_on_c, 3, 54, 0
4, 18240, Note_on_c, 3, 56, 0
4, 18240, Note_on_c, 3, 46, 0
4, 18246, Note_on_c, 3, 51, 82
4, 18308, Note_on_c, 3, 58, 24
4, 18366, Note_on_c, 3, 62, 41
4, 18379, Note_on_c, 3, 58, 0
4, 18422, Note_on_c, 3, 58, 61
4, 18482, Note_on_c, 3, 55, 76
4, 18496, Note_on_c, 3, 58, 0
4, 18544, Note_on_c, 3, 58, 57
4, 18557, Note_on_c, 3, 62, 0
4, 18600, Note_on_c, 3, 62, 29
4, 18631, Note_on_c, 3, 58, 0
4, 18660, Note_on_c, 3, 58, 36
4, 18679, Note_on_c, 3, 51, 0
4, 18720, Note_on_c, 3, 62, 0
4, 18720, Note_on_c, 3, 55, 0
4, 18720, Note_on_c, 3, 58, 0
4, 18726, Note_on_c, 3, 48, 82
4, 18788, Note_on_c, 3, 55, 24
4, 18846, Note_on_c, 3, 58, 41
4, 18859, Note_on_c, 3, 55, 0
4, 18902, Note_on_c, 3, 55, 61
4, 18962, Note_on_c, 3, 51, 76
4, 18976, Note_on_c, 3, 55, 0
4, 19024, Note_on_c, 3, 55, 57
4, 19037, Note_on_c, 3, 58, 0
4, 19080, Note_on_c, 3, 58, 29
4, 19111, Note_on_c, 3, 55, 0
4, 19140, Note_on_c, 3, 55, 36
4, 19159, Note_on_c, 3, 48, 0
4, 19200, Note_on_c, 3, 58, 0
4, 19200, Note_on_c, 3, 51, 0
4, 19200, Note_on_c, 3, 55, 0
4, 19206, Note_on_c, 3, 51, 82
4, 19268, Note_on_c, 3, 58, 24
4, 19326, Note_on_c, 3, 62, 41
4, 19339, Note_on_c, 3, 58, 0
4, 19382, Note_on_c, 3, 58, 61
4, 19442, Note_on_c, 3, 55, 76
4, 19456, Note_on_c, 3, 58, 0
4, 19504, Note_on_c, 3, 58, 57
4, 19517, Note_on_c, 3, 62, 0
4, 19560, Note_on_c, 3, 62, 29
4, 19591, Note_on_c, 3, 58, 0
4, 19620, Note_on_c, 3, 58, 36
4, 19639, Note_on_c, 3, 51, 0
4, 19680, Note_on_c, 3, 62, 0
4, 19680, Note_on_c, 3, 55, 0
4, 19680, Note_on_c, 3, 58, 0
4, 19686, Note_on_c, 3, 48, 82
4, 19748, Note_on_c, 3, 55, 24
4, 19806, Note_on_c, 3, 58, 41
4, 19819, Note_on_c, 3, 55, 0
4, 19862, Note_on_c, 3, 55, 61
4, 19922, Note_on_c, 3, 51, 76
4, 19936, Note_on_c, 3, 55, 0
4, 19984, Note_on_c, 3, 55, 57
4, 19997, Note_on_c, 3, 58, 0
4, 20040, Note_on_c, 3, 58, 29
4, 20071, Note_on_c, 3, 55, 0
4, 20100, Note_on_c, 3, 55, 36
4, 20119, Note_on_c, 3, 48, 0
4, 20160, Note_on_c, 3, 58, 0
4, 20160, Note_on_c, 3, 51, 0
4, 20160, Note_on_c, 3, 55, 0
4, 20166, Note_on_c, 3, 53, 82
4, 20228, Note_on_c, 3, 60, 24
4, 20286, Note_on_c, 3, 65, 41
4, 20299, Note_on_c, 3, 60, 0
4, 20342, Note_on_c, 3, 60, 61
4, 20400, Note_on_c, 3, 60, 0
4, 20400, Note_on_c, 3, 65, 0
4, 20400, Note_on_c, 3, 53, 0
4, 20406, Note_on_c, 3, 53, 82
4, 20468, Note_on_c, 3, 60, 24
4, 20520, Note_on_c, 3, 60, 0
4, 20520, Note_on_c, 3, 53, 0
4, 20526, Note_on_c, 3, 53, 82
4, 20588, Note_on_c, 3, 60, 24
4, 20640, Note_on_c, 3, 60, 0
4, 20640, Note_on_c, 3, 53, 0
4, 20646, Note_on_c, 3, 46, 82
4, 20708, Note_on_c, 3, 53, 24
4, 20766, Note_on_c, 3, 56, 41
4, 20779, Note_on_c, 3, 53, 0
4, 20822, Note_on_c, 3, 53, 61
4, 20882, Note_on_c, 3, 50, 76
4, 20896, Note_on_c, 3, 53, 0
4, 20944, Note_on_c, 3, 53, 57
4, 20957, Note_on_c, 3, 56, 0
4, 21000, Note_on_c, 3, 56, 29
4, 21031, Note_on_c, 3, 53, 0
4, 21060, Note_on_c, 3, 53, 36
4, 21079, Note_on_c, 3, 46, 0
4, 21120, Note_on_c, 3, 56, 0
4, 21120, Note_on_c, 3, 50, 0
4, 21120, Note_on_c, 3, 53, 0
4, 21126, Note_on_c, 3, 51, 82
4, 21188, Note_on_c, 3, 58, 24
4, 21246, Note_on_c, 3, 62, 41
4, 21259, Note_on_c, 3, 58, 0
4, 21302, Note_on_c, 3, 58, 61
4, 21362, Note_on_c, 3, 55, 76
4, 21376, Note_on_c, 3, 58, 0
4, 21424, Note_on_c, 3, 58, 57
4, 21437, Note_on_c, 3, 62, 0
4, 21480, Note_on_c, 3, 62, 29
4, 21511, Note_on_c, 3, 58, 0
4, 21540, Note_on_c, 3, 58, 36
4, 21559, Note_on_c, 3, 51, 0
4, 21600, Note_on_c, 3, 62, 0
4, 21600, Note_on_c, 3, 55, 0
4, 21600, Note_on_c, 3, 58, 0
4, 21606, Note_on_c, 3, 53, 82
4, 21668, Note_on_c, 3, 60, 24
4, 21726, Note_on_c, 3, 63, 41
4, 21739, Note_on_c, 3, 60, 0
4, 21782, Note_on_c, 3, 60, 61
4, 21840, Note_on_c, 3, 60, 0
4, 21840, Note_on_c, 3, 63, 0
4, 21840, Note_on_c, 3, 53, 0
4, 21846, Note_on_c, 3, 46, 82
4, 21908, Note_on_c, 3, 54, 24
4, 21966, Note_on_c, 3, 56, 41
4, 21979, Note_on_c, 3, 54, 0
4, 22022, Note_on_c, 3, 54, 61
4, 22080, Note_on_c, 3, 54, 0
4, 22080, Note_on_c, 3, 56, 0
4, 22080, Note_on_c, 3, 46, 0
4, 22086, Note_on_c, 3, 51, 82
4, 22148, Note_on_c, 3, 58, 24
4, 22206, Note_on_c, 3, 62, 41
4, 22219, Note_on_c, 3, 58, 0
4, 22262, Note_on_c, 3, 58, 61
4, 22322, Note_on_c, 3, 55, 76
4, 22336, Note_on_c, 3, 58, 0
4, 22384, Note_on_c, 3, 58, 57
4, 22397, Note_on_c, 3, 62, 0
4, 22440, Note_on_c, 3, 62, 29
4, 22471, Note_on_c, 3, 58, 0
4, 22500, Note_on_c, 3, 58, 36
4, 22519, Note_on_c, 3, 51, 0
4, 22560, Note_on_c, 3, 62, 0
4, 22560, Note_on_c, 3, 55, 0
4, 22560, Note_on_c, 3, 58, 0
4, 22566, Note_on_c, 3, 48, 82
4, 22628, Note_on_c, 3, 55, 24
4, 22686, Note_on_c, 3, 58, 41
4, 22699, Note_on_c, 3, 55, 0
4, 22742, Note_on_c, 3, 55, 61
4, 22802, Note_on_c, 3, 51, 76
4, 22816, Note_on_c, 3, 55, 0
4, 22864, Note_on_c, 3, 55, 57
4, 22877, Note_on_c, 3, 58, 0
4, 22920, Note_on_c, 3, 58, 29
4, 22951, Note_on_c, 3, 55, 0
4, 22980, Note_on_c, 3, 55, 36
4, 22999, Note_on_c, 3, 48, 0
4, 23040, Note_on_c, 3, 58, 0
4, 23040, Note_on_c, 3, 51, 0
4, 23040, Note_on_c, 3, 55, 0
4, 23046, Note_on_c, 3, 51, 82
4, 23108, Note_on_c, 3, 58, 24
4, 23166, Note_on_c, 3, 62, 41
4, 23179, Note_on_c, 3, 58, 0
4, 23222, Note_on_c, 3, 58, 61
4, 23282, Note_on_c, 3, 55, 76
4, 23296, Note_on_c, 3, 58, 0
4, 23344, Note_on_c, 3, 58, 57
4, 23357, Note_on_c, 3, 62, 0
4, 23400, Note_on_c, 3, 62, 29
4, 23431, Note_on_c, 3, 58, 0
4, 23460, Note_on_c, 3, 58, 36
4, 23479, Note_on_c, 3, 51, 0
4, 23520, Note_on_c, 3, 62, 0
4, 23520, Note_on_c, 3, 55, 0
4, 23520, Note_on_c, 3, 58, 0
4, 23526, Note_on_c, 3, 48, 82
4, 23588, Note_on_c, 3, 55, 24
4, 23646, Note_on_c, 3, 58, 41
4, 23659, Note_on_c, 3, 55, 0
4, 23702, Note_on_c, 3, 55, 61
4, 23762, Note_on_c, 3, 51, 76
4, 23776, Note_on_c, 3, 55, 0
4, 23824, Note_on_c, 3, 55, 57
4, 23837, Note_on_c, 3, 58, 0
4, 23880, Note_on_c, 3, 58, 29
4, 23911, Note_on_c, 3, 55, 0
4, 23940, Note_on_c, 3, 55, 36
4, 23959, Note_on_c, 3, 48, 0
4, 24000, Note_on_c, 3, 58, 0
4, 24000, Note_on_c, 3, 51, 0
4, 24000, Note_on_c, 3, 55, 0
4, 24006, Note_on_c, 3, 53, 82
4, 24068, Note_on_c, 3, 60, 24
4, 24126, Note_on_c, 3, 65, 41
4, 24139, Note_on_c, 3, 60, 0
4, 24182, Note_on_c, 3, 60, 61
4, 24242, Note_on_c, 3, 56, 76
4, 24256, Note_on_c, 3, 60, 0
4, 24304, Note_on_c, 3, 60, 57
4, 24317, Note_on_c, 3, 65, 0
4, 24360, Note_on_c, 3, 65, 29
4, 24391, Note_on_c, 3, 60, 0
4, 24420, Note_on_c, 3, 60, 36
4, 24439, Note_on_c, 3, 53, 0
4, 24480, Note_on_c, 3, 65, 0
4, 24480, Note_on_c, 3, 56, 0
4, 24480, Note_on_c, 3, 60, 0
4, 24486, Note_on_c, 3, 46, 82
4, 24548, Note_on_c, 3, 53, 24
4, 24606, Note_on_c, 3, 56, 41
4, 24619, Note_on_c, 3, 53, 0
4, 24662, Note_on_c, 3, 53, 61
4, 24722, Note_on_c, 3, 50, 76
4, 24736, Note_on_c, 3, 53, 0
4, 24784, Note_on_c, 3, 53, 57
4, 24797, Note_on_c, 3, 56, 0
4, 24840, Note_on_c, 3, 56, 29
4, 24871, Note_on_c, 3, 53, 0
4, 24900, Note_on_c, 3, 53, 36
4, 24919, Note_on_c, 3, 46, 0
4, 24960, Note_on_c, 3, 56, 0
4, 24960, Note_on_c, 3, 50, 0
4, 24960, Note_on_c, 3, 53, 0
4, 24966, Note_on_c, 3, 51, 82
4, 25028, Note_on_c, 3, 58, 24
4, 25086, Note_on_c, 3, 63, 41
4, 25099, Note_on_c, 3, 58, 0
4, 25142, Note_on_c, 3, 58, 61
4, 25202, Note_on_c, 3, 55, 76
4, 25216, Note_on_c, 3, 58, 0
4, 25264, Note_on_c, 3, 58, 57
4, 25277, Note_on_c, 3, 63, 0
4, 25320, Note_on_c, 3, 63, 29
4, 25351, Note_on_c, 3, 58, 0
4, 25380, Note_on_c, 3, 58, 36
4, 25399, Note_on_c, 3, 51, 0
4, 25440, Note_on_c, 3, 63, 0
4, 25440, Note_on_c, 3, 55, 0
4, 25440, Note_on_c, 3, 58, 0
4, 25446, Note_on_c, 3, 46, 82
4, 25508, Note_on_c, 3, 53, 24
4, 25566, Note_on_c, 3, 56, 41
4, 25579, Note_on_c, 3, 53, 0
4, 25622, Note_on_c, 3, 53, 61
4, 25680, Note_on_c, 3, 53, 0
4, 25680, Note_on_c, 3, 56, 0
4, 25680, Note_on_c, 3, 46, 0
4, 25686, Note_on_c, 3, 51, 82
4, 25748, Note_on_c, 3, 58, 24
4, 25806, Note_on_c, 3, 61, 41
4, 25819, Note_on_c, 3, 58, 0
4, 25862, Note_on_c, 3, 58, 61
4, 25920, Note_on_c, 3, 58, 0
4, 25920, Note_on_c, 3, 61, 0
4, 25920, Note_on_c, 3, 51, 0
4, 25926, Note_on_c, 3, 44, 82
4, 25988, Note_on_c, 3, 51, 24
4, 26046, Note_on_c, 3, 56, 41
4, 26059, Note_on_c, 3, 51, 0
4, 26102, Note_on_c, 3, 51, 61
4, 26162, Note_on_c, 3, 48, 76
4, 26176, Note_on_c, 3, 51, 0
4, 26224, Note_on_c, 3, 51, 57
4, 26237, Note_on_c, 3, 56, 0
4, 26280, Note_on_c, 3, 56, 29
4, 26311, Note_on_c, 3, 51, 0
4, 26340, Note_on_c, 3, 51, 36
4, 26359, Note_on_c, 3, 44, 0
4, 26400, Note_on_c, 3, 56, 0
4, 26400, Note_on_c, 3, 48, 0
4, 26400, Note_on_c, 3, 51, 0
4, 26406, Note_on_c, 3, 44, 82
4, 26468, Note_on_c, 3, 51, 24
4, 26526, Note_on_c, 3, 56, 41
4, 26539, Note_on_c, 3, 51, 0
4, 26582, Note_on_c, 3, 51, 61
4, 26642, Note_on_c, 3, 48, 76
4, 26656, Note_on_c, 3, 51, 0
4, 26704, Note_on_c, 3, 51, 57
4, 26717, Note_on_c, 3, 56, 0
4, 26760, Note_on_c, 3, 56, 29
4, 26791, Note_on_c, 3, 51, 0
4, 26820, Note_on_c, 3, 51, 36
4, 26839, Note_on_c, 3, 44, 0
4, 26880, Note_on_c, 3, 56, 0
4, 26880, Note_on_c, 3, 48, 0
4, 26880, Note_on_c, 3, 51, 0
4, 26886, Note_on_c, 3, 51, 82
4, 26948, Note_on_c, 3, 58, 24
4, 27006, Note_on_c, 3, 63, 41
4, 27019, Note_on_c, 3, 58, 0
4, 27062, Note_on_c, 3, 58, 61
4, 27122, Note_on_c, 3, 55, 76
4, 27136, Note_on_c, 3, 58, 0
4, 27184, Note_on_c, 3, 58, 57
4, 27197, Note_on_c, 3, 63, 0
4, 27240, Note_on_c, 3, 63, 29
4, 27271, Note_on_c, 3, 58, 0
4, 27300, Note_on_c, 3, 58, 36
4, 27319, Note_on_c, 3, 51, 0
4, 27360, Note_on_c, 3, 63, 0
4, 27360, Note_on_c, 3, 55, 0
4, 27360, Note_on_c, 3, 58, 0
4, 27366, Note_on_c, 3, 51, 82
4, 27428, Note_on_c, 3, 58, 24
4, 27486, Note_on_c, 3, 61, 41
4, 27499, Note_on_c, 3, 58, 0
4, 27542, Note_on_c, 3, 58, 61
4, 27602, Note_on_c, 3, 55, 76
4, 27616, Note_on_c, 3, 58, 0
4, 27664, Note_on_c, 3, 58, 57
4, 27677, Note_on_c, 3, 61, 0
4, 27720, Note_on_c, 3, 61, 29
4, 27751, Note_on_c, 3, 58, 0
4, 27780, Note_on_c, 3, 58, 36
4, 27799, Note_on_c, 3, 51, 0
4, 27840, Note_on_c, 3, 61, 0
4, 27840, Note_on_c, 3, 55, 0
4, 27840, Note_on_c, 3, 58, 0
4, 27846, Note_on_c, 3, 44, 82
4, 27908, Note_on_c, 3, 51, 24
4, 27966, Note_on_c, 3, 56, 41
4, 27979, Note_on_c, 3, 51, 0
4, 28022, Note_on_c, 3, 51, 61
4, 28082, Note_on_c, 3, 48, 76
4, 28096, Note_on_c, 3, 51, 0
4, 28144, Note_on_c, 3, 51, 57
4, 28157, Note_on_c, 3, 56, 0
4, 28200, Note_on_c, 3, 56, 29
4, 28231, Note_on_c, 3, 51, 0
4, 28260, Note_on_c, 3, 51, 36
4, 28279, Note_on_c, 3, 44, 0
4, 28320, Note_on_c, 3, 56, 0
4, 28320, Note_on_c, 3, 48, 0
4, 28320, Note_on_c, 3, 51, 0
4, 28326, Note_on_c, 3, 53, 82
4, 28388, Note_on_c, 3, 60, 24
4, 28446, Note_on_c, 3, 63, 41
4, 28459, Note_on_c, 3, 60, 0
4, 28502, Note_on_c, 3, 60, 61
4, 28562, Note_on_c, 3, 57, 76
4, 28576, Note_on_c, 3, 60, 0
4, 28624, Note_on_c, 3, 60, 57
4, 28637, Note_on_c, 3, 63, 0
4, 28680, Note_on_c, 3, 63, 29
4, 28711, Note_on_c, 3, 60, 0
4, 28740, Note_on_c, 3, 60, 36
4, 28759, Note_on_c, 3, 53, 0
4, 28800, Note_on_c, 3, 63, 0
4, 28800, Note_on_c, 3, 57, 0
4, 28800, Note_on_c, 3, 60, 0
4, 28806, Note_on_c, 3, 46, 82
4, 28868, Note_on_c, 3, 53, 24
4, 28926, Note_on_c, 3, 56, 41
4, 28939, Note_on_c, 3, 53, 0
4, 28982, Note_on_c, 3, 53, 61
4, 29042, Note_on_c, 3, 50, 76
4, 29056, Note_on_c, 3, 53, 0
4, 29104, Note_on_c, 3, 53, 57
4, 29117, Note_on_c, 3, 56, 0
4, 29160, Note_on_c, 3, 56, 29
4, 29191, Note_on_c, 3, 53, 0
4, 29220, Note_on_c, 3, 53, 36
4, 29239, Note_on_c, 3, 46, 0
4, 29280, Note_on_c, 3, 56, 0
4, 29280, Note_on_c, 3, 50, 0
4, 29280, Note_on_c, 3, 53, 0
4, 29286, Note_on_c, 3, 46, 82
4, 29348, Note_on_c, 3, 53, 24
4, 29406, Note_on_c, 3, 56, 41
4, 29419, Note_on_c, 3, 53, 0
4, 29462, Note_on_c, 3, 53, 61
4, 29522, Note_on_c, 3, 50, 76
4, 29536, Note_on_c, 3, 53, 0
4, 29584, Note_on_c, 3, 53, 57
4, 29597, Note_on_c, 3, 56, 0
4, 29640, Note_on_c, 3, 56, 29
4, 29671, Note_on_c, 3, 53, 0
4, 29700, Note_on_c, 3, 53, 36
4, 29719, Note_on_c, 3, 46, 0
4, 29760, Note_on_c, 3, 56, 0
4, 29760, Note_on_c, 3, 50, 0
4, 29760, Note_on_c, 3, 53, 0
4, 29766, Note_on_c, 3, 51, 82
4, 29828, Note_on_c, 3, 58, 24
4, 29886, Note_on_c, 3, 62, 41
4, 29899, Note_on_c, 3, 58, 0
4, 29942, Note_on_c, 3, 58, 61
4, 30002, Note_on_c, 3, 55, 76
4, 30016, Note_on_c, 3, 58, 0
4, 30064, Note_on_c, 3, 58, 57
4, 30077, Note_on_c, 3, 62, 0
4, 30120, Note_on_c, 3, 62, 29
4, 30151, Note_on_c, 3, 58, 0
4, 30180, Note_on_c, 3, 58, 36
4, 30199, Note_on_c, 3, 51, 0
4, 30240, Note_on_c, 3, 62, 0
4, 30240, Note_on_c, 3, 55, 0
4, 30240, Note_on_c, 3, 58, 0
4, 30246, Note_on_c, 3, 48, 82
4, 30308, Note_on_c, 3, 55, 24
4, 30366, Note_on_c, 3, 58, 41
4, 30379, Note_on_c, 3, 55, 0
4, 30422, Note_on_c, 3, 55, 61
4, 30482, Note_on_c, 3, 51, 76
4, 30496, Note_on_c, 3, 55, 0
4, 30544, Note_on_c, 3, 55, 57
4, 30557, Note_on_c, 3, 58, 0
4, 30600, Note_on_c, 3, 58, 29
4, 30631, Note_on_c, 3, 55, 0
4, 30660, Note_on_c, 3, 55, 36
4, 30679, Note_on_c, 3, 48, 0
4, 30720, Note_on_c, 3, 58, 0
4, 30720, Note_on_c, 3, 51, 0
4, 30720, Note_on_c, 3, 55, 0
4, 30726, Note_on_c, 3, 51, 82
4, 30788, Note_on_c, 3, 58, 24
4, 30846, Note_on_c, 3, 62, 41
4, 30859, Note_on_c, 3, 58, 0
4, 30902, Note_on_c, 3, 58, 61
4, 30962, Note_on_c, 3, 55, 76
4, 30976, Note_on_c, 3, 58, 0
4, 31024, Note_on_c, 3, 58, 57
4, 31037, Note_on_c, 3, 62, 0
4, 31080, Note_on_c, 3, 62, 29
4, 31111, Note_on_c, 3, 58, 0
4, 31140, Note_on_c, 3, 58, 36
4, 31159, Note_on_c, 3, 51, 0
4, 31200, Note_on_c, 3, 62, 0
4, 31200, Note_on_c, 3, 55, 0
4, 31200, Note_on_c, 3, 58, 0
4, 31206, Note_on_c, 3, 48, 82
4, 31268, Note_on_c, 3, 55, 24
4, 31326, Note_on_c, 3, 58, 41
4, 31339, Note_on_c, 3, 55, 0
4, 31382, Note_on_c, 3, 55, 61
4, 31442, Note_on_c, 3, 51, 76
4, 31456, Note_on_c, 3, 55, 0
4, 31504, Note_on_c, 3, 55, 57
4, 31517, Note_on_c, 3, 58, 0
4, 31560, Note_on_c, 3, 58, 29
4, 31591, Note_on_c, 3, 55, 0
4, 31620, Note_on_c, 3, 55, 36
4, 31639, Note_on_c, 3, 48, 0
4, 31680, Note_on_c, 3, 58, 0
4, 31680, Note_on_c, 3, 51, 0
4, 31680, Note_on_c, 3, 55, 0
4, 31686, Note_on_c, 3, 53, 82
4, 31748, Note_on_c, 3, 60, 24
4, 31806, Note_on_c, 3, 65, 41
4, 31819, Note_on_c, 3, 60, 0
4, 31862, Note_on_c, 3, 60, 61
4, 31920, Note_on_c, 3, 60, 0
4, 31920, Note_on_c, 3, 65, 0
4, 31920, Note_on_c, 3, 53, 0
4, 31926, Note_on_c, 3, 53, 82
4, 31988, Note_on_c, 3, 60, 24
4, 32040, Note_on_c, 3, 60, 0
4, 32040, Note_on_c, 3, 53, 0
4, 32046, Note_on_c, 3, 53, 82
4, 32108, Note_on_c, 3, 60, 24
4, 32160, Note_on_c, 3, 60, 0
4, 32160, Note_on_c, 3, 53, 0
4, 32166, Note_on_c, 3, 46, 82
4, 32228, Note_on_c, 3, 53, 24
4, 32286, Note_on_c, 3, 56, 41
4, 32299, Note_on_c, 3, 53, 0
4, 32342, Note_on_c, 3, 53, 61
4, 32402, Note_on_c, 3, 50, 76
4, 32416, Note_on_c, 3, 53, 0
4, 32464, Note_on_c, 3, 53, 57
4, 32477, Note_on_c, 3, 56, 0
4, 32520, Note_on_c, 3, 56, 29
4, 32551, Note_on_c, 3, 53, 0
4, 32580, Note_on_c, 3, 53, 36
4, 32599, Note_on_c, 3, 46, 0
4, 32640, Note_on_c, 3, 56, 0
4, 32640, Note_on_c, 3, 50, 0
4, 32640, Note_on_c, 3, 53, 0
4, 32646, Note_on_c, 3, 51, 82
4, 32708, Note_on_c, 3, 58, 24
4, 32766, Note_on_c, 3, 63, 41
4, 32779, Note_on_c, 3, 58, 0
4, 32822, Note_on_c, 3, 58, 61
4, 32882, Note_on_c, 3, 55, 76
4, 32896, Note_on_c, 3, 58, 0
4, 32944, Note_on_c, 3, 58, 57
4, 32957, Note_on_c, 3, 63, 0
4, 33000, Note_on_c, 3, 63, 29
4, 33031, Note_on_c, 3, 58, 0
4, 33060, Note_on_c, 3, 58, 36
4, 33079, Note_on_c, 3, 51, 0
4, 33120, Note_on_c, 3, 63, 0
4, 33120, Note_on_c, 3, 55, 0
4, 33120, Note_on_c, 3, 58, 0
4, 33126, Note_on_c, 3, 51, 82
4, 33188, Note_on_c, 3, 58, 24
4, 33259, Note_on_c, 3, 58, 0
4, 33486, Note_on_c, 3, 51, 0
4, 33600, Control_c, 3, 64, 0
4, 33600, End_track
5, 0, Start_track
5, 0, MIDI_port, 0
5, 0, Title_t, "Strings"
5, 0, Control_c, 4, 121, 0
5, 0, Control_c, 4, 123, 0
5, 0, Control_c, 4, 91, 20
5, 0, Control_c, 4, 93, 0
5, 0, Control_c, 4, 64, 0
5, 142, Program_c, 4, 48
5, 143, Control_c, 4, 7, 55
5, 143, Control_c, 4, 10, 61
5, 964, Note_on_c, 4, 67, 38
5, 1851, Note_on_c, 4, 67, 0
5, 1924, Note_on_c, 4, 67, 38
5, 2811, Note_on_c, 4, 67, 0
5, 2884, Note_on_c, 4, 67, 38
5, 3360, Note_on_c, 4, 67, 0
5, 3364, Note_on_c, 4, 63, 38
5, 3840, Note_on_c, 4, 63, 0
5, 3844, Note_on_c, 4, 67, 38
5, 4320, Note_on_c, 4, 67, 0
5, 4324, Note_on_c, 4, 63, 38
5, 4800, Note_on_c, 4, 63, 0
5, 4804, Note_on_c, 4, 68, 38
5, 5040, Note_on_c, 4, 68, 0
5, 5044, Note_on_c, 4, 68, 38
5, 5160, Note_on_c, 4, 68, 0
5, 5164, Note_on_c, 4, 68, 38
5, 5280, Note_on_c, 4, 68, 0
5, 5284, Note_on_c, 4, 62, 38
5, 5760, Note_on_c, 4, 62, 0
5, 5764, Note_on_c, 4, 67, 38
5, 6240, Note_on_c, 4, 67, 0
5, 6244, Note_on_c, 4, 68, 38
5, 6480, Note_on_c, 4, 68, 0
5, 6484, Note_on_c, 4, 62, 38
5, 6720, Note_on_c, 4, 62, 0
5, 6724, Note_on_c, 4, 67, 38
5, 7200, Note_on_c, 4, 67, 0
5, 7204, Note_on_c, 4, 63, 38
5, 7680, Note_on_c, 4, 63, 0
5, 7684, Note_on_c, 4, 67, 38
5, 8160, Note_on_c, 4, 67, 0
5, 8164, Note_on_c, 4, 63, 38
5, 8640, Note_on_c, 4, 63, 0
5, 8644, Note_on_c, 4, 68, 38
5, 9120, Note_on_c, 4, 68, 0
5, 9124, Note_on_c, 4, 62, 38
5, 9600, Note_on_c, 4, 62, 0
5, 9604, Note_on_c, 4, 67, 38
5, 10080, Note_on_c, 4, 67, 0
5, 10084, Note_on_c, 4, 61, 38
5, 10320, Note_on_c, 4, 61, 0
5, 10324, Note_on_c, 4, 67, 38
5, 10560, Note_on_c, 4, 67, 0
5, 10564, Note_on_c, 4, 60, 38
5, 11451, Note_on_c, 4, 60, 0
5, 11524, Note_on_c, 4, 67, 38
5, 12000, Note_on_c, 4, 67, 0
5, 12004, Note_on_c, 4, 67, 38
5, 12480, Note_on_c, 4, 67, 0
5, 12484, Note_on_c, 4, 60, 38
5, 12960, Note_on_c, 4, 60, 0
5, 12964, Note_on_c, 4, 69, 38
5, 13440, Note_on_c, 4, 69, 0
5, 13444, Note_on_c, 4, 62, 38
5, 14331, Note_on_c, 4, 62, 0
5, 14404, Note_on_c, 4, 67, 38
5, 14880, Note_on_c, 4, 67, 0
5, 14884, Note_on_c, 4, 63, 38
5, 15360, Note_on_c, 4, 63, 0
5, 15364, Note_on_c, 4, 67, 38
5, 15840, Note_on_c, 4, 67, 0
5, 15844, Note_on_c, 4, 63, 38
5, 16320, Note_on_c, 4, 63, 0
5, 16324, Note_on_c, 4, 68, 38
5, 16560, Note_on_c, 4, 68, 0
5, 16564, Note_on_c, 4, 68, 38
5, 16680, Note_on_c, 4, 68, 0
5, 16684, Note_on_c, 4, 68, 38
5, 16800, Note_on_c, 4, 68, 0
5, 16804, Note_on_c, 4, 62, 38
5, 17280, Note_on_c, 4, 62, 0
5, 17284, Note_on_c, 4, 67, 38
5, 17760, Note_on_c, 4, 67, 0
5, 17764, Note_on_c, 4, 68, 38
5, 18000, Note_on_c, 4, 68, 0
5, 18004, Note_on_c, 4, 62, 38
5, 18240, Note_on_c, 4, 62, 0
5, 18244, Note_on_c, 4, 67, 38
5, 18720, Note_on_c, 4, 67, 0
5, 18724, Note_on_c, 4, 63, 38
5, 19200, Note_on_c, 4, 63, 0
5, 19204, Note_on_c, 4, 67, 38
5, 19680, Note_on_c, 4, 67, 0
5, 19684, Note_on_c, 4, 63, 38
5, 20160, Note_on_c, 4, 63, 0
5, 20164, Note_on_c, 4, 68, 38
5, 20400, Note_on_c, 4, 68, 0
5, 20404, Note_on_c, 4, 68, 38
5, 20520, Note_on_c, 4, 68, 0
5, 20524, Note_on_c, 4, 68, 38
5, 20640, Note_on_c, 4, 68, 0
5, 20644, Note_on_c, 4, 62, 38
5, 21120, Note_on_c, 4, 62, 0
5, 21124, Note_on_c, 4, 67, 38
5, 21600, Note_on_c, 4, 67, 0
5, 21604, Note_on_c, 4, 68, 38
5, 21840, Note_on_c, 4, 68, 0
5, 21844, Note_on_c, 4, 62, 38
5, 22080, Note_on_c, 4, 62, 0
5, 22084, Note_on_c, 4, 67, 38
5, 22560, Note_on_c, 4, 67, 0
5, 22564, Note_on_c, 4, 63, 38
5, 23040, Note_on_c, 4, 63, 0
5, 23044, Note_on_c, 4, 67, 38
5, 23520, Note_on_c, 4, 67, 0
5, 23524, Note_on_c, 4, 63, 38
5, 24000, Note_on_c, 4, 63, 0
5, 24004, Note_on_c, 4, 68, 38
5, 24480, Note_on_c, 4, 68, 0
5, 24484, Note_on_c, 4, 62, 38
5, 24960, Note_on_c, 4, 62, 0
5, 24964, Note_on_c, 4, 67, 38
5, 25440, Note_on_c, 4, 67, 0
5, 25444, Note_on_c, 4, 61, 38
5, 25680, Note_on_c, 4, 61, 0
5, 25684, Note_on_c, 4, 67, 38
5, 25920, Note_on_c, 4, 67, 0
5, 25924, Note_on_c, 4, 60, 38
5, 26400, Note_on_c, 4, 60, 0
5, 26404, Note_on_c, 4, 60, 38
5, 26880, Note_on_c, 4, 60, 0
5, 26884, Note_on_c, 4, 67, 38
5, 27360, Note_on_c, 4, 67, 0
5, 27364, Note_on_c, 4, 67, 38
5, 27840, Note_on_c, 4, 67, 0
5, 27844, Note_on_c, 4, 60, 38
5, 28320, Note_on_c, 4, 60, 0
5, 28324, Note_on_c, 4, 69, 38
5, 28800, Note_on_c, 4, 69, 0
5, 28804, Note_on_c, 4, 62, 38
5, 29280, Note_on_c, 4, 62, 0
5, 29284, Note_on_c, 4, 62, 38
5, 29760, Note_on_c, 4, 62, 0
5, 29764, Note_on_c, 4, 67, 38
5, 30240, Note_on_c, 4, 67, 0
5, 30244, Note_on_c, 4, 63, 38
5, 30720, Note_on_c, 4, 63, 0
5, 30724, Note_on_c, 4, 67, 38
5, 31200, Note_on_c, 4, 67, 0
5, 31204, Note_on_c, 4, 63, 38
5, 31680, Note_on_c, 4, 63, 0
5, 31684, Note_on_c, 4, 68, 38
5, 31920, Note_on_c, 4, 68, 0
5, 31924, Note_on_c, 4, 68, 38
5, 32040, Note_on_c, 4, 68, 0
5, 32044, Note_on_c, 4, 68, 38
5, 32160, Note_on_c, 4, 68, 0
5, 32164, Note_on_c, 4, 62, 38
5, 32640, Note_on_c, 4, 62, 0
5, 32644, Note_on_c, 4, 67, 38
5, 33120, Note_on_c, 4, 67, 0
5, 33124, Note_on_c, 4, 67, 38
5, 33364, Note_on_c, 4, 67, 0
5, 33600, Control_c, 4, 64, 0
5, 33600, End_track
6, 0, Start_track
6, 0, MIDI_port, 0
6, 0, Title_t, "Melody 1"
6, 0, Control_c, 5, 121, 0
6, 0, Control_c, 5, 123, 0
6, 0, Control_c, 5, 93, 0
6, 147, Program_c, 5, 74
6, 148, Control_c, 5, 7, 98
6, 148, Control_c, 5, 10, 64
6, 2400, Control_c, 5, 91, 75
6, 2880, Note_on_c, 5, 70, 85
6, 3113, Note_on_c, 5, 70, 0
6, 3120, Note_on_c, 5, 67, 83
6, 3469, Note_on_c, 5, 67, 0
6, 3600, Note_on_c, 5, 67, 82
6, 3660, Note_on_c, 5, 67, 0
6, 3660, Note_on_c, 5, 70, 79
6, 3720, Note_on_c, 5, 70, 0
6, 3720, Note_on_c, 5, 74, 85
6, 3780, Note_on_c, 5, 74, 0
6, 3780, Note_on_c, 5, 70, 77
6, 3840, Note_on_c, 5, 70, 0
6, 3840, Note_on_c, 5, 72, 85
6, 4073, Note_on_c, 5, 72, 0
6, 4080, Note_on_c, 5, 67, 83
6, 4429, Note_on_c, 5, 67, 0
6, 4560, Note_on_c, 5, 70, 82
6, 4620, Note_on_c, 5, 70, 0
6, 4620, Note_on_c, 5, 67, 79
6, 4680, Note_on_c, 5, 67, 0
6, 4680, Note_on_c, 5, 70, 85
6, 4740, Note_on_c, 5, 70, 0
6, 4740, Note_on_c, 5, 67, 77
6, 4800, Note_on_c, 5, 67, 0
6, 4800, Note_on_c, 5, 60, 85
6, 5033, Note_on_c, 5, 60, 0
6, 5040, Note_on_c, 5, 65, 83
6, 5389, Note_on_c, 5, 65, 0
6, 5400, Note_on_c, 5, 65, 83
6, 5460, Note_on_c, 5, 65, 0
6, 5460, Note_on_c, 5, 67, 79
6, 5520, Note_on_c, 5, 67, 0
6, 5520, Note_on_c, 5, 70, 82
6, 5580, Note_on_c, 5, 70, 0
6, 5580, Note_on_c, 5, 67, 79
6, 5700, Note_on_c, 5, 67, 0
6, 5700, Note_on_c, 5, 65, 77
6, 5760, Note_on_c, 5, 65, 0
6, 5760, Note_on_c, 5, 67, 85
6, 6226, Note_on_c, 5, 67, 0
6, 6720, Note_on_c, 5, 70, 85
6, 6953, Note_on_c, 5, 70, 0
6, 6960, Note_on_c, 5, 67, 83
6, 7309, Note_on_c, 5, 67, 0
6, 7440, Note_on_c, 5, 67, 82
6, 7500, Note_on_c, 5, 67, 0
6, 7500, Note_on_c, 5, 70, 79
6, 7560, Note_on_c, 5, 70, 0
6, 7560, Note_on_c, 5, 74, 85
6, 7620, Note_on_c, 5, 74, 0
6, 7620, Note_on_c, 5, 70, 77
6, 7680, Note_on_c, 5, 70, 0
6, 7680, Note_on_c, 5, 72, 85
6, 7913, Note_on_c, 5, 72, 0
6, 7920, Note_on_c, 5, 67, 83
6, 8269, Note_on_c, 5, 67, 0
6, 8400, Note_on_c, 5, 70, 82
6, 8460, Note_on_c, 5, 70, 0
6, 8460, Note_on_c, 5, 67, 79
6, 8520, Note_on_c, 5, 67, 0
6, 8520, Note_on_c, 5, 70, 85
6, 8580, Note_on_c, 5, 70, 0
6, 8580, Note_on_c, 5, 67, 77
6, 8640, Note_on_c, 5, 67, 0
6, 8640, Note_on_c, 5, 60, 85
6, 8873, Note_on_c, 5, 60, 0
6, 8880, Note_on_c, 5, 65, 83
6, 9229, Note_on_c, 5, 65, 0
6, 9240, Note_on_c, 5, 65, 83
6, 9300, Note_on_c, 5, 65, 0
6, 9300, Note_on_c, 5, 67, 79
6, 9360, Note_on_c, 5, 67, 0
6, 9360, Note_on_c, 5, 70, 82
6, 9420, Note_on_c, 5, 70, 0
6, 9420, Note_on_c, 5, 67, 79
6, 9540, Note_on_c, 5, 67, 0
6, 9540, Note_on_c, 5, 60, 77
6, 9600, Note_on_c, 5, 60, 0
6, 9600, Note_on_c, 5, 63, 85
6, 10066, Note_on_c, 5, 63, 0
6, 10440, Note_on_c, 5, 63, 85
6, 10560, Note_on_c, 5, 63, 0
6, 10560, Note_on_c, 5, 75, 85
6, 10680, Note_on_c, 5, 75, 0
6, 10680, Note_on_c, 5, 72, 83
6, 10740, Note_on_c, 5, 72, 0
6, 10740, Note_on_c, 5, 74, 77
6, 10800, Note_on_c, 5, 74, 0
6, 10800, Note_on_c, 5, 75, 83
6, 10860, Note_on_c, 5, 75, 0
6, 10860, Note_on_c, 5, 72, 77
6, 11040, Note_on_c, 5, 72, 0
6, 11100, Note_on_c, 5, 72, 76
6, 11160, Note_on_c, 5, 72, 0
6, 11160, Note_on_c, 5, 72, 83
6, 11220, Note_on_c, 5, 72, 0
6, 11220, Note_on_c, 5, 74, 79
6, 11280, Note_on_c, 5, 74, 0
6, 11280, Note_on_c, 5, 75, 82
6, 11340, Note_on_c, 5, 75, 0
6, 11340, Note_on_c, 5, 75, 79
6, 11400, Note_on_c, 5, 75, 0
6, 11400, Note_on_c, 5, 74, 85
6, 11460, Note_on_c, 5, 74, 0
6, 11460, Note_on_c, 5, 72, 77
6, 11520, Note_on_c, 5, 72, 0
6, 11520, Note_on_c, 5, 74, 85
6, 11580, Note_on_c, 5, 74, 0
6, 11580, Note_on_c, 5, 70, 79
6, 11987, Note_on_c, 5, 70, 0
6, 12480, Note_on_c, 5, 75, 85
6, 12600, Note_on_c, 5, 75, 0
6, 12600, Note_on_c, 5, 72, 83
6, 12660, Note_on_c, 5, 72, 0
6, 12660, Note_on_c, 5, 74, 77
6, 12720, Note_on_c, 5, 74, 0
6, 12720, Note_on_c, 5, 75, 83
6, 12780, Note_on_c, 5, 75, 0
6, 12780, Note_on_c, 5, 72, 77
6, 12960, Note_on_c, 5, 72, 0
6, 13080, Note_on_c, 5, 72, 83
6, 13140, Note_on_c, 5, 72, 0
6, 13140, Note_on_c, 5, 74, 79
6, 13200, Note_on_c, 5, 74, 0
6, 13200, Note_on_c, 5, 75, 82
6, 13260, Note_on_c, 5, 75, 0
6, 13260, Note_on_c, 5, 74, 79
6, 13380, Note_on_c, 5, 74, 0
6, 13380, Note_on_c, 5, 73, 77
6, 13440, Note_on_c, 5, 73, 0
6, 13440, Note_on_c, 5, 74, 85
6, 13906, Note_on_c, 5, 74, 0
6, 14400, Note_on_c, 5, 70, 85
6, 14633, Note_on_c, 5, 70, 0
6, 14640, Note_on_c, 5, 67, 83
6, 14989, Note_on_c, 5, 67, 0
6, 15120, Note_on_c, 5, 67, 82
6, 15180, Note_on_c, 5, 67, 0
6, 15180, Note_on_c, 5, 70, 79
6, 15240, Note_on_c, 5, 70, 0
6, 15240, Note_on_c, 5, 74, 85
6, 15300, Note_on_c, 5, 74, 0
6, 15300, Note_on_c, 5, 70, 77
6, 15360, Note_on_c, 5, 70, 0
6, 15360, Note_on_c, 5, 72, 85
6, 15593, Note_on_c, 5, 72, 0
6, 15600, Note_on_c, 5, 67, 83
6, 15949, Note_on_c, 5, 67, 0
6, 16080, Note_on_c, 5, 70, 82
6, 16140, Note_on_c, 5, 70, 0
6, 16140, Note_on_c, 5, 67, 79
6, 16200, Note_on_c, 5, 67, 0
6, 16200, Note_on_c, 5, 70, 85
6, 16260, Note_on_c, 5, 70, 0
6, 16260, Note_on_c, 5, 67, 77
6, 16320, Note_on_c, 5, 67, 0
6, 16320, Note_on_c, 5, 60, 85
6, 16553, Note_on_c, 5, 60, 0
6, 16560, Note_on_c, 5, 65, 83
6, 16909, Note_on_c, 5, 65, 0
6, 16920, Note_on_c, 5, 65, 83
6, 16980, Note_on_c, 5, 65, 0
6, 16980, Note_on_c, 5, 67, 79
6, 17040, Note_on_c, 5, 67, 0
6, 17040, Note_on_c, 5, 70, 82
6, 17100, Note_on_c, 5, 70, 0
6, 17100, Note_on_c, 5, 67, 79
6, 17220, Note_on_c, 5, 67, 0
6, 17220, Note_on_c, 5, 60, 77
6, 17280, Note_on_c, 5, 60, 0
6, 17280, Note_on_c, 5, 63, 85
6, 17746, Note_on_c, 5, 63, 0
6, 18240, Note_on_c, 5, 70, 85
6, 18473, Note_on_c, 5, 70, 0
6, 18480, Note_on_c, 5, 67, 83
6, 18829, Note_on_c, 5, 67, 0
6, 18960, Note_on_c, 5, 67, 82
6, 19020, Note_on_c, 5, 67, 0
6, 19020, Note_on_c, 5, 70, 79
6, 19080, Note_on_c, 5, 70, 0
6, 19080, Note_on_c, 5, 74, 85
6, 19140, Note_on_c, 5, 74, 0
6, 19140, Note_on_c, 5, 70, 77
6, 19200, Note_on_c, 5, 70, 0
6, 19200, Note_on_c, 5, 72, 85
6, 19433, Note_on_c, 5, 72, 0
6, 19440, Note_on_c, 5, 67, 83
6, 19789, Note_on_c, 5, 67, 0
6, 19920, Note_on_c, 5, 70, 82
6, 19980, Note_on_c, 5, 70, 0
6, 19980, Note_on_c, 5, 67, 79
6, 20040, Note_on_c, 5, 67, 0
6, 20040, Note_on_c, 5, 70, 85
6, 20100, Note_on_c, 5, 70, 0
6, 20100, Note_on_c, 5, 67, 77
6, 20160, Note_on_c, 5, 67, 0
6, 20160, Note_on_c, 5, 60, 85
6, 20393, Note_on_c, 5, 60, 0
6, 20400, Note_on_c, 5, 65, 83
6, 20749, Note_on_c, 5, 65, 0
6, 20760, Note_on_c, 5, 65, 83
6, 20820, Note_on_c, 5, 65, 0
6, 20820, Note_on_c, 5, 67, 79
6, 20880, Note_on_c, 5, 67, 0
6, 20880, Note_on_c, 5, 70, 82
6, 20940, Note_on_c, 5, 70, 0
6, 20940, Note_on_c, 5, 67, 79
6, 21060, Note_on_c, 5, 67, 0
6, 21060, Note_on_c, 5, 65, 77
6, 21120, Note_on_c, 5, 65, 0
6, 21120, Note_on_c, 5, 67, 85
6, 21586, Note_on_c, 5, 67, 0
6, 22080, Note_on_c, 5, 70, 85
6, 22313, Note_on_c, 5, 70, 0
6, 22320, Note_on_c, 5, 67, 83
6, 22669, Note_on_c, 5, 67, 0
6, 22800, Note_on_c, 5, 67, 82
6, 22860, Note_on_c, 5, 67, 0
6, 22860, Note_on_c, 5, 70, 79
6, 22920, Note_on_c, 5, 70, 0
6, 22920, Note_on_c, 5, 74, 85
6, 22980, Note_on_c, 5, 74, 0
6, 22980, Note_on_c, 5, 70, 77
6, 23040, Note_on_c, 5, 70, 0
6, 23040, Note_on_c, 5, 72, 85
6, 23273, Note_on_c, 5, 72, 0
6, 23280, Note_on_c, 5, 67, 83
6, 23629, Note_on_c, 5, 67, 0
6, 23760, Note_on_c, 5, 70, 82
6, 23820, Note_on_c, 5, 70, 0
6, 23820, Note_on_c, 5, 67, 79
6, 23880, Note_on_c, 5, 67, 0
6, 23880, Note_on_c, 5, 70, 85
6, 23940, Note_on_c, 5, 70, 0
6, 23940, Note_on_c, 5, 67, 77
6, 24000, Note_on_c, 5, 67, 0
6, 24000, Note_on_c, 5, 60, 85
6, 24233, Note_on_c, 5, 60, 0
6, 24240, Note_on_c, 5, 65, 83
6, 24589, Note_on_c, 5, 65, 0
6, 24600, Note_on_c, 5, 65, 83
6, 24660, Note_on_c, 5, 65, 0
6, 24660, Note_on_c, 5, 67, 79
6, 24720, Note_on_c, 5, 67, 0
6, 24720, Note_on_c, 5, 70, 82
6, 24780, Note_on_c, 5, 70, 0
6, 24780, Note_on_c, 5, 67, 79
6, 24900, Note_on_c, 5, 67, 0
6, 24900, Note_on_c, 5, 60, 77
6, 24960, Note_on_c, 5, 60, 0
6, 24960, Note_on_c, 5, 63, 85
6, 25426, Note_on_c, 5, 63, 0
6, 25800, Note_on_c, 5, 63, 85
6, 25920, Note_on_c, 5, 63, 0
6, 25920, Note_on_c, 5, 75, 85
6, 26040, Note_on_c, 5, 75, 0
6, 26040, Note_on_c, 5, 72, 83
6, 26100, Note_on_c, 5, 72, 0
6, 26100, Note_on_c, 5, 74, 77
6, 26160, Note_on_c, 5, 74, 0
6, 26160, Note_on_c, 5, 75, 83
6, 26220, Note_on_c, 5, 75, 0
6, 26220, Note_on_c, 5, 72, 77
6, 26400, Note_on_c, 5, 72, 0
6, 26460, Note_on_c, 5, 72, 76
6, 26520, Note_on_c, 5, 72, 0
6, 26520, Note_on_c, 5, 72, 83
6, 26580, Note_on_c, 5, 72, 0
6, 26580, Note_on_c, 5, 74, 79
6, 26640, Note_on_c, 5, 74, 0
6, 26640, Note_on_c, 5, 75, 82
6, 26700, Note_on_c, 5, 75, 0
6, 26700, Note_on_c, 5, 75, 79
6, 26760, Note_on_c, 5, 75, 0
6, 26760, Note_on_c, 5, 74, 85
6, 26820, Note_on_c, 5, 74, 0
6, 26820, Note_on_c, 5, 72, 77
6, 26880, Note_on_c, 5, 72, 0
6, 26880, Note_on_c, 5, 74, 85
6, 26940, Note_on_c, 5, 74, 0
6, 26940, Note_on_c, 5, 70, 79
6, 27347, Note_on_c, 5, 70, 0
6, 27840, Note_on_c, 5, 75, 85
6, 27960, Note_on_c, 5, 75, 0
6, 27960, Note_on_c, 5, 72, 83
6, 28020, Note_on_c, 5, 72, 0
6, 28020, Note_on_c, 5, 74, 77
6, 28080, Note_on_c, 5, 74, 0
6, 28080, Note_on_c, 5, 75, 83
6, 28140, Note_on_c, 5, 75, 0
6, 28140, Note_on_c, 5, 72, 77
6, 28320, Note_on_c, 5, 72, 0
6, 28440, Note_on_c, 5, 72, 83
6, 28500, Note_on_c, 5, 72, 0
6, 28500, Note_on_c, 5, 74, 79
6, 28560, Note_on_c, 5, 74, 0
6, 28560, Note_on_c, 5, 75, 82
6, 28620, Note_on_c, 5, 75, 0
6, 28620, Note_on_c, 5, 74, 79
6, 28740, Note_on_c, 5, 74, 0
6, 28740, Note_on_c, 5, 73, 77
6, 28800, Note_on_c, 5, 73, 0
6, 28800, Note_on_c, 5, 74, 85
6, 29266, Note_on_c, 5, 74, 0
6, 29760, Note_on_c, 5, 70, 85
6, 29993, Note_on_c, 5, 70, 0
6, 30000, Note_on_c, 5, 67, 83
6, 30349, Note_on_c, 5, 67, 0
6, 30480, Note_on_c, 5, 67, 82
6, 30540, Note_on_c, 5, 67, 0
6, 30540, Note_on_c, 5, 70, 79
6, 30600, Note_on_c, 5, 70, 0
6, 30600, Note_on_c, 5, 74, 85
6, 30660, Note_on_c, 5, 74, 0
6, 30660, Note_on_c, 5, 70, 77
6, 30720, Note_on_c, 5, 70, 0
6, 30720, Note_on_c, 5, 72, 85
6, 30953, Note_on_c, 5, 72, 0
6, 30960, Note_on_c, 5, 67, 83
6, 31309, Note_on_c, 5, 67, 0
6, 31440, Note_on_c, 5, 70, 82
6, 31500, Note_on_c, 5, 70, 0
6, 31500, Note_on_c, 5, 67, 79
6, 31560, Note_on_c, 5, 67, 0
6, 31560, Note_on_c, 5, 70, 85
6, 31620, Note_on_c, 5, 70, 0
6, 31620, Note_on_c, 5, 67, 77
6, 31680, Note_on_c, 5, 67, 0
6, 31680, Note_on_c, 5, 60, 85
6, 31913, Note_on_c, 5, 60, 0
6, 31920, Note_on_c, 5, 65, 83
6, 32269, Note_on_c, 5, 65, 0
6, 32280, Note_on_c, 5, 65, 83
6, 32340, Note_on_c, 5, 65, 0
6, 32340, Note_on_c, 5, 67, 79
6, 32400, Note_on_c, 5, 67, 0
6, 32400, Note_on_c, 5, 70, 82
6, 32460, Note_on_c, 5, 70, 0
6, 32460, Note_on_c, 5, 67, 79
6, 32580, Note_on_c, 5, 67, 0
6, 32580, Note_on_c, 5, 60, 77
6, 32640, Note_on_c, 5, 60, 0
6, 32640, Note_on_c, 5, 63, 85
6, 33206, Note_on_c, 5, 63, 0
6, 33206, End_track
7, 0, Start_track
7, 0, MIDI_port, 0
7, 0, Title_t, "Melody 2"
7, 0, Control_c, 6, 121, 0
7, 0, Control_c, 6, 123, 0
7, 0, Control_c, 6, 91, 60
7, 0, Control_c, 6, 93, 0
7, 152, Program_c, 6, 53
7, 153, Control_c, 6, 7, 89
7, 153, Control_c, 6, 10, 62
7, 720, Note_on_c, 6, 70, 87
7, 780, Note_on_c, 6, 70, 0
7, 780, Note_on_c, 6, 67, 85
7, 840, Note_on_c, 6, 67, 0
7, 840, Note_on_c, 6, 70, 87
7, 900, Note_on_c, 6, 70, 0
7, 900, Note_on_c, 6, 67, 83
7, 960, Note_on_c, 6, 67, 0
7, 960, Note_on_c, 6, 60, 87
7, 1200, Note_on_c, 6, 60, 0
7, 1200, Note_on_c, 6, 65, 88
7, 1560, Note_on_c, 6, 65, 0
7, 1560, Note_on_c, 6, 65, 89
7, 1620, Note_on_c, 6, 65, 0
7, 1620, Note_on_c, 6, 67, 85
7, 1680, Note_on_c, 6, 67, 0
7, 1680, Note_on_c, 6, 70, 87
7, 1740, Note_on_c, 6, 70, 0
7, 1740, Note_on_c, 6, 67, 85
7, 1860, Note_on_c, 6, 67, 0
7, 1860, Note_on_c, 6, 60, 83
7, 1920, Note_on_c, 6, 60, 0
7, 1920, Note_on_c, 6, 63, 87
7, 2400, Note_on_c, 6, 63, 0
7, 2460, Note_on_c, 6, 63, 83
7, 2520, Note_on_c, 6, 63, 0
7, 2520, Note_on_c, 6, 65, 89
7, 2580, Note_on_c, 6, 65, 0
7, 2580, Note_on_c, 6, 68, 85
7, 2640, Note_on_c, 6, 68, 0
7, 2640, Note_on_c, 6, 72, 87
7, 2760, Note_on_c, 6, 72, 0
7, 2760, Note_on_c, 6, 74, 87
7, 2820, Note_on_c, 6, 74, 0
7, 2820, Note_on_c, 6, 72, 83
7, 2880, Note_on_c, 6, 72, 0
7, 2880, Program_c, 6, 50
7, 2880, Note_on_c, 6, 70, 75
7, 3113, Note_on_c, 6, 70, 0
7, 3120, Note_on_c, 6, 67, 72
7, 3586, Note_on_c, 6, 67, 0
7, 3600, Note_on_c, 6, 67, 72
7, 3658, Note_on_c, 6, 67, 0
7, 3660, Note_on_c, 6, 70, 67
7, 3718, Note_on_c, 6, 70, 0
7, 3720, Note_on_c, 6, 74, 75
7, 3778, Note_on_c, 6, 74, 0
7, 3780, Note_on_c, 6, 70, 66
7, 3838, Note_on_c, 6, 70, 0
7, 3840, Note_on_c, 6, 72, 75
7, 4073, Note_on_c, 6, 72, 0
7, 4080, Note_on_c, 6, 67, 72
7, 4546, Note_on_c, 6, 67, 0
7, 4560, Note_on_c, 6, 70, 72
7, 4618, Note_on_c, 6, 70, 0
7, 4620, Note_on_c, 6, 67, 67
7, 4678, Note_on_c, 6, 67, 0
7, 4680, Note_on_c, 6, 70, 75
7, 4738, Note_on_c, 6, 70, 0
7, 4740, Note_on_c, 6, 67, 66
7, 4798, Note_on_c, 6, 67, 0
7, 4800, Note_on_c, 6, 60, 75
7, 5033, Note_on_c, 6, 60, 0
7, 5040, Note_on_c, 6, 65, 72
7, 5389, Note_on_c, 6, 65, 0
7, 5400, Note_on_c, 6, 65, 73
7, 5458, Note_on_c, 6, 65, 0
7, 5460, Note_on_c, 6, 67, 67
7, 5518, Note_on_c, 6, 67, 0
7, 5520, Note_on_c, 6, 70, 72
7, 5578, Note_on_c, 6, 70, 0
7, 5580, Note_on_c, 6, 67, 67
7, 5696, Note_on_c, 6, 67, 0
7, 5700, Note_on_c, 6, 65, 66
7, 5758, Note_on_c, 6, 65, 0
7, 5760, Note_on_c, 6, 67, 75
7, 6226, Note_on_c, 6, 67, 0
7, 6300, Note_on_c, 6, 72, 88
7, 6420, Note_on_c, 6, 72, 0
7, 6420, Note_on_c, 6, 75, 89
7, 6480, Note_on_c, 6, 75, 0
7, 6480, Note_on_c, 6, 74, 90
7, 6600, Note_on_c, 6, 74, 0
7, 6600, Note_on_c, 6, 72, 90
7, 6720, Note_on_c, 6, 72, 0
7, 6720, Note_on_c, 6, 70, 73
7, 6953, Note_on_c, 6, 70, 0
7, 6960, Note_on_c, 6, 67, 72
7, 7426, Note_on_c, 6, 67, 0
7, 7440, Note_on_c, 6, 67, 72
7, 7498, Note_on_c, 6, 67, 0
7, 7500, Note_on_c, 6, 70, 67
7, 7558, Note_on_c, 6, 70, 0
7, 7560, Note_on_c, 6, 74, 75
7, 7618, Note_on_c, 6, 74, 0
7, 7620, Note_on_c, 6, 70, 66
7, 7678, Note_on_c, 6, 70, 0
7, 7680, Note_on_c, 6, 72, 75
7, 7913, Note_on_c, 6, 72, 0
7, 7920, Note_on_c, 6, 67, 72
7, 8386, Note_on_c, 6, 67, 0
7, 8400, Note_on_c, 6, 70, 72
7, 8458, Note_on_c, 6, 70, 0
7, 8460, Note_on_c, 6, 67, 67
7, 8518, Note_on_c, 6, 67, 0
7, 8520, Note_on_c, 6, 70, 75
7, 8578, Note_on_c, 6, 70, 0
7, 8580, Note_on_c, 6, 67, 66
7, 8638, Note_on_c, 6, 67, 0
7, 8640, Note_on_c, 6, 60, 75
7, 8873, Note_on_c, 6, 60, 0
7, 8880, Note_on_c, 6, 65, 72
7, 9229, Note_on_c, 6, 65, 0
7, 9240, Note_on_c, 6, 65, 73
7, 9298, Note_on_c, 6, 65, 0
7, 9300, Note_on_c, 6, 67, 67
7, 9358, Note_on_c, 6, 67, 0
7, 9360, Note_on_c, 6, 70, 72
7, 9418, Note_on_c, 6, 70, 0
7, 9420, Note_on_c, 6, 67, 67
7, 9536, Note_on_c, 6, 67, 0
7, 9540, Note_on_c, 6, 60, 66
7, 9598, Note_on_c, 6, 60, 0
7, 9600, Note_on_c, 6, 63, 75
7, 10066, Note_on_c, 6, 63, 0
7, 10080, Note_on_c, 6, 65, 90
7, 10140, Note_on_c, 6, 65, 0
7, 10140, Note_on_c, 6, 72, 89
7, 10260, Note_on_c, 6, 72, 0
7, 10260, Note_on_c, 6, 72, 90
7, 10320, Note_on_c, 6, 72, 0
7, 10320, Note_on_c, 6, 70, 90
7, 10440, Note_on_c, 6, 70, 0
7, 10440, Note_on_c, 6, 63, 90
7, 10560, Note_on_c, 6, 63, 0
7, 10560, Note_on_c, 6, 72, 75
7, 10560, Note_on_c, 6, 75, 75
7, 10676, Note_on_c, 6, 75, 0
7, 10676, Note_on_c, 6, 72, 0
7, 10680, Note_on_c, 6, 68, 72
7, 10680, Note_on_c, 6, 72, 72
7, 10738, Note_on_c, 6, 72, 0
7, 10738, Note_on_c, 6, 68, 0
7, 10740, Note_on_c, 6, 70, 66
7, 10740, Note_on_c, 6, 74, 66
7, 10798, Note_on_c, 6, 74, 0
7, 10798, Note_on_c, 6, 70, 0
7, 10800, Note_on_c, 6, 72, 72
7, 10800, Note_on_c, 6, 75, 72
7, 10858, Note_on_c, 6, 75, 0
7, 10858, Note_on_c, 6, 72, 0
7, 10860, Note_on_c, 6, 68, 66
7, 10860, Note_on_c, 6, 72, 66
7, 11035, Note_on_c, 6, 72, 0
7, 11035, Note_on_c, 6, 68, 0
7, 11100, Note_on_c, 6, 68, 66
7, 11100, Note_on_c, 6, 72, 66
7, 11158, Note_on_c, 6, 72, 0
7, 11158, Note_on_c, 6, 68, 0
7, 11160, Note_on_c, 6, 68, 73
7, 11160, Note_on_c, 6, 72, 73
7, 11218, Note_on_c, 6, 72, 0
7, 11218, Note_on_c, 6, 68, 0
7, 11220, Note_on_c, 6, 70, 67
7, 11220, Note_on_c, 6, 74, 67
7, 11278, Note_on_c, 6, 74, 0
7, 11278, Note_on_c, 6, 70, 0
7, 11280, Note_on_c, 6, 72, 72
7, 11280, Note_on_c, 6, 75, 72
7, 11338, Note_on_c, 6, 75, 0
7, 11338, Note_on_c, 6, 72, 0
7, 11340, Note_on_c, 6, 72, 68
7, 11340, Note_on_c, 6, 75, 68
7, 11398, Note_on_c, 6, 75, 0
7, 11398, Note_on_c, 6, 72, 0
7, 11400, Note_on_c, 6, 70, 76
7, 11400, Note_on_c, 6, 74, 76
7, 11458, Note_on_c, 6, 74, 0
7, 11458, Note_on_c, 6, 70, 0
7, 11460, Note_on_c, 6, 68, 67
7, 11460, Note_on_c, 6, 72, 67
7, 11518, Note_on_c, 6, 72, 0
7, 11518, Note_on_c, 6, 68, 0
7, 11520, Note_on_c, 6, 70, 76
7, 11520, Note_on_c, 6, 74, 76
7, 11578, Note_on_c, 6, 74, 0
7, 11578, Note_on_c, 6, 70, 0
7, 11580, Note_on_c, 6, 67, 68
7, 11580, Note_on_c, 6, 70, 68
7, 12104, Note_on_c, 6, 70, 0
7, 12104, Note_on_c, 6, 67, 0
7, 12480, Note_on_c, 6, 72, 76
7, 12480, Note_on_c, 6, 75, 76
7, 12596, Note_on_c, 6, 75, 0
7, 12596, Note_on_c, 6, 72, 0
7, 12600, Note_on_c, 6, 68, 73
7, 12600, Note_on_c, 6, 72, 73
7, 12658, Note_on_c, 6, 72, 0
7, 12658, Note_on_c, 6, 68, 0
7, 12660, Note_on_c, 6, 70, 67
7, 12660, Note_on_c, 6, 74, 67
7, 12718, Note_on_c, 6, 74, 0
7, 12718, Note_on_c, 6, 70, 0
7, 12720, Note_on_c, 6, 72, 73
7, 12720, Note_on_c, 6, 75, 73
7, 12778, Note_on_c, 6, 75, 0
7, 12778, Note_on_c, 6, 72, 0
7, 12780, Note_on_c, 6, 68, 67
7, 12780, Note_on_c, 6, 72, 67
7, 12955, Note_on_c, 6, 72, 0
7, 12955, Note_on_c, 6, 68, 0
7, 13080, Note_on_c, 6, 72, 73
7, 13138, Note_on_c, 6, 72, 0
7, 13140, Note_on_c, 6, 74, 68
7, 13198, Note_on_c, 6, 74, 0
7, 13200, Note_on_c, 6, 75, 72
7, 13258, Note_on_c, 6, 75, 0
7, 13260, Note_on_c, 6, 74, 68
7, 13376, Note_on_c, 6, 74, 0
7, 13380, Note_on_c, 6, 73, 67
7, 13438, Note_on_c, 6, 73, 0
7, 13440, Note_on_c, 6, 74, 76
7, 14022, Note_on_c, 6, 74, 0
7, 14400, Note_on_c, 6, 70, 76
7, 14633, Note_on_c, 6, 70, 0
7, 14640, Note_on_c, 6, 67, 73
7, 14989, Note_on_c, 6, 67, 0
7, 15120, Note_on_c, 6, 67, 72
7, 15178, Note_on_c, 6, 67, 0
7, 15180, Note_on_c, 6, 70, 68
7, 15238, Note_on_c, 6, 70, 0
7, 15240, Note_on_c, 6, 74, 76
7, 15298, Note_on_c, 6, 74, 0
7, 15300, Note_on_c, 6, 70, 67
7, 15358, Note_on_c, 6, 70, 0
7, 15360, Note_on_c, 6, 72, 76
7, 15593, Note_on_c, 6, 72, 0
7, 15600, Note_on_c, 6, 67, 73
7, 16066, Note_on_c, 6, 67, 0
7, 16080, Note_on_c, 6, 70, 72
7, 16138, Note_on_c, 6, 70, 0
7, 16140, Note_on_c, 6, 67, 68
7, 16198, Note_on_c, 6, 67, 0
7, 16200, Note_on_c, 6, 70, 76
7, 16258, Note_on_c, 6, 70, 0
7, 16260, Note_on_c, 6, 67, 67
7, 16318, Note_on_c, 6, 67, 0
7, 16320, Note_on_c, 6, 60, 76
7, 16553, Note_on_c, 6, 60, 0
7, 16560, Note_on_c, 6, 65, 73
7, 16909, Note_on_c, 6, 65, 0
7, 16920, Note_on_c, 6, 65, 73
7, 16978, Note_on_c, 6, 65, 0
7, 16980, Note_on_c, 6, 67, 68
7, 17038, Note_on_c, 6, 67, 0
7, 17040, Note_on_c, 6, 70, 72
7, 17098, Note_on_c, 6, 70, 0
7, 17100, Note_on_c, 6, 67, 68
7, 17216, Note_on_c, 6, 67, 0
7, 17220, Note_on_c, 6, 60, 67
7, 17278, Note_on_c, 6, 60, 0
7, 17280, Note_on_c, 6, 63, 76
7, 17746, Note_on_c, 6, 63, 0
7, 17820, Note_on_c, 6, 63, 89
7, 17880, Note_on_c, 6, 63, 0
7, 17880, Note_on_c, 6, 65, 89
7, 17940, Note_on_c, 6, 65, 0
7, 17940, Note_on_c, 6, 68, 90
7, 18000, Note_on_c, 6, 68, 0
7, 18000, Note_on_c, 6, 72, 90
7, 18120, Note_on_c, 6, 72, 0
7, 18120, Note_on_c, 6, 74, 90
7, 18180, Note_on_c, 6, 74, 0
7, 18180, Note_on_c, 6, 72, 89
7, 18240, Note_on_c, 6, 72, 0
7, 18240, Note_on_c, 6, 70, 76
7, 18473, Note_on_c, 6, 70, 0
7, 18480, Note_on_c, 6, 67, 73
7, 18946, Note_on_c, 6, 67, 0
7, 18960, Note_on_c, 6, 67, 72
7, 19018, Note_on_c, 6, 67, 0
7, 19020, Note_on_c, 6, 70, 68
7, 19078, Note_on_c, 6, 70, 0
7, 19080, Note_on_c, 6, 74, 76
7, 19138, Note_on_c, 6, 74, 0
7, 19140, Note_on_c, 6, 70, 67
7, 19198, Note_on_c, 6, 70, 0
7, 19200, Note_on_c, 6, 72, 76
7, 19433, Note_on_c, 6, 72, 0
7, 19440, Note_on_c, 6, 67, 73
7, 19906, Note_on_c, 6, 67, 0
7, 19920, Note_on_c, 6, 70, 72
7, 19978, Note_on_c, 6, 70, 0
7, 19980, Note_on_c, 6, 67, 68
7, 20038, Note_on_c, 6, 67, 0
7, 20040, Note_on_c, 6, 70, 76
7, 20098, Note_on_c, 6, 70, 0
7, 20100, Note_on_c, 6, 67, 67
7, 20158, Note_on_c, 6, 67, 0
7, 20160, Note_on_c, 6, 60, 76
7, 20393, Note_on_c, 6, 60, 0
7, 20400, Note_on_c, 6, 65, 73
7, 20749, Note_on_c, 6, 65, 0
7, 20760, Note_on_c, 6, 65, 73
7, 20818, Note_on_c, 6, 65, 0
7, 20820, Note_on_c, 6, 67, 68
7, 20878, Note_on_c, 6, 67, 0
7, 20880, Note_on_c, 6, 70, 72
7, 20938, Note_on_c, 6, 70, 0
7, 20940, Note_on_c, 6, 67, 68
7, 21056, Note_on_c, 6, 67, 0
7, 21060, Note_on_c, 6, 65, 67
7, 21118, Note_on_c, 6, 65, 0
7, 21120, Note_on_c, 6, 67, 73
7, 21586, Note_on_c, 6, 67, 0
7, 21660, Note_on_c, 6, 72, 88
7, 21780, Note_on_c, 6, 72, 0
7, 21780, Note_on_c, 6, 75, 89
7, 21840, Note_on_c, 6, 75, 0
7, 21840, Note_on_c, 6, 74, 89
7, 21960, Note_on_c, 6, 74, 0
7, 21960, Note_on_c, 6, 72, 90
7, 22080, Note_on_c, 6, 72, 0
7, 22080, Note_on_c, 6, 70, 73
7, 22313, Note_on_c, 6, 70, 0
7, 22320, Note_on_c, 6, 67, 73
7, 22786, Note_on_c, 6, 67, 0
7, 22800, Note_on_c, 6, 67, 73
7, 22858, Note_on_c, 6, 67, 0
7, 22860, Note_on_c, 6, 70, 68
7, 22918, Note_on_c, 6, 70, 0
7, 22920, Note_on_c, 6, 74, 77
7, 22978, Note_on_c, 6, 74, 0
7, 22980, Note_on_c, 6, 70, 68
7, 23038, Note_on_c, 6, 70, 0
7, 23040, Note_on_c, 6, 72, 77
7, 23273, Note_on_c, 6, 72, 0
7, 23280, Note_on_c, 6, 67, 75
7, 23746, Note_on_c, 6, 67, 0
7, 23760, Note_on_c, 6, 70, 73
7, 23818, Note_on_c, 6, 70, 0
7, 23820, Note_on_c, 6, 67, 68
7, 23878, Note_on_c, 6, 67, 0
7, 23880, Note_on_c, 6, 70, 77
7, 23938, Note_on_c, 6, 70, 0
7, 23940, Note_on_c, 6, 67, 68
7, 23998, Note_on_c, 6, 67, 0
7, 24000, Note_on_c, 6, 60, 77
7, 24233, Note_on_c, 6, 60, 0
7, 24240, Note_on_c, 6, 65, 75
7, 24589, Note_on_c, 6, 65, 0
7, 24600, Note_on_c, 6, 65, 75
7, 24658, Note_on_c, 6, 65, 0
7, 24660, Note_on_c, 6, 67, 68
7, 24718, Note_on_c, 6, 67, 0
7, 24720, Note_on_c, 6, 70, 73
7, 24778, Note_on_c, 6, 70, 0
7, 24780, Note_on_c, 6, 67, 68
7, 24896, Note_on_c, 6, 67, 0
7, 24900, Note_on_c, 6, 60, 68
7, 24958, Note_on_c, 6, 60, 0
7, 24960, Note_on_c, 6, 63, 77
7, 25426, Note_on_c, 6, 63, 0
7, 25440, Note_on_c, 6, 65, 91
7, 25500, Note_on_c, 6, 65, 0
7, 25500, Note_on_c, 6, 72, 90
7, 25620, Note_on_c, 6, 72, 0
7, 25620, Note_on_c, 6, 72, 89
7, 25680, Note_on_c, 6, 72, 0
7, 25680, Note_on_c, 6, 70, 90
7, 25800, Note_on_c, 6, 70, 0
7, 25800, Note_on_c, 6, 63, 91
7, 25920, Note_on_c, 6, 63, 0
7, 25920, Note_on_c, 6, 72, 77
7, 25920, Note_on_c, 6, 75, 77
7, 26036, Note_on_c, 6, 75, 0
7, 26036, Note_on_c, 6, 72, 0
7, 26040, Note_on_c, 6, 68, 75
7, 26040, Note_on_c, 6, 72, 75
7, 26098, Note_on_c, 6, 72, 0
7, 26098, Note_on_c, 6, 68, 0
7, 26100, Note_on_c, 6, 70, 68
7, 26100, Note_on_c, 6, 74, 68
7, 26158, Note_on_c, 6, 74, 0
7, 26158, Note_on_c, 6, 70, 0
7, 26160, Note_on_c, 6, 72, 75
7, 26160, Note_on_c, 6, 75, 75
7, 26218, Note_on_c, 6, 75, 0
7, 26218, Note_on_c, 6, 72, 0
7, 26220, Note_on_c, 6, 68, 68
7, 26220, Note_on_c, 6, 72, 68
7, 26395, Note_on_c, 6, 72, 0
7, 26395, Note_on_c, 6, 68, 0
7, 26460, Note_on_c, 6, 68, 67
7, 26460, Note_on_c, 6, 72, 67
7, 26518, Note_on_c, 6, 72, 0
7, 26518, Note_on_c, 6, 68, 0
7, 26520, Note_on_c, 6, 68, 75
7, 26520, Note_on_c, 6, 72, 75
7, 26578, Note_on_c, 6, 72, 0
7, 26578, Note_on_c, 6, 68, 0
7, 26580, Note_on_c, 6, 70, 68
7, 26580, Note_on_c, 6, 74, 68
7, 26638, Note_on_c, 6, 74, 0
7, 26638, Note_on_c, 6, 70, 0
7, 26640, Note_on_c, 6, 72, 73
7, 26640, Note_on_c, 6, 75, 73
7, 26698, Note_on_c, 6, 75, 0
7, 26698, Note_on_c, 6, 72, 0
7, 26700, Note_on_c, 6, 72, 68
7, 26700, Note_on_c, 6, 75, 68
7, 26758, Note_on_c, 6, 75, 0
7, 26758, Note_on_c, 6, 72, 0
7, 26760, Note_on_c, 6, 70, 77
7, 26760, Note_on_c, 6, 74, 77
7, 26818, Note_on_c, 6, 74, 0
7, 26818, Note_on_c, 6, 70, 0
7, 26820, Note_on_c, 6, 68, 68
7, 26820, Note_on_c, 6, 72, 68
7, 26878, Note_on_c, 6, 72, 0
7, 26878, Note_on_c, 6, 68, 0
7, 26880, Note_on_c, 6, 70, 77
7, 26880, Note_on_c, 6, 74, 77
7, 26938, Note_on_c, 6, 74, 0
7, 26938, Note_on_c, 6, 70, 0
7, 26940, Note_on_c, 6, 67, 68
7, 26940, Note_on_c, 6, 70, 68
7, 27464, Note_on_c, 6, 70, 0
7, 27464, Note_on_c, 6, 67, 0
7, 27840, Note_on_c, 6, 72, 77
7, 27840, Note_on_c, 6, 75, 77
7, 27956, Note_on_c, 6, 75, 0
7, 27956, Note_on_c, 6, 72, 0
7, 27960, Note_on_c, 6, 68, 75
7, 27960, Note_on_c, 6, 72, 75
7, 28018, Note_on_c, 6, 72, 0
7, 28018, Note_on_c, 6, 68, 0
7, 28020, Note_on_c, 6, 70, 68
7, 28020, Note_on_c, 6, 74, 68
7, 28078, Note_on_c, 6, 74, 0
7, 28078, Note_on_c, 6, 70, 0
7, 28080, Note_on_c, 6, 72, 75
7, 28080, Note_on_c, 6, 75, 75
7, 28138, Note_on_c, 6, 75, 0
7, 28138, Note_on_c, 6, 72, 0
7, 28140, Note_on_c, 6, 68, 68
7, 28140, Note_on_c, 6, 72, 68
7, 28315, Note_on_c, 6, 72, 0
7, 28315, Note_on_c, 6, 68, 0
7, 28440, Note_on_c, 6, 72, 75
7, 28498, Note_on_c, 6, 72, 0
7, 28500, Note_on_c, 6, 74, 68
7, 28558, Note_on_c, 6, 74, 0
7, 28560, Note_on_c, 6, 75, 73
7, 28618, Note_on_c, 6, 75, 0
7, 28620, Note_on_c, 6, 74, 68
7, 28736, Note_on_c, 6, 74, 0
7, 28740, Note_on_c, 6, 73, 68
7, 28798, Note_on_c, 6, 73, 0
7, 28800, Note_on_c, 6, 74, 77
7, 29382, Note_on_c, 6, 74, 0
7, 29760, Note_on_c, 6, 70, 77
7, 29993, Note_on_c, 6, 70, 0
7, 30000, Note_on_c, 6, 67, 75
7, 30349, Note_on_c, 6, 67, 0
7, 30480, Note_on_c, 6, 67, 73
7, 30538, Note_on_c, 6, 67, 0
7, 30540, Note_on_c, 6, 70, 68
7, 30598, Note_on_c, 6, 70, 0
7, 30600, Note_on_c, 6, 74, 77
7, 30658, Note_on_c, 6, 74, 0
7, 30660, Note_on_c, 6, 70, 68
7, 30718, Note_on_c, 6, 70, 0
7, 30720, Note_on_c, 6, 72, 77
7, 30953, Note_on_c, 6, 72, 0
7, 30960, Note_on_c, 6, 67, 75
7, 31426, Note_on_c, 6, 67, 0
7, 31440, Note_on_c, 6, 70, 73
7, 31498, Note_on_c, 6, 70, 0
7, 31500, Note_on_c, 6, 67, 68
7, 31558, Note_on_c, 6, 67, 0
7, 31560, Note_on_c, 6, 70, 77
7, 31618, Note_on_c, 6, 70, 0
7, 31620, Note_on_c, 6, 67, 68
7, 31678, Note_on_c, 6, 67, 0
7, 31680, Note_on_c, 6, 60, 77
7, 31913, Note_on_c, 6, 60, 0
7, 31920, Note_on_c, 6, 65, 75
7, 32269, Note_on_c, 6, 65, 0
7, 32280, Note_on_c, 6, 65, 75
7, 32338, Note_on_c, 6, 65, 0
7, 32340, Note_on_c, 6, 67, 68
7, 32398, Note_on_c, 6, 67, 0
7, 32400, Note_on_c, 6, 70, 73
7, 32458, Note_on_c, 6, 70, 0
7, 32460, Note_on_c, 6, 67, 68
7, 32576, Note_on_c, 6, 67, 0
7, 32580, Note_on_c, 6, 60, 68
7, 32638, Note_on_c, 6, 60, 0
7, 32640, Note_on_c, 6, 63, 77
7, 33278, Note_on_c, 6, 63, 0
7, 33278, End_track
8, 0, Start_track
8, 0, MIDI_port, 0
8, 0, Title_t, "Melody 3"
8, 0, Control_c, 7, 121, 0
8, 0, Control_c, 7, 123, 0
8, 0, Control_c, 7, 91, 30
8, 0, Control_c, 7, 93, 0
8, 157, Program_c, 7, 26
8, 158, Control_c, 7, 7, 88
8, 158, Control_c, 7, 10, 54
8, 960, Note_on_c, 7, 53, 69
8, 960, Note_on_c, 7, 56, 69
8, 1186, Note_on_c, 7, 56, 0
8, 1186, Note_on_c, 7, 53, 0
8, 1200, Note_on_c, 7, 60, 67
8, 1200, Note_on_c, 7, 56, 67
8, 1313, Note_on_c, 7, 56, 0
8, 1313, Note_on_c, 7, 60, 0
8, 1320, Note_on_c, 7, 56, 66
8, 1320, Note_on_c, 7, 63, 66
8, 1433, Note_on_c, 7, 63, 0
8, 1433, Note_on_c, 7, 56, 0
8, 1440, Note_on_c, 7, 56, 69
8, 1440, Note_on_c, 7, 62, 69
8, 1666, Note_on_c, 7, 62, 0
8, 1666, Note_on_c, 7, 56, 0
8, 1680, Note_on_c, 7, 56, 66
8, 1680, Note_on_c, 7, 62, 66
8, 1850, Note_on_c, 7, 62, 0
8, 1850, Note_on_c, 7, 56, 0
8, 1860, Note_on_c, 7, 56, 62
8, 1916, Note_on_c, 7, 56, 0
8, 1920, Note_on_c, 7, 55, 69
8, 1920, Note_on_c, 7, 58, 69
8, 2372, Note_on_c, 7, 58, 0
8, 2372, Note_on_c, 7, 55, 0
8, 2400, Note_on_c, 7, 60, 69
8, 2626, Note_on_c, 7, 60, 0
8, 2640, Note_on_c, 7, 62, 66
8, 2640, Note_on_c, 7, 66, 66
8, 2866, Note_on_c, 7, 66, 0
8, 2866, Note_on_c, 7, 62, 0
8, 2880, Note_on_c, 7, 62, 69
8, 2880, Note_on_c, 7, 67, 69
8, 3106, Note_on_c, 7, 67, 0
8, 3106, Note_on_c, 7, 62, 0
8, 3120, Note_on_c, 7, 58, 67
8, 3120, Note_on_c, 7, 62, 67
8, 3346, Note_on_c, 7, 62, 0
8, 3346, Note_on_c, 7, 58, 0
8, 3360, Note_on_c, 7, 58, 69
8, 3360, Note_on_c, 7, 62, 69
8, 3360, Note_on_c, 7, 67, 69
8, 3586, Note_on_c, 7, 67, 0
8, 3586, Note_on_c, 7, 62, 0
8, 3586, Note_on_c, 7, 58, 0
8, 3600, Note_on_c, 7, 63, 66
8, 3600, Note_on_c, 7, 67, 66
8, 3826, Note_on_c, 7, 67, 0
8, 3826, Note_on_c, 7, 63, 0
8, 3840, Note_on_c, 7, 62, 69
8, 3840, Note_on_c, 7, 67, 69
8, 4066, Note_on_c, 7, 67, 0
8, 4066, Note_on_c, 7, 62, 0
8, 4080, Note_on_c, 7, 58, 67
8, 4080, Note_on_c, 7, 62, 67
8, 4306, Note_on_c, 7, 62, 0
8, 4306, Note_on_c, 7, 58, 0
8, 4320, Note_on_c, 7, 55, 69
8, 4320, Note_on_c, 7, 58, 69
8, 4320, Note_on_c, 7, 63, 69
8, 4546, Note_on_c, 7, 63, 0
8, 4546, Note_on_c, 7, 58, 0
8, 4546, Note_on_c, 7, 55, 0
8, 4560, Note_on_c, 7, 60, 66
8, 4560, Note_on_c, 7, 63, 66
8, 4786, Note_on_c, 7, 63, 0
8, 4786, Note_on_c, 7, 60, 0
8, 4800, Note_on_c, 7, 53, 69
8, 4800, Note_on_c, 7, 56, 69
8, 5026, Note_on_c, 7, 56, 0
8, 5026, Note_on_c, 7, 53, 0
8, 5040, Note_on_c, 7, 56, 67
8, 5040, Note_on_c, 7, 60, 67
8, 5153, Note_on_c, 7, 60, 0
8, 5153, Note_on_c, 7, 56, 0
8, 5160, Note_on_c, 7, 56, 66
8, 5160, Note_on_c, 7, 63, 66
8, 5273, Note_on_c, 7, 63, 0
8, 5273, Note_on_c, 7, 56, 0
8, 5280, Note_on_c, 7, 56, 69
8, 5280, Note_on_c, 7, 62, 69
8, 5506, Note_on_c, 7, 62, 0
8, 5506, Note_on_c, 7, 56, 0
8, 5760, Note_on_c, 7, 55, 69
8, 5760, Note_on_c, 7, 58, 69
8, 5760, Note_on_c, 7, 62, 69
8, 6212, Note_on_c, 7, 62, 0
8, 6212, Note_on_c, 7, 58, 0
8, 6212, Note_on_c, 7, 55, 0
8, 6240, Note_on_c, 7, 63, 69
8, 6466, Note_on_c, 7, 63, 0
8, 6480, Note_on_c, 7, 62, 66
8, 6480, Note_on_c, 7, 66, 66
8, 6706, Note_on_c, 7, 66, 0
8, 6706, Note_on_c, 7, 62, 0
8, 6720, Note_on_c, 7, 62, 69
8, 6720, Note_on_c, 7, 67, 69
8, 6946, Note_on_c, 7, 67, 0
8, 6946, Note_on_c, 7, 62, 0
8, 6960, Note_on_c, 7, 58, 67
8, 6960, Note_on_c, 7, 62, 67
8, 7186, Note_on_c, 7, 62, 0
8, 7186, Note_on_c, 7, 58, 0
8, 7200, Note_on_c, 7, 55, 69
8, 7200, Note_on_c, 7, 58, 69
8, 7200, Note_on_c, 7, 63, 69
8, 7426, Note_on_c, 7, 63, 0
8, 7426, Note_on_c, 7, 58, 0
8, 7426, Note_on_c, 7, 55, 0
8, 7440, Note_on_c, 7, 63, 66
8, 7440, Note_on_c, 7, 67, 66
8, 7666, Note_on_c, 7, 67, 0
8, 7666, Note_on_c, 7, 63, 0
8, 7680, Note_on_c, 7, 62, 69
8, 7680, Note_on_c, 7, 67, 69
8, 7906, Note_on_c, 7, 67, 0
8, 7906, Note_on_c, 7, 62, 0
8, 7920, Note_on_c, 7, 58, 67
8, 7920, Note_on_c, 7, 62, 67
8, 8146, Note_on_c, 7, 62, 0
8, 8146, Note_on_c, 7, 58, 0
8, 8160, Note_on_c, 7, 55, 69
8, 8160, Note_on_c, 7, 58, 69
8, 8160, Note_on_c, 7, 63, 69
8, 8386, Note_on_c, 7, 63, 0
8, 8386, Note_on_c, 7, 58, 0
8, 8386, Note_on_c, 7, 55, 0
8, 8400, Note_on_c, 7, 60, 66
8, 8400, Note_on_c, 7, 63, 66
8, 8626, Note_on_c, 7, 63, 0
8, 8626, Note_on_c, 7, 60, 0
8, 8640, Note_on_c, 7, 53, 69
8, 8640, Note_on_c, 7, 56, 69
8, 8866, Note_on_c, 7, 56, 0
8, 8866, Note_on_c, 7, 53, 0
8, 8880, Note_on_c, 7, 60, 67
8, 8880, Note_on_c, 7, 56, 67
8, 8993, Note_on_c, 7, 56, 0
8, 8993, Note_on_c, 7, 60, 0
8, 9000, Note_on_c, 7, 56, 66
8, 9000, Note_on_c, 7, 63, 66
8, 9113, Note_on_c, 7, 63, 0
8, 9113, Note_on_c, 7, 56, 0
8, 9120, Note_on_c, 7, 56, 69
8, 9120, Note_on_c, 7, 62, 69
8, 9346, Note_on_c, 7, 62, 0
8, 9346, Note_on_c, 7, 56, 0
8, 9360, Note_on_c, 7, 56, 66
8, 9360, Note_on_c, 7, 62, 66
8, 9530, Note_on_c, 7, 62, 0
8, 9530, Note_on_c, 7, 56, 0
8, 9540, Note_on_c, 7, 56, 62
8, 9596, Note_on_c, 7, 56, 0
8, 9600, Note_on_c, 7, 55, 69
8, 9600, Note_on_c, 7, 58, 69
8, 10052, Note_on_c, 7, 58, 0
8, 10052, Note_on_c, 7, 55, 0
8, 10080, Note_on_c, 7, 61, 69
8, 10080, Note_on_c, 7, 65, 69
8, 10306, Note_on_c, 7, 65, 0
8, 10306, Note_on_c, 7, 61, 0
8, 10320, Note_on_c, 7, 61, 66
8, 10320, Note_on_c, 7, 65, 66
8, 10546, Note_on_c, 7, 65, 0
8, 10546, Note_on_c, 7, 61, 0
8, 10620, Note_on_c, 7, 63, 63
8, 11015, Note_on_c, 7, 63, 0
8, 11160, Note_on_c, 7, 63, 68
8, 11499, Note_on_c, 7, 63, 0
8, 11640, Note_on_c, 7, 58, 68
8, 11696, Note_on_c, 7, 58, 0
8, 11700, Note_on_c, 7, 60, 63
8, 11756, Note_on_c, 7, 60, 0
8, 11760, Note_on_c, 7, 62, 68
8, 11816, Note_on_c, 7, 62, 0
8, 11820, Note_on_c, 7, 58, 63
8, 11933, Note_on_c, 7, 58, 0
8, 11940, Note_on_c, 7, 62, 63
8, 11996, Note_on_c, 7, 62, 0
8, 12000, Note_on_c, 7, 61, 70
8, 12226, Note_on_c, 7, 61, 0
8, 12540, Note_on_c, 7, 63, 63
8, 12935, Note_on_c, 7, 63, 0
8, 12960, Note_on_c, 7, 63, 70
8, 12960, Note_on_c, 7, 69, 70
8, 13186, Note_on_c, 7, 69, 0
8, 13186, Note_on_c, 7, 63, 0
8, 13200, Note_on_c, 7, 63, 67
8, 13200, Note_on_c, 7, 69, 67
8, 13426, Note_on_c, 7, 69, 0
8, 13426, Note_on_c, 7, 63, 0
8, 13500, Note_on_c, 7, 68, 63
8, 13500, Note_on_c, 7, 72, 63
8, 13613, Note_on_c, 7, 72, 0
8, 13613, Note_on_c, 7, 68, 0
8, 13620, Note_on_c, 7, 68, 63
8, 13620, Note_on_c, 7, 72, 63
8, 13676, Note_on_c, 7, 72, 0
8, 13676, Note_on_c, 7, 68, 0
8, 13680, Note_on_c, 7, 67, 68
8, 13680, Note_on_c, 7, 70, 68
8, 13793, Note_on_c, 7, 70, 0
8, 13793, Note_on_c, 7, 67, 0
8, 13800, Note_on_c, 7, 66, 67
8, 13800, Note_on_c, 7, 69, 67
8, 13913, Note_on_c, 7, 69, 0
8, 13913, Note_on_c, 7, 66, 0
8, 13920, Note_on_c, 7, 65, 70
8, 13920, Note_on_c, 7, 68, 70
8, 14033, Note_on_c, 7, 68, 0
8, 14033, Note_on_c, 7, 65, 0
8, 14400, Note_on_c, 7, 62, 70
8, 14400, Note_on_c, 7, 67, 70
8, 14626, Note_on_c, 7, 67, 0
8, 14626, Note_on_c, 7, 62, 0
8, 14640, Note_on_c, 7, 58, 68
8, 14640, Note_on_c, 7, 62, 68
8, 14866, Note_on_c, 7, 62, 0
8, 14866, Note_on_c, 7, 58, 0
8, 14880, Note_on_c, 7, 55, 70
8, 14880, Note_on_c, 7, 58, 70
8, 14880, Note_on_c, 7, 63, 70
8, 15106, Note_on_c, 7, 63, 0
8, 15106, Note_on_c, 7, 58, 0
8, 15106, Note_on_c, 7, 55, 0
8, 15120, Note_on_c, 7, 63, 67
8, 15120, Note_on_c, 7, 67, 67
8, 15346, Note_on_c, 7, 67, 0
8, 15346, Note_on_c, 7, 63, 0
8, 15360, Note_on_c, 7, 62, 70
8, 15360, Note_on_c, 7, 67, 70
8, 15586, Note_on_c, 7, 67, 0
8, 15586, Note_on_c, 7, 62, 0
8, 15600, Note_on_c, 7, 58, 68
8, 15600, Note_on_c, 7, 62, 68
8, 15826, Note_on_c, 7, 62, 0
8, 15826, Note_on_c, 7, 58, 0
8, 15840, Note_on_c, 7, 55, 70
8, 15840, Note_on_c, 7, 58, 70
8, 15840, Note_on_c, 7, 63, 70
8, 16066, Note_on_c, 7, 63, 0
8, 16066, Note_on_c, 7, 58, 0
8, 16066, Note_on_c, 7, 55, 0
8, 16080, Note_on_c, 7, 60, 67
8, 16080, Note_on_c, 7, 63, 67
8, 16306, Note_on_c, 7, 63, 0
8, 16306, Note_on_c, 7, 60, 0
8, 16320, Note_on_c, 7, 53, 70
8, 16320, Note_on_c, 7, 56, 70
8, 16546, Note_on_c, 7, 56, 0
8, 16546, Note_on_c, 7, 53, 0
8, 16560, Note_on_c, 7, 60, 68
8, 16560, Note_on_c, 7, 56, 68
8, 16673, Note_on_c, 7, 56, 0
8, 16673, Note_on_c, 7, 60, 0
8, 16680, Note_on_c, 7, 56, 67
8, 16680, Note_on_c, 7, 63, 67
8, 16793, Note_on_c, 7, 63, 0
8, 16793, Note_on_c, 7, 56, 0
8, 16800, Note_on_c, 7, 56, 70
8, 16800, Note_on_c, 7, 62, 70
8, 17026, Note_on_c, 7, 62, 0
8, 17026, Note_on_c, 7, 56, 0
8, 17040, Note_on_c, 7, 56, 67
8, 17040, Note_on_c, 7, 62, 67
8, 17210, Note_on_c, 7, 62, 0
8, 17210, Note_on_c, 7, 56, 0
8, 17220, Note_on_c, 7, 56, 63
8, 17276, Note_on_c, 7, 56, 0
8, 17280, Note_on_c, 7, 55, 70
8, 17280, Note_on_c, 7, 58, 70
8, 17732, Note_on_c, 7, 58, 0
8, 17732, Note_on_c, 7, 55, 0
8, 17760, Note_on_c, 7, 60, 70
8, 17986, Note_on_c, 7, 60, 0
8, 18000, Note_on_c, 7, 62, 67
8, 18000, Note_on_c, 7, 66, 67
8, 18226, Note_on_c, 7, 66, 0
8, 18226, Note_on_c, 7, 62, 0
8, 18240, Note_on_c, 7, 62, 70
8, 18240, Note_on_c, 7, 67, 70
8, 18466, Note_on_c, 7, 67, 0
8, 18466, Note_on_c, 7, 62, 0
8, 18480, Note_on_c, 7, 58, 68
8, 18480, Note_on_c, 7, 62, 68
8, 18706, Note_on_c, 7, 62, 0
8, 18706, Note_on_c, 7, 58, 0
8, 18720, Note_on_c, 7, 58, 70
8, 18720, Note_on_c, 7, 62, 70
8, 18720, Note_on_c, 7, 67, 70
8, 18946, Note_on_c, 7, 67, 0
8, 18946, Note_on_c, 7, 62, 0
8, 18946, Note_on_c, 7, 58, 0
8, 18960, Note_on_c, 7, 63, 67
8, 18960, Note_on_c, 7, 67, 67
8, 19186, Note_on_c, 7, 67, 0
8, 19186, Note_on_c, 7, 63, 0
8, 19200, Note_on_c, 7, 62, 70
8, 19200, Note_on_c, 7, 67, 70
8, 19426, Note_on_c, 7, 67, 0
8, 19426, Note_on_c, 7, 62, 0
8, 19440, Note_on_c, 7, 58, 68
8, 19440, Note_on_c, 7, 62, 68
8, 19666, Note_on_c, 7, 62, 0
8, 19666, Note_on_c, 7, 58, 0
8, 19680, Note_on_c, 7, 55, 70
8, 19680, Note_on_c, 7, 58, 70
8, 19680, Note_on_c, 7, 63, 70
8, 19906, Note_on_c, 7, 63, 0
8, 19906, Note_on_c, 7, 58, 0
8, 19906, Note_on_c, 7, 55, 0
8, 19920, Note_on_c, 7, 60, 67
8, 19920, Note_on_c, 7, 63, 67
8, 20146, Note_on_c, 7, 63, 0
8, 20146, Note_on_c, 7, 60, 0
8, 20160, Note_on_c, 7, 53, 70
8, 20160, Note_on_c, 7, 56, 70
8, 20386, Note_on_c, 7, 56, 0
8, 20386, Note_on_c, 7, 53, 0
8, 20400, Note_on_c, 7, 56, 68
8, 20400, Note_on_c, 7, 60, 68
8, 20513, Note_on_c, 7, 60, 0
8, 20513, Note_on_c, 7, 56, 0
8, 20520, Note_on_c, 7, 56, 67
8, 20520, Note_on_c, 7, 63, 67
8, 20633, Note_on_c, 7, 63, 0
8, 20633, Note_on_c, 7, 56, 0
8, 20640, Note_on_c, 7, 56, 70
8, 20640, Note_on_c, 7, 62, 70
8, 20866, Note_on_c, 7, 62, 0
8, 20866, Note_on_c, 7, 56, 0
8, 21120, Note_on_c, 7, 55, 70
8, 21120, Note_on_c, 7, 58, 70
8, 21120, Note_on_c, 7, 62, 70
8, 21572, Note_on_c, 7, 62, 0
8, 21572, Note_on_c, 7, 58, 0
8, 21572, Note_on_c, 7, 55, 0
8, 21600, Note_on_c, 7, 63, 70
8, 21826, Note_on_c, 7, 63, 0
8, 21840, Note_on_c, 7, 62, 67
8, 21840, Note_on_c, 7, 66, 67
8, 22066, Note_on_c, 7, 66, 0
8, 22066, Note_on_c, 7, 62, 0
8, 22080, Note_on_c, 7, 62, 70
8, 22080, Note_on_c, 7, 67, 70
8, 22306, Note_on_c, 7, 67, 0
8, 22306, Note_on_c, 7, 62, 0
8, 22320, Note_on_c, 7, 58, 68
8, 22320, Note_on_c, 7, 62, 68
8, 22546, Note_on_c, 7, 62, 0
8, 22546, Note_on_c, 7, 58, 0
8, 22560, Note_on_c, 7, 55, 74
8, 22560, Note_on_c, 7, 58, 74
8, 22560, Note_on_c, 7, 63, 74
8, 22786, Note_on_c, 7, 63, 0
8, 22786, Note_on_c, 7, 58, 0
8, 22786, Note_on_c, 7, 55, 0
8, 22800, Note_on_c, 7, 63, 68
8, 22800, Note_on_c, 7, 67, 68
8, 23026, Note_on_c, 7, 67, 0
8, 23026, Note_on_c, 7, 63, 0
8, 23040, Note_on_c, 7, 62, 74
8, 23040, Note_on_c, 7, 67, 74
8, 23266, Note_on_c, 7, 67, 0
8, 23266, Note_on_c, 7, 62, 0
8, 23280, Note_on_c, 7, 58, 69
8, 23280, Note_on_c, 7, 62, 69
8, 23506, Note_on_c, 7, 62, 0
8, 23506, Note_on_c, 7, 58, 0
8, 23520, Note_on_c, 7, 55, 74
8, 23520, Note_on_c, 7, 58, 74
8, 23520, Note_on_c, 7, 63, 74
8, 23746, Note_on_c, 7, 63, 0
8, 23746, Note_on_c, 7, 58, 0
8, 23746, Note_on_c, 7, 55, 0
8, 23760, Note_on_c, 7, 60, 68
8, 23760, Note_on_c, 7, 63, 68
8, 23986, Note_on_c, 7, 63, 0
8, 23986, Note_on_c, 7, 60, 0
8, 24000, Note_on_c, 7, 53, 74
8, 24000, Note_on_c, 7, 56, 74
8, 24226, Note_on_c, 7, 56, 0
8, 24226, Note_on_c, 7, 53, 0
8, 24240, Note_on_c, 7, 60, 69
8, 24240, Note_on_c, 7, 56, 69
8, 24353, Note_on_c, 7, 56, 0
8, 24353, Note_on_c, 7, 60, 0
8, 24360, Note_on_c, 7, 56, 68
8, 24360, Note_on_c, 7, 63, 68
8, 24473, Note_on_c, 7, 63, 0
8, 24473, Note_on_c, 7, 56, 0
8, 24480, Note_on_c, 7, 56, 74
8, 24480, Note_on_c, 7, 62, 74
8, 24706, Note_on_c, 7, 62, 0
8, 24706, Note_on_c, 7, 56, 0
8, 24720, Note_on_c, 7, 56, 68
8, 24720, Note_on_c, 7, 62, 68
8, 24890, Note_on_c, 7, 62, 0
8, 24890, Note_on_c, 7, 56, 0
8, 24900, Note_on_c, 7, 56, 64
8, 24956, Note_on_c, 7, 56, 0
8, 24960, Note_on_c, 7, 55, 74
8, 24960, Note_on_c, 7, 58, 74
8, 25412, Note_on_c, 7, 58, 0
8, 25412, Note_on_c, 7, 55, 0
8, 25440, Note_on_c, 7, 61, 74
8, 25440, Note_on_c, 7, 65, 74
8, 25666, Note_on_c, 7, 65, 0
8, 25666, Note_on_c, 7, 61, 0
8, 25680, Note_on_c, 7, 61, 68
8, 25680, Note_on_c, 7, 65, 68
8, 25906, Note_on_c, 7, 65, 0
8, 25906, Note_on_c, 7, 61, 0
8, 25980, Note_on_c, 7, 63, 64
8, 26375, Note_on_c, 7, 63, 0
8, 26520, Note_on_c, 7, 63, 69
8, 26859, Note_on_c, 7, 63, 0
8, 27000, Note_on_c, 7, 58, 69
8, 27056, Note_on_c, 7, 58, 0
8, 27060, Note_on_c, 7, 60, 64
8, 27116, Note_on_c, 7, 60, 0
8, 27120, Note_on_c, 7, 62, 69
8, 27176, Note_on_c, 7, 62, 0
8, 27180, Note_on_c, 7, 58, 64
8, 27293, Note_on_c, 7, 58, 0
8, 27300, Note_on_c, 7, 62, 64
8, 27356, Note_on_c, 7, 62, 0
8, 27360, Note_on_c, 7, 61, 74
8, 27586, Note_on_c, 7, 61, 0
8, 27900, Note_on_c, 7, 63, 64
8, 28295, Note_on_c, 7, 63, 0
8, 28320, Note_on_c, 7, 63, 74
8, 28320, Note_on_c, 7, 69, 74
8, 28546, Note_on_c, 7, 69, 0
8, 28546, Note_on_c, 7, 63, 0
8, 28560, Note_on_c, 7, 63, 68
8, 28560, Note_on_c, 7, 69, 68
8, 28786, Note_on_c, 7, 69, 0
8, 28786, Note_on_c, 7, 63, 0
8, 28860, Note_on_c, 7, 68, 64
8, 28860, Note_on_c, 7, 72, 64
8, 28973, Note_on_c, 7, 72, 0
8, 28973, Note_on_c, 7, 68, 0
8, 28980, Note_on_c, 7, 68, 64
8, 28980, Note_on_c, 7, 72, 64
8, 29036, Note_on_c, 7, 72, 0
8, 29036, Note_on_c, 7, 68, 0
8, 29040, Note_on_c, 7, 67, 69
8, 29040, Note_on_c, 7, 70, 69
8, 29153, Note_on_c, 7, 70, 0
8, 29153, Note_on_c, 7, 67, 0
8, 29160, Note_on_c, 7, 66, 68
8, 29160, Note_on_c, 7, 69, 68
8, 29273, Note_on_c, 7, 69, 0
8, 29273, Note_on_c, 7, 66, 0
8, 29280, Note_on_c, 7, 65, 74
8, 29280, Note_on_c, 7, 68, 74
8, 29393, Note_on_c, 7, 68, 0
8, 29393, Note_on_c, 7, 65, 0
8, 29760, Note_on_c, 7, 62, 74
8, 29760, Note_on_c, 7, 67, 74
8, 29986, Note_on_c, 7, 67, 0
8, 29986, Note_on_c, 7, 62, 0
8, 30000, Note_on_c, 7, 58, 69
8, 30000, Note_on_c, 7, 62, 69
8, 30226, Note_on_c, 7, 62, 0
8, 30226, Note_on_c, 7, 58, 0
8, 30240, Note_on_c, 7, 55, 74
8, 30240, Note_on_c, 7, 58, 74
8, 30240, Note_on_c, 7, 63, 74
8, 30466, Note_on_c, 7, 63, 0
8, 30466, Note_on_c, 7, 58, 0
8, 30466, Note_on_c, 7, 55, 0
8, 30480, Note_on_c, 7, 63, 68
8, 30480, Note_on_c, 7, 67, 68
8, 30706, Note_on_c, 7, 67, 0
8, 30706, Note_on_c, 7, 63, 0
8, 30720, Note_on_c, 7, 62, 74
8, 30720, Note_on_c, 7, 67, 74
8, 30946, Note_on_c, 7, 67, 0
8, 30946, Note_on_c, 7, 62, 0
8, 30960, Note_on_c, 7, 58, 69
8, 30960, Note_on_c, 7, 62, 69
8, 31186, Note_on_c, 7, 62, 0
8, 31186, Note_on_c, 7, 58, 0
8, 31200, Note_on_c, 7, 55, 74
8, 31200, Note_on_c, 7, 58, 74
8, 31200, Note_on_c, 7, 63, 74
8, 31426, Note_on_c, 7, 63, 0
8, 31426, Note_on_c, 7, 58, 0
8, 31426, Note_on_c, 7, 55, 0
8, 31440, Note_on_c, 7, 60, 68
8, 31440, Note_on_c, 7, 63, 68
8, 31666, Note_on_c, 7, 63, 0
8, 31666, Note_on_c, 7, 60, 0
8, 31680, Note_on_c, 7, 53, 74
8, 31680, Note_on_c, 7, 56, 74
8, 31906, Note_on_c, 7, 56, 0
8, 31906, Note_on_c, 7, 53, 0
8, 31920, Note_on_c, 7, 60, 69
8, 31920, Note_on_c, 7, 56, 69
8, 32033, Note_on_c, 7, 56, 0
8, 32033, Note_on_c, 7, 60, 0
8, 32040, Note_on_c, 7, 56, 68
8, 32040, Note_on_c, 7, 63, 68
8, 32153, Note_on_c, 7, 63, 0
8, 32153, Note_on_c, 7, 56, 0
8, 32160, Note_on_c, 7, 56, 74
8, 32160, Note_on_c, 7, 62, 74
8, 32386, Note_on_c, 7, 62, 0
8, 32386, Note_on_c, 7, 56, 0
8, 32400, Note_on_c, 7, 56, 68
8, 32400, Note_on_c, 7, 62, 68
8, 32570, Note_on_c, 7, 62, 0
8, 32570, Note_on_c, 7, 56, 0
8, 32580, Note_on_c, 7, 56, 64
8, 32636, Note_on_c, 7, 56, 0
8, 32640, Note_on_c, 7, 55, 74
8, 32640, Note_on_c, 7, 58, 74
8, 33317, Note_on_c, 7, 58, 0
8, 33317, Note_on_c, 7, 55, 0
8, 33317, End_track
9, 0, Start_track
9, 0, MIDI_port, 0
9, 0, Title_t, "Melody Extra"
9, 0, Control_c, 8, 121, 0
9, 0, Control_c, 8, 123, 0
9, 0, Control_c, 8, 91, 30
9, 0, Control_c, 8, 93, 0
9, 162, Program_c, 8, 4
9, 163, Control_c, 8, 7, 83
9, 163, Control_c, 8, 10, 49
9, 12120, Note_on_c, 8, 85, 76
9, 12120, Note_on_c, 8, 82, 76
9, 12176, Note_on_c, 8, 82, 0
9, 12176, Note_on_c, 8, 85, 0
9, 12180, Note_on_c, 8, 80, 67
9, 12180, Note_on_c, 8, 84, 67
9, 12236, Note_on_c, 8, 84, 0
9, 12236, Note_on_c, 8, 80, 0
9, 12240, Note_on_c, 8, 82, 74
9, 12240, Note_on_c, 8, 79, 74
9, 12296, Note_on_c, 8, 79, 0
9, 12296, Note_on_c, 8, 82, 0
9, 12300, Note_on_c, 8, 77, 67
9, 12300, Note_on_c, 8, 80, 67
9, 12356, Note_on_c, 8, 80, 0
9, 12356, Note_on_c, 8, 77, 0
9, 12360, Note_on_c, 8, 75, 77
9, 12360, Note_on_c, 8, 79, 77
9, 12416, Note_on_c, 8, 79, 0
9, 12416, Note_on_c, 8, 75, 0
9, 12420, Note_on_c, 8, 73, 67
9, 12420, Note_on_c, 8, 77, 67
9, 12476, Note_on_c, 8, 77, 0
9, 12476, Note_on_c, 8, 73, 0
9, 14040, Note_on_c, 8, 74, 76
9, 14040, Note_on_c, 8, 77, 76
9, 14096, Note_on_c, 8, 77, 0
9, 14096, Note_on_c, 8, 74, 0
9, 14100, Note_on_c, 8, 72, 67
9, 14100, Note_on_c, 8, 75, 67
9, 14156, Note_on_c, 8, 75, 0
9, 14156, Note_on_c, 8, 72, 0
9, 14160, Note_on_c, 8, 70, 74
9, 14160, Note_on_c, 8, 74, 74
9, 14273, Note_on_c, 8, 74, 0
9, 14273, Note_on_c, 8, 70, 0
9, 14280, Note_on_c, 8, 68, 77
9, 14280, Note_on_c, 8, 72, 77
9, 14393, Note_on_c, 8, 72, 0
9, 14393, Note_on_c, 8, 68, 0
9, 27480, Note_on_c, 8, 85, 77
9, 27480, Note_on_c, 8, 82, 77
9, 27536, Note_on_c, 8, 82, 0
9, 27536, Note_on_c, 8, 85, 0
9, 27540, Note_on_c, 8, 80, 68
9, 27540, Note_on_c, 8, 84, 68
9, 27596, Note_on_c, 8, 84, 0
9, 27596, Note_on_c, 8, 80, 0
9, 27600, Note_on_c, 8, 82, 76
9, 27600, Note_on_c, 8, 79, 76
9, 27656, Note_on_c, 8, 79, 0
9, 27656, Note_on_c, 8, 82, 0
9, 27660, Note_on_c, 8, 77, 68
9, 27660, Note_on_c, 8, 80, 68
9, 27716, Note_on_c, 8, 80, 0
9, 27716, Note_on_c, 8, 77, 0
9, 27720, Note_on_c, 8, 75, 78
9, 27720, Note_on_c, 8, 79, 78
9, 27776, Note_on_c, 8, 79, 0
9, 27776, Note_on_c, 8, 75, 0
9, 27780, Note_on_c, 8, 73, 68
9, 27780, Note_on_c, 8, 77, 68
9, 27836, Note_on_c, 8, 77, 0
9, 27836, Note_on_c, 8, 73, 0
9, 29400, Note_on_c, 8, 74, 77
9, 29400, Note_on_c, 8, 77, 77
9, 29456, Note_on_c, 8, 77, 0
9, 29456, Note_on_c, 8, 74, 0
9, 29460, Note_on_c, 8, 72, 68
9, 29460, Note_on_c, 8, 75, 68
9, 29516, Note_on_c, 8, 75, 0
9, 29516, Note_on_c, 8, 72, 0
9, 29520, Note_on_c, 8, 70, 76
9, 29520, Note_on_c, 8, 74, 76
9, 29633, Note_on_c, 8, 74, 0
9, 29633, Note_on_c, 8, 70, 0
9, 29640, Note_on_c, 8, 68, 78
9, 29640, Note_on_c, 8, 72, 78
9, 29753, Note_on_c, 8, 72, 0
9, 29753, Note_on_c, 8, 68, 0
9, 29753, End_track
10, 0, Start_track
10, 0, MIDI_port, 0
10, 0, Title_t, "Drums"
10, 0, Control_c, 9, 121, 0
10, 0, Control_c, 9, 123, 0
10, 0, Control_c, 9, 91, 30
10, 0, Control_c, 9, 93, 0
10, 167, Program_c, 9, 16
10, 168, Control_c, 9, 7, 95
10, 168, Control_c, 9, 10, 64
10, 960, Note_on_c, 9, 35, 92
10, 960, Note_on_c, 9, 42, 81
10, 960, Note_on_c, 9, 49, 81
10, 961, Note_on_c, 9, 49, 0
10, 961, Note_on_c, 9, 42, 0
10, 961, Note_on_c, 9, 35, 0
10, 1040, Note_on_c, 9, 42, 61
10, 1041, Note_on_c, 9, 42, 0
10, 1080, Note_on_c, 9, 42, 73
10, 1080, Note_on_c, 9, 37, 92
10, 1081, Note_on_c, 9, 37, 0
10, 1081, Note_on_c, 9, 42, 0
10, 1160, Note_on_c, 9, 35, 73
10, 1160, Note_on_c, 9, 42, 61
10, 1161, Note_on_c, 9, 42, 0
10, 1161, Note_on_c, 9, 35, 0
10, 1200, Note_on_c, 9, 35, 92
10, 1200, Note_on_c, 9, 42, 81
10, 1201, Note_on_c, 9, 42, 0
10, 1201, Note_on_c, 9, 35, 0
10, 1280, Note_on_c, 9, 42, 61
10, 1281, Note_on_c, 9, 42, 0
10, 1320, Note_on_c, 9, 42, 73
10, 1320, Note_on_c, 9, 37, 92
10, 1321, Note_on_c, 9, 37, 0
10, 1321, Note_on_c, 9, 42, 0
10, 1400, Note_on_c, 9, 35, 73
10, 1400, Note_on_c, 9, 42, 61
10, 1401, Note_on_c, 9, 42, 0
10, 1401, Note_on_c, 9, 35, 0
10, 1440, Note_on_c, 9, 35, 92
10, 1440, Note_on_c, 9, 42, 81
10, 1441, Note_on_c, 9, 42, 0
10, 1441, Note_on_c, 9, 35, 0
10, 1520, Note_on_c, 9, 42, 61
10, 1521, Note_on_c, 9, 42, 0
10, 1560, Note_on_c, 9, 42, 73
10, 1560, Note_on_c, 9, 37, 92
10, 1561, Note_on_c, 9, 37, 0
10, 1561, Note_on_c, 9, 42, 0
10, 1640, Note_on_c, 9, 35, 73
10, 1640, Note_on_c, 9, 42, 61
10, 1641, Note_on_c, 9, 42, 0
10, 1641, Note_on_c, 9, 35, 0
10, 1680, Note_on_c, 9, 35, 92
10, 1680, Note_on_c, 9, 42, 81
10, 1681, Note_on_c, 9, 42, 0
10, 1681, Note_on_c, 9, 35, 0
10, 1760, Note_on_c, 9, 42, 61
10, 1761, Note_on_c, 9, 42, 0
10, 1800, Note_on_c, 9, 42, 73
10, 1800, Note_on_c, 9, 37, 92
10, 1801, Note_on_c, 9, 37, 0
10, 1801, Note_on_c, 9, 42, 0
10, 1880, Note_on_c, 9, 35, 73
10, 1880, Note_on_c, 9, 42, 61
10, 1881, Note_on_c, 9, 42, 0
10, 1881, Note_on_c, 9, 35, 0
10, 1920, Note_on_c, 9, 35, 92
10, 1920, Note_on_c, 9, 42, 81
10, 1921, Note_on_c, 9, 42, 0
10, 1921, Note_on_c, 9, 35, 0
10, 2000, Note_on_c, 9, 42, 61
10, 2001, Note_on_c, 9, 42, 0
10, 2040, Note_on_c, 9, 42, 73
10, 2040, Note_on_c, 9, 37, 92
10, 2041, Note_on_c, 9, 37, 0
10, 2041, Note_on_c, 9, 42, 0
10, 2120, Note_on_c, 9, 35, 73
10, 2120, Note_on_c, 9, 42, 61
10, 2121, Note_on_c, 9, 42, 0
10, 2121, Note_on_c, 9, 35, 0
10, 2160, Note_on_c, 9, 35, 92
10, 2160, Note_on_c, 9, 42, 81
10, 2161, Note_on_c, 9, 42, 0
10, 2161, Note_on_c, 9, 35, 0
10, 2240, Note_on_c, 9, 35, 73
10, 2240, Note_on_c, 9, 42, 61
10, 2241, Note_on_c, 9, 42, 0
10, 2241, Note_on_c, 9, 35, 0
10, 2280, Note_on_c, 9, 42, 73
10, 2280, Note_on_c, 9, 37, 92
10, 2281, Note_on_c, 9, 37, 0
10, 2281, Note_on_c, 9, 42, 0
10, 2320, Note_on_c, 9, 42, 52
10, 2321, Note_on_c, 9, 42, 0
10, 2360, Note_on_c, 9, 35, 73
10, 2360, Note_on_c, 9, 42, 61
10, 2361, Note_on_c, 9, 42, 0
10, 2361, Note_on_c, 9, 35, 0
10, 2400, Note_on_c, 9, 35, 92
10, 2400, Note_on_c, 9, 42, 81
10, 2401, Note_on_c, 9, 42, 0
10, 2401, Note_on_c, 9, 35, 0
10, 2480, Note_on_c, 9, 42, 61
10, 2481, Note_on_c, 9, 42, 0
10, 2520, Note_on_c, 9, 42, 73
10, 2520, Note_on_c, 9, 37, 92
10, 2521, Note_on_c, 9, 37, 0
10, 2521, Note_on_c, 9, 42, 0
10, 2600, Note_on_c, 9, 35, 73
10, 2600, Note_on_c, 9, 42, 61
10, 2601, Note_on_c, 9, 42, 0
10, 2601, Note_on_c, 9, 35, 0
10, 2640, Note_on_c, 9, 35, 92
10, 2640, Note_on_c, 9, 42, 81
10, 2641, Note_on_c, 9, 42, 0
10, 2641, Note_on_c, 9, 35, 0
10, 2720, Note_on_c, 9, 38, 92
10, 2720, Note_on_c, 9, 42, 61
10, 2721, Note_on_c, 9, 42, 0
10, 2721, Note_on_c, 9, 38, 0
10, 2760, Note_on_c, 9, 38, 73
10, 2760, Note_on_c, 9, 42, 73
10, 2761, Note_on_c, 9, 42, 0
10, 2761, Note_on_c, 9, 38, 0
10, 2800, Note_on_c, 9, 38, 107
10, 2801, Note_on_c, 9, 38, 0
10, 2840, Note_on_c, 9, 35, 73
10, 2840, Note_on_c, 9, 46, 81
10, 2841, Note_on_c, 9, 46, 0
10, 2841, Note_on_c, 9, 35, 0
10, 2880, Note_on_c, 9, 35, 92
10, 2880, Note_on_c, 9, 42, 81
10, 2880, Note_on_c, 9, 49, 81
10, 2881, Note_on_c, 9, 49, 0
10, 2881, Note_on_c, 9, 42, 0
10, 2881, Note_on_c, 9, 35, 0
10, 2960, Note_on_c, 9, 42, 61
10, 2961, Note_on_c, 9, 42, 0
10, 3000, Note_on_c, 9, 42, 73
10, 3000, Note_on_c, 9, 37, 92
10, 3001, Note_on_c, 9, 37, 0
10, 3001, Note_on_c, 9, 42, 0
10, 3080, Note_on_c, 9, 35, 73
10, 3080, Note_on_c, 9, 42, 61
10, 3081, Note_on_c, 9, 42, 0
10, 3081, Note_on_c, 9, 35, 0
10, 3120, Note_on_c, 9, 35, 92
10, 3120, Note_on_c, 9, 42, 81
10, 3121, Note_on_c, 9, 42, 0
10, 3121, Note_on_c, 9, 35, 0
10, 3200, Note_on_c, 9, 42, 61
10, 3201, Note_on_c, 9, 42, 0
10, 3240, Note_on_c, 9, 42, 73
10, 3240, Note_on_c, 9, 37, 92
10, 3241, Note_on_c, 9, 37, 0
10, 3241, Note_on_c, 9, 42, 0
10, 3320, Note_on_c, 9, 35, 73
10, 3320, Note_on_c, 9, 42, 61
10, 3321, Note_on_c, 9, 42, 0
10, 3321, Note_on_c, 9, 35, 0
10, 3360, Note_on_c, 9, 35, 92
10, 3360, Note_on_c, 9, 42, 81
10, 3361, Note_on_c, 9, 42, 0
10, 3361, Note_on_c, 9, 35, 0
10, 3440, Note_on_c, 9, 42, 61
10, 3441, Note_on_c, 9, 42, 0
10, 3480, Note_on_c, 9, 42, 73
10, 3480, Note_on_c, 9, 37, 92
10, 3481, Note_on_c, 9, 37, 0
10, 3481, Note_on_c, 9, 42, 0
10, 3560, Note_on_c, 9, 35, 73
10, 3560, Note_on_c, 9, 46, 44
10, 3561, Note_on_c, 9, 46, 0
10, 3561, Note_on_c, 9, 35, 0
10, 3600, Note_on_c, 9, 35, 92
10, 3600, Note_on_c, 9, 42, 81
10, 3601, Note_on_c, 9, 42, 0
10, 3601, Note_on_c, 9, 35, 0
10, 3680, Note_on_c, 9, 42, 61
10, 3681, Note_on_c, 9, 42, 0
10, 3720, Note_on_c, 9, 42, 73
10, 3720, Note_on_c, 9, 37, 92
10, 3721, Note_on_c, 9, 37, 0
10, 3721, Note_on_c, 9, 42, 0
10, 3800, Note_on_c, 9, 35, 73
10, 3800, Note_on_c, 9, 46, 62
10, 3801, Note_on_c, 9, 46, 0
10, 3801, Note_on_c, 9, 35, 0
10, 3840, Note_on_c, 9, 35, 92
10, 3840, Note_on_c, 9, 42, 81
10, 3841, Note_on_c, 9, 42, 0
10, 3841, Note_on_c, 9, 35, 0
10, 3920, Note_on_c, 9, 42, 61
10, 3921, Note_on_c, 9, 42, 0
10, 3960, Note_on_c, 9, 42, 73
10, 3960, Note_on_c, 9, 37, 92
10, 3961, Note_on_c, 9, 37, 0
10, 3961, Note_on_c, 9, 42, 0
10, 4040, Note_on_c, 9, 35, 73
10, 4040, Note_on_c, 9, 42, 61
10, 4041, Note_on_c, 9, 42, 0
10, 4041, Note_on_c, 9, 35, 0
10, 4080, Note_on_c, 9, 35, 92
10, 4080, Note_on_c, 9, 42, 81
10, 4081, Note_on_c, 9, 42, 0
10, 4081, Note_on_c, 9, 35, 0
10, 4160, Note_on_c, 9, 42, 61
10, 4161, Note_on_c, 9, 42, 0
10, 4200, Note_on_c, 9, 42, 73
10, 4200, Note_on_c, 9, 37, 92
10, 4201, Note_on_c, 9, 37, 0
10, 4201, Note_on_c, 9, 42, 0
10, 4280, Note_on_c, 9, 35, 73
10, 4280, Note_on_c, 9, 42, 61
10, 4281, Note_on_c, 9, 42, 0
10, 4281, Note_on_c, 9, 35, 0
10, 4320, Note_on_c, 9, 35, 92
10, 4320, Note_on_c, 9, 42, 81
10, 4321, Note_on_c, 9, 42, 0
10, 4321, Note_on_c, 9, 35, 0
10, 4400, Note_on_c, 9, 42, 61
10, 4401, Note_on_c, 9, 42, 0
10, 4440, Note_on_c, 9, 42, 73
10, 4440, Note_on_c, 9, 37, 92
10, 4441, Note_on_c, 9, 37, 0
10, 4441, Note_on_c, 9, 42, 0
10, 4520, Note_on_c, 9, 35, 73
10, 4520, Note_on_c, 9, 42, 61
10, 4521, Note_on_c, 9, 42, 0
10, 4521, Note_on_c, 9, 35, 0
10, 4560, Note_on_c, 9, 35, 92
10, 4560, Note_on_c, 9, 42, 81
10, 4561, Note_on_c, 9, 42, 0
10, 4561, Note_on_c, 9, 35, 0
10, 4640, Note_on_c, 9, 42, 61
10, 4641, Note_on_c, 9, 42, 0
10, 4680, Note_on_c, 9, 42, 73
10, 4680, Note_on_c, 9, 37, 92
10, 4681, Note_on_c, 9, 37, 0
10, 4681, Note_on_c, 9, 42, 0
10, 4760, Note_on_c, 9, 35, 73
10, 4760, Note_on_c, 9, 46, 62
10, 4761, Note_on_c, 9, 46, 0
10, 4761, Note_on_c, 9, 35, 0
10, 4800, Note_on_c, 9, 35, 92
10, 4800, Note_on_c, 9, 42, 81
10, 4801, Note_on_c, 9, 42, 0
10, 4801, Note_on_c, 9, 35, 0
10, 4880, Note_on_c, 9, 42, 61
10, 4881, Note_on_c, 9, 42, 0
10, 4920, Note_on_c, 9, 42, 73
10, 4920, Note_on_c, 9, 37, 92
10, 4921, Note_on_c, 9, 37, 0
10, 4921, Note_on_c, 9, 42, 0
10, 5000, Note_on_c, 9, 35, 73
10, 5000, Note_on_c, 9, 42, 61
10, 5001, Note_on_c, 9, 42, 0
10, 5001, Note_on_c, 9, 35, 0
10, 5040, Note_on_c, 9, 35, 92
10, 5040, Note_on_c, 9, 42, 81
10, 5041, Note_on_c, 9, 42, 0
10, 5041, Note_on_c, 9, 35, 0
10, 5120, Note_on_c, 9, 42, 61
10, 5121, Note_on_c, 9, 42, 0
10, 5160, Note_on_c, 9, 42, 73
10, 5160, Note_on_c, 9, 37, 92
10, 5161, Note_on_c, 9, 37, 0
10, 5161, Note_on_c, 9, 42, 0
10, 5240, Note_on_c, 9, 35, 73
10, 5240, Note_on_c, 9, 42, 61
10, 5241, Note_on_c, 9, 42, 0
10, 5241, Note_on_c, 9, 35, 0
10, 5280, Note_on_c, 9, 35, 92
10, 5280, Note_on_c, 9, 42, 81
10, 5281, Note_on_c, 9, 42, 0
10, 5281, Note_on_c, 9, 35, 0
10, 5360, Note_on_c, 9, 42, 61
10, 5361, Note_on_c, 9, 42, 0
10, 5400, Note_on_c, 9, 42, 73
10, 5400, Note_on_c, 9, 37, 92
10, 5401, Note_on_c, 9, 37, 0
10, 5401, Note_on_c, 9, 42, 0
10, 5480, Note_on_c, 9, 35, 73
10, 5480, Note_on_c, 9, 42, 61
10, 5481, Note_on_c, 9, 42, 0
10, 5481, Note_on_c, 9, 35, 0
10, 5520, Note_on_c, 9, 35, 92
10, 5520, Note_on_c, 9, 42, 81
10, 5521, Note_on_c, 9, 42, 0
10, 5521, Note_on_c, 9, 35, 0
10, 5600, Note_on_c, 9, 35, 73
10, 5600, Note_on_c, 9, 42, 61
10, 5601, Note_on_c, 9, 42, 0
10, 5601, Note_on_c, 9, 35, 0
10, 5640, Note_on_c, 9, 42, 73
10, 5640, Note_on_c, 9, 37, 92
10, 5641, Note_on_c, 9, 37, 0
10, 5641, Note_on_c, 9, 42, 0
10, 5680, Note_on_c, 9, 42, 52
10, 5681, Note_on_c, 9, 42, 0
10, 5720, Note_on_c, 9, 35, 73
10, 5720, Note_on_c, 9, 42, 61
10, 5721, Note_on_c, 9, 42, 0
10, 5721, Note_on_c, 9, 35, 0
10, 5760, Note_on_c, 9, 35, 92
10, 5760, Note_on_c, 9, 42, 81
10, 5761, Note_on_c, 9, 42, 0
10, 5761, Note_on_c, 9, 35, 0
10, 5840, Note_on_c, 9, 42, 61
10, 5841, Note_on_c, 9, 42, 0
10, 5880, Note_on_c, 9, 42, 73
10, 5880, Note_on_c, 9, 37, 92
10, 5881, Note_on_c, 9, 37, 0
10, 5881, Note_on_c, 9, 42, 0
10, 5960, Note_on_c, 9, 35, 73
10, 5960, Note_on_c, 9, 42, 61
10, 5961, Note_on_c, 9, 42, 0
10, 5961, Note_on_c, 9, 35, 0
10, 6000, Note_on_c, 9, 35, 92
10, 6000, Note_on_c, 9, 42, 81
10, 6001, Note_on_c, 9, 42, 0
10, 6001, Note_on_c, 9, 35, 0
10, 6080, Note_on_c, 9, 35, 73
10, 6080, Note_on_c, 9, 42, 61
10, 6081, Note_on_c, 9, 42, 0
10, 6081, Note_on_c, 9, 35, 0
10, 6120, Note_on_c, 9, 42, 73
10, 6120, Note_on_c, 9, 37, 92
10, 6121, Note_on_c, 9, 37, 0
10, 6121, Note_on_c, 9, 42, 0
10, 6160, Note_on_c, 9, 42, 52
10, 6161, Note_on_c, 9, 42, 0
10, 6200, Note_on_c, 9, 35, 73
10, 6200, Note_on_c, 9, 42, 61
10, 6201, Note_on_c, 9, 42, 0
10, 6201, Note_on_c, 9, 35, 0
10, 6240, Note_on_c, 9, 35, 92
10, 6240, Note_on_c, 9, 42, 81
10, 6241, Note_on_c, 9, 42, 0
10, 6241, Note_on_c, 9, 35, 0
10, 6320, Note_on_c, 9, 42, 61
10, 6321, Note_on_c, 9, 42, 0
10, 6360, Note_on_c, 9, 42, 73
10, 6360, Note_on_c, 9, 37, 92
10, 6361, Note_on_c, 9, 37, 0
10, 6361, Note_on_c, 9, 42, 0
10, 6440, Note_on_c, 9, 35, 73
10, 6440, Note_on_c, 9, 42, 61
10, 6441, Note_on_c, 9, 42, 0
10, 6441, Note_on_c, 9, 35, 0
10, 6480, Note_on_c, 9, 35, 92
10, 6480, Note_on_c, 9, 42, 81
10, 6481, Note_on_c, 9, 42, 0
10, 6481, Note_on_c, 9, 35, 0
10, 6560, Note_on_c, 9, 38, 92
10, 6560, Note_on_c, 9, 42, 61
10, 6561, Note_on_c, 9, 42, 0
10, 6561, Note_on_c, 9, 38, 0
10, 6600, Note_on_c, 9, 38, 73
10, 6600, Note_on_c, 9, 42, 73
10, 6601, Note_on_c, 9, 42, 0
10, 6601, Note_on_c, 9, 38, 0
10, 6640, Note_on_c, 9, 38, 107
10, 6641, Note_on_c, 9, 38, 0
10, 6680, Note_on_c, 9, 35, 73
10, 6680, Note_on_c, 9, 46, 81
10, 6681, Note_on_c, 9, 46, 0
10, 6681, Note_on_c, 9, 35, 0
10, 6720, Note_on_c, 9, 35, 92
10, 6720, Note_on_c, 9, 42, 81
10, 6721, Note_on_c, 9, 42, 0
10, 6721, Note_on_c, 9, 35, 0
10, 6800, Note_on_c, 9, 42, 61
10, 6801, Note_on_c, 9, 42, 0
10, 6840, Note_on_c, 9, 42, 73
10, 6840, Note_on_c, 9, 37, 92
10, 6841, Note_on_c, 9, 37, 0
10, 6841, Note_on_c, 9, 42, 0
10, 6920, Note_on_c, 9, 35, 73
10, 6920, Note_on_c, 9, 42, 61
10, 6921, Note_on_c, 9, 42, 0
10, 6921, Note_on_c, 9, 35, 0
10, 6960, Note_on_c, 9, 35, 92
10, 6960, Note_on_c, 9, 42, 81
10, 6961, Note_on_c, 9, 42, 0
10, 6961, Note_on_c, 9, 35, 0
10, 7040, Note_on_c, 9, 35, 73
10, 7040, Note_on_c, 9, 42, 61
10, 7041, Note_on_c, 9, 42, 0
10, 7041, Note_on_c, 9, 35, 0
10, 7080, Note_on_c, 9, 42, 73
10, 7080, Note_on_c, 9, 37, 92
10, 7081, Note_on_c, 9, 37, 0
10, 7081, Note_on_c, 9, 42, 0
10, 7120, Note_on_c, 9, 42, 52
10, 7121, Note_on_c, 9, 42, 0
10, 7160, Note_on_c, 9, 35, 73
10, 7160, Note_on_c, 9, 42, 61
10, 7161, Note_on_c, 9, 42, 0
10, 7161, Note_on_c, 9, 35, 0
10, 7200, Note_on_c, 9, 35, 92
10, 7200, Note_on_c, 9, 42, 81
10, 7201, Note_on_c, 9, 42, 0
10, 7201, Note_on_c, 9, 35, 0
10, 7280, Note_on_c, 9, 42, 61
10, 7281, Note_on_c, 9, 42, 0
10, 7320, Note_on_c, 9, 42, 73
10, 7320, Note_on_c, 9, 37, 92
10, 7321, Note_on_c, 9, 37, 0
10, 7321, Note_on_c, 9, 42, 0
10, 7400, Note_on_c, 9, 35, 73
10, 7400, Note_on_c, 9, 46, 44
10, 7401, Note_on_c, 9, 46, 0
10, 7401, Note_on_c, 9, 35, 0
10, 7440, Note_on_c, 9, 35, 92
10, 7440, Note_on_c, 9, 42, 81
10, 7441, Note_on_c, 9, 42, 0
10, 7441, Note_on_c, 9, 35, 0
10, 7520, Note_on_c, 9, 42, 61
10, 7521, Note_on_c, 9, 42, 0
10, 7560, Note_on_c, 9, 42, 73
10, 7560, Note_on_c, 9, 37, 92
10, 7561, Note_on_c, 9, 37, 0
10, 7561, Note_on_c, 9, 42, 0
10, 7640, Note_on_c, 9, 35, 73
10, 7640, Note_on_c, 9, 42, 61
10, 7641, Note_on_c, 9, 42, 0
10, 7641, Note_on_c, 9, 35, 0
10, 7680, Note_on_c, 9, 35, 92
10, 7680, Note_on_c, 9, 42, 81
10, 7681, Note_on_c, 9, 42, 0
10, 7681, Note_on_c, 9, 35, 0
10, 7760, Note_on_c, 9, 42, 61
10, 7761, Note_on_c, 9, 42, 0
10, 7800, Note_on_c, 9, 42, 73
10, 7800, Note_on_c, 9, 37, 92
10, 7801, Note_on_c, 9, 37, 0
10, 7801, Note_on_c, 9, 42, 0
10, 7880, Note_on_c, 9, 35, 73
10, 7880, Note_on_c, 9, 42, 61
10, 7881, Note_on_c, 9, 42, 0
10, 7881, Note_on_c, 9, 35, 0
10, 7920, Note_on_c, 9, 35, 92
10, 7920, Note_on_c, 9, 42, 81
10, 7921, Note_on_c, 9, 42, 0
10, 7921, Note_on_c, 9, 35, 0
10, 8000, Note_on_c, 9, 35, 73
10, 8000, Note_on_c, 9, 42, 61
10, 8001, Note_on_c, 9, 42, 0
10, 8001, Note_on_c, 9, 35, 0
10, 8040, Note_on_c, 9, 42, 73
10, 8040, Note_on_c, 9, 37, 92
10, 8041, Note_on_c, 9, 37, 0
10, 8041, Note_on_c, 9, 42, 0
10, 8120, Note_on_c, 9, 35, 73
10, 8120, Note_on_c, 9, 46, 62
10, 8121, Note_on_c, 9, 46, 0
10, 8121, Note_on_c, 9, 35, 0
10, 8160, Note_on_c, 9, 35, 92
10, 8160, Note_on_c, 9, 42, 81
10, 8161, Note_on_c, 9, 42, 0
10, 8161, Note_on_c, 9, 35, 0
10, 8240, Note_on_c, 9, 42, 61
10, 8241, Note_on_c, 9, 42, 0
10, 8280, Note_on_c, 9, 42, 73
10, 8280, Note_on_c, 9, 37, 92
10, 8281, Note_on_c, 9, 37, 0
10, 8281, Note_on_c, 9, 42, 0
10, 8360, Note_on_c, 9, 35, 73
10, 8360, Note_on_c, 9, 42, 61
10, 8361, Note_on_c, 9, 42, 0
10, 8361, Note_on_c, 9, 35, 0
10, 8400, Note_on_c, 9, 35, 92
10, 8400, Note_on_c, 9, 42, 81
10, 8401, Note_on_c, 9, 42, 0
10, 8401, Note_on_c, 9, 35, 0
10, 8480, Note_on_c, 9, 35, 73
10, 8480, Note_on_c, 9, 42, 61
10, 8481, Note_on_c, 9, 42, 0
10, 8481, Note_on_c, 9, 35, 0
10, 8520, Note_on_c, 9, 42, 73
10, 8520, Note_on_c, 9, 37, 92
10, 8521, Note_on_c, 9, 37, 0
10, 8521, Note_on_c, 9, 42, 0
10, 8560, Note_on_c, 9, 42, 52
10, 8561, Note_on_c, 9, 42, 0
10, 8600, Note_on_c, 9, 35, 73
10, 8600, Note_on_c, 9, 42, 61
10, 8601, Note_on_c, 9, 42, 0
10, 8601, Note_on_c, 9, 35, 0
10, 8640, Note_on_c, 9, 35, 92
10, 8640, Note_on_c, 9, 42, 81
10, 8641, Note_on_c, 9, 42, 0
10, 8641, Note_on_c, 9, 35, 0
10, 8680, Note_on_c, 9, 42, 52
10, 8681, Note_on_c, 9, 42, 0
10, 8720, Note_on_c, 9, 42, 61
10, 8721, Note_on_c, 9, 42, 0
10, 8760, Note_on_c, 9, 42, 73
10, 8760, Note_on_c, 9, 37, 92
10, 8761, Note_on_c, 9, 37, 0
10, 8761, Note_on_c, 9, 42, 0
10, 8840, Note_on_c, 9, 35, 73
10, 8840, Note_on_c, 9, 46, 44
10, 8841, Note_on_c, 9, 46, 0
10, 8841, Note_on_c, 9, 35, 0
10, 8880, Note_on_c, 9, 35, 92
10, 8880, Note_on_c, 9, 42, 81
10, 8881, Note_on_c, 9, 42, 0
10, 8881, Note_on_c, 9, 35, 0
10, 8960, Note_on_c, 9, 42, 61
10, 8961, Note_on_c, 9, 42, 0
10, 9000, Note_on_c, 9, 42, 73
10, 9000, Note_on_c, 9, 37, 92
10, 9001, Note_on_c, 9, 37, 0
10, 9001, Note_on_c, 9, 42, 0
10, 9080, Note_on_c, 9, 35, 73
10, 9080, Note_on_c, 9, 42, 61
10, 9081, Note_on_c, 9, 42, 0
10, 9081, Note_on_c, 9, 35, 0
10, 9120, Note_on_c, 9, 35, 92
10, 9120, Note_on_c, 9, 42, 81
10, 9121, Note_on_c, 9, 42, 0
10, 9121, Note_on_c, 9, 35, 0
10, 9200, Note_on_c, 9, 42, 61
10, 9201, Note_on_c, 9, 42, 0
10, 9240, Note_on_c, 9, 42, 73
10, 9240, Note_on_c, 9, 37, 92
10, 9241, Note_on_c, 9, 37, 0
10, 9241, Note_on_c, 9, 42, 0
10, 9320, Note_on_c, 9, 35, 73
10, 9320, Note_on_c, 9, 42, 61
10, 9321, Note_on_c, 9, 42, 0
10, 9321, Note_on_c, 9, 35, 0
10, 9360, Note_on_c, 9, 35, 92
10, 9360, Note_on_c, 9, 42, 81
10, 9361, Note_on_c, 9, 42, 0
10, 9361, Note_on_c, 9, 35, 0
10, 9440, Note_on_c, 9, 42, 61
10, 9441, Note_on_c, 9, 42, 0
10, 9480, Note_on_c, 9, 42, 73
10, 9480, Note_on_c, 9, 37, 92
10, 9481, Note_on_c, 9, 37, 0
10, 9481, Note_on_c, 9, 42, 0
10, 9560, Note_on_c, 9, 35, 73
10, 9560, Note_on_c, 9, 42, 61
10, 9561, Note_on_c, 9, 42, 0
10, 9561, Note_on_c, 9, 35, 0
10, 9600, Note_on_c, 9, 35, 92
10, 9600, Note_on_c, 9, 42, 81
10, 9601, Note_on_c, 9, 42, 0
10, 9601, Note_on_c, 9, 35, 0
10, 9680, Note_on_c, 9, 42, 61
10, 9681, Note_on_c, 9, 42, 0
10, 9720, Note_on_c, 9, 42, 73
10, 9720, Note_on_c, 9, 37, 92
10, 9721, Note_on_c, 9, 37, 0
10, 9721, Note_on_c, 9, 42, 0
10, 9800, Note_on_c, 9, 35, 73
10, 9800, Note_on_c, 9, 42, 61
10, 9801, Note_on_c, 9, 42, 0
10, 9801, Note_on_c, 9, 35, 0
10, 9840, Note_on_c, 9, 35, 92
10, 9840, Note_on_c, 9, 42, 81
10, 9841, Note_on_c, 9, 42, 0
10, 9841, Note_on_c, 9, 35, 0
10, 9920, Note_on_c, 9, 42, 61
10, 9921, Note_on_c, 9, 42, 0
10, 9960, Note_on_c, 9, 42, 73
10, 9960, Note_on_c, 9, 37, 92
10, 9961, Note_on_c, 9, 37, 0
10, 9961, Note_on_c, 9, 42, 0
10, 10040, Note_on_c, 9, 35, 73
10, 10040, Note_on_c, 9, 42, 61
10, 10041, Note_on_c, 9, 42, 0
10, 10041, Note_on_c, 9, 35, 0
10, 10080, Note_on_c, 9, 35, 92
10, 10080, Note_on_c, 9, 42, 81
10, 10081, Note_on_c, 9, 42, 0
10, 10081, Note_on_c, 9, 35, 0
10, 10160, Note_on_c, 9, 42, 61
10, 10161, Note_on_c, 9, 42, 0
10, 10200, Note_on_c, 9, 42, 73
10, 10200, Note_on_c, 9, 37, 92
10, 10201, Note_on_c, 9, 37, 0
10, 10201, Note_on_c, 9, 42, 0
10, 10280, Note_on_c, 9, 35, 73
10, 10280, Note_on_c, 9, 42, 61
10, 10281, Note_on_c, 9, 42, 0
10, 10281, Note_on_c, 9, 35, 0
10, 10320, Note_on_c, 9, 35, 92
10, 10320, Note_on_c, 9, 42, 81
10, 10321, Note_on_c, 9, 42, 0
10, 10321, Note_on_c, 9, 35, 0
10, 10400, Note_on_c, 9, 35, 73
10, 10400, Note_on_c, 9, 42, 61
10, 10401, Note_on_c, 9, 42, 0
10, 10401, Note_on_c, 9, 35, 0
10, 10440, Note_on_c, 9, 42, 73
10, 10440, Note_on_c, 9, 37, 92
10, 10441, Note_on_c, 9, 37, 0
10, 10441, Note_on_c, 9, 42, 0
10, 10480, Note_on_c, 9, 42, 52
10, 10481, Note_on_c, 9, 42, 0
10, 10520, Note_on_c, 9, 35, 73
10, 10520, Note_on_c, 9, 42, 61
10, 10521, Note_on_c, 9, 42, 0
10, 10521, Note_on_c, 9, 35, 0
10, 10560, Note_on_c, 9, 35, 92
10, 10560, Note_on_c, 9, 42, 81
10, 10561, Note_on_c, 9, 42, 0
10, 10561, Note_on_c, 9, 35, 0
10, 10640, Note_on_c, 9, 42, 61
10, 10641, Note_on_c, 9, 42, 0
10, 10680, Note_on_c, 9, 42, 73
10, 10680, Note_on_c, 9, 37, 92
10, 10681, Note_on_c, 9, 37, 0
10, 10681, Note_on_c, 9, 42, 0
10, 10760, Note_on_c, 9, 35, 73
10, 10760, Note_on_c, 9, 42, 61
10, 10761, Note_on_c, 9, 42, 0
10, 10761, Note_on_c, 9, 35, 0
10, 10800, Note_on_c, 9, 35, 92
10, 10800, Note_on_c, 9, 42, 81
10, 10801, Note_on_c, 9, 42, 0
10, 10801, Note_on_c, 9, 35, 0
10, 10880, Note_on_c, 9, 35, 73
10, 10880, Note_on_c, 9, 42, 61
10, 10881, Note_on_c, 9, 42, 0
10, 10881, Note_on_c, 9, 35, 0
10, 10920, Note_on_c, 9, 42, 73
10, 10920, Note_on_c, 9, 37, 92
10, 10921, Note_on_c, 9, 37, 0
10, 10921, Note_on_c, 9, 42, 0
10, 10960, Note_on_c, 9, 42, 52
10, 10961, Note_on_c, 9, 42, 0
10, 11000, Note_on_c, 9, 35, 73
10, 11000, Note_on_c, 9, 42, 61
10, 11001, Note_on_c, 9, 42, 0
10, 11001, Note_on_c, 9, 35, 0
10, 11040, Note_on_c, 9, 35, 92
10, 11040, Note_on_c, 9, 42, 81
10, 11041, Note_on_c, 9, 42, 0
10, 11041, Note_on_c, 9, 35, 0
10, 11120, Note_on_c, 9, 42, 61
10, 11121, Note_on_c, 9, 42, 0
10, 11160, Note_on_c, 9, 42, 73
10, 11160, Note_on_c, 9, 37, 92
10, 11161, Note_on_c, 9, 37, 0
10, 11161, Note_on_c, 9, 42, 0
10, 11240, Note_on_c, 9, 35, 73
10, 11240, Note_on_c, 9, 46, 44
10, 11241, Note_on_c, 9, 46, 0
10, 11241, Note_on_c, 9, 35, 0
10, 11280, Note_on_c, 9, 35, 92
10, 11280, Note_on_c, 9, 42, 81
10, 11281, Note_on_c, 9, 42, 0
10, 11281, Note_on_c, 9, 35, 0
10, 11360, Note_on_c, 9, 42, 61
10, 11361, Note_on_c, 9, 42, 0
10, 11400, Note_on_c, 9, 42, 73
10, 11400, Note_on_c, 9, 37, 92
10, 11401, Note_on_c, 9, 37, 0
10, 11401, Note_on_c, 9, 42, 0
10, 11480, Note_on_c, 9, 35, 73
10, 11480, Note_on_c, 9, 46, 62
10, 11481, Note_on_c, 9, 46, 0
10, 11481, Note_on_c, 9, 35, 0
10, 11520, Note_on_c, 9, 35, 92
10, 11520, Note_on_c, 9, 42, 81
10, 11521, Note_on_c, 9, 42, 0
10, 11521, Note_on_c, 9, 35, 0
10, 11600, Note_on_c, 9, 42, 61
10, 11601, Note_on_c, 9, 42, 0
10, 11640, Note_on_c, 9, 42, 73
10, 11640, Note_on_c, 9, 37, 92
10, 11641, Note_on_c, 9, 37, 0
10, 11641, Note_on_c, 9, 42, 0
10, 11720, Note_on_c, 9, 35, 73
10, 11720, Note_on_c, 9, 46, 44
10, 11721, Note_on_c, 9, 46, 0
10, 11721, Note_on_c, 9, 35, 0
10, 11760, Note_on_c, 9, 35, 92
10, 11760, Note_on_c, 9, 42, 81
10, 11761, Note_on_c, 9, 42, 0
10, 11761, Note_on_c, 9, 35, 0
10, 11840, Note_on_c, 9, 35, 73
10, 11840, Note_on_c, 9, 42, 61
10, 11841, Note_on_c, 9, 42, 0
10, 11841, Note_on_c, 9, 35, 0
10, 11880, Note_on_c, 9, 42, 73
10, 11880, Note_on_c, 9, 37, 92
10, 11881, Note_on_c, 9, 37, 0
10, 11881, Note_on_c, 9, 42, 0
10, 11960, Note_on_c, 9, 35, 73
10, 11960, Note_on_c, 9, 46, 62
10, 11961, Note_on_c, 9, 46, 0
10, 11961, Note_on_c, 9, 35, 0
10, 12000, Note_on_c, 9, 35, 92
10, 12000, Note_on_c, 9, 42, 81
10, 12001, Note_on_c, 9, 42, 0
10, 12001, Note_on_c, 9, 35, 0
10, 12080, Note_on_c, 9, 42, 61
10, 12081, Note_on_c, 9, 42, 0
10, 12120, Note_on_c, 9, 42, 73
10, 12120, Note_on_c, 9, 37, 92
10, 12121, Note_on_c, 9, 37, 0
10, 12121, Note_on_c, 9, 42, 0
10, 12200, Note_on_c, 9, 35, 73
10, 12200, Note_on_c, 9, 42, 61
10, 12201, Note_on_c, 9, 42, 0
10, 12201, Note_on_c, 9, 35, 0
10, 12240, Note_on_c, 9, 35, 92
10, 12240, Note_on_c, 9, 42, 81
10, 12241, Note_on_c, 9, 42, 0
10, 12241, Note_on_c, 9, 35, 0
10, 12320, Note_on_c, 9, 35, 73
10, 12320, Note_on_c, 9, 42, 61
10, 12321, Note_on_c, 9, 42, 0
10, 12321, Note_on_c, 9, 35, 0
10, 12360, Note_on_c, 9, 42, 73
10, 12360, Note_on_c, 9, 37, 92
10, 12361, Note_on_c, 9, 37, 0
10, 12361, Note_on_c, 9, 42, 0
10, 12400, Note_on_c, 9, 42, 52
10, 12401, Note_on_c, 9, 42, 0
10, 12440, Note_on_c, 9, 35, 73
10, 12440, Note_on_c, 9, 42, 61
10, 12441, Note_on_c, 9, 42, 0
10, 12441, Note_on_c, 9, 35, 0
10, 12480, Note_on_c, 9, 35, 92
10, 12480, Note_on_c, 9, 42, 81
10, 12481, Note_on_c, 9, 42, 0
10, 12481, Note_on_c, 9, 35, 0
10, 12560, Note_on_c, 9, 42, 61
10, 12561, Note_on_c, 9, 42, 0
10, 12600, Note_on_c, 9, 42, 73
10, 12600, Note_on_c, 9, 37, 92
10, 12601, Note_on_c, 9, 37, 0
10, 12601, Note_on_c, 9, 42, 0
10, 12680, Note_on_c, 9, 35, 73
10, 12680, Note_on_c, 9, 42, 61
10, 12681, Note_on_c, 9, 42, 0
10, 12681, Note_on_c, 9, 35, 0
10, 12720, Note_on_c, 9, 35, 92
10, 12720, Note_on_c, 9, 42, 81
10, 12721, Note_on_c, 9, 42, 0
10, 12721, Note_on_c, 9, 35, 0
10, 12800, Note_on_c, 9, 42, 61
10, 12801, Note_on_c, 9, 42, 0
10, 12840, Note_on_c, 9, 42, 73
10, 12840, Note_on_c, 9, 37, 92
10, 12841, Note_on_c, 9, 37, 0
10, 12841, Note_on_c, 9, 42, 0
10, 12920, Note_on_c, 9, 35, 73
10, 12920, Note_on_c, 9, 42, 61
10, 12921, Note_on_c, 9, 42, 0
10, 12921, Note_on_c, 9, 35, 0
10, 12960, Note_on_c, 9, 35, 92
10, 12960, Note_on_c, 9, 42, 81
10, 12961, Note_on_c, 9, 42, 0
10, 12961, Note_on_c, 9, 35, 0
10, 13040, Note_on_c, 9, 42, 61
10, 13041, Note_on_c, 9, 42, 0
10, 13080, Note_on_c, 9, 42, 73
10, 13080, Note_on_c, 9, 37, 92
10, 13081, Note_on_c, 9, 37, 0
10, 13081, Note_on_c, 9, 42, 0
10, 13160, Note_on_c, 9, 35, 73
10, 13160, Note_on_c, 9, 42, 61
10, 13161, Note_on_c, 9, 42, 0
10, 13161, Note_on_c, 9, 35, 0
10, 13200, Note_on_c, 9, 35, 92
10, 13200, Note_on_c, 9, 42, 81
10, 13201, Note_on_c, 9, 42, 0
10, 13201, Note_on_c, 9, 35, 0
10, 13280, Note_on_c, 9, 35, 73
10, 13280, Note_on_c, 9, 42, 61
10, 13281, Note_on_c, 9, 42, 0
10, 13281, Note_on_c, 9, 35, 0
10, 13320, Note_on_c, 9, 42, 73
10, 13320, Note_on_c, 9, 37, 92
10, 13321, Note_on_c, 9, 37, 0
10, 13321, Note_on_c, 9, 42, 0
10, 13360, Note_on_c, 9, 42, 52
10, 13361, Note_on_c, 9, 42, 0
10, 13400, Note_on_c, 9, 35, 73
10, 13400, Note_on_c, 9, 42, 61
10, 13401, Note_on_c, 9, 42, 0
10, 13401, Note_on_c, 9, 35, 0
10, 13440, Note_on_c, 9, 35, 92
10, 13440, Note_on_c, 9, 42, 81
10, 13441, Note_on_c, 9, 42, 0
10, 13441, Note_on_c, 9, 35, 0
10, 13520, Note_on_c, 9, 42, 61
10, 13521, Note_on_c, 9, 42, 0
10, 13560, Note_on_c, 9, 42, 73
10, 13560, Note_on_c, 9, 37, 92
10, 13561, Note_on_c, 9, 37, 0
10, 13561, Note_on_c, 9, 42, 0
10, 13640, Note_on_c, 9, 35, 73
10, 13640, Note_on_c, 9, 42, 61
10, 13641, Note_on_c, 9, 42, 0
10, 13641, Note_on_c, 9, 35, 0
10, 13680, Note_on_c, 9, 35, 92
10, 13680, Note_on_c, 9, 42, 81
10, 13681, Note_on_c, 9, 42, 0
10, 13681, Note_on_c, 9, 35, 0
10, 13760, Note_on_c, 9, 42, 61
10, 13761, Note_on_c, 9, 42, 0
10, 13800, Note_on_c, 9, 42, 73
10, 13800, Note_on_c, 9, 37, 92
10, 13801, Note_on_c, 9, 37, 0
10, 13801, Note_on_c, 9, 42, 0
10, 13880, Note_on_c, 9, 35, 73
10, 13880, Note_on_c, 9, 42, 61
10, 13881, Note_on_c, 9, 42, 0
10, 13881, Note_on_c, 9, 35, 0
10, 13920, Note_on_c, 9, 35, 92
10, 13920, Note_on_c, 9, 42, 81
10, 13921, Note_on_c, 9, 42, 0
10, 13921, Note_on_c, 9, 35, 0
10, 14000, Note_on_c, 9, 42, 61
10, 14001, Note_on_c, 9, 42, 0
10, 14040, Note_on_c, 9, 42, 73
10, 14040, Note_on_c, 9, 37, 92
10, 14041, Note_on_c, 9, 37, 0
10, 14041, Note_on_c, 9, 42, 0
10, 14120, Note_on_c, 9, 35, 73
10, 14120, Note_on_c, 9, 42, 61
10, 14121, Note_on_c, 9, 42, 0
10, 14121, Note_on_c, 9, 35, 0
10, 14160, Note_on_c, 9, 35, 92
10, 14160, Note_on_c, 9, 42, 81
10, 14161, Note_on_c, 9, 42, 0
10, 14161, Note_on_c, 9, 35, 0
10, 14240, Note_on_c, 9, 38, 92
10, 14240, Note_on_c, 9, 42, 61
10, 14241, Note_on_c, 9, 42, 0
10, 14241, Note_on_c, 9, 38, 0
10, 14280, Note_on_c, 9, 38, 73
10, 14280, Note_on_c, 9, 42, 73
10, 14281, Note_on_c, 9, 42, 0
10, 14281, Note_on_c, 9, 38, 0
10, 14320, Note_on_c, 9, 38, 107
10, 14321, Note_on_c, 9, 38, 0
10, 14360, Note_on_c, 9, 35, 73
10, 14360, Note_on_c, 9, 46, 81
10, 14361, Note_on_c, 9, 46, 0
10, 14361, Note_on_c, 9, 35, 0
10, 14400, Note_on_c, 9, 35, 92
10, 14400, Note_on_c, 9, 42, 81
10, 14401, Note_on_c, 9, 42, 0
10, 14401, Note_on_c, 9, 35, 0
10, 14480, Note_on_c, 9, 42, 61
10, 14481, Note_on_c, 9, 42, 0
10, 14520, Note_on_c, 9, 42, 73
10, 14520, Note_on_c, 9, 37, 92
10, 14521, Note_on_c, 9, 37, 0
10, 14521, Note_on_c, 9, 42, 0
10, 14600, Note_on_c, 9, 35, 73
10, 14600, Note_on_c, 9, 46, 44
10, 14601, Note_on_c, 9, 46, 0
10, 14601, Note_on_c, 9, 35, 0
10, 14640, Note_on_c, 9, 35, 92
10, 14640, Note_on_c, 9, 42, 81
10, 14641, Note_on_c, 9, 42, 0
10, 14641, Note_on_c, 9, 35, 0
10, 14720, Note_on_c, 9, 42, 61
10, 14721, Note_on_c, 9, 42, 0
10, 14760, Note_on_c, 9, 42, 73
10, 14760, Note_on_c, 9, 37, 92
10, 14761, Note_on_c, 9, 37, 0
10, 14761, Note_on_c, 9, 42, 0
10, 14840, Note_on_c, 9, 35, 73
10, 14840, Note_on_c, 9, 42, 61
10, 14841, Note_on_c, 9, 42, 0
10, 14841, Note_on_c, 9, 35, 0
10, 14880, Note_on_c, 9, 35, 92
10, 14880, Note_on_c, 9, 42, 81
10, 14881, Note_on_c, 9, 42, 0
10, 14881, Note_on_c, 9, 35, 0
10, 14960, Note_on_c, 9, 42, 61
10, 14961, Note_on_c, 9, 42, 0
10, 15000, Note_on_c, 9, 42, 73
10, 15000, Note_on_c, 9, 37, 92
10, 15001, Note_on_c, 9, 37, 0
10, 15001, Note_on_c, 9, 42, 0
10, 15080, Note_on_c, 9, 35, 73
10, 15080, Note_on_c, 9, 42, 61
10, 15081, Note_on_c, 9, 42, 0
10, 15081, Note_on_c, 9, 35, 0
10, 15120, Note_on_c, 9, 35, 92
10, 15120, Note_on_c, 9, 42, 81
10, 15121, Note_on_c, 9, 42, 0
10, 15121, Note_on_c, 9, 35, 0
10, 15200, Note_on_c, 9, 42, 61
10, 15201, Note_on_c, 9, 42, 0
10, 15240, Note_on_c, 9, 42, 73
10, 15240, Note_on_c, 9, 37, 92
10, 15241, Note_on_c, 9, 37, 0
10, 15241, Note_on_c, 9, 42, 0
10, 15320, Note_on_c, 9, 35, 73
10, 15320, Note_on_c, 9, 42, 61
10, 15321, Note_on_c, 9, 42, 0
10, 15321, Note_on_c, 9, 35, 0
10, 15360, Note_on_c, 9, 35, 92
10, 15360, Note_on_c, 9, 42, 81
10, 15361, Note_on_c, 9, 42, 0
10, 15361, Note_on_c, 9, 35, 0
10, 15440, Note_on_c, 9, 42, 61
10, 15441, Note_on_c, 9, 42, 0
10, 15480, Note_on_c, 9, 42, 73
10, 15480, Note_on_c, 9, 37, 92
10, 15481, Note_on_c, 9, 37, 0
10, 15481, Note_on_c, 9, 42, 0
10, 15560, Note_on_c, 9, 35, 73
10, 15560, Note_on_c, 9, 42, 61
10, 15561, Note_on_c, 9, 42, 0
10, 15561, Note_on_c, 9, 35, 0
10, 15600, Note_on_c, 9, 35, 92
10, 15600, Note_on_c, 9, 42, 81
10, 15601, Note_on_c, 9, 42, 0
10, 15601, Note_on_c, 9, 35, 0
10, 15680, Note_on_c, 9, 42, 61
10, 15681, Note_on_c, 9, 42, 0
10, 15720, Note_on_c, 9, 42, 73
10, 15720, Note_on_c, 9, 37, 92
10, 15721, Note_on_c, 9, 37, 0
10, 15721, Note_on_c, 9, 42, 0
10, 15800, Note_on_c, 9, 35, 73
10, 15800, Note_on_c, 9, 42, 61
10, 15801, Note_on_c, 9, 42, 0
10, 15801, Note_on_c, 9, 35, 0
10, 15840, Note_on_c, 9, 35, 92
10, 15840, Note_on_c, 9, 42, 81
10, 15841, Note_on_c, 9, 42, 0
10, 15841, Note_on_c, 9, 35, 0
10, 15920, Note_on_c, 9, 42, 61
10, 15921, Note_on_c, 9, 42, 0
10, 15960, Note_on_c, 9, 42, 73
10, 15960, Note_on_c, 9, 37, 92
10, 15961, Note_on_c, 9, 37, 0
10, 15961, Note_on_c, 9, 42, 0
10, 16040, Note_on_c, 9, 35, 73
10, 16040, Note_on_c, 9, 46, 44
10, 16041, Note_on_c, 9, 46, 0
10, 16041, Note_on_c, 9, 35, 0
10, 16080, Note_on_c, 9, 35, 92
10, 16080, Note_on_c, 9, 42, 81
10, 16081, Note_on_c, 9, 42, 0
10, 16081, Note_on_c, 9, 35, 0
10, 16160, Note_on_c, 9, 35, 73
10, 16160, Note_on_c, 9, 42, 61
10, 16161, Note_on_c, 9, 42, 0
10, 16161, Note_on_c, 9, 35, 0
10, 16200, Note_on_c, 9, 42, 73
10, 16200, Note_on_c, 9, 37, 92
10, 16201, Note_on_c, 9, 37, 0
10, 16201, Note_on_c, 9, 42, 0
10, 16280, Note_on_c, 9, 35, 73
10, 16280, Note_on_c, 9, 42, 61
10, 16281, Note_on_c, 9, 42, 0
10, 16281, Note_on_c, 9, 35, 0
10, 16320, Note_on_c, 9, 35, 92
10, 16320, Note_on_c, 9, 42, 81
10, 16321, Note_on_c, 9, 42, 0
10, 16321, Note_on_c, 9, 35, 0
10, 16400, Note_on_c, 9, 42, 61
10, 16401, Note_on_c, 9, 42, 0
10, 16440, Note_on_c, 9, 42, 73
10, 16440, Note_on_c, 9, 37, 92
10, 16441, Note_on_c, 9, 37, 0
10, 16441, Note_on_c, 9, 42, 0
10, 16520, Note_on_c, 9, 35, 73
10, 16520, Note_on_c, 9, 42, 61
10, 16521, Note_on_c, 9, 42, 0
10, 16521, Note_on_c, 9, 35, 0
10, 16560, Note_on_c, 9, 35, 92
10, 16560, Note_on_c, 9, 42, 81
10, 16561, Note_on_c, 9, 42, 0
10, 16561, Note_on_c, 9, 35, 0
10, 16640, Note_on_c, 9, 42, 61
10, 16641, Note_on_c, 9, 42, 0
10, 16680, Note_on_c, 9, 42, 73
10, 16680, Note_on_c, 9, 37, 92
10, 16681, Note_on_c, 9, 37, 0
10, 16681, Note_on_c, 9, 42, 0
10, 16760, Note_on_c, 9, 35, 73
10, 16760, Note_on_c, 9, 42, 61
10, 16761, Note_on_c, 9, 42, 0
10, 16761, Note_on_c, 9, 35, 0
10, 16800, Note_on_c, 9, 35, 92
10, 16800, Note_on_c, 9, 42, 81
10, 16801, Note_on_c, 9, 42, 0
10, 16801, Note_on_c, 9, 35, 0
10, 16880, Note_on_c, 9, 42, 61
10, 16881, Note_on_c, 9, 42, 0
10, 16920, Note_on_c, 9, 42, 73
10, 16920, Note_on_c, 9, 37, 92
10, 16921, Note_on_c, 9, 37, 0
10, 16921, Note_on_c, 9, 42, 0
10, 17000, Note_on_c, 9, 35, 73
10, 17000, Note_on_c, 9, 46, 44
10, 17001, Note_on_c, 9, 46, 0
10, 17001, Note_on_c, 9, 35, 0
10, 17040, Note_on_c, 9, 35, 92
10, 17040, Note_on_c, 9, 42, 81
10, 17041, Note_on_c, 9, 42, 0
10, 17041, Note_on_c, 9, 35, 0
10, 17120, Note_on_c, 9, 42, 61
10, 17121, Note_on_c, 9, 42, 0
10, 17160, Note_on_c, 9, 42, 73
10, 17160, Note_on_c, 9, 37, 92
10, 17161, Note_on_c, 9, 37, 0
10, 17161, Note_on_c, 9, 42, 0
10, 17240, Note_on_c, 9, 35, 73
10, 17240, Note_on_c, 9, 46, 62
10, 17241, Note_on_c, 9, 46, 0
10, 17241, Note_on_c, 9, 35, 0
10, 17280, Note_on_c, 9, 42, 81
10, 17280, Note_on_c, 9, 35, 92
10, 17281, Note_on_c, 9, 35, 0
10, 17281, Note_on_c, 9, 42, 0
10, 17360, Note_on_c, 9, 42, 61
10, 17361, Note_on_c, 9, 42, 0
10, 17400, Note_on_c, 9, 42, 73
10, 17400, Note_on_c, 9, 37, 92
10, 17401, Note_on_c, 9, 37, 0
10, 17401, Note_on_c, 9, 42, 0
10, 17480, Note_on_c, 9, 35, 73
10, 17480, Note_on_c, 9, 46, 44
10, 17481, Note_on_c, 9, 46, 0
10, 17481, Note_on_c, 9, 35, 0
10, 17520, Note_on_c, 9, 42, 81
10, 17520, Note_on_c, 9, 35, 92
10, 17521, Note_on_c, 9, 35, 0
10, 17521, Note_on_c, 9, 42, 0
10, 17600, Note_on_c, 9, 42, 61
10, 17601, Note_on_c, 9, 42, 0
10, 17640, Note_on_c, 9, 37, 92
10, 17640, Note_on_c, 9, 42, 73
10, 17641, Note_on_c, 9, 42, 0
10, 17641, Note_on_c, 9, 37, 0
10, 17720, Note_on_c, 9, 35, 73
10, 17720, Note_on_c, 9, 46, 62
10, 17721, Note_on_c, 9, 46, 0
10, 17721, Note_on_c, 9, 35, 0
10, 17760, Note_on_c, 9, 35, 92
10, 17760, Note_on_c, 9, 42, 81
10, 17760, Note_on_c, 9, 49, 62
10, 17761, Note_on_c, 9, 49, 0
10, 17761, Note_on_c, 9, 42, 0
10, 17761, Note_on_c, 9, 35, 0
10, 17840, Note_on_c, 9, 42, 61
10, 17841, Note_on_c, 9, 42, 0
10, 17880, Note_on_c, 9, 37, 92
10, 17880, Note_on_c, 9, 42, 73
10, 17881, Note_on_c, 9, 42, 0
10, 17881, Note_on_c, 9, 37, 0
10, 17960, Note_on_c, 9, 35, 73
10, 17960, Note_on_c, 9, 42, 61
10, 17961, Note_on_c, 9, 42, 0
10, 17961, Note_on_c, 9, 35, 0
10, 18000, Note_on_c, 9, 35, 92
10, 18000, Note_on_c, 9, 42, 81
10, 18001, Note_on_c, 9, 42, 0
10, 18001, Note_on_c, 9, 35, 0
10, 18080, Note_on_c, 9, 42, 61
10, 18081, Note_on_c, 9, 42, 0
10, 18120, Note_on_c, 9, 37, 92
10, 18120, Note_on_c, 9, 42, 73
10, 18121, Note_on_c, 9, 42, 0
10, 18121, Note_on_c, 9, 37, 0
10, 18200, Note_on_c, 9, 35, 73
10, 18200, Note_on_c, 9, 42, 61
10, 18201, Note_on_c, 9, 42, 0
10, 18201, Note_on_c, 9, 35, 0
10, 18240, Note_on_c, 9, 35, 92
10, 18240, Note_on_c, 9, 42, 81
10, 18241, Note_on_c, 9, 42, 0
10, 18241, Note_on_c, 9, 35, 0
10, 18320, Note_on_c, 9, 42, 61
10, 18321, Note_on_c, 9, 42, 0
10, 18360, Note_on_c, 9, 37, 92
10, 18360, Note_on_c, 9, 42, 73
10, 18361, Note_on_c, 9, 42, 0
10, 18361, Note_on_c, 9, 37, 0
10, 18440, Note_on_c, 9, 35, 73
10, 18440, Note_on_c, 9, 42, 61
10, 18441, Note_on_c, 9, 42, 0
10, 18441, Note_on_c, 9, 35, 0
10, 18480, Note_on_c, 9, 42, 81
10, 18480, Note_on_c, 9, 35, 92
10, 18481, Note_on_c, 9, 35, 0
10, 18481, Note_on_c, 9, 42, 0
10, 18560, Note_on_c, 9, 42, 61
10, 18561, Note_on_c, 9, 42, 0
10, 18600, Note_on_c, 9, 37, 92
10, 18600, Note_on_c, 9, 42, 73
10, 18601, Note_on_c, 9, 42, 0
10, 18601, Note_on_c, 9, 37, 0
10, 18680, Note_on_c, 9, 35, 73
10, 18680, Note_on_c, 9, 42, 61
10, 18681, Note_on_c, 9, 42, 0
10, 18681, Note_on_c, 9, 35, 0
10, 18720, Note_on_c, 9, 42, 81
10, 18720, Note_on_c, 9, 35, 92
10, 18721, Note_on_c, 9, 35, 0
10, 18721, Note_on_c, 9, 42, 0
10, 18800, Note_on_c, 9, 42, 61
10, 18801, Note_on_c, 9, 42, 0
10, 18840, Note_on_c, 9, 37, 92
10, 18840, Note_on_c, 9, 42, 73
10, 18841, Note_on_c, 9, 42, 0
10, 18841, Note_on_c, 9, 37, 0
10, 18920, Note_on_c, 9, 42, 61
10, 18920, Note_on_c, 9, 35, 73
10, 18921, Note_on_c, 9, 35, 0
10, 18921, Note_on_c, 9, 42, 0
10, 18960, Note_on_c, 9, 42, 81
10, 18960, Note_on_c, 9, 35, 92
10, 18961, Note_on_c, 9, 35, 0
10, 18961, Note_on_c, 9, 42, 0
10, 19040, Note_on_c, 9, 42, 61
10, 19041, Note_on_c, 9, 42, 0
10, 19080, Note_on_c, 9, 37, 92
10, 19080, Note_on_c, 9, 42, 73
10, 19081, Note_on_c, 9, 42, 0
10, 19081, Note_on_c, 9, 37, 0
10, 19160, Note_on_c, 9, 42, 61
10, 19160, Note_on_c, 9, 35, 73
10, 19161, Note_on_c, 9, 35, 0
10, 19161, Note_on_c, 9, 42, 0
10, 19200, Note_on_c, 9, 42, 81
10, 19200, Note_on_c, 9, 35, 92
10, 19201, Note_on_c, 9, 35, 0
10, 19201, Note_on_c, 9, 42, 0
10, 19280, Note_on_c, 9, 42, 61
10, 19281, Note_on_c, 9, 42, 0
10, 19320, Note_on_c, 9, 37, 92
10, 19320, Note_on_c, 9, 42, 73
10, 19321, Note_on_c, 9, 42, 0
10, 19321, Note_on_c, 9, 37, 0
10, 19400, Note_on_c, 9, 35, 73
10, 19400, Note_on_c, 9, 42, 61
10, 19401, Note_on_c, 9, 42, 0
10, 19401, Note_on_c, 9, 35, 0
10, 19440, Note_on_c, 9, 42, 81
10, 19440, Note_on_c, 9, 35, 92
10, 19441, Note_on_c, 9, 35, 0
10, 19441, Note_on_c, 9, 42, 0
10, 19520, Note_on_c, 9, 42, 61
10, 19521, Note_on_c, 9, 42, 0
10, 19560, Note_on_c, 9, 37, 92
10, 19560, Note_on_c, 9, 42, 73
10, 19561, Note_on_c, 9, 42, 0
10, 19561, Note_on_c, 9, 37, 0
10, 19640, Note_on_c, 9, 35, 73
10, 19640, Note_on_c, 9, 42, 61
10, 19641, Note_on_c, 9, 42, 0
10, 19641, Note_on_c, 9, 35, 0
10, 19680, Note_on_c, 9, 42, 81
10, 19680, Note_on_c, 9, 35, 92
10, 19681, Note_on_c, 9, 35, 0
10, 19681, Note_on_c, 9, 42, 0
10, 19760, Note_on_c, 9, 42, 61
10, 19761, Note_on_c, 9, 42, 0
10, 19800, Note_on_c, 9, 37, 92
10, 19800, Note_on_c, 9, 42, 73
10, 19801, Note_on_c, 9, 42, 0
10, 19801, Note_on_c, 9, 37, 0
10, 19880, Note_on_c, 9, 35, 73
10, 19880, Note_on_c, 9, 42, 61
10, 19881, Note_on_c, 9, 42, 0
10, 19881, Note_on_c, 9, 35, 0
10, 19920, Note_on_c, 9, 42, 81
10, 19920, Note_on_c, 9, 35, 92
10, 19921, Note_on_c, 9, 35, 0
10, 19921, Note_on_c, 9, 42, 0
10, 20000, Note_on_c, 9, 35, 73
10, 20000, Note_on_c, 9, 42, 61
10, 20001, Note_on_c, 9, 42, 0
10, 20001, Note_on_c, 9, 35, 0
10, 20040, Note_on_c, 9, 37, 92
10, 20040, Note_on_c, 9, 42, 73
10, 20041, Note_on_c, 9, 42, 0
10, 20041, Note_on_c, 9, 37, 0
10, 20080, Note_on_c, 9, 42, 52
10, 20081, Note_on_c, 9, 42, 0
10, 20120, Note_on_c, 9, 42, 61
10, 20120, Note_on_c, 9, 35, 73
10, 20121, Note_on_c, 9, 35, 0
10, 20121, Note_on_c, 9, 42, 0
10, 20160, Note_on_c, 9, 35, 92
10, 20160, Note_on_c, 9, 42, 81
10, 20161, Note_on_c, 9, 42, 0
10, 20161, Note_on_c, 9, 35, 0
10, 20240, Note_on_c, 9, 42, 61
10, 20241, Note_on_c, 9, 42, 0
10, 20280, Note_on_c, 9, 42, 73
10, 20280, Note_on_c, 9, 37, 92
10, 20281, Note_on_c, 9, 37, 0
10, 20281, Note_on_c, 9, 42, 0
10, 20360, Note_on_c, 9, 46, 44
10, 20360, Note_on_c, 9, 35, 73
10, 20361, Note_on_c, 9, 35, 0
10, 20361, Note_on_c, 9, 46, 0
10, 20400, Note_on_c, 9, 42, 81
10, 20400, Note_on_c, 9, 35, 92
10, 20401, Note_on_c, 9, 35, 0
10, 20401, Note_on_c, 9, 42, 0
10, 20480, Note_on_c, 9, 42, 61
10, 20481, Note_on_c, 9, 42, 0
10, 20520, Note_on_c, 9, 37, 92
10, 20520, Note_on_c, 9, 42, 73
10, 20521, Note_on_c, 9, 42, 0
10, 20521, Note_on_c, 9, 37, 0
10, 20600, Note_on_c, 9, 35, 73
10, 20600, Note_on_c, 9, 46, 62
10, 20601, Note_on_c, 9, 46, 0
10, 20601, Note_on_c, 9, 35, 0
10, 20640, Note_on_c, 9, 42, 81
10, 20640, Note_on_c, 9, 35, 92
10, 20641, Note_on_c, 9, 35, 0
10, 20641, Note_on_c, 9, 42, 0
10, 20720, Note_on_c, 9, 42, 61
10, 20721, Note_on_c, 9, 42, 0
10, 20760, Note_on_c, 9, 37, 92
10, 20760, Note_on_c, 9, 42, 73
10, 20761, Note_on_c, 9, 42, 0
10, 20761, Note_on_c, 9, 37, 0
10, 20840, Note_on_c, 9, 35, 73
10, 20840, Note_on_c, 9, 46, 44
10, 20841, Note_on_c, 9, 46, 0
10, 20841, Note_on_c, 9, 35, 0
10, 20880, Note_on_c, 9, 42, 81
10, 20880, Note_on_c, 9, 35, 92
10, 20881, Note_on_c, 9, 35, 0
10, 20881, Note_on_c, 9, 42, 0
10, 20960, Note_on_c, 9, 42, 61
10, 20961, Note_on_c, 9, 42, 0
10, 21000, Note_on_c, 9, 42, 73
10, 21000, Note_on_c, 9, 37, 92
10, 21001, Note_on_c, 9, 37, 0
10, 21001, Note_on_c, 9, 42, 0
10, 21080, Note_on_c, 9, 35, 73
10, 21080, Note_on_c, 9, 42, 61
10, 21081, Note_on_c, 9, 42, 0
10, 21081, Note_on_c, 9, 35, 0
10, 21120, Note_on_c, 9, 42, 81
10, 21120, Note_on_c, 9, 35, 92
10, 21121, Note_on_c, 9, 35, 0
10, 21121, Note_on_c, 9, 42, 0
10, 21200, Note_on_c, 9, 42, 61
10, 21201, Note_on_c, 9, 42, 0
10, 21240, Note_on_c, 9, 42, 73
10, 21240, Note_on_c, 9, 37, 92
10, 21241, Note_on_c, 9, 37, 0
10, 21241, Note_on_c, 9, 42, 0
10, 21320, Note_on_c, 9, 35, 73
10, 21320, Note_on_c, 9, 42, 61
10, 21321, Note_on_c, 9, 42, 0
10, 21321, Note_on_c, 9, 35, 0
10, 21360, Note_on_c, 9, 35, 92
10, 21360, Note_on_c, 9, 42, 81
10, 21361, Note_on_c, 9, 42, 0
10, 21361, Note_on_c, 9, 35, 0
10, 21440, Note_on_c, 9, 42, 61
10, 21441, Note_on_c, 9, 42, 0
10, 21480, Note_on_c, 9, 42, 73
10, 21480, Note_on_c, 9, 37, 92
10, 21481, Note_on_c, 9, 37, 0
10, 21481, Note_on_c, 9, 42, 0
10, 21560, Note_on_c, 9, 35, 73
10, 21560, Note_on_c, 9, 42, 61
10, 21561, Note_on_c, 9, 42, 0
10, 21561, Note_on_c, 9, 35, 0
10, 21600, Note_on_c, 9, 42, 81
10, 21600, Note_on_c, 9, 35, 92
10, 21601, Note_on_c, 9, 35, 0
10, 21601, Note_on_c, 9, 42, 0
10, 21680, Note_on_c, 9, 42, 61
10, 21681, Note_on_c, 9, 42, 0
10, 21720, Note_on_c, 9, 37, 92
10, 21720, Note_on_c, 9, 42, 73
10, 21721, Note_on_c, 9, 42, 0
10, 21721, Note_on_c, 9, 37, 0
10, 21760, Note_on_c, 9, 42, 39
10, 21761, Note_on_c, 9, 42, 0
10, 21800, Note_on_c, 9, 35, 73
10, 21800, Note_on_c, 9, 42, 61
10, 21801, Note_on_c, 9, 42, 0
10, 21801, Note_on_c, 9, 35, 0
10, 21840, Note_on_c, 9, 35, 92
10, 21840, Note_on_c, 9, 42, 81
10, 21841, Note_on_c, 9, 42, 0
10, 21841, Note_on_c, 9, 35, 0
10, 21920, Note_on_c, 9, 42, 61
10, 21921, Note_on_c, 9, 42, 0
10, 21960, Note_on_c, 9, 37, 92
10, 21960, Note_on_c, 9, 42, 73
10, 21961, Note_on_c, 9, 42, 0
10, 21961, Note_on_c, 9, 37, 0
10, 22040, Note_on_c, 9, 35, 73
10, 22040, Note_on_c, 9, 46, 62
10, 22041, Note_on_c, 9, 46, 0
10, 22041, Note_on_c, 9, 35, 0
10, 22080, Note_on_c, 9, 42, 81
10, 22080, Note_on_c, 9, 35, 92
10, 22081, Note_on_c, 9, 35, 0
10, 22081, Note_on_c, 9, 42, 0
10, 22160, Note_on_c, 9, 42, 61
10, 22161, Note_on_c, 9, 42, 0
10, 22200, Note_on_c, 9, 37, 92
10, 22200, Note_on_c, 9, 42, 73
10, 22201, Note_on_c, 9, 42, 0
10, 22201, Note_on_c, 9, 37, 0
10, 22280, Note_on_c, 9, 35, 73
10, 22280, Note_on_c, 9, 42, 61
10, 22281, Note_on_c, 9, 42, 0
10, 22281, Note_on_c, 9, 35, 0
10, 22320, Note_on_c, 9, 42, 81
10, 22320, Note_on_c, 9, 35, 92
10, 22321, Note_on_c, 9, 35, 0
10, 22321, Note_on_c, 9, 42, 0
10, 22400, Note_on_c, 9, 42, 61
10, 22401, Note_on_c, 9, 42, 0
10, 22440, Note_on_c, 9, 37, 92
10, 22440, Note_on_c, 9, 42, 73
10, 22441, Note_on_c, 9, 42, 0
10, 22441, Note_on_c, 9, 37, 0
10, 22520, Note_on_c, 9, 42, 61
10, 22520, Note_on_c, 9, 35, 73
10, 22521, Note_on_c, 9, 35, 0
10, 22521, Note_on_c, 9, 42, 0
10, 22560, Note_on_c, 9, 35, 92
10, 22560, Note_on_c, 9, 42, 81
10, 22561, Note_on_c, 9, 42, 0
10, 22561, Note_on_c, 9, 35, 0
10, 22640, Note_on_c, 9, 42, 61
10, 22641, Note_on_c, 9, 42, 0
10, 22680, Note_on_c, 9, 42, 73
10, 22680, Note_on_c, 9, 37, 92
10, 22681, Note_on_c, 9, 37, 0
10, 22681, Note_on_c, 9, 42, 0
10, 22720, Note_on_c, 9, 42, 39
10, 22721, Note_on_c, 9, 42, 0
10, 22760, Note_on_c, 9, 35, 73
10, 22760, Note_on_c, 9, 42, 61
10, 22761, Note_on_c, 9, 42, 0
10, 22761, Note_on_c, 9, 35, 0
10, 22800, Note_on_c, 9, 42, 81
10, 22800, Note_on_c, 9, 35, 92
10, 22801, Note_on_c, 9, 35, 0
10, 22801, Note_on_c, 9, 42, 0
10, 22880, Note_on_c, 9, 35, 73
10, 22880, Note_on_c, 9, 42, 61
10, 22881, Note_on_c, 9, 42, 0
10, 22881, Note_on_c, 9, 35, 0
10, 22920, Note_on_c, 9, 37, 92
10, 22920, Note_on_c, 9, 42, 73
10, 22921, Note_on_c, 9, 42, 0
10, 22921, Note_on_c, 9, 37, 0
10, 23000, Note_on_c, 9, 35, 73
10, 23000, Note_on_c, 9, 42, 61
10, 23001, Note_on_c, 9, 42, 0
10, 23001, Note_on_c, 9, 35, 0
10, 23040, Note_on_c, 9, 35, 92
10, 23040, Note_on_c, 9, 42, 81
10, 23041, Note_on_c, 9, 42, 0
10, 23041, Note_on_c, 9, 35, 0
10, 23120, Note_on_c, 9, 42, 61
10, 23121, Note_on_c, 9, 42, 0
10, 23160, Note_on_c, 9, 37, 92
10, 23160, Note_on_c, 9, 42, 73
10, 23161, Note_on_c, 9, 42, 0
10, 23161, Note_on_c, 9, 37, 0
10, 23240, Note_on_c, 9, 35, 73
10, 23240, Note_on_c, 9, 42, 61
10, 23241, Note_on_c, 9, 42, 0
10, 23241, Note_on_c, 9, 35, 0
10, 23280, Note_on_c, 9, 35, 92
10, 23280, Note_on_c, 9, 42, 81
10, 23281, Note_on_c, 9, 42, 0
10, 23281, Note_on_c, 9, 35, 0
10, 23360, Note_on_c, 9, 42, 61
10, 23360, Note_on_c, 9, 35, 73
10, 23361, Note_on_c, 9, 35, 0
10, 23361, Note_on_c, 9, 42, 0
10, 23400, Note_on_c, 9, 42, 73
10, 23400, Note_on_c, 9, 37, 92
10, 23401, Note_on_c, 9, 37, 0
10, 23401, Note_on_c, 9, 42, 0
10, 23480, Note_on_c, 9, 42, 61
10, 23480, Note_on_c, 9, 35, 73
10, 23481, Note_on_c, 9, 35, 0
10, 23481, Note_on_c, 9, 42, 0
10, 23520, Note_on_c, 9, 35, 92
10, 23520, Note_on_c, 9, 42, 81
10, 23521, Note_on_c, 9, 42, 0
10, 23521, Note_on_c, 9, 35, 0
10, 23600, Note_on_c, 9, 42, 61
10, 23601, Note_on_c, 9, 42, 0
10, 23640, Note_on_c, 9, 42, 73
10, 23640, Note_on_c, 9, 37, 92
10, 23641, Note_on_c, 9, 37, 0
10, 23641, Note_on_c, 9, 42, 0
10, 23720, Note_on_c, 9, 46, 44
10, 23720, Note_on_c, 9, 35, 73
10, 23721, Note_on_c, 9, 35, 0
10, 23721, Note_on_c, 9, 46, 0
10, 23760, Note_on_c, 9, 35, 92
10, 23760, Note_on_c, 9, 42, 81
10, 23761, Note_on_c, 9, 42, 0
10, 23761, Note_on_c, 9, 35, 0
10, 23840, Note_on_c, 9, 42, 61
10, 23841, Note_on_c, 9, 42, 0
10, 23880, Note_on_c, 9, 42, 73
10, 23880, Note_on_c, 9, 37, 92
10, 23881, Note_on_c, 9, 37, 0
10, 23881, Note_on_c, 9, 42, 0
10, 23960, Note_on_c, 9, 42, 61
10, 23960, Note_on_c, 9, 35, 73
10, 23961, Note_on_c, 9, 35, 0
10, 23961, Note_on_c, 9, 42, 0
10, 24000, Note_on_c, 9, 35, 92
10, 24000, Note_on_c, 9, 42, 81
10, 24001, Note_on_c, 9, 42, 0
10, 24001, Note_on_c, 9, 35, 0
10, 24080, Note_on_c, 9, 42, 61
10, 24081, Note_on_c, 9, 42, 0
10, 24120, Note_on_c, 9, 42, 73
10, 24120, Note_on_c, 9, 37, 92
10, 24121, Note_on_c, 9, 37, 0
10, 24121, Note_on_c, 9, 42, 0
10, 24200, Note_on_c, 9, 42, 61
10, 24200, Note_on_c, 9, 35, 73
10, 24201, Note_on_c, 9, 35, 0
10, 24201, Note_on_c, 9, 42, 0
10, 24240, Note_on_c, 9, 35, 92
10, 24240, Note_on_c, 9, 42, 81
10, 24241, Note_on_c, 9, 42, 0
10, 24241, Note_on_c, 9, 35, 0
10, 24320, Note_on_c, 9, 42, 61
10, 24320, Note_on_c, 9, 35, 73
10, 24321, Note_on_c, 9, 35, 0
10, 24321, Note_on_c, 9, 42, 0
10, 24360, Note_on_c, 9, 42, 73
10, 24360, Note_on_c, 9, 37, 92
10, 24361, Note_on_c, 9, 37, 0
10, 24361, Note_on_c, 9, 42, 0
10, 24440, Note_on_c, 9, 46, 62
10, 24440, Note_on_c, 9, 35, 73
10, 24441, Note_on_c, 9, 35, 0
10, 24441, Note_on_c, 9, 46, 0
10, 24480, Note_on_c, 9, 35, 92
10, 24480, Note_on_c, 9, 42, 81
10, 24481, Note_on_c, 9, 42, 0
10, 24481, Note_on_c, 9, 35, 0
10, 24560, Note_on_c, 9, 42, 61
10, 24561, Note_on_c, 9, 42, 0
10, 24600, Note_on_c, 9, 42, 73
10, 24600, Note_on_c, 9, 37, 92
10, 24601, Note_on_c, 9, 37, 0
10, 24601, Note_on_c, 9, 42, 0
10, 24680, Note_on_c, 9, 42, 61
10, 24680, Note_on_c, 9, 35, 73
10, 24681, Note_on_c, 9, 35, 0
10, 24681, Note_on_c, 9, 42, 0
10, 24720, Note_on_c, 9, 35, 92
10, 24720, Note_on_c, 9, 42, 81
10, 24721, Note_on_c, 9, 42, 0
10, 24721, Note_on_c, 9, 35, 0
10, 24800, Note_on_c, 9, 42, 61
10, 24801, Note_on_c, 9, 42, 0
10, 24840, Note_on_c, 9, 42, 73
10, 24840, Note_on_c, 9, 37, 92
10, 24841, Note_on_c, 9, 37, 0
10, 24841, Note_on_c, 9, 42, 0
10, 24920, Note_on_c, 9, 42, 61
10, 24920, Note_on_c, 9, 35, 73
10, 24921, Note_on_c, 9, 35, 0
10, 24921, Note_on_c, 9, 42, 0
10, 24960, Note_on_c, 9, 42, 81
10, 24960, Note_on_c, 9, 35, 92
10, 24961, Note_on_c, 9, 35, 0
10, 24961, Note_on_c, 9, 42, 0
10, 25040, Note_on_c, 9, 42, 61
10, 25041, Note_on_c, 9, 42, 0
10, 25080, Note_on_c, 9, 37, 92
10, 25080, Note_on_c, 9, 42, 73
10, 25081, Note_on_c, 9, 42, 0
10, 25081, Note_on_c, 9, 37, 0
10, 25160, Note_on_c, 9, 35, 73
10, 25160, Note_on_c, 9, 42, 61
10, 25161, Note_on_c, 9, 42, 0
10, 25161, Note_on_c, 9, 35, 0
10, 25200, Note_on_c, 9, 35, 92
10, 25200, Note_on_c, 9, 42, 81
10, 25201, Note_on_c, 9, 42, 0
10, 25201, Note_on_c, 9, 35, 0
10, 25280, Note_on_c, 9, 35, 73
10, 25280, Note_on_c, 9, 42, 61
10, 25281, Note_on_c, 9, 42, 0
10, 25281, Note_on_c, 9, 35, 0
10, 25320, Note_on_c, 9, 37, 92
10, 25320, Note_on_c, 9, 42, 73
10, 25321, Note_on_c, 9, 42, 0
10, 25321, Note_on_c, 9, 37, 0
10, 25360, Note_on_c, 9, 42, 52
10, 25361, Note_on_c, 9, 42, 0
10, 25400, Note_on_c, 9, 42, 61
10, 25400, Note_on_c, 9, 35, 73
10, 25401, Note_on_c, 9, 35, 0
10, 25401, Note_on_c, 9, 42, 0
10, 25440, Note_on_c, 9, 42, 81
10, 25440, Note_on_c, 9, 35, 92
10, 25441, Note_on_c, 9, 35, 0
10, 25441, Note_on_c, 9, 42, 0
10, 25520, Note_on_c, 9, 42, 61
10, 25521, Note_on_c, 9, 42, 0
10, 25560, Note_on_c, 9, 42, 73
10, 25560, Note_on_c, 9, 37, 92
10, 25561, Note_on_c, 9, 37, 0
10, 25561, Note_on_c, 9, 42, 0
10, 25640, Note_on_c, 9, 42, 61
10, 25640, Note_on_c, 9, 35, 73
10, 25641, Note_on_c, 9, 35, 0
10, 25641, Note_on_c, 9, 42, 0
10, 25680, Note_on_c, 9, 35, 92
10, 25680, Note_on_c, 9, 42, 81
10, 25681, Note_on_c, 9, 42, 0
10, 25681, Note_on_c, 9, 35, 0
10, 25760, Note_on_c, 9, 42, 61
10, 25761, Note_on_c, 9, 42, 0
10, 25800, Note_on_c, 9, 42, 73
10, 25800, Note_on_c, 9, 37, 92
10, 25801, Note_on_c, 9, 37, 0
10, 25801, Note_on_c, 9, 42, 0
10, 25880, Note_on_c, 9, 42, 61
10, 25880, Note_on_c, 9, 35, 73
10, 25881, Note_on_c, 9, 35, 0
10, 25881, Note_on_c, 9, 42, 0
10, 25920, Note_on_c, 9, 35, 92
10, 25920, Note_on_c, 9, 42, 81
10, 25921, Note_on_c, 9, 42, 0
10, 25921, Note_on_c, 9, 35, 0
10, 26000, Note_on_c, 9, 42, 61
10, 26001, Note_on_c, 9, 42, 0
10, 26040, Note_on_c, 9, 37, 92
10, 26040, Note_on_c, 9, 42, 73
10, 26041, Note_on_c, 9, 42, 0
10, 26041, Note_on_c, 9, 37, 0
10, 26120, Note_on_c, 9, 35, 73
10, 26120, Note_on_c, 9, 46, 44
10, 26121, Note_on_c, 9, 46, 0
10, 26121, Note_on_c, 9, 35, 0
10, 26160, Note_on_c, 9, 35, 92
10, 26160, Note_on_c, 9, 42, 81
10, 26161, Note_on_c, 9, 42, 0
10, 26161, Note_on_c, 9, 35, 0
10, 26240, Note_on_c, 9, 42, 61
10, 26241, Note_on_c, 9, 42, 0
10, 26280, Note_on_c, 9, 37, 92
10, 26280, Note_on_c, 9, 42, 73
10, 26281, Note_on_c, 9, 42, 0
10, 26281, Note_on_c, 9, 37, 0
10, 26360, Note_on_c, 9, 35, 73
10, 26360, Note_on_c, 9, 46, 62
10, 26361, Note_on_c, 9, 46, 0
10, 26361, Note_on_c, 9, 35, 0
10, 26400, Note_on_c, 9, 35, 92
10, 26400, Note_on_c, 9, 42, 81
10, 26401, Note_on_c, 9, 42, 0
10, 26401, Note_on_c, 9, 35, 0
10, 26480, Note_on_c, 9, 42, 61
10, 26481, Note_on_c, 9, 42, 0
10, 26520, Note_on_c, 9, 37, 92
10, 26520, Note_on_c, 9, 42, 73
10, 26521, Note_on_c, 9, 42, 0
10, 26521, Note_on_c, 9, 37, 0
10, 26600, Note_on_c, 9, 35, 73
10, 26600, Note_on_c, 9, 42, 61
10, 26601, Note_on_c, 9, 42, 0
10, 26601, Note_on_c, 9, 35, 0
10, 26640, Note_on_c, 9, 42, 81
10, 26640, Note_on_c, 9, 35, 92
10, 26641, Note_on_c, 9, 35, 0
10, 26641, Note_on_c, 9, 42, 0
10, 26720, Note_on_c, 9, 42, 61
10, 26721, Note_on_c, 9, 42, 0
10, 26760, Note_on_c, 9, 37, 92
10, 26760, Note_on_c, 9, 42, 73
10, 26761, Note_on_c, 9, 42, 0
10, 26761, Note_on_c, 9, 37, 0
10, 26840, Note_on_c, 9, 35, 73
10, 26840, Note_on_c, 9, 42, 61
10, 26841, Note_on_c, 9, 42, 0
10, 26841, Note_on_c, 9, 35, 0
10, 26880, Note_on_c, 9, 42, 81
10, 26880, Note_on_c, 9, 35, 92
10, 26881, Note_on_c, 9, 35, 0
10, 26881, Note_on_c, 9, 42, 0
10, 26960, Note_on_c, 9, 42, 61
10, 26961, Note_on_c, 9, 42, 0
10, 27000, Note_on_c, 9, 37, 92
10, 27000, Note_on_c, 9, 42, 73
10, 27001, Note_on_c, 9, 42, 0
10, 27001, Note_on_c, 9, 37, 0
10, 27040, Note_on_c, 9, 42, 39
10, 27041, Note_on_c, 9, 42, 0
10, 27080, Note_on_c, 9, 35, 73
10, 27080, Note_on_c, 9, 42, 61
10, 27081, Note_on_c, 9, 42, 0
10, 27081, Note_on_c, 9, 35, 0
10, 27120, Note_on_c, 9, 35, 92
10, 27120, Note_on_c, 9, 42, 81
10, 27121, Note_on_c, 9, 42, 0
10, 27121, Note_on_c, 9, 35, 0
10, 27200, Note_on_c, 9, 42, 61
10, 27201, Note_on_c, 9, 42, 0
10, 27240, Note_on_c, 9, 37, 92
10, 27240, Note_on_c, 9, 42, 73
10, 27241, Note_on_c, 9, 42, 0
10, 27241, Note_on_c, 9, 37, 0
10, 27320, Note_on_c, 9, 35, 73
10, 27320, Note_on_c, 9, 42, 61
10, 27321, Note_on_c, 9, 42, 0
10, 27321, Note_on_c, 9, 35, 0
10, 27360, Note_on_c, 9, 35, 92
10, 27360, Note_on_c, 9, 42, 81
10, 27361, Note_on_c, 9, 42, 0
10, 27361, Note_on_c, 9, 35, 0
10, 27440, Note_on_c, 9, 42, 61
10, 27441, Note_on_c, 9, 42, 0
10, 27480, Note_on_c, 9, 37, 92
10, 27480, Note_on_c, 9, 42, 73
10, 27481, Note_on_c, 9, 42, 0
10, 27481, Note_on_c, 9, 37, 0
10, 27560, Note_on_c, 9, 35, 73
10, 27560, Note_on_c, 9, 42, 61
10, 27561, Note_on_c, 9, 42, 0
10, 27561, Note_on_c, 9, 35, 0
10, 27600, Note_on_c, 9, 35, 92
10, 27600, Note_on_c, 9, 42, 81
10, 27601, Note_on_c, 9, 42, 0
10, 27601, Note_on_c, 9, 35, 0
10, 27680, Note_on_c, 9, 42, 61
10, 27681, Note_on_c, 9, 42, 0
10, 27720, Note_on_c, 9, 42, 73
10, 27720, Note_on_c, 9, 37, 92
10, 27721, Note_on_c, 9, 37, 0
10, 27721, Note_on_c, 9, 42, 0
10, 27800, Note_on_c, 9, 42, 61
10, 27800, Note_on_c, 9, 35, 73
10, 27801, Note_on_c, 9, 35, 0
10, 27801, Note_on_c, 9, 42, 0
10, 27840, Note_on_c, 9, 35, 92
10, 27840, Note_on_c, 9, 42, 81
10, 27841, Note_on_c, 9, 42, 0
10, 27841, Note_on_c, 9, 35, 0
10, 27920, Note_on_c, 9, 42, 61
10, 27921, Note_on_c, 9, 42, 0
10, 27960, Note_on_c, 9, 42, 73
10, 27960, Note_on_c, 9, 37, 92
10, 27961, Note_on_c, 9, 37, 0
10, 27961, Note_on_c, 9, 42, 0
10, 28040, Note_on_c, 9, 42, 61
10, 28040, Note_on_c, 9, 35, 73
10, 28041, Note_on_c, 9, 35, 0
10, 28041, Note_on_c, 9, 42, 0
10, 28080, Note_on_c, 9, 42, 81
10, 28080, Note_on_c, 9, 35, 92
10, 28081, Note_on_c, 9, 35, 0
10, 28081, Note_on_c, 9, 42, 0
10, 28160, Note_on_c, 9, 42, 61
10, 28161, Note_on_c, 9, 42, 0
10, 28200, Note_on_c, 9, 37, 92
10, 28200, Note_on_c, 9, 42, 73
10, 28201, Note_on_c, 9, 42, 0
10, 28201, Note_on_c, 9, 37, 0
10, 28280, Note_on_c, 9, 35, 73
10, 28280, Note_on_c, 9, 42, 61
10, 28281, Note_on_c, 9, 42, 0
10, 28281, Note_on_c, 9, 35, 0
10, 28320, Note_on_c, 9, 42, 81
10, 28320, Note_on_c, 9, 35, 92
10, 28321, Note_on_c, 9, 35, 0
10, 28321, Note_on_c, 9, 42, 0
10, 28400, Note_on_c, 9, 42, 61
10, 28401, Note_on_c, 9, 42, 0
10, 28440, Note_on_c, 9, 37, 92
10, 28440, Note_on_c, 9, 42, 73
10, 28441, Note_on_c, 9, 42, 0
10, 28441, Note_on_c, 9, 37, 0
10, 28520, Note_on_c, 9, 35, 73
10, 28520, Note_on_c, 9, 42, 61
10, 28521, Note_on_c, 9, 42, 0
10, 28521, Note_on_c, 9, 35, 0
10, 28560, Note_on_c, 9, 42, 81
10, 28560, Note_on_c, 9, 35, 92
10, 28561, Note_on_c, 9, 35, 0
10, 28561, Note_on_c, 9, 42, 0
10, 28640, Note_on_c, 9, 42, 61
10, 28641, Note_on_c, 9, 42, 0
10, 28680, Note_on_c, 9, 42, 73
10, 28680, Note_on_c, 9, 37, 92
10, 28681, Note_on_c, 9, 37, 0
10, 28681, Note_on_c, 9, 42, 0
10, 28760, Note_on_c, 9, 35, 73
10, 28760, Note_on_c, 9, 42, 61
10, 28761, Note_on_c, 9, 42, 0
10, 28761, Note_on_c, 9, 35, 0
10, 28800, Note_on_c, 9, 42, 81
10, 28800, Note_on_c, 9, 35, 92
10, 28801, Note_on_c, 9, 35, 0
10, 28801, Note_on_c, 9, 42, 0
10, 28880, Note_on_c, 9, 42, 61
10, 28881, Note_on_c, 9, 42, 0
10, 28920, Note_on_c, 9, 42, 73
10, 28920, Note_on_c, 9, 37, 92
10, 28921, Note_on_c, 9, 37, 0
10, 28921, Note_on_c, 9, 42, 0
10, 29000, Note_on_c, 9, 35, 73
10, 29000, Note_on_c, 9, 46, 44
10, 29001, Note_on_c, 9, 46, 0
10, 29001, Note_on_c, 9, 35, 0
10, 29040, Note_on_c, 9, 42, 81
10, 29040, Note_on_c, 9, 35, 92
10, 29041, Note_on_c, 9, 35, 0
10, 29041, Note_on_c, 9, 42, 0
10, 29120, Note_on_c, 9, 42, 61
10, 29120, Note_on_c, 9, 35, 73
10, 29121, Note_on_c, 9, 35, 0
10, 29121, Note_on_c, 9, 42, 0
10, 29160, Note_on_c, 9, 42, 73
10, 29160, Note_on_c, 9, 37, 92
10, 29161, Note_on_c, 9, 37, 0
10, 29161, Note_on_c, 9, 42, 0
10, 29240, Note_on_c, 9, 35, 73
10, 29240, Note_on_c, 9, 46, 62
10, 29241, Note_on_c, 9, 46, 0
10, 29241, Note_on_c, 9, 35, 0
10, 29280, Note_on_c, 9, 42, 81
10, 29280, Note_on_c, 9, 35, 92
10, 29281, Note_on_c, 9, 35, 0
10, 29281, Note_on_c, 9, 42, 0
10, 29360, Note_on_c, 9, 42, 61
10, 29361, Note_on_c, 9, 42, 0
10, 29400, Note_on_c, 9, 42, 73
10, 29400, Note_on_c, 9, 37, 92
10, 29401, Note_on_c, 9, 37, 0
10, 29401, Note_on_c, 9, 42, 0
10, 29440, Note_on_c, 9, 42, 39
10, 29441, Note_on_c, 9, 42, 0
10, 29480, Note_on_c, 9, 42, 61
10, 29480, Note_on_c, 9, 35, 73
10, 29481, Note_on_c, 9, 35, 0
10, 29481, Note_on_c, 9, 42, 0
10, 29520, Note_on_c, 9, 35, 92
10, 29520, Note_on_c, 9, 42, 81
10, 29521, Note_on_c, 9, 42, 0
10, 29521, Note_on_c, 9, 35, 0
10, 29600, Note_on_c, 9, 42, 61
10, 29601, Note_on_c, 9, 42, 0
10, 29640, Note_on_c, 9, 37, 92
10, 29640, Note_on_c, 9, 42, 73
10, 29641, Note_on_c, 9, 42, 0
10, 29641, Note_on_c, 9, 37, 0
10, 29720, Note_on_c, 9, 35, 73
10, 29720, Note_on_c, 9, 42, 61
10, 29721, Note_on_c, 9, 42, 0
10, 29721, Note_on_c, 9, 35, 0
10, 29760, Note_on_c, 9, 35, 92
10, 29760, Note_on_c, 9, 42, 81
10, 29761, Note_on_c, 9, 42, 0
10, 29761, Note_on_c, 9, 35, 0
10, 29840, Note_on_c, 9, 42, 61
10, 29841, Note_on_c, 9, 42, 0
10, 29880, Note_on_c, 9, 37, 92
10, 29880, Note_on_c, 9, 42, 73
10, 29881, Note_on_c, 9, 42, 0
10, 29881, Note_on_c, 9, 37, 0
10, 29960, Note_on_c, 9, 35, 73
10, 29960, Note_on_c, 9, 42, 61
10, 29961, Note_on_c, 9, 42, 0
10, 29961, Note_on_c, 9, 35, 0
10, 30000, Note_on_c, 9, 35, 92
10, 30000, Note_on_c, 9, 42, 81
10, 30001, Note_on_c, 9, 42, 0
10, 30001, Note_on_c, 9, 35, 0
10, 30080, Note_on_c, 9, 42, 61
10, 30081, Note_on_c, 9, 42, 0
10, 30120, Note_on_c, 9, 37, 92
10, 30120, Note_on_c, 9, 42, 73
10, 30121, Note_on_c, 9, 42, 0
10, 30121, Note_on_c, 9, 37, 0
10, 30200, Note_on_c, 9, 35, 73
10, 30200, Note_on_c, 9, 42, 61
10, 30201, Note_on_c, 9, 42, 0
10, 30201, Note_on_c, 9, 35, 0
10, 30240, Note_on_c, 9, 42, 81
10, 30240, Note_on_c, 9, 35, 92
10, 30241, Note_on_c, 9, 35, 0
10, 30241, Note_on_c, 9, 42, 0
10, 30320, Note_on_c, 9, 42, 61
10, 30321, Note_on_c, 9, 42, 0
10, 30360, Note_on_c, 9, 37, 92
10, 30360, Note_on_c, 9, 42, 73
10, 30361, Note_on_c, 9, 42, 0
10, 30361, Note_on_c, 9, 37, 0
10, 30440, Note_on_c, 9, 35, 73
10, 30440, Note_on_c, 9, 42, 61
10, 30441, Note_on_c, 9, 42, 0
10, 30441, Note_on_c, 9, 35, 0
10, 30480, Note_on_c, 9, 42, 81
10, 30480, Note_on_c, 9, 35, 92
10, 30481, Note_on_c, 9, 35, 0
10, 30481, Note_on_c, 9, 42, 0
10, 30560, Note_on_c, 9, 42, 61
10, 30561, Note_on_c, 9, 42, 0
10, 30600, Note_on_c, 9, 37, 92
10, 30600, Note_on_c, 9, 42, 73
10, 30601, Note_on_c, 9, 42, 0
10, 30601, Note_on_c, 9, 37, 0
10, 30680, Note_on_c, 9, 42, 61
10, 30680, Note_on_c, 9, 35, 73
10, 30681, Note_on_c, 9, 35, 0
10, 30681, Note_on_c, 9, 42, 0
10, 30720, Note_on_c, 9, 35, 92
10, 30720, Note_on_c, 9, 42, 81
10, 30721, Note_on_c, 9, 42, 0
10, 30721, Note_on_c, 9, 35, 0
10, 30800, Note_on_c, 9, 42, 61
10, 30801, Note_on_c, 9, 42, 0
10, 30840, Note_on_c, 9, 42, 73
10, 30840, Note_on_c, 9, 37, 92
10, 30841, Note_on_c, 9, 37, 0
10, 30841, Note_on_c, 9, 42, 0
10, 30880, Note_on_c, 9, 42, 39
10, 30881, Note_on_c, 9, 42, 0
10, 30920, Note_on_c, 9, 35, 73
10, 30920, Note_on_c, 9, 42, 61
10, 30921, Note_on_c, 9, 42, 0
10, 30921, Note_on_c, 9, 35, 0
10, 30960, Note_on_c, 9, 42, 81
10, 30960, Note_on_c, 9, 35, 92
10, 30961, Note_on_c, 9, 35, 0
10, 30961, Note_on_c, 9, 42, 0
10, 31040, Note_on_c, 9, 35, 73
10, 31040, Note_on_c, 9, 42, 61
10, 31041, Note_on_c, 9, 42, 0
10, 31041, Note_on_c, 9, 35, 0
10, 31080, Note_on_c, 9, 37, 92
10, 31080, Note_on_c, 9, 42, 73
10, 31081, Note_on_c, 9, 42, 0
10, 31081, Note_on_c, 9, 37, 0
10, 31160, Note_on_c, 9, 35, 73
10, 31160, Note_on_c, 9, 46, 62
10, 31161, Note_on_c, 9, 46, 0
10, 31161, Note_on_c, 9, 35, 0
10, 31200, Note_on_c, 9, 35, 92
10, 31200, Note_on_c, 9, 42, 81
10, 31201, Note_on_c, 9, 42, 0
10, 31201, Note_on_c, 9, 35, 0
10, 31280, Note_on_c, 9, 42, 61
10, 31281, Note_on_c, 9, 42, 0
10, 31320, Note_on_c, 9, 37, 92
10, 31320, Note_on_c, 9, 42, 73
10, 31321, Note_on_c, 9, 42, 0
10, 31321, Note_on_c, 9, 37, 0
10, 31400, Note_on_c, 9, 35, 73
10, 31400, Note_on_c, 9, 42, 61
10, 31401, Note_on_c, 9, 42, 0
10, 31401, Note_on_c, 9, 35, 0
10, 31440, Note_on_c, 9, 35, 92
10, 31440, Note_on_c, 9, 42, 81
10, 31441, Note_on_c, 9, 42, 0
10, 31441, Note_on_c, 9, 35, 0
10, 31520, Note_on_c, 9, 42, 61
10, 31521, Note_on_c, 9, 42, 0
10, 31560, Note_on_c, 9, 37, 92
10, 31560, Note_on_c, 9, 42, 73
10, 31561, Note_on_c, 9, 42, 0
10, 31561, Note_on_c, 9, 37, 0
10, 31640, Note_on_c, 9, 35, 73
10, 31640, Note_on_c, 9, 42, 61
10, 31641, Note_on_c, 9, 42, 0
10, 31641, Note_on_c, 9, 35, 0
10, 31680, Note_on_c, 9, 35, 92
10, 31680, Note_on_c, 9, 42, 81
10, 31681, Note_on_c, 9, 42, 0
10, 31681, Note_on_c, 9, 35, 0
10, 31760, Note_on_c, 9, 42, 61
10, 31761, Note_on_c, 9, 42, 0
10, 31800, Note_on_c, 9, 42, 73
10, 31800, Note_on_c, 9, 37, 92
10, 31801, Note_on_c, 9, 37, 0
10, 31801, Note_on_c, 9, 42, 0
10, 31880, Note_on_c, 9, 42, 61
10, 31880, Note_on_c, 9, 35, 73
10, 31881, Note_on_c, 9, 35, 0
10, 31881, Note_on_c, 9, 42, 0
10, 31920, Note_on_c, 9, 35, 92
10, 31920, Note_on_c, 9, 42, 81
10, 31921, Note_on_c, 9, 42, 0
10, 31921, Note_on_c, 9, 35, 0
10, 32000, Note_on_c, 9, 42, 61
10, 32000, Note_on_c, 9, 35, 73
10, 32001, Note_on_c, 9, 35, 0
10, 32001, Note_on_c, 9, 42, 0
10, 32040, Note_on_c, 9, 42, 73
10, 32040, Note_on_c, 9, 37, 92
10, 32041, Note_on_c, 9, 37, 0
10, 32041, Note_on_c, 9, 42, 0
10, 32080, Note_on_c, 9, 42, 52
10, 32081, Note_on_c, 9, 42, 0
10, 32120, Note_on_c, 9, 42, 61
10, 32120, Note_on_c, 9, 35, 73
10, 32121, Note_on_c, 9, 35, 0
10, 32121, Note_on_c, 9, 42, 0
10, 32160, Note_on_c, 9, 35, 92
10, 32160, Note_on_c, 9, 42, 81
10, 32161, Note_on_c, 9, 42, 0
10, 32161, Note_on_c, 9, 35, 0
10, 32240, Note_on_c, 9, 42, 61
10, 32241, Note_on_c, 9, 42, 0
10, 32280, Note_on_c, 9, 42, 73
10, 32280, Note_on_c, 9, 37, 92
10, 32281, Note_on_c, 9, 37, 0
10, 32281, Note_on_c, 9, 42, 0
10, 32360, Note_on_c, 9, 42, 61
10, 32360, Note_on_c, 9, 35, 73
10, 32361, Note_on_c, 9, 35, 0
10, 32361, Note_on_c, 9, 42, 0
10, 32400, Note_on_c, 9, 35, 92
10, 32400, Note_on_c, 9, 42, 81
10, 32401, Note_on_c, 9, 42, 0
10, 32401, Note_on_c, 9, 35, 0
10, 32480, Note_on_c, 9, 42, 61
10, 32481, Note_on_c, 9, 42, 0
10, 32520, Note_on_c, 9, 42, 73
10, 32520, Note_on_c, 9, 37, 92
10, 32521, Note_on_c, 9, 37, 0
10, 32521, Note_on_c, 9, 42, 0
10, 32600, Note_on_c, 9, 42, 61
10, 32600, Note_on_c, 9, 35, 73
10, 32601, Note_on_c, 9, 35, 0
10, 32601, Note_on_c, 9, 42, 0
10, 32640, Note_on_c, 9, 35, 92
10, 32640, Note_on_c, 9, 42, 81
10, 32641, Note_on_c, 9, 42, 0
10, 32641, Note_on_c, 9, 35, 0
10, 32720, Note_on_c, 9, 42, 61
10, 32721, Note_on_c, 9, 42, 0
10, 32760, Note_on_c, 9, 42, 73
10, 32760, Note_on_c, 9, 37, 92
10, 32761, Note_on_c, 9, 37, 0
10, 32761, Note_on_c, 9, 42, 0
10, 32840, Note_on_c, 9, 46, 44
10, 32840, Note_on_c, 9, 35, 73
10, 32841, Note_on_c, 9, 35, 0
10, 32841, Note_on_c, 9, 46, 0
10, 32880, Note_on_c, 9, 35, 92
10, 32880, Note_on_c, 9, 42, 81
10, 32881, Note_on_c, 9, 42, 0
10, 32881, Note_on_c, 9, 35, 0
10, 32960, Note_on_c, 9, 42, 61
10, 32960, Note_on_c, 9, 35, 73
10, 32961, Note_on_c, 9, 35, 0
10, 32961, Note_on_c, 9, 42, 0
10, 33000, Note_on_c, 9, 42, 73
10, 33000, Note_on_c, 9, 37, 92
10, 33001, Note_on_c, 9, 37, 0
10, 33001, Note_on_c, 9, 42, 0
10, 33080, Note_on_c, 9, 42, 61
10, 33080, Note_on_c, 9, 35, 73
10, 33081, Note_on_c, 9, 35, 0
10, 33081, Note_on_c, 9, 42, 0
10, 33120, Note_on_c, 9, 35, 92
10, 33121, Note_on_c, 9, 35, 0
10, 33121, End_track
11, 0, Start_track
11, 0, MIDI_port, 0
11, 0, Title_t, "Bass"
11, 0, Control_c, 10, 121, 0
11, 0, Control_c, 10, 123, 0
11, 0, Control_c, 10, 91, 0
11, 0, Control_c, 10, 93, 0
11, 172, Program_c, 10, 33
11, 173, Control_c, 10, 7, 95
11, 173, Control_c, 10, 10, 67
11, 960, Note_on_c, 10, 41, 86
11, 1016, Note_on_c, 10, 41, 0
11, 1020, Note_on_c, 10, 48, 80
11, 1133, Note_on_c, 10, 48, 0
11, 1140, Note_on_c, 10, 48, 78
11, 1196, Note_on_c, 10, 48, 0
11, 1200, Note_on_c, 10, 41, 83
11, 1313, Note_on_c, 10, 41, 0
11, 1320, Note_on_c, 10, 48, 82
11, 1433, Note_on_c, 10, 48, 0
11, 1440, Note_on_c, 10, 46, 86
11, 1666, Note_on_c, 10, 46, 0
11, 1680, Note_on_c, 10, 34, 82
11, 1793, Note_on_c, 10, 34, 0
11, 1800, Note_on_c, 10, 46, 86
11, 1913, Note_on_c, 10, 46, 0
11, 1980, Note_on_c, 10, 46, 80
11, 2093, Note_on_c, 10, 46, 0
11, 2100, Note_on_c, 10, 50, 78
11, 2156, Note_on_c, 10, 50, 0
11, 2160, Note_on_c, 10, 48, 83
11, 2273, Note_on_c, 10, 48, 0
11, 2280, Note_on_c, 10, 46, 82
11, 2393, Note_on_c, 10, 46, 0
11, 2400, Note_on_c, 10, 41, 86
11, 2400, Note_on_c, 10, 56, 86
11, 2626, Note_on_c, 10, 56, 0
11, 2626, Note_on_c, 10, 41, 0
11, 2640, Note_on_c, 10, 46, 82
11, 2640, Note_on_c, 10, 56, 82
11, 2866, Note_on_c, 10, 56, 0
11, 2866, Note_on_c, 10, 46, 0
11, 2880, Note_on_c, 10, 39, 86
11, 2936, Note_on_c, 10, 39, 0
11, 2940, Note_on_c, 10, 46, 80
11, 3053, Note_on_c, 10, 46, 0
11, 3060, Note_on_c, 10, 46, 78
11, 3116, Note_on_c, 10, 46, 0
11, 3120, Note_on_c, 10, 39, 83
11, 3233, Note_on_c, 10, 39, 0
11, 3240, Note_on_c, 10, 46, 82
11, 3353, Note_on_c, 10, 46, 0
11, 3360, Note_on_c, 10, 36, 86
11, 3416, Note_on_c, 10, 36, 0
11, 3420, Note_on_c, 10, 43, 78
11, 3533, Note_on_c, 10, 43, 0
11, 3540, Note_on_c, 10, 43, 79
11, 3596, Note_on_c, 10, 43, 0
11, 3600, Note_on_c, 10, 36, 82
11, 3713, Note_on_c, 10, 36, 0
11, 3720, Note_on_c, 10, 43, 86
11, 3833, Note_on_c, 10, 43, 0
11, 3840, Note_on_c, 10, 39, 86
11, 3896, Note_on_c, 10, 39, 0
11, 3900, Note_on_c, 10, 46, 80
11, 4013, Note_on_c, 10, 46, 0
11, 4020, Note_on_c, 10, 46, 78
11, 4076, Note_on_c, 10, 46, 0
11, 4080, Note_on_c, 10, 39, 83
11, 4193, Note_on_c, 10, 39, 0
11, 4200, Note_on_c, 10, 46, 82
11, 4313, Note_on_c, 10, 46, 0
11, 4320, Note_on_c, 10, 36, 86
11, 4376, Note_on_c, 10, 36, 0
11, 4380, Note_on_c, 10, 43, 78
11, 4493, Note_on_c, 10, 43, 0
11, 4500, Note_on_c, 10, 43, 79
11, 4556, Note_on_c, 10, 43, 0
11, 4560, Note_on_c, 10, 36, 82
11, 4673, Note_on_c, 10, 36, 0
11, 4680, Note_on_c, 10, 43, 86
11, 4793, Note_on_c, 10, 43, 0
11, 4800, Note_on_c, 10, 41, 86
11, 4856, Note_on_c, 10, 41, 0
11, 4860, Note_on_c, 10, 48, 80
11, 4973, Note_on_c, 10, 48, 0
11, 4980, Note_on_c, 10, 48, 78
11, 5036, Note_on_c, 10, 48, 0
11, 5040, Note_on_c, 10, 41, 83
11, 5153, Note_on_c, 10, 41, 0
11, 5160, Note_on_c, 10, 48, 82
11, 5273, Note_on_c, 10, 48, 0
11, 5280, Note_on_c, 10, 46, 86
11, 5506, Note_on_c, 10, 46, 0
11, 5520, Note_on_c, 10, 34, 82
11, 5633, Note_on_c, 10, 34, 0
11, 5640, Note_on_c, 10, 46, 86
11, 5753, Note_on_c, 10, 46, 0
11, 5820, Note_on_c, 10, 46, 80
11, 5933, Note_on_c, 10, 46, 0
11, 5940, Note_on_c, 10, 50, 78
11, 5996, Note_on_c, 10, 50, 0
11, 6000, Note_on_c, 10, 48, 83
11, 6113, Note_on_c, 10, 48, 0
11, 6120, Note_on_c, 10, 46, 82
11, 6233, Note_on_c, 10, 46, 0
11, 6240, Note_on_c, 10, 41, 86
11, 6240, Note_on_c, 10, 56, 86
11, 6466, Note_on_c, 10, 56, 0
11, 6466, Note_on_c, 10, 41, 0
11, 6480, Note_on_c, 10, 46, 82
11, 6480, Note_on_c, 10, 56, 82
11, 6706, Note_on_c, 10, 56, 0
11, 6706, Note_on_c, 10, 46, 0
11, 6720, Note_on_c, 10, 39, 86
11, 6776, Note_on_c, 10, 39, 0
11, 6780, Note_on_c, 10, 46, 80
11, 6893, Note_on_c, 10, 46, 0
11, 6900, Note_on_c, 10, 46, 78
11, 6956, Note_on_c, 10, 46, 0
11, 6960, Note_on_c, 10, 39, 83
11, 7073, Note_on_c, 10, 39, 0
11, 7080, Note_on_c, 10, 46, 82
11, 7193, Note_on_c, 10, 46, 0
11, 7200, Note_on_c, 10, 36, 86
11, 7256, Note_on_c, 10, 36, 0
11, 7260, Note_on_c, 10, 43, 78
11, 7373, Note_on_c, 10, 43, 0
11, 7380, Note_on_c, 10, 43, 79
11, 7436, Note_on_c, 10, 43, 0
11, 7440, Note_on_c, 10, 36, 82
11, 7553, Note_on_c, 10, 36, 0
11, 7560, Note_on_c, 10, 43, 86
11, 7673, Note_on_c, 10, 43, 0
11, 7680, Note_on_c, 10, 39, 86
11, 7736, Note_on_c, 10, 39, 0
11, 7740, Note_on_c, 10, 46, 80
11, 7853, Note_on_c, 10, 46, 0
11, 7860, Note_on_c, 10, 46, 78
11, 7916, Note_on_c, 10, 46, 0
11, 7920, Note_on_c, 10, 39, 83
11, 8033, Note_on_c, 10, 39, 0
11, 8040, Note_on_c, 10, 46, 82
11, 8153, Note_on_c, 10, 46, 0
11, 8160, Note_on_c, 10, 36, 86
11, 8216, Note_on_c, 10, 36, 0
11, 8220, Note_on_c, 10, 43, 78
11, 8333, Note_on_c, 10, 43, 0
11, 8340, Note_on_c, 10, 43, 79
11, 8396, Note_on_c, 10, 43, 0
11, 8400, Note_on_c, 10, 36, 82
11, 8513, Note_on_c, 10, 36, 0
11, 8520, Note_on_c, 10, 43, 86
11, 8633, Note_on_c, 10, 43, 0
11, 8640, Note_on_c, 10, 41, 86
11, 8696, Note_on_c, 10, 41, 0
11, 8700, Note_on_c, 10, 48, 80
11, 8813, Note_on_c, 10, 48, 0
11, 8820, Note_on_c, 10, 48, 78
11, 8876, Note_on_c, 10, 48, 0
11, 8880, Note_on_c, 10, 41, 83
11, 8993, Note_on_c, 10, 41, 0
11, 9000, Note_on_c, 10, 48, 82
11, 9113, Note_on_c, 10, 48, 0
11, 9120, Note_on_c, 10, 46, 86
11, 9346, Note_on_c, 10, 46, 0
11, 9360, Note_on_c, 10, 34, 82
11, 9473, Note_on_c, 10, 34, 0
11, 9480, Note_on_c, 10, 46, 86
11, 9593, Note_on_c, 10, 46, 0
11, 9600, Note_on_c, 10, 39, 86
11, 9656, Note_on_c, 10, 39, 0
11, 9660, Note_on_c, 10, 46, 80
11, 9773, Note_on_c, 10, 46, 0
11, 9780, Note_on_c, 10, 46, 78
11, 9836, Note_on_c, 10, 46, 0
11, 9840, Note_on_c, 10, 50, 83
11, 9953, Note_on_c, 10, 50, 0
11, 9960, Note_on_c, 10, 48, 82
11, 10073, Note_on_c, 10, 48, 0
11, 10080, Note_on_c, 10, 46, 86
11, 10080, Note_on_c, 10, 56, 86
11, 10306, Note_on_c, 10, 56, 0
11, 10306, Note_on_c, 10, 46, 0
11, 10320, Note_on_c, 10, 51, 82
11, 10320, Note_on_c, 10, 55, 82
11, 10546, Note_on_c, 10, 55, 0
11, 10546, Note_on_c, 10, 51, 0
11, 10560, Note_on_c, 10, 44, 86
11, 10786, Note_on_c, 10, 44, 0
11, 10800, Note_on_c, 10, 51, 83
11, 10913, Note_on_c, 10, 51, 0
11, 10920, Note_on_c, 10, 39, 82
11, 11033, Note_on_c, 10, 39, 0
11, 11040, Note_on_c, 10, 44, 86
11, 11266, Note_on_c, 10, 44, 0
11, 11280, Note_on_c, 10, 51, 83
11, 11393, Note_on_c, 10, 51, 0
11, 11400, Note_on_c, 10, 44, 87
11, 11513, Note_on_c, 10, 44, 0
11, 11520, Note_on_c, 10, 39, 87
11, 11633, Note_on_c, 10, 39, 0
11, 11760, Note_on_c, 10, 46, 85
11, 11873, Note_on_c, 10, 46, 0
11, 11880, Note_on_c, 10, 34, 83
11, 11993, Note_on_c, 10, 34, 0
11, 12000, Note_on_c, 10, 39, 87
11, 12226, Note_on_c, 10, 39, 0
11, 12240, Note_on_c, 10, 51, 83
11, 12296, Note_on_c, 10, 51, 0
11, 12300, Note_on_c, 10, 39, 80
11, 12356, Note_on_c, 10, 39, 0
11, 12360, Note_on_c, 10, 41, 87
11, 12416, Note_on_c, 10, 41, 0
11, 12420, Note_on_c, 10, 43, 79
11, 12476, Note_on_c, 10, 43, 0
11, 12480, Note_on_c, 10, 44, 87
11, 12706, Note_on_c, 10, 44, 0
11, 12720, Note_on_c, 10, 51, 85
11, 12833, Note_on_c, 10, 51, 0
11, 12840, Note_on_c, 10, 39, 83
11, 12953, Note_on_c, 10, 39, 0
11, 12960, Note_on_c, 10, 41, 87
11, 13186, Note_on_c, 10, 41, 0
11, 13200, Note_on_c, 10, 53, 83
11, 13313, Note_on_c, 10, 53, 0
11, 13320, Note_on_c, 10, 41, 87
11, 13433, Note_on_c, 10, 41, 0
11, 13440, Note_on_c, 10, 46, 87
11, 13892, Note_on_c, 10, 46, 0
11, 13920, Note_on_c, 10, 34, 87
11, 14146, Note_on_c, 10, 34, 0
11, 14160, Note_on_c, 10, 46, 83
11, 14273, Note_on_c, 10, 46, 0
11, 14280, Note_on_c, 10, 34, 87
11, 14393, Note_on_c, 10, 34, 0
11, 14400, Note_on_c, 10, 39, 87
11, 14456, Note_on_c, 10, 39, 0
11, 14460, Note_on_c, 10, 46, 81
11, 14573, Note_on_c, 10, 46, 0
11, 14580, Note_on_c, 10, 46, 79
11, 14636, Note_on_c, 10, 46, 0
11, 14640, Note_on_c, 10, 39, 85
11, 14753, Note_on_c, 10, 39, 0
11, 14760, Note_on_c, 10, 46, 83
11, 14873, Note_on_c, 10, 46, 0
11, 14880, Note_on_c, 10, 36, 87
11, 14936, Note_on_c, 10, 36, 0
11, 14940, Note_on_c, 10, 43, 79
11, 15053, Note_on_c, 10, 43, 0
11, 15060, Note_on_c, 10, 43, 80
11, 15116, Note_on_c, 10, 43, 0
11, 15120, Note_on_c, 10, 36, 83
11, 15233, Note_on_c, 10, 36, 0
11, 15240, Note_on_c, 10, 43, 87
11, 15353, Note_on_c, 10, 43, 0
11, 15360, Note_on_c, 10, 39, 87
11, 15416, Note_on_c, 10, 39, 0
11, 15420, Note_on_c, 10, 46, 81
11, 15533, Note_on_c, 10, 46, 0
11, 15540, Note_on_c, 10, 46, 79
11, 15596, Note_on_c, 10, 46, 0
11, 15600, Note_on_c, 10, 39, 85
11, 15713, Note_on_c, 10, 39, 0
11, 15720, Note_on_c, 10, 46, 83
11, 15833, Note_on_c, 10, 46, 0
11, 15840, Note_on_c, 10, 36, 87
11, 15896, Note_on_c, 10, 36, 0
11, 15900, Note_on_c, 10, 43, 79
11, 16013, Note_on_c, 10, 43, 0
11, 16020, Note_on_c, 10, 43, 80
11, 16076, Note_on_c, 10, 43, 0
11, 16080, Note_on_c, 10, 36, 83
11, 16193, Note_on_c, 10, 36, 0
11, 16200, Note_on_c, 10, 43, 87
11, 16313, Note_on_c, 10, 43, 0
11, 16320, Note_on_c, 10, 41, 87
11, 16376, Note_on_c, 10, 41, 0
11, 16380, Note_on_c, 10, 48, 81
11, 16493, Note_on_c, 10, 48, 0
11, 16500, Note_on_c, 10, 48, 79
11, 16556, Note_on_c, 10, 48, 0
11, 16560, Note_on_c, 10, 41, 85
11, 16673, Note_on_c, 10, 41, 0
11, 16680, Note_on_c, 10, 48, 83
11, 16793, Note_on_c, 10, 48, 0
11, 16800, Note_on_c, 10, 46, 87
11, 17026, Note_on_c, 10, 46, 0
11, 17040, Note_on_c, 10, 34, 83
11, 17153, Note_on_c, 10, 34, 0
11, 17160, Note_on_c, 10, 46, 87
11, 17273, Note_on_c, 10, 46, 0
11, 17340, Note_on_c, 10, 46, 81
11, 17453, Note_on_c, 10, 46, 0
11, 17460, Note_on_c, 10, 50, 79
11, 17516, Note_on_c, 10, 50, 0
11, 17520, Note_on_c, 10, 48, 85
11, 17633, Note_on_c, 10, 48, 0
11, 17640, Note_on_c, 10, 46, 83
11, 17753, Note_on_c, 10, 46, 0
11, 17760, Note_on_c, 10, 41, 87
11, 17760, Note_on_c, 10, 56, 87
11, 17986, Note_on_c, 10, 56, 0
11, 17986, Note_on_c, 10, 41, 0
11, 18000, Note_on_c, 10, 46, 83
11, 18000, Note_on_c, 10, 56, 83
11, 18226, Note_on_c, 10, 56, 0
11, 18226, Note_on_c, 10, 46, 0
11, 18240, Note_on_c, 10, 39, 87
11, 18296, Note_on_c, 10, 39, 0
11, 18300, Note_on_c, 10, 46, 81
11, 18413, Note_on_c, 10, 46, 0
11, 18420, Note_on_c, 10, 46, 79
11, 18476, Note_on_c, 10, 46, 0
11, 18480, Note_on_c, 10, 39, 85
11, 18593, Note_on_c, 10, 39, 0
11, 18600, Note_on_c, 10, 46, 83
11, 18713, Note_on_c, 10, 46, 0
11, 18720, Note_on_c, 10, 36, 87
11, 18776, Note_on_c, 10, 36, 0
11, 18780, Note_on_c, 10, 43, 79
11, 18893, Note_on_c, 10, 43, 0
11, 18900, Note_on_c, 10, 43, 80
11, 18956, Note_on_c, 10, 43, 0
11, 18960, Note_on_c, 10, 36, 83
11, 19073, Note_on_c, 10, 36, 0
11, 19080, Note_on_c, 10, 43, 87
11, 19193, Note_on_c, 10, 43, 0
11, 19200, Note_on_c, 10, 39, 87
11, 19256, Note_on_c, 10, 39, 0
11, 19260, Note_on_c, 10, 46, 81
11, 19373, Note_on_c, 10, 46, 0
11, 19380, Note_on_c, 10, 46, 79
11, 19436, Note_on_c, 10, 46, 0
11, 19440, Note_on_c, 10, 39, 85
11, 19553, Note_on_c, 10, 39, 0
11, 19560, Note_on_c, 10, 46, 83
11, 19673, Note_on_c, 10, 46, 0
11, 19680, Note_on_c, 10, 36, 87
11, 19736, Note_on_c, 10, 36, 0
11, 19740, Note_on_c, 10, 43, 79
11, 19853, Note_on_c, 10, 43, 0
11, 19860, Note_on_c, 10, 43, 80
11, 19916, Note_on_c, 10, 43, 0
11, 19920, Note_on_c, 10, 36, 83
11, 20033, Note_on_c, 10, 36, 0
11, 20040, Note_on_c, 10, 43, 87
11, 20153, Note_on_c, 10, 43, 0
11, 20160, Note_on_c, 10, 41, 87
11, 20216, Note_on_c, 10, 41, 0
11, 20220, Note_on_c, 10, 48, 81
11, 20333, Note_on_c, 10, 48, 0
11, 20340, Note_on_c, 10, 48, 79
11, 20396, Note_on_c, 10, 48, 0
11, 20400, Note_on_c, 10, 41, 85
11, 20513, Note_on_c, 10, 41, 0
11, 20520, Note_on_c, 10, 48, 83
11, 20633, Note_on_c, 10, 48, 0
11, 20640, Note_on_c, 10, 46, 87
11, 20866, Note_on_c, 10, 46, 0
11, 20880, Note_on_c, 10, 34, 83
11, 20993, Note_on_c, 10, 34, 0
11, 21000, Note_on_c, 10, 46, 87
11, 21113, Note_on_c, 10, 46, 0
11, 21180, Note_on_c, 10, 46, 81
11, 21293, Note_on_c, 10, 46, 0
11, 21300, Note_on_c, 10, 50, 79
11, 21356, Note_on_c, 10, 50, 0
11, 21360, Note_on_c, 10, 48, 85
11, 21473, Note_on_c, 10, 48, 0
11, 21480, Note_on_c, 10, 46, 83
11, 21593, Note_on_c, 10, 46, 0
11, 21600, Note_on_c, 10, 41, 87
11, 21600, Note_on_c, 10, 56, 87
11, 21826, Note_on_c, 10, 56, 0
11, 21826, Note_on_c, 10, 41, 0
11, 21840, Note_on_c, 10, 46, 83
11, 21840, Note_on_c, 10, 56, 83
11, 22066, Note_on_c, 10, 56, 0
11, 22066, Note_on_c, 10, 46, 0
11, 22080, Note_on_c, 10, 39, 87
11, 22136, Note_on_c, 10, 39, 0
11, 22140, Note_on_c, 10, 46, 81
11, 22253, Note_on_c, 10, 46, 0
11, 22260, Note_on_c, 10, 46, 79
11, 22316, Note_on_c, 10, 46, 0
11, 22320, Note_on_c, 10, 39, 85
11, 22433, Note_on_c, 10, 39, 0
11, 22440, Note_on_c, 10, 46, 83
11, 22553, Note_on_c, 10, 46, 0
11, 22560, Note_on_c, 10, 36, 88
11, 22616, Note_on_c, 10, 36, 0
11, 22620, Note_on_c, 10, 43, 79
11, 22733, Note_on_c, 10, 43, 0
11, 22740, Note_on_c, 10, 43, 81
11, 22796, Note_on_c, 10, 43, 0
11, 22800, Note_on_c, 10, 36, 85
11, 22913, Note_on_c, 10, 36, 0
11, 22920, Note_on_c, 10, 43, 88
11, 23033, Note_on_c, 10, 43, 0
11, 23040, Note_on_c, 10, 39, 88
11, 23096, Note_on_c, 10, 39, 0
11, 23100, Note_on_c, 10, 46, 81
11, 23213, Note_on_c, 10, 46, 0
11, 23220, Note_on_c, 10, 46, 80
11, 23276, Note_on_c, 10, 46, 0
11, 23280, Note_on_c, 10, 39, 86
11, 23393, Note_on_c, 10, 39, 0
11, 23400, Note_on_c, 10, 46, 85
11, 23513, Note_on_c, 10, 46, 0
11, 23520, Note_on_c, 10, 36, 88
11, 23576, Note_on_c, 10, 36, 0
11, 23580, Note_on_c, 10, 43, 79
11, 23693, Note_on_c, 10, 43, 0
11, 23700, Note_on_c, 10, 43, 81
11, 23756, Note_on_c, 10, 43, 0
11, 23760, Note_on_c, 10, 36, 85
11, 23873, Note_on_c, 10, 36, 0
11, 23880, Note_on_c, 10, 43, 88
11, 23993, Note_on_c, 10, 43, 0
11, 24000, Note_on_c, 10, 41, 88
11, 24056, Note_on_c, 10, 41, 0
11, 24060, Note_on_c, 10, 48, 81
11, 24173, Note_on_c, 10, 48, 0
11, 24180, Note_on_c, 10, 48, 80
11, 24236, Note_on_c, 10, 48, 0
11, 24240, Note_on_c, 10, 41, 86
11, 24353, Note_on_c, 10, 41, 0
11, 24360, Note_on_c, 10, 48, 85
11, 24473, Note_on_c, 10, 48, 0
11, 24480, Note_on_c, 10, 46, 88
11, 24706, Note_on_c, 10, 46, 0
11, 24720, Note_on_c, 10, 34, 85
11, 24833, Note_on_c, 10, 34, 0
11, 24840, Note_on_c, 10, 46, 88
11, 24953, Note_on_c, 10, 46, 0
11, 24960, Note_on_c, 10, 39, 88
11, 25016, Note_on_c, 10, 39, 0
11, 25020, Note_on_c, 10, 46, 81
11, 25133, Note_on_c, 10, 46, 0
11, 25140, Note_on_c, 10, 46, 80
11, 25196, Note_on_c, 10, 46, 0
11, 25200, Note_on_c, 10, 50, 86
11, 25313, Note_on_c, 10, 50, 0
11, 25320, Note_on_c, 10, 48, 85
11, 25433, Note_on_c, 10, 48, 0
11, 25440, Note_on_c, 10, 46, 88
11, 25440, Note_on_c, 10, 56, 88
11, 25666, Note_on_c, 10, 56, 0
11, 25666, Note_on_c, 10, 46, 0
11, 25680, Note_on_c, 10, 51, 85
11, 25680, Note_on_c, 10, 55, 85
11, 25906, Note_on_c, 10, 55, 0
11, 25906, Note_on_c, 10, 51, 0
11, 25920, Note_on_c, 10, 44, 88
11, 26146, Note_on_c, 10, 44, 0
11, 26160, Note_on_c, 10, 51, 86
11, 26273, Note_on_c, 10, 51, 0
11, 26280, Note_on_c, 10, 39, 85
11, 26393, Note_on_c, 10, 39, 0
11, 26400, Note_on_c, 10, 44, 88
11, 26626, Note_on_c, 10, 44, 0
11, 26640, Note_on_c, 10, 51, 85
11, 26753, Note_on_c, 10, 51, 0
11, 26760, Note_on_c, 10, 44, 88
11, 26873, Note_on_c, 10, 44, 0
11, 26880, Note_on_c, 10, 39, 88
11, 26993, Note_on_c, 10, 39, 0
11, 27120, Note_on_c, 10, 46, 86
11, 27233, Note_on_c, 10, 46, 0
11, 27240, Note_on_c, 10, 34, 85
11, 27353, Note_on_c, 10, 34, 0
11, 27360, Note_on_c, 10, 39, 88
11, 27586, Note_on_c, 10, 39, 0
11, 27600, Note_on_c, 10, 51, 85
11, 27656, Note_on_c, 10, 51, 0
11, 27660, Note_on_c, 10, 39, 81
11, 27716, Note_on_c, 10, 39, 0
11, 27720, Note_on_c, 10, 41, 88
11, 27776, Note_on_c, 10, 41, 0
11, 27780, Note_on_c, 10, 43, 80
11, 27836, Note_on_c, 10, 43, 0
11, 27840, Note_on_c, 10, 44, 88
11, 28066, Note_on_c, 10, 44, 0
11, 28080, Note_on_c, 10, 51, 86
11, 28193, Note_on_c, 10, 51, 0
11, 28200, Note_on_c, 10, 39, 85
11, 28313, Note_on_c, 10, 39, 0
11, 28320, Note_on_c, 10, 41, 88
11, 28546, Note_on_c, 10, 41, 0
11, 28560, Note_on_c, 10, 53, 85
11, 28673, Note_on_c, 10, 53, 0
11, 28680, Note_on_c, 10, 41, 88
11, 28793, Note_on_c, 10, 41, 0
11, 28800, Note_on_c, 10, 46, 88
11, 29252, Note_on_c, 10, 46, 0
11, 29280, Note_on_c, 10, 34, 88
11, 29506, Note_on_c, 10, 34, 0
11, 29520, Note_on_c, 10, 46, 85
11, 29633, Note_on_c, 10, 46, 0
11, 29640, Note_on_c, 10, 34, 88
11, 29753, Note_on_c, 10, 34, 0
11, 29760, Note_on_c, 10, 39, 88
11, 29816, Note_on_c, 10, 39, 0
11, 29820, Note_on_c, 10, 46, 81
11, 29933, Note_on_c, 10, 46, 0
11, 29940, Note_on_c, 10, 46, 80
11, 29996, Note_on_c, 10, 46, 0
11, 30000, Note_on_c, 10, 39, 86
11, 30113, Note_on_c, 10, 39, 0
11, 30120, Note_on_c, 10, 46, 85
11, 30233, Note_on_c, 10, 46, 0
11, 30240, Note_on_c, 10, 36, 88
11, 30296, Note_on_c, 10, 36, 0
11, 30300, Note_on_c, 10, 43, 79
11, 30413, Note_on_c, 10, 43, 0
11, 30420, Note_on_c, 10, 43, 81
11, 30476, Note_on_c, 10, 43, 0
11, 30480, Note_on_c, 10, 36, 85
11, 30593, Note_on_c, 10, 36, 0
11, 30600, Note_on_c, 10, 43, 88
11, 30713, Note_on_c, 10, 43, 0
11, 30720, Note_on_c, 10, 39, 88
11, 30776, Note_on_c, 10, 39, 0
11, 30780, Note_on_c, 10, 46, 81
11, 30893, Note_on_c, 10, 46, 0
11, 30900, Note_on_c, 10, 46, 80
11, 30956, Note_on_c, 10, 46, 0
11, 30960, Note_on_c, 10, 39, 86
11, 31073, Note_on_c, 10, 39, 0
11, 31080, Note_on_c, 10, 46, 85
11, 31193, Note_on_c, 10, 46, 0
11, 31200, Note_on_c, 10, 36, 88
11, 31256, Note_on_c, 10, 36, 0
11, 31260, Note_on_c, 10, 43, 79
11, 31373, Note_on_c, 10, 43, 0
11, 31380, Note_on_c, 10, 43, 81
11, 31436, Note_on_c, 10, 43, 0
11, 31440, Note_on_c, 10, 36, 85
11, 31553, Note_on_c, 10, 36, 0
11, 31560, Note_on_c, 10, 43, 88
11, 31673, Note_on_c, 10, 43, 0
11, 31680, Note_on_c, 10, 41, 88
11, 31736, Note_on_c, 10, 41, 0
11, 31740, Note_on_c, 10, 48, 81
11, 31853, Note_on_c, 10, 48, 0
11, 31860, Note_on_c, 10, 48, 80
11, 31916, Note_on_c, 10, 48, 0
11, 31920, Note_on_c, 10, 41, 86
11, 32033, Note_on_c, 10, 41, 0
11, 32040, Note_on_c, 10, 48, 85
11, 32153, Note_on_c, 10, 48, 0
11, 32160, Note_on_c, 10, 46, 88
11, 32386, Note_on_c, 10, 46, 0
11, 32400, Note_on_c, 10, 34, 85
11, 32513, Note_on_c, 10, 34, 0
11, 32520, Note_on_c, 10, 46, 88
11, 32633, Note_on_c, 10, 46, 0
11, 32700, Note_on_c, 10, 46, 81
11, 32813, Note_on_c, 10, 46, 0
11, 32820, Note_on_c, 10, 50, 80
11, 32876, Note_on_c, 10, 50, 0
11, 32880, Note_on_c, 10, 48, 86
11, 32993, Note_on_c, 10, 48, 0
11, 33000, Note_on_c, 10, 46, 85
11, 33113, Note_on_c, 10, 46, 0
11, 33120, Note_on_c, 10, 39, 88
11, 33572, Note_on_c, 10, 39, 0
11, 33572, End_track
12, 0, Start_track
12, 0, MIDI_port, 0
12, 0, Title_t, "Bass"
12, 0, Control_c, 11, 121, 0
12, 0, Control_c, 11, 123, 0
12, 0, Control_c, 11, 91, 30
12, 0, Control_c, 11, 93, 0
12, 177, Program_c, 11, 0
12, 178, Control_c, 11, 7, 95
12, 178, Control_c, 11, 10, 61
12, 1920, Note_on_c, 11, 39, 81
12, 2372, Note_on_c, 11, 39, 0
12, 5760, Note_on_c, 11, 39, 81
12, 6212, Note_on_c, 11, 39, 0
12, 17280, Note_on_c, 11, 39, 81
12, 17732, Note_on_c, 11, 39, 0
12, 21120, Note_on_c, 11, 39, 81
12, 21572, Note_on_c, 11, 39, 0
12, 32640, Note_on_c, 11, 39, 81
12, 33092, Note_on_c, 11, 39, 0
12, 33092, End_track
0, 0, End_of_file
