0, 0, Header, 1, 5, 960
1, 0, Start_track
1, 0, Control_c, 0, 101, 0
1, 0, Control_c, 0, 100, 0
1, 0, Control_c, 0, 6, 12
1, 0, Control_c, 0, 38, 0
1, 0, Control_c, 1, 101, 0
1, 0, Control_c, 1, 100, 0
1, 0, Control_c, 1, 6, 12
1, 0, Control_c, 1, 38, 0
1, 0, Control_c, 2, 101, 0
1, 0, Control_c, 2, 100, 0
1, 0, Control_c, 2, 6, 12
1, 0, Control_c, 2, 38, 0
1, 0, Control_c, 3, 101, 0
1, 0, Control_c, 3, 100, 0
1, 0, Control_c, 3, 6, 12
1, 0, Control_c, 3, 38, 0
1, 0, Control_c, 4, 101, 0
1, 0, Control_c, 4, 100, 0
1, 0, Control_c, 4, 6, 12
1, 0, Control_c, 4, 38, 0
1, 0, Control_c, 5, 101, 0
1, 0, Control_c, 5, 100, 0
1, 0, Control_c, 5, 6, 12
1, 0, Control_c, 5, 38, 0
1, 0, Control_c, 6, 101, 0
1, 0, Control_c, 6, 100, 0
1, 0, Control_c, 6, 6, 12
1, 0, Control_c, 6, 38, 0
1, 0, Control_c, 7, 101, 0
1, 0, Control_c, 7, 100, 0
1, 0, Control_c, 7, 6, 12
1, 0, Control_c, 7, 38, 0
1, 0, Control_c, 8, 101, 0
1, 0, Control_c, 8, 100, 0
1, 0, Control_c, 8, 6, 12
1, 0, Control_c, 8, 38, 0
1, 0, Control_c, 9, 101, 0
1, 0, Control_c, 9, 100, 0
1, 0, Control_c, 9, 6, 12
1, 0, Control_c, 9, 38, 0
1, 0, Control_c, 10, 101, 0
1, 0, Control_c, 10, 100, 0
1, 0, Control_c, 10, 6, 12
1, 0, Control_c, 10, 38, 0
1, 0, Control_c, 11, 101, 0
1, 0, Control_c, 11, 100, 0
1, 0, Control_c, 11, 6, 12
1, 0, Control_c, 11, 38, 0
1, 0, Control_c, 12, 101, 0
1, 0, Control_c, 12, 100, 0
1, 0, Control_c, 12, 6, 12
1, 0, Control_c, 12, 38, 0
1, 0, Control_c, 13, 101, 0
1, 0, Control_c, 13, 100, 0
1, 0, Control_c, 13, 6, 12
1, 0, Control_c, 13, 38, 0
1, 0, Control_c, 14, 101, 0
1, 0, Control_c, 14, 100, 0
1, 0, Control_c, 14, 6, 12
1, 0, Control_c, 14, 38, 0
1, 0, Control_c, 15, 101, 0
1, 0, Control_c, 15, 100, 0
1, 0, Control_c, 15, 6, 12
1, 0, Control_c, 15, 38, 0
1, 0, Time_signature, 4, 2, 24, 8
1, 0, Tempo, 461538
1, 69120, Tempo, 468750
1, 130560, Tempo, 461538
1, 253440, Tempo, 468750
1, 268800, Tempo, 454545
1, 334080, Time_signature, 3, 2, 24, 8
1, 336960, Time_signature, 4, 2, 24, 8
1, 367680, Tempo, 468750
1, 398400, Tempo, 461538
1, 475200, Tempo, 468750
1, 555840, Time_signature, 5, 2, 24, 8
1, 560640, Time_signature, 4, 2, 24, 8
1, 560640, Tempo, 444444
1, 622080, Time_signature, 2, 2, 24, 8
1, 624000, Time_signature, 4, 2, 24, 8
1, 627840, Time_signature, 3, 2, 24, 8
1, 630720, Time_signature, 4, 2, 24, 8
1, 630720, Tempo, 451127
1, 719040, Tempo, 444444
1, 722880, Tempo, 458015
1, 776640, Tempo, 444444
1, 784320, Time_signature, 7, 3, 12, 8
1, 787680, Time_signature, 9, 2, 24, 8
1, 796320, Time_signature, 7, 3, 12, 8
1, 799680, Time_signature, 4, 2, 24, 8
1, 830400, Time_signature, 5, 2, 24, 8
1, 835200, Time_signature, 4, 2, 24, 8
1, 835200, Tempo, 451127
1, 839040, Time_signature, 7, 3, 12, 8
1, 842400, Time_signature, 4, 2, 24, 8
1, 846240, Time_signature, 9, 3, 12, 8
1, 850560, Time_signature, 7, 3, 12, 8
1, 853920, Time_signature, 4, 2, 24, 8
1, 861600, Time_signature, 3, 2, 24, 8
1, 864480, Tempo, 454545
1, 893280, Time_signature, 2, 2, 24, 8
1, 895200, Time_signature, 4, 2, 24, 8
1, 956640, Time_signature, 3, 2, 24, 8
1, 985440, Time_signature, 2, 2, 24, 8
1, 987360, Time_signature, 4, 2, 24, 8
1, 1048800, Tempo, 468750
1, 1079520, Tempo, 461538
1, 1110240, Tempo, 451127
1, 1125600, Tempo, 461538
1, 1156320, Tempo, 468750
1, 1171680, Tempo, 461538
1, 1171680, End_track
2, 0, Start_track
2, 0, Pitch_bend_c, 0, 8192
2, 0, Control_c, 0, 7, 103
2, 0, Control_c, 0, 10, 63
2, 0, Control_c, 0, 93, 0
2, 0, Control_c, 0, 91, 0
2, 0, Control_c, 0, 95, 0
2, 0, Control_c, 0, 92, 0
2, 0, Control_c, 0, 11, 127
2, 0, Program_c, 0, 30
2, 0, Control_c, 1, 7, 103
2, 0, Control_c, 1, 10, 63
2, 0, Control_c, 1, 93, 0
2, 0, Control_c, 1, 91, 0
2, 0, Control_c, 1, 95, 0
2, 0, Control_c, 1, 92, 0
2, 0, Control_c, 1, 11, 127
2, 0, Program_c, 1, 30
2, 0, Control_c, 1, 11, 31
2, 0, Note_on_c, 1, 64, 63
2, 0, Control_c, 1, 11, 31
2, 0, Note_on_c, 1, 45, 95
2, 80, Control_c, 1, 11, 32
2, 80, Control_c, 1, 11, 32
2, 160, Control_c, 1, 11, 33
2, 160, Control_c, 1, 11, 33
2, 240, Control_c, 1, 11, 34
2, 240, Control_c, 1, 11, 34
2, 320, Control_c, 1, 11, 35
2, 320, Control_c, 1, 11, 35
2, 400, Control_c, 1, 11, 36
2, 400, Control_c, 1, 11, 36
2, 480, Control_c, 1, 11, 37
2, 480, Control_c, 1, 11, 37
2, 560, Control_c, 1, 11, 38
2, 560, Control_c, 1, 11, 38
2, 640, Control_c, 1, 11, 39
2, 640, Control_c, 1, 11, 39
2, 720, Control_c, 1, 11, 40
2, 720, Control_c, 1, 11, 40
2, 800, Control_c, 1, 11, 41
2, 800, Control_c, 1, 11, 41
2, 880, Control_c, 1, 11, 42
2, 880, Control_c, 1, 11, 42
2, 960, Control_c, 1, 11, 43
2, 960, Control_c, 1, 11, 43
2, 1040, Control_c, 1, 11, 44
2, 1040, Control_c, 1, 11, 44
2, 1120, Control_c, 1, 11, 45
2, 1120, Control_c, 1, 11, 45
2, 1200, Control_c, 1, 11, 46
2, 1200, Control_c, 1, 11, 46
2, 1280, Control_c, 1, 11, 47
2, 1280, Control_c, 1, 11, 47
2, 1360, Control_c, 1, 11, 48
2, 1360, Control_c, 1, 11, 48
2, 1440, Control_c, 1, 11, 49
2, 1440, Control_c, 1, 11, 49
2, 1520, Control_c, 1, 11, 50
2, 1520, Control_c, 1, 11, 50
2, 1600, Control_c, 1, 11, 51
2, 1600, Control_c, 1, 11, 51
2, 1680, Control_c, 1, 11, 52
2, 1680, Control_c, 1, 11, 52
2, 1760, Control_c, 1, 11, 53
2, 1760, Control_c, 1, 11, 53
2, 1840, Control_c, 1, 11, 54
2, 1840, Control_c, 1, 11, 54
2, 1920, Control_c, 1, 11, 55
2, 1920, Control_c, 1, 11, 55
2, 2000, Control_c, 1, 11, 56
2, 2000, Control_c, 1, 11, 56
2, 2080, Control_c, 1, 11, 57
2, 2080, Control_c, 1, 11, 57
2, 2160, Control_c, 1, 11, 58
2, 2160, Control_c, 1, 11, 58
2, 2240, Control_c, 1, 11, 59
2, 2240, Control_c, 1, 11, 59
2, 2320, Control_c, 1, 11, 60
2, 2320, Control_c, 1, 11, 60
2, 2400, Control_c, 1, 11, 61
2, 2400, Control_c, 1, 11, 61
2, 2480, Control_c, 1, 11, 62
2, 2480, Control_c, 1, 11, 62
2, 2560, Control_c, 1, 11, 63
2, 2560, Control_c, 1, 11, 63
2, 2640, Control_c, 1, 11, 64
2, 2640, Control_c, 1, 11, 64
2, 2720, Control_c, 1, 11, 65
2, 2720, Control_c, 1, 11, 65
2, 2800, Control_c, 1, 11, 66
2, 2800, Control_c, 1, 11, 66
2, 2880, Control_c, 1, 11, 67
2, 2880, Control_c, 1, 11, 67
2, 2960, Control_c, 1, 11, 68
2, 2960, Control_c, 1, 11, 68
2, 3040, Control_c, 1, 11, 69
2, 3040, Control_c, 1, 11, 69
2, 3120, Control_c, 1, 11, 70
2, 3120, Control_c, 1, 11, 70
2, 3200, Control_c, 1, 11, 71
2, 3200, Control_c, 1, 11, 71
2, 3280, Control_c, 1, 11, 72
2, 3280, Control_c, 1, 11, 72
2, 3360, Control_c, 1, 11, 73
2, 3360, Control_c, 1, 11, 73
2, 3440, Control_c, 1, 11, 74
2, 3440, Control_c, 1, 11, 74
2, 3520, Control_c, 1, 11, 75
2, 3520, Control_c, 1, 11, 75
2, 3600, Control_c, 1, 11, 76
2, 3600, Control_c, 1, 11, 76
2, 3680, Control_c, 1, 11, 77
2, 3680, Control_c, 1, 11, 77
2, 3760, Control_c, 1, 11, 78
2, 3760, Control_c, 1, 11, 78
2, 3840, Control_c, 1, 11, 79
2, 3840, Control_c, 1, 11, 79
2, 3920, Control_c, 1, 11, 80
2, 3920, Control_c, 1, 11, 80
2, 4000, Control_c, 1, 11, 81
2, 4000, Control_c, 1, 11, 81
2, 4080, Control_c, 1, 11, 82
2, 4080, Control_c, 1, 11, 82
2, 4160, Control_c, 1, 11, 83
2, 4160, Control_c, 1, 11, 83
2, 4240, Control_c, 1, 11, 84
2, 4240, Control_c, 1, 11, 84
2, 4320, Control_c, 1, 11, 85
2, 4320, Control_c, 1, 11, 85
2, 4400, Control_c, 1, 11, 86
2, 4400, Control_c, 1, 11, 86
2, 4480, Control_c, 1, 11, 87
2, 4480, Control_c, 1, 11, 87
2, 4560, Control_c, 1, 11, 88
2, 4560, Control_c, 1, 11, 88
2, 4640, Control_c, 1, 11, 89
2, 4640, Control_c, 1, 11, 89
2, 4720, Control_c, 1, 11, 90
2, 4720, Control_c, 1, 11, 90
2, 4800, Control_c, 1, 11, 91
2, 4800, Control_c, 1, 11, 91
2, 4880, Control_c, 1, 11, 92
2, 4880, Control_c, 1, 11, 92
2, 4960, Control_c, 1, 11, 93
2, 4960, Control_c, 1, 11, 93
2, 5040, Control_c, 1, 11, 94
2, 5040, Control_c, 1, 11, 94
2, 5120, Control_c, 1, 11, 95
2, 5120, Control_c, 1, 11, 95
2, 5200, Control_c, 1, 11, 96
2, 5200, Control_c, 1, 11, 96
2, 5280, Control_c, 1, 11, 97
2, 5280, Control_c, 1, 11, 97
2, 5360, Control_c, 1, 11, 98
2, 5360, Control_c, 1, 11, 98
2, 5440, Control_c, 1, 11, 99
2, 5440, Control_c, 1, 11, 99
2, 5520, Control_c, 1, 11, 100
2, 5520, Control_c, 1, 11, 100
2, 5600, Control_c, 1, 11, 101
2, 5600, Control_c, 1, 11, 101
2, 5680, Control_c, 1, 11, 102
2, 5680, Control_c, 1, 11, 102
2, 5760, Control_c, 1, 11, 103
2, 5760, Control_c, 1, 11, 103
2, 5840, Control_c, 1, 11, 104
2, 5840, Control_c, 1, 11, 104
2, 5920, Control_c, 1, 11, 105
2, 5920, Control_c, 1, 11, 105
2, 6000, Control_c, 1, 11, 106
2, 6000, Control_c, 1, 11, 106
2, 6080, Control_c, 1, 11, 107
2, 6080, Control_c, 1, 11, 107
2, 6160, Control_c, 1, 11, 108
2, 6160, Control_c, 1, 11, 108
2, 6240, Control_c, 1, 11, 109
2, 6240, Control_c, 1, 11, 109
2, 6320, Control_c, 1, 11, 110
2, 6320, Control_c, 1, 11, 110
2, 6400, Control_c, 1, 11, 111
2, 6400, Control_c, 1, 11, 111
2, 6480, Control_c, 1, 11, 112
2, 6480, Control_c, 1, 11, 112
2, 6560, Control_c, 1, 11, 113
2, 6560, Control_c, 1, 11, 113
2, 6640, Control_c, 1, 11, 114
2, 6640, Control_c, 1, 11, 114
2, 6720, Control_c, 1, 11, 115
2, 6720, Control_c, 1, 11, 115
2, 6800, Control_c, 1, 11, 116
2, 6800, Control_c, 1, 11, 116
2, 6880, Control_c, 1, 11, 117
2, 6880, Control_c, 1, 11, 117
2, 6960, Control_c, 1, 11, 118
2, 6960, Control_c, 1, 11, 118
2, 7040, Control_c, 1, 11, 119
2, 7040, Control_c, 1, 11, 119
2, 7120, Control_c, 1, 11, 120
2, 7120, Control_c, 1, 11, 120
2, 7200, Control_c, 1, 11, 121
2, 7200, Control_c, 1, 11, 121
2, 7280, Control_c, 1, 11, 122
2, 7280, Control_c, 1, 11, 122
2, 7360, Control_c, 1, 11, 123
2, 7360, Control_c, 1, 11, 123
2, 7440, Control_c, 1, 11, 124
2, 7440, Control_c, 1, 11, 124
2, 7520, Control_c, 1, 11, 125
2, 7520, Control_c, 1, 11, 125
2, 7600, Control_c, 1, 11, 126
2, 7600, Control_c, 1, 11, 126
2, 7680, Control_c, 1, 11, 127
2, 7680, Note_off_c, 1, 64, 63
2, 7680, Control_c, 1, 11, 127
2, 7680, Note_off_c, 1, 45, 95
2, 7680, Pitch_bend_c, 1, 8192
2, 7680, Note_on_c, 1, 61, 95
2, 7728, Pitch_bend_c, 1, 8320
2, 7776, Pitch_bend_c, 1, 8448
2, 7824, Pitch_bend_c, 1, 8576
2, 7872, Pitch_bend_c, 1, 8704
2, 7920, Pitch_bend_c, 1, 8832
2, 7920, Pitch_bend_c, 1, 8832
2, 8160, Pitch_bend_c, 1, 8832
2, 8208, Pitch_bend_c, 1, 8704
2, 8256, Pitch_bend_c, 1, 8576
2, 8304, Pitch_bend_c, 1, 8448
2, 8352, Pitch_bend_c, 1, 8320
2, 8400, Pitch_bend_c, 1, 8192
2, 8400, Pitch_bend_c, 1, 8192
2, 8640, Pitch_bend_c, 1, 8192
2, 8640, Pitch_bend_c, 1, 8192
2, 8640, Note_off_c, 1, 61, 95
2, 8640, Note_on_c, 0, 45, 95
2, 9120, Note_off_c, 0, 45, 95
2, 9120, Note_on_c, 0, 40, 95
2, 9600, Note_off_c, 0, 40, 95
2, 9600, Note_on_c, 0, 55, 95
2, 10080, Note_off_c, 0, 55, 95
2, 10080, Note_on_c, 0, 57, 95
2, 10560, Note_off_c, 0, 57, 95
2, 10560, Note_on_c, 0, 45, 95
2, 11040, Note_off_c, 0, 45, 95
2, 11040, Pitch_bend_c, 1, 8192
2, 11040, Note_on_c, 1, 61, 95
2, 11088, Pitch_bend_c, 1, 8320
2, 11136, Pitch_bend_c, 1, 8448
2, 11184, Pitch_bend_c, 1, 8576
2, 11232, Pitch_bend_c, 1, 8704
2, 11280, Pitch_bend_c, 1, 8832
2, 11280, Pitch_bend_c, 1, 8832
2, 11520, Pitch_bend_c, 1, 8832
2, 11568, Pitch_bend_c, 1, 8704
2, 11616, Pitch_bend_c, 1, 8576
2, 11664, Pitch_bend_c, 1, 8448
2, 11712, Pitch_bend_c, 1, 8320
2, 11760, Pitch_bend_c, 1, 8192
2, 11760, Pitch_bend_c, 1, 8192
2, 12000, Pitch_bend_c, 1, 8192
2, 12000, Pitch_bend_c, 1, 8192
2, 12000, Note_off_c, 1, 61, 95
2, 12000, Note_on_c, 0, 45, 95
2, 12960, Note_off_c, 0, 45, 95
2, 12960, Note_on_c, 0, 55, 95
2, 13440, Note_off_c, 0, 55, 95
2, 13440, Note_on_c, 0, 57, 95
2, 13920, Note_off_c, 0, 57, 95
2, 13920, Note_on_c, 0, 45, 95
2, 14400, Note_off_c, 0, 45, 95
2, 14400, Note_on_c, 0, 49, 95
2, 14530, Note_off_c, 0, 49, 95
2, 14640, Note_on_c, 0, 50, 95
2, 14770, Note_off_c, 0, 50, 95
2, 14880, Note_on_c, 0, 52, 95
2, 15010, Note_off_c, 0, 52, 95
2, 15360, Pitch_bend_c, 1, 8192
2, 15360, Note_on_c, 1, 61, 95
2, 15408, Pitch_bend_c, 1, 8320
2, 15456, Pitch_bend_c, 1, 8448
2, 15504, Pitch_bend_c, 1, 8576
2, 15552, Pitch_bend_c, 1, 8704
2, 15600, Pitch_bend_c, 1, 8832
2, 15600, Pitch_bend_c, 1, 8832
2, 15840, Pitch_bend_c, 1, 8832
2, 15888, Pitch_bend_c, 1, 8704
2, 15936, Pitch_bend_c, 1, 8576
2, 15984, Pitch_bend_c, 1, 8448
2, 16032, Pitch_bend_c, 1, 8320
2, 16080, Pitch_bend_c, 1, 8192
2, 16080, Pitch_bend_c, 1, 8192
2, 16320, Pitch_bend_c, 1, 8192
2, 16320, Pitch_bend_c, 1, 8192
2, 16320, Note_off_c, 1, 61, 95
2, 16320, Note_on_c, 0, 45, 95
2, 16800, Note_off_c, 0, 45, 95
2, 16800, Note_on_c, 0, 40, 95
2, 17280, Note_off_c, 0, 40, 95
2, 17280, Note_on_c, 0, 55, 95
2, 17760, Note_off_c, 0, 55, 95
2, 17760, Note_on_c, 0, 57, 95
2, 18240, Note_off_c, 0, 57, 95
2, 18720, Note_on_c, 1, 57, 95
2, 18880, Pitch_bend_c, 1, 8192
2, 19040, Pitch_bend_c, 1, 8320
2, 19200, Pitch_bend_c, 1, 8192
2, 19360, Pitch_bend_c, 1, 8320
2, 19520, Pitch_bend_c, 1, 8192
2, 19680, Pitch_bend_c, 1, 8320
2, 19680, Pitch_bend_c, 1, 8192
2, 19680, Note_off_c, 1, 57, 95
2, 19680, Note_on_c, 0, 45, 95
2, 20160, Note_off_c, 0, 45, 95
2, 20160, Note_on_c, 0, 46, 95
2, 20640, Note_off_c, 0, 46, 95
2, 20640, Note_on_c, 0, 49, 95
2, 21120, Note_off_c, 0, 49, 95
2, 21120, Note_on_c, 0, 50, 95
2, 21600, Note_off_c, 0, 50, 95
2, 21600, Note_on_c, 0, 53, 95
2, 22080, Note_off_c, 0, 53, 95
2, 22080, Note_on_c, 0, 52, 95
2, 22200, Note_off_c, 0, 52, 95
2, 22200, Note_on_c, 0, 53, 70
2, 22320, Note_off_c, 0, 53, 70
2, 22320, Note_on_c, 0, 52, 70
2, 22560, Note_off_c, 0, 52, 70
2, 22560, Note_on_c, 0, 50, 95
2, 23040, Note_off_c, 0, 50, 95
2, 23040, Pitch_bend_c, 1, 8192
2, 23040, Note_on_c, 1, 61, 95
2, 23088, Pitch_bend_c, 1, 8320
2, 23136, Pitch_bend_c, 1, 8448
2, 23184, Pitch_bend_c, 1, 8576
2, 23232, Pitch_bend_c, 1, 8704
2, 23280, Pitch_bend_c, 1, 8832
2, 23280, Pitch_bend_c, 1, 8832
2, 23520, Pitch_bend_c, 1, 8832
2, 23568, Pitch_bend_c, 1, 8704
2, 23616, Pitch_bend_c, 1, 8576
2, 23664, Pitch_bend_c, 1, 8448
2, 23712, Pitch_bend_c, 1, 8320
2, 23760, Pitch_bend_c, 1, 8192
2, 23760, Pitch_bend_c, 1, 8192
2, 24000, Pitch_bend_c, 1, 8192
2, 24000, Pitch_bend_c, 1, 8192
2, 24000, Note_off_c, 1, 61, 95
2, 24000, Note_on_c, 0, 45, 95
2, 24480, Note_off_c, 0, 45, 95
2, 24480, Note_on_c, 0, 40, 95
2, 24960, Note_off_c, 0, 40, 95
2, 24960, Note_on_c, 0, 55, 95
2, 25440, Note_off_c, 0, 55, 95
2, 25440, Note_on_c, 0, 57, 95
2, 25920, Note_off_c, 0, 57, 95
2, 25920, Note_on_c, 0, 45, 95
2, 26400, Note_off_c, 0, 45, 95
2, 26400, Pitch_bend_c, 1, 8192
2, 26400, Note_on_c, 1, 61, 95
2, 26448, Pitch_bend_c, 1, 8320
2, 26496, Pitch_bend_c, 1, 8448
2, 26544, Pitch_bend_c, 1, 8576
2, 26592, Pitch_bend_c, 1, 8704
2, 26640, Pitch_bend_c, 1, 8832
2, 26640, Pitch_bend_c, 1, 8832
2, 26880, Pitch_bend_c, 1, 8832
2, 26928, Pitch_bend_c, 1, 8704
2, 26976, Pitch_bend_c, 1, 8576
2, 27024, Pitch_bend_c, 1, 8448
2, 27072, Pitch_bend_c, 1, 8320
2, 27120, Pitch_bend_c, 1, 8192
2, 27120, Pitch_bend_c, 1, 8192
2, 27360, Pitch_bend_c, 1, 8192
2, 27360, Pitch_bend_c, 1, 8192
2, 27360, Note_off_c, 1, 61, 95
2, 27360, Note_on_c, 0, 57, 95
2, 27840, Note_off_c, 0, 57, 95
2, 27840, Note_on_c, 0, 61, 95
2, 28320, Note_off_c, 0, 61, 95
2, 28320, Note_on_c, 1, 62, 95
2, 28440, Pitch_bend_c, 1, 8960
2, 28560, Pitch_bend_c, 1, 9856
2, 28680, Pitch_bend_c, 1, 10752
2, 28800, Pitch_bend_c, 1, 11648
2, 28800, Pitch_bend_c, 1, 8192
2, 28800, Note_off_c, 1, 62, 95
2, 28800, Note_on_c, 1, 67, 95
2, 28920, Pitch_bend_c, 1, 7680
2, 29040, Pitch_bend_c, 1, 7168
2, 29160, Pitch_bend_c, 1, 6656
2, 29280, Pitch_bend_c, 1, 6144
2, 29280, Pitch_bend_c, 1, 8192
2, 29280, Note_off_c, 1, 67, 95
2, 29280, Note_on_c, 0, 64, 95
2, 29760, Note_off_c, 0, 64, 95
2, 29760, Note_on_c, 0, 58, 95
2, 30240, Note_off_c, 0, 58, 95
2, 30240, Note_on_c, 0, 57, 95
2, 30720, Note_off_c, 0, 57, 95
2, 30720, Pitch_bend_c, 1, 8192
2, 30720, Note_on_c, 1, 61, 95
2, 30768, Pitch_bend_c, 1, 8320
2, 30816, Pitch_bend_c, 1, 8448
2, 30864, Pitch_bend_c, 1, 8576
2, 30912, Pitch_bend_c, 1, 8704
2, 30960, Pitch_bend_c, 1, 8832
2, 30960, Pitch_bend_c, 1, 8832
2, 31200, Pitch_bend_c, 1, 8832
2, 31248, Pitch_bend_c, 1, 8704
2, 31296, Pitch_bend_c, 1, 8576
2, 31344, Pitch_bend_c, 1, 8448
2, 31392, Pitch_bend_c, 1, 8320
2, 31440, Pitch_bend_c, 1, 8192
2, 31440, Pitch_bend_c, 1, 8192
2, 31680, Pitch_bend_c, 1, 8192
2, 31680, Pitch_bend_c, 1, 8192
2, 31680, Note_off_c, 1, 61, 95
2, 31680, Note_on_c, 0, 45, 95
2, 32160, Note_off_c, 0, 45, 95
2, 32160, Note_on_c, 0, 40, 95
2, 32640, Note_off_c, 0, 40, 95
2, 32640, Note_on_c, 0, 55, 95
2, 33120, Note_off_c, 0, 55, 95
2, 33120, Note_on_c, 0, 57, 95
2, 33600, Note_off_c, 0, 57, 95
2, 34080, Note_on_c, 1, 57, 95
2, 34240, Pitch_bend_c, 1, 8192
2, 34400, Pitch_bend_c, 1, 8320
2, 34560, Pitch_bend_c, 1, 8192
2, 34720, Pitch_bend_c, 1, 8320
2, 34880, Pitch_bend_c, 1, 8192
2, 35040, Pitch_bend_c, 1, 8320
2, 35200, Pitch_bend_c, 1, 8192
2, 35360, Pitch_bend_c, 1, 8320
2, 35520, Pitch_bend_c, 1, 8192
2, 35520, Pitch_bend_c, 1, 8320
2, 35520, Pitch_bend_c, 1, 8192
2, 35520, Note_off_c, 1, 57, 95
2, 38400, Pitch_bend_c, 1, 8192
2, 38400, Note_on_c, 1, 61, 95
2, 38448, Pitch_bend_c, 1, 8320
2, 38496, Pitch_bend_c, 1, 8448
2, 38544, Pitch_bend_c, 1, 8576
2, 38592, Pitch_bend_c, 1, 8704
2, 38640, Pitch_bend_c, 1, 8832
2, 38640, Pitch_bend_c, 1, 8832
2, 38880, Pitch_bend_c, 1, 8832
2, 38928, Pitch_bend_c, 1, 8704
2, 38976, Pitch_bend_c, 1, 8576
2, 39024, Pitch_bend_c, 1, 8448
2, 39072, Pitch_bend_c, 1, 8320
2, 39120, Pitch_bend_c, 1, 8192
2, 39120, Pitch_bend_c, 1, 8192
2, 39360, Pitch_bend_c, 1, 8192
2, 39360, Pitch_bend_c, 1, 8192
2, 39360, Note_off_c, 1, 61, 95
2, 39360, Note_on_c, 0, 45, 95
2, 39840, Note_off_c, 0, 45, 95
2, 39840, Note_on_c, 0, 40, 95
2, 40320, Note_off_c, 0, 40, 95
2, 40320, Note_on_c, 0, 55, 95
2, 40800, Note_off_c, 0, 55, 95
2, 40800, Note_on_c, 0, 57, 95
2, 41280, Note_off_c, 0, 57, 95
2, 41280, Note_on_c, 0, 45, 95
2, 41760, Note_off_c, 0, 45, 95
2, 41760, Pitch_bend_c, 1, 8192
2, 41760, Note_on_c, 1, 61, 95
2, 41808, Pitch_bend_c, 1, 8320
2, 41856, Pitch_bend_c, 1, 8448
2, 41904, Pitch_bend_c, 1, 8576
2, 41952, Pitch_bend_c, 1, 8704
2, 42000, Pitch_bend_c, 1, 8832
2, 42000, Pitch_bend_c, 1, 8832
2, 42240, Pitch_bend_c, 1, 8832
2, 42288, Pitch_bend_c, 1, 8704
2, 42336, Pitch_bend_c, 1, 8576
2, 42384, Pitch_bend_c, 1, 8448
2, 42432, Pitch_bend_c, 1, 8320
2, 42480, Pitch_bend_c, 1, 8192
2, 42480, Pitch_bend_c, 1, 8192
2, 42720, Pitch_bend_c, 1, 8192
2, 42720, Pitch_bend_c, 1, 8192
2, 42720, Note_off_c, 1, 61, 95
2, 42720, Note_on_c, 0, 45, 95
2, 43680, Note_off_c, 0, 45, 95
2, 43680, Note_on_c, 0, 55, 95
2, 44160, Note_off_c, 0, 55, 95
2, 44160, Note_on_c, 0, 57, 95
2, 44640, Note_off_c, 0, 57, 95
2, 44640, Note_on_c, 0, 45, 95
2, 45120, Note_off_c, 0, 45, 95
2, 45120, Note_on_c, 0, 49, 95
2, 45250, Note_off_c, 0, 49, 95
2, 45360, Note_on_c, 0, 50, 95
2, 45490, Note_off_c, 0, 50, 95
2, 45600, Note_on_c, 0, 52, 95
2, 45730, Note_off_c, 0, 52, 95
2, 46080, Pitch_bend_c, 1, 8192
2, 46080, Note_on_c, 1, 61, 95
2, 46128, Pitch_bend_c, 1, 8320
2, 46176, Pitch_bend_c, 1, 8448
2, 46224, Pitch_bend_c, 1, 8576
2, 46272, Pitch_bend_c, 1, 8704
2, 46320, Pitch_bend_c, 1, 8832
2, 46320, Pitch_bend_c, 1, 8832
2, 46560, Pitch_bend_c, 1, 8832
2, 46608, Pitch_bend_c, 1, 8704
2, 46656, Pitch_bend_c, 1, 8576
2, 46704, Pitch_bend_c, 1, 8448
2, 46752, Pitch_bend_c, 1, 8320
2, 46800, Pitch_bend_c, 1, 8192
2, 46800, Pitch_bend_c, 1, 8192
2, 47040, Pitch_bend_c, 1, 8192
2, 47040, Pitch_bend_c, 1, 8192
2, 47040, Note_off_c, 1, 61, 95
2, 47040, Note_on_c, 0, 45, 95
2, 47520, Note_off_c, 0, 45, 95
2, 47520, Note_on_c, 0, 40, 95
2, 48000, Note_off_c, 0, 40, 95
2, 48000, Note_on_c, 0, 55, 95
2, 48480, Note_off_c, 0, 55, 95
2, 48480, Note_on_c, 0, 57, 95
2, 48960, Note_off_c, 0, 57, 95
2, 49440, Note_on_c, 1, 57, 95
2, 49600, Pitch_bend_c, 1, 8192
2, 49760, Pitch_bend_c, 1, 8320
2, 49920, Pitch_bend_c, 1, 8192
2, 50080, Pitch_bend_c, 1, 8320
2, 50240, Pitch_bend_c, 1, 8192
2, 50400, Pitch_bend_c, 1, 8320
2, 50400, Pitch_bend_c, 1, 8192
2, 50400, Note_off_c, 1, 57, 95
2, 50400, Note_on_c, 0, 45, 95
2, 50880, Note_off_c, 0, 45, 95
2, 50880, Note_on_c, 0, 46, 95
2, 51360, Note_off_c, 0, 46, 95
2, 51360, Note_on_c, 0, 49, 95
2, 51840, Note_off_c, 0, 49, 95
2, 51840, Note_on_c, 0, 50, 95
2, 52320, Note_off_c, 0, 50, 95
2, 52320, Note_on_c, 0, 53, 95
2, 52800, Note_off_c, 0, 53, 95
2, 52800, Note_on_c, 0, 52, 95
2, 52920, Note_off_c, 0, 52, 95
2, 52920, Note_on_c, 0, 53, 70
2, 53040, Note_off_c, 0, 53, 70
2, 53040, Note_on_c, 0, 52, 70
2, 53280, Note_off_c, 0, 52, 70
2, 53280, Note_on_c, 0, 50, 95
2, 53760, Note_off_c, 0, 50, 95
2, 53760, Pitch_bend_c, 1, 8192
2, 53760, Note_on_c, 1, 61, 95
2, 53808, Pitch_bend_c, 1, 8320
2, 53856, Pitch_bend_c, 1, 8448
2, 53904, Pitch_bend_c, 1, 8576
2, 53952, Pitch_bend_c, 1, 8704
2, 54000, Pitch_bend_c, 1, 8832
2, 54000, Pitch_bend_c, 1, 8832
2, 54240, Pitch_bend_c, 1, 8832
2, 54288, Pitch_bend_c, 1, 8704
2, 54336, Pitch_bend_c, 1, 8576
2, 54384, Pitch_bend_c, 1, 8448
2, 54432, Pitch_bend_c, 1, 8320
2, 54480, Pitch_bend_c, 1, 8192
2, 54480, Pitch_bend_c, 1, 8192
2, 54720, Pitch_bend_c, 1, 8192
2, 54720, Pitch_bend_c, 1, 8192
2, 54720, Note_off_c, 1, 61, 95
2, 54720, Note_on_c, 0, 45, 95
2, 55200, Note_off_c, 0, 45, 95
2, 55200, Note_on_c, 0, 40, 95
2, 55680, Note_off_c, 0, 40, 95
2, 55680, Note_on_c, 0, 55, 95
2, 56160, Note_off_c, 0, 55, 95
2, 56160, Note_on_c, 0, 57, 95
2, 56640, Note_off_c, 0, 57, 95
2, 56640, Note_on_c, 0, 45, 95
2, 57120, Note_off_c, 0, 45, 95
2, 57120, Pitch_bend_c, 1, 8192
2, 57120, Note_on_c, 1, 61, 95
2, 57168, Pitch_bend_c, 1, 8320
2, 57216, Pitch_bend_c, 1, 8448
2, 57264, Pitch_bend_c, 1, 8576
2, 57312, Pitch_bend_c, 1, 8704
2, 57360, Pitch_bend_c, 1, 8832
2, 57360, Pitch_bend_c, 1, 8832
2, 57600, Pitch_bend_c, 1, 8832
2, 57648, Pitch_bend_c, 1, 8704
2, 57696, Pitch_bend_c, 1, 8576
2, 57744, Pitch_bend_c, 1, 8448
2, 57792, Pitch_bend_c, 1, 8320
2, 57840, Pitch_bend_c, 1, 8192
2, 57840, Pitch_bend_c, 1, 8192
2, 58080, Pitch_bend_c, 1, 8192
2, 58080, Pitch_bend_c, 1, 8192
2, 58080, Note_off_c, 1, 61, 95
2, 58080, Note_on_c, 0, 57, 95
2, 58560, Note_off_c, 0, 57, 95
2, 58560, Note_on_c, 0, 61, 95
2, 59040, Note_off_c, 0, 61, 95
2, 59040, Note_on_c, 1, 62, 95
2, 59160, Pitch_bend_c, 1, 8960
2, 59280, Pitch_bend_c, 1, 9856
2, 59400, Pitch_bend_c, 1, 10752
2, 59520, Pitch_bend_c, 1, 11648
2, 59520, Pitch_bend_c, 1, 8192
2, 59520, Note_off_c, 1, 62, 95
2, 59520, Note_on_c, 1, 67, 95
2, 59640, Pitch_bend_c, 1, 7680
2, 59760, Pitch_bend_c, 1, 7168
2, 59880, Pitch_bend_c, 1, 6656
2, 60000, Pitch_bend_c, 1, 6144
2, 60000, Pitch_bend_c, 1, 8192
2, 60000, Note_off_c, 1, 67, 95
2, 60000, Note_on_c, 0, 64, 95
2, 60480, Note_off_c, 0, 64, 95
2, 60480, Note_on_c, 0, 70, 95
2, 60960, Note_off_c, 0, 70, 95
2, 60960, Note_on_c, 0, 69, 95
2, 61440, Note_off_c, 0, 69, 95
2, 61440, Pitch_bend_c, 1, 8192
2, 61440, Note_on_c, 1, 61, 95
2, 61488, Pitch_bend_c, 1, 8320
2, 61536, Pitch_bend_c, 1, 8448
2, 61584, Pitch_bend_c, 1, 8576
2, 61632, Pitch_bend_c, 1, 8704
2, 61680, Pitch_bend_c, 1, 8832
2, 61680, Pitch_bend_c, 1, 8832
2, 61920, Pitch_bend_c, 1, 8832
2, 61968, Pitch_bend_c, 1, 8704
2, 62016, Pitch_bend_c, 1, 8576
2, 62064, Pitch_bend_c, 1, 8448
2, 62112, Pitch_bend_c, 1, 8320
2, 62160, Pitch_bend_c, 1, 8192
2, 62160, Pitch_bend_c, 1, 8192
2, 62400, Pitch_bend_c, 1, 8192
2, 62400, Pitch_bend_c, 1, 8192
2, 62400, Note_off_c, 1, 61, 95
2, 62400, Note_on_c, 0, 45, 95
2, 62880, Note_off_c, 0, 45, 95
2, 62880, Note_on_c, 0, 40, 95
2, 63360, Note_off_c, 0, 40, 95
2, 63360, Note_on_c, 0, 55, 95
2, 63840, Note_off_c, 0, 55, 95
2, 63840, Note_on_c, 0, 57, 95
2, 64320, Note_off_c, 0, 57, 95
2, 64800, Note_on_c, 1, 57, 95
2, 64960, Pitch_bend_c, 1, 8192
2, 65120, Pitch_bend_c, 1, 8320
2, 65280, Pitch_bend_c, 1, 8192
2, 65440, Pitch_bend_c, 1, 8320
2, 65600, Pitch_bend_c, 1, 8192
2, 65760, Pitch_bend_c, 1, 8320
2, 65920, Pitch_bend_c, 1, 8192
2, 66080, Pitch_bend_c, 1, 8320
2, 66240, Pitch_bend_c, 1, 8192
2, 66240, Pitch_bend_c, 1, 8320
2, 66240, Pitch_bend_c, 1, 8192
2, 66240, Note_off_c, 1, 57, 95
2, 161280, Note_on_c, 0, 74, 95
2, 161520, Note_off_c, 0, 74, 95
2, 161520, Note_on_c, 0, 70, 95
2, 161760, Note_off_c, 0, 70, 95
2, 161760, Note_on_c, 1, 73, 95
2, 161920, Pitch_bend_c, 1, 8192
2, 162080, Pitch_bend_c, 1, 8320
2, 162240, Pitch_bend_c, 1, 8192
2, 162400, Pitch_bend_c, 1, 8320
2, 162480, Pitch_bend_c, 1, 8192
2, 162480, Pitch_bend_c, 1, 8320
2, 162480, Pitch_bend_c, 1, 8192
2, 162480, Note_off_c, 1, 73, 95
2, 162480, Note_on_c, 0, 70, 95
2, 162720, Note_off_c, 0, 70, 95
2, 162720, Note_on_c, 0, 67, 95
2, 162960, Note_off_c, 0, 67, 95
2, 162960, Note_on_c, 0, 70, 95
2, 163200, Note_off_c, 0, 70, 95
2, 163200, Note_on_c, 1, 69, 95
2, 163360, Pitch_bend_c, 1, 8192
2, 163520, Pitch_bend_c, 1, 8320
2, 163680, Pitch_bend_c, 1, 8192
2, 163840, Pitch_bend_c, 1, 8320
2, 164000, Pitch_bend_c, 1, 8192
2, 164160, Pitch_bend_c, 1, 8320
2, 164160, Pitch_bend_c, 1, 8192
2, 164160, Note_off_c, 1, 69, 95
2, 164160, Note_on_c, 0, 70, 95
2, 164400, Note_off_c, 0, 70, 95
2, 164400, Note_on_c, 0, 67, 95
2, 164640, Note_off_c, 0, 67, 95
2, 164640, Note_on_c, 0, 69, 95
2, 164880, Note_off_c, 0, 69, 95
2, 164880, Note_on_c, 0, 67, 95
2, 165120, Note_off_c, 0, 67, 95
2, 165120, Note_on_c, 0, 65, 95
2, 165360, Note_off_c, 0, 65, 95
2, 165360, Note_on_c, 0, 67, 95
2, 165600, Note_off_c, 0, 67, 95
2, 165600, Note_on_c, 1, 64, 95
2, 165760, Pitch_bend_c, 1, 8192
2, 165920, Pitch_bend_c, 1, 8320
2, 166080, Pitch_bend_c, 1, 8192
2, 166240, Pitch_bend_c, 1, 8320
2, 166400, Pitch_bend_c, 1, 8192
2, 166560, Pitch_bend_c, 1, 8320
2, 166560, Pitch_bend_c, 1, 8192
2, 166560, Note_off_c, 1, 64, 95
2, 166560, Note_on_c, 0, 81, 95
2, 166800, Note_off_c, 0, 81, 95
2, 166800, Note_on_c, 0, 77, 95
2, 167040, Note_off_c, 0, 77, 95
2, 167040, Note_on_c, 0, 79, 95
2, 167280, Note_off_c, 0, 79, 95
2, 167280, Note_on_c, 0, 81, 95
2, 167400, Note_off_c, 0, 81, 95
2, 167400, Note_on_c, 0, 79, 70
2, 167520, Note_off_c, 0, 79, 70
2, 167520, Note_on_c, 0, 77, 70
2, 167760, Note_off_c, 0, 77, 70
2, 167760, Note_on_c, 0, 76, 95
2, 168000, Note_off_c, 0, 76, 95
2, 168000, Note_on_c, 0, 77, 95
2, 168240, Note_off_c, 0, 77, 95
2, 168240, Note_on_c, 0, 76, 95
2, 168480, Note_off_c, 0, 76, 95
2, 168480, Note_on_c, 0, 74, 95
2, 168720, Note_off_c, 0, 74, 95
2, 168720, Note_on_c, 0, 73, 95
2, 168960, Note_off_c, 0, 73, 95
2, 168960, Note_on_c, 0, 74, 95
2, 169200, Note_off_c, 0, 74, 95
2, 169200, Note_on_c, 0, 82, 95
2, 169440, Note_off_c, 0, 82, 95
2, 169440, Note_on_c, 1, 81, 95
2, 169600, Pitch_bend_c, 1, 8192
2, 169760, Pitch_bend_c, 1, 8320
2, 169920, Pitch_bend_c, 1, 8192
2, 170080, Pitch_bend_c, 1, 8320
2, 170240, Pitch_bend_c, 1, 8192
2, 170400, Pitch_bend_c, 1, 8320
2, 170400, Pitch_bend_c, 1, 8192
2, 170400, Note_off_c, 1, 81, 95
2, 170400, Note_on_c, 0, 77, 95
2, 170640, Note_off_c, 0, 77, 95
2, 170640, Note_on_c, 0, 74, 95
2, 170880, Note_off_c, 0, 74, 95
2, 170880, Note_on_c, 1, 76, 95
2, 171040, Pitch_bend_c, 1, 8192
2, 171200, Pitch_bend_c, 1, 8320
2, 171360, Pitch_bend_c, 1, 8192
2, 171520, Pitch_bend_c, 1, 8320
2, 171680, Pitch_bend_c, 1, 8192
2, 171840, Pitch_bend_c, 1, 8320
2, 171840, Pitch_bend_c, 1, 8192
2, 171840, Note_off_c, 1, 76, 95
2, 171840, Note_on_c, 0, 76, 95
2, 172080, Note_off_c, 0, 76, 95
2, 172080, Note_on_c, 0, 73, 95
2, 172320, Note_off_c, 0, 73, 95
2, 172320, Note_on_c, 0, 74, 95
2, 172560, Note_off_c, 0, 74, 95
2, 172560, Note_on_c, 0, 73, 95
2, 172800, Note_off_c, 0, 73, 95
2, 172800, Note_on_c, 0, 70, 95
2, 173040, Note_off_c, 0, 70, 95
2, 173040, Note_on_c, 0, 73, 95
2, 173280, Note_off_c, 0, 73, 95
2, 173280, Note_on_c, 1, 69, 95
2, 173440, Pitch_bend_c, 1, 8192
2, 173600, Pitch_bend_c, 1, 8320
2, 173760, Pitch_bend_c, 1, 8192
2, 173920, Pitch_bend_c, 1, 8320
2, 174080, Pitch_bend_c, 1, 8192
2, 174240, Pitch_bend_c, 1, 8320
2, 174240, Pitch_bend_c, 1, 8192
2, 174240, Note_off_c, 1, 69, 95
2, 174240, Note_on_c, 0, 70, 95
2, 174480, Note_off_c, 0, 70, 95
2, 174480, Note_on_c, 0, 67, 95
2, 174720, Note_off_c, 0, 67, 95
2, 174720, Note_on_c, 0, 69, 95
2, 174960, Note_off_c, 0, 69, 95
2, 174960, Note_on_c, 0, 67, 95
2, 175200, Note_off_c, 0, 67, 95
2, 175200, Note_on_c, 0, 65, 95
2, 175440, Note_off_c, 0, 65, 95
2, 175440, Note_on_c, 0, 67, 95
2, 175680, Note_off_c, 0, 67, 95
2, 175680, Note_on_c, 1, 64, 95
2, 175840, Pitch_bend_c, 1, 8192
2, 176000, Pitch_bend_c, 1, 8320
2, 176160, Pitch_bend_c, 1, 8192
2, 176320, Pitch_bend_c, 1, 8320
2, 176480, Pitch_bend_c, 1, 8192
2, 176640, Pitch_bend_c, 1, 8320
2, 176640, Pitch_bend_c, 1, 8192
2, 176640, Note_off_c, 1, 64, 95
2, 176640, Note_on_c, 0, 74, 95
2, 176880, Note_off_c, 0, 74, 95
2, 176880, Note_on_c, 0, 70, 95
2, 177120, Note_off_c, 0, 70, 95
2, 177120, Note_on_c, 1, 73, 95
2, 177280, Pitch_bend_c, 1, 8192
2, 177440, Pitch_bend_c, 1, 8320
2, 177600, Pitch_bend_c, 1, 8192
2, 177760, Pitch_bend_c, 1, 8320
2, 177840, Pitch_bend_c, 1, 8192
2, 177840, Pitch_bend_c, 1, 8320
2, 177840, Pitch_bend_c, 1, 8192
2, 177840, Note_off_c, 1, 73, 95
2, 177840, Note_on_c, 0, 70, 95
2, 178080, Note_off_c, 0, 70, 95
2, 178080, Note_on_c, 0, 67, 95
2, 178320, Note_off_c, 0, 67, 95
2, 178320, Note_on_c, 0, 70, 95
2, 178560, Note_off_c, 0, 70, 95
2, 178560, Note_on_c, 1, 69, 95
2, 178720, Pitch_bend_c, 1, 8192
2, 178880, Pitch_bend_c, 1, 8320
2, 179040, Pitch_bend_c, 1, 8192
2, 179200, Pitch_bend_c, 1, 8320
2, 179360, Pitch_bend_c, 1, 8192
2, 179520, Pitch_bend_c, 1, 8320
2, 179520, Pitch_bend_c, 1, 8192
2, 179520, Note_off_c, 1, 69, 95
2, 179520, Note_on_c, 0, 82, 95
2, 179760, Note_off_c, 0, 82, 95
2, 179760, Note_on_c, 0, 79, 95
2, 180000, Note_off_c, 0, 79, 95
2, 180000, Note_on_c, 0, 81, 95
2, 180240, Note_off_c, 0, 81, 95
2, 180240, Note_on_c, 0, 79, 95
2, 180480, Note_off_c, 0, 79, 95
2, 180480, Note_on_c, 0, 77, 95
2, 180720, Note_off_c, 0, 77, 95
2, 180720, Note_on_c, 0, 79, 95
2, 180960, Note_off_c, 0, 79, 95
2, 180960, Note_on_c, 1, 76, 95
2, 181120, Pitch_bend_c, 1, 8192
2, 181280, Pitch_bend_c, 1, 8320
2, 181440, Pitch_bend_c, 1, 8192
2, 181600, Pitch_bend_c, 1, 8320
2, 181760, Pitch_bend_c, 1, 8192
2, 181920, Pitch_bend_c, 1, 8320
2, 181920, Pitch_bend_c, 1, 8192
2, 181920, Note_off_c, 1, 76, 95
2, 181920, Note_on_c, 0, 86, 95
2, 182160, Note_off_c, 0, 86, 95
2, 182160, Note_on_c, 0, 82, 95
2, 182400, Note_off_c, 0, 82, 95
2, 182400, Note_on_c, 0, 85, 95
2, 182640, Note_off_c, 0, 85, 95
2, 182640, Note_on_c, 0, 86, 70
2, 182760, Note_off_c, 0, 86, 70
2, 182760, Note_on_c, 0, 85, 70
2, 182880, Note_off_c, 0, 85, 70
2, 182880, Note_on_c, 0, 82, 95
2, 183120, Note_off_c, 0, 82, 95
2, 183120, Note_on_c, 0, 81, 95
2, 183360, Note_off_c, 0, 81, 95
2, 183360, Note_on_c, 0, 82, 95
2, 183600, Note_off_c, 0, 82, 95
2, 183600, Note_on_c, 0, 81, 95
2, 183840, Note_off_c, 0, 81, 95
2, 183840, Note_on_c, 0, 79, 95
2, 184080, Note_off_c, 0, 79, 95
2, 184080, Note_on_c, 0, 77, 95
2, 184320, Note_off_c, 0, 77, 95
2, 184320, Note_on_c, 0, 79, 95
2, 184560, Note_off_c, 0, 79, 95
2, 184560, Note_on_c, 0, 86, 95
2, 184800, Note_off_c, 0, 86, 95
2, 184800, Note_on_c, 1, 85, 95
2, 184960, Pitch_bend_c, 1, 8192
2, 185120, Pitch_bend_c, 1, 8320
2, 185280, Pitch_bend_c, 1, 8192
2, 185440, Pitch_bend_c, 1, 8320
2, 185600, Pitch_bend_c, 1, 8192
2, 185760, Pitch_bend_c, 1, 8320
2, 185760, Pitch_bend_c, 1, 8192
2, 185760, Note_off_c, 1, 85, 95
2, 185760, Note_on_c, 0, 82, 95
2, 186000, Note_off_c, 0, 82, 95
2, 186000, Note_on_c, 0, 79, 95
2, 186240, Note_off_c, 0, 79, 95
2, 186240, Note_on_c, 1, 81, 95
2, 186400, Pitch_bend_c, 1, 8192
2, 186560, Pitch_bend_c, 1, 8320
2, 186720, Pitch_bend_c, 1, 8192
2, 186880, Pitch_bend_c, 1, 8320
2, 187040, Pitch_bend_c, 1, 8192
2, 187200, Pitch_bend_c, 1, 8320
2, 187200, Pitch_bend_c, 1, 8192
2, 187200, Note_off_c, 1, 81, 95
2, 187200, Note_on_c, 0, 79, 95
2, 187440, Note_off_c, 0, 79, 95
2, 187440, Note_on_c, 0, 76, 95
2, 187680, Note_off_c, 0, 76, 95
2, 187680, Note_on_c, 0, 77, 95
2, 187920, Note_off_c, 0, 77, 95
2, 187920, Note_on_c, 0, 76, 95
2, 188160, Note_off_c, 0, 76, 95
2, 188160, Note_on_c, 0, 74, 95
2, 188400, Note_off_c, 0, 74, 95
2, 188400, Note_on_c, 0, 76, 95
2, 188640, Note_off_c, 0, 76, 95
2, 188640, Note_on_c, 1, 73, 95
2, 188800, Pitch_bend_c, 1, 8192
2, 188960, Pitch_bend_c, 1, 8320
2, 189120, Pitch_bend_c, 1, 8192
2, 189280, Pitch_bend_c, 1, 8320
2, 189440, Pitch_bend_c, 1, 8192
2, 189600, Pitch_bend_c, 1, 8320
2, 189600, Pitch_bend_c, 1, 8192
2, 189600, Note_off_c, 1, 73, 95
2, 189600, Note_on_c, 0, 67, 95
2, 189840, Note_off_c, 0, 67, 95
2, 189840, Note_on_c, 0, 64, 95
2, 190080, Note_off_c, 0, 64, 95
2, 190080, Note_on_c, 0, 65, 95
2, 190320, Note_off_c, 0, 65, 95
2, 190320, Note_on_c, 0, 64, 95
2, 190560, Note_off_c, 0, 64, 95
2, 190560, Note_on_c, 0, 62, 95
2, 190800, Note_off_c, 0, 62, 95
2, 190800, Note_on_c, 0, 64, 95
2, 191040, Note_off_c, 0, 64, 95
2, 191040, Note_on_c, 1, 61, 95
2, 191200, Pitch_bend_c, 1, 8192
2, 191360, Pitch_bend_c, 1, 8320
2, 191520, Pitch_bend_c, 1, 8192
2, 191680, Pitch_bend_c, 1, 8320
2, 191840, Pitch_bend_c, 1, 8192
2, 192000, Pitch_bend_c, 1, 8320
2, 192000, Pitch_bend_c, 1, 8192
2, 192000, Note_off_c, 1, 61, 95
2, 192000, Note_on_c, 0, 74, 95
2, 192240, Note_off_c, 0, 74, 95
2, 192240, Note_on_c, 0, 70, 95
2, 192480, Note_off_c, 0, 70, 95
2, 192480, Note_on_c, 1, 73, 95
2, 192640, Pitch_bend_c, 1, 8192
2, 192800, Pitch_bend_c, 1, 8320
2, 192960, Pitch_bend_c, 1, 8192
2, 193120, Pitch_bend_c, 1, 8320
2, 193200, Pitch_bend_c, 1, 8192
2, 193200, Pitch_bend_c, 1, 8320
2, 193200, Pitch_bend_c, 1, 8192
2, 193200, Note_off_c, 1, 73, 95
2, 193200, Note_on_c, 0, 70, 95
2, 193440, Note_off_c, 0, 70, 95
2, 193440, Note_on_c, 0, 69, 95
2, 193680, Note_off_c, 0, 69, 95
2, 193680, Note_on_c, 0, 70, 95
2, 193920, Note_off_c, 0, 70, 95
2, 193920, Note_on_c, 1, 67, 95
2, 194080, Pitch_bend_c, 1, 8192
2, 194240, Pitch_bend_c, 1, 8320
2, 194400, Pitch_bend_c, 1, 8192
2, 194560, Pitch_bend_c, 1, 8320
2, 194720, Pitch_bend_c, 1, 8192
2, 194880, Pitch_bend_c, 1, 8320
2, 194880, Pitch_bend_c, 1, 8192
2, 194880, Note_off_c, 1, 67, 95
2, 194880, Note_on_c, 0, 70, 95
2, 195120, Note_off_c, 0, 70, 95
2, 195120, Note_on_c, 0, 67, 95
2, 195360, Note_off_c, 0, 67, 95
2, 195360, Note_on_c, 0, 69, 95
2, 195600, Note_off_c, 0, 69, 95
2, 195600, Note_on_c, 0, 67, 95
2, 195840, Note_off_c, 0, 67, 95
2, 195840, Note_on_c, 0, 65, 95
2, 196080, Note_off_c, 0, 65, 95
2, 196080, Note_on_c, 0, 67, 95
2, 196320, Note_off_c, 0, 67, 95
2, 196320, Note_on_c, 0, 64, 95
2, 196560, Note_off_c, 0, 64, 95
2, 196560, Note_on_c, 0, 65, 95
2, 196800, Note_off_c, 0, 65, 95
2, 196800, Note_on_c, 0, 67, 95
2, 197040, Note_off_c, 0, 67, 95
2, 197040, Note_on_c, 0, 69, 95
2, 197280, Note_off_c, 0, 69, 95
2, 197280, Note_on_c, 1, 67, 95
2, 197440, Pitch_bend_c, 1, 8192
2, 197600, Pitch_bend_c, 1, 8320
2, 197760, Pitch_bend_c, 1, 8192
2, 197920, Pitch_bend_c, 1, 8320
2, 198080, Pitch_bend_c, 1, 8192
2, 198240, Pitch_bend_c, 1, 8320
2, 198240, Pitch_bend_c, 1, 8192
2, 198240, Note_off_c, 1, 67, 95
2, 198240, Note_on_c, 0, 81, 95
2, 198480, Note_off_c, 0, 81, 95
2, 198480, Note_on_c, 0, 77, 95
2, 198720, Note_off_c, 0, 77, 95
2, 198720, Note_on_c, 0, 79, 95
2, 198960, Note_off_c, 0, 79, 95
2, 198960, Note_on_c, 0, 81, 95
2, 199080, Note_off_c, 0, 81, 95
2, 199080, Note_on_c, 0, 79, 70
2, 199200, Note_off_c, 0, 79, 70
2, 199200, Note_on_c, 0, 77, 70
2, 199440, Note_off_c, 0, 77, 70
2, 199440, Note_on_c, 0, 76, 95
2, 199680, Note_off_c, 0, 76, 95
2, 199680, Note_on_c, 0, 74, 95
2, 199800, Note_off_c, 0, 74, 95
2, 199800, Note_on_c, 0, 73, 95
2, 199920, Note_off_c, 0, 73, 95
2, 199920, Note_on_c, 0, 70, 95
2, 200040, Note_off_c, 0, 70, 95
2, 200040, Note_on_c, 0, 69, 95
2, 200160, Note_off_c, 0, 69, 95
2, 200160, Note_on_c, 0, 67, 95
2, 200280, Note_off_c, 0, 67, 95
2, 200280, Note_on_c, 0, 65, 95
2, 200400, Note_off_c, 0, 65, 95
2, 200400, Note_on_c, 0, 64, 95
2, 200520, Note_off_c, 0, 64, 95
2, 200520, Note_on_c, 0, 62, 95
2, 200640, Note_off_c, 0, 62, 95
2, 200640, Note_on_c, 1, 69, 95
2, 200800, Pitch_bend_c, 1, 8192
2, 200960, Pitch_bend_c, 1, 8320
2, 201120, Pitch_bend_c, 1, 8192
2, 201280, Pitch_bend_c, 1, 8320
2, 201440, Pitch_bend_c, 1, 8192
2, 201600, Pitch_bend_c, 1, 8320
2, 201600, Pitch_bend_c, 1, 8192
2, 201600, Note_off_c, 1, 69, 95
2, 201600, Note_on_c, 0, 77, 95
2, 201840, Note_off_c, 0, 77, 95
2, 201840, Note_on_c, 0, 74, 95
2, 202080, Note_off_c, 0, 74, 95
2, 202080, Note_on_c, 0, 76, 95
2, 202320, Note_off_c, 0, 76, 95
2, 202320, Note_on_c, 0, 77, 95
2, 202560, Note_off_c, 0, 77, 95
2, 202560, Note_on_c, 0, 76, 95
2, 202800, Note_off_c, 0, 76, 95
2, 202800, Note_on_c, 0, 74, 95
2, 203040, Note_off_c, 0, 74, 95
2, 203040, Note_on_c, 0, 73, 95
2, 203280, Note_off_c, 0, 73, 95
2, 203280, Note_on_c, 0, 70, 95
2, 203520, Note_off_c, 0, 70, 95
2, 203520, Note_on_c, 0, 69, 95
2, 203760, Note_off_c, 0, 69, 95
2, 203760, Note_on_c, 0, 67, 95
2, 204000, Note_off_c, 0, 67, 95
2, 204000, Note_on_c, 0, 65, 95
2, 204240, Note_off_c, 0, 65, 95
2, 204240, Note_on_c, 0, 64, 95
2, 204480, Note_off_c, 0, 64, 95
2, 204480, Note_on_c, 0, 62, 95
2, 204720, Note_off_c, 0, 62, 95
2, 204720, Note_on_c, 0, 61, 95
2, 204960, Note_off_c, 0, 61, 95
2, 204960, Note_on_c, 0, 73, 95
2, 205200, Note_off_c, 0, 73, 95
2, 205200, Note_on_c, 0, 72, 95
2, 205440, Note_off_c, 0, 72, 95
2, 205440, Note_on_c, 0, 70, 95
2, 205680, Note_off_c, 0, 70, 95
2, 205680, Note_on_c, 0, 69, 95
2, 205920, Note_off_c, 0, 69, 95
2, 205920, Note_on_c, 0, 76, 95
2, 206160, Note_off_c, 0, 76, 95
2, 206160, Note_on_c, 0, 73, 95
2, 206400, Note_off_c, 0, 73, 95
2, 206400, Note_on_c, 1, 81, 95
2, 206560, Pitch_bend_c, 1, 8192
2, 206720, Pitch_bend_c, 1, 8320
2, 206880, Pitch_bend_c, 1, 8192
2, 207040, Pitch_bend_c, 1, 8320
2, 207200, Pitch_bend_c, 1, 8192
2, 207360, Pitch_bend_c, 1, 8320
2, 207360, Pitch_bend_c, 1, 8192
2, 207360, Note_off_c, 1, 81, 95
2, 207360, Note_on_c, 0, 74, 95
2, 207600, Note_off_c, 0, 74, 95
2, 207600, Note_on_c, 0, 70, 95
2, 207840, Note_off_c, 0, 70, 95
2, 207840, Note_on_c, 1, 73, 95
2, 208000, Pitch_bend_c, 1, 8192
2, 208160, Pitch_bend_c, 1, 8320
2, 208320, Pitch_bend_c, 1, 8192
2, 208480, Pitch_bend_c, 1, 8320
2, 208560, Pitch_bend_c, 1, 8192
2, 208560, Pitch_bend_c, 1, 8320
2, 208560, Pitch_bend_c, 1, 8192
2, 208560, Note_off_c, 1, 73, 95
2, 208560, Note_on_c, 0, 70, 95
2, 208800, Note_off_c, 0, 70, 95
2, 208800, Note_on_c, 0, 67, 95
2, 209040, Note_off_c, 0, 67, 95
2, 209040, Note_on_c, 0, 70, 95
2, 209280, Note_off_c, 0, 70, 95
2, 209280, Note_on_c, 1, 69, 95
2, 209440, Pitch_bend_c, 1, 8192
2, 209600, Pitch_bend_c, 1, 8320
2, 209760, Pitch_bend_c, 1, 8192
2, 209920, Pitch_bend_c, 1, 8320
2, 210080, Pitch_bend_c, 1, 8192
2, 210240, Pitch_bend_c, 1, 8320
2, 210240, Pitch_bend_c, 1, 8192
2, 210240, Note_off_c, 1, 69, 95
2, 210240, Note_on_c, 0, 70, 95
2, 210480, Note_off_c, 0, 70, 95
2, 210480, Note_on_c, 0, 67, 95
2, 210720, Note_off_c, 0, 67, 95
2, 210720, Note_on_c, 0, 69, 95
2, 210960, Note_off_c, 0, 69, 95
2, 210960, Note_on_c, 0, 67, 95
2, 211200, Note_off_c, 0, 67, 95
2, 211200, Note_on_c, 0, 65, 95
2, 211440, Note_off_c, 0, 65, 95
2, 211440, Note_on_c, 0, 67, 95
2, 211680, Note_off_c, 0, 67, 95
2, 211680, Note_on_c, 1, 64, 95
2, 211840, Pitch_bend_c, 1, 8192
2, 212000, Pitch_bend_c, 1, 8320
2, 212160, Pitch_bend_c, 1, 8192
2, 212320, Pitch_bend_c, 1, 8320
2, 212480, Pitch_bend_c, 1, 8192
2, 212640, Pitch_bend_c, 1, 8320
2, 212640, Pitch_bend_c, 1, 8192
2, 212640, Note_off_c, 1, 64, 95
2, 212640, Note_on_c, 0, 81, 95
2, 212880, Note_off_c, 0, 81, 95
2, 212880, Note_on_c, 0, 77, 95
2, 213120, Note_off_c, 0, 77, 95
2, 213120, Note_on_c, 0, 79, 95
2, 213360, Note_off_c, 0, 79, 95
2, 213360, Note_on_c, 0, 81, 95
2, 213480, Note_off_c, 0, 81, 95
2, 213480, Note_on_c, 0, 79, 70
2, 213600, Note_off_c, 0, 79, 70
2, 213600, Note_on_c, 0, 77, 70
2, 213840, Note_off_c, 0, 77, 70
2, 213840, Note_on_c, 0, 76, 95
2, 214080, Note_off_c, 0, 76, 95
2, 214080, Note_on_c, 0, 77, 95
2, 214320, Note_off_c, 0, 77, 95
2, 214320, Note_on_c, 0, 76, 95
2, 214560, Note_off_c, 0, 76, 95
2, 214560, Note_on_c, 0, 74, 95
2, 214800, Note_off_c, 0, 74, 95
2, 214800, Note_on_c, 0, 73, 95
2, 215040, Note_off_c, 0, 73, 95
2, 215040, Note_on_c, 0, 74, 95
2, 215280, Note_off_c, 0, 74, 95
2, 215280, Note_on_c, 0, 82, 95
2, 215520, Note_off_c, 0, 82, 95
2, 215520, Note_on_c, 1, 81, 95
2, 215680, Pitch_bend_c, 1, 8192
2, 215840, Pitch_bend_c, 1, 8320
2, 216000, Pitch_bend_c, 1, 8192
2, 216160, Pitch_bend_c, 1, 8320
2, 216320, Pitch_bend_c, 1, 8192
2, 216480, Pitch_bend_c, 1, 8320
2, 216480, Pitch_bend_c, 1, 8192
2, 216480, Note_off_c, 1, 81, 95
2, 216480, Note_on_c, 0, 77, 95
2, 216720, Note_off_c, 0, 77, 95
2, 216720, Note_on_c, 0, 74, 95
2, 216960, Note_off_c, 0, 74, 95
2, 216960, Note_on_c, 1, 76, 95
2, 217120, Pitch_bend_c, 1, 8192
2, 217280, Pitch_bend_c, 1, 8320
2, 217440, Pitch_bend_c, 1, 8192
2, 217600, Pitch_bend_c, 1, 8320
2, 217760, Pitch_bend_c, 1, 8192
2, 217920, Pitch_bend_c, 1, 8320
2, 217920, Pitch_bend_c, 1, 8192
2, 217920, Note_off_c, 1, 76, 95
2, 217920, Note_on_c, 0, 76, 95
2, 218160, Note_off_c, 0, 76, 95
2, 218160, Note_on_c, 0, 73, 95
2, 218400, Note_off_c, 0, 73, 95
2, 218400, Note_on_c, 0, 74, 95
2, 218640, Note_off_c, 0, 74, 95
2, 218640, Note_on_c, 0, 73, 95
2, 218880, Note_off_c, 0, 73, 95
2, 218880, Note_on_c, 0, 70, 95
2, 219120, Note_off_c, 0, 70, 95
2, 219120, Note_on_c, 0, 73, 95
2, 219360, Note_off_c, 0, 73, 95
2, 219360, Note_on_c, 1, 69, 95
2, 219520, Pitch_bend_c, 1, 8192
2, 219680, Pitch_bend_c, 1, 8320
2, 219840, Pitch_bend_c, 1, 8192
2, 220000, Pitch_bend_c, 1, 8320
2, 220160, Pitch_bend_c, 1, 8192
2, 220320, Pitch_bend_c, 1, 8320
2, 220320, Pitch_bend_c, 1, 8192
2, 220320, Note_off_c, 1, 69, 95
2, 220320, Note_on_c, 0, 70, 95
2, 220560, Note_off_c, 0, 70, 95
2, 220560, Note_on_c, 0, 67, 95
2, 220800, Note_off_c, 0, 67, 95
2, 220800, Note_on_c, 0, 69, 95
2, 221040, Note_off_c, 0, 69, 95
2, 221040, Note_on_c, 0, 67, 95
2, 221280, Note_off_c, 0, 67, 95
2, 221280, Note_on_c, 0, 65, 95
2, 221520, Note_off_c, 0, 65, 95
2, 221520, Note_on_c, 0, 67, 95
2, 221760, Note_off_c, 0, 67, 95
2, 221760, Note_on_c, 1, 64, 95
2, 221920, Pitch_bend_c, 1, 8192
2, 222080, Pitch_bend_c, 1, 8320
2, 222240, Pitch_bend_c, 1, 8192
2, 222400, Pitch_bend_c, 1, 8320
2, 222560, Pitch_bend_c, 1, 8192
2, 222720, Pitch_bend_c, 1, 8320
2, 222720, Pitch_bend_c, 1, 8192
2, 222720, Note_off_c, 1, 64, 95
2, 222720, Note_on_c, 0, 74, 95
2, 222960, Note_off_c, 0, 74, 95
2, 222960, Note_on_c, 0, 70, 95
2, 223200, Note_off_c, 0, 70, 95
2, 223200, Note_on_c, 1, 73, 95
2, 223360, Pitch_bend_c, 1, 8192
2, 223520, Pitch_bend_c, 1, 8320
2, 223680, Pitch_bend_c, 1, 8192
2, 223840, Pitch_bend_c, 1, 8320
2, 223920, Pitch_bend_c, 1, 8192
2, 223920, Pitch_bend_c, 1, 8320
2, 223920, Pitch_bend_c, 1, 8192
2, 223920, Note_off_c, 1, 73, 95
2, 223920, Note_on_c, 0, 70, 95
2, 224160, Note_off_c, 0, 70, 95
2, 224160, Note_on_c, 0, 67, 95
2, 224400, Note_off_c, 0, 67, 95
2, 224400, Note_on_c, 0, 70, 95
2, 224640, Note_off_c, 0, 70, 95
2, 224640, Note_on_c, 1, 69, 95
2, 224800, Pitch_bend_c, 1, 8192
2, 224960, Pitch_bend_c, 1, 8320
2, 225120, Pitch_bend_c, 1, 8192
2, 225280, Pitch_bend_c, 1, 8320
2, 225440, Pitch_bend_c, 1, 8192
2, 225600, Pitch_bend_c, 1, 8320
2, 225600, Pitch_bend_c, 1, 8192
2, 225600, Note_off_c, 1, 69, 95
2, 225600, Note_on_c, 0, 82, 95
2, 225840, Note_off_c, 0, 82, 95
2, 225840, Note_on_c, 0, 79, 95
2, 226080, Note_off_c, 0, 79, 95
2, 226080, Note_on_c, 0, 81, 95
2, 226320, Note_off_c, 0, 81, 95
2, 226320, Note_on_c, 0, 79, 95
2, 226560, Note_off_c, 0, 79, 95
2, 226560, Note_on_c, 0, 77, 95
2, 226800, Note_off_c, 0, 77, 95
2, 226800, Note_on_c, 0, 79, 95
2, 227040, Note_off_c, 0, 79, 95
2, 227040, Note_on_c, 1, 76, 95
2, 227200, Pitch_bend_c, 1, 8192
2, 227360, Pitch_bend_c, 1, 8320
2, 227520, Pitch_bend_c, 1, 8192
2, 227680, Pitch_bend_c, 1, 8320
2, 227840, Pitch_bend_c, 1, 8192
2, 228000, Pitch_bend_c, 1, 8320
2, 228000, Pitch_bend_c, 1, 8192
2, 228000, Note_off_c, 1, 76, 95
2, 228000, Note_on_c, 0, 86, 95
2, 228240, Note_off_c, 0, 86, 95
2, 228240, Note_on_c, 0, 82, 95
2, 228480, Note_off_c, 0, 82, 95
2, 228480, Note_on_c, 0, 85, 95
2, 228720, Note_off_c, 0, 85, 95
2, 228720, Note_on_c, 0, 86, 70
2, 228840, Note_off_c, 0, 86, 70
2, 228840, Note_on_c, 0, 85, 70
2, 228960, Note_off_c, 0, 85, 70
2, 228960, Note_on_c, 0, 82, 95
2, 229200, Note_off_c, 0, 82, 95
2, 229200, Note_on_c, 0, 81, 95
2, 229440, Note_off_c, 0, 81, 95
2, 229440, Note_on_c, 0, 82, 95
2, 229680, Note_off_c, 0, 82, 95
2, 229680, Note_on_c, 0, 81, 95
2, 229920, Note_off_c, 0, 81, 95
2, 229920, Note_on_c, 0, 79, 95
2, 230160, Note_off_c, 0, 79, 95
2, 230160, Note_on_c, 0, 77, 95
2, 230400, Note_off_c, 0, 77, 95
2, 230400, Note_on_c, 0, 79, 95
2, 230640, Note_off_c, 0, 79, 95
2, 230640, Note_on_c, 0, 86, 95
2, 230880, Note_off_c, 0, 86, 95
2, 230880, Note_on_c, 1, 85, 95
2, 231040, Pitch_bend_c, 1, 8192
2, 231200, Pitch_bend_c, 1, 8320
2, 231360, Pitch_bend_c, 1, 8192
2, 231520, Pitch_bend_c, 1, 8320
2, 231680, Pitch_bend_c, 1, 8192
2, 231840, Pitch_bend_c, 1, 8320
2, 231840, Pitch_bend_c, 1, 8192
2, 231840, Note_off_c, 1, 85, 95
2, 231840, Note_on_c, 0, 82, 95
2, 232080, Note_off_c, 0, 82, 95
2, 232080, Note_on_c, 0, 79, 95
2, 232320, Note_off_c, 0, 79, 95
2, 232320, Note_on_c, 1, 81, 95
2, 232480, Pitch_bend_c, 1, 8192
2, 232640, Pitch_bend_c, 1, 8320
2, 232800, Pitch_bend_c, 1, 8192
2, 232960, Pitch_bend_c, 1, 8320
2, 233120, Pitch_bend_c, 1, 8192
2, 233280, Pitch_bend_c, 1, 8320
2, 233280, Pitch_bend_c, 1, 8192
2, 233280, Note_off_c, 1, 81, 95
2, 233280, Note_on_c, 0, 79, 95
2, 233520, Note_off_c, 0, 79, 95
2, 233520, Note_on_c, 0, 76, 95
2, 233760, Note_off_c, 0, 76, 95
2, 233760, Note_on_c, 0, 77, 95
2, 234000, Note_off_c, 0, 77, 95
2, 234000, Note_on_c, 0, 76, 95
2, 234240, Note_off_c, 0, 76, 95
2, 234240, Note_on_c, 0, 74, 95
2, 234480, Note_off_c, 0, 74, 95
2, 234480, Note_on_c, 0, 76, 95
2, 234720, Note_off_c, 0, 76, 95
2, 234720, Note_on_c, 1, 73, 95
2, 234880, Pitch_bend_c, 1, 8192
2, 235040, Pitch_bend_c, 1, 8320
2, 235200, Pitch_bend_c, 1, 8192
2, 235360, Pitch_bend_c, 1, 8320
2, 235520, Pitch_bend_c, 1, 8192
2, 235680, Pitch_bend_c, 1, 8320
2, 235680, Pitch_bend_c, 1, 8192
2, 235680, Note_off_c, 1, 73, 95
2, 235680, Note_on_c, 0, 67, 95
2, 235920, Note_off_c, 0, 67, 95
2, 235920, Note_on_c, 0, 64, 95
2, 236160, Note_off_c, 0, 64, 95
2, 236160, Note_on_c, 0, 65, 95
2, 236400, Note_off_c, 0, 65, 95
2, 236400, Note_on_c, 0, 64, 95
2, 236640, Note_off_c, 0, 64, 95
2, 236640, Note_on_c, 0, 62, 95
2, 236880, Note_off_c, 0, 62, 95
2, 236880, Note_on_c, 0, 64, 95
2, 237120, Note_off_c, 0, 64, 95
2, 237120, Note_on_c, 1, 61, 95
2, 237280, Pitch_bend_c, 1, 8192
2, 237440, Pitch_bend_c, 1, 8320
2, 237600, Pitch_bend_c, 1, 8192
2, 237760, Pitch_bend_c, 1, 8320
2, 237920, Pitch_bend_c, 1, 8192
2, 238080, Pitch_bend_c, 1, 8320
2, 238080, Pitch_bend_c, 1, 8192
2, 238080, Note_off_c, 1, 61, 95
2, 238080, Note_on_c, 0, 74, 95
2, 238320, Note_off_c, 0, 74, 95
2, 238320, Note_on_c, 0, 70, 95
2, 238560, Note_off_c, 0, 70, 95
2, 238560, Note_on_c, 1, 73, 95
2, 238720, Pitch_bend_c, 1, 8192
2, 238880, Pitch_bend_c, 1, 8320
2, 239040, Pitch_bend_c, 1, 8192
2, 239200, Pitch_bend_c, 1, 8320
2, 239280, Pitch_bend_c, 1, 8192
2, 239280, Pitch_bend_c, 1, 8320
2, 239280, Pitch_bend_c, 1, 8192
2, 239280, Note_off_c, 1, 73, 95
2, 239280, Note_on_c, 0, 70, 95
2, 239520, Note_off_c, 0, 70, 95
2, 239520, Note_on_c, 0, 69, 95
2, 239760, Note_off_c, 0, 69, 95
2, 239760, Note_on_c, 0, 70, 95
2, 240000, Note_off_c, 0, 70, 95
2, 240000, Note_on_c, 1, 67, 95
2, 240160, Pitch_bend_c, 1, 8192
2, 240320, Pitch_bend_c, 1, 8320
2, 240480, Pitch_bend_c, 1, 8192
2, 240640, Pitch_bend_c, 1, 8320
2, 240800, Pitch_bend_c, 1, 8192
2, 240960, Pitch_bend_c, 1, 8320
2, 240960, Pitch_bend_c, 1, 8192
2, 240960, Note_off_c, 1, 67, 95
2, 240960, Note_on_c, 0, 70, 95
2, 241200, Note_off_c, 0, 70, 95
2, 241200, Note_on_c, 0, 67, 95
2, 241440, Note_off_c, 0, 67, 95
2, 241440, Note_on_c, 0, 69, 95
2, 241680, Note_off_c, 0, 69, 95
2, 241680, Note_on_c, 0, 67, 95
2, 241920, Note_off_c, 0, 67, 95
2, 241920, Note_on_c, 0, 65, 95
2, 242160, Note_off_c, 0, 65, 95
2, 242160, Note_on_c, 0, 67, 95
2, 242400, Note_off_c, 0, 67, 95
2, 242400, Note_on_c, 0, 64, 95
2, 242640, Note_off_c, 0, 64, 95
2, 242640, Note_on_c, 0, 65, 95
2, 242880, Note_off_c, 0, 65, 95
2, 242880, Note_on_c, 0, 67, 95
2, 243120, Note_off_c, 0, 67, 95
2, 243120, Note_on_c, 0, 69, 95
2, 243360, Note_off_c, 0, 69, 95
2, 243360, Note_on_c, 1, 67, 95
2, 243520, Pitch_bend_c, 1, 8192
2, 243680, Pitch_bend_c, 1, 8320
2, 243840, Pitch_bend_c, 1, 8192
2, 244000, Pitch_bend_c, 1, 8320
2, 244160, Pitch_bend_c, 1, 8192
2, 244320, Pitch_bend_c, 1, 8320
2, 244320, Pitch_bend_c, 1, 8192
2, 244320, Note_off_c, 1, 67, 95
2, 244320, Note_on_c, 0, 81, 95
2, 244560, Note_off_c, 0, 81, 95
2, 244560, Note_on_c, 0, 77, 95
2, 244800, Note_off_c, 0, 77, 95
2, 244800, Note_on_c, 0, 79, 95
2, 245040, Note_off_c, 0, 79, 95
2, 245040, Note_on_c, 0, 81, 95
2, 245160, Note_off_c, 0, 81, 95
2, 245160, Note_on_c, 0, 79, 70
2, 245280, Note_off_c, 0, 79, 70
2, 245280, Note_on_c, 0, 77, 70
2, 245520, Note_off_c, 0, 77, 70
2, 245520, Note_on_c, 0, 76, 95
2, 245760, Note_off_c, 0, 76, 95
2, 245760, Note_on_c, 0, 74, 95
2, 245880, Note_off_c, 0, 74, 95
2, 245880, Note_on_c, 0, 73, 95
2, 246000, Note_off_c, 0, 73, 95
2, 246000, Note_on_c, 0, 70, 95
2, 246120, Note_off_c, 0, 70, 95
2, 246120, Note_on_c, 0, 69, 95
2, 246240, Note_off_c, 0, 69, 95
2, 246240, Note_on_c, 0, 67, 95
2, 246360, Note_off_c, 0, 67, 95
2, 246360, Note_on_c, 0, 65, 95
2, 246480, Note_off_c, 0, 65, 95
2, 246480, Note_on_c, 0, 64, 95
2, 246600, Note_off_c, 0, 64, 95
2, 246600, Note_on_c, 0, 62, 95
2, 246720, Note_off_c, 0, 62, 95
2, 246720, Note_on_c, 1, 69, 95
2, 246880, Pitch_bend_c, 1, 8192
2, 247040, Pitch_bend_c, 1, 8320
2, 247200, Pitch_bend_c, 1, 8192
2, 247360, Pitch_bend_c, 1, 8320
2, 247520, Pitch_bend_c, 1, 8192
2, 247680, Pitch_bend_c, 1, 8320
2, 247680, Pitch_bend_c, 1, 8192
2, 247680, Note_off_c, 1, 69, 95
2, 247680, Note_on_c, 0, 77, 95
2, 247920, Note_off_c, 0, 77, 95
2, 247920, Note_on_c, 0, 74, 95
2, 248160, Note_off_c, 0, 74, 95
2, 248160, Note_on_c, 0, 76, 95
2, 248400, Note_off_c, 0, 76, 95
2, 248400, Note_on_c, 0, 77, 95
2, 248640, Note_off_c, 0, 77, 95
2, 248640, Note_on_c, 0, 76, 95
2, 248880, Note_off_c, 0, 76, 95
2, 248880, Note_on_c, 0, 74, 95
2, 249120, Note_off_c, 0, 74, 95
2, 249120, Note_on_c, 0, 73, 95
2, 249360, Note_off_c, 0, 73, 95
2, 249360, Note_on_c, 0, 72, 95
2, 249600, Note_off_c, 0, 72, 95
2, 249600, Note_on_c, 0, 70, 95
2, 249840, Note_off_c, 0, 70, 95
2, 249840, Note_on_c, 0, 69, 95
2, 250080, Note_off_c, 0, 69, 95
2, 250080, Note_on_c, 0, 67, 95
2, 250320, Note_off_c, 0, 67, 95
2, 250320, Note_on_c, 0, 65, 95
2, 250560, Note_off_c, 0, 65, 95
2, 250560, Note_on_c, 0, 64, 95
2, 250800, Note_off_c, 0, 64, 95
2, 250800, Note_on_c, 0, 62, 95
2, 251040, Note_off_c, 0, 62, 95
2, 251040, Note_on_c, 0, 73, 95
2, 251280, Note_off_c, 0, 73, 95
2, 251280, Note_on_c, 0, 72, 95
2, 251520, Note_off_c, 0, 72, 95
2, 251520, Note_on_c, 0, 70, 95
2, 251760, Note_off_c, 0, 70, 95
2, 251760, Note_on_c, 0, 69, 95
2, 252000, Note_off_c, 0, 69, 95
2, 252000, Note_on_c, 0, 76, 95
2, 252240, Note_off_c, 0, 76, 95
2, 252240, Note_on_c, 0, 73, 95
2, 252480, Note_off_c, 0, 73, 95
2, 252480, Note_on_c, 1, 81, 95
2, 252640, Pitch_bend_c, 1, 8192
2, 252800, Pitch_bend_c, 1, 8320
2, 252960, Pitch_bend_c, 1, 8192
2, 253120, Pitch_bend_c, 1, 8320
2, 253280, Pitch_bend_c, 1, 8192
2, 253440, Pitch_bend_c, 1, 8320
2, 253440, Pitch_bend_c, 1, 8192
2, 253440, Note_off_c, 1, 81, 95
2, 268800, Pitch_bend_c, 1, 8192
2, 268800, Note_on_c, 1, 83, 95
2, 268896, Pitch_bend_c, 1, 8320
2, 268992, Pitch_bend_c, 1, 8448
2, 269088, Pitch_bend_c, 1, 8576
2, 269184, Pitch_bend_c, 1, 8704
2, 269280, Pitch_bend_c, 1, 8832
2, 269280, Pitch_bend_c, 1, 8832
2, 269760, Pitch_bend_c, 1, 8832
2, 269856, Pitch_bend_c, 1, 8704
2, 269952, Pitch_bend_c, 1, 8576
2, 270048, Pitch_bend_c, 1, 8448
2, 270144, Pitch_bend_c, 1, 8320
2, 270240, Pitch_bend_c, 1, 8192
2, 270240, Pitch_bend_c, 1, 8192
2, 270720, Pitch_bend_c, 1, 8192
2, 270720, Pitch_bend_c, 1, 8192
2, 270720, Note_off_c, 1, 83, 95
2, 270720, Note_on_c, 0, 83, 95
2, 272160, Note_off_c, 0, 83, 95
2, 272160, Note_on_c, 0, 81, 95
2, 272640, Note_off_c, 0, 81, 95
2, 274080, Note_on_c, 0, 76, 95
2, 275520, Note_off_c, 0, 76, 95
2, 275880, Note_on_c, 0, 74, 95
2, 276120, Note_off_c, 0, 74, 95
2, 276120, Note_on_c, 0, 76, 95
2, 276360, Note_off_c, 0, 76, 95
2, 276360, Note_on_c, 0, 77, 95
2, 276840, Note_off_c, 0, 77, 95
2, 276840, Pitch_bend_c, 1, 8192
2, 276840, Note_on_c, 1, 76, 95
2, 276918, Pitch_bend_c, 1, 8320
2, 276996, Pitch_bend_c, 1, 8448
2, 277074, Pitch_bend_c, 1, 8576
2, 277152, Pitch_bend_c, 1, 8704
2, 277230, Pitch_bend_c, 1, 8832
2, 277230, Pitch_bend_c, 1, 8832
2, 277620, Pitch_bend_c, 1, 8832
2, 277698, Pitch_bend_c, 1, 8704
2, 277776, Pitch_bend_c, 1, 8576
2, 277854, Pitch_bend_c, 1, 8448
2, 277932, Pitch_bend_c, 1, 8320
2, 278010, Pitch_bend_c, 1, 8192
2, 278010, Pitch_bend_c, 1, 8192
2, 278400, Pitch_bend_c, 1, 8192
2, 278400, Pitch_bend_c, 1, 8192
2, 278400, Note_off_c, 1, 76, 95
2, 278400, Note_on_c, 0, 74, 95
2, 278880, Note_off_c, 0, 74, 95
2, 278880, Note_on_c, 0, 74, 95
2, 279120, Note_off_c, 0, 74, 95
2, 279120, Note_on_c, 0, 76, 95
2, 279240, Note_off_c, 0, 76, 95
2, 279240, Note_on_c, 0, 74, 70
2, 279360, Note_off_c, 0, 74, 70
2, 279360, Note_on_c, 1, 72, 95
2, 279520, Pitch_bend_c, 1, 8192
2, 279680, Pitch_bend_c, 1, 8320
2, 279840, Pitch_bend_c, 1, 8192
2, 280000, Pitch_bend_c, 1, 8320
2, 280160, Pitch_bend_c, 1, 8192
2, 280320, Pitch_bend_c, 1, 8320
2, 280480, Pitch_bend_c, 1, 8192
2, 280640, Pitch_bend_c, 1, 8320
2, 280800, Pitch_bend_c, 1, 8192
2, 280960, Pitch_bend_c, 1, 8320
2, 281120, Pitch_bend_c, 1, 8192
2, 281280, Pitch_bend_c, 1, 8320
2, 281440, Pitch_bend_c, 1, 8192
2, 281600, Pitch_bend_c, 1, 8320
2, 281760, Pitch_bend_c, 1, 8192
2, 281920, Pitch_bend_c, 1, 8320
2, 282080, Pitch_bend_c, 1, 8192
2, 282240, Pitch_bend_c, 1, 8320
2, 282400, Pitch_bend_c, 1, 8192
2, 282560, Pitch_bend_c, 1, 8320
2, 282720, Pitch_bend_c, 1, 8192
2, 282880, Pitch_bend_c, 1, 8320
2, 283040, Pitch_bend_c, 1, 8192
2, 283200, Pitch_bend_c, 1, 8320
2, 283360, Pitch_bend_c, 1, 8192
2, 283520, Pitch_bend_c, 1, 8320
2, 283680, Pitch_bend_c, 1, 8192
2, 283840, Pitch_bend_c, 1, 8320
2, 284000, Pitch_bend_c, 1, 8192
2, 284160, Pitch_bend_c, 1, 8320
2, 284160, Pitch_bend_c, 1, 8192
2, 284160, Note_off_c, 1, 72, 95
2, 284160, Pitch_bend_c, 1, 8192
2, 284160, Note_on_c, 1, 83, 95
2, 284256, Pitch_bend_c, 1, 8320
2, 284352, Pitch_bend_c, 1, 8448
2, 284448, Pitch_bend_c, 1, 8576
2, 284544, Pitch_bend_c, 1, 8704
2, 284640, Pitch_bend_c, 1, 8832
2, 284640, Pitch_bend_c, 1, 8832
2, 285120, Pitch_bend_c, 1, 8832
2, 285216, Pitch_bend_c, 1, 8704
2, 285312, Pitch_bend_c, 1, 8576
2, 285408, Pitch_bend_c, 1, 8448
2, 285504, Pitch_bend_c, 1, 8320
2, 285600, Pitch_bend_c, 1, 8192
2, 285600, Pitch_bend_c, 1, 8192
2, 286080, Pitch_bend_c, 1, 8192
2, 286080, Pitch_bend_c, 1, 8192
2, 286080, Note_off_c, 1, 83, 95
2, 286080, Note_on_c, 0, 83, 95
2, 287520, Note_off_c, 0, 83, 95
2, 287520, Pitch_bend_c, 1, 8192
2, 287520, Note_on_c, 1, 84, 95
2, 287541, Pitch_bend_c, 1, 8320
2, 287562, Pitch_bend_c, 1, 8448
2, 287583, Pitch_bend_c, 1, 8576
2, 287604, Pitch_bend_c, 1, 8704
2, 287625, Pitch_bend_c, 1, 8832
2, 287646, Pitch_bend_c, 1, 8960
2, 287667, Pitch_bend_c, 1, 9088
2, 287688, Pitch_bend_c, 1, 9216
2, 287709, Pitch_bend_c, 1, 9344
2, 287730, Pitch_bend_c, 1, 9472
2, 287751, Pitch_bend_c, 1, 9600
2, 287760, Pitch_bend_c, 1, 9600
2, 288000, Pitch_bend_c, 1, 9600
2, 288000, Pitch_bend_c, 1, 8192
2, 288000, Note_off_c, 1, 84, 95
2, 289440, Note_on_c, 0, 84, 95
2, 289680, Note_off_c, 0, 84, 95
2, 289680, Note_on_c, 0, 83, 95
2, 289920, Note_off_c, 0, 83, 95
2, 289920, Note_on_c, 1, 81, 95
2, 290080, Pitch_bend_c, 1, 8192
2, 290240, Pitch_bend_c, 1, 8320
2, 290400, Pitch_bend_c, 1, 8192
2, 290560, Pitch_bend_c, 1, 8320
2, 290720, Pitch_bend_c, 1, 8192
2, 290880, Pitch_bend_c, 1, 8320
2, 291040, Pitch_bend_c, 1, 8192
2, 291200, Pitch_bend_c, 1, 8320
2, 291360, Pitch_bend_c, 1, 8192
2, 291520, Pitch_bend_c, 1, 8320
2, 291680, Pitch_bend_c, 1, 8192
2, 291840, Pitch_bend_c, 1, 8320
2, 291840, Pitch_bend_c, 1, 8192
2, 291840, Note_off_c, 1, 81, 95
2, 291840, Pitch_bend_c, 1, 8192
2, 291840, Note_on_c, 1, 83, 95
2, 291888, Pitch_bend_c, 1, 8320
2, 291936, Pitch_bend_c, 1, 8448
2, 291984, Pitch_bend_c, 1, 8576
2, 292032, Pitch_bend_c, 1, 8704
2, 292080, Pitch_bend_c, 1, 8832
2, 292080, Pitch_bend_c, 1, 8832
2, 292320, Pitch_bend_c, 1, 8832
2, 292368, Pitch_bend_c, 1, 8704
2, 292416, Pitch_bend_c, 1, 8576
2, 292464, Pitch_bend_c, 1, 8448
2, 292512, Pitch_bend_c, 1, 8320
2, 292560, Pitch_bend_c, 1, 8192
2, 292560, Pitch_bend_c, 1, 8192
2, 292800, Pitch_bend_c, 1, 8192
2, 292800, Pitch_bend_c, 1, 8192
2, 292800, Note_off_c, 1, 83, 95
2, 292800, Note_on_c, 0, 81, 95
2, 293280, Note_off_c, 0, 81, 95
2, 293280, Note_on_c, 0, 79, 95
2, 293760, Note_off_c, 0, 79, 95
2, 293760, Note_on_c, 0, 77, 95
2, 294240, Note_off_c, 0, 77, 95
2, 294240, Note_on_c, 0, 76, 95
2, 294720, Note_off_c, 0, 76, 95
2, 294720, Note_on_c, 0, 77, 95
2, 295200, Note_off_c, 0, 77, 95
2, 295200, Note_on_c, 0, 76, 95
2, 295320, Note_off_c, 0, 76, 95
2, 295320, Note_on_c, 0, 77, 70
2, 295440, Note_off_c, 0, 77, 70
2, 295440, Note_on_c, 0, 76, 95
2, 297600, Note_off_c, 0, 76, 95
2, 297600, Note_on_c, 0, 72, 95
2, 297720, Note_off_c, 0, 72, 95
2, 297720, Note_on_c, 0, 74, 95
2, 297840, Note_off_c, 0, 74, 95
2, 297840, Note_on_c, 0, 76, 95
2, 297960, Note_off_c, 0, 76, 95
2, 297960, Note_on_c, 0, 77, 95
2, 298080, Note_off_c, 0, 77, 95
2, 298080, Note_on_c, 0, 79, 95
2, 298200, Note_off_c, 0, 79, 95
2, 298200, Note_on_c, 0, 81, 95
2, 298320, Note_off_c, 0, 81, 95
2, 298320, Note_on_c, 0, 79, 95
2, 298440, Note_off_c, 0, 79, 95
2, 298440, Note_on_c, 0, 81, 95
2, 298560, Note_off_c, 0, 81, 95
2, 298560, Note_on_c, 0, 83, 95
2, 298680, Note_off_c, 0, 83, 95
2, 298680, Note_on_c, 0, 79, 95
2, 298800, Note_off_c, 0, 79, 95
2, 298800, Note_on_c, 0, 81, 95
2, 299040, Note_off_c, 0, 81, 95
2, 299040, Pitch_bend_c, 1, 8192
2, 299040, Note_on_c, 1, 83, 95
2, 299160, Pitch_bend_c, 1, 8320
2, 299280, Pitch_bend_c, 1, 8448
2, 299400, Pitch_bend_c, 1, 8576
2, 299520, Pitch_bend_c, 1, 8704
2, 299640, Pitch_bend_c, 1, 8832
2, 299640, Pitch_bend_c, 1, 8832
2, 300240, Pitch_bend_c, 1, 8832
2, 300360, Pitch_bend_c, 1, 8704
2, 300480, Pitch_bend_c, 1, 8576
2, 300600, Pitch_bend_c, 1, 8448
2, 300720, Pitch_bend_c, 1, 8320
2, 300840, Pitch_bend_c, 1, 8192
2, 300840, Pitch_bend_c, 1, 8192
2, 301440, Pitch_bend_c, 1, 8192
2, 301440, Pitch_bend_c, 1, 8192
2, 301440, Note_off_c, 1, 83, 95
2, 301440, Note_on_c, 0, 83, 95
2, 303360, Note_off_c, 0, 83, 95
2, 303360, Note_on_c, 0, 84, 95
2, 305280, Note_off_c, 0, 84, 95
2, 305280, Note_on_c, 0, 86, 95
2, 307200, Note_off_c, 0, 86, 95
2, 308160, Note_on_c, 0, 86, 95
2, 308640, Note_off_c, 0, 86, 95
2, 308640, Pitch_bend_c, 1, 8192
2, 308640, Note_on_c, 1, 86, 95
2, 308694, Pitch_bend_c, 1, 8320
2, 308748, Pitch_bend_c, 1, 8448
2, 308802, Pitch_bend_c, 1, 8576
2, 308856, Pitch_bend_c, 1, 8704
2, 308910, Pitch_bend_c, 1, 8832
2, 308964, Pitch_bend_c, 1, 8960
2, 309018, Pitch_bend_c, 1, 9088
2, 309072, Pitch_bend_c, 1, 9216
2, 309126, Pitch_bend_c, 1, 9344
2, 309180, Pitch_bend_c, 1, 9472
2, 309234, Pitch_bend_c, 1, 9600
2, 309240, Pitch_bend_c, 1, 9600
2, 309840, Pitch_bend_c, 1, 9600
2, 309894, Pitch_bend_c, 1, 9472
2, 309948, Pitch_bend_c, 1, 9344
2, 310002, Pitch_bend_c, 1, 9216
2, 310056, Pitch_bend_c, 1, 9088
2, 310110, Pitch_bend_c, 1, 8960
2, 310164, Pitch_bend_c, 1, 8832
2, 310218, Pitch_bend_c, 1, 8704
2, 310272, Pitch_bend_c, 1, 8576
2, 310326, Pitch_bend_c, 1, 8448
2, 310380, Pitch_bend_c, 1, 8320
2, 310434, Pitch_bend_c, 1, 8192
2, 310440, Pitch_bend_c, 1, 8192
2, 311040, Pitch_bend_c, 1, 8192
2, 311040, Pitch_bend_c, 1, 8192
2, 311040, Note_off_c, 1, 86, 95
2, 311040, Note_on_c, 0, 84, 95
2, 311520, Note_off_c, 0, 84, 95
2, 311520, Note_on_c, 0, 86, 95
2, 312000, Note_off_c, 0, 86, 95
2, 312000, Note_on_c, 0, 88, 95
2, 312960, Note_off_c, 0, 88, 95
2, 312960, Pitch_bend_c, 1, 8192
2, 312960, Note_on_c, 1, 88, 95
2, 313056, Pitch_bend_c, 1, 8320
2, 313152, Pitch_bend_c, 1, 8448
2, 313248, Pitch_bend_c, 1, 8576
2, 313344, Pitch_bend_c, 1, 8704
2, 313440, Pitch_bend_c, 1, 8832
2, 313440, Pitch_bend_c, 1, 8832
2, 313920, Pitch_bend_c, 1, 8832
2, 314400, Pitch_bend_c, 1, 8832
2, 314464, Pitch_bend_c, 1, 8704
2, 314528, Pitch_bend_c, 1, 8576
2, 314592, Pitch_bend_c, 1, 8448
2, 314656, Pitch_bend_c, 1, 8320
2, 314720, Pitch_bend_c, 1, 8192
2, 314720, Pitch_bend_c, 1, 8192
2, 314880, Pitch_bend_c, 1, 8192
2, 314880, Pitch_bend_c, 1, 8192
2, 314880, Note_off_c, 1, 88, 95
2, 316800, Note_on_c, 0, 88, 95
2, 318720, Note_off_c, 0, 88, 95
2, 320160, Note_on_c, 0, 86, 95
2, 320640, Note_off_c, 0, 86, 95
2, 320640, Note_on_c, 0, 86, 95
2, 322560, Note_off_c, 0, 86, 95
2, 324000, Note_on_c, 0, 84, 95
2, 324480, Note_off_c, 0, 84, 95
2, 324480, Note_on_c, 0, 84, 95
2, 327360, Note_off_c, 0, 84, 95
2, 327360, Note_on_c, 0, 84, 95
2, 329280, Note_off_c, 0, 84, 95
2, 329280, Pitch_bend_c, 1, 8192
2, 329280, Note_on_c, 1, 84, 95
2, 329410, Pitch_bend_c, 1, 8320
2, 329540, Pitch_bend_c, 1, 8448
2, 329670, Pitch_bend_c, 1, 8576
2, 329800, Pitch_bend_c, 1, 8704
2, 329930, Pitch_bend_c, 1, 8832
2, 330060, Pitch_bend_c, 1, 8960
2, 330190, Pitch_bend_c, 1, 9088
2, 330320, Pitch_bend_c, 1, 9216
2, 330450, Pitch_bend_c, 1, 9344
2, 330580, Pitch_bend_c, 1, 9472
2, 330710, Pitch_bend_c, 1, 9600
2, 330720, Pitch_bend_c, 1, 9600
2, 332160, Pitch_bend_c, 1, 9600
2, 332160, Pitch_bend_c, 1, 8192
2, 332160, Note_off_c, 1, 84, 95
2, 332160, Pitch_bend_c, 1, 8192
2, 332160, Note_on_c, 1, 86, 95
2, 332225, Pitch_bend_c, 1, 8320
2, 332290, Pitch_bend_c, 1, 8448
2, 332355, Pitch_bend_c, 1, 8576
2, 332420, Pitch_bend_c, 1, 8704
2, 332485, Pitch_bend_c, 1, 8832
2, 332550, Pitch_bend_c, 1, 8960
2, 332615, Pitch_bend_c, 1, 9088
2, 332680, Pitch_bend_c, 1, 9216
2, 332745, Pitch_bend_c, 1, 9344
2, 332810, Pitch_bend_c, 1, 9472
2, 332875, Pitch_bend_c, 1, 9600
2, 332880, Pitch_bend_c, 1, 9600
2, 333360, Pitch_bend_c, 1, 9600
2, 333403, Pitch_bend_c, 1, 9472
2, 333446, Pitch_bend_c, 1, 9344
2, 333489, Pitch_bend_c, 1, 9216
2, 333532, Pitch_bend_c, 1, 9088
2, 333575, Pitch_bend_c, 1, 8960
2, 333618, Pitch_bend_c, 1, 8832
2, 333661, Pitch_bend_c, 1, 8704
2, 333704, Pitch_bend_c, 1, 8576
2, 333747, Pitch_bend_c, 1, 8448
2, 333790, Pitch_bend_c, 1, 8320
2, 333833, Pitch_bend_c, 1, 8192
2, 333840, Pitch_bend_c, 1, 8192
2, 334320, Pitch_bend_c, 1, 8192
2, 335040, Pitch_bend_c, 1, 8192
2, 335040, Pitch_bend_c, 1, 8192
2, 335040, Note_off_c, 1, 86, 95
2, 335040, Pitch_bend_c, 1, 8192
2, 335040, Note_on_c, 1, 86, 95
2, 336000, Pitch_bend_c, 1, 8192
2, 336096, Pitch_bend_c, 1, 8064
2, 336192, Pitch_bend_c, 1, 7936
2, 336288, Pitch_bend_c, 1, 7808
2, 336384, Pitch_bend_c, 1, 7680
2, 336480, Pitch_bend_c, 1, 7552
2, 336480, Pitch_bend_c, 1, 7552
2, 336560, Pitch_bend_c, 1, 7424
2, 336640, Pitch_bend_c, 1, 7296
2, 336720, Pitch_bend_c, 1, 7168
2, 336800, Pitch_bend_c, 1, 7040
2, 336880, Pitch_bend_c, 1, 6912
2, 336960, Pitch_bend_c, 1, 6784
2, 336960, Pitch_bend_c, 1, 6784
2, 336960, Pitch_bend_c, 1, 8192
2, 336960, Note_off_c, 1, 86, 95
2, 336960, Pitch_bend_c, 1, 8192
2, 336960, Note_on_c, 1, 61, 95
2, 337008, Pitch_bend_c, 1, 8320
2, 337056, Pitch_bend_c, 1, 8448
2, 337104, Pitch_bend_c, 1, 8576
2, 337152, Pitch_bend_c, 1, 8704
2, 337200, Pitch_bend_c, 1, 8832
2, 337200, Pitch_bend_c, 1, 8832
2, 337440, Pitch_bend_c, 1, 8832
2, 337488, Pitch_bend_c, 1, 8704
2, 337536, Pitch_bend_c, 1, 8576
2, 337584, Pitch_bend_c, 1, 8448
2, 337632, Pitch_bend_c, 1, 8320
2, 337680, Pitch_bend_c, 1, 8192
2, 337680, Pitch_bend_c, 1, 8192
2, 337920, Pitch_bend_c, 1, 8192
2, 337920, Pitch_bend_c, 1, 8192
2, 337920, Note_off_c, 1, 61, 95
2, 337920, Note_on_c, 0, 45, 95
2, 338400, Note_off_c, 0, 45, 95
2, 338400, Note_on_c, 0, 40, 95
2, 338880, Note_off_c, 0, 40, 95
2, 338880, Note_on_c, 0, 55, 95
2, 339360, Note_off_c, 0, 55, 95
2, 339360, Note_on_c, 0, 57, 95
2, 339840, Note_off_c, 0, 57, 95
2, 339840, Note_on_c, 0, 45, 95
2, 340320, Note_off_c, 0, 45, 95
2, 340320, Pitch_bend_c, 1, 8192
2, 340320, Note_on_c, 1, 61, 95
2, 340368, Pitch_bend_c, 1, 8320
2, 340416, Pitch_bend_c, 1, 8448
2, 340464, Pitch_bend_c, 1, 8576
2, 340512, Pitch_bend_c, 1, 8704
2, 340560, Pitch_bend_c, 1, 8832
2, 340560, Pitch_bend_c, 1, 8832
2, 340800, Pitch_bend_c, 1, 8832
2, 340848, Pitch_bend_c, 1, 8704
2, 340896, Pitch_bend_c, 1, 8576
2, 340944, Pitch_bend_c, 1, 8448
2, 340992, Pitch_bend_c, 1, 8320
2, 341040, Pitch_bend_c, 1, 8192
2, 341040, Pitch_bend_c, 1, 8192
2, 341280, Pitch_bend_c, 1, 8192
2, 341280, Pitch_bend_c, 1, 8192
2, 341280, Note_off_c, 1, 61, 95
2, 341280, Note_on_c, 0, 45, 95
2, 342240, Note_off_c, 0, 45, 95
2, 342240, Note_on_c, 0, 55, 95
2, 342720, Note_off_c, 0, 55, 95
2, 342720, Note_on_c, 0, 57, 95
2, 343200, Note_off_c, 0, 57, 95
2, 343200, Note_on_c, 0, 45, 95
2, 343680, Note_off_c, 0, 45, 95
2, 343680, Note_on_c, 0, 49, 95
2, 343920, Note_off_c, 0, 49, 95
2, 343920, Note_on_c, 0, 50, 95
2, 344160, Note_off_c, 0, 50, 95
2, 344160, Note_on_c, 0, 52, 95
2, 344640, Note_off_c, 0, 52, 95
2, 344640, Pitch_bend_c, 1, 8192
2, 344640, Note_on_c, 1, 61, 95
2, 344688, Pitch_bend_c, 1, 8320
2, 344736, Pitch_bend_c, 1, 8448
2, 344784, Pitch_bend_c, 1, 8576
2, 344832, Pitch_bend_c, 1, 8704
2, 344880, Pitch_bend_c, 1, 8832
2, 344880, Pitch_bend_c, 1, 8832
2, 345120, Pitch_bend_c, 1, 8832
2, 345168, Pitch_bend_c, 1, 8704
2, 345216, Pitch_bend_c, 1, 8576
2, 345264, Pitch_bend_c, 1, 8448
2, 345312, Pitch_bend_c, 1, 8320
2, 345360, Pitch_bend_c, 1, 8192
2, 345360, Pitch_bend_c, 1, 8192
2, 345600, Pitch_bend_c, 1, 8192
2, 345600, Pitch_bend_c, 1, 8192
2, 345600, Note_off_c, 1, 61, 95
2, 345600, Note_on_c, 0, 45, 95
2, 346080, Note_off_c, 0, 45, 95
2, 346080, Note_on_c, 0, 40, 95
2, 346560, Note_off_c, 0, 40, 95
2, 346560, Note_on_c, 0, 55, 95
2, 347040, Note_off_c, 0, 55, 95
2, 347040, Note_on_c, 0, 57, 95
2, 347520, Note_off_c, 0, 57, 95
2, 348000, Note_on_c, 1, 57, 95
2, 348160, Pitch_bend_c, 1, 8192
2, 348320, Pitch_bend_c, 1, 8320
2, 348480, Pitch_bend_c, 1, 8192
2, 348640, Pitch_bend_c, 1, 8320
2, 348800, Pitch_bend_c, 1, 8192
2, 348960, Pitch_bend_c, 1, 8320
2, 348960, Pitch_bend_c, 1, 8192
2, 348960, Note_off_c, 1, 57, 95
2, 348960, Note_on_c, 0, 45, 95
2, 349440, Note_off_c, 0, 45, 95
2, 349440, Note_on_c, 0, 46, 95
2, 349920, Note_off_c, 0, 46, 95
2, 349920, Note_on_c, 0, 49, 95
2, 350400, Note_off_c, 0, 49, 95
2, 350400, Note_on_c, 0, 50, 95
2, 350880, Note_off_c, 0, 50, 95
2, 350880, Note_on_c, 0, 53, 95
2, 351360, Note_off_c, 0, 53, 95
2, 351360, Note_on_c, 0, 52, 95
2, 351480, Note_off_c, 0, 52, 95
2, 351480, Note_on_c, 0, 53, 70
2, 351600, Note_off_c, 0, 53, 70
2, 351600, Note_on_c, 0, 52, 70
2, 351840, Note_off_c, 0, 52, 70
2, 351840, Note_on_c, 0, 50, 95
2, 352320, Note_off_c, 0, 50, 95
2, 352320, Pitch_bend_c, 1, 8192
2, 352320, Note_on_c, 1, 61, 95
2, 352368, Pitch_bend_c, 1, 8320
2, 352416, Pitch_bend_c, 1, 8448
2, 352464, Pitch_bend_c, 1, 8576
2, 352512, Pitch_bend_c, 1, 8704
2, 352560, Pitch_bend_c, 1, 8832
2, 352560, Pitch_bend_c, 1, 8832
2, 352800, Pitch_bend_c, 1, 8832
2, 352848, Pitch_bend_c, 1, 8704
2, 352896, Pitch_bend_c, 1, 8576
2, 352944, Pitch_bend_c, 1, 8448
2, 352992, Pitch_bend_c, 1, 8320
2, 353040, Pitch_bend_c, 1, 8192
2, 353040, Pitch_bend_c, 1, 8192
2, 353280, Pitch_bend_c, 1, 8192
2, 353280, Pitch_bend_c, 1, 8192
2, 353280, Note_off_c, 1, 61, 95
2, 353280, Note_on_c, 0, 45, 95
2, 353760, Note_off_c, 0, 45, 95
2, 353760, Note_on_c, 0, 40, 95
2, 354240, Note_off_c, 0, 40, 95
2, 354240, Note_on_c, 0, 55, 95
2, 354720, Note_off_c, 0, 55, 95
2, 354720, Note_on_c, 0, 57, 95
2, 355200, Note_off_c, 0, 57, 95
2, 355200, Note_on_c, 0, 45, 95
2, 355680, Note_off_c, 0, 45, 95
2, 355680, Pitch_bend_c, 1, 8192
2, 355680, Note_on_c, 1, 61, 95
2, 355728, Pitch_bend_c, 1, 8320
2, 355776, Pitch_bend_c, 1, 8448
2, 355824, Pitch_bend_c, 1, 8576
2, 355872, Pitch_bend_c, 1, 8704
2, 355920, Pitch_bend_c, 1, 8832
2, 355920, Pitch_bend_c, 1, 8832
2, 356160, Pitch_bend_c, 1, 8832
2, 356208, Pitch_bend_c, 1, 8704
2, 356256, Pitch_bend_c, 1, 8576
2, 356304, Pitch_bend_c, 1, 8448
2, 356352, Pitch_bend_c, 1, 8320
2, 356400, Pitch_bend_c, 1, 8192
2, 356400, Pitch_bend_c, 1, 8192
2, 356640, Pitch_bend_c, 1, 8192
2, 356640, Pitch_bend_c, 1, 8192
2, 356640, Note_off_c, 1, 61, 95
2, 356640, Note_on_c, 0, 57, 95
2, 357120, Note_off_c, 0, 57, 95
2, 357120, Note_on_c, 0, 61, 95
2, 357600, Note_off_c, 0, 61, 95
2, 357600, Note_on_c, 1, 62, 95
2, 357720, Pitch_bend_c, 1, 8960
2, 357840, Pitch_bend_c, 1, 9856
2, 357960, Pitch_bend_c, 1, 10752
2, 358080, Pitch_bend_c, 1, 11648
2, 358080, Pitch_bend_c, 1, 8192
2, 358080, Note_off_c, 1, 62, 95
2, 358080, Note_on_c, 1, 67, 95
2, 358200, Pitch_bend_c, 1, 7680
2, 358320, Pitch_bend_c, 1, 7168
2, 358440, Pitch_bend_c, 1, 6656
2, 358560, Pitch_bend_c, 1, 6144
2, 358560, Pitch_bend_c, 1, 8192
2, 358560, Note_off_c, 1, 67, 95
2, 358560, Note_on_c, 0, 64, 95
2, 359040, Note_off_c, 0, 64, 95
2, 359040, Note_on_c, 0, 58, 95
2, 359520, Note_off_c, 0, 58, 95
2, 359520, Note_on_c, 0, 57, 95
2, 360000, Note_off_c, 0, 57, 95
2, 360000, Pitch_bend_c, 1, 8192
2, 360000, Note_on_c, 1, 61, 95
2, 360048, Pitch_bend_c, 1, 8320
2, 360096, Pitch_bend_c, 1, 8448
2, 360144, Pitch_bend_c, 1, 8576
2, 360192, Pitch_bend_c, 1, 8704
2, 360240, Pitch_bend_c, 1, 8832
2, 360240, Pitch_bend_c, 1, 8832
2, 360480, Pitch_bend_c, 1, 8832
2, 360528, Pitch_bend_c, 1, 8704
2, 360576, Pitch_bend_c, 1, 8576
2, 360624, Pitch_bend_c, 1, 8448
2, 360672, Pitch_bend_c, 1, 8320
2, 360720, Pitch_bend_c, 1, 8192
2, 360720, Pitch_bend_c, 1, 8192
2, 360960, Pitch_bend_c, 1, 8192
2, 360960, Pitch_bend_c, 1, 8192
2, 360960, Note_off_c, 1, 61, 95
2, 360960, Note_on_c, 0, 45, 95
2, 361440, Note_off_c, 0, 45, 95
2, 361440, Note_on_c, 0, 40, 95
2, 361920, Note_off_c, 0, 40, 95
2, 361920, Note_on_c, 0, 55, 95
2, 362400, Note_off_c, 0, 55, 95
2, 362400, Note_on_c, 0, 57, 95
2, 362880, Note_off_c, 0, 57, 95
2, 363360, Note_on_c, 1, 57, 95
2, 363520, Pitch_bend_c, 1, 8192
2, 363680, Pitch_bend_c, 1, 8320
2, 363840, Pitch_bend_c, 1, 8192
2, 364000, Pitch_bend_c, 1, 8320
2, 364160, Pitch_bend_c, 1, 8192
2, 364320, Pitch_bend_c, 1, 8320
2, 364480, Pitch_bend_c, 1, 8192
2, 364640, Pitch_bend_c, 1, 8320
2, 364800, Pitch_bend_c, 1, 8192
2, 364800, Pitch_bend_c, 1, 8320
2, 364800, Pitch_bend_c, 1, 8192
2, 364800, Note_off_c, 1, 57, 95
2, 399360, Control_c, 1, 11, 31
2, 399360, Pitch_bend_c, 1, 8192
2, 399360, Note_on_c, 1, 86, 95
2, 399380, Control_c, 1, 11, 32
2, 399400, Control_c, 1, 11, 33
2, 399420, Control_c, 1, 11, 34
2, 399420, Pitch_bend_c, 1, 8320
2, 399440, Control_c, 1, 11, 35
2, 399460, Control_c, 1, 11, 36
2, 399480, Control_c, 1, 11, 37
2, 399480, Pitch_bend_c, 1, 8448
2, 399500, Control_c, 1, 11, 38
2, 399520, Control_c, 1, 11, 39
2, 399540, Control_c, 1, 11, 40
2, 399540, Pitch_bend_c, 1, 8576
2, 399560, Control_c, 1, 11, 41
2, 399580, Control_c, 1, 11, 42
2, 399600, Control_c, 1, 11, 43
2, 399600, Pitch_bend_c, 1, 8704
2, 399620, Control_c, 1, 11, 44
2, 399640, Control_c, 1, 11, 45
2, 399660, Control_c, 1, 11, 46
2, 399660, Pitch_bend_c, 1, 8832
2, 399680, Control_c, 1, 11, 47
2, 399700, Control_c, 1, 11, 48
2, 399720, Control_c, 1, 11, 49
2, 399720, Pitch_bend_c, 1, 8960
2, 399740, Control_c, 1, 11, 50
2, 399760, Control_c, 1, 11, 51
2, 399780, Control_c, 1, 11, 52
2, 399780, Pitch_bend_c, 1, 9088
2, 399800, Control_c, 1, 11, 53
2, 399820, Control_c, 1, 11, 54
2, 399840, Control_c, 1, 11, 55
2, 399840, Pitch_bend_c, 1, 9216
2, 399860, Control_c, 1, 11, 56
2, 399880, Control_c, 1, 11, 57
2, 399900, Control_c, 1, 11, 58
2, 399900, Pitch_bend_c, 1, 9344
2, 399920, Control_c, 1, 11, 59
2, 399940, Control_c, 1, 11, 60
2, 399960, Control_c, 1, 11, 61
2, 399960, Pitch_bend_c, 1, 9472
2, 399980, Control_c, 1, 11, 62
2, 400000, Control_c, 1, 11, 63
2, 400020, Control_c, 1, 11, 64
2, 400020, Pitch_bend_c, 1, 9600
2, 400040, Control_c, 1, 11, 65
2, 400060, Control_c, 1, 11, 66
2, 400080, Control_c, 1, 11, 67
2, 400080, Pitch_bend_c, 1, 9728
2, 400100, Control_c, 1, 11, 68
2, 400120, Control_c, 1, 11, 69
2, 400140, Control_c, 1, 11, 70
2, 400140, Pitch_bend_c, 1, 9856
2, 400160, Control_c, 1, 11, 71
2, 400180, Control_c, 1, 11, 72
2, 400200, Control_c, 1, 11, 73
2, 400200, Pitch_bend_c, 1, 9984
2, 400220, Control_c, 1, 11, 74
2, 400240, Control_c, 1, 11, 75
2, 400260, Control_c, 1, 11, 76
2, 400260, Pitch_bend_c, 1, 10112
2, 400280, Control_c, 1, 11, 77
2, 400300, Control_c, 1, 11, 78
2, 400320, Control_c, 1, 11, 79
2, 400320, Pitch_bend_c, 1, 10240
2, 400320, Pitch_bend_c, 1, 10240
2, 400340, Control_c, 1, 11, 80
2, 400360, Control_c, 1, 11, 81
2, 400380, Control_c, 1, 11, 82
2, 400400, Control_c, 1, 11, 83
2, 400420, Control_c, 1, 11, 84
2, 400440, Control_c, 1, 11, 85
2, 400460, Control_c, 1, 11, 86
2, 400480, Control_c, 1, 11, 87
2, 400500, Control_c, 1, 11, 88
2, 400520, Control_c, 1, 11, 89
2, 400540, Control_c, 1, 11, 90
2, 400560, Control_c, 1, 11, 91
2, 400580, Control_c, 1, 11, 92
2, 400600, Control_c, 1, 11, 93
2, 400620, Control_c, 1, 11, 94
2, 400640, Control_c, 1, 11, 95
2, 400660, Control_c, 1, 11, 96
2, 400680, Control_c, 1, 11, 97
2, 400700, Control_c, 1, 11, 98
2, 400720, Control_c, 1, 11, 99
2, 400740, Control_c, 1, 11, 100
2, 400760, Control_c, 1, 11, 101
2, 400780, Control_c, 1, 11, 102
2, 400800, Control_c, 1, 11, 103
2, 400820, Control_c, 1, 11, 104
2, 400840, Control_c, 1, 11, 105
2, 400860, Control_c, 1, 11, 106
2, 400880, Control_c, 1, 11, 107
2, 400900, Control_c, 1, 11, 108
2, 400920, Control_c, 1, 11, 109
2, 400940, Control_c, 1, 11, 110
2, 400960, Control_c, 1, 11, 111
2, 400980, Control_c, 1, 11, 112
2, 401000, Control_c, 1, 11, 113
2, 401020, Control_c, 1, 11, 114
2, 401040, Control_c, 1, 11, 115
2, 401060, Control_c, 1, 11, 116
2, 401080, Control_c, 1, 11, 117
2, 401100, Control_c, 1, 11, 118
2, 401120, Control_c, 1, 11, 119
2, 401140, Control_c, 1, 11, 120
2, 401160, Control_c, 1, 11, 121
2, 401180, Control_c, 1, 11, 122
2, 401200, Control_c, 1, 11, 123
2, 401220, Control_c, 1, 11, 124
2, 401240, Control_c, 1, 11, 125
2, 401260, Control_c, 1, 11, 126
2, 401280, Control_c, 1, 11, 127
2, 401280, Pitch_bend_c, 1, 10240
2, 401280, Pitch_bend_c, 1, 8192
2, 401280, Note_off_c, 1, 86, 95
2, 403200, Control_c, 1, 11, 31
2, 403200, Pitch_bend_c, 1, 8832
2, 403200, Note_on_c, 1, 81, 95
2, 403215, Control_c, 1, 11, 32
2, 403230, Control_c, 1, 11, 33
2, 403245, Control_c, 1, 11, 34
2, 403260, Control_c, 1, 11, 35
2, 403275, Control_c, 1, 11, 36
2, 403290, Control_c, 1, 11, 37
2, 403305, Control_c, 1, 11, 38
2, 403320, Control_c, 1, 11, 39
2, 403335, Control_c, 1, 11, 40
2, 403350, Control_c, 1, 11, 41
2, 403365, Control_c, 1, 11, 42
2, 403380, Control_c, 1, 11, 43
2, 403395, Control_c, 1, 11, 44
2, 403410, Control_c, 1, 11, 45
2, 403425, Control_c, 1, 11, 46
2, 403440, Control_c, 1, 11, 47
2, 403455, Control_c, 1, 11, 48
2, 403470, Control_c, 1, 11, 49
2, 403485, Control_c, 1, 11, 50
2, 403500, Control_c, 1, 11, 51
2, 403515, Control_c, 1, 11, 52
2, 403530, Control_c, 1, 11, 53
2, 403545, Control_c, 1, 11, 54
2, 403560, Control_c, 1, 11, 55
2, 403575, Control_c, 1, 11, 56
2, 403590, Control_c, 1, 11, 57
2, 403605, Control_c, 1, 11, 58
2, 403620, Control_c, 1, 11, 59
2, 403635, Control_c, 1, 11, 60
2, 403650, Control_c, 1, 11, 61
2, 403665, Control_c, 1, 11, 62
2, 403680, Control_c, 1, 11, 63
2, 403680, Pitch_bend_c, 1, 8832
2, 403695, Control_c, 1, 11, 64
2, 403710, Control_c, 1, 11, 65
2, 403725, Control_c, 1, 11, 66
2, 403740, Control_c, 1, 11, 67
2, 403755, Control_c, 1, 11, 68
2, 403770, Control_c, 1, 11, 69
2, 403776, Pitch_bend_c, 1, 8704
2, 403785, Control_c, 1, 11, 70
2, 403800, Control_c, 1, 11, 71
2, 403815, Control_c, 1, 11, 72
2, 403830, Control_c, 1, 11, 73
2, 403845, Control_c, 1, 11, 74
2, 403860, Control_c, 1, 11, 75
2, 403872, Pitch_bend_c, 1, 8576
2, 403875, Control_c, 1, 11, 76
2, 403890, Control_c, 1, 11, 77
2, 403905, Control_c, 1, 11, 78
2, 403920, Control_c, 1, 11, 79
2, 403935, Control_c, 1, 11, 80
2, 403950, Control_c, 1, 11, 81
2, 403965, Control_c, 1, 11, 82
2, 403968, Pitch_bend_c, 1, 8448
2, 403980, Control_c, 1, 11, 83
2, 403995, Control_c, 1, 11, 84
2, 404010, Control_c, 1, 11, 85
2, 404025, Control_c, 1, 11, 86
2, 404040, Control_c, 1, 11, 87
2, 404055, Control_c, 1, 11, 88
2, 404064, Pitch_bend_c, 1, 8320
2, 404070, Control_c, 1, 11, 89
2, 404085, Control_c, 1, 11, 90
2, 404100, Control_c, 1, 11, 91
2, 404115, Control_c, 1, 11, 92
2, 404130, Control_c, 1, 11, 93
2, 404145, Control_c, 1, 11, 94
2, 404160, Control_c, 1, 11, 95
2, 404160, Pitch_bend_c, 1, 8192
2, 404160, Pitch_bend_c, 1, 8192
2, 404175, Control_c, 1, 11, 96
2, 404190, Control_c, 1, 11, 97
2, 404205, Control_c, 1, 11, 98
2, 404220, Control_c, 1, 11, 99
2, 404235, Control_c, 1, 11, 100
2, 404250, Control_c, 1, 11, 101
2, 404265, Control_c, 1, 11, 102
2, 404280, Control_c, 1, 11, 103
2, 404295, Control_c, 1, 11, 104
2, 404310, Control_c, 1, 11, 105
2, 404325, Control_c, 1, 11, 106
2, 404340, Control_c, 1, 11, 107
2, 404355, Control_c, 1, 11, 108
2, 404370, Control_c, 1, 11, 109
2, 404385, Control_c, 1, 11, 110
2, 404400, Control_c, 1, 11, 111
2, 404415, Control_c, 1, 11, 112
2, 404430, Control_c, 1, 11, 113
2, 404445, Control_c, 1, 11, 114
2, 404460, Control_c, 1, 11, 115
2, 404475, Control_c, 1, 11, 116
2, 404490, Control_c, 1, 11, 117
2, 404505, Control_c, 1, 11, 118
2, 404520, Control_c, 1, 11, 119
2, 404535, Control_c, 1, 11, 120
2, 404550, Control_c, 1, 11, 121
2, 404565, Control_c, 1, 11, 122
2, 404580, Control_c, 1, 11, 123
2, 404595, Control_c, 1, 11, 124
2, 404610, Control_c, 1, 11, 125
2, 404625, Control_c, 1, 11, 126
2, 404640, Control_c, 1, 11, 127
2, 404640, Pitch_bend_c, 1, 8192
2, 404640, Pitch_bend_c, 1, 8192
2, 404640, Note_off_c, 1, 81, 95
2, 405600, Control_c, 1, 11, 31
2, 405600, Pitch_bend_c, 1, 8192
2, 405600, Note_on_c, 1, 73, 95
2, 405645, Control_c, 1, 11, 32
2, 405690, Control_c, 1, 11, 33
2, 405735, Control_c, 1, 11, 34
2, 405780, Control_c, 1, 11, 35
2, 405825, Control_c, 1, 11, 36
2, 405870, Control_c, 1, 11, 37
2, 405915, Control_c, 1, 11, 38
2, 405960, Control_c, 1, 11, 39
2, 406005, Control_c, 1, 11, 40
2, 406032, Pitch_bend_c, 1, 8320
2, 406050, Control_c, 1, 11, 41
2, 406095, Control_c, 1, 11, 42
2, 406140, Control_c, 1, 11, 43
2, 406185, Control_c, 1, 11, 44
2, 406230, Control_c, 1, 11, 45
2, 406275, Control_c, 1, 11, 46
2, 406320, Control_c, 1, 11, 47
2, 406365, Control_c, 1, 11, 48
2, 406410, Control_c, 1, 11, 49
2, 406455, Control_c, 1, 11, 50
2, 406464, Pitch_bend_c, 1, 8448
2, 406500, Control_c, 1, 11, 51
2, 406545, Control_c, 1, 11, 52
2, 406590, Control_c, 1, 11, 53
2, 406635, Control_c, 1, 11, 54
2, 406680, Control_c, 1, 11, 55
2, 406725, Control_c, 1, 11, 56
2, 406770, Control_c, 1, 11, 57
2, 406815, Control_c, 1, 11, 58
2, 406860, Control_c, 1, 11, 59
2, 406896, Pitch_bend_c, 1, 8576
2, 406905, Control_c, 1, 11, 60
2, 406950, Control_c, 1, 11, 61
2, 406995, Control_c, 1, 11, 62
2, 407040, Control_c, 1, 11, 63
2, 407085, Control_c, 1, 11, 64
2, 407130, Control_c, 1, 11, 65
2, 407175, Control_c, 1, 11, 66
2, 407220, Control_c, 1, 11, 67
2, 407265, Control_c, 1, 11, 68
2, 407310, Control_c, 1, 11, 69
2, 407328, Pitch_bend_c, 1, 8704
2, 407355, Control_c, 1, 11, 70
2, 407400, Control_c, 1, 11, 71
2, 407445, Control_c, 1, 11, 72
2, 407490, Control_c, 1, 11, 73
2, 407535, Control_c, 1, 11, 74
2, 407580, Control_c, 1, 11, 75
2, 407625, Control_c, 1, 11, 76
2, 407670, Control_c, 1, 11, 77
2, 407715, Control_c, 1, 11, 78
2, 407760, Control_c, 1, 11, 79
2, 407760, Pitch_bend_c, 1, 8832
2, 407760, Pitch_bend_c, 1, 8832
2, 407805, Control_c, 1, 11, 80
2, 407850, Control_c, 1, 11, 81
2, 407895, Control_c, 1, 11, 82
2, 407940, Control_c, 1, 11, 83
2, 407985, Control_c, 1, 11, 84
2, 408030, Control_c, 1, 11, 85
2, 408075, Control_c, 1, 11, 86
2, 408120, Control_c, 1, 11, 87
2, 408165, Control_c, 1, 11, 88
2, 408210, Control_c, 1, 11, 89
2, 408255, Control_c, 1, 11, 90
2, 408300, Control_c, 1, 11, 91
2, 408345, Control_c, 1, 11, 92
2, 408390, Control_c, 1, 11, 93
2, 408435, Control_c, 1, 11, 94
2, 408480, Control_c, 1, 11, 95
2, 408525, Control_c, 1, 11, 96
2, 408570, Control_c, 1, 11, 97
2, 408615, Control_c, 1, 11, 98
2, 408660, Control_c, 1, 11, 99
2, 408705, Control_c, 1, 11, 100
2, 408750, Control_c, 1, 11, 101
2, 408795, Control_c, 1, 11, 102
2, 408840, Control_c, 1, 11, 103
2, 408885, Control_c, 1, 11, 104
2, 408930, Control_c, 1, 11, 105
2, 408975, Control_c, 1, 11, 106
2, 409020, Control_c, 1, 11, 107
2, 409065, Control_c, 1, 11, 108
2, 409110, Control_c, 1, 11, 109
2, 409155, Control_c, 1, 11, 110
2, 409200, Control_c, 1, 11, 111
2, 409245, Control_c, 1, 11, 112
2, 409290, Control_c, 1, 11, 113
2, 409335, Control_c, 1, 11, 114
2, 409380, Control_c, 1, 11, 115
2, 409425, Control_c, 1, 11, 116
2, 409470, Control_c, 1, 11, 117
2, 409515, Control_c, 1, 11, 118
2, 409560, Control_c, 1, 11, 119
2, 409605, Control_c, 1, 11, 120
2, 409650, Control_c, 1, 11, 121
2, 409695, Control_c, 1, 11, 122
2, 409740, Control_c, 1, 11, 123
2, 409785, Control_c, 1, 11, 124
2, 409830, Control_c, 1, 11, 125
2, 409875, Control_c, 1, 11, 126
2, 409920, Control_c, 1, 11, 127
2, 409920, Pitch_bend_c, 1, 8832
2, 409920, Pitch_bend_c, 1, 8192
2, 409920, Note_off_c, 1, 73, 95
2, 411360, Control_c, 1, 11, 31
2, 411360, Pitch_bend_c, 1, 11008
2, 411360, Note_on_c, 1, 65, 95
2, 411385, Control_c, 1, 11, 32
2, 411410, Control_c, 1, 11, 33
2, 411435, Control_c, 1, 11, 34
2, 411460, Control_c, 1, 11, 35
2, 411485, Control_c, 1, 11, 36
2, 411510, Control_c, 1, 11, 37
2, 411535, Control_c, 1, 11, 38
2, 411560, Control_c, 1, 11, 39
2, 411585, Control_c, 1, 11, 40
2, 411610, Control_c, 1, 11, 41
2, 411635, Control_c, 1, 11, 42
2, 411660, Control_c, 1, 11, 43
2, 411685, Control_c, 1, 11, 44
2, 411710, Control_c, 1, 11, 45
2, 411735, Control_c, 1, 11, 46
2, 411760, Control_c, 1, 11, 47
2, 411785, Control_c, 1, 11, 48
2, 411810, Control_c, 1, 11, 49
2, 411835, Control_c, 1, 11, 50
2, 411860, Control_c, 1, 11, 51
2, 411885, Control_c, 1, 11, 52
2, 411910, Control_c, 1, 11, 53
2, 411935, Control_c, 1, 11, 54
2, 411960, Control_c, 1, 11, 55
2, 411985, Control_c, 1, 11, 56
2, 412010, Control_c, 1, 11, 57
2, 412035, Control_c, 1, 11, 58
2, 412060, Control_c, 1, 11, 59
2, 412085, Control_c, 1, 11, 60
2, 412110, Control_c, 1, 11, 61
2, 412135, Control_c, 1, 11, 62
2, 412160, Control_c, 1, 11, 63
2, 412160, Pitch_bend_c, 1, 11008
2, 412185, Control_c, 1, 11, 64
2, 412196, Pitch_bend_c, 1, 10880
2, 412210, Control_c, 1, 11, 65
2, 412232, Pitch_bend_c, 1, 10752
2, 412235, Control_c, 1, 11, 66
2, 412260, Control_c, 1, 11, 67
2, 412268, Pitch_bend_c, 1, 10624
2, 412285, Control_c, 1, 11, 68
2, 412304, Pitch_bend_c, 1, 10496
2, 412310, Control_c, 1, 11, 69
2, 412335, Control_c, 1, 11, 70
2, 412340, Pitch_bend_c, 1, 10368
2, 412360, Control_c, 1, 11, 71
2, 412376, Pitch_bend_c, 1, 10240
2, 412385, Control_c, 1, 11, 72
2, 412410, Control_c, 1, 11, 73
2, 412412, Pitch_bend_c, 1, 10112
2, 412435, Control_c, 1, 11, 74
2, 412448, Pitch_bend_c, 1, 9984
2, 412460, Control_c, 1, 11, 75
2, 412484, Pitch_bend_c, 1, 9856
2, 412485, Control_c, 1, 11, 76
2, 412510, Control_c, 1, 11, 77
2, 412520, Pitch_bend_c, 1, 9728
2, 412535, Control_c, 1, 11, 78
2, 412556, Pitch_bend_c, 1, 9600
2, 412560, Control_c, 1, 11, 79
2, 412585, Control_c, 1, 11, 80
2, 412592, Pitch_bend_c, 1, 9472
2, 412610, Control_c, 1, 11, 81
2, 412628, Pitch_bend_c, 1, 9344
2, 412635, Control_c, 1, 11, 82
2, 412660, Control_c, 1, 11, 83
2, 412664, Pitch_bend_c, 1, 9216
2, 412685, Control_c, 1, 11, 84
2, 412700, Pitch_bend_c, 1, 9088
2, 412710, Control_c, 1, 11, 85
2, 412735, Control_c, 1, 11, 86
2, 412736, Pitch_bend_c, 1, 8960
2, 412760, Control_c, 1, 11, 87
2, 412772, Pitch_bend_c, 1, 8832
2, 412785, Control_c, 1, 11, 88
2, 412808, Pitch_bend_c, 1, 8704
2, 412810, Control_c, 1, 11, 89
2, 412835, Control_c, 1, 11, 90
2, 412844, Pitch_bend_c, 1, 8576
2, 412860, Control_c, 1, 11, 91
2, 412880, Pitch_bend_c, 1, 8448
2, 412885, Control_c, 1, 11, 92
2, 412910, Control_c, 1, 11, 93
2, 412916, Pitch_bend_c, 1, 8320
2, 412935, Control_c, 1, 11, 94
2, 412952, Pitch_bend_c, 1, 8192
2, 412960, Control_c, 1, 11, 95
2, 412960, Pitch_bend_c, 1, 8192
2, 412985, Control_c, 1, 11, 96
2, 413010, Control_c, 1, 11, 97
2, 413035, Control_c, 1, 11, 98
2, 413060, Control_c, 1, 11, 99
2, 413085, Control_c, 1, 11, 100
2, 413110, Control_c, 1, 11, 101
2, 413135, Control_c, 1, 11, 102
2, 413160, Control_c, 1, 11, 103
2, 413185, Control_c, 1, 11, 104
2, 413210, Control_c, 1, 11, 105
2, 413235, Control_c, 1, 11, 106
2, 413260, Control_c, 1, 11, 107
2, 413285, Control_c, 1, 11, 108
2, 413310, Control_c, 1, 11, 109
2, 413335, Control_c, 1, 11, 110
2, 413360, Control_c, 1, 11, 111
2, 413385, Control_c, 1, 11, 112
2, 413410, Control_c, 1, 11, 113
2, 413435, Control_c, 1, 11, 114
2, 413460, Control_c, 1, 11, 115
2, 413485, Control_c, 1, 11, 116
2, 413510, Control_c, 1, 11, 117
2, 413535, Control_c, 1, 11, 118
2, 413560, Control_c, 1, 11, 119
2, 413585, Control_c, 1, 11, 120
2, 413610, Control_c, 1, 11, 121
2, 413635, Control_c, 1, 11, 122
2, 413660, Control_c, 1, 11, 123
2, 413685, Control_c, 1, 11, 124
2, 413710, Control_c, 1, 11, 125
2, 413735, Control_c, 1, 11, 126
2, 413760, Control_c, 1, 11, 127
2, 413760, Pitch_bend_c, 1, 8192
2, 413760, Pitch_bend_c, 1, 8192
2, 413760, Note_off_c, 1, 65, 95
2, 415200, Control_c, 1, 11, 31
2, 415200, Pitch_bend_c, 1, 8192
2, 415200, Note_on_c, 1, 73, 95
2, 415235, Control_c, 1, 11, 32
2, 415250, Pitch_bend_c, 1, 8320
2, 415270, Control_c, 1, 11, 33
2, 415300, Pitch_bend_c, 1, 8448
2, 415305, Control_c, 1, 11, 34
2, 415340, Control_c, 1, 11, 35
2, 415350, Pitch_bend_c, 1, 8576
2, 415375, Control_c, 1, 11, 36
2, 415400, Pitch_bend_c, 1, 8704
2, 415410, Control_c, 1, 11, 37
2, 415445, Control_c, 1, 11, 38
2, 415450, Pitch_bend_c, 1, 8832
2, 415480, Control_c, 1, 11, 39
2, 415500, Pitch_bend_c, 1, 8960
2, 415515, Control_c, 1, 11, 40
2, 415550, Control_c, 1, 11, 41
2, 415550, Pitch_bend_c, 1, 9088
2, 415585, Control_c, 1, 11, 42
2, 415600, Pitch_bend_c, 1, 9216
2, 415620, Control_c, 1, 11, 43
2, 415650, Pitch_bend_c, 1, 9344
2, 415655, Control_c, 1, 11, 44
2, 415690, Control_c, 1, 11, 45
2, 415700, Pitch_bend_c, 1, 9472
2, 415725, Control_c, 1, 11, 46
2, 415750, Pitch_bend_c, 1, 9600
2, 415760, Control_c, 1, 11, 47
2, 415795, Control_c, 1, 11, 48
2, 415800, Pitch_bend_c, 1, 9728
2, 415830, Control_c, 1, 11, 49
2, 415850, Pitch_bend_c, 1, 9856
2, 415865, Control_c, 1, 11, 50
2, 415900, Control_c, 1, 11, 51
2, 415900, Pitch_bend_c, 1, 9984
2, 415935, Control_c, 1, 11, 52
2, 415950, Pitch_bend_c, 1, 10112
2, 415970, Control_c, 1, 11, 53
2, 416000, Pitch_bend_c, 1, 10240
2, 416005, Control_c, 1, 11, 54
2, 416040, Control_c, 1, 11, 55
2, 416050, Pitch_bend_c, 1, 10368
2, 416075, Control_c, 1, 11, 56
2, 416100, Pitch_bend_c, 1, 10496
2, 416110, Control_c, 1, 11, 57
2, 416145, Control_c, 1, 11, 58
2, 416150, Pitch_bend_c, 1, 10624
2, 416180, Control_c, 1, 11, 59
2, 416200, Pitch_bend_c, 1, 10752
2, 416215, Control_c, 1, 11, 60
2, 416250, Control_c, 1, 11, 61
2, 416250, Pitch_bend_c, 1, 10880
2, 416285, Control_c, 1, 11, 62
2, 416300, Pitch_bend_c, 1, 11008
2, 416320, Control_c, 1, 11, 63
2, 416350, Pitch_bend_c, 1, 11136
2, 416355, Control_c, 1, 11, 64
2, 416390, Control_c, 1, 11, 65
2, 416400, Pitch_bend_c, 1, 11264
2, 416425, Control_c, 1, 11, 66
2, 416450, Pitch_bend_c, 1, 11392
2, 416460, Control_c, 1, 11, 67
2, 416495, Control_c, 1, 11, 68
2, 416500, Pitch_bend_c, 1, 11520
2, 416530, Control_c, 1, 11, 69
2, 416550, Pitch_bend_c, 1, 11648
2, 416565, Control_c, 1, 11, 70
2, 416600, Control_c, 1, 11, 71
2, 416600, Pitch_bend_c, 1, 11776
2, 416635, Control_c, 1, 11, 72
2, 416650, Pitch_bend_c, 1, 11904
2, 416670, Control_c, 1, 11, 73
2, 416700, Pitch_bend_c, 1, 12032
2, 416705, Control_c, 1, 11, 74
2, 416740, Control_c, 1, 11, 75
2, 416750, Pitch_bend_c, 1, 12160
2, 416775, Control_c, 1, 11, 76
2, 416800, Pitch_bend_c, 1, 12288
2, 416810, Control_c, 1, 11, 77
2, 416845, Control_c, 1, 11, 78
2, 416850, Pitch_bend_c, 1, 12416
2, 416880, Control_c, 1, 11, 79
2, 416880, Pitch_bend_c, 1, 12416
2, 416915, Control_c, 1, 11, 80
2, 416950, Control_c, 1, 11, 81
2, 416985, Control_c, 1, 11, 82
2, 417020, Control_c, 1, 11, 83
2, 417055, Control_c, 1, 11, 84
2, 417090, Control_c, 1, 11, 85
2, 417125, Control_c, 1, 11, 86
2, 417160, Control_c, 1, 11, 87
2, 417195, Control_c, 1, 11, 88
2, 417230, Control_c, 1, 11, 89
2, 417265, Control_c, 1, 11, 90
2, 417300, Control_c, 1, 11, 91
2, 417335, Control_c, 1, 11, 92
2, 417370, Control_c, 1, 11, 93
2, 417405, Control_c, 1, 11, 94
2, 417440, Control_c, 1, 11, 95
2, 417475, Control_c, 1, 11, 96
2, 417510, Control_c, 1, 11, 97
2, 417545, Control_c, 1, 11, 98
2, 417580, Control_c, 1, 11, 99
2, 417615, Control_c, 1, 11, 100
2, 417650, Control_c, 1, 11, 101
2, 417685, Control_c, 1, 11, 102
2, 417720, Control_c, 1, 11, 103
2, 417755, Control_c, 1, 11, 104
2, 417790, Control_c, 1, 11, 105
2, 417825, Control_c, 1, 11, 106
2, 417860, Control_c, 1, 11, 107
2, 417895, Control_c, 1, 11, 108
2, 417930, Control_c, 1, 11, 109
2, 417965, Control_c, 1, 11, 110
2, 418000, Control_c, 1, 11, 111
2, 418035, Control_c, 1, 11, 112
2, 418070, Control_c, 1, 11, 113
2, 418105, Control_c, 1, 11, 114
2, 418140, Control_c, 1, 11, 115
2, 418175, Control_c, 1, 11, 116
2, 418210, Control_c, 1, 11, 117
2, 418245, Control_c, 1, 11, 118
2, 418280, Control_c, 1, 11, 119
2, 418315, Control_c, 1, 11, 120
2, 418350, Control_c, 1, 11, 121
2, 418385, Control_c, 1, 11, 122
2, 418420, Control_c, 1, 11, 123
2, 418455, Control_c, 1, 11, 124
2, 418490, Control_c, 1, 11, 125
2, 418525, Control_c, 1, 11, 126
2, 418560, Control_c, 1, 11, 127
2, 418560, Pitch_bend_c, 1, 12416
2, 418560, Pitch_bend_c, 1, 8192
2, 418560, Note_off_c, 1, 73, 95
2, 418560, Control_c, 1, 11, 31
2, 418560, Pitch_bend_c, 1, 8192
2, 418560, Note_on_c, 1, 62, 95
2, 418590, Control_c, 1, 11, 32
2, 418620, Control_c, 1, 11, 33
2, 418650, Control_c, 1, 11, 34
2, 418680, Control_c, 1, 11, 35
2, 418690, Pitch_bend_c, 1, 8320
2, 418710, Control_c, 1, 11, 36
2, 418740, Control_c, 1, 11, 37
2, 418770, Control_c, 1, 11, 38
2, 418800, Control_c, 1, 11, 39
2, 418820, Pitch_bend_c, 1, 8448
2, 418830, Control_c, 1, 11, 40
2, 418860, Control_c, 1, 11, 41
2, 418890, Control_c, 1, 11, 42
2, 418920, Control_c, 1, 11, 43
2, 418950, Control_c, 1, 11, 44
2, 418950, Pitch_bend_c, 1, 8576
2, 418980, Control_c, 1, 11, 45
2, 419010, Control_c, 1, 11, 46
2, 419040, Control_c, 1, 11, 47
2, 419070, Control_c, 1, 11, 48
2, 419080, Pitch_bend_c, 1, 8704
2, 419100, Control_c, 1, 11, 49
2, 419130, Control_c, 1, 11, 50
2, 419160, Control_c, 1, 11, 51
2, 419190, Control_c, 1, 11, 52
2, 419210, Pitch_bend_c, 1, 8832
2, 419220, Control_c, 1, 11, 53
2, 419250, Control_c, 1, 11, 54
2, 419280, Control_c, 1, 11, 55
2, 419310, Control_c, 1, 11, 56
2, 419340, Control_c, 1, 11, 57
2, 419340, Pitch_bend_c, 1, 8960
2, 419370, Control_c, 1, 11, 58
2, 419400, Control_c, 1, 11, 59
2, 419430, Control_c, 1, 11, 60
2, 419460, Control_c, 1, 11, 61
2, 419470, Pitch_bend_c, 1, 9088
2, 419490, Control_c, 1, 11, 62
2, 419520, Control_c, 1, 11, 63
2, 419550, Control_c, 1, 11, 64
2, 419580, Control_c, 1, 11, 65
2, 419600, Pitch_bend_c, 1, 9216
2, 419610, Control_c, 1, 11, 66
2, 419640, Control_c, 1, 11, 67
2, 419670, Control_c, 1, 11, 68
2, 419700, Control_c, 1, 11, 69
2, 419730, Control_c, 1, 11, 70
2, 419730, Pitch_bend_c, 1, 9344
2, 419760, Control_c, 1, 11, 71
2, 419790, Control_c, 1, 11, 72
2, 419820, Control_c, 1, 11, 73
2, 419850, Control_c, 1, 11, 74
2, 419860, Pitch_bend_c, 1, 9472
2, 419880, Control_c, 1, 11, 75
2, 419910, Control_c, 1, 11, 76
2, 419940, Control_c, 1, 11, 77
2, 419970, Control_c, 1, 11, 78
2, 419990, Pitch_bend_c, 1, 9600
2, 420000, Control_c, 1, 11, 79
2, 420000, Pitch_bend_c, 1, 9600
2, 420030, Control_c, 1, 11, 80
2, 420060, Control_c, 1, 11, 81
2, 420090, Control_c, 1, 11, 82
2, 420120, Control_c, 1, 11, 83
2, 420150, Control_c, 1, 11, 84
2, 420180, Control_c, 1, 11, 85
2, 420210, Control_c, 1, 11, 86
2, 420240, Control_c, 1, 11, 87
2, 420270, Control_c, 1, 11, 88
2, 420300, Control_c, 1, 11, 89
2, 420330, Control_c, 1, 11, 90
2, 420360, Control_c, 1, 11, 91
2, 420390, Control_c, 1, 11, 92
2, 420420, Control_c, 1, 11, 93
2, 420450, Control_c, 1, 11, 94
2, 420480, Control_c, 1, 11, 95
2, 420510, Control_c, 1, 11, 96
2, 420540, Control_c, 1, 11, 97
2, 420570, Control_c, 1, 11, 98
2, 420600, Control_c, 1, 11, 99
2, 420630, Control_c, 1, 11, 100
2, 420660, Control_c, 1, 11, 101
2, 420690, Control_c, 1, 11, 102
2, 420720, Control_c, 1, 11, 103
2, 420750, Control_c, 1, 11, 104
2, 420780, Control_c, 1, 11, 105
2, 420810, Control_c, 1, 11, 106
2, 420840, Control_c, 1, 11, 107
2, 420870, Control_c, 1, 11, 108
2, 420900, Control_c, 1, 11, 109
2, 420930, Control_c, 1, 11, 110
2, 420960, Control_c, 1, 11, 111
2, 420990, Control_c, 1, 11, 112
2, 421020, Control_c, 1, 11, 113
2, 421050, Control_c, 1, 11, 114
2, 421080, Control_c, 1, 11, 115
2, 421110, Control_c, 1, 11, 116
2, 421140, Control_c, 1, 11, 117
2, 421170, Control_c, 1, 11, 118
2, 421200, Control_c, 1, 11, 119
2, 421230, Control_c, 1, 11, 120
2, 421260, Control_c, 1, 11, 121
2, 421290, Control_c, 1, 11, 122
2, 421320, Control_c, 1, 11, 123
2, 421350, Control_c, 1, 11, 124
2, 421380, Control_c, 1, 11, 125
2, 421410, Control_c, 1, 11, 126
2, 421440, Control_c, 1, 11, 127
2, 421440, Pitch_bend_c, 1, 9600
2, 421440, Pitch_bend_c, 1, 8192
2, 421440, Note_off_c, 1, 62, 95
2, 421440, Control_c, 1, 11, 31
2, 421440, Pitch_bend_c, 1, 9600
2, 421440, Note_on_c, 1, 62, 95
2, 421480, Control_c, 1, 11, 32
2, 421520, Control_c, 1, 11, 33
2, 421560, Control_c, 1, 11, 34
2, 421600, Control_c, 1, 11, 35
2, 421640, Control_c, 1, 11, 36
2, 421680, Control_c, 1, 11, 37
2, 421720, Control_c, 1, 11, 38
2, 421760, Control_c, 1, 11, 39
2, 421800, Control_c, 1, 11, 40
2, 421840, Control_c, 1, 11, 41
2, 421880, Control_c, 1, 11, 42
2, 421920, Control_c, 1, 11, 43
2, 421960, Control_c, 1, 11, 44
2, 422000, Control_c, 1, 11, 45
2, 422040, Control_c, 1, 11, 46
2, 422080, Control_c, 1, 11, 47
2, 422120, Control_c, 1, 11, 48
2, 422160, Control_c, 1, 11, 49
2, 422200, Control_c, 1, 11, 50
2, 422240, Control_c, 1, 11, 51
2, 422280, Control_c, 1, 11, 52
2, 422320, Control_c, 1, 11, 53
2, 422360, Control_c, 1, 11, 54
2, 422400, Control_c, 1, 11, 55
2, 422440, Control_c, 1, 11, 56
2, 422480, Control_c, 1, 11, 57
2, 422520, Control_c, 1, 11, 58
2, 422560, Control_c, 1, 11, 59
2, 422600, Control_c, 1, 11, 60
2, 422640, Control_c, 1, 11, 61
2, 422680, Control_c, 1, 11, 62
2, 422720, Control_c, 1, 11, 63
2, 422720, Pitch_bend_c, 1, 9600
2, 422760, Control_c, 1, 11, 64
2, 422800, Control_c, 1, 11, 65
2, 422836, Pitch_bend_c, 1, 9472
2, 422840, Control_c, 1, 11, 66
2, 422880, Control_c, 1, 11, 67
2, 422920, Control_c, 1, 11, 68
2, 422952, Pitch_bend_c, 1, 9344
2, 422960, Control_c, 1, 11, 69
2, 423000, Control_c, 1, 11, 70
2, 423040, Control_c, 1, 11, 71
2, 423068, Pitch_bend_c, 1, 9216
2, 423080, Control_c, 1, 11, 72
2, 423120, Control_c, 1, 11, 73
2, 423160, Control_c, 1, 11, 74
2, 423184, Pitch_bend_c, 1, 9088
2, 423200, Control_c, 1, 11, 75
2, 423240, Control_c, 1, 11, 76
2, 423280, Control_c, 1, 11, 77
2, 423300, Pitch_bend_c, 1, 8960
2, 423320, Control_c, 1, 11, 78
2, 423360, Control_c, 1, 11, 79
2, 423400, Control_c, 1, 11, 80
2, 423416, Pitch_bend_c, 1, 8832
2, 423440, Control_c, 1, 11, 81
2, 423480, Control_c, 1, 11, 82
2, 423520, Control_c, 1, 11, 83
2, 423532, Pitch_bend_c, 1, 8704
2, 423560, Control_c, 1, 11, 84
2, 423600, Control_c, 1, 11, 85
2, 423640, Control_c, 1, 11, 86
2, 423648, Pitch_bend_c, 1, 8576
2, 423680, Control_c, 1, 11, 87
2, 423720, Control_c, 1, 11, 88
2, 423760, Control_c, 1, 11, 89
2, 423764, Pitch_bend_c, 1, 8448
2, 423800, Control_c, 1, 11, 90
2, 423840, Control_c, 1, 11, 91
2, 423880, Control_c, 1, 11, 92
2, 423880, Pitch_bend_c, 1, 8320
2, 423920, Control_c, 1, 11, 93
2, 423960, Control_c, 1, 11, 94
2, 423996, Pitch_bend_c, 1, 8192
2, 424000, Control_c, 1, 11, 95
2, 424000, Pitch_bend_c, 1, 8192
2, 424040, Control_c, 1, 11, 96
2, 424080, Control_c, 1, 11, 97
2, 424120, Control_c, 1, 11, 98
2, 424160, Control_c, 1, 11, 99
2, 424200, Control_c, 1, 11, 100
2, 424240, Control_c, 1, 11, 101
2, 424280, Control_c, 1, 11, 102
2, 424320, Control_c, 1, 11, 103
2, 424360, Control_c, 1, 11, 104
2, 424400, Control_c, 1, 11, 105
2, 424440, Control_c, 1, 11, 106
2, 424480, Control_c, 1, 11, 107
2, 424520, Control_c, 1, 11, 108
2, 424560, Control_c, 1, 11, 109
2, 424600, Control_c, 1, 11, 110
2, 424640, Control_c, 1, 11, 111
2, 424680, Control_c, 1, 11, 112
2, 424720, Control_c, 1, 11, 113
2, 424760, Control_c, 1, 11, 114
2, 424800, Control_c, 1, 11, 115
2, 424840, Control_c, 1, 11, 116
2, 424880, Control_c, 1, 11, 117
2, 424920, Control_c, 1, 11, 118
2, 424960, Control_c, 1, 11, 119
2, 425000, Control_c, 1, 11, 120
2, 425040, Control_c, 1, 11, 121
2, 425080, Control_c, 1, 11, 122
2, 425120, Control_c, 1, 11, 123
2, 425160, Control_c, 1, 11, 124
2, 425200, Control_c, 1, 11, 125
2, 425240, Control_c, 1, 11, 126
2, 425280, Control_c, 1, 11, 127
2, 425280, Pitch_bend_c, 1, 8192
2, 425280, Pitch_bend_c, 1, 8192
2, 425280, Note_off_c, 1, 62, 95
2, 429120, Note_on_c, 0, 74, 95
2, 429360, Note_off_c, 0, 74, 95
2, 429360, Note_on_c, 0, 70, 95
2, 429600, Note_off_c, 0, 70, 95
2, 429600, Note_on_c, 1, 73, 95
2, 429760, Pitch_bend_c, 1, 8192
2, 429920, Pitch_bend_c, 1, 8320
2, 430080, Pitch_bend_c, 1, 8192
2, 430240, Pitch_bend_c, 1, 8320
2, 430320, Pitch_bend_c, 1, 8192
2, 430320, Pitch_bend_c, 1, 8320
2, 430320, Pitch_bend_c, 1, 8192
2, 430320, Note_off_c, 1, 73, 95
2, 430320, Note_on_c, 0, 70, 95
2, 430560, Note_off_c, 0, 70, 95
2, 430560, Note_on_c, 0, 67, 95
2, 430800, Note_off_c, 0, 67, 95
2, 430800, Note_on_c, 0, 70, 95
2, 431040, Note_off_c, 0, 70, 95
2, 431040, Note_on_c, 1, 69, 95
2, 431200, Pitch_bend_c, 1, 8192
2, 431360, Pitch_bend_c, 1, 8320
2, 431520, Pitch_bend_c, 1, 8192
2, 431680, Pitch_bend_c, 1, 8320
2, 431840, Pitch_bend_c, 1, 8192
2, 432000, Pitch_bend_c, 1, 8320
2, 432000, Pitch_bend_c, 1, 8192
2, 432000, Note_off_c, 1, 69, 95
2, 432000, Note_on_c, 0, 70, 95
2, 432240, Note_off_c, 0, 70, 95
2, 432240, Note_on_c, 0, 67, 95
2, 432480, Note_off_c, 0, 67, 95
2, 432480, Note_on_c, 0, 69, 95
2, 432720, Note_off_c, 0, 69, 95
2, 432720, Note_on_c, 0, 67, 95
2, 432960, Note_off_c, 0, 67, 95
2, 432960, Note_on_c, 0, 65, 95
2, 433200, Note_off_c, 0, 65, 95
2, 433200, Note_on_c, 0, 67, 95
2, 433440, Note_off_c, 0, 67, 95
2, 433440, Note_on_c, 1, 64, 95
2, 433600, Pitch_bend_c, 1, 8192
2, 433760, Pitch_bend_c, 1, 8320
2, 433920, Pitch_bend_c, 1, 8192
2, 434080, Pitch_bend_c, 1, 8320
2, 434240, Pitch_bend_c, 1, 8192
2, 434400, Pitch_bend_c, 1, 8320
2, 434400, Pitch_bend_c, 1, 8192
2, 434400, Note_off_c, 1, 64, 95
2, 434400, Note_on_c, 0, 81, 95
2, 434640, Note_off_c, 0, 81, 95
2, 434640, Note_on_c, 0, 77, 95
2, 434880, Note_off_c, 0, 77, 95
2, 434880, Note_on_c, 0, 79, 95
2, 435120, Note_off_c, 0, 79, 95
2, 435120, Note_on_c, 0, 81, 95
2, 435240, Note_off_c, 0, 81, 95
2, 435240, Note_on_c, 0, 79, 70
2, 435360, Note_off_c, 0, 79, 70
2, 435360, Note_on_c, 0, 77, 70
2, 435600, Note_off_c, 0, 77, 70
2, 435600, Note_on_c, 0, 76, 95
2, 435840, Note_off_c, 0, 76, 95
2, 435840, Note_on_c, 0, 77, 95
2, 436080, Note_off_c, 0, 77, 95
2, 436080, Note_on_c, 0, 76, 95
2, 436320, Note_off_c, 0, 76, 95
2, 436320, Note_on_c, 0, 74, 95
2, 436560, Note_off_c, 0, 74, 95
2, 436560, Note_on_c, 0, 73, 95
2, 436800, Note_off_c, 0, 73, 95
2, 436800, Note_on_c, 0, 74, 95
2, 437040, Note_off_c, 0, 74, 95
2, 437040, Note_on_c, 0, 82, 95
2, 437280, Note_off_c, 0, 82, 95
2, 437280, Note_on_c, 1, 81, 95
2, 437440, Pitch_bend_c, 1, 8192
2, 437600, Pitch_bend_c, 1, 8320
2, 437760, Pitch_bend_c, 1, 8192
2, 437920, Pitch_bend_c, 1, 8320
2, 438080, Pitch_bend_c, 1, 8192
2, 438240, Pitch_bend_c, 1, 8320
2, 438240, Pitch_bend_c, 1, 8192
2, 438240, Note_off_c, 1, 81, 95
2, 438240, Note_on_c, 0, 77, 95
2, 438480, Note_off_c, 0, 77, 95
2, 438480, Note_on_c, 0, 74, 95
2, 438720, Note_off_c, 0, 74, 95
2, 438720, Note_on_c, 1, 76, 95
2, 438880, Pitch_bend_c, 1, 8192
2, 439040, Pitch_bend_c, 1, 8320
2, 439200, Pitch_bend_c, 1, 8192
2, 439360, Pitch_bend_c, 1, 8320
2, 439520, Pitch_bend_c, 1, 8192
2, 439680, Pitch_bend_c, 1, 8320
2, 439680, Pitch_bend_c, 1, 8192
2, 439680, Note_off_c, 1, 76, 95
2, 439680, Note_on_c, 0, 76, 95
2, 439920, Note_off_c, 0, 76, 95
2, 439920, Note_on_c, 0, 73, 95
2, 440160, Note_off_c, 0, 73, 95
2, 440160, Note_on_c, 0, 74, 95
2, 440400, Note_off_c, 0, 74, 95
2, 440400, Note_on_c, 0, 73, 95
2, 440640, Note_off_c, 0, 73, 95
2, 440640, Note_on_c, 0, 70, 95
2, 440880, Note_off_c, 0, 70, 95
2, 440880, Note_on_c, 0, 73, 95
2, 441120, Note_off_c, 0, 73, 95
2, 441120, Note_on_c, 1, 69, 95
2, 441280, Pitch_bend_c, 1, 8192
2, 441440, Pitch_bend_c, 1, 8320
2, 441600, Pitch_bend_c, 1, 8192
2, 441760, Pitch_bend_c, 1, 8320
2, 441920, Pitch_bend_c, 1, 8192
2, 442080, Pitch_bend_c, 1, 8320
2, 442080, Pitch_bend_c, 1, 8192
2, 442080, Note_off_c, 1, 69, 95
2, 442080, Note_on_c, 0, 70, 95
2, 442320, Note_off_c, 0, 70, 95
2, 442320, Note_on_c, 0, 67, 95
2, 442560, Note_off_c, 0, 67, 95
2, 442560, Note_on_c, 0, 69, 95
2, 442800, Note_off_c, 0, 69, 95
2, 442800, Note_on_c, 0, 67, 95
2, 443040, Note_off_c, 0, 67, 95
2, 443040, Note_on_c, 0, 65, 95
2, 443280, Note_off_c, 0, 65, 95
2, 443280, Note_on_c, 0, 67, 95
2, 443520, Note_off_c, 0, 67, 95
2, 443520, Note_on_c, 1, 64, 95
2, 443680, Pitch_bend_c, 1, 8192
2, 443840, Pitch_bend_c, 1, 8320
2, 444000, Pitch_bend_c, 1, 8192
2, 444160, Pitch_bend_c, 1, 8320
2, 444320, Pitch_bend_c, 1, 8192
2, 444480, Pitch_bend_c, 1, 8320
2, 444480, Pitch_bend_c, 1, 8192
2, 444480, Note_off_c, 1, 64, 95
2, 444480, Note_on_c, 0, 74, 95
2, 444720, Note_off_c, 0, 74, 95
2, 444720, Note_on_c, 0, 70, 95
2, 444960, Note_off_c, 0, 70, 95
2, 444960, Note_on_c, 1, 73, 95
2, 445120, Pitch_bend_c, 1, 8192
2, 445280, Pitch_bend_c, 1, 8320
2, 445440, Pitch_bend_c, 1, 8192
2, 445600, Pitch_bend_c, 1, 8320
2, 445680, Pitch_bend_c, 1, 8192
2, 445680, Pitch_bend_c, 1, 8320
2, 445680, Pitch_bend_c, 1, 8192
2, 445680, Note_off_c, 1, 73, 95
2, 445680, Note_on_c, 0, 70, 95
2, 445920, Note_off_c, 0, 70, 95
2, 445920, Note_on_c, 0, 67, 95
2, 446160, Note_off_c, 0, 67, 95
2, 446160, Note_on_c, 0, 70, 95
2, 446400, Note_off_c, 0, 70, 95
2, 446400, Note_on_c, 1, 69, 95
2, 446560, Pitch_bend_c, 1, 8192
2, 446720, Pitch_bend_c, 1, 8320
2, 446880, Pitch_bend_c, 1, 8192
2, 447040, Pitch_bend_c, 1, 8320
2, 447200, Pitch_bend_c, 1, 8192
2, 447360, Pitch_bend_c, 1, 8320
2, 447360, Pitch_bend_c, 1, 8192
2, 447360, Note_off_c, 1, 69, 95
2, 447360, Note_on_c, 0, 82, 95
2, 447600, Note_off_c, 0, 82, 95
2, 447600, Note_on_c, 0, 79, 95
2, 447840, Note_off_c, 0, 79, 95
2, 447840, Note_on_c, 0, 81, 95
2, 448080, Note_off_c, 0, 81, 95
2, 448080, Note_on_c, 0, 79, 95
2, 448320, Note_off_c, 0, 79, 95
2, 448320, Note_on_c, 0, 77, 95
2, 448560, Note_off_c, 0, 77, 95
2, 448560, Note_on_c, 0, 79, 95
2, 448800, Note_off_c, 0, 79, 95
2, 448800, Note_on_c, 1, 76, 95
2, 448960, Pitch_bend_c, 1, 8192
2, 449120, Pitch_bend_c, 1, 8320
2, 449280, Pitch_bend_c, 1, 8192
2, 449440, Pitch_bend_c, 1, 8320
2, 449600, Pitch_bend_c, 1, 8192
2, 449760, Pitch_bend_c, 1, 8320
2, 449760, Pitch_bend_c, 1, 8192
2, 449760, Note_off_c, 1, 76, 95
2, 449760, Note_on_c, 0, 86, 95
2, 450000, Note_off_c, 0, 86, 95
2, 450000, Note_on_c, 0, 82, 95
2, 450240, Note_off_c, 0, 82, 95
2, 450240, Note_on_c, 0, 85, 95
2, 450480, Note_off_c, 0, 85, 95
2, 450480, Note_on_c, 0, 86, 70
2, 450600, Note_off_c, 0, 86, 70
2, 450600, Note_on_c, 0, 85, 70
2, 450720, Note_off_c, 0, 85, 70
2, 450720, Note_on_c, 0, 82, 95
2, 450960, Note_off_c, 0, 82, 95
2, 450960, Note_on_c, 0, 81, 95
2, 451200, Note_off_c, 0, 81, 95
2, 451200, Note_on_c, 0, 82, 95
2, 451440, Note_off_c, 0, 82, 95
2, 451440, Note_on_c, 0, 81, 95
2, 451680, Note_off_c, 0, 81, 95
2, 451680, Note_on_c, 0, 79, 95
2, 451920, Note_off_c, 0, 79, 95
2, 451920, Note_on_c, 0, 77, 95
2, 452160, Note_off_c, 0, 77, 95
2, 452160, Note_on_c, 0, 79, 95
2, 452400, Note_off_c, 0, 79, 95
2, 452400, Note_on_c, 0, 86, 95
2, 452640, Note_off_c, 0, 86, 95
2, 452640, Note_on_c, 1, 85, 95
2, 452800, Pitch_bend_c, 1, 8192
2, 452960, Pitch_bend_c, 1, 8320
2, 453120, Pitch_bend_c, 1, 8192
2, 453280, Pitch_bend_c, 1, 8320
2, 453440, Pitch_bend_c, 1, 8192
2, 453600, Pitch_bend_c, 1, 8320
2, 453600, Pitch_bend_c, 1, 8192
2, 453600, Note_off_c, 1, 85, 95
2, 453600, Note_on_c, 0, 82, 95
2, 453840, Note_off_c, 0, 82, 95
2, 453840, Note_on_c, 0, 79, 95
2, 454080, Note_off_c, 0, 79, 95
2, 454080, Note_on_c, 1, 81, 95
2, 454240, Pitch_bend_c, 1, 8192
2, 454400, Pitch_bend_c, 1, 8320
2, 454560, Pitch_bend_c, 1, 8192
2, 454720, Pitch_bend_c, 1, 8320
2, 454880, Pitch_bend_c, 1, 8192
2, 455040, Pitch_bend_c, 1, 8320
2, 455040, Pitch_bend_c, 1, 8192
2, 455040, Note_off_c, 1, 81, 95
2, 455040, Note_on_c, 0, 79, 95
2, 455280, Note_off_c, 0, 79, 95
2, 455280, Note_on_c, 0, 76, 95
2, 455520, Note_off_c, 0, 76, 95
2, 455520, Note_on_c, 0, 77, 95
2, 455760, Note_off_c, 0, 77, 95
2, 455760, Note_on_c, 0, 76, 95
2, 456000, Note_off_c, 0, 76, 95
2, 456000, Note_on_c, 0, 74, 95
2, 456240, Note_off_c, 0, 74, 95
2, 456240, Note_on_c, 0, 76, 95
2, 456480, Note_off_c, 0, 76, 95
2, 456480, Note_on_c, 1, 73, 95
2, 456640, Pitch_bend_c, 1, 8192
2, 456800, Pitch_bend_c, 1, 8320
2, 456960, Pitch_bend_c, 1, 8192
2, 457120, Pitch_bend_c, 1, 8320
2, 457280, Pitch_bend_c, 1, 8192
2, 457440, Pitch_bend_c, 1, 8320
2, 457440, Pitch_bend_c, 1, 8192
2, 457440, Note_off_c, 1, 73, 95
2, 457440, Note_on_c, 0, 67, 95
2, 457680, Note_off_c, 0, 67, 95
2, 457680, Note_on_c, 0, 64, 95
2, 457920, Note_off_c, 0, 64, 95
2, 457920, Note_on_c, 0, 65, 95
2, 458160, Note_off_c, 0, 65, 95
2, 458160, Note_on_c, 0, 64, 95
2, 458400, Note_off_c, 0, 64, 95
2, 458400, Note_on_c, 0, 62, 95
2, 458640, Note_off_c, 0, 62, 95
2, 458640, Note_on_c, 0, 64, 95
2, 458880, Note_off_c, 0, 64, 95
2, 458880, Note_on_c, 1, 61, 95
2, 459040, Pitch_bend_c, 1, 8192
2, 459200, Pitch_bend_c, 1, 8320
2, 459360, Pitch_bend_c, 1, 8192
2, 459520, Pitch_bend_c, 1, 8320
2, 459680, Pitch_bend_c, 1, 8192
2, 459840, Pitch_bend_c, 1, 8320
2, 459840, Pitch_bend_c, 1, 8192
2, 459840, Note_off_c, 1, 61, 95
2, 459840, Note_on_c, 0, 74, 95
2, 460080, Note_off_c, 0, 74, 95
2, 460080, Note_on_c, 0, 70, 95
2, 460320, Note_off_c, 0, 70, 95
2, 460320, Note_on_c, 1, 73, 95
2, 460480, Pitch_bend_c, 1, 8192
2, 460640, Pitch_bend_c, 1, 8320
2, 460800, Pitch_bend_c, 1, 8192
2, 460960, Pitch_bend_c, 1, 8320
2, 461040, Pitch_bend_c, 1, 8192
2, 461040, Pitch_bend_c, 1, 8320
2, 461040, Pitch_bend_c, 1, 8192
2, 461040, Note_off_c, 1, 73, 95
2, 461040, Note_on_c, 0, 70, 95
2, 461280, Note_off_c, 0, 70, 95
2, 461280, Note_on_c, 0, 69, 95
2, 461520, Note_off_c, 0, 69, 95
2, 461520, Note_on_c, 0, 70, 95
2, 461760, Note_off_c, 0, 70, 95
2, 461760, Note_on_c, 1, 67, 95
2, 461920, Pitch_bend_c, 1, 8192
2, 462080, Pitch_bend_c, 1, 8320
2, 462240, Pitch_bend_c, 1, 8192
2, 462400, Pitch_bend_c, 1, 8320
2, 462560, Pitch_bend_c, 1, 8192
2, 462720, Pitch_bend_c, 1, 8320
2, 462720, Pitch_bend_c, 1, 8192
2, 462720, Note_off_c, 1, 67, 95
2, 462720, Note_on_c, 0, 70, 95
2, 462960, Note_off_c, 0, 70, 95
2, 462960, Note_on_c, 0, 67, 95
2, 463200, Note_off_c, 0, 67, 95
2, 463200, Note_on_c, 0, 69, 95
2, 463440, Note_off_c, 0, 69, 95
2, 463440, Note_on_c, 0, 67, 95
2, 463680, Note_off_c, 0, 67, 95
2, 463680, Note_on_c, 0, 65, 95
2, 463920, Note_off_c, 0, 65, 95
2, 463920, Note_on_c, 0, 67, 95
2, 464160, Note_off_c, 0, 67, 95
2, 464160, Note_on_c, 0, 64, 95
2, 464400, Note_off_c, 0, 64, 95
2, 464400, Note_on_c, 0, 65, 95
2, 464640, Note_off_c, 0, 65, 95
2, 464640, Note_on_c, 0, 67, 95
2, 464880, Note_off_c, 0, 67, 95
2, 464880, Note_on_c, 0, 69, 95
2, 465120, Note_off_c, 0, 69, 95
2, 465120, Note_on_c, 1, 67, 95
2, 465280, Pitch_bend_c, 1, 8192
2, 465440, Pitch_bend_c, 1, 8320
2, 465600, Pitch_bend_c, 1, 8192
2, 465760, Pitch_bend_c, 1, 8320
2, 465920, Pitch_bend_c, 1, 8192
2, 466080, Pitch_bend_c, 1, 8320
2, 466080, Pitch_bend_c, 1, 8192
2, 466080, Note_off_c, 1, 67, 95
2, 466080, Note_on_c, 0, 81, 95
2, 466320, Note_off_c, 0, 81, 95
2, 466320, Note_on_c, 0, 77, 95
2, 466560, Note_off_c, 0, 77, 95
2, 466560, Note_on_c, 0, 79, 95
2, 466800, Note_off_c, 0, 79, 95
2, 466800, Note_on_c, 0, 81, 95
2, 466920, Note_off_c, 0, 81, 95
2, 466920, Note_on_c, 0, 79, 70
2, 467040, Note_off_c, 0, 79, 70
2, 467040, Note_on_c, 0, 77, 70
2, 467280, Note_off_c, 0, 77, 70
2, 467280, Note_on_c, 0, 76, 95
2, 467520, Note_off_c, 0, 76, 95
2, 467520, Note_on_c, 0, 74, 95
2, 467640, Note_off_c, 0, 74, 95
2, 467640, Note_on_c, 0, 73, 95
2, 467760, Note_off_c, 0, 73, 95
2, 467760, Note_on_c, 0, 70, 95
2, 467880, Note_off_c, 0, 70, 95
2, 467880, Note_on_c, 0, 69, 95
2, 468000, Note_off_c, 0, 69, 95
2, 468000, Note_on_c, 0, 67, 95
2, 468120, Note_off_c, 0, 67, 95
2, 468120, Note_on_c, 0, 65, 95
2, 468240, Note_off_c, 0, 65, 95
2, 468240, Note_on_c, 0, 64, 95
2, 468360, Note_off_c, 0, 64, 95
2, 468360, Note_on_c, 0, 62, 95
2, 468480, Note_off_c, 0, 62, 95
2, 468480, Note_on_c, 1, 69, 95
2, 468640, Pitch_bend_c, 1, 8192
2, 468800, Pitch_bend_c, 1, 8320
2, 468960, Pitch_bend_c, 1, 8192
2, 469120, Pitch_bend_c, 1, 8320
2, 469280, Pitch_bend_c, 1, 8192
2, 469440, Pitch_bend_c, 1, 8320
2, 469440, Pitch_bend_c, 1, 8192
2, 469440, Note_off_c, 1, 69, 95
2, 469440, Note_on_c, 0, 77, 95
2, 469680, Note_off_c, 0, 77, 95
2, 469680, Note_on_c, 0, 74, 95
2, 469920, Note_off_c, 0, 74, 95
2, 469920, Note_on_c, 0, 76, 95
2, 470160, Note_off_c, 0, 76, 95
2, 470160, Note_on_c, 0, 77, 95
2, 470400, Note_off_c, 0, 77, 95
2, 470400, Note_on_c, 0, 76, 95
2, 470640, Note_off_c, 0, 76, 95
2, 470640, Note_on_c, 0, 74, 95
2, 470880, Note_off_c, 0, 74, 95
2, 470880, Note_on_c, 0, 73, 95
2, 471120, Note_off_c, 0, 73, 95
2, 471120, Note_on_c, 0, 72, 95
2, 471360, Note_off_c, 0, 72, 95
2, 471360, Note_on_c, 0, 70, 95
2, 471600, Note_off_c, 0, 70, 95
2, 471600, Note_on_c, 0, 69, 95
2, 471840, Note_off_c, 0, 69, 95
2, 471840, Note_on_c, 0, 67, 95
2, 472080, Note_off_c, 0, 67, 95
2, 472080, Note_on_c, 0, 65, 95
2, 472320, Note_off_c, 0, 65, 95
2, 472320, Note_on_c, 0, 64, 95
2, 472560, Note_off_c, 0, 64, 95
2, 472560, Note_on_c, 0, 62, 95
2, 472800, Note_off_c, 0, 62, 95
2, 472800, Note_on_c, 0, 73, 95
2, 473040, Note_off_c, 0, 73, 95
2, 473040, Note_on_c, 0, 72, 95
2, 473280, Note_off_c, 0, 72, 95
2, 473280, Note_on_c, 0, 70, 95
2, 473520, Note_off_c, 0, 70, 95
2, 473520, Note_on_c, 0, 69, 95
2, 473760, Note_off_c, 0, 69, 95
2, 473760, Note_on_c, 0, 76, 95
2, 474000, Note_off_c, 0, 76, 95
2, 474000, Note_on_c, 0, 73, 95
2, 474240, Note_off_c, 0, 73, 95
2, 474240, Note_on_c, 1, 81, 95
2, 474400, Pitch_bend_c, 1, 8192
2, 474560, Pitch_bend_c, 1, 8320
2, 474720, Pitch_bend_c, 1, 8192
2, 474880, Pitch_bend_c, 1, 8320
2, 475040, Pitch_bend_c, 1, 8192
2, 475200, Pitch_bend_c, 1, 8320
2, 475200, Pitch_bend_c, 1, 8192
2, 475200, Note_off_c, 1, 81, 95
2, 490560, Pitch_bend_c, 1, 8192
2, 490560, Note_on_c, 1, 83, 95
2, 490656, Pitch_bend_c, 1, 8320
2, 490752, Pitch_bend_c, 1, 8448
2, 490848, Pitch_bend_c, 1, 8576
2, 490944, Pitch_bend_c, 1, 8704
2, 491040, Pitch_bend_c, 1, 8832
2, 491040, Pitch_bend_c, 1, 8832
2, 491520, Pitch_bend_c, 1, 8832
2, 491616, Pitch_bend_c, 1, 8704
2, 491712, Pitch_bend_c, 1, 8576
2, 491808, Pitch_bend_c, 1, 8448
2, 491904, Pitch_bend_c, 1, 8320
2, 492000, Pitch_bend_c, 1, 8192
2, 492000, Pitch_bend_c, 1, 8192
2, 492480, Pitch_bend_c, 1, 8192
2, 492480, Pitch_bend_c, 1, 8192
2, 492480, Note_off_c, 1, 83, 95
2, 492480, Note_on_c, 0, 83, 95
2, 493920, Note_off_c, 0, 83, 95
2, 493920, Note_on_c, 0, 81, 95
2, 494400, Note_off_c, 0, 81, 95
2, 495840, Note_on_c, 0, 76, 95
2, 497280, Note_off_c, 0, 76, 95
2, 497640, Note_on_c, 0, 74, 95
2, 497880, Note_off_c, 0, 74, 95
2, 497880, Note_on_c, 0, 76, 95
2, 498120, Note_off_c, 0, 76, 95
2, 498120, Note_on_c, 0, 77, 95
2, 498600, Note_off_c, 0, 77, 95
2, 498600, Pitch_bend_c, 1, 8192
2, 498600, Note_on_c, 1, 76, 95
2, 498678, Pitch_bend_c, 1, 8320
2, 498756, Pitch_bend_c, 1, 8448
2, 498834, Pitch_bend_c, 1, 8576
2, 498912, Pitch_bend_c, 1, 8704
2, 498990, Pitch_bend_c, 1, 8832
2, 498990, Pitch_bend_c, 1, 8832
2, 499380, Pitch_bend_c, 1, 8832
2, 499458, Pitch_bend_c, 1, 8704
2, 499536, Pitch_bend_c, 1, 8576
2, 499614, Pitch_bend_c, 1, 8448
2, 499692, Pitch_bend_c, 1, 8320
2, 499770, Pitch_bend_c, 1, 8192
2, 499770, Pitch_bend_c, 1, 8192
2, 500160, Pitch_bend_c, 1, 8192
2, 500160, Pitch_bend_c, 1, 8192
2, 500160, Note_off_c, 1, 76, 95
2, 500160, Note_on_c, 0, 74, 95
2, 500640, Note_off_c, 0, 74, 95
2, 500640, Note_on_c, 0, 74, 95
2, 500880, Note_off_c, 0, 74, 95
2, 500880, Note_on_c, 0, 76, 95
2, 501000, Note_off_c, 0, 76, 95
2, 501000, Note_on_c, 0, 74, 70
2, 501120, Note_off_c, 0, 74, 70
2, 501120, Note_on_c, 1, 72, 95
2, 501280, Pitch_bend_c, 1, 8192
2, 501440, Pitch_bend_c, 1, 8320
2, 501600, Pitch_bend_c, 1, 8192
2, 501760, Pitch_bend_c, 1, 8320
2, 501920, Pitch_bend_c, 1, 8192
2, 502080, Pitch_bend_c, 1, 8320
2, 502240, Pitch_bend_c, 1, 8192
2, 502400, Pitch_bend_c, 1, 8320
2, 502560, Pitch_bend_c, 1, 8192
2, 502720, Pitch_bend_c, 1, 8320
2, 502880, Pitch_bend_c, 1, 8192
2, 503040, Pitch_bend_c, 1, 8320
2, 503200, Pitch_bend_c, 1, 8192
2, 503360, Pitch_bend_c, 1, 8320
2, 503520, Pitch_bend_c, 1, 8192
2, 503680, Pitch_bend_c, 1, 8320
2, 503840, Pitch_bend_c, 1, 8192
2, 504000, Pitch_bend_c, 1, 8320
2, 504160, Pitch_bend_c, 1, 8192
2, 504320, Pitch_bend_c, 1, 8320
2, 504480, Pitch_bend_c, 1, 8192
2, 504640, Pitch_bend_c, 1, 8320
2, 504800, Pitch_bend_c, 1, 8192
2, 504960, Pitch_bend_c, 1, 8320
2, 505120, Pitch_bend_c, 1, 8192
2, 505280, Pitch_bend_c, 1, 8320
2, 505440, Pitch_bend_c, 1, 8192
2, 505600, Pitch_bend_c, 1, 8320
2, 505760, Pitch_bend_c, 1, 8192
2, 505920, Pitch_bend_c, 1, 8320
2, 505920, Pitch_bend_c, 1, 8192
2, 505920, Note_off_c, 1, 72, 95
2, 505920, Pitch_bend_c, 1, 8192
2, 505920, Note_on_c, 1, 83, 95
2, 506016, Pitch_bend_c, 1, 8320
2, 506112, Pitch_bend_c, 1, 8448
2, 506208, Pitch_bend_c, 1, 8576
2, 506304, Pitch_bend_c, 1, 8704
2, 506400, Pitch_bend_c, 1, 8832
2, 506400, Pitch_bend_c, 1, 8832
2, 506880, Pitch_bend_c, 1, 8832
2, 506976, Pitch_bend_c, 1, 8704
2, 507072, Pitch_bend_c, 1, 8576
2, 507168, Pitch_bend_c, 1, 8448
2, 507264, Pitch_bend_c, 1, 8320
2, 507360, Pitch_bend_c, 1, 8192
2, 507360, Pitch_bend_c, 1, 8192
2, 507840, Pitch_bend_c, 1, 8192
2, 507840, Pitch_bend_c, 1, 8192
2, 507840, Note_off_c, 1, 83, 95
2, 507840, Note_on_c, 0, 83, 95
2, 509280, Note_off_c, 0, 83, 95
2, 509280, Pitch_bend_c, 1, 8192
2, 509280, Note_on_c, 1, 84, 95
2, 509301, Pitch_bend_c, 1, 8320
2, 509322, Pitch_bend_c, 1, 8448
2, 509343, Pitch_bend_c, 1, 8576
2, 509364, Pitch_bend_c, 1, 8704
2, 509385, Pitch_bend_c, 1, 8832
2, 509406, Pitch_bend_c, 1, 8960
2, 509427, Pitch_bend_c, 1, 9088
2, 509448, Pitch_bend_c, 1, 9216
2, 509469, Pitch_bend_c, 1, 9344
2, 509490, Pitch_bend_c, 1, 9472
2, 509511, Pitch_bend_c, 1, 9600
2, 509520, Pitch_bend_c, 1, 9600
2, 509760, Pitch_bend_c, 1, 9600
2, 509760, Pitch_bend_c, 1, 8192
2, 509760, Note_off_c, 1, 84, 95
2, 511200, Note_on_c, 0, 84, 95
2, 511440, Note_off_c, 0, 84, 95
2, 511440, Note_on_c, 0, 83, 95
2, 511680, Note_off_c, 0, 83, 95
2, 511680, Note_on_c, 1, 81, 95
2, 511840, Pitch_bend_c, 1, 8192
2, 512000, Pitch_bend_c, 1, 8320
2, 512160, Pitch_bend_c, 1, 8192
2, 512320, Pitch_bend_c, 1, 8320
2, 512480, Pitch_bend_c, 1, 8192
2, 512640, Pitch_bend_c, 1, 8320
2, 512800, Pitch_bend_c, 1, 8192
2, 512960, Pitch_bend_c, 1, 8320
2, 513120, Pitch_bend_c, 1, 8192
2, 513280, Pitch_bend_c, 1, 8320
2, 513440, Pitch_bend_c, 1, 8192
2, 513600, Pitch_bend_c, 1, 8320
2, 513600, Pitch_bend_c, 1, 8192
2, 513600, Note_off_c, 1, 81, 95
2, 513600, Pitch_bend_c, 1, 8192
2, 513600, Note_on_c, 1, 83, 95
2, 513648, Pitch_bend_c, 1, 8320
2, 513696, Pitch_bend_c, 1, 8448
2, 513744, Pitch_bend_c, 1, 8576
2, 513792, Pitch_bend_c, 1, 8704
2, 513840, Pitch_bend_c, 1, 8832
2, 513840, Pitch_bend_c, 1, 8832
2, 514080, Pitch_bend_c, 1, 8832
2, 514128, Pitch_bend_c, 1, 8704
2, 514176, Pitch_bend_c, 1, 8576
2, 514224, Pitch_bend_c, 1, 8448
2, 514272, Pitch_bend_c, 1, 8320
2, 514320, Pitch_bend_c, 1, 8192
2, 514320, Pitch_bend_c, 1, 8192
2, 514560, Pitch_bend_c, 1, 8192
2, 514560, Pitch_bend_c, 1, 8192
2, 514560, Note_off_c, 1, 83, 95
2, 514560, Note_on_c, 0, 81, 95
2, 515040, Note_off_c, 0, 81, 95
2, 515040, Note_on_c, 0, 79, 95
2, 515520, Note_off_c, 0, 79, 95
2, 515520, Note_on_c, 0, 77, 95
2, 516000, Note_off_c, 0, 77, 95
2, 516000, Note_on_c, 0, 76, 95
2, 516480, Note_off_c, 0, 76, 95
2, 516480, Note_on_c, 0, 77, 95
2, 516960, Note_off_c, 0, 77, 95
2, 516960, Note_on_c, 0, 76, 95
2, 517080, Note_off_c, 0, 76, 95
2, 517080, Note_on_c, 0, 77, 70
2, 517200, Note_off_c, 0, 77, 70
2, 517200, Note_on_c, 0, 76, 95
2, 519360, Note_off_c, 0, 76, 95
2, 519360, Note_on_c, 0, 72, 95
2, 519480, Note_off_c, 0, 72, 95
2, 519480, Note_on_c, 0, 74, 95
2, 519600, Note_off_c, 0, 74, 95
2, 519600, Note_on_c, 0, 76, 95
2, 519720, Note_off_c, 0, 76, 95
2, 519720, Note_on_c, 0, 77, 95
2, 519840, Note_off_c, 0, 77, 95
2, 519840, Note_on_c, 0, 79, 95
2, 519960, Note_off_c, 0, 79, 95
2, 519960, Note_on_c, 0, 81, 95
2, 520080, Note_off_c, 0, 81, 95
2, 520080, Note_on_c, 0, 79, 95
2, 520200, Note_off_c, 0, 79, 95
2, 520200, Note_on_c, 0, 81, 95
2, 520320, Note_off_c, 0, 81, 95
2, 520320, Note_on_c, 0, 83, 95
2, 520440, Note_off_c, 0, 83, 95
2, 520440, Note_on_c, 0, 79, 95
2, 520560, Note_off_c, 0, 79, 95
2, 520560, Note_on_c, 0, 81, 95
2, 520800, Note_off_c, 0, 81, 95
2, 520800, Pitch_bend_c, 1, 8192
2, 520800, Note_on_c, 1, 83, 95
2, 520920, Pitch_bend_c, 1, 8320
2, 521040, Pitch_bend_c, 1, 8448
2, 521160, Pitch_bend_c, 1, 8576
2, 521280, Pitch_bend_c, 1, 8704
2, 521400, Pitch_bend_c, 1, 8832
2, 521400, Pitch_bend_c, 1, 8832
2, 522000, Pitch_bend_c, 1, 8832
2, 522120, Pitch_bend_c, 1, 8704
2, 522240, Pitch_bend_c, 1, 8576
2, 522360, Pitch_bend_c, 1, 8448
2, 522480, Pitch_bend_c, 1, 8320
2, 522600, Pitch_bend_c, 1, 8192
2, 522600, Pitch_bend_c, 1, 8192
2, 523200, Pitch_bend_c, 1, 8192
2, 523200, Pitch_bend_c, 1, 8192
2, 523200, Note_off_c, 1, 83, 95
2, 523200, Note_on_c, 0, 83, 95
2, 525120, Note_off_c, 0, 83, 95
2, 525120, Note_on_c, 0, 84, 95
2, 527040, Note_off_c, 0, 84, 95
2, 527040, Note_on_c, 0, 86, 95
2, 528960, Note_off_c, 0, 86, 95
2, 529920, Note_on_c, 0, 86, 95
2, 530400, Note_off_c, 0, 86, 95
2, 530400, Pitch_bend_c, 1, 8192
2, 530400, Note_on_c, 1, 86, 95
2, 530454, Pitch_bend_c, 1, 8320
2, 530508, Pitch_bend_c, 1, 8448
2, 530562, Pitch_bend_c, 1, 8576
2, 530616, Pitch_bend_c, 1, 8704
2, 530670, Pitch_bend_c, 1, 8832
2, 530724, Pitch_bend_c, 1, 8960
2, 530778, Pitch_bend_c, 1, 9088
2, 530832, Pitch_bend_c, 1, 9216
2, 530886, Pitch_bend_c, 1, 9344
2, 530940, Pitch_bend_c, 1, 9472
2, 530994, Pitch_bend_c, 1, 9600
2, 531000, Pitch_bend_c, 1, 9600
2, 531600, Pitch_bend_c, 1, 9600
2, 531654, Pitch_bend_c, 1, 9472
2, 531708, Pitch_bend_c, 1, 9344
2, 531762, Pitch_bend_c, 1, 9216
2, 531816, Pitch_bend_c, 1, 9088
2, 531870, Pitch_bend_c, 1, 8960
2, 531924, Pitch_bend_c, 1, 8832
2, 531978, Pitch_bend_c, 1, 8704
2, 532032, Pitch_bend_c, 1, 8576
2, 532086, Pitch_bend_c, 1, 8448
2, 532140, Pitch_bend_c, 1, 8320
2, 532194, Pitch_bend_c, 1, 8192
2, 532200, Pitch_bend_c, 1, 8192
2, 532800, Pitch_bend_c, 1, 8192
2, 532800, Pitch_bend_c, 1, 8192
2, 532800, Note_off_c, 1, 86, 95
2, 532800, Note_on_c, 0, 84, 95
2, 533280, Note_off_c, 0, 84, 95
2, 533280, Note_on_c, 0, 86, 95
2, 533760, Note_off_c, 0, 86, 95
2, 533760, Note_on_c, 0, 88, 95
2, 534720, Note_off_c, 0, 88, 95
2, 534720, Pitch_bend_c, 1, 8192
2, 534720, Note_on_c, 1, 88, 95
2, 534816, Pitch_bend_c, 1, 8320
2, 534912, Pitch_bend_c, 1, 8448
2, 535008, Pitch_bend_c, 1, 8576
2, 535104, Pitch_bend_c, 1, 8704
2, 535200, Pitch_bend_c, 1, 8832
2, 535200, Pitch_bend_c, 1, 8832
2, 535680, Pitch_bend_c, 1, 8832
2, 536160, Pitch_bend_c, 1, 8832
2, 536224, Pitch_bend_c, 1, 8704
2, 536288, Pitch_bend_c, 1, 8576
2, 536352, Pitch_bend_c, 1, 8448
2, 536416, Pitch_bend_c, 1, 8320
2, 536480, Pitch_bend_c, 1, 8192
2, 536480, Pitch_bend_c, 1, 8192
2, 536640, Pitch_bend_c, 1, 8192
2, 536640, Pitch_bend_c, 1, 8192
2, 536640, Note_off_c, 1, 88, 95
2, 538560, Note_on_c, 0, 88, 95
2, 540480, Note_off_c, 0, 88, 95
2, 541920, Note_on_c, 0, 86, 95
2, 542400, Note_off_c, 0, 86, 95
2, 542400, Note_on_c, 0, 86, 95
2, 544320, Note_off_c, 0, 86, 95
2, 545760, Note_on_c, 0, 84, 95
2, 546240, Note_off_c, 0, 84, 95
2, 546240, Note_on_c, 0, 84, 95
2, 549120, Note_off_c, 0, 84, 95
2, 549120, Note_on_c, 0, 84, 95
2, 551040, Note_off_c, 0, 84, 95
2, 551040, Pitch_bend_c, 1, 8192
2, 551040, Note_on_c, 1, 84, 95
2, 551170, Pitch_bend_c, 1, 8320
2, 551300, Pitch_bend_c, 1, 8448
2, 551430, Pitch_bend_c, 1, 8576
2, 551560, Pitch_bend_c, 1, 8704
2, 551690, Pitch_bend_c, 1, 8832
2, 551820, Pitch_bend_c, 1, 8960
2, 551950, Pitch_bend_c, 1, 9088
2, 552080, Pitch_bend_c, 1, 9216
2, 552210, Pitch_bend_c, 1, 9344
2, 552340, Pitch_bend_c, 1, 9472
2, 552470, Pitch_bend_c, 1, 9600
2, 552480, Pitch_bend_c, 1, 9600
2, 553920, Pitch_bend_c, 1, 9600
2, 553920, Pitch_bend_c, 1, 8192
2, 553920, Note_off_c, 1, 84, 95
2, 553920, Pitch_bend_c, 1, 8192
2, 553920, Note_on_c, 1, 86, 95
2, 553985, Pitch_bend_c, 1, 8320
2, 554050, Pitch_bend_c, 1, 8448
2, 554115, Pitch_bend_c, 1, 8576
2, 554180, Pitch_bend_c, 1, 8704
2, 554245, Pitch_bend_c, 1, 8832
2, 554310, Pitch_bend_c, 1, 8960
2, 554375, Pitch_bend_c, 1, 9088
2, 554440, Pitch_bend_c, 1, 9216
2, 554505, Pitch_bend_c, 1, 9344
2, 554570, Pitch_bend_c, 1, 9472
2, 554635, Pitch_bend_c, 1, 9600
2, 554640, Pitch_bend_c, 1, 9600
2, 555120, Pitch_bend_c, 1, 9600
2, 555163, Pitch_bend_c, 1, 9472
2, 555206, Pitch_bend_c, 1, 9344
2, 555249, Pitch_bend_c, 1, 9216
2, 555292, Pitch_bend_c, 1, 9088
2, 555335, Pitch_bend_c, 1, 8960
2, 555378, Pitch_bend_c, 1, 8832
2, 555421, Pitch_bend_c, 1, 8704
2, 555464, Pitch_bend_c, 1, 8576
2, 555507, Pitch_bend_c, 1, 8448
2, 555550, Pitch_bend_c, 1, 8320
2, 555593, Pitch_bend_c, 1, 8192
2, 555600, Pitch_bend_c, 1, 8192
2, 556080, Pitch_bend_c, 1, 8192
2, 556800, Pitch_bend_c, 1, 8192
2, 556800, Pitch_bend_c, 1, 8192
2, 556800, Note_off_c, 1, 86, 95
2, 556800, Note_on_c, 0, 86, 95
2, 557760, Note_off_c, 0, 86, 95
2, 562560, Note_on_c, 0, 61, 95
2, 563040, Note_off_c, 0, 61, 95
2, 563040, Note_on_c, 0, 62, 95
2, 563520, Note_off_c, 0, 62, 95
2, 563520, Note_on_c, 0, 61, 95
2, 564000, Note_off_c, 0, 61, 95
2, 564000, Note_on_c, 0, 59, 95
2, 565920, Note_off_c, 0, 59, 95
2, 565920, Note_on_c, 0, 57, 95
2, 566880, Note_off_c, 0, 57, 95
2, 568320, Note_on_c, 0, 47, 79
2, 568350, Note_on_c, 0, 52, 79
2, 568380, Note_on_c, 0, 59, 95
2, 568410, Note_on_c, 0, 59, 95
2, 570240, Note_off_c, 0, 59, 95
2, 570240, Note_off_c, 0, 59, 95
2, 570240, Note_off_c, 0, 52, 79
2, 570240, Note_off_c, 0, 47, 79
2, 571680, Note_on_c, 0, 55, 95
2, 573600, Note_off_c, 0, 55, 95
2, 573600, Note_on_c, 1, 62, 95
2, 573720, Pitch_bend_c, 1, 8320
2, 573840, Pitch_bend_c, 1, 8448
2, 573960, Pitch_bend_c, 1, 8704
2, 574080, Pitch_bend_c, 1, 8832
2, 574200, Pitch_bend_c, 1, 8960
2, 574320, Pitch_bend_c, 1, 9216
2, 574440, Pitch_bend_c, 1, 9344
2, 574560, Pitch_bend_c, 1, 9600
2, 574560, Pitch_bend_c, 1, 8192
2, 574560, Note_off_c, 1, 62, 95
2, 574560, Note_on_c, 0, 64, 95
2, 575520, Note_off_c, 0, 64, 95
2, 575520, Note_on_c, 0, 61, 95
2, 576960, Note_off_c, 0, 61, 95
2, 577440, Note_on_c, 0, 57, 95
2, 577920, Note_off_c, 0, 57, 95
2, 577920, Note_on_c, 0, 61, 95
2, 578400, Note_off_c, 0, 61, 95
2, 578400, Note_on_c, 0, 62, 95
2, 578880, Note_off_c, 0, 62, 95
2, 578880, Note_on_c, 0, 61, 95
2, 579360, Note_off_c, 0, 61, 95
2, 579360, Note_on_c, 0, 62, 95
2, 579360, Note_on_c, 0, 59, 95
2, 579840, Note_off_c, 0, 62, 95
2, 579840, Note_off_c, 0, 59, 95
2, 581280, Note_on_c, 0, 61, 95
2, 581280, Note_on_c, 0, 57, 95
2, 582240, Note_off_c, 0, 61, 95
2, 582240, Note_off_c, 0, 57, 95
2, 583680, Note_on_c, 0, 52, 95
2, 583710, Note_on_c, 0, 59, 95
2, 583740, Note_on_c, 0, 59, 95
2, 584640, Note_off_c, 0, 59, 95
2, 584640, Note_off_c, 0, 59, 95
2, 584640, Note_off_c, 0, 52, 95
2, 586080, Note_on_c, 0, 60, 95
2, 586560, Note_off_c, 0, 60, 95
2, 586560, Note_on_c, 0, 59, 95
2, 587040, Note_off_c, 0, 59, 95
2, 587040, Note_on_c, 0, 57, 95
2, 588000, Note_off_c, 0, 57, 95
2, 588000, Note_on_c, 0, 50, 95
2, 588480, Note_off_c, 0, 50, 95
2, 588480, Note_on_c, 1, 54, 95
2, 588600, Pitch_bend_c, 1, 8320
2, 588720, Pitch_bend_c, 1, 8448
2, 588840, Pitch_bend_c, 1, 8704
2, 588960, Pitch_bend_c, 1, 8832
2, 588960, Pitch_bend_c, 1, 8192
2, 588960, Note_off_c, 1, 54, 95
2, 588960, Note_on_c, 0, 55, 95
2, 589920, Note_off_c, 0, 55, 95
2, 589920, Note_on_c, 0, 54, 47
2, 590400, Note_off_c, 0, 54, 47
2, 590400, Note_on_c, 0, 50, 47
2, 590880, Note_off_c, 0, 50, 47
2, 590880, Note_on_c, 0, 43, 47
2, 591360, Note_on_c, 0, 45, 95
2, 592320, Note_off_c, 0, 43, 47
2, 592320, Note_off_c, 0, 45, 95
2, 592320, Note_on_c, 0, 45, 47
2, 592800, Note_off_c, 0, 45, 47
2, 592800, Note_on_c, 0, 57, 95
2, 593280, Note_off_c, 0, 57, 95
2, 593280, Note_on_c, 0, 61, 95
2, 593760, Note_off_c, 0, 61, 95
2, 593760, Note_on_c, 0, 62, 95
2, 594240, Note_off_c, 0, 62, 95
2, 594240, Note_on_c, 0, 61, 95
2, 594720, Note_off_c, 0, 61, 95
2, 594720, Pitch_bend_c, 1, 8192
2, 594720, Note_on_c, 1, 59, 95
2, 595840, Pitch_bend_c, 1, 8192
2, 595920, Pitch_bend_c, 1, 8320
2, 596000, Pitch_bend_c, 1, 8448
2, 596000, Pitch_bend_c, 1, 8448
2, 596080, Pitch_bend_c, 1, 8320
2, 596160, Pitch_bend_c, 1, 8192
2, 596160, Pitch_bend_c, 1, 8192
2, 596320, Pitch_bend_c, 1, 8192
2, 596640, Pitch_bend_c, 1, 8192
2, 596640, Pitch_bend_c, 1, 8192
2, 596640, Note_off_c, 1, 59, 95
2, 596640, Note_on_c, 0, 57, 95
2, 597600, Note_off_c, 0, 57, 95
2, 599040, Note_on_c, 0, 52, 95
2, 599100, Note_on_c, 0, 59, 95
2, 599160, Note_on_c, 0, 59, 95
2, 600960, Note_off_c, 0, 59, 95
2, 600960, Note_off_c, 0, 59, 95
2, 600960, Note_off_c, 0, 52, 95
2, 601440, Note_on_c, 0, 76, 31
2, 601440, Note_on_c, 0, 88, 95
2, 601920, Note_off_c, 0, 76, 31
2, 601920, Note_off_c, 0, 88, 95
2, 602400, Note_on_c, 0, 71, 31
2, 602400, Note_on_c, 0, 83, 95
2, 603360, Note_on_c, 0, 42, 95
2, 604320, Note_off_c, 0, 71, 31
2, 604320, Note_off_c, 0, 83, 95
2, 604320, Note_on_c, 0, 62, 31
2, 604320, Note_on_c, 0, 74, 95
2, 604800, Note_off_c, 0, 42, 95
2, 604800, Note_on_c, 0, 43, 95
2, 606240, Note_off_c, 0, 62, 31
2, 606240, Note_off_c, 0, 74, 95
2, 606240, Note_off_c, 0, 43, 95
2, 606240, Note_on_c, 0, 64, 95
2, 606720, Note_on_c, 0, 45, 95
2, 607680, Note_off_c, 0, 64, 95
2, 607680, Note_on_c, 0, 52, 47
2, 608160, Note_off_c, 0, 45, 95
2, 608160, Note_off_c, 0, 52, 47
2, 608160, Note_on_c, 0, 57, 95
2, 608640, Note_off_c, 0, 57, 95
2, 608640, Note_on_c, 0, 61, 95
2, 609120, Note_off_c, 0, 61, 95
2, 609120, Note_on_c, 0, 62, 95
2, 609600, Note_off_c, 0, 62, 95
2, 609600, Note_on_c, 1, 61, 95
2, 610080, Note_off_c, 1, 61, 95
2, 610560, Note_on_c, 0, 64, 95
2, 611040, Note_off_c, 0, 64, 95
2, 611040, Note_on_c, 0, 62, 95
2, 611520, Note_off_c, 0, 62, 95
2, 611520, Note_on_c, 0, 61, 95
2, 612000, Note_off_c, 0, 61, 95
2, 612000, Note_on_c, 0, 62, 47
2, 612000, Note_on_c, 0, 59, 95
2, 612960, Note_off_c, 0, 62, 47
2, 612960, Note_off_c, 0, 59, 95
2, 612960, Note_on_c, 0, 61, 47
2, 612960, Note_on_c, 0, 57, 95
2, 614400, Note_off_c, 0, 61, 47
2, 614400, Note_off_c, 0, 57, 95
2, 614400, Note_on_c, 0, 52, 95
2, 614460, Note_on_c, 0, 59, 95
2, 614520, Note_on_c, 0, 59, 95
2, 615360, Note_off_c, 0, 59, 95
2, 615360, Note_off_c, 0, 59, 95
2, 615360, Note_off_c, 0, 52, 95
2, 616800, Pitch_bend_c, 1, 8192
2, 616800, Note_on_c, 1, 59, 95
2, 616848, Pitch_bend_c, 1, 8320
2, 616896, Pitch_bend_c, 1, 8448
2, 616944, Pitch_bend_c, 1, 8576
2, 616992, Pitch_bend_c, 1, 8704
2, 617040, Pitch_bend_c, 1, 8832
2, 617040, Pitch_bend_c, 1, 8832
2, 617280, Pitch_bend_c, 1, 8832
2, 617328, Pitch_bend_c, 1, 8704
2, 617376, Pitch_bend_c, 1, 8576
2, 617424, Pitch_bend_c, 1, 8448
2, 617472, Pitch_bend_c, 1, 8320
2, 617520, Pitch_bend_c, 1, 8192
2, 617520, Pitch_bend_c, 1, 8192
2, 617760, Pitch_bend_c, 1, 8192
2, 617760, Pitch_bend_c, 1, 8192
2, 617760, Note_off_c, 1, 59, 95
2, 617760, Note_on_c, 0, 57, 95
2, 618240, Note_off_c, 0, 57, 95
2, 620640, Pitch_bend_c, 1, 8192
2, 620640, Note_on_c, 1, 54, 95
2, 620688, Pitch_bend_c, 1, 8320
2, 620736, Pitch_bend_c, 1, 8448
2, 620784, Pitch_bend_c, 1, 8576
2, 620832, Pitch_bend_c, 1, 8704
2, 620880, Pitch_bend_c, 1, 8832
2, 620880, Pitch_bend_c, 1, 8832
2, 621120, Pitch_bend_c, 1, 8832
2, 621168, Pitch_bend_c, 1, 8704
2, 621216, Pitch_bend_c, 1, 8576
2, 621264, Pitch_bend_c, 1, 8448
2, 621312, Pitch_bend_c, 1, 8320
2, 621360, Pitch_bend_c, 1, 8192
2, 621360, Pitch_bend_c, 1, 8192
2, 621600, Pitch_bend_c, 1, 8192
2, 621600, Pitch_bend_c, 1, 8192
2, 621600, Note_off_c, 1, 54, 95
2, 621600, Note_on_c, 0, 52, 95
2, 622080, Note_off_c, 0, 52, 95
2, 624000, Note_on_c, 0, 57, 31
2, 624000, Note_on_c, 0, 69, 95
2, 624960, Note_on_c, 0, 61, 31
2, 624960, Note_on_c, 0, 73, 95
2, 625920, Note_on_c, 0, 62, 31
2, 625920, Note_on_c, 0, 74, 95
2, 629760, Note_off_c, 0, 57, 31
2, 629760, Note_off_c, 0, 69, 95
2, 629760, Note_off_c, 0, 61, 31
2, 629760, Note_off_c, 0, 73, 95
2, 629760, Note_off_c, 0, 62, 31
2, 629760, Note_off_c, 0, 74, 95
2, 630720, Note_on_c, 0, 45, 63
2, 631200, Note_on_c, 0, 57, 63
2, 632160, Note_off_c, 0, 45, 63
2, 632160, Note_on_c, 0, 45, 63
2, 632640, Note_off_c, 0, 57, 63
2, 632640, Note_on_c, 0, 57, 63
2, 633120, Note_off_c, 0, 57, 63
2, 633120, Note_on_c, 0, 58, 38
2, 633600, Note_off_c, 0, 45, 63
2, 633600, Note_on_c, 0, 45, 63
2, 634080, Note_off_c, 0, 58, 38
2, 634080, Note_on_c, 0, 55, 63
2, 634560, Note_off_c, 0, 45, 63
2, 634560, Note_off_c, 0, 55, 63
2, 634560, Note_on_c, 0, 45, 63
2, 635040, Note_on_c, 0, 57, 63
2, 636000, Note_off_c, 0, 45, 63
2, 636000, Note_on_c, 0, 45, 63
2, 636480, Note_off_c, 0, 57, 63
2, 636480, Note_on_c, 0, 57, 63
2, 636960, Note_off_c, 0, 57, 63
2, 636960, Note_on_c, 0, 58, 38
2, 637440, Note_off_c, 0, 45, 63
2, 637440, Note_on_c, 0, 45, 63
2, 637920, Note_off_c, 0, 58, 38
2, 637920, Note_on_c, 0, 55, 63
2, 638400, Note_off_c, 0, 45, 63
2, 638400, Note_off_c, 0, 55, 63
2, 638400, Note_on_c, 0, 45, 63
2, 638880, Note_on_c, 0, 57, 63
2, 639840, Note_off_c, 0, 45, 63
2, 639840, Note_on_c, 0, 45, 63
2, 640320, Note_off_c, 0, 57, 63
2, 640320, Note_on_c, 0, 57, 63
2, 640800, Note_off_c, 0, 57, 63
2, 640800, Note_on_c, 0, 58, 38
2, 641280, Note_off_c, 0, 45, 63
2, 641280, Note_on_c, 0, 45, 63
2, 641760, Note_off_c, 0, 58, 38
2, 641760, Note_on_c, 0, 55, 63
2, 642240, Note_off_c, 0, 55, 63
2, 642240, Note_on_c, 0, 57, 63
2, 642720, Note_off_c, 0, 45, 63
2, 642720, Note_off_c, 0, 57, 63
2, 642720, Note_on_c, 0, 45, 63
2, 643200, Note_on_c, 0, 52, 63
2, 643680, Note_off_c, 0, 52, 63
2, 643680, Note_on_c, 0, 53, 38
2, 644160, Note_off_c, 0, 45, 63
2, 644160, Note_on_c, 0, 45, 63
2, 644640, Note_off_c, 0, 53, 38
2, 644640, Note_on_c, 0, 50, 63
2, 645120, Note_off_c, 0, 50, 63
2, 645120, Note_on_c, 0, 52, 38
2, 646080, Note_off_c, 0, 45, 63
2, 646080, Note_off_c, 0, 52, 38
2, 646080, Note_on_c, 0, 45, 95
2, 646560, Note_on_c, 0, 57, 95
2, 647520, Note_off_c, 0, 45, 95
2, 647520, Note_on_c, 0, 45, 95
2, 648000, Note_off_c, 0, 57, 95
2, 648000, Note_on_c, 0, 57, 95
2, 648480, Note_off_c, 0, 57, 95
2, 648480, Note_on_c, 0, 58, 70
2, 648960, Note_off_c, 0, 45, 95
2, 648960, Note_on_c, 0, 45, 95
2, 649440, Note_off_c, 0, 58, 70
2, 649440, Note_on_c, 0, 55, 95
2, 649920, Note_off_c, 0, 45, 95
2, 649920, Note_off_c, 0, 55, 95
2, 649920, Note_on_c, 0, 45, 95
2, 650400, Note_on_c, 0, 57, 95
2, 651360, Note_off_c, 0, 45, 95
2, 651360, Note_on_c, 0, 45, 95
2, 651840, Note_off_c, 0, 57, 95
2, 651840, Note_on_c, 0, 57, 95
2, 652320, Note_off_c, 0, 57, 95
2, 652320, Note_on_c, 0, 58, 70
2, 652800, Note_off_c, 0, 45, 95
2, 652800, Note_on_c, 0, 45, 95
2, 653280, Note_off_c, 0, 58, 70
2, 653280, Note_on_c, 0, 55, 95
2, 653760, Note_off_c, 0, 45, 95
2, 653760, Note_off_c, 0, 55, 95
2, 653760, Note_on_c, 0, 45, 95
2, 654240, Note_on_c, 0, 57, 95
2, 655200, Note_off_c, 0, 45, 95
2, 655200, Note_on_c, 0, 45, 95
2, 655680, Note_off_c, 0, 57, 95
2, 655680, Note_on_c, 0, 57, 95
2, 656160, Note_off_c, 0, 57, 95
2, 656160, Note_on_c, 0, 58, 70
2, 656640, Note_off_c, 0, 45, 95
2, 656640, Note_on_c, 0, 45, 95
2, 657120, Note_off_c, 0, 58, 70
2, 657120, Note_on_c, 0, 55, 95
2, 657600, Note_off_c, 0, 55, 95
2, 657600, Note_on_c, 0, 57, 95
2, 658080, Note_off_c, 0, 45, 95
2, 658080, Note_off_c, 0, 57, 95
2, 658080, Note_on_c, 0, 45, 95
2, 658560, Note_on_c, 0, 52, 95
2, 659040, Note_off_c, 0, 52, 95
2, 659040, Note_on_c, 0, 53, 70
2, 659520, Note_off_c, 0, 45, 95
2, 659520, Note_on_c, 0, 45, 95
2, 660000, Note_off_c, 0, 53, 70
2, 660000, Note_on_c, 0, 50, 95
2, 660480, Note_off_c, 0, 50, 95
2, 660480, Note_on_c, 0, 52, 70
2, 661440, Note_off_c, 0, 45, 95
2, 661440, Note_off_c, 0, 52, 70
2, 661440, Note_on_c, 0, 45, 95
2, 661920, Note_on_c, 0, 57, 95
2, 662880, Note_off_c, 0, 45, 95
2, 662880, Note_on_c, 0, 45, 95
2, 663360, Note_off_c, 0, 57, 95
2, 663360, Note_on_c, 0, 57, 95
2, 663840, Note_off_c, 0, 57, 95
2, 663840, Note_on_c, 0, 58, 70
2, 664320, Note_off_c, 0, 45, 95
2, 664320, Note_on_c, 0, 45, 95
2, 664800, Note_off_c, 0, 58, 70
2, 664800, Note_on_c, 0, 55, 95
2, 665280, Note_off_c, 0, 45, 95
2, 665280, Note_off_c, 0, 55, 95
2, 665280, Note_on_c, 0, 45, 95
2, 665760, Note_on_c, 0, 57, 95
2, 666720, Note_off_c, 0, 45, 95
2, 666720, Note_on_c, 0, 45, 95
2, 667200, Note_off_c, 0, 57, 95
2, 667200, Note_on_c, 0, 57, 95
2, 667680, Note_off_c, 0, 57, 95
2, 667680, Note_on_c, 0, 58, 70
2, 668160, Note_off_c, 0, 45, 95
2, 668160, Note_on_c, 0, 45, 95
2, 668640, Note_off_c, 0, 58, 70
2, 668640, Note_on_c, 0, 55, 95
2, 669120, Note_off_c, 0, 45, 95
2, 669120, Note_off_c, 0, 55, 95
2, 669120, Note_on_c, 0, 45, 95
2, 669600, Note_on_c, 0, 57, 95
2, 670560, Note_off_c, 0, 45, 95
2, 670560, Note_on_c, 0, 45, 95
2, 671040, Note_off_c, 0, 57, 95
2, 671040, Note_on_c, 0, 57, 95
2, 671520, Note_off_c, 0, 57, 95
2, 671520, Note_on_c, 0, 58, 70
2, 672000, Note_off_c, 0, 45, 95
2, 672000, Note_on_c, 0, 45, 95
2, 672480, Note_off_c, 0, 58, 70
2, 672480, Note_on_c, 0, 55, 95
2, 672960, Note_off_c, 0, 55, 95
2, 672960, Note_on_c, 0, 57, 95
2, 673440, Note_off_c, 0, 45, 95
2, 673440, Note_off_c, 0, 57, 95
2, 673440, Note_on_c, 0, 45, 95
2, 673920, Note_on_c, 0, 52, 95
2, 674400, Note_off_c, 0, 52, 95
2, 674400, Note_on_c, 0, 53, 70
2, 674880, Note_off_c, 0, 45, 95
2, 674880, Note_on_c, 0, 45, 95
2, 675360, Note_off_c, 0, 53, 70
2, 675360, Note_on_c, 0, 50, 95
2, 675840, Note_off_c, 0, 50, 95
2, 675840, Note_on_c, 0, 52, 70
2, 676800, Note_off_c, 0, 45, 95
2, 676800, Note_off_c, 0, 52, 70
2, 676800, Note_on_c, 0, 45, 79
2, 677280, Note_on_c, 0, 57, 79
2, 678240, Note_off_c, 0, 45, 79
2, 678240, Note_on_c, 0, 45, 95
2, 678720, Note_off_c, 0, 57, 79
2, 678720, Note_on_c, 0, 57, 95
2, 679200, Note_off_c, 0, 57, 95
2, 679200, Note_on_c, 0, 58, 70
2, 679680, Note_off_c, 0, 45, 95
2, 679680, Note_on_c, 0, 45, 95
2, 680160, Note_off_c, 0, 58, 70
2, 680160, Note_on_c, 0, 55, 95
2, 680640, Note_off_c, 0, 45, 95
2, 680640, Note_off_c, 0, 55, 95
2, 680640, Note_on_c, 0, 45, 95
2, 681120, Note_on_c, 0, 57, 95
2, 682080, Note_off_c, 0, 45, 95
2, 682080, Note_on_c, 0, 45, 95
2, 682560, Note_off_c, 0, 57, 95
2, 682560, Note_on_c, 0, 57, 95
2, 683040, Note_off_c, 0, 57, 95
2, 683040, Note_on_c, 0, 58, 70
2, 683520, Note_off_c, 0, 45, 95
2, 683520, Note_on_c, 0, 45, 95
2, 684000, Note_off_c, 0, 58, 70
2, 684000, Note_on_c, 0, 55, 95
2, 684480, Note_off_c, 0, 45, 95
2, 684480, Note_off_c, 0, 55, 95
2, 684480, Note_on_c, 0, 45, 95
2, 684960, Note_on_c, 0, 57, 95
2, 685920, Note_off_c, 0, 45, 95
2, 685920, Note_on_c, 0, 45, 95
2, 686400, Note_off_c, 0, 57, 95
2, 686400, Note_on_c, 0, 57, 95
2, 686880, Note_off_c, 0, 57, 95
2, 686880, Note_on_c, 0, 58, 70
2, 687360, Note_off_c, 0, 45, 95
2, 687360, Note_on_c, 0, 45, 95
2, 687840, Note_off_c, 0, 58, 70
2, 687840, Note_on_c, 0, 55, 95
2, 688320, Note_off_c, 0, 55, 95
2, 688320, Note_on_c, 0, 57, 95
2, 688800, Note_off_c, 0, 45, 95
2, 688800, Note_off_c, 0, 57, 95
2, 688800, Note_on_c, 0, 45, 95
2, 689280, Note_on_c, 0, 52, 95
2, 689760, Note_off_c, 0, 52, 95
2, 689760, Note_on_c, 0, 53, 70
2, 690240, Note_off_c, 0, 45, 95
2, 690240, Note_on_c, 0, 45, 95
2, 690720, Note_off_c, 0, 53, 70
2, 690720, Note_on_c, 0, 50, 95
2, 691200, Note_off_c, 0, 50, 95
2, 691200, Note_on_c, 0, 52, 70
2, 692160, Note_off_c, 0, 45, 95
2, 692160, Note_off_c, 0, 52, 70
2, 692160, Note_on_c, 0, 45, 95
2, 692640, Note_on_c, 0, 57, 95
2, 693600, Note_off_c, 0, 45, 95
2, 693600, Note_on_c, 0, 45, 95
2, 694080, Note_off_c, 0, 57, 95
2, 694080, Note_on_c, 0, 57, 95
2, 694560, Note_off_c, 0, 57, 95
2, 694560, Note_on_c, 0, 58, 70
2, 695040, Note_off_c, 0, 45, 95
2, 695040, Note_on_c, 0, 45, 95
2, 695520, Note_off_c, 0, 58, 70
2, 695520, Note_on_c, 0, 55, 95
2, 696000, Note_off_c, 0, 45, 95
2, 696000, Note_off_c, 0, 55, 95
2, 696000, Note_on_c, 0, 45, 95
2, 696480, Note_on_c, 0, 57, 95
2, 697440, Note_off_c, 0, 45, 95
2, 697440, Note_on_c, 0, 45, 95
2, 697920, Note_off_c, 0, 57, 95
2, 697920, Note_on_c, 0, 57, 95
2, 698400, Note_off_c, 0, 57, 95
2, 698400, Note_on_c, 0, 58, 70
2, 698880, Note_off_c, 0, 45, 95
2, 698880, Note_on_c, 0, 45, 95
2, 699360, Note_off_c, 0, 58, 70
2, 699360, Note_on_c, 0, 55, 95
2, 699840, Note_off_c, 0, 45, 95
2, 699840, Note_off_c, 0, 55, 95
2, 699840, Note_on_c, 0, 45, 95
2, 700320, Note_on_c, 0, 57, 95
2, 701280, Note_off_c, 0, 45, 95
2, 701280, Note_on_c, 0, 45, 95
2, 701760, Note_off_c, 0, 57, 95
2, 701760, Note_on_c, 0, 57, 95
2, 702240, Note_off_c, 0, 57, 95
2, 702240, Note_on_c, 0, 58, 70
2, 702720, Note_off_c, 0, 45, 95
2, 702720, Note_on_c, 0, 45, 95
2, 703200, Note_off_c, 0, 58, 70
2, 703200, Note_on_c, 0, 55, 95
2, 703680, Note_off_c, 0, 55, 95
2, 703680, Note_on_c, 0, 57, 95
2, 704160, Note_off_c, 0, 45, 95
2, 704160, Note_off_c, 0, 57, 95
2, 704160, Note_on_c, 0, 45, 95
2, 704640, Note_on_c, 0, 52, 95
2, 705120, Note_off_c, 0, 52, 95
2, 705120, Note_on_c, 0, 53, 70
2, 705600, Note_off_c, 0, 45, 95
2, 705600, Note_on_c, 0, 45, 95
2, 706080, Note_off_c, 0, 53, 70
2, 706080, Note_on_c, 0, 50, 95
2, 706560, Note_off_c, 0, 50, 95
2, 706560, Note_on_c, 0, 52, 70
2, 707520, Note_off_c, 0, 45, 95
2, 707520, Note_off_c, 0, 52, 70
2, 707520, Note_on_c, 0, 45, 95
2, 708000, Note_on_c, 0, 57, 95
2, 708960, Note_off_c, 0, 45, 95
2, 708960, Note_on_c, 0, 45, 95
2, 709440, Note_off_c, 0, 57, 95
2, 709440, Note_on_c, 0, 57, 95
2, 709920, Note_off_c, 0, 57, 95
2, 709920, Note_on_c, 0, 58, 70
2, 710400, Note_off_c, 0, 45, 95
2, 710400, Note_on_c, 0, 45, 95
2, 710880, Note_off_c, 0, 58, 70
2, 710880, Note_on_c, 0, 55, 95
2, 711360, Note_off_c, 0, 45, 95
2, 711360, Note_off_c, 0, 55, 95
2, 711360, Note_on_c, 0, 45, 95
2, 711840, Note_on_c, 0, 57, 95
2, 712800, Note_off_c, 0, 45, 95
2, 712800, Note_on_c, 0, 45, 95
2, 713280, Note_off_c, 0, 57, 95
2, 713280, Note_on_c, 0, 57, 95
2, 713760, Note_off_c, 0, 57, 95
2, 713760, Note_on_c, 0, 58, 70
2, 714240, Note_off_c, 0, 45, 95
2, 714240, Note_on_c, 0, 45, 95
2, 714720, Note_off_c, 0, 58, 70
2, 714720, Note_on_c, 0, 55, 95
2, 715200, Note_off_c, 0, 45, 95
2, 715200, Note_off_c, 0, 55, 95
2, 715200, Note_on_c, 0, 45, 95
2, 715680, Note_on_c, 0, 57, 95
2, 716640, Note_off_c, 0, 45, 95
2, 716640, Note_on_c, 0, 45, 95
2, 717120, Note_off_c, 0, 57, 95
2, 717120, Note_on_c, 0, 57, 95
2, 717600, Note_off_c, 0, 57, 95
2, 717600, Note_on_c, 0, 58, 70
2, 718080, Note_off_c, 0, 45, 95
2, 718080, Note_on_c, 0, 45, 95
2, 718560, Note_off_c, 0, 58, 70
2, 718560, Note_on_c, 0, 55, 95
2, 719040, Note_off_c, 0, 55, 95
2, 719040, Note_on_c, 0, 57, 95
2, 719520, Note_off_c, 0, 45, 95
2, 719520, Note_off_c, 0, 57, 95
2, 719520, Note_on_c, 0, 55, 31
2, 719520, Note_on_c, 0, 50, 31
2, 719520, Note_on_c, 0, 45, 15
2, 719587, Note_off_c, 0, 55, 31
2, 719587, Note_off_c, 0, 50, 31
2, 720000, Note_off_c, 0, 45, 15
2, 720000, Note_on_c, 0, 64, 111
2, 720000, Note_on_c, 0, 59, 111
2, 720000, Note_on_c, 0, 52, 111
2, 720480, Note_off_c, 0, 64, 111
2, 720480, Note_off_c, 0, 59, 111
2, 720480, Note_off_c, 0, 52, 111
2, 720480, Note_on_c, 0, 65, 111
2, 720480, Note_on_c, 0, 60, 111
2, 720480, Note_on_c, 0, 53, 111
2, 720960, Note_off_c, 0, 65, 111
2, 720960, Note_off_c, 0, 60, 111
2, 720960, Note_off_c, 0, 53, 111
2, 721440, Note_on_c, 0, 62, 111
2, 721440, Note_on_c, 0, 57, 111
2, 721440, Note_on_c, 0, 50, 111
2, 721920, Note_off_c, 0, 62, 111
2, 721920, Note_off_c, 0, 57, 111
2, 721920, Note_off_c, 0, 50, 111
2, 721920, Note_on_c, 0, 64, 111
2, 721920, Note_on_c, 0, 59, 111
2, 721920, Note_on_c, 0, 52, 111
2, 722880, Note_off_c, 0, 64, 111
2, 722880, Note_off_c, 0, 59, 111
2, 722880, Note_off_c, 0, 52, 111
2, 722880, Note_on_c, 1, 43, 95
2, 723040, Pitch_bend_c, 1, 8192
2, 723200, Pitch_bend_c, 1, 8320
2, 723360, Pitch_bend_c, 1, 8192
2, 723520, Pitch_bend_c, 1, 8320
2, 723680, Pitch_bend_c, 1, 8192
2, 723840, Pitch_bend_c, 1, 8320
2, 724000, Pitch_bend_c, 1, 8192
2, 724160, Pitch_bend_c, 1, 8320
2, 724320, Pitch_bend_c, 1, 8192
2, 724320, Pitch_bend_c, 1, 8320
2, 724320, Pitch_bend_c, 1, 8192
2, 724320, Note_off_c, 1, 43, 95
2, 724320, Note_on_c, 1, 45, 95
2, 724480, Pitch_bend_c, 1, 8192
2, 724640, Pitch_bend_c, 1, 8320
2, 724800, Pitch_bend_c, 1, 8192
2, 724960, Pitch_bend_c, 1, 8320
2, 725120, Pitch_bend_c, 1, 8192
2, 725280, Pitch_bend_c, 1, 8320
2, 725440, Pitch_bend_c, 1, 8192
2, 725600, Pitch_bend_c, 1, 8320
2, 725760, Pitch_bend_c, 1, 8192
2, 725760, Pitch_bend_c, 1, 8320
2, 725760, Pitch_bend_c, 1, 8192
2, 725760, Note_off_c, 1, 45, 95
2, 725760, Note_on_c, 1, 46, 95
2, 725920, Pitch_bend_c, 1, 8192
2, 726080, Pitch_bend_c, 1, 8320
2, 726240, Pitch_bend_c, 1, 8192
2, 726400, Pitch_bend_c, 1, 8320
2, 726560, Pitch_bend_c, 1, 8192
2, 726720, Pitch_bend_c, 1, 8320
2, 726720, Pitch_bend_c, 1, 8192
2, 726720, Note_off_c, 1, 46, 95
2, 728640, Note_on_c, 1, 43, 95
2, 728800, Pitch_bend_c, 1, 8192
2, 728960, Pitch_bend_c, 1, 8320
2, 729120, Pitch_bend_c, 1, 8192
2, 729280, Pitch_bend_c, 1, 8320
2, 729440, Pitch_bend_c, 1, 8192
2, 729600, Pitch_bend_c, 1, 8320
2, 729760, Pitch_bend_c, 1, 8192
2, 729920, Pitch_bend_c, 1, 8320
2, 730080, Pitch_bend_c, 1, 8192
2, 730240, Pitch_bend_c, 1, 8320
2, 730400, Pitch_bend_c, 1, 8192
2, 730560, Pitch_bend_c, 1, 8320
2, 730560, Pitch_bend_c, 1, 8192
2, 730560, Note_off_c, 1, 43, 95
2, 730560, Note_on_c, 1, 50, 95
2, 730720, Pitch_bend_c, 1, 8192
2, 730880, Pitch_bend_c, 1, 8320
2, 731040, Pitch_bend_c, 1, 8192
2, 731200, Pitch_bend_c, 1, 8320
2, 731360, Pitch_bend_c, 1, 8192
2, 731520, Pitch_bend_c, 1, 8320
2, 731680, Pitch_bend_c, 1, 8192
2, 731840, Pitch_bend_c, 1, 8320
2, 732000, Pitch_bend_c, 1, 8192
2, 732000, Pitch_bend_c, 1, 8320
2, 732000, Pitch_bend_c, 1, 8192
2, 732000, Note_off_c, 1, 50, 95
2, 732000, Note_on_c, 1, 49, 95
2, 732160, Pitch_bend_c, 1, 8192
2, 732320, Pitch_bend_c, 1, 8320
2, 732480, Pitch_bend_c, 1, 8192
2, 732640, Pitch_bend_c, 1, 8320
2, 732800, Pitch_bend_c, 1, 8192
2, 732960, Pitch_bend_c, 1, 8320
2, 733120, Pitch_bend_c, 1, 8192
2, 733280, Pitch_bend_c, 1, 8320
2, 733440, Pitch_bend_c, 1, 8192
2, 733600, Pitch_bend_c, 1, 8320
2, 733760, Pitch_bend_c, 1, 8192
2, 733920, Pitch_bend_c, 1, 8320
2, 734080, Pitch_bend_c, 1, 8192
2, 734240, Pitch_bend_c, 1, 8320
2, 734400, Pitch_bend_c, 1, 8192
2, 734560, Pitch_bend_c, 1, 8320
2, 734720, Pitch_bend_c, 1, 8192
2, 734880, Pitch_bend_c, 1, 8320
2, 734880, Pitch_bend_c, 1, 8192
2, 734880, Note_off_c, 1, 49, 95
2, 734880, Control_c, 1, 11, 31
2, 734880, Note_on_c, 1, 56, 63
2, 734880, Note_on_c, 1, 68, 127
2, 734915, Control_c, 1, 11, 32
2, 734950, Control_c, 1, 11, 33
2, 734985, Control_c, 1, 11, 34
2, 735020, Control_c, 1, 11, 35
2, 735040, Pitch_bend_c, 1, 8192
2, 735055, Control_c, 1, 11, 36
2, 735090, Control_c, 1, 11, 37
2, 735125, Control_c, 1, 11, 38
2, 735160, Control_c, 1, 11, 39
2, 735195, Control_c, 1, 11, 40
2, 735200, Pitch_bend_c, 1, 8320
2, 735230, Control_c, 1, 11, 41
2, 735265, Control_c, 1, 11, 42
2, 735300, Control_c, 1, 11, 43
2, 735335, Control_c, 1, 11, 44
2, 735360, Pitch_bend_c, 1, 8192
2, 735370, Control_c, 1, 11, 45
2, 735405, Control_c, 1, 11, 46
2, 735440, Control_c, 1, 11, 47
2, 735475, Control_c, 1, 11, 48
2, 735510, Control_c, 1, 11, 49
2, 735520, Pitch_bend_c, 1, 8320
2, 735545, Control_c, 1, 11, 50
2, 735580, Control_c, 1, 11, 51
2, 735615, Control_c, 1, 11, 52
2, 735650, Control_c, 1, 11, 53
2, 735680, Pitch_bend_c, 1, 8192
2, 735685, Control_c, 1, 11, 54
2, 735720, Control_c, 1, 11, 55
2, 735755, Control_c, 1, 11, 56
2, 735790, Control_c, 1, 11, 57
2, 735825, Control_c, 1, 11, 58
2, 735840, Pitch_bend_c, 1, 8320
2, 735860, Control_c, 1, 11, 59
2, 735895, Control_c, 1, 11, 60
2, 735930, Control_c, 1, 11, 61
2, 735965, Control_c, 1, 11, 62
2, 736000, Control_c, 1, 11, 63
2, 736000, Pitch_bend_c, 1, 8192
2, 736035, Control_c, 1, 11, 64
2, 736070, Control_c, 1, 11, 65
2, 736105, Control_c, 1, 11, 66
2, 736140, Control_c, 1, 11, 67
2, 736160, Pitch_bend_c, 1, 8320
2, 736175, Control_c, 1, 11, 68
2, 736210, Control_c, 1, 11, 69
2, 736245, Control_c, 1, 11, 70
2, 736280, Control_c, 1, 11, 71
2, 736315, Control_c, 1, 11, 72
2, 736320, Pitch_bend_c, 1, 8192
2, 736350, Control_c, 1, 11, 73
2, 736385, Control_c, 1, 11, 74
2, 736420, Control_c, 1, 11, 75
2, 736455, Control_c, 1, 11, 76
2, 736480, Pitch_bend_c, 1, 8320
2, 736490, Control_c, 1, 11, 77
2, 736525, Control_c, 1, 11, 78
2, 736560, Control_c, 1, 11, 79
2, 736595, Control_c, 1, 11, 80
2, 736630, Control_c, 1, 11, 81
2, 736640, Pitch_bend_c, 1, 8192
2, 736665, Control_c, 1, 11, 82
2, 736700, Control_c, 1, 11, 83
2, 736735, Control_c, 1, 11, 84
2, 736770, Control_c, 1, 11, 85
2, 736800, Pitch_bend_c, 1, 8320
2, 736805, Control_c, 1, 11, 86
2, 736840, Control_c, 1, 11, 87
2, 736875, Control_c, 1, 11, 88
2, 736910, Control_c, 1, 11, 89
2, 736945, Control_c, 1, 11, 90
2, 736960, Pitch_bend_c, 1, 8192
2, 736980, Control_c, 1, 11, 91
2, 737015, Control_c, 1, 11, 92
2, 737050, Control_c, 1, 11, 93
2, 737085, Control_c, 1, 11, 94
2, 737120, Control_c, 1, 11, 95
2, 737120, Pitch_bend_c, 1, 8320
2, 737155, Control_c, 1, 11, 96
2, 737190, Control_c, 1, 11, 97
2, 737225, Control_c, 1, 11, 98
2, 737260, Control_c, 1, 11, 99
2, 737280, Pitch_bend_c, 1, 8192
2, 737295, Control_c, 1, 11, 100
2, 737330, Control_c, 1, 11, 101
2, 737365, Control_c, 1, 11, 102
2, 737400, Control_c, 1, 11, 103
2, 737435, Control_c, 1, 11, 104
2, 737440, Pitch_bend_c, 1, 8320
2, 737470, Control_c, 1, 11, 105
2, 737505, Control_c, 1, 11, 106
2, 737540, Control_c, 1, 11, 107
2, 737575, Control_c, 1, 11, 108
2, 737600, Pitch_bend_c, 1, 8192
2, 737610, Control_c, 1, 11, 109
2, 737645, Control_c, 1, 11, 110
2, 737680, Control_c, 1, 11, 111
2, 737715, Control_c, 1, 11, 112
2, 737750, Control_c, 1, 11, 113
2, 737760, Pitch_bend_c, 1, 8320
2, 737785, Control_c, 1, 11, 114
2, 737820, Control_c, 1, 11, 115
2, 737855, Control_c, 1, 11, 116
2, 737890, Control_c, 1, 11, 117
2, 737920, Pitch_bend_c, 1, 8192
2, 737925, Control_c, 1, 11, 118
2, 737960, Control_c, 1, 11, 119
2, 737995, Control_c, 1, 11, 120
2, 738030, Control_c, 1, 11, 121
2, 738065, Control_c, 1, 11, 122
2, 738080, Pitch_bend_c, 1, 8320
2, 738100, Control_c, 1, 11, 123
2, 738135, Control_c, 1, 11, 124
2, 738170, Control_c, 1, 11, 125
2, 738205, Control_c, 1, 11, 126
2, 738240, Control_c, 1, 11, 127
2, 738240, Pitch_bend_c, 1, 8192
2, 738240, Pitch_bend_c, 1, 8320
2, 738240, Pitch_bend_c, 1, 8192
2, 738240, Note_off_c, 1, 56, 63
2, 738240, Note_off_c, 1, 68, 127
2, 738240, Note_on_c, 1, 43, 95
2, 738400, Pitch_bend_c, 1, 8192
2, 738560, Pitch_bend_c, 1, 8320
2, 738720, Pitch_bend_c, 1, 8192
2, 738880, Pitch_bend_c, 1, 8320
2, 739040, Pitch_bend_c, 1, 8192
2, 739200, Pitch_bend_c, 1, 8320
2, 739360, Pitch_bend_c, 1, 8192
2, 739520, Pitch_bend_c, 1, 8320
2, 739680, Pitch_bend_c, 1, 8192
2, 739680, Pitch_bend_c, 1, 8320
2, 739680, Pitch_bend_c, 1, 8192
2, 739680, Note_off_c, 1, 43, 95
2, 739680, Note_on_c, 1, 45, 95
2, 739840, Pitch_bend_c, 1, 8192
2, 740000, Pitch_bend_c, 1, 8320
2, 740160, Pitch_bend_c, 1, 8192
2, 740320, Pitch_bend_c, 1, 8320
2, 740480, Pitch_bend_c, 1, 8192
2, 740640, Pitch_bend_c, 1, 8320
2, 740800, Pitch_bend_c, 1, 8192
2, 740960, Pitch_bend_c, 1, 8320
2, 741120, Pitch_bend_c, 1, 8192
2, 741120, Pitch_bend_c, 1, 8320
2, 741120, Pitch_bend_c, 1, 8192
2, 741120, Note_off_c, 1, 45, 95
2, 741120, Note_on_c, 1, 46, 95
2, 741280, Pitch_bend_c, 1, 8192
2, 741440, Pitch_bend_c, 1, 8320
2, 741600, Pitch_bend_c, 1, 8192
2, 741760, Pitch_bend_c, 1, 8320
2, 741920, Pitch_bend_c, 1, 8192
2, 742080, Pitch_bend_c, 1, 8320
2, 742080, Pitch_bend_c, 1, 8192
2, 742080, Note_off_c, 1, 46, 95
2, 744000, Note_on_c, 1, 43, 95
2, 744160, Pitch_bend_c, 1, 8192
2, 744320, Pitch_bend_c, 1, 8320
2, 744480, Pitch_bend_c, 1, 8192
2, 744640, Pitch_bend_c, 1, 8320
2, 744800, Pitch_bend_c, 1, 8192
2, 744960, Pitch_bend_c, 1, 8320
2, 745120, Pitch_bend_c, 1, 8192
2, 745280, Pitch_bend_c, 1, 8320
2, 745440, Pitch_bend_c, 1, 8192
2, 745600, Pitch_bend_c, 1, 8320
2, 745760, Pitch_bend_c, 1, 8192
2, 745920, Pitch_bend_c, 1, 8320
2, 745920, Pitch_bend_c, 1, 8192
2, 745920, Note_off_c, 1, 43, 95
2, 745920, Note_on_c, 1, 53, 95
2, 746080, Pitch_bend_c, 1, 8192
2, 746240, Pitch_bend_c, 1, 8320
2, 746400, Pitch_bend_c, 1, 8192
2, 746560, Pitch_bend_c, 1, 8320
2, 746720, Pitch_bend_c, 1, 8192
2, 746880, Pitch_bend_c, 1, 8320
2, 747040, Pitch_bend_c, 1, 8192
2, 747200, Pitch_bend_c, 1, 8320
2, 747360, Pitch_bend_c, 1, 8192
2, 747360, Pitch_bend_c, 1, 8320
2, 747360, Pitch_bend_c, 1, 8192
2, 747360, Note_off_c, 1, 53, 95
2, 747360, Note_on_c, 1, 52, 95
2, 747520, Pitch_bend_c, 1, 8192
2, 747680, Pitch_bend_c, 1, 8320
2, 747840, Pitch_bend_c, 1, 8192
2, 748000, Pitch_bend_c, 1, 8320
2, 748160, Pitch_bend_c, 1, 8192
2, 748320, Pitch_bend_c, 1, 8320
2, 748480, Pitch_bend_c, 1, 8192
2, 748640, Pitch_bend_c, 1, 8320
2, 748800, Pitch_bend_c, 1, 8192
2, 748960, Pitch_bend_c, 1, 8320
2, 749120, Pitch_bend_c, 1, 8192
2, 749280, Pitch_bend_c, 1, 8320
2, 749280, Pitch_bend_c, 1, 8192
2, 749280, Note_off_c, 1, 52, 95
2, 753600, Note_on_c, 1, 43, 95
2, 753760, Pitch_bend_c, 1, 8192
2, 753920, Pitch_bend_c, 1, 8320
2, 754080, Pitch_bend_c, 1, 8192
2, 754240, Pitch_bend_c, 1, 8320
2, 754400, Pitch_bend_c, 1, 8192
2, 754560, Pitch_bend_c, 1, 8320
2, 754720, Pitch_bend_c, 1, 8192
2, 754880, Pitch_bend_c, 1, 8320
2, 755040, Pitch_bend_c, 1, 8192
2, 755040, Pitch_bend_c, 1, 8320
2, 755040, Pitch_bend_c, 1, 8192
2, 755040, Note_off_c, 1, 43, 95
2, 755040, Note_on_c, 1, 45, 95
2, 755200, Pitch_bend_c, 1, 8192
2, 755360, Pitch_bend_c, 1, 8320
2, 755520, Pitch_bend_c, 1, 8192
2, 755680, Pitch_bend_c, 1, 8320
2, 755840, Pitch_bend_c, 1, 8192
2, 756000, Pitch_bend_c, 1, 8320
2, 756160, Pitch_bend_c, 1, 8192
2, 756320, Pitch_bend_c, 1, 8320
2, 756480, Pitch_bend_c, 1, 8192
2, 756480, Pitch_bend_c, 1, 8320
2, 756480, Pitch_bend_c, 1, 8192
2, 756480, Note_off_c, 1, 45, 95
2, 756480, Note_on_c, 1, 46, 95
2, 756640, Pitch_bend_c, 1, 8192
2, 756800, Pitch_bend_c, 1, 8320
2, 756960, Pitch_bend_c, 1, 8192
2, 757120, Pitch_bend_c, 1, 8320
2, 757280, Pitch_bend_c, 1, 8192
2, 757440, Pitch_bend_c, 1, 8320
2, 757440, Pitch_bend_c, 1, 8192
2, 757440, Note_off_c, 1, 46, 95
2, 759360, Note_on_c, 1, 43, 95
2, 759520, Pitch_bend_c, 1, 8192
2, 759680, Pitch_bend_c, 1, 8320
2, 759840, Pitch_bend_c, 1, 8192
2, 760000, Pitch_bend_c, 1, 8320
2, 760160, Pitch_bend_c, 1, 8192
2, 760320, Pitch_bend_c, 1, 8320
2, 760480, Pitch_bend_c, 1, 8192
2, 760640, Pitch_bend_c, 1, 8320
2, 760800, Pitch_bend_c, 1, 8192
2, 760960, Pitch_bend_c, 1, 8320
2, 761120, Pitch_bend_c, 1, 8192
2, 761280, Pitch_bend_c, 1, 8320
2, 761280, Pitch_bend_c, 1, 8192
2, 761280, Note_off_c, 1, 43, 95
2, 761280, Note_on_c, 1, 50, 95
2, 761440, Pitch_bend_c, 1, 8192
2, 761600, Pitch_bend_c, 1, 8320
2, 761760, Pitch_bend_c, 1, 8192
2, 761920, Pitch_bend_c, 1, 8320
2, 762080, Pitch_bend_c, 1, 8192
2, 762240, Pitch_bend_c, 1, 8320
2, 762400, Pitch_bend_c, 1, 8192
2, 762560, Pitch_bend_c, 1, 8320
2, 762720, Pitch_bend_c, 1, 8192
2, 762720, Pitch_bend_c, 1, 8320
2, 762720, Pitch_bend_c, 1, 8192
2, 762720, Note_off_c, 1, 50, 95
2, 762720, Note_on_c, 1, 49, 95
2, 762880, Pitch_bend_c, 1, 8192
2, 763040, Pitch_bend_c, 1, 8320
2, 763200, Pitch_bend_c, 1, 8192
2, 763360, Pitch_bend_c, 1, 8320
2, 763520, Pitch_bend_c, 1, 8192
2, 763680, Pitch_bend_c, 1, 8320
2, 763840, Pitch_bend_c, 1, 8192
2, 764000, Pitch_bend_c, 1, 8320
2, 764160, Pitch_bend_c, 1, 8192
2, 764320, Pitch_bend_c, 1, 8320
2, 764480, Pitch_bend_c, 1, 8192
2, 764640, Pitch_bend_c, 1, 8320
2, 764800, Pitch_bend_c, 1, 8192
2, 764960, Pitch_bend_c, 1, 8320
2, 765120, Pitch_bend_c, 1, 8192
2, 765280, Pitch_bend_c, 1, 8320
2, 765440, Pitch_bend_c, 1, 8192
2, 765600, Pitch_bend_c, 1, 8320
2, 765600, Pitch_bend_c, 1, 8192
2, 765600, Note_off_c, 1, 49, 95
2, 766080, Note_on_c, 0, 64, 95
2, 766080, Note_on_c, 0, 59, 95
2, 766080, Note_on_c, 0, 55, 95
2, 766080, Note_on_c, 0, 50, 95
2, 766080, Note_on_c, 0, 45, 95
2, 766080, Note_on_c, 0, 40, 95
2, 766145, Note_off_c, 0, 64, 95
2, 766145, Note_off_c, 0, 59, 95
2, 766145, Note_off_c, 0, 55, 95
2, 766145, Note_off_c, 0, 50, 95
2, 766145, Note_off_c, 0, 45, 95
2, 766145, Note_off_c, 0, 40, 95
2, 766560, Note_on_c, 0, 64, 95
2, 766560, Note_on_c, 0, 59, 95
2, 766560, Note_on_c, 0, 55, 95
2, 766560, Note_on_c, 0, 50, 95
2, 766560, Note_on_c, 0, 45, 95
2, 766560, Note_on_c, 0, 40, 95
2, 766625, Note_off_c, 0, 64, 95
2, 766625, Note_off_c, 0, 59, 95
2, 766625, Note_off_c, 0, 55, 95
2, 766625, Note_off_c, 0, 50, 95
2, 766625, Note_off_c, 0, 45, 95
2, 766625, Note_off_c, 0, 40, 95
2, 768960, Note_on_c, 1, 43, 95
2, 769120, Pitch_bend_c, 1, 8192
2, 769280, Pitch_bend_c, 1, 8320
2, 769440, Pitch_bend_c, 1, 8192
2, 769600, Pitch_bend_c, 1, 8320
2, 769760, Pitch_bend_c, 1, 8192
2, 769920, Pitch_bend_c, 1, 8320
2, 770080, Pitch_bend_c, 1, 8192
2, 770240, Pitch_bend_c, 1, 8320
2, 770400, Pitch_bend_c, 1, 8192
2, 770400, Pitch_bend_c, 1, 8320
2, 770400, Pitch_bend_c, 1, 8192
2, 770400, Note_off_c, 1, 43, 95
2, 770400, Note_on_c, 1, 45, 95
2, 770560, Pitch_bend_c, 1, 8192
2, 770720, Pitch_bend_c, 1, 8320
2, 770880, Pitch_bend_c, 1, 8192
2, 771040, Pitch_bend_c, 1, 8320
2, 771200, Pitch_bend_c, 1, 8192
2, 771360, Pitch_bend_c, 1, 8320
2, 771520, Pitch_bend_c, 1, 8192
2, 771680, Pitch_bend_c, 1, 8320
2, 771840, Pitch_bend_c, 1, 8192
2, 771840, Pitch_bend_c, 1, 8320
2, 771840, Pitch_bend_c, 1, 8192
2, 771840, Note_off_c, 1, 45, 95
2, 771840, Note_on_c, 1, 46, 95
2, 772000, Pitch_bend_c, 1, 8192
2, 772160, Pitch_bend_c, 1, 8320
2, 772320, Pitch_bend_c, 1, 8192
2, 772480, Pitch_bend_c, 1, 8320
2, 772640, Pitch_bend_c, 1, 8192
2, 772800, Pitch_bend_c, 1, 8320
2, 772960, Pitch_bend_c, 1, 8192
2, 773120, Pitch_bend_c, 1, 8320
2, 773280, Pitch_bend_c, 1, 8192
2, 773440, Pitch_bend_c, 1, 8320
2, 773600, Pitch_bend_c, 1, 8192
2, 773760, Pitch_bend_c, 1, 8320
2, 773920, Pitch_bend_c, 1, 8192
2, 774080, Pitch_bend_c, 1, 8320
2, 774240, Pitch_bend_c, 1, 8192
2, 774400, Pitch_bend_c, 1, 8320
2, 774560, Pitch_bend_c, 1, 8192
2, 774720, Pitch_bend_c, 1, 8320
2, 774720, Pitch_bend_c, 1, 8192
2, 774720, Note_off_c, 1, 46, 95
2, 774720, Note_on_c, 0, 41, 95
2, 775680, Note_off_c, 0, 41, 95
2, 775680, Note_on_c, 0, 40, 95
2, 776640, Note_off_c, 0, 40, 95
2, 776640, Note_on_c, 0, 50, 95
2, 776775, Note_off_c, 0, 50, 95
2, 777120, Note_on_c, 0, 57, 95
2, 777255, Note_off_c, 0, 57, 95
2, 777600, Note_on_c, 0, 62, 95
2, 777735, Note_off_c, 0, 62, 95
2, 778080, Note_on_c, 0, 53, 95
2, 778215, Note_off_c, 0, 53, 95
2, 778560, Note_on_c, 0, 60, 95
2, 778695, Note_off_c, 0, 60, 95
2, 779040, Note_on_c, 0, 65, 95
2, 779175, Note_off_c, 0, 65, 95
2, 779520, Note_on_c, 0, 48, 95
2, 779655, Note_off_c, 0, 48, 95
2, 780000, Note_on_c, 0, 55, 95
2, 780135, Note_off_c, 0, 55, 95
2, 780480, Note_on_c, 0, 50, 95
2, 780615, Note_off_c, 0, 50, 95
2, 780960, Note_on_c, 0, 57, 95
2, 781095, Note_off_c, 0, 57, 95
2, 781440, Note_on_c, 0, 62, 95
2, 781575, Note_off_c, 0, 62, 95
2, 781920, Note_on_c, 0, 53, 95
2, 782055, Note_off_c, 0, 53, 95
2, 782400, Note_on_c, 0, 60, 95
2, 782467, Note_off_c, 0, 60, 95
2, 782880, Note_on_c, 0, 52, 95
2, 783015, Note_off_c, 0, 52, 95
2, 783360, Note_on_c, 0, 59, 95
2, 783427, Note_off_c, 0, 59, 95
2, 783840, Note_on_c, 0, 50, 95
2, 783975, Note_off_c, 0, 50, 95
2, 784320, Note_on_c, 0, 57, 95
2, 784455, Note_off_c, 0, 57, 95
2, 784800, Note_on_c, 0, 62, 95
2, 784935, Note_off_c, 0, 62, 95
2, 785280, Note_on_c, 0, 53, 95
2, 785415, Note_off_c, 0, 53, 95
2, 785760, Note_on_c, 0, 60, 95
2, 785895, Note_off_c, 0, 60, 95
2, 786240, Note_on_c, 0, 65, 95
2, 786375, Note_off_c, 0, 65, 95
2, 786720, Note_on_c, 0, 48, 95
2, 786855, Note_off_c, 0, 48, 95
2, 787200, Note_on_c, 0, 55, 95
2, 787335, Note_off_c, 0, 55, 95
2, 787680, Note_on_c, 0, 48, 95
2, 787815, Note_off_c, 0, 48, 95
2, 788160, Note_on_c, 0, 52, 95
2, 788295, Note_off_c, 0, 52, 95
2, 788640, Note_on_c, 0, 50, 95
2, 788775, Note_off_c, 0, 50, 95
2, 789120, Note_on_c, 0, 43, 95
2, 789255, Note_off_c, 0, 43, 95
2, 789600, Note_on_c, 0, 52, 95
2, 789735, Note_off_c, 0, 52, 95
2, 790080, Note_on_c, 0, 50, 95
2, 790215, Note_off_c, 0, 50, 95
2, 790560, Note_on_c, 0, 48, 95
2, 790695, Note_off_c, 0, 48, 95
2, 791040, Note_on_c, 0, 52, 95
2, 791175, Note_off_c, 0, 52, 95
2, 791520, Note_on_c, 0, 50, 95
2, 791655, Note_off_c, 0, 50, 95
2, 792000, Note_on_c, 0, 48, 95
2, 792135, Note_off_c, 0, 48, 95
2, 792480, Note_on_c, 0, 50, 95
2, 792615, Note_off_c, 0, 50, 95
2, 792960, Note_on_c, 0, 55, 95
2, 793095, Note_off_c, 0, 55, 95
2, 793440, Note_on_c, 0, 53, 95
2, 793575, Note_off_c, 0, 53, 95
2, 793920, Note_on_c, 0, 55, 95
2, 794055, Note_off_c, 0, 55, 95
2, 794400, Note_on_c, 0, 52, 95
2, 794535, Note_off_c, 0, 52, 95
2, 794880, Note_on_c, 0, 55, 95
2, 795015, Note_off_c, 0, 55, 95
2, 795360, Note_on_c, 0, 50, 95
2, 795495, Note_off_c, 0, 50, 95
2, 795840, Note_on_c, 0, 57, 95
2, 795975, Note_off_c, 0, 57, 95
2, 796320, Note_on_c, 0, 62, 95
2, 796455, Note_off_c, 0, 62, 95
2, 796800, Note_on_c, 0, 45, 95
2, 796935, Note_off_c, 0, 45, 95
2, 797280, Note_on_c, 0, 50, 95
2, 797415, Note_off_c, 0, 50, 95
2, 797760, Note_on_c, 0, 55, 95
2, 797895, Note_off_c, 0, 55, 95
2, 798240, Note_on_c, 0, 48, 95
2, 798375, Note_off_c, 0, 48, 95
2, 798720, Note_on_c, 0, 52, 95
2, 798855, Note_off_c, 0, 52, 95
2, 799200, Note_on_c, 0, 50, 95
2, 799335, Note_off_c, 0, 50, 95
2, 799680, Note_on_c, 0, 57, 95
2, 799815, Note_off_c, 0, 57, 95
2, 800160, Note_on_c, 0, 62, 95
2, 800295, Note_off_c, 0, 62, 95
2, 800640, Note_on_c, 0, 53, 95
2, 800775, Note_off_c, 0, 53, 95
2, 801120, Note_on_c, 0, 60, 95
2, 801255, Note_off_c, 0, 60, 95
2, 801600, Note_on_c, 0, 52, 95
2, 801735, Note_off_c, 0, 52, 95
2, 802080, Note_on_c, 0, 50, 95
2, 802147, Note_off_c, 0, 50, 95
2, 802560, Note_on_c, 0, 50, 95
2, 802695, Note_off_c, 0, 50, 95
2, 803040, Note_on_c, 0, 43, 95
2, 803175, Note_off_c, 0, 43, 95
2, 803520, Note_on_c, 0, 52, 95
2, 803655, Note_off_c, 0, 52, 95
2, 804000, Note_on_c, 0, 50, 95
2, 804135, Note_off_c, 0, 50, 95
2, 804480, Note_on_c, 0, 43, 95
2, 804615, Note_off_c, 0, 43, 95
2, 804960, Note_on_c, 0, 52, 95
2, 805095, Note_off_c, 0, 52, 95
2, 805440, Note_on_c, 0, 50, 95
2, 805575, Note_off_c, 0, 50, 95
2, 805920, Note_on_c, 0, 48, 95
2, 806055, Note_off_c, 0, 48, 95
2, 806400, Note_on_c, 0, 50, 95
2, 806535, Note_off_c, 0, 50, 95
2, 806880, Note_on_c, 0, 55, 95
2, 807015, Note_off_c, 0, 55, 95
2, 807360, Note_on_c, 0, 48, 95
2, 807495, Note_off_c, 0, 48, 95
2, 807840, Note_on_c, 0, 52, 95
2, 807975, Note_off_c, 0, 52, 95
2, 808320, Note_on_c, 0, 55, 95
2, 808455, Note_off_c, 0, 55, 95
2, 808800, Note_on_c, 0, 43, 95
2, 808935, Note_off_c, 0, 43, 95
2, 809280, Note_on_c, 0, 52, 95
2, 809415, Note_off_c, 0, 52, 95
2, 809760, Note_on_c, 0, 43, 95
2, 809895, Note_off_c, 0, 43, 95
2, 810240, Note_on_c, 0, 48, 95
2, 810375, Note_off_c, 0, 48, 95
2, 810720, Note_on_c, 0, 55, 95
2, 810855, Note_off_c, 0, 55, 95
2, 811200, Note_on_c, 0, 48, 95
2, 811335, Note_off_c, 0, 48, 95
2, 811680, Note_on_c, 0, 55, 95
2, 811815, Note_off_c, 0, 55, 95
2, 812160, Note_on_c, 0, 48, 95
2, 812295, Note_off_c, 0, 48, 95
2, 812640, Note_on_c, 0, 52, 95
2, 812775, Note_off_c, 0, 52, 95
2, 813120, Note_on_c, 0, 43, 95
2, 813255, Note_off_c, 0, 43, 95
2, 813600, Note_on_c, 0, 52, 95
2, 813735, Note_off_c, 0, 52, 95
2, 814080, Note_on_c, 0, 50, 95
2, 814215, Note_off_c, 0, 50, 95
2, 814560, Note_on_c, 0, 55, 95
2, 814695, Note_off_c, 0, 55, 95
2, 815040, Note_on_c, 0, 50, 95
2, 815175, Note_off_c, 0, 50, 95
2, 815520, Note_on_c, 0, 52, 95
2, 815655, Note_off_c, 0, 52, 95
2, 816000, Note_on_c, 0, 43, 95
2, 816135, Note_off_c, 0, 43, 95
2, 816480, Note_on_c, 0, 50, 95
2, 816615, Note_off_c, 0, 50, 95
2, 816960, Note_on_c, 0, 41, 95
2, 817095, Note_off_c, 0, 41, 95
2, 817440, Note_on_c, 0, 48, 95
2, 817575, Note_off_c, 0, 48, 95
2, 817920, Note_on_c, 0, 53, 95
2, 818055, Note_off_c, 0, 53, 95
2, 818400, Note_on_c, 0, 40, 95
2, 818535, Note_off_c, 0, 40, 95
2, 818880, Note_on_c, 0, 47, 95
2, 819015, Note_off_c, 0, 47, 95
2, 819360, Note_on_c, 0, 52, 95
2, 819495, Note_off_c, 0, 52, 95
2, 819840, Note_on_c, 0, 43, 95
2, 819975, Note_off_c, 0, 43, 95
2, 820320, Note_on_c, 0, 50, 95
2, 820455, Note_off_c, 0, 50, 95
2, 820800, Note_on_c, 0, 55, 95
2, 820935, Note_off_c, 0, 55, 95
2, 821280, Note_on_c, 0, 45, 95
2, 821415, Note_off_c, 0, 45, 95
2, 821760, Note_on_c, 0, 52, 95
2, 821895, Note_off_c, 0, 52, 95
2, 822240, Note_on_c, 0, 55, 95
2, 822375, Note_off_c, 0, 55, 95
2, 822720, Note_on_c, 0, 48, 95
2, 822855, Note_off_c, 0, 48, 95
2, 823200, Note_on_c, 0, 52, 95
2, 823335, Note_off_c, 0, 52, 95
2, 823680, Note_on_c, 0, 48, 95
2, 823815, Note_off_c, 0, 48, 95
2, 824160, Note_on_c, 0, 52, 95
2, 824295, Note_off_c, 0, 52, 95
2, 824640, Note_on_c, 0, 50, 95
2, 824775, Note_off_c, 0, 50, 95
2, 825120, Note_on_c, 0, 43, 95
2, 825255, Note_off_c, 0, 43, 95
2, 825600, Note_on_c, 0, 50, 95
2, 825735, Note_off_c, 0, 50, 95
2, 826080, Note_on_c, 0, 52, 95
2, 826215, Note_off_c, 0, 52, 95
2, 826560, Note_on_c, 0, 48, 95
2, 826695, Note_off_c, 0, 48, 95
2, 827040, Note_on_c, 0, 52, 95
2, 827175, Note_off_c, 0, 52, 95
2, 827520, Note_on_c, 0, 50, 95
2, 827655, Note_off_c, 0, 50, 95
2, 828000, Note_on_c, 0, 52, 95
2, 828135, Note_off_c, 0, 52, 95
2, 828480, Note_on_c, 0, 50, 95
2, 828615, Note_off_c, 0, 50, 95
2, 828960, Note_on_c, 0, 48, 95
2, 829095, Note_off_c, 0, 48, 95
2, 829440, Note_on_c, 0, 52, 95
2, 829575, Note_off_c, 0, 52, 95
2, 829920, Note_on_c, 0, 50, 95
2, 830055, Note_off_c, 0, 50, 95
2, 830400, Note_on_c, 0, 48, 95
2, 830535, Note_off_c, 0, 48, 95
2, 830880, Note_on_c, 0, 52, 95
2, 831015, Note_off_c, 0, 52, 95
2, 831360, Note_on_c, 0, 50, 95
2, 831495, Note_off_c, 0, 50, 95
2, 831840, Note_on_c, 0, 48, 95
2, 831975, Note_off_c, 0, 48, 95
2, 832320, Note_on_c, 0, 52, 95
2, 832455, Note_off_c, 0, 52, 95
2, 832800, Note_on_c, 0, 48, 127
2, 832800, Note_on_c, 0, 41, 127
2, 834240, Note_off_c, 0, 48, 127
2, 834240, Note_off_c, 0, 41, 127
2, 834240, Note_on_c, 0, 47, 127
2, 834240, Note_on_c, 0, 40, 95
2, 835200, Note_off_c, 0, 47, 127
2, 835200, Note_off_c, 0, 40, 95
2, 835200, Note_on_c, 0, 57, 127
2, 835200, Note_on_c, 0, 50, 127
2, 836640, Note_off_c, 0, 57, 127
2, 836640, Note_off_c, 0, 50, 127
2, 836640, Note_on_c, 0, 60, 127
2, 836640, Note_on_c, 0, 53, 127
2, 838080, Note_off_c, 0, 60, 127
2, 838080, Note_off_c, 0, 53, 127
2, 838080, Note_on_c, 0, 55, 127
2, 838080, Note_on_c, 0, 48, 127
2, 839040, Note_off_c, 0, 55, 127
2, 839040, Note_off_c, 0, 48, 127
2, 839040, Note_on_c, 0, 57, 127
2, 839040, Note_on_c, 0, 50, 127
2, 840480, Note_off_c, 0, 57, 127
2, 840480, Note_off_c, 0, 50, 127
2, 840480, Note_on_c, 0, 53, 127
2, 840480, Note_on_c, 0, 48, 127
2, 841440, Note_off_c, 0, 53, 127
2, 841440, Note_off_c, 0, 48, 127
2, 841440, Note_on_c, 0, 52, 127
2, 841440, Note_on_c, 0, 47, 127
2, 842400, Note_off_c, 0, 52, 127
2, 842400, Note_off_c, 0, 47, 127
2, 842400, Note_on_c, 0, 57, 127
2, 842400, Note_on_c, 0, 50, 127
2, 843840, Note_off_c, 0, 57, 127
2, 843840, Note_off_c, 0, 50, 127
2, 843840, Note_on_c, 0, 60, 127
2, 843840, Note_on_c, 0, 53, 127
2, 845280, Note_off_c, 0, 60, 127
2, 845280, Note_off_c, 0, 53, 127
2, 845280, Note_on_c, 0, 55, 127
2, 845280, Note_on_c, 0, 48, 127
2, 846240, Note_off_c, 0, 55, 127
2, 846240, Note_off_c, 0, 48, 127
2, 846240, Note_on_c, 0, 53, 127
2, 846240, Note_on_c, 0, 46, 127
2, 847680, Note_off_c, 0, 53, 127
2, 847680, Note_off_c, 0, 46, 127
2, 847680, Note_on_c, 0, 50, 127
2, 847680, Note_on_c, 0, 43, 127
2, 849120, Note_off_c, 0, 50, 127
2, 849120, Note_off_c, 0, 43, 127
2, 849120, Note_on_c, 0, 52, 127
2, 849120, Note_on_c, 0, 45, 127
2, 850560, Note_off_c, 0, 52, 127
2, 850560, Note_off_c, 0, 45, 127
2, 850560, Note_on_c, 0, 57, 127
2, 850560, Note_on_c, 0, 50, 127
2, 852000, Note_off_c, 0, 57, 127
2, 852000, Note_off_c, 0, 50, 127
2, 852000, Note_on_c, 0, 60, 127
2, 852000, Note_on_c, 0, 53, 127
2, 852960, Note_off_c, 0, 60, 127
2, 852960, Note_off_c, 0, 53, 127
2, 852960, Note_on_c, 0, 55, 127
2, 852960, Note_on_c, 0, 48, 127
2, 853920, Note_off_c, 0, 55, 127
2, 853920, Note_off_c, 0, 48, 127
2, 853920, Note_on_c, 0, 57, 127
2, 853920, Note_on_c, 0, 50, 127
2, 855360, Note_off_c, 0, 57, 127
2, 855360, Note_off_c, 0, 50, 127
2, 855360, Note_on_c, 0, 53, 127
2, 855360, Note_on_c, 0, 48, 127
2, 856320, Note_off_c, 0, 53, 127
2, 856320, Note_off_c, 0, 48, 127
2, 856320, Note_on_c, 0, 52, 127
2, 856320, Note_on_c, 0, 47, 127
2, 857760, Note_off_c, 0, 52, 127
2, 857760, Note_off_c, 0, 47, 127
2, 857760, Note_on_c, 0, 57, 127
2, 857760, Note_on_c, 0, 50, 127
2, 859200, Note_off_c, 0, 57, 127
2, 859200, Note_off_c, 0, 50, 127
2, 859200, Note_on_c, 0, 53, 127
2, 859200, Note_on_c, 0, 48, 127
2, 860640, Note_off_c, 0, 53, 127
2, 860640, Note_off_c, 0, 48, 127
2, 860640, Note_on_c, 0, 55, 127
2, 860640, Note_on_c, 0, 48, 127
2, 861600, Note_off_c, 0, 55, 127
2, 861600, Note_off_c, 0, 48, 127
2, 861600, Note_on_c, 0, 53, 127
2, 861600, Note_on_c, 0, 46, 127
2, 863040, Note_off_c, 0, 53, 127
2, 863040, Note_off_c, 0, 46, 127
2, 863040, Note_on_c, 0, 50, 127
2, 863040, Note_on_c, 0, 43, 127
2, 864480, Note_off_c, 0, 50, 127
2, 864480, Note_off_c, 0, 43, 127
2, 864480, Note_on_c, 0, 45, 95
2, 864720, Note_off_c, 0, 45, 95
2, 864720, Note_on_c, 0, 57, 95
2, 864960, Note_off_c, 0, 57, 95
2, 864960, Note_on_c, 0, 45, 95
2, 865200, Note_off_c, 0, 45, 95
2, 865200, Note_on_c, 0, 45, 95
2, 865440, Note_off_c, 0, 45, 95
2, 865440, Note_on_c, 0, 57, 95
2, 865680, Note_off_c, 0, 57, 95
2, 865680, Note_on_c, 0, 45, 95
2, 865920, Note_off_c, 0, 45, 95
2, 865920, Note_on_c, 0, 45, 95
2, 866160, Note_off_c, 0, 45, 95
2, 866160, Note_on_c, 0, 45, 95
2, 866400, Note_off_c, 0, 45, 95
2, 866400, Note_on_c, 0, 45, 95
2, 866640, Note_off_c, 0, 45, 95
2, 866640, Note_on_c, 0, 57, 95
2, 866880, Note_off_c, 0, 57, 95
2, 866880, Note_on_c, 0, 45, 95
2, 867120, Note_off_c, 0, 45, 95
2, 867120, Note_on_c, 0, 45, 95
2, 867360, Note_off_c, 0, 45, 95
2, 867360, Note_on_c, 0, 57, 95
2, 867600, Note_off_c, 0, 57, 95
2, 868320, Note_on_c, 0, 45, 95
2, 868560, Note_off_c, 0, 45, 95
2, 868560, Note_on_c, 0, 57, 95
2, 868800, Note_off_c, 0, 57, 95
2, 868800, Note_on_c, 0, 45, 95
2, 869040, Note_off_c, 0, 45, 95
2, 869040, Note_on_c, 0, 45, 95
2, 869280, Note_off_c, 0, 45, 95
2, 869280, Note_on_c, 0, 57, 95
2, 869520, Note_off_c, 0, 57, 95
2, 869520, Note_on_c, 0, 45, 95
2, 869760, Note_off_c, 0, 45, 95
2, 869760, Note_on_c, 0, 45, 95
2, 870000, Note_off_c, 0, 45, 95
2, 870000, Note_on_c, 0, 45, 95
2, 870240, Note_off_c, 0, 45, 95
2, 870240, Note_on_c, 0, 45, 95
2, 870480, Note_off_c, 0, 45, 95
2, 870480, Note_on_c, 0, 57, 95
2, 870720, Note_off_c, 0, 57, 95
2, 870720, Note_on_c, 0, 45, 95
2, 870960, Note_off_c, 0, 45, 95
2, 870960, Note_on_c, 0, 45, 95
2, 871200, Note_off_c, 0, 45, 95
2, 871200, Note_on_c, 0, 58, 95
2, 871440, Note_off_c, 0, 58, 95
2, 871440, Note_on_c, 0, 57, 95
2, 871680, Note_off_c, 0, 57, 95
2, 871680, Note_on_c, 0, 55, 95
2, 871920, Note_off_c, 0, 55, 95
2, 871920, Note_on_c, 0, 52, 95
2, 872160, Note_off_c, 0, 52, 95
2, 872160, Note_on_c, 0, 45, 95
2, 872400, Note_off_c, 0, 45, 95
2, 872400, Note_on_c, 0, 57, 95
2, 872640, Note_off_c, 0, 57, 95
2, 872640, Note_on_c, 0, 45, 95
2, 872880, Note_off_c, 0, 45, 95
2, 872880, Note_on_c, 0, 45, 95
2, 873120, Note_off_c, 0, 45, 95
2, 873120, Note_on_c, 0, 57, 95
2, 873360, Note_off_c, 0, 57, 95
2, 873360, Note_on_c, 0, 45, 95
2, 873600, Note_off_c, 0, 45, 95
2, 873600, Note_on_c, 0, 45, 95
2, 873840, Note_off_c, 0, 45, 95
2, 873840, Note_on_c, 0, 45, 95
2, 874080, Note_off_c, 0, 45, 95
2, 874080, Note_on_c, 0, 45, 95
2, 874320, Note_off_c, 0, 45, 95
2, 874320, Note_on_c, 0, 57, 95
2, 874560, Note_off_c, 0, 57, 95
2, 874560, Note_on_c, 0, 45, 95
2, 874800, Note_off_c, 0, 45, 95
2, 874800, Note_on_c, 0, 45, 95
2, 875040, Note_off_c, 0, 45, 95
2, 875040, Note_on_c, 0, 57, 95
2, 875280, Note_off_c, 0, 57, 95
2, 876000, Note_on_c, 0, 45, 95
2, 876240, Note_off_c, 0, 45, 95
2, 876240, Note_on_c, 0, 57, 95
2, 876480, Note_off_c, 0, 57, 95
2, 876480, Note_on_c, 0, 45, 95
2, 876720, Note_off_c, 0, 45, 95
2, 876720, Note_on_c, 0, 45, 95
2, 876960, Note_off_c, 0, 45, 95
2, 876960, Note_on_c, 0, 57, 95
2, 877200, Note_off_c, 0, 57, 95
2, 877200, Note_on_c, 0, 45, 95
2, 877440, Note_off_c, 0, 45, 95
2, 877440, Note_on_c, 0, 45, 95
2, 877680, Note_off_c, 0, 45, 95
2, 877680, Note_on_c, 0, 45, 95
2, 877920, Note_off_c, 0, 45, 95
2, 877920, Note_on_c, 0, 45, 95
2, 878160, Note_off_c, 0, 45, 95
2, 878160, Note_on_c, 0, 57, 95
2, 878400, Note_off_c, 0, 57, 95
2, 878400, Note_on_c, 0, 45, 95
2, 878640, Note_off_c, 0, 45, 95
2, 878640, Note_on_c, 0, 45, 95
2, 878880, Note_off_c, 0, 45, 95
2, 878880, Note_on_c, 0, 62, 95
2, 879120, Note_off_c, 0, 62, 95
2, 879120, Note_on_c, 0, 61, 95
2, 879360, Note_off_c, 0, 61, 95
2, 879360, Note_on_c, 0, 57, 95
2, 879600, Note_off_c, 0, 57, 95
2, 879600, Note_on_c, 0, 55, 95
2, 879840, Note_off_c, 0, 55, 95
2, 879840, Note_on_c, 0, 45, 95
2, 880080, Note_off_c, 0, 45, 95
2, 880080, Note_on_c, 0, 57, 95
2, 880320, Note_off_c, 0, 57, 95
2, 880320, Note_on_c, 0, 55, 95
2, 880560, Note_off_c, 0, 55, 95
2, 880560, Note_on_c, 0, 52, 95
2, 880800, Note_off_c, 0, 52, 95
2, 880800, Note_on_c, 0, 57, 95
2, 881040, Note_off_c, 0, 57, 95
2, 881040, Note_on_c, 0, 55, 95
2, 881280, Note_off_c, 0, 55, 95
2, 881280, Note_on_c, 0, 52, 95
2, 881520, Note_off_c, 0, 52, 95
2, 881520, Note_on_c, 0, 50, 95
2, 881760, Note_off_c, 0, 50, 95
2, 881760, Note_on_c, 0, 45, 95
2, 882000, Note_off_c, 0, 45, 95
2, 882000, Note_on_c, 0, 57, 95
2, 882240, Note_off_c, 0, 57, 95
2, 882240, Note_on_c, 0, 55, 95
2, 882480, Note_off_c, 0, 55, 95
2, 882480, Note_on_c, 0, 52, 95
2, 882720, Note_off_c, 0, 52, 95
2, 882720, Note_on_c, 0, 57, 95
2, 882960, Note_off_c, 0, 57, 95
2, 883680, Note_on_c, 0, 45, 95
2, 883920, Note_off_c, 0, 45, 95
2, 883920, Note_on_c, 0, 57, 95
2, 884160, Note_off_c, 0, 57, 95
2, 884160, Note_on_c, 0, 55, 95
2, 884400, Note_off_c, 0, 55, 95
2, 884400, Note_on_c, 0, 52, 95
2, 884640, Note_off_c, 0, 52, 95
2, 884640, Note_on_c, 0, 57, 95
2, 884880, Note_off_c, 0, 57, 95
2, 884880, Note_on_c, 0, 55, 95
2, 885120, Note_off_c, 0, 55, 95
2, 885120, Note_on_c, 0, 52, 95
2, 885360, Note_off_c, 0, 52, 95
2, 885360, Note_on_c, 0, 50, 95
2, 885600, Note_off_c, 0, 50, 95
2, 885600, Note_on_c, 0, 45, 95
2, 885840, Note_off_c, 0, 45, 95
2, 885840, Note_on_c, 0, 57, 95
2, 886080, Note_off_c, 0, 57, 95
2, 886080, Note_on_c, 0, 55, 95
2, 886320, Note_off_c, 0, 55, 95
2, 886320, Note_on_c, 0, 52, 95
2, 886560, Note_off_c, 0, 52, 95
2, 886560, Note_on_c, 0, 58, 95
2, 886800, Note_off_c, 0, 58, 95
2, 886800, Note_on_c, 0, 57, 95
2, 887040, Note_off_c, 0, 57, 95
2, 887040, Note_on_c, 0, 55, 95
2, 887280, Note_off_c, 0, 55, 95
2, 887280, Note_on_c, 0, 52, 95
2, 887520, Note_off_c, 0, 52, 95
2, 887520, Note_on_c, 0, 45, 95
2, 887760, Note_off_c, 0, 45, 95
2, 887760, Note_on_c, 0, 57, 95
2, 888000, Note_off_c, 0, 57, 95
2, 888000, Note_on_c, 0, 55, 95
2, 888240, Note_off_c, 0, 55, 95
2, 888240, Note_on_c, 0, 52, 95
2, 888480, Note_off_c, 0, 52, 95
2, 888480, Note_on_c, 0, 57, 95
2, 888720, Note_off_c, 0, 57, 95
2, 888720, Note_on_c, 0, 55, 95
2, 888960, Note_off_c, 0, 55, 95
2, 888960, Note_on_c, 0, 52, 95
2, 889200, Note_off_c, 0, 52, 95
2, 889200, Note_on_c, 0, 50, 95
2, 889440, Note_off_c, 0, 50, 95
2, 889440, Note_on_c, 0, 45, 95
2, 889680, Note_off_c, 0, 45, 95
2, 889680, Note_on_c, 0, 57, 95
2, 889920, Note_off_c, 0, 57, 95
2, 889920, Note_on_c, 0, 55, 95
2, 890160, Note_off_c, 0, 55, 95
2, 890160, Note_on_c, 0, 52, 95
2, 890400, Note_off_c, 0, 52, 95
2, 890400, Note_on_c, 0, 57, 95
2, 890640, Note_off_c, 0, 57, 95
2, 891360, Note_on_c, 0, 45, 95
2, 891600, Note_off_c, 0, 45, 95
2, 891600, Note_on_c, 0, 57, 95
2, 891840, Note_off_c, 0, 57, 95
2, 891840, Note_on_c, 0, 55, 95
2, 892080, Note_off_c, 0, 55, 95
2, 892080, Note_on_c, 0, 52, 95
2, 892320, Note_off_c, 0, 52, 95
2, 892320, Note_on_c, 0, 57, 95
2, 892560, Note_off_c, 0, 57, 95
2, 892560, Note_on_c, 0, 55, 95
2, 892800, Note_off_c, 0, 55, 95
2, 892800, Note_on_c, 0, 52, 95
2, 893040, Note_off_c, 0, 52, 95
2, 893040, Note_on_c, 0, 50, 95
2, 893280, Note_off_c, 0, 50, 95
2, 893280, Note_on_c, 0, 45, 95
2, 893520, Note_off_c, 0, 45, 95
2, 893520, Note_on_c, 0, 67, 95
2, 893760, Note_off_c, 0, 67, 95
2, 893760, Note_on_c, 0, 64, 95
2, 894000, Note_off_c, 0, 64, 95
2, 894000, Note_on_c, 0, 62, 95
2, 894240, Note_off_c, 0, 62, 95
2, 894240, Note_on_c, 0, 61, 95
2, 894480, Note_off_c, 0, 61, 95
2, 894480, Note_on_c, 0, 57, 95
2, 894720, Note_off_c, 0, 57, 95
2, 894720, Note_on_c, 0, 55, 95
2, 894960, Note_off_c, 0, 55, 95
2, 894960, Note_on_c, 0, 52, 95
2, 895200, Note_off_c, 0, 52, 95
2, 895200, Note_on_c, 0, 57, 95
2, 895200, Note_on_c, 0, 50, 95
2, 896640, Note_off_c, 0, 57, 95
2, 896640, Note_off_c, 0, 50, 95
2, 896640, Note_on_c, 0, 53, 95
2, 896640, Note_on_c, 0, 48, 95
2, 898080, Note_off_c, 0, 53, 95
2, 898080, Note_off_c, 0, 48, 95
2, 898080, Note_on_c, 0, 55, 95
2, 898080, Note_on_c, 0, 48, 95
2, 899040, Note_off_c, 0, 55, 95
2, 899040, Note_off_c, 0, 48, 95
2, 899040, Note_on_c, 0, 57, 95
2, 899040, Note_on_c, 0, 50, 95
2, 900480, Note_off_c, 0, 57, 95
2, 900480, Note_off_c, 0, 50, 95
2, 900480, Note_on_c, 0, 53, 95
2, 900480, Note_on_c, 0, 48, 95
2, 901920, Note_off_c, 0, 53, 95
2, 901920, Note_off_c, 0, 48, 95
2, 901920, Note_on_c, 0, 52, 95
2, 901920, Note_on_c, 0, 47, 95
2, 902880, Note_off_c, 0, 52, 95
2, 902880, Note_off_c, 0, 47, 95
2, 902880, Note_on_c, 0, 57, 95
2, 902880, Note_on_c, 0, 50, 95
2, 904320, Note_off_c, 0, 57, 95
2, 904320, Note_off_c, 0, 50, 95
2, 904320, Note_on_c, 0, 53, 95
2, 904320, Note_on_c, 0, 48, 95
2, 905760, Note_off_c, 0, 53, 95
2, 905760, Note_off_c, 0, 48, 95
2, 905760, Note_on_c, 0, 55, 95
2, 905760, Note_on_c, 0, 48, 95
2, 906720, Note_off_c, 0, 55, 95
2, 906720, Note_off_c, 0, 48, 95
2, 906720, Note_on_c, 0, 53, 95
2, 906720, Note_on_c, 0, 46, 95
2, 908160, Note_off_c, 0, 53, 95
2, 908160, Note_off_c, 0, 46, 95
2, 908160, Note_on_c, 0, 50, 95
2, 908160, Note_on_c, 0, 43, 95
2, 909600, Note_off_c, 0, 50, 95
2, 909600, Note_off_c, 0, 43, 95
2, 909600, Note_on_c, 0, 52, 95
2, 909600, Note_on_c, 0, 45, 95
2, 910560, Note_off_c, 0, 52, 95
2, 910560, Note_off_c, 0, 45, 95
2, 910560, Note_on_c, 0, 57, 95
2, 910560, Note_on_c, 0, 50, 95
2, 912000, Note_off_c, 0, 57, 95
2, 912000, Note_off_c, 0, 50, 95
2, 912000, Note_on_c, 0, 53, 95
2, 912000, Note_on_c, 0, 48, 95
2, 913440, Note_off_c, 0, 53, 95
2, 913440, Note_off_c, 0, 48, 95
2, 913440, Note_on_c, 0, 55, 95
2, 913440, Note_on_c, 0, 48, 95
2, 914400, Note_off_c, 0, 55, 95
2, 914400, Note_off_c, 0, 48, 95
2, 914400, Note_on_c, 0, 57, 95
2, 914400, Note_on_c, 0, 50, 95
2, 915840, Note_off_c, 0, 57, 95
2, 915840, Note_off_c, 0, 50, 95
2, 915840, Note_on_c, 0, 53, 95
2, 915840, Note_on_c, 0, 48, 95
2, 917280, Note_off_c, 0, 53, 95
2, 917280, Note_off_c, 0, 48, 95
2, 917280, Note_on_c, 0, 52, 95
2, 917280, Note_on_c, 0, 47, 95
2, 918240, Note_off_c, 0, 52, 95
2, 918240, Note_off_c, 0, 47, 95
2, 918240, Note_on_c, 0, 57, 95
2, 918240, Note_on_c, 0, 50, 95
2, 919680, Note_off_c, 0, 57, 95
2, 919680, Note_off_c, 0, 50, 95
2, 919680, Note_on_c, 0, 53, 95
2, 919680, Note_on_c, 0, 48, 95
2, 921120, Note_off_c, 0, 53, 95
2, 921120, Note_off_c, 0, 48, 95
2, 921120, Note_on_c, 0, 55, 95
2, 921120, Note_on_c, 0, 48, 95
2, 922080, Note_off_c, 0, 55, 95
2, 922080, Note_off_c, 0, 48, 95
2, 922080, Note_on_c, 0, 53, 95
2, 922080, Note_on_c, 0, 46, 95
2, 923520, Note_off_c, 0, 53, 95
2, 923520, Note_off_c, 0, 46, 95
2, 923520, Note_on_c, 0, 55, 95
2, 923520, Note_on_c, 0, 48, 95
2, 924960, Note_off_c, 0, 55, 95
2, 924960, Note_off_c, 0, 48, 95
2, 924960, Note_on_c, 0, 52, 95
2, 924960, Note_on_c, 0, 45, 95
2, 925920, Note_off_c, 0, 52, 95
2, 925920, Note_off_c, 0, 45, 95
2, 925920, Note_on_c, 0, 57, 95
2, 925920, Note_on_c, 0, 50, 95
2, 927360, Note_off_c, 0, 57, 95
2, 927360, Note_off_c, 0, 50, 95
2, 927360, Note_on_c, 0, 53, 95
2, 927360, Note_on_c, 0, 48, 95
2, 928800, Note_off_c, 0, 53, 95
2, 928800, Note_off_c, 0, 48, 95
2, 928800, Note_on_c, 0, 55, 95
2, 928800, Note_on_c, 0, 48, 95
2, 929760, Note_off_c, 0, 55, 95
2, 929760, Note_off_c, 0, 48, 95
2, 929760, Note_on_c, 0, 57, 95
2, 929760, Note_on_c, 0, 50, 95
2, 931200, Note_off_c, 0, 57, 95
2, 931200, Note_off_c, 0, 50, 95
2, 931200, Note_on_c, 0, 53, 95
2, 931200, Note_on_c, 0, 48, 95
2, 932640, Note_off_c, 0, 53, 95
2, 932640, Note_off_c, 0, 48, 95
2, 932640, Note_on_c, 0, 52, 95
2, 932640, Note_on_c, 0, 47, 95
2, 933600, Note_off_c, 0, 52, 95
2, 933600, Note_off_c, 0, 47, 95
2, 933600, Note_on_c, 0, 57, 95
2, 933600, Note_on_c, 0, 50, 95
2, 935040, Note_off_c, 0, 57, 95
2, 935040, Note_off_c, 0, 50, 95
2, 935040, Note_on_c, 0, 53, 95
2, 935040, Note_on_c, 0, 48, 95
2, 936480, Note_off_c, 0, 53, 95
2, 936480, Note_off_c, 0, 48, 95
2, 936480, Note_on_c, 0, 55, 95
2, 936480, Note_on_c, 0, 48, 95
2, 937440, Note_off_c, 0, 55, 95
2, 937440, Note_off_c, 0, 48, 95
2, 937440, Note_on_c, 0, 53, 95
2, 937440, Note_on_c, 0, 46, 95
2, 938880, Note_off_c, 0, 53, 95
2, 938880, Note_off_c, 0, 46, 95
2, 938880, Note_on_c, 0, 50, 95
2, 938880, Note_on_c, 0, 43, 95
2, 940320, Note_off_c, 0, 50, 95
2, 940320, Note_off_c, 0, 43, 95
2, 940320, Note_on_c, 0, 52, 95
2, 940320, Note_on_c, 0, 45, 95
2, 941280, Note_off_c, 0, 52, 95
2, 941280, Note_off_c, 0, 45, 95
2, 941280, Note_on_c, 0, 57, 95
2, 941280, Note_on_c, 0, 50, 95
2, 942720, Note_off_c, 0, 57, 95
2, 942720, Note_off_c, 0, 50, 95
2, 942720, Note_on_c, 0, 53, 95
2, 942720, Note_on_c, 0, 48, 95
2, 944160, Note_off_c, 0, 53, 95
2, 944160, Note_off_c, 0, 48, 95
2, 944160, Note_on_c, 0, 55, 95
2, 944160, Note_on_c, 0, 48, 95
2, 945120, Note_off_c, 0, 55, 95
2, 945120, Note_off_c, 0, 48, 95
2, 945120, Note_on_c, 0, 57, 95
2, 945120, Note_on_c, 0, 50, 95
2, 946560, Note_off_c, 0, 57, 95
2, 946560, Note_off_c, 0, 50, 95
2, 946560, Note_on_c, 0, 53, 95
2, 946560, Note_on_c, 0, 48, 95
2, 948000, Note_off_c, 0, 53, 95
2, 948000, Note_off_c, 0, 48, 95
2, 948000, Note_on_c, 0, 52, 95
2, 948000, Note_on_c, 0, 47, 95
2, 948960, Note_off_c, 0, 52, 95
2, 948960, Note_off_c, 0, 47, 95
2, 948960, Note_on_c, 0, 57, 95
2, 948960, Note_on_c, 0, 50, 95
2, 950400, Note_off_c, 0, 57, 95
2, 950400, Note_off_c, 0, 50, 95
2, 950400, Note_on_c, 0, 53, 95
2, 950400, Note_on_c, 0, 48, 95
2, 951840, Note_off_c, 0, 53, 95
2, 951840, Note_off_c, 0, 48, 95
2, 951840, Note_on_c, 0, 55, 95
2, 951840, Note_on_c, 0, 48, 95
2, 952800, Note_off_c, 0, 55, 95
2, 952800, Note_off_c, 0, 48, 95
2, 952800, Note_on_c, 0, 53, 95
2, 952800, Note_on_c, 0, 46, 95
2, 954240, Note_off_c, 0, 53, 95
2, 954240, Note_off_c, 0, 46, 95
2, 954240, Note_on_c, 0, 55, 95
2, 954240, Note_on_c, 0, 48, 95
2, 955680, Note_off_c, 0, 55, 95
2, 955680, Note_off_c, 0, 48, 95
2, 955680, Note_on_c, 0, 48, 95
2, 955680, Note_on_c, 0, 43, 95
2, 956640, Note_off_c, 0, 48, 95
2, 956640, Note_off_c, 0, 43, 95
2, 956640, Note_on_c, 0, 45, 95
2, 956880, Note_off_c, 0, 45, 95
2, 956880, Note_on_c, 0, 57, 95
2, 957120, Note_off_c, 0, 57, 95
2, 957120, Note_on_c, 0, 45, 95
2, 957360, Note_off_c, 0, 45, 95
2, 957360, Note_on_c, 0, 45, 95
2, 957600, Note_off_c, 0, 45, 95
2, 957600, Note_on_c, 0, 57, 95
2, 957840, Note_off_c, 0, 57, 95
2, 957840, Note_on_c, 0, 45, 95
2, 958080, Note_off_c, 0, 45, 95
2, 958080, Note_on_c, 0, 45, 95
2, 958320, Note_off_c, 0, 45, 95
2, 958320, Note_on_c, 0, 45, 95
2, 958560, Note_off_c, 0, 45, 95
2, 958560, Note_on_c, 0, 45, 95
2, 958800, Note_off_c, 0, 45, 95
2, 958800, Note_on_c, 0, 57, 95
2, 959040, Note_off_c, 0, 57, 95
2, 959040, Note_on_c, 0, 45, 95
2, 959280, Note_off_c, 0, 45, 95
2, 959280, Note_on_c, 0, 45, 95
2, 959520, Note_off_c, 0, 45, 95
2, 959520, Note_on_c, 0, 57, 95
2, 959760, Note_off_c, 0, 57, 95
2, 960480, Note_on_c, 0, 45, 95
2, 960720, Note_off_c, 0, 45, 95
2, 960720, Note_on_c, 0, 57, 95
2, 960960, Note_off_c, 0, 57, 95
2, 960960, Note_on_c, 0, 45, 95
2, 961200, Note_off_c, 0, 45, 95
2, 961200, Note_on_c, 0, 45, 95
2, 961440, Note_off_c, 0, 45, 95
2, 961440, Note_on_c, 0, 57, 95
2, 961680, Note_off_c, 0, 57, 95
2, 961680, Note_on_c, 0, 45, 95
2, 961920, Note_off_c, 0, 45, 95
2, 961920, Note_on_c, 0, 45, 95
2, 962160, Note_off_c, 0, 45, 95
2, 962160, Note_on_c, 0, 45, 95
2, 962400, Note_off_c, 0, 45, 95
2, 962400, Note_on_c, 0, 45, 95
2, 962640, Note_off_c, 0, 45, 95
2, 962640, Note_on_c, 0, 57, 95
2, 962880, Note_off_c, 0, 57, 95
2, 962880, Note_on_c, 0, 45, 95
2, 963120, Note_off_c, 0, 45, 95
2, 963120, Note_on_c, 0, 45, 95
2, 963360, Note_off_c, 0, 45, 95
2, 963360, Note_on_c, 0, 58, 95
2, 963600, Note_off_c, 0, 58, 95
2, 963600, Note_on_c, 0, 57, 95
2, 963840, Note_off_c, 0, 57, 95
2, 963840, Note_on_c, 0, 55, 95
2, 964080, Note_off_c, 0, 55, 95
2, 964080, Note_on_c, 0, 52, 95
2, 964320, Note_off_c, 0, 52, 95
2, 964320, Note_on_c, 0, 45, 95
2, 964560, Note_off_c, 0, 45, 95
2, 964560, Note_on_c, 0, 57, 95
2, 964800, Note_off_c, 0, 57, 95
2, 964800, Note_on_c, 0, 45, 95
2, 965040, Note_off_c, 0, 45, 95
2, 965040, Note_on_c, 0, 45, 95
2, 965280, Note_off_c, 0, 45, 95
2, 965280, Note_on_c, 0, 57, 95
2, 965520, Note_off_c, 0, 57, 95
2, 965520, Note_on_c, 0, 45, 95
2, 965760, Note_off_c, 0, 45, 95
2, 965760, Note_on_c, 0, 45, 95
2, 966000, Note_off_c, 0, 45, 95
2, 966000, Note_on_c, 0, 45, 95
2, 966240, Note_off_c, 0, 45, 95
2, 966240, Note_on_c, 0, 45, 95
2, 966480, Note_off_c, 0, 45, 95
2, 966480, Note_on_c, 0, 57, 95
2, 966720, Note_off_c, 0, 57, 95
2, 966720, Note_on_c, 0, 45, 95
2, 966960, Note_off_c, 0, 45, 95
2, 966960, Note_on_c, 0, 45, 95
2, 967200, Note_off_c, 0, 45, 95
2, 967200, Note_on_c, 0, 57, 95
2, 967440, Note_off_c, 0, 57, 95
2, 968160, Note_on_c, 0, 45, 95
2, 968400, Note_off_c, 0, 45, 95
2, 968400, Note_on_c, 0, 57, 95
2, 968640, Note_off_c, 0, 57, 95
2, 968640, Note_on_c, 0, 45, 95
2, 968880, Note_off_c, 0, 45, 95
2, 968880, Note_on_c, 0, 45, 95
2, 969120, Note_off_c, 0, 45, 95
2, 969120, Note_on_c, 0, 57, 95
2, 969360, Note_off_c, 0, 57, 95
2, 969360, Note_on_c, 0, 45, 95
2, 969600, Note_off_c, 0, 45, 95
2, 969600, Note_on_c, 0, 45, 95
2, 969840, Note_off_c, 0, 45, 95
2, 969840, Note_on_c, 0, 45, 95
2, 970080, Note_off_c, 0, 45, 95
2, 970080, Note_on_c, 0, 45, 95
2, 970320, Note_off_c, 0, 45, 95
2, 970320, Note_on_c, 0, 57, 95
2, 970560, Note_off_c, 0, 57, 95
2, 970560, Note_on_c, 0, 45, 95
2, 970800, Note_off_c, 0, 45, 95
2, 970800, Note_on_c, 0, 45, 95
2, 971040, Note_off_c, 0, 45, 95
2, 971040, Note_on_c, 0, 62, 95
2, 971280, Note_off_c, 0, 62, 95
2, 971280, Note_on_c, 0, 61, 95
2, 971520, Note_off_c, 0, 61, 95
2, 971520, Note_on_c, 0, 57, 95
2, 971760, Note_off_c, 0, 57, 95
2, 971760, Note_on_c, 0, 55, 95
2, 972000, Note_off_c, 0, 55, 95
2, 972000, Note_on_c, 0, 45, 95
2, 972240, Note_off_c, 0, 45, 95
2, 972240, Note_on_c, 0, 57, 95
2, 972480, Note_off_c, 0, 57, 95
2, 972480, Note_on_c, 0, 55, 95
2, 972720, Note_off_c, 0, 55, 95
2, 972720, Note_on_c, 0, 52, 95
2, 972960, Note_off_c, 0, 52, 95
2, 972960, Note_on_c, 0, 57, 95
2, 973200, Note_off_c, 0, 57, 95
2, 973200, Note_on_c, 0, 55, 95
2, 973440, Note_off_c, 0, 55, 95
2, 973440, Note_on_c, 0, 52, 95
2, 973680, Note_off_c, 0, 52, 95
2, 973680, Note_on_c, 0, 50, 95
2, 973920, Note_off_c, 0, 50, 95
2, 973920, Note_on_c, 0, 45, 95
2, 974160, Note_off_c, 0, 45, 95
2, 974160, Note_on_c, 0, 57, 95
2, 974400, Note_off_c, 0, 57, 95
2, 974400, Note_on_c, 0, 55, 95
2, 974640, Note_off_c, 0, 55, 95
2, 974640, Note_on_c, 0, 52, 95
2, 974880, Note_off_c, 0, 52, 95
2, 974880, Note_on_c, 0, 57, 95
2, 975120, Note_off_c, 0, 57, 95
2, 975840, Note_on_c, 0, 45, 95
2, 976080, Note_off_c, 0, 45, 95
2, 976080, Note_on_c, 0, 57, 95
2, 976320, Note_off_c, 0, 57, 95
2, 976320, Note_on_c, 0, 55, 95
2, 976560, Note_off_c, 0, 55, 95
2, 976560, Note_on_c, 0, 52, 95
2, 976800, Note_off_c, 0, 52, 95
2, 976800, Note_on_c, 0, 57, 95
2, 977040, Note_off_c, 0, 57, 95
2, 977040, Note_on_c, 0, 55, 95
2, 977280, Note_off_c, 0, 55, 95
2, 977280, Note_on_c, 0, 52, 95
2, 977520, Note_off_c, 0, 52, 95
2, 977520, Note_on_c, 0, 50, 95
2, 977760, Note_off_c, 0, 50, 95
2, 977760, Note_on_c, 0, 45, 95
2, 978000, Note_off_c, 0, 45, 95
2, 978000, Note_on_c, 0, 57, 95
2, 978240, Note_off_c, 0, 57, 95
2, 978240, Note_on_c, 0, 55, 95
2, 978480, Note_off_c, 0, 55, 95
2, 978480, Note_on_c, 0, 52, 95
2, 978720, Note_off_c, 0, 52, 95
2, 978720, Note_on_c, 0, 58, 95
2, 978960, Note_off_c, 0, 58, 95
2, 978960, Note_on_c, 0, 57, 95
2, 979200, Note_off_c, 0, 57, 95
2, 979200, Note_on_c, 0, 55, 95
2, 979440, Note_off_c, 0, 55, 95
2, 979440, Note_on_c, 0, 52, 95
2, 979680, Note_off_c, 0, 52, 95
2, 979680, Note_on_c, 0, 45, 95
2, 979920, Note_off_c, 0, 45, 95
2, 979920, Note_on_c, 0, 57, 95
2, 980160, Note_off_c, 0, 57, 95
2, 980160, Note_on_c, 0, 55, 95
2, 980400, Note_off_c, 0, 55, 95
2, 980400, Note_on_c, 0, 52, 95
2, 980640, Note_off_c, 0, 52, 95
2, 980640, Note_on_c, 0, 57, 95
2, 980880, Note_off_c, 0, 57, 95
2, 980880, Note_on_c, 0, 55, 95
2, 981120, Note_off_c, 0, 55, 95
2, 981120, Note_on_c, 0, 52, 95
2, 981360, Note_off_c, 0, 52, 95
2, 981360, Note_on_c, 0, 50, 95
2, 981600, Note_off_c, 0, 50, 95
2, 981600, Note_on_c, 0, 45, 95
2, 981840, Note_off_c, 0, 45, 95
2, 981840, Note_on_c, 0, 57, 95
2, 982080, Note_off_c, 0, 57, 95
2, 982080, Note_on_c, 0, 55, 95
2, 982320, Note_off_c, 0, 55, 95
2, 982320, Note_on_c, 0, 52, 95
2, 982560, Note_off_c, 0, 52, 95
2, 982560, Note_on_c, 0, 57, 95
2, 982800, Note_off_c, 0, 57, 95
2, 983520, Note_on_c, 0, 45, 95
2, 983760, Note_off_c, 0, 45, 95
2, 983760, Note_on_c, 0, 57, 95
2, 984000, Note_off_c, 0, 57, 95
2, 984000, Note_on_c, 0, 55, 95
2, 984240, Note_off_c, 0, 55, 95
2, 984240, Note_on_c, 0, 52, 95
2, 984480, Note_off_c, 0, 52, 95
2, 984480, Note_on_c, 0, 57, 95
2, 984720, Note_off_c, 0, 57, 95
2, 984720, Note_on_c, 0, 55, 95
2, 984960, Note_off_c, 0, 55, 95
2, 984960, Note_on_c, 0, 52, 95
2, 985200, Note_off_c, 0, 52, 95
2, 985200, Note_on_c, 0, 50, 95
2, 985440, Note_off_c, 0, 50, 95
2, 985440, Note_on_c, 0, 45, 95
2, 985680, Note_off_c, 0, 45, 95
2, 985680, Note_on_c, 0, 67, 95
2, 985920, Note_off_c, 0, 67, 95
2, 985920, Note_on_c, 0, 64, 95
2, 986160, Note_off_c, 0, 64, 95
2, 986160, Note_on_c, 0, 62, 95
2, 986400, Note_off_c, 0, 62, 95
2, 986400, Note_on_c, 0, 61, 95
2, 986640, Note_off_c, 0, 61, 95
2, 986640, Note_on_c, 0, 57, 95
2, 986880, Note_off_c, 0, 57, 95
2, 986880, Note_on_c, 0, 55, 95
2, 987120, Note_off_c, 0, 55, 95
2, 987120, Note_on_c, 0, 52, 95
2, 987360, Note_off_c, 0, 52, 95
2, 987360, Note_on_c, 0, 57, 95
2, 987360, Note_on_c, 0, 50, 95
2, 988800, Note_off_c, 0, 57, 95
2, 988800, Note_off_c, 0, 50, 95
2, 988800, Note_on_c, 0, 53, 95
2, 988800, Note_on_c, 0, 48, 95
2, 990240, Note_off_c, 0, 53, 95
2, 990240, Note_off_c, 0, 48, 95
2, 990240, Note_on_c, 0, 55, 95
2, 990240, Note_on_c, 0, 48, 95
2, 991200, Note_off_c, 0, 55, 95
2, 991200, Note_off_c, 0, 48, 95
2, 991200, Note_on_c, 0, 57, 95
2, 991200, Note_on_c, 0, 50, 95
2, 992640, Note_off_c, 0, 57, 95
2, 992640, Note_off_c, 0, 50, 95
2, 992640, Note_on_c, 0, 53, 95
2, 992640, Note_on_c, 0, 48, 95
2, 994080, Note_off_c, 0, 53, 95
2, 994080, Note_off_c, 0, 48, 95
2, 994080, Note_on_c, 0, 52, 95
2, 994080, Note_on_c, 0, 47, 95
2, 995040, Note_off_c, 0, 52, 95
2, 995040, Note_off_c, 0, 47, 95
2, 995040, Note_on_c, 0, 57, 95
2, 995040, Note_on_c, 0, 50, 95
2, 996480, Note_off_c, 0, 57, 95
2, 996480, Note_off_c, 0, 50, 95
2, 996480, Note_on_c, 0, 53, 95
2, 996480, Note_on_c, 0, 48, 95
2, 997920, Note_off_c, 0, 53, 95
2, 997920, Note_off_c, 0, 48, 95
2, 997920, Note_on_c, 0, 55, 95
2, 997920, Note_on_c, 0, 48, 95
2, 998880, Note_off_c, 0, 55, 95
2, 998880, Note_off_c, 0, 48, 95
2, 998880, Note_on_c, 0, 53, 95
2, 998880, Note_on_c, 0, 46, 95
2, 1000320, Note_off_c, 0, 53, 95
2, 1000320, Note_off_c, 0, 46, 95
2, 1000320, Note_on_c, 0, 50, 95
2, 1000320, Note_on_c, 0, 43, 95
2, 1001760, Note_off_c, 0, 50, 95
2, 1001760, Note_off_c, 0, 43, 95
2, 1001760, Note_on_c, 0, 52, 95
2, 1001760, Note_on_c, 0, 45, 95
2, 1002720, Note_off_c, 0, 52, 95
2, 1002720, Note_off_c, 0, 45, 95
2, 1002720, Note_on_c, 0, 57, 95
2, 1002720, Note_on_c, 0, 50, 95
2, 1004160, Note_off_c, 0, 57, 95
2, 1004160, Note_off_c, 0, 50, 95
2, 1004160, Note_on_c, 0, 53, 95
2, 1004160, Note_on_c, 0, 48, 95
2, 1005600, Note_off_c, 0, 53, 95
2, 1005600, Note_off_c, 0, 48, 95
2, 1005600, Note_on_c, 0, 55, 95
2, 1005600, Note_on_c, 0, 48, 95
2, 1006560, Note_off_c, 0, 55, 95
2, 1006560, Note_off_c, 0, 48, 95
2, 1006560, Note_on_c, 0, 57, 95
2, 1006560, Note_on_c, 0, 50, 95
2, 1008000, Note_off_c, 0, 57, 95
2, 1008000, Note_off_c, 0, 50, 95
2, 1008000, Note_on_c, 0, 53, 95
2, 1008000, Note_on_c, 0, 48, 95
2, 1009440, Note_off_c, 0, 53, 95
2, 1009440, Note_off_c, 0, 48, 95
2, 1009440, Note_on_c, 0, 52, 95
2, 1009440, Note_on_c, 0, 47, 95
2, 1010400, Note_off_c, 0, 52, 95
2, 1010400, Note_off_c, 0, 47, 95
2, 1010400, Note_on_c, 0, 57, 95
2, 1010400, Note_on_c, 0, 50, 95
2, 1011840, Note_off_c, 0, 57, 95
2, 1011840, Note_off_c, 0, 50, 95
2, 1011840, Note_on_c, 0, 53, 95
2, 1011840, Note_on_c, 0, 48, 95
2, 1013280, Note_off_c, 0, 53, 95
2, 1013280, Note_off_c, 0, 48, 95
2, 1013280, Note_on_c, 0, 55, 95
2, 1013280, Note_on_c, 0, 48, 95
2, 1014240, Note_off_c, 0, 55, 95
2, 1014240, Note_off_c, 0, 48, 95
2, 1014240, Note_on_c, 0, 53, 95
2, 1014240, Note_on_c, 0, 46, 95
2, 1015680, Note_off_c, 0, 53, 95
2, 1015680, Note_off_c, 0, 46, 95
2, 1015680, Note_on_c, 0, 55, 95
2, 1015680, Note_on_c, 0, 48, 95
2, 1017120, Note_off_c, 0, 55, 95
2, 1017120, Note_off_c, 0, 48, 95
2, 1017120, Note_on_c, 0, 50, 95
2, 1017120, Note_on_c, 0, 43, 95
2, 1018080, Note_off_c, 0, 50, 95
2, 1018080, Note_off_c, 0, 43, 95
2, 1018080, Note_on_c, 0, 57, 95
2, 1018080, Note_on_c, 0, 50, 95
2, 1019520, Note_off_c, 0, 57, 95
2, 1019520, Note_off_c, 0, 50, 95
2, 1019520, Note_on_c, 0, 53, 95
2, 1019520, Note_on_c, 0, 48, 95
2, 1020960, Note_off_c, 0, 53, 95
2, 1020960, Note_off_c, 0, 48, 95
2, 1020960, Note_on_c, 0, 55, 95
2, 1020960, Note_on_c, 0, 48, 95
2, 1021920, Note_off_c, 0, 55, 95
2, 1021920, Note_off_c, 0, 48, 95
2, 1021920, Note_on_c, 0, 57, 95
2, 1021920, Note_on_c, 0, 50, 95
2, 1023360, Note_off_c, 0, 57, 95
2, 1023360, Note_off_c, 0, 50, 95
2, 1023360, Note_on_c, 0, 53, 95
2, 1023360, Note_on_c, 0, 48, 95
2, 1024800, Note_off_c, 0, 53, 95
2, 1024800, Note_off_c, 0, 48, 95
2, 1024800, Note_on_c, 0, 52, 95
2, 1024800, Note_on_c, 0, 47, 95
2, 1025760, Note_off_c, 0, 52, 95
2, 1025760, Note_off_c, 0, 47, 95
2, 1025760, Note_on_c, 0, 57, 95
2, 1025760, Note_on_c, 0, 50, 95
2, 1027200, Note_off_c, 0, 57, 95
2, 1027200, Note_off_c, 0, 50, 95
2, 1027200, Note_on_c, 0, 53, 95
2, 1027200, Note_on_c, 0, 48, 95
2, 1028640, Note_off_c, 0, 53, 95
2, 1028640, Note_off_c, 0, 48, 95
2, 1028640, Note_on_c, 0, 55, 95
2, 1028640, Note_on_c, 0, 48, 95
2, 1029600, Note_off_c, 0, 55, 95
2, 1029600, Note_off_c, 0, 48, 95
2, 1029600, Note_on_c, 0, 53, 95
2, 1029600, Note_on_c, 0, 46, 95
2, 1031040, Note_off_c, 0, 53, 95
2, 1031040, Note_off_c, 0, 46, 95
2, 1031040, Note_on_c, 0, 50, 95
2, 1031040, Note_on_c, 0, 43, 95
2, 1032480, Note_off_c, 0, 50, 95
2, 1032480, Note_off_c, 0, 43, 95
2, 1032480, Note_on_c, 0, 52, 95
2, 1032480, Note_on_c, 0, 45, 95
2, 1033440, Note_off_c, 0, 52, 95
2, 1033440, Note_off_c, 0, 45, 95
2, 1033440, Note_on_c, 0, 57, 95
2, 1033440, Note_on_c, 0, 50, 95
2, 1034880, Note_off_c, 0, 57, 95
2, 1034880, Note_off_c, 0, 50, 95
2, 1034880, Note_on_c, 0, 53, 95
2, 1034880, Note_on_c, 0, 48, 95
2, 1036320, Note_off_c, 0, 53, 95
2, 1036320, Note_off_c, 0, 48, 95
2, 1036320, Note_on_c, 0, 55, 95
2, 1036320, Note_on_c, 0, 48, 95
2, 1037280, Note_off_c, 0, 55, 95
2, 1037280, Note_off_c, 0, 48, 95
2, 1037280, Note_on_c, 0, 57, 95
2, 1037280, Note_on_c, 0, 50, 95
2, 1038720, Note_off_c, 0, 57, 95
2, 1038720, Note_off_c, 0, 50, 95
2, 1038720, Note_on_c, 0, 53, 95
2, 1038720, Note_on_c, 0, 48, 95
2, 1040160, Note_off_c, 0, 53, 95
2, 1040160, Note_off_c, 0, 48, 95
2, 1040160, Note_on_c, 0, 52, 95
2, 1040160, Note_on_c, 0, 47, 95
2, 1041120, Note_off_c, 0, 52, 95
2, 1041120, Note_off_c, 0, 47, 95
2, 1041120, Note_on_c, 0, 57, 95
2, 1041120, Note_on_c, 0, 50, 95
2, 1042560, Note_off_c, 0, 57, 95
2, 1042560, Note_off_c, 0, 50, 95
2, 1042560, Note_on_c, 0, 53, 95
2, 1042560, Note_on_c, 0, 48, 95
2, 1044000, Note_off_c, 0, 53, 95
2, 1044000, Note_off_c, 0, 48, 95
2, 1044000, Note_on_c, 0, 55, 95
2, 1044000, Note_on_c, 0, 48, 95
2, 1044960, Note_off_c, 0, 55, 95
2, 1044960, Note_off_c, 0, 48, 95
2, 1044960, Note_on_c, 0, 53, 95
2, 1044960, Note_on_c, 0, 46, 95
2, 1046400, Note_off_c, 0, 53, 95
2, 1046400, Note_off_c, 0, 46, 95
2, 1046400, Note_on_c, 0, 55, 95
2, 1046400, Note_on_c, 0, 48, 95
2, 1047840, Note_off_c, 0, 55, 95
2, 1047840, Note_off_c, 0, 48, 95
2, 1047840, Note_on_c, 0, 50, 95
2, 1047840, Note_on_c, 0, 43, 95
2, 1048800, Note_off_c, 0, 50, 95
2, 1048800, Note_off_c, 0, 43, 95
2, 1079520, Note_on_c, 0, 45, 95
2, 1080000, Note_on_c, 0, 57, 95
2, 1080960, Note_off_c, 0, 45, 95
2, 1080960, Note_on_c, 0, 45, 95
2, 1081440, Note_off_c, 0, 57, 95
2, 1081440, Note_on_c, 0, 57, 95
2, 1081920, Note_off_c, 0, 57, 95
2, 1081920, Note_on_c, 0, 58, 70
2, 1082400, Note_off_c, 0, 58, 70
2, 1082400, Note_on_c, 0, 57, 95
2, 1082880, Note_off_c, 0, 57, 95
2, 1082880, Note_on_c, 0, 55, 95
2, 1083360, Note_off_c, 0, 45, 95
2, 1083360, Note_off_c, 0, 55, 95
2, 1083360, Note_on_c, 0, 45, 95
2, 1083840, Note_on_c, 0, 57, 95
2, 1084800, Note_off_c, 0, 45, 95
2, 1084800, Note_on_c, 0, 45, 95
2, 1085280, Note_off_c, 0, 57, 95
2, 1085280, Note_on_c, 0, 57, 95
2, 1085760, Note_off_c, 0, 57, 95
2, 1085760, Note_on_c, 0, 58, 70
2, 1086240, Note_off_c, 0, 58, 70
2, 1086240, Note_on_c, 0, 57, 95
2, 1086720, Note_off_c, 0, 57, 95
2, 1086720, Note_on_c, 0, 55, 95
2, 1087200, Note_off_c, 0, 45, 95
2, 1087200, Note_off_c, 0, 55, 95
2, 1087200, Note_on_c, 0, 45, 95
2, 1087680, Note_on_c, 0, 57, 95
2, 1088640, Note_off_c, 0, 45, 95
2, 1088640, Note_on_c, 0, 45, 95
2, 1089120, Note_off_c, 0, 57, 95
2, 1089120, Note_on_c, 0, 57, 95
2, 1089600, Note_off_c, 0, 57, 95
2, 1089600, Note_on_c, 0, 58, 70
2, 1090080, Note_off_c, 0, 58, 70
2, 1090080, Note_on_c, 0, 57, 95
2, 1090560, Note_off_c, 0, 57, 95
2, 1090560, Note_on_c, 0, 55, 95
2, 1091040, Note_off_c, 0, 45, 95
2, 1091040, Note_off_c, 0, 55, 95
2, 1091040, Note_on_c, 0, 45, 95
2, 1091520, Note_on_c, 0, 57, 95
2, 1092000, Note_off_c, 0, 57, 95
2, 1092000, Note_on_c, 0, 52, 95
2, 1092480, Note_off_c, 0, 52, 95
2, 1092480, Note_on_c, 0, 53, 70
2, 1092960, Note_off_c, 0, 45, 95
2, 1092960, Note_off_c, 0, 53, 70
2, 1092960, Note_on_c, 0, 45, 95
2, 1093440, Note_on_c, 0, 50, 95
2, 1093920, Note_off_c, 0, 50, 95
2, 1093920, Note_on_c, 0, 52, 70
2, 1094880, Note_off_c, 0, 45, 95
2, 1094880, Note_off_c, 0, 52, 70
2, 1094880, Note_on_c, 0, 45, 95
2, 1095360, Note_on_c, 0, 57, 95
2, 1096320, Note_off_c, 0, 45, 95
2, 1096320, Note_on_c, 0, 45, 95
2, 1096800, Note_off_c, 0, 57, 95
2, 1096800, Note_on_c, 0, 57, 95
2, 1097280, Note_off_c, 0, 57, 95
2, 1097280, Note_on_c, 0, 58, 70
2, 1097760, Note_off_c, 0, 58, 70
2, 1097760, Note_on_c, 0, 57, 95
2, 1098240, Note_off_c, 0, 57, 95
2, 1098240, Note_on_c, 0, 55, 95
2, 1098720, Note_off_c, 0, 45, 95
2, 1098720, Note_off_c, 0, 55, 95
2, 1098720, Note_on_c, 0, 45, 95
2, 1099200, Note_on_c, 0, 57, 95
2, 1100160, Note_off_c, 0, 45, 95
2, 1100160, Note_on_c, 0, 45, 95
2, 1100640, Note_off_c, 0, 57, 95
2, 1100640, Note_on_c, 0, 57, 95
2, 1101120, Note_off_c, 0, 57, 95
2, 1101120, Note_on_c, 0, 58, 70
2, 1101600, Note_off_c, 0, 58, 70
2, 1101600, Note_on_c, 0, 57, 95
2, 1102080, Note_off_c, 0, 57, 95
2, 1102080, Note_on_c, 0, 55, 95
2, 1102560, Note_off_c, 0, 45, 95
2, 1102560, Note_off_c, 0, 55, 95
2, 1102560, Note_on_c, 0, 45, 95
2, 1103040, Note_on_c, 0, 57, 95
2, 1104000, Note_off_c, 0, 45, 95
2, 1104000, Note_on_c, 0, 45, 95
2, 1104480, Note_off_c, 0, 57, 95
2, 1104480, Note_on_c, 0, 57, 95
2, 1104960, Note_off_c, 0, 57, 95
2, 1104960, Note_on_c, 0, 58, 70
2, 1105440, Note_off_c, 0, 58, 70
2, 1105440, Note_on_c, 0, 57, 95
2, 1105920, Note_off_c, 0, 57, 95
2, 1105920, Note_on_c, 0, 55, 95
2, 1106400, Note_off_c, 0, 45, 95
2, 1106400, Note_off_c, 0, 55, 95
2, 1106400, Note_on_c, 0, 45, 95
2, 1106880, Note_on_c, 0, 57, 95
2, 1107360, Note_off_c, 0, 57, 95
2, 1107360, Note_on_c, 0, 52, 95
2, 1107840, Note_off_c, 0, 52, 95
2, 1107840, Note_on_c, 0, 53, 70
2, 1108320, Note_off_c, 0, 45, 95
2, 1108320, Note_off_c, 0, 53, 70
2, 1108320, Note_on_c, 0, 45, 95
2, 1108800, Note_on_c, 0, 50, 95
2, 1109280, Note_off_c, 0, 50, 95
2, 1109280, Note_on_c, 0, 52, 70
2, 1110240, Note_off_c, 0, 45, 95
2, 1110240, Note_off_c, 0, 52, 70
2, 1110240, Note_on_c, 0, 45, 95
2, 1110720, Note_on_c, 0, 57, 95
2, 1111680, Note_off_c, 0, 45, 95
2, 1111680, Note_on_c, 0, 45, 95
2, 1112160, Note_off_c, 0, 57, 95
2, 1112160, Note_on_c, 0, 57, 95
2, 1112640, Note_off_c, 0, 57, 95
2, 1112640, Note_on_c, 0, 58, 70
2, 1113120, Note_off_c, 0, 58, 70
2, 1113120, Note_on_c, 0, 57, 95
2, 1113600, Note_off_c, 0, 57, 95
2, 1113600, Note_on_c, 0, 55, 95
2, 1114080, Note_off_c, 0, 45, 95
2, 1114080, Note_off_c, 0, 55, 95
2, 1114080, Note_on_c, 0, 45, 95
2, 1114560, Note_on_c, 0, 57, 95
2, 1115520, Note_off_c, 0, 45, 95
2, 1115520, Note_on_c, 0, 45, 95
2, 1116000, Note_off_c, 0, 57, 95
2, 1116000, Note_on_c, 0, 57, 95
2, 1116480, Note_off_c, 0, 57, 95
2, 1116480, Note_on_c, 0, 58, 70
2, 1116960, Note_off_c, 0, 58, 70
2, 1116960, Note_on_c, 0, 57, 95
2, 1117440, Note_off_c, 0, 57, 95
2, 1117440, Note_on_c, 0, 55, 95
2, 1117920, Note_off_c, 0, 45, 95
2, 1117920, Note_off_c, 0, 55, 95
2, 1117920, Note_on_c, 0, 45, 95
2, 1118400, Note_on_c, 0, 57, 95
2, 1119360, Note_off_c, 0, 45, 95
2, 1119360, Note_on_c, 0, 45, 95
2, 1119840, Note_off_c, 0, 57, 95
2, 1119840, Note_on_c, 0, 57, 95
2, 1120320, Note_off_c, 0, 57, 95
2, 1120320, Note_on_c, 0, 58, 70
2, 1120800, Note_off_c, 0, 58, 70
2, 1120800, Note_on_c, 0, 57, 95
2, 1121280, Note_off_c, 0, 57, 95
2, 1121280, Note_on_c, 0, 55, 95
2, 1121760, Note_off_c, 0, 45, 95
2, 1121760, Note_off_c, 0, 55, 95
2, 1121760, Note_on_c, 0, 45, 95
2, 1122240, Note_on_c, 0, 57, 95
2, 1122720, Note_off_c, 0, 57, 95
2, 1122720, Note_on_c, 0, 52, 95
2, 1123200, Note_off_c, 0, 52, 95
2, 1123200, Note_on_c, 0, 53, 70
2, 1123680, Note_off_c, 0, 45, 95
2, 1123680, Note_off_c, 0, 53, 70
2, 1123680, Note_on_c, 0, 45, 95
2, 1124160, Note_on_c, 0, 50, 95
2, 1124640, Note_off_c, 0, 50, 95
2, 1124640, Note_on_c, 0, 52, 70
2, 1125600, Note_off_c, 0, 45, 95
2, 1125600, Note_off_c, 0, 52, 70
2, 1125600, Note_on_c, 0, 45, 95
2, 1126080, Note_on_c, 0, 57, 95
2, 1127040, Note_off_c, 0, 45, 95
2, 1127040, Note_on_c, 0, 45, 95
2, 1127520, Note_off_c, 0, 57, 95
2, 1127520, Note_on_c, 0, 57, 95
2, 1128000, Note_off_c, 0, 57, 95
2, 1128000, Note_on_c, 0, 58, 70
2, 1128480, Note_off_c, 0, 58, 70
2, 1128480, Note_on_c, 0, 57, 95
2, 1128960, Note_off_c, 0, 57, 95
2, 1128960, Note_on_c, 0, 55, 95
2, 1129440, Note_off_c, 0, 45, 95
2, 1129440, Note_off_c, 0, 55, 95
2, 1129440, Note_on_c, 0, 45, 95
2, 1129920, Note_on_c, 0, 57, 95
2, 1130880, Note_off_c, 0, 45, 95
2, 1130880, Note_on_c, 0, 45, 95
2, 1131360, Note_off_c, 0, 57, 95
2, 1131360, Note_on_c, 0, 57, 95
2, 1131840, Note_off_c, 0, 57, 95
2, 1131840, Note_on_c, 0, 58, 70
2, 1132320, Note_off_c, 0, 58, 70
2, 1132320, Note_on_c, 0, 57, 95
2, 1132800, Note_off_c, 0, 57, 95
2, 1132800, Note_on_c, 0, 55, 95
2, 1133280, Note_off_c, 0, 45, 95
2, 1133280, Note_off_c, 0, 55, 95
2, 1133280, Note_on_c, 0, 45, 95
2, 1133760, Note_on_c, 0, 57, 95
2, 1134720, Note_off_c, 0, 45, 95
2, 1134720, Note_on_c, 0, 45, 95
2, 1135200, Note_off_c, 0, 57, 95
2, 1135200, Note_on_c, 0, 57, 95
2, 1135680, Note_off_c, 0, 57, 95
2, 1135680, Note_on_c, 0, 58, 70
2, 1136160, Note_off_c, 0, 58, 70
2, 1136160, Note_on_c, 0, 57, 95
2, 1136640, Note_off_c, 0, 57, 95
2, 1136640, Note_on_c, 0, 55, 95
2, 1137120, Note_off_c, 0, 45, 95
2, 1137120, Note_off_c, 0, 55, 95
2, 1137120, Note_on_c, 0, 45, 95
2, 1137600, Note_on_c, 0, 57, 95
2, 1138080, Note_off_c, 0, 57, 95
2, 1138080, Note_on_c, 0, 52, 95
2, 1138560, Note_off_c, 0, 52, 95
2, 1138560, Note_on_c, 0, 53, 70
2, 1139040, Note_off_c, 0, 45, 95
2, 1139040, Note_off_c, 0, 53, 70
2, 1139040, Note_on_c, 0, 45, 95
2, 1139520, Note_on_c, 0, 50, 95
2, 1140000, Note_off_c, 0, 50, 95
2, 1140000, Note_on_c, 0, 52, 70
2, 1140960, Note_off_c, 0, 52, 70
2, 1140960, Note_on_c, 0, 43, 95
2, 1141440, Note_on_c, 0, 57, 95
2, 1142400, Note_off_c, 0, 43, 95
2, 1142400, Note_on_c, 0, 43, 95
2, 1142880, Note_off_c, 0, 57, 95
2, 1142880, Note_on_c, 0, 57, 95
2, 1143360, Note_off_c, 0, 57, 95
2, 1143360, Note_on_c, 0, 58, 95
2, 1143840, Note_off_c, 0, 58, 95
2, 1143840, Note_on_c, 0, 55, 95
2, 1144320, Note_off_c, 0, 43, 95
2, 1144320, Note_on_c, 0, 43, 95
2, 1144800, Note_off_c, 0, 55, 95
2, 1144800, Note_off_c, 0, 43, 95
2, 1144800, Note_on_c, 0, 43, 95
2, 1145280, Note_on_c, 0, 57, 95
2, 1146240, Note_off_c, 0, 43, 95
2, 1146240, Note_on_c, 0, 43, 95
2, 1146720, Note_off_c, 0, 57, 95
2, 1146720, Note_on_c, 0, 57, 95
2, 1147200, Note_off_c, 0, 57, 95
2, 1147200, Note_on_c, 0, 58, 95
2, 1147680, Note_off_c, 0, 58, 95
2, 1147680, Note_on_c, 0, 55, 95
2, 1148160, Note_off_c, 0, 43, 95
2, 1148160, Note_on_c, 0, 43, 95
2, 1148640, Note_off_c, 0, 55, 95
2, 1148640, Note_off_c, 0, 43, 95
2, 1148640, Note_on_c, 0, 41, 95
2, 1149120, Note_on_c, 0, 57, 95
2, 1150080, Note_off_c, 0, 41, 95
2, 1150080, Note_on_c, 0, 41, 95
2, 1150560, Note_off_c, 0, 57, 95
2, 1150560, Note_on_c, 0, 57, 95
2, 1151040, Note_off_c, 0, 57, 95
2, 1151040, Note_on_c, 0, 58, 95
2, 1151520, Note_off_c, 0, 58, 95
2, 1151520, Note_on_c, 0, 57, 95
2, 1152000, Note_off_c, 0, 57, 95
2, 1152000, Note_on_c, 0, 55, 95
2, 1152480, Note_off_c, 0, 41, 95
2, 1152480, Note_off_c, 0, 55, 95
2, 1152480, Note_on_c, 0, 40, 95
2, 1152960, Note_off_c, 0, 40, 95
2, 1152960, Note_on_c, 0, 40, 95
2, 1153440, Note_on_c, 0, 52, 95
2, 1153920, Note_off_c, 0, 52, 95
2, 1153920, Note_on_c, 0, 53, 95
2, 1154400, Note_off_c, 0, 45, 95
2, 1154400, Note_off_c, 0, 40, 95
2, 1154400, Note_off_c, 0, 53, 95
2, 1154400, Note_on_c, 0, 40, 95
2, 1154880, Note_on_c, 0, 50, 95
2, 1155360, Note_off_c, 0, 50, 95
2, 1155360, Note_on_c, 0, 52, 95
2, 1156320, Note_off_c, 0, 40, 95
2, 1156320, Note_off_c, 0, 52, 95
2, 1171680, Pitch_bend_c, 1, 8192
2, 1171680, Note_on_c, 1, 83, 95
2, 1171776, Pitch_bend_c, 1, 8320
2, 1171872, Pitch_bend_c, 1, 8448
2, 1171968, Pitch_bend_c, 1, 8576
2, 1172064, Pitch_bend_c, 1, 8704
2, 1172160, Pitch_bend_c, 1, 8832
2, 1172160, Pitch_bend_c, 1, 8832
2, 1172640, Pitch_bend_c, 1, 8832
2, 1172736, Pitch_bend_c, 1, 8704
2, 1172832, Pitch_bend_c, 1, 8576
2, 1172928, Pitch_bend_c, 1, 8448
2, 1173024, Pitch_bend_c, 1, 8320
2, 1173120, Pitch_bend_c, 1, 8192
2, 1173120, Pitch_bend_c, 1, 8192
2, 1173600, Pitch_bend_c, 1, 8192
2, 1173600, Pitch_bend_c, 1, 8192
2, 1173600, Note_off_c, 1, 83, 95
2, 1173600, Note_on_c, 0, 83, 95
2, 1175040, Note_off_c, 0, 83, 95
2, 1175040, Note_on_c, 0, 81, 95
2, 1175520, Note_off_c, 0, 81, 95
2, 1176960, Note_on_c, 0, 76, 95
2, 1178400, Note_off_c, 0, 76, 95
2, 1178760, Note_on_c, 0, 74, 95
2, 1179000, Note_off_c, 0, 74, 95
2, 1179000, Note_on_c, 0, 76, 95
2, 1179240, Note_off_c, 0, 76, 95
2, 1179240, Note_on_c, 0, 77, 95
2, 1179720, Note_off_c, 0, 77, 95
2, 1179720, Pitch_bend_c, 1, 8192
2, 1179720, Note_on_c, 1, 76, 95
2, 1179798, Pitch_bend_c, 1, 8320
2, 1179876, Pitch_bend_c, 1, 8448
2, 1179954, Pitch_bend_c, 1, 8576
2, 1180032, Pitch_bend_c, 1, 8704
2, 1180110, Pitch_bend_c, 1, 8832
2, 1180110, Pitch_bend_c, 1, 8832
2, 1180500, Pitch_bend_c, 1, 8832
2, 1180578, Pitch_bend_c, 1, 8704
2, 1180656, Pitch_bend_c, 1, 8576
2, 1180734, Pitch_bend_c, 1, 8448
2, 1180812, Pitch_bend_c, 1, 8320
2, 1180890, Pitch_bend_c, 1, 8192
2, 1180890, Pitch_bend_c, 1, 8192
2, 1181280, Pitch_bend_c, 1, 8192
2, 1181280, Pitch_bend_c, 1, 8192
2, 1181280, Note_off_c, 1, 76, 95
2, 1181280, Note_on_c, 0, 74, 95
2, 1181760, Note_off_c, 0, 74, 95
2, 1181760, Note_on_c, 0, 74, 95
2, 1182000, Note_off_c, 0, 74, 95
2, 1182000, Note_on_c, 0, 76, 95
2, 1182120, Note_off_c, 0, 76, 95
2, 1182120, Note_on_c, 0, 74, 70
2, 1182240, Note_off_c, 0, 74, 70
2, 1182240, Note_on_c, 1, 72, 95
2, 1182400, Pitch_bend_c, 1, 8192
2, 1182560, Pitch_bend_c, 1, 8320
2, 1182720, Pitch_bend_c, 1, 8192
2, 1182880, Pitch_bend_c, 1, 8320
2, 1183040, Pitch_bend_c, 1, 8192
2, 1183200, Pitch_bend_c, 1, 8320
2, 1183360, Pitch_bend_c, 1, 8192
2, 1183520, Pitch_bend_c, 1, 8320
2, 1183680, Pitch_bend_c, 1, 8192
2, 1183840, Pitch_bend_c, 1, 8320
2, 1184000, Pitch_bend_c, 1, 8192
2, 1184160, Pitch_bend_c, 1, 8320
2, 1184320, Pitch_bend_c, 1, 8192
2, 1184480, Pitch_bend_c, 1, 8320
2, 1184640, Pitch_bend_c, 1, 8192
2, 1184800, Pitch_bend_c, 1, 8320
2, 1184960, Pitch_bend_c, 1, 8192
2, 1185120, Pitch_bend_c, 1, 8320
2, 1185280, Pitch_bend_c, 1, 8192
2, 1185440, Pitch_bend_c, 1, 8320
2, 1185600, Pitch_bend_c, 1, 8192
2, 1185760, Pitch_bend_c, 1, 8320
2, 1185920, Pitch_bend_c, 1, 8192
2, 1186080, Pitch_bend_c, 1, 8320
2, 1186240, Pitch_bend_c, 1, 8192
2, 1186400, Pitch_bend_c, 1, 8320
2, 1186560, Pitch_bend_c, 1, 8192
2, 1186720, Pitch_bend_c, 1, 8320
2, 1186880, Pitch_bend_c, 1, 8192
2, 1187040, Pitch_bend_c, 1, 8320
2, 1187040, Pitch_bend_c, 1, 8192
2, 1187040, Note_off_c, 1, 72, 95
2, 1187040, Pitch_bend_c, 1, 8192
2, 1187040, Note_on_c, 1, 83, 95
2, 1187136, Pitch_bend_c, 1, 8320
2, 1187232, Pitch_bend_c, 1, 8448
2, 1187328, Pitch_bend_c, 1, 8576
2, 1187424, Pitch_bend_c, 1, 8704
2, 1187520, Pitch_bend_c, 1, 8832
2, 1187520, Pitch_bend_c, 1, 8832
2, 1188000, Pitch_bend_c, 1, 8832
2, 1188096, Pitch_bend_c, 1, 8704
2, 1188192, Pitch_bend_c, 1, 8576
2, 1188288, Pitch_bend_c, 1, 8448
2, 1188384, Pitch_bend_c, 1, 8320
2, 1188480, Pitch_bend_c, 1, 8192
2, 1188480, Pitch_bend_c, 1, 8192
2, 1188960, Pitch_bend_c, 1, 8192
2, 1188960, Pitch_bend_c, 1, 8192
2, 1188960, Note_off_c, 1, 83, 95
2, 1188960, Note_on_c, 0, 83, 95
2, 1190400, Note_off_c, 0, 83, 95
2, 1190400, Pitch_bend_c, 1, 8192
2, 1190400, Note_on_c, 1, 84, 95
2, 1190421, Pitch_bend_c, 1, 8320
2, 1190442, Pitch_bend_c, 1, 8448
2, 1190463, Pitch_bend_c, 1, 8576
2, 1190484, Pitch_bend_c, 1, 8704
2, 1190505, Pitch_bend_c, 1, 8832
2, 1190526, Pitch_bend_c, 1, 8960
2, 1190547, Pitch_bend_c, 1, 9088
2, 1190568, Pitch_bend_c, 1, 9216
2, 1190589, Pitch_bend_c, 1, 9344
2, 1190610, Pitch_bend_c, 1, 9472
2, 1190631, Pitch_bend_c, 1, 9600
2, 1190640, Pitch_bend_c, 1, 9600
2, 1190880, Pitch_bend_c, 1, 9600
2, 1190880, Pitch_bend_c, 1, 8192
2, 1190880, Note_off_c, 1, 84, 95
2, 1192320, Note_on_c, 0, 84, 95
2, 1192560, Note_off_c, 0, 84, 95
2, 1192560, Note_on_c, 0, 83, 95
2, 1192800, Note_off_c, 0, 83, 95
2, 1192800, Note_on_c, 1, 81, 95
2, 1192960, Pitch_bend_c, 1, 8192
2, 1193120, Pitch_bend_c, 1, 8320
2, 1193280, Pitch_bend_c, 1, 8192
2, 1193440, Pitch_bend_c, 1, 8320
2, 1193600, Pitch_bend_c, 1, 8192
2, 1193760, Pitch_bend_c, 1, 8320
2, 1193920, Pitch_bend_c, 1, 8192
2, 1194080, Pitch_bend_c, 1, 8320
2, 1194240, Pitch_bend_c, 1, 8192
2, 1194400, Pitch_bend_c, 1, 8320
2, 1194560, Pitch_bend_c, 1, 8192
2, 1194720, Pitch_bend_c, 1, 8320
2, 1194720, Pitch_bend_c, 1, 8192
2, 1194720, Note_off_c, 1, 81, 95
2, 1194720, Pitch_bend_c, 1, 8192
2, 1194720, Note_on_c, 1, 83, 95
2, 1194768, Pitch_bend_c, 1, 8320
2, 1194816, Pitch_bend_c, 1, 8448
2, 1194864, Pitch_bend_c, 1, 8576
2, 1194912, Pitch_bend_c, 1, 8704
2, 1194960, Pitch_bend_c, 1, 8832
2, 1194960, Pitch_bend_c, 1, 8832
2, 1195200, Pitch_bend_c, 1, 8832
2, 1195248, Pitch_bend_c, 1, 8704
2, 1195296, Pitch_bend_c, 1, 8576
2, 1195344, Pitch_bend_c, 1, 8448
2, 1195392, Pitch_bend_c, 1, 8320
2, 1195440, Pitch_bend_c, 1, 8192
2, 1195440, Pitch_bend_c, 1, 8192
2, 1195680, Pitch_bend_c, 1, 8192
2, 1195680, Pitch_bend_c, 1, 8192
2, 1195680, Note_off_c, 1, 83, 95
2, 1195680, Note_on_c, 0, 81, 95
2, 1196160, Note_off_c, 0, 81, 95
2, 1196160, Note_on_c, 0, 79, 95
2, 1196640, Note_off_c, 0, 79, 95
2, 1196640, Note_on_c, 0, 77, 95
2, 1197120, Note_off_c, 0, 77, 95
2, 1197120, Note_on_c, 0, 76, 95
2, 1197600, Note_off_c, 0, 76, 95
2, 1197600, Note_on_c, 0, 77, 95
2, 1198080, Note_off_c, 0, 77, 95
2, 1198080, Note_on_c, 0, 76, 95
2, 1198200, Note_off_c, 0, 76, 95
2, 1198200, Note_on_c, 0, 77, 70
2, 1198320, Note_off_c, 0, 77, 70
2, 1198320, Note_on_c, 0, 76, 95
2, 1200480, Note_off_c, 0, 76, 95
2, 1200480, Note_on_c, 0, 72, 95
2, 1200600, Note_off_c, 0, 72, 95
2, 1200600, Note_on_c, 0, 74, 95
2, 1200720, Note_off_c, 0, 74, 95
2, 1200720, Note_on_c, 0, 76, 95
2, 1200840, Note_off_c, 0, 76, 95
2, 1200840, Note_on_c, 0, 77, 95
2, 1200960, Note_off_c, 0, 77, 95
2, 1200960, Note_on_c, 0, 79, 95
2, 1201080, Note_off_c, 0, 79, 95
2, 1201080, Note_on_c, 0, 81, 95
2, 1201200, Note_off_c, 0, 81, 95
2, 1201200, Note_on_c, 0, 79, 95
2, 1201320, Note_off_c, 0, 79, 95
2, 1201320, Note_on_c, 0, 81, 95
2, 1201440, Note_off_c, 0, 81, 95
2, 1201440, Note_on_c, 0, 83, 95
2, 1201560, Note_off_c, 0, 83, 95
2, 1201560, Note_on_c, 0, 79, 95
2, 1201680, Note_off_c, 0, 79, 95
2, 1201680, Note_on_c, 0, 81, 95
2, 1201920, Note_off_c, 0, 81, 95
2, 1201920, Pitch_bend_c, 1, 8192
2, 1201920, Note_on_c, 1, 83, 95
2, 1202040, Pitch_bend_c, 1, 8320
2, 1202160, Pitch_bend_c, 1, 8448
2, 1202280, Pitch_bend_c, 1, 8576
2, 1202400, Pitch_bend_c, 1, 8704
2, 1202520, Pitch_bend_c, 1, 8832
2, 1202520, Pitch_bend_c, 1, 8832
2, 1203120, Pitch_bend_c, 1, 8832
2, 1203240, Pitch_bend_c, 1, 8704
2, 1203360, Pitch_bend_c, 1, 8576
2, 1203480, Pitch_bend_c, 1, 8448
2, 1203600, Pitch_bend_c, 1, 8320
2, 1203720, Pitch_bend_c, 1, 8192
2, 1203720, Pitch_bend_c, 1, 8192
2, 1204320, Pitch_bend_c, 1, 8192
2, 1204320, Pitch_bend_c, 1, 8192
2, 1204320, Note_off_c, 1, 83, 95
2, 1204320, Note_on_c, 0, 83, 95
2, 1206240, Note_off_c, 0, 83, 95
2, 1206240, Note_on_c, 0, 84, 95
2, 1208160, Note_off_c, 0, 84, 95
2, 1208160, Note_on_c, 0, 86, 95
2, 1210080, Note_off_c, 0, 86, 95
2, 1211040, Note_on_c, 0, 86, 95
2, 1211520, Note_off_c, 0, 86, 95
2, 1211520, Pitch_bend_c, 1, 8192
2, 1211520, Note_on_c, 1, 86, 95
2, 1211574, Pitch_bend_c, 1, 8320
2, 1211628, Pitch_bend_c, 1, 8448
2, 1211682, Pitch_bend_c, 1, 8576
2, 1211736, Pitch_bend_c, 1, 8704
2, 1211790, Pitch_bend_c, 1, 8832
2, 1211844, Pitch_bend_c, 1, 8960
2, 1211898, Pitch_bend_c, 1, 9088
2, 1211952, Pitch_bend_c, 1, 9216
2, 1212006, Pitch_bend_c, 1, 9344
2, 1212060, Pitch_bend_c, 1, 9472
2, 1212114, Pitch_bend_c, 1, 9600
2, 1212120, Pitch_bend_c, 1, 9600
2, 1212720, Pitch_bend_c, 1, 9600
2, 1212774, Pitch_bend_c, 1, 9472
2, 1212828, Pitch_bend_c, 1, 9344
2, 1212882, Pitch_bend_c, 1, 9216
2, 1212936, Pitch_bend_c, 1, 9088
2, 1212990, Pitch_bend_c, 1, 8960
2, 1213044, Pitch_bend_c, 1, 8832
2, 1213098, Pitch_bend_c, 1, 8704
2, 1213152, Pitch_bend_c, 1, 8576
2, 1213206, Pitch_bend_c, 1, 8448
2, 1213260, Pitch_bend_c, 1, 8320
2, 1213314, Pitch_bend_c, 1, 8192
2, 1213320, Pitch_bend_c, 1, 8192
2, 1213920, Pitch_bend_c, 1, 8192
2, 1213920, Pitch_bend_c, 1, 8192
2, 1213920, Note_off_c, 1, 86, 95
2, 1213920, Note_on_c, 0, 84, 95
2, 1214400, Note_off_c, 0, 84, 95
2, 1214400, Note_on_c, 0, 86, 95
2, 1214880, Note_off_c, 0, 86, 95
2, 1214880, Note_on_c, 0, 88, 95
2, 1215840, Note_off_c, 0, 88, 95
2, 1215840, Pitch_bend_c, 1, 8192
2, 1215840, Note_on_c, 1, 88, 95
2, 1215936, Pitch_bend_c, 1, 8320
2, 1216032, Pitch_bend_c, 1, 8448
2, 1216128, Pitch_bend_c, 1, 8576
2, 1216224, Pitch_bend_c, 1, 8704
2, 1216320, Pitch_bend_c, 1, 8832
2, 1216320, Pitch_bend_c, 1, 8832
2, 1216800, Pitch_bend_c, 1, 8832
2, 1217280, Pitch_bend_c, 1, 8832
2, 1217344, Pitch_bend_c, 1, 8704
2, 1217408, Pitch_bend_c, 1, 8576
2, 1217472, Pitch_bend_c, 1, 8448
2, 1217536, Pitch_bend_c, 1, 8320
2, 1217600, Pitch_bend_c, 1, 8192
2, 1217600, Pitch_bend_c, 1, 8192
2, 1217760, Pitch_bend_c, 1, 8192
2, 1217760, Pitch_bend_c, 1, 8192
2, 1217760, Note_off_c, 1, 88, 95
2, 1219680, Note_on_c, 0, 88, 95
2, 1221600, Note_off_c, 0, 88, 95
2, 1223040, Note_on_c, 0, 86, 95
2, 1223520, Note_off_c, 0, 86, 95
2, 1223520, Note_on_c, 0, 86, 95
2, 1225440, Note_off_c, 0, 86, 95
2, 1226880, Note_on_c, 0, 84, 95
2, 1227360, Note_off_c, 0, 84, 95
2, 1227360, Note_on_c, 0, 84, 95
2, 1230240, Note_off_c, 0, 84, 95
2, 1230240, Note_on_c, 0, 84, 95
2, 1232160, Note_off_c, 0, 84, 95
2, 1232160, Pitch_bend_c, 1, 8192
2, 1232160, Note_on_c, 1, 84, 95
2, 1232290, Pitch_bend_c, 1, 8320
2, 1232420, Pitch_bend_c, 1, 8448
2, 1232550, Pitch_bend_c, 1, 8576
2, 1232680, Pitch_bend_c, 1, 8704
2, 1232810, Pitch_bend_c, 1, 8832
2, 1232940, Pitch_bend_c, 1, 8960
2, 1233070, Pitch_bend_c, 1, 9088
2, 1233200, Pitch_bend_c, 1, 9216
2, 1233330, Pitch_bend_c, 1, 9344
2, 1233460, Pitch_bend_c, 1, 9472
2, 1233590, Pitch_bend_c, 1, 9600
2, 1233600, Pitch_bend_c, 1, 9600
2, 1235040, Pitch_bend_c, 1, 9600
2, 1235040, Pitch_bend_c, 1, 8192
2, 1235040, Note_off_c, 1, 84, 95
2, 1235040, Pitch_bend_c, 1, 8192
2, 1235040, Note_on_c, 1, 86, 95
2, 1235105, Pitch_bend_c, 1, 8320
2, 1235170, Pitch_bend_c, 1, 8448
2, 1235235, Pitch_bend_c, 1, 8576
2, 1235300, Pitch_bend_c, 1, 8704
2, 1235365, Pitch_bend_c, 1, 8832
2, 1235430, Pitch_bend_c, 1, 8960
2, 1235495, Pitch_bend_c, 1, 9088
2, 1235560, Pitch_bend_c, 1, 9216
2, 1235625, Pitch_bend_c, 1, 9344
2, 1235690, Pitch_bend_c, 1, 9472
2, 1235755, Pitch_bend_c, 1, 9600
2, 1235760, Pitch_bend_c, 1, 9600
2, 1236240, Pitch_bend_c, 1, 9600
2, 1236283, Pitch_bend_c, 1, 9472
2, 1236326, Pitch_bend_c, 1, 9344
2, 1236369, Pitch_bend_c, 1, 9216
2, 1236412, Pitch_bend_c, 1, 9088
2, 1236455, Pitch_bend_c, 1, 8960
2, 1236498, Pitch_bend_c, 1, 8832
2, 1236541, Pitch_bend_c, 1, 8704
2, 1236584, Pitch_bend_c, 1, 8576
2, 1236627, Pitch_bend_c, 1, 8448
2, 1236670, Pitch_bend_c, 1, 8320
2, 1236713, Pitch_bend_c, 1, 8192
2, 1236720, Pitch_bend_c, 1, 8192
2, 1237200, Pitch_bend_c, 1, 8192
2, 1237920, Pitch_bend_c, 1, 8192
2, 1237920, Pitch_bend_c, 1, 8192
2, 1237920, Note_off_c, 1, 86, 95
2, 1237920, Note_on_c, 0, 86, 95
2, 1244640, Note_off_c, 0, 86, 95
2, 1244640, Control_c, 1, 11, 31
2, 1244640, Note_on_c, 1, 64, 47
2, 1244640, Control_c, 1, 11, 31
2, 1244640, Note_on_c, 1, 45, 47
2, 1244720, Control_c, 1, 11, 32
2, 1244720, Control_c, 1, 11, 32
2, 1244800, Control_c, 1, 11, 33
2, 1244800, Control_c, 1, 11, 33
2, 1244880, Control_c, 1, 11, 34
2, 1244880, Control_c, 1, 11, 34
2, 1244960, Control_c, 1, 11, 35
2, 1244960, Control_c, 1, 11, 35
2, 1245040, Control_c, 1, 11, 36
2, 1245040, Control_c, 1, 11, 36
2, 1245120, Control_c, 1, 11, 37
2, 1245120, Control_c, 1, 11, 37
2, 1245200, Control_c, 1, 11, 38
2, 1245200, Control_c, 1, 11, 38
2, 1245280, Control_c, 1, 11, 39
2, 1245280, Control_c, 1, 11, 39
2, 1245360, Control_c, 1, 11, 40
2, 1245360, Control_c, 1, 11, 40
2, 1245440, Control_c, 1, 11, 41
2, 1245440, Control_c, 1, 11, 41
2, 1245520, Control_c, 1, 11, 42
2, 1245520, Control_c, 1, 11, 42
2, 1245600, Control_c, 1, 11, 43
2, 1245600, Control_c, 1, 11, 43
2, 1245680, Control_c, 1, 11, 44
2, 1245680, Control_c, 1, 11, 44
2, 1245760, Control_c, 1, 11, 45
2, 1245760, Control_c, 1, 11, 45
2, 1245840, Control_c, 1, 11, 46
2, 1245840, Control_c, 1, 11, 46
2, 1245920, Control_c, 1, 11, 47
2, 1245920, Control_c, 1, 11, 47
2, 1246000, Control_c, 1, 11, 48
2, 1246000, Control_c, 1, 11, 48
2, 1246080, Control_c, 1, 11, 49
2, 1246080, Control_c, 1, 11, 49
2, 1246160, Control_c, 1, 11, 50
2, 1246160, Control_c, 1, 11, 50
2, 1246240, Control_c, 1, 11, 51
2, 1246240, Control_c, 1, 11, 51
2, 1246320, Control_c, 1, 11, 52
2, 1246320, Control_c, 1, 11, 52
2, 1246400, Control_c, 1, 11, 53
2, 1246400, Control_c, 1, 11, 53
2, 1246480, Control_c, 1, 11, 54
2, 1246480, Control_c, 1, 11, 54
2, 1246560, Control_c, 1, 11, 55
2, 1246560, Control_c, 1, 11, 55
2, 1246640, Control_c, 1, 11, 56
2, 1246640, Control_c, 1, 11, 56
2, 1246720, Control_c, 1, 11, 57
2, 1246720, Control_c, 1, 11, 57
2, 1246800, Control_c, 1, 11, 58
2, 1246800, Control_c, 1, 11, 58
2, 1246880, Control_c, 1, 11, 59
2, 1246880, Control_c, 1, 11, 59
2, 1246960, Control_c, 1, 11, 60
2, 1246960, Control_c, 1, 11, 60
2, 1247040, Control_c, 1, 11, 61
2, 1247040, Control_c, 1, 11, 61
2, 1247120, Control_c, 1, 11, 62
2, 1247120, Control_c, 1, 11, 62
2, 1247200, Control_c, 1, 11, 63
2, 1247200, Control_c, 1, 11, 63
2, 1247280, Control_c, 1, 11, 64
2, 1247280, Control_c, 1, 11, 64
2, 1247360, Control_c, 1, 11, 65
2, 1247360, Control_c, 1, 11, 65
2, 1247440, Control_c, 1, 11, 66
2, 1247440, Control_c, 1, 11, 66
2, 1247520, Control_c, 1, 11, 67
2, 1247520, Control_c, 1, 11, 67
2, 1247600, Control_c, 1, 11, 68
2, 1247600, Control_c, 1, 11, 68
2, 1247680, Control_c, 1, 11, 69
2, 1247680, Control_c, 1, 11, 69
2, 1247760, Control_c, 1, 11, 70
2, 1247760, Control_c, 1, 11, 70
2, 1247840, Control_c, 1, 11, 71
2, 1247840, Control_c, 1, 11, 71
2, 1247920, Control_c, 1, 11, 72
2, 1247920, Control_c, 1, 11, 72
2, 1248000, Control_c, 1, 11, 73
2, 1248000, Control_c, 1, 11, 73
2, 1248080, Control_c, 1, 11, 74
2, 1248080, Control_c, 1, 11, 74
2, 1248160, Control_c, 1, 11, 75
2, 1248160, Control_c, 1, 11, 75
2, 1248240, Control_c, 1, 11, 76
2, 1248240, Control_c, 1, 11, 76
2, 1248320, Control_c, 1, 11, 77
2, 1248320, Control_c, 1, 11, 77
2, 1248400, Control_c, 1, 11, 78
2, 1248400, Control_c, 1, 11, 78
2, 1248480, Control_c, 1, 11, 79
2, 1248480, Control_c, 1, 11, 79
2, 1248560, Control_c, 1, 11, 80
2, 1248560, Control_c, 1, 11, 80
2, 1248640, Control_c, 1, 11, 81
2, 1248640, Control_c, 1, 11, 81
2, 1248720, Control_c, 1, 11, 82
2, 1248720, Control_c, 1, 11, 82
2, 1248800, Control_c, 1, 11, 83
2, 1248800, Control_c, 1, 11, 83
2, 1248880, Control_c, 1, 11, 84
2, 1248880, Control_c, 1, 11, 84
2, 1248960, Control_c, 1, 11, 85
2, 1248960, Control_c, 1, 11, 85
2, 1249040, Control_c, 1, 11, 86
2, 1249040, Control_c, 1, 11, 86
2, 1249120, Control_c, 1, 11, 87
2, 1249120, Control_c, 1, 11, 87
2, 1249200, Control_c, 1, 11, 88
2, 1249200, Control_c, 1, 11, 88
2, 1249280, Control_c, 1, 11, 89
2, 1249280, Control_c, 1, 11, 89
2, 1249360, Control_c, 1, 11, 90
2, 1249360, Control_c, 1, 11, 90
2, 1249440, Control_c, 1, 11, 91
2, 1249440, Control_c, 1, 11, 91
2, 1249520, Control_c, 1, 11, 92
2, 1249520, Control_c, 1, 11, 92
2, 1249600, Control_c, 1, 11, 93
2, 1249600, Control_c, 1, 11, 93
2, 1249680, Control_c, 1, 11, 94
2, 1249680, Control_c, 1, 11, 94
2, 1249760, Control_c, 1, 11, 95
2, 1249760, Control_c, 1, 11, 95
2, 1249840, Control_c, 1, 11, 96
2, 1249840, Control_c, 1, 11, 96
2, 1249920, Control_c, 1, 11, 97
2, 1249920, Control_c, 1, 11, 97
2, 1250000, Control_c, 1, 11, 98
2, 1250000, Control_c, 1, 11, 98
2, 1250080, Control_c, 1, 11, 99
2, 1250080, Control_c, 1, 11, 99
2, 1250160, Control_c, 1, 11, 100
2, 1250160, Control_c, 1, 11, 100
2, 1250240, Control_c, 1, 11, 101
2, 1250240, Control_c, 1, 11, 101
2, 1250320, Control_c, 1, 11, 102
2, 1250320, Control_c, 1, 11, 102
2, 1250400, Control_c, 1, 11, 103
2, 1250400, Control_c, 1, 11, 103
2, 1250480, Control_c, 1, 11, 104
2, 1250480, Control_c, 1, 11, 104
2, 1250560, Control_c, 1, 11, 105
2, 1250560, Control_c, 1, 11, 105
2, 1250640, Control_c, 1, 11, 106
2, 1250640, Control_c, 1, 11, 106
2, 1250720, Control_c, 1, 11, 107
2, 1250720, Control_c, 1, 11, 107
2, 1250800, Control_c, 1, 11, 108
2, 1250800, Control_c, 1, 11, 108
2, 1250880, Control_c, 1, 11, 109
2, 1250880, Control_c, 1, 11, 109
2, 1250960, Control_c, 1, 11, 110
2, 1250960, Control_c, 1, 11, 110
2, 1251040, Control_c, 1, 11, 111
2, 1251040, Control_c, 1, 11, 111
2, 1251120, Control_c, 1, 11, 112
2, 1251120, Control_c, 1, 11, 112
2, 1251200, Control_c, 1, 11, 113
2, 1251200, Control_c, 1, 11, 113
2, 1251280, Control_c, 1, 11, 114
2, 1251280, Control_c, 1, 11, 114
2, 1251360, Control_c, 1, 11, 115
2, 1251360, Control_c, 1, 11, 115
2, 1251440, Control_c, 1, 11, 116
2, 1251440, Control_c, 1, 11, 116
2, 1251520, Control_c, 1, 11, 117
2, 1251520, Control_c, 1, 11, 117
2, 1251600, Control_c, 1, 11, 118
2, 1251600, Control_c, 1, 11, 118
2, 1251680, Control_c, 1, 11, 119
2, 1251680, Control_c, 1, 11, 119
2, 1251760, Control_c, 1, 11, 120
2, 1251760, Control_c, 1, 11, 120
2, 1251840, Control_c, 1, 11, 121
2, 1251840, Control_c, 1, 11, 121
2, 1251920, Control_c, 1, 11, 122
2, 1251920, Control_c, 1, 11, 122
2, 1252000, Control_c, 1, 11, 123
2, 1252000, Control_c, 1, 11, 123
2, 1252080, Control_c, 1, 11, 124
2, 1252080, Control_c, 1, 11, 124
2, 1252160, Control_c, 1, 11, 125
2, 1252160, Control_c, 1, 11, 125
2, 1252240, Control_c, 1, 11, 126
2, 1252240, Control_c, 1, 11, 126
2, 1252320, Control_c, 1, 11, 127
2, 1252320, Note_off_c, 1, 64, 47
2, 1252320, Control_c, 1, 11, 127
2, 1252320, Note_off_c, 1, 45, 47
2, 1252320, Pitch_bend_c, 1, 8192
2, 1252320, Note_on_c, 1, 61, 95
2, 1252368, Pitch_bend_c, 1, 8320
2, 1252416, Pitch_bend_c, 1, 8448
2, 1252464, Pitch_bend_c, 1, 8576
2, 1252512, Pitch_bend_c, 1, 8704
2, 1252560, Pitch_bend_c, 1, 8832
2, 1252560, Pitch_bend_c, 1, 8832
2, 1252800, Pitch_bend_c, 1, 8832
2, 1252848, Pitch_bend_c, 1, 8704
2, 1252896, Pitch_bend_c, 1, 8576
2, 1252944, Pitch_bend_c, 1, 8448
2, 1252992, Pitch_bend_c, 1, 8320
2, 1253040, Pitch_bend_c, 1, 8192
2, 1253040, Pitch_bend_c, 1, 8192
2, 1253280, Pitch_bend_c, 1, 8192
2, 1253280, Pitch_bend_c, 1, 8192
2, 1253280, Note_off_c, 1, 61, 95
2, 1253280, Note_on_c, 0, 45, 95
2, 1253760, Note_off_c, 0, 45, 95
2, 1253760, Note_on_c, 0, 40, 95
2, 1254240, Note_off_c, 0, 40, 95
2, 1254240, Note_on_c, 0, 55, 95
2, 1254720, Note_off_c, 0, 55, 95
2, 1254720, Note_on_c, 0, 57, 95
2, 1255200, Note_off_c, 0, 57, 95
2, 1255200, Note_on_c, 0, 45, 95
2, 1255680, Note_off_c, 0, 45, 95
2, 1255680, Pitch_bend_c, 1, 8192
2, 1255680, Note_on_c, 1, 61, 95
2, 1255728, Pitch_bend_c, 1, 8320
2, 1255776, Pitch_bend_c, 1, 8448
2, 1255824, Pitch_bend_c, 1, 8576
2, 1255872, Pitch_bend_c, 1, 8704
2, 1255920, Pitch_bend_c, 1, 8832
2, 1255920, Pitch_bend_c, 1, 8832
2, 1256160, Pitch_bend_c, 1, 8832
2, 1256208, Pitch_bend_c, 1, 8704
2, 1256256, Pitch_bend_c, 1, 8576
2, 1256304, Pitch_bend_c, 1, 8448
2, 1256352, Pitch_bend_c, 1, 8320
2, 1256400, Pitch_bend_c, 1, 8192
2, 1256400, Pitch_bend_c, 1, 8192
2, 1256640, Pitch_bend_c, 1, 8192
2, 1256640, Pitch_bend_c, 1, 8192
2, 1256640, Note_off_c, 1, 61, 95
2, 1256640, Note_on_c, 0, 45, 95
2, 1257600, Note_off_c, 0, 45, 95
2, 1257600, Note_on_c, 0, 55, 95
2, 1258080, Note_off_c, 0, 55, 95
2, 1258080, Note_on_c, 0, 57, 95
2, 1258560, Note_off_c, 0, 57, 95
2, 1258560, Note_on_c, 0, 45, 95
2, 1259040, Note_off_c, 0, 45, 95
2, 1259040, Note_on_c, 0, 49, 95
2, 1259170, Note_off_c, 0, 49, 95
2, 1259280, Note_on_c, 0, 50, 95
2, 1259410, Note_off_c, 0, 50, 95
2, 1259520, Note_on_c, 0, 52, 95
2, 1259650, Note_off_c, 0, 52, 95
2, 1260000, Pitch_bend_c, 1, 8192
2, 1260000, Note_on_c, 1, 61, 95
2, 1260048, Pitch_bend_c, 1, 8320
2, 1260096, Pitch_bend_c, 1, 8448
2, 1260144, Pitch_bend_c, 1, 8576
2, 1260192, Pitch_bend_c, 1, 8704
2, 1260240, Pitch_bend_c, 1, 8832
2, 1260240, Pitch_bend_c, 1, 8832
2, 1260480, Pitch_bend_c, 1, 8832
2, 1260528, Pitch_bend_c, 1, 8704
2, 1260576, Pitch_bend_c, 1, 8576
2, 1260624, Pitch_bend_c, 1, 8448
2, 1260672, Pitch_bend_c, 1, 8320
2, 1260720, Pitch_bend_c, 1, 8192
2, 1260720, Pitch_bend_c, 1, 8192
2, 1260960, Pitch_bend_c, 1, 8192
2, 1260960, Pitch_bend_c, 1, 8192
2, 1260960, Note_off_c, 1, 61, 95
2, 1260960, Note_on_c, 0, 45, 95
2, 1261440, Note_off_c, 0, 45, 95
2, 1261440, Note_on_c, 0, 40, 95
2, 1261920, Note_off_c, 0, 40, 95
2, 1261920, Note_on_c, 0, 55, 95
2, 1262400, Note_off_c, 0, 55, 95
2, 1262400, Note_on_c, 0, 57, 95
2, 1262880, Note_off_c, 0, 57, 95
2, 1263360, Note_on_c, 1, 57, 95
2, 1263520, Pitch_bend_c, 1, 8192
2, 1263680, Pitch_bend_c, 1, 8320
2, 1263840, Pitch_bend_c, 1, 8192
2, 1264000, Pitch_bend_c, 1, 8320
2, 1264160, Pitch_bend_c, 1, 8192
2, 1264320, Pitch_bend_c, 1, 8320
2, 1264320, Pitch_bend_c, 1, 8192
2, 1264320, Note_off_c, 1, 57, 95
2, 1264320, Note_on_c, 0, 45, 95
2, 1264800, Note_off_c, 0, 45, 95
2, 1264800, Note_on_c, 0, 46, 95
2, 1265280, Note_off_c, 0, 46, 95
2, 1265280, Note_on_c, 0, 49, 95
2, 1265760, Note_off_c, 0, 49, 95
2, 1265760, Note_on_c, 0, 50, 95
2, 1266240, Note_off_c, 0, 50, 95
2, 1266240, Note_on_c, 0, 53, 95
2, 1266720, Note_off_c, 0, 53, 95
2, 1266720, Note_on_c, 0, 52, 95
2, 1266840, Note_off_c, 0, 52, 95
2, 1266840, Note_on_c, 0, 53, 70
2, 1266960, Note_off_c, 0, 53, 70
2, 1266960, Note_on_c, 0, 52, 70
2, 1267200, Note_off_c, 0, 52, 70
2, 1267200, Note_on_c, 0, 50, 95
2, 1267680, Note_off_c, 0, 50, 95
2, 1267680, Pitch_bend_c, 1, 8192
2, 1267680, Note_on_c, 1, 61, 95
2, 1267728, Pitch_bend_c, 1, 8320
2, 1267776, Pitch_bend_c, 1, 8448
2, 1267824, Pitch_bend_c, 1, 8576
2, 1267872, Pitch_bend_c, 1, 8704
2, 1267920, Pitch_bend_c, 1, 8832
2, 1267920, Pitch_bend_c, 1, 8832
2, 1268160, Pitch_bend_c, 1, 8832
2, 1268208, Pitch_bend_c, 1, 8704
2, 1268256, Pitch_bend_c, 1, 8576
2, 1268304, Pitch_bend_c, 1, 8448
2, 1268352, Pitch_bend_c, 1, 8320
2, 1268400, Pitch_bend_c, 1, 8192
2, 1268400, Pitch_bend_c, 1, 8192
2, 1268640, Pitch_bend_c, 1, 8192
2, 1268640, Pitch_bend_c, 1, 8192
2, 1268640, Note_off_c, 1, 61, 95
2, 1268640, Note_on_c, 0, 45, 95
2, 1269120, Note_off_c, 0, 45, 95
2, 1269120, Note_on_c, 0, 40, 95
2, 1269600, Note_off_c, 0, 40, 95
2, 1269600, Note_on_c, 0, 55, 95
2, 1270080, Note_off_c, 0, 55, 95
2, 1270080, Note_on_c, 0, 57, 95
2, 1270560, Note_off_c, 0, 57, 95
2, 1270560, Note_on_c, 0, 45, 95
2, 1271040, Note_off_c, 0, 45, 95
2, 1271040, Pitch_bend_c, 1, 8192
2, 1271040, Note_on_c, 1, 61, 95
2, 1271088, Pitch_bend_c, 1, 8320
2, 1271136, Pitch_bend_c, 1, 8448
2, 1271184, Pitch_bend_c, 1, 8576
2, 1271232, Pitch_bend_c, 1, 8704
2, 1271280, Pitch_bend_c, 1, 8832
2, 1271280, Pitch_bend_c, 1, 8832
2, 1271520, Pitch_bend_c, 1, 8832
2, 1271568, Pitch_bend_c, 1, 8704
2, 1271616, Pitch_bend_c, 1, 8576
2, 1271664, Pitch_bend_c, 1, 8448
2, 1271712, Pitch_bend_c, 1, 8320
2, 1271760, Pitch_bend_c, 1, 8192
2, 1271760, Pitch_bend_c, 1, 8192
2, 1272000, Pitch_bend_c, 1, 8192
2, 1272000, Pitch_bend_c, 1, 8192
2, 1272000, Note_off_c, 1, 61, 95
2, 1272000, Note_on_c, 0, 45, 95
2, 1272960, Note_off_c, 0, 45, 95
2, 1272960, Note_on_c, 0, 55, 95
2, 1273440, Note_off_c, 0, 55, 95
2, 1273440, Note_on_c, 0, 57, 95
2, 1273920, Note_off_c, 0, 57, 95
2, 1273920, Note_on_c, 0, 45, 95
2, 1274400, Note_off_c, 0, 45, 95
2, 1274400, Note_on_c, 0, 49, 95
2, 1274530, Note_off_c, 0, 49, 95
2, 1274640, Note_on_c, 0, 50, 95
2, 1274770, Note_off_c, 0, 50, 95
2, 1274880, Note_on_c, 0, 52, 95
2, 1275010, Note_off_c, 0, 52, 95
2, 1275360, Pitch_bend_c, 1, 8192
2, 1275360, Note_on_c, 1, 61, 95
2, 1275408, Pitch_bend_c, 1, 8320
2, 1275456, Pitch_bend_c, 1, 8448
2, 1275504, Pitch_bend_c, 1, 8576
2, 1275552, Pitch_bend_c, 1, 8704
2, 1275600, Pitch_bend_c, 1, 8832
2, 1275600, Pitch_bend_c, 1, 8832
2, 1275840, Pitch_bend_c, 1, 8832
2, 1275888, Pitch_bend_c, 1, 8704
2, 1275936, Pitch_bend_c, 1, 8576
2, 1275984, Pitch_bend_c, 1, 8448
2, 1276032, Pitch_bend_c, 1, 8320
2, 1276080, Pitch_bend_c, 1, 8192
2, 1276080, Pitch_bend_c, 1, 8192
2, 1276320, Pitch_bend_c, 1, 8192
2, 1276320, Pitch_bend_c, 1, 8192
2, 1276320, Note_off_c, 1, 61, 95
2, 1276320, Note_on_c, 0, 45, 95
2, 1276800, Note_off_c, 0, 45, 95
2, 1276800, Note_on_c, 0, 40, 95
2, 1277280, Note_off_c, 0, 40, 95
2, 1277280, Note_on_c, 0, 55, 95
2, 1277760, Note_off_c, 0, 55, 95
2, 1277760, Note_on_c, 0, 57, 95
2, 1278240, Note_off_c, 0, 57, 95
2, 1278720, Note_on_c, 1, 57, 95
2, 1278880, Pitch_bend_c, 1, 8192
2, 1279040, Pitch_bend_c, 1, 8320
2, 1279200, Pitch_bend_c, 1, 8192
2, 1279360, Pitch_bend_c, 1, 8320
2, 1279520, Pitch_bend_c, 1, 8192
2, 1279680, Pitch_bend_c, 1, 8320
2, 1279840, Pitch_bend_c, 1, 8192
2, 1280000, Pitch_bend_c, 1, 8320
2, 1280160, Pitch_bend_c, 1, 8192
2, 1280160, Pitch_bend_c, 1, 8320
2, 1280160, Pitch_bend_c, 1, 8192
2, 1280160, Note_off_c, 1, 57, 95
2, 1280160, Note_on_c, 0, 49, 95
2, 1280400, Note_off_c, 0, 49, 95
2, 1280400, Note_on_c, 0, 50, 95
2, 1280640, Note_off_c, 0, 50, 95
2, 1280640, Note_on_c, 0, 52, 95
2, 1280880, Note_off_c, 0, 52, 95
2, 1280880, Note_on_c, 0, 53, 95
2, 1281120, Note_off_c, 0, 53, 95
2, 1281120, Note_on_c, 0, 55, 95
2, 1281360, Note_off_c, 0, 55, 95
2, 1281360, Note_on_c, 0, 56, 95
2, 1281600, Note_off_c, 0, 56, 95
2, 1281600, Note_on_c, 0, 55, 95
2, 1281840, Note_off_c, 0, 55, 95
2, 1281840, Note_on_c, 0, 53, 95
2, 1282080, Note_off_c, 0, 53, 95
2, 1282080, Note_on_c, 0, 52, 95
2, 1282320, Note_off_c, 0, 52, 95
2, 1282320, Note_on_c, 0, 50, 95
2, 1282560, Note_off_c, 0, 50, 95
2, 1282560, Note_on_c, 0, 49, 95
2, 1282720, Note_off_c, 0, 49, 95
2, 1282720, Note_on_c, 0, 46, 95
2, 1282880, Note_off_c, 0, 46, 95
2, 1282880, Note_on_c, 0, 45, 95
2, 1283040, Note_off_c, 0, 45, 95
2, 1283040, Note_on_c, 1, 57, 95
2, 1283200, Pitch_bend_c, 1, 8192
2, 1283360, Pitch_bend_c, 1, 8320
2, 1283520, Pitch_bend_c, 1, 8192
2, 1283680, Pitch_bend_c, 1, 8320
2, 1283840, Pitch_bend_c, 1, 8192
2, 1284000, Pitch_bend_c, 1, 8320
2, 1284160, Pitch_bend_c, 1, 8192
2, 1284320, Pitch_bend_c, 1, 8320
2, 1284480, Pitch_bend_c, 1, 8192
2, 1284640, Pitch_bend_c, 1, 8320
2, 1284800, Pitch_bend_c, 1, 8192
2, 1284960, Pitch_bend_c, 1, 8320
2, 1285120, Pitch_bend_c, 1, 8192
2, 1285280, Pitch_bend_c, 1, 8320
2, 1285440, Pitch_bend_c, 1, 8192
2, 1285600, Pitch_bend_c, 1, 8320
2, 1285760, Pitch_bend_c, 1, 8192
2, 1285920, Pitch_bend_c, 1, 8320
2, 1286080, Pitch_bend_c, 1, 8192
2, 1286240, Pitch_bend_c, 1, 8320
2, 1286400, Pitch_bend_c, 1, 8192
2, 1286560, Pitch_bend_c, 1, 8320
2, 1286720, Pitch_bend_c, 1, 8192
2, 1286880, Pitch_bend_c, 1, 8320
2, 1287040, Pitch_bend_c, 1, 8192
2, 1287200, Pitch_bend_c, 1, 8320
2, 1287360, Pitch_bend_c, 1, 8192
2, 1287520, Pitch_bend_c, 1, 8320
2, 1287680, Pitch_bend_c, 1, 8192
2, 1287840, Pitch_bend_c, 1, 8320
2, 1288000, Pitch_bend_c, 1, 8192
2, 1288160, Pitch_bend_c, 1, 8320
2, 1288320, Pitch_bend_c, 1, 8192
2, 1288480, Pitch_bend_c, 1, 8320
2, 1288640, Pitch_bend_c, 1, 8192
2, 1288800, Pitch_bend_c, 1, 8320
2, 1288800, Pitch_bend_c, 1, 8192
2, 1288800, Note_off_c, 1, 57, 95
2, 1288800, Note_on_c, 0, 57, 95
2, 1289040, Note_off_c, 0, 57, 95
2, 1289040, Note_on_c, 0, 58, 95
2, 1289280, Note_off_c, 0, 58, 95
2, 1289280, Note_on_c, 0, 61, 95
2, 1289520, Note_off_c, 0, 61, 95
2, 1289520, Note_on_c, 0, 62, 95
2, 1289760, Note_off_c, 0, 62, 95
2, 1289760, Note_on_c, 0, 61, 95
2, 1290000, Note_off_c, 0, 61, 95
2, 1290000, Note_on_c, 0, 62, 95
2, 1290240, Note_off_c, 0, 62, 95
2, 1290720, Note_on_c, 0, 64, 95
2, 1294080, Note_off_c, 0, 64, 95
2, 1294080, Note_on_c, 0, 62, 95
2, 1294320, Note_off_c, 0, 62, 95
2, 1294320, Note_on_c, 0, 64, 95
2, 1294560, Note_off_c, 0, 64, 95
2, 1294560, Note_on_c, 0, 65, 95
2, 1295280, Note_off_c, 0, 65, 95
2, 1295280, Note_on_c, 0, 64, 95
2, 1296000, Note_off_c, 0, 64, 95
2, 1296000, Note_on_c, 0, 62, 95
2, 1296720, Note_off_c, 0, 62, 95
2, 1296720, Note_on_c, 1, 61, 95
2, 1297200, Note_off_c, 1, 61, 95
2, 1297200, Note_on_c, 0, 58, 95
2, 1297920, Note_off_c, 0, 58, 95
2, 1297920, Note_on_c, 0, 57, 95
2, 1298400, Note_off_c, 0, 57, 95
2, 1298400, Note_on_c, 0, 57, 95
2, 1298640, Note_off_c, 0, 57, 95
2, 1298640, Note_on_c, 0, 58, 70
2, 1298880, Note_off_c, 0, 58, 70
2, 1298880, Note_on_c, 0, 57, 70
2, 1299120, Note_off_c, 0, 57, 70
2, 1299120, Note_on_c, 0, 55, 95
2, 1299360, Note_off_c, 0, 55, 95
2, 1299360, Note_on_c, 1, 57, 95
2, 1299520, Pitch_bend_c, 1, 8192
2, 1299680, Pitch_bend_c, 1, 8320
2, 1299840, Pitch_bend_c, 1, 8192
2, 1300000, Pitch_bend_c, 1, 8320
2, 1300160, Pitch_bend_c, 1, 8192
2, 1300320, Pitch_bend_c, 1, 8320
2, 1300480, Pitch_bend_c, 1, 8192
2, 1300640, Pitch_bend_c, 1, 8320
2, 1300800, Pitch_bend_c, 1, 8192
2, 1300960, Pitch_bend_c, 1, 8320
2, 1301120, Pitch_bend_c, 1, 8192
2, 1301280, Pitch_bend_c, 1, 8320
2, 1301440, Pitch_bend_c, 1, 8192
2, 1301600, Pitch_bend_c, 1, 8320
2, 1301760, Pitch_bend_c, 1, 8192
2, 1301920, Pitch_bend_c, 1, 8320
2, 1302080, Pitch_bend_c, 1, 8192
2, 1302240, Pitch_bend_c, 1, 8320
2, 1302240, Pitch_bend_c, 1, 8192
2, 1302240, Note_off_c, 1, 57, 95
2, 1303680, Note_on_c, 0, 55, 95
2, 1303920, Note_off_c, 0, 55, 95
2, 1303920, Note_on_c, 0, 53, 95
2, 1304160, Note_off_c, 0, 53, 95
2, 1304160, Note_on_c, 0, 52, 95
2, 1305600, Note_off_c, 0, 52, 95
2, 1305600, Note_on_c, 0, 50, 95
2, 1306080, Note_off_c, 0, 50, 95
2, 1306080, Note_on_c, 1, 49, 95
2, 1306200, Pitch_bend_c, 1, 8064
2, 1306320, Pitch_bend_c, 1, 7936
2, 1306440, Pitch_bend_c, 1, 7680
2, 1306560, Pitch_bend_c, 1, 7552
2, 1306680, Pitch_bend_c, 1, 7424
2, 1306800, Pitch_bend_c, 1, 7168
2, 1306920, Pitch_bend_c, 1, 7040
2, 1307040, Pitch_bend_c, 1, 6784
2, 1307160, Pitch_bend_c, 1, 6656
2, 1307280, Pitch_bend_c, 1, 6528
2, 1307400, Pitch_bend_c, 1, 6272
2, 1307520, Pitch_bend_c, 1, 6144
2, 1307640, Pitch_bend_c, 1, 6016
2, 1307760, Pitch_bend_c, 1, 5760
2, 1307880, Pitch_bend_c, 1, 5632
2, 1308000, Pitch_bend_c, 1, 5376
2, 1308000, Pitch_bend_c, 1, 8192
2, 1308000, Note_off_c, 1, 49, 95
2, 1308000, Note_on_c, 1, 45, 95
2, 1308120, Pitch_bend_c, 1, 8192
2, 1308240, Pitch_bend_c, 1, 8192
2, 1308360, Pitch_bend_c, 1, 8192
2, 1308480, Pitch_bend_c, 1, 8192
2, 1308600, Pitch_bend_c, 1, 8192
2, 1308720, Pitch_bend_c, 1, 8192
2, 1308840, Pitch_bend_c, 1, 8192
2, 1308960, Pitch_bend_c, 1, 8192
2, 1309080, Pitch_bend_c, 1, 8192
2, 1309200, Pitch_bend_c, 1, 8192
2, 1309320, Pitch_bend_c, 1, 8192
2, 1309440, Pitch_bend_c, 1, 8192
2, 1309560, Pitch_bend_c, 1, 8192
2, 1309680, Pitch_bend_c, 1, 8192
2, 1309800, Pitch_bend_c, 1, 8192
2, 1309920, Pitch_bend_c, 1, 8192
2, 1309920, Pitch_bend_c, 1, 8192
2, 1309920, Note_off_c, 1, 45, 95
2, 1309920, Note_on_c, 1, 52, 31
2, 1309920, Note_on_c, 1, 64, 95
2, 1310080, Pitch_bend_c, 1, 8192
2, 1310240, Pitch_bend_c, 1, 8320
2, 1310400, Pitch_bend_c, 1, 8192
2, 1310560, Pitch_bend_c, 1, 8320
2, 1310720, Pitch_bend_c, 1, 8192
2, 1310880, Pitch_bend_c, 1, 8320
2, 1311040, Pitch_bend_c, 1, 8192
2, 1311200, Pitch_bend_c, 1, 8320
2, 1311360, Pitch_bend_c, 1, 8192
2, 1311520, Pitch_bend_c, 1, 8320
2, 1311680, Pitch_bend_c, 1, 8192
2, 1311840, Pitch_bend_c, 1, 8320
2, 1312000, Pitch_bend_c, 1, 8192
2, 1312160, Pitch_bend_c, 1, 8320
2, 1312320, Pitch_bend_c, 1, 8192
2, 1312480, Pitch_bend_c, 1, 8320
2, 1312640, Pitch_bend_c, 1, 8192
2, 1312800, Pitch_bend_c, 1, 8320
2, 1312960, Pitch_bend_c, 1, 8192
2, 1313120, Pitch_bend_c, 1, 8320
2, 1313280, Pitch_bend_c, 1, 8192
2, 1313440, Pitch_bend_c, 1, 8320
2, 1313600, Pitch_bend_c, 1, 8192
2, 1313760, Pitch_bend_c, 1, 8320
2, 1313760, Pitch_bend_c, 1, 8192
2, 1313760, Note_off_c, 1, 52, 31
2, 1313760, Note_off_c, 1, 64, 95
2, 1313760, Note_on_c, 0, 64, 95
2, 1314000, Note_off_c, 0, 64, 95
2, 1314000, Note_on_c, 0, 65, 95
2, 1314240, Note_off_c, 0, 65, 95
2, 1314240, Note_on_c, 0, 64, 95
2, 1314480, Note_off_c, 0, 64, 95
2, 1314480, Note_on_c, 0, 62, 95
2, 1314720, Note_off_c, 0, 62, 95
2, 1314720, Note_on_c, 0, 64, 95
2, 1317120, Note_off_c, 0, 64, 95
2, 1317120, Note_on_c, 1, 69, 95
2, 1317240, Pitch_bend_c, 1, 8192
2, 1317360, Pitch_bend_c, 1, 8192
2, 1317480, Pitch_bend_c, 1, 8192
2, 1317600, Pitch_bend_c, 1, 8192
2, 1317600, Pitch_bend_c, 1, 8192
2, 1319040, Note_off_c, 1, 69, 95
2, 1319040, Note_on_c, 0, 69, 95
2, 1319280, Note_off_c, 0, 69, 95
2, 1319280, Note_on_c, 0, 70, 95
2, 1319520, Note_off_c, 0, 70, 95
2, 1319520, Note_on_c, 0, 73, 95
2, 1320240, Note_off_c, 0, 73, 95
2, 1320240, Note_on_c, 0, 70, 95
2, 1320960, Note_off_c, 0, 70, 95
2, 1320960, Note_on_c, 1, 69, 95
2, 1321080, Pitch_bend_c, 1, 7936
2, 1321200, Pitch_bend_c, 1, 7552
2, 1321320, Pitch_bend_c, 1, 7168
2, 1321440, Pitch_bend_c, 1, 6784
2, 1321440, Pitch_bend_c, 1, 8192
2, 1321440, Note_off_c, 1, 69, 95
2, 1321440, Note_on_c, 1, 67, 95
2, 1321560, Pitch_bend_c, 1, 8192
2, 1321680, Pitch_bend_c, 1, 8192
2, 1321800, Pitch_bend_c, 1, 8192
2, 1321920, Pitch_bend_c, 1, 8192
2, 1322040, Pitch_bend_c, 1, 8192
2, 1322160, Pitch_bend_c, 1, 8192
2, 1322280, Pitch_bend_c, 1, 8192
2, 1322400, Pitch_bend_c, 1, 8192
2, 1322520, Pitch_bend_c, 1, 8192
2, 1322640, Pitch_bend_c, 1, 8192
2, 1322760, Pitch_bend_c, 1, 8192
2, 1322880, Pitch_bend_c, 1, 8192
2, 1323000, Pitch_bend_c, 1, 8192
2, 1323120, Pitch_bend_c, 1, 8192
2, 1323240, Pitch_bend_c, 1, 8192
2, 1323360, Pitch_bend_c, 1, 8192
2, 1323360, Pitch_bend_c, 1, 8192
2, 1323840, Note_off_c, 1, 67, 95
2, 1323840, Note_on_c, 0, 64, 95
2, 1324320, Note_off_c, 0, 64, 95
2, 1324320, Note_on_c, 0, 65, 95
2, 1324800, Note_off_c, 0, 65, 95
2, 1324800, Note_on_c, 0, 67, 95
2, 1325280, Note_off_c, 0, 67, 95
2, 1325280, Note_on_c, 1, 69, 95
2, 1325400, Pitch_bend_c, 1, 8064
2, 1325520, Pitch_bend_c, 1, 7808
2, 1325640, Pitch_bend_c, 1, 7552
2, 1325760, Pitch_bend_c, 1, 7296
2, 1325880, Pitch_bend_c, 1, 7040
2, 1326000, Pitch_bend_c, 1, 6784
2, 1326000, Pitch_bend_c, 1, 8192
2, 1326000, Note_off_c, 1, 69, 95
2, 1326000, Note_on_c, 0, 67, 95
2, 1326720, Note_off_c, 0, 67, 95
2, 1326720, Note_on_c, 0, 65, 95
2, 1327200, Note_off_c, 0, 65, 95
2, 1327200, Note_on_c, 1, 64, 95
2, 1327320, Pitch_bend_c, 1, 8064
2, 1327440, Pitch_bend_c, 1, 7808
2, 1327560, Pitch_bend_c, 1, 7552
2, 1327680, Pitch_bend_c, 1, 7296
2, 1327800, Pitch_bend_c, 1, 7040
2, 1327920, Pitch_bend_c, 1, 6784
2, 1327920, Pitch_bend_c, 1, 8192
2, 1327920, Note_off_c, 1, 64, 95
2, 1327920, Note_on_c, 0, 62, 95
2, 1328640, Note_off_c, 0, 62, 95
2, 1328640, Note_on_c, 0, 61, 95
2, 1329120, Note_off_c, 0, 61, 95
2, 1329120, Note_on_c, 1, 61, 95
2, 1329280, Pitch_bend_c, 1, 8192
2, 1329440, Pitch_bend_c, 1, 8320
2, 1329600, Pitch_bend_c, 1, 8192
2, 1329760, Pitch_bend_c, 1, 8320
2, 1329920, Pitch_bend_c, 1, 8192
2, 1330080, Pitch_bend_c, 1, 8320
2, 1330240, Pitch_bend_c, 1, 8192
2, 1330400, Pitch_bend_c, 1, 8320
2, 1330560, Pitch_bend_c, 1, 8192
2, 1330720, Pitch_bend_c, 1, 8320
2, 1330880, Pitch_bend_c, 1, 8192
2, 1331040, Pitch_bend_c, 1, 8320
2, 1331200, Pitch_bend_c, 1, 8192
2, 1331360, Pitch_bend_c, 1, 8320
2, 1331520, Pitch_bend_c, 1, 8192
2, 1331680, Pitch_bend_c, 1, 8320
2, 1331840, Pitch_bend_c, 1, 8192
2, 1332000, Pitch_bend_c, 1, 8320
2, 1332000, Pitch_bend_c, 1, 8192
2, 1332000, Note_off_c, 1, 61, 95
2, 1332000, Note_on_c, 0, 64, 95
2, 1332240, Note_off_c, 0, 64, 95
2, 1332240, Note_on_c, 0, 65, 95
2, 1332480, Note_off_c, 0, 65, 95
2, 1332480, Note_on_c, 0, 64, 95
2, 1332720, Note_off_c, 0, 64, 95
2, 1332720, Note_on_c, 0, 62, 95
2, 1332960, Note_off_c, 0, 62, 95
2, 1332960, Note_on_c, 0, 61, 95
2, 1333200, Note_off_c, 0, 61, 95
2, 1333200, Note_on_c, 0, 64, 95
2, 1333440, Note_off_c, 0, 64, 95
2, 1333440, Note_on_c, 0, 62, 95
2, 1333680, Note_off_c, 0, 62, 95
2, 1333680, Note_on_c, 0, 61, 95
2, 1333920, Note_off_c, 0, 61, 95
2, 1333920, Note_on_c, 0, 58, 95
2, 1334160, Note_off_c, 0, 58, 95
2, 1334160, Note_on_c, 0, 62, 95
2, 1334400, Note_off_c, 0, 62, 95
2, 1334400, Note_on_c, 0, 58, 95
2, 1334640, Note_off_c, 0, 58, 95
2, 1334640, Note_on_c, 0, 57, 95
2, 1334880, Note_off_c, 0, 57, 95
2, 1334880, Note_on_c, 0, 55, 95
2, 1335120, Note_off_c, 0, 55, 95
2, 1335120, Note_on_c, 0, 53, 95
2, 1335360, Note_off_c, 0, 53, 95
2, 1335360, Note_on_c, 0, 52, 95
2, 1335600, Note_off_c, 0, 52, 95
2, 1335600, Note_on_c, 0, 50, 95
2, 1335840, Note_off_c, 0, 50, 95
2, 1335840, Note_on_c, 0, 49, 95
2, 1336080, Note_off_c, 0, 49, 95
2, 1336080, Note_on_c, 0, 55, 95
2, 1336320, Note_off_c, 0, 55, 95
2, 1336320, Note_on_c, 0, 57, 95
2, 1336560, Note_off_c, 0, 57, 95
2, 1336560, Note_on_c, 0, 58, 95
2, 1336800, Note_off_c, 0, 58, 95
2, 1336800, Note_on_c, 0, 61, 95
2, 1337040, Note_off_c, 0, 61, 95
2, 1337040, Note_on_c, 0, 62, 95
2, 1337280, Note_off_c, 0, 62, 95
2, 1337280, Note_on_c, 0, 64, 95
2, 1337520, Note_off_c, 0, 64, 95
2, 1337520, Note_on_c, 0, 67, 95
2, 1337760, Note_off_c, 0, 67, 95
2, 1337760, Note_on_c, 0, 70, 95
2, 1338000, Note_off_c, 0, 70, 95
2, 1338000, Note_on_c, 0, 67, 95
2, 1338240, Note_off_c, 0, 67, 95
2, 1338240, Note_on_c, 0, 69, 95
2, 1340160, Note_off_c, 0, 69, 95
2, 1340160, Note_on_c, 0, 73, 95
2, 1340520, Note_off_c, 0, 73, 95
2, 1340520, Note_on_c, 0, 74, 95
2, 1340880, Note_off_c, 0, 74, 95
2, 1340880, Note_on_c, 0, 76, 95
2, 1341240, Note_off_c, 0, 76, 95
2, 1341240, Note_on_c, 0, 77, 95
2, 1341600, Note_off_c, 0, 77, 95
2, 1341600, Note_on_c, 0, 79, 95
2, 1341960, Note_off_c, 0, 79, 95
2, 1341960, Note_on_c, 0, 82, 95
2, 1342320, Note_off_c, 0, 82, 95
2, 1342320, Note_on_c, 0, 81, 95
2, 1342680, Note_off_c, 0, 81, 95
2, 1342680, Note_on_c, 0, 79, 95
2, 1343640, Note_off_c, 0, 79, 95
2, 1344480, Note_on_c, 1, 76, 95
2, 1344600, Pitch_bend_c, 1, 8192
2, 1344720, Pitch_bend_c, 1, 8192
2, 1344840, Pitch_bend_c, 1, 8192
2, 1344960, Pitch_bend_c, 1, 8192
2, 1345080, Pitch_bend_c, 1, 8192
2, 1345200, Pitch_bend_c, 1, 8192
2, 1345320, Pitch_bend_c, 1, 8192
2, 1345440, Pitch_bend_c, 1, 8192
2, 1345440, Pitch_bend_c, 1, 8192
2, 1345440, Note_off_c, 1, 76, 95
2, 1345440, Note_on_c, 1, 76, 95
2, 1345600, Pitch_bend_c, 1, 8192
2, 1345760, Pitch_bend_c, 1, 8320
2, 1345920, Pitch_bend_c, 1, 8192
2, 1345920, Pitch_bend_c, 1, 8320
2, 1345920, Pitch_bend_c, 1, 8192
2, 1345920, Note_off_c, 1, 76, 95
2, 1345920, Note_on_c, 0, 76, 95
2, 1346160, Note_off_c, 0, 76, 95
2, 1346160, Note_on_c, 0, 77, 95
2, 1346400, Note_off_c, 0, 77, 95
2, 1346400, Note_on_c, 0, 74, 95
2, 1346640, Note_off_c, 0, 74, 95
2, 1346640, Note_on_c, 0, 76, 95
2, 1347360, Note_off_c, 0, 76, 95
2, 1347360, Pitch_bend_c, 1, 8192
2, 1347360, Note_on_c, 1, 76, 95
2, 1347425, Pitch_bend_c, 1, 8064
2, 1347490, Pitch_bend_c, 1, 7936
2, 1347555, Pitch_bend_c, 1, 7808
2, 1347620, Pitch_bend_c, 1, 7680
2, 1347685, Pitch_bend_c, 1, 7552
2, 1347750, Pitch_bend_c, 1, 7424
2, 1347815, Pitch_bend_c, 1, 7296
2, 1347880, Pitch_bend_c, 1, 7168
2, 1347945, Pitch_bend_c, 1, 7040
2, 1348010, Pitch_bend_c, 1, 6912
2, 1348075, Pitch_bend_c, 1, 6784
2, 1348080, Pitch_bend_c, 1, 6784
2, 1348145, Pitch_bend_c, 1, 6912
2, 1348210, Pitch_bend_c, 1, 7040
2, 1348275, Pitch_bend_c, 1, 7168
2, 1348340, Pitch_bend_c, 1, 7296
2, 1348405, Pitch_bend_c, 1, 7424
2, 1348470, Pitch_bend_c, 1, 7552
2, 1348535, Pitch_bend_c, 1, 7680
2, 1348600, Pitch_bend_c, 1, 7808
2, 1348665, Pitch_bend_c, 1, 7936
2, 1348730, Pitch_bend_c, 1, 8064
2, 1348795, Pitch_bend_c, 1, 8192
2, 1348800, Pitch_bend_c, 1, 8192
2, 1348800, Pitch_bend_c, 1, 8192
2, 1348800, Note_off_c, 1, 76, 95
2, 1348800, Note_on_c, 1, 76, 95
2, 1348960, Pitch_bend_c, 1, 8192
2, 1349120, Pitch_bend_c, 1, 8320
2, 1349280, Pitch_bend_c, 1, 8192
2, 1349280, Pitch_bend_c, 1, 8320
2, 1349280, Pitch_bend_c, 1, 8192
2, 1349280, Note_off_c, 1, 76, 95
2, 1349280, Note_on_c, 1, 76, 95
2, 1349400, Pitch_bend_c, 1, 8704
2, 1349520, Pitch_bend_c, 1, 9216
2, 1349640, Pitch_bend_c, 1, 9728
2, 1349760, Pitch_bend_c, 1, 10240
2, 1349760, Pitch_bend_c, 1, 8192
2, 1349760, Note_off_c, 1, 76, 95
2, 1349760, Pitch_bend_c, 1, 8192
2, 1349760, Note_on_c, 1, 79, 95
2, 1349792, Pitch_bend_c, 1, 8064
2, 1349824, Pitch_bend_c, 1, 7936
2, 1349856, Pitch_bend_c, 1, 7808
2, 1349888, Pitch_bend_c, 1, 7680
2, 1349920, Pitch_bend_c, 1, 7552
2, 1349920, Pitch_bend_c, 1, 7552
2, 1349936, Pitch_bend_c, 1, 7680
2, 1349952, Pitch_bend_c, 1, 7808
2, 1349968, Pitch_bend_c, 1, 7936
2, 1349984, Pitch_bend_c, 1, 8064
2, 1350000, Pitch_bend_c, 1, 8192
2, 1350000, Pitch_bend_c, 1, 8192
2, 1350016, Pitch_bend_c, 1, 8064
2, 1350032, Pitch_bend_c, 1, 7936
2, 1350048, Pitch_bend_c, 1, 7808
2, 1350064, Pitch_bend_c, 1, 7680
2, 1350080, Pitch_bend_c, 1, 7552
2, 1350080, Pitch_bend_c, 1, 7552
2, 1350096, Pitch_bend_c, 1, 7680
2, 1350112, Pitch_bend_c, 1, 7808
2, 1350128, Pitch_bend_c, 1, 7936
2, 1350144, Pitch_bend_c, 1, 8064
2, 1350160, Pitch_bend_c, 1, 8192
2, 1350160, Pitch_bend_c, 1, 8192
2, 1350176, Pitch_bend_c, 1, 8064
2, 1350192, Pitch_bend_c, 1, 7936
2, 1350208, Pitch_bend_c, 1, 7808
2, 1350224, Pitch_bend_c, 1, 7680
2, 1350240, Pitch_bend_c, 1, 7552
2, 1350240, Pitch_bend_c, 1, 7552
2, 1350256, Pitch_bend_c, 1, 7680
2, 1350272, Pitch_bend_c, 1, 7808
2, 1350288, Pitch_bend_c, 1, 7936
2, 1350304, Pitch_bend_c, 1, 8064
2, 1350320, Pitch_bend_c, 1, 8192
2, 1350320, Pitch_bend_c, 1, 8192
2, 1350336, Pitch_bend_c, 1, 8064
2, 1350352, Pitch_bend_c, 1, 7936
2, 1350368, Pitch_bend_c, 1, 7808
2, 1350384, Pitch_bend_c, 1, 7680
2, 1350400, Pitch_bend_c, 1, 7552
2, 1350400, Pitch_bend_c, 1, 7552
2, 1350416, Pitch_bend_c, 1, 7680
2, 1350432, Pitch_bend_c, 1, 7808
2, 1350448, Pitch_bend_c, 1, 7936
2, 1350464, Pitch_bend_c, 1, 8064
2, 1350480, Pitch_bend_c, 1, 8192
2, 1350480, Pitch_bend_c, 1, 8192
2, 1350496, Pitch_bend_c, 1, 8064
2, 1350512, Pitch_bend_c, 1, 7936
2, 1350528, Pitch_bend_c, 1, 7808
2, 1350544, Pitch_bend_c, 1, 7680
2, 1350560, Pitch_bend_c, 1, 7552
2, 1350560, Pitch_bend_c, 1, 7552
2, 1350592, Pitch_bend_c, 1, 7680
2, 1350624, Pitch_bend_c, 1, 7808
2, 1350656, Pitch_bend_c, 1, 7936
2, 1350688, Pitch_bend_c, 1, 8064
2, 1350720, Pitch_bend_c, 1, 8192
2, 1350720, Pitch_bend_c, 1, 8192
2, 1350720, Pitch_bend_c, 1, 8192
2, 1350720, Note_off_c, 1, 79, 95
2, 1350720, Pitch_bend_c, 1, 8192
2, 1350720, Note_on_c, 1, 75, 95
2, 1350741, Pitch_bend_c, 1, 8064
2, 1350762, Pitch_bend_c, 1, 7936
2, 1350783, Pitch_bend_c, 1, 7808
2, 1350804, Pitch_bend_c, 1, 7680
2, 1350825, Pitch_bend_c, 1, 7552
2, 1350846, Pitch_bend_c, 1, 7424
2, 1350867, Pitch_bend_c, 1, 7296
2, 1350888, Pitch_bend_c, 1, 7168
2, 1350909, Pitch_bend_c, 1, 7040
2, 1350930, Pitch_bend_c, 1, 6912
2, 1350951, Pitch_bend_c, 1, 6784
2, 1350960, Pitch_bend_c, 1, 6784
2, 1350970, Pitch_bend_c, 1, 6912
2, 1350980, Pitch_bend_c, 1, 7040
2, 1350990, Pitch_bend_c, 1, 7168
2, 1351000, Pitch_bend_c, 1, 7296
2, 1351010, Pitch_bend_c, 1, 7424
2, 1351020, Pitch_bend_c, 1, 7552
2, 1351030, Pitch_bend_c, 1, 7680
2, 1351040, Pitch_bend_c, 1, 7808
2, 1351050, Pitch_bend_c, 1, 7936
2, 1351060, Pitch_bend_c, 1, 8064
2, 1351070, Pitch_bend_c, 1, 8192
2, 1351080, Pitch_bend_c, 1, 8192
2, 1351080, Pitch_bend_c, 1, 8064
2, 1351080, Pitch_bend_c, 1, 7936
2, 1351080, Pitch_bend_c, 1, 7808
2, 1351080, Pitch_bend_c, 1, 7680
2, 1351080, Pitch_bend_c, 1, 7552
2, 1351080, Pitch_bend_c, 1, 7424
2, 1351080, Pitch_bend_c, 1, 7296
2, 1351080, Pitch_bend_c, 1, 7168
2, 1351080, Pitch_bend_c, 1, 7040
2, 1351080, Pitch_bend_c, 1, 6912
2, 1351080, Pitch_bend_c, 1, 6784
2, 1351080, Pitch_bend_c, 1, 6784
2, 1351090, Pitch_bend_c, 1, 6912
2, 1351100, Pitch_bend_c, 1, 7040
2, 1351110, Pitch_bend_c, 1, 7168
2, 1351120, Pitch_bend_c, 1, 7296
2, 1351130, Pitch_bend_c, 1, 7424
2, 1351140, Pitch_bend_c, 1, 7552
2, 1351150, Pitch_bend_c, 1, 7680
2, 1351160, Pitch_bend_c, 1, 7808
2, 1351170, Pitch_bend_c, 1, 7936
2, 1351180, Pitch_bend_c, 1, 8064
2, 1351190, Pitch_bend_c, 1, 8192
2, 1351200, Pitch_bend_c, 1, 8192
2, 1351210, Pitch_bend_c, 1, 8064
2, 1351220, Pitch_bend_c, 1, 7936
2, 1351230, Pitch_bend_c, 1, 7808
2, 1351240, Pitch_bend_c, 1, 7680
2, 1351250, Pitch_bend_c, 1, 7552
2, 1351260, Pitch_bend_c, 1, 7424
2, 1351270, Pitch_bend_c, 1, 7296
2, 1351280, Pitch_bend_c, 1, 7168
2, 1351290, Pitch_bend_c, 1, 7040
2, 1351300, Pitch_bend_c, 1, 6912
2, 1351310, Pitch_bend_c, 1, 6784
2, 1351320, Pitch_bend_c, 1, 6784
2, 1351330, Pitch_bend_c, 1, 6912
2, 1351340, Pitch_bend_c, 1, 7040
2, 1351350, Pitch_bend_c, 1, 7168
2, 1351360, Pitch_bend_c, 1, 7296
2, 1351370, Pitch_bend_c, 1, 7424
2, 1351380, Pitch_bend_c, 1, 7552
2, 1351390, Pitch_bend_c, 1, 7680
2, 1351400, Pitch_bend_c, 1, 7808
2, 1351410, Pitch_bend_c, 1, 7936
2, 1351420, Pitch_bend_c, 1, 8064
2, 1351430, Pitch_bend_c, 1, 8192
2, 1351440, Pitch_bend_c, 1, 8192
2, 1351450, Pitch_bend_c, 1, 8064
2, 1351460, Pitch_bend_c, 1, 7936
2, 1351470, Pitch_bend_c, 1, 7808
2, 1351480, Pitch_bend_c, 1, 7680
2, 1351490, Pitch_bend_c, 1, 7552
2, 1351500, Pitch_bend_c, 1, 7424
2, 1351510, Pitch_bend_c, 1, 7296
2, 1351520, Pitch_bend_c, 1, 7168
2, 1351530, Pitch_bend_c, 1, 7040
2, 1351540, Pitch_bend_c, 1, 6912
2, 1351550, Pitch_bend_c, 1, 6784
2, 1351560, Pitch_bend_c, 1, 6784
2, 1351570, Pitch_bend_c, 1, 6912
2, 1351580, Pitch_bend_c, 1, 7040
2, 1351590, Pitch_bend_c, 1, 7168
2, 1351600, Pitch_bend_c, 1, 7296
2, 1351610, Pitch_bend_c, 1, 7424
2, 1351620, Pitch_bend_c, 1, 7552
2, 1351630, Pitch_bend_c, 1, 7680
2, 1351640, Pitch_bend_c, 1, 7808
2, 1351650, Pitch_bend_c, 1, 7936
2, 1351660, Pitch_bend_c, 1, 8064
2, 1351670, Pitch_bend_c, 1, 8192
2, 1351680, Pitch_bend_c, 1, 8192
2, 1351690, Pitch_bend_c, 1, 8064
2, 1351700, Pitch_bend_c, 1, 7936
2, 1351710, Pitch_bend_c, 1, 7808
2, 1351720, Pitch_bend_c, 1, 7680
2, 1351730, Pitch_bend_c, 1, 7552
2, 1351740, Pitch_bend_c, 1, 7424
2, 1351750, Pitch_bend_c, 1, 7296
2, 1351760, Pitch_bend_c, 1, 7168
2, 1351770, Pitch_bend_c, 1, 7040
2, 1351780, Pitch_bend_c, 1, 6912
2, 1351790, Pitch_bend_c, 1, 6784
2, 1351800, Pitch_bend_c, 1, 6784
2, 1351810, Pitch_bend_c, 1, 6912
2, 1351820, Pitch_bend_c, 1, 7040
2, 1351830, Pitch_bend_c, 1, 7168
2, 1351840, Pitch_bend_c, 1, 7296
2, 1351850, Pitch_bend_c, 1, 7424
2, 1351860, Pitch_bend_c, 1, 7552
2, 1351870, Pitch_bend_c, 1, 7680
2, 1351880, Pitch_bend_c, 1, 7808
2, 1351890, Pitch_bend_c, 1, 7936
2, 1351900, Pitch_bend_c, 1, 8064
2, 1351910, Pitch_bend_c, 1, 8192
2, 1351920, Pitch_bend_c, 1, 8192
2, 1352160, Pitch_bend_c, 1, 8192
2, 1352160, Pitch_bend_c, 1, 8192
2, 1352160, Note_off_c, 1, 75, 95
2, 1352160, Pitch_bend_c, 1, 8192
2, 1352160, Note_on_c, 1, 76, 95
2, 1352170, Pitch_bend_c, 1, 8064
2, 1352180, Pitch_bend_c, 1, 7936
2, 1352190, Pitch_bend_c, 1, 7808
2, 1352200, Pitch_bend_c, 1, 7680
2, 1352210, Pitch_bend_c, 1, 7552
2, 1352220, Pitch_bend_c, 1, 7424
2, 1352230, Pitch_bend_c, 1, 7296
2, 1352240, Pitch_bend_c, 1, 7168
2, 1352250, Pitch_bend_c, 1, 7040
2, 1352260, Pitch_bend_c, 1, 6912
2, 1352270, Pitch_bend_c, 1, 6784
2, 1352280, Pitch_bend_c, 1, 6656
2, 1352290, Pitch_bend_c, 1, 6528
2, 1352300, Pitch_bend_c, 1, 6400
2, 1352310, Pitch_bend_c, 1, 6272
2, 1352320, Pitch_bend_c, 1, 6144
2, 1352320, Pitch_bend_c, 1, 6144
2, 1352330, Pitch_bend_c, 1, 6272
2, 1352340, Pitch_bend_c, 1, 6400
2, 1352350, Pitch_bend_c, 1, 6528
2, 1352360, Pitch_bend_c, 1, 6656
2, 1352370, Pitch_bend_c, 1, 6784
2, 1352380, Pitch_bend_c, 1, 6912
2, 1352390, Pitch_bend_c, 1, 7040
2, 1352400, Pitch_bend_c, 1, 7168
2, 1352410, Pitch_bend_c, 1, 7296
2, 1352420, Pitch_bend_c, 1, 7424
2, 1352430, Pitch_bend_c, 1, 7552
2, 1352440, Pitch_bend_c, 1, 7680
2, 1352450, Pitch_bend_c, 1, 7808
2, 1352460, Pitch_bend_c, 1, 7936
2, 1352470, Pitch_bend_c, 1, 8064
2, 1352480, Pitch_bend_c, 1, 8192
2, 1352480, Pitch_bend_c, 1, 8192
2, 1352490, Pitch_bend_c, 1, 8064
2, 1352500, Pitch_bend_c, 1, 7936
2, 1352510, Pitch_bend_c, 1, 7808
2, 1352520, Pitch_bend_c, 1, 7680
2, 1352530, Pitch_bend_c, 1, 7552
2, 1352540, Pitch_bend_c, 1, 7424
2, 1352550, Pitch_bend_c, 1, 7296
2, 1352560, Pitch_bend_c, 1, 7168
2, 1352570, Pitch_bend_c, 1, 7040
2, 1352580, Pitch_bend_c, 1, 6912
2, 1352590, Pitch_bend_c, 1, 6784
2, 1352600, Pitch_bend_c, 1, 6656
2, 1352610, Pitch_bend_c, 1, 6528
2, 1352620, Pitch_bend_c, 1, 6400
2, 1352630, Pitch_bend_c, 1, 6272
2, 1352640, Pitch_bend_c, 1, 6144
2, 1352640, Pitch_bend_c, 1, 6144
2, 1352660, Pitch_bend_c, 1, 6272
2, 1352680, Pitch_bend_c, 1, 6400
2, 1352700, Pitch_bend_c, 1, 6528
2, 1352720, Pitch_bend_c, 1, 6656
2, 1352740, Pitch_bend_c, 1, 6784
2, 1352760, Pitch_bend_c, 1, 6912
2, 1352780, Pitch_bend_c, 1, 7040
2, 1352800, Pitch_bend_c, 1, 7168
2, 1352820, Pitch_bend_c, 1, 7296
2, 1352840, Pitch_bend_c, 1, 7424
2, 1352860, Pitch_bend_c, 1, 7552
2, 1352880, Pitch_bend_c, 1, 7680
2, 1352900, Pitch_bend_c, 1, 7808
2, 1352920, Pitch_bend_c, 1, 7936
2, 1352940, Pitch_bend_c, 1, 8064
2, 1352960, Pitch_bend_c, 1, 8192
2, 1352960, Pitch_bend_c, 1, 8192
2, 1352960, Pitch_bend_c, 1, 8064
2, 1352960, Pitch_bend_c, 1, 7936
2, 1352960, Pitch_bend_c, 1, 7808
2, 1352960, Pitch_bend_c, 1, 7680
2, 1352960, Pitch_bend_c, 1, 7552
2, 1352960, Pitch_bend_c, 1, 7424
2, 1352960, Pitch_bend_c, 1, 7296
2, 1352960, Pitch_bend_c, 1, 7168
2, 1352960, Pitch_bend_c, 1, 7040
2, 1352960, Pitch_bend_c, 1, 6912
2, 1352960, Pitch_bend_c, 1, 6784
2, 1352960, Pitch_bend_c, 1, 6656
2, 1352960, Pitch_bend_c, 1, 6528
2, 1352960, Pitch_bend_c, 1, 6400
2, 1352960, Pitch_bend_c, 1, 6272
2, 1352960, Pitch_bend_c, 1, 6144
2, 1352960, Pitch_bend_c, 1, 6144
2, 1352970, Pitch_bend_c, 1, 6272
2, 1352980, Pitch_bend_c, 1, 6400
2, 1352990, Pitch_bend_c, 1, 6528
2, 1353000, Pitch_bend_c, 1, 6656
2, 1353010, Pitch_bend_c, 1, 6784
2, 1353020, Pitch_bend_c, 1, 6912
2, 1353030, Pitch_bend_c, 1, 7040
2, 1353040, Pitch_bend_c, 1, 7168
2, 1353050, Pitch_bend_c, 1, 7296
2, 1353060, Pitch_bend_c, 1, 7424
2, 1353070, Pitch_bend_c, 1, 7552
2, 1353080, Pitch_bend_c, 1, 7680
2, 1353090, Pitch_bend_c, 1, 7808
2, 1353100, Pitch_bend_c, 1, 7936
2, 1353110, Pitch_bend_c, 1, 8064
2, 1353120, Pitch_bend_c, 1, 8192
2, 1353120, Pitch_bend_c, 1, 8192
2, 1353130, Pitch_bend_c, 1, 8064
2, 1353140, Pitch_bend_c, 1, 7936
2, 1353150, Pitch_bend_c, 1, 7808
2, 1353160, Pitch_bend_c, 1, 7680
2, 1353170, Pitch_bend_c, 1, 7552
2, 1353180, Pitch_bend_c, 1, 7424
2, 1353190, Pitch_bend_c, 1, 7296
2, 1353200, Pitch_bend_c, 1, 7168
2, 1353210, Pitch_bend_c, 1, 7040
2, 1353220, Pitch_bend_c, 1, 6912
2, 1353230, Pitch_bend_c, 1, 6784
2, 1353240, Pitch_bend_c, 1, 6656
2, 1353250, Pitch_bend_c, 1, 6528
2, 1353260, Pitch_bend_c, 1, 6400
2, 1353270, Pitch_bend_c, 1, 6272
2, 1353280, Pitch_bend_c, 1, 6144
2, 1353280, Pitch_bend_c, 1, 6144
2, 1353290, Pitch_bend_c, 1, 6272
2, 1353300, Pitch_bend_c, 1, 6400
2, 1353310, Pitch_bend_c, 1, 6528
2, 1353320, Pitch_bend_c, 1, 6656
2, 1353330, Pitch_bend_c, 1, 6784
2, 1353340, Pitch_bend_c, 1, 6912
2, 1353350, Pitch_bend_c, 1, 7040
2, 1353360, Pitch_bend_c, 1, 7168
2, 1353370, Pitch_bend_c, 1, 7296
2, 1353380, Pitch_bend_c, 1, 7424
2, 1353390, Pitch_bend_c, 1, 7552
2, 1353400, Pitch_bend_c, 1, 7680
2, 1353410, Pitch_bend_c, 1, 7808
2, 1353420, Pitch_bend_c, 1, 7936
2, 1353430, Pitch_bend_c, 1, 8064
2, 1353440, Pitch_bend_c, 1, 8192
2, 1353440, Pitch_bend_c, 1, 8192
2, 1353450, Pitch_bend_c, 1, 8064
2, 1353460, Pitch_bend_c, 1, 7936
2, 1353470, Pitch_bend_c, 1, 7808
2, 1353480, Pitch_bend_c, 1, 7680
2, 1353490, Pitch_bend_c, 1, 7552
2, 1353500, Pitch_bend_c, 1, 7424
2, 1353510, Pitch_bend_c, 1, 7296
2, 1353520, Pitch_bend_c, 1, 7168
2, 1353530, Pitch_bend_c, 1, 7040
2, 1353540, Pitch_bend_c, 1, 6912
2, 1353550, Pitch_bend_c, 1, 6784
2, 1353560, Pitch_bend_c, 1, 6656
2, 1353570, Pitch_bend_c, 1, 6528
2, 1353580, Pitch_bend_c, 1, 6400
2, 1353590, Pitch_bend_c, 1, 6272
2, 1353600, Pitch_bend_c, 1, 6144
2, 1353600, Pitch_bend_c, 1, 6144
2, 1353610, Pitch_bend_c, 1, 6272
2, 1353620, Pitch_bend_c, 1, 6400
2, 1353630, Pitch_bend_c, 1, 6528
2, 1353640, Pitch_bend_c, 1, 6656
2, 1353650, Pitch_bend_c, 1, 6784
2, 1353660, Pitch_bend_c, 1, 6912
2, 1353670, Pitch_bend_c, 1, 7040
2, 1353680, Pitch_bend_c, 1, 7168
2, 1353690, Pitch_bend_c, 1, 7296
2, 1353700, Pitch_bend_c, 1, 7424
2, 1353710, Pitch_bend_c, 1, 7552
2, 1353720, Pitch_bend_c, 1, 7680
2, 1353730, Pitch_bend_c, 1, 7808
2, 1353740, Pitch_bend_c, 1, 7936
2, 1353750, Pitch_bend_c, 1, 8064
2, 1353760, Pitch_bend_c, 1, 8192
2, 1353760, Pitch_bend_c, 1, 8192
2, 1354080, Pitch_bend_c, 1, 8192
2, 1354080, Pitch_bend_c, 1, 8192
2, 1354080, Note_off_c, 1, 76, 95
2, 1354080, Pitch_bend_c, 1, 8192
2, 1354080, Note_on_c, 1, 73, 95
2, 1354109, Pitch_bend_c, 1, 8064
2, 1354138, Pitch_bend_c, 1, 7936
2, 1354167, Pitch_bend_c, 1, 7808
2, 1354196, Pitch_bend_c, 1, 7680
2, 1354225, Pitch_bend_c, 1, 7552
2, 1354254, Pitch_bend_c, 1, 7424
2, 1354283, Pitch_bend_c, 1, 7296
2, 1354312, Pitch_bend_c, 1, 7168
2, 1354341, Pitch_bend_c, 1, 7040
2, 1354370, Pitch_bend_c, 1, 6912
2, 1354399, Pitch_bend_c, 1, 6784
2, 1354400, Pitch_bend_c, 1, 6784
2, 1354414, Pitch_bend_c, 1, 6912
2, 1354428, Pitch_bend_c, 1, 7040
2, 1354442, Pitch_bend_c, 1, 7168
2, 1354456, Pitch_bend_c, 1, 7296
2, 1354470, Pitch_bend_c, 1, 7424
2, 1354484, Pitch_bend_c, 1, 7552
2, 1354498, Pitch_bend_c, 1, 7680
2, 1354512, Pitch_bend_c, 1, 7808
2, 1354526, Pitch_bend_c, 1, 7936
2, 1354540, Pitch_bend_c, 1, 8064
2, 1354554, Pitch_bend_c, 1, 8192
2, 1354560, Pitch_bend_c, 1, 8192
2, 1354574, Pitch_bend_c, 1, 8064
2, 1354588, Pitch_bend_c, 1, 7936
2, 1354602, Pitch_bend_c, 1, 7808
2, 1354616, Pitch_bend_c, 1, 7680
2, 1354630, Pitch_bend_c, 1, 7552
2, 1354644, Pitch_bend_c, 1, 7424
2, 1354658, Pitch_bend_c, 1, 7296
2, 1354672, Pitch_bend_c, 1, 7168
2, 1354686, Pitch_bend_c, 1, 7040
2, 1354700, Pitch_bend_c, 1, 6912
2, 1354714, Pitch_bend_c, 1, 6784
2, 1354720, Pitch_bend_c, 1, 6784
2, 1354749, Pitch_bend_c, 1, 6912
2, 1354778, Pitch_bend_c, 1, 7040
2, 1354807, Pitch_bend_c, 1, 7168
2, 1354836, Pitch_bend_c, 1, 7296
2, 1354865, Pitch_bend_c, 1, 7424
2, 1354894, Pitch_bend_c, 1, 7552
2, 1354923, Pitch_bend_c, 1, 7680
2, 1354952, Pitch_bend_c, 1, 7808
2, 1354981, Pitch_bend_c, 1, 7936
2, 1355010, Pitch_bend_c, 1, 8064
2, 1355039, Pitch_bend_c, 1, 8192
2, 1355040, Pitch_bend_c, 1, 8192
2, 1355054, Pitch_bend_c, 1, 8064
2, 1355068, Pitch_bend_c, 1, 7936
2, 1355082, Pitch_bend_c, 1, 7808
2, 1355096, Pitch_bend_c, 1, 7680
2, 1355110, Pitch_bend_c, 1, 7552
2, 1355124, Pitch_bend_c, 1, 7424
2, 1355138, Pitch_bend_c, 1, 7296
2, 1355152, Pitch_bend_c, 1, 7168
2, 1355166, Pitch_bend_c, 1, 7040
2, 1355180, Pitch_bend_c, 1, 6912
2, 1355194, Pitch_bend_c, 1, 6784
2, 1355200, Pitch_bend_c, 1, 6784
2, 1355229, Pitch_bend_c, 1, 6912
2, 1355258, Pitch_bend_c, 1, 7040
2, 1355287, Pitch_bend_c, 1, 7168
2, 1355316, Pitch_bend_c, 1, 7296
2, 1355345, Pitch_bend_c, 1, 7424
2, 1355374, Pitch_bend_c, 1, 7552
2, 1355403, Pitch_bend_c, 1, 7680
2, 1355432, Pitch_bend_c, 1, 7808
2, 1355461, Pitch_bend_c, 1, 7936
2, 1355490, Pitch_bend_c, 1, 8064
2, 1355519, Pitch_bend_c, 1, 8192
2, 1355520, Pitch_bend_c, 1, 8192
2, 1355534, Pitch_bend_c, 1, 8064
2, 1355548, Pitch_bend_c, 1, 7936
2, 1355562, Pitch_bend_c, 1, 7808
2, 1355576, Pitch_bend_c, 1, 7680
2, 1355590, Pitch_bend_c, 1, 7552
2, 1355604, Pitch_bend_c, 1, 7424
2, 1355618, Pitch_bend_c, 1, 7296
2, 1355632, Pitch_bend_c, 1, 7168
2, 1355646, Pitch_bend_c, 1, 7040
2, 1355660, Pitch_bend_c, 1, 6912
2, 1355674, Pitch_bend_c, 1, 6784
2, 1355680, Pitch_bend_c, 1, 6784
2, 1355709, Pitch_bend_c, 1, 6912
2, 1355738, Pitch_bend_c, 1, 7040
2, 1355767, Pitch_bend_c, 1, 7168
2, 1355796, Pitch_bend_c, 1, 7296
2, 1355825, Pitch_bend_c, 1, 7424
2, 1355854, Pitch_bend_c, 1, 7552
2, 1355883, Pitch_bend_c, 1, 7680
2, 1355912, Pitch_bend_c, 1, 7808
2, 1355941, Pitch_bend_c, 1, 7936
2, 1355970, Pitch_bend_c, 1, 8064
2, 1355999, Pitch_bend_c, 1, 8192
2, 1356000, Pitch_bend_c, 1, 8192
2, 1356000, Pitch_bend_c, 1, 8192
2, 1356000, Note_off_c, 1, 73, 95
2, 1356000, Note_on_c, 0, 81, 95
2, 1356120, Note_off_c, 0, 81, 95
2, 1356120, Note_on_c, 0, 81, 95
2, 1356240, Note_off_c, 0, 81, 95
2, 1356240, Note_on_c, 0, 81, 95
2, 1356360, Note_off_c, 0, 81, 95
2, 1356360, Note_on_c, 0, 81, 95
2, 1356480, Note_off_c, 0, 81, 95
2, 1356480, Note_on_c, 0, 81, 95
2, 1356600, Note_off_c, 0, 81, 95
2, 1356600, Note_on_c, 0, 81, 95
2, 1356720, Note_off_c, 0, 81, 95
2, 1356720, Note_on_c, 0, 81, 95
2, 1356840, Note_off_c, 0, 81, 95
2, 1356840, Note_on_c, 0, 81, 95
2, 1356960, Note_off_c, 0, 81, 95
2, 1356960, Note_on_c, 0, 81, 95
2, 1357080, Note_off_c, 0, 81, 95
2, 1357080, Note_on_c, 0, 81, 95
2, 1357200, Note_off_c, 0, 81, 95
2, 1357200, Note_on_c, 0, 81, 95
2, 1357320, Note_off_c, 0, 81, 95
2, 1357320, Note_on_c, 0, 81, 95
2, 1357440, Note_off_c, 0, 81, 95
2, 1357440, Note_on_c, 0, 81, 95
2, 1357560, Note_off_c, 0, 81, 95
2, 1357560, Note_on_c, 0, 81, 95
2, 1357680, Note_off_c, 0, 81, 95
2, 1357680, Note_on_c, 0, 81, 95
2, 1357800, Note_off_c, 0, 81, 95
2, 1357800, Note_on_c, 0, 81, 95
2, 1357919, Note_off_c, 0, 81, 95
2, 1357920, Note_on_c, 1, 69, 95
2, 1358040, Pitch_bend_c, 1, 8192
2, 1358160, Pitch_bend_c, 1, 8192
2, 1358280, Pitch_bend_c, 1, 8192
2, 1358400, Pitch_bend_c, 1, 8192
2, 1358520, Pitch_bend_c, 1, 8192
2, 1358640, Pitch_bend_c, 1, 8192
2, 1358760, Pitch_bend_c, 1, 8192
2, 1358880, Pitch_bend_c, 1, 8192
2, 1359000, Pitch_bend_c, 1, 8192
2, 1359120, Pitch_bend_c, 1, 8192
2, 1359240, Pitch_bend_c, 1, 8192
2, 1359360, Pitch_bend_c, 1, 8192
2, 1359480, Pitch_bend_c, 1, 8192
2, 1359600, Pitch_bend_c, 1, 8192
2, 1359720, Pitch_bend_c, 1, 8192
2, 1359840, Pitch_bend_c, 1, 8192
2, 1359840, Pitch_bend_c, 1, 8192
2, 1360800, Note_off_c, 1, 69, 95
2, 1360800, Note_on_c, 1, 67, 95
2, 1360920, Pitch_bend_c, 1, 8192
2, 1361040, Pitch_bend_c, 1, 8064
2, 1361160, Pitch_bend_c, 1, 7936
2, 1361280, Pitch_bend_c, 1, 7808
2, 1361400, Pitch_bend_c, 1, 7680
2, 1361520, Pitch_bend_c, 1, 7552
2, 1361640, Pitch_bend_c, 1, 7424
2, 1361760, Pitch_bend_c, 1, 7296
2, 1361880, Pitch_bend_c, 1, 7168
2, 1362000, Pitch_bend_c, 1, 7040
2, 1362120, Pitch_bend_c, 1, 6912
2, 1362240, Pitch_bend_c, 1, 6784
2, 1362240, Pitch_bend_c, 1, 8192
2, 1362240, Note_off_c, 1, 67, 95
2, 1362240, Note_on_c, 1, 65, 95
2, 1362360, Pitch_bend_c, 1, 8192
2, 1362480, Pitch_bend_c, 1, 8192
2, 1362600, Pitch_bend_c, 1, 8064
2, 1362720, Pitch_bend_c, 1, 8064
2, 1362840, Pitch_bend_c, 1, 7936
2, 1362960, Pitch_bend_c, 1, 7936
2, 1363080, Pitch_bend_c, 1, 7808
2, 1363200, Pitch_bend_c, 1, 7808
2, 1363320, Pitch_bend_c, 1, 7680
2, 1363440, Pitch_bend_c, 1, 7680
2, 1363560, Pitch_bend_c, 1, 7552
2, 1363680, Pitch_bend_c, 1, 7552
2, 1363680, Pitch_bend_c, 1, 8192
2, 1363680, Note_off_c, 1, 65, 95
2, 1363680, Note_on_c, 1, 64, 95
2, 1363800, Pitch_bend_c, 1, 8192
2, 1363920, Pitch_bend_c, 1, 8192
2, 1364040, Pitch_bend_c, 1, 8192
2, 1364160, Pitch_bend_c, 1, 8192
2, 1364280, Pitch_bend_c, 1, 8192
2, 1364400, Pitch_bend_c, 1, 8192
2, 1364520, Pitch_bend_c, 1, 8192
2, 1364640, Pitch_bend_c, 1, 8192
2, 1364760, Pitch_bend_c, 1, 8192
2, 1364880, Pitch_bend_c, 1, 8192
2, 1365000, Pitch_bend_c, 1, 8192
2, 1365120, Pitch_bend_c, 1, 8192
2, 1365120, Pitch_bend_c, 1, 8192
2, 1365120, Note_off_c, 1, 64, 95
2, 1365120, Note_on_c, 0, 64, 95
2, 1365360, Note_off_c, 0, 64, 95
2, 1365360, Note_on_c, 0, 65, 95
2, 1365600, Note_off_c, 0, 65, 95
2, 1365600, Note_on_c, 0, 62, 95
2, 1365840, Note_off_c, 0, 62, 95
2, 1365840, Note_on_c, 0, 64, 95
2, 1366800, Note_off_c, 0, 64, 95
2, 1367520, Note_on_c, 0, 64, 95
2, 1367760, Note_off_c, 0, 64, 95
2, 1367760, Note_on_c, 0, 65, 95
2, 1368000, Note_off_c, 0, 65, 95
2, 1368000, Note_on_c, 0, 62, 95
2, 1368240, Note_off_c, 0, 62, 95
2, 1368240, Note_on_c, 0, 64, 95
2, 1369200, Note_off_c, 0, 64, 95
2, 1369200, Note_on_c, 0, 64, 95
2, 1369920, Note_off_c, 0, 64, 95
2, 1369920, Note_on_c, 0, 64, 95
2, 1370640, Note_off_c, 0, 64, 95
2, 1370640, Note_on_c, 1, 70, 95
2, 1370760, Pitch_bend_c, 1, 8064
2, 1370880, Pitch_bend_c, 1, 7936
2, 1371000, Pitch_bend_c, 1, 7680
2, 1371120, Pitch_bend_c, 1, 7552
2, 1371120, Pitch_bend_c, 1, 8192
2, 1371120, Note_off_c, 1, 70, 95
2, 1371120, Note_on_c, 0, 69, 95
2, 1371840, Note_off_c, 0, 69, 95
2, 1371840, Pitch_bend_c, 1, 8192
2, 1371840, Note_on_c, 1, 69, 95
2, 1371854, Pitch_bend_c, 1, 8064
2, 1371868, Pitch_bend_c, 1, 7936
2, 1371882, Pitch_bend_c, 1, 7808
2, 1371896, Pitch_bend_c, 1, 7680
2, 1371910, Pitch_bend_c, 1, 7552
2, 1371924, Pitch_bend_c, 1, 7424
2, 1371938, Pitch_bend_c, 1, 7296
2, 1371952, Pitch_bend_c, 1, 7168
2, 1371966, Pitch_bend_c, 1, 7040
2, 1371980, Pitch_bend_c, 1, 6912
2, 1371994, Pitch_bend_c, 1, 6784
2, 1372000, Pitch_bend_c, 1, 6784
2, 1372026, Pitch_bend_c, 1, 6912
2, 1372052, Pitch_bend_c, 1, 7040
2, 1372078, Pitch_bend_c, 1, 7168
2, 1372104, Pitch_bend_c, 1, 7296
2, 1372130, Pitch_bend_c, 1, 7424
2, 1372156, Pitch_bend_c, 1, 7552
2, 1372160, Pitch_bend_c, 1, 7552
2, 1372192, Pitch_bend_c, 1, 7680
2, 1372224, Pitch_bend_c, 1, 7808
2, 1372256, Pitch_bend_c, 1, 7936
2, 1372288, Pitch_bend_c, 1, 8064
2, 1372320, Pitch_bend_c, 1, 8192
2, 1372320, Pitch_bend_c, 1, 8192
2, 1372320, Pitch_bend_c, 1, 8064
2, 1372320, Pitch_bend_c, 1, 7936
2, 1372320, Pitch_bend_c, 1, 7808
2, 1372320, Pitch_bend_c, 1, 7680
2, 1372320, Pitch_bend_c, 1, 7552
2, 1372320, Pitch_bend_c, 1, 7424
2, 1372320, Pitch_bend_c, 1, 7296
2, 1372320, Pitch_bend_c, 1, 7168
2, 1372320, Pitch_bend_c, 1, 7040
2, 1372320, Pitch_bend_c, 1, 6912
2, 1372320, Pitch_bend_c, 1, 6784
2, 1372320, Pitch_bend_c, 1, 6784
2, 1372334, Pitch_bend_c, 1, 6912
2, 1372348, Pitch_bend_c, 1, 7040
2, 1372362, Pitch_bend_c, 1, 7168
2, 1372376, Pitch_bend_c, 1, 7296
2, 1372390, Pitch_bend_c, 1, 7424
2, 1372404, Pitch_bend_c, 1, 7552
2, 1372418, Pitch_bend_c, 1, 7680
2, 1372432, Pitch_bend_c, 1, 7808
2, 1372446, Pitch_bend_c, 1, 7936
2, 1372460, Pitch_bend_c, 1, 8064
2, 1372474, Pitch_bend_c, 1, 8192
2, 1372480, Pitch_bend_c, 1, 8192
2, 1372494, Pitch_bend_c, 1, 8064
2, 1372508, Pitch_bend_c, 1, 7936
2, 1372522, Pitch_bend_c, 1, 7808
2, 1372536, Pitch_bend_c, 1, 7680
2, 1372550, Pitch_bend_c, 1, 7552
2, 1372564, Pitch_bend_c, 1, 7424
2, 1372578, Pitch_bend_c, 1, 7296
2, 1372592, Pitch_bend_c, 1, 7168
2, 1372606, Pitch_bend_c, 1, 7040
2, 1372620, Pitch_bend_c, 1, 6912
2, 1372634, Pitch_bend_c, 1, 6784
2, 1372640, Pitch_bend_c, 1, 6784
2, 1372654, Pitch_bend_c, 1, 6912
2, 1372668, Pitch_bend_c, 1, 7040
2, 1372682, Pitch_bend_c, 1, 7168
2, 1372696, Pitch_bend_c, 1, 7296
2, 1372710, Pitch_bend_c, 1, 7424
2, 1372724, Pitch_bend_c, 1, 7552
2, 1372738, Pitch_bend_c, 1, 7680
2, 1372752, Pitch_bend_c, 1, 7808
2, 1372766, Pitch_bend_c, 1, 7936
2, 1372780, Pitch_bend_c, 1, 8064
2, 1372794, Pitch_bend_c, 1, 8192
2, 1372800, Pitch_bend_c, 1, 8192
2, 1372814, Pitch_bend_c, 1, 8064
2, 1372828, Pitch_bend_c, 1, 7936
2, 1372842, Pitch_bend_c, 1, 7808
2, 1372856, Pitch_bend_c, 1, 7680
2, 1372870, Pitch_bend_c, 1, 7552
2, 1372884, Pitch_bend_c, 1, 7424
2, 1372898, Pitch_bend_c, 1, 7296
2, 1372912, Pitch_bend_c, 1, 7168
2, 1372926, Pitch_bend_c, 1, 7040
2, 1372940, Pitch_bend_c, 1, 6912
2, 1372954, Pitch_bend_c, 1, 6784
2, 1372960, Pitch_bend_c, 1, 6784
2, 1372989, Pitch_bend_c, 1, 6912
2, 1373018, Pitch_bend_c, 1, 7040
2, 1373047, Pitch_bend_c, 1, 7168
2, 1373076, Pitch_bend_c, 1, 7296
2, 1373105, Pitch_bend_c, 1, 7424
2, 1373134, Pitch_bend_c, 1, 7552
2, 1373163, Pitch_bend_c, 1, 7680
2, 1373192, Pitch_bend_c, 1, 7808
2, 1373221, Pitch_bend_c, 1, 7936
2, 1373250, Pitch_bend_c, 1, 8064
2, 1373279, Pitch_bend_c, 1, 8192
2, 1373280, Pitch_bend_c, 1, 8192
2, 1373280, Pitch_bend_c, 1, 8064
2, 1373280, Pitch_bend_c, 1, 7936
2, 1373280, Pitch_bend_c, 1, 7808
2, 1373280, Pitch_bend_c, 1, 7680
2, 1373280, Pitch_bend_c, 1, 7552
2, 1373280, Pitch_bend_c, 1, 7424
2, 1373280, Pitch_bend_c, 1, 7296
2, 1373280, Pitch_bend_c, 1, 7168
2, 1373280, Pitch_bend_c, 1, 7040
2, 1373280, Pitch_bend_c, 1, 6912
2, 1373280, Pitch_bend_c, 1, 6784
2, 1373280, Pitch_bend_c, 1, 6784
2, 1373294, Pitch_bend_c, 1, 6912
2, 1373308, Pitch_bend_c, 1, 7040
2, 1373322, Pitch_bend_c, 1, 7168
2, 1373336, Pitch_bend_c, 1, 7296
2, 1373350, Pitch_bend_c, 1, 7424
2, 1373364, Pitch_bend_c, 1, 7552
2, 1373378, Pitch_bend_c, 1, 7680
2, 1373392, Pitch_bend_c, 1, 7808
2, 1373406, Pitch_bend_c, 1, 7936
2, 1373420, Pitch_bend_c, 1, 8064
2, 1373434, Pitch_bend_c, 1, 8192
2, 1373440, Pitch_bend_c, 1, 8192
2, 1373454, Pitch_bend_c, 1, 8064
2, 1373468, Pitch_bend_c, 1, 7936
2, 1373482, Pitch_bend_c, 1, 7808
2, 1373496, Pitch_bend_c, 1, 7680
2, 1373510, Pitch_bend_c, 1, 7552
2, 1373524, Pitch_bend_c, 1, 7424
2, 1373538, Pitch_bend_c, 1, 7296
2, 1373552, Pitch_bend_c, 1, 7168
2, 1373566, Pitch_bend_c, 1, 7040
2, 1373580, Pitch_bend_c, 1, 6912
2, 1373594, Pitch_bend_c, 1, 6784
2, 1373600, Pitch_bend_c, 1, 6784
2, 1373614, Pitch_bend_c, 1, 6912
2, 1373628, Pitch_bend_c, 1, 7040
2, 1373642, Pitch_bend_c, 1, 7168
2, 1373656, Pitch_bend_c, 1, 7296
2, 1373670, Pitch_bend_c, 1, 7424
2, 1373684, Pitch_bend_c, 1, 7552
2, 1373698, Pitch_bend_c, 1, 7680
2, 1373712, Pitch_bend_c, 1, 7808
2, 1373726, Pitch_bend_c, 1, 7936
2, 1373740, Pitch_bend_c, 1, 8064
2, 1373754, Pitch_bend_c, 1, 8192
2, 1373760, Pitch_bend_c, 1, 8192
2, 1373760, Pitch_bend_c, 1, 8192
2, 1373760, Note_off_c, 1, 69, 95
2, 1373760, Note_on_c, 0, 73, 95
2, 1373880, Note_off_c, 0, 73, 95
2, 1373880, Note_on_c, 0, 73, 95
2, 1374000, Note_off_c, 0, 73, 95
2, 1374000, Note_on_c, 0, 73, 95
2, 1374120, Note_off_c, 0, 73, 95
2, 1374120, Note_on_c, 0, 73, 95
2, 1374240, Note_off_c, 0, 73, 95
2, 1374240, Note_on_c, 0, 73, 95
2, 1374360, Note_off_c, 0, 73, 95
2, 1374360, Note_on_c, 0, 73, 95
2, 1374480, Note_off_c, 0, 73, 95
2, 1374480, Note_on_c, 0, 73, 95
2, 1374600, Note_off_c, 0, 73, 95
2, 1374600, Note_on_c, 0, 73, 95
2, 1374720, Note_off_c, 0, 73, 95
2, 1374720, Note_on_c, 0, 73, 95
2, 1374840, Note_off_c, 0, 73, 95
2, 1374840, Note_on_c, 0, 73, 95
2, 1374960, Note_off_c, 0, 73, 95
2, 1374960, Note_on_c, 0, 73, 95
2, 1375080, Note_off_c, 0, 73, 95
2, 1375080, Note_on_c, 0, 73, 95
2, 1375199, Note_off_c, 0, 73, 95
2, 1375200, Pitch_bend_c, 1, 8192
2, 1375200, Note_on_c, 1, 79, 95
2, 1375265, Pitch_bend_c, 1, 8320
2, 1375330, Pitch_bend_c, 1, 8448
2, 1375395, Pitch_bend_c, 1, 8576
2, 1375460, Pitch_bend_c, 1, 8704
2, 1375525, Pitch_bend_c, 1, 8832
2, 1375590, Pitch_bend_c, 1, 8960
2, 1375655, Pitch_bend_c, 1, 9088
2, 1375720, Pitch_bend_c, 1, 9216
2, 1375785, Pitch_bend_c, 1, 9344
2, 1375850, Pitch_bend_c, 1, 9472
2, 1375915, Pitch_bend_c, 1, 9600
2, 1375920, Pitch_bend_c, 1, 9600
2, 1376640, Pitch_bend_c, 1, 9600
2, 1376640, Pitch_bend_c, 1, 8192
2, 1376640, Note_off_c, 1, 79, 95
2, 1376640, Pitch_bend_c, 1, 9600
2, 1376640, Note_on_c, 1, 79, 95
2, 1377120, Pitch_bend_c, 1, 9600
2, 1377120, Pitch_bend_c, 1, 8192
2, 1377120, Note_off_c, 1, 79, 95
2, 1377120, Pitch_bend_c, 1, 9600
2, 1377120, Note_on_c, 1, 79, 95
2, 1380480, Pitch_bend_c, 1, 9600
2, 1380480, Pitch_bend_c, 1, 8192
2, 1380480, Note_off_c, 1, 79, 95
2, 1380480, Note_on_c, 1, 81, 95
2, 1380600, Pitch_bend_c, 1, 8448
2, 1380720, Pitch_bend_c, 1, 8832
2, 1380720, Pitch_bend_c, 1, 8192
2, 1380720, Note_off_c, 1, 81, 95
2, 1380720, Note_on_c, 0, 82, 95
2, 1380960, Note_off_c, 0, 82, 95
2, 1380960, Note_on_c, 0, 85, 95
2, 1382400, Note_off_c, 0, 85, 95
2, 1382400, Note_on_c, 0, 86, 95
2, 1382640, Note_off_c, 0, 86, 95
2, 1382640, Note_on_c, 0, 88, 95
2, 1382880, Note_off_c, 0, 88, 95
2, 1382880, Pitch_bend_c, 1, 8192
2, 1382880, Note_on_c, 1, 88, 95
2, 1383024, Pitch_bend_c, 1, 8320
2, 1383168, Pitch_bend_c, 1, 8448
2, 1383312, Pitch_bend_c, 1, 8576
2, 1383456, Pitch_bend_c, 1, 8704
2, 1383600, Pitch_bend_c, 1, 8832
2, 1383600, Pitch_bend_c, 1, 8832
2, 1384320, Pitch_bend_c, 1, 8832
2, 1384320, Pitch_bend_c, 1, 8192
2, 1384320, Note_off_c, 1, 88, 95
2, 1384320, Note_on_c, 0, 88, 95
2, 1384800, Note_off_c, 0, 88, 95
2, 1384800, Note_on_c, 1, 88, 95
2, 1384960, Pitch_bend_c, 1, 8192
2, 1385120, Pitch_bend_c, 1, 8320
2, 1385280, Pitch_bend_c, 1, 8192
2, 1385440, Pitch_bend_c, 1, 8320
2, 1385600, Pitch_bend_c, 1, 8192
2, 1385760, Pitch_bend_c, 1, 8320
2, 1385920, Pitch_bend_c, 1, 8192
2, 1386080, Pitch_bend_c, 1, 8320
2, 1386240, Pitch_bend_c, 1, 8192
2, 1386400, Pitch_bend_c, 1, 8320
2, 1386560, Pitch_bend_c, 1, 8192
2, 1386720, Pitch_bend_c, 1, 8320
2, 1386880, Pitch_bend_c, 1, 8192
2, 1387040, Pitch_bend_c, 1, 8320
2, 1387200, Pitch_bend_c, 1, 8192
2, 1387360, Pitch_bend_c, 1, 8320
2, 1387520, Pitch_bend_c, 1, 8192
2, 1387680, Pitch_bend_c, 1, 8320
2, 1387840, Pitch_bend_c, 1, 8192
2, 1388000, Pitch_bend_c, 1, 8320
2, 1388160, Pitch_bend_c, 1, 8192
2, 1388320, Pitch_bend_c, 1, 8320
2, 1388480, Pitch_bend_c, 1, 8192
2, 1388640, Pitch_bend_c, 1, 8320
2, 1388800, Pitch_bend_c, 1, 8192
2, 1388960, Pitch_bend_c, 1, 8320
2, 1389120, Pitch_bend_c, 1, 8192
2, 1389280, Pitch_bend_c, 1, 8320
2, 1389440, Pitch_bend_c, 1, 8192
2, 1389600, Pitch_bend_c, 1, 8320
2, 1389760, Pitch_bend_c, 1, 8192
2, 1389920, Pitch_bend_c, 1, 8320
2, 1390080, Pitch_bend_c, 1, 8192
2, 1390240, Pitch_bend_c, 1, 8320
2, 1390400, Pitch_bend_c, 1, 8192
2, 1390560, Pitch_bend_c, 1, 8320
2, 1390560, Pitch_bend_c, 1, 8192
2, 1390560, Note_off_c, 1, 88, 95
2, 1390560, Note_on_c, 0, 85, 95
2, 1390720, Note_off_c, 0, 85, 95
2, 1390720, Note_on_c, 0, 86, 95
2, 1390880, Note_off_c, 0, 86, 95
2, 1390880, Note_on_c, 0, 85, 95
2, 1391040, Note_off_c, 0, 85, 95
2, 1391040, Note_on_c, 0, 82, 95
2, 1391200, Note_off_c, 0, 82, 95
2, 1391200, Note_on_c, 0, 85, 95
2, 1391920, Note_off_c, 0, 85, 95
2, 1391920, Note_on_c, 0, 85, 95
2, 1392080, Note_off_c, 0, 85, 95
2, 1392080, Note_on_c, 0, 86, 95
2, 1392240, Note_off_c, 0, 86, 95
2, 1392240, Note_on_c, 0, 85, 95
2, 1392400, Note_off_c, 0, 85, 95
2, 1392400, Note_on_c, 0, 82, 95
2, 1392560, Note_off_c, 0, 82, 95
2, 1392560, Note_on_c, 0, 85, 95
2, 1393280, Note_off_c, 0, 85, 95
2, 1393280, Note_on_c, 0, 85, 95
2, 1393440, Note_off_c, 0, 85, 95
2, 1393440, Note_on_c, 0, 86, 95
2, 1393600, Note_off_c, 0, 86, 95
2, 1393600, Note_on_c, 0, 85, 95
2, 1393760, Note_off_c, 0, 85, 95
2, 1393760, Note_on_c, 0, 82, 95
2, 1393920, Note_off_c, 0, 82, 95
2, 1393920, Note_on_c, 0, 85, 95
2, 1394640, Note_off_c, 0, 85, 95
2, 1394640, Note_on_c, 0, 81, 95
2, 1394800, Note_off_c, 0, 81, 95
2, 1394800, Note_on_c, 0, 82, 95
2, 1394960, Note_off_c, 0, 82, 95
2, 1394960, Note_on_c, 0, 81, 95
2, 1395120, Note_off_c, 0, 81, 95
2, 1395120, Note_on_c, 0, 79, 95
2, 1395280, Note_off_c, 0, 79, 95
2, 1395280, Note_on_c, 0, 81, 95
2, 1396000, Note_off_c, 0, 81, 95
2, 1396000, Note_on_c, 0, 81, 95
2, 1396160, Note_off_c, 0, 81, 95
2, 1396160, Note_on_c, 0, 82, 95
2, 1396320, Note_off_c, 0, 82, 95
2, 1396320, Note_on_c, 0, 81, 95
2, 1396480, Note_off_c, 0, 81, 95
2, 1396480, Note_on_c, 0, 79, 95
2, 1396640, Note_off_c, 0, 79, 95
2, 1396640, Note_on_c, 0, 81, 95
2, 1397360, Note_off_c, 0, 81, 95
2, 1397360, Note_on_c, 0, 70, 95
2, 1397480, Note_off_c, 0, 70, 95
2, 1397480, Note_on_c, 0, 69, 95
2, 1397600, Note_off_c, 0, 69, 95
2, 1397600, Note_on_c, 0, 67, 95
2, 1397720, Note_off_c, 0, 67, 95
2, 1397720, Note_on_c, 0, 64, 95
2, 1397840, Note_off_c, 0, 64, 95
2, 1397840, Note_on_c, 0, 65, 95
2, 1397960, Note_off_c, 0, 65, 95
2, 1397960, Note_on_c, 0, 67, 95
2, 1398240, Note_off_c, 0, 67, 95
2, 1398240, Note_on_c, 0, 69, 95
2, 1398360, Note_off_c, 0, 69, 95
2, 1398360, Note_on_c, 0, 67, 95
2, 1398480, Note_off_c, 0, 67, 95
2, 1398480, Note_on_c, 0, 65, 95
2, 1398600, Note_off_c, 0, 65, 95
2, 1398600, Note_on_c, 0, 64, 95
2, 1398720, Note_off_c, 0, 64, 95
2, 1398720, Note_on_c, 0, 65, 95
2, 1398840, Note_off_c, 0, 65, 95
2, 1398840, Note_on_c, 0, 67, 95
2, 1398960, Note_off_c, 0, 67, 95
2, 1398960, Note_on_c, 0, 69, 95
2, 1399080, Note_off_c, 0, 69, 95
2, 1399080, Note_on_c, 0, 67, 95
2, 1399200, Note_off_c, 0, 67, 95
2, 1399200, Note_on_c, 0, 69, 95
2, 1399320, Note_off_c, 0, 69, 95
2, 1399320, Note_on_c, 0, 67, 95
2, 1399440, Note_off_c, 0, 67, 95
2, 1399440, Note_on_c, 0, 65, 95
2, 1399560, Note_off_c, 0, 65, 95
2, 1399560, Note_on_c, 0, 64, 95
2, 1399680, Note_off_c, 0, 64, 95
2, 1399680, Note_on_c, 0, 65, 95
2, 1399800, Note_off_c, 0, 65, 95
2, 1399800, Note_on_c, 0, 69, 95
2, 1399920, Note_off_c, 0, 69, 95
2, 1399920, Note_on_c, 0, 67, 95
2, 1400040, Note_off_c, 0, 67, 95
2, 1400040, Note_on_c, 0, 65, 95
2, 1400160, Note_off_c, 0, 65, 95
2, 1400160, Note_on_c, 0, 64, 95
2, 1400280, Note_off_c, 0, 64, 95
2, 1400280, Note_on_c, 0, 62, 95
2, 1400400, Note_off_c, 0, 62, 95
2, 1400400, Note_on_c, 0, 61, 95
2, 1400520, Note_off_c, 0, 61, 95
2, 1400520, Note_on_c, 0, 62, 95
2, 1400640, Note_off_c, 0, 62, 95
2, 1400640, Note_on_c, 0, 64, 95
2, 1400760, Note_off_c, 0, 64, 95
2, 1400760, Note_on_c, 0, 65, 95
2, 1400880, Note_off_c, 0, 65, 95
2, 1400880, Note_on_c, 0, 67, 95
2, 1401000, Note_off_c, 0, 67, 95
2, 1401000, Note_on_c, 0, 65, 95
2, 1401120, Note_off_c, 0, 65, 95
2, 1401120, Note_on_c, 0, 64, 95
2, 1401240, Note_off_c, 0, 64, 95
2, 1401240, Note_on_c, 0, 62, 95
2, 1401360, Note_off_c, 0, 62, 95
2, 1401360, Note_on_c, 0, 61, 95
2, 1401480, Note_off_c, 0, 61, 95
2, 1401480, Note_on_c, 0, 62, 95
2, 1401600, Note_off_c, 0, 62, 95
2, 1401600, Note_on_c, 0, 64, 95
2, 1401720, Note_off_c, 0, 64, 95
2, 1401720, Note_on_c, 0, 65, 95
2, 1401840, Note_off_c, 0, 65, 95
2, 1401840, Note_on_c, 0, 64, 95
2, 1401960, Note_off_c, 0, 64, 95
2, 1401960, Note_on_c, 0, 62, 95
2, 1402080, Note_off_c, 0, 62, 95
2, 1402080, Note_on_c, 0, 61, 95
2, 1402200, Note_off_c, 0, 61, 95
2, 1402200, Note_on_c, 0, 58, 95
2, 1402320, Note_off_c, 0, 58, 95
2, 1402320, Note_on_c, 0, 57, 95
2, 1402440, Note_off_c, 0, 57, 95
2, 1402440, Note_on_c, 0, 58, 95
2, 1402560, Note_off_c, 0, 58, 95
2, 1402560, Note_on_c, 0, 60, 95
2, 1402680, Note_off_c, 0, 60, 95
2, 1402680, Note_on_c, 0, 62, 95
2, 1402800, Note_off_c, 0, 62, 95
2, 1402800, Note_on_c, 0, 64, 95
2, 1402920, Note_off_c, 0, 64, 95
2, 1402920, Note_on_c, 0, 62, 95
2, 1403040, Note_off_c, 0, 62, 95
2, 1403040, Note_on_c, 0, 62, 95
2, 1403160, Note_off_c, 0, 62, 95
2, 1403160, Note_on_c, 0, 58, 95
2, 1403280, Note_off_c, 0, 58, 95
2, 1403280, Note_on_c, 0, 57, 95
2, 1403400, Note_off_c, 0, 57, 95
2, 1403400, Note_on_c, 0, 58, 95
2, 1403520, Note_off_c, 0, 58, 95
2, 1403520, Note_on_c, 0, 57, 95
2, 1403640, Note_off_c, 0, 57, 95
2, 1403640, Note_on_c, 0, 55, 95
2, 1403760, Note_off_c, 0, 55, 95
2, 1403760, Note_on_c, 0, 53, 95
2, 1403880, Note_off_c, 0, 53, 95
2, 1403880, Note_on_c, 0, 52, 95
2, 1404000, Note_off_c, 0, 52, 95
2, 1404000, Note_on_c, 0, 50, 95
2, 1404120, Note_off_c, 0, 50, 95
2, 1404120, Note_on_c, 0, 49, 95
2, 1404240, Note_off_c, 0, 49, 95
2, 1404240, Note_on_c, 0, 45, 95
2, 1404360, Note_off_c, 0, 45, 95
2, 1404360, Note_on_c, 0, 49, 95
2, 1404480, Note_off_c, 0, 49, 95
2, 1404480, Note_on_c, 0, 50, 95
2, 1404600, Note_off_c, 0, 50, 95
2, 1404600, Note_on_c, 0, 52, 95
2, 1404720, Note_off_c, 0, 52, 95
2, 1404720, Note_on_c, 0, 53, 95
2, 1404840, Note_off_c, 0, 53, 95
2, 1404840, Note_on_c, 0, 55, 95
2, 1404960, Note_off_c, 0, 55, 95
2, 1404960, Note_on_c, 0, 53, 95
2, 1405080, Note_off_c, 0, 53, 95
2, 1405080, Note_on_c, 0, 51, 95
2, 1405200, Note_off_c, 0, 51, 95
2, 1405200, Note_on_c, 0, 50, 95
2, 1405320, Note_off_c, 0, 50, 95
2, 1405320, Note_on_c, 0, 49, 95
2, 1405440, Note_off_c, 0, 49, 95
2, 1405440, Note_on_c, 0, 46, 95
2, 1405560, Note_off_c, 0, 46, 95
2, 1405560, Note_on_c, 0, 45, 95
2, 1405680, Note_off_c, 0, 45, 95
2, 1405680, Note_on_c, 0, 43, 95
2, 1405800, Note_off_c, 0, 43, 95
2, 1405800, Note_on_c, 0, 45, 95
2, 1405920, Note_off_c, 0, 45, 95
2, 1405920, Note_on_c, 0, 77, 95
2, 1406160, Note_off_c, 0, 77, 95
2, 1406160, Note_on_c, 0, 76, 95
2, 1406400, Note_off_c, 0, 76, 95
2, 1406400, Note_on_c, 0, 74, 95
2, 1406640, Note_off_c, 0, 74, 95
2, 1406640, Note_on_c, 0, 64, 95
2, 1406880, Note_off_c, 0, 64, 95
2, 1406880, Note_on_c, 0, 73, 95
2, 1407120, Note_off_c, 0, 73, 95
2, 1407120, Note_on_c, 0, 64, 95
2, 1407360, Note_off_c, 0, 64, 95
2, 1407360, Note_on_c, 0, 76, 95
2, 1407600, Note_off_c, 0, 76, 95
2, 1407600, Note_on_c, 0, 74, 95
2, 1407840, Note_off_c, 0, 74, 95
2, 1407840, Note_on_c, 0, 73, 95
2, 1408080, Note_off_c, 0, 73, 95
2, 1408080, Note_on_c, 0, 64, 95
2, 1408320, Note_off_c, 0, 64, 95
2, 1408320, Note_on_c, 0, 70, 95
2, 1408560, Note_off_c, 0, 70, 95
2, 1408560, Note_on_c, 0, 64, 95
2, 1408800, Note_off_c, 0, 64, 95
2, 1408800, Note_on_c, 0, 74, 95
2, 1409040, Note_off_c, 0, 74, 95
2, 1409040, Note_on_c, 0, 73, 95
2, 1409280, Note_off_c, 0, 73, 95
2, 1409280, Note_on_c, 0, 70, 95
2, 1409520, Note_off_c, 0, 70, 95
2, 1409520, Note_on_c, 0, 64, 95
2, 1409760, Note_off_c, 0, 64, 95
2, 1409760, Note_on_c, 0, 77, 95
2, 1410000, Note_off_c, 0, 77, 95
2, 1410000, Note_on_c, 0, 76, 95
2, 1410240, Note_off_c, 0, 76, 95
2, 1410240, Note_on_c, 0, 74, 95
2, 1410480, Note_off_c, 0, 74, 95
2, 1410480, Note_on_c, 0, 64, 95
2, 1410720, Note_off_c, 0, 64, 95
2, 1410720, Note_on_c, 0, 73, 95
2, 1410960, Note_off_c, 0, 73, 95
2, 1410960, Note_on_c, 0, 64, 95
2, 1411200, Note_off_c, 0, 64, 95
2, 1411200, Note_on_c, 0, 79, 95
2, 1411440, Note_off_c, 0, 79, 95
2, 1411440, Note_on_c, 0, 77, 95
2, 1411680, Note_off_c, 0, 77, 95
2, 1411680, Note_on_c, 0, 76, 95
2, 1411920, Note_off_c, 0, 76, 95
2, 1411920, Note_on_c, 0, 64, 95
2, 1412160, Note_off_c, 0, 64, 95
2, 1412160, Note_on_c, 0, 81, 95
2, 1412400, Note_off_c, 0, 81, 95
2, 1412400, Note_on_c, 0, 64, 95
2, 1412640, Note_off_c, 0, 64, 95
2, 1412640, Note_on_c, 0, 82, 95
2, 1412880, Note_off_c, 0, 82, 95
2, 1412880, Note_on_c, 0, 81, 95
2, 1413120, Note_off_c, 0, 81, 95
2, 1413120, Note_on_c, 0, 79, 95
2, 1413360, Note_off_c, 0, 79, 95
2, 1413360, Note_on_c, 0, 64, 95
2, 1413600, Note_off_c, 0, 64, 95
2, 1413600, Note_on_c, 0, 77, 95
2, 1413840, Note_off_c, 0, 77, 95
2, 1413840, Note_on_c, 0, 76, 95
2, 1414080, Note_off_c, 0, 76, 95
2, 1414080, Note_on_c, 0, 74, 95
2, 1414320, Note_off_c, 0, 74, 95
2, 1414320, Note_on_c, 0, 64, 95
2, 1414560, Note_off_c, 0, 64, 95
2, 1414560, Note_on_c, 0, 73, 95
2, 1414800, Note_off_c, 0, 73, 95
2, 1414800, Note_on_c, 0, 64, 95
2, 1415040, Note_off_c, 0, 64, 95
2, 1415040, Note_on_c, 0, 76, 95
2, 1415280, Note_off_c, 0, 76, 95
2, 1415280, Note_on_c, 0, 74, 95
2, 1415520, Note_off_c, 0, 74, 95
2, 1415520, Note_on_c, 0, 73, 95
2, 1415760, Note_off_c, 0, 73, 95
2, 1415760, Note_on_c, 0, 64, 95
2, 1416000, Note_off_c, 0, 64, 95
2, 1416000, Note_on_c, 0, 70, 95
2, 1416240, Note_off_c, 0, 70, 95
2, 1416240, Note_on_c, 0, 64, 95
2, 1416480, Note_off_c, 0, 64, 95
2, 1416480, Note_on_c, 0, 74, 95
2, 1416720, Note_off_c, 0, 74, 95
2, 1416720, Note_on_c, 0, 73, 95
2, 1416960, Note_off_c, 0, 73, 95
2, 1416960, Note_on_c, 0, 70, 95
2, 1417200, Note_off_c, 0, 70, 95
2, 1417200, Note_on_c, 0, 64, 95
2, 1417440, Note_off_c, 0, 64, 95
2, 1417440, Note_on_c, 0, 76, 95
2, 1417680, Note_off_c, 0, 76, 95
2, 1417680, Note_on_c, 0, 74, 95
2, 1417920, Note_off_c, 0, 74, 95
2, 1417920, Note_on_c, 0, 73, 95
2, 1418160, Note_off_c, 0, 73, 95
2, 1418160, Note_on_c, 0, 64, 95
2, 1418400, Note_off_c, 0, 64, 95
2, 1418400, Note_on_c, 0, 77, 95
2, 1418640, Note_off_c, 0, 77, 95
2, 1418640, Note_on_c, 0, 76, 95
2, 1418880, Note_off_c, 0, 76, 95
2, 1418880, Note_on_c, 0, 74, 95
2, 1419120, Note_off_c, 0, 74, 95
2, 1419120, Note_on_c, 0, 64, 95
2, 1419360, Note_off_c, 0, 64, 95
2, 1419360, Note_on_c, 0, 79, 95
2, 1419600, Note_off_c, 0, 79, 95
2, 1419600, Note_on_c, 0, 77, 95
2, 1419840, Note_off_c, 0, 77, 95
2, 1419840, Note_on_c, 0, 76, 95
2, 1420080, Note_off_c, 0, 76, 95
2, 1420080, Note_on_c, 0, 64, 95
2, 1420320, Note_off_c, 0, 64, 95
2, 1420320, Note_on_c, 0, 81, 95
2, 1420560, Note_off_c, 0, 81, 95
2, 1420560, Note_on_c, 0, 79, 95
2, 1420800, Note_off_c, 0, 79, 95
2, 1420800, Note_on_c, 0, 77, 95
2, 1421040, Note_off_c, 0, 77, 95
2, 1421040, Note_on_c, 0, 64, 95
2, 1421280, Note_off_c, 0, 64, 95
2, 1421280, Note_on_c, 0, 77, 95
2, 1421520, Note_off_c, 0, 77, 95
2, 1421520, Note_on_c, 0, 76, 95
2, 1421760, Note_off_c, 0, 76, 95
2, 1421760, Note_on_c, 0, 74, 95
2, 1422000, Note_off_c, 0, 74, 95
2, 1422000, Note_on_c, 0, 64, 95
2, 1422240, Note_off_c, 0, 64, 95
2, 1422240, Note_on_c, 0, 73, 95
2, 1422480, Note_off_c, 0, 73, 95
2, 1422480, Note_on_c, 0, 64, 95
2, 1422720, Note_off_c, 0, 64, 95
2, 1422720, Note_on_c, 0, 76, 95
2, 1422960, Note_off_c, 0, 76, 95
2, 1422960, Note_on_c, 0, 74, 95
2, 1423200, Note_off_c, 0, 74, 95
2, 1423200, Note_on_c, 0, 73, 95
2, 1423440, Note_off_c, 0, 73, 95
2, 1423440, Note_on_c, 0, 64, 95
2, 1423680, Note_off_c, 0, 64, 95
2, 1423680, Note_on_c, 0, 70, 95
2, 1423920, Note_off_c, 0, 70, 95
2, 1423920, Note_on_c, 0, 64, 95
2, 1424160, Note_off_c, 0, 64, 95
2, 1424160, Note_on_c, 0, 74, 95
2, 1424400, Note_off_c, 0, 74, 95
2, 1424400, Note_on_c, 0, 73, 95
2, 1424640, Note_off_c, 0, 73, 95
2, 1424640, Note_on_c, 0, 70, 95
2, 1424880, Note_off_c, 0, 70, 95
2, 1424880, Note_on_c, 0, 64, 95
2, 1425120, Note_off_c, 0, 64, 95
2, 1425120, Note_on_c, 0, 77, 95
2, 1425360, Note_off_c, 0, 77, 95
2, 1425360, Note_on_c, 0, 76, 95
2, 1425600, Note_off_c, 0, 76, 95
2, 1425600, Note_on_c, 0, 74, 95
2, 1425840, Note_off_c, 0, 74, 95
2, 1425840, Note_on_c, 0, 64, 95
2, 1426080, Note_off_c, 0, 64, 95
2, 1426080, Note_on_c, 0, 73, 95
2, 1426320, Note_off_c, 0, 73, 95
2, 1426320, Note_on_c, 0, 64, 95
2, 1426560, Note_off_c, 0, 64, 95
2, 1426560, Note_on_c, 0, 79, 95
2, 1426800, Note_off_c, 0, 79, 95
2, 1426800, Note_on_c, 0, 77, 95
2, 1427040, Note_off_c, 0, 77, 95
2, 1427040, Note_on_c, 0, 76, 95
2, 1427280, Note_off_c, 0, 76, 95
2, 1427280, Note_on_c, 0, 64, 95
2, 1427520, Note_off_c, 0, 64, 95
2, 1427520, Note_on_c, 0, 81, 95
2, 1427760, Note_off_c, 0, 81, 95
2, 1427760, Note_on_c, 0, 64, 95
2, 1428000, Note_off_c, 0, 64, 95
2, 1428000, Note_on_c, 0, 82, 95
2, 1428240, Note_off_c, 0, 82, 95
2, 1428240, Note_on_c, 0, 81, 95
2, 1428480, Note_off_c, 0, 81, 95
2, 1428480, Note_on_c, 0, 79, 95
2, 1428720, Note_off_c, 0, 79, 95
2, 1428720, Note_on_c, 0, 64, 95
2, 1428960, Note_off_c, 0, 64, 95
2, 1428960, Note_on_c, 0, 77, 95
2, 1429200, Note_off_c, 0, 77, 95
2, 1429200, Note_on_c, 0, 76, 95
2, 1429440, Note_off_c, 0, 76, 95
2, 1429440, Note_on_c, 0, 74, 95
2, 1429680, Note_off_c, 0, 74, 95
2, 1429680, Note_on_c, 0, 64, 95
2, 1429920, Note_off_c, 0, 64, 95
2, 1429920, Note_on_c, 0, 73, 95
2, 1430160, Note_off_c, 0, 73, 95
2, 1430160, Note_on_c, 0, 64, 95
2, 1430400, Note_off_c, 0, 64, 95
2, 1430400, Note_on_c, 0, 76, 95
2, 1430640, Note_off_c, 0, 76, 95
2, 1430640, Note_on_c, 0, 74, 95
2, 1430880, Note_off_c, 0, 74, 95
2, 1430880, Note_on_c, 0, 73, 95
2, 1431120, Note_off_c, 0, 73, 95
2, 1431120, Note_on_c, 0, 64, 95
2, 1431360, Note_off_c, 0, 64, 95
2, 1431360, Note_on_c, 0, 70, 95
2, 1431600, Note_off_c, 0, 70, 95
2, 1431600, Note_on_c, 0, 64, 95
2, 1431840, Note_off_c, 0, 64, 95
2, 1431840, Note_on_c, 0, 74, 95
2, 1432080, Note_off_c, 0, 74, 95
2, 1432080, Note_on_c, 0, 73, 95
2, 1432320, Note_off_c, 0, 73, 95
2, 1432320, Note_on_c, 0, 70, 95
2, 1432560, Note_off_c, 0, 70, 95
2, 1432560, Note_on_c, 0, 64, 95
2, 1432800, Note_off_c, 0, 64, 95
2, 1432800, Note_on_c, 0, 76, 95
2, 1433040, Note_off_c, 0, 76, 95
2, 1433040, Note_on_c, 0, 74, 95
2, 1433280, Note_off_c, 0, 74, 95
2, 1433280, Note_on_c, 0, 73, 95
2, 1433520, Note_off_c, 0, 73, 95
2, 1433520, Note_on_c, 0, 64, 95
2, 1433760, Note_off_c, 0, 64, 95
2, 1433760, Note_on_c, 0, 77, 95
2, 1434000, Note_off_c, 0, 77, 95
2, 1434000, Note_on_c, 0, 76, 95
2, 1434240, Note_off_c, 0, 76, 95
2, 1434240, Note_on_c, 0, 74, 95
2, 1434480, Note_off_c, 0, 74, 95
2, 1434480, Note_on_c, 0, 64, 95
2, 1434720, Note_off_c, 0, 64, 95
2, 1434720, Note_on_c, 0, 79, 95
2, 1434960, Note_off_c, 0, 79, 95
2, 1434960, Note_on_c, 0, 77, 95
2, 1435200, Note_off_c, 0, 77, 95
2, 1435200, Note_on_c, 0, 76, 95
2, 1435440, Note_off_c, 0, 76, 95
2, 1435440, Note_on_c, 0, 64, 95
2, 1435680, Note_off_c, 0, 64, 95
2, 1435680, Note_on_c, 0, 81, 95
2, 1435920, Note_off_c, 0, 81, 95
2, 1435920, Note_on_c, 0, 79, 95
2, 1436160, Note_off_c, 0, 79, 95
2, 1436160, Note_on_c, 0, 77, 95
2, 1436400, Note_off_c, 0, 77, 95
2, 1436400, Note_on_c, 0, 64, 95
2, 1436640, Note_off_c, 0, 64, 95
2, 1436640, Note_on_c, 0, 77, 95
2, 1436880, Note_off_c, 0, 77, 95
2, 1436880, Note_on_c, 0, 76, 95
2, 1437120, Note_off_c, 0, 76, 95
2, 1437120, Note_on_c, 0, 74, 95
2, 1437360, Note_off_c, 0, 74, 95
2, 1437360, Note_on_c, 0, 64, 95
2, 1437600, Note_off_c, 0, 64, 95
2, 1437600, Note_on_c, 0, 73, 95
2, 1437840, Note_off_c, 0, 73, 95
2, 1437840, Note_on_c, 0, 64, 95
2, 1438080, Note_off_c, 0, 64, 95
2, 1438080, Note_on_c, 0, 76, 95
2, 1438320, Note_off_c, 0, 76, 95
2, 1438320, Note_on_c, 0, 74, 95
2, 1438560, Note_off_c, 0, 74, 95
2, 1438560, Note_on_c, 0, 73, 95
2, 1438800, Note_off_c, 0, 73, 95
2, 1438800, Note_on_c, 0, 64, 95
2, 1439040, Note_off_c, 0, 64, 95
2, 1439040, Note_on_c, 0, 70, 95
2, 1439280, Note_off_c, 0, 70, 95
2, 1439280, Note_on_c, 0, 64, 95
2, 1439520, Note_off_c, 0, 64, 95
2, 1439520, Note_on_c, 0, 74, 95
2, 1439760, Note_off_c, 0, 74, 95
2, 1439760, Note_on_c, 0, 73, 95
2, 1440000, Note_off_c, 0, 73, 95
2, 1440000, Note_on_c, 0, 70, 95
2, 1440240, Note_off_c, 0, 70, 95
2, 1440240, Note_on_c, 0, 64, 95
2, 1440480, Note_off_c, 0, 64, 95
2, 1440480, Note_on_c, 0, 77, 95
2, 1440720, Note_off_c, 0, 77, 95
2, 1440720, Note_on_c, 0, 76, 95
2, 1440960, Note_off_c, 0, 76, 95
2, 1440960, Note_on_c, 0, 74, 95
2, 1441200, Note_off_c, 0, 74, 95
2, 1441200, Note_on_c, 0, 64, 95
2, 1441440, Note_off_c, 0, 64, 95
2, 1441440, Note_on_c, 0, 73, 95
2, 1441680, Note_off_c, 0, 73, 95
2, 1441680, Note_on_c, 0, 64, 95
2, 1441920, Note_off_c, 0, 64, 95
2, 1441920, Note_on_c, 0, 79, 95
2, 1442160, Note_off_c, 0, 79, 95
2, 1442160, Note_on_c, 0, 77, 95
2, 1442400, Note_off_c, 0, 77, 95
2, 1442400, Note_on_c, 0, 76, 95
2, 1442640, Note_off_c, 0, 76, 95
2, 1442640, Note_on_c, 0, 64, 95
2, 1442880, Note_off_c, 0, 64, 95
2, 1442880, Note_on_c, 0, 81, 95
2, 1443120, Note_off_c, 0, 81, 95
2, 1443120, Note_on_c, 0, 64, 95
2, 1443360, Note_off_c, 0, 64, 95
2, 1443360, Note_on_c, 0, 82, 95
2, 1443600, Note_off_c, 0, 82, 95
2, 1443600, Note_on_c, 0, 81, 95
2, 1443840, Note_off_c, 0, 81, 95
2, 1443840, Note_on_c, 0, 79, 95
2, 1444080, Note_off_c, 0, 79, 95
2, 1444080, Note_on_c, 0, 64, 95
2, 1444320, Note_off_c, 0, 64, 95
2, 1444320, Note_on_c, 0, 77, 95
2, 1444560, Note_off_c, 0, 77, 95
2, 1444560, Note_on_c, 0, 76, 95
2, 1444800, Note_off_c, 0, 76, 95
2, 1444800, Note_on_c, 0, 74, 95
2, 1445040, Note_off_c, 0, 74, 95
2, 1445040, Note_on_c, 0, 64, 95
2, 1445280, Note_off_c, 0, 64, 95
2, 1445280, Note_on_c, 0, 73, 95
2, 1445520, Note_off_c, 0, 73, 95
2, 1445520, Note_on_c, 0, 64, 95
2, 1445760, Note_off_c, 0, 64, 95
2, 1445760, Note_on_c, 0, 76, 95
2, 1446000, Note_off_c, 0, 76, 95
2, 1446000, Note_on_c, 0, 74, 95
2, 1446240, Note_off_c, 0, 74, 95
2, 1446240, Note_on_c, 0, 73, 95
2, 1446480, Note_off_c, 0, 73, 95
2, 1446480, Note_on_c, 0, 64, 95
2, 1446720, Note_off_c, 0, 64, 95
2, 1446720, Note_on_c, 0, 70, 95
2, 1446960, Note_off_c, 0, 70, 95
2, 1446960, Note_on_c, 0, 64, 95
2, 1447200, Note_off_c, 0, 64, 95
2, 1447200, Note_on_c, 0, 74, 95
2, 1447440, Note_off_c, 0, 74, 95
2, 1447440, Note_on_c, 0, 73, 95
2, 1447680, Note_off_c, 0, 73, 95
2, 1447680, Note_on_c, 0, 70, 95
2, 1447920, Note_off_c, 0, 70, 95
2, 1447920, Note_on_c, 0, 64, 95
2, 1448160, Note_off_c, 0, 64, 95
2, 1448160, Note_on_c, 0, 76, 95
2, 1448400, Note_off_c, 0, 76, 95
2, 1448400, Note_on_c, 0, 74, 95
2, 1448640, Note_off_c, 0, 74, 95
2, 1448640, Note_on_c, 0, 73, 95
2, 1448880, Note_off_c, 0, 73, 95
2, 1448880, Note_on_c, 0, 64, 95
2, 1449120, Note_off_c, 0, 64, 95
2, 1449120, Note_on_c, 0, 77, 95
2, 1449360, Note_off_c, 0, 77, 95
2, 1449360, Note_on_c, 0, 76, 95
2, 1449600, Note_off_c, 0, 76, 95
2, 1449600, Note_on_c, 0, 74, 95
2, 1449840, Note_off_c, 0, 74, 95
2, 1449840, Note_on_c, 0, 64, 95
2, 1450080, Note_off_c, 0, 64, 95
2, 1450080, Note_on_c, 0, 79, 95
2, 1450320, Note_off_c, 0, 79, 95
2, 1450320, Note_on_c, 0, 77, 95
2, 1450560, Note_off_c, 0, 77, 95
2, 1450560, Note_on_c, 0, 76, 95
2, 1450800, Note_off_c, 0, 76, 95
2, 1450800, Note_on_c, 0, 64, 95
2, 1451040, Note_off_c, 0, 64, 95
2, 1451040, Note_on_c, 0, 81, 95
2, 1451280, Note_off_c, 0, 81, 95
2, 1451280, Note_on_c, 0, 79, 95
2, 1451520, Note_off_c, 0, 79, 95
2, 1451520, Note_on_c, 0, 77, 95
2, 1451760, Note_off_c, 0, 77, 95
2, 1451760, Note_on_c, 0, 64, 95
2, 1452000, Note_off_c, 0, 64, 95
2, 1452000, Note_on_c, 0, 77, 95
2, 1452240, Note_off_c, 0, 77, 95
2, 1452240, Note_on_c, 0, 76, 95
2, 1452480, Note_off_c, 0, 76, 95
2, 1452480, Note_on_c, 0, 74, 95
2, 1452720, Note_off_c, 0, 74, 95
2, 1452720, Note_on_c, 0, 64, 95
2, 1452960, Note_off_c, 0, 64, 95
2, 1452960, Note_on_c, 0, 73, 95
2, 1453200, Note_off_c, 0, 73, 95
2, 1453200, Note_on_c, 0, 64, 95
2, 1453440, Note_off_c, 0, 64, 95
2, 1453440, Note_on_c, 0, 76, 95
2, 1453680, Note_off_c, 0, 76, 95
2, 1453680, Note_on_c, 0, 74, 95
2, 1453920, Note_off_c, 0, 74, 95
2, 1453920, Note_on_c, 0, 73, 95
2, 1454160, Note_off_c, 0, 73, 95
2, 1454160, Note_on_c, 0, 64, 95
2, 1454400, Note_off_c, 0, 64, 95
2, 1454400, Note_on_c, 0, 70, 95
2, 1454640, Note_off_c, 0, 70, 95
2, 1454640, Note_on_c, 0, 64, 95
2, 1454880, Note_off_c, 0, 64, 95
2, 1454880, Note_on_c, 0, 74, 95
2, 1455120, Note_off_c, 0, 74, 95
2, 1455120, Note_on_c, 0, 73, 95
2, 1455360, Note_off_c, 0, 73, 95
2, 1455360, Note_on_c, 0, 70, 95
2, 1455600, Note_off_c, 0, 70, 95
2, 1455600, Note_on_c, 0, 64, 95
2, 1455840, Note_off_c, 0, 64, 95
2, 1455840, Note_on_c, 0, 77, 95
2, 1456080, Note_off_c, 0, 77, 95
2, 1456080, Note_on_c, 0, 76, 95
2, 1456320, Note_off_c, 0, 76, 95
2, 1456320, Note_on_c, 0, 74, 95
2, 1456560, Note_off_c, 0, 74, 95
2, 1456560, Note_on_c, 0, 64, 95
2, 1456800, Note_off_c, 0, 64, 95
2, 1456800, Note_on_c, 0, 73, 95
2, 1457040, Note_off_c, 0, 73, 95
2, 1457040, Note_on_c, 0, 64, 95
2, 1457280, Note_off_c, 0, 64, 95
2, 1457280, Note_on_c, 0, 79, 95
2, 1457520, Note_off_c, 0, 79, 95
2, 1457520, Note_on_c, 0, 77, 95
2, 1457760, Note_off_c, 0, 77, 95
2, 1457760, Note_on_c, 0, 76, 95
2, 1458000, Note_off_c, 0, 76, 95
2, 1458000, Note_on_c, 0, 64, 95
2, 1458240, Note_off_c, 0, 64, 95
2, 1458240, Note_on_c, 0, 81, 95
2, 1458480, Note_off_c, 0, 81, 95
2, 1458480, Note_on_c, 0, 64, 95
2, 1458720, Note_off_c, 0, 64, 95
2, 1458720, Note_on_c, 0, 82, 95
2, 1458960, Note_off_c, 0, 82, 95
2, 1458960, Note_on_c, 0, 81, 95
2, 1459200, Note_off_c, 0, 81, 95
2, 1459200, Note_on_c, 0, 79, 95
2, 1459440, Note_off_c, 0, 79, 95
2, 1459440, Note_on_c, 0, 64, 95
2, 1459680, Note_off_c, 0, 64, 95
2, 1459680, Note_on_c, 0, 77, 95
2, 1459920, Note_off_c, 0, 77, 95
2, 1459920, Note_on_c, 0, 76, 95
2, 1460160, Note_off_c, 0, 76, 95
2, 1460160, Note_on_c, 0, 74, 95
2, 1460400, Note_off_c, 0, 74, 95
2, 1460400, Note_on_c, 0, 64, 95
2, 1460640, Note_off_c, 0, 64, 95
2, 1460640, Note_on_c, 0, 73, 95
2, 1460880, Note_off_c, 0, 73, 95
2, 1460880, Note_on_c, 0, 64, 95
2, 1461120, Note_off_c, 0, 64, 95
2, 1461120, Note_on_c, 0, 76, 95
2, 1461360, Note_off_c, 0, 76, 95
2, 1461360, Note_on_c, 0, 74, 95
2, 1461600, Note_off_c, 0, 74, 95
2, 1461600, Note_on_c, 0, 73, 95
2, 1461840, Note_off_c, 0, 73, 95
2, 1461840, Note_on_c, 0, 64, 95
2, 1462080, Note_off_c, 0, 64, 95
2, 1462080, Note_on_c, 0, 70, 95
2, 1462320, Note_off_c, 0, 70, 95
2, 1462320, Note_on_c, 0, 64, 95
2, 1462560, Note_off_c, 0, 64, 95
2, 1462560, Note_on_c, 0, 74, 95
2, 1462800, Note_off_c, 0, 74, 95
2, 1462800, Note_on_c, 0, 73, 95
2, 1463040, Note_off_c, 0, 73, 95
2, 1463040, Note_on_c, 0, 70, 95
2, 1463280, Note_off_c, 0, 70, 95
2, 1463280, Note_on_c, 0, 64, 95
2, 1463520, Note_off_c, 0, 64, 95
2, 1463520, Note_on_c, 0, 76, 95
2, 1463760, Note_off_c, 0, 76, 95
2, 1463760, Note_on_c, 0, 74, 95
2, 1464000, Note_off_c, 0, 74, 95
2, 1464000, Note_on_c, 0, 73, 95
2, 1464240, Note_off_c, 0, 73, 95
2, 1464240, Note_on_c, 0, 64, 95
2, 1464480, Note_off_c, 0, 64, 95
2, 1464480, Note_on_c, 0, 77, 95
2, 1464720, Note_off_c, 0, 77, 95
2, 1464720, Note_on_c, 0, 76, 95
2, 1464960, Note_off_c, 0, 76, 95
2, 1464960, Note_on_c, 0, 74, 95
2, 1465200, Note_off_c, 0, 74, 95
2, 1465200, Note_on_c, 0, 64, 95
2, 1465440, Note_off_c, 0, 64, 95
2, 1465440, Note_on_c, 0, 79, 95
2, 1465680, Note_off_c, 0, 79, 95
2, 1465680, Note_on_c, 0, 77, 95
2, 1465920, Note_off_c, 0, 77, 95
2, 1465920, Note_on_c, 0, 76, 95
2, 1466160, Note_off_c, 0, 76, 95
2, 1466160, Note_on_c, 0, 64, 95
2, 1466400, Note_off_c, 0, 64, 95
2, 1466400, Note_on_c, 0, 81, 95
2, 1466640, Note_off_c, 0, 81, 95
2, 1466640, Note_on_c, 0, 79, 95
2, 1466880, Note_off_c, 0, 79, 95
2, 1466880, Note_on_c, 0, 77, 95
2, 1467120, Note_off_c, 0, 77, 95
2, 1467120, Note_on_c, 0, 64, 95
2, 1467360, Note_off_c, 0, 64, 95
2, 1467360, Note_on_c, 0, 77, 95
2, 1467600, Note_off_c, 0, 77, 95
2, 1467600, Note_on_c, 0, 76, 95
2, 1467840, Note_off_c, 0, 76, 95
2, 1467840, Note_on_c, 0, 74, 95
2, 1468080, Note_off_c, 0, 74, 95
2, 1468080, Note_on_c, 0, 64, 95
2, 1468320, Note_off_c, 0, 64, 95
2, 1468320, Note_on_c, 0, 73, 95
2, 1468560, Note_off_c, 0, 73, 95
2, 1468560, Note_on_c, 0, 64, 95
2, 1468800, Note_off_c, 0, 64, 95
2, 1468800, Note_on_c, 0, 76, 95
2, 1469040, Note_off_c, 0, 76, 95
2, 1469040, Note_on_c, 0, 74, 95
2, 1469280, Note_off_c, 0, 74, 95
2, 1469280, Note_on_c, 0, 73, 95
2, 1469520, Note_off_c, 0, 73, 95
2, 1469520, Note_on_c, 0, 64, 95
2, 1469760, Note_off_c, 0, 64, 95
2, 1469760, Note_on_c, 0, 70, 95
2, 1470000, Note_off_c, 0, 70, 95
2, 1470000, Note_on_c, 0, 64, 95
2, 1470240, Note_off_c, 0, 64, 95
2, 1470240, Note_on_c, 0, 74, 95
2, 1470480, Note_off_c, 0, 74, 95
2, 1470480, Note_on_c, 0, 73, 95
2, 1470720, Note_off_c, 0, 73, 95
2, 1470720, Note_on_c, 0, 70, 95
2, 1470960, Note_off_c, 0, 70, 95
2, 1470960, Note_on_c, 0, 64, 95
2, 1471200, Note_off_c, 0, 64, 95
2, 1471200, Note_on_c, 0, 77, 95
2, 1471440, Note_off_c, 0, 77, 95
2, 1471440, Note_on_c, 0, 76, 95
2, 1471680, Note_off_c, 0, 76, 95
2, 1471680, Note_on_c, 0, 74, 95
2, 1471920, Note_off_c, 0, 74, 95
2, 1471920, Note_on_c, 0, 64, 95
2, 1472160, Note_off_c, 0, 64, 95
2, 1472160, Note_on_c, 0, 73, 95
2, 1472400, Note_off_c, 0, 73, 95
2, 1472400, Note_on_c, 0, 64, 95
2, 1472640, Note_off_c, 0, 64, 95
2, 1472640, Note_on_c, 0, 79, 95
2, 1472880, Note_off_c, 0, 79, 95
2, 1472880, Note_on_c, 0, 77, 95
2, 1473120, Note_off_c, 0, 77, 95
2, 1473120, Note_on_c, 0, 76, 95
2, 1473360, Note_off_c, 0, 76, 95
2, 1473360, Note_on_c, 0, 64, 95
2, 1473600, Note_off_c, 0, 64, 95
2, 1473600, Note_on_c, 0, 81, 95
2, 1473840, Note_off_c, 0, 81, 95
2, 1473840, Note_on_c, 0, 64, 95
2, 1474080, Note_off_c, 0, 64, 95
2, 1474080, Note_on_c, 0, 82, 95
2, 1474320, Note_off_c, 0, 82, 95
2, 1474320, Note_on_c, 0, 81, 95
2, 1474560, Note_off_c, 0, 81, 95
2, 1474560, Note_on_c, 0, 79, 95
2, 1474800, Note_off_c, 0, 79, 95
2, 1474800, Note_on_c, 0, 64, 95
2, 1475040, Note_off_c, 0, 64, 95
2, 1475040, Note_on_c, 0, 77, 95
2, 1475280, Note_off_c, 0, 77, 95
2, 1475280, Note_on_c, 0, 76, 95
2, 1475520, Note_off_c, 0, 76, 95
2, 1475520, Note_on_c, 0, 74, 95
2, 1475760, Note_off_c, 0, 74, 95
2, 1475760, Note_on_c, 0, 64, 95
2, 1476000, Note_off_c, 0, 64, 95
2, 1476000, Note_on_c, 0, 73, 95
2, 1476240, Note_off_c, 0, 73, 95
2, 1476240, Note_on_c, 0, 64, 95
2, 1476480, Note_off_c, 0, 64, 95
2, 1476480, Note_on_c, 0, 76, 95
2, 1476720, Note_off_c, 0, 76, 95
2, 1476720, Note_on_c, 0, 74, 95
2, 1476960, Note_off_c, 0, 74, 95
2, 1476960, Note_on_c, 0, 73, 95
2, 1477200, Note_off_c, 0, 73, 95
2, 1477200, Note_on_c, 0, 64, 95
2, 1477440, Note_off_c, 0, 64, 95
2, 1477440, Note_on_c, 0, 70, 95
2, 1477680, Note_off_c, 0, 70, 95
2, 1477680, Note_on_c, 0, 64, 95
2, 1477920, Note_off_c, 0, 64, 95
2, 1477920, Note_on_c, 0, 74, 95
2, 1478160, Note_off_c, 0, 74, 95
2, 1478160, Note_on_c, 0, 73, 95
2, 1478400, Note_off_c, 0, 73, 95
2, 1478400, Note_on_c, 0, 70, 95
2, 1478640, Note_off_c, 0, 70, 95
2, 1478640, Note_on_c, 0, 64, 95
2, 1478880, Note_off_c, 0, 64, 95
2, 1478880, Note_on_c, 0, 76, 95
2, 1479120, Note_off_c, 0, 76, 95
2, 1479120, Note_on_c, 0, 74, 95
2, 1479360, Note_off_c, 0, 74, 95
2, 1479360, Note_on_c, 0, 73, 95
2, 1479600, Note_off_c, 0, 73, 95
2, 1479600, Note_on_c, 0, 64, 95
2, 1479840, Note_off_c, 0, 64, 95
2, 1479840, Note_on_c, 0, 77, 95
2, 1480080, Note_off_c, 0, 77, 95
2, 1480080, Note_on_c, 0, 76, 95
2, 1480320, Note_off_c, 0, 76, 95
2, 1480320, Note_on_c, 0, 74, 95
2, 1480560, Note_off_c, 0, 74, 95
2, 1480560, Note_on_c, 0, 64, 95
2, 1480800, Note_off_c, 0, 64, 95
2, 1480800, Note_on_c, 0, 79, 95
2, 1481040, Note_off_c, 0, 79, 95
2, 1481040, Note_on_c, 0, 77, 95
2, 1481280, Note_off_c, 0, 77, 95
2, 1481280, Note_on_c, 0, 76, 95
2, 1481520, Note_off_c, 0, 76, 95
2, 1481520, Note_on_c, 0, 64, 95
2, 1481760, Note_off_c, 0, 64, 95
2, 1481760, Note_on_c, 0, 81, 95
2, 1482000, Note_off_c, 0, 81, 95
2, 1482000, Note_on_c, 0, 79, 95
2, 1482240, Note_off_c, 0, 79, 95
2, 1482240, Note_on_c, 0, 77, 95
2, 1482480, Note_off_c, 0, 77, 95
2, 1482480, Note_on_c, 0, 64, 95
2, 1482720, Note_off_c, 0, 64, 95
2, 1482720, End_track
3, 0, Start_track
3, 0, Pitch_bend_c, 2, 8192
3, 0, Control_c, 2, 7, 103
3, 0, Control_c, 2, 10, 63
3, 0, Control_c, 2, 93, 0
3, 0, Control_c, 2, 91, 0
3, 0, Control_c, 2, 95, 0
3, 0, Control_c, 2, 92, 0
3, 0, Control_c, 2, 11, 127
3, 0, Program_c, 2, 30
3, 0, Control_c, 3, 7, 103
3, 0, Control_c, 3, 10, 63
3, 0, Control_c, 3, 93, 0
3, 0, Control_c, 3, 91, 0
3, 0, Control_c, 3, 95, 0
3, 0, Control_c, 3, 92, 0
3, 0, Control_c, 3, 11, 127
3, 0, Program_c, 3, 30
3, 35520, Note_on_c, 2, 49, 95
3, 35760, Note_off_c, 2, 49, 95
3, 35760, Note_on_c, 2, 50, 95
3, 36000, Note_off_c, 2, 50, 95
3, 36000, Note_on_c, 2, 52, 95
3, 36240, Note_off_c, 2, 52, 95
3, 36240, Note_on_c, 2, 53, 95
3, 36480, Note_off_c, 2, 53, 95
3, 36480, Note_on_c, 2, 55, 95
3, 36720, Note_off_c, 2, 55, 95
3, 36720, Note_on_c, 2, 56, 95
3, 36960, Note_off_c, 2, 56, 95
3, 36960, Note_on_c, 2, 55, 95
3, 37200, Note_off_c, 2, 55, 95
3, 37200, Note_on_c, 2, 53, 95
3, 37440, Note_off_c, 2, 53, 95
3, 37440, Note_on_c, 2, 52, 95
3, 37680, Note_off_c, 2, 52, 95
3, 37680, Note_on_c, 2, 50, 95
3, 37920, Note_off_c, 2, 50, 95
3, 37920, Note_on_c, 2, 49, 95
3, 38160, Note_off_c, 2, 49, 95
3, 38160, Note_on_c, 2, 46, 95
3, 38400, Note_off_c, 2, 46, 95
3, 38400, Pitch_bend_c, 3, 8192
3, 38400, Note_on_c, 3, 79, 95
3, 38443, Pitch_bend_c, 3, 8320
3, 38486, Pitch_bend_c, 3, 8448
3, 38529, Pitch_bend_c, 3, 8576
3, 38572, Pitch_bend_c, 3, 8704
3, 38615, Pitch_bend_c, 3, 8832
3, 38658, Pitch_bend_c, 3, 8960
3, 38701, Pitch_bend_c, 3, 9088
3, 38744, Pitch_bend_c, 3, 9216
3, 38787, Pitch_bend_c, 3, 9344
3, 38830, Pitch_bend_c, 3, 9472
3, 38873, Pitch_bend_c, 3, 9600
3, 38880, Pitch_bend_c, 3, 9600
3, 39680, Pitch_bend_c, 3, 9600
3, 39709, Pitch_bend_c, 3, 9472
3, 39738, Pitch_bend_c, 3, 9344
3, 39767, Pitch_bend_c, 3, 9216
3, 39796, Pitch_bend_c, 3, 9088
3, 39825, Pitch_bend_c, 3, 8960
3, 39854, Pitch_bend_c, 3, 8832
3, 39883, Pitch_bend_c, 3, 8704
3, 39912, Pitch_bend_c, 3, 8576
3, 39941, Pitch_bend_c, 3, 8448
3, 39970, Pitch_bend_c, 3, 8320
3, 39999, Pitch_bend_c, 3, 8192
3, 40000, Pitch_bend_c, 3, 8192
3, 40320, Pitch_bend_c, 3, 8192
3, 40320, Pitch_bend_c, 3, 8192
3, 40320, Note_off_c, 3, 79, 95
3, 41760, Note_on_c, 3, 76, 95
3, 41920, Pitch_bend_c, 3, 8192
3, 42080, Pitch_bend_c, 3, 8320
3, 42240, Pitch_bend_c, 3, 8192
3, 42240, Pitch_bend_c, 3, 8320
3, 42240, Pitch_bend_c, 3, 8192
3, 42240, Note_off_c, 3, 76, 95
3, 45120, Note_on_c, 2, 74, 95
3, 45600, Note_off_c, 2, 74, 95
3, 45600, Note_on_c, 2, 76, 95
3, 46080, Note_off_c, 2, 76, 95
3, 46080, Note_on_c, 2, 73, 95
3, 48960, Note_off_c, 2, 73, 95
3, 48960, Note_on_c, 2, 69, 95
3, 49440, Note_off_c, 2, 69, 95
3, 49440, Note_on_c, 2, 69, 95
3, 51840, Note_off_c, 2, 69, 95
3, 52800, Note_on_c, 2, 67, 95
3, 53280, Note_off_c, 2, 67, 95
3, 53280, Note_on_c, 2, 69, 95
3, 53760, Note_off_c, 2, 69, 95
3, 53760, Note_on_c, 2, 69, 95
3, 55200, Note_off_c, 2, 69, 95
3, 55200, Note_on_c, 2, 67, 95
3, 56640, Note_off_c, 2, 67, 95
3, 56640, Note_on_c, 2, 65, 95
3, 57600, Note_off_c, 2, 65, 95
3, 57600, Note_on_c, 2, 64, 95
3, 59040, Note_off_c, 2, 64, 95
3, 59040, Note_on_c, 2, 67, 95
3, 60480, Note_off_c, 2, 67, 95
3, 60480, Note_on_c, 2, 69, 95
3, 61440, Note_off_c, 2, 69, 95
3, 61440, Note_on_c, 3, 69, 79
3, 61600, Pitch_bend_c, 3, 8192
3, 61760, Pitch_bend_c, 3, 8320
3, 61920, Pitch_bend_c, 3, 8192
3, 62080, Pitch_bend_c, 3, 8320
3, 62240, Pitch_bend_c, 3, 8192
3, 62400, Pitch_bend_c, 3, 8320
3, 62560, Pitch_bend_c, 3, 8192
3, 62720, Pitch_bend_c, 3, 8320
3, 62880, Pitch_bend_c, 3, 8192
3, 63040, Pitch_bend_c, 3, 8320
3, 63200, Pitch_bend_c, 3, 8192
3, 63360, Pitch_bend_c, 3, 8320
3, 63520, Pitch_bend_c, 3, 8192
3, 63680, Pitch_bend_c, 3, 8320
3, 63840, Pitch_bend_c, 3, 8192
3, 64000, Pitch_bend_c, 3, 8320
3, 64160, Pitch_bend_c, 3, 8192
3, 64320, Pitch_bend_c, 3, 8320
3, 64480, Pitch_bend_c, 3, 8192
3, 64640, Pitch_bend_c, 3, 8320
3, 64800, Pitch_bend_c, 3, 8192
3, 64960, Pitch_bend_c, 3, 8320
3, 65120, Pitch_bend_c, 3, 8192
3, 65280, Pitch_bend_c, 3, 8320
3, 65440, Pitch_bend_c, 3, 8192
3, 65600, Pitch_bend_c, 3, 8320
3, 65760, Pitch_bend_c, 3, 8192
3, 65920, Pitch_bend_c, 3, 8320
3, 66080, Pitch_bend_c, 3, 8192
3, 66240, Pitch_bend_c, 3, 8320
3, 66400, Pitch_bend_c, 3, 8192
3, 66560, Pitch_bend_c, 3, 8320
3, 66720, Pitch_bend_c, 3, 8192
3, 66880, Pitch_bend_c, 3, 8320
3, 67040, Pitch_bend_c, 3, 8192
3, 67200, Pitch_bend_c, 3, 8320
3, 67360, Pitch_bend_c, 3, 8192
3, 67520, Pitch_bend_c, 3, 8320
3, 67680, Pitch_bend_c, 3, 8192
3, 67840, Pitch_bend_c, 3, 8320
3, 68000, Pitch_bend_c, 3, 8192
3, 68160, Pitch_bend_c, 3, 8320
3, 68320, Pitch_bend_c, 3, 8192
3, 68480, Pitch_bend_c, 3, 8320
3, 68640, Pitch_bend_c, 3, 8192
3, 68800, Pitch_bend_c, 3, 8320
3, 68960, Pitch_bend_c, 3, 8192
3, 69120, Pitch_bend_c, 3, 8320
3, 69120, Pitch_bend_c, 3, 8192
3, 69120, Note_off_c, 3, 69, 79
3, 100800, Note_on_c, 2, 62, 95
3, 101280, Note_off_c, 2, 62, 95
3, 101280, Note_on_c, 2, 64, 95
3, 101760, Note_off_c, 2, 64, 95
3, 102240, Note_on_c, 2, 74, 95
3, 103200, Note_on_c, 2, 64, 95
3, 107520, Note_off_c, 2, 74, 95
3, 107520, Note_off_c, 2, 64, 95
3, 108480, Note_on_c, 2, 62, 95
3, 108960, Note_off_c, 2, 62, 95
3, 108960, Note_on_c, 2, 64, 95
3, 109920, Note_off_c, 2, 64, 95
3, 109920, Note_on_c, 2, 74, 95
3, 113280, Note_off_c, 2, 74, 95
3, 113280, Note_on_c, 2, 77, 63
3, 114240, Note_off_c, 2, 77, 63
3, 114240, Note_on_c, 2, 77, 63
3, 115200, Note_off_c, 2, 77, 63
3, 116160, Note_on_c, 2, 62, 95
3, 116640, Note_off_c, 2, 62, 95
3, 116640, Note_on_c, 2, 64, 95
3, 117120, Note_off_c, 2, 64, 95
3, 117600, Note_on_c, 2, 74, 95
3, 118560, Note_on_c, 2, 64, 95
3, 122880, Note_off_c, 2, 74, 95
3, 122880, Note_off_c, 2, 64, 95
3, 123840, Note_on_c, 2, 62, 95
3, 124320, Note_off_c, 2, 62, 95
3, 124320, Note_on_c, 2, 64, 95
3, 125280, Note_off_c, 2, 64, 95
3, 125280, Note_on_c, 2, 74, 95
3, 128640, Note_off_c, 2, 74, 95
3, 128640, Note_on_c, 2, 79, 63
3, 129600, Note_off_c, 2, 79, 63
3, 129600, Note_on_c, 2, 79, 63
3, 130560, Note_off_c, 2, 79, 63
3, 130560, Note_on_c, 2, 45, 95
3, 131040, Note_on_c, 2, 57, 95
3, 132000, Note_off_c, 2, 45, 95
3, 132000, Note_on_c, 2, 45, 95
3, 132480, Note_off_c, 2, 57, 95
3, 132480, Note_on_c, 2, 57, 95
3, 132960, Note_off_c, 2, 57, 95
3, 132960, Note_on_c, 2, 58, 70
3, 133440, Note_off_c, 2, 58, 70
3, 133440, Note_on_c, 2, 57, 95
3, 133920, Note_off_c, 2, 57, 95
3, 133920, Note_on_c, 2, 55, 95
3, 134400, Note_off_c, 2, 45, 95
3, 134400, Note_off_c, 2, 55, 95
3, 134400, Note_on_c, 2, 45, 95
3, 134880, Note_on_c, 2, 57, 95
3, 135840, Note_off_c, 2, 45, 95
3, 135840, Note_on_c, 2, 45, 95
3, 136320, Note_off_c, 2, 57, 95
3, 136320, Note_on_c, 2, 57, 95
3, 136800, Note_off_c, 2, 57, 95
3, 136800, Note_on_c, 2, 58, 70
3, 137280, Note_off_c, 2, 58, 70
3, 137280, Note_on_c, 2, 57, 95
3, 137760, Note_off_c, 2, 57, 95
3, 137760, Note_on_c, 2, 55, 95
3, 138240, Note_off_c, 2, 45, 95
3, 138240, Note_off_c, 2, 55, 95
3, 138240, Note_on_c, 2, 45, 95
3, 138720, Note_on_c, 2, 57, 95
3, 139680, Note_off_c, 2, 45, 95
3, 139680, Note_on_c, 2, 45, 95
3, 140160, Note_off_c, 2, 57, 95
3, 140160, Note_on_c, 2, 57, 95
3, 140640, Note_off_c, 2, 57, 95
3, 140640, Note_on_c, 2, 58, 70
3, 141120, Note_off_c, 2, 58, 70
3, 141120, Note_on_c, 2, 57, 95
3, 141600, Note_off_c, 2, 57, 95
3, 141600, Note_on_c, 2, 55, 95
3, 142080, Note_off_c, 2, 45, 95
3, 142080, Note_off_c, 2, 55, 95
3, 142080, Note_on_c, 2, 45, 95
3, 142560, Note_on_c, 2, 57, 95
3, 143040, Note_off_c, 2, 57, 95
3, 143040, Note_on_c, 2, 52, 95
3, 143520, Note_off_c, 2, 52, 95
3, 143520, Note_on_c, 2, 53, 70
3, 144000, Note_off_c, 2, 45, 95
3, 144000, Note_off_c, 2, 53, 70
3, 144000, Note_on_c, 2, 45, 95
3, 144480, Note_on_c, 2, 50, 95
3, 144960, Note_off_c, 2, 50, 95
3, 144960, Note_on_c, 2, 52, 70
3, 145920, Note_off_c, 2, 45, 95
3, 145920, Note_off_c, 2, 52, 70
3, 145920, Note_on_c, 2, 45, 95
3, 146400, Note_on_c, 2, 57, 95
3, 147360, Note_off_c, 2, 45, 95
3, 147360, Note_on_c, 2, 45, 95
3, 147840, Note_off_c, 2, 57, 95
3, 147840, Note_on_c, 2, 57, 95
3, 148320, Note_off_c, 2, 57, 95
3, 148320, Note_on_c, 2, 58, 70
3, 148800, Note_off_c, 2, 58, 70
3, 148800, Note_on_c, 2, 57, 95
3, 149280, Note_off_c, 2, 57, 95
3, 149280, Note_on_c, 2, 55, 95
3, 149760, Note_off_c, 2, 45, 95
3, 149760, Note_off_c, 2, 55, 95
3, 149760, Note_on_c, 2, 45, 95
3, 150240, Note_on_c, 2, 57, 95
3, 151200, Note_off_c, 2, 45, 95
3, 151200, Note_on_c, 2, 45, 95
3, 151680, Note_off_c, 2, 57, 95
3, 151680, Note_on_c, 2, 57, 95
3, 152160, Note_off_c, 2, 57, 95
3, 152160, Note_on_c, 2, 58, 70
3, 152640, Note_off_c, 2, 58, 70
3, 152640, Note_on_c, 2, 57, 95
3, 153120, Note_off_c, 2, 57, 95
3, 153120, Note_on_c, 2, 55, 95
3, 153600, Note_off_c, 2, 45, 95
3, 153600, Note_off_c, 2, 55, 95
3, 153600, Note_on_c, 2, 45, 95
3, 154080, Note_on_c, 2, 57, 95
3, 155040, Note_off_c, 2, 45, 95
3, 155040, Note_on_c, 2, 45, 95
3, 155520, Note_off_c, 2, 57, 95
3, 155520, Note_on_c, 2, 57, 95
3, 156000, Note_off_c, 2, 57, 95
3, 156000, Note_on_c, 2, 58, 70
3, 156480, Note_off_c, 2, 58, 70
3, 156480, Note_on_c, 2, 57, 95
3, 156960, Note_off_c, 2, 57, 95
3, 156960, Note_on_c, 2, 55, 95
3, 157440, Note_off_c, 2, 45, 95
3, 157440, Note_off_c, 2, 55, 95
3, 157440, Note_on_c, 2, 45, 95
3, 157920, Note_on_c, 2, 57, 95
3, 158400, Note_off_c, 2, 57, 95
3, 158400, Note_on_c, 2, 52, 95
3, 158880, Note_off_c, 2, 52, 95
3, 158880, Note_on_c, 2, 53, 70
3, 159360, Note_off_c, 2, 45, 95
3, 159360, Note_off_c, 2, 53, 70
3, 159360, Note_on_c, 2, 45, 95
3, 159840, Note_on_c, 2, 50, 95
3, 160320, Note_off_c, 2, 50, 95
3, 160320, Note_on_c, 2, 52, 70
3, 161280, Note_off_c, 2, 45, 95
3, 161280, Note_off_c, 2, 52, 70
3, 161280, Note_on_c, 2, 45, 95
3, 161760, Note_on_c, 2, 57, 95
3, 162720, Note_off_c, 2, 45, 95
3, 162720, Note_on_c, 2, 45, 95
3, 163200, Note_off_c, 2, 57, 95
3, 163200, Note_on_c, 2, 57, 95
3, 163680, Note_off_c, 2, 57, 95
3, 163680, Note_on_c, 2, 58, 70
3, 164160, Note_off_c, 2, 58, 70
3, 164160, Note_on_c, 2, 57, 95
3, 164640, Note_off_c, 2, 57, 95
3, 164640, Note_on_c, 2, 55, 95
3, 165120, Note_off_c, 2, 45, 95
3, 165120, Note_off_c, 2, 55, 95
3, 165120, Note_on_c, 2, 45, 95
3, 165600, Note_on_c, 2, 57, 95
3, 166560, Note_off_c, 2, 45, 95
3, 166560, Note_on_c, 2, 45, 95
3, 167040, Note_off_c, 2, 57, 95
3, 167040, Note_on_c, 2, 57, 95
3, 167520, Note_off_c, 2, 57, 95
3, 167520, Note_on_c, 2, 58, 70
3, 168000, Note_off_c, 2, 58, 70
3, 168000, Note_on_c, 2, 57, 95
3, 168480, Note_off_c, 2, 57, 95
3, 168480, Note_on_c, 2, 55, 95
3, 168960, Note_off_c, 2, 45, 95
3, 168960, Note_off_c, 2, 55, 95
3, 168960, Note_on_c, 2, 45, 95
3, 169440, Note_on_c, 2, 57, 95
3, 170400, Note_off_c, 2, 45, 95
3, 170400, Note_on_c, 2, 45, 95
3, 170880, Note_off_c, 2, 57, 95
3, 170880, Note_on_c, 2, 57, 95
3, 171360, Note_off_c, 2, 57, 95
3, 171360, Note_on_c, 2, 58, 70
3, 171840, Note_off_c, 2, 58, 70
3, 171840, Note_on_c, 2, 57, 95
3, 172320, Note_off_c, 2, 57, 95
3, 172320, Note_on_c, 2, 55, 95
3, 172800, Note_off_c, 2, 45, 95
3, 172800, Note_off_c, 2, 55, 95
3, 172800, Note_on_c, 2, 45, 95
3, 173280, Note_on_c, 2, 57, 95
3, 173760, Note_off_c, 2, 57, 95
3, 173760, Note_on_c, 2, 52, 95
3, 174240, Note_off_c, 2, 52, 95
3, 174240, Note_on_c, 2, 53, 70
3, 174720, Note_off_c, 2, 45, 95
3, 174720, Note_off_c, 2, 53, 70
3, 174720, Note_on_c, 2, 45, 95
3, 175200, Note_on_c, 2, 50, 95
3, 175680, Note_off_c, 2, 50, 95
3, 175680, Note_on_c, 2, 52, 70
3, 176640, Note_off_c, 2, 45, 95
3, 176640, Note_off_c, 2, 52, 70
3, 176640, Note_on_c, 2, 45, 95
3, 177120, Note_on_c, 2, 57, 95
3, 178080, Note_off_c, 2, 45, 95
3, 178080, Note_on_c, 2, 45, 95
3, 178560, Note_off_c, 2, 57, 95
3, 178560, Note_on_c, 2, 57, 95
3, 179040, Note_off_c, 2, 57, 95
3, 179040, Note_on_c, 2, 58, 70
3, 179520, Note_off_c, 2, 58, 70
3, 179520, Note_on_c, 2, 57, 95
3, 180000, Note_off_c, 2, 57, 95
3, 180000, Note_on_c, 2, 55, 95
3, 180480, Note_off_c, 2, 45, 95
3, 180480, Note_off_c, 2, 55, 95
3, 180480, Note_on_c, 2, 45, 95
3, 180960, Note_on_c, 2, 57, 95
3, 181920, Note_off_c, 2, 45, 95
3, 181920, Note_on_c, 2, 45, 95
3, 182400, Note_off_c, 2, 57, 95
3, 182400, Note_on_c, 2, 57, 95
3, 182880, Note_off_c, 2, 57, 95
3, 182880, Note_on_c, 2, 58, 70
3, 183360, Note_off_c, 2, 58, 70
3, 183360, Note_on_c, 2, 57, 95
3, 183840, Note_off_c, 2, 57, 95
3, 183840, Note_on_c, 2, 55, 95
3, 184320, Note_off_c, 2, 45, 95
3, 184320, Note_off_c, 2, 55, 95
3, 184320, Note_on_c, 2, 45, 95
3, 184800, Note_on_c, 2, 57, 95
3, 185760, Note_off_c, 2, 45, 95
3, 185760, Note_on_c, 2, 45, 95
3, 186240, Note_off_c, 2, 57, 95
3, 186240, Note_on_c, 2, 57, 95
3, 186720, Note_off_c, 2, 57, 95
3, 186720, Note_on_c, 2, 58, 70
3, 187200, Note_off_c, 2, 58, 70
3, 187200, Note_on_c, 2, 57, 95
3, 187680, Note_off_c, 2, 57, 95
3, 187680, Note_on_c, 2, 55, 95
3, 188160, Note_off_c, 2, 45, 95
3, 188160, Note_off_c, 2, 55, 95
3, 188160, Note_on_c, 2, 45, 95
3, 188640, Note_on_c, 2, 57, 95
3, 189120, Note_off_c, 2, 57, 95
3, 189120, Note_on_c, 2, 52, 95
3, 189600, Note_off_c, 2, 52, 95
3, 189600, Note_on_c, 2, 53, 70
3, 190080, Note_off_c, 2, 45, 95
3, 190080, Note_off_c, 2, 53, 70
3, 190080, Note_on_c, 2, 45, 95
3, 190560, Note_on_c, 2, 50, 95
3, 191040, Note_off_c, 2, 50, 95
3, 191040, Note_on_c, 2, 52, 70
3, 192000, Note_off_c, 2, 52, 70
3, 192000, Note_on_c, 2, 43, 95
3, 192480, Note_on_c, 2, 57, 95
3, 193440, Note_off_c, 2, 43, 95
3, 193440, Note_on_c, 2, 43, 95
3, 193920, Note_off_c, 2, 57, 95
3, 193920, Note_on_c, 2, 57, 95
3, 194400, Note_off_c, 2, 57, 95
3, 194400, Note_on_c, 2, 58, 95
3, 194880, Note_off_c, 2, 58, 95
3, 194880, Note_on_c, 2, 55, 95
3, 195360, Note_off_c, 2, 43, 95
3, 195360, Note_on_c, 2, 43, 95
3, 195840, Note_off_c, 2, 55, 95
3, 195840, Note_off_c, 2, 43, 95
3, 195840, Note_on_c, 2, 43, 95
3, 196320, Note_on_c, 2, 57, 95
3, 197280, Note_off_c, 2, 43, 95
3, 197280, Note_on_c, 2, 43, 95
3, 197760, Note_off_c, 2, 57, 95
3, 197760, Note_on_c, 2, 57, 95
3, 198240, Note_off_c, 2, 57, 95
3, 198240, Note_on_c, 2, 58, 95
3, 198720, Note_off_c, 2, 58, 95
3, 198720, Note_on_c, 2, 55, 95
3, 199200, Note_off_c, 2, 43, 95
3, 199200, Note_on_c, 2, 43, 95
3, 199680, Note_off_c, 2, 55, 95
3, 199680, Note_off_c, 2, 43, 95
3, 199680, Note_on_c, 2, 41, 95
3, 200160, Note_on_c, 2, 57, 95
3, 201120, Note_off_c, 2, 41, 95
3, 201120, Note_on_c, 2, 41, 95
3, 201600, Note_off_c, 2, 57, 95
3, 201600, Note_on_c, 2, 57, 95
3, 202080, Note_off_c, 2, 57, 95
3, 202080, Note_on_c, 2, 58, 95
3, 202560, Note_off_c, 2, 58, 95
3, 202560, Note_on_c, 2, 57, 95
3, 203040, Note_off_c, 2, 57, 95
3, 203040, Note_on_c, 2, 55, 95
3, 203520, Note_off_c, 2, 41, 95
3, 203520, Note_off_c, 2, 55, 95
3, 203520, Note_on_c, 2, 40, 95
3, 204000, Note_off_c, 2, 40, 95
3, 204000, Note_on_c, 2, 40, 95
3, 204480, Note_on_c, 2, 52, 95
3, 204960, Note_off_c, 2, 52, 95
3, 204960, Note_on_c, 2, 53, 95
3, 205440, Note_off_c, 2, 45, 95
3, 205440, Note_off_c, 2, 40, 95
3, 205440, Note_off_c, 2, 53, 95
3, 205440, Note_on_c, 2, 40, 95
3, 205920, Note_on_c, 2, 50, 95
3, 206400, Note_off_c, 2, 50, 95
3, 206400, Note_on_c, 2, 52, 95
3, 207360, Note_off_c, 2, 40, 95
3, 207360, Note_off_c, 2, 52, 95
3, 207360, Note_on_c, 2, 45, 95
3, 207840, Note_on_c, 2, 57, 95
3, 208800, Note_off_c, 2, 45, 95
3, 208800, Note_on_c, 2, 45, 95
3, 209280, Note_off_c, 2, 57, 95
3, 209280, Note_on_c, 2, 57, 95
3, 209760, Note_off_c, 2, 57, 95
3, 209760, Note_on_c, 2, 58, 95
3, 210240, Note_off_c, 2, 58, 95
3, 210240, Note_on_c, 2, 57, 95
3, 210720, Note_off_c, 2, 57, 95
3, 210720, Note_on_c, 2, 55, 95
3, 211200, Note_off_c, 2, 45, 95
3, 211200, Note_off_c, 2, 55, 95
3, 211200, Note_on_c, 2, 45, 95
3, 211680, Note_on_c, 2, 57, 95
3, 212640, Note_off_c, 2, 45, 95
3, 212640, Note_on_c, 2, 45, 95
3, 213120, Note_off_c, 2, 57, 95
3, 213120, Note_on_c, 2, 57, 95
3, 213600, Note_off_c, 2, 57, 95
3, 213600, Note_on_c, 2, 58, 95
3, 214080, Note_off_c, 2, 58, 95
3, 214080, Note_on_c, 2, 57, 95
3, 214560, Note_off_c, 2, 57, 95
3, 214560, Note_on_c, 2, 55, 95
3, 215040, Note_off_c, 2, 45, 95
3, 215040, Note_off_c, 2, 55, 95
3, 215040, Note_on_c, 2, 45, 95
3, 215520, Note_on_c, 2, 57, 95
3, 216480, Note_off_c, 2, 45, 95
3, 216480, Note_on_c, 2, 45, 95
3, 216960, Note_off_c, 2, 57, 95
3, 216960, Note_on_c, 2, 57, 95
3, 217440, Note_off_c, 2, 57, 95
3, 217440, Note_on_c, 2, 58, 95
3, 217920, Note_off_c, 2, 58, 95
3, 217920, Note_on_c, 2, 57, 95
3, 218400, Note_off_c, 2, 57, 95
3, 218400, Note_on_c, 2, 55, 95
3, 218880, Note_off_c, 2, 45, 95
3, 218880, Note_off_c, 2, 55, 95
3, 218880, Note_on_c, 2, 45, 95
3, 219360, Note_on_c, 2, 57, 95
3, 219840, Note_off_c, 2, 57, 95
3, 219840, Note_on_c, 2, 52, 95
3, 220320, Note_off_c, 2, 52, 95
3, 220320, Note_on_c, 2, 53, 95
3, 220800, Note_off_c, 2, 45, 95
3, 220800, Note_off_c, 2, 53, 95
3, 220800, Note_on_c, 2, 45, 95
3, 221280, Note_on_c, 2, 50, 95
3, 221760, Note_off_c, 2, 50, 95
3, 221760, Note_on_c, 2, 52, 95
3, 222720, Note_off_c, 2, 45, 95
3, 222720, Note_off_c, 2, 52, 95
3, 222720, Note_on_c, 2, 45, 95
3, 223200, Note_on_c, 2, 57, 95
3, 224160, Note_off_c, 2, 45, 95
3, 224160, Note_on_c, 2, 45, 95
3, 224640, Note_off_c, 2, 57, 95
3, 224640, Note_on_c, 2, 57, 95
3, 225120, Note_off_c, 2, 57, 95
3, 225120, Note_on_c, 2, 58, 95
3, 225600, Note_off_c, 2, 58, 95
3, 225600, Note_on_c, 2, 57, 95
3, 226080, Note_off_c, 2, 57, 95
3, 226080, Note_on_c, 2, 55, 95
3, 226560, Note_off_c, 2, 45, 95
3, 226560, Note_off_c, 2, 55, 95
3, 226560, Note_on_c, 2, 45, 95
3, 227040, Note_on_c, 2, 57, 95
3, 228000, Note_off_c, 2, 45, 95
3, 228000, Note_on_c, 2, 45, 95
3, 228480, Note_off_c, 2, 57, 95
3, 228480, Note_on_c, 2, 57, 95
3, 228960, Note_off_c, 2, 57, 95
3, 228960, Note_on_c, 2, 58, 95
3, 229440, Note_off_c, 2, 58, 95
3, 229440, Note_on_c, 2, 57, 95
3, 229920, Note_off_c, 2, 57, 95
3, 229920, Note_on_c, 2, 55, 95
3, 230400, Note_off_c, 2, 45, 95
3, 230400, Note_off_c, 2, 55, 95
3, 230400, Note_on_c, 2, 45, 95
3, 230880, Note_on_c, 2, 57, 95
3, 231840, Note_off_c, 2, 45, 95
3, 231840, Note_on_c, 2, 45, 95
3, 232320, Note_off_c, 2, 57, 95
3, 232320, Note_on_c, 2, 57, 95
3, 232800, Note_off_c, 2, 57, 95
3, 232800, Note_on_c, 2, 58, 95
3, 233280, Note_off_c, 2, 58, 95
3, 233280, Note_on_c, 2, 57, 95
3, 233760, Note_off_c, 2, 57, 95
3, 233760, Note_on_c, 2, 55, 95
3, 234240, Note_off_c, 2, 45, 95
3, 234240, Note_off_c, 2, 55, 95
3, 234240, Note_on_c, 2, 45, 95
3, 234720, Note_on_c, 2, 57, 95
3, 235200, Note_off_c, 2, 57, 95
3, 235200, Note_on_c, 2, 52, 95
3, 235680, Note_off_c, 2, 52, 95
3, 235680, Note_on_c, 2, 53, 95
3, 236160, Note_off_c, 2, 45, 95
3, 236160, Note_off_c, 2, 53, 95
3, 236160, Note_on_c, 2, 45, 95
3, 236640, Note_on_c, 2, 50, 95
3, 237120, Note_off_c, 2, 50, 95
3, 237120, Note_on_c, 2, 52, 95
3, 238080, Note_off_c, 2, 52, 95
3, 238080, Note_on_c, 2, 43, 95
3, 238560, Note_on_c, 2, 57, 95
3, 239520, Note_off_c, 2, 43, 95
3, 239520, Note_on_c, 2, 43, 95
3, 240000, Note_off_c, 2, 57, 95
3, 240000, Note_on_c, 2, 57, 95
3, 240480, Note_off_c, 2, 57, 95
3, 240480, Note_on_c, 2, 58, 95
3, 240960, Note_off_c, 2, 58, 95
3, 240960, Note_on_c, 2, 55, 95
3, 241440, Note_off_c, 2, 43, 95
3, 241440, Note_on_c, 2, 43, 95
3, 241920, Note_off_c, 2, 55, 95
3, 241920, Note_off_c, 2, 43, 95
3, 241920, Note_on_c, 2, 43, 95
3, 242400, Note_on_c, 2, 57, 95
3, 243360, Note_off_c, 2, 43, 95
3, 243360, Note_on_c, 2, 43, 95
3, 243840, Note_off_c, 2, 57, 95
3, 243840, Note_on_c, 2, 57, 95
3, 244320, Note_off_c, 2, 57, 95
3, 244320, Note_on_c, 2, 58, 95
3, 244800, Note_off_c, 2, 58, 95
3, 244800, Note_on_c, 2, 55, 95
3, 245280, Note_off_c, 2, 43, 95
3, 245280, Note_on_c, 2, 43, 95
3, 245760, Note_off_c, 2, 55, 95
3, 245760, Note_off_c, 2, 43, 95
3, 245760, Note_on_c, 2, 41, 95
3, 246240, Note_on_c, 2, 57, 95
3, 247200, Note_off_c, 2, 41, 95
3, 247200, Note_on_c, 2, 41, 95
3, 247680, Note_off_c, 2, 57, 95
3, 247680, Note_on_c, 2, 57, 95
3, 248160, Note_off_c, 2, 57, 95
3, 248160, Note_on_c, 2, 58, 95
3, 248640, Note_off_c, 2, 58, 95
3, 248640, Note_on_c, 2, 57, 95
3, 249120, Note_off_c, 2, 57, 95
3, 249120, Note_on_c, 2, 55, 95
3, 249600, Note_off_c, 2, 41, 95
3, 249600, Note_off_c, 2, 55, 95
3, 249600, Note_on_c, 2, 40, 95
3, 250080, Note_off_c, 2, 40, 95
3, 250080, Note_on_c, 2, 40, 95
3, 250560, Note_on_c, 2, 52, 95
3, 251040, Note_off_c, 2, 52, 95
3, 251040, Note_on_c, 2, 53, 95
3, 251520, Note_off_c, 2, 45, 95
3, 251520, Note_off_c, 2, 40, 95
3, 251520, Note_off_c, 2, 53, 95
3, 251520, Note_on_c, 2, 40, 95
3, 252000, Note_on_c, 2, 50, 95
3, 252480, Note_off_c, 2, 50, 95
3, 252480, Note_on_c, 2, 52, 95
3, 253440, Note_off_c, 2, 40, 95
3, 253440, Note_off_c, 2, 52, 95
3, 254400, Note_on_c, 2, 62, 95
3, 254880, Note_off_c, 2, 62, 95
3, 254880, Note_on_c, 2, 64, 95
3, 255360, Note_off_c, 2, 64, 95
3, 255840, Note_on_c, 2, 74, 95
3, 256800, Note_on_c, 2, 64, 95
3, 261120, Note_off_c, 2, 74, 95
3, 261120, Note_off_c, 2, 64, 95
3, 262080, Note_on_c, 2, 62, 95
3, 262560, Note_off_c, 2, 62, 95
3, 262560, Note_on_c, 2, 64, 95
3, 263520, Note_off_c, 2, 64, 95
3, 263520, Note_on_c, 2, 74, 95
3, 266880, Note_off_c, 2, 74, 95
3, 266880, Note_on_c, 2, 77, 63
3, 267840, Note_off_c, 2, 77, 63
3, 267840, Note_on_c, 2, 77, 63
3, 268800, Note_off_c, 2, 77, 63
3, 268800, Note_on_c, 2, 41, 95
3, 269280, Note_off_c, 2, 41, 95
3, 269280, Note_on_c, 2, 48, 95
3, 269412, Note_off_c, 2, 48, 95
3, 269760, Note_on_c, 2, 53, 95
3, 269892, Note_off_c, 2, 53, 95
3, 270240, Note_on_c, 2, 57, 95
3, 270720, Note_off_c, 2, 57, 95
3, 270720, Note_on_c, 2, 59, 95
3, 271200, Note_off_c, 2, 59, 95
3, 271200, Note_on_c, 2, 50, 95
3, 271332, Note_off_c, 2, 50, 95
3, 271680, Note_on_c, 2, 55, 95
3, 271812, Note_off_c, 2, 55, 95
3, 272160, Note_on_c, 2, 59, 95
3, 272640, Note_off_c, 2, 59, 95
3, 272640, Note_on_c, 2, 60, 95
3, 273120, Note_off_c, 2, 60, 95
3, 273120, Note_on_c, 2, 52, 95
3, 273600, Note_off_c, 2, 52, 95
3, 273600, Note_on_c, 2, 57, 95
3, 274080, Note_off_c, 2, 57, 95
3, 274080, Note_on_c, 2, 60, 95
3, 274560, Note_off_c, 2, 60, 95
3, 274560, Note_on_c, 2, 59, 95
3, 274680, Note_off_c, 2, 59, 95
3, 274680, Note_on_c, 2, 60, 70
3, 274800, Note_off_c, 2, 60, 70
3, 274800, Note_on_c, 2, 59, 70
3, 274920, Note_off_c, 2, 59, 70
3, 274920, Note_on_c, 2, 55, 95
3, 275400, Note_off_c, 2, 55, 95
3, 275400, Note_on_c, 2, 50, 95
3, 275880, Note_off_c, 2, 50, 95
3, 275880, Note_on_c, 2, 53, 95
3, 276960, Note_off_c, 2, 53, 95
3, 276960, Note_on_c, 2, 48, 95
3, 277092, Note_off_c, 2, 48, 95
3, 277440, Note_on_c, 2, 53, 95
3, 277572, Note_off_c, 2, 53, 95
3, 277920, Note_on_c, 2, 57, 95
3, 278400, Note_off_c, 2, 57, 95
3, 278400, Note_on_c, 2, 59, 95
3, 278880, Note_off_c, 2, 59, 95
3, 278880, Note_on_c, 2, 50, 95
3, 279360, Note_off_c, 2, 50, 95
3, 279360, Note_on_c, 2, 60, 95
3, 279840, Note_off_c, 2, 60, 95
3, 279840, Note_on_c, 2, 59, 95
3, 280320, Note_off_c, 2, 59, 95
3, 280320, Note_on_c, 2, 57, 95
3, 280320, Note_on_c, 2, 52, 95
3, 280320, Note_on_c, 2, 45, 95
3, 281760, Note_off_c, 2, 57, 95
3, 281760, Note_off_c, 2, 52, 95
3, 281760, Note_off_c, 2, 45, 95
3, 281760, Note_on_c, 2, 55, 95
3, 281760, Note_on_c, 2, 50, 95
3, 281760, Note_on_c, 2, 43, 95
3, 282720, Note_off_c, 2, 55, 95
3, 282720, Note_off_c, 2, 50, 95
3, 282720, Note_off_c, 2, 43, 95
3, 282720, Note_on_c, 2, 52, 95
3, 282720, Note_on_c, 2, 47, 95
3, 282720, Note_on_c, 2, 40, 95
3, 283680, Note_off_c, 2, 52, 95
3, 283680, Note_off_c, 2, 47, 95
3, 283680, Note_off_c, 2, 40, 95
3, 283680, Note_on_c, 2, 53, 95
3, 283680, Note_on_c, 2, 48, 95
3, 283680, Note_on_c, 2, 41, 95
3, 284640, Note_off_c, 2, 53, 95
3, 284640, Note_off_c, 2, 48, 95
3, 284640, Note_off_c, 2, 41, 95
3, 284640, Note_on_c, 2, 48, 95
3, 284772, Note_off_c, 2, 48, 95
3, 285120, Note_on_c, 2, 53, 95
3, 285252, Note_off_c, 2, 53, 95
3, 285600, Note_on_c, 2, 57, 95
3, 286080, Note_off_c, 2, 57, 95
3, 286080, Note_on_c, 2, 59, 95
3, 286560, Note_off_c, 2, 59, 95
3, 286560, Note_on_c, 2, 50, 95
3, 286692, Note_off_c, 2, 50, 95
3, 287040, Note_on_c, 2, 55, 95
3, 287172, Note_off_c, 2, 55, 95
3, 287520, Note_on_c, 2, 59, 95
3, 288000, Note_off_c, 2, 59, 95
3, 288000, Note_on_c, 2, 60, 95
3, 288480, Note_off_c, 2, 60, 95
3, 288480, Note_on_c, 2, 52, 95
3, 288960, Note_off_c, 2, 52, 95
3, 288960, Note_on_c, 2, 57, 95
3, 289440, Note_off_c, 2, 57, 95
3, 289440, Note_on_c, 2, 60, 95
3, 289920, Note_off_c, 2, 60, 95
3, 289920, Note_on_c, 2, 62, 95
3, 290400, Note_off_c, 2, 62, 95
3, 290400, Note_on_c, 2, 55, 95
3, 290880, Note_off_c, 2, 55, 95
3, 290880, Note_on_c, 2, 50, 95
3, 291360, Note_off_c, 2, 50, 95
3, 291360, Note_on_c, 2, 53, 95
3, 292320, Note_off_c, 2, 53, 95
3, 292320, Note_on_c, 2, 48, 95
3, 292452, Note_off_c, 2, 48, 95
3, 292800, Note_on_c, 2, 53, 95
3, 292932, Note_off_c, 2, 53, 95
3, 293280, Note_on_c, 2, 60, 95
3, 293760, Note_off_c, 2, 60, 95
3, 293760, Note_on_c, 2, 59, 95
3, 294240, Note_off_c, 2, 59, 95
3, 294240, Note_on_c, 2, 47, 95
3, 294372, Note_off_c, 2, 47, 95
3, 294720, Note_on_c, 2, 55, 95
3, 295200, Note_off_c, 2, 55, 95
3, 295200, Note_on_c, 2, 59, 95
3, 295680, Note_off_c, 2, 59, 95
3, 295680, Note_on_c, 2, 57, 95
3, 295680, Note_on_c, 2, 52, 95
3, 295680, Note_on_c, 2, 45, 95
3, 296640, Note_off_c, 2, 57, 95
3, 296640, Note_off_c, 2, 52, 95
3, 296640, Note_off_c, 2, 45, 95
3, 297120, Note_on_c, 2, 59, 95
3, 297600, Note_off_c, 2, 59, 95
3, 298080, Note_on_c, 2, 60, 95
3, 298560, Note_off_c, 2, 60, 95
3, 299040, Note_on_c, 2, 53, 95
3, 300000, Note_off_c, 2, 53, 95
3, 300000, Note_on_c, 2, 48, 95
3, 300132, Note_off_c, 2, 48, 95
3, 300480, Note_on_c, 2, 53, 95
3, 300612, Note_off_c, 2, 53, 95
3, 300960, Note_on_c, 2, 57, 95
3, 301440, Note_off_c, 2, 57, 95
3, 301440, Note_on_c, 2, 59, 95
3, 301920, Note_off_c, 2, 59, 95
3, 301920, Note_on_c, 2, 50, 95
3, 302052, Note_off_c, 2, 50, 95
3, 302400, Note_on_c, 2, 55, 95
3, 302532, Note_off_c, 2, 55, 95
3, 302880, Note_on_c, 2, 59, 95
3, 303360, Note_off_c, 2, 59, 95
3, 303360, Note_on_c, 2, 60, 95
3, 303840, Note_off_c, 2, 60, 95
3, 303840, Note_on_c, 2, 52, 95
3, 304320, Note_off_c, 2, 52, 95
3, 304320, Note_on_c, 2, 57, 95
3, 304800, Note_off_c, 2, 57, 95
3, 304800, Note_on_c, 2, 60, 95
3, 305280, Note_off_c, 2, 60, 95
3, 305280, Note_on_c, 2, 62, 95
3, 305760, Note_off_c, 2, 62, 95
3, 305760, Note_on_c, 2, 55, 95
3, 306240, Note_off_c, 2, 55, 95
3, 306240, Note_on_c, 2, 59, 95
3, 306720, Note_off_c, 2, 59, 95
3, 306720, Note_on_c, 2, 62, 95
3, 307200, Note_off_c, 2, 62, 95
3, 307200, Note_on_c, 2, 67, 95
3, 307680, Note_off_c, 2, 67, 95
3, 307680, Note_on_c, 2, 62, 95
3, 307920, Note_off_c, 2, 62, 95
3, 307920, Note_on_c, 2, 62, 95
3, 308160, Note_off_c, 2, 62, 95
3, 308160, Note_on_c, 2, 65, 95
3, 308640, Note_off_c, 2, 65, 95
3, 308640, Note_on_c, 3, 64, 95
3, 308800, Pitch_bend_c, 3, 8192
3, 308960, Pitch_bend_c, 3, 8320
3, 309120, Pitch_bend_c, 3, 8192
3, 309280, Pitch_bend_c, 3, 8320
3, 309440, Pitch_bend_c, 3, 8192
3, 309600, Pitch_bend_c, 3, 8320
3, 309600, Pitch_bend_c, 3, 8192
3, 309600, Note_off_c, 3, 64, 95
3, 309600, Note_on_c, 2, 48, 95
3, 310080, Note_off_c, 2, 48, 95
3, 310080, Note_on_c, 2, 52, 95
3, 310560, Note_off_c, 2, 52, 95
3, 310560, Note_on_c, 2, 55, 95
3, 311040, Note_off_c, 2, 55, 95
3, 311040, Note_on_c, 2, 60, 95
3, 311520, Note_off_c, 2, 60, 95
3, 311520, Note_on_c, 2, 62, 95
3, 312000, Note_off_c, 2, 62, 95
3, 312000, Note_on_c, 2, 64, 95
3, 312480, Note_off_c, 2, 64, 95
3, 312480, Note_on_c, 2, 65, 95
3, 312960, Note_off_c, 2, 65, 95
3, 312960, Note_on_c, 2, 50, 95
3, 313440, Note_off_c, 2, 50, 95
3, 313440, Note_on_c, 2, 57, 95
3, 313920, Note_off_c, 2, 57, 95
3, 313920, Note_on_c, 3, 64, 95
3, 314040, Pitch_bend_c, 3, 8320
3, 314160, Pitch_bend_c, 3, 8448
3, 314280, Pitch_bend_c, 3, 8704
3, 314400, Pitch_bend_c, 3, 8832
3, 314400, Pitch_bend_c, 3, 8192
3, 314400, Note_off_c, 3, 64, 95
3, 314400, Note_on_c, 2, 65, 95
3, 314880, Note_off_c, 2, 65, 95
3, 314880, Note_on_c, 2, 46, 95
3, 315360, Note_off_c, 2, 46, 95
3, 315360, Note_on_c, 2, 55, 95
3, 315840, Note_off_c, 2, 55, 95
3, 315840, Note_on_c, 3, 62, 95
3, 315960, Pitch_bend_c, 3, 8448
3, 316080, Pitch_bend_c, 3, 8832
3, 316200, Pitch_bend_c, 3, 9216
3, 316320, Pitch_bend_c, 3, 9600
3, 316320, Pitch_bend_c, 3, 8192
3, 316320, Note_off_c, 3, 62, 95
3, 316320, Note_on_c, 2, 64, 95
3, 316800, Note_off_c, 2, 64, 95
3, 316800, Note_on_c, 2, 48, 95
3, 317280, Note_off_c, 2, 48, 95
3, 317280, Note_on_c, 2, 55, 95
3, 317760, Note_off_c, 2, 55, 95
3, 317760, Note_on_c, 3, 64, 95
3, 317880, Pitch_bend_c, 3, 7552
3, 318000, Pitch_bend_c, 3, 6784
3, 318120, Pitch_bend_c, 3, 6144
3, 318240, Pitch_bend_c, 3, 5376
3, 318240, Pitch_bend_c, 3, 8192
3, 318240, Note_off_c, 3, 64, 95
3, 318240, Note_on_c, 2, 60, 95
3, 318720, Note_off_c, 2, 60, 95
3, 318720, Note_on_c, 2, 45, 95
3, 319200, Note_off_c, 2, 45, 95
3, 319200, Note_on_c, 2, 53, 95
3, 319680, Note_off_c, 2, 53, 95
3, 319680, Note_on_c, 3, 60, 95
3, 319800, Pitch_bend_c, 3, 8448
3, 319920, Pitch_bend_c, 3, 8832
3, 320040, Pitch_bend_c, 3, 9216
3, 320160, Pitch_bend_c, 3, 9600
3, 320160, Pitch_bend_c, 3, 8192
3, 320160, Note_off_c, 3, 60, 95
3, 320160, Note_on_c, 2, 62, 95
3, 320640, Note_off_c, 2, 62, 95
3, 320640, Note_on_c, 2, 46, 95
3, 321120, Note_off_c, 2, 46, 95
3, 321120, Note_on_c, 2, 53, 95
3, 321600, Note_off_c, 2, 53, 95
3, 321600, Note_on_c, 3, 62, 95
3, 321720, Pitch_bend_c, 3, 7552
3, 321840, Pitch_bend_c, 3, 6784
3, 321960, Pitch_bend_c, 3, 6144
3, 322080, Pitch_bend_c, 3, 5376
3, 322080, Pitch_bend_c, 3, 8192
3, 322080, Note_off_c, 3, 62, 95
3, 322080, Note_on_c, 2, 58, 95
3, 322560, Note_off_c, 2, 58, 95
3, 322560, Note_on_c, 2, 43, 95
3, 323040, Note_off_c, 2, 43, 95
3, 323040, Note_on_c, 2, 40, 95
3, 323520, Note_off_c, 2, 40, 95
3, 323520, Note_on_c, 2, 58, 95
3, 324000, Note_off_c, 2, 58, 95
3, 324000, Note_on_c, 2, 57, 95
3, 324480, Note_off_c, 2, 57, 95
3, 324480, Note_on_c, 2, 53, 95
3, 324960, Note_off_c, 2, 53, 95
3, 324960, Note_on_c, 2, 48, 95
3, 325440, Note_off_c, 2, 48, 95
3, 325440, Note_on_c, 2, 53, 95
3, 325920, Note_off_c, 2, 53, 95
3, 325920, Note_on_c, 2, 57, 95
3, 326400, Note_off_c, 2, 57, 95
3, 326400, Note_on_c, 2, 59, 95
3, 326880, Note_off_c, 2, 59, 95
3, 326880, Note_on_c, 2, 60, 95
3, 327360, Note_off_c, 2, 60, 95
3, 327360, Note_on_c, 2, 45, 95
3, 327840, Note_off_c, 2, 45, 95
3, 327840, Note_on_c, 2, 40, 95
3, 328320, Note_off_c, 2, 40, 95
3, 328320, Note_on_c, 2, 60, 95
3, 328800, Note_off_c, 2, 60, 95
3, 328800, Note_on_c, 2, 62, 95
3, 329280, Note_off_c, 2, 62, 95
3, 329280, Note_on_c, 2, 46, 95
3, 329760, Note_off_c, 2, 46, 95
3, 329760, Note_on_c, 2, 41, 95
3, 330240, Note_off_c, 2, 41, 95
3, 330240, Note_on_c, 2, 58, 95
3, 330720, Note_off_c, 2, 58, 95
3, 330720, Note_on_c, 2, 62, 95
3, 331200, Note_off_c, 2, 62, 95
3, 331200, Note_on_c, 2, 64, 95
3, 331680, Note_off_c, 2, 64, 95
3, 331680, Note_on_c, 2, 65, 95
3, 332160, Note_off_c, 2, 65, 95
3, 332160, Note_on_c, 2, 48, 95
3, 332640, Note_off_c, 2, 48, 95
3, 332640, Note_on_c, 2, 43, 95
3, 333120, Note_off_c, 2, 43, 95
3, 333120, Note_on_c, 2, 60, 95
3, 333600, Note_off_c, 2, 60, 95
3, 333600, Note_on_c, 2, 64, 95
3, 334080, Note_off_c, 2, 64, 95
3, 334080, Note_on_c, 2, 65, 95
3, 334560, Note_off_c, 2, 65, 95
3, 334560, Note_on_c, 2, 67, 95
3, 335040, Note_off_c, 2, 67, 95
3, 335040, Note_on_c, 2, 74, 95
3, 335040, Note_on_c, 2, 67, 95
3, 335040, Note_on_c, 2, 62, 95
3, 336960, Note_off_c, 2, 74, 95
3, 336960, Note_off_c, 2, 67, 95
3, 336960, Note_off_c, 2, 62, 95
3, 336960, Pitch_bend_c, 3, 8192
3, 336960, Note_on_c, 3, 79, 95
3, 337003, Pitch_bend_c, 3, 8320
3, 337046, Pitch_bend_c, 3, 8448
3, 337089, Pitch_bend_c, 3, 8576
3, 337132, Pitch_bend_c, 3, 8704
3, 337175, Pitch_bend_c, 3, 8832
3, 337218, Pitch_bend_c, 3, 8960
3, 337261, Pitch_bend_c, 3, 9088
3, 337304, Pitch_bend_c, 3, 9216
3, 337347, Pitch_bend_c, 3, 9344
3, 337390, Pitch_bend_c, 3, 9472
3, 337433, Pitch_bend_c, 3, 9600
3, 337440, Pitch_bend_c, 3, 9600
3, 338240, Pitch_bend_c, 3, 9600
3, 338269, Pitch_bend_c, 3, 9472
3, 338298, Pitch_bend_c, 3, 9344
3, 338327, Pitch_bend_c, 3, 9216
3, 338356, Pitch_bend_c, 3, 9088
3, 338385, Pitch_bend_c, 3, 8960
3, 338414, Pitch_bend_c, 3, 8832
3, 338443, Pitch_bend_c, 3, 8704
3, 338472, Pitch_bend_c, 3, 8576
3, 338501, Pitch_bend_c, 3, 8448
3, 338530, Pitch_bend_c, 3, 8320
3, 338559, Pitch_bend_c, 3, 8192
3, 338560, Pitch_bend_c, 3, 8192
3, 338880, Pitch_bend_c, 3, 8192
3, 338880, Pitch_bend_c, 3, 8192
3, 338880, Note_off_c, 3, 79, 95
3, 340320, Note_on_c, 3, 76, 95
3, 340480, Pitch_bend_c, 3, 8192
3, 340640, Pitch_bend_c, 3, 8320
3, 340800, Pitch_bend_c, 3, 8192
3, 340800, Pitch_bend_c, 3, 8320
3, 340800, Pitch_bend_c, 3, 8192
3, 340800, Note_off_c, 3, 76, 95
3, 343680, Note_on_c, 2, 74, 95
3, 344160, Note_off_c, 2, 74, 95
3, 344160, Note_on_c, 2, 76, 95
3, 344640, Note_off_c, 2, 76, 95
3, 344640, Note_on_c, 2, 73, 95
3, 347520, Note_off_c, 2, 73, 95
3, 347520, Note_on_c, 2, 69, 95
3, 348000, Note_off_c, 2, 69, 95
3, 348000, Note_on_c, 2, 69, 95
3, 350400, Note_off_c, 2, 69, 95
3, 351360, Note_on_c, 2, 67, 95
3, 351840, Note_off_c, 2, 67, 95
3, 351840, Note_on_c, 2, 69, 95
3, 352320, Note_off_c, 2, 69, 95
3, 352320, Note_on_c, 2, 69, 95
3, 353760, Note_off_c, 2, 69, 95
3, 353760, Note_on_c, 2, 67, 95
3, 355200, Note_off_c, 2, 67, 95
3, 355200, Note_on_c, 2, 65, 95
3, 356160, Note_off_c, 2, 65, 95
3, 356160, Note_on_c, 2, 64, 95
3, 357600, Note_off_c, 2, 64, 95
3, 357600, Note_on_c, 2, 67, 95
3, 359040, Note_off_c, 2, 67, 95
3, 359040, Note_on_c, 2, 69, 95
3, 360000, Note_off_c, 2, 69, 95
3, 360000, Note_on_c, 3, 69, 79
3, 360160, Pitch_bend_c, 3, 8192
3, 360320, Pitch_bend_c, 3, 8320
3, 360480, Pitch_bend_c, 3, 8192
3, 360640, Pitch_bend_c, 3, 8320
3, 360800, Pitch_bend_c, 3, 8192
3, 360960, Pitch_bend_c, 3, 8320
3, 361120, Pitch_bend_c, 3, 8192
3, 361280, Pitch_bend_c, 3, 8320
3, 361440, Pitch_bend_c, 3, 8192
3, 361600, Pitch_bend_c, 3, 8320
3, 361760, Pitch_bend_c, 3, 8192
3, 361920, Pitch_bend_c, 3, 8320
3, 362080, Pitch_bend_c, 3, 8192
3, 362240, Pitch_bend_c, 3, 8320
3, 362400, Pitch_bend_c, 3, 8192
3, 362560, Pitch_bend_c, 3, 8320
3, 362720, Pitch_bend_c, 3, 8192
3, 362880, Pitch_bend_c, 3, 8320
3, 363040, Pitch_bend_c, 3, 8192
3, 363200, Pitch_bend_c, 3, 8320
3, 363360, Pitch_bend_c, 3, 8192
3, 363520, Pitch_bend_c, 3, 8320
3, 363680, Pitch_bend_c, 3, 8192
3, 363840, Pitch_bend_c, 3, 8320
3, 364000, Pitch_bend_c, 3, 8192
3, 364160, Pitch_bend_c, 3, 8320
3, 364320, Pitch_bend_c, 3, 8192
3, 364480, Pitch_bend_c, 3, 8320
3, 364640, Pitch_bend_c, 3, 8192
3, 364800, Pitch_bend_c, 3, 8320
3, 364960, Pitch_bend_c, 3, 8192
3, 365120, Pitch_bend_c, 3, 8320
3, 365280, Pitch_bend_c, 3, 8192
3, 365440, Pitch_bend_c, 3, 8320
3, 365600, Pitch_bend_c, 3, 8192
3, 365760, Pitch_bend_c, 3, 8320
3, 365920, Pitch_bend_c, 3, 8192
3, 366080, Pitch_bend_c, 3, 8320
3, 366240, Pitch_bend_c, 3, 8192
3, 366400, Pitch_bend_c, 3, 8320
3, 366560, Pitch_bend_c, 3, 8192
3, 366720, Pitch_bend_c, 3, 8320
3, 366880, Pitch_bend_c, 3, 8192
3, 367040, Pitch_bend_c, 3, 8320
3, 367200, Pitch_bend_c, 3, 8192
3, 367360, Pitch_bend_c, 3, 8320
3, 367520, Pitch_bend_c, 3, 8192
3, 367680, Pitch_bend_c, 3, 8320
3, 367680, Pitch_bend_c, 3, 8192
3, 367680, Note_off_c, 3, 69, 79
3, 368640, Note_on_c, 2, 62, 95
3, 369120, Note_off_c, 2, 62, 95
3, 369120, Note_on_c, 2, 64, 95
3, 370560, Note_off_c, 2, 64, 95
3, 370560, Note_on_c, 2, 62, 95
3, 371040, Note_off_c, 2, 62, 95
3, 371040, Note_on_c, 2, 64, 95
3, 372480, Note_off_c, 2, 64, 95
3, 376320, Note_on_c, 2, 62, 95
3, 376800, Note_off_c, 2, 62, 95
3, 376800, Note_on_c, 2, 64, 95
3, 378240, Note_off_c, 2, 64, 95
3, 378240, Note_on_c, 2, 62, 95
3, 378720, Note_off_c, 2, 62, 95
3, 378720, Note_on_c, 2, 64, 95
3, 379200, Note_off_c, 2, 64, 95
3, 381120, Note_on_c, 2, 77, 79
3, 382080, Note_off_c, 2, 77, 79
3, 382080, Note_on_c, 2, 77, 79
3, 383040, Note_off_c, 2, 77, 79
3, 384000, Note_on_c, 2, 62, 95
3, 384480, Note_off_c, 2, 62, 95
3, 384480, Note_on_c, 2, 64, 95
3, 385920, Note_off_c, 2, 64, 95
3, 385920, Note_on_c, 2, 62, 95
3, 386400, Note_off_c, 2, 62, 95
3, 386400, Note_on_c, 2, 64, 95
3, 386880, Note_off_c, 2, 64, 95
3, 398400, Note_on_c, 2, 45, 95
3, 398880, Note_on_c, 2, 57, 95
3, 399840, Note_off_c, 2, 45, 95
3, 399840, Note_on_c, 2, 45, 95
3, 400320, Note_off_c, 2, 57, 95
3, 400320, Note_on_c, 2, 57, 95
3, 400800, Note_off_c, 2, 57, 95
3, 400800, Note_on_c, 2, 58, 95
3, 401280, Note_off_c, 2, 58, 95
3, 401280, Note_on_c, 2, 57, 95
3, 401760, Note_off_c, 2, 57, 95
3, 401760, Note_on_c, 2, 55, 95
3, 402240, Note_off_c, 2, 45, 95
3, 402240, Note_off_c, 2, 55, 95
3, 402240, Note_on_c, 2, 45, 95
3, 402720, Note_on_c, 2, 57, 95
3, 403680, Note_off_c, 2, 45, 95
3, 403680, Note_on_c, 2, 45, 95
3, 404160, Note_off_c, 2, 57, 95
3, 404160, Note_on_c, 2, 57, 95
3, 404640, Note_off_c, 2, 57, 95
3, 404640, Note_on_c, 2, 58, 95
3, 405120, Note_off_c, 2, 58, 95
3, 405120, Note_on_c, 2, 57, 95
3, 405600, Note_off_c, 2, 57, 95
3, 405600, Note_on_c, 2, 55, 95
3, 406080, Note_off_c, 2, 45, 95
3, 406080, Note_off_c, 2, 55, 95
3, 406080, Note_on_c, 2, 45, 95
3, 406560, Note_on_c, 2, 57, 95
3, 407520, Note_off_c, 2, 45, 95
3, 407520, Note_on_c, 2, 45, 95
3, 408000, Note_off_c, 2, 57, 95
3, 408000, Note_on_c, 2, 57, 95
3, 408480, Note_off_c, 2, 57, 95
3, 408480, Note_on_c, 2, 58, 95
3, 408960, Note_off_c, 2, 58, 95
3, 408960, Note_on_c, 2, 57, 95
3, 409440, Note_off_c, 2, 57, 95
3, 409440, Note_on_c, 2, 55, 95
3, 409920, Note_off_c, 2, 45, 95
3, 409920, Note_off_c, 2, 55, 95
3, 409920, Note_on_c, 2, 45, 95
3, 410400, Note_on_c, 2, 57, 95
3, 410880, Note_off_c, 2, 57, 95
3, 410880, Note_on_c, 2, 52, 95
3, 411360, Note_off_c, 2, 52, 95
3, 411360, Note_on_c, 2, 53, 95
3, 411840, Note_off_c, 2, 45, 95
3, 411840, Note_off_c, 2, 53, 95
3, 411840, Note_on_c, 2, 45, 95
3, 412320, Note_on_c, 2, 50, 95
3, 412800, Note_off_c, 2, 50, 95
3, 412800, Note_on_c, 2, 52, 95
3, 413760, Note_off_c, 2, 45, 95
3, 413760, Note_off_c, 2, 52, 95
3, 413760, Note_on_c, 2, 45, 95
3, 414240, Note_on_c, 2, 57, 95
3, 415200, Note_off_c, 2, 45, 95
3, 415200, Note_on_c, 2, 45, 95
3, 415680, Note_off_c, 2, 57, 95
3, 415680, Note_on_c, 2, 57, 95
3, 416160, Note_off_c, 2, 57, 95
3, 416160, Note_on_c, 2, 58, 95
3, 416640, Note_off_c, 2, 58, 95
3, 416640, Note_on_c, 2, 57, 95
3, 417120, Note_off_c, 2, 57, 95
3, 417120, Note_on_c, 2, 55, 95
3, 417600, Note_off_c, 2, 45, 95
3, 417600, Note_off_c, 2, 55, 95
3, 417600, Note_on_c, 2, 45, 95
3, 418080, Note_on_c, 2, 57, 95
3, 419040, Note_off_c, 2, 45, 95
3, 419040, Note_on_c, 2, 45, 95
3, 419520, Note_off_c, 2, 57, 95
3, 419520, Note_on_c, 2, 57, 95
3, 420000, Note_off_c, 2, 57, 95
3, 420000, Note_on_c, 2, 58, 95
3, 420480, Note_off_c, 2, 58, 95
3, 420480, Note_on_c, 2, 57, 95
3, 420960, Note_off_c, 2, 57, 95
3, 420960, Note_on_c, 2, 55, 95
3, 421440, Note_off_c, 2, 45, 95
3, 421440, Note_off_c, 2, 55, 95
3, 421440, Note_on_c, 2, 45, 95
3, 421920, Note_on_c, 2, 57, 95
3, 422880, Note_off_c, 2, 45, 95
3, 422880, Note_on_c, 2, 45, 95
3, 423360, Note_off_c, 2, 57, 95
3, 423360, Note_on_c, 2, 57, 95
3, 423840, Note_off_c, 2, 57, 95
3, 423840, Note_on_c, 2, 58, 95
3, 424320, Note_off_c, 2, 58, 95
3, 424320, Note_on_c, 2, 57, 95
3, 424800, Note_off_c, 2, 57, 95
3, 424800, Note_on_c, 2, 55, 95
3, 425280, Note_off_c, 2, 45, 95
3, 425280, Note_off_c, 2, 55, 95
3, 425280, Note_on_c, 2, 45, 95
3, 425760, Note_on_c, 2, 57, 95
3, 426240, Note_off_c, 2, 57, 95
3, 426240, Note_on_c, 2, 52, 95
3, 426720, Note_off_c, 2, 52, 95
3, 426720, Note_on_c, 2, 53, 95
3, 427200, Note_off_c, 2, 45, 95
3, 427200, Note_off_c, 2, 53, 95
3, 427200, Note_on_c, 2, 45, 95
3, 427680, Note_on_c, 2, 50, 95
3, 428160, Note_off_c, 2, 50, 95
3, 428160, Note_on_c, 2, 52, 95
3, 429120, Note_off_c, 2, 45, 95
3, 429120, Note_off_c, 2, 52, 95
3, 429120, Note_on_c, 2, 45, 95
3, 429600, Note_on_c, 2, 57, 95
3, 430560, Note_off_c, 2, 45, 95
3, 430560, Note_on_c, 2, 45, 95
3, 431040, Note_off_c, 2, 57, 95
3, 431040, Note_on_c, 2, 57, 95
3, 431520, Note_off_c, 2, 57, 95
3, 431520, Note_on_c, 2, 58, 95
3, 432000, Note_off_c, 2, 58, 95
3, 432000, Note_on_c, 2, 57, 95
3, 432480, Note_off_c, 2, 57, 95
3, 432480, Note_on_c, 2, 55, 95
3, 432960, Note_off_c, 2, 45, 95
3, 432960, Note_off_c, 2, 55, 95
3, 432960, Note_on_c, 2, 45, 95
3, 433440, Note_on_c, 2, 57, 95
3, 434400, Note_off_c, 2, 45, 95
3, 434400, Note_on_c, 2, 45, 95
3, 434880, Note_off_c, 2, 57, 95
3, 434880, Note_on_c, 2, 57, 95
3, 435360, Note_off_c, 2, 57, 95
3, 435360, Note_on_c, 2, 58, 95
3, 435840, Note_off_c, 2, 58, 95
3, 435840, Note_on_c, 2, 57, 95
3, 436320, Note_off_c, 2, 57, 95
3, 436320, Note_on_c, 2, 55, 95
3, 436800, Note_off_c, 2, 45, 95
3, 436800, Note_off_c, 2, 55, 95
3, 436800, Note_on_c, 2, 45, 95
3, 437280, Note_on_c, 2, 57, 95
3, 438240, Note_off_c, 2, 45, 95
3, 438240, Note_on_c, 2, 45, 95
3, 438720, Note_off_c, 2, 57, 95
3, 438720, Note_on_c, 2, 57, 95
3, 439200, Note_off_c, 2, 57, 95
3, 439200, Note_on_c, 2, 58, 95
3, 439680, Note_off_c, 2, 58, 95
3, 439680, Note_on_c, 2, 57, 95
3, 440160, Note_off_c, 2, 57, 95
3, 440160, Note_on_c, 2, 55, 95
3, 440640, Note_off_c, 2, 45, 95
3, 440640, Note_off_c, 2, 55, 95
3, 440640, Note_on_c, 2, 45, 95
3, 441120, Note_on_c, 2, 57, 95
3, 441600, Note_off_c, 2, 57, 95
3, 441600, Note_on_c, 2, 52, 95
3, 442080, Note_off_c, 2, 52, 95
3, 442080, Note_on_c, 2, 53, 95
3, 442560, Note_off_c, 2, 45, 95
3, 442560, Note_off_c, 2, 53, 95
3, 442560, Note_on_c, 2, 45, 95
3, 443040, Note_on_c, 2, 50, 95
3, 443520, Note_off_c, 2, 50, 95
3, 443520, Note_on_c, 2, 52, 95
3, 444480, Note_off_c, 2, 45, 95
3, 444480, Note_off_c, 2, 52, 95
3, 444480, Note_on_c, 2, 45, 95
3, 444960, Note_on_c, 2, 57, 95
3, 445920, Note_off_c, 2, 45, 95
3, 445920, Note_on_c, 2, 45, 95
3, 446400, Note_off_c, 2, 57, 95
3, 446400, Note_on_c, 2, 57, 95
3, 446880, Note_off_c, 2, 57, 95
3, 446880, Note_on_c, 2, 58, 95
3, 447360, Note_off_c, 2, 58, 95
3, 447360, Note_on_c, 2, 57, 95
3, 447840, Note_off_c, 2, 57, 95
3, 447840, Note_on_c, 2, 55, 95
3, 448320, Note_off_c, 2, 45, 95
3, 448320, Note_off_c, 2, 55, 95
3, 448320, Note_on_c, 2, 45, 95
3, 448800, Note_on_c, 2, 57, 95
3, 449760, Note_off_c, 2, 45, 95
3, 449760, Note_on_c, 2, 45, 95
3, 450240, Note_off_c, 2, 57, 95
3, 450240, Note_on_c, 2, 57, 95
3, 450720, Note_off_c, 2, 57, 95
3, 450720, Note_on_c, 2, 58, 95
3, 451200, Note_off_c, 2, 58, 95
3, 451200, Note_on_c, 2, 57, 95
3, 451680, Note_off_c, 2, 57, 95
3, 451680, Note_on_c, 2, 55, 95
3, 452160, Note_off_c, 2, 45, 95
3, 452160, Note_off_c, 2, 55, 95
3, 452160, Note_on_c, 2, 45, 95
3, 452640, Note_on_c, 2, 57, 95
3, 453600, Note_off_c, 2, 45, 95
3, 453600, Note_on_c, 2, 45, 95
3, 454080, Note_off_c, 2, 57, 95
3, 454080, Note_on_c, 2, 57, 95
3, 454560, Note_off_c, 2, 57, 95
3, 454560, Note_on_c, 2, 58, 95
3, 455040, Note_off_c, 2, 58, 95
3, 455040, Note_on_c, 2, 57, 95
3, 455520, Note_off_c, 2, 57, 95
3, 455520, Note_on_c, 2, 55, 95
3, 456000, Note_off_c, 2, 45, 95
3, 456000, Note_off_c, 2, 55, 95
3, 456000, Note_on_c, 2, 45, 95
3, 456480, Note_on_c, 2, 57, 95
3, 456960, Note_off_c, 2, 57, 95
3, 456960, Note_on_c, 2, 52, 95
3, 457440, Note_off_c, 2, 52, 95
3, 457440, Note_on_c, 2, 53, 95
3, 457920, Note_off_c, 2, 45, 95
3, 457920, Note_off_c, 2, 53, 95
3, 457920, Note_on_c, 2, 45, 95
3, 458400, Note_on_c, 2, 50, 95
3, 458880, Note_off_c, 2, 50, 95
3, 458880, Note_on_c, 2, 52, 95
3, 459840, Note_off_c, 2, 52, 95
3, 459840, Note_on_c, 2, 43, 95
3, 460320, Note_on_c, 2, 57, 95
3, 461280, Note_off_c, 2, 43, 95
3, 461280, Note_on_c, 2, 43, 95
3, 461760, Note_off_c, 2, 57, 95
3, 461760, Note_on_c, 2, 57, 95
3, 462240, Note_off_c, 2, 57, 95
3, 462240, Note_on_c, 2, 58, 95
3, 462720, Note_off_c, 2, 58, 95
3, 462720, Note_on_c, 2, 55, 95
3, 463200, Note_off_c, 2, 43, 95
3, 463200, Note_on_c, 2, 43, 95
3, 463680, Note_off_c, 2, 55, 95
3, 463680, Note_off_c, 2, 43, 95
3, 463680, Note_on_c, 2, 43, 95
3, 464160, Note_on_c, 2, 57, 95
3, 465120, Note_off_c, 2, 43, 95
3, 465120, Note_on_c, 2, 43, 95
3, 465600, Note_off_c, 2, 57, 95
3, 465600, Note_on_c, 2, 57, 95
3, 466080, Note_off_c, 2, 57, 95
3, 466080, Note_on_c, 2, 58, 95
3, 466560, Note_off_c, 2, 58, 95
3, 466560, Note_on_c, 2, 55, 95
3, 467040, Note_off_c, 2, 43, 95
3, 467040, Note_on_c, 2, 43, 95
3, 467520, Note_off_c, 2, 55, 95
3, 467520, Note_off_c, 2, 43, 95
3, 467520, Note_on_c, 2, 41, 95
3, 468000, Note_on_c, 2, 57, 95
3, 468960, Note_off_c, 2, 41, 95
3, 468960, Note_on_c, 2, 41, 95
3, 469440, Note_off_c, 2, 57, 95
3, 469440, Note_on_c, 2, 57, 95
3, 469920, Note_off_c, 2, 57, 95
3, 469920, Note_on_c, 2, 58, 95
3, 470400, Note_off_c, 2, 58, 95
3, 470400, Note_on_c, 2, 57, 95
3, 470880, Note_off_c, 2, 57, 95
3, 470880, Note_on_c, 2, 55, 95
3, 471360, Note_off_c, 2, 41, 95
3, 471360, Note_off_c, 2, 55, 95
3, 471360, Note_on_c, 2, 40, 95
3, 471840, Note_off_c, 2, 40, 95
3, 471840, Note_on_c, 2, 40, 95
3, 472320, Note_on_c, 2, 52, 95
3, 472800, Note_off_c, 2, 52, 95
3, 472800, Note_on_c, 2, 53, 95
3, 473280, Note_off_c, 2, 45, 95
3, 473280, Note_off_c, 2, 40, 95
3, 473280, Note_off_c, 2, 53, 95
3, 473280, Note_on_c, 2, 40, 95
3, 473760, Note_on_c, 2, 50, 95
3, 474240, Note_off_c, 2, 50, 95
3, 474240, Note_on_c, 2, 52, 95
3, 475200, Note_off_c, 2, 40, 95
3, 475200, Note_off_c, 2, 52, 95
3, 476160, Note_on_c, 2, 62, 95
3, 476640, Note_off_c, 2, 62, 95
3, 476640, Note_on_c, 2, 64, 95
3, 477120, Note_off_c, 2, 64, 95
3, 477600, Note_on_c, 2, 74, 95
3, 478560, Note_on_c, 2, 64, 95
3, 482880, Note_off_c, 2, 74, 95
3, 482880, Note_off_c, 2, 64, 95
3, 483840, Note_on_c, 2, 62, 95
3, 484320, Note_off_c, 2, 62, 95
3, 484320, Note_on_c, 2, 64, 95
3, 485280, Note_off_c, 2, 64, 95
3, 485280, Note_on_c, 2, 74, 95
3, 488640, Note_off_c, 2, 74, 95
3, 488640, Note_on_c, 2, 77, 63
3, 489600, Note_off_c, 2, 77, 63
3, 489600, Note_on_c, 2, 77, 63
3, 490560, Note_off_c, 2, 77, 63
3, 490560, Note_on_c, 2, 53, 95
3, 490688, Note_off_c, 2, 53, 95
3, 491040, Note_on_c, 2, 48, 95
3, 491168, Note_off_c, 2, 48, 95
3, 491520, Note_on_c, 2, 53, 95
3, 491648, Note_off_c, 2, 53, 95
3, 492000, Note_on_c, 2, 57, 95
3, 492480, Note_off_c, 2, 57, 95
3, 492480, Note_on_c, 2, 59, 95
3, 492960, Note_off_c, 2, 59, 95
3, 492960, Note_on_c, 2, 50, 95
3, 493088, Note_off_c, 2, 50, 95
3, 493440, Note_on_c, 2, 55, 95
3, 493568, Note_off_c, 2, 55, 95
3, 493920, Note_on_c, 2, 59, 95
3, 494400, Note_off_c, 2, 59, 95
3, 494400, Note_on_c, 2, 60, 95
3, 494880, Note_off_c, 2, 60, 95
3, 494880, Note_on_c, 2, 52, 95
3, 495360, Note_off_c, 2, 52, 95
3, 495360, Note_on_c, 2, 57, 95
3, 495840, Note_off_c, 2, 57, 95
3, 495840, Note_on_c, 2, 60, 95
3, 496320, Note_off_c, 2, 60, 95
3, 496320, Note_on_c, 2, 59, 95
3, 496440, Note_off_c, 2, 59, 95
3, 496440, Note_on_c, 2, 60, 70
3, 496560, Note_off_c, 2, 60, 70
3, 496560, Note_on_c, 2, 59, 70
3, 496680, Note_off_c, 2, 59, 70
3, 496680, Note_on_c, 2, 55, 95
3, 497160, Note_off_c, 2, 55, 95
3, 497160, Note_on_c, 2, 50, 95
3, 497640, Note_off_c, 2, 50, 95
3, 497640, Note_on_c, 2, 53, 95
3, 498720, Note_off_c, 2, 53, 95
3, 498720, Note_on_c, 2, 48, 95
3, 498848, Note_off_c, 2, 48, 95
3, 499200, Note_on_c, 2, 53, 95
3, 499328, Note_off_c, 2, 53, 95
3, 499680, Note_on_c, 2, 57, 95
3, 500160, Note_off_c, 2, 57, 95
3, 500160, Note_on_c, 2, 59, 95
3, 500640, Note_off_c, 2, 59, 95
3, 500640, Note_on_c, 2, 50, 95
3, 501120, Note_off_c, 2, 50, 95
3, 501120, Note_on_c, 2, 60, 95
3, 501600, Note_off_c, 2, 60, 95
3, 501600, Note_on_c, 2, 59, 95
3, 502080, Note_off_c, 2, 59, 95
3, 502080, Note_on_c, 2, 57, 95
3, 502080, Note_on_c, 2, 52, 95
3, 502080, Note_on_c, 2, 45, 95
3, 503520, Note_off_c, 2, 57, 95
3, 503520, Note_off_c, 2, 52, 95
3, 503520, Note_off_c, 2, 45, 95
3, 503520, Note_on_c, 2, 55, 95
3, 503520, Note_on_c, 2, 50, 95
3, 503520, Note_on_c, 2, 43, 95
3, 504480, Note_off_c, 2, 55, 95
3, 504480, Note_off_c, 2, 50, 95
3, 504480, Note_off_c, 2, 43, 95
3, 504480, Note_on_c, 2, 52, 95
3, 504480, Note_on_c, 2, 47, 95
3, 504480, Note_on_c, 2, 40, 95
3, 505440, Note_off_c, 2, 52, 95
3, 505440, Note_off_c, 2, 47, 95
3, 505440, Note_off_c, 2, 40, 95
3, 505440, Note_on_c, 2, 53, 95
3, 505440, Note_on_c, 2, 48, 95
3, 505440, Note_on_c, 2, 41, 95
3, 506400, Note_off_c, 2, 53, 95
3, 506400, Note_off_c, 2, 48, 95
3, 506400, Note_off_c, 2, 41, 95
3, 506400, Note_on_c, 2, 48, 95
3, 506528, Note_off_c, 2, 48, 95
3, 506880, Note_on_c, 2, 53, 95
3, 507008, Note_off_c, 2, 53, 95
3, 507360, Note_on_c, 2, 57, 95
3, 507840, Note_off_c, 2, 57, 95
3, 507840, Note_on_c, 2, 59, 95
3, 508320, Note_off_c, 2, 59, 95
3, 508320, Note_on_c, 2, 50, 95
3, 508448, Note_off_c, 2, 50, 95
3, 508800, Note_on_c, 2, 55, 95
3, 508928, Note_off_c, 2, 55, 95
3, 509280, Note_on_c, 2, 59, 95
3, 509760, Note_off_c, 2, 59, 95
3, 509760, Note_on_c, 2, 60, 95
3, 510240, Note_off_c, 2, 60, 95
3, 510240, Note_on_c, 2, 52, 95
3, 510720, Note_off_c, 2, 52, 95
3, 510720, Note_on_c, 2, 57, 95
3, 511200, Note_off_c, 2, 57, 95
3, 511200, Note_on_c, 2, 60, 95
3, 511680, Note_off_c, 2, 60, 95
3, 511680, Note_on_c, 2, 62, 95
3, 512160, Note_off_c, 2, 62, 95
3, 512160, Note_on_c, 2, 55, 95
3, 512640, Note_off_c, 2, 55, 95
3, 512640, Note_on_c, 2, 50, 95
3, 513120, Note_off_c, 2, 50, 95
3, 513120, Note_on_c, 2, 53, 95
3, 514080, Note_off_c, 2, 53, 95
3, 514080, Note_on_c, 2, 48, 95
3, 514208, Note_off_c, 2, 48, 95
3, 514560, Note_on_c, 2, 53, 95
3, 514688, Note_off_c, 2, 53, 95
3, 515040, Note_on_c, 2, 60, 95
3, 515520, Note_off_c, 2, 60, 95
3, 515520, Note_on_c, 2, 59, 95
3, 516000, Note_off_c, 2, 59, 95
3, 516000, Note_on_c, 2, 47, 95
3, 516128, Note_off_c, 2, 47, 95
3, 516480, Note_on_c, 2, 55, 95
3, 516960, Note_off_c, 2, 55, 95
3, 516960, Note_on_c, 2, 59, 95
3, 517440, Note_off_c, 2, 59, 95
3, 517440, Note_on_c, 2, 57, 95
3, 517440, Note_on_c, 2, 52, 95
3, 517440, Note_on_c, 2, 45, 95
3, 518400, Note_off_c, 2, 57, 95
3, 518400, Note_off_c, 2, 52, 95
3, 518400, Note_off_c, 2, 45, 95
3, 518880, Note_on_c, 2, 59, 95
3, 519360, Note_off_c, 2, 59, 95
3, 519840, Note_on_c, 2, 60, 95
3, 520320, Note_off_c, 2, 60, 95
3, 520800, Note_on_c, 2, 53, 95
3, 521760, Note_off_c, 2, 53, 95
3, 521760, Note_on_c, 2, 48, 95
3, 521888, Note_off_c, 2, 48, 95
3, 522240, Note_on_c, 2, 53, 95
3, 522368, Note_off_c, 2, 53, 95
3, 522720, Note_on_c, 2, 57, 95
3, 523200, Note_off_c, 2, 57, 95
3, 523200, Note_on_c, 2, 59, 95
3, 523680, Note_off_c, 2, 59, 95
3, 523680, Note_on_c, 2, 50, 95
3, 523808, Note_off_c, 2, 50, 95
3, 524160, Note_on_c, 2, 55, 95
3, 524288, Note_off_c, 2, 55, 95
3, 524640, Note_on_c, 2, 59, 95
3, 525120, Note_off_c, 2, 59, 95
3, 525120, Note_on_c, 2, 60, 95
3, 525600, Note_off_c, 2, 60, 95
3, 525600, Note_on_c, 2, 52, 95
3, 526080, Note_off_c, 2, 52, 95
3, 526080, Note_on_c, 2, 57, 95
3, 526560, Note_off_c, 2, 57, 95
3, 526560, Note_on_c, 2, 60, 95
3, 527040, Note_off_c, 2, 60, 95
3, 527040, Note_on_c, 2, 62, 95
3, 527520, Note_off_c, 2, 62, 95
3, 527520, Note_on_c, 2, 55, 95
3, 528000, Note_off_c, 2, 55, 95
3, 528000, Note_on_c, 2, 59, 95
3, 528480, Note_off_c, 2, 59, 95
3, 528480, Note_on_c, 2, 62, 95
3, 528960, Note_off_c, 2, 62, 95
3, 528960, Note_on_c, 2, 67, 95
3, 529440, Note_off_c, 2, 67, 95
3, 529440, Note_on_c, 2, 62, 95
3, 529680, Note_off_c, 2, 62, 95
3, 529680, Note_on_c, 2, 62, 95
3, 529920, Note_off_c, 2, 62, 95
3, 529920, Note_on_c, 2, 65, 95
3, 530400, Note_off_c, 2, 65, 95
3, 530400, Note_on_c, 3, 64, 95
3, 530560, Pitch_bend_c, 3, 8192
3, 530720, Pitch_bend_c, 3, 8320
3, 530880, Pitch_bend_c, 3, 8192
3, 531040, Pitch_bend_c, 3, 8320
3, 531200, Pitch_bend_c, 3, 8192
3, 531360, Pitch_bend_c, 3, 8320
3, 531360, Pitch_bend_c, 3, 8192
3, 531360, Note_off_c, 3, 64, 95
3, 531360, Note_on_c, 2, 48, 95
3, 531840, Note_off_c, 2, 48, 95
3, 531840, Note_on_c, 2, 52, 95
3, 532320, Note_off_c, 2, 52, 95
3, 532320, Note_on_c, 2, 55, 95
3, 532800, Note_off_c, 2, 55, 95
3, 532800, Note_on_c, 2, 60, 95
3, 533280, Note_off_c, 2, 60, 95
3, 533280, Note_on_c, 2, 62, 95
3, 533760, Note_off_c, 2, 62, 95
3, 533760, Note_on_c, 2, 64, 95
3, 534240, Note_off_c, 2, 64, 95
3, 534240, Note_on_c, 2, 65, 95
3, 534720, Note_off_c, 2, 65, 95
3, 534720, Note_on_c, 2, 50, 95
3, 535200, Note_off_c, 2, 50, 95
3, 535200, Note_on_c, 2, 57, 95
3, 535680, Note_off_c, 2, 57, 95
3, 535680, Note_on_c, 3, 64, 95
3, 535800, Pitch_bend_c, 3, 8320
3, 535920, Pitch_bend_c, 3, 8448
3, 536040, Pitch_bend_c, 3, 8704
3, 536160, Pitch_bend_c, 3, 8832
3, 536160, Pitch_bend_c, 3, 8192
3, 536160, Note_off_c, 3, 64, 95
3, 536160, Note_on_c, 2, 65, 95
3, 536640, Note_off_c, 2, 65, 95
3, 536640, Note_on_c, 2, 46, 95
3, 537120, Note_off_c, 2, 46, 95
3, 537120, Note_on_c, 2, 55, 95
3, 537600, Note_off_c, 2, 55, 95
3, 537600, Note_on_c, 3, 62, 95
3, 537720, Pitch_bend_c, 3, 8448
3, 537840, Pitch_bend_c, 3, 8832
3, 537960, Pitch_bend_c, 3, 9216
3, 538080, Pitch_bend_c, 3, 9600
3, 538080, Pitch_bend_c, 3, 8192
3, 538080, Note_off_c, 3, 62, 95
3, 538080, Note_on_c, 2, 64, 95
3, 538560, Note_off_c, 2, 64, 95
3, 538560, Note_on_c, 2, 48, 95
3, 539040, Note_off_c, 2, 48, 95
3, 539040, Note_on_c, 2, 55, 95
3, 539520, Note_off_c, 2, 55, 95
3, 539520, Note_on_c, 3, 64, 95
3, 539640, Pitch_bend_c, 3, 7552
3, 539760, Pitch_bend_c, 3, 6784
3, 539880, Pitch_bend_c, 3, 6144
3, 540000, Pitch_bend_c, 3, 5376
3, 540000, Pitch_bend_c, 3, 8192
3, 540000, Note_off_c, 3, 64, 95
3, 540000, Note_on_c, 2, 60, 95
3, 540480, Note_off_c, 2, 60, 95
3, 540480, Note_on_c, 2, 45, 95
3, 540960, Note_off_c, 2, 45, 95
3, 540960, Note_on_c, 2, 53, 95
3, 541440, Note_off_c, 2, 53, 95
3, 541440, Note_on_c, 3, 60, 95
3, 541560, Pitch_bend_c, 3, 8448
3, 541680, Pitch_bend_c, 3, 8832
3, 541800, Pitch_bend_c, 3, 9216
3, 541920, Pitch_bend_c, 3, 9600
3, 541920, Pitch_bend_c, 3, 8192
3, 541920, Note_off_c, 3, 60, 95
3, 541920, Note_on_c, 2, 62, 95
3, 542400, Note_off_c, 2, 62, 95
3, 542400, Note_on_c, 2, 46, 95
3, 542880, Note_off_c, 2, 46, 95
3, 542880, Note_on_c, 2, 53, 95
3, 543360, Note_off_c, 2, 53, 95
3, 543360, Note_on_c, 3, 62, 95
3, 543480, Pitch_bend_c, 3, 7552
3, 543600, Pitch_bend_c, 3, 6784
3, 543720, Pitch_bend_c, 3, 6144
3, 543840, Pitch_bend_c, 3, 5376
3, 543840, Pitch_bend_c, 3, 8192
3, 543840, Note_off_c, 3, 62, 95
3, 543840, Note_on_c, 2, 58, 95
3, 544320, Note_off_c, 2, 58, 95
3, 544320, Note_on_c, 2, 43, 95
3, 544800, Note_off_c, 2, 43, 95
3, 544800, Note_on_c, 2, 40, 95
3, 545280, Note_off_c, 2, 40, 95
3, 545280, Note_on_c, 2, 58, 95
3, 545760, Note_off_c, 2, 58, 95
3, 545760, Note_on_c, 2, 57, 95
3, 546240, Note_off_c, 2, 57, 95
3, 546240, Note_on_c, 2, 53, 95
3, 546720, Note_off_c, 2, 53, 95
3, 546720, Note_on_c, 2, 48, 95
3, 547200, Note_off_c, 2, 48, 95
3, 547200, Note_on_c, 2, 53, 95
3, 547680, Note_off_c, 2, 53, 95
3, 547680, Note_on_c, 2, 57, 95
3, 548160, Note_off_c, 2, 57, 95
3, 548160, Note_on_c, 2, 59, 95
3, 548640, Note_off_c, 2, 59, 95
3, 548640, Note_on_c, 2, 60, 95
3, 549120, Note_off_c, 2, 60, 95
3, 549120, Note_on_c, 2, 45, 95
3, 549600, Note_off_c, 2, 45, 95
3, 549600, Note_on_c, 2, 40, 95
3, 550080, Note_off_c, 2, 40, 95
3, 550080, Note_on_c, 2, 60, 95
3, 550560, Note_off_c, 2, 60, 95
3, 550560, Note_on_c, 2, 62, 95
3, 551040, Note_off_c, 2, 62, 95
3, 551040, Note_on_c, 2, 46, 95
3, 551520, Note_off_c, 2, 46, 95
3, 551520, Note_on_c, 2, 41, 95
3, 552000, Note_off_c, 2, 41, 95
3, 552000, Note_on_c, 2, 58, 95
3, 552480, Note_off_c, 2, 58, 95
3, 552480, Note_on_c, 2, 62, 95
3, 552960, Note_off_c, 2, 62, 95
3, 552960, Note_on_c, 2, 64, 95
3, 553440, Note_off_c, 2, 64, 95
3, 553440, Note_on_c, 2, 65, 95
3, 553920, Note_off_c, 2, 65, 95
3, 553920, Note_on_c, 2, 48, 95
3, 554400, Note_off_c, 2, 48, 95
3, 554400, Note_on_c, 2, 43, 95
3, 554880, Note_off_c, 2, 43, 95
3, 554880, Note_on_c, 2, 60, 95
3, 555360, Note_off_c, 2, 60, 95
3, 555360, Note_on_c, 2, 64, 95
3, 555840, Note_off_c, 2, 64, 95
3, 555840, Note_on_c, 2, 65, 95
3, 556320, Note_off_c, 2, 65, 95
3, 556320, Note_on_c, 2, 67, 95
3, 556800, Note_off_c, 2, 67, 95
3, 556800, Note_on_c, 2, 74, 95
3, 556800, Note_on_c, 2, 67, 95
3, 556800, Note_on_c, 2, 62, 95
3, 557760, Note_off_c, 2, 74, 95
3, 557760, Note_off_c, 2, 67, 95
3, 557760, Note_off_c, 2, 62, 95
3, 562560, Note_on_c, 2, 61, 95
3, 563040, Note_off_c, 2, 61, 95
3, 563040, Note_on_c, 2, 62, 95
3, 563520, Note_off_c, 2, 62, 95
3, 563520, Note_on_c, 2, 61, 95
3, 564000, Note_off_c, 2, 61, 95
3, 564000, Note_on_c, 2, 59, 95
3, 565920, Note_off_c, 2, 59, 95
3, 565920, Note_on_c, 2, 57, 95
3, 566880, Note_off_c, 2, 57, 95
3, 568320, Note_on_c, 2, 47, 79
3, 568350, Note_on_c, 2, 52, 79
3, 568380, Note_on_c, 2, 59, 95
3, 568410, Note_on_c, 2, 59, 95
3, 570240, Note_off_c, 2, 59, 95
3, 570240, Note_off_c, 2, 59, 95
3, 570240, Note_off_c, 2, 52, 79
3, 570240, Note_off_c, 2, 47, 79
3, 571680, Note_on_c, 2, 55, 95
3, 573600, Note_off_c, 2, 55, 95
3, 573600, Note_on_c, 3, 62, 95
3, 573720, Pitch_bend_c, 3, 8320
3, 573840, Pitch_bend_c, 3, 8448
3, 573960, Pitch_bend_c, 3, 8704
3, 574080, Pitch_bend_c, 3, 8832
3, 574200, Pitch_bend_c, 3, 8960
3, 574320, Pitch_bend_c, 3, 9216
3, 574440, Pitch_bend_c, 3, 9344
3, 574560, Pitch_bend_c, 3, 9600
3, 574560, Pitch_bend_c, 3, 8192
3, 574560, Note_off_c, 3, 62, 95
3, 574560, Note_on_c, 2, 64, 95
3, 575520, Note_off_c, 2, 64, 95
3, 575520, Note_on_c, 2, 61, 95
3, 576960, Note_off_c, 2, 61, 95
3, 577440, Note_on_c, 2, 57, 95
3, 577920, Note_off_c, 2, 57, 95
3, 577920, Note_on_c, 2, 61, 95
3, 578400, Note_off_c, 2, 61, 95
3, 578400, Note_on_c, 2, 62, 95
3, 578880, Note_off_c, 2, 62, 95
3, 578880, Note_on_c, 2, 61, 95
3, 579360, Note_off_c, 2, 61, 95
3, 579360, Note_on_c, 2, 62, 95
3, 579360, Note_on_c, 2, 59, 95
3, 579840, Note_off_c, 2, 62, 95
3, 579840, Note_off_c, 2, 59, 95
3, 581280, Note_on_c, 2, 61, 95
3, 581280, Note_on_c, 2, 57, 95
3, 582240, Note_off_c, 2, 61, 95
3, 582240, Note_off_c, 2, 57, 95
3, 583680, Note_on_c, 2, 52, 95
3, 583710, Note_on_c, 2, 59, 95
3, 583740, Note_on_c, 2, 59, 95
3, 584640, Note_off_c, 2, 59, 95
3, 584640, Note_off_c, 2, 59, 95
3, 584640, Note_off_c, 2, 52, 95
3, 586080, Note_on_c, 2, 60, 95
3, 586560, Note_off_c, 2, 60, 95
3, 586560, Note_on_c, 2, 59, 95
3, 587040, Note_off_c, 2, 59, 95
3, 587040, Note_on_c, 2, 57, 95
3, 588000, Note_off_c, 2, 57, 95
3, 588000, Note_on_c, 2, 50, 95
3, 588480, Note_off_c, 2, 50, 95
3, 588480, Note_on_c, 3, 54, 95
3, 588600, Pitch_bend_c, 3, 8320
3, 588720, Pitch_bend_c, 3, 8448
3, 588840, Pitch_bend_c, 3, 8704
3, 588960, Pitch_bend_c, 3, 8832
3, 588960, Pitch_bend_c, 3, 8192
3, 588960, Note_off_c, 3, 54, 95
3, 588960, Note_on_c, 2, 55, 95
3, 589920, Note_off_c, 2, 55, 95
3, 589920, Note_on_c, 3, 54, 47
3, 590040, Pitch_bend_c, 3, 7552
3, 590160, Pitch_bend_c, 3, 6784
3, 590280, Pitch_bend_c, 3, 6144
3, 590400, Pitch_bend_c, 3, 5376
3, 590400, Pitch_bend_c, 3, 8192
3, 590400, Note_off_c, 3, 54, 47
3, 590400, Note_on_c, 2, 50, 47
3, 590880, Note_off_c, 2, 50, 47
3, 590880, Note_on_c, 3, 43, 47
3, 591000, Pitch_bend_c, 3, 8192
3, 591120, Pitch_bend_c, 3, 8192
3, 591240, Pitch_bend_c, 3, 8192
3, 591360, Pitch_bend_c, 3, 8192
3, 591360, Pitch_bend_c, 3, 8192
3, 591360, Note_on_c, 2, 45, 95
3, 592320, Note_off_c, 3, 43, 47
3, 592320, Note_off_c, 2, 45, 95
3, 592320, Note_on_c, 2, 45, 47
3, 592800, Note_off_c, 2, 45, 47
3, 592800, Note_on_c, 2, 57, 95
3, 593280, Note_off_c, 2, 57, 95
3, 593280, Note_on_c, 2, 61, 95
3, 593760, Note_off_c, 2, 61, 95
3, 593760, Note_on_c, 2, 62, 95
3, 594240, Note_off_c, 2, 62, 95
3, 594240, Note_on_c, 2, 61, 95
3, 594720, Note_off_c, 2, 61, 95
3, 594720, Pitch_bend_c, 3, 8192
3, 594720, Note_on_c, 3, 59, 95
3, 595840, Pitch_bend_c, 3, 8192
3, 595920, Pitch_bend_c, 3, 8320
3, 596000, Pitch_bend_c, 3, 8448
3, 596000, Pitch_bend_c, 3, 8448
3, 596080, Pitch_bend_c, 3, 8320
3, 596160, Pitch_bend_c, 3, 8192
3, 596160, Pitch_bend_c, 3, 8192
3, 596320, Pitch_bend_c, 3, 8192
3, 596640, Pitch_bend_c, 3, 8192
3, 596640, Pitch_bend_c, 3, 8192
3, 596640, Note_off_c, 3, 59, 95
3, 596640, Note_on_c, 2, 57, 95
3, 597600, Note_off_c, 2, 57, 95
3, 599040, Note_on_c, 2, 52, 95
3, 599100, Note_on_c, 2, 59, 95
3, 599160, Note_on_c, 2, 59, 95
3, 600000, Note_off_c, 2, 59, 95
3, 600000, Note_off_c, 2, 59, 95
3, 600000, Note_off_c, 2, 52, 95
3, 601440, Note_on_c, 2, 76, 31
3, 601440, Note_on_c, 2, 88, 95
3, 601920, Note_off_c, 2, 76, 31
3, 601920, Note_off_c, 2, 88, 95
3, 602400, Note_on_c, 2, 71, 31
3, 602400, Note_on_c, 2, 83, 95
3, 603360, Note_on_c, 2, 42, 95
3, 604320, Note_off_c, 2, 71, 31
3, 604320, Note_off_c, 2, 83, 95
3, 604320, Note_on_c, 2, 62, 31
3, 604320, Note_on_c, 2, 74, 95
3, 604800, Note_off_c, 2, 42, 95
3, 604800, Note_on_c, 2, 43, 95
3, 606240, Note_off_c, 2, 62, 31
3, 606240, Note_off_c, 2, 74, 95
3, 606240, Note_off_c, 2, 43, 95
3, 606240, Note_on_c, 2, 64, 95
3, 606720, Note_on_c, 2, 45, 95
3, 607680, Note_off_c, 2, 64, 95
3, 607680, Note_on_c, 2, 52, 47
3, 608160, Note_off_c, 2, 45, 95
3, 608160, Note_off_c, 2, 52, 47
3, 608160, Note_on_c, 2, 57, 95
3, 608640, Note_off_c, 2, 57, 95
3, 608640, Note_on_c, 2, 61, 95
3, 609120, Note_off_c, 2, 61, 95
3, 609120, Note_on_c, 2, 62, 95
3, 609600, Note_off_c, 2, 62, 95
3, 609600, Note_on_c, 2, 61, 95
3, 610080, Note_off_c, 2, 61, 95
3, 610080, Note_on_c, 3, 61, 95
3, 610320, Note_off_c, 3, 61, 95
3, 610560, Note_on_c, 2, 64, 95
3, 611040, Note_off_c, 2, 64, 95
3, 611040, Note_on_c, 2, 62, 95
3, 611520, Note_off_c, 2, 62, 95
3, 611520, Note_on_c, 2, 61, 95
3, 612000, Note_off_c, 2, 61, 95
3, 612000, Note_on_c, 2, 62, 47
3, 612000, Note_on_c, 2, 59, 95
3, 612960, Note_off_c, 2, 62, 47
3, 612960, Note_off_c, 2, 59, 95
3, 612960, Note_on_c, 2, 61, 47
3, 612960, Note_on_c, 2, 57, 95
3, 614400, Note_off_c, 2, 61, 47
3, 614400, Note_off_c, 2, 57, 95
3, 614400, Note_on_c, 2, 52, 95
3, 614460, Note_on_c, 2, 59, 95
3, 614520, Note_on_c, 2, 59, 95
3, 615360, Note_off_c, 2, 59, 95
3, 615360, Note_off_c, 2, 59, 95
3, 615360, Note_off_c, 2, 52, 95
3, 616800, Pitch_bend_c, 3, 8192
3, 616800, Note_on_c, 3, 59, 95
3, 616848, Pitch_bend_c, 3, 8320
3, 616896, Pitch_bend_c, 3, 8448
3, 616944, Pitch_bend_c, 3, 8576
3, 616992, Pitch_bend_c, 3, 8704
3, 617040, Pitch_bend_c, 3, 8832
3, 617040, Pitch_bend_c, 3, 8832
3, 617280, Pitch_bend_c, 3, 8832
3, 617328, Pitch_bend_c, 3, 8704
3, 617376, Pitch_bend_c, 3, 8576
3, 617424, Pitch_bend_c, 3, 8448
3, 617472, Pitch_bend_c, 3, 8320
3, 617520, Pitch_bend_c, 3, 8192
3, 617520, Pitch_bend_c, 3, 8192
3, 617760, Pitch_bend_c, 3, 8192
3, 617760, Pitch_bend_c, 3, 8192
3, 617760, Note_off_c, 3, 59, 95
3, 617760, Note_on_c, 2, 57, 95
3, 618240, Note_off_c, 2, 57, 95
3, 620640, Pitch_bend_c, 3, 8192
3, 620640, Note_on_c, 3, 54, 95
3, 620688, Pitch_bend_c, 3, 8320
3, 620736, Pitch_bend_c, 3, 8448
3, 620784, Pitch_bend_c, 3, 8576
3, 620832, Pitch_bend_c, 3, 8704
3, 620880, Pitch_bend_c, 3, 8832
3, 620880, Pitch_bend_c, 3, 8832
3, 621120, Pitch_bend_c, 3, 8832
3, 621168, Pitch_bend_c, 3, 8704
3, 621216, Pitch_bend_c, 3, 8576
3, 621264, Pitch_bend_c, 3, 8448
3, 621312, Pitch_bend_c, 3, 8320
3, 621360, Pitch_bend_c, 3, 8192
3, 621360, Pitch_bend_c, 3, 8192
3, 621600, Pitch_bend_c, 3, 8192
3, 621600, Pitch_bend_c, 3, 8192
3, 621600, Note_off_c, 3, 54, 95
3, 621600, Note_on_c, 2, 52, 95
3, 622080, Note_off_c, 2, 52, 95
3, 624000, Note_on_c, 2, 57, 31
3, 624000, Note_on_c, 2, 69, 95
3, 624960, Note_on_c, 2, 61, 31
3, 624960, Note_on_c, 2, 73, 95
3, 625920, Note_on_c, 2, 62, 31
3, 625920, Note_on_c, 2, 74, 95
3, 629760, Note_off_c, 2, 57, 31
3, 629760, Note_off_c, 2, 69, 95
3, 629760, Note_off_c, 2, 61, 31
3, 629760, Note_off_c, 2, 73, 95
3, 629760, Note_off_c, 2, 62, 31
3, 629760, Note_off_c, 2, 74, 95
3, 676800, Note_on_c, 2, 57, 47
3, 677280, Note_off_c, 2, 57, 47
3, 677280, Note_on_c, 2, 69, 95
3, 678240, Note_off_c, 2, 69, 95
3, 678240, Note_on_c, 2, 57, 47
3, 678720, Note_off_c, 2, 57, 47
3, 678720, Note_on_c, 2, 69, 95
3, 679200, Note_off_c, 2, 69, 95
3, 679200, Note_on_c, 2, 70, 95
3, 679680, Note_off_c, 2, 70, 95
3, 679680, Note_on_c, 2, 57, 47
3, 680160, Note_off_c, 2, 57, 47
3, 680160, Note_on_c, 2, 67, 95
3, 680640, Note_off_c, 2, 67, 95
3, 680640, Note_on_c, 2, 57, 47
3, 681120, Note_off_c, 2, 57, 47
3, 681120, Note_on_c, 2, 69, 95
3, 682080, Note_off_c, 2, 69, 95
3, 682080, Note_on_c, 2, 57, 47
3, 682560, Note_off_c, 2, 57, 47
3, 682560, Note_on_c, 2, 69, 95
3, 683040, Note_off_c, 2, 69, 95
3, 683040, Note_on_c, 2, 70, 95
3, 683520, Note_off_c, 2, 70, 95
3, 683520, Note_on_c, 2, 57, 47
3, 684000, Note_off_c, 2, 57, 47
3, 684000, Note_on_c, 2, 67, 95
3, 684480, Note_off_c, 2, 67, 95
3, 684480, Note_on_c, 2, 57, 47
3, 684960, Note_off_c, 2, 57, 47
3, 684960, Note_on_c, 2, 69, 95
3, 685920, Note_off_c, 2, 69, 95
3, 685920, Note_on_c, 2, 57, 47
3, 686400, Note_off_c, 2, 57, 47
3, 686400, Note_on_c, 2, 69, 95
3, 686880, Note_off_c, 2, 69, 95
3, 686880, Note_on_c, 2, 70, 95
3, 687360, Note_off_c, 2, 70, 95
3, 687360, Note_on_c, 2, 57, 47
3, 687840, Note_off_c, 2, 57, 47
3, 687840, Note_on_c, 2, 67, 95
3, 688320, Note_off_c, 2, 67, 95
3, 688320, Note_on_c, 2, 69, 95
3, 688800, Note_off_c, 2, 69, 95
3, 688800, Note_on_c, 2, 57, 47
3, 689280, Note_off_c, 2, 57, 47
3, 689280, Note_on_c, 2, 64, 95
3, 689760, Note_off_c, 2, 64, 95
3, 689760, Note_on_c, 2, 65, 95
3, 690240, Note_off_c, 2, 65, 95
3, 690240, Note_on_c, 2, 57, 47
3, 690720, Note_off_c, 2, 57, 47
3, 690720, Note_on_c, 2, 62, 95
3, 691200, Note_off_c, 2, 62, 95
3, 691200, Note_on_c, 2, 64, 95
3, 692160, Note_off_c, 2, 64, 95
3, 692160, Note_on_c, 2, 57, 47
3, 692640, Note_off_c, 2, 57, 47
3, 692640, Note_on_c, 2, 69, 95
3, 693600, Note_off_c, 2, 69, 95
3, 693600, Note_on_c, 2, 57, 47
3, 694080, Note_off_c, 2, 57, 47
3, 694080, Note_on_c, 2, 69, 95
3, 694560, Note_off_c, 2, 69, 95
3, 694560, Note_on_c, 2, 70, 95
3, 695040, Note_off_c, 2, 70, 95
3, 695040, Note_on_c, 2, 57, 47
3, 695520, Note_off_c, 2, 57, 47
3, 695520, Note_on_c, 2, 67, 95
3, 696000, Note_off_c, 2, 67, 95
3, 696000, Note_on_c, 2, 57, 47
3, 696480, Note_off_c, 2, 57, 47
3, 696480, Note_on_c, 2, 69, 95
3, 697440, Note_off_c, 2, 69, 95
3, 697440, Note_on_c, 2, 57, 47
3, 697920, Note_off_c, 2, 57, 47
3, 697920, Note_on_c, 2, 69, 95
3, 698400, Note_off_c, 2, 69, 95
3, 698400, Note_on_c, 2, 70, 95
3, 698880, Note_off_c, 2, 70, 95
3, 698880, Note_on_c, 2, 57, 47
3, 699360, Note_off_c, 2, 57, 47
3, 699360, Note_on_c, 2, 67, 95
3, 699840, Note_off_c, 2, 67, 95
3, 699840, Note_on_c, 2, 57, 47
3, 700320, Note_off_c, 2, 57, 47
3, 700320, Note_on_c, 2, 69, 95
3, 701280, Note_off_c, 2, 69, 95
3, 701280, Note_on_c, 2, 57, 47
3, 701760, Note_off_c, 2, 57, 47
3, 701760, Note_on_c, 2, 69, 95
3, 702240, Note_off_c, 2, 69, 95
3, 702240, Note_on_c, 2, 70, 95
3, 702720, Note_off_c, 2, 70, 95
3, 702720, Note_on_c, 2, 57, 47
3, 703200, Note_off_c, 2, 57, 47
3, 703200, Note_on_c, 2, 67, 95
3, 703680, Note_off_c, 2, 67, 95
3, 703680, Note_on_c, 2, 69, 95
3, 704160, Note_off_c, 2, 69, 95
3, 704160, Note_on_c, 2, 57, 47
3, 704640, Note_off_c, 2, 57, 47
3, 704640, Note_on_c, 2, 64, 95
3, 705120, Note_off_c, 2, 64, 95
3, 705120, Note_on_c, 2, 65, 95
3, 705600, Note_off_c, 2, 65, 95
3, 705600, Note_on_c, 2, 57, 47
3, 706080, Note_off_c, 2, 57, 47
3, 706080, Note_on_c, 2, 62, 95
3, 706560, Note_off_c, 2, 62, 95
3, 706560, Note_on_c, 2, 64, 95
3, 707520, Note_off_c, 2, 64, 95
3, 707520, Note_on_c, 2, 57, 47
3, 708000, Note_off_c, 2, 57, 47
3, 708000, Note_on_c, 2, 69, 95
3, 708960, Note_off_c, 2, 69, 95
3, 708960, Note_on_c, 2, 57, 47
3, 709440, Note_off_c, 2, 57, 47
3, 709440, Note_on_c, 2, 69, 95
3, 709920, Note_off_c, 2, 69, 95
3, 709920, Note_on_c, 2, 70, 95
3, 710400, Note_off_c, 2, 70, 95
3, 710400, Note_on_c, 2, 57, 47
3, 710880, Note_off_c, 2, 57, 47
3, 710880, Note_on_c, 2, 67, 95
3, 711360, Note_off_c, 2, 67, 95
3, 711360, Note_on_c, 2, 57, 47
3, 711840, Note_off_c, 2, 57, 47
3, 711840, Note_on_c, 2, 69, 95
3, 712800, Note_off_c, 2, 69, 95
3, 712800, Note_on_c, 2, 57, 47
3, 713280, Note_off_c, 2, 57, 47
3, 713280, Note_on_c, 2, 69, 95
3, 713760, Note_off_c, 2, 69, 95
3, 713760, Note_on_c, 2, 70, 95
3, 714240, Note_off_c, 2, 70, 95
3, 714240, Note_on_c, 2, 57, 47
3, 714720, Note_off_c, 2, 57, 47
3, 714720, Note_on_c, 2, 67, 95
3, 715200, Note_off_c, 2, 67, 95
3, 715200, Note_on_c, 2, 57, 47
3, 715680, Note_off_c, 2, 57, 47
3, 715680, Note_on_c, 2, 69, 95
3, 716640, Note_off_c, 2, 69, 95
3, 716640, Note_on_c, 2, 57, 47
3, 717120, Note_off_c, 2, 57, 47
3, 717120, Note_on_c, 2, 69, 95
3, 717600, Note_off_c, 2, 69, 95
3, 717600, Note_on_c, 2, 70, 95
3, 718080, Note_off_c, 2, 70, 95
3, 718080, Note_on_c, 2, 57, 47
3, 718560, Note_off_c, 2, 57, 47
3, 718560, Note_on_c, 2, 67, 95
3, 719040, Note_off_c, 2, 67, 95
3, 719040, Note_on_c, 2, 69, 95
3, 719520, Note_off_c, 2, 69, 95
3, 720000, Note_on_c, 3, 64, 95
3, 720000, Note_on_c, 3, 59, 95
3, 720000, Note_on_c, 3, 52, 95
3, 720120, Pitch_bend_c, 3, 8320
3, 720120, Pitch_bend_c, 3, 8320
3, 720120, Pitch_bend_c, 3, 8320
3, 720240, Pitch_bend_c, 3, 8448
3, 720240, Pitch_bend_c, 3, 8448
3, 720240, Pitch_bend_c, 3, 8448
3, 720360, Pitch_bend_c, 3, 8704
3, 720360, Pitch_bend_c, 3, 8704
3, 720360, Pitch_bend_c, 3, 8704
3, 720480, Pitch_bend_c, 3, 8832
3, 720480, Pitch_bend_c, 3, 8192
3, 720480, Note_off_c, 3, 64, 95
3, 720480, Pitch_bend_c, 3, 8832
3, 720480, Pitch_bend_c, 3, 8192
3, 720480, Note_off_c, 3, 59, 95
3, 720480, Pitch_bend_c, 3, 8832
3, 720480, Pitch_bend_c, 3, 8192
3, 720480, Note_off_c, 3, 52, 95
3, 720480, Note_on_c, 2, 65, 95
3, 720480, Note_on_c, 2, 60, 95
3, 720480, Note_on_c, 2, 53, 95
3, 720960, Note_off_c, 2, 65, 95
3, 720960, Note_off_c, 2, 60, 95
3, 720960, Note_off_c, 2, 53, 95
3, 721440, Note_on_c, 3, 62, 95
3, 721440, Note_on_c, 3, 57, 95
3, 721440, Note_on_c, 3, 50, 95
3, 721560, Pitch_bend_c, 3, 8448
3, 721560, Pitch_bend_c, 3, 8448
3, 721560, Pitch_bend_c, 3, 8448
3, 721680, Pitch_bend_c, 3, 8832
3, 721680, Pitch_bend_c, 3, 8832
3, 721680, Pitch_bend_c, 3, 8832
3, 721800, Pitch_bend_c, 3, 9216
3, 721800, Pitch_bend_c, 3, 9216
3, 721800, Pitch_bend_c, 3, 9216
3, 721920, Pitch_bend_c, 3, 9600
3, 721920, Pitch_bend_c, 3, 8192
3, 721920, Note_off_c, 3, 62, 95
3, 721920, Pitch_bend_c, 3, 9600
3, 721920, Pitch_bend_c, 3, 8192
3, 721920, Note_off_c, 3, 57, 95
3, 721920, Pitch_bend_c, 3, 9600
3, 721920, Pitch_bend_c, 3, 8192
3, 721920, Note_off_c, 3, 50, 95
3, 721920, Note_on_c, 3, 64, 95
3, 721920, Note_on_c, 3, 59, 95
3, 721920, Note_on_c, 3, 52, 95
3, 722880, Note_off_c, 3, 64, 95
3, 722880, Note_off_c, 3, 59, 95
3, 722880, Note_off_c, 3, 52, 95
3, 722880, Note_on_c, 2, 67, 95
3, 723360, Note_off_c, 2, 67, 95
3, 723360, Note_on_c, 2, 67, 95
3, 723840, Note_off_c, 2, 67, 95
3, 723840, Note_on_c, 2, 67, 95
3, 724320, Note_off_c, 2, 67, 95
3, 724320, Note_on_c, 2, 67, 95
3, 724800, Note_off_c, 2, 67, 95
3, 724800, Note_on_c, 2, 67, 95
3, 725280, Note_off_c, 2, 67, 95
3, 725280, Note_on_c, 2, 67, 95
3, 725760, Note_off_c, 2, 67, 95
3, 725760, Note_on_c, 2, 67, 95
3, 726240, Note_off_c, 2, 67, 95
3, 726240, Note_on_c, 2, 67, 95
3, 726720, Note_off_c, 2, 67, 95
3, 726720, Note_on_c, 2, 70, 95
3, 727200, Note_off_c, 2, 70, 95
3, 727200, Note_on_c, 2, 70, 95
3, 727680, Note_off_c, 2, 70, 95
3, 727680, Note_on_c, 2, 70, 95
3, 728160, Note_off_c, 2, 70, 95
3, 728160, Note_on_c, 2, 70, 95
3, 728640, Note_off_c, 2, 70, 95
3, 728640, Note_on_c, 2, 70, 95
3, 729120, Note_off_c, 2, 70, 95
3, 729120, Note_on_c, 2, 70, 95
3, 729600, Note_off_c, 2, 70, 95
3, 729600, Note_on_c, 2, 70, 95
3, 730080, Note_off_c, 2, 70, 95
3, 730080, Note_on_c, 2, 70, 95
3, 730560, Note_off_c, 2, 70, 95
3, 730560, Note_on_c, 2, 69, 95
3, 731040, Note_off_c, 2, 69, 95
3, 731040, Note_on_c, 2, 69, 95
3, 731520, Note_off_c, 2, 69, 95
3, 731520, Note_on_c, 2, 69, 95
3, 732000, Note_off_c, 2, 69, 95
3, 732000, Note_on_c, 2, 69, 95
3, 732480, Note_off_c, 2, 69, 95
3, 732480, Note_on_c, 2, 69, 95
3, 732960, Note_off_c, 2, 69, 95
3, 732960, Note_on_c, 2, 69, 95
3, 733440, Note_off_c, 2, 69, 95
3, 733440, Note_on_c, 2, 69, 95
3, 733920, Note_off_c, 2, 69, 95
3, 733920, Note_on_c, 2, 69, 95
3, 734400, Note_off_c, 2, 69, 95
3, 734400, Note_on_c, 2, 69, 95
3, 734880, Note_off_c, 2, 69, 95
3, 734880, Note_on_c, 2, 69, 95
3, 735360, Note_off_c, 2, 69, 95
3, 735360, Note_on_c, 2, 69, 95
3, 735840, Note_off_c, 2, 69, 95
3, 735840, Note_on_c, 2, 69, 95
3, 736320, Note_off_c, 2, 69, 95
3, 736320, Note_on_c, 2, 69, 95
3, 736800, Note_off_c, 2, 69, 95
3, 736800, Note_on_c, 2, 69, 95
3, 737280, Note_off_c, 2, 69, 95
3, 737280, Note_on_c, 2, 69, 95
3, 737760, Note_off_c, 2, 69, 95
3, 737760, Note_on_c, 2, 69, 95
3, 738240, Note_off_c, 2, 69, 95
3, 738240, Note_on_c, 2, 67, 95
3, 738720, Note_off_c, 2, 67, 95
3, 738720, Note_on_c, 2, 67, 95
3, 739200, Note_off_c, 2, 67, 95
3, 739200, Note_on_c, 2, 67, 95
3, 739680, Note_off_c, 2, 67, 95
3, 739680, Note_on_c, 2, 67, 95
3, 740160, Note_off_c, 2, 67, 95
3, 740160, Note_on_c, 2, 67, 95
3, 740640, Note_off_c, 2, 67, 95
3, 740640, Note_on_c, 2, 67, 95
3, 741120, Note_off_c, 2, 67, 95
3, 741120, Note_on_c, 2, 67, 95
3, 741600, Note_off_c, 2, 67, 95
3, 741600, Note_on_c, 2, 67, 95
3, 742080, Note_off_c, 2, 67, 95
3, 742080, Note_on_c, 2, 70, 95
3, 742560, Note_off_c, 2, 70, 95
3, 742560, Note_on_c, 2, 70, 95
3, 743040, Note_off_c, 2, 70, 95
3, 743040, Note_on_c, 2, 70, 95
3, 743520, Note_off_c, 2, 70, 95
3, 743520, Note_on_c, 2, 70, 95
3, 744000, Note_off_c, 2, 70, 95
3, 744000, Note_on_c, 2, 70, 95
3, 744480, Note_off_c, 2, 70, 95
3, 744480, Note_on_c, 2, 70, 95
3, 744960, Note_off_c, 2, 70, 95
3, 744960, Note_on_c, 2, 70, 95
3, 745440, Note_off_c, 2, 70, 95
3, 745440, Note_on_c, 2, 70, 95
3, 745920, Note_off_c, 2, 70, 95
3, 745920, Note_on_c, 2, 69, 95
3, 746400, Note_off_c, 2, 69, 95
3, 746400, Note_on_c, 2, 69, 95
3, 746880, Note_off_c, 2, 69, 95
3, 746880, Note_on_c, 2, 69, 95
3, 747360, Note_off_c, 2, 69, 95
3, 747360, Note_on_c, 2, 69, 95
3, 747840, Note_off_c, 2, 69, 95
3, 747840, Note_on_c, 2, 69, 95
3, 748320, Note_off_c, 2, 69, 95
3, 748320, Note_on_c, 2, 69, 95
3, 748800, Note_off_c, 2, 69, 95
3, 748800, Note_on_c, 2, 69, 95
3, 749280, Note_off_c, 2, 69, 95
3, 749280, Note_on_c, 2, 69, 95
3, 749760, Note_off_c, 2, 69, 95
3, 749760, Note_on_c, 2, 69, 95
3, 750240, Note_off_c, 2, 69, 95
3, 750240, Note_on_c, 2, 69, 95
3, 750720, Note_off_c, 2, 69, 95
3, 750720, Note_on_c, 2, 69, 95
3, 751200, Note_off_c, 2, 69, 95
3, 751200, Note_on_c, 2, 69, 95
3, 751680, Note_off_c, 2, 69, 95
3, 751680, Note_on_c, 2, 69, 95
3, 752160, Note_off_c, 2, 69, 95
3, 752160, Note_on_c, 2, 69, 95
3, 752640, Note_off_c, 2, 69, 95
3, 752640, Note_on_c, 2, 69, 95
3, 753120, Note_off_c, 2, 69, 95
3, 753120, Note_on_c, 2, 69, 95
3, 753600, Note_off_c, 2, 69, 95
3, 753600, Note_on_c, 2, 67, 95
3, 754080, Note_off_c, 2, 67, 95
3, 754080, Note_on_c, 2, 67, 95
3, 754560, Note_off_c, 2, 67, 95
3, 754560, Note_on_c, 2, 67, 95
3, 755040, Note_off_c, 2, 67, 95
3, 755040, Note_on_c, 2, 67, 95
3, 755520, Note_off_c, 2, 67, 95
3, 755520, Note_on_c, 2, 67, 95
3, 756000, Note_off_c, 2, 67, 95
3, 756000, Note_on_c, 2, 67, 95
3, 756480, Note_off_c, 2, 67, 95
3, 756480, Note_on_c, 2, 67, 95
3, 756960, Note_off_c, 2, 67, 95
3, 756960, Note_on_c, 2, 67, 95
3, 757440, Note_off_c, 2, 67, 95
3, 757440, Note_on_c, 2, 70, 95
3, 757920, Note_off_c, 2, 70, 95
3, 757920, Note_on_c, 2, 70, 95
3, 758400, Note_off_c, 2, 70, 95
3, 758400, Note_on_c, 2, 70, 95
3, 758880, Note_off_c, 2, 70, 95
3, 758880, Note_on_c, 2, 70, 95
3, 759360, Note_off_c, 2, 70, 95
3, 759360, Note_on_c, 2, 70, 95
3, 759840, Note_off_c, 2, 70, 95
3, 759840, Note_on_c, 2, 70, 95
3, 760320, Note_off_c, 2, 70, 95
3, 760320, Note_on_c, 2, 70, 95
3, 760800, Note_off_c, 2, 70, 95
3, 760800, Note_on_c, 2, 70, 95
3, 761280, Note_off_c, 2, 70, 95
3, 761280, Note_on_c, 2, 69, 95
3, 761760, Note_off_c, 2, 69, 95
3, 761760, Note_on_c, 2, 69, 95
3, 762240, Note_off_c, 2, 69, 95
3, 762240, Note_on_c, 2, 69, 95
3, 762720, Note_off_c, 2, 69, 95
3, 762720, Note_on_c, 2, 69, 95
3, 763200, Note_off_c, 2, 69, 95
3, 763200, Note_on_c, 2, 69, 95
3, 763680, Note_off_c, 2, 69, 95
3, 763680, Note_on_c, 2, 69, 95
3, 764160, Note_off_c, 2, 69, 95
3, 764160, Note_on_c, 2, 69, 95
3, 764640, Note_off_c, 2, 69, 95
3, 764640, Note_on_c, 2, 69, 95
3, 765120, Note_off_c, 2, 69, 95
3, 765120, Note_on_c, 2, 69, 95
3, 765600, Note_off_c, 2, 69, 95
3, 765600, Note_on_c, 2, 69, 95
3, 766080, Note_off_c, 2, 69, 95
3, 766080, Note_on_c, 2, 69, 95
3, 766560, Note_off_c, 2, 69, 95
3, 766560, Note_on_c, 2, 69, 95
3, 767040, Note_off_c, 2, 69, 95
3, 767040, Note_on_c, 2, 69, 95
3, 767520, Note_off_c, 2, 69, 95
3, 767520, Note_on_c, 2, 69, 95
3, 768000, Note_off_c, 2, 69, 95
3, 768000, Note_on_c, 2, 69, 95
3, 768480, Note_off_c, 2, 69, 95
3, 768480, Note_on_c, 2, 69, 95
3, 768960, Note_off_c, 2, 69, 95
3, 768960, Note_on_c, 2, 67, 95
3, 769440, Note_off_c, 2, 67, 95
3, 769440, Note_on_c, 2, 67, 95
3, 769920, Note_off_c, 2, 67, 95
3, 769920, Note_on_c, 2, 67, 95
3, 770400, Note_off_c, 2, 67, 95
3, 770400, Note_on_c, 2, 67, 95
3, 770880, Note_off_c, 2, 67, 95
3, 770880, Note_on_c, 2, 67, 95
3, 771360, Note_off_c, 2, 67, 95
3, 771360, Note_on_c, 2, 67, 95
3, 771840, Note_off_c, 2, 67, 95
3, 771840, Note_on_c, 2, 67, 95
3, 772320, Note_off_c, 2, 67, 95
3, 772320, Note_on_c, 2, 67, 95
3, 772800, Note_off_c, 2, 67, 95
3, 772800, Note_on_c, 2, 70, 95
3, 773280, Note_off_c, 2, 70, 95
3, 773280, Note_on_c, 2, 70, 95
3, 773760, Note_off_c, 2, 70, 95
3, 773760, Note_on_c, 2, 70, 95
3, 774240, Note_off_c, 2, 70, 95
3, 774240, Note_on_c, 2, 70, 95
3, 774720, Note_off_c, 2, 70, 95
3, 774720, Note_on_c, 2, 69, 95
3, 775200, Note_off_c, 2, 69, 95
3, 775200, Note_on_c, 2, 69, 95
3, 775680, Note_off_c, 2, 69, 95
3, 775680, Note_on_c, 2, 67, 95
3, 776160, Note_off_c, 2, 67, 95
3, 776160, Note_on_c, 2, 67, 95
3, 776640, Note_off_c, 2, 67, 95
3, 777600, Note_on_c, 2, 69, 95
3, 777840, Note_off_c, 2, 69, 95
3, 777840, Note_on_c, 2, 67, 70
3, 778080, Note_off_c, 2, 67, 70
3, 778080, Note_on_c, 2, 65, 70
3, 778320, Note_off_c, 2, 65, 70
3, 779040, Note_on_c, 2, 72, 95
3, 779280, Note_off_c, 2, 72, 95
3, 779520, Note_on_c, 2, 65, 95
3, 779760, Note_off_c, 2, 65, 95
3, 779760, Note_on_c, 2, 64, 70
3, 780000, Note_off_c, 2, 64, 70
3, 780000, Note_on_c, 2, 62, 70
3, 780240, Note_off_c, 2, 62, 70
3, 780240, Note_on_c, 2, 60, 95
3, 780480, Note_off_c, 2, 60, 95
3, 781440, Note_on_c, 2, 69, 95
3, 781680, Note_off_c, 2, 69, 95
3, 781680, Note_on_c, 2, 67, 70
3, 781920, Note_off_c, 2, 67, 70
3, 781920, Note_on_c, 2, 69, 70
3, 782160, Note_off_c, 2, 69, 70
3, 782160, Note_on_c, 2, 70, 70
3, 782400, Note_off_c, 2, 70, 70
3, 782400, Note_on_c, 2, 72, 95
3, 782640, Note_off_c, 2, 72, 95
3, 782640, Note_on_c, 2, 74, 70
3, 782880, Note_off_c, 2, 74, 70
3, 782880, Note_on_c, 2, 72, 70
3, 783120, Note_off_c, 2, 72, 70
3, 783120, Note_on_c, 2, 70, 95
3, 783360, Note_off_c, 2, 70, 95
3, 783360, Note_on_c, 2, 69, 70
3, 783600, Note_off_c, 2, 69, 70
3, 783600, Note_on_c, 2, 67, 70
3, 783840, Note_off_c, 2, 67, 70
3, 784800, Note_on_c, 2, 74, 95
3, 785040, Note_off_c, 2, 74, 95
3, 785040, Note_on_c, 2, 72, 70
3, 785280, Note_off_c, 2, 72, 70
3, 786240, Note_on_c, 2, 81, 95
3, 786480, Note_off_c, 2, 81, 95
3, 786720, Note_on_c, 2, 84, 95
3, 786840, Note_off_c, 2, 84, 95
3, 786840, Note_on_c, 2, 82, 70
3, 786960, Note_off_c, 2, 82, 70
3, 786960, Note_on_c, 2, 81, 95
3, 787200, Note_off_c, 2, 81, 95
3, 787200, Note_on_c, 2, 79, 95
3, 787440, Note_off_c, 2, 79, 95
3, 787680, Note_on_c, 2, 74, 95
3, 787760, Note_off_c, 2, 74, 95
3, 787760, Note_on_c, 2, 76, 70
3, 787840, Note_off_c, 2, 76, 70
3, 787840, Note_on_c, 2, 77, 70
3, 787920, Note_off_c, 2, 77, 70
3, 787920, Note_on_c, 2, 79, 95
3, 788160, Note_off_c, 2, 79, 95
3, 788160, Note_on_c, 2, 81, 70
3, 788400, Note_off_c, 2, 81, 70
3, 788400, Note_on_c, 2, 82, 70
3, 788640, Note_off_c, 2, 82, 70
3, 788640, Note_on_c, 2, 81, 70
3, 788880, Note_off_c, 2, 81, 70
3, 788880, Note_on_c, 2, 79, 95
3, 789120, Note_off_c, 2, 79, 95
3, 789120, Note_on_c, 2, 72, 95
3, 789200, Note_off_c, 2, 72, 95
3, 789200, Note_on_c, 2, 74, 70
3, 789280, Note_off_c, 2, 74, 70
3, 789280, Note_on_c, 2, 76, 95
3, 789520, Note_off_c, 2, 76, 95
3, 789520, Note_on_c, 2, 77, 70
3, 789760, Note_off_c, 2, 77, 70
3, 789760, Note_on_c, 2, 79, 70
3, 790000, Note_off_c, 2, 79, 70
3, 790000, Note_on_c, 2, 77, 70
3, 790240, Note_off_c, 2, 77, 70
3, 790240, Note_on_c, 2, 76, 95
3, 790480, Note_off_c, 2, 76, 95
3, 790480, Note_on_c, 2, 72, 95
3, 790600, Note_off_c, 2, 72, 95
3, 790600, Note_on_c, 2, 74, 70
3, 790680, Note_off_c, 2, 74, 70
3, 790680, Note_on_c, 2, 76, 95
3, 790920, Note_off_c, 2, 76, 95
3, 790920, Note_on_c, 2, 77, 70
3, 791160, Note_off_c, 2, 77, 70
3, 791160, Note_on_c, 2, 79, 70
3, 791280, Note_off_c, 2, 79, 70
3, 791280, Note_on_c, 2, 77, 70
3, 791400, Note_off_c, 2, 77, 70
3, 791400, Note_on_c, 2, 76, 95
3, 791880, Note_off_c, 2, 76, 95
3, 792960, Note_on_c, 2, 77, 95
3, 793200, Note_off_c, 2, 77, 95
3, 793200, Note_on_c, 2, 76, 70
3, 793440, Note_off_c, 2, 76, 70
3, 793440, Note_on_c, 2, 84, 95
3, 793680, Note_off_c, 2, 84, 95
3, 793680, Note_on_c, 2, 82, 70
3, 793920, Note_off_c, 2, 82, 70
3, 793920, Note_on_c, 2, 84, 70
3, 794160, Note_off_c, 2, 84, 70
3, 794160, Note_on_c, 2, 86, 95
3, 794400, Note_off_c, 2, 86, 95
3, 794400, Note_on_c, 2, 84, 70
3, 794640, Note_off_c, 2, 84, 70
3, 794640, Note_on_c, 2, 82, 70
3, 794880, Note_off_c, 2, 82, 70
3, 794880, Note_on_c, 2, 81, 95
3, 795120, Note_off_c, 2, 81, 95
3, 795120, Note_on_c, 2, 79, 70
3, 795360, Note_off_c, 2, 79, 70
3, 796320, Note_on_c, 2, 81, 95
3, 796560, Note_off_c, 2, 81, 95
3, 796560, Note_on_c, 2, 79, 70
3, 796800, Note_off_c, 2, 79, 70
3, 797760, Note_on_c, 2, 84, 95
3, 798000, Note_off_c, 2, 84, 95
3, 798240, Note_on_c, 2, 82, 95
3, 798360, Note_off_c, 2, 82, 95
3, 798360, Note_on_c, 2, 81, 70
3, 798480, Note_off_c, 2, 81, 70
3, 798480, Note_on_c, 2, 79, 70
3, 798720, Note_off_c, 2, 79, 70
3, 798720, Note_on_c, 2, 77, 95
3, 798960, Note_off_c, 2, 77, 95
3, 798960, Note_on_c, 2, 76, 70
3, 799200, Note_off_c, 2, 76, 70
3, 800160, Note_on_c, 2, 69, 95
3, 800400, Note_off_c, 2, 69, 95
3, 800400, Note_on_c, 2, 67, 70
3, 800640, Note_off_c, 2, 67, 70
3, 801600, Note_on_c, 2, 72, 95
3, 801840, Note_off_c, 2, 72, 95
3, 802080, Note_on_c, 2, 65, 95
3, 802320, Note_off_c, 2, 65, 95
3, 802320, Note_on_c, 2, 64, 70
3, 802560, Note_off_c, 2, 64, 70
3, 802560, Note_on_c, 2, 62, 95
3, 802800, Note_off_c, 2, 62, 95
3, 802800, Note_on_c, 2, 60, 70
3, 803040, Note_off_c, 2, 60, 70
3, 803040, Note_on_c, 2, 74, 95
3, 803280, Note_off_c, 2, 74, 95
3, 803280, Note_on_c, 2, 72, 70
3, 803400, Note_off_c, 2, 72, 70
3, 803400, Note_on_c, 2, 70, 95
3, 803520, Note_off_c, 2, 70, 95
3, 803520, Note_on_c, 2, 69, 70
3, 803700, Note_off_c, 2, 69, 70
3, 803700, Note_on_c, 2, 67, 95
3, 803940, Note_off_c, 2, 67, 95
3, 803940, Note_on_c, 2, 65, 70
3, 804180, Note_off_c, 2, 65, 70
3, 804180, Note_on_c, 2, 64, 70
3, 804420, Note_off_c, 2, 64, 70
3, 804420, Note_on_c, 2, 77, 95
3, 805140, Note_off_c, 2, 77, 95
3, 805140, Note_on_c, 2, 74, 95
3, 805320, Note_off_c, 2, 74, 95
3, 805320, Note_on_c, 2, 72, 70
3, 805440, Note_off_c, 2, 72, 70
3, 805440, Note_on_c, 2, 70, 95
3, 805560, Note_off_c, 2, 70, 95
3, 805560, Note_on_c, 2, 69, 70
3, 805680, Note_off_c, 2, 69, 70
3, 805680, Note_on_c, 2, 67, 70
3, 805920, Note_off_c, 2, 67, 70
3, 805920, Pitch_bend_c, 3, 8192
3, 805920, Note_on_c, 3, 62, 95
3, 806160, Pitch_bend_c, 3, 8192
3, 806170, Pitch_bend_c, 3, 8320
3, 806180, Pitch_bend_c, 3, 8448
3, 806190, Pitch_bend_c, 3, 8576
3, 806200, Pitch_bend_c, 3, 8704
3, 806210, Pitch_bend_c, 3, 8832
3, 806220, Pitch_bend_c, 3, 8960
3, 806230, Pitch_bend_c, 3, 9088
3, 806240, Pitch_bend_c, 3, 9216
3, 806250, Pitch_bend_c, 3, 9344
3, 806260, Pitch_bend_c, 3, 9472
3, 806270, Pitch_bend_c, 3, 9600
3, 806280, Pitch_bend_c, 3, 9600
3, 806640, Pitch_bend_c, 3, 9600
3, 806880, Pitch_bend_c, 3, 9600
3, 806901, Pitch_bend_c, 3, 9472
3, 806922, Pitch_bend_c, 3, 9344
3, 806943, Pitch_bend_c, 3, 9216
3, 806964, Pitch_bend_c, 3, 9088
3, 806985, Pitch_bend_c, 3, 8960
3, 807006, Pitch_bend_c, 3, 8832
3, 807027, Pitch_bend_c, 3, 8704
3, 807048, Pitch_bend_c, 3, 8576
3, 807069, Pitch_bend_c, 3, 8448
3, 807090, Pitch_bend_c, 3, 8320
3, 807111, Pitch_bend_c, 3, 8192
3, 807120, Pitch_bend_c, 3, 8192
3, 807360, Pitch_bend_c, 3, 8192
3, 807360, Pitch_bend_c, 3, 8192
3, 807360, Note_off_c, 3, 62, 95
3, 807360, Note_on_c, 3, 64, 95
3, 807520, Pitch_bend_c, 3, 8192
3, 807680, Pitch_bend_c, 3, 8320
3, 807840, Pitch_bend_c, 3, 8192
3, 808000, Pitch_bend_c, 3, 8320
3, 808160, Pitch_bend_c, 3, 8192
3, 808320, Pitch_bend_c, 3, 8320
3, 808480, Pitch_bend_c, 3, 8192
3, 808640, Pitch_bend_c, 3, 8320
3, 808800, Pitch_bend_c, 3, 8192
3, 808800, Pitch_bend_c, 3, 8320
3, 808800, Pitch_bend_c, 3, 8192
3, 808800, Note_off_c, 3, 64, 95
3, 808800, Note_on_c, 2, 67, 95
3, 809760, Note_off_c, 2, 67, 95
3, 809760, Note_on_c, 3, 69, 95
3, 809920, Pitch_bend_c, 3, 8192
3, 810080, Pitch_bend_c, 3, 8320
3, 810240, Pitch_bend_c, 3, 8192
3, 810400, Pitch_bend_c, 3, 8320
3, 810560, Pitch_bend_c, 3, 8192
3, 810720, Pitch_bend_c, 3, 8320
3, 810880, Pitch_bend_c, 3, 8192
3, 811040, Pitch_bend_c, 3, 8320
3, 811200, Pitch_bend_c, 3, 8192
3, 811200, Pitch_bend_c, 3, 8320
3, 811200, Pitch_bend_c, 3, 8192
3, 811200, Note_off_c, 3, 69, 95
3, 811200, Note_on_c, 3, 72, 95
3, 811360, Pitch_bend_c, 3, 8192
3, 811520, Pitch_bend_c, 3, 8320
3, 811680, Pitch_bend_c, 3, 8192
3, 811840, Pitch_bend_c, 3, 8320
3, 812000, Pitch_bend_c, 3, 8192
3, 812160, Pitch_bend_c, 3, 8320
3, 812160, Pitch_bend_c, 3, 8192
3, 812160, Note_off_c, 3, 72, 95
3, 812160, Note_on_c, 2, 74, 95
3, 813120, Note_off_c, 2, 74, 95
3, 813120, Note_on_c, 3, 72, 95
3, 813280, Pitch_bend_c, 3, 8192
3, 813440, Pitch_bend_c, 3, 8320
3, 813600, Pitch_bend_c, 3, 8192
3, 813760, Pitch_bend_c, 3, 8320
3, 813920, Pitch_bend_c, 3, 8192
3, 814080, Pitch_bend_c, 3, 8320
3, 814240, Pitch_bend_c, 3, 8192
3, 814400, Pitch_bend_c, 3, 8320
3, 814560, Pitch_bend_c, 3, 8192
3, 814560, Pitch_bend_c, 3, 8320
3, 814560, Pitch_bend_c, 3, 8192
3, 814560, Note_off_c, 3, 72, 95
3, 814560, Pitch_bend_c, 3, 8192
3, 814560, Note_on_c, 3, 76, 95
3, 814632, Pitch_bend_c, 3, 8320
3, 814704, Pitch_bend_c, 3, 8448
3, 814776, Pitch_bend_c, 3, 8576
3, 814848, Pitch_bend_c, 3, 8704
3, 814920, Pitch_bend_c, 3, 8832
3, 814920, Pitch_bend_c, 3, 8832
3, 815280, Pitch_bend_c, 3, 8832
3, 815352, Pitch_bend_c, 3, 8704
3, 815424, Pitch_bend_c, 3, 8576
3, 815496, Pitch_bend_c, 3, 8448
3, 815568, Pitch_bend_c, 3, 8320
3, 815640, Pitch_bend_c, 3, 8192
3, 815640, Pitch_bend_c, 3, 8192
3, 816000, Pitch_bend_c, 3, 8192
3, 816000, Pitch_bend_c, 3, 8192
3, 816000, Note_off_c, 3, 76, 95
3, 816000, Note_on_c, 3, 76, 95
3, 816160, Pitch_bend_c, 3, 8192
3, 816320, Pitch_bend_c, 3, 8320
3, 816480, Pitch_bend_c, 3, 8192
3, 816640, Pitch_bend_c, 3, 8320
3, 816800, Pitch_bend_c, 3, 8192
3, 816960, Pitch_bend_c, 3, 8320
3, 816960, Pitch_bend_c, 3, 8192
3, 816960, Note_off_c, 3, 76, 95
3, 816960, Note_on_c, 2, 74, 95
3, 817200, Note_off_c, 2, 74, 95
3, 817200, Note_on_c, 2, 72, 70
3, 817440, Note_off_c, 2, 72, 70
3, 817440, Note_on_c, 2, 69, 95
3, 817680, Note_off_c, 2, 69, 95
3, 817680, Note_on_c, 2, 67, 95
3, 817920, Note_off_c, 2, 67, 95
3, 817920, Note_on_c, 2, 69, 95
3, 818160, Note_off_c, 2, 69, 95
3, 818160, Note_on_c, 2, 72, 95
3, 818400, Note_off_c, 2, 72, 95
3, 818400, Note_on_c, 2, 74, 95
3, 818640, Note_off_c, 2, 74, 95
3, 818640, Note_on_c, 2, 76, 95
3, 818880, Note_off_c, 2, 76, 95
3, 818880, Note_on_c, 2, 79, 95
3, 819120, Note_off_c, 2, 79, 95
3, 819120, Note_on_c, 2, 76, 95
3, 819240, Note_off_c, 2, 76, 95
3, 819240, Note_on_c, 2, 74, 70
3, 819360, Note_off_c, 2, 74, 70
3, 819360, Note_on_c, 2, 72, 70
3, 819600, Note_off_c, 2, 72, 70
3, 819600, Note_on_c, 2, 69, 95
3, 819840, Note_off_c, 2, 69, 95
3, 819840, Note_on_c, 2, 83, 95
3, 820320, Note_off_c, 2, 83, 95
3, 820320, Note_on_c, 2, 77, 95
3, 820440, Note_off_c, 2, 77, 95
3, 820440, Note_on_c, 2, 76, 70
3, 820560, Note_off_c, 2, 76, 70
3, 820560, Note_on_c, 2, 74, 70
3, 820800, Note_off_c, 2, 74, 70
3, 820800, Note_on_c, 2, 72, 95
3, 821280, Note_off_c, 2, 72, 95
3, 821280, Pitch_bend_c, 3, 8192
3, 821280, Note_on_c, 3, 83, 95
3, 821352, Pitch_bend_c, 3, 8320
3, 821424, Pitch_bend_c, 3, 8448
3, 821496, Pitch_bend_c, 3, 8576
3, 821568, Pitch_bend_c, 3, 8704
3, 821640, Pitch_bend_c, 3, 8832
3, 821640, Pitch_bend_c, 3, 8832
3, 822000, Pitch_bend_c, 3, 8832
3, 822072, Pitch_bend_c, 3, 8704
3, 822144, Pitch_bend_c, 3, 8576
3, 822216, Pitch_bend_c, 3, 8448
3, 822288, Pitch_bend_c, 3, 8320
3, 822360, Pitch_bend_c, 3, 8192
3, 822360, Pitch_bend_c, 3, 8192
3, 822720, Pitch_bend_c, 3, 8192
3, 822720, Pitch_bend_c, 3, 8192
3, 822720, Note_off_c, 3, 83, 95
3, 822720, Note_on_c, 2, 72, 95
3, 823680, Note_off_c, 2, 72, 95
3, 823680, Note_on_c, 2, 74, 95
3, 824640, Note_off_c, 2, 74, 95
3, 824640, Note_on_c, 2, 72, 95
3, 825120, Note_off_c, 2, 72, 95
3, 825120, Note_on_c, 2, 74, 95
3, 825240, Note_off_c, 2, 74, 95
3, 825240, Note_on_c, 2, 72, 70
3, 825360, Note_off_c, 2, 72, 70
3, 825360, Note_on_c, 2, 71, 70
3, 825600, Note_off_c, 2, 71, 70
3, 825600, Note_on_c, 2, 72, 70
3, 826080, Note_off_c, 2, 72, 70
3, 826080, Note_on_c, 2, 84, 95
3, 826560, Note_off_c, 2, 84, 95
3, 826560, Note_on_c, 2, 76, 95
3, 827040, Note_off_c, 2, 76, 95
3, 827040, Note_on_c, 2, 72, 95
3, 827520, Note_off_c, 2, 72, 95
3, 827520, Note_on_c, 2, 65, 95
3, 828000, Note_off_c, 2, 65, 95
3, 828000, Note_on_c, 2, 70, 95
3, 828480, Note_off_c, 2, 70, 95
3, 828480, Note_on_c, 2, 82, 95
3, 828960, Note_off_c, 2, 82, 95
3, 828960, Note_on_c, 3, 76, 95
3, 829120, Pitch_bend_c, 3, 8192
3, 829280, Pitch_bend_c, 3, 8320
3, 829440, Pitch_bend_c, 3, 8192
3, 829600, Pitch_bend_c, 3, 8320
3, 829760, Pitch_bend_c, 3, 8192
3, 829920, Pitch_bend_c, 3, 8320
3, 830080, Pitch_bend_c, 3, 8192
3, 830240, Pitch_bend_c, 3, 8320
3, 830400, Pitch_bend_c, 3, 8192
3, 830400, Pitch_bend_c, 3, 8320
3, 830400, Pitch_bend_c, 3, 8192
3, 830400, Note_off_c, 3, 76, 95
3, 832800, Note_on_c, 2, 72, 79
3, 832920, Note_off_c, 2, 72, 79
3, 832920, Note_on_c, 2, 74, 79
3, 833040, Note_off_c, 2, 74, 79
3, 833040, Note_on_c, 2, 77, 79
3, 833160, Note_off_c, 2, 77, 79
3, 833160, Note_on_c, 2, 81, 79
3, 833280, Note_off_c, 2, 81, 79
3, 833280, Note_on_c, 2, 77, 79
3, 833520, Note_off_c, 2, 77, 79
3, 833520, Note_on_c, 2, 74, 79
3, 833760, Note_off_c, 2, 74, 79
3, 833760, Note_on_c, 2, 69, 79
3, 834000, Note_off_c, 2, 69, 79
3, 834000, Note_on_c, 2, 70, 79
3, 834120, Note_off_c, 2, 70, 79
3, 834120, Note_on_c, 2, 72, 79
3, 834240, Note_off_c, 2, 72, 79
3, 834240, Note_on_c, 2, 79, 95
3, 834360, Note_off_c, 2, 79, 95
3, 834360, Note_on_c, 2, 88, 79
3, 834480, Note_off_c, 2, 88, 79
3, 834480, Note_on_c, 2, 84, 54
3, 834720, Note_off_c, 2, 84, 54
3, 834720, Note_on_c, 2, 79, 79
3, 834960, Note_off_c, 2, 79, 79
3, 834960, Note_on_c, 2, 72, 79
3, 835200, Note_off_c, 2, 72, 79
3, 835200, Note_on_c, 2, 81, 95
3, 835360, Note_off_c, 2, 81, 95
3, 835360, Note_on_c, 2, 86, 70
3, 835520, Note_off_c, 2, 86, 70
3, 835520, Note_on_c, 2, 81, 70
3, 835680, Note_off_c, 2, 81, 70
3, 835680, Note_on_c, 2, 77, 95
3, 835920, Note_off_c, 2, 77, 95
3, 835920, Note_on_c, 2, 74, 95
3, 836160, Note_off_c, 2, 74, 95
3, 836160, Note_on_c, 2, 77, 95
3, 836400, Note_off_c, 2, 77, 95
3, 836400, Note_on_c, 2, 81, 95
3, 836640, Note_off_c, 2, 81, 95
3, 836640, Note_on_c, 2, 89, 79
3, 836880, Note_off_c, 2, 89, 79
3, 836880, Note_on_c, 2, 81, 70
3, 837120, Note_off_c, 2, 81, 70
3, 837120, Note_on_c, 2, 79, 95
3, 837360, Note_off_c, 2, 79, 95
3, 837360, Note_on_c, 2, 77, 95
3, 837600, Note_off_c, 2, 77, 95
3, 837600, Note_on_c, 2, 79, 95
3, 837840, Note_off_c, 2, 79, 95
3, 837840, Note_on_c, 2, 81, 95
3, 838080, Note_off_c, 2, 81, 95
3, 838080, Note_on_c, 2, 88, 70
3, 838320, Note_off_c, 2, 88, 70
3, 838320, Note_on_c, 2, 81, 70
3, 838560, Note_off_c, 2, 81, 70
3, 838560, Note_on_c, 2, 79, 95
3, 838800, Note_off_c, 2, 79, 95
3, 838800, Note_on_c, 2, 77, 95
3, 839040, Note_off_c, 2, 77, 95
3, 839040, Note_on_c, 2, 81, 95
3, 839200, Note_off_c, 2, 81, 95
3, 839200, Note_on_c, 2, 86, 70
3, 839360, Note_off_c, 2, 86, 70
3, 839360, Note_on_c, 2, 81, 70
3, 839520, Note_off_c, 2, 81, 70
3, 839520, Note_on_c, 2, 77, 95
3, 839760, Note_off_c, 2, 77, 95
3, 839760, Note_on_c, 2, 74, 95
3, 840000, Note_off_c, 2, 74, 95
3, 840000, Note_on_c, 2, 77, 95
3, 840240, Note_off_c, 2, 77, 95
3, 840240, Note_on_c, 2, 81, 95
3, 840480, Note_off_c, 2, 81, 95
3, 840480, Note_on_c, 2, 88, 70
3, 840720, Note_off_c, 2, 88, 70
3, 840720, Note_on_c, 2, 81, 70
3, 840960, Note_off_c, 2, 81, 70
3, 840960, Note_on_c, 2, 79, 95
3, 841200, Note_off_c, 2, 79, 95
3, 841200, Note_on_c, 2, 76, 95
3, 841440, Note_off_c, 2, 76, 95
3, 841440, Note_on_c, 2, 82, 95
3, 841680, Note_off_c, 2, 82, 95
3, 841680, Note_on_c, 2, 79, 70
3, 841920, Note_off_c, 2, 79, 70
3, 841920, Note_on_c, 2, 76, 95
3, 842160, Note_off_c, 2, 76, 95
3, 842160, Note_on_c, 2, 73, 95
3, 842400, Note_off_c, 2, 73, 95
3, 842400, Note_on_c, 2, 81, 95
3, 842640, Note_off_c, 2, 81, 95
3, 842640, Note_on_c, 2, 77, 70
3, 842880, Note_off_c, 2, 77, 70
3, 842880, Note_on_c, 2, 74, 95
3, 843120, Note_off_c, 2, 74, 95
3, 843120, Note_on_c, 2, 69, 95
3, 843360, Note_off_c, 2, 69, 95
3, 843360, Note_on_c, 2, 74, 95
3, 843600, Note_off_c, 2, 74, 95
3, 843600, Note_on_c, 2, 77, 95
3, 843840, Note_off_c, 2, 77, 95
3, 843840, Note_on_c, 2, 81, 70
3, 844080, Note_off_c, 2, 81, 70
3, 844080, Note_on_c, 2, 77, 70
3, 844320, Note_off_c, 2, 77, 70
3, 844320, Note_on_c, 2, 74, 95
3, 844560, Note_off_c, 2, 74, 95
3, 844560, Note_on_c, 2, 69, 95
3, 844800, Note_off_c, 2, 69, 95
3, 844800, Note_on_c, 2, 74, 95
3, 845040, Note_off_c, 2, 74, 95
3, 845040, Note_on_c, 2, 77, 95
3, 845280, Note_off_c, 2, 77, 95
3, 845280, Note_on_c, 2, 79, 70
3, 845520, Note_off_c, 2, 79, 70
3, 845520, Note_on_c, 2, 76, 70
3, 845760, Note_off_c, 2, 76, 70
3, 845760, Note_on_c, 2, 72, 95
3, 846000, Note_off_c, 2, 72, 95
3, 846000, Note_on_c, 2, 69, 95
3, 846240, Note_off_c, 2, 69, 95
3, 846240, Note_on_c, 2, 79, 95
3, 846400, Note_off_c, 2, 79, 95
3, 846400, Note_on_c, 2, 82, 70
3, 846560, Note_off_c, 2, 82, 70
3, 846560, Note_on_c, 2, 79, 70
3, 846720, Note_off_c, 2, 79, 70
3, 846720, Note_on_c, 2, 74, 95
3, 846960, Note_off_c, 2, 74, 95
3, 846960, Note_on_c, 2, 70, 95
3, 847200, Note_off_c, 2, 70, 95
3, 847200, Note_on_c, 2, 74, 95
3, 847440, Note_off_c, 2, 74, 95
3, 847440, Note_on_c, 2, 79, 95
3, 847680, Note_off_c, 2, 79, 95
3, 847680, Note_on_c, 2, 82, 70
3, 847920, Note_off_c, 2, 82, 70
3, 847920, Note_on_c, 2, 79, 70
3, 848160, Note_off_c, 2, 79, 70
3, 848160, Note_on_c, 2, 74, 95
3, 848400, Note_off_c, 2, 74, 95
3, 848400, Note_on_c, 2, 70, 95
3, 848640, Note_off_c, 2, 70, 95
3, 848640, Note_on_c, 2, 74, 95
3, 848880, Note_off_c, 2, 74, 95
3, 848880, Note_on_c, 2, 79, 95
3, 849120, Note_off_c, 2, 79, 95
3, 849120, Note_on_c, 2, 88, 95
3, 849280, Note_off_c, 2, 88, 95
3, 849280, Note_on_c, 2, 85, 70
3, 849440, Note_off_c, 2, 85, 70
3, 849440, Note_on_c, 2, 79, 70
3, 849600, Note_off_c, 2, 79, 70
3, 849600, Note_on_c, 2, 76, 95
3, 849840, Note_off_c, 2, 76, 95
3, 849840, Note_on_c, 2, 73, 95
3, 850080, Note_off_c, 2, 73, 95
3, 850080, Note_on_c, 2, 69, 95
3, 850320, Note_off_c, 2, 69, 95
3, 850320, Note_on_c, 2, 73, 95
3, 850560, Note_off_c, 2, 73, 95
3, 850560, Note_on_c, 2, 74, 95
3, 850800, Note_off_c, 2, 74, 95
3, 850800, Note_on_c, 2, 69, 70
3, 851040, Note_off_c, 2, 69, 70
3, 851040, Note_on_c, 2, 65, 95
3, 851280, Note_off_c, 2, 65, 95
3, 851280, Note_on_c, 2, 62, 95
3, 851520, Note_off_c, 2, 62, 95
3, 851520, Note_on_c, 2, 65, 95
3, 851760, Note_off_c, 2, 65, 95
3, 851760, Note_on_c, 2, 69, 95
3, 852000, Note_off_c, 2, 69, 95
3, 852000, Note_on_c, 2, 77, 95
3, 852240, Note_off_c, 2, 77, 95
3, 852240, Note_on_c, 2, 74, 70
3, 852480, Note_off_c, 2, 74, 70
3, 852480, Note_on_c, 2, 69, 95
3, 852720, Note_off_c, 2, 69, 95
3, 852720, Note_on_c, 2, 65, 95
3, 852960, Note_off_c, 2, 65, 95
3, 852960, Note_on_c, 2, 76, 95
3, 853200, Note_off_c, 2, 76, 95
3, 853200, Note_on_c, 2, 72, 95
3, 853440, Note_off_c, 2, 72, 95
3, 853440, Note_on_c, 2, 67, 95
3, 853680, Note_off_c, 2, 67, 95
3, 853680, Note_on_c, 2, 64, 95
3, 853920, Note_off_c, 2, 64, 95
3, 853920, Note_on_c, 2, 74, 95
3, 854160, Note_off_c, 2, 74, 95
3, 854160, Note_on_c, 2, 69, 95
3, 854400, Note_off_c, 2, 69, 95
3, 854400, Note_on_c, 2, 65, 95
3, 854640, Note_off_c, 2, 65, 95
3, 854640, Note_on_c, 2, 62, 95
3, 854880, Note_off_c, 2, 62, 95
3, 854880, Note_on_c, 2, 65, 95
3, 855120, Note_off_c, 2, 65, 95
3, 855120, Note_on_c, 2, 69, 95
3, 855360, Note_off_c, 2, 69, 95
3, 855360, Note_on_c, 2, 72, 95
3, 855600, Note_off_c, 2, 72, 95
3, 855600, Note_on_c, 2, 69, 95
3, 855840, Note_off_c, 2, 69, 95
3, 855840, Note_on_c, 2, 65, 95
3, 856080, Note_off_c, 2, 65, 95
3, 856080, Note_on_c, 2, 62, 95
3, 856320, Note_off_c, 2, 62, 95
3, 856320, Note_on_c, 2, 73, 95
3, 856560, Note_off_c, 2, 73, 95
3, 856560, Note_on_c, 2, 70, 70
3, 856800, Note_off_c, 2, 70, 70
3, 856800, Note_on_c, 2, 67, 95
3, 857040, Note_off_c, 2, 67, 95
3, 857040, Note_on_c, 2, 64, 95
3, 857280, Note_off_c, 2, 64, 95
3, 857280, Note_on_c, 2, 67, 95
3, 857520, Note_off_c, 2, 67, 95
3, 857520, Note_on_c, 2, 70, 95
3, 857760, Note_off_c, 2, 70, 95
3, 857760, Note_on_c, 2, 77, 95
3, 858000, Note_off_c, 2, 77, 95
3, 858000, Note_on_c, 2, 74, 70
3, 858240, Note_off_c, 2, 74, 70
3, 858240, Note_on_c, 2, 69, 95
3, 858480, Note_off_c, 2, 69, 95
3, 858480, Note_on_c, 2, 65, 95
3, 858720, Note_off_c, 2, 65, 95
3, 858720, Note_on_c, 2, 69, 95
3, 858960, Note_off_c, 2, 69, 95
3, 858960, Note_on_c, 2, 74, 95
3, 859200, Note_off_c, 2, 74, 95
3, 859200, Note_on_c, 2, 81, 95
3, 859440, Note_off_c, 2, 81, 95
3, 859440, Note_on_c, 2, 77, 70
3, 859680, Note_off_c, 2, 77, 70
3, 859680, Note_on_c, 2, 74, 95
3, 859920, Note_off_c, 2, 74, 95
3, 859920, Note_on_c, 2, 69, 95
3, 860160, Note_off_c, 2, 69, 95
3, 860160, Note_on_c, 2, 74, 95
3, 860400, Note_off_c, 2, 74, 95
3, 860400, Note_on_c, 2, 77, 95
3, 860640, Note_off_c, 2, 77, 95
3, 860640, Note_on_c, 2, 84, 95
3, 860880, Note_off_c, 2, 84, 95
3, 860880, Note_on_c, 2, 81, 70
3, 861120, Note_off_c, 2, 81, 70
3, 861120, Note_on_c, 2, 76, 95
3, 861360, Note_off_c, 2, 76, 95
3, 861360, Note_on_c, 2, 72, 95
3, 861600, Note_off_c, 2, 72, 95
3, 861600, Note_on_c, 2, 77, 95
3, 861760, Note_off_c, 2, 77, 95
3, 861760, Note_on_c, 2, 82, 70
3, 861920, Note_off_c, 2, 82, 70
3, 861920, Note_on_c, 2, 77, 70
3, 862080, Note_off_c, 2, 77, 70
3, 862080, Note_on_c, 2, 74, 95
3, 862320, Note_off_c, 2, 74, 95
3, 862320, Note_on_c, 2, 70, 95
3, 862560, Note_off_c, 2, 70, 95
3, 862560, Note_on_c, 2, 74, 95
3, 862800, Note_off_c, 2, 74, 95
3, 862800, Note_on_c, 2, 77, 95
3, 863040, Note_off_c, 2, 77, 95
3, 863040, Note_on_c, 2, 82, 70
3, 863280, Note_off_c, 2, 82, 70
3, 863280, Note_on_c, 2, 79, 70
3, 863520, Note_off_c, 2, 79, 70
3, 863520, Note_on_c, 2, 74, 95
3, 863760, Note_off_c, 2, 74, 95
3, 863760, Note_on_c, 2, 70, 95
3, 864000, Note_off_c, 2, 70, 95
3, 864000, Note_on_c, 2, 74, 95
3, 864240, Note_off_c, 2, 74, 95
3, 864240, Note_on_c, 2, 79, 95
3, 864480, Note_off_c, 2, 79, 95
3, 864480, Note_on_c, 3, 76, 111
3, 864640, Pitch_bend_c, 3, 8192
3, 864800, Pitch_bend_c, 3, 8320
3, 864960, Pitch_bend_c, 3, 8192
3, 865120, Pitch_bend_c, 3, 8320
3, 865280, Pitch_bend_c, 3, 8192
3, 865440, Pitch_bend_c, 3, 8320
3, 865600, Pitch_bend_c, 3, 8192
3, 865760, Pitch_bend_c, 3, 8320
3, 865920, Pitch_bend_c, 3, 8192
3, 865920, Pitch_bend_c, 3, 8320
3, 865920, Pitch_bend_c, 3, 8192
3, 865920, Note_off_c, 3, 76, 111
3, 895200, Note_on_c, 3, 57, 95
3, 895360, Pitch_bend_c, 3, 8192
3, 895520, Pitch_bend_c, 3, 8320
3, 895680, Pitch_bend_c, 3, 8192
3, 895840, Pitch_bend_c, 3, 8320
3, 896000, Pitch_bend_c, 3, 8192
3, 896160, Pitch_bend_c, 3, 8320
3, 896320, Pitch_bend_c, 3, 8192
3, 896480, Pitch_bend_c, 3, 8320
3, 896640, Pitch_bend_c, 3, 8192
3, 896640, Pitch_bend_c, 3, 8320
3, 896640, Pitch_bend_c, 3, 8192
3, 896640, Note_off_c, 3, 57, 95
3, 896640, Note_on_c, 3, 64, 95
3, 896800, Pitch_bend_c, 3, 8192
3, 896960, Pitch_bend_c, 3, 8320
3, 897120, Pitch_bend_c, 3, 8192
3, 897280, Pitch_bend_c, 3, 8320
3, 897440, Pitch_bend_c, 3, 8192
3, 897600, Pitch_bend_c, 3, 8320
3, 897760, Pitch_bend_c, 3, 8192
3, 897920, Pitch_bend_c, 3, 8320
3, 898080, Pitch_bend_c, 3, 8192
3, 898240, Pitch_bend_c, 3, 8320
3, 898400, Pitch_bend_c, 3, 8192
3, 898560, Pitch_bend_c, 3, 8320
3, 898560, Pitch_bend_c, 3, 8192
3, 898560, Note_off_c, 3, 64, 95
3, 898560, Note_on_c, 3, 62, 95
3, 898720, Pitch_bend_c, 3, 8192
3, 898880, Pitch_bend_c, 3, 8320
3, 899040, Pitch_bend_c, 3, 8192
3, 899040, Pitch_bend_c, 3, 8320
3, 899040, Pitch_bend_c, 3, 8192
3, 899040, Note_off_c, 3, 62, 95
3, 899040, Note_on_c, 3, 62, 95
3, 899160, Pitch_bend_c, 3, 9216
3, 899280, Pitch_bend_c, 3, 10240
3, 899280, Pitch_bend_c, 3, 8192
3, 899280, Note_off_c, 3, 62, 95
3, 899280, Note_on_c, 3, 65, 95
3, 899440, Pitch_bend_c, 3, 8192
3, 899600, Pitch_bend_c, 3, 8320
3, 899760, Pitch_bend_c, 3, 8192
3, 899920, Pitch_bend_c, 3, 8320
3, 900080, Pitch_bend_c, 3, 8192
3, 900240, Pitch_bend_c, 3, 8320
3, 900400, Pitch_bend_c, 3, 8192
3, 900560, Pitch_bend_c, 3, 8320
3, 900720, Pitch_bend_c, 3, 8192
3, 900880, Pitch_bend_c, 3, 8320
3, 901040, Pitch_bend_c, 3, 8192
3, 901200, Pitch_bend_c, 3, 8320
3, 901200, Pitch_bend_c, 3, 8192
3, 901200, Note_off_c, 3, 65, 95
3, 902880, Pitch_bend_c, 3, 8192
3, 902880, Note_on_c, 3, 67, 95
3, 902912, Pitch_bend_c, 3, 8320
3, 902944, Pitch_bend_c, 3, 8448
3, 902976, Pitch_bend_c, 3, 8576
3, 903008, Pitch_bend_c, 3, 8704
3, 903040, Pitch_bend_c, 3, 8832
3, 903072, Pitch_bend_c, 3, 8960
3, 903104, Pitch_bend_c, 3, 9088
3, 903136, Pitch_bend_c, 3, 9216
3, 903168, Pitch_bend_c, 3, 9344
3, 903200, Pitch_bend_c, 3, 9472
3, 903232, Pitch_bend_c, 3, 9600
3, 903240, Pitch_bend_c, 3, 9600
3, 903600, Pitch_bend_c, 3, 9600
3, 903720, Pitch_bend_c, 3, 9600
3, 903741, Pitch_bend_c, 3, 9472
3, 903762, Pitch_bend_c, 3, 9344
3, 903783, Pitch_bend_c, 3, 9216
3, 903804, Pitch_bend_c, 3, 9088
3, 903825, Pitch_bend_c, 3, 8960
3, 903846, Pitch_bend_c, 3, 8832
3, 903867, Pitch_bend_c, 3, 8704
3, 903888, Pitch_bend_c, 3, 8576
3, 903909, Pitch_bend_c, 3, 8448
3, 903930, Pitch_bend_c, 3, 8320
3, 903951, Pitch_bend_c, 3, 8192
3, 903960, Pitch_bend_c, 3, 8192
3, 904080, Pitch_bend_c, 3, 8192
3, 904320, Pitch_bend_c, 3, 8192
3, 904320, Pitch_bend_c, 3, 8192
3, 904320, Note_off_c, 3, 67, 95
3, 904320, Note_on_c, 2, 65, 95
3, 904800, Note_off_c, 2, 65, 95
3, 904800, Note_on_c, 2, 64, 95
3, 904920, Note_off_c, 2, 64, 95
3, 904920, Note_on_c, 2, 65, 70
3, 905040, Note_off_c, 2, 65, 70
3, 905040, Note_on_c, 2, 64, 70
3, 905760, Note_off_c, 2, 64, 70
3, 905760, Note_on_c, 2, 62, 95
3, 906240, Note_off_c, 2, 62, 95
3, 906240, Note_on_c, 2, 60, 95
3, 906720, Note_off_c, 2, 60, 95
3, 906720, Note_on_c, 3, 58, 95
3, 906880, Pitch_bend_c, 3, 8192
3, 907040, Pitch_bend_c, 3, 8320
3, 907200, Pitch_bend_c, 3, 8192
3, 907360, Pitch_bend_c, 3, 8320
3, 907520, Pitch_bend_c, 3, 8192
3, 907680, Pitch_bend_c, 3, 8320
3, 907840, Pitch_bend_c, 3, 8192
3, 908000, Pitch_bend_c, 3, 8320
3, 908160, Pitch_bend_c, 3, 8192
3, 908160, Pitch_bend_c, 3, 8320
3, 908160, Pitch_bend_c, 3, 8192
3, 908160, Note_off_c, 3, 58, 95
3, 908160, Note_on_c, 2, 64, 95
3, 908640, Note_off_c, 2, 64, 95
3, 908640, Note_on_c, 3, 64, 95
3, 908800, Pitch_bend_c, 3, 8192
3, 908960, Pitch_bend_c, 3, 8320
3, 909120, Pitch_bend_c, 3, 8192
3, 909280, Pitch_bend_c, 3, 8320
3, 909440, Pitch_bend_c, 3, 8192
3, 909600, Pitch_bend_c, 3, 8320
3, 909600, Pitch_bend_c, 3, 8192
3, 909600, Note_off_c, 3, 64, 95
3, 911040, Note_on_c, 2, 69, 95
3, 911280, Note_off_c, 2, 69, 95
3, 911280, Note_on_c, 2, 74, 95
3, 911520, Note_off_c, 2, 74, 95
3, 911520, Note_on_c, 2, 69, 95
3, 911760, Note_off_c, 2, 69, 95
3, 911760, Note_on_c, 2, 65, 95
3, 912000, Note_off_c, 2, 65, 95
3, 912000, Note_on_c, 2, 64, 95
3, 912240, Note_off_c, 2, 64, 95
3, 912240, Note_on_c, 2, 62, 95
3, 912480, Note_off_c, 2, 62, 95
3, 912480, Note_on_c, 2, 60, 95
3, 912720, Note_off_c, 2, 60, 95
3, 912720, Note_on_c, 2, 67, 95
3, 912960, Note_off_c, 2, 67, 95
3, 912960, Note_on_c, 2, 65, 95
3, 913200, Note_off_c, 2, 65, 95
3, 913200, Note_on_c, 2, 64, 95
3, 913440, Note_off_c, 2, 64, 95
3, 913440, Note_on_c, 3, 62, 95
3, 913600, Pitch_bend_c, 3, 8192
3, 913760, Pitch_bend_c, 3, 8320
3, 913920, Pitch_bend_c, 3, 8192
3, 914080, Pitch_bend_c, 3, 8320
3, 914240, Pitch_bend_c, 3, 8192
3, 914400, Pitch_bend_c, 3, 8320
3, 914400, Pitch_bend_c, 3, 8192
3, 914400, Note_off_c, 3, 62, 95
3, 914400, Note_on_c, 2, 65, 95
3, 914640, Note_off_c, 2, 65, 95
3, 914640, Note_on_c, 2, 69, 95
3, 914880, Note_off_c, 2, 69, 95
3, 914880, Note_on_c, 2, 65, 95
3, 915120, Note_off_c, 2, 65, 95
3, 915120, Note_on_c, 2, 62, 95
3, 915360, Note_off_c, 2, 62, 95
3, 915360, Note_on_c, 2, 60, 95
3, 915600, Note_off_c, 2, 60, 95
3, 915600, Note_on_c, 2, 58, 95
3, 915840, Note_off_c, 2, 58, 95
3, 915840, Note_on_c, 2, 57, 95
3, 916080, Note_off_c, 2, 57, 95
3, 916080, Note_on_c, 2, 55, 95
3, 916320, Note_off_c, 2, 55, 95
3, 916320, Note_on_c, 2, 57, 95
3, 916560, Note_off_c, 2, 57, 95
3, 916560, Note_on_c, 2, 60, 95
3, 916800, Note_off_c, 2, 60, 95
3, 916800, Note_on_c, 2, 64, 95
3, 916960, Note_off_c, 2, 64, 95
3, 916960, Note_on_c, 2, 62, 95
3, 917120, Note_off_c, 2, 62, 95
3, 917120, Note_on_c, 2, 60, 95
3, 917280, Note_off_c, 2, 60, 95
3, 917280, Note_on_c, 2, 57, 95
3, 918240, Note_off_c, 2, 57, 95
3, 918240, Note_on_c, 2, 67, 95
3, 918400, Note_off_c, 2, 67, 95
3, 918400, Note_on_c, 2, 69, 95
3, 918560, Note_off_c, 2, 69, 95
3, 918560, Note_on_c, 2, 65, 95
3, 918720, Note_off_c, 2, 65, 95
3, 918720, Note_on_c, 2, 67, 95
3, 919200, Note_off_c, 2, 67, 95
3, 919680, Note_on_c, 2, 70, 95
3, 919840, Note_off_c, 2, 70, 95
3, 919840, Note_on_c, 2, 69, 95
3, 920000, Note_off_c, 2, 69, 95
3, 920000, Note_on_c, 2, 67, 95
3, 920160, Note_off_c, 2, 67, 95
3, 920160, Note_on_c, 2, 69, 95
3, 920640, Note_off_c, 2, 69, 95
3, 921120, Note_on_c, 2, 70, 95
3, 921280, Note_off_c, 2, 70, 95
3, 921280, Note_on_c, 2, 72, 95
3, 921440, Note_off_c, 2, 72, 95
3, 921440, Note_on_c, 2, 69, 95
3, 921600, Note_off_c, 2, 69, 95
3, 921600, Note_on_c, 2, 70, 95
3, 922080, Note_off_c, 2, 70, 95
3, 922560, Note_on_c, 2, 76, 95
3, 922720, Note_off_c, 2, 76, 95
3, 922720, Note_on_c, 2, 77, 95
3, 922880, Note_off_c, 2, 77, 95
3, 922880, Note_on_c, 2, 76, 95
3, 923040, Note_off_c, 2, 76, 95
3, 923040, Note_on_c, 2, 70, 95
3, 923280, Note_off_c, 2, 70, 95
3, 923280, Note_on_c, 2, 69, 95
3, 923520, Note_off_c, 2, 69, 95
3, 923520, Note_on_c, 2, 67, 95
3, 923760, Note_off_c, 2, 67, 95
3, 923760, Note_on_c, 2, 65, 79
3, 924000, Note_off_c, 2, 65, 79
3, 924000, Note_on_c, 2, 67, 79
3, 924240, Note_off_c, 2, 67, 79
3, 924240, Note_on_c, 2, 65, 79
3, 924480, Note_off_c, 2, 65, 79
3, 924480, Note_on_c, 2, 64, 79
3, 924720, Note_off_c, 2, 64, 79
3, 924720, Note_on_c, 2, 62, 63
3, 924960, Note_off_c, 2, 62, 63
3, 924960, Note_on_c, 2, 64, 63
3, 925200, Note_off_c, 2, 64, 63
3, 925200, Note_on_c, 2, 62, 47
3, 925440, Note_off_c, 2, 62, 47
3, 925440, Note_on_c, 2, 60, 47
3, 925680, Note_off_c, 2, 60, 47
3, 925680, Note_on_c, 2, 57, 47
3, 925920, Note_off_c, 2, 57, 47
3, 926640, Note_on_c, 3, 57, 95
3, 927360, Note_off_c, 3, 57, 95
3, 927360, Note_on_c, 2, 65, 95
3, 927840, Note_off_c, 2, 65, 95
3, 927840, Note_on_c, 2, 64, 95
3, 929280, Note_off_c, 2, 64, 95
3, 929280, Note_on_c, 2, 65, 95
3, 929520, Note_off_c, 2, 65, 95
3, 929520, Note_on_c, 2, 67, 95
3, 929760, Note_off_c, 2, 67, 95
3, 929760, Note_on_c, 2, 69, 95
3, 930480, Note_off_c, 2, 69, 95
3, 930480, Note_on_c, 2, 69, 95
3, 930720, Note_off_c, 2, 69, 95
3, 930720, Note_on_c, 2, 69, 95
3, 931200, Note_off_c, 2, 69, 95
3, 931200, Note_on_c, 2, 70, 95
3, 931680, Note_off_c, 2, 70, 95
3, 931680, Note_on_c, 3, 69, 95
3, 931840, Pitch_bend_c, 3, 8192
3, 932000, Pitch_bend_c, 3, 8320
3, 932160, Pitch_bend_c, 3, 8192
3, 932320, Pitch_bend_c, 3, 8320
3, 932480, Pitch_bend_c, 3, 8192
3, 932640, Pitch_bend_c, 3, 8320
3, 932800, Pitch_bend_c, 3, 8192
3, 932960, Pitch_bend_c, 3, 8320
3, 933120, Pitch_bend_c, 3, 8192
3, 933280, Pitch_bend_c, 3, 8320
3, 933440, Pitch_bend_c, 3, 8192
3, 933600, Pitch_bend_c, 3, 8320
3, 933600, Pitch_bend_c, 3, 8192
3, 933600, Note_off_c, 3, 69, 95
3, 933600, Note_on_c, 3, 57, 95
3, 933720, Pitch_bend_c, 3, 8192
3, 933840, Pitch_bend_c, 3, 8320
3, 933960, Pitch_bend_c, 3, 8448
3, 934080, Pitch_bend_c, 3, 8576
3, 934200, Pitch_bend_c, 3, 8704
3, 934320, Pitch_bend_c, 3, 8832
3, 934320, Pitch_bend_c, 3, 8192
3, 934320, Note_off_c, 3, 57, 95
3, 934320, Note_on_c, 2, 58, 95
3, 935040, Note_off_c, 2, 58, 95
3, 935040, Note_on_c, 2, 65, 95
3, 935520, Note_off_c, 2, 65, 95
3, 935520, Note_on_c, 3, 64, 95
3, 935680, Pitch_bend_c, 3, 8192
3, 935840, Pitch_bend_c, 3, 8320
3, 936000, Pitch_bend_c, 3, 8192
3, 936160, Pitch_bend_c, 3, 8320
3, 936320, Pitch_bend_c, 3, 8192
3, 936480, Pitch_bend_c, 3, 8320
3, 936640, Pitch_bend_c, 3, 8192
3, 936800, Pitch_bend_c, 3, 8320
3, 936960, Pitch_bend_c, 3, 8192
3, 937120, Pitch_bend_c, 3, 8320
3, 937280, Pitch_bend_c, 3, 8192
3, 937440, Pitch_bend_c, 3, 8320
3, 937440, Pitch_bend_c, 3, 8192
3, 937440, Note_off_c, 3, 64, 95
3, 937440, Note_on_c, 2, 58, 95
3, 938160, Note_off_c, 2, 58, 95
3, 938160, Note_on_c, 2, 62, 95
3, 938880, Note_off_c, 2, 62, 95
3, 938880, Note_on_c, 2, 69, 95
3, 939360, Note_off_c, 2, 69, 95
3, 939360, Note_on_c, 3, 67, 95
3, 939520, Pitch_bend_c, 3, 8192
3, 939680, Pitch_bend_c, 3, 8320
3, 939840, Pitch_bend_c, 3, 8192
3, 940000, Pitch_bend_c, 3, 8320
3, 940160, Pitch_bend_c, 3, 8192
3, 940320, Pitch_bend_c, 3, 8320
3, 940480, Pitch_bend_c, 3, 8192
3, 940640, Pitch_bend_c, 3, 8320
3, 940800, Pitch_bend_c, 3, 8192
3, 940960, Pitch_bend_c, 3, 8320
3, 941120, Pitch_bend_c, 3, 8192
3, 941280, Pitch_bend_c, 3, 8320
3, 941280, Pitch_bend_c, 3, 8192
3, 941280, Note_off_c, 3, 67, 95
3, 941280, Pitch_bend_c, 3, 8192
3, 941280, Note_on_c, 3, 80, 95
3, 941424, Pitch_bend_c, 3, 8320
3, 941568, Pitch_bend_c, 3, 8448
3, 941712, Pitch_bend_c, 3, 8576
3, 941760, Note_on_c, 2, 69, 95
3, 941856, Pitch_bend_c, 3, 8704
3, 942000, Pitch_bend_c, 3, 8832
3, 942000, Pitch_bend_c, 3, 8832
3, 942080, Note_off_c, 2, 69, 95
3, 942080, Note_on_c, 2, 72, 95
3, 942400, Note_off_c, 2, 72, 95
3, 942400, Note_on_c, 2, 69, 95
3, 942720, Pitch_bend_c, 3, 8832
3, 942720, Pitch_bend_c, 3, 8192
3, 942720, Note_off_c, 3, 80, 95
3, 942720, Note_off_c, 2, 69, 95
3, 942720, Pitch_bend_c, 3, 8192
3, 942720, Note_on_c, 3, 80, 95
3, 942768, Pitch_bend_c, 3, 8320
3, 942816, Pitch_bend_c, 3, 8448
3, 942864, Pitch_bend_c, 3, 8576
3, 942912, Pitch_bend_c, 3, 8704
3, 942960, Pitch_bend_c, 3, 8832
3, 942960, Pitch_bend_c, 3, 8832
3, 943200, Pitch_bend_c, 3, 8832
3, 943200, Pitch_bend_c, 3, 8192
3, 943200, Note_off_c, 3, 80, 95
3, 943200, Note_on_c, 2, 69, 31
3, 943200, Note_on_c, 2, 81, 95
3, 943520, Note_off_c, 2, 69, 31
3, 943520, Note_off_c, 2, 81, 95
3, 943520, Note_on_c, 2, 67, 95
3, 943840, Note_off_c, 2, 67, 95
3, 943840, Note_on_c, 2, 62, 95
3, 944160, Note_off_c, 2, 62, 95
3, 944160, Note_on_c, 2, 57, 95
3, 944480, Note_off_c, 2, 57, 95
3, 944480, Note_on_c, 2, 60, 95
3, 944800, Note_off_c, 2, 60, 95
3, 944800, Note_on_c, 2, 62, 95
3, 945120, Note_off_c, 2, 62, 95
3, 945120, Note_on_c, 2, 65, 95
3, 945440, Note_off_c, 2, 65, 95
3, 945440, Note_on_c, 2, 67, 95
3, 945760, Note_off_c, 2, 67, 95
3, 945760, Note_on_c, 3, 67, 95
3, 945920, Pitch_bend_c, 3, 8832
3, 946080, Pitch_bend_c, 3, 9600
3, 946080, Pitch_bend_c, 3, 8192
3, 946080, Note_off_c, 3, 67, 95
3, 946080, Note_on_c, 2, 69, 95
3, 946400, Note_off_c, 2, 69, 95
3, 946400, Note_on_c, 2, 57, 95
3, 946720, Note_off_c, 2, 57, 95
3, 946720, Note_on_c, 2, 62, 95
3, 947040, Note_off_c, 2, 62, 95
3, 947040, Note_on_c, 3, 60, 95
3, 947200, Pitch_bend_c, 3, 8192
3, 947360, Pitch_bend_c, 3, 8320
3, 947520, Pitch_bend_c, 3, 8192
3, 947680, Pitch_bend_c, 3, 8320
3, 947840, Pitch_bend_c, 3, 8192
3, 948000, Pitch_bend_c, 3, 8320
3, 948160, Pitch_bend_c, 3, 8192
3, 948320, Pitch_bend_c, 3, 8320
3, 948480, Pitch_bend_c, 3, 8192
3, 948640, Pitch_bend_c, 3, 8320
3, 948800, Pitch_bend_c, 3, 8192
3, 948960, Pitch_bend_c, 3, 8320
3, 948960, Pitch_bend_c, 3, 8192
3, 948960, Note_off_c, 3, 60, 95
3, 948960, Note_on_c, 2, 74, 95
3, 949200, Note_off_c, 2, 74, 95
3, 949200, Note_on_c, 2, 72, 95
3, 949440, Note_off_c, 2, 72, 95
3, 949440, Note_on_c, 2, 67, 95
3, 949680, Note_off_c, 2, 67, 95
3, 949680, Pitch_bend_c, 3, 8192
3, 949680, Note_on_c, 3, 67, 95
3, 949701, Pitch_bend_c, 3, 8320
3, 949722, Pitch_bend_c, 3, 8448
3, 949743, Pitch_bend_c, 3, 8576
3, 949764, Pitch_bend_c, 3, 8704
3, 949785, Pitch_bend_c, 3, 8832
3, 949806, Pitch_bend_c, 3, 8960
3, 949827, Pitch_bend_c, 3, 9088
3, 949848, Pitch_bend_c, 3, 9216
3, 949869, Pitch_bend_c, 3, 9344
3, 949890, Pitch_bend_c, 3, 9472
3, 949911, Pitch_bend_c, 3, 9600
3, 949920, Pitch_bend_c, 3, 9600
3, 950160, Pitch_bend_c, 3, 9600
3, 950160, Pitch_bend_c, 3, 8192
3, 950160, Note_off_c, 3, 67, 95
3, 950160, Note_on_c, 2, 74, 95
3, 950400, Note_off_c, 2, 74, 95
3, 950400, Pitch_bend_c, 3, 8192
3, 950400, Note_on_c, 3, 71, 95
3, 950448, Pitch_bend_c, 3, 8320
3, 950496, Pitch_bend_c, 3, 8448
3, 950544, Pitch_bend_c, 3, 8576
3, 950592, Pitch_bend_c, 3, 8704
3, 950640, Pitch_bend_c, 3, 8832
3, 950640, Pitch_bend_c, 3, 8832
3, 950880, Pitch_bend_c, 3, 8832
3, 950880, Pitch_bend_c, 3, 8192
3, 950880, Note_off_c, 3, 71, 95
3, 950880, Note_on_c, 2, 74, 95
3, 951120, Note_off_c, 2, 74, 95
3, 951120, Note_on_c, 2, 72, 95
3, 951360, Note_off_c, 2, 72, 95
3, 951360, Note_on_c, 2, 69, 95
3, 951600, Note_off_c, 2, 69, 95
3, 951600, Note_on_c, 2, 67, 95
3, 951840, Note_off_c, 2, 67, 95
3, 951840, Pitch_bend_c, 3, 8192
3, 951840, Note_on_c, 3, 67, 95
3, 951888, Pitch_bend_c, 3, 8320
3, 951936, Pitch_bend_c, 3, 8448
3, 951984, Pitch_bend_c, 3, 8576
3, 952032, Pitch_bend_c, 3, 8704
3, 952080, Pitch_bend_c, 3, 8832
3, 952080, Pitch_bend_c, 3, 8832
3, 952320, Pitch_bend_c, 3, 8832
3, 952320, Pitch_bend_c, 3, 8192
3, 952320, Note_off_c, 3, 67, 95
3, 952320, Pitch_bend_c, 3, 8192
3, 952320, Note_on_c, 3, 79, 95
3, 952385, Pitch_bend_c, 3, 8320
3, 952450, Pitch_bend_c, 3, 8448
3, 952515, Pitch_bend_c, 3, 8576
3, 952580, Pitch_bend_c, 3, 8704
3, 952645, Pitch_bend_c, 3, 8832
3, 952710, Pitch_bend_c, 3, 8960
3, 952775, Pitch_bend_c, 3, 9088
3, 952840, Pitch_bend_c, 3, 9216
3, 952905, Pitch_bend_c, 3, 9344
3, 952970, Pitch_bend_c, 3, 9472
3, 953035, Pitch_bend_c, 3, 9600
3, 953040, Pitch_bend_c, 3, 9600
3, 953760, Pitch_bend_c, 3, 9600
3, 953760, Pitch_bend_c, 3, 8192
3, 953760, Note_off_c, 3, 79, 95
3, 953760, Note_on_c, 2, 74, 95
3, 954000, Note_off_c, 2, 74, 95
3, 954000, Note_on_c, 2, 72, 95
3, 954240, Note_off_c, 2, 72, 95
3, 954240, Note_on_c, 2, 69, 79
3, 954480, Note_off_c, 2, 69, 79
3, 954480, Note_on_c, 2, 67, 79
3, 954720, Note_off_c, 2, 67, 79
3, 954720, Note_on_c, 2, 65, 79
3, 954960, Note_off_c, 2, 65, 79
3, 954960, Note_on_c, 2, 64, 63
3, 955200, Note_off_c, 2, 64, 63
3, 955200, Note_on_c, 2, 62, 63
3, 955440, Note_off_c, 2, 62, 63
3, 955440, Note_on_c, 2, 60, 63
3, 955680, Note_off_c, 2, 60, 63
3, 987360, Pitch_bend_c, 3, 8192
3, 987360, Note_on_c, 3, 84, 95
3, 987392, Pitch_bend_c, 3, 8320
3, 987424, Pitch_bend_c, 3, 8448
3, 987456, Pitch_bend_c, 3, 8576
3, 987488, Pitch_bend_c, 3, 8704
3, 987520, Pitch_bend_c, 3, 8832
3, 987552, Pitch_bend_c, 3, 8960
3, 987584, Pitch_bend_c, 3, 9088
3, 987616, Pitch_bend_c, 3, 9216
3, 987648, Pitch_bend_c, 3, 9344
3, 987680, Pitch_bend_c, 3, 9472
3, 987712, Pitch_bend_c, 3, 9600
3, 987720, Pitch_bend_c, 3, 9600
3, 988080, Pitch_bend_c, 3, 9600
3, 988080, Pitch_bend_c, 3, 8192
3, 988080, Note_off_c, 3, 84, 95
3, 988080, Note_on_c, 2, 86, 95
3, 988800, Note_off_c, 2, 86, 95
3, 988800, Note_on_c, 2, 85, 95
3, 989280, Note_off_c, 2, 85, 95
3, 989280, Note_on_c, 3, 86, 95
3, 989440, Pitch_bend_c, 3, 8192
3, 989600, Pitch_bend_c, 3, 8320
3, 989760, Pitch_bend_c, 3, 8192
3, 989920, Pitch_bend_c, 3, 8320
3, 990080, Pitch_bend_c, 3, 8192
3, 990240, Pitch_bend_c, 3, 8320
3, 990240, Pitch_bend_c, 3, 8192
3, 990240, Note_off_c, 3, 86, 95
3, 991200, Pitch_bend_c, 3, 8192
3, 991200, Note_on_c, 3, 84, 95
3, 991221, Pitch_bend_c, 3, 8320
3, 991242, Pitch_bend_c, 3, 8448
3, 991263, Pitch_bend_c, 3, 8576
3, 991284, Pitch_bend_c, 3, 8704
3, 991305, Pitch_bend_c, 3, 8832
3, 991326, Pitch_bend_c, 3, 8960
3, 991347, Pitch_bend_c, 3, 9088
3, 991368, Pitch_bend_c, 3, 9216
3, 991389, Pitch_bend_c, 3, 9344
3, 991410, Pitch_bend_c, 3, 9472
3, 991431, Pitch_bend_c, 3, 9600
3, 991440, Pitch_bend_c, 3, 9600
3, 991680, Pitch_bend_c, 3, 9600
3, 991680, Pitch_bend_c, 3, 8192
3, 991680, Note_off_c, 3, 84, 95
3, 991680, Note_on_c, 2, 84, 95
3, 991920, Note_off_c, 2, 84, 95
3, 991920, Note_on_c, 2, 81, 95
3, 992160, Note_off_c, 2, 81, 95
3, 992160, Pitch_bend_c, 3, 8192
3, 992160, Note_on_c, 3, 79, 95
3, 992181, Pitch_bend_c, 3, 8320
3, 992202, Pitch_bend_c, 3, 8448
3, 992223, Pitch_bend_c, 3, 8576
3, 992244, Pitch_bend_c, 3, 8704
3, 992265, Pitch_bend_c, 3, 8832
3, 992286, Pitch_bend_c, 3, 8960
3, 992307, Pitch_bend_c, 3, 9088
3, 992328, Pitch_bend_c, 3, 9216
3, 992349, Pitch_bend_c, 3, 9344
3, 992370, Pitch_bend_c, 3, 9472
3, 992391, Pitch_bend_c, 3, 9600
3, 992400, Pitch_bend_c, 3, 9600
3, 992640, Pitch_bend_c, 3, 9600
3, 992640, Pitch_bend_c, 3, 8192
3, 992640, Note_off_c, 3, 79, 95
3, 992640, Note_on_c, 2, 79, 95
3, 992880, Note_off_c, 2, 79, 95
3, 992880, Note_on_c, 2, 77, 95
3, 993120, Note_off_c, 2, 77, 95
3, 993120, Pitch_bend_c, 3, 8192
3, 993120, Note_on_c, 3, 79, 95
3, 993141, Pitch_bend_c, 3, 8320
3, 993162, Pitch_bend_c, 3, 8448
3, 993183, Pitch_bend_c, 3, 8576
3, 993204, Pitch_bend_c, 3, 8704
3, 993225, Pitch_bend_c, 3, 8832
3, 993246, Pitch_bend_c, 3, 8960
3, 993267, Pitch_bend_c, 3, 9088
3, 993288, Pitch_bend_c, 3, 9216
3, 993309, Pitch_bend_c, 3, 9344
3, 993330, Pitch_bend_c, 3, 9472
3, 993351, Pitch_bend_c, 3, 9600
3, 993360, Pitch_bend_c, 3, 9600
3, 993600, Pitch_bend_c, 3, 9600
3, 993600, Pitch_bend_c, 3, 8192
3, 993600, Note_off_c, 3, 79, 95
3, 993600, Note_on_c, 2, 79, 95
3, 994080, Note_off_c, 2, 79, 95
3, 995520, Pitch_bend_c, 3, 8192
3, 995520, Note_on_c, 3, 86, 95
3, 995607, Pitch_bend_c, 3, 8320
3, 995694, Pitch_bend_c, 3, 8448
3, 995781, Pitch_bend_c, 3, 8576
3, 995868, Pitch_bend_c, 3, 8704
3, 995955, Pitch_bend_c, 3, 8832
3, 996042, Pitch_bend_c, 3, 8960
3, 996129, Pitch_bend_c, 3, 9088
3, 996216, Pitch_bend_c, 3, 9216
3, 996303, Pitch_bend_c, 3, 9344
3, 996390, Pitch_bend_c, 3, 9472
3, 996477, Pitch_bend_c, 3, 9600
3, 996480, Pitch_bend_c, 3, 9600
3, 997440, Pitch_bend_c, 3, 9600
3, 997440, Pitch_bend_c, 3, 8192
3, 997440, Note_off_c, 3, 86, 95
3, 997440, Pitch_bend_c, 3, 8192
3, 997440, Note_on_c, 3, 86, 95
3, 997483, Pitch_bend_c, 3, 8320
3, 997526, Pitch_bend_c, 3, 8448
3, 997569, Pitch_bend_c, 3, 8576
3, 997612, Pitch_bend_c, 3, 8704
3, 997655, Pitch_bend_c, 3, 8832
3, 997698, Pitch_bend_c, 3, 8960
3, 997741, Pitch_bend_c, 3, 9088
3, 997784, Pitch_bend_c, 3, 9216
3, 997827, Pitch_bend_c, 3, 9344
3, 997870, Pitch_bend_c, 3, 9472
3, 997913, Pitch_bend_c, 3, 9600
3, 997920, Pitch_bend_c, 3, 9600
3, 998400, Pitch_bend_c, 3, 9600
3, 998400, Pitch_bend_c, 3, 8192
3, 998400, Note_off_c, 3, 86, 95
3, 998400, Pitch_bend_c, 3, 9600
3, 998400, Note_on_c, 3, 86, 95
3, 998880, Pitch_bend_c, 3, 9600
3, 998880, Pitch_bend_c, 3, 8192
3, 998880, Note_off_c, 3, 86, 95
3, 998880, Pitch_bend_c, 3, 8192
3, 998880, Note_on_c, 3, 86, 95
3, 998925, Pitch_bend_c, 3, 8320
3, 998970, Pitch_bend_c, 3, 8448
3, 999015, Pitch_bend_c, 3, 8576
3, 999060, Pitch_bend_c, 3, 8704
3, 999105, Pitch_bend_c, 3, 8832
3, 999150, Pitch_bend_c, 3, 8960
3, 999195, Pitch_bend_c, 3, 9088
3, 999240, Pitch_bend_c, 3, 9216
3, 999285, Pitch_bend_c, 3, 9344
3, 999330, Pitch_bend_c, 3, 9472
3, 999375, Pitch_bend_c, 3, 9600
3, 999420, Pitch_bend_c, 3, 9728
3, 999465, Pitch_bend_c, 3, 9856
3, 999510, Pitch_bend_c, 3, 9984
3, 999555, Pitch_bend_c, 3, 10112
3, 999600, Pitch_bend_c, 3, 10240
3, 999600, Pitch_bend_c, 3, 10240
3, 1000320, Pitch_bend_c, 3, 10240
3, 1000320, Pitch_bend_c, 3, 8192
3, 1000320, Note_off_c, 3, 86, 95
3, 1000320, Note_on_c, 3, 86, 95
3, 1000480, Pitch_bend_c, 3, 8192
3, 1000640, Pitch_bend_c, 3, 8320
3, 1000800, Pitch_bend_c, 3, 8192
3, 1000960, Pitch_bend_c, 3, 8320
3, 1001120, Pitch_bend_c, 3, 8192
3, 1001280, Pitch_bend_c, 3, 8320
3, 1001440, Pitch_bend_c, 3, 8192
3, 1001600, Pitch_bend_c, 3, 8320
3, 1001760, Pitch_bend_c, 3, 8192
3, 1001920, Pitch_bend_c, 3, 8320
3, 1002080, Pitch_bend_c, 3, 8192
3, 1002240, Pitch_bend_c, 3, 8320
3, 1002400, Pitch_bend_c, 3, 8192
3, 1002560, Pitch_bend_c, 3, 8320
3, 1002720, Pitch_bend_c, 3, 8192
3, 1002720, Pitch_bend_c, 3, 8320
3, 1002720, Pitch_bend_c, 3, 8192
3, 1002720, Note_off_c, 3, 86, 95
3, 1002720, Note_on_c, 2, 77, 95
3, 1002880, Note_off_c, 2, 77, 95
3, 1002880, Note_on_c, 2, 80, 70
3, 1003040, Note_off_c, 2, 80, 70
3, 1003040, Note_on_c, 2, 81, 70
3, 1003200, Note_off_c, 2, 81, 70
3, 1003200, Note_on_c, 2, 84, 95
3, 1003360, Note_off_c, 2, 84, 95
3, 1003360, Note_on_c, 2, 81, 70
3, 1003520, Note_off_c, 2, 81, 70
3, 1003520, Note_on_c, 2, 80, 70
3, 1003680, Note_off_c, 2, 80, 70
3, 1003680, Note_on_c, 2, 77, 70
3, 1003840, Note_off_c, 2, 77, 70
3, 1003840, Note_on_c, 2, 80, 70
3, 1004000, Note_off_c, 2, 80, 70
3, 1004000, Note_on_c, 2, 81, 70
3, 1004160, Note_off_c, 2, 81, 70
3, 1004160, Note_on_c, 2, 84, 95
3, 1004320, Note_off_c, 2, 84, 95
3, 1004320, Note_on_c, 2, 81, 70
3, 1004480, Note_off_c, 2, 81, 70
3, 1004480, Note_on_c, 2, 80, 70
3, 1004640, Note_off_c, 2, 80, 70
3, 1004640, Note_on_c, 2, 84, 95
3, 1004800, Note_off_c, 2, 84, 95
3, 1004800, Note_on_c, 2, 81, 70
3, 1004960, Note_off_c, 2, 81, 70
3, 1004960, Note_on_c, 2, 80, 70
3, 1005120, Note_off_c, 2, 80, 70
3, 1005120, Note_on_c, 2, 77, 70
3, 1005280, Note_off_c, 2, 77, 70
3, 1005280, Note_on_c, 2, 80, 70
3, 1005440, Note_off_c, 2, 80, 70
3, 1005440, Note_on_c, 2, 81, 70
3, 1005600, Note_off_c, 2, 81, 70
3, 1005600, Note_on_c, 2, 84, 95
3, 1005760, Note_off_c, 2, 84, 95
3, 1005760, Note_on_c, 2, 81, 70
3, 1005920, Note_off_c, 2, 81, 70
3, 1005920, Note_on_c, 2, 80, 70
3, 1006080, Note_off_c, 2, 80, 70
3, 1006080, Note_on_c, 2, 77, 70
3, 1006240, Note_off_c, 2, 77, 70
3, 1006240, Note_on_c, 2, 80, 70
3, 1006400, Note_off_c, 2, 80, 70
3, 1006400, Note_on_c, 2, 81, 70
3, 1006560, Note_off_c, 2, 81, 70
3, 1006560, Note_on_c, 2, 84, 95
3, 1006720, Note_off_c, 2, 84, 95
3, 1006720, Note_on_c, 2, 81, 70
3, 1006880, Note_off_c, 2, 81, 70
3, 1006880, Note_on_c, 2, 80, 70
3, 1007040, Note_off_c, 2, 80, 70
3, 1007040, Note_on_c, 2, 84, 95
3, 1007200, Note_off_c, 2, 84, 95
3, 1007200, Note_on_c, 2, 81, 70
3, 1007360, Note_off_c, 2, 81, 70
3, 1007360, Note_on_c, 2, 80, 70
3, 1007520, Note_off_c, 2, 80, 70
3, 1007520, Note_on_c, 2, 77, 70
3, 1007680, Note_off_c, 2, 77, 70
3, 1007680, Note_on_c, 2, 80, 70
3, 1007840, Note_off_c, 2, 80, 70
3, 1007840, Note_on_c, 2, 81, 70
3, 1008000, Note_off_c, 2, 81, 70
3, 1008000, Note_on_c, 2, 84, 95
3, 1008160, Note_off_c, 2, 84, 95
3, 1008160, Note_on_c, 2, 81, 70
3, 1008320, Note_off_c, 2, 81, 70
3, 1008320, Note_on_c, 2, 80, 70
3, 1008480, Note_off_c, 2, 80, 70
3, 1008480, Note_on_c, 2, 77, 70
3, 1008640, Note_off_c, 2, 77, 70
3, 1008640, Note_on_c, 2, 80, 70
3, 1008800, Note_off_c, 2, 80, 70
3, 1008800, Note_on_c, 2, 81, 70
3, 1008960, Note_off_c, 2, 81, 70
3, 1008960, Note_on_c, 2, 84, 95
3, 1009120, Note_off_c, 2, 84, 95
3, 1009120, Note_on_c, 2, 81, 70
3, 1009280, Note_off_c, 2, 81, 70
3, 1009280, Note_on_c, 2, 80, 70
3, 1009440, Note_off_c, 2, 80, 70
3, 1009440, Note_on_c, 2, 84, 95
3, 1009600, Note_off_c, 2, 84, 95
3, 1009600, Note_on_c, 2, 81, 70
3, 1009760, Note_off_c, 2, 81, 70
3, 1009760, Note_on_c, 2, 80, 70
3, 1009920, Note_off_c, 2, 80, 70
3, 1009920, Note_on_c, 2, 77, 70
3, 1010080, Note_off_c, 2, 77, 70
3, 1010080, Note_on_c, 2, 80, 70
3, 1010240, Note_off_c, 2, 80, 70
3, 1010240, Note_on_c, 2, 81, 70
3, 1010400, Note_off_c, 2, 81, 70
3, 1010400, Note_on_c, 2, 84, 95
3, 1010640, Note_off_c, 2, 84, 95
3, 1010640, Note_on_c, 2, 81, 70
3, 1010880, Note_off_c, 2, 81, 70
3, 1010880, Note_on_c, 2, 79, 70
3, 1011120, Note_off_c, 2, 79, 70
3, 1011120, Note_on_c, 2, 77, 70
3, 1011360, Note_off_c, 2, 77, 70
3, 1011360, Note_on_c, 2, 77, 95
3, 1011600, Note_off_c, 2, 77, 95
3, 1011600, Note_on_c, 2, 74, 95
3, 1011840, Note_off_c, 2, 74, 95
3, 1011840, Note_on_c, 2, 69, 95
3, 1012080, Note_off_c, 2, 69, 95
3, 1012080, Note_on_c, 2, 69, 95
3, 1012320, Note_off_c, 2, 69, 95
3, 1012320, Note_on_c, 2, 65, 95
3, 1012560, Note_off_c, 2, 65, 95
3, 1012560, Note_on_c, 2, 74, 95
3, 1012800, Note_off_c, 2, 74, 95
3, 1012800, Note_on_c, 2, 69, 95
3, 1013040, Note_off_c, 2, 69, 95
3, 1013040, Note_on_c, 2, 69, 95
3, 1013280, Note_off_c, 2, 69, 95
3, 1013280, Note_on_c, 2, 65, 95
3, 1013520, Note_off_c, 2, 65, 95
3, 1013520, Note_on_c, 2, 60, 95
3, 1013760, Note_off_c, 2, 60, 95
3, 1013760, Note_on_c, 2, 57, 95
3, 1014000, Note_off_c, 2, 57, 95
3, 1014000, Note_on_c, 2, 53, 95
3, 1014240, Note_off_c, 2, 53, 95
3, 1014240, Note_on_c, 2, 60, 95
3, 1014480, Note_off_c, 2, 60, 95
3, 1014480, Note_on_c, 2, 60, 95
3, 1014720, Note_off_c, 2, 60, 95
3, 1014720, Note_on_c, 2, 55, 95
3, 1014960, Note_off_c, 2, 55, 95
3, 1014960, Note_on_c, 2, 64, 95
3, 1015200, Note_off_c, 2, 64, 95
3, 1015200, Note_on_c, 2, 60, 95
3, 1015440, Note_off_c, 2, 60, 95
3, 1015440, Note_on_c, 2, 60, 79
3, 1015680, Note_off_c, 2, 60, 79
3, 1015680, Note_on_c, 2, 55, 79
3, 1015920, Note_off_c, 2, 55, 79
3, 1015920, Note_on_c, 2, 64, 79
3, 1016160, Note_off_c, 2, 64, 79
3, 1016160, Note_on_c, 2, 55, 63
3, 1016400, Note_off_c, 2, 55, 63
3, 1016400, Note_on_c, 2, 52, 63
3, 1016640, Note_off_c, 2, 52, 63
3, 1016640, Note_on_c, 2, 40, 63
3, 1016880, Note_off_c, 2, 40, 63
3, 1016880, Note_on_c, 2, 52, 47
3, 1017120, Note_off_c, 2, 52, 47
3, 1017120, Note_on_c, 2, 55, 47
3, 1017360, Note_off_c, 2, 55, 47
3, 1017360, Note_on_c, 2, 60, 47
3, 1017600, Note_off_c, 2, 60, 47
3, 1017600, Note_on_c, 2, 55, 31
3, 1017840, Note_off_c, 2, 55, 31
3, 1017840, Note_on_c, 2, 60, 31
3, 1018080, Note_off_c, 2, 60, 31
3, 1048800, Note_on_c, 3, 69, 95
3, 1048960, Pitch_bend_c, 3, 8192
3, 1049120, Pitch_bend_c, 3, 8320
3, 1049280, Pitch_bend_c, 3, 8192
3, 1049440, Pitch_bend_c, 3, 8320
3, 1049600, Pitch_bend_c, 3, 8192
3, 1049760, Pitch_bend_c, 3, 8320
3, 1049920, Pitch_bend_c, 3, 8192
3, 1050080, Pitch_bend_c, 3, 8320
3, 1050240, Pitch_bend_c, 3, 8192
3, 1050400, Pitch_bend_c, 3, 8320
3, 1050560, Pitch_bend_c, 3, 8192
3, 1050720, Pitch_bend_c, 3, 8320
3, 1050880, Pitch_bend_c, 3, 8192
3, 1051040, Pitch_bend_c, 3, 8320
3, 1051200, Pitch_bend_c, 3, 8192
3, 1051360, Pitch_bend_c, 3, 8320
3, 1051520, Pitch_bend_c, 3, 8192
3, 1051680, Pitch_bend_c, 3, 8320
3, 1051840, Pitch_bend_c, 3, 8192
3, 1052000, Pitch_bend_c, 3, 8320
3, 1052160, Pitch_bend_c, 3, 8192
3, 1052320, Pitch_bend_c, 3, 8320
3, 1052480, Pitch_bend_c, 3, 8192
3, 1052640, Pitch_bend_c, 3, 8320
3, 1052640, Pitch_bend_c, 3, 8192
3, 1052640, Note_off_c, 3, 69, 95
3, 1079520, Pitch_bend_c, 3, 8192
3, 1079520, Note_on_c, 3, 79, 95
3, 1079541, Pitch_bend_c, 3, 8320
3, 1079562, Pitch_bend_c, 3, 8448
3, 1079583, Pitch_bend_c, 3, 8576
3, 1079604, Pitch_bend_c, 3, 8704
3, 1079625, Pitch_bend_c, 3, 8832
3, 1079646, Pitch_bend_c, 3, 8960
3, 1079667, Pitch_bend_c, 3, 9088
3, 1079688, Pitch_bend_c, 3, 9216
3, 1079709, Pitch_bend_c, 3, 9344
3, 1079730, Pitch_bend_c, 3, 9472
3, 1079751, Pitch_bend_c, 3, 9600
3, 1079760, Pitch_bend_c, 3, 9600
3, 1080000, Pitch_bend_c, 3, 9600
3, 1080240, Pitch_bend_c, 3, 9600
3, 1080960, Pitch_bend_c, 3, 9600
3, 1081440, Pitch_bend_c, 3, 9600
3, 1081680, Pitch_bend_c, 3, 9600
3, 1081701, Pitch_bend_c, 3, 9472
3, 1081722, Pitch_bend_c, 3, 9344
3, 1081743, Pitch_bend_c, 3, 9216
3, 1081764, Pitch_bend_c, 3, 9088
3, 1081785, Pitch_bend_c, 3, 8960
3, 1081806, Pitch_bend_c, 3, 8832
3, 1081827, Pitch_bend_c, 3, 8704
3, 1081848, Pitch_bend_c, 3, 8576
3, 1081869, Pitch_bend_c, 3, 8448
3, 1081890, Pitch_bend_c, 3, 8320
3, 1081911, Pitch_bend_c, 3, 8192
3, 1081920, Pitch_bend_c, 3, 8192
3, 1082160, Pitch_bend_c, 3, 8192
3, 1082400, Pitch_bend_c, 3, 8192
3, 1082400, Pitch_bend_c, 3, 8192
3, 1082400, Note_off_c, 3, 79, 95
3, 1082400, Note_on_c, 2, 76, 95
3, 1082880, Note_off_c, 2, 76, 95
3, 1082880, Note_on_c, 2, 77, 95
3, 1083360, Note_off_c, 2, 77, 95
3, 1083360, Note_on_c, 2, 76, 95
3, 1083600, Note_off_c, 2, 76, 95
3, 1083600, Note_on_c, 2, 77, 95
3, 1083840, Note_off_c, 2, 77, 95
3, 1083840, Note_on_c, 2, 76, 70
3, 1084080, Note_off_c, 2, 76, 70
3, 1084080, Note_on_c, 2, 74, 95
3, 1084320, Note_off_c, 2, 74, 95
3, 1084320, Note_on_c, 3, 76, 95
3, 1084480, Pitch_bend_c, 3, 8192
3, 1084640, Pitch_bend_c, 3, 8320
3, 1084800, Pitch_bend_c, 3, 8192
3, 1084960, Pitch_bend_c, 3, 8320
3, 1085120, Pitch_bend_c, 3, 8192
3, 1085280, Pitch_bend_c, 3, 8320
3, 1085440, Pitch_bend_c, 3, 8192
3, 1085600, Pitch_bend_c, 3, 8320
3, 1085760, Pitch_bend_c, 3, 8192
3, 1085920, Pitch_bend_c, 3, 8320
3, 1086080, Pitch_bend_c, 3, 8192
3, 1086240, Pitch_bend_c, 3, 8320
3, 1086240, Pitch_bend_c, 3, 8192
3, 1086240, Note_off_c, 3, 76, 95
3, 1086240, Note_on_c, 2, 74, 95
3, 1086720, Note_off_c, 2, 74, 95
3, 1086720, Note_on_c, 2, 76, 95
3, 1087200, Note_off_c, 2, 76, 95
3, 1087200, Note_on_c, 2, 73, 95
3, 1087680, Note_off_c, 2, 73, 95
3, 1087680, Note_on_c, 2, 74, 95
3, 1088160, Note_off_c, 2, 74, 95
3, 1088160, Note_on_c, 3, 73, 95
3, 1088320, Pitch_bend_c, 3, 8192
3, 1088480, Pitch_bend_c, 3, 8320
3, 1088640, Pitch_bend_c, 3, 8192
3, 1088800, Pitch_bend_c, 3, 8320
3, 1088960, Pitch_bend_c, 3, 8192
3, 1089120, Pitch_bend_c, 3, 8320
3, 1089280, Pitch_bend_c, 3, 8192
3, 1089440, Pitch_bend_c, 3, 8320
3, 1089600, Pitch_bend_c, 3, 8192
3, 1089760, Pitch_bend_c, 3, 8320
3, 1089920, Pitch_bend_c, 3, 8192
3, 1090080, Pitch_bend_c, 3, 8320
3, 1090080, Pitch_bend_c, 3, 8192
3, 1090080, Note_off_c, 3, 73, 95
3, 1090080, Note_on_c, 3, 69, 95
3, 1090200, Pitch_bend_c, 3, 8320
3, 1090320, Pitch_bend_c, 3, 8448
3, 1090440, Pitch_bend_c, 3, 8704
3, 1090560, Pitch_bend_c, 3, 8832
3, 1090560, Pitch_bend_c, 3, 8192
3, 1090560, Note_off_c, 3, 69, 95
3, 1090560, Note_on_c, 2, 70, 95
3, 1091040, Note_off_c, 2, 70, 95
3, 1091040, Note_on_c, 2, 69, 95
3, 1091520, Note_off_c, 2, 69, 95
3, 1091520, Note_on_c, 2, 70, 95
3, 1092000, Note_off_c, 2, 70, 95
3, 1092000, Note_on_c, 3, 69, 95
3, 1092160, Pitch_bend_c, 3, 8192
3, 1092320, Pitch_bend_c, 3, 8320
3, 1092480, Pitch_bend_c, 3, 8192
3, 1092640, Pitch_bend_c, 3, 8320
3, 1092800, Pitch_bend_c, 3, 8192
3, 1092960, Pitch_bend_c, 3, 8320
3, 1093120, Pitch_bend_c, 3, 8192
3, 1093280, Pitch_bend_c, 3, 8320
3, 1093440, Pitch_bend_c, 3, 8192
3, 1093600, Pitch_bend_c, 3, 8320
3, 1093760, Pitch_bend_c, 3, 8192
3, 1093920, Pitch_bend_c, 3, 8320
3, 1093920, Pitch_bend_c, 3, 8192
3, 1093920, Note_off_c, 3, 69, 95
3, 1093920, Note_on_c, 2, 70, 95
3, 1094400, Note_off_c, 2, 70, 95
3, 1094400, Note_on_c, 2, 67, 95
3, 1094880, Note_off_c, 2, 67, 95
3, 1094880, Note_on_c, 3, 69, 95
3, 1095040, Pitch_bend_c, 3, 8192
3, 1095200, Pitch_bend_c, 3, 8320
3, 1095360, Pitch_bend_c, 3, 8192
3, 1095520, Pitch_bend_c, 3, 8320
3, 1095680, Pitch_bend_c, 3, 8192
3, 1095840, Pitch_bend_c, 3, 8320
3, 1096000, Pitch_bend_c, 3, 8192
3, 1096160, Pitch_bend_c, 3, 8320
3, 1096320, Pitch_bend_c, 3, 8192
3, 1096320, Pitch_bend_c, 3, 8320
3, 1096320, Pitch_bend_c, 3, 8192
3, 1096320, Note_off_c, 3, 69, 95
3, 1096320, Note_on_c, 3, 67, 95
3, 1096480, Pitch_bend_c, 3, 8192
3, 1096640, Pitch_bend_c, 3, 8320
3, 1096800, Pitch_bend_c, 3, 8192
3, 1096960, Pitch_bend_c, 3, 8320
3, 1097120, Pitch_bend_c, 3, 8192
3, 1097280, Pitch_bend_c, 3, 8320
3, 1097280, Pitch_bend_c, 3, 8192
3, 1097280, Note_off_c, 3, 67, 95
3, 1097280, Note_on_c, 2, 69, 95
3, 1097520, Note_off_c, 2, 69, 95
3, 1097520, Note_on_c, 2, 67, 70
3, 1097760, Note_off_c, 2, 67, 70
3, 1097760, Note_on_c, 3, 65, 70
3, 1097920, Pitch_bend_c, 3, 8192
3, 1098080, Pitch_bend_c, 3, 8320
3, 1098240, Pitch_bend_c, 3, 8192
3, 1098400, Pitch_bend_c, 3, 8320
3, 1098560, Pitch_bend_c, 3, 8192
3, 1098720, Pitch_bend_c, 3, 8320
3, 1098720, Pitch_bend_c, 3, 8192
3, 1098720, Note_off_c, 3, 65, 70
3, 1098720, Note_on_c, 3, 64, 95
3, 1098880, Pitch_bend_c, 3, 8192
3, 1099040, Pitch_bend_c, 3, 8320
3, 1099200, Pitch_bend_c, 3, 8192
3, 1099360, Pitch_bend_c, 3, 8320
3, 1099520, Pitch_bend_c, 3, 8192
3, 1099680, Pitch_bend_c, 3, 8320
3, 1099840, Pitch_bend_c, 3, 8192
3, 1100000, Pitch_bend_c, 3, 8320
3, 1100160, Pitch_bend_c, 3, 8192
3, 1100160, Pitch_bend_c, 3, 8320
3, 1100160, Pitch_bend_c, 3, 8192
3, 1100160, Note_off_c, 3, 64, 95
3, 1100160, Note_on_c, 3, 62, 95
3, 1100320, Pitch_bend_c, 3, 8192
3, 1100480, Pitch_bend_c, 3, 8320
3, 1100640, Pitch_bend_c, 3, 8192
3, 1100800, Pitch_bend_c, 3, 8320
3, 1100960, Pitch_bend_c, 3, 8192
3, 1101120, Pitch_bend_c, 3, 8320
3, 1101280, Pitch_bend_c, 3, 8192
3, 1101440, Pitch_bend_c, 3, 8320
3, 1101600, Pitch_bend_c, 3, 8192
3, 1101600, Pitch_bend_c, 3, 8320
3, 1101600, Pitch_bend_c, 3, 8192
3, 1101600, Note_off_c, 3, 62, 95
3, 1101600, Note_on_c, 3, 65, 95
3, 1101760, Pitch_bend_c, 3, 8192
3, 1101920, Pitch_bend_c, 3, 8320
3, 1102080, Pitch_bend_c, 3, 8192
3, 1102240, Pitch_bend_c, 3, 8320
3, 1102400, Pitch_bend_c, 3, 8192
3, 1102560, Pitch_bend_c, 3, 8320
3, 1102560, Pitch_bend_c, 3, 8192
3, 1102560, Note_off_c, 3, 65, 95
3, 1102560, Note_on_c, 3, 64, 95
3, 1102720, Pitch_bend_c, 3, 8192
3, 1102880, Pitch_bend_c, 3, 8320
3, 1103040, Pitch_bend_c, 3, 8192
3, 1103200, Pitch_bend_c, 3, 8320
3, 1103360, Pitch_bend_c, 3, 8192
3, 1103520, Pitch_bend_c, 3, 8320
3, 1103680, Pitch_bend_c, 3, 8192
3, 1103840, Pitch_bend_c, 3, 8320
3, 1104000, Pitch_bend_c, 3, 8192
3, 1104160, Pitch_bend_c, 3, 8320
3, 1104320, Pitch_bend_c, 3, 8192
3, 1104480, Pitch_bend_c, 3, 8320
3, 1104640, Pitch_bend_c, 3, 8192
3, 1104800, Pitch_bend_c, 3, 8320
3, 1104960, Pitch_bend_c, 3, 8192
3, 1105120, Pitch_bend_c, 3, 8320
3, 1105280, Pitch_bend_c, 3, 8192
3, 1105440, Pitch_bend_c, 3, 8320
3, 1105440, Pitch_bend_c, 3, 8192
3, 1105440, Note_off_c, 3, 64, 95
3, 1105440, Note_on_c, 2, 69, 95
3, 1105920, Note_off_c, 2, 69, 95
3, 1105920, Note_on_c, 2, 70, 95
3, 1106400, Note_off_c, 2, 70, 95
3, 1106400, Note_on_c, 3, 69, 95
3, 1106560, Pitch_bend_c, 3, 8192
3, 1106720, Pitch_bend_c, 3, 8320
3, 1106880, Pitch_bend_c, 3, 8192
3, 1107040, Pitch_bend_c, 3, 8320
3, 1107200, Pitch_bend_c, 3, 8192
3, 1107360, Pitch_bend_c, 3, 8320
3, 1107520, Pitch_bend_c, 3, 8192
3, 1107680, Pitch_bend_c, 3, 8320
3, 1107840, Pitch_bend_c, 3, 8192
3, 1108000, Pitch_bend_c, 3, 8320
3, 1108160, Pitch_bend_c, 3, 8192
3, 1108320, Pitch_bend_c, 3, 8320
3, 1108480, Pitch_bend_c, 3, 8192
3, 1108640, Pitch_bend_c, 3, 8320
3, 1108800, Pitch_bend_c, 3, 8192
3, 1108960, Pitch_bend_c, 3, 8320
3, 1109120, Pitch_bend_c, 3, 8192
3, 1109280, Pitch_bend_c, 3, 8320
3, 1109440, Pitch_bend_c, 3, 8192
3, 1109600, Pitch_bend_c, 3, 8320
3, 1109760, Pitch_bend_c, 3, 8192
3, 1109920, Pitch_bend_c, 3, 8320
3, 1110080, Pitch_bend_c, 3, 8192
3, 1110240, Pitch_bend_c, 3, 8320
3, 1110240, Pitch_bend_c, 3, 8192
3, 1110240, Note_off_c, 3, 69, 95
3, 1110240, Note_on_c, 2, 74, 95
3, 1110480, Note_off_c, 2, 74, 95
3, 1110480, Note_on_c, 2, 70, 95
3, 1110720, Note_off_c, 2, 70, 95
3, 1110720, Note_on_c, 3, 73, 95
3, 1110880, Pitch_bend_c, 3, 8192
3, 1111040, Pitch_bend_c, 3, 8320
3, 1111200, Pitch_bend_c, 3, 8192
3, 1111360, Pitch_bend_c, 3, 8320
3, 1111440, Pitch_bend_c, 3, 8192
3, 1111440, Pitch_bend_c, 3, 8320
3, 1111440, Pitch_bend_c, 3, 8192
3, 1111440, Note_off_c, 3, 73, 95
3, 1111440, Note_on_c, 2, 70, 95
3, 1111680, Note_off_c, 2, 70, 95
3, 1111680, Note_on_c, 2, 67, 95
3, 1111920, Note_off_c, 2, 67, 95
3, 1111920, Note_on_c, 2, 70, 95
3, 1112160, Note_off_c, 2, 70, 95
3, 1112160, Note_on_c, 3, 69, 95
3, 1112320, Pitch_bend_c, 3, 8192
3, 1112480, Pitch_bend_c, 3, 8320
3, 1112640, Pitch_bend_c, 3, 8192
3, 1112800, Pitch_bend_c, 3, 8320
3, 1112960, Pitch_bend_c, 3, 8192
3, 1113120, Pitch_bend_c, 3, 8320
3, 1113120, Pitch_bend_c, 3, 8192
3, 1113120, Note_off_c, 3, 69, 95
3, 1113120, Note_on_c, 2, 70, 95
3, 1113360, Note_off_c, 2, 70, 95
3, 1113360, Note_on_c, 2, 67, 95
3, 1113600, Note_off_c, 2, 67, 95
3, 1113600, Note_on_c, 2, 69, 95
3, 1113840, Note_off_c, 2, 69, 95
3, 1113840, Note_on_c, 2, 67, 95
3, 1114080, Note_off_c, 2, 67, 95
3, 1114080, Note_on_c, 2, 65, 95
3, 1114320, Note_off_c, 2, 65, 95
3, 1114320, Note_on_c, 2, 67, 95
3, 1114560, Note_off_c, 2, 67, 95
3, 1114560, Note_on_c, 3, 64, 95
3, 1114720, Pitch_bend_c, 3, 8192
3, 1114880, Pitch_bend_c, 3, 8320
3, 1115040, Pitch_bend_c, 3, 8192
3, 1115200, Pitch_bend_c, 3, 8320
3, 1115360, Pitch_bend_c, 3, 8192
3, 1115520, Pitch_bend_c, 3, 8320
3, 1115520, Pitch_bend_c, 3, 8192
3, 1115520, Note_off_c, 3, 64, 95
3, 1115520, Note_on_c, 2, 81, 95
3, 1115760, Note_off_c, 2, 81, 95
3, 1115760, Note_on_c, 2, 77, 95
3, 1116000, Note_off_c, 2, 77, 95
3, 1116000, Note_on_c, 2, 79, 95
3, 1116240, Note_off_c, 2, 79, 95
3, 1116240, Note_on_c, 2, 81, 95
3, 1116360, Note_off_c, 2, 81, 95
3, 1116360, Note_on_c, 2, 79, 70
3, 1116480, Note_off_c, 2, 79, 70
3, 1116480, Note_on_c, 2, 77, 70
3, 1116720, Note_off_c, 2, 77, 70
3, 1116720, Note_on_c, 2, 76, 95
3, 1116960, Note_off_c, 2, 76, 95
3, 1116960, Note_on_c, 2, 77, 95
3, 1117200, Note_off_c, 2, 77, 95
3, 1117200, Note_on_c, 2, 76, 95
3, 1117440, Note_off_c, 2, 76, 95
3, 1117440, Note_on_c, 2, 74, 95
3, 1117680, Note_off_c, 2, 74, 95
3, 1117680, Note_on_c, 2, 73, 95
3, 1117920, Note_off_c, 2, 73, 95
3, 1117920, Note_on_c, 2, 74, 95
3, 1118160, Note_off_c, 2, 74, 95
3, 1118160, Note_on_c, 2, 82, 95
3, 1118400, Note_off_c, 2, 82, 95
3, 1118400, Note_on_c, 3, 81, 95
3, 1118560, Pitch_bend_c, 3, 8192
3, 1118720, Pitch_bend_c, 3, 8320
3, 1118880, Pitch_bend_c, 3, 8192
3, 1119040, Pitch_bend_c, 3, 8320
3, 1119200, Pitch_bend_c, 3, 8192
3, 1119360, Pitch_bend_c, 3, 8320
3, 1119360, Pitch_bend_c, 3, 8192
3, 1119360, Note_off_c, 3, 81, 95
3, 1119360, Note_on_c, 2, 77, 95
3, 1119600, Note_off_c, 2, 77, 95
3, 1119600, Note_on_c, 2, 74, 95
3, 1119840, Note_off_c, 2, 74, 95
3, 1119840, Note_on_c, 3, 76, 95
3, 1120000, Pitch_bend_c, 3, 8192
3, 1120160, Pitch_bend_c, 3, 8320
3, 1120320, Pitch_bend_c, 3, 8192
3, 1120480, Pitch_bend_c, 3, 8320
3, 1120640, Pitch_bend_c, 3, 8192
3, 1120800, Pitch_bend_c, 3, 8320
3, 1120800, Pitch_bend_c, 3, 8192
3, 1120800, Note_off_c, 3, 76, 95
3, 1120800, Note_on_c, 2, 76, 95
3, 1121040, Note_off_c, 2, 76, 95
3, 1121040, Note_on_c, 2, 73, 95
3, 1121280, Note_off_c, 2, 73, 95
3, 1121280, Note_on_c, 2, 74, 95
3, 1121520, Note_off_c, 2, 74, 95
3, 1121520, Note_on_c, 2, 73, 95
3, 1121760, Note_off_c, 2, 73, 95
3, 1121760, Note_on_c, 2, 70, 95
3, 1122000, Note_off_c, 2, 70, 95
3, 1122000, Note_on_c, 2, 73, 95
3, 1122240, Note_off_c, 2, 73, 95
3, 1122240, Note_on_c, 3, 69, 95
3, 1122400, Pitch_bend_c, 3, 8192
3, 1122560, Pitch_bend_c, 3, 8320
3, 1122720, Pitch_bend_c, 3, 8192
3, 1122880, Pitch_bend_c, 3, 8320
3, 1123040, Pitch_bend_c, 3, 8192
3, 1123200, Pitch_bend_c, 3, 8320
3, 1123200, Pitch_bend_c, 3, 8192
3, 1123200, Note_off_c, 3, 69, 95
3, 1123200, Note_on_c, 2, 70, 95
3, 1123440, Note_off_c, 2, 70, 95
3, 1123440, Note_on_c, 2, 67, 95
3, 1123680, Note_off_c, 2, 67, 95
3, 1123680, Note_on_c, 2, 69, 95
3, 1123920, Note_off_c, 2, 69, 95
3, 1123920, Note_on_c, 2, 67, 95
3, 1124160, Note_off_c, 2, 67, 95
3, 1124160, Note_on_c, 2, 65, 95
3, 1124400, Note_off_c, 2, 65, 95
3, 1124400, Note_on_c, 2, 67, 95
3, 1124640, Note_off_c, 2, 67, 95
3, 1124640, Note_on_c, 3, 64, 95
3, 1124800, Pitch_bend_c, 3, 8192
3, 1124960, Pitch_bend_c, 3, 8320
3, 1125120, Pitch_bend_c, 3, 8192
3, 1125280, Pitch_bend_c, 3, 8320
3, 1125440, Pitch_bend_c, 3, 8192
3, 1125600, Pitch_bend_c, 3, 8320
3, 1125600, Pitch_bend_c, 3, 8192
3, 1125600, Note_off_c, 3, 64, 95
3, 1125600, Note_on_c, 2, 74, 95
3, 1125840, Note_off_c, 2, 74, 95
3, 1125840, Note_on_c, 2, 70, 95
3, 1126080, Note_off_c, 2, 70, 95
3, 1126080, Note_on_c, 3, 73, 95
3, 1126240, Pitch_bend_c, 3, 8192
3, 1126400, Pitch_bend_c, 3, 8320
3, 1126560, Pitch_bend_c, 3, 8192
3, 1126720, Pitch_bend_c, 3, 8320
3, 1126800, Pitch_bend_c, 3, 8192
3, 1126800, Pitch_bend_c, 3, 8320
3, 1126800, Pitch_bend_c, 3, 8192
3, 1126800, Note_off_c, 3, 73, 95
3, 1126800, Note_on_c, 2, 70, 95
3, 1127040, Note_off_c, 2, 70, 95
3, 1127040, Note_on_c, 2, 67, 95
3, 1127280, Note_off_c, 2, 67, 95
3, 1127280, Note_on_c, 2, 70, 95
3, 1127520, Note_off_c, 2, 70, 95
3, 1127520, Note_on_c, 3, 69, 95
3, 1127680, Pitch_bend_c, 3, 8192
3, 1127840, Pitch_bend_c, 3, 8320
3, 1128000, Pitch_bend_c, 3, 8192
3, 1128160, Pitch_bend_c, 3, 8320
3, 1128320, Pitch_bend_c, 3, 8192
3, 1128480, Pitch_bend_c, 3, 8320
3, 1128480, Pitch_bend_c, 3, 8192
3, 1128480, Note_off_c, 3, 69, 95
3, 1128480, Note_on_c, 2, 82, 95
3, 1128720, Note_off_c, 2, 82, 95
3, 1128720, Note_on_c, 2, 79, 95
3, 1128960, Note_off_c, 2, 79, 95
3, 1128960, Note_on_c, 2, 81, 95
3, 1129200, Note_off_c, 2, 81, 95
3, 1129200, Note_on_c, 2, 79, 95
3, 1129440, Note_off_c, 2, 79, 95
3, 1129440, Note_on_c, 2, 77, 95
3, 1129680, Note_off_c, 2, 77, 95
3, 1129680, Note_on_c, 2, 79, 95
3, 1129920, Note_off_c, 2, 79, 95
3, 1129920, Note_on_c, 3, 76, 95
3, 1130080, Pitch_bend_c, 3, 8192
3, 1130240, Pitch_bend_c, 3, 8320
3, 1130400, Pitch_bend_c, 3, 8192
3, 1130560, Pitch_bend_c, 3, 8320
3, 1130720, Pitch_bend_c, 3, 8192
3, 1130880, Pitch_bend_c, 3, 8320
3, 1130880, Pitch_bend_c, 3, 8192
3, 1130880, Note_off_c, 3, 76, 95
3, 1130880, Note_on_c, 2, 86, 95
3, 1131120, Note_off_c, 2, 86, 95
3, 1131120, Note_on_c, 2, 82, 95
3, 1131360, Note_off_c, 2, 82, 95
3, 1131360, Note_on_c, 2, 85, 95
3, 1131600, Note_off_c, 2, 85, 95
3, 1131600, Note_on_c, 2, 86, 70
3, 1131720, Note_off_c, 2, 86, 70
3, 1131720, Note_on_c, 2, 85, 70
3, 1131840, Note_off_c, 2, 85, 70
3, 1131840, Note_on_c, 2, 82, 95
3, 1132080, Note_off_c, 2, 82, 95
3, 1132080, Note_on_c, 2, 81, 95
3, 1132320, Note_off_c, 2, 81, 95
3, 1132320, Note_on_c, 2, 82, 95
3, 1132560, Note_off_c, 2, 82, 95
3, 1132560, Note_on_c, 2, 81, 95
3, 1132800, Note_off_c, 2, 81, 95
3, 1132800, Note_on_c, 2, 79, 95
3, 1133040, Note_off_c, 2, 79, 95
3, 1133040, Note_on_c, 2, 77, 95
3, 1133280, Note_off_c, 2, 77, 95
3, 1133280, Note_on_c, 2, 79, 95
3, 1133520, Note_off_c, 2, 79, 95
3, 1133520, Note_on_c, 2, 86, 95
3, 1133760, Note_off_c, 2, 86, 95
3, 1133760, Note_on_c, 3, 85, 95
3, 1133920, Pitch_bend_c, 3, 8192
3, 1134080, Pitch_bend_c, 3, 8320
3, 1134240, Pitch_bend_c, 3, 8192
3, 1134400, Pitch_bend_c, 3, 8320
3, 1134560, Pitch_bend_c, 3, 8192
3, 1134720, Pitch_bend_c, 3, 8320
3, 1134720, Pitch_bend_c, 3, 8192
3, 1134720, Note_off_c, 3, 85, 95
3, 1134720, Note_on_c, 2, 82, 95
3, 1134960, Note_off_c, 2, 82, 95
3, 1134960, Note_on_c, 2, 79, 95
3, 1135200, Note_off_c, 2, 79, 95
3, 1135200, Note_on_c, 3, 81, 95
3, 1135360, Pitch_bend_c, 3, 8192
3, 1135520, Pitch_bend_c, 3, 8320
3, 1135680, Pitch_bend_c, 3, 8192
3, 1135840, Pitch_bend_c, 3, 8320
3, 1136000, Pitch_bend_c, 3, 8192
3, 1136160, Pitch_bend_c, 3, 8320
3, 1136160, Pitch_bend_c, 3, 8192
3, 1136160, Note_off_c, 3, 81, 95
3, 1136160, Note_on_c, 2, 79, 95
3, 1136400, Note_off_c, 2, 79, 95
3, 1136400, Note_on_c, 2, 76, 95
3, 1136640, Note_off_c, 2, 76, 95
3, 1136640, Note_on_c, 2, 77, 95
3, 1136880, Note_off_c, 2, 77, 95
3, 1136880, Note_on_c, 2, 76, 95
3, 1137120, Note_off_c, 2, 76, 95
3, 1137120, Note_on_c, 2, 74, 95
3, 1137360, Note_off_c, 2, 74, 95
3, 1137360, Note_on_c, 2, 76, 95
3, 1137600, Note_off_c, 2, 76, 95
3, 1137600, Note_on_c, 3, 73, 95
3, 1137760, Pitch_bend_c, 3, 8192
3, 1137920, Pitch_bend_c, 3, 8320
3, 1138080, Pitch_bend_c, 3, 8192
3, 1138240, Pitch_bend_c, 3, 8320
3, 1138400, Pitch_bend_c, 3, 8192
3, 1138560, Pitch_bend_c, 3, 8320
3, 1138560, Pitch_bend_c, 3, 8192
3, 1138560, Note_off_c, 3, 73, 95
3, 1138560, Note_on_c, 2, 67, 95
3, 1138800, Note_off_c, 2, 67, 95
3, 1138800, Note_on_c, 2, 64, 95
3, 1139040, Note_off_c, 2, 64, 95
3, 1139040, Note_on_c, 2, 65, 95
3, 1139280, Note_off_c, 2, 65, 95
3, 1139280, Note_on_c, 2, 64, 95
3, 1139520, Note_off_c, 2, 64, 95
3, 1139520, Note_on_c, 2, 62, 95
3, 1139760, Note_off_c, 2, 62, 95
3, 1139760, Note_on_c, 2, 64, 95
3, 1140000, Note_off_c, 2, 64, 95
3, 1140000, Note_on_c, 3, 61, 95
3, 1140160, Pitch_bend_c, 3, 8192
3, 1140320, Pitch_bend_c, 3, 8320
3, 1140480, Pitch_bend_c, 3, 8192
3, 1140640, Pitch_bend_c, 3, 8320
3, 1140800, Pitch_bend_c, 3, 8192
3, 1140960, Pitch_bend_c, 3, 8320
3, 1140960, Pitch_bend_c, 3, 8192
3, 1140960, Note_off_c, 3, 61, 95
3, 1140960, Note_on_c, 2, 74, 95
3, 1141200, Note_off_c, 2, 74, 95
3, 1141200, Note_on_c, 2, 70, 95
3, 1141440, Note_off_c, 2, 70, 95
3, 1141440, Note_on_c, 3, 73, 95
3, 1141600, Pitch_bend_c, 3, 8192
3, 1141760, Pitch_bend_c, 3, 8320
3, 1141920, Pitch_bend_c, 3, 8192
3, 1142080, Pitch_bend_c, 3, 8320
3, 1142160, Pitch_bend_c, 3, 8192
3, 1142160, Pitch_bend_c, 3, 8320
3, 1142160, Pitch_bend_c, 3, 8192
3, 1142160, Note_off_c, 3, 73, 95
3, 1142160, Note_on_c, 2, 70, 95
3, 1142400, Note_off_c, 2, 70, 95
3, 1142400, Note_on_c, 2, 69, 95
3, 1142640, Note_off_c, 2, 69, 95
3, 1142640, Note_on_c, 2, 70, 95
3, 1142880, Note_off_c, 2, 70, 95
3, 1142880, Note_on_c, 3, 67, 95
3, 1143040, Pitch_bend_c, 3, 8192
3, 1143200, Pitch_bend_c, 3, 8320
3, 1143360, Pitch_bend_c, 3, 8192
3, 1143520, Pitch_bend_c, 3, 8320
3, 1143680, Pitch_bend_c, 3, 8192
3, 1143840, Pitch_bend_c, 3, 8320
3, 1143840, Pitch_bend_c, 3, 8192
3, 1143840, Note_off_c, 3, 67, 95
3, 1143840, Note_on_c, 2, 70, 95
3, 1144080, Note_off_c, 2, 70, 95
3, 1144080, Note_on_c, 2, 67, 95
3, 1144320, Note_off_c, 2, 67, 95
3, 1144320, Note_on_c, 2, 69, 95
3, 1144560, Note_off_c, 2, 69, 95
3, 1144560, Note_on_c, 2, 67, 95
3, 1144800, Note_off_c, 2, 67, 95
3, 1144800, Note_on_c, 2, 65, 95
3, 1145040, Note_off_c, 2, 65, 95
3, 1145040, Note_on_c, 2, 67, 95
3, 1145280, Note_off_c, 2, 67, 95
3, 1145280, Note_on_c, 2, 64, 95
3, 1145520, Note_off_c, 2, 64, 95
3, 1145520, Note_on_c, 2, 65, 95
3, 1145760, Note_off_c, 2, 65, 95
3, 1145760, Note_on_c, 2, 67, 95
3, 1146000, Note_off_c, 2, 67, 95
3, 1146000, Note_on_c, 2, 69, 95
3, 1146240, Note_off_c, 2, 69, 95
3, 1146240, Note_on_c, 3, 67, 95
3, 1146400, Pitch_bend_c, 3, 8192
3, 1146560, Pitch_bend_c, 3, 8320
3, 1146720, Pitch_bend_c, 3, 8192
3, 1146880, Pitch_bend_c, 3, 8320
3, 1147040, Pitch_bend_c, 3, 8192
3, 1147200, Pitch_bend_c, 3, 8320
3, 1147200, Pitch_bend_c, 3, 8192
3, 1147200, Note_off_c, 3, 67, 95
3, 1147200, Note_on_c, 2, 81, 95
3, 1147440, Note_off_c, 2, 81, 95
3, 1147440, Note_on_c, 2, 77, 95
3, 1147680, Note_off_c, 2, 77, 95
3, 1147680, Note_on_c, 2, 79, 95
3, 1147920, Note_off_c, 2, 79, 95
3, 1147920, Note_on_c, 2, 81, 95
3, 1148040, Note_off_c, 2, 81, 95
3, 1148040, Note_on_c, 2, 79, 70
3, 1148160, Note_off_c, 2, 79, 70
3, 1148160, Note_on_c, 2, 77, 70
3, 1148400, Note_off_c, 2, 77, 70
3, 1148400, Note_on_c, 2, 76, 95
3, 1148640, Note_off_c, 2, 76, 95
3, 1148640, Note_on_c, 2, 74, 95
3, 1148760, Note_off_c, 2, 74, 95
3, 1148760, Note_on_c, 2, 73, 70
3, 1148880, Note_off_c, 2, 73, 70
3, 1148880, Note_on_c, 2, 70, 70
3, 1149000, Note_off_c, 2, 70, 70
3, 1149000, Note_on_c, 2, 69, 95
3, 1149120, Note_off_c, 2, 69, 95
3, 1149120, Note_on_c, 2, 67, 70
3, 1149240, Note_off_c, 2, 67, 70
3, 1149240, Note_on_c, 2, 65, 70
3, 1149360, Note_off_c, 2, 65, 70
3, 1149360, Note_on_c, 2, 64, 95
3, 1149480, Note_off_c, 2, 64, 95
3, 1149480, Note_on_c, 2, 62, 70
3, 1149600, Note_off_c, 2, 62, 70
3, 1149600, Note_on_c, 3, 69, 95
3, 1149760, Pitch_bend_c, 3, 8192
3, 1149920, Pitch_bend_c, 3, 8320
3, 1150080, Pitch_bend_c, 3, 8192
3, 1150240, Pitch_bend_c, 3, 8320
3, 1150400, Pitch_bend_c, 3, 8192
3, 1150560, Pitch_bend_c, 3, 8320
3, 1150560, Pitch_bend_c, 3, 8192
3, 1150560, Note_off_c, 3, 69, 95
3, 1150560, Note_on_c, 2, 77, 95
3, 1150800, Note_off_c, 2, 77, 95
3, 1150800, Note_on_c, 2, 74, 95
3, 1151040, Note_off_c, 2, 74, 95
3, 1151040, Note_on_c, 2, 76, 95
3, 1151280, Note_off_c, 2, 76, 95
3, 1151280, Note_on_c, 2, 77, 95
3, 1151520, Note_off_c, 2, 77, 95
3, 1151520, Note_on_c, 2, 76, 95
3, 1151760, Note_off_c, 2, 76, 95
3, 1151760, Note_on_c, 2, 74, 95
3, 1152000, Note_off_c, 2, 74, 95
3, 1152000, Note_on_c, 2, 73, 95
3, 1152240, Note_off_c, 2, 73, 95
3, 1152240, Note_on_c, 2, 72, 95
3, 1152480, Note_off_c, 2, 72, 95
3, 1152480, Note_on_c, 2, 70, 95
3, 1152720, Note_off_c, 2, 70, 95
3, 1152720, Note_on_c, 2, 69, 95
3, 1152960, Note_off_c, 2, 69, 95
3, 1152960, Note_on_c, 2, 67, 95
3, 1153200, Note_off_c, 2, 67, 95
3, 1153200, Note_on_c, 2, 65, 95
3, 1153440, Note_off_c, 2, 65, 95
3, 1153440, Note_on_c, 2, 64, 95
3, 1153680, Note_off_c, 2, 64, 95
3, 1153680, Note_on_c, 2, 62, 95
3, 1153920, Note_off_c, 2, 62, 95
3, 1153920, Note_on_c, 2, 73, 95
3, 1154160, Note_off_c, 2, 73, 95
3, 1154160, Note_on_c, 2, 72, 95
3, 1154400, Note_off_c, 2, 72, 95
3, 1154400, Note_on_c, 2, 70, 95
3, 1154640, Note_off_c, 2, 70, 95
3, 1154640, Note_on_c, 2, 69, 95
3, 1154880, Note_off_c, 2, 69, 95
3, 1154880, Note_on_c, 2, 76, 95
3, 1155120, Note_off_c, 2, 76, 95
3, 1155120, Note_on_c, 2, 73, 95
3, 1155360, Note_off_c, 2, 73, 95
3, 1155360, Note_on_c, 3, 81, 95
3, 1155520, Pitch_bend_c, 3, 8192
3, 1155680, Pitch_bend_c, 3, 8320
3, 1155840, Pitch_bend_c, 3, 8192
3, 1156000, Pitch_bend_c, 3, 8320
3, 1156160, Pitch_bend_c, 3, 8192
3, 1156320, Pitch_bend_c, 3, 8320
3, 1156320, Pitch_bend_c, 3, 8192
3, 1156320, Note_off_c, 3, 81, 95
3, 1171680, Note_on_c, 2, 41, 95
3, 1172160, Note_off_c, 2, 41, 95
3, 1172160, Note_on_c, 2, 48, 95
3, 1172290, Note_off_c, 2, 48, 95
3, 1172640, Note_on_c, 2, 53, 95
3, 1172770, Note_off_c, 2, 53, 95
3, 1173120, Note_on_c, 2, 57, 95
3, 1173600, Note_off_c, 2, 57, 95
3, 1173600, Note_on_c, 2, 59, 95
3, 1174080, Note_off_c, 2, 59, 95
3, 1174080, Note_on_c, 2, 50, 95
3, 1174210, Note_off_c, 2, 50, 95
3, 1174560, Note_on_c, 2, 55, 95
3, 1174690, Note_off_c, 2, 55, 95
3, 1175040, Note_on_c, 2, 59, 95
3, 1175520, Note_off_c, 2, 59, 95
3, 1175520, Note_on_c, 2, 60, 95
3, 1176000, Note_off_c, 2, 60, 95
3, 1176000, Note_on_c, 2, 52, 95
3, 1176480, Note_off_c, 2, 52, 95
3, 1176480, Note_on_c, 2, 57, 95
3, 1176960, Note_off_c, 2, 57, 95
3, 1176960, Note_on_c, 2, 60, 95
3, 1177440, Note_off_c, 2, 60, 95
3, 1177440, Note_on_c, 2, 59, 95
3, 1177560, Note_off_c, 2, 59, 95
3, 1177560, Note_on_c, 2, 60, 70
3, 1177680, Note_off_c, 2, 60, 70
3, 1177680, Note_on_c, 2, 59, 70
3, 1177800, Note_off_c, 2, 59, 70
3, 1177800, Note_on_c, 2, 55, 95
3, 1178280, Note_off_c, 2, 55, 95
3, 1178280, Note_on_c, 2, 50, 95
3, 1178760, Note_off_c, 2, 50, 95
3, 1178760, Note_on_c, 2, 53, 95
3, 1179840, Note_off_c, 2, 53, 95
3, 1179840, Note_on_c, 2, 48, 95
3, 1179970, Note_off_c, 2, 48, 95
3, 1180320, Note_on_c, 2, 53, 95
3, 1180450, Note_off_c, 2, 53, 95
3, 1180800, Note_on_c, 2, 57, 95
3, 1181280, Note_off_c, 2, 57, 95
3, 1181280, Note_on_c, 2, 59, 95
3, 1181760, Note_off_c, 2, 59, 95
3, 1181760, Note_on_c, 2, 50, 95
3, 1182240, Note_off_c, 2, 50, 95
3, 1182240, Note_on_c, 2, 60, 95
3, 1182720, Note_off_c, 2, 60, 95
3, 1182720, Note_on_c, 2, 59, 95
3, 1183200, Note_off_c, 2, 59, 95
3, 1183200, Note_on_c, 2, 57, 95
3, 1183200, Note_on_c, 2, 52, 95
3, 1183200, Note_on_c, 2, 45, 95
3, 1184640, Note_off_c, 2, 57, 95
3, 1184640, Note_off_c, 2, 52, 95
3, 1184640, Note_off_c, 2, 45, 95
3, 1184640, Note_on_c, 2, 55, 95
3, 1184640, Note_on_c, 2, 50, 95
3, 1184640, Note_on_c, 2, 43, 95
3, 1185600, Note_off_c, 2, 55, 95
3, 1185600, Note_off_c, 2, 50, 95
3, 1185600, Note_off_c, 2, 43, 95
3, 1185600, Note_on_c, 2, 52, 95
3, 1185600, Note_on_c, 2, 47, 95
3, 1185600, Note_on_c, 2, 40, 95
3, 1186560, Note_off_c, 2, 52, 95
3, 1186560, Note_off_c, 2, 47, 95
3, 1186560, Note_off_c, 2, 40, 95
3, 1186560, Note_on_c, 2, 53, 95
3, 1186560, Note_on_c, 2, 48, 95
3, 1186560, Note_on_c, 2, 41, 95
3, 1187520, Note_off_c, 2, 53, 95
3, 1187520, Note_off_c, 2, 48, 95
3, 1187520, Note_off_c, 2, 41, 95
3, 1187520, Note_on_c, 2, 48, 95
3, 1187650, Note_off_c, 2, 48, 95
3, 1188000, Note_on_c, 2, 53, 95
3, 1188130, Note_off_c, 2, 53, 95
3, 1188480, Note_on_c, 2, 57, 95
3, 1188960, Note_off_c, 2, 57, 95
3, 1188960, Note_on_c, 2, 59, 95
3, 1189440, Note_off_c, 2, 59, 95
3, 1189440, Note_on_c, 2, 50, 95
3, 1189570, Note_off_c, 2, 50, 95
3, 1189920, Note_on_c, 2, 55, 95
3, 1190050, Note_off_c, 2, 55, 95
3, 1190400, Note_on_c, 2, 59, 95
3, 1190880, Note_off_c, 2, 59, 95
3, 1190880, Note_on_c, 2, 60, 95
3, 1191360, Note_off_c, 2, 60, 95
3, 1191360, Note_on_c, 2, 52, 95
3, 1191840, Note_off_c, 2, 52, 95
3, 1191840, Note_on_c, 2, 57, 95
3, 1192320, Note_off_c, 2, 57, 95
3, 1192320, Note_on_c, 2, 60, 95
3, 1192800, Note_off_c, 2, 60, 95
3, 1192800, Note_on_c, 2, 62, 95
3, 1193280, Note_off_c, 2, 62, 95
3, 1193280, Note_on_c, 2, 55, 95
3, 1193760, Note_off_c, 2, 55, 95
3, 1193760, Note_on_c, 2, 50, 95
3, 1194240, Note_off_c, 2, 50, 95
3, 1194240, Note_on_c, 2, 53, 95
3, 1195200, Note_off_c, 2, 53, 95
3, 1195200, Note_on_c, 2, 48, 95
3, 1195330, Note_off_c, 2, 48, 95
3, 1195680, Note_on_c, 2, 53, 95
3, 1195810, Note_off_c, 2, 53, 95
3, 1196160, Note_on_c, 2, 60, 95
3, 1196640, Note_off_c, 2, 60, 95
3, 1196640, Note_on_c, 2, 59, 95
3, 1197120, Note_off_c, 2, 59, 95
3, 1197120, Note_on_c, 2, 47, 95
3, 1197250, Note_off_c, 2, 47, 95
3, 1197600, Note_on_c, 2, 55, 95
3, 1198080, Note_off_c, 2, 55, 95
3, 1198080, Note_on_c, 2, 59, 95
3, 1198560, Note_off_c, 2, 59, 95
3, 1198560, Note_on_c, 2, 57, 95
3, 1198560, Note_on_c, 2, 52, 95
3, 1198560, Note_on_c, 2, 45, 95
3, 1199520, Note_off_c, 2, 57, 95
3, 1199520, Note_off_c, 2, 52, 95
3, 1199520, Note_off_c, 2, 45, 95
3, 1200000, Note_on_c, 2, 59, 95
3, 1200480, Note_off_c, 2, 59, 95
3, 1200960, Note_on_c, 2, 60, 95
3, 1201440, Note_off_c, 2, 60, 95
3, 1201920, Note_on_c, 2, 53, 95
3, 1202880, Note_off_c, 2, 53, 95
3, 1202880, Note_on_c, 2, 48, 95
3, 1203010, Note_off_c, 2, 48, 95
3, 1203360, Note_on_c, 2, 53, 95
3, 1203490, Note_off_c, 2, 53, 95
3, 1203840, Note_on_c, 2, 57, 95
3, 1204320, Note_off_c, 2, 57, 95
3, 1204320, Note_on_c, 2, 59, 95
3, 1204800, Note_off_c, 2, 59, 95
3, 1204800, Note_on_c, 2, 50, 95
3, 1204930, Note_off_c, 2, 50, 95
3, 1205280, Note_on_c, 2, 55, 95
3, 1205410, Note_off_c, 2, 55, 95
3, 1205760, Note_on_c, 2, 59, 95
3, 1206240, Note_off_c, 2, 59, 95
3, 1206240, Note_on_c, 2, 60, 95
3, 1206720, Note_off_c, 2, 60, 95
3, 1206720, Note_on_c, 2, 52, 95
3, 1207200, Note_off_c, 2, 52, 95
3, 1207200, Note_on_c, 2, 57, 95
3, 1207680, Note_off_c, 2, 57, 95
3, 1207680, Note_on_c, 2, 60, 95
3, 1208160, Note_off_c, 2, 60, 95
3, 1208160, Note_on_c, 2, 62, 95
3, 1208640, Note_off_c, 2, 62, 95
3, 1208640, Note_on_c, 2, 55, 95
3, 1209120, Note_off_c, 2, 55, 95
3, 1209120, Note_on_c, 2, 59, 95
3, 1209600, Note_off_c, 2, 59, 95
3, 1209600, Note_on_c, 2, 62, 95
3, 1210080, Note_off_c, 2, 62, 95
3, 1210080, Note_on_c, 2, 67, 95
3, 1210560, Note_off_c, 2, 67, 95
3, 1210560, Note_on_c, 2, 62, 95
3, 1210800, Note_off_c, 2, 62, 95
3, 1210800, Note_on_c, 2, 62, 95
3, 1211040, Note_off_c, 2, 62, 95
3, 1211040, Note_on_c, 2, 65, 95
3, 1211520, Note_off_c, 2, 65, 95
3, 1211520, Note_on_c, 3, 64, 95
3, 1211680, Pitch_bend_c, 3, 8192
3, 1211840, Pitch_bend_c, 3, 8320
3, 1212000, Pitch_bend_c, 3, 8192
3, 1212160, Pitch_bend_c, 3, 8320
3, 1212320, Pitch_bend_c, 3, 8192
3, 1212480, Pitch_bend_c, 3, 8320
3, 1212480, Pitch_bend_c, 3, 8192
3, 1212480, Note_off_c, 3, 64, 95
3, 1212480, Note_on_c, 2, 48, 95
3, 1212960, Note_off_c, 2, 48, 95
3, 1212960, Note_on_c, 2, 52, 95
3, 1213440, Note_off_c, 2, 52, 95
3, 1213440, Note_on_c, 2, 55, 95
3, 1213920, Note_off_c, 2, 55, 95
3, 1213920, Note_on_c, 2, 60, 95
3, 1214400, Note_off_c, 2, 60, 95
3, 1214400, Note_on_c, 2, 62, 95
3, 1214880, Note_off_c, 2, 62, 95
3, 1214880, Note_on_c, 2, 64, 95
3, 1215360, Note_off_c, 2, 64, 95
3, 1215360, Note_on_c, 2, 65, 95
3, 1215840, Note_off_c, 2, 65, 95
3, 1215840, Note_on_c, 2, 50, 95
3, 1216320, Note_off_c, 2, 50, 95
3, 1216320, Note_on_c, 2, 57, 95
3, 1216800, Note_off_c, 2, 57, 95
3, 1216800, Note_on_c, 3, 64, 95
3, 1216920, Pitch_bend_c, 3, 8320
3, 1217040, Pitch_bend_c, 3, 8448
3, 1217160, Pitch_bend_c, 3, 8704
3, 1217280, Pitch_bend_c, 3, 8832
3, 1217280, Pitch_bend_c, 3, 8192
3, 1217280, Note_off_c, 3, 64, 95
3, 1217280, Note_on_c, 2, 65, 95
3, 1217760, Note_off_c, 2, 65, 95
3, 1217760, Note_on_c, 2, 46, 95
3, 1218240, Note_off_c, 2, 46, 95
3, 1218240, Note_on_c, 2, 55, 95
3, 1218720, Note_off_c, 2, 55, 95
3, 1218720, Note_on_c, 3, 62, 95
3, 1218840, Pitch_bend_c, 3, 8448
3, 1218960, Pitch_bend_c, 3, 8832
3, 1219080, Pitch_bend_c, 3, 9216
3, 1219200, Pitch_bend_c, 3, 9600
3, 1219200, Pitch_bend_c, 3, 8192
3, 1219200, Note_off_c, 3, 62, 95
3, 1219200, Note_on_c, 2, 64, 95
3, 1219680, Note_off_c, 2, 64, 95
3, 1219680, Note_on_c, 2, 48, 95
3, 1220160, Note_off_c, 2, 48, 95
3, 1220160, Note_on_c, 2, 55, 95
3, 1220640, Note_off_c, 2, 55, 95
3, 1220640, Note_on_c, 3, 64, 95
3, 1220760, Pitch_bend_c, 3, 7552
3, 1220880, Pitch_bend_c, 3, 6784
3, 1221000, Pitch_bend_c, 3, 6144
3, 1221120, Pitch_bend_c, 3, 5376
3, 1221120, Pitch_bend_c, 3, 8192
3, 1221120, Note_off_c, 3, 64, 95
3, 1221120, Note_on_c, 2, 60, 95
3, 1221600, Note_off_c, 2, 60, 95
3, 1221600, Note_on_c, 2, 45, 95
3, 1222080, Note_off_c, 2, 45, 95
3, 1222080, Note_on_c, 2, 53, 95
3, 1222560, Note_off_c, 2, 53, 95
3, 1222560, Note_on_c, 3, 60, 95
3, 1222680, Pitch_bend_c, 3, 8448
3, 1222800, Pitch_bend_c, 3, 8832
3, 1222920, Pitch_bend_c, 3, 9216
3, 1223040, Pitch_bend_c, 3, 9600
3, 1223040, Pitch_bend_c, 3, 8192
3, 1223040, Note_off_c, 3, 60, 95
3, 1223040, Note_on_c, 2, 62, 95
3, 1223520, Note_off_c, 2, 62, 95
3, 1223520, Note_on_c, 2, 46, 95
3, 1224000, Note_off_c, 2, 46, 95
3, 1224000, Note_on_c, 2, 53, 95
3, 1224480, Note_off_c, 2, 53, 95
3, 1224480, Note_on_c, 3, 62, 95
3, 1224600, Pitch_bend_c, 3, 7552
3, 1224720, Pitch_bend_c, 3, 6784
3, 1224840, Pitch_bend_c, 3, 6144
3, 1224960, Pitch_bend_c, 3, 5376
3, 1224960, Pitch_bend_c, 3, 8192
3, 1224960, Note_off_c, 3, 62, 95
3, 1224960, Note_on_c, 2, 58, 95
3, 1225440, Note_off_c, 2, 58, 95
3, 1225440, Note_on_c, 2, 43, 95
3, 1225920, Note_off_c, 2, 43, 95
3, 1225920, Note_on_c, 2, 40, 95
3, 1226400, Note_off_c, 2, 40, 95
3, 1226400, Note_on_c, 2, 58, 95
3, 1226880, Note_off_c, 2, 58, 95
3, 1226880, Note_on_c, 2, 57, 95
3, 1227360, Note_off_c, 2, 57, 95
3, 1227360, Note_on_c, 2, 53, 95
3, 1227840, Note_off_c, 2, 53, 95
3, 1227840, Note_on_c, 2, 48, 95
3, 1228320, Note_off_c, 2, 48, 95
3, 1228320, Note_on_c, 2, 53, 95
3, 1228800, Note_off_c, 2, 53, 95
3, 1228800, Note_on_c, 2, 57, 95
3, 1229280, Note_off_c, 2, 57, 95
3, 1229280, Note_on_c, 2, 59, 95
3, 1229760, Note_off_c, 2, 59, 95
3, 1229760, Note_on_c, 2, 60, 95
3, 1230240, Note_off_c, 2, 60, 95
3, 1230240, Note_on_c, 2, 45, 95
3, 1230720, Note_off_c, 2, 45, 95
3, 1230720, Note_on_c, 2, 40, 95
3, 1231200, Note_off_c, 2, 40, 95
3, 1231200, Note_on_c, 2, 60, 95
3, 1231680, Note_off_c, 2, 60, 95
3, 1231680, Note_on_c, 2, 62, 95
3, 1232160, Note_off_c, 2, 62, 95
3, 1232160, Note_on_c, 2, 46, 95
3, 1232640, Note_off_c, 2, 46, 95
3, 1232640, Note_on_c, 2, 41, 95
3, 1233120, Note_off_c, 2, 41, 95
3, 1233120, Note_on_c, 2, 58, 95
3, 1233600, Note_off_c, 2, 58, 95
3, 1233600, Note_on_c, 2, 62, 95
3, 1234080, Note_off_c, 2, 62, 95
3, 1234080, Note_on_c, 2, 64, 95
3, 1234560, Note_off_c, 2, 64, 95
3, 1234560, Note_on_c, 2, 65, 95
3, 1235040, Note_off_c, 2, 65, 95
3, 1235040, Note_on_c, 2, 48, 95
3, 1235520, Note_off_c, 2, 48, 95
3, 1235520, Note_on_c, 2, 43, 95
3, 1236000, Note_off_c, 2, 43, 95
3, 1236000, Note_on_c, 2, 60, 95
3, 1236480, Note_off_c, 2, 60, 95
3, 1236480, Note_on_c, 2, 64, 95
3, 1236960, Note_off_c, 2, 64, 95
3, 1236960, Note_on_c, 2, 65, 95
3, 1237440, Note_off_c, 2, 65, 95
3, 1237440, Note_on_c, 2, 67, 95
3, 1237920, Note_off_c, 2, 67, 95
3, 1237920, Note_on_c, 2, 74, 95
3, 1237920, Note_on_c, 2, 67, 95
3, 1237920, Note_on_c, 2, 62, 95
3, 1248480, Note_off_c, 2, 74, 95
3, 1248480, Note_off_c, 2, 67, 95
3, 1248480, Note_off_c, 2, 62, 95
3, 1267680, Pitch_bend_c, 3, 8192
3, 1267680, Note_on_c, 3, 73, 95
3, 1267728, Pitch_bend_c, 3, 8320
3, 1267776, Pitch_bend_c, 3, 8448
3, 1267824, Pitch_bend_c, 3, 8576
3, 1267872, Pitch_bend_c, 3, 8704
3, 1267920, Pitch_bend_c, 3, 8832
3, 1267920, Pitch_bend_c, 3, 8832
3, 1268160, Pitch_bend_c, 3, 8832
3, 1268208, Pitch_bend_c, 3, 8704
3, 1268256, Pitch_bend_c, 3, 8576
3, 1268304, Pitch_bend_c, 3, 8448
3, 1268352, Pitch_bend_c, 3, 8320
3, 1268400, Pitch_bend_c, 3, 8192
3, 1268400, Pitch_bend_c, 3, 8192
3, 1268640, Pitch_bend_c, 3, 8192
3, 1268640, Pitch_bend_c, 3, 8192
3, 1268640, Note_off_c, 3, 73, 95
3, 1268640, Note_on_c, 2, 69, 95
3, 1269120, Note_off_c, 2, 69, 95
3, 1269120, Note_on_c, 2, 45, 95
3, 1269600, Note_off_c, 2, 45, 95
3, 1269600, Note_on_c, 2, 67, 95
3, 1270080, Note_off_c, 2, 67, 95
3, 1270080, Note_on_c, 2, 69, 95
3, 1270560, Note_off_c, 2, 69, 95
3, 1270560, Note_on_c, 2, 45, 95
3, 1271040, Note_off_c, 2, 45, 95
3, 1271040, Pitch_bend_c, 3, 8192
3, 1271040, Note_on_c, 3, 73, 95
3, 1271088, Pitch_bend_c, 3, 8320
3, 1271136, Pitch_bend_c, 3, 8448
3, 1271184, Pitch_bend_c, 3, 8576
3, 1271232, Pitch_bend_c, 3, 8704
3, 1271280, Pitch_bend_c, 3, 8832
3, 1271280, Pitch_bend_c, 3, 8832
3, 1271520, Pitch_bend_c, 3, 8832
3, 1271568, Pitch_bend_c, 3, 8704
3, 1271616, Pitch_bend_c, 3, 8576
3, 1271664, Pitch_bend_c, 3, 8448
3, 1271712, Pitch_bend_c, 3, 8320
3, 1271760, Pitch_bend_c, 3, 8192
3, 1271760, Pitch_bend_c, 3, 8192
3, 1272000, Pitch_bend_c, 3, 8192
3, 1272000, Pitch_bend_c, 3, 8192
3, 1272000, Note_off_c, 3, 73, 95
3, 1272000, Note_on_c, 2, 45, 95
3, 1272960, Note_off_c, 2, 45, 95
3, 1272960, Note_on_c, 2, 67, 95
3, 1273440, Note_off_c, 2, 67, 95
3, 1273440, Note_on_c, 2, 69, 95
3, 1273920, Note_off_c, 2, 69, 95
3, 1273920, Note_on_c, 2, 45, 95
3, 1274400, Note_off_c, 2, 45, 95
3, 1274400, Note_on_c, 2, 61, 95
3, 1274530, Note_off_c, 2, 61, 95
3, 1274640, Note_on_c, 2, 62, 95
3, 1274770, Note_off_c, 2, 62, 95
3, 1274880, Note_on_c, 2, 64, 95
3, 1275360, Note_off_c, 2, 64, 95
3, 1275360, Pitch_bend_c, 3, 8192
3, 1275360, Note_on_c, 3, 73, 95
3, 1275408, Pitch_bend_c, 3, 8320
3, 1275456, Pitch_bend_c, 3, 8448
3, 1275504, Pitch_bend_c, 3, 8576
3, 1275552, Pitch_bend_c, 3, 8704
3, 1275600, Pitch_bend_c, 3, 8832
3, 1275600, Pitch_bend_c, 3, 8832
3, 1275840, Pitch_bend_c, 3, 8832
3, 1275888, Pitch_bend_c, 3, 8704
3, 1275936, Pitch_bend_c, 3, 8576
3, 1275984, Pitch_bend_c, 3, 8448
3, 1276032, Pitch_bend_c, 3, 8320
3, 1276080, Pitch_bend_c, 3, 8192
3, 1276080, Pitch_bend_c, 3, 8192
3, 1276320, Pitch_bend_c, 3, 8192
3, 1276320, Pitch_bend_c, 3, 8192
3, 1276320, Note_off_c, 3, 73, 95
3, 1276320, Note_on_c, 2, 69, 95
3, 1276800, Note_off_c, 2, 69, 95
3, 1276800, Note_on_c, 2, 45, 95
3, 1277280, Note_off_c, 2, 45, 95
3, 1277280, Note_on_c, 2, 67, 95
3, 1277760, Note_off_c, 2, 67, 95
3, 1277760, Note_on_c, 2, 69, 95
3, 1278240, Note_off_c, 2, 69, 95
3, 1278240, Note_on_c, 2, 45, 95
3, 1278720, Note_off_c, 2, 45, 95
3, 1278720, Note_on_c, 3, 69, 95
3, 1278880, Pitch_bend_c, 3, 8192
3, 1279040, Pitch_bend_c, 3, 8320
3, 1279200, Pitch_bend_c, 3, 8192
3, 1279360, Pitch_bend_c, 3, 8320
3, 1279520, Pitch_bend_c, 3, 8192
3, 1279680, Pitch_bend_c, 3, 8320
3, 1279840, Pitch_bend_c, 3, 8192
3, 1280000, Pitch_bend_c, 3, 8320
3, 1280160, Pitch_bend_c, 3, 8192
3, 1280160, Pitch_bend_c, 3, 8320
3, 1280160, Pitch_bend_c, 3, 8192
3, 1280160, Note_off_c, 3, 69, 95
3, 1280160, Note_on_c, 2, 61, 95
3, 1280400, Note_off_c, 2, 61, 95
3, 1280400, Note_on_c, 2, 62, 95
3, 1280640, Note_off_c, 2, 62, 95
3, 1280640, Note_on_c, 2, 64, 95
3, 1280880, Note_off_c, 2, 64, 95
3, 1280880, Note_on_c, 2, 65, 95
3, 1281120, Note_off_c, 2, 65, 95
3, 1281120, Note_on_c, 2, 67, 95
3, 1281360, Note_off_c, 2, 67, 95
3, 1281360, Note_on_c, 2, 68, 95
3, 1281600, Note_off_c, 2, 68, 95
3, 1281600, Note_on_c, 2, 67, 95
3, 1281840, Note_off_c, 2, 67, 95
3, 1281840, Note_on_c, 2, 65, 95
3, 1282080, Note_off_c, 2, 65, 95
3, 1282080, Note_on_c, 2, 64, 95
3, 1282320, Note_off_c, 2, 64, 95
3, 1282320, Note_on_c, 2, 62, 95
3, 1282560, Note_off_c, 2, 62, 95
3, 1282560, Note_on_c, 2, 61, 95
3, 1282720, Note_off_c, 2, 61, 95
3, 1282720, Note_on_c, 2, 60, 95
3, 1282880, Note_off_c, 2, 60, 95
3, 1282880, Note_on_c, 2, 58, 95
3, 1283040, Note_off_c, 2, 58, 95
3, 1283040, Pitch_bend_c, 3, 8192
3, 1283040, Note_on_c, 3, 73, 95
3, 1283088, Pitch_bend_c, 3, 8320
3, 1283136, Pitch_bend_c, 3, 8448
3, 1283184, Pitch_bend_c, 3, 8576
3, 1283232, Pitch_bend_c, 3, 8704
3, 1283280, Pitch_bend_c, 3, 8832
3, 1283280, Pitch_bend_c, 3, 8832
3, 1283520, Pitch_bend_c, 3, 8832
3, 1283568, Pitch_bend_c, 3, 8704
3, 1283616, Pitch_bend_c, 3, 8576
3, 1283664, Pitch_bend_c, 3, 8448
3, 1283712, Pitch_bend_c, 3, 8320
3, 1283760, Pitch_bend_c, 3, 8192
3, 1283760, Pitch_bend_c, 3, 8192
3, 1284000, Pitch_bend_c, 3, 8192
3, 1284000, Pitch_bend_c, 3, 8192
3, 1284000, Note_off_c, 3, 73, 95
3, 1284000, Note_on_c, 2, 69, 95
3, 1284480, Note_off_c, 2, 69, 95
3, 1284480, Note_on_c, 2, 45, 95
3, 1284960, Note_off_c, 2, 45, 95
3, 1284960, Note_on_c, 2, 67, 95
3, 1285440, Note_off_c, 2, 67, 95
3, 1285440, Note_on_c, 2, 69, 95
3, 1285920, Note_off_c, 2, 69, 95
3, 1285920, Note_on_c, 2, 45, 95
3, 1286400, Note_off_c, 2, 45, 95
3, 1286400, Pitch_bend_c, 3, 8192
3, 1286400, Note_on_c, 3, 73, 95
3, 1286448, Pitch_bend_c, 3, 8320
3, 1286496, Pitch_bend_c, 3, 8448
3, 1286544, Pitch_bend_c, 3, 8576
3, 1286592, Pitch_bend_c, 3, 8704
3, 1286640, Pitch_bend_c, 3, 8832
3, 1286640, Pitch_bend_c, 3, 8832
3, 1286880, Pitch_bend_c, 3, 8832
3, 1286928, Pitch_bend_c, 3, 8704
3, 1286976, Pitch_bend_c, 3, 8576
3, 1287024, Pitch_bend_c, 3, 8448
3, 1287072, Pitch_bend_c, 3, 8320
3, 1287120, Pitch_bend_c, 3, 8192
3, 1287120, Pitch_bend_c, 3, 8192
3, 1287360, Pitch_bend_c, 3, 8192
3, 1287360, Pitch_bend_c, 3, 8192
3, 1287360, Note_off_c, 3, 73, 95
3, 1287360, Note_on_c, 2, 45, 95
3, 1288320, Note_off_c, 2, 45, 95
3, 1288320, Note_on_c, 2, 67, 95
3, 1288800, Note_off_c, 2, 67, 95
3, 1288800, Note_on_c, 2, 69, 95
3, 1289280, Note_off_c, 2, 69, 95
3, 1289280, Note_on_c, 2, 45, 95
3, 1289760, Note_off_c, 2, 45, 95
3, 1289760, Note_on_c, 2, 61, 95
3, 1289890, Note_off_c, 2, 61, 95
3, 1290000, Note_on_c, 2, 62, 95
3, 1290130, Note_off_c, 2, 62, 95
3, 1290240, Note_on_c, 2, 64, 95
3, 1290720, Note_off_c, 2, 64, 95
3, 1290720, Pitch_bend_c, 3, 8192
3, 1290720, Note_on_c, 3, 73, 95
3, 1290768, Pitch_bend_c, 3, 8320
3, 1290816, Pitch_bend_c, 3, 8448
3, 1290864, Pitch_bend_c, 3, 8576
3, 1290912, Pitch_bend_c, 3, 8704
3, 1290960, Pitch_bend_c, 3, 8832
3, 1290960, Pitch_bend_c, 3, 8832
3, 1291200, Pitch_bend_c, 3, 8832
3, 1291248, Pitch_bend_c, 3, 8704
3, 1291296, Pitch_bend_c, 3, 8576
3, 1291344, Pitch_bend_c, 3, 8448
3, 1291392, Pitch_bend_c, 3, 8320
3, 1291440, Pitch_bend_c, 3, 8192
3, 1291440, Pitch_bend_c, 3, 8192
3, 1291680, Pitch_bend_c, 3, 8192
3, 1291680, Pitch_bend_c, 3, 8192
3, 1291680, Note_off_c, 3, 73, 95
3, 1291680, Note_on_c, 2, 69, 95
3, 1292160, Note_off_c, 2, 69, 95
3, 1292160, Note_on_c, 2, 45, 95
3, 1292640, Note_off_c, 2, 45, 95
3, 1292640, Note_on_c, 2, 67, 95
3, 1293120, Note_off_c, 2, 67, 95
3, 1293120, Note_on_c, 2, 69, 95
3, 1293600, Note_off_c, 2, 69, 95
3, 1293600, Note_on_c, 2, 45, 95
3, 1294080, Note_off_c, 2, 45, 95
3, 1294080, Note_on_c, 3, 69, 95
3, 1294240, Pitch_bend_c, 3, 8192
3, 1294400, Pitch_bend_c, 3, 8320
3, 1294560, Pitch_bend_c, 3, 8192
3, 1294720, Pitch_bend_c, 3, 8320
3, 1294880, Pitch_bend_c, 3, 8192
3, 1295040, Pitch_bend_c, 3, 8320
3, 1295040, Pitch_bend_c, 3, 8192
3, 1295040, Note_off_c, 3, 69, 95
3, 1295040, Note_on_c, 2, 57, 95
3, 1295520, Note_off_c, 2, 57, 95
3, 1295520, Note_on_c, 2, 61, 95
3, 1296000, Note_off_c, 2, 61, 95
3, 1296000, Note_on_c, 2, 62, 95
3, 1296480, Note_off_c, 2, 62, 95
3, 1296480, Note_on_c, 2, 64, 95
3, 1296960, Note_off_c, 2, 64, 95
3, 1296960, Note_on_c, 2, 65, 95
3, 1297440, Note_off_c, 2, 65, 95
3, 1297440, Note_on_c, 2, 64, 95
3, 1297560, Note_off_c, 2, 64, 95
3, 1297560, Note_on_c, 2, 65, 70
3, 1297680, Note_off_c, 2, 65, 70
3, 1297680, Note_on_c, 2, 64, 70
3, 1297920, Note_off_c, 2, 64, 70
3, 1297920, Note_on_c, 2, 62, 95
3, 1298400, Note_off_c, 2, 62, 95
3, 1298400, Pitch_bend_c, 3, 8192
3, 1298400, Note_on_c, 3, 73, 95
3, 1298448, Pitch_bend_c, 3, 8320
3, 1298496, Pitch_bend_c, 3, 8448
3, 1298544, Pitch_bend_c, 3, 8576
3, 1298592, Pitch_bend_c, 3, 8704
3, 1298640, Pitch_bend_c, 3, 8832
3, 1298640, Pitch_bend_c, 3, 8832
3, 1298880, Pitch_bend_c, 3, 8832
3, 1298928, Pitch_bend_c, 3, 8704
3, 1298976, Pitch_bend_c, 3, 8576
3, 1299024, Pitch_bend_c, 3, 8448
3, 1299072, Pitch_bend_c, 3, 8320
3, 1299120, Pitch_bend_c, 3, 8192
3, 1299120, Pitch_bend_c, 3, 8192
3, 1299360, Pitch_bend_c, 3, 8192
3, 1299360, Pitch_bend_c, 3, 8192
3, 1299360, Note_off_c, 3, 73, 95
3, 1299360, Note_on_c, 2, 69, 95
3, 1299840, Note_off_c, 2, 69, 95
3, 1299840, Note_on_c, 2, 45, 95
3, 1300320, Note_off_c, 2, 45, 95
3, 1300320, Note_on_c, 2, 67, 95
3, 1300800, Note_off_c, 2, 67, 95
3, 1300800, Note_on_c, 2, 69, 95
3, 1301280, Note_off_c, 2, 69, 95
3, 1301280, Note_on_c, 2, 45, 95
3, 1301760, Note_off_c, 2, 45, 95
3, 1301760, Pitch_bend_c, 3, 8192
3, 1301760, Note_on_c, 3, 73, 95
3, 1301808, Pitch_bend_c, 3, 8320
3, 1301856, Pitch_bend_c, 3, 8448
3, 1301904, Pitch_bend_c, 3, 8576
3, 1301952, Pitch_bend_c, 3, 8704
3, 1302000, Pitch_bend_c, 3, 8832
3, 1302000, Pitch_bend_c, 3, 8832
3, 1302240, Pitch_bend_c, 3, 8832
3, 1302288, Pitch_bend_c, 3, 8704
3, 1302336, Pitch_bend_c, 3, 8576
3, 1302384, Pitch_bend_c, 3, 8448
3, 1302432, Pitch_bend_c, 3, 8320
3, 1302480, Pitch_bend_c, 3, 8192
3, 1302480, Pitch_bend_c, 3, 8192
3, 1302720, Pitch_bend_c, 3, 8192
3, 1302720, Pitch_bend_c, 3, 8192
3, 1302720, Note_off_c, 3, 73, 95
3, 1302720, Note_on_c, 2, 45, 95
3, 1303680, Note_off_c, 2, 45, 95
3, 1303680, Note_on_c, 2, 67, 95
3, 1304160, Note_off_c, 2, 67, 95
3, 1304160, Note_on_c, 2, 69, 95
3, 1304640, Note_off_c, 2, 69, 95
3, 1304640, Note_on_c, 2, 45, 95
3, 1305120, Note_off_c, 2, 45, 95
3, 1305120, Note_on_c, 2, 69, 95
3, 1305600, Note_off_c, 2, 69, 95
3, 1305600, Note_on_c, 2, 45, 95
3, 1306080, Note_off_c, 2, 45, 95
3, 1306080, Pitch_bend_c, 3, 8192
3, 1306080, Note_on_c, 3, 73, 95
3, 1306128, Pitch_bend_c, 3, 8320
3, 1306176, Pitch_bend_c, 3, 8448
3, 1306224, Pitch_bend_c, 3, 8576
3, 1306272, Pitch_bend_c, 3, 8704
3, 1306320, Pitch_bend_c, 3, 8832
3, 1306320, Pitch_bend_c, 3, 8832
3, 1306560, Pitch_bend_c, 3, 8832
3, 1306608, Pitch_bend_c, 3, 8704
3, 1306656, Pitch_bend_c, 3, 8576
3, 1306704, Pitch_bend_c, 3, 8448
3, 1306752, Pitch_bend_c, 3, 8320
3, 1306800, Pitch_bend_c, 3, 8192
3, 1306800, Pitch_bend_c, 3, 8192
3, 1307040, Pitch_bend_c, 3, 8192
3, 1307040, Pitch_bend_c, 3, 8192
3, 1307040, Note_off_c, 3, 73, 95
3, 1307040, Note_on_c, 2, 69, 95
3, 1307520, Note_off_c, 2, 69, 95
3, 1307520, Note_on_c, 2, 45, 95
3, 1308000, Note_off_c, 2, 45, 95
3, 1308000, Note_on_c, 2, 67, 95
3, 1308480, Note_off_c, 2, 67, 95
3, 1308480, Note_on_c, 2, 69, 95
3, 1308960, Note_off_c, 2, 69, 95
3, 1308960, Note_on_c, 2, 45, 95
3, 1309440, Note_off_c, 2, 45, 95
3, 1309440, Note_on_c, 3, 69, 95
3, 1309600, Pitch_bend_c, 3, 8192
3, 1309760, Pitch_bend_c, 3, 8320
3, 1309920, Pitch_bend_c, 3, 8192
3, 1310080, Pitch_bend_c, 3, 8320
3, 1310240, Pitch_bend_c, 3, 8192
3, 1310400, Pitch_bend_c, 3, 8320
3, 1310400, Pitch_bend_c, 3, 8192
3, 1310400, Note_off_c, 3, 69, 95
3, 1310400, Note_on_c, 2, 45, 95
3, 1310880, Note_off_c, 2, 45, 95
3, 1310880, Note_on_c, 2, 69, 95
3, 1311360, Note_off_c, 2, 69, 95
3, 1311360, Note_on_c, 2, 45, 95
3, 1311840, Note_off_c, 2, 45, 95
3, 1311840, Note_on_c, 2, 67, 95
3, 1312320, Note_off_c, 2, 67, 95
3, 1312320, Note_on_c, 2, 45, 95
3, 1312800, Note_off_c, 2, 45, 95
3, 1312800, Note_on_c, 2, 70, 95
3, 1313280, Note_off_c, 2, 70, 95
3, 1313280, Note_on_c, 2, 45, 95
3, 1313760, Note_off_c, 2, 45, 95
3, 1313760, Pitch_bend_c, 3, 8192
3, 1313760, Note_on_c, 3, 73, 95
3, 1313808, Pitch_bend_c, 3, 8320
3, 1313856, Pitch_bend_c, 3, 8448
3, 1313904, Pitch_bend_c, 3, 8576
3, 1313952, Pitch_bend_c, 3, 8704
3, 1314000, Pitch_bend_c, 3, 8832
3, 1314000, Pitch_bend_c, 3, 8832
3, 1314240, Pitch_bend_c, 3, 8832
3, 1314288, Pitch_bend_c, 3, 8704
3, 1314336, Pitch_bend_c, 3, 8576
3, 1314384, Pitch_bend_c, 3, 8448
3, 1314432, Pitch_bend_c, 3, 8320
3, 1314480, Pitch_bend_c, 3, 8192
3, 1314480, Pitch_bend_c, 3, 8192
3, 1314720, Pitch_bend_c, 3, 8192
3, 1314720, Pitch_bend_c, 3, 8192
3, 1314720, Note_off_c, 3, 73, 95
3, 1314720, Note_on_c, 2, 69, 95
3, 1315200, Note_off_c, 2, 69, 95
3, 1315200, Note_on_c, 2, 45, 95
3, 1315680, Note_off_c, 2, 45, 95
3, 1315680, Note_on_c, 2, 67, 95
3, 1316160, Note_off_c, 2, 67, 95
3, 1316160, Note_on_c, 2, 69, 95
3, 1316640, Note_off_c, 2, 69, 95
3, 1316640, Note_on_c, 2, 45, 95
3, 1317120, Note_off_c, 2, 45, 95
3, 1317120, Pitch_bend_c, 3, 8192
3, 1317120, Note_on_c, 3, 73, 95
3, 1317168, Pitch_bend_c, 3, 8320
3, 1317216, Pitch_bend_c, 3, 8448
3, 1317264, Pitch_bend_c, 3, 8576
3, 1317312, Pitch_bend_c, 3, 8704
3, 1317360, Pitch_bend_c, 3, 8832
3, 1317360, Pitch_bend_c, 3, 8832
3, 1317600, Pitch_bend_c, 3, 8832
3, 1317648, Pitch_bend_c, 3, 8704
3, 1317696, Pitch_bend_c, 3, 8576
3, 1317744, Pitch_bend_c, 3, 8448
3, 1317792, Pitch_bend_c, 3, 8320
3, 1317840, Pitch_bend_c, 3, 8192
3, 1317840, Pitch_bend_c, 3, 8192
3, 1318080, Pitch_bend_c, 3, 8192
3, 1318080, Pitch_bend_c, 3, 8192
3, 1318080, Note_off_c, 3, 73, 95
3, 1318080, Note_on_c, 2, 45, 95
3, 1319040, Note_off_c, 2, 45, 95
3, 1319040, Note_on_c, 2, 67, 95
3, 1319520, Note_off_c, 2, 67, 95
3, 1319520, Note_on_c, 2, 69, 95
3, 1320000, Note_off_c, 2, 69, 95
3, 1320000, Note_on_c, 2, 45, 95
3, 1320480, Note_off_c, 2, 45, 95
3, 1320480, Note_on_c, 2, 61, 95
3, 1320610, Note_off_c, 2, 61, 95
3, 1320720, Note_on_c, 2, 62, 95
3, 1320850, Note_off_c, 2, 62, 95
3, 1320960, Note_on_c, 2, 64, 95
3, 1321440, Note_off_c, 2, 64, 95
3, 1321440, Pitch_bend_c, 3, 8192
3, 1321440, Note_on_c, 3, 73, 95
3, 1321488, Pitch_bend_c, 3, 8320
3, 1321536, Pitch_bend_c, 3, 8448
3, 1321584, Pitch_bend_c, 3, 8576
3, 1321632, Pitch_bend_c, 3, 8704
3, 1321680, Pitch_bend_c, 3, 8832
3, 1321680, Pitch_bend_c, 3, 8832
3, 1321920, Pitch_bend_c, 3, 8832
3, 1321968, Pitch_bend_c, 3, 8704
3, 1322016, Pitch_bend_c, 3, 8576
3, 1322064, Pitch_bend_c, 3, 8448
3, 1322112, Pitch_bend_c, 3, 8320
3, 1322160, Pitch_bend_c, 3, 8192
3, 1322160, Pitch_bend_c, 3, 8192
3, 1322400, Pitch_bend_c, 3, 8192
3, 1322400, Pitch_bend_c, 3, 8192
3, 1322400, Note_off_c, 3, 73, 95
3, 1322400, Note_on_c, 2, 69, 95
3, 1322880, Note_off_c, 2, 69, 95
3, 1322880, Note_on_c, 2, 45, 95
3, 1323360, Note_off_c, 2, 45, 95
3, 1323360, Note_on_c, 2, 67, 95
3, 1323840, Note_off_c, 2, 67, 95
3, 1323840, Note_on_c, 2, 69, 95
3, 1324320, Note_off_c, 2, 69, 95
3, 1324320, Note_on_c, 2, 45, 95
3, 1324800, Note_off_c, 2, 45, 95
3, 1324800, Note_on_c, 3, 69, 95
3, 1324960, Pitch_bend_c, 3, 8192
3, 1325120, Pitch_bend_c, 3, 8320
3, 1325280, Pitch_bend_c, 3, 8192
3, 1325440, Pitch_bend_c, 3, 8320
3, 1325600, Pitch_bend_c, 3, 8192
3, 1325760, Pitch_bend_c, 3, 8320
3, 1325760, Pitch_bend_c, 3, 8192
3, 1325760, Note_off_c, 3, 69, 95
3, 1325760, Note_on_c, 2, 57, 95
3, 1326240, Note_off_c, 2, 57, 95
3, 1326240, Note_on_c, 2, 61, 95
3, 1326720, Note_off_c, 2, 61, 95
3, 1326720, Note_on_c, 2, 62, 95
3, 1327200, Note_off_c, 2, 62, 95
3, 1327200, Note_on_c, 2, 64, 95
3, 1327680, Note_off_c, 2, 64, 95
3, 1327680, Note_on_c, 2, 65, 95
3, 1328160, Note_off_c, 2, 65, 95
3, 1328160, Note_on_c, 2, 64, 95
3, 1328280, Note_off_c, 2, 64, 95
3, 1328280, Note_on_c, 2, 65, 70
3, 1328400, Note_off_c, 2, 65, 70
3, 1328400, Note_on_c, 2, 64, 70
3, 1328640, Note_off_c, 2, 64, 70
3, 1328640, Note_on_c, 2, 62, 95
3, 1329120, Note_off_c, 2, 62, 95
3, 1329120, Pitch_bend_c, 3, 8192
3, 1329120, Note_on_c, 3, 73, 95
3, 1329168, Pitch_bend_c, 3, 8320
3, 1329216, Pitch_bend_c, 3, 8448
3, 1329264, Pitch_bend_c, 3, 8576
3, 1329312, Pitch_bend_c, 3, 8704
3, 1329360, Pitch_bend_c, 3, 8832
3, 1329360, Pitch_bend_c, 3, 8832
3, 1329600, Pitch_bend_c, 3, 8832
3, 1329648, Pitch_bend_c, 3, 8704
3, 1329696, Pitch_bend_c, 3, 8576
3, 1329744, Pitch_bend_c, 3, 8448
3, 1329792, Pitch_bend_c, 3, 8320
3, 1329840, Pitch_bend_c, 3, 8192
3, 1329840, Pitch_bend_c, 3, 8192
3, 1330080, Pitch_bend_c, 3, 8192
3, 1330080, Pitch_bend_c, 3, 8192
3, 1330080, Note_off_c, 3, 73, 95
3, 1330080, Note_on_c, 2, 69, 95
3, 1330560, Note_off_c, 2, 69, 95
3, 1330560, Note_on_c, 2, 45, 95
3, 1331040, Note_off_c, 2, 45, 95
3, 1331040, Note_on_c, 2, 67, 95
3, 1331520, Note_off_c, 2, 67, 95
3, 1331520, Note_on_c, 2, 69, 95
3, 1332000, Note_off_c, 2, 69, 95
3, 1332000, Note_on_c, 2, 45, 95
3, 1332480, Note_off_c, 2, 45, 95
3, 1332480, Pitch_bend_c, 3, 8192
3, 1332480, Note_on_c, 3, 73, 95
3, 1332528, Pitch_bend_c, 3, 8320
3, 1332576, Pitch_bend_c, 3, 8448
3, 1332624, Pitch_bend_c, 3, 8576
3, 1332672, Pitch_bend_c, 3, 8704
3, 1332720, Pitch_bend_c, 3, 8832
3, 1332720, Pitch_bend_c, 3, 8832
3, 1332960, Pitch_bend_c, 3, 8832
3, 1333008, Pitch_bend_c, 3, 8704
3, 1333056, Pitch_bend_c, 3, 8576
3, 1333104, Pitch_bend_c, 3, 8448
3, 1333152, Pitch_bend_c, 3, 8320
3, 1333200, Pitch_bend_c, 3, 8192
3, 1333200, Pitch_bend_c, 3, 8192
3, 1333440, Pitch_bend_c, 3, 8192
3, 1333440, Pitch_bend_c, 3, 8192
3, 1333440, Note_off_c, 3, 73, 95
3, 1333440, Note_on_c, 2, 45, 95
3, 1334400, Note_off_c, 2, 45, 95
3, 1334400, Note_on_c, 2, 67, 95
3, 1334880, Note_off_c, 2, 67, 95
3, 1334880, Note_on_c, 2, 69, 95
3, 1335360, Note_off_c, 2, 69, 95
3, 1335360, Note_on_c, 2, 45, 95
3, 1335840, Note_off_c, 2, 45, 95
3, 1335840, Note_on_c, 2, 69, 95
3, 1336320, Note_off_c, 2, 69, 95
3, 1336320, Note_on_c, 2, 45, 95
3, 1336800, Note_off_c, 2, 45, 95
3, 1336800, Pitch_bend_c, 3, 8192
3, 1336800, Note_on_c, 3, 73, 95
3, 1336848, Pitch_bend_c, 3, 8320
3, 1336896, Pitch_bend_c, 3, 8448
3, 1336944, Pitch_bend_c, 3, 8576
3, 1336992, Pitch_bend_c, 3, 8704
3, 1337040, Pitch_bend_c, 3, 8832
3, 1337040, Pitch_bend_c, 3, 8832
3, 1337280, Pitch_bend_c, 3, 8832
3, 1337328, Pitch_bend_c, 3, 8704
3, 1337376, Pitch_bend_c, 3, 8576
3, 1337424, Pitch_bend_c, 3, 8448
3, 1337472, Pitch_bend_c, 3, 8320
3, 1337520, Pitch_bend_c, 3, 8192
3, 1337520, Pitch_bend_c, 3, 8192
3, 1337760, Pitch_bend_c, 3, 8192
3, 1337760, Pitch_bend_c, 3, 8192
3, 1337760, Note_off_c, 3, 73, 95
3, 1337760, Note_on_c, 2, 69, 95
3, 1338240, Note_off_c, 2, 69, 95
3, 1338240, Note_on_c, 2, 45, 95
3, 1338720, Note_off_c, 2, 45, 95
3, 1338720, Note_on_c, 2, 67, 95
3, 1339200, Note_off_c, 2, 67, 95
3, 1339200, Note_on_c, 2, 69, 95
3, 1339680, Note_off_c, 2, 69, 95
3, 1339680, Note_on_c, 2, 45, 95
3, 1340160, Note_off_c, 2, 45, 95
3, 1340160, Note_on_c, 3, 69, 95
3, 1340320, Pitch_bend_c, 3, 8192
3, 1340480, Pitch_bend_c, 3, 8320
3, 1340640, Pitch_bend_c, 3, 8192
3, 1340800, Pitch_bend_c, 3, 8320
3, 1340960, Pitch_bend_c, 3, 8192
3, 1341120, Pitch_bend_c, 3, 8320
3, 1341120, Pitch_bend_c, 3, 8192
3, 1341120, Note_off_c, 3, 69, 95
3, 1341120, Note_on_c, 2, 45, 95
3, 1341600, Note_off_c, 2, 45, 95
3, 1341600, Note_on_c, 2, 69, 95
3, 1342080, Note_off_c, 2, 69, 95
3, 1342080, Note_on_c, 2, 45, 95
3, 1342560, Note_off_c, 2, 45, 95
3, 1342560, Note_on_c, 2, 67, 95
3, 1343040, Note_off_c, 2, 67, 95
3, 1343040, Note_on_c, 2, 45, 95
3, 1343520, Note_off_c, 2, 45, 95
3, 1343520, Note_on_c, 2, 70, 95
3, 1344000, Note_off_c, 2, 70, 95
3, 1344000, Note_on_c, 2, 45, 95
3, 1344480, Note_off_c, 2, 45, 95
3, 1344480, Pitch_bend_c, 3, 8192
3, 1344480, Note_on_c, 3, 73, 95
3, 1344528, Pitch_bend_c, 3, 8320
3, 1344576, Pitch_bend_c, 3, 8448
3, 1344624, Pitch_bend_c, 3, 8576
3, 1344672, Pitch_bend_c, 3, 8704
3, 1344720, Pitch_bend_c, 3, 8832
3, 1344720, Pitch_bend_c, 3, 8832
3, 1344960, Pitch_bend_c, 3, 8832
3, 1345008, Pitch_bend_c, 3, 8704
3, 1345056, Pitch_bend_c, 3, 8576
3, 1345104, Pitch_bend_c, 3, 8448
3, 1345152, Pitch_bend_c, 3, 8320
3, 1345200, Pitch_bend_c, 3, 8192
3, 1345200, Pitch_bend_c, 3, 8192
3, 1345440, Pitch_bend_c, 3, 8192
3, 1345440, Pitch_bend_c, 3, 8192
3, 1345440, Note_off_c, 3, 73, 95
3, 1345440, Note_on_c, 2, 69, 95
3, 1345920, Note_off_c, 2, 69, 95
3, 1345920, Note_on_c, 2, 45, 95
3, 1346400, Note_off_c, 2, 45, 95
3, 1346400, Note_on_c, 2, 67, 95
3, 1346880, Note_off_c, 2, 67, 95
3, 1346880, Note_on_c, 2, 69, 95
3, 1347360, Note_off_c, 2, 69, 95
3, 1347360, Note_on_c, 2, 45, 95
3, 1347840, Note_off_c, 2, 45, 95
3, 1347840, Pitch_bend_c, 3, 8192
3, 1347840, Note_on_c, 3, 73, 95
3, 1347888, Pitch_bend_c, 3, 8320
3, 1347936, Pitch_bend_c, 3, 8448
3, 1347984, Pitch_bend_c, 3, 8576
3, 1348032, Pitch_bend_c, 3, 8704
3, 1348080, Pitch_bend_c, 3, 8832
3, 1348080, Pitch_bend_c, 3, 8832
3, 1348320, Pitch_bend_c, 3, 8832
3, 1348368, Pitch_bend_c, 3, 8704
3, 1348416, Pitch_bend_c, 3, 8576
3, 1348464, Pitch_bend_c, 3, 8448
3, 1348512, Pitch_bend_c, 3, 8320
3, 1348560, Pitch_bend_c, 3, 8192
3, 1348560, Pitch_bend_c, 3, 8192
3, 1348800, Pitch_bend_c, 3, 8192
3, 1348800, Pitch_bend_c, 3, 8192
3, 1348800, Note_off_c, 3, 73, 95
3, 1348800, Note_on_c, 2, 45, 95
3, 1349760, Note_off_c, 2, 45, 95
3, 1349760, Note_on_c, 2, 67, 95
3, 1350240, Note_off_c, 2, 67, 95
3, 1350240, Note_on_c, 2, 69, 95
3, 1350720, Note_off_c, 2, 69, 95
3, 1350720, Note_on_c, 2, 45, 95
3, 1351200, Note_off_c, 2, 45, 95
3, 1351200, Note_on_c, 2, 61, 95
3, 1351330, Note_off_c, 2, 61, 95
3, 1351440, Note_on_c, 2, 62, 95
3, 1351570, Note_off_c, 2, 62, 95
3, 1351680, Note_on_c, 2, 64, 95
3, 1352160, Note_off_c, 2, 64, 95
3, 1352160, Pitch_bend_c, 3, 8192
3, 1352160, Note_on_c, 3, 73, 95
3, 1352208, Pitch_bend_c, 3, 8320
3, 1352256, Pitch_bend_c, 3, 8448
3, 1352304, Pitch_bend_c, 3, 8576
3, 1352352, Pitch_bend_c, 3, 8704
3, 1352400, Pitch_bend_c, 3, 8832
3, 1352400, Pitch_bend_c, 3, 8832
3, 1352640, Pitch_bend_c, 3, 8832
3, 1352688, Pitch_bend_c, 3, 8704
3, 1352736, Pitch_bend_c, 3, 8576
3, 1352784, Pitch_bend_c, 3, 8448
3, 1352832, Pitch_bend_c, 3, 8320
3, 1352880, Pitch_bend_c, 3, 8192
3, 1352880, Pitch_bend_c, 3, 8192
3, 1353120, Pitch_bend_c, 3, 8192
3, 1353120, Pitch_bend_c, 3, 8192
3, 1353120, Note_off_c, 3, 73, 95
3, 1353120, Note_on_c, 2, 69, 95
3, 1353600, Note_off_c, 2, 69, 95
3, 1353600, Note_on_c, 2, 45, 95
3, 1354080, Note_off_c, 2, 45, 95
3, 1354080, Note_on_c, 2, 67, 95
3, 1354560, Note_off_c, 2, 67, 95
3, 1354560, Note_on_c, 2, 69, 95
3, 1355040, Note_off_c, 2, 69, 95
3, 1355040, Note_on_c, 2, 45, 95
3, 1355520, Note_off_c, 2, 45, 95
3, 1355520, Note_on_c, 3, 69, 95
3, 1355680, Pitch_bend_c, 3, 8192
3, 1355840, Pitch_bend_c, 3, 8320
3, 1356000, Pitch_bend_c, 3, 8192
3, 1356160, Pitch_bend_c, 3, 8320
3, 1356320, Pitch_bend_c, 3, 8192
3, 1356480, Pitch_bend_c, 3, 8320
3, 1356480, Pitch_bend_c, 3, 8192
3, 1356480, Note_off_c, 3, 69, 95
3, 1356480, Note_on_c, 2, 57, 95
3, 1356960, Note_off_c, 2, 57, 95
3, 1356960, Note_on_c, 2, 61, 95
3, 1357440, Note_off_c, 2, 61, 95
3, 1357440, Note_on_c, 2, 62, 95
3, 1357920, Note_off_c, 2, 62, 95
3, 1357920, Note_on_c, 2, 64, 95
3, 1358400, Note_off_c, 2, 64, 95
3, 1358400, Note_on_c, 2, 65, 95
3, 1358880, Note_off_c, 2, 65, 95
3, 1358880, Note_on_c, 2, 64, 95
3, 1359000, Note_off_c, 2, 64, 95
3, 1359000, Note_on_c, 2, 65, 70
3, 1359120, Note_off_c, 2, 65, 70
3, 1359120, Note_on_c, 2, 64, 70
3, 1359360, Note_off_c, 2, 64, 70
3, 1359360, Note_on_c, 2, 62, 95
3, 1359840, Note_off_c, 2, 62, 95
3, 1359840, Pitch_bend_c, 3, 8192
3, 1359840, Note_on_c, 3, 73, 95
3, 1359888, Pitch_bend_c, 3, 8320
3, 1359936, Pitch_bend_c, 3, 8448
3, 1359984, Pitch_bend_c, 3, 8576
3, 1360032, Pitch_bend_c, 3, 8704
3, 1360080, Pitch_bend_c, 3, 8832
3, 1360080, Pitch_bend_c, 3, 8832
3, 1360320, Pitch_bend_c, 3, 8832
3, 1360368, Pitch_bend_c, 3, 8704
3, 1360416, Pitch_bend_c, 3, 8576
3, 1360464, Pitch_bend_c, 3, 8448
3, 1360512, Pitch_bend_c, 3, 8320
3, 1360560, Pitch_bend_c, 3, 8192
3, 1360560, Pitch_bend_c, 3, 8192
3, 1360800, Pitch_bend_c, 3, 8192
3, 1360800, Pitch_bend_c, 3, 8192
3, 1360800, Note_off_c, 3, 73, 95
3, 1360800, Note_on_c, 2, 69, 95
3, 1361280, Note_off_c, 2, 69, 95
3, 1361280, Note_on_c, 2, 45, 95
3, 1361760, Note_off_c, 2, 45, 95
3, 1361760, Note_on_c, 2, 67, 95
3, 1362240, Note_off_c, 2, 67, 95
3, 1362240, Note_on_c, 2, 69, 95
3, 1362720, Note_off_c, 2, 69, 95
3, 1362720, Note_on_c, 2, 45, 95
3, 1363200, Note_off_c, 2, 45, 95
3, 1363200, Pitch_bend_c, 3, 8192
3, 1363200, Note_on_c, 3, 73, 95
3, 1363248, Pitch_bend_c, 3, 8320
3, 1363296, Pitch_bend_c, 3, 8448
3, 1363344, Pitch_bend_c, 3, 8576
3, 1363392, Pitch_bend_c, 3, 8704
3, 1363440, Pitch_bend_c, 3, 8832
3, 1363440, Pitch_bend_c, 3, 8832
3, 1363680, Pitch_bend_c, 3, 8832
3, 1363728, Pitch_bend_c, 3, 8704
3, 1363776, Pitch_bend_c, 3, 8576
3, 1363824, Pitch_bend_c, 3, 8448
3, 1363872, Pitch_bend_c, 3, 8320
3, 1363920, Pitch_bend_c, 3, 8192
3, 1363920, Pitch_bend_c, 3, 8192
3, 1364160, Pitch_bend_c, 3, 8192
3, 1364160, Pitch_bend_c, 3, 8192
3, 1364160, Note_off_c, 3, 73, 95
3, 1364160, Note_on_c, 2, 45, 95
3, 1365120, Note_off_c, 2, 45, 95
3, 1365120, Note_on_c, 2, 67, 95
3, 1365600, Note_off_c, 2, 67, 95
3, 1365600, Note_on_c, 2, 69, 95
3, 1366080, Note_off_c, 2, 69, 95
3, 1366080, Note_on_c, 2, 45, 95
3, 1366560, Note_off_c, 2, 45, 95
3, 1366560, Note_on_c, 2, 61, 95
3, 1366690, Note_off_c, 2, 61, 95
3, 1366800, Note_on_c, 2, 62, 95
3, 1366930, Note_off_c, 2, 62, 95
3, 1367040, Note_on_c, 2, 64, 95
3, 1367520, Note_off_c, 2, 64, 95
3, 1367520, Pitch_bend_c, 3, 8192
3, 1367520, Note_on_c, 3, 73, 95
3, 1367568, Pitch_bend_c, 3, 8320
3, 1367616, Pitch_bend_c, 3, 8448
3, 1367664, Pitch_bend_c, 3, 8576
3, 1367712, Pitch_bend_c, 3, 8704
3, 1367760, Pitch_bend_c, 3, 8832
3, 1367760, Pitch_bend_c, 3, 8832
3, 1368000, Pitch_bend_c, 3, 8832
3, 1368048, Pitch_bend_c, 3, 8704
3, 1368096, Pitch_bend_c, 3, 8576
3, 1368144, Pitch_bend_c, 3, 8448
3, 1368192, Pitch_bend_c, 3, 8320
3, 1368240, Pitch_bend_c, 3, 8192
3, 1368240, Pitch_bend_c, 3, 8192
3, 1368480, Pitch_bend_c, 3, 8192
3, 1368480, Pitch_bend_c, 3, 8192
3, 1368480, Note_off_c, 3, 73, 95
3, 1368480, Note_on_c, 2, 69, 95
3, 1368960, Note_off_c, 2, 69, 95
3, 1368960, Note_on_c, 2, 45, 95
3, 1369440, Note_off_c, 2, 45, 95
3, 1369440, Note_on_c, 2, 67, 95
3, 1369920, Note_off_c, 2, 67, 95
3, 1369920, Note_on_c, 2, 69, 95
3, 1370400, Note_off_c, 2, 69, 95
3, 1370400, Note_on_c, 2, 45, 95
3, 1370880, Note_off_c, 2, 45, 95
3, 1370880, Note_on_c, 3, 69, 95
3, 1371040, Pitch_bend_c, 3, 8192
3, 1371200, Pitch_bend_c, 3, 8320
3, 1371360, Pitch_bend_c, 3, 8192
3, 1371520, Pitch_bend_c, 3, 8320
3, 1371680, Pitch_bend_c, 3, 8192
3, 1371840, Pitch_bend_c, 3, 8320
3, 1371840, Pitch_bend_c, 3, 8192
3, 1371840, Note_off_c, 3, 69, 95
3, 1371840, Note_on_c, 2, 45, 95
3, 1372320, Note_off_c, 2, 45, 95
3, 1372320, Note_on_c, 2, 69, 95
3, 1372800, Note_off_c, 2, 69, 95
3, 1372800, Note_on_c, 2, 45, 95
3, 1373280, Note_off_c, 2, 45, 95
3, 1373280, Note_on_c, 2, 67, 95
3, 1373760, Note_off_c, 2, 67, 95
3, 1373760, Note_on_c, 2, 45, 95
3, 1374240, Note_off_c, 2, 45, 95
3, 1374240, Note_on_c, 2, 70, 95
3, 1374720, Note_off_c, 2, 70, 95
3, 1374720, Note_on_c, 2, 45, 95
3, 1375200, Note_off_c, 2, 45, 95
3, 1375200, Pitch_bend_c, 3, 8192
3, 1375200, Note_on_c, 3, 73, 95
3, 1375248, Pitch_bend_c, 3, 8320
3, 1375296, Pitch_bend_c, 3, 8448
3, 1375344, Pitch_bend_c, 3, 8576
3, 1375392, Pitch_bend_c, 3, 8704
3, 1375440, Pitch_bend_c, 3, 8832
3, 1375440, Pitch_bend_c, 3, 8832
3, 1375680, Pitch_bend_c, 3, 8832
3, 1375728, Pitch_bend_c, 3, 8704
3, 1375776, Pitch_bend_c, 3, 8576
3, 1375824, Pitch_bend_c, 3, 8448
3, 1375872, Pitch_bend_c, 3, 8320
3, 1375920, Pitch_bend_c, 3, 8192
3, 1375920, Pitch_bend_c, 3, 8192
3, 1376160, Pitch_bend_c, 3, 8192
3, 1376160, Pitch_bend_c, 3, 8192
3, 1376160, Note_off_c, 3, 73, 95
3, 1376160, Note_on_c, 2, 69, 95
3, 1376640, Note_off_c, 2, 69, 95
3, 1376640, Note_on_c, 2, 45, 95
3, 1377120, Note_off_c, 2, 45, 95
3, 1377120, Note_on_c, 2, 67, 95
3, 1377600, Note_off_c, 2, 67, 95
3, 1377600, Note_on_c, 2, 69, 95
3, 1378080, Note_off_c, 2, 69, 95
3, 1378080, Note_on_c, 2, 45, 95
3, 1378560, Note_off_c, 2, 45, 95
3, 1378560, Pitch_bend_c, 3, 8192
3, 1378560, Note_on_c, 3, 73, 95
3, 1378608, Pitch_bend_c, 3, 8320
3, 1378656, Pitch_bend_c, 3, 8448
3, 1378704, Pitch_bend_c, 3, 8576
3, 1378752, Pitch_bend_c, 3, 8704
3, 1378800, Pitch_bend_c, 3, 8832
3, 1378800, Pitch_bend_c, 3, 8832
3, 1379040, Pitch_bend_c, 3, 8832
3, 1379088, Pitch_bend_c, 3, 8704
3, 1379136, Pitch_bend_c, 3, 8576
3, 1379184, Pitch_bend_c, 3, 8448
3, 1379232, Pitch_bend_c, 3, 8320
3, 1379280, Pitch_bend_c, 3, 8192
3, 1379280, Pitch_bend_c, 3, 8192
3, 1379520, Pitch_bend_c, 3, 8192
3, 1379520, Pitch_bend_c, 3, 8192
3, 1379520, Note_off_c, 3, 73, 95
3, 1379520, Note_on_c, 2, 45, 95
3, 1380480, Note_off_c, 2, 45, 95
3, 1380480, Note_on_c, 2, 67, 95
3, 1380960, Note_off_c, 2, 67, 95
3, 1380960, Note_on_c, 2, 69, 95
3, 1381440, Note_off_c, 2, 69, 95
3, 1381440, Note_on_c, 2, 45, 95
3, 1381920, Note_off_c, 2, 45, 95
3, 1381920, Note_on_c, 2, 69, 95
3, 1382400, Note_off_c, 2, 69, 95
3, 1382400, Note_on_c, 2, 45, 95
3, 1382880, Note_off_c, 2, 45, 95
3, 1382880, Pitch_bend_c, 3, 8192
3, 1382880, Note_on_c, 3, 73, 95
3, 1382928, Pitch_bend_c, 3, 8320
3, 1382976, Pitch_bend_c, 3, 8448
3, 1383024, Pitch_bend_c, 3, 8576
3, 1383072, Pitch_bend_c, 3, 8704
3, 1383120, Pitch_bend_c, 3, 8832
3, 1383120, Pitch_bend_c, 3, 8832
3, 1383360, Pitch_bend_c, 3, 8832
3, 1383408, Pitch_bend_c, 3, 8704
3, 1383456, Pitch_bend_c, 3, 8576
3, 1383504, Pitch_bend_c, 3, 8448
3, 1383552, Pitch_bend_c, 3, 8320
3, 1383600, Pitch_bend_c, 3, 8192
3, 1383600, Pitch_bend_c, 3, 8192
3, 1383840, Pitch_bend_c, 3, 8192
3, 1383840, Pitch_bend_c, 3, 8192
3, 1383840, Note_off_c, 3, 73, 95
3, 1383840, Note_on_c, 2, 69, 95
3, 1384320, Note_off_c, 2, 69, 95
3, 1384320, Note_on_c, 2, 45, 95
3, 1384800, Note_off_c, 2, 45, 95
3, 1384800, Note_on_c, 2, 67, 95
3, 1385280, Note_off_c, 2, 67, 95
3, 1385280, Note_on_c, 2, 69, 95
3, 1385760, Note_off_c, 2, 69, 95
3, 1385760, Note_on_c, 2, 45, 95
3, 1386240, Note_off_c, 2, 45, 95
3, 1386240, Note_on_c, 3, 69, 95
3, 1386400, Pitch_bend_c, 3, 8192
3, 1386560, Pitch_bend_c, 3, 8320
3, 1386720, Pitch_bend_c, 3, 8192
3, 1386880, Pitch_bend_c, 3, 8320
3, 1387040, Pitch_bend_c, 3, 8192
3, 1387200, Pitch_bend_c, 3, 8320
3, 1387200, Pitch_bend_c, 3, 8192
3, 1387200, Note_off_c, 3, 69, 95
3, 1387200, Note_on_c, 2, 45, 95
3, 1387680, Note_off_c, 2, 45, 95
3, 1387680, Note_on_c, 2, 69, 95
3, 1388160, Note_off_c, 2, 69, 95
3, 1388160, Note_on_c, 2, 45, 95
3, 1388640, Note_off_c, 2, 45, 95
3, 1388640, Note_on_c, 2, 67, 95
3, 1389120, Note_off_c, 2, 67, 95
3, 1389120, Note_on_c, 2, 45, 95
3, 1389600, Note_off_c, 2, 45, 95
3, 1389600, Note_on_c, 2, 70, 95
3, 1390080, Note_off_c, 2, 70, 95
3, 1390080, Note_on_c, 2, 45, 95
3, 1390560, Note_off_c, 2, 45, 95
3, 1390560, Pitch_bend_c, 3, 8192
3, 1390560, Note_on_c, 3, 73, 95
3, 1390608, Pitch_bend_c, 3, 8320
3, 1390656, Pitch_bend_c, 3, 8448
3, 1390704, Pitch_bend_c, 3, 8576
3, 1390752, Pitch_bend_c, 3, 8704
3, 1390800, Pitch_bend_c, 3, 8832
3, 1390800, Pitch_bend_c, 3, 8832
3, 1391040, Pitch_bend_c, 3, 8832
3, 1391088, Pitch_bend_c, 3, 8704
3, 1391136, Pitch_bend_c, 3, 8576
3, 1391184, Pitch_bend_c, 3, 8448
3, 1391232, Pitch_bend_c, 3, 8320
3, 1391280, Pitch_bend_c, 3, 8192
3, 1391280, Pitch_bend_c, 3, 8192
3, 1391520, Pitch_bend_c, 3, 8192
3, 1391520, Pitch_bend_c, 3, 8192
3, 1391520, Note_off_c, 3, 73, 95
3, 1391520, Note_on_c, 2, 69, 95
3, 1392000, Note_off_c, 2, 69, 95
3, 1392000, Note_on_c, 2, 45, 95
3, 1392480, Note_off_c, 2, 45, 95
3, 1392480, Note_on_c, 2, 67, 95
3, 1392960, Note_off_c, 2, 67, 95
3, 1392960, Note_on_c, 2, 69, 95
3, 1393440, Note_off_c, 2, 69, 95
3, 1393440, Note_on_c, 2, 45, 95
3, 1393920, Note_off_c, 2, 45, 95
3, 1393920, Pitch_bend_c, 3, 8192
3, 1393920, Note_on_c, 3, 73, 95
3, 1393968, Pitch_bend_c, 3, 8320
3, 1394016, Pitch_bend_c, 3, 8448
3, 1394064, Pitch_bend_c, 3, 8576
3, 1394112, Pitch_bend_c, 3, 8704
3, 1394160, Pitch_bend_c, 3, 8832
3, 1394160, Pitch_bend_c, 3, 8832
3, 1394400, Pitch_bend_c, 3, 8832
3, 1394448, Pitch_bend_c, 3, 8704
3, 1394496, Pitch_bend_c, 3, 8576
3, 1394544, Pitch_bend_c, 3, 8448
3, 1394592, Pitch_bend_c, 3, 8320
3, 1394640, Pitch_bend_c, 3, 8192
3, 1394640, Pitch_bend_c, 3, 8192
3, 1394880, Pitch_bend_c, 3, 8192
3, 1394880, Pitch_bend_c, 3, 8192
3, 1394880, Note_off_c, 3, 73, 95
3, 1394880, Note_on_c, 2, 45, 95
3, 1395840, Note_off_c, 2, 45, 95
3, 1395840, Note_on_c, 2, 67, 95
3, 1396320, Note_off_c, 2, 67, 95
3, 1396320, Note_on_c, 2, 69, 95
3, 1396800, Note_off_c, 2, 69, 95
3, 1396800, Note_on_c, 2, 45, 95
3, 1397280, Note_off_c, 2, 45, 95
3, 1397280, Note_on_c, 2, 61, 95
3, 1397410, Note_off_c, 2, 61, 95
3, 1397520, Note_on_c, 2, 62, 95
3, 1397650, Note_off_c, 2, 62, 95
3, 1397760, Note_on_c, 2, 64, 95
3, 1398240, Note_off_c, 2, 64, 95
3, 1398240, Pitch_bend_c, 3, 8192
3, 1398240, Note_on_c, 3, 73, 95
3, 1398288, Pitch_bend_c, 3, 8320
3, 1398336, Pitch_bend_c, 3, 8448
3, 1398384, Pitch_bend_c, 3, 8576
3, 1398432, Pitch_bend_c, 3, 8704
3, 1398480, Pitch_bend_c, 3, 8832
3, 1398480, Pitch_bend_c, 3, 8832
3, 1398720, Pitch_bend_c, 3, 8832
3, 1398768, Pitch_bend_c, 3, 8704
3, 1398816, Pitch_bend_c, 3, 8576
3, 1398864, Pitch_bend_c, 3, 8448
3, 1398912, Pitch_bend_c, 3, 8320
3, 1398960, Pitch_bend_c, 3, 8192
3, 1398960, Pitch_bend_c, 3, 8192
3, 1399200, Pitch_bend_c, 3, 8192
3, 1399200, Pitch_bend_c, 3, 8192
3, 1399200, Note_off_c, 3, 73, 95
3, 1399200, Note_on_c, 2, 69, 95
3, 1399680, Note_off_c, 2, 69, 95
3, 1399680, Note_on_c, 2, 45, 95
3, 1400160, Note_off_c, 2, 45, 95
3, 1400160, Note_on_c, 2, 67, 95
3, 1400640, Note_off_c, 2, 67, 95
3, 1400640, Note_on_c, 2, 69, 95
3, 1401120, Note_off_c, 2, 69, 95
3, 1401120, Note_on_c, 2, 45, 95
3, 1401600, Note_off_c, 2, 45, 95
3, 1401600, Note_on_c, 3, 69, 95
3, 1401760, Pitch_bend_c, 3, 8192
3, 1401920, Pitch_bend_c, 3, 8320
3, 1402080, Pitch_bend_c, 3, 8192
3, 1402240, Pitch_bend_c, 3, 8320
3, 1402400, Pitch_bend_c, 3, 8192
3, 1402560, Pitch_bend_c, 3, 8320
3, 1402560, Pitch_bend_c, 3, 8192
3, 1402560, Note_off_c, 3, 69, 95
3, 1402560, Note_on_c, 2, 57, 95
3, 1403040, Note_off_c, 2, 57, 95
3, 1403040, Note_on_c, 2, 61, 95
3, 1403520, Note_off_c, 2, 61, 95
3, 1403520, Note_on_c, 2, 62, 95
3, 1404000, Note_off_c, 2, 62, 95
3, 1404000, Note_on_c, 2, 64, 95
3, 1404480, Note_off_c, 2, 64, 95
3, 1404480, Note_on_c, 2, 65, 95
3, 1404960, Note_off_c, 2, 65, 95
3, 1404960, Note_on_c, 2, 64, 95
3, 1405080, Note_off_c, 2, 64, 95
3, 1405080, Note_on_c, 2, 65, 70
3, 1405200, Note_off_c, 2, 65, 70
3, 1405200, Note_on_c, 2, 64, 70
3, 1405440, Note_off_c, 2, 64, 70
3, 1405440, Note_on_c, 2, 62, 95
3, 1405920, Note_off_c, 2, 62, 95
3, 1405920, Pitch_bend_c, 3, 8192
3, 1405920, Note_on_c, 3, 73, 95
3, 1405968, Pitch_bend_c, 3, 8320
3, 1406016, Pitch_bend_c, 3, 8448
3, 1406064, Pitch_bend_c, 3, 8576
3, 1406112, Pitch_bend_c, 3, 8704
3, 1406160, Pitch_bend_c, 3, 8832
3, 1406160, Pitch_bend_c, 3, 8832
3, 1406400, Pitch_bend_c, 3, 8832
3, 1406448, Pitch_bend_c, 3, 8704
3, 1406496, Pitch_bend_c, 3, 8576
3, 1406544, Pitch_bend_c, 3, 8448
3, 1406592, Pitch_bend_c, 3, 8320
3, 1406640, Pitch_bend_c, 3, 8192
3, 1406640, Pitch_bend_c, 3, 8192
3, 1406880, Pitch_bend_c, 3, 8192
3, 1406880, Pitch_bend_c, 3, 8192
3, 1406880, Note_off_c, 3, 73, 95
3, 1406880, Note_on_c, 2, 69, 95
3, 1407360, Note_off_c, 2, 69, 95
3, 1407360, Note_on_c, 2, 45, 95
3, 1407840, Note_off_c, 2, 45, 95
3, 1407840, Note_on_c, 2, 67, 95
3, 1408320, Note_off_c, 2, 67, 95
3, 1408320, Note_on_c, 2, 69, 95
3, 1408800, Note_off_c, 2, 69, 95
3, 1408800, Note_on_c, 2, 45, 95
3, 1409280, Note_off_c, 2, 45, 95
3, 1409280, Pitch_bend_c, 3, 8192
3, 1409280, Note_on_c, 3, 73, 95
3, 1409328, Pitch_bend_c, 3, 8320
3, 1409376, Pitch_bend_c, 3, 8448
3, 1409424, Pitch_bend_c, 3, 8576
3, 1409472, Pitch_bend_c, 3, 8704
3, 1409520, Pitch_bend_c, 3, 8832
3, 1409520, Pitch_bend_c, 3, 8832
3, 1409760, Pitch_bend_c, 3, 8832
3, 1409808, Pitch_bend_c, 3, 8704
3, 1409856, Pitch_bend_c, 3, 8576
3, 1409904, Pitch_bend_c, 3, 8448
3, 1409952, Pitch_bend_c, 3, 8320
3, 1410000, Pitch_bend_c, 3, 8192
3, 1410000, Pitch_bend_c, 3, 8192
3, 1410240, Pitch_bend_c, 3, 8192
3, 1410240, Pitch_bend_c, 3, 8192
3, 1410240, Note_off_c, 3, 73, 95
3, 1410240, Note_on_c, 2, 45, 95
3, 1411200, Note_off_c, 2, 45, 95
3, 1411200, Note_on_c, 2, 67, 95
3, 1411680, Note_off_c, 2, 67, 95
3, 1411680, Note_on_c, 2, 69, 95
3, 1412160, Note_off_c, 2, 69, 95
3, 1412160, Note_on_c, 2, 45, 95
3, 1412640, Note_off_c, 2, 45, 95
3, 1412640, Note_on_c, 2, 69, 95
3, 1413120, Note_off_c, 2, 69, 95
3, 1413120, Note_on_c, 2, 45, 95
3, 1413600, Note_off_c, 2, 45, 95
3, 1413600, Pitch_bend_c, 3, 8192
3, 1413600, Note_on_c, 3, 73, 95
3, 1413648, Pitch_bend_c, 3, 8320
3, 1413696, Pitch_bend_c, 3, 8448
3, 1413744, Pitch_bend_c, 3, 8576
3, 1413792, Pitch_bend_c, 3, 8704
3, 1413840, Pitch_bend_c, 3, 8832
3, 1413840, Pitch_bend_c, 3, 8832
3, 1414080, Pitch_bend_c, 3, 8832
3, 1414128, Pitch_bend_c, 3, 8704
3, 1414176, Pitch_bend_c, 3, 8576
3, 1414224, Pitch_bend_c, 3, 8448
3, 1414272, Pitch_bend_c, 3, 8320
3, 1414320, Pitch_bend_c, 3, 8192
3, 1414320, Pitch_bend_c, 3, 8192
3, 1414560, Pitch_bend_c, 3, 8192
3, 1414560, Pitch_bend_c, 3, 8192
3, 1414560, Note_off_c, 3, 73, 95
3, 1414560, Note_on_c, 2, 69, 95
3, 1415040, Note_off_c, 2, 69, 95
3, 1415040, Note_on_c, 2, 45, 95
3, 1415520, Note_off_c, 2, 45, 95
3, 1415520, Note_on_c, 2, 67, 95
3, 1416000, Note_off_c, 2, 67, 95
3, 1416000, Note_on_c, 2, 69, 95
3, 1416480, Note_off_c, 2, 69, 95
3, 1416480, Note_on_c, 2, 45, 95
3, 1416960, Note_off_c, 2, 45, 95
3, 1416960, Note_on_c, 3, 69, 95
3, 1417120, Pitch_bend_c, 3, 8192
3, 1417280, Pitch_bend_c, 3, 8320
3, 1417440, Pitch_bend_c, 3, 8192
3, 1417600, Pitch_bend_c, 3, 8320
3, 1417760, Pitch_bend_c, 3, 8192
3, 1417920, Pitch_bend_c, 3, 8320
3, 1417920, Pitch_bend_c, 3, 8192
3, 1417920, Note_off_c, 3, 69, 95
3, 1417920, Note_on_c, 2, 45, 95
3, 1418400, Note_off_c, 2, 45, 95
3, 1418400, Note_on_c, 2, 69, 95
3, 1418880, Note_off_c, 2, 69, 95
3, 1418880, Note_on_c, 2, 45, 95
3, 1419360, Note_off_c, 2, 45, 95
3, 1419360, Note_on_c, 2, 67, 95
3, 1419840, Note_off_c, 2, 67, 95
3, 1419840, Note_on_c, 2, 45, 95
3, 1420320, Note_off_c, 2, 45, 95
3, 1420320, Note_on_c, 2, 70, 95
3, 1420800, Note_off_c, 2, 70, 95
3, 1420800, Note_on_c, 2, 45, 95
3, 1421280, Note_off_c, 2, 45, 95
3, 1421280, Pitch_bend_c, 3, 8192
3, 1421280, Note_on_c, 3, 73, 95
3, 1421328, Pitch_bend_c, 3, 8320
3, 1421376, Pitch_bend_c, 3, 8448
3, 1421424, Pitch_bend_c, 3, 8576
3, 1421472, Pitch_bend_c, 3, 8704
3, 1421520, Pitch_bend_c, 3, 8832
3, 1421520, Pitch_bend_c, 3, 8832
3, 1421760, Pitch_bend_c, 3, 8832
3, 1421808, Pitch_bend_c, 3, 8704
3, 1421856, Pitch_bend_c, 3, 8576
3, 1421904, Pitch_bend_c, 3, 8448
3, 1421952, Pitch_bend_c, 3, 8320
3, 1422000, Pitch_bend_c, 3, 8192
3, 1422000, Pitch_bend_c, 3, 8192
3, 1422240, Pitch_bend_c, 3, 8192
3, 1422240, Pitch_bend_c, 3, 8192
3, 1422240, Note_off_c, 3, 73, 95
3, 1422240, Note_on_c, 2, 69, 95
3, 1422720, Note_off_c, 2, 69, 95
3, 1422720, Note_on_c, 2, 45, 95
3, 1423200, Note_off_c, 2, 45, 95
3, 1423200, Note_on_c, 2, 67, 95
3, 1423680, Note_off_c, 2, 67, 95
3, 1423680, Note_on_c, 2, 69, 95
3, 1424160, Note_off_c, 2, 69, 95
3, 1424160, Note_on_c, 2, 45, 95
3, 1424640, Note_off_c, 2, 45, 95
3, 1424640, Pitch_bend_c, 3, 8192
3, 1424640, Note_on_c, 3, 73, 95
3, 1424688, Pitch_bend_c, 3, 8320
3, 1424736, Pitch_bend_c, 3, 8448
3, 1424784, Pitch_bend_c, 3, 8576
3, 1424832, Pitch_bend_c, 3, 8704
3, 1424880, Pitch_bend_c, 3, 8832
3, 1424880, Pitch_bend_c, 3, 8832
3, 1425120, Pitch_bend_c, 3, 8832
3, 1425168, Pitch_bend_c, 3, 8704
3, 1425216, Pitch_bend_c, 3, 8576
3, 1425264, Pitch_bend_c, 3, 8448
3, 1425312, Pitch_bend_c, 3, 8320
3, 1425360, Pitch_bend_c, 3, 8192
3, 1425360, Pitch_bend_c, 3, 8192
3, 1425600, Pitch_bend_c, 3, 8192
3, 1425600, Pitch_bend_c, 3, 8192
3, 1425600, Note_off_c, 3, 73, 95
3, 1425600, Note_on_c, 2, 45, 95
3, 1426560, Note_off_c, 2, 45, 95
3, 1426560, Note_on_c, 2, 67, 95
3, 1427040, Note_off_c, 2, 67, 95
3, 1427040, Note_on_c, 2, 69, 95
3, 1427520, Note_off_c, 2, 69, 95
3, 1427520, Note_on_c, 2, 45, 95
3, 1428000, Note_off_c, 2, 45, 95
3, 1428000, Note_on_c, 2, 69, 95
3, 1428480, Note_off_c, 2, 69, 95
3, 1428480, Note_on_c, 2, 45, 95
3, 1428960, Note_off_c, 2, 45, 95
3, 1428960, Pitch_bend_c, 3, 8192
3, 1428960, Note_on_c, 3, 73, 95
3, 1429008, Pitch_bend_c, 3, 8320
3, 1429056, Pitch_bend_c, 3, 8448
3, 1429104, Pitch_bend_c, 3, 8576
3, 1429152, Pitch_bend_c, 3, 8704
3, 1429200, Pitch_bend_c, 3, 8832
3, 1429200, Pitch_bend_c, 3, 8832
3, 1429440, Pitch_bend_c, 3, 8832
3, 1429488, Pitch_bend_c, 3, 8704
3, 1429536, Pitch_bend_c, 3, 8576
3, 1429584, Pitch_bend_c, 3, 8448
3, 1429632, Pitch_bend_c, 3, 8320
3, 1429680, Pitch_bend_c, 3, 8192
3, 1429680, Pitch_bend_c, 3, 8192
3, 1429920, Pitch_bend_c, 3, 8192
3, 1429920, Pitch_bend_c, 3, 8192
3, 1429920, Note_off_c, 3, 73, 95
3, 1429920, Note_on_c, 2, 69, 95
3, 1430400, Note_off_c, 2, 69, 95
3, 1430400, Note_on_c, 2, 45, 95
3, 1430880, Note_off_c, 2, 45, 95
3, 1430880, Note_on_c, 2, 67, 95
3, 1431360, Note_off_c, 2, 67, 95
3, 1431360, Note_on_c, 2, 69, 95
3, 1431840, Note_off_c, 2, 69, 95
3, 1431840, Note_on_c, 2, 45, 95
3, 1432320, Note_off_c, 2, 45, 95
3, 1432320, Note_on_c, 3, 69, 95
3, 1432480, Pitch_bend_c, 3, 8192
3, 1432640, Pitch_bend_c, 3, 8320
3, 1432800, Pitch_bend_c, 3, 8192
3, 1432960, Pitch_bend_c, 3, 8320
3, 1433120, Pitch_bend_c, 3, 8192
3, 1433280, Pitch_bend_c, 3, 8320
3, 1433280, Pitch_bend_c, 3, 8192
3, 1433280, Note_off_c, 3, 69, 95
3, 1433280, Note_on_c, 2, 45, 95
3, 1433760, Note_off_c, 2, 45, 95
3, 1433760, Note_on_c, 2, 69, 95
3, 1434240, Note_off_c, 2, 69, 95
3, 1434240, Note_on_c, 2, 45, 95
3, 1434720, Note_off_c, 2, 45, 95
3, 1434720, Note_on_c, 2, 67, 95
3, 1435200, Note_off_c, 2, 67, 95
3, 1435200, Note_on_c, 2, 45, 95
3, 1435680, Note_off_c, 2, 45, 95
3, 1435680, Note_on_c, 2, 70, 95
3, 1436160, Note_off_c, 2, 70, 95
3, 1436160, Note_on_c, 2, 45, 95
3, 1436640, Note_off_c, 2, 45, 95
3, 1436640, Pitch_bend_c, 3, 8192
3, 1436640, Note_on_c, 3, 73, 95
3, 1436688, Pitch_bend_c, 3, 8320
3, 1436736, Pitch_bend_c, 3, 8448
3, 1436784, Pitch_bend_c, 3, 8576
3, 1436832, Pitch_bend_c, 3, 8704
3, 1436880, Pitch_bend_c, 3, 8832
3, 1436880, Pitch_bend_c, 3, 8832
3, 1437120, Pitch_bend_c, 3, 8832
3, 1437168, Pitch_bend_c, 3, 8704
3, 1437216, Pitch_bend_c, 3, 8576
3, 1437264, Pitch_bend_c, 3, 8448
3, 1437312, Pitch_bend_c, 3, 8320
3, 1437360, Pitch_bend_c, 3, 8192
3, 1437360, Pitch_bend_c, 3, 8192
3, 1437600, Pitch_bend_c, 3, 8192
3, 1437600, Pitch_bend_c, 3, 8192
3, 1437600, Note_off_c, 3, 73, 95
3, 1437600, Note_on_c, 2, 69, 95
3, 1438080, Note_off_c, 2, 69, 95
3, 1438080, Note_on_c, 2, 45, 95
3, 1438560, Note_off_c, 2, 45, 95
3, 1438560, Note_on_c, 2, 67, 95
3, 1439040, Note_off_c, 2, 67, 95
3, 1439040, Note_on_c, 2, 69, 95
3, 1439520, Note_off_c, 2, 69, 95
3, 1439520, Note_on_c, 2, 45, 95
3, 1440000, Note_off_c, 2, 45, 95
3, 1440000, Pitch_bend_c, 3, 8192
3, 1440000, Note_on_c, 3, 73, 95
3, 1440048, Pitch_bend_c, 3, 8320
3, 1440096, Pitch_bend_c, 3, 8448
3, 1440144, Pitch_bend_c, 3, 8576
3, 1440192, Pitch_bend_c, 3, 8704
3, 1440240, Pitch_bend_c, 3, 8832
3, 1440240, Pitch_bend_c, 3, 8832
3, 1440480, Pitch_bend_c, 3, 8832
3, 1440528, Pitch_bend_c, 3, 8704
3, 1440576, Pitch_bend_c, 3, 8576
3, 1440624, Pitch_bend_c, 3, 8448
3, 1440672, Pitch_bend_c, 3, 8320
3, 1440720, Pitch_bend_c, 3, 8192
3, 1440720, Pitch_bend_c, 3, 8192
3, 1440960, Pitch_bend_c, 3, 8192
3, 1440960, Pitch_bend_c, 3, 8192
3, 1440960, Note_off_c, 3, 73, 95
3, 1440960, Note_on_c, 2, 45, 95
3, 1441920, Note_off_c, 2, 45, 95
3, 1441920, Note_on_c, 2, 67, 95
3, 1442400, Note_off_c, 2, 67, 95
3, 1442400, Note_on_c, 2, 69, 95
3, 1442880, Note_off_c, 2, 69, 95
3, 1442880, Note_on_c, 2, 45, 95
3, 1443360, Note_off_c, 2, 45, 95
3, 1443360, Note_on_c, 2, 61, 95
3, 1443490, Note_off_c, 2, 61, 95
3, 1443600, Note_on_c, 2, 62, 95
3, 1443730, Note_off_c, 2, 62, 95
3, 1443840, Note_on_c, 2, 64, 95
3, 1444320, Note_off_c, 2, 64, 95
3, 1444320, Pitch_bend_c, 3, 8192
3, 1444320, Note_on_c, 3, 73, 95
3, 1444368, Pitch_bend_c, 3, 8320
3, 1444416, Pitch_bend_c, 3, 8448
3, 1444464, Pitch_bend_c, 3, 8576
3, 1444512, Pitch_bend_c, 3, 8704
3, 1444560, Pitch_bend_c, 3, 8832
3, 1444560, Pitch_bend_c, 3, 8832
3, 1444800, Pitch_bend_c, 3, 8832
3, 1444848, Pitch_bend_c, 3, 8704
3, 1444896, Pitch_bend_c, 3, 8576
3, 1444944, Pitch_bend_c, 3, 8448
3, 1444992, Pitch_bend_c, 3, 8320
3, 1445040, Pitch_bend_c, 3, 8192
3, 1445040, Pitch_bend_c, 3, 8192
3, 1445280, Pitch_bend_c, 3, 8192
3, 1445280, Pitch_bend_c, 3, 8192
3, 1445280, Note_off_c, 3, 73, 95
3, 1445280, Note_on_c, 2, 69, 95
3, 1445760, Note_off_c, 2, 69, 95
3, 1445760, Note_on_c, 2, 45, 95
3, 1446240, Note_off_c, 2, 45, 95
3, 1446240, Note_on_c, 2, 67, 95
3, 1446720, Note_off_c, 2, 67, 95
3, 1446720, Note_on_c, 2, 69, 95
3, 1447200, Note_off_c, 2, 69, 95
3, 1447200, Note_on_c, 2, 45, 95
3, 1447680, Note_off_c, 2, 45, 95
3, 1447680, Note_on_c, 3, 69, 95
3, 1447840, Pitch_bend_c, 3, 8192
3, 1448000, Pitch_bend_c, 3, 8320
3, 1448160, Pitch_bend_c, 3, 8192
3, 1448320, Pitch_bend_c, 3, 8320
3, 1448480, Pitch_bend_c, 3, 8192
3, 1448640, Pitch_bend_c, 3, 8320
3, 1448640, Pitch_bend_c, 3, 8192
3, 1448640, Note_off_c, 3, 69, 95
3, 1448640, Note_on_c, 2, 57, 95
3, 1449120, Note_off_c, 2, 57, 95
3, 1449120, Note_on_c, 2, 61, 95
3, 1449600, Note_off_c, 2, 61, 95
3, 1449600, Note_on_c, 2, 62, 95
3, 1450080, Note_off_c, 2, 62, 95
3, 1450080, Note_on_c, 2, 64, 95
3, 1450560, Note_off_c, 2, 64, 95
3, 1450560, Note_on_c, 2, 65, 95
3, 1451040, Note_off_c, 2, 65, 95
3, 1451040, Note_on_c, 2, 64, 95
3, 1451160, Note_off_c, 2, 64, 95
3, 1451160, Note_on_c, 2, 65, 70
3, 1451280, Note_off_c, 2, 65, 70
3, 1451280, Note_on_c, 2, 64, 70
3, 1451520, Note_off_c, 2, 64, 70
3, 1451520, Note_on_c, 2, 62, 95
3, 1452000, Note_off_c, 2, 62, 95
3, 1452000, Pitch_bend_c, 3, 8192
3, 1452000, Note_on_c, 3, 73, 95
3, 1452048, Pitch_bend_c, 3, 8320
3, 1452096, Pitch_bend_c, 3, 8448
3, 1452144, Pitch_bend_c, 3, 8576
3, 1452192, Pitch_bend_c, 3, 8704
3, 1452240, Pitch_bend_c, 3, 8832
3, 1452240, Pitch_bend_c, 3, 8832
3, 1452480, Pitch_bend_c, 3, 8832
3, 1452528, Pitch_bend_c, 3, 8704
3, 1452576, Pitch_bend_c, 3, 8576
3, 1452624, Pitch_bend_c, 3, 8448
3, 1452672, Pitch_bend_c, 3, 8320
3, 1452720, Pitch_bend_c, 3, 8192
3, 1452720, Pitch_bend_c, 3, 8192
3, 1452960, Pitch_bend_c, 3, 8192
3, 1452960, Pitch_bend_c, 3, 8192
3, 1452960, Note_off_c, 3, 73, 95
3, 1452960, Note_on_c, 2, 69, 95
3, 1453440, Note_off_c, 2, 69, 95
3, 1453440, Note_on_c, 2, 45, 95
3, 1453920, Note_off_c, 2, 45, 95
3, 1453920, Note_on_c, 2, 67, 95
3, 1454400, Note_off_c, 2, 67, 95
3, 1454400, Note_on_c, 2, 69, 95
3, 1454880, Note_off_c, 2, 69, 95
3, 1454880, Note_on_c, 2, 45, 95
3, 1455360, Note_off_c, 2, 45, 95
3, 1455360, Pitch_bend_c, 3, 8192
3, 1455360, Note_on_c, 3, 73, 95
3, 1455408, Pitch_bend_c, 3, 8320
3, 1455456, Pitch_bend_c, 3, 8448
3, 1455504, Pitch_bend_c, 3, 8576
3, 1455552, Pitch_bend_c, 3, 8704
3, 1455600, Pitch_bend_c, 3, 8832
3, 1455600, Pitch_bend_c, 3, 8832
3, 1455840, Pitch_bend_c, 3, 8832
3, 1455888, Pitch_bend_c, 3, 8704
3, 1455936, Pitch_bend_c, 3, 8576
3, 1455984, Pitch_bend_c, 3, 8448
3, 1456032, Pitch_bend_c, 3, 8320
3, 1456080, Pitch_bend_c, 3, 8192
3, 1456080, Pitch_bend_c, 3, 8192
3, 1456320, Pitch_bend_c, 3, 8192
3, 1456320, Pitch_bend_c, 3, 8192
3, 1456320, Note_off_c, 3, 73, 95
3, 1456320, Note_on_c, 2, 45, 95
3, 1457280, Note_off_c, 2, 45, 95
3, 1457280, Note_on_c, 2, 67, 95
3, 1457760, Note_off_c, 2, 67, 95
3, 1457760, Note_on_c, 2, 69, 95
3, 1458240, Note_off_c, 2, 69, 95
3, 1458240, Note_on_c, 2, 45, 95
3, 1458720, Note_off_c, 2, 45, 95
3, 1458720, Note_on_c, 2, 69, 95
3, 1459200, Note_off_c, 2, 69, 95
3, 1459200, Note_on_c, 2, 45, 95
3, 1459680, Note_off_c, 2, 45, 95
3, 1459680, Pitch_bend_c, 3, 8192
3, 1459680, Note_on_c, 3, 73, 95
3, 1459728, Pitch_bend_c, 3, 8320
3, 1459776, Pitch_bend_c, 3, 8448
3, 1459824, Pitch_bend_c, 3, 8576
3, 1459872, Pitch_bend_c, 3, 8704
3, 1459920, Pitch_bend_c, 3, 8832
3, 1459920, Pitch_bend_c, 3, 8832
3, 1460160, Pitch_bend_c, 3, 8832
3, 1460208, Pitch_bend_c, 3, 8704
3, 1460256, Pitch_bend_c, 3, 8576
3, 1460304, Pitch_bend_c, 3, 8448
3, 1460352, Pitch_bend_c, 3, 8320
3, 1460400, Pitch_bend_c, 3, 8192
3, 1460400, Pitch_bend_c, 3, 8192
3, 1460640, Pitch_bend_c, 3, 8192
3, 1460640, Pitch_bend_c, 3, 8192
3, 1460640, Note_off_c, 3, 73, 95
3, 1460640, Note_on_c, 2, 69, 95
3, 1461120, Note_off_c, 2, 69, 95
3, 1461120, Note_on_c, 2, 45, 95
3, 1461600, Note_off_c, 2, 45, 95
3, 1461600, Note_on_c, 2, 67, 95
3, 1462080, Note_off_c, 2, 67, 95
3, 1462080, Note_on_c, 2, 69, 95
3, 1462560, Note_off_c, 2, 69, 95
3, 1462560, Note_on_c, 2, 45, 95
3, 1463040, Note_off_c, 2, 45, 95
3, 1463040, Note_on_c, 3, 69, 95
3, 1463200, Pitch_bend_c, 3, 8192
3, 1463360, Pitch_bend_c, 3, 8320
3, 1463520, Pitch_bend_c, 3, 8192
3, 1463680, Pitch_bend_c, 3, 8320
3, 1463840, Pitch_bend_c, 3, 8192
3, 1464000, Pitch_bend_c, 3, 8320
3, 1464000, Pitch_bend_c, 3, 8192
3, 1464000, Note_off_c, 3, 69, 95
3, 1464000, Note_on_c, 2, 45, 95
3, 1464480, Note_off_c, 2, 45, 95
3, 1464480, Note_on_c, 2, 69, 95
3, 1464960, Note_off_c, 2, 69, 95
3, 1464960, Note_on_c, 2, 45, 95
3, 1465440, Note_off_c, 2, 45, 95
3, 1465440, Note_on_c, 2, 67, 95
3, 1465920, Note_off_c, 2, 67, 95
3, 1465920, Note_on_c, 2, 45, 95
3, 1466400, Note_off_c, 2, 45, 95
3, 1466400, Note_on_c, 2, 70, 95
3, 1466880, Note_off_c, 2, 70, 95
3, 1466880, Note_on_c, 2, 45, 95
3, 1467360, Note_off_c, 2, 45, 95
3, 1467360, Pitch_bend_c, 3, 8192
3, 1467360, Note_on_c, 3, 73, 95
3, 1467408, Pitch_bend_c, 3, 8320
3, 1467456, Pitch_bend_c, 3, 8448
3, 1467504, Pitch_bend_c, 3, 8576
3, 1467552, Pitch_bend_c, 3, 8704
3, 1467600, Pitch_bend_c, 3, 8832
3, 1467600, Pitch_bend_c, 3, 8832
3, 1467840, Pitch_bend_c, 3, 8832
3, 1467888, Pitch_bend_c, 3, 8704
3, 1467936, Pitch_bend_c, 3, 8576
3, 1467984, Pitch_bend_c, 3, 8448
3, 1468032, Pitch_bend_c, 3, 8320
3, 1468080, Pitch_bend_c, 3, 8192
3, 1468080, Pitch_bend_c, 3, 8192
3, 1468320, Pitch_bend_c, 3, 8192
3, 1468320, Pitch_bend_c, 3, 8192
3, 1468320, Note_off_c, 3, 73, 95
3, 1468320, Note_on_c, 2, 69, 95
3, 1468800, Note_off_c, 2, 69, 95
3, 1468800, Note_on_c, 2, 45, 95
3, 1469280, Note_off_c, 2, 45, 95
3, 1469280, Note_on_c, 2, 67, 95
3, 1469760, Note_off_c, 2, 67, 95
3, 1469760, Note_on_c, 2, 69, 95
3, 1470240, Note_off_c, 2, 69, 95
3, 1470240, Note_on_c, 2, 45, 95
3, 1470720, Note_off_c, 2, 45, 95
3, 1470720, Pitch_bend_c, 3, 8192
3, 1470720, Note_on_c, 3, 73, 95
3, 1470768, Pitch_bend_c, 3, 8320
3, 1470816, Pitch_bend_c, 3, 8448
3, 1470864, Pitch_bend_c, 3, 8576
3, 1470912, Pitch_bend_c, 3, 8704
3, 1470960, Pitch_bend_c, 3, 8832
3, 1470960, Pitch_bend_c, 3, 8832
3, 1471200, Pitch_bend_c, 3, 8832
3, 1471248, Pitch_bend_c, 3, 8704
3, 1471296, Pitch_bend_c, 3, 8576
3, 1471344, Pitch_bend_c, 3, 8448
3, 1471392, Pitch_bend_c, 3, 8320
3, 1471440, Pitch_bend_c, 3, 8192
3, 1471440, Pitch_bend_c, 3, 8192
3, 1471680, Pitch_bend_c, 3, 8192
3, 1471680, Pitch_bend_c, 3, 8192
3, 1471680, Note_off_c, 3, 73, 95
3, 1471680, Note_on_c, 2, 45, 95
3, 1472640, Note_off_c, 2, 45, 95
3, 1472640, Note_on_c, 2, 67, 95
3, 1473120, Note_off_c, 2, 67, 95
3, 1473120, Note_on_c, 2, 69, 95
3, 1473600, Note_off_c, 2, 69, 95
3, 1473600, Note_on_c, 2, 45, 95
3, 1474080, Note_off_c, 2, 45, 95
3, 1474080, Note_on_c, 2, 61, 95
3, 1474210, Note_off_c, 2, 61, 95
3, 1474320, Note_on_c, 2, 62, 95
3, 1474450, Note_off_c, 2, 62, 95
3, 1474560, Note_on_c, 2, 64, 95
3, 1475040, Note_off_c, 2, 64, 95
3, 1475040, Pitch_bend_c, 3, 8192
3, 1475040, Note_on_c, 3, 73, 95
3, 1475088, Pitch_bend_c, 3, 8320
3, 1475136, Pitch_bend_c, 3, 8448
3, 1475184, Pitch_bend_c, 3, 8576
3, 1475232, Pitch_bend_c, 3, 8704
3, 1475280, Pitch_bend_c, 3, 8832
3, 1475280, Pitch_bend_c, 3, 8832
3, 1475520, Pitch_bend_c, 3, 8832
3, 1475568, Pitch_bend_c, 3, 8704
3, 1475616, Pitch_bend_c, 3, 8576
3, 1475664, Pitch_bend_c, 3, 8448
3, 1475712, Pitch_bend_c, 3, 8320
3, 1475760, Pitch_bend_c, 3, 8192
3, 1475760, Pitch_bend_c, 3, 8192
3, 1476000, Pitch_bend_c, 3, 8192
3, 1476000, Pitch_bend_c, 3, 8192
3, 1476000, Note_off_c, 3, 73, 95
3, 1476000, Note_on_c, 2, 69, 95
3, 1476480, Note_off_c, 2, 69, 95
3, 1476480, Note_on_c, 2, 45, 95
3, 1476960, Note_off_c, 2, 45, 95
3, 1476960, Note_on_c, 2, 67, 95
3, 1477440, Note_off_c, 2, 67, 95
3, 1477440, Note_on_c, 2, 69, 95
3, 1477920, Note_off_c, 2, 69, 95
3, 1477920, Note_on_c, 2, 45, 95
3, 1478400, Note_off_c, 2, 45, 95
3, 1478400, Note_on_c, 3, 69, 95
3, 1478560, Pitch_bend_c, 3, 8192
3, 1478720, Pitch_bend_c, 3, 8320
3, 1478880, Pitch_bend_c, 3, 8192
3, 1479040, Pitch_bend_c, 3, 8320
3, 1479200, Pitch_bend_c, 3, 8192
3, 1479360, Pitch_bend_c, 3, 8320
3, 1479360, Pitch_bend_c, 3, 8192
3, 1479360, Note_off_c, 3, 69, 95
3, 1479360, Note_on_c, 2, 57, 95
3, 1479840, Note_off_c, 2, 57, 95
3, 1479840, Note_on_c, 2, 61, 95
3, 1480320, Note_off_c, 2, 61, 95
3, 1480320, Note_on_c, 2, 62, 95
3, 1480800, Note_off_c, 2, 62, 95
3, 1480800, Note_on_c, 2, 64, 95
3, 1481280, Note_off_c, 2, 64, 95
3, 1481280, Note_on_c, 2, 65, 95
3, 1481760, Note_off_c, 2, 65, 95
3, 1481760, Note_on_c, 2, 64, 95
3, 1481880, Note_off_c, 2, 64, 95
3, 1481880, Note_on_c, 2, 65, 70
3, 1482000, Note_off_c, 2, 65, 70
3, 1482000, Note_on_c, 2, 64, 70
3, 1482240, Note_off_c, 2, 64, 70
3, 1482240, Note_on_c, 2, 62, 95
3, 1482720, Note_off_c, 2, 62, 95
3, 1482720, End_track
4, 0, Start_track
4, 0, Pitch_bend_c, 4, 8192
4, 0, Control_c, 4, 7, 103
4, 0, Control_c, 4, 10, 63
4, 0, Control_c, 4, 93, 0
4, 0, Control_c, 4, 91, 0
4, 0, Control_c, 4, 95, 0
4, 0, Control_c, 4, 92, 0
4, 0, Control_c, 4, 11, 127
4, 0, Program_c, 4, 30
4, 0, Control_c, 5, 7, 103
4, 0, Control_c, 5, 10, 63
4, 0, Control_c, 5, 93, 0
4, 0, Control_c, 5, 91, 0
4, 0, Control_c, 5, 95, 0
4, 0, Control_c, 5, 92, 0
4, 0, Control_c, 5, 11, 127
4, 0, Program_c, 5, 30
4, 38400, Pitch_bend_c, 5, 8192
4, 38400, Note_on_c, 5, 71, 95
4, 38443, Pitch_bend_c, 5, 8320
4, 38486, Pitch_bend_c, 5, 8448
4, 38529, Pitch_bend_c, 5, 8576
4, 38572, Pitch_bend_c, 5, 8704
4, 38615, Pitch_bend_c, 5, 8832
4, 38658, Pitch_bend_c, 5, 8960
4, 38701, Pitch_bend_c, 5, 9088
4, 38744, Pitch_bend_c, 5, 9216
4, 38787, Pitch_bend_c, 5, 9344
4, 38830, Pitch_bend_c, 5, 9472
4, 38873, Pitch_bend_c, 5, 9600
4, 38880, Pitch_bend_c, 5, 9600
4, 39360, Pitch_bend_c, 5, 9600
4, 39403, Pitch_bend_c, 5, 9472
4, 39446, Pitch_bend_c, 5, 9344
4, 39489, Pitch_bend_c, 5, 9216
4, 39532, Pitch_bend_c, 5, 9088
4, 39575, Pitch_bend_c, 5, 8960
4, 39618, Pitch_bend_c, 5, 8832
4, 39661, Pitch_bend_c, 5, 8704
4, 39704, Pitch_bend_c, 5, 8576
4, 39747, Pitch_bend_c, 5, 8448
4, 39790, Pitch_bend_c, 5, 8320
4, 39833, Pitch_bend_c, 5, 8192
4, 39840, Pitch_bend_c, 5, 8192
4, 40320, Pitch_bend_c, 5, 8192
4, 40320, Pitch_bend_c, 5, 8192
4, 40320, Note_off_c, 5, 71, 95
4, 41760, Note_on_c, 4, 69, 95
4, 42240, Note_off_c, 4, 69, 95
4, 45120, Note_on_c, 4, 67, 95
4, 45600, Note_off_c, 4, 67, 95
4, 45600, Note_on_c, 4, 69, 95
4, 46080, Note_on_c, 4, 64, 95
4, 48960, Note_off_c, 4, 64, 95
4, 48960, Note_on_c, 4, 64, 95
4, 49440, Note_off_c, 4, 64, 95
4, 49440, Note_on_c, 5, 64, 95
4, 49600, Pitch_bend_c, 5, 8192
4, 49760, Pitch_bend_c, 5, 8320
4, 49920, Pitch_bend_c, 5, 8192
4, 50080, Pitch_bend_c, 5, 8320
4, 50240, Pitch_bend_c, 5, 8192
4, 50400, Pitch_bend_c, 5, 8320
4, 50560, Pitch_bend_c, 5, 8192
4, 50720, Pitch_bend_c, 5, 8320
4, 50880, Pitch_bend_c, 5, 8192
4, 51040, Pitch_bend_c, 5, 8320
4, 51200, Pitch_bend_c, 5, 8192
4, 51360, Pitch_bend_c, 5, 8320
4, 51520, Pitch_bend_c, 5, 8192
4, 51680, Pitch_bend_c, 5, 8320
4, 51840, Note_off_c, 4, 69, 95
4, 51840, Pitch_bend_c, 5, 8192
4, 52000, Pitch_bend_c, 5, 8320
4, 52160, Pitch_bend_c, 5, 8192
4, 52320, Pitch_bend_c, 5, 8320
4, 52480, Pitch_bend_c, 5, 8192
4, 52640, Pitch_bend_c, 5, 8320
4, 52800, Pitch_bend_c, 5, 8192
4, 52800, Pitch_bend_c, 5, 8320
4, 52800, Pitch_bend_c, 5, 8192
4, 52800, Note_off_c, 5, 64, 95
4, 52800, Note_on_c, 4, 62, 95
4, 53280, Note_off_c, 4, 62, 95
4, 53280, Note_on_c, 4, 64, 95
4, 53760, Note_off_c, 4, 64, 95
4, 53760, Note_on_c, 4, 64, 95
4, 55200, Note_off_c, 4, 64, 95
4, 55200, Note_on_c, 4, 62, 95
4, 56640, Note_off_c, 4, 62, 95
4, 56640, Note_on_c, 4, 61, 95
4, 57600, Note_off_c, 4, 61, 95
4, 57600, Note_on_c, 4, 61, 95
4, 59040, Note_off_c, 4, 61, 95
4, 59040, Note_on_c, 4, 62, 95
4, 60480, Note_off_c, 4, 62, 95
4, 60480, Note_on_c, 4, 64, 95
4, 61440, Note_off_c, 4, 64, 95
4, 61440, Note_on_c, 5, 64, 79
4, 61600, Pitch_bend_c, 5, 8192
4, 61760, Pitch_bend_c, 5, 8320
4, 61920, Pitch_bend_c, 5, 8192
4, 62080, Pitch_bend_c, 5, 8320
4, 62240, Pitch_bend_c, 5, 8192
4, 62400, Pitch_bend_c, 5, 8320
4, 62560, Pitch_bend_c, 5, 8192
4, 62720, Pitch_bend_c, 5, 8320
4, 62880, Pitch_bend_c, 5, 8192
4, 63040, Pitch_bend_c, 5, 8320
4, 63200, Pitch_bend_c, 5, 8192
4, 63360, Pitch_bend_c, 5, 8320
4, 63520, Pitch_bend_c, 5, 8192
4, 63680, Pitch_bend_c, 5, 8320
4, 63840, Pitch_bend_c, 5, 8192
4, 64000, Pitch_bend_c, 5, 8320
4, 64160, Pitch_bend_c, 5, 8192
4, 64320, Pitch_bend_c, 5, 8320
4, 64480, Pitch_bend_c, 5, 8192
4, 64640, Pitch_bend_c, 5, 8320
4, 64800, Pitch_bend_c, 5, 8192
4, 64960, Pitch_bend_c, 5, 8320
4, 65120, Pitch_bend_c, 5, 8192
4, 65280, Pitch_bend_c, 5, 8320
4, 65440, Pitch_bend_c, 5, 8192
4, 65600, Pitch_bend_c, 5, 8320
4, 65760, Pitch_bend_c, 5, 8192
4, 65920, Pitch_bend_c, 5, 8320
4, 66080, Pitch_bend_c, 5, 8192
4, 66240, Pitch_bend_c, 5, 8320
4, 66240, Pitch_bend_c, 5, 8192
4, 66240, Note_off_c, 5, 64, 79
4, 66240, Note_on_c, 4, 43, 95
4, 66360, Note_off_c, 4, 43, 95
4, 66360, Note_on_c, 4, 45, 95
4, 66480, Note_off_c, 4, 45, 95
4, 66480, Note_on_c, 4, 46, 95
4, 66600, Note_off_c, 4, 46, 95
4, 66600, Note_on_c, 4, 48, 95
4, 66720, Note_off_c, 4, 48, 95
4, 66720, Note_on_c, 4, 50, 95
4, 66840, Note_off_c, 4, 50, 95
4, 66840, Note_on_c, 4, 52, 95
4, 66960, Note_off_c, 4, 52, 95
4, 66960, Note_on_c, 4, 50, 95
4, 67080, Note_off_c, 4, 50, 95
4, 67080, Note_on_c, 4, 52, 95
4, 67200, Note_off_c, 4, 52, 95
4, 67200, Note_on_c, 4, 53, 95
4, 67320, Note_off_c, 4, 53, 95
4, 67320, Note_on_c, 4, 52, 95
4, 67440, Note_off_c, 4, 52, 95
4, 67440, Note_on_c, 4, 55, 95
4, 67560, Note_off_c, 4, 55, 95
4, 67560, Note_on_c, 4, 57, 95
4, 67680, Note_off_c, 4, 57, 95
4, 67680, Note_on_c, 4, 55, 95
4, 67800, Note_off_c, 4, 55, 95
4, 67800, Note_on_c, 4, 53, 95
4, 67920, Note_off_c, 4, 53, 95
4, 67920, Note_on_c, 4, 52, 95
4, 68040, Note_off_c, 4, 52, 95
4, 68040, Note_on_c, 4, 50, 95
4, 68160, Note_off_c, 4, 50, 95
4, 68160, Note_on_c, 4, 49, 95
4, 68280, Note_off_c, 4, 49, 95
4, 68280, Note_on_c, 4, 52, 95
4, 68400, Note_off_c, 4, 52, 95
4, 68400, Note_on_c, 4, 50, 95
4, 68520, Note_off_c, 4, 50, 95
4, 68520, Note_on_c, 4, 52, 95
4, 68640, Note_off_c, 4, 52, 95
4, 68640, Note_on_c, 4, 46, 95
4, 68760, Note_off_c, 4, 46, 95
4, 68760, Note_on_c, 4, 45, 95
4, 68880, Note_off_c, 4, 45, 95
4, 68880, Note_on_c, 4, 43, 95
4, 69000, Note_off_c, 4, 43, 95
4, 69000, Note_on_c, 4, 41, 95
4, 69120, Note_off_c, 4, 41, 95
4, 69120, Note_on_c, 4, 43, 95
4, 69600, Note_off_c, 4, 43, 95
4, 69600, Note_on_c, 4, 45, 95
4, 70080, Note_off_c, 4, 45, 95
4, 70080, Note_on_c, 4, 46, 95
4, 70560, Note_off_c, 4, 46, 95
4, 70560, Note_on_c, 4, 50, 95
4, 71040, Note_off_c, 4, 50, 95
4, 71040, Note_on_c, 4, 49, 95
4, 71520, Note_off_c, 4, 49, 95
4, 71520, Note_on_c, 4, 45, 95
4, 72000, Note_off_c, 4, 45, 95
4, 73440, Note_on_c, 4, 43, 95
4, 73920, Note_off_c, 4, 43, 95
4, 73920, Note_on_c, 4, 45, 95
4, 74400, Note_off_c, 4, 45, 95
4, 74400, Note_on_c, 4, 46, 95
4, 74880, Note_off_c, 4, 46, 95
4, 74880, Note_on_c, 4, 50, 95
4, 75360, Note_off_c, 4, 50, 95
4, 75360, Note_on_c, 4, 49, 95
4, 75840, Note_off_c, 4, 49, 95
4, 75840, Note_on_c, 4, 53, 95
4, 76320, Note_off_c, 4, 53, 95
4, 76320, Note_on_c, 5, 52, 95
4, 76480, Pitch_bend_c, 5, 8192
4, 76640, Pitch_bend_c, 5, 8320
4, 76800, Pitch_bend_c, 5, 8192
4, 76960, Pitch_bend_c, 5, 8320
4, 77120, Pitch_bend_c, 5, 8192
4, 77280, Pitch_bend_c, 5, 8320
4, 77280, Pitch_bend_c, 5, 8192
4, 77280, Note_off_c, 5, 52, 95
4, 77280, Note_on_c, 4, 43, 95
4, 77760, Note_off_c, 4, 43, 95
4, 77760, Note_on_c, 4, 46, 95
4, 78240, Note_off_c, 4, 46, 95
4, 78240, Note_on_c, 4, 50, 95
4, 78720, Note_off_c, 4, 50, 95
4, 78720, Note_on_c, 4, 49, 95
4, 79200, Note_off_c, 4, 49, 95
4, 79200, Note_on_c, 4, 45, 95
4, 79680, Note_off_c, 4, 45, 95
4, 80160, Note_on_c, 4, 52, 95
4, 80160, Note_on_c, 4, 45, 95
4, 80640, Note_off_c, 4, 52, 95
4, 80640, Note_off_c, 4, 45, 95
4, 80640, Note_on_c, 4, 53, 95
4, 80640, Note_on_c, 4, 46, 95
4, 81120, Note_off_c, 4, 53, 95
4, 81120, Note_off_c, 4, 46, 95
4, 81120, Note_on_c, 4, 50, 95
4, 81120, Note_on_c, 4, 43, 95
4, 81600, Note_off_c, 4, 50, 95
4, 81600, Note_off_c, 4, 43, 95
4, 82080, Note_on_c, 4, 48, 95
4, 82080, Note_on_c, 4, 41, 95
4, 82560, Note_off_c, 4, 48, 95
4, 82560, Note_off_c, 4, 41, 95
4, 82560, Note_on_c, 4, 50, 95
4, 82560, Note_on_c, 4, 43, 95
4, 83040, Note_off_c, 4, 50, 95
4, 83040, Note_off_c, 4, 43, 95
4, 83040, Note_on_c, 4, 47, 95
4, 83040, Note_on_c, 4, 40, 95
4, 83520, Note_off_c, 4, 47, 95
4, 83520, Note_off_c, 4, 40, 95
4, 84480, Note_on_c, 4, 43, 95
4, 84960, Note_off_c, 4, 43, 95
4, 84960, Note_on_c, 4, 45, 95
4, 85440, Note_off_c, 4, 45, 95
4, 85440, Note_on_c, 4, 46, 95
4, 85920, Note_off_c, 4, 46, 95
4, 85920, Note_on_c, 4, 50, 95
4, 86400, Note_off_c, 4, 50, 95
4, 86400, Note_on_c, 4, 49, 95
4, 86880, Note_off_c, 4, 49, 95
4, 86880, Note_on_c, 4, 45, 95
4, 87360, Note_off_c, 4, 45, 95
4, 88800, Note_on_c, 4, 43, 95
4, 89280, Note_off_c, 4, 43, 95
4, 89280, Note_on_c, 4, 45, 95
4, 89760, Note_off_c, 4, 45, 95
4, 89760, Note_on_c, 4, 46, 95
4, 90240, Note_off_c, 4, 46, 95
4, 90240, Note_on_c, 4, 50, 95
4, 90720, Note_off_c, 4, 50, 95
4, 90720, Note_on_c, 4, 49, 95
4, 91200, Note_off_c, 4, 49, 95
4, 91200, Note_on_c, 4, 53, 95
4, 91680, Note_off_c, 4, 53, 95
4, 91680, Note_on_c, 5, 52, 95
4, 91840, Pitch_bend_c, 5, 8192
4, 92000, Pitch_bend_c, 5, 8320
4, 92160, Pitch_bend_c, 5, 8192
4, 92320, Pitch_bend_c, 5, 8320
4, 92480, Pitch_bend_c, 5, 8192
4, 92640, Pitch_bend_c, 5, 8320
4, 92640, Pitch_bend_c, 5, 8192
4, 92640, Note_off_c, 5, 52, 95
4, 92640, Note_on_c, 4, 43, 95
4, 93120, Note_off_c, 4, 43, 95
4, 93120, Note_on_c, 4, 45, 95
4, 93600, Note_off_c, 4, 45, 95
4, 93600, Note_on_c, 4, 46, 95
4, 94080, Note_off_c, 4, 46, 95
4, 94080, Note_on_c, 4, 50, 95
4, 94560, Note_off_c, 4, 50, 95
4, 94560, Note_on_c, 4, 49, 95
4, 95040, Note_off_c, 4, 49, 95
4, 95040, Note_on_c, 4, 46, 95
4, 95520, Note_off_c, 4, 46, 95
4, 95520, Note_on_c, 4, 45, 95
4, 96000, Note_off_c, 4, 45, 95
4, 96000, Note_on_c, 4, 58, 95
4, 96000, Note_on_c, 4, 53, 95
4, 96000, Note_on_c, 4, 46, 95
4, 96480, Note_off_c, 4, 58, 95
4, 96480, Note_off_c, 4, 53, 95
4, 96480, Note_off_c, 4, 46, 95
4, 96480, Note_on_c, 4, 57, 95
4, 96480, Note_on_c, 4, 52, 95
4, 96480, Note_on_c, 4, 45, 95
4, 96960, Note_off_c, 4, 57, 95
4, 96960, Note_off_c, 4, 52, 95
4, 96960, Note_off_c, 4, 45, 95
4, 96960, Note_on_c, 4, 45, 95
4, 97088, Note_off_c, 4, 45, 95
4, 97440, Note_on_c, 4, 53, 95
4, 97440, Note_on_c, 4, 48, 95
4, 97440, Note_on_c, 4, 41, 95
4, 97920, Note_off_c, 4, 53, 95
4, 97920, Note_off_c, 4, 48, 95
4, 97920, Note_off_c, 4, 41, 95
4, 97920, Note_on_c, 4, 52, 95
4, 97920, Note_on_c, 4, 47, 95
4, 97920, Note_on_c, 4, 40, 95
4, 98400, Note_off_c, 4, 52, 95
4, 98400, Note_off_c, 4, 47, 95
4, 98400, Note_off_c, 4, 40, 95
4, 98400, Note_on_c, 4, 45, 95
4, 98528, Note_off_c, 4, 45, 95
4, 98880, Note_on_c, 4, 58, 95
4, 98880, Note_on_c, 4, 53, 95
4, 98880, Note_on_c, 4, 46, 95
4, 99360, Note_off_c, 4, 58, 95
4, 99360, Note_off_c, 4, 53, 95
4, 99360, Note_off_c, 4, 46, 95
4, 99360, Note_on_c, 4, 57, 95
4, 99360, Note_on_c, 4, 52, 95
4, 99360, Note_on_c, 4, 45, 95
4, 99840, Note_off_c, 4, 57, 95
4, 99840, Note_off_c, 4, 52, 95
4, 99840, Note_off_c, 4, 45, 95
4, 99840, Note_on_c, 4, 43, 95
4, 100320, Note_off_c, 4, 43, 95
4, 100320, Note_on_c, 4, 45, 95
4, 100800, Note_off_c, 4, 45, 95
4, 100800, Note_on_c, 4, 46, 95
4, 101280, Note_off_c, 4, 46, 95
4, 101280, Note_on_c, 4, 50, 95
4, 101760, Note_off_c, 4, 50, 95
4, 101760, Note_on_c, 4, 49, 95
4, 102240, Note_off_c, 4, 49, 95
4, 102240, Note_on_c, 4, 45, 95
4, 102720, Note_off_c, 4, 45, 95
4, 104160, Note_on_c, 4, 43, 95
4, 104640, Note_off_c, 4, 43, 95
4, 104640, Note_on_c, 4, 45, 95
4, 105120, Note_off_c, 4, 45, 95
4, 105120, Note_on_c, 4, 46, 95
4, 105600, Note_off_c, 4, 46, 95
4, 105600, Note_on_c, 4, 50, 95
4, 106080, Note_off_c, 4, 50, 95
4, 106080, Note_on_c, 4, 49, 95
4, 106560, Note_off_c, 4, 49, 95
4, 106560, Note_on_c, 4, 53, 95
4, 107040, Note_off_c, 4, 53, 95
4, 107040, Note_on_c, 5, 52, 95
4, 107200, Pitch_bend_c, 5, 8192
4, 107360, Pitch_bend_c, 5, 8320
4, 107520, Pitch_bend_c, 5, 8192
4, 107680, Pitch_bend_c, 5, 8320
4, 107840, Pitch_bend_c, 5, 8192
4, 108000, Pitch_bend_c, 5, 8320
4, 108000, Pitch_bend_c, 5, 8192
4, 108000, Note_off_c, 5, 52, 95
4, 108000, Note_on_c, 4, 43, 95
4, 108480, Note_off_c, 4, 43, 95
4, 108480, Note_on_c, 4, 46, 95
4, 108960, Note_off_c, 4, 46, 95
4, 108960, Note_on_c, 4, 50, 95
4, 109440, Note_off_c, 4, 50, 95
4, 109440, Note_on_c, 4, 49, 95
4, 109920, Note_off_c, 4, 49, 95
4, 109920, Note_on_c, 4, 45, 95
4, 110400, Note_off_c, 4, 45, 95
4, 110880, Note_on_c, 5, 52, 95
4, 110880, Note_on_c, 5, 45, 95
4, 111000, Pitch_bend_c, 5, 8320
4, 111000, Pitch_bend_c, 5, 8320
4, 111120, Pitch_bend_c, 5, 8448
4, 111120, Pitch_bend_c, 5, 8448
4, 111240, Pitch_bend_c, 5, 8704
4, 111240, Pitch_bend_c, 5, 8704
4, 111360, Pitch_bend_c, 5, 8832
4, 111360, Pitch_bend_c, 5, 8192
4, 111360, Note_off_c, 5, 52, 95
4, 111360, Pitch_bend_c, 5, 8832
4, 111360, Pitch_bend_c, 5, 8192
4, 111360, Note_off_c, 5, 45, 95
4, 111360, Note_on_c, 4, 53, 95
4, 111360, Note_on_c, 4, 46, 95
4, 111840, Note_off_c, 4, 53, 95
4, 111840, Note_off_c, 4, 46, 95
4, 111840, Note_on_c, 4, 50, 95
4, 111840, Note_on_c, 4, 43, 95
4, 112320, Note_off_c, 4, 50, 95
4, 112320, Note_off_c, 4, 43, 95
4, 112800, Note_on_c, 5, 48, 95
4, 112800, Note_on_c, 5, 41, 95
4, 112920, Pitch_bend_c, 5, 8448
4, 112920, Pitch_bend_c, 5, 8448
4, 113040, Pitch_bend_c, 5, 8832
4, 113040, Pitch_bend_c, 5, 8832
4, 113160, Pitch_bend_c, 5, 9216
4, 113160, Pitch_bend_c, 5, 9216
4, 113280, Pitch_bend_c, 5, 9600
4, 113280, Pitch_bend_c, 5, 8192
4, 113280, Note_off_c, 5, 48, 95
4, 113280, Pitch_bend_c, 5, 9600
4, 113280, Pitch_bend_c, 5, 8192
4, 113280, Note_off_c, 5, 41, 95
4, 113280, Note_on_c, 4, 50, 95
4, 113280, Note_on_c, 4, 43, 95
4, 113760, Note_off_c, 4, 50, 95
4, 113760, Note_off_c, 4, 43, 95
4, 113760, Note_on_c, 4, 47, 95
4, 113760, Note_on_c, 4, 40, 95
4, 114240, Note_off_c, 4, 47, 95
4, 114240, Note_off_c, 4, 40, 95
4, 115200, Note_on_c, 4, 43, 95
4, 115680, Note_off_c, 4, 43, 95
4, 115680, Note_on_c, 4, 45, 95
4, 116160, Note_off_c, 4, 45, 95
4, 116160, Note_on_c, 4, 46, 95
4, 116640, Note_off_c, 4, 46, 95
4, 116640, Note_on_c, 4, 50, 95
4, 117120, Note_off_c, 4, 50, 95
4, 117120, Note_on_c, 4, 49, 95
4, 117600, Note_off_c, 4, 49, 95
4, 117600, Note_on_c, 4, 45, 95
4, 118080, Note_off_c, 4, 45, 95
4, 118080, Note_on_c, 4, 59, 95
4, 118080, Note_on_c, 4, 55, 95
4, 118080, Note_on_c, 4, 50, 95
4, 118080, Note_on_c, 4, 45, 95
4, 118144, Note_off_c, 4, 59, 95
4, 118144, Note_off_c, 4, 55, 95
4, 118144, Note_off_c, 4, 50, 95
4, 118144, Note_off_c, 4, 45, 95
4, 118560, Note_on_c, 4, 59, 95
4, 118560, Note_on_c, 4, 55, 95
4, 118560, Note_on_c, 4, 50, 95
4, 118560, Note_on_c, 4, 45, 95
4, 118624, Note_off_c, 4, 59, 95
4, 118624, Note_off_c, 4, 55, 95
4, 118624, Note_off_c, 4, 50, 95
4, 118624, Note_off_c, 4, 45, 95
4, 119040, Note_on_c, 4, 59, 95
4, 119040, Note_on_c, 4, 55, 95
4, 119040, Note_on_c, 4, 50, 95
4, 119040, Note_on_c, 4, 45, 95
4, 119104, Note_off_c, 4, 59, 95
4, 119104, Note_off_c, 4, 55, 95
4, 119104, Note_off_c, 4, 50, 95
4, 119104, Note_off_c, 4, 45, 95
4, 119520, Note_on_c, 4, 43, 95
4, 120000, Note_off_c, 4, 43, 95
4, 120000, Note_on_c, 4, 45, 95
4, 120480, Note_off_c, 4, 45, 95
4, 120480, Note_on_c, 4, 46, 95
4, 120960, Note_off_c, 4, 46, 95
4, 120960, Note_on_c, 4, 50, 95
4, 121440, Note_off_c, 4, 50, 95
4, 121440, Note_on_c, 4, 49, 95
4, 121920, Note_off_c, 4, 49, 95
4, 121920, Note_on_c, 4, 53, 95
4, 122400, Note_off_c, 4, 53, 95
4, 122400, Note_on_c, 5, 52, 95
4, 122560, Pitch_bend_c, 5, 8192
4, 122720, Pitch_bend_c, 5, 8320
4, 122880, Pitch_bend_c, 5, 8192
4, 123040, Pitch_bend_c, 5, 8320
4, 123200, Pitch_bend_c, 5, 8192
4, 123360, Pitch_bend_c, 5, 8320
4, 123360, Pitch_bend_c, 5, 8192
4, 123360, Note_off_c, 5, 52, 95
4, 123360, Note_on_c, 4, 43, 95
4, 123840, Note_off_c, 4, 43, 95
4, 123840, Note_on_c, 4, 45, 95
4, 124320, Note_off_c, 4, 45, 95
4, 124320, Note_on_c, 4, 46, 95
4, 124800, Note_off_c, 4, 46, 95
4, 124800, Note_on_c, 4, 50, 95
4, 125280, Note_off_c, 4, 50, 95
4, 125280, Note_on_c, 4, 49, 95
4, 125760, Note_off_c, 4, 49, 95
4, 125760, Note_on_c, 4, 46, 95
4, 126240, Note_off_c, 4, 46, 95
4, 126240, Note_on_c, 4, 45, 95
4, 126720, Note_off_c, 4, 45, 95
4, 126720, Note_on_c, 4, 58, 95
4, 126720, Note_on_c, 4, 53, 95
4, 126720, Note_on_c, 4, 46, 95
4, 127200, Note_off_c, 4, 58, 95
4, 127200, Note_off_c, 4, 53, 95
4, 127200, Note_off_c, 4, 46, 95
4, 127200, Note_on_c, 4, 57, 95
4, 127200, Note_on_c, 4, 52, 95
4, 127200, Note_on_c, 4, 45, 95
4, 127680, Note_off_c, 4, 57, 95
4, 127680, Note_off_c, 4, 52, 95
4, 127680, Note_off_c, 4, 45, 95
4, 127680, Note_on_c, 4, 45, 95
4, 127808, Note_off_c, 4, 45, 95
4, 128160, Note_on_c, 4, 53, 95
4, 128160, Note_on_c, 4, 48, 95
4, 128160, Note_on_c, 4, 41, 95
4, 128640, Note_off_c, 4, 53, 95
4, 128640, Note_off_c, 4, 48, 95
4, 128640, Note_off_c, 4, 41, 95
4, 128640, Note_on_c, 4, 52, 95
4, 128640, Note_on_c, 4, 47, 95
4, 128640, Note_on_c, 4, 40, 95
4, 129120, Note_off_c, 4, 52, 95
4, 129120, Note_off_c, 4, 47, 95
4, 129120, Note_off_c, 4, 40, 95
4, 129120, Note_on_c, 4, 45, 95
4, 129248, Note_off_c, 4, 45, 95
4, 129600, Note_on_c, 4, 57, 95
4, 129600, Note_on_c, 4, 52, 95
4, 129600, Note_on_c, 4, 45, 95
4, 130080, Note_off_c, 4, 57, 95
4, 130080, Note_off_c, 4, 52, 95
4, 130080, Note_off_c, 4, 45, 95
4, 130080, Note_on_c, 4, 53, 95
4, 130080, Note_on_c, 4, 46, 95
4, 130560, Note_off_c, 4, 53, 95
4, 130560, Note_off_c, 4, 46, 95
4, 253440, Note_on_c, 4, 43, 95
4, 253920, Note_off_c, 4, 43, 95
4, 253920, Note_on_c, 4, 45, 95
4, 254400, Note_off_c, 4, 45, 95
4, 254400, Note_on_c, 4, 46, 95
4, 254880, Note_off_c, 4, 46, 95
4, 254880, Note_on_c, 4, 50, 95
4, 255360, Note_off_c, 4, 50, 95
4, 255360, Note_on_c, 4, 49, 95
4, 255840, Note_off_c, 4, 49, 95
4, 255840, Note_on_c, 4, 45, 95
4, 256320, Note_off_c, 4, 45, 95
4, 257280, Note_on_c, 4, 59, 95
4, 257280, Note_on_c, 4, 55, 95
4, 257280, Note_on_c, 4, 50, 95
4, 257280, Note_on_c, 4, 45, 95
4, 257344, Note_off_c, 4, 59, 95
4, 257344, Note_off_c, 4, 55, 95
4, 257344, Note_off_c, 4, 50, 95
4, 257344, Note_off_c, 4, 45, 95
4, 257760, Note_on_c, 4, 43, 95
4, 258240, Note_off_c, 4, 43, 95
4, 258240, Note_on_c, 4, 45, 95
4, 258720, Note_off_c, 4, 45, 95
4, 258720, Note_on_c, 4, 46, 95
4, 259200, Note_off_c, 4, 46, 95
4, 259200, Note_on_c, 4, 50, 95
4, 259680, Note_off_c, 4, 50, 95
4, 259680, Note_on_c, 4, 49, 95
4, 260160, Note_off_c, 4, 49, 95
4, 260160, Note_on_c, 4, 53, 95
4, 260640, Note_off_c, 4, 53, 95
4, 260640, Note_on_c, 5, 52, 95
4, 260800, Pitch_bend_c, 5, 8192
4, 260960, Pitch_bend_c, 5, 8320
4, 261120, Pitch_bend_c, 5, 8192
4, 261280, Pitch_bend_c, 5, 8320
4, 261440, Pitch_bend_c, 5, 8192
4, 261600, Pitch_bend_c, 5, 8320
4, 261600, Pitch_bend_c, 5, 8192
4, 261600, Note_off_c, 5, 52, 95
4, 261600, Note_on_c, 4, 43, 95
4, 262080, Note_off_c, 4, 43, 95
4, 262080, Note_on_c, 4, 46, 95
4, 262560, Note_off_c, 4, 46, 95
4, 262560, Note_on_c, 4, 50, 95
4, 263040, Note_off_c, 4, 50, 95
4, 263040, Note_on_c, 4, 49, 95
4, 263520, Note_off_c, 4, 49, 95
4, 263520, Note_on_c, 4, 45, 95
4, 264000, Note_off_c, 4, 45, 95
4, 264480, Note_on_c, 4, 45, 95
4, 264960, Note_off_c, 4, 45, 95
4, 264960, Note_on_c, 4, 46, 95
4, 265440, Note_off_c, 4, 46, 95
4, 265440, Note_on_c, 4, 43, 95
4, 265920, Note_off_c, 4, 43, 95
4, 266400, Note_on_c, 4, 41, 95
4, 266880, Note_off_c, 4, 41, 95
4, 266880, Note_on_c, 4, 43, 95
4, 267360, Note_off_c, 4, 43, 95
4, 267360, Note_on_c, 4, 40, 95
4, 267840, Note_off_c, 4, 40, 95
4, 268320, Note_on_c, 4, 47, 95
4, 268320, Note_on_c, 4, 40, 95
4, 268800, Note_off_c, 4, 47, 95
4, 268800, Note_off_c, 4, 40, 95
4, 268800, Note_on_c, 4, 41, 95
4, 269280, Note_off_c, 4, 41, 95
4, 269280, Note_on_c, 4, 48, 95
4, 269760, Note_off_c, 4, 48, 95
4, 269760, Note_on_c, 5, 53, 95
4, 269920, Pitch_bend_c, 5, 8192
4, 270080, Pitch_bend_c, 5, 8320
4, 270240, Pitch_bend_c, 5, 8192
4, 270400, Pitch_bend_c, 5, 8320
4, 270560, Pitch_bend_c, 5, 8192
4, 270720, Pitch_bend_c, 5, 8320
4, 270880, Pitch_bend_c, 5, 8192
4, 271040, Pitch_bend_c, 5, 8320
4, 271200, Pitch_bend_c, 5, 8192
4, 271200, Pitch_bend_c, 5, 8320
4, 271200, Pitch_bend_c, 5, 8192
4, 271200, Note_off_c, 5, 53, 95
4, 271200, Note_on_c, 4, 43, 95
4, 271680, Note_off_c, 4, 43, 95
4, 271680, Note_on_c, 5, 50, 95
4, 271840, Pitch_bend_c, 5, 8192
4, 272000, Pitch_bend_c, 5, 8320
4, 272160, Pitch_bend_c, 5, 8192
4, 272320, Pitch_bend_c, 5, 8320
4, 272480, Pitch_bend_c, 5, 8192
4, 272640, Pitch_bend_c, 5, 8320
4, 272800, Pitch_bend_c, 5, 8192
4, 272960, Pitch_bend_c, 5, 8320
4, 273120, Pitch_bend_c, 5, 8192
4, 273120, Pitch_bend_c, 5, 8320
4, 273120, Pitch_bend_c, 5, 8192
4, 273120, Note_off_c, 5, 50, 95
4, 273120, Note_on_c, 4, 45, 95
4, 273600, Note_off_c, 4, 45, 95
4, 273600, Note_on_c, 5, 52, 95
4, 273760, Pitch_bend_c, 5, 8192
4, 273920, Pitch_bend_c, 5, 8320
4, 274080, Pitch_bend_c, 5, 8192
4, 274240, Pitch_bend_c, 5, 8320
4, 274400, Pitch_bend_c, 5, 8192
4, 274560, Pitch_bend_c, 5, 8320
4, 274720, Pitch_bend_c, 5, 8192
4, 274880, Pitch_bend_c, 5, 8320
4, 275040, Pitch_bend_c, 5, 8192
4, 275040, Pitch_bend_c, 5, 8320
4, 275040, Pitch_bend_c, 5, 8192
4, 275040, Note_off_c, 5, 52, 95
4, 275040, Note_on_c, 4, 43, 95
4, 275520, Note_off_c, 4, 43, 95
4, 275520, Note_on_c, 4, 50, 95
4, 276000, Note_off_c, 4, 50, 95
4, 276000, Note_on_c, 4, 41, 95
4, 276960, Note_off_c, 4, 41, 95
4, 276960, Note_on_c, 4, 48, 95
4, 277440, Note_off_c, 4, 48, 95
4, 277440, Note_on_c, 5, 53, 95
4, 277600, Pitch_bend_c, 5, 8192
4, 277760, Pitch_bend_c, 5, 8320
4, 277920, Pitch_bend_c, 5, 8192
4, 278080, Pitch_bend_c, 5, 8320
4, 278240, Pitch_bend_c, 5, 8192
4, 278400, Pitch_bend_c, 5, 8320
4, 278560, Pitch_bend_c, 5, 8192
4, 278720, Pitch_bend_c, 5, 8320
4, 278880, Pitch_bend_c, 5, 8192
4, 278880, Pitch_bend_c, 5, 8320
4, 278880, Pitch_bend_c, 5, 8192
4, 278880, Note_off_c, 5, 53, 95
4, 278880, Note_on_c, 4, 43, 31
4, 278880, Note_on_c, 4, 55, 95
4, 280320, Note_off_c, 4, 43, 31
4, 280320, Note_off_c, 4, 55, 95
4, 280320, Note_on_c, 4, 57, 95
4, 280320, Note_on_c, 4, 52, 95
4, 280320, Note_on_c, 4, 45, 95
4, 281280, Note_off_c, 4, 57, 95
4, 281280, Note_off_c, 4, 52, 95
4, 281760, Note_off_c, 4, 45, 95
4, 281760, Note_on_c, 4, 55, 95
4, 281760, Note_on_c, 4, 50, 95
4, 281760, Note_on_c, 4, 43, 95
4, 282720, Note_off_c, 4, 55, 95
4, 282720, Note_off_c, 4, 50, 95
4, 282720, Note_off_c, 4, 43, 95
4, 282720, Note_on_c, 4, 52, 95
4, 282720, Note_on_c, 4, 47, 95
4, 282720, Note_on_c, 4, 40, 95
4, 283680, Note_off_c, 4, 52, 95
4, 283680, Note_off_c, 4, 47, 95
4, 283680, Note_off_c, 4, 40, 95
4, 283680, Note_on_c, 4, 53, 95
4, 283680, Note_on_c, 4, 48, 95
4, 283680, Note_on_c, 4, 41, 95
4, 284640, Note_off_c, 4, 53, 95
4, 284640, Note_off_c, 4, 48, 95
4, 284640, Note_off_c, 4, 41, 95
4, 284640, Note_on_c, 4, 48, 95
4, 285120, Note_off_c, 4, 48, 95
4, 285120, Note_on_c, 5, 53, 95
4, 285280, Pitch_bend_c, 5, 8192
4, 285440, Pitch_bend_c, 5, 8320
4, 285600, Pitch_bend_c, 5, 8192
4, 285760, Pitch_bend_c, 5, 8320
4, 285920, Pitch_bend_c, 5, 8192
4, 286080, Pitch_bend_c, 5, 8320
4, 286240, Pitch_bend_c, 5, 8192
4, 286400, Pitch_bend_c, 5, 8320
4, 286560, Pitch_bend_c, 5, 8192
4, 286560, Pitch_bend_c, 5, 8320
4, 286560, Pitch_bend_c, 5, 8192
4, 286560, Note_off_c, 5, 53, 95
4, 286560, Note_on_c, 4, 43, 95
4, 287040, Note_off_c, 4, 43, 95
4, 287040, Note_on_c, 5, 50, 95
4, 287200, Pitch_bend_c, 5, 8192
4, 287360, Pitch_bend_c, 5, 8320
4, 287520, Pitch_bend_c, 5, 8192
4, 287680, Pitch_bend_c, 5, 8320
4, 287840, Pitch_bend_c, 5, 8192
4, 288000, Pitch_bend_c, 5, 8320
4, 288160, Pitch_bend_c, 5, 8192
4, 288320, Pitch_bend_c, 5, 8320
4, 288480, Pitch_bend_c, 5, 8192
4, 288480, Pitch_bend_c, 5, 8320
4, 288480, Pitch_bend_c, 5, 8192
4, 288480, Note_off_c, 5, 50, 95
4, 288480, Note_on_c, 4, 45, 95
4, 288960, Note_off_c, 4, 45, 95
4, 288960, Note_on_c, 5, 52, 95
4, 289120, Pitch_bend_c, 5, 8192
4, 289280, Pitch_bend_c, 5, 8320
4, 289440, Pitch_bend_c, 5, 8192
4, 289600, Pitch_bend_c, 5, 8320
4, 289760, Pitch_bend_c, 5, 8192
4, 289920, Pitch_bend_c, 5, 8320
4, 290080, Pitch_bend_c, 5, 8192
4, 290240, Pitch_bend_c, 5, 8320
4, 290400, Pitch_bend_c, 5, 8192
4, 290400, Pitch_bend_c, 5, 8320
4, 290400, Pitch_bend_c, 5, 8192
4, 290400, Note_off_c, 5, 52, 95
4, 290400, Note_on_c, 4, 43, 95
4, 290880, Note_off_c, 4, 43, 95
4, 290880, Note_on_c, 4, 50, 95
4, 291360, Note_off_c, 4, 50, 95
4, 291360, Note_on_c, 4, 41, 95
4, 292320, Note_off_c, 4, 41, 95
4, 292320, Note_on_c, 4, 48, 95
4, 292800, Note_off_c, 4, 48, 95
4, 292800, Note_on_c, 5, 53, 95
4, 292960, Pitch_bend_c, 5, 8192
4, 293120, Pitch_bend_c, 5, 8320
4, 293280, Pitch_bend_c, 5, 8192
4, 293440, Pitch_bend_c, 5, 8320
4, 293600, Pitch_bend_c, 5, 8192
4, 293760, Pitch_bend_c, 5, 8320
4, 293920, Pitch_bend_c, 5, 8192
4, 294080, Pitch_bend_c, 5, 8320
4, 294240, Pitch_bend_c, 5, 8192
4, 294240, Pitch_bend_c, 5, 8320
4, 294240, Pitch_bend_c, 5, 8192
4, 294240, Note_off_c, 5, 53, 95
4, 294240, Note_on_c, 4, 40, 95
4, 294720, Note_off_c, 4, 40, 95
4, 294720, Note_on_c, 4, 43, 95
4, 295200, Note_off_c, 4, 43, 95
4, 295200, Note_on_c, 4, 47, 95
4, 295680, Note_off_c, 4, 47, 95
4, 295680, Note_on_c, 4, 57, 95
4, 295680, Note_on_c, 4, 52, 95
4, 295680, Note_on_c, 4, 45, 95
4, 297120, Note_off_c, 4, 57, 95
4, 297120, Note_off_c, 4, 52, 95
4, 297120, Note_off_c, 4, 45, 95
4, 297120, Note_on_c, 4, 59, 95
4, 297600, Note_off_c, 4, 59, 95
4, 298080, Note_on_c, 4, 60, 95
4, 298560, Note_off_c, 4, 60, 95
4, 299040, Note_on_c, 4, 41, 95
4, 300000, Note_off_c, 4, 41, 95
4, 300000, Note_on_c, 4, 48, 95
4, 300480, Note_off_c, 4, 48, 95
4, 300480, Note_on_c, 5, 53, 95
4, 300640, Pitch_bend_c, 5, 8192
4, 300800, Pitch_bend_c, 5, 8320
4, 300960, Pitch_bend_c, 5, 8192
4, 301120, Pitch_bend_c, 5, 8320
4, 301280, Pitch_bend_c, 5, 8192
4, 301440, Pitch_bend_c, 5, 8320
4, 301600, Pitch_bend_c, 5, 8192
4, 301760, Pitch_bend_c, 5, 8320
4, 301920, Pitch_bend_c, 5, 8192
4, 301920, Pitch_bend_c, 5, 8320
4, 301920, Pitch_bend_c, 5, 8192
4, 301920, Note_off_c, 5, 53, 95
4, 301920, Note_on_c, 4, 43, 95
4, 302400, Note_off_c, 4, 43, 95
4, 302400, Note_on_c, 4, 50, 95
4, 303840, Note_off_c, 4, 50, 95
4, 303840, Note_on_c, 4, 45, 95
4, 304320, Note_off_c, 4, 45, 95
4, 304320, Note_on_c, 5, 52, 95
4, 304480, Pitch_bend_c, 5, 8192
4, 304640, Pitch_bend_c, 5, 8320
4, 304800, Pitch_bend_c, 5, 8192
4, 304960, Pitch_bend_c, 5, 8320
4, 305120, Pitch_bend_c, 5, 8192
4, 305280, Pitch_bend_c, 5, 8320
4, 305440, Pitch_bend_c, 5, 8192
4, 305600, Pitch_bend_c, 5, 8320
4, 305760, Pitch_bend_c, 5, 8192
4, 305760, Pitch_bend_c, 5, 8320
4, 305760, Pitch_bend_c, 5, 8192
4, 305760, Note_off_c, 5, 52, 95
4, 305760, Note_on_c, 4, 47, 95
4, 306240, Note_off_c, 4, 47, 95
4, 306240, Note_on_c, 5, 55, 95
4, 306400, Pitch_bend_c, 5, 8192
4, 306560, Pitch_bend_c, 5, 8320
4, 306720, Pitch_bend_c, 5, 8192
4, 306880, Pitch_bend_c, 5, 8320
4, 307040, Pitch_bend_c, 5, 8192
4, 307200, Pitch_bend_c, 5, 8320
4, 307200, Pitch_bend_c, 5, 8192
4, 307200, Note_off_c, 5, 55, 95
4, 309600, Note_on_c, 4, 48, 95
4, 310080, Note_off_c, 4, 48, 95
4, 310080, Note_on_c, 4, 52, 95
4, 310560, Note_off_c, 4, 52, 95
4, 310560, Note_on_c, 5, 55, 95
4, 310720, Pitch_bend_c, 5, 8192
4, 310880, Pitch_bend_c, 5, 8320
4, 311040, Pitch_bend_c, 5, 8192
4, 311200, Pitch_bend_c, 5, 8320
4, 311360, Pitch_bend_c, 5, 8192
4, 311520, Pitch_bend_c, 5, 8320
4, 311680, Pitch_bend_c, 5, 8192
4, 311840, Pitch_bend_c, 5, 8320
4, 312000, Pitch_bend_c, 5, 8192
4, 312160, Pitch_bend_c, 5, 8320
4, 312320, Pitch_bend_c, 5, 8192
4, 312480, Pitch_bend_c, 5, 8320
4, 312640, Pitch_bend_c, 5, 8192
4, 312800, Pitch_bend_c, 5, 8320
4, 312960, Pitch_bend_c, 5, 8192
4, 312960, Pitch_bend_c, 5, 8320
4, 312960, Pitch_bend_c, 5, 8192
4, 312960, Note_off_c, 5, 55, 95
4, 313440, Note_on_c, 5, 57, 95
4, 313600, Pitch_bend_c, 5, 8192
4, 313760, Pitch_bend_c, 5, 8320
4, 313920, Pitch_bend_c, 5, 8192
4, 314080, Pitch_bend_c, 5, 8320
4, 314240, Pitch_bend_c, 5, 8192
4, 314400, Pitch_bend_c, 5, 8320
4, 314560, Pitch_bend_c, 5, 8192
4, 314720, Pitch_bend_c, 5, 8320
4, 314880, Pitch_bend_c, 5, 8192
4, 314880, Pitch_bend_c, 5, 8320
4, 314880, Pitch_bend_c, 5, 8192
4, 314880, Note_off_c, 5, 57, 95
4, 315360, Note_on_c, 5, 53, 95
4, 315520, Pitch_bend_c, 5, 8192
4, 315680, Pitch_bend_c, 5, 8320
4, 315840, Pitch_bend_c, 5, 8192
4, 316000, Pitch_bend_c, 5, 8320
4, 316160, Pitch_bend_c, 5, 8192
4, 316320, Pitch_bend_c, 5, 8320
4, 316480, Pitch_bend_c, 5, 8192
4, 316640, Pitch_bend_c, 5, 8320
4, 316800, Pitch_bend_c, 5, 8192
4, 316800, Pitch_bend_c, 5, 8320
4, 316800, Pitch_bend_c, 5, 8192
4, 316800, Note_off_c, 5, 53, 95
4, 317280, Note_on_c, 5, 55, 95
4, 317440, Pitch_bend_c, 5, 8192
4, 317600, Pitch_bend_c, 5, 8320
4, 317760, Pitch_bend_c, 5, 8192
4, 317920, Pitch_bend_c, 5, 8320
4, 318080, Pitch_bend_c, 5, 8192
4, 318240, Pitch_bend_c, 5, 8320
4, 318400, Pitch_bend_c, 5, 8192
4, 318560, Pitch_bend_c, 5, 8320
4, 318720, Pitch_bend_c, 5, 8192
4, 318720, Pitch_bend_c, 5, 8320
4, 318720, Pitch_bend_c, 5, 8192
4, 318720, Note_off_c, 5, 55, 95
4, 319200, Note_on_c, 5, 52, 95
4, 319360, Pitch_bend_c, 5, 8192
4, 319520, Pitch_bend_c, 5, 8320
4, 319680, Pitch_bend_c, 5, 8192
4, 319840, Pitch_bend_c, 5, 8320
4, 320000, Pitch_bend_c, 5, 8192
4, 320160, Pitch_bend_c, 5, 8320
4, 320320, Pitch_bend_c, 5, 8192
4, 320480, Pitch_bend_c, 5, 8320
4, 320640, Pitch_bend_c, 5, 8192
4, 320640, Pitch_bend_c, 5, 8320
4, 320640, Pitch_bend_c, 5, 8192
4, 320640, Note_off_c, 5, 52, 95
4, 321120, Note_on_c, 5, 53, 95
4, 321280, Pitch_bend_c, 5, 8192
4, 321440, Pitch_bend_c, 5, 8320
4, 321600, Pitch_bend_c, 5, 8192
4, 321760, Pitch_bend_c, 5, 8320
4, 321920, Pitch_bend_c, 5, 8192
4, 322080, Pitch_bend_c, 5, 8320
4, 322240, Pitch_bend_c, 5, 8192
4, 322400, Pitch_bend_c, 5, 8320
4, 322560, Pitch_bend_c, 5, 8192
4, 322560, Pitch_bend_c, 5, 8320
4, 322560, Pitch_bend_c, 5, 8192
4, 322560, Note_off_c, 5, 53, 95
4, 323040, Note_on_c, 5, 50, 95
4, 323200, Pitch_bend_c, 5, 8192
4, 323360, Pitch_bend_c, 5, 8320
4, 323520, Pitch_bend_c, 5, 8192
4, 323680, Pitch_bend_c, 5, 8320
4, 323840, Pitch_bend_c, 5, 8192
4, 324000, Pitch_bend_c, 5, 8320
4, 324160, Pitch_bend_c, 5, 8192
4, 324320, Pitch_bend_c, 5, 8320
4, 324480, Pitch_bend_c, 5, 8192
4, 324480, Pitch_bend_c, 5, 8320
4, 324480, Pitch_bend_c, 5, 8192
4, 324480, Note_off_c, 5, 50, 95
4, 324480, Note_on_c, 4, 41, 95
4, 324960, Note_off_c, 4, 41, 95
4, 324960, Note_on_c, 4, 48, 79
4, 325440, Note_off_c, 4, 48, 79
4, 325440, Note_on_c, 4, 53, 95
4, 327360, Note_off_c, 4, 53, 95
4, 327360, Note_on_c, 4, 48, 95
4, 327840, Note_off_c, 4, 48, 95
4, 327840, Note_on_c, 4, 52, 95
4, 329280, Note_off_c, 4, 52, 95
4, 329280, Note_on_c, 4, 50, 95
4, 329760, Note_off_c, 4, 50, 95
4, 329760, Note_on_c, 4, 53, 95
4, 330240, Note_off_c, 4, 53, 95
4, 330240, Note_on_c, 4, 58, 95
4, 332160, Note_off_c, 4, 58, 95
4, 332160, Note_on_c, 4, 48, 95
4, 332640, Note_off_c, 4, 48, 95
4, 332640, Note_on_c, 4, 55, 95
4, 333120, Note_off_c, 4, 55, 95
4, 333120, Note_on_c, 4, 60, 95
4, 335040, Note_off_c, 4, 60, 95
4, 335040, Note_on_c, 4, 55, 95
4, 335040, Note_on_c, 4, 50, 95
4, 336960, Note_off_c, 4, 55, 95
4, 336960, Note_off_c, 4, 50, 95
4, 336960, Pitch_bend_c, 5, 8192
4, 336960, Note_on_c, 5, 71, 95
4, 337003, Pitch_bend_c, 5, 8320
4, 337046, Pitch_bend_c, 5, 8448
4, 337089, Pitch_bend_c, 5, 8576
4, 337132, Pitch_bend_c, 5, 8704
4, 337175, Pitch_bend_c, 5, 8832
4, 337218, Pitch_bend_c, 5, 8960
4, 337261, Pitch_bend_c, 5, 9088
4, 337304, Pitch_bend_c, 5, 9216
4, 337347, Pitch_bend_c, 5, 9344
4, 337390, Pitch_bend_c, 5, 9472
4, 337433, Pitch_bend_c, 5, 9600
4, 337440, Pitch_bend_c, 5, 9600
4, 337920, Pitch_bend_c, 5, 9600
4, 337963, Pitch_bend_c, 5, 9472
4, 338006, Pitch_bend_c, 5, 9344
4, 338049, Pitch_bend_c, 5, 9216
4, 338092, Pitch_bend_c, 5, 9088
4, 338135, Pitch_bend_c, 5, 8960
4, 338178, Pitch_bend_c, 5, 8832
4, 338221, Pitch_bend_c, 5, 8704
4, 338264, Pitch_bend_c, 5, 8576
4, 338307, Pitch_bend_c, 5, 8448
4, 338350, Pitch_bend_c, 5, 8320
4, 338393, Pitch_bend_c, 5, 8192
4, 338400, Pitch_bend_c, 5, 8192
4, 338880, Pitch_bend_c, 5, 8192
4, 338880, Pitch_bend_c, 5, 8192
4, 338880, Note_off_c, 5, 71, 95
4, 340320, Note_on_c, 4, 69, 95
4, 340800, Note_off_c, 4, 69, 95
4, 343680, Note_on_c, 4, 67, 95
4, 344160, Note_off_c, 4, 67, 95
4, 344160, Note_on_c, 4, 69, 95
4, 344640, Note_on_c, 4, 64, 95
4, 347520, Note_off_c, 4, 64, 95
4, 347520, Note_on_c, 4, 64, 95
4, 348000, Note_off_c, 4, 64, 95
4, 348000, Note_on_c, 5, 64, 95
4, 348160, Pitch_bend_c, 5, 8192
4, 348320, Pitch_bend_c, 5, 8320
4, 348480, Pitch_bend_c, 5, 8192
4, 348640, Pitch_bend_c, 5, 8320
4, 348800, Pitch_bend_c, 5, 8192
4, 348960, Pitch_bend_c, 5, 8320
4, 349120, Pitch_bend_c, 5, 8192
4, 349280, Pitch_bend_c, 5, 8320
4, 349440, Pitch_bend_c, 5, 8192
4, 349600, Pitch_bend_c, 5, 8320
4, 349760, Pitch_bend_c, 5, 8192
4, 349920, Pitch_bend_c, 5, 8320
4, 350080, Pitch_bend_c, 5, 8192
4, 350240, Pitch_bend_c, 5, 8320
4, 350400, Note_off_c, 4, 69, 95
4, 350400, Pitch_bend_c, 5, 8192
4, 350560, Pitch_bend_c, 5, 8320
4, 350720, Pitch_bend_c, 5, 8192
4, 350880, Pitch_bend_c, 5, 8320
4, 351040, Pitch_bend_c, 5, 8192
4, 351200, Pitch_bend_c, 5, 8320
4, 351360, Pitch_bend_c, 5, 8192
4, 351360, Pitch_bend_c, 5, 8320
4, 351360, Pitch_bend_c, 5, 8192
4, 351360, Note_off_c, 5, 64, 95
4, 351360, Note_on_c, 4, 62, 95
4, 351840, Note_off_c, 4, 62, 95
4, 351840, Note_on_c, 4, 64, 95
4, 352320, Note_off_c, 4, 64, 95
4, 352320, Note_on_c, 4, 64, 95
4, 353760, Note_off_c, 4, 64, 95
4, 353760, Note_on_c, 4, 62, 95
4, 355200, Note_off_c, 4, 62, 95
4, 355200, Note_on_c, 4, 61, 95
4, 356160, Note_off_c, 4, 61, 95
4, 356160, Note_on_c, 4, 61, 95
4, 357600, Note_off_c, 4, 61, 95
4, 357600, Note_on_c, 4, 62, 95
4, 359040, Note_off_c, 4, 62, 95
4, 359040, Note_on_c, 4, 64, 95
4, 360000, Note_off_c, 4, 64, 95
4, 360000, Note_on_c, 5, 64, 79
4, 360160, Pitch_bend_c, 5, 8192
4, 360320, Pitch_bend_c, 5, 8320
4, 360480, Pitch_bend_c, 5, 8192
4, 360640, Pitch_bend_c, 5, 8320
4, 360800, Pitch_bend_c, 5, 8192
4, 360960, Pitch_bend_c, 5, 8320
4, 361120, Pitch_bend_c, 5, 8192
4, 361280, Pitch_bend_c, 5, 8320
4, 361440, Pitch_bend_c, 5, 8192
4, 361600, Pitch_bend_c, 5, 8320
4, 361760, Pitch_bend_c, 5, 8192
4, 361920, Pitch_bend_c, 5, 8320
4, 362080, Pitch_bend_c, 5, 8192
4, 362240, Pitch_bend_c, 5, 8320
4, 362400, Pitch_bend_c, 5, 8192
4, 362560, Pitch_bend_c, 5, 8320
4, 362720, Pitch_bend_c, 5, 8192
4, 362880, Pitch_bend_c, 5, 8320
4, 363040, Pitch_bend_c, 5, 8192
4, 363200, Pitch_bend_c, 5, 8320
4, 363360, Pitch_bend_c, 5, 8192
4, 363520, Pitch_bend_c, 5, 8320
4, 363680, Pitch_bend_c, 5, 8192
4, 363840, Pitch_bend_c, 5, 8320
4, 364000, Pitch_bend_c, 5, 8192
4, 364160, Pitch_bend_c, 5, 8320
4, 364320, Pitch_bend_c, 5, 8192
4, 364480, Pitch_bend_c, 5, 8320
4, 364640, Pitch_bend_c, 5, 8192
4, 364800, Pitch_bend_c, 5, 8320
4, 364800, Pitch_bend_c, 5, 8192
4, 364800, Note_off_c, 5, 64, 79
4, 364800, Note_on_c, 4, 43, 95
4, 364920, Note_off_c, 4, 43, 95
4, 364920, Note_on_c, 4, 45, 95
4, 365040, Note_off_c, 4, 45, 95
4, 365040, Note_on_c, 4, 46, 95
4, 365160, Note_off_c, 4, 46, 95
4, 365160, Note_on_c, 4, 48, 95
4, 365280, Note_off_c, 4, 48, 95
4, 365280, Note_on_c, 4, 50, 95
4, 365400, Note_off_c, 4, 50, 95
4, 365400, Note_on_c, 4, 52, 95
4, 365520, Note_off_c, 4, 52, 95
4, 365520, Note_on_c, 4, 50, 95
4, 365640, Note_off_c, 4, 50, 95
4, 365640, Note_on_c, 4, 52, 95
4, 365760, Note_off_c, 4, 52, 95
4, 365760, Note_on_c, 4, 53, 95
4, 365880, Note_off_c, 4, 53, 95
4, 365880, Note_on_c, 4, 52, 95
4, 366000, Note_off_c, 4, 52, 95
4, 366000, Note_on_c, 4, 55, 95
4, 366120, Note_off_c, 4, 55, 95
4, 366120, Note_on_c, 4, 57, 95
4, 366240, Note_off_c, 4, 57, 95
4, 366240, Note_on_c, 4, 55, 95
4, 366360, Note_off_c, 4, 55, 95
4, 366360, Note_on_c, 4, 53, 95
4, 366480, Note_off_c, 4, 53, 95
4, 366480, Note_on_c, 4, 52, 95
4, 366600, Note_off_c, 4, 52, 95
4, 366600, Note_on_c, 4, 50, 95
4, 366720, Note_off_c, 4, 50, 95
4, 366720, Note_on_c, 4, 49, 95
4, 366840, Note_off_c, 4, 49, 95
4, 366840, Note_on_c, 4, 52, 95
4, 366960, Note_off_c, 4, 52, 95
4, 366960, Note_on_c, 4, 50, 95
4, 367080, Note_off_c, 4, 50, 95
4, 367080, Note_on_c, 4, 52, 95
4, 367200, Note_off_c, 4, 52, 95
4, 367200, Note_on_c, 4, 46, 95
4, 367320, Note_off_c, 4, 46, 95
4, 367320, Note_on_c, 4, 45, 95
4, 367440, Note_off_c, 4, 45, 95
4, 367440, Note_on_c, 4, 43, 95
4, 367560, Note_off_c, 4, 43, 95
4, 367560, Note_on_c, 4, 41, 95
4, 367680, Note_off_c, 4, 41, 95
4, 367680, Note_on_c, 4, 43, 95
4, 368160, Note_off_c, 4, 43, 95
4, 368160, Note_on_c, 4, 45, 95
4, 368640, Note_off_c, 4, 45, 95
4, 368640, Note_on_c, 4, 46, 95
4, 369120, Note_off_c, 4, 46, 95
4, 369120, Note_on_c, 4, 50, 95
4, 369600, Note_off_c, 4, 50, 95
4, 369600, Note_on_c, 4, 49, 95
4, 370080, Note_off_c, 4, 49, 95
4, 370080, Note_on_c, 4, 45, 95
4, 370560, Note_off_c, 4, 45, 95
4, 372000, Note_on_c, 4, 43, 95
4, 372480, Note_off_c, 4, 43, 95
4, 372480, Note_on_c, 4, 45, 95
4, 372960, Note_off_c, 4, 45, 95
4, 372960, Note_on_c, 4, 46, 95
4, 373440, Note_off_c, 4, 46, 95
4, 373440, Note_on_c, 4, 50, 95
4, 373920, Note_off_c, 4, 50, 95
4, 373920, Note_on_c, 4, 49, 95
4, 374400, Note_off_c, 4, 49, 95
4, 374400, Note_on_c, 4, 53, 95
4, 374880, Note_off_c, 4, 53, 95
4, 374880, Note_on_c, 5, 52, 95
4, 375040, Pitch_bend_c, 5, 8192
4, 375200, Pitch_bend_c, 5, 8320
4, 375360, Pitch_bend_c, 5, 8192
4, 375520, Pitch_bend_c, 5, 8320
4, 375680, Pitch_bend_c, 5, 8192
4, 375840, Pitch_bend_c, 5, 8320
4, 375840, Pitch_bend_c, 5, 8192
4, 375840, Note_off_c, 5, 52, 95
4, 375840, Note_on_c, 4, 43, 95
4, 376320, Note_off_c, 4, 43, 95
4, 376320, Note_on_c, 4, 46, 95
4, 376800, Note_off_c, 4, 46, 95
4, 376800, Note_on_c, 4, 50, 95
4, 377280, Note_off_c, 4, 50, 95
4, 377280, Note_on_c, 4, 49, 95
4, 377760, Note_off_c, 4, 49, 95
4, 377760, Note_on_c, 4, 45, 95
4, 378240, Note_off_c, 4, 45, 95
4, 378720, Note_on_c, 4, 45, 95
4, 379200, Note_off_c, 4, 45, 95
4, 379200, Note_on_c, 4, 46, 95
4, 379680, Note_off_c, 4, 46, 95
4, 379680, Note_on_c, 4, 43, 95
4, 380160, Note_off_c, 4, 43, 95
4, 380640, Note_on_c, 4, 41, 95
4, 381120, Note_off_c, 4, 41, 95
4, 381120, Note_on_c, 4, 43, 95
4, 381600, Note_off_c, 4, 43, 95
4, 381600, Note_on_c, 4, 40, 95
4, 382080, Note_off_c, 4, 40, 95
4, 383040, Note_on_c, 4, 43, 95
4, 383520, Note_off_c, 4, 43, 95
4, 383520, Note_on_c, 4, 45, 95
4, 384000, Note_off_c, 4, 45, 95
4, 384000, Note_on_c, 4, 46, 95
4, 384480, Note_off_c, 4, 46, 95
4, 384480, Note_on_c, 4, 50, 95
4, 384960, Note_off_c, 4, 50, 95
4, 384960, Note_on_c, 4, 49, 95
4, 385440, Note_off_c, 4, 49, 95
4, 385440, Note_on_c, 4, 45, 95
4, 385920, Note_off_c, 4, 45, 95
4, 385920, Note_on_c, 4, 59, 95
4, 385920, Note_on_c, 4, 55, 95
4, 385920, Note_on_c, 4, 50, 95
4, 385920, Note_on_c, 4, 45, 95
4, 385984, Note_off_c, 4, 59, 95
4, 385984, Note_off_c, 4, 55, 95
4, 385984, Note_off_c, 4, 50, 95
4, 385984, Note_off_c, 4, 45, 95
4, 386400, Note_on_c, 4, 59, 95
4, 386400, Note_on_c, 4, 55, 95
4, 386400, Note_on_c, 4, 50, 95
4, 386400, Note_on_c, 4, 45, 95
4, 386464, Note_off_c, 4, 59, 95
4, 386464, Note_off_c, 4, 55, 95
4, 386464, Note_off_c, 4, 50, 95
4, 386464, Note_off_c, 4, 45, 95
4, 386880, Note_on_c, 4, 59, 95
4, 386880, Note_on_c, 4, 55, 95
4, 386880, Note_on_c, 4, 50, 95
4, 386880, Note_on_c, 4, 45, 95
4, 386944, Note_off_c, 4, 59, 95
4, 386944, Note_off_c, 4, 55, 95
4, 386944, Note_off_c, 4, 50, 95
4, 386944, Note_off_c, 4, 45, 95
4, 387360, Note_on_c, 4, 43, 95
4, 387840, Note_off_c, 4, 43, 95
4, 387840, Note_on_c, 4, 45, 95
4, 388320, Note_off_c, 4, 45, 95
4, 388320, Note_on_c, 4, 46, 95
4, 388800, Note_off_c, 4, 46, 95
4, 388800, Note_on_c, 4, 50, 95
4, 389280, Note_off_c, 4, 50, 95
4, 389280, Note_on_c, 4, 49, 95
4, 389760, Note_off_c, 4, 49, 95
4, 389760, Note_on_c, 4, 53, 95
4, 390240, Note_off_c, 4, 53, 95
4, 390240, Note_on_c, 5, 52, 95
4, 390400, Pitch_bend_c, 5, 8192
4, 390560, Pitch_bend_c, 5, 8320
4, 390720, Pitch_bend_c, 5, 8192
4, 390880, Pitch_bend_c, 5, 8320
4, 391040, Pitch_bend_c, 5, 8192
4, 391200, Pitch_bend_c, 5, 8320
4, 391200, Pitch_bend_c, 5, 8192
4, 391200, Note_off_c, 5, 52, 95
4, 391200, Note_on_c, 4, 43, 95
4, 391680, Note_off_c, 4, 43, 95
4, 391680, Note_on_c, 4, 45, 95
4, 392160, Note_off_c, 4, 45, 95
4, 392160, Note_on_c, 4, 46, 95
4, 392640, Note_off_c, 4, 46, 95
4, 392640, Note_on_c, 4, 50, 95
4, 393120, Note_off_c, 4, 50, 95
4, 393120, Note_on_c, 4, 49, 95
4, 393600, Note_off_c, 4, 49, 95
4, 393600, Note_on_c, 4, 46, 95
4, 394080, Note_off_c, 4, 46, 95
4, 394080, Note_on_c, 4, 45, 95
4, 394560, Note_off_c, 4, 45, 95
4, 394560, Note_on_c, 4, 53, 95
4, 394560, Note_on_c, 4, 46, 95
4, 395040, Note_off_c, 4, 53, 95
4, 395040, Note_off_c, 4, 46, 95
4, 395040, Note_on_c, 4, 52, 95
4, 395040, Note_on_c, 4, 45, 95
4, 395520, Note_off_c, 4, 52, 95
4, 395520, Note_off_c, 4, 45, 95
4, 395520, Note_on_c, 4, 45, 95
4, 395648, Note_off_c, 4, 45, 95
4, 396000, Note_on_c, 4, 48, 95
4, 396000, Note_on_c, 4, 41, 95
4, 396480, Note_off_c, 4, 48, 95
4, 396480, Note_off_c, 4, 41, 95
4, 396480, Note_on_c, 4, 47, 95
4, 396480, Note_on_c, 4, 40, 95
4, 396960, Note_off_c, 4, 47, 95
4, 396960, Note_off_c, 4, 40, 95
4, 396960, Note_on_c, 4, 45, 95
4, 397088, Note_off_c, 4, 45, 95
4, 397440, Note_on_c, 4, 52, 95
4, 397440, Note_on_c, 4, 45, 95
4, 397920, Note_off_c, 4, 52, 95
4, 397920, Note_off_c, 4, 45, 95
4, 397920, Note_on_c, 4, 53, 95
4, 397920, Note_on_c, 4, 46, 95
4, 398400, Note_off_c, 4, 53, 95
4, 398400, Note_off_c, 4, 46, 95
4, 475200, Note_on_c, 4, 43, 95
4, 475680, Note_off_c, 4, 43, 95
4, 475680, Note_on_c, 4, 45, 95
4, 476160, Note_off_c, 4, 45, 95
4, 476160, Note_on_c, 4, 46, 95
4, 476640, Note_off_c, 4, 46, 95
4, 476640, Note_on_c, 4, 50, 95
4, 477120, Note_off_c, 4, 50, 95
4, 477120, Note_on_c, 4, 49, 95
4, 477600, Note_off_c, 4, 49, 95
4, 477600, Note_on_c, 4, 45, 95
4, 478080, Note_off_c, 4, 45, 95
4, 479040, Note_on_c, 4, 59, 95
4, 479040, Note_on_c, 4, 55, 95
4, 479040, Note_on_c, 4, 50, 95
4, 479040, Note_on_c, 4, 45, 95
4, 479104, Note_off_c, 4, 59, 95
4, 479104, Note_off_c, 4, 55, 95
4, 479104, Note_off_c, 4, 50, 95
4, 479104, Note_off_c, 4, 45, 95
4, 479520, Note_on_c, 4, 43, 95
4, 480000, Note_off_c, 4, 43, 95
4, 480000, Note_on_c, 4, 45, 95
4, 480480, Note_off_c, 4, 45, 95
4, 480480, Note_on_c, 4, 46, 95
4, 480960, Note_off_c, 4, 46, 95
4, 480960, Note_on_c, 4, 50, 95
4, 481440, Note_off_c, 4, 50, 95
4, 481440, Note_on_c, 4, 49, 95
4, 481920, Note_off_c, 4, 49, 95
4, 481920, Note_on_c, 4, 53, 95
4, 482400, Note_off_c, 4, 53, 95
4, 482400, Note_on_c, 5, 52, 95
4, 482560, Pitch_bend_c, 5, 8192
4, 482720, Pitch_bend_c, 5, 8320
4, 482880, Pitch_bend_c, 5, 8192
4, 483040, Pitch_bend_c, 5, 8320
4, 483200, Pitch_bend_c, 5, 8192
4, 483360, Pitch_bend_c, 5, 8320
4, 483360, Pitch_bend_c, 5, 8192
4, 483360, Note_off_c, 5, 52, 95
4, 483360, Note_on_c, 4, 43, 95
4, 483840, Note_off_c, 4, 43, 95
4, 483840, Note_on_c, 4, 46, 95
4, 484320, Note_off_c, 4, 46, 95
4, 484320, Note_on_c, 4, 50, 95
4, 484800, Note_off_c, 4, 50, 95
4, 484800, Note_on_c, 4, 49, 95
4, 485280, Note_off_c, 4, 49, 95
4, 485280, Note_on_c, 4, 45, 95
4, 485760, Note_off_c, 4, 45, 95
4, 486240, Note_on_c, 4, 45, 95
4, 486480, Note_off_c, 4, 45, 95
4, 486480, Note_on_c, 4, 45, 95
4, 486720, Note_off_c, 4, 45, 95
4, 486720, Note_on_c, 4, 46, 95
4, 487200, Note_off_c, 4, 46, 95
4, 487200, Note_on_c, 4, 43, 95
4, 487680, Note_off_c, 4, 43, 95
4, 488160, Note_on_c, 4, 41, 95
4, 488400, Note_off_c, 4, 41, 95
4, 488400, Note_on_c, 4, 41, 95
4, 488640, Note_off_c, 4, 41, 95
4, 488640, Note_on_c, 4, 43, 95
4, 489120, Note_off_c, 4, 43, 95
4, 489120, Note_on_c, 4, 40, 95
4, 489600, Note_off_c, 4, 40, 95
4, 490080, Note_on_c, 4, 47, 95
4, 490080, Note_on_c, 4, 40, 95
4, 490560, Note_off_c, 4, 47, 95
4, 490560, Note_off_c, 4, 40, 95
4, 490560, Note_on_c, 4, 41, 95
4, 491040, Note_off_c, 4, 41, 95
4, 491040, Note_on_c, 4, 48, 95
4, 491520, Note_off_c, 4, 48, 95
4, 491520, Note_on_c, 5, 53, 95
4, 491680, Pitch_bend_c, 5, 8192
4, 491840, Pitch_bend_c, 5, 8320
4, 492000, Pitch_bend_c, 5, 8192
4, 492160, Pitch_bend_c, 5, 8320
4, 492320, Pitch_bend_c, 5, 8192
4, 492480, Pitch_bend_c, 5, 8320
4, 492640, Pitch_bend_c, 5, 8192
4, 492800, Pitch_bend_c, 5, 8320
4, 492960, Pitch_bend_c, 5, 8192
4, 492960, Pitch_bend_c, 5, 8320
4, 492960, Pitch_bend_c, 5, 8192
4, 492960, Note_off_c, 5, 53, 95
4, 492960, Note_on_c, 4, 43, 95
4, 493440, Note_off_c, 4, 43, 95
4, 493440, Note_on_c, 5, 50, 95
4, 493600, Pitch_bend_c, 5, 8192
4, 493760, Pitch_bend_c, 5, 8320
4, 493920, Pitch_bend_c, 5, 8192
4, 494080, Pitch_bend_c, 5, 8320
4, 494240, Pitch_bend_c, 5, 8192
4, 494400, Pitch_bend_c, 5, 8320
4, 494560, Pitch_bend_c, 5, 8192
4, 494720, Pitch_bend_c, 5, 8320
4, 494880, Pitch_bend_c, 5, 8192
4, 494880, Pitch_bend_c, 5, 8320
4, 494880, Pitch_bend_c, 5, 8192
4, 494880, Note_off_c, 5, 50, 95
4, 494880, Note_on_c, 4, 45, 95
4, 495360, Note_off_c, 4, 45, 95
4, 495360, Note_on_c, 5, 52, 95
4, 495520, Pitch_bend_c, 5, 8192
4, 495680, Pitch_bend_c, 5, 8320
4, 495840, Pitch_bend_c, 5, 8192
4, 496000, Pitch_bend_c, 5, 8320
4, 496160, Pitch_bend_c, 5, 8192
4, 496320, Pitch_bend_c, 5, 8320
4, 496480, Pitch_bend_c, 5, 8192
4, 496640, Pitch_bend_c, 5, 8320
4, 496800, Pitch_bend_c, 5, 8192
4, 496800, Pitch_bend_c, 5, 8320
4, 496800, Pitch_bend_c, 5, 8192
4, 496800, Note_off_c, 5, 52, 95
4, 496800, Note_on_c, 4, 43, 95
4, 497280, Note_off_c, 4, 43, 95
4, 497280, Note_on_c, 4, 50, 95
4, 497760, Note_off_c, 4, 50, 95
4, 497760, Note_on_c, 4, 41, 95
4, 498720, Note_off_c, 4, 41, 95
4, 498720, Note_on_c, 4, 48, 95
4, 499200, Note_off_c, 4, 48, 95
4, 499200, Note_on_c, 5, 53, 95
4, 499360, Pitch_bend_c, 5, 8192
4, 499520, Pitch_bend_c, 5, 8320
4, 499680, Pitch_bend_c, 5, 8192
4, 499840, Pitch_bend_c, 5, 8320
4, 500000, Pitch_bend_c, 5, 8192
4, 500160, Pitch_bend_c, 5, 8320
4, 500320, Pitch_bend_c, 5, 8192
4, 500480, Pitch_bend_c, 5, 8320
4, 500640, Pitch_bend_c, 5, 8192
4, 500640, Pitch_bend_c, 5, 8320
4, 500640, Pitch_bend_c, 5, 8192
4, 500640, Note_off_c, 5, 53, 95
4, 500640, Note_on_c, 4, 43, 31
4, 500640, Note_on_c, 4, 55, 95
4, 502080, Note_off_c, 4, 43, 31
4, 502080, Note_off_c, 4, 55, 95
4, 502080, Note_on_c, 4, 57, 95
4, 502080, Note_on_c, 4, 52, 95
4, 502080, Note_on_c, 4, 45, 95
4, 503040, Note_off_c, 4, 57, 95
4, 503040, Note_off_c, 4, 52, 95
4, 503520, Note_off_c, 4, 45, 95
4, 503520, Note_on_c, 4, 55, 95
4, 503520, Note_on_c, 4, 50, 95
4, 503520, Note_on_c, 4, 43, 95
4, 504480, Note_off_c, 4, 55, 95
4, 504480, Note_off_c, 4, 50, 95
4, 504480, Note_off_c, 4, 43, 95
4, 504480, Note_on_c, 4, 52, 95
4, 504480, Note_on_c, 4, 47, 95
4, 504480, Note_on_c, 4, 40, 95
4, 505440, Note_off_c, 4, 52, 95
4, 505440, Note_off_c, 4, 47, 95
4, 505440, Note_off_c, 4, 40, 95
4, 505440, Note_on_c, 4, 53, 95
4, 505440, Note_on_c, 4, 48, 95
4, 505440, Note_on_c, 4, 41, 95
4, 506400, Note_off_c, 4, 53, 95
4, 506400, Note_off_c, 4, 48, 95
4, 506400, Note_off_c, 4, 41, 95
4, 506400, Note_on_c, 4, 48, 95
4, 506880, Note_off_c, 4, 48, 95
4, 506880, Note_on_c, 5, 53, 95
4, 507040, Pitch_bend_c, 5, 8192
4, 507200, Pitch_bend_c, 5, 8320
4, 507360, Pitch_bend_c, 5, 8192
4, 507520, Pitch_bend_c, 5, 8320
4, 507680, Pitch_bend_c, 5, 8192
4, 507840, Pitch_bend_c, 5, 8320
4, 508000, Pitch_bend_c, 5, 8192
4, 508160, Pitch_bend_c, 5, 8320
4, 508320, Pitch_bend_c, 5, 8192
4, 508320, Pitch_bend_c, 5, 8320
4, 508320, Pitch_bend_c, 5, 8192
4, 508320, Note_off_c, 5, 53, 95
4, 508320, Note_on_c, 4, 43, 95
4, 508800, Note_off_c, 4, 43, 95
4, 508800, Note_on_c, 5, 50, 95
4, 508960, Pitch_bend_c, 5, 8192
4, 509120, Pitch_bend_c, 5, 8320
4, 509280, Pitch_bend_c, 5, 8192
4, 509440, Pitch_bend_c, 5, 8320
4, 509600, Pitch_bend_c, 5, 8192
4, 509760, Pitch_bend_c, 5, 8320
4, 509920, Pitch_bend_c, 5, 8192
4, 510080, Pitch_bend_c, 5, 8320
4, 510240, Pitch_bend_c, 5, 8192
4, 510240, Pitch_bend_c, 5, 8320
4, 510240, Pitch_bend_c, 5, 8192
4, 510240, Note_off_c, 5, 50, 95
4, 510240, Note_on_c, 4, 45, 95
4, 510720, Note_off_c, 4, 45, 95
4, 510720, Note_on_c, 5, 52, 95
4, 510880, Pitch_bend_c, 5, 8192
4, 511040, Pitch_bend_c, 5, 8320
4, 511200, Pitch_bend_c, 5, 8192
4, 511360, Pitch_bend_c, 5, 8320
4, 511520, Pitch_bend_c, 5, 8192
4, 511680, Pitch_bend_c, 5, 8320
4, 511840, Pitch_bend_c, 5, 8192
4, 512000, Pitch_bend_c, 5, 8320
4, 512160, Pitch_bend_c, 5, 8192
4, 512160, Pitch_bend_c, 5, 8320
4, 512160, Pitch_bend_c, 5, 8192
4, 512160, Note_off_c, 5, 52, 95
4, 512160, Note_on_c, 4, 43, 95
4, 512640, Note_off_c, 4, 43, 95
4, 512640, Note_on_c, 4, 50, 95
4, 513120, Note_off_c, 4, 50, 95
4, 513120, Note_on_c, 4, 41, 95
4, 514080, Note_off_c, 4, 41, 95
4, 514080, Note_on_c, 4, 48, 95
4, 514560, Note_off_c, 4, 48, 95
4, 514560, Note_on_c, 5, 53, 95
4, 514720, Pitch_bend_c, 5, 8192
4, 514880, Pitch_bend_c, 5, 8320
4, 515040, Pitch_bend_c, 5, 8192
4, 515200, Pitch_bend_c, 5, 8320
4, 515360, Pitch_bend_c, 5, 8192
4, 515520, Pitch_bend_c, 5, 8320
4, 515680, Pitch_bend_c, 5, 8192
4, 515840, Pitch_bend_c, 5, 8320
4, 516000, Pitch_bend_c, 5, 8192
4, 516000, Pitch_bend_c, 5, 8320
4, 516000, Pitch_bend_c, 5, 8192
4, 516000, Note_off_c, 5, 53, 95
4, 516000, Note_on_c, 4, 40, 95
4, 516480, Note_off_c, 4, 40, 95
4, 516480, Note_on_c, 4, 43, 95
4, 516960, Note_off_c, 4, 43, 95
4, 516960, Note_on_c, 4, 47, 95
4, 517440, Note_off_c, 4, 47, 95
4, 517440, Note_on_c, 4, 57, 95
4, 517440, Note_on_c, 4, 52, 95
4, 517440, Note_on_c, 4, 45, 95
4, 518880, Note_off_c, 4, 57, 95
4, 518880, Note_off_c, 4, 52, 95
4, 518880, Note_off_c, 4, 45, 95
4, 518880, Note_on_c, 4, 59, 95
4, 519360, Note_off_c, 4, 59, 95
4, 519840, Note_on_c, 4, 60, 95
4, 520320, Note_off_c, 4, 60, 95
4, 520800, Note_on_c, 4, 41, 95
4, 521760, Note_off_c, 4, 41, 95
4, 521760, Note_on_c, 4, 48, 95
4, 522240, Note_off_c, 4, 48, 95
4, 522240, Note_on_c, 5, 53, 95
4, 522400, Pitch_bend_c, 5, 8192
4, 522560, Pitch_bend_c, 5, 8320
4, 522720, Pitch_bend_c, 5, 8192
4, 522880, Pitch_bend_c, 5, 8320
4, 523040, Pitch_bend_c, 5, 8192
4, 523200, Pitch_bend_c, 5, 8320
4, 523360, Pitch_bend_c, 5, 8192
4, 523520, Pitch_bend_c, 5, 8320
4, 523680, Pitch_bend_c, 5, 8192
4, 523680, Pitch_bend_c, 5, 8320
4, 523680, Pitch_bend_c, 5, 8192
4, 523680, Note_off_c, 5, 53, 95
4, 523680, Note_on_c, 4, 43, 95
4, 524160, Note_off_c, 4, 43, 95
4, 524160, Note_on_c, 4, 50, 95
4, 525600, Note_off_c, 4, 50, 95
4, 525600, Note_on_c, 4, 45, 95
4, 526080, Note_off_c, 4, 45, 95
4, 526080, Note_on_c, 5, 52, 95
4, 526240, Pitch_bend_c, 5, 8192
4, 526400, Pitch_bend_c, 5, 8320
4, 526560, Pitch_bend_c, 5, 8192
4, 526720, Pitch_bend_c, 5, 8320
4, 526880, Pitch_bend_c, 5, 8192
4, 527040, Pitch_bend_c, 5, 8320
4, 527200, Pitch_bend_c, 5, 8192
4, 527360, Pitch_bend_c, 5, 8320
4, 527520, Pitch_bend_c, 5, 8192
4, 527520, Pitch_bend_c, 5, 8320
4, 527520, Pitch_bend_c, 5, 8192
4, 527520, Note_off_c, 5, 52, 95
4, 527520, Note_on_c, 4, 47, 95
4, 528000, Note_off_c, 4, 47, 95
4, 528000, Note_on_c, 5, 55, 95
4, 528160, Pitch_bend_c, 5, 8192
4, 528320, Pitch_bend_c, 5, 8320
4, 528480, Pitch_bend_c, 5, 8192
4, 528640, Pitch_bend_c, 5, 8320
4, 528800, Pitch_bend_c, 5, 8192
4, 528960, Pitch_bend_c, 5, 8320
4, 528960, Pitch_bend_c, 5, 8192
4, 528960, Note_off_c, 5, 55, 95
4, 531360, Note_on_c, 4, 48, 95
4, 531840, Note_off_c, 4, 48, 95
4, 531840, Note_on_c, 4, 52, 95
4, 532320, Note_off_c, 4, 52, 95
4, 532320, Note_on_c, 5, 55, 95
4, 532480, Pitch_bend_c, 5, 8192
4, 532640, Pitch_bend_c, 5, 8320
4, 532800, Pitch_bend_c, 5, 8192
4, 532960, Pitch_bend_c, 5, 8320
4, 533120, Pitch_bend_c, 5, 8192
4, 533280, Pitch_bend_c, 5, 8320
4, 533440, Pitch_bend_c, 5, 8192
4, 533600, Pitch_bend_c, 5, 8320
4, 533760, Pitch_bend_c, 5, 8192
4, 533920, Pitch_bend_c, 5, 8320
4, 534080, Pitch_bend_c, 5, 8192
4, 534240, Pitch_bend_c, 5, 8320
4, 534400, Pitch_bend_c, 5, 8192
4, 534560, Pitch_bend_c, 5, 8320
4, 534720, Pitch_bend_c, 5, 8192
4, 534720, Pitch_bend_c, 5, 8320
4, 534720, Pitch_bend_c, 5, 8192
4, 534720, Note_off_c, 5, 55, 95
4, 535200, Note_on_c, 5, 57, 95
4, 535360, Pitch_bend_c, 5, 8192
4, 535520, Pitch_bend_c, 5, 8320
4, 535680, Pitch_bend_c, 5, 8192
4, 535840, Pitch_bend_c, 5, 8320
4, 536000, Pitch_bend_c, 5, 8192
4, 536160, Pitch_bend_c, 5, 8320
4, 536320, Pitch_bend_c, 5, 8192
4, 536480, Pitch_bend_c, 5, 8320
4, 536640, Pitch_bend_c, 5, 8192
4, 536640, Pitch_bend_c, 5, 8320
4, 536640, Pitch_bend_c, 5, 8192
4, 536640, Note_off_c, 5, 57, 95
4, 537120, Note_on_c, 5, 53, 95
4, 537280, Pitch_bend_c, 5, 8192
4, 537440, Pitch_bend_c, 5, 8320
4, 537600, Pitch_bend_c, 5, 8192
4, 537760, Pitch_bend_c, 5, 8320
4, 537920, Pitch_bend_c, 5, 8192
4, 538080, Pitch_bend_c, 5, 8320
4, 538240, Pitch_bend_c, 5, 8192
4, 538400, Pitch_bend_c, 5, 8320
4, 538560, Pitch_bend_c, 5, 8192
4, 538560, Pitch_bend_c, 5, 8320
4, 538560, Pitch_bend_c, 5, 8192
4, 538560, Note_off_c, 5, 53, 95
4, 539040, Note_on_c, 5, 55, 95
4, 539200, Pitch_bend_c, 5, 8192
4, 539360, Pitch_bend_c, 5, 8320
4, 539520, Pitch_bend_c, 5, 8192
4, 539680, Pitch_bend_c, 5, 8320
4, 539840, Pitch_bend_c, 5, 8192
4, 540000, Pitch_bend_c, 5, 8320
4, 540160, Pitch_bend_c, 5, 8192
4, 540320, Pitch_bend_c, 5, 8320
4, 540480, Pitch_bend_c, 5, 8192
4, 540480, Pitch_bend_c, 5, 8320
4, 540480, Pitch_bend_c, 5, 8192
4, 540480, Note_off_c, 5, 55, 95
4, 540960, Note_on_c, 5, 52, 95
4, 541120, Pitch_bend_c, 5, 8192
4, 541280, Pitch_bend_c, 5, 8320
4, 541440, Pitch_bend_c, 5, 8192
4, 541600, Pitch_bend_c, 5, 8320
4, 541760, Pitch_bend_c, 5, 8192
4, 541920, Pitch_bend_c, 5, 8320
4, 542080, Pitch_bend_c, 5, 8192
4, 542240, Pitch_bend_c, 5, 8320
4, 542400, Pitch_bend_c, 5, 8192
4, 542400, Pitch_bend_c, 5, 8320
4, 542400, Pitch_bend_c, 5, 8192
4, 542400, Note_off_c, 5, 52, 95
4, 542880, Note_on_c, 5, 53, 95
4, 543040, Pitch_bend_c, 5, 8192
4, 543200, Pitch_bend_c, 5, 8320
4, 543360, Pitch_bend_c, 5, 8192
4, 543520, Pitch_bend_c, 5, 8320
4, 543680, Pitch_bend_c, 5, 8192
4, 543840, Pitch_bend_c, 5, 8320
4, 544000, Pitch_bend_c, 5, 8192
4, 544160, Pitch_bend_c, 5, 8320
4, 544320, Pitch_bend_c, 5, 8192
4, 544320, Pitch_bend_c, 5, 8320
4, 544320, Pitch_bend_c, 5, 8192
4, 544320, Note_off_c, 5, 53, 95
4, 544800, Note_on_c, 5, 50, 95
4, 544960, Pitch_bend_c, 5, 8192
4, 545120, Pitch_bend_c, 5, 8320
4, 545280, Pitch_bend_c, 5, 8192
4, 545440, Pitch_bend_c, 5, 8320
4, 545600, Pitch_bend_c, 5, 8192
4, 545760, Pitch_bend_c, 5, 8320
4, 545920, Pitch_bend_c, 5, 8192
4, 546080, Pitch_bend_c, 5, 8320
4, 546240, Pitch_bend_c, 5, 8192
4, 546240, Pitch_bend_c, 5, 8320
4, 546240, Pitch_bend_c, 5, 8192
4, 546240, Note_off_c, 5, 50, 95
4, 546240, Note_on_c, 4, 41, 95
4, 546720, Note_off_c, 4, 41, 95
4, 546720, Note_on_c, 4, 48, 79
4, 547200, Note_off_c, 4, 48, 79
4, 547200, Note_on_c, 4, 53, 95
4, 549120, Note_off_c, 4, 53, 95
4, 549120, Note_on_c, 4, 48, 95
4, 549600, Note_off_c, 4, 48, 95
4, 549600, Note_on_c, 4, 52, 95
4, 551040, Note_off_c, 4, 52, 95
4, 551040, Note_on_c, 4, 50, 95
4, 551520, Note_off_c, 4, 50, 95
4, 551520, Note_on_c, 4, 53, 95
4, 552000, Note_off_c, 4, 53, 95
4, 552000, Note_on_c, 4, 58, 95
4, 553920, Note_off_c, 4, 58, 95
4, 553920, Note_on_c, 4, 48, 95
4, 554400, Note_off_c, 4, 48, 95
4, 554400, Note_on_c, 4, 55, 95
4, 554880, Note_off_c, 4, 55, 95
4, 554880, Note_on_c, 4, 60, 95
4, 556800, Note_off_c, 4, 60, 95
4, 556800, Note_on_c, 4, 55, 95
4, 556800, Note_on_c, 4, 50, 95
4, 557760, Note_off_c, 4, 55, 95
4, 557760, Note_off_c, 4, 50, 95
4, 749280, Note_on_c, 4, 53, 111
4, 749411, Note_off_c, 4, 53, 111
4, 749520, Note_on_c, 4, 53, 111
4, 749651, Note_off_c, 4, 53, 111
4, 749760, Note_on_c, 4, 53, 111
4, 749891, Note_off_c, 4, 53, 111
4, 750240, Note_on_c, 4, 52, 111
4, 750371, Note_off_c, 4, 52, 111
4, 750480, Note_on_c, 4, 52, 111
4, 750611, Note_off_c, 4, 52, 111
4, 750720, Note_on_c, 4, 52, 111
4, 750851, Note_off_c, 4, 52, 111
4, 751200, Note_on_c, 4, 50, 111
4, 751331, Note_off_c, 4, 50, 111
4, 751440, Note_on_c, 4, 50, 111
4, 751571, Note_off_c, 4, 50, 111
4, 751680, Note_on_c, 4, 50, 111
4, 751811, Note_off_c, 4, 50, 111
4, 752160, Note_on_c, 4, 49, 111
4, 752400, Note_off_c, 4, 49, 111
4, 752400, Note_on_c, 4, 49, 111
4, 752640, Note_off_c, 4, 49, 111
4, 752640, Note_on_c, 4, 49, 111
4, 752880, Note_off_c, 4, 49, 111
4, 753120, Note_on_c, 4, 45, 111
4, 753600, Note_off_c, 4, 45, 111
4, 777600, Note_on_c, 4, 65, 95
4, 777840, Note_off_c, 4, 65, 95
4, 777840, Note_on_c, 4, 64, 70
4, 778080, Note_off_c, 4, 64, 70
4, 778080, Note_on_c, 4, 62, 70
4, 778320, Note_off_c, 4, 62, 70
4, 779040, Note_on_c, 4, 67, 95
4, 779280, Note_off_c, 4, 67, 95
4, 779520, Note_on_c, 4, 62, 95
4, 779760, Note_off_c, 4, 62, 95
4, 779760, Note_on_c, 4, 60, 70
4, 780000, Note_off_c, 4, 60, 70
4, 780000, Note_on_c, 4, 57, 70
4, 780240, Note_off_c, 4, 57, 70
4, 780240, Note_on_c, 4, 55, 95
4, 780480, Note_off_c, 4, 55, 95
4, 781440, Note_on_c, 4, 65, 95
4, 781680, Note_off_c, 4, 65, 95
4, 781680, Note_on_c, 4, 64, 70
4, 781920, Note_off_c, 4, 64, 70
4, 781920, Note_on_c, 4, 65, 70
4, 782160, Note_off_c, 4, 65, 70
4, 782160, Note_on_c, 4, 67, 70
4, 782400, Note_off_c, 4, 67, 70
4, 782400, Note_on_c, 4, 69, 95
4, 782640, Note_off_c, 4, 69, 95
4, 782640, Note_on_c, 4, 70, 70
4, 782880, Note_off_c, 4, 70, 70
4, 782880, Note_on_c, 4, 69, 70
4, 783120, Note_off_c, 4, 69, 70
4, 783120, Note_on_c, 4, 67, 95
4, 783360, Note_off_c, 4, 67, 95
4, 783360, Note_on_c, 4, 65, 70
4, 783600, Note_off_c, 4, 65, 70
4, 783600, Note_on_c, 4, 64, 70
4, 783840, Note_off_c, 4, 64, 70
4, 784800, Note_on_c, 4, 70, 95
4, 785040, Note_off_c, 4, 70, 95
4, 785040, Note_on_c, 4, 69, 70
4, 785280, Note_off_c, 4, 69, 70
4, 786240, Note_on_c, 4, 77, 95
4, 786480, Note_off_c, 4, 77, 95
4, 786720, Note_on_c, 4, 81, 95
4, 786840, Note_off_c, 4, 81, 95
4, 786840, Note_on_c, 4, 79, 70
4, 786960, Note_off_c, 4, 79, 70
4, 786960, Note_on_c, 4, 77, 95
4, 787200, Note_off_c, 4, 77, 95
4, 787200, Note_on_c, 4, 76, 95
4, 787440, Note_off_c, 4, 76, 95
4, 787680, Note_on_c, 4, 70, 111
4, 787760, Note_off_c, 4, 70, 111
4, 787760, Note_on_c, 4, 72, 70
4, 787840, Note_off_c, 4, 72, 70
4, 787840, Note_on_c, 4, 74, 95
4, 787920, Note_off_c, 4, 74, 95
4, 787920, Note_on_c, 4, 76, 95
4, 788160, Note_off_c, 4, 76, 95
4, 788160, Note_on_c, 4, 77, 70
4, 788400, Note_off_c, 4, 77, 70
4, 788400, Note_on_c, 4, 79, 70
4, 788640, Note_off_c, 4, 79, 70
4, 788640, Note_on_c, 4, 77, 70
4, 788880, Note_off_c, 4, 77, 70
4, 788880, Note_on_c, 4, 76, 95
4, 789120, Note_off_c, 4, 76, 95
4, 789120, Note_on_c, 4, 69, 95
4, 789200, Note_off_c, 4, 69, 95
4, 789200, Note_on_c, 4, 70, 70
4, 789280, Note_off_c, 4, 70, 70
4, 789280, Note_on_c, 4, 72, 95
4, 789520, Note_off_c, 4, 72, 95
4, 789520, Note_on_c, 4, 74, 70
4, 789760, Note_off_c, 4, 74, 70
4, 789760, Note_on_c, 4, 76, 70
4, 790000, Note_off_c, 4, 76, 70
4, 790000, Note_on_c, 4, 74, 70
4, 790240, Note_off_c, 4, 74, 70
4, 790240, Note_on_c, 4, 72, 95
4, 790480, Note_off_c, 4, 72, 95
4, 790480, Note_on_c, 4, 69, 95
4, 790600, Note_off_c, 4, 69, 95
4, 790600, Note_on_c, 4, 71, 70
4, 790680, Note_off_c, 4, 71, 70
4, 790680, Note_on_c, 4, 72, 95
4, 790920, Note_off_c, 4, 72, 95
4, 790920, Note_on_c, 4, 74, 95
4, 791160, Note_off_c, 4, 74, 95
4, 791160, Note_on_c, 4, 77, 70
4, 791280, Note_off_c, 4, 77, 70
4, 791280, Note_on_c, 4, 74, 70
4, 791400, Note_off_c, 4, 74, 70
4, 791400, Note_on_c, 4, 72, 70
4, 791640, Note_off_c, 4, 72, 70
4, 792960, Note_on_c, 4, 74, 95
4, 793200, Note_off_c, 4, 74, 95
4, 793200, Note_on_c, 4, 72, 95
4, 793440, Note_off_c, 4, 72, 95
4, 793440, Note_on_c, 4, 81, 95
4, 793680, Note_off_c, 4, 81, 95
4, 793680, Note_on_c, 4, 79, 95
4, 793920, Note_off_c, 4, 79, 95
4, 793920, Note_on_c, 4, 81, 95
4, 794160, Note_off_c, 4, 81, 95
4, 794160, Note_on_c, 4, 82, 95
4, 794400, Note_off_c, 4, 82, 95
4, 794400, Note_on_c, 4, 81, 95
4, 794640, Note_off_c, 4, 81, 95
4, 794640, Note_on_c, 4, 79, 95
4, 794880, Note_off_c, 4, 79, 95
4, 794880, Note_on_c, 4, 77, 95
4, 795120, Note_off_c, 4, 77, 95
4, 795120, Note_on_c, 4, 76, 95
4, 795360, Note_off_c, 4, 76, 95
4, 796320, Note_on_c, 4, 77, 95
4, 796560, Note_off_c, 4, 77, 95
4, 796560, Note_on_c, 4, 76, 70
4, 796800, Note_off_c, 4, 76, 70
4, 797760, Note_on_c, 4, 81, 95
4, 798000, Note_off_c, 4, 81, 95
4, 798240, Note_on_c, 4, 86, 95
4, 798360, Note_off_c, 4, 86, 95
4, 798360, Note_on_c, 4, 84, 70
4, 798480, Note_off_c, 4, 84, 70
4, 798480, Note_on_c, 4, 82, 70
4, 798720, Note_off_c, 4, 82, 70
4, 798720, Note_on_c, 4, 81, 95
4, 798960, Note_off_c, 4, 81, 95
4, 798960, Note_on_c, 4, 79, 70
4, 799200, Note_off_c, 4, 79, 70
4, 800160, Note_on_c, 4, 65, 95
4, 800400, Note_off_c, 4, 65, 95
4, 800400, Note_on_c, 4, 64, 70
4, 800640, Note_off_c, 4, 64, 70
4, 801600, Note_on_c, 4, 69, 95
4, 801840, Note_off_c, 4, 69, 95
4, 802080, Note_on_c, 4, 62, 95
4, 802320, Note_off_c, 4, 62, 95
4, 802320, Note_on_c, 4, 60, 70
4, 802560, Note_off_c, 4, 60, 70
4, 802560, Note_on_c, 4, 57, 95
4, 802800, Note_off_c, 4, 57, 95
4, 802800, Note_on_c, 4, 55, 70
4, 803040, Note_off_c, 4, 55, 70
4, 803040, Note_on_c, 4, 70, 95
4, 803280, Note_off_c, 4, 70, 95
4, 803280, Note_on_c, 4, 69, 70
4, 803400, Note_off_c, 4, 69, 70
4, 803400, Note_on_c, 4, 67, 95
4, 803520, Note_off_c, 4, 67, 95
4, 803520, Note_on_c, 4, 65, 70
4, 803700, Note_off_c, 4, 65, 70
4, 803700, Note_on_c, 4, 64, 95
4, 803940, Note_off_c, 4, 64, 95
4, 803940, Note_on_c, 4, 62, 70
4, 804180, Note_off_c, 4, 62, 70
4, 804180, Note_on_c, 4, 60, 70
4, 804420, Note_off_c, 4, 60, 70
4, 804420, Note_on_c, 4, 74, 95
4, 805140, Note_off_c, 4, 74, 95
4, 805140, Note_on_c, 4, 70, 95
4, 805320, Note_off_c, 4, 70, 95
4, 805320, Note_on_c, 4, 69, 70
4, 805440, Note_off_c, 4, 69, 70
4, 805440, Note_on_c, 4, 65, 95
4, 805560, Note_off_c, 4, 65, 95
4, 805560, Note_on_c, 4, 64, 70
4, 805680, Note_off_c, 4, 64, 70
4, 805680, Note_on_c, 4, 62, 70
4, 805920, Note_off_c, 4, 62, 70
4, 805920, Pitch_bend_c, 5, 8192
4, 805920, Pitch_bend_c, 5, 8192
4, 805920, Note_on_c, 5, 67, 95
4, 805930, Pitch_bend_c, 5, 8320
4, 805940, Pitch_bend_c, 5, 8448
4, 805950, Pitch_bend_c, 5, 8576
4, 805960, Pitch_bend_c, 5, 8704
4, 805970, Pitch_bend_c, 5, 8832
4, 805980, Pitch_bend_c, 5, 8960
4, 805990, Pitch_bend_c, 5, 9088
4, 806000, Pitch_bend_c, 5, 9216
4, 806010, Pitch_bend_c, 5, 9344
4, 806020, Pitch_bend_c, 5, 9472
4, 806030, Pitch_bend_c, 5, 9600
4, 806040, Pitch_bend_c, 5, 9600
4, 806400, Pitch_bend_c, 5, 9600
4, 806640, Pitch_bend_c, 5, 9600
4, 806661, Pitch_bend_c, 5, 9472
4, 806682, Pitch_bend_c, 5, 9344
4, 806703, Pitch_bend_c, 5, 9216
4, 806724, Pitch_bend_c, 5, 9088
4, 806745, Pitch_bend_c, 5, 8960
4, 806766, Pitch_bend_c, 5, 8832
4, 806787, Pitch_bend_c, 5, 8704
4, 806808, Pitch_bend_c, 5, 8576
4, 806829, Pitch_bend_c, 5, 8448
4, 806850, Pitch_bend_c, 5, 8320
4, 806871, Pitch_bend_c, 5, 8192
4, 806880, Pitch_bend_c, 5, 8192
4, 807120, Pitch_bend_c, 5, 8192
4, 807360, Pitch_bend_c, 5, 8192
4, 807360, Pitch_bend_c, 5, 8192
4, 807360, Note_off_c, 5, 67, 95
4, 807360, Note_on_c, 5, 72, 95
4, 807520, Pitch_bend_c, 5, 8192
4, 807680, Pitch_bend_c, 5, 8320
4, 807840, Pitch_bend_c, 5, 8192
4, 808000, Pitch_bend_c, 5, 8320
4, 808160, Pitch_bend_c, 5, 8192
4, 808320, Pitch_bend_c, 5, 8320
4, 808480, Pitch_bend_c, 5, 8192
4, 808640, Pitch_bend_c, 5, 8320
4, 808800, Pitch_bend_c, 5, 8192
4, 808800, Pitch_bend_c, 5, 8320
4, 808800, Pitch_bend_c, 5, 8192
4, 808800, Note_off_c, 5, 72, 95
4, 808800, Note_on_c, 4, 71, 95
4, 809760, Note_off_c, 4, 71, 95
4, 809760, Note_on_c, 5, 72, 95
4, 809920, Pitch_bend_c, 5, 8192
4, 810080, Pitch_bend_c, 5, 8320
4, 810240, Pitch_bend_c, 5, 8192
4, 810400, Pitch_bend_c, 5, 8320
4, 810560, Pitch_bend_c, 5, 8192
4, 810720, Pitch_bend_c, 5, 8320
4, 810880, Pitch_bend_c, 5, 8192
4, 811040, Pitch_bend_c, 5, 8320
4, 811200, Pitch_bend_c, 5, 8192
4, 811200, Pitch_bend_c, 5, 8320
4, 811200, Pitch_bend_c, 5, 8192
4, 811200, Note_off_c, 5, 72, 95
4, 811200, Note_on_c, 5, 76, 95
4, 811360, Pitch_bend_c, 5, 8192
4, 811520, Pitch_bend_c, 5, 8320
4, 811680, Pitch_bend_c, 5, 8192
4, 811840, Pitch_bend_c, 5, 8320
4, 812000, Pitch_bend_c, 5, 8192
4, 812160, Pitch_bend_c, 5, 8320
4, 812160, Pitch_bend_c, 5, 8192
4, 812160, Note_off_c, 5, 76, 95
4, 812160, Note_on_c, 4, 77, 95
4, 813120, Note_off_c, 4, 77, 95
4, 813120, Note_on_c, 5, 76, 95
4, 813280, Pitch_bend_c, 5, 8192
4, 813440, Pitch_bend_c, 5, 8320
4, 813600, Pitch_bend_c, 5, 8192
4, 813760, Pitch_bend_c, 5, 8320
4, 813920, Pitch_bend_c, 5, 8192
4, 814080, Pitch_bend_c, 5, 8320
4, 814240, Pitch_bend_c, 5, 8192
4, 814400, Pitch_bend_c, 5, 8320
4, 814560, Pitch_bend_c, 5, 8192
4, 814560, Pitch_bend_c, 5, 8320
4, 814560, Pitch_bend_c, 5, 8192
4, 814560, Note_off_c, 5, 76, 95
4, 814560, Pitch_bend_c, 5, 8192
4, 814560, Note_on_c, 5, 79, 95
4, 814680, Pitch_bend_c, 5, 8192
4, 814701, Pitch_bend_c, 5, 8320
4, 814722, Pitch_bend_c, 5, 8448
4, 814743, Pitch_bend_c, 5, 8576
4, 814764, Pitch_bend_c, 5, 8704
4, 814785, Pitch_bend_c, 5, 8832
4, 814806, Pitch_bend_c, 5, 8960
4, 814827, Pitch_bend_c, 5, 9088
4, 814848, Pitch_bend_c, 5, 9216
4, 814869, Pitch_bend_c, 5, 9344
4, 814890, Pitch_bend_c, 5, 9472
4, 814911, Pitch_bend_c, 5, 9600
4, 814920, Pitch_bend_c, 5, 9600
4, 815280, Pitch_bend_c, 5, 9600
4, 815520, Pitch_bend_c, 5, 9600
4, 815530, Pitch_bend_c, 5, 9472
4, 815540, Pitch_bend_c, 5, 9344
4, 815550, Pitch_bend_c, 5, 9216
4, 815560, Pitch_bend_c, 5, 9088
4, 815570, Pitch_bend_c, 5, 8960
4, 815580, Pitch_bend_c, 5, 8832
4, 815590, Pitch_bend_c, 5, 8704
4, 815600, Pitch_bend_c, 5, 8576
4, 815610, Pitch_bend_c, 5, 8448
4, 815620, Pitch_bend_c, 5, 8320
4, 815630, Pitch_bend_c, 5, 8192
4, 815640, Pitch_bend_c, 5, 8192
4, 815880, Pitch_bend_c, 5, 8192
4, 816000, Pitch_bend_c, 5, 8192
4, 816000, Pitch_bend_c, 5, 8192
4, 816000, Note_off_c, 5, 79, 95
4, 816000, Note_on_c, 5, 79, 95
4, 816160, Pitch_bend_c, 5, 8192
4, 816320, Pitch_bend_c, 5, 8320
4, 816480, Pitch_bend_c, 5, 8192
4, 816640, Pitch_bend_c, 5, 8320
4, 816800, Pitch_bend_c, 5, 8192
4, 816960, Pitch_bend_c, 5, 8320
4, 816960, Pitch_bend_c, 5, 8192
4, 816960, Note_off_c, 5, 79, 95
4, 816960, Note_on_c, 4, 77, 95
4, 817200, Note_off_c, 4, 77, 95
4, 817200, Note_on_c, 4, 76, 70
4, 817440, Note_off_c, 4, 76, 70
4, 817440, Note_on_c, 4, 74, 95
4, 817680, Note_off_c, 4, 74, 95
4, 817680, Note_on_c, 4, 72, 95
4, 817920, Note_off_c, 4, 72, 95
4, 817920, Note_on_c, 4, 74, 95
4, 818160, Note_off_c, 4, 74, 95
4, 818160, Note_on_c, 4, 76, 95
4, 818400, Note_off_c, 4, 76, 95
4, 818400, Note_on_c, 4, 77, 95
4, 818640, Note_off_c, 4, 77, 95
4, 818640, Note_on_c, 4, 81, 95
4, 818880, Note_off_c, 4, 81, 95
4, 818880, Note_on_c, 4, 83, 95
4, 819120, Note_off_c, 4, 83, 95
4, 819120, Note_on_c, 4, 81, 95
4, 819240, Note_off_c, 4, 81, 95
4, 819240, Note_on_c, 4, 76, 70
4, 819360, Note_off_c, 4, 76, 70
4, 819360, Note_on_c, 4, 74, 70
4, 819600, Note_off_c, 4, 74, 70
4, 819600, Note_on_c, 4, 72, 95
4, 819840, Note_off_c, 4, 72, 95
4, 819840, Note_on_c, 4, 86, 95
4, 820320, Note_off_c, 4, 86, 95
4, 820320, Note_on_c, 4, 77, 95
4, 820440, Note_off_c, 4, 77, 95
4, 820440, Note_on_c, 4, 76, 70
4, 820560, Note_off_c, 4, 76, 70
4, 820560, Note_on_c, 4, 74, 70
4, 820800, Note_off_c, 4, 74, 70
4, 820800, Note_on_c, 4, 72, 95
4, 821280, Note_off_c, 4, 72, 95
4, 821280, Pitch_bend_c, 5, 8192
4, 821280, Note_on_c, 5, 79, 95
4, 821312, Pitch_bend_c, 5, 8320
4, 821344, Pitch_bend_c, 5, 8448
4, 821376, Pitch_bend_c, 5, 8576
4, 821408, Pitch_bend_c, 5, 8704
4, 821440, Pitch_bend_c, 5, 8832
4, 821472, Pitch_bend_c, 5, 8960
4, 821504, Pitch_bend_c, 5, 9088
4, 821536, Pitch_bend_c, 5, 9216
4, 821568, Pitch_bend_c, 5, 9344
4, 821600, Pitch_bend_c, 5, 9472
4, 821632, Pitch_bend_c, 5, 9600
4, 821640, Pitch_bend_c, 5, 9600
4, 822000, Pitch_bend_c, 5, 9600
4, 822032, Pitch_bend_c, 5, 9472
4, 822064, Pitch_bend_c, 5, 9344
4, 822096, Pitch_bend_c, 5, 9216
4, 822128, Pitch_bend_c, 5, 9088
4, 822160, Pitch_bend_c, 5, 8960
4, 822192, Pitch_bend_c, 5, 8832
4, 822224, Pitch_bend_c, 5, 8704
4, 822256, Pitch_bend_c, 5, 8576
4, 822288, Pitch_bend_c, 5, 8448
4, 822320, Pitch_bend_c, 5, 8320
4, 822352, Pitch_bend_c, 5, 8192
4, 822360, Pitch_bend_c, 5, 8192
4, 822720, Pitch_bend_c, 5, 8192
4, 822720, Pitch_bend_c, 5, 8192
4, 822720, Note_off_c, 5, 79, 95
4, 822720, Note_on_c, 4, 76, 95
4, 823680, Note_off_c, 4, 76, 95
4, 823680, Note_on_c, 4, 77, 95
4, 824640, Note_off_c, 4, 77, 95
4, 824640, Note_on_c, 4, 76, 95
4, 825120, Note_off_c, 4, 76, 95
4, 825120, Note_on_c, 4, 77, 95
4, 825240, Note_off_c, 4, 77, 95
4, 825240, Note_on_c, 4, 76, 70
4, 825360, Note_off_c, 4, 76, 70
4, 825360, Note_on_c, 4, 74, 70
4, 825600, Note_off_c, 4, 74, 70
4, 825600, Note_on_c, 4, 76, 95
4, 826080, Note_off_c, 4, 76, 95
4, 826080, Note_on_c, 4, 79, 95
4, 826560, Note_off_c, 4, 79, 95
4, 826560, Note_on_c, 4, 64, 95
4, 827040, Note_off_c, 4, 64, 95
4, 827040, Note_on_c, 4, 60, 95
4, 827520, Note_off_c, 4, 60, 95
4, 827520, Note_on_c, 4, 58, 95
4, 828000, Note_off_c, 4, 58, 95
4, 828000, Note_on_c, 4, 65, 95
4, 828480, Note_off_c, 4, 65, 95
4, 828480, Note_on_c, 4, 77, 95
4, 828960, Note_off_c, 4, 77, 95
4, 828960, Note_on_c, 5, 69, 95
4, 829120, Pitch_bend_c, 5, 8192
4, 829280, Pitch_bend_c, 5, 8320
4, 829440, Pitch_bend_c, 5, 8192
4, 829600, Pitch_bend_c, 5, 8320
4, 829760, Pitch_bend_c, 5, 8192
4, 829920, Pitch_bend_c, 5, 8320
4, 830080, Pitch_bend_c, 5, 8192
4, 830240, Pitch_bend_c, 5, 8320
4, 830400, Pitch_bend_c, 5, 8192
4, 830400, Pitch_bend_c, 5, 8320
4, 830400, Pitch_bend_c, 5, 8192
4, 830400, Note_off_c, 5, 69, 95
4, 832800, Note_on_c, 4, 65, 79
4, 832920, Note_off_c, 4, 65, 79
4, 832920, Note_on_c, 4, 69, 79
4, 833040, Note_off_c, 4, 69, 79
4, 833040, Note_on_c, 4, 72, 79
4, 833160, Note_off_c, 4, 72, 79
4, 833160, Note_on_c, 4, 77, 79
4, 833280, Note_off_c, 4, 77, 79
4, 833280, Note_on_c, 4, 72, 79
4, 833520, Note_off_c, 4, 72, 79
4, 833520, Note_on_c, 4, 69, 79
4, 833760, Note_off_c, 4, 69, 79
4, 833760, Note_on_c, 4, 65, 79
4, 834000, Note_off_c, 4, 65, 79
4, 834000, Note_on_c, 4, 72, 79
4, 834120, Note_off_c, 4, 72, 79
4, 834120, Note_on_c, 4, 76, 79
4, 834240, Note_off_c, 4, 76, 79
4, 834240, Note_on_c, 4, 79, 79
4, 834360, Note_off_c, 4, 79, 79
4, 834360, Note_on_c, 4, 84, 79
4, 834480, Note_off_c, 4, 84, 79
4, 834480, Note_on_c, 4, 79, 79
4, 834720, Note_off_c, 4, 79, 79
4, 834720, Note_on_c, 4, 76, 79
4, 834960, Note_off_c, 4, 76, 79
4, 834960, Note_on_c, 4, 72, 79
4, 835200, Note_off_c, 4, 72, 79
4, 835200, Note_on_c, 4, 77, 95
4, 835360, Note_off_c, 4, 77, 95
4, 835360, Note_on_c, 4, 81, 70
4, 835520, Note_off_c, 4, 81, 70
4, 835520, Note_on_c, 4, 77, 70
4, 835680, Note_off_c, 4, 77, 70
4, 835680, Note_on_c, 4, 74, 95
4, 835920, Note_off_c, 4, 74, 95
4, 835920, Note_on_c, 4, 69, 95
4, 836160, Note_off_c, 4, 69, 95
4, 836160, Note_on_c, 4, 74, 95
4, 836400, Note_off_c, 4, 74, 95
4, 836400, Note_on_c, 4, 77, 95
4, 836640, Note_off_c, 4, 77, 95
4, 836640, Note_on_c, 4, 84, 95
4, 836880, Note_off_c, 4, 84, 95
4, 836880, Note_on_c, 4, 81, 70
4, 837120, Note_off_c, 4, 81, 70
4, 837120, Note_on_c, 4, 77, 95
4, 837360, Note_off_c, 4, 77, 95
4, 837360, Note_on_c, 4, 74, 95
4, 837600, Note_off_c, 4, 74, 95
4, 837600, Note_on_c, 4, 77, 95
4, 837840, Note_off_c, 4, 77, 95
4, 837840, Note_on_c, 4, 81, 95
4, 838080, Note_off_c, 4, 81, 95
4, 838080, Note_on_c, 4, 84, 95
4, 838320, Note_off_c, 4, 84, 95
4, 838320, Note_on_c, 4, 81, 95
4, 838560, Note_off_c, 4, 81, 95
4, 838560, Note_on_c, 4, 77, 95
4, 838800, Note_off_c, 4, 77, 95
4, 838800, Note_on_c, 4, 74, 95
4, 839040, Note_off_c, 4, 74, 95
4, 839040, Note_on_c, 4, 77, 95
4, 839200, Note_off_c, 4, 77, 95
4, 839200, Note_on_c, 4, 81, 70
4, 839360, Note_off_c, 4, 81, 70
4, 839360, Note_on_c, 4, 77, 70
4, 839520, Note_off_c, 4, 77, 70
4, 839520, Note_on_c, 4, 74, 95
4, 839760, Note_off_c, 4, 74, 95
4, 839760, Note_on_c, 4, 69, 95
4, 840000, Note_off_c, 4, 69, 95
4, 840000, Note_on_c, 4, 74, 95
4, 840240, Note_off_c, 4, 74, 95
4, 840240, Note_on_c, 4, 77, 95
4, 840480, Note_off_c, 4, 77, 95
4, 840480, Note_on_c, 4, 81, 70
4, 840720, Note_off_c, 4, 81, 70
4, 840720, Note_on_c, 4, 77, 70
4, 840960, Note_off_c, 4, 77, 70
4, 840960, Note_on_c, 4, 74, 95
4, 841200, Note_off_c, 4, 74, 95
4, 841200, Note_on_c, 4, 69, 95
4, 841440, Note_off_c, 4, 69, 95
4, 841440, Note_on_c, 4, 79, 95
4, 841680, Note_off_c, 4, 79, 95
4, 841680, Note_on_c, 4, 76, 70
4, 841920, Note_off_c, 4, 76, 70
4, 841920, Note_on_c, 4, 73, 95
4, 842160, Note_off_c, 4, 73, 95
4, 842160, Note_on_c, 4, 70, 95
4, 842400, Note_off_c, 4, 70, 95
4, 842400, Note_on_c, 4, 77, 95
4, 842640, Note_off_c, 4, 77, 95
4, 842640, Note_on_c, 4, 74, 70
4, 842880, Note_off_c, 4, 74, 70
4, 842880, Note_on_c, 4, 69, 95
4, 843120, Note_off_c, 4, 69, 95
4, 843120, Note_on_c, 4, 65, 95
4, 843360, Note_off_c, 4, 65, 95
4, 843360, Note_on_c, 4, 69, 95
4, 843600, Note_off_c, 4, 69, 95
4, 843600, Note_on_c, 4, 74, 95
4, 843840, Note_off_c, 4, 74, 95
4, 843840, Note_on_c, 4, 77, 70
4, 844080, Note_off_c, 4, 77, 70
4, 844080, Note_on_c, 4, 74, 70
4, 844320, Note_off_c, 4, 74, 70
4, 844320, Note_on_c, 4, 69, 95
4, 844560, Note_off_c, 4, 69, 95
4, 844560, Note_on_c, 4, 65, 95
4, 844800, Note_off_c, 4, 65, 95
4, 844800, Note_on_c, 4, 69, 95
4, 845040, Note_off_c, 4, 69, 95
4, 845040, Note_on_c, 4, 74, 95
4, 845280, Note_off_c, 4, 74, 95
4, 845280, Note_on_c, 4, 76, 70
4, 845520, Note_off_c, 4, 76, 70
4, 845520, Note_on_c, 4, 72, 70
4, 845760, Note_off_c, 4, 72, 70
4, 845760, Note_on_c, 4, 67, 95
4, 846000, Note_off_c, 4, 67, 95
4, 846000, Note_on_c, 4, 64, 95
4, 846240, Note_off_c, 4, 64, 95
4, 846240, Note_on_c, 4, 74, 95
4, 846400, Note_off_c, 4, 74, 95
4, 846400, Note_on_c, 4, 77, 70
4, 846560, Note_off_c, 4, 77, 70
4, 846560, Note_on_c, 4, 74, 70
4, 846720, Note_off_c, 4, 74, 70
4, 846720, Note_on_c, 4, 70, 95
4, 846960, Note_off_c, 4, 70, 95
4, 846960, Note_on_c, 4, 67, 95
4, 847200, Note_off_c, 4, 67, 95
4, 847200, Note_on_c, 4, 70, 95
4, 847440, Note_off_c, 4, 70, 95
4, 847440, Note_on_c, 4, 74, 95
4, 847680, Note_off_c, 4, 74, 95
4, 847680, Note_on_c, 4, 79, 70
4, 847920, Note_off_c, 4, 79, 70
4, 847920, Note_on_c, 4, 74, 70
4, 848160, Note_off_c, 4, 74, 70
4, 848160, Note_on_c, 4, 70, 95
4, 848400, Note_off_c, 4, 70, 95
4, 848400, Note_on_c, 4, 67, 95
4, 848640, Note_off_c, 4, 67, 95
4, 848640, Note_on_c, 4, 70, 95
4, 848880, Note_off_c, 4, 70, 95
4, 848880, Note_on_c, 4, 74, 95
4, 849120, Note_off_c, 4, 74, 95
4, 849120, Note_on_c, 4, 74, 95
4, 849280, Note_off_c, 4, 74, 95
4, 849280, Note_on_c, 4, 76, 70
4, 849440, Note_off_c, 4, 76, 70
4, 849440, Note_on_c, 4, 73, 70
4, 849600, Note_off_c, 4, 73, 70
4, 849600, Note_on_c, 4, 67, 95
4, 849840, Note_off_c, 4, 67, 95
4, 849840, Note_on_c, 4, 64, 95
4, 850080, Note_off_c, 4, 64, 95
4, 850080, Note_on_c, 4, 67, 95
4, 850320, Note_off_c, 4, 67, 95
4, 850320, Note_on_c, 4, 73, 95
4, 850560, Note_off_c, 4, 73, 95
4, 850560, Note_on_c, 4, 74, 95
4, 850800, Note_off_c, 4, 74, 95
4, 850800, Note_on_c, 4, 69, 70
4, 851040, Note_off_c, 4, 69, 70
4, 851040, Note_on_c, 4, 65, 95
4, 851280, Note_off_c, 4, 65, 95
4, 851280, Note_on_c, 4, 62, 95
4, 851520, Note_off_c, 4, 62, 95
4, 851520, Note_on_c, 4, 65, 95
4, 851760, Note_off_c, 4, 65, 95
4, 851760, Note_on_c, 4, 69, 95
4, 852000, Note_off_c, 4, 69, 95
4, 852000, Note_on_c, 4, 77, 95
4, 852240, Note_off_c, 4, 77, 95
4, 852240, Note_on_c, 4, 74, 95
4, 852480, Note_off_c, 4, 74, 95
4, 852480, Note_on_c, 4, 69, 70
4, 852720, Note_off_c, 4, 69, 70
4, 852720, Note_on_c, 4, 65, 95
4, 852960, Note_off_c, 4, 65, 95
4, 852960, Note_on_c, 4, 69, 95
4, 853200, Note_off_c, 4, 69, 95
4, 853200, Note_on_c, 4, 65, 95
4, 853440, Note_off_c, 4, 65, 95
4, 853440, Note_on_c, 4, 62, 95
4, 853680, Note_off_c, 4, 62, 95
4, 853680, Note_on_c, 4, 57, 95
4, 853920, Note_off_c, 4, 57, 95
4, 853920, Note_on_c, 4, 69, 95
4, 854160, Note_off_c, 4, 69, 95
4, 854160, Note_on_c, 4, 65, 95
4, 854400, Note_off_c, 4, 65, 95
4, 854400, Note_on_c, 4, 62, 95
4, 854640, Note_off_c, 4, 62, 95
4, 854640, Note_on_c, 4, 57, 95
4, 854880, Note_off_c, 4, 57, 95
4, 854880, Note_on_c, 4, 62, 95
4, 855120, Note_off_c, 4, 62, 95
4, 855120, Note_on_c, 4, 65, 95
4, 855360, Note_off_c, 4, 65, 95
4, 855360, Note_on_c, 4, 69, 95
4, 855600, Note_off_c, 4, 69, 95
4, 855600, Note_on_c, 4, 65, 95
4, 855840, Note_off_c, 4, 65, 95
4, 855840, Note_on_c, 4, 62, 95
4, 856080, Note_off_c, 4, 62, 95
4, 856080, Note_on_c, 4, 57, 95
4, 856320, Note_off_c, 4, 57, 95
4, 856320, Note_on_c, 4, 70, 95
4, 856560, Note_off_c, 4, 70, 95
4, 856560, Note_on_c, 4, 67, 70
4, 856800, Note_off_c, 4, 67, 70
4, 856800, Note_on_c, 4, 64, 95
4, 857040, Note_off_c, 4, 64, 95
4, 857040, Note_on_c, 4, 62, 95
4, 857280, Note_off_c, 4, 62, 95
4, 857280, Note_on_c, 4, 64, 95
4, 857520, Note_off_c, 4, 64, 95
4, 857520, Note_on_c, 4, 67, 95
4, 857760, Note_off_c, 4, 67, 95
4, 857760, Note_on_c, 5, 66, 95
4, 857880, Pitch_bend_c, 5, 9216
4, 858000, Pitch_bend_c, 5, 10240
4, 858000, Pitch_bend_c, 5, 8192
4, 858000, Note_off_c, 5, 66, 95
4, 858000, Note_on_c, 4, 69, 95
4, 858240, Note_off_c, 4, 69, 95
4, 858240, Note_on_c, 4, 65, 95
4, 858480, Note_off_c, 4, 65, 95
4, 858480, Note_on_c, 4, 60, 95
4, 858720, Note_off_c, 4, 60, 95
4, 858720, Note_on_c, 4, 65, 95
4, 858960, Note_off_c, 4, 65, 95
4, 858960, Note_on_c, 4, 69, 95
4, 859200, Note_off_c, 4, 69, 95
4, 859200, Note_on_c, 4, 77, 95
4, 859440, Note_off_c, 4, 77, 95
4, 859440, Note_on_c, 4, 74, 95
4, 859680, Note_off_c, 4, 74, 95
4, 859680, Note_on_c, 4, 69, 95
4, 859920, Note_off_c, 4, 69, 95
4, 859920, Note_on_c, 4, 65, 95
4, 860160, Note_off_c, 4, 65, 95
4, 860160, Note_on_c, 4, 69, 95
4, 860400, Note_off_c, 4, 69, 95
4, 860400, Note_on_c, 4, 74, 95
4, 860640, Note_off_c, 4, 74, 95
4, 860640, Note_on_c, 4, 79, 95
4, 860880, Note_off_c, 4, 79, 95
4, 860880, Note_on_c, 4, 76, 95
4, 861120, Note_off_c, 4, 76, 95
4, 861120, Note_on_c, 4, 72, 95
4, 861360, Note_off_c, 4, 72, 95
4, 861360, Note_on_c, 4, 69, 95
4, 861600, Note_off_c, 4, 69, 95
4, 861600, Note_on_c, 4, 74, 95
4, 861760, Note_off_c, 4, 74, 95
4, 861760, Note_on_c, 4, 77, 95
4, 861920, Note_off_c, 4, 77, 95
4, 861920, Note_on_c, 4, 74, 95
4, 862080, Note_off_c, 4, 74, 95
4, 862080, Note_on_c, 4, 70, 95
4, 862320, Note_off_c, 4, 70, 95
4, 862320, Note_on_c, 4, 67, 95
4, 862560, Note_off_c, 4, 67, 95
4, 862560, Note_on_c, 4, 70, 95
4, 862800, Note_off_c, 4, 70, 95
4, 862800, Note_on_c, 4, 74, 95
4, 863040, Note_off_c, 4, 74, 95
4, 863040, Note_on_c, 4, 79, 95
4, 863280, Note_off_c, 4, 79, 95
4, 863280, Note_on_c, 4, 74, 95
4, 863520, Note_off_c, 4, 74, 95
4, 863520, Note_on_c, 4, 70, 95
4, 863760, Note_off_c, 4, 70, 95
4, 863760, Note_on_c, 4, 67, 95
4, 864000, Note_off_c, 4, 67, 95
4, 864000, Note_on_c, 4, 70, 95
4, 864240, Note_off_c, 4, 70, 95
4, 864240, Note_on_c, 4, 74, 95
4, 864480, Note_off_c, 4, 74, 95
4, 864480, Note_on_c, 5, 81, 111
4, 864640, Pitch_bend_c, 5, 8192
4, 864800, Pitch_bend_c, 5, 8320
4, 864960, Pitch_bend_c, 5, 8192
4, 865120, Pitch_bend_c, 5, 8320
4, 865280, Pitch_bend_c, 5, 8192
4, 865440, Pitch_bend_c, 5, 8320
4, 865600, Pitch_bend_c, 5, 8192
4, 865760, Pitch_bend_c, 5, 8320
4, 865920, Pitch_bend_c, 5, 8192
4, 865920, Pitch_bend_c, 5, 8320
4, 865920, Pitch_bend_c, 5, 8192
4, 865920, Note_off_c, 5, 81, 111
4, 1048800, Note_on_c, 4, 43, 95
4, 1049280, Note_off_c, 4, 43, 95
4, 1049280, Note_on_c, 4, 45, 95
4, 1049760, Note_off_c, 4, 45, 95
4, 1049760, Note_on_c, 4, 46, 95
4, 1050240, Note_off_c, 4, 46, 95
4, 1050240, Note_on_c, 4, 50, 95
4, 1050720, Note_off_c, 4, 50, 95
4, 1050720, Note_on_c, 4, 49, 95
4, 1051200, Note_off_c, 4, 49, 95
4, 1051200, Note_on_c, 4, 45, 95
4, 1051680, Note_off_c, 4, 45, 95
4, 1052640, Note_on_c, 4, 55, 95
4, 1052640, Note_on_c, 4, 50, 95
4, 1052640, Note_on_c, 4, 45, 95
4, 1052640, Note_on_c, 4, 40, 95
4, 1052704, Note_off_c, 4, 55, 95
4, 1052704, Note_off_c, 4, 50, 95
4, 1052704, Note_off_c, 4, 45, 95
4, 1052704, Note_off_c, 4, 40, 95
4, 1053120, Note_on_c, 4, 43, 95
4, 1053600, Note_off_c, 4, 43, 95
4, 1053600, Note_on_c, 4, 45, 95
4, 1054080, Note_off_c, 4, 45, 95
4, 1054080, Note_on_c, 4, 46, 95
4, 1054560, Note_off_c, 4, 46, 95
4, 1054560, Note_on_c, 4, 50, 95
4, 1055040, Note_off_c, 4, 50, 95
4, 1055040, Note_on_c, 4, 49, 95
4, 1055520, Note_off_c, 4, 49, 95
4, 1055520, Note_on_c, 4, 53, 95
4, 1056000, Note_off_c, 4, 53, 95
4, 1056000, Note_on_c, 5, 52, 95
4, 1056160, Pitch_bend_c, 5, 8192
4, 1056320, Pitch_bend_c, 5, 8320
4, 1056480, Pitch_bend_c, 5, 8192
4, 1056640, Pitch_bend_c, 5, 8320
4, 1056800, Pitch_bend_c, 5, 8192
4, 1056960, Pitch_bend_c, 5, 8320
4, 1056960, Pitch_bend_c, 5, 8192
4, 1056960, Note_off_c, 5, 52, 95
4, 1056960, Note_on_c, 4, 43, 95
4, 1057440, Note_off_c, 4, 43, 95
4, 1057440, Note_on_c, 4, 46, 95
4, 1057920, Note_off_c, 4, 46, 95
4, 1057920, Note_on_c, 4, 50, 95
4, 1058400, Note_off_c, 4, 50, 95
4, 1058400, Note_on_c, 4, 49, 95
4, 1058880, Note_off_c, 4, 49, 95
4, 1058880, Note_on_c, 4, 45, 95
4, 1059360, Note_off_c, 4, 45, 95
4, 1059840, Note_on_c, 5, 52, 95
4, 1059840, Note_on_c, 5, 45, 95
4, 1059960, Pitch_bend_c, 5, 8320
4, 1059960, Pitch_bend_c, 5, 8320
4, 1060080, Pitch_bend_c, 5, 8448
4, 1060080, Pitch_bend_c, 5, 8448
4, 1060200, Pitch_bend_c, 5, 8704
4, 1060200, Pitch_bend_c, 5, 8704
4, 1060320, Pitch_bend_c, 5, 8832
4, 1060320, Pitch_bend_c, 5, 8192
4, 1060320, Note_off_c, 5, 52, 95
4, 1060320, Pitch_bend_c, 5, 8832
4, 1060320, Pitch_bend_c, 5, 8192
4, 1060320, Note_off_c, 5, 45, 95
4, 1060320, Note_on_c, 4, 53, 95
4, 1060320, Note_on_c, 4, 46, 95
4, 1060800, Note_off_c, 4, 53, 95
4, 1060800, Note_off_c, 4, 46, 95
4, 1060800, Note_on_c, 4, 50, 95
4, 1060800, Note_on_c, 4, 43, 95
4, 1061280, Note_off_c, 4, 50, 95
4, 1061280, Note_off_c, 4, 43, 95
4, 1061760, Note_on_c, 5, 48, 95
4, 1061760, Note_on_c, 5, 41, 95
4, 1061880, Pitch_bend_c, 5, 8448
4, 1061880, Pitch_bend_c, 5, 8448
4, 1062000, Pitch_bend_c, 5, 8832
4, 1062000, Pitch_bend_c, 5, 8832
4, 1062120, Pitch_bend_c, 5, 9216
4, 1062120, Pitch_bend_c, 5, 9216
4, 1062240, Pitch_bend_c, 5, 9600
4, 1062240, Pitch_bend_c, 5, 8192
4, 1062240, Note_off_c, 5, 48, 95
4, 1062240, Pitch_bend_c, 5, 9600
4, 1062240, Pitch_bend_c, 5, 8192
4, 1062240, Note_off_c, 5, 41, 95
4, 1062240, Note_on_c, 4, 50, 95
4, 1062240, Note_on_c, 4, 43, 95
4, 1062720, Note_off_c, 4, 50, 95
4, 1062720, Note_off_c, 4, 43, 95
4, 1062720, Note_on_c, 4, 47, 95
4, 1062720, Note_on_c, 4, 40, 95
4, 1063200, Note_off_c, 4, 47, 95
4, 1063200, Note_off_c, 4, 40, 95
4, 1064160, Note_on_c, 4, 43, 95
4, 1064640, Note_off_c, 4, 43, 95
4, 1064640, Note_on_c, 4, 45, 95
4, 1065120, Note_off_c, 4, 45, 95
4, 1065120, Note_on_c, 4, 46, 95
4, 1065600, Note_off_c, 4, 46, 95
4, 1065600, Note_on_c, 4, 50, 95
4, 1066080, Note_off_c, 4, 50, 95
4, 1066080, Note_on_c, 4, 49, 95
4, 1066560, Note_off_c, 4, 49, 95
4, 1066560, Note_on_c, 4, 45, 95
4, 1067040, Note_off_c, 4, 45, 95
4, 1067040, Note_on_c, 4, 50, 111
4, 1067040, Note_on_c, 4, 45, 111
4, 1067040, Note_on_c, 4, 40, 111
4, 1067104, Note_off_c, 4, 50, 111
4, 1067104, Note_off_c, 4, 45, 111
4, 1067104, Note_off_c, 4, 40, 111
4, 1067520, Note_on_c, 4, 50, 111
4, 1067520, Note_on_c, 4, 45, 111
4, 1067520, Note_on_c, 4, 40, 111
4, 1067584, Note_off_c, 4, 50, 111
4, 1067584, Note_off_c, 4, 45, 111
4, 1067584, Note_off_c, 4, 40, 111
4, 1068000, Note_on_c, 4, 50, 111
4, 1068000, Note_on_c, 4, 45, 111
4, 1068000, Note_on_c, 4, 40, 111
4, 1068064, Note_off_c, 4, 50, 111
4, 1068064, Note_off_c, 4, 45, 111
4, 1068064, Note_off_c, 4, 40, 111
4, 1068480, Note_on_c, 4, 43, 95
4, 1068960, Note_off_c, 4, 43, 95
4, 1068960, Note_on_c, 4, 45, 95
4, 1069440, Note_off_c, 4, 45, 95
4, 1069440, Note_on_c, 4, 46, 95
4, 1069920, Note_off_c, 4, 46, 95
4, 1069920, Note_on_c, 4, 50, 95
4, 1070400, Note_off_c, 4, 50, 95
4, 1070400, Note_on_c, 4, 49, 95
4, 1070880, Note_off_c, 4, 49, 95
4, 1070880, Note_on_c, 4, 53, 95
4, 1071360, Note_off_c, 4, 53, 95
4, 1071360, Note_on_c, 5, 52, 95
4, 1071520, Pitch_bend_c, 5, 8192
4, 1071680, Pitch_bend_c, 5, 8320
4, 1071840, Pitch_bend_c, 5, 8192
4, 1072000, Pitch_bend_c, 5, 8320
4, 1072160, Pitch_bend_c, 5, 8192
4, 1072320, Pitch_bend_c, 5, 8320
4, 1072320, Pitch_bend_c, 5, 8192
4, 1072320, Note_off_c, 5, 52, 95
4, 1072320, Note_on_c, 4, 43, 95
4, 1072800, Note_off_c, 4, 43, 95
4, 1072800, Note_on_c, 4, 45, 95
4, 1073280, Note_off_c, 4, 45, 95
4, 1073280, Note_on_c, 4, 46, 95
4, 1073760, Note_off_c, 4, 46, 95
4, 1073760, Note_on_c, 4, 50, 95
4, 1074240, Note_off_c, 4, 50, 95
4, 1074240, Note_on_c, 4, 49, 95
4, 1074720, Note_off_c, 4, 49, 95
4, 1074720, Note_on_c, 4, 46, 95
4, 1075200, Note_off_c, 4, 46, 95
4, 1075200, Note_on_c, 4, 45, 95
4, 1075680, Note_off_c, 4, 45, 95
4, 1075680, Note_on_c, 4, 58, 95
4, 1075680, Note_on_c, 4, 53, 95
4, 1075680, Note_on_c, 4, 46, 95
4, 1076160, Note_off_c, 4, 58, 95
4, 1076160, Note_off_c, 4, 53, 95
4, 1076160, Note_off_c, 4, 46, 95
4, 1076160, Note_on_c, 4, 57, 95
4, 1076160, Note_on_c, 4, 52, 95
4, 1076160, Note_on_c, 4, 45, 95
4, 1076640, Note_off_c, 4, 57, 95
4, 1076640, Note_off_c, 4, 52, 95
4, 1076640, Note_off_c, 4, 45, 95
4, 1076640, Note_on_c, 4, 45, 95
4, 1076768, Note_off_c, 4, 45, 95
4, 1077120, Note_on_c, 4, 53, 95
4, 1077120, Note_on_c, 4, 48, 95
4, 1077120, Note_on_c, 4, 41, 95
4, 1077600, Note_off_c, 4, 53, 95
4, 1077600, Note_off_c, 4, 48, 95
4, 1077600, Note_off_c, 4, 41, 95
4, 1077600, Note_on_c, 4, 52, 95
4, 1077600, Note_on_c, 4, 47, 95
4, 1077600, Note_on_c, 4, 40, 95
4, 1078080, Note_off_c, 4, 52, 95
4, 1078080, Note_off_c, 4, 47, 95
4, 1078080, Note_off_c, 4, 40, 95
4, 1078080, Note_on_c, 4, 45, 95
4, 1078208, Note_off_c, 4, 45, 95
4, 1078560, Note_on_c, 4, 57, 95
4, 1078560, Note_on_c, 4, 52, 95
4, 1078560, Note_on_c, 4, 45, 95
4, 1079040, Note_off_c, 4, 57, 95
4, 1079040, Note_off_c, 4, 52, 95
4, 1079040, Note_off_c, 4, 45, 95
4, 1079040, Note_on_c, 4, 58, 95
4, 1079040, Note_on_c, 4, 53, 95
4, 1079040, Note_on_c, 4, 46, 95
4, 1079520, Note_off_c, 4, 58, 95
4, 1079520, Note_off_c, 4, 53, 95
4, 1079520, Note_off_c, 4, 46, 95
4, 1079520, Pitch_bend_c, 5, 8192
4, 1079520, Note_on_c, 5, 74, 95
4, 1079541, Pitch_bend_c, 5, 8320
4, 1079562, Pitch_bend_c, 5, 8448
4, 1079583, Pitch_bend_c, 5, 8576
4, 1079604, Pitch_bend_c, 5, 8704
4, 1079625, Pitch_bend_c, 5, 8832
4, 1079646, Pitch_bend_c, 5, 8960
4, 1079667, Pitch_bend_c, 5, 9088
4, 1079688, Pitch_bend_c, 5, 9216
4, 1079709, Pitch_bend_c, 5, 9344
4, 1079730, Pitch_bend_c, 5, 9472
4, 1079751, Pitch_bend_c, 5, 9600
4, 1079760, Pitch_bend_c, 5, 9600
4, 1080000, Pitch_bend_c, 5, 9600
4, 1080240, Pitch_bend_c, 5, 9600
4, 1080960, Pitch_bend_c, 5, 9600
4, 1081440, Pitch_bend_c, 5, 9600
4, 1081680, Pitch_bend_c, 5, 9600
4, 1081701, Pitch_bend_c, 5, 9472
4, 1081722, Pitch_bend_c, 5, 9344
4, 1081743, Pitch_bend_c, 5, 9216
4, 1081764, Pitch_bend_c, 5, 9088
4, 1081785, Pitch_bend_c, 5, 8960
4, 1081806, Pitch_bend_c, 5, 8832
4, 1081827, Pitch_bend_c, 5, 8704
4, 1081848, Pitch_bend_c, 5, 8576
4, 1081869, Pitch_bend_c, 5, 8448
4, 1081890, Pitch_bend_c, 5, 8320
4, 1081911, Pitch_bend_c, 5, 8192
4, 1081920, Pitch_bend_c, 5, 8192
4, 1082160, Pitch_bend_c, 5, 8192
4, 1082400, Pitch_bend_c, 5, 8192
4, 1082400, Pitch_bend_c, 5, 8192
4, 1082400, Note_off_c, 5, 74, 95
4, 1082400, Note_on_c, 4, 73, 95
4, 1082880, Note_off_c, 4, 73, 95
4, 1082880, Note_on_c, 4, 74, 95
4, 1083360, Note_off_c, 4, 74, 95
4, 1083360, Note_on_c, 4, 73, 95
4, 1083600, Note_off_c, 4, 73, 95
4, 1083600, Note_on_c, 4, 74, 70
4, 1083840, Note_off_c, 4, 74, 70
4, 1083840, Note_on_c, 4, 73, 70
4, 1084080, Note_off_c, 4, 73, 70
4, 1084080, Note_on_c, 4, 70, 95
4, 1084320, Note_off_c, 4, 70, 95
4, 1084320, Note_on_c, 4, 73, 95
4, 1086240, Note_off_c, 4, 73, 95
4, 1086240, Note_on_c, 4, 70, 95
4, 1086720, Note_off_c, 4, 70, 95
4, 1086720, Note_on_c, 4, 73, 95
4, 1087200, Note_off_c, 4, 73, 95
4, 1087200, Note_on_c, 4, 69, 95
4, 1087680, Note_off_c, 4, 69, 95
4, 1087680, Note_on_c, 4, 70, 95
4, 1088160, Note_off_c, 4, 70, 95
4, 1088160, Note_on_c, 4, 69, 95
4, 1090080, Note_off_c, 4, 69, 95
4, 1090080, Note_on_c, 5, 64, 95
4, 1090200, Pitch_bend_c, 5, 8320
4, 1090320, Pitch_bend_c, 5, 8448
4, 1090440, Pitch_bend_c, 5, 8704
4, 1090560, Pitch_bend_c, 5, 8832
4, 1090560, Pitch_bend_c, 5, 8192
4, 1090560, Note_off_c, 5, 64, 95
4, 1090560, Note_on_c, 4, 65, 95
4, 1091040, Note_off_c, 4, 65, 95
4, 1091040, Note_on_c, 4, 64, 95
4, 1091520, Note_off_c, 4, 64, 95
4, 1091520, Note_on_c, 4, 65, 95
4, 1092000, Note_off_c, 4, 65, 95
4, 1092000, Note_on_c, 4, 64, 95
4, 1093920, Note_off_c, 4, 64, 95
4, 1093920, Note_on_c, 4, 74, 95
4, 1094400, Note_off_c, 4, 74, 95
4, 1094400, Note_on_c, 4, 70, 95
4, 1094880, Note_off_c, 4, 70, 95
4, 1094880, Note_on_c, 5, 73, 95
4, 1095040, Pitch_bend_c, 5, 8192
4, 1095200, Pitch_bend_c, 5, 8320
4, 1095360, Pitch_bend_c, 5, 8192
4, 1095520, Pitch_bend_c, 5, 8320
4, 1095680, Pitch_bend_c, 5, 8192
4, 1095840, Pitch_bend_c, 5, 8320
4, 1096000, Pitch_bend_c, 5, 8192
4, 1096160, Pitch_bend_c, 5, 8320
4, 1096320, Pitch_bend_c, 5, 8192
4, 1096320, Pitch_bend_c, 5, 8320
4, 1096320, Pitch_bend_c, 5, 8192
4, 1096320, Note_off_c, 5, 73, 95
4, 1096320, Note_on_c, 5, 70, 95
4, 1096480, Pitch_bend_c, 5, 8192
4, 1096640, Pitch_bend_c, 5, 8320
4, 1096800, Pitch_bend_c, 5, 8192
4, 1096960, Pitch_bend_c, 5, 8320
4, 1097120, Pitch_bend_c, 5, 8192
4, 1097280, Pitch_bend_c, 5, 8320
4, 1097280, Pitch_bend_c, 5, 8192
4, 1097280, Note_off_c, 5, 70, 95
4, 1097280, Note_on_c, 4, 73, 95
4, 1097520, Note_off_c, 4, 73, 95
4, 1097520, Note_on_c, 4, 70, 70
4, 1097760, Note_off_c, 4, 70, 70
4, 1097760, Note_on_c, 5, 69, 70
4, 1097920, Pitch_bend_c, 5, 8192
4, 1098080, Pitch_bend_c, 5, 8320
4, 1098240, Pitch_bend_c, 5, 8192
4, 1098400, Pitch_bend_c, 5, 8320
4, 1098560, Pitch_bend_c, 5, 8192
4, 1098720, Pitch_bend_c, 5, 8320
4, 1098720, Pitch_bend_c, 5, 8192
4, 1098720, Note_off_c, 5, 69, 70
4, 1098720, Note_on_c, 5, 67, 95
4, 1098880, Pitch_bend_c, 5, 8192
4, 1099040, Pitch_bend_c, 5, 8320
4, 1099200, Pitch_bend_c, 5, 8192
4, 1099360, Pitch_bend_c, 5, 8320
4, 1099520, Pitch_bend_c, 5, 8192
4, 1099680, Pitch_bend_c, 5, 8320
4, 1099840, Pitch_bend_c, 5, 8192
4, 1100000, Pitch_bend_c, 5, 8320
4, 1100160, Pitch_bend_c, 5, 8192
4, 1100160, Pitch_bend_c, 5, 8320
4, 1100160, Pitch_bend_c, 5, 8192
4, 1100160, Note_off_c, 5, 67, 95
4, 1100160, Note_on_c, 5, 65, 95
4, 1100320, Pitch_bend_c, 5, 8192
4, 1100480, Pitch_bend_c, 5, 8320
4, 1100640, Pitch_bend_c, 5, 8192
4, 1100800, Pitch_bend_c, 5, 8320
4, 1100960, Pitch_bend_c, 5, 8192
4, 1101120, Pitch_bend_c, 5, 8320
4, 1101280, Pitch_bend_c, 5, 8192
4, 1101440, Pitch_bend_c, 5, 8320
4, 1101600, Pitch_bend_c, 5, 8192
4, 1101600, Pitch_bend_c, 5, 8320
4, 1101600, Pitch_bend_c, 5, 8192
4, 1101600, Note_off_c, 5, 65, 95
4, 1101600, Note_on_c, 5, 70, 95
4, 1101760, Pitch_bend_c, 5, 8192
4, 1101920, Pitch_bend_c, 5, 8320
4, 1102080, Pitch_bend_c, 5, 8192
4, 1102240, Pitch_bend_c, 5, 8320
4, 1102400, Pitch_bend_c, 5, 8192
4, 1102560, Pitch_bend_c, 5, 8320
4, 1102560, Pitch_bend_c, 5, 8192
4, 1102560, Note_off_c, 5, 70, 95
4, 1102560, Note_on_c, 5, 69, 95
4, 1102720, Pitch_bend_c, 5, 8192
4, 1102880, Pitch_bend_c, 5, 8320
4, 1103040, Pitch_bend_c, 5, 8192
4, 1103200, Pitch_bend_c, 5, 8320
4, 1103360, Pitch_bend_c, 5, 8192
4, 1103520, Pitch_bend_c, 5, 8320
4, 1103680, Pitch_bend_c, 5, 8192
4, 1103840, Pitch_bend_c, 5, 8320
4, 1104000, Pitch_bend_c, 5, 8192
4, 1104160, Pitch_bend_c, 5, 8320
4, 1104320, Pitch_bend_c, 5, 8192
4, 1104480, Pitch_bend_c, 5, 8320
4, 1104640, Pitch_bend_c, 5, 8192
4, 1104800, Pitch_bend_c, 5, 8320
4, 1104960, Pitch_bend_c, 5, 8192
4, 1105120, Pitch_bend_c, 5, 8320
4, 1105280, Pitch_bend_c, 5, 8192
4, 1105440, Pitch_bend_c, 5, 8320
4, 1105440, Pitch_bend_c, 5, 8192
4, 1105440, Note_off_c, 5, 69, 95
4, 1105440, Note_on_c, 4, 76, 95
4, 1105920, Note_off_c, 4, 76, 95
4, 1105920, Note_on_c, 4, 77, 95
4, 1106400, Note_off_c, 4, 77, 95
4, 1106400, Note_on_c, 5, 76, 95
4, 1106560, Pitch_bend_c, 5, 8192
4, 1106720, Pitch_bend_c, 5, 8320
4, 1106880, Pitch_bend_c, 5, 8192
4, 1107040, Pitch_bend_c, 5, 8320
4, 1107200, Pitch_bend_c, 5, 8192
4, 1107360, Pitch_bend_c, 5, 8320
4, 1107520, Pitch_bend_c, 5, 8192
4, 1107680, Pitch_bend_c, 5, 8320
4, 1107840, Pitch_bend_c, 5, 8192
4, 1108000, Pitch_bend_c, 5, 8320
4, 1108160, Pitch_bend_c, 5, 8192
4, 1108320, Pitch_bend_c, 5, 8320
4, 1108480, Pitch_bend_c, 5, 8192
4, 1108640, Pitch_bend_c, 5, 8320
4, 1108800, Pitch_bend_c, 5, 8192
4, 1108960, Pitch_bend_c, 5, 8320
4, 1109120, Pitch_bend_c, 5, 8192
4, 1109280, Pitch_bend_c, 5, 8320
4, 1109440, Pitch_bend_c, 5, 8192
4, 1109600, Pitch_bend_c, 5, 8320
4, 1109760, Pitch_bend_c, 5, 8192
4, 1109920, Pitch_bend_c, 5, 8320
4, 1110080, Pitch_bend_c, 5, 8192
4, 1110240, Pitch_bend_c, 5, 8320
4, 1110240, Pitch_bend_c, 5, 8192
4, 1110240, Note_off_c, 5, 76, 95
4, 1110240, Note_on_c, 4, 77, 95
4, 1110480, Note_off_c, 4, 77, 95
4, 1110480, Note_on_c, 4, 74, 95
4, 1110720, Note_off_c, 4, 74, 95
4, 1110720, Note_on_c, 5, 76, 95
4, 1110880, Pitch_bend_c, 5, 8192
4, 1111040, Pitch_bend_c, 5, 8320
4, 1111200, Pitch_bend_c, 5, 8192
4, 1111360, Pitch_bend_c, 5, 8320
4, 1111440, Pitch_bend_c, 5, 8192
4, 1111440, Pitch_bend_c, 5, 8320
4, 1111440, Pitch_bend_c, 5, 8192
4, 1111440, Note_off_c, 5, 76, 95
4, 1111440, Note_on_c, 4, 74, 95
4, 1111680, Note_off_c, 4, 74, 95
4, 1111680, Note_on_c, 4, 70, 95
4, 1111920, Note_off_c, 4, 70, 95
4, 1111920, Note_on_c, 4, 74, 95
4, 1112160, Note_off_c, 4, 74, 95
4, 1112160, Note_on_c, 5, 73, 95
4, 1112320, Pitch_bend_c, 5, 8192
4, 1112480, Pitch_bend_c, 5, 8320
4, 1112640, Pitch_bend_c, 5, 8192
4, 1112800, Pitch_bend_c, 5, 8320
4, 1112960, Pitch_bend_c, 5, 8192
4, 1113120, Pitch_bend_c, 5, 8320
4, 1113120, Pitch_bend_c, 5, 8192
4, 1113120, Note_off_c, 5, 73, 95
4, 1113120, Note_on_c, 4, 74, 95
4, 1113360, Note_off_c, 4, 74, 95
4, 1113360, Note_on_c, 4, 70, 95
4, 1113600, Note_off_c, 4, 70, 95
4, 1113600, Note_on_c, 4, 73, 95
4, 1113840, Note_off_c, 4, 73, 95
4, 1113840, Note_on_c, 4, 70, 95
4, 1114080, Note_off_c, 4, 70, 95
4, 1114080, Note_on_c, 4, 69, 95
4, 1114320, Note_off_c, 4, 69, 95
4, 1114320, Note_on_c, 4, 70, 95
4, 1114560, Note_off_c, 4, 70, 95
4, 1114560, Note_on_c, 5, 67, 95
4, 1114720, Pitch_bend_c, 5, 8192
4, 1114880, Pitch_bend_c, 5, 8320
4, 1115040, Pitch_bend_c, 5, 8192
4, 1115200, Pitch_bend_c, 5, 8320
4, 1115360, Pitch_bend_c, 5, 8192
4, 1115520, Pitch_bend_c, 5, 8320
4, 1115520, Pitch_bend_c, 5, 8192
4, 1115520, Note_off_c, 5, 67, 95
4, 1115520, Note_on_c, 4, 85, 95
4, 1115760, Note_off_c, 4, 85, 95
4, 1115760, Note_on_c, 4, 81, 95
4, 1116000, Note_off_c, 4, 81, 95
4, 1116000, Note_on_c, 4, 82, 95
4, 1116240, Note_off_c, 4, 82, 95
4, 1116240, Note_on_c, 4, 85, 95
4, 1116360, Note_off_c, 4, 85, 95
4, 1116360, Note_on_c, 4, 82, 70
4, 1116480, Note_off_c, 4, 82, 70
4, 1116480, Note_on_c, 4, 81, 70
4, 1116720, Note_off_c, 4, 81, 70
4, 1116720, Note_on_c, 4, 79, 95
4, 1116960, Note_off_c, 4, 79, 95
4, 1116960, Note_on_c, 4, 81, 95
4, 1117200, Note_off_c, 4, 81, 95
4, 1117200, Note_on_c, 4, 79, 95
4, 1117440, Note_off_c, 4, 79, 95
4, 1117440, Note_on_c, 4, 77, 95
4, 1117680, Note_off_c, 4, 77, 95
4, 1117680, Note_on_c, 4, 76, 95
4, 1117920, Note_off_c, 4, 76, 95
4, 1117920, Note_on_c, 4, 77, 95
4, 1118160, Note_off_c, 4, 77, 95
4, 1118160, Note_on_c, 4, 86, 95
4, 1118400, Note_off_c, 4, 86, 95
4, 1118400, Note_on_c, 5, 85, 95
4, 1118560, Pitch_bend_c, 5, 8192
4, 1118720, Pitch_bend_c, 5, 8320
4, 1118880, Pitch_bend_c, 5, 8192
4, 1119040, Pitch_bend_c, 5, 8320
4, 1119200, Pitch_bend_c, 5, 8192
4, 1119360, Pitch_bend_c, 5, 8320
4, 1119360, Pitch_bend_c, 5, 8192
4, 1119360, Note_off_c, 5, 85, 95
4, 1119360, Note_on_c, 4, 81, 95
4, 1119600, Note_off_c, 4, 81, 95
4, 1119600, Note_on_c, 4, 77, 95
4, 1119840, Note_off_c, 4, 77, 95
4, 1119840, Note_on_c, 5, 79, 95
4, 1120000, Pitch_bend_c, 5, 8192
4, 1120160, Pitch_bend_c, 5, 8320
4, 1120320, Pitch_bend_c, 5, 8192
4, 1120480, Pitch_bend_c, 5, 8320
4, 1120640, Pitch_bend_c, 5, 8192
4, 1120800, Pitch_bend_c, 5, 8320
4, 1120800, Pitch_bend_c, 5, 8192
4, 1120800, Note_off_c, 5, 79, 95
4, 1120800, Note_on_c, 4, 79, 95
4, 1121040, Note_off_c, 4, 79, 95
4, 1121040, Note_on_c, 4, 76, 95
4, 1121280, Note_off_c, 4, 76, 95
4, 1121280, Note_on_c, 4, 77, 95
4, 1121520, Note_off_c, 4, 77, 95
4, 1121520, Note_on_c, 4, 76, 95
4, 1121760, Note_off_c, 4, 76, 95
4, 1121760, Note_on_c, 4, 74, 95
4, 1122000, Note_off_c, 4, 74, 95
4, 1122000, Note_on_c, 4, 76, 95
4, 1122240, Note_off_c, 4, 76, 95
4, 1122240, Note_on_c, 5, 73, 95
4, 1122400, Pitch_bend_c, 5, 8192
4, 1122560, Pitch_bend_c, 5, 8320
4, 1122720, Pitch_bend_c, 5, 8192
4, 1122880, Pitch_bend_c, 5, 8320
4, 1123040, Pitch_bend_c, 5, 8192
4, 1123200, Pitch_bend_c, 5, 8320
4, 1123200, Pitch_bend_c, 5, 8192
4, 1123200, Note_off_c, 5, 73, 95
4, 1123200, Note_on_c, 4, 74, 95
4, 1123440, Note_off_c, 4, 74, 95
4, 1123440, Note_on_c, 4, 70, 95
4, 1123680, Note_off_c, 4, 70, 95
4, 1123680, Note_on_c, 4, 73, 95
4, 1123920, Note_off_c, 4, 73, 95
4, 1123920, Note_on_c, 4, 70, 95
4, 1124160, Note_off_c, 4, 70, 95
4, 1124160, Note_on_c, 4, 69, 95
4, 1124400, Note_off_c, 4, 69, 95
4, 1124400, Note_on_c, 4, 70, 95
4, 1124640, Note_off_c, 4, 70, 95
4, 1124640, Note_on_c, 5, 67, 95
4, 1124800, Pitch_bend_c, 5, 8192
4, 1124960, Pitch_bend_c, 5, 8320
4, 1125120, Pitch_bend_c, 5, 8192
4, 1125280, Pitch_bend_c, 5, 8320
4, 1125440, Pitch_bend_c, 5, 8192
4, 1125600, Pitch_bend_c, 5, 8320
4, 1125600, Pitch_bend_c, 5, 8192
4, 1125600, Note_off_c, 5, 67, 95
4, 1125600, Note_on_c, 4, 77, 95
4, 1125840, Note_off_c, 4, 77, 95
4, 1125840, Note_on_c, 4, 74, 95
4, 1126080, Note_off_c, 4, 74, 95
4, 1126080, Note_on_c, 5, 76, 95
4, 1126240, Pitch_bend_c, 5, 8192
4, 1126400, Pitch_bend_c, 5, 8320
4, 1126560, Pitch_bend_c, 5, 8192
4, 1126720, Pitch_bend_c, 5, 8320
4, 1126800, Pitch_bend_c, 5, 8192
4, 1126800, Pitch_bend_c, 5, 8320
4, 1126800, Pitch_bend_c, 5, 8192
4, 1126800, Note_off_c, 5, 76, 95
4, 1126800, Note_on_c, 4, 74, 95
4, 1127040, Note_off_c, 4, 74, 95
4, 1127040, Note_on_c, 4, 70, 95
4, 1127280, Note_off_c, 4, 70, 95
4, 1127280, Note_on_c, 4, 74, 95
4, 1127520, Note_off_c, 4, 74, 95
4, 1127520, Note_on_c, 5, 73, 95
4, 1127680, Pitch_bend_c, 5, 8192
4, 1127840, Pitch_bend_c, 5, 8320
4, 1128000, Pitch_bend_c, 5, 8192
4, 1128160, Pitch_bend_c, 5, 8320
4, 1128320, Pitch_bend_c, 5, 8192
4, 1128480, Pitch_bend_c, 5, 8320
4, 1128480, Pitch_bend_c, 5, 8192
4, 1128480, Note_off_c, 5, 73, 95
4, 1128480, Note_on_c, 4, 86, 95
4, 1128720, Note_off_c, 4, 86, 95
4, 1128720, Note_on_c, 4, 82, 95
4, 1128960, Note_off_c, 4, 82, 95
4, 1128960, Note_on_c, 4, 85, 95
4, 1129200, Note_off_c, 4, 85, 95
4, 1129200, Note_on_c, 4, 82, 95
4, 1129440, Note_off_c, 4, 82, 95
4, 1129440, Note_on_c, 4, 81, 95
4, 1129680, Note_off_c, 4, 81, 95
4, 1129680, Note_on_c, 4, 82, 95
4, 1129920, Note_off_c, 4, 82, 95
4, 1129920, Note_on_c, 5, 79, 95
4, 1130080, Pitch_bend_c, 5, 8192
4, 1130240, Pitch_bend_c, 5, 8320
4, 1130400, Pitch_bend_c, 5, 8192
4, 1130560, Pitch_bend_c, 5, 8320
4, 1130720, Pitch_bend_c, 5, 8192
4, 1130880, Pitch_bend_c, 5, 8320
4, 1130880, Pitch_bend_c, 5, 8192
4, 1130880, Note_off_c, 5, 79, 95
4, 1130880, Note_on_c, 4, 82, 95
4, 1131120, Note_off_c, 4, 82, 95
4, 1131120, Note_on_c, 4, 79, 95
4, 1131360, Note_off_c, 4, 79, 95
4, 1131360, Note_on_c, 4, 81, 95
4, 1131600, Note_off_c, 4, 81, 95
4, 1131600, Note_on_c, 4, 82, 95
4, 1131720, Note_off_c, 4, 82, 95
4, 1131720, Note_on_c, 4, 81, 70
4, 1131840, Note_off_c, 4, 81, 70
4, 1131840, Note_on_c, 4, 79, 70
4, 1132080, Note_off_c, 4, 79, 70
4, 1132080, Note_on_c, 4, 77, 95
4, 1132320, Note_off_c, 4, 77, 95
4, 1132320, Note_on_c, 4, 79, 95
4, 1132560, Note_off_c, 4, 79, 95
4, 1132560, Note_on_c, 4, 77, 95
4, 1132800, Note_off_c, 4, 77, 95
4, 1132800, Note_on_c, 4, 76, 95
4, 1133040, Note_off_c, 4, 76, 95
4, 1133040, Note_on_c, 4, 74, 95
4, 1133280, Note_off_c, 4, 74, 95
4, 1133280, Note_on_c, 4, 76, 95
4, 1133520, Note_off_c, 4, 76, 95
4, 1133520, Note_on_c, 4, 82, 95
4, 1133760, Note_off_c, 4, 82, 95
4, 1133760, Note_on_c, 5, 81, 95
4, 1133920, Pitch_bend_c, 5, 8192
4, 1134080, Pitch_bend_c, 5, 8320
4, 1134240, Pitch_bend_c, 5, 8192
4, 1134400, Pitch_bend_c, 5, 8320
4, 1134560, Pitch_bend_c, 5, 8192
4, 1134720, Pitch_bend_c, 5, 8320
4, 1134720, Pitch_bend_c, 5, 8192
4, 1134720, Note_off_c, 5, 81, 95
4, 1134720, Note_on_c, 4, 79, 95
4, 1134960, Note_off_c, 4, 79, 95
4, 1134960, Note_on_c, 4, 76, 95
4, 1135200, Note_off_c, 4, 76, 95
4, 1135200, Note_on_c, 5, 77, 95
4, 1135360, Pitch_bend_c, 5, 8192
4, 1135520, Pitch_bend_c, 5, 8320
4, 1135680, Pitch_bend_c, 5, 8192
4, 1135840, Pitch_bend_c, 5, 8320
4, 1136000, Pitch_bend_c, 5, 8192
4, 1136160, Pitch_bend_c, 5, 8320
4, 1136160, Pitch_bend_c, 5, 8192
4, 1136160, Note_off_c, 5, 77, 95
4, 1136160, Note_on_c, 4, 76, 95
4, 1136400, Note_off_c, 4, 76, 95
4, 1136400, Note_on_c, 4, 73, 95
4, 1136640, Note_off_c, 4, 73, 95
4, 1136640, Note_on_c, 4, 74, 95
4, 1136880, Note_off_c, 4, 74, 95
4, 1136880, Note_on_c, 4, 73, 95
4, 1137120, Note_off_c, 4, 73, 95
4, 1137120, Note_on_c, 4, 70, 95
4, 1137360, Note_off_c, 4, 70, 95
4, 1137360, Note_on_c, 4, 73, 95
4, 1137600, Note_off_c, 4, 73, 95
4, 1137600, Note_on_c, 5, 69, 95
4, 1137760, Pitch_bend_c, 5, 8192
4, 1137920, Pitch_bend_c, 5, 8320
4, 1138080, Pitch_bend_c, 5, 8192
4, 1138240, Pitch_bend_c, 5, 8320
4, 1138400, Pitch_bend_c, 5, 8192
4, 1138560, Pitch_bend_c, 5, 8320
4, 1138560, Pitch_bend_c, 5, 8192
4, 1138560, Note_off_c, 5, 69, 95
4, 1138560, Note_on_c, 4, 64, 95
4, 1138800, Note_off_c, 4, 64, 95
4, 1138800, Note_on_c, 4, 61, 95
4, 1139040, Note_off_c, 4, 61, 95
4, 1139040, Note_on_c, 4, 62, 95
4, 1139280, Note_off_c, 4, 62, 95
4, 1139280, Note_on_c, 4, 61, 95
4, 1139520, Note_off_c, 4, 61, 95
4, 1139520, Note_on_c, 4, 58, 95
4, 1139760, Note_off_c, 4, 58, 95
4, 1139760, Note_on_c, 4, 61, 95
4, 1140000, Note_off_c, 4, 61, 95
4, 1140000, Note_on_c, 5, 57, 95
4, 1140160, Pitch_bend_c, 5, 8192
4, 1140320, Pitch_bend_c, 5, 8320
4, 1140480, Pitch_bend_c, 5, 8192
4, 1140640, Pitch_bend_c, 5, 8320
4, 1140800, Pitch_bend_c, 5, 8192
4, 1140960, Pitch_bend_c, 5, 8320
4, 1140960, Pitch_bend_c, 5, 8192
4, 1140960, Note_off_c, 5, 57, 95
4, 1140960, Note_on_c, 4, 77, 95
4, 1141200, Note_off_c, 4, 77, 95
4, 1141200, Note_on_c, 4, 74, 95
4, 1141440, Note_off_c, 4, 74, 95
4, 1141440, Note_on_c, 5, 76, 95
4, 1141600, Pitch_bend_c, 5, 8192
4, 1141760, Pitch_bend_c, 5, 8320
4, 1141920, Pitch_bend_c, 5, 8192
4, 1142080, Pitch_bend_c, 5, 8320
4, 1142160, Pitch_bend_c, 5, 8192
4, 1142160, Pitch_bend_c, 5, 8320
4, 1142160, Pitch_bend_c, 5, 8192
4, 1142160, Note_off_c, 5, 76, 95
4, 1142160, Note_on_c, 4, 74, 95
4, 1142400, Note_off_c, 4, 74, 95
4, 1142400, Note_on_c, 4, 73, 95
4, 1142640, Note_off_c, 4, 73, 95
4, 1142640, Note_on_c, 4, 74, 95
4, 1142880, Note_off_c, 4, 74, 95
4, 1142880, Note_on_c, 5, 70, 95
4, 1143040, Pitch_bend_c, 5, 8192
4, 1143200, Pitch_bend_c, 5, 8320
4, 1143360, Pitch_bend_c, 5, 8192
4, 1143520, Pitch_bend_c, 5, 8320
4, 1143680, Pitch_bend_c, 5, 8192
4, 1143840, Pitch_bend_c, 5, 8320
4, 1143840, Pitch_bend_c, 5, 8192
4, 1143840, Note_off_c, 5, 70, 95
4, 1143840, Note_on_c, 4, 74, 95
4, 1144080, Note_off_c, 4, 74, 95
4, 1144080, Note_on_c, 4, 70, 95
4, 1144320, Note_off_c, 4, 70, 95
4, 1144320, Note_on_c, 4, 73, 95
4, 1144560, Note_off_c, 4, 73, 95
4, 1144560, Note_on_c, 4, 70, 95
4, 1144800, Note_off_c, 4, 70, 95
4, 1144800, Note_on_c, 4, 69, 95
4, 1145040, Note_off_c, 4, 69, 95
4, 1145040, Note_on_c, 4, 70, 95
4, 1145280, Note_off_c, 4, 70, 95
4, 1145280, Note_on_c, 4, 67, 95
4, 1145520, Note_off_c, 4, 67, 95
4, 1145520, Note_on_c, 4, 69, 95
4, 1145760, Note_off_c, 4, 69, 95
4, 1145760, Note_on_c, 4, 70, 95
4, 1146000, Note_off_c, 4, 70, 95
4, 1146000, Note_on_c, 4, 73, 95
4, 1146240, Note_off_c, 4, 73, 95
4, 1146240, Note_on_c, 5, 70, 95
4, 1146400, Pitch_bend_c, 5, 8192
4, 1146560, Pitch_bend_c, 5, 8320
4, 1146720, Pitch_bend_c, 5, 8192
4, 1146880, Pitch_bend_c, 5, 8320
4, 1147040, Pitch_bend_c, 5, 8192
4, 1147200, Pitch_bend_c, 5, 8320
4, 1147200, Pitch_bend_c, 5, 8192
4, 1147200, Note_off_c, 5, 70, 95
4, 1147200, Note_on_c, 4, 77, 95
4, 1147440, Note_off_c, 4, 77, 95
4, 1147440, Note_on_c, 4, 74, 95
4, 1147680, Note_off_c, 4, 74, 95
4, 1147680, Note_on_c, 4, 76, 95
4, 1147920, Note_off_c, 4, 76, 95
4, 1147920, Note_on_c, 4, 77, 95
4, 1148040, Note_off_c, 4, 77, 95
4, 1148040, Note_on_c, 4, 76, 70
4, 1148160, Note_off_c, 4, 76, 70
4, 1148160, Note_on_c, 4, 74, 70
4, 1148400, Note_off_c, 4, 74, 70
4, 1148400, Note_on_c, 4, 73, 95
4, 1148640, Note_off_c, 4, 73, 95
4, 1148640, Note_on_c, 4, 65, 95
4, 1148760, Note_off_c, 4, 65, 95
4, 1148760, Note_on_c, 4, 64, 70
4, 1148880, Note_off_c, 4, 64, 70
4, 1148880, Note_on_c, 4, 62, 70
4, 1149000, Note_off_c, 4, 62, 70
4, 1149000, Note_on_c, 4, 61, 95
4, 1149120, Note_off_c, 4, 61, 95
4, 1149120, Note_on_c, 4, 58, 70
4, 1149240, Note_off_c, 4, 58, 70
4, 1149240, Note_on_c, 4, 57, 70
4, 1149360, Note_off_c, 4, 57, 70
4, 1149360, Note_on_c, 4, 55, 95
4, 1149480, Note_off_c, 4, 55, 95
4, 1149480, Note_on_c, 4, 53, 70
4, 1149600, Note_off_c, 4, 53, 70
4, 1149600, Note_on_c, 5, 65, 95
4, 1149760, Pitch_bend_c, 5, 8192
4, 1149920, Pitch_bend_c, 5, 8320
4, 1150080, Pitch_bend_c, 5, 8192
4, 1150240, Pitch_bend_c, 5, 8320
4, 1150400, Pitch_bend_c, 5, 8192
4, 1150560, Pitch_bend_c, 5, 8320
4, 1150560, Pitch_bend_c, 5, 8192
4, 1150560, Note_off_c, 5, 65, 95
4, 1150560, Note_on_c, 4, 81, 95
4, 1150800, Note_off_c, 4, 81, 95
4, 1150800, Note_on_c, 4, 77, 95
4, 1151040, Note_off_c, 4, 77, 95
4, 1151040, Note_on_c, 4, 79, 95
4, 1151280, Note_off_c, 4, 79, 95
4, 1151280, Note_on_c, 4, 81, 95
4, 1151520, Note_off_c, 4, 81, 95
4, 1151520, Note_on_c, 4, 79, 95
4, 1151760, Note_off_c, 4, 79, 95
4, 1151760, Note_on_c, 4, 77, 95
4, 1152000, Note_off_c, 4, 77, 95
4, 1152000, Note_on_c, 4, 76, 95
4, 1152240, Note_off_c, 4, 76, 95
4, 1152240, Note_on_c, 4, 74, 95
4, 1152480, Note_off_c, 4, 74, 95
4, 1152480, Note_on_c, 4, 76, 95
4, 1152720, Note_off_c, 4, 76, 95
4, 1152720, Note_on_c, 4, 74, 95
4, 1152960, Note_off_c, 4, 74, 95
4, 1152960, Note_on_c, 4, 70, 95
4, 1153200, Note_off_c, 4, 70, 95
4, 1153200, Note_on_c, 4, 69, 95
4, 1153440, Note_off_c, 4, 69, 95
4, 1153440, Note_on_c, 4, 67, 95
4, 1153680, Note_off_c, 4, 67, 95
4, 1153680, Note_on_c, 4, 65, 95
4, 1153920, Note_off_c, 4, 65, 95
4, 1153920, Note_on_c, 4, 76, 95
4, 1154160, Note_off_c, 4, 76, 95
4, 1154160, Note_on_c, 4, 74, 95
4, 1154400, Note_off_c, 4, 74, 95
4, 1154400, Note_on_c, 4, 73, 95
4, 1154640, Note_off_c, 4, 73, 95
4, 1154640, Note_on_c, 4, 71, 95
4, 1154880, Note_off_c, 4, 71, 95
4, 1154880, Note_on_c, 4, 81, 95
4, 1155120, Note_off_c, 4, 81, 95
4, 1155120, Note_on_c, 4, 76, 95
4, 1155360, Note_off_c, 4, 76, 95
4, 1155360, Note_on_c, 5, 85, 95
4, 1155520, Pitch_bend_c, 5, 8192
4, 1155680, Pitch_bend_c, 5, 8320
4, 1155840, Pitch_bend_c, 5, 8192
4, 1156000, Pitch_bend_c, 5, 8320
4, 1156160, Pitch_bend_c, 5, 8192
4, 1156320, Pitch_bend_c, 5, 8320
4, 1156320, Pitch_bend_c, 5, 8192
4, 1156320, Note_off_c, 5, 85, 95
4, 1156320, Note_on_c, 4, 43, 95
4, 1156800, Note_off_c, 4, 43, 95
4, 1156800, Note_on_c, 4, 45, 95
4, 1157280, Note_off_c, 4, 45, 95
4, 1157280, Note_on_c, 4, 46, 95
4, 1157760, Note_off_c, 4, 46, 95
4, 1157760, Note_on_c, 4, 50, 95
4, 1158240, Note_off_c, 4, 50, 95
4, 1158240, Note_on_c, 4, 49, 95
4, 1158720, Note_off_c, 4, 49, 95
4, 1158720, Note_on_c, 4, 45, 95
4, 1159200, Note_off_c, 4, 45, 95
4, 1160160, Note_on_c, 4, 55, 95
4, 1160160, Note_on_c, 4, 50, 95
4, 1160160, Note_on_c, 4, 45, 95
4, 1160160, Note_on_c, 4, 40, 95
4, 1160224, Note_off_c, 4, 55, 95
4, 1160224, Note_off_c, 4, 50, 95
4, 1160224, Note_off_c, 4, 45, 95
4, 1160224, Note_off_c, 4, 40, 95
4, 1160640, Note_on_c, 4, 43, 95
4, 1161120, Note_off_c, 4, 43, 95
4, 1161120, Note_on_c, 4, 45, 95
4, 1161600, Note_off_c, 4, 45, 95
4, 1161600, Note_on_c, 4, 46, 95
4, 1162080, Note_off_c, 4, 46, 95
4, 1162080, Note_on_c, 4, 50, 95
4, 1162560, Note_off_c, 4, 50, 95
4, 1162560, Note_on_c, 4, 49, 95
4, 1163040, Note_off_c, 4, 49, 95
4, 1163040, Note_on_c, 4, 53, 95
4, 1163520, Note_off_c, 4, 53, 95
4, 1163520, Note_on_c, 5, 52, 95
4, 1163680, Pitch_bend_c, 5, 8192
4, 1163840, Pitch_bend_c, 5, 8320
4, 1164000, Pitch_bend_c, 5, 8192
4, 1164160, Pitch_bend_c, 5, 8320
4, 1164320, Pitch_bend_c, 5, 8192
4, 1164480, Pitch_bend_c, 5, 8320
4, 1164480, Pitch_bend_c, 5, 8192
4, 1164480, Note_off_c, 5, 52, 95
4, 1164480, Note_on_c, 4, 43, 95
4, 1164960, Note_off_c, 4, 43, 95
4, 1164960, Note_on_c, 4, 46, 95
4, 1165440, Note_off_c, 4, 46, 95
4, 1165440, Note_on_c, 4, 50, 95
4, 1165920, Note_off_c, 4, 50, 95
4, 1165920, Note_on_c, 4, 49, 95
4, 1166400, Note_off_c, 4, 49, 95
4, 1166400, Note_on_c, 4, 45, 95
4, 1166880, Note_off_c, 4, 45, 95
4, 1167360, Note_on_c, 5, 52, 95
4, 1167360, Note_on_c, 5, 45, 95
4, 1167480, Pitch_bend_c, 5, 8320
4, 1167480, Pitch_bend_c, 5, 8320
4, 1167600, Pitch_bend_c, 5, 8448
4, 1167600, Pitch_bend_c, 5, 8448
4, 1167720, Pitch_bend_c, 5, 8704
4, 1167720, Pitch_bend_c, 5, 8704
4, 1167840, Pitch_bend_c, 5, 8832
4, 1167840, Pitch_bend_c, 5, 8192
4, 1167840, Note_off_c, 5, 52, 95
4, 1167840, Pitch_bend_c, 5, 8832
4, 1167840, Pitch_bend_c, 5, 8192
4, 1167840, Note_off_c, 5, 45, 95
4, 1167840, Note_on_c, 4, 53, 95
4, 1167840, Note_on_c, 4, 46, 95
4, 1168320, Note_off_c, 4, 53, 95
4, 1168320, Note_off_c, 4, 46, 95
4, 1168320, Note_on_c, 4, 50, 95
4, 1168320, Note_on_c, 4, 43, 95
4, 1168800, Note_off_c, 4, 50, 95
4, 1168800, Note_off_c, 4, 43, 95
4, 1169280, Note_on_c, 5, 48, 95
4, 1169280, Note_on_c, 5, 41, 95
4, 1169400, Pitch_bend_c, 5, 8448
4, 1169400, Pitch_bend_c, 5, 8448
4, 1169520, Pitch_bend_c, 5, 8832
4, 1169520, Pitch_bend_c, 5, 8832
4, 1169640, Pitch_bend_c, 5, 9216
4, 1169640, Pitch_bend_c, 5, 9216
4, 1169760, Pitch_bend_c, 5, 9600
4, 1169760, Pitch_bend_c, 5, 8192
4, 1169760, Note_off_c, 5, 48, 95
4, 1169760, Pitch_bend_c, 5, 9600
4, 1169760, Pitch_bend_c, 5, 8192
4, 1169760, Note_off_c, 5, 41, 95
4, 1169760, Note_on_c, 4, 50, 95
4, 1169760, Note_on_c, 4, 43, 95
4, 1170240, Note_off_c, 4, 50, 95
4, 1170240, Note_off_c, 4, 43, 95
4, 1170240, Note_on_c, 4, 47, 95
4, 1170240, Note_on_c, 4, 40, 95
4, 1170720, Note_off_c, 4, 47, 95
4, 1170720, Note_off_c, 4, 40, 95
4, 1171200, Note_on_c, 4, 40, 95
4, 1171680, Note_off_c, 4, 40, 95
4, 1171680, Note_on_c, 4, 41, 95
4, 1172160, Note_off_c, 4, 41, 95
4, 1172160, Note_on_c, 4, 48, 95
4, 1172640, Note_off_c, 4, 48, 95
4, 1172640, Note_on_c, 5, 53, 95
4, 1172800, Pitch_bend_c, 5, 8192
4, 1172960, Pitch_bend_c, 5, 8320
4, 1173120, Pitch_bend_c, 5, 8192
4, 1173280, Pitch_bend_c, 5, 8320
4, 1173440, Pitch_bend_c, 5, 8192
4, 1173600, Pitch_bend_c, 5, 8320
4, 1173760, Pitch_bend_c, 5, 8192
4, 1173920, Pitch_bend_c, 5, 8320
4, 1174080, Pitch_bend_c, 5, 8192
4, 1174080, Pitch_bend_c, 5, 8320
4, 1174080, Pitch_bend_c, 5, 8192
4, 1174080, Note_off_c, 5, 53, 95
4, 1174080, Note_on_c, 4, 43, 95
4, 1174560, Note_off_c, 4, 43, 95
4, 1174560, Note_on_c, 5, 50, 95
4, 1174720, Pitch_bend_c, 5, 8192
4, 1174880, Pitch_bend_c, 5, 8320
4, 1175040, Pitch_bend_c, 5, 8192
4, 1175200, Pitch_bend_c, 5, 8320
4, 1175360, Pitch_bend_c, 5, 8192
4, 1175520, Pitch_bend_c, 5, 8320
4, 1175680, Pitch_bend_c, 5, 8192
4, 1175840, Pitch_bend_c, 5, 8320
4, 1176000, Pitch_bend_c, 5, 8192
4, 1176000, Pitch_bend_c, 5, 8320
4, 1176000, Pitch_bend_c, 5, 8192
4, 1176000, Note_off_c, 5, 50, 95
4, 1176000, Note_on_c, 4, 45, 95
4, 1176480, Note_off_c, 4, 45, 95
4, 1176480, Note_on_c, 5, 52, 95
4, 1176640, Pitch_bend_c, 5, 8192
4, 1176800, Pitch_bend_c, 5, 8320
4, 1176960, Pitch_bend_c, 5, 8192
4, 1177120, Pitch_bend_c, 5, 8320
4, 1177280, Pitch_bend_c, 5, 8192
4, 1177440, Pitch_bend_c, 5, 8320
4, 1177600, Pitch_bend_c, 5, 8192
4, 1177760, Pitch_bend_c, 5, 8320
4, 1177920, Pitch_bend_c, 5, 8192
4, 1177920, Pitch_bend_c, 5, 8320
4, 1177920, Pitch_bend_c, 5, 8192
4, 1177920, Note_off_c, 5, 52, 95
4, 1177920, Note_on_c, 4, 43, 95
4, 1178400, Note_off_c, 4, 43, 95
4, 1178400, Note_on_c, 4, 50, 95
4, 1178880, Note_off_c, 4, 50, 95
4, 1178880, Note_on_c, 4, 41, 95
4, 1179840, Note_off_c, 4, 41, 95
4, 1179840, Note_on_c, 4, 48, 95
4, 1180320, Note_off_c, 4, 48, 95
4, 1180320, Note_on_c, 5, 53, 95
4, 1180480, Pitch_bend_c, 5, 8192
4, 1180640, Pitch_bend_c, 5, 8320
4, 1180800, Pitch_bend_c, 5, 8192
4, 1180960, Pitch_bend_c, 5, 8320
4, 1181120, Pitch_bend_c, 5, 8192
4, 1181280, Pitch_bend_c, 5, 8320
4, 1181440, Pitch_bend_c, 5, 8192
4, 1181600, Pitch_bend_c, 5, 8320
4, 1181760, Pitch_bend_c, 5, 8192
4, 1181760, Pitch_bend_c, 5, 8320
4, 1181760, Pitch_bend_c, 5, 8192
4, 1181760, Note_off_c, 5, 53, 95
4, 1181760, Note_on_c, 4, 43, 31
4, 1181760, Note_on_c, 4, 55, 95
4, 1183200, Note_off_c, 4, 43, 31
4, 1183200, Note_off_c, 4, 55, 95
4, 1183200, Note_on_c, 4, 57, 95
4, 1183200, Note_on_c, 4, 52, 95
4, 1183200, Note_on_c, 4, 45, 95
4, 1184160, Note_off_c, 4, 57, 95
4, 1184160, Note_off_c, 4, 52, 95
4, 1184640, Note_off_c, 4, 45, 95
4, 1184640, Note_on_c, 4, 55, 95
4, 1184640, Note_on_c, 4, 50, 95
4, 1184640, Note_on_c, 4, 43, 95
4, 1185600, Note_off_c, 4, 55, 95
4, 1185600, Note_off_c, 4, 50, 95
4, 1185600, Note_off_c, 4, 43, 95
4, 1185600, Note_on_c, 4, 52, 95
4, 1185600, Note_on_c, 4, 47, 95
4, 1185600, Note_on_c, 4, 40, 95
4, 1186560, Note_off_c, 4, 52, 95
4, 1186560, Note_off_c, 4, 47, 95
4, 1186560, Note_off_c, 4, 40, 95
4, 1186560, Note_on_c, 4, 53, 95
4, 1186560, Note_on_c, 4, 48, 95
4, 1186560, Note_on_c, 4, 41, 95
4, 1187520, Note_off_c, 4, 53, 95
4, 1187520, Note_off_c, 4, 48, 95
4, 1187520, Note_off_c, 4, 41, 95
4, 1187520, Note_on_c, 4, 48, 95
4, 1188000, Note_off_c, 4, 48, 95
4, 1188000, Note_on_c, 5, 53, 95
4, 1188160, Pitch_bend_c, 5, 8192
4, 1188320, Pitch_bend_c, 5, 8320
4, 1188480, Pitch_bend_c, 5, 8192
4, 1188640, Pitch_bend_c, 5, 8320
4, 1188800, Pitch_bend_c, 5, 8192
4, 1188960, Pitch_bend_c, 5, 8320
4, 1189120, Pitch_bend_c, 5, 8192
4, 1189280, Pitch_bend_c, 5, 8320
4, 1189440, Pitch_bend_c, 5, 8192
4, 1189440, Pitch_bend_c, 5, 8320
4, 1189440, Pitch_bend_c, 5, 8192
4, 1189440, Note_off_c, 5, 53, 95
4, 1189440, Note_on_c, 4, 43, 95
4, 1189920, Note_off_c, 4, 43, 95
4, 1189920, Note_on_c, 5, 50, 95
4, 1190080, Pitch_bend_c, 5, 8192
4, 1190240, Pitch_bend_c, 5, 8320
4, 1190400, Pitch_bend_c, 5, 8192
4, 1190560, Pitch_bend_c, 5, 8320
4, 1190720, Pitch_bend_c, 5, 8192
4, 1190880, Pitch_bend_c, 5, 8320
4, 1191040, Pitch_bend_c, 5, 8192
4, 1191200, Pitch_bend_c, 5, 8320
4, 1191360, Pitch_bend_c, 5, 8192
4, 1191360, Pitch_bend_c, 5, 8320
4, 1191360, Pitch_bend_c, 5, 8192
4, 1191360, Note_off_c, 5, 50, 95
4, 1191360, Note_on_c, 4, 45, 95
4, 1191840, Note_off_c, 4, 45, 95
4, 1191840, Note_on_c, 5, 52, 95
4, 1192000, Pitch_bend_c, 5, 8192
4, 1192160, Pitch_bend_c, 5, 8320
4, 1192320, Pitch_bend_c, 5, 8192
4, 1192480, Pitch_bend_c, 5, 8320
4, 1192640, Pitch_bend_c, 5, 8192
4, 1192800, Pitch_bend_c, 5, 8320
4, 1192960, Pitch_bend_c, 5, 8192
4, 1193120, Pitch_bend_c, 5, 8320
4, 1193280, Pitch_bend_c, 5, 8192
4, 1193280, Pitch_bend_c, 5, 8320
4, 1193280, Pitch_bend_c, 5, 8192
4, 1193280, Note_off_c, 5, 52, 95
4, 1193280, Note_on_c, 4, 43, 95
4, 1193760, Note_off_c, 4, 43, 95
4, 1193760, Note_on_c, 4, 50, 95
4, 1194240, Note_off_c, 4, 50, 95
4, 1194240, Note_on_c, 4, 41, 95
4, 1195200, Note_off_c, 4, 41, 95
4, 1195200, Note_on_c, 4, 48, 95
4, 1195680, Note_off_c, 4, 48, 95
4, 1195680, Note_on_c, 5, 53, 95
4, 1195840, Pitch_bend_c, 5, 8192
4, 1196000, Pitch_bend_c, 5, 8320
4, 1196160, Pitch_bend_c, 5, 8192
4, 1196320, Pitch_bend_c, 5, 8320
4, 1196480, Pitch_bend_c, 5, 8192
4, 1196640, Pitch_bend_c, 5, 8320
4, 1196800, Pitch_bend_c, 5, 8192
4, 1196960, Pitch_bend_c, 5, 8320
4, 1197120, Pitch_bend_c, 5, 8192
4, 1197120, Pitch_bend_c, 5, 8320
4, 1197120, Pitch_bend_c, 5, 8192
4, 1197120, Note_off_c, 5, 53, 95
4, 1197120, Note_on_c, 4, 40, 95
4, 1197600, Note_off_c, 4, 40, 95
4, 1197600, Note_on_c, 4, 43, 95
4, 1198080, Note_off_c, 4, 43, 95
4, 1198080, Note_on_c, 4, 47, 95
4, 1198560, Note_off_c, 4, 47, 95
4, 1198560, Note_on_c, 4, 57, 95
4, 1198560, Note_on_c, 4, 52, 95
4, 1198560, Note_on_c, 4, 45, 95
4, 1200000, Note_off_c, 4, 57, 95
4, 1200000, Note_off_c, 4, 52, 95
4, 1200000, Note_off_c, 4, 45, 95
4, 1200000, Note_on_c, 4, 59, 95
4, 1200480, Note_off_c, 4, 59, 95
4, 1200960, Note_on_c, 4, 60, 95
4, 1201440, Note_off_c, 4, 60, 95
4, 1201920, Note_on_c, 4, 41, 95
4, 1202880, Note_off_c, 4, 41, 95
4, 1202880, Note_on_c, 4, 48, 95
4, 1203360, Note_off_c, 4, 48, 95
4, 1203360, Note_on_c, 5, 53, 95
4, 1203520, Pitch_bend_c, 5, 8192
4, 1203680, Pitch_bend_c, 5, 8320
4, 1203840, Pitch_bend_c, 5, 8192
4, 1204000, Pitch_bend_c, 5, 8320
4, 1204160, Pitch_bend_c, 5, 8192
4, 1204320, Pitch_bend_c, 5, 8320
4, 1204480, Pitch_bend_c, 5, 8192
4, 1204640, Pitch_bend_c, 5, 8320
4, 1204800, Pitch_bend_c, 5, 8192
4, 1204800, Pitch_bend_c, 5, 8320
4, 1204800, Pitch_bend_c, 5, 8192
4, 1204800, Note_off_c, 5, 53, 95
4, 1204800, Note_on_c, 4, 43, 95
4, 1205280, Note_off_c, 4, 43, 95
4, 1205280, Note_on_c, 4, 50, 95
4, 1206720, Note_off_c, 4, 50, 95
4, 1206720, Note_on_c, 4, 45, 95
4, 1207200, Note_off_c, 4, 45, 95
4, 1207200, Note_on_c, 5, 52, 95
4, 1207360, Pitch_bend_c, 5, 8192
4, 1207520, Pitch_bend_c, 5, 8320
4, 1207680, Pitch_bend_c, 5, 8192
4, 1207840, Pitch_bend_c, 5, 8320
4, 1208000, Pitch_bend_c, 5, 8192
4, 1208160, Pitch_bend_c, 5, 8320
4, 1208320, Pitch_bend_c, 5, 8192
4, 1208480, Pitch_bend_c, 5, 8320
4, 1208640, Pitch_bend_c, 5, 8192
4, 1208640, Pitch_bend_c, 5, 8320
4, 1208640, Pitch_bend_c, 5, 8192
4, 1208640, Note_off_c, 5, 52, 95
4, 1208640, Note_on_c, 4, 47, 95
4, 1209120, Note_off_c, 4, 47, 95
4, 1209120, Note_on_c, 5, 55, 95
4, 1209280, Pitch_bend_c, 5, 8192
4, 1209440, Pitch_bend_c, 5, 8320
4, 1209600, Pitch_bend_c, 5, 8192
4, 1209760, Pitch_bend_c, 5, 8320
4, 1209920, Pitch_bend_c, 5, 8192
4, 1210080, Pitch_bend_c, 5, 8320
4, 1210080, Pitch_bend_c, 5, 8192
4, 1210080, Note_off_c, 5, 55, 95
4, 1212480, Note_on_c, 4, 48, 95
4, 1212960, Note_off_c, 4, 48, 95
4, 1212960, Note_on_c, 4, 52, 95
4, 1213440, Note_off_c, 4, 52, 95
4, 1213440, Note_on_c, 5, 55, 95
4, 1213600, Pitch_bend_c, 5, 8192
4, 1213760, Pitch_bend_c, 5, 8320
4, 1213920, Pitch_bend_c, 5, 8192
4, 1214080, Pitch_bend_c, 5, 8320
4, 1214240, Pitch_bend_c, 5, 8192
4, 1214400, Pitch_bend_c, 5, 8320
4, 1214560, Pitch_bend_c, 5, 8192
4, 1214720, Pitch_bend_c, 5, 8320
4, 1214880, Pitch_bend_c, 5, 8192
4, 1215040, Pitch_bend_c, 5, 8320
4, 1215200, Pitch_bend_c, 5, 8192
4, 1215360, Pitch_bend_c, 5, 8320
4, 1215520, Pitch_bend_c, 5, 8192
4, 1215680, Pitch_bend_c, 5, 8320
4, 1215840, Pitch_bend_c, 5, 8192
4, 1215840, Pitch_bend_c, 5, 8320
4, 1215840, Pitch_bend_c, 5, 8192
4, 1215840, Note_off_c, 5, 55, 95
4, 1216320, Note_on_c, 5, 57, 95
4, 1216480, Pitch_bend_c, 5, 8192
4, 1216640, Pitch_bend_c, 5, 8320
4, 1216800, Pitch_bend_c, 5, 8192
4, 1216960, Pitch_bend_c, 5, 8320
4, 1217120, Pitch_bend_c, 5, 8192
4, 1217280, Pitch_bend_c, 5, 8320
4, 1217440, Pitch_bend_c, 5, 8192
4, 1217600, Pitch_bend_c, 5, 8320
4, 1217760, Pitch_bend_c, 5, 8192
4, 1217760, Pitch_bend_c, 5, 8320
4, 1217760, Pitch_bend_c, 5, 8192
4, 1217760, Note_off_c, 5, 57, 95
4, 1218240, Note_on_c, 5, 53, 95
4, 1218400, Pitch_bend_c, 5, 8192
4, 1218560, Pitch_bend_c, 5, 8320
4, 1218720, Pitch_bend_c, 5, 8192
4, 1218880, Pitch_bend_c, 5, 8320
4, 1219040, Pitch_bend_c, 5, 8192
4, 1219200, Pitch_bend_c, 5, 8320
4, 1219360, Pitch_bend_c, 5, 8192
4, 1219520, Pitch_bend_c, 5, 8320
4, 1219680, Pitch_bend_c, 5, 8192
4, 1219680, Pitch_bend_c, 5, 8320
4, 1219680, Pitch_bend_c, 5, 8192
4, 1219680, Note_off_c, 5, 53, 95
4, 1220160, Note_on_c, 5, 55, 95
4, 1220320, Pitch_bend_c, 5, 8192
4, 1220480, Pitch_bend_c, 5, 8320
4, 1220640, Pitch_bend_c, 5, 8192
4, 1220800, Pitch_bend_c, 5, 8320
4, 1220960, Pitch_bend_c, 5, 8192
4, 1221120, Pitch_bend_c, 5, 8320
4, 1221280, Pitch_bend_c, 5, 8192
4, 1221440, Pitch_bend_c, 5, 8320
4, 1221600, Pitch_bend_c, 5, 8192
4, 1221600, Pitch_bend_c, 5, 8320
4, 1221600, Pitch_bend_c, 5, 8192
4, 1221600, Note_off_c, 5, 55, 95
4, 1222080, Note_on_c, 5, 52, 95
4, 1222240, Pitch_bend_c, 5, 8192
4, 1222400, Pitch_bend_c, 5, 8320
4, 1222560, Pitch_bend_c, 5, 8192
4, 1222720, Pitch_bend_c, 5, 8320
4, 1222880, Pitch_bend_c, 5, 8192
4, 1223040, Pitch_bend_c, 5, 8320
4, 1223200, Pitch_bend_c, 5, 8192
4, 1223360, Pitch_bend_c, 5, 8320
4, 1223520, Pitch_bend_c, 5, 8192
4, 1223520, Pitch_bend_c, 5, 8320
4, 1223520, Pitch_bend_c, 5, 8192
4, 1223520, Note_off_c, 5, 52, 95
4, 1224000, Note_on_c, 5, 53, 95
4, 1224160, Pitch_bend_c, 5, 8192
4, 1224320, Pitch_bend_c, 5, 8320
4, 1224480, Pitch_bend_c, 5, 8192
4, 1224640, Pitch_bend_c, 5, 8320
4, 1224800, Pitch_bend_c, 5, 8192
4, 1224960, Pitch_bend_c, 5, 8320
4, 1225120, Pitch_bend_c, 5, 8192
4, 1225280, Pitch_bend_c, 5, 8320
4, 1225440, Pitch_bend_c, 5, 8192
4, 1225440, Pitch_bend_c, 5, 8320
4, 1225440, Pitch_bend_c, 5, 8192
4, 1225440, Note_off_c, 5, 53, 95
4, 1225920, Note_on_c, 5, 50, 95
4, 1226080, Pitch_bend_c, 5, 8192
4, 1226240, Pitch_bend_c, 5, 8320
4, 1226400, Pitch_bend_c, 5, 8192
4, 1226560, Pitch_bend_c, 5, 8320
4, 1226720, Pitch_bend_c, 5, 8192
4, 1226880, Pitch_bend_c, 5, 8320
4, 1227040, Pitch_bend_c, 5, 8192
4, 1227200, Pitch_bend_c, 5, 8320
4, 1227360, Pitch_bend_c, 5, 8192
4, 1227360, Pitch_bend_c, 5, 8320
4, 1227360, Pitch_bend_c, 5, 8192
4, 1227360, Note_off_c, 5, 50, 95
4, 1227360, Note_on_c, 4, 41, 95
4, 1227840, Note_off_c, 4, 41, 95
4, 1227840, Note_on_c, 4, 48, 79
4, 1228320, Note_off_c, 4, 48, 79
4, 1228320, Note_on_c, 4, 53, 95
4, 1230240, Note_off_c, 4, 53, 95
4, 1230240, Note_on_c, 4, 48, 95
4, 1230720, Note_off_c, 4, 48, 95
4, 1230720, Note_on_c, 4, 52, 95
4, 1232160, Note_off_c, 4, 52, 95
4, 1232160, Note_on_c, 4, 50, 95
4, 1232640, Note_off_c, 4, 50, 95
4, 1232640, Note_on_c, 4, 53, 95
4, 1233120, Note_off_c, 4, 53, 95
4, 1233120, Note_on_c, 4, 58, 95
4, 1235040, Note_off_c, 4, 58, 95
4, 1235040, Note_on_c, 4, 48, 95
4, 1235520, Note_off_c, 4, 48, 95
4, 1235520, Note_on_c, 4, 55, 95
4, 1236000, Note_off_c, 4, 55, 95
4, 1236000, Note_on_c, 4, 60, 95
4, 1237920, Note_off_c, 4, 60, 95
4, 1237920, Note_on_c, 4, 55, 95
4, 1237920, Note_on_c, 4, 50, 95
4, 1244640, Note_off_c, 4, 55, 95
4, 1244640, Note_off_c, 4, 50, 95
4, 1283040, Pitch_bend_c, 5, 8192
4, 1283040, Note_on_c, 5, 61, 95
4, 1283088, Pitch_bend_c, 5, 8320
4, 1283136, Pitch_bend_c, 5, 8448
4, 1283184, Pitch_bend_c, 5, 8576
4, 1283232, Pitch_bend_c, 5, 8704
4, 1283280, Pitch_bend_c, 5, 8832
4, 1283280, Pitch_bend_c, 5, 8832
4, 1283520, Pitch_bend_c, 5, 8832
4, 1283568, Pitch_bend_c, 5, 8704
4, 1283616, Pitch_bend_c, 5, 8576
4, 1283664, Pitch_bend_c, 5, 8448
4, 1283712, Pitch_bend_c, 5, 8320
4, 1283760, Pitch_bend_c, 5, 8192
4, 1283760, Pitch_bend_c, 5, 8192
4, 1284000, Pitch_bend_c, 5, 8192
4, 1284000, Pitch_bend_c, 5, 8192
4, 1284000, Note_off_c, 5, 61, 95
4, 1284000, Note_on_c, 4, 45, 95
4, 1284480, Note_off_c, 4, 45, 95
4, 1284480, Note_on_c, 4, 40, 95
4, 1284960, Note_off_c, 4, 40, 95
4, 1284960, Note_on_c, 4, 55, 95
4, 1285440, Note_off_c, 4, 55, 95
4, 1285440, Note_on_c, 4, 57, 95
4, 1285920, Note_off_c, 4, 57, 95
4, 1285920, Note_on_c, 4, 45, 95
4, 1286400, Note_off_c, 4, 45, 95
4, 1286400, Pitch_bend_c, 5, 8192
4, 1286400, Note_on_c, 5, 61, 95
4, 1286448, Pitch_bend_c, 5, 8320
4, 1286496, Pitch_bend_c, 5, 8448
4, 1286544, Pitch_bend_c, 5, 8576
4, 1286592, Pitch_bend_c, 5, 8704
4, 1286640, Pitch_bend_c, 5, 8832
4, 1286640, Pitch_bend_c, 5, 8832
4, 1286880, Pitch_bend_c, 5, 8832
4, 1286928, Pitch_bend_c, 5, 8704
4, 1286976, Pitch_bend_c, 5, 8576
4, 1287024, Pitch_bend_c, 5, 8448
4, 1287072, Pitch_bend_c, 5, 8320
4, 1287120, Pitch_bend_c, 5, 8192
4, 1287120, Pitch_bend_c, 5, 8192
4, 1287360, Pitch_bend_c, 5, 8192
4, 1287360, Pitch_bend_c, 5, 8192
4, 1287360, Note_off_c, 5, 61, 95
4, 1287360, Note_on_c, 4, 45, 95
4, 1288320, Note_off_c, 4, 45, 95
4, 1288320, Note_on_c, 4, 55, 95
4, 1288800, Note_off_c, 4, 55, 95
4, 1288800, Note_on_c, 4, 57, 95
4, 1289280, Note_off_c, 4, 57, 95
4, 1289280, Note_on_c, 4, 45, 95
4, 1289760, Note_off_c, 4, 45, 95
4, 1289760, Note_on_c, 4, 49, 95
4, 1290000, Note_off_c, 4, 49, 95
4, 1290000, Note_on_c, 4, 50, 95
4, 1290240, Note_off_c, 4, 50, 95
4, 1290240, Note_on_c, 4, 52, 95
4, 1290720, Note_off_c, 4, 52, 95
4, 1290720, Pitch_bend_c, 5, 8192
4, 1290720, Note_on_c, 5, 61, 95
4, 1290768, Pitch_bend_c, 5, 8320
4, 1290816, Pitch_bend_c, 5, 8448
4, 1290864, Pitch_bend_c, 5, 8576
4, 1290912, Pitch_bend_c, 5, 8704
4, 1290960, Pitch_bend_c, 5, 8832
4, 1290960, Pitch_bend_c, 5, 8832
4, 1291200, Pitch_bend_c, 5, 8832
4, 1291248, Pitch_bend_c, 5, 8704
4, 1291296, Pitch_bend_c, 5, 8576
4, 1291344, Pitch_bend_c, 5, 8448
4, 1291392, Pitch_bend_c, 5, 8320
4, 1291440, Pitch_bend_c, 5, 8192
4, 1291440, Pitch_bend_c, 5, 8192
4, 1291680, Pitch_bend_c, 5, 8192
4, 1291680, Pitch_bend_c, 5, 8192
4, 1291680, Note_off_c, 5, 61, 95
4, 1291680, Note_on_c, 4, 45, 95
4, 1292160, Note_off_c, 4, 45, 95
4, 1292160, Note_on_c, 4, 40, 95
4, 1292640, Note_off_c, 4, 40, 95
4, 1292640, Note_on_c, 4, 55, 95
4, 1293120, Note_off_c, 4, 55, 95
4, 1293120, Note_on_c, 4, 57, 95
4, 1293600, Note_off_c, 4, 57, 95
4, 1294080, Note_on_c, 5, 57, 95
4, 1294240, Pitch_bend_c, 5, 8192
4, 1294400, Pitch_bend_c, 5, 8320
4, 1294560, Pitch_bend_c, 5, 8192
4, 1294720, Pitch_bend_c, 5, 8320
4, 1294880, Pitch_bend_c, 5, 8192
4, 1295040, Pitch_bend_c, 5, 8320
4, 1295040, Pitch_bend_c, 5, 8192
4, 1295040, Note_off_c, 5, 57, 95
4, 1295040, Note_on_c, 4, 45, 95
4, 1295520, Note_off_c, 4, 45, 95
4, 1295520, Note_on_c, 4, 46, 95
4, 1296000, Note_off_c, 4, 46, 95
4, 1296000, Note_on_c, 4, 49, 95
4, 1296480, Note_off_c, 4, 49, 95
4, 1296480, Note_on_c, 4, 50, 95
4, 1296960, Note_off_c, 4, 50, 95
4, 1296960, Note_on_c, 4, 53, 95
4, 1297440, Note_off_c, 4, 53, 95
4, 1297440, Note_on_c, 4, 52, 95
4, 1297560, Note_off_c, 4, 52, 95
4, 1297560, Note_on_c, 4, 53, 70
4, 1297680, Note_off_c, 4, 53, 70
4, 1297680, Note_on_c, 4, 52, 70
4, 1297920, Note_off_c, 4, 52, 70
4, 1297920, Note_on_c, 4, 50, 95
4, 1298400, Note_off_c, 4, 50, 95
4, 1298400, Pitch_bend_c, 5, 8192
4, 1298400, Note_on_c, 5, 61, 95
4, 1298448, Pitch_bend_c, 5, 8320
4, 1298496, Pitch_bend_c, 5, 8448
4, 1298544, Pitch_bend_c, 5, 8576
4, 1298592, Pitch_bend_c, 5, 8704
4, 1298640, Pitch_bend_c, 5, 8832
4, 1298640, Pitch_bend_c, 5, 8832
4, 1298880, Pitch_bend_c, 5, 8832
4, 1298928, Pitch_bend_c, 5, 8704
4, 1298976, Pitch_bend_c, 5, 8576
4, 1299024, Pitch_bend_c, 5, 8448
4, 1299072, Pitch_bend_c, 5, 8320
4, 1299120, Pitch_bend_c, 5, 8192
4, 1299120, Pitch_bend_c, 5, 8192
4, 1299360, Pitch_bend_c, 5, 8192
4, 1299360, Pitch_bend_c, 5, 8192
4, 1299360, Note_off_c, 5, 61, 95
4, 1299360, Note_on_c, 4, 45, 95
4, 1299840, Note_off_c, 4, 45, 95
4, 1299840, Note_on_c, 4, 40, 95
4, 1300320, Note_off_c, 4, 40, 95
4, 1300320, Note_on_c, 4, 55, 95
4, 1300800, Note_off_c, 4, 55, 95
4, 1300800, Note_on_c, 4, 57, 95
4, 1301280, Note_off_c, 4, 57, 95
4, 1301760, Pitch_bend_c, 5, 8192
4, 1301760, Note_on_c, 5, 61, 95
4, 1301808, Pitch_bend_c, 5, 8320
4, 1301856, Pitch_bend_c, 5, 8448
4, 1301904, Pitch_bend_c, 5, 8576
4, 1301952, Pitch_bend_c, 5, 8704
4, 1302000, Pitch_bend_c, 5, 8832
4, 1302000, Pitch_bend_c, 5, 8832
4, 1302240, Pitch_bend_c, 5, 8832
4, 1302288, Pitch_bend_c, 5, 8704
4, 1302336, Pitch_bend_c, 5, 8576
4, 1302384, Pitch_bend_c, 5, 8448
4, 1302432, Pitch_bend_c, 5, 8320
4, 1302480, Pitch_bend_c, 5, 8192
4, 1302480, Pitch_bend_c, 5, 8192
4, 1302720, Pitch_bend_c, 5, 8192
4, 1302720, Pitch_bend_c, 5, 8192
4, 1302720, Note_off_c, 5, 61, 95
4, 1302720, Note_on_c, 4, 45, 95
4, 1303680, Note_off_c, 4, 45, 95
4, 1303680, Note_on_c, 4, 55, 95
4, 1304160, Note_off_c, 4, 55, 95
4, 1304160, Note_on_c, 4, 57, 95
4, 1304640, Note_off_c, 4, 57, 95
4, 1304640, Note_on_c, 4, 45, 95
4, 1305120, Note_off_c, 4, 45, 95
4, 1305120, Note_on_c, 4, 57, 95
4, 1305600, Note_off_c, 4, 57, 95
4, 1305600, Note_on_c, 4, 45, 95
4, 1306080, Note_off_c, 4, 45, 95
4, 1306080, Pitch_bend_c, 5, 8192
4, 1306080, Note_on_c, 5, 61, 95
4, 1306128, Pitch_bend_c, 5, 8320
4, 1306176, Pitch_bend_c, 5, 8448
4, 1306224, Pitch_bend_c, 5, 8576
4, 1306272, Pitch_bend_c, 5, 8704
4, 1306320, Pitch_bend_c, 5, 8832
4, 1306320, Pitch_bend_c, 5, 8832
4, 1306560, Pitch_bend_c, 5, 8832
4, 1306608, Pitch_bend_c, 5, 8704
4, 1306656, Pitch_bend_c, 5, 8576
4, 1306704, Pitch_bend_c, 5, 8448
4, 1306752, Pitch_bend_c, 5, 8320
4, 1306800, Pitch_bend_c, 5, 8192
4, 1306800, Pitch_bend_c, 5, 8192
4, 1307040, Pitch_bend_c, 5, 8192
4, 1307040, Pitch_bend_c, 5, 8192
4, 1307040, Note_off_c, 5, 61, 95
4, 1307040, Note_on_c, 4, 45, 95
4, 1307520, Note_off_c, 4, 45, 95
4, 1307520, Note_on_c, 4, 40, 95
4, 1308000, Note_off_c, 4, 40, 95
4, 1308000, Note_on_c, 4, 55, 95
4, 1308480, Note_off_c, 4, 55, 95
4, 1308480, Note_on_c, 4, 57, 95
4, 1308960, Note_off_c, 4, 57, 95
4, 1309440, Note_on_c, 5, 57, 95
4, 1309600, Pitch_bend_c, 5, 8192
4, 1309760, Pitch_bend_c, 5, 8320
4, 1309920, Pitch_bend_c, 5, 8192
4, 1309920, Pitch_bend_c, 5, 8320
4, 1309920, Pitch_bend_c, 5, 8192
4, 1309920, Note_off_c, 5, 57, 95
4, 1310880, Note_on_c, 4, 57, 95
4, 1311360, Note_off_c, 4, 57, 95
4, 1311840, Note_on_c, 4, 55, 95
4, 1312320, Note_off_c, 4, 55, 95
4, 1312800, Note_on_c, 4, 58, 95
4, 1313280, Note_off_c, 4, 58, 95
4, 1313760, Pitch_bend_c, 5, 8192
4, 1313760, Note_on_c, 5, 61, 95
4, 1313808, Pitch_bend_c, 5, 8320
4, 1313856, Pitch_bend_c, 5, 8448
4, 1313904, Pitch_bend_c, 5, 8576
4, 1313952, Pitch_bend_c, 5, 8704
4, 1314000, Pitch_bend_c, 5, 8832
4, 1314000, Pitch_bend_c, 5, 8832
4, 1314240, Pitch_bend_c, 5, 8832
4, 1314288, Pitch_bend_c, 5, 8704
4, 1314336, Pitch_bend_c, 5, 8576
4, 1314384, Pitch_bend_c, 5, 8448
4, 1314432, Pitch_bend_c, 5, 8320
4, 1314480, Pitch_bend_c, 5, 8192
4, 1314480, Pitch_bend_c, 5, 8192
4, 1314720, Pitch_bend_c, 5, 8192
4, 1314720, Pitch_bend_c, 5, 8192
4, 1314720, Note_off_c, 5, 61, 95
4, 1314720, Note_on_c, 4, 45, 95
4, 1315200, Note_off_c, 4, 45, 95
4, 1315200, Note_on_c, 4, 40, 95
4, 1315680, Note_off_c, 4, 40, 95
4, 1315680, Note_on_c, 4, 55, 95
4, 1316160, Note_off_c, 4, 55, 95
4, 1316160, Note_on_c, 4, 57, 95
4, 1316640, Note_off_c, 4, 57, 95
4, 1316640, Note_on_c, 4, 45, 95
4, 1317120, Note_off_c, 4, 45, 95
4, 1317120, Pitch_bend_c, 5, 8192
4, 1317120, Note_on_c, 5, 61, 95
4, 1317168, Pitch_bend_c, 5, 8320
4, 1317216, Pitch_bend_c, 5, 8448
4, 1317264, Pitch_bend_c, 5, 8576
4, 1317312, Pitch_bend_c, 5, 8704
4, 1317360, Pitch_bend_c, 5, 8832
4, 1317360, Pitch_bend_c, 5, 8832
4, 1317600, Pitch_bend_c, 5, 8832
4, 1317648, Pitch_bend_c, 5, 8704
4, 1317696, Pitch_bend_c, 5, 8576
4, 1317744, Pitch_bend_c, 5, 8448
4, 1317792, Pitch_bend_c, 5, 8320
4, 1317840, Pitch_bend_c, 5, 8192
4, 1317840, Pitch_bend_c, 5, 8192
4, 1318080, Pitch_bend_c, 5, 8192
4, 1318080, Pitch_bend_c, 5, 8192
4, 1318080, Note_off_c, 5, 61, 95
4, 1318080, Note_on_c, 4, 45, 95
4, 1319040, Note_off_c, 4, 45, 95
4, 1319040, Note_on_c, 4, 55, 95
4, 1319520, Note_off_c, 4, 55, 95
4, 1319520, Note_on_c, 4, 57, 95
4, 1320000, Note_off_c, 4, 57, 95
4, 1320000, Note_on_c, 4, 45, 95
4, 1320480, Note_off_c, 4, 45, 95
4, 1320480, Note_on_c, 4, 49, 95
4, 1320720, Note_off_c, 4, 49, 95
4, 1320720, Note_on_c, 4, 50, 95
4, 1320960, Note_off_c, 4, 50, 95
4, 1320960, Note_on_c, 4, 52, 95
4, 1321440, Note_off_c, 4, 52, 95
4, 1321440, Pitch_bend_c, 5, 8192
4, 1321440, Note_on_c, 5, 61, 95
4, 1321488, Pitch_bend_c, 5, 8320
4, 1321536, Pitch_bend_c, 5, 8448
4, 1321584, Pitch_bend_c, 5, 8576
4, 1321632, Pitch_bend_c, 5, 8704
4, 1321680, Pitch_bend_c, 5, 8832
4, 1321680, Pitch_bend_c, 5, 8832
4, 1321920, Pitch_bend_c, 5, 8832
4, 1321968, Pitch_bend_c, 5, 8704
4, 1322016, Pitch_bend_c, 5, 8576
4, 1322064, Pitch_bend_c, 5, 8448
4, 1322112, Pitch_bend_c, 5, 8320
4, 1322160, Pitch_bend_c, 5, 8192
4, 1322160, Pitch_bend_c, 5, 8192
4, 1322400, Pitch_bend_c, 5, 8192
4, 1322400, Pitch_bend_c, 5, 8192
4, 1322400, Note_off_c, 5, 61, 95
4, 1322400, Note_on_c, 4, 45, 95
4, 1322880, Note_off_c, 4, 45, 95
4, 1322880, Note_on_c, 4, 40, 95
4, 1323360, Note_off_c, 4, 40, 95
4, 1323360, Note_on_c, 4, 55, 95
4, 1323840, Note_off_c, 4, 55, 95
4, 1323840, Note_on_c, 4, 57, 95
4, 1324320, Note_off_c, 4, 57, 95
4, 1324800, Note_on_c, 5, 57, 95
4, 1324960, Pitch_bend_c, 5, 8192
4, 1325120, Pitch_bend_c, 5, 8320
4, 1325280, Pitch_bend_c, 5, 8192
4, 1325440, Pitch_bend_c, 5, 8320
4, 1325600, Pitch_bend_c, 5, 8192
4, 1325760, Pitch_bend_c, 5, 8320
4, 1325760, Pitch_bend_c, 5, 8192
4, 1325760, Note_off_c, 5, 57, 95
4, 1325760, Note_on_c, 4, 45, 95
4, 1326240, Note_off_c, 4, 45, 95
4, 1326240, Note_on_c, 4, 46, 95
4, 1326720, Note_off_c, 4, 46, 95
4, 1326720, Note_on_c, 4, 49, 95
4, 1327200, Note_off_c, 4, 49, 95
4, 1327200, Note_on_c, 4, 50, 95
4, 1327680, Note_off_c, 4, 50, 95
4, 1327680, Note_on_c, 4, 53, 95
4, 1328160, Note_off_c, 4, 53, 95
4, 1328160, Note_on_c, 4, 52, 95
4, 1328280, Note_off_c, 4, 52, 95
4, 1328280, Note_on_c, 4, 53, 70
4, 1328400, Note_off_c, 4, 53, 70
4, 1328400, Note_on_c, 4, 52, 70
4, 1328640, Note_off_c, 4, 52, 70
4, 1328640, Note_on_c, 4, 50, 95
4, 1329120, Note_off_c, 4, 50, 95
4, 1329120, Pitch_bend_c, 5, 8192
4, 1329120, Note_on_c, 5, 61, 95
4, 1329168, Pitch_bend_c, 5, 8320
4, 1329216, Pitch_bend_c, 5, 8448
4, 1329264, Pitch_bend_c, 5, 8576
4, 1329312, Pitch_bend_c, 5, 8704
4, 1329360, Pitch_bend_c, 5, 8832
4, 1329360, Pitch_bend_c, 5, 8832
4, 1329600, Pitch_bend_c, 5, 8832
4, 1329648, Pitch_bend_c, 5, 8704
4, 1329696, Pitch_bend_c, 5, 8576
4, 1329744, Pitch_bend_c, 5, 8448
4, 1329792, Pitch_bend_c, 5, 8320
4, 1329840, Pitch_bend_c, 5, 8192
4, 1329840, Pitch_bend_c, 5, 8192
4, 1330080, Pitch_bend_c, 5, 8192
4, 1330080, Pitch_bend_c, 5, 8192
4, 1330080, Note_off_c, 5, 61, 95
4, 1330080, Note_on_c, 4, 45, 95
4, 1330560, Note_off_c, 4, 45, 95
4, 1330560, Note_on_c, 4, 40, 95
4, 1331040, Note_off_c, 4, 40, 95
4, 1331040, Note_on_c, 4, 55, 95
4, 1331520, Note_off_c, 4, 55, 95
4, 1331520, Note_on_c, 4, 57, 95
4, 1332000, Note_off_c, 4, 57, 95
4, 1332480, Pitch_bend_c, 5, 8192
4, 1332480, Note_on_c, 5, 61, 95
4, 1332528, Pitch_bend_c, 5, 8320
4, 1332576, Pitch_bend_c, 5, 8448
4, 1332624, Pitch_bend_c, 5, 8576
4, 1332672, Pitch_bend_c, 5, 8704
4, 1332720, Pitch_bend_c, 5, 8832
4, 1332720, Pitch_bend_c, 5, 8832
4, 1332960, Pitch_bend_c, 5, 8832
4, 1333008, Pitch_bend_c, 5, 8704
4, 1333056, Pitch_bend_c, 5, 8576
4, 1333104, Pitch_bend_c, 5, 8448
4, 1333152, Pitch_bend_c, 5, 8320
4, 1333200, Pitch_bend_c, 5, 8192
4, 1333200, Pitch_bend_c, 5, 8192
4, 1333440, Pitch_bend_c, 5, 8192
4, 1333440, Pitch_bend_c, 5, 8192
4, 1333440, Note_off_c, 5, 61, 95
4, 1333440, Note_on_c, 4, 45, 95
4, 1334400, Note_off_c, 4, 45, 95
4, 1334400, Note_on_c, 4, 55, 95
4, 1334880, Note_off_c, 4, 55, 95
4, 1334880, Note_on_c, 4, 57, 95
4, 1335360, Note_off_c, 4, 57, 95
4, 1335360, Note_on_c, 4, 45, 95
4, 1335840, Note_off_c, 4, 45, 95
4, 1335840, Note_on_c, 4, 57, 95
4, 1336320, Note_off_c, 4, 57, 95
4, 1336320, Note_on_c, 4, 45, 95
4, 1336800, Note_off_c, 4, 45, 95
4, 1336800, Pitch_bend_c, 5, 8192
4, 1336800, Note_on_c, 5, 61, 95
4, 1336848, Pitch_bend_c, 5, 8320
4, 1336896, Pitch_bend_c, 5, 8448
4, 1336944, Pitch_bend_c, 5, 8576
4, 1336992, Pitch_bend_c, 5, 8704
4, 1337040, Pitch_bend_c, 5, 8832
4, 1337040, Pitch_bend_c, 5, 8832
4, 1337280, Pitch_bend_c, 5, 8832
4, 1337328, Pitch_bend_c, 5, 8704
4, 1337376, Pitch_bend_c, 5, 8576
4, 1337424, Pitch_bend_c, 5, 8448
4, 1337472, Pitch_bend_c, 5, 8320
4, 1337520, Pitch_bend_c, 5, 8192
4, 1337520, Pitch_bend_c, 5, 8192
4, 1337760, Pitch_bend_c, 5, 8192
4, 1337760, Pitch_bend_c, 5, 8192
4, 1337760, Note_off_c, 5, 61, 95
4, 1337760, Note_on_c, 4, 45, 95
4, 1338240, Note_off_c, 4, 45, 95
4, 1338240, Note_on_c, 4, 40, 95
4, 1338720, Note_off_c, 4, 40, 95
4, 1338720, Note_on_c, 4, 55, 95
4, 1339200, Note_off_c, 4, 55, 95
4, 1339200, Note_on_c, 4, 57, 95
4, 1339680, Note_off_c, 4, 57, 95
4, 1340160, Note_on_c, 5, 57, 95
4, 1340320, Pitch_bend_c, 5, 8192
4, 1340480, Pitch_bend_c, 5, 8320
4, 1340640, Pitch_bend_c, 5, 8192
4, 1340640, Pitch_bend_c, 5, 8320
4, 1340640, Pitch_bend_c, 5, 8192
4, 1340640, Note_off_c, 5, 57, 95
4, 1341600, Note_on_c, 4, 57, 95
4, 1342080, Note_off_c, 4, 57, 95
4, 1342560, Note_on_c, 4, 55, 95
4, 1343040, Note_off_c, 4, 55, 95
4, 1343520, Note_on_c, 4, 58, 95
4, 1344000, Note_off_c, 4, 58, 95
4, 1344480, Pitch_bend_c, 5, 8192
4, 1344480, Note_on_c, 5, 61, 95
4, 1344528, Pitch_bend_c, 5, 8320
4, 1344576, Pitch_bend_c, 5, 8448
4, 1344624, Pitch_bend_c, 5, 8576
4, 1344672, Pitch_bend_c, 5, 8704
4, 1344720, Pitch_bend_c, 5, 8832
4, 1344720, Pitch_bend_c, 5, 8832
4, 1344960, Pitch_bend_c, 5, 8832
4, 1345008, Pitch_bend_c, 5, 8704
4, 1345056, Pitch_bend_c, 5, 8576
4, 1345104, Pitch_bend_c, 5, 8448
4, 1345152, Pitch_bend_c, 5, 8320
4, 1345200, Pitch_bend_c, 5, 8192
4, 1345200, Pitch_bend_c, 5, 8192
4, 1345440, Pitch_bend_c, 5, 8192
4, 1345440, Pitch_bend_c, 5, 8192
4, 1345440, Note_off_c, 5, 61, 95
4, 1345440, Note_on_c, 4, 45, 95
4, 1345920, Note_off_c, 4, 45, 95
4, 1345920, Note_on_c, 4, 40, 95
4, 1346400, Note_off_c, 4, 40, 95
4, 1346400, Note_on_c, 4, 55, 95
4, 1346880, Note_off_c, 4, 55, 95
4, 1346880, Note_on_c, 4, 57, 95
4, 1347360, Note_off_c, 4, 57, 95
4, 1347840, Pitch_bend_c, 5, 8192
4, 1347840, Note_on_c, 5, 61, 95
4, 1347888, Pitch_bend_c, 5, 8320
4, 1347936, Pitch_bend_c, 5, 8448
4, 1347984, Pitch_bend_c, 5, 8576
4, 1348032, Pitch_bend_c, 5, 8704
4, 1348080, Pitch_bend_c, 5, 8832
4, 1348080, Pitch_bend_c, 5, 8832
4, 1348320, Pitch_bend_c, 5, 8832
4, 1348368, Pitch_bend_c, 5, 8704
4, 1348416, Pitch_bend_c, 5, 8576
4, 1348464, Pitch_bend_c, 5, 8448
4, 1348512, Pitch_bend_c, 5, 8320
4, 1348560, Pitch_bend_c, 5, 8192
4, 1348560, Pitch_bend_c, 5, 8192
4, 1348800, Pitch_bend_c, 5, 8192
4, 1348800, Pitch_bend_c, 5, 8192
4, 1348800, Note_off_c, 5, 61, 95
4, 1348800, Note_on_c, 4, 45, 95
4, 1349760, Note_off_c, 4, 45, 95
4, 1349760, Note_on_c, 4, 55, 95
4, 1350240, Note_off_c, 4, 55, 95
4, 1350240, Note_on_c, 4, 57, 95
4, 1350720, Note_off_c, 4, 57, 95
4, 1350720, Note_on_c, 4, 45, 95
4, 1351200, Note_off_c, 4, 45, 95
4, 1351200, Note_on_c, 4, 49, 95
4, 1351440, Note_off_c, 4, 49, 95
4, 1351440, Note_on_c, 4, 50, 95
4, 1351680, Note_off_c, 4, 50, 95
4, 1351680, Note_on_c, 4, 52, 95
4, 1352160, Note_off_c, 4, 52, 95
4, 1352160, Pitch_bend_c, 5, 8192
4, 1352160, Note_on_c, 5, 61, 95
4, 1352208, Pitch_bend_c, 5, 8320
4, 1352256, Pitch_bend_c, 5, 8448
4, 1352304, Pitch_bend_c, 5, 8576
4, 1352352, Pitch_bend_c, 5, 8704
4, 1352400, Pitch_bend_c, 5, 8832
4, 1352400, Pitch_bend_c, 5, 8832
4, 1352640, Pitch_bend_c, 5, 8832
4, 1352688, Pitch_bend_c, 5, 8704
4, 1352736, Pitch_bend_c, 5, 8576
4, 1352784, Pitch_bend_c, 5, 8448
4, 1352832, Pitch_bend_c, 5, 8320
4, 1352880, Pitch_bend_c, 5, 8192
4, 1352880, Pitch_bend_c, 5, 8192
4, 1353120, Pitch_bend_c, 5, 8192
4, 1353120, Pitch_bend_c, 5, 8192
4, 1353120, Note_off_c, 5, 61, 95
4, 1353120, Note_on_c, 4, 45, 95
4, 1353600, Note_off_c, 4, 45, 95
4, 1353600, Note_on_c, 4, 40, 95
4, 1354080, Note_off_c, 4, 40, 95
4, 1354080, Note_on_c, 4, 55, 95
4, 1354560, Note_off_c, 4, 55, 95
4, 1354560, Note_on_c, 4, 57, 95
4, 1355040, Note_off_c, 4, 57, 95
4, 1355520, Note_on_c, 5, 57, 95
4, 1355680, Pitch_bend_c, 5, 8192
4, 1355840, Pitch_bend_c, 5, 8320
4, 1356000, Pitch_bend_c, 5, 8192
4, 1356160, Pitch_bend_c, 5, 8320
4, 1356320, Pitch_bend_c, 5, 8192
4, 1356480, Pitch_bend_c, 5, 8320
4, 1356480, Pitch_bend_c, 5, 8192
4, 1356480, Note_off_c, 5, 57, 95
4, 1356480, Note_on_c, 4, 45, 95
4, 1356960, Note_off_c, 4, 45, 95
4, 1356960, Note_on_c, 4, 46, 95
4, 1357440, Note_off_c, 4, 46, 95
4, 1357440, Note_on_c, 4, 49, 95
4, 1357920, Note_off_c, 4, 49, 95
4, 1357920, Note_on_c, 4, 50, 95
4, 1358400, Note_off_c, 4, 50, 95
4, 1358400, Note_on_c, 4, 53, 95
4, 1358880, Note_off_c, 4, 53, 95
4, 1358880, Note_on_c, 4, 52, 95
4, 1359000, Note_off_c, 4, 52, 95
4, 1359000, Note_on_c, 4, 53, 70
4, 1359120, Note_off_c, 4, 53, 70
4, 1359120, Note_on_c, 4, 52, 70
4, 1359360, Note_off_c, 4, 52, 70
4, 1359360, Note_on_c, 4, 50, 95
4, 1359840, Note_off_c, 4, 50, 95
4, 1359840, Pitch_bend_c, 5, 8192
4, 1359840, Note_on_c, 5, 61, 95
4, 1359888, Pitch_bend_c, 5, 8320
4, 1359936, Pitch_bend_c, 5, 8448
4, 1359984, Pitch_bend_c, 5, 8576
4, 1360032, Pitch_bend_c, 5, 8704
4, 1360080, Pitch_bend_c, 5, 8832
4, 1360080, Pitch_bend_c, 5, 8832
4, 1360320, Pitch_bend_c, 5, 8832
4, 1360368, Pitch_bend_c, 5, 8704
4, 1360416, Pitch_bend_c, 5, 8576
4, 1360464, Pitch_bend_c, 5, 8448
4, 1360512, Pitch_bend_c, 5, 8320
4, 1360560, Pitch_bend_c, 5, 8192
4, 1360560, Pitch_bend_c, 5, 8192
4, 1360800, Pitch_bend_c, 5, 8192
4, 1360800, Pitch_bend_c, 5, 8192
4, 1360800, Note_off_c, 5, 61, 95
4, 1360800, Note_on_c, 4, 45, 95
4, 1361280, Note_off_c, 4, 45, 95
4, 1361280, Note_on_c, 4, 40, 95
4, 1361760, Note_off_c, 4, 40, 95
4, 1361760, Note_on_c, 4, 55, 95
4, 1362240, Note_off_c, 4, 55, 95
4, 1362240, Note_on_c, 4, 57, 95
4, 1362720, Note_off_c, 4, 57, 95
4, 1363200, Pitch_bend_c, 5, 8192
4, 1363200, Note_on_c, 5, 61, 95
4, 1363248, Pitch_bend_c, 5, 8320
4, 1363296, Pitch_bend_c, 5, 8448
4, 1363344, Pitch_bend_c, 5, 8576
4, 1363392, Pitch_bend_c, 5, 8704
4, 1363440, Pitch_bend_c, 5, 8832
4, 1363440, Pitch_bend_c, 5, 8832
4, 1363680, Pitch_bend_c, 5, 8832
4, 1363728, Pitch_bend_c, 5, 8704
4, 1363776, Pitch_bend_c, 5, 8576
4, 1363824, Pitch_bend_c, 5, 8448
4, 1363872, Pitch_bend_c, 5, 8320
4, 1363920, Pitch_bend_c, 5, 8192
4, 1363920, Pitch_bend_c, 5, 8192
4, 1364160, Pitch_bend_c, 5, 8192
4, 1364160, Pitch_bend_c, 5, 8192
4, 1364160, Note_off_c, 5, 61, 95
4, 1364160, Note_on_c, 4, 45, 95
4, 1365120, Note_off_c, 4, 45, 95
4, 1365120, Note_on_c, 4, 55, 95
4, 1365600, Note_off_c, 4, 55, 95
4, 1365600, Note_on_c, 4, 57, 95
4, 1366080, Note_off_c, 4, 57, 95
4, 1366080, Note_on_c, 4, 45, 95
4, 1366560, Note_off_c, 4, 45, 95
4, 1366560, Note_on_c, 4, 49, 95
4, 1366800, Note_off_c, 4, 49, 95
4, 1366800, Note_on_c, 4, 50, 95
4, 1367040, Note_off_c, 4, 50, 95
4, 1367040, Note_on_c, 4, 52, 95
4, 1367520, Note_off_c, 4, 52, 95
4, 1367520, Pitch_bend_c, 5, 8192
4, 1367520, Note_on_c, 5, 61, 95
4, 1367568, Pitch_bend_c, 5, 8320
4, 1367616, Pitch_bend_c, 5, 8448
4, 1367664, Pitch_bend_c, 5, 8576
4, 1367712, Pitch_bend_c, 5, 8704
4, 1367760, Pitch_bend_c, 5, 8832
4, 1367760, Pitch_bend_c, 5, 8832
4, 1368000, Pitch_bend_c, 5, 8832
4, 1368048, Pitch_bend_c, 5, 8704
4, 1368096, Pitch_bend_c, 5, 8576
4, 1368144, Pitch_bend_c, 5, 8448
4, 1368192, Pitch_bend_c, 5, 8320
4, 1368240, Pitch_bend_c, 5, 8192
4, 1368240, Pitch_bend_c, 5, 8192
4, 1368480, Pitch_bend_c, 5, 8192
4, 1368480, Pitch_bend_c, 5, 8192
4, 1368480, Note_off_c, 5, 61, 95
4, 1368480, Note_on_c, 4, 45, 95
4, 1368960, Note_off_c, 4, 45, 95
4, 1368960, Note_on_c, 4, 40, 95
4, 1369440, Note_off_c, 4, 40, 95
4, 1369440, Note_on_c, 4, 55, 95
4, 1369920, Note_off_c, 4, 55, 95
4, 1369920, Note_on_c, 4, 57, 95
4, 1370400, Note_off_c, 4, 57, 95
4, 1370880, Note_on_c, 5, 57, 95
4, 1371040, Pitch_bend_c, 5, 8192
4, 1371200, Pitch_bend_c, 5, 8320
4, 1371360, Pitch_bend_c, 5, 8192
4, 1371360, Pitch_bend_c, 5, 8320
4, 1371360, Pitch_bend_c, 5, 8192
4, 1371360, Note_off_c, 5, 57, 95
4, 1372320, Note_on_c, 4, 57, 95
4, 1372800, Note_off_c, 4, 57, 95
4, 1373280, Note_on_c, 4, 55, 95
4, 1373760, Note_off_c, 4, 55, 95
4, 1374240, Note_on_c, 4, 58, 95
4, 1374720, Note_off_c, 4, 58, 95
4, 1375200, Pitch_bend_c, 5, 8192
4, 1375200, Note_on_c, 5, 61, 95
4, 1375248, Pitch_bend_c, 5, 8320
4, 1375296, Pitch_bend_c, 5, 8448
4, 1375344, Pitch_bend_c, 5, 8576
4, 1375392, Pitch_bend_c, 5, 8704
4, 1375440, Pitch_bend_c, 5, 8832
4, 1375440, Pitch_bend_c, 5, 8832
4, 1375680, Pitch_bend_c, 5, 8832
4, 1375728, Pitch_bend_c, 5, 8704
4, 1375776, Pitch_bend_c, 5, 8576
4, 1375824, Pitch_bend_c, 5, 8448
4, 1375872, Pitch_bend_c, 5, 8320
4, 1375920, Pitch_bend_c, 5, 8192
4, 1375920, Pitch_bend_c, 5, 8192
4, 1376160, Pitch_bend_c, 5, 8192
4, 1376160, Pitch_bend_c, 5, 8192
4, 1376160, Note_off_c, 5, 61, 95
4, 1376160, Note_on_c, 4, 45, 95
4, 1376640, Note_off_c, 4, 45, 95
4, 1376640, Note_on_c, 4, 40, 95
4, 1377120, Note_off_c, 4, 40, 95
4, 1377120, Note_on_c, 4, 55, 95
4, 1377600, Note_off_c, 4, 55, 95
4, 1377600, Note_on_c, 4, 57, 95
4, 1378080, Note_off_c, 4, 57, 95
4, 1378560, Pitch_bend_c, 5, 8192
4, 1378560, Note_on_c, 5, 61, 95
4, 1378608, Pitch_bend_c, 5, 8320
4, 1378656, Pitch_bend_c, 5, 8448
4, 1378704, Pitch_bend_c, 5, 8576
4, 1378752, Pitch_bend_c, 5, 8704
4, 1378800, Pitch_bend_c, 5, 8832
4, 1378800, Pitch_bend_c, 5, 8832
4, 1379040, Pitch_bend_c, 5, 8832
4, 1379088, Pitch_bend_c, 5, 8704
4, 1379136, Pitch_bend_c, 5, 8576
4, 1379184, Pitch_bend_c, 5, 8448
4, 1379232, Pitch_bend_c, 5, 8320
4, 1379280, Pitch_bend_c, 5, 8192
4, 1379280, Pitch_bend_c, 5, 8192
4, 1379520, Pitch_bend_c, 5, 8192
4, 1379520, Pitch_bend_c, 5, 8192
4, 1379520, Note_off_c, 5, 61, 95
4, 1379520, Note_on_c, 4, 45, 95
4, 1380480, Note_off_c, 4, 45, 95
4, 1380480, Note_on_c, 4, 55, 95
4, 1380960, Note_off_c, 4, 55, 95
4, 1380960, Note_on_c, 4, 57, 95
4, 1381440, Note_off_c, 4, 57, 95
4, 1381440, Note_on_c, 4, 45, 95
4, 1381920, Note_off_c, 4, 45, 95
4, 1381920, Note_on_c, 4, 57, 95
4, 1382400, Note_off_c, 4, 57, 95
4, 1382400, Note_on_c, 4, 45, 95
4, 1382880, Note_off_c, 4, 45, 95
4, 1382880, Pitch_bend_c, 5, 8192
4, 1382880, Note_on_c, 5, 61, 95
4, 1382928, Pitch_bend_c, 5, 8320
4, 1382976, Pitch_bend_c, 5, 8448
4, 1383024, Pitch_bend_c, 5, 8576
4, 1383072, Pitch_bend_c, 5, 8704
4, 1383120, Pitch_bend_c, 5, 8832
4, 1383120, Pitch_bend_c, 5, 8832
4, 1383360, Pitch_bend_c, 5, 8832
4, 1383408, Pitch_bend_c, 5, 8704
4, 1383456, Pitch_bend_c, 5, 8576
4, 1383504, Pitch_bend_c, 5, 8448
4, 1383552, Pitch_bend_c, 5, 8320
4, 1383600, Pitch_bend_c, 5, 8192
4, 1383600, Pitch_bend_c, 5, 8192
4, 1383840, Pitch_bend_c, 5, 8192
4, 1383840, Pitch_bend_c, 5, 8192
4, 1383840, Note_off_c, 5, 61, 95
4, 1383840, Note_on_c, 4, 45, 95
4, 1384320, Note_off_c, 4, 45, 95
4, 1384320, Note_on_c, 4, 40, 95
4, 1384800, Note_off_c, 4, 40, 95
4, 1384800, Note_on_c, 4, 55, 95
4, 1385280, Note_off_c, 4, 55, 95
4, 1385280, Note_on_c, 4, 57, 95
4, 1385760, Note_off_c, 4, 57, 95
4, 1386240, Note_on_c, 5, 57, 95
4, 1386400, Pitch_bend_c, 5, 8192
4, 1386560, Pitch_bend_c, 5, 8320
4, 1386720, Pitch_bend_c, 5, 8192
4, 1386720, Pitch_bend_c, 5, 8320
4, 1386720, Pitch_bend_c, 5, 8192
4, 1386720, Note_off_c, 5, 57, 95
4, 1387680, Note_on_c, 4, 57, 95
4, 1388160, Note_off_c, 4, 57, 95
4, 1388640, Note_on_c, 4, 55, 95
4, 1389120, Note_off_c, 4, 55, 95
4, 1389600, Note_on_c, 4, 58, 95
4, 1390080, Note_off_c, 4, 58, 95
4, 1390560, Pitch_bend_c, 5, 8192
4, 1390560, Note_on_c, 5, 61, 95
4, 1390608, Pitch_bend_c, 5, 8320
4, 1390656, Pitch_bend_c, 5, 8448
4, 1390704, Pitch_bend_c, 5, 8576
4, 1390752, Pitch_bend_c, 5, 8704
4, 1390800, Pitch_bend_c, 5, 8832
4, 1390800, Pitch_bend_c, 5, 8832
4, 1391040, Pitch_bend_c, 5, 8832
4, 1391088, Pitch_bend_c, 5, 8704
4, 1391136, Pitch_bend_c, 5, 8576
4, 1391184, Pitch_bend_c, 5, 8448
4, 1391232, Pitch_bend_c, 5, 8320
4, 1391280, Pitch_bend_c, 5, 8192
4, 1391280, Pitch_bend_c, 5, 8192
4, 1391520, Pitch_bend_c, 5, 8192
4, 1391520, Pitch_bend_c, 5, 8192
4, 1391520, Note_off_c, 5, 61, 95
4, 1391520, Note_on_c, 4, 45, 95
4, 1392000, Note_off_c, 4, 45, 95
4, 1392000, Note_on_c, 4, 40, 95
4, 1392480, Note_off_c, 4, 40, 95
4, 1392480, Note_on_c, 4, 55, 95
4, 1392960, Note_off_c, 4, 55, 95
4, 1392960, Note_on_c, 4, 57, 95
4, 1393440, Note_off_c, 4, 57, 95
4, 1393920, Pitch_bend_c, 5, 8192
4, 1393920, Note_on_c, 5, 61, 95
4, 1393968, Pitch_bend_c, 5, 8320
4, 1394016, Pitch_bend_c, 5, 8448
4, 1394064, Pitch_bend_c, 5, 8576
4, 1394112, Pitch_bend_c, 5, 8704
4, 1394160, Pitch_bend_c, 5, 8832
4, 1394160, Pitch_bend_c, 5, 8832
4, 1394400, Pitch_bend_c, 5, 8832
4, 1394448, Pitch_bend_c, 5, 8704
4, 1394496, Pitch_bend_c, 5, 8576
4, 1394544, Pitch_bend_c, 5, 8448
4, 1394592, Pitch_bend_c, 5, 8320
4, 1394640, Pitch_bend_c, 5, 8192
4, 1394640, Pitch_bend_c, 5, 8192
4, 1394880, Pitch_bend_c, 5, 8192
4, 1394880, Pitch_bend_c, 5, 8192
4, 1394880, Note_off_c, 5, 61, 95
4, 1394880, Note_on_c, 4, 45, 95
4, 1395840, Note_off_c, 4, 45, 95
4, 1395840, Note_on_c, 4, 55, 95
4, 1396320, Note_off_c, 4, 55, 95
4, 1396320, Note_on_c, 4, 57, 95
4, 1396800, Note_off_c, 4, 57, 95
4, 1396800, Note_on_c, 4, 45, 95
4, 1397280, Note_off_c, 4, 45, 95
4, 1397280, Note_on_c, 4, 49, 95
4, 1397520, Note_off_c, 4, 49, 95
4, 1397520, Note_on_c, 4, 50, 95
4, 1397760, Note_off_c, 4, 50, 95
4, 1397760, Note_on_c, 4, 52, 95
4, 1398240, Note_off_c, 4, 52, 95
4, 1398240, Pitch_bend_c, 5, 8192
4, 1398240, Note_on_c, 5, 61, 95
4, 1398288, Pitch_bend_c, 5, 8320
4, 1398336, Pitch_bend_c, 5, 8448
4, 1398384, Pitch_bend_c, 5, 8576
4, 1398432, Pitch_bend_c, 5, 8704
4, 1398480, Pitch_bend_c, 5, 8832
4, 1398480, Pitch_bend_c, 5, 8832
4, 1398720, Pitch_bend_c, 5, 8832
4, 1398768, Pitch_bend_c, 5, 8704
4, 1398816, Pitch_bend_c, 5, 8576
4, 1398864, Pitch_bend_c, 5, 8448
4, 1398912, Pitch_bend_c, 5, 8320
4, 1398960, Pitch_bend_c, 5, 8192
4, 1398960, Pitch_bend_c, 5, 8192
4, 1399200, Pitch_bend_c, 5, 8192
4, 1399200, Pitch_bend_c, 5, 8192
4, 1399200, Note_off_c, 5, 61, 95
4, 1399200, Note_on_c, 4, 45, 95
4, 1399680, Note_off_c, 4, 45, 95
4, 1399680, Note_on_c, 4, 40, 95
4, 1400160, Note_off_c, 4, 40, 95
4, 1400160, Note_on_c, 4, 55, 95
4, 1400640, Note_off_c, 4, 55, 95
4, 1400640, Note_on_c, 4, 57, 95
4, 1401120, Note_off_c, 4, 57, 95
4, 1401600, Note_on_c, 5, 57, 95
4, 1401760, Pitch_bend_c, 5, 8192
4, 1401920, Pitch_bend_c, 5, 8320
4, 1402080, Pitch_bend_c, 5, 8192
4, 1402240, Pitch_bend_c, 5, 8320
4, 1402400, Pitch_bend_c, 5, 8192
4, 1402560, Pitch_bend_c, 5, 8320
4, 1402560, Pitch_bend_c, 5, 8192
4, 1402560, Note_off_c, 5, 57, 95
4, 1402560, Note_on_c, 4, 45, 95
4, 1403040, Note_off_c, 4, 45, 95
4, 1403040, Note_on_c, 4, 46, 95
4, 1403520, Note_off_c, 4, 46, 95
4, 1403520, Note_on_c, 4, 49, 95
4, 1404000, Note_off_c, 4, 49, 95
4, 1404000, Note_on_c, 4, 50, 95
4, 1404480, Note_off_c, 4, 50, 95
4, 1404480, Note_on_c, 4, 53, 95
4, 1404960, Note_off_c, 4, 53, 95
4, 1404960, Note_on_c, 4, 52, 95
4, 1405080, Note_off_c, 4, 52, 95
4, 1405080, Note_on_c, 4, 53, 70
4, 1405200, Note_off_c, 4, 53, 70
4, 1405200, Note_on_c, 4, 52, 70
4, 1405440, Note_off_c, 4, 52, 70
4, 1405440, Note_on_c, 4, 50, 95
4, 1405920, Note_off_c, 4, 50, 95
4, 1405920, Pitch_bend_c, 5, 8192
4, 1405920, Note_on_c, 5, 61, 95
4, 1405968, Pitch_bend_c, 5, 8320
4, 1406016, Pitch_bend_c, 5, 8448
4, 1406064, Pitch_bend_c, 5, 8576
4, 1406112, Pitch_bend_c, 5, 8704
4, 1406160, Pitch_bend_c, 5, 8832
4, 1406160, Pitch_bend_c, 5, 8832
4, 1406400, Pitch_bend_c, 5, 8832
4, 1406448, Pitch_bend_c, 5, 8704
4, 1406496, Pitch_bend_c, 5, 8576
4, 1406544, Pitch_bend_c, 5, 8448
4, 1406592, Pitch_bend_c, 5, 8320
4, 1406640, Pitch_bend_c, 5, 8192
4, 1406640, Pitch_bend_c, 5, 8192
4, 1406880, Pitch_bend_c, 5, 8192
4, 1406880, Pitch_bend_c, 5, 8192
4, 1406880, Note_off_c, 5, 61, 95
4, 1406880, Note_on_c, 4, 45, 95
4, 1407360, Note_off_c, 4, 45, 95
4, 1407360, Note_on_c, 4, 40, 95
4, 1407840, Note_off_c, 4, 40, 95
4, 1407840, Note_on_c, 4, 55, 95
4, 1408320, Note_off_c, 4, 55, 95
4, 1408320, Note_on_c, 4, 57, 95
4, 1408800, Note_off_c, 4, 57, 95
4, 1409280, Pitch_bend_c, 5, 8192
4, 1409280, Note_on_c, 5, 61, 95
4, 1409328, Pitch_bend_c, 5, 8320
4, 1409376, Pitch_bend_c, 5, 8448
4, 1409424, Pitch_bend_c, 5, 8576
4, 1409472, Pitch_bend_c, 5, 8704
4, 1409520, Pitch_bend_c, 5, 8832
4, 1409520, Pitch_bend_c, 5, 8832
4, 1409760, Pitch_bend_c, 5, 8832
4, 1409808, Pitch_bend_c, 5, 8704
4, 1409856, Pitch_bend_c, 5, 8576
4, 1409904, Pitch_bend_c, 5, 8448
4, 1409952, Pitch_bend_c, 5, 8320
4, 1410000, Pitch_bend_c, 5, 8192
4, 1410000, Pitch_bend_c, 5, 8192
4, 1410240, Pitch_bend_c, 5, 8192
4, 1410240, Pitch_bend_c, 5, 8192
4, 1410240, Note_off_c, 5, 61, 95
4, 1410240, Note_on_c, 4, 45, 95
4, 1411200, Note_off_c, 4, 45, 95
4, 1411200, Note_on_c, 4, 55, 95
4, 1411680, Note_off_c, 4, 55, 95
4, 1411680, Note_on_c, 4, 57, 95
4, 1412160, Note_off_c, 4, 57, 95
4, 1412160, Note_on_c, 4, 45, 95
4, 1412640, Note_off_c, 4, 45, 95
4, 1412640, Note_on_c, 4, 57, 95
4, 1413120, Note_off_c, 4, 57, 95
4, 1413120, Note_on_c, 4, 45, 95
4, 1413600, Note_off_c, 4, 45, 95
4, 1413600, Pitch_bend_c, 5, 8192
4, 1413600, Note_on_c, 5, 61, 95
4, 1413648, Pitch_bend_c, 5, 8320
4, 1413696, Pitch_bend_c, 5, 8448
4, 1413744, Pitch_bend_c, 5, 8576
4, 1413792, Pitch_bend_c, 5, 8704
4, 1413840, Pitch_bend_c, 5, 8832
4, 1413840, Pitch_bend_c, 5, 8832
4, 1414080, Pitch_bend_c, 5, 8832
4, 1414128, Pitch_bend_c, 5, 8704
4, 1414176, Pitch_bend_c, 5, 8576
4, 1414224, Pitch_bend_c, 5, 8448
4, 1414272, Pitch_bend_c, 5, 8320
4, 1414320, Pitch_bend_c, 5, 8192
4, 1414320, Pitch_bend_c, 5, 8192
4, 1414560, Pitch_bend_c, 5, 8192
4, 1414560, Pitch_bend_c, 5, 8192
4, 1414560, Note_off_c, 5, 61, 95
4, 1414560, Note_on_c, 4, 45, 95
4, 1415040, Note_off_c, 4, 45, 95
4, 1415040, Note_on_c, 4, 40, 95
4, 1415520, Note_off_c, 4, 40, 95
4, 1415520, Note_on_c, 4, 55, 95
4, 1416000, Note_off_c, 4, 55, 95
4, 1416000, Note_on_c, 4, 57, 95
4, 1416480, Note_off_c, 4, 57, 95
4, 1416960, Note_on_c, 5, 57, 95
4, 1417120, Pitch_bend_c, 5, 8192
4, 1417280, Pitch_bend_c, 5, 8320
4, 1417440, Pitch_bend_c, 5, 8192
4, 1417440, Pitch_bend_c, 5, 8320
4, 1417440, Pitch_bend_c, 5, 8192
4, 1417440, Note_off_c, 5, 57, 95
4, 1418400, Note_on_c, 4, 57, 95
4, 1418880, Note_off_c, 4, 57, 95
4, 1419360, Note_on_c, 4, 55, 95
4, 1419840, Note_off_c, 4, 55, 95
4, 1420320, Note_on_c, 4, 58, 95
4, 1420800, Note_off_c, 4, 58, 95
4, 1421280, Pitch_bend_c, 5, 8192
4, 1421280, Note_on_c, 5, 61, 95
4, 1421328, Pitch_bend_c, 5, 8320
4, 1421376, Pitch_bend_c, 5, 8448
4, 1421424, Pitch_bend_c, 5, 8576
4, 1421472, Pitch_bend_c, 5, 8704
4, 1421520, Pitch_bend_c, 5, 8832
4, 1421520, Pitch_bend_c, 5, 8832
4, 1421760, Pitch_bend_c, 5, 8832
4, 1421808, Pitch_bend_c, 5, 8704
4, 1421856, Pitch_bend_c, 5, 8576
4, 1421904, Pitch_bend_c, 5, 8448
4, 1421952, Pitch_bend_c, 5, 8320
4, 1422000, Pitch_bend_c, 5, 8192
4, 1422000, Pitch_bend_c, 5, 8192
4, 1422240, Pitch_bend_c, 5, 8192
4, 1422240, Pitch_bend_c, 5, 8192
4, 1422240, Note_off_c, 5, 61, 95
4, 1422240, Note_on_c, 4, 45, 95
4, 1422720, Note_off_c, 4, 45, 95
4, 1422720, Note_on_c, 4, 40, 95
4, 1423200, Note_off_c, 4, 40, 95
4, 1423200, Note_on_c, 4, 55, 95
4, 1423680, Note_off_c, 4, 55, 95
4, 1423680, Note_on_c, 4, 57, 95
4, 1424160, Note_off_c, 4, 57, 95
4, 1424640, Pitch_bend_c, 5, 8192
4, 1424640, Note_on_c, 5, 61, 95
4, 1424688, Pitch_bend_c, 5, 8320
4, 1424736, Pitch_bend_c, 5, 8448
4, 1424784, Pitch_bend_c, 5, 8576
4, 1424832, Pitch_bend_c, 5, 8704
4, 1424880, Pitch_bend_c, 5, 8832
4, 1424880, Pitch_bend_c, 5, 8832
4, 1425120, Pitch_bend_c, 5, 8832
4, 1425168, Pitch_bend_c, 5, 8704
4, 1425216, Pitch_bend_c, 5, 8576
4, 1425264, Pitch_bend_c, 5, 8448
4, 1425312, Pitch_bend_c, 5, 8320
4, 1425360, Pitch_bend_c, 5, 8192
4, 1425360, Pitch_bend_c, 5, 8192
4, 1425600, Pitch_bend_c, 5, 8192
4, 1425600, Pitch_bend_c, 5, 8192
4, 1425600, Note_off_c, 5, 61, 95
4, 1425600, Note_on_c, 4, 45, 95
4, 1426560, Note_off_c, 4, 45, 95
4, 1426560, Note_on_c, 4, 55, 95
4, 1427040, Note_off_c, 4, 55, 95
4, 1427040, Note_on_c, 4, 57, 95
4, 1427520, Note_off_c, 4, 57, 95
4, 1427520, Note_on_c, 4, 45, 95
4, 1428000, Note_off_c, 4, 45, 95
4, 1428000, Note_on_c, 4, 57, 95
4, 1428480, Note_off_c, 4, 57, 95
4, 1428480, Note_on_c, 4, 45, 95
4, 1428960, Note_off_c, 4, 45, 95
4, 1428960, Pitch_bend_c, 5, 8192
4, 1428960, Note_on_c, 5, 61, 95
4, 1429008, Pitch_bend_c, 5, 8320
4, 1429056, Pitch_bend_c, 5, 8448
4, 1429104, Pitch_bend_c, 5, 8576
4, 1429152, Pitch_bend_c, 5, 8704
4, 1429200, Pitch_bend_c, 5, 8832
4, 1429200, Pitch_bend_c, 5, 8832
4, 1429440, Pitch_bend_c, 5, 8832
4, 1429488, Pitch_bend_c, 5, 8704
4, 1429536, Pitch_bend_c, 5, 8576
4, 1429584, Pitch_bend_c, 5, 8448
4, 1429632, Pitch_bend_c, 5, 8320
4, 1429680, Pitch_bend_c, 5, 8192
4, 1429680, Pitch_bend_c, 5, 8192
4, 1429920, Pitch_bend_c, 5, 8192
4, 1429920, Pitch_bend_c, 5, 8192
4, 1429920, Note_off_c, 5, 61, 95
4, 1429920, Note_on_c, 4, 45, 95
4, 1430400, Note_off_c, 4, 45, 95
4, 1430400, Note_on_c, 4, 40, 95
4, 1430880, Note_off_c, 4, 40, 95
4, 1430880, Note_on_c, 4, 55, 95
4, 1431360, Note_off_c, 4, 55, 95
4, 1431360, Note_on_c, 4, 57, 95
4, 1431840, Note_off_c, 4, 57, 95
4, 1432320, Note_on_c, 5, 57, 95
4, 1432480, Pitch_bend_c, 5, 8192
4, 1432640, Pitch_bend_c, 5, 8320
4, 1432800, Pitch_bend_c, 5, 8192
4, 1432800, Pitch_bend_c, 5, 8320
4, 1432800, Pitch_bend_c, 5, 8192
4, 1432800, Note_off_c, 5, 57, 95
4, 1433760, Note_on_c, 4, 57, 95
4, 1434240, Note_off_c, 4, 57, 95
4, 1434720, Note_on_c, 4, 55, 95
4, 1435200, Note_off_c, 4, 55, 95
4, 1435680, Note_on_c, 4, 58, 95
4, 1436160, Note_off_c, 4, 58, 95
4, 1436640, Pitch_bend_c, 5, 8192
4, 1436640, Note_on_c, 5, 61, 95
4, 1436688, Pitch_bend_c, 5, 8320
4, 1436736, Pitch_bend_c, 5, 8448
4, 1436784, Pitch_bend_c, 5, 8576
4, 1436832, Pitch_bend_c, 5, 8704
4, 1436880, Pitch_bend_c, 5, 8832
4, 1436880, Pitch_bend_c, 5, 8832
4, 1437120, Pitch_bend_c, 5, 8832
4, 1437168, Pitch_bend_c, 5, 8704
4, 1437216, Pitch_bend_c, 5, 8576
4, 1437264, Pitch_bend_c, 5, 8448
4, 1437312, Pitch_bend_c, 5, 8320
4, 1437360, Pitch_bend_c, 5, 8192
4, 1437360, Pitch_bend_c, 5, 8192
4, 1437600, Pitch_bend_c, 5, 8192
4, 1437600, Pitch_bend_c, 5, 8192
4, 1437600, Note_off_c, 5, 61, 95
4, 1437600, Note_on_c, 4, 45, 95
4, 1438080, Note_off_c, 4, 45, 95
4, 1438080, Note_on_c, 4, 40, 95
4, 1438560, Note_off_c, 4, 40, 95
4, 1438560, Note_on_c, 4, 55, 95
4, 1439040, Note_off_c, 4, 55, 95
4, 1439040, Note_on_c, 4, 57, 95
4, 1439520, Note_off_c, 4, 57, 95
4, 1440000, Pitch_bend_c, 5, 8192
4, 1440000, Note_on_c, 5, 61, 95
4, 1440048, Pitch_bend_c, 5, 8320
4, 1440096, Pitch_bend_c, 5, 8448
4, 1440144, Pitch_bend_c, 5, 8576
4, 1440192, Pitch_bend_c, 5, 8704
4, 1440240, Pitch_bend_c, 5, 8832
4, 1440240, Pitch_bend_c, 5, 8832
4, 1440480, Pitch_bend_c, 5, 8832
4, 1440528, Pitch_bend_c, 5, 8704
4, 1440576, Pitch_bend_c, 5, 8576
4, 1440624, Pitch_bend_c, 5, 8448
4, 1440672, Pitch_bend_c, 5, 8320
4, 1440720, Pitch_bend_c, 5, 8192
4, 1440720, Pitch_bend_c, 5, 8192
4, 1440960, Pitch_bend_c, 5, 8192
4, 1440960, Pitch_bend_c, 5, 8192
4, 1440960, Note_off_c, 5, 61, 95
4, 1440960, Note_on_c, 4, 45, 95
4, 1441920, Note_off_c, 4, 45, 95
4, 1441920, Note_on_c, 4, 55, 95
4, 1442400, Note_off_c, 4, 55, 95
4, 1442400, Note_on_c, 4, 57, 95
4, 1442880, Note_off_c, 4, 57, 95
4, 1442880, Note_on_c, 4, 45, 95
4, 1443360, Note_off_c, 4, 45, 95
4, 1443360, Note_on_c, 4, 49, 95
4, 1443600, Note_off_c, 4, 49, 95
4, 1443600, Note_on_c, 4, 50, 95
4, 1443840, Note_off_c, 4, 50, 95
4, 1443840, Note_on_c, 4, 52, 95
4, 1444320, Note_off_c, 4, 52, 95
4, 1444320, Pitch_bend_c, 5, 8192
4, 1444320, Note_on_c, 5, 61, 95
4, 1444368, Pitch_bend_c, 5, 8320
4, 1444416, Pitch_bend_c, 5, 8448
4, 1444464, Pitch_bend_c, 5, 8576
4, 1444512, Pitch_bend_c, 5, 8704
4, 1444560, Pitch_bend_c, 5, 8832
4, 1444560, Pitch_bend_c, 5, 8832
4, 1444800, Pitch_bend_c, 5, 8832
4, 1444848, Pitch_bend_c, 5, 8704
4, 1444896, Pitch_bend_c, 5, 8576
4, 1444944, Pitch_bend_c, 5, 8448
4, 1444992, Pitch_bend_c, 5, 8320
4, 1445040, Pitch_bend_c, 5, 8192
4, 1445040, Pitch_bend_c, 5, 8192
4, 1445280, Pitch_bend_c, 5, 8192
4, 1445280, Pitch_bend_c, 5, 8192
4, 1445280, Note_off_c, 5, 61, 95
4, 1445280, Note_on_c, 4, 45, 95
4, 1445760, Note_off_c, 4, 45, 95
4, 1445760, Note_on_c, 4, 40, 95
4, 1446240, Note_off_c, 4, 40, 95
4, 1446240, Note_on_c, 4, 55, 95
4, 1446720, Note_off_c, 4, 55, 95
4, 1446720, Note_on_c, 4, 57, 95
4, 1447200, Note_off_c, 4, 57, 95
4, 1447680, Note_on_c, 5, 57, 95
4, 1447840, Pitch_bend_c, 5, 8192
4, 1448000, Pitch_bend_c, 5, 8320
4, 1448160, Pitch_bend_c, 5, 8192
4, 1448320, Pitch_bend_c, 5, 8320
4, 1448480, Pitch_bend_c, 5, 8192
4, 1448640, Pitch_bend_c, 5, 8320
4, 1448640, Pitch_bend_c, 5, 8192
4, 1448640, Note_off_c, 5, 57, 95
4, 1448640, Note_on_c, 4, 45, 95
4, 1449120, Note_off_c, 4, 45, 95
4, 1449120, Note_on_c, 4, 46, 95
4, 1449600, Note_off_c, 4, 46, 95
4, 1449600, Note_on_c, 4, 49, 95
4, 1450080, Note_off_c, 4, 49, 95
4, 1450080, Note_on_c, 4, 50, 95
4, 1450560, Note_off_c, 4, 50, 95
4, 1450560, Note_on_c, 4, 53, 95
4, 1451040, Note_off_c, 4, 53, 95
4, 1451040, Note_on_c, 4, 52, 95
4, 1451160, Note_off_c, 4, 52, 95
4, 1451160, Note_on_c, 4, 53, 70
4, 1451280, Note_off_c, 4, 53, 70
4, 1451280, Note_on_c, 4, 52, 70
4, 1451520, Note_off_c, 4, 52, 70
4, 1451520, Note_on_c, 4, 50, 95
4, 1452000, Note_off_c, 4, 50, 95
4, 1452000, Pitch_bend_c, 5, 8192
4, 1452000, Note_on_c, 5, 61, 95
4, 1452048, Pitch_bend_c, 5, 8320
4, 1452096, Pitch_bend_c, 5, 8448
4, 1452144, Pitch_bend_c, 5, 8576
4, 1452192, Pitch_bend_c, 5, 8704
4, 1452240, Pitch_bend_c, 5, 8832
4, 1452240, Pitch_bend_c, 5, 8832
4, 1452480, Pitch_bend_c, 5, 8832
4, 1452528, Pitch_bend_c, 5, 8704
4, 1452576, Pitch_bend_c, 5, 8576
4, 1452624, Pitch_bend_c, 5, 8448
4, 1452672, Pitch_bend_c, 5, 8320
4, 1452720, Pitch_bend_c, 5, 8192
4, 1452720, Pitch_bend_c, 5, 8192
4, 1452960, Pitch_bend_c, 5, 8192
4, 1452960, Pitch_bend_c, 5, 8192
4, 1452960, Note_off_c, 5, 61, 95
4, 1452960, Note_on_c, 4, 45, 95
4, 1453440, Note_off_c, 4, 45, 95
4, 1453440, Note_on_c, 4, 40, 95
4, 1453920, Note_off_c, 4, 40, 95
4, 1453920, Note_on_c, 4, 55, 95
4, 1454400, Note_off_c, 4, 55, 95
4, 1454400, Note_on_c, 4, 57, 95
4, 1454880, Note_off_c, 4, 57, 95
4, 1455360, Pitch_bend_c, 5, 8192
4, 1455360, Note_on_c, 5, 61, 95
4, 1455408, Pitch_bend_c, 5, 8320
4, 1455456, Pitch_bend_c, 5, 8448
4, 1455504, Pitch_bend_c, 5, 8576
4, 1455552, Pitch_bend_c, 5, 8704
4, 1455600, Pitch_bend_c, 5, 8832
4, 1455600, Pitch_bend_c, 5, 8832
4, 1455840, Pitch_bend_c, 5, 8832
4, 1455888, Pitch_bend_c, 5, 8704
4, 1455936, Pitch_bend_c, 5, 8576
4, 1455984, Pitch_bend_c, 5, 8448
4, 1456032, Pitch_bend_c, 5, 8320
4, 1456080, Pitch_bend_c, 5, 8192
4, 1456080, Pitch_bend_c, 5, 8192
4, 1456320, Pitch_bend_c, 5, 8192
4, 1456320, Pitch_bend_c, 5, 8192
4, 1456320, Note_off_c, 5, 61, 95
4, 1456320, Note_on_c, 4, 45, 95
4, 1457280, Note_off_c, 4, 45, 95
4, 1457280, Note_on_c, 4, 55, 95
4, 1457760, Note_off_c, 4, 55, 95
4, 1457760, Note_on_c, 4, 57, 95
4, 1458240, Note_off_c, 4, 57, 95
4, 1458240, Note_on_c, 4, 45, 95
4, 1458720, Note_off_c, 4, 45, 95
4, 1458720, Note_on_c, 4, 57, 95
4, 1459200, Note_off_c, 4, 57, 95
4, 1459200, Note_on_c, 4, 45, 95
4, 1459680, Note_off_c, 4, 45, 95
4, 1459680, Pitch_bend_c, 5, 8192
4, 1459680, Note_on_c, 5, 61, 95
4, 1459728, Pitch_bend_c, 5, 8320
4, 1459776, Pitch_bend_c, 5, 8448
4, 1459824, Pitch_bend_c, 5, 8576
4, 1459872, Pitch_bend_c, 5, 8704
4, 1459920, Pitch_bend_c, 5, 8832
4, 1459920, Pitch_bend_c, 5, 8832
4, 1460160, Pitch_bend_c, 5, 8832
4, 1460208, Pitch_bend_c, 5, 8704
4, 1460256, Pitch_bend_c, 5, 8576
4, 1460304, Pitch_bend_c, 5, 8448
4, 1460352, Pitch_bend_c, 5, 8320
4, 1460400, Pitch_bend_c, 5, 8192
4, 1460400, Pitch_bend_c, 5, 8192
4, 1460640, Pitch_bend_c, 5, 8192
4, 1460640, Pitch_bend_c, 5, 8192
4, 1460640, Note_off_c, 5, 61, 95
4, 1460640, Note_on_c, 4, 45, 95
4, 1461120, Note_off_c, 4, 45, 95
4, 1461120, Note_on_c, 4, 40, 95
4, 1461600, Note_off_c, 4, 40, 95
4, 1461600, Note_on_c, 4, 55, 95
4, 1462080, Note_off_c, 4, 55, 95
4, 1462080, Note_on_c, 4, 57, 95
4, 1462560, Note_off_c, 4, 57, 95
4, 1463040, Note_on_c, 5, 57, 95
4, 1463200, Pitch_bend_c, 5, 8192
4, 1463360, Pitch_bend_c, 5, 8320
4, 1463520, Pitch_bend_c, 5, 8192
4, 1463520, Pitch_bend_c, 5, 8320
4, 1463520, Pitch_bend_c, 5, 8192
4, 1463520, Note_off_c, 5, 57, 95
4, 1464480, Note_on_c, 4, 57, 95
4, 1464960, Note_off_c, 4, 57, 95
4, 1465440, Note_on_c, 4, 55, 95
4, 1465920, Note_off_c, 4, 55, 95
4, 1466400, Note_on_c, 4, 58, 95
4, 1466880, Note_off_c, 4, 58, 95
4, 1467360, Pitch_bend_c, 5, 8192
4, 1467360, Note_on_c, 5, 61, 95
4, 1467408, Pitch_bend_c, 5, 8320
4, 1467456, Pitch_bend_c, 5, 8448
4, 1467504, Pitch_bend_c, 5, 8576
4, 1467552, Pitch_bend_c, 5, 8704
4, 1467600, Pitch_bend_c, 5, 8832
4, 1467600, Pitch_bend_c, 5, 8832
4, 1467840, Pitch_bend_c, 5, 8832
4, 1467888, Pitch_bend_c, 5, 8704
4, 1467936, Pitch_bend_c, 5, 8576
4, 1467984, Pitch_bend_c, 5, 8448
4, 1468032, Pitch_bend_c, 5, 8320
4, 1468080, Pitch_bend_c, 5, 8192
4, 1468080, Pitch_bend_c, 5, 8192
4, 1468320, Pitch_bend_c, 5, 8192
4, 1468320, Pitch_bend_c, 5, 8192
4, 1468320, Note_off_c, 5, 61, 95
4, 1468320, Note_on_c, 4, 45, 95
4, 1468800, Note_off_c, 4, 45, 95
4, 1468800, Note_on_c, 4, 40, 95
4, 1469280, Note_off_c, 4, 40, 95
4, 1469280, Note_on_c, 4, 55, 95
4, 1469760, Note_off_c, 4, 55, 95
4, 1469760, Note_on_c, 4, 57, 95
4, 1470240, Note_off_c, 4, 57, 95
4, 1470720, Pitch_bend_c, 5, 8192
4, 1470720, Note_on_c, 5, 61, 95
4, 1470768, Pitch_bend_c, 5, 8320
4, 1470816, Pitch_bend_c, 5, 8448
4, 1470864, Pitch_bend_c, 5, 8576
4, 1470912, Pitch_bend_c, 5, 8704
4, 1470960, Pitch_bend_c, 5, 8832
4, 1470960, Pitch_bend_c, 5, 8832
4, 1471200, Pitch_bend_c, 5, 8832
4, 1471248, Pitch_bend_c, 5, 8704
4, 1471296, Pitch_bend_c, 5, 8576
4, 1471344, Pitch_bend_c, 5, 8448
4, 1471392, Pitch_bend_c, 5, 8320
4, 1471440, Pitch_bend_c, 5, 8192
4, 1471440, Pitch_bend_c, 5, 8192
4, 1471680, Pitch_bend_c, 5, 8192
4, 1471680, Pitch_bend_c, 5, 8192
4, 1471680, Note_off_c, 5, 61, 95
4, 1471680, Note_on_c, 4, 45, 95
4, 1472640, Note_off_c, 4, 45, 95
4, 1472640, Note_on_c, 4, 55, 95
4, 1473120, Note_off_c, 4, 55, 95
4, 1473120, Note_on_c, 4, 57, 95
4, 1473600, Note_off_c, 4, 57, 95
4, 1473600, Note_on_c, 4, 45, 95
4, 1474080, Note_off_c, 4, 45, 95
4, 1474080, Note_on_c, 4, 49, 95
4, 1474320, Note_off_c, 4, 49, 95
4, 1474320, Note_on_c, 4, 50, 95
4, 1474560, Note_off_c, 4, 50, 95
4, 1474560, Note_on_c, 4, 52, 95
4, 1475040, Note_off_c, 4, 52, 95
4, 1475040, Pitch_bend_c, 5, 8192
4, 1475040, Note_on_c, 5, 61, 95
4, 1475088, Pitch_bend_c, 5, 8320
4, 1475136, Pitch_bend_c, 5, 8448
4, 1475184, Pitch_bend_c, 5, 8576
4, 1475232, Pitch_bend_c, 5, 8704
4, 1475280, Pitch_bend_c, 5, 8832
4, 1475280, Pitch_bend_c, 5, 8832
4, 1475520, Pitch_bend_c, 5, 8832
4, 1475568, Pitch_bend_c, 5, 8704
4, 1475616, Pitch_bend_c, 5, 8576
4, 1475664, Pitch_bend_c, 5, 8448
4, 1475712, Pitch_bend_c, 5, 8320
4, 1475760, Pitch_bend_c, 5, 8192
4, 1475760, Pitch_bend_c, 5, 8192
4, 1476000, Pitch_bend_c, 5, 8192
4, 1476000, Pitch_bend_c, 5, 8192
4, 1476000, Note_off_c, 5, 61, 95
4, 1476000, Note_on_c, 4, 45, 95
4, 1476480, Note_off_c, 4, 45, 95
4, 1476480, Note_on_c, 4, 40, 95
4, 1476960, Note_off_c, 4, 40, 95
4, 1476960, Note_on_c, 4, 55, 95
4, 1477440, Note_off_c, 4, 55, 95
4, 1477440, Note_on_c, 4, 57, 95
4, 1477920, Note_off_c, 4, 57, 95
4, 1478400, Note_on_c, 5, 57, 95
4, 1478560, Pitch_bend_c, 5, 8192
4, 1478720, Pitch_bend_c, 5, 8320
4, 1478880, Pitch_bend_c, 5, 8192
4, 1479040, Pitch_bend_c, 5, 8320
4, 1479200, Pitch_bend_c, 5, 8192
4, 1479360, Pitch_bend_c, 5, 8320
4, 1479360, Pitch_bend_c, 5, 8192
4, 1479360, Note_off_c, 5, 57, 95
4, 1479360, Note_on_c, 4, 45, 95
4, 1479840, Note_off_c, 4, 45, 95
4, 1479840, Note_on_c, 4, 46, 95
4, 1480320, Note_off_c, 4, 46, 95
4, 1480320, Note_on_c, 4, 49, 95
4, 1480800, Note_off_c, 4, 49, 95
4, 1480800, Note_on_c, 4, 50, 95
4, 1481280, Note_off_c, 4, 50, 95
4, 1481280, Note_on_c, 4, 53, 95
4, 1481760, Note_off_c, 4, 53, 95
4, 1481760, Note_on_c, 4, 52, 95
4, 1481880, Note_off_c, 4, 52, 95
4, 1481880, Note_on_c, 4, 53, 70
4, 1482000, Note_off_c, 4, 53, 70
4, 1482000, Note_on_c, 4, 52, 70
4, 1482240, Note_off_c, 4, 52, 70
4, 1482240, Note_on_c, 4, 50, 95
4, 1482720, Note_off_c, 4, 50, 95
4, 1482720, End_track
5, 0, Start_track
5, 0, Pitch_bend_c, 6, 8192
5, 0, Control_c, 6, 7, 111
5, 0, Control_c, 6, 10, 63
5, 0, Control_c, 6, 93, 0
5, 0, Control_c, 6, 91, 0
5, 0, Control_c, 6, 95, 0
5, 0, Control_c, 6, 92, 0
5, 0, Control_c, 6, 11, 127
5, 0, Program_c, 6, 33
5, 0, Control_c, 7, 7, 111
5, 0, Control_c, 7, 10, 63
5, 0, Control_c, 7, 93, 0
5, 0, Control_c, 7, 91, 0
5, 0, Control_c, 7, 95, 0
5, 0, Control_c, 7, 92, 0
5, 0, Control_c, 7, 11, 127
5, 0, Program_c, 7, 33
5, 35520, Note_on_c, 6, 37, 95
5, 35760, Note_off_c, 6, 37, 95
5, 35760, Note_on_c, 6, 38, 95
5, 36000, Note_off_c, 6, 38, 95
5, 36000, Note_on_c, 6, 40, 95
5, 36240, Note_off_c, 6, 40, 95
5, 36240, Note_on_c, 6, 41, 95
5, 36480, Note_off_c, 6, 41, 95
5, 36480, Note_on_c, 6, 43, 95
5, 36720, Note_off_c, 6, 43, 95
5, 36720, Note_on_c, 6, 45, 95
5, 36960, Note_off_c, 6, 45, 95
5, 36960, Note_on_c, 6, 43, 95
5, 37200, Note_off_c, 6, 43, 95
5, 37200, Note_on_c, 6, 41, 95
5, 37440, Note_off_c, 6, 41, 95
5, 37440, Note_on_c, 6, 40, 95
5, 37680, Note_off_c, 6, 40, 95
5, 37680, Note_on_c, 6, 38, 95
5, 37920, Note_off_c, 6, 38, 95
5, 37920, Note_on_c, 6, 37, 95
5, 38160, Note_off_c, 6, 37, 95
5, 38160, Note_on_c, 6, 34, 95
5, 38400, Note_off_c, 6, 34, 95
5, 38400, Note_on_c, 6, 33, 95
5, 38880, Note_off_c, 6, 33, 95
5, 39360, Note_on_c, 6, 33, 95
5, 39840, Note_off_c, 6, 33, 95
5, 40320, Note_on_c, 6, 45, 95
5, 41280, Note_off_c, 6, 45, 95
5, 41280, Note_on_c, 6, 45, 95
5, 41760, Note_off_c, 6, 45, 95
5, 41760, Note_on_c, 6, 33, 95
5, 42240, Note_off_c, 6, 33, 95
5, 42720, Note_on_c, 6, 33, 95
5, 43200, Note_off_c, 6, 33, 95
5, 43680, Note_on_c, 6, 31, 95
5, 44160, Note_off_c, 6, 31, 95
5, 44160, Note_on_c, 6, 45, 95
5, 45120, Note_off_c, 6, 45, 95
5, 45120, Note_on_c, 6, 37, 95
5, 45360, Note_off_c, 6, 37, 95
5, 45360, Note_on_c, 6, 38, 95
5, 45600, Note_off_c, 6, 38, 95
5, 45600, Note_on_c, 6, 40, 95
5, 45840, Note_off_c, 6, 40, 95
5, 46080, Note_on_c, 6, 33, 95
5, 46560, Note_off_c, 6, 33, 95
5, 47040, Note_on_c, 6, 33, 95
5, 47520, Note_off_c, 6, 33, 95
5, 48000, Note_on_c, 6, 45, 95
5, 48960, Note_off_c, 6, 45, 95
5, 48960, Note_on_c, 6, 45, 95
5, 49440, Note_off_c, 6, 45, 95
5, 49440, Note_on_c, 6, 33, 95
5, 49920, Note_off_c, 6, 33, 95
5, 50400, Note_on_c, 6, 33, 95
5, 50880, Note_off_c, 6, 33, 95
5, 50880, Note_on_c, 6, 34, 95
5, 51360, Note_off_c, 6, 34, 95
5, 51360, Note_on_c, 6, 37, 95
5, 51840, Note_off_c, 6, 37, 95
5, 51840, Note_on_c, 6, 38, 95
5, 52320, Note_off_c, 6, 38, 95
5, 52320, Note_on_c, 6, 41, 95
5, 52800, Note_off_c, 6, 41, 95
5, 52800, Note_on_c, 6, 40, 95
5, 52920, Note_off_c, 6, 40, 95
5, 52920, Note_on_c, 6, 41, 70
5, 53040, Note_off_c, 6, 41, 70
5, 53040, Note_on_c, 6, 40, 70
5, 53280, Note_off_c, 6, 40, 70
5, 53280, Note_on_c, 6, 38, 95
5, 53760, Note_off_c, 6, 38, 95
5, 53760, Note_on_c, 6, 33, 95
5, 54240, Note_off_c, 6, 33, 95
5, 54720, Note_on_c, 6, 33, 95
5, 55200, Note_off_c, 6, 33, 95
5, 55680, Note_on_c, 6, 45, 95
5, 56640, Note_off_c, 6, 45, 95
5, 56640, Note_on_c, 6, 45, 95
5, 57120, Note_off_c, 6, 45, 95
5, 57120, Note_on_c, 6, 33, 95
5, 57600, Note_off_c, 6, 33, 95
5, 58080, Note_on_c, 6, 33, 95
5, 58560, Note_off_c, 6, 33, 95
5, 59040, Note_on_c, 6, 31, 95
5, 59520, Note_off_c, 6, 31, 95
5, 59520, Note_on_c, 6, 45, 95
5, 60480, Note_off_c, 6, 45, 95
5, 60480, Note_on_c, 6, 37, 95
5, 60720, Note_off_c, 6, 37, 95
5, 60720, Note_on_c, 6, 38, 95
5, 60960, Note_off_c, 6, 38, 95
5, 60960, Note_on_c, 6, 40, 95
5, 61200, Note_off_c, 6, 40, 95
5, 61440, Note_on_c, 6, 33, 95
5, 61920, Note_off_c, 6, 33, 95
5, 62400, Note_on_c, 6, 33, 95
5, 62880, Note_off_c, 6, 33, 95
5, 63360, Note_on_c, 6, 45, 95
5, 64320, Note_off_c, 6, 45, 95
5, 64320, Note_on_c, 6, 45, 95
5, 64800, Note_off_c, 6, 45, 95
5, 64800, Note_on_c, 7, 45, 95
5, 64960, Pitch_bend_c, 7, 8192
5, 65120, Pitch_bend_c, 7, 8320
5, 65280, Pitch_bend_c, 7, 8192
5, 65440, Pitch_bend_c, 7, 8320
5, 65600, Pitch_bend_c, 7, 8192
5, 65760, Pitch_bend_c, 7, 8320
5, 65920, Pitch_bend_c, 7, 8192
5, 66080, Pitch_bend_c, 7, 8320
5, 66240, Pitch_bend_c, 7, 8192
5, 66240, Pitch_bend_c, 7, 8320
5, 66240, Pitch_bend_c, 7, 8192
5, 66240, Note_off_c, 7, 45, 95
5, 69120, Note_on_c, 6, 31, 95
5, 69600, Note_off_c, 6, 31, 95
5, 69600, Note_on_c, 6, 33, 95
5, 70080, Note_off_c, 6, 33, 95
5, 70080, Note_on_c, 6, 34, 95
5, 70560, Note_off_c, 6, 34, 95
5, 70560, Note_on_c, 6, 38, 95
5, 71040, Note_off_c, 6, 38, 95
5, 71040, Note_on_c, 6, 37, 95
5, 71520, Note_off_c, 6, 37, 95
5, 71520, Note_on_c, 6, 33, 95
5, 72000, Note_off_c, 6, 33, 95
5, 73440, Note_on_c, 6, 31, 95
5, 73920, Note_off_c, 6, 31, 95
5, 73920, Note_on_c, 6, 33, 95
5, 74400, Note_off_c, 6, 33, 95
5, 74400, Note_on_c, 6, 34, 95
5, 74880, Note_off_c, 6, 34, 95
5, 74880, Note_on_c, 6, 38, 95
5, 75360, Note_off_c, 6, 38, 95
5, 75360, Note_on_c, 6, 37, 95
5, 75840, Note_off_c, 6, 37, 95
5, 75840, Note_on_c, 6, 41, 95
5, 76320, Note_off_c, 6, 41, 95
5, 76320, Note_on_c, 6, 40, 95
5, 77280, Note_off_c, 6, 40, 95
5, 77280, Note_on_c, 6, 31, 95
5, 77760, Note_off_c, 6, 31, 95
5, 77760, Note_on_c, 6, 34, 95
5, 78240, Note_off_c, 6, 34, 95
5, 78240, Note_on_c, 6, 38, 95
5, 78720, Note_off_c, 6, 38, 95
5, 78720, Note_on_c, 6, 37, 95
5, 79200, Note_off_c, 6, 37, 95
5, 79200, Note_on_c, 6, 33, 95
5, 79680, Note_off_c, 6, 33, 95
5, 80160, Note_on_c, 6, 33, 95
5, 80640, Note_off_c, 6, 33, 95
5, 80640, Note_on_c, 6, 34, 95
5, 81120, Note_off_c, 6, 34, 95
5, 81120, Note_on_c, 6, 31, 95
5, 81600, Note_off_c, 6, 31, 95
5, 82080, Note_on_c, 6, 29, 95
5, 82560, Note_off_c, 6, 29, 95
5, 82560, Note_on_c, 6, 31, 95
5, 83040, Note_off_c, 6, 31, 95
5, 83040, Note_on_c, 6, 28, 95
5, 83520, Note_off_c, 6, 28, 95
5, 84480, Note_on_c, 6, 31, 95
5, 84960, Note_off_c, 6, 31, 95
5, 84960, Note_on_c, 6, 33, 95
5, 85440, Note_off_c, 6, 33, 95
5, 85440, Note_on_c, 6, 34, 95
5, 85920, Note_off_c, 6, 34, 95
5, 85920, Note_on_c, 6, 38, 95
5, 86400, Note_off_c, 6, 38, 95
5, 86400, Note_on_c, 6, 37, 95
5, 86880, Note_off_c, 6, 37, 95
5, 86880, Note_on_c, 6, 33, 95
5, 87360, Note_off_c, 6, 33, 95
5, 88800, Note_on_c, 6, 31, 95
5, 89280, Note_off_c, 6, 31, 95
5, 89280, Note_on_c, 6, 33, 95
5, 89760, Note_off_c, 6, 33, 95
5, 89760, Note_on_c, 6, 34, 95
5, 90240, Note_off_c, 6, 34, 95
5, 90240, Note_on_c, 6, 38, 95
5, 90720, Note_off_c, 6, 38, 95
5, 90720, Note_on_c, 6, 37, 95
5, 91200, Note_off_c, 6, 37, 95
5, 91200, Note_on_c, 6, 41, 95
5, 91680, Note_off_c, 6, 41, 95
5, 91680, Note_on_c, 6, 40, 95
5, 92640, Note_off_c, 6, 40, 95
5, 92640, Note_on_c, 6, 31, 95
5, 93120, Note_off_c, 6, 31, 95
5, 93120, Note_on_c, 6, 33, 95
5, 93600, Note_off_c, 6, 33, 95
5, 93600, Note_on_c, 6, 34, 95
5, 94080, Note_off_c, 6, 34, 95
5, 94080, Note_on_c, 6, 38, 95
5, 94560, Note_off_c, 6, 38, 95
5, 94560, Note_on_c, 6, 37, 95
5, 95040, Note_off_c, 6, 37, 95
5, 95040, Note_on_c, 6, 34, 95
5, 95520, Note_off_c, 6, 34, 95
5, 95520, Note_on_c, 6, 33, 95
5, 96000, Note_off_c, 6, 33, 95
5, 96000, Note_on_c, 6, 34, 95
5, 96480, Note_off_c, 6, 34, 95
5, 96480, Note_on_c, 6, 33, 95
5, 96960, Note_off_c, 6, 33, 95
5, 97440, Note_on_c, 6, 41, 95
5, 97920, Note_off_c, 6, 41, 95
5, 97920, Note_on_c, 6, 40, 95
5, 98400, Note_off_c, 6, 40, 95
5, 98880, Note_on_c, 6, 33, 95
5, 99360, Note_off_c, 6, 33, 95
5, 99360, Note_on_c, 6, 34, 95
5, 99840, Note_off_c, 6, 34, 95
5, 99840, Note_on_c, 6, 31, 95
5, 100320, Note_off_c, 6, 31, 95
5, 100320, Note_on_c, 6, 33, 95
5, 100800, Note_off_c, 6, 33, 95
5, 100800, Note_on_c, 6, 34, 95
5, 101280, Note_off_c, 6, 34, 95
5, 101280, Note_on_c, 6, 38, 95
5, 101760, Note_off_c, 6, 38, 95
5, 101760, Note_on_c, 6, 37, 95
5, 102240, Note_off_c, 6, 37, 95
5, 102240, Note_on_c, 6, 33, 95
5, 102720, Note_off_c, 6, 33, 95
5, 104160, Note_on_c, 6, 31, 95
5, 104640, Note_off_c, 6, 31, 95
5, 104640, Note_on_c, 6, 33, 95
5, 105120, Note_off_c, 6, 33, 95
5, 105120, Note_on_c, 6, 34, 95
5, 105600, Note_off_c, 6, 34, 95
5, 105600, Note_on_c, 6, 38, 95
5, 106080, Note_off_c, 6, 38, 95
5, 106080, Note_on_c, 6, 37, 95
5, 106560, Note_off_c, 6, 37, 95
5, 106560, Note_on_c, 6, 41, 95
5, 107040, Note_off_c, 6, 41, 95
5, 107040, Note_on_c, 6, 40, 95
5, 108000, Note_off_c, 6, 40, 95
5, 108000, Note_on_c, 6, 31, 95
5, 108480, Note_off_c, 6, 31, 95
5, 108480, Note_on_c, 6, 34, 95
5, 108960, Note_off_c, 6, 34, 95
5, 108960, Note_on_c, 6, 38, 95
5, 109440, Note_off_c, 6, 38, 95
5, 109440, Note_on_c, 6, 37, 95
5, 109920, Note_off_c, 6, 37, 95
5, 109920, Note_on_c, 6, 33, 95
5, 110400, Note_off_c, 6, 33, 95
5, 110880, Note_on_c, 6, 33, 95
5, 111360, Note_off_c, 6, 33, 95
5, 111360, Note_on_c, 6, 34, 95
5, 111840, Note_off_c, 6, 34, 95
5, 111840, Note_on_c, 6, 31, 95
5, 112320, Note_off_c, 6, 31, 95
5, 112800, Note_on_c, 6, 29, 95
5, 113280, Note_off_c, 6, 29, 95
5, 113280, Note_on_c, 6, 31, 95
5, 113760, Note_off_c, 6, 31, 95
5, 113760, Note_on_c, 6, 28, 95
5, 114240, Note_off_c, 6, 28, 95
5, 115200, Note_on_c, 6, 31, 95
5, 115680, Note_off_c, 6, 31, 95
5, 115680, Note_on_c, 6, 33, 95
5, 116160, Note_off_c, 6, 33, 95
5, 116160, Note_on_c, 6, 34, 95
5, 116640, Note_off_c, 6, 34, 95
5, 116640, Note_on_c, 6, 38, 95
5, 117120, Note_off_c, 6, 38, 95
5, 117120, Note_on_c, 6, 37, 95
5, 117600, Note_off_c, 6, 37, 95
5, 117600, Note_on_c, 6, 33, 95
5, 118080, Note_off_c, 6, 33, 95
5, 119520, Note_on_c, 6, 31, 95
5, 120000, Note_off_c, 6, 31, 95
5, 120000, Note_on_c, 6, 33, 95
5, 120480, Note_off_c, 6, 33, 95
5, 120480, Note_on_c, 6, 34, 95
5, 120960, Note_off_c, 6, 34, 95
5, 120960, Note_on_c, 6, 38, 95
5, 121440, Note_off_c, 6, 38, 95
5, 121440, Note_on_c, 6, 37, 95
5, 121920, Note_off_c, 6, 37, 95
5, 121920, Note_on_c, 6, 41, 95
5, 122400, Note_off_c, 6, 41, 95
5, 122400, Note_on_c, 6, 40, 95
5, 123360, Note_off_c, 6, 40, 95
5, 123360, Note_on_c, 6, 31, 95
5, 123840, Note_off_c, 6, 31, 95
5, 123840, Note_on_c, 6, 33, 95
5, 124320, Note_off_c, 6, 33, 95
5, 124320, Note_on_c, 6, 34, 95
5, 124800, Note_off_c, 6, 34, 95
5, 124800, Note_on_c, 6, 38, 95
5, 125280, Note_off_c, 6, 38, 95
5, 125280, Note_on_c, 6, 37, 95
5, 125760, Note_off_c, 6, 37, 95
5, 125760, Note_on_c, 6, 34, 95
5, 126240, Note_off_c, 6, 34, 95
5, 126240, Note_on_c, 6, 33, 95
5, 126720, Note_off_c, 6, 33, 95
5, 126720, Note_on_c, 6, 34, 95
5, 127200, Note_off_c, 6, 34, 95
5, 127200, Note_on_c, 6, 33, 95
5, 127680, Note_off_c, 6, 33, 95
5, 128160, Note_on_c, 6, 41, 95
5, 128640, Note_off_c, 6, 41, 95
5, 128640, Note_on_c, 6, 40, 95
5, 129120, Note_off_c, 6, 40, 95
5, 129600, Note_on_c, 6, 33, 95
5, 130080, Note_off_c, 6, 33, 95
5, 130080, Note_on_c, 6, 34, 95
5, 130560, Note_off_c, 6, 34, 95
5, 130560, Note_on_c, 6, 33, 95
5, 131040, Note_on_c, 6, 45, 95
5, 132000, Note_off_c, 6, 33, 95
5, 132000, Note_on_c, 6, 33, 95
5, 132480, Note_off_c, 6, 45, 95
5, 132480, Note_on_c, 6, 45, 95
5, 132960, Note_off_c, 6, 45, 95
5, 132960, Note_on_c, 6, 46, 95
5, 133440, Note_off_c, 6, 46, 95
5, 133440, Note_on_c, 6, 45, 95
5, 133920, Note_off_c, 6, 45, 95
5, 133920, Note_on_c, 6, 43, 95
5, 134400, Note_off_c, 6, 33, 95
5, 134400, Note_off_c, 6, 43, 95
5, 134400, Note_on_c, 6, 33, 95
5, 134880, Note_on_c, 6, 45, 95
5, 135840, Note_off_c, 6, 33, 95
5, 135840, Note_on_c, 6, 33, 95
5, 136320, Note_off_c, 6, 45, 95
5, 136320, Note_on_c, 6, 45, 95
5, 136800, Note_off_c, 6, 45, 95
5, 136800, Note_on_c, 6, 46, 95
5, 137280, Note_off_c, 6, 46, 95
5, 137280, Note_on_c, 6, 45, 95
5, 137760, Note_off_c, 6, 45, 95
5, 137760, Note_on_c, 6, 43, 95
5, 138240, Note_off_c, 6, 33, 95
5, 138240, Note_off_c, 6, 43, 95
5, 138240, Note_on_c, 6, 33, 95
5, 138720, Note_on_c, 6, 45, 95
5, 139680, Note_off_c, 6, 33, 95
5, 139680, Note_on_c, 6, 33, 95
5, 140160, Note_off_c, 6, 45, 95
5, 140160, Note_on_c, 6, 45, 95
5, 140640, Note_off_c, 6, 45, 95
5, 140640, Note_on_c, 6, 46, 95
5, 141120, Note_off_c, 6, 46, 95
5, 141120, Note_on_c, 6, 45, 95
5, 141600, Note_off_c, 6, 45, 95
5, 141600, Note_on_c, 6, 43, 95
5, 142080, Note_off_c, 6, 33, 95
5, 142080, Note_off_c, 6, 43, 95
5, 142080, Note_on_c, 6, 33, 95
5, 142560, Note_on_c, 6, 45, 95
5, 143040, Note_off_c, 6, 45, 95
5, 143040, Note_on_c, 6, 40, 95
5, 143520, Note_off_c, 6, 40, 95
5, 143520, Note_on_c, 6, 41, 95
5, 144000, Note_off_c, 6, 33, 95
5, 144000, Note_on_c, 6, 33, 95
5, 144480, Note_off_c, 6, 41, 95
5, 144480, Note_on_c, 6, 38, 95
5, 144960, Note_off_c, 6, 38, 95
5, 144960, Note_on_c, 6, 40, 95
5, 145920, Note_off_c, 6, 33, 95
5, 145920, Note_off_c, 6, 40, 95
5, 145920, Note_on_c, 6, 33, 95
5, 146400, Note_on_c, 6, 45, 95
5, 147360, Note_off_c, 6, 33, 95
5, 147360, Note_on_c, 6, 33, 95
5, 147840, Note_off_c, 6, 45, 95
5, 147840, Note_on_c, 6, 45, 95
5, 148320, Note_off_c, 6, 45, 95
5, 148320, Note_on_c, 6, 46, 95
5, 148800, Note_off_c, 6, 46, 95
5, 148800, Note_on_c, 6, 45, 95
5, 149280, Note_off_c, 6, 45, 95
5, 149280, Note_on_c, 6, 43, 95
5, 149760, Note_off_c, 6, 33, 95
5, 149760, Note_off_c, 6, 43, 95
5, 149760, Note_on_c, 6, 33, 95
5, 150240, Note_on_c, 6, 45, 95
5, 151200, Note_off_c, 6, 33, 95
5, 151200, Note_on_c, 6, 33, 95
5, 151680, Note_off_c, 6, 45, 95
5, 151680, Note_on_c, 6, 45, 95
5, 152160, Note_off_c, 6, 45, 95
5, 152160, Note_on_c, 6, 46, 95
5, 152640, Note_off_c, 6, 46, 95
5, 152640, Note_on_c, 6, 45, 95
5, 153120, Note_off_c, 6, 45, 95
5, 153120, Note_on_c, 6, 43, 95
5, 153600, Note_off_c, 6, 33, 95
5, 153600, Note_off_c, 6, 43, 95
5, 153600, Note_on_c, 6, 33, 95
5, 154080, Note_on_c, 6, 45, 95
5, 155040, Note_off_c, 6, 33, 95
5, 155040, Note_on_c, 6, 33, 95
5, 155520, Note_off_c, 6, 45, 95
5, 155520, Note_on_c, 6, 45, 95
5, 156000, Note_off_c, 6, 45, 95
5, 156000, Note_on_c, 6, 46, 95
5, 156480, Note_off_c, 6, 46, 95
5, 156480, Note_on_c, 6, 45, 95
5, 156960, Note_off_c, 6, 45, 95
5, 156960, Note_on_c, 6, 43, 95
5, 157440, Note_off_c, 6, 33, 95
5, 157440, Note_off_c, 6, 43, 95
5, 157440, Note_on_c, 6, 33, 95
5, 157920, Note_on_c, 6, 45, 95
5, 158400, Note_off_c, 6, 45, 95
5, 158400, Note_on_c, 6, 40, 95
5, 158880, Note_off_c, 6, 40, 95
5, 158880, Note_on_c, 6, 41, 95
5, 159360, Note_off_c, 6, 33, 95
5, 159360, Note_on_c, 6, 33, 95
5, 159840, Note_off_c, 6, 41, 95
5, 159840, Note_on_c, 6, 38, 95
5, 160320, Note_off_c, 6, 38, 95
5, 160320, Note_on_c, 6, 40, 95
5, 161280, Note_off_c, 6, 33, 95
5, 161280, Note_off_c, 6, 40, 95
5, 161280, Note_on_c, 6, 33, 95
5, 161760, Note_on_c, 6, 45, 95
5, 162720, Note_off_c, 6, 33, 95
5, 162720, Note_on_c, 6, 33, 95
5, 163200, Note_off_c, 6, 45, 95
5, 163200, Note_on_c, 6, 45, 95
5, 163680, Note_off_c, 6, 45, 95
5, 163680, Note_on_c, 6, 46, 95
5, 164160, Note_off_c, 6, 46, 95
5, 164160, Note_on_c, 6, 45, 95
5, 164640, Note_off_c, 6, 45, 95
5, 164640, Note_on_c, 6, 43, 95
5, 165120, Note_off_c, 6, 33, 95
5, 165120, Note_off_c, 6, 43, 95
5, 165120, Note_on_c, 6, 33, 95
5, 165600, Note_on_c, 6, 45, 95
5, 166560, Note_off_c, 6, 33, 95
5, 166560, Note_on_c, 6, 33, 95
5, 167040, Note_off_c, 6, 45, 95
5, 167040, Note_on_c, 6, 45, 95
5, 167520, Note_off_c, 6, 45, 95
5, 167520, Note_on_c, 6, 46, 95
5, 168000, Note_off_c, 6, 46, 95
5, 168000, Note_on_c, 6, 45, 95
5, 168480, Note_off_c, 6, 45, 95
5, 168480, Note_on_c, 6, 43, 95
5, 168960, Note_off_c, 6, 33, 95
5, 168960, Note_off_c, 6, 43, 95
5, 168960, Note_on_c, 6, 33, 95
5, 169440, Note_on_c, 6, 45, 95
5, 170400, Note_off_c, 6, 33, 95
5, 170400, Note_on_c, 6, 33, 95
5, 170880, Note_off_c, 6, 45, 95
5, 170880, Note_on_c, 6, 45, 95
5, 171360, Note_off_c, 6, 45, 95
5, 171360, Note_on_c, 6, 46, 95
5, 171840, Note_off_c, 6, 46, 95
5, 171840, Note_on_c, 6, 45, 95
5, 172320, Note_off_c, 6, 45, 95
5, 172320, Note_on_c, 6, 43, 95
5, 172800, Note_off_c, 6, 33, 95
5, 172800, Note_off_c, 6, 43, 95
5, 172800, Note_on_c, 6, 33, 95
5, 173280, Note_on_c, 6, 45, 95
5, 173760, Note_off_c, 6, 45, 95
5, 173760, Note_on_c, 6, 40, 95
5, 174240, Note_off_c, 6, 40, 95
5, 174240, Note_on_c, 6, 41, 95
5, 174720, Note_off_c, 6, 33, 95
5, 174720, Note_on_c, 6, 33, 95
5, 175200, Note_off_c, 6, 41, 95
5, 175200, Note_on_c, 6, 38, 95
5, 175680, Note_off_c, 6, 38, 95
5, 175680, Note_on_c, 6, 40, 95
5, 176640, Note_off_c, 6, 33, 95
5, 176640, Note_off_c, 6, 40, 95
5, 176640, Note_on_c, 6, 33, 95
5, 177120, Note_on_c, 6, 45, 95
5, 178080, Note_off_c, 6, 33, 95
5, 178080, Note_on_c, 6, 33, 95
5, 178560, Note_off_c, 6, 45, 95
5, 178560, Note_on_c, 6, 45, 95
5, 179040, Note_off_c, 6, 45, 95
5, 179040, Note_on_c, 6, 46, 95
5, 179520, Note_off_c, 6, 46, 95
5, 179520, Note_on_c, 6, 45, 95
5, 180000, Note_off_c, 6, 45, 95
5, 180000, Note_on_c, 6, 43, 95
5, 180480, Note_off_c, 6, 33, 95
5, 180480, Note_off_c, 6, 43, 95
5, 180480, Note_on_c, 6, 33, 95
5, 180960, Note_on_c, 6, 45, 95
5, 181920, Note_off_c, 6, 33, 95
5, 181920, Note_on_c, 6, 33, 95
5, 182400, Note_off_c, 6, 45, 95
5, 182400, Note_on_c, 6, 45, 95
5, 182880, Note_off_c, 6, 45, 95
5, 182880, Note_on_c, 6, 46, 95
5, 183360, Note_off_c, 6, 46, 95
5, 183360, Note_on_c, 6, 45, 95
5, 183840, Note_off_c, 6, 45, 95
5, 183840, Note_on_c, 6, 43, 95
5, 184320, Note_off_c, 6, 33, 95
5, 184320, Note_off_c, 6, 43, 95
5, 184320, Note_on_c, 6, 33, 95
5, 184800, Note_on_c, 6, 45, 95
5, 185760, Note_off_c, 6, 33, 95
5, 185760, Note_on_c, 6, 33, 95
5, 186240, Note_off_c, 6, 45, 95
5, 186240, Note_on_c, 6, 45, 95
5, 186720, Note_off_c, 6, 45, 95
5, 186720, Note_on_c, 6, 46, 95
5, 187200, Note_off_c, 6, 46, 95
5, 187200, Note_on_c, 6, 45, 95
5, 187680, Note_off_c, 6, 45, 95
5, 187680, Note_on_c, 6, 43, 95
5, 188160, Note_off_c, 6, 33, 95
5, 188160, Note_off_c, 6, 43, 95
5, 188160, Note_on_c, 6, 33, 95
5, 188640, Note_on_c, 6, 45, 95
5, 189120, Note_off_c, 6, 45, 95
5, 189120, Note_on_c, 6, 40, 95
5, 189600, Note_off_c, 6, 40, 95
5, 189600, Note_on_c, 6, 41, 95
5, 190080, Note_off_c, 6, 33, 95
5, 190080, Note_on_c, 6, 33, 95
5, 190560, Note_off_c, 6, 41, 95
5, 190560, Note_on_c, 6, 38, 95
5, 191040, Note_off_c, 6, 38, 95
5, 191040, Note_on_c, 6, 40, 95
5, 192000, Note_off_c, 6, 33, 95
5, 192000, Note_off_c, 6, 40, 95
5, 192000, Note_on_c, 6, 31, 95
5, 192480, Note_on_c, 6, 45, 95
5, 193440, Note_off_c, 6, 31, 95
5, 193440, Note_on_c, 6, 31, 95
5, 193920, Note_off_c, 6, 45, 95
5, 193920, Note_on_c, 6, 45, 95
5, 194400, Note_off_c, 6, 45, 95
5, 194400, Note_on_c, 6, 46, 95
5, 194880, Note_off_c, 6, 46, 95
5, 194880, Note_on_c, 6, 45, 95
5, 195360, Note_off_c, 6, 45, 95
5, 195360, Note_on_c, 6, 43, 95
5, 195840, Note_off_c, 6, 31, 95
5, 195840, Note_off_c, 6, 43, 95
5, 195840, Note_on_c, 6, 31, 95
5, 196320, Note_on_c, 6, 45, 95
5, 197280, Note_off_c, 6, 31, 95
5, 197280, Note_on_c, 6, 31, 95
5, 197760, Note_off_c, 6, 45, 95
5, 197760, Note_on_c, 6, 45, 95
5, 198240, Note_off_c, 6, 45, 95
5, 198240, Note_on_c, 6, 46, 95
5, 198720, Note_off_c, 6, 46, 95
5, 198720, Note_on_c, 6, 45, 95
5, 199200, Note_off_c, 6, 45, 95
5, 199200, Note_on_c, 6, 43, 95
5, 199680, Note_off_c, 6, 31, 95
5, 199680, Note_off_c, 6, 43, 95
5, 199680, Note_on_c, 6, 31, 95
5, 200160, Note_on_c, 6, 45, 95
5, 201120, Note_off_c, 6, 31, 95
5, 201120, Note_on_c, 6, 31, 95
5, 201600, Note_off_c, 6, 45, 95
5, 201600, Note_on_c, 6, 45, 95
5, 202080, Note_off_c, 6, 45, 95
5, 202080, Note_on_c, 6, 46, 95
5, 202560, Note_off_c, 6, 46, 95
5, 202560, Note_on_c, 6, 45, 95
5, 203040, Note_off_c, 6, 45, 95
5, 203040, Note_on_c, 6, 43, 95
5, 203520, Note_off_c, 6, 31, 95
5, 203520, Note_off_c, 6, 43, 95
5, 203520, Note_on_c, 6, 28, 95
5, 204000, Note_off_c, 6, 28, 95
5, 204000, Note_on_c, 6, 28, 95
5, 204480, Note_on_c, 6, 40, 95
5, 204960, Note_off_c, 6, 40, 95
5, 204960, Note_on_c, 6, 41, 95
5, 205440, Note_off_c, 6, 28, 95
5, 205440, Note_off_c, 6, 41, 95
5, 205440, Note_on_c, 6, 28, 95
5, 205920, Note_on_c, 6, 38, 95
5, 206400, Note_off_c, 6, 38, 95
5, 206400, Note_on_c, 6, 40, 95
5, 207360, Note_off_c, 6, 28, 95
5, 207360, Note_off_c, 6, 40, 95
5, 207360, Note_on_c, 6, 33, 95
5, 207840, Note_on_c, 6, 45, 95
5, 208800, Note_off_c, 6, 33, 95
5, 208800, Note_on_c, 6, 33, 95
5, 209280, Note_off_c, 6, 45, 95
5, 209280, Note_on_c, 6, 45, 95
5, 209760, Note_off_c, 6, 45, 95
5, 209760, Note_on_c, 6, 46, 95
5, 210240, Note_off_c, 6, 46, 95
5, 210240, Note_on_c, 6, 45, 95
5, 210720, Note_off_c, 6, 45, 95
5, 210720, Note_on_c, 6, 43, 95
5, 211200, Note_off_c, 6, 33, 95
5, 211200, Note_off_c, 6, 43, 95
5, 211200, Note_on_c, 6, 33, 95
5, 211680, Note_on_c, 6, 45, 95
5, 212640, Note_off_c, 6, 33, 95
5, 212640, Note_on_c, 6, 33, 95
5, 213120, Note_off_c, 6, 45, 95
5, 213120, Note_on_c, 6, 45, 95
5, 213600, Note_off_c, 6, 45, 95
5, 213600, Note_on_c, 6, 46, 95
5, 214080, Note_off_c, 6, 46, 95
5, 214080, Note_on_c, 6, 45, 95
5, 214560, Note_off_c, 6, 45, 95
5, 214560, Note_on_c, 6, 43, 95
5, 215040, Note_off_c, 6, 33, 95
5, 215040, Note_off_c, 6, 43, 95
5, 215040, Note_on_c, 6, 33, 95
5, 215520, Note_on_c, 6, 45, 95
5, 216480, Note_off_c, 6, 33, 95
5, 216480, Note_on_c, 6, 33, 95
5, 216960, Note_off_c, 6, 45, 95
5, 216960, Note_on_c, 6, 45, 95
5, 217440, Note_off_c, 6, 45, 95
5, 217440, Note_on_c, 6, 46, 95
5, 217920, Note_off_c, 6, 46, 95
5, 217920, Note_on_c, 6, 45, 95
5, 218400, Note_off_c, 6, 45, 95
5, 218400, Note_on_c, 6, 43, 95
5, 218880, Note_off_c, 6, 33, 95
5, 218880, Note_off_c, 6, 43, 95
5, 218880, Note_on_c, 6, 33, 95
5, 219360, Note_on_c, 6, 45, 95
5, 220320, Note_off_c, 6, 33, 95
5, 220320, Note_on_c, 6, 33, 95
5, 220800, Note_off_c, 6, 45, 95
5, 220800, Note_on_c, 6, 45, 95
5, 221280, Note_off_c, 6, 45, 95
5, 221280, Note_on_c, 6, 46, 95
5, 221760, Note_off_c, 6, 46, 95
5, 221760, Note_on_c, 6, 45, 95
5, 222240, Note_off_c, 6, 45, 95
5, 222240, Note_on_c, 6, 43, 95
5, 222720, Note_off_c, 6, 33, 95
5, 222720, Note_off_c, 6, 43, 95
5, 222720, Note_on_c, 6, 33, 95
5, 223200, Note_on_c, 6, 45, 95
5, 224160, Note_off_c, 6, 33, 95
5, 224160, Note_on_c, 6, 33, 95
5, 224640, Note_off_c, 6, 45, 95
5, 224640, Note_on_c, 6, 45, 95
5, 225120, Note_off_c, 6, 45, 95
5, 225120, Note_on_c, 6, 46, 95
5, 225600, Note_off_c, 6, 46, 95
5, 225600, Note_on_c, 6, 45, 95
5, 226080, Note_off_c, 6, 45, 95
5, 226080, Note_on_c, 6, 43, 95
5, 226560, Note_off_c, 6, 33, 95
5, 226560, Note_off_c, 6, 43, 95
5, 226560, Note_on_c, 6, 33, 95
5, 227040, Note_on_c, 6, 45, 95
5, 228000, Note_off_c, 6, 33, 95
5, 228000, Note_on_c, 6, 33, 95
5, 228480, Note_off_c, 6, 45, 95
5, 228480, Note_on_c, 6, 45, 95
5, 228960, Note_off_c, 6, 45, 95
5, 228960, Note_on_c, 6, 46, 95
5, 229440, Note_off_c, 6, 46, 95
5, 229440, Note_on_c, 6, 45, 95
5, 229920, Note_off_c, 6, 45, 95
5, 229920, Note_on_c, 6, 43, 95
5, 230400, Note_off_c, 6, 33, 95
5, 230400, Note_off_c, 6, 43, 95
5, 230400, Note_on_c, 6, 33, 95
5, 230880, Note_on_c, 6, 45, 95
5, 231840, Note_off_c, 6, 33, 95
5, 231840, Note_on_c, 6, 33, 95
5, 232320, Note_off_c, 6, 45, 95
5, 232320, Note_on_c, 6, 45, 95
5, 232800, Note_off_c, 6, 45, 95
5, 232800, Note_on_c, 6, 46, 95
5, 233280, Note_off_c, 6, 46, 95
5, 233280, Note_on_c, 6, 45, 95
5, 233760, Note_off_c, 6, 45, 95
5, 233760, Note_on_c, 6, 43, 95
5, 234240, Note_off_c, 6, 33, 95
5, 234240, Note_off_c, 6, 43, 95
5, 234240, Note_on_c, 6, 33, 95
5, 234720, Note_on_c, 6, 45, 95
5, 235680, Note_off_c, 6, 33, 95
5, 235680, Note_on_c, 6, 33, 95
5, 236160, Note_off_c, 6, 45, 95
5, 236160, Note_on_c, 6, 45, 95
5, 236640, Note_off_c, 6, 45, 95
5, 236640, Note_on_c, 6, 46, 95
5, 237120, Note_off_c, 6, 46, 95
5, 237120, Note_on_c, 6, 45, 95
5, 237600, Note_off_c, 6, 45, 95
5, 237600, Note_on_c, 6, 43, 95
5, 238080, Note_off_c, 6, 33, 95
5, 238080, Note_off_c, 6, 43, 95
5, 238080, Note_on_c, 6, 31, 95
5, 238560, Note_on_c, 6, 45, 95
5, 239520, Note_off_c, 6, 31, 95
5, 239520, Note_on_c, 6, 31, 95
5, 240000, Note_off_c, 6, 45, 95
5, 240000, Note_on_c, 6, 45, 95
5, 240480, Note_off_c, 6, 45, 95
5, 240480, Note_on_c, 6, 46, 95
5, 240960, Note_off_c, 6, 46, 95
5, 240960, Note_on_c, 6, 45, 95
5, 241440, Note_off_c, 6, 45, 95
5, 241440, Note_on_c, 6, 43, 95
5, 241920, Note_off_c, 6, 31, 95
5, 241920, Note_off_c, 6, 43, 95
5, 241920, Note_on_c, 6, 31, 95
5, 242400, Note_on_c, 6, 45, 95
5, 243360, Note_off_c, 6, 31, 95
5, 243360, Note_on_c, 6, 31, 95
5, 243840, Note_off_c, 6, 45, 95
5, 243840, Note_on_c, 6, 45, 95
5, 244320, Note_off_c, 6, 45, 95
5, 244320, Note_on_c, 6, 46, 95
5, 244800, Note_off_c, 6, 46, 95
5, 244800, Note_on_c, 6, 45, 95
5, 245280, Note_off_c, 6, 45, 95
5, 245280, Note_on_c, 6, 43, 95
5, 245760, Note_off_c, 6, 31, 95
5, 245760, Note_off_c, 6, 43, 95
5, 245760, Note_on_c, 6, 31, 95
5, 246240, Note_on_c, 6, 45, 95
5, 247200, Note_off_c, 6, 31, 95
5, 247200, Note_on_c, 6, 31, 95
5, 247680, Note_off_c, 6, 45, 95
5, 247680, Note_on_c, 6, 45, 95
5, 248160, Note_off_c, 6, 45, 95
5, 248160, Note_on_c, 6, 46, 95
5, 248640, Note_off_c, 6, 46, 95
5, 248640, Note_on_c, 6, 45, 95
5, 249120, Note_off_c, 6, 45, 95
5, 249120, Note_on_c, 6, 43, 95
5, 249600, Note_off_c, 6, 31, 95
5, 249600, Note_off_c, 6, 43, 95
5, 249600, Note_on_c, 6, 28, 95
5, 250080, Note_off_c, 6, 28, 95
5, 250080, Note_on_c, 6, 28, 95
5, 250560, Note_on_c, 6, 40, 95
5, 251040, Note_off_c, 6, 40, 95
5, 251040, Note_on_c, 6, 41, 95
5, 251520, Note_off_c, 6, 28, 95
5, 251520, Note_off_c, 6, 41, 95
5, 251520, Note_on_c, 6, 28, 95
5, 252000, Note_on_c, 6, 38, 95
5, 252480, Note_off_c, 6, 38, 95
5, 252480, Note_on_c, 6, 40, 95
5, 253440, Note_off_c, 6, 28, 95
5, 253440, Note_off_c, 6, 40, 95
5, 253440, Note_on_c, 6, 31, 95
5, 253920, Note_off_c, 6, 31, 95
5, 253920, Note_on_c, 6, 33, 95
5, 254400, Note_off_c, 6, 33, 95
5, 254400, Note_on_c, 6, 34, 95
5, 254880, Note_off_c, 6, 34, 95
5, 254880, Note_on_c, 6, 38, 95
5, 255360, Note_off_c, 6, 38, 95
5, 255360, Note_on_c, 6, 37, 95
5, 255840, Note_off_c, 6, 37, 95
5, 255840, Note_on_c, 6, 33, 95
5, 256320, Note_off_c, 6, 33, 95
5, 257760, Note_on_c, 6, 31, 95
5, 258240, Note_off_c, 6, 31, 95
5, 258240, Note_on_c, 6, 33, 95
5, 258720, Note_off_c, 6, 33, 95
5, 258720, Note_on_c, 6, 34, 95
5, 259200, Note_off_c, 6, 34, 95
5, 259200, Note_on_c, 6, 38, 95
5, 259680, Note_off_c, 6, 38, 95
5, 259680, Note_on_c, 6, 37, 95
5, 260160, Note_off_c, 6, 37, 95
5, 260160, Note_on_c, 6, 41, 95
5, 260640, Note_off_c, 6, 41, 95
5, 260640, Note_on_c, 6, 40, 95
5, 261600, Note_off_c, 6, 40, 95
5, 261600, Note_on_c, 6, 31, 95
5, 262080, Note_off_c, 6, 31, 95
5, 262080, Note_on_c, 6, 34, 95
5, 262560, Note_off_c, 6, 34, 95
5, 262560, Note_on_c, 6, 38, 95
5, 263040, Note_off_c, 6, 38, 95
5, 263040, Note_on_c, 6, 37, 95
5, 263520, Note_off_c, 6, 37, 95
5, 263520, Note_on_c, 6, 33, 95
5, 264000, Note_off_c, 6, 33, 95
5, 264480, Note_on_c, 6, 33, 95
5, 264960, Note_off_c, 6, 33, 95
5, 264960, Note_on_c, 6, 34, 95
5, 265440, Note_off_c, 6, 34, 95
5, 265440, Note_on_c, 6, 31, 95
5, 265920, Note_off_c, 6, 31, 95
5, 266400, Note_on_c, 6, 29, 95
5, 266880, Note_off_c, 6, 29, 95
5, 266880, Note_on_c, 6, 31, 95
5, 267360, Note_off_c, 6, 31, 95
5, 267360, Note_on_c, 6, 28, 95
5, 267840, Note_off_c, 6, 28, 95
5, 268800, Note_on_c, 6, 41, 95
5, 269280, Note_off_c, 6, 41, 95
5, 269280, Note_on_c, 6, 36, 95
5, 269760, Note_off_c, 6, 36, 95
5, 269760, Note_on_c, 6, 41, 95
5, 270240, Note_off_c, 6, 41, 95
5, 270240, Note_on_c, 6, 45, 95
5, 270720, Note_off_c, 6, 45, 95
5, 270720, Note_on_c, 6, 47, 95
5, 271200, Note_off_c, 6, 47, 95
5, 271200, Note_on_c, 6, 38, 95
5, 271680, Note_off_c, 6, 38, 95
5, 271680, Note_on_c, 6, 43, 95
5, 272160, Note_off_c, 6, 43, 95
5, 272160, Note_on_c, 6, 47, 95
5, 272640, Note_off_c, 6, 47, 95
5, 272640, Note_on_c, 6, 48, 95
5, 273120, Note_off_c, 6, 48, 95
5, 273120, Note_on_c, 6, 40, 95
5, 273600, Note_off_c, 6, 40, 95
5, 273600, Note_on_c, 6, 45, 95
5, 274080, Note_off_c, 6, 45, 95
5, 274080, Note_on_c, 6, 48, 95
5, 274560, Note_off_c, 6, 48, 95
5, 274560, Note_on_c, 6, 47, 95
5, 274680, Note_off_c, 6, 47, 95
5, 274680, Note_on_c, 6, 48, 95
5, 274800, Note_off_c, 6, 48, 95
5, 274800, Note_on_c, 6, 47, 95
5, 274920, Note_off_c, 6, 47, 95
5, 274920, Note_on_c, 6, 43, 95
5, 275400, Note_off_c, 6, 43, 95
5, 275400, Note_on_c, 6, 28, 95
5, 275880, Note_off_c, 6, 28, 95
5, 275880, Note_on_c, 6, 41, 95
5, 276480, Note_off_c, 6, 41, 95
5, 276960, Note_on_c, 6, 36, 95
5, 277440, Note_off_c, 6, 36, 95
5, 277440, Note_on_c, 6, 41, 95
5, 277920, Note_off_c, 6, 41, 95
5, 277920, Note_on_c, 6, 45, 95
5, 278400, Note_off_c, 6, 45, 95
5, 278400, Note_on_c, 6, 47, 95
5, 278880, Note_off_c, 6, 47, 95
5, 278880, Note_on_c, 6, 38, 95
5, 279360, Note_off_c, 6, 38, 95
5, 279360, Note_on_c, 6, 48, 95
5, 279840, Note_off_c, 6, 48, 95
5, 279840, Note_on_c, 6, 47, 95
5, 280320, Note_off_c, 6, 47, 95
5, 280320, Note_on_c, 6, 33, 95
5, 281760, Note_off_c, 6, 33, 95
5, 281760, Note_on_c, 6, 31, 95
5, 282720, Note_off_c, 6, 31, 95
5, 282720, Note_on_c, 6, 28, 95
5, 283680, Note_off_c, 6, 28, 95
5, 283680, Note_on_c, 6, 29, 95
5, 284640, Note_off_c, 6, 29, 95
5, 284640, Note_on_c, 6, 36, 95
5, 285120, Note_off_c, 6, 36, 95
5, 285120, Note_on_c, 6, 41, 95
5, 285600, Note_off_c, 6, 41, 95
5, 285600, Note_on_c, 6, 45, 95
5, 286080, Note_off_c, 6, 45, 95
5, 286080, Note_on_c, 6, 47, 95
5, 286560, Note_off_c, 6, 47, 95
5, 286560, Note_on_c, 6, 38, 95
5, 287040, Note_off_c, 6, 38, 95
5, 287040, Note_on_c, 6, 43, 95
5, 287520, Note_off_c, 6, 43, 95
5, 287520, Note_on_c, 6, 47, 95
5, 288000, Note_off_c, 6, 47, 95
5, 288000, Note_on_c, 6, 48, 95
5, 288480, Note_off_c, 6, 48, 95
5, 288480, Note_on_c, 6, 40, 95
5, 288960, Note_off_c, 6, 40, 95
5, 288960, Note_on_c, 6, 45, 95
5, 289440, Note_off_c, 6, 45, 95
5, 289440, Note_on_c, 6, 48, 95
5, 289920, Note_off_c, 6, 48, 95
5, 289920, Note_on_c, 6, 50, 95
5, 290400, Note_off_c, 6, 50, 95
5, 290400, Note_on_c, 6, 43, 95
5, 290880, Note_off_c, 6, 43, 95
5, 290880, Note_on_c, 6, 38, 95
5, 291360, Note_off_c, 6, 38, 95
5, 291360, Note_on_c, 6, 41, 95
5, 292320, Note_off_c, 6, 41, 95
5, 292320, Note_on_c, 6, 36, 95
5, 292800, Note_off_c, 6, 36, 95
5, 292800, Note_on_c, 6, 41, 95
5, 293280, Note_off_c, 6, 41, 95
5, 293280, Note_on_c, 6, 48, 95
5, 293760, Note_off_c, 6, 48, 95
5, 293760, Note_on_c, 6, 47, 95
5, 294240, Note_off_c, 6, 47, 95
5, 294240, Note_on_c, 6, 35, 95
5, 294720, Note_off_c, 6, 35, 95
5, 294720, Note_on_c, 6, 43, 95
5, 295200, Note_off_c, 6, 43, 95
5, 295200, Note_on_c, 6, 47, 95
5, 295680, Note_off_c, 6, 47, 95
5, 295680, Note_on_c, 6, 45, 95
5, 296640, Note_off_c, 6, 45, 95
5, 297120, Note_on_c, 6, 47, 95
5, 297600, Note_off_c, 6, 47, 95
5, 298080, Note_on_c, 6, 48, 95
5, 298560, Note_off_c, 6, 48, 95
5, 299040, Note_on_c, 6, 41, 95
5, 300000, Note_off_c, 6, 41, 95
5, 300000, Note_on_c, 6, 36, 95
5, 300480, Note_off_c, 6, 36, 95
5, 300480, Note_on_c, 6, 41, 95
5, 300960, Note_off_c, 6, 41, 95
5, 300960, Note_on_c, 6, 45, 95
5, 301440, Note_off_c, 6, 45, 95
5, 301440, Note_on_c, 6, 47, 95
5, 301920, Note_off_c, 6, 47, 95
5, 301920, Note_on_c, 6, 38, 95
5, 302400, Note_off_c, 6, 38, 95
5, 302400, Note_on_c, 6, 43, 95
5, 302880, Note_off_c, 6, 43, 95
5, 302880, Note_on_c, 6, 47, 95
5, 303360, Note_off_c, 6, 47, 95
5, 303360, Note_on_c, 6, 48, 95
5, 303840, Note_off_c, 6, 48, 95
5, 303840, Note_on_c, 6, 40, 95
5, 304320, Note_off_c, 6, 40, 95
5, 304320, Note_on_c, 6, 45, 95
5, 304800, Note_off_c, 6, 45, 95
5, 304800, Note_on_c, 6, 48, 95
5, 305280, Note_off_c, 6, 48, 95
5, 305280, Note_on_c, 6, 50, 95
5, 305760, Note_off_c, 6, 50, 95
5, 305760, Note_on_c, 6, 43, 95
5, 306240, Note_off_c, 6, 43, 95
5, 306240, Note_on_c, 6, 47, 95
5, 306720, Note_off_c, 6, 47, 95
5, 306720, Note_on_c, 6, 50, 95
5, 307200, Note_off_c, 6, 50, 95
5, 307200, Note_on_c, 6, 55, 95
5, 307680, Note_off_c, 6, 55, 95
5, 307680, Note_on_c, 6, 50, 95
5, 307920, Note_off_c, 6, 50, 95
5, 307920, Note_on_c, 6, 50, 95
5, 308160, Note_off_c, 6, 50, 95
5, 308160, Note_on_c, 6, 53, 95
5, 308640, Note_off_c, 6, 53, 95
5, 308640, Note_on_c, 7, 52, 95
5, 308800, Pitch_bend_c, 7, 8192
5, 308960, Pitch_bend_c, 7, 8320
5, 309120, Pitch_bend_c, 7, 8192
5, 309280, Pitch_bend_c, 7, 8320
5, 309440, Pitch_bend_c, 7, 8192
5, 309600, Pitch_bend_c, 7, 8320
5, 309600, Pitch_bend_c, 7, 8192
5, 309600, Note_off_c, 7, 52, 95
5, 309600, Note_on_c, 6, 36, 95
5, 310080, Note_off_c, 6, 36, 95
5, 310080, Note_on_c, 6, 40, 95
5, 310560, Note_off_c, 6, 40, 95
5, 310560, Note_on_c, 6, 43, 95
5, 311040, Note_off_c, 6, 43, 95
5, 311040, Note_on_c, 6, 48, 95
5, 311520, Note_off_c, 6, 48, 95
5, 311520, Note_on_c, 6, 50, 95
5, 312000, Note_off_c, 6, 50, 95
5, 312000, Note_on_c, 6, 52, 95
5, 312480, Note_off_c, 6, 52, 95
5, 312480, Note_on_c, 6, 53, 95
5, 312960, Note_off_c, 6, 53, 95
5, 312960, Note_on_c, 6, 38, 95
5, 313440, Note_off_c, 6, 38, 95
5, 313440, Note_on_c, 6, 45, 95
5, 313920, Note_off_c, 6, 45, 95
5, 313920, Note_on_c, 7, 52, 95
5, 314040, Pitch_bend_c, 7, 8320
5, 314160, Pitch_bend_c, 7, 8448
5, 314280, Pitch_bend_c, 7, 8704
5, 314400, Pitch_bend_c, 7, 8832
5, 314400, Pitch_bend_c, 7, 8192
5, 314400, Note_off_c, 7, 52, 95
5, 314400, Note_on_c, 6, 53, 95
5, 314880, Note_off_c, 6, 53, 95
5, 314880, Note_on_c, 6, 34, 95
5, 315360, Note_off_c, 6, 34, 95
5, 315360, Note_on_c, 6, 43, 95
5, 315840, Note_off_c, 6, 43, 95
5, 315840, Note_on_c, 7, 50, 95
5, 315960, Pitch_bend_c, 7, 8448
5, 316080, Pitch_bend_c, 7, 8832
5, 316200, Pitch_bend_c, 7, 9216
5, 316320, Pitch_bend_c, 7, 9600
5, 316320, Pitch_bend_c, 7, 8192
5, 316320, Note_off_c, 7, 50, 95
5, 316320, Note_on_c, 6, 52, 95
5, 316800, Note_off_c, 6, 52, 95
5, 316800, Note_on_c, 6, 36, 95
5, 317280, Note_off_c, 6, 36, 95
5, 317280, Note_on_c, 6, 43, 95
5, 317760, Note_off_c, 6, 43, 95
5, 317760, Note_on_c, 7, 52, 95
5, 317880, Pitch_bend_c, 7, 7552
5, 318000, Pitch_bend_c, 7, 6784
5, 318120, Pitch_bend_c, 7, 6144
5, 318240, Pitch_bend_c, 7, 5376
5, 318240, Pitch_bend_c, 7, 8192
5, 318240, Note_off_c, 7, 52, 95
5, 318240, Note_on_c, 6, 48, 95
5, 318720, Note_off_c, 6, 48, 95
5, 318720, Note_on_c, 6, 33, 95
5, 319200, Note_off_c, 6, 33, 95
5, 319200, Note_on_c, 6, 41, 95
5, 319680, Note_off_c, 6, 41, 95
5, 319680, Note_on_c, 7, 48, 95
5, 319800, Pitch_bend_c, 7, 8448
5, 319920, Pitch_bend_c, 7, 8832
5, 320040, Pitch_bend_c, 7, 9216
5, 320160, Pitch_bend_c, 7, 9600
5, 320160, Pitch_bend_c, 7, 8192
5, 320160, Note_off_c, 7, 48, 95
5, 320160, Note_on_c, 6, 50, 95
5, 320640, Note_off_c, 6, 50, 95
5, 320640, Note_on_c, 6, 34, 95
5, 321120, Note_off_c, 6, 34, 95
5, 321120, Note_on_c, 6, 41, 95
5, 321600, Note_off_c, 6, 41, 95
5, 321600, Note_on_c, 7, 50, 95
5, 321720, Pitch_bend_c, 7, 7552
5, 321840, Pitch_bend_c, 7, 6784
5, 321960, Pitch_bend_c, 7, 6144
5, 322080, Pitch_bend_c, 7, 5376
5, 322080, Pitch_bend_c, 7, 8192
5, 322080, Note_off_c, 7, 50, 95
5, 322080, Note_on_c, 6, 46, 95
5, 322560, Note_off_c, 6, 46, 95
5, 322560, Note_on_c, 6, 31, 95
5, 323040, Note_off_c, 6, 31, 95
5, 323040, Note_on_c, 6, 28, 95
5, 323520, Note_off_c, 6, 28, 95
5, 323520, Note_on_c, 6, 46, 95
5, 324000, Note_off_c, 6, 46, 95
5, 324000, Note_on_c, 6, 45, 95
5, 324480, Note_off_c, 6, 45, 95
5, 324480, Note_on_c, 6, 41, 95
5, 324960, Note_off_c, 6, 41, 95
5, 324960, Note_on_c, 6, 36, 95
5, 325440, Note_off_c, 6, 36, 95
5, 325440, Note_on_c, 6, 41, 95
5, 325920, Note_off_c, 6, 41, 95
5, 325920, Note_on_c, 6, 45, 95
5, 326400, Note_off_c, 6, 45, 95
5, 326400, Note_on_c, 6, 47, 95
5, 326880, Note_off_c, 6, 47, 95
5, 326880, Note_on_c, 6, 48, 95
5, 327360, Note_off_c, 6, 48, 95
5, 327360, Note_on_c, 6, 33, 95
5, 327840, Note_off_c, 6, 33, 95
5, 327840, Note_on_c, 6, 28, 95
5, 328320, Note_off_c, 6, 28, 95
5, 328320, Note_on_c, 6, 48, 95
5, 328800, Note_off_c, 6, 48, 95
5, 328800, Note_on_c, 6, 50, 95
5, 329280, Note_off_c, 6, 50, 95
5, 329280, Note_on_c, 6, 34, 95
5, 329760, Note_off_c, 6, 34, 95
5, 329760, Note_on_c, 6, 29, 95
5, 330240, Note_off_c, 6, 29, 95
5, 330240, Note_on_c, 6, 46, 95
5, 330720, Note_off_c, 6, 46, 95
5, 330720, Note_on_c, 6, 50, 95
5, 331200, Note_off_c, 6, 50, 95
5, 331200, Note_on_c, 6, 52, 95
5, 331680, Note_off_c, 6, 52, 95
5, 331680, Note_on_c, 6, 53, 95
5, 332160, Note_off_c, 6, 53, 95
5, 332160, Note_on_c, 6, 36, 95
5, 332640, Note_off_c, 6, 36, 95
5, 332640, Note_on_c, 6, 31, 95
5, 333120, Note_off_c, 6, 31, 95
5, 333120, Note_on_c, 6, 48, 95
5, 333600, Note_off_c, 6, 48, 95
5, 333600, Note_on_c, 6, 52, 95
5, 334080, Note_off_c, 6, 52, 95
5, 334080, Note_on_c, 6, 53, 95
5, 334560, Note_off_c, 6, 53, 95
5, 334560, Note_on_c, 6, 55, 95
5, 335040, Note_off_c, 6, 55, 95
5, 335040, Note_on_c, 7, 50, 95
5, 335160, Pitch_bend_c, 7, 8192
5, 335280, Pitch_bend_c, 7, 8192
5, 335400, Pitch_bend_c, 7, 8192
5, 335520, Pitch_bend_c, 7, 8192
5, 335640, Pitch_bend_c, 7, 8192
5, 335760, Pitch_bend_c, 7, 8192
5, 335880, Pitch_bend_c, 7, 8192
5, 336000, Pitch_bend_c, 7, 8192
5, 336000, Pitch_bend_c, 7, 8192
5, 336960, Note_off_c, 7, 50, 95
5, 336960, Note_on_c, 6, 33, 95
5, 337440, Note_off_c, 6, 33, 95
5, 337920, Note_on_c, 6, 33, 95
5, 338400, Note_off_c, 6, 33, 95
5, 338880, Note_on_c, 6, 45, 95
5, 339840, Note_off_c, 6, 45, 95
5, 339840, Note_on_c, 6, 45, 95
5, 340320, Note_off_c, 6, 45, 95
5, 340320, Note_on_c, 6, 33, 95
5, 340800, Note_off_c, 6, 33, 95
5, 341280, Note_on_c, 6, 33, 95
5, 341760, Note_off_c, 6, 33, 95
5, 342240, Note_on_c, 6, 31, 95
5, 342720, Note_off_c, 6, 31, 95
5, 342720, Note_on_c, 6, 45, 95
5, 343680, Note_off_c, 6, 45, 95
5, 343680, Note_on_c, 6, 37, 95
5, 343920, Note_off_c, 6, 37, 95
5, 343920, Note_on_c, 6, 38, 95
5, 344160, Note_off_c, 6, 38, 95
5, 344160, Note_on_c, 6, 40, 95
5, 344400, Note_off_c, 6, 40, 95
5, 344640, Note_on_c, 6, 33, 95
5, 345120, Note_off_c, 6, 33, 95
5, 345600, Note_on_c, 6, 33, 95
5, 346080, Note_off_c, 6, 33, 95
5, 346560, Note_on_c, 6, 45, 95
5, 347520, Note_off_c, 6, 45, 95
5, 347520, Note_on_c, 6, 45, 95
5, 348000, Note_off_c, 6, 45, 95
5, 348000, Note_on_c, 6, 33, 95
5, 348480, Note_off_c, 6, 33, 95
5, 348960, Note_on_c, 6, 33, 95
5, 349440, Note_off_c, 6, 33, 95
5, 349440, Note_on_c, 6, 34, 95
5, 349920, Note_off_c, 6, 34, 95
5, 349920, Note_on_c, 6, 37, 95
5, 350400, Note_off_c, 6, 37, 95
5, 350400, Note_on_c, 6, 38, 95
5, 350880, Note_off_c, 6, 38, 95
5, 350880, Note_on_c, 6, 41, 95
5, 351360, Note_off_c, 6, 41, 95
5, 351360, Note_on_c, 6, 40, 95
5, 351480, Note_off_c, 6, 40, 95
5, 351480, Note_on_c, 6, 41, 95
5, 351600, Note_off_c, 6, 41, 95
5, 351600, Note_on_c, 6, 40, 95
5, 351840, Note_off_c, 6, 40, 95
5, 351840, Note_on_c, 6, 38, 95
5, 352320, Note_off_c, 6, 38, 95
5, 352320, Note_on_c, 6, 33, 95
5, 352800, Note_off_c, 6, 33, 95
5, 353280, Note_on_c, 6, 33, 95
5, 353760, Note_off_c, 6, 33, 95
5, 354240, Note_on_c, 6, 45, 95
5, 355200, Note_off_c, 6, 45, 95
5, 355200, Note_on_c, 6, 45, 95
5, 355680, Note_off_c, 6, 45, 95
5, 355680, Note_on_c, 6, 33, 95
5, 356160, Note_off_c, 6, 33, 95
5, 356640, Note_on_c, 6, 33, 95
5, 357120, Note_off_c, 6, 33, 95
5, 357600, Note_on_c, 6, 31, 95
5, 358080, Note_off_c, 6, 31, 95
5, 358080, Note_on_c, 6, 45, 95
5, 359040, Note_off_c, 6, 45, 95
5, 359040, Note_on_c, 6, 37, 95
5, 359280, Note_off_c, 6, 37, 95
5, 359280, Note_on_c, 6, 38, 95
5, 359520, Note_off_c, 6, 38, 95
5, 359520, Note_on_c, 6, 40, 95
5, 359760, Note_off_c, 6, 40, 95
5, 360000, Note_on_c, 6, 33, 95
5, 360480, Note_off_c, 6, 33, 95
5, 360960, Note_on_c, 6, 33, 95
5, 361440, Note_off_c, 6, 33, 95
5, 361920, Note_on_c, 6, 45, 95
5, 362880, Note_off_c, 6, 45, 95
5, 362880, Note_on_c, 6, 45, 95
5, 363360, Note_off_c, 6, 45, 95
5, 363360, Note_on_c, 6, 33, 95
5, 364800, Note_off_c, 6, 33, 95
5, 367680, Note_on_c, 6, 31, 95
5, 368160, Note_off_c, 6, 31, 95
5, 368160, Note_on_c, 6, 33, 95
5, 368640, Note_off_c, 6, 33, 95
5, 368640, Note_on_c, 6, 34, 95
5, 369120, Note_off_c, 6, 34, 95
5, 369120, Note_on_c, 6, 38, 95
5, 369600, Note_off_c, 6, 38, 95
5, 369600, Note_on_c, 6, 37, 95
5, 370080, Note_off_c, 6, 37, 95
5, 370080, Note_on_c, 6, 33, 95
5, 370560, Note_off_c, 6, 33, 95
5, 372000, Note_on_c, 6, 31, 95
5, 372480, Note_off_c, 6, 31, 95
5, 372480, Note_on_c, 6, 33, 95
5, 372960, Note_off_c, 6, 33, 95
5, 372960, Note_on_c, 6, 34, 95
5, 373440, Note_off_c, 6, 34, 95
5, 373440, Note_on_c, 6, 38, 95
5, 373920, Note_off_c, 6, 38, 95
5, 373920, Note_on_c, 6, 37, 95
5, 374400, Note_off_c, 6, 37, 95
5, 374400, Note_on_c, 6, 41, 95
5, 374880, Note_off_c, 6, 41, 95
5, 374880, Note_on_c, 6, 40, 95
5, 375840, Note_off_c, 6, 40, 95
5, 375840, Note_on_c, 6, 31, 95
5, 376320, Note_off_c, 6, 31, 95
5, 376320, Note_on_c, 6, 34, 95
5, 376800, Note_off_c, 6, 34, 95
5, 376800, Note_on_c, 6, 38, 95
5, 377280, Note_off_c, 6, 38, 95
5, 377280, Note_on_c, 6, 37, 95
5, 377760, Note_off_c, 6, 37, 95
5, 377760, Note_on_c, 6, 33, 95
5, 378240, Note_off_c, 6, 33, 95
5, 378720, Note_on_c, 6, 33, 95
5, 379200, Note_off_c, 6, 33, 95
5, 379200, Note_on_c, 6, 34, 95
5, 379680, Note_off_c, 6, 34, 95
5, 379680, Note_on_c, 6, 31, 95
5, 380160, Note_off_c, 6, 31, 95
5, 380640, Note_on_c, 6, 29, 95
5, 381120, Note_off_c, 6, 29, 95
5, 381120, Note_on_c, 6, 31, 95
5, 381600, Note_off_c, 6, 31, 95
5, 381600, Note_on_c, 6, 28, 95
5, 382080, Note_off_c, 6, 28, 95
5, 383040, Note_on_c, 6, 31, 95
5, 383520, Note_off_c, 6, 31, 95
5, 383520, Note_on_c, 6, 33, 95
5, 384000, Note_off_c, 6, 33, 95
5, 384000, Note_on_c, 6, 34, 95
5, 384480, Note_off_c, 6, 34, 95
5, 384480, Note_on_c, 6, 38, 95
5, 384960, Note_off_c, 6, 38, 95
5, 384960, Note_on_c, 6, 37, 95
5, 385440, Note_off_c, 6, 37, 95
5, 385440, Note_on_c, 6, 33, 95
5, 385920, Note_off_c, 6, 33, 95
5, 387360, Note_on_c, 6, 31, 95
5, 387840, Note_off_c, 6, 31, 95
5, 387840, Note_on_c, 6, 33, 95
5, 388320, Note_off_c, 6, 33, 95
5, 388320, Note_on_c, 6, 34, 95
5, 388800, Note_off_c, 6, 34, 95
5, 388800, Note_on_c, 6, 38, 95
5, 389280, Note_off_c, 6, 38, 95
5, 389280, Note_on_c, 6, 37, 95
5, 389760, Note_off_c, 6, 37, 95
5, 389760, Note_on_c, 6, 41, 95
5, 390240, Note_off_c, 6, 41, 95
5, 390240, Note_on_c, 6, 40, 95
5, 391200, Note_off_c, 6, 40, 95
5, 391200, Note_on_c, 6, 31, 95
5, 391680, Note_off_c, 6, 31, 95
5, 391680, Note_on_c, 6, 33, 95
5, 392160, Note_off_c, 6, 33, 95
5, 392160, Note_on_c, 6, 34, 95
5, 392640, Note_off_c, 6, 34, 95
5, 392640, Note_on_c, 6, 38, 95
5, 393120, Note_off_c, 6, 38, 95
5, 393120, Note_on_c, 6, 37, 95
5, 393600, Note_off_c, 6, 37, 95
5, 393600, Note_on_c, 6, 34, 95
5, 394080, Note_off_c, 6, 34, 95
5, 394080, Note_on_c, 6, 33, 95
5, 394560, Note_off_c, 6, 33, 95
5, 394560, Note_on_c, 6, 34, 95
5, 395040, Note_off_c, 6, 34, 95
5, 395040, Note_on_c, 6, 33, 95
5, 395520, Note_off_c, 6, 33, 95
5, 396000, Note_on_c, 6, 41, 95
5, 396480, Note_off_c, 6, 41, 95
5, 396480, Note_on_c, 6, 40, 95
5, 396960, Note_off_c, 6, 40, 95
5, 397440, Note_on_c, 6, 33, 95
5, 397920, Note_off_c, 6, 33, 95
5, 397920, Note_on_c, 6, 34, 95
5, 398400, Note_off_c, 6, 34, 95
5, 398400, Note_on_c, 6, 33, 95
5, 398880, Note_on_c, 6, 45, 95
5, 399840, Note_off_c, 6, 33, 95
5, 399840, Note_on_c, 6, 33, 95
5, 400320, Note_off_c, 6, 45, 95
5, 400320, Note_on_c, 6, 45, 95
5, 400800, Note_off_c, 6, 45, 95
5, 400800, Note_on_c, 6, 46, 95
5, 401280, Note_off_c, 6, 46, 95
5, 401280, Note_on_c, 6, 45, 95
5, 401760, Note_off_c, 6, 45, 95
5, 401760, Note_on_c, 6, 43, 95
5, 402240, Note_off_c, 6, 33, 95
5, 402240, Note_off_c, 6, 43, 95
5, 402240, Note_on_c, 6, 33, 95
5, 402720, Note_on_c, 6, 45, 95
5, 403680, Note_off_c, 6, 33, 95
5, 403680, Note_on_c, 6, 33, 95
5, 404160, Note_off_c, 6, 45, 95
5, 404160, Note_on_c, 6, 45, 95
5, 404640, Note_off_c, 6, 45, 95
5, 404640, Note_on_c, 6, 46, 95
5, 405120, Note_off_c, 6, 46, 95
5, 405120, Note_on_c, 6, 45, 95
5, 405600, Note_off_c, 6, 45, 95
5, 405600, Note_on_c, 6, 43, 95
5, 406080, Note_off_c, 6, 33, 95
5, 406080, Note_off_c, 6, 43, 95
5, 406080, Note_on_c, 6, 33, 95
5, 406560, Note_on_c, 6, 45, 95
5, 407520, Note_off_c, 6, 33, 95
5, 407520, Note_on_c, 6, 33, 95
5, 408000, Note_off_c, 6, 45, 95
5, 408000, Note_on_c, 6, 45, 95
5, 408480, Note_off_c, 6, 45, 95
5, 408480, Note_on_c, 6, 46, 95
5, 408960, Note_off_c, 6, 46, 95
5, 408960, Note_on_c, 6, 45, 95
5, 409440, Note_off_c, 6, 45, 95
5, 409440, Note_on_c, 6, 43, 95
5, 409920, Note_off_c, 6, 33, 95
5, 409920, Note_off_c, 6, 43, 95
5, 409920, Note_on_c, 6, 33, 95
5, 410400, Note_on_c, 6, 45, 95
5, 410880, Note_off_c, 6, 45, 95
5, 410880, Note_on_c, 6, 40, 95
5, 411360, Note_off_c, 6, 40, 95
5, 411360, Note_on_c, 6, 41, 95
5, 411840, Note_off_c, 6, 33, 95
5, 411840, Note_on_c, 6, 33, 95
5, 412320, Note_off_c, 6, 41, 95
5, 412320, Note_on_c, 6, 38, 95
5, 412800, Note_off_c, 6, 38, 95
5, 412800, Note_on_c, 6, 40, 95
5, 413760, Note_off_c, 6, 33, 95
5, 413760, Note_off_c, 6, 40, 95
5, 413760, Note_on_c, 6, 33, 95
5, 414240, Note_on_c, 6, 45, 95
5, 415200, Note_off_c, 6, 33, 95
5, 415200, Note_on_c, 6, 33, 95
5, 415680, Note_off_c, 6, 45, 95
5, 415680, Note_on_c, 6, 45, 95
5, 416160, Note_off_c, 6, 45, 95
5, 416160, Note_on_c, 6, 46, 95
5, 416640, Note_off_c, 6, 46, 95
5, 416640, Note_on_c, 6, 45, 95
5, 417120, Note_off_c, 6, 45, 95
5, 417120, Note_on_c, 6, 43, 95
5, 417600, Note_off_c, 6, 33, 95
5, 417600, Note_off_c, 6, 43, 95
5, 417600, Note_on_c, 6, 33, 95
5, 418080, Note_on_c, 6, 45, 95
5, 419040, Note_off_c, 6, 33, 95
5, 419040, Note_on_c, 6, 33, 95
5, 419520, Note_off_c, 6, 45, 95
5, 419520, Note_on_c, 6, 45, 95
5, 420000, Note_off_c, 6, 45, 95
5, 420000, Note_on_c, 6, 46, 95
5, 420480, Note_off_c, 6, 46, 95
5, 420480, Note_on_c, 6, 45, 95
5, 420960, Note_off_c, 6, 45, 95
5, 420960, Note_on_c, 6, 43, 95
5, 421440, Note_off_c, 6, 33, 95
5, 421440, Note_off_c, 6, 43, 95
5, 421440, Note_on_c, 6, 33, 95
5, 421920, Note_on_c, 6, 45, 95
5, 422880, Note_off_c, 6, 33, 95
5, 422880, Note_on_c, 6, 33, 95
5, 423360, Note_off_c, 6, 45, 95
5, 423360, Note_on_c, 6, 45, 95
5, 423840, Note_off_c, 6, 45, 95
5, 423840, Note_on_c, 6, 46, 95
5, 424320, Note_off_c, 6, 46, 95
5, 424320, Note_on_c, 6, 45, 95
5, 424800, Note_off_c, 6, 45, 95
5, 424800, Note_on_c, 6, 43, 95
5, 425280, Note_off_c, 6, 33, 95
5, 425280, Note_off_c, 6, 43, 95
5, 425280, Note_on_c, 6, 33, 95
5, 425760, Note_on_c, 6, 45, 95
5, 426240, Note_off_c, 6, 45, 95
5, 426240, Note_on_c, 6, 40, 95
5, 426720, Note_off_c, 6, 40, 95
5, 426720, Note_on_c, 6, 41, 95
5, 427200, Note_off_c, 6, 33, 95
5, 427200, Note_on_c, 6, 33, 95
5, 427680, Note_off_c, 6, 41, 95
5, 427680, Note_on_c, 6, 38, 95
5, 428160, Note_off_c, 6, 38, 95
5, 428160, Note_on_c, 6, 40, 95
5, 429120, Note_off_c, 6, 33, 95
5, 429120, Note_off_c, 6, 40, 95
5, 429120, Note_on_c, 6, 33, 95
5, 429600, Note_on_c, 6, 45, 95
5, 430560, Note_off_c, 6, 33, 95
5, 430560, Note_on_c, 6, 33, 95
5, 431040, Note_off_c, 6, 45, 95
5, 431040, Note_on_c, 6, 45, 95
5, 431520, Note_off_c, 6, 45, 95
5, 431520, Note_on_c, 6, 46, 95
5, 432000, Note_off_c, 6, 46, 95
5, 432000, Note_on_c, 6, 45, 95
5, 432480, Note_off_c, 6, 45, 95
5, 432480, Note_on_c, 6, 43, 95
5, 432960, Note_off_c, 6, 33, 95
5, 432960, Note_off_c, 6, 43, 95
5, 432960, Note_on_c, 6, 33, 95
5, 433440, Note_on_c, 6, 45, 95
5, 434400, Note_off_c, 6, 33, 95
5, 434400, Note_on_c, 6, 33, 95
5, 434880, Note_off_c, 6, 45, 95
5, 434880, Note_on_c, 6, 45, 95
5, 435360, Note_off_c, 6, 45, 95
5, 435360, Note_on_c, 6, 46, 95
5, 435840, Note_off_c, 6, 46, 95
5, 435840, Note_on_c, 6, 45, 95
5, 436320, Note_off_c, 6, 45, 95
5, 436320, Note_on_c, 6, 43, 95
5, 436800, Note_off_c, 6, 33, 95
5, 436800, Note_off_c, 6, 43, 95
5, 436800, Note_on_c, 6, 33, 95
5, 437280, Note_on_c, 6, 45, 95
5, 438240, Note_off_c, 6, 33, 95
5, 438240, Note_on_c, 6, 33, 95
5, 438720, Note_off_c, 6, 45, 95
5, 438720, Note_on_c, 6, 45, 95
5, 439200, Note_off_c, 6, 45, 95
5, 439200, Note_on_c, 6, 46, 95
5, 439680, Note_off_c, 6, 46, 95
5, 439680, Note_on_c, 6, 45, 95
5, 440160, Note_off_c, 6, 45, 95
5, 440160, Note_on_c, 6, 43, 95
5, 440640, Note_off_c, 6, 33, 95
5, 440640, Note_off_c, 6, 43, 95
5, 440640, Note_on_c, 6, 33, 95
5, 441120, Note_on_c, 6, 45, 95
5, 441600, Note_off_c, 6, 45, 95
5, 441600, Note_on_c, 6, 40, 95
5, 442080, Note_off_c, 6, 40, 95
5, 442080, Note_on_c, 6, 41, 95
5, 442560, Note_off_c, 6, 33, 95
5, 442560, Note_on_c, 6, 33, 95
5, 443040, Note_off_c, 6, 41, 95
5, 443040, Note_on_c, 6, 38, 95
5, 443520, Note_off_c, 6, 38, 95
5, 443520, Note_on_c, 6, 40, 95
5, 444480, Note_off_c, 6, 33, 95
5, 444480, Note_off_c, 6, 40, 95
5, 444480, Note_on_c, 6, 33, 95
5, 444960, Note_on_c, 6, 45, 95
5, 445920, Note_off_c, 6, 33, 95
5, 445920, Note_on_c, 6, 33, 95
5, 446400, Note_off_c, 6, 45, 95
5, 446400, Note_on_c, 6, 45, 95
5, 446880, Note_off_c, 6, 45, 95
5, 446880, Note_on_c, 6, 46, 95
5, 447360, Note_off_c, 6, 46, 95
5, 447360, Note_on_c, 6, 45, 95
5, 447840, Note_off_c, 6, 45, 95
5, 447840, Note_on_c, 6, 43, 95
5, 448320, Note_off_c, 6, 33, 95
5, 448320, Note_off_c, 6, 43, 95
5, 448320, Note_on_c, 6, 33, 95
5, 448800, Note_on_c, 6, 45, 95
5, 449760, Note_off_c, 6, 33, 95
5, 449760, Note_on_c, 6, 33, 95
5, 450240, Note_off_c, 6, 45, 95
5, 450240, Note_on_c, 6, 45, 95
5, 450720, Note_off_c, 6, 45, 95
5, 450720, Note_on_c, 6, 46, 95
5, 451200, Note_off_c, 6, 46, 95
5, 451200, Note_on_c, 6, 45, 95
5, 451680, Note_off_c, 6, 45, 95
5, 451680, Note_on_c, 6, 43, 95
5, 452160, Note_off_c, 6, 33, 95
5, 452160, Note_off_c, 6, 43, 95
5, 452160, Note_on_c, 6, 33, 95
5, 452640, Note_on_c, 6, 45, 95
5, 453600, Note_off_c, 6, 33, 95
5, 453600, Note_on_c, 6, 33, 95
5, 454080, Note_off_c, 6, 45, 95
5, 454080, Note_on_c, 6, 45, 95
5, 454560, Note_off_c, 6, 45, 95
5, 454560, Note_on_c, 6, 46, 95
5, 455040, Note_off_c, 6, 46, 95
5, 455040, Note_on_c, 6, 45, 95
5, 455520, Note_off_c, 6, 45, 95
5, 455520, Note_on_c, 6, 43, 95
5, 456000, Note_off_c, 6, 33, 95
5, 456000, Note_off_c, 6, 43, 95
5, 456000, Note_on_c, 6, 33, 95
5, 456480, Note_on_c, 6, 45, 95
5, 456960, Note_off_c, 6, 45, 95
5, 456960, Note_on_c, 6, 40, 95
5, 457440, Note_off_c, 6, 40, 95
5, 457440, Note_on_c, 6, 41, 95
5, 457920, Note_off_c, 6, 33, 95
5, 457920, Note_on_c, 6, 33, 95
5, 458400, Note_off_c, 6, 41, 95
5, 458400, Note_on_c, 6, 38, 95
5, 458880, Note_off_c, 6, 38, 95
5, 458880, Note_on_c, 6, 40, 95
5, 459840, Note_off_c, 6, 33, 95
5, 459840, Note_off_c, 6, 40, 95
5, 459840, Note_on_c, 6, 31, 95
5, 460320, Note_on_c, 6, 45, 95
5, 461280, Note_off_c, 6, 31, 95
5, 461280, Note_on_c, 6, 31, 95
5, 461760, Note_off_c, 6, 45, 95
5, 461760, Note_on_c, 6, 45, 95
5, 462240, Note_off_c, 6, 45, 95
5, 462240, Note_on_c, 6, 46, 95
5, 462720, Note_off_c, 6, 46, 95
5, 462720, Note_on_c, 6, 45, 95
5, 463200, Note_off_c, 6, 45, 95
5, 463200, Note_on_c, 6, 43, 95
5, 463680, Note_off_c, 6, 31, 95
5, 463680, Note_off_c, 6, 43, 95
5, 463680, Note_on_c, 6, 31, 95
5, 464160, Note_on_c, 6, 45, 95
5, 465120, Note_off_c, 6, 31, 95
5, 465120, Note_on_c, 6, 31, 95
5, 465600, Note_off_c, 6, 45, 95
5, 465600, Note_on_c, 6, 45, 95
5, 466080, Note_off_c, 6, 45, 95
5, 466080, Note_on_c, 6, 46, 95
5, 466560, Note_off_c, 6, 46, 95
5, 466560, Note_on_c, 6, 45, 95
5, 467040, Note_off_c, 6, 45, 95
5, 467040, Note_on_c, 6, 43, 95
5, 467520, Note_off_c, 6, 31, 95
5, 467520, Note_off_c, 6, 43, 95
5, 467520, Note_on_c, 6, 31, 95
5, 468000, Note_on_c, 6, 45, 95
5, 468960, Note_off_c, 6, 31, 95
5, 468960, Note_on_c, 6, 31, 95
5, 469440, Note_off_c, 6, 45, 95
5, 469440, Note_on_c, 6, 45, 95
5, 469920, Note_off_c, 6, 45, 95
5, 469920, Note_on_c, 6, 46, 95
5, 470400, Note_off_c, 6, 46, 95
5, 470400, Note_on_c, 6, 45, 95
5, 470880, Note_off_c, 6, 45, 95
5, 470880, Note_on_c, 6, 43, 95
5, 471360, Note_off_c, 6, 31, 95
5, 471360, Note_off_c, 6, 43, 95
5, 471360, Note_on_c, 6, 28, 95
5, 471840, Note_off_c, 6, 28, 95
5, 471840, Note_on_c, 6, 28, 95
5, 472320, Note_on_c, 6, 40, 95
5, 472800, Note_off_c, 6, 40, 95
5, 472800, Note_on_c, 6, 41, 95
5, 473280, Note_off_c, 6, 28, 95
5, 473280, Note_off_c, 6, 41, 95
5, 473280, Note_on_c, 6, 28, 95
5, 473760, Note_on_c, 6, 38, 95
5, 474240, Note_off_c, 6, 38, 95
5, 474240, Note_on_c, 6, 40, 95
5, 475200, Note_off_c, 6, 28, 95
5, 475200, Note_off_c, 6, 40, 95
5, 475200, Note_on_c, 6, 31, 95
5, 475680, Note_off_c, 6, 31, 95
5, 475680, Note_on_c, 6, 33, 95
5, 476160, Note_off_c, 6, 33, 95
5, 476160, Note_on_c, 6, 34, 95
5, 476640, Note_off_c, 6, 34, 95
5, 476640, Note_on_c, 6, 38, 95
5, 477120, Note_off_c, 6, 38, 95
5, 477120, Note_on_c, 6, 37, 95
5, 477600, Note_off_c, 6, 37, 95
5, 477600, Note_on_c, 6, 33, 95
5, 478080, Note_off_c, 6, 33, 95
5, 479520, Note_on_c, 6, 31, 95
5, 480000, Note_off_c, 6, 31, 95
5, 480000, Note_on_c, 6, 33, 95
5, 480480, Note_off_c, 6, 33, 95
5, 480480, Note_on_c, 6, 34, 95
5, 480960, Note_off_c, 6, 34, 95
5, 480960, Note_on_c, 6, 38, 95
5, 481440, Note_off_c, 6, 38, 95
5, 481440, Note_on_c, 6, 37, 95
5, 481920, Note_off_c, 6, 37, 95
5, 481920, Note_on_c, 6, 41, 95
5, 482400, Note_off_c, 6, 41, 95
5, 482400, Note_on_c, 6, 40, 95
5, 483360, Note_off_c, 6, 40, 95
5, 483360, Note_on_c, 6, 31, 95
5, 483840, Note_off_c, 6, 31, 95
5, 483840, Note_on_c, 6, 34, 95
5, 484320, Note_off_c, 6, 34, 95
5, 484320, Note_on_c, 6, 38, 95
5, 484800, Note_off_c, 6, 38, 95
5, 484800, Note_on_c, 6, 37, 95
5, 485280, Note_off_c, 6, 37, 95
5, 485280, Note_on_c, 6, 33, 95
5, 485760, Note_off_c, 6, 33, 95
5, 486240, Note_on_c, 6, 33, 95
5, 486720, Note_off_c, 6, 33, 95
5, 486720, Note_on_c, 6, 34, 95
5, 487200, Note_off_c, 6, 34, 95
5, 487200, Note_on_c, 6, 31, 95
5, 487680, Note_off_c, 6, 31, 95
5, 488160, Note_on_c, 6, 29, 95
5, 488640, Note_off_c, 6, 29, 95
5, 488640, Note_on_c, 6, 31, 95
5, 489120, Note_off_c, 6, 31, 95
5, 489120, Note_on_c, 6, 28, 95
5, 489600, Note_off_c, 6, 28, 95
5, 490560, Note_on_c, 6, 41, 95
5, 491040, Note_off_c, 6, 41, 95
5, 491040, Note_on_c, 6, 36, 95
5, 491520, Note_off_c, 6, 36, 95
5, 491520, Note_on_c, 6, 41, 95
5, 492000, Note_off_c, 6, 41, 95
5, 492000, Note_on_c, 6, 45, 95
5, 492480, Note_off_c, 6, 45, 95
5, 492480, Note_on_c, 6, 47, 95
5, 492960, Note_off_c, 6, 47, 95
5, 492960, Note_on_c, 6, 38, 95
5, 493440, Note_off_c, 6, 38, 95
5, 493440, Note_on_c, 6, 43, 95
5, 493920, Note_off_c, 6, 43, 95
5, 493920, Note_on_c, 6, 47, 95
5, 494400, Note_off_c, 6, 47, 95
5, 494400, Note_on_c, 6, 48, 95
5, 494880, Note_off_c, 6, 48, 95
5, 494880, Note_on_c, 6, 40, 95
5, 495360, Note_off_c, 6, 40, 95
5, 495360, Note_on_c, 6, 45, 95
5, 495840, Note_off_c, 6, 45, 95
5, 495840, Note_on_c, 6, 48, 95
5, 496320, Note_off_c, 6, 48, 95
5, 496320, Note_on_c, 6, 47, 95
5, 496440, Note_off_c, 6, 47, 95
5, 496440, Note_on_c, 6, 48, 95
5, 496560, Note_off_c, 6, 48, 95
5, 496560, Note_on_c, 6, 47, 95
5, 496680, Note_off_c, 6, 47, 95
5, 496680, Note_on_c, 6, 43, 95
5, 497160, Note_off_c, 6, 43, 95
5, 497160, Note_on_c, 6, 28, 95
5, 497640, Note_off_c, 6, 28, 95
5, 497640, Note_on_c, 6, 41, 95
5, 498240, Note_off_c, 6, 41, 95
5, 498720, Note_on_c, 6, 36, 95
5, 499200, Note_off_c, 6, 36, 95
5, 499200, Note_on_c, 6, 41, 95
5, 499680, Note_off_c, 6, 41, 95
5, 499680, Note_on_c, 6, 45, 95
5, 500160, Note_off_c, 6, 45, 95
5, 500160, Note_on_c, 6, 47, 95
5, 500640, Note_off_c, 6, 47, 95
5, 500640, Note_on_c, 6, 38, 95
5, 501120, Note_off_c, 6, 38, 95
5, 501120, Note_on_c, 6, 48, 95
5, 501600, Note_off_c, 6, 48, 95
5, 501600, Note_on_c, 6, 47, 95
5, 502080, Note_off_c, 6, 47, 95
5, 502080, Note_on_c, 6, 33, 95
5, 503520, Note_off_c, 6, 33, 95
5, 503520, Note_on_c, 6, 31, 95
5, 504480, Note_off_c, 6, 31, 95
5, 504480, Note_on_c, 6, 28, 95
5, 505440, Note_off_c, 6, 28, 95
5, 505440, Note_on_c, 6, 29, 95
5, 506400, Note_off_c, 6, 29, 95
5, 506400, Note_on_c, 6, 36, 95
5, 506880, Note_off_c, 6, 36, 95
5, 506880, Note_on_c, 6, 41, 95
5, 507360, Note_off_c, 6, 41, 95
5, 507360, Note_on_c, 6, 45, 95
5, 507840, Note_off_c, 6, 45, 95
5, 507840, Note_on_c, 6, 47, 95
5, 508320, Note_off_c, 6, 47, 95
5, 508320, Note_on_c, 6, 38, 95
5, 508800, Note_off_c, 6, 38, 95
5, 508800, Note_on_c, 6, 43, 95
5, 509280, Note_off_c, 6, 43, 95
5, 509280, Note_on_c, 6, 47, 95
5, 509760, Note_off_c, 6, 47, 95
5, 509760, Note_on_c, 6, 48, 95
5, 510240, Note_off_c, 6, 48, 95
5, 510240, Note_on_c, 6, 40, 95
5, 510720, Note_off_c, 6, 40, 95
5, 510720, Note_on_c, 6, 45, 95
5, 511200, Note_off_c, 6, 45, 95
5, 511200, Note_on_c, 6, 48, 95
5, 511680, Note_off_c, 6, 48, 95
5, 511680, Note_on_c, 6, 50, 95
5, 512160, Note_off_c, 6, 50, 95
5, 512160, Note_on_c, 6, 43, 95
5, 512640, Note_off_c, 6, 43, 95
5, 512640, Note_on_c, 6, 38, 95
5, 513120, Note_off_c, 6, 38, 95
5, 513120, Note_on_c, 6, 41, 95
5, 514080, Note_off_c, 6, 41, 95
5, 514080, Note_on_c, 6, 36, 95
5, 514560, Note_off_c, 6, 36, 95
5, 514560, Note_on_c, 6, 41, 95
5, 515040, Note_off_c, 6, 41, 95
5, 515040, Note_on_c, 6, 48, 95
5, 515520, Note_off_c, 6, 48, 95
5, 515520, Note_on_c, 6, 47, 95
5, 516000, Note_off_c, 6, 47, 95
5, 516000, Note_on_c, 6, 35, 95
5, 516480, Note_off_c, 6, 35, 95
5, 516480, Note_on_c, 6, 43, 95
5, 516960, Note_off_c, 6, 43, 95
5, 516960, Note_on_c, 6, 47, 95
5, 517440, Note_off_c, 6, 47, 95
5, 517440, Note_on_c, 6, 45, 95
5, 518400, Note_off_c, 6, 45, 95
5, 518880, Note_on_c, 6, 47, 95
5, 519360, Note_off_c, 6, 47, 95
5, 519840, Note_on_c, 6, 48, 95
5, 520320, Note_off_c, 6, 48, 95
5, 520800, Note_on_c, 6, 41, 95
5, 521760, Note_off_c, 6, 41, 95
5, 521760, Note_on_c, 6, 36, 95
5, 522240, Note_off_c, 6, 36, 95
5, 522240, Note_on_c, 6, 41, 95
5, 522720, Note_off_c, 6, 41, 95
5, 522720, Note_on_c, 6, 45, 95
5, 523200, Note_off_c, 6, 45, 95
5, 523200, Note_on_c, 6, 47, 95
5, 523680, Note_off_c, 6, 47, 95
5, 523680, Note_on_c, 6, 38, 95
5, 524160, Note_off_c, 6, 38, 95
5, 524160, Note_on_c, 6, 43, 95
5, 524640, Note_off_c, 6, 43, 95
5, 524640, Note_on_c, 6, 47, 95
5, 525120, Note_off_c, 6, 47, 95
5, 525120, Note_on_c, 6, 48, 95
5, 525600, Note_off_c, 6, 48, 95
5, 525600, Note_on_c, 6, 40, 95
5, 526080, Note_off_c, 6, 40, 95
5, 526080, Note_on_c, 6, 45, 95
5, 526560, Note_off_c, 6, 45, 95
5, 526560, Note_on_c, 6, 48, 95
5, 527040, Note_off_c, 6, 48, 95
5, 527040, Note_on_c, 6, 50, 95
5, 527520, Note_off_c, 6, 50, 95
5, 527520, Note_on_c, 6, 43, 95
5, 528000, Note_off_c, 6, 43, 95
5, 528000, Note_on_c, 6, 47, 95
5, 528480, Note_off_c, 6, 47, 95
5, 528480, Note_on_c, 6, 50, 95
5, 528960, Note_off_c, 6, 50, 95
5, 528960, Note_on_c, 6, 55, 95
5, 529440, Note_off_c, 6, 55, 95
5, 529440, Note_on_c, 6, 50, 95
5, 529680, Note_off_c, 6, 50, 95
5, 529680, Note_on_c, 6, 50, 95
5, 529920, Note_off_c, 6, 50, 95
5, 529920, Note_on_c, 6, 53, 95
5, 530400, Note_off_c, 6, 53, 95
5, 530400, Note_on_c, 7, 52, 95
5, 530560, Pitch_bend_c, 7, 8192
5, 530720, Pitch_bend_c, 7, 8320
5, 530880, Pitch_bend_c, 7, 8192
5, 531040, Pitch_bend_c, 7, 8320
5, 531200, Pitch_bend_c, 7, 8192
5, 531360, Pitch_bend_c, 7, 8320
5, 531360, Pitch_bend_c, 7, 8192
5, 531360, Note_off_c, 7, 52, 95
5, 531360, Note_on_c, 6, 36, 95
5, 531840, Note_off_c, 6, 36, 95
5, 531840, Note_on_c, 6, 40, 95
5, 532320, Note_off_c, 6, 40, 95
5, 532320, Note_on_c, 6, 43, 95
5, 532800, Note_off_c, 6, 43, 95
5, 532800, Note_on_c, 6, 48, 95
5, 533280, Note_off_c, 6, 48, 95
5, 533280, Note_on_c, 6, 50, 95
5, 533760, Note_off_c, 6, 50, 95
5, 533760, Note_on_c, 6, 52, 95
5, 534240, Note_off_c, 6, 52, 95
5, 534240, Note_on_c, 6, 53, 95
5, 534720, Note_off_c, 6, 53, 95
5, 534720, Note_on_c, 6, 38, 95
5, 535200, Note_off_c, 6, 38, 95
5, 535200, Note_on_c, 6, 45, 95
5, 535680, Note_off_c, 6, 45, 95
5, 535680, Note_on_c, 7, 52, 95
5, 535800, Pitch_bend_c, 7, 8320
5, 535920, Pitch_bend_c, 7, 8448
5, 536040, Pitch_bend_c, 7, 8704
5, 536160, Pitch_bend_c, 7, 8832
5, 536160, Pitch_bend_c, 7, 8192
5, 536160, Note_off_c, 7, 52, 95
5, 536160, Note_on_c, 6, 53, 95
5, 536640, Note_off_c, 6, 53, 95
5, 536640, Note_on_c, 6, 34, 95
5, 537120, Note_off_c, 6, 34, 95
5, 537120, Note_on_c, 6, 43, 95
5, 537600, Note_off_c, 6, 43, 95
5, 537600, Note_on_c, 7, 50, 95
5, 537720, Pitch_bend_c, 7, 8448
5, 537840, Pitch_bend_c, 7, 8832
5, 537960, Pitch_bend_c, 7, 9216
5, 538080, Pitch_bend_c, 7, 9600
5, 538080, Pitch_bend_c, 7, 8192
5, 538080, Note_off_c, 7, 50, 95
5, 538080, Note_on_c, 6, 52, 95
5, 538560, Note_off_c, 6, 52, 95
5, 538560, Note_on_c, 6, 36, 95
5, 539040, Note_off_c, 6, 36, 95
5, 539040, Note_on_c, 6, 43, 95
5, 539520, Note_off_c, 6, 43, 95
5, 539520, Note_on_c, 7, 52, 95
5, 539640, Pitch_bend_c, 7, 7552
5, 539760, Pitch_bend_c, 7, 6784
5, 539880, Pitch_bend_c, 7, 6144
5, 540000, Pitch_bend_c, 7, 5376
5, 540000, Pitch_bend_c, 7, 8192
5, 540000, Note_off_c, 7, 52, 95
5, 540000, Note_on_c, 6, 48, 95
5, 540480, Note_off_c, 6, 48, 95
5, 540480, Note_on_c, 6, 33, 95
5, 540960, Note_off_c, 6, 33, 95
5, 540960, Note_on_c, 6, 41, 95
5, 541440, Note_off_c, 6, 41, 95
5, 541440, Note_on_c, 7, 48, 95
5, 541560, Pitch_bend_c, 7, 8448
5, 541680, Pitch_bend_c, 7, 8832
5, 541800, Pitch_bend_c, 7, 9216
5, 541920, Pitch_bend_c, 7, 9600
5, 541920, Pitch_bend_c, 7, 8192
5, 541920, Note_off_c, 7, 48, 95
5, 541920, Note_on_c, 6, 50, 95
5, 542400, Note_off_c, 6, 50, 95
5, 542400, Note_on_c, 6, 34, 95
5, 542880, Note_off_c, 6, 34, 95
5, 542880, Note_on_c, 6, 41, 95
5, 543360, Note_off_c, 6, 41, 95
5, 543360, Note_on_c, 7, 50, 95
5, 543480, Pitch_bend_c, 7, 7552
5, 543600, Pitch_bend_c, 7, 6784
5, 543720, Pitch_bend_c, 7, 6144
5, 543840, Pitch_bend_c, 7, 5376
5, 543840, Pitch_bend_c, 7, 8192
5, 543840, Note_off_c, 7, 50, 95
5, 543840, Note_on_c, 6, 46, 95
5, 544320, Note_off_c, 6, 46, 95
5, 544320, Note_on_c, 6, 31, 95
5, 544800, Note_off_c, 6, 31, 95
5, 544800, Note_on_c, 6, 28, 95
5, 545280, Note_off_c, 6, 28, 95
5, 545280, Note_on_c, 6, 46, 95
5, 545760, Note_off_c, 6, 46, 95
5, 545760, Note_on_c, 6, 45, 95
5, 546240, Note_off_c, 6, 45, 95
5, 546240, Note_on_c, 6, 41, 95
5, 546720, Note_off_c, 6, 41, 95
5, 546720, Note_on_c, 6, 36, 95
5, 547200, Note_off_c, 6, 36, 95
5, 547200, Note_on_c, 6, 41, 95
5, 547680, Note_off_c, 6, 41, 95
5, 547680, Note_on_c, 6, 45, 95
5, 548160, Note_off_c, 6, 45, 95
5, 548160, Note_on_c, 6, 47, 95
5, 548640, Note_off_c, 6, 47, 95
5, 548640, Note_on_c, 6, 48, 95
5, 549120, Note_off_c, 6, 48, 95
5, 549120, Note_on_c, 6, 33, 95
5, 549600, Note_off_c, 6, 33, 95
5, 549600, Note_on_c, 6, 28, 95
5, 550080, Note_off_c, 6, 28, 95
5, 550080, Note_on_c, 6, 48, 95
5, 550560, Note_off_c, 6, 48, 95
5, 550560, Note_on_c, 6, 50, 95
5, 551040, Note_off_c, 6, 50, 95
5, 551040, Note_on_c, 6, 34, 95
5, 551520, Note_off_c, 6, 34, 95
5, 551520, Note_on_c, 6, 29, 95
5, 552000, Note_off_c, 6, 29, 95
5, 552000, Note_on_c, 6, 46, 95
5, 552480, Note_off_c, 6, 46, 95
5, 552480, Note_on_c, 6, 50, 95
5, 552960, Note_off_c, 6, 50, 95
5, 552960, Note_on_c, 6, 52, 95
5, 553440, Note_off_c, 6, 52, 95
5, 553440, Note_on_c, 6, 53, 95
5, 553920, Note_off_c, 6, 53, 95
5, 553920, Note_on_c, 6, 36, 95
5, 554400, Note_off_c, 6, 36, 95
5, 554400, Note_on_c, 6, 31, 95
5, 554880, Note_off_c, 6, 31, 95
5, 554880, Note_on_c, 6, 48, 95
5, 555360, Note_off_c, 6, 48, 95
5, 555360, Note_on_c, 6, 52, 95
5, 555840, Note_off_c, 6, 52, 95
5, 555840, Note_on_c, 6, 53, 95
5, 556320, Note_off_c, 6, 53, 95
5, 556320, Note_on_c, 6, 55, 95
5, 556800, Note_off_c, 6, 55, 95
5, 556800, Note_on_c, 7, 38, 95
5, 557760, Note_off_c, 7, 38, 95
5, 560640, Note_on_c, 6, 33, 95
5, 568320, Note_off_c, 6, 33, 95
5, 568320, Note_on_c, 6, 28, 95
5, 572160, Note_off_c, 6, 28, 95
5, 572640, Note_on_c, 6, 67, 95
5, 573360, Note_off_c, 6, 67, 95
5, 573360, Note_on_c, 6, 66, 95
5, 573960, Note_off_c, 6, 66, 95
5, 573960, Note_on_c, 6, 64, 95
5, 574080, Note_off_c, 6, 64, 95
5, 576000, Note_on_c, 6, 33, 95
5, 579840, Note_off_c, 6, 33, 95
5, 580800, Note_on_c, 6, 49, 95
5, 581280, Note_off_c, 6, 49, 95
5, 581280, Note_on_c, 6, 50, 95
5, 581760, Note_off_c, 6, 50, 95
5, 581760, Note_on_c, 7, 49, 95
5, 581880, Pitch_bend_c, 7, 7936
5, 582000, Pitch_bend_c, 7, 7552
5, 582120, Pitch_bend_c, 7, 7168
5, 582240, Pitch_bend_c, 7, 6784
5, 582240, Pitch_bend_c, 7, 8192
5, 582240, Note_off_c, 7, 49, 95
5, 582240, Note_on_c, 6, 47, 95
5, 583680, Note_off_c, 6, 47, 95
5, 583680, Note_on_c, 6, 48, 95
5, 585600, Note_off_c, 6, 48, 95
5, 585600, Note_on_c, 6, 36, 95
5, 587520, Note_off_c, 6, 36, 95
5, 587520, Note_on_c, 6, 38, 95
5, 588960, Note_off_c, 6, 38, 95
5, 588960, Note_on_c, 7, 50, 95
5, 589080, Pitch_bend_c, 7, 8192
5, 589200, Pitch_bend_c, 7, 8192
5, 589320, Pitch_bend_c, 7, 8192
5, 589440, Pitch_bend_c, 7, 8192
5, 589560, Pitch_bend_c, 7, 8192
5, 589680, Pitch_bend_c, 7, 8192
5, 589800, Pitch_bend_c, 7, 8192
5, 589920, Pitch_bend_c, 7, 8192
5, 589920, Pitch_bend_c, 7, 8192
5, 590880, Note_off_c, 7, 50, 95
5, 590880, Note_on_c, 6, 43, 95
5, 591360, Note_off_c, 6, 43, 95
5, 591360, Note_on_c, 6, 33, 95
5, 599040, Note_off_c, 6, 33, 95
5, 599040, Note_on_c, 6, 28, 95
5, 603360, Note_off_c, 6, 28, 95
5, 603360, Note_on_c, 6, 30, 95
5, 604800, Note_off_c, 6, 30, 95
5, 604800, Note_on_c, 6, 31, 95
5, 606720, Note_off_c, 6, 31, 95
5, 606720, Note_on_c, 6, 33, 95
5, 610560, Note_off_c, 6, 33, 95
5, 614400, Note_on_c, 6, 29, 95
5, 618240, Note_off_c, 6, 29, 95
5, 618240, Note_on_c, 6, 31, 95
5, 622080, Note_off_c, 6, 31, 95
5, 622080, Note_on_c, 6, 33, 95
5, 630720, Note_off_c, 6, 33, 95
5, 661440, Note_on_c, 6, 33, 95
5, 661920, Note_off_c, 6, 33, 95
5, 661920, Note_on_c, 6, 45, 95
5, 662880, Note_off_c, 6, 45, 95
5, 662880, Note_on_c, 6, 33, 95
5, 663360, Note_off_c, 6, 33, 95
5, 663360, Note_on_c, 6, 45, 95
5, 663840, Note_off_c, 6, 45, 95
5, 663840, Note_on_c, 6, 46, 95
5, 664320, Note_off_c, 6, 46, 95
5, 664320, Note_on_c, 6, 33, 95
5, 664800, Note_on_c, 6, 43, 95
5, 665280, Note_off_c, 6, 33, 95
5, 665280, Note_off_c, 6, 43, 95
5, 665280, Note_on_c, 6, 33, 95
5, 665760, Note_on_c, 6, 45, 95
5, 666240, Note_off_c, 6, 45, 95
5, 666720, Note_off_c, 6, 33, 95
5, 666720, Note_on_c, 6, 33, 95
5, 667200, Note_off_c, 6, 33, 95
5, 667200, Note_on_c, 6, 45, 95
5, 667680, Note_off_c, 6, 45, 95
5, 667680, Note_on_c, 6, 46, 95
5, 668160, Note_on_c, 6, 33, 95
5, 668640, Note_off_c, 6, 46, 95
5, 668640, Note_off_c, 6, 33, 95
5, 668640, Note_on_c, 6, 43, 95
5, 669120, Note_off_c, 6, 43, 95
5, 669120, Note_on_c, 6, 33, 95
5, 669600, Note_on_c, 6, 45, 95
5, 670080, Note_off_c, 6, 45, 95
5, 670560, Note_off_c, 6, 33, 95
5, 670560, Note_on_c, 6, 33, 95
5, 671040, Note_off_c, 6, 33, 95
5, 671040, Note_on_c, 6, 45, 95
5, 671520, Note_off_c, 6, 45, 95
5, 671520, Note_on_c, 6, 46, 95
5, 672000, Note_on_c, 6, 33, 95
5, 672480, Note_off_c, 6, 46, 95
5, 672480, Note_off_c, 6, 33, 95
5, 672480, Note_on_c, 6, 43, 95
5, 672960, Note_off_c, 6, 43, 95
5, 672960, Note_on_c, 6, 45, 95
5, 673440, Note_on_c, 6, 33, 95
5, 673920, Note_off_c, 6, 45, 95
5, 673920, Note_off_c, 6, 33, 95
5, 673920, Note_on_c, 6, 40, 95
5, 674400, Note_off_c, 6, 40, 95
5, 674400, Note_on_c, 6, 41, 95
5, 674880, Note_on_c, 6, 33, 95
5, 675360, Note_off_c, 6, 41, 95
5, 675360, Note_off_c, 6, 33, 95
5, 675360, Note_on_c, 6, 38, 95
5, 675840, Note_off_c, 6, 38, 95
5, 675840, Note_on_c, 6, 40, 95
5, 676800, Note_off_c, 6, 40, 95
5, 676800, Note_on_c, 6, 33, 95
5, 677280, Note_off_c, 6, 33, 95
5, 677280, Note_on_c, 6, 45, 95
5, 678240, Note_off_c, 6, 45, 95
5, 678240, Note_on_c, 6, 33, 95
5, 678720, Note_off_c, 6, 33, 95
5, 678720, Note_on_c, 6, 45, 95
5, 679200, Note_off_c, 6, 45, 95
5, 679200, Note_on_c, 6, 46, 95
5, 679680, Note_off_c, 6, 46, 95
5, 679680, Note_on_c, 6, 33, 95
5, 680160, Note_on_c, 6, 43, 95
5, 680640, Note_off_c, 6, 33, 95
5, 680640, Note_off_c, 6, 43, 95
5, 680640, Note_on_c, 6, 33, 95
5, 681120, Note_on_c, 6, 45, 95
5, 681600, Note_off_c, 6, 45, 95
5, 682080, Note_off_c, 6, 33, 95
5, 682080, Note_on_c, 6, 33, 95
5, 682560, Note_off_c, 6, 33, 95
5, 682560, Note_on_c, 6, 45, 95
5, 683040, Note_off_c, 6, 45, 95
5, 683040, Note_on_c, 6, 46, 95
5, 683520, Note_on_c, 6, 33, 95
5, 684000, Note_off_c, 6, 46, 95
5, 684000, Note_off_c, 6, 33, 95
5, 684000, Note_on_c, 6, 43, 95
5, 684480, Note_off_c, 6, 43, 95
5, 684480, Note_on_c, 6, 33, 95
5, 684960, Note_on_c, 6, 45, 95
5, 685440, Note_off_c, 6, 45, 95
5, 685920, Note_off_c, 6, 33, 95
5, 685920, Note_on_c, 6, 33, 95
5, 686400, Note_off_c, 6, 33, 95
5, 686400, Note_on_c, 6, 45, 95
5, 686880, Note_off_c, 6, 45, 95
5, 686880, Note_on_c, 6, 46, 95
5, 687360, Note_on_c, 6, 33, 95
5, 687840, Note_off_c, 6, 46, 95
5, 687840, Note_off_c, 6, 33, 95
5, 687840, Note_on_c, 6, 43, 95
5, 688320, Note_off_c, 6, 43, 95
5, 688320, Note_on_c, 6, 45, 95
5, 688800, Note_on_c, 6, 33, 95
5, 689280, Note_off_c, 6, 45, 95
5, 689280, Note_off_c, 6, 33, 95
5, 689280, Note_on_c, 6, 40, 95
5, 689760, Note_off_c, 6, 40, 95
5, 689760, Note_on_c, 6, 41, 95
5, 690240, Note_on_c, 6, 33, 95
5, 690720, Note_off_c, 6, 41, 95
5, 690720, Note_off_c, 6, 33, 95
5, 690720, Note_on_c, 6, 38, 95
5, 691200, Note_off_c, 6, 38, 95
5, 691200, Note_on_c, 6, 40, 95
5, 692160, Note_off_c, 6, 40, 95
5, 692160, Note_on_c, 6, 33, 95
5, 692640, Note_off_c, 6, 33, 95
5, 692640, Note_on_c, 6, 45, 95
5, 693600, Note_off_c, 6, 45, 95
5, 693600, Note_on_c, 6, 33, 95
5, 694080, Note_off_c, 6, 33, 95
5, 694080, Note_on_c, 6, 45, 95
5, 694560, Note_off_c, 6, 45, 95
5, 694560, Note_on_c, 6, 46, 95
5, 695040, Note_off_c, 6, 46, 95
5, 695040, Note_on_c, 6, 33, 95
5, 695520, Note_on_c, 6, 43, 95
5, 696000, Note_off_c, 6, 33, 95
5, 696000, Note_off_c, 6, 43, 95
5, 696000, Note_on_c, 6, 33, 95
5, 696480, Note_on_c, 6, 45, 95
5, 696960, Note_off_c, 6, 45, 95
5, 697440, Note_off_c, 6, 33, 95
5, 697440, Note_on_c, 6, 33, 95
5, 697920, Note_off_c, 6, 33, 95
5, 697920, Note_on_c, 6, 45, 95
5, 698400, Note_off_c, 6, 45, 95
5, 698400, Note_on_c, 6, 46, 95
5, 698880, Note_on_c, 6, 33, 95
5, 699360, Note_off_c, 6, 46, 95
5, 699360, Note_off_c, 6, 33, 95
5, 699360, Note_on_c, 6, 43, 95
5, 699840, Note_off_c, 6, 43, 95
5, 699840, Note_on_c, 6, 33, 95
5, 700320, Note_on_c, 6, 45, 95
5, 700800, Note_off_c, 6, 45, 95
5, 701280, Note_off_c, 6, 33, 95
5, 701280, Note_on_c, 6, 33, 95
5, 701760, Note_off_c, 6, 33, 95
5, 701760, Note_on_c, 6, 45, 95
5, 702240, Note_off_c, 6, 45, 95
5, 702240, Note_on_c, 6, 46, 95
5, 702720, Note_on_c, 6, 33, 95
5, 703200, Note_off_c, 6, 46, 95
5, 703200, Note_off_c, 6, 33, 95
5, 703200, Note_on_c, 6, 43, 95
5, 703680, Note_off_c, 6, 43, 95
5, 703680, Note_on_c, 6, 45, 95
5, 704160, Note_on_c, 6, 33, 95
5, 704640, Note_off_c, 6, 45, 95
5, 704640, Note_off_c, 6, 33, 95
5, 704640, Note_on_c, 6, 40, 95
5, 705120, Note_off_c, 6, 40, 95
5, 705120, Note_on_c, 6, 41, 95
5, 705600, Note_on_c, 6, 33, 95
5, 706080, Note_off_c, 6, 41, 95
5, 706080, Note_off_c, 6, 33, 95
5, 706080, Note_on_c, 6, 38, 95
5, 706560, Note_off_c, 6, 38, 95
5, 706560, Note_on_c, 6, 40, 95
5, 707520, Note_off_c, 6, 40, 95
5, 707520, Note_on_c, 6, 33, 95
5, 708000, Note_off_c, 6, 33, 95
5, 708000, Note_on_c, 6, 45, 95
5, 708960, Note_off_c, 6, 45, 95
5, 708960, Note_on_c, 6, 33, 95
5, 709440, Note_off_c, 6, 33, 95
5, 709440, Note_on_c, 6, 45, 95
5, 709920, Note_off_c, 6, 45, 95
5, 709920, Note_on_c, 6, 46, 95
5, 710400, Note_off_c, 6, 46, 95
5, 710400, Note_on_c, 6, 33, 95
5, 710880, Note_on_c, 6, 43, 95
5, 711360, Note_off_c, 6, 33, 95
5, 711360, Note_off_c, 6, 43, 95
5, 711360, Note_on_c, 6, 33, 95
5, 711840, Note_on_c, 6, 45, 95
5, 712320, Note_off_c, 6, 45, 95
5, 712800, Note_off_c, 6, 33, 95
5, 712800, Note_on_c, 6, 33, 95
5, 713280, Note_off_c, 6, 33, 95
5, 713280, Note_on_c, 6, 45, 95
5, 713760, Note_off_c, 6, 45, 95
5, 713760, Note_on_c, 6, 46, 95
5, 714240, Note_on_c, 6, 33, 95
5, 714720, Note_off_c, 6, 46, 95
5, 714720, Note_off_c, 6, 33, 95
5, 714720, Note_on_c, 6, 43, 95
5, 715200, Note_off_c, 6, 43, 95
5, 715200, Note_on_c, 6, 33, 95
5, 715680, Note_on_c, 6, 45, 95
5, 716160, Note_off_c, 6, 45, 95
5, 716640, Note_off_c, 6, 33, 95
5, 716640, Note_on_c, 6, 33, 95
5, 717120, Note_off_c, 6, 33, 95
5, 717120, Note_on_c, 6, 45, 95
5, 717600, Note_off_c, 6, 45, 95
5, 717600, Note_on_c, 6, 46, 95
5, 718080, Note_on_c, 6, 33, 95
5, 718560, Note_off_c, 6, 46, 95
5, 718560, Note_off_c, 6, 33, 95
5, 718560, Note_on_c, 6, 43, 95
5, 719040, Note_off_c, 6, 43, 95
5, 719040, Note_on_c, 6, 45, 95
5, 719520, Note_off_c, 6, 45, 95
5, 720000, Note_on_c, 6, 40, 95
5, 720480, Note_off_c, 6, 40, 95
5, 720480, Note_on_c, 6, 41, 95
5, 721440, Note_off_c, 6, 41, 95
5, 721440, Note_on_c, 6, 38, 95
5, 721920, Note_off_c, 6, 38, 95
5, 721920, Note_on_c, 7, 40, 95
5, 722880, Note_off_c, 7, 40, 95
5, 722880, Note_on_c, 6, 31, 95
5, 724320, Note_off_c, 6, 31, 95
5, 724320, Note_on_c, 6, 33, 95
5, 725760, Note_off_c, 6, 33, 95
5, 725760, Note_on_c, 6, 34, 95
5, 726720, Note_off_c, 6, 34, 95
5, 728640, Note_on_c, 6, 31, 95
5, 730560, Note_off_c, 6, 31, 95
5, 730560, Note_on_c, 6, 38, 95
5, 732000, Note_off_c, 6, 38, 95
5, 732000, Note_on_c, 6, 37, 95
5, 732960, Note_off_c, 6, 37, 95
5, 738240, Note_on_c, 6, 31, 95
5, 739680, Note_off_c, 6, 31, 95
5, 739680, Note_on_c, 6, 33, 95
5, 741120, Note_off_c, 6, 33, 95
5, 741120, Note_on_c, 6, 34, 95
5, 742080, Note_off_c, 6, 34, 95
5, 744000, Note_on_c, 6, 31, 95
5, 745920, Note_off_c, 6, 31, 95
5, 745920, Note_on_c, 6, 41, 95
5, 747360, Note_off_c, 6, 41, 95
5, 747360, Note_on_c, 6, 40, 95
5, 748320, Note_off_c, 6, 40, 95
5, 753600, Note_on_c, 6, 31, 95
5, 755040, Note_off_c, 6, 31, 95
5, 755040, Note_on_c, 6, 33, 95
5, 756480, Note_off_c, 6, 33, 95
5, 756480, Note_on_c, 6, 34, 95
5, 757440, Note_off_c, 6, 34, 95
5, 759360, Note_on_c, 6, 31, 95
5, 761280, Note_off_c, 6, 31, 95
5, 761280, Note_on_c, 6, 38, 95
5, 762720, Note_off_c, 6, 38, 95
5, 762720, Note_on_c, 6, 37, 95
5, 763680, Note_off_c, 6, 37, 95
5, 768960, Note_on_c, 6, 31, 95
5, 770400, Note_off_c, 6, 31, 95
5, 770400, Note_on_c, 6, 33, 95
5, 771840, Note_off_c, 6, 33, 95
5, 771840, Note_on_c, 6, 34, 95
5, 774720, Note_off_c, 6, 34, 95
5, 774720, Note_on_c, 6, 29, 95
5, 775680, Note_off_c, 6, 29, 95
5, 775680, Note_on_c, 6, 28, 95
5, 776640, Note_off_c, 6, 28, 95
5, 776640, Note_on_c, 6, 38, 95
5, 778080, Note_off_c, 6, 38, 95
5, 778080, Note_on_c, 6, 41, 95
5, 779520, Note_off_c, 6, 41, 95
5, 779520, Note_on_c, 6, 36, 95
5, 780480, Note_off_c, 6, 36, 95
5, 780480, Note_on_c, 6, 38, 95
5, 781920, Note_off_c, 6, 38, 95
5, 781920, Note_on_c, 6, 41, 95
5, 782880, Note_off_c, 6, 41, 95
5, 782880, Note_on_c, 6, 40, 95
5, 783840, Note_off_c, 6, 40, 95
5, 783840, Note_on_c, 6, 38, 95
5, 785280, Note_off_c, 6, 38, 95
5, 785280, Note_on_c, 6, 41, 95
5, 786720, Note_off_c, 6, 41, 95
5, 786720, Note_on_c, 6, 36, 95
5, 787680, Note_off_c, 6, 36, 95
5, 787680, Note_on_c, 6, 34, 95
5, 789120, Note_off_c, 6, 34, 95
5, 789120, Note_on_c, 6, 31, 95
5, 790560, Note_off_c, 6, 31, 95
5, 790560, Note_on_c, 6, 33, 95
5, 791520, Note_off_c, 6, 33, 95
5, 793440, Note_on_c, 6, 41, 95
5, 794400, Note_off_c, 6, 41, 95
5, 794400, Note_on_c, 6, 36, 95
5, 795360, Note_off_c, 6, 36, 95
5, 795360, Note_on_c, 6, 38, 95
5, 796800, Note_off_c, 6, 38, 95
5, 796800, Note_on_c, 6, 41, 95
5, 797760, Note_off_c, 6, 41, 95
5, 797760, Note_on_c, 6, 40, 95
5, 799200, Note_off_c, 6, 40, 95
5, 799200, Note_on_c, 6, 38, 95
5, 800640, Note_off_c, 6, 38, 95
5, 800640, Note_on_c, 6, 41, 95
5, 802080, Note_off_c, 6, 41, 95
5, 802080, Note_on_c, 6, 36, 95
5, 803040, Note_off_c, 6, 36, 95
5, 803040, Note_on_c, 6, 34, 95
5, 804480, Note_off_c, 6, 34, 95
5, 804480, Note_on_c, 6, 31, 95
5, 805920, Note_off_c, 6, 31, 95
5, 805920, Note_on_c, 6, 33, 95
5, 807360, Note_off_c, 6, 33, 95
5, 807360, Note_on_c, 6, 36, 95
5, 808800, Note_off_c, 6, 36, 95
5, 808800, Note_on_c, 6, 31, 95
5, 809760, Note_off_c, 6, 31, 95
5, 809760, Note_on_c, 6, 33, 95
5, 811200, Note_off_c, 6, 33, 95
5, 811200, Note_on_c, 6, 36, 95
5, 812160, Note_off_c, 6, 36, 95
5, 812160, Note_on_c, 6, 34, 95
5, 813120, Note_off_c, 6, 34, 95
5, 813120, Note_on_c, 6, 33, 95
5, 814560, Note_off_c, 6, 33, 95
5, 814560, Note_on_c, 6, 36, 95
5, 816000, Note_off_c, 6, 36, 95
5, 816000, Note_on_c, 6, 31, 95
5, 816960, Note_off_c, 6, 31, 95
5, 816960, Note_on_c, 6, 29, 95
5, 818400, Note_off_c, 6, 29, 95
5, 818400, Note_on_c, 6, 28, 95
5, 819840, Note_off_c, 6, 28, 95
5, 819840, Note_on_c, 6, 31, 95
5, 821280, Note_off_c, 6, 31, 95
5, 821280, Note_on_c, 6, 33, 95
5, 822720, Note_off_c, 6, 33, 95
5, 822720, Note_on_c, 6, 36, 95
5, 823680, Note_off_c, 6, 36, 95
5, 823680, Note_on_c, 6, 31, 95
5, 824640, Note_off_c, 6, 31, 95
5, 824640, Note_on_c, 6, 33, 95
5, 826080, Note_off_c, 6, 33, 95
5, 826080, Note_on_c, 6, 36, 95
5, 827520, Note_off_c, 6, 36, 95
5, 827520, Note_on_c, 6, 34, 95
5, 828960, Note_off_c, 6, 34, 95
5, 828960, Note_on_c, 6, 33, 95
5, 830400, Note_off_c, 6, 33, 95
5, 832800, Note_on_c, 6, 29, 95
5, 834240, Note_off_c, 6, 29, 95
5, 834240, Note_on_c, 6, 28, 95
5, 835200, Note_off_c, 6, 28, 95
5, 835200, Note_on_c, 6, 38, 95
5, 836640, Note_off_c, 6, 38, 95
5, 836640, Note_on_c, 6, 41, 95
5, 838080, Note_off_c, 6, 41, 95
5, 838080, Note_on_c, 6, 36, 95
5, 839040, Note_off_c, 6, 36, 95
5, 839040, Note_on_c, 6, 38, 95
5, 840480, Note_off_c, 6, 38, 95
5, 840480, Note_on_c, 6, 41, 95
5, 841440, Note_off_c, 6, 41, 95
5, 841440, Note_on_c, 6, 40, 95
5, 842400, Note_off_c, 6, 40, 95
5, 842400, Note_on_c, 6, 38, 95
5, 843840, Note_off_c, 6, 38, 95
5, 843840, Note_on_c, 6, 41, 95
5, 845280, Note_off_c, 6, 41, 95
5, 845280, Note_on_c, 6, 36, 95
5, 846240, Note_off_c, 6, 36, 95
5, 846240, Note_on_c, 6, 34, 95
5, 847680, Note_off_c, 6, 34, 95
5, 847680, Note_on_c, 6, 31, 95
5, 849120, Note_off_c, 6, 31, 95
5, 849120, Note_on_c, 6, 33, 95
5, 850560, Note_off_c, 6, 33, 95
5, 850560, Note_on_c, 6, 38, 95
5, 852000, Note_off_c, 6, 38, 95
5, 852000, Note_on_c, 6, 41, 95
5, 852960, Note_off_c, 6, 41, 95
5, 852960, Note_on_c, 6, 36, 95
5, 853920, Note_off_c, 6, 36, 95
5, 853920, Note_on_c, 6, 38, 95
5, 855360, Note_off_c, 6, 38, 95
5, 855360, Note_on_c, 6, 41, 95
5, 856320, Note_off_c, 6, 41, 95
5, 856320, Note_on_c, 6, 40, 95
5, 857760, Note_off_c, 6, 40, 95
5, 857760, Note_on_c, 6, 38, 95
5, 859200, Note_off_c, 6, 38, 95
5, 859200, Note_on_c, 6, 41, 95
5, 860640, Note_off_c, 6, 41, 95
5, 860640, Note_on_c, 6, 36, 95
5, 861600, Note_off_c, 6, 36, 95
5, 861600, Note_on_c, 6, 34, 95
5, 863040, Note_off_c, 6, 34, 95
5, 863040, Note_on_c, 6, 31, 95
5, 864480, Note_off_c, 6, 31, 95
5, 864480, Note_on_c, 6, 33, 95
5, 864720, Note_off_c, 6, 33, 95
5, 864720, Note_on_c, 6, 45, 95
5, 864960, Note_off_c, 6, 45, 95
5, 864960, Note_on_c, 6, 33, 95
5, 865200, Note_off_c, 6, 33, 95
5, 865200, Note_on_c, 6, 33, 95
5, 865440, Note_off_c, 6, 33, 95
5, 865440, Note_on_c, 6, 45, 95
5, 865680, Note_off_c, 6, 45, 95
5, 865680, Note_on_c, 6, 33, 95
5, 865920, Note_off_c, 6, 33, 95
5, 865920, Note_on_c, 6, 33, 95
5, 866160, Note_off_c, 6, 33, 95
5, 866160, Note_on_c, 6, 33, 95
5, 866400, Note_off_c, 6, 33, 95
5, 866400, Note_on_c, 6, 33, 95
5, 866640, Note_off_c, 6, 33, 95
5, 866640, Note_on_c, 6, 45, 95
5, 866880, Note_off_c, 6, 45, 95
5, 866880, Note_on_c, 6, 33, 95
5, 867120, Note_off_c, 6, 33, 95
5, 867120, Note_on_c, 6, 33, 95
5, 867360, Note_off_c, 6, 33, 95
5, 867360, Note_on_c, 6, 45, 95
5, 867600, Note_off_c, 6, 45, 95
5, 868320, Note_on_c, 6, 33, 95
5, 868560, Note_off_c, 6, 33, 95
5, 868560, Note_on_c, 6, 45, 95
5, 868800, Note_off_c, 6, 45, 95
5, 868800, Note_on_c, 6, 33, 95
5, 869040, Note_off_c, 6, 33, 95
5, 869040, Note_on_c, 6, 33, 95
5, 869280, Note_off_c, 6, 33, 95
5, 869280, Note_on_c, 6, 45, 95
5, 869520, Note_off_c, 6, 45, 95
5, 869520, Note_on_c, 6, 33, 95
5, 869760, Note_off_c, 6, 33, 95
5, 869760, Note_on_c, 6, 33, 95
5, 870000, Note_off_c, 6, 33, 95
5, 870000, Note_on_c, 6, 33, 95
5, 870240, Note_off_c, 6, 33, 95
5, 870240, Note_on_c, 6, 33, 95
5, 870480, Note_off_c, 6, 33, 95
5, 870480, Note_on_c, 6, 45, 95
5, 870720, Note_off_c, 6, 45, 95
5, 870720, Note_on_c, 6, 33, 95
5, 870960, Note_off_c, 6, 33, 95
5, 870960, Note_on_c, 6, 33, 95
5, 871200, Note_off_c, 6, 33, 95
5, 871200, Note_on_c, 6, 46, 95
5, 871440, Note_off_c, 6, 46, 95
5, 871440, Note_on_c, 6, 45, 95
5, 871680, Note_off_c, 6, 45, 95
5, 871680, Note_on_c, 6, 43, 95
5, 871920, Note_off_c, 6, 43, 95
5, 871920, Note_on_c, 6, 40, 95
5, 872160, Note_off_c, 6, 40, 95
5, 872160, Note_on_c, 6, 33, 95
5, 872400, Note_off_c, 6, 33, 95
5, 872400, Note_on_c, 6, 45, 95
5, 872640, Note_off_c, 6, 45, 95
5, 872640, Note_on_c, 6, 33, 95
5, 872880, Note_off_c, 6, 33, 95
5, 872880, Note_on_c, 6, 33, 95
5, 873120, Note_off_c, 6, 33, 95
5, 873120, Note_on_c, 6, 33, 95
5, 873360, Note_off_c, 6, 33, 95
5, 873360, Note_on_c, 6, 45, 95
5, 873600, Note_off_c, 6, 45, 95
5, 873600, Note_on_c, 6, 33, 95
5, 873840, Note_off_c, 6, 33, 95
5, 873840, Note_on_c, 6, 33, 95
5, 874080, Note_off_c, 6, 33, 95
5, 874080, Note_on_c, 6, 33, 95
5, 874320, Note_off_c, 6, 33, 95
5, 874320, Note_on_c, 6, 33, 95
5, 874560, Note_off_c, 6, 33, 95
5, 874560, Note_on_c, 6, 45, 95
5, 874800, Note_off_c, 6, 45, 95
5, 874800, Note_on_c, 6, 33, 95
5, 875040, Note_off_c, 6, 33, 95
5, 875040, Note_on_c, 6, 33, 95
5, 875280, Note_off_c, 6, 33, 95
5, 876000, Note_on_c, 6, 33, 95
5, 876240, Note_off_c, 6, 33, 95
5, 876240, Note_on_c, 6, 45, 95
5, 876480, Note_off_c, 6, 45, 95
5, 876480, Note_on_c, 6, 33, 95
5, 876720, Note_off_c, 6, 33, 95
5, 876720, Note_on_c, 6, 33, 95
5, 876960, Note_off_c, 6, 33, 95
5, 876960, Note_on_c, 6, 45, 95
5, 877200, Note_off_c, 6, 45, 95
5, 877200, Note_on_c, 6, 33, 95
5, 877440, Note_off_c, 6, 33, 95
5, 877440, Note_on_c, 6, 33, 95
5, 877680, Note_off_c, 6, 33, 95
5, 877680, Note_on_c, 6, 33, 95
5, 877920, Note_off_c, 6, 33, 95
5, 877920, Note_on_c, 6, 33, 95
5, 878160, Note_off_c, 6, 33, 95
5, 878160, Note_on_c, 6, 45, 95
5, 878400, Note_off_c, 6, 45, 95
5, 878400, Note_on_c, 6, 33, 95
5, 878640, Note_off_c, 6, 33, 95
5, 878640, Note_on_c, 6, 33, 95
5, 878880, Note_off_c, 6, 33, 95
5, 878880, Note_on_c, 6, 50, 95
5, 879120, Note_off_c, 6, 50, 95
5, 879120, Note_on_c, 6, 49, 95
5, 879360, Note_off_c, 6, 49, 95
5, 879360, Note_on_c, 6, 45, 95
5, 879600, Note_off_c, 6, 45, 95
5, 879600, Note_on_c, 6, 43, 95
5, 879840, Note_off_c, 6, 43, 95
5, 879840, Note_on_c, 6, 33, 95
5, 880080, Note_off_c, 6, 33, 95
5, 880080, Note_on_c, 6, 45, 95
5, 880320, Note_off_c, 6, 45, 95
5, 880320, Note_on_c, 6, 43, 95
5, 880560, Note_off_c, 6, 43, 95
5, 880560, Note_on_c, 6, 40, 95
5, 880800, Note_off_c, 6, 40, 95
5, 880800, Note_on_c, 6, 45, 95
5, 881040, Note_off_c, 6, 45, 95
5, 881040, Note_on_c, 6, 43, 95
5, 881280, Note_off_c, 6, 43, 95
5, 881280, Note_on_c, 6, 40, 95
5, 881520, Note_off_c, 6, 40, 95
5, 881520, Note_on_c, 6, 38, 95
5, 881760, Note_off_c, 6, 38, 95
5, 881760, Note_on_c, 6, 33, 95
5, 882000, Note_off_c, 6, 33, 95
5, 882000, Note_on_c, 6, 45, 95
5, 882240, Note_off_c, 6, 45, 95
5, 882240, Note_on_c, 6, 43, 95
5, 882480, Note_off_c, 6, 43, 95
5, 882480, Note_on_c, 6, 40, 95
5, 882720, Note_off_c, 6, 40, 95
5, 882720, Note_on_c, 6, 45, 95
5, 882960, Note_off_c, 6, 45, 95
5, 883680, Note_on_c, 6, 33, 95
5, 883920, Note_off_c, 6, 33, 95
5, 883920, Note_on_c, 6, 45, 95
5, 884160, Note_off_c, 6, 45, 95
5, 884160, Note_on_c, 6, 43, 95
5, 884400, Note_off_c, 6, 43, 95
5, 884400, Note_on_c, 6, 40, 95
5, 884640, Note_off_c, 6, 40, 95
5, 884640, Note_on_c, 6, 45, 95
5, 884880, Note_off_c, 6, 45, 95
5, 884880, Note_on_c, 6, 43, 95
5, 885120, Note_off_c, 6, 43, 95
5, 885120, Note_on_c, 6, 40, 95
5, 885360, Note_off_c, 6, 40, 95
5, 885360, Note_on_c, 6, 38, 95
5, 885600, Note_off_c, 6, 38, 95
5, 885600, Note_on_c, 6, 33, 95
5, 885840, Note_off_c, 6, 33, 95
5, 885840, Note_on_c, 6, 45, 95
5, 886080, Note_off_c, 6, 45, 95
5, 886080, Note_on_c, 6, 43, 95
5, 886320, Note_off_c, 6, 43, 95
5, 886320, Note_on_c, 6, 40, 95
5, 886560, Note_off_c, 6, 40, 95
5, 886560, Note_on_c, 6, 46, 95
5, 886800, Note_off_c, 6, 46, 95
5, 886800, Note_on_c, 6, 45, 95
5, 887040, Note_off_c, 6, 45, 95
5, 887040, Note_on_c, 6, 43, 95
5, 887280, Note_off_c, 6, 43, 95
5, 887280, Note_on_c, 6, 40, 95
5, 887520, Note_off_c, 6, 40, 95
5, 887520, Note_on_c, 6, 33, 95
5, 887760, Note_off_c, 6, 33, 95
5, 887760, Note_on_c, 6, 45, 95
5, 888000, Note_off_c, 6, 45, 95
5, 888000, Note_on_c, 6, 43, 95
5, 888240, Note_off_c, 6, 43, 95
5, 888240, Note_on_c, 6, 40, 95
5, 888480, Note_off_c, 6, 40, 95
5, 888480, Note_on_c, 6, 45, 95
5, 888720, Note_off_c, 6, 45, 95
5, 888720, Note_on_c, 6, 43, 95
5, 888960, Note_off_c, 6, 43, 95
5, 888960, Note_on_c, 6, 40, 95
5, 889200, Note_off_c, 6, 40, 95
5, 889200, Note_on_c, 6, 38, 95
5, 889440, Note_off_c, 6, 38, 95
5, 889440, Note_on_c, 6, 33, 95
5, 889680, Note_off_c, 6, 33, 95
5, 889680, Note_on_c, 6, 45, 95
5, 889920, Note_off_c, 6, 45, 95
5, 889920, Note_on_c, 6, 43, 95
5, 890160, Note_off_c, 6, 43, 95
5, 890160, Note_on_c, 6, 40, 95
5, 890400, Note_off_c, 6, 40, 95
5, 890400, Note_on_c, 6, 45, 95
5, 890640, Note_off_c, 6, 45, 95
5, 891360, Note_on_c, 6, 33, 95
5, 891600, Note_off_c, 6, 33, 95
5, 891600, Note_on_c, 6, 45, 95
5, 891840, Note_off_c, 6, 45, 95
5, 891840, Note_on_c, 6, 43, 95
5, 892080, Note_off_c, 6, 43, 95
5, 892080, Note_on_c, 6, 40, 95
5, 892320, Note_off_c, 6, 40, 95
5, 892320, Note_on_c, 6, 45, 95
5, 892560, Note_off_c, 6, 45, 95
5, 892560, Note_on_c, 6, 43, 95
5, 892800, Note_off_c, 6, 43, 95
5, 892800, Note_on_c, 6, 40, 95
5, 893040, Note_off_c, 6, 40, 95
5, 893040, Note_on_c, 6, 38, 95
5, 893280, Note_off_c, 6, 38, 95
5, 893280, Note_on_c, 6, 33, 95
5, 893520, Note_off_c, 6, 33, 95
5, 893520, Note_on_c, 6, 55, 95
5, 893760, Note_off_c, 6, 55, 95
5, 893760, Note_on_c, 6, 52, 95
5, 894000, Note_off_c, 6, 52, 95
5, 894000, Note_on_c, 6, 50, 95
5, 894240, Note_off_c, 6, 50, 95
5, 894240, Note_on_c, 6, 49, 95
5, 894480, Note_off_c, 6, 49, 95
5, 894480, Note_on_c, 6, 45, 95
5, 894720, Note_off_c, 6, 45, 95
5, 894720, Note_on_c, 6, 43, 95
5, 894960, Note_off_c, 6, 43, 95
5, 894960, Note_on_c, 6, 40, 95
5, 895200, Note_off_c, 6, 40, 95
5, 895200, Note_on_c, 6, 38, 95
5, 896640, Note_off_c, 6, 38, 95
5, 896640, Note_on_c, 6, 41, 95
5, 898080, Note_off_c, 6, 41, 95
5, 898080, Note_on_c, 6, 36, 95
5, 899040, Note_off_c, 6, 36, 95
5, 899040, Note_on_c, 6, 38, 95
5, 900480, Note_off_c, 6, 38, 95
5, 900480, Note_on_c, 6, 41, 95
5, 901920, Note_off_c, 6, 41, 95
5, 901920, Note_on_c, 6, 40, 95
5, 902880, Note_off_c, 6, 40, 95
5, 902880, Note_on_c, 6, 38, 95
5, 904320, Note_off_c, 6, 38, 95
5, 904320, Note_on_c, 6, 41, 95
5, 905760, Note_off_c, 6, 41, 95
5, 905760, Note_on_c, 6, 36, 95
5, 906720, Note_off_c, 6, 36, 95
5, 906720, Note_on_c, 6, 34, 95
5, 908160, Note_off_c, 6, 34, 95
5, 908160, Note_on_c, 6, 31, 95
5, 909600, Note_off_c, 6, 31, 95
5, 909600, Note_on_c, 6, 33, 95
5, 910560, Note_off_c, 6, 33, 95
5, 910560, Note_on_c, 6, 38, 95
5, 912000, Note_off_c, 6, 38, 95
5, 912000, Note_on_c, 6, 41, 95
5, 913440, Note_off_c, 6, 41, 95
5, 913440, Note_on_c, 6, 36, 95
5, 914400, Note_off_c, 6, 36, 95
5, 914400, Note_on_c, 6, 38, 95
5, 915840, Note_off_c, 6, 38, 95
5, 915840, Note_on_c, 6, 41, 95
5, 917280, Note_off_c, 6, 41, 95
5, 917280, Note_on_c, 6, 40, 95
5, 918240, Note_off_c, 6, 40, 95
5, 918240, Note_on_c, 6, 38, 95
5, 919680, Note_off_c, 6, 38, 95
5, 919680, Note_on_c, 6, 41, 95
5, 921120, Note_off_c, 6, 41, 95
5, 921120, Note_on_c, 6, 36, 95
5, 922080, Note_off_c, 6, 36, 95
5, 922080, Note_on_c, 6, 34, 95
5, 923520, Note_off_c, 6, 34, 95
5, 923520, Note_on_c, 6, 36, 95
5, 924960, Note_off_c, 6, 36, 95
5, 924960, Note_on_c, 6, 33, 95
5, 925920, Note_off_c, 6, 33, 95
5, 925920, Note_on_c, 6, 38, 95
5, 927360, Note_off_c, 6, 38, 95
5, 927360, Note_on_c, 6, 41, 95
5, 928800, Note_off_c, 6, 41, 95
5, 928800, Note_on_c, 6, 36, 95
5, 929760, Note_off_c, 6, 36, 95
5, 929760, Note_on_c, 6, 38, 95
5, 931200, Note_off_c, 6, 38, 95
5, 931200, Note_on_c, 6, 41, 95
5, 932640, Note_off_c, 6, 41, 95
5, 932640, Note_on_c, 6, 40, 95
5, 933600, Note_off_c, 6, 40, 95
5, 933600, Note_on_c, 6, 38, 95
5, 935040, Note_off_c, 6, 38, 95
5, 935040, Note_on_c, 6, 41, 95
5, 936480, Note_off_c, 6, 41, 95
5, 936480, Note_on_c, 6, 36, 95
5, 937440, Note_off_c, 6, 36, 95
5, 937440, Note_on_c, 6, 34, 95
5, 938880, Note_off_c, 6, 34, 95
5, 938880, Note_on_c, 6, 31, 95
5, 940320, Note_off_c, 6, 31, 95
5, 940320, Note_on_c, 6, 33, 95
5, 941280, Note_off_c, 6, 33, 95
5, 941280, Note_on_c, 6, 38, 95
5, 942720, Note_off_c, 6, 38, 95
5, 942720, Note_on_c, 6, 41, 95
5, 944160, Note_off_c, 6, 41, 95
5, 944160, Note_on_c, 6, 36, 95
5, 945120, Note_off_c, 6, 36, 95
5, 945120, Note_on_c, 6, 38, 95
5, 946560, Note_off_c, 6, 38, 95
5, 946560, Note_on_c, 6, 41, 95
5, 948000, Note_off_c, 6, 41, 95
5, 948000, Note_on_c, 6, 40, 95
5, 948960, Note_off_c, 6, 40, 95
5, 948960, Note_on_c, 6, 38, 95
5, 950400, Note_off_c, 6, 38, 95
5, 950400, Note_on_c, 6, 41, 95
5, 951840, Note_off_c, 6, 41, 95
5, 951840, Note_on_c, 6, 36, 95
5, 952800, Note_off_c, 6, 36, 95
5, 952800, Note_on_c, 6, 34, 95
5, 954240, Note_off_c, 6, 34, 95
5, 954240, Note_on_c, 6, 36, 95
5, 955680, Note_off_c, 6, 36, 95
5, 955680, Note_on_c, 6, 33, 95
5, 956640, Note_off_c, 6, 33, 95
5, 956640, Note_on_c, 6, 33, 95
5, 956880, Note_off_c, 6, 33, 95
5, 956880, Note_on_c, 6, 45, 95
5, 957120, Note_off_c, 6, 45, 95
5, 957120, Note_on_c, 6, 33, 95
5, 957360, Note_off_c, 6, 33, 95
5, 957360, Note_on_c, 6, 33, 95
5, 957600, Note_off_c, 6, 33, 95
5, 957600, Note_on_c, 6, 45, 95
5, 957840, Note_off_c, 6, 45, 95
5, 957840, Note_on_c, 6, 33, 95
5, 958080, Note_off_c, 6, 33, 95
5, 958080, Note_on_c, 6, 33, 95
5, 958320, Note_off_c, 6, 33, 95
5, 958320, Note_on_c, 6, 33, 95
5, 958560, Note_off_c, 6, 33, 95
5, 958560, Note_on_c, 6, 33, 95
5, 958800, Note_off_c, 6, 33, 95
5, 958800, Note_on_c, 6, 45, 95
5, 959040, Note_off_c, 6, 45, 95
5, 959040, Note_on_c, 6, 33, 95
5, 959280, Note_off_c, 6, 33, 95
5, 959280, Note_on_c, 6, 33, 95
5, 959520, Note_off_c, 6, 33, 95
5, 959520, Note_on_c, 6, 45, 95
5, 959760, Note_off_c, 6, 45, 95
5, 960480, Note_on_c, 6, 33, 95
5, 960720, Note_off_c, 6, 33, 95
5, 960720, Note_on_c, 6, 45, 95
5, 960960, Note_off_c, 6, 45, 95
5, 960960, Note_on_c, 6, 33, 95
5, 961200, Note_off_c, 6, 33, 95
5, 961200, Note_on_c, 6, 33, 95
5, 961440, Note_off_c, 6, 33, 95
5, 961440, Note_on_c, 6, 45, 95
5, 961680, Note_off_c, 6, 45, 95
5, 961680, Note_on_c, 6, 33, 95
5, 961920, Note_off_c, 6, 33, 95
5, 961920, Note_on_c, 6, 33, 95
5, 962160, Note_off_c, 6, 33, 95
5, 962160, Note_on_c, 6, 33, 95
5, 962400, Note_off_c, 6, 33, 95
5, 962400, Note_on_c, 6, 33, 95
5, 962640, Note_off_c, 6, 33, 95
5, 962640, Note_on_c, 6, 45, 95
5, 962880, Note_off_c, 6, 45, 95
5, 962880, Note_on_c, 6, 33, 95
5, 963120, Note_off_c, 6, 33, 95
5, 963120, Note_on_c, 6, 33, 95
5, 963360, Note_off_c, 6, 33, 95
5, 963360, Note_on_c, 6, 46, 95
5, 963600, Note_off_c, 6, 46, 95
5, 963600, Note_on_c, 6, 45, 95
5, 963840, Note_off_c, 6, 45, 95
5, 963840, Note_on_c, 6, 43, 95
5, 964080, Note_off_c, 6, 43, 95
5, 964080, Note_on_c, 6, 40, 95
5, 964320, Note_off_c, 6, 40, 95
5, 964320, Note_on_c, 6, 33, 95
5, 964560, Note_off_c, 6, 33, 95
5, 964560, Note_on_c, 6, 45, 95
5, 964800, Note_off_c, 6, 45, 95
5, 964800, Note_on_c, 6, 33, 95
5, 965040, Note_off_c, 6, 33, 95
5, 965040, Note_on_c, 6, 33, 95
5, 965280, Note_off_c, 6, 33, 95
5, 965280, Note_on_c, 6, 33, 95
5, 965520, Note_off_c, 6, 33, 95
5, 965520, Note_on_c, 6, 45, 95
5, 965760, Note_off_c, 6, 45, 95
5, 965760, Note_on_c, 6, 33, 95
5, 966000, Note_off_c, 6, 33, 95
5, 966000, Note_on_c, 6, 33, 95
5, 966240, Note_off_c, 6, 33, 95
5, 966240, Note_on_c, 6, 33, 95
5, 966480, Note_off_c, 6, 33, 95
5, 966480, Note_on_c, 6, 33, 95
5, 966720, Note_off_c, 6, 33, 95
5, 966720, Note_on_c, 6, 45, 95
5, 966960, Note_off_c, 6, 45, 95
5, 966960, Note_on_c, 6, 33, 95
5, 967200, Note_off_c, 6, 33, 95
5, 967200, Note_on_c, 6, 33, 95
5, 967440, Note_off_c, 6, 33, 95
5, 968160, Note_on_c, 6, 33, 95
5, 968400, Note_off_c, 6, 33, 95
5, 968400, Note_on_c, 6, 45, 95
5, 968640, Note_off_c, 6, 45, 95
5, 968640, Note_on_c, 6, 33, 95
5, 968880, Note_off_c, 6, 33, 95
5, 968880, Note_on_c, 6, 33, 95
5, 969120, Note_off_c, 6, 33, 95
5, 969120, Note_on_c, 6, 45, 95
5, 969360, Note_off_c, 6, 45, 95
5, 969360, Note_on_c, 6, 33, 95
5, 969600, Note_off_c, 6, 33, 95
5, 969600, Note_on_c, 6, 33, 95
5, 969840, Note_off_c, 6, 33, 95
5, 969840, Note_on_c, 6, 33, 95
5, 970080, Note_off_c, 6, 33, 95
5, 970080, Note_on_c, 6, 33, 95
5, 970320, Note_off_c, 6, 33, 95
5, 970320, Note_on_c, 6, 45, 95
5, 970560, Note_off_c, 6, 45, 95
5, 970560, Note_on_c, 6, 33, 95
5, 970800, Note_off_c, 6, 33, 95
5, 970800, Note_on_c, 6, 33, 95
5, 971040, Note_off_c, 6, 33, 95
5, 971040, Note_on_c, 6, 50, 95
5, 971280, Note_off_c, 6, 50, 95
5, 971280, Note_on_c, 6, 49, 95
5, 971520, Note_off_c, 6, 49, 95
5, 971520, Note_on_c, 6, 45, 95
5, 971760, Note_off_c, 6, 45, 95
5, 971760, Note_on_c, 6, 43, 95
5, 972000, Note_off_c, 6, 43, 95
5, 972000, Note_on_c, 6, 33, 95
5, 972240, Note_off_c, 6, 33, 95
5, 972240, Note_on_c, 6, 45, 95
5, 972480, Note_off_c, 6, 45, 95
5, 972480, Note_on_c, 6, 43, 95
5, 972720, Note_off_c, 6, 43, 95
5, 972720, Note_on_c, 6, 40, 95
5, 972960, Note_off_c, 6, 40, 95
5, 972960, Note_on_c, 6, 45, 95
5, 973200, Note_off_c, 6, 45, 95
5, 973200, Note_on_c, 6, 43, 95
5, 973440, Note_off_c, 6, 43, 95
5, 973440, Note_on_c, 6, 40, 95
5, 973680, Note_off_c, 6, 40, 95
5, 973680, Note_on_c, 6, 38, 95
5, 973920, Note_off_c, 6, 38, 95
5, 973920, Note_on_c, 6, 33, 95
5, 974160, Note_off_c, 6, 33, 95
5, 974160, Note_on_c, 6, 45, 95
5, 974400, Note_off_c, 6, 45, 95
5, 974400, Note_on_c, 6, 43, 95
5, 974640, Note_off_c, 6, 43, 95
5, 974640, Note_on_c, 6, 40, 95
5, 974880, Note_off_c, 6, 40, 95
5, 974880, Note_on_c, 6, 45, 95
5, 975120, Note_off_c, 6, 45, 95
5, 975840, Note_on_c, 6, 33, 95
5, 976080, Note_off_c, 6, 33, 95
5, 976080, Note_on_c, 6, 45, 95
5, 976320, Note_off_c, 6, 45, 95
5, 976320, Note_on_c, 6, 43, 95
5, 976560, Note_off_c, 6, 43, 95
5, 976560, Note_on_c, 6, 40, 95
5, 976800, Note_off_c, 6, 40, 95
5, 976800, Note_on_c, 6, 45, 95
5, 977040, Note_off_c, 6, 45, 95
5, 977040, Note_on_c, 6, 43, 95
5, 977280, Note_off_c, 6, 43, 95
5, 977280, Note_on_c, 6, 40, 95
5, 977520, Note_off_c, 6, 40, 95
5, 977520, Note_on_c, 6, 38, 95
5, 977760, Note_off_c, 6, 38, 95
5, 977760, Note_on_c, 6, 33, 95
5, 978000, Note_off_c, 6, 33, 95
5, 978000, Note_on_c, 6, 45, 95
5, 978240, Note_off_c, 6, 45, 95
5, 978240, Note_on_c, 6, 43, 95
5, 978480, Note_off_c, 6, 43, 95
5, 978480, Note_on_c, 6, 40, 95
5, 978720, Note_off_c, 6, 40, 95
5, 978720, Note_on_c, 6, 46, 95
5, 978960, Note_off_c, 6, 46, 95
5, 978960, Note_on_c, 6, 45, 95
5, 979200, Note_off_c, 6, 45, 95
5, 979200, Note_on_c, 6, 43, 95
5, 979440, Note_off_c, 6, 43, 95
5, 979440, Note_on_c, 6, 40, 95
5, 979680, Note_off_c, 6, 40, 95
5, 979680, Note_on_c, 6, 33, 95
5, 979920, Note_off_c, 6, 33, 95
5, 979920, Note_on_c, 6, 45, 95
5, 980160, Note_off_c, 6, 45, 95
5, 980160, Note_on_c, 6, 43, 95
5, 980400, Note_off_c, 6, 43, 95
5, 980400, Note_on_c, 6, 40, 95
5, 980640, Note_off_c, 6, 40, 95
5, 980640, Note_on_c, 6, 45, 95
5, 980880, Note_off_c, 6, 45, 95
5, 980880, Note_on_c, 6, 43, 95
5, 981120, Note_off_c, 6, 43, 95
5, 981120, Note_on_c, 6, 40, 95
5, 981360, Note_off_c, 6, 40, 95
5, 981360, Note_on_c, 6, 38, 95
5, 981600, Note_off_c, 6, 38, 95
5, 981600, Note_on_c, 6, 33, 95
5, 981840, Note_off_c, 6, 33, 95
5, 981840, Note_on_c, 6, 45, 95
5, 982080, Note_off_c, 6, 45, 95
5, 982080, Note_on_c, 6, 43, 95
5, 982320, Note_off_c, 6, 43, 95
5, 982320, Note_on_c, 6, 40, 95
5, 982560, Note_off_c, 6, 40, 95
5, 982560, Note_on_c, 6, 45, 95
5, 982800, Note_off_c, 6, 45, 95
5, 983520, Note_on_c, 6, 33, 95
5, 983760, Note_off_c, 6, 33, 95
5, 983760, Note_on_c, 6, 45, 95
5, 984000, Note_off_c, 6, 45, 95
5, 984000, Note_on_c, 6, 43, 95
5, 984240, Note_off_c, 6, 43, 95
5, 984240, Note_on_c, 6, 40, 95
5, 984480, Note_off_c, 6, 40, 95
5, 984480, Note_on_c, 6, 45, 95
5, 984720, Note_off_c, 6, 45, 95
5, 984720, Note_on_c, 6, 43, 95
5, 984960, Note_off_c, 6, 43, 95
5, 984960, Note_on_c, 6, 40, 95
5, 985200, Note_off_c, 6, 40, 95
5, 985200, Note_on_c, 6, 38, 95
5, 985440, Note_off_c, 6, 38, 95
5, 985440, Note_on_c, 6, 33, 95
5, 985680, Note_off_c, 6, 33, 95
5, 985680, Note_on_c, 6, 55, 95
5, 985920, Note_off_c, 6, 55, 95
5, 985920, Note_on_c, 6, 52, 95
5, 986160, Note_off_c, 6, 52, 95
5, 986160, Note_on_c, 6, 50, 95
5, 986400, Note_off_c, 6, 50, 95
5, 986400, Note_on_c, 6, 49, 95
5, 986640, Note_off_c, 6, 49, 95
5, 986640, Note_on_c, 6, 45, 95
5, 986880, Note_off_c, 6, 45, 95
5, 986880, Note_on_c, 6, 43, 95
5, 987120, Note_off_c, 6, 43, 95
5, 987120, Note_on_c, 6, 40, 95
5, 987360, Note_off_c, 6, 40, 95
5, 987360, Note_on_c, 6, 38, 95
5, 988800, Note_off_c, 6, 38, 95
5, 988800, Note_on_c, 6, 41, 95
5, 990240, Note_off_c, 6, 41, 95
5, 990240, Note_on_c, 6, 36, 95
5, 991200, Note_off_c, 6, 36, 95
5, 991200, Note_on_c, 6, 38, 95
5, 992640, Note_off_c, 6, 38, 95
5, 992640, Note_on_c, 6, 41, 95
5, 994080, Note_off_c, 6, 41, 95
5, 994080, Note_on_c, 6, 40, 95
5, 995040, Note_off_c, 6, 40, 95
5, 995040, Note_on_c, 6, 38, 95
5, 996480, Note_off_c, 6, 38, 95
5, 996480, Note_on_c, 6, 41, 95
5, 997920, Note_off_c, 6, 41, 95
5, 997920, Note_on_c, 6, 36, 95
5, 998880, Note_off_c, 6, 36, 95
5, 998880, Note_on_c, 6, 34, 95
5, 1000320, Note_off_c, 6, 34, 95
5, 1000320, Note_on_c, 6, 31, 95
5, 1001760, Note_off_c, 6, 31, 95
5, 1001760, Note_on_c, 6, 33, 95
5, 1002720, Note_off_c, 6, 33, 95
5, 1002720, Note_on_c, 6, 38, 95
5, 1004160, Note_off_c, 6, 38, 95
5, 1004160, Note_on_c, 6, 41, 95
5, 1005600, Note_off_c, 6, 41, 95
5, 1005600, Note_on_c, 6, 36, 95
5, 1006560, Note_off_c, 6, 36, 95
5, 1006560, Note_on_c, 6, 38, 95
5, 1008000, Note_off_c, 6, 38, 95
5, 1008000, Note_on_c, 6, 41, 95
5, 1009440, Note_off_c, 6, 41, 95
5, 1009440, Note_on_c, 6, 40, 95
5, 1010400, Note_off_c, 6, 40, 95
5, 1010400, Note_on_c, 6, 38, 95
5, 1011840, Note_off_c, 6, 38, 95
5, 1011840, Note_on_c, 6, 41, 95
5, 1013280, Note_off_c, 6, 41, 95
5, 1013280, Note_on_c, 6, 36, 95
5, 1014240, Note_off_c, 6, 36, 95
5, 1014240, Note_on_c, 6, 34, 95
5, 1015680, Note_off_c, 6, 34, 95
5, 1015680, Note_on_c, 6, 36, 95
5, 1017120, Note_off_c, 6, 36, 95
5, 1017120, Note_on_c, 6, 31, 95
5, 1018080, Note_off_c, 6, 31, 95
5, 1018080, Note_on_c, 6, 38, 95
5, 1019520, Note_off_c, 6, 38, 95
5, 1019520, Note_on_c, 6, 41, 95
5, 1020960, Note_off_c, 6, 41, 95
5, 1020960, Note_on_c, 6, 36, 95
5, 1021920, Note_off_c, 6, 36, 95
5, 1021920, Note_on_c, 6, 38, 95
5, 1023360, Note_off_c, 6, 38, 95
5, 1023360, Note_on_c, 6, 41, 95
5, 1024800, Note_off_c, 6, 41, 95
5, 1024800, Note_on_c, 6, 40, 95
5, 1025760, Note_off_c, 6, 40, 95
5, 1025760, Note_on_c, 6, 38, 95
5, 1027200, Note_off_c, 6, 38, 95
5, 1027200, Note_on_c, 6, 41, 95
5, 1028640, Note_off_c, 6, 41, 95
5, 1028640, Note_on_c, 6, 36, 95
5, 1029600, Note_off_c, 6, 36, 95
5, 1029600, Note_on_c, 6, 34, 95
5, 1031040, Note_off_c, 6, 34, 95
5, 1031040, Note_on_c, 6, 31, 95
5, 1032480, Note_off_c, 6, 31, 95
5, 1032480, Note_on_c, 6, 33, 95
5, 1033440, Note_off_c, 6, 33, 95
5, 1033440, Note_on_c, 6, 38, 95
5, 1034880, Note_off_c, 6, 38, 95
5, 1034880, Note_on_c, 6, 41, 95
5, 1036320, Note_off_c, 6, 41, 95
5, 1036320, Note_on_c, 6, 36, 95
5, 1037280, Note_off_c, 6, 36, 95
5, 1037280, Note_on_c, 6, 38, 95
5, 1038720, Note_off_c, 6, 38, 95
5, 1038720, Note_on_c, 6, 41, 95
5, 1040160, Note_off_c, 6, 41, 95
5, 1040160, Note_on_c, 6, 40, 95
5, 1041120, Note_off_c, 6, 40, 95
5, 1041120, Note_on_c, 6, 38, 95
5, 1042560, Note_off_c, 6, 38, 95
5, 1042560, Note_on_c, 6, 41, 95
5, 1044000, Note_off_c, 6, 41, 95
5, 1044000, Note_on_c, 6, 36, 95
5, 1044960, Note_off_c, 6, 36, 95
5, 1044960, Note_on_c, 6, 34, 95
5, 1046400, Note_off_c, 6, 34, 95
5, 1046400, Note_on_c, 6, 36, 95
5, 1047840, Note_off_c, 6, 36, 95
5, 1047840, Note_on_c, 6, 31, 95
5, 1048800, Note_off_c, 6, 31, 95
5, 1048800, Note_on_c, 6, 31, 95
5, 1049280, Note_off_c, 6, 31, 95
5, 1049280, Note_on_c, 6, 33, 95
5, 1049760, Note_off_c, 6, 33, 95
5, 1049760, Note_on_c, 6, 34, 95
5, 1050240, Note_off_c, 6, 34, 95
5, 1050240, Note_on_c, 6, 38, 95
5, 1050720, Note_off_c, 6, 38, 95
5, 1050720, Note_on_c, 6, 37, 95
5, 1051200, Note_off_c, 6, 37, 95
5, 1051200, Note_on_c, 6, 33, 95
5, 1051680, Note_off_c, 6, 33, 95
5, 1053120, Note_on_c, 6, 31, 95
5, 1053600, Note_off_c, 6, 31, 95
5, 1053600, Note_on_c, 6, 33, 95
5, 1054080, Note_off_c, 6, 33, 95
5, 1054080, Note_on_c, 6, 34, 95
5, 1054560, Note_off_c, 6, 34, 95
5, 1054560, Note_on_c, 6, 38, 95
5, 1055040, Note_off_c, 6, 38, 95
5, 1055040, Note_on_c, 6, 37, 95
5, 1055520, Note_off_c, 6, 37, 95
5, 1055520, Note_on_c, 6, 41, 95
5, 1056000, Note_off_c, 6, 41, 95
5, 1056000, Note_on_c, 6, 40, 95
5, 1056960, Note_off_c, 6, 40, 95
5, 1056960, Note_on_c, 6, 31, 95
5, 1057440, Note_off_c, 6, 31, 95
5, 1057440, Note_on_c, 6, 34, 95
5, 1057920, Note_off_c, 6, 34, 95
5, 1057920, Note_on_c, 6, 38, 95
5, 1058400, Note_off_c, 6, 38, 95
5, 1058400, Note_on_c, 6, 37, 95
5, 1058880, Note_off_c, 6, 37, 95
5, 1058880, Note_on_c, 6, 33, 95
5, 1059360, Note_off_c, 6, 33, 95
5, 1059840, Note_on_c, 6, 33, 95
5, 1060320, Note_off_c, 6, 33, 95
5, 1060320, Note_on_c, 6, 34, 95
5, 1060800, Note_off_c, 6, 34, 95
5, 1060800, Note_on_c, 6, 31, 95
5, 1061280, Note_off_c, 6, 31, 95
5, 1061760, Note_on_c, 6, 29, 95
5, 1062240, Note_off_c, 6, 29, 95
5, 1062240, Note_on_c, 6, 31, 95
5, 1062720, Note_off_c, 6, 31, 95
5, 1062720, Note_on_c, 6, 28, 95
5, 1063200, Note_off_c, 6, 28, 95
5, 1064160, Note_on_c, 6, 31, 95
5, 1064640, Note_off_c, 6, 31, 95
5, 1064640, Note_on_c, 6, 33, 95
5, 1065120, Note_off_c, 6, 33, 95
5, 1065120, Note_on_c, 6, 34, 95
5, 1065600, Note_off_c, 6, 34, 95
5, 1065600, Note_on_c, 6, 38, 95
5, 1066080, Note_off_c, 6, 38, 95
5, 1066080, Note_on_c, 6, 37, 95
5, 1066560, Note_off_c, 6, 37, 95
5, 1066560, Note_on_c, 6, 33, 95
5, 1067040, Note_off_c, 6, 33, 95
5, 1068480, Note_on_c, 6, 31, 95
5, 1068960, Note_off_c, 6, 31, 95
5, 1068960, Note_on_c, 6, 33, 95
5, 1069440, Note_off_c, 6, 33, 95
5, 1069440, Note_on_c, 6, 34, 95
5, 1069920, Note_off_c, 6, 34, 95
5, 1069920, Note_on_c, 6, 38, 95
5, 1070400, Note_off_c, 6, 38, 95
5, 1070400, Note_on_c, 6, 37, 95
5, 1070880, Note_off_c, 6, 37, 95
5, 1070880, Note_on_c, 6, 41, 95
5, 1071360, Note_off_c, 6, 41, 95
5, 1071360, Note_on_c, 6, 40, 95
5, 1072320, Note_off_c, 6, 40, 95
5, 1072320, Note_on_c, 6, 31, 95
5, 1072800, Note_off_c, 6, 31, 95
5, 1072800, Note_on_c, 6, 33, 95
5, 1073280, Note_off_c, 6, 33, 95
5, 1073280, Note_on_c, 6, 34, 95
5, 1073760, Note_off_c, 6, 34, 95
5, 1073760, Note_on_c, 6, 38, 95
5, 1074240, Note_off_c, 6, 38, 95
5, 1074240, Note_on_c, 6, 37, 95
5, 1074720, Note_off_c, 6, 37, 95
5, 1074720, Note_on_c, 6, 34, 95
5, 1075200, Note_off_c, 6, 34, 95
5, 1075200, Note_on_c, 6, 33, 95
5, 1075680, Note_off_c, 6, 33, 95
5, 1075680, Note_on_c, 6, 34, 95
5, 1076160, Note_off_c, 6, 34, 95
5, 1076160, Note_on_c, 6, 33, 95
5, 1076640, Note_off_c, 6, 33, 95
5, 1077120, Note_on_c, 6, 41, 95
5, 1077600, Note_off_c, 6, 41, 95
5, 1077600, Note_on_c, 6, 40, 95
5, 1078080, Note_off_c, 6, 40, 95
5, 1078560, Note_on_c, 6, 33, 95
5, 1079040, Note_off_c, 6, 33, 95
5, 1079040, Note_on_c, 6, 34, 95
5, 1079520, Note_off_c, 6, 34, 95
5, 1079520, Note_on_c, 6, 33, 95
5, 1080000, Note_on_c, 6, 45, 95
5, 1080960, Note_off_c, 6, 33, 95
5, 1080960, Note_on_c, 6, 33, 95
5, 1081440, Note_off_c, 6, 45, 95
5, 1081440, Note_on_c, 6, 45, 95
5, 1081920, Note_off_c, 6, 45, 95
5, 1081920, Note_on_c, 6, 46, 95
5, 1082400, Note_off_c, 6, 46, 95
5, 1082400, Note_on_c, 6, 45, 95
5, 1082880, Note_off_c, 6, 45, 95
5, 1082880, Note_on_c, 6, 43, 95
5, 1083360, Note_off_c, 6, 33, 95
5, 1083360, Note_off_c, 6, 43, 95
5, 1083360, Note_on_c, 6, 33, 95
5, 1083840, Note_on_c, 6, 45, 95
5, 1084800, Note_off_c, 6, 33, 95
5, 1084800, Note_on_c, 6, 33, 95
5, 1085280, Note_off_c, 6, 45, 95
5, 1085280, Note_on_c, 6, 45, 95
5, 1085760, Note_off_c, 6, 45, 95
5, 1085760, Note_on_c, 6, 46, 95
5, 1086240, Note_off_c, 6, 46, 95
5, 1086240, Note_on_c, 6, 45, 95
5, 1086720, Note_off_c, 6, 45, 95
5, 1086720, Note_on_c, 6, 43, 95
5, 1087200, Note_off_c, 6, 33, 95
5, 1087200, Note_off_c, 6, 43, 95
5, 1087200, Note_on_c, 6, 33, 95
5, 1087680, Note_on_c, 6, 45, 95
5, 1088640, Note_off_c, 6, 33, 95
5, 1088640, Note_on_c, 6, 33, 95
5, 1089120, Note_off_c, 6, 45, 95
5, 1089120, Note_on_c, 6, 45, 95
5, 1089600, Note_off_c, 6, 45, 95
5, 1089600, Note_on_c, 6, 46, 95
5, 1090080, Note_off_c, 6, 46, 95
5, 1090080, Note_on_c, 6, 45, 95
5, 1090560, Note_off_c, 6, 45, 95
5, 1090560, Note_on_c, 6, 43, 95
5, 1091040, Note_off_c, 6, 33, 95
5, 1091040, Note_off_c, 6, 43, 95
5, 1091040, Note_on_c, 6, 33, 95
5, 1091520, Note_on_c, 6, 45, 95
5, 1092000, Note_off_c, 6, 45, 95
5, 1092000, Note_on_c, 6, 40, 95
5, 1092480, Note_off_c, 6, 40, 95
5, 1092480, Note_on_c, 6, 41, 95
5, 1092960, Note_off_c, 6, 33, 95
5, 1092960, Note_on_c, 6, 33, 95
5, 1093440, Note_off_c, 6, 41, 95
5, 1093440, Note_on_c, 6, 38, 95
5, 1093920, Note_off_c, 6, 38, 95
5, 1093920, Note_on_c, 6, 40, 95
5, 1094880, Note_off_c, 6, 33, 95
5, 1094880, Note_off_c, 6, 40, 95
5, 1094880, Note_on_c, 6, 33, 95
5, 1095360, Note_on_c, 6, 45, 95
5, 1096320, Note_off_c, 6, 33, 95
5, 1096320, Note_on_c, 6, 33, 95
5, 1096800, Note_off_c, 6, 45, 95
5, 1096800, Note_on_c, 6, 45, 95
5, 1097280, Note_off_c, 6, 45, 95
5, 1097280, Note_on_c, 6, 46, 95
5, 1097760, Note_off_c, 6, 46, 95
5, 1097760, Note_on_c, 6, 45, 95
5, 1098240, Note_off_c, 6, 45, 95
5, 1098240, Note_on_c, 6, 43, 95
5, 1098720, Note_off_c, 6, 33, 95
5, 1098720, Note_off_c, 6, 43, 95
5, 1098720, Note_on_c, 6, 33, 95
5, 1099200, Note_on_c, 6, 45, 95
5, 1100160, Note_off_c, 6, 33, 95
5, 1100160, Note_on_c, 6, 33, 95
5, 1100640, Note_off_c, 6, 45, 95
5, 1100640, Note_on_c, 6, 45, 95
5, 1101120, Note_off_c, 6, 45, 95
5, 1101120, Note_on_c, 6, 46, 95
5, 1101600, Note_off_c, 6, 46, 95
5, 1101600, Note_on_c, 6, 45, 95
5, 1102080, Note_off_c, 6, 45, 95
5, 1102080, Note_on_c, 6, 43, 95
5, 1102560, Note_off_c, 6, 33, 95
5, 1102560, Note_off_c, 6, 43, 95
5, 1102560, Note_on_c, 6, 33, 95
5, 1103040, Note_on_c, 6, 45, 95
5, 1104000, Note_off_c, 6, 33, 95
5, 1104000, Note_on_c, 6, 33, 95
5, 1104480, Note_off_c, 6, 45, 95
5, 1104480, Note_on_c, 6, 45, 95
5, 1104960, Note_off_c, 6, 45, 95
5, 1104960, Note_on_c, 6, 46, 95
5, 1105440, Note_off_c, 6, 46, 95
5, 1105440, Note_on_c, 6, 45, 95
5, 1105920, Note_off_c, 6, 45, 95
5, 1105920, Note_on_c, 6, 43, 95
5, 1106400, Note_off_c, 6, 33, 95
5, 1106400, Note_off_c, 6, 43, 95
5, 1106400, Note_on_c, 6, 33, 95
5, 1106880, Note_on_c, 6, 45, 95
5, 1107360, Note_off_c, 6, 45, 95
5, 1107360, Note_on_c, 6, 40, 95
5, 1107840, Note_off_c, 6, 40, 95
5, 1107840, Note_on_c, 6, 41, 95
5, 1108320, Note_off_c, 6, 33, 95
5, 1108320, Note_on_c, 6, 33, 95
5, 1108800, Note_off_c, 6, 41, 95
5, 1108800, Note_on_c, 6, 38, 95
5, 1109280, Note_off_c, 6, 38, 95
5, 1109280, Note_on_c, 6, 40, 95
5, 1110240, Note_off_c, 6, 33, 95
5, 1110240, Note_off_c, 6, 40, 95
5, 1110240, Note_on_c, 6, 33, 95
5, 1110720, Note_on_c, 6, 45, 95
5, 1111680, Note_off_c, 6, 33, 95
5, 1111680, Note_on_c, 6, 33, 95
5, 1112160, Note_off_c, 6, 45, 95
5, 1112160, Note_on_c, 6, 45, 95
5, 1112640, Note_off_c, 6, 45, 95
5, 1112640, Note_on_c, 6, 46, 95
5, 1113120, Note_off_c, 6, 46, 95
5, 1113120, Note_on_c, 6, 45, 95
5, 1113600, Note_off_c, 6, 45, 95
5, 1113600, Note_on_c, 6, 43, 95
5, 1114080, Note_off_c, 6, 33, 95
5, 1114080, Note_off_c, 6, 43, 95
5, 1114080, Note_on_c, 6, 33, 95
5, 1114560, Note_on_c, 6, 45, 95
5, 1115520, Note_off_c, 6, 33, 95
5, 1115520, Note_on_c, 6, 33, 95
5, 1116000, Note_off_c, 6, 45, 95
5, 1116000, Note_on_c, 6, 45, 95
5, 1116480, Note_off_c, 6, 45, 95
5, 1116480, Note_on_c, 6, 46, 95
5, 1116960, Note_off_c, 6, 46, 95
5, 1116960, Note_on_c, 6, 45, 95
5, 1117440, Note_off_c, 6, 45, 95
5, 1117440, Note_on_c, 6, 43, 95
5, 1117920, Note_off_c, 6, 33, 95
5, 1117920, Note_off_c, 6, 43, 95
5, 1117920, Note_on_c, 6, 33, 95
5, 1118400, Note_on_c, 6, 45, 95
5, 1119360, Note_off_c, 6, 33, 95
5, 1119360, Note_on_c, 6, 33, 95
5, 1119840, Note_off_c, 6, 45, 95
5, 1119840, Note_on_c, 6, 45, 95
5, 1120320, Note_off_c, 6, 45, 95
5, 1120320, Note_on_c, 6, 46, 95
5, 1120800, Note_off_c, 6, 46, 95
5, 1120800, Note_on_c, 6, 45, 95
5, 1121280, Note_off_c, 6, 45, 95
5, 1121280, Note_on_c, 6, 43, 95
5, 1121760, Note_off_c, 6, 33, 95
5, 1121760, Note_off_c, 6, 43, 95
5, 1121760, Note_on_c, 6, 33, 95
5, 1122240, Note_on_c, 6, 45, 95
5, 1122720, Note_off_c, 6, 45, 95
5, 1122720, Note_on_c, 6, 40, 95
5, 1123200, Note_off_c, 6, 40, 95
5, 1123200, Note_on_c, 6, 41, 95
5, 1123680, Note_off_c, 6, 33, 95
5, 1123680, Note_on_c, 6, 33, 95
5, 1124160, Note_off_c, 6, 41, 95
5, 1124160, Note_on_c, 6, 38, 95
5, 1124640, Note_off_c, 6, 38, 95
5, 1124640, Note_on_c, 6, 40, 95
5, 1125600, Note_off_c, 6, 33, 95
5, 1125600, Note_off_c, 6, 40, 95
5, 1125600, Note_on_c, 6, 33, 95
5, 1126080, Note_on_c, 6, 45, 95
5, 1127040, Note_off_c, 6, 33, 95
5, 1127040, Note_on_c, 6, 33, 95
5, 1127520, Note_off_c, 6, 45, 95
5, 1127520, Note_on_c, 6, 45, 95
5, 1128000, Note_off_c, 6, 45, 95
5, 1128000, Note_on_c, 6, 46, 95
5, 1128480, Note_off_c, 6, 46, 95
5, 1128480, Note_on_c, 6, 45, 95
5, 1128960, Note_off_c, 6, 45, 95
5, 1128960, Note_on_c, 6, 43, 95
5, 1129440, Note_off_c, 6, 33, 95
5, 1129440, Note_off_c, 6, 43, 95
5, 1129440, Note_on_c, 6, 33, 95
5, 1129920, Note_on_c, 6, 45, 95
5, 1130880, Note_off_c, 6, 33, 95
5, 1130880, Note_on_c, 6, 33, 95
5, 1131360, Note_off_c, 6, 45, 95
5, 1131360, Note_on_c, 6, 45, 95
5, 1131840, Note_off_c, 6, 45, 95
5, 1131840, Note_on_c, 6, 46, 95
5, 1132320, Note_off_c, 6, 46, 95
5, 1132320, Note_on_c, 6, 45, 95
5, 1132800, Note_off_c, 6, 45, 95
5, 1132800, Note_on_c, 6, 43, 95
5, 1133280, Note_off_c, 6, 33, 95
5, 1133280, Note_off_c, 6, 43, 95
5, 1133280, Note_on_c, 6, 33, 95
5, 1133760, Note_on_c, 6, 45, 95
5, 1134720, Note_off_c, 6, 33, 95
5, 1134720, Note_on_c, 6, 33, 95
5, 1135200, Note_off_c, 6, 45, 95
5, 1135200, Note_on_c, 6, 45, 95
5, 1135680, Note_off_c, 6, 45, 95
5, 1135680, Note_on_c, 6, 46, 95
5, 1136160, Note_off_c, 6, 46, 95
5, 1136160, Note_on_c, 6, 45, 95
5, 1136640, Note_off_c, 6, 45, 95
5, 1136640, Note_on_c, 6, 43, 95
5, 1137120, Note_off_c, 6, 33, 95
5, 1137120, Note_off_c, 6, 43, 95
5, 1137120, Note_on_c, 6, 33, 95
5, 1137600, Note_on_c, 6, 45, 95
5, 1138080, Note_off_c, 6, 45, 95
5, 1138080, Note_on_c, 6, 40, 95
5, 1138560, Note_off_c, 6, 40, 95
5, 1138560, Note_on_c, 6, 41, 95
5, 1139040, Note_off_c, 6, 33, 95
5, 1139040, Note_on_c, 6, 33, 95
5, 1139520, Note_off_c, 6, 41, 95
5, 1139520, Note_on_c, 6, 38, 95
5, 1140000, Note_off_c, 6, 38, 95
5, 1140000, Note_on_c, 6, 40, 95
5, 1140960, Note_off_c, 6, 33, 95
5, 1140960, Note_off_c, 6, 40, 95
5, 1140960, Note_on_c, 6, 31, 95
5, 1141440, Note_on_c, 6, 45, 95
5, 1142400, Note_off_c, 6, 31, 95
5, 1142400, Note_on_c, 6, 31, 95
5, 1142880, Note_off_c, 6, 45, 95
5, 1142880, Note_on_c, 6, 45, 95
5, 1143360, Note_off_c, 6, 45, 95
5, 1143360, Note_on_c, 6, 46, 95
5, 1143840, Note_off_c, 6, 46, 95
5, 1143840, Note_on_c, 6, 45, 95
5, 1144320, Note_off_c, 6, 45, 95
5, 1144320, Note_on_c, 6, 43, 95
5, 1144800, Note_off_c, 6, 31, 95
5, 1144800, Note_off_c, 6, 43, 95
5, 1144800, Note_on_c, 6, 31, 95
5, 1145280, Note_on_c, 6, 45, 95
5, 1146240, Note_off_c, 6, 31, 95
5, 1146240, Note_on_c, 6, 31, 95
5, 1146720, Note_off_c, 6, 45, 95
5, 1146720, Note_on_c, 6, 45, 95
5, 1147200, Note_off_c, 6, 45, 95
5, 1147200, Note_on_c, 6, 46, 95
5, 1147680, Note_off_c, 6, 46, 95
5, 1147680, Note_on_c, 6, 45, 95
5, 1148160, Note_off_c, 6, 45, 95
5, 1148160, Note_on_c, 6, 43, 95
5, 1148640, Note_off_c, 6, 31, 95
5, 1148640, Note_off_c, 6, 43, 95
5, 1148640, Note_on_c, 6, 31, 95
5, 1149120, Note_on_c, 6, 45, 95
5, 1150080, Note_off_c, 6, 31, 95
5, 1150080, Note_on_c, 6, 31, 95
5, 1150560, Note_off_c, 6, 45, 95
5, 1150560, Note_on_c, 6, 45, 95
5, 1151040, Note_off_c, 6, 45, 95
5, 1151040, Note_on_c, 6, 46, 95
5, 1151520, Note_off_c, 6, 46, 95
5, 1151520, Note_on_c, 6, 45, 95
5, 1152000, Note_off_c, 6, 45, 95
5, 1152000, Note_on_c, 6, 43, 95
5, 1152480, Note_off_c, 6, 31, 95
5, 1152480, Note_off_c, 6, 43, 95
5, 1152480, Note_on_c, 6, 28, 95
5, 1152960, Note_off_c, 6, 28, 95
5, 1152960, Note_on_c, 6, 28, 95
5, 1153440, Note_on_c, 6, 40, 95
5, 1153920, Note_off_c, 6, 40, 95
5, 1153920, Note_on_c, 6, 41, 95
5, 1154400, Note_off_c, 6, 28, 95
5, 1154400, Note_off_c, 6, 41, 95
5, 1154400, Note_on_c, 6, 28, 95
5, 1154880, Note_on_c, 6, 38, 95
5, 1155360, Note_off_c, 6, 38, 95
5, 1155360, Note_on_c, 6, 40, 95
5, 1156320, Note_off_c, 6, 28, 95
5, 1156320, Note_off_c, 6, 40, 95
5, 1156320, Note_on_c, 6, 31, 95
5, 1156800, Note_off_c, 6, 31, 95
5, 1156800, Note_on_c, 6, 33, 95
5, 1157280, Note_off_c, 6, 33, 95
5, 1157280, Note_on_c, 6, 34, 95
5, 1157760, Note_off_c, 6, 34, 95
5, 1157760, Note_on_c, 6, 38, 95
5, 1158240, Note_off_c, 6, 38, 95
5, 1158240, Note_on_c, 6, 37, 95
5, 1158720, Note_off_c, 6, 37, 95
5, 1158720, Note_on_c, 6, 33, 95
5, 1159200, Note_off_c, 6, 33, 95
5, 1160640, Note_on_c, 6, 31, 95
5, 1161120, Note_off_c, 6, 31, 95
5, 1161120, Note_on_c, 6, 33, 95
5, 1161600, Note_off_c, 6, 33, 95
5, 1161600, Note_on_c, 6, 34, 95
5, 1162080, Note_off_c, 6, 34, 95
5, 1162080, Note_on_c, 6, 38, 95
5, 1162560, Note_off_c, 6, 38, 95
5, 1162560, Note_on_c, 6, 37, 95
5, 1163040, Note_off_c, 6, 37, 95
5, 1163040, Note_on_c, 6, 41, 95
5, 1163520, Note_off_c, 6, 41, 95
5, 1163520, Note_on_c, 6, 40, 95
5, 1164480, Note_off_c, 6, 40, 95
5, 1164480, Note_on_c, 6, 31, 95
5, 1164960, Note_off_c, 6, 31, 95
5, 1164960, Note_on_c, 6, 34, 95
5, 1165440, Note_off_c, 6, 34, 95
5, 1165440, Note_on_c, 6, 38, 95
5, 1165920, Note_off_c, 6, 38, 95
5, 1165920, Note_on_c, 6, 37, 95
5, 1166400, Note_off_c, 6, 37, 95
5, 1166400, Note_on_c, 6, 33, 95
5, 1166880, Note_off_c, 6, 33, 95
5, 1167360, Note_on_c, 6, 33, 95
5, 1167840, Note_off_c, 6, 33, 95
5, 1167840, Note_on_c, 6, 34, 95
5, 1168320, Note_off_c, 6, 34, 95
5, 1168320, Note_on_c, 6, 31, 95
5, 1168800, Note_off_c, 6, 31, 95
5, 1169280, Note_on_c, 6, 29, 95
5, 1169760, Note_off_c, 6, 29, 95
5, 1169760, Note_on_c, 6, 31, 95
5, 1170240, Note_off_c, 6, 31, 95
5, 1170240, Note_on_c, 6, 28, 95
5, 1170720, Note_off_c, 6, 28, 95
5, 1171200, Note_on_c, 6, 28, 95
5, 1171680, Note_off_c, 6, 28, 95
5, 1171680, Note_on_c, 6, 41, 95
5, 1172160, Note_off_c, 6, 41, 95
5, 1172160, Note_on_c, 6, 36, 95
5, 1172640, Note_off_c, 6, 36, 95
5, 1172640, Note_on_c, 6, 41, 95
5, 1173120, Note_off_c, 6, 41, 95
5, 1173120, Note_on_c, 6, 45, 95
5, 1173600, Note_off_c, 6, 45, 95
5, 1173600, Note_on_c, 6, 47, 95
5, 1174080, Note_off_c, 6, 47, 95
5, 1174080, Note_on_c, 6, 38, 95
5, 1174560, Note_off_c, 6, 38, 95
5, 1174560, Note_on_c, 6, 43, 95
5, 1175040, Note_off_c, 6, 43, 95
5, 1175040, Note_on_c, 6, 47, 95
5, 1175520, Note_off_c, 6, 47, 95
5, 1175520, Note_on_c, 6, 48, 95
5, 1176000, Note_off_c, 6, 48, 95
5, 1176000, Note_on_c, 6, 40, 95
5, 1176480, Note_off_c, 6, 40, 95
5, 1176480, Note_on_c, 6, 45, 95
5, 1176960, Note_off_c, 6, 45, 95
5, 1176960, Note_on_c, 6, 48, 95
5, 1177440, Note_off_c, 6, 48, 95
5, 1177440, Note_on_c, 6, 47, 95
5, 1177560, Note_off_c, 6, 47, 95
5, 1177560, Note_on_c, 6, 48, 95
5, 1177680, Note_off_c, 6, 48, 95
5, 1177680, Note_on_c, 6, 47, 95
5, 1177800, Note_off_c, 6, 47, 95
5, 1177800, Note_on_c, 6, 43, 95
5, 1178280, Note_off_c, 6, 43, 95
5, 1178280, Note_on_c, 6, 28, 95
5, 1178760, Note_off_c, 6, 28, 95
5, 1178760, Note_on_c, 6, 41, 95
5, 1179360, Note_off_c, 6, 41, 95
5, 1179840, Note_on_c, 6, 36, 95
5, 1180320, Note_off_c, 6, 36, 95
5, 1180320, Note_on_c, 6, 41, 95
5, 1180800, Note_off_c, 6, 41, 95
5, 1180800, Note_on_c, 6, 45, 95
5, 1181280, Note_off_c, 6, 45, 95
5, 1181280, Note_on_c, 6, 47, 95
5, 1181760, Note_off_c, 6, 47, 95
5, 1181760, Note_on_c, 6, 38, 95
5, 1182240, Note_off_c, 6, 38, 95
5, 1182240, Note_on_c, 6, 48, 95
5, 1182720, Note_off_c, 6, 48, 95
5, 1182720, Note_on_c, 6, 47, 95
5, 1183200, Note_off_c, 6, 47, 95
5, 1183200, Note_on_c, 6, 33, 95
5, 1184640, Note_off_c, 6, 33, 95
5, 1184640, Note_on_c, 6, 31, 95
5, 1185600, Note_off_c, 6, 31, 95
5, 1185600, Note_on_c, 6, 28, 95
5, 1186560, Note_off_c, 6, 28, 95
5, 1186560, Note_on_c, 6, 29, 95
5, 1187520, Note_off_c, 6, 29, 95
5, 1187520, Note_on_c, 6, 36, 95
5, 1188000, Note_off_c, 6, 36, 95
5, 1188000, Note_on_c, 6, 41, 95
5, 1188480, Note_off_c, 6, 41, 95
5, 1188480, Note_on_c, 6, 45, 95
5, 1188960, Note_off_c, 6, 45, 95
5, 1188960, Note_on_c, 6, 47, 95
5, 1189440, Note_off_c, 6, 47, 95
5, 1189440, Note_on_c, 6, 38, 95
5, 1189920, Note_off_c, 6, 38, 95
5, 1189920, Note_on_c, 6, 43, 95
5, 1190400, Note_off_c, 6, 43, 95
5, 1190400, Note_on_c, 6, 47, 95
5, 1190880, Note_off_c, 6, 47, 95
5, 1190880, Note_on_c, 6, 48, 95
5, 1191360, Note_off_c, 6, 48, 95
5, 1191360, Note_on_c, 6, 40, 95
5, 1191840, Note_off_c, 6, 40, 95
5, 1191840, Note_on_c, 6, 45, 95
5, 1192320, Note_off_c, 6, 45, 95
5, 1192320, Note_on_c, 6, 48, 95
5, 1192800, Note_off_c, 6, 48, 95
5, 1192800, Note_on_c, 6, 50, 95
5, 1193280, Note_off_c, 6, 50, 95
5, 1193280, Note_on_c, 6, 43, 95
5, 1193760, Note_off_c, 6, 43, 95
5, 1193760, Note_on_c, 6, 38, 95
5, 1194240, Note_off_c, 6, 38, 95
5, 1194240, Note_on_c, 6, 41, 95
5, 1195200, Note_off_c, 6, 41, 95
5, 1195200, Note_on_c, 6, 36, 95
5, 1195680, Note_off_c, 6, 36, 95
5, 1195680, Note_on_c, 6, 41, 95
5, 1196160, Note_off_c, 6, 41, 95
5, 1196160, Note_on_c, 6, 48, 95
5, 1196640, Note_off_c, 6, 48, 95
5, 1196640, Note_on_c, 6, 47, 95
5, 1197120, Note_off_c, 6, 47, 95
5, 1197120, Note_on_c, 6, 35, 95
5, 1197600, Note_off_c, 6, 35, 95
5, 1197600, Note_on_c, 6, 43, 95
5, 1198080, Note_off_c, 6, 43, 95
5, 1198080, Note_on_c, 6, 47, 95
5, 1198560, Note_off_c, 6, 47, 95
5, 1198560, Note_on_c, 6, 45, 95
5, 1199520, Note_off_c, 6, 45, 95
5, 1200000, Note_on_c, 6, 47, 95
5, 1200480, Note_off_c, 6, 47, 95
5, 1200960, Note_on_c, 6, 48, 95
5, 1201440, Note_off_c, 6, 48, 95
5, 1201920, Note_on_c, 6, 41, 95
5, 1202880, Note_off_c, 6, 41, 95
5, 1202880, Note_on_c, 6, 36, 95
5, 1203360, Note_off_c, 6, 36, 95
5, 1203360, Note_on_c, 6, 41, 95
5, 1203840, Note_off_c, 6, 41, 95
5, 1203840, Note_on_c, 6, 45, 95
5, 1204320, Note_off_c, 6, 45, 95
5, 1204320, Note_on_c, 6, 47, 95
5, 1204800, Note_off_c, 6, 47, 95
5, 1204800, Note_on_c, 6, 38, 95
5, 1205280, Note_off_c, 6, 38, 95
5, 1205280, Note_on_c, 6, 43, 95
5, 1205760, Note_off_c, 6, 43, 95
5, 1205760, Note_on_c, 6, 47, 95
5, 1206240, Note_off_c, 6, 47, 95
5, 1206240, Note_on_c, 6, 48, 95
5, 1206720, Note_off_c, 6, 48, 95
5, 1206720, Note_on_c, 6, 40, 95
5, 1207200, Note_off_c, 6, 40, 95
5, 1207200, Note_on_c, 6, 45, 95
5, 1207680, Note_off_c, 6, 45, 95
5, 1207680, Note_on_c, 6, 48, 95
5, 1208160, Note_off_c, 6, 48, 95
5, 1208160, Note_on_c, 6, 50, 95
5, 1208640, Note_off_c, 6, 50, 95
5, 1208640, Note_on_c, 6, 43, 95
5, 1209120, Note_off_c, 6, 43, 95
5, 1209120, Note_on_c, 6, 47, 95
5, 1209600, Note_off_c, 6, 47, 95
5, 1209600, Note_on_c, 6, 50, 95
5, 1210080, Note_off_c, 6, 50, 95
5, 1210080, Note_on_c, 6, 55, 95
5, 1210560, Note_off_c, 6, 55, 95
5, 1210560, Note_on_c, 6, 50, 95
5, 1210800, Note_off_c, 6, 50, 95
5, 1210800, Note_on_c, 6, 50, 95
5, 1211040, Note_off_c, 6, 50, 95
5, 1211040, Note_on_c, 6, 53, 95
5, 1211520, Note_off_c, 6, 53, 95
5, 1211520, Note_on_c, 7, 52, 95
5, 1211680, Pitch_bend_c, 7, 8192
5, 1211840, Pitch_bend_c, 7, 8320
5, 1212000, Pitch_bend_c, 7, 8192
5, 1212160, Pitch_bend_c, 7, 8320
5, 1212320, Pitch_bend_c, 7, 8192
5, 1212480, Pitch_bend_c, 7, 8320
5, 1212480, Pitch_bend_c, 7, 8192
5, 1212480, Note_off_c, 7, 52, 95
5, 1212480, Note_on_c, 6, 36, 95
5, 1212960, Note_off_c, 6, 36, 95
5, 1212960, Note_on_c, 6, 40, 95
5, 1213440, Note_off_c, 6, 40, 95
5, 1213440, Note_on_c, 6, 43, 95
5, 1213920, Note_off_c, 6, 43, 95
5, 1213920, Note_on_c, 6, 48, 95
5, 1214400, Note_off_c, 6, 48, 95
5, 1214400, Note_on_c, 6, 50, 95
5, 1214880, Note_off_c, 6, 50, 95
5, 1214880, Note_on_c, 6, 52, 95
5, 1215360, Note_off_c, 6, 52, 95
5, 1215360, Note_on_c, 6, 53, 95
5, 1215840, Note_off_c, 6, 53, 95
5, 1215840, Note_on_c, 6, 38, 95
5, 1216320, Note_off_c, 6, 38, 95
5, 1216320, Note_on_c, 6, 45, 95
5, 1216800, Note_off_c, 6, 45, 95
5, 1216800, Note_on_c, 7, 52, 95
5, 1216920, Pitch_bend_c, 7, 8320
5, 1217040, Pitch_bend_c, 7, 8448
5, 1217160, Pitch_bend_c, 7, 8704
5, 1217280, Pitch_bend_c, 7, 8832
5, 1217280, Pitch_bend_c, 7, 8192
5, 1217280, Note_off_c, 7, 52, 95
5, 1217280, Note_on_c, 6, 53, 95
5, 1217760, Note_off_c, 6, 53, 95
5, 1217760, Note_on_c, 6, 34, 95
5, 1218240, Note_off_c, 6, 34, 95
5, 1218240, Note_on_c, 6, 43, 95
5, 1218720, Note_off_c, 6, 43, 95
5, 1218720, Note_on_c, 7, 50, 95
5, 1218840, Pitch_bend_c, 7, 8448
5, 1218960, Pitch_bend_c, 7, 8832
5, 1219080, Pitch_bend_c, 7, 9216
5, 1219200, Pitch_bend_c, 7, 9600
5, 1219200, Pitch_bend_c, 7, 8192
5, 1219200, Note_off_c, 7, 50, 95
5, 1219200, Note_on_c, 6, 52, 95
5, 1219680, Note_off_c, 6, 52, 95
5, 1219680, Note_on_c, 6, 36, 95
5, 1220160, Note_off_c, 6, 36, 95
5, 1220160, Note_on_c, 6, 43, 95
5, 1220640, Note_off_c, 6, 43, 95
5, 1220640, Note_on_c, 7, 52, 95
5, 1220760, Pitch_bend_c, 7, 7552
5, 1220880, Pitch_bend_c, 7, 6784
5, 1221000, Pitch_bend_c, 7, 6144
5, 1221120, Pitch_bend_c, 7, 5376
5, 1221120, Pitch_bend_c, 7, 8192
5, 1221120, Note_off_c, 7, 52, 95
5, 1221120, Note_on_c, 6, 48, 95
5, 1221600, Note_off_c, 6, 48, 95
5, 1221600, Note_on_c, 6, 33, 95
5, 1222080, Note_off_c, 6, 33, 95
5, 1222080, Note_on_c, 6, 41, 95
5, 1222560, Note_off_c, 6, 41, 95
5, 1222560, Note_on_c, 7, 48, 95
5, 1222680, Pitch_bend_c, 7, 8448
5, 1222800, Pitch_bend_c, 7, 8832
5, 1222920, Pitch_bend_c, 7, 9216
5, 1223040, Pitch_bend_c, 7, 9600
5, 1223040, Pitch_bend_c, 7, 8192
5, 1223040, Note_off_c, 7, 48, 95
5, 1223040, Note_on_c, 6, 50, 95
5, 1223520, Note_off_c, 6, 50, 95
5, 1223520, Note_on_c, 6, 34, 95
5, 1224000, Note_off_c, 6, 34, 95
5, 1224000, Note_on_c, 6, 41, 95
5, 1224480, Note_off_c, 6, 41, 95
5, 1224480, Note_on_c, 7, 50, 95
5, 1224600, Pitch_bend_c, 7, 7552
5, 1224720, Pitch_bend_c, 7, 6784
5, 1224840, Pitch_bend_c, 7, 6144
5, 1224960, Pitch_bend_c, 7, 5376
5, 1224960, Pitch_bend_c, 7, 8192
5, 1224960, Note_off_c, 7, 50, 95
5, 1224960, Note_on_c, 6, 46, 95
5, 1225440, Note_off_c, 6, 46, 95
5, 1225440, Note_on_c, 6, 31, 95
5, 1225920, Note_off_c, 6, 31, 95
5, 1225920, Note_on_c, 6, 28, 95
5, 1226400, Note_off_c, 6, 28, 95
5, 1226400, Note_on_c, 6, 46, 95
5, 1226880, Note_off_c, 6, 46, 95
5, 1226880, Note_on_c, 6, 45, 95
5, 1227360, Note_off_c, 6, 45, 95
5, 1227360, Note_on_c, 6, 41, 95
5, 1227840, Note_off_c, 6, 41, 95
5, 1227840, Note_on_c, 6, 36, 95
5, 1228320, Note_off_c, 6, 36, 95
5, 1228320, Note_on_c, 6, 41, 95
5, 1228800, Note_off_c, 6, 41, 95
5, 1228800, Note_on_c, 6, 45, 95
5, 1229280, Note_off_c, 6, 45, 95
5, 1229280, Note_on_c, 6, 47, 95
5, 1229760, Note_off_c, 6, 47, 95
5, 1229760, Note_on_c, 6, 48, 95
5, 1230240, Note_off_c, 6, 48, 95
5, 1230240, Note_on_c, 6, 33, 95
5, 1230720, Note_off_c, 6, 33, 95
5, 1230720, Note_on_c, 6, 28, 95
5, 1231200, Note_off_c, 6, 28, 95
5, 1231200, Note_on_c, 6, 48, 95
5, 1231680, Note_off_c, 6, 48, 95
5, 1231680, Note_on_c, 6, 50, 95
5, 1232160, Note_off_c, 6, 50, 95
5, 1232160, Note_on_c, 6, 34, 95
5, 1232640, Note_off_c, 6, 34, 95
5, 1232640, Note_on_c, 6, 29, 95
5, 1233120, Note_off_c, 6, 29, 95
5, 1233120, Note_on_c, 6, 46, 95
5, 1233600, Note_off_c, 6, 46, 95
5, 1233600, Note_on_c, 6, 50, 95
5, 1234080, Note_off_c, 6, 50, 95
5, 1234080, Note_on_c, 6, 52, 95
5, 1234560, Note_off_c, 6, 52, 95
5, 1234560, Note_on_c, 6, 53, 95
5, 1235040, Note_off_c, 6, 53, 95
5, 1235040, Note_on_c, 6, 36, 95
5, 1235520, Note_off_c, 6, 36, 95
5, 1235520, Note_on_c, 6, 31, 95
5, 1236000, Note_off_c, 6, 31, 95
5, 1236000, Note_on_c, 6, 48, 95
5, 1236480, Note_off_c, 6, 48, 95
5, 1236480, Note_on_c, 6, 52, 95
5, 1236960, Note_off_c, 6, 52, 95
5, 1236960, Note_on_c, 6, 53, 95
5, 1237440, Note_off_c, 6, 53, 95
5, 1237440, Note_on_c, 6, 55, 95
5, 1237920, Note_off_c, 6, 55, 95
5, 1237920, Note_on_c, 6, 50, 95
5, 1237920, Note_on_c, 6, 43, 95
5, 1248480, Note_off_c, 6, 50, 95
5, 1248480, Note_off_c, 6, 43, 95
5, 1283040, Note_on_c, 6, 33, 95
5, 1283520, Note_off_c, 6, 33, 95
5, 1284000, Note_on_c, 6, 33, 95
5, 1284480, Note_off_c, 6, 33, 95
5, 1284960, Note_on_c, 6, 45, 95
5, 1285920, Note_off_c, 6, 45, 95
5, 1285920, Note_on_c, 6, 45, 95
5, 1286400, Note_off_c, 6, 45, 95
5, 1286400, Note_on_c, 6, 33, 95
5, 1286880, Note_off_c, 6, 33, 95
5, 1287360, Note_on_c, 6, 33, 95
5, 1287840, Note_off_c, 6, 33, 95
5, 1288320, Note_on_c, 6, 31, 95
5, 1288800, Note_off_c, 6, 31, 95
5, 1288800, Note_on_c, 6, 45, 95
5, 1289760, Note_off_c, 6, 45, 95
5, 1289760, Note_on_c, 6, 37, 95
5, 1290000, Note_off_c, 6, 37, 95
5, 1290000, Note_on_c, 6, 38, 95
5, 1290240, Note_off_c, 6, 38, 95
5, 1290240, Note_on_c, 6, 40, 95
5, 1290480, Note_off_c, 6, 40, 95
5, 1290720, Note_on_c, 6, 33, 95
5, 1291200, Note_off_c, 6, 33, 95
5, 1291680, Note_on_c, 6, 33, 95
5, 1292160, Note_off_c, 6, 33, 95
5, 1292640, Note_on_c, 6, 45, 95
5, 1293600, Note_off_c, 6, 45, 95
5, 1293600, Note_on_c, 6, 45, 95
5, 1294080, Note_off_c, 6, 45, 95
5, 1294080, Note_on_c, 6, 33, 95
5, 1294560, Note_off_c, 6, 33, 95
5, 1295040, Note_on_c, 6, 33, 95
5, 1295520, Note_off_c, 6, 33, 95
5, 1295520, Note_on_c, 6, 34, 95
5, 1296000, Note_off_c, 6, 34, 95
5, 1296000, Note_on_c, 6, 37, 95
5, 1296480, Note_off_c, 6, 37, 95
5, 1296480, Note_on_c, 6, 38, 95
5, 1296960, Note_off_c, 6, 38, 95
5, 1296960, Note_on_c, 6, 41, 95
5, 1297440, Note_off_c, 6, 41, 95
5, 1297440, Note_on_c, 6, 40, 95
5, 1297560, Note_off_c, 6, 40, 95
5, 1297560, Note_on_c, 6, 41, 70
5, 1297680, Note_off_c, 6, 41, 70
5, 1297680, Note_on_c, 6, 40, 70
5, 1297920, Note_off_c, 6, 40, 70
5, 1297920, Note_on_c, 6, 38, 95
5, 1298400, Note_off_c, 6, 38, 95
5, 1298400, Note_on_c, 6, 33, 95
5, 1298880, Note_off_c, 6, 33, 95
5, 1299360, Note_on_c, 6, 33, 95
5, 1299840, Note_off_c, 6, 33, 95
5, 1300320, Note_on_c, 6, 45, 95
5, 1301280, Note_off_c, 6, 45, 95
5, 1301280, Note_on_c, 6, 45, 95
5, 1301760, Note_off_c, 6, 45, 95
5, 1301760, Note_on_c, 6, 33, 95
5, 1302240, Note_off_c, 6, 33, 95
5, 1302720, Note_on_c, 6, 33, 95
5, 1303200, Note_off_c, 6, 33, 95
5, 1303680, Note_on_c, 6, 31, 95
5, 1304160, Note_off_c, 6, 31, 95
5, 1304160, Note_on_c, 6, 45, 95
5, 1305120, Note_off_c, 6, 45, 95
5, 1305120, Note_on_c, 6, 37, 95
5, 1305360, Note_off_c, 6, 37, 95
5, 1305360, Note_on_c, 6, 38, 95
5, 1305600, Note_off_c, 6, 38, 95
5, 1305600, Note_on_c, 6, 40, 95
5, 1305840, Note_off_c, 6, 40, 95
5, 1306080, Note_on_c, 6, 33, 95
5, 1306560, Note_off_c, 6, 33, 95
5, 1307040, Note_on_c, 6, 33, 95
5, 1307520, Note_off_c, 6, 33, 95
5, 1308000, Note_on_c, 6, 45, 95
5, 1308960, Note_off_c, 6, 45, 95
5, 1308960, Note_on_c, 6, 45, 95
5, 1309440, Note_off_c, 6, 45, 95
5, 1309440, Note_on_c, 6, 33, 95
5, 1309920, Note_off_c, 6, 33, 95
5, 1310880, Note_on_c, 6, 33, 95
5, 1311360, Note_off_c, 6, 33, 95
5, 1311840, Note_on_c, 6, 31, 95
5, 1312320, Note_off_c, 6, 31, 95
5, 1312800, Note_on_c, 6, 34, 95
5, 1313280, Note_off_c, 6, 34, 95
5, 1313760, Note_on_c, 6, 33, 95
5, 1314240, Note_off_c, 6, 33, 95
5, 1314720, Note_on_c, 6, 33, 95
5, 1315200, Note_off_c, 6, 33, 95
5, 1315680, Note_on_c, 6, 45, 95
5, 1316640, Note_off_c, 6, 45, 95
5, 1316640, Note_on_c, 6, 45, 95
5, 1317120, Note_off_c, 6, 45, 95
5, 1317120, Note_on_c, 6, 33, 95
5, 1317600, Note_off_c, 6, 33, 95
5, 1318080, Note_on_c, 6, 33, 95
5, 1318560, Note_off_c, 6, 33, 95
5, 1319040, Note_on_c, 6, 31, 95
5, 1319520, Note_off_c, 6, 31, 95
5, 1319520, Note_on_c, 6, 45, 95
5, 1320480, Note_off_c, 6, 45, 95
5, 1320480, Note_on_c, 6, 37, 95
5, 1320720, Note_off_c, 6, 37, 95
5, 1320720, Note_on_c, 6, 38, 95
5, 1320960, Note_off_c, 6, 38, 95
5, 1320960, Note_on_c, 6, 40, 95
5, 1321200, Note_off_c, 6, 40, 95
5, 1321440, Note_on_c, 6, 33, 95
5, 1321920, Note_off_c, 6, 33, 95
5, 1322400, Note_on_c, 6, 33, 95
5, 1322880, Note_off_c, 6, 33, 95
5, 1323360, Note_on_c, 6, 45, 95
5, 1324320, Note_off_c, 6, 45, 95
5, 1324320, Note_on_c, 6, 45, 95
5, 1324800, Note_off_c, 6, 45, 95
5, 1324800, Note_on_c, 6, 33, 95
5, 1325280, Note_off_c, 6, 33, 95
5, 1325760, Note_on_c, 6, 33, 95
5, 1326240, Note_off_c, 6, 33, 95
5, 1326240, Note_on_c, 6, 34, 95
5, 1326720, Note_off_c, 6, 34, 95
5, 1326720, Note_on_c, 6, 37, 95
5, 1327200, Note_off_c, 6, 37, 95
5, 1327200, Note_on_c, 6, 38, 95
5, 1327680, Note_off_c, 6, 38, 95
5, 1327680, Note_on_c, 6, 41, 95
5, 1328160, Note_off_c, 6, 41, 95
5, 1328160, Note_on_c, 6, 40, 95
5, 1328280, Note_off_c, 6, 40, 95
5, 1328280, Note_on_c, 6, 41, 70
5, 1328400, Note_off_c, 6, 41, 70
5, 1328400, Note_on_c, 6, 40, 70
5, 1328640, Note_off_c, 6, 40, 70
5, 1328640, Note_on_c, 6, 38, 95
5, 1329120, Note_off_c, 6, 38, 95
5, 1329120, Note_on_c, 6, 33, 95
5, 1329600, Note_off_c, 6, 33, 95
5, 1330080, Note_on_c, 6, 33, 95
5, 1330560, Note_off_c, 6, 33, 95
5, 1331040, Note_on_c, 6, 45, 95
5, 1332000, Note_off_c, 6, 45, 95
5, 1332000, Note_on_c, 6, 45, 95
5, 1332480, Note_off_c, 6, 45, 95
5, 1332480, Note_on_c, 6, 33, 95
5, 1332960, Note_off_c, 6, 33, 95
5, 1333440, Note_on_c, 6, 33, 95
5, 1333920, Note_off_c, 6, 33, 95
5, 1334400, Note_on_c, 6, 31, 95
5, 1334880, Note_off_c, 6, 31, 95
5, 1334880, Note_on_c, 6, 45, 95
5, 1335840, Note_off_c, 6, 45, 95
5, 1335840, Note_on_c, 6, 37, 95
5, 1336080, Note_off_c, 6, 37, 95
5, 1336080, Note_on_c, 6, 38, 95
5, 1336320, Note_off_c, 6, 38, 95
5, 1336320, Note_on_c, 6, 40, 95
5, 1336560, Note_off_c, 6, 40, 95
5, 1336800, Note_on_c, 6, 33, 95
5, 1337280, Note_off_c, 6, 33, 95
5, 1337760, Note_on_c, 6, 33, 95
5, 1338240, Note_off_c, 6, 33, 95
5, 1338720, Note_on_c, 6, 45, 95
5, 1339680, Note_off_c, 6, 45, 95
5, 1339680, Note_on_c, 6, 45, 95
5, 1340160, Note_off_c, 6, 45, 95
5, 1340160, Note_on_c, 6, 33, 95
5, 1340640, Note_off_c, 6, 33, 95
5, 1341600, Note_on_c, 6, 33, 95
5, 1342080, Note_off_c, 6, 33, 95
5, 1342560, Note_on_c, 6, 31, 95
5, 1343040, Note_off_c, 6, 31, 95
5, 1343520, Note_on_c, 6, 34, 95
5, 1344000, Note_off_c, 6, 34, 95
5, 1344480, Note_on_c, 6, 33, 95
5, 1344960, Note_off_c, 6, 33, 95
5, 1345440, Note_on_c, 6, 33, 95
5, 1345920, Note_off_c, 6, 33, 95
5, 1346400, Note_on_c, 6, 45, 95
5, 1347360, Note_off_c, 6, 45, 95
5, 1347360, Note_on_c, 6, 45, 95
5, 1347840, Note_off_c, 6, 45, 95
5, 1347840, Note_on_c, 6, 33, 95
5, 1348320, Note_off_c, 6, 33, 95
5, 1348800, Note_on_c, 6, 33, 95
5, 1349280, Note_off_c, 6, 33, 95
5, 1349760, Note_on_c, 6, 31, 95
5, 1350240, Note_off_c, 6, 31, 95
5, 1350240, Note_on_c, 6, 45, 95
5, 1351200, Note_off_c, 6, 45, 95
5, 1351200, Note_on_c, 6, 37, 95
5, 1351440, Note_off_c, 6, 37, 95
5, 1351440, Note_on_c, 6, 38, 95
5, 1351680, Note_off_c, 6, 38, 95
5, 1351680, Note_on_c, 6, 40, 95
5, 1351920, Note_off_c, 6, 40, 95
5, 1352160, Note_on_c, 6, 33, 95
5, 1352640, Note_off_c, 6, 33, 95
5, 1353120, Note_on_c, 6, 33, 95
5, 1353600, Note_off_c, 6, 33, 95
5, 1354080, Note_on_c, 6, 45, 95
5, 1355040, Note_off_c, 6, 45, 95
5, 1355040, Note_on_c, 6, 45, 95
5, 1355520, Note_off_c, 6, 45, 95
5, 1355520, Note_on_c, 6, 33, 95
5, 1356000, Note_off_c, 6, 33, 95
5, 1356480, Note_on_c, 6, 33, 95
5, 1356960, Note_off_c, 6, 33, 95
5, 1356960, Note_on_c, 6, 34, 95
5, 1357440, Note_off_c, 6, 34, 95
5, 1357440, Note_on_c, 6, 37, 95
5, 1357920, Note_off_c, 6, 37, 95
5, 1357920, Note_on_c, 6, 38, 95
5, 1358400, Note_off_c, 6, 38, 95
5, 1358400, Note_on_c, 6, 41, 95
5, 1358880, Note_off_c, 6, 41, 95
5, 1358880, Note_on_c, 6, 40, 95
5, 1359000, Note_off_c, 6, 40, 95
5, 1359000, Note_on_c, 6, 41, 70
5, 1359120, Note_off_c, 6, 41, 70
5, 1359120, Note_on_c, 6, 40, 70
5, 1359360, Note_off_c, 6, 40, 70
5, 1359360, Note_on_c, 6, 38, 95
5, 1359840, Note_off_c, 6, 38, 95
5, 1359840, Note_on_c, 6, 33, 95
5, 1360320, Note_off_c, 6, 33, 95
5, 1360800, Note_on_c, 6, 33, 95
5, 1361280, Note_off_c, 6, 33, 95
5, 1361760, Note_on_c, 6, 45, 95
5, 1362720, Note_off_c, 6, 45, 95
5, 1362720, Note_on_c, 6, 45, 95
5, 1363200, Note_off_c, 6, 45, 95
5, 1363200, Note_on_c, 6, 33, 95
5, 1363680, Note_off_c, 6, 33, 95
5, 1364160, Note_on_c, 6, 33, 95
5, 1364640, Note_off_c, 6, 33, 95
5, 1365120, Note_on_c, 6, 31, 95
5, 1365600, Note_off_c, 6, 31, 95
5, 1365600, Note_on_c, 6, 45, 95
5, 1366560, Note_off_c, 6, 45, 95
5, 1366560, Note_on_c, 6, 37, 95
5, 1366800, Note_off_c, 6, 37, 95
5, 1366800, Note_on_c, 6, 38, 95
5, 1367040, Note_off_c, 6, 38, 95
5, 1367040, Note_on_c, 6, 40, 95
5, 1367280, Note_off_c, 6, 40, 95
5, 1367520, Note_on_c, 6, 33, 95
5, 1368000, Note_off_c, 6, 33, 95
5, 1368480, Note_on_c, 6, 33, 95
5, 1368960, Note_off_c, 6, 33, 95
5, 1369440, Note_on_c, 6, 45, 95
5, 1370400, Note_off_c, 6, 45, 95
5, 1370400, Note_on_c, 6, 45, 95
5, 1370880, Note_off_c, 6, 45, 95
5, 1370880, Note_on_c, 6, 33, 95
5, 1371360, Note_off_c, 6, 33, 95
5, 1372320, Note_on_c, 6, 33, 95
5, 1372800, Note_off_c, 6, 33, 95
5, 1373280, Note_on_c, 6, 31, 95
5, 1373760, Note_off_c, 6, 31, 95
5, 1374240, Note_on_c, 6, 34, 95
5, 1374720, Note_off_c, 6, 34, 95
5, 1375200, Note_on_c, 6, 33, 95
5, 1375680, Note_off_c, 6, 33, 95
5, 1376160, Note_on_c, 6, 33, 95
5, 1376640, Note_off_c, 6, 33, 95
5, 1377120, Note_on_c, 6, 45, 95
5, 1378080, Note_off_c, 6, 45, 95
5, 1378080, Note_on_c, 6, 45, 95
5, 1378560, Note_off_c, 6, 45, 95
5, 1378560, Note_on_c, 6, 33, 95
5, 1379040, Note_off_c, 6, 33, 95
5, 1379520, Note_on_c, 6, 33, 95
5, 1380000, Note_off_c, 6, 33, 95
5, 1380480, Note_on_c, 6, 31, 95
5, 1380960, Note_off_c, 6, 31, 95
5, 1380960, Note_on_c, 6, 45, 95
5, 1381920, Note_off_c, 6, 45, 95
5, 1381920, Note_on_c, 6, 37, 95
5, 1382160, Note_off_c, 6, 37, 95
5, 1382160, Note_on_c, 6, 38, 95
5, 1382400, Note_off_c, 6, 38, 95
5, 1382400, Note_on_c, 6, 40, 95
5, 1382640, Note_off_c, 6, 40, 95
5, 1382880, Note_on_c, 6, 33, 95
5, 1383360, Note_off_c, 6, 33, 95
5, 1383840, Note_on_c, 6, 33, 95
5, 1384320, Note_off_c, 6, 33, 95
5, 1384800, Note_on_c, 6, 45, 95
5, 1385760, Note_off_c, 6, 45, 95
5, 1385760, Note_on_c, 6, 45, 95
5, 1386240, Note_off_c, 6, 45, 95
5, 1386240, Note_on_c, 6, 33, 95
5, 1386720, Note_off_c, 6, 33, 95
5, 1387680, Note_on_c, 6, 33, 95
5, 1388160, Note_off_c, 6, 33, 95
5, 1388640, Note_on_c, 6, 31, 95
5, 1389120, Note_off_c, 6, 31, 95
5, 1389600, Note_on_c, 6, 34, 95
5, 1390080, Note_off_c, 6, 34, 95
5, 1390560, Note_on_c, 6, 33, 95
5, 1391040, Note_off_c, 6, 33, 95
5, 1391520, Note_on_c, 6, 33, 95
5, 1392000, Note_off_c, 6, 33, 95
5, 1392480, Note_on_c, 6, 45, 95
5, 1393440, Note_off_c, 6, 45, 95
5, 1393440, Note_on_c, 6, 45, 95
5, 1393920, Note_off_c, 6, 45, 95
5, 1393920, Note_on_c, 6, 33, 95
5, 1394400, Note_off_c, 6, 33, 95
5, 1394880, Note_on_c, 6, 33, 95
5, 1395360, Note_off_c, 6, 33, 95
5, 1395840, Note_on_c, 6, 31, 95
5, 1396320, Note_off_c, 6, 31, 95
5, 1396320, Note_on_c, 6, 45, 95
5, 1397280, Note_off_c, 6, 45, 95
5, 1397280, Note_on_c, 6, 37, 95
5, 1397520, Note_off_c, 6, 37, 95
5, 1397520, Note_on_c, 6, 38, 95
5, 1397760, Note_off_c, 6, 38, 95
5, 1397760, Note_on_c, 6, 40, 95
5, 1398000, Note_off_c, 6, 40, 95
5, 1398240, Note_on_c, 6, 33, 95
5, 1398720, Note_off_c, 6, 33, 95
5, 1399200, Note_on_c, 6, 33, 95
5, 1399680, Note_off_c, 6, 33, 95
5, 1400160, Note_on_c, 6, 45, 95
5, 1401120, Note_off_c, 6, 45, 95
5, 1401120, Note_on_c, 6, 45, 95
5, 1401600, Note_off_c, 6, 45, 95
5, 1401600, Note_on_c, 6, 33, 95
5, 1402080, Note_off_c, 6, 33, 95
5, 1402560, Note_on_c, 6, 33, 95
5, 1403040, Note_off_c, 6, 33, 95
5, 1403040, Note_on_c, 6, 34, 95
5, 1403520, Note_off_c, 6, 34, 95
5, 1403520, Note_on_c, 6, 37, 95
5, 1404000, Note_off_c, 6, 37, 95
5, 1404000, Note_on_c, 6, 38, 95
5, 1404480, Note_off_c, 6, 38, 95
5, 1404480, Note_on_c, 6, 41, 95
5, 1404960, Note_off_c, 6, 41, 95
5, 1404960, Note_on_c, 6, 40, 95
5, 1405080, Note_off_c, 6, 40, 95
5, 1405080, Note_on_c, 6, 41, 70
5, 1405200, Note_off_c, 6, 41, 70
5, 1405200, Note_on_c, 6, 40, 70
5, 1405440, Note_off_c, 6, 40, 70
5, 1405440, Note_on_c, 6, 38, 95
5, 1405920, Note_off_c, 6, 38, 95
5, 1405920, Note_on_c, 6, 33, 95
5, 1406400, Note_off_c, 6, 33, 95
5, 1406880, Note_on_c, 6, 33, 95
5, 1407360, Note_off_c, 6, 33, 95
5, 1407840, Note_on_c, 6, 45, 95
5, 1408800, Note_off_c, 6, 45, 95
5, 1408800, Note_on_c, 6, 45, 95
5, 1409280, Note_off_c, 6, 45, 95
5, 1409280, Note_on_c, 6, 33, 95
5, 1409760, Note_off_c, 6, 33, 95
5, 1410240, Note_on_c, 6, 33, 95
5, 1410720, Note_off_c, 6, 33, 95
5, 1411200, Note_on_c, 6, 31, 95
5, 1411680, Note_off_c, 6, 31, 95
5, 1411680, Note_on_c, 6, 45, 95
5, 1412640, Note_off_c, 6, 45, 95
5, 1412640, Note_on_c, 6, 37, 95
5, 1412880, Note_off_c, 6, 37, 95
5, 1412880, Note_on_c, 6, 38, 95
5, 1413120, Note_off_c, 6, 38, 95
5, 1413120, Note_on_c, 6, 40, 95
5, 1413360, Note_off_c, 6, 40, 95
5, 1413600, Note_on_c, 6, 33, 95
5, 1414080, Note_off_c, 6, 33, 95
5, 1414560, Note_on_c, 6, 33, 95
5, 1415040, Note_off_c, 6, 33, 95
5, 1415520, Note_on_c, 6, 45, 95
5, 1416480, Note_off_c, 6, 45, 95
5, 1416480, Note_on_c, 6, 45, 95
5, 1416960, Note_off_c, 6, 45, 95
5, 1416960, Note_on_c, 6, 33, 95
5, 1417440, Note_off_c, 6, 33, 95
5, 1418400, Note_on_c, 6, 33, 95
5, 1418880, Note_off_c, 6, 33, 95
5, 1419360, Note_on_c, 6, 31, 95
5, 1419840, Note_off_c, 6, 31, 95
5, 1420320, Note_on_c, 6, 34, 95
5, 1420800, Note_off_c, 6, 34, 95
5, 1421280, Note_on_c, 6, 33, 95
5, 1421760, Note_off_c, 6, 33, 95
5, 1422240, Note_on_c, 6, 33, 95
5, 1422720, Note_off_c, 6, 33, 95
5, 1423200, Note_on_c, 6, 45, 95
5, 1424160, Note_off_c, 6, 45, 95
5, 1424160, Note_on_c, 6, 45, 95
5, 1424640, Note_off_c, 6, 45, 95
5, 1424640, Note_on_c, 6, 33, 95
5, 1425120, Note_off_c, 6, 33, 95
5, 1425600, Note_on_c, 6, 33, 95
5, 1426080, Note_off_c, 6, 33, 95
5, 1426560, Note_on_c, 6, 31, 95
5, 1427040, Note_off_c, 6, 31, 95
5, 1427040, Note_on_c, 6, 45, 95
5, 1428000, Note_off_c, 6, 45, 95
5, 1428000, Note_on_c, 6, 37, 95
5, 1428240, Note_off_c, 6, 37, 95
5, 1428240, Note_on_c, 6, 38, 95
5, 1428480, Note_off_c, 6, 38, 95
5, 1428480, Note_on_c, 6, 40, 95
5, 1428720, Note_off_c, 6, 40, 95
5, 1428960, Note_on_c, 6, 33, 95
5, 1429440, Note_off_c, 6, 33, 95
5, 1429920, Note_on_c, 6, 33, 95
5, 1430400, Note_off_c, 6, 33, 95
5, 1430880, Note_on_c, 6, 45, 95
5, 1431840, Note_off_c, 6, 45, 95
5, 1431840, Note_on_c, 6, 45, 95
5, 1432320, Note_off_c, 6, 45, 95
5, 1432320, Note_on_c, 6, 33, 95
5, 1432800, Note_off_c, 6, 33, 95
5, 1433760, Note_on_c, 6, 33, 95
5, 1434240, Note_off_c, 6, 33, 95
5, 1434720, Note_on_c, 6, 31, 95
5, 1435200, Note_off_c, 6, 31, 95
5, 1435680, Note_on_c, 6, 34, 95
5, 1436160, Note_off_c, 6, 34, 95
5, 1436640, Note_on_c, 6, 33, 95
5, 1437120, Note_off_c, 6, 33, 95
5, 1437600, Note_on_c, 6, 33, 95
5, 1438080, Note_off_c, 6, 33, 95
5, 1438560, Note_on_c, 6, 45, 95
5, 1439520, Note_off_c, 6, 45, 95
5, 1439520, Note_on_c, 6, 45, 95
5, 1440000, Note_off_c, 6, 45, 95
5, 1440000, Note_on_c, 6, 33, 95
5, 1440480, Note_off_c, 6, 33, 95
5, 1440960, Note_on_c, 6, 33, 95
5, 1441440, Note_off_c, 6, 33, 95
5, 1441920, Note_on_c, 6, 31, 95
5, 1442400, Note_off_c, 6, 31, 95
5, 1442400, Note_on_c, 6, 45, 95
5, 1443360, Note_off_c, 6, 45, 95
5, 1443360, Note_on_c, 6, 37, 95
5, 1443600, Note_off_c, 6, 37, 95
5, 1443600, Note_on_c, 6, 38, 95
5, 1443840, Note_off_c, 6, 38, 95
5, 1443840, Note_on_c, 6, 40, 95
5, 1444080, Note_off_c, 6, 40, 95
5, 1444320, Note_on_c, 6, 33, 95
5, 1444800, Note_off_c, 6, 33, 95
5, 1445280, Note_on_c, 6, 33, 95
5, 1445760, Note_off_c, 6, 33, 95
5, 1446240, Note_on_c, 6, 45, 95
5, 1447200, Note_off_c, 6, 45, 95
5, 1447200, Note_on_c, 6, 45, 95
5, 1447680, Note_off_c, 6, 45, 95
5, 1447680, Note_on_c, 6, 33, 95
5, 1448160, Note_off_c, 6, 33, 95
5, 1448640, Note_on_c, 6, 33, 95
5, 1449120, Note_off_c, 6, 33, 95
5, 1449120, Note_on_c, 6, 34, 95
5, 1449600, Note_off_c, 6, 34, 95
5, 1449600, Note_on_c, 6, 37, 95
5, 1450080, Note_off_c, 6, 37, 95
5, 1450080, Note_on_c, 6, 38, 95
5, 1450560, Note_off_c, 6, 38, 95
5, 1450560, Note_on_c, 6, 41, 95
5, 1451040, Note_off_c, 6, 41, 95
5, 1451040, Note_on_c, 6, 40, 95
5, 1451160, Note_off_c, 6, 40, 95
5, 1451160, Note_on_c, 6, 41, 70
5, 1451280, Note_off_c, 6, 41, 70
5, 1451280, Note_on_c, 6, 40, 70
5, 1451520, Note_off_c, 6, 40, 70
5, 1451520, Note_on_c, 6, 38, 95
5, 1452000, Note_off_c, 6, 38, 95
5, 1452000, Note_on_c, 6, 33, 95
5, 1452480, Note_off_c, 6, 33, 95
5, 1452960, Note_on_c, 6, 33, 95
5, 1453440, Note_off_c, 6, 33, 95
5, 1453920, Note_on_c, 6, 45, 95
5, 1454880, Note_off_c, 6, 45, 95
5, 1454880, Note_on_c, 6, 45, 95
5, 1455360, Note_off_c, 6, 45, 95
5, 1455360, Note_on_c, 6, 33, 95
5, 1455840, Note_off_c, 6, 33, 95
5, 1456320, Note_on_c, 6, 33, 95
5, 1456800, Note_off_c, 6, 33, 95
5, 1457280, Note_on_c, 6, 31, 95
5, 1457760, Note_off_c, 6, 31, 95
5, 1457760, Note_on_c, 6, 45, 95
5, 1458720, Note_off_c, 6, 45, 95
5, 1458720, Note_on_c, 6, 37, 95
5, 1458960, Note_off_c, 6, 37, 95
5, 1458960, Note_on_c, 6, 38, 95
5, 1459200, Note_off_c, 6, 38, 95
5, 1459200, Note_on_c, 6, 40, 95
5, 1459440, Note_off_c, 6, 40, 95
5, 1459680, Note_on_c, 6, 33, 95
5, 1460160, Note_off_c, 6, 33, 95
5, 1460640, Note_on_c, 6, 33, 95
5, 1461120, Note_off_c, 6, 33, 95
5, 1461600, Note_on_c, 6, 45, 95
5, 1462560, Note_off_c, 6, 45, 95
5, 1462560, Note_on_c, 6, 45, 95
5, 1463040, Note_off_c, 6, 45, 95
5, 1463040, Note_on_c, 6, 33, 95
5, 1463520, Note_off_c, 6, 33, 95
5, 1464480, Note_on_c, 6, 33, 95
5, 1464960, Note_off_c, 6, 33, 95
5, 1465440, Note_on_c, 6, 31, 95
5, 1465920, Note_off_c, 6, 31, 95
5, 1466400, Note_on_c, 6, 34, 95
5, 1466880, Note_off_c, 6, 34, 95
5, 1467360, Note_on_c, 6, 33, 95
5, 1467840, Note_off_c, 6, 33, 95
5, 1468320, Note_on_c, 6, 33, 95
5, 1468800, Note_off_c, 6, 33, 95
5, 1469280, Note_on_c, 6, 45, 95
5, 1470240, Note_off_c, 6, 45, 95
5, 1470240, Note_on_c, 6, 45, 95
5, 1470720, Note_off_c, 6, 45, 95
5, 1470720, Note_on_c, 6, 33, 95
5, 1471200, Note_off_c, 6, 33, 95
5, 1471680, Note_on_c, 6, 33, 95
5, 1472160, Note_off_c, 6, 33, 95
5, 1472640, Note_on_c, 6, 31, 95
5, 1473120, Note_off_c, 6, 31, 95
5, 1473120, Note_on_c, 6, 45, 95
5, 1474080, Note_off_c, 6, 45, 95
5, 1474080, Note_on_c, 6, 37, 95
5, 1474320, Note_off_c, 6, 37, 95
5, 1474320, Note_on_c, 6, 38, 95
5, 1474560, Note_off_c, 6, 38, 95
5, 1474560, Note_on_c, 6, 40, 95
5, 1474800, Note_off_c, 6, 40, 95
5, 1475040, Note_on_c, 6, 33, 95
5, 1475520, Note_off_c, 6, 33, 95
5, 1476000, Note_on_c, 6, 33, 95
5, 1476480, Note_off_c, 6, 33, 95
5, 1476960, Note_on_c, 6, 45, 95
5, 1477920, Note_off_c, 6, 45, 95
5, 1477920, Note_on_c, 6, 45, 95
5, 1478400, Note_off_c, 6, 45, 95
5, 1478400, Note_on_c, 6, 33, 95
5, 1478880, Note_off_c, 6, 33, 95
5, 1479360, Note_on_c, 6, 33, 95
5, 1479840, Note_off_c, 6, 33, 95
5, 1479840, Note_on_c, 6, 34, 95
5, 1480320, Note_off_c, 6, 34, 95
5, 1480320, Note_on_c, 6, 37, 95
5, 1480800, Note_off_c, 6, 37, 95
5, 1480800, Note_on_c, 6, 38, 95
5, 1481280, Note_off_c, 6, 38, 95
5, 1481280, Note_on_c, 6, 41, 95
5, 1481760, Note_off_c, 6, 41, 95
5, 1481760, Note_on_c, 6, 40, 95
5, 1481880, Note_off_c, 6, 40, 95
5, 1481880, Note_on_c, 6, 41, 70
5, 1482000, Note_off_c, 6, 41, 70
5, 1482000, Note_on_c, 6, 40, 70
5, 1482240, Note_off_c, 6, 40, 70
5, 1482240, Note_on_c, 6, 38, 95
5, 1482720, Note_off_c, 6, 38, 95
5, 1482720, End_track
0, 0, End_of_file
