0, 0, Header, 1, 17, 120
1, 0, Start_track
1, 0, Time_signature, 4, 2, 24, 8
1, 0, Key_signature, -2, "major"
1, 0, Tempo, 483870
1, 0, End_track
2, 0, Start_track
2, 0, MIDI_port, 0
2, 0, Title_t, "Soft Karaoke"
2, 0, Text_t, "@KMIDI KARAOKE FILE tm"
2, 0, Text_t, "@KAll rights reserved, TUNE 1000 CORP."
2, 0, Text_t, "@V0100"
2, 0, Text_t, "@I 05-26-93, 13:00, D.B."
2, 0, Text_t, "@KCopyright EMI International rights secured"
2, 0, End_track
3, 0, Start_track
3, 0, MIDI_port, 0
3, 0, Title_t, "Words"
3, 0, Text_t, "@LENGL"
3, 0, Text_t, "@T(IF THERE WAS) ANY OTHER WAY"
3, 0, Text_t, "@TWords & Music by Paul Bliss"
3, 0, Text_t, "@TCopyright EMI International rights secured"
3, 0, Text_t, "@WALL rights reserved. Not for broadcast or"
3, 0, Text_t, "@Wtransmission of any kind."
3, 0, Text_t, "@WDO NOT DUPLICATE. NOT FOR RENTAL."
3, 4560, Text_t, "\\Sor"
3, 4620, Text_t, "ry,"
3, 4680, Text_t, " I"
3, 4802, Text_t, " know"
3, 4860, Text_t, " I'm"
3, 4980, Text_t, " late,"
3, 5100, Text_t, "/guess"
3, 5160, Text_t, " I"
3, 5220, Text_t, " lost"
3, 5343, Text_t, " all"
3, 5459, Text_t, " track"
3, 5578, Text_t, " of"
3, 5700, Text_t, " time."
3, 6360, Text_t, "\\Start"
3, 6420, Text_t, "ed"
3, 6480, Text_t, " walk"
3, 6540, Text_t, "ing"
3, 6600, Text_t, " and"
3, 6660, Text_t, " could"
3, 6722, Text_t, "n't"
3, 6780, Text_t, " stop,"
3, 6960, Text_t, "/turn"
3, 7020, Text_t, "ing"
3, 7080, Text_t, " it"
3, 7140, Text_t, " o"
3, 7320, Text_t, "ver"
3, 7440, Text_t, " in"
3, 7560, Text_t, " my"
3, 7620, Text_t, " mind."
3, 8280, Text_t, "\\Trying"
3, 8340, Text_t, " to"
3, 8400, Text_t, " make"
3, 8460, Text_t, " some"
3, 8580, Text_t, " sense"
3, 8642, Text_t, " of"
3, 8700, Text_t, " it, "
3, 8882, Text_t, "/try"
3, 8939, Text_t, "ing"
3, 9000, Text_t, " to"
3, 9059, Text_t, " make"
3, 9240, Text_t, " the"
3, 9298, Text_t, " piec"
3, 9419, Text_t, "es"
3, 9599, Text_t, " fit."
3, 10140, Text_t, "\\I"
3, 10200, Text_t, " thought"
3, 10260, Text_t, " I"
3, 10320, Text_t, " cov"
3, 10380, Text_t, "ered"
3, 10440, Text_t, " my"
3, 10562, Text_t, " tracks"
3, 10680, Text_t, " so"
3, 10740, Text_t, " well,"
3, 10980, Text_t, "/but"
3, 11040, Text_t, " now"
3, 11160, Text_t, " he"
3, 11222, Text_t, " says"
3, 11460, Text_t, " he"
3, 11520, Text_t, " knew"
3, 11580, Text_t, " a"
3, 11640, Text_t, "bout"
3, 11700, Text_t, " it"
3, 11760, Text_t, " from"
3, 11880, Text_t, " the"
3, 11940, Text_t, " start."
3, 12780, Text_t, "/Yeah,"
3, 12900, Text_t, " he"
3, 12960, Text_t, " knew"
3, 13020, Text_t, " a"
3, 13080, Text_t, "bout"
3, 13200, Text_t, " us"
3, 13380, Text_t, " all"
3, 13500, Text_t, " a"
3, 13620, Text_t, "long."
3, 13740, Text_t, "\\If"
3, 13800, Text_t, " there"
3, 13860, Text_t, " was"
3, 13922, Text_t, " an"
3, 14043, Text_t, "y"
3, 14162, Text_t, " oth"
3, 14280, Text_t, "er"
3, 14340, Text_t, " way,"
3, 14582, Text_t, " love,"
3, 15362, Text_t, "/don't"
3, 15420, Text_t, " you"
3, 15480, Text_t, " think"
3, 15540, Text_t, " I've"
3, 15600, Text_t, " tried"
3, 15720, Text_t, " to"
3, 15782, Text_t, " find"
3, 15900, Text_t, " it?"
3, 16320, Text_t, "/Don't "
3, 16380, Text_t, "you"
3, 16440, Text_t, " think"
3, 16502, Text_t, " I"
3, 16560, Text_t, " want"
3, 16620, Text_t, " to"
3, 16680, Text_t, " stay?"
3, 17580, Text_t, "\\If"
3, 17640, Text_t, " there"
3, 17700, Text_t, " was"
3, 17762, Text_t, " an"
3, 17882, Text_t, "y"
3, 18002, Text_t, " oth"
3, 18122, Text_t, "er"
3, 18182, Text_t, " way,"
3, 18424, Text_t, " love,"
3, 19022, Text_t, "/there's "
3, 19142, Text_t, "no"
3, 19262, Text_t, " way"
3, 19382, Text_t, " out"
3, 19502, Text_t, " of"
3, 19562, Text_t, " this,"
3, 19982, Text_t, "/there"
3, 20044, Text_t, " just"
3, 20162, Text_t, " ain't"
3, 20222, Text_t, " an"
3, 20282, Text_t, "y"
3, 20342, Text_t, " oth"
3, 20402, Text_t, "er"
3, 20462, Text_t, " way."
3, 22082, Text_t, "\\Mmm..."
3, 22322, Text_t, " May"
3, 22382, Text_t, "be"
3, 22442, Text_t, " I'd"
3, 22562, Text_t, " bet"
3, 22622, Text_t, "ter"
3, 22682, Text_t, " be"
3, 22742, Text_t, " leav"
3, 22862, Text_t, "ing"
3, 23042, Text_t, " now."
3, 23582, Text_t, "/But "
3, 23642, Text_t, "there's"
3, 23762, Text_t, " some"
3, 23822, Text_t, "thing"
3, 23882, Text_t, " I"
3, 23942, Text_t, " want"
3, 24122, Text_t, " you"
3, 24242, Text_t, " to"
3, 24302, Text_t, " un"
3, 24362, Text_t, "der"
3, 24422, Text_t, "stand"
3, 24602, Text_t, "/be"
3, 24662, Text_t, "fore"
3, 24782, Text_t, " I"
3, 24902, Text_t, " go."
3, 25442, Text_t, "\\Some"
3, 25562, Text_t, "times"
3, 25682, Text_t, " we"
3, 25742, Text_t, " don't"
3, 25862, Text_t, " have"
3, 25922, Text_t, " a"
3, 25982, Text_t, " choice"
3, 26222, Text_t, "/when"
3, 26282, Text_t, " we"
3, 26342, Text_t, " play"
3, 26522, Text_t, " and"
3, 26642, Text_t, " break"
3, 26762, Text_t, " the"
3, 26822, Text_t, " rules."
3, 27422, Text_t, "\\I"
3, 27482, Text_t, " just"
3, 27602, Text_t, " had"
3, 27722, Text_t, " to"
3, 27782, Text_t, " see"
3, 27902, Text_t, " you,"
3, 28022, Text_t, " dar"
3, 28142, Text_t, "lin',"
3, 28322, Text_t, " one"
3, 28442, Text_t, " more"
3, 28562, Text_t, " time"
3, 28742, Text_t, "/if "
3, 28802, Text_t, "on"
3, 28862, Text_t, "ly"
3, 28922, Text_t, " just"
3, 28982, Text_t, " to"
3, 29042, Text_t, " say"
3, 29162, Text_t, " good"
3, 29222, Text_t, "bye,"
3, 30062, Text_t, "/'cause"
3, 30182, Text_t, " he"
3, 30242, Text_t, " knew"
3, 30302, Text_t, " a"
3, 30362, Text_t, "bout"
3, 30482, Text_t, " us"
3, 30662, Text_t, " all"
3, 30782, Text_t, " that"
3, 30902, Text_t, " time."
3, 31022, Text_t, "\\If"
3, 31082, Text_t, " there"
3, 31142, Text_t, " was"
3, 31202, Text_t, " an"
3, 31322, Text_t, "y"
3, 31442, Text_t, " oth"
3, 31562, Text_t, "er"
3, 31622, Text_t, " way,"
3, 31862, Text_t, " love,"
3, 32642, Text_t, "/don't"
3, 32702, Text_t, " you"
3, 32762, Text_t, " think"
3, 32822, Text_t, " I've"
3, 32882, Text_t, " tried"
3, 33002, Text_t, " to"
3, 33062, Text_t, " find"
3, 33182, Text_t, " it?"
3, 33602, Text_t, "/Don't "
3, 33662, Text_t, "you"
3, 33722, Text_t, " think"
3, 33782, Text_t, " I"
3, 33842, Text_t, " want"
3, 33902, Text_t, " to"
3, 33962, Text_t, " stay?"
3, 34862, Text_t, "\\If"
3, 34922, Text_t, " there"
3, 34982, Text_t, " was"
3, 35042, Text_t, " an"
3, 35162, Text_t, "y"
3, 35282, Text_t, " oth"
3, 35402, Text_t, "er"
3, 35462, Text_t, " way,"
3, 35702, Text_t, " love,"
3, 36302, Text_t, "/there's "
3, 36422, Text_t, "no"
3, 36542, Text_t, " way"
3, 36662, Text_t, " out"
3, 36782, Text_t, " of"
3, 36842, Text_t, " this,"
3, 37262, Text_t, "/there"
3, 37322, Text_t, " just"
3, 37442, Text_t, " ain't"
3, 37502, Text_t, " an"
3, 37562, Text_t, "y"
3, 37622, Text_t, " oth"
3, 37682, Text_t, "er"
3, 37742, Text_t, " way."
3, 38942, Text_t, "\\I"
3, 39002, Text_t, " nev"
3, 39062, Text_t, "er"
3, 39122, Text_t, " want"
3, 39182, Text_t, "ed"
3, 39242, Text_t, " it"
3, 39302, Text_t, " to"
3, 39362, Text_t, " be"
3, 39482, Text_t, " like"
3, 39602, Text_t, " this,"
3, 39902, Text_t, "/I"
3, 39962, Text_t, " nev"
3, 40022, Text_t, "er"
3, 40082, Text_t, " meant"
3, 40142, Text_t, " to"
3, 40202, Text_t, " get"
3, 40322, Text_t, " se"
3, 40442, Text_t, "ri"
3, 40502, Text_t, "ous."
3, 40862, Text_t, "\\But"
3, 40922, Text_t, " now"
3, 40982, Text_t, " the"
3, 41042, Text_t, " thought"
3, 41222, Text_t, " of"
3, 41282, Text_t, " los"
3, 41402, Text_t, "ing"
3, 41522, Text_t, " you"
3, 41762, Text_t, "/takes"
3, 41822, Text_t, " some"
3, 41882, Text_t, " get"
3, 41942, Text_t, "ting"
3, 42002, Text_t, " used"
3, 42122, Text_t, " to."
3, 46382, Text_t, "\\If"
3, 46442, Text_t, " there"
3, 46502, Text_t, " was"
3, 46562, Text_t, " an"
3, 46682, Text_t, "y"
3, 46802, Text_t, " oth"
3, 46922, Text_t, "er"
3, 46982, Text_t, " way,"
3, 47222, Text_t, " love,"
3, 48002, Text_t, "/don't"
3, 48062, Text_t, " you"
3, 48122, Text_t, " think"
3, 48182, Text_t, " I've"
3, 48242, Text_t, " tried"
3, 48362, Text_t, " to"
3, 48422, Text_t, " find"
3, 48542, Text_t, " it?"
3, 48962, Text_t, "/Don't "
3, 49022, Text_t, "you"
3, 49082, Text_t, " think"
3, 49142, Text_t, " I"
3, 49202, Text_t, " want"
3, 49262, Text_t, " to"
3, 49322, Text_t, " stay?"
3, 50222, Text_t, "\\If"
3, 50282, Text_t, " there"
3, 50342, Text_t, " was"
3, 50402, Text_t, " an"
3, 50522, Text_t, "y"
3, 50642, Text_t, " oth"
3, 50762, Text_t, "er"
3, 50822, Text_t, " way,"
3, 51062, Text_t, " love,"
3, 51662, Text_t, "/there's"
3, 51782, Text_t, " no"
3, 51902, Text_t, " way"
3, 52022, Text_t, " out"
3, 52142, Text_t, " of"
3, 52202, Text_t, " this,"
3, 52622, Text_t, "/there"
3, 52682, Text_t, " just"
3, 52802, Text_t, " ain't"
3, 52862, Text_t, " an"
3, 52922, Text_t, "y"
3, 52982, Text_t, " oth"
3, 53042, Text_t, "er"
3, 53102, Text_t, " way."
3, 54062, Text_t, "\\If"
3, 54122, Text_t, " there"
3, 54182, Text_t, " was"
3, 54242, Text_t, " an"
3, 54362, Text_t, "y"
3, 54482, Text_t, " oth"
3, 54602, Text_t, "er"
3, 54662, Text_t, " way,"
3, 54902, Text_t, " love..."
3, 54902, End_track
4, 0, Start_track
4, 0, MIDI_port, 0
4, 0, Title_t, "Melody"
4, 0, Program_c, 0, 24
4, 0, Control_c, 0, 7, 110
4, 0, Control_c, 0, 10, 64
4, 0, Control_c, 0, 121, 127
4, 0, Control_c, 0, 0, 0
4, 0, Control_c, 0, 32, 0
4, 0, Control_c, 0, 11, 127
4, 0, Control_c, 0, 91, 80
4, 0, Control_c, 0, 93, 0
4, 4560, Note_on_c, 0, 70, 100
4, 4619, Note_on_c, 0, 70, 0
4, 4620, Note_on_c, 0, 70, 100
4, 4679, Note_on_c, 0, 70, 0
4, 4680, Note_on_c, 0, 69, 100
4, 4798, Note_on_c, 0, 69, 0
4, 4802, Note_on_c, 0, 67, 100
4, 4860, Note_on_c, 0, 65, 100
4, 4861, Note_on_c, 0, 67, 0
4, 4978, Note_on_c, 0, 65, 0
4, 4980, Note_on_c, 0, 67, 100
4, 5098, Note_on_c, 0, 67, 0
4, 5100, Note_on_c, 0, 62, 100
4, 5159, Note_on_c, 0, 62, 0
4, 5160, Note_on_c, 0, 65, 100
4, 5219, Note_on_c, 0, 65, 0
4, 5220, Note_on_c, 0, 67, 100
4, 5338, Note_on_c, 0, 67, 0
4, 5343, Note_on_c, 0, 65, 105
4, 5410, Note_on_c, 0, 65, 0
4, 5459, Note_on_c, 0, 65, 109
4, 5569, Note_on_c, 0, 65, 0
4, 5578, Note_on_c, 0, 62, 113
4, 5674, Note_on_c, 0, 62, 0
4, 5700, Note_on_c, 0, 60, 107
4, 5812, Note_on_c, 0, 60, 0
4, 5816, Note_on_c, 0, 58, 111
4, 6007, Note_on_c, 0, 58, 0
4, 6360, Note_on_c, 0, 70, 100
4, 6419, Note_on_c, 0, 70, 0
4, 6420, Note_on_c, 0, 70, 100
4, 6479, Note_on_c, 0, 70, 0
4, 6480, Note_on_c, 0, 69, 100
4, 6539, Note_on_c, 0, 69, 0
4, 6540, Note_on_c, 0, 67, 100
4, 6599, Note_on_c, 0, 67, 0
4, 6600, Note_on_c, 0, 65, 100
4, 6659, Note_on_c, 0, 65, 0
4, 6660, Note_on_c, 0, 67, 100
4, 6719, Note_on_c, 0, 67, 0
4, 6722, Note_on_c, 0, 65, 100
4, 6780, Note_on_c, 0, 67, 100
4, 6781, Note_on_c, 0, 65, 0
4, 6839, Note_on_c, 0, 67, 0
4, 6960, Note_on_c, 0, 62, 100
4, 7019, Note_on_c, 0, 62, 0
4, 7020, Note_on_c, 0, 63, 100
4, 7079, Note_on_c, 0, 63, 0
4, 7080, Note_on_c, 0, 65, 100
4, 7139, Note_on_c, 0, 65, 0
4, 7140, Note_on_c, 0, 65, 100
4, 7199, Note_on_c, 0, 65, 0
4, 7200, Note_on_c, 0, 67, 100
4, 7259, Note_on_c, 0, 67, 0
4, 7260, Note_on_c, 0, 65, 100
4, 7319, Note_on_c, 0, 65, 0
4, 7320, Note_on_c, 0, 65, 100
4, 7438, Note_on_c, 0, 65, 0
4, 7440, Note_on_c, 0, 67, 100
4, 7499, Note_on_c, 0, 67, 0
4, 7500, Note_on_c, 0, 70, 100
4, 7559, Note_on_c, 0, 70, 0
4, 7560, Note_on_c, 0, 70, 100
4, 7619, Note_on_c, 0, 70, 0
4, 7620, Note_on_c, 0, 70, 100
4, 7679, Note_on_c, 0, 70, 0
4, 7682, Note_on_c, 0, 65, 100
4, 7740, Note_on_c, 0, 67, 100
4, 7741, Note_on_c, 0, 65, 0
4, 7918, Note_on_c, 0, 67, 0
4, 8280, Note_on_c, 0, 70, 100
4, 8339, Note_on_c, 0, 70, 0
4, 8340, Note_on_c, 0, 69, 100
4, 8399, Note_on_c, 0, 69, 0
4, 8400, Note_on_c, 0, 69, 100
4, 8459, Note_on_c, 0, 69, 0
4, 8460, Note_on_c, 0, 67, 100
4, 8578, Note_on_c, 0, 67, 0
4, 8580, Note_on_c, 0, 67, 100
4, 8639, Note_on_c, 0, 67, 0
4, 8642, Note_on_c, 0, 65, 100
4, 8700, Note_on_c, 0, 67, 100
4, 8701, Note_on_c, 0, 65, 0
4, 8759, Note_on_c, 0, 67, 0
4, 8882, Note_on_c, 0, 62, 100
4, 8937, Note_on_c, 0, 62, 0
4, 8939, Note_on_c, 0, 63, 100
4, 8996, Note_on_c, 0, 63, 0
4, 9000, Note_on_c, 0, 65, 100
4, 9058, Note_on_c, 0, 65, 0
4, 9059, Note_on_c, 0, 67, 100
4, 9177, Note_on_c, 0, 67, 0
4, 9240, Note_on_c, 0, 65, 100
4, 9290, Note_on_c, 0, 65, 0
4, 9298, Note_on_c, 0, 65, 100
4, 9353, Note_on_c, 0, 65, 0
4, 9419, Note_on_c, 0, 62, 100
4, 9561, Note_on_c, 0, 62, 0
4, 9599, Note_on_c, 0, 62, 100
4, 9628, Note_on_c, 0, 62, 0
4, 9629, Note_on_c, 0, 60, 100
4, 9653, Note_on_c, 0, 60, 0
4, 9658, Note_on_c, 0, 58, 100
4, 9776, Note_on_c, 0, 58, 0
4, 10140, Note_on_c, 0, 58, 100
4, 10199, Note_on_c, 0, 58, 0
4, 10200, Note_on_c, 0, 67, 100
4, 10259, Note_on_c, 0, 67, 0
4, 10260, Note_on_c, 0, 70, 100
4, 10319, Note_on_c, 0, 70, 0
4, 10320, Note_on_c, 0, 70, 100
4, 10379, Note_on_c, 0, 70, 0
4, 10380, Note_on_c, 0, 67, 100
4, 10439, Note_on_c, 0, 67, 0
4, 10440, Note_on_c, 0, 70, 100
4, 10558, Note_on_c, 0, 70, 0
4, 10562, Note_on_c, 0, 72, 100
4, 10680, Note_on_c, 0, 72, 0
4, 10680, Note_on_c, 0, 67, 100
4, 10739, Note_on_c, 0, 67, 0
4, 10740, Note_on_c, 0, 67, 100
4, 10799, Note_on_c, 0, 67, 0
4, 10800, Note_on_c, 0, 65, 100
4, 10918, Note_on_c, 0, 65, 0
4, 10980, Note_on_c, 0, 65, 100
4, 11039, Note_on_c, 0, 65, 0
4, 11040, Note_on_c, 0, 67, 100
4, 11099, Note_on_c, 0, 67, 0
4, 11100, Note_on_c, 0, 65, 100
4, 11157, Note_on_c, 0, 65, 0
4, 11160, Note_on_c, 0, 65, 100
4, 11219, Note_on_c, 0, 65, 0
4, 11222, Note_on_c, 0, 67, 100
4, 11400, Note_on_c, 0, 67, 0
4, 11460, Note_on_c, 0, 70, 100
4, 11519, Note_on_c, 0, 70, 0
4, 11520, Note_on_c, 0, 74, 100
4, 11579, Note_on_c, 0, 74, 0
4, 11580, Note_on_c, 0, 75, 100
4, 11639, Note_on_c, 0, 75, 0
4, 11640, Note_on_c, 0, 74, 100
4, 11699, Note_on_c, 0, 74, 0
4, 11700, Note_on_c, 0, 70, 100
4, 11759, Note_on_c, 0, 70, 0
4, 11760, Note_on_c, 0, 67, 100
4, 11878, Note_on_c, 0, 67, 0
4, 11880, Note_on_c, 0, 65, 100
4, 11939, Note_on_c, 0, 65, 0
4, 11940, Note_on_c, 0, 72, 100
4, 12420, Note_on_c, 0, 72, 0
4, 12420, Note_on_c, 0, 74, 100
4, 12449, Note_on_c, 0, 74, 0
4, 12450, Note_on_c, 0, 72, 100
4, 12479, Note_on_c, 0, 72, 0
4, 12480, Note_on_c, 0, 70, 100
4, 12598, Note_on_c, 0, 70, 0
4, 12780, Note_on_c, 0, 70, 100
4, 12898, Note_on_c, 0, 70, 0
4, 12900, Note_on_c, 0, 70, 100
4, 12959, Note_on_c, 0, 70, 0
4, 12960, Note_on_c, 0, 72, 100
4, 13019, Note_on_c, 0, 72, 0
4, 13020, Note_on_c, 0, 67, 100
4, 13079, Note_on_c, 0, 67, 0
4, 13080, Note_on_c, 0, 67, 100
4, 13139, Note_on_c, 0, 67, 0
4, 13140, Note_on_c, 0, 65, 100
4, 13199, Note_on_c, 0, 65, 0
4, 13200, Note_on_c, 0, 65, 100
4, 13318, Note_on_c, 0, 65, 0
4, 13380, Note_on_c, 0, 74, 100
4, 13439, Note_on_c, 0, 74, 0
4, 13440, Note_on_c, 0, 72, 100
4, 13499, Note_on_c, 0, 72, 0
4, 13500, Note_on_c, 0, 72, 100
4, 13559, Note_on_c, 0, 72, 0
4, 13560, Note_on_c, 0, 70, 100
4, 13619, Note_on_c, 0, 70, 0
4, 13620, Note_on_c, 0, 70, 100
4, 13738, Note_on_c, 0, 70, 0
4, 13740, Note_on_c, 0, 62, 100
4, 13799, Note_on_c, 0, 62, 0
4, 13800, Note_on_c, 0, 67, 100
4, 13859, Note_on_c, 0, 67, 0
4, 13860, Note_on_c, 0, 69, 100
4, 13919, Note_on_c, 0, 69, 0
4, 13922, Note_on_c, 0, 70, 100
4, 14040, Note_on_c, 0, 70, 0
4, 14043, Note_on_c, 0, 69, 100
4, 14102, Note_on_c, 0, 69, 0
4, 14102, Note_on_c, 0, 67, 100
4, 14157, Note_on_c, 0, 67, 0
4, 14162, Note_on_c, 0, 67, 100
4, 14280, Note_on_c, 0, 67, 0
4, 14280, Note_on_c, 0, 65, 100
4, 14339, Note_on_c, 0, 65, 0
4, 14340, Note_on_c, 0, 62, 100
4, 14518, Note_on_c, 0, 62, 0
4, 14582, Note_on_c, 0, 72, 100
4, 14819, Note_on_c, 0, 72, 0
4, 14820, Note_on_c, 0, 74, 100
4, 14849, Note_on_c, 0, 74, 0
4, 14850, Note_on_c, 0, 72, 100
4, 14879, Note_on_c, 0, 72, 0
4, 14883, Note_on_c, 0, 70, 100
4, 15120, Note_on_c, 0, 70, 0
4, 15362, Note_on_c, 0, 72, 100
4, 15419, Note_on_c, 0, 72, 0
4, 15420, Note_on_c, 0, 72, 100
4, 15479, Note_on_c, 0, 72, 0
4, 15480, Note_on_c, 0, 72, 100
4, 15539, Note_on_c, 0, 72, 0
4, 15540, Note_on_c, 0, 70, 100
4, 15599, Note_on_c, 0, 70, 0
4, 15600, Note_on_c, 0, 74, 100
4, 15659, Note_on_c, 0, 74, 0
4, 15660, Note_on_c, 0, 67, 100
4, 15719, Note_on_c, 0, 67, 0
4, 15720, Note_on_c, 0, 67, 100
4, 15779, Note_on_c, 0, 67, 0
4, 15782, Note_on_c, 0, 70, 100
4, 15898, Note_on_c, 0, 70, 0
4, 15900, Note_on_c, 0, 72, 100
4, 15959, Note_on_c, 0, 72, 0
4, 16320, Note_on_c, 0, 72, 100
4, 16379, Note_on_c, 0, 72, 0
4, 16380, Note_on_c, 0, 72, 100
4, 16439, Note_on_c, 0, 72, 0
4, 16440, Note_on_c, 0, 72, 100
4, 16499, Note_on_c, 0, 72, 0
4, 16502, Note_on_c, 0, 70, 100
4, 16560, Note_on_c, 0, 74, 100
4, 16561, Note_on_c, 0, 70, 0
4, 16619, Note_on_c, 0, 74, 0
4, 16620, Note_on_c, 0, 67, 100
4, 16679, Note_on_c, 0, 67, 0
4, 16680, Note_on_c, 0, 67, 100
4, 16739, Note_on_c, 0, 67, 0
4, 16742, Note_on_c, 0, 65, 100
4, 16860, Note_on_c, 0, 65, 0
4, 16860, Note_on_c, 0, 67, 100
4, 16919, Note_on_c, 0, 67, 0
4, 17580, Note_on_c, 0, 62, 100
4, 17639, Note_on_c, 0, 62, 0
4, 17640, Note_on_c, 0, 67, 100
4, 17699, Note_on_c, 0, 67, 0
4, 17700, Note_on_c, 0, 69, 100
4, 17759, Note_on_c, 0, 69, 0
4, 17762, Note_on_c, 0, 70, 100
4, 17877, Note_on_c, 0, 70, 0
4, 17882, Note_on_c, 0, 69, 100
4, 17941, Note_on_c, 0, 69, 0
4, 17942, Note_on_c, 0, 67, 100
4, 18001, Note_on_c, 0, 67, 0
4, 18002, Note_on_c, 0, 67, 100
4, 18120, Note_on_c, 0, 67, 0
4, 18122, Note_on_c, 0, 65, 100
4, 18181, Note_on_c, 0, 65, 0
4, 18182, Note_on_c, 0, 62, 100
4, 18360, Note_on_c, 0, 62, 0
4, 18424, Note_on_c, 0, 74, 100
4, 18661, Note_on_c, 0, 74, 0
4, 18722, Note_on_c, 0, 70, 100
4, 18959, Note_on_c, 0, 70, 0
4, 19022, Note_on_c, 0, 74, 100
4, 19140, Note_on_c, 0, 74, 0
4, 19142, Note_on_c, 0, 75, 100
4, 19201, Note_on_c, 0, 75, 0
4, 19202, Note_on_c, 0, 74, 100
4, 19261, Note_on_c, 0, 74, 0
4, 19262, Note_on_c, 0, 74, 100
4, 19321, Note_on_c, 0, 74, 0
4, 19322, Note_on_c, 0, 72, 100
4, 19381, Note_on_c, 0, 72, 0
4, 19382, Note_on_c, 0, 72, 100
4, 19500, Note_on_c, 0, 72, 0
4, 19502, Note_on_c, 0, 70, 100
4, 19561, Note_on_c, 0, 70, 0
4, 19562, Note_on_c, 0, 74, 100
4, 19680, Note_on_c, 0, 74, 0
4, 19982, Note_on_c, 0, 62, 100
4, 20041, Note_on_c, 0, 62, 0
4, 20044, Note_on_c, 0, 70, 100
4, 20159, Note_on_c, 0, 70, 0
4, 20162, Note_on_c, 0, 69, 100
4, 20221, Note_on_c, 0, 69, 0
4, 20222, Note_on_c, 0, 69, 100
4, 20281, Note_on_c, 0, 69, 0
4, 20282, Note_on_c, 0, 70, 100
4, 20341, Note_on_c, 0, 70, 0
4, 20342, Note_on_c, 0, 69, 100
4, 20401, Note_on_c, 0, 69, 0
4, 20402, Note_on_c, 0, 67, 100
4, 20461, Note_on_c, 0, 67, 0
4, 20462, Note_on_c, 0, 65, 100
4, 20521, Note_on_c, 0, 65, 0
4, 20522, Note_on_c, 0, 67, 100
4, 20878, Note_on_c, 0, 67, 0
4, 22082, Note_on_c, 0, 70, 100
4, 22319, Note_on_c, 0, 70, 0
4, 22322, Note_on_c, 0, 70, 100
4, 22381, Note_on_c, 0, 70, 0
4, 22382, Note_on_c, 0, 70, 100
4, 22441, Note_on_c, 0, 70, 0
4, 22442, Note_on_c, 0, 69, 100
4, 22560, Note_on_c, 0, 69, 0
4, 22562, Note_on_c, 0, 67, 100
4, 22621, Note_on_c, 0, 67, 0
4, 22622, Note_on_c, 0, 65, 100
4, 22681, Note_on_c, 0, 65, 0
4, 22682, Note_on_c, 0, 62, 100
4, 22741, Note_on_c, 0, 62, 0
4, 22742, Note_on_c, 0, 65, 100
4, 22860, Note_on_c, 0, 65, 0
4, 22862, Note_on_c, 0, 62, 100
4, 22921, Note_on_c, 0, 62, 0
4, 22922, Note_on_c, 0, 60, 100
4, 23040, Note_on_c, 0, 60, 0
4, 23042, Note_on_c, 0, 60, 100
4, 23101, Note_on_c, 0, 60, 0
4, 23102, Note_on_c, 0, 58, 100
4, 23280, Note_on_c, 0, 58, 0
4, 23582, Note_on_c, 0, 65, 100
4, 23641, Note_on_c, 0, 65, 0
4, 23642, Note_on_c, 0, 70, 100
4, 23760, Note_on_c, 0, 70, 0
4, 23762, Note_on_c, 0, 70, 100
4, 23821, Note_on_c, 0, 70, 0
4, 23822, Note_on_c, 0, 67, 100
4, 23881, Note_on_c, 0, 67, 0
4, 23882, Note_on_c, 0, 70, 100
4, 23941, Note_on_c, 0, 70, 0
4, 23942, Note_on_c, 0, 72, 100
4, 24060, Note_on_c, 0, 72, 0
4, 24062, Note_on_c, 0, 67, 100
4, 24121, Note_on_c, 0, 67, 0
4, 24122, Note_on_c, 0, 67, 100
4, 24242, Note_on_c, 0, 67, 0
4, 24242, Note_on_c, 0, 62, 100
4, 24301, Note_on_c, 0, 62, 0
4, 24302, Note_on_c, 0, 63, 100
4, 24361, Note_on_c, 0, 63, 0
4, 24362, Note_on_c, 0, 65, 100
4, 24421, Note_on_c, 0, 65, 0
4, 24422, Note_on_c, 0, 67, 100
4, 24481, Note_on_c, 0, 67, 0
4, 24482, Note_on_c, 0, 65, 100
4, 24600, Note_on_c, 0, 65, 0
4, 24602, Note_on_c, 0, 65, 100
4, 24661, Note_on_c, 0, 65, 0
4, 24662, Note_on_c, 0, 67, 100
4, 24780, Note_on_c, 0, 67, 0
4, 24782, Note_on_c, 0, 70, 100
4, 24900, Note_on_c, 0, 70, 0
4, 24902, Note_on_c, 0, 72, 100
4, 25020, Note_on_c, 0, 72, 0
4, 25022, Note_on_c, 0, 74, 100
4, 25081, Note_on_c, 0, 74, 0
4, 25442, Note_on_c, 0, 75, 100
4, 25560, Note_on_c, 0, 75, 0
4, 25562, Note_on_c, 0, 74, 100
4, 25680, Note_on_c, 0, 74, 0
4, 25682, Note_on_c, 0, 72, 100
4, 25741, Note_on_c, 0, 72, 0
4, 25742, Note_on_c, 0, 70, 100
4, 25860, Note_on_c, 0, 70, 0
4, 25862, Note_on_c, 0, 72, 100
4, 25921, Note_on_c, 0, 72, 0
4, 25922, Note_on_c, 0, 70, 100
4, 25981, Note_on_c, 0, 70, 0
4, 25982, Note_on_c, 0, 74, 100
4, 26160, Note_on_c, 0, 74, 0
4, 26222, Note_on_c, 0, 72, 100
4, 26281, Note_on_c, 0, 72, 0
4, 26282, Note_on_c, 0, 70, 100
4, 26341, Note_on_c, 0, 70, 0
4, 26342, Note_on_c, 0, 69, 100
4, 26401, Note_on_c, 0, 69, 0
4, 26402, Note_on_c, 0, 67, 100
4, 26520, Note_on_c, 0, 67, 0
4, 26522, Note_on_c, 0, 65, 100
4, 26581, Note_on_c, 0, 65, 0
4, 26582, Note_on_c, 0, 62, 100
4, 26641, Note_on_c, 0, 62, 0
4, 26642, Note_on_c, 0, 65, 100
4, 26760, Note_on_c, 0, 65, 0
4, 26762, Note_on_c, 0, 67, 100
4, 26821, Note_on_c, 0, 67, 0
4, 26822, Note_on_c, 0, 60, 100
4, 26940, Note_on_c, 0, 60, 0
4, 26942, Note_on_c, 0, 58, 100
4, 27120, Note_on_c, 0, 58, 0
4, 27422, Note_on_c, 0, 58, 100
4, 27481, Note_on_c, 0, 58, 0
4, 27482, Note_on_c, 0, 67, 100
4, 27600, Note_on_c, 0, 67, 0
4, 27602, Note_on_c, 0, 67, 100
4, 27720, Note_on_c, 0, 67, 0
4, 27722, Note_on_c, 0, 70, 100
4, 27781, Note_on_c, 0, 70, 0
4, 27782, Note_on_c, 0, 72, 100
4, 27900, Note_on_c, 0, 72, 0
4, 27902, Note_on_c, 0, 67, 100
4, 28020, Note_on_c, 0, 67, 0
4, 28022, Note_on_c, 0, 65, 100
4, 28140, Note_on_c, 0, 65, 0
4, 28142, Note_on_c, 0, 67, 100
4, 28201, Note_on_c, 0, 67, 0
4, 28322, Note_on_c, 0, 67, 100
4, 28381, Note_on_c, 0, 67, 0
4, 28382, Note_on_c, 0, 65, 100
4, 28441, Note_on_c, 0, 65, 0
4, 28442, Note_on_c, 0, 65, 100
4, 28560, Note_on_c, 0, 65, 0
4, 28562, Note_on_c, 0, 67, 100
4, 28680, Note_on_c, 0, 67, 0
4, 28742, Note_on_c, 0, 70, 100
4, 28801, Note_on_c, 0, 70, 0
4, 28802, Note_on_c, 0, 74, 100
4, 28861, Note_on_c, 0, 74, 0
4, 28862, Note_on_c, 0, 75, 100
4, 28921, Note_on_c, 0, 75, 0
4, 28922, Note_on_c, 0, 74, 100
4, 28981, Note_on_c, 0, 74, 0
4, 28982, Note_on_c, 0, 70, 100
4, 29041, Note_on_c, 0, 70, 0
4, 29042, Note_on_c, 0, 67, 100
4, 29160, Note_on_c, 0, 67, 0
4, 29162, Note_on_c, 0, 65, 100
4, 29221, Note_on_c, 0, 65, 0
4, 29222, Note_on_c, 0, 72, 100
4, 29702, Note_on_c, 0, 72, 0
4, 29702, Note_on_c, 0, 74, 100
4, 29731, Note_on_c, 0, 74, 0
4, 29732, Note_on_c, 0, 72, 100
4, 29761, Note_on_c, 0, 72, 0
4, 29762, Note_on_c, 0, 70, 100
4, 29880, Note_on_c, 0, 70, 0
4, 30062, Note_on_c, 0, 70, 100
4, 30180, Note_on_c, 0, 70, 0
4, 30182, Note_on_c, 0, 70, 100
4, 30241, Note_on_c, 0, 70, 0
4, 30242, Note_on_c, 0, 72, 100
4, 30301, Note_on_c, 0, 72, 0
4, 30302, Note_on_c, 0, 67, 100
4, 30361, Note_on_c, 0, 67, 0
4, 30362, Note_on_c, 0, 67, 100
4, 30421, Note_on_c, 0, 67, 0
4, 30422, Note_on_c, 0, 65, 100
4, 30481, Note_on_c, 0, 65, 0
4, 30482, Note_on_c, 0, 65, 100
4, 30600, Note_on_c, 0, 65, 0
4, 30662, Note_on_c, 0, 74, 100
4, 30721, Note_on_c, 0, 74, 0
4, 30722, Note_on_c, 0, 72, 100
4, 30781, Note_on_c, 0, 72, 0
4, 30782, Note_on_c, 0, 72, 100
4, 30841, Note_on_c, 0, 72, 0
4, 30842, Note_on_c, 0, 70, 100
4, 30901, Note_on_c, 0, 70, 0
4, 30902, Note_on_c, 0, 70, 100
4, 31020, Note_on_c, 0, 70, 0
4, 31022, Note_on_c, 0, 62, 100
4, 31081, Note_on_c, 0, 62, 0
4, 31082, Note_on_c, 0, 67, 100
4, 31141, Note_on_c, 0, 67, 0
4, 31142, Note_on_c, 0, 69, 100
4, 31201, Note_on_c, 0, 69, 0
4, 31202, Note_on_c, 0, 70, 100
4, 31320, Note_on_c, 0, 70, 0
4, 31322, Note_on_c, 0, 69, 100
4, 31381, Note_on_c, 0, 69, 0
4, 31382, Note_on_c, 0, 67, 100
4, 31441, Note_on_c, 0, 67, 0
4, 31442, Note_on_c, 0, 67, 100
4, 31560, Note_on_c, 0, 67, 0
4, 31562, Note_on_c, 0, 65, 100
4, 31621, Note_on_c, 0, 65, 0
4, 31622, Note_on_c, 0, 62, 100
4, 31800, Note_on_c, 0, 62, 0
4, 31862, Note_on_c, 0, 72, 100
4, 32099, Note_on_c, 0, 72, 0
4, 32102, Note_on_c, 0, 74, 100
4, 32131, Note_on_c, 0, 74, 0
4, 32132, Note_on_c, 0, 72, 100
4, 32161, Note_on_c, 0, 72, 0
4, 32162, Note_on_c, 0, 70, 100
4, 32399, Note_on_c, 0, 70, 0
4, 32642, Note_on_c, 0, 72, 100
4, 32701, Note_on_c, 0, 72, 0
4, 32702, Note_on_c, 0, 72, 100
4, 32761, Note_on_c, 0, 72, 0
4, 32762, Note_on_c, 0, 72, 100
4, 32821, Note_on_c, 0, 72, 0
4, 32822, Note_on_c, 0, 70, 100
4, 32881, Note_on_c, 0, 70, 0
4, 32882, Note_on_c, 0, 74, 100
4, 32941, Note_on_c, 0, 74, 0
4, 32942, Note_on_c, 0, 67, 100
4, 33001, Note_on_c, 0, 67, 0
4, 33002, Note_on_c, 0, 67, 100
4, 33061, Note_on_c, 0, 67, 0
4, 33062, Note_on_c, 0, 70, 100
4, 33180, Note_on_c, 0, 70, 0
4, 33182, Note_on_c, 0, 72, 100
4, 33241, Note_on_c, 0, 72, 0
4, 33602, Note_on_c, 0, 72, 100
4, 33661, Note_on_c, 0, 72, 0
4, 33662, Note_on_c, 0, 72, 100
4, 33721, Note_on_c, 0, 72, 0
4, 33722, Note_on_c, 0, 72, 100
4, 33781, Note_on_c, 0, 72, 0
4, 33782, Note_on_c, 0, 70, 100
4, 33841, Note_on_c, 0, 70, 0
4, 33842, Note_on_c, 0, 74, 100
4, 33901, Note_on_c, 0, 74, 0
4, 33902, Note_on_c, 0, 67, 100
4, 33961, Note_on_c, 0, 67, 0
4, 33962, Note_on_c, 0, 67, 100
4, 34021, Note_on_c, 0, 67, 0
4, 34022, Note_on_c, 0, 65, 100
4, 34140, Note_on_c, 0, 65, 0
4, 34142, Note_on_c, 0, 67, 100
4, 34201, Note_on_c, 0, 67, 0
4, 34862, Note_on_c, 0, 62, 100
4, 34921, Note_on_c, 0, 62, 0
4, 34922, Note_on_c, 0, 67, 100
4, 34981, Note_on_c, 0, 67, 0
4, 34982, Note_on_c, 0, 69, 100
4, 35041, Note_on_c, 0, 69, 0
4, 35042, Note_on_c, 0, 70, 100
4, 35160, Note_on_c, 0, 70, 0
4, 35162, Note_on_c, 0, 69, 100
4, 35221, Note_on_c, 0, 69, 0
4, 35222, Note_on_c, 0, 67, 100
4, 35281, Note_on_c, 0, 67, 0
4, 35282, Note_on_c, 0, 67, 100
4, 35400, Note_on_c, 0, 67, 0
4, 35402, Note_on_c, 0, 65, 100
4, 35461, Note_on_c, 0, 65, 0
4, 35462, Note_on_c, 0, 62, 100
4, 35640, Note_on_c, 0, 62, 0
4, 35702, Note_on_c, 0, 74, 100
4, 35939, Note_on_c, 0, 74, 0
4, 36002, Note_on_c, 0, 70, 100
4, 36239, Note_on_c, 0, 70, 0
4, 36302, Note_on_c, 0, 74, 100
4, 36420, Note_on_c, 0, 74, 0
4, 36422, Note_on_c, 0, 75, 100
4, 36481, Note_on_c, 0, 75, 0
4, 36482, Note_on_c, 0, 74, 100
4, 36541, Note_on_c, 0, 74, 0
4, 36542, Note_on_c, 0, 74, 100
4, 36601, Note_on_c, 0, 74, 0
4, 36602, Note_on_c, 0, 72, 100
4, 36661, Note_on_c, 0, 72, 0
4, 36662, Note_on_c, 0, 72, 100
4, 36780, Note_on_c, 0, 72, 0
4, 36782, Note_on_c, 0, 70, 100
4, 36841, Note_on_c, 0, 70, 0
4, 36842, Note_on_c, 0, 74, 100
4, 36960, Note_on_c, 0, 74, 0
4, 37262, Note_on_c, 0, 62, 100
4, 37321, Note_on_c, 0, 62, 0
4, 37322, Note_on_c, 0, 70, 100
4, 37440, Note_on_c, 0, 70, 0
4, 37442, Note_on_c, 0, 69, 100
4, 37501, Note_on_c, 0, 69, 0
4, 37502, Note_on_c, 0, 69, 100
4, 37561, Note_on_c, 0, 69, 0
4, 37562, Note_on_c, 0, 70, 100
4, 37621, Note_on_c, 0, 70, 0
4, 37622, Note_on_c, 0, 69, 100
4, 37681, Note_on_c, 0, 69, 0
4, 37682, Note_on_c, 0, 67, 100
4, 37741, Note_on_c, 0, 67, 0
4, 37742, Note_on_c, 0, 65, 100
4, 37801, Note_on_c, 0, 65, 0
4, 37802, Note_on_c, 0, 67, 100
4, 38158, Note_on_c, 0, 67, 0
4, 38942, Note_on_c, 0, 70, 100
4, 39001, Note_on_c, 0, 70, 0
4, 39002, Note_on_c, 0, 70, 100
4, 39061, Note_on_c, 0, 70, 0
4, 39062, Note_on_c, 0, 70, 100
4, 39121, Note_on_c, 0, 70, 0
4, 39122, Note_on_c, 0, 69, 100
4, 39181, Note_on_c, 0, 69, 0
4, 39182, Note_on_c, 0, 67, 100
4, 39241, Note_on_c, 0, 67, 0
4, 39242, Note_on_c, 0, 65, 100
4, 39301, Note_on_c, 0, 65, 0
4, 39302, Note_on_c, 0, 62, 100
4, 39361, Note_on_c, 0, 62, 0
4, 39362, Note_on_c, 0, 65, 100
4, 39480, Note_on_c, 0, 65, 0
4, 39482, Note_on_c, 0, 67, 100
4, 39600, Note_on_c, 0, 67, 0
4, 39602, Note_on_c, 0, 67, 100
4, 39720, Note_on_c, 0, 67, 0
4, 39902, Note_on_c, 0, 69, 100
4, 39961, Note_on_c, 0, 69, 0
4, 39962, Note_on_c, 0, 69, 100
4, 40021, Note_on_c, 0, 69, 0
4, 40022, Note_on_c, 0, 70, 100
4, 40081, Note_on_c, 0, 70, 0
4, 40082, Note_on_c, 0, 69, 100
4, 40141, Note_on_c, 0, 69, 0
4, 40142, Note_on_c, 0, 67, 100
4, 40201, Note_on_c, 0, 67, 0
4, 40202, Note_on_c, 0, 65, 100
4, 40320, Note_on_c, 0, 65, 0
4, 40322, Note_on_c, 0, 65, 100
4, 40440, Note_on_c, 0, 65, 0
4, 40442, Note_on_c, 0, 67, 100
4, 40501, Note_on_c, 0, 67, 0
4, 40502, Note_on_c, 0, 67, 100
4, 40561, Note_on_c, 0, 67, 0
4, 40862, Note_on_c, 0, 69, 100
4, 40921, Note_on_c, 0, 69, 0
4, 40922, Note_on_c, 0, 69, 100
4, 40981, Note_on_c, 0, 69, 0
4, 40982, Note_on_c, 0, 70, 100
4, 41041, Note_on_c, 0, 70, 0
4, 41042, Note_on_c, 0, 72, 100
4, 41220, Note_on_c, 0, 72, 0
4, 41222, Note_on_c, 0, 65, 100
4, 41281, Note_on_c, 0, 65, 0
4, 41282, Note_on_c, 0, 65, 100
4, 41400, Note_on_c, 0, 65, 0
4, 41402, Note_on_c, 0, 67, 100
4, 41520, Note_on_c, 0, 67, 0
4, 41522, Note_on_c, 0, 67, 100
4, 41640, Note_on_c, 0, 67, 0
4, 41762, Note_on_c, 0, 69, 100
4, 41821, Note_on_c, 0, 69, 0
4, 41822, Note_on_c, 0, 69, 100
4, 41881, Note_on_c, 0, 69, 0
4, 41882, Note_on_c, 0, 69, 100
4, 41941, Note_on_c, 0, 69, 0
4, 41942, Note_on_c, 0, 70, 100
4, 42001, Note_on_c, 0, 70, 0
4, 42002, Note_on_c, 0, 69, 100
4, 42120, Note_on_c, 0, 69, 0
4, 42122, Note_on_c, 0, 65, 100
4, 42240, Note_on_c, 0, 65, 0
4, 46082, Note_on_c, 0, 72, 100
4, 46141, Note_on_c, 0, 72, 0
4, 46142, Note_on_c, 0, 72, 100
4, 46201, Note_on_c, 0, 72, 0
4, 46202, Note_on_c, 0, 70, 100
4, 46261, Note_on_c, 0, 70, 0
4, 46262, Note_on_c, 0, 70, 100
4, 46380, Note_on_c, 0, 70, 0
4, 46382, Note_on_c, 0, 62, 100
4, 46441, Note_on_c, 0, 62, 0
4, 46442, Note_on_c, 0, 67, 100
4, 46501, Note_on_c, 0, 67, 0
4, 46502, Note_on_c, 0, 69, 100
4, 46561, Note_on_c, 0, 69, 0
4, 46562, Note_on_c, 0, 70, 100
4, 46680, Note_on_c, 0, 70, 0
4, 46682, Note_on_c, 0, 69, 100
4, 46741, Note_on_c, 0, 69, 0
4, 46742, Note_on_c, 0, 67, 100
4, 46801, Note_on_c, 0, 67, 0
4, 46802, Note_on_c, 0, 67, 100
4, 46920, Note_on_c, 0, 67, 0
4, 46922, Note_on_c, 0, 65, 100
4, 46981, Note_on_c, 0, 65, 0
4, 46982, Note_on_c, 0, 62, 100
4, 47160, Note_on_c, 0, 62, 0
4, 47222, Note_on_c, 0, 72, 100
4, 47459, Note_on_c, 0, 72, 0
4, 47462, Note_on_c, 0, 74, 100
4, 47491, Note_on_c, 0, 74, 0
4, 47492, Note_on_c, 0, 72, 100
4, 47521, Note_on_c, 0, 72, 0
4, 47522, Note_on_c, 0, 70, 100
4, 47759, Note_on_c, 0, 70, 0
4, 48002, Note_on_c, 0, 72, 100
4, 48061, Note_on_c, 0, 72, 0
4, 48062, Note_on_c, 0, 72, 100
4, 48121, Note_on_c, 0, 72, 0
4, 48122, Note_on_c, 0, 72, 100
4, 48181, Note_on_c, 0, 72, 0
4, 48182, Note_on_c, 0, 70, 100
4, 48241, Note_on_c, 0, 70, 0
4, 48242, Note_on_c, 0, 74, 100
4, 48301, Note_on_c, 0, 74, 0
4, 48302, Note_on_c, 0, 67, 100
4, 48361, Note_on_c, 0, 67, 0
4, 48362, Note_on_c, 0, 67, 100
4, 48421, Note_on_c, 0, 67, 0
4, 48422, Note_on_c, 0, 70, 100
4, 48540, Note_on_c, 0, 70, 0
4, 48542, Note_on_c, 0, 72, 100
4, 48601, Note_on_c, 0, 72, 0
4, 48962, Note_on_c, 0, 72, 100
4, 49021, Note_on_c, 0, 72, 0
4, 49022, Note_on_c, 0, 72, 100
4, 49081, Note_on_c, 0, 72, 0
4, 49082, Note_on_c, 0, 72, 100
4, 49141, Note_on_c, 0, 72, 0
4, 49142, Note_on_c, 0, 70, 100
4, 49201, Note_on_c, 0, 70, 0
4, 49202, Note_on_c, 0, 74, 100
4, 49261, Note_on_c, 0, 74, 0
4, 49262, Note_on_c, 0, 67, 100
4, 49321, Note_on_c, 0, 67, 0
4, 49322, Note_on_c, 0, 67, 100
4, 49381, Note_on_c, 0, 67, 0
4, 49382, Note_on_c, 0, 65, 100
4, 49500, Note_on_c, 0, 65, 0
4, 49502, Note_on_c, 0, 67, 100
4, 49561, Note_on_c, 0, 67, 0
4, 50222, Note_on_c, 0, 62, 100
4, 50281, Note_on_c, 0, 62, 0
4, 50282, Note_on_c, 0, 67, 100
4, 50341, Note_on_c, 0, 67, 0
4, 50342, Note_on_c, 0, 69, 100
4, 50401, Note_on_c, 0, 69, 0
4, 50402, Note_on_c, 0, 70, 100
4, 50520, Note_on_c, 0, 70, 0
4, 50522, Note_on_c, 0, 69, 100
4, 50581, Note_on_c, 0, 69, 0
4, 50582, Note_on_c, 0, 67, 100
4, 50641, Note_on_c, 0, 67, 0
4, 50642, Note_on_c, 0, 67, 100
4, 50760, Note_on_c, 0, 67, 0
4, 50762, Note_on_c, 0, 65, 100
4, 50821, Note_on_c, 0, 65, 0
4, 50822, Note_on_c, 0, 62, 100
4, 51000, Note_on_c, 0, 62, 0
4, 51062, Note_on_c, 0, 74, 100
4, 51299, Note_on_c, 0, 74, 0
4, 51362, Note_on_c, 0, 70, 100
4, 51599, Note_on_c, 0, 70, 0
4, 51662, Note_on_c, 0, 74, 100
4, 51780, Note_on_c, 0, 74, 0
4, 51782, Note_on_c, 0, 75, 100
4, 51841, Note_on_c, 0, 75, 0
4, 51842, Note_on_c, 0, 74, 100
4, 51901, Note_on_c, 0, 74, 0
4, 51902, Note_on_c, 0, 74, 100
4, 51961, Note_on_c, 0, 74, 0
4, 51962, Note_on_c, 0, 72, 100
4, 52021, Note_on_c, 0, 72, 0
4, 52022, Note_on_c, 0, 72, 100
4, 52140, Note_on_c, 0, 72, 0
4, 52142, Note_on_c, 0, 70, 100
4, 52201, Note_on_c, 0, 70, 0
4, 52202, Note_on_c, 0, 74, 100
4, 52314, Control_c, 0, 11, 99
4, 52320, Note_on_c, 0, 74, 0
4, 52329, Control_c, 0, 11, 98
4, 52359, Control_c, 0, 11, 97
4, 52389, Control_c, 0, 11, 96
4, 52427, Control_c, 0, 11, 95
4, 52457, Control_c, 0, 11, 94
4, 52487, Control_c, 0, 11, 93
4, 52517, Control_c, 0, 11, 92
4, 52547, Control_c, 0, 11, 91
4, 52584, Control_c, 0, 11, 90
4, 52614, Control_c, 0, 11, 89
4, 52622, Note_on_c, 0, 62, 100
4, 52644, Control_c, 0, 11, 88
4, 52674, Control_c, 0, 11, 87
4, 52681, Note_on_c, 0, 62, 0
4, 52682, Note_on_c, 0, 70, 100
4, 52712, Control_c, 0, 11, 86
4, 52742, Control_c, 0, 11, 85
4, 52772, Control_c, 0, 11, 84
4, 52800, Note_on_c, 0, 70, 0
4, 52802, Note_on_c, 0, 69, 100
4, 52802, Control_c, 0, 11, 83
4, 52832, Control_c, 0, 11, 82
4, 52861, Note_on_c, 0, 69, 0
4, 52862, Note_on_c, 0, 69, 100
4, 52869, Control_c, 0, 11, 81
4, 52899, Control_c, 0, 11, 80
4, 52921, Note_on_c, 0, 69, 0
4, 52922, Note_on_c, 0, 70, 100
4, 52929, Control_c, 0, 11, 79
4, 52959, Control_c, 0, 11, 78
4, 52981, Note_on_c, 0, 70, 0
4, 52982, Note_on_c, 0, 69, 100
4, 52997, Control_c, 0, 11, 77
4, 53027, Control_c, 0, 11, 76
4, 53041, Note_on_c, 0, 69, 0
4, 53042, Note_on_c, 0, 67, 100
4, 53057, Control_c, 0, 11, 75
4, 53087, Control_c, 0, 11, 74
4, 53101, Note_on_c, 0, 67, 0
4, 53102, Note_on_c, 0, 65, 100
4, 53117, Control_c, 0, 11, 73
4, 53154, Control_c, 0, 11, 72
4, 53161, Note_on_c, 0, 65, 0
4, 53162, Note_on_c, 0, 67, 100
4, 53184, Control_c, 0, 11, 71
4, 53214, Control_c, 0, 11, 70
4, 53244, Control_c, 0, 11, 69
4, 53282, Control_c, 0, 11, 68
4, 53312, Control_c, 0, 11, 67
4, 53342, Control_c, 0, 11, 66
4, 53372, Control_c, 0, 11, 65
4, 53402, Control_c, 0, 11, 64
4, 53439, Control_c, 0, 11, 63
4, 53469, Control_c, 0, 11, 62
4, 53499, Control_c, 0, 11, 61
4, 53518, Note_on_c, 0, 67, 0
4, 53529, Control_c, 0, 11, 60
4, 53567, Control_c, 0, 11, 59
4, 53597, Control_c, 0, 11, 58
4, 53627, Control_c, 0, 11, 57
4, 53657, Control_c, 0, 11, 56
4, 53687, Control_c, 0, 11, 55
4, 53724, Control_c, 0, 11, 54
4, 53754, Control_c, 0, 11, 53
4, 53762, Note_on_c, 0, 72, 100
4, 53784, Control_c, 0, 11, 52
4, 53814, Control_c, 0, 11, 51
4, 53821, Note_on_c, 0, 72, 0
4, 53822, Note_on_c, 0, 72, 100
4, 53852, Control_c, 0, 11, 50
4, 53881, Note_on_c, 0, 72, 0
4, 53882, Note_on_c, 0, 70, 100
4, 53882, Control_c, 0, 11, 49
4, 53912, Control_c, 0, 11, 48
4, 53941, Note_on_c, 0, 70, 0
4, 53942, Note_on_c, 0, 70, 100
4, 53942, Control_c, 0, 11, 47
4, 53972, Control_c, 0, 11, 46
4, 54009, Control_c, 0, 11, 45
4, 54039, Control_c, 0, 11, 44
4, 54060, Note_on_c, 0, 70, 0
4, 54062, Note_on_c, 0, 62, 100
4, 54069, Control_c, 0, 11, 43
4, 54099, Control_c, 0, 11, 42
4, 54121, Note_on_c, 0, 62, 0
4, 54122, Note_on_c, 0, 67, 100
4, 54137, Control_c, 0, 11, 41
4, 54167, Control_c, 0, 11, 40
4, 54181, Note_on_c, 0, 67, 0
4, 54182, Note_on_c, 0, 69, 100
4, 54197, Control_c, 0, 11, 39
4, 54227, Control_c, 0, 11, 38
4, 54241, Note_on_c, 0, 69, 0
4, 54242, Note_on_c, 0, 70, 100
4, 54257, Control_c, 0, 11, 37
4, 54294, Control_c, 0, 11, 36
4, 54324, Control_c, 0, 11, 35
4, 54354, Control_c, 0, 11, 34
4, 54360, Note_on_c, 0, 70, 0
4, 54362, Note_on_c, 0, 69, 100
4, 54384, Control_c, 0, 11, 33
4, 54414, Control_c, 0, 11, 32
4, 54421, Note_on_c, 0, 69, 0
4, 54422, Note_on_c, 0, 67, 100
4, 54452, Control_c, 0, 11, 31
4, 54481, Note_on_c, 0, 67, 0
4, 54482, Note_on_c, 0, 67, 100
4, 54482, Control_c, 0, 11, 30
4, 54512, Control_c, 0, 11, 29
4, 54542, Control_c, 0, 11, 28
4, 54579, Control_c, 0, 11, 27
4, 54600, Note_on_c, 0, 67, 0
4, 54602, Note_on_c, 0, 65, 100
4, 54609, Control_c, 0, 11, 26
4, 54639, Control_c, 0, 11, 25
4, 54661, Note_on_c, 0, 65, 0
4, 54662, Note_on_c, 0, 62, 100
4, 54669, Control_c, 0, 11, 24
4, 54699, Control_c, 0, 11, 23
4, 54737, Control_c, 0, 11, 22
4, 54767, Control_c, 0, 11, 21
4, 54797, Control_c, 0, 11, 20
4, 54827, Control_c, 0, 11, 19
4, 54840, Note_on_c, 0, 62, 0
4, 54864, Control_c, 0, 11, 18
4, 54894, Control_c, 0, 11, 17
4, 54902, Note_on_c, 0, 72, 100
4, 54924, Control_c, 0, 11, 16
4, 54954, Control_c, 0, 11, 15
4, 54984, Control_c, 0, 11, 14
4, 55022, Control_c, 0, 11, 13
4, 55052, Control_c, 0, 11, 12
4, 55082, Control_c, 0, 11, 11
4, 55112, Control_c, 0, 11, 10
4, 55139, Note_on_c, 0, 72, 0
4, 55142, Note_on_c, 0, 74, 100
4, 55149, Control_c, 0, 11, 9
4, 55171, Note_on_c, 0, 74, 0
4, 55172, Note_on_c, 0, 72, 100
4, 55179, Control_c, 0, 11, 8
4, 55201, Note_on_c, 0, 72, 0
4, 55202, Note_on_c, 0, 70, 100
4, 55209, Control_c, 0, 11, 7
4, 55239, Control_c, 0, 11, 6
4, 55269, Control_c, 0, 11, 5
4, 55307, Control_c, 0, 11, 4
4, 55337, Control_c, 0, 11, 3
4, 55367, Control_c, 0, 11, 2
4, 55397, Control_c, 0, 11, 1
4, 55434, Control_c, 0, 11, 0
4, 55439, Note_on_c, 0, 70, 0
4, 55464, Control_c, 0, 11, 0
4, 55494, Control_c, 0, 11, 0
4, 55524, Control_c, 0, 11, 0
4, 55554, Control_c, 0, 11, 0
4, 55592, Control_c, 0, 11, 0
4, 55622, Control_c, 0, 11, 0
4, 55652, Control_c, 0, 11, 0
4, 55652, End_track
5, 0, Start_track
5, 0, MIDI_port, 0
5, 0, Title_t, "Drums"
5, 0, Program_c, 9, 0
5, 0, Control_c, 9, 7, 110
5, 0, Control_c, 9, 10, 66
5, 0, Control_c, 9, 121, 127
5, 0, Control_c, 9, 0, 0
5, 0, Control_c, 9, 32, 0
5, 0, Control_c, 9, 11, 127
5, 0, Control_c, 9, 91, 80
5, 0, Control_c, 9, 93, 0
5, 3, Control_c, 9, 99, 24
5, 4, Control_c, 9, 98, 57
5, 4, Control_c, 9, 6, 32
5, 300, Note_on_c, 9, 45, 111
5, 330, Note_on_c, 9, 45, 0
5, 354, Note_on_c, 9, 38, 121
5, 358, Note_on_c, 9, 38, 0
5, 360, Note_on_c, 9, 38, 122
5, 390, Note_on_c, 9, 38, 0
5, 427, Control_c, 9, 1, 0
5, 480, Note_on_c, 9, 35, 110
5, 480, Note_on_c, 9, 42, 109
5, 480, Note_on_c, 9, 49, 67
5, 480, Note_on_c, 9, 64, 29
5, 496, Note_on_c, 9, 49, 0
5, 509, Note_on_c, 9, 64, 0
5, 510, Note_on_c, 9, 42, 0
5, 510, Note_on_c, 9, 35, 0
5, 540, Note_on_c, 9, 42, 108
5, 540, Note_on_c, 9, 64, 29
5, 569, Note_on_c, 9, 64, 0
5, 570, Note_on_c, 9, 42, 0
5, 600, Note_on_c, 9, 38, 107
5, 600, Note_on_c, 9, 42, 110
5, 600, Note_on_c, 9, 62, 32
5, 600, Note_on_c, 9, 54, 127
5, 629, Note_on_c, 9, 54, 0
5, 629, Note_on_c, 9, 62, 0
5, 630, Note_on_c, 9, 42, 0
5, 630, Note_on_c, 9, 38, 0
5, 660, Note_on_c, 9, 35, 111
5, 660, Note_on_c, 9, 42, 104
5, 660, Note_on_c, 9, 64, 29
5, 689, Note_on_c, 9, 64, 0
5, 690, Note_on_c, 9, 42, 0
5, 690, Note_on_c, 9, 35, 0
5, 720, Note_on_c, 9, 35, 111
5, 720, Note_on_c, 9, 42, 110
5, 720, Note_on_c, 9, 64, 31
5, 749, Note_on_c, 9, 64, 0
5, 750, Note_on_c, 9, 42, 0
5, 750, Note_on_c, 9, 35, 0
5, 780, Note_on_c, 9, 42, 106
5, 780, Note_on_c, 9, 64, 36
5, 809, Note_on_c, 9, 64, 0
5, 810, Note_on_c, 9, 42, 0
5, 840, Note_on_c, 9, 38, 114
5, 840, Note_on_c, 9, 42, 113
5, 840, Note_on_c, 9, 62, 47
5, 840, Note_on_c, 9, 54, 127
5, 869, Note_on_c, 9, 54, 0
5, 869, Note_on_c, 9, 62, 0
5, 870, Note_on_c, 9, 42, 0
5, 870, Note_on_c, 9, 38, 0
5, 900, Note_on_c, 9, 42, 112
5, 900, Note_on_c, 9, 64, 43
5, 929, Note_on_c, 9, 64, 0
5, 930, Note_on_c, 9, 42, 0
5, 960, Note_on_c, 9, 35, 111
5, 960, Note_on_c, 9, 42, 115
5, 960, Note_on_c, 9, 64, 43
5, 989, Note_on_c, 9, 64, 0
5, 990, Note_on_c, 9, 42, 0
5, 990, Note_on_c, 9, 35, 0
5, 1020, Note_on_c, 9, 42, 115
5, 1020, Note_on_c, 9, 64, 29
5, 1049, Note_on_c, 9, 64, 0
5, 1050, Note_on_c, 9, 42, 0
5, 1080, Note_on_c, 9, 38, 104
5, 1080, Note_on_c, 9, 42, 110
5, 1080, Note_on_c, 9, 62, 40
5, 1080, Note_on_c, 9, 54, 127
5, 1109, Note_on_c, 9, 54, 0
5, 1109, Note_on_c, 9, 62, 0
5, 1110, Note_on_c, 9, 42, 0
5, 1110, Note_on_c, 9, 38, 0
5, 1140, Note_on_c, 9, 35, 109
5, 1140, Note_on_c, 9, 42, 110
5, 1140, Note_on_c, 9, 64, 41
5, 1169, Note_on_c, 9, 64, 0
5, 1170, Note_on_c, 9, 42, 0
5, 1170, Note_on_c, 9, 35, 0
5, 1200, Note_on_c, 9, 35, 117
5, 1200, Note_on_c, 9, 42, 113
5, 1200, Note_on_c, 9, 64, 46
5, 1229, Note_on_c, 9, 64, 0
5, 1230, Note_on_c, 9, 42, 0
5, 1230, Note_on_c, 9, 35, 0
5, 1260, Note_on_c, 9, 42, 118
5, 1260, Note_on_c, 9, 64, 42
5, 1289, Note_on_c, 9, 64, 0
5, 1290, Note_on_c, 9, 42, 0
5, 1320, Note_on_c, 9, 38, 111
5, 1320, Note_on_c, 9, 42, 110
5, 1320, Note_on_c, 9, 62, 41
5, 1320, Note_on_c, 9, 54, 127
5, 1349, Note_on_c, 9, 54, 0
5, 1349, Note_on_c, 9, 62, 0
5, 1350, Note_on_c, 9, 42, 0
5, 1350, Note_on_c, 9, 38, 0
5, 1380, Note_on_c, 9, 46, 107
5, 1380, Note_on_c, 9, 64, 39
5, 1409, Note_on_c, 9, 64, 0
5, 1410, Note_on_c, 9, 46, 0
5, 1440, Note_on_c, 9, 35, 110
5, 1440, Note_on_c, 9, 42, 109
5, 1440, Note_on_c, 9, 64, 29
5, 1469, Note_on_c, 9, 64, 0
5, 1470, Note_on_c, 9, 42, 0
5, 1470, Note_on_c, 9, 35, 0
5, 1500, Note_on_c, 9, 42, 108
5, 1500, Note_on_c, 9, 64, 29
5, 1529, Note_on_c, 9, 64, 0
5, 1530, Note_on_c, 9, 42, 0
5, 1560, Note_on_c, 9, 38, 107
5, 1560, Note_on_c, 9, 42, 110
5, 1560, Note_on_c, 9, 62, 32
5, 1560, Note_on_c, 9, 54, 127
5, 1589, Note_on_c, 9, 54, 0
5, 1589, Note_on_c, 9, 62, 0
5, 1590, Note_on_c, 9, 42, 0
5, 1590, Note_on_c, 9, 38, 0
5, 1620, Note_on_c, 9, 35, 111
5, 1620, Note_on_c, 9, 42, 104
5, 1620, Note_on_c, 9, 64, 29
5, 1649, Note_on_c, 9, 64, 0
5, 1650, Note_on_c, 9, 42, 0
5, 1650, Note_on_c, 9, 35, 0
5, 1680, Note_on_c, 9, 35, 111
5, 1680, Note_on_c, 9, 42, 110
5, 1680, Note_on_c, 9, 64, 31
5, 1709, Note_on_c, 9, 64, 0
5, 1710, Note_on_c, 9, 42, 0
5, 1710, Note_on_c, 9, 35, 0
5, 1740, Note_on_c, 9, 42, 106
5, 1740, Note_on_c, 9, 64, 36
5, 1769, Note_on_c, 9, 64, 0
5, 1770, Note_on_c, 9, 42, 0
5, 1800, Note_on_c, 9, 38, 114
5, 1800, Note_on_c, 9, 42, 113
5, 1800, Note_on_c, 9, 62, 47
5, 1800, Note_on_c, 9, 54, 127
5, 1829, Note_on_c, 9, 54, 0
5, 1829, Note_on_c, 9, 62, 0
5, 1830, Note_on_c, 9, 42, 0
5, 1830, Note_on_c, 9, 38, 0
5, 1860, Note_on_c, 9, 42, 112
5, 1860, Note_on_c, 9, 64, 43
5, 1889, Note_on_c, 9, 64, 0
5, 1890, Note_on_c, 9, 42, 0
5, 1920, Note_on_c, 9, 35, 111
5, 1920, Note_on_c, 9, 42, 115
5, 1920, Note_on_c, 9, 64, 43
5, 1949, Note_on_c, 9, 64, 0
5, 1950, Note_on_c, 9, 42, 0
5, 1950, Note_on_c, 9, 35, 0
5, 1980, Note_on_c, 9, 42, 115
5, 1980, Note_on_c, 9, 64, 29
5, 2009, Note_on_c, 9, 64, 0
5, 2010, Note_on_c, 9, 42, 0
5, 2040, Note_on_c, 9, 38, 104
5, 2040, Note_on_c, 9, 42, 110
5, 2040, Note_on_c, 9, 62, 40
5, 2040, Note_on_c, 9, 54, 127
5, 2069, Note_on_c, 9, 54, 0
5, 2069, Note_on_c, 9, 62, 0
5, 2070, Note_on_c, 9, 42, 0
5, 2070, Note_on_c, 9, 38, 0
5, 2100, Note_on_c, 9, 35, 109
5, 2100, Note_on_c, 9, 42, 110
5, 2100, Note_on_c, 9, 64, 41
5, 2129, Note_on_c, 9, 64, 0
5, 2130, Note_on_c, 9, 42, 0
5, 2130, Note_on_c, 9, 35, 0
5, 2160, Note_on_c, 9, 35, 117
5, 2160, Note_on_c, 9, 42, 113
5, 2160, Note_on_c, 9, 64, 46
5, 2189, Note_on_c, 9, 64, 0
5, 2190, Note_on_c, 9, 42, 0
5, 2190, Note_on_c, 9, 35, 0
5, 2220, Note_on_c, 9, 42, 118
5, 2220, Note_on_c, 9, 64, 42
5, 2220, Note_on_c, 9, 48, 119
5, 2233, Note_on_c, 9, 48, 0
5, 2249, Note_on_c, 9, 64, 0
5, 2250, Note_on_c, 9, 42, 0
5, 2280, Note_on_c, 9, 38, 111
5, 2280, Note_on_c, 9, 42, 110
5, 2280, Note_on_c, 9, 62, 41
5, 2280, Note_on_c, 9, 54, 127
5, 2280, Note_on_c, 9, 45, 91
5, 2297, Note_on_c, 9, 45, 0
5, 2309, Note_on_c, 9, 62, 0
5, 2309, Note_on_c, 9, 54, 0
5, 2310, Note_on_c, 9, 42, 0
5, 2310, Note_on_c, 9, 38, 0
5, 2340, Note_on_c, 9, 46, 107
5, 2340, Note_on_c, 9, 64, 39
5, 2340, Note_on_c, 9, 45, 107
5, 2362, Note_on_c, 9, 45, 0
5, 2369, Note_on_c, 9, 64, 0
5, 2370, Note_on_c, 9, 46, 0
5, 2400, Note_on_c, 9, 35, 110
5, 2400, Note_on_c, 9, 42, 109
5, 2400, Note_on_c, 9, 64, 29
5, 2429, Note_on_c, 9, 64, 0
5, 2430, Note_on_c, 9, 42, 0
5, 2430, Note_on_c, 9, 35, 0
5, 2460, Note_on_c, 9, 42, 108
5, 2460, Note_on_c, 9, 64, 29
5, 2489, Note_on_c, 9, 64, 0
5, 2490, Note_on_c, 9, 42, 0
5, 2520, Note_on_c, 9, 38, 107
5, 2520, Note_on_c, 9, 42, 110
5, 2520, Note_on_c, 9, 62, 32
5, 2520, Note_on_c, 9, 54, 127
5, 2549, Note_on_c, 9, 54, 0
5, 2549, Note_on_c, 9, 62, 0
5, 2550, Note_on_c, 9, 42, 0
5, 2550, Note_on_c, 9, 38, 0
5, 2580, Note_on_c, 9, 35, 111
5, 2580, Note_on_c, 9, 42, 104
5, 2580, Note_on_c, 9, 64, 29
5, 2609, Note_on_c, 9, 64, 0
5, 2610, Note_on_c, 9, 42, 0
5, 2610, Note_on_c, 9, 35, 0
5, 2640, Note_on_c, 9, 35, 111
5, 2640, Note_on_c, 9, 42, 110
5, 2640, Note_on_c, 9, 64, 31
5, 2669, Note_on_c, 9, 64, 0
5, 2670, Note_on_c, 9, 42, 0
5, 2670, Note_on_c, 9, 35, 0
5, 2700, Note_on_c, 9, 42, 106
5, 2700, Note_on_c, 9, 64, 36
5, 2729, Note_on_c, 9, 64, 0
5, 2730, Note_on_c, 9, 42, 0
5, 2760, Note_on_c, 9, 38, 114
5, 2760, Note_on_c, 9, 42, 113
5, 2760, Note_on_c, 9, 62, 47
5, 2760, Note_on_c, 9, 54, 127
5, 2789, Note_on_c, 9, 54, 0
5, 2789, Note_on_c, 9, 62, 0
5, 2790, Note_on_c, 9, 42, 0
5, 2790, Note_on_c, 9, 38, 0
5, 2820, Note_on_c, 9, 42, 112
5, 2820, Note_on_c, 9, 64, 43
5, 2849, Note_on_c, 9, 64, 0
5, 2850, Note_on_c, 9, 42, 0
5, 2880, Note_on_c, 9, 35, 111
5, 2880, Note_on_c, 9, 42, 115
5, 2880, Note_on_c, 9, 64, 43
5, 2909, Note_on_c, 9, 64, 0
5, 2910, Note_on_c, 9, 42, 0
5, 2910, Note_on_c, 9, 35, 0
5, 2940, Note_on_c, 9, 42, 115
5, 2940, Note_on_c, 9, 64, 29
5, 2969, Note_on_c, 9, 64, 0
5, 2970, Note_on_c, 9, 42, 0
5, 3000, Note_on_c, 9, 38, 104
5, 3000, Note_on_c, 9, 42, 110
5, 3000, Note_on_c, 9, 62, 40
5, 3000, Note_on_c, 9, 54, 127
5, 3029, Note_on_c, 9, 54, 0
5, 3029, Note_on_c, 9, 62, 0
5, 3030, Note_on_c, 9, 42, 0
5, 3030, Note_on_c, 9, 38, 0
5, 3060, Note_on_c, 9, 35, 109
5, 3060, Note_on_c, 9, 42, 110
5, 3060, Note_on_c, 9, 64, 41
5, 3089, Note_on_c, 9, 64, 0
5, 3090, Note_on_c, 9, 42, 0
5, 3090, Note_on_c, 9, 35, 0
5, 3120, Note_on_c, 9, 35, 117
5, 3120, Note_on_c, 9, 42, 113
5, 3120, Note_on_c, 9, 64, 46
5, 3149, Note_on_c, 9, 64, 0
5, 3150, Note_on_c, 9, 42, 0
5, 3150, Note_on_c, 9, 35, 0
5, 3180, Note_on_c, 9, 42, 118
5, 3180, Note_on_c, 9, 64, 42
5, 3209, Note_on_c, 9, 64, 0
5, 3210, Note_on_c, 9, 42, 0
5, 3240, Note_on_c, 9, 38, 111
5, 3240, Note_on_c, 9, 42, 110
5, 3240, Note_on_c, 9, 62, 41
5, 3240, Note_on_c, 9, 54, 127
5, 3269, Note_on_c, 9, 54, 0
5, 3269, Note_on_c, 9, 62, 0
5, 3270, Note_on_c, 9, 42, 0
5, 3270, Note_on_c, 9, 38, 0
5, 3300, Note_on_c, 9, 46, 107
5, 3300, Note_on_c, 9, 64, 39
5, 3329, Note_on_c, 9, 64, 0
5, 3330, Note_on_c, 9, 46, 0
5, 3360, Note_on_c, 9, 35, 110
5, 3360, Note_on_c, 9, 42, 109
5, 3360, Note_on_c, 9, 64, 29
5, 3389, Note_on_c, 9, 64, 0
5, 3390, Note_on_c, 9, 42, 0
5, 3390, Note_on_c, 9, 35, 0
5, 3420, Note_on_c, 9, 42, 108
5, 3420, Note_on_c, 9, 64, 29
5, 3449, Note_on_c, 9, 64, 0
5, 3450, Note_on_c, 9, 42, 0
5, 3480, Note_on_c, 9, 38, 107
5, 3480, Note_on_c, 9, 42, 110
5, 3480, Note_on_c, 9, 62, 32
5, 3480, Note_on_c, 9, 54, 127
5, 3509, Note_on_c, 9, 54, 0
5, 3509, Note_on_c, 9, 62, 0
5, 3510, Note_on_c, 9, 42, 0
5, 3510, Note_on_c, 9, 38, 0
5, 3540, Note_on_c, 9, 35, 111
5, 3540, Note_on_c, 9, 42, 104
5, 3540, Note_on_c, 9, 64, 29
5, 3569, Note_on_c, 9, 64, 0
5, 3570, Note_on_c, 9, 42, 0
5, 3570, Note_on_c, 9, 35, 0
5, 3600, Note_on_c, 9, 35, 111
5, 3600, Note_on_c, 9, 42, 110
5, 3600, Note_on_c, 9, 64, 31
5, 3629, Note_on_c, 9, 64, 0
5, 3630, Note_on_c, 9, 42, 0
5, 3630, Note_on_c, 9, 35, 0
5, 3660, Note_on_c, 9, 42, 106
5, 3660, Note_on_c, 9, 64, 36
5, 3689, Note_on_c, 9, 64, 0
5, 3690, Note_on_c, 9, 42, 0
5, 3720, Note_on_c, 9, 38, 114
5, 3720, Note_on_c, 9, 42, 113
5, 3720, Note_on_c, 9, 62, 47
5, 3720, Note_on_c, 9, 54, 127
5, 3749, Note_on_c, 9, 54, 0
5, 3749, Note_on_c, 9, 62, 0
5, 3750, Note_on_c, 9, 42, 0
5, 3750, Note_on_c, 9, 38, 0
5, 3780, Note_on_c, 9, 42, 112
5, 3780, Note_on_c, 9, 64, 43
5, 3809, Note_on_c, 9, 64, 0
5, 3810, Note_on_c, 9, 42, 0
5, 3840, Note_on_c, 9, 35, 111
5, 3840, Note_on_c, 9, 42, 115
5, 3840, Note_on_c, 9, 64, 43
5, 3869, Note_on_c, 9, 64, 0
5, 3870, Note_on_c, 9, 42, 0
5, 3870, Note_on_c, 9, 35, 0
5, 3900, Note_on_c, 9, 42, 115
5, 3900, Note_on_c, 9, 64, 29
5, 3929, Note_on_c, 9, 64, 0
5, 3930, Note_on_c, 9, 42, 0
5, 3960, Note_on_c, 9, 38, 104
5, 3960, Note_on_c, 9, 42, 110
5, 3960, Note_on_c, 9, 62, 40
5, 3960, Note_on_c, 9, 54, 127
5, 3989, Note_on_c, 9, 54, 0
5, 3989, Note_on_c, 9, 62, 0
5, 3990, Note_on_c, 9, 42, 0
5, 3990, Note_on_c, 9, 38, 0
5, 4020, Note_on_c, 9, 35, 109
5, 4020, Note_on_c, 9, 42, 110
5, 4020, Note_on_c, 9, 64, 41
5, 4049, Note_on_c, 9, 64, 0
5, 4050, Note_on_c, 9, 42, 0
5, 4050, Note_on_c, 9, 35, 0
5, 4080, Note_on_c, 9, 35, 117
5, 4080, Note_on_c, 9, 42, 113
5, 4080, Note_on_c, 9, 64, 46
5, 4109, Note_on_c, 9, 64, 0
5, 4110, Note_on_c, 9, 42, 0
5, 4110, Note_on_c, 9, 35, 0
5, 4140, Note_on_c, 9, 42, 118
5, 4140, Note_on_c, 9, 64, 42
5, 4140, Note_on_c, 9, 38, 116
5, 4155, Note_on_c, 9, 38, 0
5, 4169, Note_on_c, 9, 64, 0
5, 4170, Note_on_c, 9, 42, 0
5, 4170, Note_on_c, 9, 38, 118
5, 4185, Note_on_c, 9, 38, 0
5, 4200, Note_on_c, 9, 38, 120
5, 4200, Note_on_c, 9, 42, 110
5, 4200, Note_on_c, 9, 62, 41
5, 4200, Note_on_c, 9, 54, 127
5, 4229, Note_on_c, 9, 54, 0
5, 4229, Note_on_c, 9, 62, 0
5, 4230, Note_on_c, 9, 42, 0
5, 4230, Note_on_c, 9, 38, 0
5, 4260, Note_on_c, 9, 46, 107
5, 4260, Note_on_c, 9, 64, 39
5, 4289, Note_on_c, 9, 64, 0
5, 4290, Note_on_c, 9, 46, 0
5, 4320, Note_on_c, 9, 35, 110
5, 4320, Note_on_c, 9, 42, 109
5, 4320, Note_on_c, 9, 64, 29
5, 4320, Note_on_c, 9, 49, 100
5, 4335, Note_on_c, 9, 49, 0
5, 4349, Note_on_c, 9, 64, 0
5, 4350, Note_on_c, 9, 42, 0
5, 4350, Note_on_c, 9, 35, 0
5, 4380, Note_on_c, 9, 42, 108
5, 4380, Note_on_c, 9, 64, 29
5, 4409, Note_on_c, 9, 64, 0
5, 4410, Note_on_c, 9, 42, 0
5, 4440, Note_on_c, 9, 38, 107
5, 4440, Note_on_c, 9, 42, 110
5, 4440, Note_on_c, 9, 62, 32
5, 4440, Note_on_c, 9, 54, 127
5, 4469, Note_on_c, 9, 54, 0
5, 4469, Note_on_c, 9, 62, 0
5, 4470, Note_on_c, 9, 42, 0
5, 4470, Note_on_c, 9, 38, 0
5, 4500, Note_on_c, 9, 35, 111
5, 4500, Note_on_c, 9, 42, 104
5, 4500, Note_on_c, 9, 64, 29
5, 4529, Note_on_c, 9, 64, 0
5, 4530, Note_on_c, 9, 42, 0
5, 4530, Note_on_c, 9, 35, 0
5, 4560, Note_on_c, 9, 35, 111
5, 4560, Note_on_c, 9, 42, 110
5, 4560, Note_on_c, 9, 64, 31
5, 4589, Note_on_c, 9, 64, 0
5, 4590, Note_on_c, 9, 42, 0
5, 4590, Note_on_c, 9, 35, 0
5, 4620, Note_on_c, 9, 42, 106
5, 4620, Note_on_c, 9, 64, 36
5, 4649, Note_on_c, 9, 64, 0
5, 4650, Note_on_c, 9, 42, 0
5, 4680, Note_on_c, 9, 38, 114
5, 4680, Note_on_c, 9, 42, 113
5, 4680, Note_on_c, 9, 62, 47
5, 4680, Note_on_c, 9, 54, 127
5, 4709, Note_on_c, 9, 54, 0
5, 4709, Note_on_c, 9, 62, 0
5, 4710, Note_on_c, 9, 42, 0
5, 4710, Note_on_c, 9, 38, 0
5, 4740, Note_on_c, 9, 42, 112
5, 4740, Note_on_c, 9, 64, 43
5, 4769, Note_on_c, 9, 64, 0
5, 4770, Note_on_c, 9, 42, 0
5, 4800, Note_on_c, 9, 35, 111
5, 4800, Note_on_c, 9, 42, 115
5, 4800, Note_on_c, 9, 64, 43
5, 4829, Note_on_c, 9, 64, 0
5, 4830, Note_on_c, 9, 42, 0
5, 4830, Note_on_c, 9, 35, 0
5, 4860, Note_on_c, 9, 42, 115
5, 4860, Note_on_c, 9, 64, 29
5, 4889, Note_on_c, 9, 64, 0
5, 4890, Note_on_c, 9, 42, 0
5, 4920, Note_on_c, 9, 38, 104
5, 4920, Note_on_c, 9, 42, 110
5, 4920, Note_on_c, 9, 62, 40
5, 4920, Note_on_c, 9, 54, 127
5, 4949, Note_on_c, 9, 54, 0
5, 4949, Note_on_c, 9, 62, 0
5, 4950, Note_on_c, 9, 42, 0
5, 4950, Note_on_c, 9, 38, 0
5, 4980, Note_on_c, 9, 35, 109
5, 4980, Note_on_c, 9, 42, 110
5, 4980, Note_on_c, 9, 64, 41
5, 5009, Note_on_c, 9, 64, 0
5, 5010, Note_on_c, 9, 42, 0
5, 5010, Note_on_c, 9, 35, 0
5, 5040, Note_on_c, 9, 35, 117
5, 5040, Note_on_c, 9, 42, 113
5, 5040, Note_on_c, 9, 64, 46
5, 5069, Note_on_c, 9, 64, 0
5, 5070, Note_on_c, 9, 42, 0
5, 5070, Note_on_c, 9, 35, 0
5, 5100, Note_on_c, 9, 42, 118
5, 5100, Note_on_c, 9, 64, 42
5, 5129, Note_on_c, 9, 64, 0
5, 5130, Note_on_c, 9, 42, 0
5, 5160, Note_on_c, 9, 38, 111
5, 5160, Note_on_c, 9, 42, 110
5, 5160, Note_on_c, 9, 62, 41
5, 5160, Note_on_c, 9, 54, 127
5, 5189, Note_on_c, 9, 54, 0
5, 5189, Note_on_c, 9, 62, 0
5, 5190, Note_on_c, 9, 42, 0
5, 5190, Note_on_c, 9, 38, 0
5, 5220, Note_on_c, 9, 46, 107
5, 5220, Note_on_c, 9, 64, 39
5, 5249, Note_on_c, 9, 64, 0
5, 5250, Note_on_c, 9, 46, 0
5, 5280, Note_on_c, 9, 35, 110
5, 5280, Note_on_c, 9, 42, 109
5, 5280, Note_on_c, 9, 64, 29
5, 5309, Note_on_c, 9, 64, 0
5, 5310, Note_on_c, 9, 42, 0
5, 5310, Note_on_c, 9, 35, 0
5, 5340, Note_on_c, 9, 42, 108
5, 5340, Note_on_c, 9, 64, 29
5, 5369, Note_on_c, 9, 64, 0
5, 5370, Note_on_c, 9, 42, 0
5, 5400, Note_on_c, 9, 38, 107
5, 5400, Note_on_c, 9, 42, 110
5, 5400, Note_on_c, 9, 62, 32
5, 5400, Note_on_c, 9, 54, 127
5, 5429, Note_on_c, 9, 54, 0
5, 5429, Note_on_c, 9, 62, 0
5, 5430, Note_on_c, 9, 42, 0
5, 5430, Note_on_c, 9, 38, 0
5, 5460, Note_on_c, 9, 35, 111
5, 5460, Note_on_c, 9, 42, 104
5, 5460, Note_on_c, 9, 64, 29
5, 5489, Note_on_c, 9, 64, 0
5, 5490, Note_on_c, 9, 42, 0
5, 5490, Note_on_c, 9, 35, 0
5, 5520, Note_on_c, 9, 35, 111
5, 5520, Note_on_c, 9, 42, 110
5, 5520, Note_on_c, 9, 64, 31
5, 5549, Note_on_c, 9, 64, 0
5, 5550, Note_on_c, 9, 42, 0
5, 5550, Note_on_c, 9, 35, 0
5, 5580, Note_on_c, 9, 42, 106
5, 5580, Note_on_c, 9, 64, 36
5, 5609, Note_on_c, 9, 64, 0
5, 5610, Note_on_c, 9, 42, 0
5, 5640, Note_on_c, 9, 38, 114
5, 5640, Note_on_c, 9, 42, 113
5, 5640, Note_on_c, 9, 62, 47
5, 5640, Note_on_c, 9, 54, 127
5, 5669, Note_on_c, 9, 54, 0
5, 5669, Note_on_c, 9, 62, 0
5, 5670, Note_on_c, 9, 42, 0
5, 5670, Note_on_c, 9, 38, 0
5, 5700, Note_on_c, 9, 42, 112
5, 5700, Note_on_c, 9, 64, 43
5, 5729, Note_on_c, 9, 64, 0
5, 5730, Note_on_c, 9, 42, 0
5, 5760, Note_on_c, 9, 35, 111
5, 5760, Note_on_c, 9, 42, 115
5, 5760, Note_on_c, 9, 64, 43
5, 5789, Note_on_c, 9, 64, 0
5, 5790, Note_on_c, 9, 42, 0
5, 5790, Note_on_c, 9, 35, 0
5, 5820, Note_on_c, 9, 42, 115
5, 5820, Note_on_c, 9, 64, 29
5, 5849, Note_on_c, 9, 64, 0
5, 5850, Note_on_c, 9, 42, 0
5, 5880, Note_on_c, 9, 38, 104
5, 5880, Note_on_c, 9, 42, 110
5, 5880, Note_on_c, 9, 62, 40
5, 5880, Note_on_c, 9, 54, 127
5, 5909, Note_on_c, 9, 54, 0
5, 5909, Note_on_c, 9, 62, 0
5, 5910, Note_on_c, 9, 42, 0
5, 5910, Note_on_c, 9, 38, 0
5, 5940, Note_on_c, 9, 35, 109
5, 5940, Note_on_c, 9, 42, 110
5, 5940, Note_on_c, 9, 64, 41
5, 5969, Note_on_c, 9, 64, 0
5, 5970, Note_on_c, 9, 42, 0
5, 5970, Note_on_c, 9, 35, 0
5, 6000, Note_on_c, 9, 35, 117
5, 6000, Note_on_c, 9, 42, 113
5, 6000, Note_on_c, 9, 64, 46
5, 6029, Note_on_c, 9, 64, 0
5, 6030, Note_on_c, 9, 42, 0
5, 6030, Note_on_c, 9, 35, 0
5, 6060, Note_on_c, 9, 42, 118
5, 6060, Note_on_c, 9, 64, 42
5, 6089, Note_on_c, 9, 64, 0
5, 6090, Note_on_c, 9, 42, 0
5, 6120, Note_on_c, 9, 38, 111
5, 6120, Note_on_c, 9, 42, 110
5, 6120, Note_on_c, 9, 62, 41
5, 6120, Note_on_c, 9, 54, 127
5, 6149, Note_on_c, 9, 54, 0
5, 6149, Note_on_c, 9, 62, 0
5, 6150, Note_on_c, 9, 42, 0
5, 6150, Note_on_c, 9, 38, 0
5, 6180, Note_on_c, 9, 46, 107
5, 6180, Note_on_c, 9, 64, 39
5, 6209, Note_on_c, 9, 64, 0
5, 6210, Note_on_c, 9, 46, 0
5, 6240, Note_on_c, 9, 35, 110
5, 6240, Note_on_c, 9, 42, 109
5, 6240, Note_on_c, 9, 64, 29
5, 6269, Note_on_c, 9, 64, 0
5, 6270, Note_on_c, 9, 42, 0
5, 6270, Note_on_c, 9, 35, 0
5, 6300, Note_on_c, 9, 42, 108
5, 6300, Note_on_c, 9, 64, 29
5, 6329, Note_on_c, 9, 64, 0
5, 6330, Note_on_c, 9, 42, 0
5, 6360, Note_on_c, 9, 38, 107
5, 6360, Note_on_c, 9, 42, 110
5, 6360, Note_on_c, 9, 62, 32
5, 6360, Note_on_c, 9, 54, 127
5, 6389, Note_on_c, 9, 54, 0
5, 6389, Note_on_c, 9, 62, 0
5, 6390, Note_on_c, 9, 42, 0
5, 6390, Note_on_c, 9, 38, 0
5, 6420, Note_on_c, 9, 35, 111
5, 6420, Note_on_c, 9, 42, 104
5, 6420, Note_on_c, 9, 64, 29
5, 6449, Note_on_c, 9, 64, 0
5, 6450, Note_on_c, 9, 42, 0
5, 6450, Note_on_c, 9, 35, 0
5, 6480, Note_on_c, 9, 35, 111
5, 6480, Note_on_c, 9, 42, 110
5, 6480, Note_on_c, 9, 64, 31
5, 6509, Note_on_c, 9, 64, 0
5, 6510, Note_on_c, 9, 42, 0
5, 6510, Note_on_c, 9, 35, 0
5, 6540, Note_on_c, 9, 42, 106
5, 6540, Note_on_c, 9, 64, 36
5, 6569, Note_on_c, 9, 64, 0
5, 6570, Note_on_c, 9, 42, 0
5, 6600, Note_on_c, 9, 38, 114
5, 6600, Note_on_c, 9, 42, 113
5, 6600, Note_on_c, 9, 62, 47
5, 6600, Note_on_c, 9, 54, 127
5, 6629, Note_on_c, 9, 54, 0
5, 6629, Note_on_c, 9, 62, 0
5, 6630, Note_on_c, 9, 42, 0
5, 6630, Note_on_c, 9, 38, 0
5, 6660, Note_on_c, 9, 42, 112
5, 6660, Note_on_c, 9, 64, 43
5, 6689, Note_on_c, 9, 64, 0
5, 6690, Note_on_c, 9, 42, 0
5, 6720, Note_on_c, 9, 35, 111
5, 6720, Note_on_c, 9, 42, 115
5, 6720, Note_on_c, 9, 64, 43
5, 6749, Note_on_c, 9, 64, 0
5, 6750, Note_on_c, 9, 42, 0
5, 6750, Note_on_c, 9, 35, 0
5, 6780, Note_on_c, 9, 42, 115
5, 6780, Note_on_c, 9, 64, 29
5, 6809, Note_on_c, 9, 64, 0
5, 6810, Note_on_c, 9, 42, 0
5, 6840, Note_on_c, 9, 38, 104
5, 6840, Note_on_c, 9, 42, 110
5, 6840, Note_on_c, 9, 62, 40
5, 6840, Note_on_c, 9, 54, 127
5, 6869, Note_on_c, 9, 54, 0
5, 6869, Note_on_c, 9, 62, 0
5, 6870, Note_on_c, 9, 42, 0
5, 6870, Note_on_c, 9, 38, 0
5, 6900, Note_on_c, 9, 35, 109
5, 6900, Note_on_c, 9, 42, 110
5, 6900, Note_on_c, 9, 64, 41
5, 6929, Note_on_c, 9, 64, 0
5, 6930, Note_on_c, 9, 42, 0
5, 6930, Note_on_c, 9, 35, 0
5, 6960, Note_on_c, 9, 35, 117
5, 6960, Note_on_c, 9, 42, 113
5, 6960, Note_on_c, 9, 64, 46
5, 6989, Note_on_c, 9, 64, 0
5, 6990, Note_on_c, 9, 42, 0
5, 6990, Note_on_c, 9, 35, 0
5, 7020, Note_on_c, 9, 42, 118
5, 7020, Note_on_c, 9, 64, 42
5, 7049, Note_on_c, 9, 64, 0
5, 7050, Note_on_c, 9, 42, 0
5, 7080, Note_on_c, 9, 38, 111
5, 7080, Note_on_c, 9, 42, 110
5, 7080, Note_on_c, 9, 62, 41
5, 7080, Note_on_c, 9, 54, 127
5, 7109, Note_on_c, 9, 54, 0
5, 7109, Note_on_c, 9, 62, 0
5, 7110, Note_on_c, 9, 42, 0
5, 7110, Note_on_c, 9, 38, 0
5, 7140, Note_on_c, 9, 46, 107
5, 7140, Note_on_c, 9, 64, 39
5, 7169, Note_on_c, 9, 64, 0
5, 7170, Note_on_c, 9, 46, 0
5, 7200, Note_on_c, 9, 35, 110
5, 7200, Note_on_c, 9, 42, 109
5, 7200, Note_on_c, 9, 64, 29
5, 7229, Note_on_c, 9, 64, 0
5, 7230, Note_on_c, 9, 42, 0
5, 7230, Note_on_c, 9, 35, 0
5, 7260, Note_on_c, 9, 42, 108
5, 7260, Note_on_c, 9, 64, 29
5, 7289, Note_on_c, 9, 64, 0
5, 7290, Note_on_c, 9, 42, 0
5, 7320, Note_on_c, 9, 38, 107
5, 7320, Note_on_c, 9, 42, 110
5, 7320, Note_on_c, 9, 62, 32
5, 7320, Note_on_c, 9, 54, 127
5, 7349, Note_on_c, 9, 54, 0
5, 7349, Note_on_c, 9, 62, 0
5, 7350, Note_on_c, 9, 42, 0
5, 7350, Note_on_c, 9, 38, 0
5, 7380, Note_on_c, 9, 35, 111
5, 7380, Note_on_c, 9, 42, 104
5, 7380, Note_on_c, 9, 64, 29
5, 7409, Note_on_c, 9, 64, 0
5, 7410, Note_on_c, 9, 42, 0
5, 7410, Note_on_c, 9, 35, 0
5, 7440, Note_on_c, 9, 35, 111
5, 7440, Note_on_c, 9, 42, 110
5, 7440, Note_on_c, 9, 64, 31
5, 7469, Note_on_c, 9, 64, 0
5, 7470, Note_on_c, 9, 42, 0
5, 7470, Note_on_c, 9, 35, 0
5, 7500, Note_on_c, 9, 42, 106
5, 7500, Note_on_c, 9, 64, 36
5, 7529, Note_on_c, 9, 64, 0
5, 7530, Note_on_c, 9, 42, 0
5, 7560, Note_on_c, 9, 38, 114
5, 7560, Note_on_c, 9, 42, 113
5, 7560, Note_on_c, 9, 62, 47
5, 7560, Note_on_c, 9, 54, 127
5, 7589, Note_on_c, 9, 54, 0
5, 7589, Note_on_c, 9, 62, 0
5, 7590, Note_on_c, 9, 42, 0
5, 7590, Note_on_c, 9, 38, 0
5, 7620, Note_on_c, 9, 42, 112
5, 7620, Note_on_c, 9, 64, 43
5, 7649, Note_on_c, 9, 64, 0
5, 7650, Note_on_c, 9, 42, 0
5, 7680, Note_on_c, 9, 35, 111
5, 7680, Note_on_c, 9, 42, 115
5, 7680, Note_on_c, 9, 64, 43
5, 7709, Note_on_c, 9, 64, 0
5, 7710, Note_on_c, 9, 42, 0
5, 7710, Note_on_c, 9, 35, 0
5, 7740, Note_on_c, 9, 42, 115
5, 7740, Note_on_c, 9, 64, 29
5, 7769, Note_on_c, 9, 64, 0
5, 7770, Note_on_c, 9, 42, 0
5, 7800, Note_on_c, 9, 38, 104
5, 7800, Note_on_c, 9, 42, 110
5, 7800, Note_on_c, 9, 62, 40
5, 7800, Note_on_c, 9, 54, 127
5, 7829, Note_on_c, 9, 54, 0
5, 7829, Note_on_c, 9, 62, 0
5, 7830, Note_on_c, 9, 42, 0
5, 7830, Note_on_c, 9, 38, 0
5, 7860, Note_on_c, 9, 35, 109
5, 7860, Note_on_c, 9, 42, 110
5, 7860, Note_on_c, 9, 64, 41
5, 7889, Note_on_c, 9, 64, 0
5, 7890, Note_on_c, 9, 42, 0
5, 7890, Note_on_c, 9, 35, 0
5, 7920, Note_on_c, 9, 35, 117
5, 7920, Note_on_c, 9, 42, 113
5, 7920, Note_on_c, 9, 64, 46
5, 7949, Note_on_c, 9, 64, 0
5, 7950, Note_on_c, 9, 42, 0
5, 7950, Note_on_c, 9, 35, 0
5, 7980, Note_on_c, 9, 42, 118
5, 7980, Note_on_c, 9, 64, 42
5, 8009, Note_on_c, 9, 64, 0
5, 8010, Note_on_c, 9, 42, 0
5, 8040, Note_on_c, 9, 38, 111
5, 8040, Note_on_c, 9, 42, 110
5, 8040, Note_on_c, 9, 62, 41
5, 8040, Note_on_c, 9, 54, 127
5, 8069, Note_on_c, 9, 54, 0
5, 8069, Note_on_c, 9, 62, 0
5, 8070, Note_on_c, 9, 42, 0
5, 8070, Note_on_c, 9, 38, 0
5, 8100, Note_on_c, 9, 46, 107
5, 8100, Note_on_c, 9, 64, 39
5, 8129, Note_on_c, 9, 64, 0
5, 8130, Note_on_c, 9, 46, 0
5, 8160, Note_on_c, 9, 35, 110
5, 8160, Note_on_c, 9, 42, 109
5, 8160, Note_on_c, 9, 64, 29
5, 8189, Note_on_c, 9, 64, 0
5, 8190, Note_on_c, 9, 42, 0
5, 8190, Note_on_c, 9, 35, 0
5, 8220, Note_on_c, 9, 42, 108
5, 8220, Note_on_c, 9, 64, 29
5, 8249, Note_on_c, 9, 64, 0
5, 8250, Note_on_c, 9, 42, 0
5, 8280, Note_on_c, 9, 38, 107
5, 8280, Note_on_c, 9, 42, 110
5, 8280, Note_on_c, 9, 62, 32
5, 8280, Note_on_c, 9, 54, 127
5, 8309, Note_on_c, 9, 54, 0
5, 8309, Note_on_c, 9, 62, 0
5, 8310, Note_on_c, 9, 42, 0
5, 8310, Note_on_c, 9, 38, 0
5, 8340, Note_on_c, 9, 35, 111
5, 8340, Note_on_c, 9, 42, 104
5, 8340, Note_on_c, 9, 64, 29
5, 8369, Note_on_c, 9, 64, 0
5, 8370, Note_on_c, 9, 42, 0
5, 8370, Note_on_c, 9, 35, 0
5, 8400, Note_on_c, 9, 35, 111
5, 8400, Note_on_c, 9, 42, 110
5, 8400, Note_on_c, 9, 64, 31
5, 8429, Note_on_c, 9, 64, 0
5, 8430, Note_on_c, 9, 42, 0
5, 8430, Note_on_c, 9, 35, 0
5, 8460, Note_on_c, 9, 42, 106
5, 8460, Note_on_c, 9, 64, 36
5, 8489, Note_on_c, 9, 64, 0
5, 8490, Note_on_c, 9, 42, 0
5, 8520, Note_on_c, 9, 38, 114
5, 8520, Note_on_c, 9, 42, 113
5, 8520, Note_on_c, 9, 62, 47
5, 8520, Note_on_c, 9, 54, 127
5, 8549, Note_on_c, 9, 54, 0
5, 8549, Note_on_c, 9, 62, 0
5, 8550, Note_on_c, 9, 42, 0
5, 8550, Note_on_c, 9, 38, 0
5, 8580, Note_on_c, 9, 42, 112
5, 8580, Note_on_c, 9, 64, 43
5, 8609, Note_on_c, 9, 64, 0
5, 8610, Note_on_c, 9, 42, 0
5, 8640, Note_on_c, 9, 35, 111
5, 8640, Note_on_c, 9, 42, 115
5, 8640, Note_on_c, 9, 64, 43
5, 8669, Note_on_c, 9, 64, 0
5, 8670, Note_on_c, 9, 42, 0
5, 8670, Note_on_c, 9, 35, 0
5, 8700, Note_on_c, 9, 42, 115
5, 8700, Note_on_c, 9, 64, 29
5, 8729, Note_on_c, 9, 64, 0
5, 8730, Note_on_c, 9, 42, 0
5, 8760, Note_on_c, 9, 38, 104
5, 8760, Note_on_c, 9, 42, 110
5, 8760, Note_on_c, 9, 62, 40
5, 8760, Note_on_c, 9, 54, 127
5, 8789, Note_on_c, 9, 54, 0
5, 8789, Note_on_c, 9, 62, 0
5, 8790, Note_on_c, 9, 42, 0
5, 8790, Note_on_c, 9, 38, 0
5, 8820, Note_on_c, 9, 35, 109
5, 8820, Note_on_c, 9, 42, 110
5, 8820, Note_on_c, 9, 64, 41
5, 8849, Note_on_c, 9, 64, 0
5, 8850, Note_on_c, 9, 42, 0
5, 8850, Note_on_c, 9, 35, 0
5, 8880, Note_on_c, 9, 35, 117
5, 8880, Note_on_c, 9, 42, 113
5, 8880, Note_on_c, 9, 64, 46
5, 8909, Note_on_c, 9, 64, 0
5, 8910, Note_on_c, 9, 42, 0
5, 8910, Note_on_c, 9, 35, 0
5, 8940, Note_on_c, 9, 42, 118
5, 8940, Note_on_c, 9, 64, 42
5, 8969, Note_on_c, 9, 64, 0
5, 8970, Note_on_c, 9, 42, 0
5, 9000, Note_on_c, 9, 38, 111
5, 9000, Note_on_c, 9, 42, 110
5, 9000, Note_on_c, 9, 62, 41
5, 9000, Note_on_c, 9, 54, 127
5, 9029, Note_on_c, 9, 54, 0
5, 9029, Note_on_c, 9, 62, 0
5, 9030, Note_on_c, 9, 42, 0
5, 9030, Note_on_c, 9, 38, 0
5, 9060, Note_on_c, 9, 46, 107
5, 9060, Note_on_c, 9, 64, 39
5, 9089, Note_on_c, 9, 64, 0
5, 9090, Note_on_c, 9, 46, 0
5, 9120, Note_on_c, 9, 35, 110
5, 9120, Note_on_c, 9, 42, 109
5, 9120, Note_on_c, 9, 64, 29
5, 9149, Note_on_c, 9, 64, 0
5, 9150, Note_on_c, 9, 42, 0
5, 9150, Note_on_c, 9, 35, 0
5, 9180, Note_on_c, 9, 42, 108
5, 9180, Note_on_c, 9, 64, 29
5, 9209, Note_on_c, 9, 64, 0
5, 9210, Note_on_c, 9, 42, 0
5, 9240, Note_on_c, 9, 38, 107
5, 9240, Note_on_c, 9, 42, 110
5, 9240, Note_on_c, 9, 62, 32
5, 9240, Note_on_c, 9, 54, 127
5, 9269, Note_on_c, 9, 54, 0
5, 9269, Note_on_c, 9, 62, 0
5, 9270, Note_on_c, 9, 42, 0
5, 9270, Note_on_c, 9, 38, 0
5, 9300, Note_on_c, 9, 35, 111
5, 9300, Note_on_c, 9, 42, 104
5, 9300, Note_on_c, 9, 64, 29
5, 9329, Note_on_c, 9, 64, 0
5, 9330, Note_on_c, 9, 42, 0
5, 9330, Note_on_c, 9, 35, 0
5, 9360, Note_on_c, 9, 35, 111
5, 9360, Note_on_c, 9, 42, 110
5, 9360, Note_on_c, 9, 64, 31
5, 9389, Note_on_c, 9, 64, 0
5, 9390, Note_on_c, 9, 42, 0
5, 9390, Note_on_c, 9, 35, 0
5, 9420, Note_on_c, 9, 42, 106
5, 9420, Note_on_c, 9, 64, 36
5, 9449, Note_on_c, 9, 64, 0
5, 9450, Note_on_c, 9, 42, 0
5, 9480, Note_on_c, 9, 38, 114
5, 9480, Note_on_c, 9, 42, 113
5, 9480, Note_on_c, 9, 62, 47
5, 9480, Note_on_c, 9, 54, 127
5, 9509, Note_on_c, 9, 54, 0
5, 9509, Note_on_c, 9, 62, 0
5, 9510, Note_on_c, 9, 42, 0
5, 9510, Note_on_c, 9, 38, 0
5, 9540, Note_on_c, 9, 42, 112
5, 9540, Note_on_c, 9, 64, 43
5, 9569, Note_on_c, 9, 64, 0
5, 9570, Note_on_c, 9, 42, 0
5, 9600, Note_on_c, 9, 35, 111
5, 9600, Note_on_c, 9, 42, 115
5, 9600, Note_on_c, 9, 64, 43
5, 9629, Note_on_c, 9, 64, 0
5, 9630, Note_on_c, 9, 42, 0
5, 9630, Note_on_c, 9, 35, 0
5, 9660, Note_on_c, 9, 42, 115
5, 9660, Note_on_c, 9, 64, 29
5, 9689, Note_on_c, 9, 64, 0
5, 9690, Note_on_c, 9, 42, 0
5, 9720, Note_on_c, 9, 38, 104
5, 9720, Note_on_c, 9, 42, 110
5, 9720, Note_on_c, 9, 62, 40
5, 9720, Note_on_c, 9, 54, 127
5, 9749, Note_on_c, 9, 54, 0
5, 9749, Note_on_c, 9, 62, 0
5, 9750, Note_on_c, 9, 42, 0
5, 9750, Note_on_c, 9, 38, 0
5, 9780, Note_on_c, 9, 35, 109
5, 9780, Note_on_c, 9, 42, 110
5, 9780, Note_on_c, 9, 64, 41
5, 9809, Note_on_c, 9, 64, 0
5, 9810, Note_on_c, 9, 42, 0
5, 9810, Note_on_c, 9, 35, 0
5, 9840, Note_on_c, 9, 35, 117
5, 9840, Note_on_c, 9, 42, 113
5, 9840, Note_on_c, 9, 64, 46
5, 9869, Note_on_c, 9, 64, 0
5, 9870, Note_on_c, 9, 42, 0
5, 9870, Note_on_c, 9, 35, 0
5, 9900, Note_on_c, 9, 42, 118
5, 9900, Note_on_c, 9, 64, 42
5, 9900, Note_on_c, 9, 50, 115
5, 9916, Note_on_c, 9, 50, 0
5, 9929, Note_on_c, 9, 64, 0
5, 9930, Note_on_c, 9, 42, 0
5, 9960, Note_on_c, 9, 38, 111
5, 9960, Note_on_c, 9, 42, 110
5, 9960, Note_on_c, 9, 62, 41
5, 9960, Note_on_c, 9, 54, 127
5, 9960, Note_on_c, 9, 47, 119
5, 9975, Note_on_c, 9, 47, 0
5, 9989, Note_on_c, 9, 62, 0
5, 9989, Note_on_c, 9, 54, 0
5, 9990, Note_on_c, 9, 42, 0
5, 9990, Note_on_c, 9, 38, 0
5, 10020, Note_on_c, 9, 46, 107
5, 10020, Note_on_c, 9, 64, 39
5, 10049, Note_on_c, 9, 64, 0
5, 10050, Note_on_c, 9, 46, 0
5, 10080, Note_on_c, 9, 35, 110
5, 10080, Note_on_c, 9, 42, 109
5, 10080, Note_on_c, 9, 64, 29
5, 10109, Note_on_c, 9, 64, 0
5, 10110, Note_on_c, 9, 42, 0
5, 10110, Note_on_c, 9, 35, 0
5, 10140, Note_on_c, 9, 42, 108
5, 10140, Note_on_c, 9, 64, 29
5, 10169, Note_on_c, 9, 64, 0
5, 10170, Note_on_c, 9, 42, 0
5, 10200, Note_on_c, 9, 38, 107
5, 10200, Note_on_c, 9, 42, 110
5, 10200, Note_on_c, 9, 62, 32
5, 10200, Note_on_c, 9, 54, 127
5, 10229, Note_on_c, 9, 54, 0
5, 10229, Note_on_c, 9, 62, 0
5, 10230, Note_on_c, 9, 42, 0
5, 10230, Note_on_c, 9, 38, 0
5, 10260, Note_on_c, 9, 35, 111
5, 10260, Note_on_c, 9, 42, 104
5, 10260, Note_on_c, 9, 64, 29
5, 10289, Note_on_c, 9, 64, 0
5, 10290, Note_on_c, 9, 42, 0
5, 10290, Note_on_c, 9, 35, 0
5, 10320, Note_on_c, 9, 35, 111
5, 10320, Note_on_c, 9, 42, 110
5, 10320, Note_on_c, 9, 64, 31
5, 10349, Note_on_c, 9, 64, 0
5, 10350, Note_on_c, 9, 42, 0
5, 10350, Note_on_c, 9, 35, 0
5, 10380, Note_on_c, 9, 42, 106
5, 10380, Note_on_c, 9, 64, 36
5, 10409, Note_on_c, 9, 64, 0
5, 10410, Note_on_c, 9, 42, 0
5, 10440, Note_on_c, 9, 38, 114
5, 10440, Note_on_c, 9, 42, 113
5, 10440, Note_on_c, 9, 62, 47
5, 10440, Note_on_c, 9, 54, 127
5, 10469, Note_on_c, 9, 54, 0
5, 10469, Note_on_c, 9, 62, 0
5, 10470, Note_on_c, 9, 42, 0
5, 10470, Note_on_c, 9, 38, 0
5, 10500, Note_on_c, 9, 42, 112
5, 10500, Note_on_c, 9, 64, 43
5, 10529, Note_on_c, 9, 64, 0
5, 10530, Note_on_c, 9, 42, 0
5, 10560, Note_on_c, 9, 35, 111
5, 10560, Note_on_c, 9, 42, 115
5, 10560, Note_on_c, 9, 64, 43
5, 10589, Note_on_c, 9, 64, 0
5, 10590, Note_on_c, 9, 42, 0
5, 10590, Note_on_c, 9, 35, 0
5, 10620, Note_on_c, 9, 42, 115
5, 10620, Note_on_c, 9, 64, 29
5, 10649, Note_on_c, 9, 64, 0
5, 10650, Note_on_c, 9, 42, 0
5, 10680, Note_on_c, 9, 38, 104
5, 10680, Note_on_c, 9, 42, 110
5, 10680, Note_on_c, 9, 62, 40
5, 10680, Note_on_c, 9, 54, 127
5, 10709, Note_on_c, 9, 54, 0
5, 10709, Note_on_c, 9, 62, 0
5, 10710, Note_on_c, 9, 42, 0
5, 10710, Note_on_c, 9, 38, 0
5, 10740, Note_on_c, 9, 35, 109
5, 10740, Note_on_c, 9, 42, 110
5, 10740, Note_on_c, 9, 64, 41
5, 10769, Note_on_c, 9, 64, 0
5, 10770, Note_on_c, 9, 42, 0
5, 10770, Note_on_c, 9, 35, 0
5, 10800, Note_on_c, 9, 35, 117
5, 10800, Note_on_c, 9, 42, 113
5, 10800, Note_on_c, 9, 64, 46
5, 10829, Note_on_c, 9, 64, 0
5, 10830, Note_on_c, 9, 42, 0
5, 10830, Note_on_c, 9, 35, 0
5, 10860, Note_on_c, 9, 42, 118
5, 10860, Note_on_c, 9, 64, 42
5, 10889, Note_on_c, 9, 64, 0
5, 10890, Note_on_c, 9, 42, 0
5, 10920, Note_on_c, 9, 38, 111
5, 10920, Note_on_c, 9, 42, 110
5, 10920, Note_on_c, 9, 62, 41
5, 10920, Note_on_c, 9, 54, 127
5, 10949, Note_on_c, 9, 54, 0
5, 10949, Note_on_c, 9, 62, 0
5, 10950, Note_on_c, 9, 42, 0
5, 10950, Note_on_c, 9, 38, 0
5, 10980, Note_on_c, 9, 46, 107
5, 10980, Note_on_c, 9, 64, 39
5, 11009, Note_on_c, 9, 64, 0
5, 11010, Note_on_c, 9, 46, 0
5, 11040, Note_on_c, 9, 35, 110
5, 11040, Note_on_c, 9, 42, 109
5, 11040, Note_on_c, 9, 64, 29
5, 11069, Note_on_c, 9, 64, 0
5, 11070, Note_on_c, 9, 42, 0
5, 11070, Note_on_c, 9, 35, 0
5, 11100, Note_on_c, 9, 42, 108
5, 11100, Note_on_c, 9, 64, 29
5, 11129, Note_on_c, 9, 64, 0
5, 11130, Note_on_c, 9, 42, 0
5, 11160, Note_on_c, 9, 38, 107
5, 11160, Note_on_c, 9, 42, 110
5, 11160, Note_on_c, 9, 62, 32
5, 11160, Note_on_c, 9, 54, 127
5, 11189, Note_on_c, 9, 54, 0
5, 11189, Note_on_c, 9, 62, 0
5, 11190, Note_on_c, 9, 42, 0
5, 11190, Note_on_c, 9, 38, 0
5, 11220, Note_on_c, 9, 35, 111
5, 11220, Note_on_c, 9, 42, 104
5, 11220, Note_on_c, 9, 64, 29
5, 11249, Note_on_c, 9, 64, 0
5, 11250, Note_on_c, 9, 42, 0
5, 11250, Note_on_c, 9, 35, 0
5, 11280, Note_on_c, 9, 35, 111
5, 11280, Note_on_c, 9, 42, 110
5, 11280, Note_on_c, 9, 64, 31
5, 11309, Note_on_c, 9, 64, 0
5, 11310, Note_on_c, 9, 42, 0
5, 11310, Note_on_c, 9, 35, 0
5, 11340, Note_on_c, 9, 42, 106
5, 11340, Note_on_c, 9, 64, 36
5, 11369, Note_on_c, 9, 64, 0
5, 11370, Note_on_c, 9, 42, 0
5, 11400, Note_on_c, 9, 38, 114
5, 11400, Note_on_c, 9, 42, 113
5, 11400, Note_on_c, 9, 62, 47
5, 11400, Note_on_c, 9, 54, 127
5, 11429, Note_on_c, 9, 54, 0
5, 11429, Note_on_c, 9, 62, 0
5, 11430, Note_on_c, 9, 42, 0
5, 11430, Note_on_c, 9, 38, 0
5, 11460, Note_on_c, 9, 42, 112
5, 11460, Note_on_c, 9, 64, 43
5, 11489, Note_on_c, 9, 64, 0
5, 11490, Note_on_c, 9, 42, 0
5, 11520, Note_on_c, 9, 35, 111
5, 11520, Note_on_c, 9, 42, 115
5, 11520, Note_on_c, 9, 64, 43
5, 11549, Note_on_c, 9, 64, 0
5, 11550, Note_on_c, 9, 42, 0
5, 11550, Note_on_c, 9, 35, 0
5, 11580, Note_on_c, 9, 42, 115
5, 11580, Note_on_c, 9, 64, 29
5, 11609, Note_on_c, 9, 64, 0
5, 11610, Note_on_c, 9, 42, 0
5, 11640, Note_on_c, 9, 38, 104
5, 11640, Note_on_c, 9, 42, 110
5, 11640, Note_on_c, 9, 62, 40
5, 11640, Note_on_c, 9, 54, 127
5, 11669, Note_on_c, 9, 54, 0
5, 11669, Note_on_c, 9, 62, 0
5, 11670, Note_on_c, 9, 42, 0
5, 11670, Note_on_c, 9, 38, 0
5, 11700, Note_on_c, 9, 35, 109
5, 11700, Note_on_c, 9, 42, 110
5, 11700, Note_on_c, 9, 64, 41
5, 11729, Note_on_c, 9, 64, 0
5, 11730, Note_on_c, 9, 42, 0
5, 11730, Note_on_c, 9, 35, 0
5, 11760, Note_on_c, 9, 35, 117
5, 11760, Note_on_c, 9, 42, 113
5, 11760, Note_on_c, 9, 64, 46
5, 11789, Note_on_c, 9, 64, 0
5, 11790, Note_on_c, 9, 42, 0
5, 11790, Note_on_c, 9, 35, 0
5, 11820, Note_on_c, 9, 42, 118
5, 11820, Note_on_c, 9, 64, 42
5, 11849, Note_on_c, 9, 64, 0
5, 11850, Note_on_c, 9, 42, 0
5, 11880, Note_on_c, 9, 38, 111
5, 11880, Note_on_c, 9, 42, 110
5, 11880, Note_on_c, 9, 62, 41
5, 11880, Note_on_c, 9, 54, 127
5, 11909, Note_on_c, 9, 54, 0
5, 11909, Note_on_c, 9, 62, 0
5, 11910, Note_on_c, 9, 42, 0
5, 11910, Note_on_c, 9, 38, 0
5, 11940, Note_on_c, 9, 46, 107
5, 11940, Note_on_c, 9, 64, 39
5, 11969, Note_on_c, 9, 64, 0
5, 11970, Note_on_c, 9, 46, 0
5, 12000, Note_on_c, 9, 35, 110
5, 12000, Note_on_c, 9, 42, 109
5, 12000, Note_on_c, 9, 64, 29
5, 12029, Note_on_c, 9, 64, 0
5, 12030, Note_on_c, 9, 42, 0
5, 12030, Note_on_c, 9, 35, 0
5, 12060, Note_on_c, 9, 42, 108
5, 12060, Note_on_c, 9, 64, 29
5, 12089, Note_on_c, 9, 64, 0
5, 12090, Note_on_c, 9, 42, 0
5, 12120, Note_on_c, 9, 38, 107
5, 12120, Note_on_c, 9, 42, 110
5, 12120, Note_on_c, 9, 62, 32
5, 12120, Note_on_c, 9, 54, 127
5, 12149, Note_on_c, 9, 54, 0
5, 12149, Note_on_c, 9, 62, 0
5, 12150, Note_on_c, 9, 42, 0
5, 12150, Note_on_c, 9, 38, 0
5, 12180, Note_on_c, 9, 35, 111
5, 12180, Note_on_c, 9, 42, 104
5, 12180, Note_on_c, 9, 64, 29
5, 12209, Note_on_c, 9, 64, 0
5, 12210, Note_on_c, 9, 42, 0
5, 12210, Note_on_c, 9, 35, 0
5, 12240, Note_on_c, 9, 35, 111
5, 12240, Note_on_c, 9, 42, 110
5, 12240, Note_on_c, 9, 64, 31
5, 12269, Note_on_c, 9, 64, 0
5, 12270, Note_on_c, 9, 42, 0
5, 12270, Note_on_c, 9, 35, 0
5, 12300, Note_on_c, 9, 42, 106
5, 12300, Note_on_c, 9, 64, 36
5, 12329, Note_on_c, 9, 64, 0
5, 12330, Note_on_c, 9, 42, 0
5, 12360, Note_on_c, 9, 38, 114
5, 12360, Note_on_c, 9, 42, 113
5, 12360, Note_on_c, 9, 62, 47
5, 12360, Note_on_c, 9, 54, 127
5, 12389, Note_on_c, 9, 54, 0
5, 12389, Note_on_c, 9, 62, 0
5, 12390, Note_on_c, 9, 42, 0
5, 12390, Note_on_c, 9, 38, 0
5, 12420, Note_on_c, 9, 42, 112
5, 12420, Note_on_c, 9, 64, 43
5, 12449, Note_on_c, 9, 64, 0
5, 12450, Note_on_c, 9, 42, 0
5, 12480, Note_on_c, 9, 35, 111
5, 12480, Note_on_c, 9, 42, 115
5, 12480, Note_on_c, 9, 64, 43
5, 12509, Note_on_c, 9, 64, 0
5, 12510, Note_on_c, 9, 42, 0
5, 12510, Note_on_c, 9, 35, 0
5, 12540, Note_on_c, 9, 42, 115
5, 12540, Note_on_c, 9, 64, 29
5, 12569, Note_on_c, 9, 64, 0
5, 12570, Note_on_c, 9, 42, 0
5, 12600, Note_on_c, 9, 38, 104
5, 12600, Note_on_c, 9, 42, 110
5, 12600, Note_on_c, 9, 62, 40
5, 12600, Note_on_c, 9, 54, 127
5, 12629, Note_on_c, 9, 54, 0
5, 12629, Note_on_c, 9, 62, 0
5, 12630, Note_on_c, 9, 42, 0
5, 12630, Note_on_c, 9, 38, 0
5, 12660, Note_on_c, 9, 35, 109
5, 12660, Note_on_c, 9, 42, 110
5, 12660, Note_on_c, 9, 64, 41
5, 12689, Note_on_c, 9, 64, 0
5, 12690, Note_on_c, 9, 42, 0
5, 12690, Note_on_c, 9, 35, 0
5, 12720, Note_on_c, 9, 35, 117
5, 12720, Note_on_c, 9, 42, 113
5, 12720, Note_on_c, 9, 64, 46
5, 12749, Note_on_c, 9, 64, 0
5, 12750, Note_on_c, 9, 42, 0
5, 12750, Note_on_c, 9, 35, 0
5, 12780, Note_on_c, 9, 42, 118
5, 12780, Note_on_c, 9, 64, 42
5, 12809, Note_on_c, 9, 64, 0
5, 12810, Note_on_c, 9, 42, 0
5, 12840, Note_on_c, 9, 38, 111
5, 12840, Note_on_c, 9, 42, 110
5, 12840, Note_on_c, 9, 62, 41
5, 12840, Note_on_c, 9, 54, 127
5, 12869, Note_on_c, 9, 54, 0
5, 12869, Note_on_c, 9, 62, 0
5, 12870, Note_on_c, 9, 42, 0
5, 12870, Note_on_c, 9, 38, 0
5, 12900, Note_on_c, 9, 46, 107
5, 12900, Note_on_c, 9, 64, 39
5, 12929, Note_on_c, 9, 64, 0
5, 12930, Note_on_c, 9, 46, 0
5, 12960, Note_on_c, 9, 35, 110
5, 12960, Note_on_c, 9, 42, 109
5, 12960, Note_on_c, 9, 64, 29
5, 12989, Note_on_c, 9, 64, 0
5, 12990, Note_on_c, 9, 42, 0
5, 12990, Note_on_c, 9, 35, 0
5, 13020, Note_on_c, 9, 42, 108
5, 13020, Note_on_c, 9, 64, 29
5, 13049, Note_on_c, 9, 64, 0
5, 13050, Note_on_c, 9, 42, 0
5, 13080, Note_on_c, 9, 38, 107
5, 13080, Note_on_c, 9, 42, 110
5, 13080, Note_on_c, 9, 62, 32
5, 13080, Note_on_c, 9, 54, 127
5, 13109, Note_on_c, 9, 54, 0
5, 13109, Note_on_c, 9, 62, 0
5, 13110, Note_on_c, 9, 42, 0
5, 13110, Note_on_c, 9, 38, 0
5, 13140, Note_on_c, 9, 35, 111
5, 13140, Note_on_c, 9, 42, 104
5, 13140, Note_on_c, 9, 64, 29
5, 13169, Note_on_c, 9, 64, 0
5, 13170, Note_on_c, 9, 42, 0
5, 13170, Note_on_c, 9, 35, 0
5, 13200, Note_on_c, 9, 35, 111
5, 13200, Note_on_c, 9, 42, 110
5, 13200, Note_on_c, 9, 64, 31
5, 13229, Note_on_c, 9, 64, 0
5, 13230, Note_on_c, 9, 42, 0
5, 13230, Note_on_c, 9, 35, 0
5, 13260, Note_on_c, 9, 42, 106
5, 13260, Note_on_c, 9, 64, 36
5, 13265, Note_on_c, 9, 48, 91
5, 13266, Note_on_c, 9, 50, 95
5, 13280, Note_on_c, 9, 50, 0
5, 13280, Note_on_c, 9, 48, 0
5, 13289, Note_on_c, 9, 64, 0
5, 13290, Note_on_c, 9, 42, 0
5, 13320, Note_on_c, 9, 38, 114
5, 13320, Note_on_c, 9, 42, 113
5, 13320, Note_on_c, 9, 62, 47
5, 13320, Note_on_c, 9, 54, 127
5, 13322, Note_on_c, 9, 45, 115
5, 13339, Note_on_c, 9, 45, 0
5, 13349, Note_on_c, 9, 62, 0
5, 13349, Note_on_c, 9, 54, 0
5, 13350, Note_on_c, 9, 42, 0
5, 13350, Note_on_c, 9, 38, 0
5, 13380, Note_on_c, 9, 42, 112
5, 13380, Note_on_c, 9, 64, 43
5, 13380, Note_on_c, 9, 45, 127
5, 13397, Note_on_c, 9, 45, 0
5, 13409, Note_on_c, 9, 64, 0
5, 13410, Note_on_c, 9, 42, 0
5, 13440, Note_on_c, 9, 35, 111
5, 13440, Note_on_c, 9, 42, 115
5, 13440, Note_on_c, 9, 64, 43
5, 13469, Note_on_c, 9, 64, 0
5, 13470, Note_on_c, 9, 42, 0
5, 13470, Note_on_c, 9, 35, 0
5, 13500, Note_on_c, 9, 42, 115
5, 13500, Note_on_c, 9, 64, 29
5, 13529, Note_on_c, 9, 64, 0
5, 13530, Note_on_c, 9, 42, 0
5, 13560, Note_on_c, 9, 38, 104
5, 13560, Note_on_c, 9, 42, 110
5, 13560, Note_on_c, 9, 62, 40
5, 13560, Note_on_c, 9, 54, 127
5, 13589, Note_on_c, 9, 54, 0
5, 13589, Note_on_c, 9, 62, 0
5, 13590, Note_on_c, 9, 42, 0
5, 13590, Note_on_c, 9, 38, 0
5, 13620, Note_on_c, 9, 35, 109
5, 13620, Note_on_c, 9, 42, 110
5, 13620, Note_on_c, 9, 64, 41
5, 13649, Note_on_c, 9, 64, 0
5, 13650, Note_on_c, 9, 42, 0
5, 13650, Note_on_c, 9, 35, 0
5, 13680, Note_on_c, 9, 35, 117
5, 13680, Note_on_c, 9, 42, 113
5, 13680, Note_on_c, 9, 64, 46
5, 13709, Note_on_c, 9, 64, 0
5, 13710, Note_on_c, 9, 42, 0
5, 13710, Note_on_c, 9, 35, 0
5, 13740, Note_on_c, 9, 42, 118
5, 13740, Note_on_c, 9, 64, 42
5, 13769, Note_on_c, 9, 64, 0
5, 13770, Note_on_c, 9, 42, 0
5, 13800, Note_on_c, 9, 38, 111
5, 13800, Note_on_c, 9, 42, 110
5, 13800, Note_on_c, 9, 62, 41
5, 13800, Note_on_c, 9, 54, 127
5, 13829, Note_on_c, 9, 54, 0
5, 13829, Note_on_c, 9, 62, 0
5, 13830, Note_on_c, 9, 42, 0
5, 13830, Note_on_c, 9, 38, 0
5, 13860, Note_on_c, 9, 46, 107
5, 13860, Note_on_c, 9, 64, 39
5, 13889, Note_on_c, 9, 64, 0
5, 13890, Note_on_c, 9, 46, 0
5, 13920, Note_on_c, 9, 35, 110
5, 13920, Note_on_c, 9, 42, 109
5, 13920, Note_on_c, 9, 64, 29
5, 13949, Note_on_c, 9, 64, 0
5, 13950, Note_on_c, 9, 42, 0
5, 13950, Note_on_c, 9, 35, 0
5, 13980, Note_on_c, 9, 42, 108
5, 13980, Note_on_c, 9, 64, 29
5, 14009, Note_on_c, 9, 64, 0
5, 14010, Note_on_c, 9, 42, 0
5, 14040, Note_on_c, 9, 38, 107
5, 14040, Note_on_c, 9, 42, 110
5, 14040, Note_on_c, 9, 62, 32
5, 14040, Note_on_c, 9, 54, 127
5, 14069, Note_on_c, 9, 54, 0
5, 14069, Note_on_c, 9, 62, 0
5, 14070, Note_on_c, 9, 42, 0
5, 14070, Note_on_c, 9, 38, 0
5, 14100, Note_on_c, 9, 35, 111
5, 14100, Note_on_c, 9, 42, 104
5, 14100, Note_on_c, 9, 64, 29
5, 14129, Note_on_c, 9, 64, 0
5, 14130, Note_on_c, 9, 42, 0
5, 14130, Note_on_c, 9, 35, 0
5, 14160, Note_on_c, 9, 35, 111
5, 14160, Note_on_c, 9, 42, 110
5, 14160, Note_on_c, 9, 64, 31
5, 14189, Note_on_c, 9, 64, 0
5, 14190, Note_on_c, 9, 42, 0
5, 14190, Note_on_c, 9, 35, 0
5, 14220, Note_on_c, 9, 42, 106
5, 14220, Note_on_c, 9, 64, 36
5, 14249, Note_on_c, 9, 64, 0
5, 14250, Note_on_c, 9, 42, 0
5, 14280, Note_on_c, 9, 38, 114
5, 14280, Note_on_c, 9, 42, 113
5, 14280, Note_on_c, 9, 62, 47
5, 14280, Note_on_c, 9, 54, 127
5, 14309, Note_on_c, 9, 54, 0
5, 14309, Note_on_c, 9, 62, 0
5, 14310, Note_on_c, 9, 42, 0
5, 14310, Note_on_c, 9, 38, 0
5, 14340, Note_on_c, 9, 42, 112
5, 14340, Note_on_c, 9, 64, 43
5, 14369, Note_on_c, 9, 64, 0
5, 14370, Note_on_c, 9, 42, 0
5, 14400, Note_on_c, 9, 35, 111
5, 14400, Note_on_c, 9, 42, 115
5, 14400, Note_on_c, 9, 64, 43
5, 14429, Note_on_c, 9, 64, 0
5, 14430, Note_on_c, 9, 42, 0
5, 14430, Note_on_c, 9, 35, 0
5, 14460, Note_on_c, 9, 42, 115
5, 14460, Note_on_c, 9, 64, 29
5, 14489, Note_on_c, 9, 64, 0
5, 14490, Note_on_c, 9, 42, 0
5, 14520, Note_on_c, 9, 38, 104
5, 14520, Note_on_c, 9, 42, 110
5, 14520, Note_on_c, 9, 62, 40
5, 14520, Note_on_c, 9, 54, 127
5, 14549, Note_on_c, 9, 54, 0
5, 14549, Note_on_c, 9, 62, 0
5, 14550, Note_on_c, 9, 42, 0
5, 14550, Note_on_c, 9, 38, 0
5, 14580, Note_on_c, 9, 35, 109
5, 14580, Note_on_c, 9, 42, 110
5, 14580, Note_on_c, 9, 64, 41
5, 14609, Note_on_c, 9, 64, 0
5, 14610, Note_on_c, 9, 42, 0
5, 14610, Note_on_c, 9, 35, 0
5, 14640, Note_on_c, 9, 35, 117
5, 14640, Note_on_c, 9, 42, 113
5, 14640, Note_on_c, 9, 64, 46
5, 14669, Note_on_c, 9, 64, 0
5, 14670, Note_on_c, 9, 42, 0
5, 14670, Note_on_c, 9, 35, 0
5, 14700, Note_on_c, 9, 42, 118
5, 14700, Note_on_c, 9, 64, 42
5, 14729, Note_on_c, 9, 64, 0
5, 14730, Note_on_c, 9, 42, 0
5, 14760, Note_on_c, 9, 38, 111
5, 14760, Note_on_c, 9, 42, 110
5, 14760, Note_on_c, 9, 62, 41
5, 14760, Note_on_c, 9, 54, 127
5, 14789, Note_on_c, 9, 54, 0
5, 14789, Note_on_c, 9, 62, 0
5, 14790, Note_on_c, 9, 42, 0
5, 14790, Note_on_c, 9, 38, 0
5, 14820, Note_on_c, 9, 46, 107
5, 14820, Note_on_c, 9, 64, 39
5, 14849, Note_on_c, 9, 64, 0
5, 14850, Note_on_c, 9, 46, 0
5, 14880, Note_on_c, 9, 35, 110
5, 14880, Note_on_c, 9, 42, 109
5, 14880, Note_on_c, 9, 64, 29
5, 14909, Note_on_c, 9, 64, 0
5, 14910, Note_on_c, 9, 42, 0
5, 14910, Note_on_c, 9, 35, 0
5, 14940, Note_on_c, 9, 42, 108
5, 14940, Note_on_c, 9, 64, 29
5, 14969, Note_on_c, 9, 64, 0
5, 14970, Note_on_c, 9, 42, 0
5, 15000, Note_on_c, 9, 38, 107
5, 15000, Note_on_c, 9, 42, 110
5, 15000, Note_on_c, 9, 62, 32
5, 15000, Note_on_c, 9, 54, 127
5, 15029, Note_on_c, 9, 54, 0
5, 15029, Note_on_c, 9, 62, 0
5, 15030, Note_on_c, 9, 42, 0
5, 15030, Note_on_c, 9, 38, 0
5, 15060, Note_on_c, 9, 35, 111
5, 15060, Note_on_c, 9, 42, 104
5, 15060, Note_on_c, 9, 64, 29
5, 15089, Note_on_c, 9, 64, 0
5, 15090, Note_on_c, 9, 42, 0
5, 15090, Note_on_c, 9, 35, 0
5, 15120, Note_on_c, 9, 35, 111
5, 15120, Note_on_c, 9, 42, 110
5, 15120, Note_on_c, 9, 64, 31
5, 15149, Note_on_c, 9, 64, 0
5, 15150, Note_on_c, 9, 42, 0
5, 15150, Note_on_c, 9, 35, 0
5, 15180, Note_on_c, 9, 42, 106
5, 15180, Note_on_c, 9, 64, 36
5, 15209, Note_on_c, 9, 64, 0
5, 15210, Note_on_c, 9, 42, 0
5, 15240, Note_on_c, 9, 38, 114
5, 15240, Note_on_c, 9, 42, 113
5, 15240, Note_on_c, 9, 62, 47
5, 15240, Note_on_c, 9, 54, 127
5, 15269, Note_on_c, 9, 54, 0
5, 15269, Note_on_c, 9, 62, 0
5, 15270, Note_on_c, 9, 42, 0
5, 15270, Note_on_c, 9, 38, 0
5, 15300, Note_on_c, 9, 42, 112
5, 15300, Note_on_c, 9, 64, 43
5, 15329, Note_on_c, 9, 64, 0
5, 15330, Note_on_c, 9, 42, 0
5, 15360, Note_on_c, 9, 35, 111
5, 15360, Note_on_c, 9, 42, 115
5, 15360, Note_on_c, 9, 64, 43
5, 15389, Note_on_c, 9, 64, 0
5, 15390, Note_on_c, 9, 42, 0
5, 15390, Note_on_c, 9, 35, 0
5, 15420, Note_on_c, 9, 42, 115
5, 15420, Note_on_c, 9, 64, 29
5, 15449, Note_on_c, 9, 64, 0
5, 15450, Note_on_c, 9, 42, 0
5, 15480, Note_on_c, 9, 38, 104
5, 15480, Note_on_c, 9, 42, 110
5, 15480, Note_on_c, 9, 62, 40
5, 15480, Note_on_c, 9, 54, 127
5, 15509, Note_on_c, 9, 54, 0
5, 15509, Note_on_c, 9, 62, 0
5, 15510, Note_on_c, 9, 42, 0
5, 15510, Note_on_c, 9, 38, 0
5, 15540, Note_on_c, 9, 35, 109
5, 15540, Note_on_c, 9, 42, 110
5, 15540, Note_on_c, 9, 64, 41
5, 15569, Note_on_c, 9, 64, 0
5, 15570, Note_on_c, 9, 42, 0
5, 15570, Note_on_c, 9, 35, 0
5, 15600, Note_on_c, 9, 35, 117
5, 15600, Note_on_c, 9, 42, 113
5, 15600, Note_on_c, 9, 64, 46
5, 15629, Note_on_c, 9, 64, 0
5, 15630, Note_on_c, 9, 42, 0
5, 15630, Note_on_c, 9, 35, 0
5, 15660, Note_on_c, 9, 42, 118
5, 15660, Note_on_c, 9, 64, 42
5, 15660, Note_on_c, 9, 48, 103
5, 15676, Note_on_c, 9, 48, 0
5, 15689, Note_on_c, 9, 64, 0
5, 15690, Note_on_c, 9, 42, 0
5, 15720, Note_on_c, 9, 38, 111
5, 15720, Note_on_c, 9, 42, 110
5, 15720, Note_on_c, 9, 62, 41
5, 15720, Note_on_c, 9, 54, 127
5, 15720, Note_on_c, 9, 48, 107
5, 15737, Note_on_c, 9, 48, 0
5, 15749, Note_on_c, 9, 62, 0
5, 15749, Note_on_c, 9, 54, 0
5, 15750, Note_on_c, 9, 42, 0
5, 15750, Note_on_c, 9, 38, 0
5, 15780, Note_on_c, 9, 46, 107
5, 15780, Note_on_c, 9, 64, 39
5, 15780, Note_on_c, 9, 48, 115
5, 15797, Note_on_c, 9, 48, 0
5, 15809, Note_on_c, 9, 64, 0
5, 15810, Note_on_c, 9, 46, 0
5, 15840, Note_on_c, 9, 35, 110
5, 15840, Note_on_c, 9, 42, 109
5, 15840, Note_on_c, 9, 64, 29
5, 15869, Note_on_c, 9, 64, 0
5, 15870, Note_on_c, 9, 42, 0
5, 15870, Note_on_c, 9, 35, 0
5, 15900, Note_on_c, 9, 42, 108
5, 15900, Note_on_c, 9, 64, 29
5, 15929, Note_on_c, 9, 64, 0
5, 15930, Note_on_c, 9, 42, 0
5, 15960, Note_on_c, 9, 38, 107
5, 15960, Note_on_c, 9, 42, 110
5, 15960, Note_on_c, 9, 62, 32
5, 15960, Note_on_c, 9, 54, 127
5, 15989, Note_on_c, 9, 54, 0
5, 15989, Note_on_c, 9, 62, 0
5, 15990, Note_on_c, 9, 42, 0
5, 15990, Note_on_c, 9, 38, 0
5, 16020, Note_on_c, 9, 35, 111
5, 16020, Note_on_c, 9, 42, 104
5, 16020, Note_on_c, 9, 64, 29
5, 16049, Note_on_c, 9, 64, 0
5, 16050, Note_on_c, 9, 42, 0
5, 16050, Note_on_c, 9, 35, 0
5, 16080, Note_on_c, 9, 35, 111
5, 16080, Note_on_c, 9, 42, 110
5, 16080, Note_on_c, 9, 64, 31
5, 16109, Note_on_c, 9, 64, 0
5, 16110, Note_on_c, 9, 42, 0
5, 16110, Note_on_c, 9, 35, 0
5, 16140, Note_on_c, 9, 42, 106
5, 16140, Note_on_c, 9, 64, 36
5, 16169, Note_on_c, 9, 64, 0
5, 16170, Note_on_c, 9, 42, 0
5, 16200, Note_on_c, 9, 38, 114
5, 16200, Note_on_c, 9, 42, 113
5, 16200, Note_on_c, 9, 62, 47
5, 16200, Note_on_c, 9, 54, 127
5, 16229, Note_on_c, 9, 54, 0
5, 16229, Note_on_c, 9, 62, 0
5, 16230, Note_on_c, 9, 42, 0
5, 16230, Note_on_c, 9, 38, 0
5, 16260, Note_on_c, 9, 42, 112
5, 16260, Note_on_c, 9, 64, 43
5, 16289, Note_on_c, 9, 64, 0
5, 16290, Note_on_c, 9, 42, 0
5, 16320, Note_on_c, 9, 35, 111
5, 16320, Note_on_c, 9, 42, 115
5, 16320, Note_on_c, 9, 64, 43
5, 16349, Note_on_c, 9, 64, 0
5, 16350, Note_on_c, 9, 42, 0
5, 16350, Note_on_c, 9, 35, 0
5, 16380, Note_on_c, 9, 42, 115
5, 16380, Note_on_c, 9, 64, 29
5, 16409, Note_on_c, 9, 64, 0
5, 16410, Note_on_c, 9, 42, 0
5, 16440, Note_on_c, 9, 38, 104
5, 16440, Note_on_c, 9, 42, 110
5, 16440, Note_on_c, 9, 62, 40
5, 16440, Note_on_c, 9, 54, 127
5, 16469, Note_on_c, 9, 54, 0
5, 16469, Note_on_c, 9, 62, 0
5, 16470, Note_on_c, 9, 42, 0
5, 16470, Note_on_c, 9, 38, 0
5, 16500, Note_on_c, 9, 35, 109
5, 16500, Note_on_c, 9, 42, 110
5, 16500, Note_on_c, 9, 64, 41
5, 16529, Note_on_c, 9, 64, 0
5, 16530, Note_on_c, 9, 42, 0
5, 16530, Note_on_c, 9, 35, 0
5, 16560, Note_on_c, 9, 35, 117
5, 16560, Note_on_c, 9, 42, 113
5, 16560, Note_on_c, 9, 64, 46
5, 16589, Note_on_c, 9, 64, 0
5, 16590, Note_on_c, 9, 42, 0
5, 16590, Note_on_c, 9, 35, 0
5, 16620, Note_on_c, 9, 42, 118
5, 16620, Note_on_c, 9, 64, 42
5, 16649, Note_on_c, 9, 64, 0
5, 16650, Note_on_c, 9, 42, 0
5, 16680, Note_on_c, 9, 38, 111
5, 16680, Note_on_c, 9, 42, 110
5, 16680, Note_on_c, 9, 62, 41
5, 16680, Note_on_c, 9, 54, 127
5, 16709, Note_on_c, 9, 54, 0
5, 16709, Note_on_c, 9, 62, 0
5, 16710, Note_on_c, 9, 42, 0
5, 16710, Note_on_c, 9, 38, 0
5, 16740, Note_on_c, 9, 46, 107
5, 16740, Note_on_c, 9, 64, 39
5, 16769, Note_on_c, 9, 64, 0
5, 16770, Note_on_c, 9, 46, 0
5, 16800, Note_on_c, 9, 35, 110
5, 16800, Note_on_c, 9, 42, 109
5, 16800, Note_on_c, 9, 64, 29
5, 16829, Note_on_c, 9, 64, 0
5, 16830, Note_on_c, 9, 42, 0
5, 16830, Note_on_c, 9, 35, 0
5, 16860, Note_on_c, 9, 42, 108
5, 16860, Note_on_c, 9, 64, 29
5, 16889, Note_on_c, 9, 64, 0
5, 16890, Note_on_c, 9, 42, 0
5, 16920, Note_on_c, 9, 38, 107
5, 16920, Note_on_c, 9, 42, 110
5, 16920, Note_on_c, 9, 62, 32
5, 16920, Note_on_c, 9, 54, 127
5, 16949, Note_on_c, 9, 54, 0
5, 16949, Note_on_c, 9, 62, 0
5, 16950, Note_on_c, 9, 42, 0
5, 16950, Note_on_c, 9, 38, 0
5, 16980, Note_on_c, 9, 35, 111
5, 16980, Note_on_c, 9, 42, 104
5, 16980, Note_on_c, 9, 64, 29
5, 17009, Note_on_c, 9, 64, 0
5, 17010, Note_on_c, 9, 42, 0
5, 17010, Note_on_c, 9, 35, 0
5, 17040, Note_on_c, 9, 35, 111
5, 17040, Note_on_c, 9, 42, 110
5, 17040, Note_on_c, 9, 64, 31
5, 17069, Note_on_c, 9, 64, 0
5, 17070, Note_on_c, 9, 42, 0
5, 17070, Note_on_c, 9, 35, 0
5, 17100, Note_on_c, 9, 42, 106
5, 17100, Note_on_c, 9, 64, 36
5, 17129, Note_on_c, 9, 64, 0
5, 17130, Note_on_c, 9, 42, 0
5, 17160, Note_on_c, 9, 38, 114
5, 17160, Note_on_c, 9, 42, 113
5, 17160, Note_on_c, 9, 62, 47
5, 17160, Note_on_c, 9, 54, 127
5, 17189, Note_on_c, 9, 54, 0
5, 17189, Note_on_c, 9, 62, 0
5, 17190, Note_on_c, 9, 42, 0
5, 17190, Note_on_c, 9, 38, 0
5, 17220, Note_on_c, 9, 42, 112
5, 17220, Note_on_c, 9, 64, 43
5, 17249, Note_on_c, 9, 64, 0
5, 17250, Note_on_c, 9, 42, 0
5, 17280, Note_on_c, 9, 35, 111
5, 17280, Note_on_c, 9, 42, 115
5, 17280, Note_on_c, 9, 64, 43
5, 17309, Note_on_c, 9, 64, 0
5, 17310, Note_on_c, 9, 42, 0
5, 17310, Note_on_c, 9, 35, 0
5, 17340, Note_on_c, 9, 42, 115
5, 17340, Note_on_c, 9, 64, 29
5, 17369, Note_on_c, 9, 64, 0
5, 17370, Note_on_c, 9, 42, 0
5, 17400, Note_on_c, 9, 38, 104
5, 17400, Note_on_c, 9, 42, 110
5, 17400, Note_on_c, 9, 62, 40
5, 17400, Note_on_c, 9, 54, 127
5, 17429, Note_on_c, 9, 54, 0
5, 17429, Note_on_c, 9, 62, 0
5, 17430, Note_on_c, 9, 42, 0
5, 17430, Note_on_c, 9, 38, 0
5, 17460, Note_on_c, 9, 35, 109
5, 17460, Note_on_c, 9, 42, 110
5, 17460, Note_on_c, 9, 64, 41
5, 17489, Note_on_c, 9, 64, 0
5, 17490, Note_on_c, 9, 42, 0
5, 17490, Note_on_c, 9, 35, 0
5, 17520, Note_on_c, 9, 35, 117
5, 17520, Note_on_c, 9, 42, 113
5, 17520, Note_on_c, 9, 64, 46
5, 17549, Note_on_c, 9, 64, 0
5, 17550, Note_on_c, 9, 42, 0
5, 17550, Note_on_c, 9, 35, 0
5, 17580, Note_on_c, 9, 42, 118
5, 17580, Note_on_c, 9, 64, 42
5, 17580, Note_on_c, 9, 48, 119
5, 17591, Note_on_c, 9, 48, 0
5, 17609, Note_on_c, 9, 64, 0
5, 17610, Note_on_c, 9, 42, 0
5, 17640, Note_on_c, 9, 38, 111
5, 17640, Note_on_c, 9, 42, 110
5, 17640, Note_on_c, 9, 62, 41
5, 17640, Note_on_c, 9, 54, 127
5, 17640, Note_on_c, 9, 43, 123
5, 17657, Note_on_c, 9, 43, 0
5, 17669, Note_on_c, 9, 62, 0
5, 17669, Note_on_c, 9, 54, 0
5, 17670, Note_on_c, 9, 42, 0
5, 17670, Note_on_c, 9, 38, 0
5, 17700, Note_on_c, 9, 46, 107
5, 17700, Note_on_c, 9, 64, 39
5, 17700, Note_on_c, 9, 43, 119
5, 17723, Note_on_c, 9, 43, 0
5, 17729, Note_on_c, 9, 64, 0
5, 17730, Note_on_c, 9, 46, 0
5, 17760, Note_on_c, 9, 35, 110
5, 17760, Note_on_c, 9, 42, 109
5, 17760, Note_on_c, 9, 64, 29
5, 17760, Note_on_c, 9, 49, 119
5, 17773, Note_on_c, 9, 49, 0
5, 17789, Note_on_c, 9, 64, 0
5, 17790, Note_on_c, 9, 42, 0
5, 17790, Note_on_c, 9, 35, 0
5, 17820, Note_on_c, 9, 42, 108
5, 17820, Note_on_c, 9, 64, 29
5, 17849, Note_on_c, 9, 64, 0
5, 17850, Note_on_c, 9, 42, 0
5, 17880, Note_on_c, 9, 38, 107
5, 17880, Note_on_c, 9, 42, 110
5, 17880, Note_on_c, 9, 62, 32
5, 17880, Note_on_c, 9, 54, 127
5, 17909, Note_on_c, 9, 54, 0
5, 17909, Note_on_c, 9, 62, 0
5, 17910, Note_on_c, 9, 42, 0
5, 17910, Note_on_c, 9, 38, 0
5, 17940, Note_on_c, 9, 35, 111
5, 17940, Note_on_c, 9, 42, 104
5, 17940, Note_on_c, 9, 64, 29
5, 17969, Note_on_c, 9, 64, 0
5, 17970, Note_on_c, 9, 42, 0
5, 17970, Note_on_c, 9, 35, 0
5, 18000, Note_on_c, 9, 35, 111
5, 18000, Note_on_c, 9, 42, 110
5, 18000, Note_on_c, 9, 64, 31
5, 18029, Note_on_c, 9, 64, 0
5, 18030, Note_on_c, 9, 42, 0
5, 18030, Note_on_c, 9, 35, 0
5, 18060, Note_on_c, 9, 42, 106
5, 18060, Note_on_c, 9, 64, 36
5, 18089, Note_on_c, 9, 64, 0
5, 18090, Note_on_c, 9, 42, 0
5, 18120, Note_on_c, 9, 38, 114
5, 18120, Note_on_c, 9, 42, 113
5, 18120, Note_on_c, 9, 62, 47
5, 18120, Note_on_c, 9, 54, 127
5, 18149, Note_on_c, 9, 54, 0
5, 18149, Note_on_c, 9, 62, 0
5, 18150, Note_on_c, 9, 42, 0
5, 18150, Note_on_c, 9, 38, 0
5, 18180, Note_on_c, 9, 42, 112
5, 18180, Note_on_c, 9, 64, 43
5, 18209, Note_on_c, 9, 64, 0
5, 18210, Note_on_c, 9, 42, 0
5, 18240, Note_on_c, 9, 35, 111
5, 18240, Note_on_c, 9, 42, 115
5, 18240, Note_on_c, 9, 64, 43
5, 18269, Note_on_c, 9, 64, 0
5, 18270, Note_on_c, 9, 42, 0
5, 18270, Note_on_c, 9, 35, 0
5, 18300, Note_on_c, 9, 42, 115
5, 18300, Note_on_c, 9, 64, 29
5, 18329, Note_on_c, 9, 64, 0
5, 18330, Note_on_c, 9, 42, 0
5, 18360, Note_on_c, 9, 38, 104
5, 18360, Note_on_c, 9, 42, 110
5, 18360, Note_on_c, 9, 62, 40
5, 18360, Note_on_c, 9, 54, 127
5, 18389, Note_on_c, 9, 54, 0
5, 18389, Note_on_c, 9, 62, 0
5, 18390, Note_on_c, 9, 42, 0
5, 18390, Note_on_c, 9, 38, 0
5, 18420, Note_on_c, 9, 35, 109
5, 18420, Note_on_c, 9, 42, 110
5, 18420, Note_on_c, 9, 64, 41
5, 18449, Note_on_c, 9, 64, 0
5, 18450, Note_on_c, 9, 42, 0
5, 18450, Note_on_c, 9, 35, 0
5, 18480, Note_on_c, 9, 35, 117
5, 18480, Note_on_c, 9, 42, 113
5, 18480, Note_on_c, 9, 64, 46
5, 18509, Note_on_c, 9, 64, 0
5, 18510, Note_on_c, 9, 42, 0
5, 18510, Note_on_c, 9, 35, 0
5, 18540, Note_on_c, 9, 42, 118
5, 18540, Note_on_c, 9, 64, 42
5, 18569, Note_on_c, 9, 64, 0
5, 18570, Note_on_c, 9, 42, 0
5, 18600, Note_on_c, 9, 38, 111
5, 18600, Note_on_c, 9, 42, 110
5, 18600, Note_on_c, 9, 62, 41
5, 18600, Note_on_c, 9, 54, 127
5, 18629, Note_on_c, 9, 54, 0
5, 18629, Note_on_c, 9, 62, 0
5, 18630, Note_on_c, 9, 42, 0
5, 18630, Note_on_c, 9, 38, 0
5, 18660, Note_on_c, 9, 46, 107
5, 18660, Note_on_c, 9, 64, 39
5, 18689, Note_on_c, 9, 64, 0
5, 18690, Note_on_c, 9, 46, 0
5, 18720, Note_on_c, 9, 35, 110
5, 18720, Note_on_c, 9, 42, 109
5, 18720, Note_on_c, 9, 64, 29
5, 18749, Note_on_c, 9, 64, 0
5, 18750, Note_on_c, 9, 42, 0
5, 18750, Note_on_c, 9, 35, 0
5, 18780, Note_on_c, 9, 42, 108
5, 18780, Note_on_c, 9, 64, 29
5, 18809, Note_on_c, 9, 64, 0
5, 18810, Note_on_c, 9, 42, 0
5, 18840, Note_on_c, 9, 38, 107
5, 18840, Note_on_c, 9, 42, 110
5, 18840, Note_on_c, 9, 62, 32
5, 18840, Note_on_c, 9, 54, 127
5, 18869, Note_on_c, 9, 54, 0
5, 18869, Note_on_c, 9, 62, 0
5, 18870, Note_on_c, 9, 42, 0
5, 18870, Note_on_c, 9, 38, 0
5, 18900, Note_on_c, 9, 35, 111
5, 18900, Note_on_c, 9, 42, 104
5, 18900, Note_on_c, 9, 64, 29
5, 18929, Note_on_c, 9, 64, 0
5, 18930, Note_on_c, 9, 42, 0
5, 18930, Note_on_c, 9, 35, 0
5, 18960, Note_on_c, 9, 35, 111
5, 18960, Note_on_c, 9, 42, 110
5, 18960, Note_on_c, 9, 64, 31
5, 18989, Note_on_c, 9, 64, 0
5, 18990, Note_on_c, 9, 42, 0
5, 18990, Note_on_c, 9, 35, 0
5, 19020, Note_on_c, 9, 42, 106
5, 19020, Note_on_c, 9, 64, 36
5, 19049, Note_on_c, 9, 64, 0
5, 19050, Note_on_c, 9, 42, 0
5, 19080, Note_on_c, 9, 38, 114
5, 19080, Note_on_c, 9, 42, 113
5, 19080, Note_on_c, 9, 62, 47
5, 19080, Note_on_c, 9, 54, 127
5, 19109, Note_on_c, 9, 54, 0
5, 19109, Note_on_c, 9, 62, 0
5, 19110, Note_on_c, 9, 42, 0
5, 19110, Note_on_c, 9, 38, 0
5, 19140, Note_on_c, 9, 42, 112
5, 19140, Note_on_c, 9, 64, 43
5, 19169, Note_on_c, 9, 64, 0
5, 19170, Note_on_c, 9, 42, 0
5, 19200, Note_on_c, 9, 35, 111
5, 19200, Note_on_c, 9, 42, 115
5, 19200, Note_on_c, 9, 64, 43
5, 19229, Note_on_c, 9, 64, 0
5, 19230, Note_on_c, 9, 42, 0
5, 19230, Note_on_c, 9, 35, 0
5, 19260, Note_on_c, 9, 42, 115
5, 19260, Note_on_c, 9, 64, 29
5, 19289, Note_on_c, 9, 64, 0
5, 19290, Note_on_c, 9, 42, 0
5, 19320, Note_on_c, 9, 38, 104
5, 19320, Note_on_c, 9, 42, 110
5, 19320, Note_on_c, 9, 62, 40
5, 19320, Note_on_c, 9, 54, 127
5, 19349, Note_on_c, 9, 54, 0
5, 19349, Note_on_c, 9, 62, 0
5, 19350, Note_on_c, 9, 42, 0
5, 19350, Note_on_c, 9, 38, 0
5, 19380, Note_on_c, 9, 35, 109
5, 19380, Note_on_c, 9, 42, 110
5, 19380, Note_on_c, 9, 64, 41
5, 19409, Note_on_c, 9, 64, 0
5, 19410, Note_on_c, 9, 42, 0
5, 19410, Note_on_c, 9, 35, 0
5, 19440, Note_on_c, 9, 35, 117
5, 19440, Note_on_c, 9, 42, 113
5, 19440, Note_on_c, 9, 64, 46
5, 19469, Note_on_c, 9, 64, 0
5, 19470, Note_on_c, 9, 42, 0
5, 19470, Note_on_c, 9, 35, 0
5, 19500, Note_on_c, 9, 42, 118
5, 19500, Note_on_c, 9, 64, 42
5, 19500, Note_on_c, 9, 48, 115
5, 19514, Note_on_c, 9, 48, 0
5, 19529, Note_on_c, 9, 64, 0
5, 19530, Note_on_c, 9, 42, 0
5, 19560, Note_on_c, 9, 38, 111
5, 19560, Note_on_c, 9, 42, 110
5, 19560, Note_on_c, 9, 62, 41
5, 19560, Note_on_c, 9, 54, 127
5, 19589, Note_on_c, 9, 54, 0
5, 19589, Note_on_c, 9, 62, 0
5, 19590, Note_on_c, 9, 42, 0
5, 19590, Note_on_c, 9, 38, 0
5, 19620, Note_on_c, 9, 46, 107
5, 19620, Note_on_c, 9, 64, 39
5, 19620, Note_on_c, 9, 48, 119
5, 19635, Note_on_c, 9, 48, 0
5, 19649, Note_on_c, 9, 64, 0
5, 19650, Note_on_c, 9, 46, 0
5, 19680, Note_on_c, 9, 35, 110
5, 19680, Note_on_c, 9, 42, 109
5, 19680, Note_on_c, 9, 64, 29
5, 19709, Note_on_c, 9, 64, 0
5, 19710, Note_on_c, 9, 42, 0
5, 19710, Note_on_c, 9, 35, 0
5, 19740, Note_on_c, 9, 42, 108
5, 19740, Note_on_c, 9, 64, 29
5, 19769, Note_on_c, 9, 64, 0
5, 19770, Note_on_c, 9, 42, 0
5, 19800, Note_on_c, 9, 38, 107
5, 19800, Note_on_c, 9, 42, 110
5, 19800, Note_on_c, 9, 62, 32
5, 19800, Note_on_c, 9, 54, 127
5, 19829, Note_on_c, 9, 54, 0
5, 19829, Note_on_c, 9, 62, 0
5, 19830, Note_on_c, 9, 42, 0
5, 19830, Note_on_c, 9, 38, 0
5, 19860, Note_on_c, 9, 35, 111
5, 19860, Note_on_c, 9, 42, 104
5, 19860, Note_on_c, 9, 64, 29
5, 19889, Note_on_c, 9, 64, 0
5, 19890, Note_on_c, 9, 42, 0
5, 19890, Note_on_c, 9, 35, 0
5, 19920, Note_on_c, 9, 35, 111
5, 19920, Note_on_c, 9, 42, 110
5, 19920, Note_on_c, 9, 64, 31
5, 19949, Note_on_c, 9, 64, 0
5, 19950, Note_on_c, 9, 42, 0
5, 19950, Note_on_c, 9, 35, 0
5, 19980, Note_on_c, 9, 42, 106
5, 19980, Note_on_c, 9, 64, 36
5, 20009, Note_on_c, 9, 64, 0
5, 20010, Note_on_c, 9, 42, 0
5, 20040, Note_on_c, 9, 38, 114
5, 20040, Note_on_c, 9, 42, 113
5, 20040, Note_on_c, 9, 62, 47
5, 20040, Note_on_c, 9, 54, 127
5, 20069, Note_on_c, 9, 54, 0
5, 20069, Note_on_c, 9, 62, 0
5, 20070, Note_on_c, 9, 42, 0
5, 20070, Note_on_c, 9, 38, 0
5, 20100, Note_on_c, 9, 42, 112
5, 20100, Note_on_c, 9, 64, 43
5, 20129, Note_on_c, 9, 64, 0
5, 20130, Note_on_c, 9, 42, 0
5, 20160, Note_on_c, 9, 35, 111
5, 20160, Note_on_c, 9, 42, 115
5, 20160, Note_on_c, 9, 64, 43
5, 20189, Note_on_c, 9, 64, 0
5, 20190, Note_on_c, 9, 42, 0
5, 20190, Note_on_c, 9, 35, 0
5, 20220, Note_on_c, 9, 42, 115
5, 20220, Note_on_c, 9, 64, 29
5, 20249, Note_on_c, 9, 64, 0
5, 20250, Note_on_c, 9, 42, 0
5, 20280, Note_on_c, 9, 38, 104
5, 20280, Note_on_c, 9, 42, 110
5, 20280, Note_on_c, 9, 62, 40
5, 20280, Note_on_c, 9, 54, 127
5, 20309, Note_on_c, 9, 54, 0
5, 20309, Note_on_c, 9, 62, 0
5, 20310, Note_on_c, 9, 42, 0
5, 20310, Note_on_c, 9, 38, 0
5, 20340, Note_on_c, 9, 35, 109
5, 20340, Note_on_c, 9, 42, 110
5, 20340, Note_on_c, 9, 64, 41
5, 20369, Note_on_c, 9, 64, 0
5, 20370, Note_on_c, 9, 42, 0
5, 20370, Note_on_c, 9, 35, 0
5, 20400, Note_on_c, 9, 35, 117
5, 20400, Note_on_c, 9, 42, 113
5, 20400, Note_on_c, 9, 64, 46
5, 20429, Note_on_c, 9, 64, 0
5, 20430, Note_on_c, 9, 42, 0
5, 20430, Note_on_c, 9, 35, 0
5, 20460, Note_on_c, 9, 42, 118
5, 20460, Note_on_c, 9, 64, 42
5, 20489, Note_on_c, 9, 64, 0
5, 20490, Note_on_c, 9, 42, 0
5, 20520, Note_on_c, 9, 38, 111
5, 20520, Note_on_c, 9, 42, 110
5, 20520, Note_on_c, 9, 62, 41
5, 20520, Note_on_c, 9, 54, 127
5, 20549, Note_on_c, 9, 54, 0
5, 20549, Note_on_c, 9, 62, 0
5, 20550, Note_on_c, 9, 42, 0
5, 20550, Note_on_c, 9, 38, 0
5, 20580, Note_on_c, 9, 46, 107
5, 20580, Note_on_c, 9, 64, 39
5, 20609, Note_on_c, 9, 64, 0
5, 20610, Note_on_c, 9, 46, 0
5, 20640, Note_on_c, 9, 35, 110
5, 20640, Note_on_c, 9, 42, 109
5, 20640, Note_on_c, 9, 64, 29
5, 20669, Note_on_c, 9, 64, 0
5, 20670, Note_on_c, 9, 42, 0
5, 20670, Note_on_c, 9, 35, 0
5, 20700, Note_on_c, 9, 42, 108
5, 20700, Note_on_c, 9, 64, 29
5, 20729, Note_on_c, 9, 64, 0
5, 20730, Note_on_c, 9, 42, 0
5, 20760, Note_on_c, 9, 38, 107
5, 20760, Note_on_c, 9, 42, 110
5, 20760, Note_on_c, 9, 62, 32
5, 20760, Note_on_c, 9, 54, 127
5, 20789, Note_on_c, 9, 54, 0
5, 20789, Note_on_c, 9, 62, 0
5, 20790, Note_on_c, 9, 42, 0
5, 20790, Note_on_c, 9, 38, 0
5, 20820, Note_on_c, 9, 35, 111
5, 20820, Note_on_c, 9, 42, 104
5, 20820, Note_on_c, 9, 64, 29
5, 20849, Note_on_c, 9, 64, 0
5, 20850, Note_on_c, 9, 42, 0
5, 20850, Note_on_c, 9, 35, 0
5, 20880, Note_on_c, 9, 35, 111
5, 20880, Note_on_c, 9, 42, 110
5, 20880, Note_on_c, 9, 64, 31
5, 20909, Note_on_c, 9, 64, 0
5, 20910, Note_on_c, 9, 42, 0
5, 20910, Note_on_c, 9, 35, 0
5, 20940, Note_on_c, 9, 42, 106
5, 20940, Note_on_c, 9, 64, 36
5, 20969, Note_on_c, 9, 64, 0
5, 20970, Note_on_c, 9, 42, 0
5, 21000, Note_on_c, 9, 38, 114
5, 21000, Note_on_c, 9, 42, 113
5, 21000, Note_on_c, 9, 62, 47
5, 21000, Note_on_c, 9, 54, 127
5, 21029, Note_on_c, 9, 54, 0
5, 21029, Note_on_c, 9, 62, 0
5, 21030, Note_on_c, 9, 42, 0
5, 21030, Note_on_c, 9, 38, 0
5, 21060, Note_on_c, 9, 42, 112
5, 21060, Note_on_c, 9, 64, 43
5, 21089, Note_on_c, 9, 64, 0
5, 21090, Note_on_c, 9, 42, 0
5, 21120, Note_on_c, 9, 35, 111
5, 21120, Note_on_c, 9, 42, 115
5, 21120, Note_on_c, 9, 64, 43
5, 21149, Note_on_c, 9, 64, 0
5, 21150, Note_on_c, 9, 42, 0
5, 21150, Note_on_c, 9, 35, 0
5, 21180, Note_on_c, 9, 42, 115
5, 21180, Note_on_c, 9, 64, 29
5, 21209, Note_on_c, 9, 64, 0
5, 21210, Note_on_c, 9, 42, 0
5, 21240, Note_on_c, 9, 38, 104
5, 21240, Note_on_c, 9, 42, 110
5, 21240, Note_on_c, 9, 62, 40
5, 21240, Note_on_c, 9, 54, 127
5, 21269, Note_on_c, 9, 54, 0
5, 21269, Note_on_c, 9, 62, 0
5, 21270, Note_on_c, 9, 42, 0
5, 21270, Note_on_c, 9, 38, 0
5, 21300, Note_on_c, 9, 35, 109
5, 21300, Note_on_c, 9, 42, 110
5, 21300, Note_on_c, 9, 64, 41
5, 21329, Note_on_c, 9, 64, 0
5, 21330, Note_on_c, 9, 42, 0
5, 21330, Note_on_c, 9, 35, 0
5, 21360, Note_on_c, 9, 35, 117
5, 21360, Note_on_c, 9, 42, 113
5, 21360, Note_on_c, 9, 64, 46
5, 21389, Note_on_c, 9, 64, 0
5, 21390, Note_on_c, 9, 42, 0
5, 21390, Note_on_c, 9, 35, 0
5, 21420, Note_on_c, 9, 42, 118
5, 21420, Note_on_c, 9, 64, 42
5, 21420, Note_on_c, 9, 48, 112
5, 21431, Note_on_c, 9, 48, 0
5, 21449, Note_on_c, 9, 64, 0
5, 21450, Note_on_c, 9, 42, 0
5, 21450, Note_on_c, 9, 48, 112
5, 21462, Note_on_c, 9, 48, 0
5, 21480, Note_on_c, 9, 38, 111
5, 21480, Note_on_c, 9, 42, 110
5, 21480, Note_on_c, 9, 62, 41
5, 21480, Note_on_c, 9, 54, 127
5, 21480, Note_on_c, 9, 48, 112
5, 21493, Note_on_c, 9, 48, 0
5, 21509, Note_on_c, 9, 62, 0
5, 21509, Note_on_c, 9, 54, 0
5, 21510, Note_on_c, 9, 42, 0
5, 21510, Note_on_c, 9, 38, 0
5, 21540, Note_on_c, 9, 46, 107
5, 21540, Note_on_c, 9, 64, 39
5, 21540, Note_on_c, 9, 48, 112
5, 21554, Note_on_c, 9, 48, 0
5, 21569, Note_on_c, 9, 64, 0
5, 21570, Note_on_c, 9, 46, 0
5, 21600, Note_on_c, 9, 35, 110
5, 21600, Note_on_c, 9, 42, 109
5, 21600, Note_on_c, 9, 64, 29
5, 21600, Note_on_c, 9, 49, 112
5, 21610, Note_on_c, 9, 49, 0
5, 21629, Note_on_c, 9, 64, 0
5, 21630, Note_on_c, 9, 42, 0
5, 21630, Note_on_c, 9, 35, 0
5, 21660, Note_on_c, 9, 42, 108
5, 21660, Note_on_c, 9, 64, 29
5, 21689, Note_on_c, 9, 64, 0
5, 21690, Note_on_c, 9, 42, 0
5, 21720, Note_on_c, 9, 38, 107
5, 21720, Note_on_c, 9, 42, 110
5, 21720, Note_on_c, 9, 62, 32
5, 21720, Note_on_c, 9, 54, 127
5, 21749, Note_on_c, 9, 54, 0
5, 21749, Note_on_c, 9, 62, 0
5, 21750, Note_on_c, 9, 42, 0
5, 21750, Note_on_c, 9, 38, 0
5, 21780, Note_on_c, 9, 35, 111
5, 21780, Note_on_c, 9, 42, 104
5, 21780, Note_on_c, 9, 64, 29
5, 21809, Note_on_c, 9, 64, 0
5, 21810, Note_on_c, 9, 42, 0
5, 21810, Note_on_c, 9, 35, 0
5, 21840, Note_on_c, 9, 35, 111
5, 21840, Note_on_c, 9, 42, 110
5, 21840, Note_on_c, 9, 64, 31
5, 21869, Note_on_c, 9, 64, 0
5, 21870, Note_on_c, 9, 42, 0
5, 21870, Note_on_c, 9, 35, 0
5, 21900, Note_on_c, 9, 42, 106
5, 21900, Note_on_c, 9, 64, 36
5, 21929, Note_on_c, 9, 64, 0
5, 21930, Note_on_c, 9, 42, 0
5, 21960, Note_on_c, 9, 38, 114
5, 21960, Note_on_c, 9, 42, 113
5, 21960, Note_on_c, 9, 62, 47
5, 21960, Note_on_c, 9, 54, 127
5, 21989, Note_on_c, 9, 54, 0
5, 21989, Note_on_c, 9, 62, 0
5, 21990, Note_on_c, 9, 42, 0
5, 21990, Note_on_c, 9, 38, 0
5, 22020, Note_on_c, 9, 42, 112
5, 22020, Note_on_c, 9, 64, 43
5, 22049, Note_on_c, 9, 64, 0
5, 22050, Note_on_c, 9, 42, 0
5, 22080, Note_on_c, 9, 35, 111
5, 22080, Note_on_c, 9, 42, 115
5, 22080, Note_on_c, 9, 64, 43
5, 22109, Note_on_c, 9, 64, 0
5, 22110, Note_on_c, 9, 42, 0
5, 22110, Note_on_c, 9, 35, 0
5, 22140, Note_on_c, 9, 42, 115
5, 22140, Note_on_c, 9, 64, 29
5, 22169, Note_on_c, 9, 64, 0
5, 22170, Note_on_c, 9, 42, 0
5, 22200, Note_on_c, 9, 38, 104
5, 22200, Note_on_c, 9, 42, 110
5, 22200, Note_on_c, 9, 62, 40
5, 22200, Note_on_c, 9, 54, 127
5, 22229, Note_on_c, 9, 54, 0
5, 22229, Note_on_c, 9, 62, 0
5, 22230, Note_on_c, 9, 42, 0
5, 22230, Note_on_c, 9, 38, 0
5, 22260, Note_on_c, 9, 35, 109
5, 22260, Note_on_c, 9, 42, 110
5, 22260, Note_on_c, 9, 64, 41
5, 22289, Note_on_c, 9, 64, 0
5, 22290, Note_on_c, 9, 42, 0
5, 22290, Note_on_c, 9, 35, 0
5, 22320, Note_on_c, 9, 35, 117
5, 22320, Note_on_c, 9, 42, 113
5, 22320, Note_on_c, 9, 64, 46
5, 22349, Note_on_c, 9, 64, 0
5, 22350, Note_on_c, 9, 42, 0
5, 22350, Note_on_c, 9, 35, 0
5, 22380, Note_on_c, 9, 42, 118
5, 22380, Note_on_c, 9, 64, 42
5, 22409, Note_on_c, 9, 64, 0
5, 22410, Note_on_c, 9, 42, 0
5, 22440, Note_on_c, 9, 38, 111
5, 22440, Note_on_c, 9, 42, 110
5, 22440, Note_on_c, 9, 62, 41
5, 22440, Note_on_c, 9, 54, 127
5, 22469, Note_on_c, 9, 54, 0
5, 22469, Note_on_c, 9, 62, 0
5, 22470, Note_on_c, 9, 42, 0
5, 22470, Note_on_c, 9, 38, 0
5, 22500, Note_on_c, 9, 46, 107
5, 22500, Note_on_c, 9, 64, 39
5, 22529, Note_on_c, 9, 64, 0
5, 22530, Note_on_c, 9, 46, 0
5, 22560, Note_on_c, 9, 35, 110
5, 22560, Note_on_c, 9, 42, 109
5, 22560, Note_on_c, 9, 64, 29
5, 22589, Note_on_c, 9, 64, 0
5, 22590, Note_on_c, 9, 42, 0
5, 22590, Note_on_c, 9, 35, 0
5, 22620, Note_on_c, 9, 42, 108
5, 22620, Note_on_c, 9, 64, 29
5, 22649, Note_on_c, 9, 64, 0
5, 22650, Note_on_c, 9, 42, 0
5, 22680, Note_on_c, 9, 38, 107
5, 22680, Note_on_c, 9, 42, 110
5, 22680, Note_on_c, 9, 62, 32
5, 22680, Note_on_c, 9, 54, 127
5, 22709, Note_on_c, 9, 54, 0
5, 22709, Note_on_c, 9, 62, 0
5, 22710, Note_on_c, 9, 42, 0
5, 22710, Note_on_c, 9, 38, 0
5, 22740, Note_on_c, 9, 35, 111
5, 22740, Note_on_c, 9, 42, 104
5, 22740, Note_on_c, 9, 64, 29
5, 22769, Note_on_c, 9, 64, 0
5, 22770, Note_on_c, 9, 42, 0
5, 22770, Note_on_c, 9, 35, 0
5, 22800, Note_on_c, 9, 35, 111
5, 22800, Note_on_c, 9, 42, 110
5, 22800, Note_on_c, 9, 64, 31
5, 22829, Note_on_c, 9, 64, 0
5, 22830, Note_on_c, 9, 42, 0
5, 22830, Note_on_c, 9, 35, 0
5, 22860, Note_on_c, 9, 42, 106
5, 22860, Note_on_c, 9, 64, 36
5, 22889, Note_on_c, 9, 64, 0
5, 22890, Note_on_c, 9, 42, 0
5, 22920, Note_on_c, 9, 38, 114
5, 22920, Note_on_c, 9, 42, 113
5, 22920, Note_on_c, 9, 62, 47
5, 22920, Note_on_c, 9, 54, 127
5, 22949, Note_on_c, 9, 54, 0
5, 22949, Note_on_c, 9, 62, 0
5, 22950, Note_on_c, 9, 42, 0
5, 22950, Note_on_c, 9, 38, 0
5, 22980, Note_on_c, 9, 42, 112
5, 22980, Note_on_c, 9, 64, 43
5, 23009, Note_on_c, 9, 64, 0
5, 23010, Note_on_c, 9, 42, 0
5, 23040, Note_on_c, 9, 35, 111
5, 23040, Note_on_c, 9, 42, 115
5, 23040, Note_on_c, 9, 64, 43
5, 23069, Note_on_c, 9, 64, 0
5, 23070, Note_on_c, 9, 42, 0
5, 23070, Note_on_c, 9, 35, 0
5, 23100, Note_on_c, 9, 42, 115
5, 23100, Note_on_c, 9, 64, 29
5, 23129, Note_on_c, 9, 64, 0
5, 23130, Note_on_c, 9, 42, 0
5, 23160, Note_on_c, 9, 38, 104
5, 23160, Note_on_c, 9, 42, 110
5, 23160, Note_on_c, 9, 62, 40
5, 23160, Note_on_c, 9, 54, 127
5, 23189, Note_on_c, 9, 54, 0
5, 23189, Note_on_c, 9, 62, 0
5, 23190, Note_on_c, 9, 42, 0
5, 23190, Note_on_c, 9, 38, 0
5, 23220, Note_on_c, 9, 35, 109
5, 23220, Note_on_c, 9, 42, 110
5, 23220, Note_on_c, 9, 64, 41
5, 23249, Note_on_c, 9, 64, 0
5, 23250, Note_on_c, 9, 42, 0
5, 23250, Note_on_c, 9, 35, 0
5, 23280, Note_on_c, 9, 35, 117
5, 23280, Note_on_c, 9, 42, 113
5, 23280, Note_on_c, 9, 64, 46
5, 23309, Note_on_c, 9, 64, 0
5, 23310, Note_on_c, 9, 42, 0
5, 23310, Note_on_c, 9, 35, 0
5, 23340, Note_on_c, 9, 42, 118
5, 23340, Note_on_c, 9, 64, 42
5, 23369, Note_on_c, 9, 64, 0
5, 23370, Note_on_c, 9, 42, 0
5, 23400, Note_on_c, 9, 38, 111
5, 23400, Note_on_c, 9, 42, 110
5, 23400, Note_on_c, 9, 62, 41
5, 23400, Note_on_c, 9, 54, 127
5, 23429, Note_on_c, 9, 54, 0
5, 23429, Note_on_c, 9, 62, 0
5, 23430, Note_on_c, 9, 42, 0
5, 23430, Note_on_c, 9, 38, 0
5, 23460, Note_on_c, 9, 46, 107
5, 23460, Note_on_c, 9, 64, 39
5, 23489, Note_on_c, 9, 64, 0
5, 23490, Note_on_c, 9, 46, 0
5, 23520, Note_on_c, 9, 35, 110
5, 23520, Note_on_c, 9, 42, 109
5, 23520, Note_on_c, 9, 64, 29
5, 23549, Note_on_c, 9, 64, 0
5, 23550, Note_on_c, 9, 42, 0
5, 23550, Note_on_c, 9, 35, 0
5, 23580, Note_on_c, 9, 42, 108
5, 23580, Note_on_c, 9, 64, 29
5, 23609, Note_on_c, 9, 64, 0
5, 23610, Note_on_c, 9, 42, 0
5, 23640, Note_on_c, 9, 38, 107
5, 23640, Note_on_c, 9, 42, 110
5, 23640, Note_on_c, 9, 62, 32
5, 23640, Note_on_c, 9, 54, 127
5, 23669, Note_on_c, 9, 54, 0
5, 23669, Note_on_c, 9, 62, 0
5, 23670, Note_on_c, 9, 42, 0
5, 23670, Note_on_c, 9, 38, 0
5, 23700, Note_on_c, 9, 35, 111
5, 23700, Note_on_c, 9, 42, 104
5, 23700, Note_on_c, 9, 64, 29
5, 23729, Note_on_c, 9, 64, 0
5, 23730, Note_on_c, 9, 42, 0
5, 23730, Note_on_c, 9, 35, 0
5, 23760, Note_on_c, 9, 35, 111
5, 23760, Note_on_c, 9, 42, 110
5, 23760, Note_on_c, 9, 64, 31
5, 23789, Note_on_c, 9, 64, 0
5, 23790, Note_on_c, 9, 42, 0
5, 23790, Note_on_c, 9, 35, 0
5, 23820, Note_on_c, 9, 42, 106
5, 23820, Note_on_c, 9, 64, 36
5, 23849, Note_on_c, 9, 64, 0
5, 23850, Note_on_c, 9, 42, 0
5, 23880, Note_on_c, 9, 38, 114
5, 23880, Note_on_c, 9, 42, 113
5, 23880, Note_on_c, 9, 62, 47
5, 23880, Note_on_c, 9, 54, 127
5, 23909, Note_on_c, 9, 54, 0
5, 23909, Note_on_c, 9, 62, 0
5, 23910, Note_on_c, 9, 42, 0
5, 23910, Note_on_c, 9, 38, 0
5, 23940, Note_on_c, 9, 42, 112
5, 23940, Note_on_c, 9, 64, 43
5, 23969, Note_on_c, 9, 64, 0
5, 23970, Note_on_c, 9, 42, 0
5, 24000, Note_on_c, 9, 35, 111
5, 24000, Note_on_c, 9, 42, 115
5, 24000, Note_on_c, 9, 64, 43
5, 24029, Note_on_c, 9, 64, 0
5, 24030, Note_on_c, 9, 42, 0
5, 24030, Note_on_c, 9, 35, 0
5, 24060, Note_on_c, 9, 42, 115
5, 24060, Note_on_c, 9, 64, 29
5, 24089, Note_on_c, 9, 64, 0
5, 24090, Note_on_c, 9, 42, 0
5, 24120, Note_on_c, 9, 38, 104
5, 24120, Note_on_c, 9, 42, 110
5, 24120, Note_on_c, 9, 62, 40
5, 24120, Note_on_c, 9, 54, 127
5, 24149, Note_on_c, 9, 54, 0
5, 24149, Note_on_c, 9, 62, 0
5, 24150, Note_on_c, 9, 42, 0
5, 24150, Note_on_c, 9, 38, 0
5, 24180, Note_on_c, 9, 35, 109
5, 24180, Note_on_c, 9, 42, 110
5, 24180, Note_on_c, 9, 64, 41
5, 24209, Note_on_c, 9, 64, 0
5, 24210, Note_on_c, 9, 42, 0
5, 24210, Note_on_c, 9, 35, 0
5, 24240, Note_on_c, 9, 35, 117
5, 24240, Note_on_c, 9, 42, 113
5, 24240, Note_on_c, 9, 64, 46
5, 24269, Note_on_c, 9, 64, 0
5, 24270, Note_on_c, 9, 42, 0
5, 24270, Note_on_c, 9, 35, 0
5, 24300, Note_on_c, 9, 42, 118
5, 24300, Note_on_c, 9, 64, 42
5, 24329, Note_on_c, 9, 64, 0
5, 24330, Note_on_c, 9, 42, 0
5, 24360, Note_on_c, 9, 38, 111
5, 24360, Note_on_c, 9, 42, 110
5, 24360, Note_on_c, 9, 62, 41
5, 24360, Note_on_c, 9, 54, 127
5, 24389, Note_on_c, 9, 54, 0
5, 24389, Note_on_c, 9, 62, 0
5, 24390, Note_on_c, 9, 42, 0
5, 24390, Note_on_c, 9, 38, 0
5, 24420, Note_on_c, 9, 46, 107
5, 24420, Note_on_c, 9, 64, 39
5, 24449, Note_on_c, 9, 64, 0
5, 24450, Note_on_c, 9, 46, 0
5, 24480, Note_on_c, 9, 35, 110
5, 24480, Note_on_c, 9, 42, 109
5, 24480, Note_on_c, 9, 64, 29
5, 24509, Note_on_c, 9, 64, 0
5, 24510, Note_on_c, 9, 42, 0
5, 24510, Note_on_c, 9, 35, 0
5, 24540, Note_on_c, 9, 42, 108
5, 24540, Note_on_c, 9, 64, 29
5, 24569, Note_on_c, 9, 64, 0
5, 24570, Note_on_c, 9, 42, 0
5, 24600, Note_on_c, 9, 38, 107
5, 24600, Note_on_c, 9, 42, 110
5, 24600, Note_on_c, 9, 62, 32
5, 24600, Note_on_c, 9, 54, 127
5, 24629, Note_on_c, 9, 54, 0
5, 24629, Note_on_c, 9, 62, 0
5, 24630, Note_on_c, 9, 42, 0
5, 24630, Note_on_c, 9, 38, 0
5, 24660, Note_on_c, 9, 35, 111
5, 24660, Note_on_c, 9, 42, 104
5, 24660, Note_on_c, 9, 64, 29
5, 24689, Note_on_c, 9, 64, 0
5, 24690, Note_on_c, 9, 42, 0
5, 24690, Note_on_c, 9, 35, 0
5, 24720, Note_on_c, 9, 35, 111
5, 24720, Note_on_c, 9, 42, 110
5, 24720, Note_on_c, 9, 64, 31
5, 24749, Note_on_c, 9, 64, 0
5, 24750, Note_on_c, 9, 42, 0
5, 24750, Note_on_c, 9, 35, 0
5, 24780, Note_on_c, 9, 42, 106
5, 24780, Note_on_c, 9, 64, 36
5, 24809, Note_on_c, 9, 64, 0
5, 24810, Note_on_c, 9, 42, 0
5, 24840, Note_on_c, 9, 38, 114
5, 24840, Note_on_c, 9, 42, 113
5, 24840, Note_on_c, 9, 62, 47
5, 24840, Note_on_c, 9, 54, 127
5, 24869, Note_on_c, 9, 54, 0
5, 24869, Note_on_c, 9, 62, 0
5, 24870, Note_on_c, 9, 42, 0
5, 24870, Note_on_c, 9, 38, 0
5, 24900, Note_on_c, 9, 42, 112
5, 24900, Note_on_c, 9, 64, 43
5, 24929, Note_on_c, 9, 64, 0
5, 24930, Note_on_c, 9, 42, 0
5, 24960, Note_on_c, 9, 35, 111
5, 24960, Note_on_c, 9, 42, 115
5, 24960, Note_on_c, 9, 64, 43
5, 24989, Note_on_c, 9, 64, 0
5, 24990, Note_on_c, 9, 42, 0
5, 24990, Note_on_c, 9, 35, 0
5, 25020, Note_on_c, 9, 42, 115
5, 25020, Note_on_c, 9, 64, 29
5, 25049, Note_on_c, 9, 64, 0
5, 25050, Note_on_c, 9, 42, 0
5, 25080, Note_on_c, 9, 38, 104
5, 25080, Note_on_c, 9, 42, 110
5, 25080, Note_on_c, 9, 62, 40
5, 25080, Note_on_c, 9, 54, 127
5, 25109, Note_on_c, 9, 54, 0
5, 25109, Note_on_c, 9, 62, 0
5, 25110, Note_on_c, 9, 42, 0
5, 25110, Note_on_c, 9, 38, 0
5, 25140, Note_on_c, 9, 35, 109
5, 25140, Note_on_c, 9, 42, 110
5, 25140, Note_on_c, 9, 64, 41
5, 25169, Note_on_c, 9, 64, 0
5, 25170, Note_on_c, 9, 42, 0
5, 25170, Note_on_c, 9, 35, 0
5, 25200, Note_on_c, 9, 35, 117
5, 25200, Note_on_c, 9, 42, 113
5, 25200, Note_on_c, 9, 64, 46
5, 25229, Note_on_c, 9, 64, 0
5, 25230, Note_on_c, 9, 42, 0
5, 25230, Note_on_c, 9, 35, 0
5, 25260, Note_on_c, 9, 42, 118
5, 25260, Note_on_c, 9, 64, 42
5, 25289, Note_on_c, 9, 64, 0
5, 25290, Note_on_c, 9, 42, 0
5, 25298, Note_on_c, 9, 48, 118
5, 25307, Note_on_c, 9, 48, 0
5, 25320, Note_on_c, 9, 38, 111
5, 25320, Note_on_c, 9, 42, 110
5, 25320, Note_on_c, 9, 62, 41
5, 25320, Note_on_c, 9, 54, 127
5, 25326, Note_on_c, 9, 43, 119
5, 25327, Note_on_c, 9, 45, 119
5, 25347, Note_on_c, 9, 45, 0
5, 25349, Note_on_c, 9, 54, 0
5, 25349, Note_on_c, 9, 62, 0
5, 25349, Note_on_c, 9, 43, 0
5, 25350, Note_on_c, 9, 38, 0
5, 25350, Note_on_c, 9, 42, 0
5, 25380, Note_on_c, 9, 46, 107
5, 25380, Note_on_c, 9, 64, 39
5, 25409, Note_on_c, 9, 64, 0
5, 25410, Note_on_c, 9, 46, 0
5, 25439, Note_on_c, 9, 49, 115
5, 25440, Note_on_c, 9, 35, 110
5, 25440, Note_on_c, 9, 42, 109
5, 25440, Note_on_c, 9, 64, 29
5, 25451, Note_on_c, 9, 49, 0
5, 25469, Note_on_c, 9, 64, 0
5, 25470, Note_on_c, 9, 42, 0
5, 25470, Note_on_c, 9, 35, 0
5, 25500, Note_on_c, 9, 42, 108
5, 25500, Note_on_c, 9, 64, 29
5, 25529, Note_on_c, 9, 64, 0
5, 25530, Note_on_c, 9, 42, 0
5, 25560, Note_on_c, 9, 38, 107
5, 25560, Note_on_c, 9, 42, 110
5, 25560, Note_on_c, 9, 62, 32
5, 25560, Note_on_c, 9, 54, 127
5, 25589, Note_on_c, 9, 54, 0
5, 25589, Note_on_c, 9, 62, 0
5, 25590, Note_on_c, 9, 42, 0
5, 25590, Note_on_c, 9, 38, 0
5, 25620, Note_on_c, 9, 35, 111
5, 25620, Note_on_c, 9, 42, 104
5, 25620, Note_on_c, 9, 64, 29
5, 25649, Note_on_c, 9, 64, 0
5, 25650, Note_on_c, 9, 42, 0
5, 25650, Note_on_c, 9, 35, 0
5, 25680, Note_on_c, 9, 35, 111
5, 25680, Note_on_c, 9, 42, 110
5, 25680, Note_on_c, 9, 64, 31
5, 25709, Note_on_c, 9, 64, 0
5, 25710, Note_on_c, 9, 42, 0
5, 25710, Note_on_c, 9, 35, 0
5, 25740, Note_on_c, 9, 42, 106
5, 25740, Note_on_c, 9, 64, 36
5, 25769, Note_on_c, 9, 64, 0
5, 25770, Note_on_c, 9, 42, 0
5, 25800, Note_on_c, 9, 38, 114
5, 25800, Note_on_c, 9, 42, 113
5, 25800, Note_on_c, 9, 62, 47
5, 25800, Note_on_c, 9, 54, 127
5, 25829, Note_on_c, 9, 54, 0
5, 25829, Note_on_c, 9, 62, 0
5, 25830, Note_on_c, 9, 42, 0
5, 25830, Note_on_c, 9, 38, 0
5, 25860, Note_on_c, 9, 42, 112
5, 25860, Note_on_c, 9, 64, 43
5, 25889, Note_on_c, 9, 64, 0
5, 25890, Note_on_c, 9, 42, 0
5, 25920, Note_on_c, 9, 35, 111
5, 25920, Note_on_c, 9, 42, 115
5, 25920, Note_on_c, 9, 64, 43
5, 25949, Note_on_c, 9, 64, 0
5, 25950, Note_on_c, 9, 42, 0
5, 25950, Note_on_c, 9, 35, 0
5, 25980, Note_on_c, 9, 42, 115
5, 25980, Note_on_c, 9, 64, 29
5, 26009, Note_on_c, 9, 64, 0
5, 26010, Note_on_c, 9, 42, 0
5, 26040, Note_on_c, 9, 38, 104
5, 26040, Note_on_c, 9, 42, 110
5, 26040, Note_on_c, 9, 62, 40
5, 26040, Note_on_c, 9, 54, 127
5, 26069, Note_on_c, 9, 54, 0
5, 26069, Note_on_c, 9, 62, 0
5, 26070, Note_on_c, 9, 42, 0
5, 26070, Note_on_c, 9, 38, 0
5, 26100, Note_on_c, 9, 35, 109
5, 26100, Note_on_c, 9, 42, 110
5, 26100, Note_on_c, 9, 64, 41
5, 26129, Note_on_c, 9, 64, 0
5, 26130, Note_on_c, 9, 42, 0
5, 26130, Note_on_c, 9, 35, 0
5, 26160, Note_on_c, 9, 35, 117
5, 26160, Note_on_c, 9, 42, 113
5, 26160, Note_on_c, 9, 64, 46
5, 26189, Note_on_c, 9, 64, 0
5, 26190, Note_on_c, 9, 42, 0
5, 26190, Note_on_c, 9, 35, 0
5, 26220, Note_on_c, 9, 42, 118
5, 26220, Note_on_c, 9, 64, 42
5, 26249, Note_on_c, 9, 64, 0
5, 26250, Note_on_c, 9, 42, 0
5, 26280, Note_on_c, 9, 38, 111
5, 26280, Note_on_c, 9, 42, 110
5, 26280, Note_on_c, 9, 62, 41
5, 26280, Note_on_c, 9, 54, 127
5, 26309, Note_on_c, 9, 54, 0
5, 26309, Note_on_c, 9, 62, 0
5, 26310, Note_on_c, 9, 42, 0
5, 26310, Note_on_c, 9, 38, 0
5, 26340, Note_on_c, 9, 46, 107
5, 26340, Note_on_c, 9, 64, 39
5, 26369, Note_on_c, 9, 64, 0
5, 26370, Note_on_c, 9, 46, 0
5, 26400, Note_on_c, 9, 35, 110
5, 26400, Note_on_c, 9, 42, 109
5, 26400, Note_on_c, 9, 64, 29
5, 26429, Note_on_c, 9, 64, 0
5, 26430, Note_on_c, 9, 42, 0
5, 26430, Note_on_c, 9, 35, 0
5, 26460, Note_on_c, 9, 42, 108
5, 26460, Note_on_c, 9, 64, 29
5, 26489, Note_on_c, 9, 64, 0
5, 26490, Note_on_c, 9, 42, 0
5, 26520, Note_on_c, 9, 38, 107
5, 26520, Note_on_c, 9, 42, 110
5, 26520, Note_on_c, 9, 62, 32
5, 26520, Note_on_c, 9, 54, 127
5, 26549, Note_on_c, 9, 54, 0
5, 26549, Note_on_c, 9, 62, 0
5, 26550, Note_on_c, 9, 42, 0
5, 26550, Note_on_c, 9, 38, 0
5, 26580, Note_on_c, 9, 35, 111
5, 26580, Note_on_c, 9, 42, 104
5, 26580, Note_on_c, 9, 64, 29
5, 26609, Note_on_c, 9, 64, 0
5, 26610, Note_on_c, 9, 42, 0
5, 26610, Note_on_c, 9, 35, 0
5, 26640, Note_on_c, 9, 35, 111
5, 26640, Note_on_c, 9, 42, 110
5, 26640, Note_on_c, 9, 64, 31
5, 26669, Note_on_c, 9, 64, 0
5, 26670, Note_on_c, 9, 42, 0
5, 26670, Note_on_c, 9, 35, 0
5, 26700, Note_on_c, 9, 42, 106
5, 26700, Note_on_c, 9, 64, 36
5, 26729, Note_on_c, 9, 64, 0
5, 26730, Note_on_c, 9, 42, 0
5, 26760, Note_on_c, 9, 38, 114
5, 26760, Note_on_c, 9, 42, 113
5, 26760, Note_on_c, 9, 62, 47
5, 26760, Note_on_c, 9, 54, 127
5, 26789, Note_on_c, 9, 54, 0
5, 26789, Note_on_c, 9, 62, 0
5, 26790, Note_on_c, 9, 42, 0
5, 26790, Note_on_c, 9, 38, 0
5, 26820, Note_on_c, 9, 42, 112
5, 26820, Note_on_c, 9, 64, 43
5, 26849, Note_on_c, 9, 64, 0
5, 26850, Note_on_c, 9, 42, 0
5, 26880, Note_on_c, 9, 35, 111
5, 26880, Note_on_c, 9, 42, 115
5, 26880, Note_on_c, 9, 64, 43
5, 26909, Note_on_c, 9, 64, 0
5, 26910, Note_on_c, 9, 42, 0
5, 26910, Note_on_c, 9, 35, 0
5, 26940, Note_on_c, 9, 42, 115
5, 26940, Note_on_c, 9, 64, 29
5, 26969, Note_on_c, 9, 64, 0
5, 26970, Note_on_c, 9, 42, 0
5, 27000, Note_on_c, 9, 38, 104
5, 27000, Note_on_c, 9, 42, 110
5, 27000, Note_on_c, 9, 62, 40
5, 27000, Note_on_c, 9, 54, 127
5, 27029, Note_on_c, 9, 54, 0
5, 27029, Note_on_c, 9, 62, 0
5, 27030, Note_on_c, 9, 42, 0
5, 27030, Note_on_c, 9, 38, 0
5, 27060, Note_on_c, 9, 35, 109
5, 27060, Note_on_c, 9, 42, 110
5, 27060, Note_on_c, 9, 64, 41
5, 27089, Note_on_c, 9, 64, 0
5, 27090, Note_on_c, 9, 42, 0
5, 27090, Note_on_c, 9, 35, 0
5, 27120, Note_on_c, 9, 35, 117
5, 27120, Note_on_c, 9, 42, 113
5, 27120, Note_on_c, 9, 64, 46
5, 27149, Note_on_c, 9, 64, 0
5, 27150, Note_on_c, 9, 42, 0
5, 27150, Note_on_c, 9, 35, 0
5, 27180, Note_on_c, 9, 42, 118
5, 27180, Note_on_c, 9, 64, 42
5, 27209, Note_on_c, 9, 64, 0
5, 27210, Note_on_c, 9, 42, 0
5, 27240, Note_on_c, 9, 38, 111
5, 27240, Note_on_c, 9, 42, 110
5, 27240, Note_on_c, 9, 62, 41
5, 27240, Note_on_c, 9, 54, 127
5, 27269, Note_on_c, 9, 54, 0
5, 27269, Note_on_c, 9, 62, 0
5, 27270, Note_on_c, 9, 42, 0
5, 27270, Note_on_c, 9, 38, 0
5, 27300, Note_on_c, 9, 46, 107
5, 27300, Note_on_c, 9, 64, 39
5, 27329, Note_on_c, 9, 64, 0
5, 27330, Note_on_c, 9, 46, 0
5, 27360, Note_on_c, 9, 35, 110
5, 27360, Note_on_c, 9, 42, 109
5, 27360, Note_on_c, 9, 64, 29
5, 27389, Note_on_c, 9, 64, 0
5, 27390, Note_on_c, 9, 42, 0
5, 27390, Note_on_c, 9, 35, 0
5, 27420, Note_on_c, 9, 42, 108
5, 27420, Note_on_c, 9, 64, 29
5, 27449, Note_on_c, 9, 64, 0
5, 27450, Note_on_c, 9, 42, 0
5, 27480, Note_on_c, 9, 38, 107
5, 27480, Note_on_c, 9, 42, 110
5, 27480, Note_on_c, 9, 62, 32
5, 27480, Note_on_c, 9, 54, 127
5, 27509, Note_on_c, 9, 54, 0
5, 27509, Note_on_c, 9, 62, 0
5, 27510, Note_on_c, 9, 42, 0
5, 27510, Note_on_c, 9, 38, 0
5, 27540, Note_on_c, 9, 35, 111
5, 27540, Note_on_c, 9, 42, 104
5, 27540, Note_on_c, 9, 64, 29
5, 27569, Note_on_c, 9, 64, 0
5, 27570, Note_on_c, 9, 42, 0
5, 27570, Note_on_c, 9, 35, 0
5, 27600, Note_on_c, 9, 35, 111
5, 27600, Note_on_c, 9, 42, 110
5, 27600, Note_on_c, 9, 64, 31
5, 27629, Note_on_c, 9, 64, 0
5, 27630, Note_on_c, 9, 42, 0
5, 27630, Note_on_c, 9, 35, 0
5, 27660, Note_on_c, 9, 42, 106
5, 27660, Note_on_c, 9, 64, 36
5, 27689, Note_on_c, 9, 64, 0
5, 27690, Note_on_c, 9, 42, 0
5, 27720, Note_on_c, 9, 38, 114
5, 27720, Note_on_c, 9, 42, 113
5, 27720, Note_on_c, 9, 62, 47
5, 27720, Note_on_c, 9, 54, 127
5, 27749, Note_on_c, 9, 54, 0
5, 27749, Note_on_c, 9, 62, 0
5, 27750, Note_on_c, 9, 42, 0
5, 27750, Note_on_c, 9, 38, 0
5, 27780, Note_on_c, 9, 42, 112
5, 27780, Note_on_c, 9, 64, 43
5, 27809, Note_on_c, 9, 64, 0
5, 27810, Note_on_c, 9, 42, 0
5, 27840, Note_on_c, 9, 35, 111
5, 27840, Note_on_c, 9, 42, 115
5, 27840, Note_on_c, 9, 64, 43
5, 27869, Note_on_c, 9, 64, 0
5, 27870, Note_on_c, 9, 42, 0
5, 27870, Note_on_c, 9, 35, 0
5, 27900, Note_on_c, 9, 42, 115
5, 27900, Note_on_c, 9, 64, 29
5, 27929, Note_on_c, 9, 64, 0
5, 27930, Note_on_c, 9, 42, 0
5, 27960, Note_on_c, 9, 38, 104
5, 27960, Note_on_c, 9, 42, 110
5, 27960, Note_on_c, 9, 62, 40
5, 27960, Note_on_c, 9, 54, 127
5, 27989, Note_on_c, 9, 54, 0
5, 27989, Note_on_c, 9, 62, 0
5, 27990, Note_on_c, 9, 42, 0
5, 27990, Note_on_c, 9, 38, 0
5, 28020, Note_on_c, 9, 35, 109
5, 28020, Note_on_c, 9, 42, 110
5, 28020, Note_on_c, 9, 64, 41
5, 28049, Note_on_c, 9, 64, 0
5, 28050, Note_on_c, 9, 42, 0
5, 28050, Note_on_c, 9, 35, 0
5, 28080, Note_on_c, 9, 35, 117
5, 28080, Note_on_c, 9, 42, 113
5, 28080, Note_on_c, 9, 64, 46
5, 28109, Note_on_c, 9, 64, 0
5, 28110, Note_on_c, 9, 42, 0
5, 28110, Note_on_c, 9, 35, 0
5, 28140, Note_on_c, 9, 42, 118
5, 28140, Note_on_c, 9, 64, 42
5, 28169, Note_on_c, 9, 64, 0
5, 28170, Note_on_c, 9, 42, 0
5, 28200, Note_on_c, 9, 38, 111
5, 28200, Note_on_c, 9, 42, 110
5, 28200, Note_on_c, 9, 62, 41
5, 28200, Note_on_c, 9, 54, 127
5, 28229, Note_on_c, 9, 54, 0
5, 28229, Note_on_c, 9, 62, 0
5, 28230, Note_on_c, 9, 42, 0
5, 28230, Note_on_c, 9, 38, 0
5, 28260, Note_on_c, 9, 46, 107
5, 28260, Note_on_c, 9, 64, 39
5, 28289, Note_on_c, 9, 64, 0
5, 28290, Note_on_c, 9, 46, 0
5, 28320, Note_on_c, 9, 35, 110
5, 28320, Note_on_c, 9, 42, 109
5, 28320, Note_on_c, 9, 64, 29
5, 28349, Note_on_c, 9, 64, 0
5, 28350, Note_on_c, 9, 42, 0
5, 28350, Note_on_c, 9, 35, 0
5, 28380, Note_on_c, 9, 42, 108
5, 28380, Note_on_c, 9, 64, 29
5, 28409, Note_on_c, 9, 64, 0
5, 28410, Note_on_c, 9, 42, 0
5, 28440, Note_on_c, 9, 38, 107
5, 28440, Note_on_c, 9, 42, 110
5, 28440, Note_on_c, 9, 62, 32
5, 28440, Note_on_c, 9, 54, 127
5, 28469, Note_on_c, 9, 54, 0
5, 28469, Note_on_c, 9, 62, 0
5, 28470, Note_on_c, 9, 42, 0
5, 28470, Note_on_c, 9, 38, 0
5, 28500, Note_on_c, 9, 35, 111
5, 28500, Note_on_c, 9, 42, 104
5, 28500, Note_on_c, 9, 64, 29
5, 28529, Note_on_c, 9, 64, 0
5, 28530, Note_on_c, 9, 42, 0
5, 28530, Note_on_c, 9, 35, 0
5, 28560, Note_on_c, 9, 35, 111
5, 28560, Note_on_c, 9, 42, 110
5, 28560, Note_on_c, 9, 64, 31
5, 28589, Note_on_c, 9, 64, 0
5, 28590, Note_on_c, 9, 42, 0
5, 28590, Note_on_c, 9, 35, 0
5, 28620, Note_on_c, 9, 42, 106
5, 28620, Note_on_c, 9, 64, 36
5, 28649, Note_on_c, 9, 64, 0
5, 28650, Note_on_c, 9, 42, 0
5, 28680, Note_on_c, 9, 38, 114
5, 28680, Note_on_c, 9, 42, 113
5, 28680, Note_on_c, 9, 62, 47
5, 28680, Note_on_c, 9, 54, 127
5, 28709, Note_on_c, 9, 54, 0
5, 28709, Note_on_c, 9, 62, 0
5, 28710, Note_on_c, 9, 42, 0
5, 28710, Note_on_c, 9, 38, 0
5, 28740, Note_on_c, 9, 42, 112
5, 28740, Note_on_c, 9, 64, 43
5, 28769, Note_on_c, 9, 64, 0
5, 28770, Note_on_c, 9, 42, 0
5, 28800, Note_on_c, 9, 35, 111
5, 28800, Note_on_c, 9, 42, 115
5, 28800, Note_on_c, 9, 64, 43
5, 28829, Note_on_c, 9, 64, 0
5, 28830, Note_on_c, 9, 42, 0
5, 28830, Note_on_c, 9, 35, 0
5, 28860, Note_on_c, 9, 42, 115
5, 28860, Note_on_c, 9, 64, 29
5, 28889, Note_on_c, 9, 64, 0
5, 28890, Note_on_c, 9, 42, 0
5, 28920, Note_on_c, 9, 38, 104
5, 28920, Note_on_c, 9, 42, 110
5, 28920, Note_on_c, 9, 62, 40
5, 28920, Note_on_c, 9, 54, 127
5, 28949, Note_on_c, 9, 54, 0
5, 28949, Note_on_c, 9, 62, 0
5, 28950, Note_on_c, 9, 42, 0
5, 28950, Note_on_c, 9, 38, 0
5, 28980, Note_on_c, 9, 35, 109
5, 28980, Note_on_c, 9, 42, 110
5, 28980, Note_on_c, 9, 64, 41
5, 29009, Note_on_c, 9, 64, 0
5, 29010, Note_on_c, 9, 42, 0
5, 29010, Note_on_c, 9, 35, 0
5, 29040, Note_on_c, 9, 35, 117
5, 29040, Note_on_c, 9, 42, 113
5, 29040, Note_on_c, 9, 64, 46
5, 29069, Note_on_c, 9, 64, 0
5, 29070, Note_on_c, 9, 42, 0
5, 29070, Note_on_c, 9, 35, 0
5, 29100, Note_on_c, 9, 42, 118
5, 29100, Note_on_c, 9, 64, 42
5, 29129, Note_on_c, 9, 64, 0
5, 29130, Note_on_c, 9, 42, 0
5, 29160, Note_on_c, 9, 38, 111
5, 29160, Note_on_c, 9, 42, 110
5, 29160, Note_on_c, 9, 62, 41
5, 29160, Note_on_c, 9, 54, 127
5, 29189, Note_on_c, 9, 54, 0
5, 29189, Note_on_c, 9, 62, 0
5, 29190, Note_on_c, 9, 42, 0
5, 29190, Note_on_c, 9, 38, 0
5, 29220, Note_on_c, 9, 46, 107
5, 29220, Note_on_c, 9, 64, 39
5, 29249, Note_on_c, 9, 64, 0
5, 29250, Note_on_c, 9, 46, 0
5, 29280, Note_on_c, 9, 35, 110
5, 29280, Note_on_c, 9, 42, 109
5, 29280, Note_on_c, 9, 64, 29
5, 29309, Note_on_c, 9, 64, 0
5, 29310, Note_on_c, 9, 42, 0
5, 29310, Note_on_c, 9, 35, 0
5, 29340, Note_on_c, 9, 42, 108
5, 29340, Note_on_c, 9, 64, 29
5, 29369, Note_on_c, 9, 64, 0
5, 29370, Note_on_c, 9, 42, 0
5, 29400, Note_on_c, 9, 38, 107
5, 29400, Note_on_c, 9, 42, 110
5, 29400, Note_on_c, 9, 62, 32
5, 29400, Note_on_c, 9, 54, 127
5, 29429, Note_on_c, 9, 54, 0
5, 29429, Note_on_c, 9, 62, 0
5, 29430, Note_on_c, 9, 42, 0
5, 29430, Note_on_c, 9, 38, 0
5, 29460, Note_on_c, 9, 35, 111
5, 29460, Note_on_c, 9, 42, 104
5, 29460, Note_on_c, 9, 64, 29
5, 29489, Note_on_c, 9, 64, 0
5, 29490, Note_on_c, 9, 42, 0
5, 29490, Note_on_c, 9, 35, 0
5, 29520, Note_on_c, 9, 35, 111
5, 29520, Note_on_c, 9, 42, 110
5, 29520, Note_on_c, 9, 64, 31
5, 29549, Note_on_c, 9, 64, 0
5, 29550, Note_on_c, 9, 42, 0
5, 29550, Note_on_c, 9, 35, 0
5, 29580, Note_on_c, 9, 42, 106
5, 29580, Note_on_c, 9, 64, 36
5, 29609, Note_on_c, 9, 64, 0
5, 29610, Note_on_c, 9, 42, 0
5, 29640, Note_on_c, 9, 38, 114
5, 29640, Note_on_c, 9, 42, 113
5, 29640, Note_on_c, 9, 62, 47
5, 29640, Note_on_c, 9, 54, 127
5, 29669, Note_on_c, 9, 54, 0
5, 29669, Note_on_c, 9, 62, 0
5, 29670, Note_on_c, 9, 42, 0
5, 29670, Note_on_c, 9, 38, 0
5, 29700, Note_on_c, 9, 42, 112
5, 29700, Note_on_c, 9, 64, 43
5, 29729, Note_on_c, 9, 64, 0
5, 29730, Note_on_c, 9, 42, 0
5, 29760, Note_on_c, 9, 35, 111
5, 29760, Note_on_c, 9, 42, 115
5, 29760, Note_on_c, 9, 64, 43
5, 29789, Note_on_c, 9, 64, 0
5, 29790, Note_on_c, 9, 42, 0
5, 29790, Note_on_c, 9, 35, 0
5, 29820, Note_on_c, 9, 42, 115
5, 29820, Note_on_c, 9, 64, 29
5, 29849, Note_on_c, 9, 64, 0
5, 29850, Note_on_c, 9, 42, 0
5, 29880, Note_on_c, 9, 38, 104
5, 29880, Note_on_c, 9, 42, 110
5, 29880, Note_on_c, 9, 62, 40
5, 29880, Note_on_c, 9, 54, 127
5, 29909, Note_on_c, 9, 54, 0
5, 29909, Note_on_c, 9, 62, 0
5, 29910, Note_on_c, 9, 42, 0
5, 29910, Note_on_c, 9, 38, 0
5, 29940, Note_on_c, 9, 35, 109
5, 29940, Note_on_c, 9, 42, 110
5, 29940, Note_on_c, 9, 64, 41
5, 29969, Note_on_c, 9, 64, 0
5, 29970, Note_on_c, 9, 42, 0
5, 29970, Note_on_c, 9, 35, 0
5, 30000, Note_on_c, 9, 35, 117
5, 30000, Note_on_c, 9, 42, 113
5, 30000, Note_on_c, 9, 64, 46
5, 30029, Note_on_c, 9, 64, 0
5, 30030, Note_on_c, 9, 42, 0
5, 30030, Note_on_c, 9, 35, 0
5, 30060, Note_on_c, 9, 42, 118
5, 30060, Note_on_c, 9, 64, 42
5, 30089, Note_on_c, 9, 64, 0
5, 30090, Note_on_c, 9, 42, 0
5, 30120, Note_on_c, 9, 38, 111
5, 30120, Note_on_c, 9, 42, 110
5, 30120, Note_on_c, 9, 62, 41
5, 30120, Note_on_c, 9, 54, 127
5, 30149, Note_on_c, 9, 54, 0
5, 30149, Note_on_c, 9, 62, 0
5, 30150, Note_on_c, 9, 42, 0
5, 30150, Note_on_c, 9, 38, 0
5, 30180, Note_on_c, 9, 46, 107
5, 30180, Note_on_c, 9, 64, 39
5, 30209, Note_on_c, 9, 64, 0
5, 30210, Note_on_c, 9, 46, 0
5, 30240, Note_on_c, 9, 35, 110
5, 30240, Note_on_c, 9, 42, 109
5, 30240, Note_on_c, 9, 64, 29
5, 30269, Note_on_c, 9, 64, 0
5, 30270, Note_on_c, 9, 42, 0
5, 30270, Note_on_c, 9, 35, 0
5, 30300, Note_on_c, 9, 42, 108
5, 30300, Note_on_c, 9, 64, 29
5, 30329, Note_on_c, 9, 64, 0
5, 30330, Note_on_c, 9, 42, 0
5, 30360, Note_on_c, 9, 38, 107
5, 30360, Note_on_c, 9, 42, 110
5, 30360, Note_on_c, 9, 62, 32
5, 30360, Note_on_c, 9, 54, 127
5, 30389, Note_on_c, 9, 54, 0
5, 30389, Note_on_c, 9, 62, 0
5, 30390, Note_on_c, 9, 42, 0
5, 30390, Note_on_c, 9, 38, 0
5, 30420, Note_on_c, 9, 35, 111
5, 30420, Note_on_c, 9, 42, 104
5, 30420, Note_on_c, 9, 64, 29
5, 30449, Note_on_c, 9, 64, 0
5, 30450, Note_on_c, 9, 42, 0
5, 30450, Note_on_c, 9, 35, 0
5, 30480, Note_on_c, 9, 35, 111
5, 30480, Note_on_c, 9, 42, 110
5, 30480, Note_on_c, 9, 64, 31
5, 30509, Note_on_c, 9, 64, 0
5, 30510, Note_on_c, 9, 42, 0
5, 30510, Note_on_c, 9, 35, 0
5, 30540, Note_on_c, 9, 42, 106
5, 30540, Note_on_c, 9, 64, 36
5, 30569, Note_on_c, 9, 64, 0
5, 30570, Note_on_c, 9, 42, 0
5, 30600, Note_on_c, 9, 38, 114
5, 30600, Note_on_c, 9, 42, 113
5, 30600, Note_on_c, 9, 62, 47
5, 30600, Note_on_c, 9, 54, 127
5, 30629, Note_on_c, 9, 54, 0
5, 30629, Note_on_c, 9, 62, 0
5, 30630, Note_on_c, 9, 42, 0
5, 30630, Note_on_c, 9, 38, 0
5, 30660, Note_on_c, 9, 42, 112
5, 30660, Note_on_c, 9, 64, 43
5, 30689, Note_on_c, 9, 64, 0
5, 30690, Note_on_c, 9, 42, 0
5, 30720, Note_on_c, 9, 35, 111
5, 30720, Note_on_c, 9, 42, 115
5, 30720, Note_on_c, 9, 64, 43
5, 30749, Note_on_c, 9, 64, 0
5, 30750, Note_on_c, 9, 42, 0
5, 30750, Note_on_c, 9, 35, 0
5, 30780, Note_on_c, 9, 42, 115
5, 30780, Note_on_c, 9, 64, 29
5, 30809, Note_on_c, 9, 64, 0
5, 30810, Note_on_c, 9, 42, 0
5, 30840, Note_on_c, 9, 38, 104
5, 30840, Note_on_c, 9, 42, 110
5, 30840, Note_on_c, 9, 62, 40
5, 30840, Note_on_c, 9, 54, 127
5, 30869, Note_on_c, 9, 54, 0
5, 30869, Note_on_c, 9, 62, 0
5, 30870, Note_on_c, 9, 42, 0
5, 30870, Note_on_c, 9, 38, 0
5, 30900, Note_on_c, 9, 35, 109
5, 30900, Note_on_c, 9, 42, 110
5, 30900, Note_on_c, 9, 64, 41
5, 30929, Note_on_c, 9, 64, 0
5, 30930, Note_on_c, 9, 42, 0
5, 30930, Note_on_c, 9, 35, 0
5, 30960, Note_on_c, 9, 35, 117
5, 30960, Note_on_c, 9, 42, 113
5, 30960, Note_on_c, 9, 64, 46
5, 30989, Note_on_c, 9, 64, 0
5, 30990, Note_on_c, 9, 42, 0
5, 30990, Note_on_c, 9, 35, 0
5, 31020, Note_on_c, 9, 42, 118
5, 31020, Note_on_c, 9, 64, 42
5, 31049, Note_on_c, 9, 64, 0
5, 31050, Note_on_c, 9, 42, 0
5, 31050, Note_on_c, 9, 48, 115
5, 31061, Note_on_c, 9, 48, 0
5, 31080, Note_on_c, 9, 38, 111
5, 31080, Note_on_c, 9, 42, 110
5, 31080, Note_on_c, 9, 62, 41
5, 31080, Note_on_c, 9, 54, 127
5, 31080, Note_on_c, 9, 48, 95
5, 31093, Note_on_c, 9, 48, 0
5, 31109, Note_on_c, 9, 62, 0
5, 31109, Note_on_c, 9, 54, 0
5, 31110, Note_on_c, 9, 42, 0
5, 31110, Note_on_c, 9, 38, 0
5, 31140, Note_on_c, 9, 46, 107
5, 31140, Note_on_c, 9, 64, 39
5, 31140, Note_on_c, 9, 48, 111
5, 31152, Note_on_c, 9, 48, 0
5, 31169, Note_on_c, 9, 64, 0
5, 31170, Note_on_c, 9, 46, 0
5, 31200, Note_on_c, 9, 35, 110
5, 31200, Note_on_c, 9, 42, 109
5, 31200, Note_on_c, 9, 64, 29
5, 31200, Note_on_c, 9, 49, 111
5, 31210, Note_on_c, 9, 49, 0
5, 31229, Note_on_c, 9, 64, 0
5, 31230, Note_on_c, 9, 42, 0
5, 31230, Note_on_c, 9, 35, 0
5, 31260, Note_on_c, 9, 42, 108
5, 31260, Note_on_c, 9, 64, 29
5, 31289, Note_on_c, 9, 64, 0
5, 31290, Note_on_c, 9, 42, 0
5, 31320, Note_on_c, 9, 38, 107
5, 31320, Note_on_c, 9, 42, 110
5, 31320, Note_on_c, 9, 62, 32
5, 31320, Note_on_c, 9, 54, 127
5, 31349, Note_on_c, 9, 54, 0
5, 31349, Note_on_c, 9, 62, 0
5, 31350, Note_on_c, 9, 42, 0
5, 31350, Note_on_c, 9, 38, 0
5, 31380, Note_on_c, 9, 35, 111
5, 31380, Note_on_c, 9, 42, 104
5, 31380, Note_on_c, 9, 64, 29
5, 31409, Note_on_c, 9, 64, 0
5, 31410, Note_on_c, 9, 42, 0
5, 31410, Note_on_c, 9, 35, 0
5, 31440, Note_on_c, 9, 35, 111
5, 31440, Note_on_c, 9, 42, 110
5, 31440, Note_on_c, 9, 64, 31
5, 31469, Note_on_c, 9, 64, 0
5, 31470, Note_on_c, 9, 42, 0
5, 31470, Note_on_c, 9, 35, 0
5, 31500, Note_on_c, 9, 42, 106
5, 31500, Note_on_c, 9, 64, 36
5, 31529, Note_on_c, 9, 64, 0
5, 31530, Note_on_c, 9, 42, 0
5, 31560, Note_on_c, 9, 38, 114
5, 31560, Note_on_c, 9, 42, 113
5, 31560, Note_on_c, 9, 62, 47
5, 31560, Note_on_c, 9, 54, 127
5, 31589, Note_on_c, 9, 54, 0
5, 31589, Note_on_c, 9, 62, 0
5, 31590, Note_on_c, 9, 42, 0
5, 31590, Note_on_c, 9, 38, 0
5, 31620, Note_on_c, 9, 42, 112
5, 31620, Note_on_c, 9, 64, 43
5, 31649, Note_on_c, 9, 64, 0
5, 31650, Note_on_c, 9, 42, 0
5, 31680, Note_on_c, 9, 35, 111
5, 31680, Note_on_c, 9, 42, 115
5, 31680, Note_on_c, 9, 64, 43
5, 31709, Note_on_c, 9, 64, 0
5, 31710, Note_on_c, 9, 42, 0
5, 31710, Note_on_c, 9, 35, 0
5, 31740, Note_on_c, 9, 42, 115
5, 31740, Note_on_c, 9, 64, 29
5, 31769, Note_on_c, 9, 64, 0
5, 31770, Note_on_c, 9, 42, 0
5, 31800, Note_on_c, 9, 38, 104
5, 31800, Note_on_c, 9, 42, 110
5, 31800, Note_on_c, 9, 62, 40
5, 31800, Note_on_c, 9, 54, 127
5, 31829, Note_on_c, 9, 54, 0
5, 31829, Note_on_c, 9, 62, 0
5, 31830, Note_on_c, 9, 42, 0
5, 31830, Note_on_c, 9, 38, 0
5, 31860, Note_on_c, 9, 35, 109
5, 31860, Note_on_c, 9, 42, 110
5, 31860, Note_on_c, 9, 64, 41
5, 31889, Note_on_c, 9, 64, 0
5, 31890, Note_on_c, 9, 42, 0
5, 31890, Note_on_c, 9, 35, 0
5, 31920, Note_on_c, 9, 35, 117
5, 31920, Note_on_c, 9, 42, 113
5, 31920, Note_on_c, 9, 64, 46
5, 31949, Note_on_c, 9, 64, 0
5, 31950, Note_on_c, 9, 42, 0
5, 31950, Note_on_c, 9, 35, 0
5, 31980, Note_on_c, 9, 42, 118
5, 31980, Note_on_c, 9, 64, 42
5, 32009, Note_on_c, 9, 64, 0
5, 32010, Note_on_c, 9, 42, 0
5, 32040, Note_on_c, 9, 38, 111
5, 32040, Note_on_c, 9, 42, 110
5, 32040, Note_on_c, 9, 62, 41
5, 32040, Note_on_c, 9, 54, 127
5, 32069, Note_on_c, 9, 54, 0
5, 32069, Note_on_c, 9, 62, 0
5, 32070, Note_on_c, 9, 42, 0
5, 32070, Note_on_c, 9, 38, 0
5, 32100, Note_on_c, 9, 46, 107
5, 32100, Note_on_c, 9, 64, 39
5, 32129, Note_on_c, 9, 64, 0
5, 32130, Note_on_c, 9, 46, 0
5, 32160, Note_on_c, 9, 35, 110
5, 32160, Note_on_c, 9, 42, 109
5, 32160, Note_on_c, 9, 64, 29
5, 32189, Note_on_c, 9, 64, 0
5, 32190, Note_on_c, 9, 42, 0
5, 32190, Note_on_c, 9, 35, 0
5, 32220, Note_on_c, 9, 42, 108
5, 32220, Note_on_c, 9, 64, 29
5, 32249, Note_on_c, 9, 64, 0
5, 32250, Note_on_c, 9, 42, 0
5, 32280, Note_on_c, 9, 38, 107
5, 32280, Note_on_c, 9, 42, 110
5, 32280, Note_on_c, 9, 62, 32
5, 32280, Note_on_c, 9, 54, 127
5, 32309, Note_on_c, 9, 54, 0
5, 32309, Note_on_c, 9, 62, 0
5, 32310, Note_on_c, 9, 42, 0
5, 32310, Note_on_c, 9, 38, 0
5, 32340, Note_on_c, 9, 35, 111
5, 32340, Note_on_c, 9, 42, 104
5, 32340, Note_on_c, 9, 64, 29
5, 32369, Note_on_c, 9, 64, 0
5, 32370, Note_on_c, 9, 42, 0
5, 32370, Note_on_c, 9, 35, 0
5, 32400, Note_on_c, 9, 35, 111
5, 32400, Note_on_c, 9, 42, 110
5, 32400, Note_on_c, 9, 64, 31
5, 32429, Note_on_c, 9, 64, 0
5, 32430, Note_on_c, 9, 42, 0
5, 32430, Note_on_c, 9, 35, 0
5, 32460, Note_on_c, 9, 42, 106
5, 32460, Note_on_c, 9, 64, 36
5, 32489, Note_on_c, 9, 64, 0
5, 32490, Note_on_c, 9, 42, 0
5, 32520, Note_on_c, 9, 38, 114
5, 32520, Note_on_c, 9, 42, 113
5, 32520, Note_on_c, 9, 62, 47
5, 32520, Note_on_c, 9, 54, 127
5, 32549, Note_on_c, 9, 54, 0
5, 32549, Note_on_c, 9, 62, 0
5, 32550, Note_on_c, 9, 42, 0
5, 32550, Note_on_c, 9, 38, 0
5, 32580, Note_on_c, 9, 42, 112
5, 32580, Note_on_c, 9, 64, 43
5, 32609, Note_on_c, 9, 64, 0
5, 32610, Note_on_c, 9, 42, 0
5, 32640, Note_on_c, 9, 35, 111
5, 32640, Note_on_c, 9, 42, 115
5, 32640, Note_on_c, 9, 64, 43
5, 32669, Note_on_c, 9, 64, 0
5, 32670, Note_on_c, 9, 42, 0
5, 32670, Note_on_c, 9, 35, 0
5, 32700, Note_on_c, 9, 42, 115
5, 32700, Note_on_c, 9, 64, 29
5, 32729, Note_on_c, 9, 64, 0
5, 32730, Note_on_c, 9, 42, 0
5, 32760, Note_on_c, 9, 38, 104
5, 32760, Note_on_c, 9, 42, 110
5, 32760, Note_on_c, 9, 62, 40
5, 32760, Note_on_c, 9, 54, 127
5, 32789, Note_on_c, 9, 54, 0
5, 32789, Note_on_c, 9, 62, 0
5, 32790, Note_on_c, 9, 42, 0
5, 32790, Note_on_c, 9, 38, 0
5, 32820, Note_on_c, 9, 35, 109
5, 32820, Note_on_c, 9, 42, 110
5, 32820, Note_on_c, 9, 64, 41
5, 32849, Note_on_c, 9, 64, 0
5, 32850, Note_on_c, 9, 42, 0
5, 32850, Note_on_c, 9, 35, 0
5, 32880, Note_on_c, 9, 35, 117
5, 32880, Note_on_c, 9, 42, 113
5, 32880, Note_on_c, 9, 64, 46
5, 32909, Note_on_c, 9, 64, 0
5, 32910, Note_on_c, 9, 42, 0
5, 32910, Note_on_c, 9, 35, 0
5, 32940, Note_on_c, 9, 42, 118
5, 32940, Note_on_c, 9, 64, 42
5, 32944, Note_on_c, 9, 43, 115
5, 32958, Note_on_c, 9, 43, 0
5, 32969, Note_on_c, 9, 64, 0
5, 32970, Note_on_c, 9, 42, 0
5, 33000, Note_on_c, 9, 38, 111
5, 33000, Note_on_c, 9, 42, 110
5, 33000, Note_on_c, 9, 62, 41
5, 33000, Note_on_c, 9, 54, 127
5, 33005, Note_on_c, 9, 43, 119
5, 33021, Note_on_c, 9, 43, 0
5, 33029, Note_on_c, 9, 62, 0
5, 33029, Note_on_c, 9, 54, 0
5, 33030, Note_on_c, 9, 42, 0
5, 33030, Note_on_c, 9, 38, 0
5, 33060, Note_on_c, 9, 46, 107
5, 33060, Note_on_c, 9, 64, 39
5, 33062, Note_on_c, 9, 43, 123
5, 33078, Note_on_c, 9, 43, 0
5, 33089, Note_on_c, 9, 64, 0
5, 33090, Note_on_c, 9, 46, 0
5, 33120, Note_on_c, 9, 35, 110
5, 33120, Note_on_c, 9, 42, 109
5, 33120, Note_on_c, 9, 64, 29
5, 33122, Note_on_c, 9, 49, 107
5, 33133, Note_on_c, 9, 49, 0
5, 33149, Note_on_c, 9, 64, 0
5, 33150, Note_on_c, 9, 42, 0
5, 33150, Note_on_c, 9, 35, 0
5, 33180, Note_on_c, 9, 42, 108
5, 33180, Note_on_c, 9, 64, 29
5, 33209, Note_on_c, 9, 64, 0
5, 33210, Note_on_c, 9, 42, 0
5, 33240, Note_on_c, 9, 38, 107
5, 33240, Note_on_c, 9, 42, 110
5, 33240, Note_on_c, 9, 62, 32
5, 33240, Note_on_c, 9, 54, 127
5, 33269, Note_on_c, 9, 54, 0
5, 33269, Note_on_c, 9, 62, 0
5, 33270, Note_on_c, 9, 42, 0
5, 33270, Note_on_c, 9, 38, 0
5, 33300, Note_on_c, 9, 35, 111
5, 33300, Note_on_c, 9, 42, 104
5, 33300, Note_on_c, 9, 64, 29
5, 33329, Note_on_c, 9, 64, 0
5, 33330, Note_on_c, 9, 42, 0
5, 33330, Note_on_c, 9, 35, 0
5, 33360, Note_on_c, 9, 35, 111
5, 33360, Note_on_c, 9, 42, 110
5, 33360, Note_on_c, 9, 64, 31
5, 33389, Note_on_c, 9, 64, 0
5, 33390, Note_on_c, 9, 42, 0
5, 33390, Note_on_c, 9, 35, 0
5, 33420, Note_on_c, 9, 42, 106
5, 33420, Note_on_c, 9, 64, 36
5, 33449, Note_on_c, 9, 64, 0
5, 33450, Note_on_c, 9, 42, 0
5, 33480, Note_on_c, 9, 38, 114
5, 33480, Note_on_c, 9, 42, 113
5, 33480, Note_on_c, 9, 62, 47
5, 33480, Note_on_c, 9, 54, 127
5, 33509, Note_on_c, 9, 54, 0
5, 33509, Note_on_c, 9, 62, 0
5, 33510, Note_on_c, 9, 42, 0
5, 33510, Note_on_c, 9, 38, 0
5, 33540, Note_on_c, 9, 42, 112
5, 33540, Note_on_c, 9, 64, 43
5, 33569, Note_on_c, 9, 64, 0
5, 33570, Note_on_c, 9, 42, 0
5, 33600, Note_on_c, 9, 35, 111
5, 33600, Note_on_c, 9, 42, 115
5, 33600, Note_on_c, 9, 64, 43
5, 33629, Note_on_c, 9, 64, 0
5, 33630, Note_on_c, 9, 42, 0
5, 33630, Note_on_c, 9, 35, 0
5, 33660, Note_on_c, 9, 42, 115
5, 33660, Note_on_c, 9, 64, 29
5, 33689, Note_on_c, 9, 64, 0
5, 33690, Note_on_c, 9, 42, 0
5, 33720, Note_on_c, 9, 38, 104
5, 33720, Note_on_c, 9, 42, 110
5, 33720, Note_on_c, 9, 62, 40
5, 33720, Note_on_c, 9, 54, 127
5, 33749, Note_on_c, 9, 54, 0
5, 33749, Note_on_c, 9, 62, 0
5, 33750, Note_on_c, 9, 42, 0
5, 33750, Note_on_c, 9, 38, 0
5, 33780, Note_on_c, 9, 35, 109
5, 33780, Note_on_c, 9, 42, 110
5, 33780, Note_on_c, 9, 64, 41
5, 33809, Note_on_c, 9, 64, 0
5, 33810, Note_on_c, 9, 42, 0
5, 33810, Note_on_c, 9, 35, 0
5, 33840, Note_on_c, 9, 35, 117
5, 33840, Note_on_c, 9, 42, 113
5, 33840, Note_on_c, 9, 64, 46
5, 33869, Note_on_c, 9, 64, 0
5, 33870, Note_on_c, 9, 42, 0
5, 33870, Note_on_c, 9, 35, 0
5, 33900, Note_on_c, 9, 42, 118
5, 33900, Note_on_c, 9, 64, 42
5, 33929, Note_on_c, 9, 64, 0
5, 33930, Note_on_c, 9, 42, 0
5, 33960, Note_on_c, 9, 38, 111
5, 33960, Note_on_c, 9, 42, 110
5, 33960, Note_on_c, 9, 62, 41
5, 33960, Note_on_c, 9, 54, 127
5, 33989, Note_on_c, 9, 54, 0
5, 33989, Note_on_c, 9, 62, 0
5, 33990, Note_on_c, 9, 42, 0
5, 33990, Note_on_c, 9, 38, 0
5, 34020, Note_on_c, 9, 46, 107
5, 34020, Note_on_c, 9, 64, 39
5, 34049, Note_on_c, 9, 64, 0
5, 34050, Note_on_c, 9, 46, 0
5, 34080, Note_on_c, 9, 35, 110
5, 34080, Note_on_c, 9, 42, 109
5, 34080, Note_on_c, 9, 64, 29
5, 34109, Note_on_c, 9, 64, 0
5, 34110, Note_on_c, 9, 42, 0
5, 34110, Note_on_c, 9, 35, 0
5, 34140, Note_on_c, 9, 42, 108
5, 34140, Note_on_c, 9, 64, 29
5, 34169, Note_on_c, 9, 64, 0
5, 34170, Note_on_c, 9, 42, 0
5, 34200, Note_on_c, 9, 38, 107
5, 34200, Note_on_c, 9, 42, 110
5, 34200, Note_on_c, 9, 62, 32
5, 34200, Note_on_c, 9, 54, 127
5, 34229, Note_on_c, 9, 54, 0
5, 34229, Note_on_c, 9, 62, 0
5, 34230, Note_on_c, 9, 42, 0
5, 34230, Note_on_c, 9, 38, 0
5, 34260, Note_on_c, 9, 35, 111
5, 34260, Note_on_c, 9, 42, 104
5, 34260, Note_on_c, 9, 64, 29
5, 34289, Note_on_c, 9, 64, 0
5, 34290, Note_on_c, 9, 42, 0
5, 34290, Note_on_c, 9, 35, 0
5, 34320, Note_on_c, 9, 35, 111
5, 34320, Note_on_c, 9, 42, 110
5, 34320, Note_on_c, 9, 64, 31
5, 34349, Note_on_c, 9, 64, 0
5, 34350, Note_on_c, 9, 42, 0
5, 34350, Note_on_c, 9, 35, 0
5, 34380, Note_on_c, 9, 42, 106
5, 34380, Note_on_c, 9, 64, 36
5, 34409, Note_on_c, 9, 64, 0
5, 34410, Note_on_c, 9, 42, 0
5, 34440, Note_on_c, 9, 38, 114
5, 34440, Note_on_c, 9, 42, 113
5, 34440, Note_on_c, 9, 62, 47
5, 34440, Note_on_c, 9, 54, 127
5, 34469, Note_on_c, 9, 54, 0
5, 34469, Note_on_c, 9, 62, 0
5, 34470, Note_on_c, 9, 42, 0
5, 34470, Note_on_c, 9, 38, 0
5, 34500, Note_on_c, 9, 42, 112
5, 34500, Note_on_c, 9, 64, 43
5, 34529, Note_on_c, 9, 64, 0
5, 34530, Note_on_c, 9, 42, 0
5, 34560, Note_on_c, 9, 35, 111
5, 34560, Note_on_c, 9, 42, 115
5, 34560, Note_on_c, 9, 64, 43
5, 34589, Note_on_c, 9, 64, 0
5, 34590, Note_on_c, 9, 42, 0
5, 34590, Note_on_c, 9, 35, 0
5, 34620, Note_on_c, 9, 42, 115
5, 34620, Note_on_c, 9, 64, 29
5, 34649, Note_on_c, 9, 64, 0
5, 34650, Note_on_c, 9, 42, 0
5, 34680, Note_on_c, 9, 38, 104
5, 34680, Note_on_c, 9, 42, 110
5, 34680, Note_on_c, 9, 62, 40
5, 34680, Note_on_c, 9, 54, 127
5, 34709, Note_on_c, 9, 54, 0
5, 34709, Note_on_c, 9, 62, 0
5, 34710, Note_on_c, 9, 42, 0
5, 34710, Note_on_c, 9, 38, 0
5, 34740, Note_on_c, 9, 35, 109
5, 34740, Note_on_c, 9, 42, 110
5, 34740, Note_on_c, 9, 64, 41
5, 34769, Note_on_c, 9, 64, 0
5, 34770, Note_on_c, 9, 42, 0
5, 34770, Note_on_c, 9, 35, 0
5, 34800, Note_on_c, 9, 35, 117
5, 34800, Note_on_c, 9, 42, 113
5, 34800, Note_on_c, 9, 64, 46
5, 34829, Note_on_c, 9, 64, 0
5, 34830, Note_on_c, 9, 42, 0
5, 34830, Note_on_c, 9, 35, 0
5, 34860, Note_on_c, 9, 42, 118
5, 34860, Note_on_c, 9, 64, 42
5, 34889, Note_on_c, 9, 64, 0
5, 34890, Note_on_c, 9, 42, 0
5, 34895, Note_on_c, 9, 48, 118
5, 34901, Note_on_c, 9, 48, 0
5, 34904, Note_on_c, 9, 48, 118
5, 34913, Note_on_c, 9, 48, 0
5, 34920, Note_on_c, 9, 38, 111
5, 34920, Note_on_c, 9, 42, 110
5, 34920, Note_on_c, 9, 62, 41
5, 34920, Note_on_c, 9, 54, 127
5, 34933, Note_on_c, 9, 48, 119
5, 34949, Note_on_c, 9, 54, 0
5, 34949, Note_on_c, 9, 62, 0
5, 34950, Note_on_c, 9, 38, 0
5, 34950, Note_on_c, 9, 42, 0
5, 34950, Note_on_c, 9, 48, 0
5, 34980, Note_on_c, 9, 46, 107
5, 34980, Note_on_c, 9, 64, 39
5, 34990, Note_on_c, 9, 49, 120
5, 35000, Note_on_c, 9, 49, 0
5, 35009, Note_on_c, 9, 64, 0
5, 35010, Note_on_c, 9, 46, 0
5, 35040, Note_on_c, 9, 35, 110
5, 35040, Note_on_c, 9, 42, 109
5, 35040, Note_on_c, 9, 64, 29
5, 35069, Note_on_c, 9, 64, 0
5, 35070, Note_on_c, 9, 42, 0
5, 35070, Note_on_c, 9, 35, 0
5, 35100, Note_on_c, 9, 42, 108
5, 35100, Note_on_c, 9, 64, 29
5, 35129, Note_on_c, 9, 64, 0
5, 35130, Note_on_c, 9, 42, 0
5, 35160, Note_on_c, 9, 38, 107
5, 35160, Note_on_c, 9, 42, 110
5, 35160, Note_on_c, 9, 62, 32
5, 35160, Note_on_c, 9, 54, 127
5, 35189, Note_on_c, 9, 54, 0
5, 35189, Note_on_c, 9, 62, 0
5, 35190, Note_on_c, 9, 42, 0
5, 35190, Note_on_c, 9, 38, 0
5, 35220, Note_on_c, 9, 35, 111
5, 35220, Note_on_c, 9, 42, 104
5, 35220, Note_on_c, 9, 64, 29
5, 35249, Note_on_c, 9, 64, 0
5, 35250, Note_on_c, 9, 42, 0
5, 35250, Note_on_c, 9, 35, 0
5, 35280, Note_on_c, 9, 35, 111
5, 35280, Note_on_c, 9, 42, 110
5, 35280, Note_on_c, 9, 64, 31
5, 35309, Note_on_c, 9, 64, 0
5, 35310, Note_on_c, 9, 42, 0
5, 35310, Note_on_c, 9, 35, 0
5, 35340, Note_on_c, 9, 42, 106
5, 35340, Note_on_c, 9, 64, 36
5, 35369, Note_on_c, 9, 64, 0
5, 35370, Note_on_c, 9, 42, 0
5, 35400, Note_on_c, 9, 38, 114
5, 35400, Note_on_c, 9, 42, 113
5, 35400, Note_on_c, 9, 62, 47
5, 35400, Note_on_c, 9, 54, 127
5, 35429, Note_on_c, 9, 54, 0
5, 35429, Note_on_c, 9, 62, 0
5, 35430, Note_on_c, 9, 42, 0
5, 35430, Note_on_c, 9, 38, 0
5, 35460, Note_on_c, 9, 42, 112
5, 35460, Note_on_c, 9, 64, 43
5, 35489, Note_on_c, 9, 64, 0
5, 35490, Note_on_c, 9, 42, 0
5, 35520, Note_on_c, 9, 35, 111
5, 35520, Note_on_c, 9, 42, 115
5, 35520, Note_on_c, 9, 64, 43
5, 35549, Note_on_c, 9, 64, 0
5, 35550, Note_on_c, 9, 42, 0
5, 35550, Note_on_c, 9, 35, 0
5, 35580, Note_on_c, 9, 42, 115
5, 35580, Note_on_c, 9, 64, 29
5, 35609, Note_on_c, 9, 64, 0
5, 35610, Note_on_c, 9, 42, 0
5, 35640, Note_on_c, 9, 38, 104
5, 35640, Note_on_c, 9, 42, 110
5, 35640, Note_on_c, 9, 62, 40
5, 35640, Note_on_c, 9, 54, 127
5, 35669, Note_on_c, 9, 54, 0
5, 35669, Note_on_c, 9, 62, 0
5, 35670, Note_on_c, 9, 42, 0
5, 35670, Note_on_c, 9, 38, 0
5, 35700, Note_on_c, 9, 35, 109
5, 35700, Note_on_c, 9, 42, 110
5, 35700, Note_on_c, 9, 64, 41
5, 35729, Note_on_c, 9, 64, 0
5, 35730, Note_on_c, 9, 42, 0
5, 35730, Note_on_c, 9, 35, 0
5, 35760, Note_on_c, 9, 35, 117
5, 35760, Note_on_c, 9, 42, 113
5, 35760, Note_on_c, 9, 64, 46
5, 35789, Note_on_c, 9, 64, 0
5, 35790, Note_on_c, 9, 42, 0
5, 35790, Note_on_c, 9, 35, 0
5, 35820, Note_on_c, 9, 42, 118
5, 35820, Note_on_c, 9, 64, 42
5, 35849, Note_on_c, 9, 64, 0
5, 35850, Note_on_c, 9, 42, 0
5, 35880, Note_on_c, 9, 38, 111
5, 35880, Note_on_c, 9, 42, 110
5, 35880, Note_on_c, 9, 62, 41
5, 35880, Note_on_c, 9, 54, 127
5, 35909, Note_on_c, 9, 54, 0
5, 35909, Note_on_c, 9, 62, 0
5, 35910, Note_on_c, 9, 42, 0
5, 35910, Note_on_c, 9, 38, 0
5, 35940, Note_on_c, 9, 46, 107
5, 35940, Note_on_c, 9, 64, 39
5, 35969, Note_on_c, 9, 64, 0
5, 35970, Note_on_c, 9, 46, 0
5, 36000, Note_on_c, 9, 35, 110
5, 36000, Note_on_c, 9, 42, 109
5, 36000, Note_on_c, 9, 64, 29
5, 36029, Note_on_c, 9, 64, 0
5, 36030, Note_on_c, 9, 42, 0
5, 36030, Note_on_c, 9, 35, 0
5, 36060, Note_on_c, 9, 42, 108
5, 36060, Note_on_c, 9, 64, 29
5, 36089, Note_on_c, 9, 64, 0
5, 36090, Note_on_c, 9, 42, 0
5, 36120, Note_on_c, 9, 38, 107
5, 36120, Note_on_c, 9, 42, 110
5, 36120, Note_on_c, 9, 62, 32
5, 36120, Note_on_c, 9, 54, 127
5, 36149, Note_on_c, 9, 54, 0
5, 36149, Note_on_c, 9, 62, 0
5, 36150, Note_on_c, 9, 42, 0
5, 36150, Note_on_c, 9, 38, 0
5, 36180, Note_on_c, 9, 35, 111
5, 36180, Note_on_c, 9, 42, 104
5, 36180, Note_on_c, 9, 64, 29
5, 36209, Note_on_c, 9, 64, 0
5, 36210, Note_on_c, 9, 42, 0
5, 36210, Note_on_c, 9, 35, 0
5, 36240, Note_on_c, 9, 35, 111
5, 36240, Note_on_c, 9, 42, 110
5, 36240, Note_on_c, 9, 64, 31
5, 36269, Note_on_c, 9, 64, 0
5, 36270, Note_on_c, 9, 42, 0
5, 36270, Note_on_c, 9, 35, 0
5, 36300, Note_on_c, 9, 42, 106
5, 36300, Note_on_c, 9, 64, 36
5, 36329, Note_on_c, 9, 64, 0
5, 36330, Note_on_c, 9, 42, 0
5, 36360, Note_on_c, 9, 38, 114
5, 36360, Note_on_c, 9, 42, 113
5, 36360, Note_on_c, 9, 62, 47
5, 36360, Note_on_c, 9, 54, 127
5, 36389, Note_on_c, 9, 54, 0
5, 36389, Note_on_c, 9, 62, 0
5, 36390, Note_on_c, 9, 42, 0
5, 36390, Note_on_c, 9, 38, 0
5, 36420, Note_on_c, 9, 42, 112
5, 36420, Note_on_c, 9, 64, 43
5, 36449, Note_on_c, 9, 64, 0
5, 36450, Note_on_c, 9, 42, 0
5, 36480, Note_on_c, 9, 35, 111
5, 36480, Note_on_c, 9, 42, 115
5, 36480, Note_on_c, 9, 64, 43
5, 36509, Note_on_c, 9, 64, 0
5, 36510, Note_on_c, 9, 42, 0
5, 36510, Note_on_c, 9, 35, 0
5, 36540, Note_on_c, 9, 42, 115
5, 36540, Note_on_c, 9, 64, 29
5, 36569, Note_on_c, 9, 64, 0
5, 36570, Note_on_c, 9, 42, 0
5, 36600, Note_on_c, 9, 38, 104
5, 36600, Note_on_c, 9, 42, 110
5, 36600, Note_on_c, 9, 62, 40
5, 36600, Note_on_c, 9, 54, 127
5, 36629, Note_on_c, 9, 54, 0
5, 36629, Note_on_c, 9, 62, 0
5, 36630, Note_on_c, 9, 42, 0
5, 36630, Note_on_c, 9, 38, 0
5, 36660, Note_on_c, 9, 35, 109
5, 36660, Note_on_c, 9, 42, 110
5, 36660, Note_on_c, 9, 64, 41
5, 36689, Note_on_c, 9, 64, 0
5, 36690, Note_on_c, 9, 42, 0
5, 36690, Note_on_c, 9, 35, 0
5, 36720, Note_on_c, 9, 35, 117
5, 36720, Note_on_c, 9, 42, 113
5, 36720, Note_on_c, 9, 64, 46
5, 36749, Note_on_c, 9, 64, 0
5, 36750, Note_on_c, 9, 42, 0
5, 36750, Note_on_c, 9, 35, 0
5, 36780, Note_on_c, 9, 42, 118
5, 36780, Note_on_c, 9, 64, 42
5, 36809, Note_on_c, 9, 64, 0
5, 36810, Note_on_c, 9, 42, 0
5, 36840, Note_on_c, 9, 38, 111
5, 36840, Note_on_c, 9, 42, 110
5, 36840, Note_on_c, 9, 62, 41
5, 36840, Note_on_c, 9, 54, 127
5, 36869, Note_on_c, 9, 54, 0
5, 36869, Note_on_c, 9, 62, 0
5, 36870, Note_on_c, 9, 42, 0
5, 36870, Note_on_c, 9, 38, 0
5, 36900, Note_on_c, 9, 46, 107
5, 36900, Note_on_c, 9, 64, 39
5, 36929, Note_on_c, 9, 64, 0
5, 36930, Note_on_c, 9, 46, 0
5, 36960, Note_on_c, 9, 35, 110
5, 36960, Note_on_c, 9, 42, 109
5, 36960, Note_on_c, 9, 64, 29
5, 36989, Note_on_c, 9, 64, 0
5, 36990, Note_on_c, 9, 42, 0
5, 36990, Note_on_c, 9, 35, 0
5, 37020, Note_on_c, 9, 42, 108
5, 37020, Note_on_c, 9, 64, 29
5, 37049, Note_on_c, 9, 64, 0
5, 37050, Note_on_c, 9, 42, 0
5, 37080, Note_on_c, 9, 38, 107
5, 37080, Note_on_c, 9, 42, 110
5, 37080, Note_on_c, 9, 62, 32
5, 37080, Note_on_c, 9, 54, 127
5, 37109, Note_on_c, 9, 54, 0
5, 37109, Note_on_c, 9, 62, 0
5, 37110, Note_on_c, 9, 42, 0
5, 37110, Note_on_c, 9, 38, 0
5, 37140, Note_on_c, 9, 35, 111
5, 37140, Note_on_c, 9, 42, 104
5, 37140, Note_on_c, 9, 64, 29
5, 37169, Note_on_c, 9, 64, 0
5, 37170, Note_on_c, 9, 42, 0
5, 37170, Note_on_c, 9, 35, 0
5, 37200, Note_on_c, 9, 35, 111
5, 37200, Note_on_c, 9, 42, 110
5, 37200, Note_on_c, 9, 64, 31
5, 37229, Note_on_c, 9, 64, 0
5, 37230, Note_on_c, 9, 42, 0
5, 37230, Note_on_c, 9, 35, 0
5, 37260, Note_on_c, 9, 42, 106
5, 37260, Note_on_c, 9, 64, 36
5, 37289, Note_on_c, 9, 64, 0
5, 37290, Note_on_c, 9, 42, 0
5, 37320, Note_on_c, 9, 38, 114
5, 37320, Note_on_c, 9, 42, 113
5, 37320, Note_on_c, 9, 62, 47
5, 37320, Note_on_c, 9, 54, 127
5, 37349, Note_on_c, 9, 54, 0
5, 37349, Note_on_c, 9, 62, 0
5, 37350, Note_on_c, 9, 42, 0
5, 37350, Note_on_c, 9, 38, 0
5, 37380, Note_on_c, 9, 42, 112
5, 37380, Note_on_c, 9, 64, 43
5, 37409, Note_on_c, 9, 64, 0
5, 37410, Note_on_c, 9, 42, 0
5, 37440, Note_on_c, 9, 35, 111
5, 37440, Note_on_c, 9, 42, 115
5, 37440, Note_on_c, 9, 64, 43
5, 37469, Note_on_c, 9, 64, 0
5, 37470, Note_on_c, 9, 42, 0
5, 37470, Note_on_c, 9, 35, 0
5, 37500, Note_on_c, 9, 42, 115
5, 37500, Note_on_c, 9, 64, 29
5, 37529, Note_on_c, 9, 64, 0
5, 37530, Note_on_c, 9, 42, 0
5, 37560, Note_on_c, 9, 38, 104
5, 37560, Note_on_c, 9, 42, 110
5, 37560, Note_on_c, 9, 62, 40
5, 37560, Note_on_c, 9, 54, 127
5, 37589, Note_on_c, 9, 54, 0
5, 37589, Note_on_c, 9, 62, 0
5, 37590, Note_on_c, 9, 42, 0
5, 37590, Note_on_c, 9, 38, 0
5, 37620, Note_on_c, 9, 35, 109
5, 37620, Note_on_c, 9, 42, 110
5, 37620, Note_on_c, 9, 64, 41
5, 37649, Note_on_c, 9, 64, 0
5, 37650, Note_on_c, 9, 42, 0
5, 37650, Note_on_c, 9, 35, 0
5, 37680, Note_on_c, 9, 35, 117
5, 37680, Note_on_c, 9, 42, 113
5, 37680, Note_on_c, 9, 64, 46
5, 37709, Note_on_c, 9, 64, 0
5, 37710, Note_on_c, 9, 42, 0
5, 37710, Note_on_c, 9, 35, 0
5, 37740, Note_on_c, 9, 42, 118
5, 37740, Note_on_c, 9, 64, 42
5, 37769, Note_on_c, 9, 64, 0
5, 37770, Note_on_c, 9, 42, 0
5, 37800, Note_on_c, 9, 38, 111
5, 37800, Note_on_c, 9, 42, 110
5, 37800, Note_on_c, 9, 62, 41
5, 37800, Note_on_c, 9, 54, 127
5, 37829, Note_on_c, 9, 54, 0
5, 37829, Note_on_c, 9, 62, 0
5, 37830, Note_on_c, 9, 42, 0
5, 37830, Note_on_c, 9, 38, 0
5, 37860, Note_on_c, 9, 46, 107
5, 37860, Note_on_c, 9, 64, 39
5, 37889, Note_on_c, 9, 64, 0
5, 37890, Note_on_c, 9, 46, 0
5, 37920, Note_on_c, 9, 35, 110
5, 37920, Note_on_c, 9, 42, 109
5, 37920, Note_on_c, 9, 64, 29
5, 37949, Note_on_c, 9, 64, 0
5, 37950, Note_on_c, 9, 42, 0
5, 37950, Note_on_c, 9, 35, 0
5, 37980, Note_on_c, 9, 42, 108
5, 37980, Note_on_c, 9, 64, 29
5, 38009, Note_on_c, 9, 64, 0
5, 38010, Note_on_c, 9, 42, 0
5, 38040, Note_on_c, 9, 38, 107
5, 38040, Note_on_c, 9, 42, 110
5, 38040, Note_on_c, 9, 62, 32
5, 38040, Note_on_c, 9, 54, 127
5, 38069, Note_on_c, 9, 54, 0
5, 38069, Note_on_c, 9, 62, 0
5, 38070, Note_on_c, 9, 42, 0
5, 38070, Note_on_c, 9, 38, 0
5, 38100, Note_on_c, 9, 35, 111
5, 38100, Note_on_c, 9, 42, 104
5, 38100, Note_on_c, 9, 64, 29
5, 38129, Note_on_c, 9, 64, 0
5, 38130, Note_on_c, 9, 42, 0
5, 38130, Note_on_c, 9, 35, 0
5, 38160, Note_on_c, 9, 35, 111
5, 38160, Note_on_c, 9, 42, 110
5, 38160, Note_on_c, 9, 64, 31
5, 38189, Note_on_c, 9, 64, 0
5, 38190, Note_on_c, 9, 42, 0
5, 38190, Note_on_c, 9, 35, 0
5, 38220, Note_on_c, 9, 42, 106
5, 38220, Note_on_c, 9, 64, 36
5, 38249, Note_on_c, 9, 64, 0
5, 38250, Note_on_c, 9, 42, 0
5, 38280, Note_on_c, 9, 38, 114
5, 38280, Note_on_c, 9, 42, 113
5, 38280, Note_on_c, 9, 62, 47
5, 38280, Note_on_c, 9, 54, 127
5, 38309, Note_on_c, 9, 54, 0
5, 38309, Note_on_c, 9, 62, 0
5, 38310, Note_on_c, 9, 42, 0
5, 38310, Note_on_c, 9, 38, 0
5, 38340, Note_on_c, 9, 42, 112
5, 38340, Note_on_c, 9, 64, 43
5, 38369, Note_on_c, 9, 64, 0
5, 38370, Note_on_c, 9, 42, 0
5, 38400, Note_on_c, 9, 35, 111
5, 38400, Note_on_c, 9, 42, 115
5, 38400, Note_on_c, 9, 64, 43
5, 38403, Control_c, 9, 99, 24
5, 38404, Control_c, 9, 98, 66
5, 38404, Control_c, 9, 6, 57
5, 38429, Note_on_c, 9, 64, 0
5, 38430, Note_on_c, 9, 42, 0
5, 38430, Note_on_c, 9, 35, 0
5, 38460, Note_on_c, 9, 42, 115
5, 38460, Note_on_c, 9, 64, 29
5, 38489, Note_on_c, 9, 64, 0
5, 38490, Note_on_c, 9, 42, 0
5, 38520, Note_on_c, 9, 38, 104
5, 38520, Note_on_c, 9, 42, 110
5, 38520, Note_on_c, 9, 62, 40
5, 38520, Note_on_c, 9, 54, 127
5, 38549, Note_on_c, 9, 54, 0
5, 38549, Note_on_c, 9, 62, 0
5, 38550, Note_on_c, 9, 42, 0
5, 38550, Note_on_c, 9, 38, 0
5, 38580, Note_on_c, 9, 35, 109
5, 38580, Note_on_c, 9, 42, 110
5, 38580, Note_on_c, 9, 64, 41
5, 38609, Note_on_c, 9, 64, 0
5, 38610, Note_on_c, 9, 42, 0
5, 38610, Note_on_c, 9, 35, 0
5, 38640, Note_on_c, 9, 35, 117
5, 38640, Note_on_c, 9, 42, 113
5, 38640, Note_on_c, 9, 64, 46
5, 38669, Note_on_c, 9, 64, 0
5, 38670, Note_on_c, 9, 42, 0
5, 38670, Note_on_c, 9, 35, 0
5, 38700, Note_on_c, 9, 42, 118
5, 38700, Note_on_c, 9, 64, 42
5, 38729, Note_on_c, 9, 64, 0
5, 38730, Note_on_c, 9, 42, 0
5, 38760, Note_on_c, 9, 38, 111
5, 38760, Note_on_c, 9, 42, 110
5, 38760, Note_on_c, 9, 62, 41
5, 38760, Note_on_c, 9, 54, 127
5, 38789, Note_on_c, 9, 54, 0
5, 38789, Note_on_c, 9, 62, 0
5, 38790, Note_on_c, 9, 42, 0
5, 38790, Note_on_c, 9, 38, 0
5, 38820, Note_on_c, 9, 46, 107
5, 38820, Note_on_c, 9, 64, 39
5, 38849, Note_on_c, 9, 64, 0
5, 38850, Note_on_c, 9, 46, 0
5, 38880, Note_on_c, 9, 35, 110
5, 38880, Note_on_c, 9, 42, 109
5, 38880, Note_on_c, 9, 64, 29
5, 38909, Note_on_c, 9, 64, 0
5, 38910, Note_on_c, 9, 42, 0
5, 38910, Note_on_c, 9, 35, 0
5, 38940, Note_on_c, 9, 42, 108
5, 38940, Note_on_c, 9, 64, 29
5, 38969, Note_on_c, 9, 64, 0
5, 38970, Note_on_c, 9, 42, 0
5, 39000, Note_on_c, 9, 38, 107
5, 39000, Note_on_c, 9, 42, 110
5, 39000, Note_on_c, 9, 62, 32
5, 39000, Note_on_c, 9, 54, 127
5, 39000, Note_on_c, 9, 66, 100
5, 39000, Note_on_c, 9, 87, 76
5, 39029, Note_on_c, 9, 54, 0
5, 39029, Note_on_c, 9, 62, 0
5, 39030, Note_on_c, 9, 66, 0
5, 39030, Note_on_c, 9, 38, 0
5, 39030, Note_on_c, 9, 87, 0
5, 39030, Note_on_c, 9, 42, 0
5, 39060, Note_on_c, 9, 35, 111
5, 39060, Note_on_c, 9, 42, 104
5, 39060, Note_on_c, 9, 64, 29
5, 39089, Note_on_c, 9, 64, 0
5, 39090, Note_on_c, 9, 42, 0
5, 39090, Note_on_c, 9, 35, 0
5, 39120, Note_on_c, 9, 35, 111
5, 39120, Note_on_c, 9, 64, 31
5, 39120, Note_on_c, 9, 46, 100
5, 39149, Note_on_c, 9, 64, 0
5, 39150, Note_on_c, 9, 46, 0
5, 39150, Note_on_c, 9, 35, 0
5, 39180, Note_on_c, 9, 42, 106
5, 39180, Note_on_c, 9, 64, 36
5, 39209, Note_on_c, 9, 64, 0
5, 39210, Note_on_c, 9, 42, 0
5, 39240, Note_on_c, 9, 38, 114
5, 39240, Note_on_c, 9, 42, 113
5, 39240, Note_on_c, 9, 62, 47
5, 39240, Note_on_c, 9, 54, 127
5, 39240, Note_on_c, 9, 66, 100
5, 39240, Note_on_c, 9, 87, 76
5, 39269, Note_on_c, 9, 54, 0
5, 39269, Note_on_c, 9, 62, 0
5, 39270, Note_on_c, 9, 66, 0
5, 39270, Note_on_c, 9, 38, 0
5, 39270, Note_on_c, 9, 87, 0
5, 39270, Note_on_c, 9, 42, 0
5, 39300, Note_on_c, 9, 42, 112
5, 39300, Note_on_c, 9, 64, 43
5, 39300, Note_on_c, 9, 35, 100
5, 39329, Note_on_c, 9, 64, 0
5, 39330, Note_on_c, 9, 35, 0
5, 39330, Note_on_c, 9, 42, 0
5, 39360, Note_on_c, 9, 42, 115
5, 39360, Note_on_c, 9, 64, 43
5, 39389, Note_on_c, 9, 64, 0
5, 39390, Note_on_c, 9, 42, 0
5, 39420, Note_on_c, 9, 42, 115
5, 39420, Note_on_c, 9, 64, 29
5, 39449, Note_on_c, 9, 64, 0
5, 39450, Note_on_c, 9, 42, 0
5, 39480, Note_on_c, 9, 38, 104
5, 39480, Note_on_c, 9, 42, 110
5, 39480, Note_on_c, 9, 62, 40
5, 39480, Note_on_c, 9, 54, 127
5, 39480, Note_on_c, 9, 66, 100
5, 39480, Note_on_c, 9, 87, 76
5, 39509, Note_on_c, 9, 54, 0
5, 39509, Note_on_c, 9, 62, 0
5, 39510, Note_on_c, 9, 66, 0
5, 39510, Note_on_c, 9, 38, 0
5, 39510, Note_on_c, 9, 87, 0
5, 39510, Note_on_c, 9, 42, 0
5, 39540, Note_on_c, 9, 35, 109
5, 39540, Note_on_c, 9, 42, 110
5, 39540, Note_on_c, 9, 64, 41
5, 39569, Note_on_c, 9, 64, 0
5, 39570, Note_on_c, 9, 42, 0
5, 39570, Note_on_c, 9, 35, 0
5, 39600, Note_on_c, 9, 35, 117
5, 39600, Note_on_c, 9, 42, 113
5, 39600, Note_on_c, 9, 64, 46
5, 39629, Note_on_c, 9, 64, 0
5, 39630, Note_on_c, 9, 42, 0
5, 39630, Note_on_c, 9, 35, 0
5, 39660, Note_on_c, 9, 42, 118
5, 39660, Note_on_c, 9, 64, 42
5, 39689, Note_on_c, 9, 64, 0
5, 39690, Note_on_c, 9, 42, 0
5, 39720, Note_on_c, 9, 38, 111
5, 39720, Note_on_c, 9, 42, 110
5, 39720, Note_on_c, 9, 62, 41
5, 39720, Note_on_c, 9, 54, 127
5, 39720, Note_on_c, 9, 66, 100
5, 39720, Note_on_c, 9, 87, 76
5, 39749, Note_on_c, 9, 54, 0
5, 39749, Note_on_c, 9, 62, 0
5, 39750, Note_on_c, 9, 66, 0
5, 39750, Note_on_c, 9, 38, 0
5, 39750, Note_on_c, 9, 87, 0
5, 39750, Note_on_c, 9, 42, 0
5, 39780, Note_on_c, 9, 64, 39
5, 39780, Note_on_c, 9, 42, 100
5, 39809, Note_on_c, 9, 64, 0
5, 39810, Note_on_c, 9, 42, 0
5, 39840, Note_on_c, 9, 35, 110
5, 39840, Note_on_c, 9, 42, 109
5, 39840, Note_on_c, 9, 64, 29
5, 39869, Note_on_c, 9, 64, 0
5, 39870, Note_on_c, 9, 42, 0
5, 39870, Note_on_c, 9, 35, 0
5, 39900, Note_on_c, 9, 42, 108
5, 39900, Note_on_c, 9, 64, 29
5, 39929, Note_on_c, 9, 64, 0
5, 39930, Note_on_c, 9, 42, 0
5, 39960, Note_on_c, 9, 38, 107
5, 39960, Note_on_c, 9, 42, 110
5, 39960, Note_on_c, 9, 62, 32
5, 39960, Note_on_c, 9, 54, 127
5, 39960, Note_on_c, 9, 66, 100
5, 39960, Note_on_c, 9, 87, 76
5, 39989, Note_on_c, 9, 54, 0
5, 39989, Note_on_c, 9, 62, 0
5, 39990, Note_on_c, 9, 66, 0
5, 39990, Note_on_c, 9, 38, 0
5, 39990, Note_on_c, 9, 87, 0
5, 39990, Note_on_c, 9, 42, 0
5, 40020, Note_on_c, 9, 35, 111
5, 40020, Note_on_c, 9, 42, 104
5, 40020, Note_on_c, 9, 64, 29
5, 40049, Note_on_c, 9, 64, 0
5, 40050, Note_on_c, 9, 42, 0
5, 40050, Note_on_c, 9, 35, 0
5, 40080, Note_on_c, 9, 35, 111
5, 40080, Note_on_c, 9, 64, 31
5, 40080, Note_on_c, 9, 46, 100
5, 40109, Note_on_c, 9, 64, 0
5, 40110, Note_on_c, 9, 46, 0
5, 40110, Note_on_c, 9, 35, 0
5, 40140, Note_on_c, 9, 42, 106
5, 40140, Note_on_c, 9, 64, 36
5, 40169, Note_on_c, 9, 64, 0
5, 40170, Note_on_c, 9, 42, 0
5, 40200, Note_on_c, 9, 38, 114
5, 40200, Note_on_c, 9, 42, 113
5, 40200, Note_on_c, 9, 62, 47
5, 40200, Note_on_c, 9, 54, 127
5, 40200, Note_on_c, 9, 66, 100
5, 40200, Note_on_c, 9, 87, 76
5, 40229, Note_on_c, 9, 54, 0
5, 40229, Note_on_c, 9, 62, 0
5, 40230, Note_on_c, 9, 66, 0
5, 40230, Note_on_c, 9, 38, 0
5, 40230, Note_on_c, 9, 87, 0
5, 40230, Note_on_c, 9, 42, 0
5, 40260, Note_on_c, 9, 42, 112
5, 40260, Note_on_c, 9, 64, 43
5, 40260, Note_on_c, 9, 35, 100
5, 40289, Note_on_c, 9, 64, 0
5, 40290, Note_on_c, 9, 35, 0
5, 40290, Note_on_c, 9, 42, 0
5, 40320, Note_on_c, 9, 42, 115
5, 40320, Note_on_c, 9, 64, 43
5, 40349, Note_on_c, 9, 64, 0
5, 40350, Note_on_c, 9, 42, 0
5, 40380, Note_on_c, 9, 42, 115
5, 40380, Note_on_c, 9, 64, 29
5, 40409, Note_on_c, 9, 64, 0
5, 40410, Note_on_c, 9, 42, 0
5, 40440, Note_on_c, 9, 38, 104
5, 40440, Note_on_c, 9, 42, 110
5, 40440, Note_on_c, 9, 62, 40
5, 40440, Note_on_c, 9, 54, 127
5, 40440, Note_on_c, 9, 66, 100
5, 40440, Note_on_c, 9, 87, 76
5, 40469, Note_on_c, 9, 54, 0
5, 40469, Note_on_c, 9, 62, 0
5, 40470, Note_on_c, 9, 66, 0
5, 40470, Note_on_c, 9, 38, 0
5, 40470, Note_on_c, 9, 87, 0
5, 40470, Note_on_c, 9, 42, 0
5, 40500, Note_on_c, 9, 35, 109
5, 40500, Note_on_c, 9, 42, 110
5, 40500, Note_on_c, 9, 64, 41
5, 40529, Note_on_c, 9, 64, 0
5, 40530, Note_on_c, 9, 42, 0
5, 40530, Note_on_c, 9, 35, 0
5, 40560, Note_on_c, 9, 35, 117
5, 40560, Note_on_c, 9, 42, 113
5, 40560, Note_on_c, 9, 64, 46
5, 40589, Note_on_c, 9, 64, 0
5, 40590, Note_on_c, 9, 42, 0
5, 40590, Note_on_c, 9, 35, 0
5, 40620, Note_on_c, 9, 42, 118
5, 40620, Note_on_c, 9, 64, 42
5, 40649, Note_on_c, 9, 64, 0
5, 40650, Note_on_c, 9, 42, 0
5, 40680, Note_on_c, 9, 38, 111
5, 40680, Note_on_c, 9, 42, 110
5, 40680, Note_on_c, 9, 62, 41
5, 40680, Note_on_c, 9, 54, 127
5, 40680, Note_on_c, 9, 66, 100
5, 40680, Note_on_c, 9, 87, 76
5, 40709, Note_on_c, 9, 54, 0
5, 40709, Note_on_c, 9, 62, 0
5, 40710, Note_on_c, 9, 66, 0
5, 40710, Note_on_c, 9, 38, 0
5, 40710, Note_on_c, 9, 87, 0
5, 40710, Note_on_c, 9, 42, 0
5, 40740, Note_on_c, 9, 64, 39
5, 40740, Note_on_c, 9, 42, 100
5, 40769, Note_on_c, 9, 64, 0
5, 40770, Note_on_c, 9, 42, 0
5, 40800, Note_on_c, 9, 35, 110
5, 40800, Note_on_c, 9, 42, 109
5, 40800, Note_on_c, 9, 64, 29
5, 40829, Note_on_c, 9, 64, 0
5, 40830, Note_on_c, 9, 42, 0
5, 40830, Note_on_c, 9, 35, 0
5, 40860, Note_on_c, 9, 42, 108
5, 40860, Note_on_c, 9, 64, 29
5, 40889, Note_on_c, 9, 64, 0
5, 40890, Note_on_c, 9, 42, 0
5, 40920, Note_on_c, 9, 38, 107
5, 40920, Note_on_c, 9, 42, 110
5, 40920, Note_on_c, 9, 62, 32
5, 40920, Note_on_c, 9, 54, 127
5, 40920, Note_on_c, 9, 66, 100
5, 40920, Note_on_c, 9, 87, 76
5, 40949, Note_on_c, 9, 54, 0
5, 40949, Note_on_c, 9, 62, 0
5, 40950, Note_on_c, 9, 66, 0
5, 40950, Note_on_c, 9, 38, 0
5, 40950, Note_on_c, 9, 87, 0
5, 40950, Note_on_c, 9, 42, 0
5, 40980, Note_on_c, 9, 35, 111
5, 40980, Note_on_c, 9, 42, 104
5, 40980, Note_on_c, 9, 64, 29
5, 41009, Note_on_c, 9, 64, 0
5, 41010, Note_on_c, 9, 42, 0
5, 41010, Note_on_c, 9, 35, 0
5, 41040, Note_on_c, 9, 35, 111
5, 41040, Note_on_c, 9, 64, 31
5, 41040, Note_on_c, 9, 46, 100
5, 41069, Note_on_c, 9, 64, 0
5, 41070, Note_on_c, 9, 46, 0
5, 41070, Note_on_c, 9, 35, 0
5, 41100, Note_on_c, 9, 42, 106
5, 41100, Note_on_c, 9, 64, 36
5, 41129, Note_on_c, 9, 64, 0
5, 41130, Note_on_c, 9, 42, 0
5, 41160, Note_on_c, 9, 38, 114
5, 41160, Note_on_c, 9, 42, 113
5, 41160, Note_on_c, 9, 62, 47
5, 41160, Note_on_c, 9, 54, 127
5, 41160, Note_on_c, 9, 66, 100
5, 41160, Note_on_c, 9, 87, 76
5, 41189, Note_on_c, 9, 54, 0
5, 41189, Note_on_c, 9, 62, 0
5, 41190, Note_on_c, 9, 66, 0
5, 41190, Note_on_c, 9, 38, 0
5, 41190, Note_on_c, 9, 87, 0
5, 41190, Note_on_c, 9, 42, 0
5, 41220, Note_on_c, 9, 42, 112
5, 41220, Note_on_c, 9, 64, 43
5, 41220, Note_on_c, 9, 35, 100
5, 41249, Note_on_c, 9, 64, 0
5, 41250, Note_on_c, 9, 35, 0
5, 41250, Note_on_c, 9, 42, 0
5, 41280, Note_on_c, 9, 42, 115
5, 41280, Note_on_c, 9, 64, 43
5, 41309, Note_on_c, 9, 64, 0
5, 41310, Note_on_c, 9, 42, 0
5, 41340, Note_on_c, 9, 42, 115
5, 41340, Note_on_c, 9, 64, 29
5, 41369, Note_on_c, 9, 64, 0
5, 41370, Note_on_c, 9, 42, 0
5, 41400, Note_on_c, 9, 38, 104
5, 41400, Note_on_c, 9, 42, 110
5, 41400, Note_on_c, 9, 62, 40
5, 41400, Note_on_c, 9, 54, 127
5, 41400, Note_on_c, 9, 66, 100
5, 41400, Note_on_c, 9, 87, 76
5, 41429, Note_on_c, 9, 54, 0
5, 41429, Note_on_c, 9, 62, 0
5, 41430, Note_on_c, 9, 66, 0
5, 41430, Note_on_c, 9, 38, 0
5, 41430, Note_on_c, 9, 87, 0
5, 41430, Note_on_c, 9, 42, 0
5, 41460, Note_on_c, 9, 35, 109
5, 41460, Note_on_c, 9, 42, 110
5, 41460, Note_on_c, 9, 64, 41
5, 41489, Note_on_c, 9, 64, 0
5, 41490, Note_on_c, 9, 42, 0
5, 41490, Note_on_c, 9, 35, 0
5, 41520, Note_on_c, 9, 35, 117
5, 41520, Note_on_c, 9, 42, 113
5, 41520, Note_on_c, 9, 64, 46
5, 41549, Note_on_c, 9, 64, 0
5, 41550, Note_on_c, 9, 42, 0
5, 41550, Note_on_c, 9, 35, 0
5, 41580, Note_on_c, 9, 42, 118
5, 41580, Note_on_c, 9, 64, 42
5, 41609, Note_on_c, 9, 64, 0
5, 41610, Note_on_c, 9, 42, 0
5, 41640, Note_on_c, 9, 38, 111
5, 41640, Note_on_c, 9, 42, 110
5, 41640, Note_on_c, 9, 62, 41
5, 41640, Note_on_c, 9, 54, 127
5, 41640, Note_on_c, 9, 66, 100
5, 41640, Note_on_c, 9, 87, 76
5, 41669, Note_on_c, 9, 54, 0
5, 41669, Note_on_c, 9, 62, 0
5, 41670, Note_on_c, 9, 66, 0
5, 41670, Note_on_c, 9, 38, 0
5, 41670, Note_on_c, 9, 87, 0
5, 41670, Note_on_c, 9, 42, 0
5, 41700, Note_on_c, 9, 64, 39
5, 41700, Note_on_c, 9, 42, 100
5, 41729, Note_on_c, 9, 64, 0
5, 41730, Note_on_c, 9, 42, 0
5, 41760, Note_on_c, 9, 35, 124
5, 41760, Note_on_c, 9, 57, 124
5, 41763, Control_c, 9, 99, 24
5, 41764, Control_c, 9, 98, 40
5, 41764, Control_c, 9, 6, 68
5, 41790, Note_on_c, 9, 57, 0
5, 41790, Note_on_c, 9, 35, 0
5, 42600, Note_on_c, 9, 49, 126
5, 42600, Note_on_c, 9, 54, 126
5, 42600, Note_on_c, 9, 40, 126
5, 42630, Note_on_c, 9, 40, 0
5, 42630, Note_on_c, 9, 54, 0
5, 42630, Note_on_c, 9, 49, 0
5, 42720, Note_on_c, 9, 35, 110
5, 42720, Note_on_c, 9, 42, 109
5, 42720, Note_on_c, 9, 64, 29
5, 42749, Note_on_c, 9, 64, 0
5, 42750, Note_on_c, 9, 42, 0
5, 42750, Note_on_c, 9, 35, 0
5, 42780, Note_on_c, 9, 42, 108
5, 42780, Note_on_c, 9, 64, 29
5, 42809, Note_on_c, 9, 64, 0
5, 42810, Note_on_c, 9, 42, 0
5, 42840, Note_on_c, 9, 38, 107
5, 42840, Note_on_c, 9, 42, 110
5, 42840, Note_on_c, 9, 62, 32
5, 42840, Note_on_c, 9, 54, 127
5, 42869, Note_on_c, 9, 54, 0
5, 42869, Note_on_c, 9, 62, 0
5, 42870, Note_on_c, 9, 42, 0
5, 42870, Note_on_c, 9, 38, 0
5, 42900, Note_on_c, 9, 35, 111
5, 42900, Note_on_c, 9, 42, 104
5, 42900, Note_on_c, 9, 64, 29
5, 42929, Note_on_c, 9, 64, 0
5, 42930, Note_on_c, 9, 42, 0
5, 42930, Note_on_c, 9, 35, 0
5, 42960, Note_on_c, 9, 35, 111
5, 42960, Note_on_c, 9, 42, 110
5, 42960, Note_on_c, 9, 64, 31
5, 42989, Note_on_c, 9, 64, 0
5, 42990, Note_on_c, 9, 42, 0
5, 42990, Note_on_c, 9, 35, 0
5, 43020, Note_on_c, 9, 42, 106
5, 43020, Note_on_c, 9, 64, 36
5, 43049, Note_on_c, 9, 64, 0
5, 43050, Note_on_c, 9, 42, 0
5, 43080, Note_on_c, 9, 38, 114
5, 43080, Note_on_c, 9, 42, 113
5, 43080, Note_on_c, 9, 62, 47
5, 43080, Note_on_c, 9, 54, 127
5, 43109, Note_on_c, 9, 54, 0
5, 43109, Note_on_c, 9, 62, 0
5, 43110, Note_on_c, 9, 42, 0
5, 43110, Note_on_c, 9, 38, 0
5, 43140, Note_on_c, 9, 42, 112
5, 43140, Note_on_c, 9, 64, 43
5, 43169, Note_on_c, 9, 64, 0
5, 43170, Note_on_c, 9, 42, 0
5, 43200, Note_on_c, 9, 35, 111
5, 43200, Note_on_c, 9, 42, 115
5, 43200, Note_on_c, 9, 64, 43
5, 43229, Note_on_c, 9, 64, 0
5, 43230, Note_on_c, 9, 42, 0
5, 43230, Note_on_c, 9, 35, 0
5, 43260, Note_on_c, 9, 42, 115
5, 43260, Note_on_c, 9, 64, 29
5, 43289, Note_on_c, 9, 64, 0
5, 43290, Note_on_c, 9, 42, 0
5, 43320, Note_on_c, 9, 38, 104
5, 43320, Note_on_c, 9, 42, 110
5, 43320, Note_on_c, 9, 62, 40
5, 43320, Note_on_c, 9, 54, 127
5, 43349, Note_on_c, 9, 54, 0
5, 43349, Note_on_c, 9, 62, 0
5, 43350, Note_on_c, 9, 42, 0
5, 43350, Note_on_c, 9, 38, 0
5, 43380, Note_on_c, 9, 35, 109
5, 43380, Note_on_c, 9, 42, 110
5, 43380, Note_on_c, 9, 64, 41
5, 43409, Note_on_c, 9, 64, 0
5, 43410, Note_on_c, 9, 42, 0
5, 43410, Note_on_c, 9, 35, 0
5, 43440, Note_on_c, 9, 35, 117
5, 43440, Note_on_c, 9, 42, 113
5, 43440, Note_on_c, 9, 64, 46
5, 43469, Note_on_c, 9, 64, 0
5, 43470, Note_on_c, 9, 42, 0
5, 43470, Note_on_c, 9, 35, 0
5, 43500, Note_on_c, 9, 42, 118
5, 43500, Note_on_c, 9, 64, 42
5, 43529, Note_on_c, 9, 64, 0
5, 43530, Note_on_c, 9, 42, 0
5, 43560, Note_on_c, 9, 38, 111
5, 43560, Note_on_c, 9, 42, 110
5, 43560, Note_on_c, 9, 62, 41
5, 43560, Note_on_c, 9, 54, 127
5, 43589, Note_on_c, 9, 54, 0
5, 43589, Note_on_c, 9, 62, 0
5, 43590, Note_on_c, 9, 42, 0
5, 43590, Note_on_c, 9, 38, 0
5, 43620, Note_on_c, 9, 46, 107
5, 43620, Note_on_c, 9, 64, 39
5, 43649, Note_on_c, 9, 64, 0
5, 43650, Note_on_c, 9, 46, 0
5, 43680, Note_on_c, 9, 35, 110
5, 43680, Note_on_c, 9, 42, 109
5, 43680, Note_on_c, 9, 64, 29
5, 43709, Note_on_c, 9, 64, 0
5, 43710, Note_on_c, 9, 42, 0
5, 43710, Note_on_c, 9, 35, 0
5, 43740, Note_on_c, 9, 42, 108
5, 43740, Note_on_c, 9, 64, 29
5, 43769, Note_on_c, 9, 64, 0
5, 43770, Note_on_c, 9, 42, 0
5, 43800, Note_on_c, 9, 38, 107
5, 43800, Note_on_c, 9, 42, 110
5, 43800, Note_on_c, 9, 62, 32
5, 43800, Note_on_c, 9, 54, 127
5, 43829, Note_on_c, 9, 54, 0
5, 43829, Note_on_c, 9, 62, 0
5, 43830, Note_on_c, 9, 42, 0
5, 43830, Note_on_c, 9, 38, 0
5, 43860, Note_on_c, 9, 35, 111
5, 43860, Note_on_c, 9, 42, 104
5, 43860, Note_on_c, 9, 64, 29
5, 43889, Note_on_c, 9, 64, 0
5, 43890, Note_on_c, 9, 42, 0
5, 43890, Note_on_c, 9, 35, 0
5, 43920, Note_on_c, 9, 35, 111
5, 43920, Note_on_c, 9, 42, 110
5, 43920, Note_on_c, 9, 64, 31
5, 43949, Note_on_c, 9, 64, 0
5, 43950, Note_on_c, 9, 42, 0
5, 43950, Note_on_c, 9, 35, 0
5, 43980, Note_on_c, 9, 42, 106
5, 43980, Note_on_c, 9, 64, 36
5, 44009, Note_on_c, 9, 64, 0
5, 44010, Note_on_c, 9, 42, 0
5, 44040, Note_on_c, 9, 38, 114
5, 44040, Note_on_c, 9, 42, 113
5, 44040, Note_on_c, 9, 62, 47
5, 44040, Note_on_c, 9, 54, 127
5, 44069, Note_on_c, 9, 54, 0
5, 44069, Note_on_c, 9, 62, 0
5, 44070, Note_on_c, 9, 42, 0
5, 44070, Note_on_c, 9, 38, 0
5, 44100, Note_on_c, 9, 42, 112
5, 44100, Note_on_c, 9, 64, 43
5, 44129, Note_on_c, 9, 64, 0
5, 44130, Note_on_c, 9, 42, 0
5, 44160, Note_on_c, 9, 35, 111
5, 44160, Note_on_c, 9, 42, 115
5, 44160, Note_on_c, 9, 64, 43
5, 44189, Note_on_c, 9, 64, 0
5, 44190, Note_on_c, 9, 42, 0
5, 44190, Note_on_c, 9, 35, 0
5, 44220, Note_on_c, 9, 42, 115
5, 44220, Note_on_c, 9, 64, 29
5, 44249, Note_on_c, 9, 64, 0
5, 44250, Note_on_c, 9, 42, 0
5, 44280, Note_on_c, 9, 38, 104
5, 44280, Note_on_c, 9, 42, 110
5, 44280, Note_on_c, 9, 62, 40
5, 44280, Note_on_c, 9, 54, 127
5, 44309, Note_on_c, 9, 54, 0
5, 44309, Note_on_c, 9, 62, 0
5, 44310, Note_on_c, 9, 42, 0
5, 44310, Note_on_c, 9, 38, 0
5, 44340, Note_on_c, 9, 35, 109
5, 44340, Note_on_c, 9, 42, 110
5, 44340, Note_on_c, 9, 64, 41
5, 44369, Note_on_c, 9, 64, 0
5, 44370, Note_on_c, 9, 42, 0
5, 44370, Note_on_c, 9, 35, 0
5, 44400, Note_on_c, 9, 35, 117
5, 44400, Note_on_c, 9, 42, 113
5, 44400, Note_on_c, 9, 64, 46
5, 44429, Note_on_c, 9, 64, 0
5, 44430, Note_on_c, 9, 42, 0
5, 44430, Note_on_c, 9, 35, 0
5, 44460, Note_on_c, 9, 42, 118
5, 44460, Note_on_c, 9, 64, 42
5, 44489, Note_on_c, 9, 64, 0
5, 44490, Note_on_c, 9, 42, 0
5, 44490, Note_on_c, 9, 48, 111
5, 44506, Note_on_c, 9, 48, 0
5, 44520, Note_on_c, 9, 38, 111
5, 44520, Note_on_c, 9, 42, 110
5, 44520, Note_on_c, 9, 62, 41
5, 44520, Note_on_c, 9, 54, 127
5, 44520, Note_on_c, 9, 48, 87
5, 44532, Note_on_c, 9, 48, 0
5, 44549, Note_on_c, 9, 62, 0
5, 44549, Note_on_c, 9, 54, 0
5, 44550, Note_on_c, 9, 42, 0
5, 44550, Note_on_c, 9, 38, 0
5, 44580, Note_on_c, 9, 46, 107
5, 44580, Note_on_c, 9, 64, 39
5, 44580, Note_on_c, 9, 48, 111
5, 44592, Note_on_c, 9, 48, 0
5, 44609, Note_on_c, 9, 64, 0
5, 44610, Note_on_c, 9, 46, 0
5, 44640, Note_on_c, 9, 35, 110
5, 44640, Note_on_c, 9, 42, 109
5, 44640, Note_on_c, 9, 64, 29
5, 44640, Note_on_c, 9, 49, 111
5, 44652, Note_on_c, 9, 49, 0
5, 44669, Note_on_c, 9, 64, 0
5, 44670, Note_on_c, 9, 42, 0
5, 44670, Note_on_c, 9, 35, 0
5, 44700, Note_on_c, 9, 42, 108
5, 44700, Note_on_c, 9, 64, 29
5, 44729, Note_on_c, 9, 64, 0
5, 44730, Note_on_c, 9, 42, 0
5, 44760, Note_on_c, 9, 38, 107
5, 44760, Note_on_c, 9, 42, 110
5, 44760, Note_on_c, 9, 62, 32
5, 44760, Note_on_c, 9, 54, 127
5, 44789, Note_on_c, 9, 54, 0
5, 44789, Note_on_c, 9, 62, 0
5, 44790, Note_on_c, 9, 42, 0
5, 44790, Note_on_c, 9, 38, 0
5, 44820, Note_on_c, 9, 35, 111
5, 44820, Note_on_c, 9, 42, 104
5, 44820, Note_on_c, 9, 64, 29
5, 44849, Note_on_c, 9, 64, 0
5, 44850, Note_on_c, 9, 42, 0
5, 44850, Note_on_c, 9, 35, 0
5, 44880, Note_on_c, 9, 35, 111
5, 44880, Note_on_c, 9, 42, 110
5, 44880, Note_on_c, 9, 64, 31
5, 44909, Note_on_c, 9, 64, 0
5, 44910, Note_on_c, 9, 42, 0
5, 44910, Note_on_c, 9, 35, 0
5, 44940, Note_on_c, 9, 42, 106
5, 44940, Note_on_c, 9, 64, 36
5, 44969, Note_on_c, 9, 64, 0
5, 44970, Note_on_c, 9, 42, 0
5, 45000, Note_on_c, 9, 38, 114
5, 45000, Note_on_c, 9, 42, 113
5, 45000, Note_on_c, 9, 62, 47
5, 45000, Note_on_c, 9, 54, 127
5, 45029, Note_on_c, 9, 54, 0
5, 45029, Note_on_c, 9, 62, 0
5, 45030, Note_on_c, 9, 42, 0
5, 45030, Note_on_c, 9, 38, 0
5, 45060, Note_on_c, 9, 42, 112
5, 45060, Note_on_c, 9, 64, 43
5, 45089, Note_on_c, 9, 64, 0
5, 45090, Note_on_c, 9, 42, 0
5, 45120, Note_on_c, 9, 35, 111
5, 45120, Note_on_c, 9, 42, 115
5, 45120, Note_on_c, 9, 64, 43
5, 45149, Note_on_c, 9, 64, 0
5, 45150, Note_on_c, 9, 42, 0
5, 45150, Note_on_c, 9, 35, 0
5, 45180, Note_on_c, 9, 42, 115
5, 45180, Note_on_c, 9, 64, 29
5, 45209, Note_on_c, 9, 64, 0
5, 45210, Note_on_c, 9, 42, 0
5, 45240, Note_on_c, 9, 38, 104
5, 45240, Note_on_c, 9, 42, 110
5, 45240, Note_on_c, 9, 62, 40
5, 45240, Note_on_c, 9, 54, 127
5, 45269, Note_on_c, 9, 54, 0
5, 45269, Note_on_c, 9, 62, 0
5, 45270, Note_on_c, 9, 42, 0
5, 45270, Note_on_c, 9, 38, 0
5, 45300, Note_on_c, 9, 35, 109
5, 45300, Note_on_c, 9, 42, 110
5, 45300, Note_on_c, 9, 64, 41
5, 45329, Note_on_c, 9, 64, 0
5, 45330, Note_on_c, 9, 42, 0
5, 45330, Note_on_c, 9, 35, 0
5, 45360, Note_on_c, 9, 35, 117
5, 45360, Note_on_c, 9, 42, 113
5, 45360, Note_on_c, 9, 64, 46
5, 45389, Note_on_c, 9, 64, 0
5, 45390, Note_on_c, 9, 42, 0
5, 45390, Note_on_c, 9, 35, 0
5, 45420, Note_on_c, 9, 42, 118
5, 45420, Note_on_c, 9, 64, 42
5, 45449, Note_on_c, 9, 64, 0
5, 45450, Note_on_c, 9, 42, 0
5, 45480, Note_on_c, 9, 38, 111
5, 45480, Note_on_c, 9, 42, 110
5, 45480, Note_on_c, 9, 62, 41
5, 45480, Note_on_c, 9, 54, 127
5, 45509, Note_on_c, 9, 54, 0
5, 45509, Note_on_c, 9, 62, 0
5, 45510, Note_on_c, 9, 42, 0
5, 45510, Note_on_c, 9, 38, 0
5, 45540, Note_on_c, 9, 46, 107
5, 45540, Note_on_c, 9, 64, 39
5, 45569, Note_on_c, 9, 64, 0
5, 45570, Note_on_c, 9, 46, 0
5, 45600, Note_on_c, 9, 35, 110
5, 45600, Note_on_c, 9, 42, 109
5, 45600, Note_on_c, 9, 64, 29
5, 45629, Note_on_c, 9, 64, 0
5, 45630, Note_on_c, 9, 42, 0
5, 45630, Note_on_c, 9, 35, 0
5, 45660, Note_on_c, 9, 42, 108
5, 45660, Note_on_c, 9, 64, 29
5, 45689, Note_on_c, 9, 64, 0
5, 45690, Note_on_c, 9, 42, 0
5, 45720, Note_on_c, 9, 38, 107
5, 45720, Note_on_c, 9, 42, 110
5, 45720, Note_on_c, 9, 62, 32
5, 45720, Note_on_c, 9, 54, 127
5, 45749, Note_on_c, 9, 54, 0
5, 45749, Note_on_c, 9, 62, 0
5, 45750, Note_on_c, 9, 42, 0
5, 45750, Note_on_c, 9, 38, 0
5, 45780, Note_on_c, 9, 35, 111
5, 45780, Note_on_c, 9, 42, 104
5, 45780, Note_on_c, 9, 64, 29
5, 45809, Note_on_c, 9, 64, 0
5, 45810, Note_on_c, 9, 42, 0
5, 45810, Note_on_c, 9, 35, 0
5, 45840, Note_on_c, 9, 35, 111
5, 45840, Note_on_c, 9, 42, 110
5, 45840, Note_on_c, 9, 64, 31
5, 45869, Note_on_c, 9, 64, 0
5, 45870, Note_on_c, 9, 42, 0
5, 45870, Note_on_c, 9, 35, 0
5, 45900, Note_on_c, 9, 42, 106
5, 45900, Note_on_c, 9, 64, 36
5, 45929, Note_on_c, 9, 64, 0
5, 45930, Note_on_c, 9, 42, 0
5, 45960, Note_on_c, 9, 38, 114
5, 45960, Note_on_c, 9, 42, 113
5, 45960, Note_on_c, 9, 62, 47
5, 45960, Note_on_c, 9, 54, 127
5, 45989, Note_on_c, 9, 54, 0
5, 45989, Note_on_c, 9, 62, 0
5, 45990, Note_on_c, 9, 42, 0
5, 45990, Note_on_c, 9, 38, 0
5, 46020, Note_on_c, 9, 42, 112
5, 46020, Note_on_c, 9, 64, 43
5, 46049, Note_on_c, 9, 64, 0
5, 46050, Note_on_c, 9, 42, 0
5, 46080, Note_on_c, 9, 35, 111
5, 46080, Note_on_c, 9, 42, 115
5, 46080, Note_on_c, 9, 64, 43
5, 46109, Note_on_c, 9, 64, 0
5, 46110, Note_on_c, 9, 42, 0
5, 46110, Note_on_c, 9, 35, 0
5, 46140, Note_on_c, 9, 42, 115
5, 46140, Note_on_c, 9, 64, 29
5, 46169, Note_on_c, 9, 64, 0
5, 46170, Note_on_c, 9, 42, 0
5, 46200, Note_on_c, 9, 38, 104
5, 46200, Note_on_c, 9, 42, 110
5, 46200, Note_on_c, 9, 62, 40
5, 46200, Note_on_c, 9, 54, 127
5, 46229, Note_on_c, 9, 54, 0
5, 46229, Note_on_c, 9, 62, 0
5, 46230, Note_on_c, 9, 42, 0
5, 46230, Note_on_c, 9, 38, 0
5, 46260, Note_on_c, 9, 35, 109
5, 46260, Note_on_c, 9, 42, 110
5, 46260, Note_on_c, 9, 64, 41
5, 46289, Note_on_c, 9, 64, 0
5, 46290, Note_on_c, 9, 42, 0
5, 46290, Note_on_c, 9, 35, 0
5, 46320, Note_on_c, 9, 35, 117
5, 46320, Note_on_c, 9, 42, 113
5, 46320, Note_on_c, 9, 64, 46
5, 46349, Note_on_c, 9, 64, 0
5, 46350, Note_on_c, 9, 42, 0
5, 46350, Note_on_c, 9, 35, 0
5, 46380, Note_on_c, 9, 42, 118
5, 46380, Note_on_c, 9, 64, 42
5, 46407, Note_on_c, 9, 43, 115
5, 46409, Note_on_c, 9, 64, 0
5, 46410, Note_on_c, 9, 42, 0
5, 46422, Note_on_c, 9, 43, 0
5, 46436, Note_on_c, 9, 43, 107
5, 46440, Note_on_c, 9, 38, 111
5, 46440, Note_on_c, 9, 42, 110
5, 46440, Note_on_c, 9, 62, 41
5, 46440, Note_on_c, 9, 54, 127
5, 46450, Note_on_c, 9, 43, 0
5, 46469, Note_on_c, 9, 62, 0
5, 46469, Note_on_c, 9, 54, 0
5, 46470, Note_on_c, 9, 42, 0
5, 46470, Note_on_c, 9, 38, 0
5, 46500, Note_on_c, 9, 46, 107
5, 46500, Note_on_c, 9, 64, 39
5, 46503, Note_on_c, 9, 43, 115
5, 46519, Note_on_c, 9, 43, 0
5, 46529, Note_on_c, 9, 64, 0
5, 46530, Note_on_c, 9, 46, 0
5, 46560, Note_on_c, 9, 35, 110
5, 46560, Note_on_c, 9, 42, 109
5, 46560, Note_on_c, 9, 64, 29
5, 46563, Note_on_c, 9, 49, 119
5, 46575, Note_on_c, 9, 49, 0
5, 46589, Note_on_c, 9, 64, 0
5, 46590, Note_on_c, 9, 42, 0
5, 46590, Note_on_c, 9, 35, 0
5, 46620, Note_on_c, 9, 42, 108
5, 46620, Note_on_c, 9, 64, 29
5, 46649, Note_on_c, 9, 64, 0
5, 46650, Note_on_c, 9, 42, 0
5, 46680, Note_on_c, 9, 38, 107
5, 46680, Note_on_c, 9, 42, 110
5, 46680, Note_on_c, 9, 62, 32
5, 46680, Note_on_c, 9, 54, 127
5, 46709, Note_on_c, 9, 54, 0
5, 46709, Note_on_c, 9, 62, 0
5, 46710, Note_on_c, 9, 42, 0
5, 46710, Note_on_c, 9, 38, 0
5, 46740, Note_on_c, 9, 35, 111
5, 46740, Note_on_c, 9, 42, 104
5, 46740, Note_on_c, 9, 64, 29
5, 46769, Note_on_c, 9, 64, 0
5, 46770, Note_on_c, 9, 42, 0
5, 46770, Note_on_c, 9, 35, 0
5, 46800, Note_on_c, 9, 35, 111
5, 46800, Note_on_c, 9, 42, 110
5, 46800, Note_on_c, 9, 64, 31
5, 46829, Note_on_c, 9, 64, 0
5, 46830, Note_on_c, 9, 42, 0
5, 46830, Note_on_c, 9, 35, 0
5, 46860, Note_on_c, 9, 42, 106
5, 46860, Note_on_c, 9, 64, 36
5, 46889, Note_on_c, 9, 64, 0
5, 46890, Note_on_c, 9, 42, 0
5, 46920, Note_on_c, 9, 38, 114
5, 46920, Note_on_c, 9, 42, 113
5, 46920, Note_on_c, 9, 62, 47
5, 46920, Note_on_c, 9, 54, 127
5, 46949, Note_on_c, 9, 54, 0
5, 46949, Note_on_c, 9, 62, 0
5, 46950, Note_on_c, 9, 42, 0
5, 46950, Note_on_c, 9, 38, 0
5, 46980, Note_on_c, 9, 42, 112
5, 46980, Note_on_c, 9, 64, 43
5, 47009, Note_on_c, 9, 64, 0
5, 47010, Note_on_c, 9, 42, 0
5, 47040, Note_on_c, 9, 35, 111
5, 47040, Note_on_c, 9, 42, 115
5, 47040, Note_on_c, 9, 64, 43
5, 47069, Note_on_c, 9, 64, 0
5, 47070, Note_on_c, 9, 42, 0
5, 47070, Note_on_c, 9, 35, 0
5, 47100, Note_on_c, 9, 42, 115
5, 47100, Note_on_c, 9, 64, 29
5, 47129, Note_on_c, 9, 64, 0
5, 47130, Note_on_c, 9, 42, 0
5, 47160, Note_on_c, 9, 38, 104
5, 47160, Note_on_c, 9, 42, 110
5, 47160, Note_on_c, 9, 62, 40
5, 47160, Note_on_c, 9, 54, 127
5, 47189, Note_on_c, 9, 54, 0
5, 47189, Note_on_c, 9, 62, 0
5, 47190, Note_on_c, 9, 42, 0
5, 47190, Note_on_c, 9, 38, 0
5, 47220, Note_on_c, 9, 35, 109
5, 47220, Note_on_c, 9, 42, 110
5, 47220, Note_on_c, 9, 64, 41
5, 47249, Note_on_c, 9, 64, 0
5, 47250, Note_on_c, 9, 42, 0
5, 47250, Note_on_c, 9, 35, 0
5, 47280, Note_on_c, 9, 35, 117
5, 47280, Note_on_c, 9, 42, 113
5, 47280, Note_on_c, 9, 64, 46
5, 47309, Note_on_c, 9, 64, 0
5, 47310, Note_on_c, 9, 42, 0
5, 47310, Note_on_c, 9, 35, 0
5, 47340, Note_on_c, 9, 42, 118
5, 47340, Note_on_c, 9, 64, 42
5, 47369, Note_on_c, 9, 64, 0
5, 47370, Note_on_c, 9, 42, 0
5, 47400, Note_on_c, 9, 38, 111
5, 47400, Note_on_c, 9, 42, 110
5, 47400, Note_on_c, 9, 62, 41
5, 47400, Note_on_c, 9, 54, 127
5, 47429, Note_on_c, 9, 54, 0
5, 47429, Note_on_c, 9, 62, 0
5, 47430, Note_on_c, 9, 42, 0
5, 47430, Note_on_c, 9, 38, 0
5, 47460, Note_on_c, 9, 46, 107
5, 47460, Note_on_c, 9, 64, 39
5, 47489, Note_on_c, 9, 64, 0
5, 47490, Note_on_c, 9, 46, 0
5, 47520, Note_on_c, 9, 35, 110
5, 47520, Note_on_c, 9, 42, 109
5, 47520, Note_on_c, 9, 64, 29
5, 47549, Note_on_c, 9, 64, 0
5, 47550, Note_on_c, 9, 42, 0
5, 47550, Note_on_c, 9, 35, 0
5, 47580, Note_on_c, 9, 42, 108
5, 47580, Note_on_c, 9, 64, 29
5, 47609, Note_on_c, 9, 64, 0
5, 47610, Note_on_c, 9, 42, 0
5, 47640, Note_on_c, 9, 38, 107
5, 47640, Note_on_c, 9, 42, 110
5, 47640, Note_on_c, 9, 62, 32
5, 47640, Note_on_c, 9, 54, 127
5, 47669, Note_on_c, 9, 54, 0
5, 47669, Note_on_c, 9, 62, 0
5, 47670, Note_on_c, 9, 42, 0
5, 47670, Note_on_c, 9, 38, 0
5, 47700, Note_on_c, 9, 35, 111
5, 47700, Note_on_c, 9, 42, 104
5, 47700, Note_on_c, 9, 64, 29
5, 47729, Note_on_c, 9, 64, 0
5, 47730, Note_on_c, 9, 42, 0
5, 47730, Note_on_c, 9, 35, 0
5, 47760, Note_on_c, 9, 35, 111
5, 47760, Note_on_c, 9, 42, 110
5, 47760, Note_on_c, 9, 64, 31
5, 47789, Note_on_c, 9, 64, 0
5, 47790, Note_on_c, 9, 42, 0
5, 47790, Note_on_c, 9, 35, 0
5, 47820, Note_on_c, 9, 42, 106
5, 47820, Note_on_c, 9, 64, 36
5, 47849, Note_on_c, 9, 64, 0
5, 47850, Note_on_c, 9, 42, 0
5, 47880, Note_on_c, 9, 38, 114
5, 47880, Note_on_c, 9, 42, 113
5, 47880, Note_on_c, 9, 62, 47
5, 47880, Note_on_c, 9, 54, 127
5, 47909, Note_on_c, 9, 54, 0
5, 47909, Note_on_c, 9, 62, 0
5, 47910, Note_on_c, 9, 42, 0
5, 47910, Note_on_c, 9, 38, 0
5, 47940, Note_on_c, 9, 42, 112
5, 47940, Note_on_c, 9, 64, 43
5, 47969, Note_on_c, 9, 64, 0
5, 47970, Note_on_c, 9, 42, 0
5, 48000, Note_on_c, 9, 35, 111
5, 48000, Note_on_c, 9, 42, 115
5, 48000, Note_on_c, 9, 64, 43
5, 48029, Note_on_c, 9, 64, 0
5, 48030, Note_on_c, 9, 42, 0
5, 48030, Note_on_c, 9, 35, 0
5, 48060, Note_on_c, 9, 42, 115
5, 48060, Note_on_c, 9, 64, 29
5, 48089, Note_on_c, 9, 64, 0
5, 48090, Note_on_c, 9, 42, 0
5, 48120, Note_on_c, 9, 38, 104
5, 48120, Note_on_c, 9, 42, 110
5, 48120, Note_on_c, 9, 62, 40
5, 48120, Note_on_c, 9, 54, 127
5, 48149, Note_on_c, 9, 54, 0
5, 48149, Note_on_c, 9, 62, 0
5, 48150, Note_on_c, 9, 42, 0
5, 48150, Note_on_c, 9, 38, 0
5, 48180, Note_on_c, 9, 35, 109
5, 48180, Note_on_c, 9, 42, 110
5, 48180, Note_on_c, 9, 64, 41
5, 48209, Note_on_c, 9, 64, 0
5, 48210, Note_on_c, 9, 42, 0
5, 48210, Note_on_c, 9, 35, 0
5, 48240, Note_on_c, 9, 35, 117
5, 48240, Note_on_c, 9, 42, 113
5, 48240, Note_on_c, 9, 64, 46
5, 48269, Note_on_c, 9, 64, 0
5, 48270, Note_on_c, 9, 42, 0
5, 48270, Note_on_c, 9, 35, 0
5, 48300, Note_on_c, 9, 42, 118
5, 48300, Note_on_c, 9, 64, 42
5, 48304, Note_on_c, 9, 43, 123
5, 48317, Note_on_c, 9, 43, 0
5, 48329, Note_on_c, 9, 64, 0
5, 48330, Note_on_c, 9, 42, 0
5, 48360, Note_on_c, 9, 38, 111
5, 48360, Note_on_c, 9, 42, 110
5, 48360, Note_on_c, 9, 62, 41
5, 48360, Note_on_c, 9, 54, 127
5, 48389, Note_on_c, 9, 54, 0
5, 48389, Note_on_c, 9, 62, 0
5, 48390, Note_on_c, 9, 42, 0
5, 48390, Note_on_c, 9, 38, 0
5, 48420, Note_on_c, 9, 46, 107
5, 48420, Note_on_c, 9, 64, 39
5, 48422, Note_on_c, 9, 43, 119
5, 48438, Note_on_c, 9, 43, 0
5, 48449, Note_on_c, 9, 64, 0
5, 48450, Note_on_c, 9, 46, 0
5, 48480, Note_on_c, 9, 35, 110
5, 48480, Note_on_c, 9, 42, 109
5, 48480, Note_on_c, 9, 64, 29
5, 48509, Note_on_c, 9, 64, 0
5, 48510, Note_on_c, 9, 42, 0
5, 48510, Note_on_c, 9, 35, 0
5, 48540, Note_on_c, 9, 42, 108
5, 48540, Note_on_c, 9, 64, 29
5, 48569, Note_on_c, 9, 64, 0
5, 48570, Note_on_c, 9, 42, 0
5, 48600, Note_on_c, 9, 38, 107
5, 48600, Note_on_c, 9, 42, 110
5, 48600, Note_on_c, 9, 62, 32
5, 48600, Note_on_c, 9, 54, 127
5, 48629, Note_on_c, 9, 54, 0
5, 48629, Note_on_c, 9, 62, 0
5, 48630, Note_on_c, 9, 42, 0
5, 48630, Note_on_c, 9, 38, 0
5, 48660, Note_on_c, 9, 35, 111
5, 48660, Note_on_c, 9, 42, 104
5, 48660, Note_on_c, 9, 64, 29
5, 48689, Note_on_c, 9, 64, 0
5, 48690, Note_on_c, 9, 42, 0
5, 48690, Note_on_c, 9, 35, 0
5, 48720, Note_on_c, 9, 35, 111
5, 48720, Note_on_c, 9, 42, 110
5, 48720, Note_on_c, 9, 64, 31
5, 48749, Note_on_c, 9, 64, 0
5, 48750, Note_on_c, 9, 42, 0
5, 48750, Note_on_c, 9, 35, 0
5, 48780, Note_on_c, 9, 42, 106
5, 48780, Note_on_c, 9, 64, 36
5, 48809, Note_on_c, 9, 64, 0
5, 48810, Note_on_c, 9, 42, 0
5, 48840, Note_on_c, 9, 38, 114
5, 48840, Note_on_c, 9, 42, 113
5, 48840, Note_on_c, 9, 62, 47
5, 48840, Note_on_c, 9, 54, 127
5, 48869, Note_on_c, 9, 54, 0
5, 48869, Note_on_c, 9, 62, 0
5, 48870, Note_on_c, 9, 42, 0
5, 48870, Note_on_c, 9, 38, 0
5, 48900, Note_on_c, 9, 42, 112
5, 48900, Note_on_c, 9, 64, 43
5, 48929, Note_on_c, 9, 64, 0
5, 48930, Note_on_c, 9, 42, 0
5, 48960, Note_on_c, 9, 35, 111
5, 48960, Note_on_c, 9, 42, 115
5, 48960, Note_on_c, 9, 64, 43
5, 48989, Note_on_c, 9, 64, 0
5, 48990, Note_on_c, 9, 42, 0
5, 48990, Note_on_c, 9, 35, 0
5, 49020, Note_on_c, 9, 42, 115
5, 49020, Note_on_c, 9, 64, 29
5, 49049, Note_on_c, 9, 64, 0
5, 49050, Note_on_c, 9, 42, 0
5, 49080, Note_on_c, 9, 38, 104
5, 49080, Note_on_c, 9, 42, 110
5, 49080, Note_on_c, 9, 62, 40
5, 49080, Note_on_c, 9, 54, 127
5, 49109, Note_on_c, 9, 54, 0
5, 49109, Note_on_c, 9, 62, 0
5, 49110, Note_on_c, 9, 42, 0
5, 49110, Note_on_c, 9, 38, 0
5, 49140, Note_on_c, 9, 35, 109
5, 49140, Note_on_c, 9, 42, 110
5, 49140, Note_on_c, 9, 64, 41
5, 49169, Note_on_c, 9, 64, 0
5, 49170, Note_on_c, 9, 42, 0
5, 49170, Note_on_c, 9, 35, 0
5, 49200, Note_on_c, 9, 35, 117
5, 49200, Note_on_c, 9, 42, 113
5, 49200, Note_on_c, 9, 64, 46
5, 49229, Note_on_c, 9, 64, 0
5, 49230, Note_on_c, 9, 42, 0
5, 49230, Note_on_c, 9, 35, 0
5, 49260, Note_on_c, 9, 42, 118
5, 49260, Note_on_c, 9, 64, 42
5, 49289, Note_on_c, 9, 64, 0
5, 49290, Note_on_c, 9, 42, 0
5, 49320, Note_on_c, 9, 38, 111
5, 49320, Note_on_c, 9, 42, 110
5, 49320, Note_on_c, 9, 62, 41
5, 49320, Note_on_c, 9, 54, 127
5, 49349, Note_on_c, 9, 54, 0
5, 49349, Note_on_c, 9, 62, 0
5, 49350, Note_on_c, 9, 42, 0
5, 49350, Note_on_c, 9, 38, 0
5, 49380, Note_on_c, 9, 46, 107
5, 49380, Note_on_c, 9, 64, 39
5, 49409, Note_on_c, 9, 64, 0
5, 49410, Note_on_c, 9, 46, 0
5, 49440, Note_on_c, 9, 35, 110
5, 49440, Note_on_c, 9, 42, 109
5, 49440, Note_on_c, 9, 64, 29
5, 49469, Note_on_c, 9, 64, 0
5, 49470, Note_on_c, 9, 42, 0
5, 49470, Note_on_c, 9, 35, 0
5, 49500, Note_on_c, 9, 42, 108
5, 49500, Note_on_c, 9, 64, 29
5, 49529, Note_on_c, 9, 64, 0
5, 49530, Note_on_c, 9, 42, 0
5, 49560, Note_on_c, 9, 38, 107
5, 49560, Note_on_c, 9, 42, 110
5, 49560, Note_on_c, 9, 62, 32
5, 49560, Note_on_c, 9, 54, 127
5, 49589, Note_on_c, 9, 54, 0
5, 49589, Note_on_c, 9, 62, 0
5, 49590, Note_on_c, 9, 42, 0
5, 49590, Note_on_c, 9, 38, 0
5, 49620, Note_on_c, 9, 35, 111
5, 49620, Note_on_c, 9, 42, 104
5, 49620, Note_on_c, 9, 64, 29
5, 49649, Note_on_c, 9, 64, 0
5, 49650, Note_on_c, 9, 42, 0
5, 49650, Note_on_c, 9, 35, 0
5, 49680, Note_on_c, 9, 35, 111
5, 49680, Note_on_c, 9, 42, 110
5, 49680, Note_on_c, 9, 64, 31
5, 49709, Note_on_c, 9, 64, 0
5, 49710, Note_on_c, 9, 42, 0
5, 49710, Note_on_c, 9, 35, 0
5, 49740, Note_on_c, 9, 42, 106
5, 49740, Note_on_c, 9, 64, 36
5, 49769, Note_on_c, 9, 64, 0
5, 49770, Note_on_c, 9, 42, 0
5, 49800, Note_on_c, 9, 38, 114
5, 49800, Note_on_c, 9, 42, 113
5, 49800, Note_on_c, 9, 62, 47
5, 49800, Note_on_c, 9, 54, 127
5, 49829, Note_on_c, 9, 54, 0
5, 49829, Note_on_c, 9, 62, 0
5, 49830, Note_on_c, 9, 42, 0
5, 49830, Note_on_c, 9, 38, 0
5, 49860, Note_on_c, 9, 42, 112
5, 49860, Note_on_c, 9, 64, 43
5, 49889, Note_on_c, 9, 64, 0
5, 49890, Note_on_c, 9, 42, 0
5, 49920, Note_on_c, 9, 35, 111
5, 49920, Note_on_c, 9, 42, 115
5, 49920, Note_on_c, 9, 64, 43
5, 49949, Note_on_c, 9, 64, 0
5, 49950, Note_on_c, 9, 42, 0
5, 49950, Note_on_c, 9, 35, 0
5, 49980, Note_on_c, 9, 42, 115
5, 49980, Note_on_c, 9, 64, 29
5, 50009, Note_on_c, 9, 64, 0
5, 50010, Note_on_c, 9, 42, 0
5, 50040, Note_on_c, 9, 38, 104
5, 50040, Note_on_c, 9, 42, 110
5, 50040, Note_on_c, 9, 62, 40
5, 50040, Note_on_c, 9, 54, 127
5, 50069, Note_on_c, 9, 54, 0
5, 50069, Note_on_c, 9, 62, 0
5, 50070, Note_on_c, 9, 42, 0
5, 50070, Note_on_c, 9, 38, 0
5, 50100, Note_on_c, 9, 35, 109
5, 50100, Note_on_c, 9, 42, 110
5, 50100, Note_on_c, 9, 64, 41
5, 50129, Note_on_c, 9, 64, 0
5, 50130, Note_on_c, 9, 42, 0
5, 50130, Note_on_c, 9, 35, 0
5, 50160, Note_on_c, 9, 35, 117
5, 50160, Note_on_c, 9, 42, 113
5, 50160, Note_on_c, 9, 64, 46
5, 50189, Note_on_c, 9, 64, 0
5, 50190, Note_on_c, 9, 42, 0
5, 50190, Note_on_c, 9, 35, 0
5, 50220, Note_on_c, 9, 42, 118
5, 50220, Note_on_c, 9, 64, 42
5, 50249, Note_on_c, 9, 64, 0
5, 50250, Note_on_c, 9, 42, 0
5, 50250, Note_on_c, 9, 48, 127
5, 50259, Note_on_c, 9, 48, 0
5, 50280, Note_on_c, 9, 38, 111
5, 50280, Note_on_c, 9, 42, 110
5, 50280, Note_on_c, 9, 62, 41
5, 50280, Note_on_c, 9, 54, 127
5, 50282, Note_on_c, 9, 43, 115
5, 50305, Note_on_c, 9, 43, 0
5, 50309, Note_on_c, 9, 62, 0
5, 50309, Note_on_c, 9, 54, 0
5, 50310, Note_on_c, 9, 42, 0
5, 50310, Note_on_c, 9, 38, 0
5, 50340, Note_on_c, 9, 46, 107
5, 50340, Note_on_c, 9, 64, 39
5, 50369, Note_on_c, 9, 64, 0
5, 50370, Note_on_c, 9, 46, 0
5, 50400, Note_on_c, 9, 35, 110
5, 50400, Note_on_c, 9, 42, 109
5, 50400, Note_on_c, 9, 64, 29
5, 50400, Note_on_c, 9, 49, 111
5, 50412, Note_on_c, 9, 49, 0
5, 50429, Note_on_c, 9, 64, 0
5, 50430, Note_on_c, 9, 42, 0
5, 50430, Note_on_c, 9, 35, 0
5, 50460, Note_on_c, 9, 42, 108
5, 50460, Note_on_c, 9, 64, 29
5, 50489, Note_on_c, 9, 64, 0
5, 50490, Note_on_c, 9, 42, 0
5, 50520, Note_on_c, 9, 38, 107
5, 50520, Note_on_c, 9, 42, 110
5, 50520, Note_on_c, 9, 62, 32
5, 50520, Note_on_c, 9, 54, 127
5, 50549, Note_on_c, 9, 54, 0
5, 50549, Note_on_c, 9, 62, 0
5, 50550, Note_on_c, 9, 42, 0
5, 50550, Note_on_c, 9, 38, 0
5, 50580, Note_on_c, 9, 35, 111
5, 50580, Note_on_c, 9, 42, 104
5, 50580, Note_on_c, 9, 64, 29
5, 50609, Note_on_c, 9, 64, 0
5, 50610, Note_on_c, 9, 42, 0
5, 50610, Note_on_c, 9, 35, 0
5, 50640, Note_on_c, 9, 35, 111
5, 50640, Note_on_c, 9, 42, 110
5, 50640, Note_on_c, 9, 64, 31
5, 50669, Note_on_c, 9, 64, 0
5, 50670, Note_on_c, 9, 42, 0
5, 50670, Note_on_c, 9, 35, 0
5, 50700, Note_on_c, 9, 42, 106
5, 50700, Note_on_c, 9, 64, 36
5, 50729, Note_on_c, 9, 64, 0
5, 50730, Note_on_c, 9, 42, 0
5, 50760, Note_on_c, 9, 38, 114
5, 50760, Note_on_c, 9, 42, 113
5, 50760, Note_on_c, 9, 62, 47
5, 50760, Note_on_c, 9, 54, 127
5, 50789, Note_on_c, 9, 54, 0
5, 50789, Note_on_c, 9, 62, 0
5, 50790, Note_on_c, 9, 42, 0
5, 50790, Note_on_c, 9, 38, 0
5, 50820, Note_on_c, 9, 42, 112
5, 50820, Note_on_c, 9, 64, 43
5, 50849, Note_on_c, 9, 64, 0
5, 50850, Note_on_c, 9, 42, 0
5, 50880, Note_on_c, 9, 35, 111
5, 50880, Note_on_c, 9, 42, 115
5, 50880, Note_on_c, 9, 64, 43
5, 50909, Note_on_c, 9, 64, 0
5, 50910, Note_on_c, 9, 42, 0
5, 50910, Note_on_c, 9, 35, 0
5, 50940, Note_on_c, 9, 42, 115
5, 50940, Note_on_c, 9, 64, 29
5, 50969, Note_on_c, 9, 64, 0
5, 50970, Note_on_c, 9, 42, 0
5, 51000, Note_on_c, 9, 38, 104
5, 51000, Note_on_c, 9, 42, 110
5, 51000, Note_on_c, 9, 62, 40
5, 51000, Note_on_c, 9, 54, 127
5, 51029, Note_on_c, 9, 54, 0
5, 51029, Note_on_c, 9, 62, 0
5, 51030, Note_on_c, 9, 42, 0
5, 51030, Note_on_c, 9, 38, 0
5, 51060, Note_on_c, 9, 35, 109
5, 51060, Note_on_c, 9, 42, 110
5, 51060, Note_on_c, 9, 64, 41
5, 51089, Note_on_c, 9, 64, 0
5, 51090, Note_on_c, 9, 42, 0
5, 51090, Note_on_c, 9, 35, 0
5, 51120, Note_on_c, 9, 35, 117
5, 51120, Note_on_c, 9, 42, 113
5, 51120, Note_on_c, 9, 64, 46
5, 51149, Note_on_c, 9, 64, 0
5, 51150, Note_on_c, 9, 42, 0
5, 51150, Note_on_c, 9, 35, 0
5, 51180, Note_on_c, 9, 42, 118
5, 51180, Note_on_c, 9, 64, 42
5, 51209, Note_on_c, 9, 64, 0
5, 51210, Note_on_c, 9, 42, 0
5, 51240, Note_on_c, 9, 38, 111
5, 51240, Note_on_c, 9, 42, 110
5, 51240, Note_on_c, 9, 62, 41
5, 51240, Note_on_c, 9, 54, 127
5, 51269, Note_on_c, 9, 54, 0
5, 51269, Note_on_c, 9, 62, 0
5, 51270, Note_on_c, 9, 42, 0
5, 51270, Note_on_c, 9, 38, 0
5, 51300, Note_on_c, 9, 46, 107
5, 51300, Note_on_c, 9, 64, 39
5, 51329, Note_on_c, 9, 64, 0
5, 51330, Note_on_c, 9, 46, 0
5, 51360, Note_on_c, 9, 35, 110
5, 51360, Note_on_c, 9, 42, 109
5, 51360, Note_on_c, 9, 64, 29
5, 51389, Note_on_c, 9, 64, 0
5, 51390, Note_on_c, 9, 42, 0
5, 51390, Note_on_c, 9, 35, 0
5, 51420, Note_on_c, 9, 42, 108
5, 51420, Note_on_c, 9, 64, 29
5, 51449, Note_on_c, 9, 64, 0
5, 51450, Note_on_c, 9, 42, 0
5, 51480, Note_on_c, 9, 38, 107
5, 51480, Note_on_c, 9, 42, 110
5, 51480, Note_on_c, 9, 62, 32
5, 51480, Note_on_c, 9, 54, 127
5, 51509, Note_on_c, 9, 54, 0
5, 51509, Note_on_c, 9, 62, 0
5, 51510, Note_on_c, 9, 42, 0
5, 51510, Note_on_c, 9, 38, 0
5, 51540, Note_on_c, 9, 35, 111
5, 51540, Note_on_c, 9, 42, 104
5, 51540, Note_on_c, 9, 64, 29
5, 51569, Note_on_c, 9, 64, 0
5, 51570, Note_on_c, 9, 42, 0
5, 51570, Note_on_c, 9, 35, 0
5, 51600, Note_on_c, 9, 35, 111
5, 51600, Note_on_c, 9, 42, 110
5, 51600, Note_on_c, 9, 64, 31
5, 51629, Note_on_c, 9, 64, 0
5, 51630, Note_on_c, 9, 42, 0
5, 51630, Note_on_c, 9, 35, 0
5, 51660, Note_on_c, 9, 42, 106
5, 51660, Note_on_c, 9, 64, 36
5, 51689, Note_on_c, 9, 64, 0
5, 51690, Note_on_c, 9, 42, 0
5, 51720, Note_on_c, 9, 38, 114
5, 51720, Note_on_c, 9, 42, 113
5, 51720, Note_on_c, 9, 62, 47
5, 51720, Note_on_c, 9, 54, 127
5, 51749, Note_on_c, 9, 54, 0
5, 51749, Note_on_c, 9, 62, 0
5, 51750, Note_on_c, 9, 42, 0
5, 51750, Note_on_c, 9, 38, 0
5, 51780, Note_on_c, 9, 42, 112
5, 51780, Note_on_c, 9, 64, 43
5, 51809, Note_on_c, 9, 64, 0
5, 51810, Note_on_c, 9, 42, 0
5, 51840, Note_on_c, 9, 35, 111
5, 51840, Note_on_c, 9, 42, 115
5, 51840, Note_on_c, 9, 64, 43
5, 51869, Note_on_c, 9, 64, 0
5, 51870, Note_on_c, 9, 42, 0
5, 51870, Note_on_c, 9, 35, 0
5, 51900, Note_on_c, 9, 42, 115
5, 51900, Note_on_c, 9, 64, 29
5, 51929, Note_on_c, 9, 64, 0
5, 51930, Note_on_c, 9, 42, 0
5, 51960, Note_on_c, 9, 38, 104
5, 51960, Note_on_c, 9, 42, 110
5, 51960, Note_on_c, 9, 62, 40
5, 51960, Note_on_c, 9, 54, 127
5, 51989, Note_on_c, 9, 54, 0
5, 51989, Note_on_c, 9, 62, 0
5, 51990, Note_on_c, 9, 42, 0
5, 51990, Note_on_c, 9, 38, 0
5, 52020, Note_on_c, 9, 35, 109
5, 52020, Note_on_c, 9, 42, 110
5, 52020, Note_on_c, 9, 64, 41
5, 52049, Note_on_c, 9, 64, 0
5, 52050, Note_on_c, 9, 42, 0
5, 52050, Note_on_c, 9, 35, 0
5, 52080, Note_on_c, 9, 35, 117
5, 52080, Note_on_c, 9, 42, 113
5, 52080, Note_on_c, 9, 64, 46
5, 52109, Note_on_c, 9, 64, 0
5, 52110, Note_on_c, 9, 42, 0
5, 52110, Note_on_c, 9, 35, 0
5, 52140, Note_on_c, 9, 42, 118
5, 52140, Note_on_c, 9, 64, 42
5, 52140, Note_on_c, 9, 48, 119
5, 52154, Note_on_c, 9, 48, 0
5, 52169, Note_on_c, 9, 64, 0
5, 52170, Note_on_c, 9, 42, 0
5, 52200, Note_on_c, 9, 38, 111
5, 52200, Note_on_c, 9, 42, 110
5, 52200, Note_on_c, 9, 62, 41
5, 52200, Note_on_c, 9, 54, 127
5, 52229, Note_on_c, 9, 54, 0
5, 52229, Note_on_c, 9, 62, 0
5, 52230, Note_on_c, 9, 42, 0
5, 52230, Note_on_c, 9, 38, 0
5, 52260, Note_on_c, 9, 46, 107
5, 52260, Note_on_c, 9, 64, 39
5, 52260, Note_on_c, 9, 48, 123
5, 52274, Note_on_c, 9, 48, 0
5, 52289, Note_on_c, 9, 64, 0
5, 52290, Note_on_c, 9, 46, 0
5, 52312, Control_c, 9, 11, 99
5, 52312, Control_c, 9, 11, 99
5, 52320, Note_on_c, 9, 35, 110
5, 52320, Note_on_c, 9, 42, 109
5, 52320, Note_on_c, 9, 64, 29
5, 52320, Note_on_c, 9, 49, 119
5, 52327, Control_c, 9, 11, 98
5, 52327, Control_c, 9, 11, 98
5, 52331, Note_on_c, 9, 49, 0
5, 52349, Note_on_c, 9, 64, 0
5, 52350, Note_on_c, 9, 42, 0
5, 52350, Note_on_c, 9, 35, 0
5, 52357, Control_c, 9, 11, 97
5, 52357, Control_c, 9, 11, 97
5, 52380, Note_on_c, 9, 42, 108
5, 52380, Note_on_c, 9, 64, 29
5, 52387, Control_c, 9, 11, 96
5, 52387, Control_c, 9, 11, 96
5, 52409, Note_on_c, 9, 64, 0
5, 52410, Note_on_c, 9, 42, 0
5, 52425, Control_c, 9, 11, 95
5, 52425, Control_c, 9, 11, 95
5, 52440, Note_on_c, 9, 38, 107
5, 52440, Note_on_c, 9, 42, 110
5, 52440, Note_on_c, 9, 62, 32
5, 52440, Note_on_c, 9, 54, 127
5, 52455, Control_c, 9, 11, 94
5, 52455, Control_c, 9, 11, 94
5, 52469, Note_on_c, 9, 54, 0
5, 52469, Note_on_c, 9, 62, 0
5, 52470, Note_on_c, 9, 42, 0
5, 52470, Note_on_c, 9, 38, 0
5, 52485, Control_c, 9, 11, 93
5, 52485, Control_c, 9, 11, 93
5, 52500, Note_on_c, 9, 35, 111
5, 52500, Note_on_c, 9, 42, 104
5, 52500, Note_on_c, 9, 64, 29
5, 52515, Control_c, 9, 11, 92
5, 52515, Control_c, 9, 11, 92
5, 52529, Note_on_c, 9, 64, 0
5, 52530, Note_on_c, 9, 42, 0
5, 52530, Note_on_c, 9, 35, 0
5, 52545, Control_c, 9, 11, 91
5, 52545, Control_c, 9, 11, 91
5, 52560, Note_on_c, 9, 35, 111
5, 52560, Note_on_c, 9, 42, 110
5, 52560, Note_on_c, 9, 64, 31
5, 52582, Control_c, 9, 11, 90
5, 52582, Control_c, 9, 11, 90
5, 52589, Note_on_c, 9, 64, 0
5, 52590, Note_on_c, 9, 42, 0
5, 52590, Note_on_c, 9, 35, 0
5, 52612, Control_c, 9, 11, 89
5, 52612, Control_c, 9, 11, 89
5, 52620, Note_on_c, 9, 42, 106
5, 52620, Note_on_c, 9, 64, 36
5, 52642, Control_c, 9, 11, 88
5, 52642, Control_c, 9, 11, 88
5, 52649, Note_on_c, 9, 64, 0
5, 52650, Note_on_c, 9, 42, 0
5, 52672, Control_c, 9, 11, 87
5, 52672, Control_c, 9, 11, 87
5, 52680, Note_on_c, 9, 38, 114
5, 52680, Note_on_c, 9, 42, 113
5, 52680, Note_on_c, 9, 62, 47
5, 52680, Note_on_c, 9, 54, 127
5, 52709, Note_on_c, 9, 54, 0
5, 52709, Note_on_c, 9, 62, 0
5, 52710, Note_on_c, 9, 42, 0
5, 52710, Note_on_c, 9, 38, 0
5, 52710, Control_c, 9, 11, 86
5, 52710, Control_c, 9, 11, 86
5, 52740, Note_on_c, 9, 42, 112
5, 52740, Note_on_c, 9, 64, 43
5, 52740, Control_c, 9, 11, 85
5, 52740, Control_c, 9, 11, 85
5, 52769, Note_on_c, 9, 64, 0
5, 52770, Note_on_c, 9, 42, 0
5, 52770, Control_c, 9, 11, 84
5, 52770, Control_c, 9, 11, 84
5, 52800, Note_on_c, 9, 35, 111
5, 52800, Note_on_c, 9, 42, 115
5, 52800, Note_on_c, 9, 64, 43
5, 52800, Control_c, 9, 11, 83
5, 52800, Control_c, 9, 11, 83
5, 52829, Note_on_c, 9, 64, 0
5, 52830, Note_on_c, 9, 42, 0
5, 52830, Note_on_c, 9, 35, 0
5, 52830, Control_c, 9, 11, 82
5, 52830, Control_c, 9, 11, 82
5, 52860, Note_on_c, 9, 42, 115
5, 52860, Note_on_c, 9, 64, 29
5, 52867, Control_c, 9, 11, 81
5, 52867, Control_c, 9, 11, 81
5, 52889, Note_on_c, 9, 64, 0
5, 52890, Note_on_c, 9, 42, 0
5, 52897, Control_c, 9, 11, 80
5, 52897, Control_c, 9, 11, 80
5, 52920, Note_on_c, 9, 38, 104
5, 52920, Note_on_c, 9, 42, 110
5, 52920, Note_on_c, 9, 62, 40
5, 52920, Note_on_c, 9, 54, 127
5, 52927, Control_c, 9, 11, 79
5, 52927, Control_c, 9, 11, 79
5, 52949, Note_on_c, 9, 54, 0
5, 52949, Note_on_c, 9, 62, 0
5, 52950, Note_on_c, 9, 42, 0
5, 52950, Note_on_c, 9, 38, 0
5, 52957, Control_c, 9, 11, 78
5, 52957, Control_c, 9, 11, 78
5, 52980, Note_on_c, 9, 35, 109
5, 52980, Note_on_c, 9, 42, 110
5, 52980, Note_on_c, 9, 64, 41
5, 52995, Control_c, 9, 11, 77
5, 52995, Control_c, 9, 11, 77
5, 53009, Note_on_c, 9, 64, 0
5, 53010, Note_on_c, 9, 42, 0
5, 53010, Note_on_c, 9, 35, 0
5, 53025, Control_c, 9, 11, 76
5, 53025, Control_c, 9, 11, 76
5, 53040, Note_on_c, 9, 35, 117
5, 53040, Note_on_c, 9, 42, 113
5, 53040, Note_on_c, 9, 64, 46
5, 53055, Control_c, 9, 11, 75
5, 53055, Control_c, 9, 11, 75
5, 53069, Note_on_c, 9, 64, 0
5, 53070, Note_on_c, 9, 42, 0
5, 53070, Note_on_c, 9, 35, 0
5, 53085, Control_c, 9, 11, 74
5, 53085, Control_c, 9, 11, 74
5, 53100, Note_on_c, 9, 42, 118
5, 53100, Note_on_c, 9, 64, 42
5, 53115, Control_c, 9, 11, 73
5, 53115, Control_c, 9, 11, 73
5, 53129, Note_on_c, 9, 64, 0
5, 53130, Note_on_c, 9, 42, 0
5, 53152, Control_c, 9, 11, 72
5, 53152, Control_c, 9, 11, 72
5, 53160, Note_on_c, 9, 38, 111
5, 53160, Note_on_c, 9, 42, 110
5, 53160, Note_on_c, 9, 62, 41
5, 53160, Note_on_c, 9, 54, 127
5, 53182, Control_c, 9, 11, 71
5, 53182, Control_c, 9, 11, 71
5, 53189, Note_on_c, 9, 54, 0
5, 53189, Note_on_c, 9, 62, 0
5, 53190, Note_on_c, 9, 42, 0
5, 53190, Note_on_c, 9, 38, 0
5, 53212, Control_c, 9, 11, 70
5, 53212, Control_c, 9, 11, 70
5, 53220, Note_on_c, 9, 46, 107
5, 53220, Note_on_c, 9, 64, 39
5, 53242, Control_c, 9, 11, 69
5, 53242, Control_c, 9, 11, 69
5, 53249, Note_on_c, 9, 64, 0
5, 53250, Note_on_c, 9, 46, 0
5, 53280, Note_on_c, 9, 35, 110
5, 53280, Note_on_c, 9, 42, 109
5, 53280, Note_on_c, 9, 64, 29
5, 53280, Control_c, 9, 11, 68
5, 53280, Control_c, 9, 11, 68
5, 53309, Note_on_c, 9, 64, 0
5, 53310, Note_on_c, 9, 42, 0
5, 53310, Note_on_c, 9, 35, 0
5, 53310, Control_c, 9, 11, 67
5, 53310, Control_c, 9, 11, 67
5, 53340, Note_on_c, 9, 42, 108
5, 53340, Note_on_c, 9, 64, 29
5, 53340, Control_c, 9, 11, 66
5, 53340, Control_c, 9, 11, 66
5, 53369, Note_on_c, 9, 64, 0
5, 53370, Note_on_c, 9, 42, 0
5, 53370, Control_c, 9, 11, 65
5, 53370, Control_c, 9, 11, 65
5, 53400, Note_on_c, 9, 38, 107
5, 53400, Note_on_c, 9, 42, 110
5, 53400, Note_on_c, 9, 62, 32
5, 53400, Note_on_c, 9, 54, 127
5, 53400, Control_c, 9, 11, 64
5, 53400, Control_c, 9, 11, 64
5, 53429, Note_on_c, 9, 54, 0
5, 53429, Note_on_c, 9, 62, 0
5, 53430, Note_on_c, 9, 42, 0
5, 53430, Note_on_c, 9, 38, 0
5, 53437, Control_c, 9, 11, 63
5, 53437, Control_c, 9, 11, 63
5, 53460, Note_on_c, 9, 35, 111
5, 53460, Note_on_c, 9, 42, 104
5, 53460, Note_on_c, 9, 64, 29
5, 53467, Control_c, 9, 11, 62
5, 53467, Control_c, 9, 11, 62
5, 53489, Note_on_c, 9, 64, 0
5, 53490, Note_on_c, 9, 42, 0
5, 53490, Note_on_c, 9, 35, 0
5, 53497, Control_c, 9, 11, 61
5, 53497, Control_c, 9, 11, 61
5, 53520, Note_on_c, 9, 35, 111
5, 53520, Note_on_c, 9, 42, 110
5, 53520, Note_on_c, 9, 64, 31
5, 53527, Control_c, 9, 11, 60
5, 53527, Control_c, 9, 11, 60
5, 53549, Note_on_c, 9, 64, 0
5, 53550, Note_on_c, 9, 42, 0
5, 53550, Note_on_c, 9, 35, 0
5, 53565, Control_c, 9, 11, 59
5, 53565, Control_c, 9, 11, 59
5, 53580, Note_on_c, 9, 42, 106
5, 53580, Note_on_c, 9, 64, 36
5, 53595, Control_c, 9, 11, 58
5, 53595, Control_c, 9, 11, 58
5, 53609, Note_on_c, 9, 64, 0
5, 53610, Note_on_c, 9, 42, 0
5, 53625, Control_c, 9, 11, 57
5, 53625, Control_c, 9, 11, 57
5, 53640, Note_on_c, 9, 38, 114
5, 53640, Note_on_c, 9, 42, 113
5, 53640, Note_on_c, 9, 62, 47
5, 53640, Note_on_c, 9, 54, 127
5, 53655, Control_c, 9, 11, 56
5, 53655, Control_c, 9, 11, 56
5, 53669, Note_on_c, 9, 54, 0
5, 53669, Note_on_c, 9, 62, 0
5, 53670, Note_on_c, 9, 42, 0
5, 53670, Note_on_c, 9, 38, 0
5, 53685, Control_c, 9, 11, 55
5, 53685, Control_c, 9, 11, 55
5, 53700, Note_on_c, 9, 42, 112
5, 53700, Note_on_c, 9, 64, 43
5, 53722, Control_c, 9, 11, 54
5, 53722, Control_c, 9, 11, 54
5, 53729, Note_on_c, 9, 64, 0
5, 53730, Note_on_c, 9, 42, 0
5, 53752, Control_c, 9, 11, 53
5, 53752, Control_c, 9, 11, 53
5, 53760, Note_on_c, 9, 35, 111
5, 53760, Note_on_c, 9, 42, 115
5, 53760, Note_on_c, 9, 64, 43
5, 53782, Control_c, 9, 11, 52
5, 53782, Control_c, 9, 11, 52
5, 53789, Note_on_c, 9, 64, 0
5, 53790, Note_on_c, 9, 42, 0
5, 53790, Note_on_c, 9, 35, 0
5, 53812, Control_c, 9, 11, 51
5, 53812, Control_c, 9, 11, 51
5, 53820, Note_on_c, 9, 42, 115
5, 53820, Note_on_c, 9, 64, 29
5, 53849, Note_on_c, 9, 64, 0
5, 53850, Note_on_c, 9, 42, 0
5, 53850, Control_c, 9, 11, 50
5, 53850, Control_c, 9, 11, 50
5, 53880, Note_on_c, 9, 38, 104
5, 53880, Note_on_c, 9, 42, 110
5, 53880, Note_on_c, 9, 62, 40
5, 53880, Note_on_c, 9, 54, 127
5, 53880, Control_c, 9, 11, 49
5, 53880, Control_c, 9, 11, 49
5, 53909, Note_on_c, 9, 54, 0
5, 53909, Note_on_c, 9, 62, 0
5, 53910, Note_on_c, 9, 42, 0
5, 53910, Note_on_c, 9, 38, 0
5, 53910, Control_c, 9, 11, 48
5, 53910, Control_c, 9, 11, 48
5, 53940, Note_on_c, 9, 35, 109
5, 53940, Note_on_c, 9, 42, 110
5, 53940, Note_on_c, 9, 64, 41
5, 53940, Control_c, 9, 11, 47
5, 53940, Control_c, 9, 11, 47
5, 53969, Note_on_c, 9, 64, 0
5, 53970, Note_on_c, 9, 42, 0
5, 53970, Note_on_c, 9, 35, 0
5, 53970, Control_c, 9, 11, 46
5, 53970, Control_c, 9, 11, 46
5, 54000, Note_on_c, 9, 35, 117
5, 54000, Note_on_c, 9, 42, 113
5, 54000, Note_on_c, 9, 64, 46
5, 54007, Control_c, 9, 11, 45
5, 54007, Control_c, 9, 11, 45
5, 54029, Note_on_c, 9, 64, 0
5, 54030, Note_on_c, 9, 42, 0
5, 54030, Note_on_c, 9, 35, 0
5, 54037, Control_c, 9, 11, 44
5, 54037, Control_c, 9, 11, 44
5, 54060, Note_on_c, 9, 42, 118
5, 54060, Note_on_c, 9, 64, 42
5, 54067, Control_c, 9, 11, 43
5, 54067, Control_c, 9, 11, 43
5, 54089, Note_on_c, 9, 64, 0
5, 54090, Note_on_c, 9, 42, 0
5, 54097, Control_c, 9, 11, 42
5, 54097, Control_c, 9, 11, 42
5, 54120, Note_on_c, 9, 38, 111
5, 54120, Note_on_c, 9, 42, 110
5, 54120, Note_on_c, 9, 62, 41
5, 54120, Note_on_c, 9, 54, 127
5, 54135, Control_c, 9, 11, 41
5, 54135, Control_c, 9, 11, 41
5, 54149, Note_on_c, 9, 54, 0
5, 54149, Note_on_c, 9, 62, 0
5, 54150, Note_on_c, 9, 42, 0
5, 54150, Note_on_c, 9, 38, 0
5, 54165, Control_c, 9, 11, 40
5, 54165, Control_c, 9, 11, 40
5, 54180, Note_on_c, 9, 46, 107
5, 54180, Note_on_c, 9, 64, 39
5, 54195, Control_c, 9, 11, 39
5, 54195, Control_c, 9, 11, 39
5, 54209, Note_on_c, 9, 64, 0
5, 54210, Note_on_c, 9, 46, 0
5, 54225, Control_c, 9, 11, 38
5, 54225, Control_c, 9, 11, 38
5, 54240, Note_on_c, 9, 35, 110
5, 54240, Note_on_c, 9, 42, 109
5, 54240, Note_on_c, 9, 64, 29
5, 54255, Control_c, 9, 11, 37
5, 54255, Control_c, 9, 11, 37
5, 54269, Note_on_c, 9, 64, 0
5, 54270, Note_on_c, 9, 42, 0
5, 54270, Note_on_c, 9, 35, 0
5, 54292, Control_c, 9, 11, 36
5, 54292, Control_c, 9, 11, 36
5, 54300, Note_on_c, 9, 42, 108
5, 54300, Note_on_c, 9, 64, 29
5, 54322, Control_c, 9, 11, 35
5, 54322, Control_c, 9, 11, 35
5, 54329, Note_on_c, 9, 64, 0
5, 54330, Note_on_c, 9, 42, 0
5, 54352, Control_c, 9, 11, 34
5, 54352, Control_c, 9, 11, 34
5, 54360, Note_on_c, 9, 38, 107
5, 54360, Note_on_c, 9, 42, 110
5, 54360, Note_on_c, 9, 62, 32
5, 54360, Note_on_c, 9, 54, 127
5, 54382, Control_c, 9, 11, 33
5, 54382, Control_c, 9, 11, 33
5, 54389, Note_on_c, 9, 54, 0
5, 54389, Note_on_c, 9, 62, 0
5, 54390, Note_on_c, 9, 42, 0
5, 54390, Note_on_c, 9, 38, 0
5, 54412, Control_c, 9, 11, 32
5, 54412, Control_c, 9, 11, 32
5, 54420, Note_on_c, 9, 35, 111
5, 54420, Note_on_c, 9, 42, 104
5, 54420, Note_on_c, 9, 64, 29
5, 54449, Note_on_c, 9, 64, 0
5, 54450, Note_on_c, 9, 42, 0
5, 54450, Note_on_c, 9, 35, 0
5, 54450, Control_c, 9, 11, 31
5, 54450, Control_c, 9, 11, 31
5, 54480, Note_on_c, 9, 35, 111
5, 54480, Note_on_c, 9, 42, 110
5, 54480, Note_on_c, 9, 64, 31
5, 54480, Control_c, 9, 11, 30
5, 54480, Control_c, 9, 11, 30
5, 54509, Note_on_c, 9, 64, 0
5, 54510, Note_on_c, 9, 42, 0
5, 54510, Note_on_c, 9, 35, 0
5, 54510, Control_c, 9, 11, 29
5, 54510, Control_c, 9, 11, 29
5, 54540, Note_on_c, 9, 42, 106
5, 54540, Note_on_c, 9, 64, 36
5, 54540, Control_c, 9, 11, 28
5, 54540, Control_c, 9, 11, 28
5, 54569, Note_on_c, 9, 64, 0
5, 54570, Note_on_c, 9, 42, 0
5, 54577, Control_c, 9, 11, 27
5, 54577, Control_c, 9, 11, 27
5, 54600, Note_on_c, 9, 38, 114
5, 54600, Note_on_c, 9, 42, 113
5, 54600, Note_on_c, 9, 62, 47
5, 54600, Note_on_c, 9, 54, 127
5, 54607, Control_c, 9, 11, 26
5, 54607, Control_c, 9, 11, 26
5, 54629, Note_on_c, 9, 54, 0
5, 54629, Note_on_c, 9, 62, 0
5, 54630, Note_on_c, 9, 42, 0
5, 54630, Note_on_c, 9, 38, 0
5, 54637, Control_c, 9, 11, 25
5, 54637, Control_c, 9, 11, 25
5, 54660, Note_on_c, 9, 42, 112
5, 54660, Note_on_c, 9, 64, 43
5, 54667, Control_c, 9, 11, 24
5, 54667, Control_c, 9, 11, 24
5, 54689, Note_on_c, 9, 64, 0
5, 54690, Note_on_c, 9, 42, 0
5, 54697, Control_c, 9, 11, 23
5, 54697, Control_c, 9, 11, 23
5, 54720, Note_on_c, 9, 35, 111
5, 54720, Note_on_c, 9, 42, 115
5, 54720, Note_on_c, 9, 64, 43
5, 54735, Control_c, 9, 11, 22
5, 54735, Control_c, 9, 11, 22
5, 54749, Note_on_c, 9, 64, 0
5, 54750, Note_on_c, 9, 42, 0
5, 54750, Note_on_c, 9, 35, 0
5, 54765, Control_c, 9, 11, 21
5, 54765, Control_c, 9, 11, 21
5, 54780, Note_on_c, 9, 42, 115
5, 54780, Note_on_c, 9, 64, 29
5, 54795, Control_c, 9, 11, 20
5, 54795, Control_c, 9, 11, 20
5, 54809, Note_on_c, 9, 64, 0
5, 54810, Note_on_c, 9, 42, 0
5, 54825, Control_c, 9, 11, 19
5, 54825, Control_c, 9, 11, 19
5, 54840, Note_on_c, 9, 38, 104
5, 54840, Note_on_c, 9, 42, 110
5, 54840, Note_on_c, 9, 62, 40
5, 54840, Note_on_c, 9, 54, 127
5, 54862, Control_c, 9, 11, 18
5, 54862, Control_c, 9, 11, 18
5, 54869, Note_on_c, 9, 54, 0
5, 54869, Note_on_c, 9, 62, 0
5, 54870, Note_on_c, 9, 42, 0
5, 54870, Note_on_c, 9, 38, 0
5, 54892, Control_c, 9, 11, 17
5, 54892, Control_c, 9, 11, 17
5, 54900, Note_on_c, 9, 35, 109
5, 54900, Note_on_c, 9, 42, 110
5, 54900, Note_on_c, 9, 64, 41
5, 54922, Control_c, 9, 11, 16
5, 54922, Control_c, 9, 11, 16
5, 54929, Note_on_c, 9, 64, 0
5, 54930, Note_on_c, 9, 42, 0
5, 54930, Note_on_c, 9, 35, 0
5, 54952, Control_c, 9, 11, 15
5, 54952, Control_c, 9, 11, 15
5, 54960, Note_on_c, 9, 35, 117
5, 54960, Note_on_c, 9, 42, 113
5, 54960, Note_on_c, 9, 64, 46
5, 54982, Control_c, 9, 11, 14
5, 54982, Control_c, 9, 11, 14
5, 54989, Note_on_c, 9, 64, 0
5, 54990, Note_on_c, 9, 42, 0
5, 54990, Note_on_c, 9, 35, 0
5, 55020, Note_on_c, 9, 42, 118
5, 55020, Note_on_c, 9, 64, 42
5, 55020, Control_c, 9, 11, 13
5, 55020, Control_c, 9, 11, 13
5, 55049, Note_on_c, 9, 64, 0
5, 55050, Note_on_c, 9, 42, 0
5, 55050, Control_c, 9, 11, 12
5, 55050, Control_c, 9, 11, 12
5, 55080, Note_on_c, 9, 38, 111
5, 55080, Note_on_c, 9, 42, 110
5, 55080, Note_on_c, 9, 62, 41
5, 55080, Note_on_c, 9, 54, 127
5, 55080, Control_c, 9, 11, 11
5, 55080, Control_c, 9, 11, 11
5, 55109, Note_on_c, 9, 54, 0
5, 55109, Note_on_c, 9, 62, 0
5, 55110, Note_on_c, 9, 42, 0
5, 55110, Note_on_c, 9, 38, 0
5, 55110, Control_c, 9, 11, 10
5, 55110, Control_c, 9, 11, 10
5, 55140, Note_on_c, 9, 46, 107
5, 55140, Note_on_c, 9, 64, 39
5, 55147, Control_c, 9, 11, 9
5, 55147, Control_c, 9, 11, 9
5, 55169, Note_on_c, 9, 64, 0
5, 55170, Note_on_c, 9, 46, 0
5, 55177, Control_c, 9, 11, 8
5, 55177, Control_c, 9, 11, 8
5, 55200, Note_on_c, 9, 35, 110
5, 55200, Note_on_c, 9, 42, 109
5, 55200, Note_on_c, 9, 64, 29
5, 55207, Control_c, 9, 11, 7
5, 55207, Control_c, 9, 11, 7
5, 55229, Note_on_c, 9, 64, 0
5, 55230, Note_on_c, 9, 42, 0
5, 55230, Note_on_c, 9, 35, 0
5, 55237, Control_c, 9, 11, 6
5, 55237, Control_c, 9, 11, 6
5, 55260, Note_on_c, 9, 42, 108
5, 55260, Note_on_c, 9, 64, 29
5, 55267, Control_c, 9, 11, 5
5, 55267, Control_c, 9, 11, 5
5, 55289, Note_on_c, 9, 64, 0
5, 55290, Note_on_c, 9, 42, 0
5, 55305, Control_c, 9, 11, 4
5, 55305, Control_c, 9, 11, 4
5, 55320, Note_on_c, 9, 38, 107
5, 55320, Note_on_c, 9, 42, 110
5, 55320, Note_on_c, 9, 62, 32
5, 55320, Note_on_c, 9, 54, 127
5, 55335, Control_c, 9, 11, 3
5, 55335, Control_c, 9, 11, 3
5, 55349, Note_on_c, 9, 54, 0
5, 55349, Note_on_c, 9, 62, 0
5, 55350, Note_on_c, 9, 42, 0
5, 55350, Note_on_c, 9, 38, 0
5, 55365, Control_c, 9, 11, 2
5, 55365, Control_c, 9, 11, 2
5, 55380, Note_on_c, 9, 35, 111
5, 55380, Note_on_c, 9, 42, 104
5, 55380, Note_on_c, 9, 64, 29
5, 55395, Control_c, 9, 11, 1
5, 55395, Control_c, 9, 11, 1
5, 55409, Note_on_c, 9, 64, 0
5, 55410, Note_on_c, 9, 42, 0
5, 55410, Note_on_c, 9, 35, 0
5, 55432, Control_c, 9, 11, 0
5, 55432, Control_c, 9, 11, 0
5, 55440, Note_on_c, 9, 35, 111
5, 55440, Note_on_c, 9, 42, 110
5, 55440, Note_on_c, 9, 64, 31
5, 55462, Control_c, 9, 11, 0
5, 55462, Control_c, 9, 11, 0
5, 55469, Note_on_c, 9, 64, 0
5, 55470, Note_on_c, 9, 42, 0
5, 55470, Note_on_c, 9, 35, 0
5, 55492, Control_c, 9, 11, 0
5, 55492, Control_c, 9, 11, 0
5, 55500, Note_on_c, 9, 42, 106
5, 55500, Note_on_c, 9, 64, 36
5, 55522, Control_c, 9, 11, 0
5, 55522, Control_c, 9, 11, 0
5, 55529, Note_on_c, 9, 64, 0
5, 55530, Note_on_c, 9, 42, 0
5, 55552, Control_c, 9, 11, 0
5, 55552, Control_c, 9, 11, 0
5, 55560, Note_on_c, 9, 38, 114
5, 55560, Note_on_c, 9, 42, 113
5, 55560, Note_on_c, 9, 62, 47
5, 55560, Note_on_c, 9, 54, 127
5, 55589, Note_on_c, 9, 54, 0
5, 55589, Note_on_c, 9, 62, 0
5, 55590, Note_on_c, 9, 42, 0
5, 55590, Note_on_c, 9, 38, 0
5, 55590, Control_c, 9, 11, 0
5, 55590, Control_c, 9, 11, 0
5, 55620, Note_on_c, 9, 42, 112
5, 55620, Note_on_c, 9, 64, 43
5, 55620, Control_c, 9, 11, 0
5, 55620, Control_c, 9, 11, 0
5, 55649, Note_on_c, 9, 64, 0
5, 55650, Note_on_c, 9, 42, 0
5, 55650, Control_c, 9, 11, 0
5, 55650, Control_c, 9, 11, 0
5, 55650, End_track
6, 0, Start_track
6, 0, MIDI_port, 0
6, 0, Title_t, "Bass"
6, 0, Program_c, 1, 33
6, 0, Control_c, 1, 7, 120
6, 0, Control_c, 1, 10, 62
6, 0, Control_c, 1, 121, 127
6, 0, Control_c, 1, 0, 0
6, 0, Control_c, 1, 32, 0
6, 0, Control_c, 1, 11, 127
6, 0, Control_c, 1, 91, 80
6, 0, Control_c, 1, 93, 0
6, 480, Note_on_c, 1, 31, 105
6, 598, Note_on_c, 1, 31, 0
6, 660, Note_on_c, 1, 29, 107
6, 719, Note_on_c, 1, 29, 0
6, 720, Note_on_c, 1, 31, 107
6, 779, Note_on_c, 1, 31, 0
6, 780, Note_on_c, 1, 36, 107
6, 839, Note_on_c, 1, 36, 0
6, 840, Note_on_c, 1, 38, 107
6, 958, Note_on_c, 1, 38, 0
6, 960, Note_on_c, 1, 29, 107
6, 1019, Note_on_c, 1, 29, 0
6, 1020, Note_on_c, 1, 29, 107
6, 1079, Note_on_c, 1, 29, 0
6, 1140, Note_on_c, 1, 38, 107
6, 1199, Note_on_c, 1, 38, 0
6, 1200, Note_on_c, 1, 36, 107
6, 1318, Note_on_c, 1, 36, 0
6, 1320, Note_on_c, 1, 38, 107
6, 1438, Note_on_c, 1, 38, 0
6, 1440, Note_on_c, 1, 39, 107
6, 1558, Note_on_c, 1, 39, 0
6, 1620, Note_on_c, 1, 38, 104
6, 1679, Note_on_c, 1, 38, 0
6, 1680, Note_on_c, 1, 39, 104
6, 1739, Note_on_c, 1, 39, 0
6, 1740, Note_on_c, 1, 31, 104
6, 1799, Note_on_c, 1, 31, 0
6, 1800, Note_on_c, 1, 38, 102
6, 1859, Note_on_c, 1, 38, 0
6, 1860, Note_on_c, 1, 36, 102
6, 1919, Note_on_c, 1, 36, 0
6, 2100, Note_on_c, 1, 34, 102
6, 2159, Note_on_c, 1, 34, 0
6, 2160, Note_on_c, 1, 36, 102
6, 2219, Note_on_c, 1, 36, 0
6, 2220, Note_on_c, 1, 36, 102
6, 2279, Note_on_c, 1, 36, 0
6, 2280, Note_on_c, 1, 34, 102
6, 2398, Note_on_c, 1, 34, 0
6, 2400, Note_on_c, 1, 31, 105
6, 2518, Note_on_c, 1, 31, 0
6, 2580, Note_on_c, 1, 29, 107
6, 2639, Note_on_c, 1, 29, 0
6, 2640, Note_on_c, 1, 31, 107
6, 2699, Note_on_c, 1, 31, 0
6, 2700, Note_on_c, 1, 36, 107
6, 2759, Note_on_c, 1, 36, 0
6, 2760, Note_on_c, 1, 38, 107
6, 2878, Note_on_c, 1, 38, 0
6, 2880, Note_on_c, 1, 29, 107
6, 2939, Note_on_c, 1, 29, 0
6, 2940, Note_on_c, 1, 29, 107
6, 2999, Note_on_c, 1, 29, 0
6, 3060, Note_on_c, 1, 38, 107
6, 3119, Note_on_c, 1, 38, 0
6, 3120, Note_on_c, 1, 36, 107
6, 3238, Note_on_c, 1, 36, 0
6, 3240, Note_on_c, 1, 38, 107
6, 3358, Note_on_c, 1, 38, 0
6, 3360, Note_on_c, 1, 39, 107
6, 3478, Note_on_c, 1, 39, 0
6, 3540, Note_on_c, 1, 38, 104
6, 3599, Note_on_c, 1, 38, 0
6, 3600, Note_on_c, 1, 39, 104
6, 3659, Note_on_c, 1, 39, 0
6, 3660, Note_on_c, 1, 31, 104
6, 3719, Note_on_c, 1, 31, 0
6, 3720, Note_on_c, 1, 38, 102
6, 3779, Note_on_c, 1, 38, 0
6, 3780, Note_on_c, 1, 36, 102
6, 3839, Note_on_c, 1, 36, 0
6, 4020, Note_on_c, 1, 34, 102
6, 4079, Note_on_c, 1, 34, 0
6, 4080, Note_on_c, 1, 36, 102
6, 4139, Note_on_c, 1, 36, 0
6, 4140, Note_on_c, 1, 36, 102
6, 4199, Note_on_c, 1, 36, 0
6, 4200, Note_on_c, 1, 34, 102
6, 4318, Note_on_c, 1, 34, 0
6, 4320, Note_on_c, 1, 36, 100
6, 4438, Note_on_c, 1, 36, 0
6, 4500, Note_on_c, 1, 34, 100
6, 4559, Note_on_c, 1, 34, 0
6, 4560, Note_on_c, 1, 36, 100
6, 4619, Note_on_c, 1, 36, 0
6, 4620, Note_on_c, 1, 36, 100
6, 4679, Note_on_c, 1, 36, 0
6, 4680, Note_on_c, 1, 34, 100
6, 4798, Note_on_c, 1, 34, 0
6, 4800, Note_on_c, 1, 31, 100
6, 4918, Note_on_c, 1, 31, 0
6, 4980, Note_on_c, 1, 29, 100
6, 5039, Note_on_c, 1, 29, 0
6, 5040, Note_on_c, 1, 31, 100
6, 5099, Note_on_c, 1, 31, 0
6, 5100, Note_on_c, 1, 31, 100
6, 5159, Note_on_c, 1, 31, 0
6, 5160, Note_on_c, 1, 34, 100
6, 5278, Note_on_c, 1, 34, 0
6, 5280, Note_on_c, 1, 29, 102
6, 5398, Note_on_c, 1, 29, 0
6, 5460, Note_on_c, 1, 29, 102
6, 5519, Note_on_c, 1, 29, 0
6, 5520, Note_on_c, 1, 41, 102
6, 5579, Note_on_c, 1, 41, 0
6, 5580, Note_on_c, 1, 41, 102
6, 5639, Note_on_c, 1, 41, 0
6, 5640, Note_on_c, 1, 36, 102
6, 5699, Note_on_c, 1, 36, 0
6, 5700, Note_on_c, 1, 38, 102
6, 5759, Note_on_c, 1, 38, 0
6, 5760, Note_on_c, 1, 36, 95
6, 5878, Note_on_c, 1, 36, 0
6, 5940, Note_on_c, 1, 36, 95
6, 6058, Note_on_c, 1, 36, 0
6, 6060, Note_on_c, 1, 36, 95
6, 6119, Note_on_c, 1, 36, 0
6, 6120, Note_on_c, 1, 34, 73
6, 6179, Note_on_c, 1, 34, 0
6, 6180, Note_on_c, 1, 31, 91
6, 6239, Note_on_c, 1, 31, 0
6, 6240, Note_on_c, 1, 36, 102
6, 6358, Note_on_c, 1, 36, 0
6, 6420, Note_on_c, 1, 34, 100
6, 6479, Note_on_c, 1, 34, 0
6, 6480, Note_on_c, 1, 36, 100
6, 6539, Note_on_c, 1, 36, 0
6, 6540, Note_on_c, 1, 36, 100
6, 6599, Note_on_c, 1, 36, 0
6, 6600, Note_on_c, 1, 34, 100
6, 6718, Note_on_c, 1, 34, 0
6, 6720, Note_on_c, 1, 31, 100
6, 6838, Note_on_c, 1, 31, 0
6, 6900, Note_on_c, 1, 29, 100
6, 6959, Note_on_c, 1, 29, 0
6, 6960, Note_on_c, 1, 31, 100
6, 7019, Note_on_c, 1, 31, 0
6, 7020, Note_on_c, 1, 31, 100
6, 7079, Note_on_c, 1, 31, 0
6, 7080, Note_on_c, 1, 34, 100
6, 7198, Note_on_c, 1, 34, 0
6, 7200, Note_on_c, 1, 33, 100
6, 7318, Note_on_c, 1, 33, 0
6, 7380, Note_on_c, 1, 41, 100
6, 7558, Note_on_c, 1, 41, 0
6, 7560, Note_on_c, 1, 43, 100
6, 7619, Note_on_c, 1, 43, 0
6, 7620, Note_on_c, 1, 43, 100
6, 7679, Note_on_c, 1, 43, 0
6, 7680, Note_on_c, 1, 36, 100
6, 7858, Note_on_c, 1, 36, 0
6, 7860, Note_on_c, 1, 46, 100
6, 8038, Note_on_c, 1, 46, 0
6, 8040, Note_on_c, 1, 43, 100
6, 8158, Note_on_c, 1, 43, 0
6, 8160, Note_on_c, 1, 36, 100
6, 8278, Note_on_c, 1, 36, 0
6, 8340, Note_on_c, 1, 34, 100
6, 8399, Note_on_c, 1, 34, 0
6, 8400, Note_on_c, 1, 36, 100
6, 8459, Note_on_c, 1, 36, 0
6, 8460, Note_on_c, 1, 36, 100
6, 8519, Note_on_c, 1, 36, 0
6, 8520, Note_on_c, 1, 34, 100
6, 8638, Note_on_c, 1, 34, 0
6, 8640, Note_on_c, 1, 31, 100
6, 8758, Note_on_c, 1, 31, 0
6, 8820, Note_on_c, 1, 29, 100
6, 8879, Note_on_c, 1, 29, 0
6, 8880, Note_on_c, 1, 31, 100
6, 8939, Note_on_c, 1, 31, 0
6, 8940, Note_on_c, 1, 31, 100
6, 8999, Note_on_c, 1, 31, 0
6, 9000, Note_on_c, 1, 34, 100
6, 9118, Note_on_c, 1, 34, 0
6, 9120, Note_on_c, 1, 29, 100
6, 9238, Note_on_c, 1, 29, 0
6, 9300, Note_on_c, 1, 29, 100
6, 9359, Note_on_c, 1, 29, 0
6, 9360, Note_on_c, 1, 41, 100
6, 9419, Note_on_c, 1, 41, 0
6, 9420, Note_on_c, 1, 41, 100
6, 9479, Note_on_c, 1, 41, 0
6, 9480, Note_on_c, 1, 43, 100
6, 9598, Note_on_c, 1, 43, 0
6, 9600, Note_on_c, 1, 36, 100
6, 9718, Note_on_c, 1, 36, 0
6, 9780, Note_on_c, 1, 36, 100
6, 9898, Note_on_c, 1, 36, 0
6, 9900, Note_on_c, 1, 36, 100
6, 9959, Note_on_c, 1, 36, 0
6, 9960, Note_on_c, 1, 34, 100
6, 10019, Note_on_c, 1, 34, 0
6, 10020, Note_on_c, 1, 31, 100
6, 10079, Note_on_c, 1, 31, 0
6, 10080, Note_on_c, 1, 36, 102
6, 10198, Note_on_c, 1, 36, 0
6, 10260, Note_on_c, 1, 34, 100
6, 10319, Note_on_c, 1, 34, 0
6, 10320, Note_on_c, 1, 36, 100
6, 10379, Note_on_c, 1, 36, 0
6, 10380, Note_on_c, 1, 36, 100
6, 10439, Note_on_c, 1, 36, 0
6, 10440, Note_on_c, 1, 34, 100
6, 10558, Note_on_c, 1, 34, 0
6, 10560, Note_on_c, 1, 31, 100
6, 10678, Note_on_c, 1, 31, 0
6, 10740, Note_on_c, 1, 29, 100
6, 10799, Note_on_c, 1, 29, 0
6, 10800, Note_on_c, 1, 31, 100
6, 10859, Note_on_c, 1, 31, 0
6, 10860, Note_on_c, 1, 31, 100
6, 10919, Note_on_c, 1, 31, 0
6, 10920, Note_on_c, 1, 34, 100
6, 11038, Note_on_c, 1, 34, 0
6, 11040, Note_on_c, 1, 33, 100
6, 11158, Note_on_c, 1, 33, 0
6, 11220, Note_on_c, 1, 41, 100
6, 11398, Note_on_c, 1, 41, 0
6, 11400, Note_on_c, 1, 43, 100
6, 11459, Note_on_c, 1, 43, 0
6, 11460, Note_on_c, 1, 43, 100
6, 11519, Note_on_c, 1, 43, 0
6, 11520, Note_on_c, 1, 36, 100
6, 11698, Note_on_c, 1, 36, 0
6, 11700, Note_on_c, 1, 46, 100
6, 11878, Note_on_c, 1, 46, 0
6, 11880, Note_on_c, 1, 43, 100
6, 11998, Note_on_c, 1, 43, 0
6, 12000, Note_on_c, 1, 38, 100
6, 12118, Note_on_c, 1, 38, 0
6, 12180, Note_on_c, 1, 33, 100
6, 12239, Note_on_c, 1, 33, 0
6, 12240, Note_on_c, 1, 38, 100
6, 12299, Note_on_c, 1, 38, 0
6, 12300, Note_on_c, 1, 38, 100
6, 12359, Note_on_c, 1, 38, 0
6, 12420, Note_on_c, 1, 38, 100
6, 12479, Note_on_c, 1, 38, 0
6, 12480, Note_on_c, 1, 39, 100
6, 12598, Note_on_c, 1, 39, 0
6, 12660, Note_on_c, 1, 34, 100
6, 12719, Note_on_c, 1, 34, 0
6, 12720, Note_on_c, 1, 39, 100
6, 12779, Note_on_c, 1, 39, 0
6, 12780, Note_on_c, 1, 39, 100
6, 12839, Note_on_c, 1, 39, 0
6, 12840, Note_on_c, 1, 43, 100
6, 12958, Note_on_c, 1, 43, 0
6, 12960, Note_on_c, 1, 41, 100
6, 13078, Note_on_c, 1, 41, 0
6, 13140, Note_on_c, 1, 36, 100
6, 13199, Note_on_c, 1, 36, 0
6, 13200, Note_on_c, 1, 41, 100
6, 13259, Note_on_c, 1, 41, 0
6, 13260, Note_on_c, 1, 41, 100
6, 13378, Note_on_c, 1, 41, 0
6, 13380, Note_on_c, 1, 42, 100
6, 13617, Note_on_c, 1, 42, 0
6, 13620, Note_on_c, 1, 38, 100
6, 13798, Note_on_c, 1, 38, 0
6, 13800, Note_on_c, 1, 26, 100
6, 13918, Note_on_c, 1, 26, 0
6, 13920, Note_on_c, 1, 31, 100
6, 14038, Note_on_c, 1, 31, 0
6, 14100, Note_on_c, 1, 29, 100
6, 14159, Note_on_c, 1, 29, 0
6, 14160, Note_on_c, 1, 31, 100
6, 14219, Note_on_c, 1, 31, 0
6, 14220, Note_on_c, 1, 36, 100
6, 14279, Note_on_c, 1, 36, 0
6, 14280, Note_on_c, 1, 38, 100
6, 14398, Note_on_c, 1, 38, 0
6, 14400, Note_on_c, 1, 29, 100
6, 14459, Note_on_c, 1, 29, 0
6, 14460, Note_on_c, 1, 29, 100
6, 14519, Note_on_c, 1, 29, 0
6, 14580, Note_on_c, 1, 38, 100
6, 14639, Note_on_c, 1, 38, 0
6, 14640, Note_on_c, 1, 36, 100
6, 14758, Note_on_c, 1, 36, 0
6, 14760, Note_on_c, 1, 38, 100
6, 14878, Note_on_c, 1, 38, 0
6, 14880, Note_on_c, 1, 39, 100
6, 14998, Note_on_c, 1, 39, 0
6, 15060, Note_on_c, 1, 38, 100
6, 15119, Note_on_c, 1, 38, 0
6, 15120, Note_on_c, 1, 39, 100
6, 15179, Note_on_c, 1, 39, 0
6, 15180, Note_on_c, 1, 31, 100
6, 15239, Note_on_c, 1, 31, 0
6, 15240, Note_on_c, 1, 38, 100
6, 15299, Note_on_c, 1, 38, 0
6, 15300, Note_on_c, 1, 36, 100
6, 15359, Note_on_c, 1, 36, 0
6, 15540, Note_on_c, 1, 36, 100
6, 15599, Note_on_c, 1, 36, 0
6, 15600, Note_on_c, 1, 36, 100
6, 15659, Note_on_c, 1, 36, 0
6, 15660, Note_on_c, 1, 26, 100
6, 15719, Note_on_c, 1, 26, 0
6, 15720, Note_on_c, 1, 29, 100
6, 15779, Note_on_c, 1, 29, 0
6, 15780, Note_on_c, 1, 30, 100
6, 15839, Note_on_c, 1, 30, 0
6, 15840, Note_on_c, 1, 31, 100
6, 15958, Note_on_c, 1, 31, 0
6, 16020, Note_on_c, 1, 29, 100
6, 16079, Note_on_c, 1, 29, 0
6, 16080, Note_on_c, 1, 31, 100
6, 16139, Note_on_c, 1, 31, 0
6, 16140, Note_on_c, 1, 36, 100
6, 16199, Note_on_c, 1, 36, 0
6, 16200, Note_on_c, 1, 38, 100
6, 16318, Note_on_c, 1, 38, 0
6, 16320, Note_on_c, 1, 29, 100
6, 16379, Note_on_c, 1, 29, 0
6, 16380, Note_on_c, 1, 29, 100
6, 16439, Note_on_c, 1, 29, 0
6, 16500, Note_on_c, 1, 38, 100
6, 16559, Note_on_c, 1, 38, 0
6, 16560, Note_on_c, 1, 36, 100
6, 16678, Note_on_c, 1, 36, 0
6, 16680, Note_on_c, 1, 38, 100
6, 16798, Note_on_c, 1, 38, 0
6, 16800, Note_on_c, 1, 39, 100
6, 16918, Note_on_c, 1, 39, 0
6, 16980, Note_on_c, 1, 38, 100
6, 17039, Note_on_c, 1, 38, 0
6, 17040, Note_on_c, 1, 39, 100
6, 17099, Note_on_c, 1, 39, 0
6, 17100, Note_on_c, 1, 31, 100
6, 17159, Note_on_c, 1, 31, 0
6, 17160, Note_on_c, 1, 38, 100
6, 17219, Note_on_c, 1, 38, 0
6, 17220, Note_on_c, 1, 36, 100
6, 17279, Note_on_c, 1, 36, 0
6, 17280, Note_on_c, 1, 48, 100
6, 17458, Note_on_c, 1, 48, 0
6, 17460, Note_on_c, 1, 34, 100
6, 17519, Note_on_c, 1, 34, 0
6, 17520, Note_on_c, 1, 36, 100
6, 17579, Note_on_c, 1, 36, 0
6, 17580, Note_on_c, 1, 26, 100
6, 17639, Note_on_c, 1, 26, 0
6, 17640, Note_on_c, 1, 27, 100
6, 17699, Note_on_c, 1, 27, 0
6, 17700, Note_on_c, 1, 29, 100
6, 17759, Note_on_c, 1, 29, 0
6, 17760, Note_on_c, 1, 31, 100
6, 17878, Note_on_c, 1, 31, 0
6, 17940, Note_on_c, 1, 29, 100
6, 17999, Note_on_c, 1, 29, 0
6, 18000, Note_on_c, 1, 31, 100
6, 18059, Note_on_c, 1, 31, 0
6, 18060, Note_on_c, 1, 36, 100
6, 18119, Note_on_c, 1, 36, 0
6, 18120, Note_on_c, 1, 38, 100
6, 18238, Note_on_c, 1, 38, 0
6, 18240, Note_on_c, 1, 29, 100
6, 18299, Note_on_c, 1, 29, 0
6, 18300, Note_on_c, 1, 29, 100
6, 18359, Note_on_c, 1, 29, 0
6, 18420, Note_on_c, 1, 38, 100
6, 18479, Note_on_c, 1, 38, 0
6, 18480, Note_on_c, 1, 36, 100
6, 18598, Note_on_c, 1, 36, 0
6, 18600, Note_on_c, 1, 38, 100
6, 18718, Note_on_c, 1, 38, 0
6, 18720, Note_on_c, 1, 39, 100
6, 18838, Note_on_c, 1, 39, 0
6, 18900, Note_on_c, 1, 38, 100
6, 18959, Note_on_c, 1, 38, 0
6, 18960, Note_on_c, 1, 39, 100
6, 19019, Note_on_c, 1, 39, 0
6, 19020, Note_on_c, 1, 31, 100
6, 19079, Note_on_c, 1, 31, 0
6, 19080, Note_on_c, 1, 38, 100
6, 19139, Note_on_c, 1, 38, 0
6, 19140, Note_on_c, 1, 36, 100
6, 19199, Note_on_c, 1, 36, 0
6, 19380, Note_on_c, 1, 34, 100
6, 19439, Note_on_c, 1, 34, 0
6, 19440, Note_on_c, 1, 36, 100
6, 19499, Note_on_c, 1, 36, 0
6, 19500, Note_on_c, 1, 36, 100
6, 19559, Note_on_c, 1, 36, 0
6, 19560, Note_on_c, 1, 34, 100
6, 19678, Note_on_c, 1, 34, 0
6, 19680, Note_on_c, 1, 31, 100
6, 19798, Note_on_c, 1, 31, 0
6, 19860, Note_on_c, 1, 29, 100
6, 19919, Note_on_c, 1, 29, 0
6, 19920, Note_on_c, 1, 31, 100
6, 19979, Note_on_c, 1, 31, 0
6, 19980, Note_on_c, 1, 36, 100
6, 20039, Note_on_c, 1, 36, 0
6, 20040, Note_on_c, 1, 38, 100
6, 20099, Note_on_c, 1, 38, 0
6, 20100, Note_on_c, 1, 29, 100
6, 20159, Note_on_c, 1, 29, 0
6, 20160, Note_on_c, 1, 29, 100
6, 20219, Note_on_c, 1, 29, 0
6, 20220, Note_on_c, 1, 29, 100
6, 20279, Note_on_c, 1, 29, 0
6, 20340, Note_on_c, 1, 38, 100
6, 20399, Note_on_c, 1, 38, 0
6, 20400, Note_on_c, 1, 36, 100
6, 20518, Note_on_c, 1, 36, 0
6, 20520, Note_on_c, 1, 41, 100
6, 20638, Note_on_c, 1, 41, 0
6, 20640, Note_on_c, 1, 39, 100
6, 20758, Note_on_c, 1, 39, 0
6, 20820, Note_on_c, 1, 38, 100
6, 20879, Note_on_c, 1, 38, 0
6, 20880, Note_on_c, 1, 39, 100
6, 20939, Note_on_c, 1, 39, 0
6, 20940, Note_on_c, 1, 31, 100
6, 20999, Note_on_c, 1, 31, 0
6, 21000, Note_on_c, 1, 38, 100
6, 21059, Note_on_c, 1, 38, 0
6, 21060, Note_on_c, 1, 36, 100
6, 21119, Note_on_c, 1, 36, 0
6, 21300, Note_on_c, 1, 34, 100
6, 21359, Note_on_c, 1, 34, 0
6, 21360, Note_on_c, 1, 36, 100
6, 21419, Note_on_c, 1, 36, 0
6, 21420, Note_on_c, 1, 36, 100
6, 21479, Note_on_c, 1, 36, 0
6, 21480, Note_on_c, 1, 34, 100
6, 21598, Note_on_c, 1, 34, 0
6, 21600, Note_on_c, 1, 36, 100
6, 21718, Note_on_c, 1, 36, 0
6, 21780, Note_on_c, 1, 34, 100
6, 21839, Note_on_c, 1, 34, 0
6, 21840, Note_on_c, 1, 36, 100
6, 21899, Note_on_c, 1, 36, 0
6, 21900, Note_on_c, 1, 36, 100
6, 21959, Note_on_c, 1, 36, 0
6, 21960, Note_on_c, 1, 34, 100
6, 22078, Note_on_c, 1, 34, 0
6, 22080, Note_on_c, 1, 31, 100
6, 22198, Note_on_c, 1, 31, 0
6, 22260, Note_on_c, 1, 29, 100
6, 22319, Note_on_c, 1, 29, 0
6, 22320, Note_on_c, 1, 31, 100
6, 22379, Note_on_c, 1, 31, 0
6, 22380, Note_on_c, 1, 31, 100
6, 22439, Note_on_c, 1, 31, 0
6, 22440, Note_on_c, 1, 34, 100
6, 22558, Note_on_c, 1, 34, 0
6, 22560, Note_on_c, 1, 29, 102
6, 22678, Note_on_c, 1, 29, 0
6, 22740, Note_on_c, 1, 29, 102
6, 22799, Note_on_c, 1, 29, 0
6, 22800, Note_on_c, 1, 41, 102
6, 22859, Note_on_c, 1, 41, 0
6, 22860, Note_on_c, 1, 41, 102
6, 22919, Note_on_c, 1, 41, 0
6, 22920, Note_on_c, 1, 36, 102
6, 22979, Note_on_c, 1, 36, 0
6, 22980, Note_on_c, 1, 38, 102
6, 23039, Note_on_c, 1, 38, 0
6, 23040, Note_on_c, 1, 36, 95
6, 23158, Note_on_c, 1, 36, 0
6, 23220, Note_on_c, 1, 36, 95
6, 23338, Note_on_c, 1, 36, 0
6, 23340, Note_on_c, 1, 36, 95
6, 23399, Note_on_c, 1, 36, 0
6, 23400, Note_on_c, 1, 34, 73
6, 23459, Note_on_c, 1, 34, 0
6, 23460, Note_on_c, 1, 31, 91
6, 23519, Note_on_c, 1, 31, 0
6, 23520, Note_on_c, 1, 36, 102
6, 23638, Note_on_c, 1, 36, 0
6, 23700, Note_on_c, 1, 34, 100
6, 23759, Note_on_c, 1, 34, 0
6, 23760, Note_on_c, 1, 36, 100
6, 23819, Note_on_c, 1, 36, 0
6, 23820, Note_on_c, 1, 36, 100
6, 23879, Note_on_c, 1, 36, 0
6, 23880, Note_on_c, 1, 34, 100
6, 23998, Note_on_c, 1, 34, 0
6, 24000, Note_on_c, 1, 31, 100
6, 24118, Note_on_c, 1, 31, 0
6, 24180, Note_on_c, 1, 29, 100
6, 24239, Note_on_c, 1, 29, 0
6, 24240, Note_on_c, 1, 31, 100
6, 24299, Note_on_c, 1, 31, 0
6, 24300, Note_on_c, 1, 31, 100
6, 24359, Note_on_c, 1, 31, 0
6, 24360, Note_on_c, 1, 34, 100
6, 24478, Note_on_c, 1, 34, 0
6, 24480, Note_on_c, 1, 33, 100
6, 24598, Note_on_c, 1, 33, 0
6, 24660, Note_on_c, 1, 41, 100
6, 24838, Note_on_c, 1, 41, 0
6, 24840, Note_on_c, 1, 43, 100
6, 24899, Note_on_c, 1, 43, 0
6, 24900, Note_on_c, 1, 43, 100
6, 24959, Note_on_c, 1, 43, 0
6, 24960, Note_on_c, 1, 36, 100
6, 25138, Note_on_c, 1, 36, 0
6, 25140, Note_on_c, 1, 46, 100
6, 25318, Note_on_c, 1, 46, 0
6, 25320, Note_on_c, 1, 43, 100
6, 25438, Note_on_c, 1, 43, 0
6, 25440, Note_on_c, 1, 36, 100
6, 25558, Note_on_c, 1, 36, 0
6, 25620, Note_on_c, 1, 34, 100
6, 25679, Note_on_c, 1, 34, 0
6, 25680, Note_on_c, 1, 36, 100
6, 25739, Note_on_c, 1, 36, 0
6, 25740, Note_on_c, 1, 36, 100
6, 25799, Note_on_c, 1, 36, 0
6, 25800, Note_on_c, 1, 34, 100
6, 25918, Note_on_c, 1, 34, 0
6, 25920, Note_on_c, 1, 31, 100
6, 26038, Note_on_c, 1, 31, 0
6, 26100, Note_on_c, 1, 29, 100
6, 26159, Note_on_c, 1, 29, 0
6, 26160, Note_on_c, 1, 31, 100
6, 26219, Note_on_c, 1, 31, 0
6, 26220, Note_on_c, 1, 31, 100
6, 26279, Note_on_c, 1, 31, 0
6, 26280, Note_on_c, 1, 34, 100
6, 26398, Note_on_c, 1, 34, 0
6, 26400, Note_on_c, 1, 29, 100
6, 26518, Note_on_c, 1, 29, 0
6, 26580, Note_on_c, 1, 29, 100
6, 26639, Note_on_c, 1, 29, 0
6, 26640, Note_on_c, 1, 41, 100
6, 26699, Note_on_c, 1, 41, 0
6, 26700, Note_on_c, 1, 41, 100
6, 26759, Note_on_c, 1, 41, 0
6, 26760, Note_on_c, 1, 43, 100
6, 26878, Note_on_c, 1, 43, 0
6, 26880, Note_on_c, 1, 36, 100
6, 26998, Note_on_c, 1, 36, 0
6, 27060, Note_on_c, 1, 36, 100
6, 27178, Note_on_c, 1, 36, 0
6, 27180, Note_on_c, 1, 36, 100
6, 27239, Note_on_c, 1, 36, 0
6, 27240, Note_on_c, 1, 34, 100
6, 27299, Note_on_c, 1, 34, 0
6, 27300, Note_on_c, 1, 31, 100
6, 27359, Note_on_c, 1, 31, 0
6, 27360, Note_on_c, 1, 36, 102
6, 27478, Note_on_c, 1, 36, 0
6, 27540, Note_on_c, 1, 34, 100
6, 27599, Note_on_c, 1, 34, 0
6, 27600, Note_on_c, 1, 36, 100
6, 27659, Note_on_c, 1, 36, 0
6, 27660, Note_on_c, 1, 36, 100
6, 27719, Note_on_c, 1, 36, 0
6, 27720, Note_on_c, 1, 34, 100
6, 27838, Note_on_c, 1, 34, 0
6, 27840, Note_on_c, 1, 31, 100
6, 27958, Note_on_c, 1, 31, 0
6, 28020, Note_on_c, 1, 29, 100
6, 28079, Note_on_c, 1, 29, 0
6, 28080, Note_on_c, 1, 31, 100
6, 28139, Note_on_c, 1, 31, 0
6, 28140, Note_on_c, 1, 31, 100
6, 28199, Note_on_c, 1, 31, 0
6, 28200, Note_on_c, 1, 34, 100
6, 28318, Note_on_c, 1, 34, 0
6, 28320, Note_on_c, 1, 33, 100
6, 28438, Note_on_c, 1, 33, 0
6, 28500, Note_on_c, 1, 41, 100
6, 28678, Note_on_c, 1, 41, 0
6, 28680, Note_on_c, 1, 43, 100
6, 28739, Note_on_c, 1, 43, 0
6, 28740, Note_on_c, 1, 43, 100
6, 28799, Note_on_c, 1, 43, 0
6, 28800, Note_on_c, 1, 36, 100
6, 28978, Note_on_c, 1, 36, 0
6, 28980, Note_on_c, 1, 46, 100
6, 29158, Note_on_c, 1, 46, 0
6, 29160, Note_on_c, 1, 43, 100
6, 29278, Note_on_c, 1, 43, 0
6, 29280, Note_on_c, 1, 38, 100
6, 29398, Note_on_c, 1, 38, 0
6, 29460, Note_on_c, 1, 33, 100
6, 29519, Note_on_c, 1, 33, 0
6, 29520, Note_on_c, 1, 38, 100
6, 29579, Note_on_c, 1, 38, 0
6, 29580, Note_on_c, 1, 38, 100
6, 29639, Note_on_c, 1, 38, 0
6, 29700, Note_on_c, 1, 38, 100
6, 29759, Note_on_c, 1, 38, 0
6, 29760, Note_on_c, 1, 39, 100
6, 29878, Note_on_c, 1, 39, 0
6, 29940, Note_on_c, 1, 34, 100
6, 29999, Note_on_c, 1, 34, 0
6, 30000, Note_on_c, 1, 39, 100
6, 30059, Note_on_c, 1, 39, 0
6, 30060, Note_on_c, 1, 39, 100
6, 30119, Note_on_c, 1, 39, 0
6, 30120, Note_on_c, 1, 43, 100
6, 30238, Note_on_c, 1, 43, 0
6, 30240, Note_on_c, 1, 41, 100
6, 30358, Note_on_c, 1, 41, 0
6, 30420, Note_on_c, 1, 36, 100
6, 30479, Note_on_c, 1, 36, 0
6, 30480, Note_on_c, 1, 41, 100
6, 30539, Note_on_c, 1, 41, 0
6, 30540, Note_on_c, 1, 41, 100
6, 30658, Note_on_c, 1, 41, 0
6, 30660, Note_on_c, 1, 42, 100
6, 30897, Note_on_c, 1, 42, 0
6, 30900, Note_on_c, 1, 38, 100
6, 31078, Note_on_c, 1, 38, 0
6, 31080, Note_on_c, 1, 26, 100
6, 31198, Note_on_c, 1, 26, 0
6, 31200, Note_on_c, 1, 31, 100
6, 31318, Note_on_c, 1, 31, 0
6, 31380, Note_on_c, 1, 29, 100
6, 31439, Note_on_c, 1, 29, 0
6, 31440, Note_on_c, 1, 31, 100
6, 31499, Note_on_c, 1, 31, 0
6, 31500, Note_on_c, 1, 36, 100
6, 31559, Note_on_c, 1, 36, 0
6, 31560, Note_on_c, 1, 38, 100
6, 31678, Note_on_c, 1, 38, 0
6, 31680, Note_on_c, 1, 29, 100
6, 31739, Note_on_c, 1, 29, 0
6, 31740, Note_on_c, 1, 29, 100
6, 31799, Note_on_c, 1, 29, 0
6, 31860, Note_on_c, 1, 38, 100
6, 31919, Note_on_c, 1, 38, 0
6, 31920, Note_on_c, 1, 36, 100
6, 32038, Note_on_c, 1, 36, 0
6, 32040, Note_on_c, 1, 38, 100
6, 32158, Note_on_c, 1, 38, 0
6, 32160, Note_on_c, 1, 39, 100
6, 32278, Note_on_c, 1, 39, 0
6, 32340, Note_on_c, 1, 38, 100
6, 32399, Note_on_c, 1, 38, 0
6, 32400, Note_on_c, 1, 39, 100
6, 32459, Note_on_c, 1, 39, 0
6, 32460, Note_on_c, 1, 31, 100
6, 32519, Note_on_c, 1, 31, 0
6, 32520, Note_on_c, 1, 38, 100
6, 32579, Note_on_c, 1, 38, 0
6, 32580, Note_on_c, 1, 36, 100
6, 32639, Note_on_c, 1, 36, 0
6, 32820, Note_on_c, 1, 36, 100
6, 32879, Note_on_c, 1, 36, 0
6, 32880, Note_on_c, 1, 36, 100
6, 32939, Note_on_c, 1, 36, 0
6, 32940, Note_on_c, 1, 26, 100
6, 32999, Note_on_c, 1, 26, 0
6, 33000, Note_on_c, 1, 29, 100
6, 33059, Note_on_c, 1, 29, 0
6, 33060, Note_on_c, 1, 30, 100
6, 33119, Note_on_c, 1, 30, 0
6, 33120, Note_on_c, 1, 31, 100
6, 33238, Note_on_c, 1, 31, 0
6, 33300, Note_on_c, 1, 29, 100
6, 33359, Note_on_c, 1, 29, 0
6, 33360, Note_on_c, 1, 31, 100
6, 33419, Note_on_c, 1, 31, 0
6, 33420, Note_on_c, 1, 36, 100
6, 33479, Note_on_c, 1, 36, 0
6, 33480, Note_on_c, 1, 38, 100
6, 33598, Note_on_c, 1, 38, 0
6, 33600, Note_on_c, 1, 29, 100
6, 33659, Note_on_c, 1, 29, 0
6, 33660, Note_on_c, 1, 29, 100
6, 33719, Note_on_c, 1, 29, 0
6, 33780, Note_on_c, 1, 38, 100
6, 33839, Note_on_c, 1, 38, 0
6, 33840, Note_on_c, 1, 36, 100
6, 33958, Note_on_c, 1, 36, 0
6, 33960, Note_on_c, 1, 38, 100
6, 34078, Note_on_c, 1, 38, 0
6, 34080, Note_on_c, 1, 39, 100
6, 34198, Note_on_c, 1, 39, 0
6, 34260, Note_on_c, 1, 38, 100
6, 34319, Note_on_c, 1, 38, 0
6, 34320, Note_on_c, 1, 39, 100
6, 34379, Note_on_c, 1, 39, 0
6, 34380, Note_on_c, 1, 31, 100
6, 34439, Note_on_c, 1, 31, 0
6, 34440, Note_on_c, 1, 38, 100
6, 34499, Note_on_c, 1, 38, 0
6, 34500, Note_on_c, 1, 36, 100
6, 34559, Note_on_c, 1, 36, 0
6, 34560, Note_on_c, 1, 48, 100
6, 34738, Note_on_c, 1, 48, 0
6, 34740, Note_on_c, 1, 34, 100
6, 34799, Note_on_c, 1, 34, 0
6, 34800, Note_on_c, 1, 36, 100
6, 34859, Note_on_c, 1, 36, 0
6, 34860, Note_on_c, 1, 26, 100
6, 34919, Note_on_c, 1, 26, 0
6, 34920, Note_on_c, 1, 27, 100
6, 34979, Note_on_c, 1, 27, 0
6, 34980, Note_on_c, 1, 29, 100
6, 35039, Note_on_c, 1, 29, 0
6, 35040, Note_on_c, 1, 31, 100
6, 35158, Note_on_c, 1, 31, 0
6, 35220, Note_on_c, 1, 29, 100
6, 35279, Note_on_c, 1, 29, 0
6, 35280, Note_on_c, 1, 31, 100
6, 35339, Note_on_c, 1, 31, 0
6, 35340, Note_on_c, 1, 36, 100
6, 35399, Note_on_c, 1, 36, 0
6, 35400, Note_on_c, 1, 38, 100
6, 35518, Note_on_c, 1, 38, 0
6, 35520, Note_on_c, 1, 29, 100
6, 35579, Note_on_c, 1, 29, 0
6, 35580, Note_on_c, 1, 29, 100
6, 35639, Note_on_c, 1, 29, 0
6, 35700, Note_on_c, 1, 38, 100
6, 35759, Note_on_c, 1, 38, 0
6, 35760, Note_on_c, 1, 36, 100
6, 35878, Note_on_c, 1, 36, 0
6, 35880, Note_on_c, 1, 38, 100
6, 35998, Note_on_c, 1, 38, 0
6, 36000, Note_on_c, 1, 39, 100
6, 36118, Note_on_c, 1, 39, 0
6, 36180, Note_on_c, 1, 38, 100
6, 36239, Note_on_c, 1, 38, 0
6, 36240, Note_on_c, 1, 39, 100
6, 36299, Note_on_c, 1, 39, 0
6, 36300, Note_on_c, 1, 31, 100
6, 36359, Note_on_c, 1, 31, 0
6, 36360, Note_on_c, 1, 38, 100
6, 36419, Note_on_c, 1, 38, 0
6, 36420, Note_on_c, 1, 36, 100
6, 36479, Note_on_c, 1, 36, 0
6, 36660, Note_on_c, 1, 34, 100
6, 36719, Note_on_c, 1, 34, 0
6, 36720, Note_on_c, 1, 36, 100
6, 36779, Note_on_c, 1, 36, 0
6, 36780, Note_on_c, 1, 36, 100
6, 36839, Note_on_c, 1, 36, 0
6, 36840, Note_on_c, 1, 34, 100
6, 36958, Note_on_c, 1, 34, 0
6, 36960, Note_on_c, 1, 31, 100
6, 37078, Note_on_c, 1, 31, 0
6, 37140, Note_on_c, 1, 29, 100
6, 37199, Note_on_c, 1, 29, 0
6, 37200, Note_on_c, 1, 31, 100
6, 37259, Note_on_c, 1, 31, 0
6, 37260, Note_on_c, 1, 36, 100
6, 37319, Note_on_c, 1, 36, 0
6, 37320, Note_on_c, 1, 38, 100
6, 37379, Note_on_c, 1, 38, 0
6, 37380, Note_on_c, 1, 29, 100
6, 37439, Note_on_c, 1, 29, 0
6, 37440, Note_on_c, 1, 29, 100
6, 37499, Note_on_c, 1, 29, 0
6, 37500, Note_on_c, 1, 29, 100
6, 37559, Note_on_c, 1, 29, 0
6, 37620, Note_on_c, 1, 38, 100
6, 37679, Note_on_c, 1, 38, 0
6, 37680, Note_on_c, 1, 36, 100
6, 37798, Note_on_c, 1, 36, 0
6, 37800, Note_on_c, 1, 41, 100
6, 37918, Note_on_c, 1, 41, 0
6, 37920, Note_on_c, 1, 39, 100
6, 38038, Note_on_c, 1, 39, 0
6, 38100, Note_on_c, 1, 38, 100
6, 38159, Note_on_c, 1, 38, 0
6, 38160, Note_on_c, 1, 39, 100
6, 38219, Note_on_c, 1, 39, 0
6, 38220, Note_on_c, 1, 31, 100
6, 38279, Note_on_c, 1, 31, 0
6, 38280, Note_on_c, 1, 38, 100
6, 38339, Note_on_c, 1, 38, 0
6, 38340, Note_on_c, 1, 36, 100
6, 38399, Note_on_c, 1, 36, 0
6, 38580, Note_on_c, 1, 34, 100
6, 38639, Note_on_c, 1, 34, 0
6, 38640, Note_on_c, 1, 36, 100
6, 38699, Note_on_c, 1, 36, 0
6, 38700, Note_on_c, 1, 36, 100
6, 38759, Note_on_c, 1, 36, 0
6, 38760, Note_on_c, 1, 34, 100
6, 38878, Note_on_c, 1, 34, 0
6, 38880, Note_on_c, 1, 31, 84
6, 39058, Note_on_c, 1, 31, 0
6, 39060, Note_on_c, 1, 31, 87
6, 39119, Note_on_c, 1, 31, 0
6, 39120, Note_on_c, 1, 31, 87
6, 39298, Note_on_c, 1, 31, 0
6, 39300, Note_on_c, 1, 31, 91
6, 39359, Note_on_c, 1, 31, 0
6, 39540, Note_on_c, 1, 31, 95
6, 39599, Note_on_c, 1, 31, 0
6, 39600, Note_on_c, 1, 31, 95
6, 39718, Note_on_c, 1, 31, 0
6, 39720, Note_on_c, 1, 43, 87
6, 39838, Note_on_c, 1, 43, 0
6, 39840, Note_on_c, 1, 31, 84
6, 40018, Note_on_c, 1, 31, 0
6, 40020, Note_on_c, 1, 31, 87
6, 40079, Note_on_c, 1, 31, 0
6, 40080, Note_on_c, 1, 31, 87
6, 40258, Note_on_c, 1, 31, 0
6, 40260, Note_on_c, 1, 31, 91
6, 40319, Note_on_c, 1, 31, 0
6, 40500, Note_on_c, 1, 31, 95
6, 40559, Note_on_c, 1, 31, 0
6, 40560, Note_on_c, 1, 31, 95
6, 40678, Note_on_c, 1, 31, 0
6, 40680, Note_on_c, 1, 43, 87
6, 40798, Note_on_c, 1, 43, 0
6, 40800, Note_on_c, 1, 31, 84
6, 40978, Note_on_c, 1, 31, 0
6, 40980, Note_on_c, 1, 31, 87
6, 41039, Note_on_c, 1, 31, 0
6, 41040, Note_on_c, 1, 31, 87
6, 41218, Note_on_c, 1, 31, 0
6, 41220, Note_on_c, 1, 31, 91
6, 41279, Note_on_c, 1, 31, 0
6, 41460, Note_on_c, 1, 31, 95
6, 41519, Note_on_c, 1, 31, 0
6, 41520, Note_on_c, 1, 31, 95
6, 41638, Note_on_c, 1, 31, 0
6, 41640, Note_on_c, 1, 43, 87
6, 41758, Note_on_c, 1, 43, 0
6, 42720, Note_on_c, 1, 31, 95
6, 42838, Note_on_c, 1, 31, 0
6, 42900, Note_on_c, 1, 29, 64
6, 42959, Note_on_c, 1, 29, 0
6, 42960, Note_on_c, 1, 31, 87
6, 43019, Note_on_c, 1, 31, 0
6, 43020, Note_on_c, 1, 36, 91
6, 43079, Note_on_c, 1, 36, 0
6, 43080, Note_on_c, 1, 38, 95
6, 43198, Note_on_c, 1, 38, 0
6, 43200, Note_on_c, 1, 29, 79
6, 43259, Note_on_c, 1, 29, 0
6, 43260, Note_on_c, 1, 29, 95
6, 43319, Note_on_c, 1, 29, 0
6, 43380, Note_on_c, 1, 38, 87
6, 43439, Note_on_c, 1, 38, 0
6, 43440, Note_on_c, 1, 36, 87
6, 43558, Note_on_c, 1, 36, 0
6, 43560, Note_on_c, 1, 38, 95
6, 43678, Note_on_c, 1, 38, 0
6, 43680, Note_on_c, 1, 39, 87
6, 43798, Note_on_c, 1, 39, 0
6, 43860, Note_on_c, 1, 38, 91
6, 43919, Note_on_c, 1, 38, 0
6, 43920, Note_on_c, 1, 39, 84
6, 43979, Note_on_c, 1, 39, 0
6, 43980, Note_on_c, 1, 31, 87
6, 44039, Note_on_c, 1, 31, 0
6, 44040, Note_on_c, 1, 38, 84
6, 44099, Note_on_c, 1, 38, 0
6, 44100, Note_on_c, 1, 36, 103
6, 44278, Note_on_c, 1, 36, 0
6, 44280, Note_on_c, 1, 36, 95
6, 44398, Note_on_c, 1, 36, 0
6, 44400, Note_on_c, 1, 34, 87
6, 44459, Note_on_c, 1, 34, 0
6, 44460, Note_on_c, 1, 26, 91
6, 44519, Note_on_c, 1, 26, 0
6, 44520, Note_on_c, 1, 29, 84
6, 44579, Note_on_c, 1, 29, 0
6, 44580, Note_on_c, 1, 30, 95
6, 44639, Note_on_c, 1, 30, 0
6, 44640, Note_on_c, 1, 31, 95
6, 44758, Note_on_c, 1, 31, 0
6, 44820, Note_on_c, 1, 29, 64
6, 44879, Note_on_c, 1, 29, 0
6, 44880, Note_on_c, 1, 31, 87
6, 44939, Note_on_c, 1, 31, 0
6, 44940, Note_on_c, 1, 36, 91
6, 44999, Note_on_c, 1, 36, 0
6, 45000, Note_on_c, 1, 38, 95
6, 45118, Note_on_c, 1, 38, 0
6, 45120, Note_on_c, 1, 29, 79
6, 45179, Note_on_c, 1, 29, 0
6, 45180, Note_on_c, 1, 29, 95
6, 45239, Note_on_c, 1, 29, 0
6, 45300, Note_on_c, 1, 38, 87
6, 45359, Note_on_c, 1, 38, 0
6, 45360, Note_on_c, 1, 36, 87
6, 45478, Note_on_c, 1, 36, 0
6, 45480, Note_on_c, 1, 38, 95
6, 45598, Note_on_c, 1, 38, 0
6, 45600, Note_on_c, 1, 39, 87
6, 45718, Note_on_c, 1, 39, 0
6, 45780, Note_on_c, 1, 38, 91
6, 45839, Note_on_c, 1, 38, 0
6, 45840, Note_on_c, 1, 39, 84
6, 45899, Note_on_c, 1, 39, 0
6, 45900, Note_on_c, 1, 31, 87
6, 45959, Note_on_c, 1, 31, 0
6, 45960, Note_on_c, 1, 38, 84
6, 46019, Note_on_c, 1, 38, 0
6, 46020, Note_on_c, 1, 36, 103
6, 46198, Note_on_c, 1, 36, 0
6, 46260, Note_on_c, 1, 36, 87
6, 46319, Note_on_c, 1, 36, 0
6, 46320, Note_on_c, 1, 36, 82
6, 46379, Note_on_c, 1, 36, 0
6, 46380, Note_on_c, 1, 38, 79
6, 46439, Note_on_c, 1, 38, 0
6, 46440, Note_on_c, 1, 29, 76
6, 46558, Note_on_c, 1, 29, 0
6, 46560, Note_on_c, 1, 31, 100
6, 46678, Note_on_c, 1, 31, 0
6, 46740, Note_on_c, 1, 29, 100
6, 46799, Note_on_c, 1, 29, 0
6, 46800, Note_on_c, 1, 31, 100
6, 46859, Note_on_c, 1, 31, 0
6, 46860, Note_on_c, 1, 36, 100
6, 46919, Note_on_c, 1, 36, 0
6, 46920, Note_on_c, 1, 38, 100
6, 47038, Note_on_c, 1, 38, 0
6, 47040, Note_on_c, 1, 29, 100
6, 47099, Note_on_c, 1, 29, 0
6, 47100, Note_on_c, 1, 29, 100
6, 47159, Note_on_c, 1, 29, 0
6, 47220, Note_on_c, 1, 38, 100
6, 47279, Note_on_c, 1, 38, 0
6, 47280, Note_on_c, 1, 36, 100
6, 47398, Note_on_c, 1, 36, 0
6, 47400, Note_on_c, 1, 38, 100
6, 47518, Note_on_c, 1, 38, 0
6, 47520, Note_on_c, 1, 39, 100
6, 47638, Note_on_c, 1, 39, 0
6, 47700, Note_on_c, 1, 38, 100
6, 47759, Note_on_c, 1, 38, 0
6, 47760, Note_on_c, 1, 39, 100
6, 47819, Note_on_c, 1, 39, 0
6, 47820, Note_on_c, 1, 31, 100
6, 47879, Note_on_c, 1, 31, 0
6, 47880, Note_on_c, 1, 38, 100
6, 47939, Note_on_c, 1, 38, 0
6, 47940, Note_on_c, 1, 36, 100
6, 47999, Note_on_c, 1, 36, 0
6, 48180, Note_on_c, 1, 36, 100
6, 48239, Note_on_c, 1, 36, 0
6, 48240, Note_on_c, 1, 36, 100
6, 48299, Note_on_c, 1, 36, 0
6, 48300, Note_on_c, 1, 26, 100
6, 48359, Note_on_c, 1, 26, 0
6, 48360, Note_on_c, 1, 29, 100
6, 48419, Note_on_c, 1, 29, 0
6, 48420, Note_on_c, 1, 30, 100
6, 48479, Note_on_c, 1, 30, 0
6, 48480, Note_on_c, 1, 31, 100
6, 48598, Note_on_c, 1, 31, 0
6, 48660, Note_on_c, 1, 29, 100
6, 48719, Note_on_c, 1, 29, 0
6, 48720, Note_on_c, 1, 31, 100
6, 48779, Note_on_c, 1, 31, 0
6, 48780, Note_on_c, 1, 36, 100
6, 48839, Note_on_c, 1, 36, 0
6, 48840, Note_on_c, 1, 38, 100
6, 48958, Note_on_c, 1, 38, 0
6, 48960, Note_on_c, 1, 29, 100
6, 49019, Note_on_c, 1, 29, 0
6, 49020, Note_on_c, 1, 29, 100
6, 49079, Note_on_c, 1, 29, 0
6, 49140, Note_on_c, 1, 38, 100
6, 49199, Note_on_c, 1, 38, 0
6, 49200, Note_on_c, 1, 36, 100
6, 49318, Note_on_c, 1, 36, 0
6, 49320, Note_on_c, 1, 38, 100
6, 49438, Note_on_c, 1, 38, 0
6, 49440, Note_on_c, 1, 39, 100
6, 49558, Note_on_c, 1, 39, 0
6, 49620, Note_on_c, 1, 38, 100
6, 49679, Note_on_c, 1, 38, 0
6, 49680, Note_on_c, 1, 39, 100
6, 49739, Note_on_c, 1, 39, 0
6, 49740, Note_on_c, 1, 31, 100
6, 49799, Note_on_c, 1, 31, 0
6, 49800, Note_on_c, 1, 38, 100
6, 49859, Note_on_c, 1, 38, 0
6, 49860, Note_on_c, 1, 36, 100
6, 49919, Note_on_c, 1, 36, 0
6, 49920, Note_on_c, 1, 48, 100
6, 50098, Note_on_c, 1, 48, 0
6, 50100, Note_on_c, 1, 34, 100
6, 50159, Note_on_c, 1, 34, 0
6, 50160, Note_on_c, 1, 36, 100
6, 50219, Note_on_c, 1, 36, 0
6, 50220, Note_on_c, 1, 26, 100
6, 50279, Note_on_c, 1, 26, 0
6, 50280, Note_on_c, 1, 27, 100
6, 50339, Note_on_c, 1, 27, 0
6, 50340, Note_on_c, 1, 29, 100
6, 50399, Note_on_c, 1, 29, 0
6, 50400, Note_on_c, 1, 31, 100
6, 50518, Note_on_c, 1, 31, 0
6, 50580, Note_on_c, 1, 29, 100
6, 50639, Note_on_c, 1, 29, 0
6, 50640, Note_on_c, 1, 31, 100
6, 50699, Note_on_c, 1, 31, 0
6, 50700, Note_on_c, 1, 36, 100
6, 50759, Note_on_c, 1, 36, 0
6, 50760, Note_on_c, 1, 38, 100
6, 50878, Note_on_c, 1, 38, 0
6, 50880, Note_on_c, 1, 29, 100
6, 50939, Note_on_c, 1, 29, 0
6, 50940, Note_on_c, 1, 29, 100
6, 50999, Note_on_c, 1, 29, 0
6, 51060, Note_on_c, 1, 38, 100
6, 51119, Note_on_c, 1, 38, 0
6, 51120, Note_on_c, 1, 36, 100
6, 51238, Note_on_c, 1, 36, 0
6, 51240, Note_on_c, 1, 38, 100
6, 51358, Note_on_c, 1, 38, 0
6, 51360, Note_on_c, 1, 39, 100
6, 51478, Note_on_c, 1, 39, 0
6, 51540, Note_on_c, 1, 38, 100
6, 51599, Note_on_c, 1, 38, 0
6, 51600, Note_on_c, 1, 39, 100
6, 51659, Note_on_c, 1, 39, 0
6, 51660, Note_on_c, 1, 31, 100
6, 51719, Note_on_c, 1, 31, 0
6, 51720, Note_on_c, 1, 38, 100
6, 51779, Note_on_c, 1, 38, 0
6, 51780, Note_on_c, 1, 36, 100
6, 51839, Note_on_c, 1, 36, 0
6, 52020, Note_on_c, 1, 36, 100
6, 52079, Note_on_c, 1, 36, 0
6, 52080, Note_on_c, 1, 36, 100
6, 52139, Note_on_c, 1, 36, 0
6, 52140, Note_on_c, 1, 26, 100
6, 52199, Note_on_c, 1, 26, 0
6, 52200, Note_on_c, 1, 29, 100
6, 52259, Note_on_c, 1, 29, 0
6, 52260, Note_on_c, 1, 30, 100
6, 52312, Control_c, 1, 11, 99
6, 52319, Note_on_c, 1, 30, 0
6, 52320, Note_on_c, 1, 31, 100
6, 52327, Control_c, 1, 11, 98
6, 52357, Control_c, 1, 11, 97
6, 52387, Control_c, 1, 11, 96
6, 52425, Control_c, 1, 11, 95
6, 52438, Note_on_c, 1, 31, 0
6, 52455, Control_c, 1, 11, 94
6, 52485, Control_c, 1, 11, 93
6, 52500, Note_on_c, 1, 29, 100
6, 52515, Control_c, 1, 11, 92
6, 52545, Control_c, 1, 11, 91
6, 52559, Note_on_c, 1, 29, 0
6, 52560, Note_on_c, 1, 31, 100
6, 52582, Control_c, 1, 11, 90
6, 52612, Control_c, 1, 11, 89
6, 52619, Note_on_c, 1, 31, 0
6, 52620, Note_on_c, 1, 36, 100
6, 52642, Control_c, 1, 11, 88
6, 52672, Control_c, 1, 11, 87
6, 52679, Note_on_c, 1, 36, 0
6, 52680, Note_on_c, 1, 38, 100
6, 52710, Control_c, 1, 11, 86
6, 52740, Control_c, 1, 11, 85
6, 52770, Control_c, 1, 11, 84
6, 52798, Note_on_c, 1, 38, 0
6, 52800, Note_on_c, 1, 29, 100
6, 52800, Control_c, 1, 11, 83
6, 52830, Control_c, 1, 11, 82
6, 52859, Note_on_c, 1, 29, 0
6, 52860, Note_on_c, 1, 29, 100
6, 52867, Control_c, 1, 11, 81
6, 52897, Control_c, 1, 11, 80
6, 52919, Note_on_c, 1, 29, 0
6, 52927, Control_c, 1, 11, 79
6, 52957, Control_c, 1, 11, 78
6, 52980, Note_on_c, 1, 38, 100
6, 52995, Control_c, 1, 11, 77
6, 53025, Control_c, 1, 11, 76
6, 53039, Note_on_c, 1, 38, 0
6, 53040, Note_on_c, 1, 36, 100
6, 53055, Control_c, 1, 11, 75
6, 53085, Control_c, 1, 11, 74
6, 53115, Control_c, 1, 11, 73
6, 53152, Control_c, 1, 11, 72
6, 53158, Note_on_c, 1, 36, 0
6, 53160, Note_on_c, 1, 38, 100
6, 53182, Control_c, 1, 11, 71
6, 53212, Control_c, 1, 11, 70
6, 53242, Control_c, 1, 11, 69
6, 53278, Note_on_c, 1, 38, 0
6, 53280, Note_on_c, 1, 39, 100
6, 53280, Control_c, 1, 11, 68
6, 53310, Control_c, 1, 11, 67
6, 53340, Control_c, 1, 11, 66
6, 53370, Control_c, 1, 11, 65
6, 53398, Note_on_c, 1, 39, 0
6, 53400, Control_c, 1, 11, 64
6, 53437, Control_c, 1, 11, 63
6, 53460, Note_on_c, 1, 38, 100
6, 53467, Control_c, 1, 11, 62
6, 53497, Control_c, 1, 11, 61
6, 53519, Note_on_c, 1, 38, 0
6, 53520, Note_on_c, 1, 39, 100
6, 53527, Control_c, 1, 11, 60
6, 53565, Control_c, 1, 11, 59
6, 53579, Note_on_c, 1, 39, 0
6, 53580, Note_on_c, 1, 31, 100
6, 53595, Control_c, 1, 11, 58
6, 53625, Control_c, 1, 11, 57
6, 53639, Note_on_c, 1, 31, 0
6, 53640, Note_on_c, 1, 38, 100
6, 53655, Control_c, 1, 11, 56
6, 53685, Control_c, 1, 11, 55
6, 53699, Note_on_c, 1, 38, 0
6, 53700, Note_on_c, 1, 36, 100
6, 53722, Control_c, 1, 11, 54
6, 53752, Control_c, 1, 11, 53
6, 53759, Note_on_c, 1, 36, 0
6, 53760, Note_on_c, 1, 48, 100
6, 53782, Control_c, 1, 11, 52
6, 53812, Control_c, 1, 11, 51
6, 53850, Control_c, 1, 11, 50
6, 53880, Control_c, 1, 11, 49
6, 53910, Control_c, 1, 11, 48
6, 53938, Note_on_c, 1, 48, 0
6, 53940, Note_on_c, 1, 34, 100
6, 53940, Control_c, 1, 11, 47
6, 53970, Control_c, 1, 11, 46
6, 53999, Note_on_c, 1, 34, 0
6, 54000, Note_on_c, 1, 36, 100
6, 54007, Control_c, 1, 11, 45
6, 54037, Control_c, 1, 11, 44
6, 54059, Note_on_c, 1, 36, 0
6, 54060, Note_on_c, 1, 26, 100
6, 54067, Control_c, 1, 11, 43
6, 54097, Control_c, 1, 11, 42
6, 54119, Note_on_c, 1, 26, 0
6, 54120, Note_on_c, 1, 27, 100
6, 54135, Control_c, 1, 11, 41
6, 54165, Control_c, 1, 11, 40
6, 54179, Note_on_c, 1, 27, 0
6, 54180, Note_on_c, 1, 29, 100
6, 54195, Control_c, 1, 11, 39
6, 54225, Control_c, 1, 11, 38
6, 54239, Note_on_c, 1, 29, 0
6, 54247, Note_on_c, 1, 31, 100
6, 54255, Control_c, 1, 11, 37
6, 54292, Control_c, 1, 11, 36
6, 54322, Control_c, 1, 11, 35
6, 54352, Control_c, 1, 11, 34
6, 54366, Note_on_c, 1, 31, 0
6, 54382, Control_c, 1, 11, 33
6, 54412, Control_c, 1, 11, 32
6, 54427, Note_on_c, 1, 29, 100
6, 54450, Control_c, 1, 11, 31
6, 54480, Control_c, 1, 11, 30
6, 54486, Note_on_c, 1, 29, 0
6, 54487, Note_on_c, 1, 31, 100
6, 54510, Control_c, 1, 11, 29
6, 54540, Control_c, 1, 11, 28
6, 54546, Note_on_c, 1, 31, 0
6, 54547, Note_on_c, 1, 36, 100
6, 54577, Control_c, 1, 11, 27
6, 54606, Note_on_c, 1, 36, 0
6, 54607, Note_on_c, 1, 38, 100
6, 54607, Control_c, 1, 11, 26
6, 54637, Control_c, 1, 11, 25
6, 54667, Control_c, 1, 11, 24
6, 54697, Control_c, 1, 11, 23
6, 54726, Note_on_c, 1, 38, 0
6, 54727, Note_on_c, 1, 29, 100
6, 54735, Control_c, 1, 11, 22
6, 54765, Control_c, 1, 11, 21
6, 54786, Note_on_c, 1, 29, 0
6, 54787, Note_on_c, 1, 29, 100
6, 54795, Control_c, 1, 11, 20
6, 54825, Control_c, 1, 11, 19
6, 54846, Note_on_c, 1, 29, 0
6, 54862, Control_c, 1, 11, 18
6, 54892, Control_c, 1, 11, 17
6, 54907, Note_on_c, 1, 38, 100
6, 54922, Control_c, 1, 11, 16
6, 54952, Control_c, 1, 11, 15
6, 54966, Note_on_c, 1, 38, 0
6, 54967, Note_on_c, 1, 36, 100
6, 54982, Control_c, 1, 11, 14
6, 55020, Control_c, 1, 11, 13
6, 55050, Control_c, 1, 11, 12
6, 55080, Control_c, 1, 11, 11
6, 55086, Note_on_c, 1, 36, 0
6, 55087, Note_on_c, 1, 38, 100
6, 55110, Control_c, 1, 11, 10
6, 55147, Control_c, 1, 11, 9
6, 55177, Control_c, 1, 11, 8
6, 55206, Note_on_c, 1, 38, 0
6, 55207, Note_on_c, 1, 39, 100
6, 55207, Control_c, 1, 11, 7
6, 55237, Control_c, 1, 11, 6
6, 55267, Control_c, 1, 11, 5
6, 55305, Control_c, 1, 11, 4
6, 55326, Note_on_c, 1, 39, 0
6, 55335, Control_c, 1, 11, 3
6, 55365, Control_c, 1, 11, 2
6, 55387, Note_on_c, 1, 38, 100
6, 55395, Control_c, 1, 11, 1
6, 55432, Control_c, 1, 11, 0
6, 55446, Note_on_c, 1, 38, 0
6, 55447, Note_on_c, 1, 39, 100
6, 55462, Control_c, 1, 11, 0
6, 55492, Control_c, 1, 11, 0
6, 55506, Note_on_c, 1, 39, 0
6, 55507, Note_on_c, 1, 31, 100
6, 55522, Control_c, 1, 11, 0
6, 55552, Control_c, 1, 11, 0
6, 55566, Note_on_c, 1, 31, 0
6, 55567, Note_on_c, 1, 38, 100
6, 55590, Control_c, 1, 11, 0
6, 55620, Control_c, 1, 11, 0
6, 55626, Note_on_c, 1, 38, 0
6, 55627, Note_on_c, 1, 36, 100
6, 55650, Control_c, 1, 11, 0
6, 55686, Note_on_c, 1, 36, 0
6, 55686, End_track
7, 0, Start_track
7, 0, MIDI_port, 0
7, 0, Title_t, "Keyboard 1"
7, 0, Program_c, 2, 81
7, 0, Control_c, 2, 7, 100
7, 0, Control_c, 2, 10, 64
7, 0, Control_c, 2, 121, 127
7, 0, Control_c, 2, 0, 0
7, 0, Control_c, 2, 32, 0
7, 0, Control_c, 2, 11, 127
7, 0, Control_c, 2, 91, 80
7, 0, Control_c, 2, 93, 0
7, 427, Control_c, 2, 1, 0
7, 42093, Control_c, 2, 1, 29
7, 42116, Control_c, 2, 1, 28
7, 42127, Control_c, 2, 1, 26
7, 42132, Control_c, 2, 1, 25
7, 42143, Control_c, 2, 1, 24
7, 42680, Pitch_bend_c, 2, 7936
7, 42682, Pitch_bend_c, 2, 7808
7, 42683, Pitch_bend_c, 2, 7552
7, 42685, Pitch_bend_c, 2, 7296
7, 42686, Pitch_bend_c, 2, 7040
7, 42688, Pitch_bend_c, 2, 6784
7, 42690, Pitch_bend_c, 2, 6656
7, 42691, Pitch_bend_c, 2, 6272
7, 42692, Pitch_bend_c, 2, 6016
7, 42694, Pitch_bend_c, 2, 5760
7, 42696, Pitch_bend_c, 2, 5632
7, 42697, Pitch_bend_c, 2, 5504
7, 42700, Pitch_bend_c, 2, 5120
7, 42703, Pitch_bend_c, 2, 4992
7, 42706, Pitch_bend_c, 2, 4864
7, 42711, Pitch_bend_c, 2, 4608
7, 42716, Pitch_bend_c, 2, 4480
7, 42725, Note_on_c, 2, 72, 95
7, 42727, Note_on_c, 2, 74, 111
7, 42728, Pitch_bend_c, 2, 4736
7, 42730, Pitch_bend_c, 2, 4992
7, 42731, Pitch_bend_c, 2, 5504
7, 42732, Pitch_bend_c, 2, 5760
7, 42735, Pitch_bend_c, 2, 6016
7, 42736, Pitch_bend_c, 2, 6272
7, 42737, Pitch_bend_c, 2, 6528
7, 42739, Pitch_bend_c, 2, 6784
7, 42740, Pitch_bend_c, 2, 7552
7, 42742, Note_on_c, 2, 72, 0
7, 42742, Pitch_bend_c, 2, 8192
7, 42744, Pitch_bend_c, 2, 8582
7, 42745, Pitch_bend_c, 2, 8192
7, 42747, Pitch_bend_c, 2, 8192
7, 42871, Control_c, 2, 1, 25
7, 42877, Control_c, 2, 1, 27
7, 42890, Control_c, 2, 1, 28
7, 42967, Control_c, 2, 1, 6
7, 42969, Control_c, 2, 1, 7
7, 42992, Control_c, 2, 1, 6
7, 43062, Note_on_c, 2, 74, 0
7, 43068, Control_c, 2, 1, 27
7, 43090, Note_on_c, 2, 74, 107
7, 43172, Note_on_c, 2, 72, 76
7, 43182, Note_on_c, 2, 74, 0
7, 43204, Note_on_c, 2, 67, 87
7, 43207, Note_on_c, 2, 69, 66
7, 43215, Note_on_c, 2, 72, 0
7, 43220, Note_on_c, 2, 69, 0
7, 43266, Note_on_c, 2, 70, 107
7, 43276, Note_on_c, 2, 67, 0
7, 43329, Note_on_c, 2, 70, 0
7, 43468, Pitch_bend_c, 2, 8064
7, 43470, Pitch_bend_c, 2, 7680
7, 43471, Pitch_bend_c, 2, 7296
7, 43473, Pitch_bend_c, 2, 6912
7, 43475, Pitch_bend_c, 2, 6528
7, 43476, Pitch_bend_c, 2, 6016
7, 43477, Pitch_bend_c, 2, 5632
7, 43479, Pitch_bend_c, 2, 5120
7, 43481, Pitch_bend_c, 2, 4736
7, 43482, Pitch_bend_c, 2, 4352
7, 43484, Pitch_bend_c, 2, 4096
7, 43486, Pitch_bend_c, 2, 3712
7, 43487, Pitch_bend_c, 2, 3584
7, 43489, Pitch_bend_c, 2, 3328
7, 43490, Pitch_bend_c, 2, 3072
7, 43493, Pitch_bend_c, 2, 2944
7, 43497, Note_on_c, 2, 74, 87
7, 43504, Pitch_bend_c, 2, 3072
7, 43506, Pitch_bend_c, 2, 3328
7, 43507, Pitch_bend_c, 2, 3584
7, 43508, Pitch_bend_c, 2, 3840
7, 43510, Pitch_bend_c, 2, 4224
7, 43512, Pitch_bend_c, 2, 4736
7, 43513, Pitch_bend_c, 2, 5376
7, 43515, Pitch_bend_c, 2, 5760
7, 43516, Pitch_bend_c, 2, 6528
7, 43518, Pitch_bend_c, 2, 7936
7, 43519, Pitch_bend_c, 2, 8192
7, 43521, Pitch_bend_c, 2, 8842
7, 43522, Pitch_bend_c, 2, 8452
7, 43524, Pitch_bend_c, 2, 8192
7, 43559, Note_on_c, 2, 77, 87
7, 43571, Note_on_c, 2, 74, 0
7, 43611, Note_on_c, 2, 74, 79
7, 43613, Note_on_c, 2, 77, 0
7, 43666, Note_on_c, 2, 74, 0
7, 43675, Note_on_c, 2, 82, 103
7, 43728, Control_c, 2, 1, 26
7, 43738, Note_on_c, 2, 74, 68
7, 43741, Control_c, 2, 1, 24
7, 43745, Control_c, 2, 1, 23
7, 43747, Note_on_c, 2, 82, 0
7, 43749, Control_c, 2, 1, 22
7, 43754, Control_c, 2, 1, 21
7, 43763, Control_c, 2, 1, 20
7, 43794, Note_on_c, 2, 81, 95
7, 43804, Note_on_c, 2, 74, 0
7, 43859, Note_on_c, 2, 74, 73
7, 43867, Note_on_c, 2, 81, 0
7, 43922, Note_on_c, 2, 79, 87
7, 43933, Note_on_c, 2, 74, 0
7, 43975, Note_on_c, 2, 79, 0
7, 43982, Note_on_c, 2, 74, 84
7, 44044, Note_on_c, 2, 84, 91
7, 44058, Note_on_c, 2, 74, 0
7, 44104, Note_on_c, 2, 82, 87
7, 44114, Note_on_c, 2, 84, 0
7, 44420, Pitch_bend_c, 2, 8064
7, 44422, Pitch_bend_c, 2, 7552
7, 44423, Pitch_bend_c, 2, 7040
7, 44425, Pitch_bend_c, 2, 6528
7, 44426, Pitch_bend_c, 2, 5760
7, 44428, Pitch_bend_c, 2, 4992
7, 44429, Pitch_bend_c, 2, 4224
7, 44431, Pitch_bend_c, 2, 3584
7, 44432, Pitch_bend_c, 2, 2944
7, 44434, Pitch_bend_c, 2, 2432
7, 44436, Pitch_bend_c, 2, 1920
7, 44437, Pitch_bend_c, 2, 1408
7, 44439, Pitch_bend_c, 2, 896
7, 44440, Pitch_bend_c, 2, 512
7, 44441, Pitch_bend_c, 2, 256
7, 44443, Pitch_bend_c, 2, 128
7, 44446, Pitch_bend_c, 2, 0
7, 44456, Pitch_bend_c, 2, 8192
7, 44457, Pitch_bend_c, 2, 128
7, 44460, Pitch_bend_c, 2, 384
7, 44463, Pitch_bend_c, 2, 640
7, 44464, Note_on_c, 2, 79, 103
7, 44465, Pitch_bend_c, 2, 768
7, 44466, Pitch_bend_c, 2, 1024
7, 44468, Pitch_bend_c, 2, 1408
7, 44470, Pitch_bend_c, 2, 1664
7, 44471, Pitch_bend_c, 2, 1920
7, 44472, Pitch_bend_c, 2, 2304
7, 44474, Pitch_bend_c, 2, 2560
7, 44475, Pitch_bend_c, 2, 7936
7, 44475, Pitch_bend_c, 2, 2944
7, 44477, Pitch_bend_c, 2, 3456
7, 44479, Pitch_bend_c, 2, 3840
7, 44480, Pitch_bend_c, 2, 7808
7, 44480, Pitch_bend_c, 2, 4224
7, 44482, Pitch_bend_c, 2, 4864
7, 44483, Pitch_bend_c, 2, 7680
7, 44483, Pitch_bend_c, 2, 5504
7, 44485, Pitch_bend_c, 2, 6400
7, 44486, Pitch_bend_c, 2, 7552
7, 44486, Pitch_bend_c, 2, 8192
7, 44489, Pitch_bend_c, 2, 8712
7, 44491, Pitch_bend_c, 2, 7424
7, 44491, Pitch_bend_c, 2, 8192
7, 44506, Pitch_bend_c, 2, 7680
7, 44508, Pitch_bend_c, 2, 7936
7, 44509, Pitch_bend_c, 2, 8192
7, 44518, Note_on_c, 2, 82, 79
7, 44532, Note_on_c, 2, 79, 0
7, 44549, Pitch_bend_c, 2, 7936
7, 44551, Pitch_bend_c, 2, 7552
7, 44552, Pitch_bend_c, 2, 7168
7, 44554, Pitch_bend_c, 2, 6784
7, 44556, Pitch_bend_c, 2, 6272
7, 44557, Pitch_bend_c, 2, 6016
7, 44559, Pitch_bend_c, 2, 5760
7, 44560, Pitch_bend_c, 2, 5504
7, 44561, Note_on_c, 2, 82, 0
7, 44568, Pitch_bend_c, 2, 5760
7, 44569, Pitch_bend_c, 2, 6016
7, 44571, Pitch_bend_c, 2, 6400
7, 44573, Pitch_bend_c, 2, 6656
7, 44574, Pitch_bend_c, 2, 7040
7, 44576, Pitch_bend_c, 2, 8192
7, 44577, Pitch_bend_c, 2, 8192
7, 44579, Pitch_bend_c, 2, 9362
7, 44580, Pitch_bend_c, 2, 8452
7, 44582, Pitch_bend_c, 2, 8192
7, 44582, Note_on_c, 2, 84, 95
7, 44584, Note_on_c, 2, 82, 0
7, 44588, Pitch_bend_c, 2, 8322
7, 44590, Pitch_bend_c, 2, 8192
7, 44617, Note_on_c, 2, 84, 0
7, 44643, Note_on_c, 2, 82, 99
7, 44649, Pitch_bend_c, 2, 8582
7, 44651, Pitch_bend_c, 2, 9362
7, 44652, Pitch_bend_c, 2, 10012
7, 44654, Pitch_bend_c, 2, 10792
7, 44655, Pitch_bend_c, 2, 11442
7, 44657, Pitch_bend_c, 2, 12092
7, 44658, Pitch_bend_c, 2, 12612
7, 44660, Pitch_bend_c, 2, 13262
7, 44661, Pitch_bend_c, 2, 13782
7, 44663, Pitch_bend_c, 2, 14432
7, 44664, Pitch_bend_c, 2, 14952
7, 44666, Pitch_bend_c, 2, 15602
7, 44668, Pitch_bend_c, 2, 16122
7, 44669, Pitch_bend_c, 2, 16382
7, 44726, Pitch_bend_c, 2, 16122
7, 44727, Pitch_bend_c, 2, 15862
7, 44728, Note_on_c, 2, 82, 0
7, 44729, Pitch_bend_c, 2, 15472
7, 44731, Pitch_bend_c, 2, 14952
7, 44732, Pitch_bend_c, 2, 14432
7, 44733, Pitch_bend_c, 2, 13522
7, 44735, Pitch_bend_c, 2, 11312
7, 44737, Pitch_bend_c, 2, 8192
7, 44738, Pitch_bend_c, 2, 7168
7, 44741, Pitch_bend_c, 2, 8192
7, 44743, Pitch_bend_c, 2, 8192
7, 44745, Pitch_bend_c, 2, 8452
7, 44746, Pitch_bend_c, 2, 8192
7, 44764, Note_on_c, 2, 82, 107
7, 44989, Note_on_c, 2, 79, 91
7, 45002, Note_on_c, 2, 82, 0
7, 45040, Note_on_c, 2, 79, 0
7, 45060, Pitch_bend_c, 2, 7808
7, 45061, Note_on_c, 2, 79, 99
7, 45061, Pitch_bend_c, 2, 7296
7, 45063, Pitch_bend_c, 2, 6784
7, 45065, Pitch_bend_c, 2, 6144
7, 45066, Pitch_bend_c, 2, 5632
7, 45068, Pitch_bend_c, 2, 5120
7, 45069, Pitch_bend_c, 2, 4608
7, 45071, Pitch_bend_c, 2, 4224
7, 45072, Pitch_bend_c, 2, 3968
7, 45074, Pitch_bend_c, 2, 3584
7, 45075, Pitch_bend_c, 2, 3456
7, 45077, Pitch_bend_c, 2, 3200
7, 45078, Pitch_bend_c, 2, 3072
7, 45087, Pitch_bend_c, 2, 3328
7, 45088, Pitch_bend_c, 2, 3584
7, 45090, Pitch_bend_c, 2, 3840
7, 45091, Pitch_bend_c, 2, 4224
7, 45093, Pitch_bend_c, 2, 4608
7, 45094, Pitch_bend_c, 2, 5120
7, 45096, Pitch_bend_c, 2, 5632
7, 45097, Pitch_bend_c, 2, 6144
7, 45099, Pitch_bend_c, 2, 6656
7, 45100, Pitch_bend_c, 2, 7168
7, 45102, Pitch_bend_c, 2, 7680
7, 45103, Pitch_bend_c, 2, 8192
7, 45105, Pitch_bend_c, 2, 8192
7, 45227, Pitch_bend_c, 2, 7936
7, 45229, Pitch_bend_c, 2, 7808
7, 45230, Pitch_bend_c, 2, 7552
7, 45232, Pitch_bend_c, 2, 7296
7, 45233, Pitch_bend_c, 2, 7040
7, 45235, Pitch_bend_c, 2, 6784
7, 45236, Pitch_bend_c, 2, 6528
7, 45238, Pitch_bend_c, 2, 6272
7, 45240, Pitch_bend_c, 2, 6016
7, 45241, Pitch_bend_c, 2, 5760
7, 45243, Pitch_bend_c, 2, 5632
7, 45244, Pitch_bend_c, 2, 5376
7, 45245, Pitch_bend_c, 2, 5120
7, 45249, Pitch_bend_c, 2, 4992
7, 45252, Pitch_bend_c, 2, 4864
7, 45258, Pitch_bend_c, 2, 4992
7, 45260, Pitch_bend_c, 2, 5376
7, 45261, Pitch_bend_c, 2, 5760
7, 45262, Pitch_bend_c, 2, 6144
7, 45264, Pitch_bend_c, 2, 6656
7, 45265, Pitch_bend_c, 2, 7168
7, 45267, Pitch_bend_c, 2, 7680
7, 45269, Pitch_bend_c, 2, 8192
7, 45298, Pitch_bend_c, 2, 7680
7, 45300, Pitch_bend_c, 2, 7296
7, 45301, Pitch_bend_c, 2, 6912
7, 45303, Pitch_bend_c, 2, 6528
7, 45304, Pitch_bend_c, 2, 6144
7, 45306, Pitch_bend_c, 2, 6016
7, 45315, Pitch_bend_c, 2, 6400
7, 45317, Pitch_bend_c, 2, 6656
7, 45318, Pitch_bend_c, 2, 7040
7, 45320, Pitch_bend_c, 2, 7424
7, 45321, Pitch_bend_c, 2, 7808
7, 45323, Pitch_bend_c, 2, 8192
7, 45346, Pitch_bend_c, 2, 8064
7, 45347, Pitch_bend_c, 2, 7552
7, 45348, Note_on_c, 2, 79, 0
7, 45349, Pitch_bend_c, 2, 6912
7, 45350, Pitch_bend_c, 2, 6400
7, 45352, Pitch_bend_c, 2, 5760
7, 45353, Pitch_bend_c, 2, 5376
7, 45355, Pitch_bend_c, 2, 4864
7, 45356, Pitch_bend_c, 2, 4608
7, 45358, Pitch_bend_c, 2, 4480
7, 45363, Pitch_bend_c, 2, 5632
7, 45364, Pitch_bend_c, 2, 8192
7, 45366, Pitch_bend_c, 2, 8842
7, 45367, Pitch_bend_c, 2, 10792
7, 45369, Pitch_bend_c, 2, 10532
7, 45370, Pitch_bend_c, 2, 8192
7, 45372, Pitch_bend_c, 2, 8192
7, 45373, Pitch_bend_c, 2, 6912
7, 45375, Pitch_bend_c, 2, 7680
7, 45376, Pitch_bend_c, 2, 8192
7, 45378, Pitch_bend_c, 2, 9232
7, 45381, Pitch_bend_c, 2, 8192
7, 45387, Pitch_bend_c, 2, 8192
7, 45390, Pitch_bend_c, 2, 8192
7, 45516, Pitch_bend_c, 2, 8064
7, 45517, Pitch_bend_c, 2, 7552
7, 45519, Pitch_bend_c, 2, 7168
7, 45521, Pitch_bend_c, 2, 6656
7, 45522, Pitch_bend_c, 2, 6144
7, 45523, Pitch_bend_c, 2, 5632
7, 45525, Pitch_bend_c, 2, 4992
7, 45526, Pitch_bend_c, 2, 4480
7, 45528, Pitch_bend_c, 2, 4096
7, 45530, Pitch_bend_c, 2, 3840
7, 45531, Pitch_bend_c, 2, 3584
7, 45533, Pitch_bend_c, 2, 3328
7, 45534, Pitch_bend_c, 2, 3072
7, 45536, Pitch_bend_c, 2, 2816
7, 45537, Pitch_bend_c, 2, 2688
7, 45541, Note_on_c, 2, 82, 95
7, 45576, Pitch_bend_c, 2, 2816
7, 45581, Pitch_bend_c, 2, 3072
7, 45584, Pitch_bend_c, 2, 3200
7, 45585, Pitch_bend_c, 2, 3328
7, 45587, Pitch_bend_c, 2, 3456
7, 45590, Pitch_bend_c, 2, 3712
7, 45592, Pitch_bend_c, 2, 3840
7, 45593, Pitch_bend_c, 2, 3968
7, 45595, Pitch_bend_c, 2, 4224
7, 45596, Pitch_bend_c, 2, 4480
7, 45597, Pitch_bend_c, 2, 4736
7, 45600, Pitch_bend_c, 2, 4992
7, 45601, Pitch_bend_c, 2, 5376
7, 45602, Pitch_bend_c, 2, 5632
7, 45604, Pitch_bend_c, 2, 5888
7, 45605, Pitch_bend_c, 2, 6144
7, 45607, Pitch_bend_c, 2, 6400
7, 45609, Pitch_bend_c, 2, 6656
7, 45610, Pitch_bend_c, 2, 7040
7, 45612, Pitch_bend_c, 2, 7296
7, 45613, Pitch_bend_c, 2, 7552
7, 45615, Pitch_bend_c, 2, 7808
7, 45616, Pitch_bend_c, 2, 8064
7, 45618, Pitch_bend_c, 2, 8192
7, 45692, Note_on_c, 2, 82, 0
7, 45719, Note_on_c, 2, 84, 99
7, 45807, Note_on_c, 2, 84, 0
7, 45837, Note_on_c, 2, 86, 84
7, 45926, Note_on_c, 2, 86, 0
7, 45941, Pitch_bend_c, 2, 7808
7, 45942, Pitch_bend_c, 2, 7296
7, 45944, Pitch_bend_c, 2, 6784
7, 45945, Pitch_bend_c, 2, 6144
7, 45947, Pitch_bend_c, 2, 5632
7, 45948, Pitch_bend_c, 2, 4864
7, 45950, Pitch_bend_c, 2, 4352
7, 45952, Pitch_bend_c, 2, 3840
7, 45953, Pitch_bend_c, 2, 3456
7, 45955, Pitch_bend_c, 2, 3072
7, 45956, Note_on_c, 2, 91, 82
7, 45957, Pitch_bend_c, 2, 2688
7, 45958, Pitch_bend_c, 2, 2560
7, 45961, Pitch_bend_c, 2, 2432
7, 45970, Pitch_bend_c, 2, 2560
7, 45972, Pitch_bend_c, 2, 2688
7, 45973, Pitch_bend_c, 2, 2944
7, 45975, Pitch_bend_c, 2, 3072
7, 45976, Pitch_bend_c, 2, 3328
7, 45978, Pitch_bend_c, 2, 3584
7, 45979, Pitch_bend_c, 2, 3712
7, 45981, Pitch_bend_c, 2, 3840
7, 45983, Pitch_bend_c, 2, 4096
7, 45984, Pitch_bend_c, 2, 4352
7, 45986, Pitch_bend_c, 2, 4608
7, 45987, Pitch_bend_c, 2, 4992
7, 45989, Pitch_bend_c, 2, 5376
7, 45990, Pitch_bend_c, 2, 5760
7, 45992, Pitch_bend_c, 2, 6144
7, 45993, Pitch_bend_c, 2, 6656
7, 45995, Pitch_bend_c, 2, 7168
7, 45997, Pitch_bend_c, 2, 7552
7, 45998, Pitch_bend_c, 2, 8064
7, 46000, Pitch_bend_c, 2, 8192
7, 46015, Note_on_c, 2, 91, 0
7, 46030, Note_on_c, 2, 91, 91
7, 46043, Pitch_bend_c, 2, 7808
7, 46044, Pitch_bend_c, 2, 7168
7, 46046, Pitch_bend_c, 2, 6400
7, 46047, Pitch_bend_c, 2, 5760
7, 46049, Pitch_bend_c, 2, 4992
7, 46050, Pitch_bend_c, 2, 4480
7, 46052, Pitch_bend_c, 2, 4096
7, 46053, Pitch_bend_c, 2, 3840
7, 46055, Pitch_bend_c, 2, 3712
7, 46067, Pitch_bend_c, 2, 3968
7, 46069, Pitch_bend_c, 2, 4224
7, 46071, Pitch_bend_c, 2, 4480
7, 46072, Pitch_bend_c, 2, 4992
7, 46074, Pitch_bend_c, 2, 5376
7, 46075, Pitch_bend_c, 2, 5888
7, 46077, Pitch_bend_c, 2, 6272
7, 46079, Pitch_bend_c, 2, 6784
7, 46080, Pitch_bend_c, 2, 7296
7, 46081, Pitch_bend_c, 2, 7552
7, 46083, Pitch_bend_c, 2, 7936
7, 46084, Pitch_bend_c, 2, 8192
7, 46297, Control_c, 2, 1, 7
7, 46298, Control_c, 2, 1, 9
7, 46301, Control_c, 2, 1, 10
7, 46304, Control_c, 2, 1, 12
7, 46307, Control_c, 2, 1, 14
7, 46309, Control_c, 2, 1, 16
7, 46310, Control_c, 2, 1, 17
7, 46312, Control_c, 2, 1, 18
7, 46313, Control_c, 2, 1, 20
7, 46315, Control_c, 2, 1, 21
7, 46316, Control_c, 2, 1, 23
7, 46318, Control_c, 2, 1, 24
7, 46319, Control_c, 2, 1, 26
7, 46321, Control_c, 2, 1, 28
7, 46323, Control_c, 2, 1, 29
7, 46324, Control_c, 2, 1, 30
7, 46326, Control_c, 2, 1, 32
7, 46327, Control_c, 2, 1, 33
7, 46329, Control_c, 2, 1, 34
7, 46332, Control_c, 2, 1, 35
7, 46335, Control_c, 2, 1, 37
7, 46338, Control_c, 2, 1, 38
7, 46341, Control_c, 2, 1, 39
7, 46345, Control_c, 2, 1, 41
7, 46347, Control_c, 2, 1, 42
7, 46349, Control_c, 2, 1, 43
7, 46351, Control_c, 2, 1, 44
7, 46354, Control_c, 2, 1, 46
7, 46355, Control_c, 2, 1, 47
7, 46357, Control_c, 2, 1, 48
7, 46360, Control_c, 2, 1, 49
7, 46363, Control_c, 2, 1, 51
7, 46366, Control_c, 2, 1, 52
7, 46371, Control_c, 2, 1, 53
7, 46374, Control_c, 2, 1, 55
7, 46377, Control_c, 2, 1, 56
7, 46380, Control_c, 2, 1, 57
7, 46383, Control_c, 2, 1, 58
7, 46386, Control_c, 2, 1, 59
7, 46392, Control_c, 2, 1, 60
7, 46395, Control_c, 2, 1, 61
7, 46398, Control_c, 2, 1, 63
7, 46402, Control_c, 2, 1, 64
7, 46405, Control_c, 2, 1, 66
7, 46408, Control_c, 2, 1, 67
7, 46411, Control_c, 2, 1, 69
7, 46414, Control_c, 2, 1, 70
7, 46423, Control_c, 2, 1, 71
7, 46637, Pitch_bend_c, 2, 8064
7, 46639, Pitch_bend_c, 2, 7808
7, 46640, Pitch_bend_c, 2, 7552
7, 46642, Pitch_bend_c, 2, 7424
7, 46644, Pitch_bend_c, 2, 7296
7, 46645, Pitch_bend_c, 2, 7040
7, 46647, Pitch_bend_c, 2, 6912
7, 46649, Pitch_bend_c, 2, 6784
7, 46652, Pitch_bend_c, 2, 6528
7, 46653, Pitch_bend_c, 2, 6400
7, 46656, Pitch_bend_c, 2, 6272
7, 46659, Pitch_bend_c, 2, 6016
7, 46661, Pitch_bend_c, 2, 5760
7, 46662, Pitch_bend_c, 2, 5504
7, 46664, Pitch_bend_c, 2, 5376
7, 46666, Pitch_bend_c, 2, 4864
7, 46667, Pitch_bend_c, 2, 4480
7, 46668, Note_on_c, 2, 91, 0
7, 46669, Pitch_bend_c, 2, 4224
7, 46670, Pitch_bend_c, 2, 3840
7, 46671, Pitch_bend_c, 2, 3584
7, 46673, Pitch_bend_c, 2, 3072
7, 46675, Pitch_bend_c, 2, 2688
7, 46676, Pitch_bend_c, 2, 2304
7, 46678, Pitch_bend_c, 2, 1920
7, 46679, Pitch_bend_c, 2, 1536
7, 46681, Pitch_bend_c, 2, 1152
7, 46682, Pitch_bend_c, 2, 768
7, 46684, Pitch_bend_c, 2, 512
7, 46685, Pitch_bend_c, 2, 1024
7, 46687, Pitch_bend_c, 2, 2560
7, 46688, Pitch_bend_c, 2, 5504
7, 46690, Pitch_bend_c, 2, 8192
7, 46692, Pitch_bend_c, 2, 10922
7, 46693, Pitch_bend_c, 2, 12612
7, 46695, Pitch_bend_c, 2, 11832
7, 46696, Pitch_bend_c, 2, 8972
7, 46698, Pitch_bend_c, 2, 8192
7, 46699, Pitch_bend_c, 2, 5888
7, 46700, Pitch_bend_c, 2, 5760
7, 46702, Pitch_bend_c, 2, 7680
7, 46704, Pitch_bend_c, 2, 8192
7, 46705, Pitch_bend_c, 2, 10272
7, 46707, Pitch_bend_c, 2, 10532
7, 46708, Pitch_bend_c, 2, 8712
7, 46710, Pitch_bend_c, 2, 8192
7, 46711, Pitch_bend_c, 2, 7296
7, 46713, Pitch_bend_c, 2, 7680
7, 46715, Pitch_bend_c, 2, 8192
7, 46716, Pitch_bend_c, 2, 8842
7, 46717, Pitch_bend_c, 2, 9102
7, 46719, Pitch_bend_c, 2, 8192
7, 46725, Pitch_bend_c, 2, 8322
7, 46727, Pitch_bend_c, 2, 8192
7, 46727, End_track
8, 0, Start_track
8, 0, MIDI_port, 0
8, 0, Title_t, "Keyboard 2"
8, 0, Program_c, 3, 91
8, 0, Control_c, 3, 7, 80
8, 0, Control_c, 3, 10, 74
8, 0, Control_c, 3, 121, 127
8, 0, Control_c, 3, 0, 0
8, 0, Control_c, 3, 32, 0
8, 0, Control_c, 3, 11, 127
8, 0, Control_c, 3, 91, 80
8, 0, Control_c, 3, 93, 0
8, 480, Note_on_c, 3, 82, 100
8, 480, Note_on_c, 3, 74, 100
8, 598, Note_on_c, 3, 74, 0
8, 598, Note_on_c, 3, 82, 0
8, 600, Note_on_c, 3, 72, 100
8, 600, Note_on_c, 3, 81, 100
8, 718, Note_on_c, 3, 81, 0
8, 718, Note_on_c, 3, 72, 0
8, 720, Note_on_c, 3, 70, 100
8, 720, Note_on_c, 3, 79, 100
8, 838, Note_on_c, 3, 79, 0
8, 838, Note_on_c, 3, 70, 0
8, 840, Note_on_c, 3, 77, 100
8, 899, Note_on_c, 3, 77, 0
8, 900, Note_on_c, 3, 65, 100
8, 900, Note_on_c, 3, 74, 100
8, 1137, Note_on_c, 3, 74, 0
8, 1137, Note_on_c, 3, 65, 0
8, 1140, Note_on_c, 3, 77, 100
8, 1140, Note_on_c, 3, 84, 100
8, 1432, Note_on_c, 3, 77, 0
8, 1434, Note_on_c, 3, 84, 0
8, 1440, Note_on_c, 3, 82, 100
8, 1440, Note_on_c, 3, 74, 100
8, 1558, Note_on_c, 3, 74, 0
8, 1558, Note_on_c, 3, 82, 0
8, 1560, Note_on_c, 3, 72, 100
8, 1560, Note_on_c, 3, 81, 100
8, 1678, Note_on_c, 3, 81, 0
8, 1678, Note_on_c, 3, 72, 0
8, 1680, Note_on_c, 3, 70, 100
8, 1680, Note_on_c, 3, 79, 100
8, 1798, Note_on_c, 3, 79, 0
8, 1798, Note_on_c, 3, 70, 0
8, 1800, Note_on_c, 3, 77, 100
8, 1859, Note_on_c, 3, 77, 0
8, 1860, Note_on_c, 3, 74, 100
8, 1919, Note_on_c, 3, 74, 0
8, 1920, Note_on_c, 3, 72, 100
8, 1920, Note_on_c, 3, 63, 100
8, 2395, Note_on_c, 3, 63, 0
8, 2395, Note_on_c, 3, 72, 0
8, 2400, Note_on_c, 3, 82, 100
8, 2400, Note_on_c, 3, 74, 100
8, 2518, Note_on_c, 3, 74, 0
8, 2518, Note_on_c, 3, 82, 0
8, 2520, Note_on_c, 3, 72, 100
8, 2520, Note_on_c, 3, 81, 100
8, 2638, Note_on_c, 3, 81, 0
8, 2638, Note_on_c, 3, 72, 0
8, 2640, Note_on_c, 3, 70, 100
8, 2640, Note_on_c, 3, 79, 100
8, 2758, Note_on_c, 3, 79, 0
8, 2758, Note_on_c, 3, 70, 0
8, 2760, Note_on_c, 3, 77, 100
8, 2819, Note_on_c, 3, 77, 0
8, 2820, Note_on_c, 3, 65, 100
8, 2820, Note_on_c, 3, 74, 100
8, 3057, Note_on_c, 3, 74, 0
8, 3057, Note_on_c, 3, 65, 0
8, 3060, Note_on_c, 3, 77, 100
8, 3060, Note_on_c, 3, 84, 100
8, 3352, Note_on_c, 3, 77, 0
8, 3354, Note_on_c, 3, 84, 0
8, 3360, Note_on_c, 3, 82, 100
8, 3360, Note_on_c, 3, 74, 100
8, 3478, Note_on_c, 3, 74, 0
8, 3478, Note_on_c, 3, 82, 0
8, 3480, Note_on_c, 3, 72, 100
8, 3480, Note_on_c, 3, 81, 100
8, 3598, Note_on_c, 3, 81, 0
8, 3598, Note_on_c, 3, 72, 0
8, 3600, Note_on_c, 3, 70, 100
8, 3600, Note_on_c, 3, 79, 100
8, 3718, Note_on_c, 3, 79, 0
8, 3718, Note_on_c, 3, 70, 0
8, 3720, Note_on_c, 3, 77, 100
8, 3779, Note_on_c, 3, 77, 0
8, 3780, Note_on_c, 3, 74, 100
8, 3839, Note_on_c, 3, 74, 0
8, 3840, Note_on_c, 3, 72, 100
8, 3840, Note_on_c, 3, 63, 100
8, 4315, Note_on_c, 3, 63, 0
8, 4315, Note_on_c, 3, 72, 0
8, 13920, Text_t, "%-"
8, 13920, Note_on_c, 3, 82, 100
8, 13920, Note_on_c, 3, 74, 100
8, 14038, Note_on_c, 3, 74, 0
8, 14038, Note_on_c, 3, 82, 0
8, 14040, Note_on_c, 3, 72, 100
8, 14040, Note_on_c, 3, 81, 100
8, 14158, Note_on_c, 3, 81, 0
8, 14158, Note_on_c, 3, 72, 0
8, 14160, Note_on_c, 3, 70, 100
8, 14160, Note_on_c, 3, 79, 100
8, 14278, Note_on_c, 3, 79, 0
8, 14278, Note_on_c, 3, 70, 0
8, 14280, Note_on_c, 3, 77, 100
8, 14339, Note_on_c, 3, 77, 0
8, 14340, Note_on_c, 3, 65, 100
8, 14340, Note_on_c, 3, 74, 100
8, 14577, Note_on_c, 3, 74, 0
8, 14577, Note_on_c, 3, 65, 0
8, 14580, Note_on_c, 3, 77, 100
8, 14580, Note_on_c, 3, 84, 100
8, 14872, Note_on_c, 3, 77, 0
8, 14874, Note_on_c, 3, 84, 0
8, 14880, Note_on_c, 3, 82, 100
8, 14880, Note_on_c, 3, 74, 100
8, 14998, Note_on_c, 3, 74, 0
8, 14998, Note_on_c, 3, 82, 0
8, 15000, Note_on_c, 3, 72, 100
8, 15000, Note_on_c, 3, 81, 100
8, 15118, Note_on_c, 3, 81, 0
8, 15118, Note_on_c, 3, 72, 0
8, 15120, Note_on_c, 3, 70, 100
8, 15120, Note_on_c, 3, 79, 100
8, 15238, Note_on_c, 3, 79, 0
8, 15238, Note_on_c, 3, 70, 0
8, 15240, Note_on_c, 3, 77, 100
8, 15299, Note_on_c, 3, 77, 0
8, 15300, Note_on_c, 3, 74, 100
8, 15359, Note_on_c, 3, 74, 0
8, 15360, Note_on_c, 3, 72, 100
8, 15360, Note_on_c, 3, 63, 100
8, 15835, Note_on_c, 3, 63, 0
8, 15835, Note_on_c, 3, 72, 0
8, 15840, Note_on_c, 3, 82, 100
8, 15840, Note_on_c, 3, 74, 100
8, 15958, Note_on_c, 3, 74, 0
8, 15958, Note_on_c, 3, 82, 0
8, 15960, Note_on_c, 3, 72, 100
8, 15960, Note_on_c, 3, 81, 100
8, 16078, Note_on_c, 3, 81, 0
8, 16078, Note_on_c, 3, 72, 0
8, 16080, Note_on_c, 3, 70, 100
8, 16080, Note_on_c, 3, 79, 100
8, 16198, Note_on_c, 3, 79, 0
8, 16198, Note_on_c, 3, 70, 0
8, 16200, Note_on_c, 3, 77, 100
8, 16259, Note_on_c, 3, 77, 0
8, 16260, Note_on_c, 3, 65, 100
8, 16260, Note_on_c, 3, 74, 100
8, 16497, Note_on_c, 3, 74, 0
8, 16497, Note_on_c, 3, 65, 0
8, 16500, Note_on_c, 3, 77, 100
8, 16500, Note_on_c, 3, 84, 100
8, 16792, Note_on_c, 3, 77, 0
8, 16794, Note_on_c, 3, 84, 0
8, 16800, Note_on_c, 3, 82, 100
8, 16800, Note_on_c, 3, 74, 100
8, 16918, Note_on_c, 3, 74, 0
8, 16918, Note_on_c, 3, 82, 0
8, 16920, Note_on_c, 3, 72, 100
8, 16920, Note_on_c, 3, 81, 100
8, 17038, Note_on_c, 3, 81, 0
8, 17038, Note_on_c, 3, 72, 0
8, 17040, Note_on_c, 3, 70, 100
8, 17040, Note_on_c, 3, 79, 100
8, 17158, Note_on_c, 3, 79, 0
8, 17158, Note_on_c, 3, 70, 0
8, 17160, Note_on_c, 3, 77, 100
8, 17219, Note_on_c, 3, 77, 0
8, 17220, Note_on_c, 3, 74, 100
8, 17279, Note_on_c, 3, 74, 0
8, 17280, Note_on_c, 3, 72, 100
8, 17280, Note_on_c, 3, 63, 100
8, 17755, Note_on_c, 3, 63, 0
8, 17755, Note_on_c, 3, 72, 0
8, 17760, Note_on_c, 3, 82, 100
8, 17760, Note_on_c, 3, 74, 100
8, 17878, Note_on_c, 3, 74, 0
8, 17878, Note_on_c, 3, 82, 0
8, 17880, Note_on_c, 3, 72, 100
8, 17880, Note_on_c, 3, 81, 100
8, 17998, Note_on_c, 3, 81, 0
8, 17998, Note_on_c, 3, 72, 0
8, 18000, Note_on_c, 3, 70, 100
8, 18000, Note_on_c, 3, 79, 100
8, 18118, Note_on_c, 3, 79, 0
8, 18118, Note_on_c, 3, 70, 0
8, 18120, Note_on_c, 3, 77, 100
8, 18179, Note_on_c, 3, 77, 0
8, 18180, Note_on_c, 3, 65, 100
8, 18180, Note_on_c, 3, 74, 100
8, 18417, Note_on_c, 3, 74, 0
8, 18417, Note_on_c, 3, 65, 0
8, 18420, Note_on_c, 3, 77, 100
8, 18420, Note_on_c, 3, 84, 100
8, 18712, Note_on_c, 3, 77, 0
8, 18714, Note_on_c, 3, 84, 0
8, 18720, Note_on_c, 3, 82, 100
8, 18720, Note_on_c, 3, 74, 100
8, 18838, Note_on_c, 3, 74, 0
8, 18838, Note_on_c, 3, 82, 0
8, 18840, Note_on_c, 3, 72, 100
8, 18840, Note_on_c, 3, 81, 100
8, 18958, Note_on_c, 3, 81, 0
8, 18958, Note_on_c, 3, 72, 0
8, 18960, Note_on_c, 3, 70, 100
8, 18960, Note_on_c, 3, 79, 100
8, 19078, Note_on_c, 3, 79, 0
8, 19078, Note_on_c, 3, 70, 0
8, 19080, Note_on_c, 3, 77, 100
8, 19139, Note_on_c, 3, 77, 0
8, 19140, Note_on_c, 3, 74, 100
8, 19199, Note_on_c, 3, 74, 0
8, 19200, Note_on_c, 3, 72, 100
8, 19200, Note_on_c, 3, 63, 100
8, 19675, Note_on_c, 3, 63, 0
8, 19675, Note_on_c, 3, 72, 0
8, 19680, Note_on_c, 3, 82, 100
8, 19680, Note_on_c, 3, 74, 100
8, 19798, Note_on_c, 3, 74, 0
8, 19798, Note_on_c, 3, 82, 0
8, 19800, Note_on_c, 3, 72, 100
8, 19800, Note_on_c, 3, 81, 100
8, 19918, Note_on_c, 3, 81, 0
8, 19918, Note_on_c, 3, 72, 0
8, 19920, Note_on_c, 3, 70, 100
8, 19920, Note_on_c, 3, 79, 100
8, 20038, Note_on_c, 3, 79, 0
8, 20038, Note_on_c, 3, 70, 0
8, 20040, Note_on_c, 3, 77, 100
8, 20099, Note_on_c, 3, 77, 0
8, 20100, Note_on_c, 3, 65, 100
8, 20100, Note_on_c, 3, 74, 100
8, 20337, Note_on_c, 3, 74, 0
8, 20337, Note_on_c, 3, 65, 0
8, 20340, Note_on_c, 3, 77, 100
8, 20340, Note_on_c, 3, 84, 100
8, 20632, Note_on_c, 3, 77, 0
8, 20634, Note_on_c, 3, 84, 0
8, 20640, Note_on_c, 3, 82, 100
8, 20640, Note_on_c, 3, 74, 100
8, 20758, Note_on_c, 3, 74, 0
8, 20758, Note_on_c, 3, 82, 0
8, 20760, Note_on_c, 3, 72, 100
8, 20760, Note_on_c, 3, 81, 100
8, 20878, Note_on_c, 3, 81, 0
8, 20878, Note_on_c, 3, 72, 0
8, 20880, Note_on_c, 3, 70, 100
8, 20880, Note_on_c, 3, 79, 100
8, 20998, Note_on_c, 3, 79, 0
8, 20998, Note_on_c, 3, 70, 0
8, 21000, Note_on_c, 3, 77, 100
8, 21059, Note_on_c, 3, 77, 0
8, 21060, Note_on_c, 3, 74, 100
8, 21119, Note_on_c, 3, 74, 0
8, 21120, Note_on_c, 3, 72, 100
8, 21120, Note_on_c, 3, 63, 100
8, 21595, Note_on_c, 3, 63, 0
8, 21595, Note_on_c, 3, 72, 0
8, 31200, Note_on_c, 3, 82, 100
8, 31200, Note_on_c, 3, 74, 100
8, 31318, Note_on_c, 3, 74, 0
8, 31318, Note_on_c, 3, 82, 0
8, 31320, Note_on_c, 3, 72, 100
8, 31320, Note_on_c, 3, 81, 100
8, 31438, Note_on_c, 3, 81, 0
8, 31438, Note_on_c, 3, 72, 0
8, 31440, Note_on_c, 3, 70, 100
8, 31440, Note_on_c, 3, 79, 100
8, 31558, Note_on_c, 3, 79, 0
8, 31558, Note_on_c, 3, 70, 0
8, 31560, Note_on_c, 3, 77, 100
8, 31619, Note_on_c, 3, 77, 0
8, 31620, Note_on_c, 3, 65, 100
8, 31620, Note_on_c, 3, 74, 100
8, 31857, Note_on_c, 3, 74, 0
8, 31857, Note_on_c, 3, 65, 0
8, 31860, Note_on_c, 3, 77, 100
8, 31860, Note_on_c, 3, 84, 100
8, 32152, Note_on_c, 3, 77, 0
8, 32154, Note_on_c, 3, 84, 0
8, 32160, Note_on_c, 3, 82, 100
8, 32160, Note_on_c, 3, 74, 100
8, 32278, Note_on_c, 3, 74, 0
8, 32278, Note_on_c, 3, 82, 0
8, 32280, Note_on_c, 3, 72, 100
8, 32280, Note_on_c, 3, 81, 100
8, 32398, Note_on_c, 3, 81, 0
8, 32398, Note_on_c, 3, 72, 0
8, 32400, Note_on_c, 3, 70, 100
8, 32400, Note_on_c, 3, 79, 100
8, 32518, Note_on_c, 3, 79, 0
8, 32518, Note_on_c, 3, 70, 0
8, 32520, Note_on_c, 3, 77, 100
8, 32579, Note_on_c, 3, 77, 0
8, 32580, Note_on_c, 3, 74, 100
8, 32639, Note_on_c, 3, 74, 0
8, 32640, Note_on_c, 3, 72, 100
8, 32640, Note_on_c, 3, 63, 100
8, 33115, Note_on_c, 3, 63, 0
8, 33115, Note_on_c, 3, 72, 0
8, 33120, Note_on_c, 3, 82, 100
8, 33120, Note_on_c, 3, 74, 100
8, 33238, Note_on_c, 3, 74, 0
8, 33238, Note_on_c, 3, 82, 0
8, 33240, Note_on_c, 3, 72, 100
8, 33240, Note_on_c, 3, 81, 100
8, 33358, Note_on_c, 3, 81, 0
8, 33358, Note_on_c, 3, 72, 0
8, 33360, Note_on_c, 3, 70, 100
8, 33360, Note_on_c, 3, 79, 100
8, 33478, Note_on_c, 3, 79, 0
8, 33478, Note_on_c, 3, 70, 0
8, 33480, Note_on_c, 3, 77, 100
8, 33539, Note_on_c, 3, 77, 0
8, 33540, Note_on_c, 3, 65, 100
8, 33540, Note_on_c, 3, 74, 100
8, 33777, Note_on_c, 3, 74, 0
8, 33777, Note_on_c, 3, 65, 0
8, 33780, Note_on_c, 3, 77, 100
8, 33780, Note_on_c, 3, 84, 100
8, 34072, Note_on_c, 3, 77, 0
8, 34074, Note_on_c, 3, 84, 0
8, 34080, Note_on_c, 3, 82, 100
8, 34080, Note_on_c, 3, 74, 100
8, 34198, Note_on_c, 3, 74, 0
8, 34198, Note_on_c, 3, 82, 0
8, 34200, Note_on_c, 3, 72, 100
8, 34200, Note_on_c, 3, 81, 100
8, 34318, Note_on_c, 3, 81, 0
8, 34318, Note_on_c, 3, 72, 0
8, 34320, Note_on_c, 3, 70, 100
8, 34320, Note_on_c, 3, 79, 100
8, 34438, Note_on_c, 3, 79, 0
8, 34438, Note_on_c, 3, 70, 0
8, 34440, Note_on_c, 3, 77, 100
8, 34499, Note_on_c, 3, 77, 0
8, 34500, Note_on_c, 3, 74, 100
8, 34559, Note_on_c, 3, 74, 0
8, 34560, Note_on_c, 3, 72, 100
8, 34560, Note_on_c, 3, 63, 100
8, 35035, Note_on_c, 3, 63, 0
8, 35035, Note_on_c, 3, 72, 0
8, 35040, Note_on_c, 3, 82, 100
8, 35040, Note_on_c, 3, 74, 100
8, 35158, Note_on_c, 3, 74, 0
8, 35158, Note_on_c, 3, 82, 0
8, 35160, Note_on_c, 3, 72, 100
8, 35160, Note_on_c, 3, 81, 100
8, 35278, Note_on_c, 3, 81, 0
8, 35278, Note_on_c, 3, 72, 0
8, 35280, Note_on_c, 3, 70, 100
8, 35280, Note_on_c, 3, 79, 100
8, 35398, Note_on_c, 3, 79, 0
8, 35398, Note_on_c, 3, 70, 0
8, 35400, Note_on_c, 3, 77, 100
8, 35459, Note_on_c, 3, 77, 0
8, 35460, Note_on_c, 3, 65, 100
8, 35460, Note_on_c, 3, 74, 100
8, 35697, Note_on_c, 3, 74, 0
8, 35697, Note_on_c, 3, 65, 0
8, 35700, Note_on_c, 3, 77, 100
8, 35700, Note_on_c, 3, 84, 100
8, 35992, Note_on_c, 3, 77, 0
8, 35994, Note_on_c, 3, 84, 0
8, 36000, Note_on_c, 3, 82, 100
8, 36000, Note_on_c, 3, 74, 100
8, 36118, Note_on_c, 3, 74, 0
8, 36118, Note_on_c, 3, 82, 0
8, 36120, Note_on_c, 3, 72, 100
8, 36120, Note_on_c, 3, 81, 100
8, 36238, Note_on_c, 3, 81, 0
8, 36238, Note_on_c, 3, 72, 0
8, 36240, Note_on_c, 3, 70, 100
8, 36240, Note_on_c, 3, 79, 100
8, 36358, Note_on_c, 3, 79, 0
8, 36358, Note_on_c, 3, 70, 0
8, 36360, Note_on_c, 3, 77, 100
8, 36419, Note_on_c, 3, 77, 0
8, 36420, Note_on_c, 3, 74, 100
8, 36479, Note_on_c, 3, 74, 0
8, 36480, Note_on_c, 3, 72, 100
8, 36480, Note_on_c, 3, 63, 100
8, 36955, Note_on_c, 3, 63, 0
8, 36955, Note_on_c, 3, 72, 0
8, 36960, Note_on_c, 3, 82, 100
8, 36960, Note_on_c, 3, 74, 100
8, 37078, Note_on_c, 3, 74, 0
8, 37078, Note_on_c, 3, 82, 0
8, 37080, Note_on_c, 3, 72, 100
8, 37080, Note_on_c, 3, 81, 100
8, 37198, Note_on_c, 3, 81, 0
8, 37198, Note_on_c, 3, 72, 0
8, 37200, Note_on_c, 3, 70, 100
8, 37200, Note_on_c, 3, 79, 100
8, 37318, Note_on_c, 3, 79, 0
8, 37318, Note_on_c, 3, 70, 0
8, 37320, Note_on_c, 3, 77, 100
8, 37379, Note_on_c, 3, 77, 0
8, 37380, Note_on_c, 3, 65, 100
8, 37380, Note_on_c, 3, 74, 100
8, 37617, Note_on_c, 3, 74, 0
8, 37617, Note_on_c, 3, 65, 0
8, 37620, Note_on_c, 3, 77, 100
8, 37620, Note_on_c, 3, 84, 100
8, 37912, Note_on_c, 3, 77, 0
8, 37914, Note_on_c, 3, 84, 0
8, 37920, Note_on_c, 3, 82, 100
8, 37920, Note_on_c, 3, 74, 100
8, 38038, Note_on_c, 3, 74, 0
8, 38038, Note_on_c, 3, 82, 0
8, 38040, Note_on_c, 3, 72, 100
8, 38040, Note_on_c, 3, 81, 100
8, 38158, Note_on_c, 3, 81, 0
8, 38158, Note_on_c, 3, 72, 0
8, 38160, Note_on_c, 3, 70, 100
8, 38160, Note_on_c, 3, 79, 100
8, 38278, Note_on_c, 3, 79, 0
8, 38278, Note_on_c, 3, 70, 0
8, 38280, Note_on_c, 3, 77, 100
8, 38339, Note_on_c, 3, 77, 0
8, 38340, Note_on_c, 3, 74, 100
8, 38399, Note_on_c, 3, 74, 0
8, 38400, Note_on_c, 3, 72, 100
8, 38400, Note_on_c, 3, 63, 100
8, 38875, Note_on_c, 3, 63, 0
8, 38875, Note_on_c, 3, 72, 0
8, 46560, Note_on_c, 3, 82, 100
8, 46560, Note_on_c, 3, 74, 100
8, 46678, Note_on_c, 3, 74, 0
8, 46678, Note_on_c, 3, 82, 0
8, 46680, Note_on_c, 3, 72, 100
8, 46680, Note_on_c, 3, 81, 100
8, 46798, Note_on_c, 3, 81, 0
8, 46798, Note_on_c, 3, 72, 0
8, 46800, Note_on_c, 3, 70, 100
8, 46800, Note_on_c, 3, 79, 100
8, 46918, Note_on_c, 3, 79, 0
8, 46918, Note_on_c, 3, 70, 0
8, 46920, Note_on_c, 3, 77, 100
8, 46979, Note_on_c, 3, 77, 0
8, 46980, Note_on_c, 3, 65, 100
8, 46980, Note_on_c, 3, 74, 100
8, 47217, Note_on_c, 3, 74, 0
8, 47217, Note_on_c, 3, 65, 0
8, 47220, Note_on_c, 3, 77, 100
8, 47220, Note_on_c, 3, 84, 100
8, 47512, Note_on_c, 3, 77, 0
8, 47514, Note_on_c, 3, 84, 0
8, 47520, Note_on_c, 3, 82, 100
8, 47520, Note_on_c, 3, 74, 100
8, 47638, Note_on_c, 3, 74, 0
8, 47638, Note_on_c, 3, 82, 0
8, 47640, Note_on_c, 3, 72, 100
8, 47640, Note_on_c, 3, 81, 100
8, 47758, Note_on_c, 3, 81, 0
8, 47758, Note_on_c, 3, 72, 0
8, 47760, Note_on_c, 3, 70, 100
8, 47760, Note_on_c, 3, 79, 100
8, 47878, Note_on_c, 3, 79, 0
8, 47878, Note_on_c, 3, 70, 0
8, 47880, Note_on_c, 3, 77, 100
8, 47939, Note_on_c, 3, 77, 0
8, 47940, Note_on_c, 3, 74, 100
8, 47999, Note_on_c, 3, 74, 0
8, 48000, Note_on_c, 3, 72, 100
8, 48000, Note_on_c, 3, 63, 100
8, 48475, Note_on_c, 3, 63, 0
8, 48475, Note_on_c, 3, 72, 0
8, 48480, Note_on_c, 3, 82, 100
8, 48480, Note_on_c, 3, 74, 100
8, 48598, Note_on_c, 3, 74, 0
8, 48598, Note_on_c, 3, 82, 0
8, 48600, Note_on_c, 3, 72, 100
8, 48600, Note_on_c, 3, 81, 100
8, 48718, Note_on_c, 3, 81, 0
8, 48718, Note_on_c, 3, 72, 0
8, 48720, Note_on_c, 3, 70, 100
8, 48720, Note_on_c, 3, 79, 100
8, 48838, Note_on_c, 3, 79, 0
8, 48838, Note_on_c, 3, 70, 0
8, 48840, Note_on_c, 3, 77, 100
8, 48899, Note_on_c, 3, 77, 0
8, 48900, Note_on_c, 3, 65, 100
8, 48900, Note_on_c, 3, 74, 100
8, 49137, Note_on_c, 3, 74, 0
8, 49137, Note_on_c, 3, 65, 0
8, 49140, Note_on_c, 3, 77, 100
8, 49140, Note_on_c, 3, 84, 100
8, 49432, Note_on_c, 3, 77, 0
8, 49434, Note_on_c, 3, 84, 0
8, 49440, Note_on_c, 3, 82, 100
8, 49440, Note_on_c, 3, 74, 100
8, 49558, Note_on_c, 3, 74, 0
8, 49558, Note_on_c, 3, 82, 0
8, 49560, Note_on_c, 3, 72, 100
8, 49560, Note_on_c, 3, 81, 100
8, 49678, Note_on_c, 3, 81, 0
8, 49678, Note_on_c, 3, 72, 0
8, 49680, Note_on_c, 3, 70, 100
8, 49680, Note_on_c, 3, 79, 100
8, 49798, Note_on_c, 3, 79, 0
8, 49798, Note_on_c, 3, 70, 0
8, 49800, Note_on_c, 3, 77, 100
8, 49859, Note_on_c, 3, 77, 0
8, 49860, Note_on_c, 3, 74, 100
8, 49919, Note_on_c, 3, 74, 0
8, 49920, Note_on_c, 3, 72, 100
8, 49920, Note_on_c, 3, 63, 100
8, 50395, Note_on_c, 3, 63, 0
8, 50395, Note_on_c, 3, 72, 0
8, 50400, Note_on_c, 3, 82, 100
8, 50400, Note_on_c, 3, 74, 100
8, 50518, Note_on_c, 3, 74, 0
8, 50518, Note_on_c, 3, 82, 0
8, 50520, Note_on_c, 3, 72, 100
8, 50520, Note_on_c, 3, 81, 100
8, 50638, Note_on_c, 3, 81, 0
8, 50638, Note_on_c, 3, 72, 0
8, 50640, Note_on_c, 3, 70, 100
8, 50640, Note_on_c, 3, 79, 100
8, 50758, Note_on_c, 3, 79, 0
8, 50758, Note_on_c, 3, 70, 0
8, 50760, Note_on_c, 3, 77, 100
8, 50819, Note_on_c, 3, 77, 0
8, 50820, Note_on_c, 3, 65, 100
8, 50820, Note_on_c, 3, 74, 100
8, 51057, Note_on_c, 3, 74, 0
8, 51057, Note_on_c, 3, 65, 0
8, 51060, Note_on_c, 3, 77, 100
8, 51060, Note_on_c, 3, 84, 100
8, 51352, Note_on_c, 3, 77, 0
8, 51354, Note_on_c, 3, 84, 0
8, 51360, Note_on_c, 3, 82, 100
8, 51360, Note_on_c, 3, 74, 100
8, 51478, Note_on_c, 3, 74, 0
8, 51478, Note_on_c, 3, 82, 0
8, 51480, Note_on_c, 3, 72, 100
8, 51480, Note_on_c, 3, 81, 100
8, 51598, Note_on_c, 3, 81, 0
8, 51598, Note_on_c, 3, 72, 0
8, 51600, Note_on_c, 3, 70, 100
8, 51600, Note_on_c, 3, 79, 100
8, 51718, Note_on_c, 3, 79, 0
8, 51718, Note_on_c, 3, 70, 0
8, 51720, Note_on_c, 3, 77, 100
8, 51779, Note_on_c, 3, 77, 0
8, 51780, Note_on_c, 3, 74, 100
8, 51839, Note_on_c, 3, 74, 0
8, 51840, Note_on_c, 3, 72, 100
8, 51840, Note_on_c, 3, 63, 100
8, 52312, Control_c, 3, 11, 99
8, 52315, Note_on_c, 3, 63, 0
8, 52315, Note_on_c, 3, 72, 0
8, 52320, Note_on_c, 3, 82, 100
8, 52320, Note_on_c, 3, 74, 100
8, 52327, Control_c, 3, 11, 98
8, 52357, Control_c, 3, 11, 97
8, 52387, Control_c, 3, 11, 96
8, 52425, Control_c, 3, 11, 95
8, 52438, Note_on_c, 3, 74, 0
8, 52438, Note_on_c, 3, 82, 0
8, 52440, Note_on_c, 3, 72, 100
8, 52440, Note_on_c, 3, 81, 100
8, 52455, Control_c, 3, 11, 94
8, 52485, Control_c, 3, 11, 93
8, 52515, Control_c, 3, 11, 92
8, 52545, Control_c, 3, 11, 91
8, 52558, Note_on_c, 3, 81, 0
8, 52558, Note_on_c, 3, 72, 0
8, 52560, Note_on_c, 3, 70, 100
8, 52560, Note_on_c, 3, 79, 100
8, 52582, Control_c, 3, 11, 90
8, 52612, Control_c, 3, 11, 89
8, 52642, Control_c, 3, 11, 88
8, 52672, Control_c, 3, 11, 87
8, 52678, Note_on_c, 3, 79, 0
8, 52678, Note_on_c, 3, 70, 0
8, 52680, Note_on_c, 3, 77, 100
8, 52710, Control_c, 3, 11, 86
8, 52739, Note_on_c, 3, 77, 0
8, 52740, Note_on_c, 3, 65, 100
8, 52740, Note_on_c, 3, 74, 100
8, 52740, Control_c, 3, 11, 85
8, 52770, Control_c, 3, 11, 84
8, 52800, Control_c, 3, 11, 83
8, 52830, Control_c, 3, 11, 82
8, 52867, Control_c, 3, 11, 81
8, 52897, Control_c, 3, 11, 80
8, 52927, Control_c, 3, 11, 79
8, 52957, Control_c, 3, 11, 78
8, 52977, Note_on_c, 3, 74, 0
8, 52977, Note_on_c, 3, 65, 0
8, 52980, Note_on_c, 3, 77, 100
8, 52980, Note_on_c, 3, 84, 100
8, 52995, Control_c, 3, 11, 77
8, 53025, Control_c, 3, 11, 76
8, 53055, Control_c, 3, 11, 75
8, 53085, Control_c, 3, 11, 74
8, 53115, Control_c, 3, 11, 73
8, 53152, Control_c, 3, 11, 72
8, 53182, Control_c, 3, 11, 71
8, 53212, Control_c, 3, 11, 70
8, 53242, Control_c, 3, 11, 69
8, 53272, Note_on_c, 3, 77, 0
8, 53274, Note_on_c, 3, 84, 0
8, 53280, Note_on_c, 3, 82, 100
8, 53280, Note_on_c, 3, 74, 100
8, 53280, Control_c, 3, 11, 68
8, 53310, Control_c, 3, 11, 67
8, 53340, Control_c, 3, 11, 66
8, 53370, Control_c, 3, 11, 65
8, 53398, Note_on_c, 3, 74, 0
8, 53398, Note_on_c, 3, 82, 0
8, 53400, Note_on_c, 3, 72, 100
8, 53400, Note_on_c, 3, 81, 100
8, 53400, Control_c, 3, 11, 64
8, 53437, Control_c, 3, 11, 63
8, 53467, Control_c, 3, 11, 62
8, 53497, Control_c, 3, 11, 61
8, 53518, Note_on_c, 3, 81, 0
8, 53518, Note_on_c, 3, 72, 0
8, 53520, Note_on_c, 3, 70, 100
8, 53520, Note_on_c, 3, 79, 100
8, 53527, Control_c, 3, 11, 60
8, 53565, Control_c, 3, 11, 59
8, 53595, Control_c, 3, 11, 58
8, 53625, Control_c, 3, 11, 57
8, 53638, Note_on_c, 3, 79, 0
8, 53638, Note_on_c, 3, 70, 0
8, 53640, Note_on_c, 3, 77, 100
8, 53655, Control_c, 3, 11, 56
8, 53685, Control_c, 3, 11, 55
8, 53699, Note_on_c, 3, 77, 0
8, 53700, Note_on_c, 3, 74, 100
8, 53722, Control_c, 3, 11, 54
8, 53752, Control_c, 3, 11, 53
8, 53759, Note_on_c, 3, 74, 0
8, 53760, Note_on_c, 3, 72, 100
8, 53760, Note_on_c, 3, 63, 100
8, 53782, Control_c, 3, 11, 52
8, 53812, Control_c, 3, 11, 51
8, 53850, Control_c, 3, 11, 50
8, 53880, Control_c, 3, 11, 49
8, 53910, Control_c, 3, 11, 48
8, 53940, Control_c, 3, 11, 47
8, 53970, Control_c, 3, 11, 46
8, 54007, Control_c, 3, 11, 45
8, 54037, Control_c, 3, 11, 44
8, 54067, Control_c, 3, 11, 43
8, 54097, Control_c, 3, 11, 42
8, 54135, Control_c, 3, 11, 41
8, 54165, Control_c, 3, 11, 40
8, 54195, Control_c, 3, 11, 39
8, 54225, Control_c, 3, 11, 38
8, 54235, Note_on_c, 3, 63, 0
8, 54235, Note_on_c, 3, 72, 0
8, 54240, Note_on_c, 3, 82, 100
8, 54240, Note_on_c, 3, 74, 100
8, 54255, Control_c, 3, 11, 37
8, 54292, Control_c, 3, 11, 36
8, 54322, Control_c, 3, 11, 35
8, 54352, Control_c, 3, 11, 34
8, 54358, Note_on_c, 3, 74, 0
8, 54358, Note_on_c, 3, 82, 0
8, 54360, Note_on_c, 3, 72, 100
8, 54360, Note_on_c, 3, 81, 100
8, 54382, Control_c, 3, 11, 33
8, 54412, Control_c, 3, 11, 32
8, 54450, Control_c, 3, 11, 31
8, 54478, Note_on_c, 3, 81, 0
8, 54478, Note_on_c, 3, 72, 0
8, 54480, Note_on_c, 3, 70, 100
8, 54480, Note_on_c, 3, 79, 100
8, 54480, Control_c, 3, 11, 30
8, 54510, Control_c, 3, 11, 29
8, 54540, Control_c, 3, 11, 28
8, 54577, Control_c, 3, 11, 27
8, 54598, Note_on_c, 3, 79, 0
8, 54598, Note_on_c, 3, 70, 0
8, 54600, Note_on_c, 3, 77, 100
8, 54607, Control_c, 3, 11, 26
8, 54637, Control_c, 3, 11, 25
8, 54659, Note_on_c, 3, 77, 0
8, 54660, Note_on_c, 3, 65, 100
8, 54660, Note_on_c, 3, 74, 100
8, 54667, Control_c, 3, 11, 24
8, 54697, Control_c, 3, 11, 23
8, 54735, Control_c, 3, 11, 22
8, 54765, Control_c, 3, 11, 21
8, 54795, Control_c, 3, 11, 20
8, 54825, Control_c, 3, 11, 19
8, 54862, Control_c, 3, 11, 18
8, 54892, Control_c, 3, 11, 17
8, 54897, Note_on_c, 3, 74, 0
8, 54897, Note_on_c, 3, 65, 0
8, 54900, Note_on_c, 3, 77, 100
8, 54900, Note_on_c, 3, 84, 100
8, 54922, Control_c, 3, 11, 16
8, 54952, Control_c, 3, 11, 15
8, 54982, Control_c, 3, 11, 14
8, 55020, Control_c, 3, 11, 13
8, 55050, Control_c, 3, 11, 12
8, 55080, Control_c, 3, 11, 11
8, 55110, Control_c, 3, 11, 10
8, 55147, Control_c, 3, 11, 9
8, 55177, Control_c, 3, 11, 8
8, 55192, Note_on_c, 3, 77, 0
8, 55194, Note_on_c, 3, 84, 0
8, 55200, Note_on_c, 3, 82, 100
8, 55200, Note_on_c, 3, 74, 100
8, 55207, Control_c, 3, 11, 7
8, 55237, Control_c, 3, 11, 6
8, 55267, Control_c, 3, 11, 5
8, 55305, Control_c, 3, 11, 4
8, 55318, Note_on_c, 3, 74, 0
8, 55318, Note_on_c, 3, 82, 0
8, 55320, Note_on_c, 3, 72, 100
8, 55320, Note_on_c, 3, 81, 100
8, 55335, Control_c, 3, 11, 3
8, 55365, Control_c, 3, 11, 2
8, 55395, Control_c, 3, 11, 1
8, 55432, Control_c, 3, 11, 0
8, 55438, Note_on_c, 3, 81, 0
8, 55438, Note_on_c, 3, 72, 0
8, 55440, Note_on_c, 3, 70, 100
8, 55440, Note_on_c, 3, 79, 100
8, 55462, Control_c, 3, 11, 0
8, 55492, Control_c, 3, 11, 0
8, 55522, Control_c, 3, 11, 0
8, 55552, Control_c, 3, 11, 0
8, 55558, Note_on_c, 3, 79, 0
8, 55558, Note_on_c, 3, 70, 0
8, 55560, Note_on_c, 3, 77, 100
8, 55590, Control_c, 3, 11, 0
8, 55619, Note_on_c, 3, 77, 0
8, 55620, Note_on_c, 3, 74, 100
8, 55620, Control_c, 3, 11, 0
8, 55650, Control_c, 3, 11, 0
8, 55650, Text_t, "%+"
8, 55679, Note_on_c, 3, 74, 0
8, 55679, End_track
9, 0, Start_track
9, 0, MIDI_port, 0
9, 0, Title_t, "Keyboard 3"
9, 0, Program_c, 4, 89
9, 0, Control_c, 4, 7, 90
9, 0, Control_c, 4, 10, 54
9, 0, Control_c, 4, 121, 127
9, 0, Control_c, 4, 0, 0
9, 0, Control_c, 4, 32, 0
9, 0, Control_c, 4, 11, 127
9, 0, Control_c, 4, 91, 80
9, 0, Control_c, 4, 93, 0
9, 4320, Note_on_c, 4, 75, 66
9, 4320, Note_on_c, 4, 67, 69
9, 4320, Note_on_c, 4, 72, 82
9, 4795, Note_on_c, 4, 72, 0
9, 4795, Note_on_c, 4, 67, 0
9, 4795, Note_on_c, 4, 75, 0
9, 4800, Note_on_c, 4, 70, 76
9, 4800, Note_on_c, 4, 74, 79
9, 4800, Note_on_c, 4, 67, 84
9, 5275, Note_on_c, 4, 67, 0
9, 5275, Note_on_c, 4, 74, 0
9, 5275, Note_on_c, 4, 70, 0
9, 5280, Note_on_c, 4, 77, 85
9, 5280, Note_on_c, 4, 72, 78
9, 5280, Note_on_c, 4, 67, 69
9, 5755, Note_on_c, 4, 67, 0
9, 5755, Note_on_c, 4, 72, 0
9, 5755, Note_on_c, 4, 77, 0
9, 5760, Note_on_c, 4, 67, 76
9, 5760, Note_on_c, 4, 72, 79
9, 5760, Note_on_c, 4, 75, 79
9, 6235, Note_on_c, 4, 75, 0
9, 6235, Note_on_c, 4, 72, 0
9, 6235, Note_on_c, 4, 67, 0
9, 6240, Note_on_c, 4, 72, 79
9, 6240, Note_on_c, 4, 63, 62
9, 6240, Note_on_c, 4, 67, 79
9, 6715, Note_on_c, 4, 67, 0
9, 6715, Note_on_c, 4, 63, 0
9, 6715, Note_on_c, 4, 72, 0
9, 6720, Note_on_c, 4, 74, 82
9, 6720, Note_on_c, 4, 67, 76
9, 6720, Note_on_c, 4, 70, 84
9, 7195, Note_on_c, 4, 70, 0
9, 7195, Note_on_c, 4, 67, 0
9, 7195, Note_on_c, 4, 74, 0
9, 7200, Note_on_c, 4, 77, 84
9, 7200, Note_on_c, 4, 72, 84
9, 7200, Note_on_c, 4, 69, 79
9, 7675, Note_on_c, 4, 69, 0
9, 7675, Note_on_c, 4, 72, 0
9, 7675, Note_on_c, 4, 77, 0
9, 7680, Note_on_c, 4, 67, 82
9, 7680, Note_on_c, 4, 72, 99
9, 7680, Note_on_c, 4, 75, 82
9, 8155, Note_on_c, 4, 75, 0
9, 8155, Note_on_c, 4, 72, 0
9, 8155, Note_on_c, 4, 67, 0
9, 8160, Note_on_c, 4, 63, 61
9, 8160, Note_on_c, 4, 72, 68
9, 8160, Note_on_c, 4, 67, 67
9, 8635, Note_on_c, 4, 67, 0
9, 8635, Note_on_c, 4, 72, 0
9, 8635, Note_on_c, 4, 63, 0
9, 8640, Note_on_c, 4, 74, 87
9, 8640, Note_on_c, 4, 70, 84
9, 8640, Note_on_c, 4, 67, 69
9, 9115, Note_on_c, 4, 67, 0
9, 9115, Note_on_c, 4, 70, 0
9, 9115, Note_on_c, 4, 74, 0
9, 9120, Note_on_c, 4, 72, 84
9, 9120, Note_on_c, 4, 65, 79
9, 9120, Note_on_c, 4, 69, 76
9, 9595, Note_on_c, 4, 69, 0
9, 9595, Note_on_c, 4, 65, 0
9, 9595, Note_on_c, 4, 72, 0
9, 9600, Note_on_c, 4, 67, 73
9, 9600, Note_on_c, 4, 72, 91
9, 9600, Note_on_c, 4, 75, 73
9, 10075, Note_on_c, 4, 75, 0
9, 10075, Note_on_c, 4, 72, 0
9, 10075, Note_on_c, 4, 67, 0
9, 10080, Note_on_c, 4, 63, 68
9, 10080, Note_on_c, 4, 72, 73
9, 10080, Note_on_c, 4, 67, 79
9, 10555, Note_on_c, 4, 67, 0
9, 10555, Note_on_c, 4, 72, 0
9, 10555, Note_on_c, 4, 63, 0
9, 10560, Note_on_c, 4, 74, 99
9, 10560, Note_on_c, 4, 67, 82
9, 10560, Note_on_c, 4, 70, 91
9, 11035, Note_on_c, 4, 70, 0
9, 11035, Note_on_c, 4, 67, 0
9, 11035, Note_on_c, 4, 74, 0
9, 11040, Note_on_c, 4, 77, 84
9, 11040, Note_on_c, 4, 72, 99
9, 11040, Note_on_c, 4, 69, 91
9, 11515, Note_on_c, 4, 69, 0
9, 11515, Note_on_c, 4, 72, 0
9, 11515, Note_on_c, 4, 77, 0
9, 11520, Note_on_c, 4, 67, 79
9, 11520, Note_on_c, 4, 72, 95
9, 11520, Note_on_c, 4, 75, 95
9, 11995, Note_on_c, 4, 75, 0
9, 11995, Note_on_c, 4, 72, 0
9, 11995, Note_on_c, 4, 67, 0
9, 12000, Note_on_c, 4, 69, 71
9, 12000, Note_on_c, 4, 77, 71
9, 12000, Note_on_c, 4, 72, 82
9, 12000, Note_on_c, 4, 74, 79
9, 12475, Note_on_c, 4, 74, 0
9, 12475, Note_on_c, 4, 69, 0
9, 12475, Note_on_c, 4, 77, 0
9, 12475, Note_on_c, 4, 72, 0
9, 12480, Note_on_c, 4, 70, 66
9, 12480, Note_on_c, 4, 74, 84
9, 12480, Note_on_c, 4, 79, 66
9, 12955, Note_on_c, 4, 79, 0
9, 12955, Note_on_c, 4, 74, 0
9, 12955, Note_on_c, 4, 70, 0
9, 12960, Note_on_c, 4, 77, 73
9, 12960, Note_on_c, 4, 72, 73
9, 12960, Note_on_c, 4, 69, 71
9, 13365, Note_on_c, 4, 69, 0
9, 13365, Note_on_c, 4, 72, 0
9, 13365, Note_on_c, 4, 77, 0
9, 13380, Note_on_c, 4, 78, 79
9, 13380, Note_on_c, 4, 74, 76
9, 13380, Note_on_c, 4, 72, 79
9, 13380, Note_on_c, 4, 66, 69
9, 13915, Note_on_c, 4, 66, 0
9, 13915, Note_on_c, 4, 78, 0
9, 13915, Note_on_c, 4, 74, 0
9, 13915, Note_on_c, 4, 72, 0
9, 13915, End_track
10, 0, Start_track
10, 0, MIDI_port, 0
10, 0, Title_t, "Keyboard 4"
10, 0, Program_c, 5, 81
10, 0, Control_c, 5, 7, 100
10, 0, Control_c, 5, 10, 74
10, 0, Control_c, 5, 121, 127
10, 0, Control_c, 5, 0, 0
10, 0, Control_c, 5, 32, 0
10, 0, Control_c, 5, 11, 127
10, 0, Control_c, 5, 91, 80
10, 0, Control_c, 5, 93, 0
10, 42720, Note_on_c, 5, 82, 87
10, 42780, Note_on_c, 5, 74, 67
10, 42785, Note_on_c, 5, 82, 0
10, 42809, Note_on_c, 5, 74, 0
10, 42840, Note_on_c, 5, 81, 95
10, 42900, Note_on_c, 5, 74, 68
10, 42908, Note_on_c, 5, 81, 0
10, 42954, Note_on_c, 5, 74, 0
10, 42960, Note_on_c, 5, 79, 95
10, 43074, Note_on_c, 5, 79, 0
10, 43080, Note_on_c, 5, 77, 103
10, 43139, Note_on_c, 5, 77, 0
10, 43140, Note_on_c, 5, 74, 95
10, 43358, Note_on_c, 5, 74, 0
10, 43380, Note_on_c, 5, 84, 88
10, 43620, Note_on_c, 5, 74, 61
10, 43632, Note_on_c, 5, 84, 0
10, 43640, Note_on_c, 5, 74, 0
10, 43680, Note_on_c, 5, 82, 107
10, 43740, Note_on_c, 5, 74, 71
10, 43750, Note_on_c, 5, 82, 0
10, 43788, Note_on_c, 5, 74, 0
10, 43800, Note_on_c, 5, 81, 91
10, 43860, Note_on_c, 5, 74, 68
10, 43876, Note_on_c, 5, 81, 0
10, 43920, Note_on_c, 5, 79, 91
10, 43930, Note_on_c, 5, 74, 0
10, 44007, Note_on_c, 5, 79, 0
10, 44040, Note_on_c, 5, 77, 99
10, 44100, Note_on_c, 5, 74, 95
10, 44106, Note_on_c, 5, 77, 0
10, 44160, Note_on_c, 5, 72, 95
10, 44178, Note_on_c, 5, 74, 0
10, 44427, Note_on_c, 5, 72, 0
10, 44460, Note_on_c, 5, 74, 84
10, 44520, Note_on_c, 5, 77, 91
10, 44535, Note_on_c, 5, 74, 0
10, 44580, Note_on_c, 5, 74, 76
10, 44588, Note_on_c, 5, 77, 0
10, 44640, Note_on_c, 5, 82, 99
10, 44649, Note_on_c, 5, 74, 0
10, 44700, Note_on_c, 5, 74, 71
10, 44709, Note_on_c, 5, 82, 0
10, 44746, Note_on_c, 5, 74, 0
10, 44760, Note_on_c, 5, 81, 87
10, 44820, Note_on_c, 5, 74, 68
10, 44836, Note_on_c, 5, 81, 0
10, 44880, Note_on_c, 5, 79, 103
10, 44891, Note_on_c, 5, 74, 0
10, 45000, Note_on_c, 5, 77, 95
10, 45010, Note_on_c, 5, 79, 0
10, 45060, Note_on_c, 5, 74, 73
10, 45062, Note_on_c, 5, 77, 0
10, 45289, Note_on_c, 5, 74, 0
10, 45300, Note_on_c, 5, 84, 95
10, 45535, Note_on_c, 5, 84, 0
10, 45540, Note_on_c, 5, 74, 79
10, 45600, Note_on_c, 5, 82, 95
10, 45608, Note_on_c, 5, 74, 0
10, 45660, Note_on_c, 5, 74, 79
10, 45674, Note_on_c, 5, 82, 0
10, 45720, Note_on_c, 5, 81, 79
10, 45728, Note_on_c, 5, 74, 0
10, 45780, Note_on_c, 5, 74, 71
10, 45791, Note_on_c, 5, 81, 0
10, 45840, Note_on_c, 5, 79, 95
10, 45850, Note_on_c, 5, 74, 0
10, 45960, Note_on_c, 5, 77, 95
10, 45969, Note_on_c, 5, 79, 0
10, 46020, Note_on_c, 5, 74, 67
10, 46032, Note_on_c, 5, 77, 0
10, 46080, Note_on_c, 5, 72, 95
10, 46088, Note_on_c, 5, 74, 0
10, 46557, Note_on_c, 5, 72, 0
10, 46557, End_track
11, 0, Start_track
11, 0, MIDI_port, 0
11, 0, Title_t, "Keyboard 5"
11, 0, Program_c, 6, 91
11, 0, Control_c, 6, 7, 100
11, 0, Control_c, 6, 10, 64
11, 0, Control_c, 6, 121, 127
11, 0, Control_c, 6, 0, 0
11, 0, Control_c, 6, 32, 0
11, 0, Control_c, 6, 11, 127
11, 0, Control_c, 6, 91, 80
11, 0, Control_c, 6, 93, 0
11, 38880, Note_on_c, 6, 55, 95
11, 38882, Note_on_c, 6, 43, 84
11, 39798, Note_on_c, 6, 55, 0
11, 39801, Note_on_c, 6, 43, 0
11, 39837, Note_on_c, 6, 55, 87
11, 39838, Note_on_c, 6, 43, 82
11, 40742, Note_on_c, 6, 43, 0
11, 40742, Note_on_c, 6, 55, 0
11, 40803, Note_on_c, 6, 43, 73
11, 40803, Note_on_c, 6, 55, 91
11, 41757, Note_on_c, 6, 43, 0
11, 41759, Note_on_c, 6, 55, 0
11, 41759, End_track
12, 0, Start_track
12, 0, MIDI_port, 0
12, 0, Title_t, "Guitar"
12, 0, Program_c, 7, 27
12, 0, Control_c, 7, 7, 110
12, 0, Control_c, 7, 10, 64
12, 0, Control_c, 7, 121, 127
12, 0, Control_c, 7, 0, 0
12, 0, Control_c, 7, 32, 0
12, 0, Control_c, 7, 11, 127
12, 0, Control_c, 7, 91, 80
12, 0, Control_c, 7, 93, 0
12, 427, Control_c, 7, 1, 0
12, 5125, Control_c, 7, 1, 17
12, 5145, Control_c, 7, 1, 16
12, 5153, Control_c, 7, 1, 14
12, 5154, Control_c, 7, 1, 13
12, 5157, Control_c, 7, 1, 12
12, 5160, Control_c, 7, 1, 11
12, 5165, Control_c, 7, 1, 9
12, 5170, Control_c, 7, 1, 8
12, 5273, Control_c, 7, 1, 9
12, 5284, Control_c, 7, 1, 10
12, 5290, Control_c, 7, 1, 12
12, 5296, Control_c, 7, 1, 13
12, 5305, Control_c, 7, 1, 14
12, 5577, Control_c, 7, 1, 13
12, 5591, Control_c, 7, 1, 12
12, 5835, Pitch_bend_c, 7, 8064
12, 5836, Pitch_bend_c, 7, 7808
12, 5837, Pitch_bend_c, 7, 7680
12, 5839, Pitch_bend_c, 7, 7424
12, 5841, Pitch_bend_c, 7, 7296
12, 5842, Pitch_bend_c, 7, 7040
12, 5844, Pitch_bend_c, 7, 6784
12, 5845, Pitch_bend_c, 7, 6528
12, 5847, Pitch_bend_c, 7, 6144
12, 5849, Pitch_bend_c, 7, 5888
12, 5850, Pitch_bend_c, 7, 5632
12, 5852, Pitch_bend_c, 7, 5376
12, 5853, Pitch_bend_c, 7, 4992
12, 5855, Pitch_bend_c, 7, 4736
12, 5856, Pitch_bend_c, 7, 4480
12, 5858, Pitch_bend_c, 7, 4224
12, 5859, Pitch_bend_c, 7, 4096
12, 5861, Pitch_bend_c, 7, 3968
12, 5862, Pitch_bend_c, 7, 3840
12, 5866, Pitch_bend_c, 7, 3584
12, 5870, Pitch_bend_c, 7, 3456
12, 5875, Pitch_bend_c, 7, 3328
12, 5878, Pitch_bend_c, 7, 3200
12, 5882, Pitch_bend_c, 7, 3072
12, 5890, Note_on_c, 7, 60, 103
12, 5904, Pitch_bend_c, 7, 3200
12, 5906, Pitch_bend_c, 7, 3328
12, 5907, Pitch_bend_c, 7, 3456
12, 5911, Pitch_bend_c, 7, 3712
12, 5912, Pitch_bend_c, 7, 3840
12, 5914, Pitch_bend_c, 7, 4096
12, 5915, Pitch_bend_c, 7, 4224
12, 5916, Pitch_bend_c, 7, 4480
12, 5918, Pitch_bend_c, 7, 4736
12, 5919, Pitch_bend_c, 7, 4992
12, 5921, Pitch_bend_c, 7, 5120
12, 5923, Pitch_bend_c, 7, 5376
12, 5924, Pitch_bend_c, 7, 5504
12, 5926, Pitch_bend_c, 7, 5632
12, 5929, Pitch_bend_c, 7, 5888
12, 5930, Pitch_bend_c, 7, 6144
12, 5932, Pitch_bend_c, 7, 6272
12, 5933, Pitch_bend_c, 7, 6400
12, 5935, Pitch_bend_c, 7, 6656
12, 5936, Pitch_bend_c, 7, 6784
12, 5938, Pitch_bend_c, 7, 7168
12, 5939, Pitch_bend_c, 7, 7296
12, 5941, Pitch_bend_c, 7, 7552
12, 5943, Pitch_bend_c, 7, 7808
12, 5944, Pitch_bend_c, 7, 8192
12, 5945, Pitch_bend_c, 7, 8192
12, 6005, Note_on_c, 7, 58, 95
12, 6016, Note_on_c, 7, 60, 0
12, 6090, Note_on_c, 7, 58, 0
12, 6126, Note_on_c, 7, 55, 87
12, 6149, Note_on_c, 7, 53, 71
12, 6152, Note_on_c, 7, 55, 0
12, 6180, Note_on_c, 7, 50, 91
12, 6182, Note_on_c, 7, 53, 0
12, 6200, Note_on_c, 7, 50, 0
12, 6240, Note_on_c, 7, 55, 99
12, 6246, Pitch_bend_c, 7, 8064
12, 6248, Pitch_bend_c, 7, 7808
12, 6249, Pitch_bend_c, 7, 7424
12, 6251, Pitch_bend_c, 7, 7040
12, 6253, Pitch_bend_c, 7, 6656
12, 6254, Pitch_bend_c, 7, 6144
12, 6255, Pitch_bend_c, 7, 5760
12, 6257, Pitch_bend_c, 7, 5376
12, 6259, Pitch_bend_c, 7, 4864
12, 6261, Pitch_bend_c, 7, 4608
12, 6262, Pitch_bend_c, 7, 4352
12, 6264, Pitch_bend_c, 7, 4096
12, 6265, Pitch_bend_c, 7, 3968
12, 6267, Pitch_bend_c, 7, 3840
12, 6268, Pitch_bend_c, 7, 3712
12, 6281, Pitch_bend_c, 7, 3840
12, 6284, Pitch_bend_c, 7, 4096
12, 6285, Pitch_bend_c, 7, 4224
12, 6287, Pitch_bend_c, 7, 4480
12, 6288, Pitch_bend_c, 7, 4736
12, 6290, Pitch_bend_c, 7, 4992
12, 6291, Pitch_bend_c, 7, 5376
12, 6293, Pitch_bend_c, 7, 5760
12, 6294, Pitch_bend_c, 7, 6016
12, 6296, Pitch_bend_c, 7, 6400
12, 6298, Pitch_bend_c, 7, 6656
12, 6299, Pitch_bend_c, 7, 7040
12, 6301, Pitch_bend_c, 7, 7296
12, 6302, Pitch_bend_c, 7, 7424
12, 6303, Pitch_bend_c, 7, 7680
12, 6305, Pitch_bend_c, 7, 7936
12, 6307, Pitch_bend_c, 7, 8064
12, 6308, Pitch_bend_c, 7, 8192
12, 6396, Control_c, 7, 1, 13
12, 6399, Control_c, 7, 1, 14
12, 6402, Control_c, 7, 1, 15
12, 6405, Control_c, 7, 1, 16
12, 6408, Control_c, 7, 1, 17
12, 6413, Control_c, 7, 1, 18
12, 6418, Control_c, 7, 1, 19
12, 6441, Control_c, 7, 1, 20
12, 6450, Control_c, 7, 1, 22
12, 6458, Control_c, 7, 1, 23
12, 6464, Control_c, 7, 1, 24
12, 6475, Control_c, 7, 1, 25
12, 6478, Control_c, 7, 1, 26
12, 6481, Control_c, 7, 1, 27
12, 6486, Control_c, 7, 1, 28
12, 6494, Control_c, 7, 1, 29
12, 6698, Pitch_bend_c, 7, 7936
12, 6699, Pitch_bend_c, 7, 7552
12, 6701, Pitch_bend_c, 7, 7296
12, 6703, Pitch_bend_c, 7, 6912
12, 6704, Pitch_bend_c, 7, 6656
12, 6705, Pitch_bend_c, 7, 6400
12, 6707, Pitch_bend_c, 7, 6144
12, 6708, Pitch_bend_c, 7, 5888
12, 6710, Pitch_bend_c, 7, 5760
12, 6716, Note_on_c, 7, 55, 0
12, 6725, Pitch_bend_c, 7, 6016
12, 6729, Pitch_bend_c, 7, 6144
12, 6730, Pitch_bend_c, 7, 6272
12, 6732, Pitch_bend_c, 7, 6400
12, 6734, Pitch_bend_c, 7, 6656
12, 6735, Pitch_bend_c, 7, 6912
12, 6737, Pitch_bend_c, 7, 7168
12, 6738, Pitch_bend_c, 7, 7424
12, 6739, Pitch_bend_c, 7, 7680
12, 6741, Pitch_bend_c, 7, 8064
12, 6743, Pitch_bend_c, 7, 8192
12, 8766, Note_on_c, 7, 58, 104
12, 8787, Note_on_c, 7, 58, 0
12, 8820, Note_on_c, 7, 65, 106
12, 8872, Note_on_c, 7, 60, 107
12, 8879, Note_on_c, 7, 65, 0
12, 8882, Pitch_bend_c, 7, 8582
12, 8883, Pitch_bend_c, 7, 9362
12, 8884, Pitch_bend_c, 7, 10012
12, 8885, Pitch_bend_c, 7, 10792
12, 8887, Pitch_bend_c, 7, 11572
12, 8888, Pitch_bend_c, 7, 12222
12, 8890, Pitch_bend_c, 7, 12872
12, 8891, Pitch_bend_c, 7, 13522
12, 8892, Pitch_bend_c, 7, 14172
12, 8894, Pitch_bend_c, 7, 14822
12, 8895, Pitch_bend_c, 7, 15342
12, 8896, Pitch_bend_c, 7, 15862
12, 8897, Pitch_bend_c, 7, 16382
12, 8934, Note_on_c, 7, 60, 0
12, 8940, Pitch_bend_c, 7, 15602
12, 8941, Pitch_bend_c, 7, 12872
12, 8942, Pitch_bend_c, 7, 8192
12, 8944, Pitch_bend_c, 7, 6528
12, 8945, Pitch_bend_c, 7, 3968
12, 8948, Note_on_c, 7, 58, 107
12, 8948, Pitch_bend_c, 7, 7168
12, 8949, Pitch_bend_c, 7, 8322
12, 8950, Pitch_bend_c, 7, 11442
12, 8952, Pitch_bend_c, 7, 12222
12, 8953, Pitch_bend_c, 7, 10662
12, 8955, Pitch_bend_c, 7, 8192
12, 8956, Pitch_bend_c, 7, 7040
12, 8957, Pitch_bend_c, 7, 5888
12, 8958, Pitch_bend_c, 7, 7040
12, 8960, Pitch_bend_c, 7, 8192
12, 8961, Pitch_bend_c, 7, 9622
12, 8962, Pitch_bend_c, 7, 10402
12, 8963, Pitch_bend_c, 7, 8972
12, 8965, Pitch_bend_c, 7, 8192
12, 8966, Pitch_bend_c, 7, 7552
12, 8967, Pitch_bend_c, 7, 7936
12, 8969, Note_on_c, 7, 58, 0
12, 8969, Pitch_bend_c, 7, 8192
12, 8970, Pitch_bend_c, 7, 8972
12, 8971, Pitch_bend_c, 7, 8582
12, 8973, Pitch_bend_c, 7, 8192
12, 8997, Note_on_c, 7, 60, 107
12, 9015, Pitch_bend_c, 7, 8322
12, 9017, Pitch_bend_c, 7, 9102
12, 9018, Pitch_bend_c, 7, 9882
12, 9019, Pitch_bend_c, 7, 10662
12, 9020, Pitch_bend_c, 7, 11572
12, 9022, Pitch_bend_c, 7, 12222
12, 9023, Pitch_bend_c, 7, 13002
12, 9024, Pitch_bend_c, 7, 13652
12, 9026, Pitch_bend_c, 7, 14302
12, 9027, Pitch_bend_c, 7, 15082
12, 9028, Pitch_bend_c, 7, 15732
12, 9029, Pitch_bend_c, 7, 16382
12, 9067, Pitch_bend_c, 7, 16252
12, 9068, Pitch_bend_c, 7, 15862
12, 9070, Pitch_bend_c, 7, 15342
12, 9071, Pitch_bend_c, 7, 14822
12, 9072, Pitch_bend_c, 7, 14172
12, 9074, Pitch_bend_c, 7, 13132
12, 9075, Pitch_bend_c, 7, 10792
12, 9076, Pitch_bend_c, 7, 8192
12, 9077, Pitch_bend_c, 7, 7424
12, 9078, Pitch_bend_c, 7, 7040
12, 9080, Pitch_bend_c, 7, 8192
12, 9081, Pitch_bend_c, 7, 8192
12, 9082, Pitch_bend_c, 7, 9492
12, 9084, Pitch_bend_c, 7, 8842
12, 9085, Pitch_bend_c, 7, 8192
12, 9086, Pitch_bend_c, 7, 8064
12, 9087, Pitch_bend_c, 7, 8192
12, 9090, Pitch_bend_c, 7, 8582
12, 9091, Pitch_bend_c, 7, 8192
12, 9244, Control_c, 7, 1, 35
12, 9247, Control_c, 7, 1, 36
12, 9249, Control_c, 7, 1, 37
12, 9252, Control_c, 7, 1, 39
12, 9254, Control_c, 7, 1, 41
12, 9257, Control_c, 7, 1, 43
12, 9258, Control_c, 7, 1, 45
12, 9260, Control_c, 7, 1, 46
12, 9261, Control_c, 7, 1, 48
12, 9282, Control_c, 7, 1, 46
12, 9284, Control_c, 7, 1, 45
12, 9362, Control_c, 7, 1, 44
12, 9366, Control_c, 7, 1, 42
12, 9370, Control_c, 7, 1, 41
12, 9373, Control_c, 7, 1, 40
12, 9457, Note_on_c, 7, 60, 0
12, 23102, Note_on_c, 7, 55, 113
12, 23163, Note_on_c, 7, 58, 114
12, 23182, Note_on_c, 7, 55, 0
12, 23208, Note_on_c, 7, 58, 0
12, 23220, Note_on_c, 7, 65, 115
12, 23279, Note_on_c, 7, 62, 112
12, 23288, Note_on_c, 7, 65, 0
12, 23333, Note_on_c, 7, 60, 107
12, 23347, Note_on_c, 7, 62, 0
12, 23371, Note_on_c, 7, 58, 106
12, 23373, Note_on_c, 7, 60, 0
12, 23393, Note_on_c, 7, 60, 104
12, 23398, Note_on_c, 7, 58, 0
12, 23453, Note_on_c, 7, 60, 0
12, 23454, Note_on_c, 7, 55, 102
12, 23486, Note_on_c, 7, 55, 0
12, 23493, Pitch_bend_c, 7, 7680
12, 23495, Pitch_bend_c, 7, 7168
12, 23496, Pitch_bend_c, 7, 6528
12, 23498, Pitch_bend_c, 7, 5888
12, 23500, Pitch_bend_c, 7, 5120
12, 23501, Pitch_bend_c, 7, 4352
12, 23502, Pitch_bend_c, 7, 3712
12, 23504, Pitch_bend_c, 7, 3072
12, 23506, Pitch_bend_c, 7, 2560
12, 23507, Pitch_bend_c, 7, 2176
12, 23509, Pitch_bend_c, 7, 1664
12, 23510, Pitch_bend_c, 7, 1408
12, 23512, Pitch_bend_c, 7, 1024
12, 23513, Pitch_bend_c, 7, 640
12, 23515, Pitch_bend_c, 7, 512
12, 23517, Pitch_bend_c, 7, 256
12, 23520, Note_on_c, 7, 60, 99
12, 23520, Pitch_bend_c, 7, 128
12, 23526, Pitch_bend_c, 7, 384
12, 23528, Pitch_bend_c, 7, 512
12, 23529, Pitch_bend_c, 7, 640
12, 23531, Pitch_bend_c, 7, 1024
12, 23532, Pitch_bend_c, 7, 1408
12, 23534, Pitch_bend_c, 7, 1792
12, 23535, Pitch_bend_c, 7, 2304
12, 23537, Pitch_bend_c, 7, 2688
12, 23538, Pitch_bend_c, 7, 3200
12, 23540, Pitch_bend_c, 7, 3712
12, 23541, Pitch_bend_c, 7, 4224
12, 23543, Pitch_bend_c, 7, 4736
12, 23545, Pitch_bend_c, 7, 5376
12, 23546, Pitch_bend_c, 7, 5760
12, 23548, Pitch_bend_c, 7, 6144
12, 23549, Pitch_bend_c, 7, 6656
12, 23551, Pitch_bend_c, 7, 7040
12, 23552, Pitch_bend_c, 7, 7296
12, 23554, Pitch_bend_c, 7, 7680
12, 23555, Pitch_bend_c, 7, 7936
12, 23557, Pitch_bend_c, 7, 8192
12, 23827, Control_c, 7, 1, 9
12, 23834, Control_c, 7, 1, 10
12, 23837, Control_c, 7, 1, 11
12, 23840, Control_c, 7, 1, 13
12, 23842, Control_c, 7, 1, 14
12, 23843, Control_c, 7, 1, 15
12, 23846, Control_c, 7, 1, 16
12, 23849, Control_c, 7, 1, 17
12, 23852, Control_c, 7, 1, 18
12, 23857, Control_c, 7, 1, 19
12, 23865, Control_c, 7, 1, 20
12, 23873, Control_c, 7, 1, 21
12, 23879, Control_c, 7, 1, 22
12, 23885, Control_c, 7, 1, 24
12, 24015, Note_on_c, 7, 60, 0
12, 26944, Note_on_c, 7, 70, 104
12, 27002, Note_on_c, 7, 69, 105
12, 27015, Note_on_c, 7, 70, 0
12, 27056, Note_on_c, 7, 67, 106
12, 27065, Note_on_c, 7, 69, 0
12, 27081, Note_on_c, 7, 67, 0
12, 27112, Pitch_bend_c, 7, 7680
12, 27114, Pitch_bend_c, 7, 7296
12, 27117, Pitch_bend_c, 7, 8064
12, 27119, Pitch_bend_c, 7, 8192
12, 27120, Pitch_bend_c, 7, 8452
12, 27122, Pitch_bend_c, 7, 8192
12, 27125, Note_on_c, 7, 67, 107
12, 27150, Pitch_bend_c, 7, 8712
12, 27151, Pitch_bend_c, 7, 9622
12, 27153, Pitch_bend_c, 7, 10662
12, 27154, Pitch_bend_c, 7, 11702
12, 27156, Pitch_bend_c, 7, 12352
12, 27157, Pitch_bend_c, 7, 13132
12, 27159, Pitch_bend_c, 7, 13912
12, 27160, Pitch_bend_c, 7, 14562
12, 27162, Pitch_bend_c, 7, 15082
12, 27163, Pitch_bend_c, 7, 15342
12, 27165, Pitch_bend_c, 7, 15472
12, 27167, Pitch_bend_c, 7, 15602
12, 27170, Pitch_bend_c, 7, 15732
12, 27172, Pitch_bend_c, 7, 15992
12, 27176, Pitch_bend_c, 7, 16122
12, 27177, Pitch_bend_c, 7, 16252
12, 27179, Pitch_bend_c, 7, 16382
12, 27253, Pitch_bend_c, 7, 16252
12, 27254, Pitch_bend_c, 7, 15992
12, 27256, Pitch_bend_c, 7, 15732
12, 27257, Pitch_bend_c, 7, 15472
12, 27259, Pitch_bend_c, 7, 15082
12, 27261, Pitch_bend_c, 7, 14692
12, 27262, Pitch_bend_c, 7, 14302
12, 27264, Pitch_bend_c, 7, 13652
12, 27265, Pitch_bend_c, 7, 13262
12, 27267, Pitch_bend_c, 7, 13132
12, 27268, Pitch_bend_c, 7, 12872
12, 27270, Pitch_bend_c, 7, 12742
12, 27271, Pitch_bend_c, 7, 12612
12, 27273, Pitch_bend_c, 7, 12352
12, 27274, Pitch_bend_c, 7, 12092
12, 27276, Pitch_bend_c, 7, 11832
12, 27278, Pitch_bend_c, 7, 11702
12, 27279, Pitch_bend_c, 7, 11442
12, 27280, Pitch_bend_c, 7, 11052
12, 27282, Pitch_bend_c, 7, 10792
12, 27283, Pitch_bend_c, 7, 10662
12, 27285, Pitch_bend_c, 7, 10402
12, 27287, Pitch_bend_c, 7, 10012
12, 27288, Pitch_bend_c, 7, 9622
12, 27290, Pitch_bend_c, 7, 8322
12, 27291, Pitch_bend_c, 7, 8192
12, 27293, Note_on_c, 7, 67, 0
12, 27317, Note_on_c, 7, 65, 107
12, 27337, Note_on_c, 7, 65, 0
12, 27338, Note_on_c, 7, 62, 107
12, 27367, Note_on_c, 7, 65, 107
12, 27378, Note_on_c, 7, 62, 0
12, 27473, Note_on_c, 7, 62, 107
12, 27486, Note_on_c, 7, 65, 0
12, 27502, Note_on_c, 7, 62, 0
12, 27532, Pitch_bend_c, 7, 7680
12, 27533, Pitch_bend_c, 7, 7168
12, 27535, Pitch_bend_c, 7, 6656
12, 27537, Pitch_bend_c, 7, 6144
12, 27538, Pitch_bend_c, 7, 5504
12, 27540, Pitch_bend_c, 7, 4992
12, 27541, Pitch_bend_c, 7, 4480
12, 27543, Pitch_bend_c, 7, 4224
12, 27544, Pitch_bend_c, 7, 3840
12, 27546, Pitch_bend_c, 7, 3584
12, 27546, Note_on_c, 7, 67, 107
12, 27547, Pitch_bend_c, 7, 3456
12, 27549, Pitch_bend_c, 7, 3200
12, 27550, Pitch_bend_c, 7, 2944
12, 27554, Pitch_bend_c, 7, 2816
12, 27557, Pitch_bend_c, 7, 2688
12, 27561, Pitch_bend_c, 7, 2432
12, 27569, Pitch_bend_c, 7, 2304
12, 27581, Pitch_bend_c, 7, 2432
12, 27583, Pitch_bend_c, 7, 2560
12, 27585, Pitch_bend_c, 7, 2816
12, 27586, Pitch_bend_c, 7, 3072
12, 27588, Pitch_bend_c, 7, 3456
12, 27589, Pitch_bend_c, 7, 3712
12, 27590, Pitch_bend_c, 7, 4224
12, 27592, Pitch_bend_c, 7, 4736
12, 27594, Pitch_bend_c, 7, 5376
12, 27595, Pitch_bend_c, 7, 5888
12, 27597, Pitch_bend_c, 7, 6400
12, 27599, Pitch_bend_c, 7, 6784
12, 27600, Pitch_bend_c, 7, 7296
12, 27602, Pitch_bend_c, 7, 7552
12, 27603, Pitch_bend_c, 7, 7936
12, 27605, Pitch_bend_c, 7, 8192
12, 27606, Pitch_bend_c, 7, 8192
12, 27950, Note_on_c, 7, 67, 0
12, 27950, End_track
13, 0, Start_track
13, 0, MIDI_port, 0
13, 0, Title_t, "Strings 1"
13, 0, Program_c, 8, 50
13, 0, Control_c, 8, 7, 87
13, 0, Control_c, 8, 10, 58
13, 0, Control_c, 8, 121, 127
13, 0, Control_c, 8, 0, 0
13, 0, Control_c, 8, 32, 0
13, 0, Control_c, 8, 11, 127
13, 0, Control_c, 8, 91, 80
13, 0, Control_c, 8, 93, 0
13, 480, Text_t, "%-"
13, 480, Note_on_c, 8, 79, 82
13, 480, Note_on_c, 8, 70, 73
13, 480, Note_on_c, 8, 74, 87
13, 955, Note_on_c, 8, 74, 0
13, 955, Note_on_c, 8, 70, 0
13, 955, Note_on_c, 8, 79, 0
13, 960, Note_on_c, 8, 77, 91
13, 960, Note_on_c, 8, 69, 84
13, 960, Note_on_c, 8, 74, 91
13, 1435, Note_on_c, 8, 74, 0
13, 1435, Note_on_c, 8, 69, 0
13, 1435, Note_on_c, 8, 77, 0
13, 1440, Note_on_c, 8, 63, 73
13, 1440, Note_on_c, 8, 70, 79
13, 1440, Note_on_c, 8, 74, 84
13, 1915, Note_on_c, 8, 74, 0
13, 1915, Note_on_c, 8, 70, 0
13, 1915, Note_on_c, 8, 63, 0
13, 1920, Note_on_c, 8, 67, 82
13, 1920, Note_on_c, 8, 72, 103
13, 1920, Note_on_c, 8, 75, 73
13, 2395, Note_on_c, 8, 75, 0
13, 2395, Note_on_c, 8, 72, 0
13, 2395, Note_on_c, 8, 67, 0
13, 2400, Note_on_c, 8, 79, 82
13, 2400, Note_on_c, 8, 70, 73
13, 2400, Note_on_c, 8, 74, 87
13, 2875, Note_on_c, 8, 74, 0
13, 2875, Note_on_c, 8, 70, 0
13, 2875, Note_on_c, 8, 79, 0
13, 2880, Note_on_c, 8, 77, 91
13, 2880, Note_on_c, 8, 69, 84
13, 2880, Note_on_c, 8, 74, 91
13, 3355, Note_on_c, 8, 74, 0
13, 3355, Note_on_c, 8, 69, 0
13, 3355, Note_on_c, 8, 77, 0
13, 3360, Note_on_c, 8, 63, 73
13, 3360, Note_on_c, 8, 70, 79
13, 3360, Note_on_c, 8, 74, 84
13, 3835, Note_on_c, 8, 74, 0
13, 3835, Note_on_c, 8, 70, 0
13, 3835, Note_on_c, 8, 63, 0
13, 3840, Note_on_c, 8, 67, 82
13, 3840, Note_on_c, 8, 72, 103
13, 3840, Note_on_c, 8, 75, 73
13, 4315, Note_on_c, 8, 75, 0
13, 4315, Note_on_c, 8, 72, 0
13, 4315, Note_on_c, 8, 67, 0
13, 13920, Note_on_c, 8, 79, 82
13, 13920, Note_on_c, 8, 70, 73
13, 13920, Note_on_c, 8, 74, 87
13, 14395, Note_on_c, 8, 74, 0
13, 14395, Note_on_c, 8, 70, 0
13, 14395, Note_on_c, 8, 79, 0
13, 14400, Note_on_c, 8, 77, 91
13, 14400, Note_on_c, 8, 69, 84
13, 14400, Note_on_c, 8, 74, 91
13, 14875, Note_on_c, 8, 74, 0
13, 14875, Note_on_c, 8, 69, 0
13, 14875, Note_on_c, 8, 77, 0
13, 14880, Note_on_c, 8, 79, 73
13, 14880, Note_on_c, 8, 70, 79
13, 14880, Note_on_c, 8, 74, 84
13, 15355, Note_on_c, 8, 74, 0
13, 15355, Note_on_c, 8, 70, 0
13, 15355, Note_on_c, 8, 79, 0
13, 15360, Note_on_c, 8, 67, 82
13, 15360, Note_on_c, 8, 72, 103
13, 15360, Note_on_c, 8, 75, 73
13, 15835, Note_on_c, 8, 75, 0
13, 15835, Note_on_c, 8, 72, 0
13, 15835, Note_on_c, 8, 67, 0
13, 15840, Note_on_c, 8, 79, 82
13, 15840, Note_on_c, 8, 70, 73
13, 15840, Note_on_c, 8, 74, 87
13, 16315, Note_on_c, 8, 74, 0
13, 16315, Note_on_c, 8, 70, 0
13, 16315, Note_on_c, 8, 79, 0
13, 16320, Note_on_c, 8, 77, 91
13, 16320, Note_on_c, 8, 69, 84
13, 16320, Note_on_c, 8, 74, 91
13, 16795, Note_on_c, 8, 74, 0
13, 16795, Note_on_c, 8, 69, 0
13, 16795, Note_on_c, 8, 77, 0
13, 16800, Note_on_c, 8, 79, 73
13, 16800, Note_on_c, 8, 70, 79
13, 16800, Note_on_c, 8, 74, 84
13, 17275, Note_on_c, 8, 74, 0
13, 17275, Note_on_c, 8, 70, 0
13, 17275, Note_on_c, 8, 79, 0
13, 17280, Note_on_c, 8, 67, 82
13, 17280, Note_on_c, 8, 72, 103
13, 17280, Note_on_c, 8, 75, 73
13, 17755, Note_on_c, 8, 75, 0
13, 17755, Note_on_c, 8, 72, 0
13, 17755, Note_on_c, 8, 67, 0
13, 17760, Note_on_c, 8, 79, 82
13, 17760, Note_on_c, 8, 70, 73
13, 17760, Note_on_c, 8, 74, 87
13, 18235, Note_on_c, 8, 74, 0
13, 18235, Note_on_c, 8, 70, 0
13, 18235, Note_on_c, 8, 79, 0
13, 18240, Note_on_c, 8, 77, 91
13, 18240, Note_on_c, 8, 69, 84
13, 18240, Note_on_c, 8, 74, 91
13, 18715, Note_on_c, 8, 74, 0
13, 18715, Note_on_c, 8, 69, 0
13, 18715, Note_on_c, 8, 77, 0
13, 18720, Note_on_c, 8, 79, 73
13, 18720, Note_on_c, 8, 70, 79
13, 18720, Note_on_c, 8, 74, 84
13, 19195, Note_on_c, 8, 74, 0
13, 19195, Note_on_c, 8, 70, 0
13, 19195, Note_on_c, 8, 79, 0
13, 19200, Note_on_c, 8, 67, 82
13, 19200, Note_on_c, 8, 72, 103
13, 19200, Note_on_c, 8, 75, 73
13, 19675, Note_on_c, 8, 75, 0
13, 19675, Note_on_c, 8, 72, 0
13, 19675, Note_on_c, 8, 67, 0
13, 19680, Note_on_c, 8, 79, 82
13, 19680, Note_on_c, 8, 70, 73
13, 19680, Note_on_c, 8, 74, 87
13, 20155, Note_on_c, 8, 74, 0
13, 20155, Note_on_c, 8, 70, 0
13, 20155, Note_on_c, 8, 79, 0
13, 20160, Note_on_c, 8, 77, 91
13, 20160, Note_on_c, 8, 69, 84
13, 20160, Note_on_c, 8, 74, 91
13, 20635, Note_on_c, 8, 74, 0
13, 20635, Note_on_c, 8, 69, 0
13, 20635, Note_on_c, 8, 77, 0
13, 20640, Note_on_c, 8, 79, 73
13, 20640, Note_on_c, 8, 70, 79
13, 20640, Note_on_c, 8, 74, 84
13, 21115, Note_on_c, 8, 74, 0
13, 21115, Note_on_c, 8, 70, 0
13, 21115, Note_on_c, 8, 79, 0
13, 21120, Note_on_c, 8, 67, 82
13, 21120, Note_on_c, 8, 72, 103
13, 21120, Note_on_c, 8, 75, 73
13, 21595, Note_on_c, 8, 75, 0
13, 21595, Note_on_c, 8, 72, 0
13, 21595, Note_on_c, 8, 67, 0
13, 31200, Note_on_c, 8, 79, 82
13, 31200, Note_on_c, 8, 70, 73
13, 31200, Note_on_c, 8, 74, 87
13, 31675, Note_on_c, 8, 74, 0
13, 31675, Note_on_c, 8, 70, 0
13, 31675, Note_on_c, 8, 79, 0
13, 31680, Note_on_c, 8, 77, 91
13, 31680, Note_on_c, 8, 69, 84
13, 31680, Note_on_c, 8, 74, 91
13, 32155, Note_on_c, 8, 74, 0
13, 32155, Note_on_c, 8, 69, 0
13, 32155, Note_on_c, 8, 77, 0
13, 32160, Note_on_c, 8, 79, 73
13, 32160, Note_on_c, 8, 70, 79
13, 32160, Note_on_c, 8, 74, 84
13, 32635, Note_on_c, 8, 74, 0
13, 32635, Note_on_c, 8, 70, 0
13, 32635, Note_on_c, 8, 79, 0
13, 32640, Note_on_c, 8, 67, 82
13, 32640, Note_on_c, 8, 72, 103
13, 32640, Note_on_c, 8, 75, 73
13, 33115, Note_on_c, 8, 75, 0
13, 33115, Note_on_c, 8, 72, 0
13, 33115, Note_on_c, 8, 67, 0
13, 33120, Note_on_c, 8, 79, 82
13, 33120, Note_on_c, 8, 70, 73
13, 33120, Note_on_c, 8, 74, 87
13, 33595, Note_on_c, 8, 74, 0
13, 33595, Note_on_c, 8, 70, 0
13, 33595, Note_on_c, 8, 79, 0
13, 33600, Note_on_c, 8, 77, 91
13, 33600, Note_on_c, 8, 69, 84
13, 33600, Note_on_c, 8, 74, 91
13, 34075, Note_on_c, 8, 74, 0
13, 34075, Note_on_c, 8, 69, 0
13, 34075, Note_on_c, 8, 77, 0
13, 34080, Note_on_c, 8, 79, 73
13, 34080, Note_on_c, 8, 70, 79
13, 34080, Note_on_c, 8, 74, 84
13, 34555, Note_on_c, 8, 74, 0
13, 34555, Note_on_c, 8, 70, 0
13, 34555, Note_on_c, 8, 79, 0
13, 34560, Note_on_c, 8, 67, 82
13, 34560, Note_on_c, 8, 72, 103
13, 34560, Note_on_c, 8, 75, 73
13, 35035, Note_on_c, 8, 75, 0
13, 35035, Note_on_c, 8, 72, 0
13, 35035, Note_on_c, 8, 67, 0
13, 35040, Note_on_c, 8, 79, 82
13, 35040, Note_on_c, 8, 70, 73
13, 35040, Note_on_c, 8, 74, 87
13, 35515, Note_on_c, 8, 74, 0
13, 35515, Note_on_c, 8, 70, 0
13, 35515, Note_on_c, 8, 79, 0
13, 35520, Note_on_c, 8, 77, 91
13, 35520, Note_on_c, 8, 69, 84
13, 35520, Note_on_c, 8, 74, 91
13, 35995, Note_on_c, 8, 74, 0
13, 35995, Note_on_c, 8, 69, 0
13, 35995, Note_on_c, 8, 77, 0
13, 36000, Note_on_c, 8, 79, 73
13, 36000, Note_on_c, 8, 70, 79
13, 36000, Note_on_c, 8, 74, 84
13, 36475, Note_on_c, 8, 74, 0
13, 36475, Note_on_c, 8, 70, 0
13, 36475, Note_on_c, 8, 79, 0
13, 36480, Note_on_c, 8, 67, 82
13, 36480, Note_on_c, 8, 72, 103
13, 36480, Note_on_c, 8, 75, 73
13, 36955, Note_on_c, 8, 75, 0
13, 36955, Note_on_c, 8, 72, 0
13, 36955, Note_on_c, 8, 67, 0
13, 36960, Note_on_c, 8, 79, 82
13, 36960, Note_on_c, 8, 70, 73
13, 36960, Note_on_c, 8, 74, 87
13, 37435, Note_on_c, 8, 74, 0
13, 37435, Note_on_c, 8, 70, 0
13, 37435, Note_on_c, 8, 79, 0
13, 37440, Note_on_c, 8, 77, 91
13, 37440, Note_on_c, 8, 69, 84
13, 37440, Note_on_c, 8, 74, 91
13, 37915, Note_on_c, 8, 74, 0
13, 37915, Note_on_c, 8, 69, 0
13, 37915, Note_on_c, 8, 77, 0
13, 37920, Note_on_c, 8, 79, 73
13, 37920, Note_on_c, 8, 70, 79
13, 37920, Note_on_c, 8, 74, 84
13, 38395, Note_on_c, 8, 74, 0
13, 38395, Note_on_c, 8, 70, 0
13, 38395, Note_on_c, 8, 79, 0
13, 38400, Note_on_c, 8, 67, 82
13, 38400, Note_on_c, 8, 72, 103
13, 38400, Note_on_c, 8, 75, 73
13, 38875, Note_on_c, 8, 75, 0
13, 38875, Note_on_c, 8, 72, 0
13, 38875, Note_on_c, 8, 67, 0
13, 46560, Note_on_c, 8, 79, 82
13, 46560, Note_on_c, 8, 70, 73
13, 46560, Note_on_c, 8, 74, 87
13, 47035, Note_on_c, 8, 74, 0
13, 47035, Note_on_c, 8, 70, 0
13, 47035, Note_on_c, 8, 79, 0
13, 47040, Note_on_c, 8, 77, 91
13, 47040, Note_on_c, 8, 69, 84
13, 47040, Note_on_c, 8, 74, 91
13, 47515, Note_on_c, 8, 74, 0
13, 47515, Note_on_c, 8, 69, 0
13, 47515, Note_on_c, 8, 77, 0
13, 47520, Note_on_c, 8, 79, 73
13, 47520, Note_on_c, 8, 70, 79
13, 47520, Note_on_c, 8, 74, 84
13, 47995, Note_on_c, 8, 74, 0
13, 47995, Note_on_c, 8, 70, 0
13, 47995, Note_on_c, 8, 79, 0
13, 48000, Note_on_c, 8, 67, 82
13, 48000, Note_on_c, 8, 72, 103
13, 48000, Note_on_c, 8, 75, 73
13, 48475, Note_on_c, 8, 75, 0
13, 48475, Note_on_c, 8, 72, 0
13, 48475, Note_on_c, 8, 67, 0
13, 48480, Note_on_c, 8, 79, 82
13, 48480, Note_on_c, 8, 70, 73
13, 48480, Note_on_c, 8, 74, 87
13, 48955, Note_on_c, 8, 74, 0
13, 48955, Note_on_c, 8, 70, 0
13, 48955, Note_on_c, 8, 79, 0
13, 48960, Note_on_c, 8, 77, 91
13, 48960, Note_on_c, 8, 69, 84
13, 48960, Note_on_c, 8, 74, 91
13, 49435, Note_on_c, 8, 74, 0
13, 49435, Note_on_c, 8, 69, 0
13, 49435, Note_on_c, 8, 77, 0
13, 49440, Note_on_c, 8, 79, 73
13, 49440, Note_on_c, 8, 70, 79
13, 49440, Note_on_c, 8, 74, 84
13, 49915, Note_on_c, 8, 74, 0
13, 49915, Note_on_c, 8, 70, 0
13, 49915, Note_on_c, 8, 79, 0
13, 49920, Note_on_c, 8, 67, 82
13, 49920, Note_on_c, 8, 72, 103
13, 49920, Note_on_c, 8, 75, 73
13, 50395, Note_on_c, 8, 75, 0
13, 50395, Note_on_c, 8, 72, 0
13, 50395, Note_on_c, 8, 67, 0
13, 50400, Note_on_c, 8, 79, 82
13, 50400, Note_on_c, 8, 70, 73
13, 50400, Note_on_c, 8, 74, 87
13, 50875, Note_on_c, 8, 74, 0
13, 50875, Note_on_c, 8, 70, 0
13, 50875, Note_on_c, 8, 79, 0
13, 50880, Note_on_c, 8, 77, 91
13, 50880, Note_on_c, 8, 69, 84
13, 50880, Note_on_c, 8, 74, 91
13, 51355, Note_on_c, 8, 74, 0
13, 51355, Note_on_c, 8, 69, 0
13, 51355, Note_on_c, 8, 77, 0
13, 51360, Note_on_c, 8, 79, 73
13, 51360, Note_on_c, 8, 70, 79
13, 51360, Note_on_c, 8, 74, 84
13, 51835, Note_on_c, 8, 74, 0
13, 51835, Note_on_c, 8, 70, 0
13, 51835, Note_on_c, 8, 79, 0
13, 51840, Note_on_c, 8, 67, 82
13, 51840, Note_on_c, 8, 72, 103
13, 51840, Note_on_c, 8, 75, 73
13, 52312, Control_c, 8, 11, 99
13, 52315, Note_on_c, 8, 75, 0
13, 52315, Note_on_c, 8, 72, 0
13, 52315, Note_on_c, 8, 67, 0
13, 52320, Note_on_c, 8, 79, 82
13, 52320, Note_on_c, 8, 70, 73
13, 52320, Note_on_c, 8, 74, 87
13, 52327, Control_c, 8, 11, 98
13, 52357, Control_c, 8, 11, 97
13, 52387, Control_c, 8, 11, 96
13, 52425, Control_c, 8, 11, 95
13, 52455, Control_c, 8, 11, 94
13, 52485, Control_c, 8, 11, 93
13, 52515, Control_c, 8, 11, 92
13, 52545, Control_c, 8, 11, 91
13, 52582, Control_c, 8, 11, 90
13, 52612, Control_c, 8, 11, 89
13, 52642, Control_c, 8, 11, 88
13, 52672, Control_c, 8, 11, 87
13, 52710, Control_c, 8, 11, 86
13, 52740, Control_c, 8, 11, 85
13, 52770, Control_c, 8, 11, 84
13, 52795, Note_on_c, 8, 74, 0
13, 52795, Note_on_c, 8, 70, 0
13, 52795, Note_on_c, 8, 79, 0
13, 52800, Note_on_c, 8, 77, 91
13, 52800, Note_on_c, 8, 69, 84
13, 52800, Note_on_c, 8, 74, 91
13, 52800, Control_c, 8, 11, 83
13, 52830, Control_c, 8, 11, 82
13, 52867, Control_c, 8, 11, 81
13, 52897, Control_c, 8, 11, 80
13, 52927, Control_c, 8, 11, 79
13, 52957, Control_c, 8, 11, 78
13, 52995, Control_c, 8, 11, 77
13, 53025, Control_c, 8, 11, 76
13, 53055, Control_c, 8, 11, 75
13, 53085, Control_c, 8, 11, 74
13, 53115, Control_c, 8, 11, 73
13, 53152, Control_c, 8, 11, 72
13, 53182, Control_c, 8, 11, 71
13, 53212, Control_c, 8, 11, 70
13, 53242, Control_c, 8, 11, 69
13, 53275, Note_on_c, 8, 74, 0
13, 53275, Note_on_c, 8, 69, 0
13, 53275, Note_on_c, 8, 77, 0
13, 53280, Note_on_c, 8, 79, 73
13, 53280, Note_on_c, 8, 70, 79
13, 53280, Note_on_c, 8, 74, 84
13, 53280, Control_c, 8, 11, 68
13, 53310, Control_c, 8, 11, 67
13, 53340, Control_c, 8, 11, 66
13, 53370, Control_c, 8, 11, 65
13, 53400, Control_c, 8, 11, 64
13, 53437, Control_c, 8, 11, 63
13, 53467, Control_c, 8, 11, 62
13, 53497, Control_c, 8, 11, 61
13, 53527, Control_c, 8, 11, 60
13, 53565, Control_c, 8, 11, 59
13, 53595, Control_c, 8, 11, 58
13, 53625, Control_c, 8, 11, 57
13, 53655, Control_c, 8, 11, 56
13, 53685, Control_c, 8, 11, 55
13, 53722, Control_c, 8, 11, 54
13, 53752, Control_c, 8, 11, 53
13, 53755, Note_on_c, 8, 74, 0
13, 53755, Note_on_c, 8, 70, 0
13, 53755, Note_on_c, 8, 79, 0
13, 53760, Note_on_c, 8, 67, 82
13, 53760, Note_on_c, 8, 72, 103
13, 53760, Note_on_c, 8, 75, 73
13, 53782, Control_c, 8, 11, 52
13, 53812, Control_c, 8, 11, 51
13, 53850, Control_c, 8, 11, 50
13, 53880, Control_c, 8, 11, 49
13, 53910, Control_c, 8, 11, 48
13, 53940, Control_c, 8, 11, 47
13, 53970, Control_c, 8, 11, 46
13, 54007, Control_c, 8, 11, 45
13, 54037, Control_c, 8, 11, 44
13, 54067, Control_c, 8, 11, 43
13, 54097, Control_c, 8, 11, 42
13, 54135, Control_c, 8, 11, 41
13, 54165, Control_c, 8, 11, 40
13, 54195, Control_c, 8, 11, 39
13, 54225, Control_c, 8, 11, 38
13, 54235, Note_on_c, 8, 75, 0
13, 54235, Note_on_c, 8, 72, 0
13, 54235, Note_on_c, 8, 67, 0
13, 54240, Note_on_c, 8, 79, 82
13, 54240, Note_on_c, 8, 70, 73
13, 54240, Note_on_c, 8, 74, 87
13, 54255, Control_c, 8, 11, 37
13, 54292, Control_c, 8, 11, 36
13, 54322, Control_c, 8, 11, 35
13, 54352, Control_c, 8, 11, 34
13, 54382, Control_c, 8, 11, 33
13, 54412, Control_c, 8, 11, 32
13, 54450, Control_c, 8, 11, 31
13, 54480, Control_c, 8, 11, 30
13, 54510, Control_c, 8, 11, 29
13, 54540, Control_c, 8, 11, 28
13, 54577, Control_c, 8, 11, 27
13, 54607, Control_c, 8, 11, 26
13, 54637, Control_c, 8, 11, 25
13, 54667, Control_c, 8, 11, 24
13, 54697, Control_c, 8, 11, 23
13, 54715, Note_on_c, 8, 74, 0
13, 54715, Note_on_c, 8, 70, 0
13, 54715, Note_on_c, 8, 79, 0
13, 54720, Note_on_c, 8, 77, 91
13, 54720, Note_on_c, 8, 69, 84
13, 54720, Note_on_c, 8, 74, 91
13, 54735, Control_c, 8, 11, 22
13, 54765, Control_c, 8, 11, 21
13, 54795, Control_c, 8, 11, 20
13, 54825, Control_c, 8, 11, 19
13, 54862, Control_c, 8, 11, 18
13, 54892, Control_c, 8, 11, 17
13, 54922, Control_c, 8, 11, 16
13, 54952, Control_c, 8, 11, 15
13, 54982, Control_c, 8, 11, 14
13, 55020, Control_c, 8, 11, 13
13, 55050, Control_c, 8, 11, 12
13, 55080, Control_c, 8, 11, 11
13, 55110, Control_c, 8, 11, 10
13, 55147, Control_c, 8, 11, 9
13, 55177, Control_c, 8, 11, 8
13, 55195, Note_on_c, 8, 74, 0
13, 55195, Note_on_c, 8, 69, 0
13, 55195, Note_on_c, 8, 77, 0
13, 55200, Note_on_c, 8, 79, 73
13, 55200, Note_on_c, 8, 70, 79
13, 55200, Note_on_c, 8, 74, 84
13, 55207, Control_c, 8, 11, 7
13, 55237, Control_c, 8, 11, 6
13, 55267, Control_c, 8, 11, 5
13, 55305, Control_c, 8, 11, 4
13, 55335, Control_c, 8, 11, 3
13, 55365, Control_c, 8, 11, 2
13, 55395, Control_c, 8, 11, 1
13, 55432, Control_c, 8, 11, 0
13, 55462, Control_c, 8, 11, 0
13, 55492, Control_c, 8, 11, 0
13, 55522, Control_c, 8, 11, 0
13, 55552, Control_c, 8, 11, 0
13, 55590, Control_c, 8, 11, 0
13, 55620, Control_c, 8, 11, 0
13, 55650, Control_c, 8, 11, 0
13, 55650, Text_t, "%+"
13, 55675, Note_on_c, 8, 74, 0
13, 55675, Note_on_c, 8, 70, 0
13, 55675, Note_on_c, 8, 79, 0
13, 55675, End_track
14, 0, Start_track
14, 0, MIDI_port, 0
14, 0, Title_t, "Strings 2"
14, 0, Program_c, 10, 45
14, 0, Control_c, 10, 7, 98
14, 0, Control_c, 10, 10, 84
14, 0, Control_c, 10, 121, 127
14, 0, Control_c, 10, 0, 0
14, 0, Control_c, 10, 32, 0
14, 0, Control_c, 10, 11, 127
14, 0, Control_c, 10, 91, 80
14, 0, Control_c, 10, 93, 0
14, 4320, Note_on_c, 10, 72, 84
14, 4320, Note_on_c, 10, 67, 82
14, 4338, Note_on_c, 10, 67, 0
14, 4344, Note_on_c, 10, 72, 0
14, 4380, Note_on_c, 10, 67, 64
14, 4380, Note_on_c, 10, 72, 53
14, 4391, Note_on_c, 10, 72, 0
14, 4396, Note_on_c, 10, 67, 0
14, 4560, Note_on_c, 10, 67, 73
14, 4560, Note_on_c, 10, 72, 69
14, 4576, Note_on_c, 10, 67, 0
14, 4577, Note_on_c, 10, 72, 0
14, 4620, Note_on_c, 10, 67, 82
14, 4620, Note_on_c, 10, 72, 69
14, 4636, Note_on_c, 10, 67, 0
14, 4637, Note_on_c, 10, 72, 0
14, 4740, Note_on_c, 10, 67, 67
14, 4740, Note_on_c, 10, 72, 68
14, 4757, Note_on_c, 10, 67, 0
14, 4759, Note_on_c, 10, 72, 0
14, 4800, Note_on_c, 10, 67, 64
14, 4800, Note_on_c, 10, 70, 52
14, 4815, Note_on_c, 10, 70, 0
14, 4817, Note_on_c, 10, 67, 0
14, 4860, Note_on_c, 10, 67, 68
14, 4860, Note_on_c, 10, 70, 62
14, 4876, Note_on_c, 10, 67, 0
14, 4877, Note_on_c, 10, 70, 0
14, 5040, Note_on_c, 10, 67, 76
14, 5040, Note_on_c, 10, 70, 62
14, 5057, Note_on_c, 10, 70, 0
14, 5058, Note_on_c, 10, 67, 0
14, 5100, Note_on_c, 10, 67, 79
14, 5100, Note_on_c, 10, 70, 60
14, 5116, Note_on_c, 10, 67, 0
14, 5117, Note_on_c, 10, 70, 0
14, 5280, Note_on_c, 10, 67, 66
14, 5280, Note_on_c, 10, 72, 67
14, 5297, Note_on_c, 10, 67, 0
14, 5299, Note_on_c, 10, 72, 0
14, 5340, Note_on_c, 10, 67, 68
14, 5340, Note_on_c, 10, 72, 66
14, 5358, Note_on_c, 10, 67, 0
14, 5359, Note_on_c, 10, 72, 0
14, 5520, Note_on_c, 10, 67, 68
14, 5520, Note_on_c, 10, 72, 67
14, 5536, Note_on_c, 10, 67, 0
14, 5537, Note_on_c, 10, 72, 0
14, 5580, Note_on_c, 10, 72, 64
14, 5580, Note_on_c, 10, 67, 67
14, 5595, Note_on_c, 10, 67, 0
14, 5600, Note_on_c, 10, 72, 0
14, 5880, Note_on_c, 10, 72, 87
14, 5880, Note_on_c, 10, 63, 82
14, 5998, Note_on_c, 10, 63, 0
14, 5998, Note_on_c, 10, 72, 0
14, 6000, Note_on_c, 10, 70, 87
14, 6000, Note_on_c, 10, 63, 84
14, 6118, Note_on_c, 10, 63, 0
14, 6118, Note_on_c, 10, 70, 0
14, 6120, Note_on_c, 10, 67, 79
14, 6149, Note_on_c, 10, 67, 0
14, 6150, Note_on_c, 10, 65, 87
14, 6179, Note_on_c, 10, 65, 0
14, 6180, Note_on_c, 10, 62, 99
14, 6239, Note_on_c, 10, 62, 0
14, 6240, Note_on_c, 10, 63, 76
14, 6240, Note_on_c, 10, 67, 73
14, 6240, Note_on_c, 10, 67, 53
14, 6240, Note_on_c, 10, 72, 55
14, 6260, Note_on_c, 10, 72, 0
14, 6261, Note_on_c, 10, 67, 0
14, 6300, Note_on_c, 10, 67, 66
14, 6300, Note_on_c, 10, 72, 67
14, 6318, Note_on_c, 10, 67, 0
14, 6322, Note_on_c, 10, 72, 0
14, 6477, Note_on_c, 10, 67, 0
14, 6477, Note_on_c, 10, 63, 0
14, 6480, Note_on_c, 10, 67, 71
14, 6480, Note_on_c, 10, 72, 63
14, 6497, Note_on_c, 10, 72, 0
14, 6497, Note_on_c, 10, 67, 0
14, 6540, Note_on_c, 10, 67, 68
14, 6540, Note_on_c, 10, 72, 67
14, 6555, Note_on_c, 10, 67, 0
14, 6559, Note_on_c, 10, 72, 0
14, 6660, Note_on_c, 10, 72, 73
14, 6660, Note_on_c, 10, 67, 66
14, 6674, Note_on_c, 10, 67, 0
14, 6683, Note_on_c, 10, 72, 0
14, 6720, Note_on_c, 10, 67, 68
14, 6720, Note_on_c, 10, 70, 56
14, 6736, Note_on_c, 10, 70, 0
14, 6738, Note_on_c, 10, 67, 0
14, 6780, Note_on_c, 10, 67, 66
14, 6780, Note_on_c, 10, 70, 60
14, 6797, Note_on_c, 10, 70, 0
14, 6797, Note_on_c, 10, 67, 0
14, 6960, Note_on_c, 10, 67, 69
14, 6960, Note_on_c, 10, 70, 63
14, 6975, Note_on_c, 10, 67, 0
14, 6978, Note_on_c, 10, 70, 0
14, 7020, Note_on_c, 10, 67, 73
14, 7020, Note_on_c, 10, 70, 64
14, 7037, Note_on_c, 10, 67, 0
14, 7040, Note_on_c, 10, 70, 0
14, 7320, Note_on_c, 10, 69, 62
14, 7320, Note_on_c, 10, 72, 64
14, 7335, Note_on_c, 10, 72, 0
14, 7338, Note_on_c, 10, 69, 0
14, 7440, Note_on_c, 10, 69, 82
14, 7440, Note_on_c, 10, 72, 76
14, 7457, Note_on_c, 10, 72, 0
14, 7458, Note_on_c, 10, 69, 0
14, 7500, Note_on_c, 10, 69, 63
14, 7500, Note_on_c, 10, 72, 69
14, 7515, Note_on_c, 10, 69, 0
14, 7518, Note_on_c, 10, 72, 0
14, 7680, Note_on_c, 10, 65, 99
14, 7680, Note_on_c, 10, 63, 87
14, 7739, Note_on_c, 10, 63, 0
14, 7739, Note_on_c, 10, 65, 0
14, 7740, Note_on_c, 10, 67, 87
14, 7740, Note_on_c, 10, 63, 95
14, 7858, Note_on_c, 10, 63, 0
14, 7858, Note_on_c, 10, 67, 0
14, 7860, Note_on_c, 10, 75, 87
14, 7860, Note_on_c, 10, 79, 87
14, 7919, Note_on_c, 10, 79, 0
14, 7919, Note_on_c, 10, 75, 0
14, 7920, Note_on_c, 10, 77, 76
14, 7920, Note_on_c, 10, 74, 91
14, 7979, Note_on_c, 10, 74, 0
14, 7979, Note_on_c, 10, 77, 0
14, 7980, Note_on_c, 10, 74, 79
14, 7980, Note_on_c, 10, 70, 84
14, 8039, Note_on_c, 10, 70, 0
14, 8039, Note_on_c, 10, 74, 0
14, 8040, Note_on_c, 10, 67, 87
14, 8040, Note_on_c, 10, 70, 79
14, 8099, Note_on_c, 10, 70, 0
14, 8099, Note_on_c, 10, 67, 0
14, 8100, Note_on_c, 10, 72, 91
14, 8100, Note_on_c, 10, 75, 82
14, 8159, Note_on_c, 10, 75, 0
14, 8159, Note_on_c, 10, 72, 0
14, 8160, Note_on_c, 10, 72, 84
14, 8160, Note_on_c, 10, 67, 82
14, 8178, Note_on_c, 10, 67, 0
14, 8184, Note_on_c, 10, 72, 0
14, 8220, Note_on_c, 10, 67, 91
14, 8220, Note_on_c, 10, 72, 84
14, 8220, Note_on_c, 10, 67, 64
14, 8220, Note_on_c, 10, 72, 53
14, 8231, Note_on_c, 10, 72, 0
14, 8236, Note_on_c, 10, 67, 0
14, 8279, Note_on_c, 10, 72, 0
14, 8279, Note_on_c, 10, 67, 0
14, 8400, Note_on_c, 10, 67, 73
14, 8400, Note_on_c, 10, 72, 69
14, 8416, Note_on_c, 10, 67, 0
14, 8417, Note_on_c, 10, 72, 0
14, 8460, Note_on_c, 10, 67, 82
14, 8460, Note_on_c, 10, 72, 69
14, 8476, Note_on_c, 10, 67, 0
14, 8477, Note_on_c, 10, 72, 0
14, 8580, Note_on_c, 10, 67, 67
14, 8580, Note_on_c, 10, 72, 68
14, 8597, Note_on_c, 10, 67, 0
14, 8599, Note_on_c, 10, 72, 0
14, 8640, Note_on_c, 10, 67, 64
14, 8640, Note_on_c, 10, 70, 52
14, 8655, Note_on_c, 10, 70, 0
14, 8657, Note_on_c, 10, 67, 0
14, 8700, Note_on_c, 10, 67, 68
14, 8700, Note_on_c, 10, 70, 62
14, 8716, Note_on_c, 10, 67, 0
14, 8717, Note_on_c, 10, 70, 0
14, 8880, Note_on_c, 10, 67, 76
14, 8880, Note_on_c, 10, 70, 62
14, 8897, Note_on_c, 10, 70, 0
14, 8898, Note_on_c, 10, 67, 0
14, 8940, Note_on_c, 10, 67, 79
14, 8940, Note_on_c, 10, 70, 60
14, 8956, Note_on_c, 10, 67, 0
14, 8957, Note_on_c, 10, 70, 0
14, 9120, Note_on_c, 10, 67, 66
14, 9120, Note_on_c, 10, 72, 67
14, 9137, Note_on_c, 10, 67, 0
14, 9139, Note_on_c, 10, 72, 0
14, 9180, Note_on_c, 10, 67, 68
14, 9180, Note_on_c, 10, 72, 66
14, 9198, Note_on_c, 10, 67, 0
14, 9199, Note_on_c, 10, 72, 0
14, 9360, Note_on_c, 10, 67, 68
14, 9360, Note_on_c, 10, 72, 67
14, 9376, Note_on_c, 10, 67, 0
14, 9377, Note_on_c, 10, 72, 0
14, 9420, Note_on_c, 10, 72, 64
14, 9420, Note_on_c, 10, 67, 67
14, 9435, Note_on_c, 10, 67, 0
14, 9440, Note_on_c, 10, 72, 0
14, 10080, Note_on_c, 10, 67, 53
14, 10080, Note_on_c, 10, 72, 55
14, 10100, Note_on_c, 10, 72, 0
14, 10101, Note_on_c, 10, 67, 0
14, 10140, Note_on_c, 10, 67, 66
14, 10140, Note_on_c, 10, 72, 67
14, 10158, Note_on_c, 10, 67, 0
14, 10162, Note_on_c, 10, 72, 0
14, 10320, Note_on_c, 10, 67, 71
14, 10320, Note_on_c, 10, 72, 63
14, 10337, Note_on_c, 10, 72, 0
14, 10337, Note_on_c, 10, 67, 0
14, 10380, Note_on_c, 10, 67, 68
14, 10380, Note_on_c, 10, 72, 67
14, 10395, Note_on_c, 10, 67, 0
14, 10399, Note_on_c, 10, 72, 0
14, 10500, Note_on_c, 10, 72, 73
14, 10500, Note_on_c, 10, 67, 66
14, 10514, Note_on_c, 10, 67, 0
14, 10523, Note_on_c, 10, 72, 0
14, 10560, Note_on_c, 10, 67, 68
14, 10560, Note_on_c, 10, 70, 56
14, 10576, Note_on_c, 10, 70, 0
14, 10578, Note_on_c, 10, 67, 0
14, 10620, Note_on_c, 10, 67, 66
14, 10620, Note_on_c, 10, 70, 60
14, 10637, Note_on_c, 10, 70, 0
14, 10637, Note_on_c, 10, 67, 0
14, 10800, Note_on_c, 10, 67, 69
14, 10800, Note_on_c, 10, 70, 63
14, 10815, Note_on_c, 10, 67, 0
14, 10818, Note_on_c, 10, 70, 0
14, 10860, Note_on_c, 10, 67, 73
14, 10860, Note_on_c, 10, 70, 64
14, 10877, Note_on_c, 10, 67, 0
14, 10880, Note_on_c, 10, 70, 0
14, 11160, Note_on_c, 10, 69, 62
14, 11160, Note_on_c, 10, 72, 64
14, 11175, Note_on_c, 10, 72, 0
14, 11178, Note_on_c, 10, 69, 0
14, 11280, Note_on_c, 10, 69, 82
14, 11280, Note_on_c, 10, 72, 76
14, 11297, Note_on_c, 10, 72, 0
14, 11298, Note_on_c, 10, 69, 0
14, 11340, Note_on_c, 10, 69, 63
14, 11340, Note_on_c, 10, 72, 69
14, 11355, Note_on_c, 10, 69, 0
14, 11358, Note_on_c, 10, 72, 0
14, 12180, Note_on_c, 10, 69, 71
14, 12197, Note_on_c, 10, 69, 0
14, 12240, Note_on_c, 10, 74, 87
14, 12240, Note_on_c, 10, 77, 82
14, 12255, Note_on_c, 10, 74, 0
14, 12257, Note_on_c, 10, 77, 0
14, 12300, Note_on_c, 10, 77, 95
14, 12300, Note_on_c, 10, 74, 91
14, 12315, Note_on_c, 10, 74, 0
14, 12323, Note_on_c, 10, 77, 0
14, 12540, Note_on_c, 10, 82, 82
14, 12540, Note_on_c, 10, 79, 99
14, 12559, Note_on_c, 10, 82, 0
14, 12560, Note_on_c, 10, 79, 0
14, 12660, Note_on_c, 10, 81, 99
14, 12660, Note_on_c, 10, 77, 95
14, 12675, Note_on_c, 10, 77, 0
14, 12682, Note_on_c, 10, 81, 0
14, 21600, Note_on_c, 10, 72, 84
14, 21600, Note_on_c, 10, 67, 82
14, 21618, Note_on_c, 10, 67, 0
14, 21624, Note_on_c, 10, 72, 0
14, 21660, Note_on_c, 10, 67, 64
14, 21660, Note_on_c, 10, 72, 53
14, 21671, Note_on_c, 10, 72, 0
14, 21676, Note_on_c, 10, 67, 0
14, 21840, Note_on_c, 10, 67, 73
14, 21840, Note_on_c, 10, 72, 69
14, 21856, Note_on_c, 10, 67, 0
14, 21857, Note_on_c, 10, 72, 0
14, 21900, Note_on_c, 10, 67, 82
14, 21900, Note_on_c, 10, 72, 69
14, 21916, Note_on_c, 10, 67, 0
14, 21917, Note_on_c, 10, 72, 0
14, 22020, Note_on_c, 10, 67, 67
14, 22020, Note_on_c, 10, 72, 68
14, 22037, Note_on_c, 10, 67, 0
14, 22039, Note_on_c, 10, 72, 0
14, 22080, Note_on_c, 10, 67, 64
14, 22080, Note_on_c, 10, 70, 52
14, 22095, Note_on_c, 10, 70, 0
14, 22097, Note_on_c, 10, 67, 0
14, 22140, Note_on_c, 10, 67, 68
14, 22140, Note_on_c, 10, 70, 62
14, 22156, Note_on_c, 10, 67, 0
14, 22157, Note_on_c, 10, 70, 0
14, 22320, Note_on_c, 10, 67, 76
14, 22320, Note_on_c, 10, 70, 62
14, 22337, Note_on_c, 10, 70, 0
14, 22338, Note_on_c, 10, 67, 0
14, 22380, Note_on_c, 10, 67, 79
14, 22380, Note_on_c, 10, 70, 60
14, 22396, Note_on_c, 10, 67, 0
14, 22397, Note_on_c, 10, 70, 0
14, 22560, Note_on_c, 10, 67, 66
14, 22560, Note_on_c, 10, 72, 67
14, 22577, Note_on_c, 10, 67, 0
14, 22579, Note_on_c, 10, 72, 0
14, 22620, Note_on_c, 10, 67, 68
14, 22620, Note_on_c, 10, 72, 66
14, 22638, Note_on_c, 10, 67, 0
14, 22639, Note_on_c, 10, 72, 0
14, 22800, Note_on_c, 10, 67, 68
14, 22800, Note_on_c, 10, 72, 67
14, 22816, Note_on_c, 10, 67, 0
14, 22817, Note_on_c, 10, 72, 0
14, 22860, Note_on_c, 10, 72, 64
14, 22860, Note_on_c, 10, 67, 67
14, 22875, Note_on_c, 10, 67, 0
14, 22880, Note_on_c, 10, 72, 0
14, 23160, Note_on_c, 10, 72, 87
14, 23160, Note_on_c, 10, 63, 82
14, 23278, Note_on_c, 10, 63, 0
14, 23278, Note_on_c, 10, 72, 0
14, 23280, Note_on_c, 10, 70, 87
14, 23280, Note_on_c, 10, 63, 84
14, 23398, Note_on_c, 10, 63, 0
14, 23398, Note_on_c, 10, 70, 0
14, 23400, Note_on_c, 10, 67, 79
14, 23429, Note_on_c, 10, 67, 0
14, 23430, Note_on_c, 10, 65, 87
14, 23459, Note_on_c, 10, 65, 0
14, 23460, Note_on_c, 10, 62, 99
14, 23519, Note_on_c, 10, 62, 0
14, 23520, Note_on_c, 10, 63, 76
14, 23520, Note_on_c, 10, 67, 73
14, 23520, Note_on_c, 10, 67, 53
14, 23520, Note_on_c, 10, 72, 55
14, 23540, Note_on_c, 10, 72, 0
14, 23541, Note_on_c, 10, 67, 0
14, 23579, Note_on_c, 10, 67, 0
14, 23580, Note_on_c, 10, 67, 66
14, 23580, Note_on_c, 10, 72, 67
14, 23598, Note_on_c, 10, 67, 0
14, 23602, Note_on_c, 10, 72, 0
14, 23757, Note_on_c, 10, 63, 0
14, 23760, Note_on_c, 10, 67, 71
14, 23760, Note_on_c, 10, 72, 63
14, 23777, Note_on_c, 10, 72, 0
14, 23777, Note_on_c, 10, 67, 0
14, 23820, Note_on_c, 10, 67, 68
14, 23820, Note_on_c, 10, 72, 67
14, 23835, Note_on_c, 10, 67, 0
14, 23839, Note_on_c, 10, 72, 0
14, 23940, Note_on_c, 10, 72, 73
14, 23940, Note_on_c, 10, 67, 66
14, 23954, Note_on_c, 10, 67, 0
14, 23963, Note_on_c, 10, 72, 0
14, 24000, Note_on_c, 10, 67, 68
14, 24000, Note_on_c, 10, 70, 56
14, 24016, Note_on_c, 10, 70, 0
14, 24018, Note_on_c, 10, 67, 0
14, 24060, Note_on_c, 10, 67, 66
14, 24060, Note_on_c, 10, 70, 60
14, 24077, Note_on_c, 10, 70, 0
14, 24077, Note_on_c, 10, 67, 0
14, 24240, Note_on_c, 10, 67, 69
14, 24240, Note_on_c, 10, 70, 63
14, 24255, Note_on_c, 10, 67, 0
14, 24258, Note_on_c, 10, 70, 0
14, 24300, Note_on_c, 10, 67, 73
14, 24300, Note_on_c, 10, 70, 64
14, 24317, Note_on_c, 10, 67, 0
14, 24320, Note_on_c, 10, 70, 0
14, 24600, Note_on_c, 10, 69, 62
14, 24600, Note_on_c, 10, 72, 64
14, 24615, Note_on_c, 10, 72, 0
14, 24618, Note_on_c, 10, 69, 0
14, 24720, Note_on_c, 10, 69, 82
14, 24720, Note_on_c, 10, 72, 76
14, 24737, Note_on_c, 10, 72, 0
14, 24738, Note_on_c, 10, 69, 0
14, 24780, Note_on_c, 10, 69, 63
14, 24780, Note_on_c, 10, 72, 69
14, 24795, Note_on_c, 10, 69, 0
14, 24798, Note_on_c, 10, 72, 0
14, 24960, Note_on_c, 10, 65, 99
14, 24960, Note_on_c, 10, 63, 87
14, 25019, Note_on_c, 10, 63, 0
14, 25019, Note_on_c, 10, 65, 0
14, 25020, Note_on_c, 10, 67, 87
14, 25020, Note_on_c, 10, 63, 95
14, 25138, Note_on_c, 10, 63, 0
14, 25138, Note_on_c, 10, 67, 0
14, 25140, Note_on_c, 10, 75, 87
14, 25140, Note_on_c, 10, 79, 87
14, 25199, Note_on_c, 10, 79, 0
14, 25199, Note_on_c, 10, 75, 0
14, 25200, Note_on_c, 10, 77, 76
14, 25200, Note_on_c, 10, 74, 91
14, 25259, Note_on_c, 10, 74, 0
14, 25259, Note_on_c, 10, 77, 0
14, 25260, Note_on_c, 10, 74, 79
14, 25260, Note_on_c, 10, 70, 84
14, 25319, Note_on_c, 10, 70, 0
14, 25319, Note_on_c, 10, 74, 0
14, 25320, Note_on_c, 10, 67, 87
14, 25320, Note_on_c, 10, 70, 79
14, 25379, Note_on_c, 10, 70, 0
14, 25379, Note_on_c, 10, 67, 0
14, 25380, Note_on_c, 10, 72, 91
14, 25380, Note_on_c, 10, 75, 82
14, 25439, Note_on_c, 10, 75, 0
14, 25439, Note_on_c, 10, 72, 0
14, 25440, Note_on_c, 10, 72, 84
14, 25440, Note_on_c, 10, 67, 82
14, 25458, Note_on_c, 10, 67, 0
14, 25464, Note_on_c, 10, 72, 0
14, 25500, Note_on_c, 10, 67, 91
14, 25500, Note_on_c, 10, 72, 84
14, 25500, Note_on_c, 10, 67, 64
14, 25500, Note_on_c, 10, 72, 53
14, 25511, Note_on_c, 10, 72, 0
14, 25515, Note_on_c, 10, 72, 0
14, 25516, Note_on_c, 10, 67, 0
14, 25575, Note_on_c, 10, 67, 0
14, 25680, Note_on_c, 10, 67, 73
14, 25680, Note_on_c, 10, 72, 69
14, 25696, Note_on_c, 10, 67, 0
14, 25697, Note_on_c, 10, 72, 0
14, 25740, Note_on_c, 10, 67, 82
14, 25740, Note_on_c, 10, 72, 69
14, 25756, Note_on_c, 10, 67, 0
14, 25757, Note_on_c, 10, 72, 0
14, 25860, Note_on_c, 10, 67, 67
14, 25860, Note_on_c, 10, 72, 68
14, 25877, Note_on_c, 10, 67, 0
14, 25879, Note_on_c, 10, 72, 0
14, 25920, Note_on_c, 10, 67, 64
14, 25920, Note_on_c, 10, 70, 52
14, 25935, Note_on_c, 10, 70, 0
14, 25937, Note_on_c, 10, 67, 0
14, 25980, Note_on_c, 10, 67, 68
14, 25980, Note_on_c, 10, 70, 62
14, 25996, Note_on_c, 10, 67, 0
14, 25997, Note_on_c, 10, 70, 0
14, 26160, Note_on_c, 10, 67, 76
14, 26160, Note_on_c, 10, 70, 62
14, 26177, Note_on_c, 10, 70, 0
14, 26178, Note_on_c, 10, 67, 0
14, 26220, Note_on_c, 10, 67, 79
14, 26220, Note_on_c, 10, 70, 60
14, 26236, Note_on_c, 10, 67, 0
14, 26237, Note_on_c, 10, 70, 0
14, 26400, Note_on_c, 10, 67, 66
14, 26400, Note_on_c, 10, 72, 67
14, 26417, Note_on_c, 10, 67, 0
14, 26419, Note_on_c, 10, 72, 0
14, 26460, Note_on_c, 10, 67, 68
14, 26460, Note_on_c, 10, 72, 66
14, 26478, Note_on_c, 10, 67, 0
14, 26479, Note_on_c, 10, 72, 0
14, 26640, Note_on_c, 10, 67, 68
14, 26640, Note_on_c, 10, 72, 67
14, 26656, Note_on_c, 10, 67, 0
14, 26657, Note_on_c, 10, 72, 0
14, 26700, Note_on_c, 10, 72, 64
14, 26700, Note_on_c, 10, 67, 67
14, 26715, Note_on_c, 10, 67, 0
14, 26720, Note_on_c, 10, 72, 0
14, 27360, Note_on_c, 10, 67, 53
14, 27360, Note_on_c, 10, 72, 55
14, 27380, Note_on_c, 10, 72, 0
14, 27381, Note_on_c, 10, 67, 0
14, 27420, Note_on_c, 10, 67, 66
14, 27420, Note_on_c, 10, 72, 67
14, 27438, Note_on_c, 10, 67, 0
14, 27442, Note_on_c, 10, 72, 0
14, 27600, Note_on_c, 10, 67, 71
14, 27600, Note_on_c, 10, 72, 63
14, 27617, Note_on_c, 10, 72, 0
14, 27617, Note_on_c, 10, 67, 0
14, 27660, Note_on_c, 10, 67, 68
14, 27660, Note_on_c, 10, 72, 67
14, 27675, Note_on_c, 10, 67, 0
14, 27679, Note_on_c, 10, 72, 0
14, 27780, Note_on_c, 10, 72, 73
14, 27780, Note_on_c, 10, 67, 66
14, 27794, Note_on_c, 10, 67, 0
14, 27803, Note_on_c, 10, 72, 0
14, 27840, Note_on_c, 10, 67, 68
14, 27840, Note_on_c, 10, 70, 56
14, 27856, Note_on_c, 10, 70, 0
14, 27858, Note_on_c, 10, 67, 0
14, 27900, Note_on_c, 10, 67, 66
14, 27900, Note_on_c, 10, 70, 60
14, 27917, Note_on_c, 10, 70, 0
14, 27917, Note_on_c, 10, 67, 0
14, 28080, Note_on_c, 10, 67, 69
14, 28080, Note_on_c, 10, 70, 63
14, 28095, Note_on_c, 10, 67, 0
14, 28098, Note_on_c, 10, 70, 0
14, 28140, Note_on_c, 10, 67, 73
14, 28140, Note_on_c, 10, 70, 64
14, 28157, Note_on_c, 10, 67, 0
14, 28160, Note_on_c, 10, 70, 0
14, 28440, Note_on_c, 10, 69, 62
14, 28440, Note_on_c, 10, 72, 64
14, 28455, Note_on_c, 10, 72, 0
14, 28458, Note_on_c, 10, 69, 0
14, 28560, Note_on_c, 10, 69, 82
14, 28560, Note_on_c, 10, 72, 76
14, 28577, Note_on_c, 10, 72, 0
14, 28578, Note_on_c, 10, 69, 0
14, 28620, Note_on_c, 10, 69, 63
14, 28620, Note_on_c, 10, 72, 69
14, 28635, Note_on_c, 10, 69, 0
14, 28638, Note_on_c, 10, 72, 0
14, 29460, Note_on_c, 10, 69, 71
14, 29477, Note_on_c, 10, 69, 0
14, 29520, Note_on_c, 10, 74, 87
14, 29520, Note_on_c, 10, 77, 82
14, 29535, Note_on_c, 10, 74, 0
14, 29537, Note_on_c, 10, 77, 0
14, 29580, Note_on_c, 10, 77, 95
14, 29580, Note_on_c, 10, 74, 91
14, 29595, Note_on_c, 10, 74, 0
14, 29603, Note_on_c, 10, 77, 0
14, 29820, Note_on_c, 10, 82, 82
14, 29820, Note_on_c, 10, 79, 99
14, 29839, Note_on_c, 10, 82, 0
14, 29840, Note_on_c, 10, 79, 0
14, 29940, Note_on_c, 10, 81, 99
14, 29940, Note_on_c, 10, 77, 95
14, 29955, Note_on_c, 10, 77, 0
14, 29962, Note_on_c, 10, 81, 0
14, 29962, End_track
15, 0, Start_track
15, 0, MIDI_port, 0
15, 0, Title_t, "Bells 1"
15, 0, Program_c, 11, 9
15, 0, Control_c, 11, 7, 95
15, 0, Control_c, 11, 10, 94
15, 0, Control_c, 11, 121, 127
15, 0, Control_c, 11, 0, 0
15, 0, Control_c, 11, 32, 0
15, 0, Control_c, 11, 11, 127
15, 0, Control_c, 11, 91, 80
15, 0, Control_c, 11, 93, 0
15, 480, Note_on_c, 11, 106, 100
15, 480, Note_on_c, 11, 98, 100
15, 598, Note_on_c, 11, 98, 0
15, 598, Note_on_c, 11, 106, 0
15, 600, Note_on_c, 11, 96, 100
15, 600, Note_on_c, 11, 105, 100
15, 718, Note_on_c, 11, 105, 0
15, 718, Note_on_c, 11, 96, 0
15, 720, Note_on_c, 11, 94, 100
15, 720, Note_on_c, 11, 103, 100
15, 838, Note_on_c, 11, 103, 0
15, 838, Note_on_c, 11, 94, 0
15, 840, Note_on_c, 11, 101, 100
15, 899, Note_on_c, 11, 101, 0
15, 900, Note_on_c, 11, 89, 100
15, 900, Note_on_c, 11, 98, 100
15, 1137, Note_on_c, 11, 98, 0
15, 1137, Note_on_c, 11, 89, 0
15, 1140, Note_on_c, 11, 101, 100
15, 1140, Note_on_c, 11, 108, 100
15, 1432, Note_on_c, 11, 101, 0
15, 1434, Note_on_c, 11, 108, 0
15, 1440, Note_on_c, 11, 106, 100
15, 1440, Note_on_c, 11, 98, 100
15, 1558, Note_on_c, 11, 98, 0
15, 1558, Note_on_c, 11, 106, 0
15, 1560, Note_on_c, 11, 96, 100
15, 1560, Note_on_c, 11, 105, 100
15, 1678, Note_on_c, 11, 105, 0
15, 1678, Note_on_c, 11, 96, 0
15, 1680, Note_on_c, 11, 94, 100
15, 1680, Note_on_c, 11, 103, 100
15, 1798, Note_on_c, 11, 103, 0
15, 1798, Note_on_c, 11, 94, 0
15, 1800, Note_on_c, 11, 101, 100
15, 1859, Note_on_c, 11, 101, 0
15, 1860, Note_on_c, 11, 98, 100
15, 1919, Note_on_c, 11, 98, 0
15, 1920, Note_on_c, 11, 96, 100
15, 1920, Note_on_c, 11, 87, 100
15, 2395, Note_on_c, 11, 87, 0
15, 2395, Note_on_c, 11, 96, 0
15, 2400, Note_on_c, 11, 106, 100
15, 2400, Note_on_c, 11, 98, 100
15, 2518, Note_on_c, 11, 98, 0
15, 2518, Note_on_c, 11, 106, 0
15, 2520, Note_on_c, 11, 96, 100
15, 2520, Note_on_c, 11, 105, 100
15, 2638, Note_on_c, 11, 105, 0
15, 2638, Note_on_c, 11, 96, 0
15, 2640, Note_on_c, 11, 94, 100
15, 2640, Note_on_c, 11, 103, 100
15, 2758, Note_on_c, 11, 103, 0
15, 2758, Note_on_c, 11, 94, 0
15, 2760, Note_on_c, 11, 101, 100
15, 2819, Note_on_c, 11, 101, 0
15, 2820, Note_on_c, 11, 89, 100
15, 2820, Note_on_c, 11, 98, 100
15, 3057, Note_on_c, 11, 98, 0
15, 3057, Note_on_c, 11, 89, 0
15, 3060, Note_on_c, 11, 101, 100
15, 3060, Note_on_c, 11, 108, 100
15, 3352, Note_on_c, 11, 101, 0
15, 3354, Note_on_c, 11, 108, 0
15, 3360, Note_on_c, 11, 106, 100
15, 3360, Note_on_c, 11, 98, 100
15, 3478, Note_on_c, 11, 98, 0
15, 3478, Note_on_c, 11, 106, 0
15, 3480, Note_on_c, 11, 96, 100
15, 3480, Note_on_c, 11, 105, 100
15, 3598, Note_on_c, 11, 105, 0
15, 3598, Note_on_c, 11, 96, 0
15, 3600, Note_on_c, 11, 94, 100
15, 3600, Note_on_c, 11, 103, 100
15, 3718, Note_on_c, 11, 103, 0
15, 3718, Note_on_c, 11, 94, 0
15, 3720, Note_on_c, 11, 101, 100
15, 3779, Note_on_c, 11, 101, 0
15, 3780, Note_on_c, 11, 98, 100
15, 3839, Note_on_c, 11, 98, 0
15, 3840, Note_on_c, 11, 96, 100
15, 3840, Note_on_c, 11, 87, 100
15, 4315, Note_on_c, 11, 87, 0
15, 4315, Note_on_c, 11, 96, 0
15, 13920, Note_on_c, 11, 106, 100
15, 13920, Note_on_c, 11, 98, 100
15, 14038, Note_on_c, 11, 98, 0
15, 14038, Note_on_c, 11, 106, 0
15, 14040, Note_on_c, 11, 96, 100
15, 14040, Note_on_c, 11, 105, 100
15, 14158, Note_on_c, 11, 105, 0
15, 14158, Note_on_c, 11, 96, 0
15, 14160, Note_on_c, 11, 94, 100
15, 14160, Note_on_c, 11, 103, 100
15, 14278, Note_on_c, 11, 103, 0
15, 14278, Note_on_c, 11, 94, 0
15, 14280, Note_on_c, 11, 101, 100
15, 14339, Note_on_c, 11, 101, 0
15, 14340, Note_on_c, 11, 89, 100
15, 14340, Note_on_c, 11, 98, 100
15, 14577, Note_on_c, 11, 98, 0
15, 14577, Note_on_c, 11, 89, 0
15, 14580, Note_on_c, 11, 101, 100
15, 14580, Note_on_c, 11, 108, 100
15, 14872, Note_on_c, 11, 101, 0
15, 14874, Note_on_c, 11, 108, 0
15, 14880, Note_on_c, 11, 106, 100
15, 14880, Note_on_c, 11, 98, 100
15, 14998, Note_on_c, 11, 98, 0
15, 14998, Note_on_c, 11, 106, 0
15, 15000, Note_on_c, 11, 96, 100
15, 15000, Note_on_c, 11, 105, 100
15, 15118, Note_on_c, 11, 105, 0
15, 15118, Note_on_c, 11, 96, 0
15, 15120, Note_on_c, 11, 94, 100
15, 15120, Note_on_c, 11, 103, 100
15, 15238, Note_on_c, 11, 103, 0
15, 15238, Note_on_c, 11, 94, 0
15, 15240, Note_on_c, 11, 101, 100
15, 15299, Note_on_c, 11, 101, 0
15, 15300, Note_on_c, 11, 98, 100
15, 15359, Note_on_c, 11, 98, 0
15, 15360, Note_on_c, 11, 96, 100
15, 15360, Note_on_c, 11, 87, 100
15, 15835, Note_on_c, 11, 87, 0
15, 15835, Note_on_c, 11, 96, 0
15, 15840, Note_on_c, 11, 106, 100
15, 15840, Note_on_c, 11, 98, 100
15, 15958, Note_on_c, 11, 98, 0
15, 15958, Note_on_c, 11, 106, 0
15, 15960, Note_on_c, 11, 96, 100
15, 15960, Note_on_c, 11, 105, 100
15, 16078, Note_on_c, 11, 105, 0
15, 16078, Note_on_c, 11, 96, 0
15, 16080, Note_on_c, 11, 94, 100
15, 16080, Note_on_c, 11, 103, 100
15, 16198, Note_on_c, 11, 103, 0
15, 16198, Note_on_c, 11, 94, 0
15, 16200, Note_on_c, 11, 101, 100
15, 16259, Note_on_c, 11, 101, 0
15, 16260, Note_on_c, 11, 89, 100
15, 16260, Note_on_c, 11, 98, 100
15, 16497, Note_on_c, 11, 98, 0
15, 16497, Note_on_c, 11, 89, 0
15, 16500, Note_on_c, 11, 101, 100
15, 16500, Note_on_c, 11, 108, 100
15, 16792, Note_on_c, 11, 101, 0
15, 16794, Note_on_c, 11, 108, 0
15, 16800, Note_on_c, 11, 106, 100
15, 16800, Note_on_c, 11, 98, 100
15, 16918, Note_on_c, 11, 98, 0
15, 16918, Note_on_c, 11, 106, 0
15, 16920, Note_on_c, 11, 96, 100
15, 16920, Note_on_c, 11, 105, 100
15, 17038, Note_on_c, 11, 105, 0
15, 17038, Note_on_c, 11, 96, 0
15, 17040, Note_on_c, 11, 94, 100
15, 17040, Note_on_c, 11, 103, 100
15, 17158, Note_on_c, 11, 103, 0
15, 17158, Note_on_c, 11, 94, 0
15, 17160, Note_on_c, 11, 101, 100
15, 17219, Note_on_c, 11, 101, 0
15, 17220, Note_on_c, 11, 98, 100
15, 17279, Note_on_c, 11, 98, 0
15, 17280, Note_on_c, 11, 96, 100
15, 17280, Note_on_c, 11, 87, 100
15, 17755, Note_on_c, 11, 87, 0
15, 17755, Note_on_c, 11, 96, 0
15, 17760, Note_on_c, 11, 106, 100
15, 17760, Note_on_c, 11, 98, 100
15, 17878, Note_on_c, 11, 98, 0
15, 17878, Note_on_c, 11, 106, 0
15, 17880, Note_on_c, 11, 96, 100
15, 17880, Note_on_c, 11, 105, 100
15, 17998, Note_on_c, 11, 105, 0
15, 17998, Note_on_c, 11, 96, 0
15, 18000, Note_on_c, 11, 94, 100
15, 18000, Note_on_c, 11, 103, 100
15, 18118, Note_on_c, 11, 103, 0
15, 18118, Note_on_c, 11, 94, 0
15, 18120, Note_on_c, 11, 101, 100
15, 18179, Note_on_c, 11, 101, 0
15, 18180, Note_on_c, 11, 89, 100
15, 18180, Note_on_c, 11, 98, 100
15, 18417, Note_on_c, 11, 98, 0
15, 18417, Note_on_c, 11, 89, 0
15, 18420, Note_on_c, 11, 101, 100
15, 18420, Note_on_c, 11, 108, 100
15, 18712, Note_on_c, 11, 101, 0
15, 18714, Note_on_c, 11, 108, 0
15, 18720, Note_on_c, 11, 106, 100
15, 18720, Note_on_c, 11, 98, 100
15, 18838, Note_on_c, 11, 98, 0
15, 18838, Note_on_c, 11, 106, 0
15, 18840, Note_on_c, 11, 96, 100
15, 18840, Note_on_c, 11, 105, 100
15, 18958, Note_on_c, 11, 105, 0
15, 18958, Note_on_c, 11, 96, 0
15, 18960, Note_on_c, 11, 94, 100
15, 18960, Note_on_c, 11, 103, 100
15, 19078, Note_on_c, 11, 103, 0
15, 19078, Note_on_c, 11, 94, 0
15, 19080, Note_on_c, 11, 101, 100
15, 19139, Note_on_c, 11, 101, 0
15, 19140, Note_on_c, 11, 98, 100
15, 19199, Note_on_c, 11, 98, 0
15, 19200, Note_on_c, 11, 96, 100
15, 19200, Note_on_c, 11, 87, 100
15, 19675, Note_on_c, 11, 87, 0
15, 19675, Note_on_c, 11, 96, 0
15, 19680, Note_on_c, 11, 106, 100
15, 19680, Note_on_c, 11, 98, 100
15, 19798, Note_on_c, 11, 98, 0
15, 19798, Note_on_c, 11, 106, 0
15, 19800, Note_on_c, 11, 96, 100
15, 19800, Note_on_c, 11, 105, 100
15, 19918, Note_on_c, 11, 105, 0
15, 19918, Note_on_c, 11, 96, 0
15, 19920, Note_on_c, 11, 94, 100
15, 19920, Note_on_c, 11, 103, 100
15, 20038, Note_on_c, 11, 103, 0
15, 20038, Note_on_c, 11, 94, 0
15, 20040, Note_on_c, 11, 101, 100
15, 20099, Note_on_c, 11, 101, 0
15, 20100, Note_on_c, 11, 89, 100
15, 20100, Note_on_c, 11, 98, 100
15, 20337, Note_on_c, 11, 98, 0
15, 20337, Note_on_c, 11, 89, 0
15, 20340, Note_on_c, 11, 101, 100
15, 20340, Note_on_c, 11, 108, 100
15, 20632, Note_on_c, 11, 101, 0
15, 20634, Note_on_c, 11, 108, 0
15, 20640, Note_on_c, 11, 106, 100
15, 20640, Note_on_c, 11, 98, 100
15, 20758, Note_on_c, 11, 98, 0
15, 20758, Note_on_c, 11, 106, 0
15, 20760, Note_on_c, 11, 96, 100
15, 20760, Note_on_c, 11, 105, 100
15, 20878, Note_on_c, 11, 105, 0
15, 20878, Note_on_c, 11, 96, 0
15, 20880, Note_on_c, 11, 94, 100
15, 20880, Note_on_c, 11, 103, 100
15, 20998, Note_on_c, 11, 103, 0
15, 20998, Note_on_c, 11, 94, 0
15, 21000, Note_on_c, 11, 101, 100
15, 21059, Note_on_c, 11, 101, 0
15, 21060, Note_on_c, 11, 98, 100
15, 21119, Note_on_c, 11, 98, 0
15, 21120, Note_on_c, 11, 96, 100
15, 21120, Note_on_c, 11, 87, 100
15, 21595, Note_on_c, 11, 87, 0
15, 21595, Note_on_c, 11, 96, 0
15, 31200, Note_on_c, 11, 106, 100
15, 31200, Note_on_c, 11, 98, 100
15, 31318, Note_on_c, 11, 98, 0
15, 31318, Note_on_c, 11, 106, 0
15, 31320, Note_on_c, 11, 96, 100
15, 31320, Note_on_c, 11, 105, 100
15, 31438, Note_on_c, 11, 105, 0
15, 31438, Note_on_c, 11, 96, 0
15, 31440, Note_on_c, 11, 94, 100
15, 31440, Note_on_c, 11, 103, 100
15, 31558, Note_on_c, 11, 103, 0
15, 31558, Note_on_c, 11, 94, 0
15, 31560, Note_on_c, 11, 101, 100
15, 31619, Note_on_c, 11, 101, 0
15, 31620, Note_on_c, 11, 89, 100
15, 31620, Note_on_c, 11, 98, 100
15, 31857, Note_on_c, 11, 98, 0
15, 31857, Note_on_c, 11, 89, 0
15, 31860, Note_on_c, 11, 101, 100
15, 31860, Note_on_c, 11, 108, 100
15, 32152, Note_on_c, 11, 101, 0
15, 32154, Note_on_c, 11, 108, 0
15, 32160, Note_on_c, 11, 106, 100
15, 32160, Note_on_c, 11, 98, 100
15, 32278, Note_on_c, 11, 98, 0
15, 32278, Note_on_c, 11, 106, 0
15, 32280, Note_on_c, 11, 96, 100
15, 32280, Note_on_c, 11, 105, 100
15, 32398, Note_on_c, 11, 105, 0
15, 32398, Note_on_c, 11, 96, 0
15, 32400, Note_on_c, 11, 94, 100
15, 32400, Note_on_c, 11, 103, 100
15, 32518, Note_on_c, 11, 103, 0
15, 32518, Note_on_c, 11, 94, 0
15, 32520, Note_on_c, 11, 101, 100
15, 32579, Note_on_c, 11, 101, 0
15, 32580, Note_on_c, 11, 98, 100
15, 32639, Note_on_c, 11, 98, 0
15, 32640, Note_on_c, 11, 96, 100
15, 32640, Note_on_c, 11, 87, 100
15, 33115, Note_on_c, 11, 87, 0
15, 33115, Note_on_c, 11, 96, 0
15, 33120, Note_on_c, 11, 106, 100
15, 33120, Note_on_c, 11, 98, 100
15, 33238, Note_on_c, 11, 98, 0
15, 33238, Note_on_c, 11, 106, 0
15, 33240, Note_on_c, 11, 96, 100
15, 33240, Note_on_c, 11, 105, 100
15, 33358, Note_on_c, 11, 105, 0
15, 33358, Note_on_c, 11, 96, 0
15, 33360, Note_on_c, 11, 94, 100
15, 33360, Note_on_c, 11, 103, 100
15, 33478, Note_on_c, 11, 103, 0
15, 33478, Note_on_c, 11, 94, 0
15, 33480, Note_on_c, 11, 101, 100
15, 33539, Note_on_c, 11, 101, 0
15, 33540, Note_on_c, 11, 89, 100
15, 33540, Note_on_c, 11, 98, 100
15, 33777, Note_on_c, 11, 98, 0
15, 33777, Note_on_c, 11, 89, 0
15, 33780, Note_on_c, 11, 101, 100
15, 33780, Note_on_c, 11, 108, 100
15, 34072, Note_on_c, 11, 101, 0
15, 34074, Note_on_c, 11, 108, 0
15, 34080, Note_on_c, 11, 106, 100
15, 34080, Note_on_c, 11, 98, 100
15, 34198, Note_on_c, 11, 98, 0
15, 34198, Note_on_c, 11, 106, 0
15, 34200, Note_on_c, 11, 96, 100
15, 34200, Note_on_c, 11, 105, 100
15, 34318, Note_on_c, 11, 105, 0
15, 34318, Note_on_c, 11, 96, 0
15, 34320, Note_on_c, 11, 94, 100
15, 34320, Note_on_c, 11, 103, 100
15, 34438, Note_on_c, 11, 103, 0
15, 34438, Note_on_c, 11, 94, 0
15, 34440, Note_on_c, 11, 101, 100
15, 34499, Note_on_c, 11, 101, 0
15, 34500, Note_on_c, 11, 98, 100
15, 34559, Note_on_c, 11, 98, 0
15, 34560, Note_on_c, 11, 96, 100
15, 34560, Note_on_c, 11, 87, 100
15, 35035, Note_on_c, 11, 87, 0
15, 35035, Note_on_c, 11, 96, 0
15, 35040, Note_on_c, 11, 106, 100
15, 35040, Note_on_c, 11, 98, 100
15, 35158, Note_on_c, 11, 98, 0
15, 35158, Note_on_c, 11, 106, 0
15, 35160, Note_on_c, 11, 96, 100
15, 35160, Note_on_c, 11, 105, 100
15, 35278, Note_on_c, 11, 105, 0
15, 35278, Note_on_c, 11, 96, 0
15, 35280, Note_on_c, 11, 94, 100
15, 35280, Note_on_c, 11, 103, 100
15, 35398, Note_on_c, 11, 103, 0
15, 35398, Note_on_c, 11, 94, 0
15, 35400, Note_on_c, 11, 101, 100
15, 35459, Note_on_c, 11, 101, 0
15, 35460, Note_on_c, 11, 89, 100
15, 35460, Note_on_c, 11, 98, 100
15, 35697, Note_on_c, 11, 98, 0
15, 35697, Note_on_c, 11, 89, 0
15, 35700, Note_on_c, 11, 101, 100
15, 35700, Note_on_c, 11, 108, 100
15, 35992, Note_on_c, 11, 101, 0
15, 35994, Note_on_c, 11, 108, 0
15, 36000, Note_on_c, 11, 106, 100
15, 36000, Note_on_c, 11, 98, 100
15, 36118, Note_on_c, 11, 98, 0
15, 36118, Note_on_c, 11, 106, 0
15, 36120, Note_on_c, 11, 96, 100
15, 36120, Note_on_c, 11, 105, 100
15, 36238, Note_on_c, 11, 105, 0
15, 36238, Note_on_c, 11, 96, 0
15, 36240, Note_on_c, 11, 94, 100
15, 36240, Note_on_c, 11, 103, 100
15, 36358, Note_on_c, 11, 103, 0
15, 36358, Note_on_c, 11, 94, 0
15, 36360, Note_on_c, 11, 101, 100
15, 36419, Note_on_c, 11, 101, 0
15, 36420, Note_on_c, 11, 98, 100
15, 36479, Note_on_c, 11, 98, 0
15, 36480, Note_on_c, 11, 96, 100
15, 36480, Note_on_c, 11, 87, 100
15, 36955, Note_on_c, 11, 87, 0
15, 36955, Note_on_c, 11, 96, 0
15, 36960, Note_on_c, 11, 106, 100
15, 36960, Note_on_c, 11, 98, 100
15, 37078, Note_on_c, 11, 98, 0
15, 37078, Note_on_c, 11, 106, 0
15, 37080, Note_on_c, 11, 96, 100
15, 37080, Note_on_c, 11, 105, 100
15, 37198, Note_on_c, 11, 105, 0
15, 37198, Note_on_c, 11, 96, 0
15, 37200, Note_on_c, 11, 94, 100
15, 37200, Note_on_c, 11, 103, 100
15, 37318, Note_on_c, 11, 103, 0
15, 37318, Note_on_c, 11, 94, 0
15, 37320, Note_on_c, 11, 101, 100
15, 37379, Note_on_c, 11, 101, 0
15, 37380, Note_on_c, 11, 89, 100
15, 37380, Note_on_c, 11, 98, 100
15, 37617, Note_on_c, 11, 98, 0
15, 37617, Note_on_c, 11, 89, 0
15, 37620, Note_on_c, 11, 101, 100
15, 37620, Note_on_c, 11, 108, 100
15, 37912, Note_on_c, 11, 101, 0
15, 37914, Note_on_c, 11, 108, 0
15, 37920, Note_on_c, 11, 106, 100
15, 37920, Note_on_c, 11, 98, 100
15, 38038, Note_on_c, 11, 98, 0
15, 38038, Note_on_c, 11, 106, 0
15, 38040, Note_on_c, 11, 96, 100
15, 38040, Note_on_c, 11, 105, 100
15, 38158, Note_on_c, 11, 105, 0
15, 38158, Note_on_c, 11, 96, 0
15, 38160, Note_on_c, 11, 94, 100
15, 38160, Note_on_c, 11, 103, 100
15, 38278, Note_on_c, 11, 103, 0
15, 38278, Note_on_c, 11, 94, 0
15, 38280, Note_on_c, 11, 101, 100
15, 38339, Note_on_c, 11, 101, 0
15, 38340, Note_on_c, 11, 98, 100
15, 38399, Note_on_c, 11, 98, 0
15, 38400, Note_on_c, 11, 96, 100
15, 38400, Note_on_c, 11, 87, 100
15, 38875, Note_on_c, 11, 87, 0
15, 38875, Note_on_c, 11, 96, 0
15, 46560, Note_on_c, 11, 106, 100
15, 46560, Note_on_c, 11, 98, 100
15, 46678, Note_on_c, 11, 98, 0
15, 46678, Note_on_c, 11, 106, 0
15, 46680, Note_on_c, 11, 96, 100
15, 46680, Note_on_c, 11, 105, 100
15, 46798, Note_on_c, 11, 105, 0
15, 46798, Note_on_c, 11, 96, 0
15, 46800, Note_on_c, 11, 94, 100
15, 46800, Note_on_c, 11, 103, 100
15, 46918, Note_on_c, 11, 103, 0
15, 46918, Note_on_c, 11, 94, 0
15, 46920, Note_on_c, 11, 101, 100
15, 46979, Note_on_c, 11, 101, 0
15, 46980, Note_on_c, 11, 89, 100
15, 46980, Note_on_c, 11, 98, 100
15, 47217, Note_on_c, 11, 98, 0
15, 47217, Note_on_c, 11, 89, 0
15, 47220, Note_on_c, 11, 101, 100
15, 47220, Note_on_c, 11, 108, 100
15, 47512, Note_on_c, 11, 101, 0
15, 47514, Note_on_c, 11, 108, 0
15, 47520, Note_on_c, 11, 106, 100
15, 47520, Note_on_c, 11, 98, 100
15, 47638, Note_on_c, 11, 98, 0
15, 47638, Note_on_c, 11, 106, 0
15, 47640, Note_on_c, 11, 96, 100
15, 47640, Note_on_c, 11, 105, 100
15, 47758, Note_on_c, 11, 105, 0
15, 47758, Note_on_c, 11, 96, 0
15, 47760, Note_on_c, 11, 94, 100
15, 47760, Note_on_c, 11, 103, 100
15, 47878, Note_on_c, 11, 103, 0
15, 47878, Note_on_c, 11, 94, 0
15, 47880, Note_on_c, 11, 101, 100
15, 47939, Note_on_c, 11, 101, 0
15, 47940, Note_on_c, 11, 98, 100
15, 47999, Note_on_c, 11, 98, 0
15, 48000, Note_on_c, 11, 96, 100
15, 48000, Note_on_c, 11, 87, 100
15, 48475, Note_on_c, 11, 87, 0
15, 48475, Note_on_c, 11, 96, 0
15, 48480, Note_on_c, 11, 106, 100
15, 48480, Note_on_c, 11, 98, 100
15, 48598, Note_on_c, 11, 98, 0
15, 48598, Note_on_c, 11, 106, 0
15, 48600, Note_on_c, 11, 96, 100
15, 48600, Note_on_c, 11, 105, 100
15, 48718, Note_on_c, 11, 105, 0
15, 48718, Note_on_c, 11, 96, 0
15, 48720, Note_on_c, 11, 94, 100
15, 48720, Note_on_c, 11, 103, 100
15, 48838, Note_on_c, 11, 103, 0
15, 48838, Note_on_c, 11, 94, 0
15, 48840, Note_on_c, 11, 101, 100
15, 48899, Note_on_c, 11, 101, 0
15, 48900, Note_on_c, 11, 89, 100
15, 48900, Note_on_c, 11, 98, 100
15, 49137, Note_on_c, 11, 98, 0
15, 49137, Note_on_c, 11, 89, 0
15, 49140, Note_on_c, 11, 101, 100
15, 49140, Note_on_c, 11, 108, 100
15, 49432, Note_on_c, 11, 101, 0
15, 49434, Note_on_c, 11, 108, 0
15, 49440, Note_on_c, 11, 106, 100
15, 49440, Note_on_c, 11, 98, 100
15, 49558, Note_on_c, 11, 98, 0
15, 49558, Note_on_c, 11, 106, 0
15, 49560, Note_on_c, 11, 96, 100
15, 49560, Note_on_c, 11, 105, 100
15, 49678, Note_on_c, 11, 105, 0
15, 49678, Note_on_c, 11, 96, 0
15, 49680, Note_on_c, 11, 94, 100
15, 49680, Note_on_c, 11, 103, 100
15, 49798, Note_on_c, 11, 103, 0
15, 49798, Note_on_c, 11, 94, 0
15, 49800, Note_on_c, 11, 101, 100
15, 49859, Note_on_c, 11, 101, 0
15, 49860, Note_on_c, 11, 98, 100
15, 49919, Note_on_c, 11, 98, 0
15, 49920, Note_on_c, 11, 96, 100
15, 49920, Note_on_c, 11, 87, 100
15, 50395, Note_on_c, 11, 87, 0
15, 50395, Note_on_c, 11, 96, 0
15, 50400, Note_on_c, 11, 106, 100
15, 50400, Note_on_c, 11, 98, 100
15, 50518, Note_on_c, 11, 98, 0
15, 50518, Note_on_c, 11, 106, 0
15, 50520, Note_on_c, 11, 96, 100
15, 50520, Note_on_c, 11, 105, 100
15, 50638, Note_on_c, 11, 105, 0
15, 50638, Note_on_c, 11, 96, 0
15, 50640, Note_on_c, 11, 94, 100
15, 50640, Note_on_c, 11, 103, 100
15, 50758, Note_on_c, 11, 103, 0
15, 50758, Note_on_c, 11, 94, 0
15, 50760, Note_on_c, 11, 101, 100
15, 50819, Note_on_c, 11, 101, 0
15, 50820, Note_on_c, 11, 89, 100
15, 50820, Note_on_c, 11, 98, 100
15, 51057, Note_on_c, 11, 98, 0
15, 51057, Note_on_c, 11, 89, 0
15, 51060, Note_on_c, 11, 101, 100
15, 51060, Note_on_c, 11, 108, 100
15, 51352, Note_on_c, 11, 101, 0
15, 51354, Note_on_c, 11, 108, 0
15, 51360, Note_on_c, 11, 106, 100
15, 51360, Note_on_c, 11, 98, 100
15, 51478, Note_on_c, 11, 98, 0
15, 51478, Note_on_c, 11, 106, 0
15, 51480, Note_on_c, 11, 96, 100
15, 51480, Note_on_c, 11, 105, 100
15, 51598, Note_on_c, 11, 105, 0
15, 51598, Note_on_c, 11, 96, 0
15, 51600, Note_on_c, 11, 94, 100
15, 51600, Note_on_c, 11, 103, 100
15, 51718, Note_on_c, 11, 103, 0
15, 51718, Note_on_c, 11, 94, 0
15, 51720, Note_on_c, 11, 101, 100
15, 51779, Note_on_c, 11, 101, 0
15, 51780, Note_on_c, 11, 98, 100
15, 51839, Note_on_c, 11, 98, 0
15, 51840, Note_on_c, 11, 96, 100
15, 51840, Note_on_c, 11, 87, 100
15, 52312, Control_c, 11, 11, 99
15, 52315, Note_on_c, 11, 87, 0
15, 52315, Note_on_c, 11, 96, 0
15, 52320, Note_on_c, 11, 106, 100
15, 52320, Note_on_c, 11, 98, 100
15, 52327, Control_c, 11, 11, 98
15, 52357, Control_c, 11, 11, 97
15, 52387, Control_c, 11, 11, 96
15, 52425, Control_c, 11, 11, 95
15, 52438, Note_on_c, 11, 98, 0
15, 52438, Note_on_c, 11, 106, 0
15, 52440, Note_on_c, 11, 96, 100
15, 52440, Note_on_c, 11, 105, 100
15, 52455, Control_c, 11, 11, 94
15, 52485, Control_c, 11, 11, 93
15, 52515, Control_c, 11, 11, 92
15, 52545, Control_c, 11, 11, 91
15, 52558, Note_on_c, 11, 105, 0
15, 52558, Note_on_c, 11, 96, 0
15, 52560, Note_on_c, 11, 94, 100
15, 52560, Note_on_c, 11, 103, 100
15, 52582, Control_c, 11, 11, 90
15, 52612, Control_c, 11, 11, 89
15, 52642, Control_c, 11, 11, 88
15, 52672, Control_c, 11, 11, 87
15, 52678, Note_on_c, 11, 103, 0
15, 52678, Note_on_c, 11, 94, 0
15, 52680, Note_on_c, 11, 101, 100
15, 52710, Control_c, 11, 11, 86
15, 52739, Note_on_c, 11, 101, 0
15, 52740, Note_on_c, 11, 89, 100
15, 52740, Note_on_c, 11, 98, 100
15, 52740, Control_c, 11, 11, 85
15, 52770, Control_c, 11, 11, 84
15, 52800, Control_c, 11, 11, 83
15, 52830, Control_c, 11, 11, 82
15, 52867, Control_c, 11, 11, 81
15, 52897, Control_c, 11, 11, 80
15, 52927, Control_c, 11, 11, 79
15, 52957, Control_c, 11, 11, 78
15, 52977, Note_on_c, 11, 98, 0
15, 52977, Note_on_c, 11, 89, 0
15, 52980, Note_on_c, 11, 101, 100
15, 52980, Note_on_c, 11, 108, 100
15, 52995, Control_c, 11, 11, 77
15, 53025, Control_c, 11, 11, 76
15, 53055, Control_c, 11, 11, 75
15, 53085, Control_c, 11, 11, 74
15, 53115, Control_c, 11, 11, 73
15, 53152, Control_c, 11, 11, 72
15, 53182, Control_c, 11, 11, 71
15, 53212, Control_c, 11, 11, 70
15, 53242, Control_c, 11, 11, 69
15, 53272, Note_on_c, 11, 101, 0
15, 53274, Note_on_c, 11, 108, 0
15, 53280, Note_on_c, 11, 106, 100
15, 53280, Note_on_c, 11, 98, 100
15, 53280, Control_c, 11, 11, 68
15, 53310, Control_c, 11, 11, 67
15, 53340, Control_c, 11, 11, 66
15, 53370, Control_c, 11, 11, 65
15, 53398, Note_on_c, 11, 98, 0
15, 53398, Note_on_c, 11, 106, 0
15, 53400, Note_on_c, 11, 96, 100
15, 53400, Note_on_c, 11, 105, 100
15, 53400, Control_c, 11, 11, 64
15, 53437, Control_c, 11, 11, 63
15, 53467, Control_c, 11, 11, 62
15, 53497, Control_c, 11, 11, 61
15, 53518, Note_on_c, 11, 105, 0
15, 53518, Note_on_c, 11, 96, 0
15, 53520, Note_on_c, 11, 94, 100
15, 53520, Note_on_c, 11, 103, 100
15, 53527, Control_c, 11, 11, 60
15, 53565, Control_c, 11, 11, 59
15, 53595, Control_c, 11, 11, 58
15, 53625, Control_c, 11, 11, 57
15, 53638, Note_on_c, 11, 103, 0
15, 53638, Note_on_c, 11, 94, 0
15, 53640, Note_on_c, 11, 101, 100
15, 53655, Control_c, 11, 11, 56
15, 53685, Control_c, 11, 11, 55
15, 53699, Note_on_c, 11, 101, 0
15, 53700, Note_on_c, 11, 98, 100
15, 53722, Control_c, 11, 11, 54
15, 53752, Control_c, 11, 11, 53
15, 53759, Note_on_c, 11, 98, 0
15, 53760, Note_on_c, 11, 96, 100
15, 53760, Note_on_c, 11, 87, 100
15, 53782, Control_c, 11, 11, 52
15, 53812, Control_c, 11, 11, 51
15, 53850, Control_c, 11, 11, 50
15, 53880, Control_c, 11, 11, 49
15, 53910, Control_c, 11, 11, 48
15, 53940, Control_c, 11, 11, 47
15, 53970, Control_c, 11, 11, 46
15, 54007, Control_c, 11, 11, 45
15, 54037, Control_c, 11, 11, 44
15, 54067, Control_c, 11, 11, 43
15, 54097, Control_c, 11, 11, 42
15, 54135, Control_c, 11, 11, 41
15, 54165, Control_c, 11, 11, 40
15, 54195, Control_c, 11, 11, 39
15, 54225, Control_c, 11, 11, 38
15, 54235, Note_on_c, 11, 87, 0
15, 54235, Note_on_c, 11, 96, 0
15, 54240, Note_on_c, 11, 106, 100
15, 54240, Note_on_c, 11, 98, 100
15, 54255, Control_c, 11, 11, 37
15, 54292, Control_c, 11, 11, 36
15, 54322, Control_c, 11, 11, 35
15, 54352, Control_c, 11, 11, 34
15, 54358, Note_on_c, 11, 98, 0
15, 54358, Note_on_c, 11, 106, 0
15, 54360, Note_on_c, 11, 96, 100
15, 54360, Note_on_c, 11, 105, 100
15, 54382, Control_c, 11, 11, 33
15, 54412, Control_c, 11, 11, 32
15, 54450, Control_c, 11, 11, 31
15, 54478, Note_on_c, 11, 105, 0
15, 54478, Note_on_c, 11, 96, 0
15, 54480, Note_on_c, 11, 94, 100
15, 54480, Note_on_c, 11, 103, 100
15, 54480, Control_c, 11, 11, 30
15, 54510, Control_c, 11, 11, 29
15, 54540, Control_c, 11, 11, 28
15, 54577, Control_c, 11, 11, 27
15, 54598, Note_on_c, 11, 103, 0
15, 54598, Note_on_c, 11, 94, 0
15, 54600, Note_on_c, 11, 101, 100
15, 54607, Control_c, 11, 11, 26
15, 54637, Control_c, 11, 11, 25
15, 54659, Note_on_c, 11, 101, 0
15, 54660, Note_on_c, 11, 89, 100
15, 54660, Note_on_c, 11, 98, 100
15, 54667, Control_c, 11, 11, 24
15, 54697, Control_c, 11, 11, 23
15, 54735, Control_c, 11, 11, 22
15, 54765, Control_c, 11, 11, 21
15, 54795, Control_c, 11, 11, 20
15, 54825, Control_c, 11, 11, 19
15, 54862, Control_c, 11, 11, 18
15, 54892, Control_c, 11, 11, 17
15, 54897, Note_on_c, 11, 98, 0
15, 54897, Note_on_c, 11, 89, 0
15, 54900, Note_on_c, 11, 101, 100
15, 54900, Note_on_c, 11, 108, 100
15, 54922, Control_c, 11, 11, 16
15, 54952, Control_c, 11, 11, 15
15, 54982, Control_c, 11, 11, 14
15, 55020, Control_c, 11, 11, 13
15, 55050, Control_c, 11, 11, 12
15, 55080, Control_c, 11, 11, 11
15, 55110, Control_c, 11, 11, 10
15, 55147, Control_c, 11, 11, 9
15, 55177, Control_c, 11, 11, 8
15, 55192, Note_on_c, 11, 101, 0
15, 55194, Note_on_c, 11, 108, 0
15, 55200, Note_on_c, 11, 106, 100
15, 55200, Note_on_c, 11, 98, 100
15, 55207, Control_c, 11, 11, 7
15, 55237, Control_c, 11, 11, 6
15, 55267, Control_c, 11, 11, 5
15, 55305, Control_c, 11, 11, 4
15, 55318, Note_on_c, 11, 98, 0
15, 55318, Note_on_c, 11, 106, 0
15, 55320, Note_on_c, 11, 96, 100
15, 55320, Note_on_c, 11, 105, 100
15, 55335, Control_c, 11, 11, 3
15, 55365, Control_c, 11, 11, 2
15, 55395, Control_c, 11, 11, 1
15, 55432, Control_c, 11, 11, 0
15, 55438, Note_on_c, 11, 105, 0
15, 55438, Note_on_c, 11, 96, 0
15, 55440, Note_on_c, 11, 94, 100
15, 55440, Note_on_c, 11, 103, 100
15, 55462, Control_c, 11, 11, 0
15, 55492, Control_c, 11, 11, 0
15, 55522, Control_c, 11, 11, 0
15, 55552, Control_c, 11, 11, 0
15, 55558, Note_on_c, 11, 103, 0
15, 55558, Note_on_c, 11, 94, 0
15, 55560, Note_on_c, 11, 101, 100
15, 55590, Control_c, 11, 11, 0
15, 55619, Note_on_c, 11, 101, 0
15, 55620, Note_on_c, 11, 98, 100
15, 55620, Control_c, 11, 11, 0
15, 55650, Control_c, 11, 11, 0
15, 55679, Note_on_c, 11, 98, 0
15, 55679, End_track
16, 0, Start_track
16, 0, MIDI_port, 0
16, 0, Title_t, "Bells 2"
16, 0, Program_c, 12, 11
16, 0, Control_c, 12, 7, 95
16, 0, Control_c, 12, 10, 34
16, 0, Control_c, 12, 121, 127
16, 0, Control_c, 12, 0, 0
16, 0, Control_c, 12, 32, 0
16, 0, Control_c, 12, 11, 127
16, 0, Control_c, 12, 91, 80
16, 0, Control_c, 12, 93, 0
16, 480, Note_on_c, 12, 82, 100
16, 480, Note_on_c, 12, 74, 100
16, 598, Note_on_c, 12, 74, 0
16, 598, Note_on_c, 12, 82, 0
16, 600, Note_on_c, 12, 72, 100
16, 600, Note_on_c, 12, 81, 100
16, 718, Note_on_c, 12, 81, 0
16, 718, Note_on_c, 12, 72, 0
16, 720, Note_on_c, 12, 70, 100
16, 720, Note_on_c, 12, 79, 100
16, 838, Note_on_c, 12, 79, 0
16, 838, Note_on_c, 12, 70, 0
16, 840, Note_on_c, 12, 77, 100
16, 899, Note_on_c, 12, 77, 0
16, 900, Note_on_c, 12, 65, 100
16, 900, Note_on_c, 12, 74, 100
16, 1137, Note_on_c, 12, 74, 0
16, 1137, Note_on_c, 12, 65, 0
16, 1140, Note_on_c, 12, 77, 100
16, 1140, Note_on_c, 12, 84, 100
16, 1432, Note_on_c, 12, 77, 0
16, 1434, Note_on_c, 12, 84, 0
16, 1440, Note_on_c, 12, 82, 100
16, 1440, Note_on_c, 12, 74, 100
16, 1558, Note_on_c, 12, 74, 0
16, 1558, Note_on_c, 12, 82, 0
16, 1560, Note_on_c, 12, 72, 100
16, 1560, Note_on_c, 12, 81, 100
16, 1678, Note_on_c, 12, 81, 0
16, 1678, Note_on_c, 12, 72, 0
16, 1680, Note_on_c, 12, 70, 100
16, 1680, Note_on_c, 12, 79, 100
16, 1798, Note_on_c, 12, 79, 0
16, 1798, Note_on_c, 12, 70, 0
16, 1800, Note_on_c, 12, 77, 100
16, 1859, Note_on_c, 12, 77, 0
16, 1860, Note_on_c, 12, 74, 100
16, 1919, Note_on_c, 12, 74, 0
16, 1920, Note_on_c, 12, 72, 100
16, 1920, Note_on_c, 12, 63, 100
16, 2395, Note_on_c, 12, 63, 0
16, 2395, Note_on_c, 12, 72, 0
16, 2400, Note_on_c, 12, 82, 100
16, 2400, Note_on_c, 12, 74, 100
16, 2518, Note_on_c, 12, 74, 0
16, 2518, Note_on_c, 12, 82, 0
16, 2520, Note_on_c, 12, 72, 100
16, 2520, Note_on_c, 12, 81, 100
16, 2638, Note_on_c, 12, 81, 0
16, 2638, Note_on_c, 12, 72, 0
16, 2640, Note_on_c, 12, 70, 100
16, 2640, Note_on_c, 12, 79, 100
16, 2758, Note_on_c, 12, 79, 0
16, 2758, Note_on_c, 12, 70, 0
16, 2760, Note_on_c, 12, 77, 100
16, 2819, Note_on_c, 12, 77, 0
16, 2820, Note_on_c, 12, 65, 100
16, 2820, Note_on_c, 12, 74, 100
16, 3057, Note_on_c, 12, 74, 0
16, 3057, Note_on_c, 12, 65, 0
16, 3060, Note_on_c, 12, 77, 100
16, 3060, Note_on_c, 12, 84, 100
16, 3352, Note_on_c, 12, 77, 0
16, 3354, Note_on_c, 12, 84, 0
16, 3360, Note_on_c, 12, 82, 100
16, 3360, Note_on_c, 12, 74, 100
16, 3478, Note_on_c, 12, 74, 0
16, 3478, Note_on_c, 12, 82, 0
16, 3480, Note_on_c, 12, 72, 100
16, 3480, Note_on_c, 12, 81, 100
16, 3598, Note_on_c, 12, 81, 0
16, 3598, Note_on_c, 12, 72, 0
16, 3600, Note_on_c, 12, 70, 100
16, 3600, Note_on_c, 12, 79, 100
16, 3718, Note_on_c, 12, 79, 0
16, 3718, Note_on_c, 12, 70, 0
16, 3720, Note_on_c, 12, 77, 100
16, 3779, Note_on_c, 12, 77, 0
16, 3780, Note_on_c, 12, 74, 100
16, 3839, Note_on_c, 12, 74, 0
16, 3840, Note_on_c, 12, 72, 100
16, 3840, Note_on_c, 12, 63, 100
16, 4315, Note_on_c, 12, 63, 0
16, 4315, Note_on_c, 12, 72, 0
16, 13920, Note_on_c, 12, 82, 100
16, 13920, Note_on_c, 12, 74, 100
16, 14038, Note_on_c, 12, 74, 0
16, 14038, Note_on_c, 12, 82, 0
16, 14040, Note_on_c, 12, 72, 100
16, 14040, Note_on_c, 12, 81, 100
16, 14158, Note_on_c, 12, 81, 0
16, 14158, Note_on_c, 12, 72, 0
16, 14160, Note_on_c, 12, 70, 100
16, 14160, Note_on_c, 12, 79, 100
16, 14278, Note_on_c, 12, 79, 0
16, 14278, Note_on_c, 12, 70, 0
16, 14280, Note_on_c, 12, 77, 100
16, 14339, Note_on_c, 12, 77, 0
16, 14340, Note_on_c, 12, 65, 100
16, 14340, Note_on_c, 12, 74, 100
16, 14577, Note_on_c, 12, 74, 0
16, 14577, Note_on_c, 12, 65, 0
16, 14580, Note_on_c, 12, 77, 100
16, 14580, Note_on_c, 12, 84, 100
16, 14872, Note_on_c, 12, 77, 0
16, 14874, Note_on_c, 12, 84, 0
16, 14880, Note_on_c, 12, 82, 100
16, 14880, Note_on_c, 12, 74, 100
16, 14998, Note_on_c, 12, 74, 0
16, 14998, Note_on_c, 12, 82, 0
16, 15000, Note_on_c, 12, 72, 100
16, 15000, Note_on_c, 12, 81, 100
16, 15118, Note_on_c, 12, 81, 0
16, 15118, Note_on_c, 12, 72, 0
16, 15120, Note_on_c, 12, 70, 100
16, 15120, Note_on_c, 12, 79, 100
16, 15238, Note_on_c, 12, 79, 0
16, 15238, Note_on_c, 12, 70, 0
16, 15240, Note_on_c, 12, 77, 100
16, 15299, Note_on_c, 12, 77, 0
16, 15300, Note_on_c, 12, 74, 100
16, 15359, Note_on_c, 12, 74, 0
16, 15360, Note_on_c, 12, 72, 100
16, 15360, Note_on_c, 12, 63, 100
16, 15835, Note_on_c, 12, 63, 0
16, 15835, Note_on_c, 12, 72, 0
16, 15840, Note_on_c, 12, 82, 100
16, 15840, Note_on_c, 12, 74, 100
16, 15958, Note_on_c, 12, 74, 0
16, 15958, Note_on_c, 12, 82, 0
16, 15960, Note_on_c, 12, 72, 100
16, 15960, Note_on_c, 12, 81, 100
16, 16078, Note_on_c, 12, 81, 0
16, 16078, Note_on_c, 12, 72, 0
16, 16080, Note_on_c, 12, 70, 100
16, 16080, Note_on_c, 12, 79, 100
16, 16198, Note_on_c, 12, 79, 0
16, 16198, Note_on_c, 12, 70, 0
16, 16200, Note_on_c, 12, 77, 100
16, 16259, Note_on_c, 12, 77, 0
16, 16260, Note_on_c, 12, 65, 100
16, 16260, Note_on_c, 12, 74, 100
16, 16497, Note_on_c, 12, 74, 0
16, 16497, Note_on_c, 12, 65, 0
16, 16500, Note_on_c, 12, 77, 100
16, 16500, Note_on_c, 12, 84, 100
16, 16792, Note_on_c, 12, 77, 0
16, 16794, Note_on_c, 12, 84, 0
16, 16800, Note_on_c, 12, 82, 100
16, 16800, Note_on_c, 12, 74, 100
16, 16918, Note_on_c, 12, 74, 0
16, 16918, Note_on_c, 12, 82, 0
16, 16920, Note_on_c, 12, 72, 100
16, 16920, Note_on_c, 12, 81, 100
16, 17038, Note_on_c, 12, 81, 0
16, 17038, Note_on_c, 12, 72, 0
16, 17040, Note_on_c, 12, 70, 100
16, 17040, Note_on_c, 12, 79, 100
16, 17158, Note_on_c, 12, 79, 0
16, 17158, Note_on_c, 12, 70, 0
16, 17160, Note_on_c, 12, 77, 100
16, 17219, Note_on_c, 12, 77, 0
16, 17220, Note_on_c, 12, 74, 100
16, 17279, Note_on_c, 12, 74, 0
16, 17280, Note_on_c, 12, 72, 100
16, 17280, Note_on_c, 12, 63, 100
16, 17755, Note_on_c, 12, 63, 0
16, 17755, Note_on_c, 12, 72, 0
16, 17760, Note_on_c, 12, 82, 100
16, 17760, Note_on_c, 12, 74, 100
16, 17878, Note_on_c, 12, 74, 0
16, 17878, Note_on_c, 12, 82, 0
16, 17880, Note_on_c, 12, 72, 100
16, 17880, Note_on_c, 12, 81, 100
16, 17998, Note_on_c, 12, 81, 0
16, 17998, Note_on_c, 12, 72, 0
16, 18000, Note_on_c, 12, 70, 100
16, 18000, Note_on_c, 12, 79, 100
16, 18118, Note_on_c, 12, 79, 0
16, 18118, Note_on_c, 12, 70, 0
16, 18120, Note_on_c, 12, 77, 100
16, 18179, Note_on_c, 12, 77, 0
16, 18180, Note_on_c, 12, 65, 100
16, 18180, Note_on_c, 12, 74, 100
16, 18417, Note_on_c, 12, 74, 0
16, 18417, Note_on_c, 12, 65, 0
16, 18420, Note_on_c, 12, 77, 100
16, 18420, Note_on_c, 12, 84, 100
16, 18712, Note_on_c, 12, 77, 0
16, 18714, Note_on_c, 12, 84, 0
16, 18720, Note_on_c, 12, 82, 100
16, 18720, Note_on_c, 12, 74, 100
16, 18838, Note_on_c, 12, 74, 0
16, 18838, Note_on_c, 12, 82, 0
16, 18840, Note_on_c, 12, 72, 100
16, 18840, Note_on_c, 12, 81, 100
16, 18958, Note_on_c, 12, 81, 0
16, 18958, Note_on_c, 12, 72, 0
16, 18960, Note_on_c, 12, 70, 100
16, 18960, Note_on_c, 12, 79, 100
16, 19078, Note_on_c, 12, 79, 0
16, 19078, Note_on_c, 12, 70, 0
16, 19080, Note_on_c, 12, 77, 100
16, 19139, Note_on_c, 12, 77, 0
16, 19140, Note_on_c, 12, 74, 100
16, 19199, Note_on_c, 12, 74, 0
16, 19200, Note_on_c, 12, 72, 100
16, 19200, Note_on_c, 12, 63, 100
16, 19675, Note_on_c, 12, 63, 0
16, 19675, Note_on_c, 12, 72, 0
16, 19680, Note_on_c, 12, 82, 100
16, 19680, Note_on_c, 12, 74, 100
16, 19798, Note_on_c, 12, 74, 0
16, 19798, Note_on_c, 12, 82, 0
16, 19800, Note_on_c, 12, 72, 100
16, 19800, Note_on_c, 12, 81, 100
16, 19918, Note_on_c, 12, 81, 0
16, 19918, Note_on_c, 12, 72, 0
16, 19920, Note_on_c, 12, 70, 100
16, 19920, Note_on_c, 12, 79, 100
16, 20038, Note_on_c, 12, 79, 0
16, 20038, Note_on_c, 12, 70, 0
16, 20040, Note_on_c, 12, 77, 100
16, 20099, Note_on_c, 12, 77, 0
16, 20100, Note_on_c, 12, 65, 100
16, 20100, Note_on_c, 12, 74, 100
16, 20337, Note_on_c, 12, 74, 0
16, 20337, Note_on_c, 12, 65, 0
16, 20340, Note_on_c, 12, 77, 100
16, 20340, Note_on_c, 12, 84, 100
16, 20632, Note_on_c, 12, 77, 0
16, 20634, Note_on_c, 12, 84, 0
16, 20640, Note_on_c, 12, 82, 100
16, 20640, Note_on_c, 12, 74, 100
16, 20758, Note_on_c, 12, 74, 0
16, 20758, Note_on_c, 12, 82, 0
16, 20760, Note_on_c, 12, 72, 100
16, 20760, Note_on_c, 12, 81, 100
16, 20878, Note_on_c, 12, 81, 0
16, 20878, Note_on_c, 12, 72, 0
16, 20880, Note_on_c, 12, 70, 100
16, 20880, Note_on_c, 12, 79, 100
16, 20998, Note_on_c, 12, 79, 0
16, 20998, Note_on_c, 12, 70, 0
16, 21000, Note_on_c, 12, 77, 100
16, 21059, Note_on_c, 12, 77, 0
16, 21060, Note_on_c, 12, 74, 100
16, 21119, Note_on_c, 12, 74, 0
16, 21120, Note_on_c, 12, 72, 100
16, 21120, Note_on_c, 12, 63, 100
16, 21595, Note_on_c, 12, 63, 0
16, 21595, Note_on_c, 12, 72, 0
16, 31200, Note_on_c, 12, 82, 100
16, 31200, Note_on_c, 12, 74, 100
16, 31318, Note_on_c, 12, 74, 0
16, 31318, Note_on_c, 12, 82, 0
16, 31320, Note_on_c, 12, 72, 100
16, 31320, Note_on_c, 12, 81, 100
16, 31438, Note_on_c, 12, 81, 0
16, 31438, Note_on_c, 12, 72, 0
16, 31440, Note_on_c, 12, 70, 100
16, 31440, Note_on_c, 12, 79, 100
16, 31558, Note_on_c, 12, 79, 0
16, 31558, Note_on_c, 12, 70, 0
16, 31560, Note_on_c, 12, 77, 100
16, 31619, Note_on_c, 12, 77, 0
16, 31620, Note_on_c, 12, 65, 100
16, 31620, Note_on_c, 12, 74, 100
16, 31857, Note_on_c, 12, 74, 0
16, 31857, Note_on_c, 12, 65, 0
16, 31860, Note_on_c, 12, 77, 100
16, 31860, Note_on_c, 12, 84, 100
16, 32152, Note_on_c, 12, 77, 0
16, 32154, Note_on_c, 12, 84, 0
16, 32160, Note_on_c, 12, 82, 100
16, 32160, Note_on_c, 12, 74, 100
16, 32278, Note_on_c, 12, 74, 0
16, 32278, Note_on_c, 12, 82, 0
16, 32280, Note_on_c, 12, 72, 100
16, 32280, Note_on_c, 12, 81, 100
16, 32398, Note_on_c, 12, 81, 0
16, 32398, Note_on_c, 12, 72, 0
16, 32400, Note_on_c, 12, 70, 100
16, 32400, Note_on_c, 12, 79, 100
16, 32518, Note_on_c, 12, 79, 0
16, 32518, Note_on_c, 12, 70, 0
16, 32520, Note_on_c, 12, 77, 100
16, 32579, Note_on_c, 12, 77, 0
16, 32580, Note_on_c, 12, 74, 100
16, 32639, Note_on_c, 12, 74, 0
16, 32640, Note_on_c, 12, 72, 100
16, 32640, Note_on_c, 12, 63, 100
16, 33115, Note_on_c, 12, 63, 0
16, 33115, Note_on_c, 12, 72, 0
16, 33120, Note_on_c, 12, 82, 100
16, 33120, Note_on_c, 12, 74, 100
16, 33238, Note_on_c, 12, 74, 0
16, 33238, Note_on_c, 12, 82, 0
16, 33240, Note_on_c, 12, 72, 100
16, 33240, Note_on_c, 12, 81, 100
16, 33358, Note_on_c, 12, 81, 0
16, 33358, Note_on_c, 12, 72, 0
16, 33360, Note_on_c, 12, 70, 100
16, 33360, Note_on_c, 12, 79, 100
16, 33478, Note_on_c, 12, 79, 0
16, 33478, Note_on_c, 12, 70, 0
16, 33480, Note_on_c, 12, 77, 100
16, 33539, Note_on_c, 12, 77, 0
16, 33540, Note_on_c, 12, 65, 100
16, 33540, Note_on_c, 12, 74, 100
16, 33777, Note_on_c, 12, 74, 0
16, 33777, Note_on_c, 12, 65, 0
16, 33780, Note_on_c, 12, 77, 100
16, 33780, Note_on_c, 12, 84, 100
16, 34072, Note_on_c, 12, 77, 0
16, 34074, Note_on_c, 12, 84, 0
16, 34080, Note_on_c, 12, 82, 100
16, 34080, Note_on_c, 12, 74, 100
16, 34198, Note_on_c, 12, 74, 0
16, 34198, Note_on_c, 12, 82, 0
16, 34200, Note_on_c, 12, 72, 100
16, 34200, Note_on_c, 12, 81, 100
16, 34318, Note_on_c, 12, 81, 0
16, 34318, Note_on_c, 12, 72, 0
16, 34320, Note_on_c, 12, 70, 100
16, 34320, Note_on_c, 12, 79, 100
16, 34438, Note_on_c, 12, 79, 0
16, 34438, Note_on_c, 12, 70, 0
16, 34440, Note_on_c, 12, 77, 100
16, 34499, Note_on_c, 12, 77, 0
16, 34500, Note_on_c, 12, 74, 100
16, 34559, Note_on_c, 12, 74, 0
16, 34560, Note_on_c, 12, 72, 100
16, 34560, Note_on_c, 12, 63, 100
16, 35035, Note_on_c, 12, 63, 0
16, 35035, Note_on_c, 12, 72, 0
16, 35040, Note_on_c, 12, 82, 100
16, 35040, Note_on_c, 12, 74, 100
16, 35158, Note_on_c, 12, 74, 0
16, 35158, Note_on_c, 12, 82, 0
16, 35160, Note_on_c, 12, 72, 100
16, 35160, Note_on_c, 12, 81, 100
16, 35278, Note_on_c, 12, 81, 0
16, 35278, Note_on_c, 12, 72, 0
16, 35280, Note_on_c, 12, 70, 100
16, 35280, Note_on_c, 12, 79, 100
16, 35398, Note_on_c, 12, 79, 0
16, 35398, Note_on_c, 12, 70, 0
16, 35400, Note_on_c, 12, 77, 100
16, 35459, Note_on_c, 12, 77, 0
16, 35460, Note_on_c, 12, 65, 100
16, 35460, Note_on_c, 12, 74, 100
16, 35697, Note_on_c, 12, 74, 0
16, 35697, Note_on_c, 12, 65, 0
16, 35700, Note_on_c, 12, 77, 100
16, 35700, Note_on_c, 12, 84, 100
16, 35992, Note_on_c, 12, 77, 0
16, 35994, Note_on_c, 12, 84, 0
16, 36000, Note_on_c, 12, 82, 100
16, 36000, Note_on_c, 12, 74, 100
16, 36118, Note_on_c, 12, 74, 0
16, 36118, Note_on_c, 12, 82, 0
16, 36120, Note_on_c, 12, 72, 100
16, 36120, Note_on_c, 12, 81, 100
16, 36238, Note_on_c, 12, 81, 0
16, 36238, Note_on_c, 12, 72, 0
16, 36240, Note_on_c, 12, 70, 100
16, 36240, Note_on_c, 12, 79, 100
16, 36358, Note_on_c, 12, 79, 0
16, 36358, Note_on_c, 12, 70, 0
16, 36360, Note_on_c, 12, 77, 100
16, 36419, Note_on_c, 12, 77, 0
16, 36420, Note_on_c, 12, 74, 100
16, 36479, Note_on_c, 12, 74, 0
16, 36480, Note_on_c, 12, 72, 100
16, 36480, Note_on_c, 12, 63, 100
16, 36955, Note_on_c, 12, 63, 0
16, 36955, Note_on_c, 12, 72, 0
16, 36960, Note_on_c, 12, 82, 100
16, 36960, Note_on_c, 12, 74, 100
16, 37078, Note_on_c, 12, 74, 0
16, 37078, Note_on_c, 12, 82, 0
16, 37080, Note_on_c, 12, 72, 100
16, 37080, Note_on_c, 12, 81, 100
16, 37198, Note_on_c, 12, 81, 0
16, 37198, Note_on_c, 12, 72, 0
16, 37200, Note_on_c, 12, 70, 100
16, 37200, Note_on_c, 12, 79, 100
16, 37318, Note_on_c, 12, 79, 0
16, 37318, Note_on_c, 12, 70, 0
16, 37320, Note_on_c, 12, 77, 100
16, 37379, Note_on_c, 12, 77, 0
16, 37380, Note_on_c, 12, 65, 100
16, 37380, Note_on_c, 12, 74, 100
16, 37617, Note_on_c, 12, 74, 0
16, 37617, Note_on_c, 12, 65, 0
16, 37620, Note_on_c, 12, 77, 100
16, 37620, Note_on_c, 12, 84, 100
16, 37912, Note_on_c, 12, 77, 0
16, 37914, Note_on_c, 12, 84, 0
16, 37920, Note_on_c, 12, 82, 100
16, 37920, Note_on_c, 12, 74, 100
16, 38038, Note_on_c, 12, 74, 0
16, 38038, Note_on_c, 12, 82, 0
16, 38040, Note_on_c, 12, 72, 100
16, 38040, Note_on_c, 12, 81, 100
16, 38158, Note_on_c, 12, 81, 0
16, 38158, Note_on_c, 12, 72, 0
16, 38160, Note_on_c, 12, 70, 100
16, 38160, Note_on_c, 12, 79, 100
16, 38278, Note_on_c, 12, 79, 0
16, 38278, Note_on_c, 12, 70, 0
16, 38280, Note_on_c, 12, 77, 100
16, 38339, Note_on_c, 12, 77, 0
16, 38340, Note_on_c, 12, 74, 100
16, 38399, Note_on_c, 12, 74, 0
16, 38400, Note_on_c, 12, 72, 100
16, 38400, Note_on_c, 12, 63, 100
16, 38875, Note_on_c, 12, 63, 0
16, 38875, Note_on_c, 12, 72, 0
16, 46560, Note_on_c, 12, 82, 100
16, 46560, Note_on_c, 12, 74, 100
16, 46678, Note_on_c, 12, 74, 0
16, 46678, Note_on_c, 12, 82, 0
16, 46680, Note_on_c, 12, 72, 100
16, 46680, Note_on_c, 12, 81, 100
16, 46798, Note_on_c, 12, 81, 0
16, 46798, Note_on_c, 12, 72, 0
16, 46800, Note_on_c, 12, 70, 100
16, 46800, Note_on_c, 12, 79, 100
16, 46918, Note_on_c, 12, 79, 0
16, 46918, Note_on_c, 12, 70, 0
16, 46920, Note_on_c, 12, 77, 100
16, 46979, Note_on_c, 12, 77, 0
16, 46980, Note_on_c, 12, 65, 100
16, 46980, Note_on_c, 12, 74, 100
16, 47217, Note_on_c, 12, 74, 0
16, 47217, Note_on_c, 12, 65, 0
16, 47220, Note_on_c, 12, 77, 100
16, 47220, Note_on_c, 12, 84, 100
16, 47512, Note_on_c, 12, 77, 0
16, 47514, Note_on_c, 12, 84, 0
16, 47520, Note_on_c, 12, 82, 100
16, 47520, Note_on_c, 12, 74, 100
16, 47638, Note_on_c, 12, 74, 0
16, 47638, Note_on_c, 12, 82, 0
16, 47640, Note_on_c, 12, 72, 100
16, 47640, Note_on_c, 12, 81, 100
16, 47758, Note_on_c, 12, 81, 0
16, 47758, Note_on_c, 12, 72, 0
16, 47760, Note_on_c, 12, 70, 100
16, 47760, Note_on_c, 12, 79, 100
16, 47878, Note_on_c, 12, 79, 0
16, 47878, Note_on_c, 12, 70, 0
16, 47880, Note_on_c, 12, 77, 100
16, 47939, Note_on_c, 12, 77, 0
16, 47940, Note_on_c, 12, 74, 100
16, 47999, Note_on_c, 12, 74, 0
16, 48000, Note_on_c, 12, 72, 100
16, 48000, Note_on_c, 12, 63, 100
16, 48475, Note_on_c, 12, 63, 0
16, 48475, Note_on_c, 12, 72, 0
16, 48480, Note_on_c, 12, 82, 100
16, 48480, Note_on_c, 12, 74, 100
16, 48598, Note_on_c, 12, 74, 0
16, 48598, Note_on_c, 12, 82, 0
16, 48600, Note_on_c, 12, 72, 100
16, 48600, Note_on_c, 12, 81, 100
16, 48718, Note_on_c, 12, 81, 0
16, 48718, Note_on_c, 12, 72, 0
16, 48720, Note_on_c, 12, 70, 100
16, 48720, Note_on_c, 12, 79, 100
16, 48838, Note_on_c, 12, 79, 0
16, 48838, Note_on_c, 12, 70, 0
16, 48840, Note_on_c, 12, 77, 100
16, 48899, Note_on_c, 12, 77, 0
16, 48900, Note_on_c, 12, 65, 100
16, 48900, Note_on_c, 12, 74, 100
16, 49137, Note_on_c, 12, 74, 0
16, 49137, Note_on_c, 12, 65, 0
16, 49140, Note_on_c, 12, 77, 100
16, 49140, Note_on_c, 12, 84, 100
16, 49432, Note_on_c, 12, 77, 0
16, 49434, Note_on_c, 12, 84, 0
16, 49440, Note_on_c, 12, 82, 100
16, 49440, Note_on_c, 12, 74, 100
16, 49558, Note_on_c, 12, 74, 0
16, 49558, Note_on_c, 12, 82, 0
16, 49560, Note_on_c, 12, 72, 100
16, 49560, Note_on_c, 12, 81, 100
16, 49678, Note_on_c, 12, 81, 0
16, 49678, Note_on_c, 12, 72, 0
16, 49680, Note_on_c, 12, 70, 100
16, 49680, Note_on_c, 12, 79, 100
16, 49798, Note_on_c, 12, 79, 0
16, 49798, Note_on_c, 12, 70, 0
16, 49800, Note_on_c, 12, 77, 100
16, 49859, Note_on_c, 12, 77, 0
16, 49860, Note_on_c, 12, 74, 100
16, 49919, Note_on_c, 12, 74, 0
16, 49920, Note_on_c, 12, 72, 100
16, 49920, Note_on_c, 12, 63, 100
16, 50395, Note_on_c, 12, 63, 0
16, 50395, Note_on_c, 12, 72, 0
16, 50400, Note_on_c, 12, 82, 100
16, 50400, Note_on_c, 12, 74, 100
16, 50518, Note_on_c, 12, 74, 0
16, 50518, Note_on_c, 12, 82, 0
16, 50520, Note_on_c, 12, 72, 100
16, 50520, Note_on_c, 12, 81, 100
16, 50638, Note_on_c, 12, 81, 0
16, 50638, Note_on_c, 12, 72, 0
16, 50640, Note_on_c, 12, 70, 100
16, 50640, Note_on_c, 12, 79, 100
16, 50758, Note_on_c, 12, 79, 0
16, 50758, Note_on_c, 12, 70, 0
16, 50760, Note_on_c, 12, 77, 100
16, 50819, Note_on_c, 12, 77, 0
16, 50820, Note_on_c, 12, 65, 100
16, 50820, Note_on_c, 12, 74, 100
16, 51057, Note_on_c, 12, 74, 0
16, 51057, Note_on_c, 12, 65, 0
16, 51060, Note_on_c, 12, 77, 100
16, 51060, Note_on_c, 12, 84, 100
16, 51352, Note_on_c, 12, 77, 0
16, 51354, Note_on_c, 12, 84, 0
16, 51360, Note_on_c, 12, 82, 100
16, 51360, Note_on_c, 12, 74, 100
16, 51478, Note_on_c, 12, 74, 0
16, 51478, Note_on_c, 12, 82, 0
16, 51480, Note_on_c, 12, 72, 100
16, 51480, Note_on_c, 12, 81, 100
16, 51598, Note_on_c, 12, 81, 0
16, 51598, Note_on_c, 12, 72, 0
16, 51600, Note_on_c, 12, 70, 100
16, 51600, Note_on_c, 12, 79, 100
16, 51718, Note_on_c, 12, 79, 0
16, 51718, Note_on_c, 12, 70, 0
16, 51720, Note_on_c, 12, 77, 100
16, 51779, Note_on_c, 12, 77, 0
16, 51780, Note_on_c, 12, 74, 100
16, 51839, Note_on_c, 12, 74, 0
16, 51840, Note_on_c, 12, 72, 100
16, 51840, Note_on_c, 12, 63, 100
16, 52312, Control_c, 12, 11, 99
16, 52315, Note_on_c, 12, 63, 0
16, 52315, Note_on_c, 12, 72, 0
16, 52320, Note_on_c, 12, 82, 100
16, 52320, Note_on_c, 12, 74, 100
16, 52327, Control_c, 12, 11, 98
16, 52357, Control_c, 12, 11, 97
16, 52387, Control_c, 12, 11, 96
16, 52425, Control_c, 12, 11, 95
16, 52438, Note_on_c, 12, 74, 0
16, 52438, Note_on_c, 12, 82, 0
16, 52440, Note_on_c, 12, 72, 100
16, 52440, Note_on_c, 12, 81, 100
16, 52455, Control_c, 12, 11, 94
16, 52485, Control_c, 12, 11, 93
16, 52515, Control_c, 12, 11, 92
16, 52545, Control_c, 12, 11, 91
16, 52558, Note_on_c, 12, 81, 0
16, 52558, Note_on_c, 12, 72, 0
16, 52560, Note_on_c, 12, 70, 100
16, 52560, Note_on_c, 12, 79, 100
16, 52582, Control_c, 12, 11, 90
16, 52612, Control_c, 12, 11, 89
16, 52642, Control_c, 12, 11, 88
16, 52672, Control_c, 12, 11, 87
16, 52678, Note_on_c, 12, 79, 0
16, 52678, Note_on_c, 12, 70, 0
16, 52680, Note_on_c, 12, 77, 100
16, 52710, Control_c, 12, 11, 86
16, 52739, Note_on_c, 12, 77, 0
16, 52740, Note_on_c, 12, 65, 100
16, 52740, Note_on_c, 12, 74, 100
16, 52740, Control_c, 12, 11, 85
16, 52770, Control_c, 12, 11, 84
16, 52800, Control_c, 12, 11, 83
16, 52830, Control_c, 12, 11, 82
16, 52867, Control_c, 12, 11, 81
16, 52897, Control_c, 12, 11, 80
16, 52927, Control_c, 12, 11, 79
16, 52957, Control_c, 12, 11, 78
16, 52977, Note_on_c, 12, 74, 0
16, 52977, Note_on_c, 12, 65, 0
16, 52980, Note_on_c, 12, 77, 100
16, 52980, Note_on_c, 12, 84, 100
16, 52995, Control_c, 12, 11, 77
16, 53025, Control_c, 12, 11, 76
16, 53055, Control_c, 12, 11, 75
16, 53085, Control_c, 12, 11, 74
16, 53115, Control_c, 12, 11, 73
16, 53152, Control_c, 12, 11, 72
16, 53182, Control_c, 12, 11, 71
16, 53212, Control_c, 12, 11, 70
16, 53242, Control_c, 12, 11, 69
16, 53272, Note_on_c, 12, 77, 0
16, 53274, Note_on_c, 12, 84, 0
16, 53280, Note_on_c, 12, 82, 100
16, 53280, Note_on_c, 12, 74, 100
16, 53280, Control_c, 12, 11, 68
16, 53310, Control_c, 12, 11, 67
16, 53340, Control_c, 12, 11, 66
16, 53370, Control_c, 12, 11, 65
16, 53398, Note_on_c, 12, 74, 0
16, 53398, Note_on_c, 12, 82, 0
16, 53400, Note_on_c, 12, 72, 100
16, 53400, Note_on_c, 12, 81, 100
16, 53400, Control_c, 12, 11, 64
16, 53437, Control_c, 12, 11, 63
16, 53467, Control_c, 12, 11, 62
16, 53497, Control_c, 12, 11, 61
16, 53518, Note_on_c, 12, 81, 0
16, 53518, Note_on_c, 12, 72, 0
16, 53520, Note_on_c, 12, 70, 100
16, 53520, Note_on_c, 12, 79, 100
16, 53527, Control_c, 12, 11, 60
16, 53565, Control_c, 12, 11, 59
16, 53595, Control_c, 12, 11, 58
16, 53625, Control_c, 12, 11, 57
16, 53638, Note_on_c, 12, 79, 0
16, 53638, Note_on_c, 12, 70, 0
16, 53640, Note_on_c, 12, 77, 100
16, 53655, Control_c, 12, 11, 56
16, 53685, Control_c, 12, 11, 55
16, 53699, Note_on_c, 12, 77, 0
16, 53700, Note_on_c, 12, 74, 100
16, 53722, Control_c, 12, 11, 54
16, 53752, Control_c, 12, 11, 53
16, 53759, Note_on_c, 12, 74, 0
16, 53760, Note_on_c, 12, 72, 100
16, 53760, Note_on_c, 12, 63, 100
16, 53782, Control_c, 12, 11, 52
16, 53812, Control_c, 12, 11, 51
16, 53850, Control_c, 12, 11, 50
16, 53880, Control_c, 12, 11, 49
16, 53910, Control_c, 12, 11, 48
16, 53940, Control_c, 12, 11, 47
16, 53970, Control_c, 12, 11, 46
16, 54007, Control_c, 12, 11, 45
16, 54037, Control_c, 12, 11, 44
16, 54067, Control_c, 12, 11, 43
16, 54097, Control_c, 12, 11, 42
16, 54135, Control_c, 12, 11, 41
16, 54165, Control_c, 12, 11, 40
16, 54195, Control_c, 12, 11, 39
16, 54225, Control_c, 12, 11, 38
16, 54235, Note_on_c, 12, 63, 0
16, 54235, Note_on_c, 12, 72, 0
16, 54240, Note_on_c, 12, 82, 100
16, 54240, Note_on_c, 12, 74, 100
16, 54255, Control_c, 12, 11, 37
16, 54292, Control_c, 12, 11, 36
16, 54322, Control_c, 12, 11, 35
16, 54352, Control_c, 12, 11, 34
16, 54358, Note_on_c, 12, 74, 0
16, 54358, Note_on_c, 12, 82, 0
16, 54360, Note_on_c, 12, 72, 100
16, 54360, Note_on_c, 12, 81, 100
16, 54382, Control_c, 12, 11, 33
16, 54412, Control_c, 12, 11, 32
16, 54450, Control_c, 12, 11, 31
16, 54478, Note_on_c, 12, 81, 0
16, 54478, Note_on_c, 12, 72, 0
16, 54480, Note_on_c, 12, 70, 100
16, 54480, Note_on_c, 12, 79, 100
16, 54480, Control_c, 12, 11, 30
16, 54510, Control_c, 12, 11, 29
16, 54540, Control_c, 12, 11, 28
16, 54577, Control_c, 12, 11, 27
16, 54598, Note_on_c, 12, 79, 0
16, 54598, Note_on_c, 12, 70, 0
16, 54600, Note_on_c, 12, 77, 100
16, 54607, Control_c, 12, 11, 26
16, 54637, Control_c, 12, 11, 25
16, 54659, Note_on_c, 12, 77, 0
16, 54660, Note_on_c, 12, 65, 100
16, 54660, Note_on_c, 12, 74, 100
16, 54667, Control_c, 12, 11, 24
16, 54697, Control_c, 12, 11, 23
16, 54735, Control_c, 12, 11, 22
16, 54765, Control_c, 12, 11, 21
16, 54795, Control_c, 12, 11, 20
16, 54825, Control_c, 12, 11, 19
16, 54862, Control_c, 12, 11, 18
16, 54892, Control_c, 12, 11, 17
16, 54897, Note_on_c, 12, 74, 0
16, 54897, Note_on_c, 12, 65, 0
16, 54900, Note_on_c, 12, 77, 100
16, 54900, Note_on_c, 12, 84, 100
16, 54922, Control_c, 12, 11, 16
16, 54952, Control_c, 12, 11, 15
16, 54982, Control_c, 12, 11, 14
16, 55020, Control_c, 12, 11, 13
16, 55050, Control_c, 12, 11, 12
16, 55080, Control_c, 12, 11, 11
16, 55110, Control_c, 12, 11, 10
16, 55147, Control_c, 12, 11, 9
16, 55177, Control_c, 12, 11, 8
16, 55192, Note_on_c, 12, 77, 0
16, 55194, Note_on_c, 12, 84, 0
16, 55200, Note_on_c, 12, 82, 100
16, 55200, Note_on_c, 12, 74, 100
16, 55207, Control_c, 12, 11, 7
16, 55237, Control_c, 12, 11, 6
16, 55267, Control_c, 12, 11, 5
16, 55305, Control_c, 12, 11, 4
16, 55318, Note_on_c, 12, 74, 0
16, 55318, Note_on_c, 12, 82, 0
16, 55320, Note_on_c, 12, 72, 100
16, 55320, Note_on_c, 12, 81, 100
16, 55335, Control_c, 12, 11, 3
16, 55365, Control_c, 12, 11, 2
16, 55395, Control_c, 12, 11, 1
16, 55432, Control_c, 12, 11, 0
16, 55438, Note_on_c, 12, 81, 0
16, 55438, Note_on_c, 12, 72, 0
16, 55440, Note_on_c, 12, 70, 100
16, 55440, Note_on_c, 12, 79, 100
16, 55462, Control_c, 12, 11, 0
16, 55492, Control_c, 12, 11, 0
16, 55522, Control_c, 12, 11, 0
16, 55552, Control_c, 12, 11, 0
16, 55558, Note_on_c, 12, 79, 0
16, 55558, Note_on_c, 12, 70, 0
16, 55560, Note_on_c, 12, 77, 100
16, 55590, Control_c, 12, 11, 0
16, 55619, Note_on_c, 12, 77, 0
16, 55620, Note_on_c, 12, 74, 100
16, 55620, Control_c, 12, 11, 0
16, 55650, Control_c, 12, 11, 0
16, 55679, Note_on_c, 12, 74, 0
16, 55679, End_track
17, 0, Start_track
17, 0, MIDI_port, 0
17, 0, Title_t, "Cymbal"
17, 0, Program_c, 13, 119
17, 0, Control_c, 13, 7, 100
17, 0, Control_c, 13, 10, 64
17, 0, Control_c, 13, 121, 127
17, 0, Control_c, 13, 0, 0
17, 0, Control_c, 13, 32, 0
17, 0, Control_c, 13, 11, 127
17, 0, Control_c, 13, 91, 80
17, 0, Control_c, 13, 93, 0
17, 38520, Note_on_c, 13, 48, 100
17, 38880, Note_on_c, 13, 48, 0
17, 40440, Note_on_c, 13, 55, 115
17, 40781, Note_on_c, 13, 55, 0
17, 42357, Note_on_c, 13, 48, 115
17, 42638, Note_on_c, 13, 48, 0
17, 42638, End_track
0, 0, End_of_file
