0, 0, Header, 1, 13, 192
1, 0, Start_track
1, 0, Time_signature, 4, 2, 24, 8
1, 0, Tempo, 923076
1, 0, End_track
2, 0, Start_track
2, 0, Text_t, "ANYTHING"
2, 0, Tempo, 923076
2, 7, System_exclusive, 5, 126, 127, 9, 1, 247
2, 24, System_exclusive, 10, 65, 16, 66, 18, 64, 0, 127, 0, 65, 247
2, 68, System_exclusive, 10, 65, 16, 66, 18, 64, 1, 51, 80, 60, 247
2, 117, System_exclusive, 10, 65, 16, 66, 18, 64, 1, 52, 80, 59, 247
2, 154, System_exclusive, 25, 65, 16, 66, 18, 64, 1, 0, 32, 40, 99, 41, 32, 77, 73, 68, 73, 32, 83, 79, 78, 71, 83, 32, 94, 247
2, 1771, Text_t, "(c) 1996 MIDI SONGS"
2, 6480, Text_t, "Ed. Milano Publishing"
2, 6480, End_track
3, 0, Start_track
3, 0, Channel_prefix, 1
3, 0, Text_t, "Synbass2"
3, 204, Control_c, 1, 121, 0
3, 256, Control_c, 1, 7, 105
3, 257, Control_c, 1, 10, 64
3, 258, Control_c, 1, 11, 127
3, 259, Control_c, 1, 91, 0
3, 260, Control_c, 1, 93, 32
3, 261, Pitch_bend_c, 1, 8192
3, 311, Control_c, 1, 0, 0
3, 360, Program_c, 1, 39
3, 409, Control_c, 1, 99, 1
3, 458, Control_c, 1, 98, 33
3, 506, Control_c, 1, 6, 0
3, 603, Control_c, 1, 99, 1
3, 652, Control_c, 1, 98, 100
3, 701, Control_c, 1, 6, 57
3, 6912, Note_on_c, 1, 44, 100
3, 7008, Note_on_c, 1, 44, 0
3, 7056, Note_on_c, 1, 44, 100
3, 7124, Note_on_c, 1, 44, 0
3, 7154, Note_on_c, 1, 44, 99
3, 7193, Note_on_c, 1, 44, 0
3, 7198, Note_on_c, 1, 49, 96
3, 7563, Note_on_c, 1, 49, 0
3, 7631, Note_on_c, 1, 49, 99
3, 7670, Note_on_c, 1, 49, 0
3, 7681, Note_on_c, 1, 44, 96
3, 7774, Note_on_c, 1, 44, 0
3, 7824, Note_on_c, 1, 44, 97
3, 7889, Note_on_c, 1, 44, 0
3, 7921, Note_on_c, 1, 44, 99
3, 7956, Note_on_c, 1, 44, 0
3, 7968, Note_on_c, 1, 49, 94
3, 8353, Note_on_c, 1, 49, 0
3, 8400, Note_on_c, 1, 49, 99
3, 8445, Note_on_c, 1, 49, 0
3, 8447, Note_on_c, 1, 41, 100
3, 8543, Note_on_c, 1, 41, 0
3, 8591, Note_on_c, 1, 41, 100
3, 8659, Note_on_c, 1, 41, 0
3, 8688, Note_on_c, 1, 41, 99
3, 8727, Note_on_c, 1, 41, 0
3, 8737, Note_on_c, 1, 48, 96
3, 9102, Note_on_c, 1, 48, 0
3, 9170, Note_on_c, 1, 48, 99
3, 9209, Note_on_c, 1, 48, 0
3, 9214, Note_on_c, 1, 41, 96
3, 9307, Note_on_c, 1, 41, 0
3, 9362, Note_on_c, 1, 41, 97
3, 9427, Note_on_c, 1, 41, 0
3, 9456, Note_on_c, 1, 41, 99
3, 9491, Note_on_c, 1, 41, 0
3, 9506, Note_on_c, 1, 48, 94
3, 9891, Note_on_c, 1, 48, 0
3, 9936, Note_on_c, 1, 48, 99
3, 9981, Note_on_c, 1, 48, 0
3, 9986, Note_on_c, 1, 46, 84
3, 10062, Note_on_c, 1, 46, 0
3, 10127, Note_on_c, 1, 46, 88
3, 10218, Note_on_c, 1, 46, 0
3, 10272, Note_on_c, 1, 46, 85
3, 10365, Note_on_c, 1, 46, 0
3, 10370, Note_on_c, 1, 44, 88
3, 10438, Note_on_c, 1, 44, 0
3, 10512, Note_on_c, 1, 44, 88
3, 10610, Note_on_c, 1, 44, 0
3, 10655, Note_on_c, 1, 44, 87
3, 10747, Note_on_c, 1, 44, 0
3, 10753, Note_on_c, 1, 42, 89
3, 10861, Note_on_c, 1, 42, 0
3, 10898, Note_on_c, 1, 42, 88
3, 11019, Note_on_c, 1, 42, 0
3, 11040, Note_on_c, 1, 42, 88
3, 11076, Note_on_c, 1, 42, 0
3, 11088, Note_on_c, 1, 41, 87
3, 11133, Note_on_c, 1, 41, 0
3, 11136, Note_on_c, 1, 39, 88
3, 11186, Note_on_c, 1, 39, 0
3, 11330, Note_on_c, 1, 39, 92
3, 11468, Note_on_c, 1, 39, 0
3, 11474, Note_on_c, 1, 44, 88
3, 11516, Note_on_c, 1, 44, 0
3, 11518, Note_on_c, 1, 44, 89
3, 11798, Note_on_c, 1, 44, 0
3, 11810, Note_on_c, 1, 44, 88
3, 12267, Note_on_c, 1, 44, 0
3, 12288, Note_on_c, 1, 44, 89
3, 12568, Note_on_c, 1, 44, 0
3, 12576, Note_on_c, 1, 44, 88
3, 13047, Note_on_c, 1, 44, 0
3, 13058, Note_on_c, 1, 44, 89
3, 13338, Note_on_c, 1, 44, 0
3, 13344, Note_on_c, 1, 44, 88
3, 13811, Note_on_c, 1, 44, 0
3, 13822, Note_on_c, 1, 44, 89
3, 14102, Note_on_c, 1, 44, 0
3, 14114, Note_on_c, 1, 44, 88
3, 14590, Note_on_c, 1, 44, 0
3, 14592, Note_on_c, 1, 41, 89
3, 14872, Note_on_c, 1, 41, 0
3, 14880, Note_on_c, 1, 41, 88
3, 15337, Note_on_c, 1, 41, 0
3, 15362, Note_on_c, 1, 41, 89
3, 15642, Note_on_c, 1, 41, 0
3, 15648, Note_on_c, 1, 41, 88
3, 16105, Note_on_c, 1, 41, 0
3, 16127, Note_on_c, 1, 46, 89
3, 16700, Note_on_c, 1, 46, 0
3, 16706, Note_on_c, 1, 44, 89
3, 16894, Note_on_c, 1, 42, 88
3, 16894, Note_on_c, 1, 44, 0
3, 17275, Note_on_c, 1, 42, 0
3, 17281, Note_on_c, 1, 39, 88
3, 17661, Note_on_c, 1, 39, 0
3, 17665, Note_on_c, 1, 44, 89
3, 17945, Note_on_c, 1, 44, 0
3, 17953, Note_on_c, 1, 44, 88
3, 18410, Note_on_c, 1, 44, 0
3, 18430, Note_on_c, 1, 44, 89
3, 18710, Note_on_c, 1, 44, 0
3, 18721, Note_on_c, 1, 44, 88
3, 19192, Note_on_c, 1, 44, 0
3, 19198, Note_on_c, 1, 44, 89
3, 19478, Note_on_c, 1, 44, 0
3, 19488, Note_on_c, 1, 44, 88
3, 19955, Note_on_c, 1, 44, 0
3, 19967, Note_on_c, 1, 44, 89
3, 20247, Note_on_c, 1, 44, 0
3, 20258, Note_on_c, 1, 44, 88
3, 20734, Note_on_c, 1, 44, 0
3, 20736, Note_on_c, 1, 41, 89
3, 21016, Note_on_c, 1, 41, 0
3, 21025, Note_on_c, 1, 41, 88
3, 21482, Note_on_c, 1, 41, 0
3, 21505, Note_on_c, 1, 41, 89
3, 21567, Note_off_c, 15, 64, 64
3, 21785, Note_on_c, 1, 41, 0
3, 21792, Note_on_c, 1, 41, 88
3, 22249, Note_on_c, 1, 41, 0
3, 22273, Note_on_c, 1, 46, 89
3, 22532, Note_off_c, 15, 64, 69
3, 22654, Note_on_c, 1, 44, 89
3, 22654, Note_on_c, 1, 46, 0
3, 22732, Note_off_c, 15, 64, 77
3, 22927, Note_off_c, 15, 64, 80
3, 23034, Note_on_c, 1, 44, 0
3, 23040, Note_on_c, 1, 42, 88
3, 23421, Note_on_c, 1, 42, 0
3, 23422, Note_on_c, 1, 39, 88
3, 23802, Note_on_c, 1, 39, 0
3, 23806, Note_on_c, 1, 44, 100
3, 23902, Note_on_c, 1, 44, 0
3, 23950, Note_on_c, 1, 44, 100
3, 24018, Note_on_c, 1, 44, 0
3, 24047, Note_on_c, 1, 44, 99
3, 24086, Note_on_c, 1, 44, 0
3, 24096, Note_on_c, 1, 49, 96
3, 24461, Note_on_c, 1, 49, 0
3, 24527, Note_on_c, 1, 49, 99
3, 24566, Note_on_c, 1, 49, 0
3, 24577, Note_on_c, 1, 44, 96
3, 24670, Note_on_c, 1, 44, 0
3, 24719, Note_on_c, 1, 44, 97
3, 24784, Note_on_c, 1, 44, 0
3, 24818, Note_on_c, 1, 44, 99
3, 24853, Note_on_c, 1, 44, 0
3, 24866, Note_on_c, 1, 49, 94
3, 25251, Note_on_c, 1, 49, 0
3, 25295, Note_on_c, 1, 49, 99
3, 25340, Note_on_c, 1, 49, 0
3, 25344, Note_on_c, 1, 41, 100
3, 25440, Note_on_c, 1, 41, 0
3, 25488, Note_on_c, 1, 41, 100
3, 25556, Note_on_c, 1, 41, 0
3, 25585, Note_on_c, 1, 41, 99
3, 25624, Note_on_c, 1, 41, 0
3, 25634, Note_on_c, 1, 48, 96
3, 25999, Note_on_c, 1, 48, 0
3, 26065, Note_on_c, 1, 48, 99
3, 26104, Note_on_c, 1, 48, 0
3, 26111, Note_on_c, 1, 41, 96
3, 26204, Note_on_c, 1, 41, 0
3, 26257, Note_on_c, 1, 41, 97
3, 26322, Note_on_c, 1, 41, 0
3, 26354, Note_on_c, 1, 41, 99
3, 26389, Note_on_c, 1, 41, 0
3, 26398, Note_on_c, 1, 48, 94
3, 26783, Note_on_c, 1, 48, 0
3, 26833, Note_on_c, 1, 44, 99
3, 26878, Note_on_c, 1, 44, 0
3, 26878, Note_on_c, 1, 46, 84
3, 26954, Note_on_c, 1, 46, 0
3, 27026, Note_on_c, 1, 46, 88
3, 27117, Note_on_c, 1, 46, 0
3, 27167, Note_on_c, 1, 46, 85
3, 27260, Note_on_c, 1, 46, 0
3, 27650, Note_on_c, 1, 46, 84
3, 27726, Note_on_c, 1, 46, 0
3, 27794, Note_on_c, 1, 46, 88
3, 27885, Note_on_c, 1, 46, 0
3, 27934, Note_on_c, 1, 46, 85
3, 28027, Note_on_c, 1, 46, 0
3, 28418, Note_on_c, 1, 46, 84
3, 28494, Note_on_c, 1, 46, 0
3, 28558, Note_on_c, 1, 46, 88
3, 28649, Note_on_c, 1, 46, 0
3, 28706, Note_on_c, 1, 46, 85
3, 28798, Note_on_c, 1, 44, 88
3, 28799, Note_on_c, 1, 46, 0
3, 28866, Note_on_c, 1, 44, 0
3, 28944, Note_on_c, 1, 44, 88
3, 29042, Note_on_c, 1, 44, 0
3, 29090, Note_on_c, 1, 44, 87
3, 29182, Note_on_c, 1, 44, 0
3, 29184, Note_on_c, 1, 42, 89
3, 29292, Note_on_c, 1, 42, 0
3, 29328, Note_on_c, 1, 42, 88
3, 29449, Note_on_c, 1, 42, 0
3, 29474, Note_on_c, 1, 42, 88
3, 29510, Note_on_c, 1, 42, 0
3, 29519, Note_on_c, 1, 41, 87
3, 29564, Note_on_c, 1, 41, 0
3, 29566, Note_on_c, 1, 39, 88
3, 29616, Note_on_c, 1, 39, 0
3, 29759, Note_on_c, 1, 39, 92
3, 29897, Note_on_c, 1, 39, 0
3, 29902, Note_on_c, 1, 44, 88
3, 29947, Note_on_c, 1, 44, 0
3, 29951, Note_on_c, 1, 44, 89
3, 30231, Note_on_c, 1, 44, 0
3, 30242, Note_on_c, 1, 44, 88
3, 30699, Note_on_c, 1, 44, 0
3, 30718, Note_on_c, 1, 44, 89
3, 30998, Note_on_c, 1, 44, 0
3, 31010, Note_on_c, 1, 44, 88
3, 31481, Note_on_c, 1, 44, 0
3, 31490, Note_on_c, 1, 44, 89
3, 31770, Note_on_c, 1, 44, 0
3, 31776, Note_on_c, 1, 44, 88
3, 32243, Note_on_c, 1, 44, 0
3, 32256, Note_on_c, 1, 44, 89
3, 32536, Note_on_c, 1, 44, 0
3, 32545, Note_on_c, 1, 44, 88
3, 33021, Note_on_c, 1, 44, 0
3, 33025, Note_on_c, 1, 41, 89
3, 33305, Note_on_c, 1, 41, 0
3, 33314, Note_on_c, 1, 41, 88
3, 33771, Note_on_c, 1, 41, 0
3, 33794, Note_on_c, 1, 41, 89
3, 34074, Note_on_c, 1, 41, 0
3, 34080, Note_on_c, 1, 41, 88
3, 34537, Note_on_c, 1, 41, 0
3, 34562, Note_on_c, 1, 46, 89
3, 34943, Note_on_c, 1, 46, 0
3, 34945, Note_on_c, 1, 44, 89
3, 35325, Note_on_c, 1, 44, 0
3, 35326, Note_on_c, 1, 42, 88
3, 35707, Note_on_c, 1, 42, 0
3, 35714, Note_on_c, 1, 39, 88
3, 36094, Note_on_c, 1, 39, 0
3, 36095, Note_on_c, 1, 44, 100
3, 36191, Note_on_c, 1, 44, 0
3, 36239, Note_on_c, 1, 44, 100
3, 36307, Note_on_c, 1, 44, 0
3, 36335, Note_on_c, 1, 44, 99
3, 36374, Note_on_c, 1, 44, 0
3, 36383, Note_on_c, 1, 49, 96
3, 36748, Note_on_c, 1, 49, 0
3, 36815, Note_on_c, 1, 49, 99
3, 36854, Note_on_c, 1, 49, 0
3, 36864, Note_on_c, 1, 44, 96
3, 36957, Note_on_c, 1, 44, 0
3, 37009, Note_on_c, 1, 44, 97
3, 37074, Note_on_c, 1, 44, 0
3, 37105, Note_on_c, 1, 44, 99
3, 37140, Note_on_c, 1, 44, 0
3, 37153, Note_on_c, 1, 49, 94
3, 37538, Note_on_c, 1, 49, 0
3, 37585, Note_on_c, 1, 49, 99
3, 37630, Note_on_c, 1, 49, 0
3, 37631, Note_on_c, 1, 41, 100
3, 37727, Note_on_c, 1, 41, 0
3, 37774, Note_on_c, 1, 41, 100
3, 37842, Note_on_c, 1, 41, 0
3, 37873, Note_on_c, 1, 41, 99
3, 37912, Note_on_c, 1, 41, 0
3, 37919, Note_on_c, 1, 48, 96
3, 38284, Note_on_c, 1, 48, 0
3, 38350, Note_on_c, 1, 48, 99
3, 38389, Note_on_c, 1, 48, 0
3, 38399, Note_on_c, 1, 41, 96
3, 38492, Note_on_c, 1, 41, 0
3, 38542, Note_on_c, 1, 41, 97
3, 38607, Note_on_c, 1, 41, 0
3, 38640, Note_on_c, 1, 41, 99
3, 38675, Note_on_c, 1, 41, 0
3, 38689, Note_on_c, 1, 48, 94
3, 39074, Note_on_c, 1, 48, 0
3, 39122, Note_on_c, 1, 44, 99
3, 39167, Note_on_c, 1, 44, 0
3, 39167, Note_on_c, 1, 46, 84
3, 39243, Note_on_c, 1, 46, 0
3, 39311, Note_on_c, 1, 46, 88
3, 39402, Note_on_c, 1, 46, 0
3, 39458, Note_on_c, 1, 46, 85
3, 39551, Note_on_c, 1, 46, 0
3, 39936, Note_on_c, 1, 46, 84
3, 40012, Note_on_c, 1, 46, 0
3, 40081, Note_on_c, 1, 46, 88
3, 40172, Note_on_c, 1, 46, 0
3, 40223, Note_on_c, 1, 46, 85
3, 40316, Note_on_c, 1, 46, 0
3, 40706, Note_on_c, 1, 46, 84
3, 40782, Note_on_c, 1, 46, 0
3, 40849, Note_on_c, 1, 46, 88
3, 40940, Note_on_c, 1, 46, 0
3, 40990, Note_on_c, 1, 46, 85
3, 41083, Note_on_c, 1, 46, 0
3, 41089, Note_on_c, 1, 44, 88
3, 41157, Note_on_c, 1, 44, 0
3, 41232, Note_on_c, 1, 44, 88
3, 41330, Note_on_c, 1, 44, 0
3, 41377, Note_on_c, 1, 44, 87
3, 41469, Note_on_c, 1, 44, 0
3, 41470, Note_on_c, 1, 42, 89
3, 41578, Note_on_c, 1, 42, 0
3, 41614, Note_on_c, 1, 42, 88
3, 41735, Note_on_c, 1, 42, 0
3, 41762, Note_on_c, 1, 42, 88
3, 41798, Note_on_c, 1, 42, 0
3, 41808, Note_on_c, 1, 41, 87
3, 41853, Note_on_c, 1, 41, 0
3, 41854, Note_on_c, 1, 39, 88
3, 42039, Note_on_c, 1, 39, 0
3, 42048, Note_on_c, 1, 39, 92
3, 42138, Note_on_c, 1, 39, 0
3, 42144, Note_on_c, 1, 39, 87
3, 42189, Note_on_c, 1, 39, 0
3, 42194, Note_on_c, 1, 44, 88
3, 42239, Note_on_c, 1, 44, 0
3, 42242, Note_on_c, 1, 37, 88
3, 42858, Note_on_c, 1, 37, 0
3, 42865, Note_on_c, 1, 37, 88
3, 42910, Note_on_c, 1, 37, 0
3, 42914, Note_on_c, 1, 44, 88
3, 42959, Note_on_c, 1, 44, 0
3, 42960, Note_on_c, 1, 37, 88
3, 43005, Note_on_c, 1, 37, 0
3, 43008, Note_on_c, 1, 36, 88
3, 43667, Note_on_c, 1, 36, 0
3, 43727, Note_on_c, 1, 36, 86
3, 43772, Note_on_c, 1, 36, 0
3, 43775, Note_on_c, 1, 35, 88
3, 44098, Note_on_c, 1, 35, 0
3, 44112, Note_on_c, 1, 30, 88
3, 44157, Note_on_c, 1, 30, 0
3, 44159, Note_on_c, 1, 23, 88
3, 44396, Note_on_c, 1, 23, 0
3, 44398, Note_on_c, 1, 35, 88
3, 44443, Note_on_c, 1, 35, 0
3, 44446, Note_on_c, 1, 30, 78
3, 44491, Note_on_c, 1, 30, 0
3, 44494, Note_on_c, 1, 35, 88
3, 44539, Note_on_c, 1, 35, 0
3, 44545, Note_on_c, 1, 34, 88
3, 44676, Note_on_c, 1, 34, 0
3, 44690, Note_on_c, 1, 34, 79
3, 44735, Note_on_c, 1, 34, 0
3, 44737, Note_on_c, 1, 39, 88
3, 44820, Note_on_c, 1, 39, 0
3, 45310, Note_on_c, 1, 44, 100
3, 45406, Note_on_c, 1, 44, 0
3, 45455, Note_on_c, 1, 44, 100
3, 45523, Note_on_c, 1, 44, 0
3, 45551, Note_on_c, 1, 44, 99
3, 45590, Note_on_c, 1, 44, 0
3, 45600, Note_on_c, 1, 49, 96
3, 45965, Note_on_c, 1, 49, 0
3, 46032, Note_on_c, 1, 49, 99
3, 46071, Note_on_c, 1, 49, 0
3, 46080, Note_on_c, 1, 44, 96
3, 46173, Note_on_c, 1, 44, 0
3, 46225, Note_on_c, 1, 44, 97
3, 46290, Note_on_c, 1, 44, 0
3, 46321, Note_on_c, 1, 44, 99
3, 46356, Note_on_c, 1, 44, 0
3, 46367, Note_on_c, 1, 49, 94
3, 46752, Note_on_c, 1, 49, 0
3, 46799, Note_on_c, 1, 49, 99
3, 46844, Note_on_c, 1, 49, 0
3, 46847, Note_on_c, 1, 41, 100
3, 46943, Note_on_c, 1, 41, 0
3, 46994, Note_on_c, 1, 41, 100
3, 47062, Note_on_c, 1, 41, 0
3, 47087, Note_on_c, 1, 41, 99
3, 47126, Note_on_c, 1, 41, 0
3, 47136, Note_on_c, 1, 48, 96
3, 47501, Note_on_c, 1, 48, 0
3, 47566, Note_on_c, 1, 48, 99
3, 47605, Note_on_c, 1, 48, 0
3, 47618, Note_on_c, 1, 41, 96
3, 47711, Note_on_c, 1, 41, 0
3, 47760, Note_on_c, 1, 41, 97
3, 47825, Note_on_c, 1, 41, 0
3, 47857, Note_on_c, 1, 41, 99
3, 47892, Note_on_c, 1, 41, 0
3, 47905, Note_on_c, 1, 48, 94
3, 48290, Note_on_c, 1, 48, 0
3, 48338, Note_on_c, 1, 44, 99
3, 48383, Note_on_c, 1, 44, 0
3, 48386, Note_on_c, 1, 46, 84
3, 48462, Note_on_c, 1, 46, 0
3, 48526, Note_on_c, 1, 46, 88
3, 48617, Note_on_c, 1, 46, 0
3, 48670, Note_on_c, 1, 46, 85
3, 48763, Note_on_c, 1, 46, 0
3, 49152, Note_on_c, 1, 46, 84
3, 49228, Note_on_c, 1, 46, 0
3, 49296, Note_on_c, 1, 46, 88
3, 49387, Note_on_c, 1, 46, 0
3, 49442, Note_on_c, 1, 46, 85
3, 49535, Note_on_c, 1, 46, 0
3, 49922, Note_on_c, 1, 46, 84
3, 49998, Note_on_c, 1, 46, 0
3, 50066, Note_on_c, 1, 46, 88
3, 50157, Note_on_c, 1, 46, 0
3, 50206, Note_on_c, 1, 46, 85
3, 50299, Note_on_c, 1, 46, 0
3, 50303, Note_on_c, 1, 44, 88
3, 50371, Note_on_c, 1, 44, 0
3, 50446, Note_on_c, 1, 44, 88
3, 50544, Note_on_c, 1, 44, 0
3, 50590, Note_on_c, 1, 44, 87
3, 50682, Note_on_c, 1, 44, 0
3, 50686, Note_on_c, 1, 42, 89
3, 50794, Note_on_c, 1, 42, 0
3, 50831, Note_on_c, 1, 42, 88
3, 50952, Note_on_c, 1, 42, 0
3, 50977, Note_on_c, 1, 42, 88
3, 51013, Note_on_c, 1, 42, 0
3, 51022, Note_on_c, 1, 41, 87
3, 51067, Note_on_c, 1, 41, 0
3, 51072, Note_on_c, 1, 39, 88
3, 51257, Note_on_c, 1, 39, 0
3, 51265, Note_on_c, 1, 39, 92
3, 51355, Note_on_c, 1, 39, 0
3, 51360, Note_on_c, 1, 39, 87
3, 51405, Note_on_c, 1, 39, 0
3, 51410, Note_on_c, 1, 44, 88
3, 51454, Note_on_c, 1, 44, 0
3, 51456, Note_on_c, 1, 44, 100
3, 51552, Note_on_c, 1, 44, 0
3, 51601, Note_on_c, 1, 44, 100
3, 51669, Note_on_c, 1, 44, 0
3, 51695, Note_on_c, 1, 44, 99
3, 51734, Note_on_c, 1, 44, 0
3, 51743, Note_on_c, 1, 49, 96
3, 52108, Note_on_c, 1, 49, 0
3, 52175, Note_on_c, 1, 49, 99
3, 52214, Note_on_c, 1, 49, 0
3, 52223, Note_on_c, 1, 44, 96
3, 52316, Note_on_c, 1, 44, 0
3, 52367, Note_on_c, 1, 44, 97
3, 52432, Note_on_c, 1, 44, 0
3, 52462, Note_on_c, 1, 44, 99
3, 52497, Note_on_c, 1, 44, 0
3, 52511, Note_on_c, 1, 49, 94
3, 52896, Note_on_c, 1, 49, 0
3, 52942, Note_on_c, 1, 49, 99
3, 52987, Note_on_c, 1, 49, 0
3, 52990, Note_on_c, 1, 41, 100
3, 53086, Note_on_c, 1, 41, 0
3, 53137, Note_on_c, 1, 41, 100
3, 53205, Note_on_c, 1, 41, 0
3, 53234, Note_on_c, 1, 41, 99
3, 53273, Note_on_c, 1, 41, 0
3, 53282, Note_on_c, 1, 48, 96
3, 53647, Note_on_c, 1, 48, 0
3, 53710, Note_on_c, 1, 48, 99
3, 53749, Note_on_c, 1, 48, 0
3, 53758, Note_on_c, 1, 41, 96
3, 53851, Note_on_c, 1, 41, 0
3, 53906, Note_on_c, 1, 41, 97
3, 53971, Note_on_c, 1, 41, 0
3, 54001, Note_on_c, 1, 41, 99
3, 54036, Note_on_c, 1, 41, 0
3, 54050, Note_on_c, 1, 48, 94
3, 54435, Note_on_c, 1, 48, 0
3, 54480, Note_on_c, 1, 44, 99
3, 54525, Note_on_c, 1, 44, 0
3, 54529, Note_on_c, 1, 46, 84
3, 54605, Note_on_c, 1, 46, 0
3, 54672, Note_on_c, 1, 46, 88
3, 54763, Note_on_c, 1, 46, 0
3, 54814, Note_on_c, 1, 46, 85
3, 54907, Note_on_c, 1, 46, 0
3, 55298, Note_on_c, 1, 46, 84
3, 55374, Note_on_c, 1, 46, 0
3, 55439, Note_on_c, 1, 46, 88
3, 55530, Note_on_c, 1, 46, 0
3, 55586, Note_on_c, 1, 46, 85
3, 55679, Note_on_c, 1, 46, 0
3, 56062, Note_on_c, 1, 46, 84
3, 56138, Note_on_c, 1, 46, 0
3, 56207, Note_on_c, 1, 46, 88
3, 56298, Note_on_c, 1, 46, 0
3, 56353, Note_on_c, 1, 46, 85
3, 56446, Note_on_c, 1, 46, 0
3, 56450, Note_on_c, 1, 44, 88
3, 56518, Note_on_c, 1, 44, 0
3, 56592, Note_on_c, 1, 44, 88
3, 56690, Note_on_c, 1, 44, 0
3, 56737, Note_on_c, 1, 44, 87
3, 56829, Note_on_c, 1, 44, 0
3, 56834, Note_on_c, 1, 42, 89
3, 56942, Note_on_c, 1, 42, 0
3, 56975, Note_on_c, 1, 42, 88
3, 57096, Note_on_c, 1, 42, 0
3, 57118, Note_on_c, 1, 42, 88
3, 57154, Note_on_c, 1, 42, 0
3, 57167, Note_on_c, 1, 41, 87
3, 57212, Note_on_c, 1, 41, 0
3, 57214, Note_on_c, 1, 39, 88
3, 57399, Note_on_c, 1, 39, 0
3, 57408, Note_on_c, 1, 39, 92
3, 57498, Note_on_c, 1, 39, 0
3, 57505, Note_on_c, 1, 39, 87
3, 57550, Note_on_c, 1, 39, 0
3, 57554, Note_on_c, 1, 44, 88
3, 57596, Note_on_c, 1, 44, 0
3, 57598, Note_on_c, 1, 44, 100
3, 57694, Note_on_c, 1, 44, 0
3, 57746, Note_on_c, 1, 44, 100
3, 57814, Note_on_c, 1, 44, 0
3, 57842, Note_on_c, 1, 44, 99
3, 57881, Note_on_c, 1, 44, 0
3, 57888, Note_on_c, 1, 49, 96
3, 58253, Note_on_c, 1, 49, 0
3, 58318, Note_on_c, 1, 49, 99
3, 58357, Note_on_c, 1, 49, 0
3, 58366, Note_on_c, 1, 44, 96
3, 58459, Note_on_c, 1, 44, 0
3, 58511, Note_on_c, 1, 44, 97
3, 58576, Note_on_c, 1, 44, 0
3, 58607, Note_on_c, 1, 44, 99
3, 58642, Note_on_c, 1, 44, 0
3, 58655, Note_on_c, 1, 49, 94
3, 59040, Note_on_c, 1, 49, 0
3, 59089, Note_on_c, 1, 49, 99
3, 59134, Note_on_c, 1, 49, 0
3, 59136, Note_on_c, 1, 41, 100
3, 59232, Note_on_c, 1, 41, 0
3, 59280, Note_on_c, 1, 41, 100
3, 59348, Note_on_c, 1, 41, 0
3, 59376, Note_on_c, 1, 41, 99
3, 59415, Note_on_c, 1, 41, 0
3, 59426, Note_on_c, 1, 48, 96
3, 59791, Note_on_c, 1, 48, 0
3, 59855, Note_on_c, 1, 48, 99
3, 59894, Note_on_c, 1, 48, 0
3, 59903, Note_on_c, 1, 41, 96
3, 59996, Note_on_c, 1, 41, 0
3, 60046, Note_on_c, 1, 41, 97
3, 60111, Note_on_c, 1, 41, 0
3, 60146, Note_on_c, 1, 41, 99
3, 60181, Note_on_c, 1, 41, 0
3, 60193, Note_on_c, 1, 48, 94
3, 60578, Note_on_c, 1, 48, 0
3, 60623, Note_on_c, 1, 44, 99
3, 60668, Note_on_c, 1, 44, 0
3, 60671, Note_on_c, 1, 46, 84
3, 60747, Note_on_c, 1, 46, 0
3, 60814, Note_on_c, 1, 46, 88
3, 60905, Note_on_c, 1, 46, 0
3, 60958, Note_on_c, 1, 46, 85
3, 61051, Note_on_c, 1, 46, 0
3, 61441, Note_on_c, 1, 46, 84
3, 61517, Note_on_c, 1, 46, 0
3, 61583, Note_on_c, 1, 46, 88
3, 61674, Note_on_c, 1, 46, 0
3, 61726, Note_on_c, 1, 46, 85
3, 61819, Note_on_c, 1, 46, 0
3, 62206, Note_on_c, 1, 46, 84
3, 62282, Note_on_c, 1, 46, 0
3, 62350, Note_on_c, 1, 46, 88
3, 62441, Note_on_c, 1, 46, 0
3, 62496, Note_on_c, 1, 46, 85
3, 62589, Note_on_c, 1, 46, 0
3, 62590, Note_on_c, 1, 44, 88
3, 62658, Note_on_c, 1, 44, 0
3, 62735, Note_on_c, 1, 44, 88
3, 62833, Note_on_c, 1, 44, 0
3, 62881, Note_on_c, 1, 44, 87
3, 62973, Note_on_c, 1, 44, 0
3, 62975, Note_on_c, 1, 42, 89
3, 63083, Note_on_c, 1, 42, 0
3, 63118, Note_on_c, 1, 42, 88
3, 63239, Note_on_c, 1, 42, 0
3, 63263, Note_on_c, 1, 42, 88
3, 63299, Note_on_c, 1, 42, 0
3, 63310, Note_on_c, 1, 41, 87
3, 63355, Note_on_c, 1, 41, 0
3, 63360, Note_on_c, 1, 39, 88
3, 63545, Note_on_c, 1, 39, 0
3, 63553, Note_on_c, 1, 39, 92
3, 63643, Note_on_c, 1, 39, 0
3, 63650, Note_on_c, 1, 39, 87
3, 63695, Note_on_c, 1, 39, 0
3, 63698, Note_on_c, 1, 44, 88
3, 63742, Note_on_c, 1, 44, 0
3, 63744, Note_on_c, 1, 44, 100
3, 63840, Note_on_c, 1, 44, 0
3, 63890, Note_on_c, 1, 44, 100
3, 63958, Note_on_c, 1, 44, 0
3, 63985, Note_on_c, 1, 44, 99
3, 64024, Note_on_c, 1, 44, 0
3, 64030, Note_on_c, 1, 49, 96
3, 64163, Control_c, 1, 7, 93
3, 64391, Control_c, 1, 7, 89
3, 64395, Note_on_c, 1, 49, 0
3, 64435, Control_c, 1, 7, 85
3, 64463, Note_on_c, 1, 49, 99
3, 64502, Note_on_c, 1, 49, 0
3, 64514, Note_on_c, 1, 44, 96
3, 64607, Note_on_c, 1, 44, 0
3, 64618, Control_c, 1, 7, 80
3, 64657, Note_on_c, 1, 44, 97
3, 64722, Note_on_c, 1, 44, 0
3, 64754, Note_on_c, 1, 44, 99
3, 64789, Note_on_c, 1, 44, 0
3, 64795, Control_c, 1, 7, 75
3, 64799, Note_on_c, 1, 49, 94
3, 65097, Control_c, 1, 7, 71
3, 65184, Note_on_c, 1, 49, 0
3, 65231, Note_on_c, 1, 49, 99
3, 65250, Control_c, 1, 7, 65
3, 65276, Note_on_c, 1, 49, 0
3, 65279, Note_on_c, 1, 41, 100
3, 65375, Note_on_c, 1, 41, 0
3, 65425, Note_on_c, 1, 41, 100
3, 65493, Note_on_c, 1, 41, 0
3, 65519, Note_on_c, 1, 41, 99
3, 65558, Note_on_c, 1, 41, 0
3, 65570, Note_on_c, 1, 48, 96
3, 65586, Control_c, 1, 7, 59
3, 65691, Control_c, 1, 7, 54
3, 65868, Control_c, 1, 7, 50
3, 65935, Note_on_c, 1, 48, 0
3, 65998, Note_on_c, 1, 48, 99
3, 66037, Note_on_c, 1, 48, 0
3, 66046, Note_on_c, 1, 41, 96
3, 66109, Control_c, 1, 7, 46
3, 66139, Note_on_c, 1, 41, 0
3, 66190, Note_on_c, 1, 41, 97
3, 66255, Note_on_c, 1, 41, 0
3, 66286, Note_on_c, 1, 41, 99
3, 66321, Note_on_c, 1, 41, 0
3, 66335, Note_on_c, 1, 48, 94
3, 66374, Control_c, 1, 7, 40
3, 66675, Control_c, 1, 7, 32
3, 66720, Note_on_c, 1, 48, 0
3, 66768, Note_on_c, 1, 44, 99
3, 66813, Note_on_c, 1, 44, 0
3, 66815, Note_on_c, 1, 46, 84
3, 66891, Note_on_c, 1, 46, 0
3, 66961, Note_on_c, 1, 46, 88
3, 66963, Control_c, 1, 7, 28
3, 67052, Note_on_c, 1, 46, 0
3, 67102, Note_on_c, 1, 46, 85
3, 67195, Note_on_c, 1, 46, 0
3, 67555, Control_c, 1, 7, 12
3, 67584, Note_on_c, 1, 46, 84
3, 67660, Note_on_c, 1, 46, 0
3, 67726, Note_on_c, 1, 46, 88
3, 67817, Note_on_c, 1, 46, 0
3, 67873, Note_on_c, 1, 46, 85
3, 67966, Note_on_c, 1, 46, 0
3, 68161, Control_c, 1, 120, 0
3, 68164, Control_c, 1, 123, 0
3, 68164, End_track
4, 0, Start_track
4, 0, Channel_prefix, 2
4, 0, Text_t, "Syn vox "
4, 218, Control_c, 2, 121, 0
4, 266, Control_c, 2, 7, 113
4, 267, Control_c, 2, 10, 58
4, 268, Control_c, 2, 11, 127
4, 269, Control_c, 2, 91, 64
4, 270, Control_c, 2, 93, 0
4, 271, Pitch_bend_c, 2, 8192
4, 313, Control_c, 2, 0, 0
4, 368, Program_c, 2, 54
4, 858, Note_on_c, 2, 75, 116
4, 859, Note_on_c, 2, 70, 120
4, 904, Note_on_c, 2, 75, 0
4, 905, Note_on_c, 2, 70, 0
4, 958, Note_on_c, 2, 70, 120
4, 961, Note_on_c, 2, 75, 116
4, 1051, Note_on_c, 2, 70, 0
4, 1054, Note_on_c, 2, 75, 0
4, 1057, Note_on_c, 2, 70, 116
4, 1058, Note_on_c, 2, 67, 120
4, 1146, Note_on_c, 2, 68, 118
4, 1146, Note_on_c, 2, 70, 0
4, 1146, Note_on_c, 2, 72, 114
4, 1147, Note_on_c, 2, 67, 0
4, 1272, Note_on_c, 2, 68, 0
4, 1272, Note_on_c, 2, 72, 0
4, 1625, Note_on_c, 2, 70, 116
4, 1629, Note_on_c, 2, 67, 120
4, 1671, Note_on_c, 2, 70, 0
4, 1675, Note_on_c, 2, 67, 0
4, 1727, Note_on_c, 2, 67, 120
4, 1727, Note_on_c, 2, 70, 116
4, 1820, Note_on_c, 2, 67, 0
4, 1820, Note_on_c, 2, 70, 0
4, 1824, Note_on_c, 2, 70, 116
4, 1825, Note_on_c, 2, 67, 120
4, 1913, Note_on_c, 2, 70, 0
4, 1914, Note_on_c, 2, 67, 0
4, 1914, Note_on_c, 2, 72, 114
4, 1915, Note_on_c, 2, 68, 118
4, 2040, Note_on_c, 2, 72, 0
4, 2041, Note_on_c, 2, 68, 0
4, 2302, Note_on_c, 2, 70, 116
4, 2306, Note_on_c, 2, 75, 116
4, 2485, Note_on_c, 2, 70, 0
4, 2489, Note_on_c, 2, 75, 0
4, 2499, Note_on_c, 2, 70, 110
4, 2502, Note_on_c, 2, 75, 110
4, 2589, Note_on_c, 2, 70, 0
4, 2591, Note_on_c, 2, 68, 114
4, 2592, Note_on_c, 2, 75, 0
4, 2595, Note_on_c, 2, 72, 114
4, 2872, Note_on_c, 2, 68, 0
4, 2876, Note_on_c, 2, 72, 0
4, 2878, Note_on_c, 2, 68, 112
4, 2881, Note_on_c, 2, 72, 112
4, 3067, Note_on_c, 2, 68, 0
4, 3070, Note_on_c, 2, 72, 0
4, 3071, Note_on_c, 2, 67, 116
4, 3071, Note_on_c, 2, 70, 116
4, 3254, Note_on_c, 2, 67, 0
4, 3254, Note_on_c, 2, 70, 0
4, 3263, Note_on_c, 2, 67, 116
4, 3265, Note_on_c, 2, 70, 116
4, 3356, Note_on_c, 2, 67, 0
4, 3358, Note_on_c, 2, 70, 0
4, 3358, Note_on_c, 2, 72, 116
4, 3360, Note_on_c, 2, 68, 105
4, 3361, Note_on_c, 2, 65, 104
4, 3589, Note_on_c, 2, 72, 0
4, 3591, Note_on_c, 2, 68, 0
4, 3592, Note_on_c, 2, 65, 0
4, 3648, Note_on_c, 2, 65, 118
4, 3648, Note_on_c, 2, 68, 118
4, 3648, Note_on_c, 2, 72, 118
4, 3693, Note_on_c, 2, 65, 0
4, 3693, Note_on_c, 2, 68, 0
4, 3693, Note_on_c, 2, 72, 0
4, 3695, Note_on_c, 2, 68, 113
4, 3696, Note_on_c, 2, 65, 118
4, 3696, Note_on_c, 2, 72, 113
4, 3740, Note_on_c, 2, 68, 0
4, 3741, Note_on_c, 2, 65, 0
4, 3741, Note_on_c, 2, 72, 0
4, 3742, Note_on_c, 2, 68, 117
4, 3744, Note_on_c, 2, 65, 118
4, 3746, Note_on_c, 2, 72, 117
4, 3835, Note_on_c, 2, 68, 0
4, 3837, Note_on_c, 2, 65, 0
4, 3839, Note_on_c, 2, 72, 0
4, 3840, Note_on_c, 2, 73, 117
4, 3841, Note_on_c, 2, 65, 117
4, 3842, Note_on_c, 2, 68, 117
4, 3933, Note_on_c, 2, 73, 0
4, 3934, Note_on_c, 2, 65, 0
4, 3935, Note_on_c, 2, 68, 0
4, 3936, Note_on_c, 2, 65, 113
4, 3937, Note_on_c, 2, 68, 113
4, 3938, Note_on_c, 2, 73, 113
4, 3981, Note_on_c, 2, 65, 0
4, 3981, Note_on_c, 2, 73, 0
4, 3982, Note_on_c, 2, 68, 0
4, 3983, Note_on_c, 2, 73, 114
4, 3985, Note_on_c, 2, 65, 114
4, 3985, Note_on_c, 2, 68, 114
4, 4124, Note_on_c, 2, 73, 0
4, 4126, Note_on_c, 2, 65, 0
4, 4126, Note_on_c, 2, 68, 0
4, 4128, Note_on_c, 2, 65, 113
4, 4128, Note_on_c, 2, 73, 113
4, 4129, Note_on_c, 2, 68, 113
4, 4172, Note_on_c, 2, 73, 0
4, 4173, Note_on_c, 2, 65, 0
4, 4173, Note_on_c, 2, 68, 0
4, 4174, Note_on_c, 2, 73, 116
4, 4175, Note_on_c, 2, 68, 116
4, 4176, Note_on_c, 2, 65, 116
4, 4353, Note_on_c, 2, 73, 0
4, 4354, Note_on_c, 2, 68, 0
4, 4355, Note_on_c, 2, 65, 0
4, 4415, Note_on_c, 2, 68, 118
4, 4417, Note_on_c, 2, 65, 118
4, 4418, Note_on_c, 2, 72, 118
4, 4460, Note_on_c, 2, 68, 0
4, 4460, Note_on_c, 2, 72, 0
4, 4462, Note_on_c, 2, 65, 0
4, 4462, Note_on_c, 2, 72, 113
4, 4465, Note_on_c, 2, 65, 118
4, 4466, Note_on_c, 2, 68, 113
4, 4507, Note_on_c, 2, 72, 0
4, 4509, Note_on_c, 2, 68, 0
4, 4510, Note_on_c, 2, 65, 0
4, 4511, Note_on_c, 2, 68, 117
4, 4511, Note_on_c, 2, 72, 117
4, 4514, Note_on_c, 2, 65, 118
4, 4604, Note_on_c, 2, 68, 0
4, 4604, Note_on_c, 2, 72, 0
4, 4606, Note_on_c, 2, 65, 0
4, 4606, Note_on_c, 2, 73, 117
4, 4608, Note_on_c, 2, 65, 117
4, 4610, Note_on_c, 2, 68, 117
4, 4699, Note_on_c, 2, 73, 0
4, 4701, Note_on_c, 2, 65, 0
4, 4701, Note_on_c, 2, 68, 0
4, 4702, Note_on_c, 2, 73, 113
4, 4703, Note_on_c, 2, 68, 113
4, 4706, Note_on_c, 2, 65, 113
4, 4747, Note_on_c, 2, 73, 0
4, 4748, Note_on_c, 2, 68, 0
4, 4749, Note_on_c, 2, 65, 0
4, 4751, Note_on_c, 2, 65, 114
4, 4753, Note_on_c, 2, 68, 114
4, 4753, Note_on_c, 2, 73, 114
4, 4892, Note_on_c, 2, 65, 0
4, 4892, Note_on_c, 2, 68, 0
4, 4893, Note_on_c, 2, 73, 0
4, 4894, Note_on_c, 2, 68, 113
4, 4895, Note_on_c, 2, 65, 113
4, 4895, Note_on_c, 2, 73, 113
4, 4939, Note_on_c, 2, 68, 0
4, 4940, Note_on_c, 2, 65, 0
4, 4940, Note_on_c, 2, 73, 0
4, 4942, Note_on_c, 2, 68, 116
4, 4943, Note_on_c, 2, 73, 116
4, 4946, Note_on_c, 2, 65, 116
4, 5121, Note_on_c, 2, 68, 0
4, 5122, Note_on_c, 2, 73, 0
4, 5125, Note_on_c, 2, 65, 0
4, 5185, Note_on_c, 2, 68, 118
4, 5185, Note_on_c, 2, 72, 118
4, 5186, Note_on_c, 2, 65, 118
4, 5244, Note_on_c, 2, 65, 0
4, 5246, Note_on_c, 2, 65, 118
4, 5246, Note_on_c, 2, 68, 0
4, 5246, Note_on_c, 2, 72, 0
4, 5249, Note_on_c, 2, 68, 118
4, 5249, Note_on_c, 2, 72, 117
4, 5307, Note_on_c, 2, 65, 0
4, 5309, Note_on_c, 2, 72, 0
4, 5310, Note_on_c, 2, 68, 0
4, 5311, Note_on_c, 2, 65, 118
4, 5311, Note_on_c, 2, 72, 117
4, 5313, Note_on_c, 2, 68, 117
4, 5372, Note_on_c, 2, 65, 0
4, 5372, Note_on_c, 2, 72, 0
4, 5374, Note_on_c, 2, 68, 0
4, 5375, Note_on_c, 2, 73, 117
4, 5376, Note_on_c, 2, 68, 117
4, 5377, Note_on_c, 2, 65, 117
4, 5468, Note_on_c, 2, 68, 0
4, 5468, Note_on_c, 2, 73, 0
4, 5470, Note_on_c, 2, 65, 0
4, 5470, Note_on_c, 2, 68, 113
4, 5473, Note_on_c, 2, 65, 113
4, 5473, Note_on_c, 2, 73, 113
4, 5515, Note_on_c, 2, 68, 0
4, 5518, Note_on_c, 2, 65, 0
4, 5518, Note_on_c, 2, 73, 0
4, 5519, Note_on_c, 2, 68, 114
4, 5522, Note_on_c, 2, 65, 114
4, 5522, Note_on_c, 2, 73, 114
4, 5660, Note_on_c, 2, 68, 0
4, 5662, Note_on_c, 2, 65, 0
4, 5663, Note_on_c, 2, 73, 0
4, 5664, Note_on_c, 2, 65, 113
4, 5666, Note_on_c, 2, 68, 113
4, 5666, Note_on_c, 2, 73, 113
4, 5757, Note_on_c, 2, 65, 0
4, 5759, Note_on_c, 2, 63, 117
4, 5759, Note_on_c, 2, 68, 0
4, 5759, Note_on_c, 2, 72, 117
4, 5759, Note_on_c, 2, 73, 0
4, 5762, Note_on_c, 2, 68, 117
4, 5852, Note_on_c, 2, 63, 0
4, 5852, Note_on_c, 2, 72, 0
4, 5854, Note_on_c, 2, 68, 0
4, 5854, Note_on_c, 2, 72, 113
4, 5856, Note_on_c, 2, 68, 113
4, 5858, Note_on_c, 2, 63, 113
4, 5899, Note_on_c, 2, 72, 0
4, 5901, Note_on_c, 2, 68, 0
4, 5903, Note_on_c, 2, 63, 0
4, 5904, Note_on_c, 2, 68, 114
4, 5904, Note_on_c, 2, 72, 114
4, 5905, Note_on_c, 2, 63, 114
4, 6045, Note_on_c, 2, 68, 0
4, 6045, Note_on_c, 2, 72, 0
4, 6046, Note_on_c, 2, 63, 0
4, 6048, Note_on_c, 2, 63, 113
4, 6048, Note_on_c, 2, 68, 113
4, 6049, Note_on_c, 2, 72, 113
4, 6189, Note_on_c, 2, 63, 0
4, 6189, Note_on_c, 2, 68, 0
4, 6190, Note_on_c, 2, 72, 0
4, 6192, Note_on_c, 2, 70, 109
4, 6193, Note_on_c, 2, 61, 111
4, 6194, Note_on_c, 2, 66, 111
4, 6477, Note_on_c, 2, 70, 0
4, 6478, Note_on_c, 2, 61, 0
4, 6479, Note_on_c, 2, 66, 0
4, 21855, Note_off_c, 15, 64, 64
4, 22724, Note_off_c, 15, 64, 69
4, 22924, Note_off_c, 15, 64, 77
4, 23119, Note_off_c, 15, 64, 80
4, 23899, Note_on_c, 2, 70, 120
4, 23900, Note_on_c, 2, 75, 116
4, 23945, Note_on_c, 2, 70, 0
4, 23946, Note_on_c, 2, 75, 0
4, 23998, Note_on_c, 2, 70, 120
4, 24000, Note_on_c, 2, 75, 116
4, 24091, Note_on_c, 2, 70, 0
4, 24093, Note_on_c, 2, 75, 0
4, 24096, Note_on_c, 2, 67, 120
4, 24098, Note_on_c, 2, 70, 116
4, 24185, Note_on_c, 2, 67, 0
4, 24186, Note_on_c, 2, 72, 114
4, 24187, Note_on_c, 2, 70, 0
4, 24188, Note_on_c, 2, 68, 118
4, 24312, Note_on_c, 2, 72, 0
4, 24314, Note_on_c, 2, 68, 0
4, 24668, Note_on_c, 2, 67, 120
4, 24669, Note_on_c, 2, 70, 116
4, 24714, Note_on_c, 2, 67, 0
4, 24715, Note_on_c, 2, 70, 0
4, 24768, Note_on_c, 2, 67, 120
4, 24769, Note_on_c, 2, 70, 116
4, 24860, Note_on_c, 2, 67, 0
4, 24862, Note_on_c, 2, 67, 120
4, 24862, Note_on_c, 2, 70, 0
4, 24866, Note_on_c, 2, 70, 116
4, 24951, Note_on_c, 2, 67, 0
4, 24955, Note_on_c, 2, 68, 118
4, 24955, Note_on_c, 2, 70, 0
4, 24955, Note_on_c, 2, 72, 114
4, 25081, Note_on_c, 2, 68, 0
4, 25081, Note_on_c, 2, 72, 0
4, 25344, Note_on_c, 2, 70, 116
4, 25345, Note_on_c, 2, 75, 116
4, 25527, Note_on_c, 2, 70, 0
4, 25528, Note_on_c, 2, 75, 0
4, 25538, Note_on_c, 2, 70, 110
4, 25538, Note_on_c, 2, 75, 110
4, 25628, Note_on_c, 2, 70, 0
4, 25628, Note_on_c, 2, 75, 0
4, 25631, Note_on_c, 2, 72, 114
4, 25635, Note_on_c, 2, 68, 114
4, 25912, Note_on_c, 2, 72, 0
4, 25916, Note_on_c, 2, 68, 0
4, 25920, Note_on_c, 2, 68, 112
4, 25920, Note_on_c, 2, 72, 112
4, 26109, Note_on_c, 2, 68, 0
4, 26109, Note_on_c, 2, 72, 0
4, 26112, Note_on_c, 2, 70, 116
4, 26114, Note_on_c, 2, 67, 116
4, 26295, Note_on_c, 2, 70, 0
4, 26297, Note_on_c, 2, 67, 0
4, 26304, Note_on_c, 2, 67, 116
4, 26304, Note_on_c, 2, 70, 116
4, 26397, Note_on_c, 2, 67, 0
4, 26397, Note_on_c, 2, 70, 0
4, 26398, Note_on_c, 2, 65, 104
4, 26398, Note_on_c, 2, 68, 105
4, 26402, Note_on_c, 2, 72, 116
4, 26629, Note_on_c, 2, 65, 0
4, 26629, Note_on_c, 2, 68, 0
4, 26633, Note_on_c, 2, 72, 0
4, 26686, Note_on_c, 2, 68, 118
4, 26687, Note_on_c, 2, 65, 118
4, 26690, Note_on_c, 2, 72, 118
4, 26731, Note_on_c, 2, 68, 0
4, 26732, Note_on_c, 2, 65, 0
4, 26732, Note_on_c, 2, 72, 0
4, 26734, Note_on_c, 2, 72, 113
4, 26735, Note_on_c, 2, 65, 118
4, 26735, Note_on_c, 2, 68, 113
4, 26779, Note_on_c, 2, 72, 0
4, 26780, Note_on_c, 2, 65, 0
4, 26780, Note_on_c, 2, 68, 0
4, 26784, Note_on_c, 2, 68, 117
4, 26784, Note_on_c, 2, 72, 117
4, 26786, Note_on_c, 2, 65, 118
4, 26876, Note_on_c, 2, 65, 0
4, 26876, Note_on_c, 2, 68, 0
4, 26877, Note_on_c, 2, 72, 0
4, 26878, Note_on_c, 2, 65, 117
4, 26878, Note_on_c, 2, 68, 117
4, 26881, Note_on_c, 2, 73, 117
4, 26971, Note_on_c, 2, 65, 0
4, 26971, Note_on_c, 2, 68, 0
4, 26974, Note_on_c, 2, 68, 113
4, 26974, Note_on_c, 2, 73, 0
4, 26975, Note_on_c, 2, 65, 113
4, 26976, Note_on_c, 2, 73, 113
4, 27019, Note_on_c, 2, 68, 0
4, 27020, Note_on_c, 2, 65, 0
4, 27021, Note_on_c, 2, 73, 0
4, 27022, Note_on_c, 2, 68, 114
4, 27025, Note_on_c, 2, 65, 114
4, 27025, Note_on_c, 2, 73, 114
4, 27163, Note_on_c, 2, 68, 0
4, 27166, Note_on_c, 2, 65, 0
4, 27166, Note_on_c, 2, 73, 0
4, 27168, Note_on_c, 2, 68, 113
4, 27170, Note_on_c, 2, 65, 113
4, 27170, Note_on_c, 2, 73, 113
4, 27212, Note_on_c, 2, 73, 0
4, 27213, Note_on_c, 2, 68, 0
4, 27214, Note_on_c, 2, 73, 116
4, 27215, Note_on_c, 2, 65, 0
4, 27217, Note_on_c, 2, 68, 116
4, 27218, Note_on_c, 2, 65, 116
4, 27393, Note_on_c, 2, 73, 0
4, 27396, Note_on_c, 2, 68, 0
4, 27397, Note_on_c, 2, 65, 0
4, 27455, Note_on_c, 2, 72, 118
4, 27457, Note_on_c, 2, 65, 118
4, 27457, Note_on_c, 2, 68, 118
4, 27500, Note_on_c, 2, 72, 0
4, 27502, Note_on_c, 2, 65, 0
4, 27502, Note_on_c, 2, 68, 0
4, 27504, Note_on_c, 2, 68, 113
4, 27505, Note_on_c, 2, 65, 118
4, 27506, Note_on_c, 2, 72, 113
4, 27549, Note_on_c, 2, 68, 0
4, 27549, Note_on_c, 2, 72, 0
4, 27550, Note_on_c, 2, 65, 0
4, 27551, Note_on_c, 2, 72, 117
4, 27552, Note_on_c, 2, 65, 118
4, 27553, Note_on_c, 2, 68, 117
4, 27644, Note_on_c, 2, 65, 0
4, 27644, Note_on_c, 2, 72, 0
4, 27645, Note_on_c, 2, 68, 0
4, 27646, Note_on_c, 2, 65, 117
4, 27646, Note_on_c, 2, 73, 117
4, 27647, Note_on_c, 2, 68, 117
4, 27739, Note_on_c, 2, 65, 0
4, 27739, Note_on_c, 2, 73, 0
4, 27740, Note_on_c, 2, 68, 0
4, 27742, Note_on_c, 2, 73, 113
4, 27743, Note_on_c, 2, 68, 113
4, 27745, Note_on_c, 2, 65, 113
4, 27787, Note_on_c, 2, 73, 0
4, 27788, Note_on_c, 2, 68, 0
4, 27790, Note_on_c, 2, 65, 0
4, 27791, Note_on_c, 2, 68, 114
4, 27793, Note_on_c, 2, 65, 114
4, 27793, Note_on_c, 2, 73, 114
4, 27932, Note_on_c, 2, 68, 0
4, 27933, Note_on_c, 2, 65, 0
4, 27934, Note_on_c, 2, 73, 0
4, 27935, Note_on_c, 2, 65, 113
4, 27936, Note_on_c, 2, 73, 113
4, 27938, Note_on_c, 2, 68, 113
4, 27980, Note_on_c, 2, 65, 0
4, 27980, Note_on_c, 2, 68, 0
4, 27981, Note_on_c, 2, 73, 0
4, 27982, Note_on_c, 2, 68, 116
4, 27984, Note_on_c, 2, 73, 116
4, 27986, Note_on_c, 2, 65, 116
4, 28161, Note_on_c, 2, 68, 0
4, 28163, Note_on_c, 2, 73, 0
4, 28165, Note_on_c, 2, 65, 0
4, 28224, Note_on_c, 2, 68, 118
4, 28226, Note_on_c, 2, 65, 118
4, 28226, Note_on_c, 2, 72, 118
4, 28285, Note_on_c, 2, 65, 0
4, 28285, Note_on_c, 2, 68, 0
4, 28287, Note_on_c, 2, 65, 118
4, 28287, Note_on_c, 2, 72, 0
4, 28289, Note_on_c, 2, 72, 117
4, 28290, Note_on_c, 2, 68, 118
4, 28348, Note_on_c, 2, 65, 0
4, 28348, Note_on_c, 2, 72, 0
4, 28349, Note_on_c, 2, 68, 0
4, 28350, Note_on_c, 2, 72, 117
4, 28351, Note_on_c, 2, 68, 117
4, 28352, Note_on_c, 2, 65, 118
4, 28411, Note_on_c, 2, 72, 0
4, 28412, Note_on_c, 2, 68, 0
4, 28413, Note_on_c, 2, 65, 0
4, 28414, Note_on_c, 2, 68, 117
4, 28416, Note_on_c, 2, 73, 117
4, 28417, Note_on_c, 2, 65, 117
4, 28507, Note_on_c, 2, 68, 0
4, 28509, Note_on_c, 2, 73, 0
4, 28510, Note_on_c, 2, 65, 0
4, 28512, Note_on_c, 2, 65, 113
4, 28513, Note_on_c, 2, 73, 113
4, 28514, Note_on_c, 2, 68, 113
4, 28556, Note_on_c, 2, 65, 0
4, 28557, Note_on_c, 2, 68, 0
4, 28558, Note_on_c, 2, 65, 114
4, 28558, Note_on_c, 2, 73, 0
4, 28559, Note_on_c, 2, 68, 114
4, 28560, Note_on_c, 2, 73, 114
4, 28699, Note_on_c, 2, 65, 0
4, 28700, Note_on_c, 2, 68, 0
4, 28701, Note_on_c, 2, 73, 0
4, 28702, Note_on_c, 2, 65, 113
4, 28702, Note_on_c, 2, 68, 113
4, 28703, Note_on_c, 2, 73, 113
4, 28795, Note_on_c, 2, 65, 0
4, 28795, Note_on_c, 2, 68, 0
4, 28796, Note_on_c, 2, 73, 0
4, 28800, Note_on_c, 2, 68, 117
4, 28801, Note_on_c, 2, 63, 117
4, 28802, Note_on_c, 2, 72, 117
4, 28892, Note_on_c, 2, 72, 0
4, 28893, Note_on_c, 2, 63, 0
4, 28893, Note_on_c, 2, 68, 0
4, 28894, Note_on_c, 2, 72, 113
4, 28895, Note_on_c, 2, 63, 113
4, 28897, Note_on_c, 2, 68, 113
4, 28939, Note_on_c, 2, 72, 0
4, 28940, Note_on_c, 2, 63, 0
4, 28942, Note_on_c, 2, 68, 0
4, 28943, Note_on_c, 2, 63, 114
4, 28945, Note_on_c, 2, 72, 114
4, 28946, Note_on_c, 2, 68, 114
4, 29084, Note_on_c, 2, 63, 0
4, 29084, Note_on_c, 2, 68, 0
4, 29086, Note_on_c, 2, 68, 113
4, 29086, Note_on_c, 2, 72, 0
4, 29088, Note_on_c, 2, 72, 113
4, 29089, Note_on_c, 2, 63, 113
4, 29227, Note_on_c, 2, 68, 0
4, 29229, Note_on_c, 2, 72, 0
4, 29230, Note_on_c, 2, 63, 0
4, 29233, Note_on_c, 2, 61, 111
4, 29234, Note_on_c, 2, 66, 111
4, 29234, Note_on_c, 2, 70, 109
4, 29518, Note_on_c, 2, 61, 0
4, 29519, Note_on_c, 2, 66, 0
4, 29519, Note_on_c, 2, 70, 0
4, 36187, Note_on_c, 2, 70, 120
4, 36187, Note_on_c, 2, 75, 116
4, 36233, Note_on_c, 2, 70, 0
4, 36233, Note_on_c, 2, 75, 0
4, 36287, Note_on_c, 2, 75, 116
4, 36289, Note_on_c, 2, 70, 120
4, 36380, Note_on_c, 2, 75, 0
4, 36382, Note_on_c, 2, 70, 0
4, 36384, Note_on_c, 2, 67, 120
4, 36386, Note_on_c, 2, 70, 116
4, 36473, Note_on_c, 2, 67, 0
4, 36475, Note_on_c, 2, 70, 0
4, 36476, Note_on_c, 2, 72, 114
4, 36478, Note_on_c, 2, 68, 118
4, 36602, Note_on_c, 2, 72, 0
4, 36604, Note_on_c, 2, 68, 0
4, 36953, Note_on_c, 2, 67, 120
4, 36955, Note_on_c, 2, 70, 116
4, 36999, Note_on_c, 2, 67, 0
4, 37001, Note_on_c, 2, 70, 0
4, 37054, Note_on_c, 2, 67, 120
4, 37054, Note_on_c, 2, 70, 116
4, 37147, Note_on_c, 2, 67, 0
4, 37147, Note_on_c, 2, 70, 0
4, 37151, Note_on_c, 2, 70, 116
4, 37154, Note_on_c, 2, 67, 120
4, 37240, Note_on_c, 2, 70, 0
4, 37243, Note_on_c, 2, 67, 0
4, 37245, Note_on_c, 2, 68, 118
4, 37246, Note_on_c, 2, 72, 114
4, 37371, Note_on_c, 2, 68, 0
4, 37372, Note_on_c, 2, 72, 0
4, 37632, Note_on_c, 2, 75, 116
4, 37634, Note_on_c, 2, 70, 116
4, 37815, Note_on_c, 2, 75, 0
4, 37817, Note_on_c, 2, 70, 0
4, 37826, Note_on_c, 2, 75, 110
4, 37827, Note_on_c, 2, 70, 110
4, 37916, Note_on_c, 2, 75, 0
4, 37917, Note_on_c, 2, 70, 0
4, 37919, Note_on_c, 2, 68, 114
4, 37921, Note_on_c, 2, 72, 114
4, 38200, Note_on_c, 2, 68, 0
4, 38202, Note_on_c, 2, 72, 0
4, 38207, Note_on_c, 2, 72, 112
4, 38209, Note_on_c, 2, 68, 112
4, 38396, Note_on_c, 2, 72, 0
4, 38398, Note_on_c, 2, 68, 0
4, 38399, Note_on_c, 2, 67, 116
4, 38399, Note_on_c, 2, 70, 116
4, 38582, Note_on_c, 2, 67, 0
4, 38582, Note_on_c, 2, 70, 0
4, 38592, Note_on_c, 2, 67, 116
4, 38592, Note_on_c, 2, 70, 116
4, 38685, Note_on_c, 2, 67, 0
4, 38685, Note_on_c, 2, 70, 0
4, 38686, Note_on_c, 2, 68, 105
4, 38686, Note_on_c, 2, 72, 116
4, 38688, Note_on_c, 2, 65, 104
4, 38917, Note_on_c, 2, 68, 0
4, 38917, Note_on_c, 2, 72, 0
4, 38919, Note_on_c, 2, 65, 0
4, 38974, Note_on_c, 2, 72, 118
4, 38976, Note_on_c, 2, 68, 118
4, 38978, Note_on_c, 2, 65, 118
4, 39019, Note_on_c, 2, 72, 0
4, 39020, Note_on_c, 2, 68, 0
4, 39021, Note_on_c, 2, 65, 0
4, 39022, Note_on_c, 2, 68, 113
4, 39023, Note_on_c, 2, 65, 118
4, 39023, Note_on_c, 2, 72, 113
4, 39067, Note_on_c, 2, 68, 0
4, 39068, Note_on_c, 2, 65, 0
4, 39068, Note_on_c, 2, 72, 0
4, 39070, Note_on_c, 2, 65, 118
4, 39073, Note_on_c, 2, 72, 117
4, 39074, Note_on_c, 2, 68, 117
4, 39163, Note_on_c, 2, 65, 0
4, 39165, Note_on_c, 2, 68, 0
4, 39166, Note_on_c, 2, 72, 0
4, 39166, Note_on_c, 2, 73, 117
4, 39167, Note_on_c, 2, 68, 117
4, 39170, Note_on_c, 2, 65, 117
4, 39259, Note_on_c, 2, 73, 0
4, 39260, Note_on_c, 2, 68, 0
4, 39263, Note_on_c, 2, 65, 0
4, 39263, Note_on_c, 2, 73, 113
4, 39265, Note_on_c, 2, 65, 113
4, 39266, Note_on_c, 2, 68, 113
4, 39308, Note_on_c, 2, 73, 0
4, 39310, Note_on_c, 2, 65, 0
4, 39310, Note_on_c, 2, 68, 0
4, 39311, Note_on_c, 2, 73, 114
4, 39312, Note_on_c, 2, 68, 114
4, 39314, Note_on_c, 2, 65, 114
4, 39452, Note_on_c, 2, 73, 0
4, 39453, Note_on_c, 2, 68, 0
4, 39454, Note_on_c, 2, 65, 0
4, 39455, Note_on_c, 2, 73, 113
4, 39456, Note_on_c, 2, 65, 113
4, 39458, Note_on_c, 2, 68, 113
4, 39500, Note_on_c, 2, 65, 0
4, 39500, Note_on_c, 2, 73, 0
4, 39502, Note_on_c, 2, 65, 116
4, 39502, Note_on_c, 2, 68, 0
4, 39502, Note_on_c, 2, 73, 116
4, 39504, Note_on_c, 2, 68, 116
4, 39681, Note_on_c, 2, 65, 0
4, 39681, Note_on_c, 2, 73, 0
4, 39683, Note_on_c, 2, 68, 0
4, 39742, Note_on_c, 2, 68, 118
4, 39744, Note_on_c, 2, 65, 118
4, 39744, Note_on_c, 2, 72, 118
4, 39787, Note_on_c, 2, 68, 0
4, 39789, Note_on_c, 2, 65, 0
4, 39789, Note_on_c, 2, 72, 0
4, 39793, Note_on_c, 2, 65, 118
4, 39793, Note_on_c, 2, 68, 113
4, 39793, Note_on_c, 2, 72, 113
4, 39838, Note_on_c, 2, 65, 0
4, 39838, Note_on_c, 2, 68, 0
4, 39838, Note_on_c, 2, 72, 0
4, 39841, Note_on_c, 2, 68, 117
4, 39841, Note_on_c, 2, 72, 117
4, 39842, Note_on_c, 2, 65, 118
4, 39933, Note_on_c, 2, 68, 0
4, 39934, Note_on_c, 2, 65, 0
4, 39934, Note_on_c, 2, 72, 0
4, 39935, Note_on_c, 2, 68, 117
4, 39936, Note_on_c, 2, 65, 117
4, 39937, Note_on_c, 2, 73, 117
4, 40028, Note_on_c, 2, 68, 0
4, 40029, Note_on_c, 2, 65, 0
4, 40030, Note_on_c, 2, 73, 0
4, 40032, Note_on_c, 2, 65, 113
4, 40032, Note_on_c, 2, 73, 113
4, 40033, Note_on_c, 2, 68, 113
4, 40077, Note_on_c, 2, 65, 0
4, 40077, Note_on_c, 2, 73, 0
4, 40078, Note_on_c, 2, 68, 0
4, 40079, Note_on_c, 2, 65, 114
4, 40081, Note_on_c, 2, 68, 114
4, 40081, Note_on_c, 2, 73, 114
4, 40220, Note_on_c, 2, 65, 0
4, 40221, Note_on_c, 2, 68, 0
4, 40222, Note_on_c, 2, 73, 0
4, 40223, Note_on_c, 2, 65, 113
4, 40223, Note_on_c, 2, 68, 113
4, 40226, Note_on_c, 2, 73, 113
4, 40268, Note_on_c, 2, 65, 0
4, 40268, Note_on_c, 2, 68, 0
4, 40269, Note_on_c, 2, 73, 0
4, 40271, Note_on_c, 2, 73, 116
4, 40273, Note_on_c, 2, 65, 116
4, 40273, Note_on_c, 2, 68, 116
4, 40450, Note_on_c, 2, 73, 0
4, 40452, Note_on_c, 2, 65, 0
4, 40452, Note_on_c, 2, 68, 0
4, 40510, Note_on_c, 2, 68, 118
4, 40513, Note_on_c, 2, 65, 118
4, 40513, Note_on_c, 2, 72, 118
4, 40571, Note_on_c, 2, 68, 0
4, 40573, Note_on_c, 2, 65, 0
4, 40574, Note_on_c, 2, 72, 0
4, 40575, Note_on_c, 2, 65, 118
4, 40575, Note_on_c, 2, 68, 118
4, 40576, Note_on_c, 2, 72, 117
4, 40636, Note_on_c, 2, 65, 0
4, 40636, Note_on_c, 2, 68, 0
4, 40637, Note_on_c, 2, 72, 0
4, 40640, Note_on_c, 2, 68, 117
4, 40640, Note_on_c, 2, 72, 117
4, 40641, Note_on_c, 2, 65, 118
4, 40701, Note_on_c, 2, 68, 0
4, 40701, Note_on_c, 2, 72, 0
4, 40702, Note_on_c, 2, 65, 0
4, 40704, Note_on_c, 2, 65, 117
4, 40704, Note_on_c, 2, 68, 117
4, 40705, Note_on_c, 2, 73, 117
4, 40797, Note_on_c, 2, 65, 0
4, 40797, Note_on_c, 2, 68, 0
4, 40798, Note_on_c, 2, 73, 0
4, 40801, Note_on_c, 2, 65, 113
4, 40801, Note_on_c, 2, 68, 113
4, 40802, Note_on_c, 2, 73, 113
4, 40844, Note_on_c, 2, 73, 0
4, 40846, Note_on_c, 2, 65, 0
4, 40846, Note_on_c, 2, 68, 0
4, 40846, Note_on_c, 2, 73, 114
4, 40849, Note_on_c, 2, 68, 114
4, 40850, Note_on_c, 2, 65, 114
4, 40987, Note_on_c, 2, 73, 0
4, 40988, Note_on_c, 2, 68, 0
4, 40989, Note_on_c, 2, 65, 0
4, 40990, Note_on_c, 2, 68, 113
4, 40991, Note_on_c, 2, 65, 113
4, 40991, Note_on_c, 2, 73, 113
4, 41083, Note_on_c, 2, 68, 0
4, 41084, Note_on_c, 2, 65, 0
4, 41084, Note_on_c, 2, 73, 0
4, 41088, Note_on_c, 2, 72, 117
4, 41089, Note_on_c, 2, 68, 117
4, 41090, Note_on_c, 2, 63, 117
4, 41180, Note_on_c, 2, 68, 0
4, 41181, Note_on_c, 2, 63, 0
4, 41181, Note_on_c, 2, 72, 0
4, 41182, Note_on_c, 2, 68, 113
4, 41183, Note_on_c, 2, 63, 113
4, 41183, Note_on_c, 2, 72, 113
4, 41227, Note_on_c, 2, 68, 0
4, 41228, Note_on_c, 2, 63, 0
4, 41228, Note_on_c, 2, 72, 0
4, 41231, Note_on_c, 2, 68, 114
4, 41231, Note_on_c, 2, 72, 114
4, 41232, Note_on_c, 2, 63, 114
4, 41372, Note_on_c, 2, 68, 0
4, 41372, Note_on_c, 2, 72, 0
4, 41373, Note_on_c, 2, 63, 0
4, 41375, Note_on_c, 2, 63, 113
4, 41377, Note_on_c, 2, 68, 113
4, 41378, Note_on_c, 2, 72, 113
4, 41516, Note_on_c, 2, 63, 0
4, 41518, Note_on_c, 2, 66, 111
4, 41518, Note_on_c, 2, 68, 0
4, 41519, Note_on_c, 2, 72, 0
4, 41521, Note_on_c, 2, 70, 109
4, 41522, Note_on_c, 2, 61, 111
4, 41803, Note_on_c, 2, 66, 0
4, 41806, Note_on_c, 2, 70, 0
4, 41807, Note_on_c, 2, 61, 0
4, 45310, Note_on_c, 2, 70, 116
4, 45313, Note_on_c, 2, 75, 116
4, 45493, Note_on_c, 2, 70, 0
4, 45496, Note_on_c, 2, 75, 0
4, 45506, Note_on_c, 2, 75, 110
4, 45508, Note_on_c, 2, 70, 110
4, 45596, Note_on_c, 2, 75, 0
4, 45598, Note_on_c, 2, 70, 0
4, 45600, Note_on_c, 2, 68, 114
4, 45602, Note_on_c, 2, 72, 114
4, 45881, Note_on_c, 2, 68, 0
4, 45883, Note_on_c, 2, 72, 0
4, 45888, Note_on_c, 2, 72, 112
4, 45890, Note_on_c, 2, 68, 112
4, 46077, Note_on_c, 2, 72, 0
4, 46078, Note_on_c, 2, 67, 116
4, 46078, Note_on_c, 2, 70, 116
4, 46079, Note_on_c, 2, 68, 0
4, 46261, Note_on_c, 2, 67, 0
4, 46261, Note_on_c, 2, 70, 0
4, 46270, Note_on_c, 2, 67, 116
4, 46270, Note_on_c, 2, 70, 116
4, 46363, Note_on_c, 2, 67, 0
4, 46363, Note_on_c, 2, 70, 0
4, 46367, Note_on_c, 2, 68, 105
4, 46367, Note_on_c, 2, 72, 116
4, 46838, Note_on_c, 2, 68, 0
4, 46838, Note_on_c, 2, 72, 0
4, 46849, Note_on_c, 2, 75, 116
4, 46850, Note_on_c, 2, 70, 116
4, 47032, Note_on_c, 2, 75, 0
4, 47033, Note_on_c, 2, 70, 0
4, 47042, Note_on_c, 2, 70, 110
4, 47046, Note_on_c, 2, 75, 110
4, 47132, Note_on_c, 2, 70, 0
4, 47136, Note_on_c, 2, 75, 0
4, 47137, Note_on_c, 2, 72, 114
4, 47138, Note_on_c, 2, 68, 114
4, 47418, Note_on_c, 2, 72, 0
4, 47419, Note_on_c, 2, 68, 0
4, 47424, Note_on_c, 2, 68, 112
4, 47426, Note_on_c, 2, 72, 112
4, 47613, Note_on_c, 2, 68, 0
4, 47615, Note_on_c, 2, 72, 0
4, 47616, Note_on_c, 2, 67, 116
4, 47616, Note_on_c, 2, 70, 116
4, 47799, Note_on_c, 2, 67, 0
4, 47799, Note_on_c, 2, 70, 0
4, 47806, Note_on_c, 2, 70, 116
4, 47808, Note_on_c, 2, 67, 116
4, 47899, Note_on_c, 2, 70, 0
4, 47901, Note_on_c, 2, 67, 0
4, 47902, Note_on_c, 2, 65, 104
4, 47904, Note_on_c, 2, 72, 116
4, 47905, Note_on_c, 2, 68, 105
4, 48133, Note_on_c, 2, 65, 0
4, 48135, Note_on_c, 2, 72, 0
4, 48136, Note_on_c, 2, 68, 0
4, 48191, Note_on_c, 2, 72, 118
4, 48192, Note_on_c, 2, 65, 118
4, 48192, Note_on_c, 2, 68, 118
4, 48236, Note_on_c, 2, 72, 0
4, 48237, Note_on_c, 2, 65, 0
4, 48237, Note_on_c, 2, 68, 0
4, 48239, Note_on_c, 2, 68, 113
4, 48239, Note_on_c, 2, 73, 113
4, 48241, Note_on_c, 2, 65, 118
4, 48284, Note_on_c, 2, 68, 0
4, 48284, Note_on_c, 2, 73, 0
4, 48285, Note_on_c, 2, 65, 0
4, 48287, Note_on_c, 2, 65, 118
4, 48289, Note_on_c, 2, 68, 117
4, 48289, Note_on_c, 2, 75, 117
4, 48380, Note_on_c, 2, 65, 0
4, 48381, Note_on_c, 2, 68, 0
4, 48382, Note_on_c, 2, 65, 117
4, 48382, Note_on_c, 2, 75, 0
4, 48383, Note_on_c, 2, 68, 117
4, 48384, Note_on_c, 2, 73, 117
4, 48475, Note_on_c, 2, 65, 0
4, 48476, Note_on_c, 2, 68, 0
4, 48477, Note_on_c, 2, 73, 0
4, 48478, Note_on_c, 2, 72, 113
4, 48479, Note_on_c, 2, 68, 113
4, 48482, Note_on_c, 2, 65, 113
4, 48523, Note_on_c, 2, 72, 0
4, 48524, Note_on_c, 2, 65, 0
4, 48524, Note_on_c, 2, 68, 0
4, 48526, Note_on_c, 2, 65, 114
4, 48528, Note_on_c, 2, 68, 114
4, 48530, Note_on_c, 2, 70, 114
4, 48667, Note_on_c, 2, 65, 0
4, 48669, Note_on_c, 2, 68, 0
4, 48671, Note_on_c, 2, 70, 0
4, 48672, Note_on_c, 2, 65, 113
4, 48674, Note_on_c, 2, 68, 113
4, 48717, Note_on_c, 2, 65, 0
4, 48719, Note_on_c, 2, 65, 116
4, 48719, Note_on_c, 2, 68, 0
4, 48720, Note_on_c, 2, 70, 116
4, 48721, Note_on_c, 2, 68, 116
4, 48898, Note_on_c, 2, 65, 0
4, 48899, Note_on_c, 2, 70, 0
4, 48900, Note_on_c, 2, 68, 0
4, 48961, Note_on_c, 2, 68, 118
4, 48961, Note_on_c, 2, 72, 118
4, 48962, Note_on_c, 2, 65, 118
4, 49006, Note_on_c, 2, 65, 0
4, 49006, Note_on_c, 2, 68, 0
4, 49006, Note_on_c, 2, 72, 0
4, 49006, Note_on_c, 2, 73, 113
4, 49008, Note_on_c, 2, 65, 118
4, 49008, Note_on_c, 2, 68, 113
4, 49051, Note_on_c, 2, 73, 0
4, 49052, Note_on_c, 2, 68, 0
4, 49053, Note_on_c, 2, 65, 0
4, 49054, Note_on_c, 2, 68, 117
4, 49057, Note_on_c, 2, 75, 117
4, 49058, Note_on_c, 2, 65, 118
4, 49147, Note_on_c, 2, 68, 0
4, 49150, Note_on_c, 2, 65, 0
4, 49150, Note_on_c, 2, 68, 117
4, 49150, Note_on_c, 2, 75, 0
4, 49151, Note_on_c, 2, 73, 117
4, 49152, Note_on_c, 2, 65, 117
4, 49243, Note_on_c, 2, 68, 0
4, 49244, Note_on_c, 2, 73, 0
4, 49245, Note_on_c, 2, 65, 0
4, 49247, Note_on_c, 2, 68, 113
4, 49249, Note_on_c, 2, 65, 113
4, 49250, Note_on_c, 2, 72, 113
4, 49292, Note_on_c, 2, 68, 0
4, 49294, Note_on_c, 2, 65, 0
4, 49294, Note_on_c, 2, 68, 114
4, 49295, Note_on_c, 2, 72, 0
4, 49298, Note_on_c, 2, 65, 114
4, 49298, Note_on_c, 2, 70, 114
4, 49435, Note_on_c, 2, 68, 0
4, 49439, Note_on_c, 2, 65, 0
4, 49439, Note_on_c, 2, 68, 113
4, 49439, Note_on_c, 2, 70, 0
4, 49441, Note_on_c, 2, 65, 113
4, 49484, Note_on_c, 2, 68, 0
4, 49486, Note_on_c, 2, 65, 0
4, 49488, Note_on_c, 2, 68, 116
4, 49489, Note_on_c, 2, 70, 116
4, 49490, Note_on_c, 2, 65, 116
4, 49667, Note_on_c, 2, 68, 0
4, 49668, Note_on_c, 2, 70, 0
4, 49669, Note_on_c, 2, 65, 0
4, 49726, Note_on_c, 2, 65, 118
4, 49727, Note_on_c, 2, 68, 118
4, 49728, Note_on_c, 2, 72, 118
4, 49787, Note_on_c, 2, 65, 0
4, 49788, Note_on_c, 2, 68, 0
4, 49789, Note_on_c, 2, 72, 0
4, 49791, Note_on_c, 2, 73, 117
4, 49792, Note_on_c, 2, 65, 118
4, 49794, Note_on_c, 2, 68, 118
4, 49852, Note_on_c, 2, 73, 0
4, 49853, Note_on_c, 2, 65, 0
4, 49854, Note_on_c, 2, 68, 0
4, 49856, Note_on_c, 2, 68, 117
4, 49857, Note_on_c, 2, 65, 118
4, 49857, Note_on_c, 2, 75, 117
4, 49916, Note_on_c, 2, 68, 0
4, 49918, Note_on_c, 2, 65, 0
4, 49918, Note_on_c, 2, 68, 117
4, 49918, Note_on_c, 2, 75, 0
4, 49922, Note_on_c, 2, 65, 117
4, 49922, Note_on_c, 2, 73, 117
4, 50011, Note_on_c, 2, 68, 0
4, 50014, Note_on_c, 2, 68, 113
4, 50015, Note_on_c, 2, 65, 0
4, 50015, Note_on_c, 2, 73, 0
4, 50017, Note_on_c, 2, 72, 113
4, 50018, Note_on_c, 2, 65, 113
4, 50059, Note_on_c, 2, 68, 0
4, 50062, Note_on_c, 2, 72, 0
4, 50063, Note_on_c, 2, 65, 0
4, 50063, Note_on_c, 2, 68, 114
4, 50063, Note_on_c, 2, 70, 114
4, 50065, Note_on_c, 2, 65, 114
4, 50204, Note_on_c, 2, 68, 0
4, 50204, Note_on_c, 2, 70, 0
4, 50206, Note_on_c, 2, 65, 0
4, 50207, Note_on_c, 2, 68, 113
4, 50209, Note_on_c, 2, 65, 113
4, 50300, Note_on_c, 2, 68, 0
4, 50302, Note_on_c, 2, 63, 117
4, 50302, Note_on_c, 2, 65, 0
4, 50302, Note_on_c, 2, 72, 117
4, 50305, Note_on_c, 2, 68, 117
4, 50395, Note_on_c, 2, 63, 0
4, 50395, Note_on_c, 2, 72, 0
4, 50398, Note_on_c, 2, 68, 0
4, 50399, Note_on_c, 2, 63, 113
4, 50400, Note_on_c, 2, 68, 113
4, 50401, Note_on_c, 2, 72, 113
4, 50444, Note_on_c, 2, 63, 0
4, 50445, Note_on_c, 2, 68, 0
4, 50446, Note_on_c, 2, 72, 0
4, 50447, Note_on_c, 2, 63, 114
4, 50449, Note_on_c, 2, 68, 114
4, 50449, Note_on_c, 2, 72, 114
4, 50588, Note_on_c, 2, 63, 0
4, 50590, Note_on_c, 2, 68, 0
4, 50590, Note_on_c, 2, 72, 0
4, 50591, Note_on_c, 2, 63, 113
4, 50593, Note_on_c, 2, 68, 113
4, 50594, Note_on_c, 2, 72, 113
4, 50732, Note_on_c, 2, 63, 0
4, 50734, Note_on_c, 2, 68, 0
4, 50735, Note_on_c, 2, 72, 0
4, 50736, Note_on_c, 2, 66, 111
4, 50737, Note_on_c, 2, 61, 111
4, 50738, Note_on_c, 2, 70, 109
4, 51021, Note_on_c, 2, 66, 0
4, 51022, Note_on_c, 2, 61, 0
4, 51023, Note_on_c, 2, 70, 0
4, 51547, Note_on_c, 2, 70, 120
4, 51549, Note_on_c, 2, 75, 116
4, 51593, Note_on_c, 2, 70, 0
4, 51595, Note_on_c, 2, 75, 0
4, 51649, Note_on_c, 2, 75, 116
4, 51650, Note_on_c, 2, 70, 120
4, 51741, Note_on_c, 2, 70, 0
4, 51742, Note_on_c, 2, 75, 0
4, 51743, Note_on_c, 2, 70, 116
4, 51746, Note_on_c, 2, 67, 120
4, 51832, Note_on_c, 2, 70, 0
4, 51834, Note_on_c, 2, 68, 118
4, 51835, Note_on_c, 2, 67, 0
4, 51838, Note_on_c, 2, 72, 114
4, 51960, Note_on_c, 2, 68, 0
4, 51964, Note_on_c, 2, 72, 0
4, 52313, Note_on_c, 2, 67, 120
4, 52317, Note_on_c, 2, 70, 116
4, 52359, Note_on_c, 2, 67, 0
4, 52363, Note_on_c, 2, 70, 0
4, 52417, Note_on_c, 2, 67, 120
4, 52418, Note_on_c, 2, 70, 116
4, 52510, Note_on_c, 2, 67, 0
4, 52510, Note_on_c, 2, 70, 0
4, 52512, Note_on_c, 2, 67, 120
4, 52512, Note_on_c, 2, 70, 116
4, 52601, Note_on_c, 2, 67, 0
4, 52601, Note_on_c, 2, 70, 0
4, 52604, Note_on_c, 2, 68, 118
4, 52604, Note_on_c, 2, 72, 114
4, 52730, Note_on_c, 2, 68, 0
4, 52730, Note_on_c, 2, 72, 0
4, 52992, Note_on_c, 2, 75, 116
4, 52993, Note_on_c, 2, 70, 116
4, 53175, Note_on_c, 2, 75, 0
4, 53176, Note_on_c, 2, 70, 0
4, 53188, Note_on_c, 2, 75, 110
4, 53190, Note_on_c, 2, 70, 110
4, 53278, Note_on_c, 2, 75, 0
4, 53280, Note_on_c, 2, 70, 0
4, 53281, Note_on_c, 2, 68, 114
4, 53283, Note_on_c, 2, 72, 114
4, 53562, Note_on_c, 2, 68, 0
4, 53564, Note_on_c, 2, 72, 0
4, 53566, Note_on_c, 2, 68, 112
4, 53567, Note_on_c, 2, 72, 112
4, 53755, Note_on_c, 2, 68, 0
4, 53756, Note_on_c, 2, 72, 0
4, 53758, Note_on_c, 2, 67, 116
4, 53760, Note_on_c, 2, 70, 116
4, 53941, Note_on_c, 2, 67, 0
4, 53943, Note_on_c, 2, 70, 0
4, 53950, Note_on_c, 2, 70, 116
4, 53953, Note_on_c, 2, 67, 116
4, 54043, Note_on_c, 2, 70, 0
4, 54046, Note_on_c, 2, 65, 104
4, 54046, Note_on_c, 2, 67, 0
4, 54046, Note_on_c, 2, 72, 116
4, 54049, Note_on_c, 2, 68, 105
4, 54277, Note_on_c, 2, 65, 0
4, 54277, Note_on_c, 2, 72, 0
4, 54280, Note_on_c, 2, 68, 0
4, 54336, Note_on_c, 2, 65, 118
4, 54337, Note_on_c, 2, 68, 118
4, 54337, Note_on_c, 2, 72, 118
4, 54381, Note_on_c, 2, 65, 0
4, 54381, Note_on_c, 2, 68, 0
4, 54382, Note_on_c, 2, 72, 0
4, 54382, Note_on_c, 2, 73, 113
4, 54383, Note_on_c, 2, 68, 113
4, 54386, Note_on_c, 2, 65, 118
4, 54427, Note_on_c, 2, 73, 0
4, 54428, Note_on_c, 2, 68, 0
4, 54430, Note_on_c, 2, 65, 0
4, 54432, Note_on_c, 2, 65, 118
4, 54433, Note_on_c, 2, 68, 117
4, 54434, Note_on_c, 2, 75, 117
4, 54525, Note_on_c, 2, 65, 0
4, 54526, Note_on_c, 2, 68, 0
4, 54527, Note_on_c, 2, 75, 0
4, 54528, Note_on_c, 2, 68, 117
4, 54529, Note_on_c, 2, 73, 117
4, 54530, Note_on_c, 2, 65, 117
4, 54620, Note_on_c, 2, 65, 0
4, 54620, Note_on_c, 2, 68, 0
4, 54622, Note_on_c, 2, 65, 113
4, 54622, Note_on_c, 2, 68, 113
4, 54622, Note_on_c, 2, 73, 0
4, 54625, Note_on_c, 2, 72, 113
4, 54667, Note_on_c, 2, 65, 0
4, 54667, Note_on_c, 2, 68, 0
4, 54670, Note_on_c, 2, 68, 114
4, 54670, Note_on_c, 2, 72, 0
4, 54673, Note_on_c, 2, 70, 114
4, 54674, Note_on_c, 2, 65, 114
4, 54811, Note_on_c, 2, 68, 0
4, 54814, Note_on_c, 2, 70, 0
4, 54815, Note_on_c, 2, 65, 0
4, 54818, Note_on_c, 2, 65, 113
4, 54818, Note_on_c, 2, 68, 113
4, 54860, Note_on_c, 2, 65, 0
4, 54860, Note_on_c, 2, 68, 0
4, 54862, Note_on_c, 2, 65, 116
4, 54862, Note_on_c, 2, 68, 116
4, 54865, Note_on_c, 2, 70, 116
4, 55041, Note_on_c, 2, 65, 0
4, 55041, Note_on_c, 2, 68, 0
4, 55044, Note_on_c, 2, 70, 0
4, 55105, Note_on_c, 2, 72, 118
4, 55106, Note_on_c, 2, 65, 118
4, 55106, Note_on_c, 2, 68, 118
4, 55149, Note_on_c, 2, 65, 0
4, 55150, Note_on_c, 2, 72, 0
4, 55151, Note_on_c, 2, 65, 118
4, 55151, Note_on_c, 2, 68, 0
4, 55151, Note_on_c, 2, 73, 113
4, 55153, Note_on_c, 2, 68, 113
4, 55196, Note_on_c, 2, 65, 0
4, 55196, Note_on_c, 2, 73, 0
4, 55198, Note_on_c, 2, 65, 118
4, 55198, Note_on_c, 2, 68, 0
4, 55200, Note_on_c, 2, 68, 117
4, 55200, Note_on_c, 2, 75, 117
4, 55291, Note_on_c, 2, 65, 0
4, 55293, Note_on_c, 2, 68, 0
4, 55293, Note_on_c, 2, 75, 0
4, 55295, Note_on_c, 2, 68, 117
4, 55297, Note_on_c, 2, 73, 117
4, 55298, Note_on_c, 2, 65, 117
4, 55388, Note_on_c, 2, 68, 0
4, 55390, Note_on_c, 2, 73, 0
4, 55391, Note_on_c, 2, 65, 0
4, 55394, Note_on_c, 2, 65, 113
4, 55394, Note_on_c, 2, 68, 113
4, 55394, Note_on_c, 2, 72, 113
4, 55437, Note_on_c, 2, 68, 0
4, 55438, Note_on_c, 2, 65, 0
4, 55439, Note_on_c, 2, 68, 114
4, 55439, Note_on_c, 2, 72, 0
4, 55440, Note_on_c, 2, 65, 114
4, 55441, Note_on_c, 2, 70, 114
4, 55580, Note_on_c, 2, 68, 0
4, 55581, Note_on_c, 2, 65, 0
4, 55582, Note_on_c, 2, 70, 0
4, 55585, Note_on_c, 2, 65, 113
4, 55586, Note_on_c, 2, 68, 113
4, 55628, Note_on_c, 2, 68, 0
4, 55630, Note_on_c, 2, 65, 0
4, 55630, Note_on_c, 2, 68, 116
4, 55632, Note_on_c, 2, 65, 116
4, 55632, Note_on_c, 2, 70, 116
4, 55809, Note_on_c, 2, 68, 0
4, 55811, Note_on_c, 2, 65, 0
4, 55811, Note_on_c, 2, 70, 0
4, 55871, Note_on_c, 2, 65, 118
4, 55873, Note_on_c, 2, 68, 118
4, 55873, Note_on_c, 2, 72, 118
4, 55932, Note_on_c, 2, 65, 0
4, 55933, Note_on_c, 2, 68, 0
4, 55934, Note_on_c, 2, 72, 0
4, 55934, Note_on_c, 2, 73, 117
4, 55935, Note_on_c, 2, 68, 118
4, 55936, Note_on_c, 2, 65, 118
4, 55995, Note_on_c, 2, 73, 0
4, 55996, Note_on_c, 2, 68, 0
4, 55997, Note_on_c, 2, 65, 0
4, 55999, Note_on_c, 2, 68, 117
4, 56001, Note_on_c, 2, 65, 118
4, 56001, Note_on_c, 2, 75, 117
4, 56060, Note_on_c, 2, 65, 0
4, 56060, Note_on_c, 2, 68, 0
4, 56062, Note_on_c, 2, 65, 117
4, 56062, Note_on_c, 2, 75, 0
4, 56064, Note_on_c, 2, 68, 117
4, 56065, Note_on_c, 2, 73, 117
4, 56155, Note_on_c, 2, 65, 0
4, 56157, Note_on_c, 2, 68, 0
4, 56158, Note_on_c, 2, 73, 0
4, 56159, Note_on_c, 2, 72, 113
4, 56162, Note_on_c, 2, 65, 113
4, 56162, Note_on_c, 2, 68, 113
4, 56204, Note_on_c, 2, 65, 0
4, 56204, Note_on_c, 2, 72, 0
4, 56205, Note_on_c, 2, 68, 0
4, 56206, Note_on_c, 2, 65, 114
4, 56207, Note_on_c, 2, 68, 114
4, 56207, Note_on_c, 2, 70, 114
4, 56347, Note_on_c, 2, 65, 0
4, 56348, Note_on_c, 2, 68, 0
4, 56348, Note_on_c, 2, 70, 0
4, 56350, Note_on_c, 2, 68, 113
4, 56354, Note_on_c, 2, 65, 113
4, 56443, Note_on_c, 2, 68, 0
4, 56447, Note_on_c, 2, 65, 0
4, 56447, Note_on_c, 2, 68, 117
4, 56448, Note_on_c, 2, 72, 117
4, 56449, Note_on_c, 2, 63, 117
4, 56540, Note_on_c, 2, 63, 0
4, 56540, Note_on_c, 2, 68, 0
4, 56540, Note_on_c, 2, 72, 0
4, 56542, Note_on_c, 2, 63, 113
4, 56542, Note_on_c, 2, 72, 113
4, 56543, Note_on_c, 2, 68, 113
4, 56587, Note_on_c, 2, 63, 0
4, 56587, Note_on_c, 2, 72, 0
4, 56588, Note_on_c, 2, 68, 0
4, 56590, Note_on_c, 2, 68, 114
4, 56591, Note_on_c, 2, 72, 114
4, 56593, Note_on_c, 2, 63, 114
4, 56731, Note_on_c, 2, 68, 0
4, 56732, Note_on_c, 2, 72, 0
4, 56734, Note_on_c, 2, 63, 0
4, 56736, Note_on_c, 2, 63, 113
4, 56736, Note_on_c, 2, 68, 113
4, 56738, Note_on_c, 2, 72, 113
4, 56877, Note_on_c, 2, 63, 0
4, 56877, Note_on_c, 2, 68, 0
4, 56878, Note_on_c, 2, 70, 109
4, 56879, Note_on_c, 2, 61, 111
4, 56879, Note_on_c, 2, 72, 0
4, 56881, Note_on_c, 2, 66, 111
4, 57163, Note_on_c, 2, 70, 0
4, 57164, Note_on_c, 2, 61, 0
4, 57166, Note_on_c, 2, 66, 0
4, 57689, Note_on_c, 2, 70, 120
4, 57690, Note_on_c, 2, 75, 116
4, 57735, Note_on_c, 2, 70, 0
4, 57736, Note_on_c, 2, 75, 0
4, 57793, Note_on_c, 2, 70, 120
4, 57794, Note_on_c, 2, 75, 116
4, 57885, Note_on_c, 2, 70, 0
4, 57886, Note_on_c, 2, 67, 120
4, 57887, Note_on_c, 2, 70, 116
4, 57887, Note_on_c, 2, 75, 0
4, 57975, Note_on_c, 2, 67, 0
4, 57976, Note_on_c, 2, 70, 0
4, 57980, Note_on_c, 2, 68, 118
4, 57982, Note_on_c, 2, 72, 114
4, 58106, Note_on_c, 2, 68, 0
4, 58108, Note_on_c, 2, 72, 0
4, 58460, Note_on_c, 2, 67, 120
4, 58460, Note_on_c, 2, 70, 116
4, 58506, Note_on_c, 2, 67, 0
4, 58506, Note_on_c, 2, 70, 0
4, 58559, Note_on_c, 2, 67, 120
4, 58561, Note_on_c, 2, 70, 116
4, 58652, Note_on_c, 2, 67, 0
4, 58652, Note_on_c, 2, 70, 0
4, 58654, Note_on_c, 2, 70, 116
4, 58657, Note_on_c, 2, 67, 120
4, 58743, Note_on_c, 2, 70, 0
4, 58746, Note_on_c, 2, 67, 0
4, 58746, Note_on_c, 2, 72, 114
4, 58749, Note_on_c, 2, 68, 118
4, 58872, Note_on_c, 2, 72, 0
4, 58875, Note_on_c, 2, 68, 0
4, 59134, Note_on_c, 2, 70, 116
4, 59136, Note_on_c, 2, 75, 116
4, 59317, Note_on_c, 2, 70, 0
4, 59319, Note_on_c, 2, 75, 0
4, 59332, Note_on_c, 2, 70, 110
4, 59332, Note_on_c, 2, 75, 110
4, 59422, Note_on_c, 2, 70, 0
4, 59422, Note_on_c, 2, 75, 0
4, 59425, Note_on_c, 2, 72, 114
4, 59426, Note_on_c, 2, 68, 114
4, 59706, Note_on_c, 2, 72, 0
4, 59707, Note_on_c, 2, 68, 0
4, 59710, Note_on_c, 2, 72, 112
4, 59714, Note_on_c, 2, 68, 112
4, 59899, Note_on_c, 2, 72, 0
4, 59902, Note_on_c, 2, 67, 116
4, 59903, Note_on_c, 2, 68, 0
4, 59906, Note_on_c, 2, 70, 116
4, 60085, Note_on_c, 2, 67, 0
4, 60089, Note_on_c, 2, 70, 0
4, 60094, Note_on_c, 2, 67, 116
4, 60094, Note_on_c, 2, 70, 116
4, 60187, Note_on_c, 2, 67, 0
4, 60187, Note_on_c, 2, 70, 0
4, 60190, Note_on_c, 2, 68, 105
4, 60193, Note_on_c, 2, 65, 104
4, 60194, Note_on_c, 2, 72, 116
4, 60421, Note_on_c, 2, 68, 0
4, 60424, Note_on_c, 2, 65, 0
4, 60425, Note_on_c, 2, 72, 0
4, 60479, Note_on_c, 2, 65, 118
4, 60479, Note_on_c, 2, 68, 118
4, 60481, Note_on_c, 2, 72, 118
4, 60524, Note_on_c, 2, 65, 0
4, 60524, Note_on_c, 2, 68, 0
4, 60526, Note_on_c, 2, 72, 0
4, 60526, Note_on_c, 2, 73, 113
4, 60528, Note_on_c, 2, 65, 118
4, 60528, Note_on_c, 2, 68, 113
4, 60571, Note_on_c, 2, 73, 0
4, 60573, Note_on_c, 2, 65, 0
4, 60573, Note_on_c, 2, 68, 0
4, 60576, Note_on_c, 2, 68, 117
4, 60577, Note_on_c, 2, 65, 118
4, 60577, Note_on_c, 2, 75, 117
4, 60669, Note_on_c, 2, 68, 0
4, 60670, Note_on_c, 2, 65, 0
4, 60670, Note_on_c, 2, 75, 0
4, 60673, Note_on_c, 2, 73, 117
4, 60674, Note_on_c, 2, 65, 117
4, 60674, Note_on_c, 2, 68, 117
4, 60764, Note_on_c, 2, 65, 0
4, 60766, Note_on_c, 2, 65, 113
4, 60766, Note_on_c, 2, 72, 113
4, 60766, Note_on_c, 2, 73, 0
4, 60767, Note_on_c, 2, 68, 0
4, 60770, Note_on_c, 2, 68, 113
4, 60811, Note_on_c, 2, 65, 0
4, 60811, Note_on_c, 2, 72, 0
4, 60813, Note_on_c, 2, 68, 0
4, 60814, Note_on_c, 2, 70, 114
4, 60815, Note_on_c, 2, 65, 114
4, 60815, Note_on_c, 2, 68, 114
4, 60955, Note_on_c, 2, 70, 0
4, 60956, Note_on_c, 2, 65, 0
4, 60956, Note_on_c, 2, 68, 0
4, 60961, Note_on_c, 2, 65, 113
4, 60962, Note_on_c, 2, 68, 113
4, 61006, Note_on_c, 2, 65, 0
4, 61007, Note_on_c, 2, 68, 0
4, 61009, Note_on_c, 2, 65, 116
4, 61010, Note_on_c, 2, 68, 116
4, 61010, Note_on_c, 2, 70, 116
4, 61188, Note_on_c, 2, 65, 0
4, 61189, Note_on_c, 2, 68, 0
4, 61189, Note_on_c, 2, 70, 0
4, 61247, Note_on_c, 2, 68, 118
4, 61249, Note_on_c, 2, 72, 118
4, 61250, Note_on_c, 2, 65, 118
4, 61292, Note_on_c, 2, 65, 0
4, 61292, Note_on_c, 2, 68, 0
4, 61294, Note_on_c, 2, 65, 118
4, 61294, Note_on_c, 2, 72, 0
4, 61296, Note_on_c, 2, 73, 113
4, 61298, Note_on_c, 2, 68, 113
4, 61339, Note_on_c, 2, 65, 0
4, 61341, Note_on_c, 2, 73, 0
4, 61342, Note_on_c, 2, 75, 117
4, 61343, Note_on_c, 2, 65, 118
4, 61343, Note_on_c, 2, 68, 0
4, 61346, Note_on_c, 2, 68, 117
4, 61435, Note_on_c, 2, 75, 0
4, 61436, Note_on_c, 2, 65, 0
4, 61439, Note_on_c, 2, 68, 0
4, 61440, Note_on_c, 2, 65, 117
4, 61441, Note_on_c, 2, 73, 117
4, 61442, Note_on_c, 2, 68, 117
4, 61533, Note_on_c, 2, 65, 0
4, 61533, Note_on_c, 2, 68, 0
4, 61534, Note_on_c, 2, 73, 0
4, 61535, Note_on_c, 2, 68, 113
4, 61537, Note_on_c, 2, 72, 113
4, 61538, Note_on_c, 2, 65, 113
4, 61580, Note_on_c, 2, 68, 0
4, 61582, Note_on_c, 2, 72, 0
4, 61583, Note_on_c, 2, 65, 0
4, 61584, Note_on_c, 2, 68, 114
4, 61585, Note_on_c, 2, 70, 114
4, 61586, Note_on_c, 2, 65, 114
4, 61724, Note_on_c, 2, 65, 0
4, 61725, Note_on_c, 2, 68, 0
4, 61726, Note_on_c, 2, 65, 113
4, 61726, Note_on_c, 2, 70, 0
4, 61728, Note_on_c, 2, 68, 113
4, 61771, Note_on_c, 2, 65, 0
4, 61772, Note_on_c, 2, 68, 0
4, 61774, Note_on_c, 2, 68, 116
4, 61776, Note_on_c, 2, 65, 116
4, 61777, Note_on_c, 2, 70, 116
4, 61953, Note_on_c, 2, 68, 0
4, 61955, Note_on_c, 2, 65, 0
4, 61956, Note_on_c, 2, 70, 0
4, 62016, Note_on_c, 2, 68, 118
4, 62017, Note_on_c, 2, 65, 118
4, 62018, Note_on_c, 2, 72, 118
4, 62077, Note_on_c, 2, 65, 0
4, 62077, Note_on_c, 2, 68, 0
4, 62078, Note_on_c, 2, 73, 117
4, 62079, Note_on_c, 2, 65, 118
4, 62079, Note_on_c, 2, 72, 0
4, 62081, Note_on_c, 2, 68, 118
4, 62139, Note_on_c, 2, 73, 0
4, 62140, Note_on_c, 2, 65, 0
4, 62141, Note_on_c, 2, 68, 0
4, 62143, Note_on_c, 2, 68, 117
4, 62145, Note_on_c, 2, 65, 118
4, 62145, Note_on_c, 2, 75, 117
4, 62204, Note_on_c, 2, 68, 0
4, 62206, Note_on_c, 2, 65, 0
4, 62206, Note_on_c, 2, 75, 0
4, 62209, Note_on_c, 2, 65, 117
4, 62209, Note_on_c, 2, 73, 117
4, 62210, Note_on_c, 2, 68, 117
4, 62301, Note_on_c, 2, 68, 0
4, 62302, Note_on_c, 2, 65, 0
4, 62302, Note_on_c, 2, 73, 0
4, 62303, Note_on_c, 2, 68, 113
4, 62304, Note_on_c, 2, 72, 113
4, 62305, Note_on_c, 2, 65, 113
4, 62348, Note_on_c, 2, 68, 0
4, 62349, Note_on_c, 2, 72, 0
4, 62350, Note_on_c, 2, 65, 0
4, 62352, Note_on_c, 2, 65, 114
4, 62352, Note_on_c, 2, 68, 114
4, 62353, Note_on_c, 2, 70, 114
4, 62492, Note_on_c, 2, 68, 0
4, 62493, Note_on_c, 2, 65, 0
4, 62494, Note_on_c, 2, 68, 113
4, 62494, Note_on_c, 2, 70, 0
4, 62498, Note_on_c, 2, 65, 113
4, 62587, Note_on_c, 2, 68, 0
4, 62590, Note_on_c, 2, 68, 117
4, 62591, Note_on_c, 2, 65, 0
4, 62592, Note_on_c, 2, 72, 117
4, 62593, Note_on_c, 2, 63, 117
4, 62683, Note_on_c, 2, 68, 0
4, 62685, Note_on_c, 2, 72, 0
4, 62686, Note_on_c, 2, 63, 0
4, 62687, Note_on_c, 2, 68, 113
4, 62688, Note_on_c, 2, 63, 113
4, 62690, Note_on_c, 2, 72, 113
4, 62732, Note_on_c, 2, 68, 0
4, 62733, Note_on_c, 2, 63, 0
4, 62735, Note_on_c, 2, 68, 114
4, 62735, Note_on_c, 2, 72, 0
4, 62737, Note_on_c, 2, 63, 114
4, 62738, Note_on_c, 2, 72, 114
4, 62876, Note_on_c, 2, 63, 0
4, 62876, Note_on_c, 2, 68, 0
4, 62876, Note_on_c, 2, 72, 0
4, 62878, Note_on_c, 2, 63, 113
4, 62878, Note_on_c, 2, 72, 113
4, 62880, Note_on_c, 2, 68, 113
4, 63019, Note_on_c, 2, 63, 0
4, 63019, Note_on_c, 2, 72, 0
4, 63021, Note_on_c, 2, 68, 0
4, 63025, Note_on_c, 2, 66, 111
4, 63026, Note_on_c, 2, 61, 111
4, 63026, Note_on_c, 2, 70, 109
4, 63310, Note_on_c, 2, 66, 0
4, 63311, Note_on_c, 2, 61, 0
4, 63311, Note_on_c, 2, 70, 0
4, 68167, Control_c, 2, 120, 0
4, 68170, Control_c, 2, 123, 0
4, 68170, End_track
5, 0, Start_track
5, 0, Channel_prefix, 3
5, 0, Text_t, "Melody  "
5, 225, Control_c, 3, 121, 0
5, 276, Control_c, 3, 7, 98
5, 277, Control_c, 3, 10, 69
5, 278, Control_c, 3, 11, 127
5, 279, Control_c, 3, 91, 93
5, 280, Control_c, 3, 93, 113
5, 281, Pitch_bend_c, 3, 8192
5, 323, Control_c, 3, 0, 0
5, 378, Program_c, 3, 75
5, 861, Note_on_c, 3, 75, 110
5, 907, Note_on_c, 3, 75, 0
5, 960, Note_on_c, 3, 75, 110
5, 1051, Note_on_c, 3, 75, 0
5, 1054, Note_on_c, 3, 70, 110
5, 1142, Note_on_c, 3, 70, 0
5, 1145, Note_on_c, 3, 72, 108
5, 1271, Note_on_c, 3, 72, 0
5, 1626, Note_on_c, 3, 75, 110
5, 1672, Note_on_c, 3, 75, 0
5, 1728, Note_on_c, 3, 75, 110
5, 1821, Note_on_c, 3, 75, 0
5, 1826, Note_on_c, 3, 70, 110
5, 1912, Note_on_c, 3, 70, 0
5, 1915, Note_on_c, 3, 72, 108
5, 2041, Note_on_c, 3, 72, 0
5, 2303, Note_on_c, 3, 75, 110
5, 2486, Note_on_c, 3, 75, 0
5, 2501, Note_on_c, 3, 75, 104
5, 2591, Note_on_c, 3, 75, 0
5, 2595, Note_on_c, 3, 72, 108
5, 2874, Note_on_c, 3, 72, 0
5, 2877, Note_on_c, 3, 72, 106
5, 3066, Note_on_c, 3, 72, 0
5, 3072, Note_on_c, 3, 70, 110
5, 3255, Note_on_c, 3, 70, 0
5, 3267, Note_on_c, 3, 70, 110
5, 3358, Note_on_c, 3, 70, 0
5, 3361, Note_on_c, 3, 72, 110
5, 3592, Note_on_c, 3, 72, 0
5, 3650, Note_on_c, 3, 72, 112
5, 3695, Note_on_c, 3, 72, 0
5, 3699, Note_on_c, 3, 73, 107
5, 3742, Note_on_c, 3, 73, 0
5, 3745, Note_on_c, 3, 75, 111
5, 3836, Note_on_c, 3, 75, 0
5, 3839, Note_on_c, 3, 73, 111
5, 3932, Note_on_c, 3, 73, 0
5, 3937, Note_on_c, 3, 72, 107
5, 3982, Note_on_c, 3, 72, 0
5, 3987, Note_on_c, 3, 70, 108
5, 4122, Note_on_c, 3, 70, 0
5, 4125, Note_on_c, 3, 68, 107
5, 4170, Note_on_c, 3, 68, 0
5, 4174, Note_on_c, 3, 70, 110
5, 4353, Note_on_c, 3, 70, 0
5, 4416, Note_on_c, 3, 72, 112
5, 4458, Note_on_c, 3, 72, 0
5, 4461, Note_on_c, 3, 73, 107
5, 4506, Note_on_c, 3, 73, 0
5, 4515, Note_on_c, 3, 75, 111
5, 4608, Note_on_c, 3, 75, 0
5, 4611, Note_on_c, 3, 73, 111
5, 4698, Note_on_c, 3, 73, 0
5, 4701, Note_on_c, 3, 72, 107
5, 4746, Note_on_c, 3, 72, 0
5, 4755, Note_on_c, 3, 70, 108
5, 4892, Note_on_c, 3, 70, 0
5, 4895, Note_on_c, 3, 68, 107
5, 4940, Note_on_c, 3, 68, 0
5, 4947, Note_on_c, 3, 70, 110
5, 5126, Note_on_c, 3, 70, 0
5, 5182, Note_on_c, 3, 72, 112
5, 5243, Note_on_c, 3, 72, 0
5, 5251, Note_on_c, 3, 73, 107
5, 5308, Note_on_c, 3, 73, 0
5, 5311, Note_on_c, 3, 75, 111
5, 5370, Note_on_c, 3, 75, 0
5, 5373, Note_on_c, 3, 73, 111
5, 5466, Note_on_c, 3, 73, 0
5, 5475, Note_on_c, 3, 72, 107
5, 5520, Note_on_c, 3, 72, 0
5, 5523, Note_on_c, 3, 70, 108
5, 5664, Note_on_c, 3, 70, 0
5, 5667, Note_on_c, 3, 68, 107
5, 5757, Note_on_c, 3, 68, 0
5, 5760, Note_on_c, 3, 72, 111
5, 5852, Note_on_c, 3, 72, 0
5, 5855, Note_on_c, 3, 72, 107
5, 5900, Note_on_c, 3, 72, 0
5, 5906, Note_on_c, 3, 72, 108
5, 6045, Note_on_c, 3, 72, 0
5, 6048, Note_on_c, 3, 72, 107
5, 6189, Note_on_c, 3, 72, 0
5, 6195, Note_on_c, 3, 70, 107
5, 6481, Note_on_c, 3, 70, 0
5, 11518, Note_on_c, 3, 70, 111
5, 11536, Note_on_c, 3, 70, 0
5, 11571, Note_on_c, 3, 70, 111
5, 11586, Note_on_c, 3, 70, 0
5, 11615, Note_on_c, 3, 70, 111
5, 11629, Note_on_c, 3, 70, 0
5, 11667, Note_on_c, 3, 70, 112
5, 11729, Note_on_c, 3, 70, 0
5, 11762, Note_on_c, 3, 70, 112
5, 11778, Note_on_c, 3, 70, 0
5, 11806, Note_on_c, 3, 70, 117
5, 11848, Note_on_c, 3, 70, 0
5, 11859, Note_on_c, 3, 72, 111
5, 11897, Note_on_c, 3, 72, 0
5, 11902, Note_on_c, 3, 70, 115
5, 11982, Note_on_c, 3, 70, 0
5, 12003, Note_on_c, 3, 68, 110
5, 12064, Note_on_c, 3, 68, 0
5, 12093, Note_on_c, 3, 68, 116
5, 12172, Note_on_c, 3, 68, 0
5, 12288, Note_on_c, 3, 70, 111
5, 12303, Note_on_c, 3, 70, 0
5, 12338, Note_on_c, 3, 70, 111
5, 12352, Note_on_c, 3, 70, 0
5, 12385, Note_on_c, 3, 70, 111
5, 12394, Note_on_c, 3, 70, 0
5, 12431, Note_on_c, 3, 70, 117
5, 12488, Note_on_c, 3, 70, 0
5, 12527, Note_on_c, 3, 70, 107
5, 12541, Note_on_c, 3, 70, 0
5, 12574, Note_on_c, 3, 70, 114
5, 12615, Note_on_c, 3, 70, 0
5, 12623, Note_on_c, 3, 72, 110
5, 12654, Note_on_c, 3, 72, 0
5, 12669, Note_on_c, 3, 70, 114
5, 12741, Note_on_c, 3, 70, 0
5, 12770, Note_on_c, 3, 68, 116
5, 12854, Note_on_c, 3, 68, 0
5, 12864, Note_on_c, 3, 72, 115
5, 12949, Note_on_c, 3, 72, 0
5, 13053, Note_on_c, 3, 70, 111
5, 13071, Note_on_c, 3, 70, 0
5, 13104, Note_on_c, 3, 70, 111
5, 13119, Note_on_c, 3, 70, 0
5, 13151, Note_on_c, 3, 70, 111
5, 13165, Note_on_c, 3, 70, 0
5, 13202, Note_on_c, 3, 70, 112
5, 13264, Note_on_c, 3, 70, 0
5, 13293, Note_on_c, 3, 70, 112
5, 13309, Note_on_c, 3, 70, 0
5, 13344, Note_on_c, 3, 70, 117
5, 13386, Note_on_c, 3, 70, 0
5, 13391, Note_on_c, 3, 72, 111
5, 13429, Note_on_c, 3, 72, 0
5, 13442, Note_on_c, 3, 70, 115
5, 13522, Note_on_c, 3, 70, 0
5, 13537, Note_on_c, 3, 68, 110
5, 13598, Note_on_c, 3, 68, 0
5, 13632, Note_on_c, 3, 68, 116
5, 13712, Note_on_c, 3, 68, 0
5, 13821, Note_on_c, 3, 70, 111
5, 13839, Note_on_c, 3, 70, 0
5, 13873, Note_on_c, 3, 70, 111
5, 13888, Note_on_c, 3, 70, 0
5, 13921, Note_on_c, 3, 70, 111
5, 13935, Note_on_c, 3, 70, 0
5, 13965, Note_on_c, 3, 70, 112
5, 14027, Note_on_c, 3, 70, 0
5, 14063, Note_on_c, 3, 70, 112
5, 14079, Note_on_c, 3, 70, 0
5, 14109, Note_on_c, 3, 70, 117
5, 14151, Note_on_c, 3, 70, 0
5, 14158, Note_on_c, 3, 72, 111
5, 14196, Note_on_c, 3, 72, 0
5, 14205, Note_on_c, 3, 70, 115
5, 14285, Note_on_c, 3, 70, 0
5, 14305, Note_on_c, 3, 68, 110
5, 14366, Note_on_c, 3, 68, 0
5, 14402, Note_on_c, 3, 68, 116
5, 14482, Note_on_c, 3, 68, 0
5, 14494, Note_on_c, 3, 72, 114
5, 14634, Note_on_c, 3, 72, 0
5, 14643, Note_on_c, 3, 70, 111
5, 14687, Note_on_c, 3, 70, 0
5, 14690, Note_on_c, 3, 67, 123
5, 14754, Pitch_bend_c, 3, 11776
5, 14785, Pitch_bend_c, 3, 8192
5, 14947, Pitch_bend_c, 3, 11776
5, 14973, Pitch_bend_c, 3, 8192
5, 15044, Pitch_bend_c, 3, 11776
5, 15067, Pitch_bend_c, 3, 8192
5, 15223, Pitch_bend_c, 3, 11776
5, 15253, Pitch_bend_c, 3, 8192
5, 15309, Pitch_bend_c, 3, 11776
5, 15344, Pitch_bend_c, 3, 8192
5, 15456, Pitch_bend_c, 3, 0
5, 15639, Note_on_c, 3, 67, 0
5, 15704, Pitch_bend_c, 3, 8192
5, 15888, Note_on_c, 3, 68, 93
5, 15914, Note_on_c, 3, 68, 0
5, 15935, Note_on_c, 3, 72, 111
5, 15980, Note_on_c, 3, 72, 0
5, 15987, Note_on_c, 3, 73, 114
5, 16032, Note_on_c, 3, 73, 0
5, 16035, Note_on_c, 3, 75, 116
5, 16128, Note_on_c, 3, 75, 0
5, 16131, Note_on_c, 3, 73, 116
5, 16216, Note_on_c, 3, 73, 0
5, 16227, Note_on_c, 3, 72, 113
5, 16268, Note_on_c, 3, 72, 0
5, 16271, Note_on_c, 3, 70, 110
5, 16406, Note_on_c, 3, 70, 0
5, 16417, Note_on_c, 3, 68, 106
5, 16461, Note_on_c, 3, 68, 0
5, 16464, Note_on_c, 3, 70, 106
5, 16635, Note_on_c, 3, 70, 0
5, 16682, Pitch_bend_c, 3, 16256
5, 16705, Note_on_c, 3, 70, 121
5, 16767, Pitch_bend_c, 3, 8192
5, 16837, Pitch_bend_c, 3, 0
5, 16894, Note_on_c, 3, 70, 0
5, 16898, Note_on_c, 3, 70, 116
5, 16978, Pitch_bend_c, 3, 6016
5, 16985, Pitch_bend_c, 3, 7680
5, 16992, Pitch_bend_c, 3, 8192
5, 17253, Note_on_c, 3, 70, 0
5, 17665, Note_on_c, 3, 70, 111
5, 17697, Note_on_c, 3, 70, 0
5, 17710, Note_on_c, 3, 70, 111
5, 17742, Note_on_c, 3, 70, 0
5, 17758, Note_on_c, 3, 70, 111
5, 17790, Note_on_c, 3, 70, 0
5, 17807, Note_on_c, 3, 70, 112
5, 17869, Note_on_c, 3, 70, 0
5, 17902, Note_on_c, 3, 70, 112
5, 17934, Note_on_c, 3, 70, 0
5, 17951, Note_on_c, 3, 70, 117
5, 17993, Note_on_c, 3, 70, 0
5, 17998, Note_on_c, 3, 72, 111
5, 18036, Note_on_c, 3, 72, 0
5, 18048, Note_on_c, 3, 70, 115
5, 18128, Note_on_c, 3, 70, 0
5, 18141, Note_on_c, 3, 68, 110
5, 18202, Note_on_c, 3, 68, 0
5, 18242, Note_on_c, 3, 68, 116
5, 18369, Note_on_c, 3, 68, 0
5, 18384, Note_on_c, 3, 63, 110
5, 18429, Note_on_c, 3, 63, 0
5, 18435, Note_on_c, 3, 70, 111
5, 18467, Note_on_c, 3, 70, 0
5, 18479, Note_on_c, 3, 70, 111
5, 18511, Note_on_c, 3, 70, 0
5, 18525, Note_on_c, 3, 70, 111
5, 18557, Note_on_c, 3, 70, 0
5, 18578, Note_on_c, 3, 70, 117
5, 18635, Note_on_c, 3, 70, 0
5, 18673, Note_on_c, 3, 70, 107
5, 18705, Note_on_c, 3, 70, 0
5, 18722, Note_on_c, 3, 70, 114
5, 18763, Note_on_c, 3, 70, 0
5, 18770, Note_on_c, 3, 72, 110
5, 18802, Note_on_c, 3, 72, 0
5, 18818, Note_on_c, 3, 70, 114
5, 18890, Note_on_c, 3, 70, 0
5, 18913, Note_on_c, 3, 68, 116
5, 18997, Note_on_c, 3, 68, 0
5, 19005, Note_on_c, 3, 72, 115
5, 19090, Note_on_c, 3, 72, 0
5, 19154, Note_on_c, 3, 63, 83
5, 19199, Note_on_c, 3, 63, 0
5, 19203, Note_on_c, 3, 70, 111
5, 19235, Note_on_c, 3, 70, 0
5, 19251, Note_on_c, 3, 70, 111
5, 19283, Note_on_c, 3, 70, 0
5, 19299, Note_on_c, 3, 70, 111
5, 19331, Note_on_c, 3, 70, 0
5, 19346, Note_on_c, 3, 70, 112
5, 19408, Note_on_c, 3, 70, 0
5, 19443, Note_on_c, 3, 68, 112
5, 19480, Note_on_c, 3, 68, 0
5, 19485, Note_on_c, 3, 70, 117
5, 19527, Note_on_c, 3, 70, 0
5, 19535, Note_on_c, 3, 72, 111
5, 19573, Note_on_c, 3, 72, 0
5, 19584, Note_on_c, 3, 70, 115
5, 19664, Note_on_c, 3, 70, 0
5, 19677, Note_on_c, 3, 68, 110
5, 19738, Note_on_c, 3, 68, 0
5, 19777, Note_on_c, 3, 68, 116
5, 19857, Note_on_c, 3, 68, 0
5, 19923, Note_on_c, 3, 63, 83
5, 19968, Note_on_c, 3, 63, 0
5, 19971, Note_on_c, 3, 70, 111
5, 20003, Note_on_c, 3, 70, 0
5, 20015, Note_on_c, 3, 70, 111
5, 20047, Note_on_c, 3, 70, 0
5, 20066, Note_on_c, 3, 70, 111
5, 20098, Note_on_c, 3, 70, 0
5, 20109, Note_on_c, 3, 70, 112
5, 20171, Note_on_c, 3, 70, 0
5, 20211, Note_on_c, 3, 70, 112
5, 20243, Note_on_c, 3, 70, 0
5, 20253, Note_on_c, 3, 70, 117
5, 20295, Note_on_c, 3, 70, 0
5, 20301, Note_on_c, 3, 72, 111
5, 20339, Note_on_c, 3, 72, 0
5, 20355, Note_on_c, 3, 70, 115
5, 20435, Note_on_c, 3, 70, 0
5, 20450, Note_on_c, 3, 68, 110
5, 20511, Note_on_c, 3, 68, 0
5, 20544, Note_on_c, 3, 68, 116
5, 20624, Note_on_c, 3, 68, 0
5, 20642, Note_on_c, 3, 72, 114
5, 20782, Note_on_c, 3, 72, 0
5, 20787, Note_on_c, 3, 70, 111
5, 20828, Note_on_c, 3, 70, 0
5, 20831, Note_on_c, 3, 67, 123
5, 20880, Pitch_bend_c, 3, 11776
5, 20928, Pitch_bend_c, 3, 8192
5, 21072, Pitch_bend_c, 3, 11776
5, 21119, Pitch_bend_c, 3, 8192
5, 21172, Pitch_bend_c, 3, 11776
5, 21216, Pitch_bend_c, 3, 8192
5, 21363, Pitch_bend_c, 3, 11776
5, 21411, Pitch_bend_c, 3, 8192
5, 21454, Pitch_bend_c, 3, 11776
5, 21501, Pitch_bend_c, 3, 8192
5, 21600, Pitch_bend_c, 3, 0
5, 21780, Note_on_c, 3, 67, 0
5, 21848, Pitch_bend_c, 3, 8192
5, 22033, Note_on_c, 3, 68, 93
5, 22065, Note_on_c, 3, 68, 0
5, 22083, Note_on_c, 3, 72, 111
5, 22123, Note_on_c, 3, 72, 0
5, 22126, Note_on_c, 3, 73, 114
5, 22170, Note_on_c, 3, 73, 0
5, 22173, Note_on_c, 3, 75, 116
5, 22266, Note_on_c, 3, 75, 0
5, 22270, Note_on_c, 3, 73, 116
5, 22355, Note_on_c, 3, 73, 0
5, 22367, Note_on_c, 3, 72, 113
5, 22410, Note_on_c, 3, 72, 0
5, 22413, Note_on_c, 3, 70, 110
5, 22548, Note_on_c, 3, 70, 0
5, 22558, Note_on_c, 3, 68, 106
5, 22603, Note_on_c, 3, 68, 0
5, 22606, Note_on_c, 3, 70, 106
5, 22777, Note_on_c, 3, 70, 0
5, 22801, Note_on_c, 3, 70, 106
5, 22846, Note_on_c, 3, 70, 0
5, 22847, Pitch_bend_c, 3, 16256
5, 22851, Note_on_c, 3, 70, 121
5, 22911, Pitch_bend_c, 3, 8192
5, 22981, Pitch_bend_c, 3, 0
5, 23036, Note_on_c, 3, 70, 0
5, 23039, Note_on_c, 3, 70, 116
5, 23122, Pitch_bend_c, 3, 6016
5, 23129, Pitch_bend_c, 3, 7680
5, 23136, Pitch_bend_c, 3, 8192
5, 23394, Note_on_c, 3, 70, 0
5, 23517, Note_on_c, 3, 72, 121
5, 23581, Note_on_c, 3, 72, 0
5, 23616, Note_on_c, 3, 72, 120
5, 23681, Note_on_c, 3, 72, 0
5, 23710, Note_on_c, 3, 77, 121
5, 23803, Note_on_c, 3, 77, 0
5, 23806, Note_on_c, 3, 75, 122
5, 23900, Note_on_c, 3, 75, 0
5, 24381, Note_on_c, 3, 72, 117
5, 24441, Note_on_c, 3, 72, 0
5, 24448, Note_on_c, 3, 73, 120
5, 24502, Note_on_c, 3, 73, 0
5, 24512, Note_on_c, 3, 77, 120
5, 24573, Note_on_c, 3, 77, 0
5, 24576, Note_on_c, 3, 75, 122
5, 24706, Note_on_c, 3, 75, 0
5, 25152, Note_on_c, 3, 72, 116
5, 25188, Note_on_c, 3, 72, 0
5, 25202, Note_on_c, 3, 73, 116
5, 25234, Note_on_c, 3, 73, 0
5, 25245, Note_on_c, 3, 75, 114
5, 25289, Note_on_c, 3, 75, 0
5, 25294, Note_on_c, 3, 75, 116
5, 25387, Note_on_c, 3, 75, 0
5, 25395, Note_on_c, 3, 73, 104
5, 25473, Note_on_c, 3, 73, 0
5, 25487, Note_on_c, 3, 73, 114
5, 25580, Note_on_c, 3, 73, 0
5, 25586, Note_on_c, 3, 72, 109
5, 25673, Note_on_c, 3, 72, 0
5, 25680, Note_on_c, 3, 72, 112
5, 25773, Note_on_c, 3, 72, 0
5, 25778, Note_on_c, 3, 70, 112
5, 25871, Note_on_c, 3, 70, 0
5, 25875, Note_on_c, 3, 70, 112
5, 25965, Note_on_c, 3, 70, 0
5, 25968, Note_on_c, 3, 72, 112
5, 26013, Note_on_c, 3, 72, 0
5, 26017, Note_on_c, 3, 70, 112
5, 26263, Pitch_bend_c, 3, 16256
5, 26308, Pitch_bend_c, 3, 8192
5, 26353, Pitch_bend_c, 3, 16256
5, 26399, Pitch_bend_c, 3, 8192
5, 26600, Pitch_bend_c, 3, 0
5, 26685, Note_on_c, 3, 70, 0
5, 26687, Pitch_bend_c, 3, 8192
5, 26688, Note_on_c, 3, 72, 112
5, 26732, Note_on_c, 3, 72, 0
5, 26735, Note_on_c, 3, 73, 107
5, 26778, Note_on_c, 3, 73, 0
5, 26781, Note_on_c, 3, 75, 111
5, 26874, Note_on_c, 3, 75, 0
5, 26877, Note_on_c, 3, 73, 111
5, 26970, Note_on_c, 3, 73, 0
5, 26976, Note_on_c, 3, 72, 107
5, 27020, Note_on_c, 3, 72, 0
5, 27023, Note_on_c, 3, 70, 108
5, 27163, Note_on_c, 3, 70, 0
5, 27166, Note_on_c, 3, 68, 107
5, 27211, Note_on_c, 3, 68, 0
5, 27218, Note_on_c, 3, 70, 110
5, 27397, Note_on_c, 3, 70, 0
5, 27453, Note_on_c, 3, 72, 112
5, 27498, Note_on_c, 3, 72, 0
5, 27501, Note_on_c, 3, 73, 107
5, 27546, Note_on_c, 3, 73, 0
5, 27551, Note_on_c, 3, 75, 111
5, 27644, Note_on_c, 3, 75, 0
5, 27648, Note_on_c, 3, 73, 111
5, 27741, Note_on_c, 3, 73, 0
5, 27744, Note_on_c, 3, 72, 107
5, 27789, Note_on_c, 3, 72, 0
5, 27792, Note_on_c, 3, 70, 108
5, 27933, Note_on_c, 3, 70, 0
5, 27938, Note_on_c, 3, 68, 107
5, 27980, Note_on_c, 3, 68, 0
5, 27983, Note_on_c, 3, 70, 110
5, 28162, Note_on_c, 3, 70, 0
5, 28225, Note_on_c, 3, 72, 112
5, 28285, Note_on_c, 3, 72, 0
5, 28288, Note_on_c, 3, 73, 107
5, 28349, Note_on_c, 3, 73, 0
5, 28355, Note_on_c, 3, 75, 111
5, 28416, Note_on_c, 3, 75, 0
5, 28419, Note_on_c, 3, 73, 111
5, 28510, Note_on_c, 3, 73, 0
5, 28513, Note_on_c, 3, 72, 107
5, 28557, Note_on_c, 3, 72, 0
5, 28560, Note_on_c, 3, 70, 108
5, 28701, Note_on_c, 3, 70, 0
5, 28707, Note_on_c, 3, 68, 107
5, 28798, Note_on_c, 3, 68, 0
5, 28801, Note_on_c, 3, 72, 111
5, 28894, Note_on_c, 3, 72, 0
5, 28899, Note_on_c, 3, 72, 107
5, 28941, Note_on_c, 3, 72, 0
5, 28944, Note_on_c, 3, 72, 108
5, 29084, Note_on_c, 3, 72, 0
5, 29087, Note_on_c, 3, 72, 107
5, 29228, Note_on_c, 3, 72, 0
5, 29232, Note_on_c, 3, 70, 107
5, 29518, Note_on_c, 3, 70, 0
5, 29902, Note_on_c, 3, 63, 111
5, 29934, Note_on_c, 3, 63, 0
5, 29951, Note_on_c, 3, 70, 111
5, 29983, Note_on_c, 3, 70, 0
5, 29999, Note_on_c, 3, 70, 111
5, 30031, Note_on_c, 3, 70, 0
5, 30050, Note_on_c, 3, 70, 111
5, 30082, Note_on_c, 3, 70, 0
5, 30096, Note_on_c, 3, 70, 112
5, 30158, Note_on_c, 3, 70, 0
5, 30195, Note_on_c, 3, 70, 112
5, 30227, Note_on_c, 3, 70, 0
5, 30237, Note_on_c, 3, 70, 117
5, 30279, Note_on_c, 3, 70, 0
5, 30289, Note_on_c, 3, 72, 111
5, 30327, Note_on_c, 3, 72, 0
5, 30338, Note_on_c, 3, 70, 115
5, 30418, Note_on_c, 3, 70, 0
5, 30434, Note_on_c, 3, 68, 110
5, 30495, Note_on_c, 3, 68, 0
5, 30529, Note_on_c, 3, 68, 116
5, 30656, Note_on_c, 3, 68, 0
5, 30675, Note_on_c, 3, 63, 110
5, 30717, Note_on_c, 3, 63, 0
5, 30720, Note_on_c, 3, 70, 111
5, 30752, Note_on_c, 3, 70, 0
5, 30769, Note_on_c, 3, 70, 111
5, 30801, Note_on_c, 3, 70, 0
5, 30817, Note_on_c, 3, 70, 111
5, 30849, Note_on_c, 3, 70, 0
5, 30867, Note_on_c, 3, 70, 117
5, 30924, Note_on_c, 3, 70, 0
5, 30963, Note_on_c, 3, 70, 107
5, 30995, Note_on_c, 3, 70, 0
5, 31009, Note_on_c, 3, 70, 114
5, 31050, Note_on_c, 3, 70, 0
5, 31055, Note_on_c, 3, 72, 110
5, 31087, Note_on_c, 3, 72, 0
5, 31105, Note_on_c, 3, 70, 114
5, 31177, Note_on_c, 3, 70, 0
5, 31202, Note_on_c, 3, 68, 116
5, 31286, Note_on_c, 3, 68, 0
5, 31298, Note_on_c, 3, 72, 115
5, 31383, Note_on_c, 3, 72, 0
5, 31488, Note_on_c, 3, 70, 111
5, 31520, Note_on_c, 3, 70, 0
5, 31537, Note_on_c, 3, 70, 111
5, 31569, Note_on_c, 3, 70, 0
5, 31584, Note_on_c, 3, 70, 111
5, 31616, Note_on_c, 3, 70, 0
5, 31631, Note_on_c, 3, 70, 112
5, 31693, Note_on_c, 3, 70, 0
5, 31731, Note_on_c, 3, 70, 112
5, 31768, Note_on_c, 3, 70, 0
5, 31774, Note_on_c, 3, 70, 117
5, 31816, Note_on_c, 3, 70, 0
5, 31827, Note_on_c, 3, 72, 111
5, 31865, Note_on_c, 3, 72, 0
5, 31875, Note_on_c, 3, 70, 115
5, 31955, Note_on_c, 3, 70, 0
5, 31971, Note_on_c, 3, 68, 110
5, 32032, Note_on_c, 3, 68, 0
5, 32065, Note_on_c, 3, 68, 116
5, 32145, Note_on_c, 3, 68, 0
5, 32210, Note_on_c, 3, 63, 83
5, 32252, Note_on_c, 3, 63, 0
5, 32255, Note_on_c, 3, 70, 111
5, 32287, Note_on_c, 3, 70, 0
5, 32301, Note_on_c, 3, 70, 111
5, 32333, Note_on_c, 3, 70, 0
5, 32350, Note_on_c, 3, 70, 111
5, 32382, Note_on_c, 3, 70, 0
5, 32400, Note_on_c, 3, 70, 112
5, 32462, Note_on_c, 3, 70, 0
5, 32499, Note_on_c, 3, 70, 112
5, 32531, Note_on_c, 3, 70, 0
5, 32543, Note_on_c, 3, 70, 117
5, 32585, Note_on_c, 3, 70, 0
5, 32592, Note_on_c, 3, 72, 111
5, 32630, Note_on_c, 3, 72, 0
5, 32642, Note_on_c, 3, 70, 115
5, 32722, Note_on_c, 3, 70, 0
5, 32739, Note_on_c, 3, 68, 110
5, 32800, Note_on_c, 3, 68, 0
5, 32829, Note_on_c, 3, 68, 116
5, 32909, Note_on_c, 3, 68, 0
5, 32928, Note_on_c, 3, 72, 114
5, 33068, Note_on_c, 3, 72, 0
5, 33071, Note_on_c, 3, 70, 111
5, 33116, Note_on_c, 3, 70, 0
5, 33119, Note_on_c, 3, 67, 123
5, 33168, Pitch_bend_c, 3, 11776
5, 33216, Pitch_bend_c, 3, 8192
5, 33360, Pitch_bend_c, 3, 11776
5, 33407, Pitch_bend_c, 3, 8192
5, 33460, Pitch_bend_c, 3, 11776
5, 33504, Pitch_bend_c, 3, 8192
5, 33651, Pitch_bend_c, 3, 11776
5, 33699, Pitch_bend_c, 3, 8192
5, 33742, Pitch_bend_c, 3, 11776
5, 33789, Pitch_bend_c, 3, 8192
5, 33888, Pitch_bend_c, 3, 0
5, 34068, Note_on_c, 3, 67, 0
5, 34136, Pitch_bend_c, 3, 8192
5, 34318, Note_on_c, 3, 68, 93
5, 34350, Note_on_c, 3, 68, 0
5, 34365, Note_on_c, 3, 72, 111
5, 34410, Note_on_c, 3, 72, 0
5, 34415, Note_on_c, 3, 73, 114
5, 34460, Note_on_c, 3, 73, 0
5, 34467, Note_on_c, 3, 75, 116
5, 34557, Note_on_c, 3, 75, 0
5, 34560, Note_on_c, 3, 73, 116
5, 34645, Note_on_c, 3, 73, 0
5, 34657, Note_on_c, 3, 72, 113
5, 34700, Note_on_c, 3, 72, 0
5, 34703, Note_on_c, 3, 70, 110
5, 34838, Note_on_c, 3, 70, 0
5, 34848, Note_on_c, 3, 68, 106
5, 34893, Note_on_c, 3, 68, 0
5, 34897, Note_on_c, 3, 70, 106
5, 35068, Note_on_c, 3, 70, 0
5, 35087, Note_on_c, 3, 70, 106
5, 35131, Note_on_c, 3, 70, 0
5, 35134, Note_on_c, 3, 70, 121
5, 35135, Pitch_bend_c, 3, 16256
5, 35199, Pitch_bend_c, 3, 8192
5, 35269, Pitch_bend_c, 3, 0
5, 35323, Note_on_c, 3, 70, 0
5, 35328, Note_on_c, 3, 70, 116
5, 35410, Pitch_bend_c, 3, 6016
5, 35417, Pitch_bend_c, 3, 7680
5, 35424, Pitch_bend_c, 3, 8192
5, 35683, Note_on_c, 3, 70, 0
5, 35809, Note_on_c, 3, 77, 121
5, 35873, Note_on_c, 3, 77, 0
5, 35904, Note_on_c, 3, 77, 120
5, 35969, Note_on_c, 3, 77, 0
5, 36003, Note_on_c, 3, 77, 121
5, 36093, Note_on_c, 3, 77, 0
5, 36096, Note_on_c, 3, 75, 122
5, 36190, Note_on_c, 3, 75, 0
5, 36669, Note_on_c, 3, 72, 117
5, 36729, Note_on_c, 3, 72, 0
5, 36735, Note_on_c, 3, 73, 120
5, 36789, Note_on_c, 3, 73, 0
5, 36798, Note_on_c, 3, 77, 120
5, 36859, Note_on_c, 3, 77, 0
5, 36862, Note_on_c, 3, 75, 122
5, 36992, Note_on_c, 3, 75, 0
5, 37443, Note_on_c, 3, 72, 116
5, 37479, Note_on_c, 3, 72, 0
5, 37491, Note_on_c, 3, 73, 116
5, 37523, Note_on_c, 3, 73, 0
5, 37535, Note_on_c, 3, 75, 114
5, 37579, Note_on_c, 3, 75, 0
5, 37584, Note_on_c, 3, 75, 116
5, 37677, Note_on_c, 3, 75, 0
5, 37680, Note_on_c, 3, 73, 104
5, 37758, Note_on_c, 3, 73, 0
5, 37774, Note_on_c, 3, 73, 114
5, 37867, Note_on_c, 3, 73, 0
5, 37873, Note_on_c, 3, 72, 109
5, 37960, Note_on_c, 3, 72, 0
5, 37970, Note_on_c, 3, 72, 112
5, 38063, Note_on_c, 3, 72, 0
5, 38066, Note_on_c, 3, 70, 112
5, 38154, Note_on_c, 3, 70, 0
5, 38157, Note_on_c, 3, 70, 112
5, 38250, Note_on_c, 3, 70, 0
5, 38257, Note_on_c, 3, 72, 112
5, 38300, Note_on_c, 3, 72, 0
5, 38303, Note_on_c, 3, 70, 112
5, 38551, Pitch_bend_c, 3, 16256
5, 38596, Pitch_bend_c, 3, 8192
5, 38641, Pitch_bend_c, 3, 16256
5, 38687, Pitch_bend_c, 3, 8192
5, 38888, Pitch_bend_c, 3, 0
5, 38972, Note_on_c, 3, 70, 0
5, 38975, Pitch_bend_c, 3, 8192
5, 38976, Note_on_c, 3, 72, 112
5, 39021, Note_on_c, 3, 72, 0
5, 39027, Note_on_c, 3, 73, 107
5, 39072, Note_on_c, 3, 73, 0
5, 39075, Note_on_c, 3, 75, 111
5, 39165, Note_on_c, 3, 75, 0
5, 39168, Note_on_c, 3, 73, 111
5, 39261, Note_on_c, 3, 73, 0
5, 39264, Note_on_c, 3, 72, 107
5, 39306, Note_on_c, 3, 72, 0
5, 39309, Note_on_c, 3, 70, 108
5, 39450, Note_on_c, 3, 70, 0
5, 39455, Note_on_c, 3, 68, 107
5, 39500, Note_on_c, 3, 68, 0
5, 39507, Note_on_c, 3, 70, 110
5, 39686, Note_on_c, 3, 70, 0
5, 39747, Note_on_c, 3, 72, 112
5, 39792, Note_on_c, 3, 72, 0
5, 39795, Note_on_c, 3, 73, 107
5, 39838, Note_on_c, 3, 73, 0
5, 39841, Note_on_c, 3, 75, 111
5, 39934, Note_on_c, 3, 75, 0
5, 39939, Note_on_c, 3, 73, 111
5, 40028, Note_on_c, 3, 73, 0
5, 40031, Note_on_c, 3, 72, 107
5, 40074, Note_on_c, 3, 72, 0
5, 40077, Note_on_c, 3, 70, 108
5, 40218, Note_on_c, 3, 70, 0
5, 40226, Note_on_c, 3, 68, 107
5, 40270, Note_on_c, 3, 68, 0
5, 40273, Note_on_c, 3, 70, 110
5, 40452, Note_on_c, 3, 70, 0
5, 40509, Note_on_c, 3, 72, 112
5, 40570, Note_on_c, 3, 72, 0
5, 40577, Note_on_c, 3, 73, 107
5, 40638, Note_on_c, 3, 73, 0
5, 40641, Note_on_c, 3, 75, 111
5, 40702, Note_on_c, 3, 75, 0
5, 40707, Note_on_c, 3, 73, 111
5, 40797, Note_on_c, 3, 73, 0
5, 40800, Note_on_c, 3, 72, 107
5, 40844, Note_on_c, 3, 72, 0
5, 40847, Note_on_c, 3, 70, 108
5, 40987, Note_on_c, 3, 70, 0
5, 40990, Note_on_c, 3, 68, 107
5, 41083, Note_on_c, 3, 68, 0
5, 41091, Note_on_c, 3, 72, 111
5, 41178, Note_on_c, 3, 72, 0
5, 41181, Note_on_c, 3, 72, 107
5, 41226, Note_on_c, 3, 72, 0
5, 41232, Note_on_c, 3, 72, 108
5, 41370, Note_on_c, 3, 72, 0
5, 41373, Note_on_c, 3, 72, 107
5, 41514, Note_on_c, 3, 72, 0
5, 41520, Note_on_c, 3, 70, 107
5, 41806, Note_on_c, 3, 70, 0
5, 42095, Note_on_c, 3, 73, 114
5, 42109, Note_on_c, 3, 73, 0
5, 42144, Note_on_c, 3, 73, 118
5, 42179, Note_on_c, 3, 73, 0
5, 42191, Note_on_c, 3, 75, 114
5, 42216, Note_on_c, 3, 75, 0
5, 42237, Note_on_c, 3, 77, 118
5, 42330, Note_on_c, 3, 77, 0
5, 42339, Note_on_c, 3, 75, 105
5, 42359, Note_on_c, 3, 75, 0
5, 42387, Note_on_c, 3, 77, 114
5, 42475, Note_on_c, 3, 77, 0
5, 42478, Note_on_c, 3, 75, 107
5, 42494, Note_on_c, 3, 75, 0
5, 42529, Note_on_c, 3, 77, 112
5, 42570, Note_on_c, 3, 77, 0
5, 42573, Note_on_c, 3, 75, 110
5, 42608, Note_on_c, 3, 75, 0
5, 42817, Note_on_c, 3, 77, 113
5, 42864, Note_on_c, 3, 77, 0
5, 42881, Note_on_c, 3, 77, 115
5, 42934, Note_on_c, 3, 77, 0
5, 42943, Note_on_c, 3, 77, 116
5, 43002, Note_on_c, 3, 77, 0
5, 43009, Note_on_c, 3, 75, 114
5, 43102, Note_on_c, 3, 75, 0
5, 43107, Note_on_c, 3, 73, 105
5, 43125, Note_on_c, 3, 73, 0
5, 43153, Note_on_c, 3, 75, 113
5, 43234, Note_on_c, 3, 75, 0
5, 43251, Note_on_c, 3, 73, 105
5, 43265, Note_on_c, 3, 73, 0
5, 43297, Note_on_c, 3, 75, 110
5, 43359, Pitch_bend_c, 3, 13696
5, 43373, Pitch_bend_c, 3, 16256
5, 43406, Note_on_c, 3, 75, 0
5, 43464, Pitch_bend_c, 3, 8192
5, 43714, Note_on_c, 3, 75, 117
5, 43755, Note_on_c, 3, 75, 0
5, 43776, Note_on_c, 3, 75, 114
5, 43822, Note_on_c, 3, 75, 0
5, 43839, Note_on_c, 3, 75, 112
5, 43886, Note_on_c, 3, 75, 0
5, 43904, Note_on_c, 3, 75, 114
5, 43947, Note_on_c, 3, 75, 0
5, 43971, Note_on_c, 3, 75, 114
5, 44038, Note_on_c, 3, 75, 0
5, 44099, Note_on_c, 3, 75, 113
5, 44130, Note_on_c, 3, 75, 0
5, 44162, Note_on_c, 3, 75, 116
5, 44208, Note_on_c, 3, 75, 0
5, 44222, Note_on_c, 3, 75, 116
5, 44265, Note_on_c, 3, 75, 0
5, 44287, Note_on_c, 3, 75, 116
5, 44322, Note_on_c, 3, 75, 0
5, 44355, Note_on_c, 3, 75, 117
5, 44411, Note_on_c, 3, 75, 0
5, 44414, Note_on_c, 3, 73, 117
5, 44475, Note_on_c, 3, 73, 0
5, 44478, Note_on_c, 3, 75, 118
5, 44538, Note_on_c, 3, 75, 0
5, 44541, Note_on_c, 3, 77, 117
5, 44602, Note_on_c, 3, 77, 0
5, 44606, Note_on_c, 3, 75, 113
5, 44657, Note_on_c, 3, 75, 0
5, 44672, Note_on_c, 3, 77, 115
5, 44730, Note_on_c, 3, 77, 0
5, 44734, Note_on_c, 3, 79, 116
5, 44795, Note_on_c, 3, 79, 0
5, 44798, Note_on_c, 3, 77, 109
5, 44829, Pitch_bend_c, 3, 7296
5, 44836, Pitch_bend_c, 3, 4096
5, 44844, Pitch_bend_c, 3, 512
5, 44851, Pitch_bend_c, 3, 0
5, 44875, Note_on_c, 3, 77, 0
5, 44878, Pitch_bend_c, 3, 8192
5, 44879, Note_on_c, 3, 75, 112
5, 44920, Note_on_c, 3, 75, 0
5, 44928, Note_on_c, 3, 84, 114
5, 45103, Note_on_c, 3, 84, 0
5, 45123, Note_on_c, 3, 82, 112
5, 45205, Note_on_c, 3, 82, 0
5, 45213, Note_on_c, 3, 80, 112
5, 45290, Note_on_c, 3, 80, 0
5, 45312, Note_on_c, 3, 80, 117
5, 45357, Note_on_c, 3, 80, 0
5, 45360, Note_on_c, 3, 77, 95
5, 45397, Pitch_bend_c, 3, 7680
5, 45405, Pitch_bend_c, 3, 4992
5, 45413, Pitch_bend_c, 3, 2304
5, 45421, Pitch_bend_c, 3, 384
5, 45428, Pitch_bend_c, 3, 0
5, 45432, Note_on_c, 3, 77, 0
5, 45498, Pitch_bend_c, 3, 8192
5, 48719, Note_on_c, 3, 77, 119
5, 48784, Note_on_c, 3, 77, 0
5, 48814, Note_on_c, 3, 77, 117
5, 48839, Note_on_c, 3, 77, 0
5, 48863, Note_on_c, 3, 77, 117
5, 48885, Note_on_c, 3, 77, 0
5, 48913, Note_on_c, 3, 77, 118
5, 48940, Note_on_c, 3, 77, 0
5, 48956, Pitch_bend_c, 3, 256
5, 48960, Note_on_c, 3, 77, 109
5, 48963, Pitch_bend_c, 3, 1664
5, 48970, Pitch_bend_c, 3, 6272
5, 48977, Pitch_bend_c, 3, 7680
5, 48985, Pitch_bend_c, 3, 8192
5, 49053, Note_on_c, 3, 77, 0
5, 49059, Note_on_c, 3, 75, 109
5, 49131, Note_on_c, 3, 75, 0
5, 49486, Note_on_c, 3, 77, 119
5, 49551, Note_on_c, 3, 77, 0
5, 49585, Note_on_c, 3, 77, 117
5, 49610, Note_on_c, 3, 77, 0
5, 49634, Note_on_c, 3, 77, 117
5, 49656, Note_on_c, 3, 77, 0
5, 49679, Note_on_c, 3, 77, 118
5, 49706, Note_on_c, 3, 77, 0
5, 49724, Pitch_bend_c, 3, 256
5, 49725, Note_on_c, 3, 77, 100
5, 49731, Pitch_bend_c, 3, 1664
5, 49738, Pitch_bend_c, 3, 6272
5, 49745, Pitch_bend_c, 3, 7680
5, 49753, Pitch_bend_c, 3, 8192
5, 49818, Note_on_c, 3, 77, 0
5, 49827, Note_on_c, 3, 75, 104
5, 49899, Note_on_c, 3, 75, 0
5, 50018, Note_on_c, 3, 77, 114
5, 50058, Note_on_c, 3, 77, 0
5, 50061, Note_on_c, 3, 75, 113
5, 50106, Note_on_c, 3, 75, 0
5, 50109, Note_on_c, 3, 77, 115
5, 50186, Note_on_c, 3, 77, 0
5, 50211, Note_on_c, 3, 72, 108
5, 50291, Note_on_c, 3, 72, 0
5, 50400, Note_on_c, 3, 72, 115
5, 50426, Note_on_c, 3, 72, 0
5, 50448, Note_on_c, 3, 72, 116
5, 50474, Note_on_c, 3, 72, 0
5, 50494, Note_on_c, 3, 72, 115
5, 50551, Note_on_c, 3, 72, 0
5, 50594, Note_on_c, 3, 72, 114
5, 50734, Note_on_c, 3, 72, 0
5, 50737, Note_on_c, 3, 70, 112
5, 50943, Note_on_c, 3, 70, 0
5, 51120, Note_on_c, 3, 77, 110
5, 51136, Note_on_c, 3, 77, 0
5, 51171, Note_on_c, 3, 77, 114
5, 51188, Note_on_c, 3, 77, 0
5, 51219, Note_on_c, 3, 77, 115
5, 51235, Note_on_c, 3, 77, 0
5, 51265, Note_on_c, 3, 77, 117
5, 51338, Note_on_c, 3, 77, 0
5, 51357, Note_on_c, 3, 77, 115
5, 51375, Note_on_c, 3, 77, 0
5, 51408, Note_on_c, 3, 77, 118
5, 51501, Note_on_c, 3, 77, 0
5, 51506, Note_on_c, 3, 75, 112
5, 51584, Note_on_c, 3, 75, 0
5, 51597, Note_on_c, 3, 75, 108
5, 51611, Note_on_c, 3, 75, 0
5, 51937, Note_on_c, 3, 72, 105
5, 51949, Note_on_c, 3, 72, 0
5, 51984, Note_on_c, 3, 72, 111
5, 51998, Note_on_c, 3, 72, 0
5, 52031, Note_on_c, 3, 75, 113
5, 52109, Note_on_c, 3, 75, 0
5, 52131, Note_on_c, 3, 72, 112
5, 52149, Note_on_c, 3, 72, 0
5, 52174, Note_on_c, 3, 75, 114
5, 52262, Note_on_c, 3, 75, 0
5, 52270, Note_on_c, 3, 72, 114
5, 52291, Note_on_c, 3, 72, 0
5, 52319, Note_on_c, 3, 75, 116
5, 52385, Note_on_c, 3, 75, 0
5, 52801, Note_on_c, 3, 77, 121
5, 52883, Note_on_c, 3, 77, 0
5, 52899, Note_on_c, 3, 72, 110
5, 52932, Note_on_c, 3, 72, 0
5, 52944, Note_on_c, 3, 75, 113
5, 53029, Note_on_c, 3, 75, 0
5, 53040, Note_on_c, 3, 72, 110
5, 53065, Note_on_c, 3, 72, 0
5, 53087, Note_on_c, 3, 75, 114
5, 53178, Note_on_c, 3, 75, 0
5, 53182, Note_on_c, 3, 72, 107
5, 53214, Note_on_c, 3, 72, 0
5, 53230, Note_on_c, 3, 75, 112
5, 53310, Note_on_c, 3, 75, 0
5, 53329, Note_on_c, 3, 72, 106
5, 53357, Note_on_c, 3, 72, 0
5, 53374, Note_on_c, 3, 75, 110
5, 53457, Note_on_c, 3, 75, 0
5, 53473, Note_on_c, 3, 72, 108
5, 53496, Note_on_c, 3, 72, 0
5, 53517, Note_on_c, 3, 75, 111
5, 53603, Note_on_c, 3, 75, 0
5, 53617, Note_on_c, 3, 75, 112
5, 53664, Pitch_bend_c, 3, 16256
5, 53714, Pitch_bend_c, 3, 8192
5, 53807, Pitch_bend_c, 3, 16256
5, 53855, Pitch_bend_c, 3, 8192
5, 53909, Pitch_bend_c, 3, 16256
5, 53951, Pitch_bend_c, 3, 8192
5, 54058, Note_on_c, 3, 75, 0
5, 54098, Note_on_c, 3, 72, 108
5, 54136, Note_on_c, 3, 72, 0
5, 54144, Note_on_c, 3, 75, 111
5, 54193, Pitch_bend_c, 3, 16256
5, 54243, Pitch_bend_c, 3, 8192
5, 54284, Note_on_c, 3, 75, 0
5, 54287, Note_on_c, 3, 72, 110
5, 54327, Note_on_c, 3, 72, 0
5, 54337, Note_on_c, 3, 72, 110
5, 54377, Note_on_c, 3, 72, 0
5, 54385, Note_on_c, 3, 75, 112
5, 54420, Note_on_c, 3, 75, 0
5, 54433, Note_on_c, 3, 80, 100
5, 54519, Note_on_c, 3, 80, 0
5, 54861, Note_on_c, 3, 77, 119
5, 54926, Note_on_c, 3, 77, 0
5, 54963, Note_on_c, 3, 77, 117
5, 54988, Note_on_c, 3, 77, 0
5, 55006, Note_on_c, 3, 77, 117
5, 55028, Note_on_c, 3, 77, 0
5, 55058, Note_on_c, 3, 77, 118
5, 55085, Note_on_c, 3, 77, 0
5, 55100, Pitch_bend_c, 3, 256
5, 55107, Note_on_c, 3, 77, 109
5, 55107, Pitch_bend_c, 3, 1664
5, 55114, Pitch_bend_c, 3, 6272
5, 55121, Pitch_bend_c, 3, 7680
5, 55129, Pitch_bend_c, 3, 8192
5, 55177, Pitch_bend_c, 3, 0
5, 55196, Note_on_c, 3, 77, 0
5, 55199, Pitch_bend_c, 3, 8192
5, 55199, Note_on_c, 3, 75, 109
5, 55271, Note_on_c, 3, 75, 0
5, 55632, Note_on_c, 3, 77, 119
5, 55697, Note_on_c, 3, 77, 0
5, 55729, Note_on_c, 3, 77, 117
5, 55754, Note_on_c, 3, 77, 0
5, 55775, Note_on_c, 3, 77, 117
5, 55797, Note_on_c, 3, 77, 0
5, 55822, Note_on_c, 3, 77, 118
5, 55847, Pitch_bend_c, 3, 7936
5, 55849, Note_on_c, 3, 77, 0
5, 55868, Pitch_bend_c, 3, 256
5, 55870, Note_on_c, 3, 77, 108
5, 55875, Pitch_bend_c, 3, 1664
5, 55882, Pitch_bend_c, 3, 6272
5, 55889, Pitch_bend_c, 3, 7680
5, 55897, Pitch_bend_c, 3, 8192
5, 55945, Pitch_bend_c, 3, 0
5, 55963, Note_on_c, 3, 77, 0
5, 55967, Pitch_bend_c, 3, 8192
5, 55967, Note_on_c, 3, 75, 104
5, 56039, Note_on_c, 3, 75, 0
5, 56158, Note_on_c, 3, 77, 114
5, 56202, Note_on_c, 3, 77, 0
5, 56207, Note_on_c, 3, 75, 113
5, 56252, Note_on_c, 3, 75, 0
5, 56256, Note_on_c, 3, 77, 115
5, 56333, Note_on_c, 3, 77, 0
5, 56350, Note_on_c, 3, 72, 108
5, 56430, Note_on_c, 3, 72, 0
5, 56541, Note_on_c, 3, 77, 115
5, 56567, Note_on_c, 3, 77, 0
5, 56591, Note_on_c, 3, 77, 116
5, 56617, Note_on_c, 3, 77, 0
5, 56642, Note_on_c, 3, 77, 115
5, 56699, Note_on_c, 3, 77, 0
5, 56735, Note_on_c, 3, 77, 114
5, 56826, Note_on_c, 3, 77, 0
5, 56829, Note_on_c, 3, 84, 107
5, 56934, Pitch_bend_c, 3, 11776
5, 56982, Pitch_bend_c, 3, 0
5, 57066, Note_on_c, 3, 84, 0
5, 57072, Note_on_c, 3, 82, 106
5, 57123, Pitch_bend_c, 3, 8192
5, 57213, Note_on_c, 3, 82, 0
5, 57312, Note_on_c, 3, 77, 114
5, 57393, Note_on_c, 3, 77, 0
5, 57408, Note_on_c, 3, 77, 117
5, 57481, Note_on_c, 3, 77, 0
5, 57505, Note_on_c, 3, 77, 115
5, 57581, Note_on_c, 3, 77, 0
5, 57603, Note_on_c, 3, 75, 118
5, 57696, Note_on_c, 3, 75, 0
5, 57936, Note_on_c, 3, 77, 110
5, 58017, Note_on_c, 3, 77, 0
5, 58029, Note_on_c, 3, 75, 108
5, 58068, Note_on_c, 3, 75, 0
5, 58077, Note_on_c, 3, 73, 105
5, 58112, Note_on_c, 3, 73, 0
5, 58131, Note_on_c, 3, 72, 107
5, 58171, Note_on_c, 3, 72, 0
5, 58177, Note_on_c, 3, 70, 102
5, 58265, Note_on_c, 3, 70, 0
5, 58270, Note_on_c, 3, 68, 92
5, 58334, Note_on_c, 3, 68, 0
5, 58417, Note_on_c, 3, 68, 106
5, 58439, Note_on_c, 3, 68, 0
5, 58464, Note_on_c, 3, 70, 107
5, 58495, Note_on_c, 3, 70, 0
5, 58510, Note_on_c, 3, 68, 104
5, 58535, Note_on_c, 3, 68, 0
5, 58563, Note_on_c, 3, 70, 109
5, 58612, Note_on_c, 3, 70, 0
5, 58704, Note_on_c, 3, 73, 109
5, 58736, Note_on_c, 3, 73, 0
5, 58750, Note_on_c, 3, 72, 110
5, 58784, Note_on_c, 3, 72, 0
5, 58803, Note_on_c, 3, 70, 107
5, 58829, Note_on_c, 3, 70, 0
5, 58849, Note_on_c, 3, 68, 107
5, 58891, Note_on_c, 3, 68, 0
5, 58946, Note_on_c, 3, 70, 107
5, 59036, Note_on_c, 3, 70, 0
5, 59039, Note_on_c, 3, 68, 105
5, 59103, Note_on_c, 3, 68, 0
5, 59185, Note_on_c, 3, 73, 110
5, 59225, Note_on_c, 3, 73, 0
5, 59232, Note_on_c, 3, 72, 107
5, 59264, Note_on_c, 3, 72, 0
5, 59279, Note_on_c, 3, 73, 110
5, 59319, Note_on_c, 3, 73, 0
5, 59325, Note_on_c, 3, 72, 110
5, 59370, Note_on_c, 3, 72, 0
5, 59378, Note_on_c, 3, 70, 108
5, 59420, Note_on_c, 3, 70, 0
5, 59426, Note_on_c, 3, 68, 105
5, 59481, Note_on_c, 3, 68, 0
5, 59565, Note_on_c, 3, 73, 108
5, 59606, Note_on_c, 3, 73, 0
5, 59617, Note_on_c, 3, 72, 105
5, 59653, Note_on_c, 3, 72, 0
5, 59663, Note_on_c, 3, 73, 105
5, 59702, Note_on_c, 3, 73, 0
5, 59710, Note_on_c, 3, 72, 108
5, 59751, Note_on_c, 3, 72, 0
5, 59760, Note_on_c, 3, 70, 107
5, 59800, Note_on_c, 3, 70, 0
5, 59811, Note_on_c, 3, 68, 108
5, 59862, Note_on_c, 3, 68, 0
5, 59954, Note_on_c, 3, 73, 109
5, 59994, Note_on_c, 3, 73, 0
5, 59997, Note_on_c, 3, 72, 109
5, 60027, Note_on_c, 3, 72, 0
5, 60051, Note_on_c, 3, 73, 109
5, 60088, Note_on_c, 3, 73, 0
5, 60094, Note_on_c, 3, 72, 107
5, 60131, Note_on_c, 3, 72, 0
5, 60141, Note_on_c, 3, 73, 111
5, 60177, Note_on_c, 3, 73, 0
5, 60195, Note_on_c, 3, 72, 112
5, 60229, Note_on_c, 3, 72, 0
5, 60238, Note_on_c, 3, 73, 114
5, 60282, Note_on_c, 3, 73, 0
5, 60285, Note_on_c, 3, 72, 112
5, 60328, Note_on_c, 3, 72, 0
5, 60334, Note_on_c, 3, 73, 114
5, 60366, Note_on_c, 3, 73, 0
5, 60386, Note_on_c, 3, 72, 112
5, 60416, Note_on_c, 3, 72, 0
5, 60432, Note_on_c, 3, 73, 116
5, 60469, Note_on_c, 3, 73, 0
5, 60477, Note_on_c, 3, 77, 120
5, 60570, Note_on_c, 3, 77, 0
5, 60575, Note_on_c, 3, 75, 118
5, 60645, Note_on_c, 3, 75, 0
5, 61007, Note_on_c, 3, 77, 119
5, 61072, Note_on_c, 3, 77, 0
5, 61107, Note_on_c, 3, 77, 117
5, 61132, Note_on_c, 3, 77, 0
5, 61152, Note_on_c, 3, 77, 117
5, 61174, Note_on_c, 3, 77, 0
5, 61202, Note_on_c, 3, 77, 118
5, 61229, Note_on_c, 3, 77, 0
5, 61244, Pitch_bend_c, 3, 256
5, 61247, Note_on_c, 3, 77, 109
5, 61251, Pitch_bend_c, 3, 1664
5, 61258, Pitch_bend_c, 3, 6272
5, 61265, Pitch_bend_c, 3, 7680
5, 61273, Pitch_bend_c, 3, 8192
5, 61340, Note_on_c, 3, 77, 0
5, 61346, Note_on_c, 3, 75, 109
5, 61418, Note_on_c, 3, 75, 0
5, 61779, Note_on_c, 3, 77, 119
5, 61844, Note_on_c, 3, 77, 0
5, 61873, Note_on_c, 3, 77, 117
5, 61898, Note_on_c, 3, 77, 0
5, 61918, Note_on_c, 3, 77, 117
5, 61940, Note_on_c, 3, 77, 0
5, 61968, Note_on_c, 3, 77, 118
5, 61991, Pitch_bend_c, 3, 7936
5, 61995, Note_on_c, 3, 77, 0
5, 62012, Pitch_bend_c, 3, 256
5, 62017, Note_on_c, 3, 77, 108
5, 62019, Pitch_bend_c, 3, 1664
5, 62026, Pitch_bend_c, 3, 6272
5, 62033, Pitch_bend_c, 3, 7680
5, 62041, Pitch_bend_c, 3, 8192
5, 62110, Note_on_c, 3, 77, 0
5, 62113, Note_on_c, 3, 75, 104
5, 62185, Note_on_c, 3, 75, 0
5, 62302, Note_on_c, 3, 77, 114
5, 62346, Note_on_c, 3, 77, 0
5, 62352, Note_on_c, 3, 75, 113
5, 62396, Note_on_c, 3, 75, 0
5, 62399, Note_on_c, 3, 77, 115
5, 62476, Note_on_c, 3, 77, 0
5, 62497, Note_on_c, 3, 72, 108
5, 62577, Note_on_c, 3, 72, 0
5, 62689, Note_on_c, 3, 72, 115
5, 62715, Note_on_c, 3, 72, 0
5, 62735, Note_on_c, 3, 72, 116
5, 62761, Note_on_c, 3, 72, 0
5, 62786, Note_on_c, 3, 72, 115
5, 62843, Note_on_c, 3, 72, 0
5, 62881, Note_on_c, 3, 72, 114
5, 63019, Note_on_c, 3, 72, 0
5, 63022, Note_on_c, 3, 70, 115
5, 63212, Note_on_c, 3, 70, 0
5, 63457, Note_on_c, 3, 70, 114
5, 63526, Note_on_c, 3, 70, 0
5, 63552, Note_on_c, 3, 72, 114
5, 63621, Note_on_c, 3, 72, 0
5, 63651, Note_on_c, 3, 72, 112
5, 63699, Pitch_bend_c, 3, 7808
5, 63706, Pitch_bend_c, 3, 6400
5, 63713, Pitch_bend_c, 3, 4480
5, 63720, Pitch_bend_c, 3, 2688
5, 63727, Pitch_bend_c, 3, 1920
5, 63731, Note_on_c, 3, 72, 0
5, 63735, Pitch_bend_c, 3, 1792
5, 63743, Pitch_bend_c, 3, 8192
5, 63746, Note_on_c, 3, 68, 105
5, 63851, Note_on_c, 3, 68, 0
5, 68173, Control_c, 3, 120, 0
5, 68177, Control_c, 3, 123, 0
5, 68177, End_track
6, 0, Start_track
6, 0, Channel_prefix, 4
6, 0, Text_t, "Slow str"
6, 240, Control_c, 4, 121, 0
6, 290, Control_c, 4, 7, 98
6, 291, Control_c, 4, 10, 52
6, 292, Control_c, 4, 11, 127
6, 293, Control_c, 4, 91, 104
6, 294, Control_c, 4, 93, 79
6, 295, Pitch_bend_c, 4, 8192
6, 337, Control_c, 4, 0, 0
6, 392, Program_c, 4, 49
6, 489, Control_c, 4, 99, 1
6, 538, Control_c, 4, 98, 99
6, 587, Control_c, 4, 6, 50
6, 5957, Control_c, 4, 7, 5
6, 6144, Note_on_c, 4, 63, 61
6, 6160, Note_on_c, 4, 65, 61
6, 6168, Note_on_c, 4, 63, 0
6, 6176, Note_on_c, 4, 63, 81
6, 6184, Note_on_c, 4, 65, 0
6, 6192, Note_on_c, 4, 65, 85
6, 6200, Note_on_c, 4, 63, 0
6, 6208, Note_on_c, 4, 63, 101
6, 6216, Note_on_c, 4, 65, 0
6, 6224, Note_on_c, 4, 65, 101
6, 6232, Note_on_c, 4, 63, 0
6, 6240, Note_on_c, 4, 63, 89
6, 6243, Control_c, 4, 7, 8
6, 6248, Note_on_c, 4, 65, 0
6, 6256, Note_on_c, 4, 65, 89
6, 6258, Control_c, 4, 7, 10
6, 6264, Note_on_c, 4, 63, 0
6, 6272, Note_on_c, 4, 63, 101
6, 6276, Control_c, 4, 7, 11
6, 6280, Note_on_c, 4, 65, 0
6, 6288, Note_on_c, 4, 65, 97
6, 6293, Control_c, 4, 7, 12
6, 6296, Note_on_c, 4, 63, 0
6, 6304, Note_on_c, 4, 63, 105
6, 6312, Note_on_c, 4, 65, 0
6, 6318, Control_c, 4, 7, 15
6, 6320, Note_on_c, 4, 65, 101
6, 6328, Note_on_c, 4, 63, 0
6, 6336, Note_on_c, 4, 63, 109
6, 6340, Control_c, 4, 7, 18
6, 6344, Note_on_c, 4, 65, 0
6, 6352, Note_on_c, 4, 65, 117
6, 6355, Control_c, 4, 7, 22
6, 6360, Note_on_c, 4, 63, 0
6, 6368, Note_on_c, 4, 63, 113
6, 6373, Control_c, 4, 7, 25
6, 6376, Note_on_c, 4, 65, 0
6, 6384, Note_on_c, 4, 65, 117
6, 6390, Control_c, 4, 7, 26
6, 6392, Note_on_c, 4, 63, 0
6, 6400, Note_on_c, 4, 63, 113
6, 6408, Note_on_c, 4, 65, 0
6, 6414, Control_c, 4, 7, 28
6, 6416, Note_on_c, 4, 65, 123
6, 6424, Note_on_c, 4, 63, 0
6, 6432, Note_on_c, 4, 63, 123
6, 6435, Control_c, 4, 7, 30
6, 6440, Note_on_c, 4, 65, 0
6, 6448, Note_on_c, 4, 65, 123
6, 6450, Control_c, 4, 7, 32
6, 6456, Note_on_c, 4, 63, 0
6, 6464, Note_on_c, 4, 63, 121
6, 6465, Control_c, 4, 7, 36
6, 6472, Note_on_c, 4, 65, 0
6, 6480, Note_on_c, 4, 65, 123
6, 6483, Control_c, 4, 7, 42
6, 6488, Note_on_c, 4, 63, 0
6, 6496, Note_on_c, 4, 63, 123
6, 6501, Control_c, 4, 7, 49
6, 6504, Note_on_c, 4, 65, 0
6, 6512, Note_on_c, 4, 65, 123
6, 6520, Note_on_c, 4, 63, 0
6, 6522, Control_c, 4, 7, 55
6, 6528, Note_on_c, 4, 63, 123
6, 6536, Note_on_c, 4, 65, 0
6, 6538, Control_c, 4, 7, 58
6, 6544, Note_on_c, 4, 65, 123
6, 6552, Note_on_c, 4, 63, 0
6, 6557, Control_c, 4, 7, 67
6, 6560, Note_on_c, 4, 63, 121
6, 6568, Note_on_c, 4, 65, 0
6, 6576, Control_c, 4, 7, 71
6, 6576, Note_on_c, 4, 65, 123
6, 6584, Note_on_c, 4, 63, 0
6, 6592, Control_c, 4, 7, 75
6, 6592, Note_on_c, 4, 63, 113
6, 6600, Note_on_c, 4, 65, 0
6, 6607, Control_c, 4, 7, 77
6, 6608, Note_on_c, 4, 65, 121
6, 6616, Note_on_c, 4, 63, 0
6, 6622, Control_c, 4, 7, 79
6, 6624, Note_on_c, 4, 63, 113
6, 6632, Note_on_c, 4, 65, 0
6, 6637, Control_c, 4, 7, 82
6, 6640, Note_on_c, 4, 65, 121
6, 6648, Note_on_c, 4, 63, 0
6, 6652, Control_c, 4, 7, 88
6, 6656, Note_on_c, 4, 63, 105
6, 6664, Note_on_c, 4, 65, 0
6, 6672, Note_on_c, 4, 65, 109
6, 6674, Control_c, 4, 7, 90
6, 6680, Note_on_c, 4, 63, 0
6, 6688, Note_on_c, 4, 63, 97
6, 6696, Note_on_c, 4, 65, 0
6, 6698, Control_c, 4, 7, 92
6, 6704, Note_on_c, 4, 65, 105
6, 6712, Note_on_c, 4, 63, 0
6, 6716, Control_c, 4, 7, 97
6, 6720, Note_on_c, 4, 63, 85
6, 6728, Note_on_c, 4, 65, 0
6, 6736, Note_on_c, 4, 65, 85
6, 6744, Note_on_c, 4, 63, 0
6, 6752, Note_on_c, 4, 63, 73
6, 6755, Control_c, 4, 7, 95
6, 6760, Note_on_c, 4, 65, 0
6, 6768, Note_on_c, 4, 65, 85
6, 6775, Control_c, 4, 7, 90
6, 6776, Note_on_c, 4, 63, 0
6, 6784, Note_on_c, 4, 63, 73
6, 6792, Note_on_c, 4, 65, 0
6, 6792, Control_c, 4, 7, 88
6, 6800, Note_on_c, 4, 65, 85
6, 6808, Note_on_c, 4, 63, 0
6, 6810, Control_c, 4, 7, 85
6, 6816, Note_on_c, 4, 63, 73
6, 6824, Note_on_c, 4, 65, 0
6, 6827, Control_c, 4, 7, 81
6, 6832, Note_on_c, 4, 65, 85
6, 6840, Note_on_c, 4, 63, 0
6, 6845, Control_c, 4, 7, 79
6, 6848, Note_on_c, 4, 63, 73
6, 6856, Note_on_c, 4, 65, 0
6, 6860, Control_c, 4, 7, 75
6, 6864, Note_on_c, 4, 65, 85
6, 6872, Note_on_c, 4, 63, 0
6, 6879, Control_c, 4, 7, 68
6, 6880, Note_on_c, 4, 63, 73
6, 6888, Note_on_c, 4, 65, 0
6, 6904, Note_on_c, 4, 63, 0
6, 6911, Control_c, 4, 7, 98
6, 6912, Note_on_c, 4, 51, 82
6, 6912, Note_on_c, 4, 55, 82
6, 6912, Note_on_c, 4, 58, 82
6, 7197, Note_on_c, 4, 55, 0
6, 7197, Note_on_c, 4, 58, 0
6, 7200, Note_on_c, 4, 56, 82
6, 7200, Note_on_c, 4, 60, 82
6, 7677, Note_on_c, 4, 56, 0
6, 7677, Note_on_c, 4, 60, 0
6, 7680, Note_on_c, 4, 55, 82
6, 7680, Note_on_c, 4, 58, 82
6, 7965, Note_on_c, 4, 55, 0
6, 7965, Note_on_c, 4, 58, 0
6, 7968, Note_on_c, 4, 56, 82
6, 7968, Note_on_c, 4, 60, 82
6, 8445, Note_on_c, 4, 51, 0
6, 8445, Note_on_c, 4, 56, 0
6, 8445, Note_on_c, 4, 60, 0
6, 8448, Note_on_c, 4, 51, 82
6, 8448, Note_on_c, 4, 55, 82
6, 8448, Note_on_c, 4, 58, 82
6, 8733, Note_on_c, 4, 55, 0
6, 8733, Note_on_c, 4, 58, 0
6, 8736, Note_on_c, 4, 56, 82
6, 8736, Note_on_c, 4, 60, 82
6, 9213, Note_on_c, 4, 56, 0
6, 9213, Note_on_c, 4, 60, 0
6, 9216, Note_on_c, 4, 55, 82
6, 9216, Note_on_c, 4, 58, 82
6, 9501, Note_on_c, 4, 55, 0
6, 9501, Note_on_c, 4, 58, 0
6, 9504, Note_on_c, 4, 56, 82
6, 9504, Note_on_c, 4, 60, 82
6, 9981, Note_on_c, 4, 51, 0
6, 9981, Note_on_c, 4, 56, 0
6, 9981, Note_on_c, 4, 60, 0
6, 9984, Note_on_c, 4, 53, 81
6, 9984, Note_on_c, 4, 58, 82
6, 9984, Note_on_c, 4, 61, 82
6, 10365, Note_on_c, 4, 53, 0
6, 10365, Note_on_c, 4, 58, 0
6, 10365, Note_on_c, 4, 61, 0
6, 10368, Note_on_c, 4, 51, 83
6, 10368, Note_on_c, 4, 56, 80
6, 10368, Note_on_c, 4, 60, 83
6, 10749, Note_on_c, 4, 51, 0
6, 10749, Note_on_c, 4, 56, 0
6, 10749, Note_on_c, 4, 60, 0
6, 10752, Note_on_c, 4, 49, 82
6, 10752, Note_on_c, 4, 54, 83
6, 10752, Note_on_c, 4, 58, 82
6, 10945, Control_c, 4, 7, 93
6, 11016, Control_c, 4, 7, 89
6, 11069, Control_c, 4, 7, 82
6, 11105, Control_c, 4, 7, 80
6, 11173, Control_c, 4, 7, 75
6, 11203, Control_c, 4, 7, 73
6, 11256, Control_c, 4, 7, 70
6, 11302, Control_c, 4, 7, 65
6, 11332, Control_c, 4, 7, 62
6, 11396, Control_c, 4, 7, 57
6, 11408, Note_on_c, 4, 54, 0
6, 11409, Note_on_c, 4, 58, 0
6, 11411, Note_on_c, 4, 49, 0
6, 11519, Control_c, 4, 7, 98
6, 20736, Note_on_c, 4, 51, 75
6, 20736, Note_on_c, 4, 55, 76
6, 20736, Note_on_c, 4, 58, 81
6, 21021, Note_on_c, 4, 55, 0
6, 21021, Note_on_c, 4, 58, 0
6, 21024, Note_on_c, 4, 56, 85
6, 21024, Note_on_c, 4, 60, 85
6, 21501, Note_on_c, 4, 51, 0
6, 21501, Note_on_c, 4, 56, 0
6, 21501, Note_on_c, 4, 60, 0
6, 21504, Note_on_c, 4, 55, 83
6, 21504, Note_on_c, 4, 58, 85
6, 21504, Note_on_c, 4, 63, 81
6, 21789, Note_on_c, 4, 55, 0
6, 21789, Note_on_c, 4, 58, 0
6, 21789, Note_on_c, 4, 63, 0
6, 21792, Note_on_c, 4, 51, 81
6, 21792, Note_on_c, 4, 56, 82
6, 21792, Note_on_c, 4, 60, 81
6, 22269, Note_on_c, 4, 51, 0
6, 22269, Note_on_c, 4, 56, 0
6, 22269, Note_on_c, 4, 60, 0
6, 22272, Note_on_c, 4, 53, 80
6, 22272, Note_on_c, 4, 58, 79
6, 22272, Note_on_c, 4, 61, 81
6, 22335, Note_off_c, 15, 64, 64
6, 22653, Note_on_c, 4, 53, 0
6, 22653, Note_on_c, 4, 58, 0
6, 22653, Note_on_c, 4, 61, 0
6, 22656, Note_on_c, 4, 51, 83
6, 22656, Note_on_c, 4, 56, 83
6, 22656, Note_on_c, 4, 60, 83
6, 23037, Note_on_c, 4, 51, 0
6, 23037, Note_on_c, 4, 56, 0
6, 23037, Note_on_c, 4, 60, 0
6, 23040, Note_on_c, 4, 49, 81
6, 23040, Note_on_c, 4, 54, 85
6, 23040, Note_on_c, 4, 58, 79
6, 23040, Note_on_c, 4, 61, 84
6, 23108, Note_off_c, 15, 64, 69
6, 23308, Note_off_c, 15, 64, 77
6, 23421, Note_on_c, 4, 49, 0
6, 23421, Note_on_c, 4, 54, 0
6, 23424, Note_on_c, 4, 51, 80
6, 23424, Note_on_c, 4, 68, 83
6, 23503, Note_off_c, 15, 64, 80
6, 23805, Note_on_c, 4, 51, 0
6, 23805, Note_on_c, 4, 58, 0
6, 23805, Note_on_c, 4, 61, 0
6, 23805, Note_on_c, 4, 68, 0
6, 23808, Note_on_c, 4, 51, 82
6, 23808, Note_on_c, 4, 55, 82
6, 23808, Note_on_c, 4, 58, 82
6, 24093, Note_on_c, 4, 55, 0
6, 24093, Note_on_c, 4, 58, 0
6, 24096, Note_on_c, 4, 56, 82
6, 24096, Note_on_c, 4, 60, 82
6, 24573, Note_on_c, 4, 56, 0
6, 24573, Note_on_c, 4, 60, 0
6, 24576, Note_on_c, 4, 55, 82
6, 24576, Note_on_c, 4, 58, 82
6, 24861, Note_on_c, 4, 55, 0
6, 24861, Note_on_c, 4, 58, 0
6, 24864, Note_on_c, 4, 56, 82
6, 24864, Note_on_c, 4, 60, 82
6, 25341, Note_on_c, 4, 51, 0
6, 25341, Note_on_c, 4, 56, 0
6, 25341, Note_on_c, 4, 60, 0
6, 25344, Note_on_c, 4, 51, 82
6, 25344, Note_on_c, 4, 55, 82
6, 25344, Note_on_c, 4, 58, 82
6, 25629, Note_on_c, 4, 55, 0
6, 25629, Note_on_c, 4, 58, 0
6, 25632, Note_on_c, 4, 56, 82
6, 25632, Note_on_c, 4, 60, 82
6, 26109, Note_on_c, 4, 56, 0
6, 26109, Note_on_c, 4, 60, 0
6, 26112, Note_on_c, 4, 55, 82
6, 26112, Note_on_c, 4, 58, 82
6, 26397, Note_on_c, 4, 55, 0
6, 26397, Note_on_c, 4, 58, 0
6, 26400, Note_on_c, 4, 56, 82
6, 26400, Note_on_c, 4, 60, 82
6, 26877, Note_on_c, 4, 51, 0
6, 26877, Note_on_c, 4, 56, 0
6, 26877, Note_on_c, 4, 60, 0
6, 26880, Note_on_c, 4, 53, 81
6, 26880, Note_on_c, 4, 58, 82
6, 26880, Note_on_c, 4, 61, 82
6, 27645, Note_on_c, 4, 53, 0
6, 27645, Note_on_c, 4, 58, 0
6, 27645, Note_on_c, 4, 61, 0
6, 27648, Note_on_c, 4, 53, 81
6, 27648, Note_on_c, 4, 58, 82
6, 27648, Note_on_c, 4, 61, 82
6, 28413, Note_on_c, 4, 53, 0
6, 28413, Note_on_c, 4, 58, 0
6, 28413, Note_on_c, 4, 61, 0
6, 28416, Note_on_c, 4, 53, 81
6, 28416, Note_on_c, 4, 58, 82
6, 28416, Note_on_c, 4, 61, 82
6, 28797, Note_on_c, 4, 53, 0
6, 28797, Note_on_c, 4, 58, 0
6, 28797, Note_on_c, 4, 61, 0
6, 28800, Note_on_c, 4, 51, 83
6, 28800, Note_on_c, 4, 56, 80
6, 28800, Note_on_c, 4, 60, 83
6, 29181, Note_on_c, 4, 51, 0
6, 29181, Note_on_c, 4, 56, 0
6, 29181, Note_on_c, 4, 60, 0
6, 29184, Note_on_c, 4, 49, 82
6, 29184, Note_on_c, 4, 54, 83
6, 29184, Note_on_c, 4, 58, 82
6, 29377, Control_c, 4, 7, 93
6, 29448, Control_c, 4, 7, 89
6, 29501, Control_c, 4, 7, 82
6, 29537, Control_c, 4, 7, 80
6, 29605, Control_c, 4, 7, 75
6, 29635, Control_c, 4, 7, 73
6, 29688, Control_c, 4, 7, 70
6, 29734, Control_c, 4, 7, 65
6, 29764, Control_c, 4, 7, 62
6, 29828, Control_c, 4, 7, 57
6, 29840, Note_on_c, 4, 54, 0
6, 29841, Note_on_c, 4, 58, 0
6, 29843, Note_on_c, 4, 49, 0
6, 29951, Control_c, 4, 7, 98
6, 33024, Note_on_c, 4, 51, 75
6, 33024, Note_on_c, 4, 55, 76
6, 33024, Note_on_c, 4, 58, 81
6, 33309, Note_on_c, 4, 55, 0
6, 33309, Note_on_c, 4, 58, 0
6, 33312, Note_on_c, 4, 56, 85
6, 33312, Note_on_c, 4, 60, 85
6, 33789, Note_on_c, 4, 51, 0
6, 33789, Note_on_c, 4, 56, 0
6, 33789, Note_on_c, 4, 60, 0
6, 33792, Note_on_c, 4, 55, 83
6, 33792, Note_on_c, 4, 58, 85
6, 33792, Note_on_c, 4, 63, 81
6, 34077, Note_on_c, 4, 55, 0
6, 34077, Note_on_c, 4, 58, 0
6, 34077, Note_on_c, 4, 63, 0
6, 34080, Note_on_c, 4, 51, 81
6, 34080, Note_on_c, 4, 56, 82
6, 34080, Note_on_c, 4, 60, 81
6, 34557, Note_on_c, 4, 51, 0
6, 34557, Note_on_c, 4, 56, 0
6, 34557, Note_on_c, 4, 60, 0
6, 34560, Note_on_c, 4, 53, 80
6, 34560, Note_on_c, 4, 58, 79
6, 34560, Note_on_c, 4, 61, 81
6, 34941, Note_on_c, 4, 53, 0
6, 34941, Note_on_c, 4, 58, 0
6, 34941, Note_on_c, 4, 61, 0
6, 34944, Note_on_c, 4, 51, 83
6, 34944, Note_on_c, 4, 56, 83
6, 34944, Note_on_c, 4, 60, 83
6, 35325, Note_on_c, 4, 51, 0
6, 35325, Note_on_c, 4, 56, 0
6, 35325, Note_on_c, 4, 60, 0
6, 35328, Note_on_c, 4, 49, 81
6, 35328, Note_on_c, 4, 54, 85
6, 35328, Note_on_c, 4, 58, 79
6, 35328, Note_on_c, 4, 61, 84
6, 35709, Note_on_c, 4, 49, 0
6, 35709, Note_on_c, 4, 54, 0
6, 35712, Note_on_c, 4, 51, 80
6, 35712, Note_on_c, 4, 68, 83
6, 36093, Note_on_c, 4, 51, 0
6, 36093, Note_on_c, 4, 58, 0
6, 36093, Note_on_c, 4, 61, 0
6, 36093, Note_on_c, 4, 68, 0
6, 36096, Note_on_c, 4, 51, 82
6, 36096, Note_on_c, 4, 55, 82
6, 36096, Note_on_c, 4, 58, 82
6, 36381, Note_on_c, 4, 55, 0
6, 36381, Note_on_c, 4, 58, 0
6, 36384, Note_on_c, 4, 56, 82
6, 36384, Note_on_c, 4, 60, 82
6, 36861, Note_on_c, 4, 56, 0
6, 36861, Note_on_c, 4, 60, 0
6, 36864, Note_on_c, 4, 55, 82
6, 36864, Note_on_c, 4, 58, 82
6, 37149, Note_on_c, 4, 55, 0
6, 37149, Note_on_c, 4, 58, 0
6, 37152, Note_on_c, 4, 56, 82
6, 37152, Note_on_c, 4, 60, 82
6, 37629, Note_on_c, 4, 51, 0
6, 37629, Note_on_c, 4, 56, 0
6, 37629, Note_on_c, 4, 60, 0
6, 37632, Note_on_c, 4, 51, 82
6, 37632, Note_on_c, 4, 55, 82
6, 37632, Note_on_c, 4, 58, 82
6, 37917, Note_on_c, 4, 55, 0
6, 37917, Note_on_c, 4, 58, 0
6, 37920, Note_on_c, 4, 56, 82
6, 37920, Note_on_c, 4, 60, 82
6, 38397, Note_on_c, 4, 56, 0
6, 38397, Note_on_c, 4, 60, 0
6, 38400, Note_on_c, 4, 55, 82
6, 38400, Note_on_c, 4, 58, 82
6, 38685, Note_on_c, 4, 55, 0
6, 38685, Note_on_c, 4, 58, 0
6, 38688, Note_on_c, 4, 56, 82
6, 38688, Note_on_c, 4, 60, 82
6, 39165, Note_on_c, 4, 51, 0
6, 39165, Note_on_c, 4, 56, 0
6, 39165, Note_on_c, 4, 60, 0
6, 39168, Note_on_c, 4, 53, 81
6, 39168, Note_on_c, 4, 58, 82
6, 39168, Note_on_c, 4, 61, 82
6, 39933, Note_on_c, 4, 53, 0
6, 39933, Note_on_c, 4, 58, 0
6, 39933, Note_on_c, 4, 61, 0
6, 39936, Note_on_c, 4, 53, 81
6, 39936, Note_on_c, 4, 58, 82
6, 39936, Note_on_c, 4, 61, 82
6, 40701, Note_on_c, 4, 53, 0
6, 40701, Note_on_c, 4, 58, 0
6, 40701, Note_on_c, 4, 61, 0
6, 40704, Note_on_c, 4, 53, 81
6, 40704, Note_on_c, 4, 58, 82
6, 40704, Note_on_c, 4, 61, 82
6, 41085, Note_on_c, 4, 53, 0
6, 41085, Note_on_c, 4, 58, 0
6, 41085, Note_on_c, 4, 61, 0
6, 41088, Note_on_c, 4, 51, 83
6, 41088, Note_on_c, 4, 56, 80
6, 41088, Note_on_c, 4, 60, 83
6, 41469, Note_on_c, 4, 51, 0
6, 41469, Note_on_c, 4, 56, 0
6, 41469, Note_on_c, 4, 60, 0
6, 41472, Note_on_c, 4, 49, 82
6, 41472, Note_on_c, 4, 54, 83
6, 41472, Note_on_c, 4, 58, 82
6, 41665, Control_c, 4, 7, 93
6, 41736, Control_c, 4, 7, 89
6, 41789, Control_c, 4, 7, 82
6, 41825, Control_c, 4, 7, 80
6, 41893, Control_c, 4, 7, 75
6, 41923, Control_c, 4, 7, 73
6, 41976, Control_c, 4, 7, 70
6, 42022, Control_c, 4, 7, 65
6, 42052, Control_c, 4, 7, 62
6, 42116, Control_c, 4, 7, 57
6, 42128, Note_on_c, 4, 54, 0
6, 42129, Note_on_c, 4, 58, 0
6, 42131, Note_on_c, 4, 49, 0
6, 42239, Control_c, 4, 7, 98
6, 42240, Note_on_c, 4, 56, 82
6, 42240, Note_on_c, 4, 61, 78
6, 42240, Note_on_c, 4, 65, 80
6, 43005, Note_on_c, 4, 56, 0
6, 43005, Note_on_c, 4, 61, 0
6, 43005, Note_on_c, 4, 65, 0
6, 43008, Note_on_c, 4, 55, 81
6, 43008, Note_on_c, 4, 58, 69
6, 43008, Note_on_c, 4, 60, 68
6, 43008, Note_on_c, 4, 63, 80
6, 43773, Note_on_c, 4, 55, 0
6, 43773, Note_on_c, 4, 58, 0
6, 43773, Note_on_c, 4, 60, 0
6, 43773, Note_on_c, 4, 63, 0
6, 43776, Note_on_c, 4, 54, 83
6, 43776, Note_on_c, 4, 59, 80
6, 43776, Note_on_c, 4, 63, 80
6, 44541, Note_on_c, 4, 54, 0
6, 44541, Note_on_c, 4, 59, 0
6, 44541, Note_on_c, 4, 63, 0
6, 44544, Note_on_c, 4, 53, 81
6, 44544, Note_on_c, 4, 56, 82
6, 44544, Note_on_c, 4, 58, 82
6, 44544, Note_on_c, 4, 61, 83
6, 44733, Note_on_c, 4, 53, 0
6, 44733, Note_on_c, 4, 56, 0
6, 44733, Note_on_c, 4, 58, 0
6, 44733, Note_on_c, 4, 61, 0
6, 44736, Note_on_c, 4, 55, 84
6, 44736, Note_on_c, 4, 58, 81
6, 44736, Note_on_c, 4, 63, 81
6, 44831, Note_on_c, 4, 55, 0
6, 44841, Note_on_c, 4, 58, 0
6, 44841, Note_on_c, 4, 63, 0
6, 45312, Note_on_c, 4, 51, 82
6, 45312, Note_on_c, 4, 55, 82
6, 45312, Note_on_c, 4, 58, 82
6, 45597, Note_on_c, 4, 55, 0
6, 45597, Note_on_c, 4, 58, 0
6, 45600, Note_on_c, 4, 56, 82
6, 45600, Note_on_c, 4, 60, 82
6, 46077, Note_on_c, 4, 56, 0
6, 46077, Note_on_c, 4, 60, 0
6, 46080, Note_on_c, 4, 55, 82
6, 46080, Note_on_c, 4, 58, 82
6, 46365, Note_on_c, 4, 55, 0
6, 46365, Note_on_c, 4, 58, 0
6, 46368, Note_on_c, 4, 56, 82
6, 46368, Note_on_c, 4, 60, 82
6, 46845, Note_on_c, 4, 51, 0
6, 46845, Note_on_c, 4, 56, 0
6, 46845, Note_on_c, 4, 60, 0
6, 46848, Note_on_c, 4, 51, 82
6, 46848, Note_on_c, 4, 55, 82
6, 46848, Note_on_c, 4, 58, 82
6, 47133, Note_on_c, 4, 55, 0
6, 47133, Note_on_c, 4, 58, 0
6, 47136, Note_on_c, 4, 56, 82
6, 47136, Note_on_c, 4, 60, 82
6, 47613, Note_on_c, 4, 56, 0
6, 47613, Note_on_c, 4, 60, 0
6, 47616, Note_on_c, 4, 55, 82
6, 47616, Note_on_c, 4, 58, 82
6, 47901, Note_on_c, 4, 55, 0
6, 47901, Note_on_c, 4, 58, 0
6, 47904, Note_on_c, 4, 56, 82
6, 47904, Note_on_c, 4, 60, 82
6, 48381, Note_on_c, 4, 51, 0
6, 48381, Note_on_c, 4, 56, 0
6, 48381, Note_on_c, 4, 60, 0
6, 48384, Note_on_c, 4, 53, 81
6, 48384, Note_on_c, 4, 58, 82
6, 48384, Note_on_c, 4, 61, 82
6, 49149, Note_on_c, 4, 53, 0
6, 49149, Note_on_c, 4, 58, 0
6, 49149, Note_on_c, 4, 61, 0
6, 49152, Note_on_c, 4, 53, 81
6, 49152, Note_on_c, 4, 58, 82
6, 49152, Note_on_c, 4, 61, 82
6, 49917, Note_on_c, 4, 53, 0
6, 49917, Note_on_c, 4, 58, 0
6, 49917, Note_on_c, 4, 61, 0
6, 49920, Note_on_c, 4, 53, 81
6, 49920, Note_on_c, 4, 58, 82
6, 49920, Note_on_c, 4, 61, 82
6, 50301, Note_on_c, 4, 53, 0
6, 50301, Note_on_c, 4, 58, 0
6, 50301, Note_on_c, 4, 61, 0
6, 50304, Note_on_c, 4, 51, 83
6, 50304, Note_on_c, 4, 56, 80
6, 50304, Note_on_c, 4, 60, 83
6, 50685, Note_on_c, 4, 51, 0
6, 50685, Note_on_c, 4, 56, 0
6, 50685, Note_on_c, 4, 60, 0
6, 50688, Note_on_c, 4, 49, 82
6, 50688, Note_on_c, 4, 54, 83
6, 50688, Note_on_c, 4, 58, 82
6, 51453, Note_on_c, 4, 49, 0
6, 51453, Note_on_c, 4, 54, 0
6, 51453, Note_on_c, 4, 58, 0
6, 51456, Note_on_c, 4, 51, 82
6, 51456, Note_on_c, 4, 55, 82
6, 51456, Note_on_c, 4, 58, 82
6, 51741, Note_on_c, 4, 55, 0
6, 51741, Note_on_c, 4, 58, 0
6, 51744, Note_on_c, 4, 56, 82
6, 51744, Note_on_c, 4, 60, 82
6, 52221, Note_on_c, 4, 56, 0
6, 52221, Note_on_c, 4, 60, 0
6, 52224, Note_on_c, 4, 55, 82
6, 52224, Note_on_c, 4, 58, 82
6, 52509, Note_on_c, 4, 55, 0
6, 52509, Note_on_c, 4, 58, 0
6, 52512, Note_on_c, 4, 56, 82
6, 52512, Note_on_c, 4, 60, 82
6, 52989, Note_on_c, 4, 51, 0
6, 52989, Note_on_c, 4, 56, 0
6, 52989, Note_on_c, 4, 60, 0
6, 52992, Note_on_c, 4, 51, 82
6, 52992, Note_on_c, 4, 55, 82
6, 52992, Note_on_c, 4, 58, 82
6, 53277, Note_on_c, 4, 55, 0
6, 53277, Note_on_c, 4, 58, 0
6, 53280, Note_on_c, 4, 56, 82
6, 53280, Note_on_c, 4, 60, 82
6, 53757, Note_on_c, 4, 56, 0
6, 53757, Note_on_c, 4, 60, 0
6, 53760, Note_on_c, 4, 55, 82
6, 53760, Note_on_c, 4, 58, 82
6, 54045, Note_on_c, 4, 55, 0
6, 54045, Note_on_c, 4, 58, 0
6, 54048, Note_on_c, 4, 56, 82
6, 54048, Note_on_c, 4, 60, 82
6, 54525, Note_on_c, 4, 51, 0
6, 54525, Note_on_c, 4, 56, 0
6, 54525, Note_on_c, 4, 60, 0
6, 54528, Note_on_c, 4, 53, 81
6, 54528, Note_on_c, 4, 58, 82
6, 54528, Note_on_c, 4, 61, 82
6, 55293, Note_on_c, 4, 53, 0
6, 55293, Note_on_c, 4, 58, 0
6, 55293, Note_on_c, 4, 61, 0
6, 55296, Note_on_c, 4, 53, 81
6, 55296, Note_on_c, 4, 58, 82
6, 55296, Note_on_c, 4, 61, 82
6, 56061, Note_on_c, 4, 53, 0
6, 56061, Note_on_c, 4, 58, 0
6, 56061, Note_on_c, 4, 61, 0
6, 56064, Note_on_c, 4, 53, 81
6, 56064, Note_on_c, 4, 58, 82
6, 56064, Note_on_c, 4, 61, 82
6, 56445, Note_on_c, 4, 53, 0
6, 56445, Note_on_c, 4, 58, 0
6, 56445, Note_on_c, 4, 61, 0
6, 56448, Note_on_c, 4, 51, 83
6, 56448, Note_on_c, 4, 56, 80
6, 56448, Note_on_c, 4, 60, 83
6, 56829, Note_on_c, 4, 51, 0
6, 56829, Note_on_c, 4, 56, 0
6, 56829, Note_on_c, 4, 60, 0
6, 56832, Note_on_c, 4, 49, 82
6, 56832, Note_on_c, 4, 54, 83
6, 56832, Note_on_c, 4, 58, 82
6, 57597, Note_on_c, 4, 49, 0
6, 57597, Note_on_c, 4, 54, 0
6, 57597, Note_on_c, 4, 58, 0
6, 57600, Note_on_c, 4, 51, 82
6, 57600, Note_on_c, 4, 55, 82
6, 57600, Note_on_c, 4, 58, 82
6, 57885, Note_on_c, 4, 55, 0
6, 57885, Note_on_c, 4, 58, 0
6, 57888, Note_on_c, 4, 56, 82
6, 57888, Note_on_c, 4, 60, 82
6, 58365, Note_on_c, 4, 56, 0
6, 58365, Note_on_c, 4, 60, 0
6, 58368, Note_on_c, 4, 55, 82
6, 58368, Note_on_c, 4, 58, 82
6, 58653, Note_on_c, 4, 55, 0
6, 58653, Note_on_c, 4, 58, 0
6, 58656, Note_on_c, 4, 56, 82
6, 58656, Note_on_c, 4, 60, 82
6, 59133, Note_on_c, 4, 51, 0
6, 59133, Note_on_c, 4, 56, 0
6, 59133, Note_on_c, 4, 60, 0
6, 59136, Note_on_c, 4, 51, 82
6, 59136, Note_on_c, 4, 55, 82
6, 59136, Note_on_c, 4, 58, 82
6, 59421, Note_on_c, 4, 55, 0
6, 59421, Note_on_c, 4, 58, 0
6, 59424, Note_on_c, 4, 56, 82
6, 59424, Note_on_c, 4, 60, 82
6, 59901, Note_on_c, 4, 56, 0
6, 59901, Note_on_c, 4, 60, 0
6, 59904, Note_on_c, 4, 55, 82
6, 59904, Note_on_c, 4, 58, 82
6, 60189, Note_on_c, 4, 55, 0
6, 60189, Note_on_c, 4, 58, 0
6, 60192, Note_on_c, 4, 56, 82
6, 60192, Note_on_c, 4, 60, 82
6, 60669, Note_on_c, 4, 51, 0
6, 60669, Note_on_c, 4, 56, 0
6, 60669, Note_on_c, 4, 60, 0
6, 60672, Note_on_c, 4, 53, 81
6, 60672, Note_on_c, 4, 58, 82
6, 60672, Note_on_c, 4, 61, 82
6, 61437, Note_on_c, 4, 53, 0
6, 61437, Note_on_c, 4, 58, 0
6, 61437, Note_on_c, 4, 61, 0
6, 61440, Note_on_c, 4, 53, 81
6, 61440, Note_on_c, 4, 58, 82
6, 61440, Note_on_c, 4, 61, 82
6, 62205, Note_on_c, 4, 53, 0
6, 62205, Note_on_c, 4, 58, 0
6, 62205, Note_on_c, 4, 61, 0
6, 62208, Note_on_c, 4, 53, 81
6, 62208, Note_on_c, 4, 58, 82
6, 62208, Note_on_c, 4, 61, 82
6, 62589, Note_on_c, 4, 53, 0
6, 62589, Note_on_c, 4, 58, 0
6, 62589, Note_on_c, 4, 61, 0
6, 62592, Note_on_c, 4, 51, 83
6, 62592, Note_on_c, 4, 56, 80
6, 62592, Note_on_c, 4, 60, 83
6, 62973, Note_on_c, 4, 51, 0
6, 62973, Note_on_c, 4, 56, 0
6, 62973, Note_on_c, 4, 60, 0
6, 62976, Note_on_c, 4, 49, 82
6, 62976, Note_on_c, 4, 54, 83
6, 62976, Note_on_c, 4, 58, 82
6, 63741, Note_on_c, 4, 49, 0
6, 63741, Note_on_c, 4, 54, 0
6, 63741, Note_on_c, 4, 58, 0
6, 63744, Note_on_c, 4, 51, 82
6, 63744, Note_on_c, 4, 55, 82
6, 63744, Note_on_c, 4, 58, 82
6, 64029, Note_on_c, 4, 55, 0
6, 64029, Note_on_c, 4, 58, 0
6, 64032, Note_on_c, 4, 56, 82
6, 64032, Note_on_c, 4, 60, 82
6, 64174, Control_c, 4, 7, 93
6, 64402, Control_c, 4, 7, 89
6, 64445, Control_c, 4, 7, 85
6, 64509, Note_on_c, 4, 56, 0
6, 64509, Note_on_c, 4, 60, 0
6, 64512, Note_on_c, 4, 55, 82
6, 64512, Note_on_c, 4, 58, 82
6, 64629, Control_c, 4, 7, 80
6, 64797, Note_on_c, 4, 55, 0
6, 64797, Note_on_c, 4, 58, 0
6, 64800, Note_on_c, 4, 56, 82
6, 64800, Note_on_c, 4, 60, 82
6, 64809, Control_c, 4, 7, 75
6, 65107, Control_c, 4, 7, 71
6, 65261, Control_c, 4, 7, 65
6, 65277, Note_on_c, 4, 51, 0
6, 65277, Note_on_c, 4, 56, 0
6, 65277, Note_on_c, 4, 60, 0
6, 65280, Note_on_c, 4, 51, 82
6, 65280, Note_on_c, 4, 55, 82
6, 65280, Note_on_c, 4, 58, 82
6, 65565, Note_on_c, 4, 55, 0
6, 65565, Note_on_c, 4, 58, 0
6, 65568, Note_on_c, 4, 56, 82
6, 65568, Note_on_c, 4, 60, 82
6, 65597, Control_c, 4, 7, 59
6, 65702, Control_c, 4, 7, 54
6, 65879, Control_c, 4, 7, 50
6, 66045, Note_on_c, 4, 56, 0
6, 66045, Note_on_c, 4, 60, 0
6, 66048, Note_on_c, 4, 55, 82
6, 66048, Note_on_c, 4, 58, 82
6, 66119, Control_c, 4, 7, 46
6, 66333, Note_on_c, 4, 55, 0
6, 66333, Note_on_c, 4, 58, 0
6, 66336, Note_on_c, 4, 56, 82
6, 66336, Note_on_c, 4, 60, 82
6, 66385, Control_c, 4, 7, 40
6, 66686, Control_c, 4, 7, 36
6, 66813, Note_on_c, 4, 51, 0
6, 66813, Note_on_c, 4, 56, 0
6, 66813, Note_on_c, 4, 60, 0
6, 66816, Note_on_c, 4, 53, 75
6, 66816, Note_on_c, 4, 58, 74
6, 66816, Note_on_c, 4, 61, 73
6, 66974, Control_c, 4, 7, 28
6, 67196, Control_c, 4, 7, 23
6, 67365, Control_c, 4, 7, 17
6, 67565, Control_c, 4, 7, 12
6, 67581, Note_on_c, 4, 53, 0
6, 67581, Note_on_c, 4, 58, 0
6, 67581, Note_on_c, 4, 61, 0
6, 67584, Note_on_c, 4, 53, 66
6, 67584, Note_on_c, 4, 58, 63
6, 67584, Note_on_c, 4, 61, 61
6, 67922, Control_c, 4, 7, 11
6, 68067, Control_c, 4, 7, 10
6, 68121, Control_c, 4, 7, 9
6, 68157, Note_on_c, 4, 53, 0
6, 68157, Note_on_c, 4, 58, 0
6, 68157, Note_on_c, 4, 61, 0
6, 68181, Control_c, 4, 120, 0
6, 68186, Control_c, 4, 123, 0
6, 68186, End_track
7, 0, Start_track
7, 0, Channel_prefix, 5
7, 0, Text_t, "Slow str"
7, 254, Control_c, 5, 121, 0
7, 304, Control_c, 5, 7, 98
7, 305, Control_c, 5, 10, 105
7, 306, Control_c, 5, 11, 127
7, 307, Control_c, 5, 91, 77
7, 308, Control_c, 5, 93, 78
7, 309, Pitch_bend_c, 5, 8192
7, 351, Control_c, 5, 0, 0
7, 406, Program_c, 5, 49
7, 6102, Control_c, 5, 7, 8
7, 6144, Note_on_c, 5, 42, 75
7, 6144, Note_on_c, 5, 56, 75
7, 6144, Note_on_c, 5, 61, 75
7, 6144, Note_on_c, 5, 63, 75
7, 6144, Note_on_c, 5, 68, 75
7, 6342, Control_c, 5, 7, 9
7, 6357, Control_c, 5, 7, 10
7, 6401, Control_c, 5, 7, 15
7, 6417, Control_c, 5, 7, 26
7, 6437, Control_c, 5, 7, 32
7, 6454, Control_c, 5, 7, 40
7, 6469, Control_c, 5, 7, 47
7, 6487, Control_c, 5, 7, 49
7, 6504, Control_c, 5, 7, 51
7, 6525, Control_c, 5, 7, 55
7, 6544, Control_c, 5, 7, 59
7, 6561, Control_c, 5, 7, 63
7, 6579, Control_c, 5, 7, 72
7, 6595, Control_c, 5, 7, 79
7, 6611, Control_c, 5, 7, 86
7, 6627, Control_c, 5, 7, 89
7, 6662, Control_c, 5, 7, 86
7, 6679, Control_c, 5, 7, 84
7, 6696, Control_c, 5, 7, 81
7, 6719, Control_c, 5, 7, 78
7, 6737, Control_c, 5, 7, 77
7, 6758, Control_c, 5, 7, 75
7, 6779, Control_c, 5, 7, 73
7, 6795, Control_c, 5, 7, 71
7, 6812, Control_c, 5, 7, 69
7, 6828, Control_c, 5, 7, 67
7, 6844, Control_c, 5, 7, 63
7, 6865, Control_c, 5, 7, 60
7, 6883, Control_c, 5, 7, 58
7, 6900, Control_c, 5, 7, 56
7, 6909, Note_on_c, 5, 42, 0
7, 6909, Note_on_c, 5, 56, 0
7, 6909, Note_on_c, 5, 61, 0
7, 6909, Note_on_c, 5, 63, 0
7, 6909, Note_on_c, 5, 68, 0
7, 6996, Control_c, 5, 7, 98
7, 7152, Note_on_c, 5, 79, 82
7, 7197, Note_on_c, 5, 79, 0
7, 7200, Note_on_c, 5, 80, 81
7, 7437, Note_on_c, 5, 80, 0
7, 7440, Note_on_c, 5, 79, 81
7, 7485, Note_on_c, 5, 79, 0
7, 7488, Note_on_c, 5, 80, 81
7, 7581, Note_on_c, 5, 80, 0
7, 7584, Note_on_c, 5, 84, 78
7, 7677, Note_on_c, 5, 84, 0
7, 7680, Note_on_c, 5, 75, 77
7, 8685, Note_on_c, 5, 75, 0
7, 8688, Note_on_c, 5, 79, 82
7, 8733, Note_on_c, 5, 79, 0
7, 8736, Note_on_c, 5, 80, 81
7, 8973, Note_on_c, 5, 80, 0
7, 8976, Note_on_c, 5, 79, 81
7, 9021, Note_on_c, 5, 79, 0
7, 9024, Note_on_c, 5, 80, 81
7, 9117, Note_on_c, 5, 80, 0
7, 9120, Note_on_c, 5, 84, 78
7, 9213, Note_on_c, 5, 84, 0
7, 9216, Note_on_c, 5, 87, 77
7, 9981, Note_on_c, 5, 87, 0
7, 22335, Note_off_c, 15, 64, 64
7, 23300, Note_off_c, 15, 64, 69
7, 23500, Note_off_c, 15, 64, 77
7, 23695, Note_off_c, 15, 64, 80
7, 23808, Note_on_c, 5, 75, 74
7, 24381, Note_on_c, 5, 75, 0
7, 24384, Note_on_c, 5, 80, 75
7, 24573, Note_on_c, 5, 80, 0
7, 24576, Note_on_c, 5, 82, 76
7, 24861, Note_on_c, 5, 82, 0
7, 24864, Note_on_c, 5, 84, 74
7, 25149, Note_on_c, 5, 84, 0
7, 25152, Note_on_c, 5, 87, 76
7, 25917, Note_on_c, 5, 87, 0
7, 25920, Note_on_c, 5, 91, 76
7, 26109, Note_on_c, 5, 91, 0
7, 26112, Note_on_c, 5, 82, 76
7, 26253, Note_on_c, 5, 82, 0
7, 26256, Note_on_c, 5, 87, 76
7, 26397, Note_on_c, 5, 87, 0
7, 26400, Note_on_c, 5, 84, 75
7, 26685, Note_on_c, 5, 84, 0
7, 26688, Note_on_c, 5, 87, 76
7, 26877, Note_on_c, 5, 87, 0
7, 26880, Note_on_c, 5, 80, 76
7, 27405, Note_on_c, 5, 80, 0
7, 27408, Note_on_c, 5, 79, 76
7, 27453, Note_on_c, 5, 79, 0
7, 27456, Note_on_c, 5, 80, 76
7, 27549, Note_on_c, 5, 80, 0
7, 27552, Note_on_c, 5, 84, 76
7, 27645, Note_on_c, 5, 84, 0
7, 27648, Note_on_c, 5, 80, 71
7, 28269, Note_on_c, 5, 80, 0
7, 28272, Note_on_c, 5, 75, 83
7, 28317, Note_on_c, 5, 75, 0
7, 28320, Note_on_c, 5, 77, 81
7, 28365, Note_on_c, 5, 77, 0
7, 28368, Note_on_c, 5, 82, 84
7, 28413, Note_on_c, 5, 82, 0
7, 28416, Note_on_c, 5, 80, 71
7, 28989, Note_on_c, 5, 80, 0
7, 28992, Note_on_c, 5, 75, 71
7, 29181, Note_on_c, 5, 75, 0
7, 29184, Note_on_c, 5, 73, 62
7, 29805, Note_on_c, 5, 73, 0
7, 36096, Note_on_c, 5, 75, 74
7, 36669, Note_on_c, 5, 75, 0
7, 36672, Note_on_c, 5, 80, 75
7, 36861, Note_on_c, 5, 80, 0
7, 36864, Note_on_c, 5, 82, 76
7, 37149, Note_on_c, 5, 82, 0
7, 37152, Note_on_c, 5, 84, 74
7, 37437, Note_on_c, 5, 84, 0
7, 37440, Note_on_c, 5, 87, 76
7, 38205, Note_on_c, 5, 87, 0
7, 38208, Note_on_c, 5, 91, 76
7, 38397, Note_on_c, 5, 91, 0
7, 38400, Note_on_c, 5, 82, 76
7, 38541, Note_on_c, 5, 82, 0
7, 38544, Note_on_c, 5, 87, 76
7, 38685, Note_on_c, 5, 87, 0
7, 38688, Note_on_c, 5, 84, 75
7, 38973, Note_on_c, 5, 84, 0
7, 38976, Note_on_c, 5, 87, 76
7, 39165, Note_on_c, 5, 87, 0
7, 39168, Note_on_c, 5, 80, 76
7, 39693, Note_on_c, 5, 80, 0
7, 39696, Note_on_c, 5, 79, 76
7, 39741, Note_on_c, 5, 79, 0
7, 39744, Note_on_c, 5, 80, 76
7, 39837, Note_on_c, 5, 80, 0
7, 39840, Note_on_c, 5, 84, 76
7, 39933, Note_on_c, 5, 84, 0
7, 39936, Note_on_c, 5, 80, 71
7, 40557, Note_on_c, 5, 80, 0
7, 40560, Note_on_c, 5, 75, 83
7, 40605, Note_on_c, 5, 75, 0
7, 40608, Note_on_c, 5, 77, 81
7, 40653, Note_on_c, 5, 77, 0
7, 40656, Note_on_c, 5, 82, 84
7, 40701, Note_on_c, 5, 82, 0
7, 40704, Note_on_c, 5, 80, 71
7, 41277, Note_on_c, 5, 80, 0
7, 41280, Note_on_c, 5, 75, 71
7, 41469, Note_on_c, 5, 75, 0
7, 41472, Note_on_c, 5, 73, 62
7, 41920, Note_on_c, 5, 61, 112
7, 41936, Note_on_c, 5, 63, 112
7, 41949, Note_on_c, 5, 73, 0
7, 41952, Note_on_c, 5, 65, 110
7, 41957, Note_on_c, 5, 61, 0
7, 41967, Note_on_c, 5, 63, 0
7, 41968, Note_on_c, 5, 66, 112
7, 41989, Note_on_c, 5, 65, 0
7, 42000, Note_on_c, 5, 68, 111
7, 42011, Note_on_c, 5, 66, 0
7, 42016, Note_on_c, 5, 70, 113
7, 42032, Note_on_c, 5, 72, 109
7, 42034, Note_on_c, 5, 68, 0
7, 42048, Note_on_c, 5, 73, 113
7, 42053, Note_on_c, 5, 70, 0
7, 42064, Note_on_c, 5, 75, 113
7, 42072, Note_on_c, 5, 72, 0
7, 42078, Note_on_c, 5, 73, 0
7, 42080, Note_on_c, 5, 77, 111
7, 42092, Note_on_c, 5, 75, 0
7, 42096, Note_on_c, 5, 78, 112
7, 42109, Note_on_c, 5, 77, 0
7, 42112, Note_on_c, 5, 80, 113
7, 42128, Note_on_c, 5, 82, 112
7, 42136, Note_on_c, 5, 78, 0
7, 42143, Note_on_c, 5, 80, 0
7, 42144, Note_on_c, 5, 84, 110
7, 42160, Note_on_c, 5, 85, 110
7, 42169, Note_on_c, 5, 82, 0
7, 42176, Note_on_c, 5, 87, 115
7, 42178, Note_on_c, 5, 84, 0
7, 42192, Note_on_c, 5, 85, 0
7, 42192, Note_on_c, 5, 89, 109
7, 42208, Note_on_c, 5, 90, 105
7, 42210, Note_on_c, 5, 87, 0
7, 42224, Note_on_c, 5, 92, 89
7, 42225, Note_on_c, 5, 89, 0
7, 42248, Note_on_c, 5, 90, 0
7, 42813, Note_on_c, 5, 92, 0
7, 42816, Note_on_c, 5, 84, 89
7, 43005, Note_on_c, 5, 84, 0
7, 43008, Note_on_c, 5, 82, 89
7, 43389, Note_on_c, 5, 82, 0
7, 43392, Note_on_c, 5, 91, 89
7, 43773, Note_on_c, 5, 91, 0
7, 43776, Note_on_c, 5, 87, 90
7, 44157, Note_on_c, 5, 87, 0
7, 44160, Note_on_c, 5, 78, 88
7, 44541, Note_on_c, 5, 78, 0
7, 44544, Note_on_c, 5, 80, 102
7, 44560, Note_on_c, 5, 82, 96
7, 44568, Note_on_c, 5, 80, 0
7, 44576, Note_on_c, 5, 80, 105
7, 44584, Note_on_c, 5, 82, 0
7, 44592, Note_on_c, 5, 82, 94
7, 44600, Note_on_c, 5, 80, 0
7, 44608, Note_on_c, 5, 80, 102
7, 44616, Note_on_c, 5, 82, 0
7, 44624, Note_on_c, 5, 82, 96
7, 44632, Note_on_c, 5, 80, 0
7, 44640, Note_on_c, 5, 80, 102
7, 44648, Note_on_c, 5, 82, 0
7, 44656, Note_on_c, 5, 82, 96
7, 44664, Note_on_c, 5, 80, 0
7, 44672, Note_on_c, 5, 80, 101
7, 44680, Note_on_c, 5, 82, 0
7, 44688, Note_on_c, 5, 79, 100
7, 44696, Note_on_c, 5, 80, 0
7, 44704, Note_on_c, 5, 80, 95
7, 44712, Note_on_c, 5, 79, 0
7, 44720, Note_on_c, 5, 82, 82
7, 44728, Note_on_c, 5, 80, 0
7, 44845, Note_on_c, 5, 82, 0
7, 45312, Note_on_c, 5, 75, 74
7, 45885, Note_on_c, 5, 75, 0
7, 45888, Note_on_c, 5, 80, 75
7, 46077, Note_on_c, 5, 80, 0
7, 46080, Note_on_c, 5, 82, 76
7, 46365, Note_on_c, 5, 82, 0
7, 46368, Note_on_c, 5, 84, 74
7, 46653, Note_on_c, 5, 84, 0
7, 46656, Note_on_c, 5, 87, 76
7, 47421, Note_on_c, 5, 87, 0
7, 47424, Note_on_c, 5, 91, 76
7, 47613, Note_on_c, 5, 91, 0
7, 47616, Note_on_c, 5, 82, 76
7, 47757, Note_on_c, 5, 82, 0
7, 47760, Note_on_c, 5, 87, 76
7, 47901, Note_on_c, 5, 87, 0
7, 47904, Note_on_c, 5, 84, 75
7, 48189, Note_on_c, 5, 84, 0
7, 48192, Note_on_c, 5, 87, 76
7, 48381, Note_on_c, 5, 87, 0
7, 48384, Note_on_c, 5, 80, 76
7, 48909, Note_on_c, 5, 80, 0
7, 48912, Note_on_c, 5, 79, 76
7, 48957, Note_on_c, 5, 79, 0
7, 48960, Note_on_c, 5, 80, 76
7, 49053, Note_on_c, 5, 80, 0
7, 49056, Note_on_c, 5, 84, 76
7, 49149, Note_on_c, 5, 84, 0
7, 49152, Note_on_c, 5, 80, 71
7, 49728, Note_on_c, 5, 75, 83
7, 49773, Note_on_c, 5, 80, 0
7, 49789, Note_on_c, 5, 75, 0
7, 49792, Note_on_c, 5, 77, 81
7, 49853, Note_on_c, 5, 77, 0
7, 49856, Note_on_c, 5, 82, 84
7, 49917, Note_on_c, 5, 82, 0
7, 49920, Note_on_c, 5, 80, 71
7, 50493, Note_on_c, 5, 80, 0
7, 50496, Note_on_c, 5, 75, 71
7, 50685, Note_on_c, 5, 75, 0
7, 50688, Note_on_c, 5, 73, 65
7, 51069, Note_on_c, 5, 73, 0
7, 51072, Note_on_c, 5, 70, 64
7, 51453, Note_on_c, 5, 70, 0
7, 51456, Note_on_c, 5, 75, 74
7, 52029, Note_on_c, 5, 75, 0
7, 52032, Note_on_c, 5, 80, 75
7, 52221, Note_on_c, 5, 80, 0
7, 52224, Note_on_c, 5, 82, 76
7, 52509, Note_on_c, 5, 82, 0
7, 52512, Note_on_c, 5, 84, 74
7, 52797, Note_on_c, 5, 84, 0
7, 52800, Note_on_c, 5, 87, 76
7, 53565, Note_on_c, 5, 87, 0
7, 53568, Note_on_c, 5, 91, 76
7, 53757, Note_on_c, 5, 91, 0
7, 53760, Note_on_c, 5, 82, 76
7, 53901, Note_on_c, 5, 82, 0
7, 53904, Note_on_c, 5, 87, 76
7, 54045, Note_on_c, 5, 87, 0
7, 54048, Note_on_c, 5, 84, 75
7, 54333, Note_on_c, 5, 84, 0
7, 54336, Note_on_c, 5, 87, 76
7, 54525, Note_on_c, 5, 87, 0
7, 54528, Note_on_c, 5, 80, 76
7, 55053, Note_on_c, 5, 80, 0
7, 55056, Note_on_c, 5, 79, 76
7, 55101, Note_on_c, 5, 79, 0
7, 55104, Note_on_c, 5, 80, 76
7, 55197, Note_on_c, 5, 80, 0
7, 55200, Note_on_c, 5, 84, 76
7, 55293, Note_on_c, 5, 84, 0
7, 55296, Note_on_c, 5, 80, 71
7, 55872, Note_on_c, 5, 75, 83
7, 55917, Note_on_c, 5, 80, 0
7, 55933, Note_on_c, 5, 75, 0
7, 55936, Note_on_c, 5, 77, 81
7, 55997, Note_on_c, 5, 77, 0
7, 56000, Note_on_c, 5, 82, 84
7, 56061, Note_on_c, 5, 82, 0
7, 56064, Note_on_c, 5, 80, 71
7, 56637, Note_on_c, 5, 80, 0
7, 56640, Note_on_c, 5, 75, 71
7, 56829, Note_on_c, 5, 75, 0
7, 56832, Note_on_c, 5, 73, 65
7, 57213, Note_on_c, 5, 73, 0
7, 57216, Note_on_c, 5, 70, 64
7, 57597, Note_on_c, 5, 70, 0
7, 57600, Note_on_c, 5, 75, 74
7, 58173, Note_on_c, 5, 75, 0
7, 58176, Note_on_c, 5, 80, 75
7, 58365, Note_on_c, 5, 80, 0
7, 58368, Note_on_c, 5, 82, 76
7, 58653, Note_on_c, 5, 82, 0
7, 58656, Note_on_c, 5, 84, 74
7, 58941, Note_on_c, 5, 84, 0
7, 58944, Note_on_c, 5, 87, 76
7, 59709, Note_on_c, 5, 87, 0
7, 59712, Note_on_c, 5, 91, 76
7, 59901, Note_on_c, 5, 91, 0
7, 59904, Note_on_c, 5, 82, 76
7, 60045, Note_on_c, 5, 82, 0
7, 60048, Note_on_c, 5, 87, 76
7, 60189, Note_on_c, 5, 87, 0
7, 60192, Note_on_c, 5, 84, 75
7, 60477, Note_on_c, 5, 84, 0
7, 60480, Note_on_c, 5, 87, 76
7, 60669, Note_on_c, 5, 87, 0
7, 60672, Note_on_c, 5, 80, 76
7, 61197, Note_on_c, 5, 80, 0
7, 61200, Note_on_c, 5, 79, 76
7, 61245, Note_on_c, 5, 79, 0
7, 61248, Note_on_c, 5, 80, 76
7, 61341, Note_on_c, 5, 80, 0
7, 61344, Note_on_c, 5, 84, 76
7, 61437, Note_on_c, 5, 84, 0
7, 61440, Note_on_c, 5, 80, 71
7, 62016, Note_on_c, 5, 75, 83
7, 62061, Note_on_c, 5, 80, 0
7, 62077, Note_on_c, 5, 75, 0
7, 62080, Note_on_c, 5, 77, 81
7, 62141, Note_on_c, 5, 77, 0
7, 62144, Note_on_c, 5, 82, 84
7, 62205, Note_on_c, 5, 82, 0
7, 62208, Note_on_c, 5, 80, 71
7, 62781, Note_on_c, 5, 80, 0
7, 62784, Note_on_c, 5, 75, 71
7, 62973, Note_on_c, 5, 75, 0
7, 62976, Note_on_c, 5, 73, 65
7, 63357, Note_on_c, 5, 73, 0
7, 63360, Note_on_c, 5, 70, 64
7, 63741, Note_on_c, 5, 70, 0
7, 63744, Note_on_c, 5, 75, 74
7, 64177, Control_c, 5, 7, 93
7, 64317, Note_on_c, 5, 75, 0
7, 64320, Note_on_c, 5, 80, 75
7, 64405, Control_c, 5, 7, 89
7, 64448, Control_c, 5, 7, 85
7, 64509, Note_on_c, 5, 80, 0
7, 64512, Note_on_c, 5, 82, 76
7, 64632, Control_c, 5, 7, 80
7, 64797, Note_on_c, 5, 82, 0
7, 64800, Note_on_c, 5, 84, 74
7, 64812, Control_c, 5, 7, 75
7, 65085, Note_on_c, 5, 84, 0
7, 65088, Note_on_c, 5, 87, 76
7, 65110, Control_c, 5, 7, 71
7, 65264, Control_c, 5, 7, 65
7, 65600, Control_c, 5, 7, 59
7, 65705, Control_c, 5, 7, 54
7, 65853, Note_on_c, 5, 87, 0
7, 65856, Note_on_c, 5, 91, 76
7, 65881, Control_c, 5, 7, 50
7, 66045, Note_on_c, 5, 91, 0
7, 66048, Note_on_c, 5, 82, 76
7, 66122, Control_c, 5, 7, 46
7, 66189, Note_on_c, 5, 82, 0
7, 66192, Note_on_c, 5, 87, 76
7, 66333, Note_on_c, 5, 87, 0
7, 66336, Note_on_c, 5, 84, 75
7, 66388, Control_c, 5, 7, 40
7, 66621, Note_on_c, 5, 84, 0
7, 66624, Note_on_c, 5, 87, 76
7, 66689, Control_c, 5, 7, 32
7, 66813, Note_on_c, 5, 87, 0
7, 66816, Note_on_c, 5, 80, 76
7, 66977, Control_c, 5, 7, 28
7, 67199, Control_c, 5, 7, 23
7, 67341, Note_on_c, 5, 80, 0
7, 67344, Note_on_c, 5, 79, 76
7, 67367, Control_c, 5, 7, 17
7, 67389, Note_on_c, 5, 79, 0
7, 67392, Note_on_c, 5, 80, 76
7, 67485, Note_on_c, 5, 80, 0
7, 67488, Note_on_c, 5, 84, 76
7, 67568, Control_c, 5, 7, 12
7, 67581, Note_on_c, 5, 84, 0
7, 67584, Note_on_c, 5, 80, 71
7, 67925, Control_c, 5, 7, 8
7, 68013, Note_on_c, 5, 80, 0
7, 68070, Control_c, 5, 7, 3
7, 68124, Control_c, 5, 7, 0
7, 68186, Control_c, 5, 120, 0
7, 68190, Control_c, 5, 123, 0
7, 68190, End_track
8, 0, Start_track
8, 0, Channel_prefix, 6
8, 0, Text_t, "Windchim"
8, 312, Control_c, 6, 121, 0
8, 362, Control_c, 6, 7, 6
8, 363, Control_c, 6, 10, 126
8, 364, Control_c, 6, 11, 127
8, 365, Control_c, 6, 91, 95
8, 366, Control_c, 6, 93, 9
8, 367, Pitch_bend_c, 6, 8192
8, 409, Control_c, 6, 0, 5
8, 464, Program_c, 6, 124
8, 6144, Note_on_c, 6, 79, 48
8, 6239, Control_c, 6, 7, 12
8, 6335, Control_c, 6, 7, 22
8, 6400, Control_c, 6, 7, 31
8, 6489, Control_c, 6, 7, 45
8, 6575, Control_c, 6, 7, 54
8, 6577, Control_c, 6, 10, 107
8, 6643, Control_c, 6, 7, 67
8, 6667, Control_c, 6, 10, 79
8, 6711, Control_c, 6, 7, 80
8, 6772, Control_c, 6, 10, 59
8, 6779, Control_c, 6, 7, 91
8, 6855, Control_c, 6, 7, 102
8, 6893, Control_c, 6, 10, 26
8, 6952, Control_c, 6, 10, 0
8, 7017, Control_c, 6, 7, 101
8, 7119, Control_c, 6, 7, 94
8, 7193, Control_c, 6, 7, 85
8, 7269, Control_c, 6, 7, 69
8, 7340, Control_c, 6, 7, 59
8, 7418, Control_c, 6, 7, 48
8, 7510, Control_c, 6, 7, 35
8, 7581, Control_c, 6, 7, 23
8, 7660, Control_c, 6, 7, 17
8, 7677, Note_on_c, 6, 79, 0
8, 10752, Note_on_c, 6, 79, 48
8, 10943, Control_c, 6, 7, 22
8, 11008, Control_c, 6, 7, 31
8, 11097, Control_c, 6, 7, 45
8, 11183, Control_c, 6, 7, 54
8, 11185, Control_c, 6, 10, 30
8, 11251, Control_c, 6, 7, 67
8, 11275, Control_c, 6, 10, 53
8, 11319, Control_c, 6, 7, 80
8, 11380, Control_c, 6, 10, 76
8, 11387, Control_c, 6, 7, 91
8, 11463, Control_c, 6, 7, 102
8, 11501, Control_c, 6, 10, 103
8, 11560, Control_c, 6, 10, 127
8, 11625, Control_c, 6, 7, 101
8, 11727, Control_c, 6, 7, 94
8, 11801, Control_c, 6, 7, 85
8, 11877, Control_c, 6, 7, 69
8, 11948, Control_c, 6, 7, 59
8, 12026, Control_c, 6, 7, 48
8, 12118, Control_c, 6, 7, 35
8, 12189, Control_c, 6, 7, 23
8, 12268, Control_c, 6, 7, 17
8, 12285, Note_on_c, 6, 79, 0
8, 23103, Note_off_c, 15, 64, 64
8, 23492, Note_off_c, 15, 64, 69
8, 23692, Note_off_c, 15, 64, 77
8, 23887, Note_off_c, 15, 64, 80
8, 29184, Note_on_c, 6, 79, 48
8, 29375, Control_c, 6, 7, 22
8, 29440, Control_c, 6, 7, 31
8, 29529, Control_c, 6, 7, 45
8, 29615, Control_c, 6, 7, 54
8, 29617, Control_c, 6, 10, 30
8, 29683, Control_c, 6, 7, 67
8, 29707, Control_c, 6, 10, 53
8, 29751, Control_c, 6, 7, 80
8, 29812, Control_c, 6, 10, 76
8, 29819, Control_c, 6, 7, 91
8, 29895, Control_c, 6, 7, 102
8, 29933, Control_c, 6, 10, 103
8, 29992, Control_c, 6, 10, 127
8, 30057, Control_c, 6, 7, 101
8, 30159, Control_c, 6, 7, 94
8, 30233, Control_c, 6, 7, 85
8, 30309, Control_c, 6, 7, 69
8, 30380, Control_c, 6, 7, 59
8, 30458, Control_c, 6, 7, 48
8, 30550, Control_c, 6, 7, 35
8, 30621, Control_c, 6, 7, 23
8, 30700, Control_c, 6, 7, 17
8, 30717, Note_on_c, 6, 79, 0
8, 41471, Control_c, 6, 10, 0
8, 41472, Note_on_c, 6, 79, 48
8, 41663, Control_c, 6, 7, 22
8, 41728, Control_c, 6, 7, 31
8, 41817, Control_c, 6, 7, 45
8, 41903, Control_c, 6, 7, 54
8, 41905, Control_c, 6, 10, 30
8, 41971, Control_c, 6, 7, 67
8, 41995, Control_c, 6, 10, 53
8, 42039, Control_c, 6, 7, 80
8, 42100, Control_c, 6, 10, 76
8, 42107, Control_c, 6, 7, 91
8, 42183, Control_c, 6, 7, 102
8, 42221, Control_c, 6, 10, 103
8, 42280, Control_c, 6, 10, 127
8, 42345, Control_c, 6, 7, 101
8, 42447, Control_c, 6, 7, 94
8, 42521, Control_c, 6, 7, 85
8, 42597, Control_c, 6, 7, 69
8, 42668, Control_c, 6, 7, 59
8, 42746, Control_c, 6, 7, 48
8, 42838, Control_c, 6, 7, 35
8, 42909, Control_c, 6, 7, 23
8, 42988, Control_c, 6, 7, 17
8, 43005, Note_on_c, 6, 79, 0
8, 50687, Control_c, 6, 10, 0
8, 50688, Note_on_c, 6, 79, 48
8, 50879, Control_c, 6, 7, 22
8, 50944, Control_c, 6, 7, 31
8, 51033, Control_c, 6, 7, 45
8, 51119, Control_c, 6, 7, 54
8, 51121, Control_c, 6, 10, 30
8, 51187, Control_c, 6, 7, 67
8, 51211, Control_c, 6, 10, 53
8, 51255, Control_c, 6, 7, 80
8, 51316, Control_c, 6, 10, 76
8, 51323, Control_c, 6, 7, 91
8, 51399, Control_c, 6, 7, 102
8, 51437, Control_c, 6, 10, 103
8, 51496, Control_c, 6, 10, 127
8, 51561, Control_c, 6, 7, 101
8, 51663, Control_c, 6, 7, 94
8, 51737, Control_c, 6, 7, 85
8, 51813, Control_c, 6, 7, 69
8, 51884, Control_c, 6, 7, 59
8, 51962, Control_c, 6, 7, 48
8, 52054, Control_c, 6, 7, 35
8, 52125, Control_c, 6, 7, 23
8, 52204, Control_c, 6, 7, 17
8, 52221, Note_on_c, 6, 79, 0
8, 56831, Control_c, 6, 10, 0
8, 56832, Note_on_c, 6, 79, 48
8, 57023, Control_c, 6, 7, 22
8, 57088, Control_c, 6, 7, 31
8, 57177, Control_c, 6, 7, 45
8, 57263, Control_c, 6, 7, 54
8, 57265, Control_c, 6, 10, 30
8, 57331, Control_c, 6, 7, 67
8, 57355, Control_c, 6, 10, 53
8, 57399, Control_c, 6, 7, 80
8, 57460, Control_c, 6, 10, 76
8, 57467, Control_c, 6, 7, 91
8, 57543, Control_c, 6, 7, 102
8, 57581, Control_c, 6, 10, 103
8, 57640, Control_c, 6, 10, 127
8, 57705, Control_c, 6, 7, 101
8, 57807, Control_c, 6, 7, 94
8, 57881, Control_c, 6, 7, 85
8, 57957, Control_c, 6, 7, 69
8, 58028, Control_c, 6, 7, 59
8, 58106, Control_c, 6, 7, 48
8, 58198, Control_c, 6, 7, 35
8, 58269, Control_c, 6, 7, 23
8, 58348, Control_c, 6, 7, 17
8, 58365, Note_on_c, 6, 79, 0
8, 62975, Control_c, 6, 10, 0
8, 62976, Note_on_c, 6, 79, 48
8, 63167, Control_c, 6, 7, 22
8, 63232, Control_c, 6, 7, 31
8, 63321, Control_c, 6, 7, 45
8, 63407, Control_c, 6, 7, 54
8, 63409, Control_c, 6, 10, 30
8, 63475, Control_c, 6, 7, 67
8, 63499, Control_c, 6, 10, 53
8, 63543, Control_c, 6, 7, 80
8, 63604, Control_c, 6, 10, 76
8, 63611, Control_c, 6, 7, 91
8, 63687, Control_c, 6, 7, 102
8, 63725, Control_c, 6, 10, 103
8, 63784, Control_c, 6, 10, 127
8, 63849, Control_c, 6, 7, 101
8, 63951, Control_c, 6, 7, 94
8, 64025, Control_c, 6, 7, 85
8, 64101, Control_c, 6, 7, 69
8, 64172, Control_c, 6, 7, 59
8, 64250, Control_c, 6, 7, 48
8, 64342, Control_c, 6, 7, 35
8, 64413, Control_c, 6, 7, 23
8, 64492, Control_c, 6, 7, 17
8, 64509, Note_on_c, 6, 79, 0
8, 68239, Control_c, 6, 120, 0
8, 68243, Control_c, 6, 123, 0
8, 68243, End_track
9, 0, Start_track
9, 0, Channel_prefix, 7
9, 0, Text_t, "Rev.cymb"
9, 302, Control_c, 7, 121, 0
9, 352, Control_c, 7, 7, 98
9, 353, Control_c, 7, 10, 77
9, 354, Control_c, 7, 11, 127
9, 355, Control_c, 7, 91, 116
9, 356, Control_c, 7, 93, 91
9, 357, Pitch_bend_c, 7, 8192
9, 399, Control_c, 7, 0, 0
9, 454, Program_c, 7, 119
9, 504, Control_c, 7, 99, 1
9, 554, Control_c, 7, 98, 100
9, 604, Control_c, 7, 6, 109
9, 6624, Note_on_c, 7, 67, 72
9, 7682, Note_on_c, 7, 67, 0
9, 23295, Note_off_c, 15, 64, 64
9, 23520, Note_on_c, 7, 67, 71
9, 23684, Note_off_c, 15, 64, 69
9, 23884, Note_off_c, 15, 64, 77
9, 24079, Note_off_c, 15, 64, 80
9, 24285, Note_on_c, 7, 67, 0
9, 35808, Note_on_c, 7, 67, 71
9, 36573, Note_on_c, 7, 67, 0
9, 68231, Control_c, 7, 120, 0
9, 68235, Control_c, 7, 123, 0
9, 68235, End_track
10, 0, Start_track
10, 0, Channel_prefix, 8
10, 0, Text_t, "Voice oh"
10, 309, Control_c, 8, 121, 0
10, 362, Control_c, 8, 7, 98
10, 363, Control_c, 8, 10, 91
10, 364, Control_c, 8, 11, 127
10, 365, Control_c, 8, 91, 81
10, 366, Control_c, 8, 93, 97
10, 367, Pitch_bend_c, 8, 8192
10, 409, Control_c, 8, 0, 0
10, 464, Program_c, 8, 53
10, 23103, Note_off_c, 15, 64, 64
10, 23876, Note_off_c, 15, 64, 69
10, 24076, Note_off_c, 15, 64, 77
10, 24271, Note_off_c, 15, 64, 80
10, 45357, Note_on_c, 8, 58, 110
10, 45361, Note_on_c, 8, 63, 110
10, 45402, Note_on_c, 8, 58, 0
10, 45406, Note_on_c, 8, 63, 0
10, 45410, Note_on_c, 8, 60, 105
10, 45411, Note_on_c, 8, 58, 105
10, 45443, Note_on_c, 8, 60, 0
10, 45444, Note_on_c, 8, 58, 0
10, 45458, Note_on_c, 8, 58, 109
10, 45458, Note_on_c, 8, 65, 109
10, 45502, Note_on_c, 8, 58, 0
10, 45503, Note_on_c, 8, 65, 0
10, 45504, Note_on_c, 8, 58, 109
10, 45504, Note_on_c, 8, 63, 109
10, 45557, Note_on_c, 8, 58, 0
10, 45557, Note_on_c, 8, 63, 0
10, 45647, Note_on_c, 8, 63, 108
10, 45649, Note_on_c, 8, 60, 108
10, 45712, Note_on_c, 8, 63, 0
10, 45714, Note_on_c, 8, 60, 0
10, 45743, Note_on_c, 8, 60, 106
10, 45743, Note_on_c, 8, 63, 106
10, 45788, Note_on_c, 8, 60, 0
10, 45788, Note_on_c, 8, 63, 0
10, 45791, Note_on_c, 8, 60, 104
10, 45831, Note_on_c, 8, 60, 0
10, 45839, Note_on_c, 8, 65, 105
10, 45842, Note_on_c, 8, 60, 105
10, 45884, Note_on_c, 8, 65, 0
10, 45885, Note_on_c, 8, 63, 108
10, 45887, Note_on_c, 8, 60, 0
10, 45889, Note_on_c, 8, 60, 108
10, 45942, Note_on_c, 8, 63, 0
10, 45946, Note_on_c, 8, 60, 0
10, 45982, Note_on_c, 8, 60, 106
10, 45985, Note_on_c, 8, 60, 0
10, 45986, Note_on_c, 8, 60, 106
10, 46053, Note_on_c, 8, 60, 0
10, 46125, Note_on_c, 8, 58, 107
10, 46130, Note_on_c, 8, 63, 107
10, 46170, Note_on_c, 8, 58, 0
10, 46174, Note_on_c, 8, 58, 103
10, 46175, Note_on_c, 8, 60, 103
10, 46175, Note_on_c, 8, 63, 0
10, 46214, Note_on_c, 8, 58, 0
10, 46215, Note_on_c, 8, 60, 0
10, 46224, Note_on_c, 8, 65, 106
10, 46226, Note_on_c, 8, 58, 106
10, 46269, Note_on_c, 8, 65, 0
10, 46270, Note_on_c, 8, 58, 0
10, 46272, Note_on_c, 8, 58, 108
10, 46273, Note_on_c, 8, 63, 108
10, 46333, Note_on_c, 8, 58, 0
10, 46334, Note_on_c, 8, 63, 0
10, 46413, Note_on_c, 8, 60, 107
10, 46413, Note_on_c, 8, 63, 107
10, 46477, Note_on_c, 8, 60, 0
10, 46477, Note_on_c, 8, 63, 0
10, 46510, Note_on_c, 8, 63, 108
10, 46512, Note_on_c, 8, 60, 108
10, 46555, Note_on_c, 8, 63, 0
10, 46556, Note_on_c, 8, 60, 0
10, 46558, Note_on_c, 8, 60, 104
10, 46595, Note_on_c, 8, 60, 0
10, 46605, Note_on_c, 8, 60, 105
10, 46608, Note_on_c, 8, 65, 105
10, 46650, Note_on_c, 8, 60, 0
10, 46653, Note_on_c, 8, 65, 0
10, 46655, Note_on_c, 8, 63, 108
10, 46657, Note_on_c, 8, 60, 108
10, 46719, Note_on_c, 8, 63, 0
10, 46721, Note_on_c, 8, 60, 0
10, 46749, Note_on_c, 8, 60, 106
10, 46754, Note_on_c, 8, 60, 0
10, 46755, Note_on_c, 8, 60, 106
10, 46810, Note_on_c, 8, 60, 0
10, 46894, Note_on_c, 8, 58, 110
10, 46899, Note_on_c, 8, 63, 110
10, 46939, Note_on_c, 8, 58, 0
10, 46941, Note_on_c, 8, 60, 105
10, 46944, Note_on_c, 8, 58, 105
10, 46944, Note_on_c, 8, 63, 0
10, 46974, Note_on_c, 8, 60, 0
10, 46977, Note_on_c, 8, 58, 0
10, 46992, Note_on_c, 8, 58, 109
10, 46992, Note_on_c, 8, 65, 109
10, 47037, Note_on_c, 8, 58, 0
10, 47037, Note_on_c, 8, 65, 0
10, 47038, Note_on_c, 8, 63, 109
10, 47040, Note_on_c, 8, 58, 109
10, 47091, Note_on_c, 8, 63, 0
10, 47093, Note_on_c, 8, 58, 0
10, 47182, Note_on_c, 8, 60, 108
10, 47185, Note_on_c, 8, 63, 108
10, 47247, Note_on_c, 8, 60, 0
10, 47250, Note_on_c, 8, 63, 0
10, 47279, Note_on_c, 8, 63, 106
10, 47282, Note_on_c, 8, 60, 106
10, 47324, Note_on_c, 8, 63, 0
10, 47326, Note_on_c, 8, 60, 0
10, 47328, Note_on_c, 8, 60, 104
10, 47368, Note_on_c, 8, 60, 0
10, 47374, Note_on_c, 8, 65, 105
10, 47379, Note_on_c, 8, 60, 105
10, 47419, Note_on_c, 8, 65, 0
10, 47420, Note_on_c, 8, 60, 0
10, 47422, Note_on_c, 8, 60, 108
10, 47426, Note_on_c, 8, 63, 108
10, 47479, Note_on_c, 8, 60, 0
10, 47483, Note_on_c, 8, 63, 0
10, 47518, Note_on_c, 8, 60, 106
10, 47519, Note_on_c, 8, 60, 0
10, 47520, Note_on_c, 8, 60, 106
10, 47589, Note_on_c, 8, 60, 0
10, 47666, Note_on_c, 8, 58, 107
10, 47667, Note_on_c, 8, 63, 107
10, 47710, Note_on_c, 8, 60, 103
10, 47711, Note_on_c, 8, 58, 0
10, 47712, Note_on_c, 8, 63, 0
10, 47714, Note_on_c, 8, 58, 103
10, 47750, Note_on_c, 8, 60, 0
10, 47754, Note_on_c, 8, 58, 0
10, 47759, Note_on_c, 8, 58, 106
10, 47763, Note_on_c, 8, 65, 106
10, 47804, Note_on_c, 8, 58, 0
10, 47808, Note_on_c, 8, 63, 108
10, 47808, Note_on_c, 8, 65, 0
10, 47810, Note_on_c, 8, 58, 108
10, 47869, Note_on_c, 8, 63, 0
10, 47871, Note_on_c, 8, 58, 0
10, 47949, Note_on_c, 8, 60, 107
10, 47951, Note_on_c, 8, 63, 107
10, 48013, Note_on_c, 8, 60, 0
10, 48015, Note_on_c, 8, 63, 0
10, 48045, Note_on_c, 8, 60, 108
10, 48047, Note_on_c, 8, 63, 108
10, 48090, Note_on_c, 8, 60, 0
10, 48092, Note_on_c, 8, 63, 0
10, 48097, Note_on_c, 8, 60, 104
10, 48134, Note_on_c, 8, 60, 0
10, 48142, Note_on_c, 8, 60, 105
10, 48143, Note_on_c, 8, 65, 105
10, 48187, Note_on_c, 8, 60, 0
10, 48188, Note_on_c, 8, 65, 0
10, 48192, Note_on_c, 8, 60, 108
10, 48192, Note_on_c, 8, 63, 108
10, 48256, Note_on_c, 8, 60, 0
10, 48256, Note_on_c, 8, 63, 0
10, 48287, Note_on_c, 8, 60, 106
10, 48290, Note_on_c, 8, 60, 0
10, 48291, Note_on_c, 8, 60, 106
10, 48348, Note_on_c, 8, 60, 0
10, 68239, Control_c, 8, 120, 0
10, 68243, Control_c, 8, 123, 0
10, 68243, End_track
11, 0, Start_track
11, 0, Channel_prefix, 9
11, 0, Text_t, "Drum    "
11, 192, Control_c, 9, 121, 0
11, 242, Control_c, 9, 7, 116
11, 244, Control_c, 9, 11, 127
11, 245, Control_c, 9, 91, 84
11, 246, Control_c, 9, 93, 0
11, 296, Program_c, 9, 0
11, 348, Control_c, 9, 99, 24
11, 394, Control_c, 9, 98, 75
11, 446, Control_c, 9, 6, 66
11, 496, Control_c, 9, 98, 31
11, 548, Control_c, 9, 6, 77
11, 598, Control_c, 9, 98, 40
11, 650, Control_c, 9, 6, 66
11, 724, Control_c, 9, 98, 35
11, 777, Control_c, 9, 6, 69
11, 6912, Note_on_c, 9, 31, 51
11, 6912, Note_on_c, 9, 35, 108
11, 6912, Note_on_c, 9, 82, 77
11, 6916, Note_on_c, 9, 31, 0
11, 6916, Note_on_c, 9, 35, 0
11, 6916, Note_on_c, 9, 82, 0
11, 6960, Note_on_c, 9, 82, 33
11, 6964, Note_on_c, 9, 82, 0
11, 7008, Note_on_c, 9, 31, 49
11, 7008, Note_on_c, 9, 82, 76
11, 7012, Note_on_c, 9, 31, 0
11, 7012, Note_on_c, 9, 82, 0
11, 7056, Note_on_c, 9, 35, 110
11, 7056, Note_on_c, 9, 82, 33
11, 7060, Note_on_c, 9, 35, 0
11, 7060, Note_on_c, 9, 82, 0
11, 7104, Note_on_c, 9, 31, 51
11, 7104, Note_on_c, 9, 40, 120
11, 7104, Note_on_c, 9, 82, 74
11, 7108, Note_on_c, 9, 31, 0
11, 7108, Note_on_c, 9, 40, 0
11, 7108, Note_on_c, 9, 82, 0
11, 7152, Note_on_c, 9, 82, 26
11, 7156, Note_on_c, 9, 82, 0
11, 7200, Note_on_c, 9, 31, 50
11, 7200, Note_on_c, 9, 35, 103
11, 7200, Note_on_c, 9, 82, 77
11, 7204, Note_on_c, 9, 31, 0
11, 7204, Note_on_c, 9, 35, 0
11, 7204, Note_on_c, 9, 82, 0
11, 7248, Note_on_c, 9, 82, 28
11, 7252, Note_on_c, 9, 82, 0
11, 7296, Note_on_c, 9, 31, 51
11, 7296, Note_on_c, 9, 82, 78
11, 7300, Note_on_c, 9, 31, 0
11, 7300, Note_on_c, 9, 82, 0
11, 7344, Note_on_c, 9, 82, 27
11, 7348, Note_on_c, 9, 82, 0
11, 7392, Note_on_c, 9, 31, 48
11, 7392, Note_on_c, 9, 82, 75
11, 7396, Note_on_c, 9, 31, 0
11, 7396, Note_on_c, 9, 82, 0
11, 7440, Note_on_c, 9, 82, 35
11, 7444, Note_on_c, 9, 82, 0
11, 7488, Note_on_c, 9, 31, 51
11, 7488, Note_on_c, 9, 40, 120
11, 7488, Note_on_c, 9, 82, 76
11, 7492, Note_on_c, 9, 31, 0
11, 7492, Note_on_c, 9, 40, 0
11, 7492, Note_on_c, 9, 82, 0
11, 7536, Note_on_c, 9, 82, 27
11, 7540, Note_on_c, 9, 82, 0
11, 7584, Note_on_c, 9, 31, 48
11, 7584, Note_on_c, 9, 82, 75
11, 7588, Note_on_c, 9, 31, 0
11, 7588, Note_on_c, 9, 82, 0
11, 7632, Note_on_c, 9, 35, 88
11, 7632, Note_on_c, 9, 82, 28
11, 7636, Note_on_c, 9, 35, 0
11, 7636, Note_on_c, 9, 82, 0
11, 7680, Note_on_c, 9, 31, 51
11, 7680, Note_on_c, 9, 35, 108
11, 7680, Note_on_c, 9, 82, 77
11, 7684, Note_on_c, 9, 31, 0
11, 7684, Note_on_c, 9, 35, 0
11, 7684, Note_on_c, 9, 82, 0
11, 7728, Note_on_c, 9, 82, 33
11, 7732, Note_on_c, 9, 82, 0
11, 7776, Note_on_c, 9, 31, 49
11, 7776, Note_on_c, 9, 82, 76
11, 7780, Note_on_c, 9, 31, 0
11, 7780, Note_on_c, 9, 82, 0
11, 7824, Note_on_c, 9, 35, 110
11, 7824, Note_on_c, 9, 82, 33
11, 7828, Note_on_c, 9, 35, 0
11, 7828, Note_on_c, 9, 82, 0
11, 7872, Note_on_c, 9, 31, 51
11, 7872, Note_on_c, 9, 40, 120
11, 7872, Note_on_c, 9, 82, 74
11, 7876, Note_on_c, 9, 31, 0
11, 7876, Note_on_c, 9, 40, 0
11, 7876, Note_on_c, 9, 82, 0
11, 7920, Note_on_c, 9, 82, 26
11, 7924, Note_on_c, 9, 82, 0
11, 7968, Note_on_c, 9, 31, 50
11, 7968, Note_on_c, 9, 35, 103
11, 7968, Note_on_c, 9, 82, 77
11, 7972, Note_on_c, 9, 31, 0
11, 7972, Note_on_c, 9, 35, 0
11, 7972, Note_on_c, 9, 82, 0
11, 8016, Note_on_c, 9, 82, 28
11, 8020, Note_on_c, 9, 82, 0
11, 8064, Note_on_c, 9, 31, 51
11, 8064, Note_on_c, 9, 82, 78
11, 8068, Note_on_c, 9, 31, 0
11, 8068, Note_on_c, 9, 82, 0
11, 8112, Note_on_c, 9, 82, 27
11, 8116, Note_on_c, 9, 82, 0
11, 8160, Note_on_c, 9, 31, 48
11, 8160, Note_on_c, 9, 82, 75
11, 8164, Note_on_c, 9, 31, 0
11, 8164, Note_on_c, 9, 82, 0
11, 8208, Note_on_c, 9, 82, 35
11, 8212, Note_on_c, 9, 82, 0
11, 8256, Note_on_c, 9, 31, 51
11, 8256, Note_on_c, 9, 40, 120
11, 8256, Note_on_c, 9, 82, 76
11, 8260, Note_on_c, 9, 31, 0
11, 8260, Note_on_c, 9, 40, 0
11, 8260, Note_on_c, 9, 82, 0
11, 8304, Note_on_c, 9, 82, 27
11, 8308, Note_on_c, 9, 82, 0
11, 8352, Note_on_c, 9, 31, 48
11, 8352, Note_on_c, 9, 82, 75
11, 8356, Note_on_c, 9, 31, 0
11, 8356, Note_on_c, 9, 82, 0
11, 8400, Note_on_c, 9, 35, 88
11, 8400, Note_on_c, 9, 82, 28
11, 8404, Note_on_c, 9, 35, 0
11, 8404, Note_on_c, 9, 82, 0
11, 8448, Note_on_c, 9, 31, 51
11, 8448, Note_on_c, 9, 35, 108
11, 8448, Note_on_c, 9, 82, 77
11, 8452, Note_on_c, 9, 31, 0
11, 8452, Note_on_c, 9, 35, 0
11, 8452, Note_on_c, 9, 82, 0
11, 8496, Note_on_c, 9, 82, 33
11, 8500, Note_on_c, 9, 82, 0
11, 8544, Note_on_c, 9, 31, 49
11, 8544, Note_on_c, 9, 82, 76
11, 8548, Note_on_c, 9, 31, 0
11, 8548, Note_on_c, 9, 82, 0
11, 8592, Note_on_c, 9, 35, 110
11, 8592, Note_on_c, 9, 82, 33
11, 8596, Note_on_c, 9, 35, 0
11, 8596, Note_on_c, 9, 82, 0
11, 8640, Note_on_c, 9, 31, 51
11, 8640, Note_on_c, 9, 40, 120
11, 8640, Note_on_c, 9, 82, 74
11, 8644, Note_on_c, 9, 31, 0
11, 8644, Note_on_c, 9, 40, 0
11, 8644, Note_on_c, 9, 82, 0
11, 8688, Note_on_c, 9, 82, 26
11, 8692, Note_on_c, 9, 82, 0
11, 8736, Note_on_c, 9, 31, 50
11, 8736, Note_on_c, 9, 35, 103
11, 8736, Note_on_c, 9, 82, 77
11, 8740, Note_on_c, 9, 31, 0
11, 8740, Note_on_c, 9, 35, 0
11, 8740, Note_on_c, 9, 82, 0
11, 8784, Note_on_c, 9, 82, 28
11, 8788, Note_on_c, 9, 82, 0
11, 8832, Note_on_c, 9, 31, 51
11, 8832, Note_on_c, 9, 82, 78
11, 8836, Note_on_c, 9, 31, 0
11, 8836, Note_on_c, 9, 82, 0
11, 8880, Note_on_c, 9, 82, 27
11, 8884, Note_on_c, 9, 82, 0
11, 8928, Note_on_c, 9, 31, 48
11, 8928, Note_on_c, 9, 82, 75
11, 8932, Note_on_c, 9, 31, 0
11, 8932, Note_on_c, 9, 82, 0
11, 8976, Note_on_c, 9, 82, 35
11, 8980, Note_on_c, 9, 82, 0
11, 9024, Note_on_c, 9, 31, 51
11, 9024, Note_on_c, 9, 40, 120
11, 9024, Note_on_c, 9, 82, 76
11, 9028, Note_on_c, 9, 31, 0
11, 9028, Note_on_c, 9, 40, 0
11, 9028, Note_on_c, 9, 82, 0
11, 9072, Note_on_c, 9, 82, 27
11, 9076, Note_on_c, 9, 82, 0
11, 9120, Note_on_c, 9, 31, 48
11, 9120, Note_on_c, 9, 82, 75
11, 9124, Note_on_c, 9, 31, 0
11, 9124, Note_on_c, 9, 82, 0
11, 9168, Note_on_c, 9, 35, 88
11, 9168, Note_on_c, 9, 82, 28
11, 9172, Note_on_c, 9, 35, 0
11, 9172, Note_on_c, 9, 82, 0
11, 9216, Note_on_c, 9, 31, 51
11, 9216, Note_on_c, 9, 35, 108
11, 9216, Note_on_c, 9, 82, 77
11, 9220, Note_on_c, 9, 31, 0
11, 9220, Note_on_c, 9, 35, 0
11, 9220, Note_on_c, 9, 82, 0
11, 9264, Note_on_c, 9, 82, 33
11, 9268, Note_on_c, 9, 82, 0
11, 9312, Note_on_c, 9, 31, 49
11, 9312, Note_on_c, 9, 82, 76
11, 9316, Note_on_c, 9, 31, 0
11, 9316, Note_on_c, 9, 82, 0
11, 9360, Note_on_c, 9, 35, 110
11, 9360, Note_on_c, 9, 82, 33
11, 9364, Note_on_c, 9, 35, 0
11, 9364, Note_on_c, 9, 82, 0
11, 9408, Note_on_c, 9, 31, 51
11, 9408, Note_on_c, 9, 40, 120
11, 9408, Note_on_c, 9, 82, 74
11, 9412, Note_on_c, 9, 31, 0
11, 9412, Note_on_c, 9, 40, 0
11, 9412, Note_on_c, 9, 82, 0
11, 9456, Note_on_c, 9, 82, 26
11, 9460, Note_on_c, 9, 82, 0
11, 9504, Note_on_c, 9, 31, 50
11, 9504, Note_on_c, 9, 35, 103
11, 9504, Note_on_c, 9, 82, 77
11, 9508, Note_on_c, 9, 31, 0
11, 9508, Note_on_c, 9, 35, 0
11, 9508, Note_on_c, 9, 82, 0
11, 9552, Note_on_c, 9, 82, 28
11, 9556, Note_on_c, 9, 82, 0
11, 9600, Note_on_c, 9, 31, 51
11, 9600, Note_on_c, 9, 82, 78
11, 9604, Note_on_c, 9, 31, 0
11, 9604, Note_on_c, 9, 82, 0
11, 9648, Note_on_c, 9, 82, 27
11, 9652, Note_on_c, 9, 82, 0
11, 9696, Note_on_c, 9, 31, 48
11, 9696, Note_on_c, 9, 82, 75
11, 9700, Note_on_c, 9, 31, 0
11, 9700, Note_on_c, 9, 82, 0
11, 9744, Note_on_c, 9, 82, 35
11, 9748, Note_on_c, 9, 82, 0
11, 9792, Note_on_c, 9, 31, 51
11, 9792, Note_on_c, 9, 40, 120
11, 9792, Note_on_c, 9, 82, 76
11, 9796, Note_on_c, 9, 31, 0
11, 9796, Note_on_c, 9, 40, 0
11, 9796, Note_on_c, 9, 82, 0
11, 9840, Note_on_c, 9, 82, 27
11, 9844, Note_on_c, 9, 82, 0
11, 9888, Note_on_c, 9, 31, 48
11, 9888, Note_on_c, 9, 82, 75
11, 9892, Note_on_c, 9, 31, 0
11, 9892, Note_on_c, 9, 82, 0
11, 9936, Note_on_c, 9, 35, 88
11, 9936, Note_on_c, 9, 82, 28
11, 9940, Note_on_c, 9, 35, 0
11, 9940, Note_on_c, 9, 82, 0
11, 9984, Note_on_c, 9, 31, 51
11, 9984, Note_on_c, 9, 35, 108
11, 9984, Note_on_c, 9, 82, 77
11, 9988, Note_on_c, 9, 31, 0
11, 9988, Note_on_c, 9, 35, 0
11, 9988, Note_on_c, 9, 82, 0
11, 10032, Note_on_c, 9, 82, 33
11, 10036, Note_on_c, 9, 82, 0
11, 10080, Note_on_c, 9, 31, 49
11, 10080, Note_on_c, 9, 82, 76
11, 10084, Note_on_c, 9, 31, 0
11, 10084, Note_on_c, 9, 82, 0
11, 10128, Note_on_c, 9, 35, 110
11, 10128, Note_on_c, 9, 82, 33
11, 10132, Note_on_c, 9, 35, 0
11, 10132, Note_on_c, 9, 82, 0
11, 10176, Note_on_c, 9, 31, 51
11, 10176, Note_on_c, 9, 40, 120
11, 10176, Note_on_c, 9, 82, 74
11, 10180, Note_on_c, 9, 31, 0
11, 10180, Note_on_c, 9, 40, 0
11, 10180, Note_on_c, 9, 82, 0
11, 10224, Note_on_c, 9, 82, 26
11, 10228, Note_on_c, 9, 82, 0
11, 10272, Note_on_c, 9, 31, 50
11, 10272, Note_on_c, 9, 35, 103
11, 10272, Note_on_c, 9, 82, 77
11, 10276, Note_on_c, 9, 31, 0
11, 10276, Note_on_c, 9, 35, 0
11, 10276, Note_on_c, 9, 82, 0
11, 10320, Note_on_c, 9, 82, 28
11, 10324, Note_on_c, 9, 82, 0
11, 10368, Note_on_c, 9, 31, 51
11, 10368, Note_on_c, 9, 82, 78
11, 10372, Note_on_c, 9, 31, 0
11, 10372, Note_on_c, 9, 82, 0
11, 10416, Note_on_c, 9, 82, 27
11, 10420, Note_on_c, 9, 82, 0
11, 10464, Note_on_c, 9, 31, 48
11, 10464, Note_on_c, 9, 82, 75
11, 10468, Note_on_c, 9, 31, 0
11, 10468, Note_on_c, 9, 82, 0
11, 10512, Note_on_c, 9, 82, 35
11, 10516, Note_on_c, 9, 82, 0
11, 10560, Note_on_c, 9, 31, 51
11, 10560, Note_on_c, 9, 40, 120
11, 10560, Note_on_c, 9, 82, 76
11, 10564, Note_on_c, 9, 31, 0
11, 10564, Note_on_c, 9, 40, 0
11, 10564, Note_on_c, 9, 82, 0
11, 10608, Note_on_c, 9, 82, 27
11, 10612, Note_on_c, 9, 82, 0
11, 10656, Note_on_c, 9, 31, 48
11, 10656, Note_on_c, 9, 82, 75
11, 10660, Note_on_c, 9, 31, 0
11, 10660, Note_on_c, 9, 82, 0
11, 10704, Note_on_c, 9, 35, 88
11, 10704, Note_on_c, 9, 82, 28
11, 10708, Note_on_c, 9, 35, 0
11, 10708, Note_on_c, 9, 82, 0
11, 10752, Note_on_c, 9, 31, 51
11, 10752, Note_on_c, 9, 35, 108
11, 10752, Note_on_c, 9, 82, 77
11, 10756, Note_on_c, 9, 31, 0
11, 10756, Note_on_c, 9, 35, 0
11, 10756, Note_on_c, 9, 82, 0
11, 10800, Note_on_c, 9, 82, 33
11, 10804, Note_on_c, 9, 82, 0
11, 10848, Note_on_c, 9, 31, 49
11, 10848, Note_on_c, 9, 82, 76
11, 10852, Note_on_c, 9, 31, 0
11, 10852, Note_on_c, 9, 82, 0
11, 10896, Note_on_c, 9, 35, 110
11, 10896, Note_on_c, 9, 82, 33
11, 10900, Note_on_c, 9, 35, 0
11, 10900, Note_on_c, 9, 82, 0
11, 10944, Note_on_c, 9, 31, 51
11, 10944, Note_on_c, 9, 40, 120
11, 10944, Note_on_c, 9, 82, 74
11, 10948, Note_on_c, 9, 31, 0
11, 10948, Note_on_c, 9, 40, 0
11, 10948, Note_on_c, 9, 82, 0
11, 10992, Note_on_c, 9, 82, 26
11, 10996, Note_on_c, 9, 82, 0
11, 11040, Note_on_c, 9, 31, 50
11, 11040, Note_on_c, 9, 35, 103
11, 11040, Note_on_c, 9, 82, 77
11, 11044, Note_on_c, 9, 31, 0
11, 11044, Note_on_c, 9, 35, 0
11, 11044, Note_on_c, 9, 82, 0
11, 11088, Note_on_c, 9, 82, 28
11, 11092, Note_on_c, 9, 82, 0
11, 11136, Note_on_c, 9, 31, 51
11, 11136, Note_on_c, 9, 82, 78
11, 11140, Note_on_c, 9, 31, 0
11, 11140, Note_on_c, 9, 82, 0
11, 11184, Note_on_c, 9, 82, 27
11, 11188, Note_on_c, 9, 82, 0
11, 11232, Note_on_c, 9, 31, 48
11, 11232, Note_on_c, 9, 82, 75
11, 11236, Note_on_c, 9, 31, 0
11, 11236, Note_on_c, 9, 82, 0
11, 11280, Note_on_c, 9, 82, 35
11, 11284, Note_on_c, 9, 82, 0
11, 11328, Note_on_c, 9, 31, 51
11, 11328, Note_on_c, 9, 40, 120
11, 11328, Note_on_c, 9, 82, 76
11, 11332, Note_on_c, 9, 31, 0
11, 11332, Note_on_c, 9, 40, 0
11, 11332, Note_on_c, 9, 82, 0
11, 11376, Note_on_c, 9, 82, 27
11, 11380, Note_on_c, 9, 82, 0
11, 11424, Note_on_c, 9, 31, 48
11, 11424, Note_on_c, 9, 82, 75
11, 11428, Note_on_c, 9, 31, 0
11, 11428, Note_on_c, 9, 82, 0
11, 11472, Note_on_c, 9, 35, 88
11, 11472, Note_on_c, 9, 82, 28
11, 11476, Note_on_c, 9, 35, 0
11, 11476, Note_on_c, 9, 82, 0
11, 11520, Note_on_c, 9, 31, 51
11, 11520, Note_on_c, 9, 35, 108
11, 11520, Note_on_c, 9, 57, 58
11, 11524, Note_on_c, 9, 31, 0
11, 11524, Note_on_c, 9, 35, 0
11, 11524, Note_on_c, 9, 57, 0
11, 11616, Note_on_c, 9, 31, 49
11, 11616, Note_on_c, 9, 42, 73
11, 11620, Note_on_c, 9, 31, 0
11, 11620, Note_on_c, 9, 42, 0
11, 11664, Note_on_c, 9, 35, 110
11, 11668, Note_on_c, 9, 35, 0
11, 11712, Note_on_c, 9, 31, 51
11, 11712, Note_on_c, 9, 42, 74
11, 11716, Note_on_c, 9, 31, 0
11, 11716, Note_on_c, 9, 42, 0
11, 11808, Note_on_c, 9, 31, 50
11, 11808, Note_on_c, 9, 35, 103
11, 11808, Note_on_c, 9, 42, 74
11, 11812, Note_on_c, 9, 31, 0
11, 11812, Note_on_c, 9, 35, 0
11, 11812, Note_on_c, 9, 42, 0
11, 11904, Note_on_c, 9, 31, 51
11, 11904, Note_on_c, 9, 42, 73
11, 11908, Note_on_c, 9, 31, 0
11, 11908, Note_on_c, 9, 42, 0
11, 12000, Note_on_c, 9, 31, 48
11, 12000, Note_on_c, 9, 42, 70
11, 12004, Note_on_c, 9, 31, 0
11, 12004, Note_on_c, 9, 42, 0
11, 12096, Note_on_c, 9, 31, 51
11, 12096, Note_on_c, 9, 42, 71
11, 12096, Note_on_c, 9, 54, 88
11, 12100, Note_on_c, 9, 31, 0
11, 12100, Note_on_c, 9, 42, 0
11, 12100, Note_on_c, 9, 54, 0
11, 12144, Note_on_c, 9, 54, 44
11, 12148, Note_on_c, 9, 54, 0
11, 12192, Note_on_c, 9, 31, 48
11, 12192, Note_on_c, 9, 42, 65
11, 12192, Note_on_c, 9, 54, 24
11, 12196, Note_on_c, 9, 31, 0
11, 12196, Note_on_c, 9, 42, 0
11, 12196, Note_on_c, 9, 54, 0
11, 12240, Note_on_c, 9, 35, 88
11, 12240, Note_on_c, 9, 46, 61
11, 12244, Note_on_c, 9, 35, 0
11, 12244, Note_on_c, 9, 46, 0
11, 12288, Note_on_c, 9, 31, 51
11, 12288, Note_on_c, 9, 35, 108
11, 12288, Note_on_c, 9, 42, 66
11, 12292, Note_on_c, 9, 31, 0
11, 12292, Note_on_c, 9, 35, 0
11, 12292, Note_on_c, 9, 42, 0
11, 12384, Note_on_c, 9, 31, 49
11, 12384, Note_on_c, 9, 42, 73
11, 12388, Note_on_c, 9, 31, 0
11, 12388, Note_on_c, 9, 42, 0
11, 12432, Note_on_c, 9, 35, 110
11, 12436, Note_on_c, 9, 35, 0
11, 12480, Note_on_c, 9, 31, 51
11, 12480, Note_on_c, 9, 42, 70
11, 12484, Note_on_c, 9, 31, 0
11, 12484, Note_on_c, 9, 42, 0
11, 12576, Note_on_c, 9, 31, 50
11, 12576, Note_on_c, 9, 35, 103
11, 12576, Note_on_c, 9, 42, 71
11, 12580, Note_on_c, 9, 31, 0
11, 12580, Note_on_c, 9, 35, 0
11, 12580, Note_on_c, 9, 42, 0
11, 12672, Note_on_c, 9, 31, 51
11, 12672, Note_on_c, 9, 42, 70
11, 12676, Note_on_c, 9, 31, 0
11, 12676, Note_on_c, 9, 42, 0
11, 12768, Note_on_c, 9, 31, 48
11, 12768, Note_on_c, 9, 42, 68
11, 12772, Note_on_c, 9, 31, 0
11, 12772, Note_on_c, 9, 42, 0
11, 12864, Note_on_c, 9, 31, 51
11, 12864, Note_on_c, 9, 42, 70
11, 12864, Note_on_c, 9, 54, 88
11, 12868, Note_on_c, 9, 31, 0
11, 12868, Note_on_c, 9, 42, 0
11, 12868, Note_on_c, 9, 54, 0
11, 12912, Note_on_c, 9, 54, 44
11, 12916, Note_on_c, 9, 54, 0
11, 12960, Note_on_c, 9, 31, 48
11, 12960, Note_on_c, 9, 42, 72
11, 12960, Note_on_c, 9, 54, 24
11, 12964, Note_on_c, 9, 31, 0
11, 12964, Note_on_c, 9, 42, 0
11, 12964, Note_on_c, 9, 54, 0
11, 13008, Note_on_c, 9, 35, 88
11, 13008, Note_on_c, 9, 46, 58
11, 13012, Note_on_c, 9, 35, 0
11, 13012, Note_on_c, 9, 46, 0
11, 13056, Note_on_c, 9, 31, 51
11, 13056, Note_on_c, 9, 35, 108
11, 13056, Note_on_c, 9, 42, 68
11, 13060, Note_on_c, 9, 31, 0
11, 13060, Note_on_c, 9, 35, 0
11, 13060, Note_on_c, 9, 42, 0
11, 13152, Note_on_c, 9, 31, 49
11, 13152, Note_on_c, 9, 42, 71
11, 13156, Note_on_c, 9, 31, 0
11, 13156, Note_on_c, 9, 42, 0
11, 13200, Note_on_c, 9, 35, 110
11, 13204, Note_on_c, 9, 35, 0
11, 13248, Note_on_c, 9, 31, 51
11, 13248, Note_on_c, 9, 42, 72
11, 13252, Note_on_c, 9, 31, 0
11, 13252, Note_on_c, 9, 42, 0
11, 13344, Note_on_c, 9, 31, 50
11, 13344, Note_on_c, 9, 35, 103
11, 13344, Note_on_c, 9, 42, 68
11, 13348, Note_on_c, 9, 31, 0
11, 13348, Note_on_c, 9, 35, 0
11, 13348, Note_on_c, 9, 42, 0
11, 13440, Note_on_c, 9, 31, 51
11, 13440, Note_on_c, 9, 42, 68
11, 13444, Note_on_c, 9, 31, 0
11, 13444, Note_on_c, 9, 42, 0
11, 13536, Note_on_c, 9, 31, 48
11, 13536, Note_on_c, 9, 42, 65
11, 13540, Note_on_c, 9, 31, 0
11, 13540, Note_on_c, 9, 42, 0
11, 13632, Note_on_c, 9, 31, 51
11, 13632, Note_on_c, 9, 42, 68
11, 13632, Note_on_c, 9, 54, 88
11, 13636, Note_on_c, 9, 31, 0
11, 13636, Note_on_c, 9, 42, 0
11, 13636, Note_on_c, 9, 54, 0
11, 13680, Note_on_c, 9, 54, 44
11, 13684, Note_on_c, 9, 54, 0
11, 13728, Note_on_c, 9, 31, 48
11, 13728, Note_on_c, 9, 42, 69
11, 13728, Note_on_c, 9, 54, 24
11, 13732, Note_on_c, 9, 31, 0
11, 13732, Note_on_c, 9, 42, 0
11, 13732, Note_on_c, 9, 54, 0
11, 13776, Note_on_c, 9, 35, 88
11, 13776, Note_on_c, 9, 46, 54
11, 13780, Note_on_c, 9, 35, 0
11, 13780, Note_on_c, 9, 46, 0
11, 13824, Note_on_c, 9, 31, 51
11, 13824, Note_on_c, 9, 35, 108
11, 13824, Note_on_c, 9, 42, 66
11, 13828, Note_on_c, 9, 31, 0
11, 13828, Note_on_c, 9, 35, 0
11, 13828, Note_on_c, 9, 42, 0
11, 13920, Note_on_c, 9, 31, 49
11, 13920, Note_on_c, 9, 42, 68
11, 13924, Note_on_c, 9, 31, 0
11, 13924, Note_on_c, 9, 42, 0
11, 13968, Note_on_c, 9, 35, 110
11, 13972, Note_on_c, 9, 35, 0
11, 14016, Note_on_c, 9, 31, 51
11, 14016, Note_on_c, 9, 42, 69
11, 14020, Note_on_c, 9, 31, 0
11, 14020, Note_on_c, 9, 42, 0
11, 14112, Note_on_c, 9, 31, 50
11, 14112, Note_on_c, 9, 35, 103
11, 14112, Note_on_c, 9, 42, 66
11, 14116, Note_on_c, 9, 31, 0
11, 14116, Note_on_c, 9, 35, 0
11, 14116, Note_on_c, 9, 42, 0
11, 14208, Note_on_c, 9, 31, 51
11, 14208, Note_on_c, 9, 42, 69
11, 14208, Note_on_c, 9, 75, 80
11, 14212, Note_on_c, 9, 31, 0
11, 14212, Note_on_c, 9, 42, 0
11, 14212, Note_on_c, 9, 75, 0
11, 14304, Note_on_c, 9, 31, 48
11, 14304, Note_on_c, 9, 42, 68
11, 14308, Note_on_c, 9, 31, 0
11, 14308, Note_on_c, 9, 42, 0
11, 14352, Note_on_c, 9, 75, 74
11, 14356, Note_on_c, 9, 75, 0
11, 14400, Note_on_c, 9, 31, 51
11, 14400, Note_on_c, 9, 42, 68
11, 14400, Note_on_c, 9, 54, 88
11, 14404, Note_on_c, 9, 31, 0
11, 14404, Note_on_c, 9, 42, 0
11, 14404, Note_on_c, 9, 54, 0
11, 14448, Note_on_c, 9, 54, 44
11, 14452, Note_on_c, 9, 54, 0
11, 14496, Note_on_c, 9, 31, 48
11, 14496, Note_on_c, 9, 42, 70
11, 14496, Note_on_c, 9, 54, 24
11, 14500, Note_on_c, 9, 31, 0
11, 14500, Note_on_c, 9, 42, 0
11, 14500, Note_on_c, 9, 54, 0
11, 14544, Note_on_c, 9, 35, 88
11, 14544, Note_on_c, 9, 46, 56
11, 14548, Note_on_c, 9, 35, 0
11, 14548, Note_on_c, 9, 46, 0
11, 14592, Note_on_c, 9, 31, 51
11, 14592, Note_on_c, 9, 35, 108
11, 14592, Note_on_c, 9, 42, 73
11, 14596, Note_on_c, 9, 31, 0
11, 14596, Note_on_c, 9, 35, 0
11, 14596, Note_on_c, 9, 42, 0
11, 14688, Note_on_c, 9, 31, 49
11, 14688, Note_on_c, 9, 42, 73
11, 14692, Note_on_c, 9, 31, 0
11, 14692, Note_on_c, 9, 42, 0
11, 14736, Note_on_c, 9, 35, 110
11, 14740, Note_on_c, 9, 35, 0
11, 14784, Note_on_c, 9, 31, 51
11, 14784, Note_on_c, 9, 42, 74
11, 14788, Note_on_c, 9, 31, 0
11, 14788, Note_on_c, 9, 42, 0
11, 14880, Note_on_c, 9, 31, 50
11, 14880, Note_on_c, 9, 35, 103
11, 14880, Note_on_c, 9, 42, 74
11, 14884, Note_on_c, 9, 31, 0
11, 14884, Note_on_c, 9, 35, 0
11, 14884, Note_on_c, 9, 42, 0
11, 14976, Note_on_c, 9, 31, 51
11, 14976, Note_on_c, 9, 42, 73
11, 14980, Note_on_c, 9, 31, 0
11, 14980, Note_on_c, 9, 42, 0
11, 15072, Note_on_c, 9, 31, 48
11, 15072, Note_on_c, 9, 42, 70
11, 15076, Note_on_c, 9, 31, 0
11, 15076, Note_on_c, 9, 42, 0
11, 15168, Note_on_c, 9, 31, 51
11, 15168, Note_on_c, 9, 42, 71
11, 15168, Note_on_c, 9, 54, 88
11, 15172, Note_on_c, 9, 31, 0
11, 15172, Note_on_c, 9, 42, 0
11, 15172, Note_on_c, 9, 54, 0
11, 15216, Note_on_c, 9, 54, 44
11, 15220, Note_on_c, 9, 54, 0
11, 15264, Note_on_c, 9, 31, 48
11, 15264, Note_on_c, 9, 42, 65
11, 15264, Note_on_c, 9, 54, 24
11, 15268, Note_on_c, 9, 31, 0
11, 15268, Note_on_c, 9, 42, 0
11, 15268, Note_on_c, 9, 54, 0
11, 15312, Note_on_c, 9, 35, 88
11, 15312, Note_on_c, 9, 46, 61
11, 15316, Note_on_c, 9, 35, 0
11, 15316, Note_on_c, 9, 46, 0
11, 15360, Note_on_c, 9, 31, 51
11, 15360, Note_on_c, 9, 35, 108
11, 15360, Note_on_c, 9, 42, 66
11, 15364, Note_on_c, 9, 31, 0
11, 15364, Note_on_c, 9, 35, 0
11, 15364, Note_on_c, 9, 42, 0
11, 15456, Note_on_c, 9, 31, 49
11, 15456, Note_on_c, 9, 42, 73
11, 15460, Note_on_c, 9, 31, 0
11, 15460, Note_on_c, 9, 42, 0
11, 15504, Note_on_c, 9, 35, 110
11, 15508, Note_on_c, 9, 35, 0
11, 15552, Note_on_c, 9, 31, 51
11, 15552, Note_on_c, 9, 42, 70
11, 15556, Note_on_c, 9, 31, 0
11, 15556, Note_on_c, 9, 42, 0
11, 15648, Note_on_c, 9, 31, 50
11, 15648, Note_on_c, 9, 35, 103
11, 15648, Note_on_c, 9, 42, 71
11, 15652, Note_on_c, 9, 31, 0
11, 15652, Note_on_c, 9, 35, 0
11, 15652, Note_on_c, 9, 42, 0
11, 15744, Note_on_c, 9, 31, 51
11, 15744, Note_on_c, 9, 42, 70
11, 15744, Note_on_c, 9, 81, 58
11, 15748, Note_on_c, 9, 31, 0
11, 15748, Note_on_c, 9, 42, 0
11, 15748, Note_on_c, 9, 81, 0
11, 15840, Note_on_c, 9, 31, 48
11, 15840, Note_on_c, 9, 42, 68
11, 15844, Note_on_c, 9, 31, 0
11, 15844, Note_on_c, 9, 42, 0
11, 15936, Note_on_c, 9, 31, 51
11, 15936, Note_on_c, 9, 42, 70
11, 15936, Note_on_c, 9, 54, 88
11, 15940, Note_on_c, 9, 31, 0
11, 15940, Note_on_c, 9, 42, 0
11, 15940, Note_on_c, 9, 54, 0
11, 15984, Note_on_c, 9, 54, 44
11, 15988, Note_on_c, 9, 54, 0
11, 16032, Note_on_c, 9, 31, 48
11, 16032, Note_on_c, 9, 42, 72
11, 16032, Note_on_c, 9, 54, 24
11, 16036, Note_on_c, 9, 31, 0
11, 16036, Note_on_c, 9, 42, 0
11, 16036, Note_on_c, 9, 54, 0
11, 16080, Note_on_c, 9, 35, 88
11, 16080, Note_on_c, 9, 46, 58
11, 16084, Note_on_c, 9, 35, 0
11, 16084, Note_on_c, 9, 46, 0
11, 16128, Note_on_c, 9, 31, 51
11, 16128, Note_on_c, 9, 35, 108
11, 16128, Note_on_c, 9, 42, 68
11, 16132, Note_on_c, 9, 31, 0
11, 16132, Note_on_c, 9, 35, 0
11, 16132, Note_on_c, 9, 42, 0
11, 16224, Note_on_c, 9, 31, 49
11, 16224, Note_on_c, 9, 42, 71
11, 16228, Note_on_c, 9, 31, 0
11, 16228, Note_on_c, 9, 42, 0
11, 16272, Note_on_c, 9, 35, 110
11, 16276, Note_on_c, 9, 35, 0
11, 16320, Note_on_c, 9, 31, 51
11, 16320, Note_on_c, 9, 42, 72
11, 16324, Note_on_c, 9, 31, 0
11, 16324, Note_on_c, 9, 42, 0
11, 16416, Note_on_c, 9, 31, 50
11, 16416, Note_on_c, 9, 35, 103
11, 16416, Note_on_c, 9, 42, 68
11, 16420, Note_on_c, 9, 31, 0
11, 16420, Note_on_c, 9, 35, 0
11, 16420, Note_on_c, 9, 42, 0
11, 16512, Note_on_c, 9, 31, 51
11, 16512, Note_on_c, 9, 42, 68
11, 16516, Note_on_c, 9, 31, 0
11, 16516, Note_on_c, 9, 42, 0
11, 16608, Note_on_c, 9, 31, 48
11, 16608, Note_on_c, 9, 42, 65
11, 16612, Note_on_c, 9, 31, 0
11, 16612, Note_on_c, 9, 42, 0
11, 16704, Note_on_c, 9, 31, 51
11, 16704, Note_on_c, 9, 42, 68
11, 16704, Note_on_c, 9, 54, 88
11, 16708, Note_on_c, 9, 31, 0
11, 16708, Note_on_c, 9, 42, 0
11, 16708, Note_on_c, 9, 54, 0
11, 16752, Note_on_c, 9, 54, 44
11, 16756, Note_on_c, 9, 54, 0
11, 16800, Note_on_c, 9, 31, 48
11, 16800, Note_on_c, 9, 42, 69
11, 16800, Note_on_c, 9, 54, 24
11, 16804, Note_on_c, 9, 31, 0
11, 16804, Note_on_c, 9, 42, 0
11, 16804, Note_on_c, 9, 54, 0
11, 16848, Note_on_c, 9, 35, 88
11, 16848, Note_on_c, 9, 46, 54
11, 16852, Note_on_c, 9, 35, 0
11, 16852, Note_on_c, 9, 46, 0
11, 16896, Note_on_c, 9, 31, 51
11, 16896, Note_on_c, 9, 35, 108
11, 16896, Note_on_c, 9, 42, 66
11, 16900, Note_on_c, 9, 31, 0
11, 16900, Note_on_c, 9, 35, 0
11, 16900, Note_on_c, 9, 42, 0
11, 16992, Note_on_c, 9, 31, 49
11, 16992, Note_on_c, 9, 42, 68
11, 16996, Note_on_c, 9, 31, 0
11, 16996, Note_on_c, 9, 42, 0
11, 17040, Note_on_c, 9, 35, 110
11, 17044, Note_on_c, 9, 35, 0
11, 17088, Note_on_c, 9, 31, 51
11, 17088, Note_on_c, 9, 42, 69
11, 17092, Note_on_c, 9, 31, 0
11, 17092, Note_on_c, 9, 42, 0
11, 17184, Note_on_c, 9, 31, 50
11, 17184, Note_on_c, 9, 35, 103
11, 17184, Note_on_c, 9, 42, 66
11, 17188, Note_on_c, 9, 31, 0
11, 17188, Note_on_c, 9, 35, 0
11, 17188, Note_on_c, 9, 42, 0
11, 17280, Note_on_c, 9, 31, 51
11, 17280, Note_on_c, 9, 42, 69
11, 17280, Note_on_c, 9, 75, 80
11, 17284, Note_on_c, 9, 31, 0
11, 17284, Note_on_c, 9, 42, 0
11, 17284, Note_on_c, 9, 75, 0
11, 17376, Note_on_c, 9, 31, 48
11, 17376, Note_on_c, 9, 42, 68
11, 17380, Note_on_c, 9, 31, 0
11, 17380, Note_on_c, 9, 42, 0
11, 17424, Note_on_c, 9, 75, 74
11, 17428, Note_on_c, 9, 75, 0
11, 17472, Note_on_c, 9, 31, 51
11, 17472, Note_on_c, 9, 40, 101
11, 17472, Note_on_c, 9, 42, 68
11, 17472, Note_on_c, 9, 54, 88
11, 17476, Note_on_c, 9, 31, 0
11, 17476, Note_on_c, 9, 40, 0
11, 17476, Note_on_c, 9, 42, 0
11, 17476, Note_on_c, 9, 54, 0
11, 17520, Note_on_c, 9, 45, 93
11, 17520, Note_on_c, 9, 54, 44
11, 17524, Note_on_c, 9, 45, 0
11, 17524, Note_on_c, 9, 54, 0
11, 17568, Note_on_c, 9, 31, 48
11, 17568, Note_on_c, 9, 40, 86
11, 17568, Note_on_c, 9, 42, 70
11, 17568, Note_on_c, 9, 54, 24
11, 17572, Note_on_c, 9, 31, 0
11, 17572, Note_on_c, 9, 40, 0
11, 17572, Note_on_c, 9, 42, 0
11, 17572, Note_on_c, 9, 54, 0
11, 17616, Note_on_c, 9, 35, 88
11, 17616, Note_on_c, 9, 43, 85
11, 17616, Note_on_c, 9, 46, 56
11, 17620, Note_on_c, 9, 35, 0
11, 17620, Note_on_c, 9, 43, 0
11, 17620, Note_on_c, 9, 46, 0
11, 17664, Note_on_c, 9, 31, 51
11, 17664, Note_on_c, 9, 35, 108
11, 17664, Note_on_c, 9, 57, 58
11, 17668, Note_on_c, 9, 31, 0
11, 17668, Note_on_c, 9, 35, 0
11, 17668, Note_on_c, 9, 57, 0
11, 17760, Note_on_c, 9, 31, 49
11, 17760, Note_on_c, 9, 42, 73
11, 17764, Note_on_c, 9, 31, 0
11, 17764, Note_on_c, 9, 42, 0
11, 17808, Note_on_c, 9, 35, 110
11, 17812, Note_on_c, 9, 35, 0
11, 17856, Note_on_c, 9, 31, 51
11, 17856, Note_on_c, 9, 37, 107
11, 17856, Note_on_c, 9, 42, 74
11, 17860, Note_on_c, 9, 31, 0
11, 17860, Note_on_c, 9, 37, 0
11, 17860, Note_on_c, 9, 42, 0
11, 17952, Note_on_c, 9, 31, 50
11, 17952, Note_on_c, 9, 35, 103
11, 17952, Note_on_c, 9, 42, 74
11, 17956, Note_on_c, 9, 31, 0
11, 17956, Note_on_c, 9, 35, 0
11, 17956, Note_on_c, 9, 42, 0
11, 18048, Note_on_c, 9, 31, 51
11, 18048, Note_on_c, 9, 42, 73
11, 18052, Note_on_c, 9, 31, 0
11, 18052, Note_on_c, 9, 42, 0
11, 18144, Note_on_c, 9, 31, 48
11, 18144, Note_on_c, 9, 42, 70
11, 18148, Note_on_c, 9, 31, 0
11, 18148, Note_on_c, 9, 42, 0
11, 18240, Note_on_c, 9, 31, 51
11, 18240, Note_on_c, 9, 37, 107
11, 18240, Note_on_c, 9, 42, 71
11, 18240, Note_on_c, 9, 54, 88
11, 18244, Note_on_c, 9, 31, 0
11, 18244, Note_on_c, 9, 37, 0
11, 18244, Note_on_c, 9, 42, 0
11, 18244, Note_on_c, 9, 54, 0
11, 18288, Note_on_c, 9, 54, 44
11, 18292, Note_on_c, 9, 54, 0
11, 18336, Note_on_c, 9, 31, 48
11, 18336, Note_on_c, 9, 42, 65
11, 18336, Note_on_c, 9, 54, 24
11, 18340, Note_on_c, 9, 31, 0
11, 18340, Note_on_c, 9, 42, 0
11, 18340, Note_on_c, 9, 54, 0
11, 18384, Note_on_c, 9, 35, 88
11, 18384, Note_on_c, 9, 46, 61
11, 18388, Note_on_c, 9, 35, 0
11, 18388, Note_on_c, 9, 46, 0
11, 18432, Note_on_c, 9, 31, 51
11, 18432, Note_on_c, 9, 35, 108
11, 18432, Note_on_c, 9, 42, 66
11, 18436, Note_on_c, 9, 31, 0
11, 18436, Note_on_c, 9, 35, 0
11, 18436, Note_on_c, 9, 42, 0
11, 18528, Note_on_c, 9, 31, 49
11, 18528, Note_on_c, 9, 42, 73
11, 18532, Note_on_c, 9, 31, 0
11, 18532, Note_on_c, 9, 42, 0
11, 18576, Note_on_c, 9, 35, 110
11, 18580, Note_on_c, 9, 35, 0
11, 18624, Note_on_c, 9, 31, 51
11, 18624, Note_on_c, 9, 37, 107
11, 18624, Note_on_c, 9, 42, 70
11, 18628, Note_on_c, 9, 31, 0
11, 18628, Note_on_c, 9, 37, 0
11, 18628, Note_on_c, 9, 42, 0
11, 18720, Note_on_c, 9, 31, 50
11, 18720, Note_on_c, 9, 35, 103
11, 18720, Note_on_c, 9, 42, 71
11, 18724, Note_on_c, 9, 31, 0
11, 18724, Note_on_c, 9, 35, 0
11, 18724, Note_on_c, 9, 42, 0
11, 18816, Note_on_c, 9, 31, 51
11, 18816, Note_on_c, 9, 42, 70
11, 18820, Note_on_c, 9, 31, 0
11, 18820, Note_on_c, 9, 42, 0
11, 18912, Note_on_c, 9, 31, 48
11, 18912, Note_on_c, 9, 42, 68
11, 18916, Note_on_c, 9, 31, 0
11, 18916, Note_on_c, 9, 42, 0
11, 19008, Note_on_c, 9, 31, 51
11, 19008, Note_on_c, 9, 37, 107
11, 19008, Note_on_c, 9, 42, 70
11, 19008, Note_on_c, 9, 54, 88
11, 19012, Note_on_c, 9, 31, 0
11, 19012, Note_on_c, 9, 37, 0
11, 19012, Note_on_c, 9, 42, 0
11, 19012, Note_on_c, 9, 54, 0
11, 19056, Note_on_c, 9, 54, 44
11, 19060, Note_on_c, 9, 54, 0
11, 19104, Note_on_c, 9, 31, 48
11, 19104, Note_on_c, 9, 42, 72
11, 19104, Note_on_c, 9, 54, 24
11, 19108, Note_on_c, 9, 31, 0
11, 19108, Note_on_c, 9, 42, 0
11, 19108, Note_on_c, 9, 54, 0
11, 19152, Note_on_c, 9, 35, 88
11, 19152, Note_on_c, 9, 46, 58
11, 19156, Note_on_c, 9, 35, 0
11, 19156, Note_on_c, 9, 46, 0
11, 19200, Note_on_c, 9, 31, 51
11, 19200, Note_on_c, 9, 35, 108
11, 19200, Note_on_c, 9, 42, 68
11, 19204, Note_on_c, 9, 31, 0
11, 19204, Note_on_c, 9, 35, 0
11, 19204, Note_on_c, 9, 42, 0
11, 19296, Note_on_c, 9, 31, 49
11, 19296, Note_on_c, 9, 42, 71
11, 19300, Note_on_c, 9, 31, 0
11, 19300, Note_on_c, 9, 42, 0
11, 19344, Note_on_c, 9, 35, 110
11, 19348, Note_on_c, 9, 35, 0
11, 19392, Note_on_c, 9, 31, 51
11, 19392, Note_on_c, 9, 37, 107
11, 19392, Note_on_c, 9, 42, 72
11, 19396, Note_on_c, 9, 31, 0
11, 19396, Note_on_c, 9, 37, 0
11, 19396, Note_on_c, 9, 42, 0
11, 19488, Note_on_c, 9, 31, 50
11, 19488, Note_on_c, 9, 35, 103
11, 19488, Note_on_c, 9, 42, 68
11, 19492, Note_on_c, 9, 31, 0
11, 19492, Note_on_c, 9, 35, 0
11, 19492, Note_on_c, 9, 42, 0
11, 19584, Note_on_c, 9, 31, 51
11, 19584, Note_on_c, 9, 42, 68
11, 19588, Note_on_c, 9, 31, 0
11, 19588, Note_on_c, 9, 42, 0
11, 19680, Note_on_c, 9, 31, 48
11, 19680, Note_on_c, 9, 42, 65
11, 19684, Note_on_c, 9, 31, 0
11, 19684, Note_on_c, 9, 42, 0
11, 19776, Note_on_c, 9, 31, 51
11, 19776, Note_on_c, 9, 37, 107
11, 19776, Note_on_c, 9, 42, 68
11, 19776, Note_on_c, 9, 54, 88
11, 19780, Note_on_c, 9, 31, 0
11, 19780, Note_on_c, 9, 37, 0
11, 19780, Note_on_c, 9, 42, 0
11, 19780, Note_on_c, 9, 54, 0
11, 19824, Note_on_c, 9, 54, 44
11, 19828, Note_on_c, 9, 54, 0
11, 19872, Note_on_c, 9, 31, 48
11, 19872, Note_on_c, 9, 42, 69
11, 19872, Note_on_c, 9, 54, 24
11, 19876, Note_on_c, 9, 31, 0
11, 19876, Note_on_c, 9, 42, 0
11, 19876, Note_on_c, 9, 54, 0
11, 19920, Note_on_c, 9, 35, 88
11, 19920, Note_on_c, 9, 46, 54
11, 19924, Note_on_c, 9, 35, 0
11, 19924, Note_on_c, 9, 46, 0
11, 19968, Note_on_c, 9, 31, 51
11, 19968, Note_on_c, 9, 35, 108
11, 19968, Note_on_c, 9, 42, 66
11, 19972, Note_on_c, 9, 31, 0
11, 19972, Note_on_c, 9, 35, 0
11, 19972, Note_on_c, 9, 42, 0
11, 20064, Note_on_c, 9, 31, 49
11, 20064, Note_on_c, 9, 42, 68
11, 20068, Note_on_c, 9, 31, 0
11, 20068, Note_on_c, 9, 42, 0
11, 20112, Note_on_c, 9, 35, 110
11, 20116, Note_on_c, 9, 35, 0
11, 20160, Note_on_c, 9, 31, 51
11, 20160, Note_on_c, 9, 37, 107
11, 20160, Note_on_c, 9, 42, 69
11, 20164, Note_on_c, 9, 31, 0
11, 20164, Note_on_c, 9, 37, 0
11, 20164, Note_on_c, 9, 42, 0
11, 20256, Note_on_c, 9, 31, 50
11, 20256, Note_on_c, 9, 35, 103
11, 20256, Note_on_c, 9, 42, 66
11, 20260, Note_on_c, 9, 31, 0
11, 20260, Note_on_c, 9, 35, 0
11, 20260, Note_on_c, 9, 42, 0
11, 20352, Note_on_c, 9, 31, 51
11, 20352, Note_on_c, 9, 42, 69
11, 20352, Note_on_c, 9, 75, 80
11, 20356, Note_on_c, 9, 31, 0
11, 20356, Note_on_c, 9, 42, 0
11, 20356, Note_on_c, 9, 75, 0
11, 20448, Note_on_c, 9, 31, 48
11, 20448, Note_on_c, 9, 42, 68
11, 20452, Note_on_c, 9, 31, 0
11, 20452, Note_on_c, 9, 42, 0
11, 20496, Note_on_c, 9, 75, 74
11, 20500, Note_on_c, 9, 75, 0
11, 20544, Note_on_c, 9, 31, 51
11, 20544, Note_on_c, 9, 37, 107
11, 20544, Note_on_c, 9, 42, 68
11, 20544, Note_on_c, 9, 54, 88
11, 20548, Note_on_c, 9, 31, 0
11, 20548, Note_on_c, 9, 37, 0
11, 20548, Note_on_c, 9, 42, 0
11, 20548, Note_on_c, 9, 54, 0
11, 20592, Note_on_c, 9, 54, 44
11, 20596, Note_on_c, 9, 54, 0
11, 20640, Note_on_c, 9, 31, 48
11, 20640, Note_on_c, 9, 42, 70
11, 20640, Note_on_c, 9, 54, 24
11, 20644, Note_on_c, 9, 31, 0
11, 20644, Note_on_c, 9, 42, 0
11, 20644, Note_on_c, 9, 54, 0
11, 20688, Note_on_c, 9, 35, 88
11, 20688, Note_on_c, 9, 46, 56
11, 20692, Note_on_c, 9, 35, 0
11, 20692, Note_on_c, 9, 46, 0
11, 20736, Note_on_c, 9, 31, 51
11, 20736, Note_on_c, 9, 35, 108
11, 20736, Note_on_c, 9, 42, 73
11, 20740, Note_on_c, 9, 31, 0
11, 20740, Note_on_c, 9, 35, 0
11, 20740, Note_on_c, 9, 42, 0
11, 20832, Note_on_c, 9, 31, 49
11, 20832, Note_on_c, 9, 42, 73
11, 20836, Note_on_c, 9, 31, 0
11, 20836, Note_on_c, 9, 42, 0
11, 20880, Note_on_c, 9, 35, 110
11, 20884, Note_on_c, 9, 35, 0
11, 20928, Note_on_c, 9, 31, 51
11, 20928, Note_on_c, 9, 37, 107
11, 20928, Note_on_c, 9, 42, 74
11, 20932, Note_on_c, 9, 31, 0
11, 20932, Note_on_c, 9, 37, 0
11, 20932, Note_on_c, 9, 42, 0
11, 21024, Note_on_c, 9, 31, 50
11, 21024, Note_on_c, 9, 35, 103
11, 21024, Note_on_c, 9, 42, 74
11, 21028, Note_on_c, 9, 31, 0
11, 21028, Note_on_c, 9, 35, 0
11, 21028, Note_on_c, 9, 42, 0
11, 21120, Note_on_c, 9, 31, 51
11, 21120, Note_on_c, 9, 42, 73
11, 21124, Note_on_c, 9, 31, 0
11, 21124, Note_on_c, 9, 42, 0
11, 21216, Note_on_c, 9, 31, 48
11, 21216, Note_on_c, 9, 42, 70
11, 21220, Note_on_c, 9, 31, 0
11, 21220, Note_on_c, 9, 42, 0
11, 21312, Note_on_c, 9, 31, 51
11, 21312, Note_on_c, 9, 37, 107
11, 21312, Note_on_c, 9, 42, 71
11, 21312, Note_on_c, 9, 54, 88
11, 21316, Note_on_c, 9, 31, 0
11, 21316, Note_on_c, 9, 37, 0
11, 21316, Note_on_c, 9, 42, 0
11, 21316, Note_on_c, 9, 54, 0
11, 21360, Note_on_c, 9, 54, 44
11, 21364, Note_on_c, 9, 54, 0
11, 21408, Note_on_c, 9, 31, 48
11, 21408, Note_on_c, 9, 42, 65
11, 21408, Note_on_c, 9, 54, 24
11, 21412, Note_on_c, 9, 31, 0
11, 21412, Note_on_c, 9, 42, 0
11, 21412, Note_on_c, 9, 54, 0
11, 21456, Note_on_c, 9, 35, 88
11, 21456, Note_on_c, 9, 46, 61
11, 21460, Note_on_c, 9, 35, 0
11, 21460, Note_on_c, 9, 46, 0
11, 21504, Note_on_c, 9, 31, 51
11, 21504, Note_on_c, 9, 35, 108
11, 21504, Note_on_c, 9, 42, 66
11, 21508, Note_on_c, 9, 31, 0
11, 21508, Note_on_c, 9, 35, 0
11, 21508, Note_on_c, 9, 42, 0
11, 21600, Note_on_c, 9, 31, 49
11, 21600, Note_on_c, 9, 42, 73
11, 21604, Note_on_c, 9, 31, 0
11, 21604, Note_on_c, 9, 42, 0
11, 21648, Note_on_c, 9, 35, 110
11, 21652, Note_on_c, 9, 35, 0
11, 21696, Note_on_c, 9, 31, 51
11, 21696, Note_on_c, 9, 37, 107
11, 21696, Note_on_c, 9, 42, 70
11, 21700, Note_on_c, 9, 31, 0
11, 21700, Note_on_c, 9, 37, 0
11, 21700, Note_on_c, 9, 42, 0
11, 21792, Note_on_c, 9, 31, 50
11, 21792, Note_on_c, 9, 35, 103
11, 21792, Note_on_c, 9, 42, 71
11, 21796, Note_on_c, 9, 31, 0
11, 21796, Note_on_c, 9, 35, 0
11, 21796, Note_on_c, 9, 42, 0
11, 21888, Note_on_c, 9, 31, 51
11, 21888, Note_on_c, 9, 42, 70
11, 21888, Note_on_c, 9, 81, 58
11, 21892, Note_on_c, 9, 31, 0
11, 21892, Note_on_c, 9, 42, 0
11, 21892, Note_on_c, 9, 81, 0
11, 21984, Note_on_c, 9, 31, 48
11, 21984, Note_on_c, 9, 42, 68
11, 21988, Note_on_c, 9, 31, 0
11, 21988, Note_on_c, 9, 42, 0
11, 22080, Note_on_c, 9, 31, 51
11, 22080, Note_on_c, 9, 37, 107
11, 22080, Note_on_c, 9, 42, 70
11, 22080, Note_on_c, 9, 54, 88
11, 22084, Note_on_c, 9, 31, 0
11, 22084, Note_on_c, 9, 37, 0
11, 22084, Note_on_c, 9, 42, 0
11, 22084, Note_on_c, 9, 54, 0
11, 22128, Note_on_c, 9, 54, 44
11, 22132, Note_on_c, 9, 54, 0
11, 22176, Note_on_c, 9, 31, 48
11, 22176, Note_on_c, 9, 42, 72
11, 22176, Note_on_c, 9, 54, 24
11, 22180, Note_on_c, 9, 31, 0
11, 22180, Note_on_c, 9, 42, 0
11, 22180, Note_on_c, 9, 54, 0
11, 22224, Note_on_c, 9, 35, 88
11, 22224, Note_on_c, 9, 46, 58
11, 22228, Note_on_c, 9, 35, 0
11, 22228, Note_on_c, 9, 46, 0
11, 22272, Note_on_c, 9, 31, 51
11, 22272, Note_on_c, 9, 35, 108
11, 22272, Note_on_c, 9, 42, 68
11, 22276, Note_on_c, 9, 31, 0
11, 22276, Note_on_c, 9, 35, 0
11, 22276, Note_on_c, 9, 42, 0
11, 22368, Note_on_c, 9, 31, 49
11, 22368, Note_on_c, 9, 42, 71
11, 22372, Note_on_c, 9, 31, 0
11, 22372, Note_on_c, 9, 42, 0
11, 22416, Note_on_c, 9, 35, 110
11, 22420, Note_on_c, 9, 35, 0
11, 22464, Note_on_c, 9, 31, 51
11, 22464, Note_on_c, 9, 37, 107
11, 22464, Note_on_c, 9, 42, 72
11, 22468, Note_on_c, 9, 31, 0
11, 22468, Note_on_c, 9, 37, 0
11, 22468, Note_on_c, 9, 42, 0
11, 22560, Note_on_c, 9, 31, 50
11, 22560, Note_on_c, 9, 35, 103
11, 22560, Note_on_c, 9, 42, 68
11, 22564, Note_on_c, 9, 31, 0
11, 22564, Note_on_c, 9, 35, 0
11, 22564, Note_on_c, 9, 42, 0
11, 22656, Note_on_c, 9, 31, 51
11, 22656, Note_on_c, 9, 42, 68
11, 22660, Note_on_c, 9, 31, 0
11, 22660, Note_on_c, 9, 42, 0
11, 22752, Note_on_c, 9, 31, 48
11, 22752, Note_on_c, 9, 42, 65
11, 22756, Note_on_c, 9, 31, 0
11, 22756, Note_on_c, 9, 42, 0
11, 22848, Note_on_c, 9, 31, 51
11, 22848, Note_on_c, 9, 37, 107
11, 22848, Note_on_c, 9, 42, 68
11, 22848, Note_on_c, 9, 54, 88
11, 22852, Note_on_c, 9, 31, 0
11, 22852, Note_on_c, 9, 37, 0
11, 22852, Note_on_c, 9, 42, 0
11, 22852, Note_on_c, 9, 54, 0
11, 22896, Note_on_c, 9, 54, 44
11, 22900, Note_on_c, 9, 54, 0
11, 22944, Note_on_c, 9, 31, 48
11, 22944, Note_on_c, 9, 42, 69
11, 22944, Note_on_c, 9, 54, 24
11, 22948, Note_on_c, 9, 31, 0
11, 22948, Note_on_c, 9, 42, 0
11, 22948, Note_on_c, 9, 54, 0
11, 22992, Note_on_c, 9, 35, 88
11, 22992, Note_on_c, 9, 46, 54
11, 22996, Note_on_c, 9, 35, 0
11, 22996, Note_on_c, 9, 46, 0
11, 23040, Note_on_c, 9, 31, 51
11, 23040, Note_on_c, 9, 35, 108
11, 23040, Note_on_c, 9, 42, 66
11, 23044, Note_on_c, 9, 31, 0
11, 23044, Note_on_c, 9, 35, 0
11, 23044, Note_on_c, 9, 42, 0
11, 23136, Note_on_c, 9, 31, 49
11, 23136, Note_on_c, 9, 42, 68
11, 23140, Note_on_c, 9, 31, 0
11, 23140, Note_on_c, 9, 42, 0
11, 23184, Note_on_c, 9, 35, 110
11, 23188, Note_on_c, 9, 35, 0
11, 23232, Note_on_c, 9, 31, 51
11, 23232, Note_on_c, 9, 37, 107
11, 23232, Note_on_c, 9, 42, 69
11, 23236, Note_on_c, 9, 31, 0
11, 23236, Note_on_c, 9, 37, 0
11, 23236, Note_on_c, 9, 42, 0
11, 23328, Note_on_c, 9, 31, 50
11, 23328, Note_on_c, 9, 35, 103
11, 23328, Note_on_c, 9, 42, 66
11, 23332, Note_on_c, 9, 31, 0
11, 23332, Note_on_c, 9, 35, 0
11, 23332, Note_on_c, 9, 42, 0
11, 23424, Note_on_c, 9, 31, 51
11, 23424, Note_on_c, 9, 42, 69
11, 23424, Note_on_c, 9, 75, 80
11, 23428, Note_on_c, 9, 31, 0
11, 23428, Note_on_c, 9, 42, 0
11, 23428, Note_on_c, 9, 75, 0
11, 23487, Note_off_c, 15, 64, 64
11, 23520, Note_on_c, 9, 31, 48
11, 23520, Note_on_c, 9, 42, 68
11, 23524, Note_on_c, 9, 31, 0
11, 23524, Note_on_c, 9, 42, 0
11, 23568, Note_on_c, 9, 75, 74
11, 23572, Note_on_c, 9, 75, 0
11, 23616, Note_on_c, 9, 31, 51
11, 23616, Note_on_c, 9, 40, 99
11, 23616, Note_on_c, 9, 42, 68
11, 23616, Note_on_c, 9, 54, 88
11, 23620, Note_on_c, 9, 31, 0
11, 23620, Note_on_c, 9, 40, 0
11, 23620, Note_on_c, 9, 42, 0
11, 23620, Note_on_c, 9, 54, 0
11, 23664, Note_on_c, 9, 45, 77
11, 23664, Note_on_c, 9, 54, 44
11, 23668, Note_on_c, 9, 45, 0
11, 23668, Note_on_c, 9, 54, 0
11, 23712, Note_on_c, 9, 31, 48
11, 23712, Note_on_c, 9, 40, 92
11, 23712, Note_on_c, 9, 42, 70
11, 23712, Note_on_c, 9, 54, 24
11, 23716, Note_on_c, 9, 31, 0
11, 23716, Note_on_c, 9, 40, 0
11, 23716, Note_on_c, 9, 42, 0
11, 23716, Note_on_c, 9, 54, 0
11, 23760, Note_on_c, 9, 35, 88
11, 23760, Note_on_c, 9, 43, 73
11, 23760, Note_on_c, 9, 46, 56
11, 23764, Note_on_c, 9, 35, 0
11, 23764, Note_on_c, 9, 43, 0
11, 23764, Note_on_c, 9, 46, 0
11, 23808, Note_on_c, 9, 31, 51
11, 23808, Note_on_c, 9, 35, 108
11, 23808, Note_on_c, 9, 57, 58
11, 23812, Note_on_c, 9, 31, 0
11, 23812, Note_on_c, 9, 35, 0
11, 23812, Note_on_c, 9, 57, 0
11, 23856, Note_on_c, 9, 42, 49
11, 23860, Note_on_c, 9, 42, 0
11, 23904, Note_on_c, 9, 31, 49
11, 23904, Note_on_c, 9, 42, 79
11, 23908, Note_on_c, 9, 31, 0
11, 23908, Note_on_c, 9, 42, 0
11, 23952, Note_on_c, 9, 35, 110
11, 23952, Note_on_c, 9, 42, 49
11, 23956, Note_on_c, 9, 35, 0
11, 23956, Note_on_c, 9, 42, 0
11, 24000, Note_on_c, 9, 31, 51
11, 24000, Note_on_c, 9, 40, 115
11, 24000, Note_on_c, 9, 42, 80
11, 24004, Note_on_c, 9, 31, 0
11, 24004, Note_on_c, 9, 40, 0
11, 24004, Note_on_c, 9, 42, 0
11, 24048, Note_on_c, 9, 42, 50
11, 24052, Note_on_c, 9, 42, 0
11, 24068, Note_off_c, 15, 64, 69
11, 24096, Note_on_c, 9, 31, 50
11, 24096, Note_on_c, 9, 35, 103
11, 24096, Note_on_c, 9, 42, 80
11, 24100, Note_on_c, 9, 31, 0
11, 24100, Note_on_c, 9, 35, 0
11, 24100, Note_on_c, 9, 42, 0
11, 24144, Note_on_c, 9, 42, 50
11, 24148, Note_on_c, 9, 42, 0
11, 24192, Note_on_c, 9, 31, 51
11, 24192, Note_on_c, 9, 42, 79
11, 24196, Note_on_c, 9, 31, 0
11, 24196, Note_on_c, 9, 42, 0
11, 24240, Note_on_c, 9, 42, 49
11, 24244, Note_on_c, 9, 42, 0
11, 24268, Note_off_c, 15, 64, 77
11, 24288, Note_on_c, 9, 31, 48
11, 24288, Note_on_c, 9, 42, 76
11, 24288, Note_on_c, 9, 62, 125
11, 24292, Note_on_c, 9, 31, 0
11, 24292, Note_on_c, 9, 42, 0
11, 24292, Note_on_c, 9, 62, 0
11, 24336, Note_on_c, 9, 42, 46
11, 24340, Note_on_c, 9, 42, 0
11, 24384, Note_on_c, 9, 31, 51
11, 24384, Note_on_c, 9, 40, 115
11, 24384, Note_on_c, 9, 42, 77
11, 24384, Note_on_c, 9, 54, 98
11, 24388, Note_on_c, 9, 31, 0
11, 24388, Note_on_c, 9, 40, 0
11, 24388, Note_on_c, 9, 42, 0
11, 24388, Note_on_c, 9, 54, 0
11, 24432, Note_on_c, 9, 42, 47
11, 24432, Note_on_c, 9, 54, 57
11, 24436, Note_on_c, 9, 42, 0
11, 24436, Note_on_c, 9, 54, 0
11, 24463, Note_off_c, 15, 64, 80
11, 24480, Note_on_c, 9, 31, 48
11, 24480, Note_on_c, 9, 42, 71
11, 24480, Note_on_c, 9, 54, 37
11, 24480, Note_on_c, 9, 62, 121
11, 24484, Note_on_c, 9, 31, 0
11, 24484, Note_on_c, 9, 42, 0
11, 24484, Note_on_c, 9, 54, 0
11, 24484, Note_on_c, 9, 62, 0
11, 24528, Note_on_c, 9, 35, 88
11, 24528, Note_on_c, 9, 46, 67
11, 24532, Note_on_c, 9, 35, 0
11, 24532, Note_on_c, 9, 46, 0
11, 24576, Note_on_c, 9, 31, 51
11, 24576, Note_on_c, 9, 35, 108
11, 24576, Note_on_c, 9, 42, 72
11, 24580, Note_on_c, 9, 31, 0
11, 24580, Note_on_c, 9, 35, 0
11, 24580, Note_on_c, 9, 42, 0
11, 24624, Note_on_c, 9, 42, 42
11, 24628, Note_on_c, 9, 42, 0
11, 24672, Note_on_c, 9, 31, 49
11, 24672, Note_on_c, 9, 42, 79
11, 24676, Note_on_c, 9, 31, 0
11, 24676, Note_on_c, 9, 42, 0
11, 24720, Note_on_c, 9, 35, 110
11, 24720, Note_on_c, 9, 42, 49
11, 24724, Note_on_c, 9, 35, 0
11, 24724, Note_on_c, 9, 42, 0
11, 24768, Note_on_c, 9, 31, 51
11, 24768, Note_on_c, 9, 40, 115
11, 24768, Note_on_c, 9, 42, 76
11, 24772, Note_on_c, 9, 31, 0
11, 24772, Note_on_c, 9, 40, 0
11, 24772, Note_on_c, 9, 42, 0
11, 24816, Note_on_c, 9, 42, 46
11, 24820, Note_on_c, 9, 42, 0
11, 24864, Note_on_c, 9, 31, 50
11, 24864, Note_on_c, 9, 35, 103
11, 24864, Note_on_c, 9, 42, 77
11, 24868, Note_on_c, 9, 31, 0
11, 24868, Note_on_c, 9, 35, 0
11, 24868, Note_on_c, 9, 42, 0
11, 24912, Note_on_c, 9, 42, 47
11, 24912, Note_on_c, 9, 63, 41
11, 24916, Note_on_c, 9, 42, 0
11, 24916, Note_on_c, 9, 63, 0
11, 24960, Note_on_c, 9, 31, 51
11, 24960, Note_on_c, 9, 42, 76
11, 24960, Note_on_c, 9, 62, 117
11, 24964, Note_on_c, 9, 31, 0
11, 24964, Note_on_c, 9, 42, 0
11, 24964, Note_on_c, 9, 62, 0
11, 25008, Note_on_c, 9, 42, 46
11, 25012, Note_on_c, 9, 42, 0
11, 25056, Note_on_c, 9, 31, 48
11, 25056, Note_on_c, 9, 42, 74
11, 25056, Note_on_c, 9, 63, 65
11, 25060, Note_on_c, 9, 31, 0
11, 25060, Note_on_c, 9, 42, 0
11, 25060, Note_on_c, 9, 63, 0
11, 25104, Note_on_c, 9, 42, 44
11, 25104, Note_on_c, 9, 63, 117
11, 25108, Note_on_c, 9, 42, 0
11, 25108, Note_on_c, 9, 63, 0
11, 25152, Note_on_c, 9, 31, 51
11, 25152, Note_on_c, 9, 40, 115
11, 25152, Note_on_c, 9, 42, 76
11, 25152, Note_on_c, 9, 54, 95
11, 25152, Note_on_c, 9, 62, 121
11, 25156, Note_on_c, 9, 31, 0
11, 25156, Note_on_c, 9, 40, 0
11, 25156, Note_on_c, 9, 42, 0
11, 25156, Note_on_c, 9, 54, 0
11, 25156, Note_on_c, 9, 62, 0
11, 25200, Note_on_c, 9, 42, 46
11, 25200, Note_on_c, 9, 54, 58
11, 25204, Note_on_c, 9, 42, 0
11, 25204, Note_on_c, 9, 54, 0
11, 25248, Note_on_c, 9, 31, 48
11, 25248, Note_on_c, 9, 42, 78
11, 25248, Note_on_c, 9, 54, 42
11, 25248, Note_on_c, 9, 63, 77
11, 25252, Note_on_c, 9, 31, 0
11, 25252, Note_on_c, 9, 42, 0
11, 25252, Note_on_c, 9, 54, 0
11, 25252, Note_on_c, 9, 63, 0
11, 25296, Note_on_c, 9, 35, 88
11, 25296, Note_on_c, 9, 46, 64
11, 25296, Note_on_c, 9, 64, 93
11, 25300, Note_on_c, 9, 35, 0
11, 25300, Note_on_c, 9, 46, 0
11, 25300, Note_on_c, 9, 64, 0
11, 25344, Note_on_c, 9, 31, 51
11, 25344, Note_on_c, 9, 35, 108
11, 25344, Note_on_c, 9, 42, 74
11, 25348, Note_on_c, 9, 31, 0
11, 25348, Note_on_c, 9, 35, 0
11, 25348, Note_on_c, 9, 42, 0
11, 25392, Note_on_c, 9, 42, 44
11, 25396, Note_on_c, 9, 42, 0
11, 25440, Note_on_c, 9, 31, 49
11, 25440, Note_on_c, 9, 42, 77
11, 25444, Note_on_c, 9, 31, 0
11, 25444, Note_on_c, 9, 42, 0
11, 25488, Note_on_c, 9, 35, 110
11, 25488, Note_on_c, 9, 42, 47
11, 25488, Note_on_c, 9, 63, 69
11, 25492, Note_on_c, 9, 35, 0
11, 25492, Note_on_c, 9, 42, 0
11, 25492, Note_on_c, 9, 63, 0
11, 25536, Note_on_c, 9, 31, 51
11, 25536, Note_on_c, 9, 40, 115
11, 25536, Note_on_c, 9, 42, 78
11, 25536, Note_on_c, 9, 62, 113
11, 25540, Note_on_c, 9, 31, 0
11, 25540, Note_on_c, 9, 40, 0
11, 25540, Note_on_c, 9, 42, 0
11, 25540, Note_on_c, 9, 62, 0
11, 25584, Note_on_c, 9, 42, 48
11, 25588, Note_on_c, 9, 42, 0
11, 25632, Note_on_c, 9, 31, 50
11, 25632, Note_on_c, 9, 35, 103
11, 25632, Note_on_c, 9, 42, 74
11, 25636, Note_on_c, 9, 31, 0
11, 25636, Note_on_c, 9, 35, 0
11, 25636, Note_on_c, 9, 42, 0
11, 25680, Note_on_c, 9, 42, 44
11, 25680, Note_on_c, 9, 63, 65
11, 25684, Note_on_c, 9, 42, 0
11, 25684, Note_on_c, 9, 63, 0
11, 25728, Note_on_c, 9, 31, 51
11, 25728, Note_on_c, 9, 42, 74
11, 25732, Note_on_c, 9, 31, 0
11, 25732, Note_on_c, 9, 42, 0
11, 25776, Note_on_c, 9, 42, 44
11, 25776, Note_on_c, 9, 63, 81
11, 25780, Note_on_c, 9, 42, 0
11, 25780, Note_on_c, 9, 63, 0
11, 25824, Note_on_c, 9, 31, 48
11, 25824, Note_on_c, 9, 42, 71
11, 25828, Note_on_c, 9, 31, 0
11, 25828, Note_on_c, 9, 42, 0
11, 25872, Note_on_c, 9, 42, 41
11, 25872, Note_on_c, 9, 63, 93
11, 25876, Note_on_c, 9, 42, 0
11, 25876, Note_on_c, 9, 63, 0
11, 25920, Note_on_c, 9, 31, 51
11, 25920, Note_on_c, 9, 40, 115
11, 25920, Note_on_c, 9, 42, 74
11, 25920, Note_on_c, 9, 54, 95
11, 25924, Note_on_c, 9, 31, 0
11, 25924, Note_on_c, 9, 40, 0
11, 25924, Note_on_c, 9, 42, 0
11, 25924, Note_on_c, 9, 54, 0
11, 25968, Note_on_c, 9, 42, 44
11, 25968, Note_on_c, 9, 54, 56
11, 25968, Note_on_c, 9, 63, 65
11, 25972, Note_on_c, 9, 42, 0
11, 25972, Note_on_c, 9, 54, 0
11, 25972, Note_on_c, 9, 63, 0
11, 26016, Note_on_c, 9, 31, 48
11, 26016, Note_on_c, 9, 42, 75
11, 26016, Note_on_c, 9, 54, 45
11, 26016, Note_on_c, 9, 62, 113
11, 26020, Note_on_c, 9, 31, 0
11, 26020, Note_on_c, 9, 42, 0
11, 26020, Note_on_c, 9, 54, 0
11, 26020, Note_on_c, 9, 62, 0
11, 26064, Note_on_c, 9, 35, 88
11, 26064, Note_on_c, 9, 46, 60
11, 26064, Note_on_c, 9, 63, 73
11, 26068, Note_on_c, 9, 35, 0
11, 26068, Note_on_c, 9, 46, 0
11, 26068, Note_on_c, 9, 63, 0
11, 26112, Note_on_c, 9, 31, 51
11, 26112, Note_on_c, 9, 35, 108
11, 26112, Note_on_c, 9, 42, 72
11, 26112, Note_on_c, 9, 64, 65
11, 26116, Note_on_c, 9, 31, 0
11, 26116, Note_on_c, 9, 35, 0
11, 26116, Note_on_c, 9, 42, 0
11, 26116, Note_on_c, 9, 64, 0
11, 26160, Note_on_c, 9, 42, 42
11, 26164, Note_on_c, 9, 42, 0
11, 26208, Note_on_c, 9, 31, 49
11, 26208, Note_on_c, 9, 42, 74
11, 26212, Note_on_c, 9, 31, 0
11, 26212, Note_on_c, 9, 42, 0
11, 26256, Note_on_c, 9, 35, 110
11, 26256, Note_on_c, 9, 42, 44
11, 26256, Note_on_c, 9, 63, 73
11, 26260, Note_on_c, 9, 35, 0
11, 26260, Note_on_c, 9, 42, 0
11, 26260, Note_on_c, 9, 63, 0
11, 26304, Note_on_c, 9, 31, 51
11, 26304, Note_on_c, 9, 40, 115
11, 26304, Note_on_c, 9, 42, 75
11, 26304, Note_on_c, 9, 62, 113
11, 26308, Note_on_c, 9, 31, 0
11, 26308, Note_on_c, 9, 40, 0
11, 26308, Note_on_c, 9, 42, 0
11, 26308, Note_on_c, 9, 62, 0
11, 26352, Note_on_c, 9, 42, 45
11, 26356, Note_on_c, 9, 42, 0
11, 26400, Note_on_c, 9, 31, 50
11, 26400, Note_on_c, 9, 35, 103
11, 26400, Note_on_c, 9, 42, 72
11, 26400, Note_on_c, 9, 63, 45
11, 26404, Note_on_c, 9, 31, 0
11, 26404, Note_on_c, 9, 35, 0
11, 26404, Note_on_c, 9, 42, 0
11, 26404, Note_on_c, 9, 63, 0
11, 26448, Note_on_c, 9, 42, 42
11, 26448, Note_on_c, 9, 63, 61
11, 26452, Note_on_c, 9, 42, 0
11, 26452, Note_on_c, 9, 63, 0
11, 26496, Note_on_c, 9, 31, 51
11, 26496, Note_on_c, 9, 42, 75
11, 26496, Note_on_c, 9, 75, 80
11, 26500, Note_on_c, 9, 31, 0
11, 26500, Note_on_c, 9, 42, 0
11, 26500, Note_on_c, 9, 75, 0
11, 26544, Note_on_c, 9, 42, 45
11, 26544, Note_on_c, 9, 63, 73
11, 26548, Note_on_c, 9, 42, 0
11, 26548, Note_on_c, 9, 63, 0
11, 26592, Note_on_c, 9, 31, 48
11, 26592, Note_on_c, 9, 42, 74
11, 26592, Note_on_c, 9, 62, 113
11, 26596, Note_on_c, 9, 31, 0
11, 26596, Note_on_c, 9, 42, 0
11, 26596, Note_on_c, 9, 62, 0
11, 26640, Note_on_c, 9, 42, 44
11, 26640, Note_on_c, 9, 63, 65
11, 26640, Note_on_c, 9, 75, 74
11, 26644, Note_on_c, 9, 42, 0
11, 26644, Note_on_c, 9, 63, 0
11, 26644, Note_on_c, 9, 75, 0
11, 26688, Note_on_c, 9, 31, 51
11, 26688, Note_on_c, 9, 40, 115
11, 26688, Note_on_c, 9, 42, 74
11, 26688, Note_on_c, 9, 54, 88
11, 26688, Note_on_c, 9, 63, 77
11, 26692, Note_on_c, 9, 31, 0
11, 26692, Note_on_c, 9, 40, 0
11, 26692, Note_on_c, 9, 42, 0
11, 26692, Note_on_c, 9, 54, 0
11, 26692, Note_on_c, 9, 63, 0
11, 26736, Note_on_c, 9, 42, 44
11, 26736, Note_on_c, 9, 54, 44
11, 26736, Note_on_c, 9, 63, 69
11, 26740, Note_on_c, 9, 42, 0
11, 26740, Note_on_c, 9, 54, 0
11, 26740, Note_on_c, 9, 63, 0
11, 26784, Note_on_c, 9, 31, 48
11, 26784, Note_on_c, 9, 42, 76
11, 26784, Note_on_c, 9, 54, 24
11, 26784, Note_on_c, 9, 62, 117
11, 26788, Note_on_c, 9, 31, 0
11, 26788, Note_on_c, 9, 42, 0
11, 26788, Note_on_c, 9, 54, 0
11, 26788, Note_on_c, 9, 62, 0
11, 26832, Note_on_c, 9, 35, 88
11, 26832, Note_on_c, 9, 46, 62
11, 26836, Note_on_c, 9, 35, 0
11, 26836, Note_on_c, 9, 46, 0
11, 26880, Note_on_c, 9, 31, 51
11, 26880, Note_on_c, 9, 35, 108
11, 26880, Note_on_c, 9, 42, 79
11, 26884, Note_on_c, 9, 31, 0
11, 26884, Note_on_c, 9, 35, 0
11, 26884, Note_on_c, 9, 42, 0
11, 26928, Note_on_c, 9, 42, 49
11, 26932, Note_on_c, 9, 42, 0
11, 26976, Note_on_c, 9, 31, 49
11, 26976, Note_on_c, 9, 42, 79
11, 26976, Note_on_c, 9, 62, 77
11, 26980, Note_on_c, 9, 31, 0
11, 26980, Note_on_c, 9, 42, 0
11, 26980, Note_on_c, 9, 62, 0
11, 27024, Note_on_c, 9, 35, 110
11, 27024, Note_on_c, 9, 42, 49
11, 27028, Note_on_c, 9, 35, 0
11, 27028, Note_on_c, 9, 42, 0
11, 27072, Note_on_c, 9, 31, 51
11, 27072, Note_on_c, 9, 40, 115
11, 27072, Note_on_c, 9, 42, 80
11, 27076, Note_on_c, 9, 31, 0
11, 27076, Note_on_c, 9, 40, 0
11, 27076, Note_on_c, 9, 42, 0
11, 27120, Note_on_c, 9, 42, 50
11, 27124, Note_on_c, 9, 42, 0
11, 27168, Note_on_c, 9, 31, 50
11, 27168, Note_on_c, 9, 35, 103
11, 27168, Note_on_c, 9, 42, 80
11, 27168, Note_on_c, 9, 62, 101
11, 27172, Note_on_c, 9, 31, 0
11, 27172, Note_on_c, 9, 35, 0
11, 27172, Note_on_c, 9, 42, 0
11, 27172, Note_on_c, 9, 62, 0
11, 27216, Note_on_c, 9, 42, 50
11, 27216, Note_on_c, 9, 63, 77
11, 27220, Note_on_c, 9, 42, 0
11, 27220, Note_on_c, 9, 63, 0
11, 27264, Note_on_c, 9, 31, 51
11, 27264, Note_on_c, 9, 42, 79
11, 27268, Note_on_c, 9, 31, 0
11, 27268, Note_on_c, 9, 42, 0
11, 27312, Note_on_c, 9, 42, 49
11, 27312, Note_on_c, 9, 62, 73
11, 27316, Note_on_c, 9, 42, 0
11, 27316, Note_on_c, 9, 62, 0
11, 27360, Note_on_c, 9, 31, 48
11, 27360, Note_on_c, 9, 42, 76
11, 27360, Note_on_c, 9, 63, 57
11, 27364, Note_on_c, 9, 31, 0
11, 27364, Note_on_c, 9, 42, 0
11, 27364, Note_on_c, 9, 63, 0
11, 27408, Note_on_c, 9, 42, 46
11, 27408, Note_on_c, 9, 64, 61
11, 27412, Note_on_c, 9, 42, 0
11, 27412, Note_on_c, 9, 64, 0
11, 27456, Note_on_c, 9, 31, 51
11, 27456, Note_on_c, 9, 40, 115
11, 27456, Note_on_c, 9, 42, 77
11, 27456, Note_on_c, 9, 54, 98
11, 27456, Note_on_c, 9, 62, 97
11, 27460, Note_on_c, 9, 31, 0
11, 27460, Note_on_c, 9, 40, 0
11, 27460, Note_on_c, 9, 42, 0
11, 27460, Note_on_c, 9, 54, 0
11, 27460, Note_on_c, 9, 62, 0
11, 27504, Note_on_c, 9, 42, 47
11, 27504, Note_on_c, 9, 54, 57
11, 27504, Note_on_c, 9, 63, 81
11, 27508, Note_on_c, 9, 42, 0
11, 27508, Note_on_c, 9, 54, 0
11, 27508, Note_on_c, 9, 63, 0
11, 27552, Note_on_c, 9, 31, 48
11, 27552, Note_on_c, 9, 42, 71
11, 27552, Note_on_c, 9, 54, 37
11, 27552, Note_on_c, 9, 62, 61
11, 27556, Note_on_c, 9, 31, 0
11, 27556, Note_on_c, 9, 42, 0
11, 27556, Note_on_c, 9, 54, 0
11, 27556, Note_on_c, 9, 62, 0
11, 27600, Note_on_c, 9, 35, 88
11, 27600, Note_on_c, 9, 46, 67
11, 27604, Note_on_c, 9, 35, 0
11, 27604, Note_on_c, 9, 46, 0
11, 27648, Note_on_c, 9, 31, 51
11, 27648, Note_on_c, 9, 35, 108
11, 27648, Note_on_c, 9, 42, 72
11, 27648, Note_on_c, 9, 62, 85
11, 27652, Note_on_c, 9, 31, 0
11, 27652, Note_on_c, 9, 35, 0
11, 27652, Note_on_c, 9, 42, 0
11, 27652, Note_on_c, 9, 62, 0
11, 27696, Note_on_c, 9, 42, 42
11, 27700, Note_on_c, 9, 42, 0
11, 27744, Note_on_c, 9, 31, 49
11, 27744, Note_on_c, 9, 42, 79
11, 27748, Note_on_c, 9, 31, 0
11, 27748, Note_on_c, 9, 42, 0
11, 27792, Note_on_c, 9, 35, 110
11, 27792, Note_on_c, 9, 42, 49
11, 27796, Note_on_c, 9, 35, 0
11, 27796, Note_on_c, 9, 42, 0
11, 27840, Note_on_c, 9, 31, 51
11, 27840, Note_on_c, 9, 40, 115
11, 27840, Note_on_c, 9, 42, 76
11, 27844, Note_on_c, 9, 31, 0
11, 27844, Note_on_c, 9, 40, 0
11, 27844, Note_on_c, 9, 42, 0
11, 27888, Note_on_c, 9, 42, 46
11, 27892, Note_on_c, 9, 42, 0
11, 27936, Note_on_c, 9, 31, 50
11, 27936, Note_on_c, 9, 35, 103
11, 27936, Note_on_c, 9, 42, 77
11, 27940, Note_on_c, 9, 31, 0
11, 27940, Note_on_c, 9, 35, 0
11, 27940, Note_on_c, 9, 42, 0
11, 27984, Note_on_c, 9, 42, 47
11, 27984, Note_on_c, 9, 62, 101
11, 27988, Note_on_c, 9, 42, 0
11, 27988, Note_on_c, 9, 62, 0
11, 28032, Note_on_c, 9, 31, 51
11, 28032, Note_on_c, 9, 42, 76
11, 28036, Note_on_c, 9, 31, 0
11, 28036, Note_on_c, 9, 42, 0
11, 28080, Note_on_c, 9, 42, 46
11, 28080, Note_on_c, 9, 62, 81
11, 28084, Note_on_c, 9, 42, 0
11, 28084, Note_on_c, 9, 62, 0
11, 28128, Note_on_c, 9, 31, 48
11, 28128, Note_on_c, 9, 42, 74
11, 28132, Note_on_c, 9, 31, 0
11, 28132, Note_on_c, 9, 42, 0
11, 28176, Note_on_c, 9, 42, 44
11, 28176, Note_on_c, 9, 63, 85
11, 28180, Note_on_c, 9, 42, 0
11, 28180, Note_on_c, 9, 63, 0
11, 28224, Note_on_c, 9, 31, 51
11, 28224, Note_on_c, 9, 40, 115
11, 28224, Note_on_c, 9, 42, 76
11, 28224, Note_on_c, 9, 54, 95
11, 28224, Note_on_c, 9, 64, 101
11, 28228, Note_on_c, 9, 31, 0
11, 28228, Note_on_c, 9, 40, 0
11, 28228, Note_on_c, 9, 42, 0
11, 28228, Note_on_c, 9, 54, 0
11, 28228, Note_on_c, 9, 64, 0
11, 28272, Note_on_c, 9, 42, 46
11, 28272, Note_on_c, 9, 54, 58
11, 28272, Note_on_c, 9, 63, 57
11, 28276, Note_on_c, 9, 42, 0
11, 28276, Note_on_c, 9, 54, 0
11, 28276, Note_on_c, 9, 63, 0
11, 28320, Note_on_c, 9, 31, 48
11, 28320, Note_on_c, 9, 42, 78
11, 28320, Note_on_c, 9, 54, 42
11, 28320, Note_on_c, 9, 62, 121
11, 28324, Note_on_c, 9, 31, 0
11, 28324, Note_on_c, 9, 42, 0
11, 28324, Note_on_c, 9, 54, 0
11, 28324, Note_on_c, 9, 62, 0
11, 28368, Note_on_c, 9, 35, 88
11, 28368, Note_on_c, 9, 46, 64
11, 28372, Note_on_c, 9, 35, 0
11, 28372, Note_on_c, 9, 46, 0
11, 28416, Note_on_c, 9, 31, 51
11, 28416, Note_on_c, 9, 35, 108
11, 28416, Note_on_c, 9, 42, 74
11, 28416, Note_on_c, 9, 62, 113
11, 28420, Note_on_c, 9, 31, 0
11, 28420, Note_on_c, 9, 35, 0
11, 28420, Note_on_c, 9, 42, 0
11, 28420, Note_on_c, 9, 62, 0
11, 28464, Note_on_c, 9, 42, 44
11, 28468, Note_on_c, 9, 42, 0
11, 28512, Note_on_c, 9, 31, 49
11, 28512, Note_on_c, 9, 42, 77
11, 28512, Note_on_c, 9, 63, 69
11, 28516, Note_on_c, 9, 31, 0
11, 28516, Note_on_c, 9, 42, 0
11, 28516, Note_on_c, 9, 63, 0
11, 28560, Note_on_c, 9, 35, 110
11, 28560, Note_on_c, 9, 42, 47
11, 28560, Note_on_c, 9, 62, 97
11, 28564, Note_on_c, 9, 35, 0
11, 28564, Note_on_c, 9, 42, 0
11, 28564, Note_on_c, 9, 62, 0
11, 28608, Note_on_c, 9, 31, 51
11, 28608, Note_on_c, 9, 40, 115
11, 28608, Note_on_c, 9, 42, 78
11, 28608, Note_on_c, 9, 62, 121
11, 28612, Note_on_c, 9, 31, 0
11, 28612, Note_on_c, 9, 40, 0
11, 28612, Note_on_c, 9, 42, 0
11, 28612, Note_on_c, 9, 62, 0
11, 28656, Note_on_c, 9, 42, 48
11, 28660, Note_on_c, 9, 42, 0
11, 28704, Note_on_c, 9, 31, 50
11, 28704, Note_on_c, 9, 35, 103
11, 28704, Note_on_c, 9, 42, 74
11, 28704, Note_on_c, 9, 63, 45
11, 28708, Note_on_c, 9, 31, 0
11, 28708, Note_on_c, 9, 35, 0
11, 28708, Note_on_c, 9, 42, 0
11, 28708, Note_on_c, 9, 63, 0
11, 28752, Note_on_c, 9, 42, 44
11, 28752, Note_on_c, 9, 64, 81
11, 28756, Note_on_c, 9, 42, 0
11, 28756, Note_on_c, 9, 64, 0
11, 28800, Note_on_c, 9, 31, 51
11, 28800, Note_on_c, 9, 42, 74
11, 28804, Note_on_c, 9, 31, 0
11, 28804, Note_on_c, 9, 42, 0
11, 28848, Note_on_c, 9, 42, 44
11, 28848, Note_on_c, 9, 64, 69
11, 28852, Note_on_c, 9, 42, 0
11, 28852, Note_on_c, 9, 64, 0
11, 28896, Note_on_c, 9, 31, 48
11, 28896, Note_on_c, 9, 42, 71
11, 28896, Note_on_c, 9, 63, 81
11, 28900, Note_on_c, 9, 31, 0
11, 28900, Note_on_c, 9, 42, 0
11, 28900, Note_on_c, 9, 63, 0
11, 28944, Note_on_c, 9, 42, 41
11, 28944, Note_on_c, 9, 62, 61
11, 28948, Note_on_c, 9, 42, 0
11, 28948, Note_on_c, 9, 62, 0
11, 28992, Note_on_c, 9, 31, 51
11, 28992, Note_on_c, 9, 40, 115
11, 28992, Note_on_c, 9, 42, 74
11, 28992, Note_on_c, 9, 54, 95
11, 28992, Note_on_c, 9, 62, 113
11, 28996, Note_on_c, 9, 31, 0
11, 28996, Note_on_c, 9, 40, 0
11, 28996, Note_on_c, 9, 42, 0
11, 28996, Note_on_c, 9, 54, 0
11, 28996, Note_on_c, 9, 62, 0
11, 29040, Note_on_c, 9, 42, 44
11, 29040, Note_on_c, 9, 54, 56
11, 29044, Note_on_c, 9, 42, 0
11, 29044, Note_on_c, 9, 54, 0
11, 29088, Note_on_c, 9, 31, 48
11, 29088, Note_on_c, 9, 42, 75
11, 29088, Note_on_c, 9, 54, 45
11, 29088, Note_on_c, 9, 63, 73
11, 29092, Note_on_c, 9, 31, 0
11, 29092, Note_on_c, 9, 42, 0
11, 29092, Note_on_c, 9, 54, 0
11, 29092, Note_on_c, 9, 63, 0
11, 29136, Note_on_c, 9, 35, 88
11, 29136, Note_on_c, 9, 46, 60
11, 29136, Note_on_c, 9, 62, 65
11, 29140, Note_on_c, 9, 35, 0
11, 29140, Note_on_c, 9, 46, 0
11, 29140, Note_on_c, 9, 62, 0
11, 29184, Note_on_c, 9, 31, 51
11, 29184, Note_on_c, 9, 35, 108
11, 29184, Note_on_c, 9, 42, 72
11, 29188, Note_on_c, 9, 31, 0
11, 29188, Note_on_c, 9, 35, 0
11, 29188, Note_on_c, 9, 42, 0
11, 29232, Note_on_c, 9, 42, 42
11, 29232, Note_on_c, 9, 64, 65
11, 29236, Note_on_c, 9, 42, 0
11, 29236, Note_on_c, 9, 64, 0
11, 29280, Note_on_c, 9, 31, 49
11, 29280, Note_on_c, 9, 42, 74
11, 29280, Note_on_c, 9, 63, 65
11, 29284, Note_on_c, 9, 31, 0
11, 29284, Note_on_c, 9, 42, 0
11, 29284, Note_on_c, 9, 63, 0
11, 29328, Note_on_c, 9, 35, 110
11, 29328, Note_on_c, 9, 42, 44
11, 29328, Note_on_c, 9, 62, 93
11, 29332, Note_on_c, 9, 35, 0
11, 29332, Note_on_c, 9, 42, 0
11, 29332, Note_on_c, 9, 62, 0
11, 29376, Note_on_c, 9, 31, 51
11, 29376, Note_on_c, 9, 40, 115
11, 29376, Note_on_c, 9, 42, 75
11, 29376, Note_on_c, 9, 62, 121
11, 29380, Note_on_c, 9, 31, 0
11, 29380, Note_on_c, 9, 40, 0
11, 29380, Note_on_c, 9, 42, 0
11, 29380, Note_on_c, 9, 62, 0
11, 29424, Note_on_c, 9, 42, 45
11, 29428, Note_on_c, 9, 42, 0
11, 29472, Note_on_c, 9, 31, 50
11, 29472, Note_on_c, 9, 35, 103
11, 29472, Note_on_c, 9, 42, 72
11, 29472, Note_on_c, 9, 64, 65
11, 29476, Note_on_c, 9, 31, 0
11, 29476, Note_on_c, 9, 35, 0
11, 29476, Note_on_c, 9, 42, 0
11, 29476, Note_on_c, 9, 64, 0
11, 29520, Note_on_c, 9, 42, 42
11, 29520, Note_on_c, 9, 63, 69
11, 29524, Note_on_c, 9, 42, 0
11, 29524, Note_on_c, 9, 63, 0
11, 29568, Note_on_c, 9, 31, 51
11, 29568, Note_on_c, 9, 42, 75
11, 29568, Note_on_c, 9, 75, 80
11, 29572, Note_on_c, 9, 31, 0
11, 29572, Note_on_c, 9, 42, 0
11, 29572, Note_on_c, 9, 75, 0
11, 29616, Note_on_c, 9, 42, 45
11, 29616, Note_on_c, 9, 63, 81
11, 29620, Note_on_c, 9, 42, 0
11, 29620, Note_on_c, 9, 63, 0
11, 29664, Note_on_c, 9, 31, 48
11, 29664, Note_on_c, 9, 42, 74
11, 29664, Note_on_c, 9, 62, 65
11, 29668, Note_on_c, 9, 31, 0
11, 29668, Note_on_c, 9, 42, 0
11, 29668, Note_on_c, 9, 62, 0
11, 29712, Note_on_c, 9, 42, 44
11, 29712, Note_on_c, 9, 75, 74
11, 29716, Note_on_c, 9, 42, 0
11, 29716, Note_on_c, 9, 75, 0
11, 29760, Note_on_c, 9, 31, 51
11, 29760, Note_on_c, 9, 40, 115
11, 29760, Note_on_c, 9, 42, 74
11, 29760, Note_on_c, 9, 54, 88
11, 29760, Note_on_c, 9, 62, 113
11, 29764, Note_on_c, 9, 31, 0
11, 29764, Note_on_c, 9, 40, 0
11, 29764, Note_on_c, 9, 42, 0
11, 29764, Note_on_c, 9, 54, 0
11, 29764, Note_on_c, 9, 62, 0
11, 29808, Note_on_c, 9, 42, 44
11, 29808, Note_on_c, 9, 45, 81
11, 29808, Note_on_c, 9, 54, 44
11, 29808, Note_on_c, 9, 63, 45
11, 29812, Note_on_c, 9, 42, 0
11, 29812, Note_on_c, 9, 45, 0
11, 29812, Note_on_c, 9, 54, 0
11, 29812, Note_on_c, 9, 63, 0
11, 29856, Note_on_c, 9, 31, 48
11, 29856, Note_on_c, 9, 40, 104
11, 29856, Note_on_c, 9, 42, 76
11, 29856, Note_on_c, 9, 54, 24
11, 29860, Note_on_c, 9, 31, 0
11, 29860, Note_on_c, 9, 40, 0
11, 29860, Note_on_c, 9, 42, 0
11, 29860, Note_on_c, 9, 54, 0
11, 29904, Note_on_c, 9, 35, 88
11, 29904, Note_on_c, 9, 43, 73
11, 29904, Note_on_c, 9, 46, 62
11, 29904, Note_on_c, 9, 63, 69
11, 29908, Note_on_c, 9, 35, 0
11, 29908, Note_on_c, 9, 43, 0
11, 29908, Note_on_c, 9, 46, 0
11, 29908, Note_on_c, 9, 63, 0
11, 29952, Note_on_c, 9, 31, 51
11, 29952, Note_on_c, 9, 35, 108
11, 29952, Note_on_c, 9, 57, 58
11, 29956, Note_on_c, 9, 31, 0
11, 29956, Note_on_c, 9, 35, 0
11, 29956, Note_on_c, 9, 57, 0
11, 30048, Note_on_c, 9, 31, 49
11, 30048, Note_on_c, 9, 42, 73
11, 30052, Note_on_c, 9, 31, 0
11, 30052, Note_on_c, 9, 42, 0
11, 30096, Note_on_c, 9, 35, 110
11, 30100, Note_on_c, 9, 35, 0
11, 30144, Note_on_c, 9, 31, 51
11, 30144, Note_on_c, 9, 40, 115
11, 30144, Note_on_c, 9, 42, 74
11, 30148, Note_on_c, 9, 31, 0
11, 30148, Note_on_c, 9, 40, 0
11, 30148, Note_on_c, 9, 42, 0
11, 30240, Note_on_c, 9, 31, 50
11, 30240, Note_on_c, 9, 35, 103
11, 30240, Note_on_c, 9, 42, 74
11, 30244, Note_on_c, 9, 31, 0
11, 30244, Note_on_c, 9, 35, 0
11, 30244, Note_on_c, 9, 42, 0
11, 30336, Note_on_c, 9, 31, 51
11, 30336, Note_on_c, 9, 42, 73
11, 30340, Note_on_c, 9, 31, 0
11, 30340, Note_on_c, 9, 42, 0
11, 30432, Note_on_c, 9, 31, 48
11, 30432, Note_on_c, 9, 42, 70
11, 30436, Note_on_c, 9, 31, 0
11, 30436, Note_on_c, 9, 42, 0
11, 30528, Note_on_c, 9, 31, 51
11, 30528, Note_on_c, 9, 40, 115
11, 30528, Note_on_c, 9, 42, 71
11, 30528, Note_on_c, 9, 54, 88
11, 30532, Note_on_c, 9, 31, 0
11, 30532, Note_on_c, 9, 40, 0
11, 30532, Note_on_c, 9, 42, 0
11, 30532, Note_on_c, 9, 54, 0
11, 30576, Note_on_c, 9, 54, 44
11, 30580, Note_on_c, 9, 54, 0
11, 30624, Note_on_c, 9, 31, 48
11, 30624, Note_on_c, 9, 42, 65
11, 30624, Note_on_c, 9, 54, 24
11, 30628, Note_on_c, 9, 31, 0
11, 30628, Note_on_c, 9, 42, 0
11, 30628, Note_on_c, 9, 54, 0
11, 30672, Note_on_c, 9, 35, 88
11, 30672, Note_on_c, 9, 46, 61
11, 30676, Note_on_c, 9, 35, 0
11, 30676, Note_on_c, 9, 46, 0
11, 30720, Note_on_c, 9, 31, 51
11, 30720, Note_on_c, 9, 35, 108
11, 30720, Note_on_c, 9, 42, 66
11, 30724, Note_on_c, 9, 31, 0
11, 30724, Note_on_c, 9, 35, 0
11, 30724, Note_on_c, 9, 42, 0
11, 30816, Note_on_c, 9, 31, 49
11, 30816, Note_on_c, 9, 42, 73
11, 30820, Note_on_c, 9, 31, 0
11, 30820, Note_on_c, 9, 42, 0
11, 30864, Note_on_c, 9, 35, 110
11, 30868, Note_on_c, 9, 35, 0
11, 30912, Note_on_c, 9, 31, 51
11, 30912, Note_on_c, 9, 40, 115
11, 30912, Note_on_c, 9, 42, 70
11, 30916, Note_on_c, 9, 31, 0
11, 30916, Note_on_c, 9, 40, 0
11, 30916, Note_on_c, 9, 42, 0
11, 31008, Note_on_c, 9, 31, 50
11, 31008, Note_on_c, 9, 35, 103
11, 31008, Note_on_c, 9, 42, 71
11, 31012, Note_on_c, 9, 31, 0
11, 31012, Note_on_c, 9, 35, 0
11, 31012, Note_on_c, 9, 42, 0
11, 31104, Note_on_c, 9, 31, 51
11, 31104, Note_on_c, 9, 42, 70
11, 31108, Note_on_c, 9, 31, 0
11, 31108, Note_on_c, 9, 42, 0
11, 31200, Note_on_c, 9, 31, 48
11, 31200, Note_on_c, 9, 42, 68
11, 31204, Note_on_c, 9, 31, 0
11, 31204, Note_on_c, 9, 42, 0
11, 31296, Note_on_c, 9, 31, 51
11, 31296, Note_on_c, 9, 40, 115
11, 31296, Note_on_c, 9, 42, 70
11, 31296, Note_on_c, 9, 54, 88
11, 31300, Note_on_c, 9, 31, 0
11, 31300, Note_on_c, 9, 40, 0
11, 31300, Note_on_c, 9, 42, 0
11, 31300, Note_on_c, 9, 54, 0
11, 31344, Note_on_c, 9, 54, 44
11, 31348, Note_on_c, 9, 54, 0
11, 31392, Note_on_c, 9, 31, 48
11, 31392, Note_on_c, 9, 42, 72
11, 31392, Note_on_c, 9, 54, 24
11, 31396, Note_on_c, 9, 31, 0
11, 31396, Note_on_c, 9, 42, 0
11, 31396, Note_on_c, 9, 54, 0
11, 31440, Note_on_c, 9, 35, 88
11, 31440, Note_on_c, 9, 46, 58
11, 31444, Note_on_c, 9, 35, 0
11, 31444, Note_on_c, 9, 46, 0
11, 31488, Note_on_c, 9, 31, 51
11, 31488, Note_on_c, 9, 35, 108
11, 31488, Note_on_c, 9, 42, 68
11, 31492, Note_on_c, 9, 31, 0
11, 31492, Note_on_c, 9, 35, 0
11, 31492, Note_on_c, 9, 42, 0
11, 31584, Note_on_c, 9, 31, 49
11, 31584, Note_on_c, 9, 42, 71
11, 31588, Note_on_c, 9, 31, 0
11, 31588, Note_on_c, 9, 42, 0
11, 31632, Note_on_c, 9, 35, 110
11, 31636, Note_on_c, 9, 35, 0
11, 31680, Note_on_c, 9, 31, 51
11, 31680, Note_on_c, 9, 40, 115
11, 31680, Note_on_c, 9, 42, 72
11, 31684, Note_on_c, 9, 31, 0
11, 31684, Note_on_c, 9, 40, 0
11, 31684, Note_on_c, 9, 42, 0
11, 31776, Note_on_c, 9, 31, 50
11, 31776, Note_on_c, 9, 35, 103
11, 31776, Note_on_c, 9, 42, 68
11, 31780, Note_on_c, 9, 31, 0
11, 31780, Note_on_c, 9, 35, 0
11, 31780, Note_on_c, 9, 42, 0
11, 31872, Note_on_c, 9, 31, 51
11, 31872, Note_on_c, 9, 42, 68
11, 31876, Note_on_c, 9, 31, 0
11, 31876, Note_on_c, 9, 42, 0
11, 31968, Note_on_c, 9, 31, 48
11, 31968, Note_on_c, 9, 42, 65
11, 31972, Note_on_c, 9, 31, 0
11, 31972, Note_on_c, 9, 42, 0
11, 32064, Note_on_c, 9, 31, 51
11, 32064, Note_on_c, 9, 40, 115
11, 32064, Note_on_c, 9, 42, 68
11, 32064, Note_on_c, 9, 54, 88
11, 32068, Note_on_c, 9, 31, 0
11, 32068, Note_on_c, 9, 40, 0
11, 32068, Note_on_c, 9, 42, 0
11, 32068, Note_on_c, 9, 54, 0
11, 32112, Note_on_c, 9, 54, 44
11, 32116, Note_on_c, 9, 54, 0
11, 32160, Note_on_c, 9, 31, 48
11, 32160, Note_on_c, 9, 42, 69
11, 32160, Note_on_c, 9, 54, 24
11, 32164, Note_on_c, 9, 31, 0
11, 32164, Note_on_c, 9, 42, 0
11, 32164, Note_on_c, 9, 54, 0
11, 32208, Note_on_c, 9, 35, 88
11, 32208, Note_on_c, 9, 46, 54
11, 32212, Note_on_c, 9, 35, 0
11, 32212, Note_on_c, 9, 46, 0
11, 32256, Note_on_c, 9, 31, 51
11, 32256, Note_on_c, 9, 35, 108
11, 32256, Note_on_c, 9, 42, 66
11, 32260, Note_on_c, 9, 31, 0
11, 32260, Note_on_c, 9, 35, 0
11, 32260, Note_on_c, 9, 42, 0
11, 32352, Note_on_c, 9, 31, 49
11, 32352, Note_on_c, 9, 42, 68
11, 32356, Note_on_c, 9, 31, 0
11, 32356, Note_on_c, 9, 42, 0
11, 32400, Note_on_c, 9, 35, 110
11, 32404, Note_on_c, 9, 35, 0
11, 32448, Note_on_c, 9, 31, 51
11, 32448, Note_on_c, 9, 40, 115
11, 32448, Note_on_c, 9, 42, 69
11, 32452, Note_on_c, 9, 31, 0
11, 32452, Note_on_c, 9, 40, 0
11, 32452, Note_on_c, 9, 42, 0
11, 32544, Note_on_c, 9, 31, 50
11, 32544, Note_on_c, 9, 35, 103
11, 32544, Note_on_c, 9, 42, 66
11, 32548, Note_on_c, 9, 31, 0
11, 32548, Note_on_c, 9, 35, 0
11, 32548, Note_on_c, 9, 42, 0
11, 32640, Note_on_c, 9, 31, 51
11, 32640, Note_on_c, 9, 42, 69
11, 32640, Note_on_c, 9, 75, 80
11, 32644, Note_on_c, 9, 31, 0
11, 32644, Note_on_c, 9, 42, 0
11, 32644, Note_on_c, 9, 75, 0
11, 32736, Note_on_c, 9, 31, 48
11, 32736, Note_on_c, 9, 42, 68
11, 32740, Note_on_c, 9, 31, 0
11, 32740, Note_on_c, 9, 42, 0
11, 32784, Note_on_c, 9, 75, 74
11, 32788, Note_on_c, 9, 75, 0
11, 32832, Note_on_c, 9, 31, 51
11, 32832, Note_on_c, 9, 40, 115
11, 32832, Note_on_c, 9, 42, 68
11, 32832, Note_on_c, 9, 54, 88
11, 32836, Note_on_c, 9, 31, 0
11, 32836, Note_on_c, 9, 40, 0
11, 32836, Note_on_c, 9, 42, 0
11, 32836, Note_on_c, 9, 54, 0
11, 32880, Note_on_c, 9, 54, 44
11, 32884, Note_on_c, 9, 54, 0
11, 32928, Note_on_c, 9, 31, 48
11, 32928, Note_on_c, 9, 42, 70
11, 32928, Note_on_c, 9, 54, 24
11, 32932, Note_on_c, 9, 31, 0
11, 32932, Note_on_c, 9, 42, 0
11, 32932, Note_on_c, 9, 54, 0
11, 32976, Note_on_c, 9, 35, 88
11, 32976, Note_on_c, 9, 46, 56
11, 32980, Note_on_c, 9, 35, 0
11, 32980, Note_on_c, 9, 46, 0
11, 33024, Note_on_c, 9, 31, 51
11, 33024, Note_on_c, 9, 35, 108
11, 33024, Note_on_c, 9, 42, 73
11, 33028, Note_on_c, 9, 31, 0
11, 33028, Note_on_c, 9, 35, 0
11, 33028, Note_on_c, 9, 42, 0
11, 33120, Note_on_c, 9, 31, 49
11, 33120, Note_on_c, 9, 42, 73
11, 33124, Note_on_c, 9, 31, 0
11, 33124, Note_on_c, 9, 42, 0
11, 33168, Note_on_c, 9, 35, 110
11, 33172, Note_on_c, 9, 35, 0
11, 33216, Note_on_c, 9, 31, 51
11, 33216, Note_on_c, 9, 40, 115
11, 33216, Note_on_c, 9, 42, 74
11, 33220, Note_on_c, 9, 31, 0
11, 33220, Note_on_c, 9, 40, 0
11, 33220, Note_on_c, 9, 42, 0
11, 33312, Note_on_c, 9, 31, 50
11, 33312, Note_on_c, 9, 35, 103
11, 33312, Note_on_c, 9, 42, 74
11, 33316, Note_on_c, 9, 31, 0
11, 33316, Note_on_c, 9, 35, 0
11, 33316, Note_on_c, 9, 42, 0
11, 33408, Note_on_c, 9, 31, 51
11, 33408, Note_on_c, 9, 42, 73
11, 33412, Note_on_c, 9, 31, 0
11, 33412, Note_on_c, 9, 42, 0
11, 33504, Note_on_c, 9, 31, 48
11, 33504, Note_on_c, 9, 42, 70
11, 33508, Note_on_c, 9, 31, 0
11, 33508, Note_on_c, 9, 42, 0
11, 33600, Note_on_c, 9, 31, 51
11, 33600, Note_on_c, 9, 40, 115
11, 33600, Note_on_c, 9, 42, 71
11, 33600, Note_on_c, 9, 54, 88
11, 33604, Note_on_c, 9, 31, 0
11, 33604, Note_on_c, 9, 40, 0
11, 33604, Note_on_c, 9, 42, 0
11, 33604, Note_on_c, 9, 54, 0
11, 33648, Note_on_c, 9, 54, 44
11, 33652, Note_on_c, 9, 54, 0
11, 33696, Note_on_c, 9, 31, 48
11, 33696, Note_on_c, 9, 42, 65
11, 33696, Note_on_c, 9, 54, 24
11, 33700, Note_on_c, 9, 31, 0
11, 33700, Note_on_c, 9, 42, 0
11, 33700, Note_on_c, 9, 54, 0
11, 33744, Note_on_c, 9, 35, 88
11, 33744, Note_on_c, 9, 46, 61
11, 33748, Note_on_c, 9, 35, 0
11, 33748, Note_on_c, 9, 46, 0
11, 33792, Note_on_c, 9, 31, 51
11, 33792, Note_on_c, 9, 35, 108
11, 33792, Note_on_c, 9, 42, 66
11, 33796, Note_on_c, 9, 31, 0
11, 33796, Note_on_c, 9, 35, 0
11, 33796, Note_on_c, 9, 42, 0
11, 33888, Note_on_c, 9, 31, 49
11, 33888, Note_on_c, 9, 42, 73
11, 33892, Note_on_c, 9, 31, 0
11, 33892, Note_on_c, 9, 42, 0
11, 33936, Note_on_c, 9, 35, 110
11, 33940, Note_on_c, 9, 35, 0
11, 33984, Note_on_c, 9, 31, 51
11, 33984, Note_on_c, 9, 40, 115
11, 33984, Note_on_c, 9, 42, 70
11, 33988, Note_on_c, 9, 31, 0
11, 33988, Note_on_c, 9, 40, 0
11, 33988, Note_on_c, 9, 42, 0
11, 34080, Note_on_c, 9, 31, 50
11, 34080, Note_on_c, 9, 35, 103
11, 34080, Note_on_c, 9, 42, 71
11, 34084, Note_on_c, 9, 31, 0
11, 34084, Note_on_c, 9, 35, 0
11, 34084, Note_on_c, 9, 42, 0
11, 34176, Note_on_c, 9, 31, 51
11, 34176, Note_on_c, 9, 42, 70
11, 34176, Note_on_c, 9, 81, 58
11, 34180, Note_on_c, 9, 31, 0
11, 34180, Note_on_c, 9, 42, 0
11, 34180, Note_on_c, 9, 81, 0
11, 34272, Note_on_c, 9, 31, 48
11, 34272, Note_on_c, 9, 42, 68
11, 34276, Note_on_c, 9, 31, 0
11, 34276, Note_on_c, 9, 42, 0
11, 34368, Note_on_c, 9, 31, 51
11, 34368, Note_on_c, 9, 40, 115
11, 34368, Note_on_c, 9, 42, 70
11, 34368, Note_on_c, 9, 54, 88
11, 34372, Note_on_c, 9, 31, 0
11, 34372, Note_on_c, 9, 40, 0
11, 34372, Note_on_c, 9, 42, 0
11, 34372, Note_on_c, 9, 54, 0
11, 34416, Note_on_c, 9, 54, 44
11, 34420, Note_on_c, 9, 54, 0
11, 34464, Note_on_c, 9, 31, 48
11, 34464, Note_on_c, 9, 42, 72
11, 34464, Note_on_c, 9, 54, 24
11, 34468, Note_on_c, 9, 31, 0
11, 34468, Note_on_c, 9, 42, 0
11, 34468, Note_on_c, 9, 54, 0
11, 34512, Note_on_c, 9, 35, 88
11, 34512, Note_on_c, 9, 46, 58
11, 34516, Note_on_c, 9, 35, 0
11, 34516, Note_on_c, 9, 46, 0
11, 34560, Note_on_c, 9, 31, 51
11, 34560, Note_on_c, 9, 35, 108
11, 34560, Note_on_c, 9, 42, 68
11, 34564, Note_on_c, 9, 31, 0
11, 34564, Note_on_c, 9, 35, 0
11, 34564, Note_on_c, 9, 42, 0
11, 34656, Note_on_c, 9, 31, 49
11, 34656, Note_on_c, 9, 42, 71
11, 34660, Note_on_c, 9, 31, 0
11, 34660, Note_on_c, 9, 42, 0
11, 34704, Note_on_c, 9, 35, 110
11, 34708, Note_on_c, 9, 35, 0
11, 34752, Note_on_c, 9, 31, 51
11, 34752, Note_on_c, 9, 40, 115
11, 34752, Note_on_c, 9, 42, 72
11, 34756, Note_on_c, 9, 31, 0
11, 34756, Note_on_c, 9, 40, 0
11, 34756, Note_on_c, 9, 42, 0
11, 34848, Note_on_c, 9, 31, 50
11, 34848, Note_on_c, 9, 35, 103
11, 34848, Note_on_c, 9, 42, 68
11, 34852, Note_on_c, 9, 31, 0
11, 34852, Note_on_c, 9, 35, 0
11, 34852, Note_on_c, 9, 42, 0
11, 34944, Note_on_c, 9, 31, 51
11, 34944, Note_on_c, 9, 42, 68
11, 34948, Note_on_c, 9, 31, 0
11, 34948, Note_on_c, 9, 42, 0
11, 35040, Note_on_c, 9, 31, 48
11, 35040, Note_on_c, 9, 42, 65
11, 35044, Note_on_c, 9, 31, 0
11, 35044, Note_on_c, 9, 42, 0
11, 35136, Note_on_c, 9, 31, 51
11, 35136, Note_on_c, 9, 40, 115
11, 35136, Note_on_c, 9, 42, 68
11, 35136, Note_on_c, 9, 54, 88
11, 35140, Note_on_c, 9, 31, 0
11, 35140, Note_on_c, 9, 40, 0
11, 35140, Note_on_c, 9, 42, 0
11, 35140, Note_on_c, 9, 54, 0
11, 35184, Note_on_c, 9, 54, 44
11, 35188, Note_on_c, 9, 54, 0
11, 35232, Note_on_c, 9, 31, 48
11, 35232, Note_on_c, 9, 42, 69
11, 35232, Note_on_c, 9, 54, 24
11, 35236, Note_on_c, 9, 31, 0
11, 35236, Note_on_c, 9, 42, 0
11, 35236, Note_on_c, 9, 54, 0
11, 35280, Note_on_c, 9, 35, 88
11, 35280, Note_on_c, 9, 46, 54
11, 35284, Note_on_c, 9, 35, 0
11, 35284, Note_on_c, 9, 46, 0
11, 35328, Note_on_c, 9, 31, 51
11, 35328, Note_on_c, 9, 35, 108
11, 35328, Note_on_c, 9, 42, 66
11, 35332, Note_on_c, 9, 31, 0
11, 35332, Note_on_c, 9, 35, 0
11, 35332, Note_on_c, 9, 42, 0
11, 35424, Note_on_c, 9, 31, 49
11, 35424, Note_on_c, 9, 42, 68
11, 35428, Note_on_c, 9, 31, 0
11, 35428, Note_on_c, 9, 42, 0
11, 35472, Note_on_c, 9, 35, 110
11, 35476, Note_on_c, 9, 35, 0
11, 35520, Note_on_c, 9, 31, 51
11, 35520, Note_on_c, 9, 40, 115
11, 35520, Note_on_c, 9, 42, 69
11, 35524, Note_on_c, 9, 31, 0
11, 35524, Note_on_c, 9, 40, 0
11, 35524, Note_on_c, 9, 42, 0
11, 35616, Note_on_c, 9, 31, 50
11, 35616, Note_on_c, 9, 35, 103
11, 35616, Note_on_c, 9, 42, 66
11, 35620, Note_on_c, 9, 31, 0
11, 35620, Note_on_c, 9, 35, 0
11, 35620, Note_on_c, 9, 42, 0
11, 35712, Note_on_c, 9, 31, 51
11, 35712, Note_on_c, 9, 42, 69
11, 35712, Note_on_c, 9, 75, 80
11, 35716, Note_on_c, 9, 31, 0
11, 35716, Note_on_c, 9, 42, 0
11, 35716, Note_on_c, 9, 75, 0
11, 35808, Note_on_c, 9, 31, 48
11, 35808, Note_on_c, 9, 42, 68
11, 35812, Note_on_c, 9, 31, 0
11, 35812, Note_on_c, 9, 42, 0
11, 35856, Note_on_c, 9, 75, 74
11, 35860, Note_on_c, 9, 75, 0
11, 35904, Note_on_c, 9, 31, 51
11, 35904, Note_on_c, 9, 40, 99
11, 35904, Note_on_c, 9, 42, 68
11, 35904, Note_on_c, 9, 54, 88
11, 35908, Note_on_c, 9, 31, 0
11, 35908, Note_on_c, 9, 40, 0
11, 35908, Note_on_c, 9, 42, 0
11, 35908, Note_on_c, 9, 54, 0
11, 35952, Note_on_c, 9, 45, 77
11, 35952, Note_on_c, 9, 54, 44
11, 35956, Note_on_c, 9, 45, 0
11, 35956, Note_on_c, 9, 54, 0
11, 36000, Note_on_c, 9, 31, 48
11, 36000, Note_on_c, 9, 40, 92
11, 36000, Note_on_c, 9, 42, 70
11, 36000, Note_on_c, 9, 54, 24
11, 36004, Note_on_c, 9, 31, 0
11, 36004, Note_on_c, 9, 40, 0
11, 36004, Note_on_c, 9, 42, 0
11, 36004, Note_on_c, 9, 54, 0
11, 36048, Note_on_c, 9, 35, 88
11, 36048, Note_on_c, 9, 43, 73
11, 36048, Note_on_c, 9, 46, 56
11, 36052, Note_on_c, 9, 35, 0
11, 36052, Note_on_c, 9, 43, 0
11, 36052, Note_on_c, 9, 46, 0
11, 36096, Note_on_c, 9, 31, 51
11, 36096, Note_on_c, 9, 35, 108
11, 36096, Note_on_c, 9, 57, 58
11, 36100, Note_on_c, 9, 31, 0
11, 36100, Note_on_c, 9, 35, 0
11, 36100, Note_on_c, 9, 57, 0
11, 36144, Note_on_c, 9, 42, 49
11, 36148, Note_on_c, 9, 42, 0
11, 36192, Note_on_c, 9, 31, 49
11, 36192, Note_on_c, 9, 42, 79
11, 36196, Note_on_c, 9, 31, 0
11, 36196, Note_on_c, 9, 42, 0
11, 36240, Note_on_c, 9, 35, 110
11, 36240, Note_on_c, 9, 42, 49
11, 36244, Note_on_c, 9, 35, 0
11, 36244, Note_on_c, 9, 42, 0
11, 36288, Note_on_c, 9, 31, 51
11, 36288, Note_on_c, 9, 40, 115
11, 36288, Note_on_c, 9, 42, 80
11, 36292, Note_on_c, 9, 31, 0
11, 36292, Note_on_c, 9, 40, 0
11, 36292, Note_on_c, 9, 42, 0
11, 36336, Note_on_c, 9, 42, 50
11, 36340, Note_on_c, 9, 42, 0
11, 36384, Note_on_c, 9, 31, 50
11, 36384, Note_on_c, 9, 35, 103
11, 36384, Note_on_c, 9, 42, 80
11, 36388, Note_on_c, 9, 31, 0
11, 36388, Note_on_c, 9, 35, 0
11, 36388, Note_on_c, 9, 42, 0
11, 36432, Note_on_c, 9, 42, 50
11, 36436, Note_on_c, 9, 42, 0
11, 36480, Note_on_c, 9, 31, 51
11, 36480, Note_on_c, 9, 42, 79
11, 36484, Note_on_c, 9, 31, 0
11, 36484, Note_on_c, 9, 42, 0
11, 36528, Note_on_c, 9, 42, 49
11, 36532, Note_on_c, 9, 42, 0
11, 36576, Note_on_c, 9, 31, 48
11, 36576, Note_on_c, 9, 42, 76
11, 36576, Note_on_c, 9, 62, 125
11, 36580, Note_on_c, 9, 31, 0
11, 36580, Note_on_c, 9, 42, 0
11, 36580, Note_on_c, 9, 62, 0
11, 36624, Note_on_c, 9, 42, 46
11, 36628, Note_on_c, 9, 42, 0
11, 36672, Note_on_c, 9, 31, 51
11, 36672, Note_on_c, 9, 40, 115
11, 36672, Note_on_c, 9, 42, 77
11, 36672, Note_on_c, 9, 54, 98
11, 36676, Note_on_c, 9, 31, 0
11, 36676, Note_on_c, 9, 40, 0
11, 36676, Note_on_c, 9, 42, 0
11, 36676, Note_on_c, 9, 54, 0
11, 36720, Note_on_c, 9, 42, 47
11, 36720, Note_on_c, 9, 54, 57
11, 36724, Note_on_c, 9, 42, 0
11, 36724, Note_on_c, 9, 54, 0
11, 36768, Note_on_c, 9, 31, 48
11, 36768, Note_on_c, 9, 42, 71
11, 36768, Note_on_c, 9, 54, 37
11, 36768, Note_on_c, 9, 62, 121
11, 36772, Note_on_c, 9, 31, 0
11, 36772, Note_on_c, 9, 42, 0
11, 36772, Note_on_c, 9, 54, 0
11, 36772, Note_on_c, 9, 62, 0
11, 36816, Note_on_c, 9, 35, 88
11, 36816, Note_on_c, 9, 46, 67
11, 36820, Note_on_c, 9, 35, 0
11, 36820, Note_on_c, 9, 46, 0
11, 36864, Note_on_c, 9, 31, 51
11, 36864, Note_on_c, 9, 35, 108
11, 36864, Note_on_c, 9, 42, 72
11, 36868, Note_on_c, 9, 31, 0
11, 36868, Note_on_c, 9, 35, 0
11, 36868, Note_on_c, 9, 42, 0
11, 36912, Note_on_c, 9, 42, 42
11, 36916, Note_on_c, 9, 42, 0
11, 36960, Note_on_c, 9, 31, 49
11, 36960, Note_on_c, 9, 42, 79
11, 36964, Note_on_c, 9, 31, 0
11, 36964, Note_on_c, 9, 42, 0
11, 37008, Note_on_c, 9, 35, 110
11, 37008, Note_on_c, 9, 42, 49
11, 37012, Note_on_c, 9, 35, 0
11, 37012, Note_on_c, 9, 42, 0
11, 37056, Note_on_c, 9, 31, 51
11, 37056, Note_on_c, 9, 40, 115
11, 37056, Note_on_c, 9, 42, 76
11, 37060, Note_on_c, 9, 31, 0
11, 37060, Note_on_c, 9, 40, 0
11, 37060, Note_on_c, 9, 42, 0
11, 37104, Note_on_c, 9, 42, 46
11, 37108, Note_on_c, 9, 42, 0
11, 37152, Note_on_c, 9, 31, 50
11, 37152, Note_on_c, 9, 35, 103
11, 37152, Note_on_c, 9, 42, 77
11, 37156, Note_on_c, 9, 31, 0
11, 37156, Note_on_c, 9, 35, 0
11, 37156, Note_on_c, 9, 42, 0
11, 37200, Note_on_c, 9, 42, 47
11, 37200, Note_on_c, 9, 63, 41
11, 37204, Note_on_c, 9, 42, 0
11, 37204, Note_on_c, 9, 63, 0
11, 37248, Note_on_c, 9, 31, 51
11, 37248, Note_on_c, 9, 42, 76
11, 37248, Note_on_c, 9, 62, 117
11, 37252, Note_on_c, 9, 31, 0
11, 37252, Note_on_c, 9, 42, 0
11, 37252, Note_on_c, 9, 62, 0
11, 37296, Note_on_c, 9, 42, 46
11, 37300, Note_on_c, 9, 42, 0
11, 37344, Note_on_c, 9, 31, 48
11, 37344, Note_on_c, 9, 42, 74
11, 37344, Note_on_c, 9, 63, 65
11, 37348, Note_on_c, 9, 31, 0
11, 37348, Note_on_c, 9, 42, 0
11, 37348, Note_on_c, 9, 63, 0
11, 37392, Note_on_c, 9, 42, 44
11, 37392, Note_on_c, 9, 63, 117
11, 37396, Note_on_c, 9, 42, 0
11, 37396, Note_on_c, 9, 63, 0
11, 37440, Note_on_c, 9, 31, 51
11, 37440, Note_on_c, 9, 40, 115
11, 37440, Note_on_c, 9, 42, 76
11, 37440, Note_on_c, 9, 54, 95
11, 37440, Note_on_c, 9, 62, 121
11, 37444, Note_on_c, 9, 31, 0
11, 37444, Note_on_c, 9, 40, 0
11, 37444, Note_on_c, 9, 42, 0
11, 37444, Note_on_c, 9, 54, 0
11, 37444, Note_on_c, 9, 62, 0
11, 37488, Note_on_c, 9, 42, 46
11, 37488, Note_on_c, 9, 54, 58
11, 37492, Note_on_c, 9, 42, 0
11, 37492, Note_on_c, 9, 54, 0
11, 37536, Note_on_c, 9, 31, 48
11, 37536, Note_on_c, 9, 42, 78
11, 37536, Note_on_c, 9, 54, 42
11, 37536, Note_on_c, 9, 63, 77
11, 37540, Note_on_c, 9, 31, 0
11, 37540, Note_on_c, 9, 42, 0
11, 37540, Note_on_c, 9, 54, 0
11, 37540, Note_on_c, 9, 63, 0
11, 37584, Note_on_c, 9, 35, 88
11, 37584, Note_on_c, 9, 46, 64
11, 37584, Note_on_c, 9, 64, 93
11, 37588, Note_on_c, 9, 35, 0
11, 37588, Note_on_c, 9, 46, 0
11, 37588, Note_on_c, 9, 64, 0
11, 37632, Note_on_c, 9, 31, 51
11, 37632, Note_on_c, 9, 35, 108
11, 37632, Note_on_c, 9, 42, 74
11, 37636, Note_on_c, 9, 31, 0
11, 37636, Note_on_c, 9, 35, 0
11, 37636, Note_on_c, 9, 42, 0
11, 37680, Note_on_c, 9, 42, 44
11, 37684, Note_on_c, 9, 42, 0
11, 37728, Note_on_c, 9, 31, 49
11, 37728, Note_on_c, 9, 42, 77
11, 37732, Note_on_c, 9, 31, 0
11, 37732, Note_on_c, 9, 42, 0
11, 37776, Note_on_c, 9, 35, 110
11, 37776, Note_on_c, 9, 42, 47
11, 37776, Note_on_c, 9, 63, 69
11, 37780, Note_on_c, 9, 35, 0
11, 37780, Note_on_c, 9, 42, 0
11, 37780, Note_on_c, 9, 63, 0
11, 37824, Note_on_c, 9, 31, 51
11, 37824, Note_on_c, 9, 40, 115
11, 37824, Note_on_c, 9, 42, 78
11, 37824, Note_on_c, 9, 62, 113
11, 37828, Note_on_c, 9, 31, 0
11, 37828, Note_on_c, 9, 40, 0
11, 37828, Note_on_c, 9, 42, 0
11, 37828, Note_on_c, 9, 62, 0
11, 37872, Note_on_c, 9, 42, 48
11, 37876, Note_on_c, 9, 42, 0
11, 37920, Note_on_c, 9, 31, 50
11, 37920, Note_on_c, 9, 35, 103
11, 37920, Note_on_c, 9, 42, 74
11, 37924, Note_on_c, 9, 31, 0
11, 37924, Note_on_c, 9, 35, 0
11, 37924, Note_on_c, 9, 42, 0
11, 37968, Note_on_c, 9, 42, 44
11, 37968, Note_on_c, 9, 63, 65
11, 37972, Note_on_c, 9, 42, 0
11, 37972, Note_on_c, 9, 63, 0
11, 38016, Note_on_c, 9, 31, 51
11, 38016, Note_on_c, 9, 42, 74
11, 38020, Note_on_c, 9, 31, 0
11, 38020, Note_on_c, 9, 42, 0
11, 38064, Note_on_c, 9, 42, 44
11, 38064, Note_on_c, 9, 63, 81
11, 38068, Note_on_c, 9, 42, 0
11, 38068, Note_on_c, 9, 63, 0
11, 38112, Note_on_c, 9, 31, 48
11, 38112, Note_on_c, 9, 42, 71
11, 38116, Note_on_c, 9, 31, 0
11, 38116, Note_on_c, 9, 42, 0
11, 38160, Note_on_c, 9, 42, 41
11, 38160, Note_on_c, 9, 63, 93
11, 38164, Note_on_c, 9, 42, 0
11, 38164, Note_on_c, 9, 63, 0
11, 38208, Note_on_c, 9, 31, 51
11, 38208, Note_on_c, 9, 40, 115
11, 38208, Note_on_c, 9, 42, 74
11, 38208, Note_on_c, 9, 54, 95
11, 38212, Note_on_c, 9, 31, 0
11, 38212, Note_on_c, 9, 40, 0
11, 38212, Note_on_c, 9, 42, 0
11, 38212, Note_on_c, 9, 54, 0
11, 38256, Note_on_c, 9, 42, 44
11, 38256, Note_on_c, 9, 54, 56
11, 38256, Note_on_c, 9, 63, 65
11, 38260, Note_on_c, 9, 42, 0
11, 38260, Note_on_c, 9, 54, 0
11, 38260, Note_on_c, 9, 63, 0
11, 38304, Note_on_c, 9, 31, 48
11, 38304, Note_on_c, 9, 42, 75
11, 38304, Note_on_c, 9, 54, 45
11, 38304, Note_on_c, 9, 62, 113
11, 38308, Note_on_c, 9, 31, 0
11, 38308, Note_on_c, 9, 42, 0
11, 38308, Note_on_c, 9, 54, 0
11, 38308, Note_on_c, 9, 62, 0
11, 38352, Note_on_c, 9, 35, 88
11, 38352, Note_on_c, 9, 46, 60
11, 38352, Note_on_c, 9, 63, 73
11, 38356, Note_on_c, 9, 35, 0
11, 38356, Note_on_c, 9, 46, 0
11, 38356, Note_on_c, 9, 63, 0
11, 38400, Note_on_c, 9, 31, 51
11, 38400, Note_on_c, 9, 35, 108
11, 38400, Note_on_c, 9, 42, 72
11, 38400, Note_on_c, 9, 64, 65
11, 38404, Note_on_c, 9, 31, 0
11, 38404, Note_on_c, 9, 35, 0
11, 38404, Note_on_c, 9, 42, 0
11, 38404, Note_on_c, 9, 64, 0
11, 38448, Note_on_c, 9, 42, 42
11, 38452, Note_on_c, 9, 42, 0
11, 38496, Note_on_c, 9, 31, 49
11, 38496, Note_on_c, 9, 42, 74
11, 38500, Note_on_c, 9, 31, 0
11, 38500, Note_on_c, 9, 42, 0
11, 38544, Note_on_c, 9, 35, 110
11, 38544, Note_on_c, 9, 42, 44
11, 38544, Note_on_c, 9, 63, 73
11, 38548, Note_on_c, 9, 35, 0
11, 38548, Note_on_c, 9, 42, 0
11, 38548, Note_on_c, 9, 63, 0
11, 38592, Note_on_c, 9, 31, 51
11, 38592, Note_on_c, 9, 40, 115
11, 38592, Note_on_c, 9, 42, 75
11, 38592, Note_on_c, 9, 62, 113
11, 38596, Note_on_c, 9, 31, 0
11, 38596, Note_on_c, 9, 40, 0
11, 38596, Note_on_c, 9, 42, 0
11, 38596, Note_on_c, 9, 62, 0
11, 38640, Note_on_c, 9, 42, 45
11, 38644, Note_on_c, 9, 42, 0
11, 38688, Note_on_c, 9, 31, 50
11, 38688, Note_on_c, 9, 35, 103
11, 38688, Note_on_c, 9, 42, 72
11, 38688, Note_on_c, 9, 63, 45
11, 38692, Note_on_c, 9, 31, 0
11, 38692, Note_on_c, 9, 35, 0
11, 38692, Note_on_c, 9, 42, 0
11, 38692, Note_on_c, 9, 63, 0
11, 38736, Note_on_c, 9, 42, 42
11, 38736, Note_on_c, 9, 63, 61
11, 38740, Note_on_c, 9, 42, 0
11, 38740, Note_on_c, 9, 63, 0
11, 38784, Note_on_c, 9, 31, 51
11, 38784, Note_on_c, 9, 42, 75
11, 38784, Note_on_c, 9, 75, 80
11, 38788, Note_on_c, 9, 31, 0
11, 38788, Note_on_c, 9, 42, 0
11, 38788, Note_on_c, 9, 75, 0
11, 38832, Note_on_c, 9, 42, 45
11, 38832, Note_on_c, 9, 63, 73
11, 38836, Note_on_c, 9, 42, 0
11, 38836, Note_on_c, 9, 63, 0
11, 38880, Note_on_c, 9, 31, 48
11, 38880, Note_on_c, 9, 42, 74
11, 38880, Note_on_c, 9, 62, 113
11, 38884, Note_on_c, 9, 31, 0
11, 38884, Note_on_c, 9, 42, 0
11, 38884, Note_on_c, 9, 62, 0
11, 38928, Note_on_c, 9, 42, 44
11, 38928, Note_on_c, 9, 63, 65
11, 38928, Note_on_c, 9, 75, 74
11, 38932, Note_on_c, 9, 42, 0
11, 38932, Note_on_c, 9, 63, 0
11, 38932, Note_on_c, 9, 75, 0
11, 38976, Note_on_c, 9, 31, 51
11, 38976, Note_on_c, 9, 40, 115
11, 38976, Note_on_c, 9, 42, 74
11, 38976, Note_on_c, 9, 54, 88
11, 38976, Note_on_c, 9, 63, 77
11, 38980, Note_on_c, 9, 31, 0
11, 38980, Note_on_c, 9, 40, 0
11, 38980, Note_on_c, 9, 42, 0
11, 38980, Note_on_c, 9, 54, 0
11, 38980, Note_on_c, 9, 63, 0
11, 39024, Note_on_c, 9, 42, 44
11, 39024, Note_on_c, 9, 54, 44
11, 39024, Note_on_c, 9, 63, 69
11, 39028, Note_on_c, 9, 42, 0
11, 39028, Note_on_c, 9, 54, 0
11, 39028, Note_on_c, 9, 63, 0
11, 39072, Note_on_c, 9, 31, 48
11, 39072, Note_on_c, 9, 42, 76
11, 39072, Note_on_c, 9, 54, 24
11, 39072, Note_on_c, 9, 62, 117
11, 39076, Note_on_c, 9, 31, 0
11, 39076, Note_on_c, 9, 42, 0
11, 39076, Note_on_c, 9, 54, 0
11, 39076, Note_on_c, 9, 62, 0
11, 39120, Note_on_c, 9, 35, 88
11, 39120, Note_on_c, 9, 46, 62
11, 39124, Note_on_c, 9, 35, 0
11, 39124, Note_on_c, 9, 46, 0
11, 39168, Note_on_c, 9, 31, 51
11, 39168, Note_on_c, 9, 35, 108
11, 39168, Note_on_c, 9, 42, 79
11, 39172, Note_on_c, 9, 31, 0
11, 39172, Note_on_c, 9, 35, 0
11, 39172, Note_on_c, 9, 42, 0
11, 39216, Note_on_c, 9, 42, 49
11, 39220, Note_on_c, 9, 42, 0
11, 39264, Note_on_c, 9, 31, 49
11, 39264, Note_on_c, 9, 42, 79
11, 39264, Note_on_c, 9, 62, 77
11, 39268, Note_on_c, 9, 31, 0
11, 39268, Note_on_c, 9, 42, 0
11, 39268, Note_on_c, 9, 62, 0
11, 39312, Note_on_c, 9, 35, 110
11, 39312, Note_on_c, 9, 42, 49
11, 39316, Note_on_c, 9, 35, 0
11, 39316, Note_on_c, 9, 42, 0
11, 39360, Note_on_c, 9, 31, 51
11, 39360, Note_on_c, 9, 40, 115
11, 39360, Note_on_c, 9, 42, 80
11, 39364, Note_on_c, 9, 31, 0
11, 39364, Note_on_c, 9, 40, 0
11, 39364, Note_on_c, 9, 42, 0
11, 39408, Note_on_c, 9, 42, 50
11, 39412, Note_on_c, 9, 42, 0
11, 39456, Note_on_c, 9, 31, 50
11, 39456, Note_on_c, 9, 35, 103
11, 39456, Note_on_c, 9, 42, 80
11, 39456, Note_on_c, 9, 62, 101
11, 39460, Note_on_c, 9, 31, 0
11, 39460, Note_on_c, 9, 35, 0
11, 39460, Note_on_c, 9, 42, 0
11, 39460, Note_on_c, 9, 62, 0
11, 39504, Note_on_c, 9, 42, 50
11, 39504, Note_on_c, 9, 63, 77
11, 39508, Note_on_c, 9, 42, 0
11, 39508, Note_on_c, 9, 63, 0
11, 39552, Note_on_c, 9, 31, 51
11, 39552, Note_on_c, 9, 42, 79
11, 39556, Note_on_c, 9, 31, 0
11, 39556, Note_on_c, 9, 42, 0
11, 39600, Note_on_c, 9, 42, 49
11, 39600, Note_on_c, 9, 62, 73
11, 39604, Note_on_c, 9, 42, 0
11, 39604, Note_on_c, 9, 62, 0
11, 39648, Note_on_c, 9, 31, 48
11, 39648, Note_on_c, 9, 42, 76
11, 39648, Note_on_c, 9, 63, 57
11, 39652, Note_on_c, 9, 31, 0
11, 39652, Note_on_c, 9, 42, 0
11, 39652, Note_on_c, 9, 63, 0
11, 39696, Note_on_c, 9, 42, 46
11, 39696, Note_on_c, 9, 64, 61
11, 39700, Note_on_c, 9, 42, 0
11, 39700, Note_on_c, 9, 64, 0
11, 39744, Note_on_c, 9, 31, 51
11, 39744, Note_on_c, 9, 40, 115
11, 39744, Note_on_c, 9, 42, 77
11, 39744, Note_on_c, 9, 54, 98
11, 39744, Note_on_c, 9, 62, 97
11, 39748, Note_on_c, 9, 31, 0
11, 39748, Note_on_c, 9, 40, 0
11, 39748, Note_on_c, 9, 42, 0
11, 39748, Note_on_c, 9, 54, 0
11, 39748, Note_on_c, 9, 62, 0
11, 39792, Note_on_c, 9, 42, 47
11, 39792, Note_on_c, 9, 54, 57
11, 39792, Note_on_c, 9, 63, 81
11, 39796, Note_on_c, 9, 42, 0
11, 39796, Note_on_c, 9, 54, 0
11, 39796, Note_on_c, 9, 63, 0
11, 39840, Note_on_c, 9, 31, 48
11, 39840, Note_on_c, 9, 42, 71
11, 39840, Note_on_c, 9, 54, 37
11, 39840, Note_on_c, 9, 62, 61
11, 39844, Note_on_c, 9, 31, 0
11, 39844, Note_on_c, 9, 42, 0
11, 39844, Note_on_c, 9, 54, 0
11, 39844, Note_on_c, 9, 62, 0
11, 39888, Note_on_c, 9, 35, 88
11, 39888, Note_on_c, 9, 46, 67
11, 39892, Note_on_c, 9, 35, 0
11, 39892, Note_on_c, 9, 46, 0
11, 39936, Note_on_c, 9, 31, 51
11, 39936, Note_on_c, 9, 35, 108
11, 39936, Note_on_c, 9, 42, 72
11, 39936, Note_on_c, 9, 62, 85
11, 39940, Note_on_c, 9, 31, 0
11, 39940, Note_on_c, 9, 35, 0
11, 39940, Note_on_c, 9, 42, 0
11, 39940, Note_on_c, 9, 62, 0
11, 39984, Note_on_c, 9, 42, 42
11, 39988, Note_on_c, 9, 42, 0
11, 40032, Note_on_c, 9, 31, 49
11, 40032, Note_on_c, 9, 42, 79
11, 40036, Note_on_c, 9, 31, 0
11, 40036, Note_on_c, 9, 42, 0
11, 40080, Note_on_c, 9, 35, 110
11, 40080, Note_on_c, 9, 42, 49
11, 40084, Note_on_c, 9, 35, 0
11, 40084, Note_on_c, 9, 42, 0
11, 40128, Note_on_c, 9, 31, 51
11, 40128, Note_on_c, 9, 40, 115
11, 40128, Note_on_c, 9, 42, 76
11, 40132, Note_on_c, 9, 31, 0
11, 40132, Note_on_c, 9, 40, 0
11, 40132, Note_on_c, 9, 42, 0
11, 40176, Note_on_c, 9, 42, 46
11, 40180, Note_on_c, 9, 42, 0
11, 40224, Note_on_c, 9, 31, 50
11, 40224, Note_on_c, 9, 35, 103
11, 40224, Note_on_c, 9, 42, 77
11, 40228, Note_on_c, 9, 31, 0
11, 40228, Note_on_c, 9, 35, 0
11, 40228, Note_on_c, 9, 42, 0
11, 40272, Note_on_c, 9, 42, 47
11, 40272, Note_on_c, 9, 62, 101
11, 40276, Note_on_c, 9, 42, 0
11, 40276, Note_on_c, 9, 62, 0
11, 40320, Note_on_c, 9, 31, 51
11, 40320, Note_on_c, 9, 42, 76
11, 40324, Note_on_c, 9, 31, 0
11, 40324, Note_on_c, 9, 42, 0
11, 40368, Note_on_c, 9, 42, 46
11, 40368, Note_on_c, 9, 62, 81
11, 40372, Note_on_c, 9, 42, 0
11, 40372, Note_on_c, 9, 62, 0
11, 40416, Note_on_c, 9, 31, 48
11, 40416, Note_on_c, 9, 42, 74
11, 40420, Note_on_c, 9, 31, 0
11, 40420, Note_on_c, 9, 42, 0
11, 40464, Note_on_c, 9, 42, 44
11, 40464, Note_on_c, 9, 63, 85
11, 40468, Note_on_c, 9, 42, 0
11, 40468, Note_on_c, 9, 63, 0
11, 40512, Note_on_c, 9, 31, 51
11, 40512, Note_on_c, 9, 40, 115
11, 40512, Note_on_c, 9, 42, 76
11, 40512, Note_on_c, 9, 54, 95
11, 40512, Note_on_c, 9, 64, 101
11, 40516, Note_on_c, 9, 31, 0
11, 40516, Note_on_c, 9, 40, 0
11, 40516, Note_on_c, 9, 42, 0
11, 40516, Note_on_c, 9, 54, 0
11, 40516, Note_on_c, 9, 64, 0
11, 40560, Note_on_c, 9, 42, 46
11, 40560, Note_on_c, 9, 54, 58
11, 40560, Note_on_c, 9, 63, 57
11, 40564, Note_on_c, 9, 42, 0
11, 40564, Note_on_c, 9, 54, 0
11, 40564, Note_on_c, 9, 63, 0
11, 40608, Note_on_c, 9, 31, 48
11, 40608, Note_on_c, 9, 42, 78
11, 40608, Note_on_c, 9, 54, 42
11, 40608, Note_on_c, 9, 62, 121
11, 40612, Note_on_c, 9, 31, 0
11, 40612, Note_on_c, 9, 42, 0
11, 40612, Note_on_c, 9, 54, 0
11, 40612, Note_on_c, 9, 62, 0
11, 40656, Note_on_c, 9, 35, 88
11, 40656, Note_on_c, 9, 46, 64
11, 40660, Note_on_c, 9, 35, 0
11, 40660, Note_on_c, 9, 46, 0
11, 40704, Note_on_c, 9, 31, 51
11, 40704, Note_on_c, 9, 35, 108
11, 40704, Note_on_c, 9, 42, 74
11, 40704, Note_on_c, 9, 62, 113
11, 40708, Note_on_c, 9, 31, 0
11, 40708, Note_on_c, 9, 35, 0
11, 40708, Note_on_c, 9, 42, 0
11, 40708, Note_on_c, 9, 62, 0
11, 40752, Note_on_c, 9, 42, 44
11, 40756, Note_on_c, 9, 42, 0
11, 40800, Note_on_c, 9, 31, 49
11, 40800, Note_on_c, 9, 42, 77
11, 40800, Note_on_c, 9, 63, 69
11, 40804, Note_on_c, 9, 31, 0
11, 40804, Note_on_c, 9, 42, 0
11, 40804, Note_on_c, 9, 63, 0
11, 40848, Note_on_c, 9, 35, 110
11, 40848, Note_on_c, 9, 42, 47
11, 40848, Note_on_c, 9, 62, 97
11, 40852, Note_on_c, 9, 35, 0
11, 40852, Note_on_c, 9, 42, 0
11, 40852, Note_on_c, 9, 62, 0
11, 40896, Note_on_c, 9, 31, 51
11, 40896, Note_on_c, 9, 40, 115
11, 40896, Note_on_c, 9, 42, 78
11, 40896, Note_on_c, 9, 62, 121
11, 40900, Note_on_c, 9, 31, 0
11, 40900, Note_on_c, 9, 40, 0
11, 40900, Note_on_c, 9, 42, 0
11, 40900, Note_on_c, 9, 62, 0
11, 40944, Note_on_c, 9, 42, 48
11, 40948, Note_on_c, 9, 42, 0
11, 40992, Note_on_c, 9, 31, 50
11, 40992, Note_on_c, 9, 35, 103
11, 40992, Note_on_c, 9, 42, 74
11, 40992, Note_on_c, 9, 63, 45
11, 40996, Note_on_c, 9, 31, 0
11, 40996, Note_on_c, 9, 35, 0
11, 40996, Note_on_c, 9, 42, 0
11, 40996, Note_on_c, 9, 63, 0
11, 41040, Note_on_c, 9, 42, 44
11, 41040, Note_on_c, 9, 64, 81
11, 41044, Note_on_c, 9, 42, 0
11, 41044, Note_on_c, 9, 64, 0
11, 41088, Note_on_c, 9, 31, 51
11, 41088, Note_on_c, 9, 42, 74
11, 41092, Note_on_c, 9, 31, 0
11, 41092, Note_on_c, 9, 42, 0
11, 41136, Note_on_c, 9, 42, 44
11, 41136, Note_on_c, 9, 64, 69
11, 41140, Note_on_c, 9, 42, 0
11, 41140, Note_on_c, 9, 64, 0
11, 41184, Note_on_c, 9, 31, 48
11, 41184, Note_on_c, 9, 42, 71
11, 41184, Note_on_c, 9, 63, 81
11, 41188, Note_on_c, 9, 31, 0
11, 41188, Note_on_c, 9, 42, 0
11, 41188, Note_on_c, 9, 63, 0
11, 41232, Note_on_c, 9, 42, 41
11, 41232, Note_on_c, 9, 62, 61
11, 41236, Note_on_c, 9, 42, 0
11, 41236, Note_on_c, 9, 62, 0
11, 41280, Note_on_c, 9, 31, 51
11, 41280, Note_on_c, 9, 40, 115
11, 41280, Note_on_c, 9, 42, 74
11, 41280, Note_on_c, 9, 54, 95
11, 41280, Note_on_c, 9, 62, 113
11, 41284, Note_on_c, 9, 31, 0
11, 41284, Note_on_c, 9, 40, 0
11, 41284, Note_on_c, 9, 42, 0
11, 41284, Note_on_c, 9, 54, 0
11, 41284, Note_on_c, 9, 62, 0
11, 41328, Note_on_c, 9, 42, 44
11, 41328, Note_on_c, 9, 54, 56
11, 41332, Note_on_c, 9, 42, 0
11, 41332, Note_on_c, 9, 54, 0
11, 41376, Note_on_c, 9, 31, 48
11, 41376, Note_on_c, 9, 42, 75
11, 41376, Note_on_c, 9, 54, 45
11, 41376, Note_on_c, 9, 63, 73
11, 41380, Note_on_c, 9, 31, 0
11, 41380, Note_on_c, 9, 42, 0
11, 41380, Note_on_c, 9, 54, 0
11, 41380, Note_on_c, 9, 63, 0
11, 41424, Note_on_c, 9, 35, 88
11, 41424, Note_on_c, 9, 46, 60
11, 41424, Note_on_c, 9, 62, 65
11, 41428, Note_on_c, 9, 35, 0
11, 41428, Note_on_c, 9, 46, 0
11, 41428, Note_on_c, 9, 62, 0
11, 41472, Note_on_c, 9, 31, 51
11, 41472, Note_on_c, 9, 35, 108
11, 41472, Note_on_c, 9, 42, 72
11, 41476, Note_on_c, 9, 31, 0
11, 41476, Note_on_c, 9, 35, 0
11, 41476, Note_on_c, 9, 42, 0
11, 41520, Note_on_c, 9, 42, 42
11, 41520, Note_on_c, 9, 64, 65
11, 41524, Note_on_c, 9, 42, 0
11, 41524, Note_on_c, 9, 64, 0
11, 41568, Note_on_c, 9, 31, 49
11, 41568, Note_on_c, 9, 42, 74
11, 41568, Note_on_c, 9, 63, 65
11, 41572, Note_on_c, 9, 31, 0
11, 41572, Note_on_c, 9, 42, 0
11, 41572, Note_on_c, 9, 63, 0
11, 41616, Note_on_c, 9, 35, 110
11, 41616, Note_on_c, 9, 42, 44
11, 41616, Note_on_c, 9, 62, 93
11, 41620, Note_on_c, 9, 35, 0
11, 41620, Note_on_c, 9, 42, 0
11, 41620, Note_on_c, 9, 62, 0
11, 41664, Note_on_c, 9, 31, 51
11, 41664, Note_on_c, 9, 40, 115
11, 41664, Note_on_c, 9, 42, 75
11, 41664, Note_on_c, 9, 62, 121
11, 41668, Note_on_c, 9, 31, 0
11, 41668, Note_on_c, 9, 40, 0
11, 41668, Note_on_c, 9, 42, 0
11, 41668, Note_on_c, 9, 62, 0
11, 41712, Note_on_c, 9, 42, 45
11, 41716, Note_on_c, 9, 42, 0
11, 41760, Note_on_c, 9, 31, 50
11, 41760, Note_on_c, 9, 35, 103
11, 41760, Note_on_c, 9, 42, 72
11, 41760, Note_on_c, 9, 64, 65
11, 41764, Note_on_c, 9, 31, 0
11, 41764, Note_on_c, 9, 35, 0
11, 41764, Note_on_c, 9, 42, 0
11, 41764, Note_on_c, 9, 64, 0
11, 41808, Note_on_c, 9, 42, 42
11, 41808, Note_on_c, 9, 63, 69
11, 41812, Note_on_c, 9, 42, 0
11, 41812, Note_on_c, 9, 63, 0
11, 41856, Note_on_c, 9, 31, 51
11, 41856, Note_on_c, 9, 42, 75
11, 41856, Note_on_c, 9, 75, 80
11, 41860, Note_on_c, 9, 31, 0
11, 41860, Note_on_c, 9, 42, 0
11, 41860, Note_on_c, 9, 75, 0
11, 41904, Note_on_c, 9, 42, 45
11, 41904, Note_on_c, 9, 63, 81
11, 41908, Note_on_c, 9, 42, 0
11, 41908, Note_on_c, 9, 63, 0
11, 41952, Note_on_c, 9, 31, 48
11, 41952, Note_on_c, 9, 42, 74
11, 41952, Note_on_c, 9, 62, 65
11, 41956, Note_on_c, 9, 31, 0
11, 41956, Note_on_c, 9, 42, 0
11, 41956, Note_on_c, 9, 62, 0
11, 42000, Note_on_c, 9, 42, 44
11, 42000, Note_on_c, 9, 75, 74
11, 42004, Note_on_c, 9, 42, 0
11, 42004, Note_on_c, 9, 75, 0
11, 42048, Note_on_c, 9, 31, 51
11, 42048, Note_on_c, 9, 40, 115
11, 42048, Note_on_c, 9, 42, 74
11, 42048, Note_on_c, 9, 54, 88
11, 42048, Note_on_c, 9, 62, 113
11, 42052, Note_on_c, 9, 31, 0
11, 42052, Note_on_c, 9, 40, 0
11, 42052, Note_on_c, 9, 42, 0
11, 42052, Note_on_c, 9, 54, 0
11, 42052, Note_on_c, 9, 62, 0
11, 42096, Note_on_c, 9, 42, 44
11, 42096, Note_on_c, 9, 45, 82
11, 42096, Note_on_c, 9, 54, 44
11, 42096, Note_on_c, 9, 63, 45
11, 42100, Note_on_c, 9, 42, 0
11, 42100, Note_on_c, 9, 45, 0
11, 42100, Note_on_c, 9, 54, 0
11, 42100, Note_on_c, 9, 63, 0
11, 42144, Note_on_c, 9, 31, 48
11, 42144, Note_on_c, 9, 40, 115
11, 42144, Note_on_c, 9, 42, 76
11, 42144, Note_on_c, 9, 54, 24
11, 42148, Note_on_c, 9, 31, 0
11, 42148, Note_on_c, 9, 40, 0
11, 42148, Note_on_c, 9, 42, 0
11, 42148, Note_on_c, 9, 54, 0
11, 42192, Note_on_c, 9, 35, 88
11, 42192, Note_on_c, 9, 43, 69
11, 42192, Note_on_c, 9, 46, 62
11, 42192, Note_on_c, 9, 63, 69
11, 42196, Note_on_c, 9, 35, 0
11, 42196, Note_on_c, 9, 43, 0
11, 42196, Note_on_c, 9, 46, 0
11, 42196, Note_on_c, 9, 63, 0
11, 42240, Note_on_c, 9, 31, 51
11, 42240, Note_on_c, 9, 35, 108
11, 42240, Note_on_c, 9, 49, 62
11, 42244, Note_on_c, 9, 31, 0
11, 42244, Note_on_c, 9, 35, 0
11, 42244, Note_on_c, 9, 49, 0
11, 42336, Note_on_c, 9, 31, 49
11, 42336, Note_on_c, 9, 42, 73
11, 42340, Note_on_c, 9, 31, 0
11, 42340, Note_on_c, 9, 42, 0
11, 42384, Note_on_c, 9, 35, 110
11, 42388, Note_on_c, 9, 35, 0
11, 42432, Note_on_c, 9, 31, 51
11, 42432, Note_on_c, 9, 40, 115
11, 42432, Note_on_c, 9, 42, 74
11, 42436, Note_on_c, 9, 31, 0
11, 42436, Note_on_c, 9, 40, 0
11, 42436, Note_on_c, 9, 42, 0
11, 42528, Note_on_c, 9, 31, 50
11, 42528, Note_on_c, 9, 35, 103
11, 42528, Note_on_c, 9, 42, 74
11, 42532, Note_on_c, 9, 31, 0
11, 42532, Note_on_c, 9, 35, 0
11, 42532, Note_on_c, 9, 42, 0
11, 42624, Note_on_c, 9, 31, 51
11, 42624, Note_on_c, 9, 42, 73
11, 42628, Note_on_c, 9, 31, 0
11, 42628, Note_on_c, 9, 42, 0
11, 42720, Note_on_c, 9, 31, 48
11, 42720, Note_on_c, 9, 42, 70
11, 42724, Note_on_c, 9, 31, 0
11, 42724, Note_on_c, 9, 42, 0
11, 42816, Note_on_c, 9, 31, 51
11, 42816, Note_on_c, 9, 40, 115
11, 42816, Note_on_c, 9, 42, 71
11, 42820, Note_on_c, 9, 31, 0
11, 42820, Note_on_c, 9, 40, 0
11, 42820, Note_on_c, 9, 42, 0
11, 42912, Note_on_c, 9, 31, 48
11, 42912, Note_on_c, 9, 42, 65
11, 42916, Note_on_c, 9, 31, 0
11, 42916, Note_on_c, 9, 42, 0
11, 42960, Note_on_c, 9, 35, 88
11, 42964, Note_on_c, 9, 35, 0
11, 43008, Note_on_c, 9, 31, 51
11, 43008, Note_on_c, 9, 35, 108
11, 43008, Note_on_c, 9, 42, 66
11, 43012, Note_on_c, 9, 31, 0
11, 43012, Note_on_c, 9, 35, 0
11, 43012, Note_on_c, 9, 42, 0
11, 43104, Note_on_c, 9, 31, 49
11, 43104, Note_on_c, 9, 42, 73
11, 43108, Note_on_c, 9, 31, 0
11, 43108, Note_on_c, 9, 42, 0
11, 43152, Note_on_c, 9, 35, 110
11, 43156, Note_on_c, 9, 35, 0
11, 43200, Note_on_c, 9, 31, 51
11, 43200, Note_on_c, 9, 40, 115
11, 43200, Note_on_c, 9, 42, 70
11, 43204, Note_on_c, 9, 31, 0
11, 43204, Note_on_c, 9, 40, 0
11, 43204, Note_on_c, 9, 42, 0
11, 43296, Note_on_c, 9, 31, 50
11, 43296, Note_on_c, 9, 35, 103
11, 43296, Note_on_c, 9, 42, 71
11, 43300, Note_on_c, 9, 31, 0
11, 43300, Note_on_c, 9, 35, 0
11, 43300, Note_on_c, 9, 42, 0
11, 43392, Note_on_c, 9, 31, 51
11, 43392, Note_on_c, 9, 42, 70
11, 43396, Note_on_c, 9, 31, 0
11, 43396, Note_on_c, 9, 42, 0
11, 43488, Note_on_c, 9, 31, 48
11, 43488, Note_on_c, 9, 42, 68
11, 43492, Note_on_c, 9, 31, 0
11, 43492, Note_on_c, 9, 42, 0
11, 43584, Note_on_c, 9, 31, 51
11, 43584, Note_on_c, 9, 40, 115
11, 43584, Note_on_c, 9, 42, 70
11, 43588, Note_on_c, 9, 31, 0
11, 43588, Note_on_c, 9, 40, 0
11, 43588, Note_on_c, 9, 42, 0
11, 43680, Note_on_c, 9, 31, 48
11, 43680, Note_on_c, 9, 42, 72
11, 43684, Note_on_c, 9, 31, 0
11, 43684, Note_on_c, 9, 42, 0
11, 43728, Note_on_c, 9, 35, 88
11, 43732, Note_on_c, 9, 35, 0
11, 43776, Note_on_c, 9, 31, 51
11, 43776, Note_on_c, 9, 35, 108
11, 43776, Note_on_c, 9, 42, 68
11, 43780, Note_on_c, 9, 31, 0
11, 43780, Note_on_c, 9, 35, 0
11, 43780, Note_on_c, 9, 42, 0
11, 43872, Note_on_c, 9, 31, 49
11, 43872, Note_on_c, 9, 42, 71
11, 43876, Note_on_c, 9, 31, 0
11, 43876, Note_on_c, 9, 42, 0
11, 43920, Note_on_c, 9, 35, 110
11, 43924, Note_on_c, 9, 35, 0
11, 43968, Note_on_c, 9, 31, 51
11, 43968, Note_on_c, 9, 40, 115
11, 43968, Note_on_c, 9, 42, 72
11, 43972, Note_on_c, 9, 31, 0
11, 43972, Note_on_c, 9, 40, 0
11, 43972, Note_on_c, 9, 42, 0
11, 44064, Note_on_c, 9, 31, 50
11, 44064, Note_on_c, 9, 35, 103
11, 44064, Note_on_c, 9, 42, 68
11, 44068, Note_on_c, 9, 31, 0
11, 44068, Note_on_c, 9, 35, 0
11, 44068, Note_on_c, 9, 42, 0
11, 44160, Note_on_c, 9, 31, 51
11, 44160, Note_on_c, 9, 42, 68
11, 44164, Note_on_c, 9, 31, 0
11, 44164, Note_on_c, 9, 42, 0
11, 44256, Note_on_c, 9, 31, 48
11, 44256, Note_on_c, 9, 42, 65
11, 44260, Note_on_c, 9, 31, 0
11, 44260, Note_on_c, 9, 42, 0
11, 44352, Note_on_c, 9, 31, 51
11, 44352, Note_on_c, 9, 40, 115
11, 44352, Note_on_c, 9, 42, 68
11, 44356, Note_on_c, 9, 31, 0
11, 44356, Note_on_c, 9, 40, 0
11, 44356, Note_on_c, 9, 42, 0
11, 44448, Note_on_c, 9, 31, 48
11, 44448, Note_on_c, 9, 42, 69
11, 44452, Note_on_c, 9, 31, 0
11, 44452, Note_on_c, 9, 42, 0
11, 44496, Note_on_c, 9, 35, 88
11, 44500, Note_on_c, 9, 35, 0
11, 44544, Note_on_c, 9, 31, 51
11, 44544, Note_on_c, 9, 35, 108
11, 44544, Note_on_c, 9, 42, 66
11, 44548, Note_on_c, 9, 31, 0
11, 44548, Note_on_c, 9, 35, 0
11, 44548, Note_on_c, 9, 42, 0
11, 44640, Note_on_c, 9, 31, 49
11, 44640, Note_on_c, 9, 42, 68
11, 44644, Note_on_c, 9, 31, 0
11, 44644, Note_on_c, 9, 42, 0
11, 44688, Note_on_c, 9, 35, 110
11, 44692, Note_on_c, 9, 35, 0
11, 44736, Note_on_c, 9, 31, 51
11, 44736, Note_on_c, 9, 40, 115
11, 44736, Note_on_c, 9, 42, 69
11, 44740, Note_on_c, 9, 31, 0
11, 44740, Note_on_c, 9, 40, 0
11, 44740, Note_on_c, 9, 42, 0
11, 45120, Note_on_c, 9, 40, 115
11, 45124, Note_on_c, 9, 40, 0
11, 45216, Note_on_c, 9, 40, 115
11, 45220, Note_on_c, 9, 40, 0
11, 45312, Note_on_c, 9, 31, 51
11, 45312, Note_on_c, 9, 35, 108
11, 45312, Note_on_c, 9, 57, 58
11, 45316, Note_on_c, 9, 31, 0
11, 45316, Note_on_c, 9, 35, 0
11, 45316, Note_on_c, 9, 57, 0
11, 45360, Note_on_c, 9, 42, 49
11, 45364, Note_on_c, 9, 42, 0
11, 45408, Note_on_c, 9, 31, 49
11, 45408, Note_on_c, 9, 42, 79
11, 45412, Note_on_c, 9, 31, 0
11, 45412, Note_on_c, 9, 42, 0
11, 45456, Note_on_c, 9, 35, 110
11, 45456, Note_on_c, 9, 42, 49
11, 45460, Note_on_c, 9, 35, 0
11, 45460, Note_on_c, 9, 42, 0
11, 45504, Note_on_c, 9, 31, 51
11, 45504, Note_on_c, 9, 40, 115
11, 45504, Note_on_c, 9, 42, 80
11, 45508, Note_on_c, 9, 31, 0
11, 45508, Note_on_c, 9, 40, 0
11, 45508, Note_on_c, 9, 42, 0
11, 45552, Note_on_c, 9, 42, 50
11, 45556, Note_on_c, 9, 42, 0
11, 45600, Note_on_c, 9, 31, 50
11, 45600, Note_on_c, 9, 35, 103
11, 45600, Note_on_c, 9, 42, 80
11, 45604, Note_on_c, 9, 31, 0
11, 45604, Note_on_c, 9, 35, 0
11, 45604, Note_on_c, 9, 42, 0
11, 45648, Note_on_c, 9, 42, 50
11, 45652, Note_on_c, 9, 42, 0
11, 45696, Note_on_c, 9, 31, 51
11, 45696, Note_on_c, 9, 42, 79
11, 45700, Note_on_c, 9, 31, 0
11, 45700, Note_on_c, 9, 42, 0
11, 45744, Note_on_c, 9, 42, 49
11, 45748, Note_on_c, 9, 42, 0
11, 45792, Note_on_c, 9, 31, 48
11, 45792, Note_on_c, 9, 42, 76
11, 45792, Note_on_c, 9, 62, 125
11, 45796, Note_on_c, 9, 31, 0
11, 45796, Note_on_c, 9, 42, 0
11, 45796, Note_on_c, 9, 62, 0
11, 45840, Note_on_c, 9, 42, 46
11, 45844, Note_on_c, 9, 42, 0
11, 45888, Note_on_c, 9, 31, 51
11, 45888, Note_on_c, 9, 40, 115
11, 45888, Note_on_c, 9, 42, 77
11, 45888, Note_on_c, 9, 54, 98
11, 45892, Note_on_c, 9, 31, 0
11, 45892, Note_on_c, 9, 40, 0
11, 45892, Note_on_c, 9, 42, 0
11, 45892, Note_on_c, 9, 54, 0
11, 45936, Note_on_c, 9, 42, 47
11, 45936, Note_on_c, 9, 54, 57
11, 45940, Note_on_c, 9, 42, 0
11, 45940, Note_on_c, 9, 54, 0
11, 45984, Note_on_c, 9, 31, 48
11, 45984, Note_on_c, 9, 42, 71
11, 45984, Note_on_c, 9, 54, 37
11, 45984, Note_on_c, 9, 62, 121
11, 45988, Note_on_c, 9, 31, 0
11, 45988, Note_on_c, 9, 42, 0
11, 45988, Note_on_c, 9, 54, 0
11, 45988, Note_on_c, 9, 62, 0
11, 46032, Note_on_c, 9, 35, 88
11, 46032, Note_on_c, 9, 46, 67
11, 46036, Note_on_c, 9, 35, 0
11, 46036, Note_on_c, 9, 46, 0
11, 46080, Note_on_c, 9, 31, 51
11, 46080, Note_on_c, 9, 35, 108
11, 46080, Note_on_c, 9, 42, 72
11, 46084, Note_on_c, 9, 31, 0
11, 46084, Note_on_c, 9, 35, 0
11, 46084, Note_on_c, 9, 42, 0
11, 46128, Note_on_c, 9, 42, 42
11, 46132, Note_on_c, 9, 42, 0
11, 46176, Note_on_c, 9, 31, 49
11, 46176, Note_on_c, 9, 42, 79
11, 46180, Note_on_c, 9, 31, 0
11, 46180, Note_on_c, 9, 42, 0
11, 46224, Note_on_c, 9, 35, 110
11, 46224, Note_on_c, 9, 42, 49
11, 46228, Note_on_c, 9, 35, 0
11, 46228, Note_on_c, 9, 42, 0
11, 46272, Note_on_c, 9, 31, 51
11, 46272, Note_on_c, 9, 40, 115
11, 46272, Note_on_c, 9, 42, 76
11, 46276, Note_on_c, 9, 31, 0
11, 46276, Note_on_c, 9, 40, 0
11, 46276, Note_on_c, 9, 42, 0
11, 46320, Note_on_c, 9, 42, 46
11, 46324, Note_on_c, 9, 42, 0
11, 46368, Note_on_c, 9, 31, 50
11, 46368, Note_on_c, 9, 35, 103
11, 46368, Note_on_c, 9, 42, 77
11, 46372, Note_on_c, 9, 31, 0
11, 46372, Note_on_c, 9, 35, 0
11, 46372, Note_on_c, 9, 42, 0
11, 46416, Note_on_c, 9, 42, 47
11, 46416, Note_on_c, 9, 63, 41
11, 46420, Note_on_c, 9, 42, 0
11, 46420, Note_on_c, 9, 63, 0
11, 46464, Note_on_c, 9, 31, 51
11, 46464, Note_on_c, 9, 42, 76
11, 46464, Note_on_c, 9, 62, 117
11, 46468, Note_on_c, 9, 31, 0
11, 46468, Note_on_c, 9, 42, 0
11, 46468, Note_on_c, 9, 62, 0
11, 46512, Note_on_c, 9, 42, 46
11, 46516, Note_on_c, 9, 42, 0
11, 46560, Note_on_c, 9, 31, 48
11, 46560, Note_on_c, 9, 42, 74
11, 46560, Note_on_c, 9, 63, 65
11, 46564, Note_on_c, 9, 31, 0
11, 46564, Note_on_c, 9, 42, 0
11, 46564, Note_on_c, 9, 63, 0
11, 46608, Note_on_c, 9, 42, 44
11, 46608, Note_on_c, 9, 63, 117
11, 46612, Note_on_c, 9, 42, 0
11, 46612, Note_on_c, 9, 63, 0
11, 46656, Note_on_c, 9, 31, 51
11, 46656, Note_on_c, 9, 40, 115
11, 46656, Note_on_c, 9, 42, 76
11, 46656, Note_on_c, 9, 54, 95
11, 46656, Note_on_c, 9, 62, 121
11, 46660, Note_on_c, 9, 31, 0
11, 46660, Note_on_c, 9, 40, 0
11, 46660, Note_on_c, 9, 42, 0
11, 46660, Note_on_c, 9, 54, 0
11, 46660, Note_on_c, 9, 62, 0
11, 46704, Note_on_c, 9, 42, 46
11, 46704, Note_on_c, 9, 54, 58
11, 46708, Note_on_c, 9, 42, 0
11, 46708, Note_on_c, 9, 54, 0
11, 46752, Note_on_c, 9, 31, 48
11, 46752, Note_on_c, 9, 42, 78
11, 46752, Note_on_c, 9, 54, 42
11, 46752, Note_on_c, 9, 63, 77
11, 46756, Note_on_c, 9, 31, 0
11, 46756, Note_on_c, 9, 42, 0
11, 46756, Note_on_c, 9, 54, 0
11, 46756, Note_on_c, 9, 63, 0
11, 46800, Note_on_c, 9, 35, 88
11, 46800, Note_on_c, 9, 46, 64
11, 46800, Note_on_c, 9, 64, 93
11, 46804, Note_on_c, 9, 35, 0
11, 46804, Note_on_c, 9, 46, 0
11, 46804, Note_on_c, 9, 64, 0
11, 46848, Note_on_c, 9, 31, 51
11, 46848, Note_on_c, 9, 35, 108
11, 46848, Note_on_c, 9, 42, 74
11, 46852, Note_on_c, 9, 31, 0
11, 46852, Note_on_c, 9, 35, 0
11, 46852, Note_on_c, 9, 42, 0
11, 46896, Note_on_c, 9, 42, 44
11, 46900, Note_on_c, 9, 42, 0
11, 46944, Note_on_c, 9, 31, 49
11, 46944, Note_on_c, 9, 42, 77
11, 46948, Note_on_c, 9, 31, 0
11, 46948, Note_on_c, 9, 42, 0
11, 46992, Note_on_c, 9, 35, 110
11, 46992, Note_on_c, 9, 42, 47
11, 46992, Note_on_c, 9, 63, 69
11, 46996, Note_on_c, 9, 35, 0
11, 46996, Note_on_c, 9, 42, 0
11, 46996, Note_on_c, 9, 63, 0
11, 47040, Note_on_c, 9, 31, 51
11, 47040, Note_on_c, 9, 40, 115
11, 47040, Note_on_c, 9, 42, 78
11, 47040, Note_on_c, 9, 62, 113
11, 47044, Note_on_c, 9, 31, 0
11, 47044, Note_on_c, 9, 40, 0
11, 47044, Note_on_c, 9, 42, 0
11, 47044, Note_on_c, 9, 62, 0
11, 47088, Note_on_c, 9, 42, 48
11, 47092, Note_on_c, 9, 42, 0
11, 47136, Note_on_c, 9, 31, 50
11, 47136, Note_on_c, 9, 35, 103
11, 47136, Note_on_c, 9, 42, 74
11, 47140, Note_on_c, 9, 31, 0
11, 47140, Note_on_c, 9, 35, 0
11, 47140, Note_on_c, 9, 42, 0
11, 47184, Note_on_c, 9, 42, 44
11, 47184, Note_on_c, 9, 63, 65
11, 47188, Note_on_c, 9, 42, 0
11, 47188, Note_on_c, 9, 63, 0
11, 47232, Note_on_c, 9, 31, 51
11, 47232, Note_on_c, 9, 42, 74
11, 47236, Note_on_c, 9, 31, 0
11, 47236, Note_on_c, 9, 42, 0
11, 47280, Note_on_c, 9, 42, 44
11, 47280, Note_on_c, 9, 63, 81
11, 47284, Note_on_c, 9, 42, 0
11, 47284, Note_on_c, 9, 63, 0
11, 47328, Note_on_c, 9, 31, 48
11, 47328, Note_on_c, 9, 42, 71
11, 47332, Note_on_c, 9, 31, 0
11, 47332, Note_on_c, 9, 42, 0
11, 47376, Note_on_c, 9, 42, 41
11, 47376, Note_on_c, 9, 63, 93
11, 47380, Note_on_c, 9, 42, 0
11, 47380, Note_on_c, 9, 63, 0
11, 47424, Note_on_c, 9, 31, 51
11, 47424, Note_on_c, 9, 40, 115
11, 47424, Note_on_c, 9, 42, 74
11, 47424, Note_on_c, 9, 54, 95
11, 47428, Note_on_c, 9, 31, 0
11, 47428, Note_on_c, 9, 40, 0
11, 47428, Note_on_c, 9, 42, 0
11, 47428, Note_on_c, 9, 54, 0
11, 47472, Note_on_c, 9, 42, 44
11, 47472, Note_on_c, 9, 54, 56
11, 47472, Note_on_c, 9, 63, 65
11, 47476, Note_on_c, 9, 42, 0
11, 47476, Note_on_c, 9, 54, 0
11, 47476, Note_on_c, 9, 63, 0
11, 47520, Note_on_c, 9, 31, 48
11, 47520, Note_on_c, 9, 42, 75
11, 47520, Note_on_c, 9, 54, 45
11, 47520, Note_on_c, 9, 62, 113
11, 47524, Note_on_c, 9, 31, 0
11, 47524, Note_on_c, 9, 42, 0
11, 47524, Note_on_c, 9, 54, 0
11, 47524, Note_on_c, 9, 62, 0
11, 47568, Note_on_c, 9, 35, 88
11, 47568, Note_on_c, 9, 46, 60
11, 47568, Note_on_c, 9, 63, 73
11, 47572, Note_on_c, 9, 35, 0
11, 47572, Note_on_c, 9, 46, 0
11, 47572, Note_on_c, 9, 63, 0
11, 47616, Note_on_c, 9, 31, 51
11, 47616, Note_on_c, 9, 35, 108
11, 47616, Note_on_c, 9, 42, 72
11, 47616, Note_on_c, 9, 64, 65
11, 47620, Note_on_c, 9, 31, 0
11, 47620, Note_on_c, 9, 35, 0
11, 47620, Note_on_c, 9, 42, 0
11, 47620, Note_on_c, 9, 64, 0
11, 47664, Note_on_c, 9, 42, 42
11, 47668, Note_on_c, 9, 42, 0
11, 47712, Note_on_c, 9, 31, 49
11, 47712, Note_on_c, 9, 42, 74
11, 47716, Note_on_c, 9, 31, 0
11, 47716, Note_on_c, 9, 42, 0
11, 47760, Note_on_c, 9, 35, 110
11, 47760, Note_on_c, 9, 42, 44
11, 47760, Note_on_c, 9, 63, 73
11, 47764, Note_on_c, 9, 35, 0
11, 47764, Note_on_c, 9, 42, 0
11, 47764, Note_on_c, 9, 63, 0
11, 47808, Note_on_c, 9, 31, 51
11, 47808, Note_on_c, 9, 40, 115
11, 47808, Note_on_c, 9, 42, 75
11, 47808, Note_on_c, 9, 62, 113
11, 47812, Note_on_c, 9, 31, 0
11, 47812, Note_on_c, 9, 40, 0
11, 47812, Note_on_c, 9, 42, 0
11, 47812, Note_on_c, 9, 62, 0
11, 47856, Note_on_c, 9, 42, 45
11, 47860, Note_on_c, 9, 42, 0
11, 47904, Note_on_c, 9, 31, 50
11, 47904, Note_on_c, 9, 35, 103
11, 47904, Note_on_c, 9, 42, 72
11, 47904, Note_on_c, 9, 63, 45
11, 47908, Note_on_c, 9, 31, 0
11, 47908, Note_on_c, 9, 35, 0
11, 47908, Note_on_c, 9, 42, 0
11, 47908, Note_on_c, 9, 63, 0
11, 47952, Note_on_c, 9, 42, 42
11, 47952, Note_on_c, 9, 63, 61
11, 47956, Note_on_c, 9, 42, 0
11, 47956, Note_on_c, 9, 63, 0
11, 48000, Note_on_c, 9, 31, 51
11, 48000, Note_on_c, 9, 42, 75
11, 48000, Note_on_c, 9, 75, 80
11, 48004, Note_on_c, 9, 31, 0
11, 48004, Note_on_c, 9, 42, 0
11, 48004, Note_on_c, 9, 75, 0
11, 48048, Note_on_c, 9, 42, 45
11, 48048, Note_on_c, 9, 63, 73
11, 48052, Note_on_c, 9, 42, 0
11, 48052, Note_on_c, 9, 63, 0
11, 48096, Note_on_c, 9, 31, 48
11, 48096, Note_on_c, 9, 42, 74
11, 48096, Note_on_c, 9, 62, 113
11, 48100, Note_on_c, 9, 31, 0
11, 48100, Note_on_c, 9, 42, 0
11, 48100, Note_on_c, 9, 62, 0
11, 48144, Note_on_c, 9, 46, 44
11, 48144, Note_on_c, 9, 63, 65
11, 48144, Note_on_c, 9, 75, 74
11, 48148, Note_on_c, 9, 46, 0
11, 48148, Note_on_c, 9, 63, 0
11, 48148, Note_on_c, 9, 75, 0
11, 48192, Note_on_c, 9, 31, 51
11, 48192, Note_on_c, 9, 40, 115
11, 48192, Note_on_c, 9, 54, 88
11, 48192, Note_on_c, 9, 63, 77
11, 48196, Note_on_c, 9, 31, 0
11, 48196, Note_on_c, 9, 40, 0
11, 48196, Note_on_c, 9, 54, 0
11, 48196, Note_on_c, 9, 63, 0
11, 48240, Note_on_c, 9, 45, 100
11, 48240, Note_on_c, 9, 54, 44
11, 48240, Note_on_c, 9, 63, 69
11, 48244, Note_on_c, 9, 45, 0
11, 48244, Note_on_c, 9, 54, 0
11, 48244, Note_on_c, 9, 63, 0
11, 48288, Note_on_c, 9, 31, 48
11, 48288, Note_on_c, 9, 43, 87
11, 48288, Note_on_c, 9, 54, 24
11, 48288, Note_on_c, 9, 62, 117
11, 48292, Note_on_c, 9, 31, 0
11, 48292, Note_on_c, 9, 43, 0
11, 48292, Note_on_c, 9, 54, 0
11, 48292, Note_on_c, 9, 62, 0
11, 48336, Note_on_c, 9, 35, 72
11, 48340, Note_on_c, 9, 35, 0
11, 48384, Note_on_c, 9, 31, 51
11, 48384, Note_on_c, 9, 35, 108
11, 48384, Note_on_c, 9, 49, 64
11, 48388, Note_on_c, 9, 31, 0
11, 48388, Note_on_c, 9, 35, 0
11, 48388, Note_on_c, 9, 49, 0
11, 48432, Note_on_c, 9, 42, 49
11, 48436, Note_on_c, 9, 42, 0
11, 48480, Note_on_c, 9, 31, 49
11, 48480, Note_on_c, 9, 42, 79
11, 48480, Note_on_c, 9, 62, 77
11, 48484, Note_on_c, 9, 31, 0
11, 48484, Note_on_c, 9, 42, 0
11, 48484, Note_on_c, 9, 62, 0
11, 48528, Note_on_c, 9, 35, 110
11, 48528, Note_on_c, 9, 42, 49
11, 48532, Note_on_c, 9, 35, 0
11, 48532, Note_on_c, 9, 42, 0
11, 48576, Note_on_c, 9, 31, 51
11, 48576, Note_on_c, 9, 40, 115
11, 48576, Note_on_c, 9, 42, 80
11, 48580, Note_on_c, 9, 31, 0
11, 48580, Note_on_c, 9, 40, 0
11, 48580, Note_on_c, 9, 42, 0
11, 48624, Note_on_c, 9, 42, 50
11, 48628, Note_on_c, 9, 42, 0
11, 48672, Note_on_c, 9, 31, 50
11, 48672, Note_on_c, 9, 35, 103
11, 48672, Note_on_c, 9, 42, 80
11, 48672, Note_on_c, 9, 62, 101
11, 48676, Note_on_c, 9, 31, 0
11, 48676, Note_on_c, 9, 35, 0
11, 48676, Note_on_c, 9, 42, 0
11, 48676, Note_on_c, 9, 62, 0
11, 48720, Note_on_c, 9, 42, 50
11, 48720, Note_on_c, 9, 63, 77
11, 48724, Note_on_c, 9, 42, 0
11, 48724, Note_on_c, 9, 63, 0
11, 48768, Note_on_c, 9, 31, 51
11, 48768, Note_on_c, 9, 42, 79
11, 48772, Note_on_c, 9, 31, 0
11, 48772, Note_on_c, 9, 42, 0
11, 48816, Note_on_c, 9, 42, 49
11, 48816, Note_on_c, 9, 62, 73
11, 48820, Note_on_c, 9, 42, 0
11, 48820, Note_on_c, 9, 62, 0
11, 48864, Note_on_c, 9, 31, 48
11, 48864, Note_on_c, 9, 42, 76
11, 48864, Note_on_c, 9, 62, 57
11, 48868, Note_on_c, 9, 31, 0
11, 48868, Note_on_c, 9, 42, 0
11, 48868, Note_on_c, 9, 62, 0
11, 48912, Note_on_c, 9, 42, 46
11, 48912, Note_on_c, 9, 62, 61
11, 48916, Note_on_c, 9, 42, 0
11, 48916, Note_on_c, 9, 62, 0
11, 48960, Note_on_c, 9, 31, 51
11, 48960, Note_on_c, 9, 40, 115
11, 48960, Note_on_c, 9, 42, 77
11, 48960, Note_on_c, 9, 54, 98
11, 48960, Note_on_c, 9, 62, 97
11, 48964, Note_on_c, 9, 31, 0
11, 48964, Note_on_c, 9, 40, 0
11, 48964, Note_on_c, 9, 42, 0
11, 48964, Note_on_c, 9, 54, 0
11, 48964, Note_on_c, 9, 62, 0
11, 49008, Note_on_c, 9, 42, 47
11, 49008, Note_on_c, 9, 54, 57
11, 49008, Note_on_c, 9, 63, 81
11, 49012, Note_on_c, 9, 42, 0
11, 49012, Note_on_c, 9, 54, 0
11, 49012, Note_on_c, 9, 63, 0
11, 49056, Note_on_c, 9, 31, 48
11, 49056, Note_on_c, 9, 42, 71
11, 49056, Note_on_c, 9, 54, 37
11, 49056, Note_on_c, 9, 62, 61
11, 49060, Note_on_c, 9, 31, 0
11, 49060, Note_on_c, 9, 42, 0
11, 49060, Note_on_c, 9, 54, 0
11, 49060, Note_on_c, 9, 62, 0
11, 49104, Note_on_c, 9, 35, 88
11, 49104, Note_on_c, 9, 46, 67
11, 49108, Note_on_c, 9, 35, 0
11, 49108, Note_on_c, 9, 46, 0
11, 49152, Note_on_c, 9, 31, 51
11, 49152, Note_on_c, 9, 35, 108
11, 49152, Note_on_c, 9, 42, 72
11, 49152, Note_on_c, 9, 62, 85
11, 49156, Note_on_c, 9, 31, 0
11, 49156, Note_on_c, 9, 35, 0
11, 49156, Note_on_c, 9, 42, 0
11, 49156, Note_on_c, 9, 62, 0
11, 49200, Note_on_c, 9, 42, 42
11, 49204, Note_on_c, 9, 42, 0
11, 49248, Note_on_c, 9, 31, 49
11, 49248, Note_on_c, 9, 42, 79
11, 49252, Note_on_c, 9, 31, 0
11, 49252, Note_on_c, 9, 42, 0
11, 49296, Note_on_c, 9, 35, 110
11, 49296, Note_on_c, 9, 42, 49
11, 49300, Note_on_c, 9, 35, 0
11, 49300, Note_on_c, 9, 42, 0
11, 49344, Note_on_c, 9, 31, 51
11, 49344, Note_on_c, 9, 40, 115
11, 49344, Note_on_c, 9, 42, 76
11, 49348, Note_on_c, 9, 31, 0
11, 49348, Note_on_c, 9, 40, 0
11, 49348, Note_on_c, 9, 42, 0
11, 49392, Note_on_c, 9, 42, 46
11, 49396, Note_on_c, 9, 42, 0
11, 49440, Note_on_c, 9, 31, 50
11, 49440, Note_on_c, 9, 35, 103
11, 49440, Note_on_c, 9, 42, 77
11, 49444, Note_on_c, 9, 31, 0
11, 49444, Note_on_c, 9, 35, 0
11, 49444, Note_on_c, 9, 42, 0
11, 49488, Note_on_c, 9, 42, 47
11, 49488, Note_on_c, 9, 62, 101
11, 49492, Note_on_c, 9, 42, 0
11, 49492, Note_on_c, 9, 62, 0
11, 49536, Note_on_c, 9, 31, 51
11, 49536, Note_on_c, 9, 42, 76
11, 49540, Note_on_c, 9, 31, 0
11, 49540, Note_on_c, 9, 42, 0
11, 49584, Note_on_c, 9, 42, 46
11, 49584, Note_on_c, 9, 62, 81
11, 49588, Note_on_c, 9, 42, 0
11, 49588, Note_on_c, 9, 62, 0
11, 49632, Note_on_c, 9, 31, 48
11, 49632, Note_on_c, 9, 42, 74
11, 49636, Note_on_c, 9, 31, 0
11, 49636, Note_on_c, 9, 42, 0
11, 49680, Note_on_c, 9, 42, 44
11, 49680, Note_on_c, 9, 63, 85
11, 49684, Note_on_c, 9, 42, 0
11, 49684, Note_on_c, 9, 63, 0
11, 49728, Note_on_c, 9, 31, 51
11, 49728, Note_on_c, 9, 40, 115
11, 49728, Note_on_c, 9, 42, 76
11, 49728, Note_on_c, 9, 54, 95
11, 49728, Note_on_c, 9, 64, 101
11, 49732, Note_on_c, 9, 31, 0
11, 49732, Note_on_c, 9, 40, 0
11, 49732, Note_on_c, 9, 42, 0
11, 49732, Note_on_c, 9, 54, 0
11, 49732, Note_on_c, 9, 64, 0
11, 49776, Note_on_c, 9, 42, 46
11, 49776, Note_on_c, 9, 54, 58
11, 49776, Note_on_c, 9, 63, 57
11, 49780, Note_on_c, 9, 42, 0
11, 49780, Note_on_c, 9, 54, 0
11, 49780, Note_on_c, 9, 63, 0
11, 49824, Note_on_c, 9, 31, 48
11, 49824, Note_on_c, 9, 42, 78
11, 49824, Note_on_c, 9, 54, 42
11, 49824, Note_on_c, 9, 62, 121
11, 49828, Note_on_c, 9, 31, 0
11, 49828, Note_on_c, 9, 42, 0
11, 49828, Note_on_c, 9, 54, 0
11, 49828, Note_on_c, 9, 62, 0
11, 49872, Note_on_c, 9, 35, 88
11, 49872, Note_on_c, 9, 46, 64
11, 49876, Note_on_c, 9, 35, 0
11, 49876, Note_on_c, 9, 46, 0
11, 49920, Note_on_c, 9, 31, 51
11, 49920, Note_on_c, 9, 35, 108
11, 49920, Note_on_c, 9, 42, 74
11, 49920, Note_on_c, 9, 62, 113
11, 49924, Note_on_c, 9, 31, 0
11, 49924, Note_on_c, 9, 35, 0
11, 49924, Note_on_c, 9, 42, 0
11, 49924, Note_on_c, 9, 62, 0
11, 49968, Note_on_c, 9, 42, 44
11, 49972, Note_on_c, 9, 42, 0
11, 50016, Note_on_c, 9, 31, 49
11, 50016, Note_on_c, 9, 42, 77
11, 50016, Note_on_c, 9, 63, 69
11, 50020, Note_on_c, 9, 31, 0
11, 50020, Note_on_c, 9, 42, 0
11, 50020, Note_on_c, 9, 63, 0
11, 50064, Note_on_c, 9, 35, 110
11, 50064, Note_on_c, 9, 42, 47
11, 50064, Note_on_c, 9, 62, 97
11, 50068, Note_on_c, 9, 35, 0
11, 50068, Note_on_c, 9, 42, 0
11, 50068, Note_on_c, 9, 62, 0
11, 50112, Note_on_c, 9, 31, 51
11, 50112, Note_on_c, 9, 40, 115
11, 50112, Note_on_c, 9, 42, 78
11, 50112, Note_on_c, 9, 62, 121
11, 50116, Note_on_c, 9, 31, 0
11, 50116, Note_on_c, 9, 40, 0
11, 50116, Note_on_c, 9, 42, 0
11, 50116, Note_on_c, 9, 62, 0
11, 50160, Note_on_c, 9, 42, 48
11, 50164, Note_on_c, 9, 42, 0
11, 50208, Note_on_c, 9, 31, 50
11, 50208, Note_on_c, 9, 35, 103
11, 50208, Note_on_c, 9, 42, 74
11, 50208, Note_on_c, 9, 63, 45
11, 50212, Note_on_c, 9, 31, 0
11, 50212, Note_on_c, 9, 35, 0
11, 50212, Note_on_c, 9, 42, 0
11, 50212, Note_on_c, 9, 63, 0
11, 50256, Note_on_c, 9, 42, 44
11, 50256, Note_on_c, 9, 64, 81
11, 50260, Note_on_c, 9, 42, 0
11, 50260, Note_on_c, 9, 64, 0
11, 50304, Note_on_c, 9, 31, 51
11, 50304, Note_on_c, 9, 42, 74
11, 50308, Note_on_c, 9, 31, 0
11, 50308, Note_on_c, 9, 42, 0
11, 50352, Note_on_c, 9, 42, 44
11, 50352, Note_on_c, 9, 64, 69
11, 50356, Note_on_c, 9, 42, 0
11, 50356, Note_on_c, 9, 64, 0
11, 50400, Note_on_c, 9, 31, 48
11, 50400, Note_on_c, 9, 42, 71
11, 50400, Note_on_c, 9, 63, 81
11, 50404, Note_on_c, 9, 31, 0
11, 50404, Note_on_c, 9, 42, 0
11, 50404, Note_on_c, 9, 63, 0
11, 50448, Note_on_c, 9, 42, 41
11, 50448, Note_on_c, 9, 62, 61
11, 50452, Note_on_c, 9, 42, 0
11, 50452, Note_on_c, 9, 62, 0
11, 50496, Note_on_c, 9, 31, 51
11, 50496, Note_on_c, 9, 40, 115
11, 50496, Note_on_c, 9, 42, 74
11, 50496, Note_on_c, 9, 54, 95
11, 50496, Note_on_c, 9, 62, 113
11, 50500, Note_on_c, 9, 31, 0
11, 50500, Note_on_c, 9, 40, 0
11, 50500, Note_on_c, 9, 42, 0
11, 50500, Note_on_c, 9, 54, 0
11, 50500, Note_on_c, 9, 62, 0
11, 50544, Note_on_c, 9, 42, 44
11, 50544, Note_on_c, 9, 54, 56
11, 50548, Note_on_c, 9, 42, 0
11, 50548, Note_on_c, 9, 54, 0
11, 50592, Note_on_c, 9, 31, 48
11, 50592, Note_on_c, 9, 42, 75
11, 50592, Note_on_c, 9, 54, 45
11, 50592, Note_on_c, 9, 63, 73
11, 50596, Note_on_c, 9, 31, 0
11, 50596, Note_on_c, 9, 42, 0
11, 50596, Note_on_c, 9, 54, 0
11, 50596, Note_on_c, 9, 63, 0
11, 50640, Note_on_c, 9, 35, 88
11, 50640, Note_on_c, 9, 46, 60
11, 50640, Note_on_c, 9, 62, 65
11, 50644, Note_on_c, 9, 35, 0
11, 50644, Note_on_c, 9, 46, 0
11, 50644, Note_on_c, 9, 62, 0
11, 50688, Note_on_c, 9, 31, 51
11, 50688, Note_on_c, 9, 35, 108
11, 50688, Note_on_c, 9, 42, 72
11, 50692, Note_on_c, 9, 31, 0
11, 50692, Note_on_c, 9, 35, 0
11, 50692, Note_on_c, 9, 42, 0
11, 50736, Note_on_c, 9, 42, 42
11, 50736, Note_on_c, 9, 64, 65
11, 50740, Note_on_c, 9, 42, 0
11, 50740, Note_on_c, 9, 64, 0
11, 50784, Note_on_c, 9, 31, 49
11, 50784, Note_on_c, 9, 42, 74
11, 50784, Note_on_c, 9, 63, 65
11, 50788, Note_on_c, 9, 31, 0
11, 50788, Note_on_c, 9, 42, 0
11, 50788, Note_on_c, 9, 63, 0
11, 50832, Note_on_c, 9, 35, 110
11, 50832, Note_on_c, 9, 42, 44
11, 50832, Note_on_c, 9, 62, 93
11, 50836, Note_on_c, 9, 35, 0
11, 50836, Note_on_c, 9, 42, 0
11, 50836, Note_on_c, 9, 62, 0
11, 50880, Note_on_c, 9, 31, 51
11, 50880, Note_on_c, 9, 40, 115
11, 50880, Note_on_c, 9, 42, 75
11, 50880, Note_on_c, 9, 62, 121
11, 50884, Note_on_c, 9, 31, 0
11, 50884, Note_on_c, 9, 40, 0
11, 50884, Note_on_c, 9, 42, 0
11, 50884, Note_on_c, 9, 62, 0
11, 50928, Note_on_c, 9, 42, 45
11, 50932, Note_on_c, 9, 42, 0
11, 50976, Note_on_c, 9, 31, 50
11, 50976, Note_on_c, 9, 35, 103
11, 50976, Note_on_c, 9, 42, 72
11, 50976, Note_on_c, 9, 64, 65
11, 50980, Note_on_c, 9, 31, 0
11, 50980, Note_on_c, 9, 35, 0
11, 50980, Note_on_c, 9, 42, 0
11, 50980, Note_on_c, 9, 64, 0
11, 51024, Note_on_c, 9, 42, 42
11, 51024, Note_on_c, 9, 63, 69
11, 51028, Note_on_c, 9, 42, 0
11, 51028, Note_on_c, 9, 63, 0
11, 51072, Note_on_c, 9, 31, 51
11, 51072, Note_on_c, 9, 42, 75
11, 51072, Note_on_c, 9, 75, 80
11, 51076, Note_on_c, 9, 31, 0
11, 51076, Note_on_c, 9, 42, 0
11, 51076, Note_on_c, 9, 75, 0
11, 51120, Note_on_c, 9, 42, 45
11, 51120, Note_on_c, 9, 63, 81
11, 51124, Note_on_c, 9, 42, 0
11, 51124, Note_on_c, 9, 63, 0
11, 51168, Note_on_c, 9, 31, 48
11, 51168, Note_on_c, 9, 42, 74
11, 51168, Note_on_c, 9, 62, 65
11, 51172, Note_on_c, 9, 31, 0
11, 51172, Note_on_c, 9, 42, 0
11, 51172, Note_on_c, 9, 62, 0
11, 51216, Note_on_c, 9, 46, 59
11, 51216, Note_on_c, 9, 75, 74
11, 51220, Note_on_c, 9, 46, 0
11, 51220, Note_on_c, 9, 75, 0
11, 51264, Note_on_c, 9, 31, 51
11, 51264, Note_on_c, 9, 40, 115
11, 51264, Note_on_c, 9, 54, 88
11, 51264, Note_on_c, 9, 62, 113
11, 51268, Note_on_c, 9, 31, 0
11, 51268, Note_on_c, 9, 40, 0
11, 51268, Note_on_c, 9, 54, 0
11, 51268, Note_on_c, 9, 62, 0
11, 51312, Note_on_c, 9, 45, 82
11, 51312, Note_on_c, 9, 54, 44
11, 51312, Note_on_c, 9, 63, 45
11, 51316, Note_on_c, 9, 45, 0
11, 51316, Note_on_c, 9, 54, 0
11, 51316, Note_on_c, 9, 63, 0
11, 51360, Note_on_c, 9, 31, 48
11, 51360, Note_on_c, 9, 40, 115
11, 51360, Note_on_c, 9, 54, 24
11, 51364, Note_on_c, 9, 31, 0
11, 51364, Note_on_c, 9, 40, 0
11, 51364, Note_on_c, 9, 54, 0
11, 51408, Note_on_c, 9, 35, 88
11, 51408, Note_on_c, 9, 43, 69
11, 51408, Note_on_c, 9, 63, 69
11, 51412, Note_on_c, 9, 35, 0
11, 51412, Note_on_c, 9, 43, 0
11, 51412, Note_on_c, 9, 63, 0
11, 51456, Note_on_c, 9, 31, 51
11, 51456, Note_on_c, 9, 35, 108
11, 51456, Note_on_c, 9, 57, 58
11, 51460, Note_on_c, 9, 31, 0
11, 51460, Note_on_c, 9, 35, 0
11, 51460, Note_on_c, 9, 57, 0
11, 51504, Note_on_c, 9, 42, 49
11, 51508, Note_on_c, 9, 42, 0
11, 51552, Note_on_c, 9, 31, 49
11, 51552, Note_on_c, 9, 42, 79
11, 51556, Note_on_c, 9, 31, 0
11, 51556, Note_on_c, 9, 42, 0
11, 51600, Note_on_c, 9, 35, 110
11, 51600, Note_on_c, 9, 42, 49
11, 51604, Note_on_c, 9, 35, 0
11, 51604, Note_on_c, 9, 42, 0
11, 51648, Note_on_c, 9, 31, 51
11, 51648, Note_on_c, 9, 40, 115
11, 51648, Note_on_c, 9, 42, 80
11, 51652, Note_on_c, 9, 31, 0
11, 51652, Note_on_c, 9, 40, 0
11, 51652, Note_on_c, 9, 42, 0
11, 51696, Note_on_c, 9, 42, 50
11, 51700, Note_on_c, 9, 42, 0
11, 51744, Note_on_c, 9, 31, 50
11, 51744, Note_on_c, 9, 35, 103
11, 51744, Note_on_c, 9, 42, 80
11, 51748, Note_on_c, 9, 31, 0
11, 51748, Note_on_c, 9, 35, 0
11, 51748, Note_on_c, 9, 42, 0
11, 51792, Note_on_c, 9, 42, 50
11, 51796, Note_on_c, 9, 42, 0
11, 51840, Note_on_c, 9, 31, 51
11, 51840, Note_on_c, 9, 42, 79
11, 51844, Note_on_c, 9, 31, 0
11, 51844, Note_on_c, 9, 42, 0
11, 51888, Note_on_c, 9, 42, 49
11, 51892, Note_on_c, 9, 42, 0
11, 51936, Note_on_c, 9, 31, 48
11, 51936, Note_on_c, 9, 42, 76
11, 51936, Note_on_c, 9, 62, 125
11, 51940, Note_on_c, 9, 31, 0
11, 51940, Note_on_c, 9, 42, 0
11, 51940, Note_on_c, 9, 62, 0
11, 51984, Note_on_c, 9, 46, 46
11, 51988, Note_on_c, 9, 46, 0
11, 52032, Note_on_c, 9, 31, 51
11, 52032, Note_on_c, 9, 40, 115
11, 52032, Note_on_c, 9, 54, 98
11, 52032, Note_on_c, 9, 55, 93
11, 52036, Note_on_c, 9, 31, 0
11, 52036, Note_on_c, 9, 40, 0
11, 52036, Note_on_c, 9, 54, 0
11, 52036, Note_on_c, 9, 55, 0
11, 52080, Note_on_c, 9, 54, 57
11, 52084, Note_on_c, 9, 54, 0
11, 52128, Note_on_c, 9, 31, 48
11, 52128, Note_on_c, 9, 42, 71
11, 52128, Note_on_c, 9, 54, 37
11, 52128, Note_on_c, 9, 62, 121
11, 52132, Note_on_c, 9, 31, 0
11, 52132, Note_on_c, 9, 42, 0
11, 52132, Note_on_c, 9, 54, 0
11, 52132, Note_on_c, 9, 62, 0
11, 52176, Note_on_c, 9, 35, 88
11, 52176, Note_on_c, 9, 42, 50
11, 52180, Note_on_c, 9, 35, 0
11, 52180, Note_on_c, 9, 42, 0
11, 52224, Note_on_c, 9, 31, 51
11, 52224, Note_on_c, 9, 35, 108
11, 52224, Note_on_c, 9, 42, 72
11, 52228, Note_on_c, 9, 31, 0
11, 52228, Note_on_c, 9, 35, 0
11, 52228, Note_on_c, 9, 42, 0
11, 52272, Note_on_c, 9, 42, 42
11, 52276, Note_on_c, 9, 42, 0
11, 52320, Note_on_c, 9, 31, 49
11, 52320, Note_on_c, 9, 42, 79
11, 52324, Note_on_c, 9, 31, 0
11, 52324, Note_on_c, 9, 42, 0
11, 52368, Note_on_c, 9, 35, 110
11, 52368, Note_on_c, 9, 42, 49
11, 52372, Note_on_c, 9, 35, 0
11, 52372, Note_on_c, 9, 42, 0
11, 52416, Note_on_c, 9, 31, 51
11, 52416, Note_on_c, 9, 40, 115
11, 52416, Note_on_c, 9, 42, 76
11, 52420, Note_on_c, 9, 31, 0
11, 52420, Note_on_c, 9, 40, 0
11, 52420, Note_on_c, 9, 42, 0
11, 52464, Note_on_c, 9, 42, 46
11, 52468, Note_on_c, 9, 42, 0
11, 52512, Note_on_c, 9, 31, 50
11, 52512, Note_on_c, 9, 35, 103
11, 52512, Note_on_c, 9, 42, 77
11, 52516, Note_on_c, 9, 31, 0
11, 52516, Note_on_c, 9, 35, 0
11, 52516, Note_on_c, 9, 42, 0
11, 52560, Note_on_c, 9, 42, 47
11, 52560, Note_on_c, 9, 63, 41
11, 52564, Note_on_c, 9, 42, 0
11, 52564, Note_on_c, 9, 63, 0
11, 52608, Note_on_c, 9, 31, 51
11, 52608, Note_on_c, 9, 42, 76
11, 52608, Note_on_c, 9, 62, 117
11, 52612, Note_on_c, 9, 31, 0
11, 52612, Note_on_c, 9, 42, 0
11, 52612, Note_on_c, 9, 62, 0
11, 52656, Note_on_c, 9, 42, 46
11, 52660, Note_on_c, 9, 42, 0
11, 52704, Note_on_c, 9, 31, 48
11, 52704, Note_on_c, 9, 42, 74
11, 52704, Note_on_c, 9, 63, 65
11, 52708, Note_on_c, 9, 31, 0
11, 52708, Note_on_c, 9, 42, 0
11, 52708, Note_on_c, 9, 63, 0
11, 52752, Note_on_c, 9, 42, 44
11, 52752, Note_on_c, 9, 63, 117
11, 52756, Note_on_c, 9, 42, 0
11, 52756, Note_on_c, 9, 63, 0
11, 52800, Note_on_c, 9, 31, 51
11, 52800, Note_on_c, 9, 40, 115
11, 52800, Note_on_c, 9, 42, 76
11, 52800, Note_on_c, 9, 54, 95
11, 52800, Note_on_c, 9, 62, 121
11, 52804, Note_on_c, 9, 31, 0
11, 52804, Note_on_c, 9, 40, 0
11, 52804, Note_on_c, 9, 42, 0
11, 52804, Note_on_c, 9, 54, 0
11, 52804, Note_on_c, 9, 62, 0
11, 52848, Note_on_c, 9, 42, 46
11, 52848, Note_on_c, 9, 54, 58
11, 52852, Note_on_c, 9, 42, 0
11, 52852, Note_on_c, 9, 54, 0
11, 52896, Note_on_c, 9, 31, 48
11, 52896, Note_on_c, 9, 42, 78
11, 52896, Note_on_c, 9, 54, 42
11, 52896, Note_on_c, 9, 63, 77
11, 52900, Note_on_c, 9, 31, 0
11, 52900, Note_on_c, 9, 42, 0
11, 52900, Note_on_c, 9, 54, 0
11, 52900, Note_on_c, 9, 63, 0
11, 52944, Note_on_c, 9, 35, 88
11, 52944, Note_on_c, 9, 46, 64
11, 52944, Note_on_c, 9, 64, 93
11, 52948, Note_on_c, 9, 35, 0
11, 52948, Note_on_c, 9, 46, 0
11, 52948, Note_on_c, 9, 64, 0
11, 52992, Note_on_c, 9, 31, 51
11, 52992, Note_on_c, 9, 35, 108
11, 52992, Note_on_c, 9, 42, 74
11, 52996, Note_on_c, 9, 31, 0
11, 52996, Note_on_c, 9, 35, 0
11, 52996, Note_on_c, 9, 42, 0
11, 53040, Note_on_c, 9, 42, 44
11, 53044, Note_on_c, 9, 42, 0
11, 53088, Note_on_c, 9, 31, 49
11, 53088, Note_on_c, 9, 42, 77
11, 53092, Note_on_c, 9, 31, 0
11, 53092, Note_on_c, 9, 42, 0
11, 53136, Note_on_c, 9, 35, 110
11, 53136, Note_on_c, 9, 42, 47
11, 53136, Note_on_c, 9, 63, 69
11, 53140, Note_on_c, 9, 35, 0
11, 53140, Note_on_c, 9, 42, 0
11, 53140, Note_on_c, 9, 63, 0
11, 53184, Note_on_c, 9, 31, 51
11, 53184, Note_on_c, 9, 40, 115
11, 53184, Note_on_c, 9, 42, 78
11, 53184, Note_on_c, 9, 62, 113
11, 53188, Note_on_c, 9, 31, 0
11, 53188, Note_on_c, 9, 40, 0
11, 53188, Note_on_c, 9, 42, 0
11, 53188, Note_on_c, 9, 62, 0
11, 53232, Note_on_c, 9, 42, 48
11, 53236, Note_on_c, 9, 42, 0
11, 53280, Note_on_c, 9, 31, 50
11, 53280, Note_on_c, 9, 35, 103
11, 53280, Note_on_c, 9, 42, 74
11, 53284, Note_on_c, 9, 31, 0
11, 53284, Note_on_c, 9, 35, 0
11, 53284, Note_on_c, 9, 42, 0
11, 53328, Note_on_c, 9, 42, 44
11, 53328, Note_on_c, 9, 63, 65
11, 53332, Note_on_c, 9, 42, 0
11, 53332, Note_on_c, 9, 63, 0
11, 53376, Note_on_c, 9, 31, 51
11, 53376, Note_on_c, 9, 42, 74
11, 53380, Note_on_c, 9, 31, 0
11, 53380, Note_on_c, 9, 42, 0
11, 53424, Note_on_c, 9, 42, 44
11, 53424, Note_on_c, 9, 63, 81
11, 53428, Note_on_c, 9, 42, 0
11, 53428, Note_on_c, 9, 63, 0
11, 53472, Note_on_c, 9, 31, 48
11, 53472, Note_on_c, 9, 42, 71
11, 53476, Note_on_c, 9, 31, 0
11, 53476, Note_on_c, 9, 42, 0
11, 53520, Note_on_c, 9, 42, 41
11, 53520, Note_on_c, 9, 63, 93
11, 53524, Note_on_c, 9, 42, 0
11, 53524, Note_on_c, 9, 63, 0
11, 53568, Note_on_c, 9, 31, 51
11, 53568, Note_on_c, 9, 40, 115
11, 53568, Note_on_c, 9, 42, 74
11, 53568, Note_on_c, 9, 54, 95
11, 53572, Note_on_c, 9, 31, 0
11, 53572, Note_on_c, 9, 40, 0
11, 53572, Note_on_c, 9, 42, 0
11, 53572, Note_on_c, 9, 54, 0
11, 53616, Note_on_c, 9, 42, 44
11, 53616, Note_on_c, 9, 54, 56
11, 53616, Note_on_c, 9, 63, 65
11, 53620, Note_on_c, 9, 42, 0
11, 53620, Note_on_c, 9, 54, 0
11, 53620, Note_on_c, 9, 63, 0
11, 53664, Note_on_c, 9, 31, 48
11, 53664, Note_on_c, 9, 42, 75
11, 53664, Note_on_c, 9, 54, 45
11, 53664, Note_on_c, 9, 62, 113
11, 53668, Note_on_c, 9, 31, 0
11, 53668, Note_on_c, 9, 42, 0
11, 53668, Note_on_c, 9, 54, 0
11, 53668, Note_on_c, 9, 62, 0
11, 53712, Note_on_c, 9, 35, 88
11, 53712, Note_on_c, 9, 46, 60
11, 53712, Note_on_c, 9, 63, 73
11, 53716, Note_on_c, 9, 35, 0
11, 53716, Note_on_c, 9, 46, 0
11, 53716, Note_on_c, 9, 63, 0
11, 53760, Note_on_c, 9, 31, 51
11, 53760, Note_on_c, 9, 35, 108
11, 53760, Note_on_c, 9, 42, 72
11, 53760, Note_on_c, 9, 64, 65
11, 53764, Note_on_c, 9, 31, 0
11, 53764, Note_on_c, 9, 35, 0
11, 53764, Note_on_c, 9, 42, 0
11, 53764, Note_on_c, 9, 64, 0
11, 53808, Note_on_c, 9, 42, 42
11, 53812, Note_on_c, 9, 42, 0
11, 53856, Note_on_c, 9, 31, 49
11, 53856, Note_on_c, 9, 42, 74
11, 53860, Note_on_c, 9, 31, 0
11, 53860, Note_on_c, 9, 42, 0
11, 53904, Note_on_c, 9, 35, 110
11, 53904, Note_on_c, 9, 42, 44
11, 53904, Note_on_c, 9, 63, 73
11, 53908, Note_on_c, 9, 35, 0
11, 53908, Note_on_c, 9, 42, 0
11, 53908, Note_on_c, 9, 63, 0
11, 53952, Note_on_c, 9, 31, 51
11, 53952, Note_on_c, 9, 40, 115
11, 53952, Note_on_c, 9, 42, 75
11, 53952, Note_on_c, 9, 62, 113
11, 53956, Note_on_c, 9, 31, 0
11, 53956, Note_on_c, 9, 40, 0
11, 53956, Note_on_c, 9, 42, 0
11, 53956, Note_on_c, 9, 62, 0
11, 54000, Note_on_c, 9, 42, 45
11, 54004, Note_on_c, 9, 42, 0
11, 54048, Note_on_c, 9, 31, 50
11, 54048, Note_on_c, 9, 35, 103
11, 54048, Note_on_c, 9, 42, 72
11, 54048, Note_on_c, 9, 63, 45
11, 54052, Note_on_c, 9, 31, 0
11, 54052, Note_on_c, 9, 35, 0
11, 54052, Note_on_c, 9, 42, 0
11, 54052, Note_on_c, 9, 63, 0
11, 54096, Note_on_c, 9, 42, 42
11, 54096, Note_on_c, 9, 63, 61
11, 54100, Note_on_c, 9, 42, 0
11, 54100, Note_on_c, 9, 63, 0
11, 54144, Note_on_c, 9, 31, 51
11, 54144, Note_on_c, 9, 42, 75
11, 54144, Note_on_c, 9, 75, 80
11, 54148, Note_on_c, 9, 31, 0
11, 54148, Note_on_c, 9, 42, 0
11, 54148, Note_on_c, 9, 75, 0
11, 54192, Note_on_c, 9, 42, 45
11, 54192, Note_on_c, 9, 63, 73
11, 54196, Note_on_c, 9, 42, 0
11, 54196, Note_on_c, 9, 63, 0
11, 54240, Note_on_c, 9, 31, 48
11, 54240, Note_on_c, 9, 42, 74
11, 54240, Note_on_c, 9, 62, 113
11, 54244, Note_on_c, 9, 31, 0
11, 54244, Note_on_c, 9, 42, 0
11, 54244, Note_on_c, 9, 62, 0
11, 54288, Note_on_c, 9, 46, 44
11, 54288, Note_on_c, 9, 63, 65
11, 54288, Note_on_c, 9, 75, 74
11, 54292, Note_on_c, 9, 46, 0
11, 54292, Note_on_c, 9, 63, 0
11, 54292, Note_on_c, 9, 75, 0
11, 54336, Note_on_c, 9, 31, 51
11, 54336, Note_on_c, 9, 40, 115
11, 54336, Note_on_c, 9, 54, 88
11, 54336, Note_on_c, 9, 63, 77
11, 54340, Note_on_c, 9, 31, 0
11, 54340, Note_on_c, 9, 40, 0
11, 54340, Note_on_c, 9, 54, 0
11, 54340, Note_on_c, 9, 63, 0
11, 54384, Note_on_c, 9, 45, 85
11, 54384, Note_on_c, 9, 54, 44
11, 54384, Note_on_c, 9, 63, 69
11, 54388, Note_on_c, 9, 45, 0
11, 54388, Note_on_c, 9, 54, 0
11, 54388, Note_on_c, 9, 63, 0
11, 54432, Note_on_c, 9, 31, 48
11, 54432, Note_on_c, 9, 43, 75
11, 54432, Note_on_c, 9, 54, 24
11, 54432, Note_on_c, 9, 62, 117
11, 54436, Note_on_c, 9, 31, 0
11, 54436, Note_on_c, 9, 43, 0
11, 54436, Note_on_c, 9, 54, 0
11, 54436, Note_on_c, 9, 62, 0
11, 54480, Note_on_c, 9, 35, 88
11, 54484, Note_on_c, 9, 35, 0
11, 54528, Note_on_c, 9, 31, 51
11, 54528, Note_on_c, 9, 35, 108
11, 54528, Note_on_c, 9, 57, 66
11, 54532, Note_on_c, 9, 31, 0
11, 54532, Note_on_c, 9, 35, 0
11, 54532, Note_on_c, 9, 57, 0
11, 54576, Note_on_c, 9, 42, 49
11, 54580, Note_on_c, 9, 42, 0
11, 54624, Note_on_c, 9, 31, 49
11, 54624, Note_on_c, 9, 42, 79
11, 54624, Note_on_c, 9, 62, 77
11, 54628, Note_on_c, 9, 31, 0
11, 54628, Note_on_c, 9, 42, 0
11, 54628, Note_on_c, 9, 62, 0
11, 54672, Note_on_c, 9, 35, 110
11, 54672, Note_on_c, 9, 42, 49
11, 54676, Note_on_c, 9, 35, 0
11, 54676, Note_on_c, 9, 42, 0
11, 54720, Note_on_c, 9, 31, 51
11, 54720, Note_on_c, 9, 40, 115
11, 54720, Note_on_c, 9, 42, 80
11, 54724, Note_on_c, 9, 31, 0
11, 54724, Note_on_c, 9, 40, 0
11, 54724, Note_on_c, 9, 42, 0
11, 54768, Note_on_c, 9, 42, 50
11, 54772, Note_on_c, 9, 42, 0
11, 54816, Note_on_c, 9, 31, 50
11, 54816, Note_on_c, 9, 35, 103
11, 54816, Note_on_c, 9, 42, 80
11, 54816, Note_on_c, 9, 62, 101
11, 54820, Note_on_c, 9, 31, 0
11, 54820, Note_on_c, 9, 35, 0
11, 54820, Note_on_c, 9, 42, 0
11, 54820, Note_on_c, 9, 62, 0
11, 54864, Note_on_c, 9, 42, 50
11, 54864, Note_on_c, 9, 63, 77
11, 54868, Note_on_c, 9, 42, 0
11, 54868, Note_on_c, 9, 63, 0
11, 54912, Note_on_c, 9, 31, 51
11, 54912, Note_on_c, 9, 42, 79
11, 54916, Note_on_c, 9, 31, 0
11, 54916, Note_on_c, 9, 42, 0
11, 54960, Note_on_c, 9, 42, 49
11, 54960, Note_on_c, 9, 62, 73
11, 54964, Note_on_c, 9, 42, 0
11, 54964, Note_on_c, 9, 62, 0
11, 55008, Note_on_c, 9, 31, 48
11, 55008, Note_on_c, 9, 42, 76
11, 55008, Note_on_c, 9, 62, 57
11, 55012, Note_on_c, 9, 31, 0
11, 55012, Note_on_c, 9, 42, 0
11, 55012, Note_on_c, 9, 62, 0
11, 55056, Note_on_c, 9, 42, 46
11, 55056, Note_on_c, 9, 62, 61
11, 55060, Note_on_c, 9, 42, 0
11, 55060, Note_on_c, 9, 62, 0
11, 55104, Note_on_c, 9, 31, 51
11, 55104, Note_on_c, 9, 40, 115
11, 55104, Note_on_c, 9, 42, 77
11, 55104, Note_on_c, 9, 54, 98
11, 55104, Note_on_c, 9, 62, 97
11, 55108, Note_on_c, 9, 31, 0
11, 55108, Note_on_c, 9, 40, 0
11, 55108, Note_on_c, 9, 42, 0
11, 55108, Note_on_c, 9, 54, 0
11, 55108, Note_on_c, 9, 62, 0
11, 55152, Note_on_c, 9, 42, 47
11, 55152, Note_on_c, 9, 54, 57
11, 55152, Note_on_c, 9, 63, 81
11, 55156, Note_on_c, 9, 42, 0
11, 55156, Note_on_c, 9, 54, 0
11, 55156, Note_on_c, 9, 63, 0
11, 55200, Note_on_c, 9, 31, 48
11, 55200, Note_on_c, 9, 42, 71
11, 55200, Note_on_c, 9, 54, 37
11, 55200, Note_on_c, 9, 62, 61
11, 55204, Note_on_c, 9, 31, 0
11, 55204, Note_on_c, 9, 42, 0
11, 55204, Note_on_c, 9, 54, 0
11, 55204, Note_on_c, 9, 62, 0
11, 55248, Note_on_c, 9, 35, 88
11, 55248, Note_on_c, 9, 46, 67
11, 55252, Note_on_c, 9, 35, 0
11, 55252, Note_on_c, 9, 46, 0
11, 55296, Note_on_c, 9, 31, 51
11, 55296, Note_on_c, 9, 35, 108
11, 55296, Note_on_c, 9, 42, 72
11, 55296, Note_on_c, 9, 62, 85
11, 55300, Note_on_c, 9, 31, 0
11, 55300, Note_on_c, 9, 35, 0
11, 55300, Note_on_c, 9, 42, 0
11, 55300, Note_on_c, 9, 62, 0
11, 55344, Note_on_c, 9, 42, 42
11, 55348, Note_on_c, 9, 42, 0
11, 55392, Note_on_c, 9, 31, 49
11, 55392, Note_on_c, 9, 42, 79
11, 55396, Note_on_c, 9, 31, 0
11, 55396, Note_on_c, 9, 42, 0
11, 55440, Note_on_c, 9, 35, 110
11, 55440, Note_on_c, 9, 42, 49
11, 55444, Note_on_c, 9, 35, 0
11, 55444, Note_on_c, 9, 42, 0
11, 55488, Note_on_c, 9, 31, 51
11, 55488, Note_on_c, 9, 40, 115
11, 55488, Note_on_c, 9, 42, 76
11, 55492, Note_on_c, 9, 31, 0
11, 55492, Note_on_c, 9, 40, 0
11, 55492, Note_on_c, 9, 42, 0
11, 55536, Note_on_c, 9, 42, 46
11, 55540, Note_on_c, 9, 42, 0
11, 55584, Note_on_c, 9, 31, 50
11, 55584, Note_on_c, 9, 35, 103
11, 55584, Note_on_c, 9, 42, 77
11, 55588, Note_on_c, 9, 31, 0
11, 55588, Note_on_c, 9, 35, 0
11, 55588, Note_on_c, 9, 42, 0
11, 55632, Note_on_c, 9, 42, 47
11, 55632, Note_on_c, 9, 62, 101
11, 55636, Note_on_c, 9, 42, 0
11, 55636, Note_on_c, 9, 62, 0
11, 55680, Note_on_c, 9, 31, 51
11, 55680, Note_on_c, 9, 42, 76
11, 55684, Note_on_c, 9, 31, 0
11, 55684, Note_on_c, 9, 42, 0
11, 55728, Note_on_c, 9, 42, 46
11, 55728, Note_on_c, 9, 62, 81
11, 55732, Note_on_c, 9, 42, 0
11, 55732, Note_on_c, 9, 62, 0
11, 55776, Note_on_c, 9, 31, 48
11, 55776, Note_on_c, 9, 42, 74
11, 55780, Note_on_c, 9, 31, 0
11, 55780, Note_on_c, 9, 42, 0
11, 55824, Note_on_c, 9, 42, 44
11, 55824, Note_on_c, 9, 63, 85
11, 55828, Note_on_c, 9, 42, 0
11, 55828, Note_on_c, 9, 63, 0
11, 55872, Note_on_c, 9, 31, 51
11, 55872, Note_on_c, 9, 40, 115
11, 55872, Note_on_c, 9, 42, 76
11, 55872, Note_on_c, 9, 54, 95
11, 55872, Note_on_c, 9, 64, 101
11, 55876, Note_on_c, 9, 31, 0
11, 55876, Note_on_c, 9, 40, 0
11, 55876, Note_on_c, 9, 42, 0
11, 55876, Note_on_c, 9, 54, 0
11, 55876, Note_on_c, 9, 64, 0
11, 55920, Note_on_c, 9, 42, 46
11, 55920, Note_on_c, 9, 54, 58
11, 55920, Note_on_c, 9, 63, 57
11, 55924, Note_on_c, 9, 42, 0
11, 55924, Note_on_c, 9, 54, 0
11, 55924, Note_on_c, 9, 63, 0
11, 55968, Note_on_c, 9, 31, 48
11, 55968, Note_on_c, 9, 42, 78
11, 55968, Note_on_c, 9, 54, 42
11, 55968, Note_on_c, 9, 62, 121
11, 55972, Note_on_c, 9, 31, 0
11, 55972, Note_on_c, 9, 42, 0
11, 55972, Note_on_c, 9, 54, 0
11, 55972, Note_on_c, 9, 62, 0
11, 56016, Note_on_c, 9, 35, 88
11, 56016, Note_on_c, 9, 46, 64
11, 56020, Note_on_c, 9, 35, 0
11, 56020, Note_on_c, 9, 46, 0
11, 56064, Note_on_c, 9, 31, 51
11, 56064, Note_on_c, 9, 35, 108
11, 56064, Note_on_c, 9, 42, 74
11, 56064, Note_on_c, 9, 62, 113
11, 56068, Note_on_c, 9, 31, 0
11, 56068, Note_on_c, 9, 35, 0
11, 56068, Note_on_c, 9, 42, 0
11, 56068, Note_on_c, 9, 62, 0
11, 56112, Note_on_c, 9, 42, 44
11, 56116, Note_on_c, 9, 42, 0
11, 56160, Note_on_c, 9, 31, 49
11, 56160, Note_on_c, 9, 42, 77
11, 56160, Note_on_c, 9, 63, 69
11, 56164, Note_on_c, 9, 31, 0
11, 56164, Note_on_c, 9, 42, 0
11, 56164, Note_on_c, 9, 63, 0
11, 56208, Note_on_c, 9, 35, 110
11, 56208, Note_on_c, 9, 42, 47
11, 56208, Note_on_c, 9, 62, 97
11, 56212, Note_on_c, 9, 35, 0
11, 56212, Note_on_c, 9, 42, 0
11, 56212, Note_on_c, 9, 62, 0
11, 56256, Note_on_c, 9, 31, 51
11, 56256, Note_on_c, 9, 40, 115
11, 56256, Note_on_c, 9, 42, 78
11, 56256, Note_on_c, 9, 62, 121
11, 56260, Note_on_c, 9, 31, 0
11, 56260, Note_on_c, 9, 40, 0
11, 56260, Note_on_c, 9, 42, 0
11, 56260, Note_on_c, 9, 62, 0
11, 56304, Note_on_c, 9, 42, 48
11, 56308, Note_on_c, 9, 42, 0
11, 56352, Note_on_c, 9, 31, 50
11, 56352, Note_on_c, 9, 35, 103
11, 56352, Note_on_c, 9, 42, 74
11, 56352, Note_on_c, 9, 63, 45
11, 56356, Note_on_c, 9, 31, 0
11, 56356, Note_on_c, 9, 35, 0
11, 56356, Note_on_c, 9, 42, 0
11, 56356, Note_on_c, 9, 63, 0
11, 56400, Note_on_c, 9, 42, 44
11, 56400, Note_on_c, 9, 64, 81
11, 56404, Note_on_c, 9, 42, 0
11, 56404, Note_on_c, 9, 64, 0
11, 56448, Note_on_c, 9, 31, 51
11, 56448, Note_on_c, 9, 42, 74
11, 56452, Note_on_c, 9, 31, 0
11, 56452, Note_on_c, 9, 42, 0
11, 56496, Note_on_c, 9, 42, 44
11, 56496, Note_on_c, 9, 64, 69
11, 56500, Note_on_c, 9, 42, 0
11, 56500, Note_on_c, 9, 64, 0
11, 56544, Note_on_c, 9, 31, 48
11, 56544, Note_on_c, 9, 42, 71
11, 56544, Note_on_c, 9, 63, 81
11, 56548, Note_on_c, 9, 31, 0
11, 56548, Note_on_c, 9, 42, 0
11, 56548, Note_on_c, 9, 63, 0
11, 56592, Note_on_c, 9, 42, 41
11, 56592, Note_on_c, 9, 62, 61
11, 56596, Note_on_c, 9, 42, 0
11, 56596, Note_on_c, 9, 62, 0
11, 56640, Note_on_c, 9, 31, 51
11, 56640, Note_on_c, 9, 40, 115
11, 56640, Note_on_c, 9, 42, 74
11, 56640, Note_on_c, 9, 54, 95
11, 56640, Note_on_c, 9, 62, 113
11, 56644, Note_on_c, 9, 31, 0
11, 56644, Note_on_c, 9, 40, 0
11, 56644, Note_on_c, 9, 42, 0
11, 56644, Note_on_c, 9, 54, 0
11, 56644, Note_on_c, 9, 62, 0
11, 56688, Note_on_c, 9, 42, 44
11, 56688, Note_on_c, 9, 54, 56
11, 56692, Note_on_c, 9, 42, 0
11, 56692, Note_on_c, 9, 54, 0
11, 56736, Note_on_c, 9, 31, 48
11, 56736, Note_on_c, 9, 42, 75
11, 56736, Note_on_c, 9, 54, 45
11, 56736, Note_on_c, 9, 63, 73
11, 56740, Note_on_c, 9, 31, 0
11, 56740, Note_on_c, 9, 42, 0
11, 56740, Note_on_c, 9, 54, 0
11, 56740, Note_on_c, 9, 63, 0
11, 56784, Note_on_c, 9, 35, 88
11, 56784, Note_on_c, 9, 46, 60
11, 56784, Note_on_c, 9, 62, 65
11, 56788, Note_on_c, 9, 35, 0
11, 56788, Note_on_c, 9, 46, 0
11, 56788, Note_on_c, 9, 62, 0
11, 56832, Note_on_c, 9, 31, 51
11, 56832, Note_on_c, 9, 35, 108
11, 56832, Note_on_c, 9, 42, 72
11, 56836, Note_on_c, 9, 31, 0
11, 56836, Note_on_c, 9, 35, 0
11, 56836, Note_on_c, 9, 42, 0
11, 56880, Note_on_c, 9, 42, 42
11, 56880, Note_on_c, 9, 64, 65
11, 56884, Note_on_c, 9, 42, 0
11, 56884, Note_on_c, 9, 64, 0
11, 56928, Note_on_c, 9, 31, 49
11, 56928, Note_on_c, 9, 42, 74
11, 56928, Note_on_c, 9, 63, 65
11, 56932, Note_on_c, 9, 31, 0
11, 56932, Note_on_c, 9, 42, 0
11, 56932, Note_on_c, 9, 63, 0
11, 56976, Note_on_c, 9, 35, 110
11, 56976, Note_on_c, 9, 42, 44
11, 56976, Note_on_c, 9, 62, 93
11, 56980, Note_on_c, 9, 35, 0
11, 56980, Note_on_c, 9, 42, 0
11, 56980, Note_on_c, 9, 62, 0
11, 57024, Note_on_c, 9, 31, 51
11, 57024, Note_on_c, 9, 40, 115
11, 57024, Note_on_c, 9, 42, 75
11, 57024, Note_on_c, 9, 62, 121
11, 57028, Note_on_c, 9, 31, 0
11, 57028, Note_on_c, 9, 40, 0
11, 57028, Note_on_c, 9, 42, 0
11, 57028, Note_on_c, 9, 62, 0
11, 57072, Note_on_c, 9, 42, 45
11, 57076, Note_on_c, 9, 42, 0
11, 57120, Note_on_c, 9, 31, 50
11, 57120, Note_on_c, 9, 35, 103
11, 57120, Note_on_c, 9, 42, 72
11, 57120, Note_on_c, 9, 64, 65
11, 57124, Note_on_c, 9, 31, 0
11, 57124, Note_on_c, 9, 35, 0
11, 57124, Note_on_c, 9, 42, 0
11, 57124, Note_on_c, 9, 64, 0
11, 57168, Note_on_c, 9, 42, 42
11, 57168, Note_on_c, 9, 63, 69
11, 57172, Note_on_c, 9, 42, 0
11, 57172, Note_on_c, 9, 63, 0
11, 57216, Note_on_c, 9, 31, 51
11, 57216, Note_on_c, 9, 42, 75
11, 57216, Note_on_c, 9, 75, 80
11, 57220, Note_on_c, 9, 31, 0
11, 57220, Note_on_c, 9, 42, 0
11, 57220, Note_on_c, 9, 75, 0
11, 57264, Note_on_c, 9, 42, 45
11, 57264, Note_on_c, 9, 63, 81
11, 57268, Note_on_c, 9, 42, 0
11, 57268, Note_on_c, 9, 63, 0
11, 57312, Note_on_c, 9, 31, 48
11, 57312, Note_on_c, 9, 42, 74
11, 57312, Note_on_c, 9, 62, 65
11, 57316, Note_on_c, 9, 31, 0
11, 57316, Note_on_c, 9, 42, 0
11, 57316, Note_on_c, 9, 62, 0
11, 57360, Note_on_c, 9, 46, 59
11, 57360, Note_on_c, 9, 75, 74
11, 57364, Note_on_c, 9, 46, 0
11, 57364, Note_on_c, 9, 75, 0
11, 57408, Note_on_c, 9, 31, 51
11, 57408, Note_on_c, 9, 40, 115
11, 57408, Note_on_c, 9, 54, 88
11, 57408, Note_on_c, 9, 62, 113
11, 57412, Note_on_c, 9, 31, 0
11, 57412, Note_on_c, 9, 40, 0
11, 57412, Note_on_c, 9, 54, 0
11, 57412, Note_on_c, 9, 62, 0
11, 57456, Note_on_c, 9, 45, 82
11, 57456, Note_on_c, 9, 54, 44
11, 57456, Note_on_c, 9, 63, 45
11, 57460, Note_on_c, 9, 45, 0
11, 57460, Note_on_c, 9, 54, 0
11, 57460, Note_on_c, 9, 63, 0
11, 57504, Note_on_c, 9, 31, 48
11, 57504, Note_on_c, 9, 40, 115
11, 57504, Note_on_c, 9, 54, 24
11, 57508, Note_on_c, 9, 31, 0
11, 57508, Note_on_c, 9, 40, 0
11, 57508, Note_on_c, 9, 54, 0
11, 57552, Note_on_c, 9, 35, 88
11, 57552, Note_on_c, 9, 43, 69
11, 57552, Note_on_c, 9, 63, 69
11, 57556, Note_on_c, 9, 35, 0
11, 57556, Note_on_c, 9, 43, 0
11, 57556, Note_on_c, 9, 63, 0
11, 57600, Note_on_c, 9, 31, 51
11, 57600, Note_on_c, 9, 35, 108
11, 57600, Note_on_c, 9, 57, 58
11, 57604, Note_on_c, 9, 31, 0
11, 57604, Note_on_c, 9, 35, 0
11, 57604, Note_on_c, 9, 57, 0
11, 57648, Note_on_c, 9, 42, 49
11, 57652, Note_on_c, 9, 42, 0
11, 57696, Note_on_c, 9, 31, 49
11, 57696, Note_on_c, 9, 42, 79
11, 57700, Note_on_c, 9, 31, 0
11, 57700, Note_on_c, 9, 42, 0
11, 57744, Note_on_c, 9, 35, 110
11, 57744, Note_on_c, 9, 42, 49
11, 57748, Note_on_c, 9, 35, 0
11, 57748, Note_on_c, 9, 42, 0
11, 57792, Note_on_c, 9, 31, 51
11, 57792, Note_on_c, 9, 40, 115
11, 57792, Note_on_c, 9, 42, 80
11, 57796, Note_on_c, 9, 31, 0
11, 57796, Note_on_c, 9, 40, 0
11, 57796, Note_on_c, 9, 42, 0
11, 57840, Note_on_c, 9, 42, 50
11, 57844, Note_on_c, 9, 42, 0
11, 57888, Note_on_c, 9, 31, 50
11, 57888, Note_on_c, 9, 35, 103
11, 57888, Note_on_c, 9, 42, 80
11, 57892, Note_on_c, 9, 31, 0
11, 57892, Note_on_c, 9, 35, 0
11, 57892, Note_on_c, 9, 42, 0
11, 57936, Note_on_c, 9, 42, 50
11, 57940, Note_on_c, 9, 42, 0
11, 57984, Note_on_c, 9, 31, 51
11, 57984, Note_on_c, 9, 42, 79
11, 57988, Note_on_c, 9, 31, 0
11, 57988, Note_on_c, 9, 42, 0
11, 58032, Note_on_c, 9, 42, 49
11, 58036, Note_on_c, 9, 42, 0
11, 58080, Note_on_c, 9, 31, 48
11, 58080, Note_on_c, 9, 42, 76
11, 58080, Note_on_c, 9, 62, 125
11, 58084, Note_on_c, 9, 31, 0
11, 58084, Note_on_c, 9, 42, 0
11, 58084, Note_on_c, 9, 62, 0
11, 58128, Note_on_c, 9, 42, 46
11, 58132, Note_on_c, 9, 42, 0
11, 58176, Note_on_c, 9, 31, 51
11, 58176, Note_on_c, 9, 40, 115
11, 58176, Note_on_c, 9, 42, 77
11, 58176, Note_on_c, 9, 54, 98
11, 58180, Note_on_c, 9, 31, 0
11, 58180, Note_on_c, 9, 40, 0
11, 58180, Note_on_c, 9, 42, 0
11, 58180, Note_on_c, 9, 54, 0
11, 58224, Note_on_c, 9, 42, 47
11, 58224, Note_on_c, 9, 54, 57
11, 58228, Note_on_c, 9, 42, 0
11, 58228, Note_on_c, 9, 54, 0
11, 58272, Note_on_c, 9, 31, 48
11, 58272, Note_on_c, 9, 42, 71
11, 58272, Note_on_c, 9, 54, 37
11, 58272, Note_on_c, 9, 62, 121
11, 58276, Note_on_c, 9, 31, 0
11, 58276, Note_on_c, 9, 42, 0
11, 58276, Note_on_c, 9, 54, 0
11, 58276, Note_on_c, 9, 62, 0
11, 58320, Note_on_c, 9, 35, 88
11, 58320, Note_on_c, 9, 46, 67
11, 58324, Note_on_c, 9, 35, 0
11, 58324, Note_on_c, 9, 46, 0
11, 58368, Note_on_c, 9, 31, 51
11, 58368, Note_on_c, 9, 35, 108
11, 58368, Note_on_c, 9, 42, 72
11, 58372, Note_on_c, 9, 31, 0
11, 58372, Note_on_c, 9, 35, 0
11, 58372, Note_on_c, 9, 42, 0
11, 58416, Note_on_c, 9, 42, 42
11, 58420, Note_on_c, 9, 42, 0
11, 58464, Note_on_c, 9, 31, 49
11, 58464, Note_on_c, 9, 42, 79
11, 58468, Note_on_c, 9, 31, 0
11, 58468, Note_on_c, 9, 42, 0
11, 58512, Note_on_c, 9, 35, 110
11, 58512, Note_on_c, 9, 42, 49
11, 58516, Note_on_c, 9, 35, 0
11, 58516, Note_on_c, 9, 42, 0
11, 58560, Note_on_c, 9, 31, 51
11, 58560, Note_on_c, 9, 40, 115
11, 58560, Note_on_c, 9, 42, 76
11, 58564, Note_on_c, 9, 31, 0
11, 58564, Note_on_c, 9, 40, 0
11, 58564, Note_on_c, 9, 42, 0
11, 58608, Note_on_c, 9, 42, 46
11, 58612, Note_on_c, 9, 42, 0
11, 58656, Note_on_c, 9, 31, 50
11, 58656, Note_on_c, 9, 35, 103
11, 58656, Note_on_c, 9, 42, 77
11, 58660, Note_on_c, 9, 31, 0
11, 58660, Note_on_c, 9, 35, 0
11, 58660, Note_on_c, 9, 42, 0
11, 58704, Note_on_c, 9, 42, 47
11, 58704, Note_on_c, 9, 63, 41
11, 58708, Note_on_c, 9, 42, 0
11, 58708, Note_on_c, 9, 63, 0
11, 58752, Note_on_c, 9, 31, 51
11, 58752, Note_on_c, 9, 42, 76
11, 58752, Note_on_c, 9, 62, 117
11, 58756, Note_on_c, 9, 31, 0
11, 58756, Note_on_c, 9, 42, 0
11, 58756, Note_on_c, 9, 62, 0
11, 58800, Note_on_c, 9, 42, 46
11, 58804, Note_on_c, 9, 42, 0
11, 58848, Note_on_c, 9, 31, 48
11, 58848, Note_on_c, 9, 42, 74
11, 58848, Note_on_c, 9, 63, 65
11, 58852, Note_on_c, 9, 31, 0
11, 58852, Note_on_c, 9, 42, 0
11, 58852, Note_on_c, 9, 63, 0
11, 58896, Note_on_c, 9, 42, 44
11, 58896, Note_on_c, 9, 63, 117
11, 58900, Note_on_c, 9, 42, 0
11, 58900, Note_on_c, 9, 63, 0
11, 58944, Note_on_c, 9, 31, 51
11, 58944, Note_on_c, 9, 40, 115
11, 58944, Note_on_c, 9, 42, 76
11, 58944, Note_on_c, 9, 54, 95
11, 58944, Note_on_c, 9, 62, 121
11, 58948, Note_on_c, 9, 31, 0
11, 58948, Note_on_c, 9, 40, 0
11, 58948, Note_on_c, 9, 42, 0
11, 58948, Note_on_c, 9, 54, 0
11, 58948, Note_on_c, 9, 62, 0
11, 58992, Note_on_c, 9, 42, 46
11, 58992, Note_on_c, 9, 54, 58
11, 58996, Note_on_c, 9, 42, 0
11, 58996, Note_on_c, 9, 54, 0
11, 59040, Note_on_c, 9, 31, 48
11, 59040, Note_on_c, 9, 42, 78
11, 59040, Note_on_c, 9, 54, 42
11, 59040, Note_on_c, 9, 63, 77
11, 59044, Note_on_c, 9, 31, 0
11, 59044, Note_on_c, 9, 42, 0
11, 59044, Note_on_c, 9, 54, 0
11, 59044, Note_on_c, 9, 63, 0
11, 59088, Note_on_c, 9, 35, 88
11, 59088, Note_on_c, 9, 46, 64
11, 59088, Note_on_c, 9, 64, 93
11, 59092, Note_on_c, 9, 35, 0
11, 59092, Note_on_c, 9, 46, 0
11, 59092, Note_on_c, 9, 64, 0
11, 59136, Note_on_c, 9, 31, 51
11, 59136, Note_on_c, 9, 35, 108
11, 59136, Note_on_c, 9, 42, 74
11, 59140, Note_on_c, 9, 31, 0
11, 59140, Note_on_c, 9, 35, 0
11, 59140, Note_on_c, 9, 42, 0
11, 59184, Note_on_c, 9, 42, 44
11, 59188, Note_on_c, 9, 42, 0
11, 59232, Note_on_c, 9, 31, 49
11, 59232, Note_on_c, 9, 42, 77
11, 59236, Note_on_c, 9, 31, 0
11, 59236, Note_on_c, 9, 42, 0
11, 59280, Note_on_c, 9, 35, 110
11, 59280, Note_on_c, 9, 42, 47
11, 59280, Note_on_c, 9, 63, 69
11, 59284, Note_on_c, 9, 35, 0
11, 59284, Note_on_c, 9, 42, 0
11, 59284, Note_on_c, 9, 63, 0
11, 59328, Note_on_c, 9, 31, 51
11, 59328, Note_on_c, 9, 40, 115
11, 59328, Note_on_c, 9, 42, 78
11, 59328, Note_on_c, 9, 62, 113
11, 59332, Note_on_c, 9, 31, 0
11, 59332, Note_on_c, 9, 40, 0
11, 59332, Note_on_c, 9, 42, 0
11, 59332, Note_on_c, 9, 62, 0
11, 59376, Note_on_c, 9, 42, 48
11, 59380, Note_on_c, 9, 42, 0
11, 59424, Note_on_c, 9, 31, 50
11, 59424, Note_on_c, 9, 35, 103
11, 59424, Note_on_c, 9, 42, 74
11, 59428, Note_on_c, 9, 31, 0
11, 59428, Note_on_c, 9, 35, 0
11, 59428, Note_on_c, 9, 42, 0
11, 59472, Note_on_c, 9, 42, 44
11, 59472, Note_on_c, 9, 63, 65
11, 59476, Note_on_c, 9, 42, 0
11, 59476, Note_on_c, 9, 63, 0
11, 59520, Note_on_c, 9, 31, 51
11, 59520, Note_on_c, 9, 42, 74
11, 59524, Note_on_c, 9, 31, 0
11, 59524, Note_on_c, 9, 42, 0
11, 59568, Note_on_c, 9, 42, 44
11, 59568, Note_on_c, 9, 63, 81
11, 59572, Note_on_c, 9, 42, 0
11, 59572, Note_on_c, 9, 63, 0
11, 59616, Note_on_c, 9, 31, 48
11, 59616, Note_on_c, 9, 42, 71
11, 59620, Note_on_c, 9, 31, 0
11, 59620, Note_on_c, 9, 42, 0
11, 59664, Note_on_c, 9, 42, 41
11, 59664, Note_on_c, 9, 63, 93
11, 59668, Note_on_c, 9, 42, 0
11, 59668, Note_on_c, 9, 63, 0
11, 59712, Note_on_c, 9, 31, 51
11, 59712, Note_on_c, 9, 40, 115
11, 59712, Note_on_c, 9, 42, 74
11, 59712, Note_on_c, 9, 54, 95
11, 59716, Note_on_c, 9, 31, 0
11, 59716, Note_on_c, 9, 40, 0
11, 59716, Note_on_c, 9, 42, 0
11, 59716, Note_on_c, 9, 54, 0
11, 59760, Note_on_c, 9, 42, 44
11, 59760, Note_on_c, 9, 54, 56
11, 59760, Note_on_c, 9, 63, 65
11, 59764, Note_on_c, 9, 42, 0
11, 59764, Note_on_c, 9, 54, 0
11, 59764, Note_on_c, 9, 63, 0
11, 59808, Note_on_c, 9, 31, 48
11, 59808, Note_on_c, 9, 42, 75
11, 59808, Note_on_c, 9, 54, 45
11, 59808, Note_on_c, 9, 62, 113
11, 59812, Note_on_c, 9, 31, 0
11, 59812, Note_on_c, 9, 42, 0
11, 59812, Note_on_c, 9, 54, 0
11, 59812, Note_on_c, 9, 62, 0
11, 59856, Note_on_c, 9, 35, 88
11, 59856, Note_on_c, 9, 46, 60
11, 59856, Note_on_c, 9, 63, 73
11, 59860, Note_on_c, 9, 35, 0
11, 59860, Note_on_c, 9, 46, 0
11, 59860, Note_on_c, 9, 63, 0
11, 59904, Note_on_c, 9, 31, 51
11, 59904, Note_on_c, 9, 35, 108
11, 59904, Note_on_c, 9, 42, 72
11, 59904, Note_on_c, 9, 64, 65
11, 59908, Note_on_c, 9, 31, 0
11, 59908, Note_on_c, 9, 35, 0
11, 59908, Note_on_c, 9, 42, 0
11, 59908, Note_on_c, 9, 64, 0
11, 59952, Note_on_c, 9, 42, 42
11, 59956, Note_on_c, 9, 42, 0
11, 60000, Note_on_c, 9, 31, 49
11, 60000, Note_on_c, 9, 42, 74
11, 60004, Note_on_c, 9, 31, 0
11, 60004, Note_on_c, 9, 42, 0
11, 60048, Note_on_c, 9, 35, 110
11, 60048, Note_on_c, 9, 42, 44
11, 60048, Note_on_c, 9, 63, 73
11, 60052, Note_on_c, 9, 35, 0
11, 60052, Note_on_c, 9, 42, 0
11, 60052, Note_on_c, 9, 63, 0
11, 60096, Note_on_c, 9, 31, 51
11, 60096, Note_on_c, 9, 40, 115
11, 60096, Note_on_c, 9, 42, 75
11, 60096, Note_on_c, 9, 62, 113
11, 60100, Note_on_c, 9, 31, 0
11, 60100, Note_on_c, 9, 40, 0
11, 60100, Note_on_c, 9, 42, 0
11, 60100, Note_on_c, 9, 62, 0
11, 60144, Note_on_c, 9, 42, 45
11, 60148, Note_on_c, 9, 42, 0
11, 60192, Note_on_c, 9, 31, 50
11, 60192, Note_on_c, 9, 35, 103
11, 60192, Note_on_c, 9, 42, 72
11, 60192, Note_on_c, 9, 63, 45
11, 60196, Note_on_c, 9, 31, 0
11, 60196, Note_on_c, 9, 35, 0
11, 60196, Note_on_c, 9, 42, 0
11, 60196, Note_on_c, 9, 63, 0
11, 60240, Note_on_c, 9, 42, 42
11, 60240, Note_on_c, 9, 63, 61
11, 60244, Note_on_c, 9, 42, 0
11, 60244, Note_on_c, 9, 63, 0
11, 60288, Note_on_c, 9, 31, 51
11, 60288, Note_on_c, 9, 42, 75
11, 60288, Note_on_c, 9, 75, 80
11, 60292, Note_on_c, 9, 31, 0
11, 60292, Note_on_c, 9, 42, 0
11, 60292, Note_on_c, 9, 75, 0
11, 60336, Note_on_c, 9, 42, 45
11, 60336, Note_on_c, 9, 63, 73
11, 60340, Note_on_c, 9, 42, 0
11, 60340, Note_on_c, 9, 63, 0
11, 60384, Note_on_c, 9, 31, 48
11, 60384, Note_on_c, 9, 42, 74
11, 60384, Note_on_c, 9, 62, 113
11, 60388, Note_on_c, 9, 31, 0
11, 60388, Note_on_c, 9, 42, 0
11, 60388, Note_on_c, 9, 62, 0
11, 60432, Note_on_c, 9, 46, 44
11, 60432, Note_on_c, 9, 63, 65
11, 60432, Note_on_c, 9, 75, 74
11, 60436, Note_on_c, 9, 46, 0
11, 60436, Note_on_c, 9, 63, 0
11, 60436, Note_on_c, 9, 75, 0
11, 60480, Note_on_c, 9, 31, 51
11, 60480, Note_on_c, 9, 45, 86
11, 60480, Note_on_c, 9, 54, 88
11, 60480, Note_on_c, 9, 63, 77
11, 60484, Note_on_c, 9, 31, 0
11, 60484, Note_on_c, 9, 45, 0
11, 60484, Note_on_c, 9, 54, 0
11, 60484, Note_on_c, 9, 63, 0
11, 60528, Note_on_c, 9, 43, 74
11, 60528, Note_on_c, 9, 54, 44
11, 60528, Note_on_c, 9, 63, 69
11, 60532, Note_on_c, 9, 43, 0
11, 60532, Note_on_c, 9, 54, 0
11, 60532, Note_on_c, 9, 63, 0
11, 60576, Note_on_c, 9, 31, 48
11, 60576, Note_on_c, 9, 45, 88
11, 60576, Note_on_c, 9, 54, 24
11, 60576, Note_on_c, 9, 62, 117
11, 60580, Note_on_c, 9, 31, 0
11, 60580, Note_on_c, 9, 45, 0
11, 60580, Note_on_c, 9, 54, 0
11, 60580, Note_on_c, 9, 62, 0
11, 60624, Note_on_c, 9, 35, 88
11, 60624, Note_on_c, 9, 41, 65
11, 60628, Note_on_c, 9, 35, 0
11, 60628, Note_on_c, 9, 41, 0
11, 60672, Note_on_c, 9, 31, 51
11, 60672, Note_on_c, 9, 35, 108
11, 60672, Note_on_c, 9, 49, 64
11, 60676, Note_on_c, 9, 31, 0
11, 60676, Note_on_c, 9, 35, 0
11, 60676, Note_on_c, 9, 49, 0
11, 60720, Note_on_c, 9, 42, 49
11, 60724, Note_on_c, 9, 42, 0
11, 60768, Note_on_c, 9, 31, 49
11, 60768, Note_on_c, 9, 42, 79
11, 60768, Note_on_c, 9, 62, 77
11, 60772, Note_on_c, 9, 31, 0
11, 60772, Note_on_c, 9, 42, 0
11, 60772, Note_on_c, 9, 62, 0
11, 60816, Note_on_c, 9, 35, 110
11, 60816, Note_on_c, 9, 42, 49
11, 60820, Note_on_c, 9, 35, 0
11, 60820, Note_on_c, 9, 42, 0
11, 60864, Note_on_c, 9, 31, 51
11, 60864, Note_on_c, 9, 40, 115
11, 60864, Note_on_c, 9, 42, 80
11, 60868, Note_on_c, 9, 31, 0
11, 60868, Note_on_c, 9, 40, 0
11, 60868, Note_on_c, 9, 42, 0
11, 60912, Note_on_c, 9, 42, 50
11, 60916, Note_on_c, 9, 42, 0
11, 60960, Note_on_c, 9, 31, 50
11, 60960, Note_on_c, 9, 35, 103
11, 60960, Note_on_c, 9, 42, 80
11, 60960, Note_on_c, 9, 62, 101
11, 60964, Note_on_c, 9, 31, 0
11, 60964, Note_on_c, 9, 35, 0
11, 60964, Note_on_c, 9, 42, 0
11, 60964, Note_on_c, 9, 62, 0
11, 61008, Note_on_c, 9, 42, 50
11, 61008, Note_on_c, 9, 63, 77
11, 61012, Note_on_c, 9, 42, 0
11, 61012, Note_on_c, 9, 63, 0
11, 61056, Note_on_c, 9, 31, 51
11, 61056, Note_on_c, 9, 42, 79
11, 61060, Note_on_c, 9, 31, 0
11, 61060, Note_on_c, 9, 42, 0
11, 61104, Note_on_c, 9, 42, 49
11, 61104, Note_on_c, 9, 62, 73
11, 61108, Note_on_c, 9, 42, 0
11, 61108, Note_on_c, 9, 62, 0
11, 61152, Note_on_c, 9, 31, 48
11, 61152, Note_on_c, 9, 42, 76
11, 61152, Note_on_c, 9, 62, 57
11, 61156, Note_on_c, 9, 31, 0
11, 61156, Note_on_c, 9, 42, 0
11, 61156, Note_on_c, 9, 62, 0
11, 61200, Note_on_c, 9, 42, 46
11, 61200, Note_on_c, 9, 62, 61
11, 61204, Note_on_c, 9, 42, 0
11, 61204, Note_on_c, 9, 62, 0
11, 61248, Note_on_c, 9, 31, 51
11, 61248, Note_on_c, 9, 40, 115
11, 61248, Note_on_c, 9, 42, 77
11, 61248, Note_on_c, 9, 54, 98
11, 61248, Note_on_c, 9, 62, 97
11, 61252, Note_on_c, 9, 31, 0
11, 61252, Note_on_c, 9, 40, 0
11, 61252, Note_on_c, 9, 42, 0
11, 61252, Note_on_c, 9, 54, 0
11, 61252, Note_on_c, 9, 62, 0
11, 61296, Note_on_c, 9, 42, 47
11, 61296, Note_on_c, 9, 54, 57
11, 61296, Note_on_c, 9, 63, 81
11, 61300, Note_on_c, 9, 42, 0
11, 61300, Note_on_c, 9, 54, 0
11, 61300, Note_on_c, 9, 63, 0
11, 61344, Note_on_c, 9, 31, 48
11, 61344, Note_on_c, 9, 42, 71
11, 61344, Note_on_c, 9, 54, 37
11, 61344, Note_on_c, 9, 62, 61
11, 61348, Note_on_c, 9, 31, 0
11, 61348, Note_on_c, 9, 42, 0
11, 61348, Note_on_c, 9, 54, 0
11, 61348, Note_on_c, 9, 62, 0
11, 61392, Note_on_c, 9, 35, 88
11, 61392, Note_on_c, 9, 46, 67
11, 61396, Note_on_c, 9, 35, 0
11, 61396, Note_on_c, 9, 46, 0
11, 61440, Note_on_c, 9, 31, 51
11, 61440, Note_on_c, 9, 35, 108
11, 61440, Note_on_c, 9, 42, 72
11, 61440, Note_on_c, 9, 62, 85
11, 61444, Note_on_c, 9, 31, 0
11, 61444, Note_on_c, 9, 35, 0
11, 61444, Note_on_c, 9, 42, 0
11, 61444, Note_on_c, 9, 62, 0
11, 61488, Note_on_c, 9, 42, 42
11, 61492, Note_on_c, 9, 42, 0
11, 61536, Note_on_c, 9, 31, 49
11, 61536, Note_on_c, 9, 42, 79
11, 61540, Note_on_c, 9, 31, 0
11, 61540, Note_on_c, 9, 42, 0
11, 61584, Note_on_c, 9, 35, 110
11, 61584, Note_on_c, 9, 42, 49
11, 61588, Note_on_c, 9, 35, 0
11, 61588, Note_on_c, 9, 42, 0
11, 61632, Note_on_c, 9, 31, 51
11, 61632, Note_on_c, 9, 40, 115
11, 61632, Note_on_c, 9, 42, 76
11, 61636, Note_on_c, 9, 31, 0
11, 61636, Note_on_c, 9, 40, 0
11, 61636, Note_on_c, 9, 42, 0
11, 61680, Note_on_c, 9, 42, 46
11, 61684, Note_on_c, 9, 42, 0
11, 61728, Note_on_c, 9, 31, 50
11, 61728, Note_on_c, 9, 35, 103
11, 61728, Note_on_c, 9, 42, 77
11, 61732, Note_on_c, 9, 31, 0
11, 61732, Note_on_c, 9, 35, 0
11, 61732, Note_on_c, 9, 42, 0
11, 61776, Note_on_c, 9, 42, 47
11, 61776, Note_on_c, 9, 62, 101
11, 61780, Note_on_c, 9, 42, 0
11, 61780, Note_on_c, 9, 62, 0
11, 61824, Note_on_c, 9, 31, 51
11, 61824, Note_on_c, 9, 42, 76
11, 61828, Note_on_c, 9, 31, 0
11, 61828, Note_on_c, 9, 42, 0
11, 61872, Note_on_c, 9, 42, 46
11, 61872, Note_on_c, 9, 62, 81
11, 61876, Note_on_c, 9, 42, 0
11, 61876, Note_on_c, 9, 62, 0
11, 61920, Note_on_c, 9, 31, 48
11, 61920, Note_on_c, 9, 42, 74
11, 61924, Note_on_c, 9, 31, 0
11, 61924, Note_on_c, 9, 42, 0
11, 61968, Note_on_c, 9, 42, 44
11, 61968, Note_on_c, 9, 63, 85
11, 61972, Note_on_c, 9, 42, 0
11, 61972, Note_on_c, 9, 63, 0
11, 62016, Note_on_c, 9, 31, 51
11, 62016, Note_on_c, 9, 40, 115
11, 62016, Note_on_c, 9, 42, 76
11, 62016, Note_on_c, 9, 54, 95
11, 62016, Note_on_c, 9, 64, 101
11, 62020, Note_on_c, 9, 31, 0
11, 62020, Note_on_c, 9, 40, 0
11, 62020, Note_on_c, 9, 42, 0
11, 62020, Note_on_c, 9, 54, 0
11, 62020, Note_on_c, 9, 64, 0
11, 62064, Note_on_c, 9, 42, 46
11, 62064, Note_on_c, 9, 54, 58
11, 62064, Note_on_c, 9, 63, 57
11, 62068, Note_on_c, 9, 42, 0
11, 62068, Note_on_c, 9, 54, 0
11, 62068, Note_on_c, 9, 63, 0
11, 62112, Note_on_c, 9, 31, 48
11, 62112, Note_on_c, 9, 42, 78
11, 62112, Note_on_c, 9, 54, 42
11, 62112, Note_on_c, 9, 62, 121
11, 62116, Note_on_c, 9, 31, 0
11, 62116, Note_on_c, 9, 42, 0
11, 62116, Note_on_c, 9, 54, 0
11, 62116, Note_on_c, 9, 62, 0
11, 62160, Note_on_c, 9, 35, 88
11, 62160, Note_on_c, 9, 46, 64
11, 62164, Note_on_c, 9, 35, 0
11, 62164, Note_on_c, 9, 46, 0
11, 62208, Note_on_c, 9, 31, 51
11, 62208, Note_on_c, 9, 35, 108
11, 62208, Note_on_c, 9, 42, 74
11, 62208, Note_on_c, 9, 62, 113
11, 62212, Note_on_c, 9, 31, 0
11, 62212, Note_on_c, 9, 35, 0
11, 62212, Note_on_c, 9, 42, 0
11, 62212, Note_on_c, 9, 62, 0
11, 62256, Note_on_c, 9, 42, 44
11, 62260, Note_on_c, 9, 42, 0
11, 62304, Note_on_c, 9, 31, 49
11, 62304, Note_on_c, 9, 42, 77
11, 62304, Note_on_c, 9, 63, 69
11, 62308, Note_on_c, 9, 31, 0
11, 62308, Note_on_c, 9, 42, 0
11, 62308, Note_on_c, 9, 63, 0
11, 62352, Note_on_c, 9, 35, 110
11, 62352, Note_on_c, 9, 42, 47
11, 62352, Note_on_c, 9, 62, 97
11, 62356, Note_on_c, 9, 35, 0
11, 62356, Note_on_c, 9, 42, 0
11, 62356, Note_on_c, 9, 62, 0
11, 62400, Note_on_c, 9, 31, 51
11, 62400, Note_on_c, 9, 40, 115
11, 62400, Note_on_c, 9, 42, 78
11, 62400, Note_on_c, 9, 62, 121
11, 62404, Note_on_c, 9, 31, 0
11, 62404, Note_on_c, 9, 40, 0
11, 62404, Note_on_c, 9, 42, 0
11, 62404, Note_on_c, 9, 62, 0
11, 62448, Note_on_c, 9, 42, 48
11, 62452, Note_on_c, 9, 42, 0
11, 62496, Note_on_c, 9, 31, 50
11, 62496, Note_on_c, 9, 35, 103
11, 62496, Note_on_c, 9, 42, 74
11, 62496, Note_on_c, 9, 63, 45
11, 62500, Note_on_c, 9, 31, 0
11, 62500, Note_on_c, 9, 35, 0
11, 62500, Note_on_c, 9, 42, 0
11, 62500, Note_on_c, 9, 63, 0
11, 62544, Note_on_c, 9, 42, 44
11, 62544, Note_on_c, 9, 64, 81
11, 62548, Note_on_c, 9, 42, 0
11, 62548, Note_on_c, 9, 64, 0
11, 62592, Note_on_c, 9, 31, 51
11, 62592, Note_on_c, 9, 42, 74
11, 62596, Note_on_c, 9, 31, 0
11, 62596, Note_on_c, 9, 42, 0
11, 62640, Note_on_c, 9, 42, 44
11, 62640, Note_on_c, 9, 64, 69
11, 62644, Note_on_c, 9, 42, 0
11, 62644, Note_on_c, 9, 64, 0
11, 62688, Note_on_c, 9, 31, 48
11, 62688, Note_on_c, 9, 42, 71
11, 62688, Note_on_c, 9, 63, 81
11, 62692, Note_on_c, 9, 31, 0
11, 62692, Note_on_c, 9, 42, 0
11, 62692, Note_on_c, 9, 63, 0
11, 62736, Note_on_c, 9, 42, 41
11, 62736, Note_on_c, 9, 62, 61
11, 62740, Note_on_c, 9, 42, 0
11, 62740, Note_on_c, 9, 62, 0
11, 62784, Note_on_c, 9, 31, 51
11, 62784, Note_on_c, 9, 40, 115
11, 62784, Note_on_c, 9, 42, 74
11, 62784, Note_on_c, 9, 54, 95
11, 62784, Note_on_c, 9, 62, 113
11, 62788, Note_on_c, 9, 31, 0
11, 62788, Note_on_c, 9, 40, 0
11, 62788, Note_on_c, 9, 42, 0
11, 62788, Note_on_c, 9, 54, 0
11, 62788, Note_on_c, 9, 62, 0
11, 62832, Note_on_c, 9, 42, 44
11, 62832, Note_on_c, 9, 54, 56
11, 62836, Note_on_c, 9, 42, 0
11, 62836, Note_on_c, 9, 54, 0
11, 62880, Note_on_c, 9, 31, 48
11, 62880, Note_on_c, 9, 42, 75
11, 62880, Note_on_c, 9, 54, 45
11, 62880, Note_on_c, 9, 63, 73
11, 62884, Note_on_c, 9, 31, 0
11, 62884, Note_on_c, 9, 42, 0
11, 62884, Note_on_c, 9, 54, 0
11, 62884, Note_on_c, 9, 63, 0
11, 62928, Note_on_c, 9, 35, 88
11, 62928, Note_on_c, 9, 46, 60
11, 62928, Note_on_c, 9, 62, 65
11, 62932, Note_on_c, 9, 35, 0
11, 62932, Note_on_c, 9, 46, 0
11, 62932, Note_on_c, 9, 62, 0
11, 62976, Note_on_c, 9, 31, 51
11, 62976, Note_on_c, 9, 35, 108
11, 62976, Note_on_c, 9, 42, 72
11, 62980, Note_on_c, 9, 31, 0
11, 62980, Note_on_c, 9, 35, 0
11, 62980, Note_on_c, 9, 42, 0
11, 63024, Note_on_c, 9, 42, 42
11, 63024, Note_on_c, 9, 64, 65
11, 63028, Note_on_c, 9, 42, 0
11, 63028, Note_on_c, 9, 64, 0
11, 63072, Note_on_c, 9, 31, 49
11, 63072, Note_on_c, 9, 42, 74
11, 63072, Note_on_c, 9, 63, 65
11, 63076, Note_on_c, 9, 31, 0
11, 63076, Note_on_c, 9, 42, 0
11, 63076, Note_on_c, 9, 63, 0
11, 63120, Note_on_c, 9, 35, 110
11, 63120, Note_on_c, 9, 42, 44
11, 63120, Note_on_c, 9, 62, 93
11, 63124, Note_on_c, 9, 35, 0
11, 63124, Note_on_c, 9, 42, 0
11, 63124, Note_on_c, 9, 62, 0
11, 63168, Note_on_c, 9, 31, 51
11, 63168, Note_on_c, 9, 40, 115
11, 63168, Note_on_c, 9, 42, 75
11, 63168, Note_on_c, 9, 62, 121
11, 63172, Note_on_c, 9, 31, 0
11, 63172, Note_on_c, 9, 40, 0
11, 63172, Note_on_c, 9, 42, 0
11, 63172, Note_on_c, 9, 62, 0
11, 63216, Note_on_c, 9, 42, 45
11, 63220, Note_on_c, 9, 42, 0
11, 63264, Note_on_c, 9, 31, 50
11, 63264, Note_on_c, 9, 35, 103
11, 63264, Note_on_c, 9, 42, 72
11, 63264, Note_on_c, 9, 64, 65
11, 63268, Note_on_c, 9, 31, 0
11, 63268, Note_on_c, 9, 35, 0
11, 63268, Note_on_c, 9, 42, 0
11, 63268, Note_on_c, 9, 64, 0
11, 63312, Note_on_c, 9, 42, 42
11, 63312, Note_on_c, 9, 63, 69
11, 63316, Note_on_c, 9, 42, 0
11, 63316, Note_on_c, 9, 63, 0
11, 63360, Note_on_c, 9, 31, 51
11, 63360, Note_on_c, 9, 42, 75
11, 63360, Note_on_c, 9, 75, 80
11, 63364, Note_on_c, 9, 31, 0
11, 63364, Note_on_c, 9, 42, 0
11, 63364, Note_on_c, 9, 75, 0
11, 63408, Note_on_c, 9, 42, 45
11, 63408, Note_on_c, 9, 63, 81
11, 63412, Note_on_c, 9, 42, 0
11, 63412, Note_on_c, 9, 63, 0
11, 63456, Note_on_c, 9, 31, 48
11, 63456, Note_on_c, 9, 42, 74
11, 63456, Note_on_c, 9, 62, 65
11, 63460, Note_on_c, 9, 31, 0
11, 63460, Note_on_c, 9, 42, 0
11, 63460, Note_on_c, 9, 62, 0
11, 63504, Note_on_c, 9, 46, 59
11, 63504, Note_on_c, 9, 75, 74
11, 63508, Note_on_c, 9, 46, 0
11, 63508, Note_on_c, 9, 75, 0
11, 63552, Note_on_c, 9, 31, 51
11, 63552, Note_on_c, 9, 40, 115
11, 63552, Note_on_c, 9, 54, 88
11, 63552, Note_on_c, 9, 62, 113
11, 63556, Note_on_c, 9, 31, 0
11, 63556, Note_on_c, 9, 40, 0
11, 63556, Note_on_c, 9, 54, 0
11, 63556, Note_on_c, 9, 62, 0
11, 63600, Note_on_c, 9, 45, 75
11, 63600, Note_on_c, 9, 54, 44
11, 63600, Note_on_c, 9, 63, 45
11, 63604, Note_on_c, 9, 45, 0
11, 63604, Note_on_c, 9, 54, 0
11, 63604, Note_on_c, 9, 63, 0
11, 63648, Note_on_c, 9, 31, 48
11, 63648, Note_on_c, 9, 40, 115
11, 63648, Note_on_c, 9, 54, 24
11, 63652, Note_on_c, 9, 31, 0
11, 63652, Note_on_c, 9, 40, 0
11, 63652, Note_on_c, 9, 54, 0
11, 63696, Note_on_c, 9, 35, 88
11, 63696, Note_on_c, 9, 43, 62
11, 63696, Note_on_c, 9, 63, 69
11, 63700, Note_on_c, 9, 35, 0
11, 63700, Note_on_c, 9, 43, 0
11, 63700, Note_on_c, 9, 63, 0
11, 63744, Note_on_c, 9, 31, 51
11, 63744, Note_on_c, 9, 35, 108
11, 63744, Note_on_c, 9, 57, 58
11, 63748, Note_on_c, 9, 31, 0
11, 63748, Note_on_c, 9, 35, 0
11, 63748, Note_on_c, 9, 57, 0
11, 63792, Note_on_c, 9, 42, 49
11, 63796, Note_on_c, 9, 42, 0
11, 63840, Note_on_c, 9, 31, 49
11, 63840, Note_on_c, 9, 42, 79
11, 63844, Note_on_c, 9, 31, 0
11, 63844, Note_on_c, 9, 42, 0
11, 63888, Note_on_c, 9, 35, 110
11, 63888, Note_on_c, 9, 42, 49
11, 63892, Note_on_c, 9, 35, 0
11, 63892, Note_on_c, 9, 42, 0
11, 63936, Note_on_c, 9, 31, 51
11, 63936, Note_on_c, 9, 40, 115
11, 63936, Note_on_c, 9, 42, 80
11, 63940, Note_on_c, 9, 31, 0
11, 63940, Note_on_c, 9, 40, 0
11, 63940, Note_on_c, 9, 42, 0
11, 63984, Note_on_c, 9, 42, 50
11, 63988, Note_on_c, 9, 42, 0
11, 64032, Note_on_c, 9, 31, 50
11, 64032, Note_on_c, 9, 35, 103
11, 64032, Note_on_c, 9, 42, 80
11, 64036, Note_on_c, 9, 31, 0
11, 64036, Note_on_c, 9, 35, 0
11, 64036, Note_on_c, 9, 42, 0
11, 64080, Note_on_c, 9, 42, 50
11, 64084, Note_on_c, 9, 42, 0
11, 64128, Note_on_c, 9, 31, 51
11, 64128, Note_on_c, 9, 42, 79
11, 64132, Note_on_c, 9, 31, 0
11, 64132, Note_on_c, 9, 42, 0
11, 64162, Control_c, 9, 7, 111
11, 64176, Note_on_c, 9, 42, 49
11, 64180, Note_on_c, 9, 42, 0
11, 64224, Note_on_c, 9, 31, 48
11, 64224, Note_on_c, 9, 42, 76
11, 64224, Note_on_c, 9, 62, 125
11, 64228, Note_on_c, 9, 31, 0
11, 64228, Note_on_c, 9, 42, 0
11, 64228, Note_on_c, 9, 62, 0
11, 64272, Note_on_c, 9, 42, 46
11, 64276, Note_on_c, 9, 42, 0
11, 64320, Note_on_c, 9, 31, 51
11, 64320, Note_on_c, 9, 40, 115
11, 64320, Note_on_c, 9, 42, 77
11, 64320, Note_on_c, 9, 54, 98
11, 64324, Note_on_c, 9, 31, 0
11, 64324, Note_on_c, 9, 40, 0
11, 64324, Note_on_c, 9, 42, 0
11, 64324, Note_on_c, 9, 54, 0
11, 64368, Note_on_c, 9, 42, 47
11, 64368, Note_on_c, 9, 54, 57
11, 64372, Note_on_c, 9, 42, 0
11, 64372, Note_on_c, 9, 54, 0
11, 64391, Control_c, 9, 7, 106
11, 64416, Note_on_c, 9, 31, 48
11, 64416, Note_on_c, 9, 42, 71
11, 64416, Note_on_c, 9, 54, 37
11, 64416, Note_on_c, 9, 62, 121
11, 64420, Note_on_c, 9, 31, 0
11, 64420, Note_on_c, 9, 42, 0
11, 64420, Note_on_c, 9, 54, 0
11, 64420, Note_on_c, 9, 62, 0
11, 64435, Control_c, 9, 7, 102
11, 64464, Note_on_c, 9, 35, 88
11, 64464, Note_on_c, 9, 46, 67
11, 64468, Note_on_c, 9, 35, 0
11, 64468, Note_on_c, 9, 46, 0
11, 64512, Note_on_c, 9, 31, 51
11, 64512, Note_on_c, 9, 35, 108
11, 64512, Note_on_c, 9, 42, 72
11, 64516, Note_on_c, 9, 31, 0
11, 64516, Note_on_c, 9, 35, 0
11, 64516, Note_on_c, 9, 42, 0
11, 64560, Note_on_c, 9, 42, 42
11, 64564, Note_on_c, 9, 42, 0
11, 64608, Note_on_c, 9, 31, 49
11, 64608, Note_on_c, 9, 42, 79
11, 64612, Note_on_c, 9, 31, 0
11, 64612, Note_on_c, 9, 42, 0
11, 64618, Control_c, 9, 7, 97
11, 64656, Note_on_c, 9, 35, 110
11, 64656, Note_on_c, 9, 42, 49
11, 64660, Note_on_c, 9, 35, 0
11, 64660, Note_on_c, 9, 42, 0
11, 64704, Note_on_c, 9, 31, 51
11, 64704, Note_on_c, 9, 40, 115
11, 64704, Note_on_c, 9, 42, 76
11, 64708, Note_on_c, 9, 31, 0
11, 64708, Note_on_c, 9, 40, 0
11, 64708, Note_on_c, 9, 42, 0
11, 64752, Note_on_c, 9, 42, 46
11, 64756, Note_on_c, 9, 42, 0
11, 64795, Control_c, 9, 7, 92
11, 64800, Note_on_c, 9, 31, 50
11, 64800, Note_on_c, 9, 35, 103
11, 64800, Note_on_c, 9, 42, 77
11, 64804, Note_on_c, 9, 31, 0
11, 64804, Note_on_c, 9, 35, 0
11, 64804, Note_on_c, 9, 42, 0
11, 64848, Note_on_c, 9, 42, 47
11, 64848, Note_on_c, 9, 63, 41
11, 64852, Note_on_c, 9, 42, 0
11, 64852, Note_on_c, 9, 63, 0
11, 64896, Note_on_c, 9, 31, 51
11, 64896, Note_on_c, 9, 42, 76
11, 64896, Note_on_c, 9, 62, 117
11, 64900, Note_on_c, 9, 31, 0
11, 64900, Note_on_c, 9, 42, 0
11, 64900, Note_on_c, 9, 62, 0
11, 64944, Note_on_c, 9, 42, 46
11, 64948, Note_on_c, 9, 42, 0
11, 64992, Note_on_c, 9, 31, 48
11, 64992, Note_on_c, 9, 42, 74
11, 64992, Note_on_c, 9, 63, 65
11, 64996, Note_on_c, 9, 31, 0
11, 64996, Note_on_c, 9, 42, 0
11, 64996, Note_on_c, 9, 63, 0
11, 65040, Note_on_c, 9, 42, 44
11, 65040, Note_on_c, 9, 63, 117
11, 65044, Note_on_c, 9, 42, 0
11, 65044, Note_on_c, 9, 63, 0
11, 65088, Note_on_c, 9, 31, 51
11, 65088, Note_on_c, 9, 40, 115
11, 65088, Note_on_c, 9, 42, 76
11, 65088, Note_on_c, 9, 54, 95
11, 65088, Note_on_c, 9, 62, 121
11, 65092, Note_on_c, 9, 31, 0
11, 65092, Note_on_c, 9, 40, 0
11, 65092, Note_on_c, 9, 42, 0
11, 65092, Note_on_c, 9, 54, 0
11, 65092, Note_on_c, 9, 62, 0
11, 65096, Control_c, 9, 7, 88
11, 65136, Note_on_c, 9, 42, 46
11, 65136, Note_on_c, 9, 54, 58
11, 65140, Note_on_c, 9, 42, 0
11, 65140, Note_on_c, 9, 54, 0
11, 65184, Note_on_c, 9, 31, 48
11, 65184, Note_on_c, 9, 42, 78
11, 65184, Note_on_c, 9, 54, 42
11, 65184, Note_on_c, 9, 63, 77
11, 65188, Note_on_c, 9, 31, 0
11, 65188, Note_on_c, 9, 42, 0
11, 65188, Note_on_c, 9, 54, 0
11, 65188, Note_on_c, 9, 63, 0
11, 65232, Note_on_c, 9, 35, 88
11, 65232, Note_on_c, 9, 46, 64
11, 65232, Note_on_c, 9, 64, 93
11, 65236, Note_on_c, 9, 35, 0
11, 65236, Note_on_c, 9, 46, 0
11, 65236, Note_on_c, 9, 64, 0
11, 65250, Control_c, 9, 7, 81
11, 65280, Note_on_c, 9, 31, 51
11, 65280, Note_on_c, 9, 35, 108
11, 65280, Note_on_c, 9, 42, 74
11, 65284, Note_on_c, 9, 31, 0
11, 65284, Note_on_c, 9, 35, 0
11, 65284, Note_on_c, 9, 42, 0
11, 65328, Note_on_c, 9, 42, 44
11, 65332, Note_on_c, 9, 42, 0
11, 65376, Note_on_c, 9, 31, 49
11, 65376, Note_on_c, 9, 42, 77
11, 65380, Note_on_c, 9, 31, 0
11, 65380, Note_on_c, 9, 42, 0
11, 65424, Note_on_c, 9, 35, 110
11, 65424, Note_on_c, 9, 42, 47
11, 65424, Note_on_c, 9, 63, 69
11, 65428, Note_on_c, 9, 35, 0
11, 65428, Note_on_c, 9, 42, 0
11, 65428, Note_on_c, 9, 63, 0
11, 65472, Note_on_c, 9, 31, 51
11, 65472, Note_on_c, 9, 40, 115
11, 65472, Note_on_c, 9, 42, 78
11, 65472, Note_on_c, 9, 62, 113
11, 65476, Note_on_c, 9, 31, 0
11, 65476, Note_on_c, 9, 40, 0
11, 65476, Note_on_c, 9, 42, 0
11, 65476, Note_on_c, 9, 62, 0
11, 65520, Note_on_c, 9, 42, 48
11, 65524, Note_on_c, 9, 42, 0
11, 65568, Note_on_c, 9, 31, 50
11, 65568, Note_on_c, 9, 35, 103
11, 65568, Note_on_c, 9, 42, 74
11, 65572, Note_on_c, 9, 31, 0
11, 65572, Note_on_c, 9, 35, 0
11, 65572, Note_on_c, 9, 42, 0
11, 65586, Control_c, 9, 7, 77
11, 65616, Note_on_c, 9, 42, 44
11, 65616, Note_on_c, 9, 63, 65
11, 65620, Note_on_c, 9, 42, 0
11, 65620, Note_on_c, 9, 63, 0
11, 65664, Note_on_c, 9, 31, 51
11, 65664, Note_on_c, 9, 42, 74
11, 65668, Note_on_c, 9, 31, 0
11, 65668, Note_on_c, 9, 42, 0
11, 65691, Control_c, 9, 7, 72
11, 65712, Note_on_c, 9, 42, 44
11, 65712, Note_on_c, 9, 63, 81
11, 65716, Note_on_c, 9, 42, 0
11, 65716, Note_on_c, 9, 63, 0
11, 65760, Note_on_c, 9, 31, 48
11, 65760, Note_on_c, 9, 42, 71
11, 65764, Note_on_c, 9, 31, 0
11, 65764, Note_on_c, 9, 42, 0
11, 65808, Note_on_c, 9, 42, 41
11, 65808, Note_on_c, 9, 63, 93
11, 65812, Note_on_c, 9, 42, 0
11, 65812, Note_on_c, 9, 63, 0
11, 65856, Note_on_c, 9, 31, 51
11, 65856, Note_on_c, 9, 40, 115
11, 65856, Note_on_c, 9, 42, 74
11, 65856, Note_on_c, 9, 54, 95
11, 65860, Note_on_c, 9, 31, 0
11, 65860, Note_on_c, 9, 40, 0
11, 65860, Note_on_c, 9, 42, 0
11, 65860, Note_on_c, 9, 54, 0
11, 65868, Control_c, 9, 7, 68
11, 65904, Note_on_c, 9, 42, 44
11, 65904, Note_on_c, 9, 54, 56
11, 65904, Note_on_c, 9, 63, 65
11, 65908, Note_on_c, 9, 42, 0
11, 65908, Note_on_c, 9, 54, 0
11, 65908, Note_on_c, 9, 63, 0
11, 65952, Note_on_c, 9, 31, 48
11, 65952, Note_on_c, 9, 42, 75
11, 65952, Note_on_c, 9, 54, 45
11, 65952, Note_on_c, 9, 62, 113
11, 65956, Note_on_c, 9, 31, 0
11, 65956, Note_on_c, 9, 42, 0
11, 65956, Note_on_c, 9, 54, 0
11, 65956, Note_on_c, 9, 62, 0
11, 66000, Note_on_c, 9, 35, 88
11, 66000, Note_on_c, 9, 46, 60
11, 66000, Note_on_c, 9, 63, 73
11, 66004, Note_on_c, 9, 35, 0
11, 66004, Note_on_c, 9, 46, 0
11, 66004, Note_on_c, 9, 63, 0
11, 66048, Note_on_c, 9, 31, 51
11, 66048, Note_on_c, 9, 35, 108
11, 66048, Note_on_c, 9, 42, 72
11, 66048, Note_on_c, 9, 64, 65
11, 66052, Note_on_c, 9, 31, 0
11, 66052, Note_on_c, 9, 35, 0
11, 66052, Note_on_c, 9, 42, 0
11, 66052, Note_on_c, 9, 64, 0
11, 66096, Note_on_c, 9, 42, 42
11, 66100, Note_on_c, 9, 42, 0
11, 66108, Control_c, 9, 7, 60
11, 66144, Note_on_c, 9, 31, 49
11, 66144, Note_on_c, 9, 42, 79
11, 66148, Note_on_c, 9, 31, 0
11, 66148, Note_on_c, 9, 42, 0
11, 66192, Note_on_c, 9, 35, 110
11, 66192, Note_on_c, 9, 42, 49
11, 66192, Note_on_c, 9, 63, 73
11, 66196, Note_on_c, 9, 35, 0
11, 66196, Note_on_c, 9, 42, 0
11, 66196, Note_on_c, 9, 63, 0
11, 66240, Note_on_c, 9, 31, 51
11, 66240, Note_on_c, 9, 40, 115
11, 66240, Note_on_c, 9, 42, 76
11, 66240, Note_on_c, 9, 62, 113
11, 66244, Note_on_c, 9, 31, 0
11, 66244, Note_on_c, 9, 40, 0
11, 66244, Note_on_c, 9, 42, 0
11, 66244, Note_on_c, 9, 62, 0
11, 66288, Note_on_c, 9, 42, 46
11, 66292, Note_on_c, 9, 42, 0
11, 66336, Note_on_c, 9, 31, 50
11, 66336, Note_on_c, 9, 35, 103
11, 66336, Note_on_c, 9, 42, 77
11, 66336, Note_on_c, 9, 63, 45
11, 66340, Note_on_c, 9, 31, 0
11, 66340, Note_on_c, 9, 35, 0
11, 66340, Note_on_c, 9, 42, 0
11, 66340, Note_on_c, 9, 63, 0
11, 66384, Note_on_c, 9, 42, 47
11, 66384, Note_on_c, 9, 63, 61
11, 66388, Note_on_c, 9, 42, 0
11, 66388, Note_on_c, 9, 63, 0
11, 66432, Note_on_c, 9, 31, 51
11, 66432, Note_on_c, 9, 42, 76
11, 66432, Note_on_c, 9, 75, 80
11, 66436, Note_on_c, 9, 31, 0
11, 66436, Note_on_c, 9, 42, 0
11, 66436, Note_on_c, 9, 75, 0
11, 66466, Control_c, 9, 7, 54
11, 66480, Note_on_c, 9, 42, 46
11, 66480, Note_on_c, 9, 63, 73
11, 66484, Note_on_c, 9, 42, 0
11, 66484, Note_on_c, 9, 63, 0
11, 66528, Note_on_c, 9, 31, 48
11, 66528, Note_on_c, 9, 42, 74
11, 66528, Note_on_c, 9, 62, 113
11, 66532, Note_on_c, 9, 31, 0
11, 66532, Note_on_c, 9, 42, 0
11, 66532, Note_on_c, 9, 62, 0
11, 66576, Note_on_c, 9, 42, 44
11, 66576, Note_on_c, 9, 63, 65
11, 66576, Note_on_c, 9, 75, 74
11, 66580, Note_on_c, 9, 42, 0
11, 66580, Note_on_c, 9, 63, 0
11, 66580, Note_on_c, 9, 75, 0
11, 66624, Note_on_c, 9, 31, 51
11, 66624, Note_on_c, 9, 40, 115
11, 66624, Note_on_c, 9, 42, 76
11, 66624, Note_on_c, 9, 54, 88
11, 66624, Note_on_c, 9, 63, 77
11, 66628, Note_on_c, 9, 31, 0
11, 66628, Note_on_c, 9, 40, 0
11, 66628, Note_on_c, 9, 42, 0
11, 66628, Note_on_c, 9, 54, 0
11, 66628, Note_on_c, 9, 63, 0
11, 66672, Note_on_c, 9, 42, 46
11, 66672, Note_on_c, 9, 54, 44
11, 66672, Note_on_c, 9, 63, 69
11, 66675, Control_c, 9, 7, 49
11, 66676, Note_on_c, 9, 42, 0
11, 66676, Note_on_c, 9, 54, 0
11, 66676, Note_on_c, 9, 63, 0
11, 66720, Note_on_c, 9, 31, 48
11, 66720, Note_on_c, 9, 42, 78
11, 66720, Note_on_c, 9, 54, 24
11, 66720, Note_on_c, 9, 62, 117
11, 66724, Note_on_c, 9, 31, 0
11, 66724, Note_on_c, 9, 42, 0
11, 66724, Note_on_c, 9, 54, 0
11, 66724, Note_on_c, 9, 62, 0
11, 66768, Note_on_c, 9, 35, 88
11, 66768, Note_on_c, 9, 46, 64
11, 66772, Note_on_c, 9, 35, 0
11, 66772, Note_on_c, 9, 46, 0
11, 66816, Note_on_c, 9, 31, 51
11, 66816, Note_on_c, 9, 35, 108
11, 66820, Note_on_c, 9, 31, 0
11, 66820, Note_on_c, 9, 35, 0
11, 66864, Note_on_c, 9, 42, 49
11, 66868, Note_on_c, 9, 42, 0
11, 66912, Note_on_c, 9, 31, 49
11, 66912, Note_on_c, 9, 42, 79
11, 66912, Note_on_c, 9, 62, 77
11, 66916, Note_on_c, 9, 31, 0
11, 66916, Note_on_c, 9, 42, 0
11, 66916, Note_on_c, 9, 62, 0
11, 66960, Note_on_c, 9, 35, 110
11, 66960, Note_on_c, 9, 42, 49
11, 66963, Control_c, 9, 7, 46
11, 66964, Note_on_c, 9, 35, 0
11, 66964, Note_on_c, 9, 42, 0
11, 67008, Note_on_c, 9, 31, 51
11, 67008, Note_on_c, 9, 40, 115
11, 67008, Note_on_c, 9, 42, 80
11, 67012, Note_on_c, 9, 31, 0
11, 67012, Note_on_c, 9, 40, 0
11, 67012, Note_on_c, 9, 42, 0
11, 67056, Note_on_c, 9, 42, 50
11, 67060, Note_on_c, 9, 42, 0
11, 67104, Note_on_c, 9, 31, 50
11, 67104, Note_on_c, 9, 35, 103
11, 67104, Note_on_c, 9, 42, 80
11, 67104, Note_on_c, 9, 62, 101
11, 67108, Note_on_c, 9, 31, 0
11, 67108, Note_on_c, 9, 35, 0
11, 67108, Note_on_c, 9, 42, 0
11, 67108, Note_on_c, 9, 62, 0
11, 67152, Note_on_c, 9, 42, 50
11, 67152, Note_on_c, 9, 63, 77
11, 67156, Note_on_c, 9, 42, 0
11, 67156, Note_on_c, 9, 63, 0
11, 67200, Note_on_c, 9, 31, 51
11, 67200, Note_on_c, 9, 42, 79
11, 67204, Note_on_c, 9, 31, 0
11, 67204, Note_on_c, 9, 42, 0
11, 67248, Note_on_c, 9, 42, 49
11, 67248, Note_on_c, 9, 62, 73
11, 67252, Note_on_c, 9, 42, 0
11, 67252, Note_on_c, 9, 62, 0
11, 67285, Control_c, 9, 7, 37
11, 67296, Note_on_c, 9, 31, 48
11, 67296, Note_on_c, 9, 42, 76
11, 67296, Note_on_c, 9, 63, 57
11, 67300, Note_on_c, 9, 31, 0
11, 67300, Note_on_c, 9, 42, 0
11, 67300, Note_on_c, 9, 63, 0
11, 67344, Note_on_c, 9, 42, 46
11, 67344, Note_on_c, 9, 64, 61
11, 67348, Note_on_c, 9, 42, 0
11, 67348, Note_on_c, 9, 64, 0
11, 67354, Control_c, 9, 7, 35
11, 67392, Note_on_c, 9, 31, 51
11, 67392, Note_on_c, 9, 40, 115
11, 67392, Note_on_c, 9, 42, 77
11, 67392, Note_on_c, 9, 54, 98
11, 67392, Note_on_c, 9, 62, 97
11, 67396, Note_on_c, 9, 31, 0
11, 67396, Note_on_c, 9, 40, 0
11, 67396, Note_on_c, 9, 42, 0
11, 67396, Note_on_c, 9, 54, 0
11, 67396, Note_on_c, 9, 62, 0
11, 67440, Note_on_c, 9, 42, 47
11, 67440, Note_on_c, 9, 54, 57
11, 67440, Note_on_c, 9, 63, 81
11, 67444, Note_on_c, 9, 42, 0
11, 67444, Note_on_c, 9, 54, 0
11, 67444, Note_on_c, 9, 63, 0
11, 67488, Note_on_c, 9, 31, 48
11, 67488, Note_on_c, 9, 42, 71
11, 67488, Note_on_c, 9, 54, 37
11, 67488, Note_on_c, 9, 62, 61
11, 67492, Note_on_c, 9, 31, 0
11, 67492, Note_on_c, 9, 42, 0
11, 67492, Note_on_c, 9, 54, 0
11, 67492, Note_on_c, 9, 62, 0
11, 67536, Note_on_c, 9, 35, 88
11, 67536, Note_on_c, 9, 46, 67
11, 67540, Note_on_c, 9, 35, 0
11, 67540, Note_on_c, 9, 46, 0
11, 67555, Control_c, 9, 7, 29
11, 67584, Note_on_c, 9, 31, 51
11, 67584, Note_on_c, 9, 35, 108
11, 67584, Note_on_c, 9, 42, 72
11, 67584, Note_on_c, 9, 62, 85
11, 67588, Note_on_c, 9, 31, 0
11, 67588, Note_on_c, 9, 35, 0
11, 67588, Note_on_c, 9, 42, 0
11, 67588, Note_on_c, 9, 62, 0
11, 67632, Note_on_c, 9, 42, 42
11, 67636, Note_on_c, 9, 42, 0
11, 67680, Note_on_c, 9, 31, 49
11, 67680, Note_on_c, 9, 42, 79
11, 67684, Note_on_c, 9, 31, 0
11, 67684, Note_on_c, 9, 42, 0
11, 67728, Note_on_c, 9, 35, 110
11, 67728, Note_on_c, 9, 42, 49
11, 67732, Note_on_c, 9, 35, 0
11, 67732, Note_on_c, 9, 42, 0
11, 67776, Note_on_c, 9, 31, 51
11, 67776, Note_on_c, 9, 40, 115
11, 67776, Note_on_c, 9, 42, 76
11, 67780, Note_on_c, 9, 31, 0
11, 67780, Note_on_c, 9, 40, 0
11, 67780, Note_on_c, 9, 42, 0
11, 67824, Note_on_c, 9, 42, 46
11, 67828, Note_on_c, 9, 42, 0
11, 67872, Note_on_c, 9, 31, 50
11, 67872, Note_on_c, 9, 35, 103
11, 67872, Note_on_c, 9, 42, 77
11, 67876, Note_on_c, 9, 31, 0
11, 67876, Note_on_c, 9, 35, 0
11, 67876, Note_on_c, 9, 42, 0
11, 67910, Control_c, 9, 7, 25
11, 67920, Note_on_c, 9, 42, 47
11, 67920, Note_on_c, 9, 62, 101
11, 67924, Note_on_c, 9, 42, 0
11, 67924, Note_on_c, 9, 62, 0
11, 67968, Note_on_c, 9, 31, 51
11, 67968, Note_on_c, 9, 42, 76
11, 67972, Note_on_c, 9, 31, 0
11, 67972, Note_on_c, 9, 42, 0
11, 68016, Note_on_c, 9, 42, 46
11, 68020, Note_on_c, 9, 42, 0
11, 68055, Control_c, 9, 7, 18
11, 68064, Note_on_c, 9, 31, 48
11, 68064, Note_on_c, 9, 42, 74
11, 68068, Note_on_c, 9, 31, 0
11, 68068, Note_on_c, 9, 42, 0
11, 68110, Control_c, 9, 7, 11
11, 68112, Note_on_c, 9, 42, 44
11, 68116, Note_on_c, 9, 42, 0
11, 68168, Control_c, 9, 7, 0
11, 68222, Control_c, 9, 120, 0
11, 68222, End_track
12, 0, Start_track
12, 0, Channel_prefix, 10
12, 0, Text_t, "Fr.horn "
12, 273, Control_c, 10, 121, 0
12, 324, Control_c, 10, 7, 98
12, 325, Control_c, 10, 10, 33
12, 326, Control_c, 10, 11, 127
12, 327, Control_c, 10, 91, 106
12, 328, Control_c, 10, 93, 72
12, 329, Pitch_bend_c, 10, 8192
12, 371, Control_c, 10, 0, 0
12, 426, Program_c, 10, 60
12, 6910, Note_on_c, 10, 58, 65
12, 6913, Note_on_c, 10, 55, 63
12, 7195, Note_on_c, 10, 58, 0
12, 7198, Note_on_c, 10, 55, 0
12, 7198, Note_on_c, 10, 56, 64
12, 7202, Note_on_c, 10, 60, 58
12, 7675, Note_on_c, 10, 56, 0
12, 7679, Note_on_c, 10, 55, 67
12, 7679, Note_on_c, 10, 60, 0
12, 7681, Note_on_c, 10, 58, 68
12, 7964, Note_on_c, 10, 55, 0
12, 7966, Note_on_c, 10, 56, 66
12, 7966, Note_on_c, 10, 58, 0
12, 7968, Note_on_c, 10, 60, 64
12, 8113, Note_on_c, 10, 63, 74
12, 8398, Note_on_c, 10, 63, 0
12, 8443, Note_on_c, 10, 56, 0
12, 8445, Note_on_c, 10, 60, 0
12, 8446, Note_on_c, 10, 58, 68
12, 8450, Note_on_c, 10, 55, 67
12, 8731, Note_on_c, 10, 58, 0
12, 8735, Note_on_c, 10, 55, 0
12, 8735, Note_on_c, 10, 56, 64
12, 8736, Note_on_c, 10, 60, 63
12, 9212, Note_on_c, 10, 56, 0
12, 9213, Note_on_c, 10, 60, 0
12, 9216, Note_on_c, 10, 55, 65
12, 9217, Note_on_c, 10, 58, 68
12, 9218, Note_on_c, 10, 72, 70
12, 9501, Note_on_c, 10, 55, 0
12, 9502, Note_on_c, 10, 58, 0
12, 9503, Note_on_c, 10, 56, 67
12, 9504, Note_on_c, 10, 60, 60
12, 9765, Note_on_c, 10, 72, 0
12, 9980, Note_on_c, 10, 56, 0
12, 9981, Note_on_c, 10, 60, 0
12, 23807, Note_on_c, 10, 55, 63
12, 23809, Note_on_c, 10, 58, 65
12, 23871, Note_off_c, 15, 64, 64
12, 24092, Note_on_c, 10, 55, 0
12, 24094, Note_on_c, 10, 58, 0
12, 24094, Note_on_c, 10, 60, 58
12, 24096, Note_on_c, 10, 56, 64
12, 24260, Note_off_c, 15, 64, 69
12, 24460, Note_off_c, 15, 64, 77
12, 24571, Note_on_c, 10, 60, 0
12, 24573, Note_on_c, 10, 56, 0
12, 24574, Note_on_c, 10, 58, 68
12, 24578, Note_on_c, 10, 55, 67
12, 24655, Note_off_c, 15, 64, 80
12, 24859, Note_on_c, 10, 58, 0
12, 24863, Note_on_c, 10, 55, 0
12, 24863, Note_on_c, 10, 60, 64
12, 24864, Note_on_c, 10, 56, 66
12, 25010, Note_on_c, 10, 63, 74
12, 25295, Note_on_c, 10, 63, 0
12, 25340, Note_on_c, 10, 60, 0
12, 25341, Note_on_c, 10, 56, 0
12, 25342, Note_on_c, 10, 55, 67
12, 25342, Note_on_c, 10, 58, 68
12, 25627, Note_on_c, 10, 55, 0
12, 25627, Note_on_c, 10, 58, 0
12, 25633, Note_on_c, 10, 56, 64
12, 25634, Note_on_c, 10, 60, 63
12, 26110, Note_on_c, 10, 55, 65
12, 26110, Note_on_c, 10, 56, 0
12, 26111, Note_on_c, 10, 58, 68
12, 26111, Note_on_c, 10, 60, 0
12, 26111, Note_on_c, 10, 72, 70
12, 26395, Note_on_c, 10, 55, 0
12, 26396, Note_on_c, 10, 58, 0
12, 26398, Note_on_c, 10, 56, 67
12, 26402, Note_on_c, 10, 60, 60
12, 26658, Note_on_c, 10, 72, 0
12, 26875, Note_on_c, 10, 56, 0
12, 26879, Note_on_c, 10, 60, 0
12, 36094, Note_on_c, 10, 55, 63
12, 36095, Note_on_c, 10, 58, 65
12, 36379, Note_on_c, 10, 55, 0
12, 36380, Note_on_c, 10, 58, 0
12, 36383, Note_on_c, 10, 56, 64
12, 36386, Note_on_c, 10, 60, 58
12, 36860, Note_on_c, 10, 56, 0
12, 36863, Note_on_c, 10, 60, 0
12, 36865, Note_on_c, 10, 58, 68
12, 36866, Note_on_c, 10, 55, 67
12, 37150, Note_on_c, 10, 56, 66
12, 37150, Note_on_c, 10, 58, 0
12, 37151, Note_on_c, 10, 55, 0
12, 37154, Note_on_c, 10, 60, 64
12, 37294, Note_on_c, 10, 63, 74
12, 37579, Note_on_c, 10, 63, 0
12, 37627, Note_on_c, 10, 56, 0
12, 37630, Note_on_c, 10, 55, 67
12, 37630, Note_on_c, 10, 58, 68
12, 37631, Note_on_c, 10, 60, 0
12, 37915, Note_on_c, 10, 55, 0
12, 37915, Note_on_c, 10, 58, 0
12, 37920, Note_on_c, 10, 60, 63
12, 37921, Note_on_c, 10, 56, 64
12, 38397, Note_on_c, 10, 60, 0
12, 38398, Note_on_c, 10, 56, 0
12, 38398, Note_on_c, 10, 58, 68
12, 38401, Note_on_c, 10, 55, 65
12, 38401, Note_on_c, 10, 72, 70
12, 38683, Note_on_c, 10, 58, 0
12, 38686, Note_on_c, 10, 55, 0
12, 38688, Note_on_c, 10, 56, 67
12, 38688, Note_on_c, 10, 60, 60
12, 38948, Note_on_c, 10, 72, 0
12, 39165, Note_on_c, 10, 56, 0
12, 39165, Note_on_c, 10, 60, 0
12, 42434, Note_on_c, 10, 56, 75
12, 42623, Note_on_c, 10, 56, 0
12, 42624, Note_on_c, 10, 61, 76
12, 42813, Note_on_c, 10, 61, 0
12, 42818, Note_on_c, 10, 65, 74
12, 43007, Note_on_c, 10, 63, 75
12, 43007, Note_on_c, 10, 65, 0
12, 43772, Note_on_c, 10, 63, 0
12, 43775, Note_on_c, 10, 54, 77
12, 44156, Note_on_c, 10, 54, 0
12, 44159, Note_on_c, 10, 59, 76
12, 44348, Note_on_c, 10, 59, 0
12, 44352, Note_on_c, 10, 63, 75
12, 44541, Note_on_c, 10, 63, 0
12, 44544, Note_on_c, 10, 65, 76
12, 44733, Note_on_c, 10, 65, 0
12, 44736, Note_on_c, 10, 67, 76
12, 44827, Note_on_c, 10, 67, 0
12, 45310, Note_on_c, 10, 55, 63
12, 45314, Note_on_c, 10, 58, 65
12, 45595, Note_on_c, 10, 55, 0
12, 45599, Note_on_c, 10, 58, 0
12, 45601, Note_on_c, 10, 56, 64
12, 45601, Note_on_c, 10, 60, 58
12, 46078, Note_on_c, 10, 56, 0
12, 46078, Note_on_c, 10, 60, 0
12, 46081, Note_on_c, 10, 55, 67
12, 46081, Note_on_c, 10, 58, 68
12, 46366, Note_on_c, 10, 55, 0
12, 46366, Note_on_c, 10, 58, 0
12, 46367, Note_on_c, 10, 56, 66
12, 46369, Note_on_c, 10, 60, 64
12, 46511, Note_on_c, 10, 63, 74
12, 46796, Note_on_c, 10, 63, 0
12, 46844, Note_on_c, 10, 56, 0
12, 46846, Note_on_c, 10, 60, 0
12, 46847, Note_on_c, 10, 58, 68
12, 46848, Note_on_c, 10, 55, 67
12, 47132, Note_on_c, 10, 58, 0
12, 47133, Note_on_c, 10, 55, 0
12, 47136, Note_on_c, 10, 56, 64
12, 47138, Note_on_c, 10, 60, 63
12, 47613, Note_on_c, 10, 56, 0
12, 47614, Note_on_c, 10, 55, 65
12, 47614, Note_on_c, 10, 72, 70
12, 47615, Note_on_c, 10, 60, 0
12, 47616, Note_on_c, 10, 58, 68
12, 47899, Note_on_c, 10, 55, 0
12, 47901, Note_on_c, 10, 58, 0
12, 47902, Note_on_c, 10, 60, 60
12, 47906, Note_on_c, 10, 56, 67
12, 48091, Note_on_c, 10, 60, 0
12, 48091, Note_on_c, 10, 72, 0
12, 48094, Note_on_c, 10, 60, 78
12, 48095, Note_on_c, 10, 56, 0
12, 48187, Note_on_c, 10, 60, 0
12, 48193, Note_on_c, 10, 63, 78
12, 48286, Note_on_c, 10, 63, 0
12, 48286, Note_on_c, 10, 68, 78
12, 48379, Note_on_c, 10, 68, 0
12, 48383, Note_on_c, 10, 65, 75
12, 48764, Note_on_c, 10, 65, 0
12, 48770, Note_on_c, 10, 56, 78
12, 49151, Note_on_c, 10, 56, 0
12, 49152, Note_on_c, 10, 65, 76
12, 49533, Note_on_c, 10, 65, 0
12, 49536, Note_on_c, 10, 56, 78
12, 49725, Note_on_c, 10, 56, 0
12, 49727, Note_on_c, 10, 60, 78
12, 49788, Note_on_c, 10, 60, 0
12, 49790, Note_on_c, 10, 61, 78
12, 49851, Note_on_c, 10, 61, 0
12, 49855, Note_on_c, 10, 63, 78
12, 49916, Note_on_c, 10, 63, 0
12, 49921, Note_on_c, 10, 65, 81
12, 50302, Note_on_c, 10, 65, 0
12, 50306, Note_on_c, 10, 63, 78
12, 50591, Note_on_c, 10, 63, 0
12, 50593, Note_on_c, 10, 56, 78
12, 50686, Note_on_c, 10, 56, 0
12, 50688, Note_on_c, 10, 54, 76
12, 51167, Note_on_c, 10, 54, 0
12, 51456, Note_on_c, 10, 58, 65
12, 51457, Note_on_c, 10, 55, 63
12, 51741, Note_on_c, 10, 58, 0
12, 51742, Note_on_c, 10, 55, 0
12, 51742, Note_on_c, 10, 56, 64
12, 51744, Note_on_c, 10, 60, 58
12, 52219, Note_on_c, 10, 56, 0
12, 52221, Note_on_c, 10, 60, 0
12, 52223, Note_on_c, 10, 58, 68
12, 52226, Note_on_c, 10, 55, 67
12, 52508, Note_on_c, 10, 58, 0
12, 52511, Note_on_c, 10, 55, 0
12, 52512, Note_on_c, 10, 60, 64
12, 52514, Note_on_c, 10, 56, 66
12, 52655, Note_on_c, 10, 63, 74
12, 52940, Note_on_c, 10, 63, 0
12, 52989, Note_on_c, 10, 60, 0
12, 52991, Note_on_c, 10, 56, 0
12, 52994, Note_on_c, 10, 55, 67
12, 52994, Note_on_c, 10, 58, 68
12, 53279, Note_on_c, 10, 55, 0
12, 53279, Note_on_c, 10, 58, 0
12, 53279, Note_on_c, 10, 60, 63
12, 53281, Note_on_c, 10, 56, 64
12, 53756, Note_on_c, 10, 60, 0
12, 53758, Note_on_c, 10, 55, 65
12, 53758, Note_on_c, 10, 56, 0
12, 53759, Note_on_c, 10, 72, 70
12, 53762, Note_on_c, 10, 58, 68
12, 54043, Note_on_c, 10, 55, 0
12, 54047, Note_on_c, 10, 56, 67
12, 54047, Note_on_c, 10, 58, 0
12, 54048, Note_on_c, 10, 60, 60
12, 54236, Note_on_c, 10, 56, 0
12, 54236, Note_on_c, 10, 72, 0
12, 54237, Note_on_c, 10, 60, 0
12, 54241, Note_on_c, 10, 60, 78
12, 54334, Note_on_c, 10, 60, 0
12, 54336, Note_on_c, 10, 63, 78
12, 54429, Note_on_c, 10, 63, 0
12, 54430, Note_on_c, 10, 68, 78
12, 54523, Note_on_c, 10, 68, 0
12, 54526, Note_on_c, 10, 65, 75
12, 54907, Note_on_c, 10, 65, 0
12, 54911, Note_on_c, 10, 56, 78
12, 55292, Note_on_c, 10, 56, 0
12, 55296, Note_on_c, 10, 65, 76
12, 55677, Note_on_c, 10, 65, 0
12, 55679, Note_on_c, 10, 56, 78
12, 55868, Note_on_c, 10, 56, 0
12, 55873, Note_on_c, 10, 60, 78
12, 55934, Note_on_c, 10, 60, 0
12, 55934, Note_on_c, 10, 61, 78
12, 55995, Note_on_c, 10, 61, 0
12, 55999, Note_on_c, 10, 63, 78
12, 56060, Note_on_c, 10, 63, 0
12, 56063, Note_on_c, 10, 65, 81
12, 56444, Note_on_c, 10, 65, 0
12, 56448, Note_on_c, 10, 63, 78
12, 56733, Note_on_c, 10, 63, 0
12, 56736, Note_on_c, 10, 56, 78
12, 56829, Note_on_c, 10, 56, 0
12, 56831, Note_on_c, 10, 54, 76
12, 57310, Note_on_c, 10, 54, 0
12, 57598, Note_on_c, 10, 58, 65
12, 57601, Note_on_c, 10, 55, 63
12, 57883, Note_on_c, 10, 58, 0
12, 57886, Note_on_c, 10, 55, 0
12, 57888, Note_on_c, 10, 60, 58
12, 57890, Note_on_c, 10, 56, 64
12, 58365, Note_on_c, 10, 60, 0
12, 58367, Note_on_c, 10, 56, 0
12, 58368, Note_on_c, 10, 55, 67
12, 58369, Note_on_c, 10, 58, 68
12, 58653, Note_on_c, 10, 55, 0
12, 58654, Note_on_c, 10, 58, 0
12, 58655, Note_on_c, 10, 60, 64
12, 58658, Note_on_c, 10, 56, 66
12, 58801, Note_on_c, 10, 63, 74
12, 59086, Note_on_c, 10, 63, 0
12, 59132, Note_on_c, 10, 60, 0
12, 59135, Note_on_c, 10, 56, 0
12, 59137, Note_on_c, 10, 55, 67
12, 59137, Note_on_c, 10, 58, 68
12, 59422, Note_on_c, 10, 55, 0
12, 59422, Note_on_c, 10, 58, 0
12, 59423, Note_on_c, 10, 56, 64
12, 59423, Note_on_c, 10, 60, 63
12, 59900, Note_on_c, 10, 56, 0
12, 59900, Note_on_c, 10, 60, 0
12, 59902, Note_on_c, 10, 55, 65
12, 59902, Note_on_c, 10, 72, 70
12, 59903, Note_on_c, 10, 58, 68
12, 60187, Note_on_c, 10, 55, 0
12, 60188, Note_on_c, 10, 58, 0
12, 60191, Note_on_c, 10, 56, 67
12, 60191, Note_on_c, 10, 60, 60
12, 60379, Note_on_c, 10, 72, 0
12, 60380, Note_on_c, 10, 56, 0
12, 60380, Note_on_c, 10, 60, 0
12, 60386, Note_on_c, 10, 60, 78
12, 60479, Note_on_c, 10, 60, 0
12, 60482, Note_on_c, 10, 63, 78
12, 60574, Note_on_c, 10, 68, 78
12, 60575, Note_on_c, 10, 63, 0
12, 60667, Note_on_c, 10, 68, 0
12, 60672, Note_on_c, 10, 65, 75
12, 61053, Note_on_c, 10, 65, 0
12, 61058, Note_on_c, 10, 56, 78
12, 61439, Note_on_c, 10, 56, 0
12, 61442, Note_on_c, 10, 65, 76
12, 61823, Note_on_c, 10, 65, 0
12, 61826, Note_on_c, 10, 56, 78
12, 62014, Note_on_c, 10, 60, 78
12, 62015, Note_on_c, 10, 56, 0
12, 62075, Note_on_c, 10, 60, 0
12, 62079, Note_on_c, 10, 61, 78
12, 62140, Note_on_c, 10, 61, 0
12, 62146, Note_on_c, 10, 63, 78
12, 62207, Note_on_c, 10, 63, 0
12, 62208, Note_on_c, 10, 65, 81
12, 62589, Note_on_c, 10, 65, 0
12, 62594, Note_on_c, 10, 63, 78
12, 62878, Note_on_c, 10, 56, 78
12, 62879, Note_on_c, 10, 63, 0
12, 62971, Note_on_c, 10, 56, 0
12, 62975, Note_on_c, 10, 54, 76
12, 63454, Note_on_c, 10, 54, 0
12, 63742, Note_on_c, 10, 55, 63
12, 63745, Note_on_c, 10, 58, 65
12, 64027, Note_on_c, 10, 55, 0
12, 64030, Note_on_c, 10, 58, 0
12, 64031, Note_on_c, 10, 60, 58
12, 64032, Note_on_c, 10, 56, 64
12, 64181, Control_c, 10, 7, 93
12, 64408, Control_c, 10, 7, 89
12, 64452, Control_c, 10, 7, 85
12, 64508, Note_on_c, 10, 60, 0
12, 64509, Note_on_c, 10, 56, 0
12, 64513, Note_on_c, 10, 58, 68
12, 64514, Note_on_c, 10, 55, 67
12, 64635, Control_c, 10, 7, 80
12, 64798, Note_on_c, 10, 58, 0
12, 64799, Note_on_c, 10, 55, 0
12, 64800, Note_on_c, 10, 60, 64
12, 64801, Note_on_c, 10, 56, 66
12, 64815, Control_c, 10, 7, 75
12, 64942, Note_on_c, 10, 63, 74
12, 65114, Control_c, 10, 7, 71
12, 65227, Note_on_c, 10, 63, 0
12, 65267, Control_c, 10, 7, 65
12, 65277, Note_on_c, 10, 60, 0
12, 65278, Note_on_c, 10, 56, 0
12, 65282, Note_on_c, 10, 55, 67
12, 65282, Note_on_c, 10, 58, 68
12, 65566, Note_on_c, 10, 60, 63
12, 65567, Note_on_c, 10, 55, 0
12, 65567, Note_on_c, 10, 58, 0
12, 65568, Note_on_c, 10, 56, 64
12, 65603, Control_c, 10, 7, 59
12, 65708, Control_c, 10, 7, 54
12, 65885, Control_c, 10, 7, 50
12, 66043, Note_on_c, 10, 60, 0
12, 66045, Note_on_c, 10, 56, 0
12, 66046, Note_on_c, 10, 55, 65
12, 66046, Note_on_c, 10, 58, 68
12, 66049, Note_on_c, 10, 72, 70
12, 66126, Control_c, 10, 7, 46
12, 66331, Note_on_c, 10, 55, 0
12, 66331, Note_on_c, 10, 58, 0
12, 66335, Note_on_c, 10, 60, 60
12, 66338, Note_on_c, 10, 56, 67
12, 66392, Control_c, 10, 7, 40
12, 66524, Note_on_c, 10, 60, 0
12, 66526, Note_on_c, 10, 72, 0
12, 66527, Note_on_c, 10, 56, 0
12, 66529, Note_on_c, 10, 60, 78
12, 66622, Note_on_c, 10, 60, 0
12, 66624, Note_on_c, 10, 63, 78
12, 66692, Control_c, 10, 7, 32
12, 66717, Note_on_c, 10, 63, 0
12, 66722, Note_on_c, 10, 68, 78
12, 66815, Note_on_c, 10, 68, 0
12, 66817, Note_on_c, 10, 65, 75
12, 66980, Control_c, 10, 7, 28
12, 67198, Note_on_c, 10, 65, 0
12, 67201, Note_on_c, 10, 56, 78
12, 67204, Control_c, 10, 7, 23
12, 67371, Control_c, 10, 7, 17
12, 67572, Control_c, 10, 7, 12
12, 67582, Note_on_c, 10, 56, 0
12, 67584, Note_on_c, 10, 65, 76
12, 67929, Control_c, 10, 7, 8
12, 67965, Note_on_c, 10, 65, 0
12, 67970, Note_on_c, 10, 56, 78
12, 68074, Control_c, 10, 7, 3
12, 68127, Control_c, 10, 7, 0
12, 68159, Note_on_c, 10, 56, 0
12, 68208, Control_c, 10, 120, 0
12, 68211, Control_c, 10, 123, 0
12, 68211, End_track
13, 0, Start_track
13, 0, Channel_prefix, 11
13, 0, Text_t, "Piano 2 "
13, 264, Control_c, 11, 121, 0
13, 314, Control_c, 11, 7, 84
13, 315, Control_c, 11, 10, 91
13, 316, Control_c, 11, 11, 127
13, 317, Control_c, 11, 91, 92
13, 318, Control_c, 11, 93, 101
13, 319, Pitch_bend_c, 11, 8192
13, 361, Control_c, 11, 0, 0
13, 416, Program_c, 11, 1
13, 6912, Note_on_c, 11, 55, 109
13, 6912, Note_on_c, 11, 63, 113
13, 6914, Note_on_c, 11, 58, 121
13, 6946, Control_c, 11, 64, 127
13, 6974, Note_on_c, 11, 55, 0
13, 6982, Note_on_c, 11, 58, 0
13, 6983, Note_on_c, 11, 63, 0
13, 7010, Note_on_c, 11, 55, 65
13, 7022, Note_on_c, 11, 55, 0
13, 7051, Control_c, 11, 64, 0
13, 7053, Note_on_c, 11, 55, 109
13, 7056, Note_on_c, 11, 58, 117
13, 7058, Note_on_c, 11, 63, 117
13, 7077, Control_c, 11, 64, 127
13, 7092, Note_on_c, 11, 55, 0
13, 7098, Note_on_c, 11, 58, 0
13, 7098, Note_on_c, 11, 63, 0
13, 7152, Note_on_c, 11, 51, 109
13, 7169, Note_on_c, 11, 51, 0
13, 7198, Note_on_c, 11, 51, 93
13, 7201, Note_on_c, 11, 60, 97
13, 7202, Note_on_c, 11, 56, 109
13, 7208, Control_c, 11, 64, 0
13, 7256, Control_c, 11, 64, 127
13, 7300, Note_on_c, 11, 51, 0
13, 7304, Note_on_c, 11, 56, 0
13, 7304, Note_on_c, 11, 60, 0
13, 7341, Note_on_c, 11, 51, 95
13, 7394, Note_on_c, 11, 58, 115
13, 7400, Note_on_c, 11, 51, 0
13, 7441, Note_on_c, 11, 56, 113
13, 7450, Note_on_c, 11, 58, 0
13, 7490, Note_on_c, 11, 51, 72
13, 7537, Note_on_c, 11, 63, 113
13, 7538, Note_on_c, 11, 56, 0
13, 7585, Note_on_c, 11, 56, 109
13, 7598, Note_on_c, 11, 51, 0
13, 7661, Note_on_c, 11, 56, 0
13, 7668, Note_on_c, 11, 63, 0
13, 7673, Control_c, 11, 64, 0
13, 7680, Note_on_c, 11, 55, 113
13, 7681, Note_on_c, 11, 58, 117
13, 7749, Note_on_c, 11, 55, 0
13, 7774, Note_on_c, 11, 51, 109
13, 7826, Note_on_c, 11, 63, 118
13, 7838, Note_on_c, 11, 51, 0
13, 7859, Control_c, 11, 64, 127
13, 7900, Note_on_c, 11, 58, 0
13, 7902, Note_on_c, 11, 63, 0
13, 7922, Note_on_c, 11, 55, 104
13, 7957, Control_c, 11, 64, 0
13, 7968, Note_on_c, 11, 60, 114
13, 7969, Note_on_c, 11, 55, 0
13, 7970, Note_on_c, 11, 56, 116
13, 8055, Control_c, 11, 64, 127
13, 8142, Note_on_c, 11, 60, 0
13, 8153, Note_on_c, 11, 56, 0
13, 8205, Note_on_c, 11, 51, 108
13, 8253, Note_on_c, 11, 56, 109
13, 8255, Note_on_c, 11, 60, 108
13, 8266, Note_on_c, 11, 51, 0
13, 8298, Control_c, 11, 64, 0
13, 8299, Note_on_c, 11, 56, 0
13, 8301, Note_on_c, 11, 60, 0
13, 8301, Note_on_c, 11, 61, 115
13, 8306, Note_on_c, 11, 58, 115
13, 8353, Note_on_c, 11, 60, 116
13, 8353, Note_on_c, 11, 63, 114
13, 8365, Note_on_c, 11, 61, 0
13, 8368, Note_on_c, 11, 58, 0
13, 8397, Note_on_c, 11, 51, 102
13, 8446, Note_on_c, 11, 60, 0
13, 8446, Note_on_c, 11, 63, 0
13, 8447, Note_on_c, 11, 55, 112
13, 8450, Note_on_c, 11, 58, 108
13, 8528, Note_on_c, 11, 51, 0
13, 8531, Control_c, 11, 64, 127
13, 8542, Note_on_c, 11, 51, 94
13, 8552, Note_on_c, 11, 58, 0
13, 8556, Note_on_c, 11, 55, 0
13, 8572, Note_on_c, 11, 51, 0
13, 8590, Note_on_c, 11, 55, 114
13, 8591, Note_on_c, 11, 51, 116
13, 8591, Note_on_c, 11, 58, 112
13, 8624, Note_on_c, 11, 55, 0
13, 8627, Note_on_c, 11, 58, 0
13, 8632, Note_on_c, 11, 51, 0
13, 8685, Note_on_c, 11, 51, 100
13, 8714, Note_on_c, 11, 51, 0
13, 8734, Note_on_c, 11, 51, 108
13, 8734, Note_on_c, 11, 60, 114
13, 8734, Control_c, 11, 64, 0
13, 8737, Note_on_c, 11, 56, 112
13, 8800, Control_c, 11, 64, 127
13, 8806, Note_on_c, 11, 51, 0
13, 8829, Note_on_c, 11, 51, 96
13, 8856, Note_on_c, 11, 60, 0
13, 8900, Note_on_c, 11, 51, 0
13, 8967, Note_on_c, 11, 56, 0
13, 8974, Note_on_c, 11, 51, 100
13, 9023, Note_on_c, 11, 56, 98
13, 9037, Note_on_c, 11, 51, 0
13, 9069, Note_on_c, 11, 63, 114
13, 9100, Note_on_c, 11, 56, 0
13, 9119, Note_on_c, 11, 56, 114
13, 9119, Note_on_c, 11, 63, 0
13, 9166, Note_on_c, 11, 51, 98
13, 9169, Note_on_c, 11, 56, 0
13, 9213, Note_on_c, 11, 55, 114
13, 9213, Note_on_c, 11, 58, 116
13, 9226, Control_c, 11, 64, 0
13, 9243, Note_on_c, 11, 51, 0
13, 9291, Control_c, 11, 64, 127
13, 9310, Note_on_c, 11, 58, 0
13, 9314, Note_on_c, 11, 51, 82
13, 9324, Note_on_c, 11, 55, 0
13, 9335, Note_on_c, 11, 51, 0
13, 9359, Note_on_c, 11, 63, 116
13, 9361, Note_on_c, 11, 55, 118
13, 9426, Note_on_c, 11, 63, 0
13, 9437, Note_on_c, 11, 55, 0
13, 9458, Note_on_c, 11, 51, 86
13, 9504, Note_on_c, 11, 60, 108
13, 9505, Note_on_c, 11, 56, 116
13, 9520, Control_c, 11, 64, 0
13, 9551, Note_on_c, 11, 51, 0
13, 9586, Control_c, 11, 64, 127
13, 9600, Note_on_c, 11, 51, 92
13, 9622, Note_on_c, 11, 60, 0
13, 9650, Note_on_c, 11, 51, 0
13, 9744, Note_on_c, 11, 51, 94
13, 9754, Note_on_c, 11, 56, 0
13, 9790, Note_on_c, 11, 56, 106
13, 9792, Note_on_c, 11, 60, 117
13, 9813, Note_on_c, 11, 51, 0
13, 9837, Note_on_c, 11, 61, 106
13, 9838, Note_on_c, 11, 60, 0
13, 9883, Note_on_c, 11, 61, 0
13, 9886, Note_on_c, 11, 63, 122
13, 9946, Control_c, 11, 64, 0
13, 9973, Note_on_c, 11, 63, 0
13, 9983, Note_on_c, 11, 56, 0
13, 9986, Note_on_c, 11, 61, 117
13, 10068, Control_c, 11, 64, 127
13, 10074, Note_on_c, 11, 61, 0
13, 10082, Note_on_c, 11, 60, 109
13, 10127, Control_c, 11, 64, 0
13, 10130, Note_on_c, 11, 58, 121
13, 10140, Note_on_c, 11, 60, 0
13, 10274, Note_on_c, 11, 56, 103
13, 10276, Note_on_c, 11, 58, 0
13, 10368, Note_on_c, 11, 60, 113
13, 10378, Note_on_c, 11, 56, 0
13, 10466, Note_on_c, 11, 58, 113
13, 10474, Note_on_c, 11, 60, 0
13, 10510, Note_on_c, 11, 56, 111
13, 10525, Note_on_c, 11, 58, 0
13, 10527, Control_c, 11, 64, 127
13, 10631, Note_on_c, 11, 56, 0
13, 10655, Note_on_c, 11, 56, 107
13, 10723, Control_c, 11, 64, 0
13, 10750, Note_on_c, 11, 58, 115
13, 10753, Note_on_c, 11, 56, 0
13, 10782, Control_c, 11, 64, 127
13, 10846, Note_on_c, 11, 58, 0
13, 10847, Note_on_c, 11, 51, 95
13, 10887, Control_c, 11, 64, 0
13, 10893, Note_on_c, 11, 56, 113
13, 10983, Note_on_c, 11, 51, 0
13, 10992, Note_on_c, 11, 58, 113
13, 11002, Note_on_c, 11, 56, 0
13, 11136, Note_on_c, 11, 51, 111
13, 11171, Note_on_c, 11, 58, 0
13, 11229, Note_on_c, 11, 58, 82
13, 11280, Note_on_c, 11, 61, 111
13, 11374, Note_on_c, 11, 63, 121
13, 11389, Note_on_c, 11, 61, 0
13, 11494, Note_on_c, 11, 58, 0
13, 11506, Note_on_c, 11, 63, 0
13, 11517, Note_on_c, 11, 55, 97
13, 11518, Note_on_c, 11, 44, 91
13, 11520, Note_on_c, 11, 51, 0
13, 11521, Note_on_c, 11, 51, 93
13, 11522, Note_on_c, 11, 58, 95
13, 11537, Note_on_c, 11, 51, 0
13, 11599, Control_c, 11, 64, 127
13, 11614, Note_on_c, 11, 51, 89
13, 11647, Note_on_c, 11, 55, 0
13, 11652, Note_on_c, 11, 58, 0
13, 11661, Note_on_c, 11, 63, 112
13, 11700, Note_on_c, 11, 51, 0
13, 11760, Note_on_c, 11, 44, 0
13, 11762, Note_on_c, 11, 51, 87
13, 11784, Note_on_c, 11, 51, 0
13, 11808, Note_on_c, 11, 51, 91
13, 11808, Note_on_c, 11, 60, 101
13, 11808, Note_on_c, 11, 63, 0
13, 11809, Note_on_c, 11, 56, 95
13, 11810, Note_on_c, 11, 44, 91
13, 11815, Control_c, 11, 64, 0
13, 11914, Control_c, 11, 64, 127
13, 11990, Note_on_c, 11, 51, 0
13, 12047, Note_on_c, 11, 51, 77
13, 12073, Note_on_c, 11, 56, 0
13, 12146, Note_on_c, 11, 56, 89
13, 12168, Note_on_c, 11, 51, 0
13, 12209, Note_on_c, 11, 60, 0
13, 12234, Note_on_c, 11, 56, 0
13, 12242, Note_on_c, 11, 51, 87
13, 12244, Note_on_c, 11, 44, 0
13, 12274, Control_c, 11, 64, 0
13, 12278, Note_on_c, 11, 51, 0
13, 12285, Note_on_c, 11, 44, 97
13, 12286, Note_on_c, 11, 55, 107
13, 12286, Note_on_c, 11, 58, 105
13, 12287, Note_on_c, 11, 51, 101
13, 12352, Note_on_c, 11, 51, 0
13, 12352, Control_c, 11, 64, 127
13, 12384, Note_on_c, 11, 51, 87
13, 12393, Note_on_c, 11, 55, 0
13, 12394, Note_on_c, 11, 58, 0
13, 12433, Note_on_c, 11, 63, 109
13, 12446, Note_on_c, 11, 51, 0
13, 12498, Note_on_c, 11, 63, 0
13, 12528, Note_on_c, 11, 51, 79
13, 12531, Note_on_c, 11, 44, 0
13, 12553, Note_on_c, 11, 51, 0
13, 12569, Control_c, 11, 64, 0
13, 12573, Note_on_c, 11, 44, 95
13, 12574, Note_on_c, 11, 60, 105
13, 12576, Note_on_c, 11, 51, 97
13, 12576, Note_on_c, 11, 56, 103
13, 12641, Control_c, 11, 64, 127
13, 12697, Note_on_c, 11, 56, 0
13, 12698, Note_on_c, 11, 51, 0
13, 12718, Note_on_c, 11, 56, 93
13, 12769, Note_on_c, 11, 56, 0
13, 12774, Note_on_c, 11, 60, 0
13, 12817, Note_on_c, 11, 51, 83
13, 12834, Note_on_c, 11, 51, 0
13, 12864, Note_on_c, 11, 60, 99
13, 12894, Note_on_c, 11, 60, 0
13, 12911, Note_on_c, 11, 61, 113
13, 12960, Note_on_c, 11, 63, 119
13, 12974, Note_on_c, 11, 61, 0
13, 12988, Note_on_c, 11, 63, 0
13, 13000, Note_on_c, 11, 44, 0
13, 13053, Note_on_c, 11, 44, 99
13, 13053, Note_on_c, 11, 55, 109
13, 13054, Note_on_c, 11, 58, 109
13, 13060, Control_c, 11, 64, 0
13, 13151, Note_on_c, 11, 51, 93
13, 13158, Control_c, 11, 64, 127
13, 13202, Note_on_c, 11, 63, 111
13, 13224, Note_on_c, 11, 51, 0
13, 13254, Note_on_c, 11, 55, 0
13, 13269, Note_on_c, 11, 63, 0
13, 13277, Note_on_c, 11, 58, 0
13, 13297, Note_on_c, 11, 44, 0
13, 13297, Note_on_c, 11, 51, 89
13, 13318, Note_on_c, 11, 51, 0
13, 13341, Note_on_c, 11, 56, 103
13, 13343, Note_on_c, 11, 51, 97
13, 13345, Note_on_c, 11, 44, 93
13, 13346, Note_on_c, 11, 60, 103
13, 13349, Control_c, 11, 64, 0
13, 13427, Control_c, 11, 64, 127
13, 13487, Note_on_c, 11, 63, 87
13, 13541, Note_on_c, 11, 51, 0
13, 13581, Note_on_c, 11, 51, 69
13, 13590, Note_on_c, 11, 56, 0
13, 13681, Note_on_c, 11, 56, 91
13, 13699, Note_on_c, 11, 51, 0
13, 13750, Note_on_c, 11, 63, 0
13, 13764, Note_on_c, 11, 60, 0
13, 13773, Note_on_c, 11, 56, 0
13, 13774, Note_on_c, 11, 51, 85
13, 13784, Note_on_c, 11, 44, 0
13, 13793, Note_on_c, 11, 51, 0
13, 13813, Control_c, 11, 64, 0
13, 13821, Note_on_c, 11, 44, 99
13, 13821, Note_on_c, 11, 51, 105
13, 13822, Note_on_c, 11, 58, 109
13, 13824, Note_on_c, 11, 55, 109
13, 13886, Note_on_c, 11, 51, 0
13, 13898, Control_c, 11, 64, 127
13, 13920, Note_on_c, 11, 58, 0
13, 13921, Note_on_c, 11, 51, 99
13, 13931, Note_on_c, 11, 55, 0
13, 13960, Note_on_c, 11, 51, 0
13, 13965, Note_on_c, 11, 58, 97
13, 13967, Note_on_c, 11, 55, 93
13, 13969, Note_on_c, 11, 63, 115
13, 14028, Note_on_c, 11, 55, 0
13, 14054, Note_on_c, 11, 63, 0
13, 14062, Note_on_c, 11, 51, 87
13, 14072, Note_on_c, 11, 58, 0
13, 14076, Note_on_c, 11, 44, 0
13, 14090, Note_on_c, 11, 51, 0
13, 14110, Note_on_c, 11, 56, 109
13, 14110, Note_on_c, 11, 60, 107
13, 14112, Note_on_c, 11, 44, 99
13, 14112, Note_on_c, 11, 51, 97
13, 14121, Control_c, 11, 64, 0
13, 14177, Note_on_c, 11, 51, 0
13, 14187, Control_c, 11, 64, 127
13, 14210, Note_on_c, 11, 51, 85
13, 14214, Note_on_c, 11, 56, 0
13, 14254, Note_on_c, 11, 56, 99
13, 14257, Note_on_c, 11, 51, 0
13, 14316, Note_on_c, 11, 60, 0
13, 14329, Note_on_c, 11, 56, 0
13, 14354, Note_on_c, 11, 51, 85
13, 14364, Note_on_c, 11, 51, 0
13, 14398, Note_on_c, 11, 60, 109
13, 14423, Note_on_c, 11, 60, 0
13, 14445, Note_on_c, 11, 61, 113
13, 14466, Note_on_c, 11, 61, 0
13, 14493, Note_on_c, 11, 63, 121
13, 14568, Note_on_c, 11, 44, 0
13, 14573, Note_on_c, 11, 63, 0
13, 14587, Control_c, 11, 64, 0
13, 14590, Note_on_c, 11, 41, 99
13, 14590, Note_on_c, 11, 55, 105
13, 14591, Note_on_c, 11, 58, 109
13, 14655, Control_c, 11, 64, 127
13, 14672, Note_on_c, 11, 55, 0
13, 14686, Note_on_c, 11, 55, 91
13, 14735, Note_on_c, 11, 63, 111
13, 14770, Note_on_c, 11, 55, 0
13, 14790, Note_on_c, 11, 58, 0
13, 14792, Note_on_c, 11, 63, 0
13, 14830, Note_on_c, 11, 55, 83
13, 14854, Note_on_c, 11, 55, 0
13, 14878, Note_on_c, 11, 56, 109
13, 14878, Control_c, 11, 64, 0
13, 14879, Note_on_c, 11, 60, 103
13, 14882, Note_on_c, 11, 53, 93
13, 14976, Control_c, 11, 64, 127
13, 15110, Note_on_c, 11, 56, 0
13, 15165, Note_on_c, 11, 56, 109
13, 15227, Note_on_c, 11, 53, 0
13, 15258, Note_on_c, 11, 60, 0
13, 15265, Note_on_c, 11, 53, 79
13, 15287, Note_on_c, 11, 41, 0
13, 15350, Control_c, 11, 64, 0
13, 15359, Note_on_c, 11, 41, 93
13, 15361, Note_on_c, 11, 55, 103
13, 15361, Note_on_c, 11, 58, 109
13, 15367, Note_on_c, 11, 53, 0
13, 15371, Note_on_c, 11, 56, 0
13, 15435, Control_c, 11, 64, 127
13, 15454, Note_on_c, 11, 53, 89
13, 15459, Note_on_c, 11, 55, 0
13, 15465, Note_on_c, 11, 58, 0
13, 15502, Note_on_c, 11, 63, 107
13, 15505, Note_on_c, 11, 58, 109
13, 15507, Note_on_c, 11, 53, 0
13, 15585, Note_on_c, 11, 63, 0
13, 15599, Note_on_c, 11, 55, 85
13, 15616, Note_on_c, 11, 58, 0
13, 15638, Note_on_c, 11, 55, 0
13, 15645, Note_on_c, 11, 60, 107
13, 15647, Note_on_c, 11, 56, 105
13, 15649, Note_on_c, 11, 53, 87
13, 15651, Control_c, 11, 64, 0
13, 15730, Control_c, 11, 64, 127
13, 15762, Note_on_c, 11, 56, 0
13, 15791, Note_on_c, 11, 56, 95
13, 15844, Note_on_c, 11, 60, 0
13, 15850, Note_on_c, 11, 53, 0
13, 15867, Note_on_c, 11, 56, 0
13, 15886, Note_on_c, 11, 53, 93
13, 15935, Note_on_c, 11, 60, 99
13, 15938, Note_on_c, 11, 56, 73
13, 15981, Note_on_c, 11, 61, 105
13, 16025, Note_on_c, 11, 60, 0
13, 16032, Note_on_c, 11, 63, 109
13, 16045, Note_on_c, 11, 61, 0
13, 16089, Note_on_c, 11, 53, 0
13, 16092, Note_on_c, 11, 56, 0
13, 16093, Note_on_c, 11, 63, 0
13, 16099, Note_on_c, 11, 41, 0
13, 16125, Note_on_c, 11, 58, 101
13, 16125, Control_c, 11, 64, 0
13, 16126, Note_on_c, 11, 53, 101
13, 16128, Note_on_c, 11, 61, 105
13, 16130, Note_on_c, 11, 46, 101
13, 16190, Control_c, 11, 64, 127
13, 16211, Note_on_c, 11, 61, 0
13, 16222, Note_on_c, 11, 60, 95
13, 16228, Note_on_c, 11, 58, 0
13, 16240, Note_on_c, 11, 53, 0
13, 16255, Note_on_c, 11, 60, 0
13, 16271, Note_on_c, 11, 53, 101
13, 16271, Note_on_c, 11, 58, 107
13, 16413, Note_on_c, 11, 56, 91
13, 16416, Note_on_c, 11, 58, 0
13, 16458, Control_c, 11, 64, 0
13, 16462, Note_on_c, 11, 58, 105
13, 16504, Control_c, 11, 64, 127
13, 16545, Note_on_c, 11, 56, 0
13, 16653, Note_on_c, 11, 44, 93
13, 16678, Note_on_c, 11, 51, 95
13, 16696, Note_on_c, 11, 56, 103
13, 16716, Note_on_c, 11, 60, 101
13, 16737, Note_on_c, 11, 58, 0
13, 16746, Control_c, 11, 64, 0
13, 16757, Note_on_c, 11, 46, 0
13, 16762, Note_on_c, 11, 53, 0
13, 16789, Control_c, 11, 64, 127
13, 16824, Note_on_c, 11, 60, 0
13, 16836, Note_on_c, 11, 56, 0
13, 16854, Note_on_c, 11, 51, 0
13, 16858, Note_on_c, 11, 44, 0
13, 16893, Note_on_c, 11, 42, 95
13, 16893, Note_on_c, 11, 58, 97
13, 16896, Note_on_c, 11, 54, 95
13, 16898, Note_on_c, 11, 61, 93
13, 16914, Control_c, 11, 64, 0
13, 17280, Note_on_c, 11, 27, 92
13, 17282, Note_on_c, 11, 39, 89
13, 17560, Note_on_c, 11, 42, 0
13, 17655, Note_on_c, 11, 58, 0
13, 17657, Note_on_c, 11, 54, 0
13, 17658, Note_on_c, 11, 27, 0
13, 17659, Note_on_c, 11, 39, 0
13, 17661, Note_on_c, 11, 58, 95
13, 17662, Note_on_c, 11, 55, 97
13, 17662, Note_on_c, 11, 61, 0
13, 17663, Note_on_c, 11, 51, 93
13, 17665, Note_on_c, 11, 44, 91
13, 17679, Note_on_c, 11, 51, 0
13, 17743, Control_c, 11, 64, 127
13, 17757, Note_on_c, 11, 51, 89
13, 17791, Note_on_c, 11, 58, 0
13, 17792, Note_on_c, 11, 55, 0
13, 17807, Note_on_c, 11, 63, 112
13, 17843, Note_on_c, 11, 51, 0
13, 17901, Note_on_c, 11, 51, 87
13, 17907, Note_on_c, 11, 44, 0
13, 17923, Note_on_c, 11, 51, 0
13, 17949, Note_on_c, 11, 44, 91
13, 17952, Note_on_c, 11, 51, 91
13, 17952, Note_on_c, 11, 60, 101
13, 17954, Note_on_c, 11, 56, 95
13, 17954, Note_on_c, 11, 63, 0
13, 17959, Control_c, 11, 64, 0
13, 18058, Control_c, 11, 64, 127
13, 18134, Note_on_c, 11, 51, 0
13, 18193, Note_on_c, 11, 51, 77
13, 18218, Note_on_c, 11, 56, 0
13, 18288, Note_on_c, 11, 56, 89
13, 18314, Note_on_c, 11, 51, 0
13, 18353, Note_on_c, 11, 60, 0
13, 18376, Note_on_c, 11, 56, 0
13, 18382, Note_on_c, 11, 51, 87
13, 18383, Note_on_c, 11, 44, 0
13, 18418, Note_on_c, 11, 51, 0
13, 18418, Control_c, 11, 64, 0
13, 18430, Note_on_c, 11, 44, 97
13, 18431, Note_on_c, 11, 55, 107
13, 18433, Note_on_c, 11, 51, 101
13, 18434, Note_on_c, 11, 58, 105
13, 18496, Control_c, 11, 64, 127
13, 18498, Note_on_c, 11, 51, 0
13, 18527, Note_on_c, 11, 51, 87
13, 18538, Note_on_c, 11, 55, 0
13, 18542, Note_on_c, 11, 58, 0
13, 18576, Note_on_c, 11, 63, 109
13, 18589, Note_on_c, 11, 51, 0
13, 18641, Note_on_c, 11, 63, 0
13, 18671, Note_on_c, 11, 51, 79
13, 18676, Note_on_c, 11, 44, 0
13, 18696, Note_on_c, 11, 51, 0
13, 18713, Control_c, 11, 64, 0
13, 18718, Note_on_c, 11, 56, 103
13, 18719, Note_on_c, 11, 60, 105
13, 18720, Note_on_c, 11, 44, 95
13, 18720, Note_on_c, 11, 51, 97
13, 18785, Control_c, 11, 64, 127
13, 18839, Note_on_c, 11, 56, 0
13, 18842, Note_on_c, 11, 51, 0
13, 18862, Note_on_c, 11, 56, 93
13, 18913, Note_on_c, 11, 56, 0
13, 18919, Note_on_c, 11, 60, 0
13, 18961, Note_on_c, 11, 51, 83
13, 18978, Note_on_c, 11, 51, 0
13, 19009, Note_on_c, 11, 60, 99
13, 19039, Note_on_c, 11, 60, 0
13, 19055, Note_on_c, 11, 61, 113
13, 19105, Note_on_c, 11, 63, 119
13, 19118, Note_on_c, 11, 61, 0
13, 19133, Note_on_c, 11, 63, 0
13, 19147, Note_on_c, 11, 44, 0
13, 19199, Note_on_c, 11, 44, 99
13, 19200, Note_on_c, 11, 55, 109
13, 19200, Note_on_c, 11, 58, 109
13, 19204, Control_c, 11, 64, 0
13, 19296, Note_on_c, 11, 51, 93
13, 19302, Control_c, 11, 64, 127
13, 19344, Note_on_c, 11, 63, 111
13, 19369, Note_on_c, 11, 51, 0
13, 19401, Note_on_c, 11, 55, 0
13, 19411, Note_on_c, 11, 63, 0
13, 19423, Note_on_c, 11, 58, 0
13, 19441, Note_on_c, 11, 51, 89
13, 19443, Note_on_c, 11, 44, 0
13, 19462, Note_on_c, 11, 51, 0
13, 19485, Note_on_c, 11, 60, 103
13, 19487, Note_on_c, 11, 51, 97
13, 19488, Note_on_c, 11, 56, 103
13, 19489, Note_on_c, 11, 44, 93
13, 19493, Control_c, 11, 64, 0
13, 19571, Control_c, 11, 64, 127
13, 19631, Note_on_c, 11, 63, 87
13, 19685, Note_on_c, 11, 51, 0
13, 19730, Note_on_c, 11, 51, 69
13, 19737, Note_on_c, 11, 56, 0
13, 19824, Note_on_c, 11, 56, 91
13, 19848, Note_on_c, 11, 51, 0
13, 19894, Note_on_c, 11, 63, 0
13, 19903, Note_on_c, 11, 60, 0
13, 19916, Note_on_c, 11, 56, 0
13, 19917, Note_on_c, 11, 51, 85
13, 19928, Note_on_c, 11, 44, 0
13, 19936, Note_on_c, 11, 51, 0
13, 19957, Control_c, 11, 64, 0
13, 19967, Note_on_c, 11, 58, 109
13, 19968, Note_on_c, 11, 51, 105
13, 19968, Note_on_c, 11, 55, 109
13, 19969, Note_on_c, 11, 44, 99
13, 20033, Note_on_c, 11, 51, 0
13, 20042, Control_c, 11, 64, 127
13, 20065, Note_on_c, 11, 51, 99
13, 20065, Note_on_c, 11, 58, 0
13, 20075, Note_on_c, 11, 55, 0
13, 20104, Note_on_c, 11, 51, 0
13, 20111, Note_on_c, 11, 55, 93
13, 20113, Note_on_c, 11, 58, 97
13, 20113, Note_on_c, 11, 63, 115
13, 20172, Note_on_c, 11, 55, 0
13, 20198, Note_on_c, 11, 63, 0
13, 20209, Note_on_c, 11, 51, 87
13, 20220, Note_on_c, 11, 58, 0
13, 20224, Note_on_c, 11, 44, 0
13, 20237, Note_on_c, 11, 51, 0
13, 20255, Note_on_c, 11, 44, 99
13, 20256, Note_on_c, 11, 51, 97
13, 20257, Note_on_c, 11, 56, 109
13, 20257, Note_on_c, 11, 60, 107
13, 20265, Control_c, 11, 64, 0
13, 20321, Note_on_c, 11, 51, 0
13, 20331, Control_c, 11, 64, 127
13, 20349, Note_on_c, 11, 51, 85
13, 20361, Note_on_c, 11, 56, 0
13, 20396, Note_on_c, 11, 51, 0
13, 20402, Note_on_c, 11, 56, 99
13, 20463, Note_on_c, 11, 60, 0
13, 20477, Note_on_c, 11, 56, 0
13, 20497, Note_on_c, 11, 51, 85
13, 20507, Note_on_c, 11, 51, 0
13, 20544, Note_on_c, 11, 60, 109
13, 20569, Note_on_c, 11, 60, 0
13, 20592, Note_on_c, 11, 61, 113
13, 20613, Note_on_c, 11, 61, 0
13, 20637, Note_on_c, 11, 63, 121
13, 20711, Note_on_c, 11, 44, 0
13, 20717, Note_on_c, 11, 63, 0
13, 20731, Control_c, 11, 64, 0
13, 20733, Note_on_c, 11, 58, 109
13, 20736, Note_on_c, 11, 41, 99
13, 20738, Note_on_c, 11, 55, 105
13, 20799, Control_c, 11, 64, 127
13, 20820, Note_on_c, 11, 55, 0
13, 20831, Note_on_c, 11, 55, 91
13, 20878, Note_on_c, 11, 63, 111
13, 20915, Note_on_c, 11, 55, 0
13, 20932, Note_on_c, 11, 58, 0
13, 20935, Note_on_c, 11, 63, 0
13, 20978, Note_on_c, 11, 55, 83
13, 21002, Note_on_c, 11, 55, 0
13, 21022, Note_on_c, 11, 56, 109
13, 21022, Control_c, 11, 64, 0
13, 21024, Note_on_c, 11, 60, 103
13, 21025, Note_on_c, 11, 53, 93
13, 21120, Control_c, 11, 64, 127
13, 21254, Note_on_c, 11, 56, 0
13, 21310, Note_on_c, 11, 56, 109
13, 21370, Note_on_c, 11, 53, 0
13, 21403, Note_on_c, 11, 60, 0
13, 21407, Note_on_c, 11, 53, 79
13, 21433, Note_on_c, 11, 41, 0
13, 21494, Control_c, 11, 64, 0
13, 21501, Note_on_c, 11, 55, 103
13, 21504, Note_on_c, 11, 58, 109
13, 21506, Note_on_c, 11, 41, 93
13, 21509, Note_on_c, 11, 53, 0
13, 21516, Note_on_c, 11, 56, 0
13, 21579, Control_c, 11, 64, 127
13, 21599, Note_on_c, 11, 53, 89
13, 21599, Note_on_c, 11, 55, 0
13, 21608, Note_on_c, 11, 58, 0
13, 21645, Note_on_c, 11, 58, 109
13, 21645, Note_on_c, 11, 63, 107
13, 21652, Note_on_c, 11, 53, 0
13, 21728, Note_on_c, 11, 63, 0
13, 21745, Note_on_c, 11, 55, 85
13, 21756, Note_on_c, 11, 58, 0
13, 21784, Note_on_c, 11, 55, 0
13, 21790, Note_on_c, 11, 53, 87
13, 21790, Note_on_c, 11, 56, 105
13, 21793, Note_on_c, 11, 60, 107
13, 21795, Control_c, 11, 64, 0
13, 21874, Control_c, 11, 64, 127
13, 21905, Note_on_c, 11, 56, 0
13, 21934, Note_on_c, 11, 56, 95
13, 21991, Note_on_c, 11, 53, 0
13, 21992, Note_on_c, 11, 60, 0
13, 22010, Note_on_c, 11, 56, 0
13, 22032, Note_on_c, 11, 53, 93
13, 22077, Note_on_c, 11, 56, 73
13, 22082, Note_on_c, 11, 60, 99
13, 22125, Note_on_c, 11, 61, 105
13, 22172, Note_on_c, 11, 60, 0
13, 22175, Note_on_c, 11, 63, 109
13, 22189, Note_on_c, 11, 61, 0
13, 22231, Note_on_c, 11, 56, 0
13, 22235, Note_on_c, 11, 53, 0
13, 22236, Note_on_c, 11, 63, 0
13, 22246, Note_on_c, 11, 41, 0
13, 22269, Control_c, 11, 64, 0
13, 22270, Note_on_c, 11, 46, 101
13, 22270, Note_on_c, 11, 53, 101
13, 22271, Note_on_c, 11, 61, 105
13, 22274, Note_on_c, 11, 58, 101
13, 22334, Control_c, 11, 64, 127
13, 22354, Note_on_c, 11, 61, 0
13, 22365, Note_on_c, 11, 60, 95
13, 22377, Note_on_c, 11, 58, 0
13, 22384, Note_on_c, 11, 53, 0
13, 22398, Note_on_c, 11, 60, 0
13, 22413, Note_on_c, 11, 58, 107
13, 22417, Note_on_c, 11, 53, 101
13, 22557, Note_on_c, 11, 56, 91
13, 22558, Note_on_c, 11, 58, 0
13, 22602, Control_c, 11, 64, 0
13, 22605, Note_on_c, 11, 58, 105
13, 22648, Control_c, 11, 64, 127
13, 22689, Note_on_c, 11, 56, 0
13, 22799, Note_on_c, 11, 44, 93
13, 22801, Note_on_c, 11, 46, 0
13, 22812, Note_on_c, 11, 53, 0
13, 22823, Note_on_c, 11, 51, 95
13, 22832, Note_on_c, 11, 58, 0
13, 22840, Note_on_c, 11, 56, 103
13, 22859, Note_on_c, 11, 60, 101
13, 22890, Control_c, 11, 64, 0
13, 22933, Control_c, 11, 64, 127
13, 22967, Note_on_c, 11, 60, 0
13, 22980, Note_on_c, 11, 56, 0
13, 22999, Note_on_c, 11, 51, 0
13, 23004, Note_on_c, 11, 44, 0
13, 23037, Note_on_c, 11, 54, 95
13, 23038, Note_on_c, 11, 42, 95
13, 23039, Note_on_c, 11, 61, 93
13, 23042, Note_on_c, 11, 58, 97
13, 23058, Control_c, 11, 64, 0
13, 23422, Note_on_c, 11, 39, 89
13, 23424, Note_on_c, 11, 27, 92
13, 23705, Note_on_c, 11, 42, 0
13, 23798, Note_on_c, 11, 54, 0
13, 23799, Note_on_c, 11, 39, 0
13, 23802, Note_on_c, 11, 27, 0
13, 23803, Note_on_c, 11, 61, 0
13, 23804, Note_on_c, 11, 58, 0
13, 23806, Note_on_c, 11, 55, 109
13, 23806, Note_on_c, 11, 63, 113
13, 23807, Note_on_c, 11, 58, 121
13, 23842, Control_c, 11, 64, 127
13, 23868, Note_on_c, 11, 55, 0
13, 23871, Note_off_c, 15, 64, 64
13, 23875, Note_on_c, 11, 58, 0
13, 23877, Note_on_c, 11, 63, 0
13, 23904, Note_on_c, 11, 55, 65
13, 23916, Note_on_c, 11, 55, 0
13, 23947, Control_c, 11, 64, 0
13, 23949, Note_on_c, 11, 55, 109
13, 23952, Note_on_c, 11, 58, 117
13, 23952, Note_on_c, 11, 63, 117
13, 23973, Control_c, 11, 64, 127
13, 23988, Note_on_c, 11, 55, 0
13, 23992, Note_on_c, 11, 63, 0
13, 23994, Note_on_c, 11, 58, 0
13, 24050, Note_on_c, 11, 51, 109
13, 24067, Note_on_c, 11, 51, 0
13, 24094, Note_on_c, 11, 51, 93
13, 24097, Note_on_c, 11, 56, 109
13, 24097, Note_on_c, 11, 60, 97
13, 24104, Control_c, 11, 64, 0
13, 24152, Control_c, 11, 64, 127
13, 24196, Note_on_c, 11, 51, 0
13, 24199, Note_on_c, 11, 56, 0
13, 24200, Note_on_c, 11, 60, 0
13, 24240, Note_on_c, 11, 51, 95
13, 24285, Note_on_c, 11, 58, 115
13, 24299, Note_on_c, 11, 51, 0
13, 24337, Note_on_c, 11, 56, 113
13, 24341, Note_on_c, 11, 58, 0
13, 24382, Note_on_c, 11, 51, 72
13, 24432, Note_on_c, 11, 63, 113
13, 24434, Note_on_c, 11, 56, 0
13, 24452, Note_off_c, 15, 64, 69
13, 24482, Note_on_c, 11, 56, 109
13, 24490, Note_on_c, 11, 51, 0
13, 24558, Note_on_c, 11, 56, 0
13, 24563, Note_on_c, 11, 63, 0
13, 24569, Control_c, 11, 64, 0
13, 24574, Note_on_c, 11, 55, 113
13, 24575, Note_on_c, 11, 58, 117
13, 24643, Note_on_c, 11, 55, 0
13, 24652, Note_off_c, 15, 64, 77
13, 24669, Note_on_c, 11, 51, 109
13, 24717, Note_on_c, 11, 63, 118
13, 24733, Note_on_c, 11, 51, 0
13, 24755, Control_c, 11, 64, 127
13, 24793, Note_on_c, 11, 63, 0
13, 24794, Note_on_c, 11, 58, 0
13, 24814, Note_on_c, 11, 55, 104
13, 24847, Note_off_c, 15, 64, 80
13, 24853, Control_c, 11, 64, 0
13, 24861, Note_on_c, 11, 55, 0
13, 24865, Note_on_c, 11, 60, 114
13, 24866, Note_on_c, 11, 56, 116
13, 24951, Control_c, 11, 64, 127
13, 25039, Note_on_c, 11, 60, 0
13, 25049, Note_on_c, 11, 56, 0
13, 25103, Note_on_c, 11, 51, 108
13, 25149, Note_on_c, 11, 60, 108
13, 25153, Note_on_c, 11, 56, 109
13, 25164, Note_on_c, 11, 51, 0
13, 25194, Control_c, 11, 64, 0
13, 25195, Note_on_c, 11, 60, 0
13, 25198, Note_on_c, 11, 58, 115
13, 25199, Note_on_c, 11, 56, 0
13, 25201, Note_on_c, 11, 61, 115
13, 25248, Note_on_c, 11, 60, 116
13, 25249, Note_on_c, 11, 63, 114
13, 25260, Note_on_c, 11, 58, 0
13, 25265, Note_on_c, 11, 61, 0
13, 25298, Note_on_c, 11, 51, 102
13, 25341, Note_on_c, 11, 58, 108
13, 25341, Note_on_c, 11, 60, 0
13, 25342, Note_on_c, 11, 63, 0
13, 25343, Note_on_c, 11, 55, 112
13, 25427, Control_c, 11, 64, 127
13, 25429, Note_on_c, 11, 51, 0
13, 25438, Note_on_c, 11, 51, 94
13, 25443, Note_on_c, 11, 58, 0
13, 25452, Note_on_c, 11, 55, 0
13, 25468, Note_on_c, 11, 51, 0
13, 25485, Note_on_c, 11, 55, 114
13, 25486, Note_on_c, 11, 58, 112
13, 25487, Note_on_c, 11, 51, 116
13, 25519, Note_on_c, 11, 55, 0
13, 25522, Note_on_c, 11, 58, 0
13, 25528, Note_on_c, 11, 51, 0
13, 25581, Note_on_c, 11, 51, 100
13, 25610, Note_on_c, 11, 51, 0
13, 25630, Note_on_c, 11, 51, 108
13, 25630, Note_on_c, 11, 60, 114
13, 25630, Control_c, 11, 64, 0
13, 25634, Note_on_c, 11, 56, 112
13, 25696, Control_c, 11, 64, 127
13, 25702, Note_on_c, 11, 51, 0
13, 25727, Note_on_c, 11, 51, 96
13, 25752, Note_on_c, 11, 60, 0
13, 25798, Note_on_c, 11, 51, 0
13, 25864, Note_on_c, 11, 56, 0
13, 25871, Note_on_c, 11, 51, 100
13, 25918, Note_on_c, 11, 56, 98
13, 25934, Note_on_c, 11, 51, 0
13, 25969, Note_on_c, 11, 63, 114
13, 25995, Note_on_c, 11, 56, 0
13, 26018, Note_on_c, 11, 56, 114
13, 26019, Note_on_c, 11, 63, 0
13, 26066, Note_on_c, 11, 51, 98
13, 26068, Note_on_c, 11, 56, 0
13, 26109, Note_on_c, 11, 58, 116
13, 26112, Note_on_c, 11, 55, 114
13, 26122, Control_c, 11, 64, 0
13, 26143, Note_on_c, 11, 51, 0
13, 26187, Control_c, 11, 64, 127
13, 26205, Note_on_c, 11, 51, 82
13, 26206, Note_on_c, 11, 58, 0
13, 26223, Note_on_c, 11, 55, 0
13, 26226, Note_on_c, 11, 51, 0
13, 26255, Note_on_c, 11, 55, 118
13, 26257, Note_on_c, 11, 63, 116
13, 26324, Note_on_c, 11, 63, 0
13, 26331, Note_on_c, 11, 55, 0
13, 26354, Note_on_c, 11, 51, 86
13, 26401, Note_on_c, 11, 60, 108
13, 26402, Note_on_c, 11, 56, 116
13, 26416, Control_c, 11, 64, 0
13, 26447, Note_on_c, 11, 51, 0
13, 26482, Control_c, 11, 64, 127
13, 26496, Note_on_c, 11, 51, 92
13, 26519, Note_on_c, 11, 60, 0
13, 26546, Note_on_c, 11, 51, 0
13, 26637, Note_on_c, 11, 51, 94
13, 26651, Note_on_c, 11, 56, 0
13, 26686, Note_on_c, 11, 56, 106
13, 26689, Note_on_c, 11, 60, 117
13, 26706, Note_on_c, 11, 51, 0
13, 26735, Note_on_c, 11, 60, 0
13, 26735, Note_on_c, 11, 61, 106
13, 26781, Note_on_c, 11, 61, 0
13, 26783, Note_on_c, 11, 63, 122
13, 26842, Control_c, 11, 64, 0
13, 26870, Note_on_c, 11, 63, 0
13, 26878, Note_on_c, 11, 53, 107
13, 26879, Note_on_c, 11, 56, 0
13, 26879, Note_on_c, 11, 61, 101
13, 26880, Note_on_c, 11, 58, 117
13, 26964, Control_c, 11, 64, 127
13, 27014, Note_on_c, 11, 53, 0
13, 27014, Note_on_c, 11, 61, 0
13, 27015, Note_on_c, 11, 58, 0
13, 27023, Note_on_c, 11, 61, 105
13, 27023, Control_c, 11, 64, 0
13, 27026, Note_on_c, 11, 53, 121
13, 27026, Note_on_c, 11, 58, 121
13, 27205, Note_on_c, 11, 61, 0
13, 27208, Note_on_c, 11, 58, 0
13, 27210, Note_on_c, 11, 53, 0
13, 27214, Note_on_c, 11, 58, 118
13, 27215, Note_on_c, 11, 61, 109
13, 27217, Note_on_c, 11, 53, 109
13, 27451, Note_on_c, 11, 58, 0
13, 27452, Note_on_c, 11, 61, 0
13, 27453, Note_on_c, 11, 56, 106
13, 27454, Note_on_c, 11, 53, 0
13, 27458, Note_on_c, 11, 60, 117
13, 27503, Note_on_c, 11, 61, 106
13, 27504, Note_on_c, 11, 60, 0
13, 27549, Note_on_c, 11, 61, 0
13, 27553, Note_on_c, 11, 63, 122
13, 27640, Note_on_c, 11, 63, 0
13, 27646, Note_on_c, 11, 56, 0
13, 27646, Note_on_c, 11, 61, 101
13, 27648, Note_on_c, 11, 58, 117
13, 27649, Note_on_c, 11, 53, 107
13, 27732, Control_c, 11, 64, 127
13, 27781, Note_on_c, 11, 61, 0
13, 27783, Note_on_c, 11, 58, 0
13, 27785, Note_on_c, 11, 53, 0
13, 27791, Control_c, 11, 64, 0
13, 27793, Note_on_c, 11, 61, 105
13, 27794, Note_on_c, 11, 53, 121
13, 27794, Note_on_c, 11, 58, 121
13, 27975, Note_on_c, 11, 61, 0
13, 27976, Note_on_c, 11, 58, 0
13, 27978, Note_on_c, 11, 53, 0
13, 27984, Note_on_c, 11, 53, 109
13, 27986, Note_on_c, 11, 58, 118
13, 27986, Note_on_c, 11, 61, 109
13, 28221, Note_on_c, 11, 53, 0
13, 28221, Note_on_c, 11, 56, 106
13, 28223, Note_on_c, 11, 58, 0
13, 28223, Note_on_c, 11, 61, 0
13, 28224, Note_on_c, 11, 60, 117
13, 28270, Note_on_c, 11, 60, 0
13, 28272, Note_on_c, 11, 61, 106
13, 28318, Note_on_c, 11, 61, 0
13, 28322, Note_on_c, 11, 63, 122
13, 28409, Note_on_c, 11, 63, 0
13, 28414, Note_on_c, 11, 56, 0
13, 28414, Note_on_c, 11, 58, 106
13, 28415, Note_on_c, 11, 61, 117
13, 28418, Note_on_c, 11, 53, 108
13, 28500, Control_c, 11, 64, 127
13, 28503, Note_on_c, 11, 61, 0
13, 28505, Note_on_c, 11, 58, 0
13, 28514, Note_on_c, 11, 60, 109
13, 28559, Note_on_c, 11, 58, 121
13, 28559, Control_c, 11, 64, 0
13, 28572, Note_on_c, 11, 60, 0
13, 28701, Note_on_c, 11, 53, 0
13, 28703, Note_on_c, 11, 56, 103
13, 28705, Note_on_c, 11, 58, 0
13, 28793, Note_on_c, 11, 56, 0
13, 28798, Note_on_c, 11, 51, 102
13, 28800, Note_on_c, 11, 60, 113
13, 28801, Note_on_c, 11, 56, 108
13, 28896, Note_on_c, 11, 58, 113
13, 28906, Note_on_c, 11, 60, 0
13, 28938, Note_on_c, 11, 56, 0
13, 28941, Note_on_c, 11, 56, 111
13, 28955, Note_on_c, 11, 58, 0
13, 28959, Control_c, 11, 64, 127
13, 29048, Note_on_c, 11, 51, 0
13, 29062, Note_on_c, 11, 56, 0
13, 29085, Note_on_c, 11, 56, 107
13, 29155, Control_c, 11, 64, 0
13, 29183, Note_on_c, 11, 54, 115
13, 29183, Note_on_c, 11, 56, 0
13, 29186, Note_on_c, 11, 58, 115
13, 29214, Control_c, 11, 64, 127
13, 29279, Note_on_c, 11, 51, 95
13, 29279, Note_on_c, 11, 54, 0
13, 29282, Note_on_c, 11, 58, 0
13, 29319, Control_c, 11, 64, 0
13, 29325, Note_on_c, 11, 56, 113
13, 29415, Note_on_c, 11, 51, 0
13, 29425, Note_on_c, 11, 58, 113
13, 29434, Note_on_c, 11, 56, 0
13, 29569, Note_on_c, 11, 51, 104
13, 29604, Note_on_c, 11, 58, 0
13, 29664, Note_on_c, 11, 58, 82
13, 29713, Note_on_c, 11, 61, 111
13, 29807, Note_on_c, 11, 63, 109
13, 29822, Note_on_c, 11, 61, 0
13, 29929, Note_on_c, 11, 58, 0
13, 29939, Note_on_c, 11, 63, 0
13, 29948, Note_on_c, 11, 51, 0
13, 29949, Note_on_c, 11, 58, 95
13, 29950, Note_on_c, 11, 51, 93
13, 29952, Note_on_c, 11, 44, 91
13, 29953, Note_on_c, 11, 55, 97
13, 29966, Note_on_c, 11, 51, 0
13, 30031, Control_c, 11, 64, 127
13, 30046, Note_on_c, 11, 51, 89
13, 30079, Note_on_c, 11, 58, 0
13, 30083, Note_on_c, 11, 55, 0
13, 30097, Note_on_c, 11, 63, 112
13, 30132, Note_on_c, 11, 51, 0
13, 30194, Note_on_c, 11, 44, 0
13, 30194, Note_on_c, 11, 51, 87
13, 30216, Note_on_c, 11, 51, 0
13, 30241, Note_on_c, 11, 56, 95
13, 30241, Note_on_c, 11, 60, 101
13, 30242, Note_on_c, 11, 44, 91
13, 30242, Note_on_c, 11, 51, 91
13, 30244, Note_on_c, 11, 63, 0
13, 30247, Control_c, 11, 64, 0
13, 30346, Control_c, 11, 64, 127
13, 30424, Note_on_c, 11, 51, 0
13, 30481, Note_on_c, 11, 51, 77
13, 30505, Note_on_c, 11, 56, 0
13, 30578, Note_on_c, 11, 56, 89
13, 30602, Note_on_c, 11, 51, 0
13, 30642, Note_on_c, 11, 60, 0
13, 30666, Note_on_c, 11, 56, 0
13, 30672, Note_on_c, 11, 51, 87
13, 30676, Note_on_c, 11, 44, 0
13, 30706, Control_c, 11, 64, 0
13, 30708, Note_on_c, 11, 51, 0
13, 30717, Note_on_c, 11, 51, 101
13, 30718, Note_on_c, 11, 55, 107
13, 30720, Note_on_c, 11, 58, 105
13, 30722, Note_on_c, 11, 44, 97
13, 30782, Note_on_c, 11, 51, 0
13, 30784, Control_c, 11, 64, 127
13, 30814, Note_on_c, 11, 51, 87
13, 30825, Note_on_c, 11, 55, 0
13, 30828, Note_on_c, 11, 58, 0
13, 30864, Note_on_c, 11, 63, 109
13, 30876, Note_on_c, 11, 51, 0
13, 30929, Note_on_c, 11, 63, 0
13, 30962, Note_on_c, 11, 51, 79
13, 30968, Note_on_c, 11, 44, 0
13, 30987, Note_on_c, 11, 51, 0
13, 31001, Control_c, 11, 64, 0
13, 31005, Note_on_c, 11, 51, 97
13, 31006, Note_on_c, 11, 60, 105
13, 31009, Note_on_c, 11, 56, 103
13, 31010, Note_on_c, 11, 44, 95
13, 31073, Control_c, 11, 64, 127
13, 31127, Note_on_c, 11, 51, 0
13, 31130, Note_on_c, 11, 56, 0
13, 31154, Note_on_c, 11, 56, 93
13, 31205, Note_on_c, 11, 56, 0
13, 31206, Note_on_c, 11, 60, 0
13, 31250, Note_on_c, 11, 51, 83
13, 31267, Note_on_c, 11, 51, 0
13, 31293, Note_on_c, 11, 60, 99
13, 31323, Note_on_c, 11, 60, 0
13, 31341, Note_on_c, 11, 61, 113
13, 31394, Note_on_c, 11, 63, 119
13, 31404, Note_on_c, 11, 61, 0
13, 31422, Note_on_c, 11, 63, 0
13, 31437, Note_on_c, 11, 44, 0
13, 31485, Note_on_c, 11, 55, 109
13, 31489, Note_on_c, 11, 44, 99
13, 31489, Note_on_c, 11, 58, 109
13, 31492, Control_c, 11, 64, 0
13, 31586, Note_on_c, 11, 51, 93
13, 31590, Control_c, 11, 64, 127
13, 31633, Note_on_c, 11, 63, 111
13, 31659, Note_on_c, 11, 51, 0
13, 31686, Note_on_c, 11, 55, 0
13, 31700, Note_on_c, 11, 63, 0
13, 31712, Note_on_c, 11, 58, 0
13, 31728, Note_on_c, 11, 51, 89
13, 31733, Note_on_c, 11, 44, 0
13, 31749, Note_on_c, 11, 51, 0
13, 31775, Note_on_c, 11, 60, 103
13, 31776, Note_on_c, 11, 44, 93
13, 31776, Note_on_c, 11, 51, 97
13, 31777, Note_on_c, 11, 56, 103
13, 31781, Control_c, 11, 64, 0
13, 31859, Control_c, 11, 64, 127
13, 31920, Note_on_c, 11, 63, 87
13, 31974, Note_on_c, 11, 51, 0
13, 32015, Note_on_c, 11, 51, 69
13, 32026, Note_on_c, 11, 56, 0
13, 32109, Note_on_c, 11, 56, 91
13, 32133, Note_on_c, 11, 51, 0
13, 32183, Note_on_c, 11, 63, 0
13, 32193, Note_on_c, 11, 60, 0
13, 32201, Note_on_c, 11, 56, 0
13, 32208, Note_on_c, 11, 51, 85
13, 32215, Note_on_c, 11, 44, 0
13, 32227, Note_on_c, 11, 51, 0
13, 32245, Control_c, 11, 64, 0
13, 32253, Note_on_c, 11, 44, 99
13, 32257, Note_on_c, 11, 51, 105
13, 32258, Note_on_c, 11, 55, 109
13, 32258, Note_on_c, 11, 58, 109
13, 32322, Note_on_c, 11, 51, 0
13, 32330, Control_c, 11, 64, 127
13, 32352, Note_on_c, 11, 51, 99
13, 32356, Note_on_c, 11, 58, 0
13, 32365, Note_on_c, 11, 55, 0
13, 32391, Note_on_c, 11, 51, 0
13, 32397, Note_on_c, 11, 55, 93
13, 32400, Note_on_c, 11, 58, 97
13, 32401, Note_on_c, 11, 63, 115
13, 32458, Note_on_c, 11, 55, 0
13, 32486, Note_on_c, 11, 63, 0
13, 32494, Note_on_c, 11, 51, 87
13, 32507, Note_on_c, 11, 58, 0
13, 32508, Note_on_c, 11, 44, 0
13, 32522, Note_on_c, 11, 51, 0
13, 32541, Note_on_c, 11, 44, 99
13, 32541, Note_on_c, 11, 51, 97
13, 32542, Note_on_c, 11, 56, 109
13, 32545, Note_on_c, 11, 60, 107
13, 32553, Control_c, 11, 64, 0
13, 32606, Note_on_c, 11, 51, 0
13, 32619, Control_c, 11, 64, 127
13, 32642, Note_on_c, 11, 51, 85
13, 32646, Note_on_c, 11, 56, 0
13, 32685, Note_on_c, 11, 56, 99
13, 32689, Note_on_c, 11, 51, 0
13, 32751, Note_on_c, 11, 60, 0
13, 32760, Note_on_c, 11, 56, 0
13, 32781, Note_on_c, 11, 51, 85
13, 32791, Note_on_c, 11, 51, 0
13, 32829, Note_on_c, 11, 60, 109
13, 32854, Note_on_c, 11, 60, 0
13, 32880, Note_on_c, 11, 61, 113
13, 32901, Note_on_c, 11, 61, 0
13, 32929, Note_on_c, 11, 63, 121
13, 32997, Note_on_c, 11, 44, 0
13, 33009, Note_on_c, 11, 63, 0
13, 33019, Control_c, 11, 64, 0
13, 33021, Note_on_c, 11, 41, 99
13, 33022, Note_on_c, 11, 55, 105
13, 33026, Note_on_c, 11, 58, 109
13, 33087, Control_c, 11, 64, 127
13, 33104, Note_on_c, 11, 55, 0
13, 33118, Note_on_c, 11, 55, 91
13, 33165, Note_on_c, 11, 63, 111
13, 33202, Note_on_c, 11, 55, 0
13, 33222, Note_on_c, 11, 63, 0
13, 33225, Note_on_c, 11, 58, 0
13, 33265, Note_on_c, 11, 55, 83
13, 33289, Note_on_c, 11, 55, 0
13, 33310, Note_on_c, 11, 53, 93
13, 33310, Note_on_c, 11, 60, 103
13, 33310, Control_c, 11, 64, 0
13, 33311, Note_on_c, 11, 56, 109
13, 33408, Control_c, 11, 64, 127
13, 33543, Note_on_c, 11, 56, 0
13, 33599, Note_on_c, 11, 56, 109
13, 33655, Note_on_c, 11, 53, 0
13, 33689, Note_on_c, 11, 60, 0
13, 33697, Note_on_c, 11, 53, 79
13, 33718, Note_on_c, 11, 41, 0
13, 33782, Control_c, 11, 64, 0
13, 33789, Note_on_c, 11, 55, 103
13, 33789, Note_on_c, 11, 58, 109
13, 33790, Note_on_c, 11, 41, 93
13, 33799, Note_on_c, 11, 53, 0
13, 33805, Note_on_c, 11, 56, 0
13, 33867, Control_c, 11, 64, 127
13, 33887, Note_on_c, 11, 55, 0
13, 33890, Note_on_c, 11, 53, 89
13, 33893, Note_on_c, 11, 58, 0
13, 33933, Note_on_c, 11, 58, 109
13, 33934, Note_on_c, 11, 63, 107
13, 33943, Note_on_c, 11, 53, 0
13, 34017, Note_on_c, 11, 63, 0
13, 34030, Note_on_c, 11, 55, 85
13, 34044, Note_on_c, 11, 58, 0
13, 34069, Note_on_c, 11, 55, 0
13, 34079, Note_on_c, 11, 60, 107
13, 34081, Note_on_c, 11, 56, 105
13, 34082, Note_on_c, 11, 53, 87
13, 34083, Control_c, 11, 64, 0
13, 34162, Control_c, 11, 64, 127
13, 34196, Note_on_c, 11, 56, 0
13, 34224, Note_on_c, 11, 56, 95
13, 34278, Note_on_c, 11, 60, 0
13, 34283, Note_on_c, 11, 53, 0
13, 34300, Note_on_c, 11, 56, 0
13, 34320, Note_on_c, 11, 53, 93
13, 34365, Note_on_c, 11, 56, 73
13, 34370, Note_on_c, 11, 60, 99
13, 34414, Note_on_c, 11, 61, 105
13, 34460, Note_on_c, 11, 60, 0
13, 34462, Note_on_c, 11, 63, 109
13, 34478, Note_on_c, 11, 61, 0
13, 34519, Note_on_c, 11, 56, 0
13, 34523, Note_on_c, 11, 53, 0
13, 34523, Note_on_c, 11, 63, 0
13, 34530, Note_on_c, 11, 41, 0
13, 34557, Control_c, 11, 64, 0
13, 34558, Note_on_c, 11, 53, 101
13, 34558, Note_on_c, 11, 58, 101
13, 34561, Note_on_c, 11, 46, 101
13, 34561, Note_on_c, 11, 61, 105
13, 34622, Control_c, 11, 64, 127
13, 34644, Note_on_c, 11, 61, 0
13, 34653, Note_on_c, 11, 60, 95
13, 34661, Note_on_c, 11, 58, 0
13, 34672, Note_on_c, 11, 53, 0
13, 34686, Note_on_c, 11, 60, 0
13, 34706, Note_on_c, 11, 53, 101
13, 34706, Note_on_c, 11, 58, 107
13, 34845, Note_on_c, 11, 56, 91
13, 34851, Note_on_c, 11, 58, 0
13, 34890, Control_c, 11, 64, 0
13, 34893, Note_on_c, 11, 58, 105
13, 34936, Control_c, 11, 64, 127
13, 34977, Note_on_c, 11, 56, 0
13, 35087, Note_on_c, 11, 44, 93
13, 35092, Note_on_c, 11, 46, 0
13, 35101, Note_on_c, 11, 53, 0
13, 35111, Note_on_c, 11, 51, 95
13, 35128, Note_on_c, 11, 56, 103
13, 35143, Note_on_c, 11, 60, 101
13, 35168, Note_on_c, 11, 58, 0
13, 35178, Control_c, 11, 64, 0
13, 35221, Control_c, 11, 64, 127
13, 35251, Note_on_c, 11, 60, 0
13, 35268, Note_on_c, 11, 56, 0
13, 35287, Note_on_c, 11, 51, 0
13, 35292, Note_on_c, 11, 44, 0
13, 35327, Note_on_c, 11, 58, 97
13, 35328, Note_on_c, 11, 42, 95
13, 35328, Note_on_c, 11, 61, 93
13, 35330, Note_on_c, 11, 54, 95
13, 35346, Control_c, 11, 64, 0
13, 35710, Note_on_c, 11, 27, 92
13, 35713, Note_on_c, 11, 39, 89
13, 35995, Note_on_c, 11, 42, 0
13, 36088, Note_on_c, 11, 27, 0
13, 36089, Note_on_c, 11, 58, 0
13, 36090, Note_on_c, 11, 39, 0
13, 36091, Note_on_c, 11, 54, 0
13, 36092, Note_on_c, 11, 61, 0
13, 36096, Note_on_c, 11, 58, 121
13, 36097, Note_on_c, 11, 55, 109
13, 36097, Note_on_c, 11, 63, 113
13, 36130, Control_c, 11, 64, 127
13, 36159, Note_on_c, 11, 55, 0
13, 36164, Note_on_c, 11, 58, 0
13, 36168, Note_on_c, 11, 63, 0
13, 36193, Note_on_c, 11, 55, 65
13, 36205, Note_on_c, 11, 55, 0
13, 36235, Control_c, 11, 64, 0
13, 36237, Note_on_c, 11, 58, 117
13, 36242, Note_on_c, 11, 55, 109
13, 36242, Note_on_c, 11, 63, 117
13, 36261, Control_c, 11, 64, 127
13, 36279, Note_on_c, 11, 58, 0
13, 36281, Note_on_c, 11, 55, 0
13, 36282, Note_on_c, 11, 63, 0
13, 36335, Note_on_c, 11, 51, 109
13, 36352, Note_on_c, 11, 51, 0
13, 36381, Note_on_c, 11, 56, 109
13, 36384, Note_on_c, 11, 51, 93
13, 36384, Note_on_c, 11, 60, 97
13, 36392, Control_c, 11, 64, 0
13, 36440, Control_c, 11, 64, 127
13, 36483, Note_on_c, 11, 56, 0
13, 36486, Note_on_c, 11, 51, 0
13, 36487, Note_on_c, 11, 60, 0
13, 36526, Note_on_c, 11, 51, 95
13, 36574, Note_on_c, 11, 58, 115
13, 36585, Note_on_c, 11, 51, 0
13, 36626, Note_on_c, 11, 56, 113
13, 36630, Note_on_c, 11, 58, 0
13, 36674, Note_on_c, 11, 51, 72
13, 36720, Note_on_c, 11, 63, 113
13, 36723, Note_on_c, 11, 56, 0
13, 36766, Note_on_c, 11, 56, 109
13, 36782, Note_on_c, 11, 51, 0
13, 36842, Note_on_c, 11, 56, 0
13, 36851, Note_on_c, 11, 63, 0
13, 36857, Control_c, 11, 64, 0
13, 36861, Note_on_c, 11, 58, 117
13, 36865, Note_on_c, 11, 55, 113
13, 36934, Note_on_c, 11, 55, 0
13, 36959, Note_on_c, 11, 51, 109
13, 37006, Note_on_c, 11, 63, 118
13, 37023, Note_on_c, 11, 51, 0
13, 37043, Control_c, 11, 64, 127
13, 37080, Note_on_c, 11, 58, 0
13, 37082, Note_on_c, 11, 63, 0
13, 37104, Note_on_c, 11, 55, 104
13, 37141, Control_c, 11, 64, 0
13, 37149, Note_on_c, 11, 60, 114
13, 37150, Note_on_c, 11, 56, 116
13, 37151, Note_on_c, 11, 55, 0
13, 37239, Control_c, 11, 64, 127
13, 37323, Note_on_c, 11, 60, 0
13, 37333, Note_on_c, 11, 56, 0
13, 37391, Note_on_c, 11, 51, 108
13, 37437, Note_on_c, 11, 56, 109
13, 37437, Note_on_c, 11, 60, 108
13, 37452, Note_on_c, 11, 51, 0
13, 37482, Control_c, 11, 64, 0
13, 37483, Note_on_c, 11, 56, 0
13, 37483, Note_on_c, 11, 60, 0
13, 37487, Note_on_c, 11, 61, 115
13, 37490, Note_on_c, 11, 58, 115
13, 37533, Note_on_c, 11, 60, 116
13, 37538, Note_on_c, 11, 63, 114
13, 37551, Note_on_c, 11, 61, 0
13, 37552, Note_on_c, 11, 58, 0
13, 37585, Note_on_c, 11, 51, 102
13, 37626, Note_on_c, 11, 60, 0
13, 37631, Note_on_c, 11, 63, 0
13, 37632, Note_on_c, 11, 55, 112
13, 37632, Note_on_c, 11, 58, 108
13, 37715, Control_c, 11, 64, 127
13, 37716, Note_on_c, 11, 51, 0
13, 37728, Note_on_c, 11, 51, 94
13, 37734, Note_on_c, 11, 58, 0
13, 37741, Note_on_c, 11, 55, 0
13, 37758, Note_on_c, 11, 51, 0
13, 37776, Note_on_c, 11, 58, 112
13, 37778, Note_on_c, 11, 51, 116
13, 37778, Note_on_c, 11, 55, 114
13, 37812, Note_on_c, 11, 55, 0
13, 37812, Note_on_c, 11, 58, 0
13, 37819, Note_on_c, 11, 51, 0
13, 37869, Note_on_c, 11, 51, 100
13, 37898, Note_on_c, 11, 51, 0
13, 37918, Control_c, 11, 64, 0
13, 37920, Note_on_c, 11, 51, 108
13, 37920, Note_on_c, 11, 60, 114
13, 37921, Note_on_c, 11, 56, 112
13, 37984, Control_c, 11, 64, 127
13, 37992, Note_on_c, 11, 51, 0
13, 38016, Note_on_c, 11, 51, 96
13, 38042, Note_on_c, 11, 60, 0
13, 38087, Note_on_c, 11, 51, 0
13, 38151, Note_on_c, 11, 56, 0
13, 38160, Note_on_c, 11, 51, 100
13, 38207, Note_on_c, 11, 56, 98
13, 38223, Note_on_c, 11, 51, 0
13, 38258, Note_on_c, 11, 63, 114
13, 38284, Note_on_c, 11, 56, 0
13, 38305, Note_on_c, 11, 56, 114
13, 38308, Note_on_c, 11, 63, 0
13, 38351, Note_on_c, 11, 51, 98
13, 38355, Note_on_c, 11, 56, 0
13, 38398, Note_on_c, 11, 58, 116
13, 38402, Note_on_c, 11, 55, 114
13, 38410, Control_c, 11, 64, 0
13, 38428, Note_on_c, 11, 51, 0
13, 38475, Control_c, 11, 64, 127
13, 38495, Note_on_c, 11, 58, 0
13, 38497, Note_on_c, 11, 51, 82
13, 38513, Note_on_c, 11, 55, 0
13, 38518, Note_on_c, 11, 51, 0
13, 38542, Note_on_c, 11, 55, 118
13, 38544, Note_on_c, 11, 63, 116
13, 38611, Note_on_c, 11, 63, 0
13, 38618, Note_on_c, 11, 55, 0
13, 38642, Note_on_c, 11, 51, 86
13, 38690, Note_on_c, 11, 56, 116
13, 38690, Note_on_c, 11, 60, 108
13, 38704, Control_c, 11, 64, 0
13, 38735, Note_on_c, 11, 51, 0
13, 38770, Control_c, 11, 64, 127
13, 38784, Note_on_c, 11, 51, 92
13, 38808, Note_on_c, 11, 60, 0
13, 38834, Note_on_c, 11, 51, 0
13, 38928, Note_on_c, 11, 51, 94
13, 38939, Note_on_c, 11, 56, 0
13, 38973, Note_on_c, 11, 56, 106
13, 38973, Note_on_c, 11, 60, 117
13, 38997, Note_on_c, 11, 51, 0
13, 39019, Note_on_c, 11, 60, 0
13, 39025, Note_on_c, 11, 61, 106
13, 39071, Note_on_c, 11, 61, 0
13, 39074, Note_on_c, 11, 63, 122
13, 39130, Control_c, 11, 64, 0
13, 39161, Note_on_c, 11, 63, 0
13, 39166, Note_on_c, 11, 53, 107
13, 39166, Note_on_c, 11, 56, 0
13, 39169, Note_on_c, 11, 58, 117
13, 39170, Note_on_c, 11, 61, 101
13, 39252, Control_c, 11, 64, 127
13, 39302, Note_on_c, 11, 53, 0
13, 39304, Note_on_c, 11, 58, 0
13, 39305, Note_on_c, 11, 61, 0
13, 39311, Note_on_c, 11, 53, 121
13, 39311, Note_on_c, 11, 58, 121
13, 39311, Note_on_c, 11, 61, 105
13, 39311, Control_c, 11, 64, 0
13, 39493, Note_on_c, 11, 58, 0
13, 39493, Note_on_c, 11, 61, 0
13, 39495, Note_on_c, 11, 53, 0
13, 39501, Note_on_c, 11, 61, 109
13, 39504, Note_on_c, 11, 58, 118
13, 39506, Note_on_c, 11, 53, 109
13, 39738, Note_on_c, 11, 61, 0
13, 39741, Note_on_c, 11, 58, 0
13, 39741, Note_on_c, 11, 60, 117
13, 39743, Note_on_c, 11, 53, 0
13, 39744, Note_on_c, 11, 56, 106
13, 39787, Note_on_c, 11, 60, 0
13, 39792, Note_on_c, 11, 61, 106
13, 39838, Note_on_c, 11, 61, 0
13, 39838, Note_on_c, 11, 63, 122
13, 39925, Note_on_c, 11, 63, 0
13, 39933, Note_on_c, 11, 61, 101
13, 39937, Note_on_c, 11, 56, 0
13, 39937, Note_on_c, 11, 58, 117
13, 39938, Note_on_c, 11, 53, 107
13, 40020, Control_c, 11, 64, 127
13, 40068, Note_on_c, 11, 61, 0
13, 40072, Note_on_c, 11, 58, 0
13, 40074, Note_on_c, 11, 53, 0
13, 40077, Note_on_c, 11, 53, 121
13, 40079, Control_c, 11, 64, 0
13, 40081, Note_on_c, 11, 58, 121
13, 40081, Note_on_c, 11, 61, 105
13, 40261, Note_on_c, 11, 53, 0
13, 40263, Note_on_c, 11, 58, 0
13, 40263, Note_on_c, 11, 61, 0
13, 40270, Note_on_c, 11, 61, 109
13, 40272, Note_on_c, 11, 53, 109
13, 40272, Note_on_c, 11, 58, 118
13, 40507, Note_on_c, 11, 61, 0
13, 40509, Note_on_c, 11, 53, 0
13, 40509, Note_on_c, 11, 58, 0
13, 40511, Note_on_c, 11, 60, 117
13, 40514, Note_on_c, 11, 56, 106
13, 40557, Note_on_c, 11, 60, 0
13, 40557, Note_on_c, 11, 61, 106
13, 40603, Note_on_c, 11, 61, 0
13, 40610, Note_on_c, 11, 63, 122
13, 40697, Note_on_c, 11, 63, 0
13, 40702, Note_on_c, 11, 61, 117
13, 40703, Note_on_c, 11, 53, 108
13, 40704, Note_on_c, 11, 58, 106
13, 40707, Note_on_c, 11, 56, 0
13, 40788, Control_c, 11, 64, 127
13, 40790, Note_on_c, 11, 61, 0
13, 40795, Note_on_c, 11, 58, 0
13, 40802, Note_on_c, 11, 60, 109
13, 40846, Note_on_c, 11, 58, 121
13, 40847, Control_c, 11, 64, 0
13, 40860, Note_on_c, 11, 60, 0
13, 40986, Note_on_c, 11, 53, 0
13, 40991, Note_on_c, 11, 56, 103
13, 40992, Note_on_c, 11, 58, 0
13, 41081, Note_on_c, 11, 56, 0
13, 41085, Note_on_c, 11, 60, 113
13, 41088, Note_on_c, 11, 56, 108
13, 41090, Note_on_c, 11, 51, 102
13, 41182, Note_on_c, 11, 58, 113
13, 41191, Note_on_c, 11, 60, 0
13, 41225, Note_on_c, 11, 56, 0
13, 41231, Note_on_c, 11, 56, 111
13, 41241, Note_on_c, 11, 58, 0
13, 41247, Control_c, 11, 64, 127
13, 41340, Note_on_c, 11, 51, 0
13, 41352, Note_on_c, 11, 56, 0
13, 41378, Note_on_c, 11, 56, 107
13, 41443, Control_c, 11, 64, 0
13, 41470, Note_on_c, 11, 58, 115
13, 41474, Note_on_c, 11, 54, 115
13, 41476, Note_on_c, 11, 56, 0
13, 41502, Control_c, 11, 64, 127
13, 41566, Note_on_c, 11, 58, 0
13, 41567, Note_on_c, 11, 51, 95
13, 41570, Note_on_c, 11, 54, 0
13, 41607, Control_c, 11, 64, 0
13, 41615, Note_on_c, 11, 56, 113
13, 41703, Note_on_c, 11, 51, 0
13, 41713, Note_on_c, 11, 58, 113
13, 41724, Note_on_c, 11, 56, 0
13, 41854, Note_on_c, 11, 51, 104
13, 41892, Note_on_c, 11, 58, 0
13, 42234, Note_on_c, 11, 51, 0
13, 42238, Note_on_c, 11, 65, 117
13, 42290, Note_on_c, 11, 56, 97
13, 42335, Note_on_c, 11, 61, 97
13, 42382, Note_on_c, 11, 63, 111
13, 42398, Note_on_c, 11, 65, 0
13, 42478, Note_on_c, 11, 65, 107
13, 42482, Note_on_c, 11, 63, 0
13, 42500, Note_on_c, 11, 56, 0
13, 42525, Note_on_c, 11, 61, 0
13, 42526, Note_on_c, 11, 56, 101
13, 42578, Note_on_c, 11, 61, 89
13, 42604, Note_on_c, 11, 65, 0
13, 42620, Note_on_c, 11, 56, 0
13, 42625, Note_on_c, 11, 65, 115
13, 42669, Note_on_c, 11, 56, 97
13, 42685, Note_on_c, 11, 61, 0
13, 42717, Note_on_c, 11, 61, 99
13, 42755, Note_on_c, 11, 65, 0
13, 42765, Note_on_c, 11, 63, 111
13, 42795, Note_on_c, 11, 56, 0
13, 42813, Note_on_c, 11, 56, 87
13, 42862, Note_on_c, 11, 65, 113
13, 42875, Note_on_c, 11, 56, 0
13, 42878, Note_on_c, 11, 63, 0
13, 42907, Note_on_c, 11, 61, 0
13, 42909, Note_on_c, 11, 56, 107
13, 42962, Note_on_c, 11, 61, 95
13, 42967, Note_on_c, 11, 65, 0
13, 42991, Note_on_c, 11, 56, 0
13, 43009, Note_on_c, 11, 63, 111
13, 43044, Control_c, 11, 64, 127
13, 43057, Note_on_c, 11, 55, 85
13, 43061, Note_on_c, 11, 61, 0
13, 43075, Note_on_c, 11, 63, 0
13, 43121, Note_on_c, 11, 55, 0
13, 43155, Note_on_c, 11, 61, 105
13, 43243, Note_on_c, 11, 61, 0
13, 43256, Note_on_c, 11, 55, 87
13, 43299, Note_on_c, 11, 55, 0
13, 43303, Note_on_c, 11, 60, 107
13, 43342, Note_on_c, 11, 55, 87
13, 43394, Note_on_c, 11, 63, 111
13, 43399, Note_on_c, 11, 55, 0
13, 43433, Note_on_c, 11, 60, 0
13, 43439, Note_on_c, 11, 55, 91
13, 43493, Note_on_c, 11, 63, 0
13, 43527, Note_on_c, 11, 61, 113
13, 43540, Note_on_c, 11, 55, 0
13, 43623, Note_on_c, 11, 55, 91
13, 43671, Note_on_c, 11, 61, 0
13, 43673, Note_on_c, 11, 60, 101
13, 43685, Note_on_c, 11, 55, 0
13, 43750, Note_on_c, 11, 60, 0
13, 43758, Control_c, 11, 64, 0
13, 43778, Note_on_c, 11, 63, 111
13, 43820, Control_c, 11, 64, 127
13, 43825, Note_on_c, 11, 54, 95
13, 43871, Note_on_c, 11, 59, 103
13, 43876, Note_on_c, 11, 63, 0
13, 43919, Note_on_c, 11, 61, 111
13, 43942, Note_on_c, 11, 54, 0
13, 43966, Note_on_c, 11, 54, 91
13, 44018, Note_on_c, 11, 63, 99
13, 44027, Note_on_c, 11, 54, 0
13, 44034, Note_on_c, 11, 61, 0
13, 44037, Note_on_c, 11, 59, 0
13, 44065, Note_on_c, 11, 54, 99
13, 44107, Note_on_c, 11, 63, 0
13, 44127, Note_on_c, 11, 54, 0
13, 44158, Note_on_c, 11, 63, 115
13, 44181, Control_c, 11, 64, 0
13, 44205, Note_on_c, 11, 54, 93
13, 44207, Control_c, 11, 64, 127
13, 44254, Note_on_c, 11, 63, 0
13, 44258, Note_on_c, 11, 59, 91
13, 44276, Note_on_c, 11, 54, 0
13, 44290, Note_on_c, 11, 59, 0
13, 44306, Note_on_c, 11, 61, 115
13, 44350, Note_on_c, 11, 54, 91
13, 44402, Note_on_c, 11, 63, 111
13, 44404, Note_on_c, 11, 61, 0
13, 44409, Note_on_c, 11, 54, 0
13, 44447, Note_on_c, 11, 54, 89
13, 44480, Note_on_c, 11, 63, 0
13, 44485, Note_on_c, 11, 54, 0
13, 44495, Note_on_c, 11, 59, 81
13, 44524, Note_on_c, 11, 59, 0
13, 44543, Note_on_c, 11, 61, 117
13, 44547, Control_c, 11, 64, 0
13, 44580, Control_c, 11, 64, 127
13, 44590, Note_on_c, 11, 53, 87
13, 44620, Note_on_c, 11, 61, 0
13, 44637, Note_on_c, 11, 58, 91
13, 44660, Note_on_c, 11, 53, 0
13, 44685, Note_on_c, 11, 61, 87
13, 44689, Note_on_c, 11, 58, 0
13, 44737, Note_on_c, 11, 55, 111
13, 44737, Control_c, 11, 64, 0
13, 44738, Note_on_c, 11, 63, 111
13, 44742, Note_on_c, 11, 61, 0
13, 44806, Note_on_c, 11, 55, 0
13, 44815, Note_on_c, 11, 63, 0
13, 45309, Note_on_c, 11, 63, 113
13, 45311, Note_on_c, 11, 55, 109
13, 45314, Note_on_c, 11, 58, 121
13, 45346, Control_c, 11, 64, 127
13, 45373, Note_on_c, 11, 55, 0
13, 45380, Note_on_c, 11, 63, 0
13, 45382, Note_on_c, 11, 58, 0
13, 45409, Note_on_c, 11, 55, 65
13, 45421, Note_on_c, 11, 55, 0
13, 45451, Control_c, 11, 64, 0
13, 45453, Note_on_c, 11, 55, 109
13, 45455, Note_on_c, 11, 58, 117
13, 45458, Note_on_c, 11, 63, 117
13, 45477, Control_c, 11, 64, 127
13, 45492, Note_on_c, 11, 55, 0
13, 45497, Note_on_c, 11, 58, 0
13, 45498, Note_on_c, 11, 63, 0
13, 45549, Note_on_c, 11, 51, 109
13, 45566, Note_on_c, 11, 51, 0
13, 45598, Note_on_c, 11, 51, 93
13, 45598, Note_on_c, 11, 56, 109
13, 45600, Note_on_c, 11, 60, 97
13, 45608, Control_c, 11, 64, 0
13, 45656, Control_c, 11, 64, 127
13, 45700, Note_on_c, 11, 51, 0
13, 45700, Note_on_c, 11, 56, 0
13, 45703, Note_on_c, 11, 60, 0
13, 45744, Note_on_c, 11, 51, 95
13, 45790, Note_on_c, 11, 58, 115
13, 45803, Note_on_c, 11, 51, 0
13, 45841, Note_on_c, 11, 56, 113
13, 45846, Note_on_c, 11, 58, 0
13, 45888, Note_on_c, 11, 51, 72
13, 45938, Note_on_c, 11, 56, 0
13, 45938, Note_on_c, 11, 63, 113
13, 45984, Note_on_c, 11, 56, 109
13, 45996, Note_on_c, 11, 51, 0
13, 46060, Note_on_c, 11, 56, 0
13, 46069, Note_on_c, 11, 63, 0
13, 46073, Control_c, 11, 64, 0
13, 46079, Note_on_c, 11, 55, 113
13, 46081, Note_on_c, 11, 58, 117
13, 46148, Note_on_c, 11, 55, 0
13, 46173, Note_on_c, 11, 51, 109
13, 46221, Note_on_c, 11, 63, 118
13, 46237, Note_on_c, 11, 51, 0
13, 46259, Control_c, 11, 64, 127
13, 46297, Note_on_c, 11, 63, 0
13, 46300, Note_on_c, 11, 58, 0
13, 46318, Note_on_c, 11, 55, 104
13, 46357, Control_c, 11, 64, 0
13, 46365, Note_on_c, 11, 55, 0
13, 46365, Note_on_c, 11, 60, 114
13, 46370, Note_on_c, 11, 56, 116
13, 46455, Control_c, 11, 64, 127
13, 46539, Note_on_c, 11, 60, 0
13, 46553, Note_on_c, 11, 56, 0
13, 46606, Note_on_c, 11, 51, 108
13, 46653, Note_on_c, 11, 60, 108
13, 46654, Note_on_c, 11, 56, 109
13, 46667, Note_on_c, 11, 51, 0
13, 46698, Control_c, 11, 64, 0
13, 46699, Note_on_c, 11, 60, 0
13, 46700, Note_on_c, 11, 56, 0
13, 46701, Note_on_c, 11, 58, 115
13, 46705, Note_on_c, 11, 61, 115
13, 46753, Note_on_c, 11, 60, 116
13, 46754, Note_on_c, 11, 63, 114
13, 46763, Note_on_c, 11, 58, 0
13, 46769, Note_on_c, 11, 61, 0
13, 46799, Note_on_c, 11, 51, 102
13, 46846, Note_on_c, 11, 60, 0
13, 46847, Note_on_c, 11, 58, 108
13, 46847, Note_on_c, 11, 63, 0
13, 46848, Note_on_c, 11, 55, 112
13, 46930, Note_on_c, 11, 51, 0
13, 46931, Control_c, 11, 64, 127
13, 46944, Note_on_c, 11, 51, 94
13, 46949, Note_on_c, 11, 58, 0
13, 46957, Note_on_c, 11, 55, 0
13, 46974, Note_on_c, 11, 51, 0
13, 46991, Note_on_c, 11, 55, 114
13, 46991, Note_on_c, 11, 58, 112
13, 46992, Note_on_c, 11, 51, 116
13, 47025, Note_on_c, 11, 55, 0
13, 47027, Note_on_c, 11, 58, 0
13, 47033, Note_on_c, 11, 51, 0
13, 47085, Note_on_c, 11, 51, 100
13, 47114, Note_on_c, 11, 51, 0
13, 47133, Note_on_c, 11, 56, 112
13, 47134, Control_c, 11, 64, 0
13, 47137, Note_on_c, 11, 51, 108
13, 47138, Note_on_c, 11, 60, 114
13, 47200, Control_c, 11, 64, 127
13, 47209, Note_on_c, 11, 51, 0
13, 47229, Note_on_c, 11, 51, 96
13, 47260, Note_on_c, 11, 60, 0
13, 47300, Note_on_c, 11, 51, 0
13, 47363, Note_on_c, 11, 56, 0
13, 47374, Note_on_c, 11, 51, 100
13, 47426, Note_on_c, 11, 56, 98
13, 47437, Note_on_c, 11, 51, 0
13, 47472, Note_on_c, 11, 63, 114
13, 47503, Note_on_c, 11, 56, 0
13, 47519, Note_on_c, 11, 56, 114
13, 47522, Note_on_c, 11, 63, 0
13, 47568, Note_on_c, 11, 51, 98
13, 47569, Note_on_c, 11, 56, 0
13, 47615, Note_on_c, 11, 58, 116
13, 47616, Note_on_c, 11, 55, 114
13, 47626, Control_c, 11, 64, 0
13, 47645, Note_on_c, 11, 51, 0
13, 47691, Control_c, 11, 64, 127
13, 47712, Note_on_c, 11, 58, 0
13, 47713, Note_on_c, 11, 51, 82
13, 47727, Note_on_c, 11, 55, 0
13, 47734, Note_on_c, 11, 51, 0
13, 47757, Note_on_c, 11, 63, 116
13, 47762, Note_on_c, 11, 55, 118
13, 47824, Note_on_c, 11, 63, 0
13, 47838, Note_on_c, 11, 55, 0
13, 47858, Note_on_c, 11, 51, 86
13, 47901, Note_on_c, 11, 60, 108
13, 47904, Note_on_c, 11, 56, 116
13, 47920, Control_c, 11, 64, 0
13, 47951, Note_on_c, 11, 51, 0
13, 47986, Control_c, 11, 64, 127
13, 48001, Note_on_c, 11, 51, 92
13, 48019, Note_on_c, 11, 60, 0
13, 48051, Note_on_c, 11, 51, 0
13, 48146, Note_on_c, 11, 51, 94
13, 48153, Note_on_c, 11, 56, 0
13, 48192, Note_on_c, 11, 56, 106
13, 48193, Note_on_c, 11, 60, 117
13, 48215, Note_on_c, 11, 51, 0
13, 48239, Note_on_c, 11, 60, 0
13, 48239, Note_on_c, 11, 61, 106
13, 48285, Note_on_c, 11, 61, 0
13, 48289, Note_on_c, 11, 63, 122
13, 48346, Control_c, 11, 64, 0
13, 48376, Note_on_c, 11, 63, 0
13, 48381, Note_on_c, 11, 53, 107
13, 48381, Note_on_c, 11, 61, 101
13, 48382, Note_on_c, 11, 58, 117
13, 48385, Note_on_c, 11, 56, 0
13, 48468, Control_c, 11, 64, 127
13, 48516, Note_on_c, 11, 61, 0
13, 48517, Note_on_c, 11, 53, 0
13, 48517, Note_on_c, 11, 58, 0
13, 48527, Note_on_c, 11, 61, 105
13, 48527, Control_c, 11, 64, 0
13, 48528, Note_on_c, 11, 53, 121
13, 48529, Note_on_c, 11, 58, 121
13, 48709, Note_on_c, 11, 61, 0
13, 48711, Note_on_c, 11, 58, 0
13, 48712, Note_on_c, 11, 53, 0
13, 48717, Note_on_c, 11, 58, 118
13, 48718, Note_on_c, 11, 53, 109
13, 48720, Note_on_c, 11, 61, 109
13, 48954, Note_on_c, 11, 58, 0
13, 48955, Note_on_c, 11, 53, 0
13, 48957, Note_on_c, 11, 61, 0
13, 48959, Note_on_c, 11, 60, 117
13, 48961, Note_on_c, 11, 56, 106
13, 49005, Note_on_c, 11, 60, 0
13, 49009, Note_on_c, 11, 61, 106
13, 49055, Note_on_c, 11, 61, 0
13, 49055, Note_on_c, 11, 63, 122
13, 49142, Note_on_c, 11, 63, 0
13, 49149, Note_on_c, 11, 58, 117
13, 49151, Note_on_c, 11, 53, 107
13, 49152, Note_on_c, 11, 61, 101
13, 49154, Note_on_c, 11, 56, 0
13, 49236, Control_c, 11, 64, 127
13, 49284, Note_on_c, 11, 58, 0
13, 49287, Note_on_c, 11, 53, 0
13, 49287, Note_on_c, 11, 61, 0
13, 49293, Note_on_c, 11, 58, 121
13, 49294, Note_on_c, 11, 61, 105
13, 49295, Control_c, 11, 64, 0
13, 49296, Note_on_c, 11, 53, 121
13, 49475, Note_on_c, 11, 58, 0
13, 49476, Note_on_c, 11, 61, 0
13, 49480, Note_on_c, 11, 53, 0
13, 49486, Note_on_c, 11, 58, 118
13, 49488, Note_on_c, 11, 53, 109
13, 49488, Note_on_c, 11, 61, 109
13, 49723, Note_on_c, 11, 58, 0
13, 49725, Note_on_c, 11, 53, 0
13, 49725, Note_on_c, 11, 61, 0
13, 49726, Note_on_c, 11, 60, 117
13, 49730, Note_on_c, 11, 56, 106
13, 49772, Note_on_c, 11, 60, 0
13, 49773, Note_on_c, 11, 61, 106
13, 49819, Note_on_c, 11, 61, 0
13, 49821, Note_on_c, 11, 63, 122
13, 49908, Note_on_c, 11, 63, 0
13, 49917, Note_on_c, 11, 53, 108
13, 49920, Note_on_c, 11, 61, 117
13, 49922, Note_on_c, 11, 58, 106
13, 49923, Note_on_c, 11, 56, 0
13, 50004, Control_c, 11, 64, 127
13, 50008, Note_on_c, 11, 61, 0
13, 50013, Note_on_c, 11, 58, 0
13, 50013, Note_on_c, 11, 60, 109
13, 50063, Control_c, 11, 64, 0
13, 50066, Note_on_c, 11, 58, 121
13, 50071, Note_on_c, 11, 60, 0
13, 50200, Note_on_c, 11, 53, 0
13, 50207, Note_on_c, 11, 56, 103
13, 50212, Note_on_c, 11, 58, 0
13, 50297, Note_on_c, 11, 56, 0
13, 50301, Note_on_c, 11, 60, 113
13, 50304, Note_on_c, 11, 56, 108
13, 50306, Note_on_c, 11, 51, 102
13, 50397, Note_on_c, 11, 58, 113
13, 50407, Note_on_c, 11, 60, 0
13, 50441, Note_on_c, 11, 56, 0
13, 50445, Note_on_c, 11, 56, 111
13, 50456, Note_on_c, 11, 58, 0
13, 50463, Control_c, 11, 64, 127
13, 50556, Note_on_c, 11, 51, 0
13, 50566, Note_on_c, 11, 56, 0
13, 50590, Note_on_c, 11, 56, 107
13, 50659, Control_c, 11, 64, 0
13, 50687, Note_on_c, 11, 58, 115
13, 50688, Note_on_c, 11, 54, 115
13, 50688, Note_on_c, 11, 56, 0
13, 50718, Control_c, 11, 64, 127
13, 50782, Note_on_c, 11, 51, 95
13, 50783, Note_on_c, 11, 58, 0
13, 50784, Note_on_c, 11, 54, 0
13, 50823, Control_c, 11, 64, 0
13, 50830, Note_on_c, 11, 56, 113
13, 50918, Note_on_c, 11, 51, 0
13, 50928, Note_on_c, 11, 58, 113
13, 50939, Note_on_c, 11, 56, 0
13, 51069, Note_on_c, 11, 51, 104
13, 51107, Note_on_c, 11, 58, 0
13, 51449, Note_on_c, 11, 51, 0
13, 51454, Note_on_c, 11, 55, 109
13, 51455, Note_on_c, 11, 58, 121
13, 51457, Note_on_c, 11, 63, 113
13, 51490, Control_c, 11, 64, 127
13, 51516, Note_on_c, 11, 55, 0
13, 51523, Note_on_c, 11, 58, 0
13, 51528, Note_on_c, 11, 63, 0
13, 51549, Note_on_c, 11, 55, 65
13, 51561, Note_on_c, 11, 55, 0
13, 51595, Control_c, 11, 64, 0
13, 51599, Note_on_c, 11, 58, 117
13, 51599, Note_on_c, 11, 63, 117
13, 51601, Note_on_c, 11, 55, 109
13, 51621, Control_c, 11, 64, 127
13, 51639, Note_on_c, 11, 63, 0
13, 51640, Note_on_c, 11, 55, 0
13, 51641, Note_on_c, 11, 58, 0
13, 51698, Note_on_c, 11, 51, 109
13, 51715, Note_on_c, 11, 51, 0
13, 51743, Note_on_c, 11, 56, 109
13, 51746, Note_on_c, 11, 51, 93
13, 51746, Note_on_c, 11, 60, 97
13, 51752, Control_c, 11, 64, 0
13, 51800, Control_c, 11, 64, 127
13, 51845, Note_on_c, 11, 56, 0
13, 51848, Note_on_c, 11, 51, 0
13, 51849, Note_on_c, 11, 60, 0
13, 51889, Note_on_c, 11, 51, 95
13, 51933, Note_on_c, 11, 58, 115
13, 51948, Note_on_c, 11, 51, 0
13, 51985, Note_on_c, 11, 56, 113
13, 51989, Note_on_c, 11, 58, 0
13, 52031, Note_on_c, 11, 51, 72
13, 52080, Note_on_c, 11, 63, 113
13, 52082, Note_on_c, 11, 56, 0
13, 52130, Note_on_c, 11, 56, 109
13, 52139, Note_on_c, 11, 51, 0
13, 52206, Note_on_c, 11, 56, 0
13, 52211, Note_on_c, 11, 63, 0
13, 52217, Control_c, 11, 64, 0
13, 52221, Note_on_c, 11, 55, 113
13, 52224, Note_on_c, 11, 58, 117
13, 52290, Note_on_c, 11, 55, 0
13, 52320, Note_on_c, 11, 51, 109
13, 52366, Note_on_c, 11, 63, 118
13, 52384, Note_on_c, 11, 51, 0
13, 52403, Control_c, 11, 64, 127
13, 52442, Note_on_c, 11, 63, 0
13, 52443, Note_on_c, 11, 58, 0
13, 52462, Note_on_c, 11, 55, 104
13, 52501, Control_c, 11, 64, 0
13, 52509, Note_on_c, 11, 55, 0
13, 52509, Note_on_c, 11, 60, 114
13, 52514, Note_on_c, 11, 56, 116
13, 52599, Control_c, 11, 64, 127
13, 52683, Note_on_c, 11, 60, 0
13, 52697, Note_on_c, 11, 56, 0
13, 52751, Note_on_c, 11, 51, 108
13, 52800, Note_on_c, 11, 60, 108
13, 52801, Note_on_c, 11, 56, 109
13, 52812, Note_on_c, 11, 51, 0
13, 52842, Control_c, 11, 64, 0
13, 52846, Note_on_c, 11, 60, 0
13, 52847, Note_on_c, 11, 56, 0
13, 52847, Note_on_c, 11, 58, 115
13, 52849, Note_on_c, 11, 61, 115
13, 52893, Note_on_c, 11, 60, 116
13, 52898, Note_on_c, 11, 63, 114
13, 52909, Note_on_c, 11, 58, 0
13, 52913, Note_on_c, 11, 61, 0
13, 52942, Note_on_c, 11, 51, 102
13, 52986, Note_on_c, 11, 60, 0
13, 52989, Note_on_c, 11, 55, 112
13, 52991, Note_on_c, 11, 63, 0
13, 52994, Note_on_c, 11, 58, 108
13, 53073, Note_on_c, 11, 51, 0
13, 53075, Control_c, 11, 64, 127
13, 53086, Note_on_c, 11, 51, 94
13, 53096, Note_on_c, 11, 58, 0
13, 53098, Note_on_c, 11, 55, 0
13, 53116, Note_on_c, 11, 51, 0
13, 53135, Note_on_c, 11, 51, 116
13, 53135, Note_on_c, 11, 58, 112
13, 53137, Note_on_c, 11, 55, 114
13, 53171, Note_on_c, 11, 55, 0
13, 53171, Note_on_c, 11, 58, 0
13, 53176, Note_on_c, 11, 51, 0
13, 53231, Note_on_c, 11, 51, 100
13, 53260, Note_on_c, 11, 51, 0
13, 53277, Note_on_c, 11, 51, 108
13, 53278, Control_c, 11, 64, 0
13, 53279, Note_on_c, 11, 56, 112
13, 53282, Note_on_c, 11, 60, 114
13, 53344, Control_c, 11, 64, 127
13, 53349, Note_on_c, 11, 51, 0
13, 53375, Note_on_c, 11, 51, 96
13, 53404, Note_on_c, 11, 60, 0
13, 53446, Note_on_c, 11, 51, 0
13, 53509, Note_on_c, 11, 56, 0
13, 53521, Note_on_c, 11, 51, 100
13, 53567, Note_on_c, 11, 56, 98
13, 53584, Note_on_c, 11, 51, 0
13, 53614, Note_on_c, 11, 63, 114
13, 53644, Note_on_c, 11, 56, 0
13, 53664, Note_on_c, 11, 63, 0
13, 53665, Note_on_c, 11, 56, 114
13, 53711, Note_on_c, 11, 51, 98
13, 53715, Note_on_c, 11, 56, 0
13, 53758, Note_on_c, 11, 55, 114
13, 53760, Note_on_c, 11, 58, 116
13, 53770, Control_c, 11, 64, 0
13, 53788, Note_on_c, 11, 51, 0
13, 53835, Control_c, 11, 64, 127
13, 53856, Note_on_c, 11, 51, 82
13, 53857, Note_on_c, 11, 58, 0
13, 53869, Note_on_c, 11, 55, 0
13, 53877, Note_on_c, 11, 51, 0
13, 53902, Note_on_c, 11, 55, 118
13, 53904, Note_on_c, 11, 63, 116
13, 53971, Note_on_c, 11, 63, 0
13, 53978, Note_on_c, 11, 55, 0
13, 53997, Note_on_c, 11, 51, 86
13, 54045, Note_on_c, 11, 60, 108
13, 54049, Note_on_c, 11, 56, 116
13, 54064, Control_c, 11, 64, 0
13, 54090, Note_on_c, 11, 51, 0
13, 54130, Control_c, 11, 64, 127
13, 54142, Note_on_c, 11, 51, 92
13, 54163, Note_on_c, 11, 60, 0
13, 54192, Note_on_c, 11, 51, 0
13, 54286, Note_on_c, 11, 51, 94
13, 54298, Note_on_c, 11, 56, 0
13, 54336, Note_on_c, 11, 56, 106
13, 54337, Note_on_c, 11, 60, 117
13, 54355, Note_on_c, 11, 51, 0
13, 54383, Note_on_c, 11, 60, 0
13, 54385, Note_on_c, 11, 61, 106
13, 54429, Note_on_c, 11, 63, 122
13, 54431, Note_on_c, 11, 61, 0
13, 54490, Control_c, 11, 64, 0
13, 54516, Note_on_c, 11, 63, 0
13, 54528, Note_on_c, 11, 53, 107
13, 54529, Note_on_c, 11, 56, 0
13, 54529, Note_on_c, 11, 61, 101
13, 54530, Note_on_c, 11, 58, 117
13, 54612, Control_c, 11, 64, 127
13, 54664, Note_on_c, 11, 53, 0
13, 54664, Note_on_c, 11, 61, 0
13, 54665, Note_on_c, 11, 58, 0
13, 54670, Note_on_c, 11, 61, 105
13, 54671, Control_c, 11, 64, 0
13, 54673, Note_on_c, 11, 58, 121
13, 54674, Note_on_c, 11, 53, 121
13, 54852, Note_on_c, 11, 61, 0
13, 54855, Note_on_c, 11, 58, 0
13, 54858, Note_on_c, 11, 53, 0
13, 54862, Note_on_c, 11, 53, 109
13, 54862, Note_on_c, 11, 58, 118
13, 54864, Note_on_c, 11, 61, 109
13, 55099, Note_on_c, 11, 53, 0
13, 55099, Note_on_c, 11, 58, 0
13, 55101, Note_on_c, 11, 61, 0
13, 55102, Note_on_c, 11, 60, 117
13, 55104, Note_on_c, 11, 56, 106
13, 55148, Note_on_c, 11, 60, 0
13, 55149, Note_on_c, 11, 61, 106
13, 55195, Note_on_c, 11, 61, 0
13, 55198, Note_on_c, 11, 63, 122
13, 55285, Note_on_c, 11, 63, 0
13, 55295, Note_on_c, 11, 58, 117
13, 55295, Note_on_c, 11, 61, 101
13, 55297, Note_on_c, 11, 53, 107
13, 55297, Note_on_c, 11, 56, 0
13, 55380, Control_c, 11, 64, 127
13, 55430, Note_on_c, 11, 58, 0
13, 55430, Note_on_c, 11, 61, 0
13, 55433, Note_on_c, 11, 53, 0
13, 55438, Note_on_c, 11, 61, 105
13, 55439, Control_c, 11, 64, 0
13, 55440, Note_on_c, 11, 53, 121
13, 55442, Note_on_c, 11, 58, 121
13, 55620, Note_on_c, 11, 61, 0
13, 55624, Note_on_c, 11, 53, 0
13, 55624, Note_on_c, 11, 58, 0
13, 55630, Note_on_c, 11, 58, 118
13, 55632, Note_on_c, 11, 53, 109
13, 55634, Note_on_c, 11, 61, 109
13, 55867, Note_on_c, 11, 58, 0
13, 55869, Note_on_c, 11, 53, 0
13, 55869, Note_on_c, 11, 60, 117
13, 55871, Note_on_c, 11, 61, 0
13, 55874, Note_on_c, 11, 56, 106
13, 55915, Note_on_c, 11, 60, 0
13, 55921, Note_on_c, 11, 61, 106
13, 55967, Note_on_c, 11, 61, 0
13, 55968, Note_on_c, 11, 63, 122
13, 56055, Note_on_c, 11, 63, 0
13, 56063, Note_on_c, 11, 58, 106
13, 56064, Note_on_c, 11, 53, 108
13, 56064, Note_on_c, 11, 61, 117
13, 56067, Note_on_c, 11, 56, 0
13, 56148, Control_c, 11, 64, 127
13, 56152, Note_on_c, 11, 61, 0
13, 56154, Note_on_c, 11, 58, 0
13, 56161, Note_on_c, 11, 60, 109
13, 56205, Note_on_c, 11, 58, 121
13, 56207, Control_c, 11, 64, 0
13, 56219, Note_on_c, 11, 60, 0
13, 56347, Note_on_c, 11, 53, 0
13, 56349, Note_on_c, 11, 56, 103
13, 56351, Note_on_c, 11, 58, 0
13, 56439, Note_on_c, 11, 56, 0
13, 56446, Note_on_c, 11, 56, 108
13, 56448, Note_on_c, 11, 51, 102
13, 56450, Note_on_c, 11, 60, 113
13, 56543, Note_on_c, 11, 58, 113
13, 56556, Note_on_c, 11, 60, 0
13, 56583, Note_on_c, 11, 56, 0
13, 56590, Note_on_c, 11, 56, 111
13, 56602, Note_on_c, 11, 58, 0
13, 56607, Control_c, 11, 64, 127
13, 56698, Note_on_c, 11, 51, 0
13, 56711, Note_on_c, 11, 56, 0
13, 56738, Note_on_c, 11, 56, 107
13, 56803, Control_c, 11, 64, 0
13, 56833, Note_on_c, 11, 58, 115
13, 56834, Note_on_c, 11, 54, 115
13, 56836, Note_on_c, 11, 56, 0
13, 56862, Control_c, 11, 64, 127
13, 56929, Note_on_c, 11, 51, 95
13, 56929, Note_on_c, 11, 58, 0
13, 56930, Note_on_c, 11, 54, 0
13, 56967, Control_c, 11, 64, 0
13, 56977, Note_on_c, 11, 56, 113
13, 57065, Note_on_c, 11, 51, 0
13, 57070, Note_on_c, 11, 58, 113
13, 57086, Note_on_c, 11, 56, 0
13, 57213, Note_on_c, 11, 51, 104
13, 57249, Note_on_c, 11, 58, 0
13, 57593, Note_on_c, 11, 51, 0
13, 57597, Note_on_c, 11, 63, 113
13, 57598, Note_on_c, 11, 58, 121
13, 57601, Note_on_c, 11, 55, 109
13, 57634, Control_c, 11, 64, 127
13, 57663, Note_on_c, 11, 55, 0
13, 57666, Note_on_c, 11, 58, 0
13, 57668, Note_on_c, 11, 63, 0
13, 57694, Note_on_c, 11, 55, 65
13, 57706, Note_on_c, 11, 55, 0
13, 57739, Control_c, 11, 64, 0
13, 57743, Note_on_c, 11, 58, 117
13, 57744, Note_on_c, 11, 63, 117
13, 57745, Note_on_c, 11, 55, 109
13, 57765, Control_c, 11, 64, 127
13, 57784, Note_on_c, 11, 55, 0
13, 57784, Note_on_c, 11, 63, 0
13, 57785, Note_on_c, 11, 58, 0
13, 57837, Note_on_c, 11, 51, 109
13, 57854, Note_on_c, 11, 51, 0
13, 57886, Note_on_c, 11, 56, 109
13, 57888, Note_on_c, 11, 51, 93
13, 57888, Note_on_c, 11, 60, 97
13, 57896, Control_c, 11, 64, 0
13, 57944, Control_c, 11, 64, 127
13, 57988, Note_on_c, 11, 56, 0
13, 57990, Note_on_c, 11, 51, 0
13, 57991, Note_on_c, 11, 60, 0
13, 58029, Note_on_c, 11, 51, 95
13, 58082, Note_on_c, 11, 58, 115
13, 58088, Note_on_c, 11, 51, 0
13, 58125, Note_on_c, 11, 56, 113
13, 58138, Note_on_c, 11, 58, 0
13, 58178, Note_on_c, 11, 51, 72
13, 58221, Note_on_c, 11, 63, 113
13, 58222, Note_on_c, 11, 56, 0
13, 58274, Note_on_c, 11, 56, 109
13, 58286, Note_on_c, 11, 51, 0
13, 58350, Note_on_c, 11, 56, 0
13, 58352, Note_on_c, 11, 63, 0
13, 58361, Control_c, 11, 64, 0
13, 58366, Note_on_c, 11, 58, 117
13, 58370, Note_on_c, 11, 55, 113
13, 58439, Note_on_c, 11, 55, 0
13, 58463, Note_on_c, 11, 51, 109
13, 58509, Note_on_c, 11, 63, 118
13, 58527, Note_on_c, 11, 51, 0
13, 58547, Control_c, 11, 64, 127
13, 58585, Note_on_c, 11, 58, 0
13, 58585, Note_on_c, 11, 63, 0
13, 58605, Note_on_c, 11, 55, 104
13, 58645, Control_c, 11, 64, 0
13, 58652, Note_on_c, 11, 55, 0
13, 58654, Note_on_c, 11, 56, 116
13, 58654, Note_on_c, 11, 60, 114
13, 58743, Control_c, 11, 64, 127
13, 58828, Note_on_c, 11, 60, 0
13, 58837, Note_on_c, 11, 56, 0
13, 58893, Note_on_c, 11, 51, 108
13, 58943, Note_on_c, 11, 60, 108
13, 58945, Note_on_c, 11, 56, 109
13, 58954, Note_on_c, 11, 51, 0
13, 58986, Control_c, 11, 64, 0
13, 58989, Note_on_c, 11, 60, 0
13, 58991, Note_on_c, 11, 56, 0
13, 58992, Note_on_c, 11, 61, 115
13, 58993, Note_on_c, 11, 58, 115
13, 59037, Note_on_c, 11, 60, 116
13, 59038, Note_on_c, 11, 63, 114
13, 59055, Note_on_c, 11, 58, 0
13, 59056, Note_on_c, 11, 61, 0
13, 59089, Note_on_c, 11, 51, 102
13, 59130, Note_on_c, 11, 60, 0
13, 59131, Note_on_c, 11, 63, 0
13, 59133, Note_on_c, 11, 55, 112
13, 59135, Note_on_c, 11, 58, 108
13, 59219, Control_c, 11, 64, 127
13, 59220, Note_on_c, 11, 51, 0
13, 59234, Note_on_c, 11, 51, 94
13, 59237, Note_on_c, 11, 58, 0
13, 59242, Note_on_c, 11, 55, 0
13, 59264, Note_on_c, 11, 51, 0
13, 59279, Note_on_c, 11, 58, 112
13, 59280, Note_on_c, 11, 51, 116
13, 59281, Note_on_c, 11, 55, 114
13, 59315, Note_on_c, 11, 55, 0
13, 59315, Note_on_c, 11, 58, 0
13, 59321, Note_on_c, 11, 51, 0
13, 59378, Note_on_c, 11, 51, 100
13, 59407, Note_on_c, 11, 51, 0
13, 59422, Control_c, 11, 64, 0
13, 59424, Note_on_c, 11, 60, 114
13, 59425, Note_on_c, 11, 56, 112
13, 59426, Note_on_c, 11, 51, 108
13, 59488, Control_c, 11, 64, 127
13, 59498, Note_on_c, 11, 51, 0
13, 59519, Note_on_c, 11, 51, 96
13, 59546, Note_on_c, 11, 60, 0
13, 59590, Note_on_c, 11, 51, 0
13, 59655, Note_on_c, 11, 56, 0
13, 59662, Note_on_c, 11, 51, 100
13, 59713, Note_on_c, 11, 56, 98
13, 59725, Note_on_c, 11, 51, 0
13, 59761, Note_on_c, 11, 63, 114
13, 59790, Note_on_c, 11, 56, 0
13, 59810, Note_on_c, 11, 56, 114
13, 59811, Note_on_c, 11, 63, 0
13, 59856, Note_on_c, 11, 51, 98
13, 59860, Note_on_c, 11, 56, 0
13, 59905, Note_on_c, 11, 55, 114
13, 59905, Note_on_c, 11, 58, 116
13, 59914, Control_c, 11, 64, 0
13, 59933, Note_on_c, 11, 51, 0
13, 59979, Control_c, 11, 64, 127
13, 59997, Note_on_c, 11, 51, 82
13, 60002, Note_on_c, 11, 58, 0
13, 60016, Note_on_c, 11, 55, 0
13, 60018, Note_on_c, 11, 51, 0
13, 60048, Note_on_c, 11, 55, 118
13, 60048, Note_on_c, 11, 63, 116
13, 60115, Note_on_c, 11, 63, 0
13, 60124, Note_on_c, 11, 55, 0
13, 60143, Note_on_c, 11, 51, 86
13, 60191, Note_on_c, 11, 60, 108
13, 60192, Note_on_c, 11, 56, 116
13, 60208, Control_c, 11, 64, 0
13, 60236, Note_on_c, 11, 51, 0
13, 60274, Control_c, 11, 64, 127
13, 60288, Note_on_c, 11, 51, 92
13, 60309, Note_on_c, 11, 60, 0
13, 60338, Note_on_c, 11, 51, 0
13, 60431, Note_on_c, 11, 51, 94
13, 60441, Note_on_c, 11, 56, 0
13, 60478, Note_on_c, 11, 60, 117
13, 60479, Note_on_c, 11, 56, 106
13, 60500, Note_on_c, 11, 51, 0
13, 60524, Note_on_c, 11, 60, 0
13, 60530, Note_on_c, 11, 61, 106
13, 60576, Note_on_c, 11, 61, 0
13, 60578, Note_on_c, 11, 63, 122
13, 60634, Control_c, 11, 64, 0
13, 60665, Note_on_c, 11, 63, 0
13, 60672, Note_on_c, 11, 56, 0
13, 60672, Note_on_c, 11, 61, 101
13, 60673, Note_on_c, 11, 53, 107
13, 60674, Note_on_c, 11, 58, 117
13, 60756, Control_c, 11, 64, 127
13, 60807, Note_on_c, 11, 61, 0
13, 60809, Note_on_c, 11, 53, 0
13, 60809, Note_on_c, 11, 58, 0
13, 60813, Note_on_c, 11, 53, 121
13, 60815, Note_on_c, 11, 61, 105
13, 60815, Control_c, 11, 64, 0
13, 60817, Note_on_c, 11, 58, 121
13, 60997, Note_on_c, 11, 53, 0
13, 60997, Note_on_c, 11, 61, 0
13, 60999, Note_on_c, 11, 58, 0
13, 61007, Note_on_c, 11, 58, 118
13, 61009, Note_on_c, 11, 53, 109
13, 61010, Note_on_c, 11, 61, 109
13, 61244, Note_on_c, 11, 58, 0
13, 61245, Note_on_c, 11, 56, 106
13, 61246, Note_on_c, 11, 53, 0
13, 61246, Note_on_c, 11, 60, 117
13, 61247, Note_on_c, 11, 61, 0
13, 61292, Note_on_c, 11, 60, 0
13, 61294, Note_on_c, 11, 61, 106
13, 61340, Note_on_c, 11, 61, 0
13, 61342, Note_on_c, 11, 63, 122
13, 61429, Note_on_c, 11, 63, 0
13, 61438, Note_on_c, 11, 56, 0
13, 61438, Note_on_c, 11, 58, 117
13, 61439, Note_on_c, 11, 53, 107
13, 61439, Note_on_c, 11, 61, 101
13, 61524, Control_c, 11, 64, 127
13, 61573, Note_on_c, 11, 58, 0
13, 61574, Note_on_c, 11, 61, 0
13, 61575, Note_on_c, 11, 53, 0
13, 61582, Note_on_c, 11, 53, 121
13, 61582, Note_on_c, 11, 61, 105
13, 61583, Note_on_c, 11, 58, 121
13, 61583, Control_c, 11, 64, 0
13, 61764, Note_on_c, 11, 61, 0
13, 61765, Note_on_c, 11, 58, 0
13, 61766, Note_on_c, 11, 53, 0
13, 61773, Note_on_c, 11, 58, 118
13, 61775, Note_on_c, 11, 53, 109
13, 61778, Note_on_c, 11, 61, 109
13, 62010, Note_on_c, 11, 58, 0
13, 62012, Note_on_c, 11, 53, 0
13, 62015, Note_on_c, 11, 61, 0
13, 62018, Note_on_c, 11, 56, 106
13, 62018, Note_on_c, 11, 60, 117
13, 62062, Note_on_c, 11, 61, 106
13, 62064, Note_on_c, 11, 60, 0
13, 62108, Note_on_c, 11, 61, 0
13, 62114, Note_on_c, 11, 63, 122
13, 62201, Note_on_c, 11, 63, 0
13, 62205, Note_on_c, 11, 58, 106
13, 62208, Note_on_c, 11, 61, 117
13, 62209, Note_on_c, 11, 53, 108
13, 62211, Note_on_c, 11, 56, 0
13, 62292, Control_c, 11, 64, 127
13, 62296, Note_on_c, 11, 58, 0
13, 62296, Note_on_c, 11, 61, 0
13, 62302, Note_on_c, 11, 60, 109
13, 62349, Note_on_c, 11, 58, 121
13, 62351, Control_c, 11, 64, 0
13, 62360, Note_on_c, 11, 60, 0
13, 62492, Note_on_c, 11, 53, 0
13, 62495, Note_on_c, 11, 58, 0
13, 62497, Note_on_c, 11, 56, 103
13, 62587, Note_on_c, 11, 56, 0
13, 62591, Note_on_c, 11, 51, 102
13, 62591, Note_on_c, 11, 60, 113
13, 62592, Note_on_c, 11, 56, 108
13, 62687, Note_on_c, 11, 58, 113
13, 62697, Note_on_c, 11, 60, 0
13, 62729, Note_on_c, 11, 56, 0
13, 62734, Note_on_c, 11, 56, 111
13, 62746, Note_on_c, 11, 58, 0
13, 62751, Control_c, 11, 64, 127
13, 62841, Note_on_c, 11, 51, 0
13, 62855, Note_on_c, 11, 56, 0
13, 62881, Note_on_c, 11, 56, 107
13, 62947, Control_c, 11, 64, 0
13, 62976, Note_on_c, 11, 58, 115
13, 62977, Note_on_c, 11, 54, 115
13, 62979, Note_on_c, 11, 56, 0
13, 63006, Control_c, 11, 64, 127
13, 63071, Note_on_c, 11, 51, 95
13, 63072, Note_on_c, 11, 58, 0
13, 63073, Note_on_c, 11, 54, 0
13, 63111, Control_c, 11, 64, 0
13, 63119, Note_on_c, 11, 56, 113
13, 63207, Note_on_c, 11, 51, 0
13, 63218, Note_on_c, 11, 58, 113
13, 63228, Note_on_c, 11, 56, 0
13, 63362, Note_on_c, 11, 51, 104
13, 63397, Note_on_c, 11, 58, 0
13, 63742, Note_on_c, 11, 51, 0
13, 63743, Note_on_c, 11, 55, 109
13, 63744, Note_on_c, 11, 58, 121
13, 63744, Note_on_c, 11, 63, 113
13, 63778, Control_c, 11, 64, 127
13, 63805, Note_on_c, 11, 55, 0
13, 63812, Note_on_c, 11, 58, 0
13, 63815, Note_on_c, 11, 63, 0
13, 63837, Note_on_c, 11, 55, 65
13, 63849, Note_on_c, 11, 55, 0
13, 63883, Control_c, 11, 64, 0
13, 63888, Note_on_c, 11, 55, 109
13, 63888, Note_on_c, 11, 63, 117
13, 63890, Note_on_c, 11, 58, 117
13, 63909, Control_c, 11, 64, 127
13, 63927, Note_on_c, 11, 55, 0
13, 63928, Note_on_c, 11, 63, 0
13, 63932, Note_on_c, 11, 58, 0
13, 63985, Note_on_c, 11, 51, 109
13, 64002, Note_on_c, 11, 51, 0
13, 64029, Note_on_c, 11, 51, 93
13, 64032, Note_on_c, 11, 60, 97
13, 64034, Note_on_c, 11, 56, 109
13, 64040, Control_c, 11, 64, 0
13, 64088, Control_c, 11, 64, 127
13, 64131, Note_on_c, 11, 51, 0
13, 64135, Note_on_c, 11, 60, 0
13, 64136, Note_on_c, 11, 56, 0
13, 64173, Note_on_c, 11, 51, 95
13, 64184, Control_c, 11, 7, 77
13, 64223, Note_on_c, 11, 58, 115
13, 64232, Note_on_c, 11, 51, 0
13, 64273, Note_on_c, 11, 56, 113
13, 64279, Note_on_c, 11, 58, 0
13, 64321, Note_on_c, 11, 51, 72
13, 64367, Note_on_c, 11, 63, 113
13, 64370, Note_on_c, 11, 56, 0
13, 64412, Control_c, 11, 7, 73
13, 64416, Note_on_c, 11, 56, 109
13, 64429, Note_on_c, 11, 51, 0
13, 64455, Control_c, 11, 7, 70
13, 64492, Note_on_c, 11, 56, 0
13, 64498, Note_on_c, 11, 63, 0
13, 64505, Control_c, 11, 64, 0
13, 64510, Note_on_c, 11, 58, 117
13, 64512, Note_on_c, 11, 55, 113
13, 64581, Note_on_c, 11, 55, 0
13, 64605, Note_on_c, 11, 51, 109
13, 64639, Control_c, 11, 7, 65
13, 64658, Note_on_c, 11, 63, 118
13, 64669, Note_on_c, 11, 51, 0
13, 64691, Control_c, 11, 64, 127
13, 64729, Note_on_c, 11, 58, 0
13, 64734, Note_on_c, 11, 63, 0
13, 64753, Note_on_c, 11, 55, 104
13, 64789, Control_c, 11, 64, 0
13, 64800, Note_on_c, 11, 55, 0
13, 64800, Note_on_c, 11, 56, 116
13, 64802, Note_on_c, 11, 60, 114
13, 64819, Control_c, 11, 7, 58
13, 64887, Control_c, 11, 64, 127
13, 64976, Note_on_c, 11, 60, 0
13, 64983, Note_on_c, 11, 56, 0
13, 65037, Note_on_c, 11, 51, 108
13, 65088, Note_on_c, 11, 56, 109
13, 65090, Note_on_c, 11, 60, 108
13, 65098, Note_on_c, 11, 51, 0
13, 65118, Control_c, 11, 7, 54
13, 65130, Control_c, 11, 64, 0
13, 65134, Note_on_c, 11, 56, 0
13, 65136, Note_on_c, 11, 60, 0
13, 65137, Note_on_c, 11, 58, 115
13, 65138, Note_on_c, 11, 61, 115
13, 65181, Note_on_c, 11, 63, 114
13, 65186, Note_on_c, 11, 60, 116
13, 65199, Note_on_c, 11, 58, 0
13, 65202, Note_on_c, 11, 61, 0
13, 65233, Note_on_c, 11, 51, 102
13, 65271, Control_c, 11, 7, 49
13, 65274, Note_on_c, 11, 63, 0
13, 65277, Note_on_c, 11, 55, 112
13, 65279, Note_on_c, 11, 58, 108
13, 65279, Note_on_c, 11, 60, 0
13, 65363, Control_c, 11, 64, 127
13, 65364, Note_on_c, 11, 51, 0
13, 65378, Note_on_c, 11, 51, 94
13, 65381, Note_on_c, 11, 58, 0
13, 65386, Note_on_c, 11, 55, 0
13, 65408, Note_on_c, 11, 51, 0
13, 65424, Note_on_c, 11, 51, 116
13, 65425, Note_on_c, 11, 55, 114
13, 65425, Note_on_c, 11, 58, 112
13, 65459, Note_on_c, 11, 55, 0
13, 65461, Note_on_c, 11, 58, 0
13, 65465, Note_on_c, 11, 51, 0
13, 65522, Note_on_c, 11, 51, 100
13, 65551, Note_on_c, 11, 51, 0
13, 65566, Control_c, 11, 64, 0
13, 65569, Note_on_c, 11, 56, 112
13, 65570, Note_on_c, 11, 51, 108
13, 65570, Note_on_c, 11, 60, 114
13, 65607, Control_c, 11, 7, 46
13, 65632, Control_c, 11, 64, 127
13, 65642, Note_on_c, 11, 51, 0
13, 65664, Note_on_c, 11, 51, 96
13, 65692, Note_on_c, 11, 60, 0
13, 65712, Control_c, 11, 7, 39
13, 65735, Note_on_c, 11, 51, 0
13, 65799, Note_on_c, 11, 56, 0
13, 65806, Note_on_c, 11, 51, 100
13, 65854, Note_on_c, 11, 56, 98
13, 65869, Note_on_c, 11, 51, 0
13, 65888, Control_c, 11, 7, 35
13, 65904, Note_on_c, 11, 63, 114
13, 65931, Note_on_c, 11, 56, 0
13, 65954, Note_on_c, 11, 56, 114
13, 65954, Note_on_c, 11, 63, 0
13, 66000, Note_on_c, 11, 51, 98
13, 66004, Note_on_c, 11, 56, 0
13, 66046, Note_on_c, 11, 55, 114
13, 66047, Note_on_c, 11, 58, 116
13, 66058, Control_c, 11, 64, 0
13, 66077, Note_on_c, 11, 51, 0
13, 66123, Control_c, 11, 64, 127
13, 66129, Control_c, 11, 7, 29
13, 66143, Note_on_c, 11, 51, 82
13, 66144, Note_on_c, 11, 58, 0
13, 66157, Note_on_c, 11, 55, 0
13, 66164, Note_on_c, 11, 51, 0
13, 66189, Note_on_c, 11, 63, 116
13, 66190, Note_on_c, 11, 55, 118
13, 66256, Note_on_c, 11, 63, 0
13, 66266, Note_on_c, 11, 55, 0
13, 66286, Note_on_c, 11, 51, 86
13, 66333, Note_on_c, 11, 60, 108
13, 66335, Note_on_c, 11, 56, 116
13, 66352, Control_c, 11, 64, 0
13, 66379, Note_on_c, 11, 51, 0
13, 66395, Control_c, 11, 7, 25
13, 66418, Control_c, 11, 64, 127
13, 66433, Note_on_c, 11, 51, 92
13, 66451, Note_on_c, 11, 60, 0
13, 66483, Note_on_c, 11, 51, 0
13, 66576, Note_on_c, 11, 51, 94
13, 66584, Note_on_c, 11, 56, 0
13, 66621, Note_on_c, 11, 60, 117
13, 66625, Note_on_c, 11, 56, 106
13, 66645, Note_on_c, 11, 51, 0
13, 66667, Note_on_c, 11, 60, 0
13, 66670, Note_on_c, 11, 61, 106
13, 66696, Control_c, 11, 7, 16
13, 66716, Note_on_c, 11, 61, 0
13, 66720, Note_on_c, 11, 63, 122
13, 66778, Control_c, 11, 64, 0
13, 66807, Note_on_c, 11, 63, 0
13, 66814, Note_on_c, 11, 58, 117
13, 66815, Note_on_c, 11, 61, 101
13, 66818, Note_on_c, 11, 53, 107
13, 66818, Note_on_c, 11, 56, 0
13, 66900, Control_c, 11, 64, 127
13, 66949, Note_on_c, 11, 58, 0
13, 66950, Note_on_c, 11, 61, 0
13, 66954, Note_on_c, 11, 53, 0
13, 66957, Note_on_c, 11, 61, 105
13, 66958, Note_on_c, 11, 53, 121
13, 66959, Control_c, 11, 64, 0
13, 66961, Note_on_c, 11, 58, 121
13, 66984, Control_c, 11, 7, 12
13, 67139, Note_on_c, 11, 61, 0
13, 67142, Note_on_c, 11, 53, 0
13, 67143, Note_on_c, 11, 58, 0
13, 67151, Note_on_c, 11, 53, 109
13, 67151, Note_on_c, 11, 61, 109
13, 67154, Note_on_c, 11, 58, 118
13, 67207, Control_c, 11, 7, 7
13, 67375, Control_c, 11, 7, 3
13, 67388, Note_on_c, 11, 53, 0
13, 67388, Note_on_c, 11, 61, 0
13, 67391, Note_on_c, 11, 58, 0
13, 67575, Control_c, 11, 7, 0
13, 68196, Control_c, 11, 120, 0
13, 68202, Control_c, 11, 123, 0
13, 68202, End_track
0, 0, End_of_file
