0, 0, Header, 1, 19, 192
1, 0, Start_track
1, 0, Tempo, 491803
1, 0, Time_signature, 4, 2, 24, 8
1, 0, Key_signature, -2, "major"
1, 52216, Tempo, 375000
1, 133632, Tempo, 454545
1, 175864, Tempo, 436364
1, 175872, Time_signature, 6, 2, 24, 8
1, 178168, Tempo, 500000
1, 178176, Time_signature, 4, 2, 24, 8
1, 178176, End_track
2, 0, Start_track
2, 0, Title_t, "Vocal - Flute"
2, 0, Channel_prefix, 0
2, 0, Control_c, 0, 7, 120
2, 0, Control_c, 0, 10, 84
2, 0, Program_c, 0, 73
2, 3072, Note_on_c, 0, 74, 110
2, 3168, Note_off_c, 0, 74, 0
2, 3168, Note_on_c, 0, 67, 110
2, 3264, Note_off_c, 0, 67, 0
2, 3264, Note_on_c, 0, 70, 110
2, 3360, Note_off_c, 0, 70, 0
2, 3360, Note_on_c, 0, 72, 110
2, 3456, Note_off_c, 0, 72, 0
2, 3456, Note_on_c, 0, 73, 110
2, 3648, Note_off_c, 0, 73, 0
2, 3648, Note_on_c, 0, 72, 110
2, 3840, Note_off_c, 0, 72, 0
2, 4608, Note_on_c, 0, 75, 110
2, 4704, Note_off_c, 0, 75, 0
2, 4704, Note_on_c, 0, 75, 110
2, 4800, Note_off_c, 0, 75, 0
2, 4800, Note_on_c, 0, 75, 110
2, 4896, Note_off_c, 0, 75, 0
2, 4896, Note_on_c, 0, 75, 110
2, 4992, Note_off_c, 0, 75, 0
2, 4992, Note_on_c, 0, 75, 110
2, 5280, Note_off_c, 0, 75, 0
2, 5280, Note_on_c, 0, 70, 110
2, 5376, Note_off_c, 0, 70, 0
2, 5472, Note_on_c, 0, 72, 110
2, 5568, Note_off_c, 0, 72, 0
2, 5568, Note_on_c, 0, 73, 110
2, 5760, Note_off_c, 0, 73, 0
2, 5808, Note_on_c, 0, 72, 110
2, 6000, Note_off_c, 0, 72, 0
2, 8448, Note_on_c, 0, 74, 110
2, 8544, Note_off_c, 0, 74, 0
2, 8544, Note_on_c, 0, 67, 110
2, 8640, Note_off_c, 0, 67, 0
2, 8640, Note_on_c, 0, 70, 110
2, 8736, Note_off_c, 0, 70, 0
2, 8736, Note_on_c, 0, 72, 110
2, 8832, Note_off_c, 0, 72, 0
2, 8832, Note_on_c, 0, 73, 110
2, 8928, Note_off_c, 0, 73, 0
2, 8928, Note_on_c, 0, 73, 110
2, 9024, Note_off_c, 0, 73, 0
2, 9024, Note_on_c, 0, 72, 110
2, 9216, Note_off_c, 0, 72, 0
2, 10080, Note_on_c, 0, 75, 110
2, 10272, Note_off_c, 0, 75, 0
2, 10272, Note_on_c, 0, 75, 110
2, 10368, Note_off_c, 0, 75, 0
2, 10368, Note_on_c, 0, 75, 110
2, 10560, Note_off_c, 0, 75, 0
2, 10560, Note_on_c, 0, 70, 110
2, 10656, Note_off_c, 0, 70, 0
2, 10656, Note_on_c, 0, 70, 110
2, 10752, Note_off_c, 0, 70, 0
2, 10752, Note_on_c, 0, 72, 110
2, 10944, Note_off_c, 0, 72, 0
2, 10944, Note_on_c, 0, 72, 110
2, 11040, Note_off_c, 0, 72, 0
2, 11040, Note_on_c, 0, 73, 110
2, 11136, Note_off_c, 0, 73, 0
2, 11136, Note_on_c, 0, 72, 110
2, 11616, Note_off_c, 0, 72, 0
2, 11616, Note_on_c, 0, 77, 110
2, 11904, Note_off_c, 0, 77, 0
2, 12288, Note_on_c, 0, 75, 110
2, 12432, Note_off_c, 0, 75, 0
2, 12432, Note_on_c, 0, 75, 110
2, 12576, Note_off_c, 0, 75, 0
2, 12576, Note_on_c, 0, 70, 110
2, 12672, Note_off_c, 0, 70, 0
2, 12672, Note_on_c, 0, 70, 110
2, 12768, Note_off_c, 0, 70, 0
2, 12768, Note_on_c, 0, 68, 110
2, 12864, Note_off_c, 0, 68, 0
2, 13824, Note_on_c, 0, 74, 110
2, 13920, Note_off_c, 0, 74, 0
2, 13920, Note_on_c, 0, 67, 110
2, 14016, Note_off_c, 0, 67, 0
2, 14016, Note_on_c, 0, 70, 110
2, 14112, Note_off_c, 0, 70, 0
2, 14112, Note_on_c, 0, 72, 110
2, 14208, Note_off_c, 0, 72, 0
2, 14208, Note_on_c, 0, 73, 110
2, 14496, Note_off_c, 0, 73, 0
2, 14496, Note_on_c, 0, 72, 110
2, 14592, Note_off_c, 0, 72, 0
2, 15312, Note_on_c, 0, 75, 110
2, 15456, Note_off_c, 0, 75, 0
2, 15456, Note_on_c, 0, 75, 110
2, 15552, Note_off_c, 0, 75, 0
2, 15552, Note_on_c, 0, 75, 110
2, 15648, Note_off_c, 0, 75, 0
2, 15648, Note_on_c, 0, 75, 110
2, 15744, Note_off_c, 0, 75, 0
2, 15840, Note_on_c, 0, 75, 110
2, 16032, Note_off_c, 0, 75, 0
2, 16032, Note_on_c, 0, 75, 110
2, 16128, Note_off_c, 0, 75, 0
2, 16128, Note_on_c, 0, 77, 110
2, 16320, Note_off_c, 0, 77, 0
2, 16320, Note_on_c, 0, 77, 110
2, 16512, Note_off_c, 0, 77, 0
2, 16512, Note_on_c, 0, 77, 110
2, 16800, Note_off_c, 0, 77, 0
2, 16800, Note_on_c, 0, 75, 110
2, 16848, Note_off_c, 0, 75, 0
2, 16848, Note_on_c, 0, 72, 110
2, 16896, Note_off_c, 0, 72, 0
2, 16896, Note_on_c, 0, 75, 110
2, 17088, Note_off_c, 0, 75, 0
2, 17664, Note_on_c, 0, 75, 110
2, 17808, Note_off_c, 0, 75, 0
2, 17808, Note_on_c, 0, 75, 110
2, 17952, Note_off_c, 0, 75, 0
2, 17952, Note_on_c, 0, 70, 110
2, 18048, Note_off_c, 0, 70, 0
2, 18048, Note_on_c, 0, 70, 110
2, 18144, Note_off_c, 0, 70, 0
2, 18144, Note_on_c, 0, 68, 110
2, 18240, Note_off_c, 0, 68, 0
2, 19200, Note_on_c, 0, 74, 110
2, 19296, Note_off_c, 0, 74, 0
2, 19296, Note_on_c, 0, 67, 110
2, 19392, Note_off_c, 0, 67, 0
2, 19392, Note_on_c, 0, 70, 110
2, 19488, Note_off_c, 0, 70, 0
2, 19488, Note_on_c, 0, 72, 110
2, 19584, Note_off_c, 0, 72, 0
2, 19584, Note_on_c, 0, 73, 110
2, 19776, Note_off_c, 0, 73, 0
2, 19776, Note_on_c, 0, 72, 110
2, 19968, Note_off_c, 0, 72, 0
2, 20736, Note_on_c, 0, 75, 110
2, 20832, Note_off_c, 0, 75, 0
2, 20832, Note_on_c, 0, 75, 110
2, 20928, Note_off_c, 0, 75, 0
2, 20928, Note_on_c, 0, 75, 110
2, 21120, Note_off_c, 0, 75, 0
2, 21120, Note_on_c, 0, 75, 110
2, 21216, Note_off_c, 0, 75, 0
2, 21216, Note_on_c, 0, 75, 110
2, 21312, Note_off_c, 0, 75, 0
2, 21312, Note_on_c, 0, 75, 110
2, 21408, Note_off_c, 0, 75, 0
2, 21408, Note_on_c, 0, 75, 110
2, 21504, Note_off_c, 0, 75, 0
2, 21648, Note_on_c, 0, 77, 110
2, 21888, Note_off_c, 0, 77, 0
2, 21888, Note_on_c, 0, 77, 110
2, 22080, Note_off_c, 0, 77, 0
2, 22080, Note_on_c, 0, 77, 110
2, 22224, Note_off_c, 0, 77, 0
2, 22224, Note_on_c, 0, 75, 110
2, 22272, Note_off_c, 0, 75, 0
2, 22272, Note_on_c, 0, 72, 110
2, 22368, Note_off_c, 0, 72, 0
2, 22944, Note_on_c, 0, 75, 110
2, 23232, Note_off_c, 0, 75, 0
2, 23232, Note_on_c, 0, 75, 110
2, 23424, Note_off_c, 0, 75, 0
2, 23424, Note_on_c, 0, 70, 110
2, 23520, Note_off_c, 0, 70, 0
2, 23520, Note_on_c, 0, 70, 110
2, 23616, Note_off_c, 0, 70, 0
2, 23616, Note_on_c, 0, 68, 110
2, 23712, Note_off_c, 0, 68, 0
2, 150528, Note_on_c, 0, 74, 110
2, 150624, Note_off_c, 0, 74, 0
2, 150624, Note_on_c, 0, 67, 110
2, 150720, Note_off_c, 0, 67, 0
2, 150720, Note_on_c, 0, 70, 110
2, 150816, Note_off_c, 0, 70, 0
2, 150816, Note_on_c, 0, 72, 110
2, 150912, Note_off_c, 0, 72, 0
2, 150912, Note_on_c, 0, 73, 110
2, 151104, Note_off_c, 0, 73, 0
2, 151104, Note_on_c, 0, 72, 110
2, 151296, Note_off_c, 0, 72, 0
2, 152064, Note_on_c, 0, 75, 110
2, 152160, Note_off_c, 0, 75, 0
2, 152160, Note_on_c, 0, 75, 110
2, 152256, Note_off_c, 0, 75, 0
2, 152256, Note_on_c, 0, 75, 110
2, 152352, Note_off_c, 0, 75, 0
2, 152352, Note_on_c, 0, 75, 110
2, 152448, Note_off_c, 0, 75, 0
2, 152448, Note_on_c, 0, 75, 110
2, 152736, Note_off_c, 0, 75, 0
2, 152736, Note_on_c, 0, 70, 110
2, 152832, Note_off_c, 0, 70, 0
2, 152928, Note_on_c, 0, 72, 110
2, 153024, Note_off_c, 0, 72, 0
2, 153024, Note_on_c, 0, 73, 110
2, 153216, Note_off_c, 0, 73, 0
2, 153264, Note_on_c, 0, 72, 110
2, 153456, Note_off_c, 0, 72, 0
2, 155904, Note_on_c, 0, 74, 110
2, 156000, Note_off_c, 0, 74, 0
2, 156000, Note_on_c, 0, 67, 110
2, 156096, Note_off_c, 0, 67, 0
2, 156096, Note_on_c, 0, 70, 110
2, 156192, Note_off_c, 0, 70, 0
2, 156192, Note_on_c, 0, 72, 110
2, 156288, Note_off_c, 0, 72, 0
2, 156288, Note_on_c, 0, 73, 110
2, 156384, Note_off_c, 0, 73, 0
2, 156384, Note_on_c, 0, 73, 110
2, 156480, Note_off_c, 0, 73, 0
2, 156480, Note_on_c, 0, 72, 110
2, 156672, Note_off_c, 0, 72, 0
2, 157536, Note_on_c, 0, 75, 110
2, 157728, Note_off_c, 0, 75, 0
2, 157728, Note_on_c, 0, 75, 110
2, 157824, Note_off_c, 0, 75, 0
2, 157824, Note_on_c, 0, 75, 110
2, 158016, Note_off_c, 0, 75, 0
2, 158016, Note_on_c, 0, 70, 110
2, 158112, Note_off_c, 0, 70, 0
2, 158112, Note_on_c, 0, 70, 110
2, 158208, Note_off_c, 0, 70, 0
2, 158208, Note_on_c, 0, 72, 110
2, 158400, Note_off_c, 0, 72, 0
2, 158400, Note_on_c, 0, 72, 110
2, 158496, Note_off_c, 0, 72, 0
2, 158496, Note_on_c, 0, 73, 110
2, 158592, Note_off_c, 0, 73, 0
2, 158592, Note_on_c, 0, 72, 110
2, 159072, Note_off_c, 0, 72, 0
2, 159072, Note_on_c, 0, 77, 110
2, 159360, Note_off_c, 0, 77, 0
2, 159744, Note_on_c, 0, 75, 110
2, 159888, Note_off_c, 0, 75, 0
2, 159888, Note_on_c, 0, 75, 110
2, 160032, Note_off_c, 0, 75, 0
2, 160032, Note_on_c, 0, 70, 110
2, 160128, Note_off_c, 0, 70, 0
2, 160128, Note_on_c, 0, 70, 110
2, 160224, Note_off_c, 0, 70, 0
2, 160224, Note_on_c, 0, 68, 110
2, 160320, Note_off_c, 0, 68, 0
2, 161280, Note_on_c, 0, 74, 110
2, 161376, Note_off_c, 0, 74, 0
2, 161376, Note_on_c, 0, 67, 110
2, 161472, Note_off_c, 0, 67, 0
2, 161472, Note_on_c, 0, 70, 110
2, 161568, Note_off_c, 0, 70, 0
2, 161568, Note_on_c, 0, 72, 110
2, 161664, Note_off_c, 0, 72, 0
2, 161664, Note_on_c, 0, 73, 110
2, 161952, Note_off_c, 0, 73, 0
2, 161952, Note_on_c, 0, 72, 110
2, 162048, Note_off_c, 0, 72, 0
2, 162768, Note_on_c, 0, 75, 110
2, 162912, Note_off_c, 0, 75, 0
2, 162912, Note_on_c, 0, 75, 110
2, 163008, Note_off_c, 0, 75, 0
2, 163008, Note_on_c, 0, 75, 110
2, 163104, Note_off_c, 0, 75, 0
2, 163104, Note_on_c, 0, 75, 110
2, 163200, Note_off_c, 0, 75, 0
2, 163296, Note_on_c, 0, 75, 110
2, 163488, Note_off_c, 0, 75, 0
2, 163488, Note_on_c, 0, 75, 110
2, 163584, Note_off_c, 0, 75, 0
2, 163584, Note_on_c, 0, 77, 110
2, 163776, Note_off_c, 0, 77, 0
2, 163776, Note_on_c, 0, 77, 110
2, 163968, Note_off_c, 0, 77, 0
2, 163968, Note_on_c, 0, 77, 110
2, 164256, Note_off_c, 0, 77, 0
2, 164256, Note_on_c, 0, 75, 110
2, 164304, Note_off_c, 0, 75, 0
2, 164304, Note_on_c, 0, 72, 110
2, 164352, Note_off_c, 0, 72, 0
2, 164352, Note_on_c, 0, 75, 110
2, 164544, Note_off_c, 0, 75, 0
2, 165120, Note_on_c, 0, 75, 110
2, 165264, Note_off_c, 0, 75, 0
2, 165264, Note_on_c, 0, 75, 110
2, 165408, Note_off_c, 0, 75, 0
2, 165408, Note_on_c, 0, 70, 110
2, 165504, Note_off_c, 0, 70, 0
2, 165504, Note_on_c, 0, 70, 110
2, 165600, Note_off_c, 0, 70, 0
2, 165600, Note_on_c, 0, 68, 110
2, 165696, Note_off_c, 0, 68, 0
2, 166656, Note_on_c, 0, 74, 110
2, 166752, Note_off_c, 0, 74, 0
2, 166752, Note_on_c, 0, 67, 110
2, 166848, Note_off_c, 0, 67, 0
2, 166848, Note_on_c, 0, 70, 110
2, 166944, Note_off_c, 0, 70, 0
2, 166944, Note_on_c, 0, 72, 110
2, 167040, Note_off_c, 0, 72, 0
2, 167040, Note_on_c, 0, 73, 110
2, 167232, Note_off_c, 0, 73, 0
2, 167232, Note_on_c, 0, 72, 110
2, 167424, Note_off_c, 0, 72, 0
2, 168192, Note_on_c, 0, 75, 110
2, 168288, Note_off_c, 0, 75, 0
2, 168288, Note_on_c, 0, 75, 110
2, 168384, Note_off_c, 0, 75, 0
2, 168384, Note_on_c, 0, 75, 110
2, 168576, Note_off_c, 0, 75, 0
2, 168576, Note_on_c, 0, 75, 110
2, 168672, Note_off_c, 0, 75, 0
2, 168672, Note_on_c, 0, 75, 110
2, 168768, Note_off_c, 0, 75, 0
2, 168768, Note_on_c, 0, 75, 110
2, 168864, Note_off_c, 0, 75, 0
2, 168864, Note_on_c, 0, 75, 110
2, 168960, Note_off_c, 0, 75, 0
2, 169104, Note_on_c, 0, 77, 110
2, 169344, Note_off_c, 0, 77, 0
2, 169344, Note_on_c, 0, 77, 110
2, 169536, Note_off_c, 0, 77, 0
2, 169536, Note_on_c, 0, 77, 110
2, 169680, Note_off_c, 0, 77, 0
2, 169680, Note_on_c, 0, 75, 110
2, 169728, Note_off_c, 0, 75, 0
2, 169728, Note_on_c, 0, 72, 110
2, 169824, Note_off_c, 0, 72, 0
2, 170400, Note_on_c, 0, 75, 110
2, 170688, Note_off_c, 0, 75, 0
2, 170688, Note_on_c, 0, 75, 110
2, 170880, Note_off_c, 0, 75, 0
2, 170880, Note_on_c, 0, 70, 110
2, 170976, Note_off_c, 0, 70, 0
2, 170976, Note_on_c, 0, 70, 110
2, 171072, Note_off_c, 0, 70, 0
2, 171072, Note_on_c, 0, 68, 110
2, 171168, Note_off_c, 0, 68, 0
2, 176064, Note_on_c, 0, 77, 110
2, 176256, Note_off_c, 0, 77, 0
2, 176256, Note_on_c, 0, 75, 110
2, 176448, Note_off_c, 0, 75, 0
2, 176448, Note_on_c, 0, 77, 110
2, 176832, Note_off_c, 0, 77, 0
2, 176832, Note_on_c, 0, 75, 110
2, 176928, Note_off_c, 0, 75, 0
2, 176928, Note_on_c, 0, 77, 110
2, 177024, Note_off_c, 0, 77, 0
2, 177024, Note_on_c, 0, 75, 110
2, 177408, Note_off_c, 0, 75, 0
2, 177792, Note_on_c, 0, 72, 110
2, 177984, Note_off_c, 0, 72, 0
2, 177984, Note_on_c, 0, 70, 110
2, 178176, Note_off_c, 0, 70, 0
2, 178176, Note_on_c, 0, 72, 110
2, 178848, Note_off_c, 0, 72, 0
2, 178848, Note_on_c, 0, 70, 110
2, 178896, Note_off_c, 0, 70, 0
2, 178896, Note_on_c, 0, 69, 110
2, 178944, Note_off_c, 0, 69, 0
2, 178944, Note_on_c, 0, 70, 110
2, 179040, Note_off_c, 0, 70, 0
2, 179040, Note_on_c, 0, 69, 110
2, 179136, Note_off_c, 0, 69, 0
2, 179136, Note_on_c, 0, 65, 110
2, 179712, Note_off_c, 0, 65, 0
2, 179712, End_track
3, 0, Start_track
3, 0, Title_t, "Distortion Guitar"
3, 0, Channel_prefix, 1
3, 0, Control_c, 1, 7, 110
3, 0, Control_c, 1, 10, 44
3, 0, Program_c, 1, 30
3, 0, Note_on_c, 1, 50, 100
3, 96, Note_off_c, 1, 50, 0
3, 96, Note_on_c, 1, 43, 100
3, 192, Note_off_c, 1, 43, 0
3, 192, Note_on_c, 1, 46, 100
3, 288, Note_off_c, 1, 46, 0
3, 288, Note_on_c, 1, 48, 100
3, 384, Note_off_c, 1, 48, 0
3, 384, Note_on_c, 1, 49, 100
3, 576, Note_off_c, 1, 49, 0
3, 576, Note_on_c, 1, 48, 100
3, 672, Note_off_c, 1, 48, 0
3, 1536, Note_on_c, 1, 50, 100
3, 1632, Note_off_c, 1, 50, 0
3, 1632, Note_on_c, 1, 43, 100
3, 1728, Note_off_c, 1, 43, 0
3, 1728, Note_on_c, 1, 46, 100
3, 1824, Note_off_c, 1, 46, 0
3, 1824, Note_on_c, 1, 48, 100
3, 1920, Note_off_c, 1, 48, 0
3, 1920, Note_on_c, 1, 49, 100
3, 2112, Note_off_c, 1, 49, 0
3, 2112, Note_on_c, 1, 48, 100
3, 2208, Note_off_c, 1, 48, 0
3, 3072, Note_on_c, 1, 50, 100
3, 3168, Note_off_c, 1, 50, 0
3, 3168, Note_on_c, 1, 43, 100
3, 3264, Note_off_c, 1, 43, 0
3, 3264, Note_on_c, 1, 46, 100
3, 3360, Note_off_c, 1, 46, 0
3, 3360, Note_on_c, 1, 48, 100
3, 3456, Note_off_c, 1, 48, 0
3, 3456, Note_on_c, 1, 49, 100
3, 3648, Note_off_c, 1, 49, 0
3, 3648, Note_on_c, 1, 48, 100
3, 3744, Note_off_c, 1, 48, 0
3, 3840, Note_on_c, 1, 49, 100
3, 4128, Note_off_c, 1, 49, 0
3, 4128, Note_on_c, 1, 49, 100
3, 4224, Note_off_c, 1, 49, 0
3, 4224, Note_on_c, 1, 49, 100
3, 4608, Note_off_c, 1, 49, 0
3, 4704, Note_on_c, 1, 51, 100
3, 4800, Note_off_c, 1, 51, 0
3, 4800, Note_on_c, 1, 51, 100
3, 4896, Note_off_c, 1, 51, 0
3, 4992, Note_on_c, 1, 51, 100
3, 5376, Note_off_c, 1, 51, 0
3, 5376, Note_on_c, 1, 53, 100
3, 5664, Note_off_c, 1, 53, 0
3, 5664, Note_on_c, 1, 53, 100
3, 5760, Note_off_c, 1, 53, 0
3, 5760, Note_on_c, 1, 53, 100
3, 5952, Note_off_c, 1, 53, 0
3, 5952, Note_on_c, 1, 51, 100
3, 6048, Note_off_c, 1, 51, 0
3, 6048, Note_on_c, 1, 53, 100
3, 6144, Note_off_c, 1, 53, 0
3, 6144, Note_on_c, 1, 51, 100
3, 6240, Note_off_c, 1, 51, 0
3, 6240, Note_on_c, 1, 53, 100
3, 6336, Note_off_c, 1, 53, 0
3, 6336, Note_on_c, 1, 54, 100
3, 6432, Note_off_c, 1, 54, 0
3, 6528, Note_on_c, 1, 49, 100
3, 6912, Note_off_c, 1, 49, 0
3, 7008, Note_on_c, 1, 51, 100
3, 7104, Note_off_c, 1, 51, 0
3, 7104, Note_on_c, 1, 51, 100
3, 7200, Note_off_c, 1, 51, 0
3, 7200, Note_on_c, 1, 51, 100
3, 7296, Note_off_c, 1, 51, 0
3, 7296, Note_on_c, 1, 51, 100
3, 7392, Note_off_c, 1, 51, 0
3, 7392, Note_on_c, 1, 49, 100
3, 7488, Note_off_c, 1, 49, 0
3, 7488, Note_on_c, 1, 54, 100
3, 7584, Note_off_c, 1, 54, 0
3, 7680, Note_on_c, 1, 54, 100
3, 7776, Note_off_c, 1, 54, 0
3, 7776, Note_on_c, 1, 52, 100
3, 7872, Note_off_c, 1, 52, 0
3, 7872, Note_on_c, 1, 47, 100
3, 7968, Note_off_c, 1, 47, 0
3, 8064, Note_on_c, 1, 50, 100
3, 8448, Note_off_c, 1, 50, 0
3, 8448, Note_on_c, 1, 50, 100
3, 8544, Note_off_c, 1, 50, 0
3, 8544, Note_on_c, 1, 43, 100
3, 8640, Note_off_c, 1, 43, 0
3, 8640, Note_on_c, 1, 46, 100
3, 8736, Note_off_c, 1, 46, 0
3, 8736, Note_on_c, 1, 48, 100
3, 8832, Note_off_c, 1, 48, 0
3, 8832, Note_on_c, 1, 49, 100
3, 9024, Note_off_c, 1, 49, 0
3, 9024, Note_on_c, 1, 48, 100
3, 9120, Note_off_c, 1, 48, 0
3, 9216, Note_on_c, 1, 49, 100
3, 9504, Note_off_c, 1, 49, 0
3, 9504, Note_on_c, 1, 49, 100
3, 9600, Note_off_c, 1, 49, 0
3, 9600, Note_on_c, 1, 49, 100
3, 9984, Note_off_c, 1, 49, 0
3, 10080, Note_on_c, 1, 51, 100
3, 10176, Note_off_c, 1, 51, 0
3, 10176, Note_on_c, 1, 51, 100
3, 10272, Note_off_c, 1, 51, 0
3, 10368, Note_on_c, 1, 51, 100
3, 10752, Note_off_c, 1, 51, 0
3, 10752, Note_on_c, 1, 53, 100
3, 11040, Note_off_c, 1, 53, 0
3, 11040, Note_on_c, 1, 53, 100
3, 11136, Note_off_c, 1, 53, 0
3, 11136, Note_on_c, 1, 53, 100
3, 11328, Note_off_c, 1, 53, 0
3, 11328, Note_on_c, 1, 51, 100
3, 11424, Note_off_c, 1, 51, 0
3, 11424, Note_on_c, 1, 53, 100
3, 11520, Note_off_c, 1, 53, 0
3, 11520, Note_on_c, 1, 51, 100
3, 11616, Note_off_c, 1, 51, 0
3, 11616, Note_on_c, 1, 53, 100
3, 11712, Note_off_c, 1, 53, 0
3, 11712, Note_on_c, 1, 54, 100
3, 11808, Note_off_c, 1, 54, 0
3, 11904, Note_on_c, 1, 49, 100
3, 12288, Note_off_c, 1, 49, 0
3, 12384, Note_on_c, 1, 51, 100
3, 12480, Note_off_c, 1, 51, 0
3, 12480, Note_on_c, 1, 51, 100
3, 12576, Note_off_c, 1, 51, 0
3, 12576, Note_on_c, 1, 51, 100
3, 12672, Note_off_c, 1, 51, 0
3, 12672, Note_on_c, 1, 51, 100
3, 12768, Note_off_c, 1, 51, 0
3, 12768, Note_on_c, 1, 49, 100
3, 12864, Note_off_c, 1, 49, 0
3, 12864, Note_on_c, 1, 54, 100
3, 12960, Note_off_c, 1, 54, 0
3, 13056, Note_on_c, 1, 54, 100
3, 13152, Note_off_c, 1, 54, 0
3, 13152, Note_on_c, 1, 52, 100
3, 13248, Note_off_c, 1, 52, 0
3, 13248, Note_on_c, 1, 47, 100
3, 13344, Note_off_c, 1, 47, 0
3, 13440, Note_on_c, 1, 50, 100
3, 13824, Note_off_c, 1, 50, 0
3, 13824, Note_on_c, 1, 50, 100
3, 13920, Note_off_c, 1, 50, 0
3, 13920, Note_on_c, 1, 43, 100
3, 14016, Note_off_c, 1, 43, 0
3, 14016, Note_on_c, 1, 46, 100
3, 14112, Note_off_c, 1, 46, 0
3, 14112, Note_on_c, 1, 48, 100
3, 14208, Note_off_c, 1, 48, 0
3, 14208, Note_on_c, 1, 49, 100
3, 14400, Note_off_c, 1, 49, 0
3, 14400, Note_on_c, 1, 48, 100
3, 14496, Note_off_c, 1, 48, 0
3, 14592, Note_on_c, 1, 49, 100
3, 14880, Note_off_c, 1, 49, 0
3, 14880, Note_on_c, 1, 49, 100
3, 14976, Note_off_c, 1, 49, 0
3, 14976, Note_on_c, 1, 49, 100
3, 15360, Note_off_c, 1, 49, 0
3, 15456, Note_on_c, 1, 51, 100
3, 15552, Note_off_c, 1, 51, 0
3, 15552, Note_on_c, 1, 51, 100
3, 15648, Note_off_c, 1, 51, 0
3, 15744, Note_on_c, 1, 51, 100
3, 16128, Note_off_c, 1, 51, 0
3, 16128, Note_on_c, 1, 53, 100
3, 16416, Note_off_c, 1, 53, 0
3, 16416, Note_on_c, 1, 53, 100
3, 16512, Note_off_c, 1, 53, 0
3, 16512, Note_on_c, 1, 53, 100
3, 16704, Note_off_c, 1, 53, 0
3, 16704, Note_on_c, 1, 51, 100
3, 16800, Note_off_c, 1, 51, 0
3, 16800, Note_on_c, 1, 53, 100
3, 16896, Note_off_c, 1, 53, 0
3, 16896, Note_on_c, 1, 51, 100
3, 16992, Note_off_c, 1, 51, 0
3, 16992, Note_on_c, 1, 53, 100
3, 17088, Note_off_c, 1, 53, 0
3, 17088, Note_on_c, 1, 54, 100
3, 17184, Note_off_c, 1, 54, 0
3, 17280, Note_on_c, 1, 49, 100
3, 17664, Note_off_c, 1, 49, 0
3, 17760, Note_on_c, 1, 51, 100
3, 17856, Note_off_c, 1, 51, 0
3, 17856, Note_on_c, 1, 51, 100
3, 17952, Note_off_c, 1, 51, 0
3, 17952, Note_on_c, 1, 51, 100
3, 18048, Note_off_c, 1, 51, 0
3, 18048, Note_on_c, 1, 51, 100
3, 18144, Note_off_c, 1, 51, 0
3, 18144, Note_on_c, 1, 49, 100
3, 18240, Note_off_c, 1, 49, 0
3, 18240, Note_on_c, 1, 54, 100
3, 18336, Note_off_c, 1, 54, 0
3, 18432, Note_on_c, 1, 54, 100
3, 18528, Note_off_c, 1, 54, 0
3, 18528, Note_on_c, 1, 52, 100
3, 18624, Note_off_c, 1, 52, 0
3, 18624, Note_on_c, 1, 47, 100
3, 18816, Note_off_c, 1, 47, 0
3, 18816, Note_on_c, 1, 50, 100
3, 19200, Note_off_c, 1, 50, 0
3, 19200, Note_on_c, 1, 50, 100
3, 19296, Note_off_c, 1, 50, 0
3, 19296, Note_on_c, 1, 43, 100
3, 19392, Note_off_c, 1, 43, 0
3, 19392, Note_on_c, 1, 46, 100
3, 19488, Note_off_c, 1, 46, 0
3, 19488, Note_on_c, 1, 48, 100
3, 19584, Note_off_c, 1, 48, 0
3, 19584, Note_on_c, 1, 49, 100
3, 19776, Note_off_c, 1, 49, 0
3, 19776, Note_on_c, 1, 48, 100
3, 19872, Note_off_c, 1, 48, 0
3, 19968, Note_on_c, 1, 49, 100
3, 20256, Note_off_c, 1, 49, 0
3, 20256, Note_on_c, 1, 49, 100
3, 20352, Note_off_c, 1, 49, 0
3, 20352, Note_on_c, 1, 49, 100
3, 20736, Note_off_c, 1, 49, 0
3, 20832, Note_on_c, 1, 51, 100
3, 20928, Note_off_c, 1, 51, 0
3, 20928, Note_on_c, 1, 51, 100
3, 21024, Note_off_c, 1, 51, 0
3, 21120, Note_on_c, 1, 51, 100
3, 21504, Note_off_c, 1, 51, 0
3, 21504, Note_on_c, 1, 53, 100
3, 21792, Note_off_c, 1, 53, 0
3, 21792, Note_on_c, 1, 53, 100
3, 21888, Note_off_c, 1, 53, 0
3, 21888, Note_on_c, 1, 53, 100
3, 22080, Note_off_c, 1, 53, 0
3, 22080, Note_on_c, 1, 51, 100
3, 22176, Note_off_c, 1, 51, 0
3, 22176, Note_on_c, 1, 53, 100
3, 22272, Note_off_c, 1, 53, 0
3, 22272, Note_on_c, 1, 51, 100
3, 22368, Note_off_c, 1, 51, 0
3, 22368, Note_on_c, 1, 53, 100
3, 22464, Note_off_c, 1, 53, 0
3, 22464, Note_on_c, 1, 54, 100
3, 22560, Note_off_c, 1, 54, 0
3, 22656, Note_on_c, 1, 49, 100
3, 23040, Note_off_c, 1, 49, 0
3, 23136, Note_on_c, 1, 51, 100
3, 23232, Note_off_c, 1, 51, 0
3, 23232, Note_on_c, 1, 51, 100
3, 23328, Note_off_c, 1, 51, 0
3, 23328, Note_on_c, 1, 51, 100
3, 23424, Note_off_c, 1, 51, 0
3, 23424, Note_on_c, 1, 51, 100
3, 23520, Note_off_c, 1, 51, 0
3, 23520, Note_on_c, 1, 49, 100
3, 23616, Note_off_c, 1, 49, 0
3, 23616, Note_on_c, 1, 54, 100
3, 23712, Note_off_c, 1, 54, 0
3, 23808, Note_on_c, 1, 54, 100
3, 23904, Note_off_c, 1, 54, 0
3, 23904, Note_on_c, 1, 52, 100
3, 24000, Note_off_c, 1, 52, 0
3, 24000, Note_on_c, 1, 47, 100
3, 24192, Note_off_c, 1, 47, 0
3, 24192, Note_on_c, 1, 50, 100
3, 24576, Note_off_c, 1, 50, 0
3, 93696, Note_on_c, 1, 67, 99
3, 93792, Note_off_c, 1, 67, 0
3, 93792, Note_on_c, 1, 67, 99
3, 93984, Note_off_c, 1, 67, 0
3, 93984, Note_on_c, 1, 69, 99
3, 95040, Note_off_c, 1, 69, 0
3, 95232, Note_on_c, 1, 58, 99
3, 95360, Note_off_c, 1, 58, 0
3, 95360, Note_on_c, 1, 57, 99
3, 95488, Note_off_c, 1, 57, 0
3, 95488, Note_on_c, 1, 53, 99
3, 95616, Note_off_c, 1, 53, 0
3, 95616, Note_on_c, 1, 48, 99
3, 96576, Note_off_c, 1, 48, 0
3, 96768, Note_on_c, 1, 48, 99
3, 96864, Note_off_c, 1, 48, 0
3, 96864, Note_on_c, 1, 50, 99
3, 96960, Note_off_c, 1, 50, 0
3, 96960, Note_on_c, 1, 53, 99
3, 97056, Note_off_c, 1, 53, 0
3, 97056, Note_on_c, 1, 55, 99
3, 97152, Note_off_c, 1, 55, 0
3, 97152, Note_on_c, 1, 57, 99
3, 98112, Note_off_c, 1, 57, 0
3, 98304, Note_on_c, 1, 48, 99
3, 98592, Note_off_c, 1, 48, 0
3, 98592, Note_on_c, 1, 48, 99
3, 98688, Note_off_c, 1, 48, 0
3, 98688, Note_on_c, 1, 50, 99
3, 98720, Note_off_c, 1, 50, 0
3, 98720, Note_on_c, 1, 51, 99
3, 98752, Note_off_c, 1, 51, 0
3, 98752, Note_on_c, 1, 52, 99
3, 98784, Note_off_c, 1, 52, 0
3, 98784, Note_on_c, 1, 55, 99
3, 98880, Note_off_c, 1, 55, 0
3, 98880, Note_on_c, 1, 60, 99
3, 98976, Note_off_c, 1, 60, 0
3, 99072, Note_on_c, 1, 58, 99
3, 99840, Note_off_c, 1, 58, 0
3, 99840, Note_on_c, 1, 67, 99
3, 99936, Note_off_c, 1, 67, 0
3, 99936, Note_on_c, 1, 63, 99
3, 100032, Note_off_c, 1, 63, 0
3, 100032, Note_on_c, 1, 60, 99
3, 101376, Note_off_c, 1, 60, 0
3, 101376, Note_on_c, 1, 67, 99
3, 101472, Note_off_c, 1, 67, 0
3, 101472, Note_on_c, 1, 62, 99
3, 101568, Note_off_c, 1, 62, 0
3, 101568, Note_on_c, 1, 58, 99
3, 102912, Note_off_c, 1, 58, 0
3, 102912, Note_on_c, 1, 48, 99
3, 103008, Note_off_c, 1, 48, 0
3, 103008, Note_on_c, 1, 50, 99
3, 103104, Note_off_c, 1, 50, 0
3, 103104, Note_on_c, 1, 53, 99
3, 103200, Note_off_c, 1, 53, 0
3, 103200, Note_on_c, 1, 55, 99
3, 103296, Note_off_c, 1, 55, 0
3, 103296, Note_on_c, 1, 57, 99
3, 103392, Note_off_c, 1, 57, 0
3, 103392, Note_on_c, 1, 60, 99
3, 103488, Note_off_c, 1, 60, 0
3, 103488, Note_on_c, 1, 60, 99
3, 103584, Note_off_c, 1, 60, 0
3, 103584, Note_on_c, 1, 60, 99
3, 103680, Note_off_c, 1, 60, 0
3, 103680, Note_on_c, 1, 60, 99
3, 103872, Note_off_c, 1, 60, 0
3, 103872, Note_on_c, 1, 57, 99
3, 104064, Note_off_c, 1, 57, 0
3, 104064, Note_on_c, 1, 60, 99
3, 104160, Note_off_c, 1, 60, 0
3, 104160, Note_on_c, 1, 57, 99
3, 104256, Note_off_c, 1, 57, 0
3, 104256, Note_on_c, 1, 60, 99
3, 104352, Note_off_c, 1, 60, 0
3, 104352, Note_on_c, 1, 60, 99
3, 104448, Note_off_c, 1, 60, 0
3, 104448, Note_on_c, 1, 62, 99
3, 104512, Note_off_c, 1, 62, 0
3, 104512, Note_on_c, 1, 60, 99
3, 104576, Note_off_c, 1, 60, 0
3, 104576, Note_on_c, 1, 55, 99
3, 104640, Note_off_c, 1, 55, 0
3, 104640, Note_on_c, 1, 60, 99
3, 104736, Note_off_c, 1, 60, 0
3, 104736, Note_on_c, 1, 57, 99
3, 104832, Note_off_c, 1, 57, 0
3, 104832, Note_on_c, 1, 60, 99
3, 104928, Note_off_c, 1, 60, 0
3, 104928, Note_on_c, 1, 62, 99
3, 105024, Note_off_c, 1, 62, 0
3, 105024, Note_on_c, 1, 65, 99
3, 105120, Note_off_c, 1, 65, 0
3, 105120, Note_on_c, 1, 69, 99
3, 105216, Note_off_c, 1, 69, 0
3, 105216, Note_on_c, 1, 67, 99
3, 105408, Note_off_c, 1, 67, 0
3, 105408, Note_on_c, 1, 65, 99
3, 105600, Note_off_c, 1, 65, 0
3, 105600, Note_on_c, 1, 60, 99
3, 105792, Note_off_c, 1, 60, 0
3, 105792, Note_on_c, 1, 62, 99
3, 105984, Note_off_c, 1, 62, 0
3, 105984, Note_on_c, 1, 55, 99
3, 106272, Note_off_c, 1, 55, 0
3, 106272, Note_on_c, 1, 58, 99
3, 106560, Note_off_c, 1, 58, 0
3, 106560, Note_on_c, 1, 60, 99
3, 106848, Note_off_c, 1, 60, 0
3, 106848, Note_on_c, 1, 53, 99
3, 107136, Note_off_c, 1, 53, 0
3, 107136, Note_on_c, 1, 50, 99
3, 107328, Note_off_c, 1, 50, 0
3, 107328, Note_on_c, 1, 50, 99
3, 107424, Note_off_c, 1, 50, 0
3, 107424, Note_on_c, 1, 53, 99
3, 107616, Note_off_c, 1, 53, 0
3, 107616, Note_on_c, 1, 55, 99
3, 107712, Note_off_c, 1, 55, 0
3, 107712, Note_on_c, 1, 58, 99
3, 107808, Note_off_c, 1, 58, 0
3, 107808, Note_on_c, 1, 60, 99
3, 107904, Note_off_c, 1, 60, 0
3, 107904, Note_on_c, 1, 58, 99
3, 108000, Note_off_c, 1, 58, 0
3, 108000, Note_on_c, 1, 55, 99
3, 108096, Note_off_c, 1, 55, 0
3, 108096, Note_on_c, 1, 58, 99
3, 108192, Note_off_c, 1, 58, 0
3, 108192, Note_on_c, 1, 55, 99
3, 108720, Note_off_c, 1, 55, 0
3, 108800, Note_on_c, 1, 55, 99
3, 108880, Note_off_c, 1, 55, 0
3, 108928, Note_on_c, 1, 55, 99
3, 109008, Note_off_c, 1, 55, 0
3, 109056, Note_on_c, 1, 62, 99
3, 109824, Note_off_c, 1, 62, 0
3, 109824, Note_on_c, 1, 60, 99
3, 109920, Note_off_c, 1, 60, 0
3, 109920, Note_on_c, 1, 58, 99
3, 110304, Note_off_c, 1, 58, 0
3, 110304, Note_on_c, 1, 55, 99
3, 110784, Note_off_c, 1, 55, 0
3, 110784, Note_on_c, 1, 53, 99
3, 110880, Note_off_c, 1, 53, 0
3, 110880, Note_on_c, 1, 50, 99
3, 110976, Note_off_c, 1, 50, 0
3, 110976, Note_on_c, 1, 48, 99
3, 111072, Note_off_c, 1, 48, 0
3, 111072, Note_on_c, 1, 46, 99
3, 111168, Note_off_c, 1, 46, 0
3, 111168, Note_on_c, 1, 46, 99
3, 111264, Note_off_c, 1, 46, 0
3, 111264, Note_on_c, 1, 43, 99
3, 111360, Note_off_c, 1, 43, 0
3, 111360, Note_on_c, 1, 46, 99
3, 111456, Note_off_c, 1, 46, 0
3, 111456, Note_on_c, 1, 48, 99
3, 111552, Note_off_c, 1, 48, 0
3, 111552, Note_on_c, 1, 50, 99
3, 111648, Note_off_c, 1, 50, 0
3, 111648, Note_on_c, 1, 53, 99
3, 111744, Note_off_c, 1, 53, 0
3, 111744, Note_on_c, 1, 53, 99
3, 111840, Note_off_c, 1, 53, 0
3, 111840, Note_on_c, 1, 55, 99
3, 111936, Note_off_c, 1, 55, 0
3, 111936, Note_on_c, 1, 58, 99
3, 112032, Note_off_c, 1, 58, 0
3, 112032, Note_on_c, 1, 55, 99
3, 112128, Note_off_c, 1, 55, 0
3, 112128, Note_on_c, 1, 58, 99
3, 112224, Note_off_c, 1, 58, 0
3, 112224, Note_on_c, 1, 58, 99
3, 112272, Note_off_c, 1, 58, 0
3, 112272, Note_on_c, 1, 58, 99
3, 112320, Note_off_c, 1, 58, 0
3, 112320, Note_on_c, 1, 58, 99
3, 112416, Note_off_c, 1, 58, 0
3, 112416, Note_on_c, 1, 55, 99
3, 112512, Note_off_c, 1, 55, 0
3, 112512, Note_on_c, 1, 58, 99
3, 112608, Note_off_c, 1, 58, 0
3, 112608, Note_on_c, 1, 55, 99
3, 112704, Note_off_c, 1, 55, 0
3, 112704, Note_on_c, 1, 60, 99
3, 112848, Note_off_c, 1, 60, 0
3, 112848, Note_on_c, 1, 62, 99
3, 113184, Note_off_c, 1, 62, 0
3, 113184, Note_on_c, 1, 60, 99
3, 113376, Note_off_c, 1, 60, 0
3, 113376, Note_on_c, 1, 58, 99
3, 113472, Note_off_c, 1, 58, 0
3, 113472, Note_on_c, 1, 60, 99
3, 113520, Note_off_c, 1, 60, 0
3, 113520, Note_on_c, 1, 58, 99
3, 113568, Note_off_c, 1, 58, 0
3, 113568, Note_on_c, 1, 55, 99
3, 113664, Note_off_c, 1, 55, 0
3, 113664, Note_on_c, 1, 58, 99
3, 113760, Note_off_c, 1, 58, 0
3, 113760, Note_on_c, 1, 50, 99
3, 114048, Note_off_c, 1, 50, 0
3, 114048, Note_on_c, 1, 53, 99
3, 114144, Note_off_c, 1, 53, 0
3, 114144, Note_on_c, 1, 55, 99
3, 114240, Note_off_c, 1, 55, 0
3, 114240, Note_on_c, 1, 58, 99
3, 114336, Note_off_c, 1, 58, 0
3, 114336, Note_on_c, 1, 58, 99
3, 114432, Note_off_c, 1, 58, 0
3, 114432, Note_on_c, 1, 60, 99
3, 114528, Note_off_c, 1, 60, 0
3, 114528, Note_on_c, 1, 58, 99
3, 114624, Note_off_c, 1, 58, 0
3, 114624, Note_on_c, 1, 53, 99
3, 114816, Note_off_c, 1, 53, 0
3, 114816, Note_on_c, 1, 50, 99
3, 115008, Note_off_c, 1, 50, 0
3, 115008, Note_on_c, 1, 53, 99
3, 115104, Note_off_c, 1, 53, 0
3, 115104, Note_on_c, 1, 55, 99
3, 115200, Note_off_c, 1, 55, 0
3, 115200, Note_on_c, 1, 58, 99
3, 115296, Note_off_c, 1, 58, 0
3, 115296, Note_on_c, 1, 60, 99
3, 115392, Note_off_c, 1, 60, 0
3, 115392, Note_on_c, 1, 62, 99
3, 115584, Note_off_c, 1, 62, 0
3, 115584, Note_on_c, 1, 65, 99
3, 115872, Note_off_c, 1, 65, 0
3, 115872, Note_on_c, 1, 60, 99
3, 116160, Note_on_c, 1, 67, 99
3, 116448, Note_off_c, 1, 67, 0
3, 116448, Note_off_c, 1, 60, 0
3, 116448, Note_on_c, 1, 62, 99
3, 116736, Note_off_c, 1, 62, 0
3, 116736, Note_on_c, 1, 48, 99
3, 116832, Note_off_c, 1, 48, 0
3, 116832, Note_on_c, 1, 50, 99
3, 116928, Note_off_c, 1, 50, 0
3, 116928, Note_on_c, 1, 53, 99
3, 117024, Note_off_c, 1, 53, 0
3, 117024, Note_on_c, 1, 55, 99
3, 117120, Note_off_c, 1, 55, 0
3, 117120, Note_on_c, 1, 57, 99
3, 117216, Note_off_c, 1, 57, 0
3, 117216, Note_on_c, 1, 60, 99
3, 117312, Note_off_c, 1, 60, 0
3, 117312, Note_on_c, 1, 60, 99
3, 117408, Note_off_c, 1, 60, 0
3, 117408, Note_on_c, 1, 60, 99
3, 117504, Note_off_c, 1, 60, 0
3, 117504, Note_on_c, 1, 60, 99
3, 117600, Note_off_c, 1, 60, 0
3, 117600, Note_on_c, 1, 62, 99
3, 117696, Note_off_c, 1, 62, 0
3, 117696, Note_on_c, 1, 65, 99
3, 117792, Note_off_c, 1, 65, 0
3, 117792, Note_on_c, 1, 65, 99
3, 117888, Note_off_c, 1, 65, 0
3, 117888, Note_on_c, 1, 65, 99
3, 117984, Note_off_c, 1, 65, 0
3, 117984, Note_on_c, 1, 67, 99
3, 118032, Note_off_c, 1, 67, 0
3, 118032, Note_on_c, 1, 65, 99
3, 118080, Note_off_c, 1, 65, 0
3, 118080, Note_on_c, 1, 65, 99
3, 118272, Note_off_c, 1, 65, 0
3, 118272, Note_on_c, 1, 62, 99
3, 118464, Note_off_c, 1, 62, 0
3, 118464, Note_on_c, 1, 60, 99
3, 118656, Note_off_c, 1, 60, 0
3, 118656, Note_on_c, 1, 62, 99
3, 118704, Note_off_c, 1, 62, 0
3, 118704, Note_on_c, 1, 60, 99
3, 118752, Note_off_c, 1, 60, 0
3, 118752, Note_on_c, 1, 57, 99
3, 118848, Note_off_c, 1, 57, 0
3, 118848, Note_on_c, 1, 60, 99
3, 118944, Note_off_c, 1, 60, 0
3, 118944, Note_on_c, 1, 62, 99
3, 119040, Note_off_c, 1, 62, 0
3, 119040, Note_on_c, 1, 67, 99
3, 119088, Note_off_c, 1, 67, 0
3, 119088, Note_on_c, 1, 65, 99
3, 119136, Note_off_c, 1, 65, 0
3, 119136, Note_on_c, 1, 62, 99
3, 119184, Note_off_c, 1, 62, 0
3, 119184, Note_on_c, 1, 60, 99
3, 119232, Note_off_c, 1, 60, 0
3, 119232, Note_on_c, 1, 57, 99
3, 119424, Note_off_c, 1, 57, 0
3, 119424, Note_on_c, 1, 60, 99
3, 119520, Note_off_c, 1, 60, 0
3, 119520, Note_on_c, 1, 57, 99
3, 119616, Note_off_c, 1, 57, 0
3, 119616, Note_on_c, 1, 60, 99
3, 119664, Note_off_c, 1, 60, 0
3, 119664, Note_on_c, 1, 62, 99
3, 119712, Note_off_c, 1, 62, 0
3, 119712, Note_on_c, 1, 62, 99
3, 119808, Note_off_c, 1, 62, 0
3, 119808, Note_on_c, 1, 55, 99
3, 120096, Note_off_c, 1, 55, 0
3, 120096, Note_on_c, 1, 58, 99
3, 120384, Note_off_c, 1, 58, 0
3, 120384, Note_on_c, 1, 62, 99
3, 120576, Note_off_c, 1, 62, 0
3, 120576, Note_on_c, 1, 60, 99
3, 121152, Note_off_c, 1, 60, 0
3, 121152, Note_on_c, 1, 58, 99
3, 121248, Note_off_c, 1, 58, 0
3, 121248, Note_on_c, 1, 62, 99
3, 121344, Note_off_c, 1, 62, 0
3, 121344, Note_on_c, 1, 60, 99
3, 121440, Note_off_c, 1, 60, 0
3, 121440, Note_on_c, 1, 58, 99
3, 121536, Note_off_c, 1, 58, 0
3, 121536, Note_on_c, 1, 53, 99
3, 121632, Note_off_c, 1, 53, 0
3, 121632, Note_on_c, 1, 53, 99
3, 121728, Note_off_c, 1, 53, 0
3, 121728, Note_on_c, 1, 55, 99
3, 121824, Note_off_c, 1, 55, 0
3, 121824, Note_on_c, 1, 53, 99
3, 122016, Note_off_c, 1, 53, 0
3, 122016, Note_on_c, 1, 50, 99
3, 122496, Note_off_c, 1, 50, 0
3, 122496, Note_on_c, 1, 43, 99
3, 122592, Note_off_c, 1, 43, 0
3, 122592, Note_on_c, 1, 50, 99
3, 122784, Note_off_c, 1, 50, 0
3, 122784, Note_on_c, 1, 55, 99
3, 122880, Note_off_c, 1, 55, 0
3, 122880, Note_on_c, 1, 58, 99
3, 123072, Note_off_c, 1, 58, 0
3, 123072, Note_on_c, 1, 55, 99
3, 123552, Note_off_c, 1, 55, 0
3, 123552, Note_on_c, 1, 58, 100
3, 123744, Note_off_c, 1, 58, 0
3, 123744, Note_on_c, 1, 60, 100
3, 123840, Note_off_c, 1, 60, 0
3, 123840, Note_on_c, 1, 62, 100
3, 124320, Note_off_c, 1, 62, 0
3, 124320, Note_on_c, 1, 65, 100
3, 124512, Note_off_c, 1, 65, 0
3, 124512, Note_on_c, 1, 67, 100
3, 124704, Note_off_c, 1, 67, 0
3, 124704, Note_on_c, 1, 62, 100
3, 125184, Note_off_c, 1, 62, 0
3, 125184, Note_on_c, 1, 65, 100
3, 125472, Note_off_c, 1, 65, 0
3, 125472, Note_on_c, 1, 67, 100
3, 125856, Note_off_c, 1, 67, 0
3, 125856, Note_on_c, 1, 65, 100
3, 125952, Note_off_c, 1, 65, 0
3, 125952, Note_on_c, 1, 74, 100
3, 126240, Note_off_c, 1, 74, 0
3, 126240, Note_on_c, 1, 67, 100
3, 126816, Note_off_c, 1, 67, 0
3, 126816, Note_on_c, 1, 72, 101
3, 127008, Note_off_c, 1, 72, 0
3, 127008, Note_on_c, 1, 65, 101
3, 127104, Note_off_c, 1, 65, 0
3, 127104, Note_on_c, 1, 67, 101
3, 127584, Note_off_c, 1, 67, 0
3, 127584, Note_on_c, 1, 65, 101
3, 127680, Note_off_c, 1, 65, 0
3, 127680, Note_on_c, 1, 72, 101
3, 127744, Note_off_c, 1, 72, 0
3, 127744, Note_on_c, 1, 70, 101
3, 127808, Note_off_c, 1, 70, 0
3, 127808, Note_on_c, 1, 65, 101
3, 127872, Note_off_c, 1, 65, 0
3, 127872, Note_on_c, 1, 72, 101
3, 127936, Note_off_c, 1, 72, 0
3, 127936, Note_on_c, 1, 70, 101
3, 128000, Note_off_c, 1, 70, 0
3, 128000, Note_on_c, 1, 65, 101
3, 128064, Note_off_c, 1, 65, 0
3, 128064, Note_on_c, 1, 70, 101
3, 128160, Note_off_c, 1, 70, 0
3, 128160, Note_on_c, 1, 67, 101
3, 128448, Note_off_c, 1, 67, 0
3, 128448, Note_on_c, 1, 65, 101
3, 128544, Note_off_c, 1, 65, 0
3, 128544, Note_on_c, 1, 62, 101
3, 128640, Note_off_c, 1, 62, 0
3, 128640, Note_on_c, 1, 60, 101
3, 128736, Note_off_c, 1, 60, 0
3, 128736, Note_on_c, 1, 58, 101
3, 128832, Note_off_c, 1, 58, 0
3, 128832, Note_on_c, 1, 60, 101
3, 128928, Note_off_c, 1, 60, 0
3, 128928, Note_on_c, 1, 58, 101
3, 129024, Note_off_c, 1, 58, 0
3, 129024, Note_on_c, 1, 60, 101
3, 129088, Note_off_c, 1, 60, 0
3, 129088, Note_on_c, 1, 58, 101
3, 129152, Note_off_c, 1, 58, 0
3, 129152, Note_on_c, 1, 55, 101
3, 129216, Note_off_c, 1, 55, 0
3, 129216, Note_on_c, 1, 58, 101
3, 129312, Note_off_c, 1, 58, 0
3, 129312, Note_on_c, 1, 50, 101
3, 129408, Note_off_c, 1, 50, 0
3, 129408, Note_on_c, 1, 53, 101
3, 129504, Note_off_c, 1, 53, 0
3, 129504, Note_on_c, 1, 50, 101
3, 129600, Note_off_c, 1, 50, 0
3, 129600, Note_on_c, 1, 53, 101
3, 129696, Note_off_c, 1, 53, 0
3, 129696, Note_on_c, 1, 55, 101
3, 129792, Note_off_c, 1, 55, 0
3, 129792, Note_on_c, 1, 58, 101
3, 129888, Note_off_c, 1, 58, 0
3, 129888, Note_on_c, 1, 60, 101
3, 129984, Note_off_c, 1, 60, 0
3, 129984, Note_on_c, 1, 50, 101
3, 130560, Note_off_c, 1, 50, 0
3, 130560, Note_on_c, 1, 48, 102
3, 130656, Note_off_c, 1, 48, 0
3, 130656, Note_on_c, 1, 50, 102
3, 130752, Note_off_c, 1, 50, 0
3, 130752, Note_on_c, 1, 53, 102
3, 130848, Note_off_c, 1, 53, 0
3, 130848, Note_on_c, 1, 55, 102
3, 130944, Note_off_c, 1, 55, 0
3, 130944, Note_on_c, 1, 57, 102
3, 131040, Note_off_c, 1, 57, 0
3, 131040, Note_on_c, 1, 60, 102
3, 131136, Note_off_c, 1, 60, 0
3, 131136, Note_on_c, 1, 60, 102
3, 131232, Note_off_c, 1, 60, 0
3, 131232, Note_on_c, 1, 60, 102
3, 131328, Note_off_c, 1, 60, 0
3, 131328, Note_on_c, 1, 60, 102
3, 131424, Note_off_c, 1, 60, 0
3, 131424, Note_on_c, 1, 62, 102
3, 131520, Note_off_c, 1, 62, 0
3, 131520, Note_on_c, 1, 62, 102
3, 131616, Note_off_c, 1, 62, 0
3, 131616, Note_on_c, 1, 62, 102
3, 131712, Note_off_c, 1, 62, 0
3, 131712, Note_on_c, 1, 65, 102
3, 131808, Note_off_c, 1, 65, 0
3, 131808, Note_on_c, 1, 67, 102
3, 132000, Note_off_c, 1, 67, 0
3, 132000, Note_on_c, 1, 67, 102
3, 132096, Note_off_c, 1, 67, 0
3, 132096, Note_on_c, 1, 69, 102
3, 132192, Note_off_c, 1, 69, 0
3, 132192, Note_on_c, 1, 70, 102
3, 132288, Note_off_c, 1, 70, 0
3, 132288, Note_on_c, 1, 72, 102
3, 132384, Note_off_c, 1, 72, 0
3, 132384, Note_on_c, 1, 74, 102
3, 132480, Note_off_c, 1, 74, 0
3, 132480, Note_on_c, 1, 77, 102
3, 132576, Note_off_c, 1, 77, 0
3, 132576, Note_on_c, 1, 72, 102
3, 132672, Note_off_c, 1, 72, 0
3, 132672, Note_on_c, 1, 74, 102
3, 132768, Note_off_c, 1, 74, 0
3, 132768, Note_on_c, 1, 77, 102
3, 132864, Note_off_c, 1, 77, 0
3, 132864, Note_on_c, 1, 72, 102
3, 132960, Note_off_c, 1, 72, 0
3, 132960, Note_on_c, 1, 74, 102
3, 133056, Note_off_c, 1, 74, 0
3, 133056, Note_on_c, 1, 77, 102
3, 133152, Note_off_c, 1, 77, 0
3, 133152, Note_on_c, 1, 74, 102
3, 133352, Control_c, 1, 1, 92
3, 133619, Control_c, 1, 1, 0
3, 133632, Note_off_c, 1, 74, 0
3, 147456, Note_on_c, 1, 50, 100
3, 147552, Note_off_c, 1, 50, 0
3, 147552, Note_on_c, 1, 43, 100
3, 147648, Note_off_c, 1, 43, 0
3, 147648, Note_on_c, 1, 46, 100
3, 147744, Note_off_c, 1, 46, 0
3, 147744, Note_on_c, 1, 48, 100
3, 147840, Note_off_c, 1, 48, 0
3, 147840, Note_on_c, 1, 49, 100
3, 148032, Note_off_c, 1, 49, 0
3, 148032, Note_on_c, 1, 48, 100
3, 148128, Note_off_c, 1, 48, 0
3, 148992, Note_on_c, 1, 50, 100
3, 149088, Note_off_c, 1, 50, 0
3, 149088, Note_on_c, 1, 43, 100
3, 149184, Note_off_c, 1, 43, 0
3, 149184, Note_on_c, 1, 46, 100
3, 149280, Note_off_c, 1, 46, 0
3, 149280, Note_on_c, 1, 48, 100
3, 149376, Note_off_c, 1, 48, 0
3, 149376, Note_on_c, 1, 49, 100
3, 149568, Note_off_c, 1, 49, 0
3, 149568, Note_on_c, 1, 48, 100
3, 149664, Note_off_c, 1, 48, 0
3, 150528, Note_on_c, 1, 50, 100
3, 150624, Note_off_c, 1, 50, 0
3, 150624, Note_on_c, 1, 43, 100
3, 150720, Note_off_c, 1, 43, 0
3, 150720, Note_on_c, 1, 46, 100
3, 150816, Note_off_c, 1, 46, 0
3, 150816, Note_on_c, 1, 48, 100
3, 150912, Note_off_c, 1, 48, 0
3, 150912, Note_on_c, 1, 49, 100
3, 151104, Note_off_c, 1, 49, 0
3, 151104, Note_on_c, 1, 48, 100
3, 151200, Note_off_c, 1, 48, 0
3, 151296, Note_on_c, 1, 49, 100
3, 151584, Note_off_c, 1, 49, 0
3, 151584, Note_on_c, 1, 49, 100
3, 151680, Note_off_c, 1, 49, 0
3, 151680, Note_on_c, 1, 49, 100
3, 152064, Note_off_c, 1, 49, 0
3, 152160, Note_on_c, 1, 51, 100
3, 152256, Note_off_c, 1, 51, 0
3, 152256, Note_on_c, 1, 51, 100
3, 152352, Note_off_c, 1, 51, 0
3, 152448, Note_on_c, 1, 51, 100
3, 152832, Note_off_c, 1, 51, 0
3, 152832, Note_on_c, 1, 53, 100
3, 153120, Note_off_c, 1, 53, 0
3, 153120, Note_on_c, 1, 53, 100
3, 153216, Note_off_c, 1, 53, 0
3, 153216, Note_on_c, 1, 53, 100
3, 153408, Note_off_c, 1, 53, 0
3, 153408, Note_on_c, 1, 51, 100
3, 153504, Note_off_c, 1, 51, 0
3, 153504, Note_on_c, 1, 53, 100
3, 153600, Note_off_c, 1, 53, 0
3, 153600, Note_on_c, 1, 51, 100
3, 153696, Note_off_c, 1, 51, 0
3, 153696, Note_on_c, 1, 53, 100
3, 153792, Note_off_c, 1, 53, 0
3, 153792, Note_on_c, 1, 54, 100
3, 153888, Note_off_c, 1, 54, 0
3, 153984, Note_on_c, 1, 49, 100
3, 154368, Note_off_c, 1, 49, 0
3, 154464, Note_on_c, 1, 51, 100
3, 154560, Note_off_c, 1, 51, 0
3, 154560, Note_on_c, 1, 51, 100
3, 154656, Note_off_c, 1, 51, 0
3, 154656, Note_on_c, 1, 51, 100
3, 154752, Note_off_c, 1, 51, 0
3, 154752, Note_on_c, 1, 51, 100
3, 154848, Note_off_c, 1, 51, 0
3, 154848, Note_on_c, 1, 49, 100
3, 154944, Note_off_c, 1, 49, 0
3, 154944, Note_on_c, 1, 54, 100
3, 155040, Note_off_c, 1, 54, 0
3, 155136, Note_on_c, 1, 54, 100
3, 155232, Note_off_c, 1, 54, 0
3, 155232, Note_on_c, 1, 52, 100
3, 155328, Note_off_c, 1, 52, 0
3, 155328, Note_on_c, 1, 47, 100
3, 155424, Note_off_c, 1, 47, 0
3, 155520, Note_on_c, 1, 50, 100
3, 155904, Note_off_c, 1, 50, 0
3, 155904, Note_on_c, 1, 50, 100
3, 156000, Note_off_c, 1, 50, 0
3, 156000, Note_on_c, 1, 43, 100
3, 156096, Note_off_c, 1, 43, 0
3, 156096, Note_on_c, 1, 46, 100
3, 156192, Note_off_c, 1, 46, 0
3, 156192, Note_on_c, 1, 48, 100
3, 156288, Note_off_c, 1, 48, 0
3, 156288, Note_on_c, 1, 49, 100
3, 156480, Note_off_c, 1, 49, 0
3, 156480, Note_on_c, 1, 48, 100
3, 156576, Note_off_c, 1, 48, 0
3, 156672, Note_on_c, 1, 49, 100
3, 156960, Note_off_c, 1, 49, 0
3, 156960, Note_on_c, 1, 49, 100
3, 157056, Note_off_c, 1, 49, 0
3, 157056, Note_on_c, 1, 49, 100
3, 157440, Note_off_c, 1, 49, 0
3, 157536, Note_on_c, 1, 51, 100
3, 157632, Note_off_c, 1, 51, 0
3, 157632, Note_on_c, 1, 51, 100
3, 157728, Note_off_c, 1, 51, 0
3, 157824, Note_on_c, 1, 51, 100
3, 158208, Note_off_c, 1, 51, 0
3, 158208, Note_on_c, 1, 53, 100
3, 158496, Note_off_c, 1, 53, 0
3, 158496, Note_on_c, 1, 53, 100
3, 158592, Note_off_c, 1, 53, 0
3, 158592, Note_on_c, 1, 53, 100
3, 158784, Note_off_c, 1, 53, 0
3, 158784, Note_on_c, 1, 51, 100
3, 158880, Note_off_c, 1, 51, 0
3, 158880, Note_on_c, 1, 53, 100
3, 158976, Note_off_c, 1, 53, 0
3, 158976, Note_on_c, 1, 51, 100
3, 159072, Note_off_c, 1, 51, 0
3, 159072, Note_on_c, 1, 53, 100
3, 159168, Note_off_c, 1, 53, 0
3, 159168, Note_on_c, 1, 54, 100
3, 159264, Note_off_c, 1, 54, 0
3, 159360, Note_on_c, 1, 49, 100
3, 159744, Note_off_c, 1, 49, 0
3, 159840, Note_on_c, 1, 51, 100
3, 159936, Note_off_c, 1, 51, 0
3, 159936, Note_on_c, 1, 51, 100
3, 160032, Note_off_c, 1, 51, 0
3, 160032, Note_on_c, 1, 51, 100
3, 160128, Note_off_c, 1, 51, 0
3, 160128, Note_on_c, 1, 51, 100
3, 160224, Note_off_c, 1, 51, 0
3, 160224, Note_on_c, 1, 49, 100
3, 160320, Note_off_c, 1, 49, 0
3, 160320, Note_on_c, 1, 54, 100
3, 160416, Note_off_c, 1, 54, 0
3, 160512, Note_on_c, 1, 54, 100
3, 160608, Note_off_c, 1, 54, 0
3, 160608, Note_on_c, 1, 52, 100
3, 160704, Note_off_c, 1, 52, 0
3, 160704, Note_on_c, 1, 47, 100
3, 160800, Note_off_c, 1, 47, 0
3, 160896, Note_on_c, 1, 50, 100
3, 161280, Note_off_c, 1, 50, 0
3, 161280, Note_on_c, 1, 50, 100
3, 161376, Note_off_c, 1, 50, 0
3, 161376, Note_on_c, 1, 43, 100
3, 161472, Note_off_c, 1, 43, 0
3, 161472, Note_on_c, 1, 46, 100
3, 161568, Note_off_c, 1, 46, 0
3, 161568, Note_on_c, 1, 48, 100
3, 161664, Note_off_c, 1, 48, 0
3, 161664, Note_on_c, 1, 49, 100
3, 161856, Note_off_c, 1, 49, 0
3, 161856, Note_on_c, 1, 48, 100
3, 161952, Note_off_c, 1, 48, 0
3, 162048, Note_on_c, 1, 49, 100
3, 162336, Note_off_c, 1, 49, 0
3, 162336, Note_on_c, 1, 49, 100
3, 162432, Note_off_c, 1, 49, 0
3, 162432, Note_on_c, 1, 49, 100
3, 162816, Note_off_c, 1, 49, 0
3, 162912, Note_on_c, 1, 51, 100
3, 163008, Note_off_c, 1, 51, 0
3, 163008, Note_on_c, 1, 51, 100
3, 163104, Note_off_c, 1, 51, 0
3, 163200, Note_on_c, 1, 51, 100
3, 163584, Note_off_c, 1, 51, 0
3, 163584, Note_on_c, 1, 53, 100
3, 163872, Note_off_c, 1, 53, 0
3, 163872, Note_on_c, 1, 53, 100
3, 163968, Note_off_c, 1, 53, 0
3, 163968, Note_on_c, 1, 53, 100
3, 164160, Note_off_c, 1, 53, 0
3, 164160, Note_on_c, 1, 51, 100
3, 164256, Note_off_c, 1, 51, 0
3, 164256, Note_on_c, 1, 53, 100
3, 164352, Note_off_c, 1, 53, 0
3, 164352, Note_on_c, 1, 51, 100
3, 164448, Note_off_c, 1, 51, 0
3, 164448, Note_on_c, 1, 53, 100
3, 164544, Note_off_c, 1, 53, 0
3, 164544, Note_on_c, 1, 54, 100
3, 164640, Note_off_c, 1, 54, 0
3, 164736, Note_on_c, 1, 49, 100
3, 165120, Note_off_c, 1, 49, 0
3, 165216, Note_on_c, 1, 51, 100
3, 165312, Note_off_c, 1, 51, 0
3, 165312, Note_on_c, 1, 51, 100
3, 165408, Note_off_c, 1, 51, 0
3, 165408, Note_on_c, 1, 51, 100
3, 165504, Note_off_c, 1, 51, 0
3, 165504, Note_on_c, 1, 51, 100
3, 165600, Note_off_c, 1, 51, 0
3, 165600, Note_on_c, 1, 49, 100
3, 165696, Note_off_c, 1, 49, 0
3, 165696, Note_on_c, 1, 54, 100
3, 165792, Note_off_c, 1, 54, 0
3, 165888, Note_on_c, 1, 54, 100
3, 165984, Note_off_c, 1, 54, 0
3, 165984, Note_on_c, 1, 52, 100
3, 166080, Note_off_c, 1, 52, 0
3, 166080, Note_on_c, 1, 47, 100
3, 166272, Note_off_c, 1, 47, 0
3, 166272, Note_on_c, 1, 50, 100
3, 166656, Note_off_c, 1, 50, 0
3, 166656, Note_on_c, 1, 50, 100
3, 166752, Note_off_c, 1, 50, 0
3, 166752, Note_on_c, 1, 43, 100
3, 166848, Note_off_c, 1, 43, 0
3, 166848, Note_on_c, 1, 46, 100
3, 166944, Note_off_c, 1, 46, 0
3, 166944, Note_on_c, 1, 48, 100
3, 167040, Note_off_c, 1, 48, 0
3, 167040, Note_on_c, 1, 49, 100
3, 167232, Note_off_c, 1, 49, 0
3, 167232, Note_on_c, 1, 48, 100
3, 167328, Note_off_c, 1, 48, 0
3, 167424, Note_on_c, 1, 49, 100
3, 167712, Note_off_c, 1, 49, 0
3, 167712, Note_on_c, 1, 49, 100
3, 167808, Note_off_c, 1, 49, 0
3, 167808, Note_on_c, 1, 49, 100
3, 168192, Note_off_c, 1, 49, 0
3, 168288, Note_on_c, 1, 51, 100
3, 168384, Note_off_c, 1, 51, 0
3, 168384, Note_on_c, 1, 51, 100
3, 168480, Note_off_c, 1, 51, 0
3, 168576, Note_on_c, 1, 51, 100
3, 168960, Note_off_c, 1, 51, 0
3, 168960, Note_on_c, 1, 53, 100
3, 169248, Note_off_c, 1, 53, 0
3, 169248, Note_on_c, 1, 53, 100
3, 169344, Note_off_c, 1, 53, 0
3, 169344, Note_on_c, 1, 53, 100
3, 169536, Note_off_c, 1, 53, 0
3, 169536, Note_on_c, 1, 51, 100
3, 169632, Note_off_c, 1, 51, 0
3, 169632, Note_on_c, 1, 53, 100
3, 169728, Note_off_c, 1, 53, 0
3, 169728, Note_on_c, 1, 51, 100
3, 169824, Note_off_c, 1, 51, 0
3, 169824, Note_on_c, 1, 53, 100
3, 169920, Note_off_c, 1, 53, 0
3, 169920, Note_on_c, 1, 54, 100
3, 170016, Note_off_c, 1, 54, 0
3, 170112, Note_on_c, 1, 49, 100
3, 170496, Note_off_c, 1, 49, 0
3, 170592, Note_on_c, 1, 51, 100
3, 170688, Note_off_c, 1, 51, 0
3, 170688, Note_on_c, 1, 51, 100
3, 170784, Note_off_c, 1, 51, 0
3, 170784, Note_on_c, 1, 51, 100
3, 170880, Note_off_c, 1, 51, 0
3, 170880, Note_on_c, 1, 51, 100
3, 170976, Note_off_c, 1, 51, 0
3, 170976, Note_on_c, 1, 49, 100
3, 171072, Note_off_c, 1, 49, 0
3, 171072, Note_on_c, 1, 54, 100
3, 171168, Note_off_c, 1, 54, 0
3, 171264, Note_on_c, 1, 54, 100
3, 171360, Note_off_c, 1, 54, 0
3, 171360, Note_on_c, 1, 52, 100
3, 171456, Note_off_c, 1, 52, 0
3, 171456, Note_on_c, 1, 47, 100
3, 171648, Note_off_c, 1, 47, 0
3, 171648, Note_on_c, 1, 50, 100
3, 172032, Note_off_c, 1, 50, 0
3, 172032, Note_on_c, 1, 50, 100
3, 172128, Note_off_c, 1, 50, 0
3, 172128, Note_on_c, 1, 43, 100
3, 172224, Note_off_c, 1, 43, 0
3, 172224, Note_on_c, 1, 46, 100
3, 172320, Note_off_c, 1, 46, 0
3, 172320, Note_on_c, 1, 48, 100
3, 172416, Note_off_c, 1, 48, 0
3, 172416, Note_on_c, 1, 49, 100
3, 172608, Note_off_c, 1, 49, 0
3, 172608, Note_on_c, 1, 48, 100
3, 172704, Note_off_c, 1, 48, 0
3, 173568, Note_on_c, 1, 50, 100
3, 173664, Note_off_c, 1, 50, 0
3, 173664, Note_on_c, 1, 43, 100
3, 173760, Note_off_c, 1, 43, 0
3, 173760, Note_on_c, 1, 46, 100
3, 173856, Note_off_c, 1, 46, 0
3, 173856, Note_on_c, 1, 48, 100
3, 173952, Note_off_c, 1, 48, 0
3, 173952, Note_on_c, 1, 49, 100
3, 174144, Note_off_c, 1, 49, 0
3, 174144, Note_on_c, 1, 48, 100
3, 174240, Note_off_c, 1, 48, 0
3, 175104, Note_on_c, 1, 50, 100
3, 175200, Note_off_c, 1, 50, 0
3, 175200, Note_on_c, 1, 43, 100
3, 175296, Note_off_c, 1, 43, 0
3, 175296, Note_on_c, 1, 46, 100
3, 175392, Note_off_c, 1, 46, 0
3, 175392, Note_on_c, 1, 48, 100
3, 175488, Note_off_c, 1, 48, 0
3, 175488, Note_on_c, 1, 49, 100
3, 175680, Note_off_c, 1, 49, 0
3, 175680, Note_on_c, 1, 48, 100
3, 175776, Note_off_c, 1, 48, 0
3, 175872, Note_on_c, 1, 49, 120
3, 175872, Note_on_c, 1, 56, 120
3, 177024, Note_off_c, 1, 56, 0
3, 177024, Note_off_c, 1, 49, 0
3, 177024, Note_on_c, 1, 51, 120
3, 177024, Note_on_c, 1, 58, 120
3, 178168, Note_off_c, 1, 58, 0
3, 178168, Note_off_c, 1, 51, 0
3, 178168, Pitch_bend_c, 1, 16256
3, 178171, Pitch_bend_c, 1, 16383
3, 178176, Note_on_c, 1, 51, 120
3, 178176, Note_on_c, 1, 58, 120
3, 179712, Note_on_c, 1, 51, 110
3, 179712, Note_on_c, 1, 58, 110
3, 179835, Pitch_bend_c, 1, 12288
3, 179859, Pitch_bend_c, 1, 8192
3, 179872, Pitch_bend_c, 1, 4352
3, 179888, Pitch_bend_c, 1, 128
3, 179904, Note_off_c, 1, 58, 0
3, 179904, Note_off_c, 1, 51, 0
3, 179904, Note_off_c, 1, 58, 0
3, 179904, Note_off_c, 1, 51, 0
3, 180022, Pitch_bend_c, 1, 8192
3, 180022, End_track
4, 0, Start_track
4, 0, Title_t, "Accoustic Guitar"
4, 0, Channel_prefix, 2
4, 0, Control_c, 2, 7, 80
4, 0, Control_c, 2, 10, 94
4, 0, Program_c, 2, 27
4, 3840, Note_on_c, 2, 65, 100
4, 3843, Note_on_c, 2, 61, 100
4, 3846, Note_on_c, 2, 56, 100
4, 3849, Note_on_c, 2, 49, 100
4, 4032, Note_off_c, 2, 49, 0
4, 4032, Note_off_c, 2, 56, 0
4, 4032, Note_off_c, 2, 61, 0
4, 4032, Note_off_c, 2, 65, 0
4, 4032, Note_on_c, 2, 49, 100
4, 4035, Note_on_c, 2, 56, 100
4, 4038, Note_on_c, 2, 61, 100
4, 4041, Note_on_c, 2, 65, 100
4, 4128, Note_off_c, 2, 65, 0
4, 4128, Note_off_c, 2, 61, 0
4, 4128, Note_off_c, 2, 56, 0
4, 4128, Note_off_c, 2, 49, 0
4, 4128, Note_on_c, 2, 65, 100
4, 4131, Note_on_c, 2, 61, 100
4, 4134, Note_on_c, 2, 56, 100
4, 4137, Note_on_c, 2, 49, 100
4, 4176, Note_off_c, 2, 49, 0
4, 4176, Note_off_c, 2, 56, 0
4, 4176, Note_off_c, 2, 61, 0
4, 4176, Note_off_c, 2, 65, 0
4, 4176, Note_on_c, 2, 49, 100
4, 4179, Note_on_c, 2, 56, 100
4, 4182, Note_on_c, 2, 61, 100
4, 4185, Note_on_c, 2, 65, 100
4, 4224, Note_off_c, 2, 65, 0
4, 4224, Note_off_c, 2, 61, 0
4, 4224, Note_off_c, 2, 56, 0
4, 4224, Note_off_c, 2, 49, 0
4, 4224, Note_on_c, 2, 65, 100
4, 4227, Note_on_c, 2, 61, 100
4, 4230, Note_on_c, 2, 56, 100
4, 4233, Note_on_c, 2, 49, 100
4, 4320, Note_off_c, 2, 49, 0
4, 4320, Note_off_c, 2, 56, 0
4, 4320, Note_off_c, 2, 61, 0
4, 4320, Note_off_c, 2, 65, 0
4, 4320, Note_on_c, 2, 49, 100
4, 4323, Note_on_c, 2, 56, 100
4, 4326, Note_on_c, 2, 61, 100
4, 4329, Note_on_c, 2, 65, 100
4, 4416, Note_off_c, 2, 65, 0
4, 4416, Note_off_c, 2, 61, 0
4, 4416, Note_off_c, 2, 56, 0
4, 4416, Note_off_c, 2, 49, 0
4, 4416, Note_on_c, 2, 65, 100
4, 4419, Note_on_c, 2, 61, 100
4, 4422, Note_on_c, 2, 56, 100
4, 4425, Note_on_c, 2, 49, 100
4, 4608, Note_off_c, 2, 49, 0
4, 4608, Note_off_c, 2, 56, 0
4, 4608, Note_off_c, 2, 61, 0
4, 4608, Note_off_c, 2, 65, 0
4, 4608, Note_on_c, 2, 67, 100
4, 4611, Note_on_c, 2, 63, 100
4, 4614, Note_on_c, 2, 58, 100
4, 4617, Note_on_c, 2, 55, 100
4, 4620, Note_on_c, 2, 51, 100
4, 4800, Note_off_c, 2, 51, 0
4, 4800, Note_off_c, 2, 55, 0
4, 4800, Note_off_c, 2, 58, 0
4, 4800, Note_off_c, 2, 63, 0
4, 4800, Note_off_c, 2, 67, 0
4, 4800, Note_on_c, 2, 51, 100
4, 4803, Note_on_c, 2, 55, 100
4, 4806, Note_on_c, 2, 58, 100
4, 4809, Note_on_c, 2, 63, 100
4, 4812, Note_on_c, 2, 67, 100
4, 4896, Note_off_c, 2, 67, 0
4, 4896, Note_off_c, 2, 63, 0
4, 4896, Note_off_c, 2, 58, 0
4, 4896, Note_off_c, 2, 55, 0
4, 4896, Note_off_c, 2, 51, 0
4, 4896, Note_on_c, 2, 67, 100
4, 4899, Note_on_c, 2, 63, 100
4, 4902, Note_on_c, 2, 58, 100
4, 4905, Note_on_c, 2, 55, 100
4, 4908, Note_on_c, 2, 51, 100
4, 4944, Note_off_c, 2, 51, 0
4, 4944, Note_off_c, 2, 55, 0
4, 4944, Note_off_c, 2, 58, 0
4, 4944, Note_off_c, 2, 63, 0
4, 4944, Note_off_c, 2, 67, 0
4, 4944, Note_on_c, 2, 51, 100
4, 4947, Note_on_c, 2, 55, 100
4, 4948, Note_on_c, 2, 58, 100
4, 4953, Note_on_c, 2, 63, 100
4, 4956, Note_on_c, 2, 67, 100
4, 4992, Note_off_c, 2, 67, 0
4, 4992, Note_off_c, 2, 63, 0
4, 4992, Note_off_c, 2, 58, 0
4, 4992, Note_off_c, 2, 55, 0
4, 4992, Note_off_c, 2, 51, 0
4, 4992, Note_on_c, 2, 67, 100
4, 4995, Note_on_c, 2, 63, 100
4, 4998, Note_on_c, 2, 58, 100
4, 5001, Note_on_c, 2, 55, 100
4, 5004, Note_on_c, 2, 51, 100
4, 5088, Note_off_c, 2, 51, 0
4, 5088, Note_off_c, 2, 55, 0
4, 5088, Note_off_c, 2, 58, 0
4, 5088, Note_off_c, 2, 63, 0
4, 5088, Note_off_c, 2, 67, 0
4, 5088, Note_on_c, 2, 51, 100
4, 5091, Note_on_c, 2, 55, 100
4, 5094, Note_on_c, 2, 58, 100
4, 5097, Note_on_c, 2, 63, 100
4, 5100, Note_on_c, 2, 67, 100
4, 5184, Note_off_c, 2, 67, 0
4, 5184, Note_off_c, 2, 63, 0
4, 5184, Note_off_c, 2, 58, 0
4, 5184, Note_off_c, 2, 55, 0
4, 5184, Note_off_c, 2, 51, 0
4, 5184, Note_on_c, 2, 67, 100
4, 5188, Note_on_c, 2, 63, 100
4, 5190, Note_on_c, 2, 58, 100
4, 5193, Note_on_c, 2, 55, 100
4, 5196, Note_on_c, 2, 51, 100
4, 5280, Note_off_c, 2, 51, 0
4, 5280, Note_off_c, 2, 55, 0
4, 5280, Note_off_c, 2, 58, 0
4, 5280, Note_off_c, 2, 63, 0
4, 5280, Note_off_c, 2, 67, 0
4, 5280, Note_on_c, 2, 51, 100
4, 5283, Note_on_c, 2, 55, 100
4, 5286, Note_on_c, 2, 58, 100
4, 5289, Note_on_c, 2, 63, 100
4, 5292, Note_on_c, 2, 67, 100
4, 5376, Note_off_c, 2, 67, 0
4, 5376, Note_off_c, 2, 63, 0
4, 5376, Note_off_c, 2, 58, 0
4, 5376, Note_off_c, 2, 55, 0
4, 5376, Note_off_c, 2, 51, 0
4, 5376, Note_on_c, 2, 69, 100
4, 5379, Note_on_c, 2, 65, 100
4, 5382, Note_on_c, 2, 60, 100
4, 5385, Note_on_c, 2, 53, 100
4, 5568, Note_off_c, 2, 53, 0
4, 5568, Note_off_c, 2, 60, 0
4, 5568, Note_off_c, 2, 65, 0
4, 5568, Note_off_c, 2, 69, 0
4, 5568, Note_on_c, 2, 53, 100
4, 5571, Note_on_c, 2, 60, 100
4, 5574, Note_on_c, 2, 65, 100
4, 5577, Note_on_c, 2, 69, 100
4, 5664, Note_off_c, 2, 69, 0
4, 5664, Note_off_c, 2, 65, 0
4, 5664, Note_off_c, 2, 60, 0
4, 5664, Note_off_c, 2, 53, 0
4, 5664, Note_on_c, 2, 53, 100
4, 5667, Note_on_c, 2, 60, 100
4, 5670, Note_on_c, 2, 65, 100
4, 5673, Note_on_c, 2, 69, 100
4, 5712, Note_off_c, 2, 69, 0
4, 5712, Note_off_c, 2, 65, 0
4, 5712, Note_off_c, 2, 60, 0
4, 5712, Note_off_c, 2, 53, 0
4, 5712, Note_on_c, 2, 69, 100
4, 5715, Note_on_c, 2, 65, 100
4, 5718, Note_on_c, 2, 60, 100
4, 5721, Note_on_c, 2, 53, 100
4, 5760, Note_off_c, 2, 53, 0
4, 5760, Note_off_c, 2, 60, 0
4, 5760, Note_off_c, 2, 65, 0
4, 5760, Note_off_c, 2, 69, 0
4, 5760, Note_on_c, 2, 53, 100
4, 5760, Note_on_c, 2, 65, 100
4, 5763, Note_on_c, 2, 60, 100
4, 5769, Note_on_c, 2, 69, 100
4, 5856, Note_off_c, 2, 69, 0
4, 5856, Note_off_c, 2, 60, 0
4, 5856, Note_off_c, 2, 65, 0
4, 5856, Note_off_c, 2, 53, 0
4, 5856, Note_on_c, 2, 69, 100
4, 5859, Note_on_c, 2, 65, 100
4, 5862, Note_on_c, 2, 60, 100
4, 5865, Note_on_c, 2, 53, 100
4, 5952, Note_off_c, 2, 53, 0
4, 5952, Note_off_c, 2, 60, 0
4, 5952, Note_off_c, 2, 65, 0
4, 5952, Note_off_c, 2, 69, 0
4, 5952, Note_on_c, 2, 51, 100
4, 5955, Note_on_c, 2, 55, 100
4, 5958, Note_on_c, 2, 58, 100
4, 5961, Note_on_c, 2, 63, 100
4, 5964, Note_on_c, 2, 67, 100
4, 6048, Note_off_c, 2, 67, 0
4, 6048, Note_off_c, 2, 63, 0
4, 6048, Note_off_c, 2, 58, 0
4, 6048, Note_off_c, 2, 55, 0
4, 6048, Note_off_c, 2, 51, 0
4, 6048, Note_on_c, 2, 69, 100
4, 6051, Note_on_c, 2, 65, 100
4, 6054, Note_on_c, 2, 60, 100
4, 6057, Note_on_c, 2, 53, 100
4, 6144, Note_off_c, 2, 53, 0
4, 6144, Note_off_c, 2, 60, 0
4, 6144, Note_off_c, 2, 65, 0
4, 6144, Note_off_c, 2, 69, 0
4, 6144, Note_on_c, 2, 67, 100
4, 6147, Note_on_c, 2, 63, 100
4, 6150, Note_on_c, 2, 58, 100
4, 6153, Note_on_c, 2, 55, 100
4, 6156, Note_on_c, 2, 51, 100
4, 6240, Note_off_c, 2, 51, 0
4, 6240, Note_off_c, 2, 55, 0
4, 6240, Note_off_c, 2, 58, 0
4, 6240, Note_off_c, 2, 63, 0
4, 6240, Note_off_c, 2, 67, 0
4, 6240, Note_on_c, 2, 53, 100
4, 6243, Note_on_c, 2, 60, 100
4, 6246, Note_on_c, 2, 65, 100
4, 6249, Note_on_c, 2, 69, 100
4, 6336, Note_off_c, 2, 69, 0
4, 6336, Note_off_c, 2, 65, 0
4, 6336, Note_off_c, 2, 60, 0
4, 6336, Note_off_c, 2, 53, 0
4, 6336, Note_on_c, 2, 70, 100
4, 6339, Note_on_c, 2, 66, 100
4, 6342, Note_on_c, 2, 61, 100
4, 6345, Note_on_c, 2, 58, 100
4, 6432, Note_off_c, 2, 58, 0
4, 6432, Note_off_c, 2, 61, 0
4, 6432, Note_off_c, 2, 66, 0
4, 6432, Note_off_c, 2, 70, 0
4, 6432, Note_on_c, 2, 58, 100
4, 6435, Note_on_c, 2, 61, 100
4, 6438, Note_on_c, 2, 66, 100
4, 6441, Note_on_c, 2, 70, 100
4, 6480, Note_off_c, 2, 70, 0
4, 6480, Note_off_c, 2, 66, 0
4, 6480, Note_off_c, 2, 61, 0
4, 6480, Note_off_c, 2, 58, 0
4, 6480, Note_on_c, 2, 70, 100
4, 6483, Note_on_c, 2, 66, 100
4, 6486, Note_on_c, 2, 61, 100
4, 6489, Note_on_c, 2, 58, 100
4, 6528, Note_off_c, 2, 58, 0
4, 6528, Note_off_c, 2, 61, 0
4, 6528, Note_off_c, 2, 66, 0
4, 6528, Note_off_c, 2, 70, 0
4, 6528, Note_on_c, 2, 49, 100
4, 6531, Note_on_c, 2, 56, 100
4, 6534, Note_on_c, 2, 61, 100
4, 6537, Note_on_c, 2, 65, 100
4, 6624, Note_off_c, 2, 65, 0
4, 6624, Note_off_c, 2, 61, 0
4, 6624, Note_off_c, 2, 56, 0
4, 6624, Note_off_c, 2, 49, 0
4, 6624, Note_on_c, 2, 65, 100
4, 6627, Note_on_c, 2, 61, 100
4, 6630, Note_on_c, 2, 56, 100
4, 6633, Note_on_c, 2, 49, 100
4, 6720, Note_off_c, 2, 49, 0
4, 6720, Note_off_c, 2, 56, 0
4, 6720, Note_off_c, 2, 61, 0
4, 6720, Note_off_c, 2, 65, 0
4, 6720, Note_on_c, 2, 56, 100
4, 6720, Note_on_c, 2, 49, 100
4, 6726, Note_on_c, 2, 61, 100
4, 6729, Note_on_c, 2, 65, 100
4, 6816, Note_off_c, 2, 65, 0
4, 6816, Note_off_c, 2, 61, 0
4, 6816, Note_off_c, 2, 49, 0
4, 6816, Note_off_c, 2, 56, 0
4, 6816, Note_on_c, 2, 56, 100
4, 6816, Note_on_c, 2, 61, 100
4, 6816, Note_on_c, 2, 65, 100
4, 6820, Note_on_c, 2, 49, 100
4, 6864, Note_off_c, 2, 49, 0
4, 6864, Note_off_c, 2, 65, 0
4, 6864, Note_off_c, 2, 61, 0
4, 6864, Note_off_c, 2, 56, 0
4, 6864, Note_on_c, 2, 49, 100
4, 6867, Note_on_c, 2, 65, 100
4, 6870, Note_on_c, 2, 61, 100
4, 6873, Note_on_c, 2, 56, 100
4, 6912, Note_off_c, 2, 56, 0
4, 6912, Note_off_c, 2, 61, 0
4, 6912, Note_off_c, 2, 65, 0
4, 6912, Note_off_c, 2, 49, 0
4, 6912, Note_on_c, 2, 67, 100
4, 6915, Note_on_c, 2, 63, 100
4, 6918, Note_on_c, 2, 58, 100
4, 6921, Note_on_c, 2, 55, 100
4, 6924, Note_on_c, 2, 51, 100
4, 7008, Note_off_c, 2, 51, 0
4, 7008, Note_off_c, 2, 55, 0
4, 7008, Note_off_c, 2, 58, 0
4, 7008, Note_off_c, 2, 63, 0
4, 7008, Note_off_c, 2, 67, 0
4, 7008, Note_on_c, 2, 51, 100
4, 7012, Note_on_c, 2, 55, 100
4, 7014, Note_on_c, 2, 58, 100
4, 7017, Note_on_c, 2, 63, 100
4, 7020, Note_on_c, 2, 67, 100
4, 7056, Note_off_c, 2, 67, 0
4, 7056, Note_off_c, 2, 63, 0
4, 7056, Note_off_c, 2, 58, 0
4, 7056, Note_off_c, 2, 55, 0
4, 7056, Note_off_c, 2, 51, 0
4, 7056, Note_on_c, 2, 67, 100
4, 7060, Note_on_c, 2, 63, 100
4, 7062, Note_on_c, 2, 58, 100
4, 7065, Note_on_c, 2, 55, 100
4, 7068, Note_on_c, 2, 51, 100
4, 7104, Note_off_c, 2, 51, 0
4, 7104, Note_off_c, 2, 55, 0
4, 7104, Note_off_c, 2, 58, 0
4, 7104, Note_off_c, 2, 63, 0
4, 7104, Note_off_c, 2, 67, 0
4, 7104, Note_on_c, 2, 51, 100
4, 7107, Note_on_c, 2, 55, 100
4, 7110, Note_on_c, 2, 58, 100
4, 7113, Note_on_c, 2, 63, 100
4, 7116, Note_on_c, 2, 67, 100
4, 7200, Note_off_c, 2, 67, 0
4, 7200, Note_off_c, 2, 63, 0
4, 7200, Note_off_c, 2, 58, 0
4, 7200, Note_off_c, 2, 55, 0
4, 7200, Note_off_c, 2, 51, 0
4, 7200, Note_on_c, 2, 67, 100
4, 7203, Note_on_c, 2, 63, 100
4, 7206, Note_on_c, 2, 58, 100
4, 7209, Note_on_c, 2, 55, 100
4, 7212, Note_on_c, 2, 51, 100
4, 7296, Note_off_c, 2, 51, 0
4, 7296, Note_off_c, 2, 55, 0
4, 7296, Note_off_c, 2, 58, 0
4, 7296, Note_off_c, 2, 63, 0
4, 7296, Note_off_c, 2, 67, 0
4, 7296, Note_on_c, 2, 51, 100
4, 7299, Note_on_c, 2, 55, 100
4, 7302, Note_on_c, 2, 58, 100
4, 7305, Note_on_c, 2, 63, 100
4, 7308, Note_on_c, 2, 67, 100
4, 7392, Note_off_c, 2, 67, 0
4, 7392, Note_off_c, 2, 63, 0
4, 7392, Note_off_c, 2, 58, 0
4, 7392, Note_off_c, 2, 55, 0
4, 7392, Note_off_c, 2, 51, 0
4, 7392, Note_on_c, 2, 49, 100
4, 7395, Note_on_c, 2, 56, 100
4, 7398, Note_on_c, 2, 61, 100
4, 7401, Note_on_c, 2, 65, 100
4, 7440, Note_off_c, 2, 65, 0
4, 7440, Note_off_c, 2, 61, 0
4, 7440, Note_off_c, 2, 56, 0
4, 7440, Note_off_c, 2, 49, 0
4, 7440, Note_on_c, 2, 65, 100
4, 7443, Note_on_c, 2, 61, 100
4, 7446, Note_on_c, 2, 56, 100
4, 7449, Note_on_c, 2, 49, 100
4, 7488, Note_off_c, 2, 49, 0
4, 7488, Note_off_c, 2, 56, 0
4, 7488, Note_off_c, 2, 61, 0
4, 7488, Note_off_c, 2, 65, 0
4, 7488, Note_on_c, 2, 58, 100
4, 7491, Note_on_c, 2, 61, 100
4, 7494, Note_on_c, 2, 66, 100
4, 7497, Note_on_c, 2, 70, 100
4, 7680, Note_off_c, 2, 70, 0
4, 7680, Note_off_c, 2, 66, 0
4, 7680, Note_off_c, 2, 61, 0
4, 7680, Note_off_c, 2, 58, 0
4, 7680, Note_on_c, 2, 70, 100
4, 7683, Note_on_c, 2, 66, 100
4, 7686, Note_on_c, 2, 61, 100
4, 7689, Note_on_c, 2, 58, 100
4, 7776, Note_off_c, 2, 58, 0
4, 7776, Note_off_c, 2, 61, 0
4, 7776, Note_off_c, 2, 66, 0
4, 7776, Note_off_c, 2, 70, 0
4, 7776, Note_on_c, 2, 56, 100
4, 7779, Note_on_c, 2, 59, 100
4, 7782, Note_on_c, 2, 64, 100
4, 7785, Note_on_c, 2, 68, 100
4, 7872, Note_off_c, 2, 68, 0
4, 7872, Note_off_c, 2, 64, 0
4, 7872, Note_off_c, 2, 59, 0
4, 7872, Note_off_c, 2, 56, 0
4, 7872, Note_on_c, 2, 54, 100
4, 7875, Note_on_c, 2, 59, 100
4, 7878, Note_on_c, 2, 63, 100
4, 7881, Note_on_c, 2, 66, 100
4, 7968, Note_off_c, 2, 66, 0
4, 7968, Note_off_c, 2, 63, 0
4, 7968, Note_off_c, 2, 59, 0
4, 7968, Note_off_c, 2, 54, 0
4, 7968, Note_on_c, 2, 66, 100
4, 7971, Note_on_c, 2, 63, 100
4, 7974, Note_on_c, 2, 59, 100
4, 7977, Note_on_c, 2, 54, 100
4, 8016, Note_off_c, 2, 54, 0
4, 8016, Note_off_c, 2, 59, 0
4, 8016, Note_off_c, 2, 63, 0
4, 8016, Note_off_c, 2, 66, 0
4, 8016, Note_on_c, 2, 54, 100
4, 8019, Note_on_c, 2, 59, 100
4, 8022, Note_on_c, 2, 63, 100
4, 8025, Note_on_c, 2, 66, 100
4, 8064, Note_off_c, 2, 66, 0
4, 8064, Note_off_c, 2, 63, 0
4, 8064, Note_off_c, 2, 59, 0
4, 8064, Note_off_c, 2, 54, 0
4, 8064, Note_on_c, 2, 66, 100
4, 8067, Note_on_c, 2, 62, 100
4, 8070, Note_on_c, 2, 57, 100
4, 8073, Note_on_c, 2, 50, 100
4, 8160, Note_off_c, 2, 50, 0
4, 8160, Note_off_c, 2, 57, 0
4, 8160, Note_off_c, 2, 62, 0
4, 8160, Note_off_c, 2, 66, 0
4, 8160, Note_on_c, 2, 50, 100
4, 8163, Note_on_c, 2, 57, 100
4, 8166, Note_on_c, 2, 62, 100
4, 8169, Note_on_c, 2, 66, 100
4, 8256, Note_off_c, 2, 66, 0
4, 8256, Note_off_c, 2, 62, 0
4, 8256, Note_off_c, 2, 57, 0
4, 8256, Note_off_c, 2, 50, 0
4, 8256, Note_on_c, 2, 66, 100
4, 8259, Note_on_c, 2, 62, 100
4, 8262, Note_on_c, 2, 57, 100
4, 8265, Note_on_c, 2, 50, 100
4, 8352, Note_off_c, 2, 50, 0
4, 8352, Note_off_c, 2, 57, 0
4, 8352, Note_off_c, 2, 62, 0
4, 8352, Note_off_c, 2, 66, 0
4, 8352, Note_on_c, 2, 50, 100
4, 8355, Note_on_c, 2, 57, 100
4, 8358, Note_on_c, 2, 62, 100
4, 8361, Note_on_c, 2, 66, 100
4, 8448, Note_off_c, 2, 66, 0
4, 8448, Note_off_c, 2, 62, 0
4, 8448, Note_off_c, 2, 57, 0
4, 8448, Note_off_c, 2, 50, 0
4, 8448, Note_on_c, 2, 67, 100
4, 8452, Note_on_c, 2, 62, 100
4, 8457, Note_on_c, 2, 58, 100
4, 8462, Note_on_c, 2, 55, 100
4, 8467, Note_on_c, 2, 50, 100
4, 8472, Note_on_c, 2, 43, 100
4, 8640, Note_off_c, 2, 43, 0
4, 8640, Note_off_c, 2, 50, 0
4, 8640, Note_off_c, 2, 55, 0
4, 8640, Note_off_c, 2, 58, 0
4, 8640, Note_off_c, 2, 62, 0
4, 8640, Note_off_c, 2, 67, 0
4, 9216, Note_on_c, 2, 65, 100
4, 9219, Note_on_c, 2, 61, 100
4, 9222, Note_on_c, 2, 56, 100
4, 9225, Note_on_c, 2, 49, 100
4, 9408, Note_off_c, 2, 49, 0
4, 9408, Note_off_c, 2, 56, 0
4, 9408, Note_off_c, 2, 61, 0
4, 9408, Note_off_c, 2, 65, 0
4, 9408, Note_on_c, 2, 49, 100
4, 9411, Note_on_c, 2, 56, 100
4, 9414, Note_on_c, 2, 61, 100
4, 9417, Note_on_c, 2, 65, 100
4, 9504, Note_off_c, 2, 65, 0
4, 9504, Note_off_c, 2, 61, 0
4, 9504, Note_off_c, 2, 56, 0
4, 9504, Note_off_c, 2, 49, 0
4, 9504, Note_on_c, 2, 65, 100
4, 9507, Note_on_c, 2, 61, 100
4, 9510, Note_on_c, 2, 56, 100
4, 9513, Note_on_c, 2, 49, 100
4, 9552, Note_off_c, 2, 49, 0
4, 9552, Note_off_c, 2, 56, 0
4, 9552, Note_off_c, 2, 61, 0
4, 9552, Note_off_c, 2, 65, 0
4, 9552, Note_on_c, 2, 49, 100
4, 9555, Note_on_c, 2, 56, 100
4, 9558, Note_on_c, 2, 61, 100
4, 9561, Note_on_c, 2, 65, 100
4, 9600, Note_off_c, 2, 65, 0
4, 9600, Note_off_c, 2, 61, 0
4, 9600, Note_off_c, 2, 56, 0
4, 9600, Note_off_c, 2, 49, 0
4, 9600, Note_on_c, 2, 65, 100
4, 9603, Note_on_c, 2, 61, 100
4, 9606, Note_on_c, 2, 56, 100
4, 9609, Note_on_c, 2, 49, 100
4, 9696, Note_off_c, 2, 49, 0
4, 9696, Note_off_c, 2, 56, 0
4, 9696, Note_off_c, 2, 61, 0
4, 9696, Note_off_c, 2, 65, 0
4, 9696, Note_on_c, 2, 49, 100
4, 9699, Note_on_c, 2, 56, 100
4, 9702, Note_on_c, 2, 61, 100
4, 9705, Note_on_c, 2, 65, 100
4, 9792, Note_off_c, 2, 65, 0
4, 9792, Note_off_c, 2, 61, 0
4, 9792, Note_off_c, 2, 56, 0
4, 9792, Note_off_c, 2, 49, 0
4, 9792, Note_on_c, 2, 65, 100
4, 9795, Note_on_c, 2, 61, 100
4, 9798, Note_on_c, 2, 56, 100
4, 9801, Note_on_c, 2, 49, 100
4, 9984, Note_off_c, 2, 49, 0
4, 9984, Note_off_c, 2, 56, 0
4, 9984, Note_off_c, 2, 61, 0
4, 9984, Note_off_c, 2, 65, 0
4, 9984, Note_on_c, 2, 67, 100
4, 9987, Note_on_c, 2, 63, 100
4, 9990, Note_on_c, 2, 58, 100
4, 9993, Note_on_c, 2, 55, 100
4, 9996, Note_on_c, 2, 51, 100
4, 10176, Note_off_c, 2, 51, 0
4, 10176, Note_off_c, 2, 55, 0
4, 10176, Note_off_c, 2, 58, 0
4, 10176, Note_off_c, 2, 63, 0
4, 10176, Note_off_c, 2, 67, 0
4, 10176, Note_on_c, 2, 51, 100
4, 10179, Note_on_c, 2, 55, 100
4, 10182, Note_on_c, 2, 58, 100
4, 10185, Note_on_c, 2, 63, 100
4, 10188, Note_on_c, 2, 67, 100
4, 10272, Note_off_c, 2, 67, 0
4, 10272, Note_off_c, 2, 63, 0
4, 10272, Note_off_c, 2, 58, 0
4, 10272, Note_off_c, 2, 55, 0
4, 10272, Note_off_c, 2, 51, 0
4, 10272, Note_on_c, 2, 67, 100
4, 10275, Note_on_c, 2, 63, 100
4, 10278, Note_on_c, 2, 58, 100
4, 10281, Note_on_c, 2, 55, 100
4, 10284, Note_on_c, 2, 51, 100
4, 10320, Note_off_c, 2, 51, 0
4, 10320, Note_off_c, 2, 55, 0
4, 10320, Note_off_c, 2, 58, 0
4, 10320, Note_off_c, 2, 63, 0
4, 10320, Note_off_c, 2, 67, 0
4, 10320, Note_on_c, 2, 51, 100
4, 10323, Note_on_c, 2, 55, 100
4, 10324, Note_on_c, 2, 58, 100
4, 10329, Note_on_c, 2, 63, 100
4, 10332, Note_on_c, 2, 67, 100
4, 10368, Note_off_c, 2, 67, 0
4, 10368, Note_off_c, 2, 63, 0
4, 10368, Note_off_c, 2, 58, 0
4, 10368, Note_off_c, 2, 55, 0
4, 10368, Note_off_c, 2, 51, 0
4, 10368, Note_on_c, 2, 67, 100
4, 10371, Note_on_c, 2, 63, 100
4, 10374, Note_on_c, 2, 58, 100
4, 10377, Note_on_c, 2, 55, 100
4, 10380, Note_on_c, 2, 51, 100
4, 10464, Note_off_c, 2, 51, 0
4, 10464, Note_off_c, 2, 55, 0
4, 10464, Note_off_c, 2, 58, 0
4, 10464, Note_off_c, 2, 63, 0
4, 10464, Note_off_c, 2, 67, 0
4, 10464, Note_on_c, 2, 51, 100
4, 10467, Note_on_c, 2, 55, 100
4, 10470, Note_on_c, 2, 58, 100
4, 10473, Note_on_c, 2, 63, 100
4, 10476, Note_on_c, 2, 67, 100
4, 10560, Note_off_c, 2, 67, 0
4, 10560, Note_off_c, 2, 63, 0
4, 10560, Note_off_c, 2, 58, 0
4, 10560, Note_off_c, 2, 55, 0
4, 10560, Note_off_c, 2, 51, 0
4, 10560, Note_on_c, 2, 67, 100
4, 10564, Note_on_c, 2, 63, 100
4, 10566, Note_on_c, 2, 58, 100
4, 10569, Note_on_c, 2, 55, 100
4, 10572, Note_on_c, 2, 51, 100
4, 10656, Note_off_c, 2, 51, 0
4, 10656, Note_off_c, 2, 55, 0
4, 10656, Note_off_c, 2, 58, 0
4, 10656, Note_off_c, 2, 63, 0
4, 10656, Note_off_c, 2, 67, 0
4, 10656, Note_on_c, 2, 51, 100
4, 10659, Note_on_c, 2, 55, 100
4, 10662, Note_on_c, 2, 58, 100
4, 10665, Note_on_c, 2, 63, 100
4, 10668, Note_on_c, 2, 67, 100
4, 10752, Note_off_c, 2, 67, 0
4, 10752, Note_off_c, 2, 63, 0
4, 10752, Note_off_c, 2, 58, 0
4, 10752, Note_off_c, 2, 55, 0
4, 10752, Note_off_c, 2, 51, 0
4, 10752, Note_on_c, 2, 69, 100
4, 10755, Note_on_c, 2, 65, 100
4, 10758, Note_on_c, 2, 60, 100
4, 10761, Note_on_c, 2, 53, 100
4, 10944, Note_off_c, 2, 53, 0
4, 10944, Note_off_c, 2, 60, 0
4, 10944, Note_off_c, 2, 65, 0
4, 10944, Note_off_c, 2, 69, 0
4, 10944, Note_on_c, 2, 53, 100
4, 10947, Note_on_c, 2, 60, 100
4, 10950, Note_on_c, 2, 65, 100
4, 10953, Note_on_c, 2, 69, 100
4, 11040, Note_off_c, 2, 69, 0
4, 11040, Note_off_c, 2, 65, 0
4, 11040, Note_off_c, 2, 60, 0
4, 11040, Note_off_c, 2, 53, 0
4, 11040, Note_on_c, 2, 53, 100
4, 11043, Note_on_c, 2, 60, 100
4, 11046, Note_on_c, 2, 65, 100
4, 11049, Note_on_c, 2, 69, 100
4, 11088, Note_off_c, 2, 69, 0
4, 11088, Note_off_c, 2, 65, 0
4, 11088, Note_off_c, 2, 60, 0
4, 11088, Note_off_c, 2, 53, 0
4, 11088, Note_on_c, 2, 69, 100
4, 11091, Note_on_c, 2, 65, 100
4, 11094, Note_on_c, 2, 60, 100
4, 11097, Note_on_c, 2, 53, 100
4, 11136, Note_off_c, 2, 53, 0
4, 11136, Note_off_c, 2, 60, 0
4, 11136, Note_off_c, 2, 65, 0
4, 11136, Note_off_c, 2, 69, 0
4, 11136, Note_on_c, 2, 53, 100
4, 11136, Note_on_c, 2, 65, 100
4, 11139, Note_on_c, 2, 60, 100
4, 11145, Note_on_c, 2, 69, 100
4, 11232, Note_off_c, 2, 69, 0
4, 11232, Note_off_c, 2, 60, 0
4, 11232, Note_off_c, 2, 65, 0
4, 11232, Note_off_c, 2, 53, 0
4, 11232, Note_on_c, 2, 69, 100
4, 11235, Note_on_c, 2, 65, 100
4, 11238, Note_on_c, 2, 60, 100
4, 11241, Note_on_c, 2, 53, 100
4, 11328, Note_off_c, 2, 53, 0
4, 11328, Note_off_c, 2, 60, 0
4, 11328, Note_off_c, 2, 65, 0
4, 11328, Note_off_c, 2, 69, 0
4, 11328, Note_on_c, 2, 51, 100
4, 11331, Note_on_c, 2, 55, 100
4, 11334, Note_on_c, 2, 58, 100
4, 11337, Note_on_c, 2, 63, 100
4, 11340, Note_on_c, 2, 67, 100
4, 11424, Note_off_c, 2, 67, 0
4, 11424, Note_off_c, 2, 63, 0
4, 11424, Note_off_c, 2, 58, 0
4, 11424, Note_off_c, 2, 55, 0
4, 11424, Note_off_c, 2, 51, 0
4, 11424, Note_on_c, 2, 69, 100
4, 11427, Note_on_c, 2, 65, 100
4, 11430, Note_on_c, 2, 60, 100
4, 11433, Note_on_c, 2, 53, 100
4, 11520, Note_off_c, 2, 53, 0
4, 11520, Note_off_c, 2, 60, 0
4, 11520, Note_off_c, 2, 65, 0
4, 11520, Note_off_c, 2, 69, 0
4, 11520, Note_on_c, 2, 67, 100
4, 11523, Note_on_c, 2, 63, 100
4, 11526, Note_on_c, 2, 58, 100
4, 11529, Note_on_c, 2, 55, 100
4, 11532, Note_on_c, 2, 51, 100
4, 11616, Note_off_c, 2, 51, 0
4, 11616, Note_off_c, 2, 55, 0
4, 11616, Note_off_c, 2, 58, 0
4, 11616, Note_off_c, 2, 63, 0
4, 11616, Note_off_c, 2, 67, 0
4, 11616, Note_on_c, 2, 53, 100
4, 11619, Note_on_c, 2, 60, 100
4, 11622, Note_on_c, 2, 65, 100
4, 11625, Note_on_c, 2, 69, 100
4, 11712, Note_off_c, 2, 69, 0
4, 11712, Note_off_c, 2, 65, 0
4, 11712, Note_off_c, 2, 60, 0
4, 11712, Note_off_c, 2, 53, 0
4, 11712, Note_on_c, 2, 70, 100
4, 11715, Note_on_c, 2, 66, 100
4, 11718, Note_on_c, 2, 61, 100
4, 11721, Note_on_c, 2, 58, 100
4, 11808, Note_off_c, 2, 58, 0
4, 11808, Note_off_c, 2, 61, 0
4, 11808, Note_off_c, 2, 66, 0
4, 11808, Note_off_c, 2, 70, 0
4, 11808, Note_on_c, 2, 58, 100
4, 11811, Note_on_c, 2, 61, 100
4, 11814, Note_on_c, 2, 66, 100
4, 11817, Note_on_c, 2, 70, 100
4, 11856, Note_off_c, 2, 70, 0
4, 11856, Note_off_c, 2, 66, 0
4, 11856, Note_off_c, 2, 61, 0
4, 11856, Note_off_c, 2, 58, 0
4, 11856, Note_on_c, 2, 70, 100
4, 11859, Note_on_c, 2, 66, 100
4, 11862, Note_on_c, 2, 61, 100
4, 11865, Note_on_c, 2, 58, 100
4, 11904, Note_off_c, 2, 58, 0
4, 11904, Note_off_c, 2, 61, 0
4, 11904, Note_off_c, 2, 66, 0
4, 11904, Note_off_c, 2, 70, 0
4, 11904, Note_on_c, 2, 49, 100
4, 11907, Note_on_c, 2, 56, 100
4, 11910, Note_on_c, 2, 61, 100
4, 11913, Note_on_c, 2, 65, 100
4, 12000, Note_off_c, 2, 65, 0
4, 12000, Note_off_c, 2, 61, 0
4, 12000, Note_off_c, 2, 56, 0
4, 12000, Note_off_c, 2, 49, 0
4, 12000, Note_on_c, 2, 65, 100
4, 12003, Note_on_c, 2, 61, 100
4, 12006, Note_on_c, 2, 56, 100
4, 12009, Note_on_c, 2, 49, 100
4, 12096, Note_off_c, 2, 49, 0
4, 12096, Note_off_c, 2, 56, 0
4, 12096, Note_off_c, 2, 61, 0
4, 12096, Note_off_c, 2, 65, 0
4, 12096, Note_on_c, 2, 56, 100
4, 12096, Note_on_c, 2, 49, 100
4, 12102, Note_on_c, 2, 61, 100
4, 12105, Note_on_c, 2, 65, 100
4, 12192, Note_off_c, 2, 65, 0
4, 12192, Note_off_c, 2, 61, 0
4, 12192, Note_off_c, 2, 49, 0
4, 12192, Note_off_c, 2, 56, 0
4, 12192, Note_on_c, 2, 56, 100
4, 12192, Note_on_c, 2, 61, 100
4, 12192, Note_on_c, 2, 65, 100
4, 12196, Note_on_c, 2, 49, 100
4, 12240, Note_off_c, 2, 49, 0
4, 12240, Note_off_c, 2, 65, 0
4, 12240, Note_off_c, 2, 61, 0
4, 12240, Note_off_c, 2, 56, 0
4, 12240, Note_on_c, 2, 49, 100
4, 12243, Note_on_c, 2, 65, 100
4, 12246, Note_on_c, 2, 61, 100
4, 12249, Note_on_c, 2, 56, 100
4, 12288, Note_off_c, 2, 56, 0
4, 12288, Note_off_c, 2, 61, 0
4, 12288, Note_off_c, 2, 65, 0
4, 12288, Note_off_c, 2, 49, 0
4, 12288, Note_on_c, 2, 67, 100
4, 12291, Note_on_c, 2, 63, 100
4, 12294, Note_on_c, 2, 58, 100
4, 12297, Note_on_c, 2, 55, 100
4, 12300, Note_on_c, 2, 51, 100
4, 12384, Note_off_c, 2, 51, 0
4, 12384, Note_off_c, 2, 55, 0
4, 12384, Note_off_c, 2, 58, 0
4, 12384, Note_off_c, 2, 63, 0
4, 12384, Note_off_c, 2, 67, 0
4, 12384, Note_on_c, 2, 51, 100
4, 12388, Note_on_c, 2, 55, 100
4, 12390, Note_on_c, 2, 58, 100
4, 12393, Note_on_c, 2, 63, 100
4, 12396, Note_on_c, 2, 67, 100
4, 12432, Note_off_c, 2, 67, 0
4, 12432, Note_off_c, 2, 63, 0
4, 12432, Note_off_c, 2, 58, 0
4, 12432, Note_off_c, 2, 55, 0
4, 12432, Note_off_c, 2, 51, 0
4, 12432, Note_on_c, 2, 67, 100
4, 12436, Note_on_c, 2, 63, 100
4, 12438, Note_on_c, 2, 58, 100
4, 12441, Note_on_c, 2, 55, 100
4, 12444, Note_on_c, 2, 51, 100
4, 12480, Note_off_c, 2, 51, 0
4, 12480, Note_off_c, 2, 55, 0
4, 12480, Note_off_c, 2, 58, 0
4, 12480, Note_off_c, 2, 63, 0
4, 12480, Note_off_c, 2, 67, 0
4, 12480, Note_on_c, 2, 51, 100
4, 12483, Note_on_c, 2, 55, 100
4, 12486, Note_on_c, 2, 58, 100
4, 12489, Note_on_c, 2, 63, 100
4, 12492, Note_on_c, 2, 67, 100
4, 12576, Note_off_c, 2, 67, 0
4, 12576, Note_off_c, 2, 63, 0
4, 12576, Note_off_c, 2, 58, 0
4, 12576, Note_off_c, 2, 55, 0
4, 12576, Note_off_c, 2, 51, 0
4, 12576, Note_on_c, 2, 67, 100
4, 12579, Note_on_c, 2, 63, 100
4, 12582, Note_on_c, 2, 58, 100
4, 12585, Note_on_c, 2, 55, 100
4, 12588, Note_on_c, 2, 51, 100
4, 12672, Note_off_c, 2, 51, 0
4, 12672, Note_off_c, 2, 55, 0
4, 12672, Note_off_c, 2, 58, 0
4, 12672, Note_off_c, 2, 63, 0
4, 12672, Note_off_c, 2, 67, 0
4, 12672, Note_on_c, 2, 51, 100
4, 12675, Note_on_c, 2, 55, 100
4, 12678, Note_on_c, 2, 58, 100
4, 12681, Note_on_c, 2, 63, 100
4, 12684, Note_on_c, 2, 67, 100
4, 12768, Note_off_c, 2, 67, 0
4, 12768, Note_off_c, 2, 63, 0
4, 12768, Note_off_c, 2, 58, 0
4, 12768, Note_off_c, 2, 55, 0
4, 12768, Note_off_c, 2, 51, 0
4, 12768, Note_on_c, 2, 49, 100
4, 12771, Note_on_c, 2, 56, 100
4, 12774, Note_on_c, 2, 61, 100
4, 12777, Note_on_c, 2, 65, 100
4, 12816, Note_off_c, 2, 65, 0
4, 12816, Note_off_c, 2, 61, 0
4, 12816, Note_off_c, 2, 56, 0
4, 12816, Note_off_c, 2, 49, 0
4, 12816, Note_on_c, 2, 65, 100
4, 12819, Note_on_c, 2, 61, 100
4, 12822, Note_on_c, 2, 56, 100
4, 12825, Note_on_c, 2, 49, 100
4, 12864, Note_off_c, 2, 49, 0
4, 12864, Note_off_c, 2, 56, 0
4, 12864, Note_off_c, 2, 61, 0
4, 12864, Note_off_c, 2, 65, 0
4, 12864, Note_on_c, 2, 58, 100
4, 12867, Note_on_c, 2, 61, 100
4, 12870, Note_on_c, 2, 66, 100
4, 12873, Note_on_c, 2, 70, 100
4, 13056, Note_off_c, 2, 70, 0
4, 13056, Note_off_c, 2, 66, 0
4, 13056, Note_off_c, 2, 61, 0
4, 13056, Note_off_c, 2, 58, 0
4, 13056, Note_on_c, 2, 70, 100
4, 13059, Note_on_c, 2, 66, 100
4, 13062, Note_on_c, 2, 61, 100
4, 13065, Note_on_c, 2, 58, 100
4, 13152, Note_off_c, 2, 58, 0
4, 13152, Note_off_c, 2, 61, 0
4, 13152, Note_off_c, 2, 66, 0
4, 13152, Note_off_c, 2, 70, 0
4, 13152, Note_on_c, 2, 56, 100
4, 13155, Note_on_c, 2, 59, 100
4, 13158, Note_on_c, 2, 64, 100
4, 13161, Note_on_c, 2, 68, 100
4, 13248, Note_off_c, 2, 68, 0
4, 13248, Note_off_c, 2, 64, 0
4, 13248, Note_off_c, 2, 59, 0
4, 13248, Note_off_c, 2, 56, 0
4, 13248, Note_on_c, 2, 54, 100
4, 13251, Note_on_c, 2, 59, 100
4, 13254, Note_on_c, 2, 63, 100
4, 13257, Note_on_c, 2, 66, 100
4, 13344, Note_off_c, 2, 66, 0
4, 13344, Note_off_c, 2, 63, 0
4, 13344, Note_off_c, 2, 59, 0
4, 13344, Note_off_c, 2, 54, 0
4, 13344, Note_on_c, 2, 66, 100
4, 13347, Note_on_c, 2, 63, 100
4, 13350, Note_on_c, 2, 59, 100
4, 13353, Note_on_c, 2, 54, 100
4, 13392, Note_off_c, 2, 54, 0
4, 13392, Note_off_c, 2, 59, 0
4, 13392, Note_off_c, 2, 63, 0
4, 13392, Note_off_c, 2, 66, 0
4, 13392, Note_on_c, 2, 54, 100
4, 13395, Note_on_c, 2, 59, 100
4, 13398, Note_on_c, 2, 63, 100
4, 13401, Note_on_c, 2, 66, 100
4, 13440, Note_off_c, 2, 66, 0
4, 13440, Note_off_c, 2, 63, 0
4, 13440, Note_off_c, 2, 59, 0
4, 13440, Note_off_c, 2, 54, 0
4, 13440, Note_on_c, 2, 66, 100
4, 13443, Note_on_c, 2, 62, 100
4, 13446, Note_on_c, 2, 57, 100
4, 13449, Note_on_c, 2, 50, 100
4, 13536, Note_off_c, 2, 50, 0
4, 13536, Note_off_c, 2, 57, 0
4, 13536, Note_off_c, 2, 62, 0
4, 13536, Note_off_c, 2, 66, 0
4, 13536, Note_on_c, 2, 50, 100
4, 13539, Note_on_c, 2, 57, 100
4, 13542, Note_on_c, 2, 62, 100
4, 13545, Note_on_c, 2, 66, 100
4, 13632, Note_off_c, 2, 66, 0
4, 13632, Note_off_c, 2, 62, 0
4, 13632, Note_off_c, 2, 57, 0
4, 13632, Note_off_c, 2, 50, 0
4, 13632, Note_on_c, 2, 66, 100
4, 13635, Note_on_c, 2, 62, 100
4, 13638, Note_on_c, 2, 57, 100
4, 13641, Note_on_c, 2, 50, 100
4, 13728, Note_off_c, 2, 50, 0
4, 13728, Note_off_c, 2, 57, 0
4, 13728, Note_off_c, 2, 62, 0
4, 13728, Note_off_c, 2, 66, 0
4, 13728, Note_on_c, 2, 50, 100
4, 13731, Note_on_c, 2, 57, 100
4, 13734, Note_on_c, 2, 62, 100
4, 13737, Note_on_c, 2, 66, 100
4, 13824, Note_off_c, 2, 66, 0
4, 13824, Note_off_c, 2, 62, 0
4, 13824, Note_off_c, 2, 57, 0
4, 13824, Note_off_c, 2, 50, 0
4, 13824, Note_on_c, 2, 67, 100
4, 13828, Note_on_c, 2, 62, 100
4, 13833, Note_on_c, 2, 58, 100
4, 13838, Note_on_c, 2, 55, 100
4, 13843, Note_on_c, 2, 50, 100
4, 13848, Note_on_c, 2, 43, 100
4, 14016, Note_off_c, 2, 43, 0
4, 14016, Note_off_c, 2, 50, 0
4, 14016, Note_off_c, 2, 55, 0
4, 14016, Note_off_c, 2, 58, 0
4, 14016, Note_off_c, 2, 62, 0
4, 14016, Note_off_c, 2, 67, 0
4, 14592, Note_on_c, 2, 65, 100
4, 14595, Note_on_c, 2, 61, 100
4, 14598, Note_on_c, 2, 56, 100
4, 14601, Note_on_c, 2, 49, 100
4, 14784, Note_off_c, 2, 49, 0
4, 14784, Note_off_c, 2, 56, 0
4, 14784, Note_off_c, 2, 61, 0
4, 14784, Note_off_c, 2, 65, 0
4, 14784, Note_on_c, 2, 49, 100
4, 14787, Note_on_c, 2, 56, 100
4, 14790, Note_on_c, 2, 61, 100
4, 14793, Note_on_c, 2, 65, 100
4, 14880, Note_off_c, 2, 65, 0
4, 14880, Note_off_c, 2, 61, 0
4, 14880, Note_off_c, 2, 56, 0
4, 14880, Note_off_c, 2, 49, 0
4, 14880, Note_on_c, 2, 65, 100
4, 14883, Note_on_c, 2, 61, 100
4, 14886, Note_on_c, 2, 56, 100
4, 14889, Note_on_c, 2, 49, 100
4, 14928, Note_off_c, 2, 49, 0
4, 14928, Note_off_c, 2, 56, 0
4, 14928, Note_off_c, 2, 61, 0
4, 14928, Note_off_c, 2, 65, 0
4, 14928, Note_on_c, 2, 49, 100
4, 14931, Note_on_c, 2, 56, 100
4, 14934, Note_on_c, 2, 61, 100
4, 14937, Note_on_c, 2, 65, 100
4, 14976, Note_off_c, 2, 65, 0
4, 14976, Note_off_c, 2, 61, 0
4, 14976, Note_off_c, 2, 56, 0
4, 14976, Note_off_c, 2, 49, 0
4, 14976, Note_on_c, 2, 65, 100
4, 14979, Note_on_c, 2, 61, 100
4, 14982, Note_on_c, 2, 56, 100
4, 14985, Note_on_c, 2, 49, 100
4, 15072, Note_off_c, 2, 49, 0
4, 15072, Note_off_c, 2, 56, 0
4, 15072, Note_off_c, 2, 61, 0
4, 15072, Note_off_c, 2, 65, 0
4, 15072, Note_on_c, 2, 49, 100
4, 15075, Note_on_c, 2, 56, 100
4, 15078, Note_on_c, 2, 61, 100
4, 15081, Note_on_c, 2, 65, 100
4, 15168, Note_off_c, 2, 65, 0
4, 15168, Note_off_c, 2, 61, 0
4, 15168, Note_off_c, 2, 56, 0
4, 15168, Note_off_c, 2, 49, 0
4, 15168, Note_on_c, 2, 65, 100
4, 15171, Note_on_c, 2, 61, 100
4, 15174, Note_on_c, 2, 56, 100
4, 15177, Note_on_c, 2, 49, 100
4, 15360, Note_off_c, 2, 49, 0
4, 15360, Note_off_c, 2, 56, 0
4, 15360, Note_off_c, 2, 61, 0
4, 15360, Note_off_c, 2, 65, 0
4, 15360, Note_on_c, 2, 67, 100
4, 15363, Note_on_c, 2, 63, 100
4, 15366, Note_on_c, 2, 58, 100
4, 15369, Note_on_c, 2, 55, 100
4, 15372, Note_on_c, 2, 51, 100
4, 15552, Note_off_c, 2, 51, 0
4, 15552, Note_off_c, 2, 55, 0
4, 15552, Note_off_c, 2, 58, 0
4, 15552, Note_off_c, 2, 63, 0
4, 15552, Note_off_c, 2, 67, 0
4, 15552, Note_on_c, 2, 51, 100
4, 15555, Note_on_c, 2, 55, 100
4, 15558, Note_on_c, 2, 58, 100
4, 15561, Note_on_c, 2, 63, 100
4, 15564, Note_on_c, 2, 67, 100
4, 15648, Note_off_c, 2, 67, 0
4, 15648, Note_off_c, 2, 63, 0
4, 15648, Note_off_c, 2, 58, 0
4, 15648, Note_off_c, 2, 55, 0
4, 15648, Note_off_c, 2, 51, 0
4, 15648, Note_on_c, 2, 67, 100
4, 15651, Note_on_c, 2, 63, 100
4, 15654, Note_on_c, 2, 58, 100
4, 15657, Note_on_c, 2, 55, 100
4, 15660, Note_on_c, 2, 51, 100
4, 15696, Note_off_c, 2, 51, 0
4, 15696, Note_off_c, 2, 55, 0
4, 15696, Note_off_c, 2, 58, 0
4, 15696, Note_off_c, 2, 63, 0
4, 15696, Note_off_c, 2, 67, 0
4, 15696, Note_on_c, 2, 51, 100
4, 15699, Note_on_c, 2, 55, 100
4, 15700, Note_on_c, 2, 58, 100
4, 15705, Note_on_c, 2, 63, 100
4, 15708, Note_on_c, 2, 67, 100
4, 15744, Note_off_c, 2, 67, 0
4, 15744, Note_off_c, 2, 63, 0
4, 15744, Note_off_c, 2, 58, 0
4, 15744, Note_off_c, 2, 55, 0
4, 15744, Note_off_c, 2, 51, 0
4, 15744, Note_on_c, 2, 67, 100
4, 15747, Note_on_c, 2, 63, 100
4, 15750, Note_on_c, 2, 58, 100
4, 15753, Note_on_c, 2, 55, 100
4, 15756, Note_on_c, 2, 51, 100
4, 15840, Note_off_c, 2, 51, 0
4, 15840, Note_off_c, 2, 55, 0
4, 15840, Note_off_c, 2, 58, 0
4, 15840, Note_off_c, 2, 63, 0
4, 15840, Note_off_c, 2, 67, 0
4, 15840, Note_on_c, 2, 51, 100
4, 15843, Note_on_c, 2, 55, 100
4, 15846, Note_on_c, 2, 58, 100
4, 15849, Note_on_c, 2, 63, 100
4, 15852, Note_on_c, 2, 67, 100
4, 15936, Note_off_c, 2, 67, 0
4, 15936, Note_off_c, 2, 63, 0
4, 15936, Note_off_c, 2, 58, 0
4, 15936, Note_off_c, 2, 55, 0
4, 15936, Note_off_c, 2, 51, 0
4, 15936, Note_on_c, 2, 67, 100
4, 15940, Note_on_c, 2, 63, 100
4, 15942, Note_on_c, 2, 58, 100
4, 15945, Note_on_c, 2, 55, 100
4, 15948, Note_on_c, 2, 51, 100
4, 16032, Note_off_c, 2, 51, 0
4, 16032, Note_off_c, 2, 55, 0
4, 16032, Note_off_c, 2, 58, 0
4, 16032, Note_off_c, 2, 63, 0
4, 16032, Note_off_c, 2, 67, 0
4, 16032, Note_on_c, 2, 51, 100
4, 16035, Note_on_c, 2, 55, 100
4, 16038, Note_on_c, 2, 58, 100
4, 16041, Note_on_c, 2, 63, 100
4, 16044, Note_on_c, 2, 67, 100
4, 16128, Note_off_c, 2, 67, 0
4, 16128, Note_off_c, 2, 63, 0
4, 16128, Note_off_c, 2, 58, 0
4, 16128, Note_off_c, 2, 55, 0
4, 16128, Note_off_c, 2, 51, 0
4, 16128, Note_on_c, 2, 69, 100
4, 16131, Note_on_c, 2, 65, 100
4, 16134, Note_on_c, 2, 60, 100
4, 16137, Note_on_c, 2, 53, 100
4, 16320, Note_off_c, 2, 53, 0
4, 16320, Note_off_c, 2, 60, 0
4, 16320, Note_off_c, 2, 65, 0
4, 16320, Note_off_c, 2, 69, 0
4, 16320, Note_on_c, 2, 53, 100
4, 16323, Note_on_c, 2, 60, 100
4, 16326, Note_on_c, 2, 65, 100
4, 16329, Note_on_c, 2, 69, 100
4, 16416, Note_off_c, 2, 69, 0
4, 16416, Note_off_c, 2, 65, 0
4, 16416, Note_off_c, 2, 60, 0
4, 16416, Note_off_c, 2, 53, 0
4, 16416, Note_on_c, 2, 53, 100
4, 16419, Note_on_c, 2, 60, 100
4, 16422, Note_on_c, 2, 65, 100
4, 16425, Note_on_c, 2, 69, 100
4, 16464, Note_off_c, 2, 69, 0
4, 16464, Note_off_c, 2, 65, 0
4, 16464, Note_off_c, 2, 60, 0
4, 16464, Note_off_c, 2, 53, 0
4, 16464, Note_on_c, 2, 69, 100
4, 16467, Note_on_c, 2, 65, 100
4, 16470, Note_on_c, 2, 60, 100
4, 16473, Note_on_c, 2, 53, 100
4, 16512, Note_off_c, 2, 53, 0
4, 16512, Note_off_c, 2, 60, 0
4, 16512, Note_off_c, 2, 65, 0
4, 16512, Note_off_c, 2, 69, 0
4, 16512, Note_on_c, 2, 53, 100
4, 16512, Note_on_c, 2, 65, 100
4, 16515, Note_on_c, 2, 60, 100
4, 16521, Note_on_c, 2, 69, 100
4, 16608, Note_off_c, 2, 69, 0
4, 16608, Note_off_c, 2, 60, 0
4, 16608, Note_off_c, 2, 65, 0
4, 16608, Note_off_c, 2, 53, 0
4, 16608, Note_on_c, 2, 69, 100
4, 16611, Note_on_c, 2, 65, 100
4, 16614, Note_on_c, 2, 60, 100
4, 16617, Note_on_c, 2, 53, 100
4, 16704, Note_off_c, 2, 53, 0
4, 16704, Note_off_c, 2, 60, 0
4, 16704, Note_off_c, 2, 65, 0
4, 16704, Note_off_c, 2, 69, 0
4, 16704, Note_on_c, 2, 51, 100
4, 16707, Note_on_c, 2, 55, 100
4, 16710, Note_on_c, 2, 58, 100
4, 16713, Note_on_c, 2, 63, 100
4, 16716, Note_on_c, 2, 67, 100
4, 16800, Note_off_c, 2, 67, 0
4, 16800, Note_off_c, 2, 63, 0
4, 16800, Note_off_c, 2, 58, 0
4, 16800, Note_off_c, 2, 55, 0
4, 16800, Note_off_c, 2, 51, 0
4, 16800, Note_on_c, 2, 69, 100
4, 16803, Note_on_c, 2, 65, 100
4, 16806, Note_on_c, 2, 60, 100
4, 16809, Note_on_c, 2, 53, 100
4, 16896, Note_off_c, 2, 53, 0
4, 16896, Note_off_c, 2, 60, 0
4, 16896, Note_off_c, 2, 65, 0
4, 16896, Note_off_c, 2, 69, 0
4, 16896, Note_on_c, 2, 67, 100
4, 16899, Note_on_c, 2, 63, 100
4, 16902, Note_on_c, 2, 58, 100
4, 16905, Note_on_c, 2, 55, 100
4, 16908, Note_on_c, 2, 51, 100
4, 16992, Note_off_c, 2, 51, 0
4, 16992, Note_off_c, 2, 55, 0
4, 16992, Note_off_c, 2, 58, 0
4, 16992, Note_off_c, 2, 63, 0
4, 16992, Note_off_c, 2, 67, 0
4, 16992, Note_on_c, 2, 53, 100
4, 16995, Note_on_c, 2, 60, 100
4, 16998, Note_on_c, 2, 65, 100
4, 17001, Note_on_c, 2, 69, 100
4, 17088, Note_off_c, 2, 69, 0
4, 17088, Note_off_c, 2, 65, 0
4, 17088, Note_off_c, 2, 60, 0
4, 17088, Note_off_c, 2, 53, 0
4, 17088, Note_on_c, 2, 70, 100
4, 17091, Note_on_c, 2, 66, 100
4, 17094, Note_on_c, 2, 61, 100
4, 17097, Note_on_c, 2, 58, 100
4, 17184, Note_off_c, 2, 58, 0
4, 17184, Note_off_c, 2, 61, 0
4, 17184, Note_off_c, 2, 66, 0
4, 17184, Note_off_c, 2, 70, 0
4, 17184, Note_on_c, 2, 58, 100
4, 17187, Note_on_c, 2, 61, 100
4, 17190, Note_on_c, 2, 66, 100
4, 17193, Note_on_c, 2, 70, 100
4, 17232, Note_off_c, 2, 70, 0
4, 17232, Note_off_c, 2, 66, 0
4, 17232, Note_off_c, 2, 61, 0
4, 17232, Note_off_c, 2, 58, 0
4, 17232, Note_on_c, 2, 70, 100
4, 17235, Note_on_c, 2, 66, 100
4, 17238, Note_on_c, 2, 61, 100
4, 17241, Note_on_c, 2, 58, 100
4, 17280, Note_off_c, 2, 58, 0
4, 17280, Note_off_c, 2, 61, 0
4, 17280, Note_off_c, 2, 66, 0
4, 17280, Note_off_c, 2, 70, 0
4, 17280, Note_on_c, 2, 49, 100
4, 17283, Note_on_c, 2, 56, 100
4, 17286, Note_on_c, 2, 61, 100
4, 17289, Note_on_c, 2, 65, 100
4, 17376, Note_off_c, 2, 65, 0
4, 17376, Note_off_c, 2, 61, 0
4, 17376, Note_off_c, 2, 56, 0
4, 17376, Note_off_c, 2, 49, 0
4, 17376, Note_on_c, 2, 65, 100
4, 17379, Note_on_c, 2, 61, 100
4, 17382, Note_on_c, 2, 56, 100
4, 17385, Note_on_c, 2, 49, 100
4, 17472, Note_off_c, 2, 49, 0
4, 17472, Note_off_c, 2, 56, 0
4, 17472, Note_off_c, 2, 61, 0
4, 17472, Note_off_c, 2, 65, 0
4, 17472, Note_on_c, 2, 56, 100
4, 17472, Note_on_c, 2, 49, 100
4, 17478, Note_on_c, 2, 61, 100
4, 17481, Note_on_c, 2, 65, 100
4, 17568, Note_off_c, 2, 65, 0
4, 17568, Note_off_c, 2, 61, 0
4, 17568, Note_off_c, 2, 49, 0
4, 17568, Note_off_c, 2, 56, 0
4, 17568, Note_on_c, 2, 56, 100
4, 17568, Note_on_c, 2, 61, 100
4, 17568, Note_on_c, 2, 65, 100
4, 17572, Note_on_c, 2, 49, 100
4, 17616, Note_off_c, 2, 49, 0
4, 17616, Note_off_c, 2, 65, 0
4, 17616, Note_off_c, 2, 61, 0
4, 17616, Note_off_c, 2, 56, 0
4, 17616, Note_on_c, 2, 49, 100
4, 17619, Note_on_c, 2, 65, 100
4, 17622, Note_on_c, 2, 61, 100
4, 17625, Note_on_c, 2, 56, 100
4, 17664, Note_off_c, 2, 56, 0
4, 17664, Note_off_c, 2, 61, 0
4, 17664, Note_off_c, 2, 65, 0
4, 17664, Note_off_c, 2, 49, 0
4, 17664, Note_on_c, 2, 67, 100
4, 17667, Note_on_c, 2, 63, 100
4, 17670, Note_on_c, 2, 58, 100
4, 17673, Note_on_c, 2, 55, 100
4, 17676, Note_on_c, 2, 51, 100
4, 17760, Note_off_c, 2, 51, 0
4, 17760, Note_off_c, 2, 55, 0
4, 17760, Note_off_c, 2, 58, 0
4, 17760, Note_off_c, 2, 63, 0
4, 17760, Note_off_c, 2, 67, 0
4, 17760, Note_on_c, 2, 51, 100
4, 17764, Note_on_c, 2, 55, 100
4, 17766, Note_on_c, 2, 58, 100
4, 17769, Note_on_c, 2, 63, 100
4, 17772, Note_on_c, 2, 67, 100
4, 17808, Note_off_c, 2, 67, 0
4, 17808, Note_off_c, 2, 63, 0
4, 17808, Note_off_c, 2, 58, 0
4, 17808, Note_off_c, 2, 55, 0
4, 17808, Note_off_c, 2, 51, 0
4, 17808, Note_on_c, 2, 67, 100
4, 17812, Note_on_c, 2, 63, 100
4, 17814, Note_on_c, 2, 58, 100
4, 17817, Note_on_c, 2, 55, 100
4, 17820, Note_on_c, 2, 51, 100
4, 17856, Note_off_c, 2, 51, 0
4, 17856, Note_off_c, 2, 55, 0
4, 17856, Note_off_c, 2, 58, 0
4, 17856, Note_off_c, 2, 63, 0
4, 17856, Note_off_c, 2, 67, 0
4, 17856, Note_on_c, 2, 51, 100
4, 17859, Note_on_c, 2, 55, 100
4, 17862, Note_on_c, 2, 58, 100
4, 17865, Note_on_c, 2, 63, 100
4, 17868, Note_on_c, 2, 67, 100
4, 17952, Note_off_c, 2, 67, 0
4, 17952, Note_off_c, 2, 63, 0
4, 17952, Note_off_c, 2, 58, 0
4, 17952, Note_off_c, 2, 55, 0
4, 17952, Note_off_c, 2, 51, 0
4, 17952, Note_on_c, 2, 67, 100
4, 17955, Note_on_c, 2, 63, 100
4, 17958, Note_on_c, 2, 58, 100
4, 17961, Note_on_c, 2, 55, 100
4, 17964, Note_on_c, 2, 51, 100
4, 18048, Note_off_c, 2, 51, 0
4, 18048, Note_off_c, 2, 55, 0
4, 18048, Note_off_c, 2, 58, 0
4, 18048, Note_off_c, 2, 63, 0
4, 18048, Note_off_c, 2, 67, 0
4, 18048, Note_on_c, 2, 51, 100
4, 18051, Note_on_c, 2, 55, 100
4, 18054, Note_on_c, 2, 58, 100
4, 18057, Note_on_c, 2, 63, 100
4, 18060, Note_on_c, 2, 67, 100
4, 18144, Note_off_c, 2, 67, 0
4, 18144, Note_off_c, 2, 63, 0
4, 18144, Note_off_c, 2, 58, 0
4, 18144, Note_off_c, 2, 55, 0
4, 18144, Note_off_c, 2, 51, 0
4, 18144, Note_on_c, 2, 49, 100
4, 18147, Note_on_c, 2, 56, 100
4, 18150, Note_on_c, 2, 61, 100
4, 18153, Note_on_c, 2, 65, 100
4, 18192, Note_off_c, 2, 65, 0
4, 18192, Note_off_c, 2, 61, 0
4, 18192, Note_off_c, 2, 56, 0
4, 18192, Note_off_c, 2, 49, 0
4, 18192, Note_on_c, 2, 65, 100
4, 18195, Note_on_c, 2, 61, 100
4, 18198, Note_on_c, 2, 56, 100
4, 18201, Note_on_c, 2, 49, 100
4, 18240, Note_off_c, 2, 49, 0
4, 18240, Note_off_c, 2, 56, 0
4, 18240, Note_off_c, 2, 61, 0
4, 18240, Note_off_c, 2, 65, 0
4, 18240, Note_on_c, 2, 58, 100
4, 18243, Note_on_c, 2, 61, 100
4, 18246, Note_on_c, 2, 66, 100
4, 18249, Note_on_c, 2, 70, 100
4, 18432, Note_off_c, 2, 70, 0
4, 18432, Note_off_c, 2, 66, 0
4, 18432, Note_off_c, 2, 61, 0
4, 18432, Note_off_c, 2, 58, 0
4, 18432, Note_on_c, 2, 70, 100
4, 18435, Note_on_c, 2, 66, 100
4, 18438, Note_on_c, 2, 61, 100
4, 18441, Note_on_c, 2, 58, 100
4, 18528, Note_off_c, 2, 58, 0
4, 18528, Note_off_c, 2, 61, 0
4, 18528, Note_off_c, 2, 66, 0
4, 18528, Note_off_c, 2, 70, 0
4, 18528, Note_on_c, 2, 56, 100
4, 18531, Note_on_c, 2, 59, 100
4, 18534, Note_on_c, 2, 64, 100
4, 18537, Note_on_c, 2, 68, 100
4, 18624, Note_off_c, 2, 68, 0
4, 18624, Note_off_c, 2, 64, 0
4, 18624, Note_off_c, 2, 59, 0
4, 18624, Note_off_c, 2, 56, 0
4, 18624, Note_on_c, 2, 54, 100
4, 18627, Note_on_c, 2, 59, 100
4, 18630, Note_on_c, 2, 63, 100
4, 18633, Note_on_c, 2, 66, 100
4, 18720, Note_off_c, 2, 66, 0
4, 18720, Note_off_c, 2, 63, 0
4, 18720, Note_off_c, 2, 59, 0
4, 18720, Note_off_c, 2, 54, 0
4, 18720, Note_on_c, 2, 66, 100
4, 18723, Note_on_c, 2, 63, 100
4, 18726, Note_on_c, 2, 59, 100
4, 18729, Note_on_c, 2, 54, 100
4, 18768, Note_off_c, 2, 54, 0
4, 18768, Note_off_c, 2, 59, 0
4, 18768, Note_off_c, 2, 63, 0
4, 18768, Note_off_c, 2, 66, 0
4, 18768, Note_on_c, 2, 54, 100
4, 18771, Note_on_c, 2, 59, 100
4, 18774, Note_on_c, 2, 63, 100
4, 18777, Note_on_c, 2, 66, 100
4, 18816, Note_off_c, 2, 66, 0
4, 18816, Note_off_c, 2, 63, 0
4, 18816, Note_off_c, 2, 59, 0
4, 18816, Note_off_c, 2, 54, 0
4, 18816, Note_on_c, 2, 66, 100
4, 18819, Note_on_c, 2, 62, 100
4, 18822, Note_on_c, 2, 57, 100
4, 18825, Note_on_c, 2, 50, 100
4, 18912, Note_off_c, 2, 50, 0
4, 18912, Note_off_c, 2, 57, 0
4, 18912, Note_off_c, 2, 62, 0
4, 18912, Note_off_c, 2, 66, 0
4, 18912, Note_on_c, 2, 50, 100
4, 18915, Note_on_c, 2, 57, 100
4, 18918, Note_on_c, 2, 62, 100
4, 18921, Note_on_c, 2, 66, 100
4, 19008, Note_off_c, 2, 66, 0
4, 19008, Note_off_c, 2, 62, 0
4, 19008, Note_off_c, 2, 57, 0
4, 19008, Note_off_c, 2, 50, 0
4, 19008, Note_on_c, 2, 66, 100
4, 19011, Note_on_c, 2, 62, 100
4, 19014, Note_on_c, 2, 57, 100
4, 19017, Note_on_c, 2, 50, 100
4, 19104, Note_off_c, 2, 50, 0
4, 19104, Note_off_c, 2, 57, 0
4, 19104, Note_off_c, 2, 62, 0
4, 19104, Note_off_c, 2, 66, 0
4, 19104, Note_on_c, 2, 50, 100
4, 19107, Note_on_c, 2, 57, 100
4, 19110, Note_on_c, 2, 62, 100
4, 19113, Note_on_c, 2, 66, 100
4, 19200, Note_off_c, 2, 66, 0
4, 19200, Note_off_c, 2, 62, 0
4, 19200, Note_off_c, 2, 57, 0
4, 19200, Note_off_c, 2, 50, 0
4, 19200, Note_on_c, 2, 67, 100
4, 19204, Note_on_c, 2, 62, 100
4, 19209, Note_on_c, 2, 58, 100
4, 19214, Note_on_c, 2, 55, 100
4, 19219, Note_on_c, 2, 50, 100
4, 19224, Note_on_c, 2, 43, 100
4, 19392, Note_off_c, 2, 43, 0
4, 19392, Note_off_c, 2, 50, 0
4, 19392, Note_off_c, 2, 55, 0
4, 19392, Note_off_c, 2, 58, 0
4, 19392, Note_off_c, 2, 62, 0
4, 19392, Note_off_c, 2, 67, 0
4, 19968, Note_on_c, 2, 65, 100
4, 19971, Note_on_c, 2, 61, 100
4, 19974, Note_on_c, 2, 56, 100
4, 19977, Note_on_c, 2, 49, 100
4, 20160, Note_off_c, 2, 49, 0
4, 20160, Note_off_c, 2, 56, 0
4, 20160, Note_off_c, 2, 61, 0
4, 20160, Note_off_c, 2, 65, 0
4, 20160, Note_on_c, 2, 49, 100
4, 20163, Note_on_c, 2, 56, 100
4, 20166, Note_on_c, 2, 61, 100
4, 20169, Note_on_c, 2, 65, 100
4, 20256, Note_off_c, 2, 65, 0
4, 20256, Note_off_c, 2, 61, 0
4, 20256, Note_off_c, 2, 56, 0
4, 20256, Note_off_c, 2, 49, 0
4, 20256, Note_on_c, 2, 65, 100
4, 20259, Note_on_c, 2, 61, 100
4, 20262, Note_on_c, 2, 56, 100
4, 20265, Note_on_c, 2, 49, 100
4, 20304, Note_off_c, 2, 49, 0
4, 20304, Note_off_c, 2, 56, 0
4, 20304, Note_off_c, 2, 61, 0
4, 20304, Note_off_c, 2, 65, 0
4, 20304, Note_on_c, 2, 49, 100
4, 20307, Note_on_c, 2, 56, 100
4, 20310, Note_on_c, 2, 61, 100
4, 20313, Note_on_c, 2, 65, 100
4, 20352, Note_off_c, 2, 65, 0
4, 20352, Note_off_c, 2, 61, 0
4, 20352, Note_off_c, 2, 56, 0
4, 20352, Note_off_c, 2, 49, 0
4, 20352, Note_on_c, 2, 65, 100
4, 20355, Note_on_c, 2, 61, 100
4, 20358, Note_on_c, 2, 56, 100
4, 20361, Note_on_c, 2, 49, 100
4, 20448, Note_off_c, 2, 49, 0
4, 20448, Note_off_c, 2, 56, 0
4, 20448, Note_off_c, 2, 61, 0
4, 20448, Note_off_c, 2, 65, 0
4, 20448, Note_on_c, 2, 49, 100
4, 20451, Note_on_c, 2, 56, 100
4, 20454, Note_on_c, 2, 61, 100
4, 20457, Note_on_c, 2, 65, 100
4, 20544, Note_off_c, 2, 65, 0
4, 20544, Note_off_c, 2, 61, 0
4, 20544, Note_off_c, 2, 56, 0
4, 20544, Note_off_c, 2, 49, 0
4, 20544, Note_on_c, 2, 65, 100
4, 20547, Note_on_c, 2, 61, 100
4, 20550, Note_on_c, 2, 56, 100
4, 20553, Note_on_c, 2, 49, 100
4, 20736, Note_off_c, 2, 49, 0
4, 20736, Note_off_c, 2, 56, 0
4, 20736, Note_off_c, 2, 61, 0
4, 20736, Note_off_c, 2, 65, 0
4, 20736, Note_on_c, 2, 67, 100
4, 20739, Note_on_c, 2, 63, 100
4, 20742, Note_on_c, 2, 58, 100
4, 20745, Note_on_c, 2, 55, 100
4, 20748, Note_on_c, 2, 51, 100
4, 20928, Note_off_c, 2, 51, 0
4, 20928, Note_off_c, 2, 55, 0
4, 20928, Note_off_c, 2, 58, 0
4, 20928, Note_off_c, 2, 63, 0
4, 20928, Note_off_c, 2, 67, 0
4, 20928, Note_on_c, 2, 51, 100
4, 20931, Note_on_c, 2, 55, 100
4, 20934, Note_on_c, 2, 58, 100
4, 20937, Note_on_c, 2, 63, 100
4, 20940, Note_on_c, 2, 67, 100
4, 21024, Note_off_c, 2, 67, 0
4, 21024, Note_off_c, 2, 63, 0
4, 21024, Note_off_c, 2, 58, 0
4, 21024, Note_off_c, 2, 55, 0
4, 21024, Note_off_c, 2, 51, 0
4, 21024, Note_on_c, 2, 67, 100
4, 21027, Note_on_c, 2, 63, 100
4, 21030, Note_on_c, 2, 58, 100
4, 21033, Note_on_c, 2, 55, 100
4, 21036, Note_on_c, 2, 51, 100
4, 21072, Note_off_c, 2, 51, 0
4, 21072, Note_off_c, 2, 55, 0
4, 21072, Note_off_c, 2, 58, 0
4, 21072, Note_off_c, 2, 63, 0
4, 21072, Note_off_c, 2, 67, 0
4, 21072, Note_on_c, 2, 51, 100
4, 21075, Note_on_c, 2, 55, 100
4, 21076, Note_on_c, 2, 58, 100
4, 21081, Note_on_c, 2, 63, 100
4, 21084, Note_on_c, 2, 67, 100
4, 21120, Note_off_c, 2, 67, 0
4, 21120, Note_off_c, 2, 63, 0
4, 21120, Note_off_c, 2, 58, 0
4, 21120, Note_off_c, 2, 55, 0
4, 21120, Note_off_c, 2, 51, 0
4, 21120, Note_on_c, 2, 67, 100
4, 21123, Note_on_c, 2, 63, 100
4, 21126, Note_on_c, 2, 58, 100
4, 21129, Note_on_c, 2, 55, 100
4, 21132, Note_on_c, 2, 51, 100
4, 21216, Note_off_c, 2, 51, 0
4, 21216, Note_off_c, 2, 55, 0
4, 21216, Note_off_c, 2, 58, 0
4, 21216, Note_off_c, 2, 63, 0
4, 21216, Note_off_c, 2, 67, 0
4, 21216, Note_on_c, 2, 51, 100
4, 21219, Note_on_c, 2, 55, 100
4, 21222, Note_on_c, 2, 58, 100
4, 21225, Note_on_c, 2, 63, 100
4, 21228, Note_on_c, 2, 67, 100
4, 21312, Note_off_c, 2, 67, 0
4, 21312, Note_off_c, 2, 63, 0
4, 21312, Note_off_c, 2, 58, 0
4, 21312, Note_off_c, 2, 55, 0
4, 21312, Note_off_c, 2, 51, 0
4, 21312, Note_on_c, 2, 67, 100
4, 21316, Note_on_c, 2, 63, 100
4, 21318, Note_on_c, 2, 58, 100
4, 21321, Note_on_c, 2, 55, 100
4, 21324, Note_on_c, 2, 51, 100
4, 21408, Note_off_c, 2, 51, 0
4, 21408, Note_off_c, 2, 55, 0
4, 21408, Note_off_c, 2, 58, 0
4, 21408, Note_off_c, 2, 63, 0
4, 21408, Note_off_c, 2, 67, 0
4, 21408, Note_on_c, 2, 51, 100
4, 21411, Note_on_c, 2, 55, 100
4, 21414, Note_on_c, 2, 58, 100
4, 21417, Note_on_c, 2, 63, 100
4, 21420, Note_on_c, 2, 67, 100
4, 21504, Note_off_c, 2, 67, 0
4, 21504, Note_off_c, 2, 63, 0
4, 21504, Note_off_c, 2, 58, 0
4, 21504, Note_off_c, 2, 55, 0
4, 21504, Note_off_c, 2, 51, 0
4, 21504, Note_on_c, 2, 69, 100
4, 21507, Note_on_c, 2, 65, 100
4, 21510, Note_on_c, 2, 60, 100
4, 21513, Note_on_c, 2, 53, 100
4, 21696, Note_off_c, 2, 53, 0
4, 21696, Note_off_c, 2, 60, 0
4, 21696, Note_off_c, 2, 65, 0
4, 21696, Note_off_c, 2, 69, 0
4, 21696, Note_on_c, 2, 53, 100
4, 21699, Note_on_c, 2, 60, 100
4, 21702, Note_on_c, 2, 65, 100
4, 21705, Note_on_c, 2, 69, 100
4, 21792, Note_off_c, 2, 69, 0
4, 21792, Note_off_c, 2, 65, 0
4, 21792, Note_off_c, 2, 60, 0
4, 21792, Note_off_c, 2, 53, 0
4, 21792, Note_on_c, 2, 53, 100
4, 21795, Note_on_c, 2, 60, 100
4, 21798, Note_on_c, 2, 65, 100
4, 21801, Note_on_c, 2, 69, 100
4, 21840, Note_off_c, 2, 69, 0
4, 21840, Note_off_c, 2, 65, 0
4, 21840, Note_off_c, 2, 60, 0
4, 21840, Note_off_c, 2, 53, 0
4, 21840, Note_on_c, 2, 69, 100
4, 21843, Note_on_c, 2, 65, 100
4, 21846, Note_on_c, 2, 60, 100
4, 21849, Note_on_c, 2, 53, 100
4, 21888, Note_off_c, 2, 53, 0
4, 21888, Note_off_c, 2, 60, 0
4, 21888, Note_off_c, 2, 65, 0
4, 21888, Note_off_c, 2, 69, 0
4, 21888, Note_on_c, 2, 53, 100
4, 21888, Note_on_c, 2, 65, 100
4, 21891, Note_on_c, 2, 60, 100
4, 21897, Note_on_c, 2, 69, 100
4, 21984, Note_off_c, 2, 69, 0
4, 21984, Note_off_c, 2, 60, 0
4, 21984, Note_off_c, 2, 65, 0
4, 21984, Note_off_c, 2, 53, 0
4, 21984, Note_on_c, 2, 69, 100
4, 21987, Note_on_c, 2, 65, 100
4, 21990, Note_on_c, 2, 60, 100
4, 21993, Note_on_c, 2, 53, 100
4, 22080, Note_off_c, 2, 53, 0
4, 22080, Note_off_c, 2, 60, 0
4, 22080, Note_off_c, 2, 65, 0
4, 22080, Note_off_c, 2, 69, 0
4, 22080, Note_on_c, 2, 51, 100
4, 22083, Note_on_c, 2, 55, 100
4, 22086, Note_on_c, 2, 58, 100
4, 22089, Note_on_c, 2, 63, 100
4, 22092, Note_on_c, 2, 67, 100
4, 22176, Note_off_c, 2, 67, 0
4, 22176, Note_off_c, 2, 63, 0
4, 22176, Note_off_c, 2, 58, 0
4, 22176, Note_off_c, 2, 55, 0
4, 22176, Note_off_c, 2, 51, 0
4, 22176, Note_on_c, 2, 69, 100
4, 22179, Note_on_c, 2, 65, 100
4, 22182, Note_on_c, 2, 60, 100
4, 22185, Note_on_c, 2, 53, 100
4, 22272, Note_off_c, 2, 53, 0
4, 22272, Note_off_c, 2, 60, 0
4, 22272, Note_off_c, 2, 65, 0
4, 22272, Note_off_c, 2, 69, 0
4, 22272, Note_on_c, 2, 67, 100
4, 22275, Note_on_c, 2, 63, 100
4, 22278, Note_on_c, 2, 58, 100
4, 22281, Note_on_c, 2, 55, 100
4, 22284, Note_on_c, 2, 51, 100
4, 22368, Note_off_c, 2, 51, 0
4, 22368, Note_off_c, 2, 55, 0
4, 22368, Note_off_c, 2, 58, 0
4, 22368, Note_off_c, 2, 63, 0
4, 22368, Note_off_c, 2, 67, 0
4, 22368, Note_on_c, 2, 53, 100
4, 22371, Note_on_c, 2, 60, 100
4, 22374, Note_on_c, 2, 65, 100
4, 22377, Note_on_c, 2, 69, 100
4, 22464, Note_off_c, 2, 69, 0
4, 22464, Note_off_c, 2, 65, 0
4, 22464, Note_off_c, 2, 60, 0
4, 22464, Note_off_c, 2, 53, 0
4, 22464, Note_on_c, 2, 70, 100
4, 22467, Note_on_c, 2, 66, 100
4, 22470, Note_on_c, 2, 61, 100
4, 22473, Note_on_c, 2, 58, 100
4, 22560, Note_off_c, 2, 58, 0
4, 22560, Note_off_c, 2, 61, 0
4, 22560, Note_off_c, 2, 66, 0
4, 22560, Note_off_c, 2, 70, 0
4, 22560, Note_on_c, 2, 58, 100
4, 22563, Note_on_c, 2, 61, 100
4, 22566, Note_on_c, 2, 66, 100
4, 22569, Note_on_c, 2, 70, 100
4, 22608, Note_off_c, 2, 70, 0
4, 22608, Note_off_c, 2, 66, 0
4, 22608, Note_off_c, 2, 61, 0
4, 22608, Note_off_c, 2, 58, 0
4, 22608, Note_on_c, 2, 70, 100
4, 22611, Note_on_c, 2, 66, 100
4, 22614, Note_on_c, 2, 61, 100
4, 22617, Note_on_c, 2, 58, 100
4, 22656, Note_off_c, 2, 58, 0
4, 22656, Note_off_c, 2, 61, 0
4, 22656, Note_off_c, 2, 66, 0
4, 22656, Note_off_c, 2, 70, 0
4, 22656, Note_on_c, 2, 49, 100
4, 22659, Note_on_c, 2, 56, 100
4, 22662, Note_on_c, 2, 61, 100
4, 22665, Note_on_c, 2, 65, 100
4, 22752, Note_off_c, 2, 65, 0
4, 22752, Note_off_c, 2, 61, 0
4, 22752, Note_off_c, 2, 56, 0
4, 22752, Note_off_c, 2, 49, 0
4, 22752, Note_on_c, 2, 65, 100
4, 22755, Note_on_c, 2, 61, 100
4, 22758, Note_on_c, 2, 56, 100
4, 22761, Note_on_c, 2, 49, 100
4, 22848, Note_off_c, 2, 49, 0
4, 22848, Note_off_c, 2, 56, 0
4, 22848, Note_off_c, 2, 61, 0
4, 22848, Note_off_c, 2, 65, 0
4, 22848, Note_on_c, 2, 56, 100
4, 22848, Note_on_c, 2, 49, 100
4, 22854, Note_on_c, 2, 61, 100
4, 22857, Note_on_c, 2, 65, 100
4, 22944, Note_off_c, 2, 65, 0
4, 22944, Note_off_c, 2, 61, 0
4, 22944, Note_off_c, 2, 49, 0
4, 22944, Note_off_c, 2, 56, 0
4, 22944, Note_on_c, 2, 56, 100
4, 22944, Note_on_c, 2, 61, 100
4, 22944, Note_on_c, 2, 65, 100
4, 22948, Note_on_c, 2, 49, 100
4, 22992, Note_off_c, 2, 49, 0
4, 22992, Note_off_c, 2, 65, 0
4, 22992, Note_off_c, 2, 61, 0
4, 22992, Note_off_c, 2, 56, 0
4, 22992, Note_on_c, 2, 49, 100
4, 22995, Note_on_c, 2, 65, 100
4, 22998, Note_on_c, 2, 61, 100
4, 23001, Note_on_c, 2, 56, 100
4, 23040, Note_off_c, 2, 56, 0
4, 23040, Note_off_c, 2, 61, 0
4, 23040, Note_off_c, 2, 65, 0
4, 23040, Note_off_c, 2, 49, 0
4, 23040, Note_on_c, 2, 67, 100
4, 23043, Note_on_c, 2, 63, 100
4, 23046, Note_on_c, 2, 58, 100
4, 23049, Note_on_c, 2, 55, 100
4, 23052, Note_on_c, 2, 51, 100
4, 23136, Note_off_c, 2, 51, 0
4, 23136, Note_off_c, 2, 55, 0
4, 23136, Note_off_c, 2, 58, 0
4, 23136, Note_off_c, 2, 63, 0
4, 23136, Note_off_c, 2, 67, 0
4, 23136, Note_on_c, 2, 51, 100
4, 23140, Note_on_c, 2, 55, 100
4, 23142, Note_on_c, 2, 58, 100
4, 23145, Note_on_c, 2, 63, 100
4, 23148, Note_on_c, 2, 67, 100
4, 23184, Note_off_c, 2, 67, 0
4, 23184, Note_off_c, 2, 63, 0
4, 23184, Note_off_c, 2, 58, 0
4, 23184, Note_off_c, 2, 55, 0
4, 23184, Note_off_c, 2, 51, 0
4, 23184, Note_on_c, 2, 67, 100
4, 23188, Note_on_c, 2, 63, 100
4, 23190, Note_on_c, 2, 58, 100
4, 23193, Note_on_c, 2, 55, 100
4, 23196, Note_on_c, 2, 51, 100
4, 23232, Note_off_c, 2, 51, 0
4, 23232, Note_off_c, 2, 55, 0
4, 23232, Note_off_c, 2, 58, 0
4, 23232, Note_off_c, 2, 63, 0
4, 23232, Note_off_c, 2, 67, 0
4, 23232, Note_on_c, 2, 51, 100
4, 23235, Note_on_c, 2, 55, 100
4, 23238, Note_on_c, 2, 58, 100
4, 23241, Note_on_c, 2, 63, 100
4, 23244, Note_on_c, 2, 67, 100
4, 23328, Note_off_c, 2, 67, 0
4, 23328, Note_off_c, 2, 63, 0
4, 23328, Note_off_c, 2, 58, 0
4, 23328, Note_off_c, 2, 55, 0
4, 23328, Note_off_c, 2, 51, 0
4, 23328, Note_on_c, 2, 67, 100
4, 23331, Note_on_c, 2, 63, 100
4, 23334, Note_on_c, 2, 58, 100
4, 23337, Note_on_c, 2, 55, 100
4, 23340, Note_on_c, 2, 51, 100
4, 23424, Note_off_c, 2, 51, 0
4, 23424, Note_off_c, 2, 55, 0
4, 23424, Note_off_c, 2, 58, 0
4, 23424, Note_off_c, 2, 63, 0
4, 23424, Note_off_c, 2, 67, 0
4, 23424, Note_on_c, 2, 51, 100
4, 23427, Note_on_c, 2, 55, 100
4, 23430, Note_on_c, 2, 58, 100
4, 23433, Note_on_c, 2, 63, 100
4, 23436, Note_on_c, 2, 67, 100
4, 23520, Note_off_c, 2, 67, 0
4, 23520, Note_off_c, 2, 63, 0
4, 23520, Note_off_c, 2, 58, 0
4, 23520, Note_off_c, 2, 55, 0
4, 23520, Note_off_c, 2, 51, 0
4, 23520, Note_on_c, 2, 49, 100
4, 23523, Note_on_c, 2, 56, 100
4, 23526, Note_on_c, 2, 61, 100
4, 23529, Note_on_c, 2, 65, 100
4, 23568, Note_off_c, 2, 65, 0
4, 23568, Note_off_c, 2, 61, 0
4, 23568, Note_off_c, 2, 56, 0
4, 23568, Note_off_c, 2, 49, 0
4, 23568, Note_on_c, 2, 65, 100
4, 23571, Note_on_c, 2, 61, 100
4, 23574, Note_on_c, 2, 56, 100
4, 23577, Note_on_c, 2, 49, 100
4, 23616, Note_off_c, 2, 49, 0
4, 23616, Note_off_c, 2, 56, 0
4, 23616, Note_off_c, 2, 61, 0
4, 23616, Note_off_c, 2, 65, 0
4, 23616, Note_on_c, 2, 58, 100
4, 23619, Note_on_c, 2, 61, 100
4, 23622, Note_on_c, 2, 66, 100
4, 23625, Note_on_c, 2, 70, 100
4, 23808, Note_off_c, 2, 70, 0
4, 23808, Note_off_c, 2, 66, 0
4, 23808, Note_off_c, 2, 61, 0
4, 23808, Note_off_c, 2, 58, 0
4, 23808, Note_on_c, 2, 70, 100
4, 23811, Note_on_c, 2, 66, 100
4, 23814, Note_on_c, 2, 61, 100
4, 23817, Note_on_c, 2, 58, 100
4, 23904, Note_off_c, 2, 58, 0
4, 23904, Note_off_c, 2, 61, 0
4, 23904, Note_off_c, 2, 66, 0
4, 23904, Note_off_c, 2, 70, 0
4, 23904, Note_on_c, 2, 56, 100
4, 23907, Note_on_c, 2, 59, 100
4, 23910, Note_on_c, 2, 64, 100
4, 23913, Note_on_c, 2, 68, 100
4, 24000, Note_off_c, 2, 68, 0
4, 24000, Note_off_c, 2, 64, 0
4, 24000, Note_off_c, 2, 59, 0
4, 24000, Note_off_c, 2, 56, 0
4, 24000, Note_on_c, 2, 54, 100
4, 24003, Note_on_c, 2, 59, 100
4, 24006, Note_on_c, 2, 63, 100
4, 24009, Note_on_c, 2, 66, 100
4, 24096, Note_off_c, 2, 66, 0
4, 24096, Note_off_c, 2, 63, 0
4, 24096, Note_off_c, 2, 59, 0
4, 24096, Note_off_c, 2, 54, 0
4, 24096, Note_on_c, 2, 66, 100
4, 24099, Note_on_c, 2, 63, 100
4, 24102, Note_on_c, 2, 59, 100
4, 24105, Note_on_c, 2, 54, 100
4, 24144, Note_off_c, 2, 54, 0
4, 24144, Note_off_c, 2, 59, 0
4, 24144, Note_off_c, 2, 63, 0
4, 24144, Note_off_c, 2, 66, 0
4, 24144, Note_on_c, 2, 54, 100
4, 24147, Note_on_c, 2, 59, 100
4, 24150, Note_on_c, 2, 63, 100
4, 24153, Note_on_c, 2, 66, 100
4, 24192, Note_off_c, 2, 66, 0
4, 24192, Note_off_c, 2, 63, 0
4, 24192, Note_off_c, 2, 59, 0
4, 24192, Note_off_c, 2, 54, 0
4, 24192, Note_on_c, 2, 66, 100
4, 24195, Note_on_c, 2, 62, 100
4, 24198, Note_on_c, 2, 57, 100
4, 24201, Note_on_c, 2, 50, 100
4, 24288, Note_off_c, 2, 50, 0
4, 24288, Note_off_c, 2, 57, 0
4, 24288, Note_off_c, 2, 62, 0
4, 24288, Note_off_c, 2, 66, 0
4, 24288, Note_on_c, 2, 50, 100
4, 24291, Note_on_c, 2, 57, 100
4, 24294, Note_on_c, 2, 62, 100
4, 24297, Note_on_c, 2, 66, 100
4, 24384, Note_off_c, 2, 66, 0
4, 24384, Note_off_c, 2, 62, 0
4, 24384, Note_off_c, 2, 57, 0
4, 24384, Note_off_c, 2, 50, 0
4, 24384, Note_on_c, 2, 66, 100
4, 24387, Note_on_c, 2, 62, 100
4, 24390, Note_on_c, 2, 57, 100
4, 24393, Note_on_c, 2, 50, 100
4, 24480, Note_off_c, 2, 50, 0
4, 24480, Note_off_c, 2, 57, 0
4, 24480, Note_off_c, 2, 62, 0
4, 24480, Note_off_c, 2, 66, 0
4, 24480, Note_on_c, 2, 50, 100
4, 24483, Note_on_c, 2, 57, 100
4, 24486, Note_on_c, 2, 62, 100
4, 24489, Note_on_c, 2, 66, 100
4, 24576, Note_off_c, 2, 66, 0
4, 24576, Note_off_c, 2, 62, 0
4, 24576, Note_off_c, 2, 57, 0
4, 24576, Note_off_c, 2, 50, 0
4, 24576, Note_on_c, 2, 67, 100
4, 24579, Note_on_c, 2, 62, 100
4, 24582, Note_on_c, 2, 58, 100
4, 24585, Note_on_c, 2, 55, 100
4, 24588, Note_on_c, 2, 50, 100
4, 24592, Note_on_c, 2, 43, 100
4, 24768, Note_off_c, 2, 43, 0
4, 24768, Note_off_c, 2, 50, 0
4, 24768, Note_off_c, 2, 55, 0
4, 24768, Note_off_c, 2, 58, 0
4, 24768, Note_off_c, 2, 62, 0
4, 24768, Note_off_c, 2, 67, 0
4, 24768, Note_on_c, 2, 43, 100
4, 24771, Note_on_c, 2, 50, 100
4, 24774, Note_on_c, 2, 55, 100
4, 24777, Note_on_c, 2, 58, 100
4, 24780, Note_on_c, 2, 62, 100
4, 24784, Note_on_c, 2, 67, 100
4, 24960, Note_off_c, 2, 67, 0
4, 24960, Note_off_c, 2, 62, 0
4, 24960, Note_off_c, 2, 58, 0
4, 24960, Note_off_c, 2, 55, 0
4, 24960, Note_off_c, 2, 50, 0
4, 24960, Note_off_c, 2, 43, 0
4, 24960, Note_on_c, 2, 67, 100
4, 24963, Note_on_c, 2, 62, 100
4, 24966, Note_on_c, 2, 58, 100
4, 24969, Note_on_c, 2, 55, 100
4, 24972, Note_on_c, 2, 50, 100
4, 24976, Note_on_c, 2, 43, 100
4, 25152, Note_off_c, 2, 43, 0
4, 25152, Note_off_c, 2, 50, 0
4, 25152, Note_off_c, 2, 55, 0
4, 25152, Note_off_c, 2, 58, 0
4, 25152, Note_off_c, 2, 62, 0
4, 25152, Note_off_c, 2, 67, 0
4, 25152, Note_on_c, 2, 43, 100
4, 25152, Note_on_c, 2, 58, 100
4, 25155, Note_on_c, 2, 50, 100
4, 25158, Note_on_c, 2, 55, 100
4, 25168, Note_on_c, 2, 67, 100
4, 25174, Note_on_c, 2, 62, 100
4, 25248, Note_off_c, 2, 62, 0
4, 25248, Note_off_c, 2, 67, 0
4, 25248, Note_off_c, 2, 55, 0
4, 25248, Note_off_c, 2, 50, 0
4, 25248, Note_off_c, 2, 58, 0
4, 25248, Note_off_c, 2, 43, 0
4, 25248, Note_on_c, 2, 67, 100
4, 25251, Note_on_c, 2, 62, 100
4, 25254, Note_on_c, 2, 58, 100
4, 25257, Note_on_c, 2, 55, 100
4, 25260, Note_on_c, 2, 50, 100
4, 25264, Note_on_c, 2, 43, 100
4, 25344, Note_off_c, 2, 43, 0
4, 25344, Note_off_c, 2, 50, 0
4, 25344, Note_off_c, 2, 55, 0
4, 25344, Note_off_c, 2, 58, 0
4, 25344, Note_off_c, 2, 62, 0
4, 25344, Note_off_c, 2, 67, 0
4, 25344, Note_on_c, 2, 69, 100
4, 25347, Note_on_c, 2, 65, 100
4, 25348, Note_on_c, 2, 60, 100
4, 25352, Note_on_c, 2, 53, 100
4, 25536, Note_off_c, 2, 53, 0
4, 25536, Note_off_c, 2, 60, 0
4, 25536, Note_off_c, 2, 65, 0
4, 25536, Note_off_c, 2, 69, 0
4, 25536, Note_on_c, 2, 53, 100
4, 25539, Note_on_c, 2, 60, 100
4, 25542, Note_on_c, 2, 65, 100
4, 25544, Note_on_c, 2, 69, 100
4, 25632, Note_off_c, 2, 69, 0
4, 25632, Note_off_c, 2, 65, 0
4, 25632, Note_off_c, 2, 60, 0
4, 25632, Note_off_c, 2, 53, 0
4, 25632, Note_on_c, 2, 69, 100
4, 25635, Note_on_c, 2, 65, 100
4, 25638, Note_on_c, 2, 60, 100
4, 25641, Note_on_c, 2, 53, 100
4, 25728, Note_off_c, 2, 53, 0
4, 25728, Note_off_c, 2, 60, 0
4, 25728, Note_off_c, 2, 65, 0
4, 25728, Note_off_c, 2, 69, 0
4, 25728, Note_on_c, 2, 53, 100
4, 25731, Note_on_c, 2, 58, 100
4, 25734, Note_on_c, 2, 65, 100
4, 25737, Note_on_c, 2, 67, 100
4, 25824, Note_off_c, 2, 67, 0
4, 25824, Note_off_c, 2, 65, 0
4, 25824, Note_off_c, 2, 58, 0
4, 25824, Note_off_c, 2, 53, 0
4, 25824, Note_on_c, 2, 69, 100
4, 25827, Note_on_c, 2, 65, 100
4, 25830, Note_on_c, 2, 60, 100
4, 25833, Note_on_c, 2, 53, 100
4, 25920, Note_off_c, 2, 53, 0
4, 25920, Note_off_c, 2, 60, 0
4, 25920, Note_off_c, 2, 65, 0
4, 25920, Note_off_c, 2, 69, 0
4, 25920, Note_on_c, 2, 53, 100
4, 25923, Note_on_c, 2, 60, 100
4, 25926, Note_on_c, 2, 65, 100
4, 25929, Note_on_c, 2, 69, 100
4, 26016, Note_off_c, 2, 69, 0
4, 26016, Note_off_c, 2, 65, 0
4, 26016, Note_off_c, 2, 60, 0
4, 26016, Note_off_c, 2, 53, 0
4, 26016, Note_on_c, 2, 67, 100
4, 26019, Note_on_c, 2, 65, 100
4, 26022, Note_on_c, 2, 58, 100
4, 26025, Note_on_c, 2, 53, 100
4, 26112, Note_off_c, 2, 53, 0
4, 26112, Note_off_c, 2, 58, 0
4, 26112, Note_off_c, 2, 65, 0
4, 26112, Note_off_c, 2, 67, 0
4, 26112, Note_on_c, 2, 53, 100
4, 26115, Note_on_c, 2, 60, 100
4, 26118, Note_on_c, 2, 65, 100
4, 26121, Note_on_c, 2, 69, 100
4, 26304, Note_off_c, 2, 69, 0
4, 26304, Note_off_c, 2, 65, 0
4, 26304, Note_off_c, 2, 60, 0
4, 26304, Note_off_c, 2, 53, 0
4, 26304, Note_on_c, 2, 69, 100
4, 26307, Note_on_c, 2, 65, 100
4, 26310, Note_on_c, 2, 60, 100
4, 26313, Note_on_c, 2, 53, 100
4, 26400, Note_off_c, 2, 53, 0
4, 26400, Note_off_c, 2, 60, 0
4, 26400, Note_off_c, 2, 65, 0
4, 26400, Note_off_c, 2, 69, 0
4, 26400, Note_on_c, 2, 53, 100
4, 26403, Note_on_c, 2, 60, 100
4, 26406, Note_on_c, 2, 65, 100
4, 26409, Note_on_c, 2, 69, 100
4, 26496, Note_off_c, 2, 69, 0
4, 26496, Note_off_c, 2, 65, 0
4, 26496, Note_off_c, 2, 60, 0
4, 26496, Note_off_c, 2, 53, 0
4, 26496, Note_on_c, 2, 69, 100
4, 26499, Note_on_c, 2, 65, 100
4, 26502, Note_on_c, 2, 60, 100
4, 26505, Note_on_c, 2, 53, 100
4, 26592, Note_off_c, 2, 53, 0
4, 26592, Note_off_c, 2, 60, 0
4, 26592, Note_off_c, 2, 65, 0
4, 26592, Note_off_c, 2, 69, 0
4, 26592, Note_on_c, 2, 53, 100
4, 26595, Note_on_c, 2, 60, 100
4, 26598, Note_on_c, 2, 65, 100
4, 26601, Note_on_c, 2, 70, 100
4, 26688, Note_off_c, 2, 70, 0
4, 26688, Note_off_c, 2, 65, 0
4, 26688, Note_off_c, 2, 60, 0
4, 26688, Note_off_c, 2, 53, 0
4, 26688, Note_on_c, 2, 69, 100
4, 26691, Note_on_c, 2, 65, 100
4, 26694, Note_on_c, 2, 60, 100
4, 26697, Note_on_c, 2, 53, 100
4, 26780, Note_off_c, 2, 65, 0
4, 26784, Note_off_c, 2, 69, 0
4, 26784, Note_off_c, 2, 60, 0
4, 26784, Note_off_c, 2, 53, 0
4, 26784, Note_on_c, 2, 53, 100
4, 26787, Note_on_c, 2, 58, 100
4, 26790, Note_on_c, 2, 65, 100
4, 26793, Note_on_c, 2, 67, 100
4, 26880, Note_off_c, 2, 67, 0
4, 26880, Note_off_c, 2, 65, 0
4, 26880, Note_off_c, 2, 58, 0
4, 26880, Note_off_c, 2, 53, 0
4, 26880, Note_on_c, 2, 67, 100
4, 26883, Note_on_c, 2, 64, 100
4, 26886, Note_on_c, 2, 60, 100
4, 26889, Note_on_c, 2, 55, 100
4, 26892, Note_on_c, 2, 48, 100
4, 27072, Note_off_c, 2, 48, 0
4, 27072, Note_off_c, 2, 55, 0
4, 27072, Note_off_c, 2, 60, 0
4, 27072, Note_off_c, 2, 64, 0
4, 27072, Note_off_c, 2, 67, 0
4, 27072, Note_on_c, 2, 48, 100
4, 27075, Note_on_c, 2, 55, 100
4, 27078, Note_on_c, 2, 60, 100
4, 27081, Note_on_c, 2, 64, 100
4, 27084, Note_on_c, 2, 67, 100
4, 27264, Note_off_c, 2, 67, 0
4, 27264, Note_off_c, 2, 64, 0
4, 27264, Note_off_c, 2, 60, 0
4, 27264, Note_off_c, 2, 55, 0
4, 27264, Note_off_c, 2, 48, 0
4, 27264, Note_on_c, 2, 67, 100
4, 27267, Note_on_c, 2, 62, 100
4, 27270, Note_on_c, 2, 58, 100
4, 27273, Note_on_c, 2, 53, 100
4, 27276, Note_on_c, 2, 48, 100
4, 27360, Note_off_c, 2, 48, 0
4, 27360, Note_off_c, 2, 53, 0
4, 27360, Note_off_c, 2, 58, 0
4, 27360, Note_off_c, 2, 62, 0
4, 27360, Note_off_c, 2, 67, 0
4, 27360, Note_on_c, 2, 48, 100
4, 27364, Note_on_c, 2, 55, 100
4, 27366, Note_on_c, 2, 60, 100
4, 27369, Note_on_c, 2, 64, 100
4, 27372, Note_on_c, 2, 67, 100
4, 27456, Note_off_c, 2, 67, 0
4, 27456, Note_off_c, 2, 64, 0
4, 27456, Note_off_c, 2, 60, 0
4, 27456, Note_off_c, 2, 55, 0
4, 27456, Note_off_c, 2, 48, 0
4, 27460, Note_on_c, 2, 67, 100
4, 27462, Note_on_c, 2, 64, 100
4, 27465, Note_on_c, 2, 55, 100
4, 27465, Note_on_c, 2, 60, 100
4, 27468, Note_on_c, 2, 48, 100
4, 27552, Note_off_c, 2, 48, 0
4, 27552, Note_off_c, 2, 60, 0
4, 27552, Note_off_c, 2, 55, 0
4, 27552, Note_off_c, 2, 64, 0
4, 27552, Note_off_c, 2, 67, 0
4, 27552, Note_on_c, 2, 48, 100
4, 27555, Note_on_c, 2, 53, 100
4, 27561, Note_on_c, 2, 62, 100
4, 27563, Note_on_c, 2, 58, 100
4, 27564, Note_on_c, 2, 67, 100
4, 27648, Note_off_c, 2, 67, 0
4, 27648, Note_off_c, 2, 58, 0
4, 27648, Note_off_c, 2, 62, 0
4, 27648, Note_off_c, 2, 53, 0
4, 27648, Note_off_c, 2, 48, 0
4, 27648, Note_on_c, 2, 67, 100
4, 27651, Note_on_c, 2, 63, 100
4, 27654, Note_on_c, 2, 60, 100
4, 27657, Note_on_c, 2, 55, 100
4, 27660, Note_on_c, 2, 48, 100
4, 27840, Note_off_c, 2, 48, 0
4, 27840, Note_off_c, 2, 55, 0
4, 27840, Note_off_c, 2, 60, 0
4, 27840, Note_off_c, 2, 63, 0
4, 27840, Note_off_c, 2, 67, 0
4, 27840, Note_on_c, 2, 48, 100
4, 27843, Note_on_c, 2, 55, 100
4, 27846, Note_on_c, 2, 60, 100
4, 27849, Note_on_c, 2, 63, 100
4, 27852, Note_on_c, 2, 67, 100
4, 27936, Note_off_c, 2, 67, 0
4, 27936, Note_off_c, 2, 63, 0
4, 27936, Note_off_c, 2, 60, 0
4, 27936, Note_off_c, 2, 55, 0
4, 27936, Note_off_c, 2, 48, 0
4, 27936, Note_on_c, 2, 67, 100
4, 27939, Note_on_c, 2, 63, 100
4, 27942, Note_on_c, 2, 60, 100
4, 27945, Note_on_c, 2, 55, 100
4, 27948, Note_on_c, 2, 48, 100
4, 28032, Note_off_c, 2, 48, 0
4, 28032, Note_off_c, 2, 55, 0
4, 28032, Note_off_c, 2, 60, 0
4, 28032, Note_off_c, 2, 63, 0
4, 28032, Note_off_c, 2, 67, 0
4, 28032, Note_on_c, 2, 48, 100
4, 28036, Note_on_c, 2, 55, 100
4, 28038, Note_on_c, 2, 60, 100
4, 28041, Note_on_c, 2, 63, 100
4, 28044, Note_on_c, 2, 67, 100
4, 28128, Note_off_c, 2, 67, 0
4, 28128, Note_off_c, 2, 63, 0
4, 28128, Note_off_c, 2, 60, 0
4, 28128, Note_off_c, 2, 55, 0
4, 28128, Note_off_c, 2, 48, 0
4, 28128, Note_on_c, 2, 67, 100
4, 28131, Note_on_c, 2, 62, 100
4, 28134, Note_on_c, 2, 60, 100
4, 28137, Note_on_c, 2, 55, 100
4, 28140, Note_on_c, 2, 48, 100
4, 28224, Note_off_c, 2, 48, 0
4, 28224, Note_off_c, 2, 55, 0
4, 28224, Note_off_c, 2, 60, 0
4, 28224, Note_off_c, 2, 62, 0
4, 28224, Note_off_c, 2, 67, 0
4, 28224, Note_on_c, 2, 48, 100
4, 28228, Note_on_c, 2, 55, 100
4, 28230, Note_on_c, 2, 60, 100
4, 28233, Note_on_c, 2, 63, 100
4, 28236, Note_on_c, 2, 67, 100
4, 28320, Note_off_c, 2, 67, 0
4, 28320, Note_off_c, 2, 63, 0
4, 28320, Note_off_c, 2, 60, 0
4, 28320, Note_off_c, 2, 55, 0
4, 28320, Note_off_c, 2, 48, 0
4, 28320, Note_on_c, 2, 67, 100
4, 28323, Note_on_c, 2, 63, 100
4, 28326, Note_on_c, 2, 60, 100
4, 28329, Note_on_c, 2, 55, 100
4, 28332, Note_on_c, 2, 48, 100
4, 28416, Note_off_c, 2, 48, 0
4, 28416, Note_off_c, 2, 55, 0
4, 28416, Note_off_c, 2, 60, 0
4, 28416, Note_off_c, 2, 63, 0
4, 28416, Note_off_c, 2, 67, 0
4, 28416, Note_on_c, 2, 67, 100
4, 28419, Note_on_c, 2, 62, 100
4, 28422, Note_on_c, 2, 58, 100
4, 28425, Note_on_c, 2, 55, 100
4, 28428, Note_on_c, 2, 50, 100
4, 28432, Note_on_c, 2, 43, 100
4, 28608, Note_off_c, 2, 43, 0
4, 28608, Note_off_c, 2, 50, 0
4, 28608, Note_off_c, 2, 55, 0
4, 28608, Note_off_c, 2, 58, 0
4, 28608, Note_off_c, 2, 62, 0
4, 28608, Note_off_c, 2, 67, 0
4, 28608, Note_on_c, 2, 43, 100
4, 28611, Note_on_c, 2, 50, 100
4, 28614, Note_on_c, 2, 55, 100
4, 28617, Note_on_c, 2, 58, 100
4, 28620, Note_on_c, 2, 62, 100
4, 28624, Note_on_c, 2, 67, 100
4, 28704, Note_off_c, 2, 67, 0
4, 28704, Note_off_c, 2, 62, 0
4, 28704, Note_off_c, 2, 58, 0
4, 28704, Note_off_c, 2, 55, 0
4, 28704, Note_off_c, 2, 50, 0
4, 28704, Note_off_c, 2, 43, 0
4, 28704, Note_on_c, 2, 67, 100
4, 28707, Note_on_c, 2, 62, 100
4, 28710, Note_on_c, 2, 58, 100
4, 28713, Note_on_c, 2, 55, 100
4, 28716, Note_on_c, 2, 50, 100
4, 28720, Note_on_c, 2, 43, 100
4, 28800, Note_off_c, 2, 43, 0
4, 28800, Note_off_c, 2, 50, 0
4, 28800, Note_off_c, 2, 55, 0
4, 28800, Note_off_c, 2, 58, 0
4, 28800, Note_off_c, 2, 62, 0
4, 28800, Note_off_c, 2, 67, 0
4, 28800, Note_on_c, 2, 43, 100
4, 28803, Note_on_c, 2, 50, 100
4, 28806, Note_on_c, 2, 55, 100
4, 28809, Note_on_c, 2, 58, 100
4, 28812, Note_on_c, 2, 62, 100
4, 28816, Note_on_c, 2, 67, 100
4, 28896, Note_off_c, 2, 67, 0
4, 28896, Note_off_c, 2, 62, 0
4, 28896, Note_off_c, 2, 58, 0
4, 28896, Note_off_c, 2, 55, 0
4, 28896, Note_off_c, 2, 50, 0
4, 28896, Note_off_c, 2, 43, 0
4, 28896, Note_on_c, 2, 67, 100
4, 28899, Note_on_c, 2, 62, 100
4, 28902, Note_on_c, 2, 58, 100
4, 28905, Note_on_c, 2, 55, 100
4, 28992, Note_off_c, 2, 55, 0
4, 28992, Note_off_c, 2, 58, 0
4, 28992, Note_off_c, 2, 62, 0
4, 28992, Note_off_c, 2, 67, 0
4, 28992, Note_on_c, 2, 55, 100
4, 28995, Note_on_c, 2, 58, 100
4, 28998, Note_on_c, 2, 62, 100
4, 29001, Note_on_c, 2, 67, 100
4, 29088, Note_off_c, 2, 67, 0
4, 29088, Note_off_c, 2, 62, 0
4, 29088, Note_off_c, 2, 58, 0
4, 29088, Note_off_c, 2, 55, 0
4, 29088, Note_on_c, 2, 67, 100
4, 29091, Note_on_c, 2, 62, 100
4, 29094, Note_on_c, 2, 58, 100
4, 29097, Note_on_c, 2, 53, 100
4, 29100, Note_on_c, 2, 48, 100
4, 29104, Note_on_c, 2, 43, 100
4, 29184, Note_off_c, 2, 43, 0
4, 29184, Note_off_c, 2, 48, 0
4, 29184, Note_off_c, 2, 53, 0
4, 29184, Note_off_c, 2, 58, 0
4, 29184, Note_off_c, 2, 62, 0
4, 29184, Note_off_c, 2, 67, 0
4, 29184, Note_on_c, 2, 69, 100
4, 29187, Note_on_c, 2, 65, 100
4, 29190, Note_on_c, 2, 60, 100
4, 29193, Note_on_c, 2, 53, 100
4, 29376, Note_off_c, 2, 53, 0
4, 29376, Note_off_c, 2, 60, 0
4, 29376, Note_off_c, 2, 65, 0
4, 29376, Note_off_c, 2, 69, 0
4, 29376, Note_on_c, 2, 53, 100
4, 29379, Note_on_c, 2, 60, 100
4, 29382, Note_on_c, 2, 65, 100
4, 29385, Note_on_c, 2, 69, 100
4, 29472, Note_off_c, 2, 69, 0
4, 29472, Note_off_c, 2, 65, 0
4, 29472, Note_off_c, 2, 60, 0
4, 29472, Note_off_c, 2, 53, 0
4, 29472, Note_on_c, 2, 69, 100
4, 29475, Note_on_c, 2, 65, 100
4, 29478, Note_on_c, 2, 60, 100
4, 29481, Note_on_c, 2, 53, 100
4, 29568, Note_off_c, 2, 53, 0
4, 29568, Note_off_c, 2, 60, 0
4, 29568, Note_off_c, 2, 65, 0
4, 29568, Note_off_c, 2, 69, 0
4, 29568, Note_on_c, 2, 53, 100
4, 29571, Note_on_c, 2, 60, 100
4, 29574, Note_on_c, 2, 65, 100
4, 29577, Note_on_c, 2, 69, 100
4, 29760, Note_off_c, 2, 69, 0
4, 29760, Note_off_c, 2, 65, 0
4, 29760, Note_off_c, 2, 60, 0
4, 29760, Note_off_c, 2, 53, 0
4, 29760, Note_on_c, 2, 67, 100
4, 29763, Note_on_c, 2, 65, 100
4, 29766, Note_on_c, 2, 58, 100
4, 29769, Note_on_c, 2, 53, 100
4, 29856, Note_off_c, 2, 53, 0
4, 29856, Note_off_c, 2, 58, 0
4, 29856, Note_off_c, 2, 65, 0
4, 29856, Note_off_c, 2, 67, 0
4, 29856, Note_on_c, 2, 53, 100
4, 29859, Note_on_c, 2, 60, 100
4, 29862, Note_on_c, 2, 65, 100
4, 29865, Note_on_c, 2, 69, 100
4, 29952, Note_off_c, 2, 69, 0
4, 29952, Note_off_c, 2, 65, 0
4, 29952, Note_off_c, 2, 60, 0
4, 29952, Note_off_c, 2, 53, 0
4, 29952, Note_on_c, 2, 69, 100
4, 29955, Note_on_c, 2, 65, 100
4, 29960, Note_on_c, 2, 60, 100
4, 29961, Note_on_c, 2, 53, 100
4, 30048, Note_off_c, 2, 53, 0
4, 30048, Note_off_c, 2, 60, 0
4, 30048, Note_off_c, 2, 65, 0
4, 30048, Note_off_c, 2, 69, 0
4, 30048, Note_on_c, 2, 53, 100
4, 30051, Note_on_c, 2, 58, 100
4, 30054, Note_on_c, 2, 65, 100
4, 30057, Note_on_c, 2, 67, 100
4, 30144, Note_off_c, 2, 67, 0
4, 30144, Note_off_c, 2, 65, 0
4, 30144, Note_off_c, 2, 58, 0
4, 30144, Note_off_c, 2, 53, 0
4, 30144, Note_on_c, 2, 69, 100
4, 30147, Note_on_c, 2, 65, 100
4, 30152, Note_on_c, 2, 60, 100
4, 30153, Note_on_c, 2, 53, 100
4, 30336, Note_off_c, 2, 53, 0
4, 30336, Note_off_c, 2, 60, 0
4, 30336, Note_off_c, 2, 65, 0
4, 30336, Note_off_c, 2, 69, 0
4, 30336, Note_on_c, 2, 53, 100
4, 30339, Note_on_c, 2, 60, 100
4, 30342, Note_on_c, 2, 65, 100
4, 30345, Note_on_c, 2, 69, 100
4, 30432, Note_off_c, 2, 69, 0
4, 30432, Note_off_c, 2, 65, 0
4, 30432, Note_off_c, 2, 60, 0
4, 30432, Note_off_c, 2, 53, 0
4, 30432, Note_on_c, 2, 70, 100
4, 30435, Note_on_c, 2, 65, 100
4, 30438, Note_on_c, 2, 60, 100
4, 30441, Note_on_c, 2, 53, 100
4, 30528, Note_off_c, 2, 53, 0
4, 30528, Note_off_c, 2, 60, 0
4, 30528, Note_off_c, 2, 65, 0
4, 30528, Note_off_c, 2, 70, 0
4, 30528, Note_on_c, 2, 53, 100
4, 30532, Note_on_c, 2, 60, 100
4, 30534, Note_on_c, 2, 65, 100
4, 30537, Note_on_c, 2, 69, 100
4, 30624, Note_off_c, 2, 69, 0
4, 30624, Note_off_c, 2, 65, 0
4, 30624, Note_off_c, 2, 60, 0
4, 30624, Note_off_c, 2, 53, 0
4, 30624, Note_on_c, 2, 67, 100
4, 30628, Note_on_c, 2, 65, 100
4, 30630, Note_on_c, 2, 58, 100
4, 30633, Note_on_c, 2, 53, 100
4, 30720, Note_off_c, 2, 53, 0
4, 30720, Note_off_c, 2, 58, 0
4, 30720, Note_off_c, 2, 65, 0
4, 30720, Note_off_c, 2, 67, 0
4, 30720, Note_on_c, 2, 67, 100
4, 30723, Note_on_c, 2, 62, 100
4, 30726, Note_on_c, 2, 58, 100
4, 30729, Note_on_c, 2, 55, 100
4, 30732, Note_on_c, 2, 50, 100
4, 30736, Note_on_c, 2, 43, 100
4, 30912, Note_off_c, 2, 43, 0
4, 30912, Note_off_c, 2, 50, 0
4, 30912, Note_off_c, 2, 55, 0
4, 30912, Note_off_c, 2, 58, 0
4, 30912, Note_off_c, 2, 62, 0
4, 30912, Note_off_c, 2, 67, 0
4, 30912, Note_on_c, 2, 43, 100
4, 30915, Note_on_c, 2, 50, 100
4, 30918, Note_on_c, 2, 55, 100
4, 30921, Note_on_c, 2, 58, 100
4, 30924, Note_on_c, 2, 62, 100
4, 30928, Note_on_c, 2, 67, 100
4, 31104, Note_off_c, 2, 67, 0
4, 31104, Note_off_c, 2, 62, 0
4, 31104, Note_off_c, 2, 58, 0
4, 31104, Note_off_c, 2, 55, 0
4, 31104, Note_off_c, 2, 50, 0
4, 31104, Note_off_c, 2, 43, 0
4, 31104, Note_on_c, 2, 67, 100
4, 31107, Note_on_c, 2, 62, 100
4, 31110, Note_on_c, 2, 58, 100
4, 31113, Note_on_c, 2, 55, 100
4, 31116, Note_on_c, 2, 50, 100
4, 31120, Note_on_c, 2, 43, 100
4, 31296, Note_off_c, 2, 43, 0
4, 31296, Note_off_c, 2, 50, 0
4, 31296, Note_off_c, 2, 55, 0
4, 31296, Note_off_c, 2, 58, 0
4, 31296, Note_off_c, 2, 62, 0
4, 31296, Note_off_c, 2, 67, 0
4, 31296, Note_on_c, 2, 43, 100
4, 31296, Note_on_c, 2, 58, 100
4, 31299, Note_on_c, 2, 50, 100
4, 31302, Note_on_c, 2, 55, 100
4, 31312, Note_on_c, 2, 67, 100
4, 31318, Note_on_c, 2, 62, 100
4, 31392, Note_off_c, 2, 62, 0
4, 31392, Note_off_c, 2, 67, 0
4, 31392, Note_off_c, 2, 55, 0
4, 31392, Note_off_c, 2, 50, 0
4, 31392, Note_off_c, 2, 58, 0
4, 31392, Note_off_c, 2, 43, 0
4, 31392, Note_on_c, 2, 67, 100
4, 31395, Note_on_c, 2, 62, 100
4, 31398, Note_on_c, 2, 58, 100
4, 31401, Note_on_c, 2, 55, 100
4, 31404, Note_on_c, 2, 50, 100
4, 31408, Note_on_c, 2, 43, 100
4, 31488, Note_off_c, 2, 43, 0
4, 31488, Note_off_c, 2, 50, 0
4, 31488, Note_off_c, 2, 55, 0
4, 31488, Note_off_c, 2, 58, 0
4, 31488, Note_off_c, 2, 62, 0
4, 31488, Note_off_c, 2, 67, 0
4, 31488, Note_on_c, 2, 69, 100
4, 31491, Note_on_c, 2, 65, 100
4, 31492, Note_on_c, 2, 60, 100
4, 31496, Note_on_c, 2, 53, 100
4, 31680, Note_off_c, 2, 53, 0
4, 31680, Note_off_c, 2, 60, 0
4, 31680, Note_off_c, 2, 65, 0
4, 31680, Note_off_c, 2, 69, 0
4, 31680, Note_on_c, 2, 53, 100
4, 31683, Note_on_c, 2, 60, 100
4, 31686, Note_on_c, 2, 65, 100
4, 31688, Note_on_c, 2, 69, 100
4, 31776, Note_off_c, 2, 69, 0
4, 31776, Note_off_c, 2, 65, 0
4, 31776, Note_off_c, 2, 60, 0
4, 31776, Note_off_c, 2, 53, 0
4, 31776, Note_on_c, 2, 69, 100
4, 31779, Note_on_c, 2, 65, 100
4, 31782, Note_on_c, 2, 60, 100
4, 31785, Note_on_c, 2, 53, 100
4, 31872, Note_off_c, 2, 53, 0
4, 31872, Note_off_c, 2, 60, 0
4, 31872, Note_off_c, 2, 65, 0
4, 31872, Note_off_c, 2, 69, 0
4, 31872, Note_on_c, 2, 53, 100
4, 31875, Note_on_c, 2, 58, 100
4, 31878, Note_on_c, 2, 65, 100
4, 31881, Note_on_c, 2, 67, 100
4, 31968, Note_off_c, 2, 67, 0
4, 31968, Note_off_c, 2, 65, 0
4, 31968, Note_off_c, 2, 58, 0
4, 31968, Note_off_c, 2, 53, 0
4, 31968, Note_on_c, 2, 69, 100
4, 31971, Note_on_c, 2, 65, 100
4, 31974, Note_on_c, 2, 60, 100
4, 31977, Note_on_c, 2, 53, 100
4, 32064, Note_off_c, 2, 53, 0
4, 32064, Note_off_c, 2, 60, 0
4, 32064, Note_off_c, 2, 65, 0
4, 32064, Note_off_c, 2, 69, 0
4, 32064, Note_on_c, 2, 53, 100
4, 32067, Note_on_c, 2, 60, 100
4, 32070, Note_on_c, 2, 65, 100
4, 32073, Note_on_c, 2, 69, 100
4, 32160, Note_off_c, 2, 69, 0
4, 32160, Note_off_c, 2, 65, 0
4, 32160, Note_off_c, 2, 60, 0
4, 32160, Note_off_c, 2, 53, 0
4, 32160, Note_on_c, 2, 67, 100
4, 32163, Note_on_c, 2, 65, 100
4, 32166, Note_on_c, 2, 58, 100
4, 32169, Note_on_c, 2, 53, 100
4, 32256, Note_off_c, 2, 53, 0
4, 32256, Note_off_c, 2, 58, 0
4, 32256, Note_off_c, 2, 65, 0
4, 32256, Note_off_c, 2, 67, 0
4, 32256, Note_on_c, 2, 53, 100
4, 32259, Note_on_c, 2, 60, 100
4, 32262, Note_on_c, 2, 65, 100
4, 32265, Note_on_c, 2, 69, 100
4, 32448, Note_off_c, 2, 69, 0
4, 32448, Note_off_c, 2, 65, 0
4, 32448, Note_off_c, 2, 60, 0
4, 32448, Note_off_c, 2, 53, 0
4, 32448, Note_on_c, 2, 69, 100
4, 32451, Note_on_c, 2, 65, 100
4, 32454, Note_on_c, 2, 60, 100
4, 32457, Note_on_c, 2, 53, 100
4, 32544, Note_off_c, 2, 53, 0
4, 32544, Note_off_c, 2, 60, 0
4, 32544, Note_off_c, 2, 65, 0
4, 32544, Note_off_c, 2, 69, 0
4, 32544, Note_on_c, 2, 53, 100
4, 32547, Note_on_c, 2, 60, 100
4, 32550, Note_on_c, 2, 65, 100
4, 32553, Note_on_c, 2, 69, 100
4, 32640, Note_off_c, 2, 69, 0
4, 32640, Note_off_c, 2, 65, 0
4, 32640, Note_off_c, 2, 60, 0
4, 32640, Note_off_c, 2, 53, 0
4, 32640, Note_on_c, 2, 69, 100
4, 32643, Note_on_c, 2, 65, 100
4, 32646, Note_on_c, 2, 60, 100
4, 32649, Note_on_c, 2, 53, 100
4, 32736, Note_off_c, 2, 53, 0
4, 32736, Note_off_c, 2, 60, 0
4, 32736, Note_off_c, 2, 65, 0
4, 32736, Note_off_c, 2, 69, 0
4, 32736, Note_on_c, 2, 53, 100
4, 32739, Note_on_c, 2, 60, 100
4, 32742, Note_on_c, 2, 65, 100
4, 32745, Note_on_c, 2, 70, 100
4, 32832, Note_off_c, 2, 70, 0
4, 32832, Note_off_c, 2, 65, 0
4, 32832, Note_off_c, 2, 60, 0
4, 32832, Note_off_c, 2, 53, 0
4, 32832, Note_on_c, 2, 69, 100
4, 32835, Note_on_c, 2, 65, 100
4, 32838, Note_on_c, 2, 60, 100
4, 32841, Note_on_c, 2, 53, 100
4, 32924, Note_off_c, 2, 65, 0
4, 32928, Note_off_c, 2, 69, 0
4, 32928, Note_off_c, 2, 60, 0
4, 32928, Note_off_c, 2, 53, 0
4, 32928, Note_on_c, 2, 53, 100
4, 32931, Note_on_c, 2, 58, 100
4, 32934, Note_on_c, 2, 65, 100
4, 32937, Note_on_c, 2, 67, 100
4, 33024, Note_off_c, 2, 67, 0
4, 33024, Note_off_c, 2, 65, 0
4, 33024, Note_off_c, 2, 58, 0
4, 33024, Note_off_c, 2, 53, 0
4, 33024, Note_on_c, 2, 67, 100
4, 33027, Note_on_c, 2, 64, 100
4, 33030, Note_on_c, 2, 60, 100
4, 33033, Note_on_c, 2, 55, 100
4, 33036, Note_on_c, 2, 48, 100
4, 33216, Note_off_c, 2, 48, 0
4, 33216, Note_off_c, 2, 55, 0
4, 33216, Note_off_c, 2, 60, 0
4, 33216, Note_off_c, 2, 64, 0
4, 33216, Note_off_c, 2, 67, 0
4, 33216, Note_on_c, 2, 48, 100
4, 33219, Note_on_c, 2, 55, 100
4, 33222, Note_on_c, 2, 60, 100
4, 33225, Note_on_c, 2, 64, 100
4, 33228, Note_on_c, 2, 67, 100
4, 33408, Note_off_c, 2, 67, 0
4, 33408, Note_off_c, 2, 64, 0
4, 33408, Note_off_c, 2, 60, 0
4, 33408, Note_off_c, 2, 55, 0
4, 33408, Note_off_c, 2, 48, 0
4, 33408, Note_on_c, 2, 67, 100
4, 33411, Note_on_c, 2, 62, 100
4, 33414, Note_on_c, 2, 58, 100
4, 33417, Note_on_c, 2, 53, 100
4, 33420, Note_on_c, 2, 48, 100
4, 33504, Note_off_c, 2, 48, 0
4, 33504, Note_off_c, 2, 53, 0
4, 33504, Note_off_c, 2, 58, 0
4, 33504, Note_off_c, 2, 62, 0
4, 33504, Note_off_c, 2, 67, 0
4, 33504, Note_on_c, 2, 48, 100
4, 33508, Note_on_c, 2, 55, 100
4, 33510, Note_on_c, 2, 60, 100
4, 33513, Note_on_c, 2, 64, 100
4, 33516, Note_on_c, 2, 67, 100
4, 33600, Note_off_c, 2, 67, 0
4, 33600, Note_off_c, 2, 64, 0
4, 33600, Note_off_c, 2, 60, 0
4, 33600, Note_off_c, 2, 55, 0
4, 33600, Note_off_c, 2, 48, 0
4, 33604, Note_on_c, 2, 67, 100
4, 33606, Note_on_c, 2, 64, 100
4, 33609, Note_on_c, 2, 55, 100
4, 33609, Note_on_c, 2, 60, 100
4, 33612, Note_on_c, 2, 48, 100
4, 33696, Note_off_c, 2, 48, 0
4, 33696, Note_off_c, 2, 60, 0
4, 33696, Note_off_c, 2, 55, 0
4, 33696, Note_off_c, 2, 64, 0
4, 33696, Note_off_c, 2, 67, 0
4, 33696, Note_on_c, 2, 48, 100
4, 33699, Note_on_c, 2, 53, 100
4, 33705, Note_on_c, 2, 62, 100
4, 33707, Note_on_c, 2, 58, 100
4, 33708, Note_on_c, 2, 67, 100
4, 33792, Note_off_c, 2, 67, 0
4, 33792, Note_off_c, 2, 58, 0
4, 33792, Note_off_c, 2, 62, 0
4, 33792, Note_off_c, 2, 53, 0
4, 33792, Note_off_c, 2, 48, 0
4, 33792, Note_on_c, 2, 67, 100
4, 33795, Note_on_c, 2, 63, 100
4, 33798, Note_on_c, 2, 60, 100
4, 33801, Note_on_c, 2, 55, 100
4, 33804, Note_on_c, 2, 48, 100
4, 33984, Note_off_c, 2, 48, 0
4, 33984, Note_off_c, 2, 55, 0
4, 33984, Note_off_c, 2, 60, 0
4, 33984, Note_off_c, 2, 63, 0
4, 33984, Note_off_c, 2, 67, 0
4, 33984, Note_on_c, 2, 48, 100
4, 33987, Note_on_c, 2, 55, 100
4, 33990, Note_on_c, 2, 60, 100
4, 33993, Note_on_c, 2, 63, 100
4, 33996, Note_on_c, 2, 67, 100
4, 34080, Note_off_c, 2, 67, 0
4, 34080, Note_off_c, 2, 63, 0
4, 34080, Note_off_c, 2, 60, 0
4, 34080, Note_off_c, 2, 55, 0
4, 34080, Note_off_c, 2, 48, 0
4, 34080, Note_on_c, 2, 67, 100
4, 34083, Note_on_c, 2, 63, 100
4, 34086, Note_on_c, 2, 60, 100
4, 34089, Note_on_c, 2, 55, 100
4, 34092, Note_on_c, 2, 48, 100
4, 34176, Note_off_c, 2, 48, 0
4, 34176, Note_off_c, 2, 55, 0
4, 34176, Note_off_c, 2, 60, 0
4, 34176, Note_off_c, 2, 63, 0
4, 34176, Note_off_c, 2, 67, 0
4, 34176, Note_on_c, 2, 48, 100
4, 34180, Note_on_c, 2, 55, 100
4, 34182, Note_on_c, 2, 60, 100
4, 34185, Note_on_c, 2, 63, 100
4, 34188, Note_on_c, 2, 67, 100
4, 34272, Note_off_c, 2, 67, 0
4, 34272, Note_off_c, 2, 63, 0
4, 34272, Note_off_c, 2, 60, 0
4, 34272, Note_off_c, 2, 55, 0
4, 34272, Note_off_c, 2, 48, 0
4, 34272, Note_on_c, 2, 67, 100
4, 34275, Note_on_c, 2, 62, 100
4, 34278, Note_on_c, 2, 60, 100
4, 34281, Note_on_c, 2, 55, 100
4, 34284, Note_on_c, 2, 48, 100
4, 34368, Note_off_c, 2, 48, 0
4, 34368, Note_off_c, 2, 55, 0
4, 34368, Note_off_c, 2, 60, 0
4, 34368, Note_off_c, 2, 62, 0
4, 34368, Note_off_c, 2, 67, 0
4, 34368, Note_on_c, 2, 48, 100
4, 34372, Note_on_c, 2, 55, 100
4, 34374, Note_on_c, 2, 60, 100
4, 34377, Note_on_c, 2, 63, 100
4, 34380, Note_on_c, 2, 67, 100
4, 34464, Note_off_c, 2, 67, 0
4, 34464, Note_off_c, 2, 63, 0
4, 34464, Note_off_c, 2, 60, 0
4, 34464, Note_off_c, 2, 55, 0
4, 34464, Note_off_c, 2, 48, 0
4, 34464, Note_on_c, 2, 67, 100
4, 34467, Note_on_c, 2, 63, 100
4, 34470, Note_on_c, 2, 60, 100
4, 34473, Note_on_c, 2, 55, 100
4, 34476, Note_on_c, 2, 48, 100
4, 34560, Note_off_c, 2, 48, 0
4, 34560, Note_off_c, 2, 55, 0
4, 34560, Note_off_c, 2, 60, 0
4, 34560, Note_off_c, 2, 63, 0
4, 34560, Note_off_c, 2, 67, 0
4, 34560, Note_on_c, 2, 67, 100
4, 34563, Note_on_c, 2, 62, 100
4, 34566, Note_on_c, 2, 58, 100
4, 34569, Note_on_c, 2, 55, 100
4, 34572, Note_on_c, 2, 50, 100
4, 34576, Note_on_c, 2, 43, 100
4, 34752, Note_off_c, 2, 43, 0
4, 34752, Note_off_c, 2, 50, 0
4, 34752, Note_off_c, 2, 55, 0
4, 34752, Note_off_c, 2, 58, 0
4, 34752, Note_off_c, 2, 62, 0
4, 34752, Note_off_c, 2, 67, 0
4, 34752, Note_on_c, 2, 43, 100
4, 34755, Note_on_c, 2, 50, 100
4, 34758, Note_on_c, 2, 55, 100
4, 34761, Note_on_c, 2, 58, 100
4, 34764, Note_on_c, 2, 62, 100
4, 34768, Note_on_c, 2, 67, 100
4, 34848, Note_off_c, 2, 67, 0
4, 34848, Note_off_c, 2, 62, 0
4, 34848, Note_off_c, 2, 58, 0
4, 34848, Note_off_c, 2, 55, 0
4, 34848, Note_off_c, 2, 50, 0
4, 34848, Note_off_c, 2, 43, 0
4, 34848, Note_on_c, 2, 67, 100
4, 34851, Note_on_c, 2, 62, 100
4, 34854, Note_on_c, 2, 58, 100
4, 34857, Note_on_c, 2, 55, 100
4, 34860, Note_on_c, 2, 50, 100
4, 34864, Note_on_c, 2, 43, 100
4, 34944, Note_off_c, 2, 43, 0
4, 34944, Note_off_c, 2, 50, 0
4, 34944, Note_off_c, 2, 55, 0
4, 34944, Note_off_c, 2, 58, 0
4, 34944, Note_off_c, 2, 62, 0
4, 34944, Note_off_c, 2, 67, 0
4, 34944, Note_on_c, 2, 43, 100
4, 34947, Note_on_c, 2, 50, 100
4, 34950, Note_on_c, 2, 55, 100
4, 34953, Note_on_c, 2, 58, 100
4, 34956, Note_on_c, 2, 62, 100
4, 34960, Note_on_c, 2, 67, 100
4, 35040, Note_off_c, 2, 67, 0
4, 35040, Note_off_c, 2, 62, 0
4, 35040, Note_off_c, 2, 58, 0
4, 35040, Note_off_c, 2, 55, 0
4, 35040, Note_off_c, 2, 50, 0
4, 35040, Note_off_c, 2, 43, 0
4, 35040, Note_on_c, 2, 67, 100
4, 35043, Note_on_c, 2, 62, 100
4, 35046, Note_on_c, 2, 58, 100
4, 35049, Note_on_c, 2, 55, 100
4, 35136, Note_off_c, 2, 55, 0
4, 35136, Note_off_c, 2, 58, 0
4, 35136, Note_off_c, 2, 62, 0
4, 35136, Note_off_c, 2, 67, 0
4, 35136, Note_on_c, 2, 55, 100
4, 35139, Note_on_c, 2, 58, 100
4, 35142, Note_on_c, 2, 62, 100
4, 35145, Note_on_c, 2, 67, 100
4, 35232, Note_off_c, 2, 67, 0
4, 35232, Note_off_c, 2, 62, 0
4, 35232, Note_off_c, 2, 58, 0
4, 35232, Note_off_c, 2, 55, 0
4, 35232, Note_on_c, 2, 67, 100
4, 35235, Note_on_c, 2, 62, 100
4, 35238, Note_on_c, 2, 58, 100
4, 35241, Note_on_c, 2, 53, 100
4, 35244, Note_on_c, 2, 48, 100
4, 35248, Note_on_c, 2, 43, 100
4, 35328, Note_off_c, 2, 43, 0
4, 35328, Note_off_c, 2, 48, 0
4, 35328, Note_off_c, 2, 53, 0
4, 35328, Note_off_c, 2, 58, 0
4, 35328, Note_off_c, 2, 62, 0
4, 35328, Note_off_c, 2, 67, 0
4, 35328, Note_on_c, 2, 69, 100
4, 35331, Note_on_c, 2, 65, 100
4, 35334, Note_on_c, 2, 60, 100
4, 35337, Note_on_c, 2, 53, 100
4, 35520, Note_off_c, 2, 53, 0
4, 35520, Note_off_c, 2, 60, 0
4, 35520, Note_off_c, 2, 65, 0
4, 35520, Note_off_c, 2, 69, 0
4, 35520, Note_on_c, 2, 53, 100
4, 35523, Note_on_c, 2, 60, 100
4, 35526, Note_on_c, 2, 65, 100
4, 35529, Note_on_c, 2, 69, 100
4, 35616, Note_off_c, 2, 69, 0
4, 35616, Note_off_c, 2, 65, 0
4, 35616, Note_off_c, 2, 60, 0
4, 35616, Note_off_c, 2, 53, 0
4, 35616, Note_on_c, 2, 69, 100
4, 35619, Note_on_c, 2, 65, 100
4, 35622, Note_on_c, 2, 60, 100
4, 35625, Note_on_c, 2, 53, 100
4, 35712, Note_off_c, 2, 53, 0
4, 35712, Note_off_c, 2, 60, 0
4, 35712, Note_off_c, 2, 65, 0
4, 35712, Note_off_c, 2, 69, 0
4, 35712, Note_on_c, 2, 53, 100
4, 35715, Note_on_c, 2, 60, 100
4, 35718, Note_on_c, 2, 65, 100
4, 35721, Note_on_c, 2, 69, 100
4, 35904, Note_off_c, 2, 69, 0
4, 35904, Note_off_c, 2, 65, 0
4, 35904, Note_off_c, 2, 60, 0
4, 35904, Note_off_c, 2, 53, 0
4, 35904, Note_on_c, 2, 67, 100
4, 35907, Note_on_c, 2, 65, 100
4, 35910, Note_on_c, 2, 58, 100
4, 35913, Note_on_c, 2, 53, 100
4, 36000, Note_off_c, 2, 53, 0
4, 36000, Note_off_c, 2, 58, 0
4, 36000, Note_off_c, 2, 65, 0
4, 36000, Note_off_c, 2, 67, 0
4, 36000, Note_on_c, 2, 53, 100
4, 36003, Note_on_c, 2, 60, 100
4, 36006, Note_on_c, 2, 65, 100
4, 36009, Note_on_c, 2, 69, 100
4, 36096, Note_off_c, 2, 69, 0
4, 36096, Note_off_c, 2, 65, 0
4, 36096, Note_off_c, 2, 60, 0
4, 36096, Note_off_c, 2, 53, 0
4, 36096, Note_on_c, 2, 69, 100
4, 36099, Note_on_c, 2, 65, 100
4, 36104, Note_on_c, 2, 60, 100
4, 36105, Note_on_c, 2, 53, 100
4, 36192, Note_off_c, 2, 53, 0
4, 36192, Note_off_c, 2, 60, 0
4, 36192, Note_off_c, 2, 65, 0
4, 36192, Note_off_c, 2, 69, 0
4, 36192, Note_on_c, 2, 53, 100
4, 36195, Note_on_c, 2, 58, 100
4, 36198, Note_on_c, 2, 65, 100
4, 36201, Note_on_c, 2, 67, 100
4, 36288, Note_off_c, 2, 67, 0
4, 36288, Note_off_c, 2, 65, 0
4, 36288, Note_off_c, 2, 58, 0
4, 36288, Note_off_c, 2, 53, 0
4, 36288, Note_on_c, 2, 69, 100
4, 36291, Note_on_c, 2, 65, 100
4, 36296, Note_on_c, 2, 60, 100
4, 36297, Note_on_c, 2, 53, 100
4, 36480, Note_off_c, 2, 53, 0
4, 36480, Note_off_c, 2, 60, 0
4, 36480, Note_off_c, 2, 65, 0
4, 36480, Note_off_c, 2, 69, 0
4, 36480, Note_on_c, 2, 53, 100
4, 36483, Note_on_c, 2, 60, 100
4, 36486, Note_on_c, 2, 65, 100
4, 36489, Note_on_c, 2, 69, 100
4, 36576, Note_off_c, 2, 69, 0
4, 36576, Note_off_c, 2, 65, 0
4, 36576, Note_off_c, 2, 60, 0
4, 36576, Note_off_c, 2, 53, 0
4, 36576, Note_on_c, 2, 70, 100
4, 36579, Note_on_c, 2, 65, 100
4, 36582, Note_on_c, 2, 60, 100
4, 36585, Note_on_c, 2, 53, 100
4, 36672, Note_off_c, 2, 53, 0
4, 36672, Note_off_c, 2, 60, 0
4, 36672, Note_off_c, 2, 65, 0
4, 36672, Note_off_c, 2, 70, 0
4, 36672, Note_on_c, 2, 53, 100
4, 36676, Note_on_c, 2, 60, 100
4, 36678, Note_on_c, 2, 65, 100
4, 36681, Note_on_c, 2, 69, 100
4, 36768, Note_off_c, 2, 69, 0
4, 36768, Note_off_c, 2, 65, 0
4, 36768, Note_off_c, 2, 60, 0
4, 36768, Note_off_c, 2, 53, 0
4, 36768, Note_on_c, 2, 67, 100
4, 36772, Note_on_c, 2, 65, 100
4, 36774, Note_on_c, 2, 58, 100
4, 36777, Note_on_c, 2, 53, 100
4, 36864, Note_off_c, 2, 53, 0
4, 36864, Note_off_c, 2, 58, 0
4, 36864, Note_off_c, 2, 65, 0
4, 36864, Note_off_c, 2, 67, 0
4, 36864, Note_on_c, 2, 67, 100
4, 36867, Note_on_c, 2, 65, 100
4, 36870, Note_on_c, 2, 58, 100
4, 36873, Note_on_c, 2, 53, 100
4, 36960, Note_off_c, 2, 53, 0
4, 36960, Note_off_c, 2, 58, 0
4, 36960, Note_off_c, 2, 65, 0
4, 36960, Note_off_c, 2, 67, 0
4, 36960, Note_on_c, 2, 53, 100
4, 36963, Note_on_c, 2, 60, 100
4, 36966, Note_on_c, 2, 65, 100
4, 36969, Note_on_c, 2, 69, 100
4, 37056, Note_off_c, 2, 69, 0
4, 37056, Note_off_c, 2, 65, 0
4, 37056, Note_off_c, 2, 60, 0
4, 37056, Note_off_c, 2, 53, 0
4, 37056, Note_on_c, 2, 69, 100
4, 37059, Note_on_c, 2, 65, 100
4, 37062, Note_on_c, 2, 60, 100
4, 37065, Note_on_c, 2, 53, 100
4, 37152, Note_off_c, 2, 53, 0
4, 37152, Note_off_c, 2, 60, 0
4, 37152, Note_off_c, 2, 65, 0
4, 37152, Note_off_c, 2, 69, 0
4, 37152, Note_on_c, 2, 53, 100
4, 37155, Note_on_c, 2, 60, 100
4, 37158, Note_on_c, 2, 65, 100
4, 37161, Note_on_c, 2, 69, 100
4, 37248, Note_off_c, 2, 69, 0
4, 37248, Note_off_c, 2, 65, 0
4, 37248, Note_off_c, 2, 60, 0
4, 37248, Note_off_c, 2, 53, 0
4, 37248, Note_on_c, 2, 69, 100
4, 37251, Note_on_c, 2, 65, 100
4, 37254, Note_on_c, 2, 60, 100
4, 37257, Note_on_c, 2, 53, 100
4, 37440, Note_off_c, 2, 53, 0
4, 37440, Note_off_c, 2, 60, 0
4, 37440, Note_off_c, 2, 65, 0
4, 37440, Note_off_c, 2, 69, 0
4, 37440, Note_on_c, 2, 53, 100
4, 37443, Note_on_c, 2, 58, 100
4, 37446, Note_on_c, 2, 65, 100
4, 37449, Note_on_c, 2, 67, 100
4, 37536, Note_off_c, 2, 67, 0
4, 37536, Note_off_c, 2, 65, 0
4, 37536, Note_off_c, 2, 58, 0
4, 37536, Note_off_c, 2, 53, 0
4, 37536, Note_on_c, 2, 69, 100
4, 37539, Note_on_c, 2, 65, 100
4, 37542, Note_on_c, 2, 60, 100
4, 37545, Note_on_c, 2, 53, 100
4, 37728, Note_off_c, 2, 53, 0
4, 37728, Note_off_c, 2, 60, 0
4, 37728, Note_off_c, 2, 65, 0
4, 37728, Note_off_c, 2, 69, 0
4, 37728, Note_on_c, 2, 53, 100
4, 37731, Note_on_c, 2, 58, 100
4, 37734, Note_on_c, 2, 65, 100
4, 37737, Note_on_c, 2, 67, 100
4, 37824, Note_off_c, 2, 67, 0
4, 37824, Note_off_c, 2, 65, 0
4, 37824, Note_off_c, 2, 58, 0
4, 37824, Note_off_c, 2, 53, 0
4, 37824, Note_on_c, 2, 69, 100
4, 37827, Note_on_c, 2, 65, 100
4, 37830, Note_on_c, 2, 60, 100
4, 37833, Note_on_c, 2, 53, 100
4, 38016, Note_off_c, 2, 53, 0
4, 38016, Note_off_c, 2, 60, 0
4, 38016, Note_off_c, 2, 65, 0
4, 38016, Note_off_c, 2, 69, 0
4, 38016, Note_on_c, 2, 53, 100
4, 38019, Note_on_c, 2, 58, 100
4, 38022, Note_on_c, 2, 65, 100
4, 38025, Note_on_c, 2, 67, 100
4, 38112, Note_off_c, 2, 67, 0
4, 38112, Note_off_c, 2, 65, 0
4, 38112, Note_off_c, 2, 58, 0
4, 38112, Note_off_c, 2, 53, 0
4, 38112, Note_on_c, 2, 69, 100
4, 38115, Note_on_c, 2, 65, 100
4, 38118, Note_on_c, 2, 60, 100
4, 38121, Note_on_c, 2, 53, 100
4, 38208, Note_off_c, 2, 53, 0
4, 38208, Note_off_c, 2, 60, 0
4, 38208, Note_off_c, 2, 65, 0
4, 38208, Note_off_c, 2, 69, 0
4, 38208, Note_on_c, 2, 53, 100
4, 38211, Note_on_c, 2, 60, 100
4, 38214, Note_on_c, 2, 65, 100
4, 38217, Note_on_c, 2, 69, 100
4, 38304, Note_off_c, 2, 69, 0
4, 38304, Note_off_c, 2, 65, 0
4, 38304, Note_off_c, 2, 60, 0
4, 38304, Note_off_c, 2, 53, 0
4, 38304, Note_on_c, 2, 67, 100
4, 38307, Note_on_c, 2, 65, 100
4, 38310, Note_on_c, 2, 58, 100
4, 38313, Note_on_c, 2, 53, 100
4, 38400, Note_off_c, 2, 53, 0
4, 38400, Note_off_c, 2, 58, 0
4, 38400, Note_off_c, 2, 65, 0
4, 38400, Note_off_c, 2, 67, 0
4, 38400, Note_on_c, 2, 67, 100
4, 38403, Note_on_c, 2, 62, 100
4, 38406, Note_on_c, 2, 58, 100
4, 38409, Note_on_c, 2, 55, 100
4, 38412, Note_on_c, 2, 50, 100
4, 38416, Note_on_c, 2, 43, 100
4, 38592, Note_off_c, 2, 43, 0
4, 38592, Note_off_c, 2, 50, 0
4, 38592, Note_off_c, 2, 55, 0
4, 38592, Note_off_c, 2, 58, 0
4, 38592, Note_off_c, 2, 62, 0
4, 38592, Note_off_c, 2, 67, 0
4, 38592, Note_on_c, 2, 43, 100
4, 38595, Note_on_c, 2, 50, 100
4, 38598, Note_on_c, 2, 55, 100
4, 38601, Note_on_c, 2, 58, 100
4, 38604, Note_on_c, 2, 62, 100
4, 38608, Note_on_c, 2, 67, 100
4, 38784, Note_off_c, 2, 67, 0
4, 38784, Note_off_c, 2, 62, 0
4, 38784, Note_off_c, 2, 58, 0
4, 38784, Note_off_c, 2, 55, 0
4, 38784, Note_off_c, 2, 50, 0
4, 38784, Note_off_c, 2, 43, 0
4, 38784, Note_on_c, 2, 67, 100
4, 38787, Note_on_c, 2, 62, 100
4, 38790, Note_on_c, 2, 58, 100
4, 38793, Note_on_c, 2, 55, 100
4, 38796, Note_on_c, 2, 50, 100
4, 38800, Note_on_c, 2, 43, 100
4, 38976, Note_off_c, 2, 43, 0
4, 38976, Note_off_c, 2, 50, 0
4, 38976, Note_off_c, 2, 55, 0
4, 38976, Note_off_c, 2, 58, 0
4, 38976, Note_off_c, 2, 62, 0
4, 38976, Note_off_c, 2, 67, 0
4, 38976, Note_on_c, 2, 43, 100
4, 38976, Note_on_c, 2, 58, 100
4, 38979, Note_on_c, 2, 50, 100
4, 38982, Note_on_c, 2, 55, 100
4, 38992, Note_on_c, 2, 67, 100
4, 38998, Note_on_c, 2, 62, 100
4, 39072, Note_off_c, 2, 62, 0
4, 39072, Note_off_c, 2, 67, 0
4, 39072, Note_off_c, 2, 55, 0
4, 39072, Note_off_c, 2, 50, 0
4, 39072, Note_off_c, 2, 58, 0
4, 39072, Note_off_c, 2, 43, 0
4, 39072, Note_on_c, 2, 67, 100
4, 39075, Note_on_c, 2, 62, 100
4, 39078, Note_on_c, 2, 58, 100
4, 39081, Note_on_c, 2, 55, 100
4, 39084, Note_on_c, 2, 50, 100
4, 39088, Note_on_c, 2, 43, 100
4, 39168, Note_off_c, 2, 43, 0
4, 39168, Note_off_c, 2, 50, 0
4, 39168, Note_off_c, 2, 55, 0
4, 39168, Note_off_c, 2, 58, 0
4, 39168, Note_off_c, 2, 62, 0
4, 39168, Note_off_c, 2, 67, 0
4, 39168, Note_on_c, 2, 69, 100
4, 39171, Note_on_c, 2, 65, 100
4, 39172, Note_on_c, 2, 60, 100
4, 39176, Note_on_c, 2, 53, 100
4, 39360, Note_off_c, 2, 53, 0
4, 39360, Note_off_c, 2, 60, 0
4, 39360, Note_off_c, 2, 65, 0
4, 39360, Note_off_c, 2, 69, 0
4, 39360, Note_on_c, 2, 53, 100
4, 39363, Note_on_c, 2, 60, 100
4, 39366, Note_on_c, 2, 65, 100
4, 39368, Note_on_c, 2, 69, 100
4, 39456, Note_off_c, 2, 69, 0
4, 39456, Note_off_c, 2, 65, 0
4, 39456, Note_off_c, 2, 60, 0
4, 39456, Note_off_c, 2, 53, 0
4, 39456, Note_on_c, 2, 69, 100
4, 39459, Note_on_c, 2, 65, 100
4, 39462, Note_on_c, 2, 60, 100
4, 39465, Note_on_c, 2, 53, 100
4, 39552, Note_off_c, 2, 53, 0
4, 39552, Note_off_c, 2, 60, 0
4, 39552, Note_off_c, 2, 65, 0
4, 39552, Note_off_c, 2, 69, 0
4, 39552, Note_on_c, 2, 53, 100
4, 39555, Note_on_c, 2, 58, 100
4, 39558, Note_on_c, 2, 65, 100
4, 39561, Note_on_c, 2, 67, 100
4, 39648, Note_off_c, 2, 67, 0
4, 39648, Note_off_c, 2, 65, 0
4, 39648, Note_off_c, 2, 58, 0
4, 39648, Note_off_c, 2, 53, 0
4, 39648, Note_on_c, 2, 69, 100
4, 39651, Note_on_c, 2, 65, 100
4, 39654, Note_on_c, 2, 60, 100
4, 39657, Note_on_c, 2, 53, 100
4, 39744, Note_off_c, 2, 53, 0
4, 39744, Note_off_c, 2, 60, 0
4, 39744, Note_off_c, 2, 65, 0
4, 39744, Note_off_c, 2, 69, 0
4, 39744, Note_on_c, 2, 53, 100
4, 39747, Note_on_c, 2, 60, 100
4, 39750, Note_on_c, 2, 65, 100
4, 39753, Note_on_c, 2, 69, 100
4, 39840, Note_off_c, 2, 69, 0
4, 39840, Note_off_c, 2, 65, 0
4, 39840, Note_off_c, 2, 60, 0
4, 39840, Note_off_c, 2, 53, 0
4, 39840, Note_on_c, 2, 67, 100
4, 39843, Note_on_c, 2, 65, 100
4, 39846, Note_on_c, 2, 58, 100
4, 39849, Note_on_c, 2, 53, 100
4, 39936, Note_off_c, 2, 53, 0
4, 39936, Note_off_c, 2, 58, 0
4, 39936, Note_off_c, 2, 65, 0
4, 39936, Note_off_c, 2, 67, 0
4, 39936, Note_on_c, 2, 53, 100
4, 39939, Note_on_c, 2, 60, 100
4, 39942, Note_on_c, 2, 65, 100
4, 39945, Note_on_c, 2, 69, 100
4, 40128, Note_off_c, 2, 69, 0
4, 40128, Note_off_c, 2, 65, 0
4, 40128, Note_off_c, 2, 60, 0
4, 40128, Note_off_c, 2, 53, 0
4, 40128, Note_on_c, 2, 69, 100
4, 40131, Note_on_c, 2, 65, 100
4, 40134, Note_on_c, 2, 60, 100
4, 40137, Note_on_c, 2, 53, 100
4, 40224, Note_off_c, 2, 53, 0
4, 40224, Note_off_c, 2, 60, 0
4, 40224, Note_off_c, 2, 65, 0
4, 40224, Note_off_c, 2, 69, 0
4, 40224, Note_on_c, 2, 53, 100
4, 40227, Note_on_c, 2, 60, 100
4, 40230, Note_on_c, 2, 65, 100
4, 40233, Note_on_c, 2, 69, 100
4, 40320, Note_off_c, 2, 69, 0
4, 40320, Note_off_c, 2, 65, 0
4, 40320, Note_off_c, 2, 60, 0
4, 40320, Note_off_c, 2, 53, 0
4, 40320, Note_on_c, 2, 69, 100
4, 40323, Note_on_c, 2, 65, 100
4, 40326, Note_on_c, 2, 60, 100
4, 40329, Note_on_c, 2, 53, 100
4, 40416, Note_off_c, 2, 53, 0
4, 40416, Note_off_c, 2, 60, 0
4, 40416, Note_off_c, 2, 65, 0
4, 40416, Note_off_c, 2, 69, 0
4, 40416, Note_on_c, 2, 53, 100
4, 40419, Note_on_c, 2, 60, 100
4, 40422, Note_on_c, 2, 65, 100
4, 40425, Note_on_c, 2, 70, 100
4, 40512, Note_off_c, 2, 70, 0
4, 40512, Note_off_c, 2, 65, 0
4, 40512, Note_off_c, 2, 60, 0
4, 40512, Note_off_c, 2, 53, 0
4, 40512, Note_on_c, 2, 69, 100
4, 40515, Note_on_c, 2, 65, 100
4, 40518, Note_on_c, 2, 60, 100
4, 40521, Note_on_c, 2, 53, 100
4, 40604, Note_off_c, 2, 65, 0
4, 40608, Note_off_c, 2, 69, 0
4, 40608, Note_off_c, 2, 60, 0
4, 40608, Note_off_c, 2, 53, 0
4, 40608, Note_on_c, 2, 53, 100
4, 40611, Note_on_c, 2, 58, 100
4, 40614, Note_on_c, 2, 65, 100
4, 40617, Note_on_c, 2, 67, 100
4, 40704, Note_off_c, 2, 67, 0
4, 40704, Note_off_c, 2, 65, 0
4, 40704, Note_off_c, 2, 58, 0
4, 40704, Note_off_c, 2, 53, 0
4, 40704, Note_on_c, 2, 67, 100
4, 40707, Note_on_c, 2, 64, 100
4, 40710, Note_on_c, 2, 60, 100
4, 40713, Note_on_c, 2, 55, 100
4, 40716, Note_on_c, 2, 48, 100
4, 40896, Note_off_c, 2, 48, 0
4, 40896, Note_off_c, 2, 55, 0
4, 40896, Note_off_c, 2, 60, 0
4, 40896, Note_off_c, 2, 64, 0
4, 40896, Note_off_c, 2, 67, 0
4, 40896, Note_on_c, 2, 48, 100
4, 40899, Note_on_c, 2, 55, 100
4, 40902, Note_on_c, 2, 60, 100
4, 40905, Note_on_c, 2, 64, 100
4, 40908, Note_on_c, 2, 67, 100
4, 41088, Note_off_c, 2, 67, 0
4, 41088, Note_off_c, 2, 64, 0
4, 41088, Note_off_c, 2, 60, 0
4, 41088, Note_off_c, 2, 55, 0
4, 41088, Note_off_c, 2, 48, 0
4, 41088, Note_on_c, 2, 67, 100
4, 41091, Note_on_c, 2, 62, 100
4, 41094, Note_on_c, 2, 58, 100
4, 41097, Note_on_c, 2, 53, 100
4, 41100, Note_on_c, 2, 48, 100
4, 41184, Note_off_c, 2, 48, 0
4, 41184, Note_off_c, 2, 53, 0
4, 41184, Note_off_c, 2, 58, 0
4, 41184, Note_off_c, 2, 62, 0
4, 41184, Note_off_c, 2, 67, 0
4, 41184, Note_on_c, 2, 48, 100
4, 41188, Note_on_c, 2, 55, 100
4, 41190, Note_on_c, 2, 60, 100
4, 41193, Note_on_c, 2, 64, 100
4, 41196, Note_on_c, 2, 67, 100
4, 41280, Note_off_c, 2, 67, 0
4, 41280, Note_off_c, 2, 64, 0
4, 41280, Note_off_c, 2, 60, 0
4, 41280, Note_off_c, 2, 55, 0
4, 41280, Note_off_c, 2, 48, 0
4, 41284, Note_on_c, 2, 67, 100
4, 41286, Note_on_c, 2, 64, 100
4, 41289, Note_on_c, 2, 55, 100
4, 41289, Note_on_c, 2, 60, 100
4, 41292, Note_on_c, 2, 48, 100
4, 41376, Note_off_c, 2, 48, 0
4, 41376, Note_off_c, 2, 60, 0
4, 41376, Note_off_c, 2, 55, 0
4, 41376, Note_off_c, 2, 64, 0
4, 41376, Note_off_c, 2, 67, 0
4, 41376, Note_on_c, 2, 48, 100
4, 41379, Note_on_c, 2, 53, 100
4, 41385, Note_on_c, 2, 62, 100
4, 41387, Note_on_c, 2, 58, 100
4, 41388, Note_on_c, 2, 67, 100
4, 41472, Note_off_c, 2, 67, 0
4, 41472, Note_off_c, 2, 58, 0
4, 41472, Note_off_c, 2, 62, 0
4, 41472, Note_off_c, 2, 53, 0
4, 41472, Note_off_c, 2, 48, 0
4, 41472, Note_on_c, 2, 67, 100
4, 41475, Note_on_c, 2, 63, 100
4, 41478, Note_on_c, 2, 60, 100
4, 41481, Note_on_c, 2, 55, 100
4, 41484, Note_on_c, 2, 48, 100
4, 41664, Note_off_c, 2, 48, 0
4, 41664, Note_off_c, 2, 55, 0
4, 41664, Note_off_c, 2, 60, 0
4, 41664, Note_off_c, 2, 63, 0
4, 41664, Note_off_c, 2, 67, 0
4, 41664, Note_on_c, 2, 48, 100
4, 41667, Note_on_c, 2, 55, 100
4, 41670, Note_on_c, 2, 60, 100
4, 41673, Note_on_c, 2, 63, 100
4, 41676, Note_on_c, 2, 67, 100
4, 41760, Note_off_c, 2, 67, 0
4, 41760, Note_off_c, 2, 63, 0
4, 41760, Note_off_c, 2, 60, 0
4, 41760, Note_off_c, 2, 55, 0
4, 41760, Note_off_c, 2, 48, 0
4, 41760, Note_on_c, 2, 67, 100
4, 41763, Note_on_c, 2, 63, 100
4, 41766, Note_on_c, 2, 60, 100
4, 41769, Note_on_c, 2, 55, 100
4, 41772, Note_on_c, 2, 48, 100
4, 41856, Note_off_c, 2, 48, 0
4, 41856, Note_off_c, 2, 55, 0
4, 41856, Note_off_c, 2, 60, 0
4, 41856, Note_off_c, 2, 63, 0
4, 41856, Note_off_c, 2, 67, 0
4, 41856, Note_on_c, 2, 48, 100
4, 41860, Note_on_c, 2, 55, 100
4, 41862, Note_on_c, 2, 60, 100
4, 41865, Note_on_c, 2, 63, 100
4, 41868, Note_on_c, 2, 67, 100
4, 41952, Note_off_c, 2, 67, 0
4, 41952, Note_off_c, 2, 63, 0
4, 41952, Note_off_c, 2, 60, 0
4, 41952, Note_off_c, 2, 55, 0
4, 41952, Note_off_c, 2, 48, 0
4, 41952, Note_on_c, 2, 67, 100
4, 41955, Note_on_c, 2, 62, 100
4, 41958, Note_on_c, 2, 60, 100
4, 41961, Note_on_c, 2, 55, 100
4, 41964, Note_on_c, 2, 48, 100
4, 42048, Note_off_c, 2, 48, 0
4, 42048, Note_off_c, 2, 55, 0
4, 42048, Note_off_c, 2, 60, 0
4, 42048, Note_off_c, 2, 62, 0
4, 42048, Note_off_c, 2, 67, 0
4, 42048, Note_on_c, 2, 48, 100
4, 42052, Note_on_c, 2, 55, 100
4, 42054, Note_on_c, 2, 60, 100
4, 42057, Note_on_c, 2, 63, 100
4, 42060, Note_on_c, 2, 67, 100
4, 42144, Note_off_c, 2, 67, 0
4, 42144, Note_off_c, 2, 63, 0
4, 42144, Note_off_c, 2, 60, 0
4, 42144, Note_off_c, 2, 55, 0
4, 42144, Note_off_c, 2, 48, 0
4, 42144, Note_on_c, 2, 67, 100
4, 42147, Note_on_c, 2, 63, 100
4, 42150, Note_on_c, 2, 60, 100
4, 42153, Note_on_c, 2, 55, 100
4, 42156, Note_on_c, 2, 48, 100
4, 42240, Note_off_c, 2, 48, 0
4, 42240, Note_off_c, 2, 55, 0
4, 42240, Note_off_c, 2, 60, 0
4, 42240, Note_off_c, 2, 63, 0
4, 42240, Note_off_c, 2, 67, 0
4, 42240, Note_on_c, 2, 67, 100
4, 42243, Note_on_c, 2, 62, 100
4, 42246, Note_on_c, 2, 58, 100
4, 42249, Note_on_c, 2, 55, 100
4, 42252, Note_on_c, 2, 50, 100
4, 42256, Note_on_c, 2, 43, 100
4, 42432, Note_off_c, 2, 43, 0
4, 42432, Note_off_c, 2, 50, 0
4, 42432, Note_off_c, 2, 55, 0
4, 42432, Note_off_c, 2, 58, 0
4, 42432, Note_off_c, 2, 62, 0
4, 42432, Note_off_c, 2, 67, 0
4, 42432, Note_on_c, 2, 43, 100
4, 42435, Note_on_c, 2, 50, 100
4, 42438, Note_on_c, 2, 55, 100
4, 42441, Note_on_c, 2, 58, 100
4, 42444, Note_on_c, 2, 62, 100
4, 42448, Note_on_c, 2, 67, 100
4, 42528, Note_off_c, 2, 67, 0
4, 42528, Note_off_c, 2, 62, 0
4, 42528, Note_off_c, 2, 58, 0
4, 42528, Note_off_c, 2, 55, 0
4, 42528, Note_off_c, 2, 50, 0
4, 42528, Note_off_c, 2, 43, 0
4, 42528, Note_on_c, 2, 67, 100
4, 42531, Note_on_c, 2, 62, 100
4, 42534, Note_on_c, 2, 58, 100
4, 42537, Note_on_c, 2, 55, 100
4, 42540, Note_on_c, 2, 50, 100
4, 42544, Note_on_c, 2, 43, 100
4, 42624, Note_off_c, 2, 43, 0
4, 42624, Note_off_c, 2, 50, 0
4, 42624, Note_off_c, 2, 55, 0
4, 42624, Note_off_c, 2, 58, 0
4, 42624, Note_off_c, 2, 62, 0
4, 42624, Note_off_c, 2, 67, 0
4, 42624, Note_on_c, 2, 43, 100
4, 42627, Note_on_c, 2, 50, 100
4, 42630, Note_on_c, 2, 55, 100
4, 42633, Note_on_c, 2, 58, 100
4, 42636, Note_on_c, 2, 62, 100
4, 42640, Note_on_c, 2, 67, 100
4, 42720, Note_off_c, 2, 67, 0
4, 42720, Note_off_c, 2, 62, 0
4, 42720, Note_off_c, 2, 58, 0
4, 42720, Note_off_c, 2, 55, 0
4, 42720, Note_off_c, 2, 50, 0
4, 42720, Note_off_c, 2, 43, 0
4, 42720, Note_on_c, 2, 67, 100
4, 42723, Note_on_c, 2, 62, 100
4, 42726, Note_on_c, 2, 58, 100
4, 42729, Note_on_c, 2, 55, 100
4, 42816, Note_off_c, 2, 55, 0
4, 42816, Note_off_c, 2, 58, 0
4, 42816, Note_off_c, 2, 62, 0
4, 42816, Note_off_c, 2, 67, 0
4, 42816, Note_on_c, 2, 55, 100
4, 42819, Note_on_c, 2, 58, 100
4, 42822, Note_on_c, 2, 62, 100
4, 42825, Note_on_c, 2, 67, 100
4, 42912, Note_off_c, 2, 67, 0
4, 42912, Note_off_c, 2, 62, 0
4, 42912, Note_off_c, 2, 58, 0
4, 42912, Note_off_c, 2, 55, 0
4, 42912, Note_on_c, 2, 67, 100
4, 42915, Note_on_c, 2, 62, 100
4, 42918, Note_on_c, 2, 58, 100
4, 42921, Note_on_c, 2, 53, 100
4, 42924, Note_on_c, 2, 48, 100
4, 42928, Note_on_c, 2, 43, 100
4, 43008, Note_off_c, 2, 43, 0
4, 43008, Note_off_c, 2, 48, 0
4, 43008, Note_off_c, 2, 53, 0
4, 43008, Note_off_c, 2, 58, 0
4, 43008, Note_off_c, 2, 62, 0
4, 43008, Note_off_c, 2, 67, 0
4, 43008, Note_on_c, 2, 69, 100
4, 43011, Note_on_c, 2, 65, 100
4, 43014, Note_on_c, 2, 60, 100
4, 43017, Note_on_c, 2, 53, 100
4, 43200, Note_off_c, 2, 53, 0
4, 43200, Note_off_c, 2, 60, 0
4, 43200, Note_off_c, 2, 65, 0
4, 43200, Note_off_c, 2, 69, 0
4, 43200, Note_on_c, 2, 53, 100
4, 43203, Note_on_c, 2, 60, 100
4, 43206, Note_on_c, 2, 65, 100
4, 43209, Note_on_c, 2, 69, 100
4, 43296, Note_off_c, 2, 69, 0
4, 43296, Note_off_c, 2, 65, 0
4, 43296, Note_off_c, 2, 60, 0
4, 43296, Note_off_c, 2, 53, 0
4, 43296, Note_on_c, 2, 69, 100
4, 43299, Note_on_c, 2, 65, 100
4, 43302, Note_on_c, 2, 60, 100
4, 43305, Note_on_c, 2, 53, 100
4, 43392, Note_off_c, 2, 53, 0
4, 43392, Note_off_c, 2, 60, 0
4, 43392, Note_off_c, 2, 65, 0
4, 43392, Note_off_c, 2, 69, 0
4, 43392, Note_on_c, 2, 53, 100
4, 43395, Note_on_c, 2, 60, 100
4, 43398, Note_on_c, 2, 65, 100
4, 43401, Note_on_c, 2, 69, 100
4, 43584, Note_off_c, 2, 69, 0
4, 43584, Note_off_c, 2, 65, 0
4, 43584, Note_off_c, 2, 60, 0
4, 43584, Note_off_c, 2, 53, 0
4, 43584, Note_on_c, 2, 67, 100
4, 43587, Note_on_c, 2, 65, 100
4, 43590, Note_on_c, 2, 58, 100
4, 43593, Note_on_c, 2, 53, 100
4, 43680, Note_off_c, 2, 53, 0
4, 43680, Note_off_c, 2, 58, 0
4, 43680, Note_off_c, 2, 65, 0
4, 43680, Note_off_c, 2, 67, 0
4, 43680, Note_on_c, 2, 53, 100
4, 43683, Note_on_c, 2, 60, 100
4, 43686, Note_on_c, 2, 65, 100
4, 43689, Note_on_c, 2, 69, 100
4, 43776, Note_off_c, 2, 69, 0
4, 43776, Note_off_c, 2, 65, 0
4, 43776, Note_off_c, 2, 60, 0
4, 43776, Note_off_c, 2, 53, 0
4, 43776, Note_on_c, 2, 69, 100
4, 43779, Note_on_c, 2, 65, 100
4, 43784, Note_on_c, 2, 60, 100
4, 43785, Note_on_c, 2, 53, 100
4, 43872, Note_off_c, 2, 53, 0
4, 43872, Note_off_c, 2, 60, 0
4, 43872, Note_off_c, 2, 65, 0
4, 43872, Note_off_c, 2, 69, 0
4, 43872, Note_on_c, 2, 53, 100
4, 43875, Note_on_c, 2, 58, 100
4, 43878, Note_on_c, 2, 65, 100
4, 43881, Note_on_c, 2, 67, 100
4, 43968, Note_off_c, 2, 67, 0
4, 43968, Note_off_c, 2, 65, 0
4, 43968, Note_off_c, 2, 58, 0
4, 43968, Note_off_c, 2, 53, 0
4, 43968, Note_on_c, 2, 69, 100
4, 43971, Note_on_c, 2, 65, 100
4, 43976, Note_on_c, 2, 60, 100
4, 43977, Note_on_c, 2, 53, 100
4, 44160, Note_off_c, 2, 53, 0
4, 44160, Note_off_c, 2, 60, 0
4, 44160, Note_off_c, 2, 65, 0
4, 44160, Note_off_c, 2, 69, 0
4, 44160, Note_on_c, 2, 53, 100
4, 44163, Note_on_c, 2, 60, 100
4, 44166, Note_on_c, 2, 65, 100
4, 44169, Note_on_c, 2, 69, 100
4, 44256, Note_off_c, 2, 69, 0
4, 44256, Note_off_c, 2, 65, 0
4, 44256, Note_off_c, 2, 60, 0
4, 44256, Note_off_c, 2, 53, 0
4, 44256, Note_on_c, 2, 70, 100
4, 44259, Note_on_c, 2, 65, 100
4, 44262, Note_on_c, 2, 60, 100
4, 44265, Note_on_c, 2, 53, 100
4, 44352, Note_off_c, 2, 53, 0
4, 44352, Note_off_c, 2, 60, 0
4, 44352, Note_off_c, 2, 65, 0
4, 44352, Note_off_c, 2, 70, 0
4, 44352, Note_on_c, 2, 53, 100
4, 44356, Note_on_c, 2, 60, 100
4, 44358, Note_on_c, 2, 65, 100
4, 44361, Note_on_c, 2, 69, 100
4, 44448, Note_off_c, 2, 69, 0
4, 44448, Note_off_c, 2, 65, 0
4, 44448, Note_off_c, 2, 60, 0
4, 44448, Note_off_c, 2, 53, 0
4, 44448, Note_on_c, 2, 67, 100
4, 44452, Note_on_c, 2, 65, 100
4, 44454, Note_on_c, 2, 58, 100
4, 44457, Note_on_c, 2, 53, 100
4, 44544, Note_off_c, 2, 53, 0
4, 44544, Note_off_c, 2, 58, 0
4, 44544, Note_off_c, 2, 65, 0
4, 44544, Note_off_c, 2, 67, 0
4, 44544, Note_on_c, 2, 67, 100
4, 44547, Note_on_c, 2, 62, 100
4, 44550, Note_on_c, 2, 58, 100
4, 44553, Note_on_c, 2, 55, 100
4, 44556, Note_on_c, 2, 50, 100
4, 44560, Note_on_c, 2, 43, 100
4, 44736, Note_off_c, 2, 43, 0
4, 44736, Note_off_c, 2, 50, 0
4, 44736, Note_off_c, 2, 55, 0
4, 44736, Note_off_c, 2, 58, 0
4, 44736, Note_off_c, 2, 62, 0
4, 44736, Note_off_c, 2, 67, 0
4, 44736, Note_on_c, 2, 43, 100
4, 44739, Note_on_c, 2, 50, 100
4, 44742, Note_on_c, 2, 55, 100
4, 44745, Note_on_c, 2, 58, 100
4, 44748, Note_on_c, 2, 62, 100
4, 44752, Note_on_c, 2, 67, 100
4, 44928, Note_off_c, 2, 67, 0
4, 44928, Note_off_c, 2, 62, 0
4, 44928, Note_off_c, 2, 58, 0
4, 44928, Note_off_c, 2, 55, 0
4, 44928, Note_off_c, 2, 50, 0
4, 44928, Note_off_c, 2, 43, 0
4, 44928, Note_on_c, 2, 67, 100
4, 44931, Note_on_c, 2, 62, 100
4, 44934, Note_on_c, 2, 58, 100
4, 44937, Note_on_c, 2, 55, 100
4, 44940, Note_on_c, 2, 50, 100
4, 44944, Note_on_c, 2, 43, 100
4, 45120, Note_off_c, 2, 43, 0
4, 45120, Note_off_c, 2, 50, 0
4, 45120, Note_off_c, 2, 55, 0
4, 45120, Note_off_c, 2, 58, 0
4, 45120, Note_off_c, 2, 62, 0
4, 45120, Note_off_c, 2, 67, 0
4, 45120, Note_on_c, 2, 43, 100
4, 45120, Note_on_c, 2, 58, 100
4, 45123, Note_on_c, 2, 50, 100
4, 45126, Note_on_c, 2, 55, 100
4, 45136, Note_on_c, 2, 67, 100
4, 45142, Note_on_c, 2, 62, 100
4, 45216, Note_off_c, 2, 62, 0
4, 45216, Note_off_c, 2, 67, 0
4, 45216, Note_off_c, 2, 55, 0
4, 45216, Note_off_c, 2, 50, 0
4, 45216, Note_off_c, 2, 58, 0
4, 45216, Note_off_c, 2, 43, 0
4, 45216, Note_on_c, 2, 67, 100
4, 45219, Note_on_c, 2, 62, 100
4, 45222, Note_on_c, 2, 58, 100
4, 45225, Note_on_c, 2, 55, 100
4, 45228, Note_on_c, 2, 50, 100
4, 45232, Note_on_c, 2, 43, 100
4, 45312, Note_off_c, 2, 43, 0
4, 45312, Note_off_c, 2, 50, 0
4, 45312, Note_off_c, 2, 55, 0
4, 45312, Note_off_c, 2, 58, 0
4, 45312, Note_off_c, 2, 62, 0
4, 45312, Note_off_c, 2, 67, 0
4, 45312, Note_on_c, 2, 69, 100
4, 45315, Note_on_c, 2, 65, 100
4, 45316, Note_on_c, 2, 60, 100
4, 45320, Note_on_c, 2, 53, 100
4, 45504, Note_off_c, 2, 53, 0
4, 45504, Note_off_c, 2, 60, 0
4, 45504, Note_off_c, 2, 65, 0
4, 45504, Note_off_c, 2, 69, 0
4, 45504, Note_on_c, 2, 53, 100
4, 45507, Note_on_c, 2, 60, 100
4, 45510, Note_on_c, 2, 65, 100
4, 45512, Note_on_c, 2, 69, 100
4, 45600, Note_off_c, 2, 69, 0
4, 45600, Note_off_c, 2, 65, 0
4, 45600, Note_off_c, 2, 60, 0
4, 45600, Note_off_c, 2, 53, 0
4, 45600, Note_on_c, 2, 69, 100
4, 45603, Note_on_c, 2, 65, 100
4, 45606, Note_on_c, 2, 60, 100
4, 45609, Note_on_c, 2, 53, 100
4, 45696, Note_off_c, 2, 53, 0
4, 45696, Note_off_c, 2, 60, 0
4, 45696, Note_off_c, 2, 65, 0
4, 45696, Note_off_c, 2, 69, 0
4, 45696, Note_on_c, 2, 53, 100
4, 45699, Note_on_c, 2, 58, 100
4, 45702, Note_on_c, 2, 65, 100
4, 45705, Note_on_c, 2, 67, 100
4, 45792, Note_off_c, 2, 67, 0
4, 45792, Note_off_c, 2, 65, 0
4, 45792, Note_off_c, 2, 58, 0
4, 45792, Note_off_c, 2, 53, 0
4, 45792, Note_on_c, 2, 69, 100
4, 45795, Note_on_c, 2, 65, 100
4, 45798, Note_on_c, 2, 60, 100
4, 45801, Note_on_c, 2, 53, 100
4, 45888, Note_off_c, 2, 53, 0
4, 45888, Note_off_c, 2, 60, 0
4, 45888, Note_off_c, 2, 65, 0
4, 45888, Note_off_c, 2, 69, 0
4, 45888, Note_on_c, 2, 53, 100
4, 45891, Note_on_c, 2, 60, 100
4, 45894, Note_on_c, 2, 65, 100
4, 45897, Note_on_c, 2, 69, 100
4, 45984, Note_off_c, 2, 69, 0
4, 45984, Note_off_c, 2, 65, 0
4, 45984, Note_off_c, 2, 60, 0
4, 45984, Note_off_c, 2, 53, 0
4, 45984, Note_on_c, 2, 67, 100
4, 45987, Note_on_c, 2, 65, 100
4, 45990, Note_on_c, 2, 58, 100
4, 45993, Note_on_c, 2, 53, 100
4, 46080, Note_off_c, 2, 53, 0
4, 46080, Note_off_c, 2, 58, 0
4, 46080, Note_off_c, 2, 65, 0
4, 46080, Note_off_c, 2, 67, 0
4, 46080, Note_on_c, 2, 53, 100
4, 46083, Note_on_c, 2, 60, 100
4, 46086, Note_on_c, 2, 65, 100
4, 46089, Note_on_c, 2, 69, 100
4, 46272, Note_off_c, 2, 69, 0
4, 46272, Note_off_c, 2, 65, 0
4, 46272, Note_off_c, 2, 60, 0
4, 46272, Note_off_c, 2, 53, 0
4, 46272, Note_on_c, 2, 69, 100
4, 46275, Note_on_c, 2, 65, 100
4, 46278, Note_on_c, 2, 60, 100
4, 46281, Note_on_c, 2, 53, 100
4, 46368, Note_off_c, 2, 53, 0
4, 46368, Note_off_c, 2, 60, 0
4, 46368, Note_off_c, 2, 65, 0
4, 46368, Note_off_c, 2, 69, 0
4, 46368, Note_on_c, 2, 53, 100
4, 46371, Note_on_c, 2, 60, 100
4, 46374, Note_on_c, 2, 65, 100
4, 46377, Note_on_c, 2, 69, 100
4, 46464, Note_off_c, 2, 69, 0
4, 46464, Note_off_c, 2, 65, 0
4, 46464, Note_off_c, 2, 60, 0
4, 46464, Note_off_c, 2, 53, 0
4, 46464, Note_on_c, 2, 69, 100
4, 46467, Note_on_c, 2, 65, 100
4, 46470, Note_on_c, 2, 60, 100
4, 46473, Note_on_c, 2, 53, 100
4, 46560, Note_off_c, 2, 53, 0
4, 46560, Note_off_c, 2, 60, 0
4, 46560, Note_off_c, 2, 65, 0
4, 46560, Note_off_c, 2, 69, 0
4, 46560, Note_on_c, 2, 53, 100
4, 46563, Note_on_c, 2, 60, 100
4, 46566, Note_on_c, 2, 65, 100
4, 46569, Note_on_c, 2, 70, 100
4, 46656, Note_off_c, 2, 70, 0
4, 46656, Note_off_c, 2, 65, 0
4, 46656, Note_off_c, 2, 60, 0
4, 46656, Note_off_c, 2, 53, 0
4, 46656, Note_on_c, 2, 69, 100
4, 46659, Note_on_c, 2, 65, 100
4, 46662, Note_on_c, 2, 60, 100
4, 46665, Note_on_c, 2, 53, 100
4, 46748, Note_off_c, 2, 65, 0
4, 46752, Note_off_c, 2, 69, 0
4, 46752, Note_off_c, 2, 60, 0
4, 46752, Note_off_c, 2, 53, 0
4, 46752, Note_on_c, 2, 53, 100
4, 46755, Note_on_c, 2, 58, 100
4, 46758, Note_on_c, 2, 65, 100
4, 46761, Note_on_c, 2, 67, 100
4, 46848, Note_off_c, 2, 67, 0
4, 46848, Note_off_c, 2, 65, 0
4, 46848, Note_off_c, 2, 58, 0
4, 46848, Note_off_c, 2, 53, 0
4, 46848, Note_on_c, 2, 67, 100
4, 46851, Note_on_c, 2, 64, 100
4, 46854, Note_on_c, 2, 60, 100
4, 46857, Note_on_c, 2, 55, 100
4, 46860, Note_on_c, 2, 48, 100
4, 47040, Note_off_c, 2, 48, 0
4, 47040, Note_off_c, 2, 55, 0
4, 47040, Note_off_c, 2, 60, 0
4, 47040, Note_off_c, 2, 64, 0
4, 47040, Note_off_c, 2, 67, 0
4, 47040, Note_on_c, 2, 48, 100
4, 47043, Note_on_c, 2, 55, 100
4, 47046, Note_on_c, 2, 60, 100
4, 47049, Note_on_c, 2, 64, 100
4, 47052, Note_on_c, 2, 67, 100
4, 47232, Note_off_c, 2, 67, 0
4, 47232, Note_off_c, 2, 64, 0
4, 47232, Note_off_c, 2, 60, 0
4, 47232, Note_off_c, 2, 55, 0
4, 47232, Note_off_c, 2, 48, 0
4, 47232, Note_on_c, 2, 67, 100
4, 47235, Note_on_c, 2, 62, 100
4, 47238, Note_on_c, 2, 58, 100
4, 47241, Note_on_c, 2, 53, 100
4, 47244, Note_on_c, 2, 48, 100
4, 47328, Note_off_c, 2, 48, 0
4, 47328, Note_off_c, 2, 53, 0
4, 47328, Note_off_c, 2, 58, 0
4, 47328, Note_off_c, 2, 62, 0
4, 47328, Note_off_c, 2, 67, 0
4, 47328, Note_on_c, 2, 48, 100
4, 47332, Note_on_c, 2, 55, 100
4, 47334, Note_on_c, 2, 60, 100
4, 47337, Note_on_c, 2, 64, 100
4, 47340, Note_on_c, 2, 67, 100
4, 47424, Note_off_c, 2, 67, 0
4, 47424, Note_off_c, 2, 64, 0
4, 47424, Note_off_c, 2, 60, 0
4, 47424, Note_off_c, 2, 55, 0
4, 47424, Note_off_c, 2, 48, 0
4, 47428, Note_on_c, 2, 67, 100
4, 47430, Note_on_c, 2, 64, 100
4, 47433, Note_on_c, 2, 55, 100
4, 47433, Note_on_c, 2, 60, 100
4, 47436, Note_on_c, 2, 48, 100
4, 47520, Note_off_c, 2, 48, 0
4, 47520, Note_off_c, 2, 60, 0
4, 47520, Note_off_c, 2, 55, 0
4, 47520, Note_off_c, 2, 64, 0
4, 47520, Note_off_c, 2, 67, 0
4, 47520, Note_on_c, 2, 48, 100
4, 47523, Note_on_c, 2, 53, 100
4, 47529, Note_on_c, 2, 62, 100
4, 47531, Note_on_c, 2, 58, 100
4, 47532, Note_on_c, 2, 67, 100
4, 47616, Note_off_c, 2, 67, 0
4, 47616, Note_off_c, 2, 58, 0
4, 47616, Note_off_c, 2, 62, 0
4, 47616, Note_off_c, 2, 53, 0
4, 47616, Note_off_c, 2, 48, 0
4, 47616, Note_on_c, 2, 67, 100
4, 47619, Note_on_c, 2, 63, 100
4, 47622, Note_on_c, 2, 60, 100
4, 47625, Note_on_c, 2, 55, 100
4, 47628, Note_on_c, 2, 48, 100
4, 47808, Note_off_c, 2, 48, 0
4, 47808, Note_off_c, 2, 55, 0
4, 47808, Note_off_c, 2, 60, 0
4, 47808, Note_off_c, 2, 63, 0
4, 47808, Note_off_c, 2, 67, 0
4, 47808, Note_on_c, 2, 48, 100
4, 47811, Note_on_c, 2, 55, 100
4, 47814, Note_on_c, 2, 60, 100
4, 47817, Note_on_c, 2, 63, 100
4, 47820, Note_on_c, 2, 67, 100
4, 47904, Note_off_c, 2, 67, 0
4, 47904, Note_off_c, 2, 63, 0
4, 47904, Note_off_c, 2, 60, 0
4, 47904, Note_off_c, 2, 55, 0
4, 47904, Note_off_c, 2, 48, 0
4, 47904, Note_on_c, 2, 67, 100
4, 47907, Note_on_c, 2, 63, 100
4, 47910, Note_on_c, 2, 60, 100
4, 47913, Note_on_c, 2, 55, 100
4, 47916, Note_on_c, 2, 48, 100
4, 48000, Note_off_c, 2, 48, 0
4, 48000, Note_off_c, 2, 55, 0
4, 48000, Note_off_c, 2, 60, 0
4, 48000, Note_off_c, 2, 63, 0
4, 48000, Note_off_c, 2, 67, 0
4, 48000, Note_on_c, 2, 48, 100
4, 48004, Note_on_c, 2, 55, 100
4, 48006, Note_on_c, 2, 60, 100
4, 48009, Note_on_c, 2, 63, 100
4, 48012, Note_on_c, 2, 67, 100
4, 48096, Note_off_c, 2, 67, 0
4, 48096, Note_off_c, 2, 63, 0
4, 48096, Note_off_c, 2, 60, 0
4, 48096, Note_off_c, 2, 55, 0
4, 48096, Note_off_c, 2, 48, 0
4, 48096, Note_on_c, 2, 67, 100
4, 48099, Note_on_c, 2, 62, 100
4, 48102, Note_on_c, 2, 60, 100
4, 48105, Note_on_c, 2, 55, 100
4, 48108, Note_on_c, 2, 48, 100
4, 48192, Note_off_c, 2, 48, 0
4, 48192, Note_off_c, 2, 55, 0
4, 48192, Note_off_c, 2, 60, 0
4, 48192, Note_off_c, 2, 62, 0
4, 48192, Note_off_c, 2, 67, 0
4, 48192, Note_on_c, 2, 48, 100
4, 48196, Note_on_c, 2, 55, 100
4, 48198, Note_on_c, 2, 60, 100
4, 48201, Note_on_c, 2, 63, 100
4, 48204, Note_on_c, 2, 67, 100
4, 48288, Note_off_c, 2, 67, 0
4, 48288, Note_off_c, 2, 63, 0
4, 48288, Note_off_c, 2, 60, 0
4, 48288, Note_off_c, 2, 55, 0
4, 48288, Note_off_c, 2, 48, 0
4, 48288, Note_on_c, 2, 67, 100
4, 48291, Note_on_c, 2, 63, 100
4, 48294, Note_on_c, 2, 60, 100
4, 48297, Note_on_c, 2, 55, 100
4, 48300, Note_on_c, 2, 48, 100
4, 48384, Note_off_c, 2, 48, 0
4, 48384, Note_off_c, 2, 55, 0
4, 48384, Note_off_c, 2, 60, 0
4, 48384, Note_off_c, 2, 63, 0
4, 48384, Note_off_c, 2, 67, 0
4, 48384, Note_on_c, 2, 67, 100
4, 48387, Note_on_c, 2, 62, 100
4, 48390, Note_on_c, 2, 58, 100
4, 48393, Note_on_c, 2, 55, 100
4, 48396, Note_on_c, 2, 50, 100
4, 48400, Note_on_c, 2, 43, 100
4, 48576, Note_off_c, 2, 43, 0
4, 48576, Note_off_c, 2, 50, 0
4, 48576, Note_off_c, 2, 55, 0
4, 48576, Note_off_c, 2, 58, 0
4, 48576, Note_off_c, 2, 62, 0
4, 48576, Note_off_c, 2, 67, 0
4, 48576, Note_on_c, 2, 43, 100
4, 48579, Note_on_c, 2, 50, 100
4, 48582, Note_on_c, 2, 55, 100
4, 48585, Note_on_c, 2, 58, 100
4, 48588, Note_on_c, 2, 62, 100
4, 48592, Note_on_c, 2, 67, 100
4, 48672, Note_off_c, 2, 67, 0
4, 48672, Note_off_c, 2, 62, 0
4, 48672, Note_off_c, 2, 58, 0
4, 48672, Note_off_c, 2, 55, 0
4, 48672, Note_off_c, 2, 50, 0
4, 48672, Note_off_c, 2, 43, 0
4, 48672, Note_on_c, 2, 67, 100
4, 48675, Note_on_c, 2, 62, 100
4, 48678, Note_on_c, 2, 58, 100
4, 48681, Note_on_c, 2, 55, 100
4, 48684, Note_on_c, 2, 50, 100
4, 48688, Note_on_c, 2, 43, 100
4, 48768, Note_off_c, 2, 43, 0
4, 48768, Note_off_c, 2, 50, 0
4, 48768, Note_off_c, 2, 55, 0
4, 48768, Note_off_c, 2, 58, 0
4, 48768, Note_off_c, 2, 62, 0
4, 48768, Note_off_c, 2, 67, 0
4, 48768, Note_on_c, 2, 43, 100
4, 48771, Note_on_c, 2, 50, 100
4, 48774, Note_on_c, 2, 55, 100
4, 48777, Note_on_c, 2, 58, 100
4, 48780, Note_on_c, 2, 62, 100
4, 48784, Note_on_c, 2, 67, 100
4, 48864, Note_off_c, 2, 67, 0
4, 48864, Note_off_c, 2, 62, 0
4, 48864, Note_off_c, 2, 58, 0
4, 48864, Note_off_c, 2, 55, 0
4, 48864, Note_off_c, 2, 50, 0
4, 48864, Note_off_c, 2, 43, 0
4, 48864, Note_on_c, 2, 67, 100
4, 48867, Note_on_c, 2, 62, 100
4, 48870, Note_on_c, 2, 58, 100
4, 48873, Note_on_c, 2, 55, 100
4, 48960, Note_off_c, 2, 55, 0
4, 48960, Note_off_c, 2, 58, 0
4, 48960, Note_off_c, 2, 62, 0
4, 48960, Note_off_c, 2, 67, 0
4, 48960, Note_on_c, 2, 55, 100
4, 48963, Note_on_c, 2, 58, 100
4, 48966, Note_on_c, 2, 62, 100
4, 48969, Note_on_c, 2, 67, 100
4, 49056, Note_off_c, 2, 67, 0
4, 49056, Note_off_c, 2, 62, 0
4, 49056, Note_off_c, 2, 58, 0
4, 49056, Note_off_c, 2, 55, 0
4, 49056, Note_on_c, 2, 67, 100
4, 49059, Note_on_c, 2, 62, 100
4, 49062, Note_on_c, 2, 58, 100
4, 49065, Note_on_c, 2, 53, 100
4, 49068, Note_on_c, 2, 48, 100
4, 49072, Note_on_c, 2, 43, 100
4, 49152, Note_off_c, 2, 43, 0
4, 49152, Note_off_c, 2, 48, 0
4, 49152, Note_off_c, 2, 53, 0
4, 49152, Note_off_c, 2, 58, 0
4, 49152, Note_off_c, 2, 62, 0
4, 49152, Note_off_c, 2, 67, 0
4, 49152, Note_on_c, 2, 69, 100
4, 49155, Note_on_c, 2, 65, 100
4, 49158, Note_on_c, 2, 60, 100
4, 49161, Note_on_c, 2, 53, 100
4, 49344, Note_off_c, 2, 53, 0
4, 49344, Note_off_c, 2, 60, 0
4, 49344, Note_off_c, 2, 65, 0
4, 49344, Note_off_c, 2, 69, 0
4, 49344, Note_on_c, 2, 53, 100
4, 49347, Note_on_c, 2, 60, 100
4, 49350, Note_on_c, 2, 65, 100
4, 49353, Note_on_c, 2, 69, 100
4, 49440, Note_off_c, 2, 69, 0
4, 49440, Note_off_c, 2, 65, 0
4, 49440, Note_off_c, 2, 60, 0
4, 49440, Note_off_c, 2, 53, 0
4, 49440, Note_on_c, 2, 69, 100
4, 49443, Note_on_c, 2, 65, 100
4, 49446, Note_on_c, 2, 60, 100
4, 49449, Note_on_c, 2, 53, 100
4, 49536, Note_off_c, 2, 53, 0
4, 49536, Note_off_c, 2, 60, 0
4, 49536, Note_off_c, 2, 65, 0
4, 49536, Note_off_c, 2, 69, 0
4, 49536, Note_on_c, 2, 53, 100
4, 49539, Note_on_c, 2, 60, 100
4, 49542, Note_on_c, 2, 65, 100
4, 49545, Note_on_c, 2, 69, 100
4, 49728, Note_off_c, 2, 69, 0
4, 49728, Note_off_c, 2, 65, 0
4, 49728, Note_off_c, 2, 60, 0
4, 49728, Note_off_c, 2, 53, 0
4, 49728, Note_on_c, 2, 67, 100
4, 49731, Note_on_c, 2, 65, 100
4, 49734, Note_on_c, 2, 58, 100
4, 49737, Note_on_c, 2, 53, 100
4, 49824, Note_off_c, 2, 53, 0
4, 49824, Note_off_c, 2, 58, 0
4, 49824, Note_off_c, 2, 65, 0
4, 49824, Note_off_c, 2, 67, 0
4, 49824, Note_on_c, 2, 53, 100
4, 49827, Note_on_c, 2, 60, 100
4, 49830, Note_on_c, 2, 65, 100
4, 49833, Note_on_c, 2, 69, 100
4, 49920, Note_off_c, 2, 69, 0
4, 49920, Note_off_c, 2, 65, 0
4, 49920, Note_off_c, 2, 60, 0
4, 49920, Note_off_c, 2, 53, 0
4, 49920, Note_on_c, 2, 69, 100
4, 49923, Note_on_c, 2, 65, 100
4, 49928, Note_on_c, 2, 60, 100
4, 49929, Note_on_c, 2, 53, 100
4, 50016, Note_off_c, 2, 53, 0
4, 50016, Note_off_c, 2, 60, 0
4, 50016, Note_off_c, 2, 65, 0
4, 50016, Note_off_c, 2, 69, 0
4, 50016, Note_on_c, 2, 53, 100
4, 50019, Note_on_c, 2, 58, 100
4, 50022, Note_on_c, 2, 65, 100
4, 50025, Note_on_c, 2, 67, 100
4, 50112, Note_off_c, 2, 67, 0
4, 50112, Note_off_c, 2, 65, 0
4, 50112, Note_off_c, 2, 58, 0
4, 50112, Note_off_c, 2, 53, 0
4, 50112, Note_on_c, 2, 69, 100
4, 50115, Note_on_c, 2, 65, 100
4, 50120, Note_on_c, 2, 60, 100
4, 50121, Note_on_c, 2, 53, 100
4, 50304, Note_off_c, 2, 53, 0
4, 50304, Note_off_c, 2, 60, 0
4, 50304, Note_off_c, 2, 65, 0
4, 50304, Note_off_c, 2, 69, 0
4, 50304, Note_on_c, 2, 53, 100
4, 50307, Note_on_c, 2, 60, 100
4, 50310, Note_on_c, 2, 65, 100
4, 50313, Note_on_c, 2, 69, 100
4, 50400, Note_off_c, 2, 69, 0
4, 50400, Note_off_c, 2, 65, 0
4, 50400, Note_off_c, 2, 60, 0
4, 50400, Note_off_c, 2, 53, 0
4, 50400, Note_on_c, 2, 70, 100
4, 50403, Note_on_c, 2, 65, 100
4, 50406, Note_on_c, 2, 60, 100
4, 50409, Note_on_c, 2, 53, 100
4, 50496, Note_off_c, 2, 53, 0
4, 50496, Note_off_c, 2, 60, 0
4, 50496, Note_off_c, 2, 65, 0
4, 50496, Note_off_c, 2, 70, 0
4, 50496, Note_on_c, 2, 53, 100
4, 50500, Note_on_c, 2, 60, 100
4, 50502, Note_on_c, 2, 65, 100
4, 50505, Note_on_c, 2, 69, 100
4, 50592, Note_off_c, 2, 69, 0
4, 50592, Note_off_c, 2, 65, 0
4, 50592, Note_off_c, 2, 60, 0
4, 50592, Note_off_c, 2, 53, 0
4, 50592, Note_on_c, 2, 67, 100
4, 50596, Note_on_c, 2, 65, 100
4, 50598, Note_on_c, 2, 58, 100
4, 50601, Note_on_c, 2, 53, 100
4, 50688, Note_off_c, 2, 53, 0
4, 50688, Note_off_c, 2, 58, 0
4, 50688, Note_off_c, 2, 65, 0
4, 50688, Note_off_c, 2, 67, 0
4, 50688, Note_on_c, 2, 67, 100
4, 50691, Note_on_c, 2, 65, 100
4, 50694, Note_on_c, 2, 58, 100
4, 50697, Note_on_c, 2, 53, 100
4, 50784, Note_off_c, 2, 53, 0
4, 50784, Note_off_c, 2, 58, 0
4, 50784, Note_off_c, 2, 65, 0
4, 50784, Note_off_c, 2, 67, 0
4, 50784, Note_on_c, 2, 53, 100
4, 50787, Note_on_c, 2, 60, 100
4, 50790, Note_on_c, 2, 65, 100
4, 50793, Note_on_c, 2, 69, 100
4, 50880, Note_off_c, 2, 69, 0
4, 50880, Note_off_c, 2, 65, 0
4, 50880, Note_off_c, 2, 60, 0
4, 50880, Note_off_c, 2, 53, 0
4, 50880, Note_on_c, 2, 69, 100
4, 50883, Note_on_c, 2, 65, 100
4, 50886, Note_on_c, 2, 60, 100
4, 50889, Note_on_c, 2, 53, 100
4, 50976, Note_off_c, 2, 53, 0
4, 50976, Note_off_c, 2, 60, 0
4, 50976, Note_off_c, 2, 65, 0
4, 50976, Note_off_c, 2, 69, 0
4, 50976, Note_on_c, 2, 53, 100
4, 50979, Note_on_c, 2, 58, 100
4, 50982, Note_on_c, 2, 65, 100
4, 50985, Note_on_c, 2, 67, 100
4, 51072, Note_off_c, 2, 67, 0
4, 51072, Note_off_c, 2, 65, 0
4, 51072, Note_off_c, 2, 58, 0
4, 51072, Note_off_c, 2, 53, 0
4, 51072, Note_on_c, 2, 69, 100
4, 51075, Note_on_c, 2, 65, 100
4, 51078, Note_on_c, 2, 60, 100
4, 51081, Note_on_c, 2, 53, 100
4, 51264, Note_off_c, 2, 53, 0
4, 51264, Note_off_c, 2, 60, 0
4, 51264, Note_off_c, 2, 65, 0
4, 51264, Note_off_c, 2, 69, 0
4, 51264, Note_on_c, 2, 69, 100
4, 51267, Note_on_c, 2, 65, 100
4, 51270, Note_on_c, 2, 60, 100
4, 51273, Note_on_c, 2, 53, 100
4, 51456, Note_off_c, 2, 53, 0
4, 51456, Note_off_c, 2, 60, 0
4, 51456, Note_off_c, 2, 65, 0
4, 51456, Note_off_c, 2, 69, 0
4, 51456, Note_on_c, 2, 53, 100
4, 51459, Note_on_c, 2, 60, 100
4, 51462, Note_on_c, 2, 65, 100
4, 51465, Note_on_c, 2, 69, 100
4, 51552, Note_off_c, 2, 69, 0
4, 51552, Note_off_c, 2, 65, 0
4, 51552, Note_off_c, 2, 60, 0
4, 51552, Note_off_c, 2, 53, 0
4, 51552, Note_on_c, 2, 69, 100
4, 51552, Note_on_c, 2, 53, 100
4, 51555, Note_on_c, 2, 60, 100
4, 51558, Note_on_c, 2, 65, 100
4, 51638, Note_off_c, 2, 69, 0
4, 51648, Note_off_c, 2, 53, 0
4, 51648, Note_off_c, 2, 60, 0
4, 51648, Note_off_c, 2, 65, 0
4, 51648, Note_on_c, 2, 69, 100
4, 51651, Note_on_c, 2, 65, 100
4, 51654, Note_on_c, 2, 60, 100
4, 51657, Note_on_c, 2, 53, 100
4, 51840, Note_off_c, 2, 53, 0
4, 51840, Note_off_c, 2, 60, 0
4, 51840, Note_off_c, 2, 65, 0
4, 51840, Note_off_c, 2, 69, 0
4, 51840, Note_on_c, 2, 53, 100
4, 51843, Note_on_c, 2, 60, 100
4, 51846, Note_on_c, 2, 65, 100
4, 51849, Note_on_c, 2, 69, 100
4, 51936, Note_off_c, 2, 69, 0
4, 51936, Note_off_c, 2, 65, 0
4, 51936, Note_off_c, 2, 60, 0
4, 51936, Note_off_c, 2, 53, 0
4, 51936, Note_on_c, 2, 69, 100
4, 51939, Note_on_c, 2, 65, 100
4, 51942, Note_on_c, 2, 60, 100
4, 51945, Note_on_c, 2, 53, 100
4, 52032, Note_off_c, 2, 53, 0
4, 52032, Note_off_c, 2, 60, 0
4, 52032, Note_off_c, 2, 65, 0
4, 52032, Note_off_c, 2, 69, 0
4, 52032, Note_on_c, 2, 53, 100
4, 52035, Note_on_c, 2, 60, 100
4, 52038, Note_on_c, 2, 65, 100
4, 52041, Note_on_c, 2, 69, 100
4, 52128, Note_off_c, 2, 69, 0
4, 52128, Note_off_c, 2, 65, 0
4, 52128, Note_off_c, 2, 60, 0
4, 52128, Note_off_c, 2, 53, 0
4, 52128, Note_on_c, 2, 69, 100
4, 52131, Note_on_c, 2, 65, 100
4, 52134, Note_on_c, 2, 60, 100
4, 52137, Note_on_c, 2, 53, 100
4, 52224, Note_off_c, 2, 53, 0
4, 52224, Note_off_c, 2, 60, 0
4, 52224, Note_off_c, 2, 65, 0
4, 52224, Note_off_c, 2, 69, 0
4, 52227, Note_on_c, 2, 62, 110
4, 52230, Note_on_c, 2, 58, 110
4, 52233, Note_on_c, 2, 55, 110
4, 52233, Control_c, 2, 91, 127
4, 52236, Note_on_c, 2, 50, 110
4, 52240, Note_on_c, 2, 43, 110
4, 52246, Note_off_c, 2, 62, 0
4, 52248, Note_off_c, 2, 58, 0
4, 52251, Note_off_c, 2, 55, 0
4, 52252, Note_off_c, 2, 50, 0
4, 52256, Note_off_c, 2, 43, 0
4, 52326, Note_on_c, 2, 55, 100
4, 52329, Note_on_c, 2, 58, 100
4, 52332, Note_on_c, 2, 62, 100
4, 52336, Note_on_c, 2, 67, 100
4, 52344, Note_off_c, 2, 55, 0
4, 52347, Note_off_c, 2, 58, 0
4, 52348, Note_off_c, 2, 62, 0
4, 52352, Note_off_c, 2, 67, 0
4, 52419, Note_on_c, 2, 62, 100
4, 52422, Note_on_c, 2, 58, 100
4, 52425, Note_on_c, 2, 55, 100
4, 52428, Note_on_c, 2, 50, 100
4, 52432, Note_on_c, 2, 43, 100
4, 52438, Note_off_c, 2, 62, 0
4, 52440, Note_off_c, 2, 58, 0
4, 52443, Note_off_c, 2, 55, 0
4, 52444, Note_off_c, 2, 50, 0
4, 52448, Note_off_c, 2, 43, 0
4, 52512, Note_on_c, 2, 43, 110
4, 52518, Note_on_c, 2, 55, 110
4, 52521, Note_on_c, 2, 58, 110
4, 52524, Note_on_c, 2, 62, 110
4, 52528, Note_on_c, 2, 67, 110
4, 52531, Note_off_c, 2, 43, 0
4, 52536, Note_off_c, 2, 55, 0
4, 52539, Note_off_c, 2, 58, 0
4, 52540, Note_off_c, 2, 62, 0
4, 52544, Note_off_c, 2, 67, 0
4, 52614, Note_on_c, 2, 58, 100
4, 52617, Note_on_c, 2, 55, 100
4, 52620, Note_on_c, 2, 50, 100
4, 52624, Note_on_c, 2, 43, 100
4, 52632, Note_off_c, 2, 58, 0
4, 52635, Note_off_c, 2, 55, 0
4, 52636, Note_off_c, 2, 50, 0
4, 52640, Note_off_c, 2, 43, 0
4, 52704, Note_on_c, 2, 43, 110
4, 52710, Note_on_c, 2, 55, 110
4, 52713, Note_on_c, 2, 58, 110
4, 52716, Note_on_c, 2, 62, 110
4, 52720, Note_on_c, 2, 67, 110
4, 52723, Note_off_c, 2, 43, 0
4, 52728, Note_off_c, 2, 55, 0
4, 52731, Note_off_c, 2, 58, 0
4, 52732, Note_off_c, 2, 62, 0
4, 52736, Note_off_c, 2, 67, 0
4, 52806, Note_on_c, 2, 58, 100
4, 52809, Note_on_c, 2, 55, 100
4, 52812, Note_on_c, 2, 50, 100
4, 52816, Note_on_c, 2, 43, 100
4, 52824, Note_off_c, 2, 58, 0
4, 52827, Note_off_c, 2, 55, 0
4, 52828, Note_off_c, 2, 50, 0
4, 52832, Note_off_c, 2, 43, 0
4, 52896, Note_on_c, 2, 43, 110
4, 52899, Note_on_c, 2, 50, 110
4, 52902, Note_on_c, 2, 55, 110
4, 52905, Note_on_c, 2, 58, 110
4, 52912, Note_on_c, 2, 67, 110
4, 52915, Note_off_c, 2, 43, 0
4, 52918, Note_off_c, 2, 50, 0
4, 52920, Note_off_c, 2, 55, 0
4, 52923, Note_off_c, 2, 58, 0
4, 52928, Note_off_c, 2, 67, 0
4, 52992, Note_on_c, 2, 69, 110
4, 52995, Note_on_c, 2, 65, 110
4, 52998, Note_on_c, 2, 60, 110
4, 53011, Note_off_c, 2, 69, 0
4, 53014, Note_off_c, 2, 65, 0
4, 53016, Note_off_c, 2, 60, 0
4, 53088, Note_on_c, 2, 53, 100
4, 53091, Note_on_c, 2, 60, 100
4, 53094, Note_on_c, 2, 65, 100
4, 53107, Note_off_c, 2, 53, 0
4, 53110, Note_off_c, 2, 60, 0
4, 53112, Note_off_c, 2, 65, 0
4, 53184, Note_on_c, 2, 69, 100
4, 53187, Note_on_c, 2, 65, 100
4, 53190, Note_on_c, 2, 60, 100
4, 53193, Note_on_c, 2, 53, 100
4, 53203, Note_off_c, 2, 69, 0
4, 53206, Note_off_c, 2, 65, 0
4, 53208, Note_off_c, 2, 60, 0
4, 53211, Note_off_c, 2, 53, 0
4, 53280, Note_on_c, 2, 53, 110
4, 53283, Note_on_c, 2, 60, 110
4, 53286, Note_on_c, 2, 65, 110
4, 53289, Note_on_c, 2, 69, 110
4, 53299, Note_off_c, 2, 53, 0
4, 53302, Note_off_c, 2, 60, 0
4, 53304, Note_off_c, 2, 65, 0
4, 53307, Note_off_c, 2, 69, 0
4, 53376, Note_on_c, 2, 69, 100
4, 53379, Note_on_c, 2, 65, 100
4, 53382, Note_on_c, 2, 60, 100
4, 53395, Note_off_c, 2, 69, 0
4, 53398, Note_off_c, 2, 65, 0
4, 53400, Note_off_c, 2, 60, 0
4, 53472, Note_on_c, 2, 53, 110
4, 53475, Note_on_c, 2, 60, 110
4, 53478, Note_on_c, 2, 65, 110
4, 53491, Note_off_c, 2, 53, 0
4, 53494, Note_off_c, 2, 60, 0
4, 53496, Note_off_c, 2, 65, 0
4, 53568, Note_on_c, 2, 69, 100
4, 53571, Note_on_c, 2, 65, 100
4, 53574, Note_on_c, 2, 60, 100
4, 53577, Note_on_c, 2, 53, 100
4, 53587, Note_off_c, 2, 69, 0
4, 53590, Note_off_c, 2, 65, 0
4, 53592, Note_off_c, 2, 60, 0
4, 53595, Note_off_c, 2, 53, 0
4, 53667, Note_on_c, 2, 60, 110
4, 53670, Note_on_c, 2, 65, 110
4, 53673, Note_on_c, 2, 69, 110
4, 53686, Note_off_c, 2, 60, 0
4, 53688, Note_off_c, 2, 65, 0
4, 53691, Note_off_c, 2, 69, 0
4, 53760, Note_on_c, 2, 69, 110
4, 53763, Note_on_c, 2, 65, 110
4, 53766, Note_on_c, 2, 60, 110
4, 53779, Note_off_c, 2, 69, 0
4, 53782, Note_off_c, 2, 65, 0
4, 53784, Note_off_c, 2, 60, 0
4, 53856, Note_on_c, 2, 53, 100
4, 53859, Note_on_c, 2, 60, 100
4, 53862, Note_on_c, 2, 65, 100
4, 53865, Note_on_c, 2, 69, 100
4, 53875, Note_off_c, 2, 53, 0
4, 53878, Note_off_c, 2, 60, 0
4, 53880, Note_off_c, 2, 65, 0
4, 53883, Note_off_c, 2, 69, 0
4, 53955, Note_on_c, 2, 65, 100
4, 53958, Note_on_c, 2, 60, 100
4, 53961, Note_on_c, 2, 53, 100
4, 53974, Note_off_c, 2, 65, 0
4, 53976, Note_off_c, 2, 60, 0
4, 53979, Note_off_c, 2, 53, 0
4, 54048, Note_on_c, 2, 53, 110
4, 54051, Note_on_c, 2, 60, 110
4, 54054, Note_on_c, 2, 65, 110
4, 54067, Note_off_c, 2, 53, 0
4, 54070, Note_off_c, 2, 60, 0
4, 54072, Note_off_c, 2, 65, 0
4, 54144, Note_on_c, 2, 69, 100
4, 54147, Note_on_c, 2, 65, 100
4, 54150, Note_on_c, 2, 60, 100
4, 54163, Note_off_c, 2, 69, 0
4, 54166, Note_off_c, 2, 65, 0
4, 54168, Note_off_c, 2, 60, 0
4, 54240, Note_on_c, 2, 53, 110
4, 54243, Note_on_c, 2, 60, 110
4, 54246, Note_on_c, 2, 65, 110
4, 54249, Note_on_c, 2, 69, 110
4, 54259, Note_off_c, 2, 53, 0
4, 54262, Note_off_c, 2, 60, 0
4, 54264, Note_off_c, 2, 65, 0
4, 54267, Note_off_c, 2, 69, 0
4, 54339, Note_on_c, 2, 65, 100
4, 54342, Note_on_c, 2, 60, 100
4, 54345, Note_on_c, 2, 53, 100
4, 54358, Note_off_c, 2, 65, 0
4, 54360, Note_off_c, 2, 60, 0
4, 54363, Note_off_c, 2, 53, 0
4, 54432, Note_on_c, 2, 53, 110
4, 54435, Note_on_c, 2, 60, 110
4, 54438, Note_on_c, 2, 65, 110
4, 54441, Note_on_c, 2, 69, 110
4, 54451, Note_off_c, 2, 53, 0
4, 54454, Note_off_c, 2, 60, 0
4, 54456, Note_off_c, 2, 65, 0
4, 54459, Note_off_c, 2, 69, 0
4, 54531, Note_on_c, 2, 62, 110
4, 54534, Note_on_c, 2, 58, 110
4, 54537, Note_on_c, 2, 55, 110
4, 54540, Note_on_c, 2, 50, 110
4, 54544, Note_on_c, 2, 43, 110
4, 54550, Note_off_c, 2, 62, 0
4, 54552, Note_off_c, 2, 58, 0
4, 54555, Note_off_c, 2, 55, 0
4, 54556, Note_off_c, 2, 50, 0
4, 54560, Note_off_c, 2, 43, 0
4, 54627, Note_on_c, 2, 50, 100
4, 54630, Note_on_c, 2, 55, 100
4, 54633, Note_on_c, 2, 58, 100
4, 54636, Note_on_c, 2, 62, 100
4, 54640, Note_on_c, 2, 67, 100
4, 54646, Note_off_c, 2, 50, 0
4, 54648, Note_off_c, 2, 55, 0
4, 54651, Note_off_c, 2, 58, 0
4, 54652, Note_off_c, 2, 62, 0
4, 54656, Note_off_c, 2, 67, 0
4, 54720, Note_on_c, 2, 67, 100
4, 54723, Note_on_c, 2, 62, 100
4, 54726, Note_on_c, 2, 58, 100
4, 54729, Note_on_c, 2, 55, 100
4, 54732, Note_on_c, 2, 50, 100
4, 54739, Note_off_c, 2, 67, 0
4, 54742, Note_off_c, 2, 62, 0
4, 54744, Note_off_c, 2, 58, 0
4, 54747, Note_off_c, 2, 55, 0
4, 54748, Note_off_c, 2, 50, 0
4, 54816, Note_on_c, 2, 43, 110
4, 54819, Note_on_c, 2, 50, 110
4, 54822, Note_on_c, 2, 55, 110
4, 54832, Note_on_c, 2, 67, 110
4, 54835, Note_off_c, 2, 43, 0
4, 54838, Note_off_c, 2, 50, 0
4, 54840, Note_off_c, 2, 55, 0
4, 54848, Note_off_c, 2, 67, 0
4, 54915, Note_on_c, 2, 62, 100
4, 54918, Note_on_c, 2, 58, 100
4, 54921, Note_on_c, 2, 55, 100
4, 54924, Note_on_c, 2, 50, 100
4, 54928, Note_on_c, 2, 43, 100
4, 54934, Note_off_c, 2, 62, 0
4, 54936, Note_off_c, 2, 58, 0
4, 54939, Note_off_c, 2, 55, 0
4, 54940, Note_off_c, 2, 50, 0
4, 54944, Note_off_c, 2, 43, 0
4, 55011, Note_on_c, 2, 50, 110
4, 55014, Note_on_c, 2, 55, 110
4, 55017, Note_on_c, 2, 58, 110
4, 55020, Note_on_c, 2, 62, 110
4, 55024, Note_on_c, 2, 67, 110
4, 55030, Note_off_c, 2, 50, 0
4, 55032, Note_off_c, 2, 55, 0
4, 55035, Note_off_c, 2, 58, 0
4, 55036, Note_off_c, 2, 62, 0
4, 55040, Note_off_c, 2, 67, 0
4, 55107, Note_on_c, 2, 62, 100
4, 55110, Note_on_c, 2, 58, 100
4, 55113, Note_on_c, 2, 55, 100
4, 55116, Note_on_c, 2, 50, 100
4, 55120, Note_on_c, 2, 43, 100
4, 55126, Note_off_c, 2, 62, 0
4, 55128, Note_off_c, 2, 58, 0
4, 55131, Note_off_c, 2, 55, 0
4, 55132, Note_off_c, 2, 50, 0
4, 55136, Note_off_c, 2, 43, 0
4, 55206, Note_on_c, 2, 55, 110
4, 55209, Note_on_c, 2, 58, 110
4, 55212, Note_on_c, 2, 62, 110
4, 55216, Note_on_c, 2, 67, 110
4, 55224, Note_off_c, 2, 55, 0
4, 55227, Note_off_c, 2, 58, 0
4, 55228, Note_off_c, 2, 62, 0
4, 55232, Note_off_c, 2, 67, 0
4, 55299, Note_on_c, 2, 62, 110
4, 55302, Note_on_c, 2, 58, 110
4, 55305, Note_on_c, 2, 55, 110
4, 55308, Note_on_c, 2, 50, 110
4, 55312, Note_on_c, 2, 43, 110
4, 55318, Note_off_c, 2, 62, 0
4, 55320, Note_off_c, 2, 58, 0
4, 55323, Note_off_c, 2, 55, 0
4, 55324, Note_off_c, 2, 50, 0
4, 55328, Note_off_c, 2, 43, 0
4, 55398, Note_on_c, 2, 55, 100
4, 55401, Note_on_c, 2, 58, 100
4, 55404, Note_on_c, 2, 62, 100
4, 55408, Note_on_c, 2, 67, 100
4, 55416, Note_off_c, 2, 55, 0
4, 55419, Note_off_c, 2, 58, 0
4, 55420, Note_off_c, 2, 62, 0
4, 55424, Note_off_c, 2, 67, 0
4, 55488, Note_on_c, 2, 67, 100
4, 55494, Note_on_c, 2, 58, 100
4, 55497, Note_on_c, 2, 55, 100
4, 55500, Note_on_c, 2, 50, 100
4, 55504, Note_on_c, 2, 43, 100
4, 55507, Note_off_c, 2, 67, 0
4, 55512, Note_off_c, 2, 58, 0
4, 55515, Note_off_c, 2, 55, 0
4, 55516, Note_off_c, 2, 50, 0
4, 55520, Note_off_c, 2, 43, 0
4, 55590, Note_on_c, 2, 55, 110
4, 55593, Note_on_c, 2, 58, 110
4, 55596, Note_on_c, 2, 62, 110
4, 55600, Note_on_c, 2, 67, 110
4, 55608, Note_off_c, 2, 55, 0
4, 55611, Note_off_c, 2, 58, 0
4, 55612, Note_off_c, 2, 62, 0
4, 55616, Note_off_c, 2, 67, 0
4, 55683, Note_on_c, 2, 62, 100
4, 55686, Note_on_c, 2, 58, 100
4, 55689, Note_on_c, 2, 55, 100
4, 55692, Note_on_c, 2, 50, 100
4, 55696, Note_on_c, 2, 43, 100
4, 55702, Note_off_c, 2, 62, 0
4, 55704, Note_off_c, 2, 58, 0
4, 55707, Note_off_c, 2, 55, 0
4, 55708, Note_off_c, 2, 50, 0
4, 55712, Note_off_c, 2, 43, 0
4, 55779, Note_on_c, 2, 50, 110
4, 55782, Note_on_c, 2, 55, 110
4, 55785, Note_on_c, 2, 58, 110
4, 55788, Note_on_c, 2, 62, 110
4, 55792, Note_on_c, 2, 67, 110
4, 55798, Note_off_c, 2, 50, 0
4, 55800, Note_off_c, 2, 55, 0
4, 55803, Note_off_c, 2, 58, 0
4, 55804, Note_off_c, 2, 62, 0
4, 55808, Note_off_c, 2, 67, 0
4, 55875, Note_on_c, 2, 62, 100
4, 55878, Note_on_c, 2, 58, 100
4, 55881, Note_on_c, 2, 55, 100
4, 55884, Note_on_c, 2, 50, 100
4, 55888, Note_on_c, 2, 43, 100
4, 55894, Note_off_c, 2, 62, 0
4, 55896, Note_off_c, 2, 58, 0
4, 55899, Note_off_c, 2, 55, 0
4, 55900, Note_off_c, 2, 50, 0
4, 55904, Note_off_c, 2, 43, 0
4, 55971, Note_on_c, 2, 50, 110
4, 55974, Note_on_c, 2, 55, 110
4, 55977, Note_on_c, 2, 58, 110
4, 55980, Note_on_c, 2, 62, 110
4, 55984, Note_on_c, 2, 67, 110
4, 55990, Note_off_c, 2, 50, 0
4, 55992, Note_off_c, 2, 55, 0
4, 55995, Note_off_c, 2, 58, 0
4, 55996, Note_off_c, 2, 62, 0
4, 56000, Note_off_c, 2, 67, 0
4, 56067, Note_on_c, 2, 65, 110
4, 56070, Note_on_c, 2, 60, 110
4, 56073, Note_on_c, 2, 53, 110
4, 56086, Note_off_c, 2, 65, 0
4, 56088, Note_off_c, 2, 60, 0
4, 56091, Note_off_c, 2, 53, 0
4, 56160, Note_on_c, 2, 53, 100
4, 56166, Note_on_c, 2, 65, 100
4, 56169, Note_on_c, 2, 69, 100
4, 56179, Note_off_c, 2, 53, 0
4, 56184, Note_off_c, 2, 65, 0
4, 56187, Note_off_c, 2, 69, 0
4, 56256, Note_on_c, 2, 69, 100
4, 56259, Note_on_c, 2, 65, 100
4, 56262, Note_on_c, 2, 60, 100
4, 56275, Note_off_c, 2, 69, 0
4, 56278, Note_off_c, 2, 65, 0
4, 56280, Note_off_c, 2, 60, 0
4, 56352, Note_on_c, 2, 53, 110
4, 56355, Note_on_c, 2, 60, 110
4, 56358, Note_on_c, 2, 65, 110
4, 56361, Note_on_c, 2, 69, 110
4, 56371, Note_off_c, 2, 53, 0
4, 56374, Note_off_c, 2, 60, 0
4, 56376, Note_off_c, 2, 65, 0
4, 56379, Note_off_c, 2, 69, 0
4, 56451, Note_on_c, 2, 65, 100
4, 56454, Note_on_c, 2, 60, 100
4, 56457, Note_on_c, 2, 53, 100
4, 56470, Note_off_c, 2, 65, 0
4, 56472, Note_off_c, 2, 60, 0
4, 56475, Note_off_c, 2, 53, 0
4, 56544, Note_on_c, 2, 53, 110
4, 56547, Note_on_c, 2, 60, 110
4, 56550, Note_on_c, 2, 65, 110
4, 56553, Note_on_c, 2, 69, 110
4, 56563, Note_off_c, 2, 53, 0
4, 56566, Note_off_c, 2, 60, 0
4, 56568, Note_off_c, 2, 65, 0
4, 56571, Note_off_c, 2, 69, 0
4, 56640, Note_on_c, 2, 69, 100
4, 56643, Note_on_c, 2, 65, 100
4, 56646, Note_on_c, 2, 60, 100
4, 56649, Note_on_c, 2, 53, 100
4, 56659, Note_off_c, 2, 69, 0
4, 56662, Note_off_c, 2, 65, 0
4, 56664, Note_off_c, 2, 60, 0
4, 56667, Note_off_c, 2, 53, 0
4, 56739, Note_on_c, 2, 60, 110
4, 56742, Note_on_c, 2, 65, 110
4, 56745, Note_on_c, 2, 69, 110
4, 56758, Note_off_c, 2, 60, 0
4, 56760, Note_off_c, 2, 65, 0
4, 56763, Note_off_c, 2, 69, 0
4, 56835, Note_on_c, 2, 65, 110
4, 56838, Note_on_c, 2, 60, 110
4, 56841, Note_on_c, 2, 53, 110
4, 56854, Note_off_c, 2, 65, 0
4, 56856, Note_off_c, 2, 60, 0
4, 56859, Note_off_c, 2, 53, 0
4, 56931, Note_on_c, 2, 60, 100
4, 56934, Note_on_c, 2, 65, 100
4, 56937, Note_on_c, 2, 69, 100
4, 56950, Note_off_c, 2, 60, 0
4, 56952, Note_off_c, 2, 65, 0
4, 56955, Note_off_c, 2, 69, 0
4, 57024, Note_on_c, 2, 69, 100
4, 57027, Note_on_c, 2, 65, 100
4, 57030, Note_on_c, 2, 60, 100
4, 57033, Note_on_c, 2, 53, 100
4, 57043, Note_off_c, 2, 69, 0
4, 57046, Note_off_c, 2, 65, 0
4, 57048, Note_off_c, 2, 60, 0
4, 57051, Note_off_c, 2, 53, 0
4, 57123, Note_on_c, 2, 60, 110
4, 57126, Note_on_c, 2, 65, 110
4, 57129, Note_on_c, 2, 69, 110
4, 57142, Note_off_c, 2, 60, 0
4, 57144, Note_off_c, 2, 65, 0
4, 57147, Note_off_c, 2, 69, 0
4, 57216, Note_on_c, 2, 69, 100
4, 57219, Note_on_c, 2, 65, 100
4, 57222, Note_on_c, 2, 60, 100
4, 57225, Note_on_c, 2, 53, 100
4, 57235, Note_off_c, 2, 69, 0
4, 57238, Note_off_c, 2, 65, 0
4, 57240, Note_off_c, 2, 60, 0
4, 57243, Note_off_c, 2, 53, 0
4, 57312, Note_on_c, 2, 53, 110
4, 57315, Note_on_c, 2, 60, 110
4, 57318, Note_on_c, 2, 65, 110
4, 57331, Note_off_c, 2, 53, 0
4, 57334, Note_off_c, 2, 60, 0
4, 57336, Note_off_c, 2, 65, 0
4, 57408, Note_on_c, 2, 69, 100
4, 57414, Note_on_c, 2, 60, 100
4, 57417, Note_on_c, 2, 53, 100
4, 57427, Note_off_c, 2, 69, 0
4, 57432, Note_off_c, 2, 60, 0
4, 57435, Note_off_c, 2, 53, 0
4, 57507, Note_on_c, 2, 60, 110
4, 57510, Note_on_c, 2, 65, 110
4, 57513, Note_on_c, 2, 69, 110
4, 57526, Note_off_c, 2, 60, 0
4, 57528, Note_off_c, 2, 65, 0
4, 57531, Note_off_c, 2, 69, 0
4, 57600, Note_on_c, 2, 67, 110
4, 57603, Note_on_c, 2, 62, 110
4, 57606, Note_on_c, 2, 58, 110
4, 57609, Note_on_c, 2, 55, 110
4, 57612, Note_on_c, 2, 50, 110
4, 57616, Note_on_c, 2, 43, 110
4, 57619, Note_off_c, 2, 67, 0
4, 57622, Note_off_c, 2, 62, 0
4, 57624, Note_off_c, 2, 58, 0
4, 57627, Note_off_c, 2, 55, 0
4, 57628, Note_off_c, 2, 50, 0
4, 57632, Note_off_c, 2, 43, 0
4, 57699, Note_on_c, 2, 50, 100
4, 57702, Note_on_c, 2, 55, 100
4, 57705, Note_on_c, 2, 58, 100
4, 57708, Note_on_c, 2, 62, 100
4, 57712, Note_on_c, 2, 67, 100
4, 57718, Note_off_c, 2, 50, 0
4, 57720, Note_off_c, 2, 55, 0
4, 57723, Note_off_c, 2, 58, 0
4, 57724, Note_off_c, 2, 62, 0
4, 57728, Note_off_c, 2, 67, 0
4, 57795, Note_on_c, 2, 62, 100
4, 57798, Note_on_c, 2, 58, 100
4, 57801, Note_on_c, 2, 55, 100
4, 57804, Note_on_c, 2, 50, 100
4, 57808, Note_on_c, 2, 43, 100
4, 57814, Note_off_c, 2, 62, 0
4, 57816, Note_off_c, 2, 58, 0
4, 57819, Note_off_c, 2, 55, 0
4, 57820, Note_off_c, 2, 50, 0
4, 57824, Note_off_c, 2, 43, 0
4, 57888, Note_on_c, 2, 43, 110
4, 57894, Note_on_c, 2, 55, 110
4, 57897, Note_on_c, 2, 58, 110
4, 57900, Note_on_c, 2, 62, 110
4, 57904, Note_on_c, 2, 67, 110
4, 57907, Note_off_c, 2, 43, 0
4, 57912, Note_off_c, 2, 55, 0
4, 57915, Note_off_c, 2, 58, 0
4, 57916, Note_off_c, 2, 62, 0
4, 57920, Note_off_c, 2, 67, 0
4, 57987, Note_on_c, 2, 62, 100
4, 57990, Note_on_c, 2, 58, 100
4, 57993, Note_on_c, 2, 55, 100
4, 57996, Note_on_c, 2, 50, 100
4, 58000, Note_on_c, 2, 43, 100
4, 58006, Note_off_c, 2, 62, 0
4, 58008, Note_off_c, 2, 58, 0
4, 58011, Note_off_c, 2, 55, 0
4, 58012, Note_off_c, 2, 50, 0
4, 58016, Note_off_c, 2, 43, 0
4, 58083, Note_on_c, 2, 50, 110
4, 58086, Note_on_c, 2, 55, 110
4, 58089, Note_on_c, 2, 58, 110
4, 58092, Note_on_c, 2, 62, 110
4, 58096, Note_on_c, 2, 67, 110
4, 58102, Note_off_c, 2, 50, 0
4, 58104, Note_off_c, 2, 55, 0
4, 58107, Note_off_c, 2, 58, 0
4, 58108, Note_off_c, 2, 62, 0
4, 58112, Note_off_c, 2, 67, 0
4, 58176, Note_on_c, 2, 67, 100
4, 58179, Note_on_c, 2, 62, 100
4, 58182, Note_on_c, 2, 58, 100
4, 58185, Note_on_c, 2, 55, 100
4, 58195, Note_off_c, 2, 67, 0
4, 58198, Note_off_c, 2, 62, 0
4, 58200, Note_off_c, 2, 58, 0
4, 58203, Note_off_c, 2, 55, 0
4, 58272, Note_on_c, 2, 43, 110
4, 58275, Note_on_c, 2, 50, 110
4, 58278, Note_on_c, 2, 55, 110
4, 58281, Note_on_c, 2, 58, 110
4, 58291, Note_off_c, 2, 43, 0
4, 58294, Note_off_c, 2, 50, 0
4, 58296, Note_off_c, 2, 55, 0
4, 58299, Note_off_c, 2, 58, 0
4, 58358, Control_c, 2, 91, 0
4, 58368, Note_on_c, 2, 67, 100
4, 58371, Note_on_c, 2, 62, 100
4, 58374, Note_on_c, 2, 58, 100
4, 58377, Note_on_c, 2, 55, 100
4, 58380, Note_on_c, 2, 50, 100
4, 58384, Note_on_c, 2, 43, 100
4, 58560, Note_off_c, 2, 43, 0
4, 58560, Note_off_c, 2, 50, 0
4, 58560, Note_off_c, 2, 55, 0
4, 58560, Note_off_c, 2, 58, 0
4, 58560, Note_off_c, 2, 62, 0
4, 58560, Note_off_c, 2, 67, 0
4, 58560, Note_on_c, 2, 43, 100
4, 58563, Note_on_c, 2, 50, 100
4, 58566, Note_on_c, 2, 55, 100
4, 58569, Note_on_c, 2, 58, 100
4, 58572, Note_on_c, 2, 62, 100
4, 58576, Note_on_c, 2, 67, 100
4, 58656, Note_off_c, 2, 67, 0
4, 58656, Note_off_c, 2, 62, 0
4, 58656, Note_off_c, 2, 58, 0
4, 58656, Note_off_c, 2, 55, 0
4, 58656, Note_off_c, 2, 50, 0
4, 58656, Note_off_c, 2, 43, 0
4, 58656, Note_on_c, 2, 67, 100
4, 58659, Note_on_c, 2, 62, 100
4, 58662, Note_on_c, 2, 58, 100
4, 58665, Note_on_c, 2, 55, 100
4, 58668, Note_on_c, 2, 50, 100
4, 58672, Note_on_c, 2, 43, 100
4, 58752, Note_off_c, 2, 43, 0
4, 58752, Note_off_c, 2, 50, 0
4, 58752, Note_off_c, 2, 55, 0
4, 58752, Note_off_c, 2, 58, 0
4, 58752, Note_off_c, 2, 62, 0
4, 58752, Note_off_c, 2, 67, 0
4, 58752, Note_on_c, 2, 43, 100
4, 58755, Note_on_c, 2, 50, 100
4, 58758, Note_on_c, 2, 55, 100
4, 58761, Note_on_c, 2, 58, 100
4, 58764, Note_on_c, 2, 62, 100
4, 58768, Note_on_c, 2, 67, 100
4, 58944, Note_off_c, 2, 67, 0
4, 58944, Note_off_c, 2, 62, 0
4, 58944, Note_off_c, 2, 58, 0
4, 58944, Note_off_c, 2, 55, 0
4, 58944, Note_off_c, 2, 50, 0
4, 58944, Note_off_c, 2, 43, 0
4, 58944, Note_on_c, 2, 67, 100
4, 58947, Note_on_c, 2, 62, 100
4, 58950, Note_on_c, 2, 58, 100
4, 58953, Note_on_c, 2, 55, 100
4, 58956, Note_on_c, 2, 50, 100
4, 58960, Note_on_c, 2, 43, 100
4, 59136, Note_off_c, 2, 43, 0
4, 59136, Note_off_c, 2, 50, 0
4, 59136, Note_off_c, 2, 55, 0
4, 59136, Note_off_c, 2, 58, 0
4, 59136, Note_off_c, 2, 62, 0
4, 59136, Note_off_c, 2, 67, 0
4, 59232, Note_on_c, 2, 53, 100
4, 59235, Note_on_c, 2, 60, 100
4, 59238, Note_on_c, 2, 65, 100
4, 59241, Note_on_c, 2, 69, 100
4, 59328, Note_off_c, 2, 69, 0
4, 59328, Note_off_c, 2, 65, 0
4, 59328, Note_off_c, 2, 60, 0
4, 59328, Note_off_c, 2, 53, 0
4, 59328, Note_on_c, 2, 69, 100
4, 59331, Note_on_c, 2, 65, 100
4, 59334, Note_on_c, 2, 60, 100
4, 59337, Note_on_c, 2, 53, 100
4, 59424, Note_off_c, 2, 53, 0
4, 59424, Note_off_c, 2, 60, 0
4, 59424, Note_off_c, 2, 65, 0
4, 59424, Note_off_c, 2, 69, 0
4, 59424, Note_on_c, 2, 53, 100
4, 59427, Note_on_c, 2, 60, 100
4, 59430, Note_on_c, 2, 65, 100
4, 59433, Note_on_c, 2, 69, 100
4, 59520, Note_off_c, 2, 69, 0
4, 59520, Note_off_c, 2, 65, 0
4, 59520, Note_off_c, 2, 60, 0
4, 59520, Note_off_c, 2, 53, 0
4, 59520, Note_on_c, 2, 69, 100
4, 59523, Note_on_c, 2, 65, 100
4, 59526, Note_on_c, 2, 60, 100
4, 59529, Note_on_c, 2, 53, 100
4, 59712, Note_off_c, 2, 53, 0
4, 59712, Note_off_c, 2, 60, 0
4, 59712, Note_off_c, 2, 65, 0
4, 59712, Note_off_c, 2, 69, 0
4, 59712, Note_on_c, 2, 53, 100
4, 59715, Note_on_c, 2, 58, 100
4, 59718, Note_on_c, 2, 65, 100
4, 59721, Note_on_c, 2, 67, 100
4, 59904, Note_off_c, 2, 67, 0
4, 59904, Note_off_c, 2, 65, 0
4, 59904, Note_off_c, 2, 58, 0
4, 59904, Note_off_c, 2, 53, 0
4, 59904, Note_on_c, 2, 69, 100
4, 59907, Note_on_c, 2, 65, 100
4, 59910, Note_on_c, 2, 60, 100
4, 59913, Note_on_c, 2, 53, 100
4, 60096, Note_off_c, 2, 53, 0
4, 60096, Note_off_c, 2, 60, 0
4, 60096, Note_off_c, 2, 65, 0
4, 60096, Note_off_c, 2, 69, 0
4, 60096, Note_on_c, 2, 53, 100
4, 60099, Note_on_c, 2, 60, 100
4, 60102, Note_on_c, 2, 65, 100
4, 60105, Note_on_c, 2, 69, 100
4, 60192, Note_off_c, 2, 69, 0
4, 60192, Note_off_c, 2, 65, 0
4, 60192, Note_off_c, 2, 60, 0
4, 60192, Note_off_c, 2, 53, 0
4, 60192, Note_on_c, 2, 69, 100
4, 60195, Note_on_c, 2, 65, 100
4, 60198, Note_on_c, 2, 60, 100
4, 60201, Note_on_c, 2, 53, 100
4, 60480, Note_off_c, 2, 53, 0
4, 60480, Note_off_c, 2, 60, 0
4, 60480, Note_off_c, 2, 65, 0
4, 60480, Note_off_c, 2, 69, 0
4, 60480, Note_on_c, 2, 53, 100
4, 60483, Note_on_c, 2, 60, 100
4, 60486, Note_on_c, 2, 65, 100
4, 60489, Note_on_c, 2, 69, 100
4, 60672, Note_off_c, 2, 69, 0
4, 60672, Note_off_c, 2, 65, 0
4, 60672, Note_off_c, 2, 60, 0
4, 60672, Note_off_c, 2, 53, 0
4, 60672, Note_on_c, 2, 67, 100
4, 60675, Note_on_c, 2, 62, 100
4, 60680, Note_on_c, 2, 58, 100
4, 60681, Note_on_c, 2, 55, 100
4, 60684, Note_on_c, 2, 50, 100
4, 60688, Note_on_c, 2, 43, 100
4, 60768, Note_off_c, 2, 43, 0
4, 60768, Note_off_c, 2, 50, 0
4, 60768, Note_off_c, 2, 55, 0
4, 60768, Note_off_c, 2, 58, 0
4, 60768, Note_off_c, 2, 62, 0
4, 60768, Note_off_c, 2, 67, 0
4, 60768, Note_on_c, 2, 43, 100
4, 60771, Note_on_c, 2, 50, 100
4, 60774, Note_on_c, 2, 55, 100
4, 60777, Note_on_c, 2, 58, 100
4, 60780, Note_on_c, 2, 62, 100
4, 60784, Note_on_c, 2, 67, 100
4, 60864, Note_off_c, 2, 67, 0
4, 60864, Note_off_c, 2, 62, 0
4, 60864, Note_off_c, 2, 58, 0
4, 60864, Note_off_c, 2, 55, 0
4, 60864, Note_off_c, 2, 50, 0
4, 60864, Note_off_c, 2, 43, 0
4, 60864, Note_on_c, 2, 67, 100
4, 60867, Note_on_c, 2, 62, 100
4, 60870, Note_on_c, 2, 58, 100
4, 60873, Note_on_c, 2, 55, 100
4, 60876, Note_on_c, 2, 50, 100
4, 60880, Note_on_c, 2, 43, 100
4, 60960, Note_off_c, 2, 43, 0
4, 60960, Note_off_c, 2, 50, 0
4, 60960, Note_off_c, 2, 55, 0
4, 60960, Note_off_c, 2, 58, 0
4, 60960, Note_off_c, 2, 62, 0
4, 60960, Note_off_c, 2, 67, 0
4, 60960, Note_on_c, 2, 43, 100
4, 60963, Note_on_c, 2, 50, 100
4, 60966, Note_on_c, 2, 55, 100
4, 60969, Note_on_c, 2, 58, 100
4, 60972, Note_on_c, 2, 62, 100
4, 60976, Note_on_c, 2, 67, 100
4, 61056, Note_off_c, 2, 67, 0
4, 61056, Note_off_c, 2, 62, 0
4, 61056, Note_off_c, 2, 58, 0
4, 61056, Note_off_c, 2, 55, 0
4, 61056, Note_off_c, 2, 50, 0
4, 61056, Note_off_c, 2, 43, 0
4, 61056, Note_on_c, 2, 67, 100
4, 61059, Note_on_c, 2, 62, 100
4, 61062, Note_on_c, 2, 58, 100
4, 61065, Note_on_c, 2, 55, 100
4, 61068, Note_on_c, 2, 50, 100
4, 61072, Note_on_c, 2, 43, 100
4, 61248, Note_off_c, 2, 43, 0
4, 61248, Note_off_c, 2, 50, 0
4, 61248, Note_off_c, 2, 55, 0
4, 61248, Note_off_c, 2, 58, 0
4, 61248, Note_off_c, 2, 62, 0
4, 61248, Note_off_c, 2, 67, 0
4, 61248, Note_on_c, 2, 43, 100
4, 61251, Note_on_c, 2, 50, 100
4, 61254, Note_on_c, 2, 55, 100
4, 61257, Note_on_c, 2, 58, 100
4, 61259, Note_on_c, 2, 62, 100
4, 61264, Note_on_c, 2, 67, 100
4, 61440, Note_off_c, 2, 67, 0
4, 61440, Note_off_c, 2, 62, 0
4, 61440, Note_off_c, 2, 58, 0
4, 61440, Note_off_c, 2, 55, 0
4, 61440, Note_off_c, 2, 50, 0
4, 61440, Note_off_c, 2, 43, 0
4, 61440, Note_on_c, 2, 67, 100
4, 61443, Note_on_c, 2, 63, 100
4, 61446, Note_on_c, 2, 58, 100
4, 61449, Note_on_c, 2, 55, 100
4, 61452, Note_on_c, 2, 48, 100
4, 61536, Note_off_c, 2, 48, 0
4, 61536, Note_off_c, 2, 55, 0
4, 61536, Note_off_c, 2, 58, 0
4, 61536, Note_off_c, 2, 63, 0
4, 61536, Note_off_c, 2, 67, 0
4, 61536, Note_on_c, 2, 48, 100
4, 61539, Note_on_c, 2, 55, 100
4, 61542, Note_on_c, 2, 58, 100
4, 61545, Note_on_c, 2, 63, 100
4, 61548, Note_on_c, 2, 67, 100
4, 61632, Note_off_c, 2, 67, 0
4, 61632, Note_off_c, 2, 63, 0
4, 61632, Note_off_c, 2, 58, 0
4, 61632, Note_off_c, 2, 55, 0
4, 61632, Note_off_c, 2, 48, 0
4, 61632, Note_on_c, 2, 67, 100
4, 61635, Note_on_c, 2, 63, 100
4, 61638, Note_on_c, 2, 58, 100
4, 61641, Note_on_c, 2, 55, 100
4, 61644, Note_on_c, 2, 48, 100
4, 61728, Note_off_c, 2, 48, 0
4, 61728, Note_off_c, 2, 55, 0
4, 61728, Note_off_c, 2, 58, 0
4, 61728, Note_off_c, 2, 63, 0
4, 61728, Note_off_c, 2, 67, 0
4, 61728, Note_on_c, 2, 48, 100
4, 61731, Note_on_c, 2, 55, 100
4, 61734, Note_on_c, 2, 58, 100
4, 61737, Note_on_c, 2, 63, 100
4, 61740, Note_on_c, 2, 67, 100
4, 61824, Note_off_c, 2, 67, 0
4, 61824, Note_off_c, 2, 63, 0
4, 61824, Note_off_c, 2, 58, 0
4, 61824, Note_off_c, 2, 55, 0
4, 61824, Note_off_c, 2, 48, 0
4, 61824, Note_on_c, 2, 67, 100
4, 61827, Note_on_c, 2, 63, 100
4, 61830, Note_on_c, 2, 58, 100
4, 61833, Note_on_c, 2, 55, 100
4, 61836, Note_on_c, 2, 48, 100
4, 62016, Note_off_c, 2, 48, 0
4, 62016, Note_off_c, 2, 55, 0
4, 62016, Note_off_c, 2, 58, 0
4, 62016, Note_off_c, 2, 63, 0
4, 62016, Note_off_c, 2, 67, 0
4, 62016, Note_on_c, 2, 48, 100
4, 62019, Note_on_c, 2, 55, 100
4, 62022, Note_on_c, 2, 58, 100
4, 62025, Note_on_c, 2, 63, 100
4, 62028, Note_on_c, 2, 67, 100
4, 62208, Note_off_c, 2, 67, 0
4, 62208, Note_off_c, 2, 63, 0
4, 62208, Note_off_c, 2, 58, 0
4, 62208, Note_off_c, 2, 55, 0
4, 62208, Note_off_c, 2, 48, 0
4, 62208, Note_on_c, 2, 67, 100
4, 62211, Note_on_c, 2, 63, 100
4, 62214, Note_on_c, 2, 58, 100
4, 62217, Note_on_c, 2, 55, 100
4, 62220, Note_on_c, 2, 48, 100
4, 62304, Note_off_c, 2, 48, 0
4, 62304, Note_off_c, 2, 55, 0
4, 62304, Note_off_c, 2, 58, 0
4, 62304, Note_off_c, 2, 63, 0
4, 62304, Note_off_c, 2, 67, 0
4, 62304, Note_on_c, 2, 48, 100
4, 62307, Note_on_c, 2, 55, 100
4, 62310, Note_on_c, 2, 58, 100
4, 62313, Note_on_c, 2, 63, 100
4, 62316, Note_on_c, 2, 67, 100
4, 62400, Note_off_c, 2, 67, 0
4, 62400, Note_off_c, 2, 63, 0
4, 62400, Note_off_c, 2, 58, 0
4, 62400, Note_off_c, 2, 55, 0
4, 62400, Note_off_c, 2, 48, 0
4, 62400, Note_on_c, 2, 67, 100
4, 62403, Note_on_c, 2, 63, 100
4, 62406, Note_on_c, 2, 58, 100
4, 62409, Note_on_c, 2, 55, 100
4, 62412, Note_on_c, 2, 48, 100
4, 62496, Note_off_c, 2, 48, 0
4, 62496, Note_off_c, 2, 55, 0
4, 62496, Note_off_c, 2, 58, 0
4, 62496, Note_off_c, 2, 63, 0
4, 62496, Note_off_c, 2, 67, 0
4, 62496, Note_on_c, 2, 48, 100
4, 62499, Note_on_c, 2, 55, 100
4, 62502, Note_on_c, 2, 58, 100
4, 62505, Note_on_c, 2, 63, 100
4, 62508, Note_on_c, 2, 67, 100
4, 62592, Note_off_c, 2, 67, 0
4, 62592, Note_off_c, 2, 63, 0
4, 62592, Note_off_c, 2, 58, 0
4, 62592, Note_off_c, 2, 55, 0
4, 62592, Note_off_c, 2, 48, 0
4, 62592, Note_on_c, 2, 67, 100
4, 62595, Note_on_c, 2, 63, 100
4, 62598, Note_on_c, 2, 58, 100
4, 62601, Note_on_c, 2, 55, 100
4, 62604, Note_on_c, 2, 48, 100
4, 62784, Note_off_c, 2, 48, 0
4, 62784, Note_off_c, 2, 55, 0
4, 62784, Note_off_c, 2, 58, 0
4, 62784, Note_off_c, 2, 63, 0
4, 62784, Note_off_c, 2, 67, 0
4, 62784, Note_on_c, 2, 48, 100
4, 62787, Note_on_c, 2, 55, 100
4, 62790, Note_on_c, 2, 58, 100
4, 62793, Note_on_c, 2, 63, 100
4, 62796, Note_on_c, 2, 67, 100
4, 62976, Note_off_c, 2, 67, 0
4, 62976, Note_off_c, 2, 63, 0
4, 62976, Note_off_c, 2, 58, 0
4, 62976, Note_off_c, 2, 55, 0
4, 62976, Note_off_c, 2, 48, 0
4, 62976, Note_on_c, 2, 69, 100
4, 62979, Note_on_c, 2, 65, 100
4, 62982, Note_on_c, 2, 60, 100
4, 62985, Note_on_c, 2, 53, 100
4, 63264, Note_off_c, 2, 53, 0
4, 63264, Note_off_c, 2, 60, 0
4, 63264, Note_off_c, 2, 65, 0
4, 63264, Note_off_c, 2, 69, 0
4, 63264, Note_on_c, 2, 53, 100
4, 63268, Note_on_c, 2, 60, 100
4, 63270, Note_on_c, 2, 65, 100
4, 63273, Note_on_c, 2, 69, 100
4, 63360, Note_off_c, 2, 69, 0
4, 63360, Note_off_c, 2, 65, 0
4, 63360, Note_off_c, 2, 60, 0
4, 63360, Note_off_c, 2, 53, 0
4, 63360, Note_on_c, 2, 69, 100
4, 63363, Note_on_c, 2, 65, 100
4, 63366, Note_on_c, 2, 60, 100
4, 63369, Note_on_c, 2, 53, 100
4, 63552, Note_off_c, 2, 53, 0
4, 63552, Note_off_c, 2, 60, 0
4, 63552, Note_off_c, 2, 65, 0
4, 63552, Note_off_c, 2, 69, 0
4, 63552, Note_on_c, 2, 53, 100
4, 63555, Note_on_c, 2, 58, 100
4, 63558, Note_on_c, 2, 65, 100
4, 63561, Note_on_c, 2, 67, 100
4, 63648, Note_off_c, 2, 67, 0
4, 63648, Note_off_c, 2, 65, 0
4, 63648, Note_off_c, 2, 58, 0
4, 63648, Note_off_c, 2, 53, 0
4, 63648, Note_on_c, 2, 67, 100
4, 63651, Note_on_c, 2, 65, 100
4, 63654, Note_on_c, 2, 58, 100
4, 63657, Note_on_c, 2, 53, 100
4, 63840, Note_off_c, 2, 53, 0
4, 63840, Note_off_c, 2, 58, 0
4, 63840, Note_off_c, 2, 65, 0
4, 63840, Note_off_c, 2, 67, 0
4, 63840, Note_on_c, 2, 53, 100
4, 63843, Note_on_c, 2, 60, 100
4, 63846, Note_on_c, 2, 65, 100
4, 63849, Note_on_c, 2, 69, 100
4, 64032, Note_off_c, 2, 69, 0
4, 64032, Note_off_c, 2, 65, 0
4, 64032, Note_off_c, 2, 60, 0
4, 64032, Note_off_c, 2, 53, 0
4, 64032, Note_on_c, 2, 69, 100
4, 64035, Note_on_c, 2, 65, 100
4, 64038, Note_on_c, 2, 60, 100
4, 64041, Note_on_c, 2, 53, 100
4, 64128, Note_off_c, 2, 53, 0
4, 64128, Note_off_c, 2, 60, 0
4, 64128, Note_off_c, 2, 65, 0
4, 64128, Note_off_c, 2, 69, 0
4, 64128, Note_on_c, 2, 53, 100
4, 64131, Note_on_c, 2, 60, 100
4, 64134, Note_on_c, 2, 65, 100
4, 64137, Note_on_c, 2, 69, 100
4, 64224, Note_off_c, 2, 69, 0
4, 64224, Note_off_c, 2, 65, 0
4, 64224, Note_off_c, 2, 60, 0
4, 64224, Note_off_c, 2, 53, 0
4, 64224, Note_on_c, 2, 67, 100
4, 64227, Note_on_c, 2, 65, 100
4, 64230, Note_on_c, 2, 58, 100
4, 64233, Note_on_c, 2, 53, 100
4, 64320, Note_off_c, 2, 53, 0
4, 64320, Note_off_c, 2, 58, 0
4, 64320, Note_off_c, 2, 65, 0
4, 64320, Note_off_c, 2, 67, 0
4, 64320, Note_on_c, 2, 53, 100
4, 64323, Note_on_c, 2, 58, 100
4, 64326, Note_on_c, 2, 65, 100
4, 64329, Note_on_c, 2, 67, 100
4, 64416, Note_off_c, 2, 67, 0
4, 64416, Note_off_c, 2, 65, 0
4, 64416, Note_off_c, 2, 58, 0
4, 64416, Note_off_c, 2, 53, 0
4, 64416, Note_on_c, 2, 69, 100
4, 64419, Note_on_c, 2, 65, 100
4, 64422, Note_on_c, 2, 60, 100
4, 64425, Note_on_c, 2, 53, 100
4, 64512, Note_off_c, 2, 53, 0
4, 64512, Note_off_c, 2, 60, 0
4, 64512, Note_off_c, 2, 65, 0
4, 64512, Note_off_c, 2, 69, 0
4, 64512, Note_on_c, 2, 69, 100
4, 64515, Note_on_c, 2, 65, 100
4, 64518, Note_on_c, 2, 60, 100
4, 64521, Note_on_c, 2, 53, 100
4, 64800, Note_off_c, 2, 53, 0
4, 64800, Note_off_c, 2, 60, 0
4, 64800, Note_off_c, 2, 65, 0
4, 64800, Note_off_c, 2, 69, 0
4, 64800, Note_on_c, 2, 53, 100
4, 64804, Note_on_c, 2, 60, 100
4, 64806, Note_on_c, 2, 65, 100
4, 64809, Note_on_c, 2, 69, 100
4, 64896, Note_off_c, 2, 69, 0
4, 64896, Note_off_c, 2, 65, 0
4, 64896, Note_off_c, 2, 60, 0
4, 64896, Note_off_c, 2, 53, 0
4, 64896, Note_on_c, 2, 69, 100
4, 64899, Note_on_c, 2, 65, 100
4, 64902, Note_on_c, 2, 60, 100
4, 64905, Note_on_c, 2, 53, 100
4, 65088, Note_off_c, 2, 53, 0
4, 65088, Note_off_c, 2, 60, 0
4, 65088, Note_off_c, 2, 65, 0
4, 65088, Note_off_c, 2, 69, 0
4, 65088, Note_on_c, 2, 53, 100
4, 65091, Note_on_c, 2, 58, 100
4, 65094, Note_on_c, 2, 65, 100
4, 65097, Note_on_c, 2, 67, 100
4, 65184, Note_off_c, 2, 67, 0
4, 65184, Note_off_c, 2, 65, 0
4, 65184, Note_off_c, 2, 58, 0
4, 65184, Note_off_c, 2, 53, 0
4, 65184, Note_on_c, 2, 67, 100
4, 65187, Note_on_c, 2, 65, 100
4, 65190, Note_on_c, 2, 58, 100
4, 65193, Note_on_c, 2, 53, 100
4, 65376, Note_off_c, 2, 53, 0
4, 65376, Note_off_c, 2, 58, 0
4, 65376, Note_off_c, 2, 65, 0
4, 65376, Note_off_c, 2, 67, 0
4, 65376, Note_on_c, 2, 53, 100
4, 65379, Note_on_c, 2, 60, 100
4, 65382, Note_on_c, 2, 65, 100
4, 65385, Note_on_c, 2, 69, 100
4, 65568, Note_off_c, 2, 69, 0
4, 65568, Note_off_c, 2, 65, 0
4, 65568, Note_off_c, 2, 60, 0
4, 65568, Note_off_c, 2, 53, 0
4, 65568, Note_on_c, 2, 69, 100
4, 65571, Note_on_c, 2, 65, 100
4, 65574, Note_on_c, 2, 60, 100
4, 65577, Note_on_c, 2, 53, 100
4, 65664, Note_off_c, 2, 53, 0
4, 65664, Note_off_c, 2, 60, 0
4, 65664, Note_off_c, 2, 65, 0
4, 65664, Note_off_c, 2, 69, 0
4, 65664, Note_on_c, 2, 53, 100
4, 65667, Note_on_c, 2, 60, 100
4, 65670, Note_on_c, 2, 65, 100
4, 65673, Note_on_c, 2, 69, 100
4, 65760, Note_off_c, 2, 69, 0
4, 65760, Note_off_c, 2, 65, 0
4, 65760, Note_off_c, 2, 60, 0
4, 65760, Note_off_c, 2, 53, 0
4, 65760, Note_on_c, 2, 67, 100
4, 65763, Note_on_c, 2, 65, 100
4, 65766, Note_on_c, 2, 58, 100
4, 65769, Note_on_c, 2, 53, 100
4, 65856, Note_off_c, 2, 53, 0
4, 65856, Note_off_c, 2, 58, 0
4, 65856, Note_off_c, 2, 65, 0
4, 65856, Note_off_c, 2, 67, 0
4, 65856, Note_on_c, 2, 53, 100
4, 65859, Note_on_c, 2, 58, 100
4, 65862, Note_on_c, 2, 65, 100
4, 65865, Note_on_c, 2, 67, 100
4, 65952, Note_off_c, 2, 67, 0
4, 65952, Note_off_c, 2, 65, 0
4, 65952, Note_off_c, 2, 58, 0
4, 65952, Note_off_c, 2, 53, 0
4, 65952, Note_on_c, 2, 69, 100
4, 65955, Note_on_c, 2, 65, 100
4, 65958, Note_on_c, 2, 60, 100
4, 65961, Note_on_c, 2, 53, 100
4, 66048, Note_off_c, 2, 53, 0
4, 66048, Note_off_c, 2, 60, 0
4, 66048, Note_off_c, 2, 65, 0
4, 66048, Note_off_c, 2, 69, 0
4, 66048, Note_on_c, 2, 67, 100
4, 66051, Note_on_c, 2, 62, 100
4, 66054, Note_on_c, 2, 58, 100
4, 66057, Note_on_c, 2, 55, 100
4, 66060, Note_on_c, 2, 50, 100
4, 66064, Note_on_c, 2, 43, 100
4, 66240, Note_off_c, 2, 43, 0
4, 66240, Note_off_c, 2, 50, 0
4, 66240, Note_off_c, 2, 55, 0
4, 66240, Note_off_c, 2, 58, 0
4, 66240, Note_off_c, 2, 62, 0
4, 66240, Note_off_c, 2, 67, 0
4, 66240, Note_on_c, 2, 43, 100
4, 66243, Note_on_c, 2, 50, 100
4, 66246, Note_on_c, 2, 55, 100
4, 66249, Note_on_c, 2, 58, 100
4, 66252, Note_on_c, 2, 62, 100
4, 66256, Note_on_c, 2, 67, 100
4, 66432, Note_off_c, 2, 67, 0
4, 66432, Note_off_c, 2, 62, 0
4, 66432, Note_off_c, 2, 58, 0
4, 66432, Note_off_c, 2, 55, 0
4, 66432, Note_off_c, 2, 50, 0
4, 66432, Note_off_c, 2, 43, 0
4, 66432, Note_on_c, 2, 67, 100
4, 66435, Note_on_c, 2, 62, 100
4, 66438, Note_on_c, 2, 58, 100
4, 66441, Note_on_c, 2, 55, 100
4, 66444, Note_on_c, 2, 50, 100
4, 66448, Note_on_c, 2, 43, 100
4, 66624, Note_off_c, 2, 43, 0
4, 66624, Note_off_c, 2, 50, 0
4, 66624, Note_off_c, 2, 55, 0
4, 66624, Note_off_c, 2, 58, 0
4, 66624, Note_off_c, 2, 62, 0
4, 66624, Note_off_c, 2, 67, 0
4, 66624, Note_on_c, 2, 43, 100
4, 66624, Note_on_c, 2, 58, 100
4, 66627, Note_on_c, 2, 50, 100
4, 66630, Note_on_c, 2, 55, 100
4, 66640, Note_on_c, 2, 67, 100
4, 66646, Note_on_c, 2, 62, 100
4, 66720, Note_off_c, 2, 62, 0
4, 66720, Note_off_c, 2, 67, 0
4, 66720, Note_off_c, 2, 55, 0
4, 66720, Note_off_c, 2, 50, 0
4, 66720, Note_off_c, 2, 58, 0
4, 66720, Note_off_c, 2, 43, 0
4, 66720, Note_on_c, 2, 67, 100
4, 66723, Note_on_c, 2, 62, 100
4, 66726, Note_on_c, 2, 58, 100
4, 66729, Note_on_c, 2, 55, 100
4, 66732, Note_on_c, 2, 50, 100
4, 66736, Note_on_c, 2, 43, 100
4, 66816, Note_off_c, 2, 43, 0
4, 66816, Note_off_c, 2, 50, 0
4, 66816, Note_off_c, 2, 55, 0
4, 66816, Note_off_c, 2, 58, 0
4, 66816, Note_off_c, 2, 62, 0
4, 66816, Note_off_c, 2, 67, 0
4, 66816, Note_on_c, 2, 69, 100
4, 66819, Note_on_c, 2, 65, 100
4, 66820, Note_on_c, 2, 60, 100
4, 66824, Note_on_c, 2, 53, 100
4, 67008, Note_off_c, 2, 53, 0
4, 67008, Note_off_c, 2, 60, 0
4, 67008, Note_off_c, 2, 65, 0
4, 67008, Note_off_c, 2, 69, 0
4, 67008, Note_on_c, 2, 53, 100
4, 67011, Note_on_c, 2, 60, 100
4, 67014, Note_on_c, 2, 65, 100
4, 67016, Note_on_c, 2, 69, 100
4, 67104, Note_off_c, 2, 69, 0
4, 67104, Note_off_c, 2, 65, 0
4, 67104, Note_off_c, 2, 60, 0
4, 67104, Note_off_c, 2, 53, 0
4, 67104, Note_on_c, 2, 69, 100
4, 67107, Note_on_c, 2, 65, 100
4, 67110, Note_on_c, 2, 60, 100
4, 67113, Note_on_c, 2, 53, 100
4, 67200, Note_off_c, 2, 53, 0
4, 67200, Note_off_c, 2, 60, 0
4, 67200, Note_off_c, 2, 65, 0
4, 67200, Note_off_c, 2, 69, 0
4, 67200, Note_on_c, 2, 53, 100
4, 67203, Note_on_c, 2, 58, 100
4, 67206, Note_on_c, 2, 65, 100
4, 67209, Note_on_c, 2, 67, 100
4, 67296, Note_off_c, 2, 67, 0
4, 67296, Note_off_c, 2, 65, 0
4, 67296, Note_off_c, 2, 58, 0
4, 67296, Note_off_c, 2, 53, 0
4, 67296, Note_on_c, 2, 69, 100
4, 67299, Note_on_c, 2, 65, 100
4, 67302, Note_on_c, 2, 60, 100
4, 67305, Note_on_c, 2, 53, 100
4, 67392, Note_off_c, 2, 53, 0
4, 67392, Note_off_c, 2, 60, 0
4, 67392, Note_off_c, 2, 65, 0
4, 67392, Note_off_c, 2, 69, 0
4, 67392, Note_on_c, 2, 53, 100
4, 67395, Note_on_c, 2, 60, 100
4, 67398, Note_on_c, 2, 65, 100
4, 67401, Note_on_c, 2, 69, 100
4, 67488, Note_off_c, 2, 69, 0
4, 67488, Note_off_c, 2, 65, 0
4, 67488, Note_off_c, 2, 60, 0
4, 67488, Note_off_c, 2, 53, 0
4, 67488, Note_on_c, 2, 67, 100
4, 67491, Note_on_c, 2, 65, 100
4, 67494, Note_on_c, 2, 58, 100
4, 67497, Note_on_c, 2, 53, 100
4, 67584, Note_off_c, 2, 53, 0
4, 67584, Note_off_c, 2, 58, 0
4, 67584, Note_off_c, 2, 65, 0
4, 67584, Note_off_c, 2, 67, 0
4, 67584, Note_on_c, 2, 53, 100
4, 67587, Note_on_c, 2, 60, 100
4, 67590, Note_on_c, 2, 65, 100
4, 67593, Note_on_c, 2, 69, 100
4, 67776, Note_off_c, 2, 69, 0
4, 67776, Note_off_c, 2, 65, 0
4, 67776, Note_off_c, 2, 60, 0
4, 67776, Note_off_c, 2, 53, 0
4, 67776, Note_on_c, 2, 69, 100
4, 67779, Note_on_c, 2, 65, 100
4, 67782, Note_on_c, 2, 60, 100
4, 67785, Note_on_c, 2, 53, 100
4, 67872, Note_off_c, 2, 53, 0
4, 67872, Note_off_c, 2, 60, 0
4, 67872, Note_off_c, 2, 65, 0
4, 67872, Note_off_c, 2, 69, 0
4, 67872, Note_on_c, 2, 53, 100
4, 67875, Note_on_c, 2, 60, 100
4, 67878, Note_on_c, 2, 65, 100
4, 67881, Note_on_c, 2, 69, 100
4, 67968, Note_off_c, 2, 69, 0
4, 67968, Note_off_c, 2, 65, 0
4, 67968, Note_off_c, 2, 60, 0
4, 67968, Note_off_c, 2, 53, 0
4, 67968, Note_on_c, 2, 69, 100
4, 67971, Note_on_c, 2, 65, 100
4, 67974, Note_on_c, 2, 60, 100
4, 67977, Note_on_c, 2, 53, 100
4, 68064, Note_off_c, 2, 53, 0
4, 68064, Note_off_c, 2, 60, 0
4, 68064, Note_off_c, 2, 65, 0
4, 68064, Note_off_c, 2, 69, 0
4, 68064, Note_on_c, 2, 53, 100
4, 68067, Note_on_c, 2, 60, 100
4, 68070, Note_on_c, 2, 65, 100
4, 68073, Note_on_c, 2, 70, 100
4, 68160, Note_off_c, 2, 70, 0
4, 68160, Note_off_c, 2, 65, 0
4, 68160, Note_off_c, 2, 60, 0
4, 68160, Note_off_c, 2, 53, 0
4, 68160, Note_on_c, 2, 69, 100
4, 68163, Note_on_c, 2, 65, 100
4, 68166, Note_on_c, 2, 60, 100
4, 68169, Note_on_c, 2, 53, 100
4, 68252, Note_off_c, 2, 65, 0
4, 68256, Note_off_c, 2, 69, 0
4, 68256, Note_off_c, 2, 60, 0
4, 68256, Note_off_c, 2, 53, 0
4, 68256, Note_on_c, 2, 53, 100
4, 68259, Note_on_c, 2, 58, 100
4, 68262, Note_on_c, 2, 65, 100
4, 68265, Note_on_c, 2, 67, 100
4, 68352, Note_off_c, 2, 67, 0
4, 68352, Note_off_c, 2, 65, 0
4, 68352, Note_off_c, 2, 58, 0
4, 68352, Note_off_c, 2, 53, 0
4, 68352, Note_on_c, 2, 67, 100
4, 68355, Note_on_c, 2, 64, 100
4, 68358, Note_on_c, 2, 60, 100
4, 68361, Note_on_c, 2, 55, 100
4, 68364, Note_on_c, 2, 48, 100
4, 68544, Note_off_c, 2, 48, 0
4, 68544, Note_off_c, 2, 55, 0
4, 68544, Note_off_c, 2, 60, 0
4, 68544, Note_off_c, 2, 64, 0
4, 68544, Note_off_c, 2, 67, 0
4, 68544, Note_on_c, 2, 48, 100
4, 68547, Note_on_c, 2, 55, 100
4, 68550, Note_on_c, 2, 60, 100
4, 68553, Note_on_c, 2, 64, 100
4, 68556, Note_on_c, 2, 67, 100
4, 68736, Note_off_c, 2, 67, 0
4, 68736, Note_off_c, 2, 64, 0
4, 68736, Note_off_c, 2, 60, 0
4, 68736, Note_off_c, 2, 55, 0
4, 68736, Note_off_c, 2, 48, 0
4, 68736, Note_on_c, 2, 67, 100
4, 68739, Note_on_c, 2, 62, 100
4, 68742, Note_on_c, 2, 58, 100
4, 68745, Note_on_c, 2, 53, 100
4, 68748, Note_on_c, 2, 48, 100
4, 68832, Note_off_c, 2, 48, 0
4, 68832, Note_off_c, 2, 53, 0
4, 68832, Note_off_c, 2, 58, 0
4, 68832, Note_off_c, 2, 62, 0
4, 68832, Note_off_c, 2, 67, 0
4, 68832, Note_on_c, 2, 48, 100
4, 68836, Note_on_c, 2, 55, 100
4, 68838, Note_on_c, 2, 60, 100
4, 68841, Note_on_c, 2, 64, 100
4, 68844, Note_on_c, 2, 67, 100
4, 68928, Note_off_c, 2, 67, 0
4, 68928, Note_off_c, 2, 64, 0
4, 68928, Note_off_c, 2, 60, 0
4, 68928, Note_off_c, 2, 55, 0
4, 68928, Note_off_c, 2, 48, 0
4, 68932, Note_on_c, 2, 67, 100
4, 68934, Note_on_c, 2, 64, 100
4, 68937, Note_on_c, 2, 55, 100
4, 68937, Note_on_c, 2, 60, 100
4, 68940, Note_on_c, 2, 48, 100
4, 69024, Note_off_c, 2, 48, 0
4, 69024, Note_off_c, 2, 60, 0
4, 69024, Note_off_c, 2, 55, 0
4, 69024, Note_off_c, 2, 64, 0
4, 69024, Note_off_c, 2, 67, 0
4, 69024, Note_on_c, 2, 48, 100
4, 69027, Note_on_c, 2, 53, 100
4, 69033, Note_on_c, 2, 62, 100
4, 69035, Note_on_c, 2, 58, 100
4, 69036, Note_on_c, 2, 67, 100
4, 69120, Note_off_c, 2, 67, 0
4, 69120, Note_off_c, 2, 58, 0
4, 69120, Note_off_c, 2, 62, 0
4, 69120, Note_off_c, 2, 53, 0
4, 69120, Note_off_c, 2, 48, 0
4, 69120, Note_on_c, 2, 67, 100
4, 69123, Note_on_c, 2, 63, 100
4, 69126, Note_on_c, 2, 60, 100
4, 69129, Note_on_c, 2, 55, 100
4, 69132, Note_on_c, 2, 48, 100
4, 69312, Note_off_c, 2, 48, 0
4, 69312, Note_off_c, 2, 55, 0
4, 69312, Note_off_c, 2, 60, 0
4, 69312, Note_off_c, 2, 63, 0
4, 69312, Note_off_c, 2, 67, 0
4, 69312, Note_on_c, 2, 48, 100
4, 69315, Note_on_c, 2, 55, 100
4, 69318, Note_on_c, 2, 60, 100
4, 69321, Note_on_c, 2, 63, 100
4, 69324, Note_on_c, 2, 67, 100
4, 69408, Note_off_c, 2, 67, 0
4, 69408, Note_off_c, 2, 63, 0
4, 69408, Note_off_c, 2, 60, 0
4, 69408, Note_off_c, 2, 55, 0
4, 69408, Note_off_c, 2, 48, 0
4, 69408, Note_on_c, 2, 67, 100
4, 69411, Note_on_c, 2, 63, 100
4, 69414, Note_on_c, 2, 60, 100
4, 69417, Note_on_c, 2, 55, 100
4, 69420, Note_on_c, 2, 48, 100
4, 69504, Note_off_c, 2, 48, 0
4, 69504, Note_off_c, 2, 55, 0
4, 69504, Note_off_c, 2, 60, 0
4, 69504, Note_off_c, 2, 63, 0
4, 69504, Note_off_c, 2, 67, 0
4, 69504, Note_on_c, 2, 48, 100
4, 69508, Note_on_c, 2, 55, 100
4, 69510, Note_on_c, 2, 60, 100
4, 69513, Note_on_c, 2, 63, 100
4, 69516, Note_on_c, 2, 67, 100
4, 69600, Note_off_c, 2, 67, 0
4, 69600, Note_off_c, 2, 63, 0
4, 69600, Note_off_c, 2, 60, 0
4, 69600, Note_off_c, 2, 55, 0
4, 69600, Note_off_c, 2, 48, 0
4, 69600, Note_on_c, 2, 67, 100
4, 69603, Note_on_c, 2, 62, 100
4, 69606, Note_on_c, 2, 60, 100
4, 69609, Note_on_c, 2, 55, 100
4, 69612, Note_on_c, 2, 48, 100
4, 69696, Note_off_c, 2, 48, 0
4, 69696, Note_off_c, 2, 55, 0
4, 69696, Note_off_c, 2, 60, 0
4, 69696, Note_off_c, 2, 62, 0
4, 69696, Note_off_c, 2, 67, 0
4, 69696, Note_on_c, 2, 48, 100
4, 69700, Note_on_c, 2, 55, 100
4, 69702, Note_on_c, 2, 60, 100
4, 69705, Note_on_c, 2, 63, 100
4, 69708, Note_on_c, 2, 67, 100
4, 69792, Note_off_c, 2, 67, 0
4, 69792, Note_off_c, 2, 63, 0
4, 69792, Note_off_c, 2, 60, 0
4, 69792, Note_off_c, 2, 55, 0
4, 69792, Note_off_c, 2, 48, 0
4, 69792, Note_on_c, 2, 67, 100
4, 69795, Note_on_c, 2, 63, 100
4, 69798, Note_on_c, 2, 60, 100
4, 69801, Note_on_c, 2, 55, 100
4, 69804, Note_on_c, 2, 48, 100
4, 69888, Note_off_c, 2, 48, 0
4, 69888, Note_off_c, 2, 55, 0
4, 69888, Note_off_c, 2, 60, 0
4, 69888, Note_off_c, 2, 63, 0
4, 69888, Note_off_c, 2, 67, 0
4, 69888, Note_on_c, 2, 67, 100
4, 69891, Note_on_c, 2, 62, 100
4, 69894, Note_on_c, 2, 58, 100
4, 69897, Note_on_c, 2, 55, 100
4, 69900, Note_on_c, 2, 50, 100
4, 69904, Note_on_c, 2, 43, 100
4, 70080, Note_off_c, 2, 43, 0
4, 70080, Note_off_c, 2, 50, 0
4, 70080, Note_off_c, 2, 55, 0
4, 70080, Note_off_c, 2, 58, 0
4, 70080, Note_off_c, 2, 62, 0
4, 70080, Note_off_c, 2, 67, 0
4, 70080, Note_on_c, 2, 43, 100
4, 70083, Note_on_c, 2, 50, 100
4, 70086, Note_on_c, 2, 55, 100
4, 70089, Note_on_c, 2, 58, 100
4, 70092, Note_on_c, 2, 62, 100
4, 70096, Note_on_c, 2, 67, 100
4, 70176, Note_off_c, 2, 67, 0
4, 70176, Note_off_c, 2, 62, 0
4, 70176, Note_off_c, 2, 58, 0
4, 70176, Note_off_c, 2, 55, 0
4, 70176, Note_off_c, 2, 50, 0
4, 70176, Note_off_c, 2, 43, 0
4, 70176, Note_on_c, 2, 67, 100
4, 70179, Note_on_c, 2, 62, 100
4, 70182, Note_on_c, 2, 58, 100
4, 70185, Note_on_c, 2, 55, 100
4, 70188, Note_on_c, 2, 50, 100
4, 70192, Note_on_c, 2, 43, 100
4, 70272, Note_off_c, 2, 43, 0
4, 70272, Note_off_c, 2, 50, 0
4, 70272, Note_off_c, 2, 55, 0
4, 70272, Note_off_c, 2, 58, 0
4, 70272, Note_off_c, 2, 62, 0
4, 70272, Note_off_c, 2, 67, 0
4, 70272, Note_on_c, 2, 43, 100
4, 70275, Note_on_c, 2, 50, 100
4, 70278, Note_on_c, 2, 55, 100
4, 70281, Note_on_c, 2, 58, 100
4, 70284, Note_on_c, 2, 62, 100
4, 70288, Note_on_c, 2, 67, 100
4, 70368, Note_off_c, 2, 67, 0
4, 70368, Note_off_c, 2, 62, 0
4, 70368, Note_off_c, 2, 58, 0
4, 70368, Note_off_c, 2, 55, 0
4, 70368, Note_off_c, 2, 50, 0
4, 70368, Note_off_c, 2, 43, 0
4, 70368, Note_on_c, 2, 67, 100
4, 70371, Note_on_c, 2, 62, 100
4, 70374, Note_on_c, 2, 58, 100
4, 70377, Note_on_c, 2, 55, 100
4, 70464, Note_off_c, 2, 55, 0
4, 70464, Note_off_c, 2, 58, 0
4, 70464, Note_off_c, 2, 62, 0
4, 70464, Note_off_c, 2, 67, 0
4, 70464, Note_on_c, 2, 55, 100
4, 70467, Note_on_c, 2, 58, 100
4, 70470, Note_on_c, 2, 62, 100
4, 70473, Note_on_c, 2, 67, 100
4, 70560, Note_off_c, 2, 67, 0
4, 70560, Note_off_c, 2, 62, 0
4, 70560, Note_off_c, 2, 58, 0
4, 70560, Note_off_c, 2, 55, 0
4, 70560, Note_on_c, 2, 67, 100
4, 70563, Note_on_c, 2, 62, 100
4, 70566, Note_on_c, 2, 58, 100
4, 70569, Note_on_c, 2, 53, 100
4, 70572, Note_on_c, 2, 48, 100
4, 70576, Note_on_c, 2, 43, 100
4, 70656, Note_off_c, 2, 43, 0
4, 70656, Note_off_c, 2, 48, 0
4, 70656, Note_off_c, 2, 53, 0
4, 70656, Note_off_c, 2, 58, 0
4, 70656, Note_off_c, 2, 62, 0
4, 70656, Note_off_c, 2, 67, 0
4, 70656, Note_on_c, 2, 69, 100
4, 70659, Note_on_c, 2, 65, 100
4, 70662, Note_on_c, 2, 60, 100
4, 70665, Note_on_c, 2, 53, 100
4, 70848, Note_off_c, 2, 53, 0
4, 70848, Note_off_c, 2, 60, 0
4, 70848, Note_off_c, 2, 65, 0
4, 70848, Note_off_c, 2, 69, 0
4, 70848, Note_on_c, 2, 53, 100
4, 70851, Note_on_c, 2, 60, 100
4, 70854, Note_on_c, 2, 65, 100
4, 70857, Note_on_c, 2, 69, 100
4, 70944, Note_off_c, 2, 69, 0
4, 70944, Note_off_c, 2, 65, 0
4, 70944, Note_off_c, 2, 60, 0
4, 70944, Note_off_c, 2, 53, 0
4, 70944, Note_on_c, 2, 69, 100
4, 70947, Note_on_c, 2, 65, 100
4, 70950, Note_on_c, 2, 60, 100
4, 70953, Note_on_c, 2, 53, 100
4, 71040, Note_off_c, 2, 53, 0
4, 71040, Note_off_c, 2, 60, 0
4, 71040, Note_off_c, 2, 65, 0
4, 71040, Note_off_c, 2, 69, 0
4, 71040, Note_on_c, 2, 53, 100
4, 71043, Note_on_c, 2, 60, 100
4, 71046, Note_on_c, 2, 65, 100
4, 71049, Note_on_c, 2, 69, 100
4, 71232, Note_off_c, 2, 69, 0
4, 71232, Note_off_c, 2, 65, 0
4, 71232, Note_off_c, 2, 60, 0
4, 71232, Note_off_c, 2, 53, 0
4, 71232, Note_on_c, 2, 67, 100
4, 71235, Note_on_c, 2, 65, 100
4, 71238, Note_on_c, 2, 58, 100
4, 71241, Note_on_c, 2, 53, 100
4, 71328, Note_off_c, 2, 53, 0
4, 71328, Note_off_c, 2, 58, 0
4, 71328, Note_off_c, 2, 65, 0
4, 71328, Note_off_c, 2, 67, 0
4, 71328, Note_on_c, 2, 53, 100
4, 71331, Note_on_c, 2, 60, 100
4, 71334, Note_on_c, 2, 65, 100
4, 71337, Note_on_c, 2, 69, 100
4, 71424, Note_off_c, 2, 69, 0
4, 71424, Note_off_c, 2, 65, 0
4, 71424, Note_off_c, 2, 60, 0
4, 71424, Note_off_c, 2, 53, 0
4, 71424, Note_on_c, 2, 69, 100
4, 71427, Note_on_c, 2, 65, 100
4, 71432, Note_on_c, 2, 60, 100
4, 71433, Note_on_c, 2, 53, 100
4, 71520, Note_off_c, 2, 53, 0
4, 71520, Note_off_c, 2, 60, 0
4, 71520, Note_off_c, 2, 65, 0
4, 71520, Note_off_c, 2, 69, 0
4, 71520, Note_on_c, 2, 53, 100
4, 71523, Note_on_c, 2, 58, 100
4, 71526, Note_on_c, 2, 65, 100
4, 71529, Note_on_c, 2, 67, 100
4, 71616, Note_off_c, 2, 67, 0
4, 71616, Note_off_c, 2, 65, 0
4, 71616, Note_off_c, 2, 58, 0
4, 71616, Note_off_c, 2, 53, 0
4, 71616, Note_on_c, 2, 69, 100
4, 71619, Note_on_c, 2, 65, 100
4, 71624, Note_on_c, 2, 60, 100
4, 71625, Note_on_c, 2, 53, 100
4, 71808, Note_off_c, 2, 53, 0
4, 71808, Note_off_c, 2, 60, 0
4, 71808, Note_off_c, 2, 65, 0
4, 71808, Note_off_c, 2, 69, 0
4, 71808, Note_on_c, 2, 53, 100
4, 71811, Note_on_c, 2, 60, 100
4, 71814, Note_on_c, 2, 65, 100
4, 71817, Note_on_c, 2, 69, 100
4, 71904, Note_off_c, 2, 69, 0
4, 71904, Note_off_c, 2, 65, 0
4, 71904, Note_off_c, 2, 60, 0
4, 71904, Note_off_c, 2, 53, 0
4, 71904, Note_on_c, 2, 70, 100
4, 71907, Note_on_c, 2, 65, 100
4, 71910, Note_on_c, 2, 60, 100
4, 71913, Note_on_c, 2, 53, 100
4, 72000, Note_off_c, 2, 53, 0
4, 72000, Note_off_c, 2, 60, 0
4, 72000, Note_off_c, 2, 65, 0
4, 72000, Note_off_c, 2, 70, 0
4, 72000, Note_on_c, 2, 53, 100
4, 72004, Note_on_c, 2, 60, 100
4, 72006, Note_on_c, 2, 65, 100
4, 72009, Note_on_c, 2, 69, 100
4, 72096, Note_off_c, 2, 69, 0
4, 72096, Note_off_c, 2, 65, 0
4, 72096, Note_off_c, 2, 60, 0
4, 72096, Note_off_c, 2, 53, 0
4, 72096, Note_on_c, 2, 67, 100
4, 72100, Note_on_c, 2, 65, 100
4, 72102, Note_on_c, 2, 58, 100
4, 72105, Note_on_c, 2, 53, 100
4, 72192, Note_off_c, 2, 53, 0
4, 72192, Note_off_c, 2, 58, 0
4, 72192, Note_off_c, 2, 65, 0
4, 72192, Note_off_c, 2, 67, 0
4, 72192, Note_on_c, 2, 67, 100
4, 72195, Note_on_c, 2, 62, 100
4, 72198, Note_on_c, 2, 58, 100
4, 72201, Note_on_c, 2, 55, 100
4, 72204, Note_on_c, 2, 50, 100
4, 72208, Note_on_c, 2, 43, 100
4, 72384, Note_off_c, 2, 43, 0
4, 72384, Note_off_c, 2, 50, 0
4, 72384, Note_off_c, 2, 55, 0
4, 72384, Note_off_c, 2, 58, 0
4, 72384, Note_off_c, 2, 62, 0
4, 72384, Note_off_c, 2, 67, 0
4, 72384, Note_on_c, 2, 43, 100
4, 72387, Note_on_c, 2, 50, 100
4, 72390, Note_on_c, 2, 55, 100
4, 72393, Note_on_c, 2, 58, 100
4, 72396, Note_on_c, 2, 62, 100
4, 72400, Note_on_c, 2, 67, 100
4, 72576, Note_off_c, 2, 67, 0
4, 72576, Note_off_c, 2, 62, 0
4, 72576, Note_off_c, 2, 58, 0
4, 72576, Note_off_c, 2, 55, 0
4, 72576, Note_off_c, 2, 50, 0
4, 72576, Note_off_c, 2, 43, 0
4, 72576, Note_on_c, 2, 67, 100
4, 72579, Note_on_c, 2, 62, 100
4, 72582, Note_on_c, 2, 58, 100
4, 72585, Note_on_c, 2, 55, 100
4, 72588, Note_on_c, 2, 50, 100
4, 72592, Note_on_c, 2, 43, 100
4, 72768, Note_off_c, 2, 43, 0
4, 72768, Note_off_c, 2, 50, 0
4, 72768, Note_off_c, 2, 55, 0
4, 72768, Note_off_c, 2, 58, 0
4, 72768, Note_off_c, 2, 62, 0
4, 72768, Note_off_c, 2, 67, 0
4, 72768, Note_on_c, 2, 43, 100
4, 72768, Note_on_c, 2, 58, 100
4, 72771, Note_on_c, 2, 50, 100
4, 72774, Note_on_c, 2, 55, 100
4, 72784, Note_on_c, 2, 67, 100
4, 72790, Note_on_c, 2, 62, 100
4, 72864, Note_off_c, 2, 62, 0
4, 72864, Note_off_c, 2, 67, 0
4, 72864, Note_off_c, 2, 55, 0
4, 72864, Note_off_c, 2, 50, 0
4, 72864, Note_off_c, 2, 58, 0
4, 72864, Note_off_c, 2, 43, 0
4, 72864, Note_on_c, 2, 67, 100
4, 72867, Note_on_c, 2, 62, 100
4, 72870, Note_on_c, 2, 58, 100
4, 72873, Note_on_c, 2, 55, 100
4, 72876, Note_on_c, 2, 50, 100
4, 72880, Note_on_c, 2, 43, 100
4, 72960, Note_off_c, 2, 43, 0
4, 72960, Note_off_c, 2, 50, 0
4, 72960, Note_off_c, 2, 55, 0
4, 72960, Note_off_c, 2, 58, 0
4, 72960, Note_off_c, 2, 62, 0
4, 72960, Note_off_c, 2, 67, 0
4, 72960, Note_on_c, 2, 69, 100
4, 72963, Note_on_c, 2, 65, 100
4, 72964, Note_on_c, 2, 60, 100
4, 72968, Note_on_c, 2, 53, 100
4, 73152, Note_off_c, 2, 53, 0
4, 73152, Note_off_c, 2, 60, 0
4, 73152, Note_off_c, 2, 65, 0
4, 73152, Note_off_c, 2, 69, 0
4, 73152, Note_on_c, 2, 53, 100
4, 73155, Note_on_c, 2, 60, 100
4, 73158, Note_on_c, 2, 65, 100
4, 73160, Note_on_c, 2, 69, 100
4, 73248, Note_off_c, 2, 69, 0
4, 73248, Note_off_c, 2, 65, 0
4, 73248, Note_off_c, 2, 60, 0
4, 73248, Note_off_c, 2, 53, 0
4, 73248, Note_on_c, 2, 69, 100
4, 73251, Note_on_c, 2, 65, 100
4, 73254, Note_on_c, 2, 60, 100
4, 73257, Note_on_c, 2, 53, 100
4, 73344, Note_off_c, 2, 53, 0
4, 73344, Note_off_c, 2, 60, 0
4, 73344, Note_off_c, 2, 65, 0
4, 73344, Note_off_c, 2, 69, 0
4, 73344, Note_on_c, 2, 53, 100
4, 73347, Note_on_c, 2, 58, 100
4, 73350, Note_on_c, 2, 65, 100
4, 73353, Note_on_c, 2, 67, 100
4, 73440, Note_off_c, 2, 67, 0
4, 73440, Note_off_c, 2, 65, 0
4, 73440, Note_off_c, 2, 58, 0
4, 73440, Note_off_c, 2, 53, 0
4, 73440, Note_on_c, 2, 69, 100
4, 73443, Note_on_c, 2, 65, 100
4, 73446, Note_on_c, 2, 60, 100
4, 73449, Note_on_c, 2, 53, 100
4, 73536, Note_off_c, 2, 53, 0
4, 73536, Note_off_c, 2, 60, 0
4, 73536, Note_off_c, 2, 65, 0
4, 73536, Note_off_c, 2, 69, 0
4, 73536, Note_on_c, 2, 53, 100
4, 73539, Note_on_c, 2, 60, 100
4, 73542, Note_on_c, 2, 65, 100
4, 73545, Note_on_c, 2, 69, 100
4, 73632, Note_off_c, 2, 69, 0
4, 73632, Note_off_c, 2, 65, 0
4, 73632, Note_off_c, 2, 60, 0
4, 73632, Note_off_c, 2, 53, 0
4, 73632, Note_on_c, 2, 67, 100
4, 73635, Note_on_c, 2, 65, 100
4, 73638, Note_on_c, 2, 58, 100
4, 73641, Note_on_c, 2, 53, 100
4, 73728, Note_off_c, 2, 53, 0
4, 73728, Note_off_c, 2, 58, 0
4, 73728, Note_off_c, 2, 65, 0
4, 73728, Note_off_c, 2, 67, 0
4, 73728, Note_on_c, 2, 53, 100
4, 73731, Note_on_c, 2, 60, 100
4, 73734, Note_on_c, 2, 65, 100
4, 73737, Note_on_c, 2, 69, 100
4, 73920, Note_off_c, 2, 69, 0
4, 73920, Note_off_c, 2, 65, 0
4, 73920, Note_off_c, 2, 60, 0
4, 73920, Note_off_c, 2, 53, 0
4, 73920, Note_on_c, 2, 69, 100
4, 73923, Note_on_c, 2, 65, 100
4, 73926, Note_on_c, 2, 60, 100
4, 73929, Note_on_c, 2, 53, 100
4, 74016, Note_off_c, 2, 53, 0
4, 74016, Note_off_c, 2, 60, 0
4, 74016, Note_off_c, 2, 65, 0
4, 74016, Note_off_c, 2, 69, 0
4, 74016, Note_on_c, 2, 53, 100
4, 74019, Note_on_c, 2, 60, 100
4, 74022, Note_on_c, 2, 65, 100
4, 74025, Note_on_c, 2, 69, 100
4, 74112, Note_off_c, 2, 69, 0
4, 74112, Note_off_c, 2, 65, 0
4, 74112, Note_off_c, 2, 60, 0
4, 74112, Note_off_c, 2, 53, 0
4, 74112, Note_on_c, 2, 69, 100
4, 74115, Note_on_c, 2, 65, 100
4, 74118, Note_on_c, 2, 60, 100
4, 74121, Note_on_c, 2, 53, 100
4, 74208, Note_off_c, 2, 53, 0
4, 74208, Note_off_c, 2, 60, 0
4, 74208, Note_off_c, 2, 65, 0
4, 74208, Note_off_c, 2, 69, 0
4, 74208, Note_on_c, 2, 53, 100
4, 74211, Note_on_c, 2, 60, 100
4, 74214, Note_on_c, 2, 65, 100
4, 74217, Note_on_c, 2, 70, 100
4, 74304, Note_off_c, 2, 70, 0
4, 74304, Note_off_c, 2, 65, 0
4, 74304, Note_off_c, 2, 60, 0
4, 74304, Note_off_c, 2, 53, 0
4, 74304, Note_on_c, 2, 69, 100
4, 74307, Note_on_c, 2, 65, 100
4, 74310, Note_on_c, 2, 60, 100
4, 74313, Note_on_c, 2, 53, 100
4, 74396, Note_off_c, 2, 65, 0
4, 74400, Note_off_c, 2, 69, 0
4, 74400, Note_off_c, 2, 60, 0
4, 74400, Note_off_c, 2, 53, 0
4, 74400, Note_on_c, 2, 53, 100
4, 74403, Note_on_c, 2, 58, 100
4, 74406, Note_on_c, 2, 65, 100
4, 74409, Note_on_c, 2, 67, 100
4, 74496, Note_off_c, 2, 67, 0
4, 74496, Note_off_c, 2, 65, 0
4, 74496, Note_off_c, 2, 58, 0
4, 74496, Note_off_c, 2, 53, 0
4, 74496, Note_on_c, 2, 67, 100
4, 74499, Note_on_c, 2, 64, 100
4, 74502, Note_on_c, 2, 60, 100
4, 74505, Note_on_c, 2, 55, 100
4, 74508, Note_on_c, 2, 48, 100
4, 74688, Note_off_c, 2, 48, 0
4, 74688, Note_off_c, 2, 55, 0
4, 74688, Note_off_c, 2, 60, 0
4, 74688, Note_off_c, 2, 64, 0
4, 74688, Note_off_c, 2, 67, 0
4, 74688, Note_on_c, 2, 48, 100
4, 74691, Note_on_c, 2, 55, 100
4, 74694, Note_on_c, 2, 60, 100
4, 74697, Note_on_c, 2, 64, 100
4, 74700, Note_on_c, 2, 67, 100
4, 74880, Note_off_c, 2, 67, 0
4, 74880, Note_off_c, 2, 64, 0
4, 74880, Note_off_c, 2, 60, 0
4, 74880, Note_off_c, 2, 55, 0
4, 74880, Note_off_c, 2, 48, 0
4, 74880, Note_on_c, 2, 67, 100
4, 74883, Note_on_c, 2, 62, 100
4, 74886, Note_on_c, 2, 58, 100
4, 74889, Note_on_c, 2, 53, 100
4, 74892, Note_on_c, 2, 48, 100
4, 74976, Note_off_c, 2, 48, 0
4, 74976, Note_off_c, 2, 53, 0
4, 74976, Note_off_c, 2, 58, 0
4, 74976, Note_off_c, 2, 62, 0
4, 74976, Note_off_c, 2, 67, 0
4, 74976, Note_on_c, 2, 48, 100
4, 74980, Note_on_c, 2, 55, 100
4, 74982, Note_on_c, 2, 60, 100
4, 74985, Note_on_c, 2, 64, 100
4, 74988, Note_on_c, 2, 67, 100
4, 75072, Note_off_c, 2, 67, 0
4, 75072, Note_off_c, 2, 64, 0
4, 75072, Note_off_c, 2, 60, 0
4, 75072, Note_off_c, 2, 55, 0
4, 75072, Note_off_c, 2, 48, 0
4, 75076, Note_on_c, 2, 67, 100
4, 75078, Note_on_c, 2, 64, 100
4, 75081, Note_on_c, 2, 55, 100
4, 75081, Note_on_c, 2, 60, 100
4, 75084, Note_on_c, 2, 48, 100
4, 75168, Note_off_c, 2, 48, 0
4, 75168, Note_off_c, 2, 60, 0
4, 75168, Note_off_c, 2, 55, 0
4, 75168, Note_off_c, 2, 64, 0
4, 75168, Note_off_c, 2, 67, 0
4, 75168, Note_on_c, 2, 48, 100
4, 75171, Note_on_c, 2, 53, 100
4, 75177, Note_on_c, 2, 62, 100
4, 75179, Note_on_c, 2, 58, 100
4, 75180, Note_on_c, 2, 67, 100
4, 75264, Note_off_c, 2, 67, 0
4, 75264, Note_off_c, 2, 58, 0
4, 75264, Note_off_c, 2, 62, 0
4, 75264, Note_off_c, 2, 53, 0
4, 75264, Note_off_c, 2, 48, 0
4, 75264, Note_on_c, 2, 67, 100
4, 75267, Note_on_c, 2, 63, 100
4, 75270, Note_on_c, 2, 60, 100
4, 75273, Note_on_c, 2, 55, 100
4, 75276, Note_on_c, 2, 48, 100
4, 75456, Note_off_c, 2, 48, 0
4, 75456, Note_off_c, 2, 55, 0
4, 75456, Note_off_c, 2, 60, 0
4, 75456, Note_off_c, 2, 63, 0
4, 75456, Note_off_c, 2, 67, 0
4, 75456, Note_on_c, 2, 48, 100
4, 75459, Note_on_c, 2, 55, 100
4, 75462, Note_on_c, 2, 60, 100
4, 75465, Note_on_c, 2, 63, 100
4, 75468, Note_on_c, 2, 67, 100
4, 75552, Note_off_c, 2, 67, 0
4, 75552, Note_off_c, 2, 63, 0
4, 75552, Note_off_c, 2, 60, 0
4, 75552, Note_off_c, 2, 55, 0
4, 75552, Note_off_c, 2, 48, 0
4, 75552, Note_on_c, 2, 67, 100
4, 75555, Note_on_c, 2, 63, 100
4, 75558, Note_on_c, 2, 60, 100
4, 75561, Note_on_c, 2, 55, 100
4, 75564, Note_on_c, 2, 48, 100
4, 75648, Note_off_c, 2, 48, 0
4, 75648, Note_off_c, 2, 55, 0
4, 75648, Note_off_c, 2, 60, 0
4, 75648, Note_off_c, 2, 63, 0
4, 75648, Note_off_c, 2, 67, 0
4, 75648, Note_on_c, 2, 48, 100
4, 75652, Note_on_c, 2, 55, 100
4, 75654, Note_on_c, 2, 60, 100
4, 75657, Note_on_c, 2, 63, 100
4, 75660, Note_on_c, 2, 67, 100
4, 75744, Note_off_c, 2, 67, 0
4, 75744, Note_off_c, 2, 63, 0
4, 75744, Note_off_c, 2, 60, 0
4, 75744, Note_off_c, 2, 55, 0
4, 75744, Note_off_c, 2, 48, 0
4, 75744, Note_on_c, 2, 67, 100
4, 75747, Note_on_c, 2, 62, 100
4, 75750, Note_on_c, 2, 60, 100
4, 75753, Note_on_c, 2, 55, 100
4, 75756, Note_on_c, 2, 48, 100
4, 75840, Note_off_c, 2, 48, 0
4, 75840, Note_off_c, 2, 55, 0
4, 75840, Note_off_c, 2, 60, 0
4, 75840, Note_off_c, 2, 62, 0
4, 75840, Note_off_c, 2, 67, 0
4, 75840, Note_on_c, 2, 48, 100
4, 75844, Note_on_c, 2, 55, 100
4, 75846, Note_on_c, 2, 60, 100
4, 75849, Note_on_c, 2, 63, 100
4, 75852, Note_on_c, 2, 67, 100
4, 75936, Note_off_c, 2, 67, 0
4, 75936, Note_off_c, 2, 63, 0
4, 75936, Note_off_c, 2, 60, 0
4, 75936, Note_off_c, 2, 55, 0
4, 75936, Note_off_c, 2, 48, 0
4, 75936, Note_on_c, 2, 67, 100
4, 75939, Note_on_c, 2, 63, 100
4, 75942, Note_on_c, 2, 60, 100
4, 75945, Note_on_c, 2, 55, 100
4, 75948, Note_on_c, 2, 48, 100
4, 76032, Note_off_c, 2, 48, 0
4, 76032, Note_off_c, 2, 55, 0
4, 76032, Note_off_c, 2, 60, 0
4, 76032, Note_off_c, 2, 63, 0
4, 76032, Note_off_c, 2, 67, 0
4, 76032, Note_on_c, 2, 67, 100
4, 76035, Note_on_c, 2, 62, 100
4, 76038, Note_on_c, 2, 58, 100
4, 76041, Note_on_c, 2, 55, 100
4, 76044, Note_on_c, 2, 50, 100
4, 76048, Note_on_c, 2, 43, 100
4, 76224, Note_off_c, 2, 43, 0
4, 76224, Note_off_c, 2, 50, 0
4, 76224, Note_off_c, 2, 55, 0
4, 76224, Note_off_c, 2, 58, 0
4, 76224, Note_off_c, 2, 62, 0
4, 76224, Note_off_c, 2, 67, 0
4, 76224, Note_on_c, 2, 43, 100
4, 76227, Note_on_c, 2, 50, 100
4, 76230, Note_on_c, 2, 55, 100
4, 76233, Note_on_c, 2, 58, 100
4, 76236, Note_on_c, 2, 62, 100
4, 76240, Note_on_c, 2, 67, 100
4, 76320, Note_off_c, 2, 67, 0
4, 76320, Note_off_c, 2, 62, 0
4, 76320, Note_off_c, 2, 58, 0
4, 76320, Note_off_c, 2, 55, 0
4, 76320, Note_off_c, 2, 50, 0
4, 76320, Note_off_c, 2, 43, 0
4, 76320, Note_on_c, 2, 67, 100
4, 76323, Note_on_c, 2, 62, 100
4, 76326, Note_on_c, 2, 58, 100
4, 76329, Note_on_c, 2, 55, 100
4, 76332, Note_on_c, 2, 50, 100
4, 76336, Note_on_c, 2, 43, 100
4, 76416, Note_off_c, 2, 43, 0
4, 76416, Note_off_c, 2, 50, 0
4, 76416, Note_off_c, 2, 55, 0
4, 76416, Note_off_c, 2, 58, 0
4, 76416, Note_off_c, 2, 62, 0
4, 76416, Note_off_c, 2, 67, 0
4, 76416, Note_on_c, 2, 43, 100
4, 76419, Note_on_c, 2, 50, 100
4, 76422, Note_on_c, 2, 55, 100
4, 76425, Note_on_c, 2, 58, 100
4, 76428, Note_on_c, 2, 62, 100
4, 76432, Note_on_c, 2, 67, 100
4, 76512, Note_off_c, 2, 67, 0
4, 76512, Note_off_c, 2, 62, 0
4, 76512, Note_off_c, 2, 58, 0
4, 76512, Note_off_c, 2, 55, 0
4, 76512, Note_off_c, 2, 50, 0
4, 76512, Note_off_c, 2, 43, 0
4, 76512, Note_on_c, 2, 67, 100
4, 76515, Note_on_c, 2, 62, 100
4, 76518, Note_on_c, 2, 58, 100
4, 76521, Note_on_c, 2, 55, 100
4, 76608, Note_off_c, 2, 55, 0
4, 76608, Note_off_c, 2, 58, 0
4, 76608, Note_off_c, 2, 62, 0
4, 76608, Note_off_c, 2, 67, 0
4, 76608, Note_on_c, 2, 55, 100
4, 76611, Note_on_c, 2, 58, 100
4, 76614, Note_on_c, 2, 62, 100
4, 76617, Note_on_c, 2, 67, 100
4, 76704, Note_off_c, 2, 67, 0
4, 76704, Note_off_c, 2, 62, 0
4, 76704, Note_off_c, 2, 58, 0
4, 76704, Note_off_c, 2, 55, 0
4, 76704, Note_on_c, 2, 67, 100
4, 76707, Note_on_c, 2, 62, 100
4, 76710, Note_on_c, 2, 58, 100
4, 76713, Note_on_c, 2, 53, 100
4, 76716, Note_on_c, 2, 48, 100
4, 76720, Note_on_c, 2, 43, 100
4, 76800, Note_off_c, 2, 43, 0
4, 76800, Note_off_c, 2, 48, 0
4, 76800, Note_off_c, 2, 53, 0
4, 76800, Note_off_c, 2, 58, 0
4, 76800, Note_off_c, 2, 62, 0
4, 76800, Note_off_c, 2, 67, 0
4, 76800, Note_on_c, 2, 69, 100
4, 76803, Note_on_c, 2, 65, 100
4, 76806, Note_on_c, 2, 60, 100
4, 76809, Note_on_c, 2, 53, 100
4, 76992, Note_off_c, 2, 53, 0
4, 76992, Note_off_c, 2, 60, 0
4, 76992, Note_off_c, 2, 65, 0
4, 76992, Note_off_c, 2, 69, 0
4, 76992, Note_on_c, 2, 53, 100
4, 76995, Note_on_c, 2, 60, 100
4, 76998, Note_on_c, 2, 65, 100
4, 77001, Note_on_c, 2, 69, 100
4, 77088, Note_off_c, 2, 69, 0
4, 77088, Note_off_c, 2, 65, 0
4, 77088, Note_off_c, 2, 60, 0
4, 77088, Note_off_c, 2, 53, 0
4, 77088, Note_on_c, 2, 69, 100
4, 77091, Note_on_c, 2, 65, 100
4, 77094, Note_on_c, 2, 60, 100
4, 77097, Note_on_c, 2, 53, 100
4, 77184, Note_off_c, 2, 53, 0
4, 77184, Note_off_c, 2, 60, 0
4, 77184, Note_off_c, 2, 65, 0
4, 77184, Note_off_c, 2, 69, 0
4, 77184, Note_on_c, 2, 53, 100
4, 77187, Note_on_c, 2, 60, 100
4, 77190, Note_on_c, 2, 65, 100
4, 77193, Note_on_c, 2, 69, 100
4, 77376, Note_off_c, 2, 69, 0
4, 77376, Note_off_c, 2, 65, 0
4, 77376, Note_off_c, 2, 60, 0
4, 77376, Note_off_c, 2, 53, 0
4, 77376, Note_on_c, 2, 67, 100
4, 77379, Note_on_c, 2, 65, 100
4, 77382, Note_on_c, 2, 58, 100
4, 77385, Note_on_c, 2, 53, 100
4, 77472, Note_off_c, 2, 53, 0
4, 77472, Note_off_c, 2, 58, 0
4, 77472, Note_off_c, 2, 65, 0
4, 77472, Note_off_c, 2, 67, 0
4, 77472, Note_on_c, 2, 53, 100
4, 77475, Note_on_c, 2, 60, 100
4, 77478, Note_on_c, 2, 65, 100
4, 77481, Note_on_c, 2, 69, 100
4, 77568, Note_off_c, 2, 69, 0
4, 77568, Note_off_c, 2, 65, 0
4, 77568, Note_off_c, 2, 60, 0
4, 77568, Note_off_c, 2, 53, 0
4, 77568, Note_on_c, 2, 69, 100
4, 77571, Note_on_c, 2, 65, 100
4, 77576, Note_on_c, 2, 60, 100
4, 77577, Note_on_c, 2, 53, 100
4, 77664, Note_off_c, 2, 53, 0
4, 77664, Note_off_c, 2, 60, 0
4, 77664, Note_off_c, 2, 65, 0
4, 77664, Note_off_c, 2, 69, 0
4, 77664, Note_on_c, 2, 53, 100
4, 77667, Note_on_c, 2, 58, 100
4, 77670, Note_on_c, 2, 65, 100
4, 77673, Note_on_c, 2, 67, 100
4, 77760, Note_off_c, 2, 67, 0
4, 77760, Note_off_c, 2, 65, 0
4, 77760, Note_off_c, 2, 58, 0
4, 77760, Note_off_c, 2, 53, 0
4, 77760, Note_on_c, 2, 69, 100
4, 77763, Note_on_c, 2, 65, 100
4, 77768, Note_on_c, 2, 60, 100
4, 77769, Note_on_c, 2, 53, 100
4, 77952, Note_off_c, 2, 53, 0
4, 77952, Note_off_c, 2, 60, 0
4, 77952, Note_off_c, 2, 65, 0
4, 77952, Note_off_c, 2, 69, 0
4, 77952, Note_on_c, 2, 53, 100
4, 77955, Note_on_c, 2, 60, 100
4, 77958, Note_on_c, 2, 65, 100
4, 77961, Note_on_c, 2, 69, 100
4, 78048, Note_off_c, 2, 69, 0
4, 78048, Note_off_c, 2, 65, 0
4, 78048, Note_off_c, 2, 60, 0
4, 78048, Note_off_c, 2, 53, 0
4, 78048, Note_on_c, 2, 70, 100
4, 78051, Note_on_c, 2, 65, 100
4, 78054, Note_on_c, 2, 60, 100
4, 78057, Note_on_c, 2, 53, 100
4, 78144, Note_off_c, 2, 53, 0
4, 78144, Note_off_c, 2, 60, 0
4, 78144, Note_off_c, 2, 65, 0
4, 78144, Note_off_c, 2, 70, 0
4, 78144, Note_on_c, 2, 53, 100
4, 78148, Note_on_c, 2, 60, 100
4, 78150, Note_on_c, 2, 65, 100
4, 78153, Note_on_c, 2, 69, 100
4, 78240, Note_off_c, 2, 69, 0
4, 78240, Note_off_c, 2, 65, 0
4, 78240, Note_off_c, 2, 60, 0
4, 78240, Note_off_c, 2, 53, 0
4, 78240, Note_on_c, 2, 67, 100
4, 78244, Note_on_c, 2, 65, 100
4, 78246, Note_on_c, 2, 58, 100
4, 78249, Note_on_c, 2, 53, 100
4, 78336, Note_off_c, 2, 53, 0
4, 78336, Note_off_c, 2, 58, 0
4, 78336, Note_off_c, 2, 65, 0
4, 78336, Note_off_c, 2, 67, 0
4, 78336, Note_on_c, 2, 67, 100
4, 78339, Note_on_c, 2, 65, 100
4, 78342, Note_on_c, 2, 58, 100
4, 78345, Note_on_c, 2, 53, 100
4, 78432, Note_off_c, 2, 53, 0
4, 78432, Note_off_c, 2, 58, 0
4, 78432, Note_off_c, 2, 65, 0
4, 78432, Note_off_c, 2, 67, 0
4, 78432, Note_on_c, 2, 53, 100
4, 78435, Note_on_c, 2, 60, 100
4, 78438, Note_on_c, 2, 65, 100
4, 78441, Note_on_c, 2, 69, 100
4, 78528, Note_off_c, 2, 69, 0
4, 78528, Note_off_c, 2, 65, 0
4, 78528, Note_off_c, 2, 60, 0
4, 78528, Note_off_c, 2, 53, 0
4, 78528, Note_on_c, 2, 69, 100
4, 78531, Note_on_c, 2, 65, 100
4, 78534, Note_on_c, 2, 60, 100
4, 78537, Note_on_c, 2, 53, 100
4, 78624, Note_off_c, 2, 53, 0
4, 78624, Note_off_c, 2, 60, 0
4, 78624, Note_off_c, 2, 65, 0
4, 78624, Note_off_c, 2, 69, 0
4, 78624, Note_on_c, 2, 53, 100
4, 78627, Note_on_c, 2, 60, 100
4, 78630, Note_on_c, 2, 65, 100
4, 78633, Note_on_c, 2, 69, 100
4, 78720, Note_off_c, 2, 69, 0
4, 78720, Note_off_c, 2, 65, 0
4, 78720, Note_off_c, 2, 60, 0
4, 78720, Note_off_c, 2, 53, 0
4, 78720, Note_on_c, 2, 69, 100
4, 78723, Note_on_c, 2, 65, 100
4, 78726, Note_on_c, 2, 60, 100
4, 78729, Note_on_c, 2, 53, 100
4, 78912, Note_off_c, 2, 53, 0
4, 78912, Note_off_c, 2, 60, 0
4, 78912, Note_off_c, 2, 65, 0
4, 78912, Note_off_c, 2, 69, 0
4, 78912, Note_on_c, 2, 53, 100
4, 78915, Note_on_c, 2, 58, 100
4, 78918, Note_on_c, 2, 65, 100
4, 78921, Note_on_c, 2, 67, 100
4, 79008, Note_off_c, 2, 67, 0
4, 79008, Note_off_c, 2, 65, 0
4, 79008, Note_off_c, 2, 58, 0
4, 79008, Note_off_c, 2, 53, 0
4, 79008, Note_on_c, 2, 69, 100
4, 79011, Note_on_c, 2, 65, 100
4, 79014, Note_on_c, 2, 60, 100
4, 79017, Note_on_c, 2, 53, 100
4, 79200, Note_off_c, 2, 53, 0
4, 79200, Note_off_c, 2, 60, 0
4, 79200, Note_off_c, 2, 65, 0
4, 79200, Note_off_c, 2, 69, 0
4, 79200, Note_on_c, 2, 53, 100
4, 79203, Note_on_c, 2, 58, 100
4, 79206, Note_on_c, 2, 65, 100
4, 79209, Note_on_c, 2, 67, 100
4, 79296, Note_off_c, 2, 67, 0
4, 79296, Note_off_c, 2, 65, 0
4, 79296, Note_off_c, 2, 58, 0
4, 79296, Note_off_c, 2, 53, 0
4, 79296, Note_on_c, 2, 69, 100
4, 79299, Note_on_c, 2, 65, 100
4, 79302, Note_on_c, 2, 60, 100
4, 79305, Note_on_c, 2, 53, 100
4, 79488, Note_off_c, 2, 53, 0
4, 79488, Note_off_c, 2, 60, 0
4, 79488, Note_off_c, 2, 65, 0
4, 79488, Note_off_c, 2, 69, 0
4, 79488, Note_on_c, 2, 53, 100
4, 79491, Note_on_c, 2, 58, 100
4, 79494, Note_on_c, 2, 65, 100
4, 79497, Note_on_c, 2, 67, 100
4, 79584, Note_off_c, 2, 67, 0
4, 79584, Note_off_c, 2, 65, 0
4, 79584, Note_off_c, 2, 58, 0
4, 79584, Note_off_c, 2, 53, 0
4, 79584, Note_on_c, 2, 69, 100
4, 79587, Note_on_c, 2, 65, 100
4, 79590, Note_on_c, 2, 60, 100
4, 79593, Note_on_c, 2, 53, 100
4, 79680, Note_off_c, 2, 53, 0
4, 79680, Note_off_c, 2, 60, 0
4, 79680, Note_off_c, 2, 65, 0
4, 79680, Note_off_c, 2, 69, 0
4, 79680, Note_on_c, 2, 53, 100
4, 79683, Note_on_c, 2, 60, 100
4, 79686, Note_on_c, 2, 65, 100
4, 79689, Note_on_c, 2, 69, 100
4, 79776, Note_off_c, 2, 69, 0
4, 79776, Note_off_c, 2, 65, 0
4, 79776, Note_off_c, 2, 60, 0
4, 79776, Note_off_c, 2, 53, 0
4, 79776, Note_on_c, 2, 67, 100
4, 79779, Note_on_c, 2, 65, 100
4, 79782, Note_on_c, 2, 58, 100
4, 79785, Note_on_c, 2, 53, 100
4, 79872, Note_off_c, 2, 53, 0
4, 79872, Note_off_c, 2, 58, 0
4, 79872, Note_off_c, 2, 65, 0
4, 79872, Note_off_c, 2, 67, 0
4, 79872, Note_on_c, 2, 67, 100
4, 79875, Note_on_c, 2, 62, 100
4, 79878, Note_on_c, 2, 58, 100
4, 79881, Note_on_c, 2, 55, 100
4, 79884, Note_on_c, 2, 50, 100
4, 79888, Note_on_c, 2, 43, 100
4, 80064, Note_off_c, 2, 43, 0
4, 80064, Note_off_c, 2, 50, 0
4, 80064, Note_off_c, 2, 55, 0
4, 80064, Note_off_c, 2, 58, 0
4, 80064, Note_off_c, 2, 62, 0
4, 80064, Note_off_c, 2, 67, 0
4, 80064, Note_on_c, 2, 43, 100
4, 80067, Note_on_c, 2, 50, 100
4, 80070, Note_on_c, 2, 55, 100
4, 80073, Note_on_c, 2, 58, 100
4, 80076, Note_on_c, 2, 62, 100
4, 80080, Note_on_c, 2, 67, 100
4, 80256, Note_off_c, 2, 67, 0
4, 80256, Note_off_c, 2, 62, 0
4, 80256, Note_off_c, 2, 58, 0
4, 80256, Note_off_c, 2, 55, 0
4, 80256, Note_off_c, 2, 50, 0
4, 80256, Note_off_c, 2, 43, 0
4, 80256, Note_on_c, 2, 67, 100
4, 80259, Note_on_c, 2, 62, 100
4, 80262, Note_on_c, 2, 58, 100
4, 80265, Note_on_c, 2, 55, 100
4, 80268, Note_on_c, 2, 50, 100
4, 80272, Note_on_c, 2, 43, 100
4, 80448, Note_off_c, 2, 43, 0
4, 80448, Note_off_c, 2, 50, 0
4, 80448, Note_off_c, 2, 55, 0
4, 80448, Note_off_c, 2, 58, 0
4, 80448, Note_off_c, 2, 62, 0
4, 80448, Note_off_c, 2, 67, 0
4, 80448, Note_on_c, 2, 43, 100
4, 80448, Note_on_c, 2, 58, 100
4, 80451, Note_on_c, 2, 50, 100
4, 80454, Note_on_c, 2, 55, 100
4, 80464, Note_on_c, 2, 67, 100
4, 80470, Note_on_c, 2, 62, 100
4, 80544, Note_off_c, 2, 62, 0
4, 80544, Note_off_c, 2, 67, 0
4, 80544, Note_off_c, 2, 55, 0
4, 80544, Note_off_c, 2, 50, 0
4, 80544, Note_off_c, 2, 58, 0
4, 80544, Note_off_c, 2, 43, 0
4, 80544, Note_on_c, 2, 67, 100
4, 80547, Note_on_c, 2, 62, 100
4, 80550, Note_on_c, 2, 58, 100
4, 80553, Note_on_c, 2, 55, 100
4, 80556, Note_on_c, 2, 50, 100
4, 80560, Note_on_c, 2, 43, 100
4, 80640, Note_off_c, 2, 43, 0
4, 80640, Note_off_c, 2, 50, 0
4, 80640, Note_off_c, 2, 55, 0
4, 80640, Note_off_c, 2, 58, 0
4, 80640, Note_off_c, 2, 62, 0
4, 80640, Note_off_c, 2, 67, 0
4, 80640, Note_on_c, 2, 69, 100
4, 80643, Note_on_c, 2, 65, 100
4, 80644, Note_on_c, 2, 60, 100
4, 80648, Note_on_c, 2, 53, 100
4, 80832, Note_off_c, 2, 53, 0
4, 80832, Note_off_c, 2, 60, 0
4, 80832, Note_off_c, 2, 65, 0
4, 80832, Note_off_c, 2, 69, 0
4, 80832, Note_on_c, 2, 53, 100
4, 80835, Note_on_c, 2, 60, 100
4, 80838, Note_on_c, 2, 65, 100
4, 80840, Note_on_c, 2, 69, 100
4, 80928, Note_off_c, 2, 69, 0
4, 80928, Note_off_c, 2, 65, 0
4, 80928, Note_off_c, 2, 60, 0
4, 80928, Note_off_c, 2, 53, 0
4, 80928, Note_on_c, 2, 69, 100
4, 80931, Note_on_c, 2, 65, 100
4, 80934, Note_on_c, 2, 60, 100
4, 80937, Note_on_c, 2, 53, 100
4, 81024, Note_off_c, 2, 53, 0
4, 81024, Note_off_c, 2, 60, 0
4, 81024, Note_off_c, 2, 65, 0
4, 81024, Note_off_c, 2, 69, 0
4, 81024, Note_on_c, 2, 53, 100
4, 81027, Note_on_c, 2, 58, 100
4, 81030, Note_on_c, 2, 65, 100
4, 81033, Note_on_c, 2, 67, 100
4, 81120, Note_off_c, 2, 67, 0
4, 81120, Note_off_c, 2, 65, 0
4, 81120, Note_off_c, 2, 58, 0
4, 81120, Note_off_c, 2, 53, 0
4, 81120, Note_on_c, 2, 69, 100
4, 81123, Note_on_c, 2, 65, 100
4, 81126, Note_on_c, 2, 60, 100
4, 81129, Note_on_c, 2, 53, 100
4, 81216, Note_off_c, 2, 53, 0
4, 81216, Note_off_c, 2, 60, 0
4, 81216, Note_off_c, 2, 65, 0
4, 81216, Note_off_c, 2, 69, 0
4, 81216, Note_on_c, 2, 53, 100
4, 81219, Note_on_c, 2, 60, 100
4, 81222, Note_on_c, 2, 65, 100
4, 81225, Note_on_c, 2, 69, 100
4, 81312, Note_off_c, 2, 69, 0
4, 81312, Note_off_c, 2, 65, 0
4, 81312, Note_off_c, 2, 60, 0
4, 81312, Note_off_c, 2, 53, 0
4, 81312, Note_on_c, 2, 67, 100
4, 81315, Note_on_c, 2, 65, 100
4, 81318, Note_on_c, 2, 58, 100
4, 81321, Note_on_c, 2, 53, 100
4, 81408, Note_off_c, 2, 53, 0
4, 81408, Note_off_c, 2, 58, 0
4, 81408, Note_off_c, 2, 65, 0
4, 81408, Note_off_c, 2, 67, 0
4, 81408, Note_on_c, 2, 53, 100
4, 81411, Note_on_c, 2, 60, 100
4, 81414, Note_on_c, 2, 65, 100
4, 81417, Note_on_c, 2, 69, 100
4, 81600, Note_off_c, 2, 69, 0
4, 81600, Note_off_c, 2, 65, 0
4, 81600, Note_off_c, 2, 60, 0
4, 81600, Note_off_c, 2, 53, 0
4, 81600, Note_on_c, 2, 69, 100
4, 81603, Note_on_c, 2, 65, 100
4, 81606, Note_on_c, 2, 60, 100
4, 81609, Note_on_c, 2, 53, 100
4, 81696, Note_off_c, 2, 53, 0
4, 81696, Note_off_c, 2, 60, 0
4, 81696, Note_off_c, 2, 65, 0
4, 81696, Note_off_c, 2, 69, 0
4, 81696, Note_on_c, 2, 53, 100
4, 81699, Note_on_c, 2, 60, 100
4, 81702, Note_on_c, 2, 65, 100
4, 81705, Note_on_c, 2, 69, 100
4, 81792, Note_off_c, 2, 69, 0
4, 81792, Note_off_c, 2, 65, 0
4, 81792, Note_off_c, 2, 60, 0
4, 81792, Note_off_c, 2, 53, 0
4, 81792, Note_on_c, 2, 69, 100
4, 81795, Note_on_c, 2, 65, 100
4, 81798, Note_on_c, 2, 60, 100
4, 81801, Note_on_c, 2, 53, 100
4, 81888, Note_off_c, 2, 53, 0
4, 81888, Note_off_c, 2, 60, 0
4, 81888, Note_off_c, 2, 65, 0
4, 81888, Note_off_c, 2, 69, 0
4, 81888, Note_on_c, 2, 53, 100
4, 81891, Note_on_c, 2, 60, 100
4, 81894, Note_on_c, 2, 65, 100
4, 81897, Note_on_c, 2, 70, 100
4, 81984, Note_off_c, 2, 70, 0
4, 81984, Note_off_c, 2, 65, 0
4, 81984, Note_off_c, 2, 60, 0
4, 81984, Note_off_c, 2, 53, 0
4, 81984, Note_on_c, 2, 69, 100
4, 81987, Note_on_c, 2, 65, 100
4, 81990, Note_on_c, 2, 60, 100
4, 81993, Note_on_c, 2, 53, 100
4, 82076, Note_off_c, 2, 65, 0
4, 82080, Note_off_c, 2, 69, 0
4, 82080, Note_off_c, 2, 60, 0
4, 82080, Note_off_c, 2, 53, 0
4, 82080, Note_on_c, 2, 53, 100
4, 82083, Note_on_c, 2, 58, 100
4, 82086, Note_on_c, 2, 65, 100
4, 82089, Note_on_c, 2, 67, 100
4, 82176, Note_off_c, 2, 67, 0
4, 82176, Note_off_c, 2, 65, 0
4, 82176, Note_off_c, 2, 58, 0
4, 82176, Note_off_c, 2, 53, 0
4, 82176, Note_on_c, 2, 67, 100
4, 82179, Note_on_c, 2, 64, 100
4, 82182, Note_on_c, 2, 60, 100
4, 82185, Note_on_c, 2, 55, 100
4, 82188, Note_on_c, 2, 48, 100
4, 82368, Note_off_c, 2, 48, 0
4, 82368, Note_off_c, 2, 55, 0
4, 82368, Note_off_c, 2, 60, 0
4, 82368, Note_off_c, 2, 64, 0
4, 82368, Note_off_c, 2, 67, 0
4, 82368, Note_on_c, 2, 48, 100
4, 82371, Note_on_c, 2, 55, 100
4, 82374, Note_on_c, 2, 60, 100
4, 82377, Note_on_c, 2, 64, 100
4, 82380, Note_on_c, 2, 67, 100
4, 82560, Note_off_c, 2, 67, 0
4, 82560, Note_off_c, 2, 64, 0
4, 82560, Note_off_c, 2, 60, 0
4, 82560, Note_off_c, 2, 55, 0
4, 82560, Note_off_c, 2, 48, 0
4, 82560, Note_on_c, 2, 67, 100
4, 82563, Note_on_c, 2, 62, 100
4, 82566, Note_on_c, 2, 58, 100
4, 82569, Note_on_c, 2, 53, 100
4, 82572, Note_on_c, 2, 48, 100
4, 82656, Note_off_c, 2, 48, 0
4, 82656, Note_off_c, 2, 53, 0
4, 82656, Note_off_c, 2, 58, 0
4, 82656, Note_off_c, 2, 62, 0
4, 82656, Note_off_c, 2, 67, 0
4, 82656, Note_on_c, 2, 48, 100
4, 82660, Note_on_c, 2, 55, 100
4, 82662, Note_on_c, 2, 60, 100
4, 82665, Note_on_c, 2, 64, 100
4, 82668, Note_on_c, 2, 67, 100
4, 82752, Note_off_c, 2, 67, 0
4, 82752, Note_off_c, 2, 64, 0
4, 82752, Note_off_c, 2, 60, 0
4, 82752, Note_off_c, 2, 55, 0
4, 82752, Note_off_c, 2, 48, 0
4, 82756, Note_on_c, 2, 67, 100
4, 82758, Note_on_c, 2, 64, 100
4, 82761, Note_on_c, 2, 55, 100
4, 82761, Note_on_c, 2, 60, 100
4, 82764, Note_on_c, 2, 48, 100
4, 82848, Note_off_c, 2, 48, 0
4, 82848, Note_off_c, 2, 60, 0
4, 82848, Note_off_c, 2, 55, 0
4, 82848, Note_off_c, 2, 64, 0
4, 82848, Note_off_c, 2, 67, 0
4, 82848, Note_on_c, 2, 48, 100
4, 82851, Note_on_c, 2, 53, 100
4, 82857, Note_on_c, 2, 62, 100
4, 82859, Note_on_c, 2, 58, 100
4, 82860, Note_on_c, 2, 67, 100
4, 82944, Note_off_c, 2, 67, 0
4, 82944, Note_off_c, 2, 58, 0
4, 82944, Note_off_c, 2, 62, 0
4, 82944, Note_off_c, 2, 53, 0
4, 82944, Note_off_c, 2, 48, 0
4, 82944, Note_on_c, 2, 67, 100
4, 82947, Note_on_c, 2, 63, 100
4, 82950, Note_on_c, 2, 60, 100
4, 82953, Note_on_c, 2, 55, 100
4, 82956, Note_on_c, 2, 48, 100
4, 83136, Note_off_c, 2, 48, 0
4, 83136, Note_off_c, 2, 55, 0
4, 83136, Note_off_c, 2, 60, 0
4, 83136, Note_off_c, 2, 63, 0
4, 83136, Note_off_c, 2, 67, 0
4, 83136, Note_on_c, 2, 48, 100
4, 83139, Note_on_c, 2, 55, 100
4, 83142, Note_on_c, 2, 60, 100
4, 83145, Note_on_c, 2, 63, 100
4, 83148, Note_on_c, 2, 67, 100
4, 83232, Note_off_c, 2, 67, 0
4, 83232, Note_off_c, 2, 63, 0
4, 83232, Note_off_c, 2, 60, 0
4, 83232, Note_off_c, 2, 55, 0
4, 83232, Note_off_c, 2, 48, 0
4, 83232, Note_on_c, 2, 67, 100
4, 83235, Note_on_c, 2, 63, 100
4, 83238, Note_on_c, 2, 60, 100
4, 83241, Note_on_c, 2, 55, 100
4, 83244, Note_on_c, 2, 48, 100
4, 83328, Note_off_c, 2, 48, 0
4, 83328, Note_off_c, 2, 55, 0
4, 83328, Note_off_c, 2, 60, 0
4, 83328, Note_off_c, 2, 63, 0
4, 83328, Note_off_c, 2, 67, 0
4, 83328, Note_on_c, 2, 48, 100
4, 83332, Note_on_c, 2, 55, 100
4, 83334, Note_on_c, 2, 60, 100
4, 83337, Note_on_c, 2, 63, 100
4, 83340, Note_on_c, 2, 67, 100
4, 83424, Note_off_c, 2, 67, 0
4, 83424, Note_off_c, 2, 63, 0
4, 83424, Note_off_c, 2, 60, 0
4, 83424, Note_off_c, 2, 55, 0
4, 83424, Note_off_c, 2, 48, 0
4, 83424, Note_on_c, 2, 67, 100
4, 83427, Note_on_c, 2, 62, 100
4, 83430, Note_on_c, 2, 60, 100
4, 83433, Note_on_c, 2, 55, 100
4, 83436, Note_on_c, 2, 48, 100
4, 83520, Note_off_c, 2, 48, 0
4, 83520, Note_off_c, 2, 55, 0
4, 83520, Note_off_c, 2, 60, 0
4, 83520, Note_off_c, 2, 62, 0
4, 83520, Note_off_c, 2, 67, 0
4, 83520, Note_on_c, 2, 48, 100
4, 83524, Note_on_c, 2, 55, 100
4, 83526, Note_on_c, 2, 60, 100
4, 83529, Note_on_c, 2, 63, 100
4, 83532, Note_on_c, 2, 67, 100
4, 83616, Note_off_c, 2, 67, 0
4, 83616, Note_off_c, 2, 63, 0
4, 83616, Note_off_c, 2, 60, 0
4, 83616, Note_off_c, 2, 55, 0
4, 83616, Note_off_c, 2, 48, 0
4, 83616, Note_on_c, 2, 67, 100
4, 83619, Note_on_c, 2, 63, 100
4, 83622, Note_on_c, 2, 60, 100
4, 83625, Note_on_c, 2, 55, 100
4, 83628, Note_on_c, 2, 48, 100
4, 83712, Note_off_c, 2, 48, 0
4, 83712, Note_off_c, 2, 55, 0
4, 83712, Note_off_c, 2, 60, 0
4, 83712, Note_off_c, 2, 63, 0
4, 83712, Note_off_c, 2, 67, 0
4, 83712, Note_on_c, 2, 67, 100
4, 83715, Note_on_c, 2, 62, 100
4, 83718, Note_on_c, 2, 58, 100
4, 83721, Note_on_c, 2, 55, 100
4, 83724, Note_on_c, 2, 50, 100
4, 83728, Note_on_c, 2, 43, 100
4, 83904, Note_off_c, 2, 43, 0
4, 83904, Note_off_c, 2, 50, 0
4, 83904, Note_off_c, 2, 55, 0
4, 83904, Note_off_c, 2, 58, 0
4, 83904, Note_off_c, 2, 62, 0
4, 83904, Note_off_c, 2, 67, 0
4, 83904, Note_on_c, 2, 43, 100
4, 83907, Note_on_c, 2, 50, 100
4, 83910, Note_on_c, 2, 55, 100
4, 83913, Note_on_c, 2, 58, 100
4, 83916, Note_on_c, 2, 62, 100
4, 83920, Note_on_c, 2, 67, 100
4, 84000, Note_off_c, 2, 67, 0
4, 84000, Note_off_c, 2, 62, 0
4, 84000, Note_off_c, 2, 58, 0
4, 84000, Note_off_c, 2, 55, 0
4, 84000, Note_off_c, 2, 50, 0
4, 84000, Note_off_c, 2, 43, 0
4, 84000, Note_on_c, 2, 67, 100
4, 84003, Note_on_c, 2, 62, 100
4, 84006, Note_on_c, 2, 58, 100
4, 84009, Note_on_c, 2, 55, 100
4, 84012, Note_on_c, 2, 50, 100
4, 84016, Note_on_c, 2, 43, 100
4, 84096, Note_off_c, 2, 43, 0
4, 84096, Note_off_c, 2, 50, 0
4, 84096, Note_off_c, 2, 55, 0
4, 84096, Note_off_c, 2, 58, 0
4, 84096, Note_off_c, 2, 62, 0
4, 84096, Note_off_c, 2, 67, 0
4, 84096, Note_on_c, 2, 43, 100
4, 84099, Note_on_c, 2, 50, 100
4, 84102, Note_on_c, 2, 55, 100
4, 84105, Note_on_c, 2, 58, 100
4, 84108, Note_on_c, 2, 62, 100
4, 84112, Note_on_c, 2, 67, 100
4, 84192, Note_off_c, 2, 67, 0
4, 84192, Note_off_c, 2, 62, 0
4, 84192, Note_off_c, 2, 58, 0
4, 84192, Note_off_c, 2, 55, 0
4, 84192, Note_off_c, 2, 50, 0
4, 84192, Note_off_c, 2, 43, 0
4, 84192, Note_on_c, 2, 67, 100
4, 84195, Note_on_c, 2, 62, 100
4, 84198, Note_on_c, 2, 58, 100
4, 84201, Note_on_c, 2, 55, 100
4, 84288, Note_off_c, 2, 55, 0
4, 84288, Note_off_c, 2, 58, 0
4, 84288, Note_off_c, 2, 62, 0
4, 84288, Note_off_c, 2, 67, 0
4, 84288, Note_on_c, 2, 55, 100
4, 84291, Note_on_c, 2, 58, 100
4, 84294, Note_on_c, 2, 62, 100
4, 84297, Note_on_c, 2, 67, 100
4, 84384, Note_off_c, 2, 67, 0
4, 84384, Note_off_c, 2, 62, 0
4, 84384, Note_off_c, 2, 58, 0
4, 84384, Note_off_c, 2, 55, 0
4, 84384, Note_on_c, 2, 67, 100
4, 84387, Note_on_c, 2, 62, 100
4, 84390, Note_on_c, 2, 58, 100
4, 84393, Note_on_c, 2, 53, 100
4, 84396, Note_on_c, 2, 48, 100
4, 84400, Note_on_c, 2, 43, 100
4, 84480, Note_off_c, 2, 43, 0
4, 84480, Note_off_c, 2, 48, 0
4, 84480, Note_off_c, 2, 53, 0
4, 84480, Note_off_c, 2, 58, 0
4, 84480, Note_off_c, 2, 62, 0
4, 84480, Note_off_c, 2, 67, 0
4, 84480, Note_on_c, 2, 69, 100
4, 84483, Note_on_c, 2, 65, 100
4, 84486, Note_on_c, 2, 60, 100
4, 84489, Note_on_c, 2, 53, 100
4, 84672, Note_off_c, 2, 53, 0
4, 84672, Note_off_c, 2, 60, 0
4, 84672, Note_off_c, 2, 65, 0
4, 84672, Note_off_c, 2, 69, 0
4, 84672, Note_on_c, 2, 53, 100
4, 84675, Note_on_c, 2, 60, 100
4, 84678, Note_on_c, 2, 65, 100
4, 84681, Note_on_c, 2, 69, 100
4, 84768, Note_off_c, 2, 69, 0
4, 84768, Note_off_c, 2, 65, 0
4, 84768, Note_off_c, 2, 60, 0
4, 84768, Note_off_c, 2, 53, 0
4, 84768, Note_on_c, 2, 69, 100
4, 84771, Note_on_c, 2, 65, 100
4, 84774, Note_on_c, 2, 60, 100
4, 84777, Note_on_c, 2, 53, 100
4, 84864, Note_off_c, 2, 53, 0
4, 84864, Note_off_c, 2, 60, 0
4, 84864, Note_off_c, 2, 65, 0
4, 84864, Note_off_c, 2, 69, 0
4, 84864, Note_on_c, 2, 53, 100
4, 84867, Note_on_c, 2, 60, 100
4, 84870, Note_on_c, 2, 65, 100
4, 84873, Note_on_c, 2, 69, 100
4, 85056, Note_off_c, 2, 69, 0
4, 85056, Note_off_c, 2, 65, 0
4, 85056, Note_off_c, 2, 60, 0
4, 85056, Note_off_c, 2, 53, 0
4, 85056, Note_on_c, 2, 67, 100
4, 85059, Note_on_c, 2, 65, 100
4, 85062, Note_on_c, 2, 58, 100
4, 85065, Note_on_c, 2, 53, 100
4, 85152, Note_off_c, 2, 53, 0
4, 85152, Note_off_c, 2, 58, 0
4, 85152, Note_off_c, 2, 65, 0
4, 85152, Note_off_c, 2, 67, 0
4, 85152, Note_on_c, 2, 53, 100
4, 85155, Note_on_c, 2, 60, 100
4, 85158, Note_on_c, 2, 65, 100
4, 85161, Note_on_c, 2, 69, 100
4, 85248, Note_off_c, 2, 69, 0
4, 85248, Note_off_c, 2, 65, 0
4, 85248, Note_off_c, 2, 60, 0
4, 85248, Note_off_c, 2, 53, 0
4, 85248, Note_on_c, 2, 69, 100
4, 85251, Note_on_c, 2, 65, 100
4, 85256, Note_on_c, 2, 60, 100
4, 85257, Note_on_c, 2, 53, 100
4, 85344, Note_off_c, 2, 53, 0
4, 85344, Note_off_c, 2, 60, 0
4, 85344, Note_off_c, 2, 65, 0
4, 85344, Note_off_c, 2, 69, 0
4, 85344, Note_on_c, 2, 53, 100
4, 85347, Note_on_c, 2, 58, 100
4, 85350, Note_on_c, 2, 65, 100
4, 85353, Note_on_c, 2, 67, 100
4, 85440, Note_off_c, 2, 67, 0
4, 85440, Note_off_c, 2, 65, 0
4, 85440, Note_off_c, 2, 58, 0
4, 85440, Note_off_c, 2, 53, 0
4, 85440, Note_on_c, 2, 69, 100
4, 85443, Note_on_c, 2, 65, 100
4, 85448, Note_on_c, 2, 60, 100
4, 85449, Note_on_c, 2, 53, 100
4, 85632, Note_off_c, 2, 53, 0
4, 85632, Note_off_c, 2, 60, 0
4, 85632, Note_off_c, 2, 65, 0
4, 85632, Note_off_c, 2, 69, 0
4, 85632, Note_on_c, 2, 53, 100
4, 85635, Note_on_c, 2, 60, 100
4, 85638, Note_on_c, 2, 65, 100
4, 85641, Note_on_c, 2, 69, 100
4, 85728, Note_off_c, 2, 69, 0
4, 85728, Note_off_c, 2, 65, 0
4, 85728, Note_off_c, 2, 60, 0
4, 85728, Note_off_c, 2, 53, 0
4, 85728, Note_on_c, 2, 70, 100
4, 85731, Note_on_c, 2, 65, 100
4, 85734, Note_on_c, 2, 60, 100
4, 85737, Note_on_c, 2, 53, 100
4, 85824, Note_off_c, 2, 53, 0
4, 85824, Note_off_c, 2, 60, 0
4, 85824, Note_off_c, 2, 65, 0
4, 85824, Note_off_c, 2, 70, 0
4, 85824, Note_on_c, 2, 53, 100
4, 85828, Note_on_c, 2, 60, 100
4, 85830, Note_on_c, 2, 65, 100
4, 85833, Note_on_c, 2, 69, 100
4, 85920, Note_off_c, 2, 69, 0
4, 85920, Note_off_c, 2, 65, 0
4, 85920, Note_off_c, 2, 60, 0
4, 85920, Note_off_c, 2, 53, 0
4, 85920, Note_on_c, 2, 67, 100
4, 85924, Note_on_c, 2, 65, 100
4, 85926, Note_on_c, 2, 58, 100
4, 85929, Note_on_c, 2, 53, 100
4, 86016, Note_off_c, 2, 53, 0
4, 86016, Note_off_c, 2, 58, 0
4, 86016, Note_off_c, 2, 65, 0
4, 86016, Note_off_c, 2, 67, 0
4, 86016, Note_on_c, 2, 67, 100
4, 86019, Note_on_c, 2, 62, 100
4, 86022, Note_on_c, 2, 58, 100
4, 86025, Note_on_c, 2, 55, 100
4, 86028, Note_on_c, 2, 50, 100
4, 86032, Note_on_c, 2, 43, 100
4, 86208, Note_off_c, 2, 43, 0
4, 86208, Note_off_c, 2, 50, 0
4, 86208, Note_off_c, 2, 55, 0
4, 86208, Note_off_c, 2, 58, 0
4, 86208, Note_off_c, 2, 62, 0
4, 86208, Note_off_c, 2, 67, 0
4, 86208, Note_on_c, 2, 43, 100
4, 86211, Note_on_c, 2, 50, 100
4, 86214, Note_on_c, 2, 55, 100
4, 86217, Note_on_c, 2, 58, 100
4, 86220, Note_on_c, 2, 62, 100
4, 86224, Note_on_c, 2, 67, 100
4, 86400, Note_off_c, 2, 67, 0
4, 86400, Note_off_c, 2, 62, 0
4, 86400, Note_off_c, 2, 58, 0
4, 86400, Note_off_c, 2, 55, 0
4, 86400, Note_off_c, 2, 50, 0
4, 86400, Note_off_c, 2, 43, 0
4, 86400, Note_on_c, 2, 67, 100
4, 86403, Note_on_c, 2, 62, 100
4, 86406, Note_on_c, 2, 58, 100
4, 86409, Note_on_c, 2, 55, 100
4, 86412, Note_on_c, 2, 50, 100
4, 86416, Note_on_c, 2, 43, 100
4, 86592, Note_off_c, 2, 43, 0
4, 86592, Note_off_c, 2, 50, 0
4, 86592, Note_off_c, 2, 55, 0
4, 86592, Note_off_c, 2, 58, 0
4, 86592, Note_off_c, 2, 62, 0
4, 86592, Note_off_c, 2, 67, 0
4, 86592, Note_on_c, 2, 43, 100
4, 86592, Note_on_c, 2, 58, 100
4, 86595, Note_on_c, 2, 50, 100
4, 86598, Note_on_c, 2, 55, 100
4, 86608, Note_on_c, 2, 67, 100
4, 86614, Note_on_c, 2, 62, 100
4, 86688, Note_off_c, 2, 62, 0
4, 86688, Note_off_c, 2, 67, 0
4, 86688, Note_off_c, 2, 55, 0
4, 86688, Note_off_c, 2, 50, 0
4, 86688, Note_off_c, 2, 58, 0
4, 86688, Note_off_c, 2, 43, 0
4, 86688, Note_on_c, 2, 67, 100
4, 86691, Note_on_c, 2, 62, 100
4, 86694, Note_on_c, 2, 58, 100
4, 86697, Note_on_c, 2, 55, 100
4, 86700, Note_on_c, 2, 50, 100
4, 86704, Note_on_c, 2, 43, 100
4, 86784, Note_off_c, 2, 43, 0
4, 86784, Note_off_c, 2, 50, 0
4, 86784, Note_off_c, 2, 55, 0
4, 86784, Note_off_c, 2, 58, 0
4, 86784, Note_off_c, 2, 62, 0
4, 86784, Note_off_c, 2, 67, 0
4, 86784, Note_on_c, 2, 69, 100
4, 86787, Note_on_c, 2, 65, 100
4, 86788, Note_on_c, 2, 60, 100
4, 86792, Note_on_c, 2, 53, 100
4, 86976, Note_off_c, 2, 53, 0
4, 86976, Note_off_c, 2, 60, 0
4, 86976, Note_off_c, 2, 65, 0
4, 86976, Note_off_c, 2, 69, 0
4, 86976, Note_on_c, 2, 53, 100
4, 86979, Note_on_c, 2, 60, 100
4, 86982, Note_on_c, 2, 65, 100
4, 86984, Note_on_c, 2, 69, 100
4, 87072, Note_off_c, 2, 69, 0
4, 87072, Note_off_c, 2, 65, 0
4, 87072, Note_off_c, 2, 60, 0
4, 87072, Note_off_c, 2, 53, 0
4, 87072, Note_on_c, 2, 69, 100
4, 87075, Note_on_c, 2, 65, 100
4, 87078, Note_on_c, 2, 60, 100
4, 87081, Note_on_c, 2, 53, 100
4, 87168, Note_off_c, 2, 53, 0
4, 87168, Note_off_c, 2, 60, 0
4, 87168, Note_off_c, 2, 65, 0
4, 87168, Note_off_c, 2, 69, 0
4, 87168, Note_on_c, 2, 53, 100
4, 87171, Note_on_c, 2, 58, 100
4, 87174, Note_on_c, 2, 65, 100
4, 87177, Note_on_c, 2, 67, 100
4, 87264, Note_off_c, 2, 67, 0
4, 87264, Note_off_c, 2, 65, 0
4, 87264, Note_off_c, 2, 58, 0
4, 87264, Note_off_c, 2, 53, 0
4, 87264, Note_on_c, 2, 69, 100
4, 87267, Note_on_c, 2, 65, 100
4, 87270, Note_on_c, 2, 60, 100
4, 87273, Note_on_c, 2, 53, 100
4, 87360, Note_off_c, 2, 53, 0
4, 87360, Note_off_c, 2, 60, 0
4, 87360, Note_off_c, 2, 65, 0
4, 87360, Note_off_c, 2, 69, 0
4, 87360, Note_on_c, 2, 53, 100
4, 87363, Note_on_c, 2, 60, 100
4, 87366, Note_on_c, 2, 65, 100
4, 87369, Note_on_c, 2, 69, 100
4, 87456, Note_off_c, 2, 69, 0
4, 87456, Note_off_c, 2, 65, 0
4, 87456, Note_off_c, 2, 60, 0
4, 87456, Note_off_c, 2, 53, 0
4, 87456, Note_on_c, 2, 67, 100
4, 87459, Note_on_c, 2, 65, 100
4, 87462, Note_on_c, 2, 58, 100
4, 87465, Note_on_c, 2, 53, 100
4, 87552, Note_off_c, 2, 53, 0
4, 87552, Note_off_c, 2, 58, 0
4, 87552, Note_off_c, 2, 65, 0
4, 87552, Note_off_c, 2, 67, 0
4, 87552, Note_on_c, 2, 53, 100
4, 87555, Note_on_c, 2, 60, 100
4, 87558, Note_on_c, 2, 65, 100
4, 87561, Note_on_c, 2, 69, 100
4, 87744, Note_off_c, 2, 69, 0
4, 87744, Note_off_c, 2, 65, 0
4, 87744, Note_off_c, 2, 60, 0
4, 87744, Note_off_c, 2, 53, 0
4, 87744, Note_on_c, 2, 69, 100
4, 87747, Note_on_c, 2, 65, 100
4, 87750, Note_on_c, 2, 60, 100
4, 87753, Note_on_c, 2, 53, 100
4, 87840, Note_off_c, 2, 53, 0
4, 87840, Note_off_c, 2, 60, 0
4, 87840, Note_off_c, 2, 65, 0
4, 87840, Note_off_c, 2, 69, 0
4, 87840, Note_on_c, 2, 53, 100
4, 87843, Note_on_c, 2, 60, 100
4, 87846, Note_on_c, 2, 65, 100
4, 87849, Note_on_c, 2, 69, 100
4, 87936, Note_off_c, 2, 69, 0
4, 87936, Note_off_c, 2, 65, 0
4, 87936, Note_off_c, 2, 60, 0
4, 87936, Note_off_c, 2, 53, 0
4, 87936, Note_on_c, 2, 69, 100
4, 87939, Note_on_c, 2, 65, 100
4, 87942, Note_on_c, 2, 60, 100
4, 87945, Note_on_c, 2, 53, 100
4, 88032, Note_off_c, 2, 53, 0
4, 88032, Note_off_c, 2, 60, 0
4, 88032, Note_off_c, 2, 65, 0
4, 88032, Note_off_c, 2, 69, 0
4, 88032, Note_on_c, 2, 53, 100
4, 88035, Note_on_c, 2, 60, 100
4, 88038, Note_on_c, 2, 65, 100
4, 88041, Note_on_c, 2, 70, 100
4, 88128, Note_off_c, 2, 70, 0
4, 88128, Note_off_c, 2, 65, 0
4, 88128, Note_off_c, 2, 60, 0
4, 88128, Note_off_c, 2, 53, 0
4, 88128, Note_on_c, 2, 69, 100
4, 88131, Note_on_c, 2, 65, 100
4, 88134, Note_on_c, 2, 60, 100
4, 88137, Note_on_c, 2, 53, 100
4, 88220, Note_off_c, 2, 65, 0
4, 88224, Note_off_c, 2, 69, 0
4, 88224, Note_off_c, 2, 60, 0
4, 88224, Note_off_c, 2, 53, 0
4, 88224, Note_on_c, 2, 53, 100
4, 88227, Note_on_c, 2, 58, 100
4, 88230, Note_on_c, 2, 65, 100
4, 88233, Note_on_c, 2, 67, 100
4, 88320, Note_off_c, 2, 67, 0
4, 88320, Note_off_c, 2, 65, 0
4, 88320, Note_off_c, 2, 58, 0
4, 88320, Note_off_c, 2, 53, 0
4, 88320, Note_on_c, 2, 67, 100
4, 88323, Note_on_c, 2, 64, 100
4, 88326, Note_on_c, 2, 60, 100
4, 88329, Note_on_c, 2, 55, 100
4, 88332, Note_on_c, 2, 48, 100
4, 88512, Note_off_c, 2, 48, 0
4, 88512, Note_off_c, 2, 55, 0
4, 88512, Note_off_c, 2, 60, 0
4, 88512, Note_off_c, 2, 64, 0
4, 88512, Note_off_c, 2, 67, 0
4, 88512, Note_on_c, 2, 48, 100
4, 88515, Note_on_c, 2, 55, 100
4, 88518, Note_on_c, 2, 60, 100
4, 88521, Note_on_c, 2, 64, 100
4, 88524, Note_on_c, 2, 67, 100
4, 88704, Note_off_c, 2, 67, 0
4, 88704, Note_off_c, 2, 64, 0
4, 88704, Note_off_c, 2, 60, 0
4, 88704, Note_off_c, 2, 55, 0
4, 88704, Note_off_c, 2, 48, 0
4, 88704, Note_on_c, 2, 67, 100
4, 88707, Note_on_c, 2, 62, 100
4, 88710, Note_on_c, 2, 58, 100
4, 88713, Note_on_c, 2, 53, 100
4, 88716, Note_on_c, 2, 48, 100
4, 88800, Note_off_c, 2, 48, 0
4, 88800, Note_off_c, 2, 53, 0
4, 88800, Note_off_c, 2, 58, 0
4, 88800, Note_off_c, 2, 62, 0
4, 88800, Note_off_c, 2, 67, 0
4, 88800, Note_on_c, 2, 48, 100
4, 88804, Note_on_c, 2, 55, 100
4, 88806, Note_on_c, 2, 60, 100
4, 88809, Note_on_c, 2, 64, 100
4, 88812, Note_on_c, 2, 67, 100
4, 88896, Note_off_c, 2, 67, 0
4, 88896, Note_off_c, 2, 64, 0
4, 88896, Note_off_c, 2, 60, 0
4, 88896, Note_off_c, 2, 55, 0
4, 88896, Note_off_c, 2, 48, 0
4, 88900, Note_on_c, 2, 67, 100
4, 88902, Note_on_c, 2, 64, 100
4, 88905, Note_on_c, 2, 55, 100
4, 88905, Note_on_c, 2, 60, 100
4, 88908, Note_on_c, 2, 48, 100
4, 88992, Note_off_c, 2, 48, 0
4, 88992, Note_off_c, 2, 60, 0
4, 88992, Note_off_c, 2, 55, 0
4, 88992, Note_off_c, 2, 64, 0
4, 88992, Note_off_c, 2, 67, 0
4, 88992, Note_on_c, 2, 48, 100
4, 88995, Note_on_c, 2, 53, 100
4, 89001, Note_on_c, 2, 62, 100
4, 89003, Note_on_c, 2, 58, 100
4, 89004, Note_on_c, 2, 67, 100
4, 89088, Note_off_c, 2, 67, 0
4, 89088, Note_off_c, 2, 58, 0
4, 89088, Note_off_c, 2, 62, 0
4, 89088, Note_off_c, 2, 53, 0
4, 89088, Note_off_c, 2, 48, 0
4, 89088, Note_on_c, 2, 67, 100
4, 89091, Note_on_c, 2, 63, 100
4, 89094, Note_on_c, 2, 60, 100
4, 89097, Note_on_c, 2, 55, 100
4, 89100, Note_on_c, 2, 48, 100
4, 89280, Note_off_c, 2, 48, 0
4, 89280, Note_off_c, 2, 55, 0
4, 89280, Note_off_c, 2, 60, 0
4, 89280, Note_off_c, 2, 63, 0
4, 89280, Note_off_c, 2, 67, 0
4, 89280, Note_on_c, 2, 48, 100
4, 89283, Note_on_c, 2, 55, 100
4, 89286, Note_on_c, 2, 60, 100
4, 89289, Note_on_c, 2, 63, 100
4, 89292, Note_on_c, 2, 67, 100
4, 89376, Note_off_c, 2, 67, 0
4, 89376, Note_off_c, 2, 63, 0
4, 89376, Note_off_c, 2, 60, 0
4, 89376, Note_off_c, 2, 55, 0
4, 89376, Note_off_c, 2, 48, 0
4, 89376, Note_on_c, 2, 67, 100
4, 89379, Note_on_c, 2, 63, 100
4, 89382, Note_on_c, 2, 60, 100
4, 89385, Note_on_c, 2, 55, 100
4, 89388, Note_on_c, 2, 48, 100
4, 89472, Note_off_c, 2, 48, 0
4, 89472, Note_off_c, 2, 55, 0
4, 89472, Note_off_c, 2, 60, 0
4, 89472, Note_off_c, 2, 63, 0
4, 89472, Note_off_c, 2, 67, 0
4, 89472, Note_on_c, 2, 48, 100
4, 89476, Note_on_c, 2, 55, 100
4, 89478, Note_on_c, 2, 60, 100
4, 89481, Note_on_c, 2, 63, 100
4, 89484, Note_on_c, 2, 67, 100
4, 89568, Note_off_c, 2, 67, 0
4, 89568, Note_off_c, 2, 63, 0
4, 89568, Note_off_c, 2, 60, 0
4, 89568, Note_off_c, 2, 55, 0
4, 89568, Note_off_c, 2, 48, 0
4, 89568, Note_on_c, 2, 67, 100
4, 89571, Note_on_c, 2, 62, 100
4, 89574, Note_on_c, 2, 60, 100
4, 89577, Note_on_c, 2, 55, 100
4, 89580, Note_on_c, 2, 48, 100
4, 89664, Note_off_c, 2, 48, 0
4, 89664, Note_off_c, 2, 55, 0
4, 89664, Note_off_c, 2, 60, 0
4, 89664, Note_off_c, 2, 62, 0
4, 89664, Note_off_c, 2, 67, 0
4, 89664, Note_on_c, 2, 48, 100
4, 89668, Note_on_c, 2, 55, 100
4, 89670, Note_on_c, 2, 60, 100
4, 89673, Note_on_c, 2, 63, 100
4, 89676, Note_on_c, 2, 67, 100
4, 89760, Note_off_c, 2, 67, 0
4, 89760, Note_off_c, 2, 63, 0
4, 89760, Note_off_c, 2, 60, 0
4, 89760, Note_off_c, 2, 55, 0
4, 89760, Note_off_c, 2, 48, 0
4, 89760, Note_on_c, 2, 67, 100
4, 89763, Note_on_c, 2, 63, 100
4, 89766, Note_on_c, 2, 60, 100
4, 89769, Note_on_c, 2, 55, 100
4, 89772, Note_on_c, 2, 48, 100
4, 89856, Note_off_c, 2, 48, 0
4, 89856, Note_off_c, 2, 55, 0
4, 89856, Note_off_c, 2, 60, 0
4, 89856, Note_off_c, 2, 63, 0
4, 89856, Note_off_c, 2, 67, 0
4, 89856, Note_on_c, 2, 67, 100
4, 89859, Note_on_c, 2, 62, 100
4, 89862, Note_on_c, 2, 58, 100
4, 89865, Note_on_c, 2, 55, 100
4, 89868, Note_on_c, 2, 50, 100
4, 89872, Note_on_c, 2, 43, 100
4, 90048, Note_off_c, 2, 43, 0
4, 90048, Note_off_c, 2, 50, 0
4, 90048, Note_off_c, 2, 55, 0
4, 90048, Note_off_c, 2, 58, 0
4, 90048, Note_off_c, 2, 62, 0
4, 90048, Note_off_c, 2, 67, 0
4, 90048, Note_on_c, 2, 43, 100
4, 90051, Note_on_c, 2, 50, 100
4, 90054, Note_on_c, 2, 55, 100
4, 90057, Note_on_c, 2, 58, 100
4, 90060, Note_on_c, 2, 62, 100
4, 90064, Note_on_c, 2, 67, 100
4, 90144, Note_off_c, 2, 67, 0
4, 90144, Note_off_c, 2, 62, 0
4, 90144, Note_off_c, 2, 58, 0
4, 90144, Note_off_c, 2, 55, 0
4, 90144, Note_off_c, 2, 50, 0
4, 90144, Note_off_c, 2, 43, 0
4, 90144, Note_on_c, 2, 67, 100
4, 90147, Note_on_c, 2, 62, 100
4, 90150, Note_on_c, 2, 58, 100
4, 90153, Note_on_c, 2, 55, 100
4, 90156, Note_on_c, 2, 50, 100
4, 90160, Note_on_c, 2, 43, 100
4, 90240, Note_off_c, 2, 43, 0
4, 90240, Note_off_c, 2, 50, 0
4, 90240, Note_off_c, 2, 55, 0
4, 90240, Note_off_c, 2, 58, 0
4, 90240, Note_off_c, 2, 62, 0
4, 90240, Note_off_c, 2, 67, 0
4, 90240, Note_on_c, 2, 43, 100
4, 90243, Note_on_c, 2, 50, 100
4, 90246, Note_on_c, 2, 55, 100
4, 90249, Note_on_c, 2, 58, 100
4, 90252, Note_on_c, 2, 62, 100
4, 90256, Note_on_c, 2, 67, 100
4, 90336, Note_off_c, 2, 67, 0
4, 90336, Note_off_c, 2, 62, 0
4, 90336, Note_off_c, 2, 58, 0
4, 90336, Note_off_c, 2, 55, 0
4, 90336, Note_off_c, 2, 50, 0
4, 90336, Note_off_c, 2, 43, 0
4, 90336, Note_on_c, 2, 67, 100
4, 90339, Note_on_c, 2, 62, 100
4, 90342, Note_on_c, 2, 58, 100
4, 90345, Note_on_c, 2, 55, 100
4, 90432, Note_off_c, 2, 55, 0
4, 90432, Note_off_c, 2, 58, 0
4, 90432, Note_off_c, 2, 62, 0
4, 90432, Note_off_c, 2, 67, 0
4, 90432, Note_on_c, 2, 55, 100
4, 90435, Note_on_c, 2, 58, 100
4, 90438, Note_on_c, 2, 62, 100
4, 90441, Note_on_c, 2, 67, 100
4, 90528, Note_off_c, 2, 67, 0
4, 90528, Note_off_c, 2, 62, 0
4, 90528, Note_off_c, 2, 58, 0
4, 90528, Note_off_c, 2, 55, 0
4, 90528, Note_on_c, 2, 67, 100
4, 90531, Note_on_c, 2, 62, 100
4, 90534, Note_on_c, 2, 58, 100
4, 90537, Note_on_c, 2, 53, 100
4, 90540, Note_on_c, 2, 48, 100
4, 90544, Note_on_c, 2, 43, 100
4, 90624, Note_off_c, 2, 43, 0
4, 90624, Note_off_c, 2, 48, 0
4, 90624, Note_off_c, 2, 53, 0
4, 90624, Note_off_c, 2, 58, 0
4, 90624, Note_off_c, 2, 62, 0
4, 90624, Note_off_c, 2, 67, 0
4, 90624, Note_on_c, 2, 69, 100
4, 90627, Note_on_c, 2, 65, 100
4, 90630, Note_on_c, 2, 60, 100
4, 90633, Note_on_c, 2, 53, 100
4, 90816, Note_off_c, 2, 53, 0
4, 90816, Note_off_c, 2, 60, 0
4, 90816, Note_off_c, 2, 65, 0
4, 90816, Note_off_c, 2, 69, 0
4, 90816, Note_on_c, 2, 53, 100
4, 90819, Note_on_c, 2, 60, 100
4, 90822, Note_on_c, 2, 65, 100
4, 90825, Note_on_c, 2, 69, 100
4, 90912, Note_off_c, 2, 69, 0
4, 90912, Note_off_c, 2, 65, 0
4, 90912, Note_off_c, 2, 60, 0
4, 90912, Note_off_c, 2, 53, 0
4, 90912, Note_on_c, 2, 69, 100
4, 90915, Note_on_c, 2, 65, 100
4, 90918, Note_on_c, 2, 60, 100
4, 90921, Note_on_c, 2, 53, 100
4, 91008, Note_off_c, 2, 53, 0
4, 91008, Note_off_c, 2, 60, 0
4, 91008, Note_off_c, 2, 65, 0
4, 91008, Note_off_c, 2, 69, 0
4, 91008, Note_on_c, 2, 53, 100
4, 91011, Note_on_c, 2, 60, 100
4, 91014, Note_on_c, 2, 65, 100
4, 91017, Note_on_c, 2, 69, 100
4, 91200, Note_off_c, 2, 69, 0
4, 91200, Note_off_c, 2, 65, 0
4, 91200, Note_off_c, 2, 60, 0
4, 91200, Note_off_c, 2, 53, 0
4, 91200, Note_on_c, 2, 67, 100
4, 91203, Note_on_c, 2, 65, 100
4, 91206, Note_on_c, 2, 58, 100
4, 91209, Note_on_c, 2, 53, 100
4, 91296, Note_off_c, 2, 53, 0
4, 91296, Note_off_c, 2, 58, 0
4, 91296, Note_off_c, 2, 65, 0
4, 91296, Note_off_c, 2, 67, 0
4, 91296, Note_on_c, 2, 53, 100
4, 91299, Note_on_c, 2, 60, 100
4, 91302, Note_on_c, 2, 65, 100
4, 91305, Note_on_c, 2, 69, 100
4, 91392, Note_off_c, 2, 69, 0
4, 91392, Note_off_c, 2, 65, 0
4, 91392, Note_off_c, 2, 60, 0
4, 91392, Note_off_c, 2, 53, 0
4, 91392, Note_on_c, 2, 69, 100
4, 91395, Note_on_c, 2, 65, 100
4, 91400, Note_on_c, 2, 60, 100
4, 91401, Note_on_c, 2, 53, 100
4, 91488, Note_off_c, 2, 53, 0
4, 91488, Note_off_c, 2, 60, 0
4, 91488, Note_off_c, 2, 65, 0
4, 91488, Note_off_c, 2, 69, 0
4, 91488, Note_on_c, 2, 53, 100
4, 91491, Note_on_c, 2, 58, 100
4, 91494, Note_on_c, 2, 65, 100
4, 91497, Note_on_c, 2, 67, 100
4, 91584, Note_off_c, 2, 67, 0
4, 91584, Note_off_c, 2, 65, 0
4, 91584, Note_off_c, 2, 58, 0
4, 91584, Note_off_c, 2, 53, 0
4, 91584, Note_on_c, 2, 69, 100
4, 91587, Note_on_c, 2, 65, 100
4, 91592, Note_on_c, 2, 60, 100
4, 91593, Note_on_c, 2, 53, 100
4, 91776, Note_off_c, 2, 53, 0
4, 91776, Note_off_c, 2, 60, 0
4, 91776, Note_off_c, 2, 65, 0
4, 91776, Note_off_c, 2, 69, 0
4, 91776, Note_on_c, 2, 53, 100
4, 91779, Note_on_c, 2, 60, 100
4, 91782, Note_on_c, 2, 65, 100
4, 91785, Note_on_c, 2, 69, 100
4, 91872, Note_off_c, 2, 69, 0
4, 91872, Note_off_c, 2, 65, 0
4, 91872, Note_off_c, 2, 60, 0
4, 91872, Note_off_c, 2, 53, 0
4, 91872, Note_on_c, 2, 70, 100
4, 91875, Note_on_c, 2, 65, 100
4, 91878, Note_on_c, 2, 60, 100
4, 91881, Note_on_c, 2, 53, 100
4, 91968, Note_off_c, 2, 53, 0
4, 91968, Note_off_c, 2, 60, 0
4, 91968, Note_off_c, 2, 65, 0
4, 91968, Note_off_c, 2, 70, 0
4, 91968, Note_on_c, 2, 53, 100
4, 91972, Note_on_c, 2, 60, 100
4, 91974, Note_on_c, 2, 65, 100
4, 91977, Note_on_c, 2, 69, 100
4, 92064, Note_off_c, 2, 69, 0
4, 92064, Note_off_c, 2, 65, 0
4, 92064, Note_off_c, 2, 60, 0
4, 92064, Note_off_c, 2, 53, 0
4, 92064, Note_on_c, 2, 67, 100
4, 92068, Note_on_c, 2, 65, 100
4, 92070, Note_on_c, 2, 58, 100
4, 92073, Note_on_c, 2, 53, 100
4, 92160, Note_off_c, 2, 53, 0
4, 92160, Note_off_c, 2, 58, 0
4, 92160, Note_off_c, 2, 65, 0
4, 92160, Note_off_c, 2, 67, 0
4, 92160, Note_on_c, 2, 67, 100
4, 92163, Note_on_c, 2, 65, 100
4, 92166, Note_on_c, 2, 58, 100
4, 92169, Note_on_c, 2, 53, 100
4, 92256, Note_off_c, 2, 53, 0
4, 92256, Note_off_c, 2, 58, 0
4, 92256, Note_off_c, 2, 65, 0
4, 92256, Note_off_c, 2, 67, 0
4, 92256, Note_on_c, 2, 53, 100
4, 92259, Note_on_c, 2, 60, 100
4, 92262, Note_on_c, 2, 65, 100
4, 92265, Note_on_c, 2, 69, 100
4, 92352, Note_off_c, 2, 69, 0
4, 92352, Note_off_c, 2, 65, 0
4, 92352, Note_off_c, 2, 60, 0
4, 92352, Note_off_c, 2, 53, 0
4, 92352, Note_on_c, 2, 69, 100
4, 92355, Note_on_c, 2, 65, 100
4, 92358, Note_on_c, 2, 60, 100
4, 92361, Note_on_c, 2, 53, 100
4, 92448, Note_off_c, 2, 53, 0
4, 92448, Note_off_c, 2, 60, 0
4, 92448, Note_off_c, 2, 65, 0
4, 92448, Note_off_c, 2, 69, 0
4, 92448, Note_on_c, 2, 53, 100
4, 92451, Note_on_c, 2, 58, 100
4, 92454, Note_on_c, 2, 65, 100
4, 92457, Note_on_c, 2, 67, 100
4, 92544, Note_off_c, 2, 67, 0
4, 92544, Note_off_c, 2, 65, 0
4, 92544, Note_off_c, 2, 58, 0
4, 92544, Note_off_c, 2, 53, 0
4, 92544, Note_on_c, 2, 69, 100
4, 92547, Note_on_c, 2, 65, 100
4, 92550, Note_on_c, 2, 60, 100
4, 92553, Note_on_c, 2, 53, 100
4, 92736, Note_off_c, 2, 53, 0
4, 92736, Note_off_c, 2, 60, 0
4, 92736, Note_off_c, 2, 65, 0
4, 92736, Note_off_c, 2, 69, 0
4, 92736, Note_on_c, 2, 69, 100
4, 92739, Note_on_c, 2, 65, 100
4, 92742, Note_on_c, 2, 60, 100
4, 92745, Note_on_c, 2, 53, 100
4, 92928, Note_off_c, 2, 53, 0
4, 92928, Note_off_c, 2, 60, 0
4, 92928, Note_off_c, 2, 65, 0
4, 92928, Note_off_c, 2, 69, 0
4, 92928, Note_on_c, 2, 53, 100
4, 92931, Note_on_c, 2, 60, 100
4, 92934, Note_on_c, 2, 65, 100
4, 92937, Note_on_c, 2, 69, 100
4, 93024, Note_off_c, 2, 69, 0
4, 93024, Note_off_c, 2, 65, 0
4, 93024, Note_off_c, 2, 60, 0
4, 93024, Note_off_c, 2, 53, 0
4, 93024, Note_on_c, 2, 69, 100
4, 93024, Note_on_c, 2, 53, 100
4, 93027, Note_on_c, 2, 60, 100
4, 93030, Note_on_c, 2, 65, 100
4, 93110, Note_off_c, 2, 69, 0
4, 93120, Note_off_c, 2, 53, 0
4, 93120, Note_off_c, 2, 60, 0
4, 93120, Note_off_c, 2, 65, 0
4, 93120, Note_on_c, 2, 69, 100
4, 93123, Note_on_c, 2, 65, 100
4, 93126, Note_on_c, 2, 60, 100
4, 93129, Note_on_c, 2, 53, 100
4, 93312, Note_off_c, 2, 53, 0
4, 93312, Note_off_c, 2, 60, 0
4, 93312, Note_off_c, 2, 65, 0
4, 93312, Note_off_c, 2, 69, 0
4, 93312, Note_on_c, 2, 53, 100
4, 93315, Note_on_c, 2, 60, 100
4, 93318, Note_on_c, 2, 65, 100
4, 93321, Note_on_c, 2, 69, 100
4, 93408, Note_off_c, 2, 69, 0
4, 93408, Note_off_c, 2, 65, 0
4, 93408, Note_off_c, 2, 60, 0
4, 93408, Note_off_c, 2, 53, 0
4, 93408, Note_on_c, 2, 69, 100
4, 93411, Note_on_c, 2, 65, 100
4, 93414, Note_on_c, 2, 60, 100
4, 93417, Note_on_c, 2, 53, 100
4, 93504, Note_off_c, 2, 53, 0
4, 93504, Note_off_c, 2, 60, 0
4, 93504, Note_off_c, 2, 65, 0
4, 93504, Note_off_c, 2, 69, 0
4, 93504, Note_on_c, 2, 53, 100
4, 93507, Note_on_c, 2, 60, 100
4, 93510, Note_on_c, 2, 65, 100
4, 93513, Note_on_c, 2, 69, 100
4, 93600, Note_off_c, 2, 69, 0
4, 93600, Note_off_c, 2, 65, 0
4, 93600, Note_off_c, 2, 60, 0
4, 93600, Note_off_c, 2, 53, 0
4, 93600, Note_on_c, 2, 69, 100
4, 93603, Note_on_c, 2, 65, 100
4, 93606, Note_on_c, 2, 60, 100
4, 93609, Note_on_c, 2, 53, 100
4, 93696, Note_off_c, 2, 53, 0
4, 93696, Note_off_c, 2, 60, 0
4, 93696, Note_off_c, 2, 65, 0
4, 93696, Note_off_c, 2, 69, 0
4, 93702, Note_on_c, 2, 67, 127
4, 93715, Note_on_c, 2, 62, 127
4, 93721, Note_on_c, 2, 58, 127
4, 93734, Note_on_c, 2, 55, 127
4, 93747, Note_on_c, 2, 50, 127
4, 93760, Note_on_c, 2, 43, 127
4, 95232, Note_off_c, 2, 43, 0
4, 95232, Note_off_c, 2, 50, 0
4, 95232, Note_off_c, 2, 55, 0
4, 95232, Note_off_c, 2, 58, 0
4, 95232, Note_off_c, 2, 62, 0
4, 95232, Note_off_c, 2, 67, 0
4, 95232, Note_on_c, 2, 69, 127
4, 95244, Note_on_c, 2, 65, 127
4, 95257, Note_on_c, 2, 60, 127
4, 95270, Note_on_c, 2, 53, 127
4, 96768, Note_off_c, 2, 53, 0
4, 96768, Note_off_c, 2, 60, 0
4, 96768, Note_off_c, 2, 65, 0
4, 96768, Note_off_c, 2, 69, 0
4, 96768, Note_on_c, 2, 69, 127
4, 96780, Note_on_c, 2, 65, 127
4, 96793, Note_on_c, 2, 60, 127
4, 96806, Note_on_c, 2, 53, 127
4, 98304, Note_off_c, 2, 53, 0
4, 98304, Note_off_c, 2, 60, 0
4, 98304, Note_off_c, 2, 65, 0
4, 98304, Note_off_c, 2, 69, 0
4, 98304, Note_on_c, 2, 48, 127
4, 98316, Note_on_c, 2, 55, 127
4, 98329, Note_on_c, 2, 60, 127
4, 98342, Note_on_c, 2, 64, 127
4, 98355, Note_on_c, 2, 67, 127
4, 99840, Note_off_c, 2, 67, 0
4, 99840, Note_off_c, 2, 64, 0
4, 99840, Note_off_c, 2, 60, 0
4, 99840, Note_off_c, 2, 55, 0
4, 99840, Note_off_c, 2, 48, 0
4, 99840, Note_on_c, 2, 48, 127
4, 99852, Note_on_c, 2, 55, 127
4, 99865, Note_on_c, 2, 60, 127
4, 99878, Note_on_c, 2, 63, 127
4, 99891, Note_on_c, 2, 67, 127
4, 101376, Note_off_c, 2, 67, 0
4, 101376, Note_off_c, 2, 63, 0
4, 101376, Note_off_c, 2, 60, 0
4, 101376, Note_off_c, 2, 55, 0
4, 101376, Note_off_c, 2, 48, 0
4, 101376, Note_on_c, 2, 43, 127
4, 101388, Note_on_c, 2, 50, 127
4, 101401, Note_on_c, 2, 55, 127
4, 101414, Note_on_c, 2, 58, 127
4, 101427, Note_on_c, 2, 62, 127
4, 101440, Note_on_c, 2, 67, 127
4, 102912, Note_off_c, 2, 67, 0
4, 102912, Note_off_c, 2, 62, 0
4, 102912, Note_off_c, 2, 58, 0
4, 102912, Note_off_c, 2, 55, 0
4, 102912, Note_off_c, 2, 50, 0
4, 102912, Note_off_c, 2, 43, 0
4, 102912, Note_on_c, 2, 69, 127
4, 102924, Note_on_c, 2, 65, 127
4, 102937, Note_on_c, 2, 60, 127
4, 102950, Note_on_c, 2, 53, 127
4, 104448, Note_off_c, 2, 53, 0
4, 104448, Note_off_c, 2, 60, 0
4, 104448, Note_off_c, 2, 65, 0
4, 104448, Note_off_c, 2, 69, 0
4, 104448, Note_on_c, 2, 69, 127
4, 104460, Note_on_c, 2, 65, 127
4, 104473, Note_on_c, 2, 60, 127
4, 104486, Note_on_c, 2, 53, 127
4, 105984, Note_off_c, 2, 53, 0
4, 105984, Note_off_c, 2, 60, 0
4, 105984, Note_off_c, 2, 65, 0
4, 105984, Note_off_c, 2, 69, 0
4, 105984, Note_on_c, 2, 67, 110
4, 105987, Note_on_c, 2, 62, 110
4, 105990, Note_on_c, 2, 58, 110
4, 105993, Note_on_c, 2, 55, 110
4, 105996, Note_on_c, 2, 50, 110
4, 106000, Note_on_c, 2, 43, 110
4, 106176, Note_off_c, 2, 43, 0
4, 106176, Note_off_c, 2, 50, 0
4, 106176, Note_off_c, 2, 55, 0
4, 106176, Note_off_c, 2, 58, 0
4, 106176, Note_off_c, 2, 62, 0
4, 106176, Note_off_c, 2, 67, 0
4, 106176, Note_on_c, 2, 43, 110
4, 106179, Note_on_c, 2, 50, 110
4, 106182, Note_on_c, 2, 55, 110
4, 106185, Note_on_c, 2, 58, 110
4, 106188, Note_on_c, 2, 62, 110
4, 106192, Note_on_c, 2, 67, 110
4, 106272, Note_off_c, 2, 67, 0
4, 106272, Note_off_c, 2, 62, 0
4, 106272, Note_off_c, 2, 58, 0
4, 106272, Note_off_c, 2, 55, 0
4, 106272, Note_off_c, 2, 50, 0
4, 106272, Note_off_c, 2, 43, 0
4, 106272, Note_on_c, 2, 67, 110
4, 106275, Note_on_c, 2, 62, 110
4, 106278, Note_on_c, 2, 58, 110
4, 106281, Note_on_c, 2, 55, 110
4, 106284, Note_on_c, 2, 50, 110
4, 106288, Note_on_c, 2, 43, 110
4, 106368, Note_off_c, 2, 43, 0
4, 106368, Note_off_c, 2, 50, 0
4, 106368, Note_off_c, 2, 55, 0
4, 106368, Note_off_c, 2, 58, 0
4, 106368, Note_off_c, 2, 62, 0
4, 106368, Note_off_c, 2, 67, 0
4, 106368, Note_on_c, 2, 43, 110
4, 106371, Note_on_c, 2, 50, 110
4, 106374, Note_on_c, 2, 55, 110
4, 106377, Note_on_c, 2, 58, 110
4, 106380, Note_on_c, 2, 62, 110
4, 106384, Note_on_c, 2, 67, 110
4, 106560, Note_off_c, 2, 67, 0
4, 106560, Note_off_c, 2, 62, 0
4, 106560, Note_off_c, 2, 58, 0
4, 106560, Note_off_c, 2, 55, 0
4, 106560, Note_off_c, 2, 50, 0
4, 106560, Note_off_c, 2, 43, 0
4, 106560, Note_on_c, 2, 67, 110
4, 106563, Note_on_c, 2, 62, 110
4, 106566, Note_on_c, 2, 58, 110
4, 106569, Note_on_c, 2, 55, 110
4, 106572, Note_on_c, 2, 50, 110
4, 106576, Note_on_c, 2, 43, 110
4, 106752, Note_off_c, 2, 43, 0
4, 106752, Note_off_c, 2, 50, 0
4, 106752, Note_off_c, 2, 55, 0
4, 106752, Note_off_c, 2, 58, 0
4, 106752, Note_off_c, 2, 62, 0
4, 106752, Note_off_c, 2, 67, 0
4, 106848, Note_on_c, 2, 67, 110
4, 106851, Note_on_c, 2, 63, 110
4, 106854, Note_on_c, 2, 58, 110
4, 106857, Note_on_c, 2, 55, 110
4, 106860, Note_on_c, 2, 51, 110
4, 106944, Note_off_c, 2, 51, 0
4, 106944, Note_off_c, 2, 55, 0
4, 106944, Note_off_c, 2, 58, 0
4, 106944, Note_off_c, 2, 63, 0
4, 106944, Note_off_c, 2, 67, 0
4, 106944, Note_on_c, 2, 51, 110
4, 106947, Note_on_c, 2, 55, 110
4, 106950, Note_on_c, 2, 58, 110
4, 106953, Note_on_c, 2, 63, 110
4, 106956, Note_on_c, 2, 67, 110
4, 107040, Note_off_c, 2, 67, 0
4, 107040, Note_off_c, 2, 63, 0
4, 107040, Note_off_c, 2, 58, 0
4, 107040, Note_off_c, 2, 55, 0
4, 107040, Note_off_c, 2, 51, 0
4, 107040, Note_on_c, 2, 67, 110
4, 107043, Note_on_c, 2, 63, 110
4, 107046, Note_on_c, 2, 58, 110
4, 107049, Note_on_c, 2, 55, 110
4, 107052, Note_on_c, 2, 51, 110
4, 107136, Note_off_c, 2, 51, 0
4, 107136, Note_off_c, 2, 55, 0
4, 107136, Note_off_c, 2, 58, 0
4, 107136, Note_off_c, 2, 63, 0
4, 107136, Note_off_c, 2, 67, 0
4, 107136, Note_on_c, 2, 51, 110
4, 107139, Note_on_c, 2, 55, 110
4, 107142, Note_on_c, 2, 58, 110
4, 107145, Note_on_c, 2, 63, 110
4, 107148, Note_on_c, 2, 67, 110
4, 107328, Note_off_c, 2, 67, 0
4, 107328, Note_off_c, 2, 63, 0
4, 107328, Note_off_c, 2, 58, 0
4, 107328, Note_off_c, 2, 55, 0
4, 107328, Note_off_c, 2, 51, 0
4, 107328, Note_on_c, 2, 67, 110
4, 107331, Note_on_c, 2, 63, 110
4, 107334, Note_on_c, 2, 58, 110
4, 107337, Note_on_c, 2, 55, 110
4, 107340, Note_on_c, 2, 51, 110
4, 107520, Note_off_c, 2, 51, 0
4, 107520, Note_off_c, 2, 55, 0
4, 107520, Note_off_c, 2, 58, 0
4, 107520, Note_off_c, 2, 63, 0
4, 107520, Note_off_c, 2, 67, 0
4, 107520, Note_on_c, 2, 69, 110
4, 107523, Note_on_c, 2, 65, 110
4, 107526, Note_on_c, 2, 60, 110
4, 107529, Note_on_c, 2, 53, 110
4, 107712, Note_off_c, 2, 53, 0
4, 107712, Note_off_c, 2, 60, 0
4, 107712, Note_off_c, 2, 65, 0
4, 107712, Note_off_c, 2, 69, 0
4, 107712, Note_on_c, 2, 53, 110
4, 107715, Note_on_c, 2, 60, 110
4, 107718, Note_on_c, 2, 65, 110
4, 107721, Note_on_c, 2, 69, 110
4, 107808, Note_off_c, 2, 69, 0
4, 107808, Note_off_c, 2, 65, 0
4, 107808, Note_off_c, 2, 60, 0
4, 107808, Note_off_c, 2, 53, 0
4, 107808, Note_on_c, 2, 69, 110
4, 107811, Note_on_c, 2, 65, 110
4, 107814, Note_on_c, 2, 60, 110
4, 107817, Note_on_c, 2, 53, 110
4, 108000, Note_off_c, 2, 53, 0
4, 108000, Note_off_c, 2, 60, 0
4, 108000, Note_off_c, 2, 65, 0
4, 108000, Note_off_c, 2, 69, 0
4, 108000, Note_on_c, 2, 53, 110
4, 108003, Note_on_c, 2, 60, 110
4, 108006, Note_on_c, 2, 65, 110
4, 108009, Note_on_c, 2, 69, 110
4, 108096, Note_off_c, 2, 69, 0
4, 108096, Note_off_c, 2, 65, 0
4, 108096, Note_off_c, 2, 60, 0
4, 108096, Note_off_c, 2, 53, 0
4, 108096, Note_on_c, 2, 53, 110
4, 108096, Note_on_c, 2, 60, 110
4, 108096, Note_on_c, 2, 65, 110
4, 108096, Note_on_c, 2, 69, 110
4, 108288, Note_off_c, 2, 69, 0
4, 108288, Note_off_c, 2, 65, 0
4, 108288, Note_off_c, 2, 60, 0
4, 108288, Note_off_c, 2, 53, 0
4, 108288, Note_on_c, 2, 67, 110
4, 108291, Note_on_c, 2, 62, 110
4, 108294, Note_on_c, 2, 58, 110
4, 108297, Note_on_c, 2, 55, 110
4, 108300, Note_on_c, 2, 50, 110
4, 108304, Note_on_c, 2, 43, 110
4, 108384, Note_off_c, 2, 43, 0
4, 108384, Note_off_c, 2, 50, 0
4, 108384, Note_off_c, 2, 55, 0
4, 108384, Note_off_c, 2, 58, 0
4, 108384, Note_off_c, 2, 62, 0
4, 108384, Note_off_c, 2, 67, 0
4, 108384, Note_on_c, 2, 43, 110
4, 108387, Note_on_c, 2, 50, 110
4, 108390, Note_on_c, 2, 55, 110
4, 108393, Note_on_c, 2, 58, 110
4, 108396, Note_on_c, 2, 62, 110
4, 108400, Note_on_c, 2, 67, 110
4, 108480, Note_off_c, 2, 67, 0
4, 108480, Note_off_c, 2, 62, 0
4, 108480, Note_off_c, 2, 58, 0
4, 108480, Note_off_c, 2, 55, 0
4, 108480, Note_off_c, 2, 50, 0
4, 108480, Note_off_c, 2, 43, 0
4, 108480, Note_on_c, 2, 67, 110
4, 108483, Note_on_c, 2, 62, 110
4, 108486, Note_on_c, 2, 58, 110
4, 108489, Note_on_c, 2, 55, 110
4, 108492, Note_on_c, 2, 50, 110
4, 108496, Note_on_c, 2, 43, 110
4, 108576, Note_off_c, 2, 43, 0
4, 108576, Note_off_c, 2, 50, 0
4, 108576, Note_off_c, 2, 55, 0
4, 108576, Note_off_c, 2, 58, 0
4, 108576, Note_off_c, 2, 62, 0
4, 108576, Note_off_c, 2, 67, 0
4, 108576, Note_on_c, 2, 43, 110
4, 108579, Note_on_c, 2, 50, 110
4, 108582, Note_on_c, 2, 55, 110
4, 108585, Note_on_c, 2, 58, 110
4, 108588, Note_on_c, 2, 62, 110
4, 108592, Note_on_c, 2, 67, 110
4, 108672, Note_off_c, 2, 67, 0
4, 108672, Note_off_c, 2, 62, 0
4, 108672, Note_off_c, 2, 58, 0
4, 108672, Note_off_c, 2, 55, 0
4, 108672, Note_off_c, 2, 50, 0
4, 108672, Note_off_c, 2, 43, 0
4, 108672, Note_on_c, 2, 43, 110
4, 108675, Note_on_c, 2, 50, 110
4, 108678, Note_on_c, 2, 55, 110
4, 108681, Note_on_c, 2, 58, 110
4, 108684, Note_on_c, 2, 62, 110
4, 108688, Note_on_c, 2, 67, 110
4, 108864, Note_off_c, 2, 67, 0
4, 108864, Note_off_c, 2, 62, 0
4, 108864, Note_off_c, 2, 58, 0
4, 108864, Note_off_c, 2, 55, 0
4, 108864, Note_off_c, 2, 50, 0
4, 108864, Note_off_c, 2, 43, 0
4, 108864, Note_on_c, 2, 67, 110
4, 108867, Note_on_c, 2, 62, 110
4, 108870, Note_on_c, 2, 58, 110
4, 108873, Note_on_c, 2, 55, 110
4, 108876, Note_on_c, 2, 50, 110
4, 108880, Note_on_c, 2, 43, 110
4, 109056, Note_off_c, 2, 43, 0
4, 109056, Note_off_c, 2, 50, 0
4, 109056, Note_off_c, 2, 55, 0
4, 109056, Note_off_c, 2, 58, 0
4, 109056, Note_off_c, 2, 62, 0
4, 109056, Note_off_c, 2, 67, 0
4, 109056, Note_on_c, 2, 67, 110
4, 109059, Note_on_c, 2, 62, 110
4, 109062, Note_on_c, 2, 58, 110
4, 109065, Note_on_c, 2, 55, 110
4, 109068, Note_on_c, 2, 50, 110
4, 109072, Note_on_c, 2, 43, 110
4, 109152, Note_off_c, 2, 43, 0
4, 109152, Note_off_c, 2, 50, 0
4, 109152, Note_off_c, 2, 55, 0
4, 109152, Note_off_c, 2, 58, 0
4, 109152, Note_off_c, 2, 62, 0
4, 109152, Note_off_c, 2, 67, 0
4, 109152, Note_on_c, 2, 43, 110
4, 109155, Note_on_c, 2, 50, 110
4, 109158, Note_on_c, 2, 55, 110
4, 109161, Note_on_c, 2, 58, 110
4, 109164, Note_on_c, 2, 62, 110
4, 109168, Note_on_c, 2, 67, 110
4, 109248, Note_off_c, 2, 67, 0
4, 109248, Note_off_c, 2, 62, 0
4, 109248, Note_off_c, 2, 58, 0
4, 109248, Note_off_c, 2, 55, 0
4, 109248, Note_off_c, 2, 50, 0
4, 109248, Note_off_c, 2, 43, 0
4, 109248, Note_on_c, 2, 67, 110
4, 109251, Note_on_c, 2, 62, 110
4, 109254, Note_on_c, 2, 58, 110
4, 109257, Note_on_c, 2, 55, 110
4, 109260, Note_on_c, 2, 50, 110
4, 109264, Note_on_c, 2, 43, 110
4, 109344, Note_off_c, 2, 43, 0
4, 109344, Note_off_c, 2, 50, 0
4, 109344, Note_off_c, 2, 55, 0
4, 109344, Note_off_c, 2, 58, 0
4, 109344, Note_off_c, 2, 62, 0
4, 109344, Note_off_c, 2, 67, 0
4, 109344, Note_on_c, 2, 43, 110
4, 109347, Note_on_c, 2, 50, 110
4, 109350, Note_on_c, 2, 55, 110
4, 109353, Note_on_c, 2, 58, 110
4, 109356, Note_on_c, 2, 62, 110
4, 109360, Note_on_c, 2, 67, 110
4, 109440, Note_off_c, 2, 67, 0
4, 109440, Note_off_c, 2, 62, 0
4, 109440, Note_off_c, 2, 58, 0
4, 109440, Note_off_c, 2, 55, 0
4, 109440, Note_off_c, 2, 50, 0
4, 109440, Note_off_c, 2, 43, 0
4, 109440, Note_on_c, 2, 43, 110
4, 109443, Note_on_c, 2, 50, 110
4, 109446, Note_on_c, 2, 55, 110
4, 109449, Note_on_c, 2, 58, 110
4, 109452, Note_on_c, 2, 62, 110
4, 109456, Note_on_c, 2, 67, 110
4, 109632, Note_off_c, 2, 67, 0
4, 109632, Note_off_c, 2, 62, 0
4, 109632, Note_off_c, 2, 58, 0
4, 109632, Note_off_c, 2, 55, 0
4, 109632, Note_off_c, 2, 50, 0
4, 109632, Note_off_c, 2, 43, 0
4, 109632, Note_on_c, 2, 67, 110
4, 109635, Note_on_c, 2, 62, 110
4, 109638, Note_on_c, 2, 58, 110
4, 109641, Note_on_c, 2, 55, 110
4, 109644, Note_on_c, 2, 50, 110
4, 109648, Note_on_c, 2, 43, 110
4, 109824, Note_off_c, 2, 43, 0
4, 109824, Note_off_c, 2, 50, 0
4, 109824, Note_off_c, 2, 55, 0
4, 109824, Note_off_c, 2, 58, 0
4, 109824, Note_off_c, 2, 62, 0
4, 109824, Note_off_c, 2, 67, 0
4, 109824, Note_on_c, 2, 67, 110
4, 109827, Note_on_c, 2, 63, 110
4, 109830, Note_on_c, 2, 58, 110
4, 109833, Note_on_c, 2, 55, 110
4, 109836, Note_on_c, 2, 51, 110
4, 109920, Note_off_c, 2, 51, 0
4, 109920, Note_off_c, 2, 55, 0
4, 109920, Note_off_c, 2, 58, 0
4, 109920, Note_off_c, 2, 63, 0
4, 109920, Note_off_c, 2, 67, 0
4, 109920, Note_on_c, 2, 51, 110
4, 109923, Note_on_c, 2, 55, 110
4, 109926, Note_on_c, 2, 58, 110
4, 109929, Note_on_c, 2, 63, 110
4, 109932, Note_on_c, 2, 67, 110
4, 110016, Note_off_c, 2, 67, 0
4, 110016, Note_off_c, 2, 63, 0
4, 110016, Note_off_c, 2, 58, 0
4, 110016, Note_off_c, 2, 55, 0
4, 110016, Note_off_c, 2, 51, 0
4, 110016, Note_on_c, 2, 67, 110
4, 110019, Note_on_c, 2, 63, 110
4, 110022, Note_on_c, 2, 58, 110
4, 110025, Note_on_c, 2, 55, 110
4, 110028, Note_on_c, 2, 51, 110
4, 110112, Note_off_c, 2, 51, 0
4, 110112, Note_off_c, 2, 55, 0
4, 110112, Note_off_c, 2, 58, 0
4, 110112, Note_off_c, 2, 63, 0
4, 110112, Note_off_c, 2, 67, 0
4, 110112, Note_on_c, 2, 51, 110
4, 110115, Note_on_c, 2, 55, 110
4, 110118, Note_on_c, 2, 58, 110
4, 110121, Note_on_c, 2, 63, 110
4, 110124, Note_on_c, 2, 67, 110
4, 110208, Note_off_c, 2, 67, 0
4, 110208, Note_off_c, 2, 63, 0
4, 110208, Note_off_c, 2, 58, 0
4, 110208, Note_off_c, 2, 55, 0
4, 110208, Note_off_c, 2, 51, 0
4, 110208, Note_on_c, 2, 67, 110
4, 110211, Note_on_c, 2, 63, 110
4, 110214, Note_on_c, 2, 58, 110
4, 110217, Note_on_c, 2, 55, 110
4, 110220, Note_on_c, 2, 51, 110
4, 110400, Note_off_c, 2, 51, 0
4, 110400, Note_off_c, 2, 55, 0
4, 110400, Note_off_c, 2, 58, 0
4, 110400, Note_off_c, 2, 63, 0
4, 110400, Note_off_c, 2, 67, 0
4, 110400, Note_on_c, 2, 67, 110
4, 110403, Note_on_c, 2, 63, 110
4, 110406, Note_on_c, 2, 58, 110
4, 110409, Note_on_c, 2, 55, 110
4, 110412, Note_on_c, 2, 51, 110
4, 110592, Note_off_c, 2, 51, 0
4, 110592, Note_off_c, 2, 55, 0
4, 110592, Note_off_c, 2, 58, 0
4, 110592, Note_off_c, 2, 63, 0
4, 110592, Note_off_c, 2, 67, 0
4, 110592, Note_on_c, 2, 69, 110
4, 110595, Note_on_c, 2, 65, 110
4, 110598, Note_on_c, 2, 60, 110
4, 110601, Note_on_c, 2, 53, 110
4, 110880, Note_off_c, 2, 53, 0
4, 110880, Note_off_c, 2, 60, 0
4, 110880, Note_off_c, 2, 65, 0
4, 110880, Note_off_c, 2, 69, 0
4, 110880, Note_on_c, 2, 53, 110
4, 110883, Note_on_c, 2, 60, 110
4, 110886, Note_on_c, 2, 65, 110
4, 110889, Note_on_c, 2, 69, 110
4, 110976, Note_off_c, 2, 69, 0
4, 110976, Note_off_c, 2, 65, 0
4, 110976, Note_off_c, 2, 60, 0
4, 110976, Note_off_c, 2, 53, 0
4, 110976, Note_on_c, 2, 69, 110
4, 110979, Note_on_c, 2, 65, 110
4, 110982, Note_on_c, 2, 60, 110
4, 110985, Note_on_c, 2, 53, 110
4, 111168, Note_off_c, 2, 53, 0
4, 111168, Note_off_c, 2, 60, 0
4, 111168, Note_off_c, 2, 65, 0
4, 111168, Note_off_c, 2, 69, 0
4, 111168, Note_on_c, 2, 53, 110
4, 111171, Note_on_c, 2, 60, 110
4, 111174, Note_on_c, 2, 65, 110
4, 111177, Note_on_c, 2, 69, 110
4, 111264, Note_off_c, 2, 69, 0
4, 111264, Note_off_c, 2, 65, 0
4, 111264, Note_off_c, 2, 60, 0
4, 111264, Note_off_c, 2, 53, 0
4, 111264, Note_on_c, 2, 69, 110
4, 111267, Note_on_c, 2, 65, 110
4, 111270, Note_on_c, 2, 60, 110
4, 111273, Note_on_c, 2, 53, 110
4, 111456, Note_off_c, 2, 53, 0
4, 111456, Note_off_c, 2, 60, 0
4, 111456, Note_off_c, 2, 65, 0
4, 111456, Note_off_c, 2, 69, 0
4, 111456, Note_on_c, 2, 67, 110
4, 111459, Note_on_c, 2, 62, 110
4, 111462, Note_on_c, 2, 58, 110
4, 111465, Note_on_c, 2, 55, 110
4, 111467, Note_on_c, 2, 50, 110
4, 111468, Note_on_c, 2, 43, 110
4, 111552, Note_off_c, 2, 43, 0
4, 111552, Note_off_c, 2, 50, 0
4, 111552, Note_off_c, 2, 55, 0
4, 111552, Note_off_c, 2, 58, 0
4, 111552, Note_off_c, 2, 62, 0
4, 111552, Note_off_c, 2, 67, 0
4, 111552, Note_on_c, 2, 43, 110
4, 111556, Note_on_c, 2, 50, 110
4, 111558, Note_on_c, 2, 55, 110
4, 111560, Note_on_c, 2, 58, 110
4, 111561, Note_on_c, 2, 62, 110
4, 111564, Note_on_c, 2, 67, 110
4, 111744, Note_off_c, 2, 67, 0
4, 111744, Note_off_c, 2, 62, 0
4, 111744, Note_off_c, 2, 58, 0
4, 111744, Note_off_c, 2, 55, 0
4, 111744, Note_off_c, 2, 50, 0
4, 111744, Note_off_c, 2, 43, 0
4, 111744, Note_on_c, 2, 67, 110
4, 111747, Note_on_c, 2, 62, 110
4, 111750, Note_on_c, 2, 58, 110
4, 111753, Note_on_c, 2, 55, 110
4, 111756, Note_on_c, 2, 50, 110
4, 111760, Note_on_c, 2, 43, 110
4, 111840, Note_off_c, 2, 43, 0
4, 111840, Note_off_c, 2, 50, 0
4, 111840, Note_off_c, 2, 55, 0
4, 111840, Note_off_c, 2, 58, 0
4, 111840, Note_off_c, 2, 62, 0
4, 111840, Note_off_c, 2, 67, 0
4, 111840, Note_on_c, 2, 43, 110
4, 111843, Note_on_c, 2, 50, 110
4, 111846, Note_on_c, 2, 55, 110
4, 111849, Note_on_c, 2, 58, 110
4, 111852, Note_on_c, 2, 62, 110
4, 111856, Note_on_c, 2, 67, 110
4, 111936, Note_off_c, 2, 67, 0
4, 111936, Note_off_c, 2, 62, 0
4, 111936, Note_off_c, 2, 58, 0
4, 111936, Note_off_c, 2, 55, 0
4, 111936, Note_off_c, 2, 50, 0
4, 111936, Note_off_c, 2, 43, 0
4, 111936, Note_on_c, 2, 67, 110
4, 111939, Note_on_c, 2, 62, 110
4, 111942, Note_on_c, 2, 58, 110
4, 111945, Note_on_c, 2, 55, 110
4, 111948, Note_on_c, 2, 50, 110
4, 111952, Note_on_c, 2, 43, 110
4, 112032, Note_off_c, 2, 43, 0
4, 112032, Note_off_c, 2, 50, 0
4, 112032, Note_off_c, 2, 55, 0
4, 112032, Note_off_c, 2, 58, 0
4, 112032, Note_off_c, 2, 62, 0
4, 112032, Note_off_c, 2, 67, 0
4, 112032, Note_on_c, 2, 43, 110
4, 112035, Note_on_c, 2, 50, 110
4, 112038, Note_on_c, 2, 55, 110
4, 112041, Note_on_c, 2, 58, 110
4, 112044, Note_on_c, 2, 62, 110
4, 112048, Note_on_c, 2, 67, 110
4, 112128, Note_off_c, 2, 67, 0
4, 112128, Note_off_c, 2, 62, 0
4, 112128, Note_off_c, 2, 58, 0
4, 112128, Note_off_c, 2, 55, 0
4, 112128, Note_off_c, 2, 50, 0
4, 112128, Note_off_c, 2, 43, 0
4, 112128, Note_on_c, 2, 67, 110
4, 112131, Note_on_c, 2, 62, 110
4, 112134, Note_on_c, 2, 58, 110
4, 112137, Note_on_c, 2, 55, 110
4, 112140, Note_on_c, 2, 50, 110
4, 112144, Note_on_c, 2, 43, 110
4, 112320, Note_off_c, 2, 43, 0
4, 112320, Note_off_c, 2, 50, 0
4, 112320, Note_off_c, 2, 55, 0
4, 112320, Note_off_c, 2, 58, 0
4, 112320, Note_off_c, 2, 62, 0
4, 112320, Note_off_c, 2, 67, 0
4, 112320, Note_on_c, 2, 43, 110
4, 112323, Note_on_c, 2, 50, 110
4, 112326, Note_on_c, 2, 55, 110
4, 112329, Note_on_c, 2, 58, 110
4, 112332, Note_on_c, 2, 62, 110
4, 112336, Note_on_c, 2, 67, 110
4, 112416, Note_off_c, 2, 67, 0
4, 112416, Note_off_c, 2, 62, 0
4, 112416, Note_off_c, 2, 58, 0
4, 112416, Note_off_c, 2, 55, 0
4, 112416, Note_off_c, 2, 50, 0
4, 112416, Note_off_c, 2, 43, 0
4, 112416, Note_on_c, 2, 67, 110
4, 112419, Note_on_c, 2, 62, 110
4, 112422, Note_on_c, 2, 58, 110
4, 112425, Note_on_c, 2, 55, 110
4, 112428, Note_on_c, 2, 50, 110
4, 112432, Note_on_c, 2, 43, 110
4, 112512, Note_off_c, 2, 43, 0
4, 112512, Note_off_c, 2, 50, 0
4, 112512, Note_off_c, 2, 55, 0
4, 112512, Note_off_c, 2, 58, 0
4, 112512, Note_off_c, 2, 62, 0
4, 112512, Note_off_c, 2, 67, 0
4, 112512, Note_on_c, 2, 43, 110
4, 112515, Note_on_c, 2, 50, 110
4, 112518, Note_on_c, 2, 55, 110
4, 112521, Note_on_c, 2, 58, 110
4, 112524, Note_on_c, 2, 62, 110
4, 112528, Note_on_c, 2, 67, 110
4, 112704, Note_off_c, 2, 67, 0
4, 112704, Note_off_c, 2, 62, 0
4, 112704, Note_off_c, 2, 58, 0
4, 112704, Note_off_c, 2, 55, 0
4, 112704, Note_off_c, 2, 50, 0
4, 112704, Note_off_c, 2, 43, 0
4, 112704, Note_on_c, 2, 67, 110
4, 112707, Note_on_c, 2, 62, 110
4, 112710, Note_on_c, 2, 58, 110
4, 112713, Note_on_c, 2, 55, 110
4, 112716, Note_on_c, 2, 50, 110
4, 112720, Note_on_c, 2, 43, 110
4, 112896, Note_off_c, 2, 43, 0
4, 112896, Note_off_c, 2, 50, 0
4, 112896, Note_off_c, 2, 55, 0
4, 112896, Note_off_c, 2, 58, 0
4, 112896, Note_off_c, 2, 62, 0
4, 112896, Note_off_c, 2, 67, 0
4, 112992, Note_on_c, 2, 67, 110
4, 112995, Note_on_c, 2, 63, 110
4, 112998, Note_on_c, 2, 58, 110
4, 113001, Note_on_c, 2, 55, 110
4, 113004, Note_on_c, 2, 51, 110
4, 113088, Note_off_c, 2, 51, 0
4, 113088, Note_off_c, 2, 55, 0
4, 113088, Note_off_c, 2, 58, 0
4, 113088, Note_off_c, 2, 63, 0
4, 113088, Note_off_c, 2, 67, 0
4, 113088, Note_on_c, 2, 51, 110
4, 113091, Note_on_c, 2, 55, 110
4, 113094, Note_on_c, 2, 58, 110
4, 113097, Note_on_c, 2, 63, 110
4, 113100, Note_on_c, 2, 67, 110
4, 113184, Note_off_c, 2, 67, 0
4, 113184, Note_off_c, 2, 63, 0
4, 113184, Note_off_c, 2, 58, 0
4, 113184, Note_off_c, 2, 55, 0
4, 113184, Note_off_c, 2, 51, 0
4, 113184, Note_on_c, 2, 67, 110
4, 113187, Note_on_c, 2, 63, 110
4, 113190, Note_on_c, 2, 58, 110
4, 113193, Note_on_c, 2, 55, 110
4, 113196, Note_on_c, 2, 51, 110
4, 113280, Note_off_c, 2, 51, 0
4, 113280, Note_off_c, 2, 55, 0
4, 113280, Note_off_c, 2, 58, 0
4, 113280, Note_off_c, 2, 63, 0
4, 113280, Note_off_c, 2, 67, 0
4, 113280, Note_on_c, 2, 51, 110
4, 113283, Note_on_c, 2, 55, 110
4, 113286, Note_on_c, 2, 58, 110
4, 113289, Note_on_c, 2, 63, 110
4, 113292, Note_on_c, 2, 67, 110
4, 113472, Note_off_c, 2, 67, 0
4, 113472, Note_off_c, 2, 63, 0
4, 113472, Note_off_c, 2, 58, 0
4, 113472, Note_off_c, 2, 55, 0
4, 113472, Note_off_c, 2, 51, 0
4, 113472, Note_on_c, 2, 67, 110
4, 113475, Note_on_c, 2, 63, 110
4, 113478, Note_on_c, 2, 58, 110
4, 113481, Note_on_c, 2, 55, 110
4, 113484, Note_on_c, 2, 51, 110
4, 113664, Note_off_c, 2, 51, 0
4, 113664, Note_off_c, 2, 55, 0
4, 113664, Note_off_c, 2, 58, 0
4, 113664, Note_off_c, 2, 63, 0
4, 113664, Note_off_c, 2, 67, 0
4, 113664, Note_on_c, 2, 69, 110
4, 113667, Note_on_c, 2, 65, 110
4, 113670, Note_on_c, 2, 60, 110
4, 113673, Note_on_c, 2, 53, 110
4, 113856, Note_off_c, 2, 53, 0
4, 113856, Note_off_c, 2, 60, 0
4, 113856, Note_off_c, 2, 65, 0
4, 113856, Note_off_c, 2, 69, 0
4, 113856, Note_on_c, 2, 53, 110
4, 113859, Note_on_c, 2, 60, 110
4, 113862, Note_on_c, 2, 65, 110
4, 113865, Note_on_c, 2, 69, 110
4, 113952, Note_off_c, 2, 69, 0
4, 113952, Note_off_c, 2, 65, 0
4, 113952, Note_off_c, 2, 60, 0
4, 113952, Note_off_c, 2, 53, 0
4, 113952, Note_on_c, 2, 69, 110
4, 113955, Note_on_c, 2, 65, 110
4, 113958, Note_on_c, 2, 60, 110
4, 113961, Note_on_c, 2, 53, 110
4, 114144, Note_off_c, 2, 53, 0
4, 114144, Note_off_c, 2, 60, 0
4, 114144, Note_off_c, 2, 65, 0
4, 114144, Note_off_c, 2, 69, 0
4, 114144, Note_on_c, 2, 53, 110
4, 114147, Note_on_c, 2, 60, 110
4, 114150, Note_on_c, 2, 65, 110
4, 114153, Note_on_c, 2, 69, 110
4, 114240, Note_off_c, 2, 69, 0
4, 114240, Note_off_c, 2, 65, 0
4, 114240, Note_off_c, 2, 60, 0
4, 114240, Note_off_c, 2, 53, 0
4, 114240, Note_on_c, 2, 53, 110
4, 114240, Note_on_c, 2, 60, 110
4, 114240, Note_on_c, 2, 65, 110
4, 114240, Note_on_c, 2, 69, 110
4, 114432, Note_off_c, 2, 69, 0
4, 114432, Note_off_c, 2, 65, 0
4, 114432, Note_off_c, 2, 60, 0
4, 114432, Note_off_c, 2, 53, 0
4, 114432, Note_on_c, 2, 67, 110
4, 114435, Note_on_c, 2, 62, 110
4, 114438, Note_on_c, 2, 58, 110
4, 114441, Note_on_c, 2, 55, 110
4, 114444, Note_on_c, 2, 50, 110
4, 114448, Note_on_c, 2, 43, 110
4, 114528, Note_off_c, 2, 43, 0
4, 114528, Note_off_c, 2, 50, 0
4, 114528, Note_off_c, 2, 55, 0
4, 114528, Note_off_c, 2, 58, 0
4, 114528, Note_off_c, 2, 62, 0
4, 114528, Note_off_c, 2, 67, 0
4, 114528, Note_on_c, 2, 43, 110
4, 114531, Note_on_c, 2, 50, 110
4, 114534, Note_on_c, 2, 55, 110
4, 114537, Note_on_c, 2, 58, 110
4, 114540, Note_on_c, 2, 62, 110
4, 114544, Note_on_c, 2, 67, 110
4, 114624, Note_off_c, 2, 67, 0
4, 114624, Note_off_c, 2, 62, 0
4, 114624, Note_off_c, 2, 58, 0
4, 114624, Note_off_c, 2, 55, 0
4, 114624, Note_off_c, 2, 50, 0
4, 114624, Note_off_c, 2, 43, 0
4, 114624, Note_on_c, 2, 67, 110
4, 114627, Note_on_c, 2, 62, 110
4, 114630, Note_on_c, 2, 58, 110
4, 114633, Note_on_c, 2, 55, 110
4, 114636, Note_on_c, 2, 50, 110
4, 114640, Note_on_c, 2, 43, 110
4, 114720, Note_off_c, 2, 43, 0
4, 114720, Note_off_c, 2, 50, 0
4, 114720, Note_off_c, 2, 55, 0
4, 114720, Note_off_c, 2, 58, 0
4, 114720, Note_off_c, 2, 62, 0
4, 114720, Note_off_c, 2, 67, 0
4, 114720, Note_on_c, 2, 43, 110
4, 114723, Note_on_c, 2, 50, 110
4, 114726, Note_on_c, 2, 55, 110
4, 114729, Note_on_c, 2, 58, 110
4, 114732, Note_on_c, 2, 62, 110
4, 114736, Note_on_c, 2, 67, 110
4, 114816, Note_off_c, 2, 67, 0
4, 114816, Note_off_c, 2, 62, 0
4, 114816, Note_off_c, 2, 58, 0
4, 114816, Note_off_c, 2, 55, 0
4, 114816, Note_off_c, 2, 50, 0
4, 114816, Note_off_c, 2, 43, 0
4, 114816, Note_on_c, 2, 43, 110
4, 114819, Note_on_c, 2, 50, 110
4, 114822, Note_on_c, 2, 55, 110
4, 114825, Note_on_c, 2, 58, 110
4, 114828, Note_on_c, 2, 62, 110
4, 114832, Note_on_c, 2, 67, 110
4, 115008, Note_off_c, 2, 67, 0
4, 115008, Note_off_c, 2, 62, 0
4, 115008, Note_off_c, 2, 58, 0
4, 115008, Note_off_c, 2, 55, 0
4, 115008, Note_off_c, 2, 50, 0
4, 115008, Note_off_c, 2, 43, 0
4, 115008, Note_on_c, 2, 67, 110
4, 115011, Note_on_c, 2, 62, 110
4, 115014, Note_on_c, 2, 58, 110
4, 115017, Note_on_c, 2, 55, 110
4, 115020, Note_on_c, 2, 50, 110
4, 115024, Note_on_c, 2, 43, 110
4, 115200, Note_off_c, 2, 43, 0
4, 115200, Note_off_c, 2, 50, 0
4, 115200, Note_off_c, 2, 55, 0
4, 115200, Note_off_c, 2, 58, 0
4, 115200, Note_off_c, 2, 62, 0
4, 115200, Note_off_c, 2, 67, 0
4, 115200, Note_on_c, 2, 67, 110
4, 115203, Note_on_c, 2, 62, 110
4, 115206, Note_on_c, 2, 58, 110
4, 115209, Note_on_c, 2, 55, 110
4, 115212, Note_on_c, 2, 50, 110
4, 115216, Note_on_c, 2, 43, 110
4, 115296, Note_off_c, 2, 43, 0
4, 115296, Note_off_c, 2, 50, 0
4, 115296, Note_off_c, 2, 55, 0
4, 115296, Note_off_c, 2, 58, 0
4, 115296, Note_off_c, 2, 62, 0
4, 115296, Note_off_c, 2, 67, 0
4, 115296, Note_on_c, 2, 43, 110
4, 115299, Note_on_c, 2, 50, 110
4, 115302, Note_on_c, 2, 55, 110
4, 115305, Note_on_c, 2, 58, 110
4, 115308, Note_on_c, 2, 62, 110
4, 115312, Note_on_c, 2, 67, 110
4, 115392, Note_off_c, 2, 67, 0
4, 115392, Note_off_c, 2, 62, 0
4, 115392, Note_off_c, 2, 58, 0
4, 115392, Note_off_c, 2, 55, 0
4, 115392, Note_off_c, 2, 50, 0
4, 115392, Note_off_c, 2, 43, 0
4, 115392, Note_on_c, 2, 67, 110
4, 115395, Note_on_c, 2, 62, 110
4, 115398, Note_on_c, 2, 58, 110
4, 115401, Note_on_c, 2, 55, 110
4, 115404, Note_on_c, 2, 50, 110
4, 115408, Note_on_c, 2, 43, 110
4, 115488, Note_off_c, 2, 43, 0
4, 115488, Note_off_c, 2, 50, 0
4, 115488, Note_off_c, 2, 55, 0
4, 115488, Note_off_c, 2, 58, 0
4, 115488, Note_off_c, 2, 62, 0
4, 115488, Note_off_c, 2, 67, 0
4, 115488, Note_on_c, 2, 43, 110
4, 115491, Note_on_c, 2, 50, 110
4, 115494, Note_on_c, 2, 55, 110
4, 115497, Note_on_c, 2, 58, 110
4, 115500, Note_on_c, 2, 62, 110
4, 115504, Note_on_c, 2, 67, 110
4, 115584, Note_off_c, 2, 67, 0
4, 115584, Note_off_c, 2, 62, 0
4, 115584, Note_off_c, 2, 58, 0
4, 115584, Note_off_c, 2, 55, 0
4, 115584, Note_off_c, 2, 50, 0
4, 115584, Note_off_c, 2, 43, 0
4, 115584, Note_on_c, 2, 43, 110
4, 115587, Note_on_c, 2, 50, 110
4, 115590, Note_on_c, 2, 55, 110
4, 115593, Note_on_c, 2, 58, 110
4, 115596, Note_on_c, 2, 62, 110
4, 115600, Note_on_c, 2, 67, 110
4, 115776, Note_off_c, 2, 67, 0
4, 115776, Note_off_c, 2, 62, 0
4, 115776, Note_off_c, 2, 58, 0
4, 115776, Note_off_c, 2, 55, 0
4, 115776, Note_off_c, 2, 50, 0
4, 115776, Note_off_c, 2, 43, 0
4, 115776, Note_on_c, 2, 67, 110
4, 115779, Note_on_c, 2, 62, 110
4, 115782, Note_on_c, 2, 58, 110
4, 115785, Note_on_c, 2, 55, 110
4, 115788, Note_on_c, 2, 50, 110
4, 115792, Note_on_c, 2, 43, 110
4, 115968, Note_off_c, 2, 43, 0
4, 115968, Note_off_c, 2, 50, 0
4, 115968, Note_off_c, 2, 55, 0
4, 115968, Note_off_c, 2, 58, 0
4, 115968, Note_off_c, 2, 62, 0
4, 115968, Note_off_c, 2, 67, 0
4, 115968, Note_on_c, 2, 67, 110
4, 115971, Note_on_c, 2, 63, 110
4, 115974, Note_on_c, 2, 58, 110
4, 115977, Note_on_c, 2, 55, 110
4, 115980, Note_on_c, 2, 51, 110
4, 116064, Note_off_c, 2, 51, 0
4, 116064, Note_off_c, 2, 55, 0
4, 116064, Note_off_c, 2, 58, 0
4, 116064, Note_off_c, 2, 63, 0
4, 116064, Note_off_c, 2, 67, 0
4, 116064, Note_on_c, 2, 51, 110
4, 116067, Note_on_c, 2, 55, 110
4, 116070, Note_on_c, 2, 58, 110
4, 116073, Note_on_c, 2, 63, 110
4, 116076, Note_on_c, 2, 67, 110
4, 116160, Note_off_c, 2, 67, 0
4, 116160, Note_off_c, 2, 63, 0
4, 116160, Note_off_c, 2, 58, 0
4, 116160, Note_off_c, 2, 55, 0
4, 116160, Note_off_c, 2, 51, 0
4, 116160, Note_on_c, 2, 67, 110
4, 116163, Note_on_c, 2, 63, 110
4, 116166, Note_on_c, 2, 58, 110
4, 116169, Note_on_c, 2, 55, 110
4, 116172, Note_on_c, 2, 51, 110
4, 116256, Note_off_c, 2, 51, 0
4, 116256, Note_off_c, 2, 55, 0
4, 116256, Note_off_c, 2, 58, 0
4, 116256, Note_off_c, 2, 63, 0
4, 116256, Note_off_c, 2, 67, 0
4, 116256, Note_on_c, 2, 51, 110
4, 116259, Note_on_c, 2, 55, 110
4, 116262, Note_on_c, 2, 58, 110
4, 116265, Note_on_c, 2, 63, 110
4, 116268, Note_on_c, 2, 67, 110
4, 116352, Note_off_c, 2, 67, 0
4, 116352, Note_off_c, 2, 63, 0
4, 116352, Note_off_c, 2, 58, 0
4, 116352, Note_off_c, 2, 55, 0
4, 116352, Note_off_c, 2, 51, 0
4, 116352, Note_on_c, 2, 67, 110
4, 116355, Note_on_c, 2, 63, 110
4, 116358, Note_on_c, 2, 58, 110
4, 116361, Note_on_c, 2, 55, 110
4, 116364, Note_on_c, 2, 51, 110
4, 116544, Note_off_c, 2, 51, 0
4, 116544, Note_off_c, 2, 55, 0
4, 116544, Note_off_c, 2, 58, 0
4, 116544, Note_off_c, 2, 63, 0
4, 116544, Note_off_c, 2, 67, 0
4, 116544, Note_on_c, 2, 67, 110
4, 116547, Note_on_c, 2, 63, 110
4, 116550, Note_on_c, 2, 58, 110
4, 116553, Note_on_c, 2, 55, 110
4, 116556, Note_on_c, 2, 51, 110
4, 116736, Note_off_c, 2, 51, 0
4, 116736, Note_off_c, 2, 55, 0
4, 116736, Note_off_c, 2, 58, 0
4, 116736, Note_off_c, 2, 63, 0
4, 116736, Note_off_c, 2, 67, 0
4, 116736, Note_on_c, 2, 69, 110
4, 116739, Note_on_c, 2, 65, 110
4, 116742, Note_on_c, 2, 60, 110
4, 116745, Note_on_c, 2, 53, 110
4, 117024, Note_off_c, 2, 53, 0
4, 117024, Note_off_c, 2, 60, 0
4, 117024, Note_off_c, 2, 65, 0
4, 117024, Note_off_c, 2, 69, 0
4, 117024, Note_on_c, 2, 53, 110
4, 117027, Note_on_c, 2, 60, 110
4, 117030, Note_on_c, 2, 65, 110
4, 117033, Note_on_c, 2, 69, 110
4, 117120, Note_off_c, 2, 69, 0
4, 117120, Note_off_c, 2, 65, 0
4, 117120, Note_off_c, 2, 60, 0
4, 117120, Note_off_c, 2, 53, 0
4, 117120, Note_on_c, 2, 69, 110
4, 117123, Note_on_c, 2, 65, 110
4, 117126, Note_on_c, 2, 60, 110
4, 117129, Note_on_c, 2, 53, 110
4, 117312, Note_off_c, 2, 53, 0
4, 117312, Note_off_c, 2, 60, 0
4, 117312, Note_off_c, 2, 65, 0
4, 117312, Note_off_c, 2, 69, 0
4, 117312, Note_on_c, 2, 53, 110
4, 117315, Note_on_c, 2, 60, 110
4, 117318, Note_on_c, 2, 65, 110
4, 117321, Note_on_c, 2, 69, 110
4, 117408, Note_off_c, 2, 69, 0
4, 117408, Note_off_c, 2, 65, 0
4, 117408, Note_off_c, 2, 60, 0
4, 117408, Note_off_c, 2, 53, 0
4, 117408, Note_on_c, 2, 69, 110
4, 117411, Note_on_c, 2, 65, 110
4, 117414, Note_on_c, 2, 60, 110
4, 117417, Note_on_c, 2, 53, 110
4, 117600, Note_off_c, 2, 53, 0
4, 117600, Note_off_c, 2, 60, 0
4, 117600, Note_off_c, 2, 65, 0
4, 117600, Note_off_c, 2, 69, 0
4, 117600, Note_on_c, 2, 70, 110
4, 117603, Note_on_c, 2, 65, 110
4, 117606, Note_on_c, 2, 60, 110
4, 117609, Note_on_c, 2, 53, 110
4, 117792, Note_off_c, 2, 53, 0
4, 117792, Note_off_c, 2, 60, 0
4, 117792, Note_off_c, 2, 65, 0
4, 117792, Note_off_c, 2, 70, 0
4, 117792, Note_on_c, 2, 53, 110
4, 117795, Note_on_c, 2, 60, 110
4, 117798, Note_on_c, 2, 65, 110
4, 117801, Note_on_c, 2, 70, 110
4, 117888, Note_off_c, 2, 70, 0
4, 117888, Note_off_c, 2, 65, 0
4, 117888, Note_off_c, 2, 60, 0
4, 117888, Note_off_c, 2, 53, 0
4, 117888, Note_on_c, 2, 65, 110
4, 117891, Note_on_c, 2, 69, 110
4, 117894, Note_on_c, 2, 60, 110
4, 117897, Note_on_c, 2, 53, 110
4, 117984, Note_off_c, 2, 53, 0
4, 117984, Note_off_c, 2, 60, 0
4, 117984, Note_off_c, 2, 69, 0
4, 117984, Note_off_c, 2, 65, 0
4, 117984, Note_on_c, 2, 53, 110
4, 117987, Note_on_c, 2, 60, 110
4, 117990, Note_on_c, 2, 65, 110
4, 117993, Note_on_c, 2, 69, 110
4, 118080, Note_off_c, 2, 69, 0
4, 118080, Note_off_c, 2, 65, 0
4, 118080, Note_off_c, 2, 60, 0
4, 118080, Note_off_c, 2, 53, 0
4, 118080, Note_on_c, 2, 53, 110
4, 118083, Note_on_c, 2, 69, 110
4, 118086, Note_on_c, 2, 65, 110
4, 118089, Note_on_c, 2, 60, 110
4, 118176, Note_off_c, 2, 60, 0
4, 118176, Note_off_c, 2, 65, 0
4, 118176, Note_off_c, 2, 69, 0
4, 118176, Note_off_c, 2, 53, 0
4, 118176, Note_on_c, 2, 53, 110
4, 118179, Note_on_c, 2, 60, 110
4, 118182, Note_on_c, 2, 65, 110
4, 118185, Note_on_c, 2, 69, 110
4, 118272, Note_off_c, 2, 69, 0
4, 118272, Note_off_c, 2, 65, 0
4, 118272, Note_off_c, 2, 60, 0
4, 118272, Note_off_c, 2, 53, 0
4, 118272, Note_on_c, 2, 69, 110
4, 118275, Note_on_c, 2, 65, 110
4, 118278, Note_on_c, 2, 60, 110
4, 118281, Note_on_c, 2, 53, 110
4, 118560, Note_off_c, 2, 53, 0
4, 118560, Note_off_c, 2, 60, 0
4, 118560, Note_off_c, 2, 65, 0
4, 118560, Note_off_c, 2, 69, 0
4, 118560, Note_on_c, 2, 53, 110
4, 118563, Note_on_c, 2, 60, 110
4, 118566, Note_on_c, 2, 65, 110
4, 118569, Note_on_c, 2, 69, 110
4, 118656, Note_off_c, 2, 69, 0
4, 118656, Note_off_c, 2, 65, 0
4, 118656, Note_off_c, 2, 60, 0
4, 118656, Note_off_c, 2, 53, 0
4, 118656, Note_on_c, 2, 69, 110
4, 118659, Note_on_c, 2, 65, 110
4, 118662, Note_on_c, 2, 60, 110
4, 118665, Note_on_c, 2, 53, 110
4, 118848, Note_off_c, 2, 53, 0
4, 118848, Note_off_c, 2, 60, 0
4, 118848, Note_off_c, 2, 65, 0
4, 118848, Note_off_c, 2, 69, 0
4, 118848, Note_on_c, 2, 53, 110
4, 118851, Note_on_c, 2, 60, 110
4, 118854, Note_on_c, 2, 65, 110
4, 118857, Note_on_c, 2, 69, 110
4, 118944, Note_off_c, 2, 69, 0
4, 118944, Note_off_c, 2, 65, 0
4, 118944, Note_off_c, 2, 60, 0
4, 118944, Note_off_c, 2, 53, 0
4, 118944, Note_on_c, 2, 69, 110
4, 118947, Note_on_c, 2, 65, 110
4, 118950, Note_on_c, 2, 60, 110
4, 118953, Note_on_c, 2, 53, 110
4, 119136, Note_off_c, 2, 53, 0
4, 119136, Note_off_c, 2, 60, 0
4, 119136, Note_off_c, 2, 65, 0
4, 119136, Note_off_c, 2, 69, 0
4, 119136, Note_on_c, 2, 70, 110
4, 119139, Note_on_c, 2, 65, 110
4, 119142, Note_on_c, 2, 60, 110
4, 119145, Note_on_c, 2, 53, 110
4, 119328, Note_off_c, 2, 53, 0
4, 119328, Note_off_c, 2, 60, 0
4, 119328, Note_off_c, 2, 65, 0
4, 119328, Note_off_c, 2, 70, 0
4, 119328, Note_on_c, 2, 53, 110
4, 119331, Note_on_c, 2, 60, 110
4, 119334, Note_on_c, 2, 65, 110
4, 119337, Note_on_c, 2, 70, 110
4, 119424, Note_off_c, 2, 70, 0
4, 119424, Note_off_c, 2, 65, 0
4, 119424, Note_off_c, 2, 60, 0
4, 119424, Note_off_c, 2, 53, 0
4, 119424, Note_on_c, 2, 65, 110
4, 119427, Note_on_c, 2, 69, 110
4, 119430, Note_on_c, 2, 60, 110
4, 119433, Note_on_c, 2, 53, 110
4, 119520, Note_off_c, 2, 53, 0
4, 119520, Note_off_c, 2, 60, 0
4, 119520, Note_off_c, 2, 69, 0
4, 119520, Note_off_c, 2, 65, 0
4, 119520, Note_on_c, 2, 53, 110
4, 119523, Note_on_c, 2, 60, 110
4, 119526, Note_on_c, 2, 65, 110
4, 119529, Note_on_c, 2, 69, 110
4, 119616, Note_off_c, 2, 69, 0
4, 119616, Note_off_c, 2, 65, 0
4, 119616, Note_off_c, 2, 60, 0
4, 119616, Note_off_c, 2, 53, 0
4, 119616, Note_on_c, 2, 53, 110
4, 119619, Note_on_c, 2, 69, 110
4, 119622, Note_on_c, 2, 65, 110
4, 119625, Note_on_c, 2, 60, 110
4, 119712, Note_off_c, 2, 60, 0
4, 119712, Note_off_c, 2, 65, 0
4, 119712, Note_off_c, 2, 69, 0
4, 119712, Note_off_c, 2, 53, 0
4, 119712, Note_on_c, 2, 53, 110
4, 119715, Note_on_c, 2, 60, 110
4, 119718, Note_on_c, 2, 65, 110
4, 119721, Note_on_c, 2, 69, 110
4, 119808, Note_off_c, 2, 69, 0
4, 119808, Note_off_c, 2, 65, 0
4, 119808, Note_off_c, 2, 60, 0
4, 119808, Note_off_c, 2, 53, 0
4, 119808, Note_on_c, 2, 67, 110
4, 119811, Note_on_c, 2, 62, 110
4, 119814, Note_on_c, 2, 58, 110
4, 119817, Note_on_c, 2, 55, 110
4, 119820, Note_on_c, 2, 50, 110
4, 119824, Note_on_c, 2, 43, 110
4, 120000, Note_off_c, 2, 43, 0
4, 120000, Note_off_c, 2, 50, 0
4, 120000, Note_off_c, 2, 55, 0
4, 120000, Note_off_c, 2, 58, 0
4, 120000, Note_off_c, 2, 62, 0
4, 120000, Note_off_c, 2, 67, 0
4, 120000, Note_on_c, 2, 43, 110
4, 120003, Note_on_c, 2, 50, 110
4, 120006, Note_on_c, 2, 55, 110
4, 120009, Note_on_c, 2, 58, 110
4, 120012, Note_on_c, 2, 62, 110
4, 120016, Note_on_c, 2, 67, 110
4, 120096, Note_off_c, 2, 67, 0
4, 120096, Note_off_c, 2, 62, 0
4, 120096, Note_off_c, 2, 58, 0
4, 120096, Note_off_c, 2, 55, 0
4, 120096, Note_off_c, 2, 50, 0
4, 120096, Note_off_c, 2, 43, 0
4, 120096, Note_on_c, 2, 67, 110
4, 120099, Note_on_c, 2, 62, 110
4, 120102, Note_on_c, 2, 58, 110
4, 120105, Note_on_c, 2, 55, 110
4, 120108, Note_on_c, 2, 50, 110
4, 120112, Note_on_c, 2, 43, 110
4, 120192, Note_off_c, 2, 43, 0
4, 120192, Note_off_c, 2, 50, 0
4, 120192, Note_off_c, 2, 55, 0
4, 120192, Note_off_c, 2, 58, 0
4, 120192, Note_off_c, 2, 62, 0
4, 120192, Note_off_c, 2, 67, 0
4, 120192, Note_on_c, 2, 43, 110
4, 120195, Note_on_c, 2, 50, 110
4, 120198, Note_on_c, 2, 55, 110
4, 120201, Note_on_c, 2, 58, 110
4, 120204, Note_on_c, 2, 62, 110
4, 120208, Note_on_c, 2, 67, 110
4, 120384, Note_off_c, 2, 67, 0
4, 120384, Note_off_c, 2, 62, 0
4, 120384, Note_off_c, 2, 58, 0
4, 120384, Note_off_c, 2, 55, 0
4, 120384, Note_off_c, 2, 50, 0
4, 120384, Note_off_c, 2, 43, 0
4, 120384, Note_on_c, 2, 67, 110
4, 120387, Note_on_c, 2, 62, 110
4, 120390, Note_on_c, 2, 58, 110
4, 120393, Note_on_c, 2, 55, 110
4, 120396, Note_on_c, 2, 50, 110
4, 120400, Note_on_c, 2, 43, 110
4, 120576, Note_off_c, 2, 43, 0
4, 120576, Note_off_c, 2, 50, 0
4, 120576, Note_off_c, 2, 55, 0
4, 120576, Note_off_c, 2, 58, 0
4, 120576, Note_off_c, 2, 62, 0
4, 120576, Note_off_c, 2, 67, 0
4, 120672, Note_on_c, 2, 67, 110
4, 120675, Note_on_c, 2, 63, 110
4, 120678, Note_on_c, 2, 58, 110
4, 120681, Note_on_c, 2, 55, 110
4, 120684, Note_on_c, 2, 51, 110
4, 120768, Note_off_c, 2, 51, 0
4, 120768, Note_off_c, 2, 55, 0
4, 120768, Note_off_c, 2, 58, 0
4, 120768, Note_off_c, 2, 63, 0
4, 120768, Note_off_c, 2, 67, 0
4, 120768, Note_on_c, 2, 51, 110
4, 120771, Note_on_c, 2, 55, 110
4, 120774, Note_on_c, 2, 58, 110
4, 120777, Note_on_c, 2, 63, 110
4, 120780, Note_on_c, 2, 67, 110
4, 120864, Note_off_c, 2, 67, 0
4, 120864, Note_off_c, 2, 63, 0
4, 120864, Note_off_c, 2, 58, 0
4, 120864, Note_off_c, 2, 55, 0
4, 120864, Note_off_c, 2, 51, 0
4, 120864, Note_on_c, 2, 67, 110
4, 120867, Note_on_c, 2, 63, 110
4, 120870, Note_on_c, 2, 58, 110
4, 120873, Note_on_c, 2, 55, 110
4, 120876, Note_on_c, 2, 51, 110
4, 120960, Note_off_c, 2, 51, 0
4, 120960, Note_off_c, 2, 55, 0
4, 120960, Note_off_c, 2, 58, 0
4, 120960, Note_off_c, 2, 63, 0
4, 120960, Note_off_c, 2, 67, 0
4, 120960, Note_on_c, 2, 51, 110
4, 120963, Note_on_c, 2, 55, 110
4, 120966, Note_on_c, 2, 58, 110
4, 120969, Note_on_c, 2, 63, 110
4, 120972, Note_on_c, 2, 67, 110
4, 121152, Note_off_c, 2, 67, 0
4, 121152, Note_off_c, 2, 63, 0
4, 121152, Note_off_c, 2, 58, 0
4, 121152, Note_off_c, 2, 55, 0
4, 121152, Note_off_c, 2, 51, 0
4, 121152, Note_on_c, 2, 67, 110
4, 121155, Note_on_c, 2, 63, 110
4, 121158, Note_on_c, 2, 58, 110
4, 121161, Note_on_c, 2, 55, 110
4, 121164, Note_on_c, 2, 51, 110
4, 121344, Note_off_c, 2, 51, 0
4, 121344, Note_off_c, 2, 55, 0
4, 121344, Note_off_c, 2, 58, 0
4, 121344, Note_off_c, 2, 63, 0
4, 121344, Note_off_c, 2, 67, 0
4, 121344, Note_on_c, 2, 69, 110
4, 121347, Note_on_c, 2, 65, 110
4, 121350, Note_on_c, 2, 60, 110
4, 121353, Note_on_c, 2, 53, 110
4, 121536, Note_off_c, 2, 53, 0
4, 121536, Note_off_c, 2, 60, 0
4, 121536, Note_off_c, 2, 65, 0
4, 121536, Note_off_c, 2, 69, 0
4, 121536, Note_on_c, 2, 53, 110
4, 121539, Note_on_c, 2, 60, 110
4, 121542, Note_on_c, 2, 65, 110
4, 121545, Note_on_c, 2, 69, 110
4, 121632, Note_off_c, 2, 69, 0
4, 121632, Note_off_c, 2, 65, 0
4, 121632, Note_off_c, 2, 60, 0
4, 121632, Note_off_c, 2, 53, 0
4, 121632, Note_on_c, 2, 69, 110
4, 121635, Note_on_c, 2, 65, 110
4, 121638, Note_on_c, 2, 60, 110
4, 121641, Note_on_c, 2, 53, 110
4, 121824, Note_off_c, 2, 53, 0
4, 121824, Note_off_c, 2, 60, 0
4, 121824, Note_off_c, 2, 65, 0
4, 121824, Note_off_c, 2, 69, 0
4, 121824, Note_on_c, 2, 53, 110
4, 121827, Note_on_c, 2, 60, 110
4, 121830, Note_on_c, 2, 65, 110
4, 121833, Note_on_c, 2, 69, 110
4, 121920, Note_off_c, 2, 69, 0
4, 121920, Note_off_c, 2, 65, 0
4, 121920, Note_off_c, 2, 60, 0
4, 121920, Note_off_c, 2, 53, 0
4, 121920, Note_on_c, 2, 53, 110
4, 121920, Note_on_c, 2, 60, 110
4, 121920, Note_on_c, 2, 65, 110
4, 121920, Note_on_c, 2, 69, 110
4, 122112, Note_off_c, 2, 69, 0
4, 122112, Note_off_c, 2, 65, 0
4, 122112, Note_off_c, 2, 60, 0
4, 122112, Note_off_c, 2, 53, 0
4, 122112, Note_on_c, 2, 67, 110
4, 122115, Note_on_c, 2, 62, 110
4, 122118, Note_on_c, 2, 58, 110
4, 122121, Note_on_c, 2, 55, 110
4, 122124, Note_on_c, 2, 50, 110
4, 122128, Note_on_c, 2, 43, 110
4, 122208, Note_off_c, 2, 43, 0
4, 122208, Note_off_c, 2, 50, 0
4, 122208, Note_off_c, 2, 55, 0
4, 122208, Note_off_c, 2, 58, 0
4, 122208, Note_off_c, 2, 62, 0
4, 122208, Note_off_c, 2, 67, 0
4, 122208, Note_on_c, 2, 43, 110
4, 122211, Note_on_c, 2, 50, 110
4, 122214, Note_on_c, 2, 55, 110
4, 122217, Note_on_c, 2, 58, 110
4, 122220, Note_on_c, 2, 62, 110
4, 122224, Note_on_c, 2, 67, 110
4, 122304, Note_off_c, 2, 67, 0
4, 122304, Note_off_c, 2, 62, 0
4, 122304, Note_off_c, 2, 58, 0
4, 122304, Note_off_c, 2, 55, 0
4, 122304, Note_off_c, 2, 50, 0
4, 122304, Note_off_c, 2, 43, 0
4, 122304, Note_on_c, 2, 67, 110
4, 122307, Note_on_c, 2, 62, 110
4, 122310, Note_on_c, 2, 58, 110
4, 122313, Note_on_c, 2, 55, 110
4, 122316, Note_on_c, 2, 50, 110
4, 122320, Note_on_c, 2, 43, 110
4, 122400, Note_off_c, 2, 43, 0
4, 122400, Note_off_c, 2, 50, 0
4, 122400, Note_off_c, 2, 55, 0
4, 122400, Note_off_c, 2, 58, 0
4, 122400, Note_off_c, 2, 62, 0
4, 122400, Note_off_c, 2, 67, 0
4, 122400, Note_on_c, 2, 43, 110
4, 122403, Note_on_c, 2, 50, 110
4, 122406, Note_on_c, 2, 55, 110
4, 122409, Note_on_c, 2, 58, 110
4, 122412, Note_on_c, 2, 62, 110
4, 122416, Note_on_c, 2, 67, 110
4, 122496, Note_off_c, 2, 67, 0
4, 122496, Note_off_c, 2, 62, 0
4, 122496, Note_off_c, 2, 58, 0
4, 122496, Note_off_c, 2, 55, 0
4, 122496, Note_off_c, 2, 50, 0
4, 122496, Note_off_c, 2, 43, 0
4, 122496, Note_on_c, 2, 43, 110
4, 122499, Note_on_c, 2, 50, 110
4, 122502, Note_on_c, 2, 55, 110
4, 122505, Note_on_c, 2, 58, 110
4, 122508, Note_on_c, 2, 62, 110
4, 122512, Note_on_c, 2, 67, 110
4, 122688, Note_off_c, 2, 67, 0
4, 122688, Note_off_c, 2, 62, 0
4, 122688, Note_off_c, 2, 58, 0
4, 122688, Note_off_c, 2, 55, 0
4, 122688, Note_off_c, 2, 50, 0
4, 122688, Note_off_c, 2, 43, 0
4, 122688, Note_on_c, 2, 67, 110
4, 122691, Note_on_c, 2, 62, 110
4, 122694, Note_on_c, 2, 58, 110
4, 122697, Note_on_c, 2, 55, 110
4, 122700, Note_on_c, 2, 50, 110
4, 122704, Note_on_c, 2, 43, 110
4, 122880, Note_off_c, 2, 43, 0
4, 122880, Note_off_c, 2, 50, 0
4, 122880, Note_off_c, 2, 55, 0
4, 122880, Note_off_c, 2, 58, 0
4, 122880, Note_off_c, 2, 62, 0
4, 122880, Note_off_c, 2, 67, 0
4, 122880, Note_on_c, 2, 67, 110
4, 122883, Note_on_c, 2, 62, 110
4, 122886, Note_on_c, 2, 58, 110
4, 122889, Note_on_c, 2, 55, 110
4, 122892, Note_on_c, 2, 50, 110
4, 122896, Note_on_c, 2, 43, 110
4, 122976, Note_off_c, 2, 43, 0
4, 122976, Note_off_c, 2, 50, 0
4, 122976, Note_off_c, 2, 55, 0
4, 122976, Note_off_c, 2, 58, 0
4, 122976, Note_off_c, 2, 62, 0
4, 122976, Note_off_c, 2, 67, 0
4, 122976, Note_on_c, 2, 43, 110
4, 122979, Note_on_c, 2, 50, 110
4, 122982, Note_on_c, 2, 55, 110
4, 122985, Note_on_c, 2, 58, 110
4, 122988, Note_on_c, 2, 62, 110
4, 122992, Note_on_c, 2, 67, 110
4, 123072, Note_off_c, 2, 67, 0
4, 123072, Note_off_c, 2, 62, 0
4, 123072, Note_off_c, 2, 58, 0
4, 123072, Note_off_c, 2, 55, 0
4, 123072, Note_off_c, 2, 50, 0
4, 123072, Note_off_c, 2, 43, 0
4, 123072, Note_on_c, 2, 67, 110
4, 123075, Note_on_c, 2, 62, 110
4, 123078, Note_on_c, 2, 58, 110
4, 123081, Note_on_c, 2, 55, 110
4, 123084, Note_on_c, 2, 50, 110
4, 123088, Note_on_c, 2, 43, 110
4, 123168, Note_off_c, 2, 43, 0
4, 123168, Note_off_c, 2, 50, 0
4, 123168, Note_off_c, 2, 55, 0
4, 123168, Note_off_c, 2, 58, 0
4, 123168, Note_off_c, 2, 62, 0
4, 123168, Note_off_c, 2, 67, 0
4, 123168, Note_on_c, 2, 43, 110
4, 123171, Note_on_c, 2, 50, 110
4, 123174, Note_on_c, 2, 55, 110
4, 123177, Note_on_c, 2, 58, 110
4, 123180, Note_on_c, 2, 62, 110
4, 123184, Note_on_c, 2, 67, 110
4, 123264, Note_off_c, 2, 67, 0
4, 123264, Note_off_c, 2, 62, 0
4, 123264, Note_off_c, 2, 58, 0
4, 123264, Note_off_c, 2, 55, 0
4, 123264, Note_off_c, 2, 50, 0
4, 123264, Note_off_c, 2, 43, 0
4, 123264, Note_on_c, 2, 43, 110
4, 123267, Note_on_c, 2, 50, 110
4, 123270, Note_on_c, 2, 55, 110
4, 123273, Note_on_c, 2, 58, 110
4, 123276, Note_on_c, 2, 62, 110
4, 123280, Note_on_c, 2, 67, 110
4, 123456, Note_off_c, 2, 67, 0
4, 123456, Note_off_c, 2, 62, 0
4, 123456, Note_off_c, 2, 58, 0
4, 123456, Note_off_c, 2, 55, 0
4, 123456, Note_off_c, 2, 50, 0
4, 123456, Note_off_c, 2, 43, 0
4, 123456, Note_on_c, 2, 67, 110
4, 123459, Note_on_c, 2, 62, 110
4, 123462, Note_on_c, 2, 58, 110
4, 123465, Note_on_c, 2, 55, 110
4, 123468, Note_on_c, 2, 50, 110
4, 123472, Note_on_c, 2, 43, 110
4, 123648, Note_off_c, 2, 43, 0
4, 123648, Note_off_c, 2, 50, 0
4, 123648, Note_off_c, 2, 55, 0
4, 123648, Note_off_c, 2, 58, 0
4, 123648, Note_off_c, 2, 62, 0
4, 123648, Note_off_c, 2, 67, 0
4, 123744, Note_on_c, 2, 51, 110
4, 123747, Note_on_c, 2, 55, 110
4, 123750, Note_on_c, 2, 58, 110
4, 123753, Note_on_c, 2, 63, 110
4, 123756, Note_on_c, 2, 67, 110
4, 123840, Note_off_c, 2, 67, 0
4, 123840, Note_off_c, 2, 63, 0
4, 123840, Note_off_c, 2, 58, 0
4, 123840, Note_off_c, 2, 55, 0
4, 123840, Note_off_c, 2, 51, 0
4, 123840, Note_on_c, 2, 67, 110
4, 123843, Note_on_c, 2, 63, 110
4, 123846, Note_on_c, 2, 58, 110
4, 123849, Note_on_c, 2, 55, 110
4, 123852, Note_on_c, 2, 51, 110
4, 123936, Note_off_c, 2, 51, 0
4, 123936, Note_off_c, 2, 55, 0
4, 123936, Note_off_c, 2, 58, 0
4, 123936, Note_off_c, 2, 63, 0
4, 123936, Note_off_c, 2, 67, 0
4, 123936, Note_on_c, 2, 51, 110
4, 123939, Note_on_c, 2, 55, 110
4, 123942, Note_on_c, 2, 58, 110
4, 123945, Note_on_c, 2, 63, 110
4, 123948, Note_on_c, 2, 67, 110
4, 124032, Note_off_c, 2, 67, 0
4, 124032, Note_off_c, 2, 63, 0
4, 124032, Note_off_c, 2, 58, 0
4, 124032, Note_off_c, 2, 55, 0
4, 124032, Note_off_c, 2, 51, 0
4, 124032, Note_on_c, 2, 67, 110
4, 124035, Note_on_c, 2, 63, 110
4, 124038, Note_on_c, 2, 58, 110
4, 124041, Note_on_c, 2, 55, 110
4, 124044, Note_on_c, 2, 51, 110
4, 124224, Note_off_c, 2, 51, 0
4, 124224, Note_off_c, 2, 55, 0
4, 124224, Note_off_c, 2, 58, 0
4, 124224, Note_off_c, 2, 63, 0
4, 124224, Note_off_c, 2, 67, 0
4, 124224, Note_on_c, 2, 67, 110
4, 124227, Note_on_c, 2, 63, 110
4, 124230, Note_on_c, 2, 58, 110
4, 124233, Note_on_c, 2, 55, 110
4, 124236, Note_on_c, 2, 51, 110
4, 124416, Note_off_c, 2, 51, 0
4, 124416, Note_off_c, 2, 55, 0
4, 124416, Note_off_c, 2, 58, 0
4, 124416, Note_off_c, 2, 63, 0
4, 124416, Note_off_c, 2, 67, 0
4, 124416, Note_on_c, 2, 69, 110
4, 124419, Note_on_c, 2, 65, 110
4, 124422, Note_on_c, 2, 60, 110
4, 124425, Note_on_c, 2, 53, 110
4, 124608, Note_off_c, 2, 53, 0
4, 124608, Note_off_c, 2, 60, 0
4, 124608, Note_off_c, 2, 65, 0
4, 124608, Note_off_c, 2, 69, 0
4, 124608, Note_on_c, 2, 53, 110
4, 124611, Note_on_c, 2, 60, 110
4, 124614, Note_on_c, 2, 65, 110
4, 124617, Note_on_c, 2, 69, 110
4, 124704, Note_off_c, 2, 69, 0
4, 124704, Note_off_c, 2, 65, 0
4, 124704, Note_off_c, 2, 60, 0
4, 124704, Note_off_c, 2, 53, 0
4, 124704, Note_on_c, 2, 69, 110
4, 124707, Note_on_c, 2, 65, 110
4, 124710, Note_on_c, 2, 60, 110
4, 124713, Note_on_c, 2, 53, 110
4, 124896, Note_off_c, 2, 53, 0
4, 124896, Note_off_c, 2, 60, 0
4, 124896, Note_off_c, 2, 65, 0
4, 124896, Note_off_c, 2, 69, 0
4, 124896, Note_on_c, 2, 53, 110
4, 124899, Note_on_c, 2, 60, 110
4, 124902, Note_on_c, 2, 65, 110
4, 124905, Note_on_c, 2, 69, 110
4, 124992, Note_off_c, 2, 69, 0
4, 124992, Note_off_c, 2, 65, 0
4, 124992, Note_off_c, 2, 60, 0
4, 124992, Note_off_c, 2, 53, 0
4, 124992, Note_on_c, 2, 53, 110
4, 124992, Note_on_c, 2, 60, 110
4, 124992, Note_on_c, 2, 65, 110
4, 124992, Note_on_c, 2, 69, 110
4, 125184, Note_off_c, 2, 69, 0
4, 125184, Note_off_c, 2, 65, 0
4, 125184, Note_off_c, 2, 60, 0
4, 125184, Note_off_c, 2, 53, 0
4, 125280, Note_on_c, 2, 43, 110
4, 125283, Note_on_c, 2, 50, 110
4, 125286, Note_on_c, 2, 55, 110
4, 125289, Note_on_c, 2, 58, 110
4, 125292, Note_on_c, 2, 62, 110
4, 125296, Note_on_c, 2, 67, 110
4, 125376, Note_off_c, 2, 67, 0
4, 125376, Note_off_c, 2, 62, 0
4, 125376, Note_off_c, 2, 58, 0
4, 125376, Note_off_c, 2, 55, 0
4, 125376, Note_off_c, 2, 50, 0
4, 125376, Note_off_c, 2, 43, 0
4, 125376, Note_on_c, 2, 67, 110
4, 125379, Note_on_c, 2, 62, 110
4, 125382, Note_on_c, 2, 58, 110
4, 125385, Note_on_c, 2, 55, 110
4, 125388, Note_on_c, 2, 50, 110
4, 125392, Note_on_c, 2, 43, 110
4, 125472, Note_off_c, 2, 43, 0
4, 125472, Note_off_c, 2, 50, 0
4, 125472, Note_off_c, 2, 55, 0
4, 125472, Note_off_c, 2, 58, 0
4, 125472, Note_off_c, 2, 62, 0
4, 125472, Note_off_c, 2, 67, 0
4, 125472, Note_on_c, 2, 43, 110
4, 125475, Note_on_c, 2, 50, 110
4, 125478, Note_on_c, 2, 55, 110
4, 125481, Note_on_c, 2, 58, 110
4, 125484, Note_on_c, 2, 62, 110
4, 125488, Note_on_c, 2, 67, 110
4, 125568, Note_off_c, 2, 67, 0
4, 125568, Note_off_c, 2, 62, 0
4, 125568, Note_off_c, 2, 58, 0
4, 125568, Note_off_c, 2, 55, 0
4, 125568, Note_off_c, 2, 50, 0
4, 125568, Note_off_c, 2, 43, 0
4, 125568, Note_on_c, 2, 43, 110
4, 125571, Note_on_c, 2, 50, 110
4, 125574, Note_on_c, 2, 55, 110
4, 125577, Note_on_c, 2, 58, 110
4, 125580, Note_on_c, 2, 62, 110
4, 125584, Note_on_c, 2, 67, 110
4, 125760, Note_off_c, 2, 67, 0
4, 125760, Note_off_c, 2, 62, 0
4, 125760, Note_off_c, 2, 58, 0
4, 125760, Note_off_c, 2, 55, 0
4, 125760, Note_off_c, 2, 50, 0
4, 125760, Note_off_c, 2, 43, 0
4, 125760, Note_on_c, 2, 67, 110
4, 125763, Note_on_c, 2, 62, 110
4, 125766, Note_on_c, 2, 58, 110
4, 125769, Note_on_c, 2, 55, 110
4, 125772, Note_on_c, 2, 50, 110
4, 125776, Note_on_c, 2, 43, 110
4, 125952, Note_off_c, 2, 43, 0
4, 125952, Note_off_c, 2, 50, 0
4, 125952, Note_off_c, 2, 55, 0
4, 125952, Note_off_c, 2, 58, 0
4, 125952, Note_off_c, 2, 62, 0
4, 125952, Note_off_c, 2, 67, 0
4, 125952, Note_on_c, 2, 67, 110
4, 125955, Note_on_c, 2, 62, 110
4, 125958, Note_on_c, 2, 58, 110
4, 125961, Note_on_c, 2, 55, 110
4, 125964, Note_on_c, 2, 50, 110
4, 125968, Note_on_c, 2, 43, 110
4, 126144, Note_off_c, 2, 43, 0
4, 126144, Note_off_c, 2, 50, 0
4, 126144, Note_off_c, 2, 55, 0
4, 126144, Note_off_c, 2, 58, 0
4, 126144, Note_off_c, 2, 62, 0
4, 126144, Note_off_c, 2, 67, 0
4, 126144, Note_on_c, 2, 43, 110
4, 126147, Note_on_c, 2, 50, 110
4, 126150, Note_on_c, 2, 55, 110
4, 126153, Note_on_c, 2, 58, 110
4, 126156, Note_on_c, 2, 62, 110
4, 126160, Note_on_c, 2, 67, 110
4, 126240, Note_off_c, 2, 67, 0
4, 126240, Note_off_c, 2, 62, 0
4, 126240, Note_off_c, 2, 58, 0
4, 126240, Note_off_c, 2, 55, 0
4, 126240, Note_off_c, 2, 50, 0
4, 126240, Note_off_c, 2, 43, 0
4, 126240, Note_on_c, 2, 67, 110
4, 126243, Note_on_c, 2, 62, 110
4, 126246, Note_on_c, 2, 58, 110
4, 126249, Note_on_c, 2, 55, 110
4, 126252, Note_on_c, 2, 50, 110
4, 126256, Note_on_c, 2, 43, 110
4, 126336, Note_off_c, 2, 43, 0
4, 126336, Note_off_c, 2, 50, 0
4, 126336, Note_off_c, 2, 55, 0
4, 126336, Note_off_c, 2, 58, 0
4, 126336, Note_off_c, 2, 62, 0
4, 126336, Note_off_c, 2, 67, 0
4, 126336, Note_on_c, 2, 43, 110
4, 126339, Note_on_c, 2, 50, 110
4, 126342, Note_on_c, 2, 55, 110
4, 126345, Note_on_c, 2, 58, 110
4, 126348, Note_on_c, 2, 62, 110
4, 126352, Note_on_c, 2, 67, 110
4, 126528, Note_off_c, 2, 67, 0
4, 126528, Note_off_c, 2, 62, 0
4, 126528, Note_off_c, 2, 58, 0
4, 126528, Note_off_c, 2, 55, 0
4, 126528, Note_off_c, 2, 50, 0
4, 126528, Note_off_c, 2, 43, 0
4, 126528, Note_on_c, 2, 67, 110
4, 126531, Note_on_c, 2, 62, 110
4, 126534, Note_on_c, 2, 58, 110
4, 126537, Note_on_c, 2, 55, 110
4, 126540, Note_on_c, 2, 50, 110
4, 126544, Note_on_c, 2, 43, 110
4, 126720, Note_off_c, 2, 43, 0
4, 126720, Note_off_c, 2, 50, 0
4, 126720, Note_off_c, 2, 55, 0
4, 126720, Note_off_c, 2, 58, 0
4, 126720, Note_off_c, 2, 62, 0
4, 126720, Note_off_c, 2, 67, 0
4, 126816, Note_on_c, 2, 67, 110
4, 126819, Note_on_c, 2, 63, 110
4, 126822, Note_on_c, 2, 58, 110
4, 126825, Note_on_c, 2, 55, 110
4, 126828, Note_on_c, 2, 51, 110
4, 126912, Note_off_c, 2, 51, 0
4, 126912, Note_off_c, 2, 55, 0
4, 126912, Note_off_c, 2, 58, 0
4, 126912, Note_off_c, 2, 63, 0
4, 126912, Note_off_c, 2, 67, 0
4, 126912, Note_on_c, 2, 51, 110
4, 126915, Note_on_c, 2, 55, 110
4, 126918, Note_on_c, 2, 58, 110
4, 126921, Note_on_c, 2, 63, 110
4, 126924, Note_on_c, 2, 67, 110
4, 127008, Note_off_c, 2, 67, 0
4, 127008, Note_off_c, 2, 63, 0
4, 127008, Note_off_c, 2, 58, 0
4, 127008, Note_off_c, 2, 55, 0
4, 127008, Note_off_c, 2, 51, 0
4, 127008, Note_on_c, 2, 67, 110
4, 127011, Note_on_c, 2, 63, 110
4, 127014, Note_on_c, 2, 58, 110
4, 127017, Note_on_c, 2, 55, 110
4, 127020, Note_on_c, 2, 51, 110
4, 127104, Note_off_c, 2, 51, 0
4, 127104, Note_off_c, 2, 55, 0
4, 127104, Note_off_c, 2, 58, 0
4, 127104, Note_off_c, 2, 63, 0
4, 127104, Note_off_c, 2, 67, 0
4, 127104, Note_on_c, 2, 51, 110
4, 127107, Note_on_c, 2, 55, 110
4, 127110, Note_on_c, 2, 58, 110
4, 127113, Note_on_c, 2, 63, 110
4, 127116, Note_on_c, 2, 67, 110
4, 127296, Note_off_c, 2, 67, 0
4, 127296, Note_off_c, 2, 63, 0
4, 127296, Note_off_c, 2, 58, 0
4, 127296, Note_off_c, 2, 55, 0
4, 127296, Note_off_c, 2, 51, 0
4, 127296, Note_on_c, 2, 67, 110
4, 127299, Note_on_c, 2, 63, 110
4, 127302, Note_on_c, 2, 58, 110
4, 127305, Note_on_c, 2, 55, 110
4, 127308, Note_on_c, 2, 51, 110
4, 127488, Note_off_c, 2, 51, 0
4, 127488, Note_off_c, 2, 55, 0
4, 127488, Note_off_c, 2, 58, 0
4, 127488, Note_off_c, 2, 63, 0
4, 127488, Note_off_c, 2, 67, 0
4, 127488, Note_on_c, 2, 69, 110
4, 127491, Note_on_c, 2, 65, 110
4, 127494, Note_on_c, 2, 60, 110
4, 127497, Note_on_c, 2, 53, 110
4, 127680, Note_off_c, 2, 53, 0
4, 127680, Note_off_c, 2, 60, 0
4, 127680, Note_off_c, 2, 65, 0
4, 127680, Note_off_c, 2, 69, 0
4, 127680, Note_on_c, 2, 53, 110
4, 127683, Note_on_c, 2, 60, 110
4, 127686, Note_on_c, 2, 65, 110
4, 127689, Note_on_c, 2, 69, 110
4, 127776, Note_off_c, 2, 69, 0
4, 127776, Note_off_c, 2, 65, 0
4, 127776, Note_off_c, 2, 60, 0
4, 127776, Note_off_c, 2, 53, 0
4, 127776, Note_on_c, 2, 69, 110
4, 127779, Note_on_c, 2, 65, 110
4, 127782, Note_on_c, 2, 60, 110
4, 127785, Note_on_c, 2, 53, 110
4, 127968, Note_off_c, 2, 53, 0
4, 127968, Note_off_c, 2, 60, 0
4, 127968, Note_off_c, 2, 65, 0
4, 127968, Note_off_c, 2, 69, 0
4, 127968, Note_on_c, 2, 53, 110
4, 127971, Note_on_c, 2, 60, 110
4, 127974, Note_on_c, 2, 65, 110
4, 127977, Note_on_c, 2, 69, 110
4, 128064, Note_off_c, 2, 69, 0
4, 128064, Note_off_c, 2, 65, 0
4, 128064, Note_off_c, 2, 60, 0
4, 128064, Note_off_c, 2, 53, 0
4, 128064, Note_on_c, 2, 53, 110
4, 128064, Note_on_c, 2, 60, 110
4, 128064, Note_on_c, 2, 65, 110
4, 128064, Note_on_c, 2, 69, 110
4, 128256, Note_off_c, 2, 69, 0
4, 128256, Note_off_c, 2, 65, 0
4, 128256, Note_off_c, 2, 60, 0
4, 128256, Note_off_c, 2, 53, 0
4, 128256, Note_on_c, 2, 67, 110
4, 128259, Note_on_c, 2, 62, 110
4, 128262, Note_on_c, 2, 58, 110
4, 128265, Note_on_c, 2, 55, 110
4, 128268, Note_on_c, 2, 50, 110
4, 128272, Note_on_c, 2, 43, 110
4, 128352, Note_off_c, 2, 43, 0
4, 128352, Note_off_c, 2, 50, 0
4, 128352, Note_off_c, 2, 55, 0
4, 128352, Note_off_c, 2, 58, 0
4, 128352, Note_off_c, 2, 62, 0
4, 128352, Note_off_c, 2, 67, 0
4, 128352, Note_on_c, 2, 43, 110
4, 128355, Note_on_c, 2, 50, 110
4, 128358, Note_on_c, 2, 55, 110
4, 128361, Note_on_c, 2, 58, 110
4, 128364, Note_on_c, 2, 62, 110
4, 128368, Note_on_c, 2, 67, 110
4, 128448, Note_off_c, 2, 67, 0
4, 128448, Note_off_c, 2, 62, 0
4, 128448, Note_off_c, 2, 58, 0
4, 128448, Note_off_c, 2, 55, 0
4, 128448, Note_off_c, 2, 50, 0
4, 128448, Note_off_c, 2, 43, 0
4, 128448, Note_on_c, 2, 67, 110
4, 128451, Note_on_c, 2, 62, 110
4, 128454, Note_on_c, 2, 58, 110
4, 128457, Note_on_c, 2, 55, 110
4, 128460, Note_on_c, 2, 50, 110
4, 128464, Note_on_c, 2, 43, 110
4, 128544, Note_off_c, 2, 43, 0
4, 128544, Note_off_c, 2, 50, 0
4, 128544, Note_off_c, 2, 55, 0
4, 128544, Note_off_c, 2, 58, 0
4, 128544, Note_off_c, 2, 62, 0
4, 128544, Note_off_c, 2, 67, 0
4, 128544, Note_on_c, 2, 43, 110
4, 128547, Note_on_c, 2, 50, 110
4, 128550, Note_on_c, 2, 55, 110
4, 128553, Note_on_c, 2, 58, 110
4, 128556, Note_on_c, 2, 62, 110
4, 128560, Note_on_c, 2, 67, 110
4, 128640, Note_off_c, 2, 67, 0
4, 128640, Note_off_c, 2, 62, 0
4, 128640, Note_off_c, 2, 58, 0
4, 128640, Note_off_c, 2, 55, 0
4, 128640, Note_off_c, 2, 50, 0
4, 128640, Note_off_c, 2, 43, 0
4, 128640, Note_on_c, 2, 43, 110
4, 128643, Note_on_c, 2, 50, 110
4, 128646, Note_on_c, 2, 55, 110
4, 128649, Note_on_c, 2, 58, 110
4, 128652, Note_on_c, 2, 62, 110
4, 128656, Note_on_c, 2, 67, 110
4, 128832, Note_off_c, 2, 67, 0
4, 128832, Note_off_c, 2, 62, 0
4, 128832, Note_off_c, 2, 58, 0
4, 128832, Note_off_c, 2, 55, 0
4, 128832, Note_off_c, 2, 50, 0
4, 128832, Note_off_c, 2, 43, 0
4, 128832, Note_on_c, 2, 67, 110
4, 128835, Note_on_c, 2, 62, 110
4, 128838, Note_on_c, 2, 58, 110
4, 128841, Note_on_c, 2, 55, 110
4, 128844, Note_on_c, 2, 50, 110
4, 128848, Note_on_c, 2, 43, 110
4, 129024, Note_off_c, 2, 43, 0
4, 129024, Note_off_c, 2, 50, 0
4, 129024, Note_off_c, 2, 55, 0
4, 129024, Note_off_c, 2, 58, 0
4, 129024, Note_off_c, 2, 62, 0
4, 129024, Note_off_c, 2, 67, 0
4, 129024, Note_on_c, 2, 67, 110
4, 129027, Note_on_c, 2, 62, 110
4, 129030, Note_on_c, 2, 58, 110
4, 129033, Note_on_c, 2, 55, 110
4, 129036, Note_on_c, 2, 50, 110
4, 129040, Note_on_c, 2, 43, 110
4, 129216, Note_off_c, 2, 43, 0
4, 129216, Note_off_c, 2, 50, 0
4, 129216, Note_off_c, 2, 55, 0
4, 129216, Note_off_c, 2, 58, 0
4, 129216, Note_off_c, 2, 62, 0
4, 129216, Note_off_c, 2, 67, 0
4, 129216, Note_on_c, 2, 43, 110
4, 129219, Note_on_c, 2, 50, 110
4, 129222, Note_on_c, 2, 55, 110
4, 129225, Note_on_c, 2, 58, 110
4, 129228, Note_on_c, 2, 62, 110
4, 129232, Note_on_c, 2, 67, 110
4, 129312, Note_off_c, 2, 67, 0
4, 129312, Note_off_c, 2, 62, 0
4, 129312, Note_off_c, 2, 58, 0
4, 129312, Note_off_c, 2, 55, 0
4, 129312, Note_off_c, 2, 50, 0
4, 129312, Note_off_c, 2, 43, 0
4, 129312, Note_on_c, 2, 67, 110
4, 129315, Note_on_c, 2, 62, 110
4, 129318, Note_on_c, 2, 58, 110
4, 129321, Note_on_c, 2, 55, 110
4, 129324, Note_on_c, 2, 50, 110
4, 129328, Note_on_c, 2, 43, 110
4, 129408, Note_off_c, 2, 43, 0
4, 129408, Note_off_c, 2, 50, 0
4, 129408, Note_off_c, 2, 55, 0
4, 129408, Note_off_c, 2, 58, 0
4, 129408, Note_off_c, 2, 62, 0
4, 129408, Note_off_c, 2, 67, 0
4, 129408, Note_on_c, 2, 43, 110
4, 129411, Note_on_c, 2, 50, 110
4, 129414, Note_on_c, 2, 55, 110
4, 129417, Note_on_c, 2, 58, 110
4, 129420, Note_on_c, 2, 62, 110
4, 129424, Note_on_c, 2, 67, 110
4, 129600, Note_off_c, 2, 67, 0
4, 129600, Note_off_c, 2, 62, 0
4, 129600, Note_off_c, 2, 58, 0
4, 129600, Note_off_c, 2, 55, 0
4, 129600, Note_off_c, 2, 50, 0
4, 129600, Note_off_c, 2, 43, 0
4, 129600, Note_on_c, 2, 67, 110
4, 129603, Note_on_c, 2, 62, 110
4, 129606, Note_on_c, 2, 58, 110
4, 129609, Note_on_c, 2, 55, 110
4, 129612, Note_on_c, 2, 50, 110
4, 129616, Note_on_c, 2, 43, 110
4, 129792, Note_off_c, 2, 43, 0
4, 129792, Note_off_c, 2, 50, 0
4, 129792, Note_off_c, 2, 55, 0
4, 129792, Note_off_c, 2, 58, 0
4, 129792, Note_off_c, 2, 62, 0
4, 129792, Note_off_c, 2, 67, 0
4, 129888, Note_on_c, 2, 67, 110
4, 129891, Note_on_c, 2, 63, 110
4, 129894, Note_on_c, 2, 58, 110
4, 129897, Note_on_c, 2, 55, 110
4, 129900, Note_on_c, 2, 51, 110
4, 129984, Note_off_c, 2, 51, 0
4, 129984, Note_off_c, 2, 55, 0
4, 129984, Note_off_c, 2, 58, 0
4, 129984, Note_off_c, 2, 63, 0
4, 129984, Note_off_c, 2, 67, 0
4, 129984, Note_on_c, 2, 51, 110
4, 129987, Note_on_c, 2, 55, 110
4, 129990, Note_on_c, 2, 58, 110
4, 129993, Note_on_c, 2, 63, 110
4, 129996, Note_on_c, 2, 67, 110
4, 130080, Note_off_c, 2, 67, 0
4, 130080, Note_off_c, 2, 63, 0
4, 130080, Note_off_c, 2, 58, 0
4, 130080, Note_off_c, 2, 55, 0
4, 130080, Note_off_c, 2, 51, 0
4, 130080, Note_on_c, 2, 67, 110
4, 130083, Note_on_c, 2, 63, 110
4, 130086, Note_on_c, 2, 58, 110
4, 130089, Note_on_c, 2, 55, 110
4, 130092, Note_on_c, 2, 51, 110
4, 130176, Note_off_c, 2, 51, 0
4, 130176, Note_off_c, 2, 55, 0
4, 130176, Note_off_c, 2, 58, 0
4, 130176, Note_off_c, 2, 63, 0
4, 130176, Note_off_c, 2, 67, 0
4, 130176, Note_on_c, 2, 51, 110
4, 130179, Note_on_c, 2, 55, 110
4, 130182, Note_on_c, 2, 58, 110
4, 130185, Note_on_c, 2, 63, 110
4, 130188, Note_on_c, 2, 67, 110
4, 130368, Note_off_c, 2, 67, 0
4, 130368, Note_off_c, 2, 63, 0
4, 130368, Note_off_c, 2, 58, 0
4, 130368, Note_off_c, 2, 55, 0
4, 130368, Note_off_c, 2, 51, 0
4, 130368, Note_on_c, 2, 67, 110
4, 130371, Note_on_c, 2, 63, 110
4, 130374, Note_on_c, 2, 58, 110
4, 130377, Note_on_c, 2, 55, 110
4, 130380, Note_on_c, 2, 51, 110
4, 130560, Note_off_c, 2, 51, 0
4, 130560, Note_off_c, 2, 55, 0
4, 130560, Note_off_c, 2, 58, 0
4, 130560, Note_off_c, 2, 63, 0
4, 130560, Note_off_c, 2, 67, 0
4, 130560, Note_on_c, 2, 69, 110
4, 130563, Note_on_c, 2, 65, 110
4, 130566, Note_on_c, 2, 60, 110
4, 130569, Note_on_c, 2, 53, 110
4, 130752, Note_off_c, 2, 53, 0
4, 130752, Note_off_c, 2, 60, 0
4, 130752, Note_off_c, 2, 65, 0
4, 130752, Note_off_c, 2, 69, 0
4, 130752, Note_on_c, 2, 53, 110
4, 130755, Note_on_c, 2, 60, 110
4, 130758, Note_on_c, 2, 65, 110
4, 130761, Note_on_c, 2, 69, 110
4, 130848, Note_off_c, 2, 69, 0
4, 130848, Note_off_c, 2, 65, 0
4, 130848, Note_off_c, 2, 60, 0
4, 130848, Note_off_c, 2, 53, 0
4, 130848, Note_on_c, 2, 69, 110
4, 130851, Note_on_c, 2, 65, 110
4, 130854, Note_on_c, 2, 60, 110
4, 130857, Note_on_c, 2, 53, 110
4, 131040, Note_off_c, 2, 53, 0
4, 131040, Note_off_c, 2, 60, 0
4, 131040, Note_off_c, 2, 65, 0
4, 131040, Note_off_c, 2, 69, 0
4, 131040, Note_on_c, 2, 53, 110
4, 131043, Note_on_c, 2, 60, 110
4, 131046, Note_on_c, 2, 65, 110
4, 131049, Note_on_c, 2, 69, 110
4, 131136, Note_off_c, 2, 69, 0
4, 131136, Note_off_c, 2, 65, 0
4, 131136, Note_off_c, 2, 60, 0
4, 131136, Note_off_c, 2, 53, 0
4, 131136, Note_on_c, 2, 53, 110
4, 131136, Note_on_c, 2, 60, 110
4, 131136, Note_on_c, 2, 65, 110
4, 131136, Note_on_c, 2, 69, 110
4, 131328, Note_off_c, 2, 69, 0
4, 131328, Note_off_c, 2, 65, 0
4, 131328, Note_off_c, 2, 60, 0
4, 131328, Note_off_c, 2, 53, 0
4, 131328, Note_on_c, 2, 69, 110
4, 131331, Note_on_c, 2, 65, 110
4, 131334, Note_on_c, 2, 60, 110
4, 131337, Note_on_c, 2, 53, 110
4, 131424, Note_off_c, 2, 53, 0
4, 131424, Note_off_c, 2, 60, 0
4, 131424, Note_off_c, 2, 65, 0
4, 131424, Note_off_c, 2, 69, 0
4, 131424, Note_on_c, 2, 70, 110
4, 131427, Note_on_c, 2, 65, 110
4, 131430, Note_on_c, 2, 60, 110
4, 131433, Note_on_c, 2, 53, 110
4, 131616, Note_off_c, 2, 53, 0
4, 131616, Note_off_c, 2, 60, 0
4, 131616, Note_off_c, 2, 65, 0
4, 131616, Note_off_c, 2, 70, 0
4, 131616, Note_on_c, 2, 53, 110
4, 131619, Note_on_c, 2, 60, 110
4, 131622, Note_on_c, 2, 65, 110
4, 131625, Note_on_c, 2, 70, 110
4, 131712, Note_off_c, 2, 70, 0
4, 131712, Note_off_c, 2, 65, 0
4, 131712, Note_off_c, 2, 60, 0
4, 131712, Note_off_c, 2, 53, 0
4, 131712, Note_on_c, 2, 65, 110
4, 131715, Note_on_c, 2, 69, 110
4, 131718, Note_on_c, 2, 60, 110
4, 131721, Note_on_c, 2, 53, 110
4, 131808, Note_off_c, 2, 53, 0
4, 131808, Note_off_c, 2, 60, 0
4, 131808, Note_off_c, 2, 69, 0
4, 131808, Note_off_c, 2, 65, 0
4, 131808, Note_on_c, 2, 53, 110
4, 131811, Note_on_c, 2, 60, 110
4, 131814, Note_on_c, 2, 65, 110
4, 131817, Note_on_c, 2, 69, 110
4, 131904, Note_off_c, 2, 69, 0
4, 131904, Note_off_c, 2, 65, 0
4, 131904, Note_off_c, 2, 60, 0
4, 131904, Note_off_c, 2, 53, 0
4, 131904, Note_on_c, 2, 53, 110
4, 131907, Note_on_c, 2, 69, 110
4, 131910, Note_on_c, 2, 65, 110
4, 131913, Note_on_c, 2, 60, 110
4, 132000, Note_off_c, 2, 60, 0
4, 132000, Note_off_c, 2, 65, 0
4, 132000, Note_off_c, 2, 69, 0
4, 132000, Note_off_c, 2, 53, 0
4, 132000, Note_on_c, 2, 53, 110
4, 132003, Note_on_c, 2, 60, 110
4, 132006, Note_on_c, 2, 65, 110
4, 132009, Note_on_c, 2, 69, 110
4, 132096, Note_off_c, 2, 69, 0
4, 132096, Note_off_c, 2, 65, 0
4, 132096, Note_off_c, 2, 60, 0
4, 132096, Note_off_c, 2, 53, 0
4, 132096, Note_on_c, 2, 69, 110
4, 132099, Note_on_c, 2, 65, 110
4, 132102, Note_on_c, 2, 60, 110
4, 132105, Note_on_c, 2, 53, 110
4, 132288, Note_off_c, 2, 53, 0
4, 132288, Note_off_c, 2, 60, 0
4, 132288, Note_off_c, 2, 65, 0
4, 132288, Note_off_c, 2, 69, 0
4, 132288, Note_on_c, 2, 53, 110
4, 132291, Note_on_c, 2, 60, 110
4, 132294, Note_on_c, 2, 65, 110
4, 132297, Note_on_c, 2, 69, 110
4, 132384, Note_off_c, 2, 69, 0
4, 132384, Note_off_c, 2, 65, 0
4, 132384, Note_off_c, 2, 60, 0
4, 132384, Note_off_c, 2, 53, 0
4, 132384, Note_on_c, 2, 69, 110
4, 132387, Note_on_c, 2, 65, 110
4, 132390, Note_on_c, 2, 60, 110
4, 132393, Note_on_c, 2, 53, 110
4, 132576, Note_off_c, 2, 53, 0
4, 132576, Note_off_c, 2, 60, 0
4, 132576, Note_off_c, 2, 65, 0
4, 132576, Note_off_c, 2, 69, 0
4, 132576, Note_on_c, 2, 53, 110
4, 132579, Note_on_c, 2, 60, 110
4, 132582, Note_on_c, 2, 65, 110
4, 132585, Note_on_c, 2, 69, 110
4, 132672, Note_off_c, 2, 69, 0
4, 132672, Note_off_c, 2, 65, 0
4, 132672, Note_off_c, 2, 60, 0
4, 132672, Note_off_c, 2, 53, 0
4, 132672, Note_on_c, 2, 53, 110
4, 132672, Note_on_c, 2, 60, 110
4, 132672, Note_on_c, 2, 65, 110
4, 132672, Note_on_c, 2, 69, 110
4, 132864, Note_off_c, 2, 69, 0
4, 132864, Note_off_c, 2, 65, 0
4, 132864, Note_off_c, 2, 60, 0
4, 132864, Note_off_c, 2, 53, 0
4, 132864, Note_on_c, 2, 70, 110
4, 132867, Note_on_c, 2, 65, 110
4, 132870, Note_on_c, 2, 60, 110
4, 132873, Note_on_c, 2, 53, 110
4, 132960, Note_off_c, 2, 53, 0
4, 132960, Note_off_c, 2, 60, 0
4, 132960, Note_off_c, 2, 65, 0
4, 132960, Note_off_c, 2, 70, 0
4, 132960, Note_on_c, 2, 53, 110
4, 132963, Note_on_c, 2, 60, 110
4, 132966, Note_on_c, 2, 65, 110
4, 132969, Note_on_c, 2, 70, 110
4, 133056, Note_off_c, 2, 70, 0
4, 133056, Note_off_c, 2, 65, 0
4, 133056, Note_off_c, 2, 60, 0
4, 133056, Note_off_c, 2, 53, 0
4, 133056, Note_on_c, 2, 70, 110
4, 133059, Note_on_c, 2, 65, 110
4, 133062, Note_on_c, 2, 60, 110
4, 133065, Note_on_c, 2, 53, 110
4, 133152, Note_off_c, 2, 53, 0
4, 133152, Note_off_c, 2, 60, 0
4, 133152, Note_off_c, 2, 65, 0
4, 133152, Note_off_c, 2, 70, 0
4, 133152, Note_on_c, 2, 53, 110
4, 133155, Note_on_c, 2, 60, 110
4, 133158, Note_on_c, 2, 65, 110
4, 133161, Note_on_c, 2, 69, 110
4, 133248, Note_off_c, 2, 69, 0
4, 133248, Note_off_c, 2, 65, 0
4, 133248, Note_off_c, 2, 60, 0
4, 133248, Note_off_c, 2, 53, 0
4, 133248, Note_on_c, 2, 69, 110
4, 133251, Note_on_c, 2, 65, 110
4, 133254, Note_on_c, 2, 60, 110
4, 133257, Note_on_c, 2, 53, 110
4, 133440, Note_off_c, 2, 53, 0
4, 133440, Note_off_c, 2, 60, 0
4, 133440, Note_off_c, 2, 65, 0
4, 133440, Note_off_c, 2, 69, 0
4, 133440, Note_on_c, 2, 53, 110
4, 133443, Note_on_c, 2, 60, 110
4, 133446, Note_on_c, 2, 65, 110
4, 133449, Note_on_c, 2, 69, 110
4, 133632, Note_off_c, 2, 69, 0
4, 133632, Note_off_c, 2, 65, 0
4, 133632, Note_off_c, 2, 60, 0
4, 133632, Note_off_c, 2, 53, 0
4, 133632, Note_on_c, 2, 67, 110
4, 133635, Note_on_c, 2, 62, 110
4, 133638, Note_on_c, 2, 58, 110
4, 133641, Note_on_c, 2, 55, 110
4, 133644, Note_on_c, 2, 50, 110
4, 133648, Note_on_c, 2, 43, 110
4, 133824, Note_off_c, 2, 43, 0
4, 133824, Note_off_c, 2, 50, 0
4, 133824, Note_off_c, 2, 55, 0
4, 133824, Note_off_c, 2, 58, 0
4, 133824, Note_off_c, 2, 62, 0
4, 133824, Note_off_c, 2, 67, 0
4, 133824, Note_on_c, 2, 43, 110
4, 133827, Note_on_c, 2, 50, 110
4, 133830, Note_on_c, 2, 55, 110
4, 133833, Note_on_c, 2, 58, 110
4, 133836, Note_on_c, 2, 62, 110
4, 133840, Note_on_c, 2, 67, 110
4, 133920, Note_off_c, 2, 67, 0
4, 133920, Note_off_c, 2, 62, 0
4, 133920, Note_off_c, 2, 58, 0
4, 133920, Note_off_c, 2, 55, 0
4, 133920, Note_off_c, 2, 50, 0
4, 133920, Note_off_c, 2, 43, 0
4, 133920, Note_on_c, 2, 67, 110
4, 133923, Note_on_c, 2, 62, 110
4, 133924, Note_on_c, 2, 58, 110
4, 133929, Note_on_c, 2, 55, 110
4, 133932, Note_on_c, 2, 50, 110
4, 133936, Note_on_c, 2, 43, 110
4, 134016, Note_off_c, 2, 43, 0
4, 134016, Note_off_c, 2, 50, 0
4, 134016, Note_off_c, 2, 55, 0
4, 134016, Note_off_c, 2, 58, 0
4, 134016, Note_off_c, 2, 62, 0
4, 134016, Note_off_c, 2, 67, 0
4, 134016, Note_on_c, 2, 67, 110
4, 134019, Note_on_c, 2, 62, 110
4, 134022, Note_on_c, 2, 58, 110
4, 134025, Note_on_c, 2, 55, 110
4, 134028, Note_on_c, 2, 50, 110
4, 134032, Note_on_c, 2, 43, 110
4, 134208, Note_off_c, 2, 43, 0
4, 134208, Note_off_c, 2, 50, 0
4, 134208, Note_off_c, 2, 55, 0
4, 134208, Note_off_c, 2, 58, 0
4, 134208, Note_off_c, 2, 62, 0
4, 134208, Note_off_c, 2, 67, 0
4, 134208, Note_on_c, 2, 43, 110
4, 134211, Note_on_c, 2, 50, 110
4, 134214, Note_on_c, 2, 55, 110
4, 134217, Note_on_c, 2, 58, 110
4, 134220, Note_on_c, 2, 62, 110
4, 134224, Note_on_c, 2, 67, 110
4, 134304, Note_off_c, 2, 67, 0
4, 134304, Note_off_c, 2, 62, 0
4, 134304, Note_off_c, 2, 58, 0
4, 134304, Note_off_c, 2, 55, 0
4, 134304, Note_off_c, 2, 50, 0
4, 134304, Note_off_c, 2, 43, 0
4, 134304, Note_on_c, 2, 67, 110
4, 134307, Note_on_c, 2, 62, 110
4, 134308, Note_on_c, 2, 58, 110
4, 134313, Note_on_c, 2, 55, 110
4, 134316, Note_on_c, 2, 50, 110
4, 134320, Note_on_c, 2, 43, 110
4, 134400, Note_off_c, 2, 43, 0
4, 134400, Note_off_c, 2, 50, 0
4, 134400, Note_off_c, 2, 55, 0
4, 134400, Note_off_c, 2, 58, 0
4, 134400, Note_off_c, 2, 62, 0
4, 134400, Note_off_c, 2, 67, 0
4, 134400, Note_on_c, 2, 69, 110
4, 134403, Note_on_c, 2, 65, 110
4, 134406, Note_on_c, 2, 60, 110
4, 134409, Note_on_c, 2, 53, 110
4, 134592, Note_off_c, 2, 53, 0
4, 134592, Note_off_c, 2, 60, 0
4, 134592, Note_off_c, 2, 65, 0
4, 134592, Note_off_c, 2, 69, 0
4, 134592, Note_on_c, 2, 53, 110
4, 134595, Note_on_c, 2, 60, 110
4, 134598, Note_on_c, 2, 65, 110
4, 134601, Note_on_c, 2, 69, 110
4, 134688, Note_off_c, 2, 69, 0
4, 134688, Note_off_c, 2, 65, 0
4, 134688, Note_off_c, 2, 60, 0
4, 134688, Note_off_c, 2, 53, 0
4, 134688, Note_on_c, 2, 69, 110
4, 134691, Note_on_c, 2, 65, 110
4, 134694, Note_on_c, 2, 60, 110
4, 134697, Note_on_c, 2, 53, 110
4, 134784, Note_off_c, 2, 53, 0
4, 134784, Note_off_c, 2, 60, 0
4, 134784, Note_off_c, 2, 65, 0
4, 134784, Note_off_c, 2, 69, 0
4, 134784, Note_on_c, 2, 53, 110
4, 134787, Note_on_c, 2, 58, 110
4, 134790, Note_on_c, 2, 65, 110
4, 134793, Note_on_c, 2, 67, 110
4, 134880, Note_off_c, 2, 67, 0
4, 134880, Note_off_c, 2, 65, 0
4, 134880, Note_off_c, 2, 58, 0
4, 134880, Note_off_c, 2, 53, 0
4, 134880, Note_on_c, 2, 69, 110
4, 134883, Note_on_c, 2, 65, 110
4, 134886, Note_on_c, 2, 60, 110
4, 134889, Note_on_c, 2, 53, 110
4, 134976, Note_off_c, 2, 53, 0
4, 134976, Note_off_c, 2, 60, 0
4, 134976, Note_off_c, 2, 65, 0
4, 134976, Note_off_c, 2, 69, 0
4, 134976, Note_on_c, 2, 53, 110
4, 134979, Note_on_c, 2, 60, 110
4, 134982, Note_on_c, 2, 65, 110
4, 134985, Note_on_c, 2, 69, 110
4, 135072, Note_off_c, 2, 69, 0
4, 135072, Note_off_c, 2, 65, 0
4, 135072, Note_off_c, 2, 60, 0
4, 135072, Note_off_c, 2, 53, 0
4, 135072, Note_on_c, 2, 67, 110
4, 135075, Note_on_c, 2, 65, 110
4, 135078, Note_on_c, 2, 58, 110
4, 135081, Note_on_c, 2, 53, 110
4, 135168, Note_off_c, 2, 53, 0
4, 135168, Note_off_c, 2, 58, 0
4, 135168, Note_off_c, 2, 65, 0
4, 135168, Note_off_c, 2, 67, 0
4, 135168, Note_on_c, 2, 69, 110
4, 135171, Note_on_c, 2, 65, 110
4, 135174, Note_on_c, 2, 60, 110
4, 135177, Note_on_c, 2, 53, 110
4, 135360, Note_off_c, 2, 53, 0
4, 135360, Note_off_c, 2, 60, 0
4, 135360, Note_off_c, 2, 65, 0
4, 135360, Note_off_c, 2, 69, 0
4, 135360, Note_on_c, 2, 53, 110
4, 135363, Note_on_c, 2, 60, 110
4, 135366, Note_on_c, 2, 65, 110
4, 135369, Note_on_c, 2, 69, 110
4, 135456, Note_off_c, 2, 69, 0
4, 135456, Note_off_c, 2, 65, 0
4, 135456, Note_off_c, 2, 60, 0
4, 135456, Note_off_c, 2, 53, 0
4, 135456, Note_on_c, 2, 69, 110
4, 135459, Note_on_c, 2, 65, 110
4, 135462, Note_on_c, 2, 60, 110
4, 135465, Note_on_c, 2, 53, 110
4, 135552, Note_off_c, 2, 53, 0
4, 135552, Note_off_c, 2, 60, 0
4, 135552, Note_off_c, 2, 65, 0
4, 135552, Note_off_c, 2, 69, 0
4, 135552, Note_on_c, 2, 69, 110
4, 135552, Note_on_c, 2, 60, 110
4, 135552, Note_on_c, 2, 53, 110
4, 135558, Note_on_c, 2, 65, 110
4, 135638, Note_off_c, 2, 69, 0
4, 135644, Note_off_c, 2, 60, 0
4, 135648, Note_off_c, 2, 53, 0
4, 135648, Note_off_c, 2, 65, 0
4, 135648, Note_on_c, 2, 70, 110
4, 135651, Note_on_c, 2, 65, 110
4, 135654, Note_on_c, 2, 60, 110
4, 135657, Note_on_c, 2, 53, 110
4, 135744, Note_off_c, 2, 53, 0
4, 135744, Note_off_c, 2, 60, 0
4, 135744, Note_off_c, 2, 65, 0
4, 135744, Note_off_c, 2, 70, 0
4, 135744, Note_on_c, 2, 53, 110
4, 135747, Note_on_c, 2, 60, 110
4, 135750, Note_on_c, 2, 65, 110
4, 135753, Note_on_c, 2, 69, 110
4, 135840, Note_off_c, 2, 69, 0
4, 135840, Note_off_c, 2, 65, 0
4, 135840, Note_off_c, 2, 60, 0
4, 135840, Note_off_c, 2, 53, 0
4, 135840, Note_on_c, 2, 67, 110
4, 135843, Note_on_c, 2, 65, 110
4, 135846, Note_on_c, 2, 58, 110
4, 135849, Note_on_c, 2, 53, 110
4, 135936, Note_off_c, 2, 53, 0
4, 135936, Note_off_c, 2, 58, 0
4, 135936, Note_off_c, 2, 65, 0
4, 135936, Note_off_c, 2, 67, 0
4, 135936, Note_on_c, 2, 67, 110
4, 135939, Note_on_c, 2, 64, 110
4, 135942, Note_on_c, 2, 60, 110
4, 135945, Note_on_c, 2, 55, 110
4, 135948, Note_on_c, 2, 48, 110
4, 136128, Note_off_c, 2, 48, 0
4, 136128, Note_off_c, 2, 55, 0
4, 136128, Note_off_c, 2, 60, 0
4, 136128, Note_off_c, 2, 64, 0
4, 136128, Note_off_c, 2, 67, 0
4, 136128, Note_on_c, 2, 48, 110
4, 136131, Note_on_c, 2, 55, 110
4, 136134, Note_on_c, 2, 60, 110
4, 136137, Note_on_c, 2, 64, 110
4, 136140, Note_on_c, 2, 67, 110
4, 136224, Note_off_c, 2, 67, 0
4, 136224, Note_off_c, 2, 64, 0
4, 136224, Note_off_c, 2, 60, 0
4, 136224, Note_off_c, 2, 55, 0
4, 136224, Note_off_c, 2, 48, 0
4, 136224, Note_on_c, 2, 67, 110
4, 136227, Note_on_c, 2, 64, 110
4, 136230, Note_on_c, 2, 60, 110
4, 136233, Note_on_c, 2, 55, 110
4, 136236, Note_on_c, 2, 48, 110
4, 136320, Note_off_c, 2, 48, 0
4, 136320, Note_off_c, 2, 55, 0
4, 136320, Note_off_c, 2, 60, 0
4, 136320, Note_off_c, 2, 64, 0
4, 136320, Note_off_c, 2, 67, 0
4, 136320, Note_on_c, 2, 48, 110
4, 136323, Note_on_c, 2, 55, 110
4, 136326, Note_on_c, 2, 60, 110
4, 136329, Note_on_c, 2, 64, 110
4, 136332, Note_on_c, 2, 67, 110
4, 136416, Note_off_c, 2, 67, 0
4, 136416, Note_off_c, 2, 64, 0
4, 136416, Note_off_c, 2, 60, 0
4, 136416, Note_off_c, 2, 55, 0
4, 136416, Note_off_c, 2, 48, 0
4, 136416, Note_on_c, 2, 67, 110
4, 136419, Note_on_c, 2, 64, 110
4, 136422, Note_on_c, 2, 60, 110
4, 136425, Note_on_c, 2, 55, 110
4, 136428, Note_on_c, 2, 48, 110
4, 136512, Note_off_c, 2, 48, 0
4, 136512, Note_off_c, 2, 55, 0
4, 136512, Note_off_c, 2, 60, 0
4, 136512, Note_off_c, 2, 64, 0
4, 136512, Note_off_c, 2, 67, 0
4, 136512, Note_on_c, 2, 48, 110
4, 136515, Note_on_c, 2, 55, 110
4, 136518, Note_on_c, 2, 60, 110
4, 136521, Note_on_c, 2, 64, 110
4, 136524, Note_on_c, 2, 67, 110
4, 136608, Note_off_c, 2, 67, 0
4, 136608, Note_off_c, 2, 64, 0
4, 136608, Note_off_c, 2, 60, 0
4, 136608, Note_off_c, 2, 55, 0
4, 136608, Note_off_c, 2, 48, 0
4, 136608, Note_on_c, 2, 67, 110
4, 136611, Note_on_c, 2, 64, 110
4, 136614, Note_on_c, 2, 60, 110
4, 136617, Note_on_c, 2, 55, 110
4, 136620, Note_on_c, 2, 48, 110
4, 136704, Note_off_c, 2, 48, 0
4, 136704, Note_off_c, 2, 55, 0
4, 136704, Note_off_c, 2, 60, 0
4, 136704, Note_off_c, 2, 64, 0
4, 136704, Note_off_c, 2, 67, 0
4, 136704, Note_on_c, 2, 63, 110
4, 136704, Note_on_c, 2, 67, 110
4, 136710, Note_on_c, 2, 60, 110
4, 136713, Note_on_c, 2, 55, 110
4, 136716, Note_on_c, 2, 48, 110
4, 136892, Note_off_c, 2, 63, 0
4, 136896, Note_off_c, 2, 67, 0
4, 136896, Note_off_c, 2, 60, 0
4, 136896, Note_off_c, 2, 55, 0
4, 136896, Note_off_c, 2, 48, 0
4, 136896, Note_on_c, 2, 63, 110
4, 136896, Note_on_c, 2, 48, 110
4, 136899, Note_on_c, 2, 55, 110
4, 136902, Note_on_c, 2, 60, 110
4, 136908, Note_on_c, 2, 67, 110
4, 136982, Note_off_c, 2, 63, 0
4, 136992, Note_off_c, 2, 48, 0
4, 136992, Note_off_c, 2, 55, 0
4, 136992, Note_off_c, 2, 60, 0
4, 136992, Note_off_c, 2, 67, 0
4, 136992, Note_on_c, 2, 63, 110
4, 136992, Note_on_c, 2, 67, 110
4, 136998, Note_on_c, 2, 60, 110
4, 137001, Note_on_c, 2, 55, 110
4, 137004, Note_on_c, 2, 48, 110
4, 137084, Note_off_c, 2, 63, 0
4, 137088, Note_off_c, 2, 67, 0
4, 137088, Note_off_c, 2, 60, 0
4, 137088, Note_off_c, 2, 55, 0
4, 137088, Note_off_c, 2, 48, 0
4, 137088, Note_on_c, 2, 63, 110
4, 137088, Note_on_c, 2, 48, 110
4, 137091, Note_on_c, 2, 55, 110
4, 137094, Note_on_c, 2, 60, 110
4, 137100, Note_on_c, 2, 67, 110
4, 137174, Note_off_c, 2, 63, 0
4, 137184, Note_off_c, 2, 48, 0
4, 137184, Note_off_c, 2, 55, 0
4, 137184, Note_off_c, 2, 60, 0
4, 137184, Note_off_c, 2, 67, 0
4, 137184, Note_on_c, 2, 63, 110
4, 137184, Note_on_c, 2, 67, 110
4, 137190, Note_on_c, 2, 60, 110
4, 137193, Note_on_c, 2, 55, 110
4, 137196, Note_on_c, 2, 48, 110
4, 137276, Note_off_c, 2, 63, 0
4, 137280, Note_off_c, 2, 67, 0
4, 137280, Note_off_c, 2, 60, 0
4, 137280, Note_off_c, 2, 55, 0
4, 137280, Note_off_c, 2, 48, 0
4, 137280, Note_on_c, 2, 62, 110
4, 137280, Note_on_c, 2, 48, 110
4, 137283, Note_on_c, 2, 55, 110
4, 137286, Note_on_c, 2, 60, 110
4, 137292, Note_on_c, 2, 67, 110
4, 137366, Note_off_c, 2, 62, 0
4, 137376, Note_off_c, 2, 48, 0
4, 137376, Note_off_c, 2, 55, 0
4, 137376, Note_off_c, 2, 60, 0
4, 137376, Note_off_c, 2, 67, 0
4, 137376, Note_on_c, 2, 63, 110
4, 137376, Note_on_c, 2, 67, 110
4, 137382, Note_on_c, 2, 60, 110
4, 137385, Note_on_c, 2, 55, 110
4, 137388, Note_on_c, 2, 48, 110
4, 137468, Note_off_c, 2, 63, 0
4, 137472, Note_off_c, 2, 67, 0
4, 137472, Note_off_c, 2, 60, 0
4, 137472, Note_off_c, 2, 55, 0
4, 137472, Note_off_c, 2, 48, 0
4, 137472, Note_on_c, 2, 67, 110
4, 137475, Note_on_c, 2, 62, 110
4, 137478, Note_on_c, 2, 58, 110
4, 137481, Note_on_c, 2, 55, 110
4, 137484, Note_on_c, 2, 50, 110
4, 137488, Note_on_c, 2, 43, 110
4, 137664, Note_off_c, 2, 43, 0
4, 137664, Note_off_c, 2, 50, 0
4, 137664, Note_off_c, 2, 55, 0
4, 137664, Note_off_c, 2, 58, 0
4, 137664, Note_off_c, 2, 62, 0
4, 137664, Note_off_c, 2, 67, 0
4, 137664, Note_on_c, 2, 43, 110
4, 137667, Note_on_c, 2, 50, 110
4, 137670, Note_on_c, 2, 55, 110
4, 137673, Note_on_c, 2, 58, 110
4, 137676, Note_on_c, 2, 62, 110
4, 137680, Note_on_c, 2, 67, 110
4, 137760, Note_off_c, 2, 67, 0
4, 137760, Note_off_c, 2, 62, 0
4, 137760, Note_off_c, 2, 58, 0
4, 137760, Note_off_c, 2, 55, 0
4, 137760, Note_off_c, 2, 50, 0
4, 137760, Note_off_c, 2, 43, 0
4, 137760, Note_on_c, 2, 67, 110
4, 137763, Note_on_c, 2, 62, 110
4, 137764, Note_on_c, 2, 58, 110
4, 137769, Note_on_c, 2, 55, 110
4, 137772, Note_on_c, 2, 50, 110
4, 137776, Note_on_c, 2, 43, 110
4, 137856, Note_off_c, 2, 43, 0
4, 137856, Note_off_c, 2, 50, 0
4, 137856, Note_off_c, 2, 55, 0
4, 137856, Note_off_c, 2, 58, 0
4, 137856, Note_off_c, 2, 62, 0
4, 137856, Note_off_c, 2, 67, 0
4, 137856, Note_on_c, 2, 67, 110
4, 137859, Note_on_c, 2, 62, 110
4, 137862, Note_on_c, 2, 58, 110
4, 137865, Note_on_c, 2, 55, 110
4, 137868, Note_on_c, 2, 50, 110
4, 137872, Note_on_c, 2, 43, 110
4, 138048, Note_off_c, 2, 43, 0
4, 138048, Note_off_c, 2, 50, 0
4, 138048, Note_off_c, 2, 55, 0
4, 138048, Note_off_c, 2, 58, 0
4, 138048, Note_off_c, 2, 62, 0
4, 138048, Note_off_c, 2, 67, 0
4, 138048, Note_on_c, 2, 43, 110
4, 138051, Note_on_c, 2, 50, 110
4, 138054, Note_on_c, 2, 55, 110
4, 138057, Note_on_c, 2, 58, 110
4, 138060, Note_on_c, 2, 62, 110
4, 138064, Note_on_c, 2, 67, 110
4, 138144, Note_off_c, 2, 67, 0
4, 138144, Note_off_c, 2, 62, 0
4, 138144, Note_off_c, 2, 58, 0
4, 138144, Note_off_c, 2, 55, 0
4, 138144, Note_off_c, 2, 50, 0
4, 138144, Note_off_c, 2, 43, 0
4, 138144, Note_on_c, 2, 67, 110
4, 138147, Note_on_c, 2, 62, 110
4, 138148, Note_on_c, 2, 58, 110
4, 138153, Note_on_c, 2, 55, 110
4, 138156, Note_on_c, 2, 50, 110
4, 138160, Note_on_c, 2, 43, 110
4, 138240, Note_off_c, 2, 43, 0
4, 138240, Note_off_c, 2, 50, 0
4, 138240, Note_off_c, 2, 55, 0
4, 138240, Note_off_c, 2, 58, 0
4, 138240, Note_off_c, 2, 62, 0
4, 138240, Note_off_c, 2, 67, 0
4, 138240, Note_on_c, 2, 69, 110
4, 138243, Note_on_c, 2, 65, 110
4, 138246, Note_on_c, 2, 60, 110
4, 138249, Note_on_c, 2, 53, 110
4, 138432, Note_off_c, 2, 53, 0
4, 138432, Note_off_c, 2, 60, 0
4, 138432, Note_off_c, 2, 65, 0
4, 138432, Note_off_c, 2, 69, 0
4, 138432, Note_on_c, 2, 53, 110
4, 138435, Note_on_c, 2, 60, 110
4, 138438, Note_on_c, 2, 65, 110
4, 138441, Note_on_c, 2, 69, 110
4, 138528, Note_off_c, 2, 69, 0
4, 138528, Note_off_c, 2, 65, 0
4, 138528, Note_off_c, 2, 60, 0
4, 138528, Note_off_c, 2, 53, 0
4, 138528, Note_on_c, 2, 69, 110
4, 138531, Note_on_c, 2, 65, 110
4, 138534, Note_on_c, 2, 60, 110
4, 138537, Note_on_c, 2, 53, 110
4, 138624, Note_off_c, 2, 53, 0
4, 138624, Note_off_c, 2, 60, 0
4, 138624, Note_off_c, 2, 65, 0
4, 138624, Note_off_c, 2, 69, 0
4, 138624, Note_on_c, 2, 53, 110
4, 138627, Note_on_c, 2, 58, 110
4, 138630, Note_on_c, 2, 65, 110
4, 138633, Note_on_c, 2, 67, 110
4, 138720, Note_off_c, 2, 67, 0
4, 138720, Note_off_c, 2, 65, 0
4, 138720, Note_off_c, 2, 58, 0
4, 138720, Note_off_c, 2, 53, 0
4, 138720, Note_on_c, 2, 69, 110
4, 138723, Note_on_c, 2, 65, 110
4, 138726, Note_on_c, 2, 60, 110
4, 138729, Note_on_c, 2, 53, 110
4, 138816, Note_off_c, 2, 53, 0
4, 138816, Note_off_c, 2, 60, 0
4, 138816, Note_off_c, 2, 65, 0
4, 138816, Note_off_c, 2, 69, 0
4, 138816, Note_on_c, 2, 53, 110
4, 138819, Note_on_c, 2, 60, 110
4, 138822, Note_on_c, 2, 65, 110
4, 138825, Note_on_c, 2, 69, 110
4, 138912, Note_off_c, 2, 69, 0
4, 138912, Note_off_c, 2, 65, 0
4, 138912, Note_off_c, 2, 60, 0
4, 138912, Note_off_c, 2, 53, 0
4, 138912, Note_on_c, 2, 67, 110
4, 138915, Note_on_c, 2, 65, 110
4, 138918, Note_on_c, 2, 58, 110
4, 138921, Note_on_c, 2, 53, 110
4, 139008, Note_off_c, 2, 53, 0
4, 139008, Note_off_c, 2, 58, 0
4, 139008, Note_off_c, 2, 65, 0
4, 139008, Note_off_c, 2, 67, 0
4, 139008, Note_on_c, 2, 69, 110
4, 139011, Note_on_c, 2, 65, 110
4, 139014, Note_on_c, 2, 60, 110
4, 139017, Note_on_c, 2, 53, 110
4, 139200, Note_off_c, 2, 53, 0
4, 139200, Note_off_c, 2, 60, 0
4, 139200, Note_off_c, 2, 65, 0
4, 139200, Note_off_c, 2, 69, 0
4, 139200, Note_on_c, 2, 53, 110
4, 139203, Note_on_c, 2, 60, 110
4, 139206, Note_on_c, 2, 65, 110
4, 139209, Note_on_c, 2, 69, 110
4, 139296, Note_off_c, 2, 69, 0
4, 139296, Note_off_c, 2, 65, 0
4, 139296, Note_off_c, 2, 60, 0
4, 139296, Note_off_c, 2, 53, 0
4, 139296, Note_on_c, 2, 69, 110
4, 139299, Note_on_c, 2, 65, 110
4, 139302, Note_on_c, 2, 60, 110
4, 139305, Note_on_c, 2, 53, 110
4, 139392, Note_off_c, 2, 53, 0
4, 139392, Note_off_c, 2, 60, 0
4, 139392, Note_off_c, 2, 65, 0
4, 139392, Note_off_c, 2, 69, 0
4, 139392, Note_on_c, 2, 69, 110
4, 139392, Note_on_c, 2, 60, 110
4, 139392, Note_on_c, 2, 53, 110
4, 139398, Note_on_c, 2, 65, 110
4, 139478, Note_off_c, 2, 69, 0
4, 139484, Note_off_c, 2, 60, 0
4, 139488, Note_off_c, 2, 53, 0
4, 139488, Note_off_c, 2, 65, 0
4, 139488, Note_on_c, 2, 70, 110
4, 139491, Note_on_c, 2, 65, 110
4, 139494, Note_on_c, 2, 60, 110
4, 139497, Note_on_c, 2, 53, 110
4, 139584, Note_off_c, 2, 53, 0
4, 139584, Note_off_c, 2, 60, 0
4, 139584, Note_off_c, 2, 65, 0
4, 139584, Note_off_c, 2, 70, 0
4, 139584, Note_on_c, 2, 53, 110
4, 139587, Note_on_c, 2, 60, 110
4, 139590, Note_on_c, 2, 65, 110
4, 139593, Note_on_c, 2, 69, 110
4, 139680, Note_off_c, 2, 69, 0
4, 139680, Note_off_c, 2, 65, 0
4, 139680, Note_off_c, 2, 60, 0
4, 139680, Note_off_c, 2, 53, 0
4, 139680, Note_on_c, 2, 67, 110
4, 139683, Note_on_c, 2, 65, 110
4, 139686, Note_on_c, 2, 58, 110
4, 139689, Note_on_c, 2, 53, 110
4, 139776, Note_off_c, 2, 53, 0
4, 139776, Note_off_c, 2, 58, 0
4, 139776, Note_off_c, 2, 65, 0
4, 139776, Note_off_c, 2, 67, 0
4, 139776, Note_on_c, 2, 67, 110
4, 139779, Note_on_c, 2, 62, 110
4, 139782, Note_on_c, 2, 58, 110
4, 139785, Note_on_c, 2, 55, 110
4, 139788, Note_on_c, 2, 50, 110
4, 139792, Note_on_c, 2, 43, 110
4, 139968, Note_off_c, 2, 43, 0
4, 139968, Note_off_c, 2, 50, 0
4, 139968, Note_off_c, 2, 55, 0
4, 139968, Note_off_c, 2, 58, 0
4, 139968, Note_off_c, 2, 62, 0
4, 139968, Note_off_c, 2, 67, 0
4, 139968, Note_on_c, 2, 43, 110
4, 139971, Note_on_c, 2, 50, 110
4, 139974, Note_on_c, 2, 55, 110
4, 139977, Note_on_c, 2, 58, 110
4, 139980, Note_on_c, 2, 62, 110
4, 139984, Note_on_c, 2, 67, 110
4, 140064, Note_off_c, 2, 67, 0
4, 140064, Note_off_c, 2, 62, 0
4, 140064, Note_off_c, 2, 58, 0
4, 140064, Note_off_c, 2, 55, 0
4, 140064, Note_off_c, 2, 50, 0
4, 140064, Note_off_c, 2, 43, 0
4, 140064, Note_on_c, 2, 67, 110
4, 140067, Note_on_c, 2, 62, 110
4, 140068, Note_on_c, 2, 58, 110
4, 140073, Note_on_c, 2, 55, 110
4, 140076, Note_on_c, 2, 50, 110
4, 140080, Note_on_c, 2, 43, 110
4, 140160, Note_off_c, 2, 43, 0
4, 140160, Note_off_c, 2, 50, 0
4, 140160, Note_off_c, 2, 55, 0
4, 140160, Note_off_c, 2, 58, 0
4, 140160, Note_off_c, 2, 62, 0
4, 140160, Note_off_c, 2, 67, 0
4, 140160, Note_on_c, 2, 67, 110
4, 140163, Note_on_c, 2, 62, 110
4, 140166, Note_on_c, 2, 58, 110
4, 140169, Note_on_c, 2, 55, 110
4, 140172, Note_on_c, 2, 50, 110
4, 140176, Note_on_c, 2, 43, 110
4, 140352, Note_off_c, 2, 43, 0
4, 140352, Note_off_c, 2, 50, 0
4, 140352, Note_off_c, 2, 55, 0
4, 140352, Note_off_c, 2, 58, 0
4, 140352, Note_off_c, 2, 62, 0
4, 140352, Note_off_c, 2, 67, 0
4, 140352, Note_on_c, 2, 43, 110
4, 140355, Note_on_c, 2, 50, 110
4, 140358, Note_on_c, 2, 55, 110
4, 140361, Note_on_c, 2, 58, 110
4, 140364, Note_on_c, 2, 62, 110
4, 140368, Note_on_c, 2, 67, 110
4, 140448, Note_off_c, 2, 67, 0
4, 140448, Note_off_c, 2, 62, 0
4, 140448, Note_off_c, 2, 58, 0
4, 140448, Note_off_c, 2, 55, 0
4, 140448, Note_off_c, 2, 50, 0
4, 140448, Note_off_c, 2, 43, 0
4, 140448, Note_on_c, 2, 67, 110
4, 140451, Note_on_c, 2, 62, 110
4, 140452, Note_on_c, 2, 58, 110
4, 140457, Note_on_c, 2, 55, 110
4, 140460, Note_on_c, 2, 50, 110
4, 140464, Note_on_c, 2, 43, 110
4, 140544, Note_off_c, 2, 43, 0
4, 140544, Note_off_c, 2, 50, 0
4, 140544, Note_off_c, 2, 55, 0
4, 140544, Note_off_c, 2, 58, 0
4, 140544, Note_off_c, 2, 62, 0
4, 140544, Note_off_c, 2, 67, 0
4, 140544, Note_on_c, 2, 69, 110
4, 140547, Note_on_c, 2, 65, 110
4, 140550, Note_on_c, 2, 60, 110
4, 140553, Note_on_c, 2, 53, 110
4, 140736, Note_off_c, 2, 53, 0
4, 140736, Note_off_c, 2, 60, 0
4, 140736, Note_off_c, 2, 65, 0
4, 140736, Note_off_c, 2, 69, 0
4, 140736, Note_on_c, 2, 53, 110
4, 140739, Note_on_c, 2, 60, 110
4, 140742, Note_on_c, 2, 65, 110
4, 140745, Note_on_c, 2, 69, 110
4, 140832, Note_off_c, 2, 69, 0
4, 140832, Note_off_c, 2, 65, 0
4, 140832, Note_off_c, 2, 60, 0
4, 140832, Note_off_c, 2, 53, 0
4, 140832, Note_on_c, 2, 69, 110
4, 140835, Note_on_c, 2, 65, 110
4, 140838, Note_on_c, 2, 60, 110
4, 140841, Note_on_c, 2, 53, 110
4, 140928, Note_off_c, 2, 53, 0
4, 140928, Note_off_c, 2, 60, 0
4, 140928, Note_off_c, 2, 65, 0
4, 140928, Note_off_c, 2, 69, 0
4, 140928, Note_on_c, 2, 53, 110
4, 140931, Note_on_c, 2, 58, 110
4, 140934, Note_on_c, 2, 65, 110
4, 140937, Note_on_c, 2, 67, 110
4, 141024, Note_off_c, 2, 67, 0
4, 141024, Note_off_c, 2, 65, 0
4, 141024, Note_off_c, 2, 58, 0
4, 141024, Note_off_c, 2, 53, 0
4, 141024, Note_on_c, 2, 69, 110
4, 141027, Note_on_c, 2, 65, 110
4, 141030, Note_on_c, 2, 60, 110
4, 141033, Note_on_c, 2, 53, 110
4, 141120, Note_off_c, 2, 53, 0
4, 141120, Note_off_c, 2, 60, 0
4, 141120, Note_off_c, 2, 65, 0
4, 141120, Note_off_c, 2, 69, 0
4, 141120, Note_on_c, 2, 53, 110
4, 141123, Note_on_c, 2, 60, 110
4, 141126, Note_on_c, 2, 65, 110
4, 141129, Note_on_c, 2, 69, 110
4, 141216, Note_off_c, 2, 69, 0
4, 141216, Note_off_c, 2, 65, 0
4, 141216, Note_off_c, 2, 60, 0
4, 141216, Note_off_c, 2, 53, 0
4, 141216, Note_on_c, 2, 67, 110
4, 141219, Note_on_c, 2, 65, 110
4, 141222, Note_on_c, 2, 58, 110
4, 141225, Note_on_c, 2, 53, 110
4, 141312, Note_off_c, 2, 53, 0
4, 141312, Note_off_c, 2, 58, 0
4, 141312, Note_off_c, 2, 65, 0
4, 141312, Note_off_c, 2, 67, 0
4, 141312, Note_on_c, 2, 69, 110
4, 141315, Note_on_c, 2, 65, 110
4, 141318, Note_on_c, 2, 60, 110
4, 141321, Note_on_c, 2, 53, 110
4, 141504, Note_off_c, 2, 53, 0
4, 141504, Note_off_c, 2, 60, 0
4, 141504, Note_off_c, 2, 65, 0
4, 141504, Note_off_c, 2, 69, 0
4, 141504, Note_on_c, 2, 53, 110
4, 141507, Note_on_c, 2, 60, 110
4, 141510, Note_on_c, 2, 65, 110
4, 141513, Note_on_c, 2, 69, 110
4, 141600, Note_off_c, 2, 69, 0
4, 141600, Note_off_c, 2, 65, 0
4, 141600, Note_off_c, 2, 60, 0
4, 141600, Note_off_c, 2, 53, 0
4, 141600, Note_on_c, 2, 69, 110
4, 141603, Note_on_c, 2, 65, 110
4, 141606, Note_on_c, 2, 60, 110
4, 141609, Note_on_c, 2, 53, 110
4, 141696, Note_off_c, 2, 53, 0
4, 141696, Note_off_c, 2, 60, 0
4, 141696, Note_off_c, 2, 65, 0
4, 141696, Note_off_c, 2, 69, 0
4, 141696, Note_on_c, 2, 69, 110
4, 141696, Note_on_c, 2, 60, 110
4, 141696, Note_on_c, 2, 53, 110
4, 141702, Note_on_c, 2, 65, 110
4, 141782, Note_off_c, 2, 69, 0
4, 141788, Note_off_c, 2, 60, 0
4, 141792, Note_off_c, 2, 53, 0
4, 141792, Note_off_c, 2, 65, 0
4, 141792, Note_on_c, 2, 70, 110
4, 141795, Note_on_c, 2, 65, 110
4, 141798, Note_on_c, 2, 60, 110
4, 141801, Note_on_c, 2, 53, 110
4, 141888, Note_off_c, 2, 53, 0
4, 141888, Note_off_c, 2, 60, 0
4, 141888, Note_off_c, 2, 65, 0
4, 141888, Note_off_c, 2, 70, 0
4, 141888, Note_on_c, 2, 53, 110
4, 141891, Note_on_c, 2, 60, 110
4, 141894, Note_on_c, 2, 65, 110
4, 141897, Note_on_c, 2, 69, 110
4, 141984, Note_off_c, 2, 69, 0
4, 141984, Note_off_c, 2, 65, 0
4, 141984, Note_off_c, 2, 60, 0
4, 141984, Note_off_c, 2, 53, 0
4, 141984, Note_on_c, 2, 67, 110
4, 141987, Note_on_c, 2, 65, 110
4, 141990, Note_on_c, 2, 58, 110
4, 141993, Note_on_c, 2, 53, 110
4, 142080, Note_off_c, 2, 53, 0
4, 142080, Note_off_c, 2, 58, 0
4, 142080, Note_off_c, 2, 65, 0
4, 142080, Note_off_c, 2, 67, 0
4, 142080, Note_on_c, 2, 67, 110
4, 142083, Note_on_c, 2, 64, 110
4, 142086, Note_on_c, 2, 60, 110
4, 142089, Note_on_c, 2, 55, 110
4, 142092, Note_on_c, 2, 48, 110
4, 142272, Note_off_c, 2, 48, 0
4, 142272, Note_off_c, 2, 55, 0
4, 142272, Note_off_c, 2, 60, 0
4, 142272, Note_off_c, 2, 64, 0
4, 142272, Note_off_c, 2, 67, 0
4, 142272, Note_on_c, 2, 48, 110
4, 142275, Note_on_c, 2, 55, 110
4, 142278, Note_on_c, 2, 60, 110
4, 142281, Note_on_c, 2, 64, 110
4, 142284, Note_on_c, 2, 67, 110
4, 142368, Note_off_c, 2, 67, 0
4, 142368, Note_off_c, 2, 64, 0
4, 142368, Note_off_c, 2, 60, 0
4, 142368, Note_off_c, 2, 55, 0
4, 142368, Note_off_c, 2, 48, 0
4, 142368, Note_on_c, 2, 67, 110
4, 142371, Note_on_c, 2, 64, 110
4, 142374, Note_on_c, 2, 60, 110
4, 142377, Note_on_c, 2, 55, 110
4, 142380, Note_on_c, 2, 48, 110
4, 142464, Note_off_c, 2, 48, 0
4, 142464, Note_off_c, 2, 55, 0
4, 142464, Note_off_c, 2, 60, 0
4, 142464, Note_off_c, 2, 64, 0
4, 142464, Note_off_c, 2, 67, 0
4, 142464, Note_on_c, 2, 48, 110
4, 142467, Note_on_c, 2, 55, 110
4, 142470, Note_on_c, 2, 60, 110
4, 142473, Note_on_c, 2, 64, 110
4, 142476, Note_on_c, 2, 67, 110
4, 142560, Note_off_c, 2, 67, 0
4, 142560, Note_off_c, 2, 64, 0
4, 142560, Note_off_c, 2, 60, 0
4, 142560, Note_off_c, 2, 55, 0
4, 142560, Note_off_c, 2, 48, 0
4, 142560, Note_on_c, 2, 67, 110
4, 142563, Note_on_c, 2, 64, 110
4, 142566, Note_on_c, 2, 60, 110
4, 142569, Note_on_c, 2, 55, 110
4, 142572, Note_on_c, 2, 48, 110
4, 142656, Note_off_c, 2, 48, 0
4, 142656, Note_off_c, 2, 55, 0
4, 142656, Note_off_c, 2, 60, 0
4, 142656, Note_off_c, 2, 64, 0
4, 142656, Note_off_c, 2, 67, 0
4, 142656, Note_on_c, 2, 48, 110
4, 142659, Note_on_c, 2, 55, 110
4, 142662, Note_on_c, 2, 60, 110
4, 142665, Note_on_c, 2, 64, 110
4, 142668, Note_on_c, 2, 67, 110
4, 142752, Note_off_c, 2, 67, 0
4, 142752, Note_off_c, 2, 64, 0
4, 142752, Note_off_c, 2, 60, 0
4, 142752, Note_off_c, 2, 55, 0
4, 142752, Note_off_c, 2, 48, 0
4, 142752, Note_on_c, 2, 67, 110
4, 142755, Note_on_c, 2, 64, 110
4, 142758, Note_on_c, 2, 60, 110
4, 142761, Note_on_c, 2, 55, 110
4, 142764, Note_on_c, 2, 48, 110
4, 142848, Note_off_c, 2, 48, 0
4, 142848, Note_off_c, 2, 55, 0
4, 142848, Note_off_c, 2, 60, 0
4, 142848, Note_off_c, 2, 64, 0
4, 142848, Note_off_c, 2, 67, 0
4, 142848, Note_on_c, 2, 63, 110
4, 142848, Note_on_c, 2, 67, 110
4, 142854, Note_on_c, 2, 60, 110
4, 142857, Note_on_c, 2, 55, 110
4, 142860, Note_on_c, 2, 48, 110
4, 143036, Note_off_c, 2, 63, 0
4, 143040, Note_off_c, 2, 67, 0
4, 143040, Note_off_c, 2, 60, 0
4, 143040, Note_off_c, 2, 55, 0
4, 143040, Note_off_c, 2, 48, 0
4, 143040, Note_on_c, 2, 63, 110
4, 143040, Note_on_c, 2, 48, 110
4, 143043, Note_on_c, 2, 55, 110
4, 143046, Note_on_c, 2, 60, 110
4, 143052, Note_on_c, 2, 67, 110
4, 143126, Note_off_c, 2, 63, 0
4, 143136, Note_off_c, 2, 48, 0
4, 143136, Note_off_c, 2, 55, 0
4, 143136, Note_off_c, 2, 60, 0
4, 143136, Note_off_c, 2, 67, 0
4, 143136, Note_on_c, 2, 63, 108
4, 143136, Note_on_c, 2, 67, 108
4, 143142, Note_on_c, 2, 60, 108
4, 143145, Note_on_c, 2, 55, 108
4, 143148, Note_on_c, 2, 48, 108
4, 143228, Note_off_c, 2, 63, 0
4, 143232, Note_off_c, 2, 67, 0
4, 143232, Note_off_c, 2, 60, 0
4, 143232, Note_off_c, 2, 55, 0
4, 143232, Note_off_c, 2, 48, 0
4, 143232, Note_on_c, 2, 48, 118
4, 143328, Note_off_c, 2, 48, 0
4, 143328, Note_on_c, 2, 51, 118
4, 143424, Note_off_c, 2, 51, 0
4, 143424, Note_on_c, 2, 55, 117
4, 143520, Note_off_c, 2, 55, 0
4, 143520, Note_on_c, 2, 51, 117
4, 143616, Note_off_c, 2, 51, 0
4, 143616, Note_on_c, 2, 67, 107
4, 143619, Note_on_c, 2, 62, 107
4, 143622, Note_on_c, 2, 58, 107
4, 143625, Note_on_c, 2, 55, 107
4, 143628, Note_on_c, 2, 50, 107
4, 143632, Note_on_c, 2, 43, 107
4, 143808, Note_off_c, 2, 43, 0
4, 143808, Note_off_c, 2, 50, 0
4, 143808, Note_off_c, 2, 55, 0
4, 143808, Note_off_c, 2, 58, 0
4, 143808, Note_off_c, 2, 62, 0
4, 143808, Note_off_c, 2, 67, 0
4, 143808, Note_on_c, 2, 43, 106
4, 143811, Note_on_c, 2, 50, 106
4, 143814, Note_on_c, 2, 55, 106
4, 143817, Note_on_c, 2, 58, 106
4, 143820, Note_on_c, 2, 62, 106
4, 143824, Note_on_c, 2, 67, 106
4, 143904, Note_off_c, 2, 67, 0
4, 143904, Note_off_c, 2, 62, 0
4, 143904, Note_off_c, 2, 58, 0
4, 143904, Note_off_c, 2, 55, 0
4, 143904, Note_off_c, 2, 50, 0
4, 143904, Note_off_c, 2, 43, 0
4, 143904, Note_on_c, 2, 67, 106
4, 143907, Note_on_c, 2, 62, 106
4, 143908, Note_on_c, 2, 58, 106
4, 143913, Note_on_c, 2, 55, 106
4, 143916, Note_on_c, 2, 50, 106
4, 143920, Note_on_c, 2, 43, 106
4, 144000, Note_off_c, 2, 43, 0
4, 144000, Note_off_c, 2, 50, 0
4, 144000, Note_off_c, 2, 55, 0
4, 144000, Note_off_c, 2, 58, 0
4, 144000, Note_off_c, 2, 62, 0
4, 144000, Note_off_c, 2, 67, 0
4, 144000, Note_on_c, 2, 43, 115
4, 144096, Note_off_c, 2, 43, 0
4, 144096, Note_on_c, 2, 46, 115
4, 144192, Note_off_c, 2, 46, 0
4, 144192, Note_on_c, 2, 43, 105
4, 144195, Note_on_c, 2, 50, 105
4, 144198, Note_on_c, 2, 55, 105
4, 144201, Note_on_c, 2, 58, 105
4, 144204, Note_on_c, 2, 62, 105
4, 144208, Note_on_c, 2, 67, 105
4, 144288, Note_off_c, 2, 67, 0
4, 144288, Note_off_c, 2, 62, 0
4, 144288, Note_off_c, 2, 58, 0
4, 144288, Note_off_c, 2, 55, 0
4, 144288, Note_off_c, 2, 50, 0
4, 144288, Note_off_c, 2, 43, 0
4, 144288, Note_on_c, 2, 67, 104
4, 144291, Note_on_c, 2, 62, 104
4, 144292, Note_on_c, 2, 58, 104
4, 144297, Note_on_c, 2, 55, 104
4, 144300, Note_on_c, 2, 50, 104
4, 144304, Note_on_c, 2, 43, 104
4, 144384, Note_off_c, 2, 43, 0
4, 144384, Note_off_c, 2, 50, 0
4, 144384, Note_off_c, 2, 55, 0
4, 144384, Note_off_c, 2, 58, 0
4, 144384, Note_off_c, 2, 62, 0
4, 144384, Note_off_c, 2, 67, 0
4, 144384, Note_on_c, 2, 69, 95
4, 144387, Note_on_c, 2, 65, 95
4, 144390, Note_on_c, 2, 60, 95
4, 144393, Note_on_c, 2, 53, 95
4, 144576, Note_off_c, 2, 53, 0
4, 144576, Note_off_c, 2, 60, 0
4, 144576, Note_off_c, 2, 65, 0
4, 144576, Note_off_c, 2, 69, 0
4, 144576, Note_on_c, 2, 53, 93
4, 144579, Note_on_c, 2, 60, 93
4, 144582, Note_on_c, 2, 65, 93
4, 144585, Note_on_c, 2, 69, 93
4, 144672, Note_off_c, 2, 69, 0
4, 144672, Note_off_c, 2, 65, 0
4, 144672, Note_off_c, 2, 60, 0
4, 144672, Note_off_c, 2, 53, 0
4, 144672, Note_on_c, 2, 69, 93
4, 144675, Note_on_c, 2, 65, 93
4, 144678, Note_on_c, 2, 60, 93
4, 144681, Note_on_c, 2, 53, 93
4, 144768, Note_off_c, 2, 53, 0
4, 144768, Note_off_c, 2, 60, 0
4, 144768, Note_off_c, 2, 65, 0
4, 144768, Note_off_c, 2, 69, 0
4, 144768, Note_on_c, 2, 53, 92
4, 144771, Note_on_c, 2, 60, 92
4, 144774, Note_on_c, 2, 65, 92
4, 144777, Note_on_c, 2, 69, 92
4, 144960, Note_off_c, 2, 69, 0
4, 144960, Note_off_c, 2, 65, 0
4, 144960, Note_off_c, 2, 60, 0
4, 144960, Note_off_c, 2, 53, 0
4, 144960, Note_on_c, 2, 67, 90
4, 144963, Note_on_c, 2, 65, 90
4, 144966, Note_on_c, 2, 58, 90
4, 144969, Note_on_c, 2, 53, 90
4, 145056, Note_off_c, 2, 53, 0
4, 145056, Note_off_c, 2, 58, 0
4, 145056, Note_off_c, 2, 65, 0
4, 145056, Note_off_c, 2, 67, 0
4, 145056, Note_on_c, 2, 53, 89
4, 145059, Note_on_c, 2, 60, 89
4, 145062, Note_on_c, 2, 65, 89
4, 145065, Note_on_c, 2, 69, 89
4, 145248, Note_off_c, 2, 69, 0
4, 145248, Note_off_c, 2, 65, 0
4, 145248, Note_off_c, 2, 60, 0
4, 145248, Note_off_c, 2, 53, 0
4, 145248, Note_on_c, 2, 53, 87
4, 145251, Note_on_c, 2, 58, 87
4, 145254, Note_on_c, 2, 65, 87
4, 145257, Note_on_c, 2, 67, 87
4, 145344, Note_off_c, 2, 67, 0
4, 145344, Note_off_c, 2, 65, 0
4, 145344, Note_off_c, 2, 58, 0
4, 145344, Note_off_c, 2, 53, 0
4, 145344, Note_on_c, 2, 69, 86
4, 145347, Note_on_c, 2, 65, 86
4, 145352, Note_on_c, 2, 60, 86
4, 145353, Note_on_c, 2, 53, 86
4, 145536, Note_off_c, 2, 53, 0
4, 145536, Note_off_c, 2, 60, 0
4, 145536, Note_off_c, 2, 65, 0
4, 145536, Note_off_c, 2, 69, 0
4, 145536, Note_on_c, 2, 53, 84
4, 145539, Note_on_c, 2, 60, 84
4, 145542, Note_on_c, 2, 65, 84
4, 145545, Note_on_c, 2, 69, 84
4, 145632, Note_off_c, 2, 69, 0
4, 145632, Note_off_c, 2, 65, 0
4, 145632, Note_off_c, 2, 60, 0
4, 145632, Note_off_c, 2, 53, 0
4, 145632, Note_on_c, 2, 70, 83
4, 145635, Note_on_c, 2, 65, 83
4, 145638, Note_on_c, 2, 60, 83
4, 145641, Note_on_c, 2, 53, 83
4, 145728, Note_off_c, 2, 53, 0
4, 145728, Note_off_c, 2, 60, 0
4, 145728, Note_off_c, 2, 65, 0
4, 145728, Note_off_c, 2, 70, 0
4, 145728, Note_on_c, 2, 53, 82
4, 145732, Note_on_c, 2, 60, 82
4, 145734, Note_on_c, 2, 65, 82
4, 145737, Note_on_c, 2, 69, 82
4, 145824, Note_off_c, 2, 69, 0
4, 145824, Note_off_c, 2, 65, 0
4, 145824, Note_off_c, 2, 60, 0
4, 145824, Note_off_c, 2, 53, 0
4, 145824, Note_on_c, 2, 67, 81
4, 145828, Note_on_c, 2, 65, 81
4, 145830, Note_on_c, 2, 58, 81
4, 145833, Note_on_c, 2, 53, 81
4, 145920, Note_off_c, 2, 53, 0
4, 145920, Note_off_c, 2, 58, 0
4, 145920, Note_off_c, 2, 65, 0
4, 145920, Note_off_c, 2, 67, 0
4, 145920, Note_on_c, 2, 69, 81
4, 145923, Note_on_c, 2, 65, 81
4, 145926, Note_on_c, 2, 60, 81
4, 145929, Note_on_c, 2, 53, 81
4, 146112, Note_off_c, 2, 53, 0
4, 146112, Note_off_c, 2, 60, 0
4, 146112, Note_off_c, 2, 65, 0
4, 146112, Note_off_c, 2, 69, 0
4, 146112, Note_on_c, 2, 53, 79
4, 146115, Note_on_c, 2, 60, 79
4, 146118, Note_on_c, 2, 65, 79
4, 146121, Note_on_c, 2, 69, 79
4, 146208, Note_off_c, 2, 69, 0
4, 146208, Note_off_c, 2, 65, 0
4, 146208, Note_off_c, 2, 60, 0
4, 146208, Note_off_c, 2, 53, 0
4, 146208, Note_on_c, 2, 69, 79
4, 146211, Note_on_c, 2, 65, 79
4, 146214, Note_on_c, 2, 60, 79
4, 146217, Note_on_c, 2, 53, 79
4, 146304, Note_off_c, 2, 53, 0
4, 146304, Note_off_c, 2, 60, 0
4, 146304, Note_off_c, 2, 65, 0
4, 146304, Note_off_c, 2, 69, 0
4, 146304, Note_on_c, 2, 53, 77
4, 146307, Note_on_c, 2, 60, 77
4, 146310, Note_on_c, 2, 65, 77
4, 146313, Note_on_c, 2, 69, 77
4, 146496, Note_off_c, 2, 69, 0
4, 146496, Note_off_c, 2, 65, 0
4, 146496, Note_off_c, 2, 60, 0
4, 146496, Note_off_c, 2, 53, 0
4, 146496, Note_on_c, 2, 67, 76
4, 146499, Note_on_c, 2, 65, 76
4, 146502, Note_on_c, 2, 58, 76
4, 146505, Note_on_c, 2, 53, 76
4, 146592, Note_off_c, 2, 53, 0
4, 146592, Note_off_c, 2, 58, 0
4, 146592, Note_off_c, 2, 65, 0
4, 146592, Note_off_c, 2, 67, 0
4, 146592, Note_on_c, 2, 53, 74
4, 146595, Note_on_c, 2, 60, 74
4, 146598, Note_on_c, 2, 65, 74
4, 146601, Note_on_c, 2, 69, 74
4, 146784, Note_off_c, 2, 69, 0
4, 146784, Note_off_c, 2, 65, 0
4, 146784, Note_off_c, 2, 60, 0
4, 146784, Note_off_c, 2, 53, 0
4, 146784, Note_on_c, 2, 53, 73
4, 146787, Note_on_c, 2, 58, 73
4, 146790, Note_on_c, 2, 65, 73
4, 146793, Note_on_c, 2, 67, 73
4, 146880, Note_off_c, 2, 67, 0
4, 146880, Note_off_c, 2, 65, 0
4, 146880, Note_off_c, 2, 58, 0
4, 146880, Note_off_c, 2, 53, 0
4, 146880, Note_on_c, 2, 69, 72
4, 146883, Note_on_c, 2, 65, 72
4, 146888, Note_on_c, 2, 60, 72
4, 146889, Note_on_c, 2, 53, 72
4, 147168, Note_off_c, 2, 53, 0
4, 147168, Note_off_c, 2, 60, 0
4, 147168, Note_off_c, 2, 65, 0
4, 147168, Note_off_c, 2, 69, 0
4, 147168, Note_on_c, 2, 69, 69
4, 147171, Note_on_c, 2, 65, 69
4, 147174, Note_on_c, 2, 60, 69
4, 147177, Note_on_c, 2, 53, 69
4, 147264, Note_off_c, 2, 53, 0
4, 147264, Note_off_c, 2, 60, 0
4, 147264, Note_off_c, 2, 65, 0
4, 147264, Note_off_c, 2, 69, 0
4, 147264, Note_on_c, 2, 53, 69
4, 147268, Note_on_c, 2, 60, 69
4, 147270, Note_on_c, 2, 65, 69
4, 147273, Note_on_c, 2, 69, 69
4, 147360, Note_off_c, 2, 69, 0
4, 147360, Note_off_c, 2, 65, 0
4, 147360, Note_off_c, 2, 60, 0
4, 147360, Note_off_c, 2, 53, 0
4, 147360, Note_on_c, 2, 60, 68
4, 147360, Note_on_c, 2, 69, 68
4, 147364, Note_on_c, 2, 65, 68
4, 147369, Note_on_c, 2, 53, 68
4, 147449, Note_off_c, 2, 60, 0
4, 147456, Note_off_c, 2, 69, 0
4, 147456, Note_off_c, 2, 65, 0
4, 147456, Note_off_c, 2, 53, 0
4, 151296, Note_on_c, 2, 65, 100
4, 151299, Note_on_c, 2, 61, 100
4, 151302, Note_on_c, 2, 56, 100
4, 151305, Note_on_c, 2, 49, 100
4, 151488, Note_off_c, 2, 49, 0
4, 151488, Note_off_c, 2, 56, 0
4, 151488, Note_off_c, 2, 61, 0
4, 151488, Note_off_c, 2, 65, 0
4, 151488, Note_on_c, 2, 49, 100
4, 151491, Note_on_c, 2, 56, 100
4, 151494, Note_on_c, 2, 61, 100
4, 151497, Note_on_c, 2, 65, 100
4, 151584, Note_off_c, 2, 65, 0
4, 151584, Note_off_c, 2, 61, 0
4, 151584, Note_off_c, 2, 56, 0
4, 151584, Note_off_c, 2, 49, 0
4, 151584, Note_on_c, 2, 65, 100
4, 151587, Note_on_c, 2, 61, 100
4, 151590, Note_on_c, 2, 56, 100
4, 151593, Note_on_c, 2, 49, 100
4, 151632, Note_off_c, 2, 49, 0
4, 151632, Note_off_c, 2, 56, 0
4, 151632, Note_off_c, 2, 61, 0
4, 151632, Note_off_c, 2, 65, 0
4, 151632, Note_on_c, 2, 49, 100
4, 151635, Note_on_c, 2, 56, 100
4, 151638, Note_on_c, 2, 61, 100
4, 151641, Note_on_c, 2, 65, 100
4, 151680, Note_off_c, 2, 65, 0
4, 151680, Note_off_c, 2, 61, 0
4, 151680, Note_off_c, 2, 56, 0
4, 151680, Note_off_c, 2, 49, 0
4, 151680, Note_on_c, 2, 65, 100
4, 151683, Note_on_c, 2, 61, 100
4, 151686, Note_on_c, 2, 56, 100
4, 151689, Note_on_c, 2, 49, 100
4, 151776, Note_off_c, 2, 49, 0
4, 151776, Note_off_c, 2, 56, 0
4, 151776, Note_off_c, 2, 61, 0
4, 151776, Note_off_c, 2, 65, 0
4, 151776, Note_on_c, 2, 49, 100
4, 151779, Note_on_c, 2, 56, 100
4, 151782, Note_on_c, 2, 61, 100
4, 151785, Note_on_c, 2, 65, 100
4, 151872, Note_off_c, 2, 65, 0
4, 151872, Note_off_c, 2, 61, 0
4, 151872, Note_off_c, 2, 56, 0
4, 151872, Note_off_c, 2, 49, 0
4, 151872, Note_on_c, 2, 65, 100
4, 151875, Note_on_c, 2, 61, 100
4, 151878, Note_on_c, 2, 56, 100
4, 151881, Note_on_c, 2, 49, 100
4, 152064, Note_off_c, 2, 49, 0
4, 152064, Note_off_c, 2, 56, 0
4, 152064, Note_off_c, 2, 61, 0
4, 152064, Note_off_c, 2, 65, 0
4, 152064, Note_on_c, 2, 67, 100
4, 152067, Note_on_c, 2, 63, 100
4, 152070, Note_on_c, 2, 58, 100
4, 152073, Note_on_c, 2, 55, 100
4, 152076, Note_on_c, 2, 51, 100
4, 152256, Note_off_c, 2, 51, 0
4, 152256, Note_off_c, 2, 55, 0
4, 152256, Note_off_c, 2, 58, 0
4, 152256, Note_off_c, 2, 63, 0
4, 152256, Note_off_c, 2, 67, 0
4, 152256, Note_on_c, 2, 51, 100
4, 152259, Note_on_c, 2, 55, 100
4, 152262, Note_on_c, 2, 58, 100
4, 152265, Note_on_c, 2, 63, 100
4, 152268, Note_on_c, 2, 67, 100
4, 152352, Note_off_c, 2, 67, 0
4, 152352, Note_off_c, 2, 63, 0
4, 152352, Note_off_c, 2, 58, 0
4, 152352, Note_off_c, 2, 55, 0
4, 152352, Note_off_c, 2, 51, 0
4, 152352, Note_on_c, 2, 67, 100
4, 152355, Note_on_c, 2, 63, 100
4, 152358, Note_on_c, 2, 58, 100
4, 152361, Note_on_c, 2, 55, 100
4, 152364, Note_on_c, 2, 51, 100
4, 152400, Note_off_c, 2, 51, 0
4, 152400, Note_off_c, 2, 55, 0
4, 152400, Note_off_c, 2, 58, 0
4, 152400, Note_off_c, 2, 63, 0
4, 152400, Note_off_c, 2, 67, 0
4, 152400, Note_on_c, 2, 51, 100
4, 152403, Note_on_c, 2, 55, 100
4, 152404, Note_on_c, 2, 58, 100
4, 152409, Note_on_c, 2, 63, 100
4, 152412, Note_on_c, 2, 67, 100
4, 152448, Note_off_c, 2, 67, 0
4, 152448, Note_off_c, 2, 63, 0
4, 152448, Note_off_c, 2, 58, 0
4, 152448, Note_off_c, 2, 55, 0
4, 152448, Note_off_c, 2, 51, 0
4, 152448, Note_on_c, 2, 67, 100
4, 152451, Note_on_c, 2, 63, 100
4, 152454, Note_on_c, 2, 58, 100
4, 152457, Note_on_c, 2, 55, 100
4, 152460, Note_on_c, 2, 51, 100
4, 152544, Note_off_c, 2, 51, 0
4, 152544, Note_off_c, 2, 55, 0
4, 152544, Note_off_c, 2, 58, 0
4, 152544, Note_off_c, 2, 63, 0
4, 152544, Note_off_c, 2, 67, 0
4, 152544, Note_on_c, 2, 51, 100
4, 152547, Note_on_c, 2, 55, 100
4, 152550, Note_on_c, 2, 58, 100
4, 152553, Note_on_c, 2, 63, 100
4, 152556, Note_on_c, 2, 67, 100
4, 152640, Note_off_c, 2, 67, 0
4, 152640, Note_off_c, 2, 63, 0
4, 152640, Note_off_c, 2, 58, 0
4, 152640, Note_off_c, 2, 55, 0
4, 152640, Note_off_c, 2, 51, 0
4, 152640, Note_on_c, 2, 67, 100
4, 152644, Note_on_c, 2, 63, 100
4, 152646, Note_on_c, 2, 58, 100
4, 152649, Note_on_c, 2, 55, 100
4, 152652, Note_on_c, 2, 51, 100
4, 152736, Note_off_c, 2, 51, 0
4, 152736, Note_off_c, 2, 55, 0
4, 152736, Note_off_c, 2, 58, 0
4, 152736, Note_off_c, 2, 63, 0
4, 152736, Note_off_c, 2, 67, 0
4, 152736, Note_on_c, 2, 51, 100
4, 152739, Note_on_c, 2, 55, 100
4, 152742, Note_on_c, 2, 58, 100
4, 152745, Note_on_c, 2, 63, 100
4, 152748, Note_on_c, 2, 67, 100
4, 152832, Note_off_c, 2, 67, 0
4, 152832, Note_off_c, 2, 63, 0
4, 152832, Note_off_c, 2, 58, 0
4, 152832, Note_off_c, 2, 55, 0
4, 152832, Note_off_c, 2, 51, 0
4, 152832, Note_on_c, 2, 69, 100
4, 152835, Note_on_c, 2, 65, 100
4, 152838, Note_on_c, 2, 60, 100
4, 152841, Note_on_c, 2, 53, 100
4, 153024, Note_off_c, 2, 53, 0
4, 153024, Note_off_c, 2, 60, 0
4, 153024, Note_off_c, 2, 65, 0
4, 153024, Note_off_c, 2, 69, 0
4, 153024, Note_on_c, 2, 53, 100
4, 153027, Note_on_c, 2, 60, 100
4, 153030, Note_on_c, 2, 65, 100
4, 153033, Note_on_c, 2, 69, 100
4, 153120, Note_off_c, 2, 69, 0
4, 153120, Note_off_c, 2, 65, 0
4, 153120, Note_off_c, 2, 60, 0
4, 153120, Note_off_c, 2, 53, 0
4, 153120, Note_on_c, 2, 53, 100
4, 153123, Note_on_c, 2, 60, 100
4, 153126, Note_on_c, 2, 65, 100
4, 153129, Note_on_c, 2, 69, 100
4, 153168, Note_off_c, 2, 69, 0
4, 153168, Note_off_c, 2, 65, 0
4, 153168, Note_off_c, 2, 60, 0
4, 153168, Note_off_c, 2, 53, 0
4, 153168, Note_on_c, 2, 69, 100
4, 153171, Note_on_c, 2, 65, 100
4, 153174, Note_on_c, 2, 60, 100
4, 153177, Note_on_c, 2, 53, 100
4, 153216, Note_off_c, 2, 53, 0
4, 153216, Note_off_c, 2, 60, 0
4, 153216, Note_off_c, 2, 65, 0
4, 153216, Note_off_c, 2, 69, 0
4, 153216, Note_on_c, 2, 53, 100
4, 153216, Note_on_c, 2, 65, 100
4, 153219, Note_on_c, 2, 60, 100
4, 153225, Note_on_c, 2, 69, 100
4, 153312, Note_off_c, 2, 69, 0
4, 153312, Note_off_c, 2, 60, 0
4, 153312, Note_off_c, 2, 65, 0
4, 153312, Note_off_c, 2, 53, 0
4, 153312, Note_on_c, 2, 69, 100
4, 153315, Note_on_c, 2, 65, 100
4, 153318, Note_on_c, 2, 60, 100
4, 153321, Note_on_c, 2, 53, 100
4, 153408, Note_off_c, 2, 53, 0
4, 153408, Note_off_c, 2, 60, 0
4, 153408, Note_off_c, 2, 65, 0
4, 153408, Note_off_c, 2, 69, 0
4, 153408, Note_on_c, 2, 51, 100
4, 153411, Note_on_c, 2, 55, 100
4, 153414, Note_on_c, 2, 58, 100
4, 153417, Note_on_c, 2, 63, 100
4, 153420, Note_on_c, 2, 67, 100
4, 153504, Note_off_c, 2, 67, 0
4, 153504, Note_off_c, 2, 63, 0
4, 153504, Note_off_c, 2, 58, 0
4, 153504, Note_off_c, 2, 55, 0
4, 153504, Note_off_c, 2, 51, 0
4, 153504, Note_on_c, 2, 69, 100
4, 153507, Note_on_c, 2, 65, 100
4, 153510, Note_on_c, 2, 60, 100
4, 153513, Note_on_c, 2, 53, 100
4, 153600, Note_off_c, 2, 53, 0
4, 153600, Note_off_c, 2, 60, 0
4, 153600, Note_off_c, 2, 65, 0
4, 153600, Note_off_c, 2, 69, 0
4, 153600, Note_on_c, 2, 67, 100
4, 153603, Note_on_c, 2, 63, 100
4, 153606, Note_on_c, 2, 58, 100
4, 153609, Note_on_c, 2, 55, 100
4, 153612, Note_on_c, 2, 51, 100
4, 153696, Note_off_c, 2, 51, 0
4, 153696, Note_off_c, 2, 55, 0
4, 153696, Note_off_c, 2, 58, 0
4, 153696, Note_off_c, 2, 63, 0
4, 153696, Note_off_c, 2, 67, 0
4, 153696, Note_on_c, 2, 53, 100
4, 153699, Note_on_c, 2, 60, 100
4, 153702, Note_on_c, 2, 65, 100
4, 153705, Note_on_c, 2, 69, 100
4, 153792, Note_off_c, 2, 69, 0
4, 153792, Note_off_c, 2, 65, 0
4, 153792, Note_off_c, 2, 60, 0
4, 153792, Note_off_c, 2, 53, 0
4, 153792, Note_on_c, 2, 70, 100
4, 153795, Note_on_c, 2, 66, 100
4, 153798, Note_on_c, 2, 61, 100
4, 153801, Note_on_c, 2, 58, 100
4, 153888, Note_off_c, 2, 58, 0
4, 153888, Note_off_c, 2, 61, 0
4, 153888, Note_off_c, 2, 66, 0
4, 153888, Note_off_c, 2, 70, 0
4, 153888, Note_on_c, 2, 58, 100
4, 153891, Note_on_c, 2, 61, 100
4, 153894, Note_on_c, 2, 66, 100
4, 153897, Note_on_c, 2, 70, 100
4, 153936, Note_off_c, 2, 70, 0
4, 153936, Note_off_c, 2, 66, 0
4, 153936, Note_off_c, 2, 61, 0
4, 153936, Note_off_c, 2, 58, 0
4, 153936, Note_on_c, 2, 70, 100
4, 153939, Note_on_c, 2, 66, 100
4, 153942, Note_on_c, 2, 61, 100
4, 153945, Note_on_c, 2, 58, 100
4, 153984, Note_off_c, 2, 58, 0
4, 153984, Note_off_c, 2, 61, 0
4, 153984, Note_off_c, 2, 66, 0
4, 153984, Note_off_c, 2, 70, 0
4, 153984, Note_on_c, 2, 49, 100
4, 153987, Note_on_c, 2, 56, 100
4, 153990, Note_on_c, 2, 61, 100
4, 153993, Note_on_c, 2, 65, 100
4, 154080, Note_off_c, 2, 65, 0
4, 154080, Note_off_c, 2, 61, 0
4, 154080, Note_off_c, 2, 56, 0
4, 154080, Note_off_c, 2, 49, 0
4, 154080, Note_on_c, 2, 65, 100
4, 154083, Note_on_c, 2, 61, 100
4, 154086, Note_on_c, 2, 56, 100
4, 154089, Note_on_c, 2, 49, 100
4, 154176, Note_off_c, 2, 49, 0
4, 154176, Note_off_c, 2, 56, 0
4, 154176, Note_off_c, 2, 61, 0
4, 154176, Note_off_c, 2, 65, 0
4, 154176, Note_on_c, 2, 56, 100
4, 154176, Note_on_c, 2, 49, 100
4, 154182, Note_on_c, 2, 61, 100
4, 154185, Note_on_c, 2, 65, 100
4, 154272, Note_off_c, 2, 65, 0
4, 154272, Note_off_c, 2, 61, 0
4, 154272, Note_off_c, 2, 49, 0
4, 154272, Note_off_c, 2, 56, 0
4, 154272, Note_on_c, 2, 56, 100
4, 154272, Note_on_c, 2, 61, 100
4, 154272, Note_on_c, 2, 65, 100
4, 154276, Note_on_c, 2, 49, 100
4, 154320, Note_off_c, 2, 49, 0
4, 154320, Note_off_c, 2, 65, 0
4, 154320, Note_off_c, 2, 61, 0
4, 154320, Note_off_c, 2, 56, 0
4, 154320, Note_on_c, 2, 49, 100
4, 154323, Note_on_c, 2, 65, 100
4, 154326, Note_on_c, 2, 61, 100
4, 154329, Note_on_c, 2, 56, 100
4, 154368, Note_off_c, 2, 56, 0
4, 154368, Note_off_c, 2, 61, 0
4, 154368, Note_off_c, 2, 65, 0
4, 154368, Note_off_c, 2, 49, 0
4, 154368, Note_on_c, 2, 67, 100
4, 154371, Note_on_c, 2, 63, 100
4, 154374, Note_on_c, 2, 58, 100
4, 154377, Note_on_c, 2, 55, 100
4, 154380, Note_on_c, 2, 51, 100
4, 154464, Note_off_c, 2, 51, 0
4, 154464, Note_off_c, 2, 55, 0
4, 154464, Note_off_c, 2, 58, 0
4, 154464, Note_off_c, 2, 63, 0
4, 154464, Note_off_c, 2, 67, 0
4, 154464, Note_on_c, 2, 51, 100
4, 154468, Note_on_c, 2, 55, 100
4, 154470, Note_on_c, 2, 58, 100
4, 154473, Note_on_c, 2, 63, 100
4, 154476, Note_on_c, 2, 67, 100
4, 154512, Note_off_c, 2, 67, 0
4, 154512, Note_off_c, 2, 63, 0
4, 154512, Note_off_c, 2, 58, 0
4, 154512, Note_off_c, 2, 55, 0
4, 154512, Note_off_c, 2, 51, 0
4, 154512, Note_on_c, 2, 67, 100
4, 154516, Note_on_c, 2, 63, 100
4, 154518, Note_on_c, 2, 58, 100
4, 154521, Note_on_c, 2, 55, 100
4, 154524, Note_on_c, 2, 51, 100
4, 154560, Note_off_c, 2, 51, 0
4, 154560, Note_off_c, 2, 55, 0
4, 154560, Note_off_c, 2, 58, 0
4, 154560, Note_off_c, 2, 63, 0
4, 154560, Note_off_c, 2, 67, 0
4, 154560, Note_on_c, 2, 51, 100
4, 154563, Note_on_c, 2, 55, 100
4, 154566, Note_on_c, 2, 58, 100
4, 154569, Note_on_c, 2, 63, 100
4, 154572, Note_on_c, 2, 67, 100
4, 154656, Note_off_c, 2, 67, 0
4, 154656, Note_off_c, 2, 63, 0
4, 154656, Note_off_c, 2, 58, 0
4, 154656, Note_off_c, 2, 55, 0
4, 154656, Note_off_c, 2, 51, 0
4, 154656, Note_on_c, 2, 67, 100
4, 154659, Note_on_c, 2, 63, 100
4, 154662, Note_on_c, 2, 58, 100
4, 154665, Note_on_c, 2, 55, 100
4, 154668, Note_on_c, 2, 51, 100
4, 154752, Note_off_c, 2, 51, 0
4, 154752, Note_off_c, 2, 55, 0
4, 154752, Note_off_c, 2, 58, 0
4, 154752, Note_off_c, 2, 63, 0
4, 154752, Note_off_c, 2, 67, 0
4, 154752, Note_on_c, 2, 51, 100
4, 154755, Note_on_c, 2, 55, 100
4, 154758, Note_on_c, 2, 58, 100
4, 154761, Note_on_c, 2, 63, 100
4, 154764, Note_on_c, 2, 67, 100
4, 154848, Note_off_c, 2, 67, 0
4, 154848, Note_off_c, 2, 63, 0
4, 154848, Note_off_c, 2, 58, 0
4, 154848, Note_off_c, 2, 55, 0
4, 154848, Note_off_c, 2, 51, 0
4, 154848, Note_on_c, 2, 49, 100
4, 154851, Note_on_c, 2, 56, 100
4, 154854, Note_on_c, 2, 61, 100
4, 154857, Note_on_c, 2, 65, 100
4, 154896, Note_off_c, 2, 65, 0
4, 154896, Note_off_c, 2, 61, 0
4, 154896, Note_off_c, 2, 56, 0
4, 154896, Note_off_c, 2, 49, 0
4, 154896, Note_on_c, 2, 65, 100
4, 154899, Note_on_c, 2, 61, 100
4, 154902, Note_on_c, 2, 56, 100
4, 154905, Note_on_c, 2, 49, 100
4, 154944, Note_off_c, 2, 49, 0
4, 154944, Note_off_c, 2, 56, 0
4, 154944, Note_off_c, 2, 61, 0
4, 154944, Note_off_c, 2, 65, 0
4, 154944, Note_on_c, 2, 58, 100
4, 154947, Note_on_c, 2, 61, 100
4, 154950, Note_on_c, 2, 66, 100
4, 154953, Note_on_c, 2, 70, 100
4, 155136, Note_off_c, 2, 70, 0
4, 155136, Note_off_c, 2, 66, 0
4, 155136, Note_off_c, 2, 61, 0
4, 155136, Note_off_c, 2, 58, 0
4, 155136, Note_on_c, 2, 70, 100
4, 155139, Note_on_c, 2, 66, 100
4, 155142, Note_on_c, 2, 61, 100
4, 155145, Note_on_c, 2, 58, 100
4, 155232, Note_off_c, 2, 58, 0
4, 155232, Note_off_c, 2, 61, 0
4, 155232, Note_off_c, 2, 66, 0
4, 155232, Note_off_c, 2, 70, 0
4, 155232, Note_on_c, 2, 56, 100
4, 155235, Note_on_c, 2, 59, 100
4, 155238, Note_on_c, 2, 64, 100
4, 155241, Note_on_c, 2, 68, 100
4, 155328, Note_off_c, 2, 68, 0
4, 155328, Note_off_c, 2, 64, 0
4, 155328, Note_off_c, 2, 59, 0
4, 155328, Note_off_c, 2, 56, 0
4, 155328, Note_on_c, 2, 54, 100
4, 155331, Note_on_c, 2, 59, 100
4, 155334, Note_on_c, 2, 63, 100
4, 155337, Note_on_c, 2, 66, 100
4, 155424, Note_off_c, 2, 66, 0
4, 155424, Note_off_c, 2, 63, 0
4, 155424, Note_off_c, 2, 59, 0
4, 155424, Note_off_c, 2, 54, 0
4, 155424, Note_on_c, 2, 66, 100
4, 155427, Note_on_c, 2, 63, 100
4, 155430, Note_on_c, 2, 59, 100
4, 155433, Note_on_c, 2, 54, 100
4, 155472, Note_off_c, 2, 54, 0
4, 155472, Note_off_c, 2, 59, 0
4, 155472, Note_off_c, 2, 63, 0
4, 155472, Note_off_c, 2, 66, 0
4, 155472, Note_on_c, 2, 54, 100
4, 155475, Note_on_c, 2, 59, 100
4, 155478, Note_on_c, 2, 63, 100
4, 155481, Note_on_c, 2, 66, 100
4, 155520, Note_off_c, 2, 66, 0
4, 155520, Note_off_c, 2, 63, 0
4, 155520, Note_off_c, 2, 59, 0
4, 155520, Note_off_c, 2, 54, 0
4, 155520, Note_on_c, 2, 66, 100
4, 155523, Note_on_c, 2, 62, 100
4, 155526, Note_on_c, 2, 57, 100
4, 155529, Note_on_c, 2, 50, 100
4, 155616, Note_off_c, 2, 50, 0
4, 155616, Note_off_c, 2, 57, 0
4, 155616, Note_off_c, 2, 62, 0
4, 155616, Note_off_c, 2, 66, 0
4, 155616, Note_on_c, 2, 50, 100
4, 155619, Note_on_c, 2, 57, 100
4, 155622, Note_on_c, 2, 62, 100
4, 155625, Note_on_c, 2, 66, 100
4, 155712, Note_off_c, 2, 66, 0
4, 155712, Note_off_c, 2, 62, 0
4, 155712, Note_off_c, 2, 57, 0
4, 155712, Note_off_c, 2, 50, 0
4, 155712, Note_on_c, 2, 66, 100
4, 155715, Note_on_c, 2, 62, 100
4, 155718, Note_on_c, 2, 57, 100
4, 155721, Note_on_c, 2, 50, 100
4, 155808, Note_off_c, 2, 50, 0
4, 155808, Note_off_c, 2, 57, 0
4, 155808, Note_off_c, 2, 62, 0
4, 155808, Note_off_c, 2, 66, 0
4, 155808, Note_on_c, 2, 50, 100
4, 155811, Note_on_c, 2, 57, 100
4, 155814, Note_on_c, 2, 62, 100
4, 155817, Note_on_c, 2, 66, 100
4, 155904, Note_off_c, 2, 66, 0
4, 155904, Note_off_c, 2, 62, 0
4, 155904, Note_off_c, 2, 57, 0
4, 155904, Note_off_c, 2, 50, 0
4, 155904, Note_on_c, 2, 67, 100
4, 155908, Note_on_c, 2, 62, 100
4, 155913, Note_on_c, 2, 58, 100
4, 155918, Note_on_c, 2, 55, 100
4, 155923, Note_on_c, 2, 50, 100
4, 155928, Note_on_c, 2, 43, 100
4, 156096, Note_off_c, 2, 43, 0
4, 156096, Note_off_c, 2, 50, 0
4, 156096, Note_off_c, 2, 55, 0
4, 156096, Note_off_c, 2, 58, 0
4, 156096, Note_off_c, 2, 62, 0
4, 156096, Note_off_c, 2, 67, 0
4, 156672, Note_on_c, 2, 65, 100
4, 156675, Note_on_c, 2, 61, 100
4, 156678, Note_on_c, 2, 56, 100
4, 156681, Note_on_c, 2, 49, 100
4, 156864, Note_off_c, 2, 49, 0
4, 156864, Note_off_c, 2, 56, 0
4, 156864, Note_off_c, 2, 61, 0
4, 156864, Note_off_c, 2, 65, 0
4, 156864, Note_on_c, 2, 49, 100
4, 156867, Note_on_c, 2, 56, 100
4, 156870, Note_on_c, 2, 61, 100
4, 156873, Note_on_c, 2, 65, 100
4, 156960, Note_off_c, 2, 65, 0
4, 156960, Note_off_c, 2, 61, 0
4, 156960, Note_off_c, 2, 56, 0
4, 156960, Note_off_c, 2, 49, 0
4, 156960, Note_on_c, 2, 65, 100
4, 156963, Note_on_c, 2, 61, 100
4, 156966, Note_on_c, 2, 56, 100
4, 156969, Note_on_c, 2, 49, 100
4, 157008, Note_off_c, 2, 49, 0
4, 157008, Note_off_c, 2, 56, 0
4, 157008, Note_off_c, 2, 61, 0
4, 157008, Note_off_c, 2, 65, 0
4, 157008, Note_on_c, 2, 49, 100
4, 157011, Note_on_c, 2, 56, 100
4, 157014, Note_on_c, 2, 61, 100
4, 157017, Note_on_c, 2, 65, 100
4, 157056, Note_off_c, 2, 65, 0
4, 157056, Note_off_c, 2, 61, 0
4, 157056, Note_off_c, 2, 56, 0
4, 157056, Note_off_c, 2, 49, 0
4, 157056, Note_on_c, 2, 65, 100
4, 157059, Note_on_c, 2, 61, 100
4, 157062, Note_on_c, 2, 56, 100
4, 157065, Note_on_c, 2, 49, 100
4, 157152, Note_off_c, 2, 49, 0
4, 157152, Note_off_c, 2, 56, 0
4, 157152, Note_off_c, 2, 61, 0
4, 157152, Note_off_c, 2, 65, 0
4, 157152, Note_on_c, 2, 49, 100
4, 157155, Note_on_c, 2, 56, 100
4, 157158, Note_on_c, 2, 61, 100
4, 157161, Note_on_c, 2, 65, 100
4, 157248, Note_off_c, 2, 65, 0
4, 157248, Note_off_c, 2, 61, 0
4, 157248, Note_off_c, 2, 56, 0
4, 157248, Note_off_c, 2, 49, 0
4, 157248, Note_on_c, 2, 65, 100
4, 157251, Note_on_c, 2, 61, 100
4, 157254, Note_on_c, 2, 56, 100
4, 157257, Note_on_c, 2, 49, 100
4, 157440, Note_off_c, 2, 49, 0
4, 157440, Note_off_c, 2, 56, 0
4, 157440, Note_off_c, 2, 61, 0
4, 157440, Note_off_c, 2, 65, 0
4, 157440, Note_on_c, 2, 67, 100
4, 157443, Note_on_c, 2, 63, 100
4, 157446, Note_on_c, 2, 58, 100
4, 157449, Note_on_c, 2, 55, 100
4, 157452, Note_on_c, 2, 51, 100
4, 157632, Note_off_c, 2, 51, 0
4, 157632, Note_off_c, 2, 55, 0
4, 157632, Note_off_c, 2, 58, 0
4, 157632, Note_off_c, 2, 63, 0
4, 157632, Note_off_c, 2, 67, 0
4, 157632, Note_on_c, 2, 51, 100
4, 157635, Note_on_c, 2, 55, 100
4, 157638, Note_on_c, 2, 58, 100
4, 157641, Note_on_c, 2, 63, 100
4, 157644, Note_on_c, 2, 67, 100
4, 157728, Note_off_c, 2, 67, 0
4, 157728, Note_off_c, 2, 63, 0
4, 157728, Note_off_c, 2, 58, 0
4, 157728, Note_off_c, 2, 55, 0
4, 157728, Note_off_c, 2, 51, 0
4, 157728, Note_on_c, 2, 67, 100
4, 157731, Note_on_c, 2, 63, 100
4, 157734, Note_on_c, 2, 58, 100
4, 157737, Note_on_c, 2, 55, 100
4, 157740, Note_on_c, 2, 51, 100
4, 157776, Note_off_c, 2, 51, 0
4, 157776, Note_off_c, 2, 55, 0
4, 157776, Note_off_c, 2, 58, 0
4, 157776, Note_off_c, 2, 63, 0
4, 157776, Note_off_c, 2, 67, 0
4, 157776, Note_on_c, 2, 51, 100
4, 157779, Note_on_c, 2, 55, 100
4, 157780, Note_on_c, 2, 58, 100
4, 157785, Note_on_c, 2, 63, 100
4, 157788, Note_on_c, 2, 67, 100
4, 157824, Note_off_c, 2, 67, 0
4, 157824, Note_off_c, 2, 63, 0
4, 157824, Note_off_c, 2, 58, 0
4, 157824, Note_off_c, 2, 55, 0
4, 157824, Note_off_c, 2, 51, 0
4, 157824, Note_on_c, 2, 67, 100
4, 157827, Note_on_c, 2, 63, 100
4, 157830, Note_on_c, 2, 58, 100
4, 157833, Note_on_c, 2, 55, 100
4, 157836, Note_on_c, 2, 51, 100
4, 157920, Note_off_c, 2, 51, 0
4, 157920, Note_off_c, 2, 55, 0
4, 157920, Note_off_c, 2, 58, 0
4, 157920, Note_off_c, 2, 63, 0
4, 157920, Note_off_c, 2, 67, 0
4, 157920, Note_on_c, 2, 51, 100
4, 157923, Note_on_c, 2, 55, 100
4, 157926, Note_on_c, 2, 58, 100
4, 157929, Note_on_c, 2, 63, 100
4, 157932, Note_on_c, 2, 67, 100
4, 158016, Note_off_c, 2, 67, 0
4, 158016, Note_off_c, 2, 63, 0
4, 158016, Note_off_c, 2, 58, 0
4, 158016, Note_off_c, 2, 55, 0
4, 158016, Note_off_c, 2, 51, 0
4, 158016, Note_on_c, 2, 67, 100
4, 158020, Note_on_c, 2, 63, 100
4, 158022, Note_on_c, 2, 58, 100
4, 158025, Note_on_c, 2, 55, 100
4, 158028, Note_on_c, 2, 51, 100
4, 158112, Note_off_c, 2, 51, 0
4, 158112, Note_off_c, 2, 55, 0
4, 158112, Note_off_c, 2, 58, 0
4, 158112, Note_off_c, 2, 63, 0
4, 158112, Note_off_c, 2, 67, 0
4, 158112, Note_on_c, 2, 51, 100
4, 158115, Note_on_c, 2, 55, 100
4, 158118, Note_on_c, 2, 58, 100
4, 158121, Note_on_c, 2, 63, 100
4, 158124, Note_on_c, 2, 67, 100
4, 158208, Note_off_c, 2, 67, 0
4, 158208, Note_off_c, 2, 63, 0
4, 158208, Note_off_c, 2, 58, 0
4, 158208, Note_off_c, 2, 55, 0
4, 158208, Note_off_c, 2, 51, 0
4, 158208, Note_on_c, 2, 69, 100
4, 158211, Note_on_c, 2, 65, 100
4, 158214, Note_on_c, 2, 60, 100
4, 158217, Note_on_c, 2, 53, 100
4, 158400, Note_off_c, 2, 53, 0
4, 158400, Note_off_c, 2, 60, 0
4, 158400, Note_off_c, 2, 65, 0
4, 158400, Note_off_c, 2, 69, 0
4, 158400, Note_on_c, 2, 53, 100
4, 158403, Note_on_c, 2, 60, 100
4, 158406, Note_on_c, 2, 65, 100
4, 158409, Note_on_c, 2, 69, 100
4, 158496, Note_off_c, 2, 69, 0
4, 158496, Note_off_c, 2, 65, 0
4, 158496, Note_off_c, 2, 60, 0
4, 158496, Note_off_c, 2, 53, 0
4, 158496, Note_on_c, 2, 53, 100
4, 158499, Note_on_c, 2, 60, 100
4, 158502, Note_on_c, 2, 65, 100
4, 158505, Note_on_c, 2, 69, 100
4, 158544, Note_off_c, 2, 69, 0
4, 158544, Note_off_c, 2, 65, 0
4, 158544, Note_off_c, 2, 60, 0
4, 158544, Note_off_c, 2, 53, 0
4, 158544, Note_on_c, 2, 69, 100
4, 158547, Note_on_c, 2, 65, 100
4, 158550, Note_on_c, 2, 60, 100
4, 158553, Note_on_c, 2, 53, 100
4, 158592, Note_off_c, 2, 53, 0
4, 158592, Note_off_c, 2, 60, 0
4, 158592, Note_off_c, 2, 65, 0
4, 158592, Note_off_c, 2, 69, 0
4, 158592, Note_on_c, 2, 53, 100
4, 158592, Note_on_c, 2, 65, 100
4, 158595, Note_on_c, 2, 60, 100
4, 158601, Note_on_c, 2, 69, 100
4, 158688, Note_off_c, 2, 69, 0
4, 158688, Note_off_c, 2, 60, 0
4, 158688, Note_off_c, 2, 65, 0
4, 158688, Note_off_c, 2, 53, 0
4, 158688, Note_on_c, 2, 69, 100
4, 158691, Note_on_c, 2, 65, 100
4, 158694, Note_on_c, 2, 60, 100
4, 158697, Note_on_c, 2, 53, 100
4, 158784, Note_off_c, 2, 53, 0
4, 158784, Note_off_c, 2, 60, 0
4, 158784, Note_off_c, 2, 65, 0
4, 158784, Note_off_c, 2, 69, 0
4, 158784, Note_on_c, 2, 51, 100
4, 158787, Note_on_c, 2, 55, 100
4, 158790, Note_on_c, 2, 58, 100
4, 158793, Note_on_c, 2, 63, 100
4, 158796, Note_on_c, 2, 67, 100
4, 158880, Note_off_c, 2, 67, 0
4, 158880, Note_off_c, 2, 63, 0
4, 158880, Note_off_c, 2, 58, 0
4, 158880, Note_off_c, 2, 55, 0
4, 158880, Note_off_c, 2, 51, 0
4, 158880, Note_on_c, 2, 69, 100
4, 158883, Note_on_c, 2, 65, 100
4, 158886, Note_on_c, 2, 60, 100
4, 158889, Note_on_c, 2, 53, 100
4, 158976, Note_off_c, 2, 53, 0
4, 158976, Note_off_c, 2, 60, 0
4, 158976, Note_off_c, 2, 65, 0
4, 158976, Note_off_c, 2, 69, 0
4, 158976, Note_on_c, 2, 67, 100
4, 158979, Note_on_c, 2, 63, 100
4, 158982, Note_on_c, 2, 58, 100
4, 158985, Note_on_c, 2, 55, 100
4, 158988, Note_on_c, 2, 51, 100
4, 159072, Note_off_c, 2, 51, 0
4, 159072, Note_off_c, 2, 55, 0
4, 159072, Note_off_c, 2, 58, 0
4, 159072, Note_off_c, 2, 63, 0
4, 159072, Note_off_c, 2, 67, 0
4, 159072, Note_on_c, 2, 53, 100
4, 159075, Note_on_c, 2, 60, 100
4, 159078, Note_on_c, 2, 65, 100
4, 159081, Note_on_c, 2, 69, 100
4, 159168, Note_off_c, 2, 69, 0
4, 159168, Note_off_c, 2, 65, 0
4, 159168, Note_off_c, 2, 60, 0
4, 159168, Note_off_c, 2, 53, 0
4, 159168, Note_on_c, 2, 70, 100
4, 159171, Note_on_c, 2, 66, 100
4, 159174, Note_on_c, 2, 61, 100
4, 159177, Note_on_c, 2, 58, 100
4, 159264, Note_off_c, 2, 58, 0
4, 159264, Note_off_c, 2, 61, 0
4, 159264, Note_off_c, 2, 66, 0
4, 159264, Note_off_c, 2, 70, 0
4, 159264, Note_on_c, 2, 58, 100
4, 159267, Note_on_c, 2, 61, 100
4, 159270, Note_on_c, 2, 66, 100
4, 159273, Note_on_c, 2, 70, 100
4, 159312, Note_off_c, 2, 70, 0
4, 159312, Note_off_c, 2, 66, 0
4, 159312, Note_off_c, 2, 61, 0
4, 159312, Note_off_c, 2, 58, 0
4, 159312, Note_on_c, 2, 70, 100
4, 159315, Note_on_c, 2, 66, 100
4, 159318, Note_on_c, 2, 61, 100
4, 159321, Note_on_c, 2, 58, 100
4, 159360, Note_off_c, 2, 58, 0
4, 159360, Note_off_c, 2, 61, 0
4, 159360, Note_off_c, 2, 66, 0
4, 159360, Note_off_c, 2, 70, 0
4, 159360, Note_on_c, 2, 49, 100
4, 159363, Note_on_c, 2, 56, 100
4, 159366, Note_on_c, 2, 61, 100
4, 159369, Note_on_c, 2, 65, 100
4, 159456, Note_off_c, 2, 65, 0
4, 159456, Note_off_c, 2, 61, 0
4, 159456, Note_off_c, 2, 56, 0
4, 159456, Note_off_c, 2, 49, 0
4, 159456, Note_on_c, 2, 65, 100
4, 159459, Note_on_c, 2, 61, 100
4, 159462, Note_on_c, 2, 56, 100
4, 159465, Note_on_c, 2, 49, 100
4, 159552, Note_off_c, 2, 49, 0
4, 159552, Note_off_c, 2, 56, 0
4, 159552, Note_off_c, 2, 61, 0
4, 159552, Note_off_c, 2, 65, 0
4, 159552, Note_on_c, 2, 56, 100
4, 159552, Note_on_c, 2, 49, 100
4, 159558, Note_on_c, 2, 61, 100
4, 159561, Note_on_c, 2, 65, 100
4, 159648, Note_off_c, 2, 65, 0
4, 159648, Note_off_c, 2, 61, 0
4, 159648, Note_off_c, 2, 49, 0
4, 159648, Note_off_c, 2, 56, 0
4, 159648, Note_on_c, 2, 56, 100
4, 159648, Note_on_c, 2, 61, 100
4, 159648, Note_on_c, 2, 65, 100
4, 159652, Note_on_c, 2, 49, 100
4, 159696, Note_off_c, 2, 49, 0
4, 159696, Note_off_c, 2, 65, 0
4, 159696, Note_off_c, 2, 61, 0
4, 159696, Note_off_c, 2, 56, 0
4, 159696, Note_on_c, 2, 49, 100
4, 159699, Note_on_c, 2, 65, 100
4, 159702, Note_on_c, 2, 61, 100
4, 159705, Note_on_c, 2, 56, 100
4, 159744, Note_off_c, 2, 56, 0
4, 159744, Note_off_c, 2, 61, 0
4, 159744, Note_off_c, 2, 65, 0
4, 159744, Note_off_c, 2, 49, 0
4, 159744, Note_on_c, 2, 67, 100
4, 159747, Note_on_c, 2, 63, 100
4, 159750, Note_on_c, 2, 58, 100
4, 159753, Note_on_c, 2, 55, 100
4, 159756, Note_on_c, 2, 51, 100
4, 159840, Note_off_c, 2, 51, 0
4, 159840, Note_off_c, 2, 55, 0
4, 159840, Note_off_c, 2, 58, 0
4, 159840, Note_off_c, 2, 63, 0
4, 159840, Note_off_c, 2, 67, 0
4, 159840, Note_on_c, 2, 51, 100
4, 159844, Note_on_c, 2, 55, 100
4, 159846, Note_on_c, 2, 58, 100
4, 159849, Note_on_c, 2, 63, 100
4, 159852, Note_on_c, 2, 67, 100
4, 159888, Note_off_c, 2, 67, 0
4, 159888, Note_off_c, 2, 63, 0
4, 159888, Note_off_c, 2, 58, 0
4, 159888, Note_off_c, 2, 55, 0
4, 159888, Note_off_c, 2, 51, 0
4, 159888, Note_on_c, 2, 67, 100
4, 159892, Note_on_c, 2, 63, 100
4, 159894, Note_on_c, 2, 58, 100
4, 159897, Note_on_c, 2, 55, 100
4, 159900, Note_on_c, 2, 51, 100
4, 159936, Note_off_c, 2, 51, 0
4, 159936, Note_off_c, 2, 55, 0
4, 159936, Note_off_c, 2, 58, 0
4, 159936, Note_off_c, 2, 63, 0
4, 159936, Note_off_c, 2, 67, 0
4, 159936, Note_on_c, 2, 51, 100
4, 159939, Note_on_c, 2, 55, 100
4, 159942, Note_on_c, 2, 58, 100
4, 159945, Note_on_c, 2, 63, 100
4, 159948, Note_on_c, 2, 67, 100
4, 160032, Note_off_c, 2, 67, 0
4, 160032, Note_off_c, 2, 63, 0
4, 160032, Note_off_c, 2, 58, 0
4, 160032, Note_off_c, 2, 55, 0
4, 160032, Note_off_c, 2, 51, 0
4, 160032, Note_on_c, 2, 67, 100
4, 160035, Note_on_c, 2, 63, 100
4, 160038, Note_on_c, 2, 58, 100
4, 160041, Note_on_c, 2, 55, 100
4, 160044, Note_on_c, 2, 51, 100
4, 160128, Note_off_c, 2, 51, 0
4, 160128, Note_off_c, 2, 55, 0
4, 160128, Note_off_c, 2, 58, 0
4, 160128, Note_off_c, 2, 63, 0
4, 160128, Note_off_c, 2, 67, 0
4, 160128, Note_on_c, 2, 51, 100
4, 160131, Note_on_c, 2, 55, 100
4, 160134, Note_on_c, 2, 58, 100
4, 160137, Note_on_c, 2, 63, 100
4, 160140, Note_on_c, 2, 67, 100
4, 160224, Note_off_c, 2, 67, 0
4, 160224, Note_off_c, 2, 63, 0
4, 160224, Note_off_c, 2, 58, 0
4, 160224, Note_off_c, 2, 55, 0
4, 160224, Note_off_c, 2, 51, 0
4, 160224, Note_on_c, 2, 49, 100
4, 160227, Note_on_c, 2, 56, 100
4, 160230, Note_on_c, 2, 61, 100
4, 160233, Note_on_c, 2, 65, 100
4, 160272, Note_off_c, 2, 65, 0
4, 160272, Note_off_c, 2, 61, 0
4, 160272, Note_off_c, 2, 56, 0
4, 160272, Note_off_c, 2, 49, 0
4, 160272, Note_on_c, 2, 65, 100
4, 160275, Note_on_c, 2, 61, 100
4, 160278, Note_on_c, 2, 56, 100
4, 160281, Note_on_c, 2, 49, 100
4, 160320, Note_off_c, 2, 49, 0
4, 160320, Note_off_c, 2, 56, 0
4, 160320, Note_off_c, 2, 61, 0
4, 160320, Note_off_c, 2, 65, 0
4, 160320, Note_on_c, 2, 58, 100
4, 160323, Note_on_c, 2, 61, 100
4, 160326, Note_on_c, 2, 66, 100
4, 160329, Note_on_c, 2, 70, 100
4, 160512, Note_off_c, 2, 70, 0
4, 160512, Note_off_c, 2, 66, 0
4, 160512, Note_off_c, 2, 61, 0
4, 160512, Note_off_c, 2, 58, 0
4, 160512, Note_on_c, 2, 70, 100
4, 160515, Note_on_c, 2, 66, 100
4, 160518, Note_on_c, 2, 61, 100
4, 160521, Note_on_c, 2, 58, 100
4, 160608, Note_off_c, 2, 58, 0
4, 160608, Note_off_c, 2, 61, 0
4, 160608, Note_off_c, 2, 66, 0
4, 160608, Note_off_c, 2, 70, 0
4, 160608, Note_on_c, 2, 56, 100
4, 160611, Note_on_c, 2, 59, 100
4, 160614, Note_on_c, 2, 64, 100
4, 160617, Note_on_c, 2, 68, 100
4, 160704, Note_off_c, 2, 68, 0
4, 160704, Note_off_c, 2, 64, 0
4, 160704, Note_off_c, 2, 59, 0
4, 160704, Note_off_c, 2, 56, 0
4, 160704, Note_on_c, 2, 54, 100
4, 160707, Note_on_c, 2, 59, 100
4, 160710, Note_on_c, 2, 63, 100
4, 160713, Note_on_c, 2, 66, 100
4, 160800, Note_off_c, 2, 66, 0
4, 160800, Note_off_c, 2, 63, 0
4, 160800, Note_off_c, 2, 59, 0
4, 160800, Note_off_c, 2, 54, 0
4, 160800, Note_on_c, 2, 66, 100
4, 160803, Note_on_c, 2, 63, 100
4, 160806, Note_on_c, 2, 59, 100
4, 160809, Note_on_c, 2, 54, 100
4, 160848, Note_off_c, 2, 54, 0
4, 160848, Note_off_c, 2, 59, 0
4, 160848, Note_off_c, 2, 63, 0
4, 160848, Note_off_c, 2, 66, 0
4, 160848, Note_on_c, 2, 54, 100
4, 160851, Note_on_c, 2, 59, 100
4, 160854, Note_on_c, 2, 63, 100
4, 160857, Note_on_c, 2, 66, 100
4, 160896, Note_off_c, 2, 66, 0
4, 160896, Note_off_c, 2, 63, 0
4, 160896, Note_off_c, 2, 59, 0
4, 160896, Note_off_c, 2, 54, 0
4, 160896, Note_on_c, 2, 66, 100
4, 160899, Note_on_c, 2, 62, 100
4, 160902, Note_on_c, 2, 57, 100
4, 160905, Note_on_c, 2, 50, 100
4, 160992, Note_off_c, 2, 50, 0
4, 160992, Note_off_c, 2, 57, 0
4, 160992, Note_off_c, 2, 62, 0
4, 160992, Note_off_c, 2, 66, 0
4, 160992, Note_on_c, 2, 50, 100
4, 160995, Note_on_c, 2, 57, 100
4, 160998, Note_on_c, 2, 62, 100
4, 161001, Note_on_c, 2, 66, 100
4, 161088, Note_off_c, 2, 66, 0
4, 161088, Note_off_c, 2, 62, 0
4, 161088, Note_off_c, 2, 57, 0
4, 161088, Note_off_c, 2, 50, 0
4, 161088, Note_on_c, 2, 66, 100
4, 161091, Note_on_c, 2, 62, 100
4, 161094, Note_on_c, 2, 57, 100
4, 161097, Note_on_c, 2, 50, 100
4, 161184, Note_off_c, 2, 50, 0
4, 161184, Note_off_c, 2, 57, 0
4, 161184, Note_off_c, 2, 62, 0
4, 161184, Note_off_c, 2, 66, 0
4, 161184, Note_on_c, 2, 50, 100
4, 161187, Note_on_c, 2, 57, 100
4, 161190, Note_on_c, 2, 62, 100
4, 161193, Note_on_c, 2, 66, 100
4, 161280, Note_off_c, 2, 66, 0
4, 161280, Note_off_c, 2, 62, 0
4, 161280, Note_off_c, 2, 57, 0
4, 161280, Note_off_c, 2, 50, 0
4, 161280, Note_on_c, 2, 67, 100
4, 161284, Note_on_c, 2, 62, 100
4, 161289, Note_on_c, 2, 58, 100
4, 161294, Note_on_c, 2, 55, 100
4, 161299, Note_on_c, 2, 50, 100
4, 161304, Note_on_c, 2, 43, 100
4, 161472, Note_off_c, 2, 43, 0
4, 161472, Note_off_c, 2, 50, 0
4, 161472, Note_off_c, 2, 55, 0
4, 161472, Note_off_c, 2, 58, 0
4, 161472, Note_off_c, 2, 62, 0
4, 161472, Note_off_c, 2, 67, 0
4, 162048, Note_on_c, 2, 65, 100
4, 162051, Note_on_c, 2, 61, 100
4, 162054, Note_on_c, 2, 56, 100
4, 162057, Note_on_c, 2, 49, 100
4, 162240, Note_off_c, 2, 49, 0
4, 162240, Note_off_c, 2, 56, 0
4, 162240, Note_off_c, 2, 61, 0
4, 162240, Note_off_c, 2, 65, 0
4, 162240, Note_on_c, 2, 49, 100
4, 162243, Note_on_c, 2, 56, 100
4, 162246, Note_on_c, 2, 61, 100
4, 162249, Note_on_c, 2, 65, 100
4, 162336, Note_off_c, 2, 65, 0
4, 162336, Note_off_c, 2, 61, 0
4, 162336, Note_off_c, 2, 56, 0
4, 162336, Note_off_c, 2, 49, 0
4, 162336, Note_on_c, 2, 65, 100
4, 162339, Note_on_c, 2, 61, 100
4, 162342, Note_on_c, 2, 56, 100
4, 162345, Note_on_c, 2, 49, 100
4, 162384, Note_off_c, 2, 49, 0
4, 162384, Note_off_c, 2, 56, 0
4, 162384, Note_off_c, 2, 61, 0
4, 162384, Note_off_c, 2, 65, 0
4, 162384, Note_on_c, 2, 49, 100
4, 162387, Note_on_c, 2, 56, 100
4, 162390, Note_on_c, 2, 61, 100
4, 162393, Note_on_c, 2, 65, 100
4, 162432, Note_off_c, 2, 65, 0
4, 162432, Note_off_c, 2, 61, 0
4, 162432, Note_off_c, 2, 56, 0
4, 162432, Note_off_c, 2, 49, 0
4, 162432, Note_on_c, 2, 65, 100
4, 162435, Note_on_c, 2, 61, 100
4, 162438, Note_on_c, 2, 56, 100
4, 162441, Note_on_c, 2, 49, 100
4, 162528, Note_off_c, 2, 49, 0
4, 162528, Note_off_c, 2, 56, 0
4, 162528, Note_off_c, 2, 61, 0
4, 162528, Note_off_c, 2, 65, 0
4, 162528, Note_on_c, 2, 49, 100
4, 162531, Note_on_c, 2, 56, 100
4, 162534, Note_on_c, 2, 61, 100
4, 162537, Note_on_c, 2, 65, 100
4, 162624, Note_off_c, 2, 65, 0
4, 162624, Note_off_c, 2, 61, 0
4, 162624, Note_off_c, 2, 56, 0
4, 162624, Note_off_c, 2, 49, 0
4, 162624, Note_on_c, 2, 65, 100
4, 162627, Note_on_c, 2, 61, 100
4, 162630, Note_on_c, 2, 56, 100
4, 162633, Note_on_c, 2, 49, 100
4, 162816, Note_off_c, 2, 49, 0
4, 162816, Note_off_c, 2, 56, 0
4, 162816, Note_off_c, 2, 61, 0
4, 162816, Note_off_c, 2, 65, 0
4, 162816, Note_on_c, 2, 67, 100
4, 162819, Note_on_c, 2, 63, 100
4, 162822, Note_on_c, 2, 58, 100
4, 162825, Note_on_c, 2, 55, 100
4, 162828, Note_on_c, 2, 51, 100
4, 163008, Note_off_c, 2, 51, 0
4, 163008, Note_off_c, 2, 55, 0
4, 163008, Note_off_c, 2, 58, 0
4, 163008, Note_off_c, 2, 63, 0
4, 163008, Note_off_c, 2, 67, 0
4, 163008, Note_on_c, 2, 51, 100
4, 163011, Note_on_c, 2, 55, 100
4, 163014, Note_on_c, 2, 58, 100
4, 163017, Note_on_c, 2, 63, 100
4, 163020, Note_on_c, 2, 67, 100
4, 163104, Note_off_c, 2, 67, 0
4, 163104, Note_off_c, 2, 63, 0
4, 163104, Note_off_c, 2, 58, 0
4, 163104, Note_off_c, 2, 55, 0
4, 163104, Note_off_c, 2, 51, 0
4, 163104, Note_on_c, 2, 67, 100
4, 163107, Note_on_c, 2, 63, 100
4, 163110, Note_on_c, 2, 58, 100
4, 163113, Note_on_c, 2, 55, 100
4, 163116, Note_on_c, 2, 51, 100
4, 163152, Note_off_c, 2, 51, 0
4, 163152, Note_off_c, 2, 55, 0
4, 163152, Note_off_c, 2, 58, 0
4, 163152, Note_off_c, 2, 63, 0
4, 163152, Note_off_c, 2, 67, 0
4, 163152, Note_on_c, 2, 51, 100
4, 163155, Note_on_c, 2, 55, 100
4, 163156, Note_on_c, 2, 58, 100
4, 163161, Note_on_c, 2, 63, 100
4, 163164, Note_on_c, 2, 67, 100
4, 163200, Note_off_c, 2, 67, 0
4, 163200, Note_off_c, 2, 63, 0
4, 163200, Note_off_c, 2, 58, 0
4, 163200, Note_off_c, 2, 55, 0
4, 163200, Note_off_c, 2, 51, 0
4, 163200, Note_on_c, 2, 67, 100
4, 163203, Note_on_c, 2, 63, 100
4, 163206, Note_on_c, 2, 58, 100
4, 163209, Note_on_c, 2, 55, 100
4, 163212, Note_on_c, 2, 51, 100
4, 163296, Note_off_c, 2, 51, 0
4, 163296, Note_off_c, 2, 55, 0
4, 163296, Note_off_c, 2, 58, 0
4, 163296, Note_off_c, 2, 63, 0
4, 163296, Note_off_c, 2, 67, 0
4, 163296, Note_on_c, 2, 51, 100
4, 163299, Note_on_c, 2, 55, 100
4, 163302, Note_on_c, 2, 58, 100
4, 163305, Note_on_c, 2, 63, 100
4, 163308, Note_on_c, 2, 67, 100
4, 163392, Note_off_c, 2, 67, 0
4, 163392, Note_off_c, 2, 63, 0
4, 163392, Note_off_c, 2, 58, 0
4, 163392, Note_off_c, 2, 55, 0
4, 163392, Note_off_c, 2, 51, 0
4, 163392, Note_on_c, 2, 67, 100
4, 163396, Note_on_c, 2, 63, 100
4, 163398, Note_on_c, 2, 58, 100
4, 163401, Note_on_c, 2, 55, 100
4, 163404, Note_on_c, 2, 51, 100
4, 163488, Note_off_c, 2, 51, 0
4, 163488, Note_off_c, 2, 55, 0
4, 163488, Note_off_c, 2, 58, 0
4, 163488, Note_off_c, 2, 63, 0
4, 163488, Note_off_c, 2, 67, 0
4, 163488, Note_on_c, 2, 51, 100
4, 163491, Note_on_c, 2, 55, 100
4, 163494, Note_on_c, 2, 58, 100
4, 163497, Note_on_c, 2, 63, 100
4, 163500, Note_on_c, 2, 67, 100
4, 163584, Note_off_c, 2, 67, 0
4, 163584, Note_off_c, 2, 63, 0
4, 163584, Note_off_c, 2, 58, 0
4, 163584, Note_off_c, 2, 55, 0
4, 163584, Note_off_c, 2, 51, 0
4, 163584, Note_on_c, 2, 69, 100
4, 163587, Note_on_c, 2, 65, 100
4, 163590, Note_on_c, 2, 60, 100
4, 163593, Note_on_c, 2, 53, 100
4, 163776, Note_off_c, 2, 53, 0
4, 163776, Note_off_c, 2, 60, 0
4, 163776, Note_off_c, 2, 65, 0
4, 163776, Note_off_c, 2, 69, 0
4, 163776, Note_on_c, 2, 53, 100
4, 163779, Note_on_c, 2, 60, 100
4, 163782, Note_on_c, 2, 65, 100
4, 163785, Note_on_c, 2, 69, 100
4, 163872, Note_off_c, 2, 69, 0
4, 163872, Note_off_c, 2, 65, 0
4, 163872, Note_off_c, 2, 60, 0
4, 163872, Note_off_c, 2, 53, 0
4, 163872, Note_on_c, 2, 53, 100
4, 163875, Note_on_c, 2, 60, 100
4, 163878, Note_on_c, 2, 65, 100
4, 163881, Note_on_c, 2, 69, 100
4, 163920, Note_off_c, 2, 69, 0
4, 163920, Note_off_c, 2, 65, 0
4, 163920, Note_off_c, 2, 60, 0
4, 163920, Note_off_c, 2, 53, 0
4, 163920, Note_on_c, 2, 69, 100
4, 163923, Note_on_c, 2, 65, 100
4, 163926, Note_on_c, 2, 60, 100
4, 163929, Note_on_c, 2, 53, 100
4, 163968, Note_off_c, 2, 53, 0
4, 163968, Note_off_c, 2, 60, 0
4, 163968, Note_off_c, 2, 65, 0
4, 163968, Note_off_c, 2, 69, 0
4, 163968, Note_on_c, 2, 53, 100
4, 163968, Note_on_c, 2, 65, 100
4, 163971, Note_on_c, 2, 60, 100
4, 163977, Note_on_c, 2, 69, 100
4, 164064, Note_off_c, 2, 69, 0
4, 164064, Note_off_c, 2, 60, 0
4, 164064, Note_off_c, 2, 65, 0
4, 164064, Note_off_c, 2, 53, 0
4, 164064, Note_on_c, 2, 69, 100
4, 164067, Note_on_c, 2, 65, 100
4, 164070, Note_on_c, 2, 60, 100
4, 164073, Note_on_c, 2, 53, 100
4, 164160, Note_off_c, 2, 53, 0
4, 164160, Note_off_c, 2, 60, 0
4, 164160, Note_off_c, 2, 65, 0
4, 164160, Note_off_c, 2, 69, 0
4, 164160, Note_on_c, 2, 51, 100
4, 164163, Note_on_c, 2, 55, 100
4, 164166, Note_on_c, 2, 58, 100
4, 164169, Note_on_c, 2, 63, 100
4, 164172, Note_on_c, 2, 67, 100
4, 164256, Note_off_c, 2, 67, 0
4, 164256, Note_off_c, 2, 63, 0
4, 164256, Note_off_c, 2, 58, 0
4, 164256, Note_off_c, 2, 55, 0
4, 164256, Note_off_c, 2, 51, 0
4, 164256, Note_on_c, 2, 69, 100
4, 164259, Note_on_c, 2, 65, 100
4, 164262, Note_on_c, 2, 60, 100
4, 164265, Note_on_c, 2, 53, 100
4, 164352, Note_off_c, 2, 53, 0
4, 164352, Note_off_c, 2, 60, 0
4, 164352, Note_off_c, 2, 65, 0
4, 164352, Note_off_c, 2, 69, 0
4, 164352, Note_on_c, 2, 67, 100
4, 164355, Note_on_c, 2, 63, 100
4, 164358, Note_on_c, 2, 58, 100
4, 164361, Note_on_c, 2, 55, 100
4, 164364, Note_on_c, 2, 51, 100
4, 164448, Note_off_c, 2, 51, 0
4, 164448, Note_off_c, 2, 55, 0
4, 164448, Note_off_c, 2, 58, 0
4, 164448, Note_off_c, 2, 63, 0
4, 164448, Note_off_c, 2, 67, 0
4, 164448, Note_on_c, 2, 53, 100
4, 164451, Note_on_c, 2, 60, 100
4, 164454, Note_on_c, 2, 65, 100
4, 164457, Note_on_c, 2, 69, 100
4, 164544, Note_off_c, 2, 69, 0
4, 164544, Note_off_c, 2, 65, 0
4, 164544, Note_off_c, 2, 60, 0
4, 164544, Note_off_c, 2, 53, 0
4, 164544, Note_on_c, 2, 70, 100
4, 164547, Note_on_c, 2, 66, 100
4, 164550, Note_on_c, 2, 61, 100
4, 164553, Note_on_c, 2, 58, 100
4, 164640, Note_off_c, 2, 58, 0
4, 164640, Note_off_c, 2, 61, 0
4, 164640, Note_off_c, 2, 66, 0
4, 164640, Note_off_c, 2, 70, 0
4, 164640, Note_on_c, 2, 58, 100
4, 164643, Note_on_c, 2, 61, 100
4, 164646, Note_on_c, 2, 66, 100
4, 164649, Note_on_c, 2, 70, 100
4, 164688, Note_off_c, 2, 70, 0
4, 164688, Note_off_c, 2, 66, 0
4, 164688, Note_off_c, 2, 61, 0
4, 164688, Note_off_c, 2, 58, 0
4, 164688, Note_on_c, 2, 70, 100
4, 164691, Note_on_c, 2, 66, 100
4, 164694, Note_on_c, 2, 61, 100
4, 164697, Note_on_c, 2, 58, 100
4, 164736, Note_off_c, 2, 58, 0
4, 164736, Note_off_c, 2, 61, 0
4, 164736, Note_off_c, 2, 66, 0
4, 164736, Note_off_c, 2, 70, 0
4, 164736, Note_on_c, 2, 49, 100
4, 164739, Note_on_c, 2, 56, 100
4, 164742, Note_on_c, 2, 61, 100
4, 164745, Note_on_c, 2, 65, 100
4, 164832, Note_off_c, 2, 65, 0
4, 164832, Note_off_c, 2, 61, 0
4, 164832, Note_off_c, 2, 56, 0
4, 164832, Note_off_c, 2, 49, 0
4, 164832, Note_on_c, 2, 65, 100
4, 164835, Note_on_c, 2, 61, 100
4, 164838, Note_on_c, 2, 56, 100
4, 164841, Note_on_c, 2, 49, 100
4, 164928, Note_off_c, 2, 49, 0
4, 164928, Note_off_c, 2, 56, 0
4, 164928, Note_off_c, 2, 61, 0
4, 164928, Note_off_c, 2, 65, 0
4, 164928, Note_on_c, 2, 56, 100
4, 164928, Note_on_c, 2, 49, 100
4, 164934, Note_on_c, 2, 61, 100
4, 164937, Note_on_c, 2, 65, 100
4, 165024, Note_off_c, 2, 65, 0
4, 165024, Note_off_c, 2, 61, 0
4, 165024, Note_off_c, 2, 49, 0
4, 165024, Note_off_c, 2, 56, 0
4, 165024, Note_on_c, 2, 56, 100
4, 165024, Note_on_c, 2, 61, 100
4, 165024, Note_on_c, 2, 65, 100
4, 165028, Note_on_c, 2, 49, 100
4, 165072, Note_off_c, 2, 49, 0
4, 165072, Note_off_c, 2, 65, 0
4, 165072, Note_off_c, 2, 61, 0
4, 165072, Note_off_c, 2, 56, 0
4, 165072, Note_on_c, 2, 49, 100
4, 165075, Note_on_c, 2, 65, 100
4, 165078, Note_on_c, 2, 61, 100
4, 165081, Note_on_c, 2, 56, 100
4, 165120, Note_off_c, 2, 56, 0
4, 165120, Note_off_c, 2, 61, 0
4, 165120, Note_off_c, 2, 65, 0
4, 165120, Note_off_c, 2, 49, 0
4, 165120, Note_on_c, 2, 67, 100
4, 165123, Note_on_c, 2, 63, 100
4, 165126, Note_on_c, 2, 58, 100
4, 165129, Note_on_c, 2, 55, 100
4, 165132, Note_on_c, 2, 51, 100
4, 165216, Note_off_c, 2, 51, 0
4, 165216, Note_off_c, 2, 55, 0
4, 165216, Note_off_c, 2, 58, 0
4, 165216, Note_off_c, 2, 63, 0
4, 165216, Note_off_c, 2, 67, 0
4, 165216, Note_on_c, 2, 51, 100
4, 165220, Note_on_c, 2, 55, 100
4, 165222, Note_on_c, 2, 58, 100
4, 165225, Note_on_c, 2, 63, 100
4, 165228, Note_on_c, 2, 67, 100
4, 165264, Note_off_c, 2, 67, 0
4, 165264, Note_off_c, 2, 63, 0
4, 165264, Note_off_c, 2, 58, 0
4, 165264, Note_off_c, 2, 55, 0
4, 165264, Note_off_c, 2, 51, 0
4, 165264, Note_on_c, 2, 67, 100
4, 165268, Note_on_c, 2, 63, 100
4, 165270, Note_on_c, 2, 58, 100
4, 165273, Note_on_c, 2, 55, 100
4, 165276, Note_on_c, 2, 51, 100
4, 165312, Note_off_c, 2, 51, 0
4, 165312, Note_off_c, 2, 55, 0
4, 165312, Note_off_c, 2, 58, 0
4, 165312, Note_off_c, 2, 63, 0
4, 165312, Note_off_c, 2, 67, 0
4, 165312, Note_on_c, 2, 51, 100
4, 165315, Note_on_c, 2, 55, 100
4, 165318, Note_on_c, 2, 58, 100
4, 165321, Note_on_c, 2, 63, 100
4, 165324, Note_on_c, 2, 67, 100
4, 165408, Note_off_c, 2, 67, 0
4, 165408, Note_off_c, 2, 63, 0
4, 165408, Note_off_c, 2, 58, 0
4, 165408, Note_off_c, 2, 55, 0
4, 165408, Note_off_c, 2, 51, 0
4, 165408, Note_on_c, 2, 67, 100
4, 165411, Note_on_c, 2, 63, 100
4, 165414, Note_on_c, 2, 58, 100
4, 165417, Note_on_c, 2, 55, 100
4, 165420, Note_on_c, 2, 51, 100
4, 165504, Note_off_c, 2, 51, 0
4, 165504, Note_off_c, 2, 55, 0
4, 165504, Note_off_c, 2, 58, 0
4, 165504, Note_off_c, 2, 63, 0
4, 165504, Note_off_c, 2, 67, 0
4, 165504, Note_on_c, 2, 51, 100
4, 165507, Note_on_c, 2, 55, 100
4, 165510, Note_on_c, 2, 58, 100
4, 165513, Note_on_c, 2, 63, 100
4, 165516, Note_on_c, 2, 67, 100
4, 165600, Note_off_c, 2, 67, 0
4, 165600, Note_off_c, 2, 63, 0
4, 165600, Note_off_c, 2, 58, 0
4, 165600, Note_off_c, 2, 55, 0
4, 165600, Note_off_c, 2, 51, 0
4, 165600, Note_on_c, 2, 49, 100
4, 165603, Note_on_c, 2, 56, 100
4, 165606, Note_on_c, 2, 61, 100
4, 165609, Note_on_c, 2, 65, 100
4, 165648, Note_off_c, 2, 65, 0
4, 165648, Note_off_c, 2, 61, 0
4, 165648, Note_off_c, 2, 56, 0
4, 165648, Note_off_c, 2, 49, 0
4, 165648, Note_on_c, 2, 65, 100
4, 165651, Note_on_c, 2, 61, 100
4, 165654, Note_on_c, 2, 56, 100
4, 165657, Note_on_c, 2, 49, 100
4, 165696, Note_off_c, 2, 49, 0
4, 165696, Note_off_c, 2, 56, 0
4, 165696, Note_off_c, 2, 61, 0
4, 165696, Note_off_c, 2, 65, 0
4, 165696, Note_on_c, 2, 58, 100
4, 165699, Note_on_c, 2, 61, 100
4, 165702, Note_on_c, 2, 66, 100
4, 165705, Note_on_c, 2, 70, 100
4, 165888, Note_off_c, 2, 70, 0
4, 165888, Note_off_c, 2, 66, 0
4, 165888, Note_off_c, 2, 61, 0
4, 165888, Note_off_c, 2, 58, 0
4, 165888, Note_on_c, 2, 70, 100
4, 165891, Note_on_c, 2, 66, 100
4, 165894, Note_on_c, 2, 61, 100
4, 165897, Note_on_c, 2, 58, 100
4, 165984, Note_off_c, 2, 58, 0
4, 165984, Note_off_c, 2, 61, 0
4, 165984, Note_off_c, 2, 66, 0
4, 165984, Note_off_c, 2, 70, 0
4, 165984, Note_on_c, 2, 56, 100
4, 165987, Note_on_c, 2, 59, 100
4, 165990, Note_on_c, 2, 64, 100
4, 165993, Note_on_c, 2, 68, 100
4, 166080, Note_off_c, 2, 68, 0
4, 166080, Note_off_c, 2, 64, 0
4, 166080, Note_off_c, 2, 59, 0
4, 166080, Note_off_c, 2, 56, 0
4, 166080, Note_on_c, 2, 54, 100
4, 166083, Note_on_c, 2, 59, 100
4, 166086, Note_on_c, 2, 63, 100
4, 166089, Note_on_c, 2, 66, 100
4, 166176, Note_off_c, 2, 66, 0
4, 166176, Note_off_c, 2, 63, 0
4, 166176, Note_off_c, 2, 59, 0
4, 166176, Note_off_c, 2, 54, 0
4, 166176, Note_on_c, 2, 66, 100
4, 166179, Note_on_c, 2, 63, 100
4, 166182, Note_on_c, 2, 59, 100
4, 166185, Note_on_c, 2, 54, 100
4, 166224, Note_off_c, 2, 54, 0
4, 166224, Note_off_c, 2, 59, 0
4, 166224, Note_off_c, 2, 63, 0
4, 166224, Note_off_c, 2, 66, 0
4, 166224, Note_on_c, 2, 54, 100
4, 166227, Note_on_c, 2, 59, 100
4, 166230, Note_on_c, 2, 63, 100
4, 166233, Note_on_c, 2, 66, 100
4, 166272, Note_off_c, 2, 66, 0
4, 166272, Note_off_c, 2, 63, 0
4, 166272, Note_off_c, 2, 59, 0
4, 166272, Note_off_c, 2, 54, 0
4, 166272, Note_on_c, 2, 66, 100
4, 166275, Note_on_c, 2, 62, 100
4, 166278, Note_on_c, 2, 57, 100
4, 166281, Note_on_c, 2, 50, 100
4, 166368, Note_off_c, 2, 50, 0
4, 166368, Note_off_c, 2, 57, 0
4, 166368, Note_off_c, 2, 62, 0
4, 166368, Note_off_c, 2, 66, 0
4, 166368, Note_on_c, 2, 50, 100
4, 166371, Note_on_c, 2, 57, 100
4, 166374, Note_on_c, 2, 62, 100
4, 166377, Note_on_c, 2, 66, 100
4, 166464, Note_off_c, 2, 66, 0
4, 166464, Note_off_c, 2, 62, 0
4, 166464, Note_off_c, 2, 57, 0
4, 166464, Note_off_c, 2, 50, 0
4, 166464, Note_on_c, 2, 66, 100
4, 166467, Note_on_c, 2, 62, 100
4, 166470, Note_on_c, 2, 57, 100
4, 166473, Note_on_c, 2, 50, 100
4, 166560, Note_off_c, 2, 50, 0
4, 166560, Note_off_c, 2, 57, 0
4, 166560, Note_off_c, 2, 62, 0
4, 166560, Note_off_c, 2, 66, 0
4, 166560, Note_on_c, 2, 50, 100
4, 166563, Note_on_c, 2, 57, 100
4, 166566, Note_on_c, 2, 62, 100
4, 166569, Note_on_c, 2, 66, 100
4, 166656, Note_off_c, 2, 66, 0
4, 166656, Note_off_c, 2, 62, 0
4, 166656, Note_off_c, 2, 57, 0
4, 166656, Note_off_c, 2, 50, 0
4, 166656, Note_on_c, 2, 67, 100
4, 166660, Note_on_c, 2, 62, 100
4, 166665, Note_on_c, 2, 58, 100
4, 166670, Note_on_c, 2, 55, 100
4, 166675, Note_on_c, 2, 50, 100
4, 166680, Note_on_c, 2, 43, 100
4, 166848, Note_off_c, 2, 43, 0
4, 166848, Note_off_c, 2, 50, 0
4, 166848, Note_off_c, 2, 55, 0
4, 166848, Note_off_c, 2, 58, 0
4, 166848, Note_off_c, 2, 62, 0
4, 166848, Note_off_c, 2, 67, 0
4, 167424, Note_on_c, 2, 65, 100
4, 167427, Note_on_c, 2, 61, 100
4, 167430, Note_on_c, 2, 56, 100
4, 167433, Note_on_c, 2, 49, 100
4, 167616, Note_off_c, 2, 49, 0
4, 167616, Note_off_c, 2, 56, 0
4, 167616, Note_off_c, 2, 61, 0
4, 167616, Note_off_c, 2, 65, 0
4, 167616, Note_on_c, 2, 49, 100
4, 167619, Note_on_c, 2, 56, 100
4, 167622, Note_on_c, 2, 61, 100
4, 167625, Note_on_c, 2, 65, 100
4, 167712, Note_off_c, 2, 65, 0
4, 167712, Note_off_c, 2, 61, 0
4, 167712, Note_off_c, 2, 56, 0
4, 167712, Note_off_c, 2, 49, 0
4, 167712, Note_on_c, 2, 65, 100
4, 167715, Note_on_c, 2, 61, 100
4, 167718, Note_on_c, 2, 56, 100
4, 167721, Note_on_c, 2, 49, 100
4, 167760, Note_off_c, 2, 49, 0
4, 167760, Note_off_c, 2, 56, 0
4, 167760, Note_off_c, 2, 61, 0
4, 167760, Note_off_c, 2, 65, 0
4, 167760, Note_on_c, 2, 49, 100
4, 167763, Note_on_c, 2, 56, 100
4, 167766, Note_on_c, 2, 61, 100
4, 167769, Note_on_c, 2, 65, 100
4, 167808, Note_off_c, 2, 65, 0
4, 167808, Note_off_c, 2, 61, 0
4, 167808, Note_off_c, 2, 56, 0
4, 167808, Note_off_c, 2, 49, 0
4, 167808, Note_on_c, 2, 65, 100
4, 167811, Note_on_c, 2, 61, 100
4, 167814, Note_on_c, 2, 56, 100
4, 167817, Note_on_c, 2, 49, 100
4, 167904, Note_off_c, 2, 49, 0
4, 167904, Note_off_c, 2, 56, 0
4, 167904, Note_off_c, 2, 61, 0
4, 167904, Note_off_c, 2, 65, 0
4, 167904, Note_on_c, 2, 49, 100
4, 167907, Note_on_c, 2, 56, 100
4, 167910, Note_on_c, 2, 61, 100
4, 167913, Note_on_c, 2, 65, 100
4, 168000, Note_off_c, 2, 65, 0
4, 168000, Note_off_c, 2, 61, 0
4, 168000, Note_off_c, 2, 56, 0
4, 168000, Note_off_c, 2, 49, 0
4, 168000, Note_on_c, 2, 65, 100
4, 168003, Note_on_c, 2, 61, 100
4, 168006, Note_on_c, 2, 56, 100
4, 168009, Note_on_c, 2, 49, 100
4, 168192, Note_off_c, 2, 49, 0
4, 168192, Note_off_c, 2, 56, 0
4, 168192, Note_off_c, 2, 61, 0
4, 168192, Note_off_c, 2, 65, 0
4, 168192, Note_on_c, 2, 67, 100
4, 168195, Note_on_c, 2, 63, 100
4, 168198, Note_on_c, 2, 58, 100
4, 168201, Note_on_c, 2, 55, 100
4, 168204, Note_on_c, 2, 51, 100
4, 168384, Note_off_c, 2, 51, 0
4, 168384, Note_off_c, 2, 55, 0
4, 168384, Note_off_c, 2, 58, 0
4, 168384, Note_off_c, 2, 63, 0
4, 168384, Note_off_c, 2, 67, 0
4, 168384, Note_on_c, 2, 51, 100
4, 168387, Note_on_c, 2, 55, 100
4, 168390, Note_on_c, 2, 58, 100
4, 168393, Note_on_c, 2, 63, 100
4, 168396, Note_on_c, 2, 67, 100
4, 168480, Note_off_c, 2, 67, 0
4, 168480, Note_off_c, 2, 63, 0
4, 168480, Note_off_c, 2, 58, 0
4, 168480, Note_off_c, 2, 55, 0
4, 168480, Note_off_c, 2, 51, 0
4, 168480, Note_on_c, 2, 67, 100
4, 168483, Note_on_c, 2, 63, 100
4, 168486, Note_on_c, 2, 58, 100
4, 168489, Note_on_c, 2, 55, 100
4, 168492, Note_on_c, 2, 51, 100
4, 168528, Note_off_c, 2, 51, 0
4, 168528, Note_off_c, 2, 55, 0
4, 168528, Note_off_c, 2, 58, 0
4, 168528, Note_off_c, 2, 63, 0
4, 168528, Note_off_c, 2, 67, 0
4, 168528, Note_on_c, 2, 51, 100
4, 168531, Note_on_c, 2, 55, 100
4, 168532, Note_on_c, 2, 58, 100
4, 168537, Note_on_c, 2, 63, 100
4, 168540, Note_on_c, 2, 67, 100
4, 168576, Note_off_c, 2, 67, 0
4, 168576, Note_off_c, 2, 63, 0
4, 168576, Note_off_c, 2, 58, 0
4, 168576, Note_off_c, 2, 55, 0
4, 168576, Note_off_c, 2, 51, 0
4, 168576, Note_on_c, 2, 67, 100
4, 168579, Note_on_c, 2, 63, 100
4, 168582, Note_on_c, 2, 58, 100
4, 168585, Note_on_c, 2, 55, 100
4, 168588, Note_on_c, 2, 51, 100
4, 168672, Note_off_c, 2, 51, 0
4, 168672, Note_off_c, 2, 55, 0
4, 168672, Note_off_c, 2, 58, 0
4, 168672, Note_off_c, 2, 63, 0
4, 168672, Note_off_c, 2, 67, 0
4, 168672, Note_on_c, 2, 51, 100
4, 168675, Note_on_c, 2, 55, 100
4, 168678, Note_on_c, 2, 58, 100
4, 168681, Note_on_c, 2, 63, 100
4, 168684, Note_on_c, 2, 67, 100
4, 168768, Note_off_c, 2, 67, 0
4, 168768, Note_off_c, 2, 63, 0
4, 168768, Note_off_c, 2, 58, 0
4, 168768, Note_off_c, 2, 55, 0
4, 168768, Note_off_c, 2, 51, 0
4, 168768, Note_on_c, 2, 67, 100
4, 168772, Note_on_c, 2, 63, 100
4, 168774, Note_on_c, 2, 58, 100
4, 168777, Note_on_c, 2, 55, 100
4, 168780, Note_on_c, 2, 51, 100
4, 168864, Note_off_c, 2, 51, 0
4, 168864, Note_off_c, 2, 55, 0
4, 168864, Note_off_c, 2, 58, 0
4, 168864, Note_off_c, 2, 63, 0
4, 168864, Note_off_c, 2, 67, 0
4, 168864, Note_on_c, 2, 51, 100
4, 168867, Note_on_c, 2, 55, 100
4, 168870, Note_on_c, 2, 58, 100
4, 168873, Note_on_c, 2, 63, 100
4, 168876, Note_on_c, 2, 67, 100
4, 168960, Note_off_c, 2, 67, 0
4, 168960, Note_off_c, 2, 63, 0
4, 168960, Note_off_c, 2, 58, 0
4, 168960, Note_off_c, 2, 55, 0
4, 168960, Note_off_c, 2, 51, 0
4, 168960, Note_on_c, 2, 69, 100
4, 168963, Note_on_c, 2, 65, 100
4, 168966, Note_on_c, 2, 60, 100
4, 168969, Note_on_c, 2, 53, 100
4, 169152, Note_off_c, 2, 53, 0
4, 169152, Note_off_c, 2, 60, 0
4, 169152, Note_off_c, 2, 65, 0
4, 169152, Note_off_c, 2, 69, 0
4, 169152, Note_on_c, 2, 53, 100
4, 169155, Note_on_c, 2, 60, 100
4, 169158, Note_on_c, 2, 65, 100
4, 169161, Note_on_c, 2, 69, 100
4, 169248, Note_off_c, 2, 69, 0
4, 169248, Note_off_c, 2, 65, 0
4, 169248, Note_off_c, 2, 60, 0
4, 169248, Note_off_c, 2, 53, 0
4, 169248, Note_on_c, 2, 53, 100
4, 169251, Note_on_c, 2, 60, 100
4, 169254, Note_on_c, 2, 65, 100
4, 169257, Note_on_c, 2, 69, 100
4, 169296, Note_off_c, 2, 69, 0
4, 169296, Note_off_c, 2, 65, 0
4, 169296, Note_off_c, 2, 60, 0
4, 169296, Note_off_c, 2, 53, 0
4, 169296, Note_on_c, 2, 69, 100
4, 169299, Note_on_c, 2, 65, 100
4, 169302, Note_on_c, 2, 60, 100
4, 169305, Note_on_c, 2, 53, 100
4, 169344, Note_off_c, 2, 53, 0
4, 169344, Note_off_c, 2, 60, 0
4, 169344, Note_off_c, 2, 65, 0
4, 169344, Note_off_c, 2, 69, 0
4, 169344, Note_on_c, 2, 53, 100
4, 169344, Note_on_c, 2, 65, 100
4, 169347, Note_on_c, 2, 60, 100
4, 169353, Note_on_c, 2, 69, 100
4, 169440, Note_off_c, 2, 69, 0
4, 169440, Note_off_c, 2, 60, 0
4, 169440, Note_off_c, 2, 65, 0
4, 169440, Note_off_c, 2, 53, 0
4, 169440, Note_on_c, 2, 69, 100
4, 169443, Note_on_c, 2, 65, 100
4, 169446, Note_on_c, 2, 60, 100
4, 169449, Note_on_c, 2, 53, 100
4, 169536, Note_off_c, 2, 53, 0
4, 169536, Note_off_c, 2, 60, 0
4, 169536, Note_off_c, 2, 65, 0
4, 169536, Note_off_c, 2, 69, 0
4, 169536, Note_on_c, 2, 51, 100
4, 169539, Note_on_c, 2, 55, 100
4, 169542, Note_on_c, 2, 58, 100
4, 169545, Note_on_c, 2, 63, 100
4, 169548, Note_on_c, 2, 67, 100
4, 169632, Note_off_c, 2, 67, 0
4, 169632, Note_off_c, 2, 63, 0
4, 169632, Note_off_c, 2, 58, 0
4, 169632, Note_off_c, 2, 55, 0
4, 169632, Note_off_c, 2, 51, 0
4, 169632, Note_on_c, 2, 69, 100
4, 169635, Note_on_c, 2, 65, 100
4, 169638, Note_on_c, 2, 60, 100
4, 169641, Note_on_c, 2, 53, 100
4, 169728, Note_off_c, 2, 53, 0
4, 169728, Note_off_c, 2, 60, 0
4, 169728, Note_off_c, 2, 65, 0
4, 169728, Note_off_c, 2, 69, 0
4, 169728, Note_on_c, 2, 67, 100
4, 169731, Note_on_c, 2, 63, 100
4, 169734, Note_on_c, 2, 58, 100
4, 169737, Note_on_c, 2, 55, 100
4, 169740, Note_on_c, 2, 51, 100
4, 169824, Note_off_c, 2, 51, 0
4, 169824, Note_off_c, 2, 55, 0
4, 169824, Note_off_c, 2, 58, 0
4, 169824, Note_off_c, 2, 63, 0
4, 169824, Note_off_c, 2, 67, 0
4, 169824, Note_on_c, 2, 53, 100
4, 169827, Note_on_c, 2, 60, 100
4, 169830, Note_on_c, 2, 65, 100
4, 169833, Note_on_c, 2, 69, 100
4, 169920, Note_off_c, 2, 69, 0
4, 169920, Note_off_c, 2, 65, 0
4, 169920, Note_off_c, 2, 60, 0
4, 169920, Note_off_c, 2, 53, 0
4, 169920, Note_on_c, 2, 70, 100
4, 169923, Note_on_c, 2, 66, 100
4, 169926, Note_on_c, 2, 61, 100
4, 169929, Note_on_c, 2, 58, 100
4, 170016, Note_off_c, 2, 58, 0
4, 170016, Note_off_c, 2, 61, 0
4, 170016, Note_off_c, 2, 66, 0
4, 170016, Note_off_c, 2, 70, 0
4, 170016, Note_on_c, 2, 58, 100
4, 170019, Note_on_c, 2, 61, 100
4, 170022, Note_on_c, 2, 66, 100
4, 170025, Note_on_c, 2, 70, 100
4, 170064, Note_off_c, 2, 70, 0
4, 170064, Note_off_c, 2, 66, 0
4, 170064, Note_off_c, 2, 61, 0
4, 170064, Note_off_c, 2, 58, 0
4, 170064, Note_on_c, 2, 70, 100
4, 170067, Note_on_c, 2, 66, 100
4, 170070, Note_on_c, 2, 61, 100
4, 170073, Note_on_c, 2, 58, 100
4, 170112, Note_off_c, 2, 58, 0
4, 170112, Note_off_c, 2, 61, 0
4, 170112, Note_off_c, 2, 66, 0
4, 170112, Note_off_c, 2, 70, 0
4, 170112, Note_on_c, 2, 49, 100
4, 170115, Note_on_c, 2, 56, 100
4, 170118, Note_on_c, 2, 61, 100
4, 170121, Note_on_c, 2, 65, 100
4, 170208, Note_off_c, 2, 65, 0
4, 170208, Note_off_c, 2, 61, 0
4, 170208, Note_off_c, 2, 56, 0
4, 170208, Note_off_c, 2, 49, 0
4, 170208, Note_on_c, 2, 65, 100
4, 170211, Note_on_c, 2, 61, 100
4, 170214, Note_on_c, 2, 56, 100
4, 170217, Note_on_c, 2, 49, 100
4, 170304, Note_off_c, 2, 49, 0
4, 170304, Note_off_c, 2, 56, 0
4, 170304, Note_off_c, 2, 61, 0
4, 170304, Note_off_c, 2, 65, 0
4, 170304, Note_on_c, 2, 56, 100
4, 170304, Note_on_c, 2, 49, 100
4, 170310, Note_on_c, 2, 61, 100
4, 170313, Note_on_c, 2, 65, 100
4, 170400, Note_off_c, 2, 65, 0
4, 170400, Note_off_c, 2, 61, 0
4, 170400, Note_off_c, 2, 49, 0
4, 170400, Note_off_c, 2, 56, 0
4, 170400, Note_on_c, 2, 56, 100
4, 170400, Note_on_c, 2, 61, 100
4, 170400, Note_on_c, 2, 65, 100
4, 170404, Note_on_c, 2, 49, 100
4, 170448, Note_off_c, 2, 49, 0
4, 170448, Note_off_c, 2, 65, 0
4, 170448, Note_off_c, 2, 61, 0
4, 170448, Note_off_c, 2, 56, 0
4, 170448, Note_on_c, 2, 49, 100
4, 170451, Note_on_c, 2, 65, 100
4, 170454, Note_on_c, 2, 61, 100
4, 170457, Note_on_c, 2, 56, 100
4, 170496, Note_off_c, 2, 56, 0
4, 170496, Note_off_c, 2, 61, 0
4, 170496, Note_off_c, 2, 65, 0
4, 170496, Note_off_c, 2, 49, 0
4, 170496, Note_on_c, 2, 67, 100
4, 170499, Note_on_c, 2, 63, 100
4, 170502, Note_on_c, 2, 58, 100
4, 170505, Note_on_c, 2, 55, 100
4, 170508, Note_on_c, 2, 51, 100
4, 170592, Note_off_c, 2, 51, 0
4, 170592, Note_off_c, 2, 55, 0
4, 170592, Note_off_c, 2, 58, 0
4, 170592, Note_off_c, 2, 63, 0
4, 170592, Note_off_c, 2, 67, 0
4, 170592, Note_on_c, 2, 51, 100
4, 170596, Note_on_c, 2, 55, 100
4, 170598, Note_on_c, 2, 58, 100
4, 170601, Note_on_c, 2, 63, 100
4, 170604, Note_on_c, 2, 67, 100
4, 170640, Note_off_c, 2, 67, 0
4, 170640, Note_off_c, 2, 63, 0
4, 170640, Note_off_c, 2, 58, 0
4, 170640, Note_off_c, 2, 55, 0
4, 170640, Note_off_c, 2, 51, 0
4, 170640, Note_on_c, 2, 67, 100
4, 170644, Note_on_c, 2, 63, 100
4, 170646, Note_on_c, 2, 58, 100
4, 170649, Note_on_c, 2, 55, 100
4, 170652, Note_on_c, 2, 51, 100
4, 170688, Note_off_c, 2, 51, 0
4, 170688, Note_off_c, 2, 55, 0
4, 170688, Note_off_c, 2, 58, 0
4, 170688, Note_off_c, 2, 63, 0
4, 170688, Note_off_c, 2, 67, 0
4, 170688, Note_on_c, 2, 51, 100
4, 170691, Note_on_c, 2, 55, 100
4, 170694, Note_on_c, 2, 58, 100
4, 170697, Note_on_c, 2, 63, 100
4, 170700, Note_on_c, 2, 67, 100
4, 170784, Note_off_c, 2, 67, 0
4, 170784, Note_off_c, 2, 63, 0
4, 170784, Note_off_c, 2, 58, 0
4, 170784, Note_off_c, 2, 55, 0
4, 170784, Note_off_c, 2, 51, 0
4, 170784, Note_on_c, 2, 67, 100
4, 170787, Note_on_c, 2, 63, 100
4, 170790, Note_on_c, 2, 58, 100
4, 170793, Note_on_c, 2, 55, 100
4, 170796, Note_on_c, 2, 51, 100
4, 170880, Note_off_c, 2, 51, 0
4, 170880, Note_off_c, 2, 55, 0
4, 170880, Note_off_c, 2, 58, 0
4, 170880, Note_off_c, 2, 63, 0
4, 170880, Note_off_c, 2, 67, 0
4, 170880, Note_on_c, 2, 51, 100
4, 170883, Note_on_c, 2, 55, 100
4, 170886, Note_on_c, 2, 58, 100
4, 170889, Note_on_c, 2, 63, 100
4, 170892, Note_on_c, 2, 67, 100
4, 170976, Note_off_c, 2, 67, 0
4, 170976, Note_off_c, 2, 63, 0
4, 170976, Note_off_c, 2, 58, 0
4, 170976, Note_off_c, 2, 55, 0
4, 170976, Note_off_c, 2, 51, 0
4, 170976, Note_on_c, 2, 49, 100
4, 170979, Note_on_c, 2, 56, 100
4, 170982, Note_on_c, 2, 61, 100
4, 170985, Note_on_c, 2, 65, 100
4, 171024, Note_off_c, 2, 65, 0
4, 171024, Note_off_c, 2, 61, 0
4, 171024, Note_off_c, 2, 56, 0
4, 171024, Note_off_c, 2, 49, 0
4, 171024, Note_on_c, 2, 65, 100
4, 171027, Note_on_c, 2, 61, 100
4, 171030, Note_on_c, 2, 56, 100
4, 171033, Note_on_c, 2, 49, 100
4, 171072, Note_off_c, 2, 49, 0
4, 171072, Note_off_c, 2, 56, 0
4, 171072, Note_off_c, 2, 61, 0
4, 171072, Note_off_c, 2, 65, 0
4, 171072, Note_on_c, 2, 58, 100
4, 171075, Note_on_c, 2, 61, 100
4, 171078, Note_on_c, 2, 66, 100
4, 171081, Note_on_c, 2, 70, 100
4, 171264, Note_off_c, 2, 70, 0
4, 171264, Note_off_c, 2, 66, 0
4, 171264, Note_off_c, 2, 61, 0
4, 171264, Note_off_c, 2, 58, 0
4, 171264, Note_on_c, 2, 70, 100
4, 171267, Note_on_c, 2, 66, 100
4, 171270, Note_on_c, 2, 61, 100
4, 171273, Note_on_c, 2, 58, 100
4, 171360, Note_off_c, 2, 58, 0
4, 171360, Note_off_c, 2, 61, 0
4, 171360, Note_off_c, 2, 66, 0
4, 171360, Note_off_c, 2, 70, 0
4, 171360, Note_on_c, 2, 56, 100
4, 171363, Note_on_c, 2, 59, 100
4, 171366, Note_on_c, 2, 64, 100
4, 171369, Note_on_c, 2, 68, 100
4, 171456, Note_off_c, 2, 68, 0
4, 171456, Note_off_c, 2, 64, 0
4, 171456, Note_off_c, 2, 59, 0
4, 171456, Note_off_c, 2, 56, 0
4, 171456, Note_on_c, 2, 54, 100
4, 171459, Note_on_c, 2, 59, 100
4, 171462, Note_on_c, 2, 63, 100
4, 171465, Note_on_c, 2, 66, 100
4, 171552, Note_off_c, 2, 66, 0
4, 171552, Note_off_c, 2, 63, 0
4, 171552, Note_off_c, 2, 59, 0
4, 171552, Note_off_c, 2, 54, 0
4, 171552, Note_on_c, 2, 66, 100
4, 171555, Note_on_c, 2, 63, 100
4, 171558, Note_on_c, 2, 59, 100
4, 171561, Note_on_c, 2, 54, 100
4, 171600, Note_off_c, 2, 54, 0
4, 171600, Note_off_c, 2, 59, 0
4, 171600, Note_off_c, 2, 63, 0
4, 171600, Note_off_c, 2, 66, 0
4, 171600, Note_on_c, 2, 54, 100
4, 171603, Note_on_c, 2, 59, 100
4, 171606, Note_on_c, 2, 63, 100
4, 171609, Note_on_c, 2, 66, 100
4, 171648, Note_off_c, 2, 66, 0
4, 171648, Note_off_c, 2, 63, 0
4, 171648, Note_off_c, 2, 59, 0
4, 171648, Note_off_c, 2, 54, 0
4, 171648, Note_on_c, 2, 66, 100
4, 171651, Note_on_c, 2, 62, 100
4, 171654, Note_on_c, 2, 57, 100
4, 171657, Note_on_c, 2, 50, 100
4, 171744, Note_off_c, 2, 50, 0
4, 171744, Note_off_c, 2, 57, 0
4, 171744, Note_off_c, 2, 62, 0
4, 171744, Note_off_c, 2, 66, 0
4, 171744, Note_on_c, 2, 50, 100
4, 171747, Note_on_c, 2, 57, 100
4, 171750, Note_on_c, 2, 62, 100
4, 171753, Note_on_c, 2, 66, 100
4, 171840, Note_off_c, 2, 66, 0
4, 171840, Note_off_c, 2, 62, 0
4, 171840, Note_off_c, 2, 57, 0
4, 171840, Note_off_c, 2, 50, 0
4, 171840, Note_on_c, 2, 66, 100
4, 171843, Note_on_c, 2, 62, 100
4, 171846, Note_on_c, 2, 57, 100
4, 171849, Note_on_c, 2, 50, 100
4, 171936, Note_off_c, 2, 50, 0
4, 171936, Note_off_c, 2, 57, 0
4, 171936, Note_off_c, 2, 62, 0
4, 171936, Note_off_c, 2, 66, 0
4, 171936, Note_on_c, 2, 50, 100
4, 171939, Note_on_c, 2, 57, 100
4, 171942, Note_on_c, 2, 62, 100
4, 171945, Note_on_c, 2, 66, 100
4, 172032, Note_off_c, 2, 66, 0
4, 172032, Note_off_c, 2, 62, 0
4, 172032, Note_off_c, 2, 57, 0
4, 172032, Note_off_c, 2, 50, 0
4, 172032, Note_on_c, 2, 43, 120
4, 172032, Note_on_c, 2, 50, 120
4, 172032, Note_on_c, 2, 55, 120
4, 172032, Note_on_c, 2, 58, 120
4, 172032, Note_on_c, 2, 62, 120
4, 172032, Note_on_c, 2, 67, 120
4, 172128, Note_off_c, 2, 67, 0
4, 172128, Note_off_c, 2, 62, 0
4, 172128, Note_off_c, 2, 58, 0
4, 172128, Note_off_c, 2, 55, 0
4, 172128, Note_off_c, 2, 50, 0
4, 172128, Note_off_c, 2, 43, 0
4, 172128, End_track
5, 0, Start_track
5, 0, Title_t, "Hammond Organ"
5, 0, Channel_prefix, 4
5, 0, Control_c, 4, 7, 80
5, 0, Control_c, 4, 10, 64
5, 0, Program_c, 4, 18
5, 3840, Note_on_c, 4, 68, 100
5, 3840, Note_on_c, 4, 73, 100
5, 3840, Note_on_c, 4, 77, 100
5, 4128, Note_off_c, 4, 77, 0
5, 4128, Note_off_c, 4, 73, 0
5, 4128, Note_off_c, 4, 68, 0
5, 4128, Note_on_c, 4, 77, 100
5, 4128, Note_on_c, 4, 73, 100
5, 4128, Note_on_c, 4, 68, 100
5, 4224, Note_off_c, 4, 68, 0
5, 4224, Note_off_c, 4, 73, 0
5, 4224, Note_off_c, 4, 77, 0
5, 4224, Note_on_c, 4, 68, 100
5, 4224, Note_on_c, 4, 73, 100
5, 4224, Note_on_c, 4, 77, 100
5, 4608, Note_off_c, 4, 77, 0
5, 4608, Note_off_c, 4, 73, 0
5, 4608, Note_off_c, 4, 68, 0
5, 4704, Note_on_c, 4, 70, 100
5, 4704, Note_on_c, 4, 75, 100
5, 4704, Note_on_c, 4, 79, 100
5, 4800, Note_off_c, 4, 79, 0
5, 4800, Note_off_c, 4, 75, 0
5, 4800, Note_off_c, 4, 70, 0
5, 4800, Note_on_c, 4, 70, 100
5, 4800, Note_on_c, 4, 75, 100
5, 4800, Note_on_c, 4, 79, 100
5, 4992, Note_off_c, 4, 79, 0
5, 4992, Note_off_c, 4, 75, 0
5, 4992, Note_off_c, 4, 70, 0
5, 4992, Note_on_c, 4, 70, 100
5, 4992, Note_on_c, 4, 75, 100
5, 4992, Note_on_c, 4, 79, 100
5, 5376, Note_off_c, 4, 79, 0
5, 5376, Note_off_c, 4, 75, 0
5, 5376, Note_off_c, 4, 70, 0
5, 5376, Note_on_c, 4, 72, 100
5, 5376, Note_on_c, 4, 81, 100
5, 5376, Note_on_c, 4, 77, 100
5, 5664, Note_off_c, 4, 77, 0
5, 5664, Note_off_c, 4, 81, 0
5, 5664, Note_off_c, 4, 72, 0
5, 5664, Note_on_c, 4, 72, 100
5, 5664, Note_on_c, 4, 77, 100
5, 5664, Note_on_c, 4, 81, 100
5, 5760, Note_off_c, 4, 81, 0
5, 5760, Note_off_c, 4, 77, 0
5, 5760, Note_off_c, 4, 72, 0
5, 5760, Note_on_c, 4, 72, 100
5, 5760, Note_on_c, 4, 77, 100
5, 5760, Note_on_c, 4, 81, 100
5, 5952, Note_off_c, 4, 81, 0
5, 5952, Note_off_c, 4, 77, 0
5, 5952, Note_off_c, 4, 72, 0
5, 5952, Note_on_c, 4, 70, 100
5, 5952, Note_on_c, 4, 75, 100
5, 5952, Note_on_c, 4, 79, 100
5, 6048, Note_off_c, 4, 79, 0
5, 6048, Note_off_c, 4, 75, 0
5, 6048, Note_off_c, 4, 70, 0
5, 6048, Note_on_c, 4, 81, 100
5, 6048, Note_on_c, 4, 77, 100
5, 6048, Note_on_c, 4, 72, 100
5, 6144, Note_off_c, 4, 72, 0
5, 6144, Note_off_c, 4, 77, 0
5, 6144, Note_off_c, 4, 81, 0
5, 6144, Note_on_c, 4, 79, 100
5, 6144, Note_on_c, 4, 75, 100
5, 6144, Note_on_c, 4, 70, 100
5, 6240, Note_off_c, 4, 70, 0
5, 6240, Note_off_c, 4, 75, 0
5, 6240, Note_off_c, 4, 79, 0
5, 6240, Note_on_c, 4, 72, 100
5, 6240, Note_on_c, 4, 77, 100
5, 6240, Note_on_c, 4, 81, 100
5, 6336, Note_off_c, 4, 81, 0
5, 6336, Note_off_c, 4, 77, 0
5, 6336, Note_off_c, 4, 72, 0
5, 6336, Note_on_c, 4, 82, 100
5, 6336, Note_on_c, 4, 78, 100
5, 6336, Note_on_c, 4, 73, 100
5, 6528, Note_off_c, 4, 73, 0
5, 6528, Note_off_c, 4, 78, 0
5, 6528, Note_off_c, 4, 82, 0
5, 6528, Note_on_c, 4, 73, 100
5, 6528, Note_on_c, 4, 68, 100
5, 6528, Note_on_c, 4, 77, 100
5, 6912, Note_off_c, 4, 77, 0
5, 6912, Note_off_c, 4, 68, 0
5, 6912, Note_off_c, 4, 73, 0
5, 7008, Note_on_c, 4, 70, 100
5, 7008, Note_on_c, 4, 75, 100
5, 7008, Note_on_c, 4, 79, 100
5, 7104, Note_off_c, 4, 79, 0
5, 7104, Note_off_c, 4, 75, 0
5, 7104, Note_off_c, 4, 70, 0
5, 7104, Note_on_c, 4, 70, 100
5, 7104, Note_on_c, 4, 75, 100
5, 7104, Note_on_c, 4, 79, 100
5, 7200, Note_off_c, 4, 79, 0
5, 7200, Note_off_c, 4, 75, 0
5, 7200, Note_off_c, 4, 70, 0
5, 7200, Note_on_c, 4, 70, 100
5, 7200, Note_on_c, 4, 75, 100
5, 7200, Note_on_c, 4, 79, 100
5, 7296, Note_off_c, 4, 79, 0
5, 7296, Note_off_c, 4, 75, 0
5, 7296, Note_off_c, 4, 70, 0
5, 7296, Note_on_c, 4, 79, 100
5, 7296, Note_on_c, 4, 75, 100
5, 7296, Note_on_c, 4, 70, 100
5, 7392, Note_off_c, 4, 70, 0
5, 7392, Note_off_c, 4, 75, 0
5, 7392, Note_off_c, 4, 79, 0
5, 7392, Note_on_c, 4, 68, 100
5, 7392, Note_on_c, 4, 73, 100
5, 7392, Note_on_c, 4, 77, 100
5, 7488, Note_off_c, 4, 77, 0
5, 7488, Note_off_c, 4, 73, 0
5, 7488, Note_off_c, 4, 68, 0
5, 7488, Note_on_c, 4, 73, 100
5, 7488, Note_on_c, 4, 78, 100
5, 7488, Note_on_c, 4, 82, 100
5, 7680, Note_off_c, 4, 82, 0
5, 7680, Note_off_c, 4, 78, 0
5, 7680, Note_off_c, 4, 73, 0
5, 7680, Note_on_c, 4, 73, 100
5, 7680, Note_on_c, 4, 78, 100
5, 7680, Note_on_c, 4, 82, 100
5, 7776, Note_off_c, 4, 82, 0
5, 7776, Note_off_c, 4, 78, 0
5, 7776, Note_off_c, 4, 73, 0
5, 7776, Note_on_c, 4, 71, 100
5, 7776, Note_on_c, 4, 76, 100
5, 7776, Note_on_c, 4, 80, 100
5, 7872, Note_off_c, 4, 80, 0
5, 7872, Note_off_c, 4, 76, 0
5, 7872, Note_off_c, 4, 71, 0
5, 7872, Note_on_c, 4, 66, 100
5, 7872, Note_on_c, 4, 71, 100
5, 7872, Note_on_c, 4, 75, 100
5, 8064, Note_off_c, 4, 75, 0
5, 8064, Note_off_c, 4, 71, 0
5, 8064, Note_off_c, 4, 66, 0
5, 8064, Note_on_c, 4, 69, 100
5, 8064, Note_on_c, 4, 74, 100
5, 8064, Note_on_c, 4, 78, 100
5, 8448, Note_off_c, 4, 78, 0
5, 8448, Note_off_c, 4, 74, 0
5, 8448, Note_off_c, 4, 69, 0
5, 9216, Note_on_c, 4, 68, 100
5, 9216, Note_on_c, 4, 73, 100
5, 9216, Note_on_c, 4, 77, 100
5, 9504, Note_off_c, 4, 77, 0
5, 9504, Note_off_c, 4, 73, 0
5, 9504, Note_off_c, 4, 68, 0
5, 9504, Note_on_c, 4, 77, 100
5, 9504, Note_on_c, 4, 73, 100
5, 9504, Note_on_c, 4, 68, 100
5, 9600, Note_off_c, 4, 68, 0
5, 9600, Note_off_c, 4, 73, 0
5, 9600, Note_off_c, 4, 77, 0
5, 9600, Note_on_c, 4, 68, 100
5, 9600, Note_on_c, 4, 73, 100
5, 9600, Note_on_c, 4, 77, 100
5, 9984, Note_off_c, 4, 77, 0
5, 9984, Note_off_c, 4, 73, 0
5, 9984, Note_off_c, 4, 68, 0
5, 10080, Note_on_c, 4, 70, 100
5, 10080, Note_on_c, 4, 75, 100
5, 10080, Note_on_c, 4, 79, 100
5, 10176, Note_off_c, 4, 79, 0
5, 10176, Note_off_c, 4, 75, 0
5, 10176, Note_off_c, 4, 70, 0
5, 10176, Note_on_c, 4, 70, 100
5, 10176, Note_on_c, 4, 75, 100
5, 10176, Note_on_c, 4, 79, 100
5, 10368, Note_off_c, 4, 79, 0
5, 10368, Note_off_c, 4, 75, 0
5, 10368, Note_off_c, 4, 70, 0
5, 10368, Note_on_c, 4, 70, 100
5, 10368, Note_on_c, 4, 75, 100
5, 10368, Note_on_c, 4, 79, 100
5, 10752, Note_off_c, 4, 79, 0
5, 10752, Note_off_c, 4, 75, 0
5, 10752, Note_off_c, 4, 70, 0
5, 10752, Note_on_c, 4, 72, 100
5, 10752, Note_on_c, 4, 81, 100
5, 10752, Note_on_c, 4, 77, 100
5, 11040, Note_off_c, 4, 77, 0
5, 11040, Note_off_c, 4, 81, 0
5, 11040, Note_off_c, 4, 72, 0
5, 11040, Note_on_c, 4, 72, 100
5, 11040, Note_on_c, 4, 77, 100
5, 11040, Note_on_c, 4, 81, 100
5, 11136, Note_off_c, 4, 81, 0
5, 11136, Note_off_c, 4, 77, 0
5, 11136, Note_off_c, 4, 72, 0
5, 11136, Note_on_c, 4, 72, 100
5, 11136, Note_on_c, 4, 77, 100
5, 11136, Note_on_c, 4, 81, 100
5, 11328, Note_off_c, 4, 81, 0
5, 11328, Note_off_c, 4, 77, 0
5, 11328, Note_off_c, 4, 72, 0
5, 11328, Note_on_c, 4, 70, 100
5, 11328, Note_on_c, 4, 75, 100
5, 11328, Note_on_c, 4, 79, 100
5, 11424, Note_off_c, 4, 79, 0
5, 11424, Note_off_c, 4, 75, 0
5, 11424, Note_off_c, 4, 70, 0
5, 11424, Note_on_c, 4, 81, 100
5, 11424, Note_on_c, 4, 77, 100
5, 11424, Note_on_c, 4, 72, 100
5, 11520, Note_off_c, 4, 72, 0
5, 11520, Note_off_c, 4, 77, 0
5, 11520, Note_off_c, 4, 81, 0
5, 11520, Note_on_c, 4, 79, 100
5, 11520, Note_on_c, 4, 75, 100
5, 11520, Note_on_c, 4, 70, 100
5, 11616, Note_off_c, 4, 70, 0
5, 11616, Note_off_c, 4, 75, 0
5, 11616, Note_off_c, 4, 79, 0
5, 11616, Note_on_c, 4, 72, 100
5, 11616, Note_on_c, 4, 77, 100
5, 11616, Note_on_c, 4, 81, 100
5, 11712, Note_off_c, 4, 81, 0
5, 11712, Note_off_c, 4, 77, 0
5, 11712, Note_off_c, 4, 72, 0
5, 11712, Note_on_c, 4, 82, 100
5, 11712, Note_on_c, 4, 78, 100
5, 11712, Note_on_c, 4, 73, 100
5, 11904, Note_off_c, 4, 73, 0
5, 11904, Note_off_c, 4, 78, 0
5, 11904, Note_off_c, 4, 82, 0
5, 11904, Note_on_c, 4, 73, 100
5, 11904, Note_on_c, 4, 68, 100
5, 11904, Note_on_c, 4, 77, 100
5, 12288, Note_off_c, 4, 77, 0
5, 12288, Note_off_c, 4, 68, 0
5, 12288, Note_off_c, 4, 73, 0
5, 12384, Note_on_c, 4, 70, 100
5, 12384, Note_on_c, 4, 75, 100
5, 12384, Note_on_c, 4, 79, 100
5, 12480, Note_off_c, 4, 79, 0
5, 12480, Note_off_c, 4, 75, 0
5, 12480, Note_off_c, 4, 70, 0
5, 12480, Note_on_c, 4, 70, 100
5, 12480, Note_on_c, 4, 75, 100
5, 12480, Note_on_c, 4, 79, 100
5, 12576, Note_off_c, 4, 79, 0
5, 12576, Note_off_c, 4, 75, 0
5, 12576, Note_off_c, 4, 70, 0
5, 12576, Note_on_c, 4, 70, 100
5, 12576, Note_on_c, 4, 75, 100
5, 12576, Note_on_c, 4, 79, 100
5, 12672, Note_off_c, 4, 79, 0
5, 12672, Note_off_c, 4, 75, 0
5, 12672, Note_off_c, 4, 70, 0
5, 12672, Note_on_c, 4, 79, 100
5, 12672, Note_on_c, 4, 75, 100
5, 12672, Note_on_c, 4, 70, 100
5, 12768, Note_off_c, 4, 70, 0
5, 12768, Note_off_c, 4, 75, 0
5, 12768, Note_off_c, 4, 79, 0
5, 12768, Note_on_c, 4, 68, 100
5, 12768, Note_on_c, 4, 73, 100
5, 12768, Note_on_c, 4, 77, 100
5, 12864, Note_off_c, 4, 77, 0
5, 12864, Note_off_c, 4, 73, 0
5, 12864, Note_off_c, 4, 68, 0
5, 12864, Note_on_c, 4, 73, 100
5, 12864, Note_on_c, 4, 78, 100
5, 12864, Note_on_c, 4, 82, 100
5, 13056, Note_off_c, 4, 82, 0
5, 13056, Note_off_c, 4, 78, 0
5, 13056, Note_off_c, 4, 73, 0
5, 13056, Note_on_c, 4, 73, 100
5, 13056, Note_on_c, 4, 78, 100
5, 13056, Note_on_c, 4, 82, 100
5, 13152, Note_off_c, 4, 82, 0
5, 13152, Note_off_c, 4, 78, 0
5, 13152, Note_off_c, 4, 73, 0
5, 13152, Note_on_c, 4, 71, 100
5, 13152, Note_on_c, 4, 76, 100
5, 13152, Note_on_c, 4, 80, 100
5, 13248, Note_off_c, 4, 80, 0
5, 13248, Note_off_c, 4, 76, 0
5, 13248, Note_off_c, 4, 71, 0
5, 13248, Note_on_c, 4, 66, 100
5, 13248, Note_on_c, 4, 71, 100
5, 13248, Note_on_c, 4, 75, 100
5, 13440, Note_off_c, 4, 75, 0
5, 13440, Note_off_c, 4, 71, 0
5, 13440, Note_off_c, 4, 66, 0
5, 13440, Note_on_c, 4, 69, 100
5, 13440, Note_on_c, 4, 74, 100
5, 13440, Note_on_c, 4, 78, 100
5, 13824, Note_off_c, 4, 78, 0
5, 13824, Note_off_c, 4, 74, 0
5, 13824, Note_off_c, 4, 69, 0
5, 14592, Note_on_c, 4, 68, 100
5, 14592, Note_on_c, 4, 73, 100
5, 14592, Note_on_c, 4, 77, 100
5, 14880, Note_off_c, 4, 77, 0
5, 14880, Note_off_c, 4, 73, 0
5, 14880, Note_off_c, 4, 68, 0
5, 14880, Note_on_c, 4, 77, 100
5, 14880, Note_on_c, 4, 73, 100
5, 14880, Note_on_c, 4, 68, 100
5, 14976, Note_off_c, 4, 68, 0
5, 14976, Note_off_c, 4, 73, 0
5, 14976, Note_off_c, 4, 77, 0
5, 14976, Note_on_c, 4, 68, 100
5, 14976, Note_on_c, 4, 73, 100
5, 14976, Note_on_c, 4, 77, 100
5, 15360, Note_off_c, 4, 77, 0
5, 15360, Note_off_c, 4, 73, 0
5, 15360, Note_off_c, 4, 68, 0
5, 15456, Note_on_c, 4, 70, 100
5, 15456, Note_on_c, 4, 75, 100
5, 15456, Note_on_c, 4, 79, 100
5, 15552, Note_off_c, 4, 79, 0
5, 15552, Note_off_c, 4, 75, 0
5, 15552, Note_off_c, 4, 70, 0
5, 15552, Note_on_c, 4, 70, 100
5, 15552, Note_on_c, 4, 75, 100
5, 15552, Note_on_c, 4, 79, 100
5, 15744, Note_off_c, 4, 79, 0
5, 15744, Note_off_c, 4, 75, 0
5, 15744, Note_off_c, 4, 70, 0
5, 15744, Note_on_c, 4, 70, 100
5, 15744, Note_on_c, 4, 75, 100
5, 15744, Note_on_c, 4, 79, 100
5, 16128, Note_off_c, 4, 79, 0
5, 16128, Note_off_c, 4, 75, 0
5, 16128, Note_off_c, 4, 70, 0
5, 16128, Note_on_c, 4, 72, 100
5, 16128, Note_on_c, 4, 81, 100
5, 16128, Note_on_c, 4, 77, 100
5, 16416, Note_off_c, 4, 77, 0
5, 16416, Note_off_c, 4, 81, 0
5, 16416, Note_off_c, 4, 72, 0
5, 16416, Note_on_c, 4, 72, 100
5, 16416, Note_on_c, 4, 77, 100
5, 16416, Note_on_c, 4, 81, 100
5, 16512, Note_off_c, 4, 81, 0
5, 16512, Note_off_c, 4, 77, 0
5, 16512, Note_off_c, 4, 72, 0
5, 16512, Note_on_c, 4, 72, 100
5, 16512, Note_on_c, 4, 77, 100
5, 16512, Note_on_c, 4, 81, 100
5, 16704, Note_off_c, 4, 81, 0
5, 16704, Note_off_c, 4, 77, 0
5, 16704, Note_off_c, 4, 72, 0
5, 16704, Note_on_c, 4, 70, 100
5, 16704, Note_on_c, 4, 75, 100
5, 16704, Note_on_c, 4, 79, 100
5, 16800, Note_off_c, 4, 79, 0
5, 16800, Note_off_c, 4, 75, 0
5, 16800, Note_off_c, 4, 70, 0
5, 16800, Note_on_c, 4, 81, 100
5, 16800, Note_on_c, 4, 77, 100
5, 16800, Note_on_c, 4, 72, 100
5, 16896, Note_off_c, 4, 72, 0
5, 16896, Note_off_c, 4, 77, 0
5, 16896, Note_off_c, 4, 81, 0
5, 16896, Note_on_c, 4, 79, 100
5, 16896, Note_on_c, 4, 75, 100
5, 16896, Note_on_c, 4, 70, 100
5, 16992, Note_off_c, 4, 70, 0
5, 16992, Note_off_c, 4, 75, 0
5, 16992, Note_off_c, 4, 79, 0
5, 16992, Note_on_c, 4, 72, 100
5, 16992, Note_on_c, 4, 77, 100
5, 16992, Note_on_c, 4, 81, 100
5, 17088, Note_off_c, 4, 81, 0
5, 17088, Note_off_c, 4, 77, 0
5, 17088, Note_off_c, 4, 72, 0
5, 17088, Note_on_c, 4, 82, 100
5, 17088, Note_on_c, 4, 78, 100
5, 17088, Note_on_c, 4, 73, 100
5, 17280, Note_off_c, 4, 73, 0
5, 17280, Note_off_c, 4, 78, 0
5, 17280, Note_off_c, 4, 82, 0
5, 17280, Note_on_c, 4, 73, 100
5, 17280, Note_on_c, 4, 68, 100
5, 17280, Note_on_c, 4, 77, 100
5, 17664, Note_off_c, 4, 77, 0
5, 17664, Note_off_c, 4, 68, 0
5, 17664, Note_off_c, 4, 73, 0
5, 17760, Note_on_c, 4, 70, 100
5, 17760, Note_on_c, 4, 75, 100
5, 17760, Note_on_c, 4, 79, 100
5, 17856, Note_off_c, 4, 79, 0
5, 17856, Note_off_c, 4, 75, 0
5, 17856, Note_off_c, 4, 70, 0
5, 17856, Note_on_c, 4, 70, 100
5, 17856, Note_on_c, 4, 75, 100
5, 17856, Note_on_c, 4, 79, 100
5, 17952, Note_off_c, 4, 79, 0
5, 17952, Note_off_c, 4, 75, 0
5, 17952, Note_off_c, 4, 70, 0
5, 17952, Note_on_c, 4, 70, 100
5, 17952, Note_on_c, 4, 75, 100
5, 17952, Note_on_c, 4, 79, 100
5, 18048, Note_off_c, 4, 79, 0
5, 18048, Note_off_c, 4, 75, 0
5, 18048, Note_off_c, 4, 70, 0
5, 18048, Note_on_c, 4, 79, 100
5, 18048, Note_on_c, 4, 75, 100
5, 18048, Note_on_c, 4, 70, 100
5, 18144, Note_off_c, 4, 70, 0
5, 18144, Note_off_c, 4, 75, 0
5, 18144, Note_off_c, 4, 79, 0
5, 18144, Note_on_c, 4, 68, 100
5, 18144, Note_on_c, 4, 73, 100
5, 18144, Note_on_c, 4, 77, 100
5, 18240, Note_off_c, 4, 77, 0
5, 18240, Note_off_c, 4, 73, 0
5, 18240, Note_off_c, 4, 68, 0
5, 18240, Note_on_c, 4, 73, 100
5, 18240, Note_on_c, 4, 78, 100
5, 18240, Note_on_c, 4, 82, 100
5, 18432, Note_off_c, 4, 82, 0
5, 18432, Note_off_c, 4, 78, 0
5, 18432, Note_off_c, 4, 73, 0
5, 18432, Note_on_c, 4, 73, 100
5, 18432, Note_on_c, 4, 78, 100
5, 18432, Note_on_c, 4, 82, 100
5, 18528, Note_off_c, 4, 82, 0
5, 18528, Note_off_c, 4, 78, 0
5, 18528, Note_off_c, 4, 73, 0
5, 18528, Note_on_c, 4, 71, 100
5, 18528, Note_on_c, 4, 76, 100
5, 18528, Note_on_c, 4, 80, 100
5, 18624, Note_off_c, 4, 80, 0
5, 18624, Note_off_c, 4, 76, 0
5, 18624, Note_off_c, 4, 71, 0
5, 18624, Note_on_c, 4, 66, 100
5, 18624, Note_on_c, 4, 71, 100
5, 18624, Note_on_c, 4, 75, 100
5, 18816, Note_off_c, 4, 75, 0
5, 18816, Note_off_c, 4, 71, 0
5, 18816, Note_off_c, 4, 66, 0
5, 18816, Note_on_c, 4, 69, 100
5, 18816, Note_on_c, 4, 74, 100
5, 18816, Note_on_c, 4, 78, 100
5, 19200, Note_off_c, 4, 78, 0
5, 19200, Note_off_c, 4, 74, 0
5, 19200, Note_off_c, 4, 69, 0
5, 19968, Note_on_c, 4, 68, 100
5, 19968, Note_on_c, 4, 73, 100
5, 19968, Note_on_c, 4, 77, 100
5, 20256, Note_off_c, 4, 77, 0
5, 20256, Note_off_c, 4, 73, 0
5, 20256, Note_off_c, 4, 68, 0
5, 20256, Note_on_c, 4, 77, 100
5, 20256, Note_on_c, 4, 73, 100
5, 20256, Note_on_c, 4, 68, 100
5, 20352, Note_off_c, 4, 68, 0
5, 20352, Note_off_c, 4, 73, 0
5, 20352, Note_off_c, 4, 77, 0
5, 20352, Note_on_c, 4, 68, 100
5, 20352, Note_on_c, 4, 73, 100
5, 20352, Note_on_c, 4, 77, 100
5, 20736, Note_off_c, 4, 77, 0
5, 20736, Note_off_c, 4, 73, 0
5, 20736, Note_off_c, 4, 68, 0
5, 20832, Note_on_c, 4, 70, 100
5, 20832, Note_on_c, 4, 75, 100
5, 20832, Note_on_c, 4, 79, 100
5, 20928, Note_off_c, 4, 79, 0
5, 20928, Note_off_c, 4, 75, 0
5, 20928, Note_off_c, 4, 70, 0
5, 20928, Note_on_c, 4, 70, 100
5, 20928, Note_on_c, 4, 75, 100
5, 20928, Note_on_c, 4, 79, 100
5, 21120, Note_off_c, 4, 79, 0
5, 21120, Note_off_c, 4, 75, 0
5, 21120, Note_off_c, 4, 70, 0
5, 21120, Note_on_c, 4, 70, 100
5, 21120, Note_on_c, 4, 75, 100
5, 21120, Note_on_c, 4, 79, 100
5, 21504, Note_off_c, 4, 79, 0
5, 21504, Note_off_c, 4, 75, 0
5, 21504, Note_off_c, 4, 70, 0
5, 21504, Note_on_c, 4, 72, 100
5, 21504, Note_on_c, 4, 81, 100
5, 21504, Note_on_c, 4, 77, 100
5, 21792, Note_off_c, 4, 77, 0
5, 21792, Note_off_c, 4, 81, 0
5, 21792, Note_off_c, 4, 72, 0
5, 21792, Note_on_c, 4, 72, 100
5, 21792, Note_on_c, 4, 77, 100
5, 21792, Note_on_c, 4, 81, 100
5, 21888, Note_off_c, 4, 81, 0
5, 21888, Note_off_c, 4, 77, 0
5, 21888, Note_off_c, 4, 72, 0
5, 21888, Note_on_c, 4, 72, 100
5, 21888, Note_on_c, 4, 77, 100
5, 21888, Note_on_c, 4, 81, 100
5, 22080, Note_off_c, 4, 81, 0
5, 22080, Note_off_c, 4, 77, 0
5, 22080, Note_off_c, 4, 72, 0
5, 22080, Note_on_c, 4, 70, 100
5, 22080, Note_on_c, 4, 75, 100
5, 22080, Note_on_c, 4, 79, 100
5, 22176, Note_off_c, 4, 79, 0
5, 22176, Note_off_c, 4, 75, 0
5, 22176, Note_off_c, 4, 70, 0
5, 22176, Note_on_c, 4, 81, 100
5, 22176, Note_on_c, 4, 77, 100
5, 22176, Note_on_c, 4, 72, 100
5, 22272, Note_off_c, 4, 72, 0
5, 22272, Note_off_c, 4, 77, 0
5, 22272, Note_off_c, 4, 81, 0
5, 22272, Note_on_c, 4, 79, 100
5, 22272, Note_on_c, 4, 75, 100
5, 22272, Note_on_c, 4, 70, 100
5, 22368, Note_off_c, 4, 70, 0
5, 22368, Note_off_c, 4, 75, 0
5, 22368, Note_off_c, 4, 79, 0
5, 22368, Note_on_c, 4, 72, 100
5, 22368, Note_on_c, 4, 77, 100
5, 22368, Note_on_c, 4, 81, 100
5, 22464, Note_off_c, 4, 81, 0
5, 22464, Note_off_c, 4, 77, 0
5, 22464, Note_off_c, 4, 72, 0
5, 22464, Note_on_c, 4, 82, 100
5, 22464, Note_on_c, 4, 78, 100
5, 22464, Note_on_c, 4, 73, 100
5, 22656, Note_off_c, 4, 73, 0
5, 22656, Note_off_c, 4, 78, 0
5, 22656, Note_off_c, 4, 82, 0
5, 22656, Note_on_c, 4, 73, 100
5, 22656, Note_on_c, 4, 68, 100
5, 22656, Note_on_c, 4, 77, 100
5, 23040, Note_off_c, 4, 77, 0
5, 23040, Note_off_c, 4, 68, 0
5, 23040, Note_off_c, 4, 73, 0
5, 23136, Note_on_c, 4, 70, 100
5, 23136, Note_on_c, 4, 75, 100
5, 23136, Note_on_c, 4, 79, 100
5, 23232, Note_off_c, 4, 79, 0
5, 23232, Note_off_c, 4, 75, 0
5, 23232, Note_off_c, 4, 70, 0
5, 23232, Note_on_c, 4, 70, 100
5, 23232, Note_on_c, 4, 75, 100
5, 23232, Note_on_c, 4, 79, 100
5, 23328, Note_off_c, 4, 79, 0
5, 23328, Note_off_c, 4, 75, 0
5, 23328, Note_off_c, 4, 70, 0
5, 23328, Note_on_c, 4, 70, 100
5, 23328, Note_on_c, 4, 75, 100
5, 23328, Note_on_c, 4, 79, 100
5, 23424, Note_off_c, 4, 79, 0
5, 23424, Note_off_c, 4, 75, 0
5, 23424, Note_off_c, 4, 70, 0
5, 23424, Note_on_c, 4, 79, 100
5, 23424, Note_on_c, 4, 75, 100
5, 23424, Note_on_c, 4, 70, 100
5, 23520, Note_off_c, 4, 70, 0
5, 23520, Note_off_c, 4, 75, 0
5, 23520, Note_off_c, 4, 79, 0
5, 23520, Note_on_c, 4, 68, 100
5, 23520, Note_on_c, 4, 73, 100
5, 23520, Note_on_c, 4, 77, 100
5, 23616, Note_off_c, 4, 77, 0
5, 23616, Note_off_c, 4, 73, 0
5, 23616, Note_off_c, 4, 68, 0
5, 23616, Note_on_c, 4, 73, 100
5, 23616, Note_on_c, 4, 78, 100
5, 23616, Note_on_c, 4, 82, 100
5, 23808, Note_off_c, 4, 82, 0
5, 23808, Note_off_c, 4, 78, 0
5, 23808, Note_off_c, 4, 73, 0
5, 23808, Note_on_c, 4, 73, 100
5, 23808, Note_on_c, 4, 78, 100
5, 23808, Note_on_c, 4, 82, 100
5, 23904, Note_off_c, 4, 82, 0
5, 23904, Note_off_c, 4, 78, 0
5, 23904, Note_off_c, 4, 73, 0
5, 23904, Note_on_c, 4, 71, 100
5, 23904, Note_on_c, 4, 76, 100
5, 23904, Note_on_c, 4, 80, 100
5, 24000, Note_off_c, 4, 80, 0
5, 24000, Note_off_c, 4, 76, 0
5, 24000, Note_off_c, 4, 71, 0
5, 24000, Note_on_c, 4, 66, 100
5, 24000, Note_on_c, 4, 71, 100
5, 24000, Note_on_c, 4, 75, 100
5, 24192, Note_off_c, 4, 75, 0
5, 24192, Note_off_c, 4, 71, 0
5, 24192, Note_off_c, 4, 66, 0
5, 24192, Note_on_c, 4, 69, 100
5, 24192, Note_on_c, 4, 74, 100
5, 24192, Note_on_c, 4, 78, 100
5, 24576, Note_off_c, 4, 78, 0
5, 24576, Note_off_c, 4, 74, 0
5, 24576, Note_off_c, 4, 69, 0
5, 151296, Note_on_c, 4, 68, 100
5, 151296, Note_on_c, 4, 73, 100
5, 151296, Note_on_c, 4, 77, 100
5, 151584, Note_off_c, 4, 77, 0
5, 151584, Note_off_c, 4, 73, 0
5, 151584, Note_off_c, 4, 68, 0
5, 151584, Note_on_c, 4, 77, 100
5, 151584, Note_on_c, 4, 73, 100
5, 151584, Note_on_c, 4, 68, 100
5, 151680, Note_off_c, 4, 68, 0
5, 151680, Note_off_c, 4, 73, 0
5, 151680, Note_off_c, 4, 77, 0
5, 151680, Note_on_c, 4, 68, 100
5, 151680, Note_on_c, 4, 73, 100
5, 151680, Note_on_c, 4, 77, 100
5, 152064, Note_off_c, 4, 77, 0
5, 152064, Note_off_c, 4, 73, 0
5, 152064, Note_off_c, 4, 68, 0
5, 152160, Note_on_c, 4, 70, 100
5, 152160, Note_on_c, 4, 75, 100
5, 152160, Note_on_c, 4, 79, 100
5, 152256, Note_off_c, 4, 79, 0
5, 152256, Note_off_c, 4, 75, 0
5, 152256, Note_off_c, 4, 70, 0
5, 152256, Note_on_c, 4, 70, 100
5, 152256, Note_on_c, 4, 75, 100
5, 152256, Note_on_c, 4, 79, 100
5, 152448, Note_off_c, 4, 79, 0
5, 152448, Note_off_c, 4, 75, 0
5, 152448, Note_off_c, 4, 70, 0
5, 152448, Note_on_c, 4, 70, 100
5, 152448, Note_on_c, 4, 75, 100
5, 152448, Note_on_c, 4, 79, 100
5, 152832, Note_off_c, 4, 79, 0
5, 152832, Note_off_c, 4, 75, 0
5, 152832, Note_off_c, 4, 70, 0
5, 152832, Note_on_c, 4, 72, 100
5, 152832, Note_on_c, 4, 81, 100
5, 152832, Note_on_c, 4, 77, 100
5, 153120, Note_off_c, 4, 77, 0
5, 153120, Note_off_c, 4, 81, 0
5, 153120, Note_off_c, 4, 72, 0
5, 153120, Note_on_c, 4, 72, 100
5, 153120, Note_on_c, 4, 77, 100
5, 153120, Note_on_c, 4, 81, 100
5, 153216, Note_off_c, 4, 81, 0
5, 153216, Note_off_c, 4, 77, 0
5, 153216, Note_off_c, 4, 72, 0
5, 153216, Note_on_c, 4, 72, 100
5, 153216, Note_on_c, 4, 77, 100
5, 153216, Note_on_c, 4, 81, 100
5, 153408, Note_off_c, 4, 81, 0
5, 153408, Note_off_c, 4, 77, 0
5, 153408, Note_off_c, 4, 72, 0
5, 153408, Note_on_c, 4, 70, 100
5, 153408, Note_on_c, 4, 75, 100
5, 153408, Note_on_c, 4, 79, 100
5, 153504, Note_off_c, 4, 79, 0
5, 153504, Note_off_c, 4, 75, 0
5, 153504, Note_off_c, 4, 70, 0
5, 153504, Note_on_c, 4, 81, 100
5, 153504, Note_on_c, 4, 77, 100
5, 153504, Note_on_c, 4, 72, 100
5, 153600, Note_off_c, 4, 72, 0
5, 153600, Note_off_c, 4, 77, 0
5, 153600, Note_off_c, 4, 81, 0
5, 153600, Note_on_c, 4, 79, 100
5, 153600, Note_on_c, 4, 75, 100
5, 153600, Note_on_c, 4, 70, 100
5, 153696, Note_off_c, 4, 70, 0
5, 153696, Note_off_c, 4, 75, 0
5, 153696, Note_off_c, 4, 79, 0
5, 153696, Note_on_c, 4, 72, 100
5, 153696, Note_on_c, 4, 77, 100
5, 153696, Note_on_c, 4, 81, 100
5, 153792, Note_off_c, 4, 81, 0
5, 153792, Note_off_c, 4, 77, 0
5, 153792, Note_off_c, 4, 72, 0
5, 153792, Note_on_c, 4, 82, 100
5, 153792, Note_on_c, 4, 78, 100
5, 153792, Note_on_c, 4, 73, 100
5, 153984, Note_off_c, 4, 73, 0
5, 153984, Note_off_c, 4, 78, 0
5, 153984, Note_off_c, 4, 82, 0
5, 153984, Note_on_c, 4, 73, 100
5, 153984, Note_on_c, 4, 68, 100
5, 153984, Note_on_c, 4, 77, 100
5, 154368, Note_off_c, 4, 77, 0
5, 154368, Note_off_c, 4, 68, 0
5, 154368, Note_off_c, 4, 73, 0
5, 154464, Note_on_c, 4, 70, 100
5, 154464, Note_on_c, 4, 75, 100
5, 154464, Note_on_c, 4, 79, 100
5, 154560, Note_off_c, 4, 79, 0
5, 154560, Note_off_c, 4, 75, 0
5, 154560, Note_off_c, 4, 70, 0
5, 154560, Note_on_c, 4, 70, 100
5, 154560, Note_on_c, 4, 75, 100
5, 154560, Note_on_c, 4, 79, 100
5, 154656, Note_off_c, 4, 79, 0
5, 154656, Note_off_c, 4, 75, 0
5, 154656, Note_off_c, 4, 70, 0
5, 154656, Note_on_c, 4, 70, 100
5, 154656, Note_on_c, 4, 75, 100
5, 154656, Note_on_c, 4, 79, 100
5, 154752, Note_off_c, 4, 79, 0
5, 154752, Note_off_c, 4, 75, 0
5, 154752, Note_off_c, 4, 70, 0
5, 154752, Note_on_c, 4, 79, 100
5, 154752, Note_on_c, 4, 75, 100
5, 154752, Note_on_c, 4, 70, 100
5, 154848, Note_off_c, 4, 70, 0
5, 154848, Note_off_c, 4, 75, 0
5, 154848, Note_off_c, 4, 79, 0
5, 154848, Note_on_c, 4, 68, 100
5, 154848, Note_on_c, 4, 73, 100
5, 154848, Note_on_c, 4, 77, 100
5, 154944, Note_off_c, 4, 77, 0
5, 154944, Note_off_c, 4, 73, 0
5, 154944, Note_off_c, 4, 68, 0
5, 154944, Note_on_c, 4, 73, 100
5, 154944, Note_on_c, 4, 78, 100
5, 154944, Note_on_c, 4, 82, 100
5, 155136, Note_off_c, 4, 82, 0
5, 155136, Note_off_c, 4, 78, 0
5, 155136, Note_off_c, 4, 73, 0
5, 155136, Note_on_c, 4, 73, 100
5, 155136, Note_on_c, 4, 78, 100
5, 155136, Note_on_c, 4, 82, 100
5, 155232, Note_off_c, 4, 82, 0
5, 155232, Note_off_c, 4, 78, 0
5, 155232, Note_off_c, 4, 73, 0
5, 155232, Note_on_c, 4, 71, 100
5, 155232, Note_on_c, 4, 76, 100
5, 155232, Note_on_c, 4, 80, 100
5, 155328, Note_off_c, 4, 80, 0
5, 155328, Note_off_c, 4, 76, 0
5, 155328, Note_off_c, 4, 71, 0
5, 155328, Note_on_c, 4, 66, 100
5, 155328, Note_on_c, 4, 71, 100
5, 155328, Note_on_c, 4, 75, 100
5, 155520, Note_off_c, 4, 75, 0
5, 155520, Note_off_c, 4, 71, 0
5, 155520, Note_off_c, 4, 66, 0
5, 155520, Note_on_c, 4, 69, 100
5, 155520, Note_on_c, 4, 74, 100
5, 155520, Note_on_c, 4, 78, 100
5, 155904, Note_off_c, 4, 78, 0
5, 155904, Note_off_c, 4, 74, 0
5, 155904, Note_off_c, 4, 69, 0
5, 156672, Note_on_c, 4, 68, 100
5, 156672, Note_on_c, 4, 73, 100
5, 156672, Note_on_c, 4, 77, 100
5, 156960, Note_off_c, 4, 77, 0
5, 156960, Note_off_c, 4, 73, 0
5, 156960, Note_off_c, 4, 68, 0
5, 156960, Note_on_c, 4, 77, 100
5, 156960, Note_on_c, 4, 73, 100
5, 156960, Note_on_c, 4, 68, 100
5, 157056, Note_off_c, 4, 68, 0
5, 157056, Note_off_c, 4, 73, 0
5, 157056, Note_off_c, 4, 77, 0
5, 157056, Note_on_c, 4, 68, 100
5, 157056, Note_on_c, 4, 73, 100
5, 157056, Note_on_c, 4, 77, 100
5, 157440, Note_off_c, 4, 77, 0
5, 157440, Note_off_c, 4, 73, 0
5, 157440, Note_off_c, 4, 68, 0
5, 157536, Note_on_c, 4, 70, 100
5, 157536, Note_on_c, 4, 75, 100
5, 157536, Note_on_c, 4, 79, 100
5, 157632, Note_off_c, 4, 79, 0
5, 157632, Note_off_c, 4, 75, 0
5, 157632, Note_off_c, 4, 70, 0
5, 157632, Note_on_c, 4, 70, 100
5, 157632, Note_on_c, 4, 75, 100
5, 157632, Note_on_c, 4, 79, 100
5, 157824, Note_off_c, 4, 79, 0
5, 157824, Note_off_c, 4, 75, 0
5, 157824, Note_off_c, 4, 70, 0
5, 157824, Note_on_c, 4, 70, 100
5, 157824, Note_on_c, 4, 75, 100
5, 157824, Note_on_c, 4, 79, 100
5, 158208, Note_off_c, 4, 79, 0
5, 158208, Note_off_c, 4, 75, 0
5, 158208, Note_off_c, 4, 70, 0
5, 158208, Note_on_c, 4, 72, 100
5, 158208, Note_on_c, 4, 81, 100
5, 158208, Note_on_c, 4, 77, 100
5, 158496, Note_off_c, 4, 77, 0
5, 158496, Note_off_c, 4, 81, 0
5, 158496, Note_off_c, 4, 72, 0
5, 158496, Note_on_c, 4, 72, 100
5, 158496, Note_on_c, 4, 77, 100
5, 158496, Note_on_c, 4, 81, 100
5, 158592, Note_off_c, 4, 81, 0
5, 158592, Note_off_c, 4, 77, 0
5, 158592, Note_off_c, 4, 72, 0
5, 158592, Note_on_c, 4, 72, 100
5, 158592, Note_on_c, 4, 77, 100
5, 158592, Note_on_c, 4, 81, 100
5, 158784, Note_off_c, 4, 81, 0
5, 158784, Note_off_c, 4, 77, 0
5, 158784, Note_off_c, 4, 72, 0
5, 158784, Note_on_c, 4, 70, 100
5, 158784, Note_on_c, 4, 75, 100
5, 158784, Note_on_c, 4, 79, 100
5, 158880, Note_off_c, 4, 79, 0
5, 158880, Note_off_c, 4, 75, 0
5, 158880, Note_off_c, 4, 70, 0
5, 158880, Note_on_c, 4, 81, 100
5, 158880, Note_on_c, 4, 77, 100
5, 158880, Note_on_c, 4, 72, 100
5, 158976, Note_off_c, 4, 72, 0
5, 158976, Note_off_c, 4, 77, 0
5, 158976, Note_off_c, 4, 81, 0
5, 158976, Note_on_c, 4, 79, 100
5, 158976, Note_on_c, 4, 75, 100
5, 158976, Note_on_c, 4, 70, 100
5, 159072, Note_off_c, 4, 70, 0
5, 159072, Note_off_c, 4, 75, 0
5, 159072, Note_off_c, 4, 79, 0
5, 159072, Note_on_c, 4, 72, 100
5, 159072, Note_on_c, 4, 77, 100
5, 159072, Note_on_c, 4, 81, 100
5, 159168, Note_off_c, 4, 81, 0
5, 159168, Note_off_c, 4, 77, 0
5, 159168, Note_off_c, 4, 72, 0
5, 159168, Note_on_c, 4, 82, 100
5, 159168, Note_on_c, 4, 78, 100
5, 159168, Note_on_c, 4, 73, 100
5, 159360, Note_off_c, 4, 73, 0
5, 159360, Note_off_c, 4, 78, 0
5, 159360, Note_off_c, 4, 82, 0
5, 159360, Note_on_c, 4, 73, 100
5, 159360, Note_on_c, 4, 68, 100
5, 159360, Note_on_c, 4, 77, 100
5, 159744, Note_off_c, 4, 77, 0
5, 159744, Note_off_c, 4, 68, 0
5, 159744, Note_off_c, 4, 73, 0
5, 159840, Note_on_c, 4, 70, 100
5, 159840, Note_on_c, 4, 75, 100
5, 159840, Note_on_c, 4, 79, 100
5, 159936, Note_off_c, 4, 79, 0
5, 159936, Note_off_c, 4, 75, 0
5, 159936, Note_off_c, 4, 70, 0
5, 159936, Note_on_c, 4, 70, 100
5, 159936, Note_on_c, 4, 75, 100
5, 159936, Note_on_c, 4, 79, 100
5, 160032, Note_off_c, 4, 79, 0
5, 160032, Note_off_c, 4, 75, 0
5, 160032, Note_off_c, 4, 70, 0
5, 160032, Note_on_c, 4, 70, 100
5, 160032, Note_on_c, 4, 75, 100
5, 160032, Note_on_c, 4, 79, 100
5, 160128, Note_off_c, 4, 79, 0
5, 160128, Note_off_c, 4, 75, 0
5, 160128, Note_off_c, 4, 70, 0
5, 160128, Note_on_c, 4, 79, 100
5, 160128, Note_on_c, 4, 75, 100
5, 160128, Note_on_c, 4, 70, 100
5, 160224, Note_off_c, 4, 70, 0
5, 160224, Note_off_c, 4, 75, 0
5, 160224, Note_off_c, 4, 79, 0
5, 160224, Note_on_c, 4, 68, 100
5, 160224, Note_on_c, 4, 73, 100
5, 160224, Note_on_c, 4, 77, 100
5, 160320, Note_off_c, 4, 77, 0
5, 160320, Note_off_c, 4, 73, 0
5, 160320, Note_off_c, 4, 68, 0
5, 160320, Note_on_c, 4, 73, 100
5, 160320, Note_on_c, 4, 78, 100
5, 160320, Note_on_c, 4, 82, 100
5, 160512, Note_off_c, 4, 82, 0
5, 160512, Note_off_c, 4, 78, 0
5, 160512, Note_off_c, 4, 73, 0
5, 160512, Note_on_c, 4, 73, 100
5, 160512, Note_on_c, 4, 78, 100
5, 160512, Note_on_c, 4, 82, 100
5, 160608, Note_off_c, 4, 82, 0
5, 160608, Note_off_c, 4, 78, 0
5, 160608, Note_off_c, 4, 73, 0
5, 160608, Note_on_c, 4, 71, 100
5, 160608, Note_on_c, 4, 76, 100
5, 160608, Note_on_c, 4, 80, 100
5, 160704, Note_off_c, 4, 80, 0
5, 160704, Note_off_c, 4, 76, 0
5, 160704, Note_off_c, 4, 71, 0
5, 160704, Note_on_c, 4, 66, 100
5, 160704, Note_on_c, 4, 71, 100
5, 160704, Note_on_c, 4, 75, 100
5, 160896, Note_off_c, 4, 75, 0
5, 160896, Note_off_c, 4, 71, 0
5, 160896, Note_off_c, 4, 66, 0
5, 160896, Note_on_c, 4, 69, 100
5, 160896, Note_on_c, 4, 74, 100
5, 160896, Note_on_c, 4, 78, 100
5, 161280, Note_off_c, 4, 78, 0
5, 161280, Note_off_c, 4, 74, 0
5, 161280, Note_off_c, 4, 69, 0
5, 162048, Note_on_c, 4, 68, 100
5, 162048, Note_on_c, 4, 73, 100
5, 162048, Note_on_c, 4, 77, 100
5, 162336, Note_off_c, 4, 77, 0
5, 162336, Note_off_c, 4, 73, 0
5, 162336, Note_off_c, 4, 68, 0
5, 162336, Note_on_c, 4, 77, 100
5, 162336, Note_on_c, 4, 73, 100
5, 162336, Note_on_c, 4, 68, 100
5, 162432, Note_off_c, 4, 68, 0
5, 162432, Note_off_c, 4, 73, 0
5, 162432, Note_off_c, 4, 77, 0
5, 162432, Note_on_c, 4, 68, 100
5, 162432, Note_on_c, 4, 73, 100
5, 162432, Note_on_c, 4, 77, 100
5, 162816, Note_off_c, 4, 77, 0
5, 162816, Note_off_c, 4, 73, 0
5, 162816, Note_off_c, 4, 68, 0
5, 162912, Note_on_c, 4, 70, 100
5, 162912, Note_on_c, 4, 75, 100
5, 162912, Note_on_c, 4, 79, 100
5, 163008, Note_off_c, 4, 79, 0
5, 163008, Note_off_c, 4, 75, 0
5, 163008, Note_off_c, 4, 70, 0
5, 163008, Note_on_c, 4, 70, 100
5, 163008, Note_on_c, 4, 75, 100
5, 163008, Note_on_c, 4, 79, 100
5, 163200, Note_off_c, 4, 79, 0
5, 163200, Note_off_c, 4, 75, 0
5, 163200, Note_off_c, 4, 70, 0
5, 163200, Note_on_c, 4, 70, 100
5, 163200, Note_on_c, 4, 75, 100
5, 163200, Note_on_c, 4, 79, 100
5, 163584, Note_off_c, 4, 79, 0
5, 163584, Note_off_c, 4, 75, 0
5, 163584, Note_off_c, 4, 70, 0
5, 163584, Note_on_c, 4, 72, 100
5, 163584, Note_on_c, 4, 81, 100
5, 163584, Note_on_c, 4, 77, 100
5, 163872, Note_off_c, 4, 77, 0
5, 163872, Note_off_c, 4, 81, 0
5, 163872, Note_off_c, 4, 72, 0
5, 163872, Note_on_c, 4, 72, 100
5, 163872, Note_on_c, 4, 77, 100
5, 163872, Note_on_c, 4, 81, 100
5, 163968, Note_off_c, 4, 81, 0
5, 163968, Note_off_c, 4, 77, 0
5, 163968, Note_off_c, 4, 72, 0
5, 163968, Note_on_c, 4, 72, 100
5, 163968, Note_on_c, 4, 77, 100
5, 163968, Note_on_c, 4, 81, 100
5, 164160, Note_off_c, 4, 81, 0
5, 164160, Note_off_c, 4, 77, 0
5, 164160, Note_off_c, 4, 72, 0
5, 164160, Note_on_c, 4, 70, 100
5, 164160, Note_on_c, 4, 75, 100
5, 164160, Note_on_c, 4, 79, 100
5, 164256, Note_off_c, 4, 79, 0
5, 164256, Note_off_c, 4, 75, 0
5, 164256, Note_off_c, 4, 70, 0
5, 164256, Note_on_c, 4, 81, 100
5, 164256, Note_on_c, 4, 77, 100
5, 164256, Note_on_c, 4, 72, 100
5, 164352, Note_off_c, 4, 72, 0
5, 164352, Note_off_c, 4, 77, 0
5, 164352, Note_off_c, 4, 81, 0
5, 164352, Note_on_c, 4, 79, 100
5, 164352, Note_on_c, 4, 75, 100
5, 164352, Note_on_c, 4, 70, 100
5, 164448, Note_off_c, 4, 70, 0
5, 164448, Note_off_c, 4, 75, 0
5, 164448, Note_off_c, 4, 79, 0
5, 164448, Note_on_c, 4, 72, 100
5, 164448, Note_on_c, 4, 77, 100
5, 164448, Note_on_c, 4, 81, 100
5, 164544, Note_off_c, 4, 81, 0
5, 164544, Note_off_c, 4, 77, 0
5, 164544, Note_off_c, 4, 72, 0
5, 164544, Note_on_c, 4, 82, 100
5, 164544, Note_on_c, 4, 78, 100
5, 164544, Note_on_c, 4, 73, 100
5, 164736, Note_off_c, 4, 73, 0
5, 164736, Note_off_c, 4, 78, 0
5, 164736, Note_off_c, 4, 82, 0
5, 164736, Note_on_c, 4, 73, 100
5, 164736, Note_on_c, 4, 68, 100
5, 164736, Note_on_c, 4, 77, 100
5, 165120, Note_off_c, 4, 77, 0
5, 165120, Note_off_c, 4, 68, 0
5, 165120, Note_off_c, 4, 73, 0
5, 165216, Note_on_c, 4, 70, 100
5, 165216, Note_on_c, 4, 75, 100
5, 165216, Note_on_c, 4, 79, 100
5, 165312, Note_off_c, 4, 79, 0
5, 165312, Note_off_c, 4, 75, 0
5, 165312, Note_off_c, 4, 70, 0
5, 165312, Note_on_c, 4, 70, 100
5, 165312, Note_on_c, 4, 75, 100
5, 165312, Note_on_c, 4, 79, 100
5, 165408, Note_off_c, 4, 79, 0
5, 165408, Note_off_c, 4, 75, 0
5, 165408, Note_off_c, 4, 70, 0
5, 165408, Note_on_c, 4, 70, 100
5, 165408, Note_on_c, 4, 75, 100
5, 165408, Note_on_c, 4, 79, 100
5, 165504, Note_off_c, 4, 79, 0
5, 165504, Note_off_c, 4, 75, 0
5, 165504, Note_off_c, 4, 70, 0
5, 165504, Note_on_c, 4, 79, 100
5, 165504, Note_on_c, 4, 75, 100
5, 165504, Note_on_c, 4, 70, 100
5, 165600, Note_off_c, 4, 70, 0
5, 165600, Note_off_c, 4, 75, 0
5, 165600, Note_off_c, 4, 79, 0
5, 165600, Note_on_c, 4, 68, 100
5, 165600, Note_on_c, 4, 73, 100
5, 165600, Note_on_c, 4, 77, 100
5, 165696, Note_off_c, 4, 77, 0
5, 165696, Note_off_c, 4, 73, 0
5, 165696, Note_off_c, 4, 68, 0
5, 165696, Note_on_c, 4, 73, 100
5, 165696, Note_on_c, 4, 78, 100
5, 165696, Note_on_c, 4, 82, 100
5, 165888, Note_off_c, 4, 82, 0
5, 165888, Note_off_c, 4, 78, 0
5, 165888, Note_off_c, 4, 73, 0
5, 165888, Note_on_c, 4, 73, 100
5, 165888, Note_on_c, 4, 78, 100
5, 165888, Note_on_c, 4, 82, 100
5, 165984, Note_off_c, 4, 82, 0
5, 165984, Note_off_c, 4, 78, 0
5, 165984, Note_off_c, 4, 73, 0
5, 165984, Note_on_c, 4, 71, 100
5, 165984, Note_on_c, 4, 76, 100
5, 165984, Note_on_c, 4, 80, 100
5, 166080, Note_off_c, 4, 80, 0
5, 166080, Note_off_c, 4, 76, 0
5, 166080, Note_off_c, 4, 71, 0
5, 166080, Note_on_c, 4, 66, 100
5, 166080, Note_on_c, 4, 71, 100
5, 166080, Note_on_c, 4, 75, 100
5, 166272, Note_off_c, 4, 75, 0
5, 166272, Note_off_c, 4, 71, 0
5, 166272, Note_off_c, 4, 66, 0
5, 166272, Note_on_c, 4, 69, 100
5, 166272, Note_on_c, 4, 74, 100
5, 166272, Note_on_c, 4, 78, 100
5, 166656, Note_off_c, 4, 78, 0
5, 166656, Note_off_c, 4, 74, 0
5, 166656, Note_off_c, 4, 69, 0
5, 167424, Note_on_c, 4, 68, 100
5, 167424, Note_on_c, 4, 73, 100
5, 167424, Note_on_c, 4, 77, 100
5, 167712, Note_off_c, 4, 77, 0
5, 167712, Note_off_c, 4, 73, 0
5, 167712, Note_off_c, 4, 68, 0
5, 167712, Note_on_c, 4, 77, 100
5, 167712, Note_on_c, 4, 73, 100
5, 167712, Note_on_c, 4, 68, 100
5, 167808, Note_off_c, 4, 68, 0
5, 167808, Note_off_c, 4, 73, 0
5, 167808, Note_off_c, 4, 77, 0
5, 167808, Note_on_c, 4, 68, 100
5, 167808, Note_on_c, 4, 73, 100
5, 167808, Note_on_c, 4, 77, 100
5, 168192, Note_off_c, 4, 77, 0
5, 168192, Note_off_c, 4, 73, 0
5, 168192, Note_off_c, 4, 68, 0
5, 168288, Note_on_c, 4, 70, 100
5, 168288, Note_on_c, 4, 75, 100
5, 168288, Note_on_c, 4, 79, 100
5, 168384, Note_off_c, 4, 79, 0
5, 168384, Note_off_c, 4, 75, 0
5, 168384, Note_off_c, 4, 70, 0
5, 168384, Note_on_c, 4, 70, 100
5, 168384, Note_on_c, 4, 75, 100
5, 168384, Note_on_c, 4, 79, 100
5, 168576, Note_off_c, 4, 79, 0
5, 168576, Note_off_c, 4, 75, 0
5, 168576, Note_off_c, 4, 70, 0
5, 168576, Note_on_c, 4, 70, 100
5, 168576, Note_on_c, 4, 75, 100
5, 168576, Note_on_c, 4, 79, 100
5, 168960, Note_off_c, 4, 79, 0
5, 168960, Note_off_c, 4, 75, 0
5, 168960, Note_off_c, 4, 70, 0
5, 168960, Note_on_c, 4, 72, 100
5, 168960, Note_on_c, 4, 81, 100
5, 168960, Note_on_c, 4, 77, 100
5, 169248, Note_off_c, 4, 77, 0
5, 169248, Note_off_c, 4, 81, 0
5, 169248, Note_off_c, 4, 72, 0
5, 169248, Note_on_c, 4, 72, 100
5, 169248, Note_on_c, 4, 77, 100
5, 169248, Note_on_c, 4, 81, 100
5, 169344, Note_off_c, 4, 81, 0
5, 169344, Note_off_c, 4, 77, 0
5, 169344, Note_off_c, 4, 72, 0
5, 169344, Note_on_c, 4, 72, 100
5, 169344, Note_on_c, 4, 77, 100
5, 169344, Note_on_c, 4, 81, 100
5, 169536, Note_off_c, 4, 81, 0
5, 169536, Note_off_c, 4, 77, 0
5, 169536, Note_off_c, 4, 72, 0
5, 169536, Note_on_c, 4, 70, 100
5, 169536, Note_on_c, 4, 75, 100
5, 169536, Note_on_c, 4, 79, 100
5, 169632, Note_off_c, 4, 79, 0
5, 169632, Note_off_c, 4, 75, 0
5, 169632, Note_off_c, 4, 70, 0
5, 169632, Note_on_c, 4, 81, 100
5, 169632, Note_on_c, 4, 77, 100
5, 169632, Note_on_c, 4, 72, 100
5, 169728, Note_off_c, 4, 72, 0
5, 169728, Note_off_c, 4, 77, 0
5, 169728, Note_off_c, 4, 81, 0
5, 169728, Note_on_c, 4, 79, 100
5, 169728, Note_on_c, 4, 75, 100
5, 169728, Note_on_c, 4, 70, 100
5, 169824, Note_off_c, 4, 70, 0
5, 169824, Note_off_c, 4, 75, 0
5, 169824, Note_off_c, 4, 79, 0
5, 169824, Note_on_c, 4, 72, 100
5, 169824, Note_on_c, 4, 77, 100
5, 169824, Note_on_c, 4, 81, 100
5, 169920, Note_off_c, 4, 81, 0
5, 169920, Note_off_c, 4, 77, 0
5, 169920, Note_off_c, 4, 72, 0
5, 169920, Note_on_c, 4, 82, 100
5, 169920, Note_on_c, 4, 78, 100
5, 169920, Note_on_c, 4, 73, 100
5, 170112, Note_off_c, 4, 73, 0
5, 170112, Note_off_c, 4, 78, 0
5, 170112, Note_off_c, 4, 82, 0
5, 170112, Note_on_c, 4, 73, 100
5, 170112, Note_on_c, 4, 68, 100
5, 170112, Note_on_c, 4, 77, 100
5, 170496, Note_off_c, 4, 77, 0
5, 170496, Note_off_c, 4, 68, 0
5, 170496, Note_off_c, 4, 73, 0
5, 170592, Note_on_c, 4, 70, 100
5, 170592, Note_on_c, 4, 75, 100
5, 170592, Note_on_c, 4, 79, 100
5, 170688, Note_off_c, 4, 79, 0
5, 170688, Note_off_c, 4, 75, 0
5, 170688, Note_off_c, 4, 70, 0
5, 170688, Note_on_c, 4, 70, 100
5, 170688, Note_on_c, 4, 75, 100
5, 170688, Note_on_c, 4, 79, 100
5, 170784, Note_off_c, 4, 79, 0
5, 170784, Note_off_c, 4, 75, 0
5, 170784, Note_off_c, 4, 70, 0
5, 170784, Note_on_c, 4, 70, 100
5, 170784, Note_on_c, 4, 75, 100
5, 170784, Note_on_c, 4, 79, 100
5, 170880, Note_off_c, 4, 79, 0
5, 170880, Note_off_c, 4, 75, 0
5, 170880, Note_off_c, 4, 70, 0
5, 170880, Note_on_c, 4, 79, 100
5, 170880, Note_on_c, 4, 75, 100
5, 170880, Note_on_c, 4, 70, 100
5, 170976, Note_off_c, 4, 70, 0
5, 170976, Note_off_c, 4, 75, 0
5, 170976, Note_off_c, 4, 79, 0
5, 170976, Note_on_c, 4, 68, 100
5, 170976, Note_on_c, 4, 73, 100
5, 170976, Note_on_c, 4, 77, 100
5, 171072, Note_off_c, 4, 77, 0
5, 171072, Note_off_c, 4, 73, 0
5, 171072, Note_off_c, 4, 68, 0
5, 171072, Note_on_c, 4, 73, 100
5, 171072, Note_on_c, 4, 78, 100
5, 171072, Note_on_c, 4, 82, 100
5, 171264, Note_off_c, 4, 82, 0
5, 171264, Note_off_c, 4, 78, 0
5, 171264, Note_off_c, 4, 73, 0
5, 171264, Note_on_c, 4, 73, 100
5, 171264, Note_on_c, 4, 78, 100
5, 171264, Note_on_c, 4, 82, 100
5, 171360, Note_off_c, 4, 82, 0
5, 171360, Note_off_c, 4, 78, 0
5, 171360, Note_off_c, 4, 73, 0
5, 171360, Note_on_c, 4, 71, 100
5, 171360, Note_on_c, 4, 76, 100
5, 171360, Note_on_c, 4, 80, 100
5, 171456, Note_off_c, 4, 80, 0
5, 171456, Note_off_c, 4, 76, 0
5, 171456, Note_off_c, 4, 71, 0
5, 171456, Note_on_c, 4, 66, 100
5, 171456, Note_on_c, 4, 71, 100
5, 171456, Note_on_c, 4, 75, 100
5, 171648, Note_off_c, 4, 75, 0
5, 171648, Note_off_c, 4, 71, 0
5, 171648, Note_off_c, 4, 66, 0
5, 171648, Note_on_c, 4, 69, 100
5, 171648, Note_on_c, 4, 74, 100
5, 171648, Note_on_c, 4, 78, 100
5, 172032, Note_off_c, 4, 78, 0
5, 172032, Note_off_c, 4, 74, 0
5, 172032, Note_off_c, 4, 69, 0
5, 172032, End_track
6, 0, Start_track
6, 0, Title_t, "Fretless Bass"
6, 0, Channel_prefix, 3
6, 0, Control_c, 3, 7, 100
6, 0, Control_c, 3, 10, 54
6, 0, Program_c, 3, 34
6, 0, Note_on_c, 3, 50, 100
6, 96, Note_off_c, 3, 50, 0
6, 96, Note_on_c, 3, 43, 100
6, 192, Note_off_c, 3, 43, 0
6, 192, Note_on_c, 3, 46, 100
6, 288, Note_off_c, 3, 46, 0
6, 288, Note_on_c, 3, 48, 100
6, 384, Note_off_c, 3, 48, 0
6, 384, Note_on_c, 3, 49, 100
6, 576, Note_off_c, 3, 49, 0
6, 576, Note_on_c, 3, 48, 100
6, 672, Note_off_c, 3, 48, 0
6, 1536, Note_on_c, 3, 50, 100
6, 1632, Note_off_c, 3, 50, 0
6, 1632, Note_on_c, 3, 43, 100
6, 1728, Note_off_c, 3, 43, 0
6, 1728, Note_on_c, 3, 46, 100
6, 1824, Note_off_c, 3, 46, 0
6, 1824, Note_on_c, 3, 48, 100
6, 1920, Note_off_c, 3, 48, 0
6, 1920, Note_on_c, 3, 49, 100
6, 2112, Note_off_c, 3, 49, 0
6, 2112, Note_on_c, 3, 48, 100
6, 2208, Note_off_c, 3, 48, 0
6, 3072, Note_on_c, 3, 50, 100
6, 3168, Note_off_c, 3, 50, 0
6, 3168, Note_on_c, 3, 43, 100
6, 3264, Note_off_c, 3, 43, 0
6, 3264, Note_on_c, 3, 46, 100
6, 3360, Note_off_c, 3, 46, 0
6, 3360, Note_on_c, 3, 48, 100
6, 3456, Note_off_c, 3, 48, 0
6, 3456, Note_on_c, 3, 49, 100
6, 3648, Note_off_c, 3, 49, 0
6, 3648, Note_on_c, 3, 48, 100
6, 3744, Note_off_c, 3, 48, 0
6, 3840, Note_on_c, 3, 37, 100
6, 4128, Note_off_c, 3, 37, 0
6, 4128, Note_on_c, 3, 37, 100
6, 4224, Note_off_c, 3, 37, 0
6, 4224, Note_on_c, 3, 37, 100
6, 4704, Note_off_c, 3, 37, 0
6, 4704, Note_on_c, 3, 39, 100
6, 4800, Note_off_c, 3, 39, 0
6, 4896, Note_on_c, 3, 39, 100
6, 4992, Note_off_c, 3, 39, 0
6, 4992, Note_on_c, 3, 39, 100
6, 5280, Note_off_c, 3, 39, 0
6, 5280, Note_on_c, 3, 39, 100
6, 5376, Note_off_c, 3, 39, 0
6, 5376, Note_on_c, 3, 41, 100
6, 5664, Note_off_c, 3, 41, 0
6, 5664, Note_on_c, 3, 41, 100
6, 5760, Note_off_c, 3, 41, 0
6, 5760, Note_on_c, 3, 41, 100
6, 5856, Note_off_c, 3, 41, 0
6, 5952, Note_on_c, 3, 41, 100
6, 6048, Note_off_c, 3, 41, 0
6, 6048, Note_on_c, 3, 48, 100
6, 6144, Note_off_c, 3, 48, 0
6, 6144, Note_on_c, 3, 41, 100
6, 6240, Note_off_c, 3, 41, 0
6, 6240, Note_on_c, 3, 48, 100
6, 6336, Note_off_c, 3, 48, 0
6, 6336, Note_on_c, 3, 49, 100
6, 6432, Note_off_c, 3, 49, 0
6, 6528, Note_on_c, 3, 44, 100
6, 6912, Note_off_c, 3, 44, 0
6, 7008, Note_on_c, 3, 46, 100
6, 7104, Note_off_c, 3, 46, 0
6, 7104, Note_on_c, 3, 46, 100
6, 7200, Note_off_c, 3, 46, 0
6, 7200, Note_on_c, 3, 46, 100
6, 7296, Note_off_c, 3, 46, 0
6, 7296, Note_on_c, 3, 46, 100
6, 7392, Note_off_c, 3, 46, 0
6, 7392, Note_on_c, 3, 44, 100
6, 7488, Note_off_c, 3, 44, 0
6, 7488, Note_on_c, 3, 49, 100
6, 7584, Note_off_c, 3, 49, 0
6, 7680, Note_on_c, 3, 49, 100
6, 7776, Note_off_c, 3, 49, 0
6, 7776, Note_on_c, 3, 47, 100
6, 7872, Note_off_c, 3, 47, 0
6, 7872, Note_on_c, 3, 42, 100
6, 8064, Note_off_c, 3, 42, 0
6, 8064, Note_on_c, 3, 45, 100
6, 8448, Note_off_c, 3, 45, 0
6, 8448, Note_on_c, 3, 50, 100
6, 8544, Note_off_c, 3, 50, 0
6, 8544, Note_on_c, 3, 43, 100
6, 8640, Note_off_c, 3, 43, 0
6, 8640, Note_on_c, 3, 46, 100
6, 8736, Note_off_c, 3, 46, 0
6, 8736, Note_on_c, 3, 48, 100
6, 8832, Note_off_c, 3, 48, 0
6, 8832, Note_on_c, 3, 49, 100
6, 9024, Note_off_c, 3, 49, 0
6, 9024, Note_on_c, 3, 48, 100
6, 9120, Note_off_c, 3, 48, 0
6, 9216, Note_on_c, 3, 37, 100
6, 9504, Note_off_c, 3, 37, 0
6, 9504, Note_on_c, 3, 37, 100
6, 9600, Note_off_c, 3, 37, 0
6, 9600, Note_on_c, 3, 37, 100
6, 10080, Note_off_c, 3, 37, 0
6, 10080, Note_on_c, 3, 39, 100
6, 10176, Note_off_c, 3, 39, 0
6, 10272, Note_on_c, 3, 39, 100
6, 10368, Note_off_c, 3, 39, 0
6, 10368, Note_on_c, 3, 39, 100
6, 10656, Note_off_c, 3, 39, 0
6, 10656, Note_on_c, 3, 39, 100
6, 10752, Note_off_c, 3, 39, 0
6, 10752, Note_on_c, 3, 41, 100
6, 11040, Note_off_c, 3, 41, 0
6, 11040, Note_on_c, 3, 41, 100
6, 11136, Note_off_c, 3, 41, 0
6, 11136, Note_on_c, 3, 41, 100
6, 11232, Note_off_c, 3, 41, 0
6, 11328, Note_on_c, 3, 41, 100
6, 11424, Note_off_c, 3, 41, 0
6, 11424, Note_on_c, 3, 48, 100
6, 11520, Note_off_c, 3, 48, 0
6, 11520, Note_on_c, 3, 41, 100
6, 11616, Note_off_c, 3, 41, 0
6, 11616, Note_on_c, 3, 48, 100
6, 11712, Note_off_c, 3, 48, 0
6, 11712, Note_on_c, 3, 49, 100
6, 11808, Note_off_c, 3, 49, 0
6, 11904, Note_on_c, 3, 44, 100
6, 12288, Note_off_c, 3, 44, 0
6, 12384, Note_on_c, 3, 46, 100
6, 12480, Note_off_c, 3, 46, 0
6, 12480, Note_on_c, 3, 46, 100
6, 12576, Note_off_c, 3, 46, 0
6, 12576, Note_on_c, 3, 46, 100
6, 12672, Note_off_c, 3, 46, 0
6, 12672, Note_on_c, 3, 46, 100
6, 12768, Note_off_c, 3, 46, 0
6, 12768, Note_on_c, 3, 44, 100
6, 12864, Note_off_c, 3, 44, 0
6, 12864, Note_on_c, 3, 49, 100
6, 12960, Note_off_c, 3, 49, 0
6, 13056, Note_on_c, 3, 49, 100
6, 13152, Note_off_c, 3, 49, 0
6, 13152, Note_on_c, 3, 47, 100
6, 13248, Note_off_c, 3, 47, 0
6, 13248, Note_on_c, 3, 42, 100
6, 13440, Note_off_c, 3, 42, 0
6, 13440, Note_on_c, 3, 45, 100
6, 13824, Note_off_c, 3, 45, 0
6, 13824, Note_on_c, 3, 50, 100
6, 13920, Note_off_c, 3, 50, 0
6, 13920, Note_on_c, 3, 43, 100
6, 14016, Note_off_c, 3, 43, 0
6, 14016, Note_on_c, 3, 46, 100
6, 14112, Note_off_c, 3, 46, 0
6, 14112, Note_on_c, 3, 48, 100
6, 14208, Note_off_c, 3, 48, 0
6, 14208, Note_on_c, 3, 49, 100
6, 14400, Note_off_c, 3, 49, 0
6, 14400, Note_on_c, 3, 48, 100
6, 14496, Note_off_c, 3, 48, 0
6, 14592, Note_on_c, 3, 37, 100
6, 14880, Note_off_c, 3, 37, 0
6, 14880, Note_on_c, 3, 37, 100
6, 14976, Note_off_c, 3, 37, 0
6, 14976, Note_on_c, 3, 37, 100
6, 15456, Note_off_c, 3, 37, 0
6, 15456, Note_on_c, 3, 39, 100
6, 15552, Note_off_c, 3, 39, 0
6, 15648, Note_on_c, 3, 39, 100
6, 15744, Note_off_c, 3, 39, 0
6, 15744, Note_on_c, 3, 39, 100
6, 16032, Note_off_c, 3, 39, 0
6, 16032, Note_on_c, 3, 39, 100
6, 16128, Note_off_c, 3, 39, 0
6, 16128, Note_on_c, 3, 41, 100
6, 16416, Note_off_c, 3, 41, 0
6, 16416, Note_on_c, 3, 41, 100
6, 16512, Note_off_c, 3, 41, 0
6, 16512, Note_on_c, 3, 41, 100
6, 16608, Note_off_c, 3, 41, 0
6, 16704, Note_on_c, 3, 41, 100
6, 16800, Note_off_c, 3, 41, 0
6, 16800, Note_on_c, 3, 48, 100
6, 16896, Note_off_c, 3, 48, 0
6, 16896, Note_on_c, 3, 41, 100
6, 16992, Note_off_c, 3, 41, 0
6, 16992, Note_on_c, 3, 48, 100
6, 17088, Note_off_c, 3, 48, 0
6, 17088, Note_on_c, 3, 49, 100
6, 17184, Note_off_c, 3, 49, 0
6, 17280, Note_on_c, 3, 44, 100
6, 17664, Note_off_c, 3, 44, 0
6, 17760, Note_on_c, 3, 46, 100
6, 17856, Note_off_c, 3, 46, 0
6, 17856, Note_on_c, 3, 46, 100
6, 17952, Note_off_c, 3, 46, 0
6, 17952, Note_on_c, 3, 46, 100
6, 18048, Note_off_c, 3, 46, 0
6, 18048, Note_on_c, 3, 46, 100
6, 18144, Note_off_c, 3, 46, 0
6, 18144, Note_on_c, 3, 44, 100
6, 18240, Note_off_c, 3, 44, 0
6, 18240, Note_on_c, 3, 49, 100
6, 18336, Note_off_c, 3, 49, 0
6, 18432, Note_on_c, 3, 49, 100
6, 18528, Note_off_c, 3, 49, 0
6, 18528, Note_on_c, 3, 47, 100
6, 18624, Note_off_c, 3, 47, 0
6, 18624, Note_on_c, 3, 42, 100
6, 18816, Note_off_c, 3, 42, 0
6, 18816, Note_on_c, 3, 45, 100
6, 19200, Note_off_c, 3, 45, 0
6, 19200, Note_on_c, 3, 50, 100
6, 19296, Note_off_c, 3, 50, 0
6, 19296, Note_on_c, 3, 43, 100
6, 19392, Note_off_c, 3, 43, 0
6, 19392, Note_on_c, 3, 46, 100
6, 19488, Note_off_c, 3, 46, 0
6, 19488, Note_on_c, 3, 48, 100
6, 19584, Note_off_c, 3, 48, 0
6, 19584, Note_on_c, 3, 49, 100
6, 19776, Note_off_c, 3, 49, 0
6, 19776, Note_on_c, 3, 48, 100
6, 19872, Note_off_c, 3, 48, 0
6, 19968, Note_on_c, 3, 37, 100
6, 20256, Note_off_c, 3, 37, 0
6, 20256, Note_on_c, 3, 37, 100
6, 20352, Note_off_c, 3, 37, 0
6, 20352, Note_on_c, 3, 37, 100
6, 20832, Note_off_c, 3, 37, 0
6, 20832, Note_on_c, 3, 39, 100
6, 20928, Note_off_c, 3, 39, 0
6, 21024, Note_on_c, 3, 39, 100
6, 21120, Note_off_c, 3, 39, 0
6, 21120, Note_on_c, 3, 39, 100
6, 21408, Note_off_c, 3, 39, 0
6, 21408, Note_on_c, 3, 39, 100
6, 21504, Note_off_c, 3, 39, 0
6, 21504, Note_on_c, 3, 41, 100
6, 21792, Note_off_c, 3, 41, 0
6, 21792, Note_on_c, 3, 41, 100
6, 21888, Note_off_c, 3, 41, 0
6, 21888, Note_on_c, 3, 41, 100
6, 21984, Note_off_c, 3, 41, 0
6, 22080, Note_on_c, 3, 41, 100
6, 22176, Note_off_c, 3, 41, 0
6, 22176, Note_on_c, 3, 48, 100
6, 22272, Note_off_c, 3, 48, 0
6, 22272, Note_on_c, 3, 41, 100
6, 22368, Note_off_c, 3, 41, 0
6, 22368, Note_on_c, 3, 48, 100
6, 22464, Note_off_c, 3, 48, 0
6, 22464, Note_on_c, 3, 49, 100
6, 22560, Note_off_c, 3, 49, 0
6, 22656, Note_on_c, 3, 44, 100
6, 23040, Note_off_c, 3, 44, 0
6, 23136, Note_on_c, 3, 46, 100
6, 23232, Note_off_c, 3, 46, 0
6, 23232, Note_on_c, 3, 46, 100
6, 23328, Note_off_c, 3, 46, 0
6, 23328, Note_on_c, 3, 46, 100
6, 23424, Note_off_c, 3, 46, 0
6, 23424, Note_on_c, 3, 46, 100
6, 23520, Note_off_c, 3, 46, 0
6, 23520, Note_on_c, 3, 44, 100
6, 23616, Note_off_c, 3, 44, 0
6, 23616, Note_on_c, 3, 49, 100
6, 23712, Note_off_c, 3, 49, 0
6, 23808, Note_on_c, 3, 49, 100
6, 23904, Note_off_c, 3, 49, 0
6, 23904, Note_on_c, 3, 47, 100
6, 24000, Note_off_c, 3, 47, 0
6, 24000, Note_on_c, 3, 42, 100
6, 24192, Note_off_c, 3, 42, 0
6, 24192, Note_on_c, 3, 45, 100
6, 24576, Note_off_c, 3, 45, 0
6, 30720, Note_on_c, 3, 43, 64
6, 30912, Note_off_c, 3, 43, 0
6, 30912, Note_on_c, 3, 41, 64
6, 31104, Note_off_c, 3, 41, 0
6, 31104, Note_on_c, 3, 38, 65
6, 31296, Note_off_c, 3, 38, 0
6, 31296, Note_on_c, 3, 36, 65
6, 31392, Note_off_c, 3, 36, 0
6, 31392, Note_on_c, 3, 34, 67
6, 31488, Note_off_c, 3, 34, 0
6, 31488, Note_on_c, 3, 41, 67
6, 31680, Note_off_c, 3, 41, 0
6, 31680, Note_on_c, 3, 39, 68
6, 31872, Note_off_c, 3, 39, 0
6, 31872, Note_on_c, 3, 36, 68
6, 32064, Note_off_c, 3, 36, 0
6, 32064, Note_on_c, 3, 29, 70
6, 32256, Note_off_c, 3, 29, 0
6, 32256, Note_on_c, 3, 29, 72
6, 32352, Note_off_c, 3, 29, 0
6, 32352, Note_on_c, 3, 33, 72
6, 32448, Note_off_c, 3, 33, 0
6, 32448, Note_on_c, 3, 34, 72
6, 32544, Note_off_c, 3, 34, 0
6, 32544, Note_on_c, 3, 35, 72
6, 32640, Note_off_c, 3, 35, 0
6, 32640, Note_on_c, 3, 36, 73
6, 32736, Note_off_c, 3, 36, 0
6, 32736, Note_on_c, 3, 39, 73
6, 32832, Note_off_c, 3, 39, 0
6, 32832, Note_on_c, 3, 41, 73
6, 32928, Note_off_c, 3, 41, 0
6, 32928, Note_on_c, 3, 41, 75
6, 33024, Note_off_c, 3, 41, 0
6, 33024, Note_on_c, 3, 36, 75
6, 33216, Note_off_c, 3, 36, 0
6, 33216, Note_on_c, 3, 40, 77
6, 33408, Note_off_c, 3, 40, 0
6, 33408, Note_on_c, 3, 41, 77
6, 33600, Note_off_c, 3, 41, 0
6, 33600, Note_on_c, 3, 43, 79
6, 33792, Note_off_c, 3, 43, 0
6, 33792, Note_on_c, 3, 36, 81
6, 33984, Note_off_c, 3, 36, 0
6, 33984, Note_on_c, 3, 39, 81
6, 34176, Note_off_c, 3, 39, 0
6, 34176, Note_on_c, 3, 36, 82
6, 34272, Note_off_c, 3, 36, 0
6, 34272, Note_on_c, 3, 39, 82
6, 34368, Note_off_c, 3, 39, 0
6, 34368, Note_on_c, 3, 41, 82
6, 34464, Note_off_c, 3, 41, 0
6, 34464, Note_on_c, 3, 41, 84
6, 34560, Note_off_c, 3, 41, 0
6, 34560, Note_on_c, 3, 43, 84
6, 34752, Note_off_c, 3, 43, 0
6, 34752, Note_on_c, 3, 41, 86
6, 34944, Note_off_c, 3, 41, 0
6, 34944, Note_on_c, 3, 38, 86
6, 35040, Note_off_c, 3, 38, 0
6, 35040, Note_on_c, 3, 31, 88
6, 35136, Note_off_c, 3, 31, 0
6, 35136, Note_on_c, 3, 34, 88
6, 35232, Note_off_c, 3, 34, 0
6, 35232, Note_on_c, 3, 36, 88
6, 35328, Note_off_c, 3, 36, 0
6, 35328, Note_on_c, 3, 41, 90
6, 35520, Note_off_c, 3, 41, 0
6, 35520, Note_on_c, 3, 39, 90
6, 35712, Note_off_c, 3, 39, 0
6, 35712, Note_on_c, 3, 36, 92
6, 35904, Note_off_c, 3, 36, 0
6, 35904, Note_on_c, 3, 29, 92
6, 36096, Note_off_c, 3, 29, 0
6, 36096, Note_on_c, 3, 33, 94
6, 36288, Note_off_c, 3, 33, 0
6, 36288, Note_on_c, 3, 34, 96
6, 36480, Note_off_c, 3, 34, 0
6, 36480, Note_on_c, 3, 36, 96
6, 36672, Note_off_c, 3, 36, 0
6, 36672, Note_on_c, 3, 39, 98
6, 36864, Note_off_c, 3, 39, 0
6, 36864, Note_on_c, 3, 41, 100
6, 37056, Note_off_c, 3, 41, 0
6, 37056, Note_on_c, 3, 43, 100
6, 37152, Note_off_c, 3, 43, 0
6, 37152, Note_on_c, 3, 41, 100
6, 37344, Note_off_c, 3, 41, 0
6, 37344, Note_on_c, 3, 39, 100
6, 37440, Note_off_c, 3, 39, 0
6, 37440, Note_on_c, 3, 36, 100
6, 37632, Note_off_c, 3, 36, 0
6, 37632, Note_on_c, 3, 29, 100
6, 37824, Note_off_c, 3, 29, 0
6, 37824, Note_on_c, 3, 33, 100
6, 38016, Note_off_c, 3, 33, 0
6, 38016, Note_on_c, 3, 36, 100
6, 38112, Note_off_c, 3, 36, 0
6, 38112, Note_on_c, 3, 38, 100
6, 38208, Note_off_c, 3, 38, 0
6, 38208, Note_on_c, 3, 39, 100
6, 38304, Note_off_c, 3, 39, 0
6, 38304, Note_on_c, 3, 41, 100
6, 38400, Note_off_c, 3, 41, 0
6, 38400, Note_on_c, 3, 43, 100
6, 38592, Note_off_c, 3, 43, 0
6, 38592, Note_on_c, 3, 41, 100
6, 38784, Note_off_c, 3, 41, 0
6, 38784, Note_on_c, 3, 38, 100
6, 38880, Note_off_c, 3, 38, 0
6, 38880, Note_on_c, 3, 31, 100
6, 38976, Note_off_c, 3, 31, 0
6, 38976, Note_on_c, 3, 34, 100
6, 39072, Note_off_c, 3, 34, 0
6, 39072, Note_on_c, 3, 36, 100
6, 39168, Note_off_c, 3, 36, 0
6, 39168, Note_on_c, 3, 41, 100
6, 39360, Note_off_c, 3, 41, 0
6, 39360, Note_on_c, 3, 39, 100
6, 39552, Note_off_c, 3, 39, 0
6, 39552, Note_on_c, 3, 36, 100
6, 39744, Note_off_c, 3, 36, 0
6, 39744, Note_on_c, 3, 29, 100
6, 39936, Note_off_c, 3, 29, 0
6, 39936, Note_on_c, 3, 29, 100
6, 40032, Note_off_c, 3, 29, 0
6, 40032, Note_on_c, 3, 33, 100
6, 40128, Note_off_c, 3, 33, 0
6, 40128, Note_on_c, 3, 34, 100
6, 40224, Note_off_c, 3, 34, 0
6, 40224, Note_on_c, 3, 35, 100
6, 40320, Note_off_c, 3, 35, 0
6, 40320, Note_on_c, 3, 36, 100
6, 40416, Note_off_c, 3, 36, 0
6, 40416, Note_on_c, 3, 39, 100
6, 40512, Note_off_c, 3, 39, 0
6, 40512, Note_on_c, 3, 41, 100
6, 40608, Note_off_c, 3, 41, 0
6, 40608, Note_on_c, 3, 41, 100
6, 40704, Note_off_c, 3, 41, 0
6, 40704, Note_on_c, 3, 36, 100
6, 40896, Note_off_c, 3, 36, 0
6, 40896, Note_on_c, 3, 40, 100
6, 41088, Note_off_c, 3, 40, 0
6, 41088, Note_on_c, 3, 41, 100
6, 41280, Note_off_c, 3, 41, 0
6, 41280, Note_on_c, 3, 43, 100
6, 41472, Note_off_c, 3, 43, 0
6, 41472, Note_on_c, 3, 36, 100
6, 41664, Note_off_c, 3, 36, 0
6, 41664, Note_on_c, 3, 39, 100
6, 41856, Note_off_c, 3, 39, 0
6, 41856, Note_on_c, 3, 36, 100
6, 41952, Note_off_c, 3, 36, 0
6, 41952, Note_on_c, 3, 39, 100
6, 42048, Note_off_c, 3, 39, 0
6, 42048, Note_on_c, 3, 41, 100
6, 42144, Note_off_c, 3, 41, 0
6, 42144, Note_on_c, 3, 41, 100
6, 42240, Note_off_c, 3, 41, 0
6, 42240, Note_on_c, 3, 43, 100
6, 42432, Note_off_c, 3, 43, 0
6, 42432, Note_on_c, 3, 41, 100
6, 42624, Note_off_c, 3, 41, 0
6, 42624, Note_on_c, 3, 38, 100
6, 42720, Note_off_c, 3, 38, 0
6, 42720, Note_on_c, 3, 31, 100
6, 42816, Note_off_c, 3, 31, 0
6, 42816, Note_on_c, 3, 34, 100
6, 42912, Note_off_c, 3, 34, 0
6, 42912, Note_on_c, 3, 36, 100
6, 43008, Note_off_c, 3, 36, 0
6, 43008, Note_on_c, 3, 41, 100
6, 43200, Note_off_c, 3, 41, 0
6, 43200, Note_on_c, 3, 39, 100
6, 43392, Note_off_c, 3, 39, 0
6, 43392, Note_on_c, 3, 36, 100
6, 43584, Note_off_c, 3, 36, 0
6, 43584, Note_on_c, 3, 29, 100
6, 43776, Note_off_c, 3, 29, 0
6, 43776, Note_on_c, 3, 33, 100
6, 43968, Note_off_c, 3, 33, 0
6, 43968, Note_on_c, 3, 34, 100
6, 44160, Note_off_c, 3, 34, 0
6, 44160, Note_on_c, 3, 36, 100
6, 44256, Note_off_c, 3, 36, 0
6, 44256, Note_on_c, 3, 39, 100
6, 44352, Note_off_c, 3, 39, 0
6, 44352, Note_on_c, 3, 41, 100
6, 44448, Note_off_c, 3, 41, 0
6, 44448, Note_on_c, 3, 41, 100
6, 44544, Note_off_c, 3, 41, 0
6, 44544, Note_on_c, 3, 43, 100
6, 44736, Note_off_c, 3, 43, 0
6, 44736, Note_on_c, 3, 41, 100
6, 44832, Note_off_c, 3, 41, 0
6, 44832, Note_on_c, 3, 38, 100
6, 44928, Note_off_c, 3, 38, 0
6, 44928, Note_on_c, 3, 31, 100
6, 45024, Note_off_c, 3, 31, 0
6, 45024, Note_on_c, 3, 34, 100
6, 45120, Note_off_c, 3, 34, 0
6, 45120, Note_on_c, 3, 36, 100
6, 45312, Note_off_c, 3, 36, 0
6, 45312, Note_on_c, 3, 41, 100
6, 45504, Note_off_c, 3, 41, 0
6, 45504, Note_on_c, 3, 39, 100
6, 45696, Note_off_c, 3, 39, 0
6, 45696, Note_on_c, 3, 36, 100
6, 45888, Note_off_c, 3, 36, 0
6, 45888, Note_on_c, 3, 29, 100
6, 46080, Note_off_c, 3, 29, 0
6, 46080, Note_on_c, 3, 29, 100
6, 46176, Note_off_c, 3, 29, 0
6, 46176, Note_on_c, 3, 33, 100
6, 46272, Note_off_c, 3, 33, 0
6, 46272, Note_on_c, 3, 34, 100
6, 46368, Note_off_c, 3, 34, 0
6, 46368, Note_on_c, 3, 35, 100
6, 46464, Note_off_c, 3, 35, 0
6, 46464, Note_on_c, 3, 36, 100
6, 46560, Note_off_c, 3, 36, 0
6, 46560, Note_on_c, 3, 39, 100
6, 46656, Note_off_c, 3, 39, 0
6, 46656, Note_on_c, 3, 41, 100
6, 46752, Note_off_c, 3, 41, 0
6, 46752, Note_on_c, 3, 41, 100
6, 46848, Note_off_c, 3, 41, 0
6, 46848, Note_on_c, 3, 36, 100
6, 47040, Note_off_c, 3, 36, 0
6, 47040, Note_on_c, 3, 40, 100
6, 47232, Note_off_c, 3, 40, 0
6, 47232, Note_on_c, 3, 41, 100
6, 47424, Note_off_c, 3, 41, 0
6, 47424, Note_on_c, 3, 43, 100
6, 47616, Note_off_c, 3, 43, 0
6, 47616, Note_on_c, 3, 36, 100
6, 47808, Note_off_c, 3, 36, 0
6, 47808, Note_on_c, 3, 39, 100
6, 48000, Note_off_c, 3, 39, 0
6, 48000, Note_on_c, 3, 36, 100
6, 48096, Note_off_c, 3, 36, 0
6, 48096, Note_on_c, 3, 39, 100
6, 48192, Note_off_c, 3, 39, 0
6, 48192, Note_on_c, 3, 41, 100
6, 48288, Note_off_c, 3, 41, 0
6, 48288, Note_on_c, 3, 41, 100
6, 48384, Note_off_c, 3, 41, 0
6, 48384, Note_on_c, 3, 43, 100
6, 48576, Note_off_c, 3, 43, 0
6, 48576, Note_on_c, 3, 41, 100
6, 48768, Note_off_c, 3, 41, 0
6, 48768, Note_on_c, 3, 38, 100
6, 48864, Note_off_c, 3, 38, 0
6, 48864, Note_on_c, 3, 31, 100
6, 48960, Note_off_c, 3, 31, 0
6, 48960, Note_on_c, 3, 34, 100
6, 49056, Note_off_c, 3, 34, 0
6, 49056, Note_on_c, 3, 36, 100
6, 49152, Note_off_c, 3, 36, 0
6, 49152, Note_on_c, 3, 41, 100
6, 49344, Note_off_c, 3, 41, 0
6, 49344, Note_on_c, 3, 39, 100
6, 49536, Note_off_c, 3, 39, 0
6, 49536, Note_on_c, 3, 36, 100
6, 49728, Note_off_c, 3, 36, 0
6, 49728, Note_on_c, 3, 29, 100
6, 49920, Note_off_c, 3, 29, 0
6, 49920, Note_on_c, 3, 33, 100
6, 50112, Note_off_c, 3, 33, 0
6, 50112, Note_on_c, 3, 34, 100
6, 50304, Note_off_c, 3, 34, 0
6, 50304, Note_on_c, 3, 36, 100
6, 50496, Note_off_c, 3, 36, 0
6, 50496, Note_on_c, 3, 39, 100
6, 50688, Note_off_c, 3, 39, 0
6, 50688, Note_on_c, 3, 41, 100
6, 50880, Note_off_c, 3, 41, 0
6, 50880, Note_on_c, 3, 39, 100
6, 51072, Note_off_c, 3, 39, 0
6, 51072, Note_on_c, 3, 36, 100
6, 51264, Note_off_c, 3, 36, 0
6, 51264, Note_on_c, 3, 29, 100
6, 51456, Note_off_c, 3, 29, 0
6, 51456, Note_on_c, 3, 33, 100
6, 51648, Note_off_c, 3, 33, 0
6, 51648, Note_on_c, 3, 34, 100
6, 51840, Note_off_c, 3, 34, 0
6, 51840, Note_on_c, 3, 36, 100
6, 52032, Note_off_c, 3, 36, 0
6, 52032, Note_on_c, 3, 39, 100
6, 52224, Note_off_c, 3, 39, 0
6, 52224, Note_on_c, 3, 43, 110
6, 52320, Note_off_c, 3, 43, 0
6, 53088, Note_on_c, 3, 41, 110
6, 53184, Note_off_c, 3, 41, 0
6, 53184, Note_on_c, 3, 41, 110
6, 53280, Note_off_c, 3, 41, 0
6, 53376, Note_on_c, 3, 41, 110
6, 53472, Note_off_c, 3, 41, 0
6, 53760, Note_on_c, 3, 41, 110
6, 53856, Note_off_c, 3, 41, 0
6, 54624, Note_on_c, 3, 43, 110
6, 54720, Note_off_c, 3, 43, 0
6, 54720, Note_on_c, 3, 43, 110
6, 54816, Note_off_c, 3, 43, 0
6, 54912, Note_on_c, 3, 43, 110
6, 55008, Note_off_c, 3, 43, 0
6, 55296, Note_on_c, 3, 43, 110
6, 55392, Note_off_c, 3, 43, 0
6, 56160, Note_on_c, 3, 41, 110
6, 56256, Note_off_c, 3, 41, 0
6, 56256, Note_on_c, 3, 41, 110
6, 56352, Note_off_c, 3, 41, 0
6, 56448, Note_on_c, 3, 41, 110
6, 56544, Note_off_c, 3, 41, 0
6, 56832, Note_on_c, 3, 41, 110
6, 56928, Note_off_c, 3, 41, 0
6, 57696, Note_on_c, 3, 43, 110
6, 57792, Note_off_c, 3, 43, 0
6, 57792, Note_on_c, 3, 43, 110
6, 57888, Note_off_c, 3, 43, 0
6, 57984, Note_on_c, 3, 43, 110
6, 58080, Note_off_c, 3, 43, 0
6, 58368, Note_on_c, 3, 43, 100
6, 58464, Note_off_c, 3, 43, 0
6, 58464, Note_on_c, 3, 41, 100
6, 58560, Note_off_c, 3, 41, 0
6, 58560, Note_on_c, 3, 38, 100
6, 58656, Note_off_c, 3, 38, 0
6, 58656, Note_on_c, 3, 31, 100
6, 58752, Note_off_c, 3, 31, 0
6, 58752, Note_on_c, 3, 31, 100
6, 58848, Note_off_c, 3, 31, 0
6, 58848, Note_on_c, 3, 34, 100
6, 58944, Note_off_c, 3, 34, 0
6, 58944, Note_on_c, 3, 36, 100
6, 59136, Note_off_c, 3, 36, 0
6, 59136, Note_on_c, 3, 41, 100
6, 59328, Note_off_c, 3, 41, 0
6, 59328, Note_on_c, 3, 39, 100
6, 59520, Note_off_c, 3, 39, 0
6, 59520, Note_on_c, 3, 36, 100
6, 59712, Note_off_c, 3, 36, 0
6, 59712, Note_on_c, 3, 29, 100
6, 59904, Note_off_c, 3, 29, 0
6, 59904, Note_on_c, 3, 29, 100
6, 60000, Note_off_c, 3, 29, 0
6, 60000, Note_on_c, 3, 33, 100
6, 60096, Note_off_c, 3, 33, 0
6, 60096, Note_on_c, 3, 34, 100
6, 60192, Note_off_c, 3, 34, 0
6, 60192, Note_on_c, 3, 35, 100
6, 60288, Note_off_c, 3, 35, 0
6, 60288, Note_on_c, 3, 36, 100
6, 60384, Note_off_c, 3, 36, 0
6, 60384, Note_on_c, 3, 39, 100
6, 60480, Note_off_c, 3, 39, 0
6, 60480, Note_on_c, 3, 41, 100
6, 60672, Note_off_c, 3, 41, 0
6, 60672, Note_on_c, 3, 43, 100
6, 60864, Note_off_c, 3, 43, 0
6, 60864, Note_on_c, 3, 41, 100
6, 61056, Note_off_c, 3, 41, 0
6, 61056, Note_on_c, 3, 38, 100
6, 61248, Note_off_c, 3, 38, 0
6, 61248, Note_on_c, 3, 31, 100
6, 61440, Note_off_c, 3, 31, 0
6, 61440, Note_on_c, 3, 36, 100
6, 61632, Note_off_c, 3, 36, 0
6, 61632, Note_on_c, 3, 39, 100
6, 61728, Note_off_c, 3, 39, 0
6, 61728, Note_on_c, 3, 36, 100
6, 61920, Note_off_c, 3, 36, 0
6, 61920, Note_on_c, 3, 39, 100
6, 62016, Note_off_c, 3, 39, 0
6, 62016, Note_on_c, 3, 36, 100
6, 62208, Note_off_c, 3, 36, 0
6, 62208, Note_on_c, 3, 43, 100
6, 62304, Note_off_c, 3, 43, 0
6, 62304, Note_on_c, 3, 41, 100
6, 62400, Note_off_c, 3, 41, 0
6, 62400, Note_on_c, 3, 38, 100
6, 62496, Note_off_c, 3, 38, 0
6, 62496, Note_on_c, 3, 31, 100
6, 62592, Note_off_c, 3, 31, 0
6, 62592, Note_on_c, 3, 31, 100
6, 62784, Note_off_c, 3, 31, 0
6, 62784, Note_on_c, 3, 34, 100
6, 62976, Note_off_c, 3, 34, 0
6, 62976, Note_on_c, 3, 41, 100
6, 63072, Note_off_c, 3, 41, 0
6, 63072, Note_on_c, 3, 41, 100
6, 63168, Note_off_c, 3, 41, 0
6, 63168, Note_on_c, 3, 39, 100
6, 63264, Note_off_c, 3, 39, 0
6, 63264, Note_on_c, 3, 36, 100
6, 63360, Note_off_c, 3, 36, 0
6, 63360, Note_on_c, 3, 29, 100
6, 63552, Note_off_c, 3, 29, 0
6, 63552, Note_on_c, 3, 33, 100
6, 63744, Note_off_c, 3, 33, 0
6, 63744, Note_on_c, 3, 34, 100
6, 63936, Note_off_c, 3, 34, 0
6, 63936, Note_on_c, 3, 36, 100
6, 64128, Note_off_c, 3, 36, 0
6, 64128, Note_on_c, 3, 39, 100
6, 64320, Note_off_c, 3, 39, 0
6, 64320, Note_on_c, 3, 41, 100
6, 64512, Note_off_c, 3, 41, 0
6, 64512, Note_on_c, 3, 41, 100
6, 64608, Note_off_c, 3, 41, 0
6, 64608, Note_on_c, 3, 39, 100
6, 64704, Note_off_c, 3, 39, 0
6, 64704, Note_on_c, 3, 36, 100
6, 64800, Note_off_c, 3, 36, 0
6, 64800, Note_on_c, 3, 29, 100
6, 64896, Note_off_c, 3, 29, 0
6, 64896, Note_on_c, 3, 33, 100
6, 65088, Note_off_c, 3, 33, 0
6, 65088, Note_on_c, 3, 34, 100
6, 65280, Note_off_c, 3, 34, 0
6, 65280, Note_on_c, 3, 36, 100
6, 65472, Note_off_c, 3, 36, 0
6, 65472, Note_on_c, 3, 39, 100
6, 65664, Note_off_c, 3, 39, 0
6, 65664, Note_on_c, 3, 41, 100
6, 65856, Note_off_c, 3, 41, 0
6, 65856, Note_on_c, 3, 41, 100
6, 66048, Note_off_c, 3, 41, 0
6, 66048, Note_on_c, 3, 43, 100
6, 66144, Note_off_c, 3, 43, 0
6, 66912, Note_on_c, 3, 41, 100
6, 67008, Note_off_c, 3, 41, 0
6, 67008, Note_on_c, 3, 41, 100
6, 67104, Note_off_c, 3, 41, 0
6, 67200, Note_on_c, 3, 41, 100
6, 67296, Note_off_c, 3, 41, 0
6, 67584, Note_on_c, 3, 41, 100
6, 67680, Note_off_c, 3, 41, 0
6, 68448, Note_on_c, 3, 36, 100
6, 68544, Note_off_c, 3, 36, 0
6, 68544, Note_on_c, 3, 36, 100
6, 68640, Note_off_c, 3, 36, 0
6, 68736, Note_on_c, 3, 36, 100
6, 68832, Note_off_c, 3, 36, 0
6, 69120, Note_on_c, 3, 36, 100
6, 69312, Note_off_c, 3, 36, 0
6, 69312, Note_on_c, 3, 39, 100
6, 69408, Note_off_c, 3, 39, 0
6, 69408, Note_on_c, 3, 36, 100
6, 69600, Note_off_c, 3, 36, 0
6, 69600, Note_on_c, 3, 39, 100
6, 69696, Note_off_c, 3, 39, 0
6, 69696, Note_on_c, 3, 36, 100
6, 69888, Note_off_c, 3, 36, 0
6, 69888, Note_on_c, 3, 43, 100
6, 69984, Note_off_c, 3, 43, 0
6, 69984, Note_on_c, 3, 39, 100
6, 70080, Note_off_c, 3, 39, 0
6, 70080, Note_on_c, 3, 38, 100
6, 70176, Note_off_c, 3, 38, 0
6, 70176, Note_on_c, 3, 31, 100
6, 70272, Note_off_c, 3, 31, 0
6, 70272, Note_on_c, 3, 34, 100
6, 70464, Note_off_c, 3, 34, 0
6, 70464, Note_on_c, 3, 36, 100
6, 70656, Note_off_c, 3, 36, 0
6, 70656, Note_on_c, 3, 41, 100
6, 70848, Note_off_c, 3, 41, 0
6, 70848, Note_on_c, 3, 39, 100
6, 70944, Note_off_c, 3, 39, 0
6, 70944, Note_on_c, 3, 36, 100
6, 71136, Note_off_c, 3, 36, 0
6, 71136, Note_on_c, 3, 29, 100
6, 71232, Note_off_c, 3, 29, 0
6, 71232, Note_on_c, 3, 33, 100
6, 71424, Note_off_c, 3, 33, 0
6, 71424, Note_on_c, 3, 34, 100
6, 71616, Note_off_c, 3, 34, 0
6, 71616, Note_on_c, 3, 35, 100
6, 71808, Note_off_c, 3, 35, 0
6, 71808, Note_on_c, 3, 39, 100
6, 72000, Note_off_c, 3, 39, 0
6, 72000, Note_on_c, 3, 41, 100
6, 72192, Note_off_c, 3, 41, 0
6, 72192, Note_on_c, 3, 43, 100
6, 72384, Note_off_c, 3, 43, 0
6, 72384, Note_on_c, 3, 41, 100
6, 72576, Note_off_c, 3, 41, 0
6, 72576, Note_on_c, 3, 38, 100
6, 72768, Note_off_c, 3, 38, 0
6, 72768, Note_on_c, 3, 36, 100
6, 72864, Note_off_c, 3, 36, 0
6, 72864, Note_on_c, 3, 34, 100
6, 72960, Note_off_c, 3, 34, 0
6, 72960, Note_on_c, 3, 41, 100
6, 73152, Note_off_c, 3, 41, 0
6, 73152, Note_on_c, 3, 39, 100
6, 73344, Note_off_c, 3, 39, 0
6, 73344, Note_on_c, 3, 36, 100
6, 73536, Note_off_c, 3, 36, 0
6, 73536, Note_on_c, 3, 29, 100
6, 73728, Note_off_c, 3, 29, 0
6, 73728, Note_on_c, 3, 29, 100
6, 73824, Note_off_c, 3, 29, 0
6, 73824, Note_on_c, 3, 33, 100
6, 73920, Note_off_c, 3, 33, 0
6, 73920, Note_on_c, 3, 34, 100
6, 74016, Note_off_c, 3, 34, 0
6, 74016, Note_on_c, 3, 35, 100
6, 74112, Note_off_c, 3, 35, 0
6, 74112, Note_on_c, 3, 36, 100
6, 74208, Note_off_c, 3, 36, 0
6, 74208, Note_on_c, 3, 39, 100
6, 74304, Note_off_c, 3, 39, 0
6, 74304, Note_on_c, 3, 41, 100
6, 74400, Note_off_c, 3, 41, 0
6, 74400, Note_on_c, 3, 41, 100
6, 74496, Note_off_c, 3, 41, 0
6, 74496, Note_on_c, 3, 36, 100
6, 74688, Note_off_c, 3, 36, 0
6, 74688, Note_on_c, 3, 40, 100
6, 74880, Note_off_c, 3, 40, 0
6, 74880, Note_on_c, 3, 41, 100
6, 75072, Note_off_c, 3, 41, 0
6, 75072, Note_on_c, 3, 43, 100
6, 75264, Note_off_c, 3, 43, 0
6, 75264, Note_on_c, 3, 36, 100
6, 75456, Note_off_c, 3, 36, 0
6, 75456, Note_on_c, 3, 39, 100
6, 75648, Note_off_c, 3, 39, 0
6, 75648, Note_on_c, 3, 36, 100
6, 75744, Note_off_c, 3, 36, 0
6, 75744, Note_on_c, 3, 39, 100
6, 75840, Note_off_c, 3, 39, 0
6, 75840, Note_on_c, 3, 41, 100
6, 75936, Note_off_c, 3, 41, 0
6, 75936, Note_on_c, 3, 41, 100
6, 76032, Note_off_c, 3, 41, 0
6, 76032, Note_on_c, 3, 43, 100
6, 76224, Note_off_c, 3, 43, 0
6, 76224, Note_on_c, 3, 41, 100
6, 76416, Note_off_c, 3, 41, 0
6, 76416, Note_on_c, 3, 38, 100
6, 76512, Note_off_c, 3, 38, 0
6, 76512, Note_on_c, 3, 31, 100
6, 76608, Note_off_c, 3, 31, 0
6, 76608, Note_on_c, 3, 34, 100
6, 76704, Note_off_c, 3, 34, 0
6, 76704, Note_on_c, 3, 36, 100
6, 76800, Note_off_c, 3, 36, 0
6, 76800, Note_on_c, 3, 41, 100
6, 76992, Note_off_c, 3, 41, 0
6, 76992, Note_on_c, 3, 39, 100
6, 77184, Note_off_c, 3, 39, 0
6, 77184, Note_on_c, 3, 36, 100
6, 77376, Note_off_c, 3, 36, 0
6, 77376, Note_on_c, 3, 29, 100
6, 77568, Note_off_c, 3, 29, 0
6, 77568, Note_on_c, 3, 33, 100
6, 77760, Note_off_c, 3, 33, 0
6, 77760, Note_on_c, 3, 34, 100
6, 77952, Note_off_c, 3, 34, 0
6, 77952, Note_on_c, 3, 36, 100
6, 78144, Note_off_c, 3, 36, 0
6, 78144, Note_on_c, 3, 39, 100
6, 78336, Note_off_c, 3, 39, 0
6, 78336, Note_on_c, 3, 41, 100
6, 78528, Note_off_c, 3, 41, 0
6, 78528, Note_on_c, 3, 43, 100
6, 78624, Note_off_c, 3, 43, 0
6, 78624, Note_on_c, 3, 41, 100
6, 78816, Note_off_c, 3, 41, 0
6, 78816, Note_on_c, 3, 39, 100
6, 78912, Note_off_c, 3, 39, 0
6, 78912, Note_on_c, 3, 36, 100
6, 79104, Note_off_c, 3, 36, 0
6, 79104, Note_on_c, 3, 29, 100
6, 79296, Note_off_c, 3, 29, 0
6, 79296, Note_on_c, 3, 33, 100
6, 79488, Note_off_c, 3, 33, 0
6, 79488, Note_on_c, 3, 36, 100
6, 79584, Note_off_c, 3, 36, 0
6, 79584, Note_on_c, 3, 38, 100
6, 79680, Note_off_c, 3, 38, 0
6, 79680, Note_on_c, 3, 39, 100
6, 79776, Note_off_c, 3, 39, 0
6, 79776, Note_on_c, 3, 41, 100
6, 79872, Note_off_c, 3, 41, 0
6, 79872, Note_on_c, 3, 43, 100
6, 80064, Note_off_c, 3, 43, 0
6, 80064, Note_on_c, 3, 41, 100
6, 80256, Note_off_c, 3, 41, 0
6, 80256, Note_on_c, 3, 38, 100
6, 80352, Note_off_c, 3, 38, 0
6, 80352, Note_on_c, 3, 31, 100
6, 80448, Note_off_c, 3, 31, 0
6, 80448, Note_on_c, 3, 34, 100
6, 80544, Note_off_c, 3, 34, 0
6, 80544, Note_on_c, 3, 36, 100
6, 80640, Note_off_c, 3, 36, 0
6, 80640, Note_on_c, 3, 41, 100
6, 80832, Note_off_c, 3, 41, 0
6, 80832, Note_on_c, 3, 39, 100
6, 81024, Note_off_c, 3, 39, 0
6, 81024, Note_on_c, 3, 36, 100
6, 81216, Note_off_c, 3, 36, 0
6, 81216, Note_on_c, 3, 29, 100
6, 81408, Note_off_c, 3, 29, 0
6, 81408, Note_on_c, 3, 29, 100
6, 81504, Note_off_c, 3, 29, 0
6, 81504, Note_on_c, 3, 33, 100
6, 81600, Note_off_c, 3, 33, 0
6, 81600, Note_on_c, 3, 34, 100
6, 81696, Note_off_c, 3, 34, 0
6, 81696, Note_on_c, 3, 35, 100
6, 81792, Note_off_c, 3, 35, 0
6, 81792, Note_on_c, 3, 36, 100
6, 81888, Note_off_c, 3, 36, 0
6, 81888, Note_on_c, 3, 39, 100
6, 81984, Note_off_c, 3, 39, 0
6, 81984, Note_on_c, 3, 41, 100
6, 82080, Note_off_c, 3, 41, 0
6, 82080, Note_on_c, 3, 41, 100
6, 82176, Note_off_c, 3, 41, 0
6, 82176, Note_on_c, 3, 36, 100
6, 82368, Note_off_c, 3, 36, 0
6, 82368, Note_on_c, 3, 40, 100
6, 82560, Note_off_c, 3, 40, 0
6, 82560, Note_on_c, 3, 41, 100
6, 82752, Note_off_c, 3, 41, 0
6, 82752, Note_on_c, 3, 43, 100
6, 82944, Note_off_c, 3, 43, 0
6, 82944, Note_on_c, 3, 36, 100
6, 83136, Note_off_c, 3, 36, 0
6, 83136, Note_on_c, 3, 39, 100
6, 83328, Note_off_c, 3, 39, 0
6, 83328, Note_on_c, 3, 36, 100
6, 83424, Note_off_c, 3, 36, 0
6, 83424, Note_on_c, 3, 39, 100
6, 83520, Note_off_c, 3, 39, 0
6, 83520, Note_on_c, 3, 41, 100
6, 83616, Note_off_c, 3, 41, 0
6, 83616, Note_on_c, 3, 41, 100
6, 83712, Note_off_c, 3, 41, 0
6, 83712, Note_on_c, 3, 43, 100
6, 83904, Note_off_c, 3, 43, 0
6, 83904, Note_on_c, 3, 41, 100
6, 84096, Note_off_c, 3, 41, 0
6, 84096, Note_on_c, 3, 38, 100
6, 84192, Note_off_c, 3, 38, 0
6, 84192, Note_on_c, 3, 31, 100
6, 84288, Note_off_c, 3, 31, 0
6, 84288, Note_on_c, 3, 34, 100
6, 84384, Note_off_c, 3, 34, 0
6, 84384, Note_on_c, 3, 36, 100
6, 84480, Note_off_c, 3, 36, 0
6, 84480, Note_on_c, 3, 41, 100
6, 84672, Note_off_c, 3, 41, 0
6, 84672, Note_on_c, 3, 39, 100
6, 84864, Note_off_c, 3, 39, 0
6, 84864, Note_on_c, 3, 36, 100
6, 85056, Note_off_c, 3, 36, 0
6, 85056, Note_on_c, 3, 29, 100
6, 85248, Note_off_c, 3, 29, 0
6, 85248, Note_on_c, 3, 33, 100
6, 85440, Note_off_c, 3, 33, 0
6, 85440, Note_on_c, 3, 34, 100
6, 85632, Note_off_c, 3, 34, 0
6, 85632, Note_on_c, 3, 36, 100
6, 85728, Note_off_c, 3, 36, 0
6, 85728, Note_on_c, 3, 39, 100
6, 85824, Note_off_c, 3, 39, 0
6, 85824, Note_on_c, 3, 41, 100
6, 85920, Note_off_c, 3, 41, 0
6, 85920, Note_on_c, 3, 41, 100
6, 86016, Note_off_c, 3, 41, 0
6, 86016, Note_on_c, 3, 43, 100
6, 86208, Note_off_c, 3, 43, 0
6, 86208, Note_on_c, 3, 41, 100
6, 86304, Note_off_c, 3, 41, 0
6, 86304, Note_on_c, 3, 38, 100
6, 86400, Note_off_c, 3, 38, 0
6, 86400, Note_on_c, 3, 31, 100
6, 86496, Note_off_c, 3, 31, 0
6, 86496, Note_on_c, 3, 34, 100
6, 86592, Note_off_c, 3, 34, 0
6, 86592, Note_on_c, 3, 36, 100
6, 86784, Note_off_c, 3, 36, 0
6, 86784, Note_on_c, 3, 41, 100
6, 86976, Note_off_c, 3, 41, 0
6, 86976, Note_on_c, 3, 39, 100
6, 87168, Note_off_c, 3, 39, 0
6, 87168, Note_on_c, 3, 36, 100
6, 87360, Note_off_c, 3, 36, 0
6, 87360, Note_on_c, 3, 29, 100
6, 87552, Note_off_c, 3, 29, 0
6, 87552, Note_on_c, 3, 29, 100
6, 87648, Note_off_c, 3, 29, 0
6, 87648, Note_on_c, 3, 33, 100
6, 87744, Note_off_c, 3, 33, 0
6, 87744, Note_on_c, 3, 34, 100
6, 87840, Note_off_c, 3, 34, 0
6, 87840, Note_on_c, 3, 35, 100
6, 87936, Note_off_c, 3, 35, 0
6, 87936, Note_on_c, 3, 36, 100
6, 88032, Note_off_c, 3, 36, 0
6, 88032, Note_on_c, 3, 39, 100
6, 88128, Note_off_c, 3, 39, 0
6, 88128, Note_on_c, 3, 41, 100
6, 88224, Note_off_c, 3, 41, 0
6, 88224, Note_on_c, 3, 41, 100
6, 88320, Note_off_c, 3, 41, 0
6, 88320, Note_on_c, 3, 36, 100
6, 88512, Note_off_c, 3, 36, 0
6, 88512, Note_on_c, 3, 40, 100
6, 88704, Note_off_c, 3, 40, 0
6, 88704, Note_on_c, 3, 41, 100
6, 88896, Note_off_c, 3, 41, 0
6, 88896, Note_on_c, 3, 43, 100
6, 89088, Note_off_c, 3, 43, 0
6, 89088, Note_on_c, 3, 36, 100
6, 89280, Note_off_c, 3, 36, 0
6, 89280, Note_on_c, 3, 39, 100
6, 89472, Note_off_c, 3, 39, 0
6, 89472, Note_on_c, 3, 36, 100
6, 89568, Note_off_c, 3, 36, 0
6, 89568, Note_on_c, 3, 39, 100
6, 89664, Note_off_c, 3, 39, 0
6, 89664, Note_on_c, 3, 41, 100
6, 89760, Note_off_c, 3, 41, 0
6, 89760, Note_on_c, 3, 41, 100
6, 89856, Note_off_c, 3, 41, 0
6, 89856, Note_on_c, 3, 43, 100
6, 90048, Note_off_c, 3, 43, 0
6, 90048, Note_on_c, 3, 41, 100
6, 90240, Note_off_c, 3, 41, 0
6, 90240, Note_on_c, 3, 38, 100
6, 90336, Note_off_c, 3, 38, 0
6, 90336, Note_on_c, 3, 31, 100
6, 90432, Note_off_c, 3, 31, 0
6, 90432, Note_on_c, 3, 34, 100
6, 90528, Note_off_c, 3, 34, 0
6, 90528, Note_on_c, 3, 36, 100
6, 90624, Note_off_c, 3, 36, 0
6, 90624, Note_on_c, 3, 41, 100
6, 90816, Note_off_c, 3, 41, 0
6, 90816, Note_on_c, 3, 39, 100
6, 91008, Note_off_c, 3, 39, 0
6, 91008, Note_on_c, 3, 36, 100
6, 91200, Note_off_c, 3, 36, 0
6, 91200, Note_on_c, 3, 29, 100
6, 91392, Note_off_c, 3, 29, 0
6, 91392, Note_on_c, 3, 33, 100
6, 91584, Note_off_c, 3, 33, 0
6, 91584, Note_on_c, 3, 34, 100
6, 91776, Note_off_c, 3, 34, 0
6, 91776, Note_on_c, 3, 36, 100
6, 91968, Note_off_c, 3, 36, 0
6, 91968, Note_on_c, 3, 39, 100
6, 92160, Note_off_c, 3, 39, 0
6, 92160, Note_on_c, 3, 41, 100
6, 92352, Note_off_c, 3, 41, 0
6, 92352, Note_on_c, 3, 39, 100
6, 92544, Note_off_c, 3, 39, 0
6, 92544, Note_on_c, 3, 36, 100
6, 92736, Note_off_c, 3, 36, 0
6, 92736, Note_on_c, 3, 29, 100
6, 92928, Note_off_c, 3, 29, 0
6, 92928, Note_on_c, 3, 33, 100
6, 93120, Note_off_c, 3, 33, 0
6, 93120, Note_on_c, 3, 34, 100
6, 93312, Note_off_c, 3, 34, 0
6, 93312, Note_on_c, 3, 36, 100
6, 93504, Note_off_c, 3, 36, 0
6, 93504, Note_on_c, 3, 39, 100
6, 93696, Note_off_c, 3, 39, 0
6, 93696, Note_on_c, 3, 43, 100
6, 95232, Note_off_c, 3, 43, 0
6, 95232, Note_on_c, 3, 41, 100
6, 96768, Note_off_c, 3, 41, 0
6, 96768, Note_on_c, 3, 41, 100
6, 98304, Note_off_c, 3, 41, 0
6, 98304, Note_on_c, 3, 36, 100
6, 99840, Note_off_c, 3, 36, 0
6, 99840, Note_on_c, 3, 39, 100
6, 101376, Note_off_c, 3, 39, 0
6, 101376, Note_on_c, 3, 38, 100
6, 102912, Note_off_c, 3, 38, 0
6, 102912, Note_on_c, 3, 41, 100
6, 103296, Note_off_c, 3, 41, 0
6, 103296, Note_on_c, 3, 41, 100
6, 103680, Note_off_c, 3, 41, 0
6, 103680, Note_on_c, 3, 41, 100
6, 104064, Note_off_c, 3, 41, 0
6, 104064, Note_on_c, 3, 41, 100
6, 104448, Note_off_c, 3, 41, 0
6, 104448, Note_on_c, 3, 41, 100
6, 104640, Note_off_c, 3, 41, 0
6, 104640, Note_on_c, 3, 41, 100
6, 104832, Note_off_c, 3, 41, 0
6, 104832, Note_on_c, 3, 41, 100
6, 105024, Note_off_c, 3, 41, 0
6, 105024, Note_on_c, 3, 41, 100
6, 105216, Note_off_c, 3, 41, 0
6, 105216, Note_on_c, 3, 41, 100
6, 105408, Note_off_c, 3, 41, 0
6, 105408, Note_on_c, 3, 41, 100
6, 105600, Note_off_c, 3, 41, 0
6, 105600, Note_on_c, 3, 41, 100
6, 105792, Note_off_c, 3, 41, 0
6, 105792, Note_on_c, 3, 41, 100
6, 105984, Note_off_c, 3, 41, 0
6, 105984, Note_on_c, 3, 43, 100
6, 106176, Note_off_c, 3, 43, 0
6, 106176, Note_on_c, 3, 41, 100
6, 106272, Note_off_c, 3, 41, 0
6, 106272, Note_on_c, 3, 38, 100
6, 106368, Note_off_c, 3, 38, 0
6, 106464, Note_on_c, 3, 31, 100
6, 106560, Note_off_c, 3, 31, 0
6, 106560, Note_on_c, 3, 34, 100
6, 106656, Note_off_c, 3, 34, 0
6, 106656, Note_on_c, 3, 36, 100
6, 106752, Note_off_c, 3, 36, 0
6, 106752, Note_on_c, 3, 39, 100
6, 106944, Note_off_c, 3, 39, 0
6, 106944, Note_on_c, 3, 43, 100
6, 107136, Note_off_c, 3, 43, 0
6, 107136, Note_on_c, 3, 44, 100
6, 107328, Note_off_c, 3, 44, 0
6, 107328, Note_on_c, 3, 46, 100
6, 107520, Note_off_c, 3, 46, 0
6, 107520, Note_on_c, 3, 41, 100
6, 107616, Note_off_c, 3, 41, 0
6, 107616, Note_on_c, 3, 39, 100
6, 107712, Note_off_c, 3, 39, 0
6, 107712, Note_on_c, 3, 36, 100
6, 107808, Note_off_c, 3, 36, 0
6, 107808, Note_on_c, 3, 29, 100
6, 107904, Note_off_c, 3, 29, 0
6, 107904, Note_on_c, 3, 29, 100
6, 108000, Note_off_c, 3, 29, 0
6, 108000, Note_on_c, 3, 33, 100
6, 108096, Note_off_c, 3, 33, 0
6, 108096, Note_on_c, 3, 34, 100
6, 108288, Note_off_c, 3, 34, 0
6, 108288, Note_on_c, 3, 43, 100
6, 108480, Note_off_c, 3, 43, 0
6, 108480, Note_on_c, 3, 41, 100
6, 108672, Note_off_c, 3, 41, 0
6, 108672, Note_on_c, 3, 38, 100
6, 108864, Note_off_c, 3, 38, 0
6, 108864, Note_on_c, 3, 31, 100
6, 109056, Note_off_c, 3, 31, 0
6, 109056, Note_on_c, 3, 31, 100
6, 109248, Note_off_c, 3, 31, 0
6, 109248, Note_on_c, 3, 34, 100
6, 109344, Note_off_c, 3, 34, 0
6, 109344, Note_on_c, 3, 36, 100
6, 109440, Note_off_c, 3, 36, 0
6, 109440, Note_on_c, 3, 38, 100
6, 109536, Note_off_c, 3, 38, 0
6, 109536, Note_on_c, 3, 38, 100
6, 109632, Note_off_c, 3, 38, 0
6, 109632, Note_on_c, 3, 41, 100
6, 109728, Note_off_c, 3, 41, 0
6, 109728, Note_on_c, 3, 38, 100
6, 109824, Note_off_c, 3, 38, 0
6, 109824, Note_on_c, 3, 39, 100
6, 110016, Note_off_c, 3, 39, 0
6, 110016, Note_on_c, 3, 43, 100
6, 110208, Note_off_c, 3, 43, 0
6, 110208, Note_on_c, 3, 44, 100
6, 110400, Note_off_c, 3, 44, 0
6, 110400, Note_on_c, 3, 46, 100
6, 110592, Note_off_c, 3, 46, 0
6, 110592, Note_on_c, 3, 41, 100
6, 110688, Note_off_c, 3, 41, 0
6, 110688, Note_on_c, 3, 39, 100
6, 110784, Note_off_c, 3, 39, 0
6, 110784, Note_on_c, 3, 36, 100
6, 110880, Note_off_c, 3, 36, 0
6, 110880, Note_on_c, 3, 29, 100
6, 110976, Note_off_c, 3, 29, 0
6, 110976, Note_on_c, 3, 29, 100
6, 111072, Note_off_c, 3, 29, 0
6, 111072, Note_on_c, 3, 33, 100
6, 111168, Note_off_c, 3, 33, 0
6, 111168, Note_on_c, 3, 34, 100
6, 111360, Note_off_c, 3, 34, 0
6, 111360, Note_on_c, 3, 43, 100
6, 111552, Note_off_c, 3, 43, 0
6, 111552, Note_on_c, 3, 41, 100
6, 111744, Note_off_c, 3, 41, 0
6, 111744, Note_on_c, 3, 38, 100
6, 111936, Note_off_c, 3, 38, 0
6, 111936, Note_on_c, 3, 31, 100
6, 112128, Note_off_c, 3, 31, 0
6, 112128, Note_on_c, 3, 31, 100
6, 112224, Note_off_c, 3, 31, 0
6, 112224, Note_on_c, 3, 34, 100
6, 112320, Note_off_c, 3, 34, 0
6, 112320, Note_on_c, 3, 36, 100
6, 112416, Note_off_c, 3, 36, 0
6, 112416, Note_on_c, 3, 38, 100
6, 112608, Note_off_c, 3, 38, 0
6, 112608, Note_on_c, 3, 41, 100
6, 112704, Note_off_c, 3, 41, 0
6, 112704, Note_on_c, 3, 43, 100
6, 112896, Note_off_c, 3, 43, 0
6, 112896, Note_on_c, 3, 39, 100
6, 113088, Note_off_c, 3, 39, 0
6, 113088, Note_on_c, 3, 43, 100
6, 113280, Note_off_c, 3, 43, 0
6, 113280, Note_on_c, 3, 44, 100
6, 113472, Note_off_c, 3, 44, 0
6, 113472, Note_on_c, 3, 46, 100
6, 113664, Note_off_c, 3, 46, 0
6, 113664, Note_on_c, 3, 41, 100
6, 113760, Note_off_c, 3, 41, 0
6, 113760, Note_on_c, 3, 39, 100
6, 113856, Note_off_c, 3, 39, 0
6, 113856, Note_on_c, 3, 36, 100
6, 113952, Note_off_c, 3, 36, 0
6, 113952, Note_on_c, 3, 29, 100
6, 114048, Note_off_c, 3, 29, 0
6, 114048, Note_on_c, 3, 29, 100
6, 114144, Note_off_c, 3, 29, 0
6, 114144, Note_on_c, 3, 33, 100
6, 114240, Note_off_c, 3, 33, 0
6, 114240, Note_on_c, 3, 34, 100
6, 114432, Note_off_c, 3, 34, 0
6, 114432, Note_on_c, 3, 43, 100
6, 114624, Note_off_c, 3, 43, 0
6, 114624, Note_on_c, 3, 41, 100
6, 114816, Note_off_c, 3, 41, 0
6, 114816, Note_on_c, 3, 38, 100
6, 115008, Note_off_c, 3, 38, 0
6, 115008, Note_on_c, 3, 31, 100
6, 115200, Note_off_c, 3, 31, 0
6, 115200, Note_on_c, 3, 31, 100
6, 115392, Note_off_c, 3, 31, 0
6, 115392, Note_on_c, 3, 34, 100
6, 115488, Note_off_c, 3, 34, 0
6, 115488, Note_on_c, 3, 36, 100
6, 115584, Note_off_c, 3, 36, 0
6, 115584, Note_on_c, 3, 38, 100
6, 115680, Note_off_c, 3, 38, 0
6, 115680, Note_on_c, 3, 38, 100
6, 115776, Note_off_c, 3, 38, 0
6, 115776, Note_on_c, 3, 41, 100
6, 115872, Note_off_c, 3, 41, 0
6, 115872, Note_on_c, 3, 38, 100
6, 115968, Note_off_c, 3, 38, 0
6, 115968, Note_on_c, 3, 39, 100
6, 116160, Note_off_c, 3, 39, 0
6, 116160, Note_on_c, 3, 43, 100
6, 116352, Note_off_c, 3, 43, 0
6, 116352, Note_on_c, 3, 44, 100
6, 116544, Note_off_c, 3, 44, 0
6, 116544, Note_on_c, 3, 46, 100
6, 116736, Note_off_c, 3, 46, 0
6, 116736, Note_on_c, 3, 41, 100
6, 116832, Note_off_c, 3, 41, 0
6, 116832, Note_on_c, 3, 39, 100
6, 116928, Note_off_c, 3, 39, 0
6, 116928, Note_on_c, 3, 36, 100
6, 117024, Note_off_c, 3, 36, 0
6, 117024, Note_on_c, 3, 29, 100
6, 117120, Note_off_c, 3, 29, 0
6, 117120, Note_on_c, 3, 29, 100
6, 117216, Note_off_c, 3, 29, 0
6, 117216, Note_on_c, 3, 33, 100
6, 117312, Note_off_c, 3, 33, 0
6, 117312, Note_on_c, 3, 34, 100
6, 117504, Note_off_c, 3, 34, 0
6, 117504, Note_on_c, 3, 36, 100
6, 117696, Note_off_c, 3, 36, 0
6, 117696, Note_on_c, 3, 39, 100
6, 117888, Note_off_c, 3, 39, 0
6, 117888, Note_on_c, 3, 41, 100
6, 118080, Note_off_c, 3, 41, 0
6, 118080, Note_on_c, 3, 41, 100
6, 118272, Note_off_c, 3, 41, 0
6, 118272, Note_on_c, 3, 41, 100
6, 118368, Note_off_c, 3, 41, 0
6, 118368, Note_on_c, 3, 39, 100
6, 118464, Note_off_c, 3, 39, 0
6, 118464, Note_on_c, 3, 36, 100
6, 118560, Note_off_c, 3, 36, 0
6, 118560, Note_on_c, 3, 29, 100
6, 118656, Note_off_c, 3, 29, 0
6, 118656, Note_on_c, 3, 29, 100
6, 118752, Note_off_c, 3, 29, 0
6, 118752, Note_on_c, 3, 33, 100
6, 118848, Note_off_c, 3, 33, 0
6, 118848, Note_on_c, 3, 34, 100
6, 119040, Note_off_c, 3, 34, 0
6, 119040, Note_on_c, 3, 36, 100
6, 119232, Note_off_c, 3, 36, 0
6, 119232, Note_on_c, 3, 39, 100
6, 119424, Note_off_c, 3, 39, 0
6, 119424, Note_on_c, 3, 41, 100
6, 119616, Note_off_c, 3, 41, 0
6, 119616, Note_on_c, 3, 41, 100
6, 119808, Note_off_c, 3, 41, 0
6, 119808, Note_on_c, 3, 41, 100
6, 119904, Note_off_c, 3, 41, 0
6, 119904, Note_on_c, 3, 39, 100
6, 120000, Note_off_c, 3, 39, 0
6, 120000, Note_on_c, 3, 36, 100
6, 120096, Note_off_c, 3, 36, 0
6, 120096, Note_on_c, 3, 29, 100
6, 120192, Note_off_c, 3, 29, 0
6, 120192, Note_on_c, 3, 29, 100
6, 120288, Note_off_c, 3, 29, 0
6, 120288, Note_on_c, 3, 33, 100
6, 120384, Note_off_c, 3, 33, 0
6, 120384, Note_on_c, 3, 34, 100
6, 120576, Note_off_c, 3, 34, 0
6, 120576, Note_on_c, 3, 39, 100
6, 120768, Note_off_c, 3, 39, 0
6, 120768, Note_on_c, 3, 43, 100
6, 120960, Note_off_c, 3, 43, 0
6, 120960, Note_on_c, 3, 44, 100
6, 121152, Note_off_c, 3, 44, 0
6, 121152, Note_on_c, 3, 46, 100
6, 121344, Note_off_c, 3, 46, 0
6, 121344, Note_on_c, 3, 41, 100
6, 121440, Note_off_c, 3, 41, 0
6, 121440, Note_on_c, 3, 39, 100
6, 121536, Note_off_c, 3, 39, 0
6, 121536, Note_on_c, 3, 36, 100
6, 121632, Note_off_c, 3, 36, 0
6, 121632, Note_on_c, 3, 29, 100
6, 121728, Note_off_c, 3, 29, 0
6, 121728, Note_on_c, 3, 29, 100
6, 121824, Note_off_c, 3, 29, 0
6, 121824, Note_on_c, 3, 33, 100
6, 121920, Note_off_c, 3, 33, 0
6, 121920, Note_on_c, 3, 34, 100
6, 122112, Note_off_c, 3, 34, 0
6, 122112, Note_on_c, 3, 43, 100
6, 122304, Note_off_c, 3, 43, 0
6, 122304, Note_on_c, 3, 41, 100
6, 122496, Note_off_c, 3, 41, 0
6, 122496, Note_on_c, 3, 38, 100
6, 122688, Note_off_c, 3, 38, 0
6, 122688, Note_on_c, 3, 31, 100
6, 122880, Note_off_c, 3, 31, 0
6, 122880, Note_on_c, 3, 31, 100
6, 123072, Note_off_c, 3, 31, 0
6, 123072, Note_on_c, 3, 34, 100
6, 123168, Note_off_c, 3, 34, 0
6, 123168, Note_on_c, 3, 36, 100
6, 123264, Note_off_c, 3, 36, 0
6, 123264, Note_on_c, 3, 38, 100
6, 123360, Note_off_c, 3, 38, 0
6, 123360, Note_on_c, 3, 38, 100
6, 123456, Note_off_c, 3, 38, 0
6, 123456, Note_on_c, 3, 41, 100
6, 123552, Note_off_c, 3, 41, 0
6, 123552, Note_on_c, 3, 38, 100
6, 123648, Note_off_c, 3, 38, 0
6, 123648, Note_on_c, 3, 39, 100
6, 123840, Note_off_c, 3, 39, 0
6, 123840, Note_on_c, 3, 43, 100
6, 124032, Note_off_c, 3, 43, 0
6, 124032, Note_on_c, 3, 44, 100
6, 124224, Note_off_c, 3, 44, 0
6, 124224, Note_on_c, 3, 46, 100
6, 124416, Note_off_c, 3, 46, 0
6, 124416, Note_on_c, 3, 41, 100
6, 124512, Note_off_c, 3, 41, 0
6, 124512, Note_on_c, 3, 39, 100
6, 124608, Note_off_c, 3, 39, 0
6, 124608, Note_on_c, 3, 36, 100
6, 124704, Note_off_c, 3, 36, 0
6, 124704, Note_on_c, 3, 29, 100
6, 124896, Note_off_c, 3, 29, 0
6, 124896, Note_on_c, 3, 33, 100
6, 124992, Note_off_c, 3, 33, 0
6, 124992, Note_on_c, 3, 34, 100
6, 125184, Note_off_c, 3, 34, 0
6, 125184, Note_on_c, 3, 43, 100
6, 125376, Note_off_c, 3, 43, 0
6, 125376, Note_on_c, 3, 41, 100
6, 125568, Note_off_c, 3, 41, 0
6, 125568, Note_on_c, 3, 38, 100
6, 125760, Note_off_c, 3, 38, 0
6, 125760, Note_on_c, 3, 31, 100
6, 125952, Note_off_c, 3, 31, 0
6, 125952, Note_on_c, 3, 31, 100
6, 126144, Note_off_c, 3, 31, 0
6, 126144, Note_on_c, 3, 34, 100
6, 126240, Note_off_c, 3, 34, 0
6, 126240, Note_on_c, 3, 36, 100
6, 126432, Note_off_c, 3, 36, 0
6, 126432, Note_on_c, 3, 39, 100
6, 126528, Note_off_c, 3, 39, 0
6, 126528, Note_on_c, 3, 41, 100
6, 126624, Note_off_c, 3, 41, 0
6, 126624, Note_on_c, 3, 38, 100
6, 126720, Note_off_c, 3, 38, 0
6, 126720, Note_on_c, 3, 39, 100
6, 126912, Note_off_c, 3, 39, 0
6, 126912, Note_on_c, 3, 43, 100
6, 127104, Note_off_c, 3, 43, 0
6, 127104, Note_on_c, 3, 44, 100
6, 127296, Note_off_c, 3, 44, 0
6, 127296, Note_on_c, 3, 46, 100
6, 127488, Note_off_c, 3, 46, 0
6, 127488, Note_on_c, 3, 41, 100
6, 127584, Note_off_c, 3, 41, 0
6, 127584, Note_on_c, 3, 39, 100
6, 127680, Note_off_c, 3, 39, 0
6, 127680, Note_on_c, 3, 38, 100
6, 127776, Note_off_c, 3, 38, 0
6, 127776, Note_on_c, 3, 29, 100
6, 127872, Note_off_c, 3, 29, 0
6, 127872, Note_on_c, 3, 29, 100
6, 127968, Note_off_c, 3, 29, 0
6, 127968, Note_on_c, 3, 33, 100
6, 128064, Note_off_c, 3, 33, 0
6, 128064, Note_on_c, 3, 34, 100
6, 128256, Note_off_c, 3, 34, 0
6, 128256, Note_on_c, 3, 43, 100
6, 128448, Note_off_c, 3, 43, 0
6, 128448, Note_on_c, 3, 41, 100
6, 128640, Note_off_c, 3, 41, 0
6, 128640, Note_on_c, 3, 38, 100
6, 128832, Note_off_c, 3, 38, 0
6, 128832, Note_on_c, 3, 31, 100
6, 129024, Note_off_c, 3, 31, 0
6, 129024, Note_on_c, 3, 31, 100
6, 129216, Note_off_c, 3, 31, 0
6, 129216, Note_on_c, 3, 34, 100
6, 129312, Note_off_c, 3, 34, 0
6, 129312, Note_on_c, 3, 36, 100
6, 129408, Note_off_c, 3, 36, 0
6, 129408, Note_on_c, 3, 38, 100
6, 129504, Note_off_c, 3, 38, 0
6, 129504, Note_on_c, 3, 38, 100
6, 129600, Note_off_c, 3, 38, 0
6, 129600, Note_on_c, 3, 41, 100
6, 129696, Note_off_c, 3, 41, 0
6, 129696, Note_on_c, 3, 38, 100
6, 129792, Note_off_c, 3, 38, 0
6, 129792, Note_on_c, 3, 39, 100
6, 129984, Note_off_c, 3, 39, 0
6, 129984, Note_on_c, 3, 43, 100
6, 130176, Note_off_c, 3, 43, 0
6, 130176, Note_on_c, 3, 44, 100
6, 130368, Note_off_c, 3, 44, 0
6, 130368, Note_on_c, 3, 46, 100
6, 130560, Note_off_c, 3, 46, 0
6, 130560, Note_on_c, 3, 41, 100
6, 130752, Note_off_c, 3, 41, 0
6, 130752, Note_on_c, 3, 39, 100
6, 130848, Note_off_c, 3, 39, 0
6, 130848, Note_on_c, 3, 36, 100
6, 130944, Note_off_c, 3, 36, 0
6, 131040, Note_on_c, 3, 29, 100
6, 131136, Note_off_c, 3, 29, 0
6, 131136, Note_on_c, 3, 33, 100
6, 131328, Note_off_c, 3, 33, 0
6, 131328, Note_on_c, 3, 34, 100
6, 131520, Note_off_c, 3, 34, 0
6, 131520, Note_on_c, 3, 36, 100
6, 131712, Note_off_c, 3, 36, 0
6, 131712, Note_on_c, 3, 39, 100
6, 131904, Note_off_c, 3, 39, 0
6, 131904, Note_on_c, 3, 41, 100
6, 132096, Note_off_c, 3, 41, 0
6, 132096, Note_on_c, 3, 41, 100
6, 132192, Note_off_c, 3, 41, 0
6, 132192, Note_on_c, 3, 39, 100
6, 132288, Note_off_c, 3, 39, 0
6, 132288, Note_on_c, 3, 36, 100
6, 132384, Note_off_c, 3, 36, 0
6, 132384, Note_on_c, 3, 29, 100
6, 132480, Note_off_c, 3, 29, 0
6, 132576, Note_on_c, 3, 33, 100
6, 132672, Note_off_c, 3, 33, 0
6, 132672, Note_on_c, 3, 34, 100
6, 132864, Note_off_c, 3, 34, 0
6, 132864, Note_on_c, 3, 36, 100
6, 133056, Note_off_c, 3, 36, 0
6, 133056, Note_on_c, 3, 39, 100
6, 133248, Note_off_c, 3, 39, 0
6, 133248, Note_on_c, 3, 41, 100
6, 133440, Note_off_c, 3, 41, 0
6, 133440, Note_on_c, 3, 41, 100
6, 133632, Note_off_c, 3, 41, 0
6, 133632, Note_on_c, 3, 43, 100
6, 133680, Note_off_c, 3, 43, 0
6, 147456, Note_on_c, 3, 50, 100
6, 147552, Note_off_c, 3, 50, 0
6, 147552, Note_on_c, 3, 43, 100
6, 147648, Note_off_c, 3, 43, 0
6, 147648, Note_on_c, 3, 46, 100
6, 147744, Note_off_c, 3, 46, 0
6, 147744, Note_on_c, 3, 48, 100
6, 147840, Note_off_c, 3, 48, 0
6, 147840, Note_on_c, 3, 49, 100
6, 148032, Note_off_c, 3, 49, 0
6, 148032, Note_on_c, 3, 48, 100
6, 148128, Note_off_c, 3, 48, 0
6, 148992, Note_on_c, 3, 50, 100
6, 149088, Note_off_c, 3, 50, 0
6, 149088, Note_on_c, 3, 43, 100
6, 149184, Note_off_c, 3, 43, 0
6, 149184, Note_on_c, 3, 46, 100
6, 149280, Note_off_c, 3, 46, 0
6, 149280, Note_on_c, 3, 48, 100
6, 149376, Note_off_c, 3, 48, 0
6, 149376, Note_on_c, 3, 49, 100
6, 149568, Note_off_c, 3, 49, 0
6, 149568, Note_on_c, 3, 48, 100
6, 149664, Note_off_c, 3, 48, 0
6, 150528, Note_on_c, 3, 50, 100
6, 150624, Note_off_c, 3, 50, 0
6, 150624, Note_on_c, 3, 43, 100
6, 150720, Note_off_c, 3, 43, 0
6, 150720, Note_on_c, 3, 46, 100
6, 150816, Note_off_c, 3, 46, 0
6, 150816, Note_on_c, 3, 48, 100
6, 150912, Note_off_c, 3, 48, 0
6, 150912, Note_on_c, 3, 49, 100
6, 151104, Note_off_c, 3, 49, 0
6, 151104, Note_on_c, 3, 48, 100
6, 151200, Note_off_c, 3, 48, 0
6, 151296, Note_on_c, 3, 37, 100
6, 151584, Note_off_c, 3, 37, 0
6, 151584, Note_on_c, 3, 37, 100
6, 151680, Note_off_c, 3, 37, 0
6, 151680, Note_on_c, 3, 37, 100
6, 152160, Note_off_c, 3, 37, 0
6, 152160, Note_on_c, 3, 39, 100
6, 152256, Note_off_c, 3, 39, 0
6, 152352, Note_on_c, 3, 39, 100
6, 152448, Note_off_c, 3, 39, 0
6, 152448, Note_on_c, 3, 39, 100
6, 152736, Note_off_c, 3, 39, 0
6, 152736, Note_on_c, 3, 39, 100
6, 152832, Note_off_c, 3, 39, 0
6, 152832, Note_on_c, 3, 41, 100
6, 153120, Note_off_c, 3, 41, 0
6, 153120, Note_on_c, 3, 41, 100
6, 153216, Note_off_c, 3, 41, 0
6, 153216, Note_on_c, 3, 41, 100
6, 153312, Note_off_c, 3, 41, 0
6, 153408, Note_on_c, 3, 41, 100
6, 153504, Note_off_c, 3, 41, 0
6, 153504, Note_on_c, 3, 48, 100
6, 153600, Note_off_c, 3, 48, 0
6, 153600, Note_on_c, 3, 41, 100
6, 153696, Note_off_c, 3, 41, 0
6, 153696, Note_on_c, 3, 48, 100
6, 153792, Note_off_c, 3, 48, 0
6, 153792, Note_on_c, 3, 49, 100
6, 153888, Note_off_c, 3, 49, 0
6, 153984, Note_on_c, 3, 44, 100
6, 154368, Note_off_c, 3, 44, 0
6, 154464, Note_on_c, 3, 46, 100
6, 154560, Note_off_c, 3, 46, 0
6, 154560, Note_on_c, 3, 46, 100
6, 154656, Note_off_c, 3, 46, 0
6, 154656, Note_on_c, 3, 46, 100
6, 154752, Note_off_c, 3, 46, 0
6, 154752, Note_on_c, 3, 46, 100
6, 154848, Note_off_c, 3, 46, 0
6, 154848, Note_on_c, 3, 44, 100
6, 154944, Note_off_c, 3, 44, 0
6, 154944, Note_on_c, 3, 49, 100
6, 155040, Note_off_c, 3, 49, 0
6, 155136, Note_on_c, 3, 49, 100
6, 155232, Note_off_c, 3, 49, 0
6, 155232, Note_on_c, 3, 47, 100
6, 155328, Note_off_c, 3, 47, 0
6, 155328, Note_on_c, 3, 42, 100
6, 155520, Note_off_c, 3, 42, 0
6, 155520, Note_on_c, 3, 45, 100
6, 155904, Note_off_c, 3, 45, 0
6, 155904, Note_on_c, 3, 50, 100
6, 156000, Note_off_c, 3, 50, 0
6, 156000, Note_on_c, 3, 43, 100
6, 156096, Note_off_c, 3, 43, 0
6, 156096, Note_on_c, 3, 46, 100
6, 156192, Note_off_c, 3, 46, 0
6, 156192, Note_on_c, 3, 48, 100
6, 156288, Note_off_c, 3, 48, 0
6, 156288, Note_on_c, 3, 49, 100
6, 156480, Note_off_c, 3, 49, 0
6, 156480, Note_on_c, 3, 48, 100
6, 156576, Note_off_c, 3, 48, 0
6, 156672, Note_on_c, 3, 37, 100
6, 156960, Note_off_c, 3, 37, 0
6, 156960, Note_on_c, 3, 37, 100
6, 157056, Note_off_c, 3, 37, 0
6, 157056, Note_on_c, 3, 37, 100
6, 157536, Note_off_c, 3, 37, 0
6, 157536, Note_on_c, 3, 39, 100
6, 157632, Note_off_c, 3, 39, 0
6, 157728, Note_on_c, 3, 39, 100
6, 157824, Note_off_c, 3, 39, 0
6, 157824, Note_on_c, 3, 39, 100
6, 158112, Note_off_c, 3, 39, 0
6, 158112, Note_on_c, 3, 39, 100
6, 158208, Note_off_c, 3, 39, 0
6, 158208, Note_on_c, 3, 41, 100
6, 158496, Note_off_c, 3, 41, 0
6, 158496, Note_on_c, 3, 41, 100
6, 158592, Note_off_c, 3, 41, 0
6, 158592, Note_on_c, 3, 41, 100
6, 158688, Note_off_c, 3, 41, 0
6, 158784, Note_on_c, 3, 41, 100
6, 158880, Note_off_c, 3, 41, 0
6, 158880, Note_on_c, 3, 48, 100
6, 158976, Note_off_c, 3, 48, 0
6, 158976, Note_on_c, 3, 41, 100
6, 159072, Note_off_c, 3, 41, 0
6, 159072, Note_on_c, 3, 48, 100
6, 159168, Note_off_c, 3, 48, 0
6, 159168, Note_on_c, 3, 49, 100
6, 159264, Note_off_c, 3, 49, 0
6, 159360, Note_on_c, 3, 44, 100
6, 159744, Note_off_c, 3, 44, 0
6, 159840, Note_on_c, 3, 46, 100
6, 159936, Note_off_c, 3, 46, 0
6, 159936, Note_on_c, 3, 46, 100
6, 160032, Note_off_c, 3, 46, 0
6, 160032, Note_on_c, 3, 46, 100
6, 160128, Note_off_c, 3, 46, 0
6, 160128, Note_on_c, 3, 46, 100
6, 160224, Note_off_c, 3, 46, 0
6, 160224, Note_on_c, 3, 44, 100
6, 160320, Note_off_c, 3, 44, 0
6, 160320, Note_on_c, 3, 49, 100
6, 160416, Note_off_c, 3, 49, 0
6, 160512, Note_on_c, 3, 49, 100
6, 160608, Note_off_c, 3, 49, 0
6, 160608, Note_on_c, 3, 47, 100
6, 160704, Note_off_c, 3, 47, 0
6, 160704, Note_on_c, 3, 42, 100
6, 160896, Note_off_c, 3, 42, 0
6, 160896, Note_on_c, 3, 45, 100
6, 161280, Note_off_c, 3, 45, 0
6, 161280, Note_on_c, 3, 50, 100
6, 161376, Note_off_c, 3, 50, 0
6, 161376, Note_on_c, 3, 43, 100
6, 161472, Note_off_c, 3, 43, 0
6, 161472, Note_on_c, 3, 46, 100
6, 161568, Note_off_c, 3, 46, 0
6, 161568, Note_on_c, 3, 48, 100
6, 161664, Note_off_c, 3, 48, 0
6, 161664, Note_on_c, 3, 49, 100
6, 161856, Note_off_c, 3, 49, 0
6, 161856, Note_on_c, 3, 48, 100
6, 161952, Note_off_c, 3, 48, 0
6, 162048, Note_on_c, 3, 37, 100
6, 162336, Note_off_c, 3, 37, 0
6, 162336, Note_on_c, 3, 37, 100
6, 162432, Note_off_c, 3, 37, 0
6, 162432, Note_on_c, 3, 37, 100
6, 162912, Note_off_c, 3, 37, 0
6, 162912, Note_on_c, 3, 39, 100
6, 163008, Note_off_c, 3, 39, 0
6, 163104, Note_on_c, 3, 39, 100
6, 163200, Note_off_c, 3, 39, 0
6, 163200, Note_on_c, 3, 39, 100
6, 163488, Note_off_c, 3, 39, 0
6, 163488, Note_on_c, 3, 39, 100
6, 163584, Note_off_c, 3, 39, 0
6, 163584, Note_on_c, 3, 41, 100
6, 163872, Note_off_c, 3, 41, 0
6, 163872, Note_on_c, 3, 41, 100
6, 163968, Note_off_c, 3, 41, 0
6, 163968, Note_on_c, 3, 41, 100
6, 164064, Note_off_c, 3, 41, 0
6, 164160, Note_on_c, 3, 41, 100
6, 164256, Note_off_c, 3, 41, 0
6, 164256, Note_on_c, 3, 48, 100
6, 164352, Note_off_c, 3, 48, 0
6, 164352, Note_on_c, 3, 41, 100
6, 164448, Note_off_c, 3, 41, 0
6, 164448, Note_on_c, 3, 48, 100
6, 164544, Note_off_c, 3, 48, 0
6, 164544, Note_on_c, 3, 49, 100
6, 164640, Note_off_c, 3, 49, 0
6, 164736, Note_on_c, 3, 44, 100
6, 165120, Note_off_c, 3, 44, 0
6, 165216, Note_on_c, 3, 46, 100
6, 165312, Note_off_c, 3, 46, 0
6, 165312, Note_on_c, 3, 46, 100
6, 165408, Note_off_c, 3, 46, 0
6, 165408, Note_on_c, 3, 46, 100
6, 165504, Note_off_c, 3, 46, 0
6, 165504, Note_on_c, 3, 46, 100
6, 165600, Note_off_c, 3, 46, 0
6, 165600, Note_on_c, 3, 44, 100
6, 165696, Note_off_c, 3, 44, 0
6, 165696, Note_on_c, 3, 49, 100
6, 165792, Note_off_c, 3, 49, 0
6, 165888, Note_on_c, 3, 49, 100
6, 165984, Note_off_c, 3, 49, 0
6, 165984, Note_on_c, 3, 47, 100
6, 166080, Note_off_c, 3, 47, 0
6, 166080, Note_on_c, 3, 42, 100
6, 166272, Note_off_c, 3, 42, 0
6, 166272, Note_on_c, 3, 45, 100
6, 166656, Note_off_c, 3, 45, 0
6, 166656, Note_on_c, 3, 50, 100
6, 166752, Note_off_c, 3, 50, 0
6, 166752, Note_on_c, 3, 43, 100
6, 166848, Note_off_c, 3, 43, 0
6, 166848, Note_on_c, 3, 46, 100
6, 166944, Note_off_c, 3, 46, 0
6, 166944, Note_on_c, 3, 48, 100
6, 167040, Note_off_c, 3, 48, 0
6, 167040, Note_on_c, 3, 49, 100
6, 167232, Note_off_c, 3, 49, 0
6, 167232, Note_on_c, 3, 48, 100
6, 167328, Note_off_c, 3, 48, 0
6, 167424, Note_on_c, 3, 37, 100
6, 167712, Note_off_c, 3, 37, 0
6, 167712, Note_on_c, 3, 37, 100
6, 167808, Note_off_c, 3, 37, 0
6, 167808, Note_on_c, 3, 37, 100
6, 168288, Note_off_c, 3, 37, 0
6, 168288, Note_on_c, 3, 39, 100
6, 168384, Note_off_c, 3, 39, 0
6, 168480, Note_on_c, 3, 39, 100
6, 168576, Note_off_c, 3, 39, 0
6, 168576, Note_on_c, 3, 39, 100
6, 168864, Note_off_c, 3, 39, 0
6, 168864, Note_on_c, 3, 39, 100
6, 168960, Note_off_c, 3, 39, 0
6, 168960, Note_on_c, 3, 41, 100
6, 169248, Note_off_c, 3, 41, 0
6, 169248, Note_on_c, 3, 41, 100
6, 169344, Note_off_c, 3, 41, 0
6, 169344, Note_on_c, 3, 41, 100
6, 169440, Note_off_c, 3, 41, 0
6, 169536, Note_on_c, 3, 41, 100
6, 169632, Note_off_c, 3, 41, 0
6, 169632, Note_on_c, 3, 48, 100
6, 169728, Note_off_c, 3, 48, 0
6, 169728, Note_on_c, 3, 41, 100
6, 169824, Note_off_c, 3, 41, 0
6, 169824, Note_on_c, 3, 48, 100
6, 169920, Note_off_c, 3, 48, 0
6, 169920, Note_on_c, 3, 49, 100
6, 170016, Note_off_c, 3, 49, 0
6, 170112, Note_on_c, 3, 44, 100
6, 170496, Note_off_c, 3, 44, 0
6, 170592, Note_on_c, 3, 46, 100
6, 170688, Note_off_c, 3, 46, 0
6, 170688, Note_on_c, 3, 46, 100
6, 170784, Note_off_c, 3, 46, 0
6, 170784, Note_on_c, 3, 46, 100
6, 170880, Note_off_c, 3, 46, 0
6, 170880, Note_on_c, 3, 46, 100
6, 170976, Note_off_c, 3, 46, 0
6, 170976, Note_on_c, 3, 44, 100
6, 171072, Note_off_c, 3, 44, 0
6, 171072, Note_on_c, 3, 49, 100
6, 171168, Note_off_c, 3, 49, 0
6, 171264, Note_on_c, 3, 49, 100
6, 171360, Note_off_c, 3, 49, 0
6, 171360, Note_on_c, 3, 47, 100
6, 171456, Note_off_c, 3, 47, 0
6, 171456, Note_on_c, 3, 42, 100
6, 171648, Note_off_c, 3, 42, 0
6, 171648, Note_on_c, 3, 45, 100
6, 172032, Note_off_c, 3, 45, 0
6, 175104, Note_on_c, 3, 50, 100
6, 175200, Note_off_c, 3, 50, 0
6, 175200, Note_on_c, 3, 43, 100
6, 175296, Note_off_c, 3, 43, 0
6, 175296, Note_on_c, 3, 46, 100
6, 175392, Note_off_c, 3, 46, 0
6, 175392, Note_on_c, 3, 48, 100
6, 175488, Note_off_c, 3, 48, 0
6, 175488, Note_on_c, 3, 49, 100
6, 175680, Note_off_c, 3, 49, 0
6, 175680, Note_on_c, 3, 48, 100
6, 175776, Note_off_c, 3, 48, 0
6, 175872, Note_on_c, 3, 37, 120
6, 177024, Note_off_c, 3, 37, 0
6, 177024, Note_on_c, 3, 39, 120
6, 178176, Note_off_c, 3, 39, 0
6, 178176, Note_on_c, 3, 41, 120
6, 179704, Note_off_c, 3, 41, 0
6, 179707, Pitch_bend_c, 3, 16383
6, 179712, Note_on_c, 3, 39, 127
6, 179809, Pitch_bend_c, 3, 16256
6, 179811, Pitch_bend_c, 3, 15872
6, 179814, Pitch_bend_c, 3, 15488
6, 179816, Pitch_bend_c, 3, 15104
6, 179819, Pitch_bend_c, 3, 14592
6, 179820, Pitch_bend_c, 3, 14208
6, 179824, Pitch_bend_c, 3, 13824
6, 179825, Pitch_bend_c, 3, 13312
6, 179827, Pitch_bend_c, 3, 12928
6, 179830, Pitch_bend_c, 3, 12544
6, 179832, Pitch_bend_c, 3, 12032
6, 179835, Pitch_bend_c, 3, 11648
6, 179836, Pitch_bend_c, 3, 11264
6, 179840, Pitch_bend_c, 3, 10752
6, 179841, Pitch_bend_c, 3, 10368
6, 179843, Pitch_bend_c, 3, 9984
6, 179846, Pitch_bend_c, 3, 9472
6, 179848, Pitch_bend_c, 3, 9088
6, 179851, Pitch_bend_c, 3, 8704
6, 179852, Pitch_bend_c, 3, 8192
6, 179856, Pitch_bend_c, 3, 7808
6, 179857, Pitch_bend_c, 3, 7424
6, 179859, Pitch_bend_c, 3, 7040
6, 179862, Pitch_bend_c, 3, 6528
6, 179864, Pitch_bend_c, 3, 6144
6, 179867, Pitch_bend_c, 3, 5760
6, 179868, Pitch_bend_c, 3, 5248
6, 179872, Pitch_bend_c, 3, 4864
6, 179873, Pitch_bend_c, 3, 4480
6, 179875, Pitch_bend_c, 3, 3968
6, 179878, Pitch_bend_c, 3, 3584
6, 179880, Pitch_bend_c, 3, 3200
6, 179883, Pitch_bend_c, 3, 2688
6, 179884, Pitch_bend_c, 3, 2304
6, 179888, Pitch_bend_c, 3, 1920
6, 179889, Pitch_bend_c, 3, 1408
6, 179891, Pitch_bend_c, 3, 1024
6, 179894, Pitch_bend_c, 3, 640
6, 179896, Pitch_bend_c, 3, 128
6, 179904, Note_off_c, 3, 39, 0
6, 179926, Pitch_bend_c, 3, 8192
6, 179926, End_track
7, 0, Start_track
7, 0, Title_t, "Drums"
7, 0, Channel_prefix, 9
7, 0, Control_c, 9, 7, 100
7, 0, Control_c, 9, 10, 74
7, 0, Program_c, 9, 118
7, 9, Control_c, 9, 91, 55
7, 2680, Note_on_c, 9, 38, 90
7, 2688, Note_on_c, 9, 38, 90
7, 2688, Note_on_c, 9, 38, 90
7, 2702, Note_off_c, 9, 38, 0
7, 2710, Note_off_c, 9, 38, 0
7, 2710, Note_off_c, 9, 38, 0
7, 2816, Note_on_c, 9, 38, 90
7, 2838, Note_off_c, 9, 38, 0
7, 2880, Note_on_c, 9, 45, 90
7, 2902, Note_off_c, 9, 45, 0
7, 3072, Note_on_c, 9, 45, 90
7, 3094, Note_off_c, 9, 45, 0
7, 3120, Note_on_c, 9, 45, 90
7, 3142, Note_off_c, 9, 45, 0
7, 3360, Note_on_c, 9, 45, 90
7, 3382, Note_off_c, 9, 45, 0
7, 3456, Note_on_c, 9, 45, 90
7, 3478, Note_off_c, 9, 45, 0
7, 3552, Note_on_c, 9, 45, 90
7, 3574, Note_off_c, 9, 45, 0
7, 3648, Note_on_c, 9, 45, 90
7, 3670, Note_off_c, 9, 45, 0
7, 3840, Note_on_c, 9, 35, 90
7, 3862, Note_off_c, 9, 35, 0
7, 3888, Note_on_c, 9, 45, 90
7, 3910, Note_off_c, 9, 45, 0
7, 4032, Note_on_c, 9, 35, 90
7, 4054, Note_off_c, 9, 35, 0
7, 4128, Note_on_c, 9, 35, 90
7, 4150, Note_off_c, 9, 35, 0
7, 4224, Note_on_c, 9, 51, 90
7, 4224, Note_on_c, 9, 35, 90
7, 4246, Note_off_c, 9, 35, 0
7, 4246, Note_off_c, 9, 51, 0
7, 4320, Note_on_c, 9, 35, 90
7, 4342, Note_off_c, 9, 35, 0
7, 4416, Note_on_c, 9, 35, 90
7, 4438, Note_off_c, 9, 35, 0
7, 4512, Note_on_c, 9, 35, 90
7, 4534, Note_off_c, 9, 35, 0
7, 4608, Note_on_c, 9, 35, 90
7, 4630, Note_off_c, 9, 35, 0
7, 4656, Note_on_c, 9, 45, 90
7, 4678, Note_off_c, 9, 45, 0
7, 4800, Note_on_c, 9, 35, 90
7, 4822, Note_off_c, 9, 35, 0
7, 4896, Note_on_c, 9, 35, 90
7, 4918, Note_off_c, 9, 35, 0
7, 4992, Note_on_c, 9, 51, 90
7, 4992, Note_on_c, 9, 35, 90
7, 5014, Note_off_c, 9, 35, 0
7, 5014, Note_off_c, 9, 51, 0
7, 5088, Note_on_c, 9, 35, 90
7, 5110, Note_off_c, 9, 35, 0
7, 5184, Note_on_c, 9, 35, 90
7, 5206, Note_off_c, 9, 35, 0
7, 5280, Note_on_c, 9, 35, 90
7, 5302, Note_off_c, 9, 35, 0
7, 5376, Note_on_c, 9, 35, 90
7, 5398, Note_off_c, 9, 35, 0
7, 5424, Note_on_c, 9, 45, 90
7, 5446, Note_off_c, 9, 45, 0
7, 5568, Note_on_c, 9, 35, 90
7, 5590, Note_off_c, 9, 35, 0
7, 5664, Note_on_c, 9, 35, 90
7, 5686, Note_off_c, 9, 35, 0
7, 5760, Note_on_c, 9, 51, 90
7, 5760, Note_on_c, 9, 35, 90
7, 5782, Note_off_c, 9, 35, 0
7, 5782, Note_off_c, 9, 51, 0
7, 5856, Note_on_c, 9, 35, 90
7, 5878, Note_off_c, 9, 35, 0
7, 5952, Note_on_c, 9, 35, 90
7, 5974, Note_off_c, 9, 35, 0
7, 6048, Note_on_c, 9, 35, 90
7, 6070, Note_off_c, 9, 35, 0
7, 6144, Note_on_c, 9, 35, 90
7, 6166, Note_off_c, 9, 35, 0
7, 6192, Note_on_c, 9, 45, 90
7, 6214, Note_off_c, 9, 45, 0
7, 6336, Note_on_c, 9, 35, 90
7, 6358, Note_off_c, 9, 35, 0
7, 6432, Note_on_c, 9, 35, 90
7, 6454, Note_off_c, 9, 35, 0
7, 6528, Note_on_c, 9, 51, 90
7, 6528, Note_on_c, 9, 35, 90
7, 6550, Note_off_c, 9, 35, 0
7, 6550, Note_off_c, 9, 51, 0
7, 6624, Note_on_c, 9, 35, 90
7, 6646, Note_off_c, 9, 35, 0
7, 6720, Note_on_c, 9, 35, 90
7, 6742, Note_off_c, 9, 35, 0
7, 6816, Note_on_c, 9, 35, 90
7, 6838, Note_off_c, 9, 35, 0
7, 6912, Note_on_c, 9, 35, 90
7, 6934, Note_off_c, 9, 35, 0
7, 6960, Note_on_c, 9, 45, 90
7, 6982, Note_off_c, 9, 45, 0
7, 7104, Note_on_c, 9, 35, 90
7, 7126, Note_off_c, 9, 35, 0
7, 7200, Note_on_c, 9, 35, 90
7, 7222, Note_off_c, 9, 35, 0
7, 7296, Note_on_c, 9, 51, 90
7, 7296, Note_on_c, 9, 35, 90
7, 7318, Note_off_c, 9, 35, 0
7, 7318, Note_off_c, 9, 51, 0
7, 7392, Note_on_c, 9, 35, 90
7, 7414, Note_off_c, 9, 35, 0
7, 7488, Note_on_c, 9, 35, 90
7, 7510, Note_off_c, 9, 35, 0
7, 7584, Note_on_c, 9, 35, 90
7, 7606, Note_off_c, 9, 35, 0
7, 7680, Note_on_c, 9, 35, 90
7, 7702, Note_off_c, 9, 35, 0
7, 7728, Note_on_c, 9, 45, 90
7, 7750, Note_off_c, 9, 45, 0
7, 7872, Note_on_c, 9, 35, 90
7, 7894, Note_off_c, 9, 35, 0
7, 7968, Note_on_c, 9, 35, 90
7, 7990, Note_off_c, 9, 35, 0
7, 8064, Note_on_c, 9, 51, 90
7, 8064, Note_on_c, 9, 35, 90
7, 8086, Note_off_c, 9, 35, 0
7, 8086, Note_off_c, 9, 51, 0
7, 8160, Note_on_c, 9, 35, 90
7, 8182, Note_off_c, 9, 35, 0
7, 8256, Note_on_c, 9, 35, 90
7, 8278, Note_off_c, 9, 35, 0
7, 8352, Note_on_c, 9, 35, 90
7, 8374, Note_off_c, 9, 35, 0
7, 8448, Note_on_c, 9, 45, 90
7, 8470, Note_off_c, 9, 45, 0
7, 8496, Note_on_c, 9, 47, 90
7, 8518, Note_off_c, 9, 47, 0
7, 9216, Note_on_c, 9, 35, 90
7, 9238, Note_off_c, 9, 35, 0
7, 9264, Note_on_c, 9, 45, 90
7, 9286, Note_off_c, 9, 45, 0
7, 9408, Note_on_c, 9, 35, 90
7, 9430, Note_off_c, 9, 35, 0
7, 9504, Note_on_c, 9, 35, 90
7, 9526, Note_off_c, 9, 35, 0
7, 9600, Note_on_c, 9, 51, 90
7, 9600, Note_on_c, 9, 35, 90
7, 9622, Note_off_c, 9, 35, 0
7, 9622, Note_off_c, 9, 51, 0
7, 9696, Note_on_c, 9, 35, 90
7, 9718, Note_off_c, 9, 35, 0
7, 9792, Note_on_c, 9, 35, 90
7, 9814, Note_off_c, 9, 35, 0
7, 9888, Note_on_c, 9, 35, 90
7, 9910, Note_off_c, 9, 35, 0
7, 9984, Note_on_c, 9, 35, 90
7, 10006, Note_off_c, 9, 35, 0
7, 10032, Note_on_c, 9, 45, 90
7, 10054, Note_off_c, 9, 45, 0
7, 10176, Note_on_c, 9, 35, 90
7, 10198, Note_off_c, 9, 35, 0
7, 10272, Note_on_c, 9, 35, 90
7, 10294, Note_off_c, 9, 35, 0
7, 10368, Note_on_c, 9, 51, 90
7, 10368, Note_on_c, 9, 35, 90
7, 10390, Note_off_c, 9, 35, 0
7, 10390, Note_off_c, 9, 51, 0
7, 10464, Note_on_c, 9, 35, 90
7, 10486, Note_off_c, 9, 35, 0
7, 10560, Note_on_c, 9, 35, 90
7, 10582, Note_off_c, 9, 35, 0
7, 10656, Note_on_c, 9, 35, 90
7, 10678, Note_off_c, 9, 35, 0
7, 10752, Note_on_c, 9, 35, 90
7, 10774, Note_off_c, 9, 35, 0
7, 10800, Note_on_c, 9, 45, 90
7, 10822, Note_off_c, 9, 45, 0
7, 10944, Note_on_c, 9, 35, 90
7, 10966, Note_off_c, 9, 35, 0
7, 11040, Note_on_c, 9, 35, 90
7, 11062, Note_off_c, 9, 35, 0
7, 11136, Note_on_c, 9, 51, 90
7, 11136, Note_on_c, 9, 35, 90
7, 11158, Note_off_c, 9, 35, 0
7, 11158, Note_off_c, 9, 51, 0
7, 11232, Note_on_c, 9, 35, 90
7, 11254, Note_off_c, 9, 35, 0
7, 11328, Note_on_c, 9, 35, 90
7, 11350, Note_off_c, 9, 35, 0
7, 11424, Note_on_c, 9, 35, 90
7, 11446, Note_off_c, 9, 35, 0
7, 11520, Note_on_c, 9, 35, 90
7, 11542, Note_off_c, 9, 35, 0
7, 11568, Note_on_c, 9, 45, 90
7, 11590, Note_off_c, 9, 45, 0
7, 11712, Note_on_c, 9, 35, 90
7, 11734, Note_off_c, 9, 35, 0
7, 11808, Note_on_c, 9, 35, 90
7, 11830, Note_off_c, 9, 35, 0
7, 11904, Note_on_c, 9, 51, 90
7, 11904, Note_on_c, 9, 35, 90
7, 11926, Note_off_c, 9, 35, 0
7, 11926, Note_off_c, 9, 51, 0
7, 12000, Note_on_c, 9, 35, 90
7, 12022, Note_off_c, 9, 35, 0
7, 12096, Note_on_c, 9, 35, 90
7, 12118, Note_off_c, 9, 35, 0
7, 12192, Note_on_c, 9, 35, 90
7, 12214, Note_off_c, 9, 35, 0
7, 12288, Note_on_c, 9, 35, 90
7, 12310, Note_off_c, 9, 35, 0
7, 12336, Note_on_c, 9, 45, 90
7, 12358, Note_off_c, 9, 45, 0
7, 12480, Note_on_c, 9, 35, 90
7, 12502, Note_off_c, 9, 35, 0
7, 12576, Note_on_c, 9, 35, 90
7, 12598, Note_off_c, 9, 35, 0
7, 12672, Note_on_c, 9, 51, 90
7, 12672, Note_on_c, 9, 35, 90
7, 12694, Note_off_c, 9, 35, 0
7, 12694, Note_off_c, 9, 51, 0
7, 12768, Note_on_c, 9, 35, 90
7, 12790, Note_off_c, 9, 35, 0
7, 12864, Note_on_c, 9, 35, 90
7, 12886, Note_off_c, 9, 35, 0
7, 12960, Note_on_c, 9, 35, 90
7, 12982, Note_off_c, 9, 35, 0
7, 13056, Note_on_c, 9, 35, 90
7, 13078, Note_off_c, 9, 35, 0
7, 13104, Note_on_c, 9, 45, 90
7, 13126, Note_off_c, 9, 45, 0
7, 13248, Note_on_c, 9, 35, 90
7, 13270, Note_off_c, 9, 35, 0
7, 13344, Note_on_c, 9, 35, 90
7, 13366, Note_off_c, 9, 35, 0
7, 13440, Note_on_c, 9, 51, 90
7, 13440, Note_on_c, 9, 35, 90
7, 13462, Note_off_c, 9, 35, 0
7, 13462, Note_off_c, 9, 51, 0
7, 13536, Note_on_c, 9, 35, 90
7, 13558, Note_off_c, 9, 35, 0
7, 13632, Note_on_c, 9, 35, 90
7, 13654, Note_off_c, 9, 35, 0
7, 13728, Note_on_c, 9, 35, 90
7, 13750, Note_off_c, 9, 35, 0
7, 13824, Note_on_c, 9, 45, 100
7, 13846, Note_off_c, 9, 45, 0
7, 13872, Note_on_c, 9, 45, 100
7, 13894, Note_off_c, 9, 45, 0
7, 14208, Note_on_c, 9, 45, 100
7, 14230, Note_off_c, 9, 45, 0
7, 14304, Note_on_c, 9, 45, 100
7, 14326, Note_off_c, 9, 45, 0
7, 14352, Note_on_c, 9, 45, 100
7, 14374, Note_off_c, 9, 45, 0
7, 14400, Note_on_c, 9, 38, 100
7, 14422, Note_off_c, 9, 38, 0
7, 14592, Note_on_c, 9, 35, 100
7, 14614, Note_off_c, 9, 35, 0
7, 14640, Note_on_c, 9, 45, 100
7, 14662, Note_off_c, 9, 45, 0
7, 14784, Note_on_c, 9, 35, 100
7, 14806, Note_off_c, 9, 35, 0
7, 14880, Note_on_c, 9, 35, 100
7, 14902, Note_off_c, 9, 35, 0
7, 14976, Note_on_c, 9, 51, 100
7, 14976, Note_on_c, 9, 35, 100
7, 14998, Note_off_c, 9, 35, 0
7, 14998, Note_off_c, 9, 51, 0
7, 15072, Note_on_c, 9, 35, 100
7, 15094, Note_off_c, 9, 35, 0
7, 15168, Note_on_c, 9, 35, 100
7, 15190, Note_off_c, 9, 35, 0
7, 15264, Note_on_c, 9, 35, 100
7, 15286, Note_off_c, 9, 35, 0
7, 15360, Note_on_c, 9, 35, 100
7, 15382, Note_off_c, 9, 35, 0
7, 15408, Note_on_c, 9, 45, 100
7, 15430, Note_off_c, 9, 45, 0
7, 15552, Note_on_c, 9, 35, 100
7, 15574, Note_off_c, 9, 35, 0
7, 15648, Note_on_c, 9, 35, 100
7, 15670, Note_off_c, 9, 35, 0
7, 15744, Note_on_c, 9, 51, 100
7, 15744, Note_on_c, 9, 35, 100
7, 15766, Note_off_c, 9, 35, 0
7, 15766, Note_off_c, 9, 51, 0
7, 15840, Note_on_c, 9, 35, 100
7, 15862, Note_off_c, 9, 35, 0
7, 15936, Note_on_c, 9, 35, 100
7, 15958, Note_off_c, 9, 35, 0
7, 16032, Note_on_c, 9, 35, 100
7, 16054, Note_off_c, 9, 35, 0
7, 16128, Note_on_c, 9, 35, 100
7, 16150, Note_off_c, 9, 35, 0
7, 16176, Note_on_c, 9, 45, 100
7, 16198, Note_off_c, 9, 45, 0
7, 16320, Note_on_c, 9, 35, 100
7, 16342, Note_off_c, 9, 35, 0
7, 16416, Note_on_c, 9, 35, 100
7, 16438, Note_off_c, 9, 35, 0
7, 16512, Note_on_c, 9, 51, 100
7, 16512, Note_on_c, 9, 35, 100
7, 16534, Note_off_c, 9, 35, 0
7, 16534, Note_off_c, 9, 51, 0
7, 16608, Note_on_c, 9, 35, 100
7, 16630, Note_off_c, 9, 35, 0
7, 16704, Note_on_c, 9, 35, 100
7, 16726, Note_off_c, 9, 35, 0
7, 16800, Note_on_c, 9, 35, 100
7, 16822, Note_off_c, 9, 35, 0
7, 16896, Note_on_c, 9, 35, 100
7, 16918, Note_off_c, 9, 35, 0
7, 16944, Note_on_c, 9, 45, 100
7, 16966, Note_off_c, 9, 45, 0
7, 17088, Note_on_c, 9, 35, 100
7, 17110, Note_off_c, 9, 35, 0
7, 17184, Note_on_c, 9, 35, 100
7, 17206, Note_off_c, 9, 35, 0
7, 17280, Note_on_c, 9, 51, 100
7, 17280, Note_on_c, 9, 35, 100
7, 17302, Note_off_c, 9, 35, 0
7, 17302, Note_off_c, 9, 51, 0
7, 17376, Note_on_c, 9, 35, 100
7, 17398, Note_off_c, 9, 35, 0
7, 17472, Note_on_c, 9, 35, 100
7, 17494, Note_off_c, 9, 35, 0
7, 17568, Note_on_c, 9, 35, 100
7, 17590, Note_off_c, 9, 35, 0
7, 17664, Note_on_c, 9, 35, 100
7, 17686, Note_off_c, 9, 35, 0
7, 17712, Note_on_c, 9, 45, 100
7, 17734, Note_off_c, 9, 45, 0
7, 17856, Note_on_c, 9, 35, 100
7, 17878, Note_off_c, 9, 35, 0
7, 17952, Note_on_c, 9, 35, 100
7, 17974, Note_off_c, 9, 35, 0
7, 18048, Note_on_c, 9, 51, 100
7, 18048, Note_on_c, 9, 35, 100
7, 18070, Note_off_c, 9, 35, 0
7, 18070, Note_off_c, 9, 51, 0
7, 18144, Note_on_c, 9, 35, 100
7, 18166, Note_off_c, 9, 35, 0
7, 18240, Note_on_c, 9, 35, 100
7, 18262, Note_off_c, 9, 35, 0
7, 18336, Note_on_c, 9, 35, 100
7, 18358, Note_off_c, 9, 35, 0
7, 18432, Note_on_c, 9, 35, 100
7, 18454, Note_off_c, 9, 35, 0
7, 18480, Note_on_c, 9, 45, 100
7, 18502, Note_off_c, 9, 45, 0
7, 18624, Note_on_c, 9, 35, 100
7, 18646, Note_off_c, 9, 35, 0
7, 18720, Note_on_c, 9, 35, 100
7, 18742, Note_off_c, 9, 35, 0
7, 18816, Note_on_c, 9, 51, 100
7, 18816, Note_on_c, 9, 35, 100
7, 18838, Note_off_c, 9, 35, 0
7, 18838, Note_off_c, 9, 51, 0
7, 18912, Note_on_c, 9, 35, 100
7, 18934, Note_off_c, 9, 35, 0
7, 19008, Note_on_c, 9, 35, 100
7, 19030, Note_off_c, 9, 35, 0
7, 19104, Note_on_c, 9, 35, 100
7, 19126, Note_off_c, 9, 35, 0
7, 19200, Note_on_c, 9, 45, 100
7, 19222, Note_off_c, 9, 45, 0
7, 19248, Note_on_c, 9, 45, 100
7, 19270, Note_off_c, 9, 45, 0
7, 19392, Note_on_c, 9, 45, 100
7, 19414, Note_off_c, 9, 45, 0
7, 19488, Note_on_c, 9, 38, 100
7, 19510, Note_off_c, 9, 38, 0
7, 19536, Note_on_c, 9, 38, 100
7, 19558, Note_off_c, 9, 38, 0
7, 19584, Note_on_c, 9, 38, 100
7, 19606, Note_off_c, 9, 38, 0
7, 19632, Note_on_c, 9, 38, 100
7, 19654, Note_off_c, 9, 38, 0
7, 19680, Note_on_c, 9, 38, 100
7, 19702, Note_off_c, 9, 38, 0
7, 19728, Note_on_c, 9, 45, 100
7, 19750, Note_off_c, 9, 45, 0
7, 19776, Note_on_c, 9, 45, 100
7, 19798, Note_off_c, 9, 45, 0
7, 19824, Note_on_c, 9, 45, 100
7, 19846, Note_off_c, 9, 45, 0
7, 19872, Note_on_c, 9, 43, 100
7, 19894, Note_off_c, 9, 43, 0
7, 19920, Note_on_c, 9, 43, 100
7, 19942, Note_off_c, 9, 43, 0
7, 19968, Note_on_c, 9, 35, 100
7, 19990, Note_off_c, 9, 35, 0
7, 20016, Note_on_c, 9, 45, 100
7, 20038, Note_off_c, 9, 45, 0
7, 20160, Note_on_c, 9, 35, 100
7, 20182, Note_off_c, 9, 35, 0
7, 20256, Note_on_c, 9, 35, 100
7, 20278, Note_off_c, 9, 35, 0
7, 20352, Note_on_c, 9, 51, 100
7, 20352, Note_on_c, 9, 35, 100
7, 20374, Note_off_c, 9, 35, 0
7, 20374, Note_off_c, 9, 51, 0
7, 20448, Note_on_c, 9, 35, 100
7, 20470, Note_off_c, 9, 35, 0
7, 20544, Note_on_c, 9, 35, 100
7, 20566, Note_off_c, 9, 35, 0
7, 20640, Note_on_c, 9, 35, 100
7, 20662, Note_off_c, 9, 35, 0
7, 20736, Note_on_c, 9, 35, 100
7, 20758, Note_off_c, 9, 35, 0
7, 20784, Note_on_c, 9, 45, 100
7, 20806, Note_off_c, 9, 45, 0
7, 20928, Note_on_c, 9, 35, 100
7, 20950, Note_off_c, 9, 35, 0
7, 21024, Note_on_c, 9, 35, 100
7, 21046, Note_off_c, 9, 35, 0
7, 21120, Note_on_c, 9, 51, 100
7, 21120, Note_on_c, 9, 35, 100
7, 21142, Note_off_c, 9, 35, 0
7, 21142, Note_off_c, 9, 51, 0
7, 21216, Note_on_c, 9, 35, 100
7, 21238, Note_off_c, 9, 35, 0
7, 21312, Note_on_c, 9, 35, 100
7, 21334, Note_off_c, 9, 35, 0
7, 21408, Note_on_c, 9, 35, 100
7, 21430, Note_off_c, 9, 35, 0
7, 21504, Note_on_c, 9, 35, 100
7, 21526, Note_off_c, 9, 35, 0
7, 21552, Note_on_c, 9, 45, 100
7, 21574, Note_off_c, 9, 45, 0
7, 21696, Note_on_c, 9, 35, 100
7, 21718, Note_off_c, 9, 35, 0
7, 21792, Note_on_c, 9, 35, 100
7, 21814, Note_off_c, 9, 35, 0
7, 21888, Note_on_c, 9, 51, 100
7, 21888, Note_on_c, 9, 35, 100
7, 21910, Note_off_c, 9, 35, 0
7, 21910, Note_off_c, 9, 51, 0
7, 21984, Note_on_c, 9, 35, 100
7, 22006, Note_off_c, 9, 35, 0
7, 22080, Note_on_c, 9, 35, 100
7, 22102, Note_off_c, 9, 35, 0
7, 22176, Note_on_c, 9, 35, 100
7, 22198, Note_off_c, 9, 35, 0
7, 22272, Note_on_c, 9, 35, 100
7, 22294, Note_off_c, 9, 35, 0
7, 22320, Note_on_c, 9, 45, 100
7, 22342, Note_off_c, 9, 45, 0
7, 22464, Note_on_c, 9, 35, 100
7, 22486, Note_off_c, 9, 35, 0
7, 22560, Note_on_c, 9, 35, 100
7, 22582, Note_off_c, 9, 35, 0
7, 22656, Note_on_c, 9, 51, 100
7, 22656, Note_on_c, 9, 35, 100
7, 22678, Note_off_c, 9, 35, 0
7, 22678, Note_off_c, 9, 51, 0
7, 22752, Note_on_c, 9, 35, 100
7, 22774, Note_off_c, 9, 35, 0
7, 22848, Note_on_c, 9, 35, 100
7, 22870, Note_off_c, 9, 35, 0
7, 22944, Note_on_c, 9, 35, 100
7, 22966, Note_off_c, 9, 35, 0
7, 23040, Note_on_c, 9, 35, 100
7, 23062, Note_off_c, 9, 35, 0
7, 23088, Note_on_c, 9, 45, 100
7, 23110, Note_off_c, 9, 45, 0
7, 23232, Note_on_c, 9, 35, 100
7, 23254, Note_off_c, 9, 35, 0
7, 23328, Note_on_c, 9, 35, 100
7, 23350, Note_off_c, 9, 35, 0
7, 23424, Note_on_c, 9, 51, 100
7, 23424, Note_on_c, 9, 35, 100
7, 23446, Note_off_c, 9, 35, 0
7, 23446, Note_off_c, 9, 51, 0
7, 23520, Note_on_c, 9, 35, 100
7, 23542, Note_off_c, 9, 35, 0
7, 23616, Note_on_c, 9, 35, 100
7, 23638, Note_off_c, 9, 35, 0
7, 23712, Note_on_c, 9, 35, 100
7, 23734, Note_off_c, 9, 35, 0
7, 23808, Note_on_c, 9, 35, 100
7, 23830, Note_off_c, 9, 35, 0
7, 23856, Note_on_c, 9, 45, 100
7, 23878, Note_off_c, 9, 45, 0
7, 24000, Note_on_c, 9, 35, 100
7, 24022, Note_off_c, 9, 35, 0
7, 24096, Note_on_c, 9, 35, 100
7, 24118, Note_off_c, 9, 35, 0
7, 24192, Note_on_c, 9, 51, 100
7, 24192, Note_on_c, 9, 35, 100
7, 24214, Note_off_c, 9, 35, 0
7, 24214, Note_off_c, 9, 51, 0
7, 24288, Note_on_c, 9, 35, 100
7, 24310, Note_off_c, 9, 35, 0
7, 24384, Note_on_c, 9, 35, 100
7, 24406, Note_off_c, 9, 35, 0
7, 24480, Note_on_c, 9, 35, 100
7, 24502, Note_off_c, 9, 35, 0
7, 37536, Note_on_c, 9, 38, 100
7, 37558, Note_off_c, 9, 38, 0
7, 37584, Note_on_c, 9, 38, 100
7, 37606, Note_off_c, 9, 38, 0
7, 37632, Note_on_c, 9, 38, 100
7, 37654, Note_off_c, 9, 38, 0
7, 37728, Note_on_c, 9, 38, 100
7, 37750, Note_off_c, 9, 38, 0
7, 37920, Note_on_c, 9, 45, 100
7, 37942, Note_off_c, 9, 45, 0
7, 38016, Note_on_c, 9, 45, 100
7, 38038, Note_off_c, 9, 45, 0
7, 38112, Note_on_c, 9, 45, 100
7, 38134, Note_off_c, 9, 45, 0
7, 38208, Note_on_c, 9, 45, 100
7, 38230, Note_off_c, 9, 45, 0
7, 38400, Note_on_c, 9, 51, 100
7, 38400, Note_on_c, 9, 35, 100
7, 38422, Note_off_c, 9, 35, 0
7, 38422, Note_off_c, 9, 51, 0
7, 38592, Note_on_c, 9, 51, 100
7, 38614, Note_off_c, 9, 51, 0
7, 38784, Note_on_c, 9, 51, 100
7, 38784, Note_on_c, 9, 38, 100
7, 38784, Note_on_c, 9, 35, 100
7, 38806, Note_off_c, 9, 35, 0
7, 38806, Note_off_c, 9, 38, 0
7, 38806, Note_off_c, 9, 51, 0
7, 38976, Note_on_c, 9, 51, 100
7, 38998, Note_off_c, 9, 51, 0
7, 39168, Note_on_c, 9, 35, 100
7, 39168, Note_on_c, 9, 51, 100
7, 39190, Note_off_c, 9, 51, 0
7, 39190, Note_off_c, 9, 35, 0
7, 39360, Note_on_c, 9, 35, 100
7, 39360, Note_on_c, 9, 51, 100
7, 39382, Note_off_c, 9, 51, 0
7, 39382, Note_off_c, 9, 35, 0
7, 39552, Note_on_c, 9, 38, 100
7, 39552, Note_on_c, 9, 35, 100
7, 39552, Note_on_c, 9, 51, 100
7, 39574, Note_off_c, 9, 51, 0
7, 39574, Note_off_c, 9, 35, 0
7, 39574, Note_off_c, 9, 38, 0
7, 39744, Note_on_c, 9, 38, 100
7, 39744, Note_on_c, 9, 35, 100
7, 39744, Note_on_c, 9, 51, 100
7, 39766, Note_off_c, 9, 51, 0
7, 39766, Note_off_c, 9, 35, 0
7, 39766, Note_off_c, 9, 38, 0
7, 39936, Note_on_c, 9, 51, 100
7, 39936, Note_on_c, 9, 35, 100
7, 39958, Note_off_c, 9, 35, 0
7, 39958, Note_off_c, 9, 51, 0
7, 40128, Note_on_c, 9, 51, 100
7, 40150, Note_off_c, 9, 51, 0
7, 40320, Note_on_c, 9, 38, 100
7, 40320, Note_on_c, 9, 35, 100
7, 40320, Note_on_c, 9, 51, 100
7, 40342, Note_off_c, 9, 51, 0
7, 40342, Note_off_c, 9, 35, 0
7, 40342, Note_off_c, 9, 38, 0
7, 40512, Note_on_c, 9, 51, 100
7, 40534, Note_off_c, 9, 51, 0
7, 40608, Note_on_c, 9, 35, 100
7, 40630, Note_off_c, 9, 35, 0
7, 40704, Note_on_c, 9, 51, 100
7, 40704, Note_on_c, 9, 35, 100
7, 40726, Note_off_c, 9, 35, 0
7, 40726, Note_off_c, 9, 51, 0
7, 40896, Note_on_c, 9, 51, 100
7, 40896, Note_on_c, 9, 35, 100
7, 40918, Note_off_c, 9, 35, 0
7, 40918, Note_off_c, 9, 51, 0
7, 41088, Note_on_c, 9, 51, 100
7, 41088, Note_on_c, 9, 38, 100
7, 41088, Note_on_c, 9, 35, 100
7, 41110, Note_off_c, 9, 35, 0
7, 41110, Note_off_c, 9, 38, 0
7, 41110, Note_off_c, 9, 51, 0
7, 41280, Note_on_c, 9, 51, 100
7, 41302, Note_off_c, 9, 51, 0
7, 41376, Note_on_c, 9, 35, 100
7, 41398, Note_off_c, 9, 35, 0
7, 41472, Note_on_c, 9, 51, 100
7, 41472, Note_on_c, 9, 35, 100
7, 41494, Note_off_c, 9, 35, 0
7, 41494, Note_off_c, 9, 51, 0
7, 41568, Note_on_c, 9, 35, 100
7, 41590, Note_off_c, 9, 35, 0
7, 41664, Note_on_c, 9, 51, 100
7, 41686, Note_off_c, 9, 51, 0
7, 41760, Note_on_c, 9, 35, 100
7, 41782, Note_off_c, 9, 35, 0
7, 41856, Note_on_c, 9, 51, 100
7, 41856, Note_on_c, 9, 38, 100
7, 41878, Note_off_c, 9, 38, 0
7, 41878, Note_off_c, 9, 51, 0
7, 42048, Note_on_c, 9, 51, 100
7, 42070, Note_off_c, 9, 51, 0
7, 42144, Note_on_c, 9, 35, 100
7, 42166, Note_off_c, 9, 35, 0
7, 42240, Note_on_c, 9, 35, 100
7, 42240, Note_on_c, 9, 51, 100
7, 42262, Note_off_c, 9, 51, 0
7, 42262, Note_off_c, 9, 35, 0
7, 42432, Note_on_c, 9, 35, 100
7, 42432, Note_on_c, 9, 51, 100
7, 42454, Note_off_c, 9, 51, 0
7, 42454, Note_off_c, 9, 35, 0
7, 42624, Note_on_c, 9, 38, 100
7, 42624, Note_on_c, 9, 51, 100
7, 42646, Note_off_c, 9, 51, 0
7, 42646, Note_off_c, 9, 38, 0
7, 42816, Note_on_c, 9, 51, 100
7, 42838, Note_off_c, 9, 51, 0
7, 43008, Note_on_c, 9, 51, 100
7, 43008, Note_on_c, 9, 35, 100
7, 43030, Note_off_c, 9, 35, 0
7, 43030, Note_off_c, 9, 51, 0
7, 43200, Note_on_c, 9, 51, 100
7, 43222, Note_off_c, 9, 51, 0
7, 43392, Note_on_c, 9, 51, 100
7, 43392, Note_on_c, 9, 38, 100
7, 43392, Note_on_c, 9, 35, 100
7, 43414, Note_off_c, 9, 35, 0
7, 43414, Note_off_c, 9, 38, 0
7, 43414, Note_off_c, 9, 51, 0
7, 43584, Note_on_c, 9, 51, 100
7, 43606, Note_off_c, 9, 51, 0
7, 43680, Note_on_c, 9, 35, 100
7, 43702, Note_off_c, 9, 35, 0
7, 43776, Note_on_c, 9, 35, 100
7, 43776, Note_on_c, 9, 51, 100
7, 43798, Note_off_c, 9, 51, 0
7, 43798, Note_off_c, 9, 35, 0
7, 43968, Note_on_c, 9, 35, 100
7, 43968, Note_on_c, 9, 51, 100
7, 43990, Note_off_c, 9, 51, 0
7, 43990, Note_off_c, 9, 35, 0
7, 44160, Note_on_c, 9, 38, 100
7, 44160, Note_on_c, 9, 35, 100
7, 44160, Note_on_c, 9, 51, 100
7, 44182, Note_off_c, 9, 51, 0
7, 44182, Note_off_c, 9, 35, 0
7, 44182, Note_off_c, 9, 38, 0
7, 44256, Note_on_c, 9, 35, 100
7, 44278, Note_off_c, 9, 35, 0
7, 44352, Note_on_c, 9, 35, 100
7, 44352, Note_on_c, 9, 51, 100
7, 44374, Note_off_c, 9, 51, 0
7, 44374, Note_off_c, 9, 35, 0
7, 44544, Note_on_c, 9, 35, 100
7, 44544, Note_on_c, 9, 51, 100
7, 44566, Note_off_c, 9, 51, 0
7, 44566, Note_off_c, 9, 35, 0
7, 44736, Note_on_c, 9, 51, 100
7, 44758, Note_off_c, 9, 51, 0
7, 44928, Note_on_c, 9, 38, 100
7, 44928, Note_on_c, 9, 35, 100
7, 44928, Note_on_c, 9, 51, 100
7, 44950, Note_off_c, 9, 51, 0
7, 44950, Note_off_c, 9, 35, 0
7, 44950, Note_off_c, 9, 38, 0
7, 45120, Note_on_c, 9, 51, 100
7, 45142, Note_off_c, 9, 51, 0
7, 45216, Note_on_c, 9, 35, 100
7, 45238, Note_off_c, 9, 35, 0
7, 45312, Note_on_c, 9, 51, 100
7, 45312, Note_on_c, 9, 35, 100
7, 45334, Note_off_c, 9, 35, 0
7, 45334, Note_off_c, 9, 51, 0
7, 45504, Note_on_c, 9, 51, 100
7, 45504, Note_on_c, 9, 35, 100
7, 45526, Note_off_c, 9, 35, 0
7, 45526, Note_off_c, 9, 51, 0
7, 45696, Note_on_c, 9, 51, 100
7, 45696, Note_on_c, 9, 38, 100
7, 45718, Note_off_c, 9, 38, 0
7, 45718, Note_off_c, 9, 51, 0
7, 45888, Note_on_c, 9, 51, 100
7, 45910, Note_off_c, 9, 51, 0
7, 45984, Note_on_c, 9, 35, 100
7, 46006, Note_off_c, 9, 35, 0
7, 46080, Note_on_c, 9, 51, 100
7, 46080, Note_on_c, 9, 35, 100
7, 46102, Note_off_c, 9, 35, 0
7, 46102, Note_off_c, 9, 51, 0
7, 46176, Note_on_c, 9, 35, 100
7, 46198, Note_off_c, 9, 35, 0
7, 46272, Note_on_c, 9, 51, 100
7, 46294, Note_off_c, 9, 51, 0
7, 46368, Note_on_c, 9, 35, 100
7, 46390, Note_off_c, 9, 35, 0
7, 46464, Note_on_c, 9, 51, 100
7, 46464, Note_on_c, 9, 38, 100
7, 46486, Note_off_c, 9, 38, 0
7, 46486, Note_off_c, 9, 51, 0
7, 46656, Note_on_c, 9, 51, 100
7, 46678, Note_off_c, 9, 51, 0
7, 46752, Note_on_c, 9, 35, 100
7, 46774, Note_off_c, 9, 35, 0
7, 46848, Note_on_c, 9, 35, 100
7, 46848, Note_on_c, 9, 51, 100
7, 46870, Note_off_c, 9, 51, 0
7, 46870, Note_off_c, 9, 35, 0
7, 47040, Note_on_c, 9, 35, 100
7, 47040, Note_on_c, 9, 51, 100
7, 47062, Note_off_c, 9, 51, 0
7, 47062, Note_off_c, 9, 35, 0
7, 47232, Note_on_c, 9, 38, 100
7, 47232, Note_on_c, 9, 35, 100
7, 47232, Note_on_c, 9, 51, 100
7, 47254, Note_off_c, 9, 51, 0
7, 47254, Note_off_c, 9, 35, 0
7, 47254, Note_off_c, 9, 38, 0
7, 47424, Note_on_c, 9, 51, 100
7, 47446, Note_off_c, 9, 51, 0
7, 47616, Note_on_c, 9, 51, 100
7, 47616, Note_on_c, 9, 35, 100
7, 47638, Note_off_c, 9, 35, 0
7, 47638, Note_off_c, 9, 51, 0
7, 47808, Note_on_c, 9, 51, 100
7, 47808, Note_on_c, 9, 35, 100
7, 47830, Note_off_c, 9, 35, 0
7, 47830, Note_off_c, 9, 51, 0
7, 48000, Note_on_c, 9, 51, 100
7, 48000, Note_on_c, 9, 38, 100
7, 48000, Note_on_c, 9, 35, 100
7, 48022, Note_off_c, 9, 35, 0
7, 48022, Note_off_c, 9, 38, 0
7, 48022, Note_off_c, 9, 51, 0
7, 48192, Note_on_c, 9, 51, 100
7, 48214, Note_off_c, 9, 51, 0
7, 48384, Note_on_c, 9, 35, 100
7, 48384, Note_on_c, 9, 51, 100
7, 48406, Note_off_c, 9, 51, 0
7, 48406, Note_off_c, 9, 35, 0
7, 48576, Note_on_c, 9, 51, 100
7, 48598, Note_off_c, 9, 51, 0
7, 48768, Note_on_c, 9, 38, 100
7, 48768, Note_on_c, 9, 51, 100
7, 48790, Note_off_c, 9, 51, 0
7, 48790, Note_off_c, 9, 38, 0
7, 48960, Note_on_c, 9, 51, 100
7, 48982, Note_off_c, 9, 51, 0
7, 49152, Note_on_c, 9, 35, 100
7, 49152, Note_on_c, 9, 51, 100
7, 49174, Note_off_c, 9, 51, 0
7, 49174, Note_off_c, 9, 35, 0
7, 49344, Note_on_c, 9, 38, 100
7, 49344, Note_on_c, 9, 51, 100
7, 49366, Note_off_c, 9, 51, 0
7, 49366, Note_off_c, 9, 38, 0
7, 49536, Note_on_c, 9, 35, 100
7, 49536, Note_on_c, 9, 51, 100
7, 49558, Note_off_c, 9, 51, 0
7, 49558, Note_off_c, 9, 35, 0
7, 49632, Note_on_c, 9, 35, 100
7, 49654, Note_off_c, 9, 35, 0
7, 49728, Note_on_c, 9, 38, 100
7, 49728, Note_on_c, 9, 51, 100
7, 49750, Note_off_c, 9, 51, 0
7, 49750, Note_off_c, 9, 38, 0
7, 49920, Note_on_c, 9, 35, 100
7, 49920, Note_on_c, 9, 51, 100
7, 49942, Note_off_c, 9, 51, 0
7, 49942, Note_off_c, 9, 35, 0
7, 50112, Note_on_c, 9, 35, 100
7, 50112, Note_on_c, 9, 51, 100
7, 50134, Note_off_c, 9, 51, 0
7, 50134, Note_off_c, 9, 35, 0
7, 50304, Note_on_c, 9, 38, 100
7, 50326, Note_off_c, 9, 38, 0
7, 50400, Note_on_c, 9, 38, 100
7, 50422, Note_off_c, 9, 38, 0
7, 50496, Note_on_c, 9, 45, 100
7, 50518, Note_off_c, 9, 45, 0
7, 50592, Note_on_c, 9, 43, 100
7, 50614, Note_off_c, 9, 43, 0
7, 50688, Note_on_c, 9, 51, 100
7, 50688, Note_on_c, 9, 35, 100
7, 50688, Note_on_c, 9, 36, 100
7, 50710, Note_off_c, 9, 36, 0
7, 50710, Note_off_c, 9, 35, 0
7, 50710, Note_off_c, 9, 51, 0
7, 50976, Note_on_c, 9, 38, 100
7, 50998, Note_off_c, 9, 38, 0
7, 51072, Note_on_c, 9, 35, 100
7, 51072, Note_on_c, 9, 51, 100
7, 51094, Note_off_c, 9, 51, 0
7, 51094, Note_off_c, 9, 35, 0
7, 51168, Note_on_c, 9, 35, 100
7, 51190, Note_off_c, 9, 35, 0
7, 51264, Note_on_c, 9, 38, 100
7, 51264, Note_on_c, 9, 49, 100
7, 51286, Note_off_c, 9, 49, 0
7, 51286, Note_off_c, 9, 38, 0
7, 51456, Note_on_c, 9, 35, 100
7, 51456, Note_on_c, 9, 46, 100
7, 51478, Note_off_c, 9, 46, 0
7, 51478, Note_off_c, 9, 35, 0
7, 51648, Note_on_c, 9, 35, 100
7, 51648, Note_on_c, 9, 46, 100
7, 51670, Note_off_c, 9, 46, 0
7, 51670, Note_off_c, 9, 35, 0
7, 51744, Note_on_c, 9, 38, 100
7, 51766, Note_off_c, 9, 38, 0
7, 51840, Note_on_c, 9, 45, 100
7, 51862, Note_off_c, 9, 45, 0
7, 51936, Note_on_c, 9, 45, 100
7, 51958, Note_off_c, 9, 45, 0
7, 52032, Note_on_c, 9, 43, 100
7, 52054, Note_off_c, 9, 43, 0
7, 52128, Note_on_c, 9, 43, 100
7, 52150, Note_off_c, 9, 43, 0
7, 52224, Note_on_c, 9, 35, 110
7, 52224, Note_on_c, 9, 38, 110
7, 52246, Note_off_c, 9, 38, 0
7, 52246, Note_off_c, 9, 35, 0
7, 53088, Note_on_c, 9, 38, 110
7, 53110, Note_off_c, 9, 38, 0
7, 53184, Note_on_c, 9, 38, 110
7, 53206, Note_off_c, 9, 38, 0
7, 53376, Note_on_c, 9, 38, 110
7, 53398, Note_off_c, 9, 38, 0
7, 53760, Note_on_c, 9, 35, 110
7, 53760, Note_on_c, 9, 38, 110
7, 53782, Note_off_c, 9, 38, 0
7, 53782, Note_off_c, 9, 35, 0
7, 54624, Note_on_c, 9, 38, 110
7, 54646, Note_off_c, 9, 38, 0
7, 54720, Note_on_c, 9, 38, 110
7, 54742, Note_off_c, 9, 38, 0
7, 54912, Note_on_c, 9, 38, 110
7, 54934, Note_off_c, 9, 38, 0
7, 55280, Note_on_c, 9, 38, 110
7, 55288, Note_on_c, 9, 38, 110
7, 55296, Note_on_c, 9, 35, 110
7, 55299, Note_on_c, 9, 38, 110
7, 55302, Note_off_c, 9, 38, 0
7, 55310, Note_off_c, 9, 38, 0
7, 55318, Note_off_c, 9, 35, 0
7, 55321, Note_off_c, 9, 38, 0
7, 56160, Note_on_c, 9, 38, 110
7, 56182, Note_off_c, 9, 38, 0
7, 56256, Note_on_c, 9, 38, 110
7, 56278, Note_off_c, 9, 38, 0
7, 56448, Note_on_c, 9, 38, 110
7, 56470, Note_off_c, 9, 38, 0
7, 56832, Note_on_c, 9, 35, 110
7, 56835, Note_on_c, 9, 38, 110
7, 56854, Note_off_c, 9, 35, 0
7, 56857, Note_off_c, 9, 38, 0
7, 57696, Note_on_c, 9, 38, 110
7, 57718, Note_off_c, 9, 38, 0
7, 57792, Note_on_c, 9, 38, 110
7, 57814, Note_off_c, 9, 38, 0
7, 57984, Note_on_c, 9, 38, 110
7, 58006, Note_off_c, 9, 38, 0
7, 58368, Note_on_c, 9, 51, 100
7, 58368, Note_on_c, 9, 35, 100
7, 58390, Note_off_c, 9, 35, 0
7, 58390, Note_off_c, 9, 51, 0
7, 58464, Note_on_c, 9, 51, 100
7, 58486, Note_off_c, 9, 51, 0
7, 58560, Note_on_c, 9, 51, 100
7, 58560, Note_on_c, 9, 38, 100
7, 58582, Note_off_c, 9, 38, 0
7, 58582, Note_off_c, 9, 51, 0
7, 58656, Note_on_c, 9, 51, 100
7, 58678, Note_off_c, 9, 51, 0
7, 58752, Note_on_c, 9, 51, 100
7, 58752, Note_on_c, 9, 35, 100
7, 58774, Note_off_c, 9, 35, 0
7, 58774, Note_off_c, 9, 51, 0
7, 58848, Note_on_c, 9, 51, 100
7, 58870, Note_off_c, 9, 51, 0
7, 58944, Note_on_c, 9, 51, 100
7, 58944, Note_on_c, 9, 38, 100
7, 58966, Note_off_c, 9, 38, 0
7, 58966, Note_off_c, 9, 51, 0
7, 59040, Note_on_c, 9, 51, 100
7, 59062, Note_off_c, 9, 51, 0
7, 59136, Note_on_c, 9, 51, 100
7, 59136, Note_on_c, 9, 35, 100
7, 59158, Note_off_c, 9, 35, 0
7, 59158, Note_off_c, 9, 51, 0
7, 59232, Note_on_c, 9, 51, 100
7, 59254, Note_off_c, 9, 51, 0
7, 59328, Note_on_c, 9, 51, 100
7, 59328, Note_on_c, 9, 38, 100
7, 59350, Note_off_c, 9, 38, 0
7, 59350, Note_off_c, 9, 51, 0
7, 59424, Note_on_c, 9, 51, 100
7, 59446, Note_off_c, 9, 51, 0
7, 59520, Note_on_c, 9, 51, 100
7, 59520, Note_on_c, 9, 35, 100
7, 59542, Note_off_c, 9, 35, 0
7, 59542, Note_off_c, 9, 51, 0
7, 59616, Note_on_c, 9, 51, 100
7, 59638, Note_off_c, 9, 51, 0
7, 59712, Note_on_c, 9, 51, 100
7, 59712, Note_on_c, 9, 38, 100
7, 59734, Note_off_c, 9, 38, 0
7, 59734, Note_off_c, 9, 51, 0
7, 59808, Note_on_c, 9, 51, 100
7, 59830, Note_off_c, 9, 51, 0
7, 59904, Note_on_c, 9, 51, 100
7, 59904, Note_on_c, 9, 35, 100
7, 59926, Note_off_c, 9, 35, 0
7, 59926, Note_off_c, 9, 51, 0
7, 60000, Note_on_c, 9, 51, 100
7, 60022, Note_off_c, 9, 51, 0
7, 60096, Note_on_c, 9, 51, 100
7, 60096, Note_on_c, 9, 38, 100
7, 60118, Note_off_c, 9, 38, 0
7, 60118, Note_off_c, 9, 51, 0
7, 60192, Note_on_c, 9, 51, 100
7, 60214, Note_off_c, 9, 51, 0
7, 60288, Note_on_c, 9, 51, 100
7, 60288, Note_on_c, 9, 35, 100
7, 60310, Note_off_c, 9, 35, 0
7, 60310, Note_off_c, 9, 51, 0
7, 60384, Note_on_c, 9, 51, 100
7, 60406, Note_off_c, 9, 51, 0
7, 60480, Note_on_c, 9, 51, 100
7, 60480, Note_on_c, 9, 38, 100
7, 60502, Note_off_c, 9, 38, 0
7, 60502, Note_off_c, 9, 51, 0
7, 60576, Note_on_c, 9, 51, 100
7, 60598, Note_off_c, 9, 51, 0
7, 60672, Note_on_c, 9, 51, 100
7, 60672, Note_on_c, 9, 35, 100
7, 60694, Note_off_c, 9, 35, 0
7, 60694, Note_off_c, 9, 51, 0
7, 60768, Note_on_c, 9, 51, 100
7, 60790, Note_off_c, 9, 51, 0
7, 60864, Note_on_c, 9, 51, 100
7, 60864, Note_on_c, 9, 38, 100
7, 60886, Note_off_c, 9, 38, 0
7, 60886, Note_off_c, 9, 51, 0
7, 60960, Note_on_c, 9, 51, 100
7, 60982, Note_off_c, 9, 51, 0
7, 61056, Note_on_c, 9, 51, 100
7, 61056, Note_on_c, 9, 35, 100
7, 61078, Note_off_c, 9, 35, 0
7, 61078, Note_off_c, 9, 51, 0
7, 61152, Note_on_c, 9, 51, 100
7, 61174, Note_off_c, 9, 51, 0
7, 61248, Note_on_c, 9, 51, 100
7, 61248, Note_on_c, 9, 38, 100
7, 61270, Note_off_c, 9, 38, 0
7, 61270, Note_off_c, 9, 51, 0
7, 61344, Note_on_c, 9, 51, 100
7, 61366, Note_off_c, 9, 51, 0
7, 61440, Note_on_c, 9, 51, 100
7, 61440, Note_on_c, 9, 35, 100
7, 61462, Note_off_c, 9, 35, 0
7, 61462, Note_off_c, 9, 51, 0
7, 61536, Note_on_c, 9, 51, 100
7, 61558, Note_off_c, 9, 51, 0
7, 61632, Note_on_c, 9, 51, 100
7, 61632, Note_on_c, 9, 38, 100
7, 61654, Note_off_c, 9, 38, 0
7, 61654, Note_off_c, 9, 51, 0
7, 61728, Note_on_c, 9, 51, 100
7, 61750, Note_off_c, 9, 51, 0
7, 61824, Note_on_c, 9, 51, 100
7, 61824, Note_on_c, 9, 35, 100
7, 61846, Note_off_c, 9, 35, 0
7, 61846, Note_off_c, 9, 51, 0
7, 61920, Note_on_c, 9, 51, 100
7, 61942, Note_off_c, 9, 51, 0
7, 62016, Note_on_c, 9, 51, 100
7, 62016, Note_on_c, 9, 38, 100
7, 62038, Note_off_c, 9, 38, 0
7, 62038, Note_off_c, 9, 51, 0
7, 62112, Note_on_c, 9, 51, 100
7, 62134, Note_off_c, 9, 51, 0
7, 62208, Note_on_c, 9, 51, 100
7, 62208, Note_on_c, 9, 35, 100
7, 62230, Note_off_c, 9, 35, 0
7, 62230, Note_off_c, 9, 51, 0
7, 62304, Note_on_c, 9, 51, 100
7, 62326, Note_off_c, 9, 51, 0
7, 62400, Note_on_c, 9, 51, 100
7, 62400, Note_on_c, 9, 38, 100
7, 62422, Note_off_c, 9, 38, 0
7, 62422, Note_off_c, 9, 51, 0
7, 62496, Note_on_c, 9, 51, 100
7, 62518, Note_off_c, 9, 51, 0
7, 62592, Note_on_c, 9, 51, 100
7, 62592, Note_on_c, 9, 35, 100
7, 62614, Note_off_c, 9, 35, 0
7, 62614, Note_off_c, 9, 51, 0
7, 62688, Note_on_c, 9, 51, 100
7, 62710, Note_off_c, 9, 51, 0
7, 62784, Note_on_c, 9, 51, 100
7, 62784, Note_on_c, 9, 38, 100
7, 62806, Note_off_c, 9, 38, 0
7, 62806, Note_off_c, 9, 51, 0
7, 62880, Note_on_c, 9, 51, 100
7, 62902, Note_off_c, 9, 51, 0
7, 62976, Note_on_c, 9, 51, 100
7, 62976, Note_on_c, 9, 35, 100
7, 62998, Note_off_c, 9, 35, 0
7, 62998, Note_off_c, 9, 51, 0
7, 63072, Note_on_c, 9, 51, 100
7, 63094, Note_off_c, 9, 51, 0
7, 63168, Note_on_c, 9, 51, 100
7, 63168, Note_on_c, 9, 38, 100
7, 63190, Note_off_c, 9, 38, 0
7, 63190, Note_off_c, 9, 51, 0
7, 63264, Note_on_c, 9, 51, 100
7, 63286, Note_off_c, 9, 51, 0
7, 63360, Note_on_c, 9, 51, 100
7, 63360, Note_on_c, 9, 35, 100
7, 63382, Note_off_c, 9, 35, 0
7, 63382, Note_off_c, 9, 51, 0
7, 63456, Note_on_c, 9, 51, 100
7, 63478, Note_off_c, 9, 51, 0
7, 63552, Note_on_c, 9, 51, 100
7, 63552, Note_on_c, 9, 38, 100
7, 63574, Note_off_c, 9, 38, 0
7, 63574, Note_off_c, 9, 51, 0
7, 63648, Note_on_c, 9, 51, 100
7, 63670, Note_off_c, 9, 51, 0
7, 63744, Note_on_c, 9, 51, 100
7, 63744, Note_on_c, 9, 35, 100
7, 63766, Note_off_c, 9, 35, 0
7, 63766, Note_off_c, 9, 51, 0
7, 63840, Note_on_c, 9, 51, 100
7, 63862, Note_off_c, 9, 51, 0
7, 63936, Note_on_c, 9, 51, 100
7, 63936, Note_on_c, 9, 38, 100
7, 63958, Note_off_c, 9, 38, 0
7, 63958, Note_off_c, 9, 51, 0
7, 64032, Note_on_c, 9, 51, 100
7, 64054, Note_off_c, 9, 51, 0
7, 64128, Note_on_c, 9, 51, 100
7, 64128, Note_on_c, 9, 35, 100
7, 64150, Note_off_c, 9, 35, 0
7, 64150, Note_off_c, 9, 51, 0
7, 64224, Note_on_c, 9, 51, 100
7, 64246, Note_off_c, 9, 51, 0
7, 64320, Note_on_c, 9, 51, 100
7, 64320, Note_on_c, 9, 38, 100
7, 64342, Note_off_c, 9, 38, 0
7, 64342, Note_off_c, 9, 51, 0
7, 64416, Note_on_c, 9, 51, 100
7, 64438, Note_off_c, 9, 51, 0
7, 64512, Note_on_c, 9, 51, 100
7, 64512, Note_on_c, 9, 35, 100
7, 64534, Note_off_c, 9, 35, 0
7, 64534, Note_off_c, 9, 51, 0
7, 64608, Note_on_c, 9, 51, 100
7, 64630, Note_off_c, 9, 51, 0
7, 64704, Note_on_c, 9, 51, 100
7, 64704, Note_on_c, 9, 38, 100
7, 64726, Note_off_c, 9, 38, 0
7, 64726, Note_off_c, 9, 51, 0
7, 64800, Note_on_c, 9, 51, 100
7, 64822, Note_off_c, 9, 51, 0
7, 64896, Note_on_c, 9, 51, 100
7, 64896, Note_on_c, 9, 35, 100
7, 64918, Note_off_c, 9, 35, 0
7, 64918, Note_off_c, 9, 51, 0
7, 64992, Note_on_c, 9, 51, 100
7, 65014, Note_off_c, 9, 51, 0
7, 65088, Note_on_c, 9, 51, 100
7, 65088, Note_on_c, 9, 38, 100
7, 65110, Note_off_c, 9, 38, 0
7, 65110, Note_off_c, 9, 51, 0
7, 65184, Note_on_c, 9, 51, 100
7, 65206, Note_off_c, 9, 51, 0
7, 65280, Note_on_c, 9, 35, 100
7, 65302, Note_off_c, 9, 35, 0
7, 65472, Note_on_c, 9, 38, 100
7, 65494, Note_off_c, 9, 38, 0
7, 65664, Note_on_c, 9, 35, 100
7, 65686, Note_off_c, 9, 35, 0
7, 65856, Note_on_c, 9, 35, 100
7, 65878, Note_off_c, 9, 35, 0
7, 66048, Note_on_c, 9, 35, 100
7, 66070, Note_off_c, 9, 35, 0
7, 66912, Note_on_c, 9, 38, 100
7, 66934, Note_off_c, 9, 38, 0
7, 67008, Note_on_c, 9, 38, 100
7, 67030, Note_off_c, 9, 38, 0
7, 67200, Note_on_c, 9, 38, 100
7, 67222, Note_off_c, 9, 38, 0
7, 67584, Note_on_c, 9, 35, 100
7, 67584, Note_on_c, 9, 38, 100
7, 67606, Note_off_c, 9, 38, 0
7, 67606, Note_off_c, 9, 35, 0
7, 68448, Note_on_c, 9, 38, 100
7, 68470, Note_off_c, 9, 38, 0
7, 68544, Note_on_c, 9, 38, 100
7, 68566, Note_off_c, 9, 38, 0
7, 68736, Note_on_c, 9, 38, 100
7, 68758, Note_off_c, 9, 38, 0
7, 69120, Note_on_c, 9, 51, 100
7, 69120, Note_on_c, 9, 35, 100
7, 69142, Note_off_c, 9, 35, 0
7, 69142, Note_off_c, 9, 51, 0
7, 69216, Note_on_c, 9, 51, 100
7, 69238, Note_off_c, 9, 51, 0
7, 69312, Note_on_c, 9, 51, 100
7, 69312, Note_on_c, 9, 38, 100
7, 69334, Note_off_c, 9, 38, 0
7, 69334, Note_off_c, 9, 51, 0
7, 69408, Note_on_c, 9, 51, 100
7, 69430, Note_off_c, 9, 51, 0
7, 69504, Note_on_c, 9, 51, 100
7, 69504, Note_on_c, 9, 35, 100
7, 69526, Note_off_c, 9, 35, 0
7, 69526, Note_off_c, 9, 51, 0
7, 69600, Note_on_c, 9, 51, 100
7, 69622, Note_off_c, 9, 51, 0
7, 69696, Note_on_c, 9, 51, 100
7, 69696, Note_on_c, 9, 38, 100
7, 69718, Note_off_c, 9, 38, 0
7, 69718, Note_off_c, 9, 51, 0
7, 69792, Note_on_c, 9, 51, 100
7, 69814, Note_off_c, 9, 51, 0
7, 69888, Note_on_c, 9, 51, 100
7, 69888, Note_on_c, 9, 35, 100
7, 69910, Note_off_c, 9, 35, 0
7, 69910, Note_off_c, 9, 51, 0
7, 69984, Note_on_c, 9, 51, 100
7, 70006, Note_off_c, 9, 51, 0
7, 70080, Note_on_c, 9, 51, 100
7, 70080, Note_on_c, 9, 38, 100
7, 70102, Note_off_c, 9, 38, 0
7, 70102, Note_off_c, 9, 51, 0
7, 70176, Note_on_c, 9, 51, 100
7, 70198, Note_off_c, 9, 51, 0
7, 70272, Note_on_c, 9, 51, 100
7, 70272, Note_on_c, 9, 35, 100
7, 70294, Note_off_c, 9, 35, 0
7, 70294, Note_off_c, 9, 51, 0
7, 70368, Note_on_c, 9, 51, 100
7, 70390, Note_off_c, 9, 51, 0
7, 70464, Note_on_c, 9, 51, 100
7, 70464, Note_on_c, 9, 38, 100
7, 70486, Note_off_c, 9, 38, 0
7, 70486, Note_off_c, 9, 51, 0
7, 70560, Note_on_c, 9, 51, 100
7, 70582, Note_off_c, 9, 51, 0
7, 70656, Note_on_c, 9, 51, 100
7, 70656, Note_on_c, 9, 35, 100
7, 70678, Note_off_c, 9, 35, 0
7, 70678, Note_off_c, 9, 51, 0
7, 70752, Note_on_c, 9, 51, 100
7, 70774, Note_off_c, 9, 51, 0
7, 70848, Note_on_c, 9, 51, 100
7, 70848, Note_on_c, 9, 38, 100
7, 70870, Note_off_c, 9, 38, 0
7, 70870, Note_off_c, 9, 51, 0
7, 70944, Note_on_c, 9, 51, 100
7, 70966, Note_off_c, 9, 51, 0
7, 71040, Note_on_c, 9, 51, 100
7, 71040, Note_on_c, 9, 35, 100
7, 71062, Note_off_c, 9, 35, 0
7, 71062, Note_off_c, 9, 51, 0
7, 71136, Note_on_c, 9, 51, 100
7, 71158, Note_off_c, 9, 51, 0
7, 71232, Note_on_c, 9, 51, 100
7, 71232, Note_on_c, 9, 38, 100
7, 71254, Note_off_c, 9, 38, 0
7, 71254, Note_off_c, 9, 51, 0
7, 71328, Note_on_c, 9, 51, 100
7, 71350, Note_off_c, 9, 51, 0
7, 71424, Note_on_c, 9, 51, 100
7, 71424, Note_on_c, 9, 35, 100
7, 71446, Note_off_c, 9, 35, 0
7, 71446, Note_off_c, 9, 51, 0
7, 71520, Note_on_c, 9, 51, 100
7, 71542, Note_off_c, 9, 51, 0
7, 71616, Note_on_c, 9, 51, 100
7, 71616, Note_on_c, 9, 38, 100
7, 71638, Note_off_c, 9, 38, 0
7, 71638, Note_off_c, 9, 51, 0
7, 71712, Note_on_c, 9, 51, 100
7, 71734, Note_off_c, 9, 51, 0
7, 71808, Note_on_c, 9, 51, 100
7, 71808, Note_on_c, 9, 35, 100
7, 71830, Note_off_c, 9, 35, 0
7, 71830, Note_off_c, 9, 51, 0
7, 71904, Note_on_c, 9, 51, 100
7, 71926, Note_off_c, 9, 51, 0
7, 72000, Note_on_c, 9, 51, 100
7, 72000, Note_on_c, 9, 38, 100
7, 72022, Note_off_c, 9, 38, 0
7, 72022, Note_off_c, 9, 51, 0
7, 72096, Note_on_c, 9, 51, 100
7, 72118, Note_off_c, 9, 51, 0
7, 72192, Note_on_c, 9, 51, 100
7, 72192, Note_on_c, 9, 35, 100
7, 72214, Note_off_c, 9, 35, 0
7, 72214, Note_off_c, 9, 51, 0
7, 72288, Note_on_c, 9, 51, 100
7, 72310, Note_off_c, 9, 51, 0
7, 72384, Note_on_c, 9, 51, 100
7, 72384, Note_on_c, 9, 38, 100
7, 72406, Note_off_c, 9, 38, 0
7, 72406, Note_off_c, 9, 51, 0
7, 72480, Note_on_c, 9, 51, 100
7, 72502, Note_off_c, 9, 51, 0
7, 72576, Note_on_c, 9, 51, 100
7, 72576, Note_on_c, 9, 35, 100
7, 72598, Note_off_c, 9, 35, 0
7, 72598, Note_off_c, 9, 51, 0
7, 72672, Note_on_c, 9, 51, 100
7, 72694, Note_off_c, 9, 51, 0
7, 72768, Note_on_c, 9, 51, 100
7, 72768, Note_on_c, 9, 38, 100
7, 72790, Note_off_c, 9, 38, 0
7, 72790, Note_off_c, 9, 51, 0
7, 72864, Note_on_c, 9, 51, 100
7, 72886, Note_off_c, 9, 51, 0
7, 72960, Note_on_c, 9, 51, 100
7, 72960, Note_on_c, 9, 35, 100
7, 72982, Note_off_c, 9, 35, 0
7, 72982, Note_off_c, 9, 51, 0
7, 73056, Note_on_c, 9, 51, 100
7, 73078, Note_off_c, 9, 51, 0
7, 73152, Note_on_c, 9, 51, 100
7, 73152, Note_on_c, 9, 38, 100
7, 73174, Note_off_c, 9, 38, 0
7, 73174, Note_off_c, 9, 51, 0
7, 73248, Note_on_c, 9, 51, 100
7, 73270, Note_off_c, 9, 51, 0
7, 73344, Note_on_c, 9, 51, 100
7, 73344, Note_on_c, 9, 35, 100
7, 73366, Note_off_c, 9, 35, 0
7, 73366, Note_off_c, 9, 51, 0
7, 73440, Note_on_c, 9, 51, 100
7, 73462, Note_off_c, 9, 51, 0
7, 73536, Note_on_c, 9, 51, 100
7, 73536, Note_on_c, 9, 38, 100
7, 73558, Note_off_c, 9, 38, 0
7, 73558, Note_off_c, 9, 51, 0
7, 73632, Note_on_c, 9, 51, 100
7, 73654, Note_off_c, 9, 51, 0
7, 73728, Note_on_c, 9, 51, 100
7, 73728, Note_on_c, 9, 35, 100
7, 73750, Note_off_c, 9, 35, 0
7, 73750, Note_off_c, 9, 51, 0
7, 73824, Note_on_c, 9, 51, 100
7, 73846, Note_off_c, 9, 51, 0
7, 73920, Note_on_c, 9, 51, 100
7, 73920, Note_on_c, 9, 38, 100
7, 73942, Note_off_c, 9, 38, 0
7, 73942, Note_off_c, 9, 51, 0
7, 74016, Note_on_c, 9, 51, 100
7, 74038, Note_off_c, 9, 51, 0
7, 74112, Note_on_c, 9, 51, 100
7, 74112, Note_on_c, 9, 35, 100
7, 74134, Note_off_c, 9, 35, 0
7, 74134, Note_off_c, 9, 51, 0
7, 74208, Note_on_c, 9, 51, 100
7, 74230, Note_off_c, 9, 51, 0
7, 74304, Note_on_c, 9, 51, 100
7, 74304, Note_on_c, 9, 38, 100
7, 74326, Note_off_c, 9, 38, 0
7, 74326, Note_off_c, 9, 51, 0
7, 74400, Note_on_c, 9, 51, 100
7, 74422, Note_off_c, 9, 51, 0
7, 74496, Note_on_c, 9, 51, 100
7, 74496, Note_on_c, 9, 35, 100
7, 74518, Note_off_c, 9, 35, 0
7, 74518, Note_off_c, 9, 51, 0
7, 74592, Note_on_c, 9, 51, 100
7, 74614, Note_off_c, 9, 51, 0
7, 74688, Note_on_c, 9, 51, 100
7, 74688, Note_on_c, 9, 38, 100
7, 74710, Note_off_c, 9, 38, 0
7, 74710, Note_off_c, 9, 51, 0
7, 74784, Note_on_c, 9, 51, 100
7, 74806, Note_off_c, 9, 51, 0
7, 74880, Note_on_c, 9, 51, 100
7, 74880, Note_on_c, 9, 35, 100
7, 74902, Note_off_c, 9, 35, 0
7, 74902, Note_off_c, 9, 51, 0
7, 74976, Note_on_c, 9, 51, 100
7, 74998, Note_off_c, 9, 51, 0
7, 75072, Note_on_c, 9, 51, 100
7, 75072, Note_on_c, 9, 38, 100
7, 75094, Note_off_c, 9, 38, 0
7, 75094, Note_off_c, 9, 51, 0
7, 75168, Note_on_c, 9, 51, 100
7, 75190, Note_off_c, 9, 51, 0
7, 75264, Note_on_c, 9, 51, 100
7, 75264, Note_on_c, 9, 35, 100
7, 75286, Note_off_c, 9, 35, 0
7, 75286, Note_off_c, 9, 51, 0
7, 75360, Note_on_c, 9, 51, 100
7, 75382, Note_off_c, 9, 51, 0
7, 75456, Note_on_c, 9, 51, 100
7, 75456, Note_on_c, 9, 38, 100
7, 75478, Note_off_c, 9, 38, 0
7, 75478, Note_off_c, 9, 51, 0
7, 75552, Note_on_c, 9, 51, 100
7, 75574, Note_off_c, 9, 51, 0
7, 75648, Note_on_c, 9, 51, 100
7, 75648, Note_on_c, 9, 35, 100
7, 75670, Note_off_c, 9, 35, 0
7, 75670, Note_off_c, 9, 51, 0
7, 75744, Note_on_c, 9, 51, 100
7, 75766, Note_off_c, 9, 51, 0
7, 75840, Note_on_c, 9, 51, 100
7, 75840, Note_on_c, 9, 38, 100
7, 75862, Note_off_c, 9, 38, 0
7, 75862, Note_off_c, 9, 51, 0
7, 75936, Note_on_c, 9, 51, 100
7, 75958, Note_off_c, 9, 51, 0
7, 76032, Note_on_c, 9, 51, 100
7, 76032, Note_on_c, 9, 35, 100
7, 76054, Note_off_c, 9, 35, 0
7, 76054, Note_off_c, 9, 51, 0
7, 76128, Note_on_c, 9, 51, 100
7, 76150, Note_off_c, 9, 51, 0
7, 76224, Note_on_c, 9, 51, 100
7, 76224, Note_on_c, 9, 38, 100
7, 76246, Note_off_c, 9, 38, 0
7, 76246, Note_off_c, 9, 51, 0
7, 76320, Note_on_c, 9, 51, 100
7, 76342, Note_off_c, 9, 51, 0
7, 76416, Note_on_c, 9, 51, 100
7, 76416, Note_on_c, 9, 35, 100
7, 76438, Note_off_c, 9, 35, 0
7, 76438, Note_off_c, 9, 51, 0
7, 76512, Note_on_c, 9, 51, 100
7, 76534, Note_off_c, 9, 51, 0
7, 76608, Note_on_c, 9, 51, 100
7, 76608, Note_on_c, 9, 38, 100
7, 76630, Note_off_c, 9, 38, 0
7, 76630, Note_off_c, 9, 51, 0
7, 76704, Note_on_c, 9, 51, 100
7, 76726, Note_off_c, 9, 51, 0
7, 76800, Note_on_c, 9, 51, 100
7, 76800, Note_on_c, 9, 35, 100
7, 76822, Note_off_c, 9, 35, 0
7, 76822, Note_off_c, 9, 51, 0
7, 76896, Note_on_c, 9, 51, 100
7, 76918, Note_off_c, 9, 51, 0
7, 76992, Note_on_c, 9, 51, 100
7, 76992, Note_on_c, 9, 38, 100
7, 77014, Note_off_c, 9, 38, 0
7, 77014, Note_off_c, 9, 51, 0
7, 77088, Note_on_c, 9, 51, 100
7, 77110, Note_off_c, 9, 51, 0
7, 77184, Note_on_c, 9, 51, 100
7, 77184, Note_on_c, 9, 35, 100
7, 77206, Note_off_c, 9, 35, 0
7, 77206, Note_off_c, 9, 51, 0
7, 77280, Note_on_c, 9, 51, 100
7, 77302, Note_off_c, 9, 51, 0
7, 77376, Note_on_c, 9, 51, 100
7, 77376, Note_on_c, 9, 38, 100
7, 77398, Note_off_c, 9, 38, 0
7, 77398, Note_off_c, 9, 51, 0
7, 77472, Note_on_c, 9, 51, 100
7, 77494, Note_off_c, 9, 51, 0
7, 77568, Note_on_c, 9, 51, 100
7, 77568, Note_on_c, 9, 35, 100
7, 77590, Note_off_c, 9, 35, 0
7, 77590, Note_off_c, 9, 51, 0
7, 77664, Note_on_c, 9, 51, 100
7, 77686, Note_off_c, 9, 51, 0
7, 77760, Note_on_c, 9, 51, 100
7, 77760, Note_on_c, 9, 38, 100
7, 77782, Note_off_c, 9, 38, 0
7, 77782, Note_off_c, 9, 51, 0
7, 77856, Note_on_c, 9, 51, 100
7, 77878, Note_off_c, 9, 51, 0
7, 77952, Note_on_c, 9, 51, 100
7, 77952, Note_on_c, 9, 35, 100
7, 77974, Note_off_c, 9, 35, 0
7, 77974, Note_off_c, 9, 51, 0
7, 78048, Note_on_c, 9, 51, 100
7, 78070, Note_off_c, 9, 51, 0
7, 78144, Note_on_c, 9, 51, 100
7, 78144, Note_on_c, 9, 38, 100
7, 78166, Note_off_c, 9, 38, 0
7, 78166, Note_off_c, 9, 51, 0
7, 78240, Note_on_c, 9, 51, 100
7, 78262, Note_off_c, 9, 51, 0
7, 79008, Note_on_c, 9, 38, 100
7, 79030, Note_off_c, 9, 38, 0
7, 79056, Note_on_c, 9, 38, 100
7, 79078, Note_off_c, 9, 38, 0
7, 79104, Note_on_c, 9, 38, 100
7, 79126, Note_off_c, 9, 38, 0
7, 79200, Note_on_c, 9, 38, 100
7, 79222, Note_off_c, 9, 38, 0
7, 79392, Note_on_c, 9, 45, 100
7, 79414, Note_off_c, 9, 45, 0
7, 79488, Note_on_c, 9, 45, 100
7, 79510, Note_off_c, 9, 45, 0
7, 79584, Note_on_c, 9, 45, 100
7, 79606, Note_off_c, 9, 45, 0
7, 79680, Note_on_c, 9, 45, 100
7, 79702, Note_off_c, 9, 45, 0
7, 79872, Note_on_c, 9, 51, 100
7, 79872, Note_on_c, 9, 35, 100
7, 79894, Note_off_c, 9, 35, 0
7, 79894, Note_off_c, 9, 51, 0
7, 80064, Note_on_c, 9, 51, 100
7, 80086, Note_off_c, 9, 51, 0
7, 80256, Note_on_c, 9, 51, 100
7, 80256, Note_on_c, 9, 38, 100
7, 80256, Note_on_c, 9, 35, 100
7, 80278, Note_off_c, 9, 35, 0
7, 80278, Note_off_c, 9, 38, 0
7, 80278, Note_off_c, 9, 51, 0
7, 80448, Note_on_c, 9, 51, 100
7, 80470, Note_off_c, 9, 51, 0
7, 80640, Note_on_c, 9, 35, 100
7, 80640, Note_on_c, 9, 51, 100
7, 80662, Note_off_c, 9, 51, 0
7, 80662, Note_off_c, 9, 35, 0
7, 80832, Note_on_c, 9, 35, 100
7, 80832, Note_on_c, 9, 51, 100
7, 80854, Note_off_c, 9, 51, 0
7, 80854, Note_off_c, 9, 35, 0
7, 81024, Note_on_c, 9, 38, 100
7, 81024, Note_on_c, 9, 35, 100
7, 81024, Note_on_c, 9, 51, 100
7, 81046, Note_off_c, 9, 51, 0
7, 81046, Note_off_c, 9, 35, 0
7, 81046, Note_off_c, 9, 38, 0
7, 81216, Note_on_c, 9, 38, 100
7, 81216, Note_on_c, 9, 35, 100
7, 81216, Note_on_c, 9, 51, 100
7, 81238, Note_off_c, 9, 51, 0
7, 81238, Note_off_c, 9, 35, 0
7, 81238, Note_off_c, 9, 38, 0
7, 81408, Note_on_c, 9, 51, 100
7, 81408, Note_on_c, 9, 35, 100
7, 81430, Note_off_c, 9, 35, 0
7, 81430, Note_off_c, 9, 51, 0
7, 81600, Note_on_c, 9, 51, 100
7, 81622, Note_off_c, 9, 51, 0
7, 81792, Note_on_c, 9, 38, 100
7, 81792, Note_on_c, 9, 35, 100
7, 81792, Note_on_c, 9, 51, 100
7, 81814, Note_off_c, 9, 51, 0
7, 81814, Note_off_c, 9, 35, 0
7, 81814, Note_off_c, 9, 38, 0
7, 81984, Note_on_c, 9, 51, 100
7, 82006, Note_off_c, 9, 51, 0
7, 82080, Note_on_c, 9, 35, 100
7, 82102, Note_off_c, 9, 35, 0
7, 82176, Note_on_c, 9, 51, 100
7, 82176, Note_on_c, 9, 35, 100
7, 82198, Note_off_c, 9, 35, 0
7, 82198, Note_off_c, 9, 51, 0
7, 82368, Note_on_c, 9, 51, 100
7, 82368, Note_on_c, 9, 35, 100
7, 82390, Note_off_c, 9, 35, 0
7, 82390, Note_off_c, 9, 51, 0
7, 82560, Note_on_c, 9, 51, 100
7, 82560, Note_on_c, 9, 38, 100
7, 82560, Note_on_c, 9, 35, 100
7, 82582, Note_off_c, 9, 35, 0
7, 82582, Note_off_c, 9, 38, 0
7, 82582, Note_off_c, 9, 51, 0
7, 82752, Note_on_c, 9, 51, 100
7, 82774, Note_off_c, 9, 51, 0
7, 82848, Note_on_c, 9, 35, 100
7, 82870, Note_off_c, 9, 35, 0
7, 82944, Note_on_c, 9, 51, 100
7, 82944, Note_on_c, 9, 35, 100
7, 82966, Note_off_c, 9, 35, 0
7, 82966, Note_off_c, 9, 51, 0
7, 83040, Note_on_c, 9, 35, 100
7, 83062, Note_off_c, 9, 35, 0
7, 83136, Note_on_c, 9, 51, 100
7, 83158, Note_off_c, 9, 51, 0
7, 83232, Note_on_c, 9, 35, 100
7, 83254, Note_off_c, 9, 35, 0
7, 83328, Note_on_c, 9, 51, 100
7, 83328, Note_on_c, 9, 38, 100
7, 83350, Note_off_c, 9, 38, 0
7, 83350, Note_off_c, 9, 51, 0
7, 83520, Note_on_c, 9, 51, 100
7, 83542, Note_off_c, 9, 51, 0
7, 83616, Note_on_c, 9, 35, 100
7, 83638, Note_off_c, 9, 35, 0
7, 83712, Note_on_c, 9, 35, 100
7, 83712, Note_on_c, 9, 51, 100
7, 83734, Note_off_c, 9, 51, 0
7, 83734, Note_off_c, 9, 35, 0
7, 83904, Note_on_c, 9, 35, 100
7, 83904, Note_on_c, 9, 51, 100
7, 83926, Note_off_c, 9, 51, 0
7, 83926, Note_off_c, 9, 35, 0
7, 84096, Note_on_c, 9, 38, 100
7, 84096, Note_on_c, 9, 51, 100
7, 84118, Note_off_c, 9, 51, 0
7, 84118, Note_off_c, 9, 38, 0
7, 84288, Note_on_c, 9, 51, 100
7, 84310, Note_off_c, 9, 51, 0
7, 84480, Note_on_c, 9, 51, 100
7, 84480, Note_on_c, 9, 35, 100
7, 84502, Note_off_c, 9, 35, 0
7, 84502, Note_off_c, 9, 51, 0
7, 84672, Note_on_c, 9, 51, 100
7, 84694, Note_off_c, 9, 51, 0
7, 84864, Note_on_c, 9, 51, 100
7, 84864, Note_on_c, 9, 38, 100
7, 84864, Note_on_c, 9, 35, 100
7, 84886, Note_off_c, 9, 35, 0
7, 84886, Note_off_c, 9, 38, 0
7, 84886, Note_off_c, 9, 51, 0
7, 85056, Note_on_c, 9, 51, 100
7, 85078, Note_off_c, 9, 51, 0
7, 85152, Note_on_c, 9, 35, 100
7, 85174, Note_off_c, 9, 35, 0
7, 85248, Note_on_c, 9, 35, 100
7, 85248, Note_on_c, 9, 51, 100
7, 85270, Note_off_c, 9, 51, 0
7, 85270, Note_off_c, 9, 35, 0
7, 85440, Note_on_c, 9, 35, 100
7, 85440, Note_on_c, 9, 51, 100
7, 85462, Note_off_c, 9, 51, 0
7, 85462, Note_off_c, 9, 35, 0
7, 85632, Note_on_c, 9, 38, 100
7, 85632, Note_on_c, 9, 35, 100
7, 85632, Note_on_c, 9, 51, 100
7, 85654, Note_off_c, 9, 51, 0
7, 85654, Note_off_c, 9, 35, 0
7, 85654, Note_off_c, 9, 38, 0
7, 85728, Note_on_c, 9, 35, 100
7, 85750, Note_off_c, 9, 35, 0
7, 85824, Note_on_c, 9, 35, 100
7, 85824, Note_on_c, 9, 51, 100
7, 85846, Note_off_c, 9, 51, 0
7, 85846, Note_off_c, 9, 35, 0
7, 86016, Note_on_c, 9, 35, 100
7, 86016, Note_on_c, 9, 51, 100
7, 86038, Note_off_c, 9, 51, 0
7, 86038, Note_off_c, 9, 35, 0
7, 86208, Note_on_c, 9, 51, 100
7, 86230, Note_off_c, 9, 51, 0
7, 86400, Note_on_c, 9, 38, 100
7, 86400, Note_on_c, 9, 35, 100
7, 86400, Note_on_c, 9, 51, 100
7, 86422, Note_off_c, 9, 51, 0
7, 86422, Note_off_c, 9, 35, 0
7, 86422, Note_off_c, 9, 38, 0
7, 86592, Note_on_c, 9, 51, 100
7, 86614, Note_off_c, 9, 51, 0
7, 86688, Note_on_c, 9, 35, 100
7, 86710, Note_off_c, 9, 35, 0
7, 86784, Note_on_c, 9, 51, 100
7, 86784, Note_on_c, 9, 35, 100
7, 86806, Note_off_c, 9, 35, 0
7, 86806, Note_off_c, 9, 51, 0
7, 86976, Note_on_c, 9, 51, 100
7, 86976, Note_on_c, 9, 35, 100
7, 86998, Note_off_c, 9, 35, 0
7, 86998, Note_off_c, 9, 51, 0
7, 87168, Note_on_c, 9, 51, 100
7, 87168, Note_on_c, 9, 38, 100
7, 87190, Note_off_c, 9, 38, 0
7, 87190, Note_off_c, 9, 51, 0
7, 87360, Note_on_c, 9, 51, 100
7, 87382, Note_off_c, 9, 51, 0
7, 87456, Note_on_c, 9, 35, 100
7, 87478, Note_off_c, 9, 35, 0
7, 87552, Note_on_c, 9, 51, 100
7, 87552, Note_on_c, 9, 35, 100
7, 87574, Note_off_c, 9, 35, 0
7, 87574, Note_off_c, 9, 51, 0
7, 87648, Note_on_c, 9, 35, 100
7, 87670, Note_off_c, 9, 35, 0
7, 87744, Note_on_c, 9, 51, 100
7, 87766, Note_off_c, 9, 51, 0
7, 87840, Note_on_c, 9, 35, 100
7, 87862, Note_off_c, 9, 35, 0
7, 87936, Note_on_c, 9, 51, 100
7, 87936, Note_on_c, 9, 38, 100
7, 87958, Note_off_c, 9, 38, 0
7, 87958, Note_off_c, 9, 51, 0
7, 88128, Note_on_c, 9, 51, 100
7, 88150, Note_off_c, 9, 51, 0
7, 88224, Note_on_c, 9, 35, 100
7, 88246, Note_off_c, 9, 35, 0
7, 88320, Note_on_c, 9, 35, 100
7, 88320, Note_on_c, 9, 51, 100
7, 88342, Note_off_c, 9, 51, 0
7, 88342, Note_off_c, 9, 35, 0
7, 88512, Note_on_c, 9, 35, 100
7, 88512, Note_on_c, 9, 51, 100
7, 88534, Note_off_c, 9, 51, 0
7, 88534, Note_off_c, 9, 35, 0
7, 88704, Note_on_c, 9, 38, 100
7, 88704, Note_on_c, 9, 35, 100
7, 88704, Note_on_c, 9, 51, 100
7, 88726, Note_off_c, 9, 51, 0
7, 88726, Note_off_c, 9, 35, 0
7, 88726, Note_off_c, 9, 38, 0
7, 88896, Note_on_c, 9, 51, 100
7, 88918, Note_off_c, 9, 51, 0
7, 89088, Note_on_c, 9, 51, 100
7, 89088, Note_on_c, 9, 35, 100
7, 89110, Note_off_c, 9, 35, 0
7, 89110, Note_off_c, 9, 51, 0
7, 89280, Note_on_c, 9, 51, 100
7, 89280, Note_on_c, 9, 35, 100
7, 89302, Note_off_c, 9, 35, 0
7, 89302, Note_off_c, 9, 51, 0
7, 89472, Note_on_c, 9, 51, 100
7, 89472, Note_on_c, 9, 38, 100
7, 89472, Note_on_c, 9, 35, 100
7, 89494, Note_off_c, 9, 35, 0
7, 89494, Note_off_c, 9, 38, 0
7, 89494, Note_off_c, 9, 51, 0
7, 89664, Note_on_c, 9, 51, 100
7, 89686, Note_off_c, 9, 51, 0
7, 89856, Note_on_c, 9, 35, 100
7, 89856, Note_on_c, 9, 51, 100
7, 89878, Note_off_c, 9, 51, 0
7, 89878, Note_off_c, 9, 35, 0
7, 90048, Note_on_c, 9, 51, 100
7, 90070, Note_off_c, 9, 51, 0
7, 90240, Note_on_c, 9, 38, 100
7, 90240, Note_on_c, 9, 51, 100
7, 90262, Note_off_c, 9, 51, 0
7, 90262, Note_off_c, 9, 38, 0
7, 90432, Note_on_c, 9, 51, 100
7, 90454, Note_off_c, 9, 51, 0
7, 90624, Note_on_c, 9, 35, 100
7, 90624, Note_on_c, 9, 51, 100
7, 90646, Note_off_c, 9, 51, 0
7, 90646, Note_off_c, 9, 35, 0
7, 90816, Note_on_c, 9, 38, 100
7, 90816, Note_on_c, 9, 51, 100
7, 90838, Note_off_c, 9, 51, 0
7, 90838, Note_off_c, 9, 38, 0
7, 91008, Note_on_c, 9, 35, 100
7, 91008, Note_on_c, 9, 51, 100
7, 91030, Note_off_c, 9, 51, 0
7, 91030, Note_off_c, 9, 35, 0
7, 91104, Note_on_c, 9, 35, 100
7, 91126, Note_off_c, 9, 35, 0
7, 91200, Note_on_c, 9, 38, 100
7, 91200, Note_on_c, 9, 51, 100
7, 91222, Note_off_c, 9, 51, 0
7, 91222, Note_off_c, 9, 38, 0
7, 91392, Note_on_c, 9, 35, 100
7, 91392, Note_on_c, 9, 51, 100
7, 91414, Note_off_c, 9, 51, 0
7, 91414, Note_off_c, 9, 35, 0
7, 91584, Note_on_c, 9, 35, 100
7, 91584, Note_on_c, 9, 51, 100
7, 91606, Note_off_c, 9, 51, 0
7, 91606, Note_off_c, 9, 35, 0
7, 91776, Note_on_c, 9, 38, 100
7, 91798, Note_off_c, 9, 38, 0
7, 91872, Note_on_c, 9, 38, 100
7, 91894, Note_off_c, 9, 38, 0
7, 91968, Note_on_c, 9, 45, 100
7, 91990, Note_off_c, 9, 45, 0
7, 92064, Note_on_c, 9, 43, 100
7, 92086, Note_off_c, 9, 43, 0
7, 92160, Note_on_c, 9, 51, 100
7, 92160, Note_on_c, 9, 35, 100
7, 92160, Note_on_c, 9, 36, 100
7, 92182, Note_off_c, 9, 36, 0
7, 92182, Note_off_c, 9, 35, 0
7, 92182, Note_off_c, 9, 51, 0
7, 92448, Note_on_c, 9, 38, 100
7, 92470, Note_off_c, 9, 38, 0
7, 92544, Note_on_c, 9, 35, 100
7, 92544, Note_on_c, 9, 51, 100
7, 92566, Note_off_c, 9, 51, 0
7, 92566, Note_off_c, 9, 35, 0
7, 92640, Note_on_c, 9, 35, 100
7, 92662, Note_off_c, 9, 35, 0
7, 92736, Note_on_c, 9, 38, 100
7, 92736, Note_on_c, 9, 49, 100
7, 92758, Note_off_c, 9, 49, 0
7, 92758, Note_off_c, 9, 38, 0
7, 92928, Note_on_c, 9, 35, 100
7, 92928, Note_on_c, 9, 46, 100
7, 92950, Note_off_c, 9, 46, 0
7, 92950, Note_off_c, 9, 35, 0
7, 93120, Note_on_c, 9, 35, 100
7, 93120, Note_on_c, 9, 46, 100
7, 93142, Note_off_c, 9, 46, 0
7, 93142, Note_off_c, 9, 35, 0
7, 93216, Note_on_c, 9, 38, 100
7, 93238, Note_off_c, 9, 38, 0
7, 93312, Note_on_c, 9, 45, 100
7, 93334, Note_off_c, 9, 45, 0
7, 93408, Note_on_c, 9, 45, 100
7, 93430, Note_off_c, 9, 45, 0
7, 93504, Note_on_c, 9, 43, 100
7, 93526, Note_off_c, 9, 43, 0
7, 93600, Note_on_c, 9, 43, 100
7, 93622, Note_off_c, 9, 43, 0
7, 93696, Note_on_c, 9, 51, 90
7, 93718, Note_off_c, 9, 51, 0
7, 94080, Note_on_c, 9, 46, 60
7, 94102, Note_off_c, 9, 46, 0
7, 94272, Note_on_c, 9, 46, 60
7, 94294, Note_off_c, 9, 46, 0
7, 94464, Note_on_c, 9, 46, 60
7, 94486, Note_off_c, 9, 46, 0
7, 94656, Note_on_c, 9, 46, 60
7, 94678, Note_off_c, 9, 46, 0
7, 94848, Note_on_c, 9, 46, 60
7, 94848, Note_on_c, 9, 53, 60
7, 94870, Note_off_c, 9, 53, 0
7, 94870, Note_off_c, 9, 46, 0
7, 94912, Note_on_c, 9, 53, 60
7, 94934, Note_off_c, 9, 53, 0
7, 94976, Note_on_c, 9, 53, 60
7, 94998, Note_off_c, 9, 53, 0
7, 95040, Note_on_c, 9, 46, 60
7, 95040, Note_on_c, 9, 53, 60
7, 95062, Note_off_c, 9, 53, 0
7, 95062, Note_off_c, 9, 46, 0
7, 95104, Note_on_c, 9, 53, 60
7, 95126, Note_off_c, 9, 53, 0
7, 95168, Note_on_c, 9, 53, 60
7, 95190, Note_off_c, 9, 53, 0
7, 95232, Note_on_c, 9, 46, 60
7, 95254, Note_off_c, 9, 46, 0
7, 95616, Note_on_c, 9, 0, 60
7, 95638, Note_off_c, 9, 0, 0
7, 95808, Note_on_c, 9, 0, 60
7, 95830, Note_off_c, 9, 0, 0
7, 96000, Note_on_c, 9, 0, 60
7, 96000, Note_on_c, 9, 53, 60
7, 96022, Note_off_c, 9, 53, 0
7, 96022, Note_off_c, 9, 0, 0
7, 96048, Note_on_c, 9, 53, 60
7, 96070, Note_off_c, 9, 53, 0
7, 96144, Note_on_c, 9, 53, 60
7, 96166, Note_off_c, 9, 53, 0
7, 96192, Note_on_c, 9, 0, 60
7, 96192, Note_on_c, 9, 53, 60
7, 96214, Note_off_c, 9, 53, 0
7, 96214, Note_off_c, 9, 0, 0
7, 96240, Note_on_c, 9, 53, 60
7, 96262, Note_off_c, 9, 53, 0
7, 96288, Note_on_c, 9, 53, 60
7, 96310, Note_off_c, 9, 53, 0
7, 96384, Note_on_c, 9, 0, 60
7, 96384, Note_on_c, 9, 53, 60
7, 96406, Note_off_c, 9, 53, 0
7, 96406, Note_off_c, 9, 0, 0
7, 96432, Note_on_c, 9, 53, 60
7, 96454, Note_off_c, 9, 53, 0
7, 96480, Note_on_c, 9, 53, 60
7, 96502, Note_off_c, 9, 53, 0
7, 96528, Note_on_c, 9, 53, 60
7, 96550, Note_off_c, 9, 53, 0
7, 96576, Note_on_c, 9, 0, 60
7, 96598, Note_off_c, 9, 0, 0
7, 96624, Note_on_c, 9, 53, 60
7, 96646, Note_off_c, 9, 53, 0
7, 96672, Note_on_c, 9, 53, 60
7, 96694, Note_off_c, 9, 53, 0
7, 96720, Note_on_c, 9, 53, 60
7, 96742, Note_off_c, 9, 53, 0
7, 96768, Note_on_c, 9, 51, 60
7, 96790, Note_off_c, 9, 51, 0
7, 97152, Note_on_c, 9, 0, 60
7, 97174, Note_off_c, 9, 0, 0
7, 97344, Note_on_c, 9, 0, 60
7, 97366, Note_off_c, 9, 0, 0
7, 97536, Note_on_c, 9, 53, 60
7, 97536, Note_on_c, 9, 0, 60
7, 97558, Note_off_c, 9, 0, 0
7, 97558, Note_off_c, 9, 53, 0
7, 97600, Note_on_c, 9, 53, 60
7, 97622, Note_off_c, 9, 53, 0
7, 97664, Note_on_c, 9, 53, 60
7, 97686, Note_off_c, 9, 53, 0
7, 97728, Note_on_c, 9, 53, 60
7, 97728, Note_on_c, 9, 0, 60
7, 97750, Note_off_c, 9, 0, 0
7, 97750, Note_off_c, 9, 53, 0
7, 97792, Note_on_c, 9, 53, 60
7, 97814, Note_off_c, 9, 53, 0
7, 97856, Note_on_c, 9, 53, 60
7, 97878, Note_off_c, 9, 53, 0
7, 97920, Note_on_c, 9, 53, 60
7, 97920, Note_on_c, 9, 0, 60
7, 97942, Note_off_c, 9, 0, 0
7, 97942, Note_off_c, 9, 53, 0
7, 98048, Note_on_c, 9, 53, 60
7, 98070, Note_off_c, 9, 53, 0
7, 98112, Note_on_c, 9, 53, 60
7, 98112, Note_on_c, 9, 0, 60
7, 98134, Note_off_c, 9, 0, 0
7, 98134, Note_off_c, 9, 53, 0
7, 98176, Note_on_c, 9, 53, 60
7, 98198, Note_off_c, 9, 53, 0
7, 98240, Note_on_c, 9, 53, 60
7, 98262, Note_off_c, 9, 53, 0
7, 98304, Note_on_c, 9, 51, 60
7, 98326, Note_off_c, 9, 51, 0
7, 98688, Note_on_c, 9, 0, 60
7, 98710, Note_off_c, 9, 0, 0
7, 98880, Note_on_c, 9, 0, 60
7, 98902, Note_off_c, 9, 0, 0
7, 99072, Note_on_c, 9, 0, 60
7, 99094, Note_off_c, 9, 0, 0
7, 99264, Note_on_c, 9, 0, 60
7, 99286, Note_off_c, 9, 0, 0
7, 99456, Note_on_c, 9, 53, 60
7, 99456, Note_on_c, 9, 0, 60
7, 99478, Note_off_c, 9, 0, 0
7, 99478, Note_off_c, 9, 53, 0
7, 99520, Note_on_c, 9, 53, 60
7, 99542, Note_off_c, 9, 53, 0
7, 99584, Note_on_c, 9, 53, 60
7, 99606, Note_off_c, 9, 53, 0
7, 99648, Note_on_c, 9, 53, 60
7, 99648, Note_on_c, 9, 0, 60
7, 99670, Note_off_c, 9, 0, 0
7, 99670, Note_off_c, 9, 53, 0
7, 99712, Note_on_c, 9, 53, 60
7, 99734, Note_off_c, 9, 53, 0
7, 99776, Note_on_c, 9, 53, 60
7, 99798, Note_off_c, 9, 53, 0
7, 99840, Note_on_c, 9, 51, 60
7, 99862, Note_off_c, 9, 51, 0
7, 100224, Note_on_c, 9, 0, 60
7, 100246, Note_off_c, 9, 0, 0
7, 100416, Note_on_c, 9, 0, 60
7, 100438, Note_off_c, 9, 0, 0
7, 100608, Note_on_c, 9, 0, 60
7, 100630, Note_off_c, 9, 0, 0
7, 100800, Note_on_c, 9, 0, 60
7, 100822, Note_off_c, 9, 0, 0
7, 100992, Note_on_c, 9, 57, 90
7, 101014, Note_off_c, 9, 57, 0
7, 101184, Note_on_c, 9, 0, 60
7, 101206, Note_off_c, 9, 0, 0
7, 101376, Note_on_c, 9, 51, 60
7, 101398, Note_off_c, 9, 51, 0
7, 101760, Note_on_c, 9, 0, 60
7, 101782, Note_off_c, 9, 0, 0
7, 101952, Note_on_c, 9, 0, 60
7, 101974, Note_off_c, 9, 0, 0
7, 102144, Note_on_c, 9, 0, 60
7, 102166, Note_off_c, 9, 0, 0
7, 102336, Note_on_c, 9, 53, 60
7, 102336, Note_on_c, 9, 0, 60
7, 102358, Note_off_c, 9, 0, 0
7, 102358, Note_off_c, 9, 53, 0
7, 102400, Note_on_c, 9, 53, 60
7, 102422, Note_off_c, 9, 53, 0
7, 102464, Note_on_c, 9, 53, 60
7, 102486, Note_off_c, 9, 53, 0
7, 102528, Note_on_c, 9, 53, 60
7, 102528, Note_on_c, 9, 0, 60
7, 102550, Note_off_c, 9, 0, 0
7, 102550, Note_off_c, 9, 53, 0
7, 102592, Note_on_c, 9, 53, 60
7, 102614, Note_off_c, 9, 53, 0
7, 102656, Note_on_c, 9, 53, 60
7, 102678, Note_off_c, 9, 53, 0
7, 102720, Note_on_c, 9, 53, 60
7, 102720, Note_on_c, 9, 0, 60
7, 102742, Note_off_c, 9, 0, 0
7, 102742, Note_off_c, 9, 53, 0
7, 102784, Note_on_c, 9, 53, 60
7, 102806, Note_off_c, 9, 53, 0
7, 102848, Note_on_c, 9, 53, 60
7, 102870, Note_off_c, 9, 53, 0
7, 102912, Note_on_c, 9, 51, 100
7, 102912, Note_on_c, 9, 35, 100
7, 102934, Note_off_c, 9, 35, 0
7, 102934, Note_off_c, 9, 51, 0
7, 103296, Note_on_c, 9, 46, 100
7, 103318, Note_off_c, 9, 46, 0
7, 103488, Note_on_c, 9, 46, 100
7, 103510, Note_off_c, 9, 46, 0
7, 103680, Note_on_c, 9, 46, 100
7, 103702, Note_off_c, 9, 46, 0
7, 103872, Note_on_c, 9, 49, 100
7, 103894, Note_off_c, 9, 49, 0
7, 104064, Note_on_c, 9, 46, 100
7, 104086, Note_off_c, 9, 46, 0
7, 104256, Note_on_c, 9, 46, 100
7, 104278, Note_off_c, 9, 46, 0
7, 104448, Note_on_c, 9, 38, 100
7, 104448, Note_on_c, 9, 46, 100
7, 104470, Note_off_c, 9, 46, 0
7, 104470, Note_off_c, 9, 38, 0
7, 104544, Note_on_c, 9, 45, 100
7, 104566, Note_off_c, 9, 45, 0
7, 104640, Note_on_c, 9, 43, 100
7, 104640, Note_on_c, 9, 46, 100
7, 104662, Note_off_c, 9, 46, 0
7, 104662, Note_off_c, 9, 43, 0
7, 104832, Note_on_c, 9, 38, 100
7, 104832, Note_on_c, 9, 46, 100
7, 104854, Note_off_c, 9, 46, 0
7, 104854, Note_off_c, 9, 38, 0
7, 105024, Note_on_c, 9, 43, 100
7, 105024, Note_on_c, 9, 46, 100
7, 105046, Note_off_c, 9, 46, 0
7, 105046, Note_off_c, 9, 43, 0
7, 105120, Note_on_c, 9, 41, 100
7, 105142, Note_off_c, 9, 41, 0
7, 105216, Note_on_c, 9, 46, 100
7, 105216, Note_on_c, 9, 43, 100
7, 105238, Note_off_c, 9, 43, 0
7, 105238, Note_off_c, 9, 46, 0
7, 105312, Note_on_c, 9, 43, 100
7, 105334, Note_off_c, 9, 43, 0
7, 105408, Note_on_c, 9, 46, 100
7, 105408, Note_on_c, 9, 41, 100
7, 105430, Note_off_c, 9, 41, 0
7, 105430, Note_off_c, 9, 46, 0
7, 105504, Note_on_c, 9, 45, 100
7, 105526, Note_off_c, 9, 45, 0
7, 105600, Note_on_c, 9, 46, 100
7, 105600, Note_on_c, 9, 38, 100
7, 105622, Note_off_c, 9, 38, 0
7, 105622, Note_off_c, 9, 46, 0
7, 105696, Note_on_c, 9, 43, 100
7, 105718, Note_off_c, 9, 43, 0
7, 105792, Note_on_c, 9, 46, 100
7, 105792, Note_on_c, 9, 41, 100
7, 105814, Note_off_c, 9, 41, 0
7, 105814, Note_off_c, 9, 46, 0
7, 105888, Note_on_c, 9, 38, 100
7, 105910, Note_off_c, 9, 38, 0
7, 105984, Note_on_c, 9, 46, 100
7, 105984, Note_on_c, 9, 35, 100
7, 106006, Note_off_c, 9, 35, 0
7, 106006, Note_off_c, 9, 46, 0
7, 106080, Note_on_c, 9, 46, 100
7, 106102, Note_off_c, 9, 46, 0
7, 106176, Note_on_c, 9, 46, 100
7, 106176, Note_on_c, 9, 38, 100
7, 106198, Note_off_c, 9, 38, 0
7, 106198, Note_off_c, 9, 46, 0
7, 106272, Note_on_c, 9, 46, 100
7, 106294, Note_off_c, 9, 46, 0
7, 106368, Note_on_c, 9, 46, 100
7, 106368, Note_on_c, 9, 35, 100
7, 106390, Note_off_c, 9, 35, 0
7, 106390, Note_off_c, 9, 46, 0
7, 106464, Note_on_c, 9, 46, 100
7, 106486, Note_off_c, 9, 46, 0
7, 106560, Note_on_c, 9, 46, 100
7, 106560, Note_on_c, 9, 38, 100
7, 106582, Note_off_c, 9, 38, 0
7, 106582, Note_off_c, 9, 46, 0
7, 106656, Note_on_c, 9, 46, 100
7, 106678, Note_off_c, 9, 46, 0
7, 106752, Note_on_c, 9, 46, 100
7, 106752, Note_on_c, 9, 35, 100
7, 106774, Note_off_c, 9, 35, 0
7, 106774, Note_off_c, 9, 46, 0
7, 106848, Note_on_c, 9, 46, 100
7, 106870, Note_off_c, 9, 46, 0
7, 106944, Note_on_c, 9, 46, 100
7, 106944, Note_on_c, 9, 38, 100
7, 106966, Note_off_c, 9, 38, 0
7, 106966, Note_off_c, 9, 46, 0
7, 107040, Note_on_c, 9, 46, 100
7, 107062, Note_off_c, 9, 46, 0
7, 107136, Note_on_c, 9, 46, 100
7, 107136, Note_on_c, 9, 35, 100
7, 107158, Note_off_c, 9, 35, 0
7, 107158, Note_off_c, 9, 46, 0
7, 107232, Note_on_c, 9, 46, 100
7, 107254, Note_off_c, 9, 46, 0
7, 107328, Note_on_c, 9, 46, 100
7, 107328, Note_on_c, 9, 38, 100
7, 107350, Note_off_c, 9, 38, 0
7, 107350, Note_off_c, 9, 46, 0
7, 107424, Note_on_c, 9, 46, 100
7, 107446, Note_off_c, 9, 46, 0
7, 107520, Note_on_c, 9, 46, 100
7, 107520, Note_on_c, 9, 35, 100
7, 107542, Note_off_c, 9, 35, 0
7, 107542, Note_off_c, 9, 46, 0
7, 107616, Note_on_c, 9, 46, 100
7, 107638, Note_off_c, 9, 46, 0
7, 107712, Note_on_c, 9, 46, 100
7, 107712, Note_on_c, 9, 38, 100
7, 107734, Note_off_c, 9, 38, 0
7, 107734, Note_off_c, 9, 46, 0
7, 107808, Note_on_c, 9, 46, 100
7, 107830, Note_off_c, 9, 46, 0
7, 107904, Note_on_c, 9, 46, 100
7, 107904, Note_on_c, 9, 35, 100
7, 107926, Note_off_c, 9, 35, 0
7, 107926, Note_off_c, 9, 46, 0
7, 108000, Note_on_c, 9, 46, 100
7, 108022, Note_off_c, 9, 46, 0
7, 108096, Note_on_c, 9, 46, 100
7, 108096, Note_on_c, 9, 38, 100
7, 108118, Note_off_c, 9, 38, 0
7, 108118, Note_off_c, 9, 46, 0
7, 108192, Note_on_c, 9, 46, 100
7, 108214, Note_off_c, 9, 46, 0
7, 108288, Note_on_c, 9, 46, 100
7, 108288, Note_on_c, 9, 35, 100
7, 108310, Note_off_c, 9, 35, 0
7, 108310, Note_off_c, 9, 46, 0
7, 108384, Note_on_c, 9, 46, 100
7, 108406, Note_off_c, 9, 46, 0
7, 108480, Note_on_c, 9, 46, 100
7, 108480, Note_on_c, 9, 38, 100
7, 108502, Note_off_c, 9, 38, 0
7, 108502, Note_off_c, 9, 46, 0
7, 108576, Note_on_c, 9, 46, 100
7, 108598, Note_off_c, 9, 46, 0
7, 108672, Note_on_c, 9, 46, 100
7, 108672, Note_on_c, 9, 35, 100
7, 108694, Note_off_c, 9, 35, 0
7, 108694, Note_off_c, 9, 46, 0
7, 108768, Note_on_c, 9, 46, 100
7, 108790, Note_off_c, 9, 46, 0
7, 108864, Note_on_c, 9, 46, 100
7, 108864, Note_on_c, 9, 38, 100
7, 108886, Note_off_c, 9, 38, 0
7, 108886, Note_off_c, 9, 46, 0
7, 108960, Note_on_c, 9, 46, 100
7, 108982, Note_off_c, 9, 46, 0
7, 109056, Note_on_c, 9, 46, 100
7, 109056, Note_on_c, 9, 35, 100
7, 109078, Note_off_c, 9, 35, 0
7, 109078, Note_off_c, 9, 46, 0
7, 109152, Note_on_c, 9, 46, 100
7, 109174, Note_off_c, 9, 46, 0
7, 109248, Note_on_c, 9, 46, 100
7, 109248, Note_on_c, 9, 38, 100
7, 109270, Note_off_c, 9, 38, 0
7, 109270, Note_off_c, 9, 46, 0
7, 109344, Note_on_c, 9, 46, 100
7, 109366, Note_off_c, 9, 46, 0
7, 109440, Note_on_c, 9, 46, 100
7, 109440, Note_on_c, 9, 35, 100
7, 109462, Note_off_c, 9, 35, 0
7, 109462, Note_off_c, 9, 46, 0
7, 109536, Note_on_c, 9, 46, 100
7, 109558, Note_off_c, 9, 46, 0
7, 109632, Note_on_c, 9, 46, 100
7, 109632, Note_on_c, 9, 38, 100
7, 109654, Note_off_c, 9, 38, 0
7, 109654, Note_off_c, 9, 46, 0
7, 109728, Note_on_c, 9, 46, 100
7, 109750, Note_off_c, 9, 46, 0
7, 109824, Note_on_c, 9, 46, 100
7, 109824, Note_on_c, 9, 35, 100
7, 109846, Note_off_c, 9, 35, 0
7, 109846, Note_off_c, 9, 46, 0
7, 109920, Note_on_c, 9, 46, 100
7, 109942, Note_off_c, 9, 46, 0
7, 110016, Note_on_c, 9, 46, 100
7, 110016, Note_on_c, 9, 38, 100
7, 110038, Note_off_c, 9, 38, 0
7, 110038, Note_off_c, 9, 46, 0
7, 110112, Note_on_c, 9, 46, 100
7, 110134, Note_off_c, 9, 46, 0
7, 110208, Note_on_c, 9, 46, 100
7, 110208, Note_on_c, 9, 35, 100
7, 110230, Note_off_c, 9, 35, 0
7, 110230, Note_off_c, 9, 46, 0
7, 110304, Note_on_c, 9, 46, 100
7, 110326, Note_off_c, 9, 46, 0
7, 110400, Note_on_c, 9, 46, 100
7, 110400, Note_on_c, 9, 38, 100
7, 110422, Note_off_c, 9, 38, 0
7, 110422, Note_off_c, 9, 46, 0
7, 110496, Note_on_c, 9, 46, 100
7, 110518, Note_off_c, 9, 46, 0
7, 110592, Note_on_c, 9, 46, 100
7, 110592, Note_on_c, 9, 35, 100
7, 110614, Note_off_c, 9, 35, 0
7, 110614, Note_off_c, 9, 46, 0
7, 110688, Note_on_c, 9, 46, 100
7, 110710, Note_off_c, 9, 46, 0
7, 110784, Note_on_c, 9, 46, 100
7, 110784, Note_on_c, 9, 38, 100
7, 110806, Note_off_c, 9, 38, 0
7, 110806, Note_off_c, 9, 46, 0
7, 110880, Note_on_c, 9, 46, 100
7, 110902, Note_off_c, 9, 46, 0
7, 110976, Note_on_c, 9, 46, 100
7, 110976, Note_on_c, 9, 35, 100
7, 110998, Note_off_c, 9, 35, 0
7, 110998, Note_off_c, 9, 46, 0
7, 111072, Note_on_c, 9, 46, 100
7, 111094, Note_off_c, 9, 46, 0
7, 111168, Note_on_c, 9, 46, 100
7, 111168, Note_on_c, 9, 38, 100
7, 111190, Note_off_c, 9, 38, 0
7, 111190, Note_off_c, 9, 46, 0
7, 111264, Note_on_c, 9, 46, 100
7, 111286, Note_off_c, 9, 46, 0
7, 111360, Note_on_c, 9, 35, 100
7, 111360, Note_on_c, 9, 46, 100
7, 111382, Note_off_c, 9, 46, 0
7, 111382, Note_off_c, 9, 35, 0
7, 111456, Note_on_c, 9, 46, 100
7, 111478, Note_off_c, 9, 46, 0
7, 111552, Note_on_c, 9, 38, 100
7, 111552, Note_on_c, 9, 46, 100
7, 111574, Note_off_c, 9, 46, 0
7, 111574, Note_off_c, 9, 38, 0
7, 111648, Note_on_c, 9, 46, 100
7, 111670, Note_off_c, 9, 46, 0
7, 111744, Note_on_c, 9, 35, 100
7, 111766, Note_off_c, 9, 35, 0
7, 111840, Note_on_c, 9, 38, 100
7, 111862, Note_off_c, 9, 38, 0
7, 111888, Note_on_c, 9, 38, 100
7, 111888, Note_on_c, 9, 38, 100
7, 111910, Note_off_c, 9, 38, 0
7, 111910, Note_off_c, 9, 38, 0
7, 111936, Note_on_c, 9, 38, 100
7, 111958, Note_off_c, 9, 38, 0
7, 112128, Note_on_c, 9, 46, 100
7, 112128, Note_on_c, 9, 35, 100
7, 112150, Note_off_c, 9, 35, 0
7, 112150, Note_off_c, 9, 46, 0
7, 112224, Note_on_c, 9, 46, 100
7, 112246, Note_off_c, 9, 46, 0
7, 112320, Note_on_c, 9, 46, 100
7, 112320, Note_on_c, 9, 38, 100
7, 112342, Note_off_c, 9, 38, 0
7, 112342, Note_off_c, 9, 46, 0
7, 112416, Note_on_c, 9, 46, 100
7, 112438, Note_off_c, 9, 46, 0
7, 112512, Note_on_c, 9, 46, 100
7, 112512, Note_on_c, 9, 35, 100
7, 112534, Note_off_c, 9, 35, 0
7, 112534, Note_off_c, 9, 46, 0
7, 112608, Note_on_c, 9, 46, 100
7, 112630, Note_off_c, 9, 46, 0
7, 112704, Note_on_c, 9, 46, 100
7, 112704, Note_on_c, 9, 38, 100
7, 112726, Note_off_c, 9, 38, 0
7, 112726, Note_off_c, 9, 46, 0
7, 112800, Note_on_c, 9, 46, 100
7, 112822, Note_off_c, 9, 46, 0
7, 112896, Note_on_c, 9, 46, 100
7, 112896, Note_on_c, 9, 35, 100
7, 112918, Note_off_c, 9, 35, 0
7, 112918, Note_off_c, 9, 46, 0
7, 112992, Note_on_c, 9, 46, 100
7, 113014, Note_off_c, 9, 46, 0
7, 113088, Note_on_c, 9, 46, 100
7, 113088, Note_on_c, 9, 38, 100
7, 113110, Note_off_c, 9, 38, 0
7, 113110, Note_off_c, 9, 46, 0
7, 113184, Note_on_c, 9, 46, 100
7, 113206, Note_off_c, 9, 46, 0
7, 113280, Note_on_c, 9, 46, 100
7, 113280, Note_on_c, 9, 35, 100
7, 113302, Note_off_c, 9, 35, 0
7, 113302, Note_off_c, 9, 46, 0
7, 113376, Note_on_c, 9, 46, 100
7, 113398, Note_off_c, 9, 46, 0
7, 113472, Note_on_c, 9, 46, 100
7, 113472, Note_on_c, 9, 38, 100
7, 113494, Note_off_c, 9, 38, 0
7, 113494, Note_off_c, 9, 46, 0
7, 113568, Note_on_c, 9, 46, 100
7, 113590, Note_off_c, 9, 46, 0
7, 113664, Note_on_c, 9, 46, 100
7, 113664, Note_on_c, 9, 35, 100
7, 113686, Note_off_c, 9, 35, 0
7, 113686, Note_off_c, 9, 46, 0
7, 113760, Note_on_c, 9, 46, 100
7, 113782, Note_off_c, 9, 46, 0
7, 113856, Note_on_c, 9, 46, 100
7, 113856, Note_on_c, 9, 38, 100
7, 113878, Note_off_c, 9, 38, 0
7, 113878, Note_off_c, 9, 46, 0
7, 113952, Note_on_c, 9, 46, 100
7, 113974, Note_off_c, 9, 46, 0
7, 114048, Note_on_c, 9, 46, 100
7, 114048, Note_on_c, 9, 35, 100
7, 114070, Note_off_c, 9, 35, 0
7, 114070, Note_off_c, 9, 46, 0
7, 114144, Note_on_c, 9, 46, 100
7, 114166, Note_off_c, 9, 46, 0
7, 114240, Note_on_c, 9, 46, 100
7, 114240, Note_on_c, 9, 38, 100
7, 114262, Note_off_c, 9, 38, 0
7, 114262, Note_off_c, 9, 46, 0
7, 114336, Note_on_c, 9, 46, 100
7, 114358, Note_off_c, 9, 46, 0
7, 114432, Note_on_c, 9, 46, 100
7, 114432, Note_on_c, 9, 35, 100
7, 114454, Note_off_c, 9, 35, 0
7, 114454, Note_off_c, 9, 46, 0
7, 114528, Note_on_c, 9, 46, 100
7, 114550, Note_off_c, 9, 46, 0
7, 114624, Note_on_c, 9, 46, 100
7, 114624, Note_on_c, 9, 38, 100
7, 114646, Note_off_c, 9, 38, 0
7, 114646, Note_off_c, 9, 46, 0
7, 114720, Note_on_c, 9, 46, 100
7, 114742, Note_off_c, 9, 46, 0
7, 114816, Note_on_c, 9, 46, 100
7, 114816, Note_on_c, 9, 35, 100
7, 114838, Note_off_c, 9, 35, 0
7, 114838, Note_off_c, 9, 46, 0
7, 114912, Note_on_c, 9, 46, 100
7, 114934, Note_off_c, 9, 46, 0
7, 115008, Note_on_c, 9, 46, 100
7, 115008, Note_on_c, 9, 38, 100
7, 115030, Note_off_c, 9, 38, 0
7, 115030, Note_off_c, 9, 46, 0
7, 115104, Note_on_c, 9, 46, 100
7, 115126, Note_off_c, 9, 46, 0
7, 115200, Note_on_c, 9, 46, 100
7, 115200, Note_on_c, 9, 35, 100
7, 115222, Note_off_c, 9, 35, 0
7, 115222, Note_off_c, 9, 46, 0
7, 115296, Note_on_c, 9, 46, 100
7, 115318, Note_off_c, 9, 46, 0
7, 115392, Note_on_c, 9, 46, 100
7, 115392, Note_on_c, 9, 38, 100
7, 115414, Note_off_c, 9, 38, 0
7, 115414, Note_off_c, 9, 46, 0
7, 115488, Note_on_c, 9, 46, 100
7, 115510, Note_off_c, 9, 46, 0
7, 115584, Note_on_c, 9, 46, 100
7, 115584, Note_on_c, 9, 35, 100
7, 115606, Note_off_c, 9, 35, 0
7, 115606, Note_off_c, 9, 46, 0
7, 115680, Note_on_c, 9, 46, 100
7, 115702, Note_off_c, 9, 46, 0
7, 115776, Note_on_c, 9, 46, 100
7, 115776, Note_on_c, 9, 38, 100
7, 115798, Note_off_c, 9, 38, 0
7, 115798, Note_off_c, 9, 46, 0
7, 115872, Note_on_c, 9, 46, 100
7, 115894, Note_off_c, 9, 46, 0
7, 115968, Note_on_c, 9, 46, 100
7, 115968, Note_on_c, 9, 35, 100
7, 115990, Note_off_c, 9, 35, 0
7, 115990, Note_off_c, 9, 46, 0
7, 116064, Note_on_c, 9, 46, 100
7, 116086, Note_off_c, 9, 46, 0
7, 116160, Note_on_c, 9, 46, 100
7, 116160, Note_on_c, 9, 38, 100
7, 116182, Note_off_c, 9, 38, 0
7, 116182, Note_off_c, 9, 46, 0
7, 116256, Note_on_c, 9, 46, 100
7, 116278, Note_off_c, 9, 46, 0
7, 116352, Note_on_c, 9, 46, 100
7, 116352, Note_on_c, 9, 35, 100
7, 116374, Note_off_c, 9, 35, 0
7, 116374, Note_off_c, 9, 46, 0
7, 116448, Note_on_c, 9, 46, 100
7, 116470, Note_off_c, 9, 46, 0
7, 116544, Note_on_c, 9, 46, 100
7, 116544, Note_on_c, 9, 38, 100
7, 116566, Note_off_c, 9, 38, 0
7, 116566, Note_off_c, 9, 46, 0
7, 116640, Note_on_c, 9, 46, 100
7, 116662, Note_off_c, 9, 46, 0
7, 116736, Note_on_c, 9, 46, 100
7, 116736, Note_on_c, 9, 35, 100
7, 116758, Note_off_c, 9, 35, 0
7, 116758, Note_off_c, 9, 46, 0
7, 116832, Note_on_c, 9, 46, 100
7, 116854, Note_off_c, 9, 46, 0
7, 116928, Note_on_c, 9, 46, 100
7, 116928, Note_on_c, 9, 38, 100
7, 116950, Note_off_c, 9, 38, 0
7, 116950, Note_off_c, 9, 46, 0
7, 117024, Note_on_c, 9, 46, 100
7, 117046, Note_off_c, 9, 46, 0
7, 117120, Note_on_c, 9, 46, 100
7, 117120, Note_on_c, 9, 35, 100
7, 117142, Note_off_c, 9, 35, 0
7, 117142, Note_off_c, 9, 46, 0
7, 117216, Note_on_c, 9, 46, 100
7, 117238, Note_off_c, 9, 46, 0
7, 117312, Note_on_c, 9, 46, 100
7, 117312, Note_on_c, 9, 38, 100
7, 117334, Note_off_c, 9, 38, 0
7, 117334, Note_off_c, 9, 46, 0
7, 117408, Note_on_c, 9, 46, 100
7, 117430, Note_off_c, 9, 46, 0
7, 117504, Note_on_c, 9, 46, 100
7, 117504, Note_on_c, 9, 35, 100
7, 117526, Note_off_c, 9, 35, 0
7, 117526, Note_off_c, 9, 46, 0
7, 117600, Note_on_c, 9, 46, 100
7, 117622, Note_off_c, 9, 46, 0
7, 117696, Note_on_c, 9, 46, 100
7, 117696, Note_on_c, 9, 38, 100
7, 117718, Note_off_c, 9, 38, 0
7, 117718, Note_off_c, 9, 46, 0
7, 117792, Note_on_c, 9, 46, 100
7, 117814, Note_off_c, 9, 46, 0
7, 117888, Note_on_c, 9, 46, 100
7, 117888, Note_on_c, 9, 35, 100
7, 117910, Note_off_c, 9, 35, 0
7, 117910, Note_off_c, 9, 46, 0
7, 117984, Note_on_c, 9, 46, 100
7, 118006, Note_off_c, 9, 46, 0
7, 118080, Note_on_c, 9, 46, 100
7, 118080, Note_on_c, 9, 38, 100
7, 118102, Note_off_c, 9, 38, 0
7, 118102, Note_off_c, 9, 46, 0
7, 118176, Note_on_c, 9, 46, 100
7, 118198, Note_off_c, 9, 46, 0
7, 118272, Note_on_c, 9, 46, 100
7, 118272, Note_on_c, 9, 35, 100
7, 118294, Note_off_c, 9, 35, 0
7, 118294, Note_off_c, 9, 46, 0
7, 118368, Note_on_c, 9, 46, 100
7, 118390, Note_off_c, 9, 46, 0
7, 118464, Note_on_c, 9, 46, 100
7, 118464, Note_on_c, 9, 38, 100
7, 118486, Note_off_c, 9, 38, 0
7, 118486, Note_off_c, 9, 46, 0
7, 118560, Note_on_c, 9, 46, 100
7, 118582, Note_off_c, 9, 46, 0
7, 118656, Note_on_c, 9, 46, 100
7, 118656, Note_on_c, 9, 35, 100
7, 118678, Note_off_c, 9, 35, 0
7, 118678, Note_off_c, 9, 46, 0
7, 118752, Note_on_c, 9, 46, 100
7, 118774, Note_off_c, 9, 46, 0
7, 118848, Note_on_c, 9, 46, 100
7, 118848, Note_on_c, 9, 38, 100
7, 118870, Note_off_c, 9, 38, 0
7, 118870, Note_off_c, 9, 46, 0
7, 118944, Note_on_c, 9, 46, 100
7, 118966, Note_off_c, 9, 46, 0
7, 119040, Note_on_c, 9, 46, 100
7, 119040, Note_on_c, 9, 35, 100
7, 119062, Note_off_c, 9, 35, 0
7, 119062, Note_off_c, 9, 46, 0
7, 119136, Note_on_c, 9, 46, 100
7, 119158, Note_off_c, 9, 46, 0
7, 119232, Note_on_c, 9, 38, 100
7, 119254, Note_off_c, 9, 38, 0
7, 119328, Note_on_c, 9, 38, 100
7, 119350, Note_off_c, 9, 38, 0
7, 119376, Note_on_c, 9, 38, 100
7, 119398, Note_off_c, 9, 38, 0
7, 119424, Note_on_c, 9, 38, 100
7, 119446, Note_off_c, 9, 38, 0
7, 119520, Note_on_c, 9, 45, 100
7, 119542, Note_off_c, 9, 45, 0
7, 119616, Note_on_c, 9, 45, 100
7, 119638, Note_off_c, 9, 45, 0
7, 119712, Note_on_c, 9, 35, 100
7, 119734, Note_off_c, 9, 35, 0
7, 119808, Note_on_c, 9, 35, 100
7, 119808, Note_on_c, 9, 57, 100
7, 119830, Note_off_c, 9, 57, 0
7, 119830, Note_off_c, 9, 35, 0
7, 120000, Note_on_c, 9, 38, 100
7, 120000, Note_on_c, 9, 46, 100
7, 120022, Note_off_c, 9, 46, 0
7, 120022, Note_off_c, 9, 38, 0
7, 120096, Note_on_c, 9, 46, 100
7, 120118, Note_off_c, 9, 46, 0
7, 120192, Note_on_c, 9, 35, 100
7, 120192, Note_on_c, 9, 46, 100
7, 120214, Note_off_c, 9, 46, 0
7, 120214, Note_off_c, 9, 35, 0
7, 120288, Note_on_c, 9, 46, 100
7, 120310, Note_off_c, 9, 46, 0
7, 120384, Note_on_c, 9, 38, 100
7, 120384, Note_on_c, 9, 46, 100
7, 120406, Note_off_c, 9, 46, 0
7, 120406, Note_off_c, 9, 38, 0
7, 120480, Note_on_c, 9, 46, 100
7, 120502, Note_off_c, 9, 46, 0
7, 120576, Note_on_c, 9, 46, 100
7, 120576, Note_on_c, 9, 35, 100
7, 120598, Note_off_c, 9, 35, 0
7, 120598, Note_off_c, 9, 46, 0
7, 120672, Note_on_c, 9, 46, 100
7, 120694, Note_off_c, 9, 46, 0
7, 120768, Note_on_c, 9, 46, 100
7, 120768, Note_on_c, 9, 38, 100
7, 120790, Note_off_c, 9, 38, 0
7, 120790, Note_off_c, 9, 46, 0
7, 120864, Note_on_c, 9, 46, 100
7, 120886, Note_off_c, 9, 46, 0
7, 120960, Note_on_c, 9, 46, 100
7, 120960, Note_on_c, 9, 35, 100
7, 120982, Note_off_c, 9, 35, 0
7, 120982, Note_off_c, 9, 46, 0
7, 121056, Note_on_c, 9, 46, 100
7, 121078, Note_off_c, 9, 46, 0
7, 121152, Note_on_c, 9, 46, 100
7, 121152, Note_on_c, 9, 38, 100
7, 121174, Note_off_c, 9, 38, 0
7, 121174, Note_off_c, 9, 46, 0
7, 121248, Note_on_c, 9, 46, 100
7, 121270, Note_off_c, 9, 46, 0
7, 121344, Note_on_c, 9, 46, 100
7, 121344, Note_on_c, 9, 35, 100
7, 121366, Note_off_c, 9, 35, 0
7, 121366, Note_off_c, 9, 46, 0
7, 121440, Note_on_c, 9, 46, 100
7, 121462, Note_off_c, 9, 46, 0
7, 121536, Note_on_c, 9, 46, 100
7, 121536, Note_on_c, 9, 38, 100
7, 121558, Note_off_c, 9, 38, 0
7, 121558, Note_off_c, 9, 46, 0
7, 121632, Note_on_c, 9, 46, 100
7, 121654, Note_off_c, 9, 46, 0
7, 121728, Note_on_c, 9, 46, 100
7, 121728, Note_on_c, 9, 35, 100
7, 121750, Note_off_c, 9, 35, 0
7, 121750, Note_off_c, 9, 46, 0
7, 121824, Note_on_c, 9, 46, 100
7, 121846, Note_off_c, 9, 46, 0
7, 121920, Note_on_c, 9, 46, 100
7, 121920, Note_on_c, 9, 38, 100
7, 121942, Note_off_c, 9, 38, 0
7, 121942, Note_off_c, 9, 46, 0
7, 122016, Note_on_c, 9, 46, 100
7, 122038, Note_off_c, 9, 46, 0
7, 122112, Note_on_c, 9, 46, 100
7, 122112, Note_on_c, 9, 35, 100
7, 122134, Note_off_c, 9, 35, 0
7, 122134, Note_off_c, 9, 46, 0
7, 122208, Note_on_c, 9, 46, 100
7, 122230, Note_off_c, 9, 46, 0
7, 122304, Note_on_c, 9, 46, 100
7, 122304, Note_on_c, 9, 38, 100
7, 122326, Note_off_c, 9, 38, 0
7, 122326, Note_off_c, 9, 46, 0
7, 122400, Note_on_c, 9, 46, 100
7, 122422, Note_off_c, 9, 46, 0
7, 122496, Note_on_c, 9, 46, 100
7, 122496, Note_on_c, 9, 35, 100
7, 122518, Note_off_c, 9, 35, 0
7, 122518, Note_off_c, 9, 46, 0
7, 122592, Note_on_c, 9, 46, 100
7, 122614, Note_off_c, 9, 46, 0
7, 122688, Note_on_c, 9, 46, 100
7, 122688, Note_on_c, 9, 38, 100
7, 122710, Note_off_c, 9, 38, 0
7, 122710, Note_off_c, 9, 46, 0
7, 122784, Note_on_c, 9, 46, 100
7, 122806, Note_off_c, 9, 46, 0
7, 122880, Note_on_c, 9, 46, 100
7, 122880, Note_on_c, 9, 35, 100
7, 122902, Note_off_c, 9, 35, 0
7, 122902, Note_off_c, 9, 46, 0
7, 122976, Note_on_c, 9, 46, 100
7, 122998, Note_off_c, 9, 46, 0
7, 123072, Note_on_c, 9, 46, 100
7, 123072, Note_on_c, 9, 38, 100
7, 123094, Note_off_c, 9, 38, 0
7, 123094, Note_off_c, 9, 46, 0
7, 123168, Note_on_c, 9, 46, 100
7, 123190, Note_off_c, 9, 46, 0
7, 123264, Note_on_c, 9, 46, 100
7, 123264, Note_on_c, 9, 35, 100
7, 123286, Note_off_c, 9, 35, 0
7, 123286, Note_off_c, 9, 46, 0
7, 123360, Note_on_c, 9, 46, 100
7, 123382, Note_off_c, 9, 46, 0
7, 123456, Note_on_c, 9, 46, 100
7, 123456, Note_on_c, 9, 38, 100
7, 123478, Note_off_c, 9, 38, 0
7, 123478, Note_off_c, 9, 46, 0
7, 123552, Note_on_c, 9, 46, 100
7, 123574, Note_off_c, 9, 46, 0
7, 123648, Note_on_c, 9, 46, 100
7, 123648, Note_on_c, 9, 35, 100
7, 123670, Note_off_c, 9, 35, 0
7, 123670, Note_off_c, 9, 46, 0
7, 123744, Note_on_c, 9, 46, 100
7, 123766, Note_off_c, 9, 46, 0
7, 123840, Note_on_c, 9, 46, 100
7, 123840, Note_on_c, 9, 38, 100
7, 123862, Note_off_c, 9, 38, 0
7, 123862, Note_off_c, 9, 46, 0
7, 123936, Note_on_c, 9, 46, 100
7, 123958, Note_off_c, 9, 46, 0
7, 124032, Note_on_c, 9, 46, 100
7, 124032, Note_on_c, 9, 35, 100
7, 124054, Note_off_c, 9, 35, 0
7, 124054, Note_off_c, 9, 46, 0
7, 124128, Note_on_c, 9, 46, 100
7, 124150, Note_off_c, 9, 46, 0
7, 124224, Note_on_c, 9, 46, 100
7, 124224, Note_on_c, 9, 38, 100
7, 124246, Note_off_c, 9, 38, 0
7, 124246, Note_off_c, 9, 46, 0
7, 124320, Note_on_c, 9, 46, 100
7, 124342, Note_off_c, 9, 46, 0
7, 124416, Note_on_c, 9, 35, 100
7, 124416, Note_on_c, 9, 46, 100
7, 124438, Note_off_c, 9, 46, 0
7, 124438, Note_off_c, 9, 35, 0
7, 124704, Note_on_c, 9, 38, 100
7, 124704, Note_on_c, 9, 49, 100
7, 124704, Note_on_c, 9, 35, 100
7, 124726, Note_off_c, 9, 35, 0
7, 124726, Note_off_c, 9, 49, 0
7, 124726, Note_off_c, 9, 38, 0
7, 124896, Note_on_c, 9, 38, 100
7, 124896, Note_on_c, 9, 57, 100
7, 124918, Note_off_c, 9, 57, 0
7, 124918, Note_off_c, 9, 38, 0
7, 124992, Note_on_c, 9, 38, 100
7, 124992, Note_on_c, 9, 35, 100
7, 124992, Note_on_c, 9, 49, 100
7, 125014, Note_off_c, 9, 49, 0
7, 125014, Note_off_c, 9, 35, 0
7, 125014, Note_off_c, 9, 38, 0
7, 125184, Note_on_c, 9, 35, 100
7, 125206, Note_off_c, 9, 35, 0
7, 125280, Note_on_c, 9, 47, 100
7, 125302, Note_off_c, 9, 47, 0
7, 125376, Note_on_c, 9, 47, 100
7, 125398, Note_off_c, 9, 47, 0
7, 125472, Note_on_c, 9, 45, 100
7, 125494, Note_off_c, 9, 45, 0
7, 125568, Note_on_c, 9, 45, 100
7, 125590, Note_off_c, 9, 45, 0
7, 125664, Note_on_c, 9, 43, 100
7, 125686, Note_off_c, 9, 43, 0
7, 125760, Note_on_c, 9, 43, 100
7, 125782, Note_off_c, 9, 43, 0
7, 125856, Note_on_c, 9, 35, 100
7, 125856, Note_on_c, 9, 41, 100
7, 125878, Note_off_c, 9, 41, 0
7, 125878, Note_off_c, 9, 35, 0
7, 125952, Note_on_c, 9, 46, 100
7, 125952, Note_on_c, 9, 35, 100
7, 125974, Note_off_c, 9, 35, 0
7, 125974, Note_off_c, 9, 46, 0
7, 126048, Note_on_c, 9, 46, 100
7, 126070, Note_off_c, 9, 46, 0
7, 126144, Note_on_c, 9, 46, 100
7, 126144, Note_on_c, 9, 38, 100
7, 126166, Note_off_c, 9, 38, 0
7, 126166, Note_off_c, 9, 46, 0
7, 126240, Note_on_c, 9, 46, 100
7, 126262, Note_off_c, 9, 46, 0
7, 126336, Note_on_c, 9, 46, 100
7, 126336, Note_on_c, 9, 35, 100
7, 126358, Note_off_c, 9, 35, 0
7, 126358, Note_off_c, 9, 46, 0
7, 126432, Note_on_c, 9, 46, 100
7, 126454, Note_off_c, 9, 46, 0
7, 126528, Note_on_c, 9, 46, 100
7, 126528, Note_on_c, 9, 38, 100
7, 126550, Note_off_c, 9, 38, 0
7, 126550, Note_off_c, 9, 46, 0
7, 126624, Note_on_c, 9, 46, 100
7, 126646, Note_off_c, 9, 46, 0
7, 126720, Note_on_c, 9, 46, 100
7, 126720, Note_on_c, 9, 35, 100
7, 126742, Note_off_c, 9, 35, 0
7, 126742, Note_off_c, 9, 46, 0
7, 126816, Note_on_c, 9, 46, 100
7, 126838, Note_off_c, 9, 46, 0
7, 126912, Note_on_c, 9, 46, 100
7, 126912, Note_on_c, 9, 38, 100
7, 126934, Note_off_c, 9, 38, 0
7, 126934, Note_off_c, 9, 46, 0
7, 127008, Note_on_c, 9, 46, 100
7, 127030, Note_off_c, 9, 46, 0
7, 127104, Note_on_c, 9, 46, 100
7, 127104, Note_on_c, 9, 35, 100
7, 127126, Note_off_c, 9, 35, 0
7, 127126, Note_off_c, 9, 46, 0
7, 127200, Note_on_c, 9, 46, 100
7, 127222, Note_off_c, 9, 46, 0
7, 127296, Note_on_c, 9, 46, 100
7, 127296, Note_on_c, 9, 38, 100
7, 127318, Note_off_c, 9, 38, 0
7, 127318, Note_off_c, 9, 46, 0
7, 127392, Note_on_c, 9, 46, 100
7, 127414, Note_off_c, 9, 46, 0
7, 127488, Note_on_c, 9, 46, 100
7, 127488, Note_on_c, 9, 35, 100
7, 127510, Note_off_c, 9, 35, 0
7, 127510, Note_off_c, 9, 46, 0
7, 127584, Note_on_c, 9, 46, 100
7, 127606, Note_off_c, 9, 46, 0
7, 127680, Note_on_c, 9, 46, 100
7, 127680, Note_on_c, 9, 38, 100
7, 127702, Note_off_c, 9, 38, 0
7, 127702, Note_off_c, 9, 46, 0
7, 127776, Note_on_c, 9, 46, 100
7, 127798, Note_off_c, 9, 46, 0
7, 127872, Note_on_c, 9, 46, 100
7, 127872, Note_on_c, 9, 35, 100
7, 127894, Note_off_c, 9, 35, 0
7, 127894, Note_off_c, 9, 46, 0
7, 127968, Note_on_c, 9, 46, 100
7, 127990, Note_off_c, 9, 46, 0
7, 128064, Note_on_c, 9, 46, 100
7, 128064, Note_on_c, 9, 38, 100
7, 128086, Note_off_c, 9, 38, 0
7, 128086, Note_off_c, 9, 46, 0
7, 128160, Note_on_c, 9, 46, 100
7, 128182, Note_off_c, 9, 46, 0
7, 128256, Note_on_c, 9, 46, 100
7, 128256, Note_on_c, 9, 35, 100
7, 128278, Note_off_c, 9, 35, 0
7, 128278, Note_off_c, 9, 46, 0
7, 128352, Note_on_c, 9, 46, 100
7, 128374, Note_off_c, 9, 46, 0
7, 128448, Note_on_c, 9, 46, 100
7, 128448, Note_on_c, 9, 38, 100
7, 128470, Note_off_c, 9, 38, 0
7, 128470, Note_off_c, 9, 46, 0
7, 128544, Note_on_c, 9, 46, 100
7, 128566, Note_off_c, 9, 46, 0
7, 128640, Note_on_c, 9, 46, 100
7, 128640, Note_on_c, 9, 35, 100
7, 128662, Note_off_c, 9, 35, 0
7, 128662, Note_off_c, 9, 46, 0
7, 128736, Note_on_c, 9, 46, 100
7, 128758, Note_off_c, 9, 46, 0
7, 128832, Note_on_c, 9, 46, 100
7, 128832, Note_on_c, 9, 38, 100
7, 128854, Note_off_c, 9, 38, 0
7, 128854, Note_off_c, 9, 46, 0
7, 128928, Note_on_c, 9, 46, 100
7, 128950, Note_off_c, 9, 46, 0
7, 129024, Note_on_c, 9, 46, 100
7, 129024, Note_on_c, 9, 35, 100
7, 129046, Note_off_c, 9, 35, 0
7, 129046, Note_off_c, 9, 46, 0
7, 129120, Note_on_c, 9, 46, 100
7, 129142, Note_off_c, 9, 46, 0
7, 129216, Note_on_c, 9, 46, 100
7, 129216, Note_on_c, 9, 38, 100
7, 129238, Note_off_c, 9, 38, 0
7, 129238, Note_off_c, 9, 46, 0
7, 129312, Note_on_c, 9, 46, 100
7, 129334, Note_off_c, 9, 46, 0
7, 129408, Note_on_c, 9, 46, 100
7, 129408, Note_on_c, 9, 35, 100
7, 129430, Note_off_c, 9, 35, 0
7, 129430, Note_off_c, 9, 46, 0
7, 129504, Note_on_c, 9, 46, 100
7, 129526, Note_off_c, 9, 46, 0
7, 129600, Note_on_c, 9, 46, 100
7, 129600, Note_on_c, 9, 38, 100
7, 129622, Note_off_c, 9, 38, 0
7, 129622, Note_off_c, 9, 46, 0
7, 129696, Note_on_c, 9, 46, 100
7, 129718, Note_off_c, 9, 46, 0
7, 129792, Note_on_c, 9, 46, 100
7, 129792, Note_on_c, 9, 35, 100
7, 129814, Note_off_c, 9, 35, 0
7, 129814, Note_off_c, 9, 46, 0
7, 129888, Note_on_c, 9, 46, 100
7, 129910, Note_off_c, 9, 46, 0
7, 129984, Note_on_c, 9, 46, 100
7, 129984, Note_on_c, 9, 38, 100
7, 130006, Note_off_c, 9, 38, 0
7, 130006, Note_off_c, 9, 46, 0
7, 130080, Note_on_c, 9, 46, 100
7, 130102, Note_off_c, 9, 46, 0
7, 130176, Note_on_c, 9, 46, 100
7, 130176, Note_on_c, 9, 35, 100
7, 130198, Note_off_c, 9, 35, 0
7, 130198, Note_off_c, 9, 46, 0
7, 130272, Note_on_c, 9, 46, 100
7, 130294, Note_off_c, 9, 46, 0
7, 130368, Note_on_c, 9, 46, 100
7, 130368, Note_on_c, 9, 38, 100
7, 130390, Note_off_c, 9, 38, 0
7, 130390, Note_off_c, 9, 46, 0
7, 130464, Note_on_c, 9, 46, 100
7, 130486, Note_off_c, 9, 46, 0
7, 130560, Note_on_c, 9, 46, 100
7, 130560, Note_on_c, 9, 35, 100
7, 130582, Note_off_c, 9, 35, 0
7, 130582, Note_off_c, 9, 46, 0
7, 130656, Note_on_c, 9, 46, 100
7, 130678, Note_off_c, 9, 46, 0
7, 130752, Note_on_c, 9, 46, 100
7, 130752, Note_on_c, 9, 38, 100
7, 130774, Note_off_c, 9, 38, 0
7, 130774, Note_off_c, 9, 46, 0
7, 130848, Note_on_c, 9, 46, 100
7, 130870, Note_off_c, 9, 46, 0
7, 130944, Note_on_c, 9, 46, 100
7, 130944, Note_on_c, 9, 35, 100
7, 130966, Note_off_c, 9, 35, 0
7, 130966, Note_off_c, 9, 46, 0
7, 131040, Note_on_c, 9, 46, 100
7, 131062, Note_off_c, 9, 46, 0
7, 131136, Note_on_c, 9, 46, 100
7, 131136, Note_on_c, 9, 38, 100
7, 131158, Note_off_c, 9, 38, 0
7, 131158, Note_off_c, 9, 46, 0
7, 131232, Note_on_c, 9, 46, 100
7, 131254, Note_off_c, 9, 46, 0
7, 131328, Note_on_c, 9, 46, 100
7, 131328, Note_on_c, 9, 35, 100
7, 131350, Note_off_c, 9, 35, 0
7, 131350, Note_off_c, 9, 46, 0
7, 131424, Note_on_c, 9, 46, 100
7, 131446, Note_off_c, 9, 46, 0
7, 131520, Note_on_c, 9, 46, 100
7, 131520, Note_on_c, 9, 38, 100
7, 131542, Note_off_c, 9, 38, 0
7, 131542, Note_off_c, 9, 46, 0
7, 131616, Note_on_c, 9, 46, 100
7, 131638, Note_off_c, 9, 46, 0
7, 131712, Note_on_c, 9, 46, 100
7, 131712, Note_on_c, 9, 35, 100
7, 131734, Note_off_c, 9, 35, 0
7, 131734, Note_off_c, 9, 46, 0
7, 131808, Note_on_c, 9, 46, 100
7, 131830, Note_off_c, 9, 46, 0
7, 131904, Note_on_c, 9, 46, 100
7, 131904, Note_on_c, 9, 38, 100
7, 131926, Note_off_c, 9, 38, 0
7, 131926, Note_off_c, 9, 46, 0
7, 132000, Note_on_c, 9, 46, 100
7, 132022, Note_off_c, 9, 46, 0
7, 132096, Note_on_c, 9, 46, 100
7, 132096, Note_on_c, 9, 35, 100
7, 132118, Note_off_c, 9, 35, 0
7, 132118, Note_off_c, 9, 46, 0
7, 132192, Note_on_c, 9, 46, 100
7, 132214, Note_off_c, 9, 46, 0
7, 132288, Note_on_c, 9, 46, 100
7, 132288, Note_on_c, 9, 38, 100
7, 132310, Note_off_c, 9, 38, 0
7, 132310, Note_off_c, 9, 46, 0
7, 132384, Note_on_c, 9, 46, 100
7, 132406, Note_off_c, 9, 46, 0
7, 132480, Note_on_c, 9, 46, 100
7, 132480, Note_on_c, 9, 35, 100
7, 132502, Note_off_c, 9, 35, 0
7, 132502, Note_off_c, 9, 46, 0
7, 132576, Note_on_c, 9, 46, 100
7, 132598, Note_off_c, 9, 46, 0
7, 132672, Note_on_c, 9, 46, 100
7, 132672, Note_on_c, 9, 38, 100
7, 132694, Note_off_c, 9, 38, 0
7, 132694, Note_off_c, 9, 46, 0
7, 132768, Note_on_c, 9, 46, 100
7, 132790, Note_off_c, 9, 46, 0
7, 132864, Note_on_c, 9, 46, 100
7, 132864, Note_on_c, 9, 35, 100
7, 132886, Note_off_c, 9, 35, 0
7, 132886, Note_off_c, 9, 46, 0
7, 132960, Note_on_c, 9, 46, 100
7, 132982, Note_off_c, 9, 46, 0
7, 133056, Note_on_c, 9, 46, 100
7, 133056, Note_on_c, 9, 38, 100
7, 133078, Note_off_c, 9, 38, 0
7, 133078, Note_off_c, 9, 46, 0
7, 133152, Note_on_c, 9, 46, 100
7, 133174, Note_off_c, 9, 46, 0
7, 133248, Note_on_c, 9, 46, 100
7, 133248, Note_on_c, 9, 35, 100
7, 133270, Note_off_c, 9, 35, 0
7, 133270, Note_off_c, 9, 46, 0
7, 133344, Note_on_c, 9, 46, 100
7, 133366, Note_off_c, 9, 46, 0
7, 133440, Note_on_c, 9, 46, 100
7, 133440, Note_on_c, 9, 38, 100
7, 133462, Note_off_c, 9, 38, 0
7, 133462, Note_off_c, 9, 46, 0
7, 133536, Note_on_c, 9, 46, 100
7, 133558, Note_off_c, 9, 46, 0
7, 133632, Note_on_c, 9, 46, 100
7, 133632, Note_on_c, 9, 38, 100
7, 133632, Note_on_c, 9, 35, 100
7, 133654, Note_off_c, 9, 35, 0
7, 133654, Note_off_c, 9, 38, 0
7, 133654, Note_off_c, 9, 46, 0
7, 133680, Note_on_c, 9, 44, 100
7, 133702, Note_off_c, 9, 44, 0
7, 150136, Note_on_c, 9, 38, 99
7, 150144, Note_on_c, 9, 38, 99
7, 150144, Note_on_c, 9, 38, 99
7, 150158, Note_off_c, 9, 38, 0
7, 150166, Note_off_c, 9, 38, 0
7, 150166, Note_off_c, 9, 38, 0
7, 150272, Note_on_c, 9, 38, 99
7, 150294, Note_off_c, 9, 38, 0
7, 150336, Note_on_c, 9, 45, 99
7, 150358, Note_off_c, 9, 45, 0
7, 150528, Note_on_c, 9, 45, 90
7, 150550, Note_off_c, 9, 45, 0
7, 150576, Note_on_c, 9, 45, 90
7, 150598, Note_off_c, 9, 45, 0
7, 150816, Note_on_c, 9, 45, 90
7, 150838, Note_off_c, 9, 45, 0
7, 150912, Note_on_c, 9, 45, 90
7, 150934, Note_off_c, 9, 45, 0
7, 151008, Note_on_c, 9, 45, 90
7, 151030, Note_off_c, 9, 45, 0
7, 151104, Note_on_c, 9, 45, 90
7, 151126, Note_off_c, 9, 45, 0
7, 151296, Note_on_c, 9, 35, 90
7, 151318, Note_off_c, 9, 35, 0
7, 151344, Note_on_c, 9, 45, 90
7, 151366, Note_off_c, 9, 45, 0
7, 151488, Note_on_c, 9, 35, 90
7, 151510, Note_off_c, 9, 35, 0
7, 151584, Note_on_c, 9, 35, 90
7, 151606, Note_off_c, 9, 35, 0
7, 151680, Note_on_c, 9, 51, 90
7, 151680, Note_on_c, 9, 35, 90
7, 151702, Note_off_c, 9, 35, 0
7, 151702, Note_off_c, 9, 51, 0
7, 151776, Note_on_c, 9, 35, 90
7, 151798, Note_off_c, 9, 35, 0
7, 151872, Note_on_c, 9, 35, 90
7, 151894, Note_off_c, 9, 35, 0
7, 151968, Note_on_c, 9, 35, 90
7, 151990, Note_off_c, 9, 35, 0
7, 152064, Note_on_c, 9, 35, 90
7, 152086, Note_off_c, 9, 35, 0
7, 152112, Note_on_c, 9, 45, 90
7, 152134, Note_off_c, 9, 45, 0
7, 152256, Note_on_c, 9, 35, 90
7, 152278, Note_off_c, 9, 35, 0
7, 152352, Note_on_c, 9, 35, 90
7, 152374, Note_off_c, 9, 35, 0
7, 152448, Note_on_c, 9, 51, 90
7, 152448, Note_on_c, 9, 35, 90
7, 152470, Note_off_c, 9, 35, 0
7, 152470, Note_off_c, 9, 51, 0
7, 152544, Note_on_c, 9, 35, 90
7, 152566, Note_off_c, 9, 35, 0
7, 152640, Note_on_c, 9, 35, 90
7, 152662, Note_off_c, 9, 35, 0
7, 152736, Note_on_c, 9, 35, 90
7, 152758, Note_off_c, 9, 35, 0
7, 152832, Note_on_c, 9, 35, 90
7, 152854, Note_off_c, 9, 35, 0
7, 152880, Note_on_c, 9, 45, 90
7, 152902, Note_off_c, 9, 45, 0
7, 153024, Note_on_c, 9, 35, 90
7, 153046, Note_off_c, 9, 35, 0
7, 153120, Note_on_c, 9, 35, 90
7, 153142, Note_off_c, 9, 35, 0
7, 153216, Note_on_c, 9, 51, 90
7, 153216, Note_on_c, 9, 35, 90
7, 153238, Note_off_c, 9, 35, 0
7, 153238, Note_off_c, 9, 51, 0
7, 153312, Note_on_c, 9, 35, 90
7, 153334, Note_off_c, 9, 35, 0
7, 153408, Note_on_c, 9, 35, 90
7, 153430, Note_off_c, 9, 35, 0
7, 153504, Note_on_c, 9, 35, 90
7, 153526, Note_off_c, 9, 35, 0
7, 153600, Note_on_c, 9, 35, 90
7, 153622, Note_off_c, 9, 35, 0
7, 153648, Note_on_c, 9, 45, 90
7, 153670, Note_off_c, 9, 45, 0
7, 153792, Note_on_c, 9, 35, 90
7, 153814, Note_off_c, 9, 35, 0
7, 153888, Note_on_c, 9, 35, 90
7, 153910, Note_off_c, 9, 35, 0
7, 153984, Note_on_c, 9, 51, 90
7, 153984, Note_on_c, 9, 35, 90
7, 154006, Note_off_c, 9, 35, 0
7, 154006, Note_off_c, 9, 51, 0
7, 154080, Note_on_c, 9, 35, 90
7, 154102, Note_off_c, 9, 35, 0
7, 154176, Note_on_c, 9, 35, 90
7, 154198, Note_off_c, 9, 35, 0
7, 154272, Note_on_c, 9, 35, 90
7, 154294, Note_off_c, 9, 35, 0
7, 154368, Note_on_c, 9, 35, 90
7, 154390, Note_off_c, 9, 35, 0
7, 154416, Note_on_c, 9, 45, 90
7, 154438, Note_off_c, 9, 45, 0
7, 154560, Note_on_c, 9, 35, 90
7, 154582, Note_off_c, 9, 35, 0
7, 154656, Note_on_c, 9, 35, 90
7, 154678, Note_off_c, 9, 35, 0
7, 154752, Note_on_c, 9, 51, 90
7, 154752, Note_on_c, 9, 35, 90
7, 154774, Note_off_c, 9, 35, 0
7, 154774, Note_off_c, 9, 51, 0
7, 154848, Note_on_c, 9, 35, 90
7, 154870, Note_off_c, 9, 35, 0
7, 154944, Note_on_c, 9, 35, 90
7, 154966, Note_off_c, 9, 35, 0
7, 155040, Note_on_c, 9, 35, 90
7, 155062, Note_off_c, 9, 35, 0
7, 155136, Note_on_c, 9, 35, 90
7, 155158, Note_off_c, 9, 35, 0
7, 155184, Note_on_c, 9, 45, 90
7, 155206, Note_off_c, 9, 45, 0
7, 155328, Note_on_c, 9, 35, 90
7, 155350, Note_off_c, 9, 35, 0
7, 155424, Note_on_c, 9, 35, 90
7, 155446, Note_off_c, 9, 35, 0
7, 155520, Note_on_c, 9, 51, 90
7, 155520, Note_on_c, 9, 35, 90
7, 155542, Note_off_c, 9, 35, 0
7, 155542, Note_off_c, 9, 51, 0
7, 155616, Note_on_c, 9, 35, 90
7, 155638, Note_off_c, 9, 35, 0
7, 155712, Note_on_c, 9, 35, 90
7, 155734, Note_off_c, 9, 35, 0
7, 155808, Note_on_c, 9, 35, 90
7, 155830, Note_off_c, 9, 35, 0
7, 155904, Note_on_c, 9, 45, 90
7, 155926, Note_off_c, 9, 45, 0
7, 155952, Note_on_c, 9, 47, 90
7, 155974, Note_off_c, 9, 47, 0
7, 156672, Note_on_c, 9, 35, 90
7, 156694, Note_off_c, 9, 35, 0
7, 156720, Note_on_c, 9, 45, 90
7, 156742, Note_off_c, 9, 45, 0
7, 156864, Note_on_c, 9, 35, 90
7, 156886, Note_off_c, 9, 35, 0
7, 156960, Note_on_c, 9, 35, 90
7, 156982, Note_off_c, 9, 35, 0
7, 157056, Note_on_c, 9, 51, 90
7, 157056, Note_on_c, 9, 35, 90
7, 157078, Note_off_c, 9, 35, 0
7, 157078, Note_off_c, 9, 51, 0
7, 157152, Note_on_c, 9, 35, 90
7, 157174, Note_off_c, 9, 35, 0
7, 157248, Note_on_c, 9, 35, 90
7, 157270, Note_off_c, 9, 35, 0
7, 157344, Note_on_c, 9, 35, 90
7, 157366, Note_off_c, 9, 35, 0
7, 157440, Note_on_c, 9, 35, 90
7, 157462, Note_off_c, 9, 35, 0
7, 157488, Note_on_c, 9, 45, 90
7, 157510, Note_off_c, 9, 45, 0
7, 157632, Note_on_c, 9, 35, 90
7, 157654, Note_off_c, 9, 35, 0
7, 157728, Note_on_c, 9, 35, 90
7, 157750, Note_off_c, 9, 35, 0
7, 157824, Note_on_c, 9, 51, 90
7, 157824, Note_on_c, 9, 35, 90
7, 157846, Note_off_c, 9, 35, 0
7, 157846, Note_off_c, 9, 51, 0
7, 157920, Note_on_c, 9, 35, 90
7, 157942, Note_off_c, 9, 35, 0
7, 158016, Note_on_c, 9, 35, 90
7, 158038, Note_off_c, 9, 35, 0
7, 158112, Note_on_c, 9, 35, 90
7, 158134, Note_off_c, 9, 35, 0
7, 158208, Note_on_c, 9, 35, 90
7, 158230, Note_off_c, 9, 35, 0
7, 158256, Note_on_c, 9, 45, 90
7, 158278, Note_off_c, 9, 45, 0
7, 158400, Note_on_c, 9, 35, 90
7, 158422, Note_off_c, 9, 35, 0
7, 158496, Note_on_c, 9, 35, 90
7, 158518, Note_off_c, 9, 35, 0
7, 158592, Note_on_c, 9, 51, 90
7, 158592, Note_on_c, 9, 35, 90
7, 158614, Note_off_c, 9, 35, 0
7, 158614, Note_off_c, 9, 51, 0
7, 158688, Note_on_c, 9, 35, 90
7, 158710, Note_off_c, 9, 35, 0
7, 158784, Note_on_c, 9, 35, 90
7, 158806, Note_off_c, 9, 35, 0
7, 158880, Note_on_c, 9, 35, 90
7, 158902, Note_off_c, 9, 35, 0
7, 158976, Note_on_c, 9, 35, 90
7, 158998, Note_off_c, 9, 35, 0
7, 159024, Note_on_c, 9, 45, 90
7, 159046, Note_off_c, 9, 45, 0
7, 159168, Note_on_c, 9, 35, 90
7, 159190, Note_off_c, 9, 35, 0
7, 159264, Note_on_c, 9, 35, 90
7, 159286, Note_off_c, 9, 35, 0
7, 159360, Note_on_c, 9, 51, 90
7, 159360, Note_on_c, 9, 35, 90
7, 159382, Note_off_c, 9, 35, 0
7, 159382, Note_off_c, 9, 51, 0
7, 159456, Note_on_c, 9, 35, 90
7, 159478, Note_off_c, 9, 35, 0
7, 159552, Note_on_c, 9, 35, 90
7, 159574, Note_off_c, 9, 35, 0
7, 159648, Note_on_c, 9, 35, 90
7, 159670, Note_off_c, 9, 35, 0
7, 159744, Note_on_c, 9, 35, 90
7, 159766, Note_off_c, 9, 35, 0
7, 159792, Note_on_c, 9, 45, 90
7, 159814, Note_off_c, 9, 45, 0
7, 159936, Note_on_c, 9, 35, 90
7, 159958, Note_off_c, 9, 35, 0
7, 160032, Note_on_c, 9, 35, 90
7, 160054, Note_off_c, 9, 35, 0
7, 160128, Note_on_c, 9, 51, 90
7, 160128, Note_on_c, 9, 35, 90
7, 160150, Note_off_c, 9, 35, 0
7, 160150, Note_off_c, 9, 51, 0
7, 160224, Note_on_c, 9, 35, 90
7, 160246, Note_off_c, 9, 35, 0
7, 160320, Note_on_c, 9, 35, 90
7, 160342, Note_off_c, 9, 35, 0
7, 160416, Note_on_c, 9, 35, 90
7, 160438, Note_off_c, 9, 35, 0
7, 160512, Note_on_c, 9, 35, 90
7, 160534, Note_off_c, 9, 35, 0
7, 160560, Note_on_c, 9, 45, 90
7, 160582, Note_off_c, 9, 45, 0
7, 160704, Note_on_c, 9, 35, 90
7, 160726, Note_off_c, 9, 35, 0
7, 160800, Note_on_c, 9, 35, 90
7, 160822, Note_off_c, 9, 35, 0
7, 160896, Note_on_c, 9, 51, 90
7, 160896, Note_on_c, 9, 35, 90
7, 160918, Note_off_c, 9, 35, 0
7, 160918, Note_off_c, 9, 51, 0
7, 160992, Note_on_c, 9, 35, 90
7, 161014, Note_off_c, 9, 35, 0
7, 161088, Note_on_c, 9, 35, 90
7, 161110, Note_off_c, 9, 35, 0
7, 161184, Note_on_c, 9, 35, 90
7, 161206, Note_off_c, 9, 35, 0
7, 161280, Note_on_c, 9, 45, 100
7, 161302, Note_off_c, 9, 45, 0
7, 161328, Note_on_c, 9, 45, 100
7, 161350, Note_off_c, 9, 45, 0
7, 161664, Note_on_c, 9, 45, 100
7, 161686, Note_off_c, 9, 45, 0
7, 161760, Note_on_c, 9, 45, 100
7, 161782, Note_off_c, 9, 45, 0
7, 161808, Note_on_c, 9, 45, 100
7, 161830, Note_off_c, 9, 45, 0
7, 161856, Note_on_c, 9, 38, 100
7, 161878, Note_off_c, 9, 38, 0
7, 162048, Note_on_c, 9, 35, 100
7, 162070, Note_off_c, 9, 35, 0
7, 162096, Note_on_c, 9, 45, 100
7, 162118, Note_off_c, 9, 45, 0
7, 162240, Note_on_c, 9, 35, 100
7, 162262, Note_off_c, 9, 35, 0
7, 162336, Note_on_c, 9, 35, 100
7, 162358, Note_off_c, 9, 35, 0
7, 162432, Note_on_c, 9, 51, 100
7, 162432, Note_on_c, 9, 35, 100
7, 162454, Note_off_c, 9, 35, 0
7, 162454, Note_off_c, 9, 51, 0
7, 162528, Note_on_c, 9, 35, 100
7, 162550, Note_off_c, 9, 35, 0
7, 162624, Note_on_c, 9, 35, 100
7, 162646, Note_off_c, 9, 35, 0
7, 162720, Note_on_c, 9, 35, 100
7, 162742, Note_off_c, 9, 35, 0
7, 162816, Note_on_c, 9, 35, 100
7, 162838, Note_off_c, 9, 35, 0
7, 162864, Note_on_c, 9, 45, 100
7, 162886, Note_off_c, 9, 45, 0
7, 163008, Note_on_c, 9, 35, 100
7, 163030, Note_off_c, 9, 35, 0
7, 163104, Note_on_c, 9, 35, 100
7, 163126, Note_off_c, 9, 35, 0
7, 163200, Note_on_c, 9, 51, 100
7, 163200, Note_on_c, 9, 35, 100
7, 163222, Note_off_c, 9, 35, 0
7, 163222, Note_off_c, 9, 51, 0
7, 163296, Note_on_c, 9, 35, 100
7, 163318, Note_off_c, 9, 35, 0
7, 163392, Note_on_c, 9, 35, 100
7, 163414, Note_off_c, 9, 35, 0
7, 163488, Note_on_c, 9, 35, 100
7, 163510, Note_off_c, 9, 35, 0
7, 163584, Note_on_c, 9, 35, 100
7, 163606, Note_off_c, 9, 35, 0
7, 163632, Note_on_c, 9, 45, 100
7, 163654, Note_off_c, 9, 45, 0
7, 163776, Note_on_c, 9, 35, 100
7, 163798, Note_off_c, 9, 35, 0
7, 163872, Note_on_c, 9, 35, 100
7, 163894, Note_off_c, 9, 35, 0
7, 163968, Note_on_c, 9, 51, 100
7, 163968, Note_on_c, 9, 35, 100
7, 163990, Note_off_c, 9, 35, 0
7, 163990, Note_off_c, 9, 51, 0
7, 164064, Note_on_c, 9, 35, 100
7, 164086, Note_off_c, 9, 35, 0
7, 164160, Note_on_c, 9, 35, 100
7, 164182, Note_off_c, 9, 35, 0
7, 164256, Note_on_c, 9, 35, 100
7, 164278, Note_off_c, 9, 35, 0
7, 164352, Note_on_c, 9, 35, 100
7, 164374, Note_off_c, 9, 35, 0
7, 164400, Note_on_c, 9, 45, 100
7, 164422, Note_off_c, 9, 45, 0
7, 164544, Note_on_c, 9, 35, 100
7, 164566, Note_off_c, 9, 35, 0
7, 164640, Note_on_c, 9, 35, 100
7, 164662, Note_off_c, 9, 35, 0
7, 164736, Note_on_c, 9, 51, 100
7, 164736, Note_on_c, 9, 35, 100
7, 164758, Note_off_c, 9, 35, 0
7, 164758, Note_off_c, 9, 51, 0
7, 164832, Note_on_c, 9, 35, 100
7, 164854, Note_off_c, 9, 35, 0
7, 164928, Note_on_c, 9, 35, 100
7, 164950, Note_off_c, 9, 35, 0
7, 165024, Note_on_c, 9, 35, 100
7, 165046, Note_off_c, 9, 35, 0
7, 165120, Note_on_c, 9, 35, 100
7, 165142, Note_off_c, 9, 35, 0
7, 165168, Note_on_c, 9, 45, 100
7, 165190, Note_off_c, 9, 45, 0
7, 165312, Note_on_c, 9, 35, 100
7, 165334, Note_off_c, 9, 35, 0
7, 165408, Note_on_c, 9, 35, 100
7, 165430, Note_off_c, 9, 35, 0
7, 165504, Note_on_c, 9, 51, 100
7, 165504, Note_on_c, 9, 35, 100
7, 165526, Note_off_c, 9, 35, 0
7, 165526, Note_off_c, 9, 51, 0
7, 165600, Note_on_c, 9, 35, 100
7, 165622, Note_off_c, 9, 35, 0
7, 165696, Note_on_c, 9, 35, 100
7, 165718, Note_off_c, 9, 35, 0
7, 165792, Note_on_c, 9, 35, 100
7, 165814, Note_off_c, 9, 35, 0
7, 165888, Note_on_c, 9, 35, 100
7, 165910, Note_off_c, 9, 35, 0
7, 165936, Note_on_c, 9, 45, 100
7, 165958, Note_off_c, 9, 45, 0
7, 166080, Note_on_c, 9, 35, 100
7, 166102, Note_off_c, 9, 35, 0
7, 166176, Note_on_c, 9, 35, 100
7, 166198, Note_off_c, 9, 35, 0
7, 166272, Note_on_c, 9, 51, 100
7, 166272, Note_on_c, 9, 35, 100
7, 166294, Note_off_c, 9, 35, 0
7, 166294, Note_off_c, 9, 51, 0
7, 166368, Note_on_c, 9, 35, 100
7, 166390, Note_off_c, 9, 35, 0
7, 166464, Note_on_c, 9, 35, 100
7, 166486, Note_off_c, 9, 35, 0
7, 166560, Note_on_c, 9, 35, 100
7, 166582, Note_off_c, 9, 35, 0
7, 166656, Note_on_c, 9, 45, 100
7, 166678, Note_off_c, 9, 45, 0
7, 166704, Note_on_c, 9, 45, 100
7, 166726, Note_off_c, 9, 45, 0
7, 166848, Note_on_c, 9, 45, 100
7, 166870, Note_off_c, 9, 45, 0
7, 166944, Note_on_c, 9, 38, 100
7, 166966, Note_off_c, 9, 38, 0
7, 166992, Note_on_c, 9, 38, 100
7, 167014, Note_off_c, 9, 38, 0
7, 167040, Note_on_c, 9, 38, 100
7, 167062, Note_off_c, 9, 38, 0
7, 167088, Note_on_c, 9, 38, 100
7, 167110, Note_off_c, 9, 38, 0
7, 167136, Note_on_c, 9, 38, 100
7, 167158, Note_off_c, 9, 38, 0
7, 167184, Note_on_c, 9, 45, 100
7, 167206, Note_off_c, 9, 45, 0
7, 167232, Note_on_c, 9, 45, 100
7, 167254, Note_off_c, 9, 45, 0
7, 167280, Note_on_c, 9, 45, 100
7, 167302, Note_off_c, 9, 45, 0
7, 167328, Note_on_c, 9, 43, 100
7, 167350, Note_off_c, 9, 43, 0
7, 167376, Note_on_c, 9, 43, 100
7, 167398, Note_off_c, 9, 43, 0
7, 167424, Note_on_c, 9, 35, 100
7, 167446, Note_off_c, 9, 35, 0
7, 167472, Note_on_c, 9, 45, 100
7, 167494, Note_off_c, 9, 45, 0
7, 167616, Note_on_c, 9, 35, 100
7, 167638, Note_off_c, 9, 35, 0
7, 167712, Note_on_c, 9, 35, 100
7, 167734, Note_off_c, 9, 35, 0
7, 167808, Note_on_c, 9, 51, 100
7, 167808, Note_on_c, 9, 35, 100
7, 167830, Note_off_c, 9, 35, 0
7, 167830, Note_off_c, 9, 51, 0
7, 167904, Note_on_c, 9, 35, 100
7, 167926, Note_off_c, 9, 35, 0
7, 168000, Note_on_c, 9, 35, 100
7, 168022, Note_off_c, 9, 35, 0
7, 168096, Note_on_c, 9, 35, 100
7, 168118, Note_off_c, 9, 35, 0
7, 168192, Note_on_c, 9, 35, 100
7, 168214, Note_off_c, 9, 35, 0
7, 168240, Note_on_c, 9, 45, 100
7, 168262, Note_off_c, 9, 45, 0
7, 168384, Note_on_c, 9, 35, 100
7, 168406, Note_off_c, 9, 35, 0
7, 168480, Note_on_c, 9, 35, 100
7, 168502, Note_off_c, 9, 35, 0
7, 168576, Note_on_c, 9, 51, 100
7, 168576, Note_on_c, 9, 35, 100
7, 168598, Note_off_c, 9, 35, 0
7, 168598, Note_off_c, 9, 51, 0
7, 168672, Note_on_c, 9, 35, 100
7, 168694, Note_off_c, 9, 35, 0
7, 168768, Note_on_c, 9, 35, 100
7, 168790, Note_off_c, 9, 35, 0
7, 168864, Note_on_c, 9, 35, 100
7, 168886, Note_off_c, 9, 35, 0
7, 168960, Note_on_c, 9, 35, 100
7, 168982, Note_off_c, 9, 35, 0
7, 169008, Note_on_c, 9, 45, 100
7, 169030, Note_off_c, 9, 45, 0
7, 169152, Note_on_c, 9, 35, 100
7, 169174, Note_off_c, 9, 35, 0
7, 169248, Note_on_c, 9, 35, 100
7, 169270, Note_off_c, 9, 35, 0
7, 169344, Note_on_c, 9, 51, 100
7, 169344, Note_on_c, 9, 35, 100
7, 169366, Note_off_c, 9, 35, 0
7, 169366, Note_off_c, 9, 51, 0
7, 169440, Note_on_c, 9, 35, 100
7, 169462, Note_off_c, 9, 35, 0
7, 169536, Note_on_c, 9, 35, 100
7, 169558, Note_off_c, 9, 35, 0
7, 169632, Note_on_c, 9, 35, 100
7, 169654, Note_off_c, 9, 35, 0
7, 169728, Note_on_c, 9, 35, 100
7, 169750, Note_off_c, 9, 35, 0
7, 169776, Note_on_c, 9, 45, 100
7, 169798, Note_off_c, 9, 45, 0
7, 169920, Note_on_c, 9, 35, 100
7, 169942, Note_off_c, 9, 35, 0
7, 170016, Note_on_c, 9, 35, 100
7, 170038, Note_off_c, 9, 35, 0
7, 170112, Note_on_c, 9, 51, 100
7, 170112, Note_on_c, 9, 35, 100
7, 170134, Note_off_c, 9, 35, 0
7, 170134, Note_off_c, 9, 51, 0
7, 170208, Note_on_c, 9, 35, 100
7, 170230, Note_off_c, 9, 35, 0
7, 170304, Note_on_c, 9, 35, 100
7, 170326, Note_off_c, 9, 35, 0
7, 170400, Note_on_c, 9, 35, 100
7, 170422, Note_off_c, 9, 35, 0
7, 170496, Note_on_c, 9, 35, 100
7, 170518, Note_off_c, 9, 35, 0
7, 170544, Note_on_c, 9, 45, 100
7, 170566, Note_off_c, 9, 45, 0
7, 170688, Note_on_c, 9, 35, 100
7, 170710, Note_off_c, 9, 35, 0
7, 170784, Note_on_c, 9, 35, 100
7, 170806, Note_off_c, 9, 35, 0
7, 170880, Note_on_c, 9, 51, 100
7, 170880, Note_on_c, 9, 35, 100
7, 170902, Note_off_c, 9, 35, 0
7, 170902, Note_off_c, 9, 51, 0
7, 170976, Note_on_c, 9, 35, 100
7, 170998, Note_off_c, 9, 35, 0
7, 171072, Note_on_c, 9, 35, 100
7, 171094, Note_off_c, 9, 35, 0
7, 171168, Note_on_c, 9, 35, 100
7, 171190, Note_off_c, 9, 35, 0
7, 171264, Note_on_c, 9, 35, 100
7, 171286, Note_off_c, 9, 35, 0
7, 171312, Note_on_c, 9, 45, 100
7, 171334, Note_off_c, 9, 45, 0
7, 171456, Note_on_c, 9, 35, 100
7, 171478, Note_off_c, 9, 35, 0
7, 171552, Note_on_c, 9, 35, 100
7, 171574, Note_off_c, 9, 35, 0
7, 171648, Note_on_c, 9, 51, 100
7, 171648, Note_on_c, 9, 35, 100
7, 171670, Note_off_c, 9, 35, 0
7, 171670, Note_off_c, 9, 51, 0
7, 171744, Note_on_c, 9, 35, 100
7, 171766, Note_off_c, 9, 35, 0
7, 171840, Note_on_c, 9, 35, 100
7, 171862, Note_off_c, 9, 35, 0
7, 171936, Note_on_c, 9, 35, 100
7, 171958, Note_off_c, 9, 35, 0
7, 172032, Note_on_c, 9, 38, 100
7, 172032, Note_on_c, 9, 38, 100
7, 172032, Note_on_c, 9, 35, 100
7, 172054, Note_off_c, 9, 35, 0
7, 172054, Note_off_c, 9, 38, 0
7, 172054, Note_off_c, 9, 38, 0
7, 172416, Note_on_c, 9, 46, 100
7, 172438, Note_off_c, 9, 46, 0
7, 172608, Note_on_c, 9, 46, 100
7, 172630, Note_off_c, 9, 46, 0
7, 172768, Note_on_c, 9, 38, 100
7, 172784, Note_on_c, 9, 38, 100
7, 172790, Note_off_c, 9, 38, 0
7, 172800, Note_on_c, 9, 38, 100
7, 172806, Note_off_c, 9, 38, 0
7, 172816, Note_on_c, 9, 38, 100
7, 172822, Note_off_c, 9, 38, 0
7, 172838, Note_off_c, 9, 38, 0
7, 172896, Note_on_c, 9, 43, 100
7, 172918, Note_off_c, 9, 43, 0
7, 172992, Note_on_c, 9, 38, 100
7, 173014, Note_off_c, 9, 38, 0
7, 173088, Note_on_c, 9, 38, 100
7, 173110, Note_off_c, 9, 38, 0
7, 173136, Note_on_c, 9, 38, 100
7, 173158, Note_off_c, 9, 38, 0
7, 173184, Note_on_c, 9, 35, 100
7, 173206, Note_off_c, 9, 35, 0
7, 173232, Note_on_c, 9, 38, 100
7, 173254, Note_off_c, 9, 38, 0
7, 173280, Note_on_c, 9, 41, 100
7, 173302, Note_off_c, 9, 41, 0
7, 173328, Note_on_c, 9, 41, 100
7, 173350, Note_off_c, 9, 41, 0
7, 173376, Note_on_c, 9, 38, 100
7, 173398, Note_off_c, 9, 38, 0
7, 173424, Note_on_c, 9, 38, 100
7, 173446, Note_off_c, 9, 38, 0
7, 173472, Note_on_c, 9, 38, 100
7, 173494, Note_off_c, 9, 38, 0
7, 173520, Note_on_c, 9, 41, 100
7, 173542, Note_off_c, 9, 41, 0
7, 173568, Note_on_c, 9, 35, 100
7, 173568, Note_on_c, 9, 43, 100
7, 173590, Note_off_c, 9, 43, 0
7, 173590, Note_off_c, 9, 35, 0
7, 173760, Note_on_c, 9, 46, 100
7, 173782, Note_off_c, 9, 46, 0
7, 173952, Note_on_c, 9, 46, 100
7, 173974, Note_off_c, 9, 46, 0
7, 174144, Note_on_c, 9, 46, 100
7, 174166, Note_off_c, 9, 46, 0
7, 174304, Note_on_c, 9, 38, 100
7, 174320, Note_on_c, 9, 38, 100
7, 174326, Note_off_c, 9, 38, 0
7, 174336, Note_on_c, 9, 38, 100
7, 174342, Note_off_c, 9, 38, 0
7, 174352, Note_on_c, 9, 38, 100
7, 174358, Note_off_c, 9, 38, 0
7, 174374, Note_off_c, 9, 38, 0
7, 174384, Note_on_c, 9, 38, 100
7, 174406, Note_off_c, 9, 38, 0
7, 174432, Note_on_c, 9, 43, 100
7, 174454, Note_off_c, 9, 43, 0
7, 174480, Note_on_c, 9, 43, 100
7, 174502, Note_off_c, 9, 43, 0
7, 174528, Note_on_c, 9, 38, 100
7, 174550, Note_off_c, 9, 38, 0
7, 174576, Note_on_c, 9, 38, 100
7, 174598, Note_off_c, 9, 38, 0
7, 174624, Note_on_c, 9, 43, 100
7, 174646, Note_off_c, 9, 43, 0
7, 174672, Note_on_c, 9, 38, 100
7, 174694, Note_off_c, 9, 38, 0
7, 174720, Note_on_c, 9, 43, 100
7, 174742, Note_off_c, 9, 43, 0
7, 174768, Note_on_c, 9, 43, 100
7, 174790, Note_off_c, 9, 43, 0
7, 174816, Note_on_c, 9, 43, 100
7, 174838, Note_off_c, 9, 43, 0
7, 174864, Note_on_c, 9, 43, 100
7, 174886, Note_off_c, 9, 43, 0
7, 174912, Note_on_c, 9, 38, 100
7, 174934, Note_off_c, 9, 38, 0
7, 174960, Note_on_c, 9, 43, 100
7, 174982, Note_off_c, 9, 43, 0
7, 175008, Note_on_c, 9, 43, 100
7, 175030, Note_off_c, 9, 43, 0
7, 175056, Note_on_c, 9, 38, 100
7, 175078, Note_off_c, 9, 38, 0
7, 175104, Note_on_c, 9, 35, 100
7, 175104, Note_on_c, 9, 36, 100
7, 175104, Note_on_c, 9, 38, 100
7, 175126, Note_off_c, 9, 38, 0
7, 175126, Note_off_c, 9, 36, 0
7, 175126, Note_off_c, 9, 35, 0
7, 175296, Note_on_c, 9, 46, 100
7, 175318, Note_off_c, 9, 46, 0
7, 175488, Note_on_c, 9, 43, 100
7, 175488, Note_on_c, 9, 46, 100
7, 175510, Note_off_c, 9, 46, 0
7, 175510, Note_off_c, 9, 43, 0
7, 175584, Note_on_c, 9, 38, 100
7, 175606, Note_off_c, 9, 38, 0
7, 175616, Note_on_c, 9, 38, 100
7, 175638, Note_off_c, 9, 38, 0
7, 175648, Note_on_c, 9, 38, 100
7, 175670, Note_off_c, 9, 38, 0
7, 175680, Note_on_c, 9, 38, 100
7, 175680, Note_on_c, 9, 46, 100
7, 175702, Note_off_c, 9, 46, 0
7, 175702, Note_off_c, 9, 38, 0
7, 175728, Note_on_c, 9, 38, 100
7, 175750, Note_off_c, 9, 38, 0
7, 175776, Note_on_c, 9, 41, 100
7, 175798, Note_off_c, 9, 41, 0
7, 175824, Note_on_c, 9, 41, 100
7, 175846, Note_off_c, 9, 41, 0
7, 175872, Note_on_c, 9, 36, 100
7, 175872, Note_on_c, 9, 53, 100
7, 175894, Note_off_c, 9, 53, 0
7, 175894, Note_off_c, 9, 36, 0
7, 176064, Note_on_c, 9, 43, 100
7, 176086, Note_off_c, 9, 43, 0
7, 176256, Note_on_c, 9, 43, 100
7, 176278, Note_off_c, 9, 43, 0
7, 176448, Note_on_c, 9, 41, 100
7, 176470, Note_off_c, 9, 41, 0
7, 176544, Note_on_c, 9, 43, 100
7, 176566, Note_off_c, 9, 43, 0
7, 176640, Note_on_c, 9, 41, 100
7, 176662, Note_off_c, 9, 41, 0
7, 176736, Note_on_c, 9, 43, 100
7, 176758, Note_off_c, 9, 43, 0
7, 176832, Note_on_c, 9, 41, 100
7, 176854, Note_off_c, 9, 41, 0
7, 176928, Note_on_c, 9, 43, 100
7, 176950, Note_off_c, 9, 43, 0
7, 177024, Note_on_c, 9, 35, 100
7, 177024, Note_on_c, 9, 53, 100
7, 177046, Note_off_c, 9, 53, 0
7, 177046, Note_off_c, 9, 35, 0
7, 177216, Note_on_c, 9, 43, 100
7, 177238, Note_off_c, 9, 43, 0
7, 177408, Note_on_c, 9, 43, 100
7, 177430, Note_off_c, 9, 43, 0
7, 177472, Note_on_c, 9, 38, 100
7, 177494, Note_off_c, 9, 38, 0
7, 177536, Note_on_c, 9, 43, 100
7, 177558, Note_off_c, 9, 43, 0
7, 177600, Note_on_c, 9, 38, 100
7, 177622, Note_off_c, 9, 38, 0
7, 177664, Note_on_c, 9, 43, 100
7, 177686, Note_off_c, 9, 43, 0
7, 177728, Note_on_c, 9, 38, 100
7, 177750, Note_off_c, 9, 38, 0
7, 177792, Note_on_c, 9, 43, 100
7, 177814, Note_off_c, 9, 43, 0
7, 177856, Note_on_c, 9, 45, 100
7, 177878, Note_off_c, 9, 45, 0
7, 177920, Note_on_c, 9, 43, 100
7, 177942, Note_off_c, 9, 43, 0
7, 177984, Note_on_c, 9, 43, 100
7, 178006, Note_off_c, 9, 43, 0
7, 178048, Note_on_c, 9, 41, 100
7, 178070, Note_off_c, 9, 41, 0
7, 178112, Note_on_c, 9, 35, 100
7, 178134, Note_off_c, 9, 35, 0
7, 178176, Note_on_c, 9, 35, 100
7, 178176, Note_on_c, 9, 53, 100
7, 178198, Note_off_c, 9, 53, 0
7, 178198, Note_off_c, 9, 35, 0
7, 178272, Note_on_c, 9, 38, 100
7, 178294, Note_off_c, 9, 38, 0
7, 178320, Note_on_c, 9, 45, 100
7, 178342, Note_off_c, 9, 45, 0
7, 178368, Note_on_c, 9, 38, 100
7, 178390, Note_off_c, 9, 38, 0
7, 178416, Note_on_c, 9, 43, 100
7, 178438, Note_off_c, 9, 43, 0
7, 178464, Note_on_c, 9, 41, 100
7, 178486, Note_off_c, 9, 41, 0
7, 178512, Note_on_c, 9, 45, 100
7, 178534, Note_off_c, 9, 45, 0
7, 178560, Note_on_c, 9, 38, 100
7, 178582, Note_off_c, 9, 38, 0
7, 178608, Note_on_c, 9, 43, 100
7, 178630, Note_off_c, 9, 43, 0
7, 178656, Note_on_c, 9, 41, 100
7, 178678, Note_off_c, 9, 41, 0
7, 178704, Note_on_c, 9, 38, 100
7, 178726, Note_off_c, 9, 38, 0
7, 178752, Note_on_c, 9, 43, 100
7, 178774, Note_off_c, 9, 43, 0
7, 178800, Note_on_c, 9, 41, 100
7, 178822, Note_off_c, 9, 41, 0
7, 178848, Note_on_c, 9, 38, 100
7, 178870, Note_off_c, 9, 38, 0
7, 178896, Note_on_c, 9, 38, 100
7, 178918, Note_off_c, 9, 38, 0
7, 178944, Note_on_c, 9, 38, 100
7, 178966, Note_off_c, 9, 38, 0
7, 178992, Note_on_c, 9, 43, 100
7, 179014, Note_off_c, 9, 43, 0
7, 179040, Note_on_c, 9, 41, 100
7, 179062, Note_off_c, 9, 41, 0
7, 179088, Note_on_c, 9, 41, 100
7, 179110, Note_off_c, 9, 41, 0
7, 179136, Note_on_c, 9, 43, 100
7, 179158, Note_off_c, 9, 43, 0
7, 179184, Note_on_c, 9, 45, 100
7, 179206, Note_off_c, 9, 45, 0
7, 179232, Note_on_c, 9, 43, 100
7, 179254, Note_off_c, 9, 43, 0
7, 179280, Note_on_c, 9, 38, 100
7, 179302, Note_off_c, 9, 38, 0
7, 179328, Note_on_c, 9, 38, 100
7, 179350, Note_off_c, 9, 38, 0
7, 179376, Note_on_c, 9, 45, 100
7, 179398, Note_off_c, 9, 45, 0
7, 179424, Note_on_c, 9, 43, 100
7, 179446, Note_off_c, 9, 43, 0
7, 179472, Note_on_c, 9, 43, 100
7, 179494, Note_off_c, 9, 43, 0
7, 179520, Note_on_c, 9, 36, 100
7, 179520, Note_on_c, 9, 35, 100
7, 179520, Note_on_c, 9, 38, 100
7, 179542, Note_off_c, 9, 38, 0
7, 179542, Note_off_c, 9, 35, 0
7, 179542, Note_off_c, 9, 36, 0
7, 179712, Note_on_c, 9, 40, 110
7, 179712, Note_on_c, 9, 38, 110
7, 179712, Note_on_c, 9, 35, 110
7, 179712, Note_on_c, 9, 36, 110
7, 179712, Note_on_c, 9, 53, 110
7, 179734, Note_off_c, 9, 53, 0
7, 179734, Note_off_c, 9, 36, 0
7, 179734, Note_off_c, 9, 35, 0
7, 179734, Note_off_c, 9, 38, 0
7, 179734, Note_off_c, 9, 40, 0
7, 180297, Control_c, 9, 91, 0
7, 180297, End_track
8, 0, Start_track
8, 0, Title_t, "Distortion Guitar 2"
8, 0, Channel_prefix, 5
8, 0, Control_c, 5, 7, 110
8, 0, Control_c, 5, 10, 104
8, 0, Program_c, 5, 30
8, 13832, Note_on_c, 5, 62, 100
8, 13928, Note_off_c, 5, 62, 0
8, 13928, Note_on_c, 5, 55, 100
8, 14024, Note_off_c, 5, 55, 0
8, 14024, Note_on_c, 5, 58, 100
8, 14120, Note_off_c, 5, 58, 0
8, 14120, Note_on_c, 5, 60, 100
8, 14216, Note_off_c, 5, 60, 0
8, 14216, Note_on_c, 5, 61, 100
8, 14408, Note_off_c, 5, 61, 0
8, 14408, Note_on_c, 5, 60, 100
8, 14504, Note_off_c, 5, 60, 0
8, 14600, Note_on_c, 5, 65, 100
8, 14888, Note_off_c, 5, 65, 0
8, 14888, Note_on_c, 5, 65, 100
8, 14984, Note_off_c, 5, 65, 0
8, 14984, Note_on_c, 5, 65, 100
8, 15368, Note_off_c, 5, 65, 0
8, 15464, Note_on_c, 5, 67, 100
8, 15560, Note_off_c, 5, 67, 0
8, 15560, Note_on_c, 5, 67, 100
8, 15656, Note_off_c, 5, 67, 0
8, 15752, Note_on_c, 5, 67, 100
8, 16136, Note_off_c, 5, 67, 0
8, 16136, Note_on_c, 5, 69, 100
8, 16424, Note_off_c, 5, 69, 0
8, 16424, Note_on_c, 5, 69, 100
8, 16520, Note_off_c, 5, 69, 0
8, 16520, Note_on_c, 5, 69, 100
8, 16712, Note_off_c, 5, 69, 0
8, 16712, Note_on_c, 5, 67, 100
8, 16808, Note_off_c, 5, 67, 0
8, 16808, Note_on_c, 5, 69, 100
8, 16904, Note_off_c, 5, 69, 0
8, 16904, Note_on_c, 5, 67, 100
8, 17000, Note_off_c, 5, 67, 0
8, 17000, Note_on_c, 5, 69, 100
8, 17096, Note_off_c, 5, 69, 0
8, 17096, Note_on_c, 5, 70, 100
8, 17192, Note_off_c, 5, 70, 0
8, 17288, Note_on_c, 5, 65, 100
8, 17672, Note_off_c, 5, 65, 0
8, 17768, Note_on_c, 5, 67, 100
8, 17864, Note_off_c, 5, 67, 0
8, 17864, Note_on_c, 5, 67, 100
8, 17960, Note_off_c, 5, 67, 0
8, 17960, Note_on_c, 5, 67, 100
8, 18056, Note_off_c, 5, 67, 0
8, 18056, Note_on_c, 5, 67, 100
8, 18152, Note_off_c, 5, 67, 0
8, 18152, Note_on_c, 5, 65, 100
8, 18248, Note_off_c, 5, 65, 0
8, 18248, Note_on_c, 5, 70, 100
8, 18344, Note_off_c, 5, 70, 0
8, 18440, Note_on_c, 5, 70, 100
8, 18536, Note_off_c, 5, 70, 0
8, 18536, Note_on_c, 5, 68, 100
8, 18632, Note_off_c, 5, 68, 0
8, 18632, Note_on_c, 5, 63, 100
8, 18824, Note_off_c, 5, 63, 0
8, 18824, Note_on_c, 5, 66, 100
8, 19208, Note_off_c, 5, 66, 0
8, 19208, Note_on_c, 5, 62, 100
8, 19304, Note_off_c, 5, 62, 0
8, 19304, Note_on_c, 5, 55, 100
8, 19400, Note_off_c, 5, 55, 0
8, 19400, Note_on_c, 5, 58, 100
8, 19496, Note_off_c, 5, 58, 0
8, 19496, Note_on_c, 5, 60, 100
8, 19592, Note_off_c, 5, 60, 0
8, 19592, Note_on_c, 5, 61, 100
8, 19784, Note_off_c, 5, 61, 0
8, 19784, Note_on_c, 5, 60, 100
8, 19880, Note_off_c, 5, 60, 0
8, 19976, Note_on_c, 5, 65, 100
8, 20264, Note_off_c, 5, 65, 0
8, 20264, Note_on_c, 5, 65, 100
8, 20360, Note_off_c, 5, 65, 0
8, 20360, Note_on_c, 5, 65, 100
8, 20744, Note_off_c, 5, 65, 0
8, 20840, Note_on_c, 5, 67, 100
8, 20936, Note_off_c, 5, 67, 0
8, 20936, Note_on_c, 5, 67, 100
8, 21032, Note_off_c, 5, 67, 0
8, 21128, Note_on_c, 5, 67, 100
8, 21512, Note_off_c, 5, 67, 0
8, 21512, Note_on_c, 5, 69, 100
8, 21800, Note_off_c, 5, 69, 0
8, 21800, Note_on_c, 5, 69, 100
8, 21896, Note_off_c, 5, 69, 0
8, 21896, Note_on_c, 5, 69, 100
8, 22088, Note_off_c, 5, 69, 0
8, 22088, Note_on_c, 5, 67, 100
8, 22184, Note_off_c, 5, 67, 0
8, 22184, Note_on_c, 5, 69, 100
8, 22280, Note_off_c, 5, 69, 0
8, 22280, Note_on_c, 5, 67, 100
8, 22376, Note_off_c, 5, 67, 0
8, 22376, Note_on_c, 5, 69, 100
8, 22472, Note_off_c, 5, 69, 0
8, 22472, Note_on_c, 5, 70, 100
8, 22568, Note_off_c, 5, 70, 0
8, 22664, Note_on_c, 5, 65, 100
8, 23048, Note_off_c, 5, 65, 0
8, 23144, Note_on_c, 5, 67, 100
8, 23240, Note_off_c, 5, 67, 0
8, 23240, Note_on_c, 5, 67, 100
8, 23336, Note_off_c, 5, 67, 0
8, 23336, Note_on_c, 5, 67, 100
8, 23432, Note_off_c, 5, 67, 0
8, 23432, Note_on_c, 5, 67, 100
8, 23528, Note_off_c, 5, 67, 0
8, 23528, Note_on_c, 5, 65, 100
8, 23624, Note_off_c, 5, 65, 0
8, 23624, Note_on_c, 5, 70, 100
8, 23720, Note_off_c, 5, 70, 0
8, 23816, Note_on_c, 5, 70, 100
8, 23912, Note_off_c, 5, 70, 0
8, 23912, Note_on_c, 5, 68, 100
8, 24008, Note_off_c, 5, 68, 0
8, 24008, Note_on_c, 5, 63, 100
8, 24200, Note_off_c, 5, 63, 0
8, 24200, Note_on_c, 5, 66, 100
8, 24584, Note_off_c, 5, 66, 0
8, 93704, Note_on_c, 5, 79, 99
8, 93800, Note_off_c, 5, 79, 0
8, 93800, Note_on_c, 5, 79, 99
8, 93992, Note_off_c, 5, 79, 0
8, 93992, Note_on_c, 5, 81, 99
8, 95048, Note_off_c, 5, 81, 0
8, 95240, Note_on_c, 5, 70, 99
8, 95368, Note_off_c, 5, 70, 0
8, 95368, Note_on_c, 5, 69, 99
8, 95496, Note_off_c, 5, 69, 0
8, 95496, Note_on_c, 5, 65, 99
8, 95624, Note_off_c, 5, 65, 0
8, 95624, Note_on_c, 5, 60, 99
8, 96584, Note_off_c, 5, 60, 0
8, 96776, Note_on_c, 5, 60, 99
8, 96872, Note_off_c, 5, 60, 0
8, 96872, Note_on_c, 5, 62, 99
8, 96968, Note_off_c, 5, 62, 0
8, 96968, Note_on_c, 5, 65, 99
8, 97064, Note_off_c, 5, 65, 0
8, 97064, Note_on_c, 5, 67, 99
8, 97160, Note_off_c, 5, 67, 0
8, 97160, Note_on_c, 5, 69, 99
8, 98120, Note_off_c, 5, 69, 0
8, 98312, Note_on_c, 5, 60, 99
8, 98600, Note_off_c, 5, 60, 0
8, 98600, Note_on_c, 5, 60, 99
8, 98696, Note_off_c, 5, 60, 0
8, 98696, Note_on_c, 5, 62, 99
8, 98728, Note_off_c, 5, 62, 0
8, 98728, Note_on_c, 5, 63, 99
8, 98760, Note_off_c, 5, 63, 0
8, 98760, Note_on_c, 5, 64, 99
8, 98792, Note_off_c, 5, 64, 0
8, 98792, Note_on_c, 5, 67, 99
8, 98888, Note_off_c, 5, 67, 0
8, 98888, Note_on_c, 5, 72, 99
8, 98984, Note_off_c, 5, 72, 0
8, 99080, Note_on_c, 5, 70, 99
8, 99848, Note_off_c, 5, 70, 0
8, 99848, Note_on_c, 5, 79, 99
8, 99944, Note_off_c, 5, 79, 0
8, 99944, Note_on_c, 5, 75, 99
8, 100040, Note_off_c, 5, 75, 0
8, 100040, Note_on_c, 5, 72, 99
8, 101384, Note_off_c, 5, 72, 0
8, 101384, Note_on_c, 5, 79, 99
8, 101480, Note_off_c, 5, 79, 0
8, 101480, Note_on_c, 5, 74, 99
8, 101576, Note_off_c, 5, 74, 0
8, 101576, Note_on_c, 5, 70, 99
8, 102920, Note_off_c, 5, 70, 0
8, 102920, Note_on_c, 5, 60, 99
8, 103016, Note_off_c, 5, 60, 0
8, 103016, Note_on_c, 5, 62, 99
8, 103112, Note_off_c, 5, 62, 0
8, 103112, Note_on_c, 5, 65, 99
8, 103208, Note_off_c, 5, 65, 0
8, 103208, Note_on_c, 5, 67, 99
8, 103304, Note_off_c, 5, 67, 0
8, 103304, Note_on_c, 5, 69, 99
8, 103400, Note_off_c, 5, 69, 0
8, 103400, Note_on_c, 5, 72, 99
8, 103496, Note_off_c, 5, 72, 0
8, 103496, Note_on_c, 5, 72, 99
8, 103592, Note_off_c, 5, 72, 0
8, 103592, Note_on_c, 5, 72, 99
8, 103688, Note_off_c, 5, 72, 0
8, 103688, Note_on_c, 5, 72, 99
8, 103880, Note_off_c, 5, 72, 0
8, 103880, Note_on_c, 5, 69, 99
8, 104072, Note_off_c, 5, 69, 0
8, 104072, Note_on_c, 5, 72, 99
8, 104168, Note_off_c, 5, 72, 0
8, 104168, Note_on_c, 5, 69, 99
8, 104264, Note_off_c, 5, 69, 0
8, 104264, Note_on_c, 5, 72, 99
8, 104360, Note_off_c, 5, 72, 0
8, 104360, Note_on_c, 5, 72, 99
8, 104456, Note_off_c, 5, 72, 0
8, 104456, Note_on_c, 5, 74, 99
8, 104520, Note_off_c, 5, 74, 0
8, 104520, Note_on_c, 5, 72, 99
8, 104584, Note_off_c, 5, 72, 0
8, 104584, Note_on_c, 5, 67, 99
8, 104648, Note_off_c, 5, 67, 0
8, 104648, Note_on_c, 5, 72, 99
8, 104744, Note_off_c, 5, 72, 0
8, 104744, Note_on_c, 5, 69, 99
8, 104840, Note_off_c, 5, 69, 0
8, 104840, Note_on_c, 5, 72, 99
8, 104936, Note_off_c, 5, 72, 0
8, 104936, Note_on_c, 5, 74, 99
8, 105032, Note_off_c, 5, 74, 0
8, 105032, Note_on_c, 5, 77, 99
8, 105128, Note_off_c, 5, 77, 0
8, 105128, Note_on_c, 5, 81, 99
8, 105224, Note_off_c, 5, 81, 0
8, 105224, Note_on_c, 5, 79, 99
8, 105416, Note_off_c, 5, 79, 0
8, 105416, Note_on_c, 5, 77, 99
8, 105608, Note_off_c, 5, 77, 0
8, 105608, Note_on_c, 5, 72, 99
8, 105800, Note_off_c, 5, 72, 0
8, 105800, Note_on_c, 5, 74, 99
8, 105992, Note_off_c, 5, 74, 0
8, 105992, Note_on_c, 5, 67, 99
8, 106280, Note_off_c, 5, 67, 0
8, 106280, Note_on_c, 5, 70, 99
8, 106568, Note_off_c, 5, 70, 0
8, 106568, Note_on_c, 5, 72, 99
8, 106856, Note_off_c, 5, 72, 0
8, 106856, Note_on_c, 5, 65, 99
8, 107144, Note_off_c, 5, 65, 0
8, 107144, Note_on_c, 5, 62, 99
8, 107336, Note_off_c, 5, 62, 0
8, 107336, Note_on_c, 5, 62, 99
8, 107432, Note_off_c, 5, 62, 0
8, 107432, Note_on_c, 5, 65, 99
8, 107624, Note_off_c, 5, 65, 0
8, 107624, Note_on_c, 5, 67, 99
8, 107720, Note_off_c, 5, 67, 0
8, 107720, Note_on_c, 5, 70, 99
8, 107816, Note_off_c, 5, 70, 0
8, 107816, Note_on_c, 5, 72, 99
8, 107912, Note_off_c, 5, 72, 0
8, 107912, Note_on_c, 5, 70, 99
8, 108008, Note_off_c, 5, 70, 0
8, 108008, Note_on_c, 5, 67, 99
8, 108104, Note_off_c, 5, 67, 0
8, 108104, Note_on_c, 5, 70, 99
8, 108200, Note_off_c, 5, 70, 0
8, 108200, Note_on_c, 5, 67, 99
8, 108728, Note_off_c, 5, 67, 0
8, 108808, Note_on_c, 5, 67, 99
8, 108888, Note_off_c, 5, 67, 0
8, 108936, Note_on_c, 5, 67, 99
8, 109016, Note_off_c, 5, 67, 0
8, 109064, Note_on_c, 5, 74, 99
8, 109832, Note_off_c, 5, 74, 0
8, 109832, Note_on_c, 5, 72, 99
8, 109928, Note_off_c, 5, 72, 0
8, 109928, Note_on_c, 5, 70, 99
8, 110312, Note_off_c, 5, 70, 0
8, 110312, Note_on_c, 5, 67, 99
8, 110792, Note_off_c, 5, 67, 0
8, 110792, Note_on_c, 5, 65, 99
8, 110888, Note_off_c, 5, 65, 0
8, 110888, Note_on_c, 5, 62, 99
8, 110984, Note_off_c, 5, 62, 0
8, 110984, Note_on_c, 5, 60, 99
8, 111080, Note_off_c, 5, 60, 0
8, 111080, Note_on_c, 5, 58, 99
8, 111176, Note_off_c, 5, 58, 0
8, 111176, Note_on_c, 5, 58, 99
8, 111272, Note_off_c, 5, 58, 0
8, 111272, Note_on_c, 5, 55, 99
8, 111368, Note_off_c, 5, 55, 0
8, 111368, Note_on_c, 5, 58, 99
8, 111464, Note_off_c, 5, 58, 0
8, 111464, Note_on_c, 5, 60, 99
8, 111560, Note_off_c, 5, 60, 0
8, 111560, Note_on_c, 5, 62, 99
8, 111656, Note_off_c, 5, 62, 0
8, 111656, Note_on_c, 5, 65, 99
8, 111752, Note_off_c, 5, 65, 0
8, 111752, Note_on_c, 5, 65, 99
8, 111848, Note_off_c, 5, 65, 0
8, 111848, Note_on_c, 5, 67, 99
8, 111944, Note_off_c, 5, 67, 0
8, 111944, Note_on_c, 5, 70, 99
8, 112040, Note_off_c, 5, 70, 0
8, 112040, Note_on_c, 5, 67, 99
8, 112136, Note_off_c, 5, 67, 0
8, 112136, Note_on_c, 5, 70, 99
8, 112232, Note_off_c, 5, 70, 0
8, 112232, Note_on_c, 5, 70, 99
8, 112280, Note_off_c, 5, 70, 0
8, 112280, Note_on_c, 5, 70, 99
8, 112328, Note_off_c, 5, 70, 0
8, 112328, Note_on_c, 5, 70, 99
8, 112424, Note_off_c, 5, 70, 0
8, 112424, Note_on_c, 5, 67, 99
8, 112520, Note_off_c, 5, 67, 0
8, 112520, Note_on_c, 5, 70, 99
8, 112616, Note_off_c, 5, 70, 0
8, 112616, Note_on_c, 5, 67, 99
8, 112712, Note_off_c, 5, 67, 0
8, 112712, Note_on_c, 5, 72, 99
8, 112856, Note_off_c, 5, 72, 0
8, 112856, Note_on_c, 5, 74, 99
8, 113192, Note_off_c, 5, 74, 0
8, 113192, Note_on_c, 5, 72, 99
8, 113384, Note_off_c, 5, 72, 0
8, 113384, Note_on_c, 5, 70, 99
8, 113480, Note_off_c, 5, 70, 0
8, 113480, Note_on_c, 5, 72, 99
8, 113528, Note_off_c, 5, 72, 0
8, 113528, Note_on_c, 5, 70, 99
8, 113576, Note_off_c, 5, 70, 0
8, 113576, Note_on_c, 5, 67, 99
8, 113672, Note_off_c, 5, 67, 0
8, 113672, Note_on_c, 5, 70, 99
8, 113768, Note_off_c, 5, 70, 0
8, 113768, Note_on_c, 5, 62, 99
8, 114056, Note_off_c, 5, 62, 0
8, 114056, Note_on_c, 5, 65, 99
8, 114152, Note_off_c, 5, 65, 0
8, 114152, Note_on_c, 5, 67, 99
8, 114248, Note_off_c, 5, 67, 0
8, 114248, Note_on_c, 5, 70, 99
8, 114344, Note_off_c, 5, 70, 0
8, 114344, Note_on_c, 5, 70, 99
8, 114440, Note_off_c, 5, 70, 0
8, 114440, Note_on_c, 5, 72, 99
8, 114536, Note_off_c, 5, 72, 0
8, 114536, Note_on_c, 5, 70, 99
8, 114632, Note_off_c, 5, 70, 0
8, 114632, Note_on_c, 5, 65, 99
8, 114824, Note_off_c, 5, 65, 0
8, 114824, Note_on_c, 5, 62, 99
8, 115016, Note_off_c, 5, 62, 0
8, 115016, Note_on_c, 5, 65, 99
8, 115112, Note_off_c, 5, 65, 0
8, 115112, Note_on_c, 5, 67, 99
8, 115208, Note_off_c, 5, 67, 0
8, 115208, Note_on_c, 5, 70, 99
8, 115304, Note_off_c, 5, 70, 0
8, 115304, Note_on_c, 5, 72, 99
8, 115400, Note_off_c, 5, 72, 0
8, 115400, Note_on_c, 5, 74, 99
8, 115592, Note_off_c, 5, 74, 0
8, 115592, Note_on_c, 5, 77, 99
8, 115880, Note_off_c, 5, 77, 0
8, 115880, Note_on_c, 5, 72, 99
8, 116168, Note_on_c, 5, 79, 99
8, 116456, Note_off_c, 5, 79, 0
8, 116456, Note_off_c, 5, 72, 0
8, 116456, Note_on_c, 5, 74, 99
8, 116744, Note_off_c, 5, 74, 0
8, 116744, Note_on_c, 5, 60, 99
8, 116840, Note_off_c, 5, 60, 0
8, 116840, Note_on_c, 5, 62, 99
8, 116936, Note_off_c, 5, 62, 0
8, 116936, Note_on_c, 5, 65, 99
8, 117032, Note_off_c, 5, 65, 0
8, 117032, Note_on_c, 5, 67, 99
8, 117128, Note_off_c, 5, 67, 0
8, 117128, Note_on_c, 5, 69, 99
8, 117224, Note_off_c, 5, 69, 0
8, 117224, Note_on_c, 5, 72, 99
8, 117320, Note_off_c, 5, 72, 0
8, 117320, Note_on_c, 5, 72, 99
8, 117416, Note_off_c, 5, 72, 0
8, 117416, Note_on_c, 5, 72, 99
8, 117512, Note_off_c, 5, 72, 0
8, 117512, Note_on_c, 5, 72, 99
8, 117608, Note_off_c, 5, 72, 0
8, 117608, Note_on_c, 5, 74, 99
8, 117704, Note_off_c, 5, 74, 0
8, 117704, Note_on_c, 5, 77, 99
8, 117800, Note_off_c, 5, 77, 0
8, 117800, Note_on_c, 5, 77, 99
8, 117896, Note_off_c, 5, 77, 0
8, 117896, Note_on_c, 5, 77, 99
8, 117992, Note_off_c, 5, 77, 0
8, 117992, Note_on_c, 5, 79, 99
8, 118040, Note_off_c, 5, 79, 0
8, 118040, Note_on_c, 5, 77, 99
8, 118088, Note_off_c, 5, 77, 0
8, 118088, Note_on_c, 5, 77, 99
8, 118280, Note_off_c, 5, 77, 0
8, 118280, Note_on_c, 5, 74, 99
8, 118472, Note_off_c, 5, 74, 0
8, 118472, Note_on_c, 5, 72, 99
8, 118664, Note_off_c, 5, 72, 0
8, 118664, Note_on_c, 5, 74, 99
8, 118712, Note_off_c, 5, 74, 0
8, 118712, Note_on_c, 5, 72, 99
8, 118760, Note_off_c, 5, 72, 0
8, 118760, Note_on_c, 5, 69, 99
8, 118856, Note_off_c, 5, 69, 0
8, 118856, Note_on_c, 5, 72, 99
8, 118952, Note_off_c, 5, 72, 0
8, 118952, Note_on_c, 5, 74, 99
8, 119048, Note_off_c, 5, 74, 0
8, 119048, Note_on_c, 5, 79, 99
8, 119096, Note_off_c, 5, 79, 0
8, 119096, Note_on_c, 5, 77, 99
8, 119144, Note_off_c, 5, 77, 0
8, 119144, Note_on_c, 5, 74, 99
8, 119192, Note_off_c, 5, 74, 0
8, 119192, Note_on_c, 5, 72, 99
8, 119240, Note_off_c, 5, 72, 0
8, 119240, Note_on_c, 5, 69, 99
8, 119432, Note_off_c, 5, 69, 0
8, 119432, Note_on_c, 5, 72, 99
8, 119528, Note_off_c, 5, 72, 0
8, 119528, Note_on_c, 5, 69, 99
8, 119624, Note_off_c, 5, 69, 0
8, 119624, Note_on_c, 5, 72, 99
8, 119672, Note_off_c, 5, 72, 0
8, 119672, Note_on_c, 5, 74, 99
8, 119720, Note_off_c, 5, 74, 0
8, 119720, Note_on_c, 5, 74, 99
8, 119816, Note_off_c, 5, 74, 0
8, 119816, Note_on_c, 5, 67, 99
8, 120104, Note_off_c, 5, 67, 0
8, 120104, Note_on_c, 5, 70, 99
8, 120392, Note_off_c, 5, 70, 0
8, 120392, Note_on_c, 5, 74, 99
8, 120584, Note_off_c, 5, 74, 0
8, 120584, Note_on_c, 5, 72, 99
8, 121160, Note_off_c, 5, 72, 0
8, 121160, Note_on_c, 5, 70, 99
8, 121256, Note_off_c, 5, 70, 0
8, 121256, Note_on_c, 5, 74, 99
8, 121352, Note_off_c, 5, 74, 0
8, 121352, Note_on_c, 5, 72, 99
8, 121448, Note_off_c, 5, 72, 0
8, 121448, Note_on_c, 5, 70, 99
8, 121544, Note_off_c, 5, 70, 0
8, 121544, Note_on_c, 5, 65, 99
8, 121640, Note_off_c, 5, 65, 0
8, 121640, Note_on_c, 5, 65, 99
8, 121736, Note_off_c, 5, 65, 0
8, 121736, Note_on_c, 5, 67, 99
8, 121832, Note_off_c, 5, 67, 0
8, 121832, Note_on_c, 5, 65, 99
8, 122024, Note_off_c, 5, 65, 0
8, 122024, Note_on_c, 5, 62, 99
8, 122504, Note_off_c, 5, 62, 0
8, 122504, Note_on_c, 5, 55, 99
8, 122600, Note_off_c, 5, 55, 0
8, 122600, Note_on_c, 5, 62, 99
8, 122792, Note_off_c, 5, 62, 0
8, 122792, Note_on_c, 5, 67, 99
8, 122888, Note_off_c, 5, 67, 0
8, 122888, Note_on_c, 5, 70, 99
8, 123080, Note_off_c, 5, 70, 0
8, 123080, Note_on_c, 5, 67, 99
8, 123560, Note_off_c, 5, 67, 0
8, 123560, Note_on_c, 5, 70, 100
8, 123752, Note_off_c, 5, 70, 0
8, 123752, Note_on_c, 5, 72, 100
8, 123848, Note_off_c, 5, 72, 0
8, 123848, Note_on_c, 5, 74, 100
8, 124328, Note_off_c, 5, 74, 0
8, 124328, Note_on_c, 5, 77, 100
8, 124520, Note_off_c, 5, 77, 0
8, 124520, Note_on_c, 5, 79, 100
8, 124712, Note_off_c, 5, 79, 0
8, 124712, Note_on_c, 5, 74, 100
8, 125192, Note_off_c, 5, 74, 0
8, 125192, Note_on_c, 5, 77, 100
8, 125480, Note_off_c, 5, 77, 0
8, 125480, Note_on_c, 5, 79, 100
8, 125864, Note_off_c, 5, 79, 0
8, 125864, Note_on_c, 5, 77, 100
8, 125960, Note_off_c, 5, 77, 0
8, 125960, Note_on_c, 5, 86, 100
8, 126248, Note_off_c, 5, 86, 0
8, 126248, Note_on_c, 5, 79, 100
8, 126824, Note_off_c, 5, 79, 0
8, 126824, Note_on_c, 5, 84, 101
8, 127016, Note_off_c, 5, 84, 0
8, 127016, Note_on_c, 5, 77, 101
8, 127112, Note_off_c, 5, 77, 0
8, 127112, Note_on_c, 5, 79, 101
8, 127592, Note_off_c, 5, 79, 0
8, 127592, Note_on_c, 5, 77, 101
8, 127688, Note_off_c, 5, 77, 0
8, 127688, Note_on_c, 5, 84, 101
8, 127752, Note_off_c, 5, 84, 0
8, 127752, Note_on_c, 5, 82, 101
8, 127816, Note_off_c, 5, 82, 0
8, 127816, Note_on_c, 5, 77, 101
8, 127880, Note_off_c, 5, 77, 0
8, 127880, Note_on_c, 5, 84, 101
8, 127944, Note_off_c, 5, 84, 0
8, 127944, Note_on_c, 5, 82, 101
8, 128008, Note_off_c, 5, 82, 0
8, 128008, Note_on_c, 5, 77, 101
8, 128072, Note_off_c, 5, 77, 0
8, 128072, Note_on_c, 5, 82, 101
8, 128168, Note_off_c, 5, 82, 0
8, 128168, Note_on_c, 5, 79, 101
8, 128456, Note_off_c, 5, 79, 0
8, 128456, Note_on_c, 5, 77, 101
8, 128552, Note_off_c, 5, 77, 0
8, 128552, Note_on_c, 5, 74, 101
8, 128648, Note_off_c, 5, 74, 0
8, 128648, Note_on_c, 5, 72, 101
8, 128744, Note_off_c, 5, 72, 0
8, 128744, Note_on_c, 5, 70, 101
8, 128840, Note_off_c, 5, 70, 0
8, 128840, Note_on_c, 5, 72, 101
8, 128936, Note_off_c, 5, 72, 0
8, 128936, Note_on_c, 5, 70, 101
8, 129032, Note_off_c, 5, 70, 0
8, 129032, Note_on_c, 5, 72, 101
8, 129096, Note_off_c, 5, 72, 0
8, 129096, Note_on_c, 5, 70, 101
8, 129160, Note_off_c, 5, 70, 0
8, 129160, Note_on_c, 5, 67, 101
8, 129224, Note_off_c, 5, 67, 0
8, 129224, Note_on_c, 5, 70, 101
8, 129320, Note_off_c, 5, 70, 0
8, 129320, Note_on_c, 5, 62, 101
8, 129416, Note_off_c, 5, 62, 0
8, 129416, Note_on_c, 5, 65, 101
8, 129512, Note_off_c, 5, 65, 0
8, 129512, Note_on_c, 5, 62, 101
8, 129608, Note_off_c, 5, 62, 0
8, 129608, Note_on_c, 5, 65, 101
8, 129704, Note_off_c, 5, 65, 0
8, 129704, Note_on_c, 5, 67, 101
8, 129800, Note_off_c, 5, 67, 0
8, 129800, Note_on_c, 5, 70, 101
8, 129896, Note_off_c, 5, 70, 0
8, 129896, Note_on_c, 5, 72, 101
8, 129992, Note_off_c, 5, 72, 0
8, 129992, Note_on_c, 5, 62, 101
8, 130568, Note_off_c, 5, 62, 0
8, 130568, Note_on_c, 5, 60, 102
8, 130664, Note_off_c, 5, 60, 0
8, 130664, Note_on_c, 5, 62, 102
8, 130760, Note_off_c, 5, 62, 0
8, 130760, Note_on_c, 5, 65, 102
8, 130856, Note_off_c, 5, 65, 0
8, 130856, Note_on_c, 5, 67, 102
8, 130952, Note_off_c, 5, 67, 0
8, 130952, Note_on_c, 5, 69, 102
8, 131048, Note_off_c, 5, 69, 0
8, 131048, Note_on_c, 5, 72, 102
8, 131144, Note_off_c, 5, 72, 0
8, 131144, Note_on_c, 5, 72, 102
8, 131240, Note_off_c, 5, 72, 0
8, 131240, Note_on_c, 5, 72, 102
8, 131336, Note_off_c, 5, 72, 0
8, 131336, Note_on_c, 5, 72, 102
8, 131432, Note_off_c, 5, 72, 0
8, 131432, Note_on_c, 5, 74, 102
8, 131528, Note_off_c, 5, 74, 0
8, 131528, Note_on_c, 5, 74, 102
8, 131624, Note_off_c, 5, 74, 0
8, 131624, Note_on_c, 5, 74, 102
8, 131720, Note_off_c, 5, 74, 0
8, 131720, Note_on_c, 5, 77, 102
8, 131816, Note_off_c, 5, 77, 0
8, 131816, Note_on_c, 5, 79, 102
8, 132008, Note_off_c, 5, 79, 0
8, 132008, Note_on_c, 5, 79, 102
8, 132104, Note_off_c, 5, 79, 0
8, 132104, Note_on_c, 5, 81, 102
8, 132200, Note_off_c, 5, 81, 0
8, 132200, Note_on_c, 5, 82, 102
8, 132296, Note_off_c, 5, 82, 0
8, 132296, Note_on_c, 5, 84, 102
8, 132392, Note_off_c, 5, 84, 0
8, 132392, Note_on_c, 5, 86, 102
8, 132488, Note_off_c, 5, 86, 0
8, 132488, Note_on_c, 5, 89, 102
8, 132584, Note_off_c, 5, 89, 0
8, 132584, Note_on_c, 5, 84, 102
8, 132680, Note_off_c, 5, 84, 0
8, 132680, Note_on_c, 5, 86, 102
8, 132776, Note_off_c, 5, 86, 0
8, 132776, Note_on_c, 5, 89, 102
8, 132872, Note_off_c, 5, 89, 0
8, 132872, Note_on_c, 5, 84, 102
8, 132968, Note_off_c, 5, 84, 0
8, 132968, Note_on_c, 5, 86, 102
8, 133064, Note_off_c, 5, 86, 0
8, 133064, Note_on_c, 5, 89, 102
8, 133160, Note_off_c, 5, 89, 0
8, 133160, Note_on_c, 5, 86, 102
8, 133640, Note_off_c, 5, 86, 0
8, 161288, Note_on_c, 5, 62, 100
8, 161384, Note_off_c, 5, 62, 0
8, 161384, Note_on_c, 5, 55, 100
8, 161480, Note_off_c, 5, 55, 0
8, 161480, Note_on_c, 5, 58, 100
8, 161576, Note_off_c, 5, 58, 0
8, 161576, Note_on_c, 5, 60, 100
8, 161672, Note_off_c, 5, 60, 0
8, 161672, Note_on_c, 5, 61, 100
8, 161864, Note_off_c, 5, 61, 0
8, 161864, Note_on_c, 5, 60, 100
8, 161960, Note_off_c, 5, 60, 0
8, 162056, Note_on_c, 5, 65, 100
8, 162344, Note_off_c, 5, 65, 0
8, 162344, Note_on_c, 5, 65, 100
8, 162440, Note_off_c, 5, 65, 0
8, 162440, Note_on_c, 5, 65, 100
8, 162824, Note_off_c, 5, 65, 0
8, 162920, Note_on_c, 5, 67, 100
8, 163016, Note_off_c, 5, 67, 0
8, 163016, Note_on_c, 5, 67, 100
8, 163112, Note_off_c, 5, 67, 0
8, 163208, Note_on_c, 5, 67, 100
8, 163592, Note_off_c, 5, 67, 0
8, 163592, Note_on_c, 5, 69, 100
8, 163880, Note_off_c, 5, 69, 0
8, 163880, Note_on_c, 5, 69, 100
8, 163976, Note_off_c, 5, 69, 0
8, 163976, Note_on_c, 5, 69, 100
8, 164168, Note_off_c, 5, 69, 0
8, 164168, Note_on_c, 5, 67, 100
8, 164264, Note_off_c, 5, 67, 0
8, 164264, Note_on_c, 5, 69, 100
8, 164360, Note_off_c, 5, 69, 0
8, 164360, Note_on_c, 5, 67, 100
8, 164456, Note_off_c, 5, 67, 0
8, 164456, Note_on_c, 5, 69, 100
8, 164552, Note_off_c, 5, 69, 0
8, 164552, Note_on_c, 5, 70, 100
8, 164648, Note_off_c, 5, 70, 0
8, 164744, Note_on_c, 5, 65, 100
8, 165128, Note_off_c, 5, 65, 0
8, 165224, Note_on_c, 5, 67, 100
8, 165320, Note_off_c, 5, 67, 0
8, 165320, Note_on_c, 5, 67, 100
8, 165416, Note_off_c, 5, 67, 0
8, 165416, Note_on_c, 5, 67, 100
8, 165512, Note_off_c, 5, 67, 0
8, 165512, Note_on_c, 5, 67, 100
8, 165608, Note_off_c, 5, 67, 0
8, 165608, Note_on_c, 5, 65, 100
8, 165704, Note_off_c, 5, 65, 0
8, 165704, Note_on_c, 5, 70, 100
8, 165800, Note_off_c, 5, 70, 0
8, 165896, Note_on_c, 5, 70, 100
8, 165992, Note_off_c, 5, 70, 0
8, 165992, Note_on_c, 5, 68, 100
8, 166088, Note_off_c, 5, 68, 0
8, 166088, Note_on_c, 5, 63, 100
8, 166280, Note_off_c, 5, 63, 0
8, 166280, Note_on_c, 5, 66, 100
8, 166664, Note_off_c, 5, 66, 0
8, 166664, Note_on_c, 5, 62, 100
8, 166760, Note_off_c, 5, 62, 0
8, 166760, Note_on_c, 5, 55, 100
8, 166856, Note_off_c, 5, 55, 0
8, 166856, Note_on_c, 5, 58, 100
8, 166952, Note_off_c, 5, 58, 0
8, 166952, Note_on_c, 5, 60, 100
8, 167048, Note_off_c, 5, 60, 0
8, 167048, Note_on_c, 5, 61, 100
8, 167240, Note_off_c, 5, 61, 0
8, 167240, Note_on_c, 5, 60, 100
8, 167336, Note_off_c, 5, 60, 0
8, 167432, Note_on_c, 5, 65, 100
8, 167720, Note_off_c, 5, 65, 0
8, 167720, Note_on_c, 5, 65, 100
8, 167816, Note_off_c, 5, 65, 0
8, 167816, Note_on_c, 5, 65, 100
8, 168200, Note_off_c, 5, 65, 0
8, 168296, Note_on_c, 5, 67, 100
8, 168392, Note_off_c, 5, 67, 0
8, 168392, Note_on_c, 5, 67, 100
8, 168488, Note_off_c, 5, 67, 0
8, 168584, Note_on_c, 5, 67, 100
8, 168968, Note_off_c, 5, 67, 0
8, 168968, Note_on_c, 5, 69, 100
8, 169256, Note_off_c, 5, 69, 0
8, 169256, Note_on_c, 5, 69, 100
8, 169352, Note_off_c, 5, 69, 0
8, 169352, Note_on_c, 5, 69, 100
8, 169544, Note_off_c, 5, 69, 0
8, 169544, Note_on_c, 5, 67, 100
8, 169640, Note_off_c, 5, 67, 0
8, 169640, Note_on_c, 5, 69, 100
8, 169736, Note_off_c, 5, 69, 0
8, 169736, Note_on_c, 5, 67, 100
8, 169832, Note_off_c, 5, 67, 0
8, 169832, Note_on_c, 5, 69, 100
8, 169928, Note_off_c, 5, 69, 0
8, 169928, Note_on_c, 5, 70, 100
8, 170024, Note_off_c, 5, 70, 0
8, 170120, Note_on_c, 5, 65, 100
8, 170504, Note_off_c, 5, 65, 0
8, 170600, Note_on_c, 5, 67, 100
8, 170696, Note_off_c, 5, 67, 0
8, 170696, Note_on_c, 5, 67, 100
8, 170792, Note_off_c, 5, 67, 0
8, 170792, Note_on_c, 5, 67, 100
8, 170888, Note_off_c, 5, 67, 0
8, 170888, Note_on_c, 5, 67, 100
8, 170984, Note_off_c, 5, 67, 0
8, 170984, Note_on_c, 5, 65, 100
8, 171080, Note_off_c, 5, 65, 0
8, 171080, Note_on_c, 5, 70, 100
8, 171176, Note_off_c, 5, 70, 0
8, 171272, Note_on_c, 5, 70, 100
8, 171368, Note_off_c, 5, 70, 0
8, 171368, Note_on_c, 5, 68, 100
8, 171464, Note_off_c, 5, 68, 0
8, 171464, Note_on_c, 5, 63, 100
8, 171656, Note_off_c, 5, 63, 0
8, 171656, Note_on_c, 5, 66, 100
8, 172040, Note_off_c, 5, 66, 0
8, 172040, Note_on_c, 5, 50, 100
8, 172136, Note_off_c, 5, 50, 0
8, 172136, Note_on_c, 5, 43, 100
8, 172232, Note_off_c, 5, 43, 0
8, 172232, Note_on_c, 5, 46, 100
8, 172328, Note_off_c, 5, 46, 0
8, 172328, Note_on_c, 5, 48, 100
8, 172424, Note_off_c, 5, 48, 0
8, 172424, Note_on_c, 5, 49, 100
8, 172616, Note_off_c, 5, 49, 0
8, 172616, Note_on_c, 5, 48, 100
8, 172712, Note_off_c, 5, 48, 0
8, 173576, Note_on_c, 5, 50, 100
8, 173672, Note_off_c, 5, 50, 0
8, 173672, Note_on_c, 5, 43, 100
8, 173768, Note_off_c, 5, 43, 0
8, 173768, Note_on_c, 5, 46, 100
8, 173864, Note_off_c, 5, 46, 0
8, 173864, Note_on_c, 5, 48, 100
8, 173960, Note_off_c, 5, 48, 0
8, 173960, Note_on_c, 5, 49, 100
8, 174152, Note_off_c, 5, 49, 0
8, 174152, Note_on_c, 5, 48, 100
8, 174248, Note_off_c, 5, 48, 0
8, 175112, Note_on_c, 5, 50, 100
8, 175208, Note_off_c, 5, 50, 0
8, 175208, Note_on_c, 5, 43, 100
8, 175304, Note_off_c, 5, 43, 0
8, 175304, Note_on_c, 5, 46, 100
8, 175400, Note_off_c, 5, 46, 0
8, 175400, Note_on_c, 5, 48, 100
8, 175496, Note_off_c, 5, 48, 0
8, 175496, Note_on_c, 5, 49, 100
8, 175688, Note_off_c, 5, 49, 0
8, 175688, Note_on_c, 5, 48, 100
8, 175784, Note_off_c, 5, 48, 0
8, 175880, Note_on_c, 5, 49, 120
8, 175880, Note_on_c, 5, 56, 120
8, 177032, Note_off_c, 5, 56, 0
8, 177032, Note_off_c, 5, 49, 0
8, 177032, Note_on_c, 5, 51, 120
8, 177032, Note_on_c, 5, 58, 120
8, 178176, Note_off_c, 5, 58, 0
8, 178176, Note_off_c, 5, 51, 0
8, 178176, Pitch_bend_c, 5, 16256
8, 178179, Pitch_bend_c, 5, 16383
8, 178184, Note_on_c, 5, 51, 120
8, 178184, Note_on_c, 5, 58, 120
8, 179720, Note_on_c, 5, 51, 110
8, 179720, Note_on_c, 5, 58, 110
8, 179843, Pitch_bend_c, 5, 12288
8, 179867, Pitch_bend_c, 5, 8192
8, 179880, Pitch_bend_c, 5, 4352
8, 179896, Pitch_bend_c, 5, 128
8, 179912, Note_off_c, 5, 58, 0
8, 179912, Note_off_c, 5, 51, 0
8, 179912, Note_off_c, 5, 58, 0
8, 179912, Note_off_c, 5, 51, 0
8, 180030, Pitch_bend_c, 5, 8192
8, 180030, End_track
9, 0, Start_track
9, 0, Title_t, "Bright Acc. Piano"
9, 0, Channel_prefix, 6
9, 0, Control_c, 6, 7, 120
9, 0, Control_c, 6, 10, 84
9, 0, Program_c, 6, 1
9, 38016, Note_on_c, 6, 55, 110
9, 38016, Note_on_c, 6, 67, 110
9, 38112, Note_off_c, 6, 67, 0
9, 38112, Note_off_c, 6, 55, 0
9, 38112, Note_on_c, 6, 57, 110
9, 38112, Note_on_c, 6, 69, 110
9, 38208, Note_off_c, 6, 69, 0
9, 38208, Note_off_c, 6, 57, 0
9, 38208, Note_on_c, 6, 58, 110
9, 38208, Note_on_c, 6, 70, 110
9, 38304, Note_off_c, 6, 70, 0
9, 38304, Note_off_c, 6, 58, 0
9, 38304, Note_on_c, 6, 60, 110
9, 38304, Note_on_c, 6, 72, 110
9, 38400, Note_off_c, 6, 72, 0
9, 38400, Note_off_c, 6, 60, 0
9, 38400, Note_on_c, 6, 74, 110
9, 38400, Note_on_c, 6, 70, 110
9, 38400, Note_on_c, 6, 67, 110
9, 38400, Note_on_c, 6, 55, 110
9, 38784, Note_off_c, 6, 55, 0
9, 38784, Note_off_c, 6, 67, 0
9, 38784, Note_off_c, 6, 70, 0
9, 38784, Note_off_c, 6, 74, 0
9, 38784, Note_on_c, 6, 67, 110
9, 38784, Note_on_c, 6, 70, 110
9, 38784, Note_on_c, 6, 74, 110
9, 38784, Note_on_c, 6, 55, 110
9, 38880, Note_off_c, 6, 74, 0
9, 38880, Note_off_c, 6, 70, 0
9, 38880, Note_off_c, 6, 67, 0
9, 38880, Note_on_c, 6, 72, 110
9, 38976, Note_off_c, 6, 72, 0
9, 38976, Note_on_c, 6, 70, 110
9, 39168, Note_off_c, 6, 55, 0
9, 39168, Note_off_c, 6, 70, 0
9, 39168, Note_on_c, 6, 65, 110
9, 39168, Note_on_c, 6, 69, 110
9, 39168, Note_on_c, 6, 72, 110
9, 39552, Note_off_c, 6, 72, 0
9, 39552, Note_off_c, 6, 69, 0
9, 39552, Note_off_c, 6, 65, 0
9, 39552, Note_on_c, 6, 77, 110
9, 39552, Note_on_c, 6, 69, 110
9, 39552, Note_on_c, 6, 72, 110
9, 39744, Note_off_c, 6, 72, 0
9, 39744, Note_off_c, 6, 69, 0
9, 39744, Note_off_c, 6, 77, 0
9, 39744, Note_on_c, 6, 72, 110
9, 39744, Note_on_c, 6, 77, 110
9, 39744, Note_on_c, 6, 81, 110
9, 39936, Note_off_c, 6, 81, 0
9, 39936, Note_off_c, 6, 77, 0
9, 39936, Note_off_c, 6, 72, 0
9, 39936, Note_on_c, 6, 84, 110
9, 39936, Note_on_c, 6, 81, 110
9, 39936, Note_on_c, 6, 77, 110
9, 40320, Note_off_c, 6, 77, 0
9, 40320, Note_off_c, 6, 81, 0
9, 40320, Note_off_c, 6, 84, 0
9, 40320, Note_on_c, 6, 77, 110
9, 40320, Note_on_c, 6, 81, 110
9, 40320, Note_on_c, 6, 84, 110
9, 40608, Note_off_c, 6, 84, 0
9, 40608, Note_off_c, 6, 81, 0
9, 40608, Note_off_c, 6, 77, 0
9, 40608, Note_on_c, 6, 76, 110
9, 40608, Note_on_c, 6, 84, 110
9, 40704, Note_off_c, 6, 84, 0
9, 40704, Note_off_c, 6, 76, 0
9, 40704, Note_on_c, 6, 76, 110
9, 40704, Note_on_c, 6, 79, 110
9, 40704, Note_on_c, 6, 84, 110
9, 41088, Note_off_c, 6, 84, 0
9, 41088, Note_off_c, 6, 79, 0
9, 41088, Note_off_c, 6, 76, 0
9, 41088, Note_on_c, 6, 72, 110
9, 41088, Note_on_c, 6, 67, 110
9, 41088, Note_on_c, 6, 64, 110
9, 41280, Note_off_c, 6, 64, 0
9, 41280, Note_off_c, 6, 67, 0
9, 41280, Note_off_c, 6, 72, 0
9, 41280, Note_on_c, 6, 64, 110
9, 41280, Note_on_c, 6, 69, 110
9, 41280, Note_on_c, 6, 67, 110
9, 41472, Note_off_c, 6, 67, 0
9, 41472, Note_off_c, 6, 69, 0
9, 41472, Note_off_c, 6, 64, 0
9, 41472, Note_on_c, 6, 72, 110
9, 41472, Note_on_c, 6, 67, 110
9, 41472, Note_on_c, 6, 63, 110
9, 41856, Note_off_c, 6, 63, 0
9, 41856, Note_off_c, 6, 67, 0
9, 41856, Note_off_c, 6, 72, 0
9, 41856, Note_on_c, 6, 72, 110
9, 41856, Note_on_c, 6, 63, 110
9, 41856, Note_on_c, 6, 67, 110
9, 41952, Note_off_c, 6, 72, 0
9, 41952, Note_on_c, 6, 70, 110
9, 42048, Note_off_c, 6, 70, 0
9, 42048, Note_on_c, 6, 69, 110
9, 42144, Note_off_c, 6, 69, 0
9, 42144, Note_on_c, 6, 67, 110
9, 42240, Note_off_c, 6, 63, 0
9, 42240, Note_off_c, 6, 67, 0
9, 42240, Note_off_c, 6, 67, 0
9, 42240, Note_on_c, 6, 62, 110
9, 42240, Note_on_c, 6, 67, 110
9, 42240, Note_on_c, 6, 70, 110
9, 42624, Note_off_c, 6, 70, 0
9, 42624, Note_off_c, 6, 67, 0
9, 42624, Note_off_c, 6, 62, 0
9, 42624, Note_on_c, 6, 62, 110
9, 42624, Note_on_c, 6, 67, 110
9, 42624, Note_on_c, 6, 70, 110
9, 42720, Note_off_c, 6, 70, 0
9, 42720, Note_on_c, 6, 72, 110
9, 42816, Note_off_c, 6, 72, 0
9, 42816, Note_on_c, 6, 70, 110
9, 43008, Note_off_c, 6, 67, 0
9, 43008, Note_off_c, 6, 62, 0
9, 43008, Note_off_c, 6, 70, 0
9, 43008, Note_on_c, 6, 60, 110
9, 43008, Note_on_c, 6, 65, 110
9, 43008, Note_on_c, 6, 69, 110
9, 43392, Note_off_c, 6, 69, 0
9, 43392, Note_off_c, 6, 65, 0
9, 43392, Note_off_c, 6, 60, 0
9, 43392, Note_on_c, 6, 67, 110
9, 43392, Note_on_c, 6, 60, 110
9, 43392, Note_on_c, 6, 65, 110
9, 43488, Note_off_c, 6, 67, 0
9, 43488, Note_on_c, 6, 69, 110
9, 43680, Note_off_c, 6, 60, 0
9, 43680, Note_off_c, 6, 65, 0
9, 43680, Note_off_c, 6, 69, 0
9, 43680, Note_on_c, 6, 60, 110
9, 43680, Note_on_c, 6, 65, 110
9, 43680, Note_on_c, 6, 69, 110
9, 43872, Note_off_c, 6, 69, 0
9, 43872, Note_off_c, 6, 65, 0
9, 43872, Note_on_c, 6, 67, 110
9, 43968, Note_off_c, 6, 60, 0
9, 43968, Note_off_c, 6, 67, 0
9, 43968, Note_on_c, 6, 60, 110
9, 43968, Note_on_c, 6, 65, 110
9, 43968, Note_on_c, 6, 69, 110
9, 44160, Note_off_c, 6, 69, 0
9, 44160, Note_off_c, 6, 65, 0
9, 44160, Note_off_c, 6, 60, 0
9, 44160, Note_on_c, 6, 67, 110
9, 44160, Note_on_c, 6, 60, 110
9, 44256, Note_off_c, 6, 67, 0
9, 44256, Note_on_c, 6, 69, 110
9, 44352, Note_off_c, 6, 69, 0
9, 44352, Note_on_c, 6, 70, 110
9, 44448, Note_off_c, 6, 70, 0
9, 44448, Note_on_c, 6, 72, 110
9, 44544, Note_off_c, 6, 60, 0
9, 44544, Note_off_c, 6, 72, 0
9, 44544, Note_on_c, 6, 55, 110
9, 44544, Note_on_c, 6, 67, 110
9, 44544, Note_on_c, 6, 70, 110
9, 44544, Note_on_c, 6, 74, 110
9, 44928, Note_off_c, 6, 74, 0
9, 44928, Note_off_c, 6, 70, 0
9, 44928, Note_off_c, 6, 67, 0
9, 44928, Note_off_c, 6, 55, 0
9, 44928, Note_on_c, 6, 74, 110
9, 44928, Note_on_c, 6, 70, 110
9, 44928, Note_on_c, 6, 67, 110
9, 44928, Note_on_c, 6, 55, 110
9, 45024, Note_off_c, 6, 67, 0
9, 45024, Note_off_c, 6, 70, 0
9, 45024, Note_off_c, 6, 74, 0
9, 45024, Note_on_c, 6, 72, 110
9, 45120, Note_off_c, 6, 72, 0
9, 45120, Note_on_c, 6, 70, 110
9, 45312, Note_off_c, 6, 55, 0
9, 45312, Note_off_c, 6, 70, 0
9, 45312, Note_on_c, 6, 65, 110
9, 45312, Note_on_c, 6, 69, 110
9, 45312, Note_on_c, 6, 72, 110
9, 45696, Note_off_c, 6, 72, 0
9, 45696, Note_off_c, 6, 69, 0
9, 45696, Note_off_c, 6, 65, 0
9, 45696, Note_on_c, 6, 69, 110
9, 45696, Note_on_c, 6, 72, 110
9, 45696, Note_on_c, 6, 77, 110
9, 45888, Note_off_c, 6, 77, 0
9, 45888, Note_off_c, 6, 72, 0
9, 45888, Note_off_c, 6, 69, 0
9, 45888, Note_on_c, 6, 72, 110
9, 45888, Note_on_c, 6, 77, 110
9, 45888, Note_on_c, 6, 81, 110
9, 46080, Note_off_c, 6, 81, 0
9, 46080, Note_off_c, 6, 77, 0
9, 46080, Note_off_c, 6, 72, 0
9, 46080, Note_on_c, 6, 77, 110
9, 46080, Note_on_c, 6, 81, 110
9, 46080, Note_on_c, 6, 84, 110
9, 46464, Note_off_c, 6, 84, 0
9, 46464, Note_off_c, 6, 81, 0
9, 46464, Note_off_c, 6, 77, 0
9, 46464, Note_on_c, 6, 77, 110
9, 46464, Note_on_c, 6, 81, 110
9, 46464, Note_on_c, 6, 84, 110
9, 46752, Note_off_c, 6, 84, 0
9, 46752, Note_off_c, 6, 81, 0
9, 46752, Note_off_c, 6, 77, 0
9, 46752, Note_on_c, 6, 76, 110
9, 46752, Note_on_c, 6, 84, 110
9, 46848, Note_off_c, 6, 84, 0
9, 46848, Note_off_c, 6, 76, 0
9, 46848, Note_on_c, 6, 76, 110
9, 46848, Note_on_c, 6, 84, 110
9, 46848, Note_on_c, 6, 79, 110
9, 47232, Note_off_c, 6, 79, 0
9, 47232, Note_off_c, 6, 84, 0
9, 47232, Note_off_c, 6, 76, 0
9, 47232, Note_on_c, 6, 64, 110
9, 47232, Note_on_c, 6, 67, 110
9, 47232, Note_on_c, 6, 72, 110
9, 47424, Note_off_c, 6, 72, 0
9, 47424, Note_off_c, 6, 67, 0
9, 47424, Note_off_c, 6, 64, 0
9, 47424, Note_on_c, 6, 67, 110
9, 47424, Note_on_c, 6, 69, 110
9, 47424, Note_on_c, 6, 62, 110
9, 47616, Note_off_c, 6, 62, 0
9, 47616, Note_off_c, 6, 69, 0
9, 47616, Note_off_c, 6, 67, 0
9, 47616, Note_on_c, 6, 63, 110
9, 47616, Note_on_c, 6, 67, 110
9, 47616, Note_on_c, 6, 72, 110
9, 48000, Note_off_c, 6, 72, 0
9, 48000, Note_off_c, 6, 67, 0
9, 48000, Note_off_c, 6, 63, 0
9, 48000, Note_on_c, 6, 72, 110
9, 48000, Note_on_c, 6, 67, 110
9, 48000, Note_on_c, 6, 63, 110
9, 48096, Note_off_c, 6, 72, 0
9, 48096, Note_on_c, 6, 70, 110
9, 48192, Note_off_c, 6, 70, 0
9, 48192, Note_on_c, 6, 69, 110
9, 48288, Note_off_c, 6, 69, 0
9, 48288, Note_on_c, 6, 67, 110
9, 48384, Note_off_c, 6, 67, 0
9, 48384, Note_off_c, 6, 63, 0
9, 48384, Note_off_c, 6, 67, 0
9, 48384, Note_on_c, 6, 62, 110
9, 48384, Note_on_c, 6, 67, 110
9, 48384, Note_on_c, 6, 70, 110
9, 48768, Note_off_c, 6, 70, 0
9, 48768, Note_off_c, 6, 67, 0
9, 48768, Note_off_c, 6, 62, 0
9, 48768, Note_on_c, 6, 70, 110
9, 48768, Note_on_c, 6, 62, 110
9, 48768, Note_on_c, 6, 67, 110
9, 48864, Note_off_c, 6, 70, 0
9, 48864, Note_on_c, 6, 72, 110
9, 48960, Note_off_c, 6, 72, 0
9, 48960, Note_on_c, 6, 70, 110
9, 49152, Note_off_c, 6, 62, 0
9, 49152, Note_off_c, 6, 67, 0
9, 49152, Note_off_c, 6, 70, 0
9, 49152, Note_on_c, 6, 60, 110
9, 49152, Note_on_c, 6, 65, 110
9, 49152, Note_on_c, 6, 69, 110
9, 49536, Note_off_c, 6, 69, 0
9, 49536, Note_off_c, 6, 65, 0
9, 49536, Note_off_c, 6, 60, 0
9, 49536, Note_on_c, 6, 67, 110
9, 49536, Note_on_c, 6, 60, 110
9, 49536, Note_on_c, 6, 65, 110
9, 49632, Note_off_c, 6, 67, 0
9, 49632, Note_on_c, 6, 69, 110
9, 49824, Note_off_c, 6, 60, 0
9, 49824, Note_off_c, 6, 65, 0
9, 49824, Note_off_c, 6, 69, 0
9, 49824, Note_on_c, 6, 60, 110
9, 49824, Note_on_c, 6, 65, 110
9, 49824, Note_on_c, 6, 69, 110
9, 50016, Note_off_c, 6, 69, 0
9, 50016, Note_off_c, 6, 65, 0
9, 50016, Note_off_c, 6, 60, 0
9, 50016, Note_on_c, 6, 67, 110
9, 50112, Note_off_c, 6, 67, 0
9, 50112, Note_on_c, 6, 60, 110
9, 50112, Note_on_c, 6, 65, 110
9, 50112, Note_on_c, 6, 69, 110
9, 50304, Note_off_c, 6, 69, 0
9, 50304, Note_off_c, 6, 65, 0
9, 50304, Note_off_c, 6, 60, 0
9, 50304, Note_on_c, 6, 72, 110
9, 50304, Note_on_c, 6, 69, 110
9, 50304, Note_on_c, 6, 65, 110
9, 50496, Note_off_c, 6, 65, 0
9, 50496, Note_off_c, 6, 69, 0
9, 50496, Note_off_c, 6, 72, 0
9, 50496, Note_on_c, 6, 69, 110
9, 50496, Note_on_c, 6, 72, 110
9, 50496, Note_on_c, 6, 77, 110
9, 50688, Note_off_c, 6, 77, 0
9, 50688, Note_off_c, 6, 72, 0
9, 50688, Note_off_c, 6, 69, 0
9, 50688, Note_on_c, 6, 72, 110
9, 50688, Note_on_c, 6, 77, 110
9, 50688, Note_on_c, 6, 81, 110
9, 51072, Note_off_c, 6, 81, 0
9, 51072, Note_off_c, 6, 77, 0
9, 51072, Note_off_c, 6, 72, 0
9, 51072, Note_on_c, 6, 79, 110
9, 51072, Note_on_c, 6, 77, 110
9, 51072, Note_on_c, 6, 72, 110
9, 51168, Note_off_c, 6, 79, 0
9, 51168, Note_on_c, 6, 81, 110
9, 51360, Note_off_c, 6, 77, 0
9, 51360, Note_off_c, 6, 72, 0
9, 51360, Note_off_c, 6, 81, 0
9, 51360, Note_on_c, 6, 72, 110
9, 51360, Note_on_c, 6, 77, 110
9, 51360, Note_on_c, 6, 81, 110
9, 51552, Note_off_c, 6, 81, 0
9, 51552, Note_off_c, 6, 77, 0
9, 51552, Note_off_c, 6, 72, 0
9, 51552, Note_on_c, 6, 79, 110
9, 51648, Note_off_c, 6, 79, 0
9, 51648, Note_on_c, 6, 72, 110
9, 51648, Note_on_c, 6, 81, 110
9, 51840, Note_off_c, 6, 81, 0
9, 51840, Note_off_c, 6, 72, 0
9, 51840, Note_on_c, 6, 77, 110
9, 51840, Note_on_c, 6, 72, 110
9, 51840, Note_on_c, 6, 79, 110
9, 52032, Note_off_c, 6, 79, 0
9, 52032, Note_on_c, 6, 81, 110
9, 52224, Note_off_c, 6, 72, 0
9, 52224, Note_off_c, 6, 77, 0
9, 52224, Note_off_c, 6, 81, 0
9, 52224, Note_on_c, 6, 70, 121
9, 52224, Note_on_c, 6, 74, 121
9, 52224, Note_on_c, 6, 79, 121
9, 52300, Note_off_c, 6, 79, 0
9, 52300, Note_off_c, 6, 74, 0
9, 52300, Note_off_c, 6, 70, 0
9, 53088, Note_on_c, 6, 69, 121
9, 53088, Note_on_c, 6, 72, 121
9, 53088, Note_on_c, 6, 77, 121
9, 53164, Note_off_c, 6, 77, 0
9, 53164, Note_off_c, 6, 72, 0
9, 53164, Note_off_c, 6, 69, 0
9, 53184, Note_on_c, 6, 69, 121
9, 53184, Note_on_c, 6, 72, 121
9, 53184, Note_on_c, 6, 77, 121
9, 53260, Note_off_c, 6, 77, 0
9, 53260, Note_off_c, 6, 72, 0
9, 53260, Note_off_c, 6, 69, 0
9, 53376, Note_on_c, 6, 69, 121
9, 53376, Note_on_c, 6, 72, 121
9, 53376, Note_on_c, 6, 77, 121
9, 53452, Note_off_c, 6, 77, 0
9, 53452, Note_off_c, 6, 72, 0
9, 53452, Note_off_c, 6, 69, 0
9, 53760, Note_on_c, 6, 69, 121
9, 53760, Note_on_c, 6, 72, 121
9, 53760, Note_on_c, 6, 77, 121
9, 53836, Note_off_c, 6, 77, 0
9, 53836, Note_off_c, 6, 72, 0
9, 53836, Note_off_c, 6, 69, 0
9, 54624, Note_on_c, 6, 70, 121
9, 54624, Note_on_c, 6, 74, 121
9, 54624, Note_on_c, 6, 79, 121
9, 54700, Note_off_c, 6, 79, 0
9, 54700, Note_off_c, 6, 74, 0
9, 54700, Note_off_c, 6, 70, 0
9, 54720, Note_on_c, 6, 79, 121
9, 54720, Note_on_c, 6, 74, 121
9, 54720, Note_on_c, 6, 70, 121
9, 54796, Note_off_c, 6, 70, 0
9, 54796, Note_off_c, 6, 74, 0
9, 54796, Note_off_c, 6, 79, 0
9, 54912, Note_on_c, 6, 70, 121
9, 54912, Note_on_c, 6, 74, 121
9, 54912, Note_on_c, 6, 79, 121
9, 54988, Note_off_c, 6, 79, 0
9, 54988, Note_off_c, 6, 74, 0
9, 54988, Note_off_c, 6, 70, 0
9, 55296, Note_on_c, 6, 70, 121
9, 55296, Note_on_c, 6, 74, 121
9, 55296, Note_on_c, 6, 79, 121
9, 55372, Note_off_c, 6, 79, 0
9, 55372, Note_off_c, 6, 74, 0
9, 55372, Note_off_c, 6, 70, 0
9, 56160, Note_on_c, 6, 69, 121
9, 56160, Note_on_c, 6, 72, 121
9, 56160, Note_on_c, 6, 77, 121
9, 56236, Note_off_c, 6, 77, 0
9, 56236, Note_off_c, 6, 72, 0
9, 56236, Note_off_c, 6, 69, 0
9, 56256, Note_on_c, 6, 69, 121
9, 56256, Note_on_c, 6, 72, 121
9, 56256, Note_on_c, 6, 77, 121
9, 56332, Note_off_c, 6, 77, 0
9, 56332, Note_off_c, 6, 72, 0
9, 56332, Note_off_c, 6, 69, 0
9, 56448, Note_on_c, 6, 69, 121
9, 56448, Note_on_c, 6, 72, 121
9, 56448, Note_on_c, 6, 77, 121
9, 56524, Note_off_c, 6, 77, 0
9, 56524, Note_off_c, 6, 72, 0
9, 56524, Note_off_c, 6, 69, 0
9, 56832, Note_on_c, 6, 69, 121
9, 56832, Note_on_c, 6, 72, 121
9, 56832, Note_on_c, 6, 77, 121
9, 56908, Note_off_c, 6, 77, 0
9, 56908, Note_off_c, 6, 72, 0
9, 56908, Note_off_c, 6, 69, 0
9, 57696, Note_on_c, 6, 79, 121
9, 57696, Note_on_c, 6, 74, 121
9, 57696, Note_on_c, 6, 70, 121
9, 57772, Note_off_c, 6, 70, 0
9, 57772, Note_off_c, 6, 74, 0
9, 57772, Note_off_c, 6, 79, 0
9, 57792, Note_on_c, 6, 70, 121
9, 57792, Note_on_c, 6, 74, 121
9, 57792, Note_on_c, 6, 79, 121
9, 57868, Note_off_c, 6, 79, 0
9, 57868, Note_off_c, 6, 74, 0
9, 57868, Note_off_c, 6, 70, 0
9, 57984, Note_on_c, 6, 70, 121
9, 57984, Note_on_c, 6, 74, 121
9, 57984, Note_on_c, 6, 79, 121
9, 58060, Note_off_c, 6, 79, 0
9, 58060, Note_off_c, 6, 74, 0
9, 58060, Note_off_c, 6, 70, 0
9, 58176, Note_on_c, 6, 74, 121
9, 58176, Note_on_c, 6, 70, 121
9, 58252, Note_off_c, 6, 70, 0
9, 58252, Note_off_c, 6, 74, 0
9, 58272, Note_on_c, 6, 74, 121
9, 58272, Note_on_c, 6, 70, 121
9, 58348, Note_off_c, 6, 70, 0
9, 58348, Note_off_c, 6, 74, 0
9, 58368, Note_on_c, 6, 70, 110
9, 58368, Note_on_c, 6, 74, 110
9, 58368, Note_on_c, 6, 79, 110
9, 58656, Note_off_c, 6, 79, 0
9, 58656, Note_off_c, 6, 74, 0
9, 58656, Note_off_c, 6, 70, 0
9, 58656, Note_on_c, 6, 67, 110
9, 58656, Note_on_c, 6, 70, 110
9, 58656, Note_on_c, 6, 74, 110
9, 58944, Note_off_c, 6, 74, 0
9, 58944, Note_off_c, 6, 70, 0
9, 58944, Note_off_c, 6, 67, 0
9, 58944, Note_on_c, 6, 70, 110
9, 58944, Note_on_c, 6, 74, 110
9, 58944, Note_on_c, 6, 79, 110
9, 59136, Note_off_c, 6, 79, 0
9, 59136, Note_off_c, 6, 74, 0
9, 59136, Note_off_c, 6, 70, 0
9, 59232, Note_on_c, 6, 72, 110
9, 59232, Note_on_c, 6, 69, 110
9, 59232, Note_on_c, 6, 77, 110
9, 59328, Note_off_c, 6, 77, 0
9, 59328, Note_off_c, 6, 69, 0
9, 59328, Note_off_c, 6, 72, 0
9, 59328, Note_on_c, 6, 72, 110
9, 59328, Note_on_c, 6, 69, 110
9, 59328, Note_on_c, 6, 77, 110
9, 59520, Note_off_c, 6, 77, 0
9, 59520, Note_off_c, 6, 69, 0
9, 59520, Note_off_c, 6, 72, 0
9, 59520, Note_on_c, 6, 72, 110
9, 59520, Note_on_c, 6, 69, 110
9, 59520, Note_on_c, 6, 77, 110
9, 59712, Note_off_c, 6, 77, 0
9, 59712, Note_off_c, 6, 69, 0
9, 59712, Note_off_c, 6, 72, 0
9, 59904, Note_on_c, 6, 65, 110
9, 59904, Note_on_c, 6, 69, 110
9, 59904, Note_on_c, 6, 72, 110
9, 60192, Note_off_c, 6, 72, 0
9, 60192, Note_off_c, 6, 69, 0
9, 60192, Note_off_c, 6, 65, 0
9, 60192, Note_on_c, 6, 77, 110
9, 60192, Note_on_c, 6, 72, 110
9, 60192, Note_on_c, 6, 69, 110
9, 60480, Note_off_c, 6, 69, 0
9, 60480, Note_off_c, 6, 72, 0
9, 60480, Note_off_c, 6, 77, 0
9, 60480, Note_on_c, 6, 72, 110
9, 60480, Note_on_c, 6, 77, 110
9, 60480, Note_on_c, 6, 81, 110
9, 60672, Note_off_c, 6, 81, 0
9, 60672, Note_off_c, 6, 77, 0
9, 60672, Note_off_c, 6, 72, 0
9, 60768, Note_on_c, 6, 70, 110
9, 60768, Note_on_c, 6, 74, 110
9, 60768, Note_on_c, 6, 79, 110
9, 60864, Note_off_c, 6, 79, 0
9, 60864, Note_off_c, 6, 74, 0
9, 60864, Note_off_c, 6, 70, 0
9, 60864, Note_on_c, 6, 70, 110
9, 60864, Note_on_c, 6, 74, 110
9, 60864, Note_on_c, 6, 79, 110
9, 61056, Note_off_c, 6, 79, 0
9, 61056, Note_off_c, 6, 74, 0
9, 61056, Note_off_c, 6, 70, 0
9, 61056, Note_on_c, 6, 70, 110
9, 61056, Note_on_c, 6, 74, 110
9, 61056, Note_on_c, 6, 79, 110
9, 61248, Note_off_c, 6, 79, 0
9, 61248, Note_off_c, 6, 74, 0
9, 61248, Note_off_c, 6, 70, 0
9, 61440, Note_on_c, 6, 60, 110
9, 61440, Note_on_c, 6, 63, 110
9, 61440, Note_on_c, 6, 67, 110
9, 61440, Note_on_c, 6, 70, 110
9, 61728, Note_off_c, 6, 70, 0
9, 61728, Note_off_c, 6, 67, 0
9, 61728, Note_off_c, 6, 63, 0
9, 61728, Note_off_c, 6, 60, 0
9, 61728, Note_on_c, 6, 60, 110
9, 61728, Note_on_c, 6, 63, 110
9, 61728, Note_on_c, 6, 67, 110
9, 61728, Note_on_c, 6, 70, 110
9, 62016, Note_off_c, 6, 70, 0
9, 62016, Note_off_c, 6, 67, 0
9, 62016, Note_off_c, 6, 63, 0
9, 62016, Note_off_c, 6, 60, 0
9, 62016, Note_on_c, 6, 69, 110
9, 62208, Note_off_c, 6, 69, 0
9, 62208, Note_on_c, 6, 60, 110
9, 62208, Note_on_c, 6, 63, 110
9, 62208, Note_on_c, 6, 67, 110
9, 62208, Note_on_c, 6, 70, 110
9, 62496, Note_off_c, 6, 70, 0
9, 62496, Note_off_c, 6, 67, 0
9, 62496, Note_off_c, 6, 63, 0
9, 62496, Note_off_c, 6, 60, 0
9, 62496, Note_on_c, 6, 60, 110
9, 62496, Note_on_c, 6, 63, 110
9, 62496, Note_on_c, 6, 67, 110
9, 62496, Note_on_c, 6, 70, 110
9, 62784, Note_off_c, 6, 70, 0
9, 62784, Note_off_c, 6, 67, 0
9, 62784, Note_off_c, 6, 63, 0
9, 62784, Note_off_c, 6, 60, 0
9, 62784, Note_on_c, 6, 70, 110
9, 62976, Note_off_c, 6, 70, 0
9, 62976, Note_on_c, 6, 60, 110
9, 62976, Note_on_c, 6, 65, 110
9, 62976, Note_on_c, 6, 69, 110
9, 63264, Note_off_c, 6, 69, 0
9, 63264, Note_off_c, 6, 65, 0
9, 63264, Note_off_c, 6, 60, 0
9, 63264, Note_on_c, 6, 60, 110
9, 63264, Note_on_c, 6, 65, 110
9, 63264, Note_on_c, 6, 69, 110
9, 63552, Note_off_c, 6, 69, 0
9, 63552, Note_off_c, 6, 65, 0
9, 63552, Note_off_c, 6, 60, 0
9, 63552, Note_on_c, 6, 70, 110
9, 63744, Note_off_c, 6, 70, 0
9, 63744, Note_on_c, 6, 60, 110
9, 63744, Note_on_c, 6, 69, 110
9, 63744, Note_on_c, 6, 65, 110
9, 64032, Note_off_c, 6, 65, 0
9, 64032, Note_off_c, 6, 69, 0
9, 64032, Note_off_c, 6, 60, 0
9, 64032, Note_on_c, 6, 60, 110
9, 64032, Note_on_c, 6, 65, 110
9, 64032, Note_on_c, 6, 69, 110
9, 64320, Note_off_c, 6, 69, 0
9, 64320, Note_off_c, 6, 65, 0
9, 64320, Note_off_c, 6, 60, 0
9, 64512, Note_on_c, 6, 60, 110
9, 64512, Note_on_c, 6, 65, 110
9, 64512, Note_on_c, 6, 69, 110
9, 64800, Note_off_c, 6, 69, 0
9, 64800, Note_off_c, 6, 65, 0
9, 64800, Note_off_c, 6, 60, 0
9, 64800, Note_on_c, 6, 60, 110
9, 64800, Note_on_c, 6, 65, 110
9, 64800, Note_on_c, 6, 69, 110
9, 65088, Note_off_c, 6, 69, 0
9, 65088, Note_off_c, 6, 65, 0
9, 65088, Note_off_c, 6, 60, 0
9, 65088, Note_on_c, 6, 70, 110
9, 65280, Note_off_c, 6, 70, 0
9, 65280, Note_on_c, 6, 60, 110
9, 65280, Note_on_c, 6, 69, 110
9, 65280, Note_on_c, 6, 65, 110
9, 65568, Note_off_c, 6, 65, 0
9, 65568, Note_off_c, 6, 69, 0
9, 65568, Note_off_c, 6, 60, 0
9, 65568, Note_on_c, 6, 60, 110
9, 65568, Note_on_c, 6, 65, 110
9, 65568, Note_on_c, 6, 69, 110
9, 65856, Note_off_c, 6, 69, 0
9, 65856, Note_off_c, 6, 65, 0
9, 65856, Note_off_c, 6, 60, 0
9, 66048, Note_on_c, 6, 79, 110
9, 66048, Note_on_c, 6, 74, 110
9, 66048, Note_on_c, 6, 70, 110
9, 66144, Note_off_c, 6, 70, 0
9, 66144, Note_off_c, 6, 74, 0
9, 66144, Note_off_c, 6, 79, 0
9, 66912, Note_on_c, 6, 69, 110
9, 66912, Note_on_c, 6, 72, 110
9, 66912, Note_on_c, 6, 77, 110
9, 67008, Note_off_c, 6, 77, 0
9, 67008, Note_off_c, 6, 72, 0
9, 67008, Note_off_c, 6, 69, 0
9, 67008, Note_on_c, 6, 69, 110
9, 67008, Note_on_c, 6, 72, 110
9, 67008, Note_on_c, 6, 77, 110
9, 67104, Note_off_c, 6, 77, 0
9, 67104, Note_off_c, 6, 72, 0
9, 67104, Note_off_c, 6, 69, 0
9, 67200, Note_on_c, 6, 69, 110
9, 67200, Note_on_c, 6, 72, 110
9, 67200, Note_on_c, 6, 77, 110
9, 67296, Note_off_c, 6, 77, 0
9, 67296, Note_off_c, 6, 72, 0
9, 67296, Note_off_c, 6, 69, 0
9, 67584, Note_on_c, 6, 69, 110
9, 67584, Note_on_c, 6, 72, 110
9, 67584, Note_on_c, 6, 77, 110
9, 67680, Note_off_c, 6, 77, 0
9, 67680, Note_off_c, 6, 72, 0
9, 67680, Note_off_c, 6, 69, 0
9, 68448, Note_on_c, 6, 67, 110
9, 68448, Note_on_c, 6, 72, 110
9, 68448, Note_on_c, 6, 76, 110
9, 68544, Note_off_c, 6, 76, 0
9, 68544, Note_off_c, 6, 72, 0
9, 68544, Note_off_c, 6, 67, 0
9, 68544, Note_on_c, 6, 67, 110
9, 68544, Note_on_c, 6, 72, 110
9, 68544, Note_on_c, 6, 76, 110
9, 68736, Note_off_c, 6, 76, 0
9, 68736, Note_off_c, 6, 72, 0
9, 68736, Note_off_c, 6, 67, 0
9, 68736, Note_on_c, 6, 67, 110
9, 68736, Note_on_c, 6, 72, 110
9, 68736, Note_on_c, 6, 76, 110
9, 68928, Note_off_c, 6, 76, 0
9, 68928, Note_off_c, 6, 72, 0
9, 68928, Note_off_c, 6, 67, 0
9, 68928, Note_on_c, 6, 74, 110
9, 68928, Note_on_c, 6, 70, 110
9, 68928, Note_on_c, 6, 67, 110
9, 69024, Note_off_c, 6, 67, 0
9, 69024, Note_off_c, 6, 70, 0
9, 69024, Note_off_c, 6, 74, 0
9, 69024, Note_on_c, 6, 70, 110
9, 69024, Note_on_c, 6, 74, 110
9, 69024, Note_on_c, 6, 67, 110
9, 69120, Note_off_c, 6, 67, 0
9, 69120, Note_off_c, 6, 74, 0
9, 69120, Note_off_c, 6, 70, 0
9, 69120, Note_on_c, 6, 63, 110
9, 69120, Note_on_c, 6, 67, 110
9, 69120, Note_on_c, 6, 72, 110
9, 69408, Note_off_c, 6, 72, 0
9, 69408, Note_off_c, 6, 67, 0
9, 69408, Note_off_c, 6, 63, 0
9, 69408, Note_on_c, 6, 72, 110
9, 69408, Note_on_c, 6, 67, 110
9, 69408, Note_on_c, 6, 63, 110
9, 69696, Note_off_c, 6, 63, 0
9, 69696, Note_off_c, 6, 67, 0
9, 69696, Note_off_c, 6, 72, 0
9, 69696, Note_on_c, 6, 65, 110
9, 69888, Note_off_c, 6, 65, 0
9, 69984, Note_on_c, 6, 70, 110
9, 69984, Note_on_c, 6, 67, 110
9, 69984, Note_on_c, 6, 62, 110
9, 70080, Note_off_c, 6, 62, 0
9, 70080, Note_off_c, 6, 67, 0
9, 70080, Note_off_c, 6, 70, 0
9, 70080, Note_on_c, 6, 62, 110
9, 70080, Note_on_c, 6, 67, 110
9, 70080, Note_on_c, 6, 70, 110
9, 70272, Note_off_c, 6, 70, 0
9, 70272, Note_off_c, 6, 67, 0
9, 70272, Note_off_c, 6, 62, 0
9, 70272, Note_on_c, 6, 62, 110
9, 70272, Note_on_c, 6, 67, 110
9, 70272, Note_on_c, 6, 70, 110
9, 70464, Note_off_c, 6, 70, 0
9, 70464, Note_off_c, 6, 67, 0
9, 70464, Note_off_c, 6, 62, 0
9, 70464, Note_on_c, 6, 58, 110
9, 70656, Note_off_c, 6, 58, 0
9, 70656, Note_on_c, 6, 60, 110
9, 70656, Note_on_c, 6, 65, 110
9, 70656, Note_on_c, 6, 69, 110
9, 70944, Note_off_c, 6, 69, 0
9, 70944, Note_off_c, 6, 65, 0
9, 70944, Note_off_c, 6, 60, 0
9, 70944, Note_on_c, 6, 69, 110
9, 70944, Note_on_c, 6, 65, 110
9, 70944, Note_on_c, 6, 60, 110
9, 71424, Note_off_c, 6, 60, 0
9, 71424, Note_off_c, 6, 65, 0
9, 71424, Note_off_c, 6, 69, 0
9, 71424, Note_on_c, 6, 60, 110
9, 71424, Note_on_c, 6, 65, 110
9, 71424, Note_on_c, 6, 69, 110
9, 71712, Note_off_c, 6, 69, 0
9, 71712, Note_off_c, 6, 65, 0
9, 71712, Note_off_c, 6, 60, 0
9, 71712, Note_on_c, 6, 69, 110
9, 71712, Note_on_c, 6, 65, 110
9, 71712, Note_on_c, 6, 60, 110
9, 72192, Note_off_c, 6, 60, 0
9, 72192, Note_off_c, 6, 65, 0
9, 72192, Note_off_c, 6, 69, 0
9, 72192, Note_on_c, 6, 79, 110
9, 72192, Note_on_c, 6, 74, 110
9, 72192, Note_on_c, 6, 70, 110
9, 72288, Note_off_c, 6, 70, 0
9, 72288, Note_off_c, 6, 74, 0
9, 72288, Note_off_c, 6, 79, 0
9, 73056, Note_on_c, 6, 69, 110
9, 73056, Note_on_c, 6, 72, 110
9, 73056, Note_on_c, 6, 77, 110
9, 73152, Note_off_c, 6, 77, 0
9, 73152, Note_off_c, 6, 72, 0
9, 73152, Note_off_c, 6, 69, 0
9, 73152, Note_on_c, 6, 69, 110
9, 73152, Note_on_c, 6, 72, 110
9, 73152, Note_on_c, 6, 77, 110
9, 73248, Note_off_c, 6, 77, 0
9, 73248, Note_off_c, 6, 72, 0
9, 73248, Note_off_c, 6, 69, 0
9, 73344, Note_on_c, 6, 69, 110
9, 73344, Note_on_c, 6, 72, 110
9, 73344, Note_on_c, 6, 77, 110
9, 73440, Note_off_c, 6, 77, 0
9, 73440, Note_off_c, 6, 72, 0
9, 73440, Note_off_c, 6, 69, 0
9, 73728, Note_on_c, 6, 69, 110
9, 73728, Note_on_c, 6, 72, 110
9, 73728, Note_on_c, 6, 77, 110
9, 73824, Note_off_c, 6, 77, 0
9, 73824, Note_off_c, 6, 72, 0
9, 73824, Note_off_c, 6, 69, 0
9, 74592, Note_on_c, 6, 67, 110
9, 74592, Note_on_c, 6, 72, 110
9, 74592, Note_on_c, 6, 76, 110
9, 74688, Note_off_c, 6, 76, 0
9, 74688, Note_off_c, 6, 72, 0
9, 74688, Note_off_c, 6, 67, 0
9, 74688, Note_on_c, 6, 67, 110
9, 74688, Note_on_c, 6, 72, 110
9, 74688, Note_on_c, 6, 76, 110
9, 74880, Note_off_c, 6, 76, 0
9, 74880, Note_off_c, 6, 72, 0
9, 74880, Note_off_c, 6, 67, 0
9, 74880, Note_on_c, 6, 67, 110
9, 74880, Note_on_c, 6, 72, 110
9, 74880, Note_on_c, 6, 76, 110
9, 75072, Note_off_c, 6, 76, 0
9, 75072, Note_off_c, 6, 72, 0
9, 75072, Note_off_c, 6, 67, 0
9, 75072, Note_on_c, 6, 74, 110
9, 75072, Note_on_c, 6, 70, 110
9, 75072, Note_on_c, 6, 67, 110
9, 75168, Note_off_c, 6, 67, 0
9, 75168, Note_off_c, 6, 70, 0
9, 75168, Note_off_c, 6, 74, 0
9, 75168, Note_on_c, 6, 70, 110
9, 75168, Note_on_c, 6, 74, 110
9, 75168, Note_on_c, 6, 67, 110
9, 75264, Note_off_c, 6, 67, 0
9, 75264, Note_off_c, 6, 74, 0
9, 75264, Note_off_c, 6, 70, 0
9, 75264, Note_on_c, 6, 63, 110
9, 75264, Note_on_c, 6, 67, 110
9, 75264, Note_on_c, 6, 72, 110
9, 75552, Note_off_c, 6, 72, 0
9, 75552, Note_off_c, 6, 67, 0
9, 75552, Note_off_c, 6, 63, 0
9, 75552, Note_on_c, 6, 72, 110
9, 75552, Note_on_c, 6, 67, 110
9, 75552, Note_on_c, 6, 63, 110
9, 75840, Note_off_c, 6, 63, 0
9, 75840, Note_off_c, 6, 67, 0
9, 75840, Note_off_c, 6, 72, 0
9, 75840, Note_on_c, 6, 65, 110
9, 76032, Note_off_c, 6, 65, 0
9, 76128, Note_on_c, 6, 70, 110
9, 76128, Note_on_c, 6, 67, 110
9, 76128, Note_on_c, 6, 62, 110
9, 76224, Note_off_c, 6, 62, 0
9, 76224, Note_off_c, 6, 67, 0
9, 76224, Note_off_c, 6, 70, 0
9, 76224, Note_on_c, 6, 62, 110
9, 76224, Note_on_c, 6, 67, 110
9, 76224, Note_on_c, 6, 70, 110
9, 76416, Note_off_c, 6, 70, 0
9, 76416, Note_off_c, 6, 67, 0
9, 76416, Note_off_c, 6, 62, 0
9, 76416, Note_on_c, 6, 62, 110
9, 76416, Note_on_c, 6, 67, 110
9, 76416, Note_on_c, 6, 70, 110
9, 76608, Note_off_c, 6, 70, 0
9, 76608, Note_off_c, 6, 67, 0
9, 76608, Note_off_c, 6, 62, 0
9, 76608, Note_on_c, 6, 58, 110
9, 76800, Note_off_c, 6, 58, 0
9, 76800, Note_on_c, 6, 60, 110
9, 76800, Note_on_c, 6, 65, 110
9, 76800, Note_on_c, 6, 69, 110
9, 77088, Note_off_c, 6, 69, 0
9, 77088, Note_off_c, 6, 65, 0
9, 77088, Note_off_c, 6, 60, 0
9, 77088, Note_on_c, 6, 69, 110
9, 77088, Note_on_c, 6, 65, 110
9, 77088, Note_on_c, 6, 60, 110
9, 77568, Note_off_c, 6, 60, 0
9, 77568, Note_off_c, 6, 65, 0
9, 77568, Note_off_c, 6, 69, 0
9, 77568, Note_on_c, 6, 60, 110
9, 77568, Note_on_c, 6, 65, 110
9, 77568, Note_on_c, 6, 69, 110
9, 77856, Note_off_c, 6, 69, 0
9, 77856, Note_off_c, 6, 65, 0
9, 77856, Note_off_c, 6, 60, 0
9, 77856, Note_on_c, 6, 69, 110
9, 77856, Note_on_c, 6, 65, 110
9, 77856, Note_on_c, 6, 60, 110
9, 78336, Note_off_c, 6, 60, 0
9, 78336, Note_off_c, 6, 65, 0
9, 78336, Note_off_c, 6, 69, 0
9, 78336, Note_on_c, 6, 60, 110
9, 78336, Note_on_c, 6, 65, 110
9, 78336, Note_on_c, 6, 69, 110
9, 78624, Note_off_c, 6, 69, 0
9, 78624, Note_off_c, 6, 65, 0
9, 78624, Note_off_c, 6, 60, 0
9, 78624, Note_on_c, 6, 69, 110
9, 78624, Note_on_c, 6, 65, 110
9, 78624, Note_on_c, 6, 60, 110
9, 79104, Note_off_c, 6, 60, 0
9, 79104, Note_off_c, 6, 65, 0
9, 79104, Note_off_c, 6, 69, 0
9, 79104, Note_on_c, 6, 60, 110
9, 79104, Note_on_c, 6, 65, 110
9, 79104, Note_on_c, 6, 69, 110
9, 79392, Note_off_c, 6, 69, 0
9, 79392, Note_off_c, 6, 65, 0
9, 79392, Note_off_c, 6, 60, 0
9, 79488, Note_on_c, 6, 55, 110
9, 79488, Note_on_c, 6, 67, 110
9, 79584, Note_off_c, 6, 67, 0
9, 79584, Note_off_c, 6, 55, 0
9, 79584, Note_on_c, 6, 57, 110
9, 79584, Note_on_c, 6, 69, 110
9, 79680, Note_off_c, 6, 69, 0
9, 79680, Note_off_c, 6, 57, 0
9, 79680, Note_on_c, 6, 58, 110
9, 79680, Note_on_c, 6, 70, 110
9, 79776, Note_off_c, 6, 70, 0
9, 79776, Note_off_c, 6, 58, 0
9, 79776, Note_on_c, 6, 60, 110
9, 79776, Note_on_c, 6, 72, 110
9, 79872, Note_off_c, 6, 72, 0
9, 79872, Note_off_c, 6, 60, 0
9, 79872, Note_on_c, 6, 74, 110
9, 79872, Note_on_c, 6, 70, 110
9, 79872, Note_on_c, 6, 67, 110
9, 79872, Note_on_c, 6, 55, 110
9, 80256, Note_off_c, 6, 55, 0
9, 80256, Note_off_c, 6, 67, 0
9, 80256, Note_off_c, 6, 70, 0
9, 80256, Note_off_c, 6, 74, 0
9, 80256, Note_on_c, 6, 67, 110
9, 80256, Note_on_c, 6, 70, 110
9, 80256, Note_on_c, 6, 74, 110
9, 80256, Note_on_c, 6, 55, 110
9, 80352, Note_off_c, 6, 74, 0
9, 80352, Note_off_c, 6, 70, 0
9, 80352, Note_off_c, 6, 67, 0
9, 80352, Note_on_c, 6, 72, 110
9, 80448, Note_off_c, 6, 72, 0
9, 80448, Note_on_c, 6, 70, 110
9, 80640, Note_off_c, 6, 55, 0
9, 80640, Note_off_c, 6, 70, 0
9, 80640, Note_on_c, 6, 65, 110
9, 80640, Note_on_c, 6, 69, 110
9, 80640, Note_on_c, 6, 72, 110
9, 81024, Note_off_c, 6, 72, 0
9, 81024, Note_off_c, 6, 69, 0
9, 81024, Note_off_c, 6, 65, 0
9, 81024, Note_on_c, 6, 77, 110
9, 81024, Note_on_c, 6, 69, 110
9, 81024, Note_on_c, 6, 72, 110
9, 81216, Note_off_c, 6, 72, 0
9, 81216, Note_off_c, 6, 69, 0
9, 81216, Note_off_c, 6, 77, 0
9, 81216, Note_on_c, 6, 72, 110
9, 81216, Note_on_c, 6, 77, 110
9, 81216, Note_on_c, 6, 81, 110
9, 81408, Note_off_c, 6, 81, 0
9, 81408, Note_off_c, 6, 77, 0
9, 81408, Note_off_c, 6, 72, 0
9, 81408, Note_on_c, 6, 84, 110
9, 81408, Note_on_c, 6, 81, 110
9, 81408, Note_on_c, 6, 77, 110
9, 81792, Note_off_c, 6, 77, 0
9, 81792, Note_off_c, 6, 81, 0
9, 81792, Note_off_c, 6, 84, 0
9, 81792, Note_on_c, 6, 77, 110
9, 81792, Note_on_c, 6, 81, 110
9, 81792, Note_on_c, 6, 84, 110
9, 82080, Note_off_c, 6, 84, 0
9, 82080, Note_off_c, 6, 81, 0
9, 82080, Note_off_c, 6, 77, 0
9, 82080, Note_on_c, 6, 76, 110
9, 82080, Note_on_c, 6, 84, 110
9, 82176, Note_off_c, 6, 84, 0
9, 82176, Note_off_c, 6, 76, 0
9, 82176, Note_on_c, 6, 76, 110
9, 82176, Note_on_c, 6, 79, 110
9, 82176, Note_on_c, 6, 84, 110
9, 82560, Note_off_c, 6, 84, 0
9, 82560, Note_off_c, 6, 79, 0
9, 82560, Note_off_c, 6, 76, 0
9, 82560, Note_on_c, 6, 72, 110
9, 82560, Note_on_c, 6, 67, 110
9, 82560, Note_on_c, 6, 64, 110
9, 82752, Note_off_c, 6, 64, 0
9, 82752, Note_off_c, 6, 67, 0
9, 82752, Note_off_c, 6, 72, 0
9, 82752, Note_on_c, 6, 64, 110
9, 82752, Note_on_c, 6, 69, 110
9, 82752, Note_on_c, 6, 67, 110
9, 82944, Note_off_c, 6, 67, 0
9, 82944, Note_off_c, 6, 69, 0
9, 82944, Note_off_c, 6, 64, 0
9, 82944, Note_on_c, 6, 72, 110
9, 82944, Note_on_c, 6, 67, 110
9, 82944, Note_on_c, 6, 63, 110
9, 83328, Note_off_c, 6, 63, 0
9, 83328, Note_off_c, 6, 67, 0
9, 83328, Note_off_c, 6, 72, 0
9, 83328, Note_on_c, 6, 72, 110
9, 83328, Note_on_c, 6, 63, 110
9, 83328, Note_on_c, 6, 67, 110
9, 83424, Note_off_c, 6, 72, 0
9, 83424, Note_on_c, 6, 70, 110
9, 83520, Note_off_c, 6, 70, 0
9, 83520, Note_on_c, 6, 69, 110
9, 83616, Note_off_c, 6, 69, 0
9, 83616, Note_on_c, 6, 67, 110
9, 83712, Note_off_c, 6, 63, 0
9, 83712, Note_off_c, 6, 67, 0
9, 83712, Note_off_c, 6, 67, 0
9, 83712, Note_on_c, 6, 62, 110
9, 83712, Note_on_c, 6, 67, 110
9, 83712, Note_on_c, 6, 70, 110
9, 84096, Note_off_c, 6, 70, 0
9, 84096, Note_off_c, 6, 67, 0
9, 84096, Note_off_c, 6, 62, 0
9, 84096, Note_on_c, 6, 62, 110
9, 84096, Note_on_c, 6, 67, 110
9, 84096, Note_on_c, 6, 70, 110
9, 84192, Note_off_c, 6, 70, 0
9, 84192, Note_on_c, 6, 72, 110
9, 84288, Note_off_c, 6, 72, 0
9, 84288, Note_on_c, 6, 70, 110
9, 84480, Note_off_c, 6, 67, 0
9, 84480, Note_off_c, 6, 62, 0
9, 84480, Note_off_c, 6, 70, 0
9, 84480, Note_on_c, 6, 60, 110
9, 84480, Note_on_c, 6, 65, 110
9, 84480, Note_on_c, 6, 69, 110
9, 84864, Note_off_c, 6, 69, 0
9, 84864, Note_off_c, 6, 65, 0
9, 84864, Note_off_c, 6, 60, 0
9, 84864, Note_on_c, 6, 67, 110
9, 84864, Note_on_c, 6, 60, 110
9, 84864, Note_on_c, 6, 65, 110
9, 84960, Note_off_c, 6, 67, 0
9, 84960, Note_on_c, 6, 69, 110
9, 85152, Note_off_c, 6, 60, 0
9, 85152, Note_off_c, 6, 65, 0
9, 85152, Note_off_c, 6, 69, 0
9, 85152, Note_on_c, 6, 60, 110
9, 85152, Note_on_c, 6, 65, 110
9, 85152, Note_on_c, 6, 69, 110
9, 85344, Note_off_c, 6, 69, 0
9, 85344, Note_off_c, 6, 65, 0
9, 85344, Note_on_c, 6, 67, 110
9, 85440, Note_off_c, 6, 60, 0
9, 85440, Note_off_c, 6, 67, 0
9, 85440, Note_on_c, 6, 60, 110
9, 85440, Note_on_c, 6, 65, 110
9, 85440, Note_on_c, 6, 69, 110
9, 85632, Note_off_c, 6, 69, 0
9, 85632, Note_off_c, 6, 65, 0
9, 85632, Note_off_c, 6, 60, 0
9, 85632, Note_on_c, 6, 67, 110
9, 85632, Note_on_c, 6, 60, 110
9, 85728, Note_off_c, 6, 67, 0
9, 85728, Note_on_c, 6, 69, 110
9, 85824, Note_off_c, 6, 69, 0
9, 85824, Note_on_c, 6, 70, 110
9, 85920, Note_off_c, 6, 70, 0
9, 85920, Note_on_c, 6, 72, 110
9, 86016, Note_off_c, 6, 60, 0
9, 86016, Note_off_c, 6, 72, 0
9, 86016, Note_on_c, 6, 55, 110
9, 86016, Note_on_c, 6, 67, 110
9, 86016, Note_on_c, 6, 70, 110
9, 86016, Note_on_c, 6, 74, 110
9, 86400, Note_off_c, 6, 74, 0
9, 86400, Note_off_c, 6, 70, 0
9, 86400, Note_off_c, 6, 67, 0
9, 86400, Note_off_c, 6, 55, 0
9, 86400, Note_on_c, 6, 74, 110
9, 86400, Note_on_c, 6, 70, 110
9, 86400, Note_on_c, 6, 67, 110
9, 86400, Note_on_c, 6, 55, 110
9, 86496, Note_off_c, 6, 67, 0
9, 86496, Note_off_c, 6, 70, 0
9, 86496, Note_off_c, 6, 74, 0
9, 86496, Note_on_c, 6, 72, 110
9, 86592, Note_off_c, 6, 72, 0
9, 86592, Note_on_c, 6, 70, 110
9, 86784, Note_off_c, 6, 55, 0
9, 86784, Note_off_c, 6, 70, 0
9, 86784, Note_on_c, 6, 65, 110
9, 86784, Note_on_c, 6, 69, 110
9, 86784, Note_on_c, 6, 72, 110
9, 87168, Note_off_c, 6, 72, 0
9, 87168, Note_off_c, 6, 69, 0
9, 87168, Note_off_c, 6, 65, 0
9, 87168, Note_on_c, 6, 69, 110
9, 87168, Note_on_c, 6, 72, 110
9, 87168, Note_on_c, 6, 77, 110
9, 87360, Note_off_c, 6, 77, 0
9, 87360, Note_off_c, 6, 72, 0
9, 87360, Note_off_c, 6, 69, 0
9, 87360, Note_on_c, 6, 72, 110
9, 87360, Note_on_c, 6, 77, 110
9, 87360, Note_on_c, 6, 81, 110
9, 87552, Note_off_c, 6, 81, 0
9, 87552, Note_off_c, 6, 77, 0
9, 87552, Note_off_c, 6, 72, 0
9, 87552, Note_on_c, 6, 77, 110
9, 87552, Note_on_c, 6, 81, 110
9, 87552, Note_on_c, 6, 84, 110
9, 87936, Note_off_c, 6, 84, 0
9, 87936, Note_off_c, 6, 81, 0
9, 87936, Note_off_c, 6, 77, 0
9, 87936, Note_on_c, 6, 77, 110
9, 87936, Note_on_c, 6, 81, 110
9, 87936, Note_on_c, 6, 84, 110
9, 88224, Note_off_c, 6, 84, 0
9, 88224, Note_off_c, 6, 81, 0
9, 88224, Note_off_c, 6, 77, 0
9, 88224, Note_on_c, 6, 76, 110
9, 88224, Note_on_c, 6, 84, 110
9, 88320, Note_off_c, 6, 84, 0
9, 88320, Note_off_c, 6, 76, 0
9, 88320, Note_on_c, 6, 76, 110
9, 88320, Note_on_c, 6, 84, 110
9, 88320, Note_on_c, 6, 79, 110
9, 88704, Note_off_c, 6, 79, 0
9, 88704, Note_off_c, 6, 84, 0
9, 88704, Note_off_c, 6, 76, 0
9, 88704, Note_on_c, 6, 64, 110
9, 88704, Note_on_c, 6, 67, 110
9, 88704, Note_on_c, 6, 72, 110
9, 88896, Note_off_c, 6, 72, 0
9, 88896, Note_off_c, 6, 67, 0
9, 88896, Note_off_c, 6, 64, 0
9, 88896, Note_on_c, 6, 67, 110
9, 88896, Note_on_c, 6, 69, 110
9, 88896, Note_on_c, 6, 62, 110
9, 89088, Note_off_c, 6, 62, 0
9, 89088, Note_off_c, 6, 69, 0
9, 89088, Note_off_c, 6, 67, 0
9, 89088, Note_on_c, 6, 63, 110
9, 89088, Note_on_c, 6, 67, 110
9, 89088, Note_on_c, 6, 72, 110
9, 89472, Note_off_c, 6, 72, 0
9, 89472, Note_off_c, 6, 67, 0
9, 89472, Note_off_c, 6, 63, 0
9, 89472, Note_on_c, 6, 72, 110
9, 89472, Note_on_c, 6, 67, 110
9, 89472, Note_on_c, 6, 63, 110
9, 89568, Note_off_c, 6, 72, 0
9, 89568, Note_on_c, 6, 70, 110
9, 89664, Note_off_c, 6, 70, 0
9, 89664, Note_on_c, 6, 69, 110
9, 89760, Note_off_c, 6, 69, 0
9, 89760, Note_on_c, 6, 67, 110
9, 89856, Note_off_c, 6, 67, 0
9, 89856, Note_off_c, 6, 63, 0
9, 89856, Note_off_c, 6, 67, 0
9, 89856, Note_on_c, 6, 62, 110
9, 89856, Note_on_c, 6, 67, 110
9, 89856, Note_on_c, 6, 70, 110
9, 90240, Note_off_c, 6, 70, 0
9, 90240, Note_off_c, 6, 67, 0
9, 90240, Note_off_c, 6, 62, 0
9, 90240, Note_on_c, 6, 70, 110
9, 90240, Note_on_c, 6, 62, 110
9, 90240, Note_on_c, 6, 67, 110
9, 90336, Note_off_c, 6, 70, 0
9, 90336, Note_on_c, 6, 72, 110
9, 90432, Note_off_c, 6, 72, 0
9, 90432, Note_on_c, 6, 70, 110
9, 90624, Note_off_c, 6, 62, 0
9, 90624, Note_off_c, 6, 67, 0
9, 90624, Note_off_c, 6, 70, 0
9, 90624, Note_on_c, 6, 60, 110
9, 90624, Note_on_c, 6, 65, 110
9, 90624, Note_on_c, 6, 69, 110
9, 91008, Note_off_c, 6, 69, 0
9, 91008, Note_off_c, 6, 65, 0
9, 91008, Note_off_c, 6, 60, 0
9, 91008, Note_on_c, 6, 67, 110
9, 91008, Note_on_c, 6, 60, 110
9, 91008, Note_on_c, 6, 65, 110
9, 91104, Note_off_c, 6, 67, 0
9, 91104, Note_on_c, 6, 69, 110
9, 91296, Note_off_c, 6, 60, 0
9, 91296, Note_off_c, 6, 65, 0
9, 91296, Note_off_c, 6, 69, 0
9, 91296, Note_on_c, 6, 60, 110
9, 91296, Note_on_c, 6, 65, 110
9, 91296, Note_on_c, 6, 69, 110
9, 91488, Note_off_c, 6, 69, 0
9, 91488, Note_off_c, 6, 65, 0
9, 91488, Note_off_c, 6, 60, 0
9, 91488, Note_on_c, 6, 67, 110
9, 91584, Note_off_c, 6, 67, 0
9, 91584, Note_on_c, 6, 60, 110
9, 91584, Note_on_c, 6, 65, 110
9, 91584, Note_on_c, 6, 69, 110
9, 91776, Note_off_c, 6, 69, 0
9, 91776, Note_off_c, 6, 65, 0
9, 91776, Note_off_c, 6, 60, 0
9, 91776, Note_on_c, 6, 72, 110
9, 91776, Note_on_c, 6, 69, 110
9, 91776, Note_on_c, 6, 65, 110
9, 91968, Note_off_c, 6, 65, 0
9, 91968, Note_off_c, 6, 69, 0
9, 91968, Note_off_c, 6, 72, 0
9, 91968, Note_on_c, 6, 69, 110
9, 91968, Note_on_c, 6, 72, 110
9, 91968, Note_on_c, 6, 77, 110
9, 92160, Note_off_c, 6, 77, 0
9, 92160, Note_off_c, 6, 72, 0
9, 92160, Note_off_c, 6, 69, 0
9, 92160, Note_on_c, 6, 72, 110
9, 92160, Note_on_c, 6, 77, 110
9, 92160, Note_on_c, 6, 81, 110
9, 92544, Note_off_c, 6, 81, 0
9, 92544, Note_off_c, 6, 77, 0
9, 92544, Note_off_c, 6, 72, 0
9, 92544, Note_on_c, 6, 79, 110
9, 92544, Note_on_c, 6, 77, 110
9, 92544, Note_on_c, 6, 72, 110
9, 92640, Note_off_c, 6, 79, 0
9, 92640, Note_on_c, 6, 81, 110
9, 92832, Note_off_c, 6, 77, 0
9, 92832, Note_off_c, 6, 72, 0
9, 92832, Note_off_c, 6, 81, 0
9, 92832, Note_on_c, 6, 72, 110
9, 92832, Note_on_c, 6, 77, 110
9, 92832, Note_on_c, 6, 81, 110
9, 93024, Note_off_c, 6, 81, 0
9, 93024, Note_off_c, 6, 77, 0
9, 93024, Note_off_c, 6, 72, 0
9, 93024, Note_on_c, 6, 79, 110
9, 93120, Note_off_c, 6, 79, 0
9, 93120, Note_on_c, 6, 72, 110
9, 93120, Note_on_c, 6, 81, 110
9, 93312, Note_off_c, 6, 81, 0
9, 93312, Note_off_c, 6, 72, 0
9, 93312, Note_on_c, 6, 77, 110
9, 93312, Note_on_c, 6, 72, 110
9, 93312, Note_on_c, 6, 79, 110
9, 93504, Note_off_c, 6, 79, 0
9, 93504, Note_on_c, 6, 81, 110
9, 93696, Note_off_c, 6, 72, 0
9, 93696, Note_off_c, 6, 77, 0
9, 93696, Note_off_c, 6, 81, 0
9, 93696, Note_on_c, 6, 70, 110
9, 93696, Note_on_c, 6, 67, 110
9, 93696, Note_on_c, 6, 62, 110
9, 95232, Note_off_c, 6, 62, 0
9, 95232, Note_off_c, 6, 67, 0
9, 95232, Note_off_c, 6, 70, 0
9, 95232, Note_on_c, 6, 65, 110
9, 95232, Note_on_c, 6, 69, 110
9, 95232, Note_on_c, 6, 60, 110
9, 96768, Note_off_c, 6, 60, 0
9, 96768, Note_off_c, 6, 69, 0
9, 96768, Note_off_c, 6, 65, 0
9, 96768, Note_on_c, 6, 69, 110
9, 96768, Note_on_c, 6, 65, 110
9, 96768, Note_on_c, 6, 60, 110
9, 97248, Note_on_c, 6, 84, 110
9, 97344, Note_off_c, 6, 84, 0
9, 97344, Note_on_c, 6, 89, 110
9, 97408, Note_off_c, 6, 89, 0
9, 97408, Note_on_c, 6, 91, 110
9, 97472, Note_off_c, 6, 91, 0
9, 97472, Note_on_c, 6, 93, 110
9, 98304, Note_off_c, 6, 60, 0
9, 98304, Note_off_c, 6, 65, 0
9, 98304, Note_off_c, 6, 69, 0
9, 98304, Note_off_c, 6, 93, 0
9, 98304, Note_on_c, 6, 67, 110
9, 98304, Note_on_c, 6, 64, 110
9, 98304, Note_on_c, 6, 60, 110
9, 99456, Note_off_c, 6, 60, 0
9, 99456, Note_off_c, 6, 64, 0
9, 99456, Note_off_c, 6, 67, 0
9, 99456, Note_on_c, 6, 62, 110
9, 99840, Note_off_c, 6, 62, 0
9, 99840, Note_on_c, 6, 60, 110
9, 99840, Note_on_c, 6, 63, 110
9, 99840, Note_on_c, 6, 67, 110
9, 100992, Note_off_c, 6, 67, 0
9, 100992, Note_off_c, 6, 63, 0
9, 100992, Note_off_c, 6, 60, 0
9, 100992, Note_on_c, 6, 65, 110
9, 101376, Note_off_c, 6, 65, 0
9, 101376, Note_on_c, 6, 62, 110
9, 101376, Note_on_c, 6, 58, 110
9, 101376, Note_on_c, 6, 67, 110
9, 102912, Note_off_c, 6, 67, 0
9, 102912, Note_off_c, 6, 58, 0
9, 102912, Note_off_c, 6, 62, 0
9, 102912, Note_on_c, 6, 65, 99
9, 102912, Note_on_c, 6, 69, 99
9, 102912, Note_on_c, 6, 60, 99
9, 103296, Note_off_c, 6, 60, 0
9, 103296, Note_off_c, 6, 69, 0
9, 103296, Note_off_c, 6, 65, 0
9, 103296, Note_on_c, 6, 60, 99
9, 103296, Note_on_c, 6, 67, 99
9, 103392, Note_off_c, 6, 67, 0
9, 103392, Note_on_c, 6, 69, 99
9, 103584, Note_off_c, 6, 60, 0
9, 103584, Note_off_c, 6, 69, 0
9, 103584, Note_on_c, 6, 60, 99
9, 103584, Note_on_c, 6, 69, 99
9, 103680, Note_off_c, 6, 69, 0
9, 103680, Note_on_c, 6, 70, 99
9, 103680, Note_on_c, 6, 65, 99
9, 103872, Note_off_c, 6, 70, 0
9, 103872, Note_on_c, 6, 69, 99
9, 104064, Note_off_c, 6, 60, 0
9, 104064, Note_off_c, 6, 65, 0
9, 104064, Note_off_c, 6, 69, 0
9, 104064, Note_on_c, 6, 67, 99
9, 104064, Note_on_c, 6, 60, 99
9, 104064, Note_on_c, 6, 65, 99
9, 104160, Note_off_c, 6, 67, 0
9, 104160, Note_on_c, 6, 69, 99
9, 104448, Note_off_c, 6, 60, 0
9, 104448, Note_off_c, 6, 65, 0
9, 104448, Note_off_c, 6, 69, 0
9, 104448, Note_on_c, 6, 60, 99
9, 104448, Note_on_c, 6, 65, 99
9, 104448, Note_on_c, 6, 69, 99
9, 104736, Note_off_c, 6, 69, 0
9, 104736, Note_off_c, 6, 65, 0
9, 104736, Note_off_c, 6, 60, 0
9, 104736, Note_on_c, 6, 65, 99
9, 104736, Note_on_c, 6, 72, 99
9, 104736, Note_on_c, 6, 69, 99
9, 105024, Note_off_c, 6, 69, 0
9, 105024, Note_off_c, 6, 72, 0
9, 105024, Note_off_c, 6, 65, 0
9, 105024, Note_on_c, 6, 77, 99
9, 105024, Note_on_c, 6, 69, 99
9, 105024, Note_on_c, 6, 72, 99
9, 105312, Note_off_c, 6, 72, 0
9, 105312, Note_off_c, 6, 69, 0
9, 105312, Note_off_c, 6, 77, 0
9, 105312, Note_on_c, 6, 72, 99
9, 105312, Note_on_c, 6, 77, 99
9, 105312, Note_on_c, 6, 81, 99
9, 105600, Note_off_c, 6, 81, 0
9, 105600, Note_off_c, 6, 77, 0
9, 105600, Note_off_c, 6, 72, 0
9, 105600, Note_on_c, 6, 84, 99
9, 105600, Note_on_c, 6, 81, 99
9, 105600, Note_on_c, 6, 77, 99
9, 105792, Note_off_c, 6, 77, 0
9, 105792, Note_off_c, 6, 81, 0
9, 105792, Note_off_c, 6, 84, 0
9, 105792, Note_on_c, 6, 89, 99
9, 105792, Note_on_c, 6, 84, 99
9, 105792, Note_on_c, 6, 81, 99
9, 105984, Note_off_c, 6, 81, 0
9, 105984, Note_off_c, 6, 84, 0
9, 105984, Note_off_c, 6, 89, 0
9, 105984, Note_on_c, 6, 70, 100
9, 105984, Note_on_c, 6, 79, 100
9, 105984, Note_on_c, 6, 74, 100
9, 106272, Note_off_c, 6, 74, 0
9, 106272, Note_off_c, 6, 79, 0
9, 106272, Note_off_c, 6, 70, 0
9, 106272, Note_on_c, 6, 67, 100
9, 106272, Note_on_c, 6, 70, 100
9, 106272, Note_on_c, 6, 74, 100
9, 106560, Note_off_c, 6, 74, 0
9, 106560, Note_off_c, 6, 70, 0
9, 106560, Note_off_c, 6, 67, 0
9, 106560, Note_on_c, 6, 70, 100
9, 106560, Note_on_c, 6, 74, 100
9, 106560, Note_on_c, 6, 79, 100
9, 106752, Note_off_c, 6, 79, 0
9, 106752, Note_off_c, 6, 74, 0
9, 106752, Note_off_c, 6, 70, 0
9, 106848, Note_on_c, 6, 67, 100
9, 106848, Note_on_c, 6, 70, 100
9, 106848, Note_on_c, 6, 75, 100
9, 106944, Note_off_c, 6, 75, 0
9, 106944, Note_off_c, 6, 70, 0
9, 106944, Note_off_c, 6, 67, 0
9, 106944, Note_on_c, 6, 67, 100
9, 106944, Note_on_c, 6, 70, 100
9, 106944, Note_on_c, 6, 75, 100
9, 107136, Note_off_c, 6, 75, 0
9, 107136, Note_off_c, 6, 70, 0
9, 107136, Note_off_c, 6, 67, 0
9, 107136, Note_on_c, 6, 67, 100
9, 107136, Note_on_c, 6, 70, 100
9, 107136, Note_on_c, 6, 75, 100
9, 107328, Note_off_c, 6, 75, 0
9, 107328, Note_off_c, 6, 70, 0
9, 107328, Note_off_c, 6, 67, 0
9, 107520, Note_on_c, 6, 65, 100
9, 107520, Note_on_c, 6, 69, 100
9, 107520, Note_on_c, 6, 72, 100
9, 107808, Note_off_c, 6, 72, 0
9, 107808, Note_off_c, 6, 69, 0
9, 107808, Note_off_c, 6, 65, 0
9, 107808, Note_on_c, 6, 77, 100
9, 107808, Note_on_c, 6, 72, 100
9, 107808, Note_on_c, 6, 69, 100
9, 108000, Note_off_c, 6, 69, 0
9, 108000, Note_off_c, 6, 72, 0
9, 108000, Note_off_c, 6, 77, 0
9, 108000, Note_on_c, 6, 65, 100
9, 108000, Note_on_c, 6, 72, 100
9, 108000, Note_on_c, 6, 69, 100
9, 108288, Note_off_c, 6, 69, 0
9, 108288, Note_off_c, 6, 72, 0
9, 108288, Note_off_c, 6, 65, 0
9, 108384, Note_on_c, 6, 70, 100
9, 108384, Note_on_c, 6, 74, 100
9, 108384, Note_on_c, 6, 79, 100
9, 108480, Note_off_c, 6, 79, 0
9, 108480, Note_off_c, 6, 74, 0
9, 108480, Note_off_c, 6, 70, 0
9, 108480, Note_on_c, 6, 70, 100
9, 108480, Note_on_c, 6, 74, 100
9, 108480, Note_on_c, 6, 79, 100
9, 108672, Note_off_c, 6, 79, 0
9, 108672, Note_off_c, 6, 74, 0
9, 108672, Note_off_c, 6, 70, 0
9, 108672, Note_on_c, 6, 70, 100
9, 108672, Note_on_c, 6, 74, 100
9, 108672, Note_on_c, 6, 79, 100
9, 108864, Note_off_c, 6, 79, 0
9, 108864, Note_off_c, 6, 74, 0
9, 108864, Note_off_c, 6, 70, 0
9, 109056, Note_on_c, 6, 70, 101
9, 109056, Note_on_c, 6, 74, 101
9, 109056, Note_on_c, 6, 79, 101
9, 109344, Note_off_c, 6, 79, 0
9, 109344, Note_off_c, 6, 74, 0
9, 109344, Note_off_c, 6, 70, 0
9, 109344, Note_on_c, 6, 67, 101
9, 109344, Note_on_c, 6, 70, 101
9, 109344, Note_on_c, 6, 74, 101
9, 109632, Note_off_c, 6, 74, 0
9, 109632, Note_off_c, 6, 70, 0
9, 109632, Note_off_c, 6, 67, 0
9, 109632, Note_on_c, 6, 70, 101
9, 109632, Note_on_c, 6, 74, 101
9, 109632, Note_on_c, 6, 79, 101
9, 109824, Note_off_c, 6, 79, 0
9, 109824, Note_off_c, 6, 74, 0
9, 109824, Note_off_c, 6, 70, 0
9, 109920, Note_on_c, 6, 67, 101
9, 109920, Note_on_c, 6, 75, 101
9, 109920, Note_on_c, 6, 70, 101
9, 110016, Note_off_c, 6, 70, 0
9, 110016, Note_off_c, 6, 75, 0
9, 110016, Note_off_c, 6, 67, 0
9, 110016, Note_on_c, 6, 67, 101
9, 110016, Note_on_c, 6, 70, 101
9, 110016, Note_on_c, 6, 75, 101
9, 110208, Note_off_c, 6, 75, 0
9, 110208, Note_off_c, 6, 70, 0
9, 110208, Note_off_c, 6, 67, 0
9, 110208, Note_on_c, 6, 75, 101
9, 110208, Note_on_c, 6, 70, 101
9, 110208, Note_on_c, 6, 67, 101
9, 110400, Note_off_c, 6, 67, 0
9, 110400, Note_off_c, 6, 70, 0
9, 110400, Note_off_c, 6, 75, 0
9, 110592, Note_on_c, 6, 65, 101
9, 110592, Note_on_c, 6, 69, 101
9, 110592, Note_on_c, 6, 72, 101
9, 110880, Note_off_c, 6, 72, 0
9, 110880, Note_off_c, 6, 69, 0
9, 110880, Note_off_c, 6, 65, 0
9, 110880, Note_on_c, 6, 77, 101
9, 110880, Note_on_c, 6, 72, 101
9, 110880, Note_on_c, 6, 69, 101
9, 111072, Note_off_c, 6, 69, 0
9, 111072, Note_off_c, 6, 72, 0
9, 111072, Note_off_c, 6, 77, 0
9, 111072, Note_on_c, 6, 65, 101
9, 111072, Note_on_c, 6, 72, 101
9, 111072, Note_on_c, 6, 69, 101
9, 111360, Note_off_c, 6, 69, 0
9, 111360, Note_off_c, 6, 72, 0
9, 111360, Note_off_c, 6, 65, 0
9, 111456, Note_on_c, 6, 70, 101
9, 111456, Note_on_c, 6, 74, 101
9, 111456, Note_on_c, 6, 79, 101
9, 111552, Note_off_c, 6, 79, 0
9, 111552, Note_off_c, 6, 74, 0
9, 111552, Note_off_c, 6, 70, 0
9, 111552, Note_on_c, 6, 70, 101
9, 111552, Note_on_c, 6, 74, 101
9, 111552, Note_on_c, 6, 79, 101
9, 111744, Note_off_c, 6, 79, 0
9, 111744, Note_off_c, 6, 74, 0
9, 111744, Note_off_c, 6, 70, 0
9, 111744, Note_on_c, 6, 70, 101
9, 111744, Note_on_c, 6, 74, 101
9, 111744, Note_on_c, 6, 79, 101
9, 111936, Note_off_c, 6, 79, 0
9, 111936, Note_off_c, 6, 74, 0
9, 111936, Note_off_c, 6, 70, 0
9, 112128, Note_on_c, 6, 70, 102
9, 112128, Note_on_c, 6, 74, 102
9, 112128, Note_on_c, 6, 79, 102
9, 112416, Note_off_c, 6, 79, 0
9, 112416, Note_off_c, 6, 74, 0
9, 112416, Note_off_c, 6, 70, 0
9, 112416, Note_on_c, 6, 67, 102
9, 112416, Note_on_c, 6, 70, 102
9, 112416, Note_on_c, 6, 74, 102
9, 112704, Note_off_c, 6, 74, 0
9, 112704, Note_off_c, 6, 70, 0
9, 112704, Note_off_c, 6, 67, 0
9, 112704, Note_on_c, 6, 70, 102
9, 112704, Note_on_c, 6, 74, 102
9, 112704, Note_on_c, 6, 79, 102
9, 112896, Note_off_c, 6, 79, 0
9, 112896, Note_off_c, 6, 74, 0
9, 112896, Note_off_c, 6, 70, 0
9, 112992, Note_on_c, 6, 67, 102
9, 112992, Note_on_c, 6, 75, 102
9, 112992, Note_on_c, 6, 70, 102
9, 113088, Note_off_c, 6, 70, 0
9, 113088, Note_off_c, 6, 75, 0
9, 113088, Note_off_c, 6, 67, 0
9, 113088, Note_on_c, 6, 67, 102
9, 113088, Note_on_c, 6, 70, 102
9, 113088, Note_on_c, 6, 75, 102
9, 113280, Note_off_c, 6, 75, 0
9, 113280, Note_off_c, 6, 70, 0
9, 113280, Note_off_c, 6, 67, 0
9, 113280, Note_on_c, 6, 75, 102
9, 113280, Note_on_c, 6, 70, 102
9, 113280, Note_on_c, 6, 67, 102
9, 113472, Note_off_c, 6, 67, 0
9, 113472, Note_off_c, 6, 70, 0
9, 113472, Note_off_c, 6, 75, 0
9, 113664, Note_on_c, 6, 65, 102
9, 113664, Note_on_c, 6, 69, 102
9, 113664, Note_on_c, 6, 72, 102
9, 113952, Note_off_c, 6, 72, 0
9, 113952, Note_off_c, 6, 69, 0
9, 113952, Note_off_c, 6, 65, 0
9, 113952, Note_on_c, 6, 77, 102
9, 113952, Note_on_c, 6, 72, 102
9, 113952, Note_on_c, 6, 69, 102
9, 114144, Note_off_c, 6, 69, 0
9, 114144, Note_off_c, 6, 72, 0
9, 114144, Note_off_c, 6, 77, 0
9, 114144, Note_on_c, 6, 65, 102
9, 114144, Note_on_c, 6, 72, 102
9, 114144, Note_on_c, 6, 69, 102
9, 114432, Note_off_c, 6, 69, 0
9, 114432, Note_off_c, 6, 72, 0
9, 114432, Note_off_c, 6, 65, 0
9, 114528, Note_on_c, 6, 70, 102
9, 114528, Note_on_c, 6, 74, 102
9, 114528, Note_on_c, 6, 79, 102
9, 114624, Note_off_c, 6, 79, 0
9, 114624, Note_off_c, 6, 74, 0
9, 114624, Note_off_c, 6, 70, 0
9, 114624, Note_on_c, 6, 70, 102
9, 114624, Note_on_c, 6, 74, 102
9, 114624, Note_on_c, 6, 79, 102
9, 114816, Note_off_c, 6, 79, 0
9, 114816, Note_off_c, 6, 74, 0
9, 114816, Note_off_c, 6, 70, 0
9, 114816, Note_on_c, 6, 70, 102
9, 114816, Note_on_c, 6, 74, 102
9, 114816, Note_on_c, 6, 79, 102
9, 115008, Note_off_c, 6, 79, 0
9, 115008, Note_off_c, 6, 74, 0
9, 115008, Note_off_c, 6, 70, 0
9, 115200, Note_on_c, 6, 70, 103
9, 115200, Note_on_c, 6, 74, 103
9, 115200, Note_on_c, 6, 79, 103
9, 115488, Note_off_c, 6, 79, 0
9, 115488, Note_off_c, 6, 74, 0
9, 115488, Note_off_c, 6, 70, 0
9, 115488, Note_on_c, 6, 67, 103
9, 115488, Note_on_c, 6, 70, 103
9, 115488, Note_on_c, 6, 74, 103
9, 115776, Note_off_c, 6, 74, 0
9, 115776, Note_off_c, 6, 70, 0
9, 115776, Note_off_c, 6, 67, 0
9, 115776, Note_on_c, 6, 70, 103
9, 115776, Note_on_c, 6, 74, 103
9, 115776, Note_on_c, 6, 79, 103
9, 115968, Note_off_c, 6, 79, 0
9, 115968, Note_off_c, 6, 74, 0
9, 115968, Note_off_c, 6, 70, 0
9, 116064, Note_on_c, 6, 67, 103
9, 116064, Note_on_c, 6, 75, 103
9, 116064, Note_on_c, 6, 70, 103
9, 116160, Note_off_c, 6, 70, 0
9, 116160, Note_off_c, 6, 75, 0
9, 116160, Note_off_c, 6, 67, 0
9, 116160, Note_on_c, 6, 67, 103
9, 116160, Note_on_c, 6, 70, 103
9, 116160, Note_on_c, 6, 75, 103
9, 116352, Note_off_c, 6, 75, 0
9, 116352, Note_off_c, 6, 70, 0
9, 116352, Note_off_c, 6, 67, 0
9, 116352, Note_on_c, 6, 75, 103
9, 116352, Note_on_c, 6, 70, 103
9, 116352, Note_on_c, 6, 67, 103
9, 116544, Note_off_c, 6, 67, 0
9, 116544, Note_off_c, 6, 70, 0
9, 116544, Note_off_c, 6, 75, 0
9, 116736, Note_on_c, 6, 65, 103
9, 116736, Note_on_c, 6, 69, 103
9, 116736, Note_on_c, 6, 72, 103
9, 117024, Note_off_c, 6, 72, 0
9, 117024, Note_off_c, 6, 69, 0
9, 117024, Note_off_c, 6, 65, 0
9, 117024, Note_on_c, 6, 77, 103
9, 117024, Note_on_c, 6, 72, 103
9, 117024, Note_on_c, 6, 69, 103
9, 117216, Note_off_c, 6, 69, 0
9, 117216, Note_off_c, 6, 72, 0
9, 117216, Note_off_c, 6, 77, 0
9, 117216, Note_on_c, 6, 65, 103
9, 117216, Note_on_c, 6, 69, 103
9, 117216, Note_on_c, 6, 72, 103
9, 117600, Note_off_c, 6, 72, 0
9, 117600, Note_off_c, 6, 69, 0
9, 117600, Note_off_c, 6, 65, 0
9, 117600, Note_on_c, 6, 70, 103
9, 117600, Note_on_c, 6, 74, 103
9, 117600, Note_on_c, 6, 79, 103
9, 117696, Note_off_c, 6, 79, 0
9, 117696, Note_off_c, 6, 74, 0
9, 117696, Note_off_c, 6, 70, 0
9, 117696, Note_on_c, 6, 70, 103
9, 117696, Note_on_c, 6, 74, 103
9, 117696, Note_on_c, 6, 79, 103
9, 117888, Note_off_c, 6, 79, 0
9, 117888, Note_off_c, 6, 74, 0
9, 117888, Note_off_c, 6, 70, 0
9, 117888, Note_on_c, 6, 70, 103
9, 117888, Note_on_c, 6, 74, 103
9, 117888, Note_on_c, 6, 79, 103
9, 118080, Note_off_c, 6, 79, 0
9, 118080, Note_off_c, 6, 74, 0
9, 118080, Note_off_c, 6, 70, 0
9, 118080, Note_on_c, 6, 65, 103
9, 118080, Note_on_c, 6, 69, 103
9, 118080, Note_on_c, 6, 72, 103
9, 118272, Note_off_c, 6, 72, 0
9, 118272, Note_off_c, 6, 69, 0
9, 118272, Note_off_c, 6, 65, 0
9, 118272, Note_on_c, 6, 65, 104
9, 118272, Note_on_c, 6, 69, 104
9, 118272, Note_on_c, 6, 72, 104
9, 118560, Note_off_c, 6, 72, 0
9, 118560, Note_off_c, 6, 69, 0
9, 118560, Note_off_c, 6, 65, 0
9, 118560, Note_on_c, 6, 77, 104
9, 118560, Note_on_c, 6, 72, 104
9, 118560, Note_on_c, 6, 69, 104
9, 118752, Note_off_c, 6, 69, 0
9, 118752, Note_off_c, 6, 72, 0
9, 118752, Note_off_c, 6, 77, 0
9, 118752, Note_on_c, 6, 65, 104
9, 118752, Note_on_c, 6, 69, 104
9, 118752, Note_on_c, 6, 72, 104
9, 119136, Note_off_c, 6, 72, 0
9, 119136, Note_off_c, 6, 69, 0
9, 119136, Note_off_c, 6, 65, 0
9, 119136, Note_on_c, 6, 70, 104
9, 119136, Note_on_c, 6, 74, 104
9, 119136, Note_on_c, 6, 79, 104
9, 119232, Note_off_c, 6, 79, 0
9, 119232, Note_off_c, 6, 74, 0
9, 119232, Note_off_c, 6, 70, 0
9, 119232, Note_on_c, 6, 70, 104
9, 119232, Note_on_c, 6, 74, 104
9, 119232, Note_on_c, 6, 79, 104
9, 119424, Note_off_c, 6, 79, 0
9, 119424, Note_off_c, 6, 74, 0
9, 119424, Note_off_c, 6, 70, 0
9, 119424, Note_on_c, 6, 70, 104
9, 119424, Note_on_c, 6, 74, 104
9, 119424, Note_on_c, 6, 79, 104
9, 119616, Note_off_c, 6, 79, 0
9, 119616, Note_off_c, 6, 74, 0
9, 119616, Note_off_c, 6, 70, 0
9, 119616, Note_on_c, 6, 65, 104
9, 119616, Note_on_c, 6, 69, 104
9, 119616, Note_on_c, 6, 72, 104
9, 119808, Note_off_c, 6, 72, 0
9, 119808, Note_off_c, 6, 69, 0
9, 119808, Note_off_c, 6, 65, 0
9, 119808, Note_on_c, 6, 70, 104
9, 119808, Note_on_c, 6, 74, 104
9, 119808, Note_on_c, 6, 79, 104
9, 120096, Note_off_c, 6, 79, 0
9, 120096, Note_off_c, 6, 74, 0
9, 120096, Note_off_c, 6, 70, 0
9, 120096, Note_on_c, 6, 67, 104
9, 120096, Note_on_c, 6, 70, 104
9, 120096, Note_on_c, 6, 74, 104
9, 120384, Note_off_c, 6, 74, 0
9, 120384, Note_off_c, 6, 70, 0
9, 120384, Note_off_c, 6, 67, 0
9, 120384, Note_on_c, 6, 70, 104
9, 120384, Note_on_c, 6, 74, 104
9, 120384, Note_on_c, 6, 79, 104
9, 120576, Note_off_c, 6, 79, 0
9, 120576, Note_off_c, 6, 74, 0
9, 120576, Note_off_c, 6, 70, 0
9, 120672, Note_on_c, 6, 67, 104
9, 120672, Note_on_c, 6, 75, 104
9, 120672, Note_on_c, 6, 70, 104
9, 120768, Note_off_c, 6, 70, 0
9, 120768, Note_off_c, 6, 75, 0
9, 120768, Note_off_c, 6, 67, 0
9, 120768, Note_on_c, 6, 67, 104
9, 120768, Note_on_c, 6, 70, 104
9, 120768, Note_on_c, 6, 75, 104
9, 120960, Note_off_c, 6, 75, 0
9, 120960, Note_off_c, 6, 70, 0
9, 120960, Note_off_c, 6, 67, 0
9, 120960, Note_on_c, 6, 75, 104
9, 120960, Note_on_c, 6, 70, 104
9, 120960, Note_on_c, 6, 67, 104
9, 121152, Note_off_c, 6, 67, 0
9, 121152, Note_off_c, 6, 70, 0
9, 121152, Note_off_c, 6, 75, 0
9, 121344, Note_on_c, 6, 65, 105
9, 121344, Note_on_c, 6, 69, 105
9, 121344, Note_on_c, 6, 72, 105
9, 121632, Note_off_c, 6, 72, 0
9, 121632, Note_off_c, 6, 69, 0
9, 121632, Note_off_c, 6, 65, 0
9, 121632, Note_on_c, 6, 77, 105
9, 121632, Note_on_c, 6, 72, 105
9, 121632, Note_on_c, 6, 69, 105
9, 121824, Note_off_c, 6, 69, 0
9, 121824, Note_off_c, 6, 72, 0
9, 121824, Note_off_c, 6, 77, 0
9, 121824, Note_on_c, 6, 65, 105
9, 121824, Note_on_c, 6, 72, 105
9, 121824, Note_on_c, 6, 69, 105
9, 122112, Note_off_c, 6, 69, 0
9, 122112, Note_off_c, 6, 72, 0
9, 122112, Note_off_c, 6, 65, 0
9, 122208, Note_on_c, 6, 70, 105
9, 122208, Note_on_c, 6, 74, 105
9, 122208, Note_on_c, 6, 79, 105
9, 122304, Note_off_c, 6, 79, 0
9, 122304, Note_off_c, 6, 74, 0
9, 122304, Note_off_c, 6, 70, 0
9, 122304, Note_on_c, 6, 70, 105
9, 122304, Note_on_c, 6, 74, 105
9, 122304, Note_on_c, 6, 79, 105
9, 122496, Note_off_c, 6, 79, 0
9, 122496, Note_off_c, 6, 74, 0
9, 122496, Note_off_c, 6, 70, 0
9, 122496, Note_on_c, 6, 70, 105
9, 122496, Note_on_c, 6, 74, 105
9, 122496, Note_on_c, 6, 79, 105
9, 122688, Note_off_c, 6, 79, 0
9, 122688, Note_off_c, 6, 74, 0
9, 122688, Note_off_c, 6, 70, 0
9, 122880, Note_on_c, 6, 70, 105
9, 122880, Note_on_c, 6, 74, 105
9, 122880, Note_on_c, 6, 79, 105
9, 123168, Note_off_c, 6, 79, 0
9, 123168, Note_off_c, 6, 74, 0
9, 123168, Note_off_c, 6, 70, 0
9, 123168, Note_on_c, 6, 67, 105
9, 123168, Note_on_c, 6, 70, 105
9, 123168, Note_on_c, 6, 74, 105
9, 123456, Note_off_c, 6, 74, 0
9, 123456, Note_off_c, 6, 70, 0
9, 123456, Note_off_c, 6, 67, 0
9, 123456, Note_on_c, 6, 70, 105
9, 123456, Note_on_c, 6, 74, 105
9, 123456, Note_on_c, 6, 79, 105
9, 123648, Note_off_c, 6, 79, 0
9, 123648, Note_off_c, 6, 74, 0
9, 123648, Note_off_c, 6, 70, 0
9, 123744, Note_on_c, 6, 67, 105
9, 123744, Note_on_c, 6, 75, 105
9, 123744, Note_on_c, 6, 70, 105
9, 123840, Note_off_c, 6, 70, 0
9, 123840, Note_off_c, 6, 75, 0
9, 123840, Note_off_c, 6, 67, 0
9, 123840, Note_on_c, 6, 67, 105
9, 123840, Note_on_c, 6, 70, 105
9, 123840, Note_on_c, 6, 75, 105
9, 124032, Note_off_c, 6, 75, 0
9, 124032, Note_off_c, 6, 70, 0
9, 124032, Note_off_c, 6, 67, 0
9, 124032, Note_on_c, 6, 75, 105
9, 124032, Note_on_c, 6, 70, 105
9, 124032, Note_on_c, 6, 67, 105
9, 124224, Note_off_c, 6, 67, 0
9, 124224, Note_off_c, 6, 70, 0
9, 124224, Note_off_c, 6, 75, 0
9, 124416, Note_on_c, 6, 65, 106
9, 124416, Note_on_c, 6, 69, 106
9, 124416, Note_on_c, 6, 72, 106
9, 124704, Note_off_c, 6, 72, 0
9, 124704, Note_off_c, 6, 69, 0
9, 124704, Note_off_c, 6, 65, 0
9, 124704, Note_on_c, 6, 77, 106
9, 124704, Note_on_c, 6, 72, 106
9, 124704, Note_on_c, 6, 69, 106
9, 124896, Note_off_c, 6, 69, 0
9, 124896, Note_off_c, 6, 72, 0
9, 124896, Note_off_c, 6, 77, 0
9, 124896, Note_on_c, 6, 65, 106
9, 124896, Note_on_c, 6, 72, 106
9, 124896, Note_on_c, 6, 69, 106
9, 125184, Note_off_c, 6, 69, 0
9, 125184, Note_off_c, 6, 72, 0
9, 125184, Note_off_c, 6, 65, 0
9, 125280, Note_on_c, 6, 70, 106
9, 125280, Note_on_c, 6, 74, 106
9, 125280, Note_on_c, 6, 79, 106
9, 125376, Note_off_c, 6, 79, 0
9, 125376, Note_off_c, 6, 74, 0
9, 125376, Note_off_c, 6, 70, 0
9, 125376, Note_on_c, 6, 70, 106
9, 125376, Note_on_c, 6, 74, 106
9, 125376, Note_on_c, 6, 79, 106
9, 125568, Note_off_c, 6, 79, 0
9, 125568, Note_off_c, 6, 74, 0
9, 125568, Note_off_c, 6, 70, 0
9, 125568, Note_on_c, 6, 70, 106
9, 125568, Note_on_c, 6, 74, 106
9, 125568, Note_on_c, 6, 79, 106
9, 125760, Note_off_c, 6, 79, 0
9, 125760, Note_off_c, 6, 74, 0
9, 125760, Note_off_c, 6, 70, 0
9, 125952, Note_on_c, 6, 70, 106
9, 125952, Note_on_c, 6, 74, 106
9, 125952, Note_on_c, 6, 79, 106
9, 126240, Note_off_c, 6, 79, 0
9, 126240, Note_off_c, 6, 74, 0
9, 126240, Note_off_c, 6, 70, 0
9, 126240, Note_on_c, 6, 67, 106
9, 126240, Note_on_c, 6, 70, 106
9, 126240, Note_on_c, 6, 74, 106
9, 126528, Note_off_c, 6, 74, 0
9, 126528, Note_off_c, 6, 70, 0
9, 126528, Note_off_c, 6, 67, 0
9, 126528, Note_on_c, 6, 70, 106
9, 126528, Note_on_c, 6, 74, 106
9, 126528, Note_on_c, 6, 79, 106
9, 126720, Note_off_c, 6, 79, 0
9, 126720, Note_off_c, 6, 74, 0
9, 126720, Note_off_c, 6, 70, 0
9, 126816, Note_on_c, 6, 67, 106
9, 126816, Note_on_c, 6, 75, 106
9, 126816, Note_on_c, 6, 70, 106
9, 126912, Note_off_c, 6, 70, 0
9, 126912, Note_off_c, 6, 75, 0
9, 126912, Note_off_c, 6, 67, 0
9, 126912, Note_on_c, 6, 67, 106
9, 126912, Note_on_c, 6, 70, 106
9, 126912, Note_on_c, 6, 75, 106
9, 127104, Note_off_c, 6, 75, 0
9, 127104, Note_off_c, 6, 70, 0
9, 127104, Note_off_c, 6, 67, 0
9, 127104, Note_on_c, 6, 75, 106
9, 127104, Note_on_c, 6, 70, 106
9, 127104, Note_on_c, 6, 67, 106
9, 127296, Note_off_c, 6, 67, 0
9, 127296, Note_off_c, 6, 70, 0
9, 127296, Note_off_c, 6, 75, 0
9, 127488, Note_on_c, 6, 65, 107
9, 127488, Note_on_c, 6, 69, 107
9, 127488, Note_on_c, 6, 72, 107
9, 127776, Note_off_c, 6, 72, 0
9, 127776, Note_off_c, 6, 69, 0
9, 127776, Note_off_c, 6, 65, 0
9, 127776, Note_on_c, 6, 77, 107
9, 127776, Note_on_c, 6, 72, 107
9, 127776, Note_on_c, 6, 69, 107
9, 127968, Note_off_c, 6, 69, 0
9, 127968, Note_off_c, 6, 72, 0
9, 127968, Note_off_c, 6, 77, 0
9, 127968, Note_on_c, 6, 65, 107
9, 127968, Note_on_c, 6, 72, 107
9, 127968, Note_on_c, 6, 69, 107
9, 128256, Note_off_c, 6, 69, 0
9, 128256, Note_off_c, 6, 72, 0
9, 128256, Note_off_c, 6, 65, 0
9, 128352, Note_on_c, 6, 70, 107
9, 128352, Note_on_c, 6, 74, 107
9, 128352, Note_on_c, 6, 79, 107
9, 128448, Note_off_c, 6, 79, 0
9, 128448, Note_off_c, 6, 74, 0
9, 128448, Note_off_c, 6, 70, 0
9, 128448, Note_on_c, 6, 70, 107
9, 128448, Note_on_c, 6, 74, 107
9, 128448, Note_on_c, 6, 79, 107
9, 128640, Note_off_c, 6, 79, 0
9, 128640, Note_off_c, 6, 74, 0
9, 128640, Note_off_c, 6, 70, 0
9, 128640, Note_on_c, 6, 70, 107
9, 128640, Note_on_c, 6, 74, 107
9, 128640, Note_on_c, 6, 79, 107
9, 128832, Note_off_c, 6, 79, 0
9, 128832, Note_off_c, 6, 74, 0
9, 128832, Note_off_c, 6, 70, 0
9, 129024, Note_on_c, 6, 70, 107
9, 129024, Note_on_c, 6, 74, 107
9, 129024, Note_on_c, 6, 79, 107
9, 129312, Note_off_c, 6, 79, 0
9, 129312, Note_off_c, 6, 74, 0
9, 129312, Note_off_c, 6, 70, 0
9, 129312, Note_on_c, 6, 67, 107
9, 129312, Note_on_c, 6, 70, 107
9, 129312, Note_on_c, 6, 74, 107
9, 129600, Note_off_c, 6, 74, 0
9, 129600, Note_off_c, 6, 70, 0
9, 129600, Note_off_c, 6, 67, 0
9, 129600, Note_on_c, 6, 70, 107
9, 129600, Note_on_c, 6, 74, 107
9, 129600, Note_on_c, 6, 79, 107
9, 129792, Note_off_c, 6, 79, 0
9, 129792, Note_off_c, 6, 74, 0
9, 129792, Note_off_c, 6, 70, 0
9, 129888, Note_on_c, 6, 67, 107
9, 129888, Note_on_c, 6, 75, 107
9, 129888, Note_on_c, 6, 70, 107
9, 129984, Note_off_c, 6, 70, 0
9, 129984, Note_off_c, 6, 75, 0
9, 129984, Note_off_c, 6, 67, 0
9, 129984, Note_on_c, 6, 67, 107
9, 129984, Note_on_c, 6, 70, 107
9, 129984, Note_on_c, 6, 75, 107
9, 130176, Note_off_c, 6, 75, 0
9, 130176, Note_off_c, 6, 70, 0
9, 130176, Note_off_c, 6, 67, 0
9, 130176, Note_on_c, 6, 75, 107
9, 130176, Note_on_c, 6, 70, 107
9, 130176, Note_on_c, 6, 67, 107
9, 130368, Note_off_c, 6, 67, 0
9, 130368, Note_off_c, 6, 70, 0
9, 130368, Note_off_c, 6, 75, 0
9, 130560, Note_on_c, 6, 65, 108
9, 130560, Note_on_c, 6, 69, 108
9, 130560, Note_on_c, 6, 72, 108
9, 130848, Note_off_c, 6, 72, 0
9, 130848, Note_off_c, 6, 69, 0
9, 130848, Note_off_c, 6, 65, 0
9, 130848, Note_on_c, 6, 77, 108
9, 130848, Note_on_c, 6, 72, 108
9, 130848, Note_on_c, 6, 69, 108
9, 131040, Note_off_c, 6, 69, 0
9, 131040, Note_off_c, 6, 72, 0
9, 131040, Note_off_c, 6, 77, 0
9, 131040, Note_on_c, 6, 65, 108
9, 131040, Note_on_c, 6, 69, 108
9, 131040, Note_on_c, 6, 72, 108
9, 131424, Note_off_c, 6, 72, 0
9, 131424, Note_off_c, 6, 69, 0
9, 131424, Note_off_c, 6, 65, 0
9, 131424, Note_on_c, 6, 70, 108
9, 131424, Note_on_c, 6, 74, 108
9, 131424, Note_on_c, 6, 79, 108
9, 131520, Note_off_c, 6, 79, 0
9, 131520, Note_off_c, 6, 74, 0
9, 131520, Note_off_c, 6, 70, 0
9, 131520, Note_on_c, 6, 70, 108
9, 131520, Note_on_c, 6, 74, 108
9, 131520, Note_on_c, 6, 79, 108
9, 131712, Note_off_c, 6, 79, 0
9, 131712, Note_off_c, 6, 74, 0
9, 131712, Note_off_c, 6, 70, 0
9, 131712, Note_on_c, 6, 70, 108
9, 131712, Note_on_c, 6, 74, 108
9, 131712, Note_on_c, 6, 79, 108
9, 131904, Note_off_c, 6, 79, 0
9, 131904, Note_off_c, 6, 74, 0
9, 131904, Note_off_c, 6, 70, 0
9, 131904, Note_on_c, 6, 65, 108
9, 131904, Note_on_c, 6, 69, 108
9, 131904, Note_on_c, 6, 72, 108
9, 132096, Note_off_c, 6, 72, 0
9, 132096, Note_off_c, 6, 69, 0
9, 132096, Note_off_c, 6, 65, 0
9, 132096, Note_on_c, 6, 65, 108
9, 132096, Note_on_c, 6, 69, 108
9, 132096, Note_on_c, 6, 72, 108
9, 132384, Note_off_c, 6, 72, 0
9, 132384, Note_off_c, 6, 69, 0
9, 132384, Note_off_c, 6, 65, 0
9, 132384, Note_on_c, 6, 77, 108
9, 132384, Note_on_c, 6, 72, 108
9, 132384, Note_on_c, 6, 69, 108
9, 132576, Note_off_c, 6, 69, 0
9, 132576, Note_off_c, 6, 72, 0
9, 132576, Note_off_c, 6, 77, 0
9, 132576, Note_on_c, 6, 65, 108
9, 132576, Note_on_c, 6, 69, 108
9, 132576, Note_on_c, 6, 72, 108
9, 132960, Note_off_c, 6, 72, 0
9, 132960, Note_off_c, 6, 69, 0
9, 132960, Note_off_c, 6, 65, 0
9, 132960, Note_on_c, 6, 70, 108
9, 132960, Note_on_c, 6, 74, 108
9, 132960, Note_on_c, 6, 79, 108
9, 133056, Note_off_c, 6, 79, 0
9, 133056, Note_off_c, 6, 74, 0
9, 133056, Note_off_c, 6, 70, 0
9, 133056, Note_on_c, 6, 70, 108
9, 133056, Note_on_c, 6, 74, 108
9, 133056, Note_on_c, 6, 79, 108
9, 133248, Note_off_c, 6, 79, 0
9, 133248, Note_off_c, 6, 74, 0
9, 133248, Note_off_c, 6, 70, 0
9, 133248, Note_on_c, 6, 70, 108
9, 133248, Note_on_c, 6, 74, 108
9, 133248, Note_on_c, 6, 79, 108
9, 133440, Note_off_c, 6, 79, 0
9, 133440, Note_off_c, 6, 74, 0
9, 133440, Note_off_c, 6, 70, 0
9, 133440, Note_on_c, 6, 65, 108
9, 133440, Note_on_c, 6, 69, 108
9, 133440, Note_on_c, 6, 72, 108
9, 133632, Note_off_c, 6, 72, 0
9, 133632, Note_off_c, 6, 69, 0
9, 133632, Note_off_c, 6, 65, 0
9, 133632, Note_on_c, 6, 79, 110
9, 133632, Note_on_c, 6, 70, 110
9, 133632, Note_on_c, 6, 74, 110
9, 133824, Note_off_c, 6, 74, 0
9, 133824, Note_off_c, 6, 70, 0
9, 133824, Note_off_c, 6, 79, 0
9, 173568, Note_on_c, 6, 50, 110
9, 173664, Note_off_c, 6, 50, 0
9, 173664, Note_on_c, 6, 43, 110
9, 173760, Note_off_c, 6, 43, 0
9, 173760, Note_on_c, 6, 46, 110
9, 173856, Note_off_c, 6, 46, 0
9, 173856, Note_on_c, 6, 48, 110
9, 173952, Note_off_c, 6, 48, 0
9, 173952, Note_on_c, 6, 49, 110
9, 174144, Note_off_c, 6, 49, 0
9, 174144, Note_on_c, 6, 48, 110
9, 174240, Note_off_c, 6, 48, 0
9, 175104, Note_on_c, 6, 50, 110
9, 175200, Note_off_c, 6, 50, 0
9, 175200, Note_on_c, 6, 43, 110
9, 175296, Note_off_c, 6, 43, 0
9, 175296, Note_on_c, 6, 46, 110
9, 175392, Note_off_c, 6, 46, 0
9, 175392, Note_on_c, 6, 48, 110
9, 175488, Note_off_c, 6, 48, 0
9, 175488, Note_on_c, 6, 49, 110
9, 175680, Note_off_c, 6, 49, 0
9, 175680, Note_on_c, 6, 48, 110
9, 175776, Note_off_c, 6, 48, 0
9, 175872, Note_on_c, 6, 61, 110
9, 175872, Note_on_c, 6, 68, 110
9, 175872, Note_on_c, 6, 65, 110
9, 177024, Note_off_c, 6, 65, 0
9, 177024, Note_off_c, 6, 68, 0
9, 177024, Note_off_c, 6, 61, 0
9, 177024, Note_on_c, 6, 63, 110
9, 177024, Note_on_c, 6, 67, 110
9, 177024, Note_on_c, 6, 70, 110
9, 178176, Note_off_c, 6, 70, 0
9, 178176, Note_off_c, 6, 67, 0
9, 178176, Note_off_c, 6, 63, 0
9, 178176, Note_on_c, 6, 72, 110
9, 178176, Note_on_c, 6, 69, 110
9, 178176, Note_on_c, 6, 65, 110
9, 178752, Note_off_c, 6, 65, 0
9, 178752, Note_off_c, 6, 69, 0
9, 178752, Note_off_c, 6, 72, 0
9, 178752, Note_on_c, 6, 60, 110
9, 178764, Note_on_c, 6, 65, 110
9, 178777, Note_on_c, 6, 69, 110
9, 178944, Note_off_c, 6, 69, 0
9, 178944, Note_off_c, 6, 65, 0
9, 178944, Note_off_c, 6, 60, 0
9, 178944, Note_on_c, 6, 65, 110
9, 178956, Note_on_c, 6, 69, 110
9, 178969, Note_on_c, 6, 72, 110
9, 179136, Note_off_c, 6, 72, 0
9, 179136, Note_off_c, 6, 69, 0
9, 179136, Note_off_c, 6, 65, 0
9, 179136, Note_on_c, 6, 69, 110
9, 179148, Note_on_c, 6, 72, 110
9, 179161, Note_on_c, 6, 77, 110
9, 179328, Note_off_c, 6, 77, 0
9, 179328, Note_off_c, 6, 72, 0
9, 179328, Note_off_c, 6, 69, 0
9, 179328, Note_on_c, 6, 72, 110
9, 179340, Note_on_c, 6, 77, 110
9, 179353, Note_on_c, 6, 81, 110
9, 179520, Note_off_c, 6, 81, 0
9, 179520, Note_off_c, 6, 77, 0
9, 179520, Note_off_c, 6, 72, 0
9, 179520, Note_on_c, 6, 77, 110
9, 179532, Note_on_c, 6, 81, 110
9, 179545, Note_on_c, 6, 84, 110
9, 179712, Note_off_c, 6, 84, 0
9, 179712, Note_off_c, 6, 81, 0
9, 179712, Note_off_c, 6, 77, 0
9, 179712, Note_on_c, 6, 41, 121
9, 179808, Note_off_c, 6, 41, 0
9, 179808, End_track
10, 0, Start_track
10, 0, Title_t, "Vocal - Calliope"
10, 0, Channel_prefix, 7
10, 0, Control_c, 7, 7, 120
10, 0, Control_c, 7, 10, 44
10, 0, Program_c, 7, 75
10, 24864, Note_on_c, 7, 74, 108
10, 25152, Note_off_c, 7, 74, 0
10, 25152, Note_on_c, 7, 72, 108
10, 25248, Note_off_c, 7, 72, 0
10, 25248, Note_on_c, 7, 70, 108
10, 25344, Note_off_c, 7, 70, 0
10, 25344, Note_on_c, 7, 72, 108
10, 25440, Note_off_c, 7, 72, 0
10, 25440, Note_on_c, 7, 70, 108
10, 25728, Note_off_c, 7, 70, 0
10, 26016, Note_on_c, 7, 70, 108
10, 26064, Note_off_c, 7, 70, 0
10, 26064, Note_on_c, 7, 72, 108
10, 26304, Note_off_c, 7, 72, 0
10, 26304, Note_on_c, 7, 70, 108
10, 26496, Note_off_c, 7, 70, 0
10, 26496, Note_on_c, 7, 74, 108
10, 26688, Note_off_c, 7, 74, 0
10, 26688, Note_on_c, 7, 72, 108
10, 26880, Note_off_c, 7, 72, 0
10, 26880, Note_on_c, 7, 70, 108
10, 26976, Note_off_c, 7, 70, 0
10, 26976, Note_on_c, 7, 67, 108
10, 27264, Note_off_c, 7, 67, 0
10, 27792, Note_on_c, 7, 70, 108
10, 27840, Note_off_c, 7, 70, 0
10, 27840, Note_on_c, 7, 70, 108
10, 27984, Note_off_c, 7, 70, 0
10, 27984, Note_on_c, 7, 70, 108
10, 28032, Note_off_c, 7, 70, 0
10, 28032, Note_on_c, 7, 72, 108
10, 28320, Note_off_c, 7, 72, 0
10, 28320, Note_on_c, 7, 70, 108
10, 28416, Note_off_c, 7, 70, 0
10, 28416, Note_on_c, 7, 69, 108
10, 28608, Note_off_c, 7, 69, 0
10, 28608, Note_on_c, 7, 67, 108
10, 28704, Note_off_c, 7, 67, 0
10, 28704, Note_on_c, 7, 67, 108
10, 28992, Note_off_c, 7, 67, 0
10, 28992, Note_on_c, 7, 62, 108
10, 29088, Note_off_c, 7, 62, 0
10, 29088, Note_on_c, 7, 65, 108
10, 29376, Note_off_c, 7, 65, 0
10, 31008, Note_on_c, 7, 72, 108
10, 31104, Note_off_c, 7, 72, 0
10, 31104, Note_on_c, 7, 74, 108
10, 31296, Note_off_c, 7, 74, 0
10, 31296, Note_on_c, 7, 72, 108
10, 31392, Note_off_c, 7, 72, 0
10, 31392, Note_on_c, 7, 70, 108
10, 31488, Note_off_c, 7, 70, 0
10, 31488, Note_on_c, 7, 72, 108
10, 31584, Note_off_c, 7, 72, 0
10, 31584, Note_on_c, 7, 70, 108
10, 31872, Note_off_c, 7, 70, 0
10, 32064, Note_on_c, 7, 72, 108
10, 32160, Note_off_c, 7, 72, 0
10, 32160, Note_on_c, 7, 70, 108
10, 32256, Note_off_c, 7, 70, 0
10, 32256, Note_on_c, 7, 72, 108
10, 32544, Note_off_c, 7, 72, 0
10, 32544, Note_on_c, 7, 72, 108
10, 32640, Note_off_c, 7, 72, 0
10, 32640, Note_on_c, 7, 74, 108
10, 32928, Note_off_c, 7, 74, 0
10, 32928, Note_on_c, 7, 72, 108
10, 33024, Note_off_c, 7, 72, 0
10, 33024, Note_on_c, 7, 70, 108
10, 33120, Note_off_c, 7, 70, 0
10, 33120, Note_on_c, 7, 67, 108
10, 33408, Note_off_c, 7, 67, 0
10, 33696, Note_on_c, 7, 69, 108
10, 33792, Note_off_c, 7, 69, 0
10, 33792, Note_on_c, 7, 70, 108
10, 33888, Note_off_c, 7, 70, 0
10, 33888, Note_on_c, 7, 70, 108
10, 34080, Note_off_c, 7, 70, 0
10, 34272, Note_on_c, 7, 72, 108
10, 34368, Note_off_c, 7, 72, 0
10, 34368, Note_on_c, 7, 70, 108
10, 34464, Note_off_c, 7, 70, 0
10, 34464, Note_on_c, 7, 69, 108
10, 34560, Note_off_c, 7, 69, 0
10, 34560, Note_on_c, 7, 67, 108
10, 34752, Note_off_c, 7, 67, 0
10, 34848, Note_on_c, 7, 67, 108
10, 35040, Note_off_c, 7, 67, 0
10, 35040, Note_on_c, 7, 67, 108
10, 35232, Note_off_c, 7, 67, 0
10, 35232, Note_on_c, 7, 62, 108
10, 35424, Note_off_c, 7, 62, 0
10, 35424, Note_on_c, 7, 65, 108
10, 35616, Note_off_c, 7, 65, 0
10, 38688, Note_on_c, 7, 74, 121
10, 38976, Note_off_c, 7, 74, 0
10, 38976, Note_on_c, 7, 72, 121
10, 39072, Note_off_c, 7, 72, 0
10, 39072, Note_on_c, 7, 70, 121
10, 39168, Note_off_c, 7, 70, 0
10, 39168, Note_on_c, 7, 72, 121
10, 39264, Note_off_c, 7, 72, 0
10, 39264, Note_on_c, 7, 70, 121
10, 39552, Note_off_c, 7, 70, 0
10, 39840, Note_on_c, 7, 70, 121
10, 39888, Note_off_c, 7, 70, 0
10, 39888, Note_on_c, 7, 72, 121
10, 40128, Note_off_c, 7, 72, 0
10, 40128, Note_on_c, 7, 70, 121
10, 40320, Note_off_c, 7, 70, 0
10, 40320, Note_on_c, 7, 74, 121
10, 40512, Note_off_c, 7, 74, 0
10, 40512, Note_on_c, 7, 72, 121
10, 40704, Note_off_c, 7, 72, 0
10, 40704, Note_on_c, 7, 70, 121
10, 40800, Note_off_c, 7, 70, 0
10, 40800, Note_on_c, 7, 67, 121
10, 41088, Note_off_c, 7, 67, 0
10, 41472, Note_on_c, 7, 70, 121
10, 41568, Note_off_c, 7, 70, 0
10, 41568, Note_on_c, 7, 70, 121
10, 41664, Note_off_c, 7, 70, 0
10, 41664, Note_on_c, 7, 70, 121
10, 41760, Note_off_c, 7, 70, 0
10, 41760, Note_on_c, 7, 70, 121
10, 41856, Note_off_c, 7, 70, 0
10, 41856, Note_on_c, 7, 72, 121
10, 42048, Note_off_c, 7, 72, 0
10, 42048, Note_on_c, 7, 70, 121
10, 42144, Note_off_c, 7, 70, 0
10, 42144, Note_on_c, 7, 69, 121
10, 42240, Note_off_c, 7, 69, 0
10, 42240, Note_on_c, 7, 67, 121
10, 42432, Note_off_c, 7, 67, 0
10, 42528, Note_on_c, 7, 67, 121
10, 42576, Note_off_c, 7, 67, 0
10, 42576, Note_on_c, 7, 67, 121
10, 42624, Note_off_c, 7, 67, 0
10, 42624, Note_on_c, 7, 67, 121
10, 42720, Note_off_c, 7, 67, 0
10, 42720, Note_on_c, 7, 62, 121
10, 42912, Note_off_c, 7, 62, 0
10, 43008, Note_on_c, 7, 65, 121
10, 43200, Note_off_c, 7, 65, 0
10, 44736, Note_on_c, 7, 74, 121
10, 44832, Note_off_c, 7, 74, 0
10, 44832, Note_on_c, 7, 74, 121
10, 44928, Note_off_c, 7, 74, 0
10, 44928, Note_on_c, 7, 72, 121
10, 45120, Note_off_c, 7, 72, 0
10, 45120, Note_on_c, 7, 70, 121
10, 45312, Note_off_c, 7, 70, 0
10, 45312, Note_on_c, 7, 72, 121
10, 45408, Note_off_c, 7, 72, 0
10, 45408, Note_on_c, 7, 70, 121
10, 45504, Note_off_c, 7, 70, 0
10, 45888, Note_on_c, 7, 72, 121
10, 45984, Note_off_c, 7, 72, 0
10, 45984, Note_on_c, 7, 70, 121
10, 46080, Note_off_c, 7, 70, 0
10, 46080, Note_on_c, 7, 72, 121
10, 46272, Note_off_c, 7, 72, 0
10, 46272, Note_on_c, 7, 70, 121
10, 46368, Note_off_c, 7, 70, 0
10, 46368, Note_on_c, 7, 74, 121
10, 46560, Note_off_c, 7, 74, 0
10, 46560, Note_on_c, 7, 72, 121
10, 46752, Note_off_c, 7, 72, 0
10, 46752, Note_on_c, 7, 70, 121
10, 46848, Note_off_c, 7, 70, 0
10, 46848, Note_on_c, 7, 67, 121
10, 47040, Note_off_c, 7, 67, 0
10, 47520, Note_on_c, 7, 70, 121
10, 47616, Note_off_c, 7, 70, 0
10, 47616, Note_on_c, 7, 70, 121
10, 47712, Note_off_c, 7, 70, 0
10, 47712, Note_on_c, 7, 70, 121
10, 47904, Note_off_c, 7, 70, 0
10, 47904, Note_on_c, 7, 72, 121
10, 48192, Note_off_c, 7, 72, 0
10, 48192, Note_on_c, 7, 70, 121
10, 48288, Note_off_c, 7, 70, 0
10, 48384, Note_on_c, 7, 69, 121
10, 48480, Note_off_c, 7, 69, 0
10, 48480, Note_on_c, 7, 67, 121
10, 48672, Note_off_c, 7, 67, 0
10, 48672, Note_on_c, 7, 67, 121
10, 48864, Note_off_c, 7, 67, 0
10, 48864, Note_on_c, 7, 62, 121
10, 49056, Note_off_c, 7, 62, 0
10, 49152, Note_on_c, 7, 65, 121
10, 49344, Note_off_c, 7, 65, 0
10, 52416, Note_on_c, 7, 67, 121
10, 52512, Note_off_c, 7, 67, 0
10, 52512, Note_on_c, 7, 67, 121
10, 52608, Note_off_c, 7, 67, 0
10, 52608, Note_on_c, 7, 70, 121
10, 52800, Note_off_c, 7, 70, 0
10, 52800, Note_on_c, 7, 74, 121
10, 52992, Note_off_c, 7, 74, 0
10, 52992, Note_on_c, 7, 74, 121
10, 53184, Note_off_c, 7, 74, 0
10, 53184, Note_on_c, 7, 72, 121
10, 53568, Note_off_c, 7, 72, 0
10, 53568, Note_on_c, 7, 70, 121
10, 53760, Note_off_c, 7, 70, 0
10, 53760, Note_on_c, 7, 72, 121
10, 53952, Note_off_c, 7, 72, 0
10, 53952, Note_on_c, 7, 70, 121
10, 54144, Note_off_c, 7, 70, 0
10, 54144, Note_on_c, 7, 72, 121
10, 54240, Note_off_c, 7, 72, 0
10, 54240, Note_on_c, 7, 70, 121
10, 54528, Note_off_c, 7, 70, 0
10, 54528, Note_on_c, 7, 74, 121
10, 54912, Note_off_c, 7, 74, 0
10, 55104, Note_on_c, 7, 67, 121
10, 55200, Note_off_c, 7, 67, 0
10, 55200, Note_on_c, 7, 67, 121
10, 55296, Note_off_c, 7, 67, 0
10, 55296, Note_on_c, 7, 67, 121
10, 55488, Note_off_c, 7, 67, 0
10, 55488, Note_on_c, 7, 67, 121
10, 55584, Note_off_c, 7, 67, 0
10, 55584, Note_on_c, 7, 70, 121
10, 55776, Note_off_c, 7, 70, 0
10, 55776, Note_on_c, 7, 74, 121
10, 56064, Note_off_c, 7, 74, 0
10, 56064, Note_on_c, 7, 74, 121
10, 56160, Note_off_c, 7, 74, 0
10, 56160, Note_on_c, 7, 72, 121
10, 56352, Note_off_c, 7, 72, 0
10, 56352, Note_on_c, 7, 72, 121
10, 56640, Note_off_c, 7, 72, 0
10, 56640, Note_on_c, 7, 70, 121
10, 56832, Note_off_c, 7, 70, 0
10, 56832, Note_on_c, 7, 72, 121
10, 56928, Note_off_c, 7, 72, 0
10, 56928, Note_on_c, 7, 70, 121
10, 57120, Note_off_c, 7, 70, 0
10, 57120, Note_on_c, 7, 74, 121
10, 57408, Note_off_c, 7, 74, 0
10, 57408, Note_on_c, 7, 70, 121
10, 57600, Note_off_c, 7, 70, 0
10, 57600, Note_on_c, 7, 67, 121
10, 57792, Note_off_c, 7, 67, 0
10, 57984, Note_on_c, 7, 74, 127
10, 58080, Note_off_c, 7, 74, 0
10, 133968, Note_on_c, 7, 74, 121
10, 134112, Note_off_c, 7, 74, 0
10, 134112, Note_on_c, 7, 72, 121
10, 134208, Note_off_c, 7, 72, 0
10, 134208, Note_on_c, 7, 70, 121
10, 134304, Note_off_c, 7, 70, 0
10, 134304, Note_on_c, 7, 72, 121
10, 134784, Note_off_c, 7, 72, 0
10, 135072, Note_on_c, 7, 70, 121
10, 135168, Note_off_c, 7, 70, 0
10, 135168, Note_on_c, 7, 72, 121
10, 135360, Note_off_c, 7, 72, 0
10, 135360, Note_on_c, 7, 70, 121
10, 135456, Note_off_c, 7, 70, 0
10, 135456, Note_on_c, 7, 74, 121
10, 135744, Note_off_c, 7, 74, 0
10, 135744, Note_on_c, 7, 72, 121
10, 135840, Note_off_c, 7, 72, 0
10, 135840, Note_on_c, 7, 70, 121
10, 135936, Note_off_c, 7, 70, 0
10, 135936, Note_on_c, 7, 67, 121
10, 136320, Note_off_c, 7, 67, 0
10, 136896, Note_on_c, 7, 70, 121
10, 136992, Note_off_c, 7, 70, 0
10, 136992, Note_on_c, 7, 70, 121
10, 137088, Note_off_c, 7, 70, 0
10, 137088, Note_on_c, 7, 70, 121
10, 137184, Note_off_c, 7, 70, 0
10, 137184, Note_on_c, 7, 72, 121
10, 137280, Note_off_c, 7, 72, 0
10, 137280, Note_on_c, 7, 70, 121
10, 137376, Note_off_c, 7, 70, 0
10, 137376, Note_on_c, 7, 69, 121
10, 137472, Note_off_c, 7, 69, 0
10, 137472, Note_on_c, 7, 67, 121
10, 137664, Note_off_c, 7, 67, 0
10, 137760, Note_on_c, 7, 67, 121
10, 137856, Note_off_c, 7, 67, 0
10, 137856, Note_on_c, 7, 67, 121
10, 138048, Note_off_c, 7, 67, 0
10, 138048, Note_on_c, 7, 62, 121
10, 138144, Note_off_c, 7, 62, 0
10, 138144, Note_on_c, 7, 65, 121
10, 138432, Note_off_c, 7, 65, 0
10, 139968, Note_on_c, 7, 74, 121
10, 140064, Note_off_c, 7, 74, 0
10, 140064, Note_on_c, 7, 74, 121
10, 140160, Note_off_c, 7, 74, 0
10, 140160, Note_on_c, 7, 72, 121
10, 140352, Note_off_c, 7, 72, 0
10, 140352, Note_on_c, 7, 70, 121
10, 140544, Note_off_c, 7, 70, 0
10, 140544, Note_on_c, 7, 72, 121
10, 140640, Note_off_c, 7, 72, 0
10, 140640, Note_on_c, 7, 70, 121
10, 140736, Note_off_c, 7, 70, 0
10, 141120, Note_on_c, 7, 72, 121
10, 141216, Note_off_c, 7, 72, 0
10, 141216, Note_on_c, 7, 70, 121
10, 141312, Note_off_c, 7, 70, 0
10, 141312, Note_on_c, 7, 72, 121
10, 141504, Note_off_c, 7, 72, 0
10, 141504, Note_on_c, 7, 70, 121
10, 141600, Note_off_c, 7, 70, 0
10, 141600, Note_on_c, 7, 74, 121
10, 141792, Note_off_c, 7, 74, 0
10, 141792, Note_on_c, 7, 72, 121
10, 141984, Note_off_c, 7, 72, 0
10, 141984, Note_on_c, 7, 70, 121
10, 142080, Note_off_c, 7, 70, 0
10, 142080, Note_on_c, 7, 67, 121
10, 142272, Note_off_c, 7, 67, 0
10, 142752, Note_on_c, 7, 70, 121
10, 142848, Note_off_c, 7, 70, 0
10, 142848, Note_on_c, 7, 70, 121
10, 142944, Note_off_c, 7, 70, 0
10, 142944, Note_on_c, 7, 70, 121
10, 143136, Note_off_c, 7, 70, 0
10, 143136, Note_on_c, 7, 70, 121
10, 143232, Note_off_c, 7, 70, 0
10, 143232, Note_on_c, 7, 72, 121
10, 143424, Note_off_c, 7, 72, 0
10, 143520, Note_on_c, 7, 70, 121
10, 143616, Note_off_c, 7, 70, 0
10, 143616, Note_on_c, 7, 69, 121
10, 143712, Note_off_c, 7, 69, 0
10, 143712, Note_on_c, 7, 67, 121
10, 143904, Note_off_c, 7, 67, 0
10, 143904, Note_on_c, 7, 67, 121
10, 144096, Note_off_c, 7, 67, 0
10, 144096, Note_on_c, 7, 62, 121
10, 144288, Note_off_c, 7, 62, 0
10, 144384, Note_on_c, 7, 65, 121
10, 144576, Note_off_c, 7, 65, 0
10, 144576, End_track
11, 0, Start_track
11, 0, Title_t, "Vocal - Brass Sec."
11, 0, Channel_prefix, 8
11, 0, Control_c, 8, 7, 120
11, 0, Control_c, 8, 10, 44
11, 0, Program_c, 8, 26
11, 57984, Note_on_c, 8, 74, 121
11, 58080, Note_off_c, 8, 74, 0
11, 58176, Note_on_c, 8, 67, 121
11, 58272, Note_off_c, 8, 67, 0
11, 58272, Note_on_c, 8, 67, 121
11, 58368, Note_off_c, 8, 67, 0
11, 58368, Note_on_c, 8, 67, 121
11, 58560, Note_off_c, 8, 67, 0
11, 58560, Note_on_c, 8, 67, 121
11, 58752, Note_off_c, 8, 67, 0
11, 58752, Note_on_c, 8, 70, 121
11, 58944, Note_off_c, 8, 70, 0
11, 58944, Note_on_c, 8, 74, 121
11, 59136, Note_off_c, 8, 74, 0
11, 59136, Note_on_c, 8, 74, 121
11, 59328, Note_off_c, 8, 74, 0
11, 59328, Note_on_c, 8, 72, 121
11, 59712, Note_off_c, 8, 72, 0
11, 59712, Note_on_c, 8, 67, 121
11, 59904, Note_off_c, 8, 67, 0
11, 59904, Note_on_c, 8, 72, 121
11, 60096, Note_off_c, 8, 72, 0
11, 60096, Note_on_c, 8, 70, 121
11, 60288, Note_off_c, 8, 70, 0
11, 60288, Note_on_c, 8, 72, 121
11, 60480, Note_off_c, 8, 72, 0
11, 60480, Note_on_c, 8, 70, 121
11, 60672, Note_off_c, 8, 70, 0
11, 60672, Note_on_c, 8, 74, 121
11, 61056, Note_off_c, 8, 74, 0
11, 61152, Note_on_c, 8, 67, 121
11, 61248, Note_off_c, 8, 67, 0
11, 61248, Note_on_c, 8, 69, 121
11, 61440, Note_off_c, 8, 69, 0
11, 61440, Note_on_c, 8, 70, 121
11, 61536, Note_off_c, 8, 70, 0
11, 61536, Note_on_c, 8, 70, 121
11, 61728, Note_off_c, 8, 70, 0
11, 61728, Note_on_c, 8, 70, 121
11, 62016, Note_off_c, 8, 70, 0
11, 62016, Note_on_c, 8, 72, 121
11, 62208, Note_off_c, 8, 72, 0
11, 62208, Note_on_c, 8, 70, 121
11, 62304, Note_off_c, 8, 70, 0
11, 62304, Note_on_c, 8, 67, 121
11, 62496, Note_off_c, 8, 67, 0
11, 62544, Note_on_c, 8, 70, 121
11, 62784, Note_off_c, 8, 70, 0
11, 62784, Note_on_c, 8, 74, 121
11, 62976, Note_off_c, 8, 74, 0
11, 63168, Note_on_c, 8, 72, 121
11, 63552, Note_off_c, 8, 72, 0
11, 63552, Note_on_c, 8, 70, 121
11, 63648, Note_off_c, 8, 70, 0
11, 63648, Note_on_c, 8, 72, 121
11, 63936, Note_off_c, 8, 72, 0
11, 66336, Note_on_c, 8, 74, 121
11, 66624, Note_off_c, 8, 74, 0
11, 66624, Note_on_c, 8, 72, 121
11, 66720, Note_off_c, 8, 72, 0
11, 66720, Note_on_c, 8, 70, 121
11, 66816, Note_off_c, 8, 70, 0
11, 66816, Note_on_c, 8, 72, 121
11, 66912, Note_off_c, 8, 72, 0
11, 66912, Note_on_c, 8, 70, 121
11, 67200, Note_off_c, 8, 70, 0
11, 67488, Note_on_c, 8, 70, 121
11, 67536, Note_off_c, 8, 70, 0
11, 67536, Note_on_c, 8, 72, 121
11, 67776, Note_off_c, 8, 72, 0
11, 67776, Note_on_c, 8, 70, 121
11, 67968, Note_off_c, 8, 70, 0
11, 67968, Note_on_c, 8, 74, 121
11, 68160, Note_off_c, 8, 74, 0
11, 68160, Note_on_c, 8, 72, 121
11, 68352, Note_off_c, 8, 72, 0
11, 68352, Note_on_c, 8, 70, 121
11, 68448, Note_off_c, 8, 70, 0
11, 68448, Note_on_c, 8, 67, 121
11, 68736, Note_off_c, 8, 67, 0
11, 69264, Note_on_c, 8, 70, 121
11, 69312, Note_off_c, 8, 70, 0
11, 69312, Note_on_c, 8, 70, 121
11, 69456, Note_off_c, 8, 70, 0
11, 69456, Note_on_c, 8, 70, 121
11, 69504, Note_off_c, 8, 70, 0
11, 69504, Note_on_c, 8, 72, 121
11, 69792, Note_off_c, 8, 72, 0
11, 69792, Note_on_c, 8, 70, 121
11, 69888, Note_off_c, 8, 70, 0
11, 69888, Note_on_c, 8, 69, 121
11, 70080, Note_off_c, 8, 69, 0
11, 70080, Note_on_c, 8, 67, 121
11, 70176, Note_off_c, 8, 67, 0
11, 70176, Note_on_c, 8, 67, 121
11, 70464, Note_off_c, 8, 67, 0
11, 70464, Note_on_c, 8, 62, 121
11, 70560, Note_off_c, 8, 62, 0
11, 70560, Note_on_c, 8, 65, 121
11, 70848, Note_off_c, 8, 65, 0
11, 72480, Note_on_c, 8, 72, 121
11, 72576, Note_off_c, 8, 72, 0
11, 72576, Note_on_c, 8, 74, 121
11, 72768, Note_off_c, 8, 74, 0
11, 72768, Note_on_c, 8, 72, 121
11, 72864, Note_off_c, 8, 72, 0
11, 72864, Note_on_c, 8, 70, 121
11, 72960, Note_off_c, 8, 70, 0
11, 72960, Note_on_c, 8, 72, 121
11, 73056, Note_off_c, 8, 72, 0
11, 73056, Note_on_c, 8, 70, 121
11, 73344, Note_off_c, 8, 70, 0
11, 73536, Note_on_c, 8, 72, 121
11, 73632, Note_off_c, 8, 72, 0
11, 73632, Note_on_c, 8, 70, 121
11, 73728, Note_off_c, 8, 70, 0
11, 73728, Note_on_c, 8, 72, 121
11, 74016, Note_off_c, 8, 72, 0
11, 74016, Note_on_c, 8, 72, 121
11, 74112, Note_off_c, 8, 72, 0
11, 74112, Note_on_c, 8, 74, 121
11, 74400, Note_off_c, 8, 74, 0
11, 74400, Note_on_c, 8, 72, 121
11, 74496, Note_off_c, 8, 72, 0
11, 74496, Note_on_c, 8, 70, 121
11, 74592, Note_off_c, 8, 70, 0
11, 74592, Note_on_c, 8, 67, 121
11, 74880, Note_off_c, 8, 67, 0
11, 75168, Note_on_c, 8, 69, 121
11, 75264, Note_off_c, 8, 69, 0
11, 75264, Note_on_c, 8, 70, 121
11, 75360, Note_off_c, 8, 70, 0
11, 75360, Note_on_c, 8, 70, 121
11, 75552, Note_off_c, 8, 70, 0
11, 75744, Note_on_c, 8, 72, 121
11, 75840, Note_off_c, 8, 72, 0
11, 75840, Note_on_c, 8, 70, 121
11, 75936, Note_off_c, 8, 70, 0
11, 75936, Note_on_c, 8, 69, 121
11, 76032, Note_off_c, 8, 69, 0
11, 76032, Note_on_c, 8, 67, 121
11, 76224, Note_off_c, 8, 67, 0
11, 76320, Note_on_c, 8, 67, 121
11, 76512, Note_off_c, 8, 67, 0
11, 76512, Note_on_c, 8, 67, 121
11, 76704, Note_off_c, 8, 67, 0
11, 76704, Note_on_c, 8, 62, 121
11, 76896, Note_off_c, 8, 62, 0
11, 76896, Note_on_c, 8, 65, 121
11, 77088, Note_off_c, 8, 65, 0
11, 80160, Note_on_c, 8, 74, 121
11, 80448, Note_off_c, 8, 74, 0
11, 80448, Note_on_c, 8, 72, 121
11, 80544, Note_off_c, 8, 72, 0
11, 80544, Note_on_c, 8, 70, 121
11, 80640, Note_off_c, 8, 70, 0
11, 80640, Note_on_c, 8, 72, 121
11, 80736, Note_off_c, 8, 72, 0
11, 80736, Note_on_c, 8, 70, 121
11, 81024, Note_off_c, 8, 70, 0
11, 81312, Note_on_c, 8, 70, 121
11, 81360, Note_off_c, 8, 70, 0
11, 81360, Note_on_c, 8, 72, 121
11, 81600, Note_off_c, 8, 72, 0
11, 81600, Note_on_c, 8, 70, 121
11, 81792, Note_off_c, 8, 70, 0
11, 81792, Note_on_c, 8, 74, 121
11, 81984, Note_off_c, 8, 74, 0
11, 81984, Note_on_c, 8, 72, 121
11, 82176, Note_off_c, 8, 72, 0
11, 82176, Note_on_c, 8, 70, 121
11, 82272, Note_off_c, 8, 70, 0
11, 82272, Note_on_c, 8, 67, 121
11, 82560, Note_off_c, 8, 67, 0
11, 82944, Note_on_c, 8, 70, 121
11, 83040, Note_off_c, 8, 70, 0
11, 83040, Note_on_c, 8, 70, 121
11, 83136, Note_off_c, 8, 70, 0
11, 83136, Note_on_c, 8, 70, 121
11, 83232, Note_off_c, 8, 70, 0
11, 83232, Note_on_c, 8, 70, 121
11, 83328, Note_off_c, 8, 70, 0
11, 83328, Note_on_c, 8, 72, 121
11, 83520, Note_off_c, 8, 72, 0
11, 83520, Note_on_c, 8, 70, 121
11, 83616, Note_off_c, 8, 70, 0
11, 83616, Note_on_c, 8, 69, 121
11, 83712, Note_off_c, 8, 69, 0
11, 83712, Note_on_c, 8, 67, 121
11, 83904, Note_off_c, 8, 67, 0
11, 84000, Note_on_c, 8, 67, 121
11, 84048, Note_off_c, 8, 67, 0
11, 84048, Note_on_c, 8, 67, 121
11, 84096, Note_off_c, 8, 67, 0
11, 84096, Note_on_c, 8, 67, 121
11, 84192, Note_off_c, 8, 67, 0
11, 84192, Note_on_c, 8, 62, 121
11, 84384, Note_off_c, 8, 62, 0
11, 84480, Note_on_c, 8, 65, 121
11, 84672, Note_off_c, 8, 65, 0
11, 86208, Note_on_c, 8, 74, 121
11, 86304, Note_off_c, 8, 74, 0
11, 86304, Note_on_c, 8, 74, 121
11, 86400, Note_off_c, 8, 74, 0
11, 86400, Note_on_c, 8, 72, 121
11, 86592, Note_off_c, 8, 72, 0
11, 86592, Note_on_c, 8, 70, 121
11, 86784, Note_off_c, 8, 70, 0
11, 86784, Note_on_c, 8, 72, 121
11, 86880, Note_off_c, 8, 72, 0
11, 86880, Note_on_c, 8, 70, 121
11, 86976, Note_off_c, 8, 70, 0
11, 87360, Note_on_c, 8, 72, 121
11, 87456, Note_off_c, 8, 72, 0
11, 87456, Note_on_c, 8, 70, 121
11, 87552, Note_off_c, 8, 70, 0
11, 87552, Note_on_c, 8, 72, 121
11, 87744, Note_off_c, 8, 72, 0
11, 87744, Note_on_c, 8, 70, 121
11, 87840, Note_off_c, 8, 70, 0
11, 87840, Note_on_c, 8, 74, 121
11, 88032, Note_off_c, 8, 74, 0
11, 88032, Note_on_c, 8, 72, 121
11, 88224, Note_off_c, 8, 72, 0
11, 88224, Note_on_c, 8, 70, 121
11, 88320, Note_off_c, 8, 70, 0
11, 88320, Note_on_c, 8, 67, 121
11, 88512, Note_off_c, 8, 67, 0
11, 88992, Note_on_c, 8, 70, 121
11, 89088, Note_off_c, 8, 70, 0
11, 89088, Note_on_c, 8, 70, 121
11, 89184, Note_off_c, 8, 70, 0
11, 89184, Note_on_c, 8, 70, 121
11, 89376, Note_off_c, 8, 70, 0
11, 89376, Note_on_c, 8, 72, 121
11, 89664, Note_off_c, 8, 72, 0
11, 89664, Note_on_c, 8, 70, 121
11, 89760, Note_off_c, 8, 70, 0
11, 89856, Note_on_c, 8, 69, 121
11, 89952, Note_off_c, 8, 69, 0
11, 89952, Note_on_c, 8, 67, 121
11, 90144, Note_off_c, 8, 67, 0
11, 90144, Note_on_c, 8, 67, 121
11, 90336, Note_off_c, 8, 67, 0
11, 90336, Note_on_c, 8, 62, 121
11, 90528, Note_off_c, 8, 62, 0
11, 90624, Note_on_c, 8, 65, 121
11, 90816, Note_off_c, 8, 65, 0
11, 92448, Note_on_c, 8, 69, 121
11, 92736, Note_off_c, 8, 69, 0
11, 92736, Note_on_c, 8, 70, 121
11, 92928, Note_off_c, 8, 70, 0
11, 92928, Note_on_c, 8, 72, 121
11, 93312, Note_off_c, 8, 72, 0
11, 93312, Note_on_c, 8, 74, 121
11, 93600, Note_off_c, 8, 74, 0
11, 93600, Note_on_c, 8, 72, 121
11, 93696, Note_off_c, 8, 72, 0
11, 93696, Note_on_c, 8, 74, 121
11, 94272, Note_off_c, 8, 74, 0
11, 176064, Note_on_c, 8, 77, 110
11, 176256, Note_off_c, 8, 77, 0
11, 176256, Note_on_c, 8, 75, 110
11, 176448, Note_off_c, 8, 75, 0
11, 176448, Note_on_c, 8, 77, 110
11, 176832, Note_off_c, 8, 77, 0
11, 176832, Note_on_c, 8, 75, 110
11, 176928, Note_off_c, 8, 75, 0
11, 176928, Note_on_c, 8, 77, 110
11, 177024, Note_off_c, 8, 77, 0
11, 177024, Note_on_c, 8, 75, 110
11, 177408, Note_off_c, 8, 75, 0
11, 177792, Note_on_c, 8, 72, 110
11, 177984, Note_off_c, 8, 72, 0
11, 177984, Note_on_c, 8, 70, 110
11, 178176, Note_off_c, 8, 70, 0
11, 178176, Note_on_c, 8, 72, 110
11, 178848, Note_off_c, 8, 72, 0
11, 178848, Note_on_c, 8, 70, 110
11, 178896, Note_off_c, 8, 70, 0
11, 178896, Note_on_c, 8, 69, 110
11, 178944, Note_off_c, 8, 69, 0
11, 178944, Note_on_c, 8, 70, 110
11, 179040, Note_off_c, 8, 70, 0
11, 179040, Note_on_c, 8, 69, 110
11, 179136, Note_off_c, 8, 69, 0
11, 179136, Note_on_c, 8, 65, 110
11, 179712, Note_off_c, 8, 65, 0
11, 179712, End_track
12, 0, Start_track
12, 0, Title_t, """ Aqualung """
12, 0, End_track
13, 0, Start_track
13, 0, Title_t, "by Jethro Tull"
13, 0, End_track
14, 0, Start_track
14, 0, Title_t, "Words and music"
14, 0, End_track
15, 0, Start_track
15, 0, Title_t, "by Ian Anderson"
15, 0, End_track
16, 0, Start_track
16, 0, Title_t, "Sequenced by"
16, 0, End_track
17, 0, Start_track
17, 0, Title_t, "LowCPM   ( c : ="
17, 0, End_track
18, 0, Start_track
18, 0, Title_t, "Comments? Email to:"
18, 0, End_track
19, 0, Start_track
19, 0, Title_t, "lowcpm@onramp.net"
19, 0, End_track
0, 0, End_of_file
